<svg xmlns="http://www.w3.org/2000/svg" viewBox="0 0 48 48"><linearGradient id="g3eLpFrBwK84yp2BmI2G6a" x1="9.113" x2="9.902" y1="18.864" y2="42.002" gradientUnits="userSpaceOnUse"><stop offset="0" stop-color="#1596b1"/><stop offset="1" stop-color="#148daa"/></linearGradient><path fill="url(#g3eLpFrBwK84yp2BmI2G6a)" d="M7,20v21.4c0,0.477,0.336,0.887,0.804,0.981l3,0.6C11.423,43.104,12,42.631,12,42V19L7,20z"/><linearGradient id="g3eLpFrBwK84yp2BmI2G6b" x1="16.099" x2="22.633" y1="29.442" y2="41.593" gradientUnits="userSpaceOnUse"><stop offset="0" stop-color="#38b3cf"/><stop offset="1" stop-color="#35aecc"/></linearGradient><path fill="url(#g3eLpFrBwK84yp2BmI2G6b)" d="M2.716,37.212l25.143,7.699 c0.703,0.208,1.464,0.015,1.982-0.503l7.222-9.262L3.074,33.08C2.494,33.037,2,33.495,2,34.077v2.177 C2,36.696,2.291,37.086,2.716,37.212z"/><linearGradient id="g3eLpFrBwK84yp2BmI2G6c" x1="7" x2="46" y1="12.789" y2="12.789" gradientUnits="userSpaceOnUse"><stop offset="0" stop-color="#3fbcd4"/><stop offset="1" stop-color="#3fbcd4"/></linearGradient><path fill="url(#g3eLpFrBwK84yp2BmI2G6c)" d="M7,20l37.15-2.861 c1.044-0.078,1.85-0.948,1.85-1.994V7.579c0-1.307-1.233-2.262-2.498-1.937l-30.877,8.197c-0.406,0.105-0.77,0.334-1.038,0.657 L7,20z"/><linearGradient id="g3eLpFrBwK84yp2BmI2G6d" x1="33.28" x2="33.28" y1="2.025" y2="44.994" gradientUnits="userSpaceOnUse"><stop offset="0" stop-color="#69d4e8"/><stop offset="1" stop-color="#57c7e2"/></linearGradient><path fill="url(#g3eLpFrBwK84yp2BmI2G6d)" d="M36.608,2.064l-6,1.2 C29.673,3.451,29,4.272,29,5.225v29.49v7.986c0,0.934-0.571,1.774-1.44,2.118l0.015,0.008l0.284,0.084 c0.703,0.208,1.464,0.015,1.982-0.503l8.573-8.573C38.789,35.46,39,34.952,39,34.421V4.025C39,2.763,37.845,1.817,36.608,2.064z"/></svg>