<svg xmlns="http://www.w3.org/2000/svg" viewBox="0 0 48 48"><radialGradient id="g6F3XiRIbOqZ48EWi6O6Fa" cx="32.735" cy="29.909" r="28.239" gradientUnits="userSpaceOnUse"><stop offset=".731" stop-color="#3a41ac"/><stop offset="1" stop-color="#5961c3"/></radialGradient><path fill="url(#g6F3XiRIbOqZ48EWi6O6Fa)" d="M1.032,35.5C0.054,27.674,5.734,3.543,32.147,2.669L31.473,9.79L1.032,35.5z"/><linearGradient id="g6F3XiRIbOqZ48EWi6O6Fb" x1="24.26" x2="24.26" y1="-.825" y2="40.982" gradientUnits="userSpaceOnUse"><stop offset="0" stop-color="#7b83eb"/><stop offset="1" stop-color="#5961c3"/></linearGradient><path fill="url(#g6F3XiRIbOqZ48EWi6O6Fb)" d="M43.215,20.936c-0.541-0.386-1.057-0.754-1.53-1.146c-0.504-1.702-2.49-7.481-6.905-10.37 l-0.479-5.803c-0.049-0.599-0.453-1.109-1.025-1.3c-0.571-0.191-1.204-0.024-1.606,0.424l-4.519,5.032 C14.81,10.891,4.542,19.956,1.02,35.521C8.859,44.037,24,46,24.34,46c0.006,0,0.013,0,0.019,0c0.641,0,0.898-0.21,1.185-0.569 c0.29-0.365,0.334-0.832,0.28-1.295C25,37,25,31,26.862,26c4.027,3,7.037,3.459,9.134,4.104c2.279,3.523,5.135,3.436,6.293,3.221 c2.477-0.46,4.773-2.707,5.117-4.996C48.039,24.375,45.365,22.468,43.215,20.936z"/><circle cx="31.5" cy="17.5" r="1.5" fill="#292c61"/><ellipse cx="44" cy="27.5" fill="#4c54ba" rx="1" ry="1.5"/><radialGradient id="g6F3XiRIbOqZ48EWi6O6Fc" cx="27.734" cy="27.617" r="6.997" gradientUnits="userSpaceOnUse"><stop offset=".573" stop-color="#3a41ac"/><stop offset="1" stop-color="#5961c3"/></radialGradient><path fill="url(#g6F3XiRIbOqZ48EWi6O6Fc)" d="M26.862,26c-1.799-1.192-2.884-3.093-3.467-4.435c-0.156-0.36-0.704-0.239-0.7,0.152 c0.04,3.85,2.591,5.757,3.529,6.329C26.406,27.346,26.615,26.663,26.862,26z"/></svg>