<svg xmlns="http://www.w3.org/2000/svg" viewBox="0 0 48 48"><path fill="#565b5e" d="M13,42v-7H6v7c0,0.552,0.448,1,1,1h5C12.552,43,13,42.552,13,42z"/><path fill="#565b5e" d="M42,42v-7h-7v7c0,0.552,0.448,1,1,1h5C41.552,43,42,42.552,42,42z"/><linearGradient id="NaN_fR9z2HoRDSzEJrXLCa" x1="14.641" x2="27.476" y1="7.198" y2="42.462" gradientUnits="userSpaceOnUse"><stop offset="0" stop-color="#42a3f2"/><stop offset="1" stop-color="#42a4eb"/></linearGradient><path fill="url(#NaN_fR9z2HoRDSzEJrXLCa)" d="M39,24l-2.598-9.526C36.165,13.604,35.374,13,34.472,13H13.528	c-0.902,0-1.692,0.604-1.93,1.474L9,24l-2.4,3.2C6.211,27.719,6,28.351,6,29v8c0,1.105,0.895,2,2,2h32c1.105,0,2-0.895,2-2v-8	c0-0.649-0.211-1.281-0.6-1.8L39,24z"/><circle cx="10.5" cy="31.5" r="2.5" fill="#fff"/><circle cx="37.5" cy="31.5" r="2.5" fill="#fff"/><linearGradient id="NaN_fR9z2HoRDSzEJrXLCb" x1="15" x2="33" y1="33" y2="33" gradientUnits="userSpaceOnUse"><stop offset="0" stop-color="#3079d6"/><stop offset="1" stop-color="#297cd2"/></linearGradient><path fill="url(#NaN_fR9z2HoRDSzEJrXLCb)" d="M15,31l1.497,2.994C16.801,34.602,17.536,35,18.354,35h11.292	c0.818,0,1.553-0.398,1.857-1.006L33,31H15z"/><linearGradient id="NaN_fR9z2HoRDSzEJrXLCc" x1="33.291" x2="47.156" y1="-.516" y2="37.578" gradientUnits="userSpaceOnUse"><stop offset="0" stop-color="#42a3f2"/><stop offset="1" stop-color="#42a4eb"/></linearGradient><path fill="url(#NaN_fR9z2HoRDSzEJrXLCc)" d="M43,25h-4v-2c0-1.105,0.895-2,2-2h3c0.552,0,1,0.448,1,1v1C45,24.105,44.105,25,43,25z"/><linearGradient id="NaN_fR9z2HoRDSzEJrXLCd" x1=".992" x2="15.29" y1="9.241" y2="48.525" gradientUnits="userSpaceOnUse"><stop offset="0" stop-color="#42a3f2"/><stop offset="1" stop-color="#42a4eb"/></linearGradient><path fill="url(#NaN_fR9z2HoRDSzEJrXLCd)" d="M5,25h4v-2c0-1.105-0.895-2-2-2H4c-0.552,0-1,0.448-1,1v1C3,24.105,3.895,25,5,25z"/><linearGradient id="NaN_fR9z2HoRDSzEJrXLCe" x1="24" x2="24" y1="29.368" y2="9.338" gradientUnits="userSpaceOnUse"><stop offset="0" stop-color="#3079d6"/><stop offset="1" stop-color="#297cd2"/></linearGradient><path fill="url(#NaN_fR9z2HoRDSzEJrXLCe)" d="M36.75,25l-2.183-8.485C34.344,15.623,33.546,15,32.627,15H15.373	c-0.919,0-1.717,0.623-1.94,1.515L11.25,25H36.75z"/><radialGradient id="NaN_fR9z2HoRDSzEJrXLCf" cx="23.5" cy="10.571" r="9.481" gradientUnits="userSpaceOnUse"><stop offset=".88" stop-opacity=".2"/><stop offset="1" stop-opacity="0"/></radialGradient><path fill="url(#NaN_fR9z2HoRDSzEJrXLCf)" d="M32.66,13c-1.09,4.04-4.78,7-9.16,7s-8.07-2.96-9.16-7H32.66z"/><linearGradient id="NaN_fR9z2HoRDSzEJrXLCg" x1="17.666" x2="29.498" y1="830.666" y2="842.498" gradientTransform="translate(0 -826)" gradientUnits="userSpaceOnUse"><stop offset="0" stop-color="#fede00"/><stop offset="1" stop-color="#ffd000"/></linearGradient><circle cx="23.5" cy="10.5" r="8.5" fill="url(#NaN_fR9z2HoRDSzEJrXLCg)"/><circle cx="23.5" cy="10.5" r="6.5" fill="#f5be00"/><path fill="#fee119" d="M21.339,13.703v-1.295c0.47,0.288,0.971,0.432,1.502,0.432c0.4,0,0.713-0.095,0.938-0.285	c0.225-0.19,0.338-0.448,0.338-0.775c0-0.681-0.481-1.022-1.444-1.022c-0.314,0-0.693,0.029-1.138,0.086V7h3.81v1.238H22.83v1.377	c0.202-0.019,0.392-0.029,0.571-0.029c0.707,0,1.26,0.186,1.66,0.556c0.4,0.371,0.6,0.871,0.6,1.497	c0,0.693-0.238,1.261-0.715,1.701C24.469,13.781,23.823,14,23.007,14C22.346,14.001,21.79,13.902,21.339,13.703z"/></svg>