<svg xmlns="http://www.w3.org/2000/svg" data-name="Слой 1" viewBox="0 0 48 48"><defs><linearGradient id="i9VqiQgh5eXg6MhKdGK4Qa" x1="24.196" x2="32.487" y1="9" y2="9" data-name="Безымянный градиент 2" gradientUnits="userSpaceOnUse"><stop offset="0" stop-color="#ffcf54"/><stop offset=".261" stop-color="#fdcb4d"/><stop offset=".639" stop-color="#f7c13a"/><stop offset="1" stop-color="#f0b421"/></linearGradient><linearGradient id="i9VqiQgh5eXg6MhKdGK4Qb" x1="32" x2="39" y1="15.5" y2="15.5" data-name="Безымянный градиент 12" gradientUnits="userSpaceOnUse"><stop offset="0" stop-color="#2aa4f4"/><stop offset="1" stop-color="#007ad9"/></linearGradient></defs><path fill="url(#i9VqiQgh5eXg6MhKdGK4Qa)" d="M32,9a4,4,0,1,1-3.998-4A3.99975,3.99975,0,0,1,32,9Z"/><path fill="url(#i9VqiQgh5eXg6MhKdGK4Qb)" d="M33,14a1,1,0,1,1,1-1A1,1,0,0,1,33,14Zm4,1a1,1,0,1,0-1,1A1,1,0,0,0,37,15Zm2,3a1,1,0,1,0-1,1A1,1,0,0,0,39,18Z"/><path fill="#005094" d="M30,21H40a0,0,0,0,1,0,0v8a0,0,0,0,1,0,0H36a6,6,0,0,1-6-6V21A0,0,0,0,1,30,21Z"/><path fill="#35c1f1" d="M16,22a4,4,0,1,1-3.998-4A3.99975,3.99975,0,0,1,16,22Z"/><path fill="#35c1f1" d="M13,41.5A1.5,1.5,0,1,1,11.50075,40,1.49991,1.49991,0,0,1,13,41.5Z"/><path fill="#35c1f1" d="M29,27.5A1.5,1.5,0,1,1,27.50075,26,1.49991,1.49991,0,0,1,29,27.5Z"/><polygon fill="#35c1f1" points="13 41.5 13 24.75 8.011 22.305 10 41.5 13 41.5"/><path fill="#35c1f1" d="M26.35882,28.47351l-3.77209-3.98163a2,2,0,0,1-.695-1.24982L21,17l4-2v7.5l3.54372,3.92261Z"/><polygon fill="#35c1f1" points="9.359 18.94 18.731 11.705 23.255 18.304 14.332 25.251 9.359 18.94"/><path fill="#35c1f1" d="M25,15a4,4,0,1,1-3.998-4A3.99975,3.99975,0,0,1,25,15Z"/><path fill="#0078d4" d="M29,20H40a0,0,0,0,1,0,0v2a0,0,0,0,1,0,0H29a1,1,0,0,1-1-1v0A1,1,0,0,1,29,20Z"/></svg>