<svg xmlns="http://www.w3.org/2000/svg" viewBox="0 0 48 48"><linearGradient id="H1SskMusTXN8W6kN0_Rsda" x1="10" x2="10" y1="42" y2="21.072" gradientTransform="matrix(-1 0 0 1 48 0)" gradientUnits="userSpaceOnUse"><stop offset=".273" stop-color="#912fbd"/><stop offset=".588" stop-color="#8f2ebb"/><stop offset=".758" stop-color="#892bb3"/><stop offset=".894" stop-color="#7e26a5"/><stop offset="1" stop-color="#701f94"/></linearGradient><path fill="url(#H1SskMusTXN8W6kN0_Rsda)" d="M34,21v19c0,1.105,0.895,2,2,2h4c1.105,0,2-0.895,2-2V21H34z"/><linearGradient id="H1SskMusTXN8W6kN0_Rsdb" x1="6" x2="42.909" y1="17" y2="17" gradientTransform="matrix(-1 0 0 1 48 0)" gradientUnits="userSpaceOnUse"><stop offset="0" stop-color="#ae4cd5"/><stop offset="1" stop-color="#ac4ad5"/></linearGradient><path fill="url(#H1SskMusTXN8W6kN0_Rsdb)" d="M5.357,16.357l9.091-9.091c0.26-0.26,0.65-0.337,0.991-0.197C15.779,7.21,16,7.541,16,7.909	V13h14.686c2.122,0,4.157,0.843,5.657,2.343L42,21H16v5.091c0,0.368-0.221,0.699-0.561,0.84C15.326,26.977,15.208,27,15.091,27	c-0.236,0-0.469-0.092-0.643-0.266l-9.091-9.091C5.002,17.288,5.002,16.712,5.357,16.357z"/></svg>