<svg xmlns="http://www.w3.org/2000/svg" viewBox="0 0 48 48"><linearGradient id="K4oOdwzYWWxWA3aaSks5Ca" x1="5.91" x2="10.976" y1="-.286" y2="34.321" gradientUnits="userSpaceOnUse"><stop offset="0" stop-color="#fafafb"/><stop offset=".4" stop-color="#dcdedf"/><stop offset="1" stop-color="#a8adb0"/></linearGradient><path fill="url(#K4oOdwzYWWxWA3aaSks5Ca)" d="M3.024,11.071L17,17l-3,19c0,0-12.349,0.948-12.998-11.926C0.973,23.494,1.42,23,2.001,23H4 c0,0-4.699-2.407-2.32-11.247C1.837,11.171,2.464,10.847,3.024,11.071z"/><linearGradient id="K4oOdwzYWWxWA3aaSks5Cb" x1="59.91" x2="64.976" y1="-.286" y2="34.321" gradientTransform="matrix(-1 0 0 1 102.001 0)" gradientUnits="userSpaceOnUse"><stop offset="0" stop-color="#fafafb"/><stop offset=".4" stop-color="#dcdedf"/><stop offset="1" stop-color="#a8adb0"/></linearGradient><path fill="url(#K4oOdwzYWWxWA3aaSks5Cb)" d="M44.977,11.071L31.001,17l3,19c0,0,12.349,0.948,12.998-11.926 C47.028,23.494,46.581,23,46,23h-1.999c0,0,4.699-2.407,2.32-11.247C46.164,11.171,45.537,10.847,44.977,11.071z"/><path fill="#fadb34" d="M41.869,14.06c-0.121-0.261-0.343-0.473-0.644-0.555l-10.125-2.768L24.72,4.3 C24.521,4.1,24.261,4,24,4v18.978L41.869,14.06z"/><path fill="#e3a600" d="M41.702,35.065c0.223-0.254,0.332-0.601,0.226-0.954l-3.055-10.112l3.047-9.194 c0.085-0.257,0.053-0.52-0.052-0.746L24,22.978L41.702,35.065z"/><path fill="#c48c00" d="M31.18,37.193l9.956-1.786c0.236-0.042,0.421-0.176,0.566-0.342L24,22.978V44 c0.26,0,0.521-0.1,0.719-0.299L31.18,37.193z"/><path fill="#fff696" d="M6.131,14.06c0.121-0.261,0.343-0.473,0.644-0.555l10.125-2.768L23.28,4.3C23.479,4.1,23.739,4,24,4 v18.978L6.131,14.06z"/><path fill="#fadb34" d="M6.298,35.065c-0.223-0.254-0.332-0.601-0.226-0.954l3.055-10.112l-3.047-9.194 c-0.085-0.257-0.053-0.52,0.052-0.746L24,22.978L6.298,35.065z"/><path fill="#e3a600" d="M16.82,37.193l-9.956-1.786c-0.236-0.042-0.421-0.176-0.566-0.342L24,22.978V44 c-0.26,0-0.521-0.1-0.719-0.299L16.82,37.193z"/><ellipse cx="24" cy="25.5" fill="#fadb34" rx="11" ry="10.5"/><radialGradient id="K4oOdwzYWWxWA3aaSks5Cc" cx="24" cy="23.5" r="10.753" gradientUnits="userSpaceOnUse"><stop offset="0" stop-color="#636363"/><stop offset=".998" stop-color="#3b3b3b"/></radialGradient><ellipse cx="24" cy="23.5" fill="url(#K4oOdwzYWWxWA3aaSks5Cc)" rx="11" ry="10.5"/><linearGradient id="K4oOdwzYWWxWA3aaSks5Cd" x1="20.287" x2="28.276" y1="15.923" y2="31.142" gradientUnits="userSpaceOnUse"><stop offset="0" stop-color="#ffda1c"/><stop offset="1" stop-color="#e3a600"/></linearGradient><path fill="url(#K4oOdwzYWWxWA3aaSks5Cd)" d="M33,23c0-4.418-4.029-8-9-8s-9,3.582-9,8c0,3.139,2.039,5.849,5,7.159V31 c0,0.552,0.448,1,1,1h6c0.552,0,1-0.448,1-1v-0.841C30.961,28.849,33,26.139,33,23z"/><linearGradient id="K4oOdwzYWWxWA3aaSks5Ce" x1="20.075" x2="20.896" y1="23.09" y2="27.745" gradientUnits="userSpaceOnUse"><stop offset="0" stop-color="#636363"/><stop offset=".998" stop-color="#3b3b3b"/></linearGradient><circle cx="20.5" cy="25.5" r="2.5" fill="url(#K4oOdwzYWWxWA3aaSks5Ce)"/><linearGradient id="K4oOdwzYWWxWA3aaSks5Cf" x1="27.075" x2="27.896" y1="23.09" y2="27.745" gradientUnits="userSpaceOnUse"><stop offset="0" stop-color="#636363"/><stop offset=".998" stop-color="#3b3b3b"/></linearGradient><circle cx="27.5" cy="25.5" r="2.5" fill="url(#K4oOdwzYWWxWA3aaSks5Cf)"/><linearGradient id="K4oOdwzYWWxWA3aaSks5Cg" x1="23.675" x2="24.014" y1="27.152" y2="29.076" gradientUnits="userSpaceOnUse"><stop offset="0" stop-color="#636363"/><stop offset=".998" stop-color="#3b3b3b"/></linearGradient><path fill="url(#K4oOdwzYWWxWA3aaSks5Cg)" d="M23,28.994c0,0.006,2,0,2,0l-1-1.921L23,28.994z"/><linearGradient id="K4oOdwzYWWxWA3aaSks5Ch" x1="22" x2="22" y1="21.14" y2="22.845" gradientUnits="userSpaceOnUse"><stop offset="0" stop-color="#636363"/><stop offset=".083" stop-color="#5c5c5c"/><stop offset=".37" stop-color="#4a4a4a"/><stop offset=".67" stop-color="#3f3f3f"/><stop offset=".998" stop-color="#3b3b3b"/></linearGradient><path fill="url(#K4oOdwzYWWxWA3aaSks5Ch)" d="M22.5,23c-0.128,0-0.256-0.049-0.354-0.146l-1-1c-0.195-0.195-0.195-0.512,0-0.707 s0.512-0.195,0.707,0l1,1c0.195,0.195,0.195,0.512,0,0.707C22.756,22.951,22.628,23,22.5,23z"/><linearGradient id="K4oOdwzYWWxWA3aaSks5Ci" x1="26" x2="26" y1="21.124" y2="22.708" gradientUnits="userSpaceOnUse"><stop offset="0" stop-color="#636363"/><stop offset=".13" stop-color="#565656"/><stop offset=".359" stop-color="#474747"/><stop offset=".623" stop-color="#3e3e3e"/><stop offset="1" stop-color="#3b3b3b"/></linearGradient><path fill="url(#K4oOdwzYWWxWA3aaSks5Ci)" d="M25.5,23c-0.128,0-0.256-0.049-0.354-0.146c-0.195-0.195-0.195-0.512,0-0.707l1-1 c0.195-0.195,0.512-0.195,0.707,0s0.195,0.512,0,0.707l-1,1C25.756,22.951,25.628,23,25.5,23z"/><ellipse cx="19.845" cy="18.69" fill="#fff9ba" rx="2" ry="1.5" transform="rotate(-36.017 19.846 18.691)"/></svg>