<svg xmlns="http://www.w3.org/2000/svg" viewBox="0 0 48 48"><linearGradient id="xRWNq8M3U86hy04INeNrca" x1="2.886" x2="16.796" y1="19.5" y2="19.5" gradientUnits="userSpaceOnUse"><stop offset="0" stop-color="#c26715"/><stop offset="0" stop-color="#c26715"/><stop offset=".51" stop-color="#b85515"/><stop offset="1" stop-color="#ad3f16"/></linearGradient><path fill="url(#xRWNq8M3U86hy04INeNrca)" d="M10,23c3.866,0,7-3.134,7-7H3C3,19.866,6.134,23,10,23z"/><linearGradient id="xRWNq8M3U86hy04INeNrcb" x1="30.96" x2="44.716" y1="19.5" y2="19.5" gradientUnits="userSpaceOnUse"><stop offset="0" stop-color="#ad3f16"/><stop offset=".49" stop-color="#b85515"/><stop offset="1" stop-color="#c26715"/><stop offset="1" stop-color="#c26715"/></linearGradient><path fill="url(#xRWNq8M3U86hy04INeNrcb)" d="M38,23c3.866,0,7-3.134,7-7H31C31,19.866,34.134,23,38,23z"/><linearGradient id="xRWNq8M3U86hy04INeNrcc" x1="24" x2="24" y1="46.375" y2="43.861" gradientUnits="userSpaceOnUse"><stop offset="0" stop-color="#c26715"/><stop offset="0" stop-color="#c26715"/><stop offset=".51" stop-color="#b85515"/><stop offset="1" stop-color="#ad3f16"/></linearGradient><circle cx="24" cy="43" r="3" fill="url(#xRWNq8M3U86hy04INeNrcc)"/><linearGradient id="xRWNq8M3U86hy04INeNrcd" x1="24" x2="24" y1="12.114" y2="47.251" gradientUnits="userSpaceOnUse"><stop offset="0" stop-color="#c26715"/><stop offset="0" stop-color="#c26715"/><stop offset=".51" stop-color="#b85515"/><stop offset="1" stop-color="#ad3f16"/></linearGradient><circle cx="24" cy="23" r="10" fill="url(#xRWNq8M3U86hy04INeNrcd)"/><linearGradient id="xRWNq8M3U86hy04INeNrce" x1="24" x2="24" y1="12.114" y2="47.251" gradientUnits="userSpaceOnUse"><stop offset="0" stop-color="#c26715"/><stop offset="0" stop-color="#c26715"/><stop offset=".51" stop-color="#b85515"/><stop offset="1" stop-color="#ad3f16"/></linearGradient><path fill="url(#xRWNq8M3U86hy04INeNrce)" d="M24,23H14c0,10,6,11,6,19c2.75,0,5.25,0,8,0c0-8,6-9,6-19H24z"/><linearGradient id="xRWNq8M3U86hy04INeNrcf" x1="24" x2="24" y1="24.489" y2="48.353" gradientUnits="userSpaceOnUse"><stop offset="0" stop-color="#d4943b"/><stop offset="1" stop-color="#c2620e"/><stop offset="1" stop-color="#c2620e"/></linearGradient><path fill="url(#xRWNq8M3U86hy04INeNrcf)" d="M25.413,31h-2.826c-0.929,0-1.736,0.64-1.948,1.545l-1.587,6.797	C18.668,41.781,20.448,44,22.789,44h2.421c2.341,0,4.122-2.219,3.737-4.658l-1.587-6.797C27.149,31.64,26.343,31,25.413,31z"/><path d="M22.62,13.1c-0.17,0.02-0.33,0.04-0.49,0.08c-0.17,0.03-0.33,0.06-0.49,0.11C21.88,14.1,22,15,22,16c0,1.1-0.9,2-2,2 s-2-0.9-2-2c0-0.33-0.02-0.65-0.06-0.95c-0.16,0.12-0.31,0.24-0.46,0.37c-0.17,0.14-0.33,0.29-0.48,0.45V16c0,1.65,1.35,3,3,3 s3-1.35,3-3C23,14.95,22.87,13.98,22.62,13.1z" opacity=".05"/><path d="M22.13,13.18c-0.17,0.03-0.33,0.06-0.49,0.11C21.88,14.1,22,15,22,16c0,1.1-0.9,2-2,2s-2-0.9-2-2 c0-0.33-0.02-0.65-0.06-0.95c-0.16,0.12-0.31,0.24-0.46,0.37C17.5,15.61,17.5,15.8,17.5,16c0,1.38,1.12,2.5,2.5,2.5 s2.5-1.12,2.5-2.5C22.5,14.97,22.38,14.02,22.13,13.18z" opacity=".07"/><linearGradient id="xRWNq8M3U86hy04INeNrcg" x1="12" x2="12" y1="-12.073" y2="42.315" gradientUnits="userSpaceOnUse"><stop offset="0" stop-color="#ffcf7b"/><stop offset=".196" stop-color="#fecd76"/><stop offset=".439" stop-color="#fac666"/><stop offset=".709" stop-color="#f3bc4d"/><stop offset=".995" stop-color="#eaad2a"/><stop offset="1" stop-color="#eaad29"/></linearGradient><path fill="url(#xRWNq8M3U86hy04INeNrcg)" d="M17,8.704V6c0-1.104-0.896-2-2-2s-2,0.896-2,2v2.026C12.674,8.012,12.344,8,12,8	C9.121,8,8,6.878,8,4c0-1.104-0.896-2-2-2S4,2.896,4,4c0,1.436,0.241,2.693,0.689,3.766L3.515,8.06	C2.443,8.328,1.792,9.414,2.06,10.485C2.287,11.394,3.103,12,3.998,12c0.161,0,0.324-0.02,0.487-0.06l3.306-0.827	C8.954,11.694,10.363,12,12,12c5.019,0,6,1.467,6,4c0,1.104,0.896,2,2,2s2-0.896,2-2C22,12.254,20.317,9.818,17,8.704z"/><path d="M30.52,15.42c-0.15-0.13-0.3-0.25-0.46-0.37C30.02,15.35,30,15.67,30,16c0,1.1-0.9,2-2,2s-2-0.9-2-2 c0-1,0.12-1.9,0.36-2.71c-0.16-0.05-0.32-0.08-0.49-0.11c-0.16-0.04-0.32-0.06-0.49-0.08C25.13,13.98,25,14.95,25,16 c0,1.65,1.35,3,3,3s3-1.35,3-3v-0.13C30.85,15.71,30.69,15.56,30.52,15.42z" opacity=".05"/><path d="M30.06,15.05C30.02,15.35,30,15.67,30,16c0,1.1-0.9,2-2,2s-2-0.9-2-2c0-1,0.12-1.9,0.36-2.71 c-0.16-0.05-0.32-0.08-0.49-0.11c-0.25,0.84-0.37,1.79-0.37,2.82c0,1.38,1.12,2.5,2.5,2.5s2.5-1.12,2.5-2.5c0-0.2,0-0.39,0.02-0.58 C30.37,15.29,30.22,15.17,30.06,15.05z" opacity=".07"/><linearGradient id="xRWNq8M3U86hy04INeNrch" x1="36" x2="36" y1="-12.073" y2="42.315" gradientUnits="userSpaceOnUse"><stop offset="0" stop-color="#ffcf7b"/><stop offset=".196" stop-color="#fecd76"/><stop offset=".439" stop-color="#fac666"/><stop offset=".709" stop-color="#f3bc4d"/><stop offset=".995" stop-color="#eaad2a"/><stop offset="1" stop-color="#eaad29"/></linearGradient><path fill="url(#xRWNq8M3U86hy04INeNrch)" d="M44.485,8.06l-1.175-0.294C43.759,6.693,44,5.436,44,4c0-1.104-0.896-2-2-2s-2,0.896-2,2	c0,2.878-1.121,4-4,4c-0.344,0-0.674,0.012-1,0.026V6c0-1.104-0.896-2-2-2s-2,0.896-2,2v2.704c-3.317,1.114-5,3.55-5,7.296	c0,1.104,0.896,2,2,2s2-0.896,2-2c0-2.533,0.981-4,6-4c1.637,0,3.046-0.306,4.208-0.886l3.306,0.827	c0.163,0.041,0.326,0.06,0.487,0.06c0.896,0,1.711-0.606,1.938-1.516C46.208,9.414,45.557,8.328,44.485,8.06z"/><path fill="#5c2415" d="M29,30h-1.5c-0.276,0-0.5-0.224-0.5-0.5v-0.023C27,28.109,28.109,27,29.477,27H29.5	c0.276,0,0.5,0.224,0.5,0.5V29C30,29.552,29.552,30,29,30z"/><path fill="#5c2415" d="M19,30h1.5c0.276,0,0.5-0.224,0.5-0.5v-0.023C21,28.109,19.891,27,18.523,27H18.5	c-0.276,0-0.5,0.224-0.5,0.5V29C18,29.552,18.448,30,19,30z"/><path fill="#5c2415" d="M21,38c0,3.094,2.062,4,3,4s3-0.906,3-4H21z"/></svg>