<svg xmlns="http://www.w3.org/2000/svg" viewBox="0 0 48 48"><linearGradient id="wWfb2c1crjDRBH08zBrwpa" x1="5.327" x2="38.083" y1="217.656" y2="184.901" gradientTransform="matrix(1 0 0 -1 0 223)" gradientUnits="userSpaceOnUse"><stop offset="0" stop-color="#889097"/><stop offset=".331" stop-color="#848c94"/><stop offset=".669" stop-color="#78828b"/><stop offset="1" stop-color="#64717c"/></linearGradient><path fill="url(#wWfb2c1crjDRBH08zBrwpa)" d="M43.407,19.243c-2.389-0.029-4.702-1.274-5.983-3.493c-1.233-2.136-1.208-4.649-0.162-6.693	c-2.125-1.887-4.642-3.339-7.43-4.188C28.577,6.756,26.435,8,24,8s-4.577-1.244-5.831-3.131c-2.788,0.849-5.305,2.301-7.43,4.188	c1.046,2.044,1.071,4.557-0.162,6.693c-1.281,2.219-3.594,3.464-5.983,3.493C4.22,20.77,4,22.358,4,24	c0,1.284,0.133,2.535,0.364,3.752c2.469-0.051,4.891,1.208,6.213,3.498c1.368,2.37,1.187,5.204-0.22,7.345	c2.082,1.947,4.573,3.456,7.34,4.375C18.827,40.624,21.221,39,24,39s5.173,1.624,6.303,3.971c2.767-0.919,5.258-2.428,7.34-4.375	c-1.407-2.141-1.588-4.975-0.22-7.345c1.322-2.29,3.743-3.549,6.213-3.498C43.867,26.535,44,25.284,44,24	C44,22.358,43.78,20.77,43.407,19.243z"/><g opacity=".05"><path d="M18.223,19.014v2.135l-5.975,2.557v0.054l5.975,2.404V28.3l-8.379-3.822v-1.453L18.223,19.014 M19.223,17.427 l-1.432,0.685l-8.379,4.01l-0.568,0.272v0.63v1.453v0.643l0.585,0.267l8.379,3.822l1.415,0.645V28.3v-2.135v-0.676l-0.627-0.252 l-3.805-1.531l3.825-1.637l0.607-0.26v-0.66v-2.135V17.427L19.223,17.427z"/><path d="M28.279,16l-6.271,15h-2.53l6.244-15H28.279 M29.781,15h-1.502h-2.557h-0.667l-0.256,0.616l-6.244,15L17.979,32h1.499 h2.53h0.666l0.257-0.614l6.271-15L29.781,15L29.781,15z"/><path d="M29.777,18.925l8.379,3.983v1.453l-8.379,3.822v-2.126l5.993-2.395v-0.036l-5.993-2.566V18.925 M28.777,17.342v1.583 v2.135v0.66l0.606,0.26l3.815,1.633l-3.792,1.516l-0.629,0.251v0.677v2.126v1.555l1.415-0.645l8.379-3.822l0.585-0.267v-0.643 v-1.453v-0.632l-0.571-0.271l-8.379-3.983L28.777,17.342L28.777,17.342z"/></g><g opacity=".07"><path d="M18.223,19.014v2.135l-5.975,2.557v0.054l5.975,2.404V28.3l-8.379-3.822v-1.453L18.223,19.014 M18.723,18.221 l-0.716,0.343l-8.379,4.01L9.344,22.71v0.315v1.453v0.322l0.293,0.133l8.379,3.822l0.707,0.323V28.3v-2.135v-0.338l-0.313-0.126 l-4.922-1.981l4.932-2.111l0.303-0.13v-0.33v-2.135V18.221L18.723,18.221z"/><path d="M28.279,16l-6.271,15h-2.53l6.244-15H28.279 M29.03,15.5h-0.751h-2.557h-0.333l-0.128,0.308l-6.244,15L18.729,31.5h0.75 h2.53h0.333l0.128-0.307l6.271-15L29.03,15.5L29.03,15.5z"/><path d="M29.777,18.925l8.379,3.983v1.453l-8.379,3.822v-2.126l5.993-2.395v-0.036l-5.993-2.566V18.925 M29.277,18.133v0.791 v2.135v0.33l0.303,0.13l4.926,2.109l-4.914,1.964l-0.314,0.126v0.339v2.126v0.778l0.707-0.323l8.379-3.822l0.293-0.133v-0.322 v-1.453v-0.316l-0.285-0.136l-8.379-3.983L29.277,18.133L29.277,18.133z"/></g><linearGradient id="wWfb2c1crjDRBH08zBrwpb" x1="14.034" x2="14.034" y1="17.652" y2="52.391" gradientUnits="userSpaceOnUse"><stop offset="0" stop-color="#fff"/><stop offset=".242" stop-color="#f2f2f2"/><stop offset="1" stop-color="#ccc"/></linearGradient><path fill="url(#wWfb2c1crjDRBH08zBrwpb)" d="M18.223,28.3l-8.379-3.822v-1.453l8.379-4.01v2.135l-5.975,2.557v0.054l5.975,2.404V28.3z"/><linearGradient id="wWfb2c1crjDRBH08zBrwpc" x1="23.879" x2="23.879" y1="17.652" y2="52.391" gradientUnits="userSpaceOnUse"><stop offset="0" stop-color="#fff"/><stop offset=".242" stop-color="#f2f2f2"/><stop offset="1" stop-color="#ccc"/></linearGradient><path fill="url(#wWfb2c1crjDRBH08zBrwpc)" d="M28.279,16l-6.271,15h-2.53l6.244-15H28.279z"/><linearGradient id="wWfb2c1crjDRBH08zBrwpd" x1="33.966" x2="33.966" y1="17.652" y2="52.391" gradientUnits="userSpaceOnUse"><stop offset="0" stop-color="#fff"/><stop offset=".242" stop-color="#f2f2f2"/><stop offset="1" stop-color="#ccc"/></linearGradient><path fill="url(#wWfb2c1crjDRBH08zBrwpd)" d="M38.156,24.361l-8.379,3.822v-2.126l5.993-2.395v-0.036l-5.993-2.566v-2.135l8.379,3.983 V24.361z"/></svg>