<svg xmlns="http://www.w3.org/2000/svg" viewBox="0 0 48 48"><path fill="#09914a" d="M23.998,43.998c-11.045,0-20-8.955-20-20s8.955-20,20-20s20,8.955,20,20S35.043,43.998,23.998,43.998	z"/><linearGradient id="iwDJ3hGscZd82zydmGJRja" x1="-175.749" x2="-170.7" y1="223.237" y2="203.693" gradientTransform="rotate(90 -186 -.002)" gradientUnits="userSpaceOnUse"><stop offset="0" stop-color="#f2f2f2"/><stop offset=".148" stop-color="#eef1ef"/><stop offset=".282" stop-color="#e4ece8"/><stop offset=".409" stop-color="#d1e4da"/><stop offset=".533" stop-color="#b7dac8"/><stop offset=".654" stop-color="#96ccb0"/><stop offset=".773" stop-color="#6dbb92"/><stop offset=".889" stop-color="#3ea770"/><stop offset="1" stop-color="#09914a"/></linearGradient><path fill="url(#iwDJ3hGscZd82zydmGJRja)" d="M23.998,23.998L9.716,9.997c7.732-7.887,20.396-8.013,28.283-0.281L23.998,23.998z"/><circle cx="23.998" cy="23.998" r="17" fill="#f2f2f2"/><path fill="#09914a" d="M35.035,17.285l-1.089-8.419c-0.069-0.534,0.386-0.989,0.92-0.92l8.419,1.089	c0.676,0.087,0.958,0.913,0.475,1.395l-7.33,7.33C35.948,18.243,35.123,17.961,35.035,17.285z"/><path fill="#e52030" d="M26.876,17.2V30.8h-2.922V20.502c-0.161,0.143-0.352,0.277-0.571,0.403 c-0.22,0.127-0.453,0.241-0.7,0.344c-0.247,0.102-0.504,0.188-0.77,0.26c-0.267,0.071-0.529,0.122-0.789,0.152v-2.467 c0.761-0.223,1.479-0.508,2.152-0.854c0.674-0.347,1.283-0.728,1.828-1.142H26.876z"/></svg>