<svg xmlns="http://www.w3.org/2000/svg" viewBox="0 0 48 48"><radialGradient id="cFX8zbpVMG50NSDlJM526a" cx="24" cy="26" r="22.382" gradientUnits="userSpaceOnUse"><stop offset="0" stop-color="#f9f9f9"/><stop offset=".26" stop-color="#f0f1f2"/><stop offset=".678" stop-color="#d9dcdf"/><stop offset="1" stop-color="#c2c8cc"/></radialGradient><polygon fill="url(#cFX8zbpVMG50NSDlJM526a)" points="2,23 17,21 24,23 30,21 46,23 36,31 13,31"/><path fill="#e53935" d="M46,23c0,0-7.33,14-22,14S2,23,2,23s9,7,22,7S46,23,46,23z"/><path fill="#c0392b" d="M18.5,16C13.227,16,2,23,2,23h22C24,23,22.952,16,18.5,16z M24,23h22c0,0-12.379-7-16.5-7	C25.048,16,24,23,24,23z"/><linearGradient id="cFX8zbpVMG50NSDlJM526b" x1="22.253" x2="26.278" y1="28.699" y2="39.758" gradientUnits="userSpaceOnUse"><stop offset="0" stop-color="#ffd869"/><stop offset="1" stop-color="#fec52b"/></linearGradient><path fill="url(#cFX8zbpVMG50NSDlJM526b)" d="M24,29L24,29c-1.105,0-2,0.895-2,2v5	c0,1.105,0.895,2,2,2h0c1.105,0,2-0.895,2-2v-5C26,29.895,25.105,29,24,29z"/><path d="M22,31c0-0.38,0.11-0.74,0.3-1.05c-0.19,0-0.37-0.01-0.56-0.02c-0.17-0.01-0.35-0.02-0.52-0.04 C21.08,30.23,21,30.61,21,31v5c0,0.28,0.04,0.55,0.12,0.81c0.18,0.03,0.36,0.05,0.54,0.07c0.19,0.02,0.38,0.04,0.57,0.05 C22.08,36.65,22,36.34,22,36V31z M26.78,29.89c-0.17,0.02-0.35,0.03-0.52,0.04c-0.19,0.01-0.37,0.02-0.56,0.02 C25.89,30.26,26,30.62,26,31v5c0,0.34-0.08,0.65-0.23,0.93c0.19-0.01,0.38-0.03,0.57-0.05c0.18-0.02,0.36-0.04,0.54-0.07 C26.96,36.55,27,36.28,27,36v-5C27,30.61,26.92,30.23,26.78,29.89z" opacity=".05"/><path d="M26.26,29.93c-0.19,0.01-0.37,0.02-0.56,0.02C25.89,30.26,26,30.62,26,31v5c0,0.34-0.08,0.65-0.23,0.93 c0.19-0.01,0.38-0.03,0.57-0.05c0.1-0.27,0.16-0.57,0.16-0.88v-5C26.5,30.62,26.41,30.25,26.26,29.93z M22.3,29.95 c-0.19,0-0.37-0.01-0.56-0.02c-0.15,0.32-0.24,0.69-0.24,1.07v5c0,0.31,0.06,0.61,0.16,0.88c0.19,0.02,0.38,0.04,0.57,0.05 C22.08,36.65,22,36.34,22,36v-5C22,30.62,22.11,30.26,22.3,29.95z" opacity=".07"/></svg>