<svg xmlns="http://www.w3.org/2000/svg" data-name="Слой 1" viewBox="0 0 48 48"><defs><linearGradient id="NVbiUNIgsloPaYTePJcTpa" x1="17.243" x2="25.059" y1="12.215" y2="33.689" data-name="Безымянный градиент 77" gradientUnits="userSpaceOnUse"><stop offset="0" stop-color="#f44f5a"/><stop offset=".443" stop-color="#ee3d4a"/><stop offset="1" stop-color="#e52030"/></linearGradient><linearGradient id="NVbiUNIgsloPaYTePJcTpb" x1="24" x2="24" y1="27.239" y2="38.098" data-name="Безымянный градиент 89" gradientUnits="userSpaceOnUse"><stop offset="0" stop-color="#fed100"/><stop offset=".156" stop-color="#fdcb00"/><stop offset=".365" stop-color="#f9ba00"/><stop offset=".604" stop-color="#f29e00"/><stop offset=".863" stop-color="#e97701"/><stop offset="1" stop-color="#e36001"/></linearGradient></defs><path fill="#f09ca2" d="M24,3,6,20V41a1.99947,1.99947,0,0,0,2,2H40a1.99947,1.99947,0,0,0,2-2V20Z"/><path style="isolation:isolate" d="M24,4a1.99525,1.99525,0,0,0-1.326.503L17.315,9.314,6,20v5.39L24,9.428,42,25.39V20L30.685,9.314,25.326,4.503A1.99525,1.99525,0,0,0,24,4Z" opacity=".05"/><path style="isolation:isolate" d="M24,3a2.00219,2.00219,0,0,0-1.326.5L17.315,8.284,6,18.909v5.359L24,8.397,42,24.268V18.909L30.685,8.284,25.326,3.5A2.00219,2.00219,0,0,0,24,3Z" opacity=".07"/><path fill="#e52030" d="M44.495,19.507,25.326,2.503a1.99929,1.99929,0,0,0-2.652,0L3.505,19.507a.99869.99869,0,0,0-.064,1.43l1.636,1.745a.9995.9995,0,0,0,1.39.067L24,7.428,41.533,22.75a1.0005,1.0005,0,0,0,1.39-.067l1.636-1.745A.99983.99983,0,0,0,44.495,19.507Z"/><path d="M22.93332,17a.59387.59387,0,0,1,.24734.06067c.652.256,5.13135,2.38133,4.09534,8.52466C28.78,24.67334,28.14066,23,28.744,23c.18469,0,.26.06934.37335.232A14.12171,14.12171,0,0,1,32,30.95134a8.00015,8.00015,0,1,1-16,0c0-6.53934,7.66-7.74667,6.41333-13.29068a.54121.54121,0,0,1,.52-.66066m0-1A1.53674,1.53674,0,0,0,21.4,17.53667a1.56272,1.56272,0,0,0,.04044.35565c.47964,2.1569-.65372,3.459-2.54077,5.40259C17.07178,25.17755,15,27.31139,15,30.95134a9.00013,9.00013,0,1,0,18,0,14.98079,14.98079,0,0,0-3.062-8.29082A1.38493,1.38493,0,0,0,28.744,22a1.28138,1.28138,0,0,0-.46573.08127,8.16739,8.16739,0,0,0-4.73212-5.95142A1.511,1.511,0,0,0,22.93332,16Z" opacity=".05"/><path d="M22.93332,17a.59387.59387,0,0,1,.24734.06067c.652.256,5.13135,2.38133,4.09534,8.52466C28.78,24.67334,28.14066,23,28.744,23c.18469,0,.26.06934.37335.232A14.12171,14.12171,0,0,1,32,30.95134a8.00015,8.00015,0,1,1-16,0c0-6.53934,7.66-7.74667,6.41333-13.29068a.54121.54121,0,0,1,.52-.66066m0-.5a1.03993,1.03993,0,0,0-1.00113,1.29671c.564,2.51167-.93643,4.05707-2.6738,5.84649C17.49673,25.45766,15.5,27.51418,15.5,30.95134a8.50014,8.50014,0,1,0,17,0c0-3.08849-1.61639-6.05791-2.97235-8.00508A.88459.88459,0,0,0,28.744,22.5c-.60852,0-.751.55507-.81958.956a7.6577,7.6577,0,0,0-4.561-6.86075A1.0431,1.0431,0,0,0,22.93332,16.5Z" opacity=".07"/><path fill="url(#NVbiUNIgsloPaYTePJcTpa)" d="M22.41333,17.66067a.54126.54126,0,0,1,.52-.66067.59387.59387,0,0,1,.24734.06067c.652.256,5.13133,2.38133,4.09533,8.52466C28.78,24.67333,28.14067,23,28.744,23c.18467,0,.26.06933.37333.232A14.12148,14.12148,0,0,1,32,30.95133a8.00015,8.00015,0,1,1-16,0C16,24.412,23.66,23.20467,22.41333,17.66067Z"/><path fill="url(#NVbiUNIgsloPaYTePJcTpb)" d="M23.83325,26.82513a.45786.45786,0,0,0-.27045-.0918.43308.43308,0,0,0-.4378.42758c.4378,2.56667-2.625,3.42242-2.625,6.41667a3.50088,3.50088,0,0,0,7,0C27.5,31.13894,25.30371,27.88441,23.83325,26.82513Z"/></svg>