<svg xmlns="http://www.w3.org/2000/svg" viewBox="0 0 48 48"><linearGradient id="YmswSH610gLdZKKYk9984a" x1="24.633" x2="24.769" y1="7.984" y2="13.09" gradientUnits="userSpaceOnUse"><stop offset="0" stop-color="#ffd869"/><stop offset="1" stop-color="#fec52b"/></linearGradient><path fill="url(#YmswSH610gLdZKKYk9984a)" d="M28,4h-7V2c0-0.552,0.448-1,1-1h5c0.552,0,1,0.448,1,1V4z M26,39h-3v7c0,0.552,0.448,1,1,1h1 c0.552,0,1-0.448,1-1V39z"/><linearGradient id="YmswSH610gLdZKKYk9984b" x1="24.456" x2="24.86" y1="5.335" y2="28.939" gradientUnits="userSpaceOnUse"><stop offset="0" stop-color="#dd7d22"/><stop offset="1" stop-color="#ab560c"/></linearGradient><path fill="url(#YmswSH610gLdZKKYk9984b)" d="M36.974,8.005c0.031-0.585-0.305-1.129-0.854-1.334l-7.202-2.455 C28.38,4.089,28,3.609,28,3.057V3h-7v0.057c0,0.553-0.38,1.032-0.918,1.159L12.88,6.67c-0.548,0.206-0.885,0.75-0.854,1.334 C12.453,16.083,18,18.193,18,23c0,2.881-4.611,4.917-4.977,15.622C12.997,39.371,13.594,40,14.343,40L24,40h1l9.657,0 c0.749,0,1.346-0.629,1.32-1.378C35.611,27.917,31,25.881,31,23C31,18.193,36.547,16.083,36.974,8.005z"/><path fill="#ab560c" d="M22.219,15.478c-2.083,2.181-5.807,2.535-8.008-0.266c1.166,1.988,2.497,3.525,3.228,5.234 c3.392,0.09,4.986-2.233,5.544-4.479C23.103,15.487,22.549,15.132,22.219,15.478z"/><path fill="#ab560c" d="M31.561,20.446c0.731-1.709,2.062-3.247,3.228-5.234c-2.2,2.801-5.925,2.447-8.008,0.266 c-0.33-0.346-0.884,0.009-0.765,0.489C26.575,18.213,28.168,20.536,31.561,20.446z"/></svg>