<svg xmlns="http://www.w3.org/2000/svg" viewBox="0 0 48 48"><path fill="#199be2" d="M38.032,14h-6.546c-0.431,0-0.647-0.522-0.342-0.827l7.031-7.031C38.479,5.838,39,6.054,39,6.485	v6.546C39,13.566,38.567,14,38.032,14z"/><path fill="#199be2" d="M9.969,34h6.546c0.431,0,0.647,0.522,0.342,0.827l-7.031,7.031C9.522,42.162,9,41.946,9,41.515	v-6.546C9,34.434,9.434,34,9.969,34z"/><path fill="#199be2" d="M38.627,37.64c-7.241,7.765-19.292,8.522-27.435,1.722l2.564-3.07	c6.513,5.439,16.153,4.833,21.946-1.379c3.806-4.082,5.195-9.808,3.73-15.149c-0.143-0.521,0.122-1.066,0.634-1.24l1.896-0.644	c0.533-0.181,1.125,0.109,1.279,0.651C45.151,25.254,43.427,32.493,38.627,37.64z"/><path fill="#0077d2" d="M41.393,33.88C37.763,37.66,32.66,40,27,40c-0.53,0-1.05-0.011-1.57-0.061	c3.8-0.34,7.48-2.039,10.27-5.029c3.81-4.08,5.2-9.81,3.73-15.15c-0.14-0.52,0.12-1.06,0.64-1.24l1.89-0.64	c0.53-0.18,1.13,0.11,1.28,0.65C44.72,23.74,44.023,29.26,41.393,33.88z"/><path fill="#199be2" d="M9.373,10.36c7.241-7.765,19.292-8.522,27.435-1.722l-2.564,3.07	c-6.513-5.439-16.153-4.833-21.946,1.379c-3.806,4.082-5.195,9.808-3.73,15.149c0.143,0.521-0.122,1.066-0.634,1.24L6.038,30.12	c-0.533,0.181-1.125-0.109-1.279-0.651C2.849,22.746,4.573,15.507,9.373,10.36z"/><path fill="#0077d2" d="M6.606,14.12C10.236,10.34,15.34,8,21,8c0.53,0,1.05,0.012,1.57,0.062	c-3.8,0.34-7.48,2.038-10.27,5.028c-3.81,4.08-5.2,9.81-3.73,15.15c0.14,0.52-0.12,1.06-0.64,1.24l-1.89,0.64	c-0.53,0.18-1.13-0.11-1.28-0.65C3.28,24.26,3.976,18.74,6.606,14.12z"/><linearGradient id="1R4gfkGGfhIi7lq14~yuza" x1="18.752" x2="29.248" y1="24" y2="24" gradientUnits="userSpaceOnUse"><stop offset="0" stop-color="#21ad64"/><stop offset="1" stop-color="#088242"/></linearGradient><path fill="url(#1R4gfkGGfhIi7lq14~yuza)" d="M29.248,27.352c0-5.141-7.589-4.137-7.589-7.174c0-1.586,1.783-1.67,2.34-1.67	c1.34,0,2.633,0.36,3.618,0.821c0.311,0.147,0.669-0.069,0.669-0.411v-1.496c0-0.501-0.189-0.799-0.49-0.917	c-0.676-0.263-1.646-0.456-3.081-0.503v-1.646c0-0.197-0.16-0.357-0.357-0.357h-0.714c-0.197,0-0.357,0.16-0.357,0.357v1.673	c-2.227,0.217-4.534,1.474-4.534,4.397c0,5.33,7.589,4.271,7.589,7.078c0,0.883-0.564,1.643-2.34,1.643	c-1.786,0-3.427-0.623-4.334-1.088c-0.306-0.156-0.666,0.07-0.666,0.413v1.703c0,0.326,0.197,0.617,0.499,0.746	c1.076,0.457,2.518,0.803,3.788,0.904v1.818c0,0.197,0.16,0.357,0.357,0.357h0.714c0.197,0,0.357-0.16,0.357-0.357v-1.816	C28.045,31.55,29.248,29.32,29.248,27.352z"/></svg>