<svg xmlns="http://www.w3.org/2000/svg" viewBox="0 0 48 48"><linearGradient id="p6A6QG_FCRffNrF0wN8G1a" x1="20.375" x2="28.748" y1="378.939" y2="349.054" gradientTransform="matrix(1 0 0 -1 0 390)" gradientUnits="userSpaceOnUse"><stop offset="0" stop-color="#32bdef"/><stop offset="1" stop-color="#1ea2e4"/></linearGradient><path fill="url(#p6A6QG_FCRffNrF0wN8G1a)" d="M43.125,9H4.875C3.287,9,2,10.287,2,11.875v24.25C2,37.713,3.287,39,4.875,39h38.25	C44.713,39,46,37.713,46,36.125v-24.25C46,10.287,44.713,9,43.125,9z"/><linearGradient id="p6A6QG_FCRffNrF0wN8G1b" x1="215.391" x2="217.301" y1="100.186" y2="95.559" gradientTransform="matrix(0 -1 -1 0 105.5 240.5)" gradientUnits="userSpaceOnUse"><stop offset="0" stop-color="#5bc8ef"/><stop offset="1" stop-color="#42befc"/></linearGradient><path fill="url(#p6A6QG_FCRffNrF0wN8G1b)" d="M11,24L11,24c0,0.552-0.448,1-1,1H6c-0.552,0-1-0.448-1-1l0,0c0-0.552,0.448-1,1-1h4 C10.552,23,11,23.448,11,24z"/><linearGradient id="p6A6QG_FCRffNrF0wN8G1c" x1="215.391" x2="217.301" y1="92.186" y2="87.559" gradientTransform="matrix(0 -1 -1 0 105.5 240.5)" gradientUnits="userSpaceOnUse"><stop offset="0" stop-color="#5bc8ef"/><stop offset="1" stop-color="#42befc"/></linearGradient><path fill="url(#p6A6QG_FCRffNrF0wN8G1c)" d="M19,24L19,24c0,0.552-0.448,1-1,1h-4c-0.552,0-1-0.448-1-1l0,0c0-0.552,0.448-1,1-1h4 C18.552,23,19,23.448,19,24z"/><linearGradient id="p6A6QG_FCRffNrF0wN8G1d" x1="215.391" x2="217.301" y1="84.186" y2="79.559" gradientTransform="matrix(0 -1 -1 0 105.5 240.5)" gradientUnits="userSpaceOnUse"><stop offset="0" stop-color="#5bc8ef"/><stop offset="1" stop-color="#42befc"/></linearGradient><path fill="url(#p6A6QG_FCRffNrF0wN8G1d)" d="M27,24L27,24c0,0.552-0.448,1-1,1h-4c-0.552,0-1-0.448-1-1l0,0c0-0.552,0.448-1,1-1h4 C26.552,23,27,23.448,27,24z"/><linearGradient id="p6A6QG_FCRffNrF0wN8G1e" x1="215.391" x2="217.301" y1="76.186" y2="71.559" gradientTransform="matrix(0 -1 -1 0 105.5 240.5)" gradientUnits="userSpaceOnUse"><stop offset="0" stop-color="#5bc8ef"/><stop offset="1" stop-color="#42befc"/></linearGradient><path fill="url(#p6A6QG_FCRffNrF0wN8G1e)" d="M35,24L35,24c0,0.552-0.448,1-1,1h-4c-0.552,0-1-0.448-1-1l0,0c0-0.552,0.448-1,1-1h4 C34.552,23,35,23.448,35,24z"/><linearGradient id="p6A6QG_FCRffNrF0wN8G1f" x1="215.391" x2="217.301" y1="68.186" y2="63.559" gradientTransform="matrix(0 -1 -1 0 105.5 240.5)" gradientUnits="userSpaceOnUse"><stop offset="0" stop-color="#5bc8ef"/><stop offset="1" stop-color="#42befc"/></linearGradient><path fill="url(#p6A6QG_FCRffNrF0wN8G1f)" d="M43,24L43,24c0,0.552-0.448,1-1,1h-4c-0.552,0-1-0.448-1-1l0,0c0-0.552,0.448-1,1-1h4 C42.552,23,43,23.448,43,24z"/><path d="M46,36.125v-6.224c-1.785-0.235-2.751-0.876-3.677-1.508C41.317,27.708,40.278,27,38.5,27	s-2.817,0.708-3.823,1.394C33.519,29.183,32.321,30,29.5,30c-0.827,0-1.5,0.673-1.5,1.5V36c0,0.738,0.093,1.49,0.275,2.237	c0.064,0.26,0.152,0.51,0.236,0.763h14.614C44.713,39,46,37.713,46,36.125z" opacity=".05"/><path d="M46,36.125v-5.723c-1.95-0.246-3.013-0.952-3.958-1.596C41.056,28.135,40.124,27.5,38.5,27.5	s-2.556,0.635-3.542,1.307C33.794,29.601,32.474,30.5,29.5,30.5c-0.552,0-1,0.449-1,1V36c0,0.698,0.088,1.411,0.261,2.119	c0.074,0.301,0.172,0.591,0.273,0.881h14.092C44.713,39,46,37.713,46,36.125z" opacity=".07"/><path fill="#bbd2de" d="M36.013,20h5.974C42.546,20,43,19.546,43,18.987v-4.974C43,13.454,42.546,13,41.987,13h-5.974	C35.454,13,35,13.454,35,14.013v4.974C35,19.546,35.454,20,36.013,20z"/><path fill="#0078d4" d="M13.5,31h-8C5.224,31,5,30.776,5,30.5v-1C5,29.224,5.224,29,5.5,29h8c0.276,0,0.5,0.224,0.5,0.5v1	C14,30.776,13.776,31,13.5,31z"/><path fill="#0078d4" d="M24.5,31h-8c-0.276,0-0.5-0.224-0.5-0.5v-1c0-0.276,0.224-0.5,0.5-0.5h8c0.276,0,0.5,0.224,0.5,0.5v1	C25,30.776,24.776,31,24.5,31z"/><path fill="#0078d4" d="M19.5,35h-14C5.224,35,5,34.776,5,34.5v-1C5,33.224,5.224,33,5.5,33h14c0.276,0,0.5,0.224,0.5,0.5v1	C20,34.776,19.776,35,19.5,35z"/><path fill="#107c42" d="M38.5,48c-0.276,0-0.5-0.224-0.5-0.5s0.224-0.5,0.5-0.5V48z"/><path fill="#185c37" d="M39,47.5c0,0.276-0.224,0.5-0.5,0.5v-1C38.776,47,39,47.224,39,47.5z"/><circle cx="47.5" cy="31.5" r=".5" fill="#21a366"/><circle cx="29.5" cy="31.5" r=".5" fill="#33c481"/><path fill="#185c37" d="M38.5,47.5l0.214,0.453c0,0,7.572-3.95,9.04-9.953H38.5V47.5z"/><path fill="#21a366" d="M48,31.5L47.5,31c-5.561,0-5.639-3-9-3v10h9.254C47.911,37.356,48,36.689,48,36	C48,34.428,48,31.5,48,31.5z"/><path fill="#107c42" d="M38.5,47.5l-0.214,0.453c0,0-7.572-3.95-9.04-9.953H38.5V47.5z"/><path fill="#33c481" d="M29,31.5l0.5-0.5c5.561,0,5.639-3,9-3v10h-9.253C29.089,37.356,29,36.689,29,36	C29,34.428,29,31.5,29,31.5z"/></svg>