<svg xmlns="http://www.w3.org/2000/svg" xmlns:xlink="http://www.w3.org/1999/xlink" data-name="Слой 1" viewBox="0 0 48 48"><defs><linearGradient id="l~oHHJo1BSTkXzj2OBvsub" x1="24" x2="24" y1="3.457" y2="47.302" gradientUnits="userSpaceOnUse"><stop offset="0" stop-color="#a8e2f7"/><stop offset="1" stop-color="#47c1ff"/></linearGradient><linearGradient id="l~oHHJo1BSTkXzj2OBvsuc" x1="24" x2="24" y1="-6.228" y2="32.151" data-name="Новый образец градиентной зал 2" gradientUnits="userSpaceOnUse"><stop offset="0" stop-color="#2aa4f4"/><stop offset="1" stop-color="#007ad9"/></linearGradient><linearGradient id="l~oHHJo1BSTkXzj2OBvsud" x1="24" x2="24" y1="16.839" y2="42.701" data-name="Безымянный градиент 101" gradientUnits="userSpaceOnUse"><stop offset="0" stop-color="#21ad64"/><stop offset="1" stop-color="#088242"/></linearGradient><linearGradient id="l~oHHJo1BSTkXzj2OBvsua" x1="19" x2="19" y1="20.478" y2="27.287" data-name="Безымянный градиент 5" gradientUnits="userSpaceOnUse"><stop offset="0" stop-color="#4c4c4c"/><stop offset="1" stop-color="#343434"/></linearGradient><linearGradient id="l~oHHJo1BSTkXzj2OBvsue" x1="29" x2="29" y1="20.478" y2="27.287" xlink:href="#l~oHHJo1BSTkXzj2OBvsua"/></defs><path fill="url(#l~oHHJo1BSTkXzj2OBvsub)" d="M40,43H8a1.99945,1.99945,0,0,1-2-2V20L24,3,42,20V41A1.99945,1.99945,0,0,1,40,43Z"/><path fill="url(#l~oHHJo1BSTkXzj2OBvsuc)" d="M44.495,19.507,25.326,2.503a1.99929,1.99929,0,0,0-2.652,0L3.505,19.507a.99869.99869,0,0,0-.064,1.43l1.636,1.745a.9995.9995,0,0,0,1.39.067L24,7.428,41.533,22.75a1.0005,1.0005,0,0,0,1.39-.067l1.636-1.745A.99983.99983,0,0,0,44.495,19.507Z"/><path d="M41.53,22.75,24,7.43,6.47,22.75a.98744.98744,0,0,1-.47.23v1a1.94356,1.94356,0,0,0,1.13-.48L24,8.76,40.87,23.5a1.94356,1.94356,0,0,0,1.13.48v-1A.98744.98744,0,0,1,41.53,22.75Z" opacity=".05"/><path d="M41.53,22.75,24,7.43,6.47,22.75a.98744.98744,0,0,1-.47.23v.51a1.47631,1.47631,0,0,0,.8-.37L24,8.09,41.2,23.13a1.5363,1.5363,0,0,0,.8.36v-.51A.98744.98744,0,0,1,41.53,22.75Z" opacity=".07"/><path fill="url(#l~oHHJo1BSTkXzj2OBvsud)" d="M33.94286,31.151A16.07443,16.07443,0,0,1,24,34.3871,16.07443,16.07443,0,0,1,14.05714,31.151a5.20435,5.20435,0,0,1,1.95714-3.06064,6.90357,6.90357,0,0,1-.10952-1.18709c0-2.70968,1.6-4.90323,3.57143-4.90323a2.63535,2.63535,0,0,1,.35238.0258.06555.06555,0,0,1,.03333.00517c1.50475.20643,2.819,1.51742,4.1381,1.51742s2.63335-1.311,4.1381-1.51742a.06555.06555,0,0,1,.03333-.00517A2.63535,2.63535,0,0,1,28.52381,22c1.97144,0,3.57143,2.19355,3.57143,4.90323a6.90357,6.90357,0,0,1-.10952,1.18709A5.20435,5.20435,0,0,1,33.94286,31.151Z"/><path fill="#21ad64" d="M33.94286,31.151A16.07443,16.07443,0,0,1,24,34.3871,16.07443,16.07443,0,0,1,14.05714,31.151,3.76478,3.76478,0,0,0,14,31.80645C14,35.22839,18.4762,38,24,38s10-2.77161,10-6.19355A3.76478,3.76478,0,0,0,33.94286,31.151Z"/><path d="M28.5238,22c1.97144,0,3.57141,2.19354,3.57141,4.9032a6.90326,6.90326,0,0,1-.10949,1.18707,5.2047,5.2047,0,0,1,1.95715,3.06067A3.76643,3.76643,0,0,1,34,31.80646C34,35.22839,29.5238,38,24,38s-10-2.77161-10-6.19354a3.76643,3.76643,0,0,1,.05713-.65552,5.2047,5.2047,0,0,1,1.95715-3.06067,6.90326,6.90326,0,0,1-.10949-1.18707c0-2.70966,1.6-4.9032,3.57141-4.9032a2.64349,2.64349,0,0,1,.35235.02576.06532.06532,0,0,1,.03333.00518C21.36664,22.23737,22.681,23.5484,24,23.5484s2.63336-1.311,4.13812-1.51746a.06532.06532,0,0,1,.03333-.00518A2.64349,2.64349,0,0,1,28.5238,22m0-1a3.5615,3.5615,0,0,0-.41516.02576H27.917l-.08334.04113a7.82945,7.82945,0,0,0-2.2059.8664A4.2366,4.2366,0,0,1,24,22.5484a4.2366,4.2366,0,0,1-1.62775-.61511,7.90039,7.90039,0,0,0-2.18173-.862l-.07419-.04035-.21383-.00384A3.56146,3.56146,0,0,0,19.4762,21c-2.52069,0-4.57141,2.64813-4.57141,5.9032a7.33933,7.33933,0,0,0,.044.79468,5.949,5.949,0,0,0-1.87732,3.28436A4.72036,4.72036,0,0,0,13,31.80646C13,35.84021,17.83179,39,24,39s11-3.15979,11-7.19354a4.73219,4.73219,0,0,0-.07224-.82855,5.94537,5.94537,0,0,0-1.87655-3.28,7.34017,7.34017,0,0,0,.044-.79468c0-3.25507-2.05072-5.9032-4.57141-5.9032Z" opacity=".05"/><path d="M28.5238,22c1.97144,0,3.57141,2.19354,3.57141,4.9032a6.90326,6.90326,0,0,1-.10949,1.18707,5.2047,5.2047,0,0,1,1.95715,3.06067A3.76643,3.76643,0,0,1,34,31.80646C34,35.22839,29.5238,38,24,38s-10-2.77161-10-6.19354a3.76643,3.76643,0,0,1,.05713-.65552,5.2047,5.2047,0,0,1,1.95715-3.06067,6.90326,6.90326,0,0,1-.10949-1.18707c0-2.70966,1.6-4.9032,3.57141-4.9032a2.64349,2.64349,0,0,1,.35235.02576.06532.06532,0,0,1,.03333.00518C21.36664,22.23737,22.681,23.5484,24,23.5484s2.63336-1.311,4.13812-1.51746a.06532.06532,0,0,1,.03333-.00518A2.64349,2.64349,0,0,1,28.5238,22m0-.5a3.08939,3.08939,0,0,0-.38482.02576h-.09476l-.04428.02014a7.09047,7.09047,0,0,0-2.14166.83105A4.49325,4.49325,0,0,1,24,23.0484a4.49325,4.49325,0,0,1-1.85828-.67145,7.15959,7.15959,0,0,0-2.11822-.82727l-.03439-.01874-.11707-.00378A3.11126,3.11126,0,0,0,19.4762,21.5c-2.245,0-4.07141,2.42389-4.07141,5.4032a7.05728,7.05728,0,0,0,.07208.98889,5.56608,5.56608,0,0,0-1.91257,3.1745,4.23286,4.23286,0,0,0-.0643.73987C13.5,35.49731,18.21027,38.5,24,38.5s10.5-3.00269,10.5-6.69354a4.24093,4.24093,0,0,0-.06467-.74207,5.565,5.565,0,0,0-1.9122-3.1723,7.05728,7.05728,0,0,0,.07208-.98889c0-2.97931-1.82644-5.4032-4.07141-5.4032Z" opacity=".07"/><ellipse cx="19.5" cy="26.5" fill="#107c42" rx="2.5" ry="3.5"/><ellipse cx="28.5" cy="26.5" fill="#107c42" rx="2.5" ry="3.5"/><circle cx="19" cy="26" r="1" fill="url(#l~oHHJo1BSTkXzj2OBvsua)"/><circle cx="29" cy="26" r="1" fill="url(#l~oHHJo1BSTkXzj2OBvsue)"/><ellipse cx="22.5" cy="31" fill="#107c42" rx=".5" ry="1"/><ellipse cx="25.5" cy="31" fill="#107c42" rx=".5" ry="1"/></svg>