<svg xmlns="http://www.w3.org/2000/svg" viewBox="0 0 48 48"><radialGradient id="Q9q4nuAOzs1DK_lt5Ttsxa" cx="45.696" cy="34.956" r="41.195" gradientUnits="userSpaceOnUse"><stop offset="0" stop-color="#6d75d6"/><stop offset=".123" stop-color="#8189de"/><stop offset=".384" stop-color="#a7adec"/><stop offset=".625" stop-color="#c3c7f6"/><stop offset=".838" stop-color="#d3d6fd"/><stop offset="1" stop-color="#d9dcff"/></radialGradient><path fill="url(#Q9q4nuAOzs1DK_lt5Ttsxa)" d="M9,24.898C9,34.894,17.106,43,27.102,43c6.182,0,11.631-3.104,14.898-7.83	c-1.851,0.559-3.812,0.867-5.846,0.867c-11.151,0-20.192-9.041-20.192-20.192c0-2.034,0.308-3.995,0.867-5.845	C12.102,13.267,9,18.717,9,24.898z"/><circle cx="6.5" cy="13.5" r="1.5" fill="#989ef5"/><circle cx="13" cy="6" r="1" fill="#646dd1"/><linearGradient id="Q9q4nuAOzs1DK_lt5Ttsxb" x1="22.533" x2="45.255" y1="12.533" y2="35.255" gradientUnits="userSpaceOnUse"><stop offset="0" stop-color="#ed3675"/><stop offset="1" stop-color="#ca1b4d"/></linearGradient><path fill="url(#Q9q4nuAOzs1DK_lt5Ttsxb)" d="M31.5,17c-2.485,0-4.5,2.015-4.5,4.5s2.015,4.5,4.5,4.5s4.5-2.015,4.5-4.5S33.985,17,31.5,17 z"/><linearGradient id="Q9q4nuAOzs1DK_lt5Ttsxc" x1="43.609" x2="35.276" y1="8.5" y2="8.5" gradientUnits="userSpaceOnUse"><stop offset="0" stop-color="#bd1949"/><stop offset=".108" stop-color="#c31a4b"/><stop offset=".38" stop-color="#ca1b4d"/><stop offset="1" stop-color="#cc1b4e"/></linearGradient><path fill="url(#Q9q4nuAOzs1DK_lt5Ttsxc)" d="M35,10h4c0.552,0,1-0.448,1-1V8c0-0.552-0.448-1-1-1h-4V10z"/><linearGradient id="Q9q4nuAOzs1DK_lt5Ttsxd" x1="27.658" x2="50.38" y1="7.408" y2="30.131" gradientUnits="userSpaceOnUse"><stop offset="0" stop-color="#ed3675"/><stop offset="1" stop-color="#ca1b4d"/></linearGradient><path fill="url(#Q9q4nuAOzs1DK_lt5Ttsxd)" d="M33,8v13.5h3V7h-2C33.448,7,33,7.448,33,8z"/></svg>