<svg xmlns="http://www.w3.org/2000/svg" viewBox="0 0 48 48"><rect width="2" height="22" x="15.001" y="12" fill="#0370c8"/><rect width="2" height="25" x="27.501" y="-3.5" fill="#0370c8" transform="rotate(90 28.5 9)"/><linearGradient id="J4OT~d8tek2VA14~vd3uSa" x1="23.041" x2="46.744" y1="16.046" y2="39.749" gradientUnits="userSpaceOnUse"><stop offset="0" stop-color="#f44f5a"/><stop offset=".443" stop-color="#ee3d4a"/><stop offset="1" stop-color="#e52030"/></linearGradient><path fill="url(#J4OT~d8tek2VA14~vd3uSa)" d="M41.749,7.809c-0.385-0.45-1.067-0.491-1.485-0.072l-3.581,3.581	c-0.397,0.397-0.339,1.01,0.05,1.415c0.689,0.716,0.681,1.855-0.025,2.56L22.293,29.707c-0.728,0.728-1.859,0.659-2.621-0.033	c-0.392-0.357-1-0.346-1.379,0.033l-3.561,3.561c-0.428,0.428-0.388,1.085,0.069,1.482c5.504,4.774,13.856,4.507,19.039-0.774	l7.251-7.386C46.181,21.405,46.391,13.24,41.749,7.809z"/><linearGradient id="J4OT~d8tek2VA14~vd3uSb" x1="16" x2="16" y1="2.076" y2="48.819" gradientUnits="userSpaceOnUse"><stop offset="0" stop-color="#2aa4f4"/><stop offset="1" stop-color="#007ad9"/></linearGradient><path fill="url(#J4OT~d8tek2VA14~vd3uSb)" d="M26,42.001c-0.858,0-1.652-0.558-1.914-1.421l-8.086-26.684L7.915,40.58	c-0.32,1.056-1.438,1.654-2.494,1.334c-1.057-0.32-1.654-1.437-1.334-2.494l10-33C14.342,5.577,15.119,5,16.001,5	s1.659,0.577,1.914,1.42l10,33c0.32,1.058-0.277,2.174-1.334,2.494C26.387,41.973,26.192,42.001,26,42.001z"/><linearGradient id="J4OT~d8tek2VA14~vd3uSc" x1="11.256" x2="20.429" y1="4.255" y2="13.428" gradientUnits="userSpaceOnUse"><stop offset="0" stop-color="#ffd869"/><stop offset="1" stop-color="#fec52b"/></linearGradient><circle cx="16.001" cy="9" r="5" fill="url(#J4OT~d8tek2VA14~vd3uSc)"/><linearGradient id="J4OT~d8tek2VA14~vd3uSd" x1="14.68" x2="23.313" y1="7.679" y2="16.313" gradientUnits="userSpaceOnUse"><stop offset="0" stop-color="#eba600"/><stop offset="1" stop-color="#c28200"/></linearGradient><circle cx="16.001" cy="9" r="2" fill="url(#J4OT~d8tek2VA14~vd3uSd)"/><circle cx="33.001" cy="25" r="2" fill="#b31523"/><circle cx="28.001" cy="30" r="2" fill="#b31523"/><circle cx="38.001" cy="20" r="2" fill="#b31523"/><path d="M25.15,26.85l-0.81,0.81l3.05,10.04c0.17-0.04,0.33-0.08,0.49-0.13c0.16-0.05,0.32-0.1,0.47-0.15L25.15,26.85z M20.39,30.1c-0.22-0.07-0.44-0.19-0.63-0.36l2.51,8.3c0.18,0.02,0.36,0.04,0.54,0.06l0.54,0.03l-2.4-7.92 C20.76,30.21,20.57,30.17,20.39,30.1z" opacity=".05"/><path d="M24.75,27.25l-0.41,0.41l3.05,10.04c0.17-0.04,0.33-0.08,0.49-0.13L24.75,27.25z M20.39,30.1l2.42,8l0.54,0.03l-2.4-7.92 C20.76,30.21,20.57,30.17,20.39,30.1z" opacity=".07"/><g><path d="M19.87,12.9l-0.16-0.55c-0.9,1-2.22,1.64-3.68,1.65h-0.06c-1.46-0.01-2.78-0.65-3.68-1.65l-0.16,0.55l-0.16,0.53 c0.98,0.91,2.27,1.48,3.7,1.55C15.78,15,15.89,15,16,15s0.22,0,0.33-0.02c1.43-0.07,2.72-0.64,3.7-1.55L19.87,12.9z" opacity=".05"/><path d="M19.71,12.35c-0.9,1-2.22,1.64-3.68,1.65h-0.06c-1.46-0.01-2.78-0.65-3.68-1.65l-0.16,0.55c0.96,0.95,2.25,1.55,3.69,1.59 c0.06,0.01,0.12,0.01,0.18,0.01s0.12,0,0.18-0.01c1.44-0.04,2.73-0.64,3.69-1.59L19.71,12.35z" opacity=".07"/></g></svg>