<svg xmlns="http://www.w3.org/2000/svg" xmlns:xlink="http://www.w3.org/1999/xlink" data-name="Layer 1" viewBox="0 0 48 48"><defs><linearGradient id="fxpA1KSgItwAsCDlMT5NFa" x1="46.046" x2="39.779" y1="-734.983" y2="-734.983" data-name="Безымянный градиент 96" gradientTransform="matrix(1 0 0 -1 0 -707.967)" gradientUnits="userSpaceOnUse"><stop offset="0" stop-color="#21ad64"/><stop offset="1" stop-color="#088242"/></linearGradient><linearGradient id="fxpA1KSgItwAsCDlMT5NFb" x1="19.701" x2="29.201" y1="-719.18" y2="-750.348" xlink:href="#fxpA1KSgItwAsCDlMT5NFa"/><linearGradient id="fxpA1KSgItwAsCDlMT5NFc" x1="23" x2="23" y1="-749.247" y2="-752.947" data-name="Безымянный градиент 147" gradientTransform="matrix(1 0 0 -1 0 -707.967)" gradientUnits="userSpaceOnUse"><stop offset="0" stop-color="#dfe9f2"/><stop offset=".391" stop-color="#d6e0e9"/><stop offset="1" stop-color="#bfc8d1"/></linearGradient></defs><path fill="url(#fxpA1KSgItwAsCDlMT5NFa)" d="M43,19.01654a1.00165,1.00165,0,0,1,1,1v8.667a2.99205,2.99205,0,0,1-1.846,2.769L36,34.01654v-15h7m0-2H34v20l8.923-3.718A5.00007,5.00007,0,0,0,46,28.68354v-8.667a2.99981,2.99981,0,0,0-3-3Z"/><path fill="url(#fxpA1KSgItwAsCDlMT5NFb)" d="M38,11.01654H8a1.00036,1.00036,0,0,0-1,1v18c0,5,4,13,4,13H35s4-8,4-13v-18A1.00036,1.00036,0,0,0,38,11.01654Z"/><path fill="url(#fxpA1KSgItwAsCDlMT5NFc)" d="M7.904,45.01654H38.096a5.00062,5.00062,0,0,0,4.851-3.787l.053-.213H3l.053.213A5.00062,5.00062,0,0,0,7.904,45.01654Z"/><path fill="#cf1928" d="M23,9.01654a.99909.99909,0,0,1-1-1v-5a1,1,0,1,1,2,0v5A.99909.99909,0,0,1,23,9.01654Z"/><path fill="#cf1928" d="M17,9.01654a.99909.99909,0,0,1-1-1v-3a1,1,0,1,1,2,0v3A.99909.99909,0,0,1,17,9.01654Z"/><path fill="#cf1928" d="M29,9.01654a.99909.99909,0,0,1-1-1v-3a1,1,0,1,1,2,0v3A.99909.99909,0,0,1,29,9.01654Z"/><path fill="#33c481" d="M38,11.01654H8a1.00036,1.00036,0,0,0-1,1v5H39v-5A1.00036,1.00036,0,0,0,38,11.01654Z"/></svg>