<svg xmlns="http://www.w3.org/2000/svg" viewBox="0 0 48 48"><linearGradient id="4vuvmwa4Q3bmWC~MM9lMQa" x1="6.586" x2="48.935" y1="6.586" y2="48.935" gradientUnits="userSpaceOnUse"><stop offset="0" stop-color="#6d6d6d"/><stop offset=".126" stop-color="#626262"/><stop offset=".886" stop-color="#464646"/><stop offset="1" stop-color="#454545"/></linearGradient><path fill="url(#4vuvmwa4Q3bmWC~MM9lMQa)" d="M40,42H8c-1.105,0-2-0.895-2-2V8c0-1.105,0.895-2,2-2h32c1.105,0,2,0.895,2,2v32	C42,41.105,41.105,42,40,42z"/><path d="M29.995,11.02c0.552,0,0.999,0.447,1,0.998l0.003,1.479c0.001,0.553-0.447,1.002-1,1.002H21V22h8c0.552,0,1,0.448,1,1v1.5 c0,0.552-0.448,1-1,1h-8v7.75h9c0.552,0,1,0.448,1,1v1.749c0,0.552-0.448,1-1,1c-0.001,0-0.001,0-0.001,0l-12-0.018 c-0.552-0.001-0.999-0.448-0.999-1V12.02c0-0.552,0.448-1,1-1H29.995 M29.995,10.02H18c-1.103,0-2,0.897-2,2v23.961 c0,1.101,0.896,1.998,1.997,2l12,0.018c1.106,0,2.003-0.897,2.003-2V34.25c0-1.103-0.897-2-2-2h-8V26.5h7c1.103,0,2-0.897,2-2V23 c0-1.103-0.897-2-2-2h-7v-5.5h7.998c0.535,0,1.038-0.209,1.416-0.587c0.378-0.379,0.585-0.882,0.584-1.417l-0.003-1.479 C31.993,10.916,31.096,10.02,29.995,10.02L29.995,10.02z" opacity=".05"/><path d="M29.995,11.02c0.552,0,0.999,0.447,1,0.998l0.003,1.479c0.001,0.553-0.447,1.002-1,1.002H21V22h8c0.552,0,1,0.448,1,1v1.5 c0,0.552-0.448,1-1,1h-8v7.75h9c0.552,0,1,0.448,1,1v1.749c0,0.552-0.448,1-1,1c-0.001,0-0.001,0-0.001,0l-12-0.018 c-0.552-0.001-0.999-0.448-0.999-1V12.02c0-0.552,0.448-1,1-1H29.995 M29.995,10.52H18c-0.827,0-1.5,0.673-1.5,1.5v23.961 c0,0.826,0.672,1.499,1.498,1.5l12,0.018c0.829,0,1.502-0.673,1.502-1.5V34.25c0-0.827-0.673-1.5-1.5-1.5h-8.5V26H29 c0.827,0,1.5-0.673,1.5-1.5V23c0-0.827-0.673-1.5-1.5-1.5h-7.5V15h8.498c0.401,0,0.778-0.156,1.062-0.44 c0.283-0.284,0.439-0.661,0.438-1.063l-0.003-1.479C31.493,11.192,30.82,10.52,29.995,10.52L29.995,10.52z" opacity=".07"/><path fill="#fff" d="M29.999,36.999l-12-0.018c-0.552-0.001-0.999-0.448-0.999-1V12.02c0-0.552,0.448-1,1-1h11.995 c0.552,0,0.999,0.446,1,0.998l0.003,1.48c0.001,0.553-0.447,1.002-1,1.002H21V22h8c0.552,0,1,0.448,1,1v1.5c0,0.552-0.448,1-1,1 h-8v7.75h9c0.552,0,1,0.448,1,1v1.749C31,36.551,30.551,36.999,29.999,36.999z"/></svg>