<svg xmlns="http://www.w3.org/2000/svg" viewBox="0 0 48 48"><linearGradient id="PNjJ7KBeHG2IrssXZVa2Da" x1="5.452" x2="41.858" y1="17.758" y2="38.777" gradientUnits="userSpaceOnUse"><stop offset="0" stop-color="#a34f27"/><stop offset=".587" stop-color="#8b3817"/><stop offset="1" stop-color="#802d10"/></linearGradient><path fill="url(#PNjJ7KBeHG2IrssXZVa2Da)" d="M45,28.5c-0.72-0.35-1.42-0.92-2-1.5c-3-3-4-9-19-9S8,24,5,27c-0.58,0.58-1.28,1.15-2,1.5	C2.03,28.97,1,29,1,29c2,3.75,5.75,5.25,10.98,2.83C15,30.25,16,29,24,29s9,1.25,12.02,2.83C41.25,34.25,45,32.75,47,29	C47,29,45.97,28.97,45,28.5z"/></svg>