<svg xmlns="http://www.w3.org/2000/svg" viewBox="0 0 48 48"><path fill="#184f85" d="M44,38H29v4c0,1.105,0.895,2,2,2h11c1.105,0,2-0.895,2-2V38z"/><rect width="15" height="7" x="29" y="32" fill="#0078d4"/><rect width="15" height="8" x="29" y="25" fill="#1b9de2"/><rect width="15" height="6" x="29" y="21" fill="#35c1f1"/><path fill="#50e6ff" d="M44,21H29v-1c0-1.105,0.895-2,2-2h11c1.105,0,2,0.895,2,2V21z"/><circle cx="33.5" cy="19.5" r=".5" fill="#0c63ad"/><path fill="#0c63ad" d="M38.5,19c-0.129,0-2.871,0-3,0c-0.276,0-0.5,0.224-0.5,0.5s0.224,0.5,0.5,0.5c0.129,0,2.871,0,3,0	c0.276,0,0.5-0.224,0.5-0.5S38.776,19,38.5,19z"/><circle cx="22" cy="34" r="1" fill="#abb4be"/><circle cx="26" cy="34" r="1" fill="#abb4be"/><circle cx="14" cy="30" r="1" fill="#abb4be"/><circle cx="14" cy="26" r="1" fill="#abb4be"/><circle cx="18" cy="34" r="1" fill="#abb4be"/><circle cx="14" cy="34" r="1" fill="#abb4be"/><linearGradient id="68vykl97jyaRbejgVAWxKa" x1="14" x2="14" y1="919.769" y2="924.79" gradientTransform="translate(0 -901.78)" gradientUnits="userSpaceOnUse"><stop offset="0" stop-color="#484b4f"/><stop offset=".374" stop-color="#656d75"/><stop offset=".597" stop-color="#727d86"/><stop offset=".604" stop-color="#86949e"/></linearGradient><path fill="url(#68vykl97jyaRbejgVAWxKa)" d="M20.5,21H18v-3h-8v3H7.5C7.224,21,7,21.224,7,21.5v1C7,22.776,7.224,23,7.5,23h13	c0.276,0,0.5-0.224,0.5-0.5v-1C21,21.224,20.776,21,20.5,21z"/><radialGradient id="68vykl97jyaRbejgVAWxKb" cx="24.499" cy="925.131" r="29.284" gradientTransform="translate(0 -901.78)" gradientUnits="userSpaceOnUse"><stop offset=".323" stop-color="#23d9d6"/><stop offset=".427" stop-color="#23d4d7"/><stop offset=".542" stop-color="#21c7dc"/><stop offset=".664" stop-color="#1fb0e2"/><stop offset=".789" stop-color="#1c91ec"/><stop offset=".917" stop-color="#1969f8"/><stop offset=".944" stop-color="#1860fb"/></radialGradient><path fill="url(#68vykl97jyaRbejgVAWxKb)" d="M23,19H5c-0.552,0-1-0.448-1-1V5c0-0.552,0.448-1,1-1h18c0.552,0,1,0.448,1,1v13	C24,18.552,23.552,19,23,19z"/><linearGradient id="68vykl97jyaRbejgVAWxKc" x1="14" x2="14" y1="31.07" y2="29.007" gradientTransform="matrix(1 0 0 -1 0 47.89)" gradientUnits="userSpaceOnUse"><stop offset="0" stop-color="#a1aab3"/><stop offset="1" stop-color="#8f979e"/></linearGradient><path fill="url(#68vykl97jyaRbejgVAWxKc)" d="M23,19H5c-0.552,0-1-0.448-1-1v-1h20v1C24,18.552,23.552,19,23,19z"/></svg>