<svg xmlns="http://www.w3.org/2000/svg" viewBox="0 0 48 48"><linearGradient id="aOf26Gq7Zo6PdUnrF772Za" x1="10.873" x2="31.198" y1="364.627" y2="344.302" gradientTransform="matrix(1 0 0 -1 0 390)" gradientUnits="userSpaceOnUse"><stop offset="0" stop-color="#1d59b3"/><stop offset="1" stop-color="#195bbc"/></linearGradient><path fill="url(#aOf26Gq7Zo6PdUnrF772Za)" d="M38,39H5c-1.1,0-2-0.9-2-2v-2c0-1.1,0.9-2,2-2h33c1.1,0,2,0.9,2,2v2C40,38.1,39.1,39,38,39z"/><linearGradient id="aOf26Gq7Zo6PdUnrF772Zb" x1="12.066" x2="34.891" y1="389.934" y2="367.109" gradientTransform="matrix(1 0 0 -1 0 390)" gradientUnits="userSpaceOnUse"><stop offset="0" stop-color="#1d59b3"/><stop offset="1" stop-color="#195bbc"/></linearGradient><path fill="url(#aOf26Gq7Zo6PdUnrF772Zb)" d="M43,15H5c-1.1,0-2-0.9-2-2v-2c0-1.1,0.9-2,2-2h38c1.1,0,2,0.9,2,2v2C45,14.1,44.1,15,43,15z"/><linearGradient id="aOf26Gq7Zo6PdUnrF772Zc" x1="12.066" x2="34.891" y1="377.934" y2="355.109" gradientTransform="matrix(1 0 0 -1 0 390)" gradientUnits="userSpaceOnUse"><stop offset="0" stop-color="#1d59b3"/><stop offset="1" stop-color="#195bbc"/></linearGradient><path fill="url(#aOf26Gq7Zo6PdUnrF772Zc)" d="M43,27H5c-1.1,0-2-0.9-2-2v-2c0-1.1,0.9-2,2-2h38c1.1,0,2,0.9,2,2v2C45,26.1,44.1,27,43,27z"/><path d="M40,37v-2c0-1.1-0.9-2-2-2h-3.223l-0.548,1.229l-5.901,0.623c-0.59,0.063-1.071,0.453-1.254,1.018	c-0.183,0.564-0.023,1.162,0.418,1.56L29.233,39H38C39.1,39,40,38.1,40,37z" opacity=".05"/><path d="M40,37v-2c0-1.1-0.9-2-2-2h-2.676l-0.756,1.696L28.38,35.35c-0.392,0.042-0.71,0.3-0.832,0.675	c-0.122,0.375-0.015,0.771,0.277,1.034L29.98,39H38C39.1,39,40,38.1,40,37z" opacity=".07"/><linearGradient id="aOf26Gq7Zo6PdUnrF772Zd" x1="30.746" x2="44.819" y1="360.214" y2="341.387" gradientTransform="matrix(1 0 0 -1 0 390)" gradientUnits="userSpaceOnUse"><stop offset="0" stop-color="#ffda1c"/><stop offset="1" stop-color="#feb705"/></linearGradient><path fill="url(#aOf26Gq7Zo6PdUnrF772Zd)" d="M38.442,29.217l2.651,5.946l6.474,0.684c0.417,0.044,0.584,0.56,0.273,0.841l-4.836,4.358	l1.351,6.369c0.087,0.41-0.352,0.729-0.715,0.52L38,44.681l-5.639,3.253c-0.363,0.209-0.802-0.11-0.715-0.52l1.351-6.369	l-4.836-4.358c-0.311-0.28-0.143-0.797,0.273-0.841l6.474-0.684l2.651-5.946C37.728,28.835,38.271,28.835,38.442,29.217z"/></svg>