<svg xmlns="http://www.w3.org/2000/svg" xmlns:xlink="http://www.w3.org/1999/xlink" data-name="Слой 1" viewBox="0 0 48 48"><defs><linearGradient id="FxkoOkfStU8E5axsMvEbBa" x1="7.679" x2="24.697" y1="3.699" y2="50.457" gradientUnits="userSpaceOnUse"><stop offset="0" stop-color="#a34f27"/><stop offset=".587" stop-color="#8b3817"/><stop offset="1" stop-color="#802d10"/></linearGradient><linearGradient id="FxkoOkfStU8E5axsMvEbBb" x1="24.348" x2="41.377" y1="-.88" y2="45.907" xlink:href="#FxkoOkfStU8E5axsMvEbBa"/></defs><path fill="url(#FxkoOkfStU8E5axsMvEbBa)" d="M18.21557,32a.994.994,0,0,1,.97143.76154A26.08383,26.08383,0,0,1,20,38a4.899,4.899,0,0,1-5.08632,5A5.51125,5.51125,0,0,1,10,40c-.91225-1.8245-.9923-3.649-.99932-6.99184A1.0048,1.0048,0,0,1,10.00094,32Zm.18755-4a.98416.98416,0,0,0,.88029-.52192A27.44986,27.44986,0,0,0,22,16c0-6.131-3-11-7-11-4.25,0-8,6.33487-8,14a24.94153,24.94153,0,0,0,1.73306,8.35513A1.00683,1.00683,0,0,0,9.66865,28Z"/><path fill="url(#FxkoOkfStU8E5axsMvEbBb)" d="M37.99906,32a1.0048,1.0048,0,0,1,1.00026,1.00816C38.9923,36.351,38.91225,38.1755,38,40a5.51125,5.51125,0,0,1-4.91368,3A4.899,4.899,0,0,1,28,38a26.08383,26.08383,0,0,1,.813-5.23846A.994.994,0,0,1,29.78443,32Zm.33229-4a1.00683,1.00683,0,0,0,.93559-.64487A24.94153,24.94153,0,0,0,41,19c0-7.66513-3.75-14-8-14-4,0-7,4.869-7,11a27.44986,27.44986,0,0,0,2.71659,11.47808A.98416.98416,0,0,0,29.59688,28Z"/></svg>