<svg xmlns="http://www.w3.org/2000/svg" viewBox="0 0 48 48"><linearGradient id="e5h1Z3JjjmXExwIe9c6tPa" x1="5.515" x2="43.175" y1="-1.36" y2="30.555" gradientUnits="userSpaceOnUse"><stop offset="0" stop-color="#5c65d6"/><stop offset=".999" stop-color="#464eb0"/></linearGradient><path fill="url(#e5h1Z3JjjmXExwIe9c6tPa)" d="M47.992,23.938l-0.985-7.876C47.003,16.021,47,15.979,47,15.938V12c0-0.552-0.448-1-1-1H27	L1.037,10.038C0.471,10.017,0,10.471,0,11.038v2.023c0,0.528,0.411,0.965,0.938,0.998l14.125,0.883	C15.589,14.974,16,15.411,16,15.939v12.887c0,0.115,0.02,0.228,0.058,0.336l0.251,0.703c0.059,0.165,0.16,0.312,0.293,0.425	l1.148,0.978l0.625,0.269l0.375-0.403l0.834-0.18c0.266-0.057,0.544-0.004,0.769,0.148l0.205,0.138	C20.834,31.427,21,31.738,21,32.07v0.949l0.974,0.262c0.017,0.005,0.035,0.009,0.053,0.013l1.721,0.364	c0.242,0.051,0.456,0.19,0.601,0.389l0.526,0.722L25.5,34l1.375,0.231L27.5,35H28v1h0.625l0.682-1.381l0.625,0.673l1.319,0.466	c0.163,0.058,0.309,0.157,0.423,0.288L32.5,37l0.66-0.826c0.212-0.265,0.543-0.404,0.88-0.37l1.522,0.152	c0.278,0.028,0.533,0.171,0.7,0.395L36.75,37h0.875l0.583-0.399L38.625,36L40,37h1l1.003-0.73c0.236-0.172,0.535-0.232,0.819-0.164	l0.91,0.216c0.175,0.042,0.336,0.13,0.465,0.255l0.821,0.795c0.151,0.146,0.343,0.241,0.55,0.271l1.286,0.189	C47.458,37.92,48,37.453,48,36.842v-12.78C48,24.021,47.997,23.979,47.992,23.938z"/></svg>