<svg xmlns="http://www.w3.org/2000/svg" viewBox="0 0 48 48"><path fill="#50e6ff" d="M41,8H7c-1.105,0-2,0.895-2,2v28c0,1.105,0.895,2,2,2h34c1.105,0,2-0.895,2-2V10	C43,8.895,42.105,8,41,8z"/><path fill="#057093" d="M13.5,23h-3c-0.276,0-0.5-0.224-0.5-0.5v-3c0-0.276,0.224-0.5,0.5-0.5h3c0.276,0,0.5,0.224,0.5,0.5 v3C14,22.776,13.776,23,13.5,23z"/><path fill="#057093" d="M19.5,23h-3c-0.276,0-0.5-0.224-0.5-0.5v-3c0-0.276,0.224-0.5,0.5-0.5h3c0.276,0,0.5,0.224,0.5,0.5 v3C20,22.776,19.776,23,19.5,23z"/><path fill="#057093" d="M25.5,23h-3c-0.276,0-0.5-0.224-0.5-0.5v-3c0-0.276,0.224-0.5,0.5-0.5h3c0.276,0,0.5,0.224,0.5,0.5 v3C26,22.776,25.776,23,25.5,23z"/><path fill="#057093" d="M31.5,23h-3c-0.276,0-0.5-0.224-0.5-0.5v-3c0-0.276,0.224-0.5,0.5-0.5h3c0.276,0,0.5,0.224,0.5,0.5 v3C32,22.776,31.776,23,31.5,23z"/><path fill="#057093" d="M37.5,23h-3c-0.276,0-0.5-0.224-0.5-0.5v-3c0-0.276,0.224-0.5,0.5-0.5h3c0.276,0,0.5,0.224,0.5,0.5 v3C38,22.776,37.776,23,37.5,23z"/><path fill="#057093" d="M13.5,29h-3c-0.276,0-0.5-0.224-0.5-0.5v-3c0-0.276,0.224-0.5,0.5-0.5h3c0.276,0,0.5,0.224,0.5,0.5 v3C14,28.776,13.776,29,13.5,29z"/><path fill="#057093" d="M19.5,29h-3c-0.276,0-0.5-0.224-0.5-0.5v-3c0-0.276,0.224-0.5,0.5-0.5h3c0.276,0,0.5,0.224,0.5,0.5 v3C20,28.776,19.776,29,19.5,29z"/><path fill="#057093" d="M25.5,29h-3c-0.276,0-0.5-0.224-0.5-0.5v-3c0-0.276,0.224-0.5,0.5-0.5h3c0.276,0,0.5,0.224,0.5,0.5 v3C26,28.776,25.776,29,25.5,29z"/><path fill="#057093" d="M31.5,29h-3c-0.276,0-0.5-0.224-0.5-0.5v-3c0-0.276,0.224-0.5,0.5-0.5h3c0.276,0,0.5,0.224,0.5,0.5 v3C32,28.776,31.776,29,31.5,29z"/><path fill="#057093" d="M37.5,29h-3c-0.276,0-0.5-0.224-0.5-0.5v-3c0-0.276,0.224-0.5,0.5-0.5h3c0.276,0,0.5,0.224,0.5,0.5 v3C38,28.776,37.776,29,37.5,29z"/><radialGradient id="anZKJ9lxwi5pCWvwOheSya" cx="37.011" cy="37.425" r="13.112" gradientUnits="userSpaceOnUse"><stop offset="0"/><stop offset="1" stop-opacity="0"/></radialGradient><path fill="url(#anZKJ9lxwi5pCWvwOheSya)" d="M37,24c-7.168,0-13,5.832-13,13c0,1.032,0.121,2.037,0.35,3H41c1.105,0,2-0.895,2-2V25.47	C41.204,24.531,39.163,24,37,24z"/><linearGradient id="anZKJ9lxwi5pCWvwOheSyb" x1="29.45" x2="44.762" y1="639.45" y2="654.762" gradientTransform="translate(0 -610)" gradientUnits="userSpaceOnUse"><stop offset="0" stop-color="#fede00"/><stop offset="1" stop-color="#ffd000"/></linearGradient><circle cx="37" cy="37" r="11" fill="url(#anZKJ9lxwi5pCWvwOheSyb)"/><circle cx="37" cy="37" r="8.8" fill="#f5be00"/><path fill="#fee119" d="M34.544,41.054v-1.64c0.595,0.365,1.229,0.547,1.901,0.547c0.506,0,0.902-0.12,1.187-0.361	s0.428-0.568,0.428-0.981c0-0.863-0.609-1.294-1.828-1.294c-0.397,0-0.877,0.036-1.439,0.109V32.57h4.822v1.567h-3.182v1.743	c0.255-0.024,0.496-0.036,0.723-0.036c0.895,0,1.595,0.235,2.101,0.704c0.506,0.47,0.759,1.102,0.759,1.895	c0,0.878-0.302,1.596-0.905,2.152c-0.603,0.557-1.421,0.835-2.454,0.835C35.819,41.43,35.115,41.305,34.544,41.054z"/><path fill="#057093" d="M34.171,15H13.829C13.371,15,13,14.629,13,14.171v-1.342C13,12.371,13.371,12,13.829,12h20.342	C34.629,12,35,12.371,35,12.829v1.342C35,14.629,34.629,15,34.171,15z"/></svg>