<svg xmlns="http://www.w3.org/2000/svg" data-name="Слой 1" viewBox="0 0 48 48"><defs><linearGradient id="wZtUR~sFz0nE3mGsv5_AVa" x1="29.5" x2="29.5" y1="25.132" y2="36.16" data-name="Безымянный градиент 207" gradientUnits="userSpaceOnUse"><stop offset="0" stop-color="#c26715"/><stop offset=".508" stop-color="#b85515"/><stop offset="1" stop-color="#ad3f16"/></linearGradient><linearGradient id="wZtUR~sFz0nE3mGsv5_AVb" x1="3" x2="45" y1="2459.002" y2="2459.002" data-name="Безымянный градиент 186" gradientTransform="translate(0 -2426)" gradientUnits="userSpaceOnUse"><stop offset="0" stop-color="#ffcf54"/><stop offset=".261" stop-color="#fdcb4d"/><stop offset=".639" stop-color="#f7c13a"/><stop offset="1" stop-color="#f0b421"/></linearGradient><linearGradient id="wZtUR~sFz0nE3mGsv5_AVc" x1="22.337" x2="24.123" y1="2462.37" y2="2459.29" data-name="Безымянный градиент 185" gradientTransform="translate(0 -2426)" gradientUnits="userSpaceOnUse"><stop offset="0" stop-color="#f0b421" stop-opacity="0"/><stop offset=".512" stop-color="#e9ab12" stop-opacity=".512"/><stop offset="1" stop-color="#e09f00"/></linearGradient></defs><path fill="#21a366" d="M31.22,9.1706a9.61044,9.61044,0,0,1,2.77721,6.93875c.00622,1.9225,0,5.44709,0,5.44709L20.28617,6.1943S26.91228,4.87141,31.22,9.1706Z"/><path fill="#33c481" d="M20.28617,6.1943s-1.65186,6.27924,2.98175,10.91285C27.36413,21.20336,32,19.0023,32,23.0023v6h2l-.00276-7.84249a3.11075,3.11075,0,0,0-.91382-2.20249Z"/><circle cx="39.5" cy="31.502" r="2.5" fill="#c98e00"/><polygon fill="#c98e00" points="26.211 41.685 40.68 33.695 38.54 29.193 26 35.002 26.211 41.685"/><path fill="url(#wZtUR~sFz0nE3mGsv5_AVa)" d="M36.5,29.0023a3.46834,3.46834,0,0,0-.50513.05091c.00025-.0174.00513-.03345.00513-.05091a2.97571,2.97571,0,0,0-4.03088-2.8067,2.48646,2.48646,0,0,0-4.93824,0A2.97571,2.97571,0,0,0,23,29.0023c0,.01746.00488.03351.00513.05091A3.49339,3.49339,0,1,0,22.5,36.0023a3.506,3.506,0,0,0,.73071-.079,3.478,3.478,0,0,0,4.51929.44562,3.47444,3.47444,0,0,0,4,0,3.4883,3.4883,0,0,0,4.47681-.39417c.09179.00721.17968.02753.27319.02753a3.5,3.5,0,1,0,0-7Z"/><path fill="url(#wZtUR~sFz0nE3mGsv5_AVb)" d="M45,32.5023a2.4985,2.4985,0,0,0-3.459-2.308l-.001-.001-.011.005-.006.003L29,36.0023l-1.5-1a2.49256,2.49256,0,0,0,1.233-4.663l.004-.016-13.651-6.866h-.025a4.91541,4.91541,0,0,0-4.076-.025h-.022L3,27.0023v13l8.09-3.718,15.911,6.508h.001a2.43991,2.43991,0,0,0,2.193-.107l.017-.001,14.469-7.989-.001-.002A2.48841,2.48841,0,0,0,45,32.5023Z"/><circle cx="27.5" cy="32.502" r="1.5" fill="#ffde87"/><path fill="url(#wZtUR~sFz0nE3mGsv5_AVc)" d="M29,36.0023l-1.489-.998c-1.255-.06-2.242-.468-10.511-3.513v3.511l11.551,4.734S27.733,37.4533,29,36.0023Z"/></svg>