<svg xmlns="http://www.w3.org/2000/svg" viewBox="0 0 48 48"><path fill="#50e6ff" d="M39,16v25c0,1.105-0.895,2-2,2H11c-1.105,0-2-0.895-2-2V7c0-1.105,0.895-2,2-2h17L39,16z"/><linearGradient id="~4N4w1Imf~cCVrZCQZGeUa" x1="28.529" x2="33.6" y1="-441.471" y2="-436.4" gradientTransform="matrix(1 0 0 -1 0 -426)" gradientUnits="userSpaceOnUse"><stop offset="0" stop-color="#3079d6"/><stop offset="1" stop-color="#297cd2"/></linearGradient><path fill="url(#~4N4w1Imf~cCVrZCQZGeUa)" d="M28,5v9c0,1.105,0.895,2,2,2h9L28,5z"/><path d="M39,21H28c-1.105,0-2,0.895-2,2v18c0,1.105,0.895,2,2,2h11V21z" opacity=".05"/><path d="M39,22H28.5c-0.828,0-1.5,0.672-1.5,1.5v18c0,0.828,0.672,1.5,1.5,1.5H39	V22z" opacity=".07"/><linearGradient id="~4N4w1Imf~cCVrZCQZGeUb" x1="28.591" x2="41.928" y1="-449.439" y2="-467.896" gradientTransform="matrix(1 0 0 -1 0 -426)" gradientUnits="userSpaceOnUse"><stop offset="0" stop-color="#899198"/><stop offset="1" stop-color="#787e85"/></linearGradient><path fill="url(#~4N4w1Imf~cCVrZCQZGeUb)" d="M42,23H29c-0.552,0-1,0.448-1,1v18c0,0.552,0.448,1,1,1h13c0.552,0,1-0.448,1-1V24	C43,23.448,42.552,23,42,23z"/><linearGradient id="~4N4w1Imf~cCVrZCQZGeUc" x1="31.248" x2="40.669" y1="-450.53" y2="-454.894" gradientTransform="matrix(1 0 0 -1 0 -426)" gradientUnits="userSpaceOnUse"><stop offset="0" stop-color="#4fe5ff"/><stop offset="1" stop-color="#2eb7ed"/></linearGradient><path fill="url(#~4N4w1Imf~cCVrZCQZGeUc)" d="M40.5,28h-10c-0.276,0-0.5-0.224-0.5-0.5v-2c0-0.276,0.224-0.5,0.5-0.5h10	c0.276,0,0.5,0.224,0.5,0.5v2C41,27.776,40.776,28,40.5,28z"/><path fill="#cad2d9" d="M36.5,33h-2c-0.276,0-0.5-0.224-0.5-0.5v-2c0-0.276,0.224-0.5,0.5-0.5h2c0.276,0,0.5,0.224,0.5,0.5v2	C37,32.776,36.776,33,36.5,33z"/><path fill="#cad2d9" d="M32.5,33h-2c-0.276,0-0.5-0.224-0.5-0.5v-2c0-0.276,0.224-0.5,0.5-0.5h2c0.276,0,0.5,0.224,0.5,0.5v2	C33,32.776,32.776,33,32.5,33z"/><path fill="#cad2d9" d="M36.5,37h-2c-0.276,0-0.5-0.224-0.5-0.5v-2c0-0.276,0.224-0.5,0.5-0.5h2c0.276,0,0.5,0.224,0.5,0.5v2	C37,36.776,36.776,37,36.5,37z"/><path fill="#cad2d9" d="M32.5,37h-2c-0.276,0-0.5-0.224-0.5-0.5v-2c0-0.276,0.224-0.5,0.5-0.5h2c0.276,0,0.5,0.224,0.5,0.5v2	C33,36.776,32.776,37,32.5,37z"/><path fill="#cad2d9" d="M36.5,41h-2c-0.276,0-0.5-0.224-0.5-0.5v-2c0-0.276,0.224-0.5,0.5-0.5h2c0.276,0,0.5,0.224,0.5,0.5v2	C37,40.776,36.776,41,36.5,41z"/><path fill="#cad2d9" d="M32.5,41h-2c-0.276,0-0.5-0.224-0.5-0.5v-2c0-0.276,0.224-0.5,0.5-0.5h2c0.276,0,0.5,0.224,0.5,0.5v2	C33,40.776,32.776,41,32.5,41z"/><path fill="#cad2d9" d="M40.5,33h-2c-0.276,0-0.5-0.224-0.5-0.5v-2c0-0.276,0.224-0.5,0.5-0.5h2c0.276,0,0.5,0.224,0.5,0.5v2	C41,32.776,40.776,33,40.5,33z"/><linearGradient id="~4N4w1Imf~cCVrZCQZGeUd" x1="39.5" x2="39.5" y1="-460.275" y2="-466.821" gradientTransform="matrix(1 0 0 -1 0 -426)" gradientUnits="userSpaceOnUse"><stop offset="0" stop-color="#11498a"/><stop offset="1" stop-color="#0f417a"/></linearGradient><path fill="url(#~4N4w1Imf~cCVrZCQZGeUd)" d="M40.5,41h-2c-0.276,0-0.5-0.224-0.5-0.5v-6c0-0.276,0.224-0.5,0.5-0.5h2	c0.276,0,0.5,0.224,0.5,0.5v6C41,40.776,40.776,41,40.5,41z"/></svg>