<svg xmlns="http://www.w3.org/2000/svg" viewBox="0 0 48 48"><linearGradient id="DHrZowPUnkQjKUD8Qgb2Ia" x1="20.766" x2="25.05" y1="-386.008" y2="-400.746" gradientTransform="matrix(1 0 0 -1 0 -356)" gradientUnits="userSpaceOnUse"><stop offset="0" stop-color="#33bef0"/><stop offset="1" stop-color="#0a85d9"/></linearGradient><path fill="url(#DHrZowPUnkQjKUD8Qgb2Ia)" d="M24,30.571c-8.837,0-16,4.921-16,10.286V42c0,1.105,0.895,2,2,2h28c1.105,0,2-0.895,2-2 v-1.143C40,35.492,32.837,30.571,24,30.571z"/><path fill="#d6a121" d="M29,32c0,1.897-2,4-5,4s-5-2.103-5-4c0-2.637,0-7.035,0-7.035h10C29,24.965,29,29.363,29,32z"/><linearGradient id="DHrZowPUnkQjKUD8Qgb2Ib" x1="32.917" x2="34.251" y1="-376" y2="-376" gradientTransform="matrix(1 0 0 -1 0 -356)" gradientUnits="userSpaceOnUse"><stop offset="0" stop-color="#c48f0c"/><stop offset=".251" stop-color="#d19b16"/><stop offset=".619" stop-color="#dca51f"/><stop offset="1" stop-color="#e0a922"/></linearGradient><path fill="url(#DHrZowPUnkQjKUD8Qgb2Ib)" d="M32.916,18h-0.527v4h0.703 c0.515,0,0.954-0.312,1.041-0.74l0.344-1.703C34.642,18.743,33.897,18,32.916,18z"/><linearGradient id="DHrZowPUnkQjKUD8Qgb2Ic" x1="-803.083" x2="-801.749" y1="-376" y2="-376" gradientTransform="rotate(180 -394 -178)" gradientUnits="userSpaceOnUse"><stop offset="0" stop-color="#c48f0c"/><stop offset=".251" stop-color="#d19b16"/><stop offset=".619" stop-color="#dca51f"/><stop offset="1" stop-color="#e0a922"/></linearGradient><path fill="url(#DHrZowPUnkQjKUD8Qgb2Ic)" d="M15.084,18h0.527v4h-0.703 c-0.515,0-0.954-0.312-1.041-0.74l-0.344-1.703C13.358,18.743,14.103,18,15.084,18z"/><radialGradient id="DHrZowPUnkQjKUD8Qgb2Id" cx="36.626" cy="-374.534" r="12.224" gradientTransform="matrix(.8816 0 0 -.8816 -8.29 -311.49)" gradientUnits="userSpaceOnUse"><stop offset="0" stop-color="#ffcf54"/><stop offset=".261" stop-color="#fdcb4d"/><stop offset=".639" stop-color="#f7c13a"/><stop offset="1" stop-color="#f0b421"/></radialGradient><path fill="url(#DHrZowPUnkQjKUD8Qgb2Id)" d="M24,6.4c-4.441,0-9,0.675-9,10.275 c0,0.768,0,5.877,0,6.698C15,26.8,20.4,31,24,31s9-4.2,9-7.627c0-0.821,0-5.929,0-6.698C33,7.075,28.441,6.4,24,6.4z"/><radialGradient id="DHrZowPUnkQjKUD8Qgb2Ie" cx="26.921" cy="-360.881" r="28.915" gradientTransform="matrix(.8816 0 0 -.8816 -8.29 -311.49)" gradientUnits="userSpaceOnUse"><stop offset="0" stop-color="#c26715"/><stop offset=".508" stop-color="#b85515"/><stop offset="1" stop-color="#ad3f16"/></radialGradient><path fill="url(#DHrZowPUnkQjKUD8Qgb2Ie)" d="M24,5.545c-4.354,0-5,1.636-5,1.636 c-1.77,0.261-5,2.854-5,5.818c0,1.654,0.265,2.876,1,7c0.545-6.545,2.249-9,4-9c1.267,0,2.273,1,5,1c2.303,0,2.875-1,5-1 c3,0,4,7.968,4,9c0.601-3.01,1-5.555,1-7C34,9.57,30.209,5.545,24,5.545z"/><radialGradient id="DHrZowPUnkQjKUD8Qgb2If" cx="39.43" cy="-362.817" r="33.398" gradientTransform="matrix(.8431 0 0 -.8816 -10.679 -311.49)" gradientUnits="userSpaceOnUse"><stop offset="0" stop-color="#c26715"/><stop offset=".508" stop-color="#b85515"/><stop offset="1" stop-color="#ad3f16"/></radialGradient><path fill="url(#DHrZowPUnkQjKUD8Qgb2If)" d="M24.219,5 c-4.164,0-5.216,2.182-5.216,2.182c-0.042,1.159,0.522,2.182,0.522,2.182S20.285,11,24.625,11C27.245,11,31,9.365,31,5 C31,5,30.157,5,24.219,5z"/><radialGradient id="DHrZowPUnkQjKUD8Qgb2Ig" cx="25.217" cy="25.467" r="10.51" gradientUnits="userSpaceOnUse"><stop offset="0" stop-color="#f9f9f9"/><stop offset=".26" stop-color="#f0f1f2"/><stop offset=".678" stop-color="#d9dcdf"/><stop offset="1" stop-color="#c2c8cc"/></radialGradient><path fill="url(#DHrZowPUnkQjKUD8Qgb2Ig)" d="M33.5,24c0-0.55-0.45-1-1-1	c-0.2,0-0.38,0.07-0.54,0.18C31.98,23.12,32,23.06,32,23c0-0.55-0.45-1-1-1c-0.44,0-0.81,0.29-0.94,0.69	c-0.16-0.11-0.35-0.19-0.56-0.19s-0.4,0.08-0.56,0.19C28.81,22.29,28.44,22,28,22c-0.27,0-0.51,0.11-0.69,0.28	c-0.26-0.46-0.74-0.78-1.31-0.78s-1.05,0.32-1.31,0.78C24.51,22.11,24.27,22,24,22s-0.51,0.11-0.69,0.28	c-0.26-0.46-0.74-0.78-1.31-0.78c-0.18,0-0.36,0.03-0.52,0.1l-3.129,6.654C18.14,28.437,18,28.699,18,29c0,0.552,0.448,1,1,1	c0.047,0,0.087-0.02,0.132-0.027C19.303,30.281,19.621,30.5,20,30.5c0,0.83,0.67,1.5,1.5,1.5c0.47,0,0.89-0.22,1.17-0.57	c0.1,0.04,0.21,0.07,0.33,0.07c0.05,0,0.09-0.02,0.13-0.03C23.3,31.78,23.62,32,24,32s0.7-0.22,0.87-0.53	c0.04,0.01,0.08,0.03,0.13,0.03c0.12,0,0.23-0.03,0.33-0.07c0.28,0.35,0.7,0.57,1.17,0.57c0.83,0,1.5-0.67,1.5-1.5	c0.38,0,0.7-0.22,0.87-0.53C28.91,29.98,28.95,30,29,30c0.55,0,1-0.45,1-1c0.55,0,1-0.45,1-1c0-0.03-0.01-0.06-0.02-0.09	c0.59-0.2,1.02-0.75,1.02-1.41c0-0.03-0.01-0.06-0.01-0.09C32.58,26.21,33,25.66,33,25c0-0.05-0.01-0.1-0.01-0.14	C33.29,24.68,33.5,24.37,33.5,24z M27,27h-0.5c0-0.55-0.45-1-1-1c-0.3,0-0.57,0.14-0.75,0.36C24.57,26.14,24.3,26,24,26	s-0.57,0.14-0.75,0.36C23.07,26.14,22.8,26,22.5,26c-0.55,0-1,0.45-1,1H21c0-0.52-0.27-0.98-0.67-1.25c0.4-0.27,0.67-0.73,0.67-1.25	c0-0.16-0.03-0.32-0.08-0.46c0.27,0.28,0.65,0.46,1.08,0.46c0.57,0,1.05-0.32,1.31-0.78C23.49,23.89,23.73,24,24,24	s0.51-0.11,0.69-0.28c0.26,0.46,0.74,0.78,1.31,0.78c0.43,0,0.81-0.18,1.08-0.46C27.03,24.18,27,24.34,27,24.5	c0,0.52,0.27,0.98,0.67,1.25C27.27,26.02,27,26.48,27,27z"/><linearGradient id="DHrZowPUnkQjKUD8Qgb2Ih" x1="14.457" x2="16.681" y1="23.389" y2="29.499" gradientUnits="userSpaceOnUse"><stop offset="0" stop-color="#7b83eb"/><stop offset="1" stop-color="#5961c3"/></linearGradient><path fill="url(#DHrZowPUnkQjKUD8Qgb2Ih)" d="M17.545,28.786l-4.858-2.298	c-0.25-0.118-0.356-0.416-0.238-0.666l0.576-1.217c0.118-0.25,0.416-0.356,0.666-0.238l4.858,2.298	c0.25,0.118,0.356,0.416,0.238,0.666l-0.576,1.217C18.092,28.798,17.794,28.904,17.545,28.786z"/><linearGradient id="DHrZowPUnkQjKUD8Qgb2Ii" x1="11.275" x2="13.713" y1="25.781" y2="32.479" gradientUnits="userSpaceOnUse"><stop offset="0" stop-color="#5c65d6"/><stop offset=".999" stop-color="#464eb0"/></linearGradient><path fill="url(#DHrZowPUnkQjKUD8Qgb2Ii)" d="M10.823,36.501L10.823,36.501	c-0.499-0.236-0.713-0.832-0.476-1.332l4.067-8.597c0.236-0.499,0.832-0.713,1.332-0.476l0,0c0.499,0.236,0.713,0.832,0.476,1.332	l-4.067,8.597C11.918,36.524,11.322,36.737,10.823,36.501z"/><linearGradient id="DHrZowPUnkQjKUD8Qgb2Ij" x1="9.545" x2="9.545" y1="29.38" y2="44.088" gradientUnits="userSpaceOnUse"><stop offset="0" stop-color="#ffcf54"/><stop offset=".261" stop-color="#fdcb4d"/><stop offset=".639" stop-color="#f7c13a"/><stop offset="1" stop-color="#f0b421"/></linearGradient><path fill="url(#DHrZowPUnkQjKUD8Qgb2Ij)" d="M10.603,44l4.159-9.831	c0.646-1.526-0.067-3.286-1.594-3.932c-1.524-0.646-3.285,0.067-3.932,1.594L4.089,44H10.603z"/></svg>