<svg xmlns="http://www.w3.org/2000/svg" viewBox="0 0 48 48"><path fill="#fff" d="M38.5,33c-0.3,0-0.5-0.2-0.5-0.5c0-0.8,0.7-1.5,1.5-1.5c0.3,0,0.5,0.2,0.5,0.5S39.8,32,39.5,32	S39,32.2,39,32.5S38.8,33,38.5,33z"/><path fill="#edbe00" d="M45.9,23.432c0,0-0.899-4.392-10.783-4.428c-1.009-1.454-3.32-4.774-4.017-5.703	C30.2,12.1,29.4,10,22,10c-0.9,0-3.3,0-4.4,0c-5.7,0-8,2.1-9.3,4.4c-0.662,1.176-2.131,4.13-2.864,5.615	C4.462,20.037,3.587,20.526,3,21.216c-1.2,1.612-3,4.633-3,8.259c0,1.914,2.601,2.921,4.001,3.324	c0.004-0.003,0.004-0.003,0.007-0.007C5,33,6.992,32.991,7,33h25c1.588,0,11.512-0.417,12.941-0.798	C46.155,31.877,47,30.783,47,29.527v-4.685C47,23.734,45.9,23.432,45.9,23.432z"/><linearGradient id="1181CIZx~ywfZ8t0TTjuCa" x1="46" x2="48" y1="30" y2="30" gradientUnits="userSpaceOnUse"><stop offset="0" stop-color="#fcfcfc"/><stop offset=".158" stop-color="#f5f5f5"/><stop offset=".496" stop-color="#ebebeb"/><stop offset=".946" stop-color="#e8e8e8"/><stop offset="1" stop-color="#e8e8e8"/></linearGradient><path fill="url(#1181CIZx~ywfZ8t0TTjuCa)" d="M46.6,31h0.8c0.3,0,0.6-0.3,0.6-0.6v-0.8c0-0.3-0.3-0.6-0.6-0.6h-0.8c-0.3,0-0.6,0.3-0.6,0.6	v0.8C46,30.7,46.3,31,46.6,31z"/><path fill="#c94f60" d="M1.735,28.006l0.618-2.19c0.087-0.309-0.083-0.633-0.387-0.736L0.99,24.748	c-0.333,0.808-0.604,1.698-0.78,2.647L1.735,28.006z"/><linearGradient id="1181CIZx~ywfZ8t0TTjuCb" x1="0" x2="3" y1="28.409" y2="28.409" gradientUnits="userSpaceOnUse"><stop offset="0" stop-color="#e8e8e8"/><stop offset=".523" stop-color="#f0f0f0"/><stop offset="1" stop-color="#fcfcfc"/></linearGradient><path fill="url(#1181CIZx~ywfZ8t0TTjuCb)" d="M1.8,29.6l-1.5-0.5C0.1,29,0,28.9,0,28.7v-1.1c0-0.3,0.3-0.5,0.6-0.4l1.8,0.6	C2.7,27.9,3,28.3,3,28.7C3,29.3,2.4,29.8,1.8,29.6z"/><path fill="#fad500" d="M47.5,28H47c0,0-0.5-0.3-0.5-1.5S47,25,47,25h0.5c0.3,0,0.5,0.2,0.5,0.5v2C48,27.8,47.8,28,47.5,28z"/><path fill="#fad500" d="M45.944,31.689C45.544,28.483,42.815,26,39.5,26c-3.59,0-6.5,2.91-6.5,6.5	c0,0.169,0.013,0.334,0.025,0.5h2.025C35.032,32.834,35,32.671,35,32.5c0-2.485,2.015-4.5,4.5-4.5c2.464,0,4.459,1.981,4.494,4.437	c0.328-0.078,0.653-0.156,0.947-0.235C45.318,32.101,45.653,31.919,45.944,31.689z"/><linearGradient id="1181CIZx~ywfZ8t0TTjuCc" x1="38.557" x2="40.48" y1="27.582" y2="37.614" gradientUnits="userSpaceOnUse"><stop offset="0" stop-color="#6d7479"/><stop offset="1" stop-color="#323538"/></linearGradient><path fill="url(#1181CIZx~ywfZ8t0TTjuCc)" d="M44,32.5c0,2.5-2,4.5-4.5,4.5S35,35,35,32.5s2-4.5,4.5-4.5S44,30,44,32.5z"/><linearGradient id="1181CIZx~ywfZ8t0TTjuCd" x1="38.872" x2="40.121" y1="29.966" y2="35.007" gradientUnits="userSpaceOnUse"><stop offset="0" stop-color="#a1aab3"/><stop offset="1" stop-color="#8f979e"/></linearGradient><path fill="url(#1181CIZx~ywfZ8t0TTjuCd)" d="M42,32.5c0,1.4-1.1,2.5-2.5,2.5S37,33.9,37,32.5s1.1-2.5,2.5-2.5S42,31.1,42,32.5z"/><path fill="#fad500" d="M15.975,33C15.987,32.834,16,32.669,16,32.5c0-3.611-2.889-6.5-6.5-6.5	c-3.599,0-6.479,2.87-6.498,6.463c0.362,0.139,0.707,0.251,0.999,0.335c0.004-0.003,0.004-0.003,0.007-0.007C5,33,6.992,32.991,7,33	H15.975z"/><linearGradient id="1181CIZx~ywfZ8t0TTjuCe" x1="8.557" x2="10.48" y1="27.582" y2="37.614" gradientUnits="userSpaceOnUse"><stop offset="0" stop-color="#6d7479"/><stop offset="1" stop-color="#323538"/></linearGradient><path fill="url(#1181CIZx~ywfZ8t0TTjuCe)" d="M14,32.5C14,35,12,37,9.5,37S5,35,5,32.5S7,28,9.5,28S14,30,14,32.5z"/><linearGradient id="1181CIZx~ywfZ8t0TTjuCf" x1="8.872" x2="10.121" y1="29.966" y2="35.007" gradientUnits="userSpaceOnUse"><stop offset="0" stop-color="#a1aab3"/><stop offset="1" stop-color="#8f979e"/></linearGradient><path fill="url(#1181CIZx~ywfZ8t0TTjuCf)" d="M12,32.5c0,1.4-1.1,2.5-2.5,2.5S7,33.9,7,32.5S8.1,30,9.5,30S12,31.1,12,32.5z"/><path fill="#fad500" d="M23,22c-0.186,0-2.814,0-3,0c-0.552,0-1,0.448-1,1c0,0.552,0.448,1,1,1c0.186,0,2.814,0,3,0	c0.552,0,1-0.448,1-1C24,22.448,23.552,22,23,22z"/><linearGradient id="1181CIZx~ywfZ8t0TTjuCg" x1="19" x2="32.407" y1="16" y2="16" gradientUnits="userSpaceOnUse"><stop offset="0" stop-color="#3079d6"/><stop offset="1" stop-color="#297cd2"/></linearGradient><path fill="url(#1181CIZx~ywfZ8t0TTjuCg)" d="M20.258,20l11.085,0c0.857,0,1.361-0.963,0.871-1.667c-1.037-1.486-2.252-3.218-2.714-3.833 c-0.087-0.116-0.174-0.24-0.264-0.369C28.606,13.232,27.745,12,22,12h-1.742C19.563,12,19,12.563,19,13.258v5.483 C19,19.437,19.563,20,20.258,20z"/><linearGradient id="1181CIZx~ywfZ8t0TTjuCh" x1="8.619" x2="17" y1="16.051" y2="16.051" gradientUnits="userSpaceOnUse"><stop offset="0" stop-color="#3079d6"/><stop offset="1" stop-color="#297cd2"/></linearGradient><path fill="url(#1181CIZx~ywfZ8t0TTjuCh)" d="M17,13.366c0-0.745-0.65-1.34-1.391-1.255c-3.448,0.398-4.762,1.847-5.568,3.273 c-0.256,0.454-0.689,1.285-1.255,2.399C8.273,18.796,9.005,20,10.141,20l5.601,0C16.437,20,17,19.437,17,18.742V13.366z"/></svg>