<svg xmlns="http://www.w3.org/2000/svg" id="Layer_1" x="0" y="0" version="1.1" viewBox="0 0 48 48" xml:space="preserve"><linearGradient id="SVGID_1_" x1="18.921" x2="25.143" y1="-472.285" y2="-451.285" gradientTransform="translate(0 478)" gradientUnits="userSpaceOnUse"><stop offset="0" stop-color="#0078d3"/><stop offset="1" stop-color="#0858a1"/></linearGradient><path fill="url(#SVGID_1_)" d="M43,29.5H5V16.6c0-0.7,0.4-1.3,0.9-1.7L22.4,4.5c1-0.6,2.2-0.6,3.2,0l16.5,10.4c0.6,0.4,0.9,1,0.9,1.7V29.5z"/><linearGradient id="SVGID_2_" x1="24" x2="24" y1="-464.584" y2="-450.767" gradientTransform="translate(0 478)" gradientUnits="userSpaceOnUse"><stop offset="0" stop-color="#fff"/><stop offset=".24" stop-color="#f8f8f7"/><stop offset="1" stop-color="#e3e3e1"/></linearGradient><path fill="url(#SVGID_2_)" d="M38,32H10V14c0-0.6,0.4-1,1-1h26c0.6,0,1,0.4,1,1V32z"/><linearGradient id="SVGID_3_" x1="25.886" x2="37.997" y1="-450.064" y2="-432.731" gradientTransform="translate(0 478)" gradientUnits="userSpaceOnUse"><stop offset="0" stop-color="#3ccbf4"/><stop offset="1" stop-color="#1fa0e5"/></linearGradient><path fill="url(#SVGID_3_)" d="M43,17v21.3c0,1-0.8,1.7-1.8,1.7H9.6l4.8-6.3L43,17z"/><linearGradient id="SVGID_4_" x1="3.074" x2="39.962" y1="-450.764" y2="-432.875" gradientTransform="translate(0 478)" gradientUnits="userSpaceOnUse"><stop offset="0" stop-color="#28afea"/><stop offset="1" stop-color="#0b88da"/></linearGradient><path fill="url(#SVGID_4_)" d="M5,17v21.3c0,1,0.8,1.7,1.8,1.7h34.5c0.6,0,1.1-0.3,1.4-0.7L5,17z"/><radialGradient id="SVGID_5_" cx="37.408" cy="36.925" r="10.701" gradientUnits="userSpaceOnUse"><stop offset="0"/><stop offset="1" stop-opacity="0"/></radialGradient><path fill="url(#SVGID_5_)" d="M43,38.3V27.1c-1.5-0.7-3.2-1.1-5-1.1c-6.6,0-12,5.4-12,12c0,0.7,0.1,1.3,0.2,2h15C42.2,40,43,39.2,43,38.3z"/><linearGradient id="SVGID_6_" x1="30.929" x2="45.071" y1="223.071" y2="208.929" gradientTransform="matrix(1 0 0 -1 0 254)" gradientUnits="userSpaceOnUse"><stop offset="0" stop-color="#889097"/><stop offset="1" stop-color="#64717c"/></linearGradient><circle cx="38" cy="38" r="10" fill="url(#SVGID_6_)"/><radialGradient id="SVGID_7_" cx="38" cy="216" r="9" gradientTransform="matrix(1 0 0 -1 0 254)" gradientUnits="userSpaceOnUse"><stop offset="0"/><stop offset="1" stop-opacity="0"/></radialGradient><circle cx="38" cy="38" r="9" fill="url(#SVGID_7_)"/><radialGradient id="SVGID_8_" cx="37.948" cy="223.814" r="17.828" gradientTransform="matrix(1 0 0 -1 0 254)" gradientUnits="userSpaceOnUse"><stop offset="0" stop-color="#fafafb"/><stop offset="1" stop-color="#c8cdd1"/></radialGradient><circle cx="38" cy="38" r="8" fill="url(#SVGID_8_)"/><path fill="#d83b01" d="M40.9,43.7c-0.2,0.1-0.4,0-0.5-0.2l-2.7-5.3c-0.1-0.2,0-0.4,0.2-0.5c0.2-0.1,0.4,0,0.5,0.2l2.7,5.3	C41.2,43.3,41.1,43.6,40.9,43.7z"/><path fill="#45494d" d="M38,38.4c-0.1,0-0.2,0-0.3-0.1c-0.1-0.1-0.1-0.4,0-0.5l4.2-4.2c0.1-0.1,0.4-0.1,0.5,0s0.1,0.4,0,0.5l-4.2,4.2	C38.2,38.3,38.1,38.4,38,38.4z"/><path fill="#45494d" d="M38,38.6c-0.1,0-0.2,0-0.3-0.1l-3.9-1.9c-0.3-0.1-0.4-0.5-0.3-0.8c0.1-0.3,0.5-0.4,0.8-0.3l3.9,1.9	c0.3,0.1,0.4,0.5,0.3,0.8C38.5,38.5,38.2,38.6,38,38.6z"/><circle cx="38" cy="38" r="1" fill="#1e2021"/></svg>