<svg xmlns="http://www.w3.org/2000/svg" viewBox="0 0 48 48"><path fill="#50e6ff" d="M38,5h-1c0,0.552-0.448,1-1,1s-1-0.448-1-1h-2c0,0.552-0.448,1-1,1s-1-0.448-1-1h-2	c0,0.552-0.448,1-1,1s-1-0.448-1-1h-2c0,0.552-0.448,1-1,1s-1-0.448-1-1h-2c0,0.552-0.448,1-1,1s-1-0.448-1-1h-2	c0,0.552-0.448,1-1,1s-1-0.448-1-1h-2c0,0.552-0.448,1-1,1s-1-0.448-1-1h-1C9.448,5,9,5.448,9,6v36c0,0.552,0.448,1,1,1h1	c0-0.552,0.448-1,1-1s1,0.448,1,1h2c0-0.552,0.448-1,1-1s1,0.448,1,1h2c0-0.552,0.448-1,1-1s1,0.448,1,1h2c0-0.552,0.448-1,1-1	s1,0.448,1,1h2c0-0.552,0.448-1,1-1s1,0.448,1,1h2c0-0.552,0.448-1,1-1s1,0.448,1,1h2c0-0.552,0.448-1,1-1s1,0.448,1,1h1	c0.552,0,1-0.448,1-1V6C39,5.448,38.552,5,38,5z"/><path fill="#057093" d="M34.5,15h-21c-0.276,0-0.5-0.224-0.5-0.5v-2c0-0.276,0.224-0.5,0.5-0.5h21c0.276,0,0.5,0.224,0.5,0.5	v2C35,14.776,34.776,15,34.5,15z"/><path fill="#057093" d="M34.5,22h-2c-0.276,0-0.5-0.224-0.5-0.5v-1c0-0.276,0.224-0.5,0.5-0.5h2c0.276,0,0.5,0.224,0.5,0.5v1	C35,21.776,34.776,22,34.5,22z"/><path fill="#057093" d="M26.5,22h-13c-0.276,0-0.5-0.224-0.5-0.5v-1c0-0.276,0.224-0.5,0.5-0.5h13c0.276,0,0.5,0.224,0.5,0.5	v1C27,21.776,26.776,22,26.5,22z"/><path fill="#057093" d="M34.5,26h-2c-0.276,0-0.5-0.224-0.5-0.5v-1c0-0.276,0.224-0.5,0.5-0.5h2c0.276,0,0.5,0.224,0.5,0.5v1	C35,25.776,34.776,26,34.5,26z"/><path fill="#057093" d="M23.5,26h-10c-0.276,0-0.5-0.224-0.5-0.5v-1c0-0.276,0.224-0.5,0.5-0.5h10c0.276,0,0.5,0.224,0.5,0.5	v1C24,25.776,23.776,26,23.5,26z"/><path fill="#057093" d="M34.5,30h-2c-0.276,0-0.5-0.224-0.5-0.5v-1c0-0.276,0.224-0.5,0.5-0.5h2c0.276,0,0.5,0.224,0.5,0.5v1	C35,29.776,34.776,30,34.5,30z"/><path fill="#057093" d="M26.5,30h-13c-0.276,0-0.5-0.224-0.5-0.5v-1c0-0.276,0.224-0.5,0.5-0.5h13c0.276,0,0.5,0.224,0.5,0.5	v1C27,29.776,26.776,30,26.5,30z"/><path fill="#057093" d="M34.5,36h-4c-0.276,0-0.5-0.224-0.5-0.5v-1c0-0.276,0.224-0.5,0.5-0.5h4c0.276,0,0.5,0.224,0.5,0.5v1	C35,35.776,34.776,36,34.5,36z"/><path fill="#057093" d="M26.5,36h-9c-0.276,0-0.5-0.224-0.5-0.5v-1c0-0.276,0.224-0.5,0.5-0.5h9c0.276,0,0.5,0.224,0.5,0.5v1	C27,35.776,26.776,36,26.5,36z"/><radialGradient id="mYQ11RNgHRelBpR0hnl_na" cx="37.993" cy="38.172" r="12.047" gradientUnits="userSpaceOnUse"><stop offset="0"/><stop offset="1" stop-opacity="0"/></radialGradient><path fill="url(#mYQ11RNgHRelBpR0hnl_na)" d="M38,26c-6.627,0-12,5.373-12,12c0,1.728,0.372,3.367,1.03,4.852	C27.104,42.373,27.501,42,28,42c0.552,0,1,0.448,1,1h2c0-0.552,0.448-1,1-1s1,0.448,1,1h2c0-0.552,0.448-1,1-1s1,0.448,1,1h1	c0.552,0,1-0.448,1-1V26.05C38.669,26.023,38.338,26,38,26z"/><linearGradient id="mYQ11RNgHRelBpR0hnl_nb" x1="31.136" x2="45.056" y1="31.136" y2="45.056" gradientUnits="userSpaceOnUse"><stop offset="0" stop-color="#fede00"/><stop offset="1" stop-color="#ffd000"/></linearGradient><circle cx="38" cy="38" r="10" fill="url(#mYQ11RNgHRelBpR0hnl_nb)"/><circle cx="38" cy="38" r="8" fill="#f5be00"/><path fill="#fee119" d="M35.767,41.685v-1.49c0.541,0.331,1.117,0.497,1.728,0.497c0.46,0,0.82-0.109,1.079-0.328 c0.259-0.219,0.389-0.516,0.389-0.892c0-0.784-0.554-1.176-1.662-1.176c-0.361,0-0.797,0.033-1.309,0.099v-4.423h4.384v1.425 h-2.893v1.584c0.232-0.022,0.451-0.033,0.657-0.033c0.813,0,1.45,0.214,1.91,0.64c0.46,0.427,0.69,1.002,0.69,1.723 c0,0.798-0.274,1.451-0.823,1.957c-0.548,0.507-1.292,0.759-2.231,0.759C36.926,42.028,36.286,41.914,35.767,41.685z"/></svg>