<svg xmlns="http://www.w3.org/2000/svg" viewBox="0 0 48 48"><linearGradient id="oYRIEUhixgPHSuGUApyvoa" x1="14.881" x2="15.327" y1="11.871" y2="8.914" gradientUnits="userSpaceOnUse"><stop offset="0" stop-color="#636363"/><stop offset="1" stop-color="#444"/></linearGradient><path fill="url(#oYRIEUhixgPHSuGUApyvoa)" d="M19,11.315h-8V11c0-1.105,0.895-2,2-2h4c1.105,0,2,0.895,2,2V11.315z"/><linearGradient id="oYRIEUhixgPHSuGUApyvob" x1="34.881" x2="35.327" y1="11.871" y2="8.914" gradientUnits="userSpaceOnUse"><stop offset="0" stop-color="#636363"/><stop offset="1" stop-color="#444"/></linearGradient><path fill="url(#oYRIEUhixgPHSuGUApyvob)" d="M31,11.315h8V11c0-1.105-0.895-2-2-2h-4c-1.105,0-2,0.895-2,2V11.315z"/><linearGradient id="oYRIEUhixgPHSuGUApyvoc" x1="23.348" x2="24.428" y1="38.91" y2="17.601" gradientUnits="userSpaceOnUse"><stop offset="0" stop-color="#f44f5a"/><stop offset=".443" stop-color="#ee3d4a"/><stop offset="1" stop-color="#e52030"/></linearGradient><path fill="url(#oYRIEUhixgPHSuGUApyvoc)" d="M41,38H7c-2.209,0-4-1.791-4-4V18h42v16C45,36.209,43.209,38,41,38z"/><circle cx="32.514" cy="24.94" r="1.736" fill="none" stroke="#1d1d1b" stroke-miterlimit="10" opacity=".07"/><path fill="#1d1d1b" d="M32.514,23.204c0.959,0,1.736,0.777,1.736,1.736s-0.777,1.736-1.736,1.736 c-0.959,0-1.736-0.777-1.736-1.736S31.555,23.204,32.514,23.204 M32.514,22.204c-1.509,0-2.736,1.227-2.736,2.736 s1.227,2.736,2.736,2.736s2.736-1.227,2.736-2.736S34.023,22.204,32.514,22.204L32.514,22.204z" opacity=".05"/><circle cx="12.259" cy="22.046" r="1.157" fill="none" stroke="#1d1d1b" stroke-miterlimit="10" opacity=".07"/><path fill="#1d1d1b" d="M12.259,20.889c0.639,0,1.157,0.518,1.157,1.157s-0.518,1.157-1.157,1.157 c-0.639,0-1.157-0.518-1.157-1.157S11.62,20.889,12.259,20.889 M12.259,19.889c-1.19,0-2.157,0.968-2.157,2.157 s0.968,2.157,2.157,2.157c1.19,0,2.157-0.968,2.157-2.157S13.449,19.889,12.259,19.889L12.259,19.889z" opacity=".05"/><circle cx="29.042" cy="28.412" r="1.736" fill="none" stroke="#1d1d1b" stroke-miterlimit="10" opacity=".07"/><path fill="#1d1d1b" d="M29.042,26.676c0.959,0,1.736,0.777,1.736,1.736S30,30.148,29.042,30.148s-1.736-0.777-1.736-1.736 S28.083,26.676,29.042,26.676 M29.042,25.676c-1.509,0-2.736,1.227-2.736,2.736s1.227,2.736,2.736,2.736 c1.509,0,2.736-1.227,2.736-2.736S30.55,25.676,29.042,25.676L29.042,25.676z" opacity=".05"/><circle cx="32.514" cy="31.884" r="1.736" fill="none" stroke="#1d1d1b" stroke-miterlimit="10" opacity=".07"/><path fill="#1d1d1b" d="M32.514,30.148c0.959,0,1.736,0.777,1.736,1.736c0,0.959-0.777,1.736-1.736,1.736 c-0.959,0-1.736-0.777-1.736-1.736C30.778,30.925,31.555,30.148,32.514,30.148 M32.514,29.148c-1.509,0-2.736,1.227-2.736,2.736 c0,1.509,1.227,2.736,2.736,2.736s2.736-1.227,2.736-2.736C35.25,30.376,34.023,29.148,32.514,29.148L32.514,29.148z" opacity=".05"/><circle cx="35.986" cy="28.412" r="1.736" fill="none" stroke="#1d1d1b" stroke-miterlimit="10" opacity=".07"/><path fill="#1d1d1b" d="M35.986,26.676c0.959,0,1.736,0.777,1.736,1.736s-0.777,1.736-1.736,1.736 c-0.959,0-1.736-0.777-1.736-1.736S35.027,26.676,35.986,26.676 M35.986,25.676c-1.509,0-2.736,1.227-2.736,2.736 s1.227,2.736,2.736,2.736s2.736-1.227,2.736-2.736S37.495,25.676,35.986,25.676L35.986,25.676z" opacity=".05"/><circle cx="17.468" cy="28.412" r="4.051" fill="none" stroke="#1d1d1b" stroke-miterlimit="10" opacity=".07"/><path fill="#1d1d1b" d="M17.468,24.361c2.237,0,4.051,1.814,4.051,4.051s-1.814,4.051-4.051,4.051 c-2.237,0-4.051-1.814-4.051-4.051S15.23,24.361,17.468,24.361 M17.468,23.361c-2.785,0-5.051,2.266-5.051,5.051 s2.266,5.051,5.051,5.051s5.051-2.266,5.051-5.051S20.253,23.361,17.468,23.361L17.468,23.361z" opacity=".05"/><polygon fill="none" stroke="#1d1d1b" stroke-miterlimit="10" points="41.194,20.889 40.037,20.889 40.037,19.731 38.88,19.731 38.88,20.889 37.722,20.889 37.722,22.046 38.88,22.046 38.88,23.204 40.037,23.204 40.037,22.046 41.194,22.046" opacity=".07"/><path fill="#1d1d1b" d="M40.037,19.731v1.157h1.157v1.157h-1.157v1.157H38.88v-1.157h-1.157v-1.157h1.157v-1.157H40.037 M41.037,18.731h-1H38.88h-1v1v0.157h-0.157h-1v1v1.157v1h1h0.157v0.157v1h1h1.157h1v-1v-0.157h0.157h1v-1v-1.157v-1h-1h-0.157 v-0.157V18.731L41.037,18.731z" opacity=".05"/><linearGradient id="oYRIEUhixgPHSuGUApyvod" x1="23.679" x2="24.119" y1="24.882" y2="16.204" gradientTransform="matrix(1 0 0 -1 0 35)" gradientUnits="userSpaceOnUse"><stop offset="0" stop-color="#444"/><stop offset="1" stop-color="#636363"/></linearGradient><path fill="url(#oYRIEUhixgPHSuGUApyvod)" d="M41,11H7c-2.209,0-4,1.791-4,4v3h42v-3C45,12.791,43.209,11,41,11z"/><linearGradient id="oYRIEUhixgPHSuGUApyvoe" x1="32.288" x2="32.727" y1="548.671" y2="545.539" gradientTransform="matrix(1 0 0 -1 0 572)" gradientUnits="userSpaceOnUse"><stop offset="0" stop-color="#636363"/><stop offset="1" stop-color="#444"/></linearGradient><circle cx="32.514" cy="24.94" r="1.736" fill="url(#oYRIEUhixgPHSuGUApyvoe)"/><linearGradient id="oYRIEUhixgPHSuGUApyvof" x1="12.109" x2="12.402" y1="551.028" y2="548.94" gradientTransform="matrix(1 0 0 -1 0 572)" gradientUnits="userSpaceOnUse"><stop offset="0" stop-color="#636363"/><stop offset="1" stop-color="#444"/></linearGradient><circle cx="12.259" cy="22.046" r="1.157" fill="url(#oYRIEUhixgPHSuGUApyvof)"/><linearGradient id="oYRIEUhixgPHSuGUApyvog" x1="28.816" x2="29.255" y1="545.199" y2="542.067" gradientTransform="matrix(1 0 0 -1 0 572)" gradientUnits="userSpaceOnUse"><stop offset="0" stop-color="#636363"/><stop offset="1" stop-color="#444"/></linearGradient><circle cx="29.042" cy="28.412" r="1.736" fill="url(#oYRIEUhixgPHSuGUApyvog)"/><linearGradient id="oYRIEUhixgPHSuGUApyvoh" x1="32.288" x2="32.727" y1="541.727" y2="538.595" gradientTransform="matrix(1 0 0 -1 0 572)" gradientUnits="userSpaceOnUse"><stop offset="0" stop-color="#636363"/><stop offset="1" stop-color="#444"/></linearGradient><circle cx="32.514" cy="31.884" r="1.736" fill="url(#oYRIEUhixgPHSuGUApyvoh)"/><linearGradient id="oYRIEUhixgPHSuGUApyvoi" x1="35.76" x2="36.199" y1="545.199" y2="542.067" gradientTransform="matrix(1 0 0 -1 0 572)" gradientUnits="userSpaceOnUse"><stop offset="0" stop-color="#636363"/><stop offset="1" stop-color="#444"/></linearGradient><circle cx="35.986" cy="28.412" r="1.736" fill="url(#oYRIEUhixgPHSuGUApyvoi)"/><linearGradient id="oYRIEUhixgPHSuGUApyvoj" x1="16.875" x2="18.001" y1="547.524" y2="540.048" gradientTransform="matrix(1 0 0 -1 0 572)" gradientUnits="userSpaceOnUse"><stop offset="0" stop-color="#636363"/><stop offset="1" stop-color="#444"/></linearGradient><circle cx="17.468" cy="28.412" r="4.051" fill="url(#oYRIEUhixgPHSuGUApyvoj)"/><linearGradient id="oYRIEUhixgPHSuGUApyvok" x1="39.194" x2="39.696" y1="23.219" y2="19.892" gradientUnits="userSpaceOnUse"><stop offset="0" stop-color="#636363"/><stop offset="1" stop-color="#444"/></linearGradient><polygon fill="url(#oYRIEUhixgPHSuGUApyvok)" points="41.194,20.889 40.037,20.889 40.037,19.731 38.88,19.731 38.88,20.889 37.722,20.889 37.722,22.046 38.88,22.046 38.88,23.204 40.037,23.204 40.037,22.046 41.194,22.046"/></svg>