<svg xmlns="http://www.w3.org/2000/svg" viewBox="0 0 48 48"><linearGradient id="HotxnL0elt8mEdGUsUrRua" x1="9.913" x2="41.559" y1="10.413" y2="42.059" gradientUnits="userSpaceOnUse"><stop offset="0" stop-color="#9332bf"/><stop offset="1" stop-color="#912fbd"/></linearGradient><path fill="url(#HotxnL0elt8mEdGUsUrRua)" d="M34.5,39H24c-0.828,0-1.5-0.672-1.5-1.5V13H15v11.5c0,0.828-0.672,1.5-1.5,1.5h-10	C2.672,26,2,25.328,2,24.5S2.672,23,3.5,23H12V11.5c0-0.828,0.672-1.5,1.5-1.5H24c0.828,0,1.5,0.672,1.5,1.5V36H33V24.5	c0-0.828,0.672-1.5,1.5-1.5h10c0.828,0,1.5,0.672,1.5,1.5S45.328,26,44.5,26H36v11.5C36,38.328,35.328,39,34.5,39z"/></svg>