<svg xmlns="http://www.w3.org/2000/svg" viewBox="0 0 48 48"><linearGradient id="FrKEQ1vcqFX5vjR9VwpKBa" x1="34.582" x2="12.142" y1="41.897" y2="3.029" gradientUnits="userSpaceOnUse"><stop offset="0" stop-color="#007ad9"/><stop offset="1" stop-color="#2aa4f4"/></linearGradient><path fill="url(#FrKEQ1vcqFX5vjR9VwpKBa)" d="M46.167,17.024l-12.276-1.832l0.907-12.143c0.065-0.877-0.972-1.385-1.625-0.796L24,10.537	l-9.17-8.28c-0.654-0.591-1.694-0.081-1.628,0.798l0.906,12.137L1.836,17.023c-0.886,0.132-1.145,1.286-0.4,1.784l10.229,6.843	L5.475,36.173c-0.45,0.765,0.271,1.685,1.122,1.43l11.913-3.566l4.587,11.352c0.328,0.813,1.479,0.813,1.807,0l4.587-11.352	l11.913,3.566c0.85,0.254,1.572-0.665,1.122-1.43l-6.189-10.522l10.232-6.845C47.311,18.308,47.052,17.156,46.167,17.024z"/></svg>