<svg xmlns="http://www.w3.org/2000/svg" viewBox="0 0 48 48"><path fill="#16528c" d="M19,31c-0.552,0-1-0.447-1-1V6c0-0.553,0.448-1,1-1s1,0.447,1,1v24C20,30.553,19.552,31,19,31z"/><path fill="#16528c" d="M31,19H7c-0.552,0-1-0.447-1-1s0.448-1,1-1h24c0.552,0,1,0.447,1,1S31.552,19,31,19z"/><path fill="#16528c" d="M10.515,27.485c-0.256,0-0.512-0.098-0.707-0.293c-0.391-0.391-0.391-1.023,0-1.414L26.778,8.808 c0.391-0.391,1.023-0.391,1.414,0s0.391,1.023,0,1.414L11.222,27.192C11.026,27.388,10.771,27.485,10.515,27.485z"/><path fill="#16528c" d="M27.485,27.485c-0.256,0-0.512-0.098-0.707-0.293L9.808,10.222c-0.391-0.391-0.391-1.023,0-1.414 s1.023-0.391,1.414,0l16.971,16.971c0.391,0.391,0.391,1.023,0,1.414C27.997,27.388,27.741,27.485,27.485,27.485z"/><path fill="#0078d4" d="M19,31c-7.168,0-13-5.832-13-13S11.832,5,19,5s13,5.832,13,13S26.168,31,19,31z M19,7 C12.935,7,8,11.935,8,18s4.935,11,11,11s11-4.935,11-11S25.065,7,19,7z"/><circle cx="19" cy="18" r="3" fill="#0078d4"/><linearGradient id="OBKvvvNl2zQCtM7JT3QBXa" x1="17" x2="21" y1="6" y2="6" gradientUnits="userSpaceOnUse"><stop offset="0" stop-color="#42a3f2"/><stop offset="1" stop-color="#42a4eb"/></linearGradient><circle cx="19" cy="6" r="2" fill="url(#OBKvvvNl2zQCtM7JT3QBXa)"/><linearGradient id="OBKvvvNl2zQCtM7JT3QBXb" x1="17" x2="21" y1="30" y2="30" gradientUnits="userSpaceOnUse"><stop offset="0" stop-color="#42a3f2"/><stop offset="1" stop-color="#42a4eb"/></linearGradient><circle cx="19" cy="30" r="2" fill="url(#OBKvvvNl2zQCtM7JT3QBXb)"/><linearGradient id="OBKvvvNl2zQCtM7JT3QBXc" x1="5" x2="9" y1="18" y2="18" gradientUnits="userSpaceOnUse"><stop offset="0" stop-color="#42a3f2"/><stop offset="1" stop-color="#42a4eb"/></linearGradient><circle cx="7" cy="18" r="2" fill="url(#OBKvvvNl2zQCtM7JT3QBXc)"/><linearGradient id="OBKvvvNl2zQCtM7JT3QBXd" x1="29" x2="33" y1="18" y2="18" gradientUnits="userSpaceOnUse"><stop offset="0" stop-color="#42a3f2"/><stop offset="1" stop-color="#42a4eb"/></linearGradient><circle cx="31" cy="18" r="2" fill="url(#OBKvvvNl2zQCtM7JT3QBXd)"/><linearGradient id="OBKvvvNl2zQCtM7JT3QBXe" x1="25.485" x2="29.485" y1="9.515" y2="9.515" gradientUnits="userSpaceOnUse"><stop offset="0" stop-color="#42a3f2"/><stop offset="1" stop-color="#42a4eb"/></linearGradient><circle cx="27.485" cy="9.515" r="2" fill="url(#OBKvvvNl2zQCtM7JT3QBXe)"/><linearGradient id="OBKvvvNl2zQCtM7JT3QBXf" x1="8.515" x2="12.515" y1="26.485" y2="26.485" gradientUnits="userSpaceOnUse"><stop offset="0" stop-color="#42a3f2"/><stop offset="1" stop-color="#42a4eb"/></linearGradient><circle cx="10.515" cy="26.485" r="2" fill="url(#OBKvvvNl2zQCtM7JT3QBXf)"/><linearGradient id="OBKvvvNl2zQCtM7JT3QBXg" x1="93.485" x2="97.485" y1="77.515" y2="77.515" gradientTransform="rotate(90 87 18)" gradientUnits="userSpaceOnUse"><stop offset="0" stop-color="#42a3f2"/><stop offset="1" stop-color="#42a4eb"/></linearGradient><circle cx="27.485" cy="26.485" r="2" fill="url(#OBKvvvNl2zQCtM7JT3QBXg)"/><linearGradient id="OBKvvvNl2zQCtM7JT3QBXh" x1="76.515" x2="80.515" y1="94.485" y2="94.485" gradientTransform="rotate(90 87 18)" gradientUnits="userSpaceOnUse"><stop offset="0" stop-color="#42a3f2"/><stop offset="1" stop-color="#42a4eb"/></linearGradient><circle cx="10.515" cy="9.515" r="2" fill="url(#OBKvvvNl2zQCtM7JT3QBXh)"/><g><linearGradient id="OBKvvvNl2zQCtM7JT3QBXi" x1="41" x2="43" y1="26.5" y2="26.5" gradientUnits="userSpaceOnUse"><stop offset="0" stop-color="#7819a2"/><stop offset="1" stop-color="#771aa9"/></linearGradient><path fill="url(#OBKvvvNl2zQCtM7JT3QBXi)" d="M42,43c-0.552,0-1-0.447-1-1V11c0-0.553,0.448-1,1-1s1,0.447,1,1v31 C43,42.553,42.552,43,42,43z"/><linearGradient id="OBKvvvNl2zQCtM7JT3QBXj" x1="37" x2="39" y1="27.5" y2="27.5" gradientUnits="userSpaceOnUse"><stop offset="0" stop-color="#7819a2"/><stop offset="1" stop-color="#771aa9"/></linearGradient><path fill="url(#OBKvvvNl2zQCtM7JT3QBXj)" d="M38,43c-0.552,0-1-0.447-1-1V13c0-0.553,0.448-1,1-1s1,0.447,1,1v29 C39,42.553,38.552,43,38,43z"/><linearGradient id="OBKvvvNl2zQCtM7JT3QBXk" x1="33" x2="35" y1="30.5" y2="30.5" gradientUnits="userSpaceOnUse"><stop offset="0" stop-color="#7819a2"/><stop offset="1" stop-color="#771aa9"/></linearGradient><path fill="url(#OBKvvvNl2zQCtM7JT3QBXk)" d="M34,43c-0.552,0-1-0.447-1-1V19c0-0.553,0.448-1,1-1s1,0.447,1,1v23 C35,42.553,34.552,43,34,43z"/><linearGradient id="OBKvvvNl2zQCtM7JT3QBXl" x1="29" x2="31" y1="33.743" y2="33.743" gradientUnits="userSpaceOnUse"><stop offset="0" stop-color="#7819a2"/><stop offset="1" stop-color="#771aa9"/></linearGradient><path fill="url(#OBKvvvNl2zQCtM7JT3QBXl)" d="M30,43c-0.552,0-1-0.447-1-1V25.486c0-0.553,0.448-1,1-1s1,0.447,1,1V42 C31,42.553,30.552,43,30,43z"/><linearGradient id="OBKvvvNl2zQCtM7JT3QBXm" x1="25" x2="27" y1="35.623" y2="35.623" gradientUnits="userSpaceOnUse"><stop offset="0" stop-color="#7819a2"/><stop offset="1" stop-color="#771aa9"/></linearGradient><path fill="url(#OBKvvvNl2zQCtM7JT3QBXm)" d="M26,43c-0.552,0-1-0.447-1-1V29.246c0-0.553,0.448-1,1-1s1,0.447,1,1V42 C27,42.553,26.552,43,26,43z"/><linearGradient id="OBKvvvNl2zQCtM7JT3QBXn" x1="21" x2="23" y1="36.45" y2="36.45" gradientUnits="userSpaceOnUse"><stop offset="0" stop-color="#7819a2"/><stop offset="1" stop-color="#771aa9"/></linearGradient><path fill="url(#OBKvvvNl2zQCtM7JT3QBXn)" d="M22,43c-0.552,0-1-0.447-1-1V30.9c0-0.553,0.448-1,1-1s1,0.447,1,1V42 C23,42.553,22.552,43,22,43z"/><linearGradient id="OBKvvvNl2zQCtM7JT3QBXo" x1="13" x2="15" y1="36.194" y2="36.194" gradientUnits="userSpaceOnUse"><stop offset="0" stop-color="#7819a2"/><stop offset="1" stop-color="#771aa9"/></linearGradient><path fill="url(#OBKvvvNl2zQCtM7JT3QBXo)" d="M14,43c-0.552,0-1-0.447-1-1V30.389c0-0.553,0.448-1,1-1s1,0.447,1,1V42 C15,42.553,14.552,43,14,43z"/><linearGradient id="OBKvvvNl2zQCtM7JT3QBXp" x1="9" x2="11" y1="35.202" y2="35.202" gradientUnits="userSpaceOnUse"><stop offset="0" stop-color="#7819a2"/><stop offset="1" stop-color="#771aa9"/></linearGradient><path fill="url(#OBKvvvNl2zQCtM7JT3QBXp)" d="M10,43c-0.552,0-1-0.447-1-1V28.403c0-0.553,0.448-1,1-1s1,0.447,1,1V42 C11,42.553,10.552,43,10,43z"/><linearGradient id="OBKvvvNl2zQCtM7JT3QBXq" x1="5" x2="7" y1="33.036" y2="33.036" gradientUnits="userSpaceOnUse"><stop offset="0" stop-color="#7819a2"/><stop offset="1" stop-color="#771aa9"/></linearGradient><path fill="url(#OBKvvvNl2zQCtM7JT3QBXq)" d="M6,43c-0.552,0-1-0.447-1-1V24.072c0-0.553,0.448-1,1-1s1,0.447,1,1V42 C7,42.553,6.552,43,6,43z"/><linearGradient id="OBKvvvNl2zQCtM7JT3QBXr" x1="17" x2="19" y1="36.601" y2="36.601" gradientUnits="userSpaceOnUse"><stop offset="0" stop-color="#7819a2"/><stop offset="1" stop-color="#771aa9"/></linearGradient><path fill="url(#OBKvvvNl2zQCtM7JT3QBXr)" d="M18,43c-0.552,0-1-0.447-1-1V31.201c0-0.553,0.448-1,1-1s1,0.447,1,1V42 C19,42.553,18.552,43,18,43z"/><path fill="#ac4ad5" d="M19,32c-9.897,0-13.732-7.268-13.89-7.576c-0.251-0.492-0.057-1.095,0.435-1.346 c0.489-0.253,1.092-0.06,1.344,0.432l0,0C7.026,23.774,10.362,30,19,30c7.83,0,10.901-5.773,13.871-11.356 C35.235,14.198,37.468,10,42,10c0.552,0,1,0.447,1,1s-0.448,1-1,1c-3.33,0-5.199,3.514-7.363,7.582C31.694,25.115,28.031,32,19,32z"/><line x1="6" x2="42" y1="42" y2="42" fill="none" stroke="#ac4ad5" stroke-linecap="round" stroke-linejoin="round" stroke-miterlimit="10" stroke-width="2"/></g><path fill="#cf1928" d="M43,35H19v7c0,0.552,0.448,1,1,1h22c0.552,0,1-0.448,1-1V35z"/><path fill="#d9414f" d="M43,35l-11.126-4.643c-0.548-0.229-1.164-0.229-1.712-0.001L19,35H43z"/><linearGradient id="OBKvvvNl2zQCtM7JT3QBXs" x1="31" x2="31" y1="36.238" y2="43.051" gradientUnits="userSpaceOnUse"><stop offset="0" stop-color="#570005"/><stop offset=".318" stop-color="#62040a"/><stop offset=".875" stop-color="#7f0f16"/><stop offset="1" stop-color="#871219"/></linearGradient><polygon fill="url(#OBKvvvNl2zQCtM7JT3QBXs)" points="27,43 30.978,36 35,43"/><path fill="#eb6773" d="M36.326,38.664L30.978,36L35,43l1.663-3.326C36.849,39.302,36.698,38.85,36.326,38.664z"/></svg>