<svg xmlns="http://www.w3.org/2000/svg" viewBox="0 0 48 48"><linearGradient id="g5dniRY~PPjSqIO9PSW_ia" x1="24" x2="24" y1="8.979" y2="6.308" gradientUnits="userSpaceOnUse"><stop offset="0" stop-color="#b33f20"/><stop offset=".129" stop-color="#c74724"/><stop offset=".295" stop-color="#d94f29"/><stop offset=".469" stop-color="#e4532b"/><stop offset=".659" stop-color="#e8552c"/></linearGradient><path fill="url(#g5dniRY~PPjSqIO9PSW_ia)" d="M28.5,6h-9C18.672,6,18,6.672,18,7.5V9h12V7.5C30,6.672,29.328,6,28.5,6z"/><radialGradient id="g5dniRY~PPjSqIO9PSW_ib" cx="23.832" cy="5.992" r="45.74" gradientTransform="matrix(1 0 0 .8044 0 1.172)" gradientUnits="userSpaceOnUse"><stop offset="0" stop-color="#40150b"/><stop offset=".156" stop-color="#622110"/><stop offset=".417" stop-color="#953218"/><stop offset=".645" stop-color="#ba3f1e"/><stop offset=".828" stop-color="#d14722"/><stop offset=".944" stop-color="#d94a23"/></radialGradient><path fill="url(#g5dniRY~PPjSqIO9PSW_ib)" d="M42,41H6c-1.1,0-2-0.9-2-2V13c0-2.2,1.8-4,4-4h32c2.2,0,4,1.8,4,4v26C44,40.1,43.1,41,42,41z"/><linearGradient id="g5dniRY~PPjSqIO9PSW_ic" x1="24" x2="24" y1="9.028" y2="26.927" gradientUnits="userSpaceOnUse"><stop offset="0" stop-color="#fc7d5b"/><stop offset=".06" stop-color="#f8734f"/><stop offset=".18" stop-color="#f3653d"/><stop offset=".326" stop-color="#f05b31"/><stop offset=".523" stop-color="#ee552a"/><stop offset="1" stop-color="#ed5328"/></linearGradient><path fill="url(#g5dniRY~PPjSqIO9PSW_ic)" d="M42.297,25.255L24,28L5.703,25.255C4.724,25.109,4,24.268,4,23.278V13c0-2.2,1.8-4,4-4h32	c2.2,0,4,1.8,4,4v10.278C44,24.268,43.276,25.109,42.297,25.255z"/><path fill="#f6eca5" d="M25.5,21h-3c-0.276,0-0.5,0.224-0.5,0.5v3c0,0.276,0.224,0.5,0.5,0.5h3c0.276,0,0.5-0.224,0.5-0.5v-3	C26,21.224,25.776,21,25.5,21z"/></svg>