<svg xmlns="http://www.w3.org/2000/svg" viewBox="0 0 48 48"><polygon fill="#c98e00" points="26.211,41.683 40.68,33.693 38.54,29.191 26,35"/><circle cx="39.5" cy="31.5" r="2.5" fill="#c98e00"/><linearGradient id="Z4XsAL04sZ5X4GZ78F3EPa" x1="3" x2="45" y1="493" y2="493" gradientTransform="matrix(1 0 0 -1 0 526)" gradientUnits="userSpaceOnUse"><stop offset="0" stop-color="#ffcf54"/><stop offset=".261" stop-color="#fdcb4d"/><stop offset=".639" stop-color="#f7c13a"/><stop offset="1" stop-color="#f0b421"/></linearGradient><path fill="url(#Z4XsAL04sZ5X4GZ78F3EPa)" d="M45,32.5c0-1.381-1.119-2.5-2.5-2.5c-0.34,0-0.664,0.069-0.959,0.192l-0.001-0.001	l-0.011,0.005c-0.002,0.001-0.004,0.002-0.006,0.003L29,36l-1.5-1c1.381,0,2.5-1.119,2.5-2.5c0-0.93-0.514-1.732-1.267-2.163	l0.004-0.016l-13.651-6.866h-0.025C14.431,23.169,13.737,23,13,23c-0.718,0-1.397,0.157-2.015,0.43h-0.022L3,27v13l8.09-3.718	l15.911,6.508h0.001C27.309,42.924,27.645,43,28,43c0.435,0,0.838-0.121,1.195-0.317l0.017-0.001l14.469-7.989l-0.001-0.002	C44.462,34.269,45,33.452,45,32.5z"/><circle cx="27.5" cy="32.5" r="1.5" fill="#ffde87"/><linearGradient id="Z4XsAL04sZ5X4GZ78F3EPb" x1="22.337" x2="24.123" y1="489.632" y2="492.712" gradientTransform="matrix(1 0 0 -1 0 526)" gradientUnits="userSpaceOnUse"><stop offset="0" stop-color="#f0b421" stop-opacity="0"/><stop offset=".512" stop-color="#e9ab12" stop-opacity=".512"/><stop offset="1" stop-color="#e09f00"/></linearGradient><path fill="url(#Z4XsAL04sZ5X4GZ78F3EPb)" d="M29,36l-1.489-0.998c-1.255-0.06-2.242-0.468-10.511-3.513V35l11.551,4.734	C28.551,39.734,27.733,37.451,29,36z"/><linearGradient id="Z4XsAL04sZ5X4GZ78F3EPc" x1="31.326" x2="32.164" y1="17.146" y2="25.108" gradientUnits="userSpaceOnUse"><stop offset="0" stop-color="#0370c8"/><stop offset=".484" stop-color="#036fc5"/><stop offset=".775" stop-color="#036abd"/><stop offset="1" stop-color="#0362b0"/></linearGradient><path fill="url(#Z4XsAL04sZ5X4GZ78F3EPc)" d="M32,17.446c-4.971,0-9,2.768-9,5.786V24c0,0.552,0.448,1,1,1h16c0.552,0,1-0.448,1-1v-0.768	C41,20.214,36.971,17.446,32,17.446z"/><path fill="#d6a121" d="M35,18.6c0,1.138-1.698,2.4-3,2.4s-3-1.262-3-2.4c0-1.582,0-4.221,0-4.221h6	C35,14.379,35,17.018,35,18.6z"/><linearGradient id="Z4XsAL04sZ5X4GZ78F3EPd" x1="36.728" x2="37.964" y1="12.5" y2="12.5" gradientUnits="userSpaceOnUse"><stop offset="0" stop-color="#c48f0c"/><stop offset=".251" stop-color="#d19b16"/><stop offset=".619" stop-color="#dca51f"/><stop offset="1" stop-color="#e0a922"/></linearGradient><path fill="url(#Z4XsAL04sZ5X4GZ78F3EPd)" d="M37.05,11h-0.316v3h0.422c0.309,0,0.573-0.234,0.624-0.555l0.207-1.277	C38.085,11.557,37.638,11,37.05,11z"/><linearGradient id="Z4XsAL04sZ5X4GZ78F3EPe" x1="27.286" x2="26.032" y1="12.5" y2="12.5" gradientUnits="userSpaceOnUse"><stop offset="0" stop-color="#c48f0c"/><stop offset=".251" stop-color="#d19b16"/><stop offset=".619" stop-color="#dca51f"/><stop offset="1" stop-color="#e0a922"/></linearGradient><path fill="url(#Z4XsAL04sZ5X4GZ78F3EPe)" d="M26.95,11h0.316v3h-0.422c-0.309,0-0.573-0.234-0.624-0.555l-0.207-1.277	C25.915,11.557,26.362,11,26.95,11z"/><radialGradient id="Z4XsAL04sZ5X4GZ78F3EPf" cx="-48.981" cy="-49.327" r="7.64" gradientTransform="translate(70.385 50.323) scale(.7837)" gradientUnits="userSpaceOnUse"><stop offset="0" stop-color="#ffcf54"/><stop offset=".261" stop-color="#fdcb4d"/><stop offset=".639" stop-color="#f7c13a"/><stop offset="1" stop-color="#f0b421"/></radialGradient><path fill="url(#Z4XsAL04sZ5X4GZ78F3EPf)" d="M32,4.833c-2.467,0-5,0.375-5,5.708c0,0.427,0,3.265,0,3.721c0,1.904,3,4.237,5,4.237	s5-2.333,5-4.237c0-0.456,0-3.294,0-3.721C37,5.208,34.467,4.833,32,4.833z"/><radialGradient id="Z4XsAL04sZ5X4GZ78F3EPg" cx="-32.952" cy="-17.213" r="18.003" gradientTransform="translate(59.184 19.175) scale(.8816)" gradientUnits="userSpaceOnUse"><stop offset="0" stop-color="#c26715"/><stop offset=".508" stop-color="#b85515"/><stop offset="1" stop-color="#ad3f16"/></radialGradient><path fill="url(#Z4XsAL04sZ5X4GZ78F3EPg)" d="M32,3.4c-2.612,0-3,0.982-3,0.982c-0.779-0.01-3,0.817-3,3.818c0,0.992,0.288,3.468,1,4.8	c0-6.759,1.867-6.2,5-6.2s5-0.69,5,6.2c0.772-1.384,1-3.933,1-4.8C38,5.172,35.725,3.4,32,3.4z"/><radialGradient id="Z4XsAL04sZ5X4GZ78F3EPh" cx="-56.529" cy="-15.799" r="19.756" gradientTransform="matrix(.8431 0 0 .8816 78.734 19.175)" gradientUnits="userSpaceOnUse"><stop offset="0" stop-color="#c26715"/><stop offset=".508" stop-color="#b85515"/><stop offset="1" stop-color="#ad3f16"/></radialGradient><path fill="url(#Z4XsAL04sZ5X4GZ78F3EPh)" d="M31.333,3C28.672,3,29,5,29,5c0,1.333,0.921,2,2.667,2C33.705,7,36,6.395,36,3	C36,3,35.952,3,31.333,3z"/></svg>