<svg xmlns="http://www.w3.org/2000/svg" viewBox="0 0 48 48"><path fill="#e9ebed" d="M25,40v-8h-2v8H7c-0.552,0-1,0.448-1,1l0,0c0,0.552,0.448,1,1,1h34c0.552,0,1-0.448,1-1l0,0	c0-0.552-0.448-1-1-1H25z"/><linearGradient id="~lobrq1novCxWgvyyrYYXa" x1="24.001" x2="24.001" y1="564.04" y2="545.214" gradientTransform="translate(0 -541.78)" gradientUnits="userSpaceOnUse"><stop offset="0" stop-color="#737b80"/><stop offset=".473" stop-color="#686f74"/><stop offset="1" stop-color="#575c61"/></linearGradient><path fill="url(#~lobrq1novCxWgvyyrYYXa)" d="M41.829,24.015L38.674,9.169C38.281,7.321,36.65,6,34.761,6H13.242	c-1.89,0-3.523,1.323-3.914,3.173L6.173,24.014L24,24L41.829,24.015z"/><linearGradient id="~lobrq1novCxWgvyyrYYXb" x1="-1296" x2="-1296" y1="564.156" y2="578.794" gradientTransform="matrix(-1 0 0 1 -1272 -541.78)" gradientUnits="userSpaceOnUse"><stop offset="0" stop-color="#899198"/><stop offset="1" stop-color="#787e85"/></linearGradient><path fill="url(#~lobrq1novCxWgvyyrYYXb)" d="M9,33h30c1.65,0,3-1.35,3-3v-5c0-1.65-1.35-3-3-3H9c-1.65,0-3,1.35-3,3v5	C6,31.65,7.35,33,9,33z"/><linearGradient id="~lobrq1novCxWgvyyrYYXc" x1="37.773" x2="34.17" y1="571.053" y2="567.45" gradientTransform="translate(0 -541.78)" gradientUnits="userSpaceOnUse"><stop offset="0" stop-color="#fff"/><stop offset=".242" stop-color="#f2f2f2"/><stop offset="1" stop-color="#ccc"/></linearGradient><path fill="url(#~lobrq1novCxWgvyyrYYXc)" d="M38.5,27.5c0,1.38-1.12,2.5-2.5,2.5s-2.5-1.12-2.5-2.5S34.62,25,36,25S38.5,26.12,38.5,27.5z"/><linearGradient id="~lobrq1novCxWgvyyrYYXd" x1="34.94" x2="37.06" y1="568.22" y2="570.341" gradientTransform="translate(0 -541.78)" gradientUnits="userSpaceOnUse"><stop offset="0" stop-color="#21ad64"/><stop offset="1" stop-color="#088242"/></linearGradient><path fill="url(#~lobrq1novCxWgvyyrYYXd)" d="M37.5,27.5c0,0.828-0.672,1.5-1.5,1.5s-1.5-0.672-1.5-1.5S35.172,26,36,26	S37.5,26.672,37.5,27.5z"/><path fill="#737b80" d="M11,26h18c0.552,0,1,0.448,1,1v1c0,0.552-0.448,1-1,1H11c-0.552,0-1-0.448-1-1v-1	C10,26.448,10.448,26,11,26z"/><path d="M29,18c-1.299,0-2-1.03-2-2v-1c0-0.551-0.448-1-1-1h-4	c-0.552,0-1,0.449-1,1v1c0,0.97-0.701,2-2,2h-5c-1.299,0-2-1.03-2-2c0-4.252,3.818-7,9.727-7h4.546C32.182,9,36,11.748,36,16	c0,0.97-0.701,2-2,2H29z" opacity=".05"/><path d="M29,17.5c-1.101,0-1.5-0.897-1.5-1.5v-1c0-0.827-0.673-1.5-1.5-1.5h-4	c-0.827,0-1.5,0.673-1.5,1.5v1c0,0.603-0.399,1.5-1.5,1.5h-5c-1.101,0-1.5-0.897-1.5-1.5c0-3.949,3.622-6.5,9.227-6.5h4.546	c5.605,0,9.228,2.551,9.228,6.5c0,0.603-0.399,1.5-1.5,1.5H29z" opacity=".07"/><path fill="#eef0f1" d="M26.272,10h-4.545C16.907,10,13,12,13,16c0,0,0,1,1,1s4,0,5,0s1-1,1-1v-1c0-1.104,0.896-2,2-2h4	c1.104,0,2,0.896,2,2v1c0,0,0,1,1,1s4,0,5,0s1-1,1-1C35,12,31.093,10,26.272,10z"/><path fill="#21a366" d="M29,39h-3v-2c0-0.552-0.448-1-1-1h-2c-0.552,0-1,0.448-1,1v2h-3c-0.552,0-1,0.448-1,1v2	c0,0.552,0.448,1,1,1h10c0.552,0,1-0.448,1-1v-2C30,39.448,29.552,39,29,39z"/></svg>