<svg xmlns="http://www.w3.org/2000/svg" viewBox="0 0 48 48"><linearGradient id="lPXZoucM7S~WDKOeVz7_oa" x1="5.662" x2="41.927" y1="-608.546" y2="-601.172" gradientTransform="translate(0 614)" gradientUnits="userSpaceOnUse"><stop offset="0" stop-color="#464eb0"/><stop offset="1" stop-color="#343b9e"/></linearGradient><path fill="url(#lPXZoucM7S~WDKOeVz7_oa)" d="M43,8v4H5V8c0-1.1,0.9-2,2-2h34C42.1,6,43,6.9,43,8z"/><circle cx="36" cy="9" r="1" fill="#6d75cf"/><circle cx="40" cy="9" r="1" fill="#6d75cf"/><path fill="#50e6ff" d="M5,19h38v20H5V19z"/><path fill="#35c1f1" d="M5,39h38v1c0,1.105-0.895,2-2,2H7c-1.105,0-2-0.895-2-2V39z"/><path fill="#353c9f" d="M42,18H6l-3,3v1c0,1.105,0.895,2,2,2h38c1.105,0,2-0.895,2-2v-1L42,18z"/><polygon fill="#6d75cf" points="43,12 5,12 3,21 45,21"/><linearGradient id="lPXZoucM7S~WDKOeVz7_ob" x1="35.502" x2="43.968" y1="493.959" y2="480.921" gradientTransform="matrix(1 0 0 -1 0 526)" gradientUnits="userSpaceOnUse"><stop offset="0" stop-color="#f44f5a"/><stop offset=".443" stop-color="#ee3d4a"/><stop offset="1" stop-color="#e52030"/></linearGradient><path fill="url(#lPXZoucM7S~WDKOeVz7_ob)" d="M39,35.319c0,0,2.015-2.319,4.5-2.319s4.5,2.105,4.5,4.637c0,1.57-1.5,3.091-1.5,3.091	l-6.741,6.947c-0.419,0.432-1.099,0.432-1.518,0l-6.74-6.947c0,0-1.5-1.522-1.5-3.091C30,35.105,32.015,33,34.5,33	S39,35.319,39,35.319z"/></svg>