<svg xmlns="http://www.w3.org/2000/svg" viewBox="0 0 48 48"><linearGradient id="q5UFvfYp3a4M6W~qoNxAxa" x1="10.969" x2="31.908" y1="40.183" y2="-.55" gradientTransform="matrix(1 0 0 -1 0 47.89)" gradientUnits="userSpaceOnUse"><stop offset="0" stop-color="#a1a7b0"/><stop offset="1" stop-color="#8f959b"/></linearGradient><path fill="url(#q5UFvfYp3a4M6W~qoNxAxa)" d="M39.814,38.994c0,0.101-0.044,0.193-0.107,0.257c-1.253,1.441-6.48,6.785-15.708,6.785	S9.546,40.692,8.292,39.251c-0.062-0.064-0.107-0.156-0.107-0.257c0-0.184,0.08-0.34,0.302-0.34c0.124,0,0.258,0.092,0.373,0.184	c5.383,4.143,12.833,6.946,14.928,3.889c0.099-0.144,0.322-0.144,0.421,0c2.095,3.057,9.545,0.254,14.928-3.889	c0.116-0.092,0.249-0.184,0.373-0.184C39.734,38.654,39.814,38.81,39.814,38.994z M8.03,27.662C7.971,27.511,8,27.34,8.105,27.217	c0.106-0.123,0.271-0.179,0.43-0.146c4.988,1.033,5.937-1.252,7.379-4.706C15.67,23.29,23.555,2.31,23.584,2.259	c0.131-0.345,0.702-0.345,0.832,0c0.043,0.096,7.89,20.95,7.671,20.105c1.442,3.453,2.393,5.738,7.379,4.706	c0.157-0.033,0.325,0.023,0.43,0.146s0.133,0.294,0.075,0.445c-0.501,1.275-1.544,3.93-0.237,7.226	c0.066,0.165,0.026,0.353-0.103,0.477c-0.13,0.125-0.319,0.16-0.485,0.09c-0.198-0.083-0.467-0.13-0.756-0.13	c-0.81,0-1.623,0.323-2.07,0.823c-1.045,1.165-4.862,4.346-9.921,5.056c-0.124,0.017-0.248-0.018-0.345-0.095	c-0.096-0.078-0.155-0.192-0.162-0.316c-0.014-0.234-0.014-0.309-0.015-0.597c0-0.179,0.109-0.408,0.277-0.476	c3.201-1.299,5.751-5.338,4.29-9.057c-0.742-1.7-4.655-11.968-6.444-16.653c-1.787,4.684-5.706,14.96-6.451,16.672	c-1.449,3.691,1.134,7.737,4.365,9.049c0.163,0.066,0.271,0.221,0.277,0.395c0.004,0.125-0.003,0.396-0.014,0.672	c-0.006,0.123-0.064,0.24-0.161,0.32c-0.08,0.066-0.18,0.101-0.284,0.101c-0.02,0-0.042-0.002-0.062-0.004	c-5.115-0.718-8.944-3.899-9.988-5.064c-0.447-0.501-1.26-0.823-2.07-0.823c-0.29,0-0.557,0.046-0.756,0.13	c-0.166,0.07-0.355,0.035-0.485-0.09c-0.128-0.123-0.169-0.311-0.103-0.477C9.574,31.592,8.532,28.938,8.03,27.662z"/></svg>