<svg xmlns="http://www.w3.org/2000/svg" xmlns:xlink="http://www.w3.org/1999/xlink" data-name="Слой 1" viewBox="0 0 48 48"><defs><linearGradient id="0KOD8IiyCJOeWi77M119Hb" x1="23.878" x2="23.878" y1="-1.13" y2="33.037" data-name="Безымянный градиент 5" gradientUnits="userSpaceOnUse"><stop offset="0" stop-color="#3079d6"/><stop offset="1" stop-color="#297cd2"/></linearGradient><linearGradient id="0KOD8IiyCJOeWi77M119Ha" x1="34.003" x2="34.003" y1="3.989" y2="26.958" data-name="Новый образец градиентной зал 3" gradientUnits="userSpaceOnUse"><stop offset="0" stop-color="#32bdef"/><stop offset="1" stop-color="#1ea2e4"/></linearGradient><linearGradient id="0KOD8IiyCJOeWi77M119Hc" x1="38.503" x2="38.503" y1="3.989" y2="26.958" xlink:href="#0KOD8IiyCJOeWi77M119Ha"/><linearGradient id="0KOD8IiyCJOeWi77M119Hd" x1="12.003" x2="21.003" y1="36" y2="36" xlink:href="#0KOD8IiyCJOeWi77M119Hb"/></defs><rect width="29.25" height="15" x="9.253" y="8" fill="url(#0KOD8IiyCJOeWi77M119Hb)"/><path fill="url(#0KOD8IiyCJOeWi77M119Ha)" d="M24.00256,22h20a0,0,0,0,1,0,0V41a1,1,0,0,1-1,1h-18a1,1,0,0,1-1-1V22A0,0,0,0,1,24.00256,22Z"/><path fill="url(#0KOD8IiyCJOeWi77M119Hc)" d="M46.017,21.55846,39.39459,8.5456a1.002,1.002,0,0,0-1.78406,0L30.98815,21.55846a.9958.9958,0,0,0,.89209,1.44557H45.12487A.99579.99579,0,0,0,46.017,21.55846Z"/><path fill="#50e6ff" d="M22.82913,8.58446,16.5574,21.5691a1,1,0,0,0,.90046,1.43493H30.00132a1,1,0,0,0,.90046-1.43493L24.63005,8.58446A1,1,0,0,0,22.82913,8.58446Z"/><path fill="#50e6ff" d="M8.46737,8.58446,2.19565,21.5691A1,1,0,0,0,3.09611,23.004H15.63956A1,1,0,0,0,16.54,21.5691L10.2683,8.58446A1,1,0,0,0,8.46737,8.58446Z"/><path fill="#50e6ff" d="M4.00256,22h25a0,0,0,0,1,0,0V41a1,1,0,0,1-1,1h-23a1,1,0,0,1-1-1V22A0,0,0,0,1,4.00256,22Z"/><path fill="url(#0KOD8IiyCJOeWi77M119Hd)" d="M14.00256,30h5a2,2,0,0,1,2,2V42a0,0,0,0,1,0,0h-9a0,0,0,0,1,0,0V32A2,2,0,0,1,14.00256,30Z"/></svg>