<svg xmlns="http://www.w3.org/2000/svg" viewBox="0 0 48 48"><linearGradient id="M0KIpv9F9DO9XPHmZgcmna" x1="10.302" x2="32.533" y1="49.653" y2="7.841" gradientTransform="matrix(1 0 0 -1 0 47.89)" gradientUnits="userSpaceOnUse"><stop offset="0" stop-color="#fcfcfc"/><stop offset=".95" stop-color="#c3c9cd"/></linearGradient><path fill="url(#M0KIpv9F9DO9XPHmZgcmna)" d="M44,24c0,11.045-8.955,20-20,20S4,35.045,4,24S12.955,4,24,4S44,12.955,44,24z"/><radialGradient id="M0KIpv9F9DO9XPHmZgcmnb" cx="34" cy="23.89" r="4" gradientTransform="matrix(1 0 0 -1 0 47.89)" gradientUnits="userSpaceOnUse"><stop offset=".696" stop-opacity=".2"/><stop offset=".959" stop-opacity="0"/></radialGradient><circle cx="34" cy="24" r="4" fill="url(#M0KIpv9F9DO9XPHmZgcmnb)"/><radialGradient id="M0KIpv9F9DO9XPHmZgcmnc" cx="24" cy="23.89" r="4" gradientTransform="matrix(1 0 0 -1 0 47.89)" gradientUnits="userSpaceOnUse"><stop offset=".696" stop-opacity=".2"/><stop offset=".959" stop-opacity="0"/></radialGradient><circle cx="24" cy="24" r="4" fill="url(#M0KIpv9F9DO9XPHmZgcmnc)"/><radialGradient id="M0KIpv9F9DO9XPHmZgcmnd" cx="14" cy="23.89" r="4" gradientTransform="matrix(1 0 0 -1 0 47.89)" gradientUnits="userSpaceOnUse"><stop offset=".696" stop-opacity=".2"/><stop offset=".959" stop-opacity="0"/></radialGradient><circle cx="14" cy="24" r="4" fill="url(#M0KIpv9F9DO9XPHmZgcmnd)"/><linearGradient id="M0KIpv9F9DO9XPHmZgcmne" x1="22.496" x2="25.029" y1="26.72" y2="21.954" gradientTransform="matrix(1 0 0 -1 0 47.89)" gradientUnits="userSpaceOnUse"><stop offset="0" stop-color="#737b80"/><stop offset=".473" stop-color="#686f74"/><stop offset="1" stop-color="#575c61"/></linearGradient><circle cx="24" cy="24" r="3" fill="url(#M0KIpv9F9DO9XPHmZgcmne)"/><linearGradient id="M0KIpv9F9DO9XPHmZgcmnf" x1="32.496" x2="35.029" y1="26.72" y2="21.954" gradientTransform="matrix(1 0 0 -1 0 47.89)" gradientUnits="userSpaceOnUse"><stop offset="0" stop-color="#737b80"/><stop offset=".473" stop-color="#686f74"/><stop offset="1" stop-color="#575c61"/></linearGradient><circle cx="34" cy="24" r="3" fill="url(#M0KIpv9F9DO9XPHmZgcmnf)"/><linearGradient id="M0KIpv9F9DO9XPHmZgcmng" x1="12.496" x2="15.03" y1="26.72" y2="21.954" gradientTransform="matrix(1 0 0 -1 0 47.89)" gradientUnits="userSpaceOnUse"><stop offset="0" stop-color="#737b80"/><stop offset=".473" stop-color="#686f74"/><stop offset="1" stop-color="#575c61"/></linearGradient><circle cx="14" cy="24" r="3" fill="url(#M0KIpv9F9DO9XPHmZgcmng)"/></svg>