<svg xmlns="http://www.w3.org/2000/svg" viewBox="0 0 48 48"><linearGradient id="D2eu12n8F2iwe_Ams9pDJa" x1="31.253" x2="32.795" y1="12.058" y2="27.862" gradientUnits="userSpaceOnUse"><stop offset=".488" stop-color="#c16e14"/><stop offset=".511" stop-color="#ba6a13"/><stop offset=".745" stop-color="#744109"/><stop offset=".914" stop-color="#492802"/><stop offset="1" stop-color="#381e00"/></linearGradient><path fill="url(#D2eu12n8F2iwe_Ams9pDJa)" d="M39,25H20V12l7.895-7.105c1.226-1.104,3.059-1.195,4.389-0.22l10.705,7.85	c1.107,0.812,1.339,2.372,0.515,3.47L42,18L39,25z"/><linearGradient id="D2eu12n8F2iwe_Ams9pDJb" x1="14.003" x2="34.467" y1="21.629" y2="44.326" gradientUnits="userSpaceOnUse"><stop offset="0" stop-color="#ffcf54"/><stop offset=".261" stop-color="#fdcb4d"/><stop offset=".639" stop-color="#f7c13a"/><stop offset="1" stop-color="#f0b421"/></linearGradient><path fill="url(#D2eu12n8F2iwe_Ams9pDJb)" d="M39,29.5c0-0.981-0.406-1.865-1.056-2.5C38.594,26.365,39,25.481,39,24.5 c0-1.933-1.567-3.5-3.5-3.5H22.284c0,0-0.746-4-6.015-4C13.89,17,11.947,19.053,5,26v8c0,5.523,4.477,10,10,10h20 c1.657,0,3-1.343,3-3c0-0.929-0.431-1.749-1.094-2.299C38.138,38.159,39,36.932,39,35.5c0-1.281-0.696-2.39-1.723-3 C38.304,31.89,39,30.781,39,29.5z"/><path fill="#c16e14" d="M23,9.431l-4.206,3.605C17.021,14.556,16,16.775,16,19.11V33h2c2.761,0,5-2.239,5-5V9.431z"/></svg>