<svg xmlns="http://www.w3.org/2000/svg" viewBox="0 0 48 48"><linearGradient id="wxNN0_6VP7Z6WovNyHW9Aa" x1="16.357" x2="37.894" y1="-20.683" y2="-55.724" gradientTransform="matrix(1 0 0 -1 0 -18)" gradientUnits="userSpaceOnUse"><stop offset="0" stop-color="#0176d0"/><stop offset="1" stop-color="#16538c"/></linearGradient><path fill="url(#wxNN0_6VP7Z6WovNyHW9Aa)" d="M44.1,6H9.9C8.85,6,8,6.835,8,7.867v24.267C8,33.165,8.85,34,9.9,34h34.2	c1.05,0,1.9-0.835,1.9-1.867V7.867C46,6.835,45.15,6,44.1,6z"/><path d="M44,34V10.948C44,9.322,42.677,8,41.051,8H8v26H44z" opacity=".05"/><path d="M43.5,34V10.948c0-1.35-1.099-2.448-2.449-2.448H8V34H43.5z" opacity=".07"/><linearGradient id="wxNN0_6VP7Z6WovNyHW9Ab" x1="12.522" x2="34.736" y1="-23.639" y2="-59.781" gradientTransform="matrix(1 0 0 -1 0 -18)" gradientUnits="userSpaceOnUse"><stop offset="0" stop-color="#33bef0"/><stop offset="1" stop-color="#0a85d9"/></linearGradient><path fill="url(#wxNN0_6VP7Z6WovNyHW9Ab)" d="M41.051,9H5.949C4.872,9,4,9.872,4,10.949v25.103C4,37.128,4.872,38,5.949,38H14v7.713	c0,0.868,1.049,1.303,1.663,0.689L24.065,38h16.986C42.128,38,43,37.128,43,36.051V10.949C43,9.872,42.128,9,41.051,9z"/></svg>