<svg xmlns="http://www.w3.org/2000/svg" viewBox="0 0 48 48"><linearGradient id="oT49dJFhno3pPIB2Apj4na" x1="10.273" x2="38.112" y1="-300.272" y2="-328.113" gradientTransform="matrix(1 0 0 -1 0 -290)" gradientUnits="userSpaceOnUse"><stop offset="0" stop-color="#fede00"/><stop offset="1" stop-color="#ffd000"/></linearGradient><circle cx="24" cy="24" r="20" fill="url(#oT49dJFhno3pPIB2Apj4na)"/><circle cx="24" cy="24" r="17" fill="#f5be00"/><path fill="#fee119" d="M29.25,27.352c0-5.141-7.59-4.137-7.59-7.174c0-1.585,1.783-1.669,2.34-1.669	c1.34,0,2.633,0.359,3.619,0.822c0.311,0.146,0.668-0.07,0.668-0.413v-1.496c0-0.502-0.189-0.799-0.49-0.917	c-0.676-0.262-1.646-0.455-3.082-0.502v-1.646c0-0.197-0.16-0.357-0.357-0.357h-0.714c-0.197,0-0.357,0.16-0.357,0.357v1.673	c-2.228,0.216-4.537,1.473-4.537,4.396c0,5.329,7.59,4.272,7.59,7.079c0,0.882-0.564,1.642-2.34,1.642	c-1.786,0-3.427-0.624-4.335-1.088c-0.306-0.156-0.666,0.07-0.666,0.414v1.703c0,0.327,0.196,0.617,0.498,0.744	c1.076,0.457,2.52,0.803,3.789,0.904v1.82c0,0.197,0.16,0.357,0.357,0.357h0.714c0.197,0,0.357-0.16,0.357-0.357v-1.815	C28.045,31.551,29.25,29.32,29.25,27.352z"/></svg>