<svg xmlns="http://www.w3.org/2000/svg" viewBox="0 0 48 48"><linearGradient id="oIx15wqbkFecBaUf5oWVMa" x1="21.104" x2="39.047" y1="16.026" y2="46.288" gradientUnits="userSpaceOnUse"><stop offset="0" stop-color="#0176d0"/><stop offset="1" stop-color="#16538c"/></linearGradient><path fill="url(#oIx15wqbkFecBaUf5oWVMa)" d="M44.909,43.729l-3.657-8.32C42.367,33.355,43,31.001,43,28.5C43,20.492,36.508,14,28.5,14	S14,20.492,14,28.5S20.492,43,28.5,43c2.613,0,5.058-0.701,7.175-1.91l7.815,3.979C44.358,45.511,45.301,44.62,44.909,43.729z"/><radialGradient id="oIx15wqbkFecBaUf5oWVMb" cx="18.513" cy="16.427" r="15.613" gradientUnits="userSpaceOnUse"><stop offset="0"/><stop offset="1" stop-opacity="0"/></radialGradient><path fill="url(#oIx15wqbkFecBaUf5oWVMb)" d="M14,28.5c0,0.995,0.101,1.967,0.292,2.906C15.632,31.784,17.039,32,18.5,32	C27.06,32,34,25.06,34,16.5c0-0.486-0.029-0.965-0.073-1.44C32.25,14.382,30.421,14,28.5,14C20.492,14,14,20.492,14,28.5z"/><linearGradient id="oIx15wqbkFecBaUf5oWVMc" x1="16.148" x2="22.909" y1="19.346" y2="27.294" gradientUnits="userSpaceOnUse"><stop offset="0" stop-color="#33bef0"/><stop offset="1" stop-color="#22a5e2"/></linearGradient><path fill="url(#oIx15wqbkFecBaUf5oWVMc)" d="M18.5,3C11.044,3,5,9.044,5,16.5c0,2.059,0.474,4.002,1.299,5.748	c-0.013,0.03-0.029,0.054-0.04,0.088l-3.167,7.206c-0.392,0.892,0.551,1.783,1.419,1.341l6.369-3.243	C13.049,29.127,15.671,30,18.5,30C25.956,30,32,23.956,32,16.5C32,9.044,25.956,3,18.5,3z"/></svg>