<svg xmlns="http://www.w3.org/2000/svg" viewBox="0 0 48 48"><path fill="#64717c" d="M10,28c-0.553,0-1-0.448-1-1V7c0-0.552,0.447-1,1-1s1,0.448,1,1v20C11,27.552,10.553,28,10,28z"/><path fill="#abb4be" d="M10,42c-0.553,0-1-0.448-1-1V29c0-0.552,0.447-1,1-1s1,0.448,1,1v12C11,41.552,10.553,42,10,42z"/><linearGradient id="Ko_rRLT5SH60uSwB2v90da" x1="6" x2="14" y1="28" y2="28" gradientUnits="userSpaceOnUse"><stop offset="0" stop-color="#3079d6"/><stop offset="1" stop-color="#297cd2"/></linearGradient><path fill="url(#Ko_rRLT5SH60uSwB2v90da)" d="M7,21h6c0.552,0,1,0.448,1,1v12c0,0.552-0.448,1-1,1H7c-0.552,0-1-0.448-1-1V22	C6,21.448,6.448,21,7,21z"/><path fill="#64717c" d="M38,20c-0.553,0-1-0.448-1-1V7c0-0.552,0.447-1,1-1s1,0.448,1,1v12C39,19.552,38.553,20,38,20z"/><path fill="#abb4be" d="M38,42c-0.553,0-1-0.448-1-1V21c0-0.552,0.447-1,1-1s1,0.448,1,1v20C39,41.552,38.553,42,38,42z"/><linearGradient id="Ko_rRLT5SH60uSwB2v90db" x1="34" x2="42" y1="20" y2="20" gradientUnits="userSpaceOnUse"><stop offset="0" stop-color="#3079d6"/><stop offset="1" stop-color="#297cd2"/></linearGradient><path fill="url(#Ko_rRLT5SH60uSwB2v90db)" d="M35,13h6c0.552,0,1,0.448,1,1v12c0,0.552-0.448,1-1,1h-6c-0.552,0-1-0.448-1-1V14	C34,13.448,34.448,13,35,13z"/><path fill="#64717c" d="M24,24c-0.553,0-1-0.448-1-1V7c0-0.552,0.447-1,1-1s1,0.448,1,1v16C25,23.552,24.553,24,24,24z"/><path fill="#abb4be" d="M24,42c-0.553,0-1-0.448-1-1V25c0-0.552,0.447-1,1-1s1,0.448,1,1v16C25,41.552,24.553,42,24,42z"/><path fill="#abb4be" d="M42,8H6C5.447,8,5,7.552,5,7s0.447-1,1-1h36c0.553,0,1,0.448,1,1S42.553,8,42,8z"/><path fill="#abb4be" d="M42,42H6c-0.553,0-1-0.448-1-1s0.447-1,1-1h36c0.553,0,1,0.448,1,1S42.553,42,42,42z"/><linearGradient id="Ko_rRLT5SH60uSwB2v90dc" x1="20" x2="28" y1="24" y2="24" gradientUnits="userSpaceOnUse"><stop offset="0" stop-color="#3079d6"/><stop offset="1" stop-color="#297cd2"/></linearGradient><path fill="url(#Ko_rRLT5SH60uSwB2v90dc)" d="M21,17h6c0.552,0,1,0.448,1,1v12c0,0.552-0.448,1-1,1h-6c-0.552,0-1-0.448-1-1V18	C20,17.448,20.448,17,21,17z"/></svg>