<svg xmlns="http://www.w3.org/2000/svg" viewBox="0 0 48 48"><linearGradient id="-uysl80afMaodk4pBpydBa" x1="19.137" x2="19.137" y1="10.544" y2="35.508" gradientTransform="matrix(1 0 0 -1 0 49.276)" gradientUnits="userSpaceOnUse"><stop offset="0" stop-color="#ffd647"/><stop offset=".482" stop-color="#ffd545"/><stop offset=".655" stop-color="#fdd33e"/><stop offset=".779" stop-color="#fbce33"/><stop offset=".879" stop-color="#f9c822"/><stop offset=".964" stop-color="#f6c00c"/><stop offset="1" stop-color="#f4bb00"/></linearGradient><path fill="url(#-uysl80afMaodk4pBpydBa)" d="M26.17,13.768l-4,0.017c0,0,0.152,17.292,0.152,17.553c0,0.536-0.126,1.04-0.337,1.497 c-0.025,0.056-0.059,0.106-0.087,0.16c-0.071,0.135-0.14,0.269-0.227,0.393c-0.005,0.008-0.012,0.014-0.018,0.021 c-0.649,0.912-1.709,1.511-2.914,1.511c-1.449,0-2.317-0.836-2.372-0.878c-0.491-0.371-0.993-1.308-0.993-1.308 c-0.921,1.255-2.418,1.131-3.344,1.215l1.463,1.95c1.33,1.774,3.449,2.833,5.667,2.833c3.905,0,7.083-3.178,7.083-7.092 L26.17,13.768z"/><linearGradient id="-uysl80afMaodk4pBpydBb" x1="37.212" x2="37.212" y1="10.689" y2="35.929" gradientTransform="matrix(1 0 0 -1 0 49.276)" gradientUnits="userSpaceOnUse"><stop offset="0" stop-color="#ffd647"/><stop offset=".482" stop-color="#ffd545"/><stop offset=".655" stop-color="#fdd33e"/><stop offset=".779" stop-color="#fbce33"/><stop offset=".879" stop-color="#f9c822"/><stop offset=".964" stop-color="#f6c00c"/><stop offset="1" stop-color="#f4bb00"/></linearGradient><path fill="url(#-uysl80afMaodk4pBpydBb)" d="M37.68,38.587 c-3.086,0-6.435-1.263-9.033-3.533l2.633-3.012c2.439,2.132,5.829,3.068,8.246,2.271c1.194-0.393,1.927-1.166,2.176-2.297 c0.552-2.507-2.964-4.082-6.477-5.291c-0.42-0.145-0.771-0.267-1.026-0.369c-1.706-0.683-3.734-2.563-4.152-5.078 c-0.255-1.529-0.005-3.829,2.634-6.099c5.267-4.529,12.525,0.734,12.833,0.96l-2.372,3.221c-0.051-0.037-5.008-3.6-7.852-1.149 c-0.986,0.848-1.423,1.659-1.298,2.41c0.154,0.927,1.099,1.783,1.693,2.021c0.209,0.083,0.498,0.182,0.843,0.301 c2.864,0.986,10.473,3.606,9.08,9.933c-0.559,2.536-2.274,4.395-4.831,5.237C39.805,38.433,38.759,38.587,37.68,38.587z"/><linearGradient id="-uysl80afMaodk4pBpydBc" x1="19.137" x2="19.137" y1="10.544" y2="35.508" gradientTransform="matrix(1 0 0 -1 0 49.276)" gradientUnits="userSpaceOnUse"><stop offset="0" stop-color="#ffd647"/><stop offset=".482" stop-color="#ffd545"/><stop offset=".655" stop-color="#fdd33e"/><stop offset=".779" stop-color="#fbce33"/><stop offset=".879" stop-color="#f9c822"/><stop offset=".964" stop-color="#f6c00c"/><stop offset="1" stop-color="#f4bb00"/></linearGradient><path fill="url(#-uysl80afMaodk4pBpydBc)" d="M21.985,32.835 c-0.025,0.056-0.059,0.106-0.087,0.16c-0.071,0.135-0.14,0.269-0.227,0.393c-0.005,0.008-0.012,0.014-0.018,0.021 c-0.649,0.912-1.709,1.511-2.914,1.511c-1.449,0-2.317-0.836-2.372-0.878c-0.491-0.371-0.993-1.308-0.993-1.308 c-0.921,1.255-2.418,1.131-3.344,1.215l1.463,1.95c1.33,1.774,3.449,2.833,5.667,2.833c3.905,0,7.083-3.178,7.083-7.092 l-0.026-6.418l-3.943,0.432c0.027,3.085,0.048,5.586,0.048,5.684C22.322,31.874,22.196,32.378,21.985,32.835z"/><linearGradient id="-uysl80afMaodk4pBpydBd" x1="37.212" x2="37.212" y1="10.688" y2="35.927" gradientTransform="matrix(1 0 0 -1 0 49.276)" gradientUnits="userSpaceOnUse"><stop offset="0" stop-color="#ffd647"/><stop offset=".482" stop-color="#ffd545"/><stop offset=".655" stop-color="#fdd33e"/><stop offset=".779" stop-color="#fbce33"/><stop offset=".879" stop-color="#f9c822"/><stop offset=".964" stop-color="#f6c00c"/><stop offset="1" stop-color="#f4bb00"/></linearGradient><path fill="url(#-uysl80afMaodk4pBpydBd)" d="M35.225,26.726 c3.513,1.209,7.028,2.784,6.477,5.291c-0.249,1.131-0.981,1.904-2.176,2.297c-2.417,0.796-5.807-0.139-8.246-2.271l-2.633,3.012 c2.599,2.271,5.947,3.533,9.033,3.533c1.079,0,2.125-0.154,3.097-0.474c2.557-0.842,4.272-2.701,4.831-5.237 c0.77-3.498-1.215-5.86-3.625-7.442c-2.732,1.339-6.882,0.752-8.829,0.362c0.351,0.227,0.704,0.424,1.045,0.56 C34.453,26.459,34.805,26.581,35.225,26.726z"/><linearGradient id="-uysl80afMaodk4pBpydBe" x1="49.351" x2="19.383" y1="20.476" y2="15.21" gradientTransform="matrix(1 0 0 -1 0 49.276)" gradientUnits="userSpaceOnUse"><stop offset=".159" stop-color="#30db80"/><stop offset="1" stop-color="#30db80"/></linearGradient><path fill="url(#-uysl80afMaodk4pBpydBe)" d="M22.322,31.338 c0-0.098-0.021-2.599-0.048-5.684l3.943-0.432l0.026,6.418c0,3.914-3.178,7.092-7.083,7.092c-2.218,0-4.337-1.059-5.667-2.833 l-1.463-1.95c0.926-0.084,2.424,0.04,3.344-1.215c0,0,0.503,0.938,0.993,1.308c0.056,0.042,0.923,0.878,2.372,0.878 c1.205,0,2.265-0.599,2.914-1.511c0.005-0.008,0.012-0.014,0.018-0.021c0.087-0.124,0.156-0.259,0.227-0.393 c0.028-0.054,0.062-0.104,0.087-0.16C22.196,32.378,22.322,31.874,22.322,31.338z M35.225,26.726 c3.513,1.209,7.028,2.784,6.477,5.291c-0.249,1.131-0.981,1.904-2.176,2.297c-2.417,0.796-5.807-0.139-8.246-2.271l-2.633,3.012 c2.599,2.271,5.947,3.533,9.033,3.533c1.079,0,2.125-0.154,3.097-0.474c2.557-0.842,4.272-2.701,4.831-5.237 c0.77-3.498-1.215-5.86-3.625-7.442c-2.732,1.339-6.882,0.752-8.829,0.362c0.351,0.227,0.704,0.424,1.045,0.56 C34.453,26.459,34.805,26.581,35.225,26.726z"/><linearGradient id="-uysl80afMaodk4pBpydBf" x1="19.137" x2="19.137" y1="10.544" y2="35.508" gradientTransform="matrix(1 0 0 -1 0 49.276)" gradientUnits="userSpaceOnUse"><stop offset="0" stop-color="#006db1"/><stop offset="1" stop-color="#005f93"/></linearGradient><path fill="url(#-uysl80afMaodk4pBpydBf)" d="M21.985,32.835 c-0.025,0.056-0.059,0.106-0.087,0.16c-0.071,0.135-0.14,0.269-0.227,0.393c-0.005,0.008-0.012,0.014-0.018,0.021 c-0.649,0.912-1.709,1.511-2.914,1.511c-1.449,0-2.317-0.836-2.372-0.878c-0.491-0.371-0.993-1.308-0.993-1.308 c-0.921,1.255-2.418,1.131-3.344,1.215l1.463,1.95c1.33,1.774,3.449,2.833,5.667,2.833c3.905,0,7.083-3.178,7.083-7.092 l-0.007-1.759c-1.633,0.069-3.005,0.48-3.918,0.843c0.003,0.362,0.005,0.586,0.005,0.613 C22.322,31.874,22.196,32.378,21.985,32.835z"/><linearGradient id="-uysl80afMaodk4pBpydBg" x1="37.211" x2="37.211" y1="10.688" y2="35.927" gradientTransform="matrix(1 0 0 -1 0 49.276)" gradientUnits="userSpaceOnUse"><stop offset="0" stop-color="#006db1"/><stop offset="1" stop-color="#005f93"/></linearGradient><path fill="url(#-uysl80afMaodk4pBpydBg)" d="M41.701,32.017 c-0.249,1.131-0.981,1.904-2.176,2.297c-2.417,0.796-5.807-0.139-8.246-2.271l-2.633,3.012c2.599,2.271,5.947,3.533,9.033,3.533 c1.079,0,2.125-0.154,3.097-0.474c2.557-0.842,4.272-2.701,4.831-5.237c0.26-1.18,0.205-2.23-0.072-3.165l-4.09,0.652 C41.727,30.866,41.834,31.414,41.701,32.017z"/><linearGradient id="-uysl80afMaodk4pBpydBh" x1="22.171" x2="45.513" y1="31.683" y2="31.683" gradientTransform="matrix(1 0 0 -1 0 49.276)" gradientUnits="userSpaceOnUse"><stop offset="0" stop-color="#ffa302"/><stop offset="1" stop-color="#ff8700"/></linearGradient><path fill="url(#-uysl80afMaodk4pBpydBh)" d="M26.17,13.768l0.029,7.141	c-1.707,0.286-3.115,0.669-3.958,0.929c-0.036-4.135-0.07-8.054-0.07-8.054L26.17,13.768z M35.289,18.213	c2.844-2.451,7.801,1.112,7.852,1.149l2.372-3.221c-0.308-0.227-7.566-5.49-12.833-0.96c-2.243,1.93-2.754,3.876-2.702,5.357	c1.331-0.031,2.715,0.059,4.077,0.322c-0.024-0.079-0.051-0.157-0.064-0.237C33.866,19.872,34.303,19.061,35.289,18.213z"/><g><linearGradient id="-uysl80afMaodk4pBpydBi" x1="2.533" x2="21.299" y1="37.169" y2="8.062" gradientTransform="matrix(1 0 0 -1 0 49.276)" gradientUnits="userSpaceOnUse"><stop offset="0" stop-color="#f0e8e4"/><stop offset=".25" stop-color="#dfdcdb"/><stop offset=".722" stop-color="#c4cacc"/><stop offset="1" stop-color="#bac3c7"/></linearGradient><path fill="url(#-uysl80afMaodk4pBpydBi)" d="M18.429,27.057 C19.11,25.77,19.5,24.305,19.5,22.75c0-5.101-4.149-9.25-9.25-9.25H3.5V32h6.75c1.753,0,3.387-0.499,4.785-1.349 C15.198,28.799,16.608,27.32,18.429,27.057z M10.25,28H7.5V17.5h2.75c2.895,0,5.25,2.355,5.25,5.25S13.145,28,10.25,28z"/></g><linearGradient id="-uysl80afMaodk4pBpydBj" x1="5.435" x2="24.201" y1="39.04" y2="9.934" gradientTransform="matrix(1 0 0 -1 0 49.276)" gradientUnits="userSpaceOnUse"><stop offset="0" stop-color="#f0e8e4"/><stop offset=".25" stop-color="#dfdcdb"/><stop offset=".722" stop-color="#c4cacc"/><stop offset="1" stop-color="#bac3c7"/></linearGradient><circle cx="18.5" cy="30.5" r="2.5" fill="url(#-uysl80afMaodk4pBpydBj)"/><linearGradient id="-uysl80afMaodk4pBpydBk" x1="22.17" x2="45.512" y1="32.916" y2="32.916" gradientTransform="matrix(1 0 0 -1 0 49.276)" gradientUnits="userSpaceOnUse"><stop offset="0" stop-color="#f6572f"/><stop offset=".523" stop-color="#f6552d"/><stop offset=".712" stop-color="#f65026"/><stop offset=".846" stop-color="#f6461b"/><stop offset=".954" stop-color="#f6390a"/><stop offset="1" stop-color="#f63100"/></linearGradient><path fill="url(#-uysl80afMaodk4pBpydBk)" d="M26.17,13.768l0.017,4.227l-3.968,1.376	c-0.027-3.1-0.049-5.586-0.049-5.586L26.17,13.768z M44.917,16.95l0.595-0.808c-0.308-0.227-7.566-5.49-12.833-0.96	c-0.559,0.481-0.99,0.961-1.352,1.437C33.766,16.947,41.012,17.804,44.917,16.95z"/><g><linearGradient id="-uysl80afMaodk4pBpydBl" x1="32.944" x2="32.944" y1="10.689" y2="35.928" gradientTransform="matrix(1 0 0 -1 0 49.276)" gradientUnits="userSpaceOnUse"><stop offset="0" stop-color="#006db1"/><stop offset="1" stop-color="#005f93"/></linearGradient><path fill="url(#-uysl80afMaodk4pBpydBl)" d="M36.383,34.485 c-1.767-0.284-3.619-1.136-5.115-2.443l-1.763,2.017C30.498,34.199,33.27,34.542,36.383,34.485z"/><linearGradient id="-uysl80afMaodk4pBpydBm" x1="38.008" x2="38.008" y1="6.776" y2="18.151" gradientTransform="matrix(1 0 0 -1 0 49.276)" gradientUnits="userSpaceOnUse"><stop offset="0" stop-color="#0d61a8"/><stop offset="1" stop-color="#16528b"/></linearGradient><path fill="url(#-uysl80afMaodk4pBpydBm)" d="M39.515,34.313 c0.043-0.014,0.075-0.038,0.117-0.053c-1.084,0.137-2.185,0.205-3.249,0.224C37.498,34.664,38.58,34.622,39.515,34.313z"/><linearGradient id="-uysl80afMaodk4pBpydBn" x1="18.893" x2="18.893" y1="10.543" y2="35.507" gradientTransform="matrix(1 0 0 -1 0 49.276)" gradientUnits="userSpaceOnUse"><stop offset="0" stop-color="#ffd647"/><stop offset=".482" stop-color="#ffd545"/><stop offset=".655" stop-color="#fdd33e"/><stop offset=".779" stop-color="#fbce33"/><stop offset=".879" stop-color="#f9c822"/><stop offset=".964" stop-color="#f6c00c"/><stop offset="1" stop-color="#f4bb00"/></linearGradient><path fill="url(#-uysl80afMaodk4pBpydBn)" d="M16.356,34.043 c-0.491-0.371-0.993-1.308-0.993-1.308c-0.921,1.255-2.418,1.131-3.344,1.215l1.463,1.95c1.33,1.774,3.449,2.833,5.667,2.833 c3.023,0,5.604-1.908,6.618-4.585c-1.915,0.667-3.963,0.572-5.376,0.361c-0.496,0.263-1.061,0.412-1.662,0.412 C17.279,34.92,16.412,34.085,16.356,34.043z"/><linearGradient id="-uysl80afMaodk4pBpydBo" x1="37.163" x2="37.163" y1="10.689" y2="35.928" gradientTransform="matrix(1 0 0 -1 0 49.276)" gradientUnits="userSpaceOnUse"><stop offset="0" stop-color="#ffd647"/><stop offset=".482" stop-color="#ffd545"/><stop offset=".655" stop-color="#fdd33e"/><stop offset=".779" stop-color="#fbce33"/><stop offset=".879" stop-color="#f9c822"/><stop offset=".964" stop-color="#f6c00c"/><stop offset="1" stop-color="#f4bb00"/></linearGradient><path fill="url(#-uysl80afMaodk4pBpydBo)" d="M37.669,38.587 c1.079,0,2.125-0.154,3.097-0.474c2.557-0.842,4.272-2.701,4.831-5.237c0.05-0.227,0.064-0.438,0.091-0.655 c-1.576,1.144-3.772,1.75-6.056,2.039c-0.042,0.015-0.074,0.039-0.117,0.053c-0.935,0.308-2.017,0.351-3.131,0.172 c-3.113,0.057-5.886-0.286-6.877-0.426l-0.87,0.995C31.234,37.324,34.583,38.587,37.669,38.587z"/><linearGradient id="-uysl80afMaodk4pBpydBp" x1="17.463" x2="43.41" y1="20.44" y2="8.281" gradientTransform="matrix(1 0 0 -1 0 49.276)" gradientUnits="userSpaceOnUse"><stop offset="0" stop-color="#b65cff"/><stop offset="1" stop-color="#9153a0"/></linearGradient><path fill="url(#-uysl80afMaodk4pBpydBp)" d="M18.729,34.92 c0.601,0,1.166-0.15,1.662-0.412c1.413,0.211,3.461,0.306,5.376-0.361c-1.014,2.676-3.594,4.585-6.618,4.585 c-2.218,0-4.337-1.059-5.667-2.833l-1.463-1.95c0.926-0.084,2.424,0.04,3.344-1.215c0,0,0.503,0.938,0.993,1.308 C16.412,34.085,17.279,34.92,18.729,34.92z M37.669,38.587c1.079,0,2.125-0.154,3.097-0.474c2.557-0.842,4.272-2.701,4.831-5.237 c0.05-0.227,0.064-0.438,0.091-0.655c-1.576,1.144-3.772,1.75-6.056,2.039c-0.042,0.015-0.074,0.039-0.117,0.053 c-0.935,0.308-2.017,0.351-3.131,0.172c-3.113,0.057-5.886-0.286-6.877-0.426l-0.87,0.995 C31.234,37.324,34.583,38.587,37.669,38.587z"/></g></svg>