<svg xmlns="http://www.w3.org/2000/svg" viewBox="0 0 48 48"><linearGradient id="gL3n4BxRdpC1R6Gqz0Xh0a" x1="3.149" x2="41.766" y1="11.552" y2="30.445" gradientUnits="userSpaceOnUse"><stop offset="0" stop-color="#21ad64"/><stop offset="1" stop-color="#088242"/></linearGradient><path fill="url(#gL3n4BxRdpC1R6Gqz0Xh0a)" d="M42,11H6c-2.2,0-4,1.8-4,4v16h44V15C46,12.8,44.2,11,42,11z"/><linearGradient id="gL3n4BxRdpC1R6Gqz0Xh0b" x1="1.031" x2="39.244" y1="19.146" y2="43.997" gradientUnits="userSpaceOnUse"><stop offset="0" stop-color="#4c4c4c"/><stop offset="1" stop-color="#343434"/></linearGradient><path fill="url(#gL3n4BxRdpC1R6Gqz0Xh0b)" d="M2,31v4c0,2.2,1.8,4,4,4h17v-5c0-0.6,0.4-1,1-1s1,0.4,1,1v5h17c2.2,0,4-1.8,4-4v-4H2z"/><path fill="#edbe00" d="M8,33h1v6H7v-5C7,33.448,7.448,33,8,33z"/><rect width="2" height="6" x="9" y="33" fill="#e3a600"/><rect width="2" height="6" x="13" y="33" fill="#e3a600"/><rect width="2" height="6" x="17" y="33" fill="#e3a600"/><path fill="#e3a600" d="M21,33h1c0.552,0,1,0.448,1,1v5h-2V33z"/><path fill="#e3a600" d="M26,33h1v6h-2v-5C25,33.448,25.448,33,26,33z"/><rect width="2" height="6" x="29" y="33" fill="#e3a600"/><rect width="2" height="6" x="33" y="33" fill="#e3a600"/><rect width="2" height="6" x="37" y="33" fill="#e3a600"/><rect width="2" height="6" x="11" y="33" fill="#edbe00"/><rect width="2" height="6" x="15" y="33" fill="#edbe00"/><rect width="2" height="6" x="19" y="33" fill="#edbe00"/><rect width="2" height="6" x="27" y="33" fill="#edbe00"/><rect width="2" height="6" x="31" y="33" fill="#edbe00"/><rect width="2" height="6" x="35" y="33" fill="#edbe00"/><path fill="#edbe00" d="M39,33h1c0.552,0,1,0.448,1,1v5h-2V33z"/><path d="M21,27c-1.103,0-2-0.897-2-2v-6c0-1.103,0.897-2,2-2h6c1.103,0,2,0.897,2,2v6c0,1.103-0.897,2-2,2H21	z" opacity=".05"/><path d="M21,26.5c-0.827,0-1.5-0.673-1.5-1.5v-6c0-0.827,0.673-1.5,1.5-1.5h6c0.827,0,1.5,0.673,1.5,1.5v6	c0,0.827-0.673,1.5-1.5,1.5H21z" opacity=".07"/><linearGradient id="gL3n4BxRdpC1R6Gqz0Xh0c" x1="24" x2="24" y1="16.064" y2="24.75" gradientUnits="userSpaceOnUse"><stop offset="0" stop-color="#4c4c4c"/><stop offset="1" stop-color="#343434"/></linearGradient><path fill="url(#gL3n4BxRdpC1R6Gqz0Xh0c)" d="M21,18h6c0.552,0,1,0.448,1,1v6c0,0.552-0.448,1-1,1h-6c-0.552,0-1-0.448-1-1v-6	C20,18.448,20.448,18,21,18z"/><path d="M33,27c-1.103,0-2-0.897-2-2v-6c0-1.103,0.897-2,2-2h6c1.103,0,2,0.897,2,2v6c0,1.103-0.897,2-2,2H33	z" opacity=".05"/><path d="M33,26.5c-0.827,0-1.5-0.673-1.5-1.5v-6c0-0.827,0.673-1.5,1.5-1.5h6c0.827,0,1.5,0.673,1.5,1.5v6	c0,0.827-0.673,1.5-1.5,1.5H33z" opacity=".07"/><linearGradient id="gL3n4BxRdpC1R6Gqz0Xh0d" x1="36" x2="36" y1="16.064" y2="24.75" gradientUnits="userSpaceOnUse"><stop offset="0" stop-color="#4c4c4c"/><stop offset="1" stop-color="#343434"/></linearGradient><path fill="url(#gL3n4BxRdpC1R6Gqz0Xh0d)" d="M33,18h6c0.552,0,1,0.448,1,1v6c0,0.552-0.448,1-1,1h-6c-0.552,0-1-0.448-1-1v-6	C32,18.448,32.448,18,33,18z"/><path d="M9,27c-1.103,0-2-0.897-2-2v-6c0-1.103,0.897-2,2-2h6c1.103,0,2,0.897,2,2v6c0,1.103-0.897,2-2,2H9z" opacity=".05"/><path d="M9,26.5c-0.827,0-1.5-0.673-1.5-1.5v-6c0-0.827,0.673-1.5,1.5-1.5h6c0.827,0,1.5,0.673,1.5,1.5v6	c0,0.827-0.673,1.5-1.5,1.5H9z" opacity=".07"/><linearGradient id="gL3n4BxRdpC1R6Gqz0Xh0e" x1="12" x2="12" y1="16.064" y2="24.75" gradientUnits="userSpaceOnUse"><stop offset="0" stop-color="#4c4c4c"/><stop offset="1" stop-color="#343434"/></linearGradient><path fill="url(#gL3n4BxRdpC1R6Gqz0Xh0e)" d="M9,18h6c0.552,0,1,0.448,1,1v6c0,0.552-0.448,1-1,1H9c-0.552,0-1-0.448-1-1v-6	C8,18.448,8.448,18,9,18z"/></svg>