<svg xmlns="http://www.w3.org/2000/svg" xmlns:xlink="http://www.w3.org/1999/xlink" data-name="Слой 1" viewBox="0 0 48 48"><defs><linearGradient id="kZEF6FUs5KOK9XZXMinC6h" x1="20.348" x2="29.066" y1="18.94" y2="42.892" data-name="Безымянный градиент 87" gradientUnits="userSpaceOnUse"><stop offset="0" stop-color="#c26715"/><stop offset=".346" stop-color="#be6015"/><stop offset=".686" stop-color="#b54e16"/><stop offset=".979" stop-color="#ad3f16"/></linearGradient><linearGradient id="kZEF6FUs5KOK9XZXMinC6a" x1="39" x2="39" y1="36.891" y2="44.08" data-name="Безымянный градиент 77" gradientUnits="userSpaceOnUse"><stop offset="0" stop-color="#f44f5a"/><stop offset=".443" stop-color="#ee3d4a"/><stop offset="1" stop-color="#e52030"/></linearGradient><linearGradient id="kZEF6FUs5KOK9XZXMinC6f" x1="24" x2="24" y1="36.891" y2="44.08" xlink:href="#kZEF6FUs5KOK9XZXMinC6a"/><linearGradient id="kZEF6FUs5KOK9XZXMinC6b" x1="32" x2="32" y1="36.891" y2="44.08" data-name="Безымянный градиент 78" gradientUnits="userSpaceOnUse"><stop offset="0" stop-color="#fed100"/><stop offset="1" stop-color="#e38101"/></linearGradient><linearGradient id="kZEF6FUs5KOK9XZXMinC6g" x1="16" x2="16" y1="36.891" y2="44.08" xlink:href="#kZEF6FUs5KOK9XZXMinC6b"/><linearGradient id="kZEF6FUs5KOK9XZXMinC6e" x1="10.75" x2="10.75" y1="36.891" y2="44.08" xlink:href="#kZEF6FUs5KOK9XZXMinC6a"/><linearGradient id="kZEF6FUs5KOK9XZXMinC6c" x1="18" x2="18" y1="6.957" y2="18.589" data-name="Безымянный градиент 82" gradientUnits="userSpaceOnUse"><stop offset="0" stop-color="#fed100"/><stop offset=".139" stop-color="#fccd00"/><stop offset=".291" stop-color="#f8bf00"/><stop offset=".449" stop-color="#f1a900"/><stop offset=".61" stop-color="#e68b01"/><stop offset=".656" stop-color="#e38101"/></linearGradient><linearGradient id="kZEF6FUs5KOK9XZXMinC6i" x1="30" x2="30" y1="6.957" y2="18.589" xlink:href="#kZEF6FUs5KOK9XZXMinC6c"/><linearGradient id="kZEF6FUs5KOK9XZXMinC6d" x1="24" x2="24" y1="6.957" y2="18.589" data-name="Безымянный градиент 80" gradientUnits="userSpaceOnUse"><stop offset="0" stop-color="#f44f5a"/><stop offset=".307" stop-color="#f34d58"/><stop offset=".424" stop-color="#f14652"/><stop offset=".493" stop-color="#ee3d4a"/><stop offset=".555" stop-color="#ea303e"/><stop offset=".65" stop-color="#e52030"/></linearGradient><linearGradient id="kZEF6FUs5KOK9XZXMinC6j" x1="14.036" x2="14.036" y1="6.957" y2="18.589" xlink:href="#kZEF6FUs5KOK9XZXMinC6d"/><linearGradient id="kZEF6FUs5KOK9XZXMinC6k" x1="33.964" x2="33.964" y1="6.957" y2="18.589" xlink:href="#kZEF6FUs5KOK9XZXMinC6d"/></defs><rect width="2" height="29" x="23" y="12" fill="#64717c"/><path fill="url(#kZEF6FUs5KOK9XZXMinC6a)" d="M35,39h6a2,2,0,0,1,2,2v1a1,1,0,0,1-1,1H35a0,0,0,0,1,0,0V39A0,0,0,0,1,35,39Z"/><path fill="url(#kZEF6FUs5KOK9XZXMinC6e)" d="M7,39h9.5a0,0,0,0,1,0,0v4a0,0,0,0,1,0,0H6a1,1,0,0,1-1-1V41A2,2,0,0,1,7,39Z"/><rect width="11" height="4" x="18.5" y="39" fill="url(#kZEF6FUs5KOK9XZXMinC6f)"/><rect width="8" height="4" x="28" y="39" fill="url(#kZEF6FUs5KOK9XZXMinC6b)"/><rect width="8" height="4" x="12" y="39" fill="url(#kZEF6FUs5KOK9XZXMinC6g)"/><path fill="#5c2415" d="M11.17334,27.36961l1.456,1.456a.59586.59586,0,0,0,.84236,0l.63177-.63177a3.27568,3.27568,0,0,1,4.633,0L20,26.93032a6.2781,6.2781,0,0,0-8.78454-.44518A.60266.60266,0,0,0,11.17334,27.36961Z"/><path fill="url(#kZEF6FUs5KOK9XZXMinC6h)" d="M30,24.5a.94019.94019,0,0,1,1.41925-.79041l1.33984.79706a.85879.85879,0,0,0,1.03608-1.327L31,20V18.5c-4.5,1.875-5.625,5.15627-5.90625,6.6797a.98711.98711,0,0,1-.965.8203H20.54138a3,3,0,0,0-2.95917,2.50679L17,32l-2.1382,4.27639A.5.5,0,0,0,15.309,37h1.34532a.49129.49129,0,0,0,.46112-.30768C17.60509,35.46692,19.68582,31,24,31s6.39491,4.46692,6.88454,5.69232A.49129.49129,0,0,0,31.34566,37H32.691a.5.5,0,0,0,.44722-.72361L30,30V24.5Z"/><path fill="url(#kZEF6FUs5KOK9XZXMinC6c)" d="M12,13a4,4,0,0,0,8,0l3-3,1-4L16,9.5Z"/><path fill="url(#kZEF6FUs5KOK9XZXMinC6i)" d="M24,6l1,4.5L28,13a4,4,0,0,0,8,0L32,9.5Z"/><path fill="url(#kZEF6FUs5KOK9XZXMinC6d)" d="M24,6l-4,7a4,4,0,0,0,8,0Z"/><path fill="url(#kZEF6FUs5KOK9XZXMinC6j)" d="M4.75177,12.73688a.99243.99243,0,0,0-.65842,1.12822A3.90871,3.90871,0,0,0,8,17a3.94369,3.94369,0,0,0,4-4L24,6Z"/><path fill="url(#kZEF6FUs5KOK9XZXMinC6k)" d="M43.24823,12.73688a.99243.99243,0,0,1,.65842,1.12822A4.00073,4.00073,0,0,1,36,13L24,6Z"/><path d="M23,31.08V32.1a5.051,5.051,0,0,1,2,0V31.08a6.29311,6.29311,0,0,0-2,0ZM24.11,25H23v1h1.13a.965.965,0,0,0,.87-.55V22.46A9.1034,9.1034,0,0,0,24.11,25Z" opacity=".05"/><path d="M23,31.08v.51a5.60239,5.60239,0,0,1,2,0v-.51a6.29311,6.29311,0,0,0-2,0Zm1.6-5.99a.48132.48132,0,0,1-.47.41H23V26h1.13a.965.965,0,0,0,.87-.55V23.69A8.75842,8.75842,0,0,0,24.6,25.09Z" opacity=".07"/><path d="M23,38v1h2V38Z" opacity=".05"/><path d="M23,38.5V39h2v-.5Z" opacity=".07"/><g><path d="M24,17a3.65874,3.65874,0,0,1-1-.13V17.9a5.048,5.048,0,0,0,2,0V16.87A3.65874,3.65874,0,0,1,24,17Z" opacity=".05"/><path d="M24,17a3.65874,3.65874,0,0,1-1-.13v.51a4.22667,4.22667,0,0,0,2,0v-.51A3.65874,3.65874,0,0,1,24,17Z" opacity=".07"/></g></svg>