<svg xmlns="http://www.w3.org/2000/svg" viewBox="0 0 48 48"><path fill="#b9360c" d="M22.277,21.4L12.824,7.733H36.8c0.349,0,0.672,0.182,0.854,0.48l7.111,11.667	c0.406,0.666-0.073,1.52-0.854,1.52H22.277z"/><path fill="#d43a02" d="M4.456,19.831l8.368-12.098L22.277,21.4H5.278C4.472,21.4,3.997,20.494,4.456,19.831z"/><linearGradient id="t8B_TUT6B8iG2Ix2yzGcea" x1="17.612" x2="40.08" y1="10.216" y2="40.599" gradientUnits="userSpaceOnUse"><stop offset="0" stop-color="#fafafb"/><stop offset="1" stop-color="#c8cdd1"/></linearGradient><path fill="url(#t8B_TUT6B8iG2Ix2yzGcea)" d="M44,24.133H25.956c-0.552,0-1,0.448-1,1v17.133c0,0.552,0.448,1,1,1H44c0.552,0,1-0.448,1-1	V25.133C45,24.581,44.552,24.133,44,24.133z"/><path fill="#199be2" d="M39.033,30.511h-8.111c-0.276,0-0.5,0.224-0.5,0.5V37.3c0,0.276,0.224,0.5,0.5,0.5h8.111	c0.276,0,0.5-0.224,0.5-0.5v-6.289C39.533,30.735,39.309,30.511,39.033,30.511z"/><rect width="3.644" height="9.111" x="11.289" y="32.333"/><linearGradient id="t8B_TUT6B8iG2Ix2yzGceb" x1="3.2" x2="18.902" y1="17.504" y2="43.164" gradientUnits="userSpaceOnUse"><stop offset="0" stop-color="#fafafb"/><stop offset="1" stop-color="#c8cdd1"/></linearGradient><path fill="url(#t8B_TUT6B8iG2Ix2yzGceb)" d="M21.222,24.133H5c-0.55,0-1,0.45-1,1v17.133c0,0.55,0.45,1,1,1h16.222c0.55,0,1-0.45,1-1	V25.133C22.222,24.583,21.772,24.133,21.222,24.133z"/><path fill="#d35230" d="M16.745,43.267H9.787V32.574c0-0.552,0.448-1,1-1h4.957c0.552,0,1,0.448,1,1V43.267z"/></svg>