<svg xmlns="http://www.w3.org/2000/svg" viewBox="0 0 48 48"><path fill="#7b83eb" d="M13,6h25c2.761,0,5,2.239,5,5v26c0,2.761-2.239,5-5,5H13c-2.761,0-5-2.239-5-5V11 C8,8.239,10.239,6,13,6z"/><path d="M27,29v10c0,1.2-0.53,2.27-1.36,3H8V25h15C25.21,25,27,26.79,27,29z" opacity=".05"/><path d="M26.5,29v10c0,1.28-0.69,2.39-1.71,3H8V25.5h15C24.93,25.5,26.5,27.07,26.5,29z" opacity=".07"/><linearGradient id="6mHRHybBH4ny1nK08G33Ea" x1="3.204" x2="25.82" y1="21.704" y2="44.32" gradientUnits="userSpaceOnUse"><stop offset="0" stop-color="#5961c3"/><stop offset=".33" stop-color="#535bbf"/><stop offset=".77" stop-color="#434ab3"/><stop offset=".953" stop-color="#3a41ac"/></linearGradient><path fill="url(#6mHRHybBH4ny1nK08G33Ea)" d="M8,26h15c1.657,0,3,1.343,3,3v10c0,1.657-1.343,3-3,3H8c-1.657,0-3-1.343-3-3V29 C5,27.343,6.343,26,8,26z"/></svg>