<svg xmlns="http://www.w3.org/2000/svg" viewBox="0 0 48 48"><linearGradient id="D~e~wPVibCBUGF5yj3GD4a" x1="6.414" x2="41.774" y1="-577.552" y2="-603.378" gradientTransform="matrix(1 0 0 -1 0 -563.89)" gradientUnits="userSpaceOnUse"><stop offset="0" stop-color="#28afea"/><stop offset="1" stop-color="#047ed6"/></linearGradient><path fill="url(#D~e~wPVibCBUGF5yj3GD4a)" d="M6,40V12h36v28c0,1.1-0.9,2-2,2H8C6.9,42,6,41.1,6,40z"/><g opacity=".05"><path d="M22.081,27.106c1.091-0.892,1.662-2.194,1.662-3.817c0-1.489-0.586-2.718-1.741-3.651c-1.092-0.883-2.592-1.33-4.459-1.33 c-1.651,0-3.127,0.322-4.386,0.958c-0.339,0.171-0.55,0.513-0.55,0.893v2.885c0,0.371,0.204,0.71,0.536,0.886 c0.329,0.171,0.723,0.149,1.029-0.061c0.839-0.574,1.703-0.865,2.566-0.865c1.404,0,1.404,0.509,1.404,0.957 c0,0.351,0,1.079-2.131,1.079h-1.375c-0.551,0-1,0.448-1,1v2.706c0,0.552,0.449,1,1,1h1.487c0.894,0,1.579,0.145,2.038,0.432 c0.328,0.204,0.462,0.438,0.462,0.806c0,0.379-0.113,0.634-0.366,0.829c-0.321,0.247-0.825,0.373-1.497,0.373 c-1.208,0-2.274-0.33-3.169-0.982c-0.306-0.224-0.706-0.254-1.041-0.083c-0.338,0.171-0.548,0.513-0.548,0.892v3.075 c0,0.376,0.207,0.716,0.541,0.889c1.177,0.607,2.689,0.916,4.497,0.916c2.154,0,3.891-0.514,5.163-1.525 c1.341-1.068,2.021-2.527,2.021-4.339c0-1.255-0.425-2.332-1.263-3.203C22.699,27.552,22.405,27.312,22.081,27.106z"/><path d="M34.17,18.219h-2.136c-0.218,0-0.433,0.073-0.605,0.204c-0.607,0.462-1.298,0.894-2.054,1.282 c-0.753,0.387-1.567,0.709-2.418,0.959c-0.423,0.124-0.719,0.519-0.719,0.959v2.974c0,0.286,0.123,0.559,0.335,0.747 c0.219,0.194,0.504,0.285,0.782,0.246c0.353-0.042,0.72-0.112,1.09-0.211c0.361-0.096,0.716-0.216,1.052-0.355 c0.05-0.021,0.101-0.042,0.151-0.063v10.651c0,0.552,0.449,1,1,1h3.522c0.551,0,1-0.448,1-1V19.219 C35.17,18.667,34.722,18.219,34.17,18.219z"/></g><g opacity=".07"><path d="M21.104,27.164c1.405-0.776,2.138-2.093,2.138-3.875c0-1.331-0.523-2.429-1.555-3.263c-1-0.809-2.395-1.219-4.145-1.219 c-1.571,0-2.971,0.304-4.161,0.904c-0.168,0.085-0.275,0.258-0.275,0.446v2.885c0,0.186,0.103,0.355,0.267,0.442 c0.163,0.085,0.362,0.075,0.516-0.029c0.924-0.633,1.883-0.953,2.849-0.953c1.678,0,1.904,0.736,1.904,1.457 c0,0.432,0,1.579-2.631,1.579h-1.375c-0.276,0-0.5,0.224-0.5,0.5v2.706c0,0.276,0.224,0.5,0.5,0.5h1.487 c0.988,0,1.762,0.17,2.302,0.507c0.477,0.296,0.698,0.688,0.698,1.23c0,0.534-0.183,0.935-0.56,1.225 c-0.411,0.317-1.018,0.478-1.803,0.478c-1.316,0-2.481-0.362-3.463-1.078c-0.152-0.11-0.354-0.127-0.521-0.041 c-0.168,0.085-0.273,0.257-0.273,0.445v3.075c0,0.187,0.104,0.358,0.27,0.444c1.104,0.57,2.54,0.86,4.267,0.86 c2.038,0,3.67-0.477,4.851-1.417c1.216-0.968,1.833-2.296,1.833-3.947c0-1.121-0.378-2.082-1.124-2.856 C22.186,27.739,21.686,27.403,21.104,27.164z"/><path d="M34.17,18.719h-2.136c-0.109,0-0.216,0.036-0.303,0.103c-0.632,0.48-1.348,0.927-2.128,1.328 c-0.779,0.4-1.623,0.735-2.506,0.994c-0.213,0.063-0.359,0.258-0.359,0.479v2.974c0,0.143,0.061,0.279,0.168,0.374 c0.106,0.095,0.245,0.143,0.391,0.122c0.335-0.039,0.679-0.106,1.02-0.197c0.338-0.09,0.672-0.202,0.99-0.334 c0.296-0.122,0.579-0.259,0.842-0.407v11.457c0,0.276,0.224,0.5,0.5,0.5h3.522c0.276,0,0.5-0.224,0.5-0.5V19.219 C34.67,18.942,34.447,18.719,34.17,18.719z"/></g><linearGradient id="D~e~wPVibCBUGF5yj3GD4b" x1="6.42" x2="41.198" y1="-570.498" y2="-577.57" gradientTransform="matrix(1 0 0 -1 0 -563.89)" gradientUnits="userSpaceOnUse"><stop offset="0" stop-color="#0077d2"/><stop offset="1" stop-color="#0b59a2"/></linearGradient><path fill="url(#D~e~wPVibCBUGF5yj3GD4b)" d="M42,8v6H6V8c0-1.1,0.9-2,2-2h32C41.1,6,42,6.9,42,8z"/><path d="M35.5,12.5L35.5,12.5c-1.657,0-3-1.343-3-3V6h6v3.5 C38.5,11.157,37.157,12.5,35.5,12.5z" opacity=".05"/><path d="M35.5,11.75L35.5,11.75c-1.243,0-2.25-1.007-2.25-2.25V6h4.5v3.5 C37.75,10.743,36.743,11.75,35.5,11.75z" opacity=".07"/><path d="M12.5,12.5L12.5,12.5c-1.657,0-3-1.343-3-3V6h6v3.5 C15.5,11.157,14.157,12.5,12.5,12.5z" opacity=".05"/><path d="M12.5,11.75L12.5,11.75c-1.243,0-2.25-1.007-2.25-2.25V6h4.5v3.5 C14.75,10.743,13.743,11.75,12.5,11.75z" opacity=".07"/><path fill="#3ccbf4" d="M12.5,11L12.5,11c-0.828,0-1.5-0.672-1.5-1.5v-4C11,4.672,11.672,4,12.5,4l0,0 C13.328,4,14,4.672,14,5.5v4C14,10.328,13.328,11,12.5,11z"/><path fill="#3ccbf4" d="M35.5,11L35.5,11c-0.828,0-1.5-0.672-1.5-1.5v-4C34,4.672,34.672,4,35.5,4l0,0 C36.328,4,37,4.672,37,5.5v4C37,10.328,36.328,11,35.5,11z"/><path fill="#fff" d="M13.003,35.086v-3.075c1.074,0.782,2.326,1.174,3.757,1.174c0.902,0,1.604-0.193,2.108-0.581 c0.503-0.388,0.755-0.929,0.755-1.621c0-0.716-0.312-1.268-0.934-1.655c-0.622-0.388-1.478-0.582-2.566-0.582h-1.487v-2.706h1.375 c2.087,0,3.131-0.692,3.131-2.079c0-1.305-0.801-1.957-2.404-1.957c-1.073,0-2.117,0.347-3.131,1.04v-2.885 c1.125-0.567,2.438-0.851,3.936-0.851c1.64,0,2.917,0.369,3.83,1.107c0.913,0.738,1.37,1.696,1.37,2.874 c0,2.095-1.063,3.406-3.187,3.936v0.056c1.133,0.143,2.028,0.554,2.684,1.236c0.656,0.682,0.984,1.519,0.984,2.51 c0,1.499-0.548,2.684-1.644,3.557c-1.096,0.872-2.609,1.308-4.54,1.308C15.385,35.891,14.039,35.622,13.003,35.086z"/><path fill="#fff" d="M34.17,19.219v16.393h-3.522V23.199c-0.194,0.172-0.423,0.334-0.688,0.486 c-0.265,0.153-0.546,0.291-0.844,0.414c-0.298,0.123-0.607,0.228-0.928,0.313c-0.321,0.086-0.638,0.147-0.951,0.185v-2.974 c0.917-0.269,1.782-0.611,2.594-1.029c0.813-0.417,1.547-0.876,2.203-1.375H34.17z"/></svg>