<svg xmlns="http://www.w3.org/2000/svg" viewBox="0 0 48 48"><linearGradient id="zY7wq85r0jAcVZvhmyXE9a" x1="14.786" x2="33.076" y1="222.813" y2="204.523" gradientTransform="matrix(1 0 0 -1 0 254)" gradientUnits="userSpaceOnUse"><stop offset="0" stop-color="#33bef0"/><stop offset="1" stop-color="#0a85d9"/></linearGradient><path fill="url(#zY7wq85r0jAcVZvhmyXE9a)" d="M24,30.571c-8.837,0-16,4.921-16,10.286V42c0,1.105,0.895,2,2,2h28c1.105,0,2-0.895,2-2	v-1.143C40,35.492,32.837,30.571,24,30.571z"/><radialGradient id="zY7wq85r0jAcVZvhmyXE9b" cx="23.754" cy="1255.405" r="13.71" gradientTransform="translate(0 -1234)" gradientUnits="userSpaceOnUse"><stop offset=".376" stop-color="#261103"/><stop offset=".68" stop-color="#431d06"/><stop offset="1" stop-color="#662c09"/></radialGradient><path fill="url(#zY7wq85r0jAcVZvhmyXE9b)" d="M24,9C13.704,9,11.15,25.625,11.15,25.625c0,2.96,1.375,5.553,4.253,6.24	C17.869,32.454,20.972,33,24,33s6.131-0.546,8.596-1.134c2.879-0.687,4.253-3.281,4.253-6.24C36.85,25.625,34.296,9,24,9z"/><path fill="#d6a121" d="M29,33c0,1.897-2.83,4-5,4s-5-2.103-5-4c0-2.637,0-7.035,0-7.035h10C29,25.965,29,30.363,29,33z"/><radialGradient id="zY7wq85r0jAcVZvhmyXE9c" cx="-1350.339" cy="1270.846" r="10.72" gradientTransform="matrix(-.9136 0 0 .9667 -1209.67 -1208.491)" gradientUnits="userSpaceOnUse"><stop offset="0" stop-color="#ffcf54"/><stop offset=".261" stop-color="#fdcb4d"/><stop offset=".639" stop-color="#f7c13a"/><stop offset="1" stop-color="#f0b421"/></radialGradient><path fill="url(#zY7wq85r0jAcVZvhmyXE9c)" d="M24,8.071c3.948,0,8,0.693,8,9.722c0,0.723,0,5.736,0,6.508C32,27.526,27.101,32,24,32	s-8-4.474-8-7.698c0-0.772,0-5.785,0-6.508C16,9,20.052,8.071,24,8.071z"/><radialGradient id="zY7wq85r0jAcVZvhmyXE9d" cx="16.884" cy="1239.474" r="32.342" gradientTransform="translate(0 -1234)" gradientUnits="userSpaceOnUse"><stop offset="0" stop-color="#c26715"/><stop offset=".508" stop-color="#b85515"/><stop offset="1" stop-color="#ad3f16"/></radialGradient><path fill="url(#zY7wq85r0jAcVZvhmyXE9d)" d="M24,5c-5.188,0-6,3-6,3c-2.109,0.311-7,1-7,17.478c0,3.801,1.903,5.197,2.6,5.603	C11,16.717,20.576,19.036,19,10c4.046,11.813,16.293,0.054,15.871,20.734C36.077,29.817,37,27.977,37,25.478	C37,11.672,31.399,5,24,5z"/><path d="M38,44c1.105,0,2-0.895,2-2v-1.143c0-2.632-1.731-5.153-4.531-7.043l-0.506,1.136l-5.537,0.585	c-0.58,0.061-1.053,0.443-1.232,0.998c-0.181,0.554-0.023,1.142,0.411,1.533l4.136,3.726L32.272,44H38z" opacity=".05"/><path d="M38,44c1.105,0,2-0.895,2-2v-1.143c0-2.497-1.566-4.891-4.116-6.745l-0.582,1.304l-5.824,0.615	c-0.38,0.04-0.691,0.291-0.809,0.655c-0.119,0.364-0.015,0.75,0.27,1.007l4.35,3.919L32.783,44H38z" opacity=".07"/><linearGradient id="zY7wq85r0jAcVZvhmyXE9e" x1="31.713" x2="44.998" y1="223.193" y2="205.422" gradientTransform="matrix(1 0 0 -1 0 254)" gradientUnits="userSpaceOnUse"><stop offset="0" stop-color="#ffda1c"/><stop offset="1" stop-color="#feb705"/></linearGradient><path fill="url(#zY7wq85r0jAcVZvhmyXE9e)" d="M38.978,30.271l2.502,5.613l6.111,0.645c0.393,0.042,0.551,0.529,0.258,0.793l-4.564,4.113	l1.275,6.011c0.082,0.387-0.333,0.688-0.675,0.491l-5.323-3.071l-5.323,3.07c-0.343,0.197-0.757-0.104-0.675-0.491l1.275-6.011	l-4.564-4.113c-0.294-0.264-0.135-0.752,0.258-0.793l6.111-0.645l2.502-5.613C38.305,29.91,38.817,29.91,38.978,30.271z"/></svg>