<svg xmlns="http://www.w3.org/2000/svg" viewBox="0 0 48 48"><linearGradient id="igDSmrYgnVupFYhmGMjhSa" x1="24" x2="24" y1="6.064" y2="28.731" gradientUnits="userSpaceOnUse"><stop offset="0" stop-color="#fede00"/><stop offset=".519" stop-color="#fecc00"/><stop offset="1" stop-color="#ffb700"/></linearGradient><path fill="url(#igDSmrYgnVupFYhmGMjhSa)" d="M39.345,23.205L25,14.439v-0.263c0-1.131-0.692-2.161-1.724-2.561	c-0.802-0.311-1.479-1.218-1.221-2.351c0.162-0.71,0.749-1.297,1.46-1.459c0.627-0.144,1.243-0.009,1.729,0.379	C25.725,8.567,26,9.138,26,9.75c0,0.552,0.447,1,1,1s1-0.448,1-1c0-1.224-0.55-2.365-1.508-3.128	c-0.958-0.764-2.203-1.044-3.422-0.766c-1.467,0.335-2.63,1.499-2.964,2.965c-0.451,1.976,0.578,3.935,2.446,4.66	C22.82,13.584,23,13.864,23,14.176v0.263L8.655,23.205C6.4,24.583,5,27.081,5,29.723V30c0,0.552,0.447,1,1,1h36c0.553,0,1-0.448,1-1	v-0.277C43,27.081,41.6,24.583,39.345,23.205z M7.048,29c0.22-1.674,1.193-3.198,2.65-4.088L24,16.172l14.302,8.74	c1.457,0.89,2.431,2.414,2.65,4.088H7.048z"/><rect width="26" height="2" x="11" y="29" opacity=".05"/><rect width="25" height="2" x="11.5" y="29" opacity=".07"/><path fill="#50e6ff" d="M35,42H13c-0.552,0-1-0.448-1-1V29h24v12C36,41.552,35.552,42,35,42z"/><linearGradient id="igDSmrYgnVupFYhmGMjhSb" x1="12" x2="36" y1="39" y2="39" gradientUnits="userSpaceOnUse"><stop offset="0" stop-color="#ae4cd5"/><stop offset="1" stop-color="#ac4ad5"/></linearGradient><rect width="24" height="2" x="12" y="38" fill="url(#igDSmrYgnVupFYhmGMjhSb)"/></svg>