<svg xmlns="http://www.w3.org/2000/svg" viewBox="0 0 48 48"><path fill="#33c481" d="M6.292,42.292L6,42l16-21L40,8c4.5,4.5,5,19-3.575,27.575C27.5,44.5,15.5,36.5,11,41l-1.292,1.292	C8.765,43.235,7.235,43.235,6.292,42.292z"/><path fill="#21a366" d="M5.708,41.708L6,42L40,8c-4.5-4.5-19-5-27.575,3.575C3.5,20.5,11.5,32.5,7,37l-1.292,1.292	C4.765,39.235,4.765,40.765,5.708,41.708z"/><polygon fill="#21a366" points="31,35 12,35 14,33 31,33"/><polygon fill="#21a366" points="36,29 18,29 20,27 36,27"/><polygon fill="#21a366" points="38,23 24,23 26,21 38,21"/><polygon fill="#21a366" points="38,17 30,17 32,15 38,15"/><circle cx="31" cy="34" r="1" fill="#21a366"/><circle cx="36" cy="28" r="1" fill="#21a366"/><circle cx="38" cy="22" r="1" fill="#21a366"/><circle cx="38" cy="16" r="1" fill="#21a366"/></svg>