<svg xmlns="http://www.w3.org/2000/svg" viewBox="0 0 48 48"><linearGradient id="Q7QTL45tcCHRFVI3Q240Ba" x1="24" x2="24" y1="15.873" y2="41.985" gradientUnits="userSpaceOnUse"><stop offset="0" stop-color="#2aa4f4"/><stop offset="1" stop-color="#007ad9"/></linearGradient><path fill="url(#Q7QTL45tcCHRFVI3Q240Ba)" d="M42,17c-1.657,0-3-1-3-1s-1.343,1-3,1s-3-1-3-1s-1.343,1-3,1s-3-1-3-1s-1.343,1-3,1s-3-1-3-1	s-1.343,1-3,1s-3-1-3-1s-1.343,1-3,1s-3-1-3-1s-1.343,1-3,1s-3-1-3-1v22c0,2.209,1.791,4,4,4h34c2.209,0,4-1.791,4-4V16	C45,16,43.657,17,42,17z"/><path fill="#cf1928" d="M18,14c-0.553,0-1-0.447-1-1V6c0-0.553,0.447-1,1-1s1,0.447,1,1v7C19,13.553,18.553,14,18,14z"/><path fill="#cf1928" d="M30,14c-0.553,0-1-0.447-1-1V6c0-0.553,0.447-1,1-1s1,0.447,1,1v7C31,13.553,30.553,14,30,14z"/><path fill="#cf1928" d="M24,14c-0.553,0-1-0.447-1-1V8c0-0.553,0.447-1,1-1s1,0.447,1,1v5C25,13.553,24.553,14,24,14z"/><path fill="#cf1928" d="M36,14c-0.553,0-1-0.447-1-1V8c0-0.553,0.447-1,1-1s1,0.447,1,1v5C37,13.553,36.553,14,36,14z"/><path fill="#cf1928" d="M12,14c-0.553,0-1-0.447-1-1V8c0-0.553,0.447-1,1-1s1,0.447,1,1v5C13,13.553,12.553,14,12,14z"/><circle cx="11" cy="26" r="2" fill="#81d4fa"/><circle cx="37" cy="29" r="2" fill="#81d4fa"/><circle cx="27" cy="36" r="1" fill="#81d4fa"/><circle cx="25" cy="24" r="1" fill="#81d4fa"/><circle cx="15" cy="30" r="1" fill="#81d4fa"/></svg>