<svg xmlns="http://www.w3.org/2000/svg" viewBox="0 0 48 48"><linearGradient id="mrUEifQyPVt3xcOfHZT4Oa" x1="14.229" x2="30.589" y1="8.334" y2="39.49" gradientUnits="userSpaceOnUse"><stop offset="0" stop-color="#2aa4f4"/><stop offset="1" stop-color="#007ad9"/></linearGradient><path fill="url(#mrUEifQyPVt3xcOfHZT4Oa)" d="M48,26c0-6.55-5.24-11.87-11.76-11.99C33.36,9.78,28.51,7,23,7 C15.46,7,9.15,12.21,7.45,19.22C3.18,20.16,0,23.96,0,28.5C0,33.75,4.25,38,9.5,38h0.524c1.686,3.544,5.29,6,9.476,6 c3.288,0,6.221-1.514,8.146-3.88C28.74,41.276,30.284,42,32,42c2.662,0,4.915-1.735,5.7-4.134C43.522,37.039,48,32.051,48,26z"/></svg>