<svg xmlns="http://www.w3.org/2000/svg" viewBox="0 0 48 48"><linearGradient id="DrxE9s~BviqVHt~xsl0tXa" x1="16.473" x2="25.828" y1="19.573" y2="30.169" gradientUnits="userSpaceOnUse"><stop offset="0" stop-color="#f44f5a"/><stop offset=".4" stop-color="#ee3d4a"/><stop offset="1" stop-color="#ba1035"/></linearGradient><path fill="url(#DrxE9s~BviqVHt~xsl0tXa)" d="M32.062,19.002c-0.129-0.008-9.74-0.502-16.638,5.61l-3.53-7.059 c-0.248-0.494-0.849-0.692-1.342-0.447c-0.494,0.247-0.694,0.848-0.447,1.342l3.822,7.644c-1.327,1.475-2.484,3.276-3.395,5.422 l1.819,0.779c5.069-12.023,18.983-11.327,19.587-11.295c0.554,0.021,1.025-0.385,1.06-0.937 C33.031,19.511,32.613,19.036,32.062,19.002z"/><path fill="#586169" d="M36,24c-5.523,0-10,4.477-10,10c0,5.523,4.477,10,10,10s10-4.477,10-10C46,28.477,41.523,24,36,24z M36,41c-3.866,0-7-3.134-7-7c0-3.866,3.134-7,7-7s7,3.134,7,7C43,37.866,39.866,41,36,41z"/><path fill="#586169" d="M7,16h10.886C18.501,16,19,16.499,19,17.114v0c0,0.519-0.358,0.969-0.863,1.085l-8.936,2.062 C7.563,20.639,6,19.396,6,17.715V17C6,16.448,6.448,16,7,16z"/><linearGradient id="DrxE9s~BviqVHt~xsl0tXb" x1="30.802" x2="37.001" y1="25.657" y2="25.657" gradientUnits="userSpaceOnUse"><stop offset="0" stop-color="#f44f5a"/><stop offset=".4" stop-color="#ee3d4a"/><stop offset="1" stop-color="#bd1237"/></linearGradient><path fill="url(#DrxE9s~BviqVHt~xsl0tXb)" d="M32.744,15.314l-1.942,0.485l4.22,19.413C35.125,35.681,35.539,36,35.999,36 c0.07,0,0.142-0.007,0.214-0.022c0.539-0.118,0.882-0.65,0.765-1.19L32.744,15.314z"/><path fill="#999" d="M32.51,8.4c0.221,0.938-0.547,2-1.957,2.705c-0.409,0.204-0.627,0.66-0.53,1.107l0.788,3.625 l1.962-0.392l-0.639-2.94c1.816-1.159,2.718-2.89,2.322-4.565C34.034,6.154,32.285,5,30,5h-7c-0.553,0-1,0.447-1,1s0.447,1,1,1h7 C31.323,7,32.309,7.55,32.51,8.4z"/><circle cx="36" cy="34" r="2" fill="#586169"/><path fill="#586169" d="M10,30c-3.866,0-7,3.134-7,7c0,3.866,3.134,7,7,7s7-3.134,7-7C17,33.134,13.866,30,10,30z M10,41 c-2.209,0-4-1.791-4-4c0-2.209,1.791-4,4-4s4,1.791,4,4C14,39.209,12.209,41,10,41z"/><circle cx="10" cy="37" r="2" fill="#586169"/></svg>