<svg xmlns="http://www.w3.org/2000/svg" viewBox="0 0 48 48"><linearGradient id="f1JIytBgWasf572SSYFA3a" x1="15.403" x2="28.764" y1="4.208" y2="40.918" gradientUnits="userSpaceOnUse"><stop offset="0" stop-color="#2aa4f4"/><stop offset="1" stop-color="#007ad9"/></linearGradient><path fill="url(#f1JIytBgWasf572SSYFA3a)" d="M30.797,47.109l0.004-0.007c-3.431-2.732-8.385-7.388-6.689-11.807	c1.293-3.35,4.099-3.542,5.288-3.305c0.312,0.062,0.6-0.171,0.6-0.489v-1.089c0-0.16-0.077-0.311-0.207-0.405l-6.663-4.983	c-2.272-1.901-0.211-4.915,0.839-6.458l4.773-5.279C28.908,13.102,29,12.863,29,12.615V11.44c0-0.28-0.118-0.548-0.325-0.737	l-10.35-9.45c-0.41-0.375-1.049-0.337-1.412,0.084c-0.355,0.412-0.308,1.034,0.104,1.389l4.107,3.492	c0.725,1.236,0.199,2.361-0.597,3.286l-5.77,6.759c-2.023,2.816,0.18,5.379,1.571,6.363l1.175,0.789l8.705,5.981	c-4.599-0.356-9.31,0.589-10.087,4.521c-1.607,8.126,14.205,14.053,14.205,14.053l0.002-0.004C30.382,47.985,30.439,48,30.5,48	c0.276,0,0.5-0.224,0.5-0.5C31,47.337,30.917,47.2,30.797,47.109z"/></svg>