<svg xmlns="http://www.w3.org/2000/svg" baseProfile="basic" viewBox="0 0 48 48"><linearGradient id="yLPXmWg60Y56f_u8lVaFMa" x1="24" x2="24" y1="131.341" y2="114.755" gradientTransform="matrix(1 0 0 -1 0 158)" gradientUnits="userSpaceOnUse"><stop offset="0" stop-color="#dfe9f2"/><stop offset=".391" stop-color="#d6e0e9"/><stop offset="1" stop-color="#bfc8d1"/></linearGradient><path fill="url(#yLPXmWg60Y56f_u8lVaFMa)" d="M6,31h36c0.552,0,1,0.466,1,1.04V44l0,0H5l0,0V32.04C5,31.466,5.448,31,6,31z"/><rect width="18" height="6" x="15" y="38" fill="#abc1c9"/><rect width="10" height="2" x="7" y="29" fill="#abc1c9"/><linearGradient id="yLPXmWg60Y56f_u8lVaFMb" x1="30.554" x2="8.425" y1="42" y2="42" gradientUnits="userSpaceOnUse"><stop offset="0" stop-color="#64717c"/><stop offset="1" stop-color="#abc1c9"/></linearGradient><rect width="11" height="4" x="4" y="40" fill="url(#yLPXmWg60Y56f_u8lVaFMb)"/><linearGradient id="yLPXmWg60Y56f_u8lVaFMc" x1="10.554" x2="-11.575" y1="42" y2="42" gradientTransform="matrix(-1 0 0 1 28 0)" gradientUnits="userSpaceOnUse"><stop offset="0" stop-color="#64717c"/><stop offset="1" stop-color="#abc1c9"/></linearGradient><rect width="11" height="4" x="33" y="40" fill="url(#yLPXmWg60Y56f_u8lVaFMc)"/><rect width="10" height="2" x="31" y="29" fill="#abc1c9"/><linearGradient id="yLPXmWg60Y56f_u8lVaFMd" x1="24" x2="24" y1="141.835" y2="105.094" gradientTransform="matrix(1 0 0 -1 0 158)" gradientUnits="userSpaceOnUse"><stop offset="0" stop-color="#dfe9f2"/><stop offset=".391" stop-color="#d6e0e9"/><stop offset="1" stop-color="#bfc8d1"/></linearGradient><rect width="12" height="26" x="18" y="11" fill="url(#yLPXmWg60Y56f_u8lVaFMd)"/><linearGradient id="yLPXmWg60Y56f_u8lVaFMe" x1="24" x2="24" y1="151.007" y2="143.941" gradientTransform="matrix(1 0 0 -1 0 158)" gradientUnits="userSpaceOnUse"><stop offset="0" stop-color="#dfe9f2"/><stop offset=".391" stop-color="#d6e0e9"/><stop offset="1" stop-color="#bfc8d1"/></linearGradient><rect width="10" height="5" x="19" y="6" fill="url(#yLPXmWg60Y56f_u8lVaFMe)"/><linearGradient id="yLPXmWg60Y56f_u8lVaFMf" x1="32.85" x2="30.024" y1="132" y2="132" gradientTransform="matrix(1 0 0 -1 0 158)" gradientUnits="userSpaceOnUse"><stop offset="0" stop-color="#dfe9f2"/><stop offset=".391" stop-color="#d6e0e9"/><stop offset="1" stop-color="#bfc8d1"/></linearGradient><rect width="2" height="24" x="30" y="14" fill="url(#yLPXmWg60Y56f_u8lVaFMf)"/><linearGradient id="yLPXmWg60Y56f_u8lVaFMg" x1="12.85" x2="10.024" y1="132" y2="132" gradientTransform="rotate(180 14 79)" gradientUnits="userSpaceOnUse"><stop offset="0" stop-color="#dfe9f2"/><stop offset=".391" stop-color="#d6e0e9"/><stop offset="1" stop-color="#bfc8d1"/></linearGradient><rect width="2" height="24" x="16" y="14" fill="url(#yLPXmWg60Y56f_u8lVaFMg)"/><path fill="#64717c" d="M23,34v2h2v-2c0-0.552-0.448-1-1-1h0C23.448,33,23,33.448,23,34z"/><path fill="#64717c" d="M23,41v3h2v-3c0-0.552-0.448-1-1-1h0C23.448,40,23,40.448,23,41z"/><path fill="#64717c" d="M20,41v3h2v-3c0-0.552-0.448-1-1-1h0C20.448,40,20,40.448,20,41z"/><path fill="#64717c" d="M17,41v3h2v-3c0-0.552-0.448-1-1-1h0C17.448,40,17,40.448,17,41z"/><path fill="#64717c" d="M29,41v3h2v-3c0-0.552-0.448-1-1-1h0C29.448,40,29,40.448,29,41z"/><path fill="#64717c" d="M26,41v3h2v-3c0-0.552-0.448-1-1-1h0C26.448,40,26,40.448,26,41z"/><path fill="#64717c" d="M26,34v2h2v-2c0-0.552-0.448-1-1-1h0C26.448,33,26,33.448,26,34z"/><path fill="#64717c" d="M20,34v2h2v-2c0-0.552-0.448-1-1-1h0C20.448,33,20,33.448,20,34z"/><path fill="#64717c" d="M12,42v2h2v-2c0-0.552-0.448-1-1-1h0C12.448,41,12,41.448,12,42z"/><path fill="#64717c" d="M9,42v2h2v-2c0-0.552-0.448-1-1-1h0C9.448,41,9,41.448,9,42z"/><path fill="#64717c" d="M6,42v2h2v-2c0-0.552-0.448-1-1-1h0C6.448,41,6,41.448,6,42z"/><path fill="#64717c" d="M40,42v2h2v-2c0-0.552-0.448-1-1-1l0,0C40.448,41,40,41.448,40,42z"/><path fill="#64717c" d="M37,42v2h2v-2c0-0.552-0.448-1-1-1l0,0C37.448,41,37,41.448,37,42z"/><path fill="#64717c" d="M34,42v2h2v-2c0-0.552-0.448-1-1-1l0,0C34.448,41,34,41.448,34,42z"/><rect width="1" height="2" x="7" y="33" fill="#64717c"/><rect width="1" height="2" x="10" y="33" fill="#64717c"/><rect width="1" height="2" x="12" y="33" fill="#64717c"/><rect width="1" height="2" x="7" y="36" fill="#64717c"/><rect width="1" height="2" x="10" y="36" fill="#64717c"/><rect width="1" height="2" x="12" y="36" fill="#64717c"/><rect width="1" height="2" x="40" y="33" fill="#64717c"/><rect width="1" height="2" x="37" y="33" fill="#64717c"/><rect width="1" height="2" x="35" y="33" fill="#64717c"/><rect width="1" height="2" x="40" y="36" fill="#64717c"/><rect width="1" height="2" x="37" y="36" fill="#64717c"/><rect width="1" height="2" x="35" y="36" fill="#64717c"/><path fill="#64717c" d="M23,30v2h2v-2c0-0.552-0.448-1-1-1h0C23.448,29,23,29.448,23,30z"/><path fill="#64717c" d="M26,30v2h2v-2c0-0.552-0.448-1-1-1h0C26.448,29,26,29.448,26,30z"/><path fill="#64717c" d="M20,30v2h2v-2c0-0.552-0.448-1-1-1h0C20.448,29,20,29.448,20,30z"/><path fill="#64717c" d="M23,26v2h2v-2c0-0.552-0.448-1-1-1h0C23.448,25,23,25.448,23,26z"/><path fill="#64717c" d="M26,26v2h2v-2c0-0.552-0.448-1-1-1h0C26.448,25,26,25.448,26,26z"/><path fill="#64717c" d="M20,26v2h2v-2c0-0.552-0.448-1-1-1h0C20.448,25,20,25.448,20,26z"/><path fill="#64717c" d="M23,22v2h2v-2c0-0.552-0.448-1-1-1h0C23.448,21,23,21.448,23,22z"/><path fill="#64717c" d="M26,22v2h2v-2c0-0.552-0.448-1-1-1h0C26.448,21,26,21.448,26,22z"/><path fill="#64717c" d="M20,22v2h2v-2c0-0.552-0.448-1-1-1h0C20.448,21,20,21.448,20,22z"/><path fill="#64717c" d="M23,18v2h2v-2c0-0.552-0.448-1-1-1h0C23.448,17,23,17.448,23,18z"/><path fill="#64717c" d="M26,18v2h2v-2c0-0.552-0.448-1-1-1h0C26.448,17,26,17.448,26,18z"/><path fill="#64717c" d="M20,18v2h2v-2c0-0.552-0.448-1-1-1h0C20.448,17,20,17.448,20,18z"/><path fill="#64717c" d="M23,14v2h2v-2c0-0.552-0.448-1-1-1h0C23.448,13,23,13.448,23,14z"/><path fill="#64717c" d="M27,7c-0.552,0-1,0.448-1,1v3h2V8C28,7.448,27.552,7,27,7L27,7z"/><path fill="#64717c" d="M20,8v3h2V8c0-0.552-0.448-1-1-1h0C20.448,7,20,7.448,20,8z"/><path fill="#64717c" d="M23,8v3h2V8c0-0.552-0.448-1-1-1h0C23.448,7,23,7.448,23,8z"/><path fill="#64717c" d="M26,14v2h2v-2c0-0.552-0.448-1-1-1h0C26.448,13,26,13.448,26,14z"/><path fill="#64717c" d="M20,14v2h2v-2c0-0.552-0.448-1-1-1h0C20.448,13,20,13.448,20,14z"/><polygon fill="#abc1c9" points="28.391,6 19.391,6 22.391,1 25.391,1"/></svg>