<svg xmlns="http://www.w3.org/2000/svg" viewBox="0 0 48 48"><path fill="#64717c" d="M33.999,9c-0.19,0-0.383-0.055-0.554-0.168l-2.682-1.788L24.142,7.99	c-0.094,0.014-0.189,0.014-0.283,0l-6.622-0.946l-2.682,1.788c-0.462,0.305-1.081,0.182-1.387-0.277	c-0.307-0.46-0.183-1.08,0.277-1.387l3-2c0.204-0.137,0.453-0.194,0.696-0.158L24,5.99l6.858-0.98	c0.242-0.036,0.492,0.021,0.696,0.158l3,2c0.46,0.307,0.584,0.927,0.277,1.387C34.64,8.844,34.322,9,33.999,9z"/><linearGradient id="Wl0BBkxZfXAZLKH9oDS50a" x1="24" x2="24" y1="28.174" y2="38.773" gradientUnits="userSpaceOnUse"><stop offset="0" stop-color="#dfe9f2"/><stop offset=".391" stop-color="#d6e0e9"/><stop offset="1" stop-color="#bfc8d1"/></linearGradient><rect width="18" height="3" x="15" y="33" fill="url(#Wl0BBkxZfXAZLKH9oDS50a)"/><linearGradient id="Wl0BBkxZfXAZLKH9oDS50b" x1="24" x2="24" y1="2.804" y2="32.747" gradientUnits="userSpaceOnUse"><stop offset="0" stop-color="#dfe9f2"/><stop offset=".391" stop-color="#d6e0e9"/><stop offset="1" stop-color="#bfc8d1"/></linearGradient><path fill="url(#Wl0BBkxZfXAZLKH9oDS50b)" d="M24,5L24,5c-0.552,0-1,0.448-1,1v22h2V6C25,5.448,24.552,5,24,5z"/><path fill="#64717c" d="M15,30.5v10c0,0.69-0.28,1.32-0.73,1.77C13.82,42.72,13.19,43,12.5,43c-1.38,0-2.5-1.12-2.5-2.5v-10	c0-0.64,0.24-1.23,0.64-1.67c0.12-0.14,0.26-0.26,0.41-0.37c0.14-0.1,0.29-0.18,0.45-0.25c0.31-0.14,0.65-0.21,1-0.21	C13.88,28,15,29.12,15,30.5z"/><path fill="#64717c" d="M38,30.5v10c0,0.69-0.28,1.32-0.73,1.77C36.82,42.72,36.19,43,35.5,43c-1.38,0-2.5-1.12-2.5-2.5v-10	c0-1.38,1.12-2.5,2.5-2.5c0.35,0,0.69,0.07,1,0.21c0.15,0.06,0.3,0.15,0.44,0.25c0.15,0.1,0.29,0.23,0.42,0.37	C37.76,29.27,38,29.86,38,30.5z"/><linearGradient id="Wl0BBkxZfXAZLKH9oDS50c" x1="24" x2="24" y1="19.239" y2="41.877" gradientUnits="userSpaceOnUse"><stop offset="0" stop-color="#f44f5a"/><stop offset=".443" stop-color="#ee3d4a"/><stop offset="1" stop-color="#e52030"/></linearGradient><path fill="url(#Wl0BBkxZfXAZLKH9oDS50c)" d="M36.5,26H34c-1.105,0-2,0.895-2,2v7h-6v-7c0-1.105-0.895-2-2-2s-2,0.895-2,2v7h-6v-7	c0-1.105-0.895-2-2-2h-2.5c-0.349,0-0.591,0.349-0.468,0.676l3.035,9.91C14.324,37.426,15.1,38,15.979,38h16.042	c0.879,0,1.655-0.574,1.912-1.414l3.041-9.928C37.082,26.334,36.841,26,36.5,26z"/><path d="M36.94,28.46c-0.14-0.1-0.29-0.19-0.44-0.25l-2.57,8.38c-0.15,0.5-0.49,0.91-0.93,1.16v1.09c0.89-0.3,1.6-1.02,1.89-1.96 l2.47-8.05C37.23,28.69,37.09,28.56,36.94,28.46z M14.07,36.59l-2.57-8.38c-0.16,0.07-0.31,0.15-0.45,0.25 c-0.15,0.11-0.29,0.23-0.41,0.37l2.47,8.05c0.29,0.94,1,1.66,1.89,1.96v-1.09C14.56,37.5,14.22,37.09,14.07,36.59z" opacity=".05"/><path d="M36.5,28.21l-2.57,8.38c-0.15,0.5-0.49,0.91-0.93,1.16v0.55c0.67-0.28,1.19-0.84,1.41-1.57l2.53-8.27 C36.8,28.36,36.65,28.27,36.5,28.21z M14.07,36.59l-2.57-8.38c-0.16,0.07-0.31,0.15-0.45,0.25l2.54,8.27 c0.22,0.73,0.74,1.29,1.41,1.57v-0.55C14.56,37.5,14.22,37.09,14.07,36.59z" opacity=".07"/></svg>