<svg xmlns="http://www.w3.org/2000/svg" viewBox="0 0 48 48"><linearGradient id="9EE65x~UEH_44dj6q5ujfa" x1="5.662" x2="41.927" y1="-608.546" y2="-601.172" gradientTransform="translate(0 614)" gradientUnits="userSpaceOnUse"><stop offset="0" stop-color="#464eb0"/><stop offset="1" stop-color="#343b9e"/></linearGradient><path fill="url(#9EE65x~UEH_44dj6q5ujfa)" d="M43,8v4H5V8c0-1.1,0.9-2,2-2h34C42.1,6,43,6.9,43,8z"/><circle cx="36" cy="9" r="1" fill="#6d75cf"/><circle cx="40" cy="9" r="1" fill="#6d75cf"/><path fill="#50e6ff" d="M5,19h38v20H5V19z"/><path fill="#35c1f1" d="M5,39h38v1c0,1.105-0.895,2-2,2H7c-1.105,0-2-0.895-2-2V39z"/><path fill="#353c9f" d="M42,18H6l-3,3v1c0,1.105,0.895,2,2,2h38c1.105,0,2-0.895,2-2v-1L42,18z"/><polygon fill="#6d75cf" points="43,12 5,12 3,21 45,21"/><path fill="#199be2" d="M21,39H11V27h10V39z"/><path fill="#199be2" d="M37,36H25v-9h12V36z"/><rect width="10" height="3" x="11" y="39" fill="#0078d4"/></svg>