<svg xmlns="http://www.w3.org/2000/svg" data-name="Слой 1" viewBox="0 0 48 48"><defs><linearGradient id="rTxI7CmqOcVqjh1FcDXPsa" x1="10.531" x2="27.482" y1="4.992" y2="51.563" data-name="Безымянный градиент 138" gradientUnits="userSpaceOnUse"><stop offset="0" stop-color="#6d6d6d"/><stop offset=".126" stop-color="#626262"/><stop offset=".987" stop-color="#464646"/><stop offset=".998" stop-color="#454545"/></linearGradient><linearGradient id="rTxI7CmqOcVqjh1FcDXPsb" x1="18.357" x2="24.573" y1="-2568.995" y2="-2604.249" data-name="Безымянный градиент 134" gradientTransform="matrix(1 0 0 -1 0 -2560)" gradientUnits="userSpaceOnUse"><stop offset="0" stop-color="#ffda1c"/><stop offset="1" stop-color="#feb705"/></linearGradient><radialGradient id="rTxI7CmqOcVqjh1FcDXPsc" cx="13.533" cy="19.377" r="22.38" data-name="Безымянный градиент 133" gradientUnits="userSpaceOnUse"><stop offset="0" stop-color="#4b4b4b"/><stop offset=".531" stop-color="#393939"/><stop offset="1" stop-color="#252525"/></radialGradient></defs><path fill="url(#rTxI7CmqOcVqjh1FcDXPsa)" d="M24.00043,4A1.96747,1.96747,0,0,0,22.2731,5.00878L1.82176,41.00568A2.00136,2.00136,0,0,0,3.54909,44H44.45078a2.001,2.001,0,0,0,1.72733-2.99432L25.72776,5.00878A1.96745,1.96745,0,0,0,24.00043,4Z"/><polygon fill="url(#rTxI7CmqOcVqjh1FcDXPsb)" points="5 41 24.001 8 43 41 5 41"/><path fill="url(#rTxI7CmqOcVqjh1FcDXPsc)" d="M35,35H28c-.25,1-2,2-4,2s-3.75-1-4-2H13a1,1,0,0,0-1,1v2a1,1,0,0,0,1,1H35a1,1,0,0,0,1-1V36A1,1,0,0,0,35,35ZM20,22.9502a.9957.9957,0,0,0,.72534-.32117L27.86115,27.59a1.99732,1.99732,0,0,0,2.28-3.28l-7.22284-5.01355a.98578.98578,0,0,0-.36267-1.17823,1,1,0,0,0-1.38671.27735l-2,3A1,1,0,0,0,20,22.9502ZM20.498,30a1.58923,1.58923,0,0,0,1.49792-1.66675C21.99591,27.41284,20.498,25,20.498,25S19,27.41284,19,28.33325A1.58924,1.58924,0,0,0,20.498,30Zm5.004,4A1.58924,1.58924,0,0,0,27,32.33325C27,31.41284,25.502,29,25.502,29s-1.49792,2.41284-1.49792,3.33325A1.58923,1.58923,0,0,0,25.502,34Z"/></svg>