<svg xmlns="http://www.w3.org/2000/svg" viewBox="0 0 48 48"><linearGradient id="t98CC9XarXfK8a8uIc1Y8a" x1="24" x2="24" y1="518.016" y2="509.747" gradientTransform="matrix(1 0 0 -1 0 524.724)" gradientUnits="userSpaceOnUse"><stop offset="0" stop-color="#eba600"/><stop offset="1" stop-color="#c28200"/></linearGradient><path fill="url(#t98CC9XarXfK8a8uIc1Y8a)" d="M24.414,10.414l-2.536-2.536C21.316,7.316,20.553,7,19.757,7H5C3.895,7,3,7.895,3,9v30 c0,1.105,0.895,2,2,2h38c1.105,0,2-0.895,2-2V13c0-1.105-0.895-2-2-2H25.828C25.298,11,24.789,10.789,24.414,10.414z"/><linearGradient id="t98CC9XarXfK8a8uIc1Y8b" x1="24" x2="24" y1="513.87" y2="483.741" gradientTransform="matrix(1 0 0 -1 0 524.724)" gradientUnits="userSpaceOnUse"><stop offset="0" stop-color="#ffd869"/><stop offset="1" stop-color="#d99800"/></linearGradient><path fill="url(#t98CC9XarXfK8a8uIc1Y8b)" d="M21.586,14.414l3.268-3.268C24.947,11.053,25.074,11,25.207,11H43c1.105,0,2,0.895,2,2v26 c0,1.105-0.895,2-2,2H5c-1.105,0-2-0.895-2-2V15.5C3,15.224,3.224,15,3.5,15h16.672C20.702,15,21.211,14.789,21.586,14.414z"/><linearGradient id="t98CC9XarXfK8a8uIc1Y8c" x1="20.414" x2="20.414" y1="28.427" y2="21.666" gradientUnits="userSpaceOnUse"><stop offset="0" stop-color="#c28200"/><stop offset="1" stop-color="#eba600"/></linearGradient><path fill="url(#t98CC9XarXfK8a8uIc1Y8c)" d="M12.5,29h10.672c0.53,0,1.039-0.211,1.413-0.585l3.269-3.269 C27.947,25.053,28.074,25,28.207,25h0.621c-0.53,0-1.039-0.211-1.414-0.586l-2.536-2.536C24.316,21.316,23.553,21,22.758,21H14 c-1.105,0-2,0.895-2,2v6.5C12,29.224,12.224,29,12.5,29z"/><linearGradient id="t98CC9XarXfK8a8uIc1Y8d" x1="28.5" x2="28.5" y1="41.078" y2="26.274" gradientUnits="userSpaceOnUse"><stop offset="0" stop-color="#fec52b"/><stop offset="1" stop-color="#ffd869"/></linearGradient><path fill="url(#t98CC9XarXfK8a8uIc1Y8d)" d="M28.207,25c-0.133,0-0.26,0.053-0.353,0.146l-3.268,3.268C24.211,28.789,23.702,29,23.172,29 H12.5c-0.276,0-0.5,0.224-0.5,0.5V41h31c1.105,0,2-0.895,2-2V25H28.207z"/></svg>