<svg xmlns="http://www.w3.org/2000/svg" id="Layer_1" x="0" y="0" version="1.1" viewBox="0 0 48 48" xml:space="preserve"><linearGradient id="SVGID_1_" x1="18.921" x2="25.143" y1="-472.285" y2="-451.285" gradientTransform="translate(0 478)" gradientUnits="userSpaceOnUse"><stop offset="0" stop-color="#0078d3"/><stop offset="1" stop-color="#0858a1"/></linearGradient><path fill="url(#SVGID_1_)" d="M43,29.5H5V16.6c0-0.7,0.4-1.3,0.9-1.7L22.4,4.5c1-0.6,2.2-0.6,3.2,0l16.5,10.4c0.6,0.4,0.9,1,0.9,1.7V29.5z"/><linearGradient id="SVGID_2_" x1="24" x2="24" y1="-464.584" y2="-450.767" gradientTransform="translate(0 478)" gradientUnits="userSpaceOnUse"><stop offset="0" stop-color="#fff"/><stop offset=".24" stop-color="#f8f8f7"/><stop offset="1" stop-color="#e3e3e1"/></linearGradient><path fill="url(#SVGID_2_)" d="M38,32H10V14c0-0.6,0.4-1,1-1h26c0.6,0,1,0.4,1,1V32z"/><linearGradient id="SVGID_3_" x1="25.886" x2="37.997" y1="-450.064" y2="-432.731" gradientTransform="translate(0 478)" gradientUnits="userSpaceOnUse"><stop offset="0" stop-color="#3ccbf4"/><stop offset="1" stop-color="#1fa0e5"/></linearGradient><path fill="url(#SVGID_3_)" d="M43,17v21.3c0,1-0.8,1.7-1.8,1.7H9.6l4.8-6.3L43,17z"/><linearGradient id="SVGID_4_" x1="3.074" x2="39.962" y1="-450.764" y2="-432.875" gradientTransform="translate(0 478)" gradientUnits="userSpaceOnUse"><stop offset="0" stop-color="#28afea"/><stop offset="1" stop-color="#0b88da"/></linearGradient><path fill="url(#SVGID_4_)" d="M5,17v21.3c0,1,0.8,1.7,1.8,1.7h34.5c0.6,0,1.1-0.3,1.4-0.7L5,17z"/><path d="M43,38.3V32c-1.2-0.9-2.6-1.5-4.2-1.8c-0.3-0.7-1-1.2-1.8-1.2h-2c-0.8,0-1.5,0.5-1.8,1.2	C28.4,31,25,35.1,25,40h16.2C42.2,40,43,39.2,43,38.3z" opacity=".05"/><path d="M43,38.3v-5.6c-1.3-1-2.8-1.8-4.6-2c-0.2-0.6-0.8-1.1-1.4-1.1h-2c-0.7,0-1.3,0.5-1.4,1.1	c-4.6,0.7-8.1,4.7-8.1,9.4h15.7C42.2,40,43,39.2,43,38.3z" opacity=".07"/><path fill="#ff832b" d="M47.5,44h-23c-0.3,0-0.5-0.2-0.5-0.5v-1c0-0.3,0.2-0.5,0.5-0.5h23c0.3,0,0.5,0.2,0.5,0.5v1 C48,43.8,47.8,44,47.5,44z"/><path fill="#fc6900" d="M46,41v-1c0-5-4-9-9-9h-2c-5,0-9,4-9,9v1c0,0.6-0.4,1-1,1h22C46.4,42,46,41.6,46,41z"/><path fill="#fc720f" d="M35,30h2c0.6,0,1,0.4,1,1v11h-4V31C34,30.4,34.4,30,35,30z"/></svg>