<svg xmlns="http://www.w3.org/2000/svg" viewBox="0 0 48 48"><linearGradient id="bfQC-KPimKAUqbIhk1ugWa" x1="18.951" x2="29.446" y1="10.198" y2="38.886" gradientUnits="userSpaceOnUse"><stop offset="0" stop-color="#ffd000"/><stop offset="1" stop-color="#ffc107"/></linearGradient><path fill="url(#bfQC-KPimKAUqbIhk1ugWa)" d="M24,4c-2.846,0-5.549,0.604-8,1.675v36.649C18.451,43.396,21.154,44,24,44	s5.549-0.604,8-1.675V5.675C29.549,4.604,26.846,4,24,4z"/><linearGradient id="bfQC-KPimKAUqbIhk1ugWb" x1="28.178" x2="41.538" y1="3.936" y2="41.325" gradientUnits="userSpaceOnUse"><stop offset=".008" stop-color="#f44f5a"/><stop offset=".447" stop-color="#ee3d4a"/><stop offset="1" stop-color="#e52030"/></linearGradient><path fill="url(#bfQC-KPimKAUqbIhk1ugWb)" d="M32,5.675v36.649C39.061,39.237,44,32.199,44,24S39.061,8.763,32,5.675z"/><linearGradient id="bfQC-KPimKAUqbIhk1ugWc" x1="8.261" x2="18.692" y1="12.787" y2="37.325" gradientUnits="userSpaceOnUse"><stop offset="0" stop-color="#0d61a9"/><stop offset="1" stop-color="#16528c"/></linearGradient><path fill="url(#bfQC-KPimKAUqbIhk1ugWc)" d="M4,24c0,8.199,4.939,15.237,12,18.325V5.675C8.939,8.763,4,15.801,4,24z"/><linearGradient id="bfQC-KPimKAUqbIhk1ugWd" x1="22.16" x2="27.465" y1="19.247" y2="30.907" gradientUnits="userSpaceOnUse"><stop offset="0" stop-color="#f09701"/><stop offset="1" stop-color="#e36001"/></linearGradient><path fill="url(#bfQC-KPimKAUqbIhk1ugWd)" d="M21,20v6.5c0,0.414,0.75,0.75,0.75,0.75L24,28l2.25-0.75c0,0,0.75-0.336,0.75-0.75V20H21z"/></svg>