<svg xmlns="http://www.w3.org/2000/svg" xmlns:xlink="http://www.w3.org/1999/xlink" data-name="Слой 1" viewBox="0 0 48 48"><defs><linearGradient id="JZ2Q3bEB2DiY9ek4fNG0ma" x1="6.411" x2="20.557" y1="-366.217" y2="-395.51" data-name="Безымянный градиент 82" gradientTransform="matrix(1 0 0 -1 0 -356)" gradientUnits="userSpaceOnUse"><stop offset="0" stop-color="#ffcf54"/><stop offset=".261" stop-color="#fdcb4d"/><stop offset=".639" stop-color="#f7c13a"/><stop offset="1" stop-color="#f0b421"/></linearGradient><linearGradient id="JZ2Q3bEB2DiY9ek4fNG0mb" x1="28.592" x2="33.266" y1="33.526" y2="7.271" data-name="Безымянный градиент 97" gradientUnits="userSpaceOnUse"><stop offset="0" stop-color="#0370c8"/><stop offset=".484" stop-color="#036fc5"/><stop offset=".775" stop-color="#036abd"/><stop offset="1" stop-color="#0362b0"/></linearGradient><linearGradient id="JZ2Q3bEB2DiY9ek4fNG0mc" x1="4.752" x2="26.75" y1="-354.202" y2="-399.752" xlink:href="#JZ2Q3bEB2DiY9ek4fNG0ma"/><linearGradient id="JZ2Q3bEB2DiY9ek4fNG0md" x1="17.929" x2="33.082" y1="-358.146" y2="-389.524" xlink:href="#JZ2Q3bEB2DiY9ek4fNG0ma"/><linearGradient id="JZ2Q3bEB2DiY9ek4fNG0me" x1="10.774" x2="14.04" y1="-373.864" y2="-373.29" data-name="Безымянный градиент 80" gradientTransform="matrix(1 0 0 -1 0 -356)" gradientUnits="userSpaceOnUse"><stop offset="0" stop-color="#f0b421" stop-opacity="0"/><stop offset=".512" stop-color="#e9ab12" stop-opacity=".512"/><stop offset="1" stop-color="#e09f00"/></linearGradient><linearGradient id="JZ2Q3bEB2DiY9ek4fNG0mg" x1="36.594" x2="39.499" y1="-367.42" y2="-384.212" data-name="Безымянный градиент 92" gradientTransform="matrix(1 0 0 -1 0 -356)" gradientUnits="userSpaceOnUse"><stop offset="0" stop-color="#75daff"/><stop offset="1" stop-color="#1ea2e4"/></linearGradient><radialGradient id="JZ2Q3bEB2DiY9ek4fNG0mf" cx="39" cy="-370" r="4" data-name="Безымянный градиент 96" gradientTransform="matrix(1 0 0 -1 0 -356)" gradientUnits="userSpaceOnUse"><stop offset="0"/><stop offset=".009" stop-opacity=".991"/><stop offset="1" stop-opacity="0"/></radialGradient></defs><path fill="url(#JZ2Q3bEB2DiY9ek4fNG0ma)" d="M0,16.4l6.904-5.523A3.99968,3.99968,0,0,1,9.403,10H26.618V29.145l-8.505,6.539A15.99945,15.99945,0,0,1,8.361,39H0Z"/><rect width="34" height="26" x="14" y="7" fill="url(#JZ2Q3bEB2DiY9ek4fNG0mb)" rx="2"/><path style="isolation:isolate" d="M29,14H19a2,2,0,0,0,0,4H29a2,2,0,0,0,0-4Z" opacity=".05"/><path style="isolation:isolate" d="M19,14.5A1.50055,1.50055,0,0,0,17.5,16h0A1.50055,1.50055,0,0,0,19,17.5H29A1.50055,1.50055,0,0,0,30.5,16h0A1.50055,1.50055,0,0,0,29,14.5Z" opacity=".07"/><path style="isolation:isolate" d="M29,19H19a2,2,0,0,0,0,4H29a2,2,0,0,0,0-4Z" opacity=".05"/><path style="isolation:isolate" d="M19,19.5A1.50055,1.50055,0,0,0,17.5,21h0A1.50055,1.50055,0,0,0,19,22.5H29A1.50055,1.50055,0,0,0,30.5,21h0A1.50055,1.50055,0,0,0,29,19.5Z" opacity=".07"/><path fill="#75daff" d="M29,20H19a1.00036,1.00036,0,0,0-1,1h0a1.00036,1.00036,0,0,0,1,1H29a1.00036,1.00036,0,0,0,1-1h0A1.00036,1.00036,0,0,0,29,20Z"/><path fill="#75daff" d="M29,15H19a1.00036,1.00036,0,0,0-1,1h0a1.00036,1.00036,0,0,0,1,1H29a1.00036,1.00036,0,0,0,1-1h0A1.00036,1.00036,0,0,0,29,15Z"/><path fill="url(#JZ2Q3bEB2DiY9ek4fNG0mc)" d="M7,28l19.463-8.694,3.949,6.88522-7.71,5.95293-4.06168,3.13443Z"/><circle cx="28" cy="23" r="4" fill="url(#JZ2Q3bEB2DiY9ek4fNG0md)"/><circle cx="28" cy="23" r="2.5" fill="#ffde87"/><polygon fill="url(#JZ2Q3bEB2DiY9ek4fNG0me)" points="10 26 14 25 14 10 10 10 10 26"/><path style="isolation:isolate" d="M45,24a6,6,0,0,0-12,0v3a1.99945,1.99945,0,0,0,2,2h8a1.99945,1.99945,0,0,0,2-2Z" opacity=".05"/><path style="isolation:isolate" d="M39,18.5A5.49944,5.49944,0,0,0,33.5,24v3A1.50055,1.50055,0,0,0,35,28.5h8A1.50055,1.50055,0,0,0,44.5,27V24A5.49944,5.49944,0,0,0,39,18.5Z" opacity=".07"/><circle cx="39" cy="14" r="4" fill="url(#JZ2Q3bEB2DiY9ek4fNG0mf)"/><path fill="url(#JZ2Q3bEB2DiY9ek4fNG0mg)" d="M36,14a3,3,0,1,1,3,3A2.99981,2.99981,0,0,1,36,14Zm3,5a5.00054,5.00054,0,0,0-5,5v3a1.00036,1.00036,0,0,0,1,1h8a1.00036,1.00036,0,0,0,1-1V24A5.00054,5.00054,0,0,0,39,19Z"/></svg>