<svg xmlns="http://www.w3.org/2000/svg" viewBox="0 0 48 48"><path fill="#50e6ff" d="M4,16v16c0,1.105,0.895,2,2,2h36c1.105,0,2-0.895,2-2V16c0-1.105-0.895-2-2-2H6	C4.895,14,4,14.895,4,16z"/><path d="M32.4,31c-1.875,0-3.4-1.525-3.4-3.4v-7.2c0-1.875,1.525-3.4,3.4-3.4H39.6c1.875,0,3.4,1.525,3.4,3.4	v7.2c0,1.875-1.525,3.4-3.4,3.4H32.4z" opacity=".05"/><path d="M32.4,30.5c-1.6,0-2.9-1.301-2.9-2.9v-7.2c0-1.599,1.301-2.9,2.9-2.9H39.6c1.6,0,2.9,1.301,2.9,2.9	v7.2c0,1.599-1.301,2.9-2.9,2.9H32.4z" opacity=".07"/><linearGradient id="kTKHps0e0MiaHVGYqxfXea" x1="30.332" x2="42.126" y1="18.332" y2="30.125" gradientUnits="userSpaceOnUse"><stop offset="0" stop-color="#0077d2"/><stop offset="1" stop-color="#0b59a2"/></linearGradient><path fill="url(#kTKHps0e0MiaHVGYqxfXea)" d="M32.4,30h7.2c1.325,0,2.4-1.075,2.4-2.4v-7.2c0-1.325-1.075-2.4-2.4-2.4h-7.2	c-1.325,0-2.4,1.075-2.4,2.4v7.2C30,28.925,31.075,30,32.4,30z"/><path d="M36,27c-0.454,0-0.878-0.188-1.193-0.528l-2.335-2.515c-0.481-0.52-0.607-1.282-0.319-1.942	C32.427,21.389,33.006,21,33.665,21h4.67c0.659,0,1.238,0.389,1.513,1.014c0.288,0.662,0.162,1.423-0.319,1.942l-2.336,2.517	C36.877,26.813,36.454,27,36,27z" opacity=".05"/><path d="M36,26.5c-0.313,0-0.606-0.13-0.826-0.368l-2.336-2.516c-0.347-0.374-0.436-0.924-0.228-1.402	c0.193-0.441,0.597-0.715,1.055-0.715h4.67c0.458,0,0.861,0.274,1.055,0.715c0.208,0.478,0.119,1.028-0.228,1.401l-2.336,2.517	C36.606,26.37,36.313,26.5,36,26.5z" opacity=".07"/><linearGradient id="kTKHps0e0MiaHVGYqxfXeb" x1="33" x2="39" y1="24" y2="24" gradientUnits="userSpaceOnUse"><stop offset="0" stop-color="#7dd8f3"/><stop offset="1" stop-color="#45b0d0"/></linearGradient><path fill="url(#kTKHps0e0MiaHVGYqxfXeb)" d="M38.335,22h-4.671c-0.597,0-0.89,0.813-0.46,1.276l2.335,2.516	c0.257,0.277,0.663,0.277,0.92,0l2.335-2.516C39.225,22.813,38.932,22,38.335,22z"/></svg>