<svg xmlns="http://www.w3.org/2000/svg" viewBox="0 0 48 48"><linearGradient id="AX1pge1fYCob4QEHjoOEna" x1="37" x2="37" y1="32.11" y2="24.692" gradientUnits="userSpaceOnUse"><stop offset="0" stop-color="#636363"/><stop offset=".998" stop-color="#383838"/></linearGradient><path fill="url(#AX1pge1fYCob4QEHjoOEna)" d="M34.75,30h4.5c0.414,0,0.75-0.333,0.75-0.743v-3.714h-6v3.714C34,29.667,34.336,30,34.75,30z"/><linearGradient id="AX1pge1fYCob4QEHjoOEnb" x1="11" x2="11" y1="32.11" y2="24.692" gradientUnits="userSpaceOnUse"><stop offset="0" stop-color="#636363"/><stop offset=".998" stop-color="#383838"/></linearGradient><path fill="url(#AX1pge1fYCob4QEHjoOEnb)" d="M14,29.257v-3.714H8v3.714C8,29.667,8.336,30,8.75,30h4.5C13.664,30,14,29.667,14,29.257z"/><linearGradient id="AX1pge1fYCob4QEHjoOEnc" x1="8" x2="40" y1="-19.5" y2="-19.5" gradientTransform="matrix(1 0 0 -1 0 -4)" gradientUnits="userSpaceOnUse"><stop offset="0" stop-color="#00a4f4"/><stop offset="1" stop-color="#00a5ed"/></linearGradient><path fill="url(#AX1pge1fYCob4QEHjoOEnc)" d="M37.714,12.903l-1.709-6.655C35.666,4.927,34.447,4,33.049,4H14.951	c-1.398,0-2.617,0.927-2.957,2.248l-1.708,6.655l-1.371,1.781C8.321,15.454,8,16.392,8,17.355v8.161C8,26.336,8.682,27,9.524,27	h28.952C39.318,27,40,26.336,40,25.516v-8.161c0-0.963-0.321-1.9-0.914-2.671L37.714,12.903z"/><linearGradient id="AX1pge1fYCob4QEHjoOEnd" x1="37.5" x2="42" y1="-16.5" y2="-16.5" gradientTransform="matrix(1 0 0 -1 0 -4)" gradientUnits="userSpaceOnUse"><stop offset="0" stop-color="#00a4f4"/><stop offset="1" stop-color="#00a5ed"/></linearGradient><path fill="url(#AX1pge1fYCob4QEHjoOEnd)" d="M40.5,14h-3v-1.5c0-0.829,0.671-1.5,1.5-1.5h2.25c0.414,0,0.75,0.336,0.75,0.75v0.75	C42,13.329,41.329,14,40.5,14z"/><linearGradient id="AX1pge1fYCob4QEHjoOEne" x1="6" x2="10.5" y1="-16.5" y2="-16.5" gradientTransform="matrix(1 0 0 -1 0 -4)" gradientUnits="userSpaceOnUse"><stop offset="0" stop-color="#00a4f4"/><stop offset="1" stop-color="#00a5ed"/></linearGradient><path fill="url(#AX1pge1fYCob4QEHjoOEne)" d="M7.5,14h3v-1.5c0-0.829-0.671-1.5-1.5-1.5H6.75C6.336,11,6,11.336,6,11.75v0.75	C6,13.329,6.671,14,7.5,14z"/><linearGradient id="AX1pge1fYCob4QEHjoOEnf" x1="11.813" x2="36.188" y1="-13.571" y2="-13.571" gradientTransform="matrix(1 0 0 -1 0 -4)" gradientUnits="userSpaceOnUse"><stop offset="0" stop-color="#007ad9"/><stop offset="1" stop-color="#007dd5"/></linearGradient><path fill="url(#AX1pge1fYCob4QEHjoOEnf)" d="M36.187,13.657l-0.069-0.091l-0.073-0.291l-1.682-6.663c-0.167-0.663-0.766-1.125-1.455-1.125	H15.092c-0.689,0-1.288,0.463-1.455,1.125l-1.682,6.663l-0.073,0.291l-0.07,0.091H36.187z"/><linearGradient id="AX1pge1fYCob4QEHjoOEng" x1="10.5" x2="10.5" y1="16.621" y2="19.54" gradientUnits="userSpaceOnUse"><stop offset="0" stop-color="#ffcf47"/><stop offset=".261" stop-color="#ffcb3f"/><stop offset=".639" stop-color="#ffc123"/><stop offset="1" stop-color="#ffb400"/></linearGradient><path fill="url(#AX1pge1fYCob4QEHjoOEng)" d="M11.5,20H8v-3h3.5c0.828,0,1.5,0.672,1.5,1.5v0C13,19.328,12.328,20,11.5,20z"/><linearGradient id="AX1pge1fYCob4QEHjoOEnh" x1="37.5" x2="37.5" y1="16.621" y2="19.54" gradientUnits="userSpaceOnUse"><stop offset="0" stop-color="#ffcf47"/><stop offset=".261" stop-color="#ffcb3f"/><stop offset=".639" stop-color="#ffc123"/><stop offset="1" stop-color="#ffb400"/></linearGradient><path fill="url(#AX1pge1fYCob4QEHjoOEnh)" d="M36.5,20H40v-3h-3.5c-0.828,0-1.5,0.672-1.5,1.5v0C35,19.328,35.672,20,36.5,20z"/><linearGradient id="AX1pge1fYCob4QEHjoOEni" x1="12.209" x2="10.429" y1="48.964" y2="34.228" gradientUnits="userSpaceOnUse"><stop offset=".503" stop-color="#9eabb4"/><stop offset=".658" stop-color="#9ba8b0"/><stop offset=".796" stop-color="#919da6"/><stop offset=".928" stop-color="#818c93"/><stop offset="1" stop-color="#768085"/></linearGradient><path fill="url(#AX1pge1fYCob4QEHjoOEni)" d="M9,43.26c0-2,7-4.57,7-8.53C16,31.9,13,30,13,30H9c0,0,4,1.88,4,4.74c0,2.34-7,4.85-7,8.53	C6,45.8,10,48,10,48h5C15,48,9,45.14,9,43.26z"/><linearGradient id="AX1pge1fYCob4QEHjoOEnj" x1="37.836" x2="36.055" y1="45.868" y2="31.132" gradientUnits="userSpaceOnUse"><stop offset=".503" stop-color="#9eabb4"/><stop offset=".658" stop-color="#9ba8b0"/><stop offset=".796" stop-color="#919da6"/><stop offset=".928" stop-color="#818c93"/><stop offset="1" stop-color="#768085"/></linearGradient><path fill="url(#AX1pge1fYCob4QEHjoOEnj)" d="M35,43.26c0-2,7-4.57,7-8.53C42,31.9,39,30,39,30h-4c0,0,4,1.88,4,4.74c0,2.34-7,4.85-7,8.53	C32,45.8,36,48,36,48h5C41,48,35,45.14,35,43.26z"/></svg>