<svg xmlns="http://www.w3.org/2000/svg" baseProfile="basic" viewBox="0 0 48 48"><linearGradient id="e5fv1CJqQhiQepd-PmUpca" x1="45.479" x2="3.323" y1="19.133" y2="27.704" gradientUnits="userSpaceOnUse"><stop offset="0" stop-color="#0077d2"/><stop offset="1" stop-color="#0b59a2"/></linearGradient><path fill="url(#e5fv1CJqQhiQepd-PmUpca)" d="M42,9H6c-1.1,0-2,0.9-2,2v25c0,1.1,0.9,2,2,2h36c1.1,0,2-0.9,2-2V11C44,9.9,43.1,9,42,9z"/><linearGradient id="e5fv1CJqQhiQepd-PmUpcb" x1="7.595" x2="39.793" y1="11.518" y2="35.035" gradientUnits="userSpaceOnUse"><stop offset="0" stop-color="#a8e2f7"/><stop offset="1" stop-color="#47c1ff"/></linearGradient><rect width="34" height="23" x="7" y="12" fill="url(#e5fv1CJqQhiQepd-PmUpcb)"/><path fill="#199be2" d="M15.992,41.224l-1.768,1.768l3.935,3.935c0.098,0.098,0.256,0.098,0.354,0l1.414-1.414	c0.098-0.098,0.098-0.256,0-0.354L15.992,41.224z"/><radialGradient id="e5fv1CJqQhiQepd-PmUpcc" cx="7.945" cy="35.054" r="9.798" gradientUnits="userSpaceOnUse"><stop offset="0"/><stop offset="1" stop-opacity="0"/></radialGradient><path fill="url(#e5fv1CJqQhiQepd-PmUpcc)" d="M17.89,35c0,1.05-0.16,2.05-0.46,3H4V25.79C5.2,25.28,6.51,25,7.89,25	C13.41,25,17.89,29.48,17.89,35z" opacity=".15"/><radialGradient id="e5fv1CJqQhiQepd-PmUpcd" cx="32.012" cy="35.048" r="9.802" gradientTransform="translate(-24)" gradientUnits="userSpaceOnUse"><stop offset=".693" stop-color="#006185"/><stop offset=".921" stop-color="#35c1f1"/></radialGradient><polygon fill="url(#e5fv1CJqQhiQepd-PmUpcd)" points="13.8,39.033 12.033,40.8 14.224,42.992 15.992,41.224"/><linearGradient id="e5fv1CJqQhiQepd-PmUpce" x1="26.455" x2="37.669" y1="29.455" y2="40.669" gradientTransform="translate(-24)" gradientUnits="userSpaceOnUse"><stop offset="0" stop-color="#a3ffff"/><stop offset=".223" stop-color="#9dfbff"/><stop offset=".53" stop-color="#8bf1ff"/><stop offset=".885" stop-color="#6ee0ff"/><stop offset="1" stop-color="#63daff"/></linearGradient><circle cx="8" cy="35" r="8" fill="url(#e5fv1CJqQhiQepd-PmUpce)"/></svg>