<svg xmlns="http://www.w3.org/2000/svg" xmlns:xlink="http://www.w3.org/1999/xlink" data-name="Слой 1" viewBox="0 0 48 48"><defs><linearGradient id="yHJle6FhTYvvS~ZRGMTlWj" x1="10.311" x2="15.168" y1="23.035" y2="49.088" xlink:href="#yHJle6FhTYvvS~ZRGMTlWc"/><linearGradient id="yHJle6FhTYvvS~ZRGMTlWa" x1="6" x2="19" y1="18.75" y2="18.75" data-name="Безымянный градиент 27" gradientUnits="userSpaceOnUse"><stop offset="0" stop-color="#c8d3de"/><stop offset="1" stop-color="#c8d3de"/></linearGradient><linearGradient id="yHJle6FhTYvvS~ZRGMTlWf" x1="29" x2="42" xlink:href="#yHJle6FhTYvvS~ZRGMTlWa"/><linearGradient id="yHJle6FhTYvvS~ZRGMTlWg" x1="35.399" x2="35.399" y1=".63" y2="5.196" xlink:href="#yHJle6FhTYvvS~ZRGMTlWb"/><linearGradient id="yHJle6FhTYvvS~ZRGMTlWh" x1="24" x2="24" y1="9.516" y2="24.861" data-name="Безымянный градиент 26" gradientUnits="userSpaceOnUse"><stop offset="0" stop-color="#fcfcfc"/><stop offset=".495" stop-color="#f4f4f4"/><stop offset=".946" stop-color="#e8e8e8"/><stop offset="1" stop-color="#e8e8e8"/></linearGradient><linearGradient id="yHJle6FhTYvvS~ZRGMTlWc" x1="21.722" x2="27.534" y1="20.781" y2="51.958" data-name="Безымянный градиент 100" gradientUnits="userSpaceOnUse"><stop offset="0" stop-color="#21ad64"/><stop offset="1" stop-color="#088242"/></linearGradient><linearGradient id="yHJle6FhTYvvS~ZRGMTlWd" x1="34.187" x2="39.101" y1="18.811" y2="45.165" data-name="Безымянный градиент 112" gradientUnits="userSpaceOnUse"><stop offset="0" stop-color="#33c481"/><stop offset="1" stop-color="#21a366"/></linearGradient><linearGradient id="yHJle6FhTYvvS~ZRGMTlWi" x1="26.442" x2="31.327" y1="20.225" y2="46.429" xlink:href="#yHJle6FhTYvvS~ZRGMTlWc"/><linearGradient id="yHJle6FhTYvvS~ZRGMTlWb" x1="12.552" x2="12.552" y1=".63" y2="5.196" data-name="Безымянный градиент 23" gradientUnits="userSpaceOnUse"><stop offset="0" stop-color="#d43a02"/><stop offset="1" stop-color="#b9360c"/></linearGradient><linearGradient id="yHJle6FhTYvvS~ZRGMTlWk" x1="16.619" x2="21.48" y1="22.005" y2="48.079" xlink:href="#yHJle6FhTYvvS~ZRGMTlWd"/><linearGradient id="yHJle6FhTYvvS~ZRGMTlWl" x1="22.481" x2="24.504" y1="6.144" y2="16.997" xlink:href="#yHJle6FhTYvvS~ZRGMTlWb"/><linearGradient id="yHJle6FhTYvvS~ZRGMTlWm" x1="16.08" x2="32" y1="12.36" y2="12.36" xlink:href="#yHJle6FhTYvvS~ZRGMTlWb"/><linearGradient id="yHJle6FhTYvvS~ZRGMTlWn" x1="16.08" x2="32" y1="12.105" y2="12.105" xlink:href="#yHJle6FhTYvvS~ZRGMTlWb"/><linearGradient id="yHJle6FhTYvvS~ZRGMTlWe" x1="24" x2="24" y1="13.576" y2="27.766" data-name="Безымянный градиент 21" gradientUnits="userSpaceOnUse"><stop offset="0" stop-color="#33bef0"/><stop offset="1" stop-color="#0a85d9"/></linearGradient><linearGradient id="yHJle6FhTYvvS~ZRGMTlWo" x1="12.5" x2="12.5" y1="13.576" y2="27.766" xlink:href="#yHJle6FhTYvvS~ZRGMTlWe"/><linearGradient id="yHJle6FhTYvvS~ZRGMTlWp" x1="35.5" x2="35.5" y1="13.576" y2="27.766" xlink:href="#yHJle6FhTYvvS~ZRGMTlWe"/></defs><polygon fill="url(#yHJle6FhTYvvS~ZRGMTlWa)" points="19 16 19 25 6 27 6 16 12.5 10.5 19 16"/><path fill="url(#yHJle6FhTYvvS~ZRGMTlWb)" d="M19.29478,17.75586l-6.84521-5.93262L5.98228,17.42832a.5.5,0,0,1-.70538-.05046L4.62209,16.622a.5.5,0,0,1,.05045-.70522l7.12224-6.17261a.99979.99979,0,0,1,1.30957,0l7.5,6.5Z"/><path d="M12.5,11.82,6.03,17.43c-.01.01-.02.02-.03.02v1.07a1.44759,1.44759,0,0,0,.69-.34l5.81-5.03L18.69,18.51l.31.27V17.46Z" opacity=".05"/><path d="M12.5,11.82,6.03,17.43c-.01.01-.02.02-.03.02V18a.89733.89733,0,0,0,.36-.19l6.14-5.33L19,18.11v-.65Z" opacity=".07"/><polygon fill="url(#yHJle6FhTYvvS~ZRGMTlWf)" points="42 16 42 27 29 25 29 16 35.5 10.5 42 16"/><path fill="url(#yHJle6FhTYvvS~ZRGMTlWg)" d="M41.96861,17.42843l-6.46728-5.60507L28.65611,17.756l-1.30957-1.51172,7.5-6.5a.99977.99977,0,0,1,1.30957,0l7.12224,6.1726a.5.5,0,0,1,.05045.70523l-.6548.75588A.5.5,0,0,1,41.96861,17.42843Z"/><path d="M41.97,17.43,35.5,11.82,29,17.46v1.32l.31-.27L35.5,13.15l5.81,5.03a1.44759,1.44759,0,0,0,.69.34V17.45C41.99,17.45,41.98,17.44,41.97,17.43Z" opacity=".05"/><path d="M41.97,17.43,35.5,11.82,29,17.46v.65l6.5-5.63,6.14,5.33A.89733.89733,0,0,0,42,18v-.55C41.99,17.45,41.98,17.44,41.97,17.43Z" opacity=".07"/><polygon fill="url(#yHJle6FhTYvvS~ZRGMTlWh)" points="32 14 32 24.5 16 24.5 16.08 16.48 16.08 15.96 16.09 15.37 16.1 13.9 24 6.88 32 14"/><rect width="22.5" height="18.002" x="12.75" y="24" fill="url(#yHJle6FhTYvvS~ZRGMTlWc)"/><path fill="url(#yHJle6FhTYvvS~ZRGMTlWd)" d="M45,34v6.0023a2.00591,2.00591,0,0,1-2,2H33a2.00591,2.00591,0,0,0,2-2V32a7.99782,7.99782,0,0,0-8-8h8A10.00362,10.00362,0,0,1,45,34Z"/><path fill="url(#yHJle6FhTYvvS~ZRGMTlWi)" d="M35,32v8.0023a2.00591,2.00591,0,0,1-2,2H24V24h3A7.99782,7.99782,0,0,1,35,32Z"/><path fill="url(#yHJle6FhTYvvS~ZRGMTlWj)" d="M13,32v8.0023a2.00591,2.00591,0,0,0,2,2H5a2.00591,2.00591,0,0,1-2-2V34A10.00362,10.00362,0,0,1,13,24h8A7.99782,7.99782,0,0,0,13,32Z"/><path fill="url(#yHJle6FhTYvvS~ZRGMTlWk)" d="M24,24V42.0023H15a2.00591,2.00591,0,0,1-2-2V32a7.99782,7.99782,0,0,1,8-8Z"/><path fill="url(#yHJle6FhTYvvS~ZRGMTlWl)" d="M31.95892,15.40723,24,8.22461l-7.95892,7.18262a.5.5,0,0,1-.70615-.03617l-.6698-.74205a.5.5,0,0,1,.03618-.70622l8.62877-7.787a.99992.99992,0,0,1,1.33984,0l8.62877,7.78705a.5.5,0,0,1,.03618.70622l-.6698.74205A.5.5,0,0,1,31.95892,15.40723Z"/><path fill="url(#yHJle6FhTYvvS~ZRGMTlWm)" d="M31.96,15.41,24,8.22l-7.91,7.15-.01.59v.52a1.41966,1.41966,0,0,0,.63-.33L24,9.57l7.29,6.58a1.4021,1.4021,0,0,0,.71.35V15.43A.05178.05178,0,0,1,31.96,15.41Z" opacity=".05"/><path fill="url(#yHJle6FhTYvvS~ZRGMTlWn)" d="M31.96,15.41,24,8.22l-7.91,7.15-.01.59a.92293.92293,0,0,0,.3-.18L24,8.9l7.62,6.88a1.08816,1.08816,0,0,0,.38.21v-.56A.05178.05178,0,0,1,31.96,15.41Z" opacity=".07"/><rect width="4" height="6" x="22" y="15" fill="url(#yHJle6FhTYvvS~ZRGMTlWe)" rx="1"/><rect width="3" height="5" x="11" y="17" fill="url(#yHJle6FhTYvvS~ZRGMTlWo)" rx="1"/><rect width="3" height="5" x="34" y="17" fill="url(#yHJle6FhTYvvS~ZRGMTlWp)" rx="1"/></svg>