<svg xmlns="http://www.w3.org/2000/svg" viewBox="0 0 48 48"><path fill="#50e6ff" d="M34.894,11.745H13.106c-0.752,0-1.362,0.609-1.362,1.362v20.426c0,0.752,0.609,1.362,1.362,1.362	h21.787c0.752,0,1.362-0.609,1.362-1.362V13.106C36.255,12.354,35.646,11.745,34.894,11.745z"/><linearGradient id="ZMUbq2QZUK98b2PQiXpRHa" x1="19.915" x2="36.255" y1="88.49" y2="88.49" gradientTransform="matrix(1 0 0 -1 0 118)" gradientUnits="userSpaceOnUse"><stop offset="0" stop-color="#3ccbf4"/><stop offset="1" stop-color="#1fa0e5"/></linearGradient><path fill="url(#ZMUbq2QZUK98b2PQiXpRHa)" d="M29.491,23.363c-0.782-0.782-2.046-0.799-2.849-0.039l-6.727,6.373v6.558h14.979	c0.752,0,1.362-0.609,1.362-1.362v-4.766L29.491,23.363z"/><circle cx="28.426" cy="17.532" r="2.383" fill="#fff8de"/><linearGradient id="ZMUbq2QZUK98b2PQiXpRHb" x1="23.939" x2="23.939" y1="97.958" y2="81.745" gradientTransform="matrix(1 0 0 -1 0 118)" gradientUnits="userSpaceOnUse"><stop offset="0" stop-color="#28afea"/><stop offset="1" stop-color="#0b88da"/></linearGradient><path fill="url(#ZMUbq2QZUK98b2PQiXpRHb)" d="M13.106,36.255h21.787c0.552,0,1.026-0.33,1.239-0.803L21.321,20.64	c-0.782-0.782-2.046-0.799-2.849-0.039l-6.727,6.373v7.92C11.745,35.646,12.354,36.255,13.106,36.255z"/><linearGradient id="ZMUbq2QZUK98b2PQiXpRHc" x1="-322.606" x2="-322.606" y1="3349.141" y2="3381.032" gradientTransform="matrix(0 1 1 0 -3345.888 332.106)" gradientUnits="userSpaceOnUse"><stop offset=".478" stop-color="#ad4bd5"/><stop offset=".868" stop-color="#9533c0"/><stop offset="1" stop-color="#912fbd"/></linearGradient><path fill="url(#ZMUbq2QZUK98b2PQiXpRHc)" d="M35,13H4c-0.552,0-1-0.449-1-1.001v-5C3,6.447,3.448,6,4,6h31V13z"/><linearGradient id="ZMUbq2QZUK98b2PQiXpRHd" x1="-2557.607" x2="-2557.607" y1="3390.802" y2="3358.911" gradientTransform="rotate(-90 -2932.498 413.39)" gradientUnits="userSpaceOnUse"><stop offset=".478" stop-color="#ad4bd5"/><stop offset=".868" stop-color="#9533c0"/><stop offset="1" stop-color="#912fbd"/></linearGradient><path fill="url(#ZMUbq2QZUK98b2PQiXpRHd)" d="M13,35h31c0.552,0,1,0.448,1,1v5c0,0.552-0.448,1-1,1H13V35z"/><rect width="9" height="7" x="5" y="6" opacity=".05"/><rect width="8" height="7" x="5.5" y="6" opacity=".05"/><rect width="9" height="7" x="34" y="35" opacity=".05"/><rect width="8" height="7" x="34.5" y="35" opacity=".05"/><linearGradient id="ZMUbq2QZUK98b2PQiXpRHe" x1="53.397" x2="60.25" y1="-1006.502" y2="-1045.367" gradientTransform="matrix(1 0 0 -1 -46.5 -1003.499)" gradientUnits="userSpaceOnUse"><stop offset="0" stop-color="#c965eb"/><stop offset="1" stop-color="#c767e5"/></linearGradient><path fill="url(#ZMUbq2QZUK98b2PQiXpRHe)" d="M8.642,37.401C6.945,35.611,6,33.239,6,30.773V3.999C6,3.447,6.448,3,7,3h5	c0.552,0,1,0.448,1,1v38L8.642,37.401z"/><linearGradient id="ZMUbq2QZUK98b2PQiXpRHf" x1="-2840.5" x2="-2833.5" y1="1209.002" y2="1209.002" gradientTransform="matrix(-1 0 0 1 -2798.5 -1183.502)" gradientUnits="userSpaceOnUse"><stop offset="0" stop-color="#c965eb"/><stop offset="1" stop-color="#c767e5"/></linearGradient><path fill="url(#ZMUbq2QZUK98b2PQiXpRHf)" d="M39.358,10.598C41.055,12.388,42,14.76,42,17.226V44c0,0.552-0.448,1-1,1l-5-0.001	c-0.552,0-1-0.448-1-1v-38L39.358,10.598z"/><path d="M13,13v22h22V13H13z M14,34V14h20v20H14z" opacity=".05"/><path d="M13,13v22h22V13H13z M34.5,34.5h-21v-21h21V34.5z" opacity=".05"/></svg>