<svg xmlns="http://www.w3.org/2000/svg" viewBox="0 0 48 48"><linearGradient id="v~AVym~ZI0SvuSQOi8c7ma" x1="18.188" x2="29.446" y1="519.999" y2="485.135" gradientTransform="matrix(1 0 0 -1 0 526)" gradientUnits="userSpaceOnUse"><stop offset="0" stop-color="#33bef0"/><stop offset="1" stop-color="#0a85d9"/></linearGradient><path fill="url(#v~AVym~ZI0SvuSQOi8c7ma)" d="M40,6H8C6.895,6,6,6.895,6,8v32c0,1.105,0.895,2,2,2h32c1.105,0,2-0.895,2-2V8	C42,6.895,41.105,6,40,6z"/><path d="M22,36h4c0.552,0,1-0.448,1-1V20c0-0.552-0.448-1-1-1h-4	c-0.552,0-1,0.448-1,1v15C21,35.552,21.448,36,22,36z" opacity=".05"/><path d="M22.227,35.5h3.547c0.401,0,0.727-0.325,0.727-0.727V20.227	c0-0.401-0.325-0.727-0.727-0.727h-3.547c-0.401,0-0.727,0.325-0.727,0.727v14.547C21.5,35.175,21.825,35.5,22.227,35.5z" opacity=".07"/><radialGradient id="v~AVym~ZI0SvuSQOi8c7mb" cx="33.265" cy="609.239" r="5.108" gradientTransform="matrix(.7808 0 0 -.7066 -1.974 445.89)" gradientUnits="userSpaceOnUse"><stop offset=".516"/><stop offset="1" stop-opacity="0"/></radialGradient><ellipse cx="24" cy="15.402" fill="url(#v~AVym~ZI0SvuSQOi8c7mb)" opacity=".15" rx="3.988" ry="3.609"/><path fill="#fff" d="M24,17.732c1.7,0,2.65-1.068,2.65-2.388S25.647,13,24,13s-2.65,1.024-2.65,2.344	S22.3,17.732,24,17.732z"/><rect width="4" height="15" x="22" y="20" fill="#fff"/></svg>