<svg xmlns="http://www.w3.org/2000/svg" viewBox="0 0 48 48"><linearGradient id="D9UmdgsNp0xSDhHiuOuIva" x1="24.5" x2="24.5" y1="4.563" y2="37.071" gradientUnits="userSpaceOnUse"><stop offset=".503" stop-color="#9eabb4"/><stop offset=".658" stop-color="#9ba8b0"/><stop offset=".796" stop-color="#919da6"/><stop offset=".928" stop-color="#818c93"/><stop offset="1" stop-color="#768085"/></linearGradient><path fill="url(#D9UmdgsNp0xSDhHiuOuIva)" d="M37.4,32.792c0.763-2.805,3.316-10.849,4.632-15.847C43.14,13.036,44,9.743,44,8.852	c0-3.833-2.113-3.833-2.113-3.833s-3.486-0.511-5.282,3.833c-1.563,3.779-2.738,13.965-2.989,19.061	c-4.254-0.758-15.182-2.514-25.68-2.514C6.468,25.399,5,26.903,5,28.509c0,0,0,7.491,5.873,7.491c0,0,1.412,0,3.539,0	c6.01,0,17.784,0,19.953,0c2.187,0,2.691-1.818,2.887-2.635c0.027-0.114,0.065-0.259,0.106-0.413	C37.37,32.901,37.385,32.847,37.4,32.792z"/><linearGradient id="D9UmdgsNp0xSDhHiuOuIvb" x1="9.5" x2="9.5" y1="8.571" y2="40.718" gradientUnits="userSpaceOnUse"><stop offset="0" stop-color="#f29100"/><stop offset="1" stop-color="#e84e1b"/></linearGradient><path fill="url(#D9UmdgsNp0xSDhHiuOuIvb)" d="M9.105,16.195l-3.017,4.086C5.864,20.584,6.093,21,6.483,21h6.034	c0.39,0,0.619-0.416,0.395-0.719l-3.017-4.086C9.703,15.935,9.297,15.935,9.105,16.195z"/><linearGradient id="D9UmdgsNp0xSDhHiuOuIvc" x1="19.5" x2="19.5" y1="8.571" y2="40.718" gradientUnits="userSpaceOnUse"><stop offset="0" stop-color="#f29100"/><stop offset="1" stop-color="#e84e1b"/></linearGradient><path fill="url(#D9UmdgsNp0xSDhHiuOuIvc)" d="M19.105,16.195l-3.017,4.086C15.864,20.584,16.093,21,16.483,21h6.034	c0.39,0,0.619-0.416,0.395-0.719l-3.017-4.086C19.703,15.935,19.297,15.935,19.105,16.195z"/><linearGradient id="D9UmdgsNp0xSDhHiuOuIvd" x1="29.5" x2="29.5" y1="8.571" y2="40.718" gradientUnits="userSpaceOnUse"><stop offset="0" stop-color="#f29100"/><stop offset="1" stop-color="#e84e1b"/></linearGradient><path fill="url(#D9UmdgsNp0xSDhHiuOuIvd)" d="M29.105,16.195l-3.017,4.086C25.864,20.584,26.093,21,26.483,21h6.034	c0.39,0,0.619-0.416,0.395-0.719l-3.017-4.086C29.703,15.935,29.297,15.935,29.105,16.195z"/><linearGradient id="D9UmdgsNp0xSDhHiuOuIve" x1="12.004" x2="12.004" y1="8.571" y2="40.718" gradientUnits="userSpaceOnUse"><stop offset="0" stop-color="#f29100"/><stop offset="1" stop-color="#e84e1b"/></linearGradient><path fill="url(#D9UmdgsNp0xSDhHiuOuIve)" d="M14.501,47c-0.017,0-0.032,0-0.049-0.001c-0.828-0.026-1.478-0.719-1.451-1.547	c0.082-2.588-0.234-5.122-0.94-7.53c-0.434-1.479-0.878-2.456-1.348-3.49c-0.202-0.444-0.402-0.884-0.598-1.356	C8.631,29.508,7.92,25.436,8,20.973c0.015-0.829,0.692-1.469,1.527-1.473c0.828,0.015,1.487,0.699,1.473,1.527	c-0.073,4.047,0.561,7.713,1.885,10.897c0.184,0.441,0.37,0.852,0.559,1.267c0.493,1.084,1.003,2.205,1.496,3.887	c0.796,2.714,1.152,5.563,1.06,8.47C15.974,46.359,15.308,47,14.501,47z"/><linearGradient id="D9UmdgsNp0xSDhHiuOuIvf" x1="22.004" x2="22.004" y1="8.571" y2="40.718" gradientUnits="userSpaceOnUse"><stop offset="0" stop-color="#f29100"/><stop offset="1" stop-color="#e84e1b"/></linearGradient><path fill="url(#D9UmdgsNp0xSDhHiuOuIvf)" d="M24.501,47c-0.017,0-0.032,0-0.049-0.001c-0.828-0.026-1.478-0.719-1.451-1.547	c0.082-2.588-0.234-5.122-0.94-7.53c-0.434-1.479-0.878-2.456-1.348-3.49c-0.202-0.444-0.402-0.884-0.598-1.356	c-1.484-3.568-2.195-7.64-2.115-12.103c0.015-0.819,0.684-1.473,1.499-1.473c0.01,0,0.019,0,0.028,0	c0.828,0.015,1.487,0.699,1.473,1.527c-0.073,4.047,0.561,7.713,1.885,10.897c0.184,0.441,0.37,0.852,0.559,1.267	c0.493,1.084,1.003,2.205,1.496,3.887c0.796,2.714,1.152,5.563,1.06,8.47C25.974,46.359,25.308,47,24.501,47z"/><linearGradient id="D9UmdgsNp0xSDhHiuOuIvg" x1="32.004" x2="32.004" y1="8.571" y2="40.718" gradientUnits="userSpaceOnUse"><stop offset="0" stop-color="#f29100"/><stop offset="1" stop-color="#e84e1b"/></linearGradient><path fill="url(#D9UmdgsNp0xSDhHiuOuIvg)" d="M34.501,47c-0.017,0-0.032,0-0.049-0.001c-0.828-0.026-1.478-0.719-1.451-1.547	c0.082-2.588-0.234-5.122-0.94-7.53c-0.434-1.479-0.878-2.456-1.348-3.49c-0.202-0.444-0.402-0.884-0.598-1.356	c-1.484-3.568-2.195-7.64-2.115-12.103c0.015-0.829,0.725-1.469,1.527-1.473c0.828,0.015,1.487,0.699,1.473,1.527	c-0.073,4.047,0.561,7.713,1.885,10.897c0.184,0.441,0.37,0.852,0.559,1.267c0.493,1.084,1.003,2.205,1.496,3.887	c0.796,2.714,1.152,5.563,1.06,8.47C35.974,46.359,35.308,47,34.501,47z"/></svg>