<svg xmlns="http://www.w3.org/2000/svg" viewBox="0 0 48 48"><path fill="#8c193f" d="M10.185,3.56C9.516,3.18,8.983,3,8.209,3C6.884,3,6,3.875,6,5.406v37.188 C6,44.125,6.884,45,8.209,45c0.773,0,1.307-0.18,1.976-0.56l32.213-18.163C43.287,25.773,44,25.094,44,24s-0.713-1.775-1.603-2.279 L10.185,3.56z"/><linearGradient id="JFKkdFJ3oJpFRd8sFgW7Wa" x1="26" x2="26" y1="21.965" y2="5.055" gradientUnits="userSpaceOnUse"><stop offset="0" stop-color="#b31523"/><stop offset=".021" stop-color="#b71734"/><stop offset=".048" stop-color="#ba183f"/><stop offset=".086" stop-color="#bc1946"/><stop offset=".191" stop-color="#bc1948"/><stop offset="1" stop-color="#bc1948"/></linearGradient><polygon fill="url(#JFKkdFJ3oJpFRd8sFgW7Wa)" points="12,8 40,8 40,22 12,21"/><linearGradient id="JFKkdFJ3oJpFRd8sFgW7Wb" x1="25.466" x2="31.629" y1="26.297" y2="40.189" gradientUnits="userSpaceOnUse"><stop offset="0" stop-color="#e52030"/><stop offset=".42" stop-color="#d31c2b"/><stop offset="1" stop-color="#b31523"/></linearGradient><polygon fill="url(#JFKkdFJ3oJpFRd8sFgW7Wb)" points="40,27.629 40,21 12,21 12,34 28.701,34"/><path d="M14,32v-4h5v4H14z M33,26v-4h5v4H33z M14,26v-4h5v4H14z M33,20v-4h5v4H33z M14,20v-4h5v4H14z M33,14 v-4h5v4H33z M14,14v-4h5v4H14z" opacity=".05"/><path d="M14.5,31.5v-3h4v3H14.5z M33.5,25.5v-3h4v3H33.5z M14.5,25.5v-3h4v3H14.5z M33.5,19.5v-3h4v3H33.5z M14.5,19.5v-3h4v3H14.5z M33.5,13.5v-3h4v3H33.5z M14.5,13.5v-3h4v3H14.5z" opacity=".07"/><path fill="#fff" d="M34,11h3v2h-3V11z M15,11h3v2h-3V11z M15,17h3v2h-3V17z M15,23h3v2h-3V23z M15,29h3v2h-3V29z M34,17 h3v2h-3V17z M34,23h3v2h-3V23z"/></svg>