<svg xmlns="http://www.w3.org/2000/svg" viewBox="0 0 48 48"><linearGradient id="jLYIaxG~5ZrL_rbO9HlG2a" x1="21.516" x2="45.592" y1="-579.638" y2="-615.673" gradientTransform="matrix(1 0 0 -1 0 -562)" gradientUnits="userSpaceOnUse"><stop offset="0" stop-color="#28afea"/><stop offset="1" stop-color="#0b88da"/></linearGradient><path fill="url(#jLYIaxG~5ZrL_rbO9HlG2a)" d="M9,26l36-14.308V38c0,1.105-0.895,2-2,2H9V26z"/><linearGradient id="jLYIaxG~5ZrL_rbO9HlG2b" x1="1.408" x2="36.331" y1="-586.41" y2="-608.164" gradientTransform="matrix(1 0 0 -1 0 -562)" gradientUnits="userSpaceOnUse"><stop offset="0" stop-color="#28afea"/><stop offset="1" stop-color="#0b88da"/></linearGradient><path fill="url(#jLYIaxG~5ZrL_rbO9HlG2b)" d="M3,11.692V38c0,1.105,0.895,2,2,2h38c0.491,0,0.935-0.184,1.283-0.478L3,11.692z"/><path d="M3,11h42v1.692l-17.32,13.45c-2.165,1.681-5.195,1.681-7.36,0L3,12.692V11	z" opacity=".05"/><path d="M3,10.5h42v1.692L26.966,25.304c-1.762,1.304-4.17,1.304-5.932,0L3,12.192	V10.5z" opacity=".07"/><path fill="#50e6ff" d="M5,8h38c1.105,0,2,0.895,2,2v1.692L26.252,24.466c-1.359,0.926-3.146,0.926-4.504,0L3,11.692V10	C3,8.895,3.895,8,5,8z"/><path d="M38.664,19.389c0.357,0.357,0.832,0.554,1.337,0.554s0.979-0.197,1.335-0.554L45,15.721V10	c0-1.105-0.895-2-2-2H31c0,2.352,0.908,4.58,2.563,6.283C33.648,14.368,38.579,19.303,38.664,19.389z" opacity=".05"/><path d="M39.018,19.035c0.263,0.263,0.611,0.407,0.983,0.407c0.371,0,0.72-0.145,0.981-0.407L45,15.014V10	c0-1.105-0.895-2-2-2H31.5c0,2.22,0.854,4.322,2.415,5.928C33.998,14.01,39.019,19.035,39.018,19.035z" opacity=".07"/><linearGradient id="jLYIaxG~5ZrL_rbO9HlG2c" x1="34.344" x2="45.656" y1="-564.343" y2="-575.654" gradientTransform="matrix(1 0 0 -1 0 -562)" gradientUnits="userSpaceOnUse"><stop offset="0" stop-color="#d43a02"/><stop offset="1" stop-color="#b9360c"/></linearGradient><path fill="url(#jLYIaxG~5ZrL_rbO9HlG2c)" d="M45.734,13.571C47.134,12.131,48,10.168,48,8c0-4.418-3.582-8-8-8s-8,3.582-8,8	c0,2.168,0.866,4.131,2.266,5.571c0.008,0.008,5.106,5.111,5.106,5.111c0.347,0.347,0.91,0.347,1.257,0	C40.629,18.682,45.726,13.58,45.734,13.571z"/><radialGradient id="jLYIaxG~5ZrL_rbO9HlG2d" cx="40" cy="-570" r="3.5" gradientTransform="matrix(1 0 0 -1 0 -562)" gradientUnits="userSpaceOnUse"><stop offset=".177"/><stop offset="1" stop-opacity="0"/></radialGradient><circle cx="40" cy="8" r="3.5" fill="url(#jLYIaxG~5ZrL_rbO9HlG2d)"/><circle cx="40" cy="8" r="3" fill="#f9f9f9"/></svg>