<svg xmlns="http://www.w3.org/2000/svg" data-name="Layer 1" viewBox="0 0 48 48"><defs><linearGradient id="asMR9FsfqP8a0XzsnlDzBa" x1="35.216" x2="12.312" y1="35.081" y2="12.491" data-name="Безымянный градиент 137" gradientUnits="userSpaceOnUse"><stop offset="0" stop-color="#ffda94"/><stop offset="1" stop-color="#fff0ce"/></linearGradient></defs><path fill="url(#asMR9FsfqP8a0XzsnlDzBa)" d="M13.50509,15.586a17.66105,17.66105,0,0,1,5.37-5.98636A19.37195,19.37195,0,0,1,26.23756,6.3953a18.70776,18.70776,0,0,1,8.43364.233,22.0947,22.0947,0,0,1,7.51861,3.67045l.198.14579a6.394,6.394,0,0,1,1.34637,8.97316,6.46968,6.46968,0,0,1-9.019,1.33957,6.85054,6.85054,0,0,1-.91863-.82328,8.16938,8.16938,0,0,0-6.10252-3.01268,9.40935,9.40935,0,0,0-6.8629,3.038l-.35574.40792a4.27455,4.27455,0,0,1-6.00866.42393A4.22637,4.22637,0,0,1,13.50509,15.586ZM33.53322,27.24242a4.2734,4.2734,0,0,0-6.00866.4241l-.35574.40807a9.40764,9.40764,0,0,1-6.8629,3.03921A8.1682,8.1682,0,0,1,14.2034,28.1a6.85135,6.85135,0,0,0-.91863-.82361,6.468,6.468,0,0,0-9.019,1.34009,6.39809,6.39809,0,0,0,1.34637,8.97665l.198.14585a22.09117,22.09117,0,0,0,7.51861,3.67188,18.70069,18.70069,0,0,0,8.43364.233A19.36828,19.36828,0,0,0,29.125,38.43831a17.66565,17.66565,0,0,0,5.37-5.9887A4.22916,4.22916,0,0,0,33.53322,27.24242Z"/></svg>