<svg xmlns="http://www.w3.org/2000/svg" xmlns:xlink="http://www.w3.org/1999/xlink" data-name="Слой 1" viewBox="0 0 48 48"><defs><linearGradient id="kLdf18ko5~zlmY_QXUbM7b" x1="11.872" x2="37.128" y1="-248.525" y2="-273.782" data-name="Новый образец градиентной зал 3" gradientTransform="matrix(1 0 0 -1 0 -240)" gradientUnits="userSpaceOnUse"><stop offset="0" stop-color="#32bdef"/><stop offset="1" stop-color="#1ea2e4"/></linearGradient><linearGradient id="kLdf18ko5~zlmY_QXUbM7a" x1="14.5" x2="14.5" y1="15.372" y2="31" data-name="Безымянный градиент 129" gradientUnits="userSpaceOnUse"><stop offset="0" stop-color="#ffd869"/><stop offset="1" stop-color="#fec52b"/></linearGradient><linearGradient id="kLdf18ko5~zlmY_QXUbM7c" x1="24.5" x2="24.5" y1="15.372" y2="31" xlink:href="#kLdf18ko5~zlmY_QXUbM7a"/><linearGradient id="kLdf18ko5~zlmY_QXUbM7d" x1="34.5" x2="34.5" y1="15.372" y2="31" xlink:href="#kLdf18ko5~zlmY_QXUbM7a"/><linearGradient id="kLdf18ko5~zlmY_QXUbM7e" x1="19.5" x2="19.5" y1="15.372" y2="31" xlink:href="#kLdf18ko5~zlmY_QXUbM7a"/><linearGradient id="kLdf18ko5~zlmY_QXUbM7f" x1="29.5" x2="29.5" y1="15.372" y2="31" xlink:href="#kLdf18ko5~zlmY_QXUbM7a"/></defs><path fill="url(#kLdf18ko5~zlmY_QXUbM7b)" d="M37.04361,33.536A18.20047,18.20047,0,0,0,42,21,17.7567,17.7567,0,0,0,24.5,3,17.7567,17.7567,0,0,0,7,21a18.20047,18.20047,0,0,0,4.95639,12.536c.0175.019.02916.04.04667.059l.05736.059c.04569.048.09139.095.138.142L23.12528,45.035a1.90608,1.90608,0,0,0,2.74944,0L36.80153,33.796c.04666-.047.09236-.094.138-.142l.05736-.059C37.01542,33.576,37.02708,33.554,37.04361,33.536Z"/><path fill="url(#kLdf18ko5~zlmY_QXUbM7a)" d="M17,22H12V19a2,2,0,0,1,2-2h3Z"/><rect width="5" height="5" x="22" y="17" fill="url(#kLdf18ko5~zlmY_QXUbM7c)"/><path fill="url(#kLdf18ko5~zlmY_QXUbM7d)" d="M37,22H32V17h3a2,2,0,0,1,2,2Z"/><rect width="5" height="5" x="17" y="17" fill="#565b5e"/><rect width="5" height="5" x="27" y="17" fill="#565b5e"/><path fill="#565b5e" d="M17,27H14a2,2,0,0,1-2-2V22h5Z"/><rect width="5" height="5" x="22" y="22" fill="#565b5e"/><path fill="#565b5e" d="M35,27H32V22h5v3A2,2,0,0,1,35,27Z"/><rect width="5" height="5" x="17" y="22" fill="url(#kLdf18ko5~zlmY_QXUbM7e)"/><rect width="5" height="5" x="27" y="22" fill="url(#kLdf18ko5~zlmY_QXUbM7f)"/><g><path d="M35,17a2,2,0,0,1,2,2v6a2,2,0,0,1-2,2H14a2,2,0,0,1-2-2V19a2,2,0,0,1,2-2H35m0-1H14a3.00339,3.00339,0,0,0-3,3v6a3.00339,3.00339,0,0,0,3,3H35a3.00339,3.00339,0,0,0,3-3V19a3.00339,3.00339,0,0,0-3-3Z" opacity=".05"/><path d="M35,17a2,2,0,0,1,2,2v6a2,2,0,0,1-2,2H14a2,2,0,0,1-2-2V19a2,2,0,0,1,2-2H35m0-.5H14A2.50282,2.50282,0,0,0,11.5,19v6A2.50282,2.50282,0,0,0,14,27.5H35A2.50282,2.50282,0,0,0,37.5,25V19A2.50282,2.50282,0,0,0,35,16.5Z" opacity=".07"/></g></svg>