<svg xmlns="http://www.w3.org/2000/svg" viewBox="0 0 48 48"><linearGradient id="rgtybR5fDU8R4IgIFkOP5a" x1="477.179" x2="472.772" y1="522.187" y2="522.187" gradientTransform="scale(-1 1) rotate(45 797.68 -335.599)" gradientUnits="userSpaceOnUse"><stop offset=".365" stop-color="#199ae0"/><stop offset=".699" stop-color="#1898de"/><stop offset=".819" stop-color="#1691d8"/><stop offset=".905" stop-color="#1186cc"/><stop offset=".974" stop-color="#0a75bc"/><stop offset="1" stop-color="#076cb3"/></linearGradient><path fill="url(#rgtybR5fDU8R4IgIFkOP5a)" d="M33.973,42.761c-0.446,0-0.669-0.539-0.354-0.854l3.439-3.439l4.293,4.293H33.973z"/><linearGradient id="rgtybR5fDU8R4IgIFkOP5b" x1="19.388" x2="28.413" y1="-9.945" y2="52.099" gradientTransform="scale(1 -1) rotate(90 48.763 0)" gradientUnits="userSpaceOnUse"><stop offset="0" stop-color="#1ea2e4"/><stop offset="1" stop-color="#32bdef"/></linearGradient><path fill="url(#rgtybR5fDU8R4IgIFkOP5b)" d="M9.115,6.295l30.06,30.056l2.74-2.74c0.31-0.31,0.85-0.09,0.85,0.36v7.79c0,0.55-0.45,1-1,1 h-1.41c-0.27,0-0.52-0.11-0.71-0.29L6.291,9.12C5.9,8.73,5.9,8.096,6.291,7.706l1.411-1.411C8.092,5.905,8.725,5.905,9.115,6.295z"/></svg>