<svg xmlns="http://www.w3.org/2000/svg" xmlns:xlink="http://www.w3.org/1999/xlink" data-name="Слой 1" viewBox="0 0 48 48"><defs><linearGradient id="emM9rtcWgQFn~Ga8WB5f3b" x1="8" x2="20" y1="23" y2="23" gradientUnits="userSpaceOnUse"><stop offset="0" stop-color="#ffcf54"/><stop offset=".261" stop-color="#fdcb4d"/><stop offset=".639" stop-color="#f7c13a"/><stop offset="1" stop-color="#f0b421"/></linearGradient><linearGradient id="emM9rtcWgQFn~Ga8WB5f3a" x1="27.478" x2="40.66" y1="23.478" y2="10.296" data-name="Безымянный градиент 152" gradientTransform="rotate(45 32.728 18.228)" gradientUnits="userSpaceOnUse"><stop offset="0" stop-color="#2aa4f4"/><stop offset="1" stop-color="#007ad9"/></linearGradient><linearGradient id="emM9rtcWgQFn~Ga8WB5f3c" x1="32.059" x2="51.073" y1="18.929" y2="-.085" gradientTransform="rotate(44.997 38.999 11.99)" xlink:href="#emM9rtcWgQFn~Ga8WB5f3a"/></defs><ellipse cx="42.5" cy="8.5" fill="#50e6ff" rx="1.414" ry="3" transform="rotate(-45 42.5 8.5)"/><path fill="#64717c" d="M31,43l4.5-20.55273L40,43h2.05286L36.47461,17.77539a1.0002,1.0002,0,0,0-1.94922,0L28.94714,43Z"/><path fill="#64717c" d="M32.41406,21.37012,29.58594,18.542,23.47829,24.65a1,1,0,0,1-1.41424,0l-2.857-2.857L17.793,23.207,24.5,30V29l1.0993-.81476Z"/><circle cx="14" cy="23" r="6" fill="url(#emM9rtcWgQFn~Ga8WB5f3b)"/><circle cx="25.5" cy="30.5" r="2.5" fill="#35c1f1"/><circle cx="10" cy="36" r="6" fill="#35c1f1"/><path fill="#35c1f1" d="M4,36H16a0,0,0,0,1,0,0v6a1,1,0,0,1-1,1H5a1,1,0,0,1-1-1V36A0,0,0,0,1,4,36Z"/><path fill="#35c1f1" d="M27.69674,31.69315,21.29785,41.92478a2.30188,2.30188,0,0,1-3.28958.65256L13,39l.79044-7.65109L19,36l4.3531-6.78132Z"/><rect width="12.568" height="6.273" x="26.444" y="15.092" fill="url(#emM9rtcWgQFn~Ga8WB5f3a)" rx="1.046" transform="rotate(-45 32.728 18.228)"/><path fill="url(#emM9rtcWgQFn~Ga8WB5f3c)" d="M34.99179,7.93159h8.0133a1.01469,1.01469,0,0,1,1.01469,1.01469v6.08628a1.01413,1.01413,0,0,1-1.01413,1.01413h-8.0133A1.01469,1.01469,0,0,1,33.97766,15.032V8.94571A1.01413,1.01413,0,0,1,34.99179,7.93159Z" transform="rotate(-44.997 38.999 11.99)"/></svg>