<svg xmlns="http://www.w3.org/2000/svg" viewBox="0 0 48 48"><linearGradient id="wT8lYZM9XgG~fcpozpp64a" x1="24" x2="24" y1="-566.939" y2="-604.939" gradientTransform="matrix(1 0 0 -1 0 -562)" gradientUnits="userSpaceOnUse"><stop offset="0" stop-color="#f0f0f0"/><stop offset="1" stop-color="#bbc1c4"/></linearGradient><path fill="url(#wT8lYZM9XgG~fcpozpp64a)" d="M40,43H8c-1.105,0-2-0.895-2-2V15L24,5l18,10v26C42,42.105,41.105,43,40,43z"/><rect width="30" height="2" x="9" y="41" fill="#64717c"/><rect width="30" height="2" x="9" y="39" fill="#889097"/><rect width="30" height="2" x="9" y="37" fill="#64717c"/><rect width="30" height="2" x="9" y="35" fill="#889097"/><rect width="30" height="2" x="9" y="33" fill="#64717c"/><rect width="30" height="2" x="9" y="31" fill="#889097"/><rect width="30" height="2" x="9" y="29" fill="#64717c"/><rect width="30" height="2" x="9" y="27" fill="#889097"/><rect width="30" height="2" x="9" y="25" fill="#64717c"/><path fill="#64717c" d="M39,23H9v-1c0-0.552,0.448-1,1-1h28c0.552,0,1,0.448,1,1V23z"/><rect width="30" height="2" x="9" y="23" fill="#889097"/><linearGradient id="wT8lYZM9XgG~fcpozpp64b" x1="23.999" x2="23.999" y1="-565.049" y2="-578.827" gradientTransform="matrix(1 0 0 -1 0 -562)" gradientUnits="userSpaceOnUse"><stop offset="0" stop-color="#0176d0"/><stop offset="1" stop-color="#16538c"/></linearGradient><path fill="url(#wT8lYZM9XgG~fcpozpp64b)" d="M41.654,17.096L24,7.288L6.346,17.096c-0.483,0.268-1.092,0.094-1.36-0.388l-0.972-1.749	c-0.268-0.483-0.094-1.092,0.388-1.36l18.14-10.078c0.906-0.503,2.008-0.503,2.914,0l18.14,10.078	c0.483,0.268,0.657,0.877,0.388,1.36l-0.972,1.749C42.746,17.191,42.137,17.365,41.654,17.096z"/><rect width="8" height="2" x="20" y="41" fill="#323538"/></svg>