<svg xmlns="http://www.w3.org/2000/svg" viewBox="0 0 48 48"><linearGradient id="t079Eapw0fSQQckaJG8R9a" x1="24" x2="24" y1="-6.352" y2="68.067" gradientUnits="userSpaceOnUse"><stop offset="0" stop-color="#fed100"/><stop offset="1" stop-color="#e36001"/></linearGradient><path fill="url(#t079Eapw0fSQQckaJG8R9a)" d="M45.534,32.368l-5.678-13.92C36.88,10.787,29.166,5.46,20.277,6.044	C10.488,6.666,2.578,14.598,2.03,24.319c-0.352,6.455,2.428,12.287,7.009,16.059l0,0C9.548,40.767,10.175,41,10.84,41h22.516h6.304	C44.125,41,47.218,36.49,45.534,32.368z"/><radialGradient id="t079Eapw0fSQQckaJG8R9b" cx="19.5" cy="22.5" r="5" gradientTransform="translate(0 2)" gradientUnits="userSpaceOnUse"><stop offset="0"/><stop offset="1" stop-opacity="0"/></radialGradient><circle cx="19.5" cy="24.5" r="5" fill="url(#t079Eapw0fSQQckaJG8R9b)" opacity=".15"/><linearGradient id="t079Eapw0fSQQckaJG8R9c" x1="31.101" x2="31.101" y1="28.889" y2="7.826" gradientUnits="userSpaceOnUse"><stop offset="0" stop-color="#45494d"/><stop offset="1" stop-color="#6d7479"/></linearGradient><path fill="url(#t079Eapw0fSQQckaJG8R9c)" d="M17.5,24l19.602-10.029c1.028-0.526,2.287-0.074,2.746,0.985l4.687,10.816	c0.525,1.211-0.242,2.582-1.547,2.776C40.29,28.948,35.371,29.229,28,28C20.456,26.743,17.5,24,17.5,24z"/><radialGradient id="t079Eapw0fSQQckaJG8R9d" cx="19.093" cy="23.492" r="6.222" gradientUnits="userSpaceOnUse"><stop offset="0" stop-color="#dfe9f2"/><stop offset=".391" stop-color="#d6e0e9"/><stop offset="1" stop-color="#bfc8d1"/></radialGradient><circle cx="19.5" cy="24.5" r="4" fill="url(#t079Eapw0fSQQckaJG8R9d)"/><linearGradient id="t079Eapw0fSQQckaJG8R9e" x1="19.5" x2="19.5" y1="27" y2="19.45" gradientUnits="userSpaceOnUse"><stop offset="0" stop-color="#45494d"/><stop offset="1" stop-color="#6d7479"/></linearGradient><circle cx="19.5" cy="24.5" r="2.5" fill="url(#t079Eapw0fSQQckaJG8R9e)"/><linearGradient id="t079Eapw0fSQQckaJG8R9f" x1="18.856" x2="18.856" y1="41.693" y2="26.809" gradientUnits="userSpaceOnUse"><stop offset="0" stop-color="#45494d"/><stop offset="1" stop-color="#6d7479"/></linearGradient><path fill="url(#t079Eapw0fSQQckaJG8R9f)" d="M22.5,34H4v0.008c1.215,2.464,2.934,4.636,5.039,6.369C9.548,40.767,10.175,41,10.84,41	h22.516h0.356C31.676,36.858,27.427,34,22.5,34z"/></svg>