<svg xmlns="http://www.w3.org/2000/svg" xmlns:xlink="http://www.w3.org/1999/xlink" data-name="Слой 1" viewBox="0 0 48 48"><defs><linearGradient id="kNZN7SNpWQ0b6JEnzj5iBc" x1="10.353" x2="19.381" y1="561.649" y2="552.621" data-name="Безымянный градиент 245" gradientTransform="matrix(1 0 0 -1 0 572.005)" gradientUnits="userSpaceOnUse"><stop offset="0" stop-color="#fed100"/><stop offset="1" stop-color="#e36001"/></linearGradient><linearGradient id="kNZN7SNpWQ0b6JEnzj5iBa" x1="25.39" x2="27.973" y1="560.939" y2="545.718" data-name="Безымянный градиент 244" gradientTransform="matrix(1 0 0 -1 0 572.005)" gradientUnits="userSpaceOnUse"><stop offset="0" stop-color="#fcfcfc"/><stop offset="1" stop-color="#c3c9cd"/></linearGradient><linearGradient id="kNZN7SNpWQ0b6JEnzj5iBd" x1="19.477" x2="15.196" y1="28.104" y2="39.864" gradientTransform="matrix(-1 0 0 1 34 0)" xlink:href="#kNZN7SNpWQ0b6JEnzj5iBa"/><radialGradient id="kNZN7SNpWQ0b6JEnzj5iBb" cx="16.717" cy="18.894" r="39.719" data-name="Безымянный градиент 243" gradientUnits="userSpaceOnUse"><stop offset="0" stop-color="#2aa4f4"/><stop offset=".595" stop-color="#0f80e3"/><stop offset="1" stop-color="#006dd9"/></radialGradient></defs><rect width="36" height="36" x="6" y="6" fill="url(#kNZN7SNpWQ0b6JEnzj5iBb)" rx="2"/><path fill="url(#kNZN7SNpWQ0b6JEnzj5iBc)" d="M15.5,10.0023a5.5,5.5,0,1,0,5.5,5.5A5.50024,5.50024,0,0,0,15.5,10.0023Z"/><path fill="url(#kNZN7SNpWQ0b6JEnzj5iBa)" d="M33,14.0023c-.1986,0-.3942.0108-.588.0294a7.48806,7.48806,0,0,0-13.2192,2.4132A4.79785,4.79785,0,0,0,19.8,26.0023H33a6,6,0,0,0,0-12Z"/><path fill="url(#kNZN7SNpWQ0b6JEnzj5iBd)" d="M11,33.21188a2.76946,2.76946,0,0,1,2.35714-2.75023v-.02428a2.12168,2.12168,0,0,1,.39286-.03188,1.4586,1.4586,0,0,1,.26716.016A3.40654,3.40654,0,0,1,16.775,29.0023a3.44214,3.44214,0,0,1,3.3,2.54328A2.23964,2.23964,0,0,1,19.8,36.0023H13.75a1.17125,1.17125,0,0,1-.2357-.016l-.00125-.00827A2.76522,2.76522,0,0,1,11,33.21188Z"/><path fill="#343434" d="M31.00038,38.00182a1.00086,1.00086,0,0,1-1-1,5.08867,5.08867,0,0,0-2.44727-4.10547,1.00011,1.00011,0,0,1,.89453-1.78906,6.73009,6.73009,0,0,1,3.16114,3.835,7.00683,7.00683,0,0,1,4.3916-1.94043,1,1,0,0,1,0,2c-1.46387,0-3.17383,1.31836-4.21875,2.625A1.00363,1.00363,0,0,1,31.00038,38.00182Z"/></svg>