<svg xmlns="http://www.w3.org/2000/svg" xmlns:xlink="http://www.w3.org/1999/xlink" data-name="Слой 1" viewBox="0 0 48 48"><defs><linearGradient id="znl1Md9nICGGmFUnd9aaYb" x1="30.5" x2="30.5" y1="4.045" y2="11.251" gradientUnits="userSpaceOnUse"><stop offset="0" stop-color="#f44f5a"/><stop offset=".443" stop-color="#ee3d4a"/><stop offset="1" stop-color="#e52030"/></linearGradient><linearGradient id="znl1Md9nICGGmFUnd9aaYa" x1="31" x2="33" y1="14.984" y2="14.984" data-name="Безымянный градиент 283" gradientUnits="userSpaceOnUse"><stop offset="0" stop-color="#4c4c4c"/><stop offset="1" stop-color="#343434"/></linearGradient><linearGradient id="znl1Md9nICGGmFUnd9aaYc" x1="35.121" x2="46.547" y1="19.099" y2="50.49" xlink:href="#znl1Md9nICGGmFUnd9aaYa"/><linearGradient id="znl1Md9nICGGmFUnd9aaYd" x1="-.591" x2="37.257" y1="32.984" y2="32.984" data-name="Безымянный градиент 274" gradientUnits="userSpaceOnUse"><stop offset="0" stop-color="#f9f9f9"/><stop offset="1" stop-color="#c2c8cc"/></linearGradient></defs><path fill="#cdd2d6" d="M4.5,17.98389h0a1.5,1.5,0,0,1,1.5,1.5v7.5a0,0,0,0,1,0,0H3a0,0,0,0,1,0,0v-7.5a1.5,1.5,0,0,1,1.5-1.5Z"/><path fill="#cdd2d6" d="M7.5,19.98389h0a1.5,1.5,0,0,1,1.5,1.5v5.5a0,0,0,0,1,0,0H6a0,0,0,0,1,0,0v-5.5A1.5,1.5,0,0,1,7.5,19.98389Z"/><path fill="#cdd2d6" d="M10.5,21.98389h0a1.5,1.5,0,0,1,1.5,1.5v3.5a0,0,0,0,1,0,0H9a0,0,0,0,1,0,0v-3.5A1.5,1.5,0,0,1,10.5,21.98389Z"/><path fill="#bd8215" d="M34.5,13.98389v4l3.25673-1.52566a.58408.58408,0,0,0,0-.94868Z"/><path fill="url(#znl1Md9nICGGmFUnd9aaYb)" d="M32.5,4.98389a1.496,1.496,0,0,0-1.44226,1.10974,1.488,1.488,0,0,0-2,1A1.49544,1.49544,0,0,0,27,8.48389v3.5h7v-5.5A1.5,1.5,0,0,0,32.5,4.98389Z"/><path fill="#cdd2d6" d="M34.49615,12.953a4.53613,4.53613,0,0,0-5.48-3.86452A4.611,4.611,0,0,0,25.489,13.07173L24.219,23.232a1.99993,1.99993,0,0,1-1.98455,1.75186H3v2.65692A16.35919,16.35919,0,0,0,19.35919,44h.28162A16.35919,16.35919,0,0,0,36,27.64081v0a42.677,42.677,0,0,0-.32954-5.29329Z"/><circle cx="32" cy="14.984" r="1" fill="url(#znl1Md9nICGGmFUnd9aaYa)"/><path fill="url(#znl1Md9nICGGmFUnd9aaYc)" d="M41,17.0023a1,1,0,1,1-1-1A1,1,0,0,1,41,17.0023Zm-2,4a1,1,0,1,0,1,1A1,1,0,0,0,39,21.0023Zm5,2a1,1,0,1,0,1,1A1,1,0,0,0,44,23.0023Zm1,6a1,1,0,1,0,1,1A1,1,0,0,0,45,29.0023Zm-6,7a1,1,0,1,0,1,1A1,1,0,0,0,39,36.0023Zm-3,4a1,1,0,1,0,1,1A1,1,0,0,0,36,40.0023Zm4-14a1,1,0,1,0,1,1A1,1,0,0,0,40,26.0023Zm1,4a1,1,0,1,0,1,1A1,1,0,0,0,41,30.0023Zm2,4a1,1,0,1,0,1,1A1,1,0,0,0,43,34.0023Zm0,5a1,1,0,1,0,1,1A1,1,0,0,0,43,39.0023Z"/><path d="M23.05469,26.9839a4.0089,4.0089,0,0,1,3.55017,5.8533A10.88815,10.88815,0,0,1,17,38.9839c-5.73694,0-10.44812-4.79114-10.95483-10.90564a1.00435,1.00435,0,0,1,.99536-1.09436H23.05469m0-1H7.04053a1.99924,1.99924,0,0,0-1.4668.64365,2.02251,2.02251,0,0,0-.52515,1.53323C5.60718,34.90107,10.74512,39.9839,17,39.9839a11.90014,11.90014,0,0,0,10.49451-6.69016,5.00884,5.00884,0,0,0-4.43982-7.30984Z" opacity=".05"/><path d="M23.05469,26.9839a4.0089,4.0089,0,0,1,3.55017,5.8533A10.88815,10.88815,0,0,1,17,38.9839c-5.73694,0-10.44812-4.79114-10.95483-10.90564a1.00435,1.00435,0,0,1,.99536-1.09436H23.05469m0-.5H7.04053a1.49792,1.49792,0,0,0-1.099.4823,1.52131,1.52131,0,0,0-.39465,1.15332C6.08374,34.59828,11.00757,39.4839,17,39.4839a11.40257,11.40257,0,0,0,10.04968-6.41843,4.5088,4.5088,0,0,0-3.995-6.58157Z" opacity=".07"/><path fill="url(#znl1Md9nICGGmFUnd9aaYd)" d="M17,38.98389a10.88821,10.88821,0,0,0,9.60489-6.14668,4.00894,4.00894,0,0,0-3.55017-5.85332H7.04058a1.00436,1.00436,0,0,0-.9954,1.09436C6.55186,34.19277,11.26306,38.98389,17,38.98389Z"/></svg>