<svg xmlns="http://www.w3.org/2000/svg" baseProfile="basic" viewBox="0 0 48 48"><polygon fill="#eba600" points="20,38 20,47 44,45 44,38"/><linearGradient id="OK2Bsk2DOQhx7cqkuCIkAa" x1="31.888" x2="31.888" y1="26" y2="38" gradientUnits="userSpaceOnUse"><stop offset="0" stop-color="#ffd869"/><stop offset="1" stop-color="#fec52b"/></linearGradient><path fill="url(#OK2Bsk2DOQhx7cqkuCIkAa)" d="M43.781,36.811C43.761,36.702,41.583,26,32,26c-9.566,0-11.955,10.684-11.978,10.791	L19.765,38h24.247L43.781,36.811z"/><path fill="#eba600" d="M29.41,25.96c0,0,0.83,0.04,2.59,0.04c-4.09,0-5,8.66-5,12l-1,1l-1-1C25,28,29.41,25.96,29.41,25.96z"/><path fill="#eba600" d="M34.59,25.96c0,0-0.83,0.04-2.59,0.04c4.09,0,5,8.66,5,12l1,1l1-1C39,28,34.59,25.96,34.59,25.96z"/><path fill="#c28200" d="M33.5,34.5c0,0-0.653-0.5-1.5-0.5s-1.5,0.5-1.5,0.5V38h3V34.5z"/><path fill="#eba600" d="M19.918,37h24c0.552,0,1,0.448,1,1l0,0c0,0.552-0.448,1-1,1h-24c-0.552,0-1-0.448-1-1l0,0	C18.918,37.448,19.366,37,19.918,37z"/><linearGradient id="OK2Bsk2DOQhx7cqkuCIkAb" x1="32" x2="32" y1="21" y2="27" gradientUnits="userSpaceOnUse"><stop offset="0" stop-color="#ffd869"/><stop offset="1" stop-color="#fec52b"/></linearGradient><polygon fill="url(#OK2Bsk2DOQhx7cqkuCIkAb)" points="30,22 30,27 34,27 34,22 32,21"/><linearGradient id="OK2Bsk2DOQhx7cqkuCIkAc" x1="32" x2="32" y1="20" y2="22" gradientUnits="userSpaceOnUse"><stop offset="0" stop-color="#ffd869"/><stop offset="1" stop-color="#fec52b"/></linearGradient><path fill="url(#OK2Bsk2DOQhx7cqkuCIkAc)" d="M34,22c0,0-0.487-2-2-2s-2,2-2,2H34z"/><path fill="#eba600" d="M29.837,25H34c0.552,0,1,0.448,1,1v1h-6.163v-1C28.837,25.448,29.285,25,29.837,25z"/><linearGradient id="OK2Bsk2DOQhx7cqkuCIkAd" x1="31" x2="31" y1="37" y2="47" gradientUnits="userSpaceOnUse"><stop offset="0" stop-color="#ffd869"/><stop offset="1" stop-color="#fec52b"/></linearGradient><path fill="url(#OK2Bsk2DOQhx7cqkuCIkAd)" d="M42.055,43.947l-0.24-0.396C40.435,41.261,37.866,37,32,37c-5.863,0-8.433,4.26-9.812,6.548	l-0.242,0.399C21.546,44.597,20.801,45,20,45h-2v2h26v-2C43.199,45,42.454,44.597,42.055,43.947z"/><path fill="#c28200" d="M29,47v-4c1,0,1.404-1,3-1c1.596,0,2,1,3,1v4"/><radialGradient id="OK2Bsk2DOQhx7cqkuCIkAe" cx="12.5" cy="2.44" r="4.993" gradientUnits="userSpaceOnUse"><stop offset="0" stop-color="#ffd869"/><stop offset="1" stop-color="#fec52b"/></radialGradient><path fill="url(#OK2Bsk2DOQhx7cqkuCIkAe)" d="M16,6l-3.5,3L9,6c0-0.22,0.07-0.44,0.21-0.61C9.23,5.37,9.84,4.54,10.22,3l2.28-1l2.27,1	c0.39,1.55,1.01,2.38,1.02,2.39C15.92,5.56,16,5.78,16,6z"/><linearGradient id="OK2Bsk2DOQhx7cqkuCIkAf" x1="12.5" x2="12.5" y1="6" y2="13.452" gradientUnits="userSpaceOnUse"><stop offset="0" stop-color="#ffd869"/><stop offset="1" stop-color="#fec52b"/></linearGradient><polyline fill="url(#OK2Bsk2DOQhx7cqkuCIkAf)" points="9,14 9,6 16,6 16,14"/><path fill="#c28200" d="M11.5,13.997V9c0-0.553,0.447-1,1-1s1,0.447,1,1v4.997H11.5z"/><path fill="#c28200" d="M10,9v5H9V8C9.55,8,10,8.45,10,9z"/><path fill="#c28200" d="M15,9v5h1V8C15.45,8,15,8.45,15,9z"/><linearGradient id="OK2Bsk2DOQhx7cqkuCIkAg" x1="12.5" x2="12.5" y1="13" y2="22" gradientUnits="userSpaceOnUse"><stop offset="0" stop-color="#ffd869"/><stop offset="1" stop-color="#fec52b"/></linearGradient><path fill="url(#OK2Bsk2DOQhx7cqkuCIkAg)" d="M17,13H8c-0.553,0-1,0.447-1,1v8h11v-8C18,13.447,17.553,13,17,13z"/><linearGradient id="OK2Bsk2DOQhx7cqkuCIkAh" x1="12.5" x2="12.5" y1="21" y2="31.541" gradientUnits="userSpaceOnUse"><stop offset="0" stop-color="#ffd869"/><stop offset="1" stop-color="#fec52b"/></linearGradient><path fill="url(#OK2Bsk2DOQhx7cqkuCIkAh)" d="M6,22v14c0,0.552,0.448,1,1,1h11c0.552,0,1-0.448,1-1V22c0-0.552-0.448-1-1-1H7	C6.448,21,6,21.448,6,22z"/><path fill="#c28200" d="M14,30h-3v-5.5c0-0.828,0.672-1.5,1.5-1.5h0c0.828,0,1.5,0.672,1.5,1.5V30z"/><rect width="1" height="4" x="8" y="24" fill="#c28200"/><rect width="1" height="4" x="8.5" y="16" fill="#c28200"/><rect width="1" height="4" x="15.5" y="16" fill="#c28200"/><rect width="1" height="4" x="16" y="24" fill="#c28200"/><path fill="#c28200" d="M14,21h-3v-4.5c0-0.828,0.672-1.5,1.5-1.5h0c0.828,0,1.5,0.672,1.5,1.5V21z"/><path d="M21,33.97V46c0,0.36-0.1,0.71-0.27,1H18v-9h1.76l0.26-1.21C20.03,36.76,20.29,35.56,21,33.97z" opacity=".05"/><path d="M20.5,35.2V46c0,0.39-0.15,0.74-0.39,1H18v-9h1.76l0.26-1.21C20.02,36.77,20.16,36.14,20.5,35.2z" opacity=".07"/><linearGradient id="OK2Bsk2DOQhx7cqkuCIkAi" x1="12.5" x2="12.5" y1="29" y2="47" gradientUnits="userSpaceOnUse"><stop offset="0" stop-color="#ffd869"/><stop offset="1" stop-color="#fec52b"/></linearGradient><path fill="url(#OK2Bsk2DOQhx7cqkuCIkAi)" d="M5,30v16c0,0.552,0.448,1,1,1h13c0.552,0,1-0.448,1-1V30c0-0.552-0.448-1-1-1H6	C5.448,29,5,29.448,5,30z"/><radialGradient id="OK2Bsk2DOQhx7cqkuCIkAj" cx="12.495" cy=".189" r="2.429" gradientUnits="userSpaceOnUse"><stop offset="0" stop-color="#ffd869"/><stop offset="1" stop-color="#fec52b"/></radialGradient><path fill="url(#OK2Bsk2DOQhx7cqkuCIkAj)" d="M14.77,3h-4.55c0.09-0.36,0.17-0.76,0.23-1.2c0.13-1.03,1-1.8,2.04-1.8	c1.05,0,1.93,0.77,2.06,1.8C14.61,2.24,14.69,2.64,14.77,3z"/></svg>