<svg xmlns="http://www.w3.org/2000/svg" viewBox="0 0 48 48"><linearGradient id="DJm3nknGzsACupLnSk_PEa" x1="18.215" x2="27.441" y1="5.361" y2="42.78" gradientUnits="userSpaceOnUse"><stop offset="0" stop-color="#ffda1c"/><stop offset="1" stop-color="#feb705"/></linearGradient><path fill="url(#DJm3nknGzsACupLnSk_PEa)" d="M24,25l14.695-13.062c0.41-0.364,0.461-1.001,0.091-1.406 C35.115,6.505,29.821,3.982,23.938,4C13.448,4.032,4.578,12.447,4.028,22.923C3.424,34.458,12.597,44,24,44 c5.292,0,10.095-2.065,13.671-5.423c0.421-0.396,0.393-1.076-0.039-1.46L24,25z"/><linearGradient id="DJm3nknGzsACupLnSk_PEb" x1="33.461" x2="34.506" y1="22.062" y2="27.758" gradientUnits="userSpaceOnUse"><stop offset="0" stop-color="#ffda1c"/><stop offset="1" stop-color="#feb705"/></linearGradient><circle cx="34" cy="25" r="3" fill="url(#DJm3nknGzsACupLnSk_PEb)"/><linearGradient id="DJm3nknGzsACupLnSk_PEc" x1="41.461" x2="42.506" y1="22.062" y2="27.758" gradientUnits="userSpaceOnUse"><stop offset="0" stop-color="#ffda1c"/><stop offset="1" stop-color="#feb705"/></linearGradient><circle cx="42" cy="25" r="3" fill="url(#DJm3nknGzsACupLnSk_PEc)"/></svg>