<svg xmlns="http://www.w3.org/2000/svg" viewBox="0 0 48 48"><linearGradient id="3hRsBrOrYAqussVluy7dra" x1="3.998" x2="18.526" y1="-1929.146" y2="-1929.146" gradientTransform="matrix(1 0 0 -1 .482 -1892.593)" gradientUnits="userSpaceOnUse"><stop offset="0" stop-color="#fed100"/><stop offset="1" stop-color="#e36001"/></linearGradient><path fill="url(#3hRsBrOrYAqussVluy7dra)" d="M5.117,43c-0.539,0.017-0.847-0.641-0.475-1.034c1.681-1.774,2.861-4.865,3.47-6.9 c0.875-2.927,3.188-5.92,7.949-4.669l1.433,0.093l1.23,1.84c0,0,0.283,0.905,0.283,2.965C19.008,40.751,13.047,42.748,5.117,43z"/><linearGradient id="3hRsBrOrYAqussVluy7drb" x1="21.517" x2="21.869" y1="-1919.321" y2="-1925.338" gradientTransform="matrix(1 0 0 -1 .482 -1892.593)" gradientUnits="userSpaceOnUse"><stop offset="0" stop-color="#c3cdd9"/><stop offset="1" stop-color="#9fa7b0"/></linearGradient><path fill="url(#3hRsBrOrYAqussVluy7drb)" d="M28.079,25.419c-2.828,2.851-4.243,4.277-9.192,7.84l-2.828-2.851 c3.536-4.989,4.95-6.415,7.778-9.266L28.079,25.419z"/><linearGradient id="3hRsBrOrYAqussVluy7drc" x1="32.64" x2="33.248" y1="-1900.954" y2="-1921.282" gradientTransform="matrix(1 0 0 -1 .482 -1892.593)" gradientUnits="userSpaceOnUse"><stop offset="0" stop-color="#f44f5a"/><stop offset=".443" stop-color="#ee3d4a"/><stop offset="1" stop-color="#e52030"/></linearGradient><path fill="url(#3hRsBrOrYAqussVluy7drc)" d="M42.194,6.59c-0.781-0.786-2.048-0.786-2.829,0c-6.101,5.555-11.286,10.276-15.529,14.553 l4.243,4.277c4.243-4.277,8.762-9.688,14.115-15.978C42.974,8.654,42.974,7.377,42.194,6.59z"/><path fill="#c94f60" d="M10.067,5.417l-3.65,3.651c-0.556,0.555-0.556,1.459,0,2.015l1.72,1.718l5.664-5.664l-1.718-1.72 C11.526,4.861,10.625,4.861,10.067,5.417"/><path fill="#f0f0f0" d="M36.43,41.095L44,43l-1.906-7.571l-6.567-0.794L36.43,41.095z"/><path fill="#33c481" d="M18.632,11.968l23.461,23.46l-5.665,5.665l-23.461-23.46L18.632,11.968z"/><linearGradient id="3hRsBrOrYAqussVluy7drd" x1="105.613" x2="105.613" y1="-1830.494" y2="-1840.921" gradientTransform="matrix(0 -1 -1 0 -1822 118)" gradientUnits="userSpaceOnUse"><stop offset="0" stop-color="#dedede"/><stop offset="1" stop-color="#d6d6d6"/></linearGradient><path fill="url(#3hRsBrOrYAqussVluy7drd)" d="M12.968,17.637l-4.834-4.832l5.664-5.668l4.834,4.832L12.968,17.637z"/><path fill="#787878" d="M40.172,42.035L44,43l-0.965-3.827L40.172,42.035z"/></svg>