<svg xmlns="http://www.w3.org/2000/svg" viewBox="0 0 48 48"><circle cx="31.5" cy="33.5" r="7.5" fill="#c9d4e0"/><linearGradient id="mE3XYDx76Zk60SfSBofmCa" x1="27" x2="27" y1="3.617" y2="15.745" gradientUnits="userSpaceOnUse"><stop offset="0" stop-color="#199ae0"/><stop offset="1" stop-color="#0782d8"/></linearGradient><path fill="url(#mE3XYDx76Zk60SfSBofmCa)" d="M16,20.48V5c0-0.552,0.448-1,1-1h1c0,0.552,0.448,1,1,1s1-0.448,1-1h2c0,0.552,0.448,1,1,1	s1-0.448,1-1h2c0,0.552,0.448,1,1,1s1-0.448,1-1h2c0,0.552,0.448,1,1,1s1-0.448,1-1h2c0,0.552,0.448,1,1,1s1-0.448,1-1h1	c0.552,0,1,0.448,1,1v15.48H16z"/><linearGradient id="mE3XYDx76Zk60SfSBofmCb" x1="30" x2="30" y1="24.077" y2="15.264" gradientUnits="userSpaceOnUse"><stop offset="0" stop-color="#0176d0"/><stop offset="1" stop-color="#16538c"/></linearGradient><path fill="url(#mE3XYDx76Zk60SfSBofmCb)" d="M32,19h-4v-4c0-1.105,0.895-2,2-2h0c1.105,0,2,0.895,2,2V19z"/><circle cx="31.5" cy="33.5" r="5.921" fill="#b2bbc7"/><path d="M31.5,26c-3.871,0-7.056,2.933-7.456,6.699C25.957,35.301,29.03,37,32.5,37	c2.399,0,4.606-0.818,6.376-2.177C38.953,34.393,39,33.952,39,33.5C39,29.358,35.642,26,31.5,26z" opacity=".05"/><path d="M31.5,26c-3.625,0-6.65,2.572-7.348,5.991c1.79,2.713,4.862,4.509,8.348,4.509	c2.467,0,4.723-0.902,6.469-2.388C38.985,33.909,39,33.706,39,33.5C39,29.358,35.642,26,31.5,26z" opacity=".07"/><circle cx="32.5" cy="26.5" r="9.5" fill="#ff8f6b"/><circle cx="32.5" cy="26.5" r="7.719" fill="#ed6c47"/><path d="M29,17.674c-3.513,1.394-6,4.816-6,8.826s2.487,7.431,6,8.826V17.674z" opacity=".05"/><path d="M28.5,17.892C25.255,19.403,23,22.684,23,26.5s2.255,7.097,5.5,8.608V17.892z" opacity=".07"/><linearGradient id="mE3XYDx76Zk60SfSBofmCc" x1="18" x2="18" y1="13.386" y2="41.215" gradientUnits="userSpaceOnUse"><stop offset="0" stop-color="#7dd8f3"/><stop offset="1" stop-color="#45b0d0"/></linearGradient><path fill="url(#mE3XYDx76Zk60SfSBofmCc)" d="M28,15c0-1.105,0.895-2,2-2H8c-1.105,0-2,0.895-2,2v28c0,0.552,0.448,1,1,1h1	c0-0.556,0.448-1.007,1-1.007s1,0.451,1,1.007h2c0-0.556,0.448-1.007,1-1.007s1,0.451,1,1.007h2c0-0.556,0.448-1.007,1-1.007	s1,0.451,1,1.007h2c0-0.556,0.448-1.007,1-1.007s1,0.451,1,1.007h2c0-0.556,0.448-1.007,1-1.007s1,0.451,1,1.007h1	c0.552,0,1-0.448,1-1V18v-2V15z"/><path fill="#057093" d="M24.5,20h-15C9.224,20,9,19.776,9,19.5v-1C9,18.224,9.224,18,9.5,18h15c0.276,0,0.5,0.224,0.5,0.5v1 C25,19.776,24.776,20,24.5,20z"/><path fill="#057093" d="M24.5,27h-1c-0.276,0-0.5-0.224-0.5-0.5v-1c0-0.276,0.224-0.5,0.5-0.5h1c0.276,0,0.5,0.224,0.5,0.5 v1C25,26.776,24.776,27,24.5,27z"/><path fill="#057093" d="M16.5,27h-7C9.224,27,9,26.776,9,26.5v-1C9,25.224,9.224,25,9.5,25h7c0.276,0,0.5,0.224,0.5,0.5v1 C17,26.776,16.776,27,16.5,27z"/><path fill="#057093" d="M24.5,31h-1c-0.276,0-0.5-0.224-0.5-0.5v-1c0-0.276,0.224-0.5,0.5-0.5h1c0.276,0,0.5,0.224,0.5,0.5 v1C25,30.776,24.776,31,24.5,31z"/><path fill="#057093" d="M13.5,31h-4C9.224,31,9,30.776,9,30.5v-1C9,29.224,9.224,29,9.5,29h4c0.276,0,0.5,0.224,0.5,0.5v1 C14,30.776,13.776,31,13.5,31z"/><path fill="#057093" d="M24.5,35h-1c-0.276,0-0.5-0.224-0.5-0.5v-1c0-0.276,0.224-0.5,0.5-0.5h1c0.276,0,0.5,0.224,0.5,0.5 v1C25,34.776,24.776,35,24.5,35z"/><path fill="#057093" d="M16.5,35h-7C9.224,35,9,34.776,9,34.5v-1C9,33.224,9.224,33,9.5,33h7c0.276,0,0.5,0.224,0.5,0.5v1 C17,34.776,16.776,35,16.5,35z"/><path fill="#ff8f6b" d="M35.471,30.558h-5.423v-1.494h1.776v-5.339L30,24.119v-1.53l3.707-0.748v7.222h1.764V30.558z"/></svg>