<svg xmlns="http://www.w3.org/2000/svg" viewBox="0 0 48 48"><polygon fill="#ffb74d" points="29,27 29,33 24,39 19,33 19,27"/><path fill="#ffa726" d="M35,21c0,1.1-0.9,2-2,2s-2-0.9-2-2s0.9-2,2-2C34.1,19,35,19.9,35,21 M17,21c0-1.1-0.9-2-2-2	s-2,0.9-2,2s0.9,2,2,2S17,22.1,17,21"/><path fill="#ffb74d" d="M33,15c0-7.6-18-5-18,0v7c0,5,4,9,9,9s9-4,9-9V15z"/><path fill="#8d6e63" d="M24,6c-5.523,0-10,4.477-10,10v3.3l0.702,0.597c0.512,0.435,1.298,0.071,1.298-0.6V16l12-4l4,4v3.297	c0,0.671,0.786,1.035,1.298,0.6L34,19.3V17c0-4-1-8-6-9l-1-2H24z"/><path fill="#fff" d="M24,45l-5-12l5,1l5-1L24,45z"/><polygon fill="#e65100" points="25.74,41.47 26,43 24.67,46 22.89,46 21.92,42.85 22.2,41.32 23,37 22,36 24,34 26,36 25,37"/><linearGradient id="HTLnbaBsjqXW3oOAE7taAa" x1="10.994" x2="15.077" y1="33.346" y2="43.373" gradientUnits="userSpaceOnUse"><stop offset="0" stop-color="#636363"/><stop offset=".998" stop-color="#3b3b3b"/></linearGradient><path fill="url(#HTLnbaBsjqXW3oOAE7taAa)" d="M22.2,41.32L24,46H8c0-11,11-13,11-13L22.2,41.32z"/><linearGradient id="HTLnbaBsjqXW3oOAE7taAb" x1="26.821" x2="31.603" y1="30.755" y2="42.496" gradientUnits="userSpaceOnUse"><stop offset="0" stop-color="#636363"/><stop offset=".998" stop-color="#3b3b3b"/></linearGradient><path fill="url(#HTLnbaBsjqXW3oOAE7taAb)" d="M41,46H24l1.74-4.53L29,33C29,33,41,35,41,46z"/><linearGradient id="HTLnbaBsjqXW3oOAE7taAc" x1="18.607" x2="23.617" y1="1.849" y2="13.058" gradientUnits="userSpaceOnUse"><stop offset="0" stop-color="#636363"/><stop offset=".998" stop-color="#3b3b3b"/></linearGradient><path fill="url(#HTLnbaBsjqXW3oOAE7taAc)" d="M36.8,13c-0.4,0-1.4,0.2-2.8,0.4V9.9C34,4.8,29.7,2,24.4,2h-0.7C18.3,2,14,4.8,14,9.9v3.5	c-1.4-0.2-2.4-0.4-2.8-0.4C10,13,10,14,10,14s1,3,6.3,3c4.1,0,2.4,0,7.7,0s4.1,0,8.3,0c4.7,0,5.7-3,5.7-3S38,13,36.8,13z"/><linearGradient id="HTLnbaBsjqXW3oOAE7taAd" x1="23.939" x2="24.236" y1="8.948" y2="27.343" gradientUnits="userSpaceOnUse"><stop offset="0" stop-color="#767e84"/><stop offset="1" stop-color="#3c4751"/></linearGradient><path fill="url(#HTLnbaBsjqXW3oOAE7taAd)" d="M24,14.5c3.5,0,7.4-0.6,10-1.1V12H14v1.4C16.6,13.9,20.5,14.5,24,14.5z"/><path d="M24,31c-1.85,0-3.57-0.55-5-1.5v1.16c1.47,0.85,3.18,1.34,5,1.34s3.53-0.49,5-1.34V29.5	C27.57,30.45,25.85,31,24,31z" opacity=".05"/><path d="M24,31c-1.85,0-3.57-0.55-5-1.5v0.58c1.45,0.9,3.17,1.42,5,1.42s3.55-0.52,5-1.42V29.5	C27.57,30.45,25.85,31,24,31z" opacity=".07"/><path d="M24,34c-1.11,1.11-2.22,2.22-3.33,3.33l0.19,0.52l0.2,0.5L24,35.41l2.94,2.94l0.2-0.5l0.19-0.52	C26.22,36.22,25.11,35.11,24,34z" opacity=".05"/><path d="M24,34c-1.11,1.11-2.22,2.22-3.33,3.33l0.19,0.52L24,34.71l3.14,3.14l0.19-0.52	C26.22,36.22,25.11,35.11,24,34z" opacity=".05"/><path d="M33,16.98C32.78,16.99,32.54,17,32.3,17H32c-3.85,0-2.83,0-8,0c-5.3,0-3.6,0-7.7,0	c-0.1,0-0.2,0-0.3-0.01c-0.35,0-0.69-0.02-1-0.05c-0.36-0.04-0.69-0.1-1-0.17v1.03c0.31,0.06,0.65,0.11,1,0.14	c0.32,0.03,0.65,0.05,1,0.05C16.1,18,16.2,18,16.3,18h16c0.24,0,0.48-0.01,0.7-0.02c0.36-0.02,0.69-0.06,1-0.11v-1.02	C33.69,16.91,33.36,16.95,33,16.98z" opacity=".05"/><path d="M33,16.98C32.78,16.99,32.54,17,32.3,17H32c-3.85,0-2.83,0-8,0c-5.3,0-3.6,0-7.7,0	c-0.1,0-0.2,0-0.3-0.01c-0.35,0-0.69-0.02-1-0.05c-0.36-0.04-0.69-0.1-1-0.17v0.52c0.31,0.06,0.64,0.11,1,0.14	c0.31,0.04,0.65,0.06,1,0.06c0.1,0.01,0.2,0.01,0.3,0.01h16c0.24,0,0.48-0.01,0.7-0.03c0.36-0.01,0.69-0.05,1-0.11v-0.51	C33.69,16.91,33.36,16.95,33,16.98z" opacity=".05"/><path fill="none" stroke="#795548" stroke-linecap="round" stroke-miterlimit="10" stroke-width="2" d="M24,22	c-0.042-0.611-0.05-1.281,0-2c0.162-2.316,0.858-4.192,1.5-5.5"/><path fill="#8bc34a" d="M24.855,15.196c-0.322-1.115-1.321-3.096-4.301-2.441c-0.333,0.073-0.522,0.432-0.432,0.761	c0.647,2.362,3.016,2.533,4.198,2.463C24.709,15.955,24.963,15.571,24.855,15.196z"/><linearGradient id="HTLnbaBsjqXW3oOAE7taAe" x1="16.692" x2="27.572" y1="19.756" y2="25.492" gradientUnits="userSpaceOnUse"><stop offset="0" stop-color="#47a13a"/><stop offset=".489" stop-color="#45a13a"/><stop offset=".665" stop-color="#409f3a"/><stop offset=".79" stop-color="#399c3a"/><stop offset=".892" stop-color="#2f963b"/><stop offset=".978" stop-color="#25913b"/><stop offset="1" stop-color="#238e3b"/></linearGradient><path fill="url(#HTLnbaBsjqXW3oOAE7taAe)" d="M24,20c-0.1-0.1-0.2-0.2-0.3-0.2c-0.1-0.1-0.2-0.1-0.3-0.2c-3.6-2-5.8,1.2-5.2,4.4	c0.6,3,3.3,5.8,5.2,4.8c0.1,0,0.1-0.1,0.2-0.1l0.1-0.1c0,0,0,0,0.1-0.1l0.1-0.1c0.1-0.1,0.1-0.1,0.2-0.2c1.9,2.2,5.3-0.9,5.9-4.3	C30.5,20.6,28,17.3,24,20z"/></svg>