<svg xmlns="http://www.w3.org/2000/svg" viewBox="0 0 48 48"><path fill="#0be6c1" d="M34,42H14c-4.418,0-8-3.582-8-8V14c0-4.418,3.582-8,8-8h20c4.418,0,8,3.582,8,8v20 C42,38.418,38.418,42,34,42z"/><path fill="#fff" d="M36,27c0-3.79-2.63-6.96-6.16-7.79C29.94,19.79,30,20.39,30,21c0,0.12,0,0.23-0.01,0.34 C32.32,22.16,34,24.39,34,27c0,1.48-0.52,2.3-1.07,3.16c-0.48,0.75-1.07,1.67-0.97,2.84H28c-2.01,0-3.78-0.99-4.87-2.5 c-0.66,0.22-1.36,0.37-2.08,0.45C22.42,33.37,25.02,35,28,35h6.447c0.456,0,0.68-0.572,0.334-0.87C32.351,32.033,36,31.443,36,27z M18.252,13.185c5.486-1.161,10.282,3.303,9.7,8.703C27.51,25.988,23.866,29,19.743,29h-6.192c-0.457,0-0.678-0.572-0.332-0.872 c2.474-2.139-1.366-2.709-1.215-7.397C12.121,17.122,14.719,13.933,18.252,13.185z M19.731,17.954l-0.8,1.622l-1.79,0.26 c-0.246,0.036-0.344,0.338-0.166,0.512l1.295,1.262l-0.306,1.783c-0.042,0.245,0.215,0.432,0.435,0.316L20,22.867l1.601,0.842 c0.22,0.116,0.477-0.071,0.435-0.316L21.73,21.61l1.295-1.262c0.178-0.174,0.08-0.476-0.166-0.512l-1.79-0.26l-0.8-1.622 C20.159,17.731,19.841,17.731,19.731,17.954z"/><path d="M20,13c4.711,0,8.471,4.072,7.952,8.889C27.51,25.988,23.866,29,19.743,29h-6.192 c-0.457,0-0.678-0.572-0.332-0.872c2.474-2.139-1.366-2.709-1.215-7.397c0.117-3.609,2.715-6.798,6.247-7.546 C18.844,13.06,19.429,13,20,13 M18.259,23.744c0.046,0,0.094-0.011,0.14-0.035L20,22.867l1.601,0.842 c0.046,0.024,0.094,0.035,0.14,0.035c0.175,0,0.329-0.157,0.296-0.351L21.73,21.61l1.295-1.262c0.178-0.174,0.08-0.476-0.166-0.512 l-1.79-0.26l-0.8-1.622c-0.055-0.111-0.162-0.167-0.269-0.167s-0.214,0.056-0.269,0.167l-0.8,1.622l-1.79,0.26 c-0.246,0.036-0.344,0.338-0.166,0.512l1.295,1.262l-0.306,1.783C17.931,23.586,18.085,23.744,18.259,23.744 M29.84,19.21 c3.53,0.83,6.16,4,6.16,7.79c0,4.443-3.649,5.033-1.219,7.13c0.345,0.298,0.122,0.87-0.334,0.87H28c-2.98,0-5.58-1.63-6.95-4.05 c0.72-0.08,1.42-0.23,2.08-0.45C24.22,32.01,25.99,33,28,33h3.96c-0.1-1.17,0.49-2.09,0.97-2.84C33.48,29.3,34,28.48,34,27 c0-2.61-1.68-4.84-4.01-5.66C30,21.23,30,21.12,30,21C30,20.39,29.94,19.79,29.84,19.21 M20.001,12.5L20.001,12.5 c-0.615,0-1.238,0.066-1.853,0.196c-3.725,0.788-6.519,4.161-6.643,8.019c-0.077,2.383,0.812,3.773,1.461,4.789 c0.69,1.08,0.899,1.406-0.073,2.246c-0.316,0.273-0.425,0.703-0.279,1.097c0.148,0.397,0.516,0.653,0.937,0.653h6.192 c4.499,0,8.242-3.249,8.706-7.558c0.264-2.45-0.49-4.801-2.123-6.62C24.715,13.529,22.41,12.5,20.001,12.5L20.001,12.5z M17.614,20.272l1.389-0.202c0.163-0.024,0.304-0.126,0.376-0.274L20,18.538l0.621,1.259c0.073,0.148,0.214,0.25,0.376,0.274 l1.389,0.202l-1.005,0.98c-0.118,0.115-0.172,0.28-0.144,0.443l0.237,1.383l-1.242-0.653C20.16,22.386,20.08,22.367,20,22.367 s-0.16,0.019-0.233,0.057l-1.242,0.653l0.237-1.383c0.028-0.162-0.026-0.328-0.144-0.443L17.614,20.272L17.614,20.272z M29.84,18.71c-0.126,0-0.249,0.048-0.343,0.136c-0.122,0.115-0.178,0.284-0.15,0.449C29.449,19.883,29.5,20.456,29.5,21 c0,0.104,0.001,0.199-0.008,0.295c-0.021,0.228,0.116,0.441,0.332,0.517C32.023,22.585,33.5,24.67,33.5,27 c0,1.341-0.459,2.059-0.991,2.891c-0.423,0.661-0.978,1.528-1.052,2.609H28c-1.759,0-3.428-0.857-4.465-2.293 C23.44,30.075,23.287,30,23.13,30c-0.053,0-0.106,0.008-0.158,0.026c-0.62,0.207-1.286,0.351-1.977,0.427 c-0.167,0.019-0.314,0.12-0.39,0.269c-0.076,0.15-0.073,0.328,0.01,0.474C22.118,33.851,24.948,35.5,28,35.5h6.447 c0.422,0,0.791-0.257,0.939-0.655c0.146-0.392,0.037-0.821-0.278-1.093c-0.973-0.84-0.765-1.166-0.074-2.247 C35.653,30.536,36.5,29.211,36.5,27c0-3.967-2.692-7.371-6.546-8.277C29.917,18.714,29.878,18.71,29.84,18.71L29.84,18.71z" opacity=".07"/><path d="M22.859,19.836l-1.79-0.26l-0.8-1.622c-0.055-0.112-0.162-0.167-0.269-0.167 s-0.214,0.056-0.269,0.167l-0.8,1.622l-1.79,0.26c-0.246,0.036-0.344,0.338-0.166,0.512l1.295,1.262l-0.306,1.783 c-0.033,0.194,0.121,0.351,0.296,0.351c0.046,0,0.094-0.011,0.14-0.035L20,22.867l1.601,0.842c0.046,0.024,0.094,0.035,0.14,0.035 c0.175,0,0.329-0.157,0.296-0.351L21.73,21.61l1.295-1.262C23.204,20.174,23.105,19.871,22.859,19.836z M21.032,20.894 c-0.236,0.23-0.343,0.561-0.288,0.885l0.066,0.385l-0.346-0.182C20.32,21.905,20.16,21.867,20,21.867 c-0.16,0-0.32,0.038-0.465,0.115l-0.346,0.182l0.066-0.385c0.056-0.324-0.052-0.655-0.288-0.885l-0.279-0.272l0.386-0.056 c0.326-0.047,0.607-0.252,0.753-0.547L20,19.668l0.173,0.35c0.146,0.295,0.427,0.5,0.753,0.547l0.386,0.056L21.032,20.894z" opacity=".05"/><path d="M35.455,31.774C36.07,30.811,37,29.357,37,27c0-4.2-2.85-7.804-6.931-8.763 c-0.076-0.018-0.153-0.027-0.229-0.027c-0.252,0-0.498,0.095-0.686,0.272c-0.244,0.23-0.357,0.567-0.3,0.898 c0.008,0.044,0.01,0.085,0.017,0.129c-0.282-1.671-1.027-3.244-2.173-4.521C24.993,13.089,22.552,12,20.001,12c0,0,0,0,0,0 c-0.649,0-1.307,0.07-1.956,0.207c-3.947,0.835-6.908,4.407-7.04,8.492c-0.082,2.537,0.893,4.064,1.539,5.074 c0.666,1.042,0.666,1.042,0.021,1.599c-0.475,0.411-0.64,1.058-0.42,1.649C12.366,29.616,12.918,30,13.551,30h6.192 c4.755,0,8.711-3.441,9.203-8.004c0.022-0.202,0.037-0.404,0.045-0.606c0.02,0.401,0.28,0.758,0.667,0.894 C31.657,22.987,33,24.882,33,27c0,1.194-0.403,1.824-0.912,2.621c-0.394,0.616-0.895,1.398-1.073,2.379H28 c-1.599,0-3.117-0.78-4.059-2.085c-0.192-0.266-0.496-0.415-0.811-0.415c-0.105,0-0.212,0.017-0.316,0.051 c-0.587,0.196-1.218,0.332-1.874,0.405c-0.334,0.037-0.627,0.24-0.78,0.539c-0.153,0.299-0.145,0.655,0.02,0.948 C21.771,34.254,24.768,36,28,36h6.447c0.633,0,1.186-0.385,1.408-0.981c0.22-0.59,0.055-1.236-0.42-1.646 C34.789,32.816,34.789,32.816,35.455,31.774z M27.952,21.889C27.51,25.988,23.866,29,19.743,29h-6.192 c-0.457,0-0.678-0.572-0.331-0.872c2.474-2.139-1.366-2.709-1.215-7.397c0.117-3.609,2.715-6.798,6.247-7.546 C18.844,13.06,19.429,13,20,13C24.711,13,28.471,17.072,27.952,21.889z M34.447,35H28c-2.98,0-5.58-1.63-6.95-4.05 c0.72-0.08,1.42-0.23,2.08-0.45C24.22,32.01,25.99,33,28,33h3.96c-0.1-1.17,0.49-2.09,0.97-2.84C33.48,29.3,34,28.48,34,27 c0-2.61-1.68-4.84-4.01-5.66C30,21.23,30,21.12,30,21c0-0.61-0.06-1.21-0.16-1.79c3.53,0.83,6.16,4,6.16,7.79 c0,4.443-3.649,5.033-1.219,7.13C35.127,34.428,34.904,35,34.447,35z" opacity=".05"/></svg>