<svg xmlns="http://www.w3.org/2000/svg" viewBox="0 0 48 48"><path fill="#0084d7" d="M40,6H24H8C6.895,6,6,6.895,6,8v16v16c0,1.105,0.895,2,2,2h16h16c1.105,0,2-0.895,2-2V24V8	C42,6.895,41.105,6,40,6z"/><path fill="#027ad4" d="M6,24v12.706C6,39.63,8.37,42,11.294,42H24h16c1.105,0,2-0.895,2-2V24H6z"/><path d="M33.374,27.648h0.627V15.059h-5.706v12.589h0.627c-0.55,0.562-0.891,1.329-0.891,2.175	c0,1.719,1.398,3.118,3.118,3.118c1.719,0,3.116-1.398,3.116-3.118C34.265,28.977,33.923,28.21,33.374,27.648z" opacity=".05"/><rect width="4.706" height="11.589" x="28.795" y="15.559" opacity=".07"/><path d="M13.971,32.369V15.631h4.815c1.815,0,3.058,0.057,3.797,0.175c0.757,0.125,1.421,0.343,1.976,0.647	c0.659,0.367,1.17,0.864,1.522,1.48c0.346,0.625,0.52,1.336,0.52,2.122c0,1.017-0.271,1.842-0.804,2.455	c-0.247,0.287-0.555,0.538-0.926,0.753c0.206,0.09,0.401,0.195,0.587,0.316c0.115,0.074,0.225,0.152,0.329,0.237	c0.144,0.112,0.289,0.24,0.422,0.385c0.384,0.421,0.656,0.893,0.836,1.425c0.037,0.11,0.063,0.228,0.087,0.345l0.023,0.114	l0.025,0.095c0.024,0.09,0.048,0.181,0.062,0.278c0.014,0.087,0.019,0.18,0.022,0.272l0.019,0.242	c0.012,0.127,0.023,0.254,0.023,0.391c0,0.924-0.199,1.752-0.592,2.463c-0.4,0.726-0.98,1.292-1.722,1.684	c-0.585,0.313-1.305,0.538-2.136,0.669c-0.827,0.125-2.152,0.188-3.94,0.188H13.971z M19.955,28.529c1.146,0,1.662-0.168,1.893-0.31	c0.171-0.103,0.394-0.301,0.396-0.851c0-0.729-0.271-0.911-0.359-0.971c-0.17-0.115-0.634-0.307-1.864-0.307h-1.063v2.439H19.955z M19.311,22.277c1.194,0,1.706-0.151,1.924-0.279c0.143-0.086,0.341-0.264,0.341-0.772c0-0.615-0.245-0.777-0.325-0.83	c-0.157-0.102-0.615-0.276-1.874-0.276h-0.421v2.157H19.311z" opacity=".07"/><path d="M31.148,32.441c-1.443,0-2.618-1.174-2.618-2.618s1.175-2.617,2.618-2.617	c1.442,0,2.616,1.174,2.616,2.617S32.591,32.441,31.148,32.441z" opacity=".07"/><path d="M13.471,32.869V15.131h5.315c1.844,0,3.111,0.06,3.876,0.182c0.814,0.134,1.532,0.371,2.137,0.703	c0.741,0.412,1.317,0.974,1.716,1.67c0.39,0.704,0.586,1.5,0.586,2.371c0,1.14-0.312,2.077-0.927,2.783	c-0.111,0.13-0.234,0.253-0.369,0.371c0.103,0.068,0.201,0.141,0.297,0.218c0.157,0.123,0.324,0.27,0.477,0.436	c0.428,0.47,0.734,0.994,0.94,1.603c0.044,0.129,0.074,0.266,0.103,0.404l0.024,0.115c0.048,0.175,0.075,0.285,0.092,0.404	c0.016,0.098,0.022,0.209,0.027,0.32l0.018,0.225c0.012,0.134,0.024,0.276,0.024,0.429c0,1.009-0.22,1.919-0.654,2.705	c-0.447,0.812-1.096,1.446-1.926,1.884c-0.632,0.337-1.403,0.58-2.291,0.72c-0.854,0.129-2.204,0.194-4.019,0.194H13.471z M19.955,28.029c1.156,0,1.541-0.181,1.631-0.236c0.057-0.035,0.156-0.094,0.157-0.427c0-0.106-0.01-0.468-0.14-0.555	c-0.033-0.023-0.36-0.221-1.584-0.221h-0.563v1.439H19.955z M19.455,21.776c1.133-0.013,1.469-0.176,1.526-0.209	c0.061-0.036,0.094-0.152,0.094-0.34c0-0.167-0.026-0.363-0.101-0.412c-0.008-0.005-0.302-0.186-1.52-0.193V21.776z" opacity=".05"/><path fill="#fff" d="M29.295,16.059h3.706v10.589h-3.706V16.059z M25.863,24.561c-0.627-0.701-1.499-1.095-2.618-1.18	c0.995-0.271,1.718-0.668,2.175-1.198c0.455-0.523,0.681-1.233,0.681-2.127c0-0.707-0.155-1.333-0.454-1.874	c-0.307-0.537-0.749-0.967-1.329-1.29c-0.508-0.279-1.111-0.476-1.814-0.592c-0.707-0.113-1.943-0.169-3.718-0.169h-4.315v15.737	h4.446c1.786,0,3.074-0.063,3.862-0.182c0.787-0.124,1.447-0.332,1.981-0.617c0.661-0.349,1.165-0.845,1.517-1.483	c0.354-0.64,0.53-1.378,0.53-2.221C26.807,26.198,26.492,25.26,25.863,24.561z M18.455,19.62h0.921c1.065,0,1.78,0.12,2.149,0.359	c0.364,0.24,0.55,0.655,0.55,1.247c0,0.569-0.198,0.969-0.589,1.204c-0.396,0.231-1.118,0.347-2.175,0.347h-0.856L18.455,19.62	L18.455,19.62z M22.109,28.645c-0.419,0.257-1.141,0.384-2.154,0.384h-1.499V25.59h1.564c1.041,0,1.76,0.131,2.143,0.392	c0.389,0.262,0.58,0.724,0.58,1.387C22.741,27.963,22.532,28.389,22.109,28.645z"/><path fill="#e8e9e9" d="M25.863,24.562C25.665,24.34,25.434,24.16,25.187,24H14.471v7.869h4.446	c1.786,0,3.074-0.063,3.862-0.182c0.787-0.124,1.447-0.332,1.981-0.617c0.661-0.349,1.165-0.845,1.517-1.483	c0.354-0.64,0.53-1.378,0.53-2.221C26.807,26.199,26.493,25.261,25.863,24.562z M22.109,28.645	c-0.419,0.257-1.141,0.384-2.154,0.384h-1.499V25.59h1.564c1.041,0,1.76,0.131,2.143,0.392c0.389,0.262,0.58,0.724,0.58,1.387	C22.741,27.963,22.532,28.389,22.109,28.645z"/><rect width="3.706" height="2.647" x="29.295" y="24" fill="#e8e9e9"/><path fill="#e8e9e9" d="M31.148,27.706c-1.17,0-2.118,0.947-2.118,2.117s0.948,2.118,2.118,2.118	c1.169,0,2.117-0.948,2.117-2.118S32.317,27.706,31.148,27.706z"/></svg>