<svg xmlns="http://www.w3.org/2000/svg" viewBox="0 0 48 48"><linearGradient id="uhAnmSwhbYYfi5pkgw1Bga" x1="3.088" x2="-.912" y1="25" y2="25" gradientUnits="userSpaceOnUse"><stop offset="0" stop-color="#c48f0c"/><stop offset=".251" stop-color="#d19b16"/><stop offset=".619" stop-color="#dca51f"/><stop offset="1" stop-color="#e0a922"/></linearGradient><path fill="url(#uhAnmSwhbYYfi5pkgw1Bga)" d="M4,28H3.281c-1.505,0-2.817-0.937-3.182-2.272l0,0C-0.418,23.834,1.148,22,3.281,22H4V28z"/><linearGradient id="uhAnmSwhbYYfi5pkgw1Bgb" x1="33.088" x2="29.088" y1="25" y2="25" gradientTransform="matrix(-1 0 0 1 58 0)" gradientUnits="userSpaceOnUse"><stop offset="0" stop-color="#c48f0c"/><stop offset=".251" stop-color="#d19b16"/><stop offset=".619" stop-color="#dca51f"/><stop offset="1" stop-color="#e0a922"/></linearGradient><path fill="url(#uhAnmSwhbYYfi5pkgw1Bgb)" d="M24,28h0.719c1.505,0,2.817-0.937,3.182-2.272l0,0C28.418,23.834,26.852,22,24.719,22H24V28z"/><radialGradient id="uhAnmSwhbYYfi5pkgw1Bgc" cx="13.345" cy="24.291" r="10.88" gradientTransform="translate(-.72 -1.792) scale(1.103)" gradientUnits="userSpaceOnUse"><stop offset="0" stop-color="#ffcf54"/><stop offset=".261" stop-color="#fdcb4d"/><stop offset=".639" stop-color="#f7c13a"/><stop offset="1" stop-color="#f0b421"/></radialGradient><path fill="url(#uhAnmSwhbYYfi5pkgw1Bgc)" d="M26,25.667C26,32.294,20.627,37,14,37S2,32.294,2,25.667S7.373,13,14,13S26,19.039,26,25.667 z"/><ellipse cx="10.5" cy="23" fill="#2b1d1d" rx="1.5" ry="1"/><ellipse cx="17.5" cy="23" fill="#2b1d1d" rx="1.5" ry="1"/><radialGradient id="uhAnmSwhbYYfi5pkgw1Bgd" cx="58.66" cy="-838.664" r="30.096" gradientTransform="matrix(.8617 0 0 -.8816 -38.277 -726.303)" gradientUnits="userSpaceOnUse"><stop offset="0" stop-color="#c26715"/><stop offset=".508" stop-color="#b85515"/><stop offset="1" stop-color="#ad3f16"/></radialGradient><path fill="url(#uhAnmSwhbYYfi5pkgw1Bgd)" d="M12.724,10.007c-4.264-0.834-5.621,5.5,0,5.5c2.455,0,7.276-1.499,7.276-5.5 C20,10.007,17.409,10.924,12.724,10.007z"/><path fill="#d39d18" d="M14,31.752c-1.152,0-2.304-0.286-3.447-0.857c-0.494-0.247-0.694-0.848-0.447-1.342 c0.247-0.494,0.848-0.693,1.342-0.447c1.718,0.859,3.388,0.859,5.105,0c0.496-0.246,1.095-0.047,1.342,0.447 c0.247,0.494,0.047,1.095-0.447,1.342C16.304,31.466,15.152,31.752,14,31.752z"/><linearGradient id="uhAnmSwhbYYfi5pkgw1Bge" x1="23.088" x2="19.088" y1="25" y2="25" gradientUnits="userSpaceOnUse"><stop offset="0" stop-color="#c48f0c"/><stop offset=".251" stop-color="#d19b16"/><stop offset=".619" stop-color="#dca51f"/><stop offset="1" stop-color="#e0a922"/></linearGradient><path fill="url(#uhAnmSwhbYYfi5pkgw1Bge)" d="M24,28h-0.719c-1.505,0-2.817-0.937-3.182-2.272l0,0C19.582,23.834,21.148,22,23.281,22H24 V28z"/><linearGradient id="uhAnmSwhbYYfi5pkgw1Bgf" x1="13.088" x2="9.088" y1="25" y2="25" gradientTransform="matrix(-1 0 0 1 58 0)" gradientUnits="userSpaceOnUse"><stop offset="0" stop-color="#c48f0c"/><stop offset=".251" stop-color="#d19b16"/><stop offset=".619" stop-color="#dca51f"/><stop offset="1" stop-color="#e0a922"/></linearGradient><path fill="url(#uhAnmSwhbYYfi5pkgw1Bgf)" d="M44,28h0.719c1.505,0,2.817-0.937,3.182-2.272v0C48.418,23.834,46.852,22,44.719,22H44V28z"/><radialGradient id="uhAnmSwhbYYfi5pkgw1Bgg" cx="31.478" cy="24.291" r="10.88" gradientTransform="translate(-.72 -1.792) scale(1.103)" gradientUnits="userSpaceOnUse"><stop offset="0" stop-color="#ffcf54"/><stop offset=".261" stop-color="#fdcb4d"/><stop offset=".639" stop-color="#f7c13a"/><stop offset="1" stop-color="#f0b421"/></radialGradient><path fill="url(#uhAnmSwhbYYfi5pkgw1Bgg)" d="M46,25.667C46,32.294,40.627,37,34,37s-12-4.706-12-11.333S27.373,13,34,13 S46,19.039,46,25.667z"/><ellipse cx="30.5" cy="23" fill="#2b1d1d" rx="1.5" ry="1"/><ellipse cx="37.5" cy="23" fill="#2b1d1d" rx="1.5" ry="1"/><radialGradient id="uhAnmSwhbYYfi5pkgw1Bgh" cx="81.871" cy="-838.664" r="30.096" gradientTransform="matrix(.8617 0 0 -.8816 -38.277 -726.303)" gradientUnits="userSpaceOnUse"><stop offset="0" stop-color="#c26715"/><stop offset=".508" stop-color="#b85515"/><stop offset="1" stop-color="#ad3f16"/></radialGradient><path fill="url(#uhAnmSwhbYYfi5pkgw1Bgh)" d="M32.724,10.007c-4.264-0.834-5.621,5.5,0,5.5c2.455,0,7.276-1.499,7.276-5.5 C40,10.007,37.409,10.924,32.724,10.007z"/><path fill="#d39d18" d="M34,31.752c-1.152,0-2.304-0.286-3.447-0.857c-0.494-0.247-0.694-0.848-0.447-1.342 s0.847-0.693,1.342-0.447c1.718,0.859,3.388,0.859,5.105,0c0.496-0.246,1.095-0.047,1.342,0.447 c0.247,0.494,0.047,1.095-0.447,1.342C36.304,31.466,35.152,31.752,34,31.752z"/></svg>