<svg xmlns="http://www.w3.org/2000/svg" viewBox="0 0 48 48"><linearGradient id="8UoUdlQgDhwTWW8a0N~~fa" x1="18.495" x2="18.017" y1="16.149" y2="41.218" gradientUnits="userSpaceOnUse"><stop offset="0" stop-color="#7b83eb"/><stop offset="1" stop-color="#5961c3"/></linearGradient><polygon fill="url(#8UoUdlQgDhwTWW8a0N~~fa)" points="23,30.591 14,33.864 14,1.136 23,8.5"/><linearGradient id="8UoUdlQgDhwTWW8a0N~~fb" x1="29.592" x2="29.114" y1="16.36" y2="41.429" gradientUnits="userSpaceOnUse"><stop offset="0" stop-color="#7b83eb"/><stop offset="1" stop-color="#5961c3"/></linearGradient><polygon fill="url(#8UoUdlQgDhwTWW8a0N~~fb)" points="25,30.591 34,33.864 34,1.136 25,8.5"/><linearGradient id="8UoUdlQgDhwTWW8a0N~~fc" x1="24.376" x2="23.898" y1="16.261" y2="41.33" gradientUnits="userSpaceOnUse"><stop offset="0" stop-color="#7b83eb"/><stop offset="1" stop-color="#5961c3"/></linearGradient><polygon fill="url(#8UoUdlQgDhwTWW8a0N~~fc)" points="21.824,38 23,38 23,46 25,46 25,38 26.176,38 27,36 21,36"/><linearGradient id="8UoUdlQgDhwTWW8a0N~~fd" x1="16.955" x2="16.477" y1="16.12" y2="41.188" gradientUnits="userSpaceOnUse"><stop offset="0" stop-color="#7b83eb"/><stop offset="1" stop-color="#5961c3"/></linearGradient><path fill="url(#8UoUdlQgDhwTWW8a0N~~fd)" d="M17,36h-3v10h3c1.103,0,2-0.897,2-2v-2c0-0.366-0.106-0.705-0.278-1 C18.894,40.705,19,40.366,19,40v-2C19,36.897,18.103,36,17,36z M16,38h1l0.001,2H17h-1V38z M16,44v-2h1l0.001,2H16z"/><linearGradient id="8UoUdlQgDhwTWW8a0N~~fe" x1="31.968" x2="31.491" y1="16.406" y2="41.474" gradientUnits="userSpaceOnUse"><stop offset="0" stop-color="#7b83eb"/><stop offset="1" stop-color="#5961c3"/></linearGradient><path fill="url(#8UoUdlQgDhwTWW8a0N~~fe)" d="M34,39v-1c0-1.103-0.897-2-2-2h-1c-1.103,0-2,0.897-2,2v1.465 c0,0.67,0.333,1.292,0.891,1.664L32,42.535V44h-1v-1h-2v1c0,1.103,0.897,2,2,2h1c1.103,0,2-0.897,2-2v-1.465 c0-0.67-0.333-1.292-0.891-1.664L31,39.465V38h1v1H34z"/></svg>