<svg xmlns="http://www.w3.org/2000/svg" viewBox="0 0 48 48"><radialGradient id="sZtT~cIzkWkOTJM~iOz38a" cx="24.383" cy="22.514" r="8.027" gradientUnits="userSpaceOnUse"><stop offset=".176" stop-color="#3a41ac"/><stop offset="1" stop-color="#5961c3"/></radialGradient><path fill="url(#sZtT~cIzkWkOTJM~iOz38a)" d="M34,22.007c0-5.851,3.191-11.073,7.7-12.798c0.471-0.18,0.715-0.7,0.581-1.186l-0.536-1.937 c-0.159-0.573-0.775-0.872-1.333-0.667c-5.39,1.981-9.286,7.293-10.197,13.704C30.144,19.622,29.731,20,29.227,20H18.774 c-0.504,0-0.917-0.378-0.988-0.878C16.878,12.721,12.991,7.41,7.614,5.422C7.057,5.215,6.44,5.514,6.28,6.086L5.74,8.022 C5.604,8.508,5.848,9.028,6.318,9.21C10.817,10.941,14,16.16,14,22c0,5.851-3.191,11.073-7.7,12.798 c-0.471,0.18-0.715,0.7-0.581,1.186l0.536,1.937c0.159,0.573,0.775,0.872,1.333,0.667c5.391-1.981,9.289-7.297,10.198-13.711 C17.857,24.378,18.27,24,18.774,24h10.451c0.505,0,0.917,0.378,0.988,0.878c0.907,6.403,4.794,11.717,10.172,13.706 c0.557,0.206,1.174-0.092,1.334-0.664l0.541-1.934c0.136-0.486-0.107-1.007-0.578-1.188C37.183,33.065,34,27.846,34,22.007z"/><linearGradient id="sZtT~cIzkWkOTJM~iOz38b" x1="18.549" x2="31.207" y1="16.67" y2="44.466" gradientUnits="userSpaceOnUse"><stop offset="0" stop-color="#7b83eb"/><stop offset="1" stop-color="#5961c3"/></linearGradient><path fill="url(#sZtT~cIzkWkOTJM~iOz38b)" d="M26,32.295V6c0-0.552-0.448-1-1-1h-2c-0.552,0-1,0.448-1,1v26.295 c-2.888,0.863-5,3.541-5,6.705c0,3.859,3.14,7,7,7s7-3.141,7-7C31,35.836,28.888,33.158,26,32.295z M24,42c-1.654,0-3-1.346-3-3 s1.346-3,3-3s3,1.346,3,3S25.654,42,24,42z"/></svg>