<svg xmlns="http://www.w3.org/2000/svg" viewBox="0 0 48 48"><path fill="#33c481" d="M25,9c0,3.314-1,6-1,6s-1-2.686-1-6s1-6,1-6S25,5.686,25,9z"/><path fill="#21a366" d="M27,9c0,2.209-1,4-1,4s-1-1.791-1-4s1-4,1-4S27,6.791,27,9z"/><path fill="#21a366" d="M23,9c0,2.209-1,4-1,4s-1-1.791-1-4s1-4,1-4S23,6.791,23,9z"/><linearGradient id="QyARadv4Aja2H~ChDq_jxa" x1="24" x2="24" y1="-2.412" y2="69.443" gradientUnits="userSpaceOnUse"><stop offset="0" stop-color="#eba84b"/><stop offset="1" stop-color="#d97218"/></linearGradient><path fill="url(#QyARadv4Aja2H~ChDq_jxa)" d="M27,10.158V10c0-0.552-0.448-1-1-1h-4c-0.552,0-1,0.448-1,1v0.158	c0,1.745-1.144,3.249-2.795,3.812C11.671,16.198,7,22.081,7,29c0,8.837,7.611,16,17,16s17-7.163,17-16	c0-6.919-4.671-12.802-11.205-15.03C28.144,13.406,27,11.902,27,10.158z"/><linearGradient id="QyARadv4Aja2H~ChDq_jxb" x1="24" x2="24" y1="8.588" y2="54.706" gradientUnits="userSpaceOnUse"><stop offset="0" stop-color="#d4943b"/><stop offset="1" stop-color="#c2620e"/><stop offset="1" stop-color="#c2620e"/></linearGradient><path fill="url(#QyARadv4Aja2H~ChDq_jxb)" d="M32,29c0-8.837-8-16-8-16s-8,7.163-8,16s3.528,16,8,16S32,37.837,32,29z"/></svg>