<svg xmlns="http://www.w3.org/2000/svg" data-name="Layer 1" viewBox="0 0 48 48"><defs><linearGradient id="1n6IhB1vdWGokM97NnO_aa" x1="11.19" x2="33.794" y1="-8.539" y2="53.565" data-name="Безымянный градиент 111" gradientUnits="userSpaceOnUse"><stop offset="0" stop-color="#eba84b"/><stop offset=".255" stop-color="#e8a044"/><stop offset=".641" stop-color="#e18b30"/><stop offset="1" stop-color="#d97218"/></linearGradient></defs><path fill="#c2620e" d="M29,25.01654c0-10.21726-2.79086-20-5-20s-5,9.78274-5,20,1,17,5,17S29,35.23381,29,25.01654Z"/><path fill="url(#1n6IhB1vdWGokM97NnO_aa)" d="M35.34546,20.09522c-.55164-6.76633-1.56794-12.62468-3.44382-15.79158a2.628,2.628,0,0,0-2.26517-1.2871h-.00006A2.63642,2.63642,0,0,0,27,5.653V37.01654l-.00025.03907A1.00093,1.00093,0,0,1,25,36.99117V15.01654a1,1,0,1,0-2,0V36.99117a1.00093,1.00093,0,0,1-1.99975.06444L21,37.01654V5.77118a2.72159,2.72159,0,0,0-1.94109-2.66354,2.63936,2.63936,0,0,0-2.96357,1.201c-1.874,3.16815-2.88947,9.02386-3.4408,15.78656C11.54138,20.47211,10,22.52246,10,25.01654c0,2.76142.89545,5,2,5a.84477.84477,0,0,0,.14661-.03692c-.06531,2.329-.10236,4.6662-.1222,6.95227a8.00514,8.00514,0,0,0,7.99982,8.08465c.97577,0,3.47577-.5,3.97577-2,.5,1.5,3,2,3.97583,2a8.00509,8.00509,0,0,0,7.99976-8.08465c-.01984-2.28607-.05689-4.62323-.1222-6.95227A.84477.84477,0,0,0,36,30.01654c1.10455,0,2-2.23858,2-5C38,22.52246,36.45862,20.47211,35.34546,20.09522Z"/><path fill="#c2620e" d="M15.999,40.01654a1,1,0,0,1-.98828-.85351c-.46289-3.12793.07715-6.0791.64942-9.20508.709-3.87109,1.4414-7.874.36328-12.72461a1.00033,1.00033,0,1,1,1.95312-.43359c1.165,5.24511.36035,9.64062-.34961,13.51855a26.19673,26.19673,0,0,0-.63769,8.55176,1.00059,1.00059,0,0,1-.84278,1.13574A1.08047,1.08047,0,0,1,15.999,40.01654Z"/><path fill="#c2620e" d="M32.001,40.01654a1.08047,1.08047,0,0,1-.14746-.01074,1.00059,1.00059,0,0,1-.84278-1.13574c.415-2.7998-.10156-5.59375-.64746-8.55176C29.64648,26.44037,28.835,22.04486,30,16.79975a1.00034,1.00034,0,1,1,1.95313.43359c-1.07813,4.84863-.33887,8.85059.377,12.7207.57715,3.127,1.123,6.08008.65918,9.209A1,1,0,0,1,32.001,40.01654Z"/></svg>