<svg xmlns="http://www.w3.org/2000/svg" id="Layer_1" x="0" y="0" version="1.1" viewBox="0 0 48 48" xml:space="preserve"><path fill="#199be2" d="M22,34h4v6h-4V34z"/><path fill="#50e6ff" d="M35,43c0-2.2-4.9-4-11-4s-11,1.8-11,4H35z"/><linearGradient id="SVGID_1_" x1="24" x2="24" y1="-.489" y2="20.707" gradientUnits="userSpaceOnUse"><stop offset="0" stop-color="#f45560"/><stop offset=".897" stop-color="#cf1928"/></linearGradient><path fill="url(#SVGID_1_)" d="M24,27h-8c0-4.1-6-7.9-6-15s14-7,14-7s14-0.1,14,7s-6,10.9-6,15H24z"/><path fill="#b21628" d="M43,21.6c-0.1-0.8-0.5-1.5-1.1-2C41.3,19.2,40.7,19,40,19c-0.9,0-1.8,0.4-2.4,1.2l-2.7,3.4l-1.2,1.6	c-0.4,0.5-1,0.8-1.7,0.8H16c-0.7,0-1.3-0.3-1.7-0.8l-1.2-1.6l-2.7-3.4C9.8,19.4,8.9,19,8,19c-0.7,0-1.3,0.2-1.8,0.6	c-0.6,0.5-1,1.2-1.1,2c-0.1,0.8,0.1,1.6,0.6,2.2l5.4,7c1.6,2,3.9,3.2,6.5,3.2h12.9c2.5,0,4.9-1.2,6.5-3.2l5.4-7	C42.9,23.2,43.1,22.4,43,21.6z"/><rect width="4" height="1" x="22" y="34" opacity=".05"/><rect width="4" height=".5" x="22" y="34" opacity=".07"/><linearGradient id="SVGID_2_" x1="24" x2="24" y1="12.979" y2="31.309" gradientUnits="userSpaceOnUse"><stop offset="0" stop-color="#f44f5a"/><stop offset=".443" stop-color="#ee3d4a"/><stop offset="1" stop-color="#e52030"/></linearGradient><path fill="url(#SVGID_2_)" d="M43,21.6c-0.1-0.8-0.5-1.5-1.1-2C41.3,19.2,40.7,19,40,19c-0.9,0-1.8,0.4-2.4,1.2l-5.4,7	c-0.4,0.5-1,0.8-1.7,0.8H24h-6.5c-0.7,0-1.3-0.3-1.7-0.8l-5.4-7C9.8,19.4,8.9,19,8,19c-0.7,0-1.3,0.2-1.8,0.6c-0.6,0.5-1,1.2-1.1,2	c-0.1,0.8,0.1,1.6,0.6,2.2l5.4,7c1.6,2,3.9,3.2,6.5,3.2H24h6.5c2.5,0,4.9-1.2,6.5-3.2l5.4-7C42.9,23.2,43.1,22.4,43,21.6z"/></svg>