<svg xmlns="http://www.w3.org/2000/svg" data-name="Слой 1" viewBox="0 0 48 48"><defs><linearGradient id="yKPD3MvytkAXMKJ_aZ9KOa" x1="6.5" x2="15.501" y1="22" y2="22" data-name="Безымянный градиент 2" gradientUnits="userSpaceOnUse"><stop offset="0" stop-color="#ffcf54"/><stop offset=".261" stop-color="#fdcb4d"/><stop offset=".639" stop-color="#f7c13a"/><stop offset="1" stop-color="#f0b421"/></linearGradient><linearGradient id="yKPD3MvytkAXMKJ_aZ9KOb" x1="20.88" x2="20.88" y1="8.701" y2="49.148" data-name="Безымянный градиент 18" gradientUnits="userSpaceOnUse"><stop offset=".002" stop-color="#454545"/><stop offset=".013" stop-color="#464646"/><stop offset=".874" stop-color="#626262"/><stop offset="1" stop-color="#6d6d6d"/></linearGradient></defs><circle cx="22.25" cy="8.5" r="2" fill="#889097"/><circle cx="26" cy="9" r="2" fill="#889097"/><path fill="#64717c" d="M42.001,16a.99425.99425,0,0,1-.1919-.01855l-35.99951-7a.99975.99975,0,1,1,.38086-1.9629l36.00049,7A.99992.99992,0,0,1,42.001,16Z"/><path fill="url(#yKPD3MvytkAXMKJ_aZ9KOa)" d="M15,22a4,4,0,1,1-3.998-4A3.99975,3.99975,0,0,1,15,22Z"/><path fill="#199be2" d="M39,42.5A1.5,1.5,0,1,1,37.50075,41,1.49991,1.49991,0,0,1,39,42.5Z"/><path fill="#199be2" d="M22.002,39H30l6.51263,4.6292,1.89853-2.32094-6.123-5.06969a2,2,0,0,0-.643-.35687L26,34Z"/><path fill="#35c1f1" d="M41,34.5A1.5,1.5,0,1,1,39.50075,33,1.49991,1.49991,0,0,1,41,34.5Z"/><path fill="#35c1f1" d="M24,32l7.175-2.69064a2,2,0,0,1,1.61.09053l7.29924,3.718-1.09614,2.79233L32,33l-7.69224,5.26782Z"/><g><path fill="#35c1f1" d="M26,35a4,4,0,1,1-3.998-4A3.99975,3.99975,0,0,1,26,35Z"/><path fill="#35c1f1" d="M20,30a4,4,0,1,1-3.998-4A3.99975,3.99975,0,0,1,20,30Z"/><polygon fill="#35c1f1" points="24.2 31.66 19.2 37.85 19.15 37.81 18.31 37.11 16.76 35.82 13.51 33.13 18.45 26.85 18.46 26.84 18.54 26.91 22.42 30.16 23.96 31.46 24.2 31.66"/></g><path fill="url(#yKPD3MvytkAXMKJ_aZ9KOb)" d="M23,10V29.58l-1.45,1.45-3.52,3.52-1.27,1.27,1.55,1.29L23,32.42V39h2V10a1,1,0,0,0-1-1h0A1,1,0,0,0,23,10Z"/><g><path fill="#35c1f1" d="M27,21.5A1.5,1.5,0,1,1,25.50075,20,1.49991,1.49991,0,0,1,27,21.5Z"/><path fill="#35c1f1" d="M24.36413,20.4837,21,24.25l-6.20322,1.93438L19,29l3.08533-1.64551A4.00005,4.00005,0,0,0,23.2402,26.428L26.525,22.59515Z"/></g></svg>