<svg xmlns="http://www.w3.org/2000/svg" viewBox="0 0 48 48"><path fill="#343434" d="M28,14.5h4V11l-3.184,0.597C28.343,11.686,28,12.099,28,12.58V14.5z"/><linearGradient id="Z5c925ID9HeTQ~PTieIuXa" x1="20.003" x2="20.003" y1="35.185" y2="10.916" gradientUnits="userSpaceOnUse"><stop offset=".002" stop-color="#454545"/><stop offset=".013" stop-color="#464646"/><stop offset=".875" stop-color="#626262"/><stop offset="1" stop-color="#6d6d6d"/></linearGradient><path fill="url(#Z5c925ID9HeTQ~PTieIuXa)" d="M3.005,21l2.508-6.45C6.111,13.013,7.592,12,9.241,12H28.24c1.752,0,3.416,0.765,4.556,2.095 L37,19l-3,2L5.005,22L3.005,21z"/><linearGradient id="Z5c925ID9HeTQ~PTieIuXb" x1="24.003" x2="24.003" y1="35.185" y2="10.916" gradientUnits="userSpaceOnUse"><stop offset=".002" stop-color="#454545"/><stop offset=".013" stop-color="#464646"/><stop offset=".875" stop-color="#626262"/><stop offset="1" stop-color="#6d6d6d"/></linearGradient><path fill="url(#Z5c925ID9HeTQ~PTieIuXb)" d="M46,33H4.899l-3.65-1.492c-0.752-0.307-1.243-1.039-1.243-1.851l0-3.051 c0-2.253,1.126-4.356,3-5.606l0,0L37,19l8.367,3.042C46.948,22.617,48,24.119,48,25.801V31C48,32.105,47.105,33,46,33z"/><path fill="#343434" d="M17,21l5-0.001c0.552,0,1-0.448,1-1V15c0-0.552-0.448-1-1-1h-5c-0.552,0-1,0.448-1,1v5 C16,20.552,16.448,21,17,21z"/><path fill="#343434" d="M34.471,21H26c-0.552,0-1-0.448-1-1v-5c0-0.552,0.448-1,1-1h3.028c0.614,0,1.193,0.282,1.573,0.764 l4.264,5.427C35.122,20.519,34.888,21,34.471,21z"/><path fill="#343434" d="M5.739,21H13c0.552,0,1-0.448,1-1v-5c0-0.552-0.448-1-1-1H9.118c-0.822,0-1.561,0.503-1.862,1.269 l-1.983,5.048C5.145,20.645,5.386,21,5.739,21z"/><path fill="#343434" d="M43,32.5c0,2.485-2.015,4.5-4.5,4.5S34,34.985,34,32.5s2.015-4.5,4.5-4.5S43,30.015,43,32.5"/><linearGradient id="Z5c925ID9HeTQ~PTieIuXc" x1="38.5" x2="38.5" y1="22.761" y2="40.978" gradientUnits="userSpaceOnUse"><stop offset=".002" stop-color="#454545"/><stop offset=".013" stop-color="#464646"/><stop offset=".875" stop-color="#626262"/><stop offset="1" stop-color="#6d6d6d"/></linearGradient><path fill="url(#Z5c925ID9HeTQ~PTieIuXc)" d="M40.3,32.5c0,0.994-0.806,1.8-1.8,1.8s-1.8-0.806-1.8-1.8s0.806-1.8,1.8-1.8	S40.3,31.506,40.3,32.5"/><path fill="#343434" d="M14,32.5c0,2.485-2.015,4.5-4.5,4.5S5,34.985,5,32.5S7.015,28,9.5,28S14,30.015,14,32.5"/><linearGradient id="Z5c925ID9HeTQ~PTieIuXd" x1="9.5" x2="9.5" y1="22.761" y2="40.978" gradientUnits="userSpaceOnUse"><stop offset=".002" stop-color="#454545"/><stop offset=".013" stop-color="#464646"/><stop offset=".875" stop-color="#626262"/><stop offset="1" stop-color="#6d6d6d"/></linearGradient><path fill="url(#Z5c925ID9HeTQ~PTieIuXd)" d="M11.3,32.5c0,0.994-0.806,1.8-1.8,1.8s-1.8-0.806-1.8-1.8s0.806-1.8,1.8-1.8	S11.3,31.506,11.3,32.5"/></svg>