<svg xmlns="http://www.w3.org/2000/svg" viewBox="0 0 48 48"><linearGradient id="R9xyUrvV7L4BlM6Chni3Xa" x1="30.5" x2="30.5" y1="8.706" y2="68.243" gradientUnits="userSpaceOnUse"><stop offset="0" stop-color="#a34f27"/><stop offset=".587" stop-color="#8b3817"/><stop offset="1" stop-color="#802d10"/></linearGradient><path fill="url(#R9xyUrvV7L4BlM6Chni3Xa)" d="M28,43H16V9h12c9.389,0,17,7.611,17,17v0C45,35.389,37.389,43,28,43z"/><linearGradient id="R9xyUrvV7L4BlM6Chni3Xb" x1="16" x2="16" y1="8.235" y2="58" gradientUnits="userSpaceOnUse"><stop offset="0" stop-color="#21ad64"/><stop offset="1" stop-color="#088242"/></linearGradient><ellipse cx="16" cy="26" fill="url(#R9xyUrvV7L4BlM6Chni3Xb)" rx="12" ry="17"/><linearGradient id="R9xyUrvV7L4BlM6Chni3Xc" x1="16" x2="16" y1="17.059" y2="40.278" gradientUnits="userSpaceOnUse"><stop offset="0" stop-color="#faf8e5"/><stop offset="1" stop-color="#faeeac"/></linearGradient><ellipse cx="16" cy="26" fill="url(#R9xyUrvV7L4BlM6Chni3Xc)" rx="4" ry="7"/><path fill="#343434" d="M15,15c0,1.105,1,2,1,2s1-0.895,1-2s-1-2-1-2S15,13.895,15,15z"/><path fill="#343434" d="M15,37c0,1.105,1,2,1,2s1-0.895,1-2s-1-2-1-2S15,35.895,15,37z"/><path fill="#343434" d="M8,25c-1.105,0-2,1-2,1s0.895,1,2,1s2-1,2-1S9.105,25,8,25z"/><path fill="#343434" d="M10.206,17.792C9.378,16.964,8,17,8,17s-0.036,1.378,0.792,2.206s2.206,0.792,2.206,0.792	S11.034,18.62,10.206,17.792z"/><path fill="#343434" d="M21.794,17.792C22.622,16.964,24,17,24,17s0.036,1.378-0.792,2.206	c-0.828,0.828-2.206,0.792-2.206,0.792S20.966,18.62,21.794,17.792z"/><path fill="#343434" d="M10.206,34.208C9.378,35.036,8,35,8,35s-0.036-1.378,0.792-2.206	c0.828-0.828,2.206-0.792,2.206-0.792S11.034,33.38,10.206,34.208z"/><path fill="#343434" d="M21.794,34.208C22.622,35.036,24,35,24,35s0.036-1.378-0.792-2.206	c-0.828-0.828-2.206-0.792-2.206-0.792S20.966,33.38,21.794,34.208z"/><path fill="#343434" d="M24,25c-1.105,0-2,1-2,1s0.895,1,2,1s2-1,2-1S25.105,25,24,25z"/></svg>