<svg xmlns="http://www.w3.org/2000/svg" viewBox="0 0 48 48"><linearGradient id="2dXKrI_c0~HCHd3pBeiLea" x1="24" x2="24" y1="4.696" y2="45.254" gradientUnits="userSpaceOnUse"><stop offset="0" stop-color="#ffcf7b"/><stop offset=".196" stop-color="#fecd76"/><stop offset=".439" stop-color="#fac666"/><stop offset=".709" stop-color="#f3bc4d"/><stop offset=".995" stop-color="#eaad2a"/><stop offset="1" stop-color="#eaad29"/></linearGradient><path fill="url(#2dXKrI_c0~HCHd3pBeiLea)" d="M39,45H9c0,0,0-28.833,0-32c0-2,8-4,8-4c1.039-0.346,1.854-1.161,2.2-2.2l0.659-2.377	c0.092-0.275,0.294-0.497,0.562-0.606C21.126,3.528,22.607,3,24,3s2.874,0.528,3.58,0.817c0.268,0.11,0.47,0.332,0.562,0.606	l1.363,4.089c0.195,0.586,0.972,0.721,1.343,0.227C31.464,7.918,32.308,7,33,7c1.25,0,6,2.583,6,6S39,45,39,45z"/><path fill="#d32f2f" d="M39,18c-1.333,0-3.111-1.889-4.148-2.481C34.265,15.183,33.603,15,32.928,15h-1.76	c-1.258,0-2.489-0.33-3.589-0.94C26.642,13.541,25.343,13,24,13s-2.642,0.541-3.579,1.06c-1.1,0.61-2.331,0.94-3.589,0.94h-2.11	c-0.996,0-1.969,0.298-2.783,0.871C11.173,16.41,10.086,18,9,18c0,0,0-1.833,0-5c0-2,8-4,8-4c1.039-0.346,1.854-1.161,2.2-2.2	l0.659-2.377c0.092-0.275,0.294-0.497,0.562-0.606C21.126,3.528,22.607,3,24,3s2.874,0.528,3.58,0.817	c0.268,0.11,0.47,0.332,0.562,0.606l1.363,4.089c0.195,0.586,0.972,0.721,1.343,0.227C31.464,7.918,32.308,7,33,7	c1.25,0,6,2.583,6,6S39,18,39,18z"/><path fill="#4caf50" d="M37.362,17.362L37,17l-0.065,0.065C37.077,17.167,37.219,17.269,37.362,17.362z"/><linearGradient id="2dXKrI_c0~HCHd3pBeiLeb" x1="37" x2="37" y1="3" y2="17.53" gradientUnits="userSpaceOnUse"><stop offset="0" stop-color="#4caf50"/><stop offset=".489" stop-color="#4aaf50"/><stop offset=".665" stop-color="#43ad50"/><stop offset=".79" stop-color="#38aa50"/><stop offset=".892" stop-color="#27a550"/><stop offset=".978" stop-color="#11a050"/><stop offset="1" stop-color="#0a9e50"/></linearGradient><path fill="url(#2dXKrI_c0~HCHd3pBeiLeb)" d="M37,17l-2-2l2-2l2,2L37,17z"/><linearGradient id="2dXKrI_c0~HCHd3pBeiLec" x1="36.816" x2="36.816" y1="3" y2="17.53" gradientUnits="userSpaceOnUse"><stop offset="0" stop-color="#4caf50"/><stop offset=".489" stop-color="#4aaf50"/><stop offset=".665" stop-color="#43ad50"/><stop offset=".79" stop-color="#38aa50"/><stop offset=".892" stop-color="#27a550"/><stop offset=".978" stop-color="#11a050"/><stop offset="1" stop-color="#0a9e50"/></linearGradient><path fill="url(#2dXKrI_c0~HCHd3pBeiLec)" d="M36.907,9.093L35,11l2,2l1.632-1.632C38.255,10.511,37.627,9.739,36.907,9.093z"/><linearGradient id="2dXKrI_c0~HCHd3pBeiLed" x1="38" x2="38" y1="3" y2="17.53" gradientUnits="userSpaceOnUse"><stop offset="0" stop-color="#75ff8a"/><stop offset="1" stop-color="#1ee446"/></linearGradient><path fill="url(#2dXKrI_c0~HCHd3pBeiLed)" d="M37.362,17.362C37.929,17.73,38.496,18,39,18c0,0,0-0.97,0-3l-2,2L37.362,17.362z M38.632,11.368L37,13l2,2c0-0.582,0-1.238,0-2C39,12.429,38.859,11.884,38.632,11.368z"/><linearGradient id="2dXKrI_c0~HCHd3pBeiLee" x1="35" x2="35" y1="3.002" y2="17.532" gradientUnits="userSpaceOnUse"><stop offset="0" stop-color="#21ad64"/><stop offset="1" stop-color="#088242"/></linearGradient><path fill="url(#2dXKrI_c0~HCHd3pBeiLee)" d="M33,13l2-2l2,2l-2,2L33,13z"/><linearGradient id="2dXKrI_c0~HCHd3pBeiLef" x1="35" x2="35" y1="3" y2="17.53" gradientUnits="userSpaceOnUse"><stop offset="0" stop-color="#21ad64"/><stop offset="1" stop-color="#088242"/></linearGradient><path fill="url(#2dXKrI_c0~HCHd3pBeiLef)" d="M34.516,7.484L33,9l2,2l1.907-1.907C36.133,8.397,35.264,7.845,34.516,7.484z M34.852,15.518 c0.546,0.312,1.299,0.98,2.083,1.547L37,17l-2-2l-0.397,0.397C34.687,15.437,34.771,15.473,34.852,15.518z"/><linearGradient id="2dXKrI_c0~HCHd3pBeiLeg" x1="33.005" x2="33.005" y1="3" y2="17.53" gradientUnits="userSpaceOnUse"><stop offset="0" stop-color="#1a9ba1"/><stop offset="1" stop-color="#038387"/></linearGradient><path fill="url(#2dXKrI_c0~HCHd3pBeiLeg)" d="M33,7c-0.399,0-0.848,0.309-1.275,0.725L33,9l1.516-1.516C33.874,7.173,33.321,7,33,7z M35,15l-2-2l-1.99,1.99c0.053,0.001,0.105,0.01,0.158,0.01h1.76c0.583,0,1.153,0.144,1.676,0.397L35,15z"/><linearGradient id="2dXKrI_c0~HCHd3pBeiLeh" x1="33" x2="33" y1="3" y2="17.53" gradientUnits="userSpaceOnUse"><stop offset="0" stop-color="#1a9ba1"/><stop offset="1" stop-color="#038387"/></linearGradient><path fill="url(#2dXKrI_c0~HCHd3pBeiLeh)" d="M31,11l2-2l2,2l-2,2L31,11z"/><linearGradient id="2dXKrI_c0~HCHd3pBeiLei" x1="28.994" x2="28.994" y1="3" y2="17.53" gradientUnits="userSpaceOnUse"><stop offset="0" stop-color="#2aa4f4"/><stop offset="1" stop-color="#007ad9"/></linearGradient><path fill="url(#2dXKrI_c0~HCHd3pBeiLei)" d="M30.988,14.988L29,13l-1.177,1.177C28.808,14.678,29.884,14.961,30.988,14.988z M28.5,5.5 L27,7l2,2l0.5-0.5L28.5,5.5z"/><linearGradient id="2dXKrI_c0~HCHd3pBeiLej" x1="29" x2="29" y1="3" y2="17.53" gradientUnits="userSpaceOnUse"><stop offset="0" stop-color="#2aa4f4"/><stop offset="1" stop-color="#007ad9"/></linearGradient><path fill="url(#2dXKrI_c0~HCHd3pBeiLej)" d="M27,11l2-2l2,2l-2,2L27,11z"/><linearGradient id="2dXKrI_c0~HCHd3pBeiLek" x1="31" x2="31" y1="3" y2="17.528" gradientUnits="userSpaceOnUse"><stop offset="0" stop-color="#37c6d0"/><stop offset="1" stop-color="#1a9ba1"/></linearGradient><path fill="url(#2dXKrI_c0~HCHd3pBeiLek)" d="M31.725,7.725c-0.314,0.305-0.617,0.667-0.878,1.014c-0.371,0.494-1.148,0.359-1.343-0.227 L29.5,8.5L29,9l2,2l2-2L31.725,7.725z M33,13l-2-2l-2,2l1.988,1.988c0.007,0,0.015,0.001,0.022,0.001L33,13z"/><linearGradient id="2dXKrI_c0~HCHd3pBeiLel" x1="26.75" x2="26.75" y1="3" y2="17.53" gradientUnits="userSpaceOnUse"><stop offset="0" stop-color="#9332bf"/><stop offset="1" stop-color="#912fbd"/></linearGradient><path fill="url(#2dXKrI_c0~HCHd3pBeiLel)" d="M28.141,4.423c-0.091-0.275-0.294-0.497-0.562-0.606c-0.254-0.104-0.612-0.239-1.027-0.369 L25,5l2,2l1.5-1.5L28.141,4.423z"/><linearGradient id="2dXKrI_c0~HCHd3pBeiLem" x1="27" x2="27" y1="3.001" y2="17.531" gradientUnits="userSpaceOnUse"><stop offset="0" stop-color="#9332bf"/><stop offset="1" stop-color="#912fbd"/></linearGradient><path fill="url(#2dXKrI_c0~HCHd3pBeiLem)" d="M25,9l2-2l2,2l-2,2L25,9z"/><linearGradient id="2dXKrI_c0~HCHd3pBeiLen" x1="27" x2="27" y1="3" y2="17.53" gradientUnits="userSpaceOnUse"><stop offset="0" stop-color="#9332bf"/><stop offset="1" stop-color="#912fbd"/></linearGradient><path fill="url(#2dXKrI_c0~HCHd3pBeiLen)" d="M27,11l-2,2l0.126,0.126c0.924,0.188,1.782,0.562,2.452,0.934 c0.079,0.044,0.164,0.076,0.245,0.117L29,13L27,11z"/><g><linearGradient id="2dXKrI_c0~HCHd3pBeiLeo" x1="25" x2="25" y1="3" y2="17.53" gradientUnits="userSpaceOnUse"><stop offset="0" stop-color="#e83c67"/><stop offset=".423" stop-color="#c5214a"/><stop offset=".773" stop-color="#b01038"/><stop offset="1" stop-color="#a80a31"/></linearGradient><path fill="url(#2dXKrI_c0~HCHd3pBeiLeo)" d="M27,11l-2,2l-2-2l2-2L27,11z"/><linearGradient id="2dXKrI_c0~HCHd3pBeiLep" x1="24.813" x2="24.813" y1="3" y2="17.53" gradientUnits="userSpaceOnUse"><stop offset="0" stop-color="#e83c67"/><stop offset=".423" stop-color="#c5214a"/><stop offset=".773" stop-color="#b01038"/><stop offset="1" stop-color="#a80a31"/></linearGradient><path fill="url(#2dXKrI_c0~HCHd3pBeiLep)" d="M24,3c-0.308,0-0.62,0.029-0.928,0.072L25,5l1.553-1.553C25.815,3.216,24.891,3,24,3z"/><linearGradient id="2dXKrI_c0~HCHd3pBeiLeq" x1="25" x2="25" y1="3" y2="17.53" gradientUnits="userSpaceOnUse"><stop offset="0" stop-color="#e83c67"/><stop offset=".423" stop-color="#c5214a"/><stop offset=".773" stop-color="#b01038"/><stop offset="1" stop-color="#a80a31"/></linearGradient><path fill="url(#2dXKrI_c0~HCHd3pBeiLeq)" d="M27,7l-2,2l-2-2l2-2L27,7z"/></g><g><linearGradient id="2dXKrI_c0~HCHd3pBeiLer" x1="23" x2="23" y1="3" y2="17.53" gradientUnits="userSpaceOnUse"><stop offset=".002" stop-color="#f44f78"/><stop offset=".397" stop-color="#e4305d"/><stop offset=".763" stop-color="#d81b4a"/><stop offset="1" stop-color="#d41343"/></linearGradient><path fill="url(#2dXKrI_c0~HCHd3pBeiLer)" d="M21.538,13.538C22.286,13.236,23.128,13,24,13c0.309,0,0.614,0.035,0.915,0.085L25,13l-2-2 l-2,2L21.538,13.538z"/><linearGradient id="2dXKrI_c0~HCHd3pBeiLes" x1="23" x2="23" y1="3.001" y2="17.531" gradientUnits="userSpaceOnUse"><stop offset=".002" stop-color="#f44f78"/><stop offset=".397" stop-color="#e4305d"/><stop offset=".763" stop-color="#d81b4a"/><stop offset="1" stop-color="#d41343"/></linearGradient><path fill="url(#2dXKrI_c0~HCHd3pBeiLes)" d="M25,9l-2,2l-2-2l2-2L25,9z"/><linearGradient id="2dXKrI_c0~HCHd3pBeiLet" x1="23" x2="23" y1="3" y2="17.53" gradientUnits="userSpaceOnUse"><stop offset=".002" stop-color="#f44f78"/><stop offset=".397" stop-color="#e4305d"/><stop offset=".763" stop-color="#d81b4a"/><stop offset="1" stop-color="#d41343"/></linearGradient><path fill="url(#2dXKrI_c0~HCHd3pBeiLet)" d="M23.072,3.072c-0.056,0.008-0.112,0.015-0.168,0.024L21,5l2,2l2-2L23.072,3.072z"/></g><g><linearGradient id="2dXKrI_c0~HCHd3pBeiLeu" x1="21" x2="21" y1="1.581" y2="12.654" gradientUnits="userSpaceOnUse"><stop offset="0" stop-color="#f09701"/><stop offset="1" stop-color="#e36001"/></linearGradient><path fill="url(#2dXKrI_c0~HCHd3pBeiLeu)" d="M23,11l-2,2l-2-2l2-2L23,11z"/><linearGradient id="2dXKrI_c0~HCHd3pBeiLev" x1="21.036" x2="21.036" y1="1.581" y2="12.654" gradientUnits="userSpaceOnUse"><stop offset="0" stop-color="#f09701"/><stop offset="1" stop-color="#e36001"/></linearGradient><path fill="url(#2dXKrI_c0~HCHd3pBeiLev)" d="M20.421,14.06c0.329-0.182,0.713-0.359,1.117-0.522L21,13l-1.483,1.483 C19.826,14.361,20.129,14.222,20.421,14.06z M20.42,3.817c-0.138,0.056-0.256,0.143-0.353,0.251L21,5l1.904-1.904 C21.885,3.261,20.941,3.604,20.42,3.817z M19.072,7.072L21,9l2-2l-2-2l-1.8,1.8C19.168,6.896,19.112,6.98,19.072,7.072z"/></g><g><linearGradient id="2dXKrI_c0~HCHd3pBeiLew" x1="17.461" x2="17.461" y1="3" y2="17.53" gradientUnits="userSpaceOnUse"><stop offset="0" stop-color="#f44f5a"/><stop offset=".443" stop-color="#ee3d4a"/><stop offset="1" stop-color="#e52030"/></linearGradient><path fill="url(#2dXKrI_c0~HCHd3pBeiLew)" d="M21,9l-1.928-1.928C18.681,7.975,17.942,8.686,17,9l2,2L21,9z M15,11l2-2 c0,0-1.43,0.359-3.078,0.922L15,11z M21,5l-0.932-0.932c-0.092,0.102-0.164,0.222-0.209,0.355L19.2,6.8l0,0L21,5z"/><linearGradient id="2dXKrI_c0~HCHd3pBeiLex" x1="15" x2="15" y1="3.002" y2="17.532" gradientUnits="userSpaceOnUse"><stop offset="0" stop-color="#f44f5a"/><stop offset=".443" stop-color="#ee3d4a"/><stop offset="1" stop-color="#e52030"/></linearGradient><path fill="url(#2dXKrI_c0~HCHd3pBeiLex)" d="M15,15l-2-2l2-2l2,2L15,15z"/><linearGradient id="2dXKrI_c0~HCHd3pBeiLey" x1="19" x2="19" y1="3" y2="17.53" gradientUnits="userSpaceOnUse"><stop offset="0" stop-color="#f44f5a"/><stop offset=".443" stop-color="#ee3d4a"/><stop offset="1" stop-color="#e52030"/></linearGradient><path fill="url(#2dXKrI_c0~HCHd3pBeiLey)" d="M18.741,14.741c0.263-0.072,0.522-0.158,0.777-0.258L21,13l-2-2l-2,2L18.741,14.741z"/></g><g><path fill="#b31523" d="M11,15l0.901,0.901c0.012-0.009,0.026-0.022,0.037-0.031c0.815-0.572,1.788-0.87,2.784-0.87H15l-2-2 L11,15z M13.922,9.922c-0.955,0.326-1.975,0.72-2.844,1.156L13,13l2-2L13.922,9.922z"/></g><g><linearGradient id="2dXKrI_c0~HCHd3pBeiLez" x1="11" x2="11" y1="3" y2="17.53" gradientUnits="userSpaceOnUse"><stop offset="0" stop-color="#e83c67"/><stop offset=".423" stop-color="#c5214a"/><stop offset=".773" stop-color="#b01038"/><stop offset="1" stop-color="#a80a31"/></linearGradient><path fill="url(#2dXKrI_c0~HCHd3pBeiLez)" d="M11.077,11.077c-0.108,0.054-0.216,0.108-0.319,0.164L9,13l2,2l2-2L11.077,11.077z M9.764,17.764c0.8-0.452,1.556-1.435,2.137-1.863L11,15l-2,2L9.764,17.764z"/></g><g><linearGradient id="2dXKrI_c0~HCHd3pBeiLeA" x1="10" x2="10" y1="3" y2="17.53" gradientUnits="userSpaceOnUse"><stop offset="0" stop-color="#8521b0"/><stop offset="1" stop-color="#64129a"/></linearGradient><path fill="url(#2dXKrI_c0~HCHd3pBeiLeA)" d="M9,13l1.759-1.759C9.738,11.791,9,12.395,9,13z M11,15l-2-2c0,1.802,0,3.154,0,4L11,15z M9.764,17.764L9,17c0,0.641,0,1,0,1C9.256,18,9.512,17.907,9.764,17.764z"/></g><g><linearGradient id="2dXKrI_c0~HCHd3pBeiLeB" x1="17.5" x2="17.5" y1="4.696" y2="45.254" gradientUnits="userSpaceOnUse"><stop offset="0" stop-color="#ffcf7b"/><stop offset=".196" stop-color="#fecd76"/><stop offset=".439" stop-color="#fac666"/><stop offset=".709" stop-color="#f3bc4d"/><stop offset=".995" stop-color="#eaad2a"/><stop offset="1" stop-color="#eaad29"/></linearGradient><path fill="url(#2dXKrI_c0~HCHd3pBeiLeB)" d="M16,11h3v11h-3V11z"/><linearGradient id="2dXKrI_c0~HCHd3pBeiLeC" x1="17.5" x2="17.5" y1="4.696" y2="45.254" gradientUnits="userSpaceOnUse"><stop offset="0" stop-color="#ffcf7b"/><stop offset=".196" stop-color="#fecd76"/><stop offset=".439" stop-color="#fac666"/><stop offset=".709" stop-color="#f3bc4d"/><stop offset=".995" stop-color="#eaad2a"/><stop offset="1" stop-color="#eaad29"/></linearGradient><path fill="url(#2dXKrI_c0~HCHd3pBeiLeC)" d="M18,8c0,1.833,2,2.895,2,4s-1.119,1-2.5,1S15,13.105,15,12s2-2.167,2-4H18z"/><linearGradient id="2dXKrI_c0~HCHd3pBeiLeD" x1="17.5" x2="17.5" y1="4.696" y2="45.254" gradientUnits="userSpaceOnUse"><stop offset="0" stop-color="#ffcf7b"/><stop offset=".196" stop-color="#fecd76"/><stop offset=".439" stop-color="#fac666"/><stop offset=".709" stop-color="#f3bc4d"/><stop offset=".995" stop-color="#eaad2a"/><stop offset="1" stop-color="#eaad29"/></linearGradient><path fill="url(#2dXKrI_c0~HCHd3pBeiLeD)" d="M17.5,11L17.5,11c-0.275,0-0.5-0.225-0.5-0.5v-5C17,5.225,17.225,5,17.5,5l0,0 C17.775,5,18,5.225,18,5.5v5C18,10.775,17.775,11,17.5,11z"/><linearGradient id="2dXKrI_c0~HCHd3pBeiLeE" x1="17.5" x2="17.5" y1="4.696" y2="45.254" gradientUnits="userSpaceOnUse"><stop offset="0" stop-color="#ffcf7b"/><stop offset=".196" stop-color="#fecd76"/><stop offset=".439" stop-color="#fac666"/><stop offset=".709" stop-color="#f3bc4d"/><stop offset=".995" stop-color="#eaad2a"/><stop offset="1" stop-color="#eaad29"/></linearGradient><path fill="url(#2dXKrI_c0~HCHd3pBeiLeE)" d="M18.5,7h-2C16.225,7,16,6.775,16,6.5l0,0C16,6.225,16.225,6,16.5,6h2 C18.775,6,19,6.225,19,6.5l0,0C19,6.775,18.775,7,18.5,7z"/></g><linearGradient id="2dXKrI_c0~HCHd3pBeiLeF" x1="24" x2="24" y1="29.658" y2="52.028" gradientUnits="userSpaceOnUse"><stop offset="0" stop-color="#eba84b"/><stop offset=".255" stop-color="#e8a044"/><stop offset=".641" stop-color="#e18b30"/><stop offset="1" stop-color="#d97218"/></linearGradient><path fill="url(#2dXKrI_c0~HCHd3pBeiLeF)" d="M35.5,34c-1.5,0-2.71,0.95-3.5,2.29C31.25,35,30,34,28.5,34c-1.03,0-1.75,0.25-2.5,1	c-0.25-0.5-1-1-2-1s-1.75,0.5-2,1c-0.75-0.75-1.47-1-2.5-1c-1.5,0-2.75,1-3.5,2.29C15.21,34.95,14,34,12.5,34c-1.75,0-3,1-3.5,2	c0,4.95,0,9,0,9h15h15c0,0,0-4.05,0-9C38.5,35,37,34,35.5,34z"/><g><linearGradient id="2dXKrI_c0~HCHd3pBeiLeG" x1="12.5" x2="12.5" y1="7.565" y2="49.37" gradientUnits="userSpaceOnUse"><stop offset="0" stop-color="#889097"/><stop offset="1" stop-color="#4c5963"/></linearGradient><path fill="url(#2dXKrI_c0~HCHd3pBeiLeG)" d="M12.5,43c-1.381,0-2.5-1.067-2.5-3s1.119-4,2.5-4s2.5,2.067,2.5,4S13.881,43,12.5,43z"/><linearGradient id="2dXKrI_c0~HCHd3pBeiLeH" x1="34" x2="34" y1="7.565" y2="49.37" gradientUnits="userSpaceOnUse"><stop offset="0" stop-color="#889097"/><stop offset="1" stop-color="#4c5963"/></linearGradient><path fill="url(#2dXKrI_c0~HCHd3pBeiLeH)" d="M33,23h2c0.552,0,1-0.448,1-1v-3c0-0.552-0.448-1-1-1h-2c-0.552,0-1,0.448-1,1v3 C32,22.552,32.448,23,33,23z"/><linearGradient id="2dXKrI_c0~HCHd3pBeiLeI" x1="14" x2="14" y1="7.565" y2="49.37" gradientUnits="userSpaceOnUse"><stop offset="0" stop-color="#889097"/><stop offset="1" stop-color="#4c5963"/></linearGradient><path fill="url(#2dXKrI_c0~HCHd3pBeiLeI)" d="M13,23h2c0.552,0,1-0.448,1-1v-3c0-0.552-0.448-1-1-1h-2c-0.552,0-1,0.448-1,1v3 C12,22.552,12.448,23,13,23z"/><linearGradient id="2dXKrI_c0~HCHd3pBeiLeJ" x1="24" x2="24" y1="7.565" y2="49.37" gradientUnits="userSpaceOnUse"><stop offset="0" stop-color="#889097"/><stop offset="1" stop-color="#4c5963"/></linearGradient><path fill="url(#2dXKrI_c0~HCHd3pBeiLeJ)" d="M23,23h2c0.552,0,1-0.448,1-1v-3c0-0.552-0.448-1-1-1h-2c-0.552,0-1,0.448-1,1v3 C22,22.552,22.448,23,23,23z"/><linearGradient id="2dXKrI_c0~HCHd3pBeiLeK" x1="14" x2="14" y1="7.565" y2="49.37" gradientUnits="userSpaceOnUse"><stop offset="0" stop-color="#889097"/><stop offset="1" stop-color="#4c5963"/></linearGradient><path fill="url(#2dXKrI_c0~HCHd3pBeiLeK)" d="M13,32h2c0.552,0,1-0.448,1-1v-3c0-0.552-0.448-1-1-1h-2c-0.552,0-1,0.448-1,1v3 C12,31.552,12.448,32,13,32z"/><linearGradient id="2dXKrI_c0~HCHd3pBeiLeL" x1="34" x2="34" y1="7.565" y2="49.37" gradientUnits="userSpaceOnUse"><stop offset="0" stop-color="#889097"/><stop offset="1" stop-color="#4c5963"/></linearGradient><path fill="url(#2dXKrI_c0~HCHd3pBeiLeL)" d="M33,32h2c0.552,0,1-0.448,1-1v-3c0-0.552-0.448-1-1-1h-2c-0.552,0-1,0.448-1,1v3 C32,31.552,32.448,32,33,32z"/><linearGradient id="2dXKrI_c0~HCHd3pBeiLeM" x1="35.5" x2="35.5" y1="7.565" y2="49.37" gradientUnits="userSpaceOnUse"><stop offset="0" stop-color="#889097"/><stop offset="1" stop-color="#4c5963"/></linearGradient><path fill="url(#2dXKrI_c0~HCHd3pBeiLeM)" d="M38,40c0-1.933-1.119-4-2.5-4S33,38.067,33,40s1.119,3,2.5,3S38,41.933,38,40z"/><linearGradient id="2dXKrI_c0~HCHd3pBeiLeN" x1="24" x2="24" y1="7.565" y2="49.37" gradientUnits="userSpaceOnUse"><stop offset="0" stop-color="#889097"/><stop offset="1" stop-color="#4c5963"/></linearGradient><path fill="url(#2dXKrI_c0~HCHd3pBeiLeN)" d="M23,31h2c0.552,0,1-0.448,1-1v-3c0-0.552-0.448-1-1-1h-2c-0.552,0-1,0.448-1,1v3 C22,30.552,22.448,31,23,31z"/><linearGradient id="2dXKrI_c0~HCHd3pBeiLeO" x1="21.5" x2="21.5" y1="7.565" y2="49.37" gradientUnits="userSpaceOnUse"><stop offset="0" stop-color="#889097"/><stop offset="1" stop-color="#4c5963"/></linearGradient><path fill="url(#2dXKrI_c0~HCHd3pBeiLeO)" d="M22,43h-1c-0.552,0-1-0.448-1-1v-5c0-0.552,0.448-1,1-1h1c0.552,0,1,0.448,1,1v5 C23,42.552,22.552,43,22,43z"/><linearGradient id="2dXKrI_c0~HCHd3pBeiLeP" x1="26.5" x2="26.5" y1="7.565" y2="49.37" gradientUnits="userSpaceOnUse"><stop offset="0" stop-color="#889097"/><stop offset="1" stop-color="#4c5963"/></linearGradient><path fill="url(#2dXKrI_c0~HCHd3pBeiLeP)" d="M27,43h-1c-0.552,0-1-0.448-1-1v-5c0-0.552,0.448-1,1-1h1c0.552,0,1,0.448,1,1v5 C28,42.552,27.552,43,27,43z"/><linearGradient id="2dXKrI_c0~HCHd3pBeiLeQ" x1="18" x2="18" y1="7.565" y2="49.37" gradientUnits="userSpaceOnUse"><stop offset="0" stop-color="#889097"/><stop offset="1" stop-color="#4c5963"/></linearGradient><path fill="url(#2dXKrI_c0~HCHd3pBeiLeQ)" d="M19,41.58c0,0.377-0.545,0.562-0.86,0.293C17.598,41.411,17,40.643,17,39.5 s0.598-1.911,1.14-2.373C18.455,36.858,19,37.043,19,37.42V41.58z"/><linearGradient id="2dXKrI_c0~HCHd3pBeiLeR" x1="30" x2="30" y1="7.565" y2="49.37" gradientUnits="userSpaceOnUse"><stop offset="0" stop-color="#889097"/><stop offset="1" stop-color="#4c5963"/></linearGradient><path fill="url(#2dXKrI_c0~HCHd3pBeiLeR)" d="M29,37.42c0-0.377,0.545-0.562,0.86-0.293C30.402,37.589,31,38.357,31,39.5 s-0.598,1.911-1.14,2.373C29.545,42.142,29,41.957,29,41.58V37.42z"/></g><g><path d="M37,22c0.55,0,1,0.45,1,1c0,0.078,0,0.409,0,0.51c0,0.863-0.551,1.49-2,1.49c-0.579,0-1.59-0.104-2-0.279 C33.59,24.896,32.579,25,32,25c-1.449,0-2-0.627-2-1.49c0-0.101,0-0.432,0-0.51c0-0.55,0.45-1,1-1H37 M17,22c0.55,0,1,0.45,1,1 c0,0.078,0,0.409,0,0.51c0,0.863-0.551,1.49-2,1.49c-0.579,0-1.59-0.104-2-0.279C13.59,24.896,12.579,25,12,25 c-1.449,0-2-0.627-2-1.49c0-0.1,0-0.432,0-0.51c0-0.55,0.45-1,1-1H17 M27,30c0.55,0,1,0.45,1,1c0,0.078,0,0.409,0,0.51 c0,0.863-0.551,1.49-2,1.49c-0.579,0-1.59-0.104-2-0.279C23.59,32.896,22.579,33,22,33c-1.449,0-2-0.627-2-1.49 c0-0.101,0-0.432,0-0.51c0-0.55,0.45-1,1-1H27 M37,21h-6c-1.103,0-2,0.897-2,2v0.51c0,1.204,0.788,2.49,3,2.49 c0.335,0,1.292-0.046,2-0.23c0.708,0.184,1.665,0.23,2,0.23c2.212,0,3-1.286,3-2.49V23C39,21.897,38.103,21,37,21L37,21z M17,21 h-6c-1.103,0-2,0.897-2,2v0.51C9,24.714,9.788,26,12,26c0.335,0,1.292-0.046,2-0.23c0.708,0.184,1.665,0.23,2,0.23 c2.212,0,3-1.286,3-2.49V23C19,21.897,18.103,21,17,21L17,21z M27,29h-6c-1.103,0-2,0.897-2,2v0.51c0,1.204,0.788,2.49,3,2.49 c0.335,0,1.292-0.046,2-0.23c0.708,0.184,1.665,0.23,2,0.23c2.212,0,3-1.286,3-2.49V31C29,29.897,28.103,29,27,29L27,29z" opacity=".05"/><path d="M37,22c0.55,0,1,0.45,1,1c0,0.078,0,0.409,0,0.51c0,0.863-0.551,1.49-2,1.49c-0.579,0-1.59-0.104-2-0.279 C33.59,24.896,32.579,25,32,25c-1.449,0-2-0.627-2-1.49c0-0.101,0-0.432,0-0.51c0-0.55,0.45-1,1-1H37 M17,22c0.55,0,1,0.45,1,1 c0,0.078,0,0.409,0,0.51c0,0.863-0.551,1.49-2,1.49c-0.579,0-1.59-0.104-2-0.279C13.59,24.896,12.579,25,12,25 c-1.449,0-2-0.627-2-1.49c0-0.1,0-0.432,0-0.51c0-0.55,0.45-1,1-1H17 M27,30c0.55,0,1,0.45,1,1c0,0.078,0,0.409,0,0.51 c0,0.863-0.551,1.49-2,1.49c-0.579,0-1.59-0.104-2-0.279C23.59,32.896,22.579,33,22,33c-1.449,0-2-0.627-2-1.49 c0-0.101,0-0.432,0-0.51c0-0.55,0.45-1,1-1H27 M37,21.5h-6c-0.827,0-1.5,0.673-1.5,1.5v0.51c0,0.598,0.244,1.99,2.5,1.99 c0.517,0,1.441-0.08,2-0.249c0.559,0.169,1.483,0.249,2,0.249c2.256,0,2.5-1.392,2.5-1.99V23C38.5,22.173,37.827,21.5,37,21.5 L37,21.5z M17,21.5h-6c-0.827,0-1.5,0.673-1.5,1.5v0.51c0,0.598,0.244,1.99,2.5,1.99c0.517,0,1.441-0.08,2-0.249 c0.559,0.169,1.483,0.249,2,0.249c2.256,0,2.5-1.392,2.5-1.99V23C18.5,22.173,17.827,21.5,17,21.5L17,21.5z M27,29.5h-6 c-0.827,0-1.5,0.673-1.5,1.5v0.51c0,0.598,0.244,1.99,2.5,1.99c0.517,0,1.441-0.08,2-0.249c0.559,0.169,1.483,0.249,2,0.249 c2.256,0,2.5-1.392,2.5-1.99V31C28.5,30.173,27.827,29.5,27,29.5L27,29.5z" opacity=".07"/><linearGradient id="2dXKrI_c0~HCHd3pBeiLeS" x1="24" x2="24" y1="10.696" y2="26.566" gradientUnits="userSpaceOnUse"><stop offset="0" stop-color="#faf8e5"/><stop offset="1" stop-color="#faeeac"/></linearGradient><path fill="url(#2dXKrI_c0~HCHd3pBeiLeS)" d="M18,23.51c0,0.863-0.551,1.49-2,1.49c-0.579,0-1.59-0.104-2-0.279 C13.59,24.896,12.579,25,12,25c-1.449,0-2-0.627-2-1.49c0-0.1,0-0.432,0-0.51c0-0.55,0.45-1,1-1h6c0.55,0,1,0.45,1,1 C18,23.078,18,23.409,18,23.51z M28,31c0-0.55-0.45-1-1-1h-6c-0.55,0-1,0.45-1,1c0,0.078,0,0.409,0,0.51c0,0.863,0.551,1.49,2,1.49 c0.579,0,1.59-0.104,2-0.279C24.41,32.896,25.421,33,26,33c1.449,0,2-0.627,2-1.49C28,31.409,28,31.078,28,31z M38,23 c0-0.55-0.45-1-1-1h-6c-0.55,0-1,0.45-1,1c0,0.078,0,0.409,0,0.51c0,0.863,0.551,1.49,2,1.49c0.579,0,1.59-0.104,2-0.279 C34.41,24.896,35.421,25,36,25c1.449,0,2-0.627,2-1.49C38,23.409,38,23.078,38,23z"/></g><radialGradient id="2dXKrI_c0~HCHd3pBeiLeT" cx="13.543" cy="20.34" r="8.616" gradientUnits="userSpaceOnUse"><stop offset=".029" stop-color="#bd8215"/><stop offset="1" stop-color="#bd8215" stop-opacity="0"/></radialGradient><polygon fill="url(#2dXKrI_c0~HCHd3pBeiLeT)" points="19,14.75 19,21 22,13.5"/></svg>