<svg xmlns="http://www.w3.org/2000/svg" viewBox="0 0 48 48"><path fill="#16538c" d="M24,11c-0.552,0-1-0.448-1-1V7c0-0.552,0.448-1,1-1s1,0.448,1,1v3C25,10.552,24.552,11,24,11z"/><path fill="#16538c" d="M30.5,44c-0.618,0-1.196-0.385-1.414-1L24,28.623L18.914,43c-0.276,0.781-1.136,1.189-1.914,0.914	c-0.781-0.276-1.19-1.133-0.914-1.914l6.5-18.375c0.212-0.6,0.778-1,1.414-1s1.202,0.4,1.414,1L31.914,42	c0.276,0.781-0.133,1.638-0.914,1.914C30.835,43.973,30.666,44,30.5,44z"/><radialGradient id="9kztQ8WkCUb9eldYzbz8Ma" cx="52.794" cy="47.482" r="64.875" gradientUnits="userSpaceOnUse"><stop offset=".131" stop-color="#23d9d6"/><stop offset=".214" stop-color="#21bddd"/><stop offset=".364" stop-color="#1e90e7"/><stop offset=".508" stop-color="#1b6cf0"/><stop offset=".642" stop-color="#1953f6"/><stop offset=".764" stop-color="#1843fa"/><stop offset=".862" stop-color="#183efb"/></radialGradient><path fill="url(#9kztQ8WkCUb9eldYzbz8Ma)" d="M42,8.125H6c-0.552,0-1,0.448-1,1V36c0,0.552,0.448,1,1,1h36c0.552,0,1-0.448,1-1V9.125	C43,8.573,42.552,8.125,42,8.125z"/><path fill="#fff" d="M13,29c-0.256,0-0.512-0.098-0.707-0.293c-0.391-0.391-0.391-1.023,0-1.414l7.5-7.5	c0.391-0.391,1.023-0.391,1.414,0l5.293,5.293l6.293-6.293c0.391-0.391,1.023-0.391,1.414,0s0.391,1.023,0,1.414l-7,7	c-0.391,0.391-1.023,0.391-1.414,0L20.5,21.914l-6.793,6.793C13.512,28.902,13.256,29,13,29z"/><polygon fill="#fff" points="31,17 36,22 36,17"/></svg>