<svg xmlns="http://www.w3.org/2000/svg" data-name="Слой 1" viewBox="0 0 48 48"><defs><linearGradient id="a4MXSs2fl6CnP9_X4Lhfva" x1="24" x2="24" y1="20.022" y2="49.817" gradientUnits="userSpaceOnUse"><stop offset="0" stop-color="#f44f5a"/><stop offset=".443" stop-color="#ee3d4a"/><stop offset=".651" stop-color="#ed3b48"/><stop offset=".726" stop-color="#eb3442"/><stop offset=".779" stop-color="#e82938"/><stop offset=".804" stop-color="#e52030"/></linearGradient><linearGradient id="a4MXSs2fl6CnP9_X4Lhfvb" x1="23.505" x2="23.505" y1="32.217" y2="47.088" gradientUnits="userSpaceOnUse"><stop offset="0" stop-color="#fed100"/><stop offset=".353" stop-color="#fdcf00"/><stop offset=".523" stop-color="#fcc700"/><stop offset=".655" stop-color="#f9ba00"/><stop offset=".766" stop-color="#f4a800"/><stop offset=".865" stop-color="#ee9001"/><stop offset=".954" stop-color="#e77201"/><stop offset="1" stop-color="#e36001"/></linearGradient><linearGradient id="a4MXSs2fl6CnP9_X4Lhfvc" x1="24" x2="24" y1="35.557" y2="8.451" data-name="Новый образец градиентной зал 2" gradientUnits="userSpaceOnUse"><stop offset="0" stop-color="#2aa4f4"/><stop offset="1" stop-color="#007ad9"/></linearGradient></defs><path fill="url(#a4MXSs2fl6CnP9_X4Lhfva)" d="M36,43.93c0,.36-.02.72-.05,1.07H12.05c-.03-.36-.05-.71-.05-1.07,0-9.81,11.49-11.62,9.62-19.94a.89578.89578,0,0,1-.02-.18.80455.80455,0,0,1,.8-.81.86969.86969,0,0,1,.37.09c.98.37994,7.7,3.56994,6.14,12.79,2.26-1.37,1.3-3.88,2.21-3.88.27,0,.39.1.56.35C34.14,35.89,36,39.97,36,43.93Z"/><path fill="url(#a4MXSs2fl6CnP9_X4Lhfvb)" d="M29.15,45H17.86c.79-3.92,4.85-5.45,4.2-9.29a.71493.71493,0,0,1,.72-.71.79415.79415,0,0,1,.45.15A18.28611,18.28611,0,0,1,29.15,45Z"/><path fill="url(#a4MXSs2fl6CnP9_X4Lhfvc)" d="M25,13a1,1,0,1,0-1,1A1,1,0,0,0,25,13Zm0,4a1,1,0,1,0-1,1A1,1,0,0,0,25,17Zm0,4a1,1,0,1,0-1,1A1,1,0,0,0,25,21Zm-5-6a1,1,0,1,0-1,1A1,1,0,0,0,20,15Zm-1,4a1,1,0,1,0-1,1A1,1,0,0,0,19,19Zm-1,4a1,1,0,1,0-1,1A1,1,0,0,0,18,23Zm-1,4a1,1,0,1,0-1,1A1,1,0,0,0,17,27Zm-1,4a1,1,0,1,0-1,1A1,1,0,0,0,16,31ZM14,14a1,1,0,1,0-1-1A1,1,0,0,0,14,14Zm-2,4a1,1,0,1,0-1-1A1,1,0,0,0,12,18Zm-2,4a1,1,0,1,0-1-1A1,1,0,0,0,10,22ZM8,26a1,1,0,1,0-1-1A1,1,0,0,0,8,26ZM6,30a1,1,0,1,0-1-1A1,1,0,0,0,6,30Zm36,0a1,1,0,1,0-1-1A1,1,0,0,0,42,30ZM29,16a1,1,0,1,0-1-1A1,1,0,0,0,29,16Zm1,4a1,1,0,1,0-1-1A1,1,0,0,0,30,20Zm1,4a1,1,0,1,0-1-1A1,1,0,0,0,31,24Zm1,4a1,1,0,1,0-1-1A1,1,0,0,0,32,28Zm3-15a1,1,0,1,0-1,1A1,1,0,0,0,35,13Zm2,4a1,1,0,1,0-1,1A1,1,0,0,0,37,17Zm2,4a1,1,0,1,0-1,1A1,1,0,0,0,39,21Zm2,4a1,1,0,1,0-1,1A1,1,0,0,0,41,25Z"/><path fill="#42a4ed" d="M34,10H14a1,1,0,0,1-.91915-1.39392L15.43956,4.0763A2,2,0,0,1,17.21348,3h13.573a2,2,0,0,1,1.77392,1.0763l2.35871,4.52978A1,1,0,0,1,34,10Z"/></svg>