<svg xmlns="http://www.w3.org/2000/svg" data-name="Слой 1" viewBox="0 0 48 48"><defs><linearGradient id="G5whqiDRw7LNLLk9eE5Fta" x1="24.5" x2="24.5" y1="32.663" y2="7.126" data-name="Безымянный градиент 53" gradientUnits="userSpaceOnUse"><stop offset="0" stop-color="#fed100"/><stop offset="1" stop-color="#e38101"/></linearGradient></defs><path fill="#64717c" d="M42,42.01H6A2.00432,2.00432,0,0,1,4.26,39.02L16,18.2l.03-.05L16.68,17l.55-.98c0-.00995.01-.00995.01-.02a1.983,1.983,0,0,1,.96-.85,2.25048,2.25048,0,0,1,.24-.08,1.67708,1.67708,0,0,1,.5-.07H29.06a1.67708,1.67708,0,0,1,.5.07,2.25048,2.25048,0,0,1,.24.08,1.74446,1.74446,0,0,1,.55.34,2.04292,2.04292,0,0,1,.41.51c0,.01.01.01.01.02l.55.98,1.65,2.92.03.05L43.74,39.02A2.00432,2.00432,0,0,1,42,42.01Z"/><path fill="url(#G5whqiDRw7LNLLk9eE5Fta)" d="M33,19.97V23a1,1,0,0,1-2,0V20a1,1,0,0,0-2,0v.5a1.5,1.5,0,0,1-3,0v-1a1.5,1.5,0,0,0-3,0v7a1.5,1.5,0,0,1-3,0V20a1,1,0,0,0-2,0v2a1,1,0,0,1-2,0V18.2l.03-.05L16.68,17l.55-.98c0-.00995.01-.00995.01-.02a1.983,1.983,0,0,1,.96-.85,2.25048,2.25048,0,0,1,.24-.08,1.67708,1.67708,0,0,1,.5-.07H29.06a1.67708,1.67708,0,0,1,.5.07,2.25048,2.25048,0,0,1,.24.08,1.74446,1.74446,0,0,1,.55.34,2.04292,2.04292,0,0,1,.41.51c0,.01.01.01.01.02l.55.98,1.65,2.92Z"/><circle cx="24" cy="11" r="2" fill="#889097"/><circle cx="41" cy="10" r="2" fill="#889097"/><circle cx="42.5" cy="5.5" r="1.5" fill="#889097"/><circle cx="37" cy="14" r="1" fill="#889097"/><circle cx="27.5" cy="8.5" r="3.5" fill="#889097"/><circle cx="38" cy="9" r="3" fill="#889097"/><circle cx="32.5" cy="8.5" r="4.5" fill="#889097"/></svg>