<svg xmlns="http://www.w3.org/2000/svg" xmlns:xlink="http://www.w3.org/1999/xlink" data-name="Слой 1" viewBox="0 0 48 48"><defs><linearGradient id="eF~slkqyV8OBpwODEhgona" x1="13.012" x2="35.067" y1="-5.367" y2="55.229" data-name="Безымянный градиент 154" gradientUnits="userSpaceOnUse"><stop offset="0" stop-color="#0d61a9"/><stop offset="1" stop-color="#16528c"/></linearGradient><linearGradient id="eF~slkqyV8OBpwODEhgonc" x1="15.188" x2="32.238" y1="1.788" y2="48.633" data-name="Безымянный градиент 152" gradientUnits="userSpaceOnUse"><stop offset="0" stop-color="#2aa4f4"/><stop offset="1" stop-color="#007ad9"/></linearGradient><linearGradient id="eF~slkqyV8OBpwODEhgond" x1="24" x2="24" y1="5.261" y2="21.142" xlink:href="#eF~slkqyV8OBpwODEhgona"/><linearGradient id="eF~slkqyV8OBpwODEhgone" x1="24" x2="24" y1="27.859" y2="32.251" xlink:href="#eF~slkqyV8OBpwODEhgona"/><linearGradient id="eF~slkqyV8OBpwODEhgonb" x1="15.5" x2="15.5" y1="16.63" y2="29.58" gradientUnits="userSpaceOnUse"><stop offset="0" stop-color="#a8e2f7"/><stop offset="1" stop-color="#47c1ff"/></linearGradient><linearGradient id="eF~slkqyV8OBpwODEhgonf" x1="24" x2="24" y1="6.065" y2="19.671" xlink:href="#eF~slkqyV8OBpwODEhgonb"/><linearGradient id="eF~slkqyV8OBpwODEhgong" x1="28" x2="28" y1="6.065" y2="19.671" xlink:href="#eF~slkqyV8OBpwODEhgonb"/><linearGradient id="eF~slkqyV8OBpwODEhgonh" x1="20" x2="20" y1="6.065" y2="19.671" xlink:href="#eF~slkqyV8OBpwODEhgonb"/><linearGradient id="eF~slkqyV8OBpwODEhgoni" x1="12" x2="12" y1="27.983" y2="25.993" xlink:href="#eF~slkqyV8OBpwODEhgona"/></defs><path fill="url(#eF~slkqyV8OBpwODEhgona)" d="M38,44H10V6a2,2,0,0,1,2-2H36a2,2,0,0,1,2,2Z"/><rect width="20" height="36" x="14" y="8" fill="url(#eF~slkqyV8OBpwODEhgonc)"/><rect width="14" height="8" x="17" y="13" fill="url(#eF~slkqyV8OBpwODEhgond)" rx="1"/><rect width="8" height="3" x="20" y="33" fill="url(#eF~slkqyV8OBpwODEhgone)" rx="1"/><rect width="11" height="6" x="10" y="24" fill="url(#eF~slkqyV8OBpwODEhgonb)" rx="1"/><rect width="2" height="8" x="23" y="13" fill="url(#eF~slkqyV8OBpwODEhgonf)"/><rect width="2" height="8" x="27" y="13" fill="url(#eF~slkqyV8OBpwODEhgong)"/><rect width="2" height="8" x="19" y="13" fill="url(#eF~slkqyV8OBpwODEhgonh)"/><circle cx="12" cy="27" r="1" fill="url(#eF~slkqyV8OBpwODEhgoni)"/><path d="M20,23H11a1.99484,1.99484,0,0,0-1,.27V25a1.003,1.003,0,0,1,1-1h9a1.003,1.003,0,0,1,1,1v4a1.003,1.003,0,0,1-1,1H11a1.003,1.003,0,0,1-1-1v1.73A1.99488,1.99488,0,0,0,11,31h9a2.00591,2.00591,0,0,0,2-2V25A2.00587,2.00587,0,0,0,20,23Z" opacity=".05"/><path d="M20,23.5H11a1.46779,1.46779,0,0,0-1,.39V25a1.003,1.003,0,0,1,1-1h9a1.003,1.003,0,0,1,1,1v4a1.003,1.003,0,0,1-1,1H11a1.003,1.003,0,0,1-1-1v1.11a1.46807,1.46807,0,0,0,1,.39h9A1.498,1.498,0,0,0,21.5,29V25A1.498,1.498,0,0,0,20,23.5Z" opacity=".07"/></svg>