<svg xmlns="http://www.w3.org/2000/svg" viewBox="0 0 48 48"><linearGradient id="yZUTAL2vQEkrWOS2o~rTqa" x1="14.5" x2="14.5" y1="4.879" y2="44.599" gradientUnits="userSpaceOnUse"><stop offset="0" stop-color="#f29100"/><stop offset="1" stop-color="#e84e1b"/></linearGradient><path fill="url(#yZUTAL2vQEkrWOS2o~rTqa)" d="M22.5,41C13.543,41,0,34.818,0,25.5C0,16.085,13.649,9,22.5,9C28.531,9,29,21.629,29,25.5	C29,35.351,26.631,41,22.5,41z M22.5,12C14.978,12,3,18.178,3,25.5C3,32.632,14.829,38,22.5,38c1.696,0,3.5-4.381,3.5-12.5	C26,16.691,23.968,12,22.5,12z"/><linearGradient id="yZUTAL2vQEkrWOS2o~rTqb" x1="39.5" x2="39.5" y1="2.879" y2="42.599" gradientUnits="userSpaceOnUse"><stop offset="0" stop-color="#f29100"/><stop offset="1" stop-color="#e84e1b"/></linearGradient><path fill="url(#yZUTAL2vQEkrWOS2o~rTqb)" d="M46.5,15h-14c-0.828,0-1.5-0.671-1.5-1.5s0.672-1.5,1.5-1.5h14c0.828,0,1.5,0.671,1.5,1.5	S47.328,15,46.5,15z"/><linearGradient id="yZUTAL2vQEkrWOS2o~rTqc" x1="39.5" x2="39.5" y1="1.879" y2="41.599" gradientUnits="userSpaceOnUse"><stop offset="0" stop-color="#f29100"/><stop offset="1" stop-color="#e84e1b"/></linearGradient><path fill="url(#yZUTAL2vQEkrWOS2o~rTqc)" d="M46.5,23h-14c-0.828,0-1.5-0.671-1.5-1.5s0.672-1.5,1.5-1.5h14c0.828,0,1.5,0.671,1.5,1.5	S47.328,23,46.5,23z"/><linearGradient id="yZUTAL2vQEkrWOS2o~rTqd" x1="39.5" x2="39.5" y1=".879" y2="40.599" gradientUnits="userSpaceOnUse"><stop offset="0" stop-color="#f29100"/><stop offset="1" stop-color="#e84e1b"/></linearGradient><path fill="url(#yZUTAL2vQEkrWOS2o~rTqd)" d="M46.5,31h-14c-0.828,0-1.5-0.671-1.5-1.5s0.672-1.5,1.5-1.5h14c0.828,0,1.5,0.671,1.5,1.5	S47.328,31,46.5,31z"/><linearGradient id="yZUTAL2vQEkrWOS2o~rTqe" x1="39.5" x2="39.5" y1="8.879" y2="48.599" gradientUnits="userSpaceOnUse"><stop offset="0" stop-color="#f29100"/><stop offset="1" stop-color="#e84e1b"/></linearGradient><path fill="url(#yZUTAL2vQEkrWOS2o~rTqe)" d="M46.5,39h-14c-0.828,0-1.5-0.671-1.5-1.5s0.672-1.5,1.5-1.5h14c0.828,0,1.5,0.671,1.5,1.5	S47.328,39,46.5,39z"/></svg>