<svg xmlns="http://www.w3.org/2000/svg" xmlns:xlink="http://www.w3.org/1999/xlink" data-name="Слой 1" viewBox="0 0 48 48"><defs><linearGradient id="67V63FUnUnBWCOVTQT5WSa" x1="42.204" x2="33.324" y1="4.796" y2="13.676" data-name="Безымянный градиент 55" gradientUnits="userSpaceOnUse"><stop offset="0" stop-color="#6d6d6d"/><stop offset=".126" stop-color="#626262"/><stop offset=".987" stop-color="#464646"/><stop offset=".998" stop-color="#454545"/></linearGradient><linearGradient id="67V63FUnUnBWCOVTQT5WSb" x1="20.889" x2="32.259" y1="11.639" y2="23.009" data-name="Безымянный градиент 22" gradientTransform="rotate(-45 27.625 18.375)" gradientUnits="userSpaceOnUse"><stop offset="0" stop-color="#d4943b"/><stop offset="1" stop-color="#c2620e"/></linearGradient><linearGradient id="67V63FUnUnBWCOVTQT5WSc" x1="35.678" x2="25.437" y1="33.387" y2="23.146" xlink:href="#67V63FUnUnBWCOVTQT5WSa"/><linearGradient id="67V63FUnUnBWCOVTQT5WSd" x1="24.865" x2="17.512" y1="37.401" y2="30.047" data-name="Безымянный градиент 41" gradientUnits="userSpaceOnUse"><stop offset="0" stop-color="#d4943b"/><stop offset=".328" stop-color="#d39138"/><stop offset=".555" stop-color="#d08830"/><stop offset=".751" stop-color="#ca7922"/><stop offset=".93" stop-color="#c2630f"/><stop offset=".938" stop-color="#c2620e"/><stop offset="1" stop-color="#c2620e"/></linearGradient><linearGradient id="67V63FUnUnBWCOVTQT5WSe" x1="3.393" x2="14.764" y1="29.134" y2="40.504" xlink:href="#67V63FUnUnBWCOVTQT5WSb"/><linearGradient id="67V63FUnUnBWCOVTQT5WSf" x1="14.484" x2="25.517" y1="18.484" y2="29.517" gradientTransform="rotate(-45 20.5 24.5)" xlink:href="#67V63FUnUnBWCOVTQT5WSa"/></defs><path fill="#889097" d="M20,32V30c.0332,0,3.3252-.18945,4.02539-3.2251l1.94922.4502A6.35939,6.35939,0,0,1,20,32Z"/><polygon fill="#343434" points="43 4 41 2 40.5 3.5 42 5 43 4"/><path fill="#889097" d="M30.37684,7.01916h1.12132a0,0,0,0,1,0,0V23.10584a0,0,0,0,1,0,0H29.37684a0,0,0,0,1,0,0V8.01916A1,1,0,0,1,30.37684,7.01916Z" transform="rotate(45 30.438 15.062)"/><path fill="url(#67V63FUnUnBWCOVTQT5WSa)" d="M31,17a1,1,0,0,1-.707-1.707l12-12A.99989.99989,0,0,1,43.707,4.707l-12,12A.99676.99676,0,0,1,31,17Z"/><path fill="url(#67V63FUnUnBWCOVTQT5WSb)" d="M26.50368,9.88972h2.24264a1,1,0,0,1,1,1V26.86028a0,0,0,0,1,0,0H25.50368a0,0,0,0,1,0,0V10.88972a1,1,0,0,1,1-1Z" transform="rotate(45 27.625 18.375)"/><path fill="url(#67V63FUnUnBWCOVTQT5WSc)" d="M32.5,30.0166c-3.1123,0-6.68359-.37158-10.91406-4.60254l2.82812-2.82812c3.50879,3.50879,6.31934,3.46,9.08594,3.42187.09421-.00125.28211-.0025.494-.00362a1.00073,1.00073,0,0,1,1.006,1v2.00324a.999.999,0,0,1-.99158,1C33.39392,30.01182,32.68717,30.0166,32.5,30.0166Z"/><path fill="url(#67V63FUnUnBWCOVTQT5WSd)" d="M14.75,30.5l2.20711,2.20711A1,1,0,0,0,17.66421,33H18.75l1.2658,2.7088a1,1,0,0,0,1.561.42974l.83289-.66631a1,1,0,0,0,.29694-1.16893L21.152,30.61107a2,2,0,0,0-.42906-.6381L18.25,27.5Z"/><path fill="url(#67V63FUnUnBWCOVTQT5WSe)" d="M14.25619,29.24656l-2.71671,3.6223a2.00014,2.00014,0,0,1-.70558.58885L9.58741,34.081a1.99989,1.99989,0,0,0-.58118.43882L4.51285,39.4311a1,1,0,0,0,.03,1.38283l3.92366,4.143a1,1,0,0,0,1.60766-.27235l6.182-13.438Z"/><rect width="5.657" height="16.617" x="17.672" y="16.192" fill="url(#67V63FUnUnBWCOVTQT5WSf)" rx="1" transform="rotate(45 20.5 24.5)"/></svg>