<svg xmlns="http://www.w3.org/2000/svg" viewBox="0 0 48 48"><polygon fill="#5bc8ef" points="20,13 20,17 22,18.978 28.011,18.978 34,25 37.989,25 40,23 40,19 35,14 34,14 34,7 32.056,5 27.944,5"/><rect width="3" height="3" x="9" y="39" fill="#bf6415"/><rect width="3" height="3" x="21" y="27" fill="#bf6415"/><rect width="3" height="3" x="24" y="24" fill="#bf6415"/><path fill="#bf6415" d="M36,12h2c0.552,0,1,0.448,1,1v2h-3V12z"/><rect width="3" height="3" x="27" y="21" fill="#bf6415"/><rect width="3" height="3" x="12" y="36" fill="#bf6415"/><rect width="3" height="3" x="15" y="33" fill="#bf6415"/><rect width="3" height="3" x="18" y="30" fill="#bf6415"/><path fill="#323538" d="M12,39h3v2c0,0.552-0.448,1-1,1h-2V39z"/><path fill="#323538" d="M27,24h3v2c0,0.552-0.448,1-1,1h-2V24z"/><path fill="#323538" d="M24,27h3v2c0,0.552-0.448,1-1,1h-2V27z"/><rect width="3" height="3" x="30" y="21" fill="#323538"/><path fill="#323538" d="M9,42v-3H7c-0.552,0-1,0.448-1,1v4c0,0.552,0.448,1,1,1h4c0.552,0,1-0.448,1-1v-2H9z"/><path fill="#323538" d="M10,36h2v3H9v-2C9,36.448,9.448,36,10,36z"/><path fill="#323538" d="M22,24h2v3h-3v-2C21,24.448,21.448,24,22,24z"/><path fill="#323538" d="M25,21h2v3h-3v-2C24,21.448,24.448,21,25,21z"/><rect width="3" height="3" x="27" y="18" fill="#323538"/><rect width="3" height="3" x="33" y="12" fill="#323538"/><rect width="3" height="3" x="36" y="15" fill="#323538"/><path fill="#323538" d="M18,33h3v2c0,0.552-0.448,1-1,1h-2V33z"/><path fill="#323538" d="M15,36h3v2c0,0.552-0.448,1-1,1h-2V36z"/><path fill="#323538" d="M21,30h3v2c0,0.552-0.448,1-1,1h-2V30z"/><path fill="#323538" d="M13,33h2v3h-3v-2C12,33.448,12.448,33,13,33z"/><path fill="#323538" d="M16,30h2v3h-3v-2C15,30.448,15.448,30,16,30z"/><path fill="#323538" d="M19,27h2v3h-3v-2C18,27.448,18.448,27,19,27z"/><linearGradient id="0XVdjyJ0CoalPLmS9tBFBa" x1="20.994" x2="39.87" y1="5.972" y2="24.916" gradientUnits="userSpaceOnUse"><stop offset="0" stop-color="#2aa4f4"/><stop offset="1" stop-color="#007ad9"/></linearGradient><path fill="url(#0XVdjyJ0CoalPLmS9tBFBa)" d="M35,6c0.552,0,1,0.448,1,1v2v3h-3V9V6H35z M39,18v3v3h2c0.552,0,1-0.448,1-1v-2v-2 c0-0.552-0.448-1-1-1H39z M33,4c0-0.552-0.448-1-1-1h-2h-2c-0.552,0-1,0.448-1,1v2h3h3V4z M27,18h-3h-3v2c0,0.552,0.448,1,1,1h2h3 V18z M39,24h-3h-3v2c0,0.552,0.448,1,1,1h2h2c0.552,0,1-0.448,1-1V24z M21,18l0-3l0-3l-2,0c-0.552,0-1,0.448-1,1v2v2 c0,0.552,0.448,1,1,1H21z M27,6h-2c-0.552,0-1,0.448-1,1v2h3V6z M24,9h-2c-0.552,0-1,0.448-1,1v2h3V9z"/></svg>