<svg xmlns="http://www.w3.org/2000/svg" viewBox="0 0 48 48"><linearGradient id="AzDbA4gvIETHcVh6o9Wd5a" x1="20.5" x2="20.5" y1="4.864" y2="73.872" gradientUnits="userSpaceOnUse"><stop offset="0" stop-color="#ff6181"/><stop offset="1" stop-color="#c41f40"/></linearGradient><path fill="url(#AzDbA4gvIETHcVh6o9Wd5a)" d="M16,30.25l0.033,0.092c0.546,1.501,0.241,3.169-0.775,4.377C15.1,34.906,15,35.136,15,35.381	V41c0,0.552,0.448,1,1,1h3v-5c4,0,7-3,7-3L16,30.25z"/><linearGradient id="AzDbA4gvIETHcVh6o9Wd5b" x1="17.346" x2="17.346" y1="41.997" y2="38.31" gradientUnits="userSpaceOnUse"><stop offset=".002" stop-color="#454545"/><stop offset=".013" stop-color="#464646"/><stop offset=".875" stop-color="#626262"/><stop offset="1" stop-color="#6d6d6d"/></linearGradient><path fill="url(#AzDbA4gvIETHcVh6o9Wd5b)" d="M19,40h-4v1c0,0.552,0.448,1,1,1h3.191c0.372,0,0.613-0.391,0.447-0.724L19,40z"/><linearGradient id="AzDbA4gvIETHcVh6o9Wd5c" x1="33" x2="33" y1="4.864" y2="73.872" gradientUnits="userSpaceOnUse"><stop offset="0" stop-color="#ff6181"/><stop offset="1" stop-color="#c41f40"/></linearGradient><path fill="url(#AzDbA4gvIETHcVh6o9Wd5c)" d="M35,42h-3c-0.552,0-1-0.448-1-1v-7h4V42z"/><linearGradient id="AzDbA4gvIETHcVh6o9Wd5d" x1="33.346" x2="33.346" y1="41.997" y2="38.31" gradientUnits="userSpaceOnUse"><stop offset=".002" stop-color="#454545"/><stop offset=".013" stop-color="#464646"/><stop offset=".875" stop-color="#626262"/><stop offset="1" stop-color="#6d6d6d"/></linearGradient><path fill="url(#AzDbA4gvIETHcVh6o9Wd5d)" d="M35,40h-4v1c0,0.552,0.448,1,1,1h3.191c0.372,0,0.613-0.391,0.447-0.724L35,40z"/><linearGradient id="AzDbA4gvIETHcVh6o9Wd5e" x1="37.82" x2="37.82" y1="4.864" y2="73.872" gradientUnits="userSpaceOnUse"><stop offset="0" stop-color="#ff6181"/><stop offset="1" stop-color="#c41f40"/></linearGradient><path fill="url(#AzDbA4gvIETHcVh6o9Wd5e)" d="M42.138,14H40c-3.866,0-7,3.134-7,7v0h6l3.573-6.252C42.763,14.415,42.522,14,42.138,14z"/><linearGradient id="AzDbA4gvIETHcVh6o9Wd5f" x1="26.5" x2="26.5" y1="12.057" y2="67.829" gradientUnits="userSpaceOnUse"><stop offset="0" stop-color="#ffa1a6"/><stop offset="1" stop-color="#f24472"/></linearGradient><path fill="url(#AzDbA4gvIETHcVh6o9Wd5f)" d="M28.969,36H19c-5.523,0-10-4.477-10-10v-1c0-6.627,5.373-12,12-12h7.793	c3.263,0,6.321,1.592,8.192,4.265l1.964,2.805c1.355,1.936,3.06,3.602,5.026,4.913L44,25v4.25l0,0	C40.184,33.543,34.713,36,28.969,36z"/><linearGradient id="AzDbA4gvIETHcVh6o9Wd5g" x1="44" x2="44" y1="4.864" y2="73.872" gradientUnits="userSpaceOnUse"><stop offset="0" stop-color="#ff6181"/><stop offset="1" stop-color="#c41f40"/></linearGradient><ellipse cx="44" cy="27" fill="url(#AzDbA4gvIETHcVh6o9Wd5g)" rx="2" ry="3"/><linearGradient id="AzDbA4gvIETHcVh6o9Wd5h" x1="37" x2="39" y1="25" y2="25" gradientUnits="userSpaceOnUse"><stop offset="0" stop-color="#4c4c4c"/><stop offset="1" stop-color="#343434"/></linearGradient><circle cx="38" cy="25" r="1" fill="url(#AzDbA4gvIETHcVh6o9Wd5h)"/><linearGradient id="AzDbA4gvIETHcVh6o9Wd5i" x1="32.82" x2="32.82" y1="4.864" y2="73.872" gradientUnits="userSpaceOnUse"><stop offset="0" stop-color="#ff6181"/><stop offset="1" stop-color="#c41f40"/></linearGradient><path fill="url(#AzDbA4gvIETHcVh6o9Wd5i)" d="M37.138,12H35c-3.866,0-7,3.134-7,7v0h6l3.573-6.252C37.763,12.415,37.522,12,37.138,12z"/><linearGradient id="AzDbA4gvIETHcVh6o9Wd5j" x1="7" x2="7" y1="12.057" y2="67.829" gradientUnits="userSpaceOnUse"><stop offset="0" stop-color="#ffa1a6"/><stop offset="1" stop-color="#f24472"/></linearGradient><path fill="url(#AzDbA4gvIETHcVh6o9Wd5j)" d="M11,22c-1.824,0-3.291-0.44-4.318-1.252c-1.692,0.255-3.604-0.255-4.389-1.041	c-0.391-0.39-0.391-1.023,0-1.414s1.023-0.391,1.414,0c0.164,0.164,0.816,0.408,1.578,0.492C5.097,18.248,5,17.651,5,17	c0-4.268,5-4.268,5,0c0,1.121-0.366,2.048-1.052,2.71C9.594,19.928,10.321,20,11,20c0.552,0,1,0.448,1,1S11.552,22,11,22z M7.5,15.75C7.331,15.75,7,16.127,7,17c0,0.585,0.122,1.062,0.331,1.448C7.791,18.156,8,17.697,8,17C8,16.127,7.669,15.75,7.5,15.75	z"/><linearGradient id="AzDbA4gvIETHcVh6o9Wd5k" x1="14.5" x2="14.5" y1="12.057" y2="67.829" gradientUnits="userSpaceOnUse"><stop offset="0" stop-color="#ffa1a6"/><stop offset="1" stop-color="#f24472"/></linearGradient><path fill="url(#AzDbA4gvIETHcVh6o9Wd5k)" d="M10,30.25l0.033,0.092c0.546,1.501,0.241,3.169-0.775,4.377C9.1,34.906,9,35.136,9,35.381V41	c0,0.552,0.448,1,1,1h3v-5c4,0,7-3,7-3L10,30.25z"/><linearGradient id="AzDbA4gvIETHcVh6o9Wd5l" x1="11.346" x2="11.346" y1="44.145" y2="39.336" gradientUnits="userSpaceOnUse"><stop offset=".002" stop-color="#454545"/><stop offset=".013" stop-color="#464646"/><stop offset=".875" stop-color="#626262"/><stop offset="1" stop-color="#6d6d6d"/></linearGradient><path fill="url(#AzDbA4gvIETHcVh6o9Wd5l)" d="M13,40H9v1c0,0.552,0.448,1,1,1h3.191c0.372,0,0.613-0.391,0.447-0.724L13,40z"/><linearGradient id="AzDbA4gvIETHcVh6o9Wd5m" x1="30" x2="30" y1="12.057" y2="67.829" gradientUnits="userSpaceOnUse"><stop offset="0" stop-color="#ffa1a6"/><stop offset="1" stop-color="#f24472"/></linearGradient><path fill="url(#AzDbA4gvIETHcVh6o9Wd5m)" d="M32,42h-3c-0.552,0-1-0.448-1-1v-7h4V42z"/><linearGradient id="AzDbA4gvIETHcVh6o9Wd5n" x1="30.346" x2="30.346" y1="44.145" y2="39.336" gradientUnits="userSpaceOnUse"><stop offset=".002" stop-color="#454545"/><stop offset=".013" stop-color="#464646"/><stop offset=".875" stop-color="#626262"/><stop offset="1" stop-color="#6d6d6d"/></linearGradient><path fill="url(#AzDbA4gvIETHcVh6o9Wd5n)" d="M32,40h-4v1c0,0.552,0.448,1,1,1h3.191c0.372,0,0.613-0.391,0.447-0.724L32,40z"/></svg>