<svg xmlns="http://www.w3.org/2000/svg" viewBox="0 0 48 48"><linearGradient id="2Scfv6IHmQGya5VUHzfWqa" x1="-.021" x2="39.15" y1="-.021" y2="39.15" gradientUnits="userSpaceOnUse"><stop offset="0" stop-color="#fcfcfc"/><stop offset=".95" stop-color="#c3c9cd"/></linearGradient><path fill="url(#2Scfv6IHmQGya5VUHzfWqa)" d="M26.332,4.61l2.49,1.397l2.855,0.035c1.66,0.021,3.19,0.904,4.038,2.331l1.458,2.455	l2.455,1.458c1.428,0.848,2.311,2.378,2.331,4.038l0.035,2.855l1.397,2.49c0.812,1.448,0.812,3.215,0,4.663l-1.397,2.49	l-0.035,2.855c-0.021,1.66-0.904,3.19-2.331,4.038l-2.455,1.458l-1.458,2.455c-0.848,1.428-2.378,2.311-4.038,2.331l-2.855,0.035	l-2.49,1.397c-1.448,0.812-3.215,0.812-4.663,0l-2.49-1.397l-2.855-0.035c-1.66-0.021-3.19-0.904-4.038-2.331l-1.458-2.455	l-2.455-1.458c-1.428-0.848-2.311-2.378-2.331-4.038l-0.035-2.855l-1.397-2.49c-0.812-1.448-0.812-3.215,0-4.663l1.397-2.49	l0.035-2.855c0.021-1.66,0.904-3.19,2.331-4.038l2.455-1.458l1.458-2.455c0.848-1.428,2.378-2.311,4.038-2.331l2.855-0.035	l2.49-1.397C23.118,3.798,24.884,3.798,26.332,4.61z"/><path d="M23.333,35c-1.571,0-3.24-1.051-3.24-2.999c0-1.933,1.669-2.975,3.24-2.975	c1.592,0,3.204,1.022,3.204,2.975C26.537,33.97,24.925,35,23.333,35z M20.722,28.761l-0.247-0.64	c-0.119-0.309-0.345-1.113-0.345-1.943c0-2.513,1.465-3.793,2.534-4.728c0.927-0.81,1.411-1.271,1.411-2.094	c0-0.597-0.365-0.9-1.085-0.9c-1.711,0-3.07,1.034-3.575,1.479l-1.661,1.461v-6.75l0.487-0.291C19.75,13.456,21.502,13,23.453,13	c6.302,0,6.792,4.421,6.792,5.776c0,2.984-1.782,4.494-3.083,5.597c-1.023,0.867-1.602,1.396-1.602,2.187	c0,0.398,0.157,0.658,0.158,0.661l0.996,1.541H20.722z" opacity=".05"/><path d="M23.333,34.5c-1.329,0-2.74-0.876-2.74-2.499c0-1.607,1.412-2.475,2.74-2.475	c1.302,0,2.704,0.774,2.704,2.475C26.037,33.718,24.635,34.5,23.333,34.5z M21.065,28.261l-0.124-0.32	c-0.086-0.224-0.311-0.978-0.311-1.763c0-2.286,1.311-3.431,2.364-4.352c0.884-0.772,1.582-1.382,1.582-2.47	c0-1.299-1.213-1.4-1.585-1.4c-1.88,0-3.357,1.121-3.905,1.604l-0.83,0.73V14.93l0.244-0.146c1.428-0.853,3.095-1.285,4.954-1.285	c5.679,0,6.292,3.689,6.292,5.276c0,2.752-1.611,4.118-2.906,5.216c-0.993,0.842-1.778,1.506-1.778,2.568	c0,0.557,0.227,0.915,0.237,0.93l0.499,0.771H21.065z" opacity=".07"/><linearGradient id="2Scfv6IHmQGya5VUHzfWqb" x1="16.012" x2="31.267" y1="13.383" y2="32.468" gradientUnits="userSpaceOnUse"><stop offset="0" stop-color="#737b80"/><stop offset=".473" stop-color="#686f74"/><stop offset="1" stop-color="#575c61"/></linearGradient><path fill="url(#2Scfv6IHmQGya5VUHzfWqb)" d="M21.408,27.761c-0.088-0.229-0.277-0.91-0.277-1.583c0-3.832,3.945-3.979,3.945-6.821	c0-1.789-1.768-1.9-2.085-1.9c-2.008,0-3.576,1.148-4.235,1.728v-3.971C19.434,14.809,20.983,14,23.453,14	c5.72,0,5.792,3.932,5.792,4.776c0,4.539-4.684,4.875-4.684,7.784c0,0.607,0.22,1.051,0.317,1.201L21.408,27.761z M23.333,34	c-1.089,0-2.24-0.679-2.24-1.999s1.196-1.975,2.24-1.975s2.204,0.585,2.204,1.975C25.537,33.391,24.422,34,23.333,34z"/></svg>