<svg xmlns="http://www.w3.org/2000/svg" viewBox="0 0 48 48"><linearGradient id="oxWfi3LY4KFdJD3PXHreTa" x1="23.065" x2="25.047" y1="16.769" y2="43.763" gradientUnits="userSpaceOnUse"><stop offset="0" stop-color="#889097"/><stop offset="1" stop-color="#64717c"/></linearGradient><path fill="url(#oxWfi3LY4KFdJD3PXHreTa)" d="M40,43H8c-1.1,0-2-0.9-2-2V18c0-1.1,0.9-2,2-2h32c1.1,0,2,0.9,2,2v23C42,42.1,41.1,43,40,43z"/><path fill="#586067" d="M37,18H11c-0.552,0-1-0.448-1-1v-1h28v1C38,17.552,37.552,18,37,18z"/><linearGradient id="oxWfi3LY4KFdJD3PXHreTb" x1="24" x2="24" y1="5.087" y2="18.087" gradientUnits="userSpaceOnUse"><stop offset=".647" stop-color="#50e6ff"/><stop offset="1" stop-color="#2ab1c7"/></linearGradient><path fill="url(#oxWfi3LY4KFdJD3PXHreTb)" d="M36,7v11H12V7c0-1.105,0.895-2,2-2h20C35.105,5,36,5.895,36,7z"/><radialGradient id="oxWfi3LY4KFdJD3PXHreTc" cx="24" cy="30" r="11" gradientUnits="userSpaceOnUse"><stop offset="0"/><stop offset="1" stop-opacity="0"/></radialGradient><circle cx="24" cy="30" r="11" fill="url(#oxWfi3LY4KFdJD3PXHreTc)"/><radialGradient id="oxWfi3LY4KFdJD3PXHreTd" cx="23.937" cy="20.449" r="21.789" gradientUnits="userSpaceOnUse"><stop offset="0" stop-color="#fafafb"/><stop offset="1" stop-color="#c8cdd1"/></radialGradient><circle cx="24" cy="30" r="9.778" fill="url(#oxWfi3LY4KFdJD3PXHreTd)"/><path fill="#d83b01" d="M27.568,36.927c-0.225,0.116-0.501,0.027-0.617-0.198l-3.358-6.519	c-0.116-0.225-0.027-0.501,0.198-0.617c0.225-0.116,0.501-0.027,0.617,0.198l3.358,6.519C27.881,36.535,27.793,36.811,27.568,36.927	z"/><path fill="#45494d" d="M24,30.458c-0.118,0-0.235-0.045-0.324-0.134c-0.179-0.179-0.179-0.469,0-0.648l5.185-5.185	c0.179-0.179,0.469-0.179,0.648,0c0.179,0.179,0.179,0.469,0,0.648l-5.185,5.185C24.235,30.414,24.118,30.458,24,30.458z"/><path fill="#45494d" d="M23.999,30.764c-0.111,0-0.223-0.024-0.33-0.075l-4.759-2.283c-0.38-0.183-0.541-0.639-0.358-1.019	c0.183-0.38,0.639-0.541,1.019-0.358l4.759,2.283c0.38,0.183,0.541,0.639,0.358,1.019C24.557,30.604,24.284,30.764,23.999,30.764z"/><circle cx="24" cy="30" r="1.222" fill="#1e2021"/><path fill="#057093" d="M30,14h-8c-0.552,0-1,0.448-1,1l0,0c0,0.552,0.448,1,1,1h8c0.552,0,1-0.448,1-1l0,0	C31,14.448,30.552,14,30,14z"/><circle cx="18" cy="15" r="1" fill="#057093"/><path fill="#057093" d="M30,10h-8c-0.552,0-1,0.448-1,1l0,0c0,0.552,0.448,1,1,1h8c0.552,0,1-0.448,1-1l0,0	C31,10.448,30.552,10,30,10z"/><circle cx="18" cy="11" r="1" fill="#057093"/></svg>