<svg xmlns="http://www.w3.org/2000/svg" viewBox="0 0 48 48"><linearGradient id="XfaDrFGn1gnuLhoqm1sx8a" x1="24" x2="24" y1="56.287" y2="26.113" gradientUnits="userSpaceOnUse"><stop offset="0" stop-color="#cf1928"/><stop offset="1" stop-color="#b31523"/></linearGradient><path fill="url(#XfaDrFGn1gnuLhoqm1sx8a)" d="M44.5,25H4l-3,3l1.73,1.537c1.805,1.604,3.084,3.716,3.669,6.058L7,38c0,0,5,4,17,4s17-4,17-4	l0.245-1.471c0.486-2.916,2.032-5.551,4.34-7.398L47,28L44.5,25z"/><linearGradient id="XfaDrFGn1gnuLhoqm1sx8b" x1="24" x2="24" y1="6" y2="11" gradientUnits="userSpaceOnUse"><stop offset="0" stop-color="#cf1928"/><stop offset="1" stop-color="#b31523"/></linearGradient><path fill="url(#XfaDrFGn1gnuLhoqm1sx8b)" d="M25.5,11h-3V7.5C22.5,6.672,23.172,6,24,6h0c0.828,0,1.5,0.672,1.5,1.5V11z"/><linearGradient id="XfaDrFGn1gnuLhoqm1sx8c" x1="24" x2="24" y1="9.001" y2="52.263" gradientUnits="userSpaceOnUse"><stop offset="0" stop-color="#f44f5a"/><stop offset=".443" stop-color="#ee3d4a"/><stop offset="1" stop-color="#e52030"/></linearGradient><path fill="url(#XfaDrFGn1gnuLhoqm1sx8c)" d="M47,28c-1.016-0.564-2.135-1-5-1c-2.415,0-6.227,1-8,1c-3.852,0-6.313-1-10-1	c-3.729,0-6.147,1-10,1c-1.773,0-5.585-1-8-1c-2.865,0-3.984,0.436-5,1C1.038,23.351,9,9,24,9.001C38,9,46.962,23.351,47,28z"/></svg>