<svg xmlns="http://www.w3.org/2000/svg" viewBox="0 0 48 48"><linearGradient id="teowzB4p5TF8kaiN6NHHQa" x1="22.947" x2="24.43" y1="1.712" y2="35.14" gradientUnits="userSpaceOnUse"><stop offset=".301" stop-color="#2b92f3"/><stop offset="1" stop-color="#1166d2"/></linearGradient><path fill="url(#teowzB4p5TF8kaiN6NHHQa)" fill-rule="evenodd" d="M44.141,21.446c-0.065-0.244-0.137-0.484-0.216-0.721	L45,20l-1.858-2.588L44,16c0,0-1.57-2.445-3.477-3.353C38.615,11.74,38,13,38,13l1-3c0,0-0.706,1.078-4.002,1.463	C34.978,7.338,31.63,4,27.5,4c-2.445,0-4.611,1.176-5.98,2.987c-1.33-1.211-3.091-1.956-5.032-1.957c-0.001,0-0.002,0-0.004,0	c-4.134-0.001-7.486,3.349-7.487,7.483c0,1.016,0.204,1.984,0.571,2.867c-1.262,0.023-2.843-0.062-3.1-0.616	c-0.003,1.282,1.572,1.588,1.572,1.588S4.174,17.357,3.326,19c2.914,0.321,2.62,0.529,2.62,0.529s-0.112,1.223-4.715,1.588	c1.723,2.363,2.096,2.118,2.096,2.118s-3.933,4.172-1.572,6.353c2.361,2.181,2.822,4.241,2.62,6.353	c1.033-0.51,1.567-0.781,1.836-0.921c0.109,0.162,0.222,0.322,0.339,0.48c0.181,1.039,0.759,3.121,2.54,4.147	c0.607-0.737,0.83,1.325,3.143,3.177c0.552,0.178,0.524-1.059,0.524-1.059s2.098,0.636,3.143,2.118c0.3-1.835,4.715,0,4.715,0	s4.428,0.486,7.334-0.529c2.416,0.221,3.667,0,3.667,0l1.572-1.588c0,0,2.06,0.417,3.143-1.059c1.084-1.476,1.048-2.647,1.048-2.647	s1.187-0.005,2.619-1.588s1.572-1.059,1.572-1.059h1.572c0,0-0.304-2.271-0.211-4.22c1.051-2.027,1.631-4.197,1.642-6.398	C45.486,24.701,46.953,24.438,47,23C46.153,22.272,44.714,21.817,44.141,21.446z" clip-rule="evenodd"/><path fill="#fdefd6" fill-rule="evenodd" d="M16,7c-2.761,0-5,2.239-5,5s2.239,5,5,5s5-2.239,5-5	S18.761,7,16,7z" clip-rule="evenodd"/><path fill="#fdefd6" fill-rule="evenodd" d="M28,6c-2.761,0-5,2.239-5,5s2.239,5,5,5s5-2.239,5-5	S30.761,6,28,6z" clip-rule="evenodd"/><circle cx="26" cy="10" r="2" fill="#272727" fill-rule="evenodd" clip-rule="evenodd"/><circle cx="17" cy="13" r="2" fill="#272727" fill-rule="evenodd" clip-rule="evenodd"/><linearGradient id="teowzB4p5TF8kaiN6NHHQb" x1="22.428" x2="26.186" y1="19.197" y2="34.329" gradientUnits="userSpaceOnUse"><stop offset="0" stop-color="#0d265b"/><stop offset="1" stop-color="#0c3194"/></linearGradient><path fill="url(#teowzB4p5TF8kaiN6NHHQb)" fill-rule="evenodd" d="M39.786,17.382c-0.342-0.434-0.971-0.506-1.404-0.168	c-0.669,0.526-1.34,1.007-2.013,1.468C36.73,18.858,37,19,37,19c0.241,0.456-3.141,2.131-3.885,2.043	c0.406,0.158,1.825,0.726,1.813,0.735c-0.623,0.51-2.373,0.782-3.04,0.626c-0.48-0.112-0.938-0.26-1.543-0.329	c-0.133,0.025,1.416,1.7,1.348,1.719C29.353,24.47,28,23,28,23v3c0,0-2.732-0.23-3.928-1.904c-0.026,0.006-0.053,0.012-0.079,0.018	C24.009,25.537,22.46,27.707,22,28c0.098-0.768-0.219-2.256-0.851-3.048c-0.378,1.015-0.881,2.123-2.128,3.048	C18.905,27.911,19,26,19,26s-0.835,1.082-1.985,1.565c-0.079-2.056-0.035-2.466-0.019-2.544c-0.022,0.001-0.043,0.001-0.065,0.002	C16.655,25.12,15.599,25.572,15,27c-0.619-0.481-0.855-1.62-0.997-1.992c-0.005,0-0.009,0-0.013-0.001	C13.846,25.015,13.578,26.291,12,27c-0.189-0.162-0.129-1.856-2.003-2.37c0.003-0.004,0.016-0.011,0.021-0.016	c-1.689-0.266-2.684-0.558-2.724-0.57c-0.527-0.156-1.087,0.135-1.25,0.662c-0.162,0.527,0.133,1.087,0.661,1.249	C6.873,26.007,8.229,26.709,10,27c1.781,3.46,7,11,17,10c10.478-1.048,10.344-12.157,10-16c0.807-0.545,1.814-1.581,2.618-2.214	C40.052,18.444,40.127,17.815,39.786,17.382z" clip-rule="evenodd"/><path fill="#0c3194" fill-rule="evenodd" d="M33.115,21.043C33.046,21.016,32.998,20.998,33,21	C33.024,21.024,33.064,21.037,33.115,21.043z" clip-rule="evenodd"/><path fill="none" d="M-1-1h50v50H-1V-1z"/><path fill="#151515" d="M16,7c2.761,0,5,2.239,5,5s-2.239,5-5,5s-5-2.239-5-5S13.239,7,16,7 M16,6.5 c-3.033,0-5.5,2.467-5.5,5.5s2.467,5.5,5.5,5.5s5.5-2.467,5.5-5.5S19.033,6.5,16,6.5L16,6.5z" opacity=".05"/><path fill="#151515" d="M16,7c2.761,0,5,2.239,5,5s-2.239,5-5,5s-5-2.239-5-5S13.239,7,16,7 M16,6c-3.308,0-6,2.692-6,6 s2.692,6,6,6s6-2.692,6-6S19.308,6,16,6L16,6z" opacity=".05"/><path fill="#151515" d="M28,6c2.761,0,5,2.239,5,5s-2.239,5-5,5s-5-2.239-5-5S25.239,6,28,6 M28,5c-3.308,0-6,2.692-6,6 s2.692,6,6,6s6-2.692,6-6S31.308,5,28,5L28,5z" opacity=".05"/><path fill="#151515" d="M28,6c2.761,0,5,2.239,5,5s-2.239,5-5,5s-5-2.239-5-5S25.239,6,28,6 M28,5.5 c-3.033,0-5.5,2.467-5.5,5.5s2.467,5.5,5.5,5.5s5.5-2.467,5.5-5.5S31.033,5.5,28,5.5L28,5.5z" opacity=".05"/><path fill="#151515" d="M38.956,18.035c-0.308,0.245-0.636,0.537-0.959,0.828c-0.005-0.03-0.012-0.06-0.02-0.09 C38.323,18.521,38.645,18.279,38.956,18.035 M36.001,21.058l0.003,0.031c0.374,4.174,0.234,13.982-9.103,14.916 c-0.568,0.057-1.135,0.086-1.687,0.086c-7.139,0-11.354-4.718-13.394-7.928l0.011,0.009l0.579-0.26 c0.561-0.252,0.992-0.563,1.325-0.877c0.17,0.281,0.383,0.545,0.652,0.754l1.031,0.801l0.505-1.204 c0.025-0.061,0.052-0.119,0.079-0.175c0.004,0.124,0.009,0.254,0.014,0.392l0.055,1.443l1.331-0.559 c0.218-0.092,0.425-0.199,0.619-0.315c0.068,0.324,0.194,0.47,0.391,0.621l0.599,0.459l0.606-0.45 c0.585-0.434,1.032-0.903,1.387-1.388c0.018,0.18,0.02,0.339,0.005,0.458l-0.27,2.116l1.799-1.146 c0.498-0.317,1.484-1.598,2.044-2.949c1.483,0.934,3.237,1.094,3.335,1.102L29,27.088V26v-1.264c0.423,0.14,0.92,0.235,1.487,0.235 c0.486,0,0.986-0.073,1.476-0.215l0.53-0.15l0.159-0.525c0.075-0.247,0.071-0.437-0.017-0.642c0.854-0.045,2.209-0.301,2.927-0.889 l0.433-0.355l-0.076-0.554c-0.028-0.206-0.047-0.342-0.147-0.468C35.849,21.137,35.925,21.097,36.001,21.058 M7.007,25.002 c0.041,0.012,0.978,0.291,2.606,0.56l0.12,0.033c0.382,0.105,0.631,0.272,0.803,0.48l-0.373-0.061 c-1.336-0.219-2.443-0.708-2.86-0.892C7.15,25.054,7.046,25.014,7.007,25.002 M39,17.002c-0.217,0-0.435,0.07-0.618,0.212 c-0.669,0.526-1.34,1.007-2.013,1.468C36.73,18.858,37,19,37,19c0.235,0.444-2.971,2.046-3.823,2.046 c-0.022,0-0.043-0.001-0.062-0.003c0.406,0.158,1.825,0.726,1.813,0.735c-0.504,0.413-1.748,0.67-2.557,0.67 c-0.19,0-0.356-0.014-0.483-0.044c-0.48-0.112-0.938-0.26-1.543-0.329c-0.133,0.025,1.416,1.7,1.348,1.719 c-0.437,0.126-0.841,0.178-1.206,0.178C28.894,23.972,28,23,28,23v3c0,0-2.732-0.23-3.928-1.904 c-0.026,0.006-0.053,0.012-0.079,0.018C24.009,25.537,22.46,27.707,22,28c0.098-0.768-0.219-2.256-0.851-3.048 c-0.378,1.015-0.881,2.123-2.128,3.048C18.905,27.911,19,26,19,26s-0.835,1.082-1.985,1.565c-0.079-2.056-0.035-2.466-0.019-2.544 c-0.022,0.001-0.043,0.001-0.065,0.002C16.655,25.12,15.599,25.572,15,27c-0.619-0.481-0.855-1.62-0.997-1.992 c-0.005,0-0.009,0-0.013-0.001C13.846,25.015,13.578,26.291,12,27c-0.189-0.162-0.129-1.856-2.003-2.37 c0.003-0.004,0.016-0.011,0.021-0.016c-1.689-0.266-2.684-0.558-2.724-0.57c-0.096-0.028-0.193-0.042-0.289-0.042 c-0.429,0-0.828,0.273-0.961,0.704c-0.162,0.527,0.133,1.087,0.661,1.249C6.873,26.007,8.229,26.709,10,27 c1.672,3.248,6.373,10.091,15.214,10.091c0.578,0,1.173-0.029,1.786-0.091c10.478-1.048,10.344-12.157,10-16 c0.807-0.545,1.814-1.581,2.618-2.214c0.434-0.342,0.509-0.971,0.168-1.404C39.589,17.131,39.295,17.002,39,17.002L39,17.002z" opacity=".05"/><path fill="#151515" d="M39,17.502c0.155,0,0.299,0.069,0.394,0.19c0.17,0.216,0.132,0.531-0.085,0.702 c-0.346,0.273-0.73,0.618-1.101,0.953c-0.513,0.462-1.044,0.94-1.487,1.24l-0.244,0.165l0.026,0.294 c0.387,4.322,0.231,14.479-9.552,15.458c-0.584,0.058-1.168,0.088-1.736,0.088c-8.768,0-13.25-6.867-14.769-9.819l-0.115-0.224 l-0.248-0.041c-1.398-0.23-2.548-0.737-2.981-0.928c-0.125-0.055-0.21-0.09-0.248-0.102c-0.127-0.039-0.232-0.125-0.294-0.243 c-0.062-0.118-0.075-0.253-0.036-0.38c0.065-0.21,0.259-0.352,0.483-0.352c0.049,0,0.099,0.007,0.145,0.021 c0.01,0.003,0.955,0.284,2.569,0.55l0.145,0.04c1.174,0.322,1.401,1.187,1.537,1.704c0.062,0.238,0.112,0.426,0.273,0.564 l0.241,0.206l0.289-0.13c0.817-0.367,1.328-0.876,1.652-1.311c0.179,0.453,0.437,0.94,0.836,1.249l0.515,0.4l0.252-0.602 c0.282-0.673,0.673-1.093,1.009-1.349c0.003,0.438,0.018,1.019,0.046,1.74l0.028,0.721l0.666-0.28 c0.479-0.201,0.905-0.492,1.251-0.777c-0.003,0.948,0.101,1.027,0.257,1.148l0.299,0.23l0.303-0.225 c0.934-0.693,1.491-1.489,1.886-2.298c0.238,0.639,0.357,1.382,0.299,1.833l-0.135,1.058l0.9-0.573 c0.497-0.316,1.643-1.897,2.065-3.32c1.43,1.197,3.521,1.387,3.624,1.396l0.542,0.046V26v-2.024 c0.479,0.258,1.149,0.496,1.987,0.496c0.439,0,0.892-0.066,1.341-0.196l0.266-0.076l0.08-0.262 c0.087-0.285,0.035-0.352-0.602-1.096c0.068,0.017,0.135,0.033,0.203,0.049c0.162,0.038,0.363,0.057,0.597,0.057 c0.796,0,2.214-0.243,2.874-0.783l0.217-0.177l-0.038-0.277c-0.031-0.224-0.04-0.293-0.744-0.586 c1.126-0.463,2.423-1.205,2.723-1.703c0.185-0.308,0.089-0.561,0.04-0.655L37.37,18.63l-0.029-0.015 c0.49-0.348,0.929-0.676,1.349-1.006C38.803,17.52,38.921,17.502,39,17.502 M39,17.002c-0.217,0-0.435,0.07-0.618,0.212 c-0.669,0.526-1.34,1.007-2.013,1.468C36.73,18.858,37,19,37,19c0.235,0.444-2.971,2.046-3.823,2.046 c-0.022,0-0.043-0.001-0.062-0.003c0.406,0.158,1.825,0.726,1.813,0.735c-0.504,0.413-1.748,0.67-2.557,0.67 c-0.19,0-0.356-0.014-0.483-0.044c-0.48-0.112-0.938-0.26-1.543-0.329c-0.133,0.025,1.416,1.7,1.348,1.719 c-0.437,0.126-0.841,0.178-1.206,0.178C28.894,23.972,28,23,28,23v3c0,0-2.732-0.23-3.928-1.904 c-0.026,0.006-0.053,0.012-0.079,0.018C24.009,25.537,22.46,27.707,22,28c0.098-0.768-0.219-2.256-0.851-3.048 c-0.378,1.015-0.881,2.123-2.128,3.048C18.905,27.911,19,26,19,26s-0.835,1.082-1.985,1.565c-0.079-2.056-0.035-2.466-0.019-2.544 c-0.022,0.001-0.043,0.001-0.065,0.002C16.655,25.12,15.599,25.572,15,27c-0.619-0.481-0.855-1.62-0.997-1.992 c-0.005,0-0.009,0-0.013-0.001C13.846,25.015,13.578,26.291,12,27c-0.189-0.162-0.129-1.856-2.003-2.37 c0.003-0.004,0.016-0.011,0.021-0.016c-1.689-0.266-2.684-0.558-2.724-0.57c-0.096-0.028-0.193-0.042-0.289-0.042 c-0.429,0-0.828,0.273-0.961,0.704c-0.162,0.527,0.133,1.087,0.661,1.249C6.873,26.007,8.229,26.709,10,27 c1.672,3.248,6.373,10.091,15.214,10.091c0.578,0,1.173-0.029,1.786-0.091c10.478-1.048,10.344-12.157,10-16 c0.807-0.545,1.814-1.581,2.618-2.214c0.434-0.342,0.509-0.971,0.168-1.404C39.589,17.131,39.295,17.002,39,17.002L39,17.002z" opacity=".05"/></svg>