<svg xmlns="http://www.w3.org/2000/svg" viewBox="0 0 48 48"><linearGradient id="HGsLH4bbtqFb2UQH2sOY~a" x1="39.761" x2="43.605" y1="630.43" y2="619.538" gradientTransform="matrix(1 0 0 -1 0 662)" gradientUnits="userSpaceOnUse"><stop offset="0" stop-color="#32bdef"/><stop offset="1" stop-color="#1ea2e4"/></linearGradient><path fill="url(#HGsLH4bbtqFb2UQH2sOY~a)" d="M39,33v10l4.828-4.828c0.75-0.75,1.172-1.768,1.172-2.828V33c0-0.552-0.448-1-1-1h-4	C39.448,32,39,32.448,39,33z"/><linearGradient id="HGsLH4bbtqFb2UQH2sOY~b" x1="9" x2="39" y1="622" y2="622" gradientTransform="matrix(1 0 0 -1 0 662)" gradientUnits="userSpaceOnUse"><stop offset="0" stop-color="#0362b0"/><stop offset=".112" stop-color="#036abd"/><stop offset=".258" stop-color="#036fc5"/><stop offset=".5" stop-color="#0370c8"/><stop offset=".742" stop-color="#036fc5"/><stop offset=".888" stop-color="#036abd"/><stop offset="1" stop-color="#0362b0"/></linearGradient><rect width="30" height="6" x="9" y="37" fill="url(#HGsLH4bbtqFb2UQH2sOY~b)"/><linearGradient id="HGsLH4bbtqFb2UQH2sOY~c" x1="-413.239" x2="-409.395" y1="630.43" y2="619.538" gradientTransform="rotate(180 -202.5 331)" gradientUnits="userSpaceOnUse"><stop offset="0" stop-color="#32bdef"/><stop offset="1" stop-color="#1ea2e4"/></linearGradient><path fill="url(#HGsLH4bbtqFb2UQH2sOY~c)" d="M9,33v10l-4.828-4.828C3.421,37.421,3,36.404,3,35.343V33c0-0.552,0.448-1,1-1h4	C8.552,32,9,32.448,9,33z"/><linearGradient id="HGsLH4bbtqFb2UQH2sOY~d" x1="30.308" x2="17.607" y1="635.629" y2="648.33" gradientTransform="matrix(1 0 0 -1 0 662)" gradientUnits="userSpaceOnUse"><stop offset="0" stop-color="#fff"/><stop offset=".242" stop-color="#f2f2f2"/><stop offset="1" stop-color="#ccc"/></linearGradient><circle cx="24" cy="20.063" r="9.055" fill="url(#HGsLH4bbtqFb2UQH2sOY~d)"/><linearGradient id="HGsLH4bbtqFb2UQH2sOY~e" x1="19.321" x2="27.529" y1="646.616" y2="638.408" gradientTransform="matrix(1 0 0 -1 0 662)" gradientUnits="userSpaceOnUse"><stop offset="0" stop-color="#0d61a9"/><stop offset=".363" stop-color="#0e5fa4"/><stop offset=".78" stop-color="#135796"/><stop offset="1" stop-color="#16528c"/></linearGradient><circle cx="24" cy="20.063" r="5" fill="url(#HGsLH4bbtqFb2UQH2sOY~e)"/><linearGradient id="HGsLH4bbtqFb2UQH2sOY~f" x1="9.297" x2="35.088" y1="656.626" y2="630.836" gradientTransform="matrix(1 0 0 -1 0 662)" gradientUnits="userSpaceOnUse"><stop offset="0" stop-color="#889097"/><stop offset=".331" stop-color="#848c94"/><stop offset=".669" stop-color="#78828b"/><stop offset="1" stop-color="#64717c"/></linearGradient><path fill="url(#HGsLH4bbtqFb2UQH2sOY~f)" d="M39.28,16.318c-1.881-0.023-3.702-1.003-4.711-2.75c-0.971-1.682-0.951-3.66-0.128-5.27	C32.769,6.812,30.787,5.668,28.592,5C27.604,6.486,25.917,7.465,24,7.465S20.396,6.486,19.409,5	c-2.195,0.668-4.177,1.812-5.85,3.297c0.824,1.609,0.843,3.588-0.128,5.27c-1.009,1.747-2.83,2.727-4.711,2.75	c-0.294,1.202-0.468,2.453-0.468,3.745c0,1.011,0.105,1.996,0.287,2.954c1.944-0.04,3.851,0.951,4.892,2.754	c1.077,1.866,0.935,4.097-0.173,5.783c1.639,1.533,3.601,2.721,5.779,3.445c0.89-1.847,2.775-3.126,4.963-3.126	s4.073,1.279,4.963,3.127c2.179-0.724,4.14-1.912,5.779-3.445c-1.108-1.686-1.25-3.917-0.173-5.783	c1.041-1.803,2.947-2.794,4.892-2.754c0.182-0.959,0.287-1.944,0.287-2.955C39.747,18.77,39.574,17.52,39.28,16.318z M24,28.33	c-4.566,0-8.267-3.701-8.267-8.267s3.701-8.267,8.267-8.267s8.267,3.701,8.267,8.267S28.566,28.33,24,28.33z"/></svg>