<svg xmlns="http://www.w3.org/2000/svg" baseProfile="basic" viewBox="0 0 48 48"><rect width="2" height="14" x="23.109" y="10" fill="#d9d9d9" transform="rotate(-90 24.109 17)"/><rect width="2" height="14" x="23.109" y="26" fill="#d9d9d9" transform="rotate(-90 24.109 33)"/><rect width="2" height="34" x="23.109" y="-9" fill="#d9d9d9" transform="rotate(90 24.109 8)"/><rect width="2" height="34" x="7.109" y="7" fill="#d9d9d9" transform="rotate(-180 8.109 24)"/><rect width="2" height="34" x="23.109" y="24" fill="#d9d9d9" transform="rotate(-90 24.109 41)"/><rect width="2" height="34" x="40.109" y="7" fill="#d9d9d9"/><rect width="2" height="18" x="31.109" y="15" fill="#d9d9d9"/><rect width="2" height="18" x="16.109" y="15" fill="#d9d9d9"/><rect width="1.915" height="11" x="11.379" y="7.494" fill="#d9d9d9" transform="rotate(-45.001 12.336 12.995)"/><rect width="11" height="1.915" x="7.603" y="34.815" fill="#d9d9d9" transform="rotate(-45.001 13.103 35.773)"/><rect width="11" height="1.915" x="30.381" y="12.037" fill="#d9d9d9" transform="rotate(-45.001 35.882 12.995)"/><rect width="1.915" height="11" x="34.157" y="30.273" fill="#d9d9d9" transform="rotate(-45.001 35.114 35.773)"/><linearGradient id="msvhvsH4wDcDKJ3YjphDQa" x1="10.721" x2="44.702" y1="3.654" y2="55.981" gradientUnits="userSpaceOnUse"><stop offset="0" stop-color="#fcfcfc"/><stop offset=".029" stop-color="#fbfbfb"/><stop offset=".522" stop-color="#ededed"/><stop offset=".946" stop-color="#e8e8e8"/><stop offset="1" stop-color="#e8e8e8"/></linearGradient><path fill="url(#msvhvsH4wDcDKJ3YjphDQa)" d="M39.109,7h2v34h-2V7z M30.109,31h2V17h-2V31z M41.109,41v-2h-34v2H41.109z M8.109,7h-2v34h2 V7z M17.109,17h-2v14h2V17z M7.109,6v2h34V6H7.109z M17.109,31v2h14v-2H17.109z M31.109,17v-2h-14v2H31.109z M17.669,15.439 L9.891,7.661L8.477,9.075l7.778,7.778L17.669,15.439z M15.548,30.439L7.77,38.218l1.414,1.414l7.778-7.778L15.548,30.439z M31.962,16.854l7.778-7.778l-1.414-1.414l-7.778,7.778L31.962,16.854z M31.255,31.854l7.778,7.778l1.414-1.414l-7.778-7.778 L31.255,31.854z"/><circle cx="7.609" cy="8.5" r="4.5" fill="#d9d9d9"/><circle cx="16.609" cy="32.5" r="3.5" fill="#d9d9d9"/><circle cx="31.609" cy="32.5" r="3.5" fill="#d9d9d9"/><circle cx="16.609" cy="17.5" r="3.5" fill="#d9d9d9"/><circle cx="31.609" cy="17.5" r="3.5" fill="#d9d9d9"/><linearGradient id="msvhvsH4wDcDKJ3YjphDQb" x1="5.157" x2="10.06" y1="3.725" y2="11.274" gradientUnits="userSpaceOnUse"><stop offset="0" stop-color="#fcfcfc"/><stop offset=".495" stop-color="#f4f4f4"/><stop offset=".946" stop-color="#e8e8e8"/><stop offset="1" stop-color="#e8e8e8"/></linearGradient><circle cx="7.609" cy="7.5" r="4.5" fill="url(#msvhvsH4wDcDKJ3YjphDQb)"/><circle cx="40.609" cy="8.5" r="4.5" fill="#d9d9d9"/><linearGradient id="msvhvsH4wDcDKJ3YjphDQc" x1="38.157" x2="43.06" y1="3.725" y2="11.274" gradientUnits="userSpaceOnUse"><stop offset="0" stop-color="#fcfcfc"/><stop offset=".495" stop-color="#f4f4f4"/><stop offset=".946" stop-color="#e8e8e8"/><stop offset="1" stop-color="#e8e8e8"/></linearGradient><circle cx="40.609" cy="7.5" r="4.5" fill="url(#msvhvsH4wDcDKJ3YjphDQc)"/><circle cx="7.609" cy="41.5" r="4.5" fill="#d9d9d9"/><linearGradient id="msvhvsH4wDcDKJ3YjphDQd" x1="5.157" x2="10.06" y1="36.725" y2="44.275" gradientUnits="userSpaceOnUse"><stop offset="0" stop-color="#fcfcfc"/><stop offset=".495" stop-color="#f4f4f4"/><stop offset=".946" stop-color="#e8e8e8"/><stop offset="1" stop-color="#e8e8e8"/></linearGradient><circle cx="7.609" cy="40.5" r="4.5" fill="url(#msvhvsH4wDcDKJ3YjphDQd)"/><circle cx="40.609" cy="41.5" r="4.5" fill="#d9d9d9"/><linearGradient id="msvhvsH4wDcDKJ3YjphDQe" x1="38.157" x2="43.06" y1="36.725" y2="44.275" gradientUnits="userSpaceOnUse"><stop offset="0" stop-color="#fcfcfc"/><stop offset=".495" stop-color="#f4f4f4"/><stop offset=".946" stop-color="#e8e8e8"/><stop offset="1" stop-color="#e8e8e8"/></linearGradient><circle cx="40.609" cy="40.5" r="4.5" fill="url(#msvhvsH4wDcDKJ3YjphDQe)"/><linearGradient id="msvhvsH4wDcDKJ3YjphDQf" x1="14.702" x2="18.515" y1="28.564" y2="34.436" gradientUnits="userSpaceOnUse"><stop offset="0" stop-color="#fcfcfc"/><stop offset=".495" stop-color="#f4f4f4"/><stop offset=".946" stop-color="#e8e8e8"/><stop offset="1" stop-color="#e8e8e8"/></linearGradient><circle cx="16.609" cy="31.5" r="3.5" fill="url(#msvhvsH4wDcDKJ3YjphDQf)"/><linearGradient id="msvhvsH4wDcDKJ3YjphDQg" x1="29.702" x2="33.515" y1="28.564" y2="34.436" gradientUnits="userSpaceOnUse"><stop offset="0" stop-color="#fcfcfc"/><stop offset=".495" stop-color="#f4f4f4"/><stop offset=".946" stop-color="#e8e8e8"/><stop offset="1" stop-color="#e8e8e8"/></linearGradient><circle cx="31.609" cy="31.5" r="3.5" fill="url(#msvhvsH4wDcDKJ3YjphDQg)"/><linearGradient id="msvhvsH4wDcDKJ3YjphDQh" x1="14.702" x2="18.515" y1="13.564" y2="19.436" gradientUnits="userSpaceOnUse"><stop offset="0" stop-color="#fcfcfc"/><stop offset=".495" stop-color="#f4f4f4"/><stop offset=".946" stop-color="#e8e8e8"/><stop offset="1" stop-color="#e8e8e8"/></linearGradient><circle cx="16.609" cy="16.5" r="3.5" fill="url(#msvhvsH4wDcDKJ3YjphDQh)"/><linearGradient id="msvhvsH4wDcDKJ3YjphDQi" x1="29.702" x2="33.515" y1="13.564" y2="19.436" gradientUnits="userSpaceOnUse"><stop offset="0" stop-color="#fcfcfc"/><stop offset=".495" stop-color="#f4f4f4"/><stop offset=".946" stop-color="#e8e8e8"/><stop offset="1" stop-color="#e8e8e8"/></linearGradient><circle cx="31.609" cy="16.5" r="3.5" fill="url(#msvhvsH4wDcDKJ3YjphDQi)"/></svg>