<svg xmlns="http://www.w3.org/2000/svg" data-name="Слой 1" viewBox="0 0 48 48"><defs><linearGradient id="7btM3GBDxtmcTmB7BTDjGa" x1="10.531" x2="27.482" y1="4.992" y2="51.563" data-name="Безымянный градиент 138" gradientUnits="userSpaceOnUse"><stop offset="0" stop-color="#6d6d6d"/><stop offset=".126" stop-color="#626262"/><stop offset=".987" stop-color="#464646"/><stop offset=".998" stop-color="#454545"/></linearGradient><linearGradient id="7btM3GBDxtmcTmB7BTDjGb" x1="18.357" x2="24.573" y1="-2104.995" y2="-2140.249" data-name="Безымянный градиент 134" gradientTransform="matrix(1 0 0 -1 0 -2096)" gradientUnits="userSpaceOnUse"><stop offset="0" stop-color="#ffda1c"/><stop offset="1" stop-color="#feb705"/></linearGradient><radialGradient id="7btM3GBDxtmcTmB7BTDjGc" cx="17.787" cy="22.967" r="18.314" data-name="Безымянный градиент 133" gradientUnits="userSpaceOnUse"><stop offset="0" stop-color="#4b4b4b"/><stop offset=".531" stop-color="#393939"/><stop offset="1" stop-color="#252525"/></radialGradient></defs><path fill="url(#7btM3GBDxtmcTmB7BTDjGa)" d="M24.00043,4A1.96747,1.96747,0,0,0,22.2731,5.00878L1.82176,41.00568A2.00136,2.00136,0,0,0,3.54909,44H44.45078a2.001,2.001,0,0,0,1.72733-2.99432L25.72776,5.00878A1.96745,1.96745,0,0,0,24.00043,4Z"/><polygon fill="url(#7btM3GBDxtmcTmB7BTDjGb)" points="5 41 24.001 8 43 41 5 41"/><path fill="url(#7btM3GBDxtmcTmB7BTDjGc)" d="M29.24933,25h-6.3017l3.24042-7.29053A.5.5,0,0,0,25.73407,17H22.75a1,1,0,0,0-.908.58093l-4.81885,10.7096a.5.5,0,0,0,.454.70947h6.10865l-3.00043,6H18.90045a.3011.3011,0,0,0-.2959.44812l1.62525,3.69959a.609.609,0,0,0,.88257.25439l6.07415-3.80457A.33346.33346,0,0,0,26.97455,35H25.06927l4.62751-9.27686A.5.5,0,0,0,29.24933,25Z"/></svg>