<svg xmlns="http://www.w3.org/2000/svg" xmlns:xlink="http://www.w3.org/1999/xlink" data-name="Layer 1" viewBox="0 0 48 48"><defs><linearGradient id="DxSkbavjuUgnV1VOvArbjb" x1="13.288" x2="23.201" y1="3.924" y2="53.489" data-name="Безымянный градиент 150" gradientUnits="userSpaceOnUse"><stop offset="0" stop-color="#ff9d47"/><stop offset="1" stop-color="#cc6c17"/></linearGradient><linearGradient id="DxSkbavjuUgnV1VOvArbjc" x1="22.546" x2="32.459" y1="2.073" y2="51.638" data-name="Безымянный градиент 151" gradientUnits="userSpaceOnUse"><stop offset="0" stop-color="#e6842e"/><stop offset=".036" stop-color="#ff9336"/><stop offset=".23" stop-color="#ea842b"/><stop offset=".514" stop-color="#d3721f"/><stop offset=".778" stop-color="#c46818"/><stop offset="1" stop-color="#bf6415"/></linearGradient><linearGradient id="DxSkbavjuUgnV1VOvArbja" x1="11.365" x2="21.278" y1="4.309" y2="53.874" data-name="Безымянный градиент 149" gradientUnits="userSpaceOnUse"><stop offset="0" stop-color="#d67526"/><stop offset=".147" stop-color="#c86b1f"/><stop offset=".447" stop-color="#b35b13"/><stop offset=".736" stop-color="#a5510c"/><stop offset="1" stop-color="#a14e0a"/></linearGradient><linearGradient id="DxSkbavjuUgnV1VOvArbjd" x1="25.431" x2="35.344" y1="1.496" y2="51.061" xlink:href="#DxSkbavjuUgnV1VOvArbja"/></defs><path fill="#323538" d="M24,1.9992h0a2,2,0,0,1,2,2v32a0,0,0,0,1,0,0H22a0,0,0,0,1,0,0v-32a2,2,0,0,1,2-2Z"/><path fill="url(#DxSkbavjuUgnV1VOvArbjb)" d="M24,11.9992v34H14.25a1.99757,1.99757,0,0,1-1.99-2.23l.68-5.77.35-3,1.53-13,.35-3,.62-5.23a2.0014,2.0014,0,0,1,1.99005-1.77Z"/><path fill="url(#DxSkbavjuUgnV1VOvArbjc)" d="M33.75,45.9992H24v-34h6.22a2.0014,2.0014,0,0,1,1.99005,1.77l.62,5.23.35,3,1.53,13,.35,3,.68,5.77A1.99757,1.99757,0,0,1,33.75,45.9992Z"/><path fill="url(#DxSkbavjuUgnV1VOvArbja)" d="M20,11.9992l-.41,7-.18006,3-.75995,13-.18005,3-.47,8H14.25a1.99757,1.99757,0,0,1-1.99-2.23l.68-5.77.35-3,1.53-13,.35-3,.62-5.23a2.0014,2.0014,0,0,1,1.99005-1.77Z"/><path fill="url(#DxSkbavjuUgnV1VOvArbjd)" d="M33.75,45.9992H30l-.47-8-.18005-3-.75995-13-.18006-3-.41-7h2.22a2.0014,2.0014,0,0,1,1.99005,1.77l.62,5.23.35,3,1.53,13,.35,3,.68,5.77A1.99757,1.99757,0,0,1,33.75,45.9992Z"/><polygon fill="#bfc8d1" points="33.18 21.999 14.82 21.999 15.17 18.999 32.83 18.999 33.18 21.999"/><polygon fill="#bfc8d1" points="35.06 37.999 12.94 37.999 13.29 34.999 34.71 34.999 35.06 37.999"/></svg>