<svg xmlns="http://www.w3.org/2000/svg" data-name="Слой 1" viewBox="0 0 48 48"><defs><linearGradient id="yAQoA9pNNoMfxDmGi7LEPa" x1="13.462" x2="31.047" y1=".166" y2="48.479" data-name="Безымянный градиент 157" gradientUnits="userSpaceOnUse"><stop offset="0" stop-color="#32bdef"/><stop offset="1" stop-color="#1ea2e4"/></linearGradient><linearGradient id="yAQoA9pNNoMfxDmGi7LEPb" x1="24" x2="24" y1="-.304" y2="12.064" data-name="Безымянный градиент 45" gradientUnits="userSpaceOnUse"><stop offset="0" stop-color="#0d61a9"/><stop offset=".364" stop-color="#0e5fa4"/><stop offset=".769" stop-color="#135897"/><stop offset="1" stop-color="#16528c"/></linearGradient></defs><path fill="url(#yAQoA9pNNoMfxDmGi7LEPa)" d="M29,11.09717V6H19v5.09717c-2.78394.5199-4,3.20764-4,5.90283V42a4.01179,4.01179,0,0,0,4,4h.83771a2,2,0,0,0,1.8974-1.36755l.31622-.94861A.99991.99991,0,0,1,23,43h2a.99991.99991,0,0,1,.94867.68384l.31622.94861A2,2,0,0,0,28.16229,46H29a4.01179,4.01179,0,0,0,4-4V17C33,14.30481,31.78394,11.61707,29,11.09717Z"/><rect width="10" height="2" x="19" y="7" fill="#0078d4"/><path fill="url(#yAQoA9pNNoMfxDmGi7LEPb)" d="M21,2h6a2,2,0,0,1,2,2V7a0,0,0,0,1,0,0H19a0,0,0,0,1,0,0V4A2,2,0,0,1,21,2Z"/><path fill="#0078d4" d="M27.5,19H33a0,0,0,0,1,0,0v3a0,0,0,0,1,0,0H27.5A1.5,1.5,0,0,1,26,20.5v0A1.5,1.5,0,0,1,27.5,19Z"/><path fill="#0078d4" d="M15,19h5.5A1.5,1.5,0,0,1,22,20.5v0A1.5,1.5,0,0,1,20.5,22H15a0,0,0,0,1,0,0V19A0,0,0,0,1,15,19Z"/><path fill="#0078d4" d="M27.5,25H33a0,0,0,0,1,0,0v3a0,0,0,0,1,0,0H27.5A1.5,1.5,0,0,1,26,26.5v0A1.5,1.5,0,0,1,27.5,25Z"/><path fill="#0078d4" d="M15,25h5.5A1.5,1.5,0,0,1,22,26.5v0A1.5,1.5,0,0,1,20.5,28H15a0,0,0,0,1,0,0V25A0,0,0,0,1,15,25Z"/><path fill="#0078d4" d="M27.5,31H33a0,0,0,0,1,0,0v3a0,0,0,0,1,0,0H27.5A1.5,1.5,0,0,1,26,32.5v0A1.5,1.5,0,0,1,27.5,31Z"/><path fill="#0078d4" d="M15,31h5.5A1.5,1.5,0,0,1,22,32.5v0A1.5,1.5,0,0,1,20.5,34H15a0,0,0,0,1,0,0V31A0,0,0,0,1,15,31Z"/></svg>