<svg xmlns="http://www.w3.org/2000/svg" data-name="Слой 1" viewBox="0 0 48 48"><path fill="#eb6773" d="M24,3,6,20V41a1.99947,1.99947,0,0,0,2,2H40a1.99947,1.99947,0,0,0,2-2V20Z"/><path style="isolation:isolate" d="M24,4a1.99525,1.99525,0,0,0-1.326.503L17.315,9.314,6,20v5.39L24,9.428,42,25.39V20L30.685,9.314,25.326,4.503A1.99525,1.99525,0,0,0,24,4Z" opacity=".05"/><path style="isolation:isolate" d="M24,3a2.00219,2.00219,0,0,0-1.326.5L17.315,8.284,6,18.909v5.359L24,8.397,42,24.268V18.909L30.685,8.284,25.326,3.5A2.00219,2.00219,0,0,0,24,3Z" opacity=".07"/><path fill="#b31523" d="M44.495,19.507,25.326,2.503a1.99929,1.99929,0,0,0-2.652,0L3.505,19.507a.99869.99869,0,0,0-.064,1.43l1.636,1.745a.9995.9995,0,0,0,1.39.067L24,7.428,41.533,22.75a1.0005,1.0005,0,0,0,1.39-.067l1.636-1.745A.99983.99983,0,0,0,44.495,19.507Z"/><path d="M30.5,21a.5.5,0,0,1,.5.5v17a.5.5,0,0,1-.5.5h-2a.5.5,0,0,1-.5-.5V31H20v7.5a.5.5,0,0,1-.5.5h-2a.5.5,0,0,1-.5-.5v-17a.5.5,0,0,1,.5-.5h2a.5.5,0,0,1,.5.5V28h8V21.5a.5.5,0,0,1,.5-.5h2m0-1h-2A1.50171,1.50171,0,0,0,27,21.5V27H21V21.5A1.50171,1.50171,0,0,0,19.5,20h-2A1.50171,1.50171,0,0,0,16,21.5v17A1.50171,1.50171,0,0,0,17.5,40h2A1.50171,1.50171,0,0,0,21,38.5V32h6v6.5A1.50171,1.50171,0,0,0,28.5,40h2A1.50171,1.50171,0,0,0,32,38.5v-17A1.50171,1.50171,0,0,0,30.5,20Z" opacity=".05"/><path d="M30.5,21a.5.5,0,0,1,.5.5v17a.5.5,0,0,1-.5.5h-2a.5.5,0,0,1-.5-.5V31H20v7.5a.5.5,0,0,1-.5.5h-2a.5.5,0,0,1-.5-.5v-17a.5.5,0,0,1,.5-.5h2a.5.5,0,0,1,.5.5V28h8V21.5a.5.5,0,0,1,.5-.5h2m0-.5h-2a1.00114,1.00114,0,0,0-1,1v6h-7v-6a1.00114,1.00114,0,0,0-1-1h-2a1.00114,1.00114,0,0,0-1,1v17a1.00114,1.00114,0,0,0,1,1h2a1.00114,1.00114,0,0,0,1-1v-7h7v7a1.00114,1.00114,0,0,0,1,1h2a1.00114,1.00114,0,0,0,1-1v-17a1.00114,1.00114,0,0,0-1-1Z" opacity=".07"/><path fill="#fff" d="M28,21.5V28H20V21.5a.5.5,0,0,0-.5-.5h-2a.5.5,0,0,0-.5.5v17a.5.5,0,0,0,.5.5h2a.5.5,0,0,0,.5-.5V31h8v7.5a.5.5,0,0,0,.5.5h2a.5.5,0,0,0,.5-.5v-17a.5.5,0,0,0-.5-.5h-2A.5.5,0,0,0,28,21.5Z"/></svg>