<svg xmlns="http://www.w3.org/2000/svg" viewBox="0 0 48 48"><path fill="#505b63" d="M21.999,25c-0.15,0-0.303-0.034-0.446-0.105C21.367,24.801,17,22.577,17,19c0-0.552,0.448-1,1-1	s1,0.448,1,1c0,2.317,3.413,4.088,3.447,4.105c0.494,0.247,0.694,0.848,0.447,1.342C22.719,24.798,22.366,25,21.999,25z"/><polygon fill="#64717c" points="14,11 10,11 10,9 13,9"/><polygon fill="#64717c" points="42,11 38,11 38,9 41,9"/><path fill="#90a4ae" d="M6,18h37c0.552,0,1-0.448,1-1v-6c0-0.552-0.448-1-1-1H8c-1.105,0-2,0.895-2,2V18z"/><path fill="#64717c" d="M6,16v2c0,0,3,1,3,4c0,1.884-5,9-5,13c0,2.729,1,4,3,4h5.63c1.389,0,2.597-0.954,2.918-2.305	l3.426-14.39C19.297,20.954,20.504,20,21.893,20H39c1.105,0,2-0.895,2-2v-2H6z"/><path fill="#64717c" d="M26,13h-6c-0.552,0-1-0.448-1-1v-2h8v2C27,12.552,26.552,13,26,13z"/><path fill="#64717c" d="M22.117,28H17c-0.552,0-1-0.448-1-1v-9c0-0.552,0.448-1,1-1h11c0.321,0,0.623,0.154,0.811,0.416	c0.188,0.261,0.239,0.596,0.138,0.901l-2.088,6.265C26.179,26.626,24.272,28,22.117,28z M18,26h4.117	c1.293,0,2.437-0.824,2.846-2.051L26.613,19H18V26z"/><circle cx="16" cy="25" r="1" fill="#90a4ae"/></svg>