<svg xmlns="http://www.w3.org/2000/svg" xmlns:xlink="http://www.w3.org/1999/xlink" data-name="Слой 1" viewBox="0 0 48 48"><defs><linearGradient id="9nWWk6fUf_iMdRmMLzXxqa" x1="3" x2="35" y1="29.405" y2="29.405" data-name="Безымянный градиент 129" gradientUnits="userSpaceOnUse"><stop offset="0" stop-color="#ffd869"/><stop offset="1" stop-color="#fec52b"/></linearGradient><linearGradient id="9nWWk6fUf_iMdRmMLzXxqb" x1="24" x2="24" y1="23.848" y2="44.327" xlink:href="#9nWWk6fUf_iMdRmMLzXxqa"/><linearGradient id="9nWWk6fUf_iMdRmMLzXxqc" x1="30.353" x2="39.381" y1="-2102.353" y2="-2111.381" data-name="Безымянный градиент 120" gradientTransform="matrix(1 0 0 -1 0 -2096)" gradientUnits="userSpaceOnUse"><stop offset="0" stop-color="#fed100"/><stop offset="1" stop-color="#e36001"/></linearGradient></defs><path fill="url(#9nWWk6fUf_iMdRmMLzXxqa)" d="M35,35.3098l-25.83.39991L3,35.8098V27.93969A3.99174,3.99174,0,0,1,6.03,24.0598l3.75-.94006a3.73686,3.73686,0,0,1,1.19995-.11,4.01071,4.01071,0,0,1,1.19.25L32,30.8098Z"/><path fill="#eba600" d="M9.17,35.70971,3,35.8098V27.93969A3.99174,3.99174,0,0,1,6.03,24.0598l3.75-.94006a3.73686,3.73686,0,0,1,1.19995-.11c-1.24,1-2.22,2.25-.98,3.99A7.59389,7.59389,0,0,1,9.17,35.70971Z"/><path fill="url(#9nWWk6fUf_iMdRmMLzXxqb)" d="M45,30.49974v10.5a2.00591,2.00591,0,0,1-2,2H5a2.00591,2.00591,0,0,1-2-2v-5.24a3.98845,3.98845,0,0,1,3.06-3.88l27.71-6.72009a7.93518,7.93518,0,0,1,1.88-.23,8.124,8.124,0,0,1,2.53.41l4.08,1.37A3.98739,3.98739,0,0,1,45,30.49974Z"/><path fill="url(#9nWWk6fUf_iMdRmMLzXxqc)" d="M35.5,6A5.5,5.5,0,1,0,41,11.5,5.50024,5.50024,0,0,0,35.5,6Z"/><path fill="#eba600" d="M31.75,29.24974c0,2,2.25,3.25,2.25,5.75,0,4-9.5,4.5-12,8H5a2.00591,2.00591,0,0,1-2-2v-5.24a3.98845,3.98845,0,0,1,3.06-3.88l27.71-6.72009a7.93518,7.93518,0,0,1,1.88-.23l.1.07006C34.25,25.49974,31.75,26.49974,31.75,29.24974Z"/><path d="M22.79,27.29979l-.81-.31006L5.82,30.90966A4.89712,4.89712,0,0,0,3,32.76976v2.99a3.98845,3.98845,0,0,1,3.06-3.88l17.56-4.26Z" opacity=".05"/><path d="M22.79,27.29979l-16.85,4.09a4.448,4.448,0,0,0-2.94,2.32v2.05a3.98845,3.98845,0,0,1,3.06-3.88l17.56-4.26Z" opacity=".07"/></svg>