<svg xmlns="http://www.w3.org/2000/svg" viewBox="0 0 48 48"><linearGradient id="2kuQ9gDV8SL8rwg3g2AC3a" x1="24" x2="24" y1="-1515.561" y2="-1549.561" gradientTransform="matrix(1 0 0 -1 0 -1508.561)" gradientUnits="userSpaceOnUse"><stop offset="0" stop-color="#889097"/><stop offset=".331" stop-color="#848c94"/><stop offset=".669" stop-color="#78828b"/><stop offset="1" stop-color="#64717c"/></linearGradient><path fill="url(#2kuQ9gDV8SL8rwg3g2AC3a)" d="M42,7H6C4.895,7,4,7.895,4,9v30c0,1.105,0.895,2,2,2h36c1.105,0,2-0.895,2-2V9	C44,7.895,43.105,7,42,7z"/><linearGradient id="2kuQ9gDV8SL8rwg3g2AC3b" x1="24" x2="24" y1="9.5" y2="89.831" gradientUnits="userSpaceOnUse"><stop offset="0" stop-color="#dfe9f2"/><stop offset=".391" stop-color="#d6e0e9"/><stop offset="1" stop-color="#bfc8d1"/></linearGradient><path fill="url(#2kuQ9gDV8SL8rwg3g2AC3b)" d="M8,38.5h32c0.828,0,1.5-0.672,1.5-1.5V11c0-0.828-0.672-1.5-1.5-1.5H8	c-0.828,0-1.5,0.672-1.5,1.5v26C6.5,37.828,7.172,38.5,8,38.5z"/><linearGradient id="2kuQ9gDV8SL8rwg3g2AC3c" x1="24" x2="24" y1="23" y2="36" gradientUnits="userSpaceOnUse"><stop offset="0" stop-color="#2aa4f4"/><stop offset="1" stop-color="#007ad9"/></linearGradient><path fill="url(#2kuQ9gDV8SL8rwg3g2AC3c)" d="M24,28l-8,8v-4h-4l9-9l3,3l-0.7,0.71L23,27L24,28z M36,32h-4v4l-8-8l0.71-0.7L25,27	l-0.29-0.29L24,26l3-3L36,32z"/><linearGradient id="2kuQ9gDV8SL8rwg3g2AC3d" x1="24" x2="24" y1="14" y2="32" gradientUnits="userSpaceOnUse"><stop offset="0" stop-color="#eba84b"/><stop offset="1" stop-color="#d97218"/></linearGradient><path fill="url(#2kuQ9gDV8SL8rwg3g2AC3d)" d="M32.45,24.8c-0.236,0.349-0.54,0.653-0.889,0.889c-0.259,0.169-0.382,0.461-0.315,0.754	c0.349,1.755-0.788,3.454-2.554,3.803c-0.203,0.045-0.405,0.056-0.619,0.067c-0.214,0-0.439-0.023-0.653-0.067h-0.146	c-0.247,0-0.484,0.112-0.619,0.315C26.059,31.449,25.069,31.989,24,32h-0.011c-1.08,0-2.093-0.529-2.689-1.418	c-0.135-0.202-0.371-0.326-0.619-0.326H20.58c-0.214,0.034-0.439,0.056-0.653,0.056c-1.8-0.011-3.24-1.462-3.229-3.24	c0-0.214,0.023-0.416,0.056-0.619c0.068-0.293-0.056-0.585-0.315-0.754c-1.485-0.99-1.89-2.992-0.889-4.477	c0.236-0.349,0.54-0.653,0.889-0.889c0.259-0.169,0.382-0.461,0.315-0.754c-0.349-1.755,0.788-3.454,2.554-3.803	c0.203-0.034,0.405-0.056,0.619-0.056c0.214,0,0.439,0.023,0.653,0.056h0.146c0.236-0.011,0.45-0.135,0.574-0.337	C21.919,14.506,22.954,14,24,14c0.619,0,1.238,0.169,1.789,0.54c0.36,0.236,0.675,0.54,0.911,0.9	c0.135,0.202,0.371,0.337,0.619,0.337h0.101c0.214-0.045,0.439-0.067,0.653-0.067c1.8,0.011,3.24,1.463,3.229,3.24	c0,0.214-0.023,0.416-0.056,0.619c-0.056,0.292,0.068,0.585,0.315,0.754C33.046,21.312,33.451,23.315,32.45,24.8z"/><linearGradient id="2kuQ9gDV8SL8rwg3g2AC3e" x1="24" x2="24" y1="17" y2="29" gradientUnits="userSpaceOnUse"><stop offset="0" stop-color="#fede00"/><stop offset="1" stop-color="#ffd000"/></linearGradient><path fill="url(#2kuQ9gDV8SL8rwg3g2AC3e)" d="M24,17c-3.314,0-6,2.686-6,6s2.686,6,6,6s6-2.686,6-6S27.314,17,24,17z"/><path fill="#231f20" d="M24,14c0.619,0,1.238,0.169,1.789,0.54c0.36,0.236,0.675,0.54,0.911,0.9	c0.135,0.202,0.371,0.337,0.619,0.337h0.101c0.214-0.045,0.439-0.067,0.653-0.067c1.8,0.011,3.24,1.463,3.229,3.24	c0,0.214-0.023,0.416-0.056,0.619c-0.056,0.292,0.068,0.585,0.315,0.754c1.485,0.989,1.89,2.992,0.889,4.477	c-0.236,0.349-0.54,0.653-0.889,0.889c-0.259,0.169-0.382,0.461-0.315,0.754c0.349,1.755-0.788,3.454-2.554,3.803	c-0.203,0.045-0.405,0.056-0.619,0.067c-0.214,0-0.439-0.023-0.653-0.067h-0.146c-0.247,0-0.484,0.112-0.619,0.315	C26.059,31.449,25.069,31.989,24,32h-0.011c-1.08,0-2.093-0.529-2.689-1.418c-0.135-0.202-0.371-0.326-0.619-0.326H20.58	c-0.214,0.034-0.439,0.056-0.653,0.056c-1.8-0.011-3.24-1.462-3.229-3.24c0-0.214,0.023-0.416,0.056-0.619	c0.068-0.293-0.056-0.585-0.315-0.754c-1.485-0.99-1.89-2.992-0.889-4.477c0.236-0.349,0.54-0.653,0.889-0.889	c0.259-0.169,0.382-0.461,0.315-0.754c-0.349-1.755,0.788-3.454,2.554-3.803c0.203-0.034,0.405-0.056,0.619-0.056	s0.439,0.023,0.653,0.056h0.146c0.236-0.011,0.45-0.135,0.574-0.337C21.919,14.506,22.954,14,24,14 M24,13	c-1.378,0-2.656,0.656-3.448,1.762c-0.223-0.028-0.433-0.042-0.625-0.042c-0.251,0-0.5,0.022-0.784,0.07	c-1.146,0.226-2.108,0.866-2.738,1.808c-0.595,0.89-0.828,1.95-0.662,3.004c-0.401,0.296-0.749,0.658-1.021,1.06	c-0.633,0.939-0.86,2.064-0.642,3.171c0.208,1.055,0.797,1.973,1.666,2.602c-0.032,0.23-0.047,0.436-0.047,0.637	c-0.007,1.123,0.429,2.186,1.227,2.988c0.797,0.8,1.861,1.245,2.996,1.252c0.204,0,0.418-0.014,0.639-0.043	C21.351,32.356,22.621,33,23.989,33c1.359-0.014,2.61-0.662,3.399-1.743c0.227,0.037,0.46,0.056,0.685,0.056h0.026l0.026-0.001	c0.232-0.012,0.496-0.025,0.784-0.089c1.095-0.216,2.057-0.856,2.687-1.798c0.595-0.89,0.828-1.95,0.662-3.004	c0.401-0.296,0.749-0.658,1.021-1.06c0.633-0.939,0.86-2.065,0.642-3.172c-0.208-1.055-0.798-1.973-1.666-2.601	c0.033-0.239,0.048-0.44,0.048-0.637c0.007-1.123-0.429-2.186-1.227-2.988c-0.797-0.801-1.861-1.245-2.996-1.252	c-0.213,0-0.428,0.016-0.635,0.047c-0.291-0.407-0.664-0.763-1.107-1.053C25.657,13.246,24.845,13,24,13L24,13z" opacity=".05"/><path fill="#231f20" d="M24,14c0.619,0,1.238,0.169,1.789,0.54c0.36,0.236,0.675,0.54,0.911,0.9	c0.135,0.202,0.371,0.337,0.619,0.337h0.101c0.214-0.045,0.439-0.067,0.653-0.067c1.8,0.011,3.24,1.463,3.229,3.24	c0,0.214-0.023,0.416-0.056,0.619c-0.056,0.292,0.068,0.585,0.315,0.754c1.485,0.989,1.89,2.992,0.889,4.477	c-0.236,0.349-0.54,0.653-0.889,0.889c-0.259,0.169-0.382,0.461-0.315,0.754c0.349,1.755-0.788,3.454-2.554,3.803	c-0.203,0.045-0.405,0.056-0.619,0.067c-0.214,0-0.439-0.023-0.653-0.067h-0.146c-0.247,0-0.484,0.112-0.619,0.315	C26.059,31.449,25.069,31.989,24,32h-0.011c-1.08,0-2.093-0.529-2.689-1.418c-0.135-0.202-0.371-0.326-0.619-0.326H20.58	c-0.214,0.034-0.439,0.056-0.653,0.056c-1.8-0.011-3.24-1.462-3.229-3.24c0-0.214,0.023-0.416,0.056-0.619	c0.068-0.293-0.056-0.585-0.315-0.754c-1.485-0.99-1.89-2.992-0.889-4.477c0.236-0.349,0.54-0.653,0.889-0.889	c0.259-0.169,0.382-0.461,0.315-0.754c-0.349-1.755,0.788-3.454,2.554-3.803c0.203-0.034,0.405-0.056,0.619-0.056	s0.439,0.023,0.653,0.056h0.146c0.236-0.011,0.45-0.135,0.574-0.337C21.919,14.506,22.954,14,24,14 M24,13.5	c-1.261,0-2.426,0.622-3.117,1.663c-0.046,0.074-0.108,0.111-0.181,0.114l-0.084,0c-0.252-0.037-0.484-0.056-0.692-0.056	c-0.223,0-0.445,0.02-0.702,0.063c-1,0.198-1.85,0.762-2.405,1.593c-0.554,0.827-0.751,1.822-0.557,2.801	c0.023,0.101-0.014,0.183-0.098,0.238c-0.406,0.275-0.76,0.628-1.03,1.028c-0.557,0.827-0.758,1.819-0.566,2.794	c0.193,0.979,0.758,1.824,1.591,2.379c0.044,0.029,0.134,0.102,0.105,0.225c-0.049,0.295-0.069,0.517-0.069,0.732	c-0.006,0.992,0.378,1.929,1.081,2.635c0.703,0.706,1.642,1.099,2.645,1.105c0.217,0,0.45-0.019,0.695-0.056h0.062	c0.081,0,0.161,0.041,0.203,0.104c0.689,1.027,1.849,1.64,3.105,1.64c1.246-0.013,2.392-0.633,3.081-1.66	c0.039-0.058,0.117-0.094,0.204-0.094h0.097c0.23,0.044,0.472,0.067,0.702,0.067c0.238-0.012,0.48-0.024,0.727-0.079	c0.975-0.193,1.824-0.757,2.38-1.588c0.554-0.827,0.751-1.822,0.557-2.801c-0.023-0.101,0.014-0.183,0.098-0.238	c0.406-0.275,0.76-0.628,1.03-1.028c0.557-0.827,0.758-1.819,0.565-2.795c-0.193-0.979-0.759-1.824-1.591-2.378	c-0.079-0.054-0.119-0.149-0.101-0.244c0.045-0.276,0.065-0.498,0.065-0.713c0.006-0.991-0.378-1.928-1.081-2.635	c-0.703-0.706-1.642-1.099-2.645-1.105c-0.237,0-0.479,0.023-0.706,0.067h-0.051c-0.074,0-0.158-0.047-0.203-0.115	c-0.266-0.406-0.621-0.758-1.053-1.04C25.461,13.716,24.746,13.5,24,13.5L24,13.5z" opacity=".07"/></svg>