<svg xmlns="http://www.w3.org/2000/svg" viewBox="0 0 48 48"><path fill="#fec62d" d="M9,5h30c1.657,0,3,1.343,3,3v29H6V8C6,6.343,7.343,5,9,5z"/><linearGradient id="R6LHQcdqEG7B~9FVu26Zga" x1="24" x2="24" y1="655.936" y2="621.893" gradientTransform="matrix(1 0 0 -1 0 662)" gradientUnits="userSpaceOnUse"><stop offset="0" stop-color="#eba600"/><stop offset="1" stop-color="#c28200"/></linearGradient><path fill="url(#R6LHQcdqEG7B~9FVu26Zga)" d="M9,7h30c0.552,0,1,0.448,1,1v29H8V8C8,7.448,8.448,7,9,7z"/><linearGradient id="R6LHQcdqEG7B~9FVu26Zgb" x1="24" x2="24" y1="-310.929" y2="-299.307" gradientTransform="translate(0 342)" gradientUnits="userSpaceOnUse"><stop offset="0" stop-color="#ffd869"/><stop offset="1" stop-color="#fec52b"/></linearGradient><path fill="url(#R6LHQcdqEG7B~9FVu26Zgb)" d="M41,31H30.693c-0.904,0-1.649,0.624-1.918,1.487C28.142,34.522,26.244,36,24,36	s-4.142-1.478-4.775-3.513C18.956,31.624,18.211,31,17.307,31H7c-0.552,0-1,0.448-1,1v8c0,1.657,1.343,3,3,3h30c1.657,0,3-1.343,3-3	v-8C42,31.448,41.552,31,41,31z"/><path d="M23.1,29c-1.158,0-2.1-0.942-2.1-2.1V19h-3.449c-0.64,0-1.207-0.379-1.442-0.966	c-0.23-0.575-0.088-1.224,0.362-1.655l6.061-5.793C22.927,10.208,23.449,10,24.001,10c0.553,0,1.075,0.208,1.469,0.587l6.059,5.792	c0.45,0.43,0.592,1.08,0.362,1.655C31.655,18.621,31.089,19,30.45,19H27v7.9c0,1.158-0.942,2.1-2.1,2.1H23.1z" opacity=".05"/><path d="M23.1,28.5c-0.882,0-1.6-0.718-1.6-1.6v-8.4h-3.949c-0.435,0-0.819-0.256-0.978-0.653	c-0.154-0.384-0.058-0.818,0.244-1.107l6.061-5.793c0.301-0.288,0.7-0.447,1.124-0.447s0.822,0.159,1.123,0.448l6.06,5.793	c0.302,0.289,0.397,0.723,0.243,1.107c-0.159,0.396-0.542,0.652-0.977,0.652H26.5v8.4c0,0.882-0.718,1.6-1.6,1.6H23.1z" opacity=".07"/><path fill="#fff" d="M30.838,17.102l-6.06-5.794c-0.429-0.411-1.125-0.411-1.555,0l-0.322,0.308v0l-5.739,5.486	C16.816,17.433,17.062,18,17.551,18H22v8.9c0,0.607,0.492,1.1,1.1,1.1h1.8c0.607,0,1.1-0.492,1.1-1.1V18h4.45	C30.939,18,31.184,17.433,30.838,17.102z"/></svg>