<svg xmlns="http://www.w3.org/2000/svg" viewBox="0 0 48 48"><path fill="#64717c" d="M26,12h-3c-0.552,0-1,0.448-1,1v6h4V12z"/><path fill="#bfc8d1" d="M25.5,13h-4c-0.276,0-0.5-0.224-0.5-0.5s0.224-0.5,0.5-0.5h4c0.276,0,0.5,0.224,0.5,0.5	S25.776,13,25.5,13z"/><path fill="#bfc8d1" d="M26.5,18h-5c-0.276,0-0.5-0.224-0.5-0.5s0.224-0.5,0.5-0.5h5c0.276,0,0.5,0.224,0.5,0.5	S26.776,18,26.5,18z"/><path fill="#bfc8d1" d="M31.785,11.345C31.285,11.565,29.5,11,29,11c-0.63,0-2,0.25-2.54-0.09c-0.32-0.08-0.62-0.25-0.87-0.5	l-0.74-0.74l-3.26-3.26c-0.79-0.78-0.79-2.04,0-2.82c0.13-0.13,0.28-0.25,0.44-0.33c0.76-0.44,1.73-0.32,2.38,0.33l6.875,6.875	C31.535,10.715,31.715,11.025,31.785,11.345z"/><linearGradient id="02zCr3j4iW3xJohAkRf1Ia" x1="19" x2="19" y1="21.826" y2="67.106" gradientUnits="userSpaceOnUse"><stop offset="0" stop-color="#dfe9f2"/><stop offset=".391" stop-color="#d6e0e9"/><stop offset="1" stop-color="#bfc8d1"/></linearGradient><path fill="url(#02zCr3j4iW3xJohAkRf1Ia)" d="M19,47c-0.276,0-0.5-0.224-0.5-0.5V11.25c0-0.276,0.224-0.5,0.5-0.5s0.5,0.224,0.5,0.5V46.5	C19.5,46.776,19.276,47,19,47z"/><rect width="2" height="6" x="18" y="20" fill="#bfc8d1"/><rect width="4" height="7" x="29" y="12" fill="#64717c"/><linearGradient id="02zCr3j4iW3xJohAkRf1Ib" x1="26.75" x2="26.75" y1="10" y2="12" gradientUnits="userSpaceOnUse"><stop offset="0" stop-color="#a1aab3"/><stop offset="1" stop-color="#8f979e"/></linearGradient><path fill="url(#02zCr3j4iW3xJohAkRf1Ib)" d="M36.5,12H18c-0.552,0-1-0.448-1-1v0c0-0.552,0.448-1,1-1h18.5V12z"/><path fill="#bfc8d1" d="M33.5,18h-5c-0.276,0-0.5-0.224-0.5-0.5s0.224-0.5,0.5-0.5h5c0.276,0,0.5,0.224,0.5,0.5	S33.776,18,33.5,18z"/><linearGradient id="02zCr3j4iW3xJohAkRf1Ic" x1="24.5" x2="24.5" y1="15.076" y2="22.879" gradientUnits="userSpaceOnUse"><stop offset="0" stop-color="#a1aab3"/><stop offset="1" stop-color="#8f979e"/></linearGradient><path fill="url(#02zCr3j4iW3xJohAkRf1Ic)" d="M16.5,18c-0.828,0-1.5,0.672-1.5,1.5s0.672,1.5,1.5,1.5H33c0.552,0,1-0.448,1-1v-2H16.5z"/><linearGradient id="02zCr3j4iW3xJohAkRf1Id" x1="22.063" x2="43.377" y1="2.307" y2="23.621" gradientUnits="userSpaceOnUse"><stop offset="0" stop-color="#dfe9f2"/><stop offset=".391" stop-color="#d6e0e9"/><stop offset="1" stop-color="#bfc8d1"/></linearGradient><path fill="url(#02zCr3j4iW3xJohAkRf1Id)" d="M40,15h-1c-0.55,0-1.05-0.22-1.41-0.59c-0.41-0.4-0.64-0.97-0.58-1.59	c0.09-1.05,1.05-1.82,2.1-1.82H40c0.55,0,1-0.45,1-1s-0.45-1-1-1l-3.33-0.72c-0.4-0.06-0.75-0.26-1.05-0.53	c-1.37-1.23-3.25-1.91-5.28-1.72c-0.15,0.01-0.29,0.03-0.43,0.06l-4.5-4.5c-0.78-0.79-2.04-0.79-2.82,0	c-0.46,0.46-0.65,1.08-0.56,1.67c0.04,0.42,0.24,0.83,0.56,1.15l3.56,3.56c-0.52,0.5-0.95,1.07-1.3,1.7c-0.42,0.76-0.7,1.61-0.8,2.5	C23.56,16.41,26.86,20,31,20c1.78,0,3.4-0.66,4.62-1.75c0.3-0.27,0.65-0.47,1.05-0.53L40,17c0.55,0,1-0.45,1-1S40.55,15,40,15z M35,16c-0.91,1.21-2.37,2-4,2c-2.76,0-5-2.24-5-5c0-0.75,0.16-1.46,0.46-2.09c0.26-0.58,0.64-1.1,1.1-1.53	c0.4-0.38,0.85-0.69,1.35-0.91C29.55,8.16,30.25,8,31,8c1.63,0,3.09,0.79,4,2c0.63,0.83,1,1.87,1,3S35.63,15.17,35,16z"/><linearGradient id="02zCr3j4iW3xJohAkRf1Ie" x1="19" x2="19" y1="17.815" y2="36.114" gradientUnits="userSpaceOnUse"><stop offset="0" stop-color="#6d6d6d"/><stop offset=".126" stop-color="#626262"/><stop offset=".886" stop-color="#464646"/><stop offset="1" stop-color="#454545"/></linearGradient><path fill="url(#02zCr3j4iW3xJohAkRf1Ie)" d="M22,27v-1c0-0.552-0.448-1-1-1h-4c-0.552,0-1,0.448-1,1v1c0.552,0,1,0.448,1,1	c0,0.552-0.448,1-1,1v2c0.552,0,1,0.448,1,1c0,0.552-0.448,1-1,1v2c0.552,0,1,0.448,1,1c0,0.552-0.448,1-1,1v2c0,1.105,0.895,2,2,2	h2c1.105,0,2-0.895,2-2v-2c-0.552,0-1-0.448-1-1c0-0.552,0.448-1,1-1v-2c-0.552,0-1-0.448-1-1c0-0.552,0.448-1,1-1v-2	c-0.552,0-1-0.448-1-1C21,27.448,21.448,27,22,27z"/><circle cx="40" cy="10" r=".5" fill="#64717c"/><circle cx="16.5" cy="19.5" r=".5" fill="#64717c"/><circle cx="24" cy="3" r="1" fill="#64717c"/><circle cx="40" cy="16" r=".5" fill="#64717c"/><path fill="#bfc8d1" d="M33.5,13h-5c-0.276,0-0.5-0.224-0.5-0.5s0.224-0.5,0.5-0.5h5c0.276,0,0.5,0.224,0.5,0.5	S33.776,13,33.5,13z"/><path d="M31,20c-4.14,0-7.44-3.59-6.95-7.83c0.09-0.76,0.3-1.5,0.64-2.17c0.04-0.11,0.1-0.22,0.16-0.33 c0.35-0.63,0.78-1.2,1.3-1.7l-3.56-3.56c-0.32-0.32-0.52-0.73-0.56-1.15c-0.16,0.08-0.31,0.2-0.44,0.33 c-0.16,0.16-0.28,0.33-0.37,0.52c0.14,0.37,0.37,0.72,0.66,1.01L24.77,8c-0.24,0.3-0.46,0.61-0.65,0.94 c-0.05,0.08-0.09,0.16-0.14,0.24C23.83,9.45,23.7,9.72,23.59,10c-0.28,0.66-0.45,1.35-0.53,2.06c-0.27,2.28,0.45,4.56,1.97,6.26 C26.54,20.02,28.72,21,31,21c0.99,0,1.97-0.18,2.88-0.54C33.96,20.32,34,20.17,34,20v-0.68C33.1,19.76,32.08,20,31,20z" opacity=".05"/><path d="M31,20c-4.14,0-7.44-3.59-6.95-7.83c0.09-0.76,0.3-1.5,0.64-2.17c0.04-0.11,0.1-0.22,0.16-0.33 c0.35-0.63,0.78-1.2,1.3-1.7l-3.56-3.56c-0.32-0.32-0.52-0.73-0.56-1.15c-0.16,0.08-0.31,0.2-0.44,0.33 c0.08,0.42,0.31,0.84,0.65,1.17l3.21,3.22c-0.37,0.39-0.68,0.84-0.97,1.32c-0.02,0.04-0.04,0.09-0.07,0.13 c-0.1,0.19-0.2,0.38-0.28,0.57c-0.3,0.67-0.49,1.38-0.58,2.11c-0.24,2.14,0.43,4.29,1.85,5.88c1.42,1.59,3.46,2.51,5.6,2.51 c1.05,0,2.07-0.22,3-0.63v-0.55C33.1,19.76,32.08,20,31,20z" opacity=".07"/><rect width="2" height="1" x="18" y="24" opacity=".05"/><rect width="2" height=".5" x="18" y="24.5" opacity=".07"/><rect width="2" height="1" x="18" y="21" opacity=".05" transform="rotate(-180 19 21.5)"/><rect width="2" height=".5" x="18" y="21" opacity=".07" transform="rotate(-180 19 21.25)"/></svg>