<svg xmlns="http://www.w3.org/2000/svg" data-name="Слой 1" viewBox="0 0 48 48"><defs><linearGradient id="z5BYQXO9yFl2iWNW1UAYFa" x1="8.478" x2="48.664" y1="37.015" y2="37.015" data-name="Безымянный градиент 154" gradientUnits="userSpaceOnUse"><stop offset=".259" stop-color="#ffc430"/><stop offset=".36" stop-color="#f8bd2d"/><stop offset=".68" stop-color="#e5aa23"/><stop offset=".78" stop-color="#c58a14"/><stop offset="1" stop-color="#9c6000"/></linearGradient><linearGradient id="z5BYQXO9yFl2iWNW1UAYFb" x1="12.069" x2="38.252" y1="5.911" y2="44.548" data-name="Безымянный градиент 149" gradientUnits="userSpaceOnUse"><stop offset="0" stop-color="#ffc430"/><stop offset=".41" stop-color="#fec130"/><stop offset=".72" stop-color="#fcb730"/><stop offset=".998" stop-color="#f7a72f"/><stop offset="1" stop-color="#f7a72f"/></linearGradient><linearGradient id="z5BYQXO9yFl2iWNW1UAYFc" x1="9.983" x2="18.665" y1="6.596" y2="30.449" data-name="Безымянный градиент 156" gradientUnits="userSpaceOnUse"><stop offset="0" stop-color="#6d6d6d"/><stop offset=".126" stop-color="#626262"/><stop offset=".987" stop-color="#464646"/><stop offset=".998" stop-color="#454545"/></linearGradient></defs><path fill="url(#z5BYQXO9yFl2iWNW1UAYFa)" d="M24,36l4.82477,3.01548a6.67643,6.67643,0,0,0,6.5243.31L42,36l-8-2Z"/><path fill="url(#z5BYQXO9yFl2iWNW1UAYFb)" d="M45,18.5c0-1,1-1.5,1-2.5l-.00031-.03735A2.08142,2.08142,0,0,0,43.87439,14H28a5.97822,5.97822,0,0,0-4.4632,2H4a2,2,0,0,0-2,2V31a2,2,0,0,0,2,2H22.24774A4.7179,4.7179,0,0,0,24.032,36H42.82849a3.67149,3.67149,0,0,0,2.03809-.58722C47.33643,33.76361,45,31.24744,45,30.5c0-.489,1-1.76,1-3,0-1.121-1-2.507-1-3s1-1.911,1-3C46,20.532,45,19.5,45,18.5Z"/><rect width="5" height="5" x="14" y="16" fill="#64717c"/><rect width="5" height="5" x="14" y="28" fill="#64717c"/><path d="M19,19a2,2,0,0,1,2,2v7a2,2,0,0,1-2,2H14a2,2,0,0,1-2-2V21a2,2,0,0,1,2-2h5m0-1H14a3.00335,3.00335,0,0,0-3,3v7a3.00335,3.00335,0,0,0,3,3h5a3.00335,3.00335,0,0,0,3-3V21a3.00335,3.00335,0,0,0-3-3Z" opacity=".05"/><path d="M19,19a2,2,0,0,1,2,2v7a2,2,0,0,1-2,2H14a2,2,0,0,1-2-2V21a2,2,0,0,1,2-2h5m0-.5H14A2.50286,2.50286,0,0,0,11.5,21v7A2.50286,2.50286,0,0,0,14,30.5h5A2.50286,2.50286,0,0,0,21.5,28V21A2.50286,2.50286,0,0,0,19,18.5Z" opacity=".07"/><rect width="9" height="11" x="12" y="19" fill="url(#z5BYQXO9yFl2iWNW1UAYFc)" rx="2"/><g><circle cx="14.5" cy="22.5" r="1.5" fill="#eb6773"/><circle cx="14.5" cy="26.5" r="1.5" fill="#21a366"/><circle cx="18.5" cy="22.5" r="1.5" fill="#42a4ed"/><circle cx="18.5" cy="26.5" r="1.5" fill="#fed100"/></g></svg>