<svg xmlns="http://www.w3.org/2000/svg" viewBox="0 0 48 48"><linearGradient id="ZxWoXnj5iMNJ9AphmIs4Qa" x1="24" x2="24" y1="2.886" y2="55.457" gradientUnits="userSpaceOnUse"><stop offset="0" stop-color="#a34f27"/><stop offset=".587" stop-color="#8b3817"/><stop offset="1" stop-color="#802d10"/></linearGradient><path fill="url(#ZxWoXnj5iMNJ9AphmIs4Qa)" d="M37,37c0,3.314-2.686,6-6,6c-0.292,0-0.577-0.028-0.857-0.068C27.61,42.61,25.802,41,24,41	s-3.61,1.61-6.143,1.932C17.577,42.972,17.292,43,17,43c-3.314,0-6-2.686-6-6s2.686-6,6-6c1,0,1.5-0.5,1.5-1.5	c0-3.038,2.462-5.5,5.5-5.5s5.5,2.462,5.5,5.5c0,1,0.5,1.5,1.5,1.5C34.314,31,37,33.686,37,37z M23,14c0-3.866-2.239-7-5-7	s-5,3.134-5,7s2.239,7,5,7S23,17.866,23,14z M14,25c0-3.866-2.239-7-5-7s-5,3.134-5,7s2.239,7,5,7S14,28.866,14,25z M44,25	c0-3.866-2.239-7-5-7s-5,3.134-5,7s2.239,7,5,7S44,28.866,44,25z M35,14c0-3.866-2.239-7-5-7s-5,3.134-5,7s2.239,7,5,7	S35,17.866,35,14z"/></svg>