<svg xmlns="http://www.w3.org/2000/svg" data-name="Слой 1" viewBox="0 0 48 48"><defs><linearGradient id="crFcJ4K4hRLHtIimvp3Rza" x1="17.736" x2="28.407" y1="5.563" y2="34.882" data-name="Безымянный градиент 100" gradientUnits="userSpaceOnUse"><stop offset="0" stop-color="#21ad64"/><stop offset="1" stop-color="#088242"/></linearGradient></defs><rect width="6" height="14.5" x="21" y="31.502" fill="#21a366"/><ellipse cx="24" cy="6.002" fill="#33c481" rx="2" ry="4"/><ellipse cx="22.163" cy="6.165" fill="#33c481" rx="2" ry="4" transform="rotate(-45 22.163 6.165)"/><ellipse cx="25.837" cy="6.165" fill="#33c481" rx="4" ry="2" transform="rotate(-45 25.837 6.165)"/><path fill="#33c481" d="M18,6.0023h7v5L17.61538,7.92538A1,1,0,0,1,18,6.0023Z"/><path fill="#33c481" d="M30,6.0023H23v5l7.38462-3.07692A1,1,0,0,0,30,6.0023Z"/><path fill="url(#crFcJ4K4hRLHtIimvp3Rza)" d="M38,23.0023c0-7.45584-7.37258-16-14-16s-14,8.54416-14,16,7.37258,11,14,11S38,30.45815,38,23.0023Z"/><rect width="8" height="2" x="20" y="38.002" fill="#33c481" rx="1"/></svg>