<svg xmlns="http://www.w3.org/2000/svg" viewBox="0 0 48 48"><path fill="#50e6ff" d="M39,16v25c0,1.105-0.895,2-2,2H11c-1.105,0-2-0.895-2-2V7c0-1.105,0.895-2,2-2h17L39,16z"/><linearGradient id="NjmoisJb1HLKWfWhX6_08a" x1="28.529" x2="33.6" y1="646.528" y2="651.6" gradientTransform="matrix(1 0 0 -1 0 662)" gradientUnits="userSpaceOnUse"><stop offset="0" stop-color="#3079d6"/><stop offset="1" stop-color="#297cd2"/></linearGradient><path fill="url(#NjmoisJb1HLKWfWhX6_08a)" d="M28,5v9c0,1.105,0.895,2,2,2h9L28,5z"/><path fill="#057093" d="M35.5,21h-23c-0.276,0-0.5-0.224-0.5-0.5v-1c0-0.276,0.224-0.5,0.5-0.5h23c0.276,0,0.5,0.224,0.5,0.5	v1C36,20.776,35.776,21,35.5,21z"/><path fill="#057093" d="M14.5,27h-2c-0.276,0-0.5-0.224-0.5-0.5v-1c0-0.276,0.224-0.5,0.5-0.5h2c0.276,0,0.5,0.224,0.5,0.5v1	C15,26.776,14.776,27,14.5,27z"/><path fill="#057093" d="M35.5,27h-18c-0.276,0-0.5-0.224-0.5-0.5v-1c0-0.276,0.224-0.5,0.5-0.5h18c0.276,0,0.5,0.224,0.5,0.5	v1C36,26.776,35.776,27,35.5,27z"/><path fill="#057093" d="M35.5,35h-18c-0.276,0-0.5-0.224-0.5-0.5v-1c0-0.276,0.224-0.5,0.5-0.5h18c0.276,0,0.5,0.224,0.5,0.5	v1C36,34.776,35.776,35,35.5,35z"/><path fill="#057093" d="M35.5,31h-18c-0.276,0-0.5-0.224-0.5-0.5v-1c0-0.276,0.224-0.5,0.5-0.5h18c0.276,0,0.5,0.224,0.5,0.5	v1C36,30.776,35.776,31,35.5,31z"/><radialGradient id="NjmoisJb1HLKWfWhX6_08b" cx="37.649" cy="37.947" r="11.868" gradientUnits="userSpaceOnUse"><stop offset="0"/><stop offset="1" stop-opacity="0"/></radialGradient><path fill="url(#NjmoisJb1HLKWfWhX6_08b)" d="M38,26c-6.617,0-12,5.383-12,12c0,1.786,0.403,3.476,1.105,5H37c1.105,0,2-0.895,2-2V26.051	C38.669,26.023,38.338,26,38,26z"/><linearGradient id="NjmoisJb1HLKWfWhX6_08c" x1="28" x2="48" y1="624" y2="624" gradientTransform="matrix(1 0 0 -1 0 662)" gradientUnits="userSpaceOnUse"><stop offset="0" stop-color="#21ad64"/><stop offset="1" stop-color="#088242"/></linearGradient><circle cx="38" cy="38" r="10" fill="url(#NjmoisJb1HLKWfWhX6_08c)"/><path fill="#fff" d="M38.5,43h-1c-0.276,0-0.5-0.224-0.5-0.5v-9c0-0.276,0.224-0.5,0.5-0.5h1c0.276,0,0.5,0.224,0.5,0.5v9	C39,42.776,38.776,43,38.5,43z"/><path fill="#fff" d="M33,38.5v-1c0-0.276,0.224-0.5,0.5-0.5h9c0.276,0,0.5,0.224,0.5,0.5v1c0,0.276-0.224,0.5-0.5,0.5h-9	C33.224,39,33,38.776,33,38.5z"/><path fill="#057093" d="M14.5,31h-2c-0.276,0-0.5-0.224-0.5-0.5v-1c0-0.276,0.224-0.5,0.5-0.5h2c0.276,0,0.5,0.224,0.5,0.5v1	C15,30.776,14.776,31,14.5,31z"/><path fill="#057093" d="M14.5,35h-2c-0.276,0-0.5-0.224-0.5-0.5v-1c0-0.276,0.224-0.5,0.5-0.5h2c0.276,0,0.5,0.224,0.5,0.5v1	C15,34.776,14.776,35,14.5,35z"/></svg>