<svg xmlns="http://www.w3.org/2000/svg" xmlns:xlink="http://www.w3.org/1999/xlink" data-name="Слой 1" viewBox="0 0 48 48"><defs><linearGradient id="uraICoXtYIGTpP8M_LAfIb" x1="19.372" x2="1.206" y1="19.437" y2="37.604" data-name="Безымянный градиент 177" gradientUnits="userSpaceOnUse"><stop offset=".002" stop-color="#454545"/><stop offset=".013" stop-color="#464646"/><stop offset=".874" stop-color="#626262"/><stop offset="1" stop-color="#6d6d6d"/></linearGradient><linearGradient id="uraICoXtYIGTpP8M_LAfIa" x1="41.77" x2="27.861" y1="10.27" y2="24.178" data-name="Безымянный градиент 18" gradientUnits="userSpaceOnUse"><stop offset=".503" stop-color="#a1aab3"/><stop offset=".658" stop-color="#9ea7af"/><stop offset=".796" stop-color="#949da5"/><stop offset=".928" stop-color="#848c92"/><stop offset="1" stop-color="#787f85"/></linearGradient><linearGradient id="uraICoXtYIGTpP8M_LAfIc" x1="44.77" x2="30.861" y1="13.27" y2="27.178" xlink:href="#uraICoXtYIGTpP8M_LAfIa"/><linearGradient id="uraICoXtYIGTpP8M_LAfId" x1="38.77" x2="24.861" y1="7.27" y2="21.178" xlink:href="#uraICoXtYIGTpP8M_LAfIa"/><linearGradient id="uraICoXtYIGTpP8M_LAfIe" x1="11.867" x2="28.904" y1="40.172" y2="23.135" data-name="Безымянный градиент 25" gradientTransform="rotate(-45 20.375 31.664)" gradientUnits="userSpaceOnUse"><stop offset="0" stop-color="#889097"/><stop offset=".393" stop-color="#868e95"/><stop offset=".54" stop-color="#7f888f"/><stop offset=".647" stop-color="#737d85"/><stop offset=".733" stop-color="#626d76"/><stop offset=".807" stop-color="#4c5963"/><stop offset=".808" stop-color="#4c5963"/></linearGradient><linearGradient id="uraICoXtYIGTpP8M_LAfIf" x1="17.857" x2="26.06" y1="32.752" y2="40.955" data-name="Безымянный градиент 17" gradientUnits="userSpaceOnUse"><stop offset="0" stop-color="#a1aab3"/><stop offset="1" stop-color="#8f979e"/></linearGradient></defs><path fill="url(#uraICoXtYIGTpP8M_LAfIb)" d="M20.71,20.75a1.00412,1.00412,0,0,0-1.42-1.42L5.77,32.85a6.62116,6.62116,0,0,1,.82-5.63A2.00414,2.00414,0,0,0,3.41,24.78C.4,28.7,1.46,34.31,3.08,36.36a.95917.95917,0,0,0,.23.37,1.05823,1.05823,0,0,0,.46.26,1.00612,1.00612,0,0,0,.25.03,1.02412,1.02412,0,0,0,.71-.29L6.7,34.76l.323-.323,2.58246,2.58252-2.293,2.293a.99989.99989,0,1,0,1.41406,1.41406L14.707,34.74609A.99989.99989,0,0,0,13.293,33.332l-2.27344,2.27344L8.43707,33.023Z"/><path fill="url(#uraICoXtYIGTpP8M_LAfIa)" d="M25.5,28.03906a1.5,1.5,0,0,1-1.06055-2.56054l17-17a1.49984,1.49984,0,0,1,2.1211,2.12109l-17,17A1.49514,1.49514,0,0,1,25.5,28.03906Z"/><path fill="url(#uraICoXtYIGTpP8M_LAfIc)" d="M28.5,31.03906a1.5,1.5,0,0,1-1.06055-2.56054l17-17a1.49984,1.49984,0,0,1,2.1211,2.12109l-17,17A1.49514,1.49514,0,0,1,28.5,31.03906Z"/><path fill="url(#uraICoXtYIGTpP8M_LAfId)" d="M22.5,25.03906a1.5,1.5,0,0,1-1.06055-2.56054l17-17a1.49984,1.49984,0,0,1,2.1211,2.12109l-17,17A1.49514,1.49514,0,0,1,22.5,25.03906Z"/><path fill="url(#uraICoXtYIGTpP8M_LAfIe)" d="M14.71815,22.82538H26.03185a0,0,0,0,1,0,0V38.503a2,2,0,0,1-2,2H16.71815a2,2,0,0,1-2-2V22.82538a0,0,0,0,1,0,0Z" transform="rotate(45 20.375 31.664)"/><path fill="url(#uraICoXtYIGTpP8M_LAfIf)" d="M27.29291,33.29291l-.58582-.58582a1,1,0,0,0-1.41418,0l-.31342.31342a.98767.98767,0,0,0-1.292.08117l-6.48041,6.48041a1,1,0,0,0,0,1.41419l1.71082,1.71081a1,1,0,0,0,1.41418,0l6.48041-6.48041a.98677.98677,0,0,0,.14966-1.18884l.33075-.33075A1,1,0,0,0,27.29291,33.29291Z"/><path fill="#64717c" d="M31,32.03906a1.99268,1.99268,0,0,1-1.41406-.58593l-14-14A1.99979,1.99979,0,0,1,18.41406,14.625l14,14A2,2,0,0,1,31,32.03906Z"/><path fill="#64717c" d="M43,18a.99676.99676,0,0,1-.707-.293l-8-8A.99989.99989,0,0,1,35.707,8.293l8,8A1,1,0,0,1,43,18Z"/><path fill="#64717c" d="M40,21a.99676.99676,0,0,1-.707-.293l-8-8A.99989.99989,0,1,1,32.707,11.293l8,8A1,1,0,0,1,40,21Z"/><path d="M27.41,32A1.96591,1.96591,0,0,0,26,31.41a2.00348,2.00348,0,0,0-1.25.44,2.43045,2.43045,0,0,0-.38-.03,1.959,1.959,0,0,0-1.39.57L16.5,38.87a1.99665,1.99665,0,0,0-.52.9l.73.73a2.15573,2.15573,0,0,0,.33.27,1.00338,1.00338,0,0,1,.17-1.19l6.48-6.48a.9449.9449,0,0,1,.68-.28,1.05869,1.05869,0,0,1,.61.19995l.31-.31a.99024.99024,0,0,1,1.42,0l.31.31.36-.35.35-.35Z" opacity=".05"/><path d="M27.06,32.35a1.49679,1.49679,0,0,0-2.12,0l-.06.06a1.4408,1.4408,0,0,0-.51-.09,1.45967,1.45967,0,0,0-1.04.43l-6.48,6.48a1.43705,1.43705,0,0,0-.42.99l.28.28a2.15573,2.15573,0,0,0,.33.27,1.00338,1.00338,0,0,1,.17-1.19l6.48-6.48a.9449.9449,0,0,1,.68-.28,1.05869,1.05869,0,0,1,.61.19995l.31-.31a.99024.99024,0,0,1,1.42,0l.31.31.36-.35Z" opacity=".07"/></svg>