<svg xmlns="http://www.w3.org/2000/svg" viewBox="0 0 48 48"><linearGradient id="n4Q8Dajvva4gIs~Qd_Oaya" x1="-1102.885" x2="-1070.454" y1="-1244.754" y2="-1272.117" gradientTransform="rotate(180 -531 -618)" gradientUnits="userSpaceOnUse"><stop offset="0" stop-color="#a1aab3"/><stop offset="1" stop-color="#8f979e"/></linearGradient><path fill="url(#n4Q8Dajvva4gIs~Qd_Oaya)" d="M4,37h40c1.105,0,2-0.895,2-2V11c0-1.105-0.895-2-2-2H4c-1.105,0-2,0.895-2,2v24 C2,36.105,2.895,37,4,37z"/><linearGradient id="n4Q8Dajvva4gIs~Qd_Oayb" x1="20.208" x2="28.209" y1="-1246.78" y2="-1272.563" gradientTransform="matrix(1 0 0 -1 0 -1236)" gradientUnits="userSpaceOnUse"><stop offset="0" stop-color="#6d7479"/><stop offset="1" stop-color="#323538"/></linearGradient><rect width="40" height="24" x="4" y="11" fill="url(#n4Q8Dajvva4gIs~Qd_Oayb)"/><radialGradient id="n4Q8Dajvva4gIs~Qd_Oayc" cx="37.446" cy="35.925" r="18.192" gradientTransform="matrix(0 .75 1.3077 0 -4.115 -.935)" gradientUnits="userSpaceOnUse"><stop offset="0" stop-color="#bd8af5"/><stop offset=".137" stop-color="#b88bf5"/><stop offset=".309" stop-color="#a88ff3"/><stop offset=".499" stop-color="#8f96f2"/><stop offset=".702" stop-color="#6b9eef"/><stop offset=".913" stop-color="#3eaaec"/><stop offset="1" stop-color="#29afea"/></radialGradient><path fill="url(#n4Q8Dajvva4gIs~Qd_Oayc)" d="M41,27V7c0-1.105-0.895-2-2-2H9C7.895,5,7,5.895,7,7v20c0,1.105,0.895,2,2,2h30 C40.105,29,41,28.105,41,27z"/><path d="M31.251,17.928L31.251,17.928C31.018,17.364,30.473,17,29.864,17H27v-6c0-1.103-0.897-2-2-2h-2 c-1.103,0-2,0.897-2,2v6h-2.864c-0.61,0-1.154,0.364-1.385,0.927c-0.233,0.563-0.105,1.204,0.326,1.634l5.509,5.511 c0.378,0.378,0.88,0.586,1.414,0.586c0.534,0,1.036-0.208,1.415-0.586l5.51-5.51C31.354,19.132,31.482,18.49,31.251,17.928z" opacity=".05"/><linearGradient id="n4Q8Dajvva4gIs~Qd_Oayd" x1="24" x2="24" y1="-1272.992" y2="-1277.008" gradientTransform="matrix(1 0 0 -1 0 -1236)" gradientUnits="userSpaceOnUse"><stop offset="0" stop-color="#484b4f"/><stop offset=".23" stop-color="#656d75"/><stop offset=".367" stop-color="#727d86"/></linearGradient><path fill="url(#n4Q8Dajvva4gIs~Qd_Oayd)" d="M37.5,39H30v-2H18v2h-7.5c-0.276,0-0.5,0.224-0.5,0.5v1c0,0.276,0.224,0.5,0.5,0.5h27 c0.276,0,0.5-0.224,0.5-0.5v-1C38,39.224,37.776,39,37.5,39z"/><path d="M30.789,18.118c-0.155-0.375-0.518-0.618-0.924-0.618H26.5V11c0-0.827-0.673-1.5-1.5-1.5h-2 c-0.827,0-1.5,0.673-1.5,1.5v6.5h-3.364c-0.406,0-0.769,0.242-0.923,0.618c-0.155,0.375-0.07,0.803,0.217,1.089l5.509,5.511 c0.283,0.283,0.66,0.439,1.061,0.439s0.777-0.156,1.061-0.439l5.51-5.51C30.858,18.921,30.943,18.494,30.789,18.118z" opacity=".07"/><path fill="#fff" d="M29.864,18H26v-7c0-0.552-0.448-1-1-1h-2c-0.552,0-1,0.448-1,1v7h-3.864 c-0.445,0-0.668,0.539-0.353,0.854l5.51,5.51c0.39,0.391,1.023,0.391,1.414,0L25,24.071l5.218-5.217 C30.533,18.539,30.309,18,29.864,18z"/><path fill="#fff" d="M13,26h-2c-0.552,0-1-0.448-1-1v-2c0-0.552,0.448-1,1-1h2c0.552,0,1,0.448,1,1v2 C14,25.552,13.552,26,13,26z"/><path fill="#fff" d="M13,19h-2c-0.552,0-1-0.448-1-1v-2c0-0.552,0.448-1,1-1h2c0.552,0,1,0.448,1,1v2 C14,18.552,13.552,19,13,19z"/><path fill="#fff" d="M13,12h-2c-0.552,0-1-0.448-1-1V9c0-0.552,0.448-1,1-1h2c0.552,0,1,0.448,1,1v2 C14,11.552,13.552,12,13,12z"/><path fill="#fff" d="M37,26h-2c-0.552,0-1-0.448-1-1v-2c0-0.552,0.448-1,1-1h2c0.552,0,1,0.448,1,1v2 C38,25.552,37.552,26,37,26z"/><path fill="#fff" d="M37,19h-2c-0.552,0-1-0.448-1-1v-2c0-0.552,0.448-1,1-1h2c0.552,0,1,0.448,1,1v2 C38,18.552,37.552,19,37,19z"/><path fill="#fff" d="M37,12h-2c-0.552,0-1-0.448-1-1V9c0-0.552,0.448-1,1-1h2c0.552,0,1,0.448,1,1v2 C38,11.552,37.552,12,37,12z"/></svg>