<svg xmlns="http://www.w3.org/2000/svg" viewBox="0 0 48 48"><path fill="#ccc" d="M36,6H12c-3.314,0-6,2.686-6,6v24c0,3.314,2.686,6,6,6h24c3.314,0,6-2.686,6-6V12	C42,8.686,39.314,6,36,6z"/><path fill="#4c4c4c" d="M36,40H12c-2.209,0-4-1.791-4-4V12c0-2.209,1.791-4,4-4h24c2.209,0,4,1.791,4,4v24	C40,38.209,38.209,40,36,40z"/><path fill="#fff" d="M23.206,31.945H16.5c-0.276,0-0.5-0.224-0.5-0.5V15.499c0-0.276,0.224-0.5,0.5-0.5h1.915 c0.276,0,0.5,0.224,0.5,0.5v12.85c0,0.276,0.224,0.5,0.5,0.5h3.791c0.276,0,0.5,0.224,0.5,0.5v2.096 C23.706,31.721,23.482,31.945,23.206,31.945z"/><path fill="#fff" d="M32,23.212c-0.343-0.244-0.743-0.366-1.2-0.366c-0.619,0-1.104,0.297-1.452,0.892 c-0.35,0.595-0.523,1.404-0.523,2.429v5.278c0,0.276-0.224,0.5-0.5,0.5h-1.852c-0.276,0-0.5-0.224-0.5-0.5V20.344 c0-0.276,0.224-0.5,0.5-0.5h1.852c0.276,0,0.5,0.224,0.5,0.5v1.745h0.036c0.451-1.638,1.263-2.457,2.437-2.457 c0.3,0,0.535,0.047,0.703,0.142V23.212z"/></svg>