<svg xmlns="http://www.w3.org/2000/svg" viewBox="0 0 48 48"><path fill="#184686" d="M39,42H9c-1.657,0-3-1.343-3-3V9c0-1.657,1.343-3,3-3h30c1.657,0,3,1.343,3,3v30 C42,40.657,40.657,42,39,42z"/><linearGradient id="WRR9IHwvOrZCD~QWWW3Ssa" x1="24" x2="24" y1="6.043" y2="16.043" gradientUnits="userSpaceOnUse"><stop offset="0" stop-color="#a1aab3"/><stop offset="1" stop-color="#607d8b"/></linearGradient><path fill="url(#WRR9IHwvOrZCD~QWWW3Ssa)" d="M28.564,18h-9.128C18.643,18,18,17.357,18,16.564V6.436C18,5.643,18.643,5,19.436,5h9.128 C29.357,5,30,5.643,30,6.436v10.128C30,17.357,29.357,18,28.564,18z"/><path fill="#c0c9cc" d="M24,42h-5c-0.552,0-1-0.448-1-1l0,0c0-0.552,0.448-1,1-1h5c0.552,0,1,0.448,1,1l0,0 C25,41.552,24.552,42,24,42z"/><path fill="#99a2aa" d="M29,40h-5c-0.552,0-1-0.448-1-1l0,0c0-0.552,0.448-1,1-1h5c0.552,0,1,0.448,1,1l0,0 C30,39.552,29.552,40,29,40z"/><path fill="#c0c9cc" d="M24,38h-5c-0.552,0-1-0.448-1-1l0,0c0-0.552,0.448-1,1-1h5c0.552,0,1,0.448,1,1l0,0 C25,37.552,24.552,38,24,38z"/><path fill="#99a2aa" d="M29,36h-5c-0.552,0-1-0.448-1-1l0,0c0-0.552,0.448-1,1-1h5c0.552,0,1,0.448,1,1l0,0 C30,35.552,29.552,36,29,36z"/><path fill="#c0c9cc" d="M24,34h-5c-0.552,0-1-0.448-1-1l0,0c0-0.552,0.448-1,1-1h5c0.552,0,1,0.448,1,1l0,0 C25,33.552,24.552,34,24,34z"/><path fill="#99a2aa" d="M29,32h-5c-0.552,0-1-0.448-1-1v0c0-0.552,0.448-1,1-1h5c0.552,0,1,0.448,1,1v0 C30,31.552,29.552,32,29,32z"/><linearGradient id="WRR9IHwvOrZCD~QWWW3Ssb" x1="24" x2="24" y1="29.702" y2="14.317" gradientUnits="userSpaceOnUse"><stop offset="0" stop-color="#f5aa00"/><stop offset="1" stop-color="#fede00"/></linearGradient><path fill="url(#WRR9IHwvOrZCD~QWWW3Ssb)" d="M30.264,12.641C30.114,11.142,28.853,10,27.346,10h-6.692c-1.507,0-2.768,1.142-2.918,2.641 l-1.413,14.135C16.15,28.502,17.506,30,19.241,30h9.519c1.735,0,3.091-1.498,2.918-3.225L30.264,12.641z M28,15.479 C28,16.319,27.319,17,26.479,17h-4.957C20.681,17,20,16.319,20,15.479v-1.958C20,12.681,20.681,12,21.521,12h4.957 C27.319,12,28,12.681,28,13.521V15.479z"/><path d="M21.521,12h4.957c0.007,0,0.014,0.002,0.021,0.002V10h-5v2.002 C21.507,12.002,21.514,12,21.521,12z" opacity=".05"/><path d="M27,12.098V10h-6v2.098C21.163,12.038,21.337,12,21.521,12h4.957 C26.663,12,26.837,12.038,27,12.098z" opacity=".05"/><linearGradient id="WRR9IHwvOrZCD~QWWW3Ssc" x1="24" x2="24" y1="9.947" y2="14.909" gradientUnits="userSpaceOnUse"><stop offset="0" stop-color="#fede00"/><stop offset="1" stop-color="#f5aa00"/></linearGradient><path fill="url(#WRR9IHwvOrZCD~QWWW3Ssc)" d="M24.649,7h-1.298C22.605,7,22,7.605,22,8.351v5.298C22,14.395,22.605,15,23.351,15h1.298 C25.395,15,26,14.395,26,13.649V8.351C26,7.605,25.395,7,24.649,7z"/></svg>