<svg xmlns="http://www.w3.org/2000/svg" viewBox="0 0 48 48"><linearGradient id="gb2qdh9~aijpj_OLkt0spa" x1="-.106" x2="40.972" y1="-.106" y2="40.972" gradientUnits="userSpaceOnUse"><stop offset="0" stop-color="#f0f0f0"/><stop offset="1" stop-color="#bbc1c4"/></linearGradient><path fill="url(#gb2qdh9~aijpj_OLkt0spa)" fill-rule="evenodd" d="M45,33.539C45,37.107,42.076,40,38.467,40H3V14.486	C3,10.904,5.904,8,9.486,8L45,8L45,33.539L45,33.539L45,33.539z" clip-rule="evenodd"/><linearGradient id="gb2qdh9~aijpj_OLkt0spb" x1="44.277" x2="31.801" y1="24" y2="24" gradientUnits="userSpaceOnUse"><stop offset="0" stop-color="#21ad64"/><stop offset="1" stop-color="#088242"/></linearGradient><path fill="url(#gb2qdh9~aijpj_OLkt0spb)" fill-rule="evenodd" d="M33.453,24.563h0.024h0.046h0.046h0.046h0.046h0.046	h0.046h0.046h0.046h0.046h0.046h0.046h0.046h0.046h0.046h0.046h0.046h0.046h0.046h0.046h0.046h0.046h0.046h0.046h0.046h0.046h0.046	h0.046h0.046h0.046h0.046h0.046h0.046h0.046h0.046h0.046h0.046h0.046h0.046h0.046h0.046h0.046h0.046h0.046h0.046h0.046h0.046h0.046	h0.046h0.046h0.046h0.046h0.046h0.046h0.046h0.046h0.046h0.046h0.046h0.046h0.039l0.008,0c0.014,0,0.03,0.001,0.046,0.002	c0.015,0.001,0.03,0.002,0.046,0.003c0.015,0.001,0.031,0.002,0.046,0.004c0.016,0.001,0.031,0.003,0.046,0.005	c0.016,0.002,0.032,0.004,0.046,0.005c0.017,0.002,0.032,0.004,0.046,0.007c0.01,0.002,0.02,0.003,0.028,0.005l0.018,0.004	c0.016,0.003,0.031,0.007,0.046,0.011c0.016,0.004,0.031,0.009,0.046,0.013c0.016,0.005,0.031,0.01,0.046,0.015	c0.016,0.005,0.031,0.011,0.046,0.017c0.016,0.006,0.031,0.013,0.046,0.019c0.016,0.007,0.031,0.014,0.046,0.022	c0.016,0.008,0.031,0.016,0.046,0.024c0.016,0.008,0.031,0.017,0.046,0.027c0.016,0.009,0.031,0.019,0.046,0.029	c0.016,0.01,0.031,0.021,0.046,0.032c0.016,0.011,0.031,0.023,0.046,0.035c0.016,0.013,0.031,0.026,0.046,0.039	c0.016,0.014,0.031,0.028,0.046,0.043c0.016,0.016,0.031,0.032,0.046,0.048c0.016,0.018,0.031,0.036,0.046,0.054	c0.016,0.02,0.032,0.04,0.046,0.061c0.016,0.023,0.032,0.047,0.046,0.071c0.017,0.027,0.032,0.055,0.046,0.084	c0.017,0.034,0.033,0.069,0.046,0.106c0.019,0.049,0.034,0.099,0.046,0.151c0.021,0.09,0.033,0.185,0.033,0.285	c0,0.1-0.011,0.195-0.033,0.286c-0.012,0.052-0.028,0.103-0.046,0.152c-0.014,0.036-0.029,0.072-0.046,0.106	c-0.014,0.029-0.03,0.057-0.046,0.084c-0.015,0.024-0.03,0.048-0.046,0.071c-0.015,0.021-0.03,0.041-0.046,0.061	c-0.015,0.018-0.03,0.036-0.046,0.054c-0.015,0.016-0.03,0.033-0.046,0.048c-0.015,0.015-0.031,0.029-0.046,0.043	c-0.015,0.013-0.031,0.026-0.046,0.039c-0.015,0.012-0.031,0.024-0.046,0.035c-0.015,0.011-0.031,0.022-0.046,0.032	c-0.015,0.01-0.031,0.02-0.046,0.029c-0.015,0.009-0.031,0.018-0.046,0.026c-0.015,0.008-0.031,0.016-0.046,0.024	c-0.015,0.007-0.031,0.015-0.046,0.021c-0.015,0.007-0.031,0.013-0.046,0.019c-0.015,0.006-0.031,0.012-0.046,0.017	c-0.015,0.005-0.031,0.01-0.046,0.015c-0.015,0.005-0.031,0.009-0.046,0.013c-0.015,0.004-0.031,0.008-0.046,0.011l-0.018,0.004	c-0.008,0.002-0.018,0.004-0.028,0.005c-0.014,0.002-0.03,0.005-0.046,0.007c-0.015,0.002-0.03,0.004-0.046,0.005	c-0.015,0.002-0.031,0.003-0.046,0.004c-0.016,0.001-0.031,0.003-0.046,0.004c-0.016,0.001-0.031,0.002-0.046,0.003	c-0.016,0.001-0.032,0.001-0.046,0.002l-0.025,0h-0.022h-0.046h-0.046h-0.046h-0.046h-0.046h-0.046h-0.046h-0.046h-0.046H35.75	h-0.046h-0.046h-0.046h-0.046h-0.046h-0.046h-0.046h-0.046h-0.046h-0.046H35.24h-0.046h-0.046h-0.046h-0.046h-0.046h-0.046h-0.046	h-0.046h-0.046h-0.046H34.73h-0.046h-0.046h-0.046h-0.046h-0.046h-0.046h-0.046h-0.046h-0.046h-0.046h-0.046h-0.046h-0.046H34.08	h-0.046h-0.046h-0.046h-0.046h-0.046h-0.046h-0.046h-0.046h-0.046h-0.046H33.57h-0.046h-0.046h-0.024V24.563L33.453,24.563z M37.188,21.797c0.019,0.082,0.029,0.169,0.029,0.26c0,0.091-0.01,0.178-0.029,0.26c-0.012,0.053-0.028,0.103-0.046,0.152	c-0.014,0.035-0.029,0.07-0.046,0.103c-0.014,0.028-0.03,0.055-0.046,0.081c-0.015,0.023-0.03,0.045-0.046,0.067	c-0.015,0.02-0.03,0.039-0.046,0.058c-0.015,0.017-0.03,0.034-0.046,0.051c-0.015,0.015-0.03,0.03-0.046,0.045	c-0.015,0.014-0.031,0.027-0.046,0.04c-0.015,0.012-0.031,0.024-0.046,0.036c-0.015,0.011-0.031,0.022-0.046,0.032	c-0.015,0.01-0.031,0.02-0.046,0.029c-0.015,0.009-0.031,0.018-0.046,0.026c-0.015,0.008-0.031,0.016-0.046,0.024	c-0.015,0.007-0.031,0.014-0.046,0.021c-0.015,0.007-0.031,0.013-0.046,0.019c-0.015,0.006-0.031,0.011-0.046,0.017	c-0.015,0.005-0.031,0.01-0.046,0.015c-0.015,0.004-0.031,0.009-0.046,0.013c-0.015,0.004-0.031,0.007-0.046,0.011	c-0.015,0.003-0.031,0.006-0.046,0.009l-0.011,0.002c-0.009,0.002-0.021,0.003-0.035,0.005c-0.014,0.002-0.029,0.003-0.046,0.005	c-0.015,0.001-0.03,0.003-0.046,0.004c-0.015,0.001-0.031,0.002-0.046,0.003c-0.016,0.001-0.031,0.002-0.046,0.002	c-0.016,0.001-0.032,0.001-0.046,0.001l-0.007,0h-0.039h-0.046h-0.046h-0.046H35.75h-0.046h-0.046h-0.046h-0.046h-0.046h-0.046	h-0.046h-0.046h-0.046h-0.046H35.24h-0.046h-0.046h-0.046h-0.046h-0.046h-0.046h-0.046h-0.046h-0.046h-0.046H34.73h-0.046h-0.046	h-0.046h-0.046h-0.046h-0.046h-0.046h-0.046h-0.046h-0.046H34.22h-0.046h-0.046h-0.046h-0.046h-0.046h-0.046h-0.046h-0.046h-0.046	h-0.046H33.71h-0.046h-0.046h-0.046h-0.046h-0.046h-0.024v-2.256h0.024h0.046h0.046h0.046h0.046h0.046h0.046h0.046h0.046h0.046	h0.046h0.046h0.046h0.046h0.046h0.046h0.046h0.046h0.046h0.046h0.046h0.046h0.046h0.046h0.046h0.046h0.046h0.046h0.046h0.046h0.046	h0.046h0.046h0.046h0.046h0.046h0.046h0.046h0.046h0.046h0.046h0.046h0.046h0.046h0.046h0.046h0.046h0.046h0.046h0.046h0.046h0.046	h0.046h0.046h0.046h0.02l0.027,0.001c0.015,0.001,0.031,0.001,0.046,0.002c0.016,0.001,0.031,0.002,0.046,0.003	c0.016,0.001,0.032,0.003,0.046,0.004c0.017,0.002,0.033,0.003,0.046,0.005c0.014,0.002,0.026,0.003,0.035,0.004l0.011,0.002	c0.016,0.003,0.031,0.006,0.046,0.009c0.016,0.003,0.031,0.007,0.046,0.011c0.016,0.004,0.031,0.008,0.046,0.013	c0.016,0.005,0.031,0.009,0.046,0.015c0.016,0.005,0.031,0.011,0.046,0.017c0.016,0.006,0.031,0.012,0.046,0.019	c0.016,0.007,0.031,0.014,0.046,0.021c0.016,0.008,0.031,0.015,0.046,0.023c0.016,0.008,0.031,0.017,0.046,0.026	c0.016,0.009,0.031,0.019,0.046,0.029c0.016,0.01,0.031,0.021,0.046,0.032c0.016,0.012,0.031,0.023,0.046,0.036	c0.016,0.013,0.031,0.026,0.046,0.04c0.016,0.014,0.031,0.029,0.046,0.045c0.016,0.016,0.031,0.033,0.046,0.051	c0.016,0.019,0.032,0.038,0.046,0.058c0.016,0.022,0.032,0.044,0.046,0.067c0.017,0.026,0.032,0.053,0.046,0.081	c0.017,0.033,0.033,0.067,0.046,0.103C37.16,21.693,37.176,21.744,37.188,21.797L37.188,21.797z M42.939,10.1h0.019l0,23.167	c0,0.138-0.007,0.275-0.019,0.411c-0.011,0.119-0.026,0.237-0.046,0.353c-0.013,0.078-0.029,0.156-0.046,0.232	c-0.014,0.062-0.03,0.125-0.046,0.186c-0.014,0.053-0.03,0.106-0.046,0.158c-0.015,0.047-0.03,0.094-0.046,0.141	c-0.015,0.042-0.03,0.084-0.046,0.126c-0.015,0.039-0.03,0.078-0.046,0.116c-0.015,0.036-0.03,0.072-0.046,0.107	c-0.015,0.034-0.031,0.067-0.046,0.101c-0.015,0.032-0.031,0.063-0.046,0.095c-0.015,0.03-0.031,0.06-0.046,0.09	c-0.015,0.028-0.031,0.057-0.046,0.085c-0.015,0.027-0.031,0.054-0.046,0.08c-0.015,0.026-0.031,0.051-0.046,0.077	c-0.015,0.025-0.031,0.05-0.046,0.074c-0.015,0.024-0.031,0.048-0.046,0.071c-0.015,0.023-0.031,0.045-0.046,0.068	c-0.015,0.022-0.031,0.044-0.046,0.065c-0.015,0.021-0.031,0.043-0.046,0.064c-0.015,0.021-0.031,0.041-0.046,0.061	c-0.015,0.02-0.031,0.039-0.046,0.059c-0.015,0.019-0.031,0.038-0.046,0.057c-0.015,0.019-0.031,0.037-0.046,0.056	c-0.015,0.018-0.031,0.036-0.046,0.054c-0.015,0.018-0.031,0.035-0.046,0.053c-0.015,0.017-0.031,0.034-0.046,0.05	c-0.015,0.017-0.031,0.033-0.046,0.049c-0.015,0.016-0.031,0.032-0.046,0.048c-0.015,0.016-0.031,0.031-0.046,0.046	c-0.015,0.015-0.031,0.031-0.046,0.046c-0.015,0.015-0.031,0.029-0.046,0.044c-0.015,0.014-0.031,0.029-0.046,0.043	c-0.015,0.014-0.031,0.028-0.046,0.042c-0.015,0.014-0.031,0.027-0.046,0.041c-0.015,0.013-0.031,0.027-0.046,0.04	c-0.015,0.013-0.031,0.026-0.046,0.039c-0.015,0.013-0.031,0.025-0.046,0.038c-0.015,0.012-0.031,0.024-0.046,0.037	c-0.015,0.012-0.031,0.024-0.046,0.036c-0.015,0.012-0.031,0.023-0.046,0.035c-0.015,0.011-0.031,0.023-0.046,0.034	c-0.015,0.011-0.031,0.022-0.046,0.033c-0.015,0.011-0.031,0.022-0.046,0.033c-0.015,0.011-0.031,0.021-0.046,0.031	c-0.015,0.01-0.031,0.021-0.046,0.031c-0.015,0.01-0.031,0.02-0.046,0.03c-0.015,0.01-0.031,0.02-0.046,0.029	c-0.015,0.01-0.031,0.019-0.046,0.028c-0.015,0.009-0.031,0.019-0.046,0.028c-0.015,0.009-0.031,0.018-0.046,0.027l-0.046,0.026	c-0.015,0.009-0.031,0.017-0.046,0.026c-0.015,0.008-0.031,0.017-0.046,0.025c-0.015,0.008-0.031,0.017-0.046,0.025	c-0.015,0.008-0.031,0.016-0.046,0.024c-0.015,0.008-0.031,0.016-0.046,0.024c-0.015,0.008-0.031,0.015-0.046,0.022	c-0.015,0.007-0.031,0.015-0.046,0.022c-0.015,0.007-0.031,0.014-0.046,0.021l-0.046,0.021L40.11,37.5	c-0.015,0.007-0.031,0.013-0.046,0.02c-0.015,0.006-0.031,0.013-0.046,0.019c-0.015,0.006-0.031,0.012-0.046,0.018	c-0.015,0.006-0.031,0.012-0.046,0.018c-0.015,0.006-0.031,0.011-0.046,0.017c-0.015,0.006-0.031,0.011-0.046,0.017l-0.046,0.016	c-0.015,0.005-0.031,0.011-0.046,0.016c-0.015,0.005-0.031,0.011-0.046,0.016c-0.015,0.005-0.031,0.01-0.046,0.015L39.6,37.686	c-0.015,0.005-0.031,0.009-0.046,0.014l-0.046,0.013c-0.015,0.004-0.031,0.009-0.046,0.013c-0.015,0.004-0.031,0.008-0.046,0.012	c-0.015,0.004-0.031,0.008-0.046,0.012l-0.046,0.011l-0.046,0.011l-0.046,0.011c-0.015,0.003-0.031,0.006-0.046,0.01	c-0.015,0.003-0.031,0.007-0.046,0.01l-0.046,0.009l-0.046,0.009c-0.015,0.003-0.031,0.006-0.046,0.008	c-0.015,0.003-0.031,0.005-0.046,0.007l-0.046,0.007l-0.046,0.007l-0.046,0.006c-0.015,0.002-0.031,0.004-0.046,0.006	c-0.015,0.002-0.031,0.003-0.046,0.005c-0.015,0.002-0.031,0.004-0.046,0.005c-0.015,0.002-0.031,0.003-0.046,0.005	c-0.015,0.001-0.031,0.003-0.046,0.004c-0.015,0.001-0.031,0.003-0.046,0.004c-0.015,0.001-0.031,0.002-0.046,0.003l-0.046,0.003	c-0.015,0.001-0.031,0.002-0.046,0.003c-0.015,0.001-0.031,0.001-0.046,0.002l-0.046,0.002l-0.046,0.001	c-0.015,0-0.031,0-0.046,0.001L38.162,37.9l-0.01,0h-0.037h-0.046h-0.046h-0.046H37.93h-0.046h-0.046h-0.046h-0.046h-0.046h-0.046	h-0.046h-0.046h-0.046h-0.046H37.42h-0.046h-0.046H37.28h-0.046h-0.046h-0.046h-0.046h-0.046h-0.046h-0.046h-0.046h-0.046h-0.046	H36.77h-0.046h-0.046h-0.046h-0.046h-0.046h-0.046h-0.046h-0.046h-0.046h-0.046H36.26h-0.046h-0.046h-0.046h-0.046h-0.046h-0.046	h-0.046h-0.046h-0.046h-0.046H35.75h-0.046h-0.046h-0.046h-0.046h-0.046h-0.046h-0.046h-0.046h-0.046h-0.046H35.24h-0.046h-0.046	H35.1h-0.046h-0.046h-0.046h-0.046h-0.046h-0.046h-0.046h-0.046h-0.046h-0.046H34.59h-0.046h-0.046h-0.046h-0.046h-0.046h-0.046	h-0.046h-0.046h-0.046h-0.046H34.08h-0.046h-0.046h-0.046h-0.046h-0.046h-0.046h-0.046h-0.046h-0.046h-0.046H33.57h-0.046h-0.046	h-0.046h-0.046h-0.046h-0.046h-0.046h-0.046h-0.046h-0.046h-0.046h-0.046h-0.046H32.92h-0.046h-0.046h-0.046h-0.046h-0.046h-0.046	h-0.046h-0.046h-0.046h-0.046H32.41h-0.046h-0.046h-0.046h-0.046h-0.046h-0.046h-0.046h-0.046h-0.046h-0.046H31.9h-0.046h-0.046	h-0.046h-0.046h-0.046h-0.046h-0.046h-0.046h-0.046h-0.046H31.39h-0.046h-0.046h-0.046h-0.046h-0.1v-9.446h0.1h0.046h0.046h0.046	h0.046h0.046h0.046h0.046h0.046h0.046h0.046h0.046h0.046h0.046h0.046H31.9h0.046h0.046h0.046h0.046h0.046h0.046h0.046h0.046h0.046	h0.046h0.046h0.046h0.046h0.046h0.046h0.046h0.046h0.046h0.046h0.046h0.046h0.046h0.046h0.046h0.046h0.046h0.046h0.046h0.046h0.046	h0.046h0.046h0.046h0.046h0.046h0.046h0.046h0.046h0.046h0.046h0.046h0.046h0.046h0.046h0.046h0.046h0.046h0.046h0.046h0.046h0.046	h0.046h0.046h0.046h0.046h0.046h0.046h0.046h0.046h0.046h0.046h0.046h0.046h0.046h0.046h0.046h0.046h0.046H35.1h0.046h0.046h0.046	h0.046h0.046h0.046h0.046h0.046h0.046h0.046h0.046h0.046h0.046h0.046h0.046h0.046h0.046h0.046h0.046h0.046h0.046h0.046h0.046h0.046	h0.046h0.046h0.046h0.046h0.046h0.046h0.046h0.046h0.046h0.046h0.046h0.046h0.046h0.046h0.046h0.046h0.046h0.046h0.046h0.046h0.046	h0.046h0.046h0.046h0.046h0.046h0.046h0.046h0.046h0.046h0.046h0.046h0.046h0.046h0.046h0.046h0.046h0.046h0.046h0.046h0.046h0.046	h0.046h0.046h0.046h0.046h0.046h0.046h0.046h0.046h0.025l0.022,0l0.046,0l0.046-0.001c0.015,0,0.031-0.001,0.046-0.001	c0.016-0.001,0.031-0.001,0.046-0.002l0.046-0.002l0.046-0.003l0.046-0.003l0.046-0.003l0.046-0.004	c0.015-0.001,0.031-0.003,0.046-0.004c0.016-0.002,0.031-0.003,0.046-0.005l0.046-0.005c0.016-0.002,0.031-0.004,0.046-0.006	c0.016-0.002,0.031-0.004,0.046-0.007c0.015-0.002,0.031-0.004,0.046-0.007l0.046-0.008l0.046-0.008	c0.015-0.003,0.031-0.005,0.046-0.008c0.016-0.003,0.031-0.006,0.046-0.009l0.046-0.01c0.015-0.003,0.031-0.007,0.046-0.01	c0.016-0.004,0.031-0.007,0.046-0.011c0.015-0.004,0.031-0.007,0.046-0.011c0.015-0.004,0.031-0.008,0.046-0.012	c0.016-0.004,0.031-0.008,0.046-0.013c0.016-0.004,0.031-0.009,0.046-0.013l0.046-0.014c0.016-0.005,0.031-0.01,0.046-0.015	c0.016-0.005,0.031-0.01,0.046-0.015c0.016-0.005,0.031-0.011,0.046-0.016c0.016-0.006,0.031-0.011,0.046-0.017	c0.016-0.006,0.031-0.012,0.046-0.018c0.016-0.006,0.031-0.012,0.046-0.018c0.016-0.006,0.031-0.013,0.046-0.019	c0.016-0.007,0.031-0.013,0.046-0.02c0.016-0.007,0.031-0.014,0.046-0.021c0.016-0.007,0.031-0.014,0.046-0.022	c0.016-0.008,0.031-0.015,0.046-0.023c0.016-0.008,0.031-0.016,0.046-0.024c0.016-0.008,0.031-0.016,0.046-0.025	c0.016-0.009,0.031-0.017,0.046-0.026c0.016-0.009,0.031-0.018,0.046-0.027c0.016-0.009,0.031-0.019,0.046-0.028	c0.016-0.01,0.031-0.02,0.046-0.03c0.016-0.01,0.031-0.021,0.046-0.031c0.016-0.011,0.031-0.022,0.046-0.033	c0.016-0.011,0.031-0.023,0.046-0.034c0.016-0.012,0.031-0.024,0.046-0.036c0.016-0.012,0.031-0.025,0.046-0.037	c0.016-0.013,0.031-0.026,0.046-0.039c0.016-0.014,0.031-0.028,0.046-0.042c0.016-0.014,0.031-0.029,0.046-0.044	c0.016-0.015,0.031-0.031,0.046-0.047c0.016-0.016,0.031-0.033,0.046-0.049c0.016-0.017,0.031-0.035,0.046-0.053	c0.016-0.018,0.031-0.037,0.046-0.056c0.016-0.02,0.031-0.04,0.046-0.06c0.016-0.022,0.031-0.044,0.046-0.066	c0.016-0.024,0.031-0.047,0.046-0.071c0.016-0.026,0.032-0.052,0.046-0.079c0.016-0.029,0.032-0.058,0.046-0.088	c0.016-0.033,0.032-0.067,0.046-0.101c0.017-0.039,0.032-0.079,0.046-0.12c0.017-0.05,0.033-0.101,0.046-0.153	c0.02-0.076,0.035-0.154,0.046-0.233c0.013-0.097,0.021-0.196,0.021-0.298c0-0.099-0.007-0.196-0.021-0.29	c-0.011-0.077-0.027-0.152-0.046-0.225c-0.013-0.05-0.029-0.099-0.046-0.147c-0.014-0.039-0.03-0.078-0.046-0.116	c-0.014-0.033-0.03-0.065-0.046-0.097c-0.015-0.029-0.03-0.057-0.046-0.085c-0.015-0.026-0.03-0.051-0.046-0.076	c-0.015-0.023-0.03-0.046-0.046-0.069c-0.015-0.021-0.03-0.043-0.046-0.063c-0.015-0.02-0.031-0.039-0.046-0.058	c-0.015-0.018-0.031-0.036-0.046-0.054c-0.015-0.017-0.031-0.034-0.046-0.051c-0.015-0.016-0.031-0.032-0.046-0.048	c-0.015-0.015-0.031-0.03-0.046-0.045c-0.015-0.014-0.031-0.028-0.046-0.042c-0.015-0.014-0.031-0.027-0.046-0.04	c-0.015-0.013-0.031-0.026-0.046-0.038c-0.015-0.012-0.031-0.024-0.046-0.036c-0.015-0.012-0.031-0.023-0.046-0.035	c-0.015-0.011-0.031-0.022-0.046-0.033c-0.015-0.011-0.031-0.021-0.046-0.031c-0.015-0.01-0.031-0.02-0.046-0.03	c-0.015-0.01-0.031-0.019-0.046-0.029c-0.015-0.009-0.031-0.018-0.046-0.028c-0.015-0.009-0.031-0.018-0.046-0.026	c-0.015-0.008-0.031-0.017-0.046-0.025c-0.015-0.008-0.031-0.016-0.046-0.024c-0.015-0.008-0.031-0.016-0.046-0.023	c-0.015-0.007-0.031-0.015-0.046-0.022c-0.015-0.007-0.031-0.014-0.046-0.021c-0.015-0.007-0.031-0.014-0.046-0.02	c-0.015-0.007-0.031-0.013-0.046-0.019c-0.015-0.006-0.031-0.013-0.046-0.019c-0.015-0.006-0.031-0.012-0.046-0.018	c-0.015-0.006-0.031-0.012-0.046-0.017c-0.015-0.006-0.031-0.011-0.046-0.016c-0.015-0.005-0.031-0.011-0.046-0.016	c-0.015-0.005-0.031-0.01-0.046-0.015c-0.015-0.005-0.031-0.01-0.046-0.014c-0.015-0.005-0.031-0.009-0.046-0.014l-0.046-0.013	c-0.015-0.004-0.031-0.009-0.046-0.013c-0.015-0.004-0.031-0.008-0.046-0.012c-0.015-0.004-0.031-0.008-0.046-0.011	c-0.015-0.004-0.031-0.007-0.046-0.011c-0.015-0.003-0.031-0.007-0.046-0.01c-0.015-0.003-0.031-0.006-0.046-0.01	c-0.015-0.003-0.031-0.006-0.046-0.009l-0.046-0.009l-0.046-0.008c-0.015-0.003-0.031-0.005-0.046-0.008l-0.046-0.007	c-0.015-0.002-0.031-0.004-0.046-0.006l-0.046-0.006l-0.046-0.006l-0.046-0.005l-0.046-0.005L38.95,23.91l-0.046-0.004l-0.043-0.003	l0-0.054l0.043-0.006l0.046-0.007c0.016-0.003,0.031-0.005,0.046-0.008l0.046-0.009c0.016-0.003,0.031-0.006,0.046-0.009l0.046-0.01	c0.016-0.003,0.031-0.007,0.046-0.01c0.016-0.004,0.031-0.007,0.046-0.011c0.016-0.004,0.031-0.008,0.046-0.012	c0.016-0.004,0.031-0.008,0.046-0.012c0.016-0.004,0.031-0.009,0.046-0.013c0.016-0.005,0.031-0.009,0.046-0.014	c0.016-0.005,0.031-0.01,0.046-0.015c0.016-0.005,0.031-0.01,0.046-0.016c0.016-0.005,0.031-0.011,0.046-0.016	c0.016-0.006,0.031-0.011,0.046-0.017c0.016-0.006,0.031-0.012,0.046-0.018c0.016-0.006,0.031-0.013,0.046-0.019	c0.016-0.007,0.031-0.013,0.046-0.02c0.016-0.007,0.031-0.014,0.046-0.021c0.016-0.007,0.031-0.015,0.046-0.022	c0.016-0.008,0.031-0.015,0.046-0.023c0.016-0.008,0.031-0.016,0.046-0.024c0.016-0.008,0.031-0.017,0.046-0.025	c0.016-0.009,0.031-0.018,0.046-0.027c0.016-0.009,0.031-0.019,0.046-0.028c0.016-0.01,0.031-0.02,0.046-0.03	c0.016-0.01,0.031-0.021,0.046-0.031c0.016-0.011,0.031-0.022,0.046-0.033c0.016-0.011,0.031-0.023,0.046-0.034	c0.016-0.012,0.031-0.024,0.046-0.036c0.016-0.013,0.031-0.025,0.046-0.038c0.016-0.013,0.031-0.027,0.046-0.041	c0.016-0.014,0.031-0.028,0.046-0.043c0.016-0.015,0.031-0.03,0.046-0.045c0.016-0.016,0.031-0.032,0.046-0.049	c0.016-0.017,0.031-0.034,0.046-0.052c0.016-0.018,0.031-0.037,0.046-0.056c0.016-0.02,0.031-0.04,0.046-0.06	c0.016-0.021,0.031-0.043,0.046-0.065c0.016-0.023,0.031-0.047,0.046-0.071c0.016-0.026,0.032-0.052,0.046-0.079	c0.016-0.029,0.032-0.059,0.046-0.089c0.016-0.034,0.032-0.068,0.046-0.102c0.017-0.04,0.032-0.081,0.046-0.122	c0.018-0.052,0.033-0.105,0.046-0.158c0.021-0.087,0.037-0.175,0.046-0.265c0.008-0.071,0.011-0.143,0.011-0.215	c0-0.077-0.004-0.151-0.011-0.224c-0.01-0.093-0.025-0.183-0.046-0.27c-0.013-0.054-0.029-0.107-0.046-0.159	c-0.014-0.041-0.03-0.082-0.046-0.122c-0.014-0.034-0.03-0.068-0.046-0.101c-0.015-0.03-0.03-0.059-0.046-0.087	c-0.015-0.026-0.03-0.052-0.046-0.077c-0.015-0.024-0.03-0.047-0.046-0.07c-0.015-0.021-0.03-0.042-0.046-0.063	c-0.015-0.02-0.03-0.039-0.046-0.058c-0.015-0.018-0.031-0.036-0.046-0.054c-0.015-0.017-0.031-0.033-0.046-0.05	c-0.015-0.016-0.031-0.031-0.046-0.047c-0.015-0.015-0.031-0.029-0.046-0.044c-0.015-0.014-0.031-0.028-0.046-0.041	c-0.015-0.013-0.031-0.026-0.046-0.039c-0.015-0.012-0.031-0.025-0.046-0.037c-0.015-0.012-0.031-0.023-0.046-0.035	c-0.015-0.011-0.031-0.022-0.046-0.033c-0.015-0.011-0.031-0.021-0.046-0.031c-0.015-0.01-0.031-0.02-0.046-0.03	c-0.015-0.01-0.031-0.019-0.046-0.028c-0.015-0.009-0.031-0.018-0.046-0.027c-0.015-0.009-0.031-0.017-0.046-0.026	c-0.015-0.008-0.031-0.017-0.046-0.025c-0.015-0.008-0.031-0.016-0.046-0.024c-0.015-0.008-0.031-0.015-0.046-0.022	c-0.015-0.007-0.031-0.014-0.046-0.021c-0.015-0.007-0.031-0.014-0.046-0.02c-0.015-0.007-0.031-0.013-0.046-0.019	c-0.015-0.006-0.031-0.012-0.046-0.019c-0.015-0.006-0.031-0.012-0.046-0.018c-0.015-0.006-0.031-0.011-0.046-0.017	c-0.015-0.005-0.031-0.011-0.046-0.016c-0.015-0.005-0.031-0.01-0.046-0.015c-0.015-0.005-0.031-0.01-0.046-0.015	c-0.015-0.005-0.031-0.009-0.046-0.014c-0.015-0.005-0.031-0.009-0.046-0.013c-0.015-0.004-0.031-0.008-0.046-0.012	c-0.015-0.004-0.031-0.008-0.046-0.012l-0.046-0.011c-0.015-0.004-0.031-0.007-0.046-0.011c-0.015-0.003-0.031-0.007-0.046-0.01	l-0.046-0.01c-0.015-0.003-0.031-0.006-0.046-0.009c-0.015-0.003-0.031-0.006-0.046-0.008l-0.046-0.008	c-0.015-0.003-0.031-0.005-0.046-0.007l-0.046-0.007l-0.046-0.006l-0.046-0.006l-0.046-0.005l-0.046-0.005l-0.046-0.004	l-0.046-0.004l-0.046-0.003l-0.046-0.003l-0.046-0.003l-0.018-0.001l-0.028-0.002l-0.046-0.003l-0.046-0.002l-0.046-0.002	l-0.046-0.002l-0.046-0.002l-0.046-0.002l-0.046-0.001l-0.046-0.001l-0.046-0.001l-0.026,0h-0.021h-0.046h-0.046h-0.046h-0.046	h-0.046h-0.046h-0.046h-0.046h-0.046H37.42h-0.046h-0.046H37.28h-0.046h-0.046h-0.046h-0.046h-0.046h-0.046h-0.046h-0.046h-0.046	h-0.046H36.77h-0.046h-0.046h-0.046h-0.046h-0.046h-0.046h-0.046h-0.046h-0.046h-0.046H36.26h-0.046h-0.046h-0.046h-0.046h-0.046	h-0.046h-0.046h-0.046h-0.046h-0.046H35.75h-0.046h-0.046h-0.046h-0.046h-0.046h-0.046h-0.046h-0.046h-0.046h-0.046H35.24h-0.046	h-0.046H35.1h-0.046h-0.046h-0.046h-0.046h-0.046h-0.046h-0.046h-0.046h-0.046h-0.046H34.59h-0.046h-0.046h-0.046h-0.046h-0.046	h-0.046h-0.046h-0.046h-0.046h-0.046H34.08h-0.046h-0.046h-0.046h-0.046h-0.046h-0.046h-0.046h-0.046h-0.046h-0.046H33.57h-0.046	h-0.046h-0.046h-0.046h-0.046h-0.046h-0.046h-0.046h-0.046h-0.046h-0.046h-0.046h-0.046H32.92h-0.046h-0.046h-0.046h-0.046h-0.046	h-0.046h-0.046h-0.046h-0.046h-0.046H32.41h-0.046h-0.046h-0.046h-0.046h-0.046h-0.046h-0.046h-0.046h-0.046h-0.046H31.9h-0.046	h-0.046h-0.046h-0.046h-0.046h-0.046h-0.046h-0.046h-0.046h-0.046H31.39h-0.046h-0.046h-0.046h-0.046h-0.1v-4.812	c0-0.324,0.035-0.64,0.1-0.945c0.014-0.065,0.03-0.13,0.046-0.194c0.014-0.055,0.03-0.11,0.046-0.164	c0.015-0.048,0.03-0.096,0.046-0.144c0.015-0.044,0.03-0.087,0.046-0.13c0.015-0.04,0.03-0.08,0.046-0.119	c0.015-0.037,0.03-0.073,0.046-0.11c0.015-0.034,0.03-0.068,0.046-0.102c0.015-0.032,0.031-0.064,0.046-0.096	c0.015-0.03,0.031-0.06,0.046-0.09c0.015-0.029,0.031-0.057,0.046-0.086c0.015-0.027,0.031-0.055,0.046-0.082	c0.015-0.026,0.031-0.052,0.046-0.078c0.015-0.025,0.031-0.05,0.046-0.075c0.015-0.024,0.031-0.048,0.046-0.072	c0.015-0.023,0.031-0.046,0.046-0.069c0.015-0.022,0.031-0.044,0.046-0.066c0.015-0.022,0.031-0.043,0.046-0.064	c0.015-0.021,0.031-0.041,0.046-0.061c0.015-0.02,0.031-0.04,0.046-0.06c0.015-0.019,0.031-0.039,0.046-0.058	c0.015-0.019,0.031-0.037,0.046-0.056c0.015-0.018,0.031-0.036,0.046-0.054c0.015-0.018,0.031-0.035,0.046-0.053	c0.015-0.017,0.031-0.034,0.046-0.051c0.015-0.017,0.031-0.033,0.046-0.05c0.015-0.016,0.031-0.032,0.046-0.048	c0.015-0.016,0.031-0.031,0.046-0.047c0.015-0.015,0.031-0.031,0.046-0.046c0.015-0.015,0.031-0.03,0.046-0.044	c0.015-0.015,0.031-0.029,0.046-0.044c0.015-0.014,0.031-0.028,0.046-0.042c0.015-0.014,0.031-0.028,0.046-0.041	c0.015-0.013,0.031-0.027,0.046-0.04c0.015-0.013,0.031-0.026,0.046-0.039c0.015-0.013,0.031-0.025,0.046-0.038	c0.015-0.012,0.031-0.025,0.046-0.037c0.015-0.012,0.031-0.024,0.046-0.036l0.046-0.035l0.046-0.034	c0.015-0.011,0.031-0.022,0.046-0.033c0.015-0.011,0.031-0.022,0.046-0.033l0.046-0.032c0.015-0.01,0.031-0.021,0.046-0.031	l0.046-0.03l0.046-0.029c0.015-0.01,0.031-0.019,0.046-0.029l0.046-0.028c0.015-0.009,0.031-0.018,0.046-0.028	c0.015-0.009,0.031-0.018,0.046-0.026c0.015-0.009,0.031-0.018,0.046-0.026c0.015-0.008,0.031-0.017,0.046-0.025	c0.015-0.008,0.031-0.017,0.046-0.025c0.015-0.008,0.031-0.016,0.046-0.024c0.015-0.008,0.031-0.016,0.046-0.024	c0.015-0.008,0.031-0.015,0.046-0.023c0.015-0.007,0.031-0.015,0.046-0.022l0.046-0.022c0.015-0.007,0.031-0.014,0.046-0.021	c0.015-0.007,0.031-0.014,0.046-0.021c0.015-0.007,0.031-0.013,0.046-0.02c0.015-0.007,0.031-0.013,0.046-0.02	c0.015-0.006,0.031-0.012,0.046-0.018c0.015-0.006,0.031-0.012,0.046-0.018l0.046-0.018l0.046-0.017	c0.015-0.006,0.031-0.011,0.046-0.017c0.015-0.005,0.031-0.01,0.046-0.016c0.015-0.005,0.031-0.011,0.046-0.016	c0.015-0.005,0.031-0.01,0.046-0.015l0.046-0.014c0.015-0.005,0.031-0.01,0.046-0.014c0.015-0.005,0.031-0.009,0.046-0.013	c0.015-0.004,0.031-0.009,0.046-0.013c0.015-0.004,0.031-0.008,0.046-0.012c0.015-0.004,0.031-0.008,0.046-0.012l0.046-0.012	c0.015-0.004,0.031-0.007,0.046-0.011c0.015-0.004,0.031-0.007,0.046-0.011c0.015-0.003,0.031-0.007,0.046-0.01l0.046-0.01	l0.046-0.009c0.015-0.003,0.031-0.006,0.046-0.009c0.015-0.003,0.031-0.006,0.046-0.009c0.015-0.003,0.031-0.005,0.046-0.008	l0.046-0.007c0.015-0.002,0.031-0.005,0.046-0.007c0.015-0.002,0.031-0.004,0.046-0.006c0.015-0.002,0.031-0.004,0.046-0.006	c0.015-0.002,0.031-0.004,0.046-0.005l0.046-0.005c0.015-0.002,0.031-0.003,0.046-0.005c0.015-0.001,0.031-0.003,0.046-0.004	l0.046-0.004l0.046-0.003c0.015-0.001,0.031-0.002,0.046-0.003c0.015-0.001,0.031-0.002,0.046-0.003	c0.015-0.001,0.031-0.001,0.046-0.002l0.046-0.002c0.015,0,0.031-0.001,0.046-0.001c0.015,0,0.031,0,0.046-0.001	s0.031,0,0.046-0.001l0.012,0h0.035h0.046h0.046h0.046h0.046h0.046h0.046h0.046h0.046h0.046h0.046h0.046h0.046h0.046h0.046h0.046	h0.046h0.046h0.046h0.046h0.046h0.046h0.046h0.046h0.046h0.046h0.046h0.046h0.046h0.046h0.046h0.046h0.046h0.046h0.046h0.046h0.046	h0.046h0.046h0.046h0.046h0.046h0.046h0.046h0.046h0.046h0.046h0.046h0.046h0.046h0.046h0.046h0.046h0.046h0.046h0.046h0.046h0.046	h0.046h0.046h0.046h0.046h0.046h0.046h0.046h0.046h0.046h0.046h0.046h0.046h0.046h0.046h0.046h0.046h0.046h0.046h0.046h0.046h0.046	H39.6h0.046h0.046h0.046h0.046h0.046h0.046h0.046h0.046h0.046h0.046h0.046h0.046h0.046h0.046h0.046h0.046h0.046h0.046h0.046h0.046	h0.046h0.046h0.046h0.046h0.046h0.046h0.046h0.046h0.046h0.046h0.046h0.046h0.046h0.046h0.046h0.046h0.046h0.046h0.046h0.046h0.046	h0.046h0.046h0.046h0.046h0.046h0.046h0.046h0.046h0.046h0.046h0.046h0.046h0.046h0.046h0.046h0.046h0.046h0.046h0.046h0.046h0.046	h0.046h0.046h0.046h0.046h0.046h0.046H42.8h0.046h0.046L42.939,10.1L42.939,10.1L42.939,10.1z" clip-rule="evenodd"/><linearGradient id="gb2qdh9~aijpj_OLkt0spc" x1="20.532" x2="4.027" y1="24" y2="24" gradientUnits="userSpaceOnUse"><stop offset=".01" stop-color="#0071d4"/><stop offset=".206" stop-color="#006fd2"/><stop offset=".304" stop-color="#0068ca"/><stop offset=".474" stop-color="#005dbd"/><stop offset=".645" stop-color="#004daa"/><stop offset=".799" stop-color="#003891"/><stop offset="1" stop-color="#002b82"/></linearGradient><path fill="url(#gb2qdh9~aijpj_OLkt0spc)" fill-rule="evenodd" d="M5.163,26.238c-0.033-0.015-0.067-0.031-0.1-0.046	V14.667c0-0.325,0.035-0.642,0.1-0.949c0.014-0.066,0.03-0.131,0.047-0.196c0.014-0.055,0.03-0.11,0.047-0.165	c0.015-0.049,0.03-0.097,0.047-0.145c0.015-0.044,0.03-0.088,0.047-0.131c0.015-0.04,0.03-0.08,0.047-0.12	c0.015-0.037,0.031-0.074,0.047-0.111c0.015-0.034,0.031-0.069,0.047-0.103c0.015-0.032,0.031-0.064,0.047-0.096	c0.015-0.031,0.031-0.061,0.047-0.091c0.015-0.029,0.031-0.058,0.047-0.086c0.015-0.028,0.031-0.055,0.047-0.082	c0.015-0.026,0.031-0.053,0.047-0.079c0.015-0.025,0.031-0.051,0.047-0.076c0.015-0.024,0.031-0.048,0.047-0.072	c0.015-0.023,0.031-0.046,0.047-0.069c0.015-0.022,0.031-0.045,0.047-0.067c0.015-0.022,0.031-0.043,0.047-0.065	c0.015-0.021,0.031-0.041,0.047-0.062c0.015-0.02,0.031-0.04,0.047-0.06c0.015-0.02,0.031-0.039,0.047-0.059	c0.015-0.019,0.031-0.037,0.047-0.056c0.015-0.018,0.031-0.037,0.047-0.055c0.015-0.018,0.031-0.036,0.047-0.053	c0.015-0.017,0.031-0.034,0.047-0.051c0.015-0.017,0.031-0.034,0.047-0.05c0.015-0.016,0.031-0.032,0.047-0.048	c0.015-0.016,0.031-0.032,0.047-0.047c0.015-0.015,0.031-0.031,0.047-0.046c0.015-0.015,0.031-0.03,0.047-0.044	c0.016-0.015,0.031-0.029,0.047-0.044c0.015-0.014,0.031-0.028,0.047-0.042c0.016-0.014,0.031-0.028,0.047-0.042	c0.015-0.013,0.031-0.027,0.047-0.04c0.016-0.013,0.031-0.026,0.047-0.039c0.015-0.013,0.031-0.025,0.047-0.038	c0.015-0.013,0.031-0.025,0.047-0.037c0.015-0.012,0.031-0.024,0.047-0.036c0.015-0.012,0.031-0.024,0.047-0.035	c0.015-0.012,0.031-0.023,0.047-0.034c0.015-0.011,0.031-0.023,0.047-0.034l0.047-0.033c0.015-0.011,0.031-0.022,0.047-0.032	c0.015-0.01,0.031-0.021,0.047-0.031c0.015-0.01,0.031-0.02,0.047-0.031c0.015-0.01,0.031-0.02,0.047-0.03	c0.015-0.01,0.031-0.02,0.047-0.029c0.015-0.009,0.031-0.019,0.047-0.028c0.016-0.009,0.031-0.019,0.047-0.028	c0.015-0.009,0.031-0.018,0.047-0.027c0.016-0.009,0.031-0.018,0.047-0.027c0.015-0.009,0.031-0.017,0.047-0.025	c0.016-0.008,0.031-0.017,0.047-0.025c0.015-0.008,0.031-0.016,0.047-0.024c0.016-0.008,0.031-0.016,0.047-0.024	c0.015-0.008,0.031-0.015,0.047-0.023l0.047-0.022c0.016-0.007,0.031-0.015,0.047-0.022c0.015-0.007,0.031-0.014,0.047-0.021	c0.016-0.007,0.031-0.014,0.047-0.021c0.015-0.007,0.031-0.013,0.047-0.02c0.016-0.007,0.031-0.013,0.047-0.02	c0.015-0.006,0.031-0.012,0.047-0.019L8.1,10.334l0.047-0.018l0.047-0.017c0.016-0.006,0.031-0.012,0.047-0.017	c0.015-0.005,0.031-0.011,0.047-0.016s0.031-0.011,0.047-0.016l0.047-0.015l0.047-0.015c0.016-0.005,0.031-0.01,0.047-0.014	c0.015-0.005,0.031-0.009,0.047-0.013c0.016-0.004,0.031-0.009,0.047-0.013c0.015-0.004,0.031-0.008,0.047-0.012l0.047-0.012	c0.016-0.004,0.031-0.008,0.047-0.012c0.015-0.004,0.031-0.007,0.047-0.011c0.016-0.004,0.031-0.007,0.047-0.011	c0.015-0.003,0.031-0.007,0.047-0.01l0.047-0.01c0.016-0.003,0.031-0.006,0.047-0.009c0.015-0.003,0.031-0.006,0.047-0.009	c0.016-0.003,0.031-0.006,0.047-0.009c0.016-0.003,0.031-0.005,0.047-0.008l0.047-0.007c0.016-0.002,0.031-0.005,0.047-0.007	c0.015-0.002,0.031-0.004,0.047-0.006c0.016-0.002,0.031-0.004,0.047-0.006l0.047-0.006l0.047-0.005	c0.016-0.002,0.031-0.004,0.047-0.005c0.015-0.002,0.031-0.003,0.047-0.004l0.047-0.004c0.016-0.001,0.031-0.003,0.047-0.004	c0.016-0.001,0.031-0.002,0.047-0.003c0.016-0.001,0.031-0.002,0.047-0.003c0.015-0.001,0.031-0.001,0.047-0.002l0.047-0.002	c0.016-0.001,0.031-0.001,0.047-0.002c0.015,0,0.031,0,0.047-0.001S9.857,10,9.872,10l0.021,0h0.026h0.047h0.047h0.047h0.047h0.047	h0.047h0.047h0.047h0.047h0.047h0.047h0.047h0.047h0.047h0.047h0.047h0.047h0.047h0.047h0.047h0.047h0.047h0.047h0.047h0.047h0.047	h0.047h0.047h0.047h0.047h0.047h0.047h0.047h0.047h0.047h0.047h0.047h0.047h0.047h0.047h0.047h0.047h0.047h0.047h0.047h0.047h0.047	h0.047h0.047h0.047h0.047h0.047h0.047h0.047h0.047h0.047h0.047h0.047h0.047h0.047h0.047h0.047h0.047h0.047h0.047h0.047h0.047h0.047	h0.047h0.047h0.047h0.047h0.047h0.047h0.047h0.047h0.047h0.047h0.047h0.047h0.047h0.047h0.047h0.047h0.047h0.047h0.047h0.047h0.047	h0.047h0.047h0.047h0.047h0.047h0.047h0.047h0.047h0.047h0.047h0.047h0.047h0.047h0.047h0.047h0.047h0.047h0.047h0.047h0.047h0.047	h0.047h0.047h0.047h0.047h0.047h0.047h0.047h0.047h0.047h0.047h0.047h0.047h0.047h0.047h0.047h0.047h0.047h0.047h0.047h0.047h0.047	h0.047h0.047h0.047h0.047h0.047h0.047h0.047h0.047h0.047h0.047h0.047h0.047h0.047h0.047h0.047h0.047h0.047h0.047h0.047h0.047H17	v23.333c0,0.203-0.014,0.403-0.04,0.599c-0.013,0.094-0.028,0.188-0.047,0.28c-0.014,0.07-0.029,0.14-0.047,0.21	c-0.014,0.058-0.03,0.116-0.047,0.174c-0.015,0.05-0.03,0.101-0.047,0.15c-0.015,0.045-0.03,0.09-0.047,0.134	c-0.015,0.041-0.031,0.082-0.047,0.123c-0.015,0.038-0.031,0.076-0.047,0.113c-0.015,0.035-0.031,0.07-0.047,0.105	c-0.015,0.033-0.031,0.066-0.047,0.098c-0.015,0.031-0.031,0.062-0.047,0.093c-0.015,0.029-0.031,0.059-0.047,0.088	c-0.015,0.028-0.031,0.056-0.047,0.084c-0.015,0.027-0.031,0.053-0.047,0.08c-0.015,0.026-0.031,0.051-0.047,0.076	c-0.015,0.024-0.031,0.049-0.047,0.073c-0.015,0.024-0.031,0.047-0.047,0.07c-0.015,0.023-0.031,0.045-0.047,0.068	c-0.015,0.022-0.031,0.043-0.047,0.065c-0.015,0.021-0.031,0.042-0.047,0.063c-0.015,0.02-0.031,0.041-0.047,0.061	c-0.015,0.02-0.031,0.039-0.047,0.059c-0.015,0.019-0.031,0.038-0.047,0.057c-0.015,0.019-0.031,0.037-0.047,0.055	c-0.015,0.018-0.031,0.036-0.047,0.053c-0.015,0.017-0.031,0.035-0.047,0.052c-0.015,0.017-0.031,0.034-0.047,0.051	c-0.015,0.016-0.031,0.032-0.047,0.049c-0.015,0.016-0.031,0.032-0.047,0.048c-0.015,0.015-0.031,0.031-0.047,0.046	c-0.015,0.015-0.031,0.03-0.047,0.045c-0.015,0.015-0.031,0.029-0.047,0.044c-0.015,0.014-0.031,0.028-0.047,0.043	c-0.015,0.014-0.031,0.028-0.047,0.042c-0.015,0.014-0.031,0.027-0.047,0.04c-0.016,0.013-0.031,0.027-0.047,0.04	c-0.015,0.013-0.031,0.025-0.047,0.038c-0.016,0.013-0.031,0.025-0.047,0.038c-0.015,0.012-0.031,0.024-0.047,0.036	c-0.016,0.012-0.031,0.024-0.047,0.036c-0.015,0.012-0.031,0.023-0.047,0.034c-0.016,0.011-0.031,0.023-0.047,0.034	c-0.015,0.011-0.031,0.022-0.047,0.033c-0.016,0.011-0.031,0.022-0.047,0.033c-0.015,0.011-0.031,0.021-0.047,0.031	c-0.016,0.01-0.031,0.021-0.047,0.031c-0.015,0.01-0.031,0.02-0.047,0.03c-0.016,0.01-0.031,0.02-0.047,0.03	c-0.015,0.01-0.031,0.019-0.047,0.028c-0.016,0.009-0.031,0.019-0.047,0.028c-0.015,0.009-0.031,0.018-0.047,0.027	c-0.016,0.009-0.031,0.018-0.047,0.027c-0.015,0.009-0.031,0.017-0.047,0.026c-0.015,0.008-0.031,0.017-0.047,0.025	c-0.015,0.008-0.031,0.016-0.047,0.024l-0.047,0.024c-0.016,0.008-0.031,0.016-0.047,0.023c-0.015,0.008-0.031,0.015-0.047,0.022	c-0.016,0.007-0.031,0.015-0.047,0.022c-0.015,0.007-0.031,0.014-0.047,0.021c-0.016,0.007-0.031,0.014-0.047,0.021	c-0.015,0.007-0.031,0.013-0.047,0.02l-0.047,0.02l-0.047,0.019c-0.015,0.006-0.031,0.012-0.047,0.018	c-0.016,0.006-0.031,0.012-0.047,0.018c-0.015,0.006-0.031,0.011-0.047,0.017s-0.031,0.012-0.047,0.017	c-0.015,0.006-0.031,0.011-0.047,0.016l-0.047,0.016l-0.047,0.015c-0.015,0.005-0.031,0.01-0.047,0.015	c-0.016,0.005-0.031,0.01-0.047,0.015c-0.015,0.005-0.031,0.009-0.047,0.013l-0.047,0.013l-0.047,0.013	c-0.015,0.004-0.031,0.008-0.047,0.012c-0.016,0.004-0.031,0.008-0.047,0.012c-0.015,0.004-0.031,0.007-0.047,0.011	c-0.016,0.004-0.031,0.007-0.047,0.011l-0.047,0.01l-0.047,0.01c-0.016,0.003-0.031,0.007-0.047,0.01	c-0.015,0.003-0.031,0.006-0.047,0.009c-0.016,0.003-0.031,0.006-0.047,0.009l-0.047,0.008c-0.015,0.003-0.031,0.005-0.047,0.007	c-0.016,0.002-0.031,0.005-0.047,0.007c-0.015,0.002-0.031,0.004-0.047,0.006l-0.047,0.006c-0.016,0.002-0.031,0.004-0.047,0.006	c-0.015,0.002-0.031,0.003-0.047,0.005c-0.016,0.002-0.031,0.004-0.047,0.005c-0.015,0.002-0.031,0.003-0.047,0.004l-0.047,0.004	c-0.016,0.001-0.031,0.003-0.047,0.004c-0.015,0.001-0.031,0.002-0.047,0.003l-0.047,0.003l-0.047,0.002	c-0.015,0.001-0.031,0.001-0.047,0.002c-0.016,0.001-0.031,0.001-0.047,0.002c-0.015,0-0.031,0.001-0.047,0.001l-0.047,0.001	C12.19,38,12.175,38,12.161,38h-0.003h-0.047h-0.047h-0.047h-0.047h-0.047h-0.047h-0.047h-0.047h-0.047h-0.047h-0.047h-0.047h-0.047	h-0.047h-0.047h-0.047h-0.047h-0.047h-0.047h-0.047h-0.047h-0.047h-0.047h-0.047h-0.047h-0.047h-0.047h-0.047h-0.047h-0.047h-0.047	h-0.047h-0.047h-0.047h-0.047h-0.047h-0.047h-0.047h-0.047h-0.047h-0.047h-0.047h-0.047h-0.047h-0.047h-0.047H9.966H9.919H9.872	H9.826H9.779H9.733H9.686H9.639H9.593H9.546H9.499H9.453H9.406H9.36H9.313H9.266H9.22H9.173H9.126H9.08H9.033H8.986H8.94H8.893	H8.847H8.8H8.753H8.707H8.66H8.613H8.567H8.52H8.474H8.427H8.38H8.334H8.287H8.24H8.194H8.147H8.1H8.054H8.007H7.961H7.914H7.867	H7.821H7.774H7.727H7.681H7.634H7.588H7.541H7.494H7.448H7.401H7.354H7.308H7.261H7.214H7.168H7.121H7.075H7.028H6.981H6.935H6.888	H6.841H6.795H6.748H6.702H6.655H6.608H6.562H6.515H6.468H6.422H6.375H6.328H6.282H6.235H6.189H6.142H6.095H6.049H6.002H5.955H5.909	H5.862H5.816H5.769H5.722H5.676H5.629H5.582H5.536H5.489H5.442H5.396H5.349H5.303H5.256H5.209H5.163h-0.1v-9.835	c0,0,0.034,0.009,0.1,0.025l0.047,0.011l0.047,0.011l0.047,0.011l0.047,0.011l0.047,0.01l0.047,0.01l0.047,0.01l0.047,0.01	l0.047,0.01l0.047,0.01l0.047,0.01l0.047,0.009l0.047,0.009l0.047,0.009l0.047,0.009l0.047,0.009l0.047,0.009l0.047,0.009	l0.047,0.009l0.047,0.009l0.047,0.008l0.047,0.008l0.047,0.008l0.047,0.008l0.047,0.008l0.047,0.008l0.047,0.008l0.047,0.008	l0.047,0.008l0.047,0.007l0.047,0.007l0.047,0.007l0.047,0.007l0.047,0.007L6.795,28.5l0.047,0.007l0.047,0.007l0.047,0.007	l0.047,0.007l0.047,0.006l0.047,0.006l0.047,0.006l0.047,0.006l0.047,0.006l0.047,0.006l0.047,0.006l0.047,0.006l0.047,0.006	l0.047,0.006l0.047,0.005l0.047,0.005l0.047,0.005l0.047,0.005l0.047,0.005l0.047,0.005l0.047,0.005l0.047,0.005l0.047,0.005	l0.047,0.005l0.047,0.005l0.047,0.004l0.047,0.004L8.1,28.656l0.047,0.004l0.047,0.004l0.047,0.004l0.047,0.004l0.047,0.004	L8.38,28.68l0.047,0.004l0.047,0.003L8.52,28.69l0.047,0.003l0.047,0.003L8.66,28.7l0.047,0.003l0.047,0.003L8.8,28.708l0.047,0.003	l0.047,0.003l0.047,0.002l0.047,0.002l0.047,0.002l0.047,0.002l0.047,0.002l0.047,0.002l0.047,0.002l0.047,0.002l0.047,0.002	l0.047,0.002l0.047,0.001l0.047,0.001l0.047,0.001l0.047,0.001l0.047,0.001l0.047,0.001l0.047,0.001l0.047,0.001l0.047,0.001	l0.047,0l0.047,0l0.047,0l0.047,0l0.047,0l0.018,0l0.029,0l0.047,0l0.047,0l0.047,0l0.047,0l0.047-0.001l0.047-0.001l0.047-0.001	l0.047-0.001l0.047-0.001l0.047-0.001l0.047-0.001l0.047-0.001l0.047-0.001l0.047-0.002l0.047-0.002l0.047-0.002l0.047-0.002	l0.047-0.003l0.047-0.003l0.047-0.003l0.047-0.003l0.047-0.003l0.047-0.003l0.047-0.003l0.047-0.003l0.047-0.004l0.047-0.004	l0.047-0.004l0.047-0.004l0.047-0.004l0.047-0.005l0.047-0.005l0.047-0.005l0.047-0.005l0.047-0.005l0.047-0.005l0.047-0.005	l0.047-0.006l0.047-0.006l0.047-0.006l0.047-0.006c0.016-0.002,0.031-0.005,0.047-0.007l0.047-0.007l0.047-0.007l0.047-0.007	c0.016-0.002,0.031-0.005,0.047-0.008l0.047-0.008c0.015-0.003,0.031-0.005,0.047-0.008c0.016-0.003,0.031-0.006,0.047-0.008	l0.047-0.008l0.047-0.008l0.047-0.009c0.016-0.003,0.031-0.006,0.047-0.009l0.047-0.009l0.047-0.009	c0.016-0.003,0.031-0.007,0.047-0.01l0.047-0.01c0.015-0.003,0.031-0.007,0.047-0.01c0.016-0.004,0.031-0.007,0.047-0.011	l0.047-0.011c0.015-0.004,0.031-0.007,0.047-0.011c0.016-0.004,0.031-0.008,0.047-0.012l0.047-0.012	c0.016-0.004,0.031-0.008,0.047-0.012c0.016-0.004,0.031-0.008,0.047-0.013l0.047-0.013c0.016-0.004,0.031-0.009,0.047-0.013	l0.047-0.014l0.047-0.014c0.015-0.005,0.031-0.009,0.047-0.014l0.047-0.015l0.047-0.015c0.015-0.005,0.031-0.01,0.047-0.015	c0.016-0.005,0.031-0.011,0.047-0.016l0.047-0.016c0.016-0.006,0.031-0.011,0.047-0.017c0.016-0.006,0.031-0.012,0.047-0.018	c0.016-0.006,0.031-0.012,0.047-0.018l0.047-0.018l0.047-0.019c0.015-0.006,0.031-0.012,0.047-0.019	c0.016-0.007,0.031-0.014,0.047-0.02l0.047-0.02l0.047-0.021c0.016-0.007,0.031-0.014,0.047-0.022	c0.016-0.007,0.031-0.014,0.047-0.022c0.016-0.008,0.031-0.015,0.047-0.023s0.031-0.015,0.047-0.023	c0.016-0.008,0.031-0.016,0.047-0.024c0.016-0.008,0.031-0.016,0.047-0.025c0.016-0.008,0.031-0.017,0.047-0.025	c0.016-0.009,0.031-0.018,0.047-0.026c0.016-0.009,0.031-0.018,0.047-0.027c0.016-0.009,0.031-0.019,0.047-0.028	c0.016-0.009,0.031-0.019,0.047-0.028c0.016-0.01,0.031-0.02,0.047-0.03c0.016-0.01,0.031-0.02,0.047-0.03	c0.016-0.011,0.031-0.021,0.047-0.032c0.016-0.011,0.031-0.022,0.047-0.032c0.016-0.011,0.031-0.023,0.047-0.034	c0.016-0.012,0.031-0.023,0.047-0.035c0.016-0.012,0.031-0.024,0.047-0.036c0.016-0.012,0.031-0.025,0.047-0.038	c0.016-0.013,0.031-0.026,0.047-0.039c0.016-0.013,0.031-0.027,0.047-0.041c0.016-0.014,0.031-0.028,0.047-0.042	c0.016-0.015,0.031-0.029,0.047-0.044c0.016-0.015,0.031-0.03,0.047-0.046c0.016-0.016,0.031-0.031,0.047-0.047	c0.016-0.017,0.031-0.033,0.047-0.05c0.016-0.017,0.031-0.035,0.047-0.052c0.016-0.018,0.031-0.036,0.047-0.054	c0.016-0.019,0.031-0.038,0.047-0.057c0.016-0.02,0.031-0.04,0.047-0.061c0.016-0.021,0.031-0.042,0.047-0.064	c0.016-0.022,0.031-0.045,0.047-0.067c0.016-0.024,0.031-0.048,0.047-0.072c0.016-0.025,0.032-0.051,0.047-0.077	c0.016-0.027,0.032-0.055,0.047-0.083c0.016-0.03,0.032-0.06,0.047-0.09c0.016-0.032,0.032-0.065,0.047-0.098	c0.016-0.036,0.032-0.072,0.047-0.108c0.016-0.04,0.032-0.08,0.047-0.121c0.017-0.046,0.032-0.093,0.047-0.14	c0.017-0.055,0.032-0.111,0.047-0.167c0.018-0.07,0.033-0.14,0.047-0.211c0.02-0.106,0.035-0.214,0.047-0.323	c0.016-0.152,0.023-0.307,0.023-0.464v-5.415h-0.023h-0.047h-0.047h-0.047h-0.047h-0.047h-0.047h-0.047h-0.047h-0.047h-0.047h-0.047	h-0.047h-0.047h-0.047h-0.047h-0.047h-0.047h-0.047h-0.047h-0.047h-0.047h-0.047h-0.047h-0.047h-0.047h-0.047h-0.047h-0.047h-0.047	h-0.047h-0.047h-0.047h-0.047h-0.047h-0.047h-0.047h-0.047h-0.047h-0.047h-0.047h-0.047h-0.047h-0.047h-0.047h-0.047h-0.047h-0.047	h-0.047h-0.047H13.65h-0.047h-0.047H13.51h-0.047h-0.047H13.37h-0.047h-0.047H13.23h-0.047h-0.047H13.09h-0.047h-0.047H12.95h-0.047	h-0.047H12.81h-0.047h-0.047H12.67h-0.047h-0.047H12.53h-0.047h-0.047h-0.047h-0.047h-0.047h-0.047h-0.047h-0.047h-0.047h-0.047	h-0.047h-0.047h-0.047h-0.047h-0.035v5.415c0,0.085-0.004,0.168-0.011,0.25c-0.01,0.104-0.025,0.206-0.047,0.305	c-0.013,0.061-0.029,0.121-0.047,0.18c-0.014,0.047-0.03,0.093-0.047,0.138c-0.014,0.039-0.03,0.076-0.047,0.114	c-0.015,0.033-0.03,0.066-0.047,0.099c-0.015,0.029-0.03,0.059-0.047,0.087c-0.015,0.026-0.031,0.052-0.047,0.078	c-0.015,0.024-0.031,0.048-0.047,0.071c-0.015,0.022-0.031,0.044-0.047,0.065c-0.015,0.02-0.031,0.041-0.047,0.06	c-0.015,0.019-0.031,0.037-0.047,0.056c-0.015,0.018-0.031,0.035-0.047,0.052c-0.015,0.016-0.031,0.033-0.047,0.049	c-0.015,0.015-0.031,0.031-0.047,0.046c-0.015,0.014-0.031,0.029-0.047,0.043c-0.015,0.014-0.031,0.027-0.047,0.04	c-0.015,0.013-0.031,0.025-0.047,0.038c-0.015,0.012-0.031,0.024-0.047,0.036c-0.015,0.011-0.031,0.023-0.047,0.034	c-0.015,0.011-0.031,0.022-0.047,0.032c-0.015,0.01-0.031,0.02-0.047,0.03c-0.015,0.01-0.031,0.019-0.047,0.029	c-0.015,0.009-0.031,0.018-0.047,0.027c-0.015,0.009-0.031,0.017-0.047,0.026c-0.015,0.008-0.031,0.016-0.047,0.024	c-0.015,0.008-0.031,0.015-0.047,0.023c-0.015,0.007-0.031,0.015-0.047,0.022c-0.015,0.007-0.031,0.014-0.047,0.021	c-0.015,0.007-0.031,0.013-0.047,0.02c-0.015,0.006-0.031,0.012-0.047,0.018c-0.015,0.006-0.031,0.012-0.047,0.017	c-0.015,0.006-0.031,0.011-0.047,0.016c-0.015,0.005-0.031,0.011-0.047,0.016c-0.015,0.005-0.031,0.01-0.047,0.015	c-0.015,0.005-0.031,0.009-0.047,0.014c-0.015,0.004-0.031,0.009-0.047,0.013c-0.015,0.004-0.031,0.008-0.047,0.012	c-0.015,0.004-0.031,0.008-0.047,0.011c-0.015,0.004-0.031,0.007-0.047,0.01c-0.015,0.003-0.031,0.007-0.047,0.01	c-0.015,0.003-0.031,0.006-0.047,0.009c-0.015,0.003-0.031,0.005-0.047,0.008c-0.015,0.003-0.031,0.005-0.047,0.008l-0.047,0.007	c-0.015,0.002-0.031,0.004-0.047,0.006c-0.015,0.002-0.031,0.004-0.047,0.006L9.639,27.22c-0.015,0.002-0.031,0.003-0.047,0.004	c-0.016,0.001-0.031,0.003-0.047,0.004c-0.015,0.001-0.031,0.002-0.047,0.003c-0.015,0.001-0.031,0.002-0.047,0.003	c-0.016,0.001-0.031,0.002-0.047,0.002c-0.015,0.001-0.031,0.001-0.047,0.001l-0.047,0.001c-0.015,0-0.031,0-0.047,0l-0.018,0	l-0.029,0l-0.047,0l-0.047-0.001L9.08,27.237l-0.047-0.001l-0.047-0.001L8.94,27.233l-0.047-0.002l-0.047-0.002L8.8,27.226	l-0.047-0.003L8.707,27.22L8.66,27.216l-0.047-0.004l-0.047-0.004L8.52,27.204l-0.047-0.005l-0.047-0.005L8.38,27.189l-0.047-0.005	l-0.047-0.006L8.24,27.172l-0.047-0.006L8.147,27.16L8.1,27.153l-0.047-0.007l-0.047-0.007l-0.047-0.008l-0.047-0.008l-0.047-0.008	l-0.047-0.008l-0.047-0.009l-0.047-0.009L7.681,27.08l-0.047-0.009l-0.047-0.01l-0.047-0.01l-0.047-0.01l-0.047-0.01L7.401,27.02	l-0.047-0.011l-0.047-0.011l-0.047-0.011l-0.047-0.012l-0.047-0.012l-0.047-0.012l-0.047-0.012l-0.047-0.013l-0.047-0.013	L6.935,26.9l-0.047-0.013l-0.047-0.014L6.795,26.86l-0.047-0.014l-0.047-0.014l-0.047-0.014l-0.047-0.015l-0.047-0.015l-0.047-0.015	l-0.047-0.015l-0.047-0.016l-0.047-0.016l-0.047-0.016l-0.047-0.016l-0.047-0.017L6.189,26.66l-0.047-0.017l-0.047-0.017	l-0.047-0.017l-0.047-0.018l-0.047-0.018l-0.047-0.018l-0.047-0.018l-0.047-0.018l-0.047-0.019l-0.047-0.019l-0.047-0.019	l-0.047-0.019l-0.047-0.019l-0.047-0.02l-0.047-0.02l-0.047-0.02l-0.047-0.02l-0.047-0.02l-0.047-0.021l-0.047-0.021L5.209,26.26	L5.163,26.238L5.163,26.238L5.163,26.238z" clip-rule="evenodd"/><linearGradient id="gb2qdh9~aijpj_OLkt0spd" x1="30.234" x2="18.999" y1="24" y2="24" gradientUnits="userSpaceOnUse"><stop offset="0" stop-color="#f44f5a"/><stop offset=".443" stop-color="#ee3d4a"/><stop offset="1" stop-color="#e52030"/></linearGradient><path fill="url(#gb2qdh9~aijpj_OLkt0spd)" fill-rule="evenodd" d="M18.121,20.696c-0.034,0.027-0.068,0.053-0.1,0.08v-6.11	c0-0.325,0.035-0.642,0.1-0.948c0.014-0.066,0.03-0.131,0.047-0.196c0.015-0.056,0.03-0.111,0.047-0.165	c0.015-0.049,0.03-0.097,0.047-0.145c0.015-0.044,0.03-0.088,0.047-0.131c0.015-0.04,0.031-0.08,0.047-0.12	c0.015-0.037,0.031-0.074,0.047-0.11c0.015-0.034,0.031-0.069,0.047-0.103c0.015-0.032,0.031-0.065,0.047-0.096	c0.015-0.031,0.031-0.061,0.047-0.091c0.015-0.029,0.031-0.058,0.047-0.086c0.015-0.028,0.031-0.055,0.047-0.082	c0.015-0.026,0.031-0.053,0.047-0.079c0.015-0.025,0.031-0.051,0.047-0.076c0.015-0.024,0.031-0.048,0.047-0.072	c0.015-0.023,0.031-0.046,0.047-0.069c0.015-0.022,0.031-0.045,0.047-0.067c0.015-0.022,0.031-0.043,0.047-0.065	c0.015-0.021,0.031-0.041,0.047-0.062c0.015-0.02,0.031-0.04,0.047-0.06c0.015-0.02,0.031-0.039,0.047-0.059	c0.015-0.019,0.031-0.037,0.047-0.056c0.015-0.018,0.031-0.037,0.047-0.055c0.015-0.018,0.031-0.036,0.047-0.053	c0.015-0.017,0.031-0.034,0.047-0.051c0.015-0.017,0.031-0.034,0.047-0.05c0.015-0.016,0.031-0.032,0.047-0.048	c0.015-0.016,0.031-0.032,0.047-0.047c0.016-0.015,0.031-0.031,0.047-0.046c0.015-0.015,0.031-0.03,0.047-0.044	c0.016-0.015,0.031-0.029,0.047-0.044c0.015-0.014,0.031-0.028,0.047-0.042c0.016-0.014,0.031-0.028,0.047-0.042	c0.015-0.013,0.031-0.027,0.047-0.04c0.016-0.013,0.031-0.026,0.047-0.039c0.015-0.013,0.031-0.025,0.047-0.038	c0.016-0.013,0.031-0.025,0.047-0.037c0.015-0.012,0.031-0.024,0.047-0.036c0.016-0.012,0.031-0.024,0.047-0.035	c0.015-0.012,0.031-0.023,0.047-0.034c0.016-0.011,0.031-0.023,0.047-0.034c0.015-0.011,0.031-0.022,0.047-0.033	c0.016-0.011,0.031-0.022,0.047-0.032c0.016-0.01,0.031-0.021,0.047-0.031c0.016-0.01,0.031-0.02,0.047-0.031	c0.015-0.01,0.031-0.02,0.047-0.03c0.016-0.01,0.031-0.02,0.047-0.029c0.016-0.009,0.031-0.019,0.047-0.028	c0.016-0.009,0.031-0.019,0.047-0.028c0.015-0.009,0.031-0.018,0.047-0.027c0.016-0.009,0.031-0.018,0.047-0.027	c0.015-0.009,0.031-0.017,0.047-0.025c0.016-0.008,0.031-0.017,0.047-0.025c0.015-0.008,0.031-0.016,0.047-0.024	c0.016-0.008,0.031-0.016,0.047-0.024l0.047-0.023l0.047-0.022c0.016-0.007,0.031-0.015,0.047-0.022	c0.016-0.007,0.031-0.014,0.047-0.021c0.016-0.007,0.031-0.014,0.047-0.021c0.015-0.007,0.031-0.013,0.047-0.02	c0.016-0.007,0.031-0.013,0.047-0.02c0.016-0.006,0.031-0.013,0.047-0.019l0.047-0.018c0.016-0.006,0.031-0.012,0.047-0.018	c0.016-0.006,0.031-0.011,0.047-0.017s0.031-0.012,0.047-0.017c0.015-0.005,0.031-0.011,0.047-0.016	c0.016-0.005,0.031-0.011,0.047-0.016c0.016-0.005,0.031-0.01,0.047-0.015l0.047-0.015c0.016-0.005,0.031-0.01,0.047-0.014	c0.015-0.005,0.031-0.009,0.047-0.013c0.016-0.004,0.031-0.009,0.047-0.013c0.016-0.004,0.031-0.008,0.047-0.012l0.047-0.012	c0.016-0.004,0.031-0.008,0.047-0.012c0.016-0.004,0.031-0.007,0.047-0.011c0.016-0.004,0.031-0.007,0.047-0.011	c0.016-0.003,0.031-0.007,0.047-0.01l0.047-0.01c0.016-0.003,0.031-0.006,0.047-0.009c0.016-0.003,0.031-0.006,0.047-0.009	c0.016-0.003,0.031-0.006,0.047-0.009l0.047-0.008l0.047-0.007c0.016-0.002,0.031-0.005,0.047-0.007	c0.016-0.002,0.031-0.004,0.047-0.006c0.016-0.002,0.031-0.004,0.047-0.006l0.047-0.006l0.047-0.005	c0.016-0.002,0.031-0.004,0.047-0.005c0.016-0.002,0.031-0.003,0.047-0.004l0.047-0.004c0.016-0.001,0.031-0.003,0.047-0.004	c0.016-0.001,0.031-0.002,0.047-0.003c0.016-0.001,0.031-0.002,0.047-0.003c0.016-0.001,0.031-0.001,0.047-0.002l0.047-0.002	c0.016-0.001,0.031-0.001,0.047-0.002c0.016,0,0.031,0,0.047-0.001c0.016,0,0.031,0,0.047-0.001l0.021,0h0.026h0.047h0.047h0.047	h0.047h0.047h0.047h0.047h0.047h0.047h0.047H23.4h0.047h0.047h0.047h0.047h0.047h0.047h0.047h0.047h0.047h0.047h0.047h0.047h0.047	h0.047H24.1h0.047h0.047h0.047h0.047h0.047h0.047h0.047h0.047h0.047h0.047h0.047h0.047h0.047h0.047h0.047h0.047h0.047h0.047h0.047	h0.047h0.047h0.047h0.047h0.047h0.047h0.047h0.047h0.047h0.047h0.047h0.047h0.047h0.047h0.047h0.047h0.047h0.047h0.047h0.047h0.047	h0.047h0.047h0.047h0.047h0.047h0.047h0.047h0.047h0.047h0.047h0.047h0.047h0.047h0.047h0.047h0.047h0.047h0.047h0.047h0.047h0.047	h0.047h0.047h0.047h0.047h0.047h0.047h0.047h0.047h0.047h0.047h0.047h0.047h0.047h0.047h0.047h0.047h0.047h0.047h0.047h0.047h0.047	h0.047h0.047h0.047h0.047h0.047h0.047h0.047h0.047h0.047h0.047h0.047h0.047h0.047h0.047h0.047h0.047h0.047h0.047h0.047h0.047h0.047	h0.047h0.047h0.047h0.047h0.047h0.047h0.047h0.047h0.047h0.047h0.047h0.047h0.047h0.047h0.047h0.047h0.047h0.047h0.047h0.047h0.047	h0.047h0.04v23.333c0,0.203-0.013,0.403-0.04,0.599c-0.013,0.094-0.028,0.188-0.047,0.28c-0.014,0.07-0.03,0.14-0.047,0.21	c-0.015,0.058-0.03,0.116-0.047,0.174c-0.015,0.05-0.03,0.1-0.047,0.15c-0.015,0.045-0.03,0.09-0.047,0.134	c-0.015,0.041-0.031,0.082-0.047,0.123c-0.015,0.038-0.031,0.075-0.047,0.113c-0.015,0.035-0.031,0.07-0.047,0.105	c-0.015,0.033-0.031,0.066-0.047,0.098c-0.015,0.031-0.031,0.062-0.047,0.093c-0.015,0.029-0.031,0.059-0.047,0.088	c-0.015,0.028-0.031,0.056-0.047,0.084c-0.015,0.027-0.031,0.053-0.047,0.08c-0.015,0.025-0.031,0.051-0.047,0.076	c-0.015,0.024-0.031,0.049-0.047,0.073c-0.015,0.024-0.031,0.047-0.047,0.07c-0.015,0.023-0.031,0.046-0.047,0.068	c-0.015,0.022-0.031,0.043-0.047,0.065c-0.015,0.021-0.031,0.042-0.047,0.063c-0.015,0.02-0.031,0.041-0.047,0.061	c-0.015,0.02-0.031,0.039-0.047,0.059c-0.015,0.019-0.031,0.038-0.047,0.057c-0.015,0.019-0.031,0.037-0.047,0.055	c-0.015,0.018-0.031,0.036-0.047,0.053c-0.015,0.017-0.031,0.035-0.047,0.052c-0.016,0.017-0.031,0.034-0.047,0.051	c-0.015,0.016-0.031,0.032-0.047,0.049c-0.016,0.016-0.031,0.032-0.047,0.048c-0.015,0.015-0.031,0.031-0.047,0.046	c-0.015,0.015-0.031,0.03-0.047,0.045c-0.015,0.015-0.031,0.029-0.047,0.044c-0.015,0.014-0.031,0.028-0.047,0.043	c-0.016,0.014-0.031,0.028-0.047,0.042c-0.015,0.014-0.031,0.027-0.047,0.04c-0.016,0.013-0.031,0.027-0.047,0.04	c-0.015,0.013-0.031,0.025-0.047,0.038c-0.016,0.013-0.031,0.025-0.047,0.038c-0.015,0.012-0.031,0.024-0.047,0.036	c-0.016,0.012-0.031,0.024-0.047,0.036c-0.015,0.012-0.031,0.023-0.047,0.034c-0.016,0.011-0.031,0.023-0.047,0.034	c-0.015,0.011-0.031,0.022-0.047,0.033c-0.016,0.011-0.031,0.022-0.047,0.033c-0.015,0.011-0.031,0.021-0.047,0.031	c-0.016,0.01-0.031,0.021-0.047,0.031c-0.015,0.01-0.031,0.02-0.047,0.03c-0.016,0.01-0.031,0.02-0.047,0.03	c-0.015,0.01-0.031,0.019-0.047,0.028c-0.016,0.009-0.031,0.019-0.047,0.028c-0.015,0.009-0.031,0.018-0.047,0.027	c-0.016,0.009-0.031,0.018-0.047,0.027c-0.016,0.009-0.031,0.017-0.047,0.026l-0.047,0.025l-0.047,0.024l-0.047,0.024	c-0.016,0.008-0.031,0.016-0.047,0.023c-0.016,0.008-0.031,0.015-0.047,0.022c-0.016,0.007-0.031,0.015-0.047,0.022	c-0.015,0.007-0.031,0.014-0.047,0.021c-0.016,0.007-0.031,0.014-0.047,0.021c-0.016,0.007-0.031,0.013-0.047,0.02l-0.047,0.02	l-0.047,0.019L26.95,37.66c-0.016,0.006-0.031,0.012-0.047,0.018c-0.015,0.006-0.031,0.011-0.047,0.017	c-0.016,0.006-0.031,0.012-0.047,0.017c-0.016,0.006-0.031,0.011-0.047,0.016l-0.047,0.016L26.67,37.76	c-0.016,0.005-0.031,0.01-0.047,0.015s-0.031,0.01-0.047,0.015c-0.015,0.005-0.031,0.009-0.047,0.013l-0.047,0.013l-0.047,0.013	c-0.016,0.004-0.031,0.008-0.047,0.012c-0.016,0.004-0.031,0.008-0.047,0.012c-0.016,0.004-0.031,0.007-0.047,0.011	c-0.016,0.004-0.031,0.007-0.047,0.011l-0.047,0.01l-0.047,0.01c-0.016,0.003-0.031,0.007-0.047,0.01	c-0.016,0.003-0.031,0.006-0.047,0.009l-0.047,0.009l-0.047,0.008c-0.016,0.003-0.031,0.005-0.047,0.007	c-0.016,0.002-0.031,0.005-0.047,0.007c-0.016,0.002-0.031,0.004-0.047,0.006l-0.047,0.006c-0.016,0.002-0.031,0.004-0.047,0.006	c-0.016,0.002-0.031,0.003-0.047,0.005c-0.016,0.002-0.031,0.004-0.047,0.005c-0.016,0.002-0.031,0.003-0.047,0.004l-0.047,0.004	c-0.016,0.001-0.031,0.003-0.047,0.004c-0.016,0.001-0.031,0.002-0.047,0.003l-0.047,0.003l-0.047,0.002	c-0.016,0.001-0.031,0.001-0.047,0.002c-0.016,0.001-0.031,0.001-0.047,0.002c-0.016,0-0.031,0.001-0.047,0.001l-0.047,0.001	C25.16,38,25.146,38,25.131,38h-0.003h-0.047h-0.047h-0.047h-0.047h-0.047h-0.047h-0.047h-0.047h-0.047h-0.047h-0.047h-0.047h-0.047	h-0.047h-0.047h-0.047h-0.047h-0.047h-0.047h-0.047h-0.047H24.1h-0.047h-0.047H23.96h-0.047h-0.047H23.82h-0.047h-0.047H23.68	h-0.047h-0.047H23.54h-0.047h-0.047H23.4h-0.047h-0.047H23.26h-0.047h-0.047h-0.047h-0.047h-0.047h-0.047h-0.047h-0.047h-0.047	h-0.047h-0.047h-0.047h-0.047h-0.047h-0.047h-0.047h-0.047h-0.047h-0.047h-0.047h-0.047h-0.047h-0.047h-0.047h-0.047h-0.047h-0.047	h-0.047h-0.047h-0.047h-0.047h-0.047h-0.047h-0.047h-0.047h-0.047h-0.047h-0.047h-0.047h-0.047h-0.047h-0.047h-0.047h-0.047h-0.047	h-0.047h-0.047h-0.047h-0.047h-0.047h-0.047H20.83h-0.047h-0.047H20.69h-0.047h-0.047H20.55h-0.047h-0.047H20.41h-0.047h-0.047	H20.27h-0.047h-0.047H20.13h-0.047h-0.047H19.99h-0.047h-0.047h-0.047h-0.047h-0.047h-0.047h-0.047h-0.047h-0.047h-0.047h-0.047	h-0.047h-0.047h-0.047h-0.047h-0.047h-0.047h-0.047h-0.047h-0.047h-0.047h-0.047h-0.047h-0.047h-0.047h-0.047h-0.047h-0.047h-0.047	h-0.047h-0.047h-0.047h-0.047h-0.047h-0.047h-0.047h-0.047h-0.047h-0.047h-0.047h-0.1V27.225c0.033,0.027,0.066,0.054,0.1,0.08	c0.015,0.012,0.031,0.024,0.047,0.036c0.015,0.012,0.031,0.023,0.047,0.035c0.016,0.011,0.031,0.023,0.047,0.034	c0.015,0.011,0.031,0.022,0.047,0.033c0.015,0.011,0.031,0.022,0.047,0.032c0.015,0.011,0.031,0.021,0.047,0.032l0.047,0.031	c0.015,0.01,0.031,0.02,0.047,0.03l0.047,0.029c0.015,0.01,0.031,0.019,0.047,0.029c0.015,0.009,0.031,0.019,0.047,0.028	l0.047,0.027c0.016,0.009,0.031,0.018,0.047,0.027c0.015,0.009,0.031,0.017,0.047,0.026l0.047,0.026l0.047,0.025l0.047,0.024	c0.016,0.008,0.031,0.016,0.047,0.024c0.015,0.008,0.031,0.015,0.047,0.023l0.047,0.023l0.047,0.022l0.047,0.022	c0.016,0.007,0.031,0.014,0.047,0.022l0.047,0.021l0.047,0.021l0.047,0.02l0.047,0.02l0.047,0.019l0.047,0.019l0.047,0.018	l0.047,0.018l0.047,0.018l0.047,0.017c0.016,0.006,0.031,0.011,0.047,0.017l0.047,0.016c0.016,0.005,0.031,0.011,0.047,0.016	c0.015,0.005,0.031,0.01,0.047,0.016l0.047,0.016l0.047,0.015c0.016,0.005,0.031,0.01,0.047,0.015	c0.015,0.005,0.031,0.01,0.047,0.014l0.047,0.014l0.047,0.014l0.047,0.014l0.047,0.013l0.047,0.013l0.047,0.013l0.047,0.013	l0.047,0.012l0.047,0.012l0.047,0.012l0.047,0.011l0.047,0.011l0.047,0.011l0.047,0.011l0.047,0.01l0.047,0.01l0.047,0.01	l0.047,0.01l0.047,0.01l0.047,0.009l0.047,0.009l0.047,0.009l0.047,0.009l0.047,0.009l0.047,0.008l0.047,0.008l0.047,0.008	l0.047,0.008l0.047,0.008l0.047,0.007l0.047,0.007l0.047,0.007l0.047,0.007l0.047,0.007l0.047,0.006l0.047,0.006l0.047,0.006	l0.047,0.006l0.047,0.006l0.047,0.005l0.047,0.006l0.047,0.005l0.047,0.005l0.047,0.005l0.047,0.005l0.047,0.005l0.047,0.004	l0.047,0.004l0.047,0.004l0.047,0.004l0.047,0.004l0.047,0.004l0.047,0.003l0.047,0.003l0.047,0.003l0.047,0.003l0.047,0.003	l0.047,0.003l0.047,0.003l0.047,0.003l0.047,0.003l0.047,0.002l0.047,0.002l0.047,0.002l0.047,0.002l0.047,0.002l0.047,0.002	l0.047,0.001l0.047,0.001l0.047,0.001l0.047,0.001L23.4,28.74l0.047,0.001l0.047,0.001l0.047,0.001l0.047,0.001l0.047,0l0.047,0	l0.047,0l0.047,0l0.047,0l0.047,0l0.047,0l0.047,0l0.047,0l0.047,0l0.047-0.001l0.047-0.001l0.047-0.001l0.047-0.001l0.047-0.001	l0.047-0.001l0.047-0.001l0.047-0.001l0.047-0.001l0.047-0.001l0.047-0.002l0.047-0.002l0.047-0.002l0.047-0.002l0.047-0.002	l0.047-0.002l0.023-0.001l0.024-0.001l0.047-0.002l0.047-0.002l0.047-0.002l0.047-0.003l0.047-0.003l0.047-0.003l0.047-0.003	l0.047-0.003l0.047-0.003l0.047-0.004l0.047-0.004l0.047-0.004l0.047-0.004l0.047-0.004l0.047-0.004l0.047-0.004l0.047-0.005	l0.047-0.005l0.047-0.005l0.047-0.005l0.047-0.005l0.047-0.005l0.047-0.005l0.047-0.005l0.047-0.005l0.047-0.006l0.047-0.006	l0.047-0.006l0.047-0.006l0.047-0.006l0.047-0.006l0.047-0.006l0.047-0.006l0.047-0.006l0.047-0.006l0.047-0.007l0.047-0.007	l0.047-0.007l0.047-0.007l0.047-0.007l0.047-0.007l0.047-0.007l0.047-0.007l0.047-0.007l0.047-0.007l0.047-0.008l0.047-0.008	l0.047-0.008l0.047-0.008l0.047-0.008l0.047-0.008l0.047-0.008l0.047-0.008l0.047-0.008l0.047-0.008l0.047-0.008l0.047-0.009	l0.047-0.009l0.047-0.009l0.047-0.009l0.047-0.009l0.047-0.009l0.047-0.009l0.047-0.009l0.047-0.009l0.047-0.009l0.047-0.009	l0.047-0.009l0.047-0.01l0.047-0.01l0.047-0.01l0.047-0.01l0.047-0.01l0.047-0.01l0.047-0.01l0.047-0.01l0.047-0.01l0.047-0.011	l0.047-0.011l0.047-0.011l0.046-0.011v-1.974l-0.046,0.022l-0.047,0.022l-0.047,0.022l-0.047,0.022l-0.047,0.022l-0.047,0.021	l-0.047,0.021l-0.047,0.021l-0.047,0.021l-0.047,0.021l-0.047,0.02l-0.047,0.02l-0.047,0.02l-0.047,0.02l-0.047,0.019l-0.047,0.019	l-0.047,0.019l-0.047,0.019l-0.047,0.018l-0.047,0.018l-0.047,0.018l-0.047,0.018l-0.047,0.017l-0.047,0.017l-0.047,0.017	l-0.047,0.017l-0.047,0.016l-0.047,0.016l-0.047,0.016l-0.047,0.016l-0.047,0.015l-0.047,0.015l-0.047,0.015l-0.047,0.015	l-0.047,0.014l-0.047,0.014l-0.047,0.014l-0.047,0.014l-0.047,0.013l-0.047,0.013l-0.047,0.013l-0.047,0.013l-0.047,0.012	l-0.047,0.012l-0.047,0.012l-0.047,0.012l-0.047,0.011l-0.047,0.011l-0.047,0.011l-0.047,0.011l-0.047,0.01l-0.047,0.01l-0.047,0.01	l-0.047,0.01l-0.047,0.009l-0.047,0.009l-0.047,0.009l-0.047,0.008l-0.047,0.008l-0.047,0.008l-0.047,0.008l-0.047,0.007	l-0.047,0.007l-0.047,0.007l-0.047,0.007l-0.047,0.007l-0.047,0.006l-0.047,0.006l-0.047,0.006l-0.047,0.006l-0.047,0.005	l-0.047,0.005l-0.047,0.005l-0.047,0.005l-0.047,0.004l-0.047,0.004l-0.047,0.004l-0.047,0.004l-0.028,0.002l-0.018,0.001	l-0.047,0.003l-0.047,0.003l-0.047,0.002l-0.047,0.002l-0.047,0.002l-0.047,0.001l-0.047,0.001l-0.047,0.001l-0.047,0.001	l-0.047,0.001c-0.016,0-0.031,0-0.047,0l-0.047,0l-0.047-0.001l-0.047-0.001l-0.047-0.001c-0.016,0-0.031-0.001-0.047-0.002	s-0.031-0.001-0.047-0.002L24.1,27.232l-0.047-0.003l-0.047-0.003l-0.047-0.004c-0.016-0.001-0.031-0.002-0.047-0.004	c-0.016-0.001-0.031-0.003-0.047-0.005L23.82,27.21l-0.047-0.005l-0.047-0.005l-0.047-0.006l-0.047-0.006	c-0.016-0.002-0.031-0.004-0.047-0.007c-0.016-0.002-0.031-0.005-0.047-0.007c-0.016-0.003-0.031-0.005-0.047-0.007	c-0.016-0.003-0.031-0.006-0.047-0.008c-0.016-0.003-0.031-0.005-0.047-0.008c-0.016-0.003-0.031-0.006-0.047-0.009	c-0.016-0.003-0.031-0.006-0.047-0.009c-0.016-0.003-0.031-0.007-0.047-0.01l-0.047-0.011c-0.016-0.004-0.031-0.008-0.047-0.011	c-0.016-0.004-0.031-0.008-0.047-0.012c-0.016-0.004-0.031-0.008-0.047-0.012c-0.016-0.004-0.031-0.008-0.047-0.013	c-0.016-0.004-0.031-0.009-0.047-0.014c-0.016-0.005-0.031-0.009-0.047-0.014c-0.016-0.005-0.031-0.01-0.047-0.015	c-0.016-0.005-0.031-0.01-0.047-0.015c-0.016-0.005-0.031-0.011-0.047-0.016c-0.016-0.005-0.031-0.011-0.047-0.017	c-0.016-0.006-0.031-0.012-0.047-0.018c-0.016-0.006-0.031-0.012-0.047-0.018c-0.016-0.006-0.031-0.013-0.047-0.019	c-0.016-0.006-0.031-0.013-0.047-0.019c-0.016-0.007-0.031-0.014-0.047-0.021c-0.016-0.007-0.031-0.014-0.047-0.021	c-0.016-0.007-0.031-0.015-0.047-0.022c-0.016-0.008-0.031-0.015-0.047-0.023c-0.016-0.008-0.031-0.016-0.047-0.024	c-0.016-0.008-0.031-0.017-0.047-0.025c-0.016-0.009-0.031-0.017-0.047-0.026c-0.016-0.009-0.031-0.018-0.047-0.027	c-0.016-0.009-0.031-0.019-0.047-0.028c-0.016-0.01-0.031-0.019-0.047-0.029c-0.016-0.01-0.031-0.02-0.047-0.031	c-0.016-0.01-0.031-0.021-0.047-0.032c-0.016-0.011-0.031-0.022-0.047-0.033c-0.016-0.011-0.031-0.023-0.047-0.035	c-0.016-0.012-0.031-0.024-0.047-0.036c-0.016-0.012-0.031-0.025-0.047-0.037c-0.016-0.013-0.031-0.026-0.047-0.04	c-0.016-0.014-0.031-0.027-0.047-0.041c-0.016-0.014-0.031-0.028-0.047-0.043c-0.016-0.015-0.031-0.03-0.047-0.045	c-0.016-0.016-0.031-0.032-0.047-0.048c-0.016-0.016-0.031-0.033-0.047-0.05c-0.016-0.017-0.031-0.035-0.047-0.052	c-0.016-0.018-0.031-0.036-0.047-0.055c-0.016-0.019-0.031-0.039-0.047-0.058c-0.016-0.02-0.031-0.041-0.047-0.062	c-0.016-0.022-0.031-0.043-0.047-0.066c-0.016-0.023-0.031-0.046-0.047-0.07c-0.016-0.025-0.032-0.05-0.047-0.075	c-0.016-0.027-0.032-0.054-0.047-0.081c-0.016-0.029-0.032-0.058-0.047-0.088c-0.016-0.032-0.032-0.064-0.047-0.096	c-0.016-0.035-0.032-0.07-0.047-0.106c-0.016-0.04-0.032-0.08-0.047-0.121c-0.016-0.045-0.032-0.091-0.047-0.138	c-0.017-0.054-0.033-0.109-0.047-0.165c-0.018-0.069-0.033-0.14-0.047-0.213c-0.02-0.107-0.036-0.217-0.047-0.33	c-0.013-0.131-0.019-0.265-0.019-0.404c0-0.139,0.006-0.273,0.019-0.404c0.011-0.113,0.027-0.223,0.047-0.331	c0.014-0.072,0.029-0.143,0.047-0.213c0.014-0.056,0.03-0.111,0.047-0.165c0.015-0.047,0.03-0.092,0.047-0.138	c0.015-0.041,0.03-0.081,0.047-0.121c0.015-0.036,0.031-0.071,0.047-0.106c0.015-0.032,0.031-0.065,0.047-0.096	c0.015-0.03,0.031-0.059,0.047-0.088c0.015-0.027,0.031-0.054,0.047-0.081c0.015-0.025,0.031-0.051,0.047-0.075	c0.015-0.024,0.031-0.047,0.047-0.07c0.015-0.022,0.031-0.044,0.047-0.066c0.015-0.021,0.031-0.041,0.047-0.062	c0.015-0.02,0.031-0.039,0.047-0.058c0.015-0.019,0.031-0.037,0.047-0.055c0.015-0.018,0.031-0.035,0.047-0.052	c0.015-0.017,0.031-0.033,0.047-0.05c0.015-0.016,0.031-0.032,0.047-0.048c0.015-0.015,0.031-0.03,0.047-0.045	c0.015-0.014,0.031-0.029,0.047-0.043c0.015-0.014,0.031-0.028,0.047-0.041c0.015-0.013,0.031-0.027,0.047-0.04	c0.015-0.013,0.031-0.025,0.047-0.037c0.015-0.012,0.031-0.024,0.047-0.036c0.015-0.012,0.031-0.023,0.047-0.035	c0.015-0.011,0.031-0.022,0.047-0.033c0.015-0.011,0.031-0.021,0.047-0.032c0.016-0.01,0.031-0.021,0.047-0.031	c0.015-0.01,0.031-0.019,0.047-0.029c0.015-0.01,0.031-0.019,0.047-0.028c0.015-0.009,0.031-0.018,0.047-0.027	c0.015-0.009,0.031-0.017,0.047-0.026c0.016-0.008,0.031-0.017,0.047-0.025c0.015-0.008,0.031-0.016,0.047-0.024	c0.015-0.008,0.031-0.016,0.047-0.023c0.015-0.008,0.031-0.015,0.047-0.022c0.015-0.007,0.031-0.014,0.047-0.021	c0.016-0.007,0.031-0.014,0.047-0.021c0.015-0.007,0.031-0.013,0.047-0.019c0.016-0.006,0.031-0.013,0.047-0.019	c0.015-0.006,0.031-0.012,0.047-0.018c0.016-0.006,0.031-0.012,0.047-0.018c0.015-0.006,0.031-0.011,0.047-0.017	c0.016-0.005,0.031-0.011,0.047-0.016c0.015-0.005,0.031-0.01,0.047-0.015c0.016-0.005,0.031-0.01,0.047-0.015	c0.015-0.005,0.031-0.009,0.047-0.014c0.016-0.005,0.031-0.009,0.047-0.014l0.047-0.013c0.016-0.004,0.031-0.008,0.047-0.012	c0.015-0.004,0.031-0.008,0.047-0.012c0.016-0.004,0.031-0.008,0.047-0.011l0.047-0.011c0.016-0.003,0.031-0.007,0.047-0.01	c0.015-0.003,0.031-0.006,0.047-0.009c0.016-0.003,0.031-0.006,0.047-0.009c0.015-0.003,0.031-0.006,0.047-0.008	c0.016-0.003,0.031-0.006,0.047-0.008c0.015-0.003,0.031-0.005,0.047-0.007c0.016-0.003,0.031-0.005,0.047-0.007l0.047-0.007	l0.047-0.006l0.047-0.006l0.047-0.005l0.047-0.005l0.047-0.005c0.016-0.001,0.031-0.003,0.047-0.005	c0.015-0.001,0.031-0.002,0.047-0.004l0.047-0.004l0.047-0.003l0.047-0.003l0.047-0.003c0.015-0.001,0.031-0.001,0.047-0.002	s0.031-0.001,0.047-0.002l0.047-0.001l0.047-0.001l0.047-0.001l0.047,0c0.016,0,0.031,0,0.047,0l0.047,0.001l0.047,0.001	l0.047,0.001l0.047,0.001l0.047,0.001l0.047,0.002l0.047,0.002l0.047,0.002l0.047,0.003l0.047,0.003l0.018,0.001l0.028,0.002	l0.047,0.004l0.047,0.004l0.047,0.004l0.047,0.004l0.047,0.005l0.047,0.005l0.047,0.005l0.047,0.005l0.047,0.006l0.047,0.006	l0.047,0.006l0.047,0.006l0.047,0.006l0.047,0.007l0.047,0.007l0.047,0.007l0.047,0.007l0.047,0.008l0.047,0.008l0.047,0.008	l0.047,0.008l0.047,0.009l0.047,0.009l0.047,0.009l0.047,0.009l0.047,0.01l0.047,0.01l0.047,0.01l0.047,0.01l0.047,0.011	l0.047,0.011l0.047,0.011l0.047,0.011l0.047,0.012l0.047,0.012l0.047,0.012l0.047,0.013l0.047,0.013l0.047,0.013l0.047,0.013	l0.047,0.014l0.047,0.014l0.047,0.014l0.047,0.014l0.047,0.015l0.047,0.015l0.047,0.015l0.047,0.015l0.047,0.016l0.047,0.016	l0.047,0.016l0.047,0.016l0.047,0.017l0.047,0.017l0.047,0.017l0.047,0.017l0.047,0.018l0.047,0.018l0.047,0.018l0.047,0.019	l0.047,0.019l0.047,0.019l0.047,0.019l0.047,0.019l0.047,0.02l0.047,0.02l0.047,0.02l0.047,0.02l0.047,0.021l0.047,0.021	l0.047,0.021l0.047,0.021l0.047,0.022l0.047,0.022l0.047,0.022l0.047,0.022l0.047,0.022l0.046,0.022v-1.975l-0.046-0.011	l-0.047-0.011l-0.047-0.011l-0.047-0.011l-0.047-0.01l-0.047-0.01l-0.047-0.01l-0.047-0.01l-0.047-0.01l-0.047-0.01l-0.047-0.01	l-0.047-0.01l-0.047-0.01l-0.047-0.009l-0.047-0.009l-0.047-0.009l-0.047-0.009l-0.047-0.009l-0.047-0.009l-0.047-0.009	l-0.047-0.009l-0.047-0.009l-0.047-0.009l-0.047-0.009l-0.047-0.008l-0.047-0.008l-0.047-0.008l-0.047-0.008l-0.047-0.008	l-0.047-0.008l-0.047-0.008l-0.047-0.008l-0.047-0.008l-0.047-0.008l-0.047-0.008l-0.047-0.008l-0.047-0.007l-0.047-0.007	l-0.047-0.007l-0.047-0.007l-0.047-0.007l-0.047-0.007l-0.047-0.007l-0.047-0.007l-0.047-0.007l-0.047-0.007l-0.047-0.006	l-0.047-0.006l-0.047-0.006l-0.047-0.006l-0.047-0.006l-0.047-0.006l-0.047-0.006l-0.047-0.006l-0.047-0.006l-0.047-0.006	l-0.047-0.005l-0.047-0.005l-0.047-0.005l-0.047-0.005l-0.047-0.005l-0.047-0.005l-0.047-0.005l-0.047-0.005l-0.047-0.004	l-0.047-0.004l-0.047-0.004l-0.047-0.004l-0.047-0.004l-0.047-0.004l-0.047-0.004l-0.047-0.004L25.222,19.3l-0.047-0.003	l-0.047-0.003l-0.047-0.003l-0.047-0.003l-0.047-0.003l-0.047-0.002l-0.047-0.002l-0.047-0.002l-0.024-0.001l-0.023-0.001	l-0.047-0.002l-0.047-0.002l-0.047-0.002l-0.047-0.002l-0.047-0.002l-0.047-0.002l-0.047-0.001l-0.047-0.001l-0.047-0.001	l-0.047-0.001l-0.047-0.001l-0.047-0.001l-0.047-0.001l-0.047-0.001L24.1,19.257l-0.047-0.001l-0.047,0l-0.047,0l-0.047,0l-0.047,0	l-0.047,0l-0.047,0l-0.047,0l-0.047,0l-0.047,0l-0.047,0l-0.047,0.001l-0.047,0.001l-0.047,0.001L23.4,19.261l-0.047,0.001	l-0.047,0.001l-0.047,0.001l-0.047,0.001l-0.047,0.001l-0.047,0.002l-0.047,0.002l-0.047,0.002l-0.047,0.002l-0.047,0.002	l-0.047,0.002l-0.047,0.003l-0.047,0.003l-0.047,0.003l-0.047,0.003l-0.047,0.003l-0.047,0.003L22.559,19.3l-0.047,0.003	l-0.047,0.004l-0.047,0.004l-0.047,0.004l-0.047,0.004l-0.047,0.004l-0.047,0.004l-0.047,0.004l-0.047,0.005l-0.047,0.005	l-0.047,0.005l-0.047,0.005l-0.047,0.005l-0.047,0.006l-0.047,0.005l-0.047,0.006l-0.047,0.006l-0.047,0.006l-0.047,0.006	l-0.047,0.006l-0.047,0.007l-0.047,0.007l-0.047,0.007l-0.047,0.007l-0.047,0.007l-0.047,0.008l-0.047,0.008l-0.047,0.008	l-0.047,0.008l-0.047,0.008l-0.047,0.009l-0.047,0.009l-0.047,0.009l-0.047,0.009l-0.047,0.009l-0.047,0.01l-0.047,0.01l-0.047,0.01	l-0.047,0.01l-0.047,0.01l-0.047,0.011l-0.047,0.011L20.55,19.6l-0.047,0.011l-0.047,0.012l-0.047,0.012l-0.047,0.012l-0.047,0.013	l-0.047,0.013l-0.047,0.013l-0.047,0.013l-0.047,0.014l-0.047,0.014l-0.047,0.014c-0.016,0.005-0.031,0.01-0.047,0.014l-0.047,0.015	c-0.016,0.005-0.031,0.01-0.047,0.015l-0.047,0.016l-0.047,0.016c-0.016,0.005-0.031,0.011-0.047,0.016	c-0.016,0.005-0.031,0.011-0.047,0.016l-0.047,0.017c-0.016,0.006-0.031,0.011-0.047,0.017l-0.047,0.018l-0.047,0.018l-0.047,0.018	l-0.047,0.019l-0.047,0.019l-0.047,0.02l-0.047,0.02l-0.047,0.021l-0.047,0.021c-0.016,0.007-0.031,0.014-0.047,0.022L19.102,20.1	l-0.047,0.022l-0.047,0.023c-0.016,0.008-0.031,0.015-0.047,0.023c-0.016,0.008-0.031,0.016-0.047,0.024l-0.047,0.024l-0.047,0.025	c-0.016,0.008-0.031,0.017-0.047,0.026c-0.016,0.009-0.031,0.017-0.047,0.026c-0.016,0.009-0.031,0.018-0.047,0.027	c-0.016,0.009-0.031,0.018-0.047,0.027c-0.016,0.009-0.031,0.019-0.047,0.028c-0.016,0.01-0.031,0.019-0.047,0.029l-0.047,0.029	c-0.016,0.01-0.031,0.02-0.047,0.03l-0.047,0.031c-0.016,0.01-0.031,0.021-0.047,0.032c-0.016,0.011-0.031,0.022-0.047,0.032	c-0.016,0.011-0.031,0.022-0.047,0.033c-0.016,0.011-0.031,0.023-0.047,0.034c-0.016,0.012-0.031,0.023-0.047,0.035	C18.152,20.672,18.137,20.684,18.121,20.696L18.121,20.696L18.121,20.696z" clip-rule="evenodd"/></svg>