<svg xmlns="http://www.w3.org/2000/svg" viewBox="0 0 48 48"><path fill="#e3a600" d="M30,38H18v3c0,0.552,0.448,1,1,1h10c0.552,0,1-0.448,1-1V38z"/><rect width="12" height="4" x="32" y="34" fill="#e3a600"/><path fill="#edbe00" d="M16,38H4v3c0,0.552,0.448,1,1,1h10c0.552,0,1-0.448,1-1V38z"/><path fill="#edbe00" d="M44,38H32v3c0,0.552,0.448,1,1,1h10c0.552,0,1-0.448,1-1V38z"/><rect width="12" height="4" x="32" y="30" fill="#edbe00"/><rect width="12" height="4" x="32" y="26" fill="#e3a600"/><rect width="12" height="4" x="32" y="22" fill="#edbe00"/><rect width="12" height="4" x="4" y="34" fill="#e3a600"/><rect width="12" height="4" x="4" y="30" fill="#edbe00"/><rect width="12" height="4" x="4" y="26" fill="#e3a600"/><path fill="#edbe00" d="M15,22H5c-0.552,0-1,0.448-1,1v3h12v-3C16,22.448,15.552,22,15,22z"/><rect width="12" height="4" x="32" y="18" fill="#e3a600"/><rect width="12" height="4" x="32" y="14" fill="#edbe00"/><rect width="12" height="4" x="18" y="30" fill="#e3a600"/><rect width="12" height="4" x="18" y="34" fill="#edbe00"/><rect width="12" height="4" x="18" y="26" fill="#edbe00"/><rect width="12" height="4" x="18" y="22" fill="#e3a600"/><rect width="12" height="4" x="18" y="18" fill="#edbe00"/><path fill="#e3a600" d="M29,14H19c-0.552,0-1,0.448-1,1v3h12v-3C30,14.448,29.552,14,29,14z"/><rect width="12" height="4" x="32" y="10" fill="#e3a600"/><path fill="#edbe00" d="M43,6H33c-0.552,0-1,0.448-1,1v3h12V7C44,6.448,43.552,6,43,6z"/></svg>