<svg xmlns="http://www.w3.org/2000/svg" width="48" height="48" viewBox="0 0 48 48"><path fill="#e8457c" d="M30,13c0,0-0.01-0.01-0.02-0.01c-0.05-0.04-0.18-0.14-0.44-0.25c-0.13-0.06-0.28-0.13-0.47-0.19	C28.31,12.28,27.03,12,25,12c-2.05,0-3.34,0.29-4.09,0.56c-0.19,0.06-0.34,0.12-0.47,0.18C20.13,12.89,20,13,20,13	c-1.91-0.53-1-6-1-6s0.14-0.29,0.6-0.64c0.15-0.12,0.33-0.25,0.55-0.37C21.02,5.49,22.52,5,25,5c2.46,0,3.96,0.48,4.83,0.98	c0.23,0.13,0.41,0.25,0.56,0.37C30.85,6.71,31,7,31,7s0,0.02,0.01,0.06C31.11,7.61,31.88,12.06,30,13z"/><path d="M30,13c0,0-0.01-0.01-0.02-0.01c-0.05-0.04-0.18-0.14-0.44-0.25c-0.13-0.06-0.28-0.13-0.47-0.19	c0.72-1.49,1.06-2.77,1.06-3.36c0-1.08-0.14-2.04-0.14-2.05l-0.16-1.16c0.23,0.13,0.41,0.25,0.56,0.37C30.85,6.71,31,7,31,7	s0,0.02,0.01,0.06C31.11,7.61,31.88,12.06,30,13z" opacity=".05"/><path d="M30,13c0,0-0.01-0.01-0.02-0.01c-0.05-0.04-0.18-0.14-0.44-0.25c0.74-1.55,1.09-2.9,1.09-3.55	c0-1.12-0.14-2.11-0.14-2.12l-0.1-0.72C30.85,6.71,31,7,31,7s0,0.02,0.01,0.06C31.11,7.61,31.88,12.06,30,13z" opacity=".07"/><linearGradient id="YXVaiF9MGx936jzVeZF5Ea" x1="36.658" x2="3.324" y1="6.63" y2="60.291" gradientUnits="userSpaceOnUse"><stop offset="0" stop-color="#ff87cb"/><stop offset="1" stop-color="#e8457c"/></linearGradient><path fill="url(#YXVaiF9MGx936jzVeZF5Ea)" d="M33.29,21.95c-0.27,0.41-1.32,1.8-2.77,3.67c-0.11,0.13-0.21,0.27-0.32,0.41	c-0.28,0.36-0.57,0.73-0.88,1.12c-0.3,0.39-0.61,0.79-0.93,1.2c-1.17,1.5-2.44,3.12-3.71,4.73c-0.11,0.14-0.21,0.27-0.32,0.41	C20.5,38.4,16.85,43,16.85,43L11,38.03c0,0,4.17-5.28,8.48-10.79c0.1-0.13,0.21-0.27,0.31-0.4c1.96-2.5,3.93-5.03,5.52-7.1	c0.11-0.14,0.22-0.28,0.32-0.42c1.56-2.02,2.71-3.55,3.08-4.09c0.5-0.74,0.93-1.51,1.27-2.24c0.76-1.57,1.16-3,1.16-3.8	c0-1-0.1-1.89-0.13-2.13C31,7.02,31,7,31,7s2.86,6.33,3.72,8.38C35.57,17.42,34.43,20.2,33.29,21.95z"/><path d="M20,13c-1.91-0.53-1-6-1-6s0.14-0.29,0.6-0.64c0.15-0.12,0.33-0.25,0.55-0.37l-0.16,1.15	c0,0.01-0.13,0.97-0.13,2.05c0,0.59,0.34,1.88,1.05,3.37c-0.19,0.06-0.34,0.12-0.47,0.18C20.13,12.89,20,13,20,13z" opacity=".05"/><path d="M30.52,25.62c-0.11,0.13-0.21,0.27-0.32,0.41c-0.28,0.36-0.57,0.73-0.88,1.12	c-0.29,0.39-0.61,0.79-0.93,1.2c-1.17,1.5-2.44,3.12-3.71,4.73c-0.11,0.14-0.21,0.27-0.32,0.41c-1.71-2.18-3.43-4.39-4.88-6.25	c0.1-0.13,0.21-0.27,0.31-0.4c1.96-2.5,3.93-5.03,5.52-7.1c0.11-0.14,0.22-0.28,0.32-0.42C27.06,21.18,28.79,23.39,30.52,25.62z" opacity=".05"/><path d="M20,13c-1.91-0.53-1-6-1-6s0.14-0.29,0.6-0.64l-0.1,0.71c-0.01,0.01-0.14,1-0.14,2.12	c0,0.65,0.34,2,1.08,3.55C20.13,12.89,20,13,20,13z" opacity=".07"/><path d="M30.2,26.03c-1.12,1.44-2.44,3.12-3.81,4.87c-0.18,0.23-0.36,0.47-0.54,0.7	c-0.39,0.49-0.78,0.99-1.17,1.48c-1.72-2.18-3.45-4.38-4.89-6.24c1.96-2.5,3.93-5.03,5.52-7.1C26.76,21.61,28.47,23.81,30.2,26.03z" opacity=".07"/><linearGradient id="YXVaiF9MGx936jzVeZF5Eb" x1="39.302" x2="12.744" y1="41.064" y2="8.816" gradientUnits="userSpaceOnUse"><stop offset="0" stop-color="#ff87cb"/><stop offset="1" stop-color="#ffa7de"/></linearGradient><path fill="url(#YXVaiF9MGx936jzVeZF5Eb)" d="M39,38.03L33.145,43c0,0-15.287-19.292-16.431-21.047c-1.143-1.753-2.286-4.53-1.429-6.577	C16.142,13.331,19,7,19,7s-0.144,1.022-0.144,2.192c0,1.168,0.858,3.7,2.431,6.038C22.858,17.568,39,38.03,39,38.03z"/></svg>