<svg xmlns="http://www.w3.org/2000/svg" viewBox="0 0 48 48"><linearGradient id="52uO1~ejXMxz~wWwhugxGa" x1="35.5" x2="35.5" y1="-462.5" y2="-469.5" gradientTransform="matrix(1 0 0 -1 0 -426)" gradientUnits="userSpaceOnUse"><stop offset=".502" stop-color="#4a4a4a"/><stop offset=".7" stop-color="#444"/><stop offset=".97" stop-color="#323232"/><stop offset="1" stop-color="#303030"/></linearGradient><path fill="url(#52uO1~ejXMxz~wWwhugxGa)" d="M38,36c0-0.553-0.447-1-1-1h-3c-0.553,0-1,0.447-1,1v5c0,0.553,0.447,1,1,1h3	c0.553,0,1-0.447,1-1V36z"/><linearGradient id="52uO1~ejXMxz~wWwhugxGb" x1="12.5" x2="12.5" y1="-462.5" y2="-469.5" gradientTransform="matrix(1 0 0 -1 0 -426)" gradientUnits="userSpaceOnUse"><stop offset=".502" stop-color="#4a4a4a"/><stop offset=".7" stop-color="#444"/><stop offset=".97" stop-color="#323232"/><stop offset="1" stop-color="#303030"/></linearGradient><path fill="url(#52uO1~ejXMxz~wWwhugxGb)" d="M15,36c0-0.553-0.447-1-1-1h-3c-0.553,0-1,0.447-1,1v5c0,0.553,0.447,1,1,1h3	c0.553,0,1-0.447,1-1V36z"/><linearGradient id="52uO1~ejXMxz~wWwhugxGc" x1="10" x2="38" y1="17" y2="17" gradientUnits="userSpaceOnUse"><stop offset="0" stop-color="#912fbd"/><stop offset="1" stop-color="#9332bf"/></linearGradient><path fill="url(#52uO1~ejXMxz~wWwhugxGc)" d="M38,28V9c0-1.657-1.343-3-3-3H13c-1.657,0-3,1.343-3,3v19H38z"/><linearGradient id="52uO1~ejXMxz~wWwhugxGd" x1="33.176" x2="40.317" y1="-444.5" y2="-444.5" gradientTransform="matrix(1 0 0 -1 0 -426)" gradientUnits="userSpaceOnUse"><stop offset="0" stop-color="#ae4cd5"/><stop offset="1" stop-color="#ac4ad5"/></linearGradient><path fill="url(#52uO1~ejXMxz~wWwhugxGd)" d="M40,21c0,0.553-0.447,1-1,1h-4c-0.553,0-1-0.447-1-1v-5c0-0.553,0.447-1,1-1h4	c0.553,0,1,0.447,1,1V21z"/><linearGradient id="52uO1~ejXMxz~wWwhugxGe" x1="-8.824" x2="-1.683" y1="-444.5" y2="-444.5" gradientTransform="rotate(180 3 -213)" gradientUnits="userSpaceOnUse"><stop offset="0" stop-color="#ae4cd5"/><stop offset="1" stop-color="#ac4ad5"/></linearGradient><path fill="url(#52uO1~ejXMxz~wWwhugxGe)" d="M8,16c0-0.553,0.447-1,1-1h4c0.553,0,1,0.447,1,1v5c0,0.553-0.447,1-1,1H9	c-0.553,0-1-0.447-1-1V16z"/><linearGradient id="52uO1~ejXMxz~wWwhugxGf" x1="8" x2="40" y1="32" y2="32" gradientUnits="userSpaceOnUse"><stop offset="0" stop-color="#c965eb"/><stop offset="1" stop-color="#c767e5"/></linearGradient><path fill="url(#52uO1~ejXMxz~wWwhugxGf)" d="M40,28c0-1.104-0.896-2-2-2H10c-1.104,0-2,0.896-2,2v8c0,1.104,0.896,2,2,2h28	c1.104,0,2-0.896,2-2V28z"/><linearGradient id="52uO1~ejXMxz~wWwhugxGg" x1="13" x2="35" y1="19.5" y2="19.5" gradientUnits="userSpaceOnUse"><stop offset="0" stop-color="#c965eb"/><stop offset="1" stop-color="#c767e5"/></linearGradient><path fill="url(#52uO1~ejXMxz~wWwhugxGg)" d="M35,28H13V13c0-1.104,0.896-2,2-2h18c1.104,0,2,0.896,2,2V28z"/><circle cx="12" cy="31" r="2" fill="#fff"/><circle cx="36" cy="31" r="2" fill="#fff"/><linearGradient id="52uO1~ejXMxz~wWwhugxGh" x1="15" x2="33" y1="-444" y2="-444" gradientTransform="matrix(1 0 0 -1 0 -426)" gradientUnits="userSpaceOnUse"><stop offset="0" stop-color="#912fbd"/><stop offset="1" stop-color="#9332bf"/></linearGradient><path fill="url(#52uO1~ejXMxz~wWwhugxGh)" d="M33,14c0-0.553-0.447-1-1-1H16c-0.552,0-1,0.447-1,1v8c0,0.553,0.448,1,1,1h16	c0.553,0,1-0.447,1-1V14z"/><linearGradient id="52uO1~ejXMxz~wWwhugxGi" x1="16" x2="32" y1="-458" y2="-458" gradientTransform="matrix(1 0 0 -1 0 -426)" gradientUnits="userSpaceOnUse"><stop offset="0" stop-color="#7819a2"/><stop offset="1" stop-color="#771aa9"/></linearGradient><path fill="url(#52uO1~ejXMxz~wWwhugxGi)" d="M17,28h14c0.552,0,1,0.448,1,1v6c0,0.552-0.448,1-1,1H17c-0.552,0-1-0.448-1-1v-6	C16,28.448,16.448,28,17,28z"/><linearGradient id="52uO1~ejXMxz~wWwhugxGj" x1="30.929" x2="45.071" y1="-456.929" y2="-471.071" gradientTransform="matrix(1 0 0 -1 0 -426)" gradientUnits="userSpaceOnUse"><stop offset="0" stop-color="#21ad64"/><stop offset="1" stop-color="#088242"/></linearGradient><path fill="url(#52uO1~ejXMxz~wWwhugxGj)" d="M48,38c0,5.522-4.478,10-10,10s-10-4.478-10-10s4.478-10,10-10S48,32.478,48,38z"/><path fill="#fff" d="M36.646,42.354l-4-4c-0.195-0.195-0.195-0.512,0-0.707l0.707-0.707c0.195-0.195,0.512-0.195,0.707,0	L37,39.879l5.439-5.439c0.195-0.195,0.512-0.195,0.707,0l0.707,0.707c0.195,0.195,0.195,0.512,0,0.707l-6.5,6.5	C37.158,42.549,36.842,42.549,36.646,42.354z"/></svg>