<svg xmlns="http://www.w3.org/2000/svg" data-name="Слой 1" viewBox="0 0 48 48"><defs><linearGradient id="vtW1wAAnQUfymwx8LCI62a" x1="24" x2="24" y1="24.87" y2="63.806" data-name="Безымянный градиент 107" gradientUnits="userSpaceOnUse"><stop offset="0" stop-color="#eba600"/><stop offset="1" stop-color="#c28200"/></linearGradient><linearGradient id="vtW1wAAnQUfymwx8LCI62c" x1="14.276" x2="29.491" y1="4.285" y2="46.087" data-name="Безымянный градиент 9" gradientUnits="userSpaceOnUse"><stop offset="0" stop-color="#ffcf54"/><stop offset=".261" stop-color="#fdcb4d"/><stop offset=".639" stop-color="#f7c13a"/><stop offset="1" stop-color="#f0b421"/></linearGradient><linearGradient id="vtW1wAAnQUfymwx8LCI62d" x1="27.5" x2="27.5" y1="4.418" y2="12.201" data-name="Безымянный градиент 121" gradientUnits="userSpaceOnUse"><stop offset="0" stop-color="#f44f5a"/><stop offset=".443" stop-color="#ee3d4a"/><stop offset="1" stop-color="#e52030"/></linearGradient><linearGradient id="vtW1wAAnQUfymwx8LCI62e" x1="24" x2="24" y1="33.87" y2="46.598" data-name="Безымянный градиент 23" gradientUnits="userSpaceOnUse"><stop offset="0" stop-color="#d43a02"/><stop offset="1" stop-color="#b9360c"/></linearGradient><radialGradient id="vtW1wAAnQUfymwx8LCI62b" cx="24" cy="22.5" r="18.254" data-name="Безымянный градиент 52" gradientUnits="userSpaceOnUse"><stop offset="0" stop-color="#007ad9"/><stop offset="1" stop-color="#2aa4f4"/></radialGradient><radialGradient id="vtW1wAAnQUfymwx8LCI62f" cx="24" cy="25" r="5.992" data-name="Безымянный градиент 48" gradientUnits="userSpaceOnUse"><stop offset="0" stop-color="#f9f9f9"/><stop offset=".26" stop-color="#f0f1f2"/><stop offset=".678" stop-color="#d9dcdf"/><stop offset="1" stop-color="#c2c8cc"/></radialGradient></defs><polygon fill="url(#vtW1wAAnQUfymwx8LCI62a)" points="44 43 4 43 4 25 24 21 44 25 44 43"/><path fill="url(#vtW1wAAnQUfymwx8LCI62b)" d="M40.64593,20H7.35407a2,2,0,0,0-1.857,1.25722L4,25H44l-1.49711-3.74278A2,2,0,0,0,40.64593,20Z"/><polygon fill="url(#vtW1wAAnQUfymwx8LCI62c)" points="31 19 24 12.5 17 19 17 43 31 43 31 19"/><path fill="#35c1f1" d="M30.95156,20.38746,24,13.87061l-6.95156,6.51685a.5.5,0,0,1-.70681-.02289l-.68342-.7293a.5.5,0,0,1,.02287-.70666l7.635-7.158a1,1,0,0,1,1.3679,0l7.635,7.158a.5.5,0,0,1,.02287.70666l-.68342.7293A.5.5,0,0,1,30.95156,20.38746Z"/><path fill="url(#vtW1wAAnQUfymwx8LCI62d)" d="M30.49036,10.9884c-3.25429-.07819-2.72919-.91225-5.993-.98855A.50456.50456,0,0,1,24,9.50066V6.50074a.50135.50135,0,0,1,.50964-.5006c3.25429.07819,2.72919.91226,5.993.98855A.50457.50457,0,0,1,31,7.48788V10.4878A.50134.50134,0,0,1,30.49036,10.9884Z"/><rect width="3" height="5" x="39" y="28" fill="#c28200"/><rect width="3" height="5" x="33" y="28" fill="#c28200"/><rect width="3" height="5" x="39" y="35" fill="#c28200"/><rect width="3" height="5" x="33" y="35" fill="#c28200"/><path fill="url(#vtW1wAAnQUfymwx8LCI62e)" d="M24,34h0a3,3,0,0,1,3,3v6a0,0,0,0,1,0,0H21a0,0,0,0,1,0,0V37a3,3,0,0,1,3-3Z"/><rect width="3" height="5" x="12" y="28" fill="#c28200"/><rect width="3" height="5" x="6" y="28" fill="#c28200"/><rect width="3" height="5" x="12" y="35" fill="#c28200"/><rect width="3" height="5" x="6" y="35" fill="#c28200"/><path d="M24,21a4,4,0,1,1-4,4,4,4,0,0,1,4-4m0-1a5,5,0,1,0,5,5,5.00566,5.00566,0,0,0-5-5Z" opacity=".05"/><path d="M24,21a4,4,0,1,1-4,4,4,4,0,0,1,4-4m0-.5A4.5,4.5,0,1,0,28.5,25,4.50509,4.50509,0,0,0,24,20.5Z" opacity=".07"/><circle cx="24" cy="25" r="4" fill="url(#vtW1wAAnQUfymwx8LCI62f)"/><path fill="#5c2415" d="M25.5,25.5H24a.49971.49971,0,0,1-.5-.5V22.5a.5.5,0,0,1,1,0v2h1a.5.5,0,0,1,0,1Z"/><g><path d="M30.95,20.39,24,13.87l-6.95,6.52c-.02.00995-.03.03-.05.03v1.07a1.49681,1.49681,0,0,0,.73-.37L24,15.24l6.27,5.88a1.49681,1.49681,0,0,0,.73.37V20.42C30.98,20.42,30.97,20.4,30.95,20.39Z" opacity=".05"/><path d="M30.95,20.39,24,13.87l-6.95,6.52c-.02.00995-.03.03-.05.03v.55a.89651.89651,0,0,0,.39-.22L24,14.56l6.61,6.19a.89651.89651,0,0,0,.39.22v-.55C30.98,20.42,30.97,20.4,30.95,20.39Z" opacity=".07"/></g></svg>