<svg xmlns="http://www.w3.org/2000/svg" baseProfile="basic" viewBox="0 0 48 48"><linearGradient id="Kxr08nmaqquEKR9j9jCIua" x1="8.983" x2="39.015" y1="940.917" y2="970.949" gradientTransform="translate(0 -929.89)" gradientUnits="userSpaceOnUse"><stop offset="0" stop-color="#f44f5a"/><stop offset=".443" stop-color="#ee3d4a"/><stop offset="1" stop-color="#e52030"/></linearGradient><path fill="url(#Kxr08nmaqquEKR9j9jCIua)" d="M40.107,12.15c-0.065-0.102-0.139-0.182-0.236-0.255c-0.355-0.267-5.744-3.889-9.865-3.889	c-0.258,0-0.825,1.1-1.016,1.987c-1.994,0.002-7.996-0.003-9.993,0.006c-0.236-0.838-0.844-1.99-1.008-1.99	c-4.122,0-9.487,3.606-9.861,3.887c-0.097,0.073-0.17,0.153-0.236,0.255C7.184,13.258,2.843,20.539,2,33.783	c-0.009,0.142,0.04,0.289,0.135,0.395C6.728,39.321,13.318,39.929,14.724,40c0.167,0.008,0.335-0.059,0.427-0.199l1.099-1.665	l-3.246-1.54v-1.609c6.329,2.817,15.356,3.104,21.993,0.017l0.027,1.588l-3.205,1.65l1.028,1.559c0.092,0.14,0.26,0.208,0.427,0.199	c1.407-0.072,7.996-0.679,12.588-5.823c0.095-0.106,0.144-0.253,0.135-0.395C45.156,20.538,40.815,13.257,40.107,12.15z"/><polygon points="19,15.248 32.965,23.5 19,31.752" opacity=".05"/><polygon points="19.5,16.124 31.982,23.5 19.5,30.876" opacity=".07"/><polygon fill="#fff" points="20,30 20,17 31,23.5"/></svg>