<svg xmlns="http://www.w3.org/2000/svg" viewBox="0 0 48 48"><path fill="#33c481" d="M33,7h-4V5c0-1.105-0.895-2-2-2h-6c-1.105,0-2,0.895-2,2v2h-4c-1.65,0-3,1.35-3,3v31	c0,1.65,1.35,3,3,3h18c1.65,0,3-1.35,3-3V10C36,8.35,34.65,7,33,7z"/><path d="M31.263,23.325C30.825,22.508,29.979,22,29.052,22h-2.112l1.222-6.108	c0.238-1.186-0.375-2.34-1.495-2.808c-1.12-0.465-2.37-0.084-3.045,0.92l-6.757,10.097c-0.515,0.771-0.563,1.758-0.127,2.574	C17.175,27.492,18.021,28,18.948,28h2.112l-1.222,6.108c-0.238,1.186,0.375,2.34,1.494,2.808c0.313,0.13,0.64,0.195,0.972,0.195	c0.83,0,1.605-0.417,2.074-1.115l6.757-10.097C31.65,25.128,31.699,24.142,31.263,23.325z" opacity=".05"/><path d="M30.381,23.797C30.118,23.306,29.609,23,29.052,23H25.72l1.461-7.306	c0.144-0.713-0.226-1.406-0.896-1.687c-0.673-0.278-1.425-0.054-1.832,0.553l-6.756,10.095c-0.31,0.464-0.34,1.057-0.077,1.548	S18.391,27,18.948,27h3.332l-1.461,7.306c-0.144,0.713,0.226,1.406,0.896,1.687c0.193,0.08,0.393,0.119,0.589,0.119	c0.487,0,0.953-0.239,1.243-0.672l6.756-10.095C30.613,24.881,30.644,24.288,30.381,23.797z" opacity=".07"/><path fill="#fee119" d="M29.052,24H24.5l1.701-8.503c0.109-0.543-0.609-0.841-0.917-0.381l-6.756,10.096	C18.302,25.549,18.543,26,18.948,26H23.5l-1.701,8.503c-0.109,0.543,0.609,0.841,0.917,0.381l6.756-10.096	C29.698,24.451,29.457,24,29.052,24z"/></svg>