<svg xmlns="http://www.w3.org/2000/svg" viewBox="0 0 48 48"><path fill="#64717c" d="M43,42H5c-0.553,0-1-0.447-1-1s0.447-1,1-1h38c0.553,0,1,0.447,1,1S43.553,42,43,42z"/><path fill="#0d62ab" d="M5.001,35c-0.289,0-0.575-0.124-0.772-0.364c-0.352-0.427-0.29-1.057,0.136-1.407	c0.041-0.034,1.627-1.359,3.562-3.566c-0.367-0.517-0.718-1.078-1.051-1.681C5.074,24.724,4,20.618,4,17C4,9.71,6.748,5,11,5	c4.371,0,6,5.521,6,9c0,6.306-3.398,11.927-6.481,15.728C11.8,31.12,13.311,32,15,32c2.75,0,4.955-0.893,6.647-2.329	C19.944,27.523,19,24.181,19,20.906C19,15.496,20.963,12,24,12c2.468,0,4,2.683,4,7c0,3.85-1.19,7.724-3.518,10.569	C24.952,29.847,25.46,30,26,30c5.2,0,5.996-8.991,6.003-9.082C32.046,20.399,32.479,20,33,20c1.979,0,2.568,2.153,3.087,4.054	C36.465,25.435,36.893,27,37.627,27c0.479,0,0.888-1.64,1.158-2.725C39.34,22.049,40.1,19,43,19c0.553,0,1,0.447,1,1s-0.447,1-1,1	c-1.245,0-1.709,1.488-2.274,3.759C40.23,26.747,39.669,29,37.627,29c-2.262,0-2.931-2.45-3.469-4.419	c-0.121-0.44-0.278-1.018-0.457-1.514C33.075,26.223,31.216,32,26,32c-1.091,0-2.071-0.35-2.931-0.958C21.007,32.865,18.31,34,15,34	c-2.072,0-4.05-0.957-5.774-2.755c-1.889,2.11-3.423,3.389-3.59,3.527C5.449,34.926,5.225,35,5.001,35z M24,14	c-1.738,0-3,2.904-3,6.906c0,2.711,0.766,5.539,2.055,7.308C25.051,25.708,26,22.288,26,19C26,16.056,25.178,14,24,14z M11,7	c-3.454,0-5,5.022-5,10c0,3.447,1.196,7.913,3.248,11.072C12.044,24.525,15,19.479,15,14C15,11.807,13.993,7,11,7z"/></svg>