<svg xmlns="http://www.w3.org/2000/svg" viewBox="0 0 48 48"><path fill="#b31523" d="M37.066,43h-5.333l-2.92,3.64c-0.44,0.549-1.306,0.431-1.584-0.214L21.443,33h12.47l4,8.677	C38.198,42.295,37.747,43,37.066,43z"/><path fill="#cf1928" d="M27.657,33l-5.882,13.438c-0.281,0.642-1.144,0.757-1.582,0.21L17.267,43h-5.333	c-0.681,0-1.132-0.705-0.847-1.323l4-8.677H27.657z"/><path fill="#fdb700" d="M25.982,4.518l2.117,1.187l2.427,0.03c1.411,0.017,2.712,0.768,3.432,1.982l1.239,2.086l2.086,1.239	c1.213,0.721,1.964,2.021,1.982,3.432l0.03,2.427l1.187,2.117c0.69,1.231,0.69,2.732,0,3.963l-1.187,2.117l-0.03,2.427	c-0.017,1.411-0.768,2.712-1.982,3.432l-2.086,1.239l-1.239,2.086c-0.721,1.213-2.021,1.964-3.432,1.982l-2.427,0.03l-2.117,1.187	c-1.231,0.69-2.732,0.69-3.963,0l-2.117-1.187l-2.427-0.03c-1.411-0.017-2.712-0.768-3.432-1.982l-1.239-2.086l-2.086-1.239	c-1.213-0.721-1.964-2.021-1.982-3.432l-0.03-2.427l-1.187-2.117c-0.69-1.231-0.69-2.732,0-3.963l1.187-2.117l0.03-2.427	c0.017-1.411,0.768-2.712,1.982-3.432l2.086-1.239l1.239-2.086c0.721-1.213,2.021-1.964,3.432-1.982l2.427-0.03l2.117-1.187	C23.249,3.827,24.751,3.827,25.982,4.518z"/><linearGradient id="grwevFc_Zs06aB3~MId8Oa" x1="11" x2="37" y1="21" y2="21" gradientUnits="userSpaceOnUse"><stop offset="0" stop-color="#fede00"/><stop offset="1" stop-color="#ffd000"/></linearGradient><circle cx="24" cy="21" r="13" fill="url(#grwevFc_Zs06aB3~MId8Oa)"/><path d="M32.514,17.012l-0.932-0.932c-0.646-0.646-1.698-0.646-2.345,0l-6.459,6.459l-3.165-3.164	c-0.627-0.629-1.722-0.628-2.347-0.001l-0.932,0.932c-0.312,0.313-0.485,0.729-0.485,1.172c0,0.443,0.173,0.86,0.486,1.173	l5.269,5.269c0.313,0.314,0.73,0.487,1.174,0.487s0.86-0.173,1.173-0.486l8.564-8.563C32.828,19.043,33,18.627,33,18.185	C33,17.741,32.827,17.324,32.514,17.012z" opacity=".05"/><path d="M32.161,17.365l-0.932-0.932c-0.452-0.451-1.188-0.451-1.638,0l-6.812,6.812l-3.519-3.519	c-0.438-0.438-1.202-0.438-1.639,0l-0.932,0.931c-0.219,0.22-0.339,0.511-0.339,0.819c0,0.31,0.121,0.601,0.339,0.819l5.269,5.27	c0.219,0.219,0.51,0.34,0.82,0.34s0.601-0.121,0.819-0.34l8.563-8.562c0.219-0.22,0.339-0.511,0.339-0.819	C32.5,17.875,32.379,17.584,32.161,17.365z" opacity=".07"/><path fill="#fff" d="M22.312,27.213l-5.27-5.27c-0.257-0.257-0.257-0.674,0-0.932l0.931-0.931	c0.257-0.257,0.674-0.257,0.932,0l3.872,3.872l7.166-7.166c0.257-0.257,0.674-0.257,0.932,0l0.931,0.931	c0.257,0.257,0.257,0.674,0,0.932l-8.563,8.563C22.987,27.47,22.57,27.47,22.312,27.213z"/></svg>