<svg xmlns="http://www.w3.org/2000/svg" viewBox="0 0 48 48"><path fill="#33c481" d="M9,6h20c0.552,0,1,0.448,1,1v11H8V7C8,6.448,8.448,6,9,6z"/><path fill="#21a366" d="M16,18h20c0.552,0,1,0.448,1,1v11H15V19C15,18.448,15.448,18,16,18z"/><path fill="#185c37" d="M43,42H19c-0.552,0-1-0.448-1-1V30h25c0.552,0,1,0.448,1,1v10C44,41.552,43.552,42,43,42z"/><path d="M18,37h4.319C24.352,37,26,35.352,26,33.319V16.681C26,14.648,24.352,13,22.319,13H8v5l10,12V37z" opacity=".05"/><path d="M18,36h4.213c1.724,0,3.121-1.397,3.121-3.121V16.454c0-1.724-1.397-3.121-3.121-3.121H8V18l10,12V36	z" opacity=".07"/><path d="M18,35h4.106c1.414,0,2.56-1.146,2.56-2.56V16.227c0-1.414-1.146-2.56-2.56-2.56H8V18l10,12V35z" opacity=".09"/><linearGradient id="kpY4FkCda59pphfbwDcGQa" x1="4.673" x2="23.249" y1="14.673" y2="33.249" gradientUnits="userSpaceOnUse"><stop offset="0" stop-color="#17874d"/><stop offset="1" stop-color="#0c6a34"/></linearGradient><path fill="url(#kpY4FkCda59pphfbwDcGQa)" d="M22,34H6c-1.105,0-2-0.895-2-2V16c0-1.105,0.895-2,2-2h16c1.105,0,2,0.895,2,2v16	C24,33.105,23.105,34,22,34z"/><path fill="#fff" d="M14.825,19.012h-4.673v10h2.024v-3.521h2.276c1.876,0,3.397-1.521,3.397-3.397v-0.058	C17.848,20.366,16.494,19.012,14.825,19.012z M15.721,22.358c0,0.859-0.697,1.556-1.556,1.556h-1.99v-3.325h1.99	c0.859,0,1.556,0.697,1.556,1.556V22.358z"/></svg>