<svg xmlns="http://www.w3.org/2000/svg" viewBox="0 0 48 48"><linearGradient id="w7Sio44oXlUqMJIBhJav9a" x1="16.86" x2="29.576" y1="660.467" y2="620.454" gradientTransform="matrix(1 0 0 -1 0 662)" gradientUnits="userSpaceOnUse"><stop offset="0" stop-color="#c77740"/><stop offset="1" stop-color="#b0622b"/></linearGradient><path fill="url(#w7Sio44oXlUqMJIBhJav9a)" d="M38,4H26c0,1.105-0.895,2-2,2s-2-0.895-2-2H10C8.895,4,8,4.895,8,6v36c0,1.105,0.895,2,2,2h28	c1.105,0,2-0.895,2-2V6C40,4.895,39.105,4,38,4z"/><linearGradient id="w7Sio44oXlUqMJIBhJav9b" x1="24" x2="24" y1="625.034" y2="621.107" gradientTransform="matrix(1 0 0 -1 0 662)" gradientUnits="userSpaceOnUse"><stop offset=".442" stop-color="#878786"/><stop offset=".594" stop-color="#9f9f9e"/><stop offset=".859" stop-color="#c3c3c3"/><stop offset="1" stop-color="#d1d1d1"/></linearGradient><path fill="url(#w7Sio44oXlUqMJIBhJav9b)" d="M37,42H11c-0.552,0-1-0.448-1-1v-9h28v9C38,41.552,37.552,42,37,42z"/><path fill="#f3f3f3" d="M37,40H11c-0.552,0-1-0.448-1-1V7c0-0.552,0.448-1,1-1h26c0.552,0,1,0.448,1,1v32	C38,39.552,37.552,40,37,40z"/><linearGradient id="w7Sio44oXlUqMJIBhJav9c" x1="773.07" x2="774.954" y1="860.928" y2="853.091" gradientTransform="matrix(-1 0 0 1 798 -851)" gradientUnits="userSpaceOnUse"><stop offset="0" stop-color="#c3cdd9"/><stop offset="1" stop-color="#9fa7b0"/></linearGradient><path fill="url(#w7Sio44oXlUqMJIBhJav9c)" d="M31,8V4h-4.184C26.403,2.837,25.304,2,24,2s-2.403,0.837-2.816,2H17v4c0,0.552,0.448,1,1,1h12	C30.552,9,31,8.552,31,8z M24,4c0.552,0,1,0.448,1,1s-0.448,1-1,1s-1-0.448-1-1S23.448,4,24,4z"/><radialGradient id="w7Sio44oXlUqMJIBhJav9d" cx="38.001" cy="37.999" r="12.001" gradientUnits="userSpaceOnUse"><stop offset="0"/><stop offset="1" stop-opacity="0"/></radialGradient><path fill="url(#w7Sio44oXlUqMJIBhJav9d)" d="M38,26c-6.627,0-12,5.373-12,12c0,2.188,0.595,4.234,1.619,6H38c1.105,0,2-0.895,2-2V26.18	C39.348,26.07,38.683,26,38,26z"/><linearGradient id="w7Sio44oXlUqMJIBhJav9e" x1="30.929" x2="45.071" y1="30.929" y2="45.071" gradientUnits="userSpaceOnUse"><stop offset="0" stop-color="#889097"/><stop offset="1" stop-color="#64717c"/></linearGradient><circle cx="38" cy="38" r="10" fill="url(#w7Sio44oXlUqMJIBhJav9e)"/><radialGradient id="w7Sio44oXlUqMJIBhJav9f" cx="38" cy="38" r="9" gradientUnits="userSpaceOnUse"><stop offset="0"/><stop offset="1" stop-opacity="0"/></radialGradient><circle cx="38" cy="38" r="9" fill="url(#w7Sio44oXlUqMJIBhJav9f)"/><radialGradient id="w7Sio44oXlUqMJIBhJav9g" cx="37.948" cy="30.186" r="17.828" gradientUnits="userSpaceOnUse"><stop offset="0" stop-color="#fafafb"/><stop offset="1" stop-color="#c8cdd1"/></radialGradient><circle cx="38" cy="38" r="8" fill="url(#w7Sio44oXlUqMJIBhJav9g)"/><path fill="#d83b01" d="M40.919,43.667c-0.184,0.095-0.41,0.022-0.505-0.162l-2.747-5.334	c-0.095-0.184-0.022-0.41,0.162-0.505c0.184-0.095,0.41-0.022,0.505,0.162l2.747,5.334C41.175,43.346,41.103,43.573,40.919,43.667z"/><path fill="#45494d" d="M38,38.375c-0.096,0-0.192-0.037-0.265-0.11c-0.146-0.146-0.146-0.384,0-0.53l4.243-4.243	c0.146-0.146,0.384-0.146,0.53,0s0.146,0.384,0,0.53l-4.243,4.243C38.192,38.338,38.096,38.375,38,38.375z"/><path fill="#45494d" d="M38,38.625c-0.091,0-0.183-0.02-0.27-0.062l-3.894-1.868c-0.311-0.149-0.442-0.522-0.293-0.834	c0.149-0.311,0.523-0.443,0.834-0.293l3.894,1.868c0.311,0.149,0.442,0.522,0.293,0.834C38.456,38.494,38.232,38.625,38,38.625z"/><circle cx="38" cy="38" r="1" fill="#1e2021"/><path fill="#0d61a9" d="M29.249,27.352c0-5.14-7.589-4.136-7.589-7.173c0-1.586,1.782-1.669,2.34-1.669	c1.34,0,2.632,0.359,3.618,0.822c0.311,0.146,0.668-0.07,0.668-0.413v-1.496c0-0.502-0.189-0.799-0.49-0.916	c-0.676-0.263-1.646-0.454-3.082-0.502v-1.646c0-0.197-0.16-0.357-0.357-0.357h-0.714c-0.197,0-0.357,0.16-0.357,0.357v1.673	c-2.226,0.218-4.534,1.474-4.534,4.397c0,5.328,7.589,4.272,7.589,7.078c0,0.882-0.563,1.642-2.34,1.642	c-1.786,0-3.426-0.623-4.334-1.088C19.36,27.903,19,28.129,19,28.472v1.703c0,0.327,0.197,0.617,0.497,0.745	c1.076,0.457,2.519,0.803,3.788,0.904v1.819c0,0.197,0.16,0.357,0.357,0.357h0.714c0.197,0,0.357-0.16,0.357-0.357v-1.815	C28.045,31.55,29.249,29.32,29.249,27.352z"/></svg>