<svg xmlns="http://www.w3.org/2000/svg" data-name="Слой 1" viewBox="0 0 48 48"><defs><linearGradient id="nMW2UjFYQtzs3_SByz_tga" x1="15.516" x2="35.657" y1="15.516" y2="35.657" data-name="Безымянный градиент 147" gradientUnits="userSpaceOnUse"><stop offset="0" stop-color="#dfe9f2"/><stop offset=".391" stop-color="#d6e0e9"/><stop offset="1" stop-color="#bfc8d1"/></linearGradient></defs><path fill="#bfc8d1" d="M21.62617,40.94252,8.25278,43.91438a3.49267,3.49267,0,0,1-4.16716-4.16717L7.05748,26.37383A4.44313,4.44313,0,0,1,8.25305,24.1959L24.1959,8.25305a4.44313,4.44313,0,0,1,2.17793-1.19557L39.74722,4.08562a3.49267,3.49267,0,0,1,4.16716,4.16717L40.94252,21.62617A4.44313,4.44313,0,0,1,39.747,23.8041L23.8041,39.747A4.44313,4.44313,0,0,1,21.62617,40.94252Z"/><path d="M40.519,6a1.47856,1.47856,0,0,1,1.1543.56543,1.46331,1.46331,0,0,1,.28857,1.25391l-2.97168,13.373a2.43568,2.43568,0,0,1-.65673,1.19629L22.39014,38.333a2.44759,2.44759,0,0,1-1.19873.65722L7.81885,41.96191A1.54874,1.54874,0,0,1,7.481,42a1.47856,1.47856,0,0,1-1.1543-.56543,1.46331,1.46331,0,0,1-.28857-1.25391l2.97168-13.373a2.43568,2.43568,0,0,1,.65673-1.19629L25.60986,9.667a2.44759,2.44759,0,0,1,1.19873-.65722L40.18115,6.03809A1.54874,1.54874,0,0,1,40.519,6m0-1a2.55458,2.55458,0,0,0-.55661.06226L26.59167,8.03357a3.44548,3.44548,0,0,0-1.68838.92578L8.95937,24.9043a3.43191,3.43191,0,0,0-.92571,1.686L5.0619,39.96375A2.49513,2.49513,0,0,0,7.481,43a2.55465,2.55465,0,0,0,.55661-.06226l13.37077-2.97131a3.44554,3.44554,0,0,0,1.68837-.92578L39.04062,23.0957a3.43193,3.43193,0,0,0,.92572-1.686L42.93811,8.03625A2.49513,2.49513,0,0,0,40.519,5Z" opacity=".05"/><path d="M40.519,6a1.47856,1.47856,0,0,1,1.1543.56543,1.46331,1.46331,0,0,1,.28857,1.25391l-2.97168,13.373a2.43568,2.43568,0,0,1-.65673,1.19629L22.39014,38.333a2.44759,2.44759,0,0,1-1.19873.65722L7.81885,41.96191A1.54874,1.54874,0,0,1,7.481,42a1.47856,1.47856,0,0,1-1.1543-.56543,1.46331,1.46331,0,0,1-.28857-1.25391l2.97168-13.373a2.43568,2.43568,0,0,1,.65673-1.19629L25.60986,9.667a2.44759,2.44759,0,0,1,1.19873-.65722L40.18115,6.03809A1.54874,1.54874,0,0,1,40.519,6m0-.5a2.04789,2.04789,0,0,0-.44723.05017L26.70013,8.52173a2.94665,2.94665,0,0,0-1.44354.79138L9.31294,25.25781A2.93344,2.93344,0,0,0,8.52171,26.699L5.55,40.07214A1.99522,1.99522,0,0,0,7.481,42.5a2.04807,2.04807,0,0,0,.44725-.05017l13.37167-2.97156a2.94673,2.94673,0,0,0,1.44354-.79138l15.94365-15.9447A2.93375,2.93375,0,0,0,39.4783,21.301L42.45,7.92786A1.99523,1.99523,0,0,0,40.519,5.5Z" opacity=".07"/><path fill="url(#nMW2UjFYQtzs3_SByz_tga)" d="M7.481,42a1.47856,1.47856,0,0,1-1.1543-.56543,1.46331,1.46331,0,0,1-.28857-1.25391l2.97168-13.373a2.43568,2.43568,0,0,1,.65673-1.19629L25.60986,9.667a2.44759,2.44759,0,0,1,1.19873-.65722L40.18115,6.03809A1.54874,1.54874,0,0,1,40.519,6a1.47856,1.47856,0,0,1,1.1543.56543,1.46331,1.46331,0,0,1,.28857,1.25391l-2.97168,13.373a2.43568,2.43568,0,0,1-.65673,1.19629L22.39014,38.333a2.44759,2.44759,0,0,1-1.19873.65722L7.81885,41.96191A1.54874,1.54874,0,0,1,7.481,42Z"/><path fill="#889097" d="M35.16789,25.16789,22.83211,12.83211a1,1,0,0,0-1.41422,0l-1.71257,1.71257a1,1,0,0,0-.22923,1.05823l.29782.79418a1,1,0,0,1-.22923,1.05823l-2.08936,2.08936a1,1,0,0,1-1.05823.22923l-.79418-.29782a1,1,0,0,0-1.05823.22923l-1.71257,1.71257a1,1,0,0,0,0,1.41422L25.16789,35.16789a1,1,0,0,0,1.41422,0l1.87781-1.87781a1,1,0,0,0,.16113-1.20324l-.2421-.42368a1,1,0,0,1,.16114-1.20325l2.0046-2.0046a1,1,0,0,1,1.05822-.22922l.79418.29782a1,1,0,0,0,1.05823-.22923l1.71257-1.71257A1,1,0,0,0,35.16789,25.16789Z"/><path fill="#64717c" d="M15,23a1,1,0,1,1,1-1A1,1,0,0,1,15,23ZM27,33a1,1,0,1,0-1,1A1,1,0,0,0,27,33ZM23,15a1,1,0,1,0-1,1A1,1,0,0,0,23,15ZM34,26a1,1,0,1,0-1,1A1,1,0,0,0,34,26ZM20,19a1,1,0,1,0-1,1A1,1,0,0,0,20,19ZM30,29a1,1,0,1,0-1,1A1,1,0,0,0,30,29Z"/><path d="M27.5,13.91418a.9967.9967,0,0,1,.70709.293l5.58582,5.5857a1.00015,1.00015,0,0,1,0,1.4143l-12.5858,12.5857a.99982.99982,0,0,1-1.41422,0l-5.58578-5.5857a1.00011,1.00011,0,0,1,0-1.4143l12.5858-12.5857a.9967.9967,0,0,1,.70709-.293m0-1a1.98694,1.98694,0,0,0-1.41431.58594L13.5,26.08569a2.00266,2.00266,0,0,0-.00011,2.82849L19.08578,34.5a1.9999,1.9999,0,0,0,2.82853-.00012L34.5,21.91431a2.0027,2.0027,0,0,0,.00012-2.82849L28.91418,13.5A1.9868,1.9868,0,0,0,27.5,12.91418Z" opacity=".05"/><path d="M27.5,13.91418a.9967.9967,0,0,1,.70709.293l5.58582,5.5857a1.00015,1.00015,0,0,1,0,1.4143l-12.5858,12.5857a.99982.99982,0,0,1-1.41422,0l-5.58578-5.5857a1.00011,1.00011,0,0,1,0-1.4143l12.5858-12.5857a.9967.9967,0,0,1,.70709-.293m0-.5a1.48974,1.48974,0,0,0-1.0607.43946L13.85356,26.43933a1.50194,1.50194,0,0,0,0,2.12134l5.58583,5.58569a1.49976,1.49976,0,0,0,2.12136,0L34.14645,21.56067a1.502,1.502,0,0,0,.00006-2.12134l-5.58587-5.58569A1.48949,1.48949,0,0,0,27.5,13.41418Z" opacity=".07"/><rect width="19.799" height="9.899" x="14.101" y="19.05" fill="#64717c" rx="1" transform="rotate(-45 24 24)"/><g><path d="M10.5,31a1.49514,1.49514,0,0,1,1.06055.43945l5,5a1.49984,1.49984,0,1,1-2.1211,2.1211l-5-5A1.5,1.5,0,0,1,10.5,31m0-1a2.5,2.5,0,0,0-1.76765,4.2677l5,5a2.49987,2.49987,0,0,0,3.5353-3.5354l-5-5A2.48387,2.48387,0,0,0,10.5,30Z" opacity=".05"/><path d="M10.5,31a1.49514,1.49514,0,0,1,1.06055.43945l5,5a1.49984,1.49984,0,1,1-2.1211,2.1211l-5-5A1.5,1.5,0,0,1,10.5,31m0-.5a2,2,0,0,0-1.41411,3.41406l5,5a1.9998,1.9998,0,1,0,2.82818-2.82812l-5-5A1.98686,1.98686,0,0,0,10.5,30.5Z" opacity=".07"/><path fill="#64717c" d="M15.5,39a1.49514,1.49514,0,0,1-1.06055-.43945l-5-5a1.49984,1.49984,0,0,1,2.1211-2.1211l5,5A1.5,1.5,0,0,1,15.5,39Z"/></g><g><path d="M32.5,9a1.49514,1.49514,0,0,1,1.06055.43945l5,5a1.49984,1.49984,0,1,1-2.1211,2.1211l-5-5A1.5,1.5,0,0,1,32.5,9m0-1a2.5,2.5,0,0,0-1.76767,4.2677l5,5a2.49988,2.49988,0,0,0,3.53534-3.5354l-5-5A2.484,2.484,0,0,0,32.5,8Z" opacity=".05"/><path d="M32.5,9a1.49514,1.49514,0,0,1,1.06055.43945l5,5a1.49984,1.49984,0,1,1-2.1211,2.1211l-5-5A1.5,1.5,0,0,1,32.5,9m0-.5a2,2,0,0,0-1.41412,3.41406l5,5a1.9998,1.9998,0,1,0,2.82818-2.82812l-5-5A1.98688,1.98688,0,0,0,32.5,8.5Z" opacity=".07"/><path fill="#64717c" d="M37.5,17a1.49514,1.49514,0,0,1-1.06055-.43945l-5-5a1.49984,1.49984,0,0,1,2.1211-2.1211l5,5A1.5,1.5,0,0,1,37.5,17Z"/></g></svg>