<svg xmlns="http://www.w3.org/2000/svg" data-name="Слой 1" viewBox="0 0 48 48"><defs><linearGradient id="Wc2BrIy_ulGxfine4JmHBa" x1="15.615" x2="34.925" y1=".961" y2="54.017" data-name="Безымянный градиент 3" gradientUnits="userSpaceOnUse"><stop offset="0" stop-color="#33bef0"/><stop offset="1" stop-color="#22a5e2"/></linearGradient><linearGradient id="Wc2BrIy_ulGxfine4JmHBb" x1="3.75" x2="18.844" y1="24" y2="24" data-name="Безымянный градиент 147" gradientUnits="userSpaceOnUse"><stop offset="0" stop-color="#dfe9f2"/><stop offset=".391" stop-color="#d6e0e9"/><stop offset="1" stop-color="#bfc8d1"/></linearGradient></defs><path fill="url(#Wc2BrIy_ulGxfine4JmHBa)" d="M37,4H11A1.99944,1.99944,0,0,0,9,6V42a1.99947,1.99947,0,0,0,2,2H37a1.99947,1.99947,0,0,0,2-2V6A1.99944,1.99944,0,0,0,37,4Z"/><path fill="url(#Wc2BrIy_ulGxfine4JmHBb)" d="M12.5,12h-5A1.5,1.5,0,0,1,6,10.5H6A1.5,1.5,0,0,1,7.5,9h5A1.5,1.5,0,0,1,14,10.5h0A1.5,1.5,0,0,1,12.5,12ZM14,19.5h0A1.5,1.5,0,0,0,12.5,18h-5A1.5,1.5,0,0,0,6,19.5H6A1.5,1.5,0,0,0,7.5,21h5A1.5,1.5,0,0,0,14,19.5Zm0,9h0A1.5,1.5,0,0,0,12.5,27h-5A1.5,1.5,0,0,0,6,28.5H6A1.5,1.5,0,0,0,7.5,30h5A1.5,1.5,0,0,0,14,28.5Zm0,9h0A1.5,1.5,0,0,0,12.5,36h-5A1.5,1.5,0,0,0,6,37.5H6A1.5,1.5,0,0,0,7.5,39h5A1.5,1.5,0,0,0,14,37.5Z"/><rect width="9" height="2" x="18" y="26" fill="#1b9de2" rx=".5"/><rect width="6" height="2" x="29" y="26" fill="#1b9de2" rx=".5"/><path fill="#50e6ff" d="M19,12H34a1.14616,1.14616,0,0,1,1,1.25v7.5A1.14616,1.14616,0,0,1,34,22H19a1.14616,1.14616,0,0,1-1-1.25v-7.5A1.14616,1.14616,0,0,1,19,12Z"/><rect width="17" height="2" x="18" y="30" fill="#1b9de2" rx=".5"/><rect width="11" height="2" x="18" y="34" fill="#1b9de2" rx=".5"/><path d="M12.5,8H9V9h3.5a1.5,1.5,0,0,1,0,3H9v1h3.5a2.5,2.5,0,0,0,0-5Z" opacity=".05"/><path d="M12.5,8.5H9V9h3.5a1.5,1.5,0,0,1,0,3H9v.5h3.5a2,2,0,0,0,0-4Z" opacity=".07"/><path d="M12.5,17H9v1h3.5a1.5,1.5,0,0,1,0,3H9v1h3.5a2.5,2.5,0,0,0,0-5Z" opacity=".05"/><path d="M12.5,17.5H9V18h3.5a1.5,1.5,0,0,1,0,3H9v.5h3.5a2,2,0,0,0,0-4Z" opacity=".07"/><g><path d="M12.5,26H9v1h3.5a1.5,1.5,0,0,1,0,3H9v1h3.5a2.5,2.5,0,0,0,0-5Z" opacity=".05"/><path d="M12.5,26.5H9V27h3.5a1.5,1.5,0,0,1,0,3H9v.5h3.5a2,2,0,0,0,0-4Z" opacity=".07"/></g><g><path d="M12.5,35H9v1h3.5a1.5,1.5,0,0,1,0,3H9v1h3.5a2.5,2.5,0,0,0,0-5Z" opacity=".05"/><path d="M12.5,35.5H9V36h3.5a1.5,1.5,0,0,1,0,3H9v.5h3.5a2,2,0,0,0,0-4Z" opacity=".07"/></g></svg>