<svg xmlns="http://www.w3.org/2000/svg" viewBox="0 0 48 48"><g opacity=".05"><path d="M13.535,18.586h-1.207c-0.216,0-0.43,0.071-0.605,0.203c-0.318,0.242-0.687,0.472-1.097,0.682 c-0.395,0.202-0.829,0.374-1.288,0.509c-0.425,0.122-0.721,0.518-0.721,0.96v1.674c0,0.286,0.123,0.559,0.334,0.746 c0.215,0.193,0.503,0.286,0.787,0.246c0.223-0.027,0.448-0.069,0.672-0.13c0.045-0.012,0.09-0.024,0.134-0.037v5.373 c0,0.552,0.449,1,1,1h1.991c0.551,0,1-0.448,1-1v-9.226C14.535,19.034,14.086,18.586,13.535,18.586z"/><path d="M34.457,18.637c-1.445,0-2.573,0.556-3.352,1.65c-0.166,0.233-0.309,0.493-0.437,0.772 c-0.047-0.147-0.087-0.296-0.155-0.435c-0.205-0.417-0.497-0.781-0.867-1.084c-0.353-0.289-0.771-0.516-1.24-0.671 c-0.92-0.31-2.063-0.311-2.985-0.001c-0.471,0.158-0.889,0.388-1.24,0.68c-0.363,0.301-0.652,0.667-0.861,1.087 c-0.062,0.125-0.096,0.26-0.14,0.392c-0.848-2.006-2.498-2.39-3.611-2.39c-1.445,0-2.573,0.556-3.352,1.65 c-0.704,0.988-1.061,2.387-1.061,4.157c0,4.807,2.654,5.524,4.235,5.524c1.413,0,2.52-0.553,3.29-1.644 c0.115-0.162,0.206-0.352,0.302-0.536c0.014,0.03,0.019,0.063,0.034,0.093c0.225,0.444,0.54,0.829,0.936,1.145 c0.379,0.303,0.831,0.538,1.34,0.697c0.488,0.154,1.024,0.232,1.593,0.232c0.579,0,1.12-0.079,1.61-0.236 c0.51-0.163,0.96-0.4,1.338-0.705c0.381-0.306,0.682-0.681,0.903-1.109c0.895,1.727,2.466,2.063,3.543,2.063 c1.413,0,2.52-0.553,3.29-1.644c0.694-0.982,1.046-2.358,1.046-4.089C38.617,19.364,36.011,18.637,34.457,18.637z M19.439,22.257 c0.101,0.228,0.256,0.783,0.256,2.043c0,1.185-0.145,1.786-0.254,2.038c-0.109-0.234-0.254-0.804-0.254-1.944 C19.186,23.107,19.356,22.486,19.439,22.257z M26.586,26.06L26.586,26.06c0.024-0.059,0.047-0.086,0.142-0.152 c0.049-0.02,0.102-0.028,0.166-0.028c0.063,0,0.111,0.008,0.145,0.022c0.047,0.021,0.082,0.043,0.161,0.155 c0.019,0.049,0.028,0.099,0.028,0.156c0,0.09-0.016,0.143-0.072,0.241l-0.091,0.054c-0.091,0.036-0.268,0.036-0.362-0.001 l-0.11-0.101l-0.003-0.001c-0.01-0.026-0.027-0.086-0.027-0.192C26.56,26.152,26.569,26.1,26.586,26.06z M27.006,22.217 c0,0.041-0.008,0.06-0.011,0.066l-0.11,0.063l-0.001,0.002l-0.046-0.132c0-0.052,0.009-0.081,0.016-0.1l0.12-0.026l0.36-0.348 L27.006,22.217z M34.342,22.294c0.1,0.248,0.24,0.81,0.24,2.006c0,1.185-0.145,1.786-0.254,2.038 c-0.109-0.234-0.254-0.804-0.254-1.944C34.074,23.185,34.223,22.563,34.342,22.294z"/></g><g opacity=".07"><path d="M13.535,19.086h-1.207c-0.109,0-0.215,0.036-0.302,0.102c-0.344,0.262-0.738,0.506-1.171,0.728 c-0.426,0.219-0.889,0.401-1.378,0.545c-0.213,0.062-0.36,0.258-0.36,0.479v1.674c0,0.144,0.062,0.279,0.168,0.374 c0.106,0.096,0.247,0.141,0.392,0.122c0.2-0.024,0.402-0.063,0.604-0.117c0.203-0.054,0.398-0.119,0.587-0.197 c0.06-0.024,0.118-0.05,0.175-0.076v6.093c0,0.276,0.224,0.5,0.5,0.5h1.991c0.276,0,0.5-0.224,0.5-0.5v-9.226 C14.035,19.31,13.811,19.086,13.535,19.086z"/><path d="M19.57,19.137c-1.274,0-2.265,0.484-2.944,1.44c-0.642,0.901-0.968,2.203-0.968,3.867c0,4.152,2.031,5.024,3.735,5.024 c1.241,0,2.21-0.481,2.882-1.432c0.633-0.896,0.955-2.175,0.955-3.801C23.229,20.021,21.239,19.137,19.57,19.137z M19.456,26.946 c-0.489,0-0.77-0.931-0.77-2.553c0-1.716,0.297-2.74,0.795-2.74c0.345,0,0.713,0.695,0.713,2.646 C20.195,25.957,19.918,26.946,19.456,26.946z"/><path d="M30.048,24.666c-0.183-0.243-0.41-0.46-0.673-0.646c-0.015-0.01-0.03-0.021-0.045-0.03 c0.188-0.154,0.354-0.324,0.495-0.508c0.337-0.438,0.508-0.934,0.508-1.473c0-0.416-0.09-0.808-0.267-1.164 c-0.173-0.353-0.421-0.661-0.735-0.918c-0.306-0.251-0.671-0.447-1.083-0.584c-0.807-0.271-1.851-0.274-2.666-0.001 c-0.412,0.139-0.775,0.337-1.081,0.591c-0.31,0.257-0.556,0.568-0.732,0.924c-0.179,0.361-0.27,0.758-0.27,1.178 c0,0.536,0.159,1.03,0.472,1.47c0.133,0.188,0.291,0.359,0.471,0.516c-0.022,0.016-0.044,0.03-0.065,0.046 c-0.263,0.187-0.486,0.403-0.665,0.645c-0.18,0.243-0.317,0.511-0.407,0.795c-0.089,0.28-0.134,0.576-0.134,0.878 c0,0.458,0.099,0.887,0.294,1.273c0.192,0.38,0.462,0.709,0.801,0.979c0.33,0.264,0.727,0.47,1.179,0.611 c0.439,0.139,0.925,0.209,1.442,0.209c0.526,0,1.017-0.071,1.458-0.212c0.45-0.145,0.847-0.353,1.178-0.619 c0.34-0.272,0.607-0.604,0.796-0.986c0.189-0.385,0.285-0.814,0.285-1.275c0-0.307-0.046-0.606-0.137-0.892 C30.373,25.183,30.233,24.911,30.048,24.666z M27.457,22.474c-0.033,0.082-0.077,0.151-0.135,0.212 c-0.054,0.057-0.114,0.1-0.188,0.133c-0.126,0.058-0.292,0.062-0.433-0.002c-0.073-0.032-0.132-0.073-0.183-0.128 c-0.054-0.058-0.098-0.128-0.131-0.21c-0.033-0.08-0.049-0.166-0.049-0.262c0-0.1,0.016-0.189,0.047-0.274 c0.03-0.08,0.07-0.146,0.12-0.202c0.05-0.054,0.109-0.097,0.182-0.129c0.067-0.031,0.143-0.046,0.231-0.046 c0.082,0,0.156,0.015,0.224,0.045c0.074,0.032,0.136,0.076,0.19,0.133c0.053,0.055,0.094,0.12,0.125,0.199 c0.032,0.083,0.048,0.173,0.048,0.274C27.506,22.311,27.49,22.396,27.457,22.474z M26.124,25.868 c0.043-0.104,0.099-0.19,0.17-0.263c0.071-0.071,0.153-0.126,0.25-0.164c0.107-0.042,0.221-0.063,0.349-0.063 c0.134,0,0.248,0.021,0.346,0.064c0.104,0.046,0.191,0.104,0.265,0.179c0.07,0.071,0.124,0.155,0.162,0.254 c0.042,0.107,0.062,0.218,0.062,0.337c0,0.135-0.021,0.255-0.063,0.356c-0.041,0.101-0.094,0.181-0.163,0.246 c-0.07,0.067-0.152,0.119-0.255,0.158c-0.213,0.083-0.518,0.079-0.724,0c-0.099-0.036-0.18-0.087-0.249-0.152 c-0.065-0.063-0.115-0.14-0.152-0.235c-0.041-0.104-0.061-0.23-0.061-0.373C26.06,26.086,26.082,25.97,26.124,25.868z"/><path d="M34.457,19.137c-1.274,0-2.265,0.484-2.944,1.44c-0.642,0.901-0.968,2.203-0.968,3.867c0,4.152,2.031,5.024,3.735,5.024 c1.241,0,2.21-0.481,2.882-1.432c0.633-0.896,0.955-2.175,0.955-3.801C38.117,20.021,36.127,19.137,34.457,19.137z M34.369,21.653 c0.345,0,0.713,0.695,0.713,2.646c0,1.657-0.276,2.646-0.739,2.646c-0.489,0-0.77-0.931-0.77-2.553 C33.574,22.678,33.871,21.653,34.369,21.653z"/></g><radialGradient id="59GZ41foUKr~L5On~Wkssa" cx="39.144" cy="-1057.052" r="23.827" gradientTransform="matrix(1.0244 0 0 -1.0645 10.785 -1090.745)" gradientUnits="userSpaceOnUse"><stop offset="0" stop-color="#bd8af5"/><stop offset=".137" stop-color="#b88bf5"/><stop offset=".309" stop-color="#a88ff3"/><stop offset=".499" stop-color="#8f96f2"/><stop offset=".702" stop-color="#6b9eef"/><stop offset=".913" stop-color="#3eaaec"/><stop offset="1" stop-color="#29afea"/></radialGradient><path fill="url(#59GZ41foUKr~L5On~Wkssa)" d="M43,41H5c-1.105,0-2-0.895-2-2V10c0-1.105,0.895-2,2-2h38c1.105,0,2,0.895,2,2v29 C45,40.105,44.105,41,43,41z"/><path fill="#fff" d="M41,15h-2c-0.552,0-1-0.448-1-1v-2c0-0.552,0.448-1,1-1h2c0.552,0,1,0.448,1,1v2 C42,14.552,41.552,15,41,15z"/><path fill="#fff" d="M10,12v2c0,0.552-0.448,1-1,1H7c-0.552,0-1-0.448-1-1v-2c0-0.552,0.448-1,1-1h2 C9.552,11,10,11.448,10,12z"/><path fill="#fff" d="M18,12v2c0,0.552-0.448,1-1,1h-2c-0.552,0-1-0.448-1-1v-2c0-0.552,0.448-1,1-1h2 C17.552,11,18,11.448,18,12z"/><path fill="#fff" d="M26,12v2c0,0.552-0.448,1-1,1h-2c-0.552,0-1-0.448-1-1v-2c0-0.552,0.448-1,1-1h2 C25.552,11,26,11.448,26,12z"/><path fill="#fff" d="M34,12v2c0,0.552-0.448,1-1,1h-2c-0.552,0-1-0.448-1-1v-2c0-0.552,0.448-1,1-1h2 C33.552,11,34,11.448,34,12z"/><path fill="#fff" d="M41,38h-2c-0.552,0-1-0.448-1-1v-2c0-0.552,0.448-1,1-1h2c0.552,0,1,0.448,1,1v2 C42,37.552,41.552,38,41,38z"/><path fill="#fff" d="M10,35v2c0,0.552-0.448,1-1,1H7c-0.552,0-1-0.448-1-1v-2c0-0.552,0.448-1,1-1h2 C9.552,34,10,34.448,10,35z"/><path fill="#fff" d="M18,35v2c0,0.552-0.448,1-1,1h-2c-0.552,0-1-0.448-1-1v-2c0-0.552,0.448-1,1-1h2 C17.552,34,18,34.448,18,35z"/><path fill="#fff" d="M26,35v2c0,0.552-0.448,1-1,1h-2c-0.552,0-1-0.448-1-1v-2c0-0.552,0.448-1,1-1h2 C25.552,34,26,34.448,26,35z"/><path fill="#fff" d="M34,35v2c0,0.552-0.448,1-1,1h-2c-0.552,0-1-0.448-1-1v-2c0-0.552,0.448-1,1-1h2 C33.552,34,34,34.448,34,35z"/><g><path fill="#fff" d="M13.535,19.586v9.225h-1.991v-6.985c-0.11,0.096-0.239,0.188-0.389,0.274 c-0.15,0.086-0.309,0.164-0.477,0.233s-0.343,0.128-0.524,0.176c-0.181,0.048-0.36,0.083-0.537,0.104v-1.674 c0.518-0.151,1.007-0.344,1.466-0.579c0.459-0.235,0.874-0.493,1.245-0.774H13.535z"/><path fill="#fff" d="M19.393,28.969c-2.157,0-3.235-1.508-3.235-4.524c0-1.565,0.292-2.757,0.875-3.577 s1.429-1.23,2.537-1.23c2.106,0,3.16,1.533,3.16,4.6c0,1.527-0.288,2.697-0.863,3.511C21.292,28.562,20.467,28.969,19.393,28.969z M19.481,21.153c-0.864,0-1.295,1.08-1.295,3.241c0,2.035,0.423,3.052,1.27,3.052c0.826,0,1.239-1.049,1.239-3.146 S20.29,21.153,19.481,21.153z"/><path fill="#fff" d="M23.671,26.382c0-0.252,0.037-0.494,0.111-0.727s0.184-0.449,0.332-0.648s0.332-0.378,0.553-0.535 s0.481-0.286,0.78-0.387c-0.459-0.227-0.815-0.517-1.068-0.872c-0.253-0.354-0.379-0.748-0.379-1.18 c0-0.344,0.073-0.663,0.218-0.956s0.346-0.547,0.603-0.761s0.563-0.381,0.919-0.5s0.745-0.179,1.166-0.179 c0.43,0,0.824,0.06,1.182,0.179s0.667,0.285,0.926,0.497c0.259,0.212,0.46,0.463,0.603,0.752c0.143,0.289,0.215,0.604,0.215,0.944 c0,0.428-0.135,0.817-0.404,1.167s-0.642,0.639-1.118,0.865c0.295,0.101,0.554,0.23,0.777,0.387 c0.223,0.157,0.411,0.337,0.562,0.538c0.152,0.201,0.265,0.421,0.341,0.658s0.114,0.483,0.114,0.739 c0,0.386-0.078,0.737-0.234,1.054c-0.156,0.317-0.376,0.589-0.66,0.818c-0.284,0.229-0.623,0.406-1.017,0.532 c-0.394,0.126-0.829,0.189-1.305,0.189c-0.468,0-0.898-0.062-1.292-0.186c-0.394-0.124-0.733-0.299-1.017-0.525 c-0.284-0.227-0.507-0.498-0.667-0.815S23.671,26.764,23.671,26.382z M25.56,26.213c0,0.206,0.032,0.39,0.095,0.554 c0.063,0.164,0.154,0.302,0.272,0.415c0.118,0.113,0.258,0.2,0.42,0.261c0.162,0.061,0.344,0.091,0.547,0.091 c0.194,0,0.372-0.031,0.534-0.094c0.162-0.063,0.302-0.151,0.42-0.264c0.118-0.113,0.211-0.252,0.278-0.415 c0.067-0.164,0.101-0.346,0.101-0.547c0-0.18-0.032-0.352-0.095-0.516c-0.063-0.164-0.154-0.305-0.272-0.425 c-0.118-0.12-0.258-0.215-0.42-0.286c-0.162-0.071-0.344-0.107-0.547-0.107c-0.19,0-0.367,0.033-0.531,0.098 c-0.164,0.065-0.305,0.157-0.423,0.277c-0.118,0.12-0.211,0.261-0.278,0.425C25.594,25.841,25.56,26.02,25.56,26.213z M25.838,22.217c0,0.159,0.028,0.309,0.085,0.45s0.134,0.262,0.231,0.365s0.212,0.184,0.344,0.242 c0.133,0.059,0.273,0.088,0.42,0.088c0.152,0,0.293-0.029,0.423-0.088c0.131-0.059,0.245-0.141,0.344-0.245 c0.099-0.105,0.177-0.227,0.234-0.365c0.057-0.138,0.085-0.287,0.085-0.447c0-0.164-0.027-0.316-0.082-0.456 c-0.055-0.141-0.132-0.262-0.231-0.365c-0.099-0.103-0.215-0.184-0.348-0.242c-0.133-0.059-0.275-0.088-0.427-0.088 c-0.16,0-0.306,0.03-0.439,0.091c-0.133,0.061-0.246,0.143-0.341,0.245c-0.095,0.103-0.169,0.224-0.221,0.365 C25.865,21.907,25.838,22.057,25.838,22.217z"/><path fill="#fff" d="M34.281,28.969c-2.157,0-3.235-1.508-3.235-4.524c0-1.565,0.292-2.757,0.875-3.577 c0.583-0.82,1.429-1.23,2.537-1.23c2.106,0,3.16,1.533,3.16,4.6c0,1.527-0.288,2.697-0.863,3.511S35.355,28.969,34.281,28.969z M34.369,21.153c-0.864,0-1.295,1.08-1.295,3.241c0,2.035,0.423,3.052,1.27,3.052c0.826,0,1.239-1.049,1.239-3.146 S35.178,21.153,34.369,21.153z"/></g></svg>