<svg xmlns="http://www.w3.org/2000/svg" viewBox="0 0 48 48"><linearGradient id="w4SJEemJ~~HF~sL4NEP_na" x1="6.414" x2="33.377" y1="465.552" y2="485.245" gradientTransform="translate(0 -451.89)" gradientUnits="userSpaceOnUse"><stop offset="0" stop-color="#28afea"/><stop offset="1" stop-color="#047ed6"/></linearGradient><path fill="url(#w4SJEemJ~~HF~sL4NEP_na)" d="M6,40V12h36v28c0,1.1-0.9,2-2,2H8C6.9,42,6,41.1,6,40z"/><linearGradient id="w4SJEemJ~~HF~sL4NEP_nb" x1="6.42" x2="41.198" y1="458.498" y2="465.57" gradientTransform="translate(0 -451.89)" gradientUnits="userSpaceOnUse"><stop offset="0" stop-color="#0077d2"/><stop offset="1" stop-color="#0b59a2"/></linearGradient><path fill="url(#w4SJEemJ~~HF~sL4NEP_nb)" d="M42,8v6H6V8c0-1.1,0.9-2,2-2h32C41.1,6,42,6.9,42,8z"/><path d="M35.5,12.5L35.5,12.5c-1.657,0-3-1.343-3-3V6h6v3.5 C38.5,11.157,37.157,12.5,35.5,12.5z" opacity=".05"/><path d="M35.5,11.75L35.5,11.75c-1.243,0-2.25-1.007-2.25-2.25V6h4.5v3.5 C37.75,10.743,36.743,11.75,35.5,11.75z" opacity=".07"/><path d="M12.5,12.5L12.5,12.5c-1.657,0-3-1.343-3-3V6h6v3.5 C15.5,11.157,14.157,12.5,12.5,12.5z" opacity=".05"/><path d="M12.5,11.75L12.5,11.75c-1.243,0-2.25-1.007-2.25-2.25V6h4.5v3.5 C14.75,10.743,13.743,11.75,12.5,11.75z" opacity=".07"/><path fill="#3ccbf4" d="M12.5,11L12.5,11c-0.828,0-1.5-0.672-1.5-1.5v-4C11,4.672,11.672,4,12.5,4l0,0 C13.328,4,14,4.672,14,5.5v4C14,10.328,13.328,11,12.5,11z"/><path fill="#fff" d="M38,19.5v3c0,0.276-0.224,0.5-0.5,0.5h-3c-0.276,0-0.5-0.224-0.5-0.5v-3c0-0.276,0.224-0.5,0.5-0.5 h3C37.776,19,38,19.224,38,19.5z M30,19.5v3c0,0.276-0.224,0.5-0.5,0.5h-3c-0.276,0-0.5-0.224-0.5-0.5v-3 c0-0.276,0.224-0.5,0.5-0.5h3C29.776,19,30,19.224,30,19.5z M22,19.5v3c0,0.276-0.224,0.5-0.5,0.5h-3c-0.276,0-0.5-0.224-0.5-0.5 v-3c0-0.276,0.224-0.5,0.5-0.5h3C21.776,19,22,19.224,22,19.5z"/><path fill="#fff" d="M38,26.5v3c0,0.276-0.224,0.5-0.5,0.5h-3c-0.276,0-0.5-0.224-0.5-0.5v-3c0-0.276,0.224-0.5,0.5-0.5 h3C37.776,26,38,26.224,38,26.5z M30,26.5v3c0,0.276-0.224,0.5-0.5,0.5h-3c-0.276,0-0.5-0.224-0.5-0.5v-3 c0-0.276,0.224-0.5,0.5-0.5h3C29.776,26,30,26.224,30,26.5z M22,26.5v3c0,0.276-0.224,0.5-0.5,0.5h-3c-0.276,0-0.5-0.224-0.5-0.5 v-3c0-0.276,0.224-0.5,0.5-0.5h3C21.776,26,22,26.224,22,26.5z M14,26.5v3c0,0.276-0.224,0.5-0.5,0.5h-3 c-0.276,0-0.5-0.224-0.5-0.5v-3c0-0.276,0.224-0.5,0.5-0.5h3C13.776,26,14,26.224,14,26.5z"/><path fill="#fff" d="M30,33.5v3c0,0.276-0.224,0.5-0.5,0.5h-3c-0.276,0-0.5-0.224-0.5-0.5v-3c0-0.276,0.224-0.5,0.5-0.5 h3C29.776,33,30,33.224,30,33.5z M22,33.5v3c0,0.276-0.224,0.5-0.5,0.5h-3c-0.276,0-0.5-0.224-0.5-0.5v-3 c0-0.276,0.224-0.5,0.5-0.5h3C21.776,33,22,33.224,22,33.5z M14,33.5v3c0,0.276-0.224,0.5-0.5,0.5h-3c-0.276,0-0.5-0.224-0.5-0.5 v-3c0-0.276,0.224-0.5,0.5-0.5h3C13.776,33,14,33.224,14,33.5z"/><path fill="#3ccbf4" d="M35.5,11L35.5,11c-0.828,0-1.5-0.672-1.5-1.5v-4C34,4.672,34.672,4,35.5,4l0,0 C36.328,4,37,4.672,37,5.5v4C37,10.328,36.328,11,35.5,11z"/><radialGradient id="w4SJEemJ~~HF~sL4NEP_nc" cx="38.021" cy="-873.932" r="11.757" gradientTransform="matrix(1 0 0 -1 0 -835.89)" gradientUnits="userSpaceOnUse"><stop offset="0"/><stop offset="1" stop-opacity="0"/></radialGradient><path fill="url(#w4SJEemJ~~HF~sL4NEP_nc)" d="M38,26c-6.627,0-12,5.373-12,12c0,1.405,0.254,2.747,0.697,4H40c1.1,0,2-0.9,2-2V26.697 C40.747,26.254,39.405,26,38,26z"/><linearGradient id="w4SJEemJ~~HF~sL4NEP_nd" x1="33.702" x2="45.761" y1="-798.203" y2="-814.159" gradientTransform="matrix(1 0 0 -1 0 -765.89)" gradientUnits="userSpaceOnUse"><stop offset="0" stop-color="#f44f5a"/><stop offset=".443" stop-color="#ee3d4a"/><stop offset="1" stop-color="#e52030"/></linearGradient><circle cx="38" cy="38" r="10" fill="url(#w4SJEemJ~~HF~sL4NEP_nd)"/><path fill="#fff" d="M43.5,37.501v1c0,0.276-0.224,0.5-0.5,0.5h-10c-0.276,0-0.5-0.224-0.5-0.5v-1 c0-0.276,0.224-0.5,0.5-0.5h10C43.276,37.001,43.5,37.224,43.5,37.501z"/></svg>