<svg xmlns="http://www.w3.org/2000/svg" viewBox="0 0 48 48"><rect width="28" height="12" x="10" y="31" fill="#0078d4"/><path fill="#199be2" d="M14,9h20V7c0-1.104-0.896-2-2-2H16c-1.104,0-2,0.896-2,2V9z"/><path fill="#199be2" d="M10,11v20h28V11H10z"/><rect width="4" height="4" x="30" y="35" fill="#005094"/><rect width="7" height="8" x="21" y="35" fill="#005094"/><rect width="4" height="4" x="30" y="23" fill="#0d62ab"/><rect width="4" height="4" x="22" y="23" fill="#0d62ab"/><rect width="4" height="4" x="14" y="15" fill="#0d62ab"/><rect width="4" height="4" x="14" y="23" fill="#0d62ab"/><rect width="4" height="4" x="14" y="35" fill="#005094"/><rect width="4" height="4" x="22" y="15" fill="#0d62ab"/><rect width="4" height="4" x="30" y="15" fill="#0d62ab"/><path fill="#35c1f1" d="M38,11H10c-0.553,0-1-0.448-1-1s0.447-1,1-1h28c0.553,0,1,0.448,1,1S38.553,11,38,11z"/><path fill="#37c6d0" d="M44,44V30c0-1.105-0.895-2-2-2H32c-1.105,0-2,0.895-2,2v14c0,1.105,0.895,2,2,2h10	C43.105,46,44,45.105,44,44z"/><path d="M37,36c-2.206,0-4,1.794-4,4v1c0,1.103,0.897,2,2,2h4c1.103,0,2-0.897,2-2v-1	C41,37.794,39.206,36,37,36z" opacity=".05"/><path d="M37,36.5c-1.93,0-3.5,1.57-3.5,3.5v1c0,0.827,0.673,1.5,1.5,1.5h4c0.827,0,1.5-0.673,1.5-1.5v-1	C40.5,38.07,38.93,36.5,37,36.5z" opacity=".07"/><radialGradient id="jCTHL08EZ~fm8iqdMpjr0a" cx="36.2" cy="33.6" r="3.6" gradientTransform="translate(6.833 6) scale(.8333)" gradientUnits="userSpaceOnUse"><stop offset="0"/><stop offset="1" stop-opacity="0"/></radialGradient><circle cx="37" cy="34" r="3" fill="url(#jCTHL08EZ~fm8iqdMpjr0a)"/><path fill="#fff" d="M37,37c-1.657,0-3,1.343-3,3v1c0,0.552,0.448,1,1,1h4c0.552,0,1-0.448,1-1v-1	C40,38.343,38.657,37,37,37z"/><circle cx="37" cy="34" r="2" fill="#fff"/></svg>