<svg xmlns="http://www.w3.org/2000/svg" viewBox="0 0 48 48"><linearGradient id="i7uT9boSmRdcKyWfzpWmba" x1="13.849" x2="34.52" y1="6.156" y2="42.453" gradientUnits="userSpaceOnUse"><stop offset="0" stop-color="#7b83eb"/><stop offset="1" stop-color="#5961c3"/></linearGradient><path fill="url(#i7uT9boSmRdcKyWfzpWmba)" d="M24,45C13.688,45,4.768,37.306,3.251,27.102c-0.124-0.837,0.292-1.661,1.039-2.06 c0.746-0.397,1.664-0.281,2.288,0.288C9.171,27.696,12.517,29,16,29c7.72,0,14-6.28,14-14c0-2.932-0.911-5.75-2.633-8.148 c-0.494-0.688-0.501-1.612-0.019-2.308C27.831,3.85,28.7,3.53,29.516,3.755C38.633,6.234,45,14.56,45,24C45,35.579,35.58,45,24,45z M8.76,31.472C11.56,37.142,17.431,41,24,41c9.374,0,17-7.626,17-17c0-5.866-3.038-11.2-7.789-14.27C33.732,11.424,34,13.195,34,15 c0,9.925-8.075,18-18,18C13.483,33,11.023,32.473,8.76,31.472z"/></svg>