<svg xmlns="http://www.w3.org/2000/svg" viewBox="0 0 48 48"><linearGradient id="C_dq2D6Mph3zsDr4lgK_Ua" x1="27" x2="27" y1="45.717" y2="39.234" gradientUnits="userSpaceOnUse"><stop offset="0" stop-color="#d43a02"/><stop offset="1" stop-color="#b9360c"/></linearGradient><path fill="url(#C_dq2D6Mph3zsDr4lgK_Ua)" d="M28,38h-2v6c0,0.552,0.448,1,1,1h0c0.552,0,1-0.448,1-1V38z"/><linearGradient id="C_dq2D6Mph3zsDr4lgK_Ub" x1="36" x2="36" y1="45.717" y2="39.234" gradientUnits="userSpaceOnUse"><stop offset="0" stop-color="#d43a02"/><stop offset="1" stop-color="#b9360c"/></linearGradient><path fill="url(#C_dq2D6Mph3zsDr4lgK_Ub)" d="M37,38h-2v6c0,0.552,0.448,1,1,1l0,0	c0.552,0,1-0.448,1-1V38z"/><linearGradient id="C_dq2D6Mph3zsDr4lgK_Uc" x1="31.5" x2="31.5" y1="45.717" y2="39.234" gradientUnits="userSpaceOnUse"><stop offset="0" stop-color="#d43a02"/><stop offset="1" stop-color="#b9360c"/></linearGradient><rect width="9" height="2" x="27" y="41" fill="url(#C_dq2D6Mph3zsDr4lgK_Uc)"/><linearGradient id="C_dq2D6Mph3zsDr4lgK_Ud" x1="18.58" x2="28.221" y1="11.609" y2="38.096" gradientUnits="userSpaceOnUse"><stop offset="0" stop-color="#fcfcfc"/><stop offset=".495" stop-color="#f4f4f4"/><stop offset=".946" stop-color="#e8e8e8"/><stop offset="1" stop-color="#e8e8e8"/></linearGradient><polygon fill="url(#C_dq2D6Mph3zsDr4lgK_Ud)" points="43,16 43,37 5,37 5,16 24,9"/><linearGradient id="C_dq2D6Mph3zsDr4lgK_Ue" x1="5" x2="43" y1="38" y2="38" gradientUnits="userSpaceOnUse"><stop offset="0" stop-color="#c8d3de"/><stop offset="1" stop-color="#c8d3de"/></linearGradient><path fill="url(#C_dq2D6Mph3zsDr4lgK_Ue)" d="M43,36H5v2c0,1.105,0.895,2,2,2h34	c1.105,0,2-0.895,2-2V36z"/><path fill="#de490d" d="M28,20h7c1.105,0,2,0.895,2,2v18l0,0H26l0,0V22C26,20.895,26.895,20,28,20z"/><linearGradient id="C_dq2D6Mph3zsDr4lgK_Uf" x1="11.05" x2="18.614" y1="-376.05" y2="-383.614" gradientTransform="matrix(1 0 0 -1 0 -356)" gradientUnits="userSpaceOnUse"><stop offset="0" stop-color="#33bef0"/><stop offset="1" stop-color="#0a85d9"/></linearGradient><path fill="url(#C_dq2D6Mph3zsDr4lgK_Uf)" d="M12,20h6c0.552,0,1,0.448,1,1v6	c0,0.552-0.448,1-1,1h-6c-0.552,0-1-0.448-1-1v-6C11,20.448,11.448,20,12,20z"/><path fill="#586169" d="M14,42c0,1.657-1.343,3-3,3s-3-1.343-3-3s1.343-3,3-3C12.657,39,14,40.343,14,42"/><path fill="#999" d="M12,42c0,0.552-0.448,1-1,1s-1-0.448-1-1s0.448-1,1-1C11.552,41,12,41.447,12,42C12,42,12,42,12,42"/><path fill="#586169" d="M22,42c0,1.657-1.343,3-3,3s-3-1.343-3-3s1.343-3,3-3C20.657,39,22,40.343,22,42"/><path fill="#999" d="M20,42c0,0.552-0.448,1-1,1s-1-0.448-1-1s0.448-1,1-1C19.552,41,20,41.447,20,42C20,42,20,42,20,42"/><linearGradient id="C_dq2D6Mph3zsDr4lgK_Ug" x1="24" x2="24" y1="4.891" y2="17.466" gradientUnits="userSpaceOnUse"><stop offset="0" stop-color="#d43a02"/><stop offset="1" stop-color="#b9360c"/></linearGradient><path fill="url(#C_dq2D6Mph3zsDr4lgK_Ug)" d="M43.217,19.018L24,12.154L4.783,19.018	c-0.52,0.186-1.092-0.085-1.278-0.605l-1.009-2.825c-0.186-0.52,0.085-1.092,0.605-1.278l20.026-7.152	c0.565-0.202,1.182-0.202,1.747,0l20.026,7.152c0.52,0.186,0.791,0.758,0.605,1.278l-1.009,2.825	C44.31,18.933,43.738,19.204,43.217,19.018z"/><path d="M24,12.15L5,18.94v1.05c0.04,0,0.08-0.02,0.12-0.03L24,13.22l18.88,6.74c0.04,0.01,0.08,0.03,0.12,0.03v-1.05L24,12.15z" opacity=".05"/><path d="M24,12.15L5,18.94v0.53l19-6.78l19,6.78v-0.53L24,12.15z" opacity=".07"/></svg>