<svg xmlns="http://www.w3.org/2000/svg" viewBox="0 0 48 48"><linearGradient id="yePs~kJn_9tFZ6tIp~vA_a" x1="28.015" x2="28.015" y1="20.865" y2="43.585" gradientUnits="userSpaceOnUse"><stop offset="0" stop-color="#197a4c"/><stop offset=".563" stop-color="#29a66c"/><stop offset="1" stop-color="#33c481"/></linearGradient><path fill="url(#yePs~kJn_9tFZ6tIp~vA_a)" d="M32.015,44c-0.116,0-0.235-0.021-0.35-0.063c-0.353-0.133-8.649-3.388-8.649-15.937v-6 c0-0.552,0.448-1,1-1s1,0.448,1,1v6c0,11.105,7.055,13.95,7.355,14.065c0.514,0.198,0.773,0.774,0.578,1.289 C32.796,43.754,32.417,44,32.015,44z"/><path fill="#33c481" d="M15.702,15.686c-2.678-2.678-7.02-2.678-9.698,0c-2.255,2.255-2.603,5.686-1.062,8.313L24.016,24 C24.016,24,17.957,17.941,15.702,15.686z"/><path fill="#33c481" d="M32.329,32.314c2.678,2.678,7.02,2.678,9.698,0c2.255-2.255,2.603-5.686,1.062-8.313L24.016,24 C24.016,24,30.074,30.059,32.329,32.314z"/><path fill="#33c481" d="M32.329,15.686c2.678-2.678,2.678-7.02,0-9.698c-2.255-2.255-5.686-2.603-8.313-1.062L24.016,24 C24.016,24,30.074,17.941,32.329,15.686z"/><path fill="#21a366" d="M15.702,15.686c-2.678-2.678-2.678-7.02,0-9.698c2.255-2.255,5.686-2.603,8.313-1.062L24.016,24 C24.016,24,17.957,17.941,15.702,15.686z"/><path fill="#21a366" d="M15.702,32.314c-2.678,2.678-7.02,2.678-9.698,0c-2.255-2.255-2.603-5.686-1.062-8.313L24.016,24 C24.016,24,17.957,30.059,15.702,32.314z"/><path fill="#21a366" d="M32.329,15.686c2.678-2.678,7.02-2.678,9.698,0c2.255,2.255,2.603,5.686,1.062,8.313L24.016,24 C24.016,24,30.074,17.941,32.329,15.686z"/></svg>