<svg xmlns="http://www.w3.org/2000/svg" data-name="Layer 1" viewBox="0 0 48 48"><defs><linearGradient id="acURitl3O7Vu5xS6USsida" x1="36.375" x2="36.375" y1="9.758" y2="53.428" data-name="Новый образец градиентной зал 2" gradientUnits="userSpaceOnUse"><stop offset="0" stop-color="#2aa4f4"/><stop offset="1" stop-color="#007ad9"/></linearGradient><linearGradient id="acURitl3O7Vu5xS6USsidb" x1="18.809" x2="33.985" y1="4.016" y2="43.663" data-name="Новый образец градиентной зал 3" gradientUnits="userSpaceOnUse"><stop offset="0" stop-color="#32bdef"/><stop offset="1" stop-color="#1ea2e4"/></linearGradient><linearGradient id="acURitl3O7Vu5xS6USsidc" x1="26.565" x2="26.565" y1="5.605" y2="20.138" gradientUnits="userSpaceOnUse"><stop offset="0" stop-color="#a8e2f7"/><stop offset="1" stop-color="#47c1ff"/></linearGradient><linearGradient id="acURitl3O7Vu5xS6USsidd" x1="11.025" x2="11.025" y1="24.831" y2="59.826" gradientTransform="matrix(1 0 0 -1 .95 69.993)" gradientUnits="userSpaceOnUse"><stop offset="0" stop-color="#a34f27"/><stop offset=".587" stop-color="#8b3817"/><stop offset="1" stop-color="#802d10"/></linearGradient><linearGradient id="acURitl3O7Vu5xS6USside" x1="-7.125" x2="17.148" y1="24.871" y2="49.145" data-name="Безымянный градиент 28" gradientTransform="matrix(-1 0 0 1 23 0)" gradientUnits="userSpaceOnUse"><stop offset="0" stop-color="#fafafb"/><stop offset="1" stop-color="#c8cdd1"/></linearGradient></defs><path fill="url(#acURitl3O7Vu5xS6USsida)" d="M41,13.56653v29.47a2.00591,2.00591,0,0,1-2,2H32l-.25-32.02,2-1.6,4.25-3.4,2.71,4.52a2.05745,2.05745,0,0,1,.21.48A2.032,2.032,0,0,1,41,13.56653Z"/><path fill="url(#acURitl3O7Vu5xS6USsidb)" d="M38,5.01654v3l-2.72,4.53a2.14094,2.14094,0,0,0-.2.47,2.032,2.032,0,0,0-.08.55v29.45a2.00591,2.00591,0,0,1-2,2H17a2.00591,2.00591,0,0,1-2-2v-29.3a1.85051,1.85051,0,0,1,.13-.7,1.76852,1.76852,0,0,1,.31-.55l3.56-4.45v-3a1.003,1.003,0,0,1,1-1H37A1.003,1.003,0,0,1,38,5.01654Z"/><path fill="url(#acURitl3O7Vu5xS6USsidc)" d="M38,8.01654l-2.72,4.53a2.14094,2.14094,0,0,0-.2.47H15.13a1.76852,1.76852,0,0,1,.31-.55l3.56-4.45Z"/><path fill="url(#acURitl3O7Vu5xS6USsidd)" d="M4,25.00425H9.95765A9.99235,9.99235,0,0,1,19.95,34.9966v0A9.99235,9.99235,0,0,1,9.95765,44.989H4a0,0,0,0,1,0,0V25.00425A0,0,0,0,1,4,25.00425Z" transform="rotate(-180 11.975 34.997)"/><ellipse cx="20" cy="34.997" fill="url(#acURitl3O7Vu5xS6USside)" rx="7" ry="9.992"/><ellipse cx="20" cy="35" fill="#bcbcbc" rx="5" ry="8"/><g><path d="M20.95,24.08V24.01L20.07,24H15v1h4.95v.01c.02,0,.03-.01.05-.01,3.87,0,7,4.48,7,10s-3.13,9.99-7,9.99H16.67a1.84009,1.84009,0,0,0,.33.03h6.27C26.05,43.3,28,39.46,28,35,28,29.38,24.91,24.73,20.95,24.08Z" opacity=".05"/><path d="M20.45,24.52V24.51h-.34A.37449.37449,0,0,0,20,24.5H15V25h4.95v.01c.02,0,.03-.01.05-.01,3.87,0,7,4.48,7,10s-3.13,9.99-7,9.99H16.67a1.84009,1.84009,0,0,0,.33.03h5.21C25.27,43.7,27.5,39.71,27.5,35,27.5,29.42,24.38,24.85,20.45,24.52Z" opacity=".07"/></g></svg>