<svg xmlns="http://www.w3.org/2000/svg" data-name="Слой 1" viewBox="0 0 48 48"><path fill="#0078d4" d="M24,3A12.00951,12.00951,0,0,0,12,15v8a12.00415,12.00415,0,0,0,8,11.31c.16.06.33.12.5.17s.34.1.5.14a12.03211,12.03211,0,0,0,6,0c.16-.04.33-.09.5-.14s.34-.11.5-.17A12.00415,12.00415,0,0,0,36,23V15A12.00951,12.00951,0,0,0,24,3Zm6,20a5.94712,5.94712,0,0,1-2,4.46,4.71856,4.71856,0,0,1-.5.41,3.8393,3.8393,0,0,1-.5.32,5.96056,5.96056,0,0,1-6,0,3.8393,3.8393,0,0,1-.5-.32,4.71856,4.71856,0,0,1-.5-.41A5.94712,5.94712,0,0,1,18,23V15a6,6,0,0,1,12,0Z"/><path fill="#1b9de2" d="M24,24h0a3,3,0,0,1,3,3V46a0,0,0,0,1,0,0H21a0,0,0,0,1,0,0V27A3,3,0,0,1,24,24Z"/><path d="M27.5,27.87a3.8393,3.8393,0,0,1-.5.32v6.43c.16-.04.33-.09.5-.14s.34-.11.5-.17V27.46A4.71856,4.71856,0,0,1,27.5,27.87ZM20,27.46v6.85c.16.06.33.12.5.17s.34.1.5.14V28.19a3.8393,3.8393,0,0,1-.5-.32A4.71856,4.71856,0,0,1,20,27.46Z" opacity=".05"/><path d="M27,28.19v6.43c.16-.04.33-.09.5-.14V27.87A3.8393,3.8393,0,0,1,27,28.19Zm-6.5,6.29c.17.05.34.1.5.14V28.19a3.8393,3.8393,0,0,1-.5-.32Z" opacity=".07"/></svg>