<svg xmlns="http://www.w3.org/2000/svg" data-name="Слой 1" viewBox="0 0 48 48"><defs><linearGradient id="z8TGNRLT6bLMJddnO3Jx~a" x1="34" x2="34" y1="26.88" y2="47.547" data-name="Безымянный градиент 12" gradientUnits="userSpaceOnUse"><stop offset="0" stop-color="#2aa4f4"/><stop offset="1" stop-color="#007ad9"/></linearGradient><linearGradient id="z8TGNRLT6bLMJddnO3Jx~b" x1="11.555" x2="24.913" y1="10.718" y2="47.42" data-name="Безымянный градиент 112" gradientUnits="userSpaceOnUse"><stop offset="0" stop-color="#33c481"/><stop offset="1" stop-color="#21a366"/></linearGradient><linearGradient id="z8TGNRLT6bLMJddnO3Jx~c" x1="28.257" x2="34.822" y1="-138.257" y2="-144.822" data-name="Безымянный градиент 44" gradientTransform="matrix(1 0 0 -1 0 -124)" gradientUnits="userSpaceOnUse"><stop offset="0" stop-color="#fed100"/><stop offset="1" stop-color="#e36001"/></linearGradient><linearGradient id="z8TGNRLT6bLMJddnO3Jx~d" x1="11.963" x2="11.963" y1="31.022" y2="23.931" data-name="Безымянный градиент 19" gradientUnits="userSpaceOnUse"><stop offset="0" stop-color="#c26715"/><stop offset=".508" stop-color="#b85515"/><stop offset="1" stop-color="#ad3f16"/></linearGradient><linearGradient id="z8TGNRLT6bLMJddnO3Jx~e" x1="8.814" x2="16.054" y1="4.203" y2="33.306" data-name="Безымянный градиент 101" gradientUnits="userSpaceOnUse"><stop offset="0" stop-color="#21ad64"/><stop offset="1" stop-color="#088242"/></linearGradient></defs><path fill="#33c481" d="M5,42H43a2,2,0,0,0,2-2V28.96875a1.99719,1.99719,0,0,0-1.99285-2.00005c-3.78582-.00122-12.24362.27645-19.00715,2.531C14.09546,32.80118,9,37,5,42Z"/><path fill="url(#z8TGNRLT6bLMJddnO3Jx~a)" d="M23,32H45a0,0,0,0,1,0,0v8a2,2,0,0,1-2,2H23a0,0,0,0,1,0,0V32A0,0,0,0,1,23,32Z"/><path fill="url(#z8TGNRLT6bLMJddnO3Jx~b)" d="M40.8451,42H5a2,2,0,0,1-2-2V28.96875A1.99719,1.99719,0,0,1,4.99285,26.9687c3.78582-.00122,12.24362.27645,19.00715,2.531,8.7884,2.92947,13.79051,6.5654,17.60067,10.84064A1.00105,1.00105,0,0,1,40.8451,42Z"/><path d="M42.35,39.67c-4.24-4.75-9.43-8.07-16.71-10.66q-.42.10492-.84.24c-.27.08-.54.16-.8.25,8.79,2.93,13.79,6.57,17.6,10.84A1.00216,1.00216,0,0,1,40.85,42h1.72a1.13915,1.13915,0,0,0,.1-.19A1.96014,1.96014,0,0,0,42.35,39.67Z" opacity=".05"/><path d="M41.97,40.01c-4.3-4.82-9.61-8.16-17.17-10.76-.27.08-.54.16-.8.25,8.79,2.93,13.79,6.57,17.6,10.84A1.00216,1.00216,0,0,1,40.85,42h1.11a1.55953,1.55953,0,0,0,.26-.39A1.46785,1.46785,0,0,0,41.97,40.01Z" opacity=".07"/><path fill="url(#z8TGNRLT6bLMJddnO3Jx~c)" d="M32,14a4,4,0,1,0,4,4A4.00018,4.00018,0,0,0,32,14Z"/><path fill="url(#z8TGNRLT6bLMJddnO3Jx~d)" d="M9.95732,11.54878h4.01219V30.32927A.67.67,0,0,1,13.30081,31H10.626a.67.67,0,0,1-.6687-.67073Z"/><path d="M14.47,27.51c-.17-.02-.33-.04-.5-.05005v2.87a.67.67,0,0,1-.67.67H10.63a.67.67,0,0,1-.67-.67V27.12c-.17-.01-.34-.02-.5-.03-.17-.01-.34-.02-.5-.03v3.27A1.673,1.673,0,0,0,10.63,32H13.3a1.673,1.673,0,0,0,1.67-1.67V27.58C14.8,27.55,14.64,27.53,14.47,27.51Z" opacity=".05"/><path d="M13.97,27.46v2.87a.67.67,0,0,1-.67.67H10.63a.67.67,0,0,1-.67-.67V27.12c-.17-.01-.34-.02-.5-.03v3.24a1.1715,1.1715,0,0,0,1.17,1.17H13.3a1.1715,1.1715,0,0,0,1.17-1.17V27.51C14.3,27.49,14.14,27.47,13.97,27.46Z" opacity=".07"/><path fill="url(#z8TGNRLT6bLMJddnO3Jx~e)" d="M18.736,14.61658A4.49253,4.49253,0,0,0,15.5,7c-.01709,0-.03284.00482-.04987.005a3.4831,3.4831,0,0,0-6.90026,0C8.53284,7.00482,8.51709,7,8.5,7a4.49253,4.49253,0,0,0-3.236,7.61658,4.48085,4.48085,0,0,0,3.24347,8.26074,3.4804,3.4804,0,0,0,6.92578-.01837A4.48139,4.48139,0,0,0,18.736,14.61658Z"/></svg>