<svg xmlns="http://www.w3.org/2000/svg" viewBox="0 0 48 48"><path fill="#64717c" d="M33.5,30h-32c-0.176,0-0.343,0.06-0.5,0.153v4.694C1.157,34.94,1.324,35,1.5,35h32 c0.828,0,1.5-1.12,1.5-2.5C35,31.12,34.328,30,33.5,30z"/><linearGradient id="X3fFkQ~Kn4d297vXkAVY1a" x1="17.5" x2="17.5" y1="19.553" y2="37.261" gradientUnits="userSpaceOnUse"><stop offset="0" stop-color="#a1aab3"/><stop offset="1" stop-color="#8f979e"/></linearGradient><path fill="url(#X3fFkQ~Kn4d297vXkAVY1a)" d="M1.502,35c-0.074,0-0.149-0.005-0.225-0.017c-0.819-0.123-1.384-0.887-1.261-1.706 l2.185-15.563C2.784,13.824,6.063,11,9.998,11H33.5c0.828,0,1.5,0.672,1.5,1.5S34.328,14,33.5,14H9.998 c-2.438,0-4.469,1.749-4.83,4.16L2.983,33.723C2.872,34.467,2.231,35,1.502,35z"/><linearGradient id="X3fFkQ~Kn4d297vXkAVY1b" x1="39.395" x2="39.395" y1="14.575" y2="31.365" gradientUnits="userSpaceOnUse"><stop offset="0" stop-color="#f44f5a"/><stop offset=".443" stop-color="#ee3d4a"/><stop offset="1" stop-color="#e52030"/></linearGradient><path fill="url(#X3fFkQ~Kn4d297vXkAVY1b)" d="M46.18,12.801C46.078,11.779,45.218,11,44.19,11H31l2,24h12.79 c1.183,0,2.108-1.022,1.99-2.199L46.18,12.801z M38.372,32c-1.01,0-1.86-0.758-1.974-1.761l-1.145-14.026 C35.118,15.033,36.04,14,37.227,14h0c1.01,0,1.86,0.758,1.974,1.761l1.145,14.026C40.481,30.967,39.559,32,38.372,32z"/></svg>