<svg xmlns="http://www.w3.org/2000/svg" viewBox="0 0 48 48"><linearGradient id="JhyCz~pGPP5x7R1AKmFYMa" x1="24" x2="24" y1="384.815" y2="377.222" gradientTransform="matrix(1 0 0 -1 0 390)" gradientUnits="userSpaceOnUse"><stop offset="0" stop-color="#0d61a9"/><stop offset="1" stop-color="#16528c"/></linearGradient><path fill="url(#JhyCz~pGPP5x7R1AKmFYMa)" d="M36,5H12c-1.105,0-2,0.895-2,2v6h28V7C38,5.895,37.105,5,36,5z"/><linearGradient id="JhyCz~pGPP5x7R1AKmFYMb" x1="24" x2="24" y1="380.934" y2="373.865" gradientTransform="matrix(1 0 0 -1 0 390)" gradientUnits="userSpaceOnUse"><stop offset="0" stop-color="#199ae0"/><stop offset="1" stop-color="#0782d8"/></linearGradient><path fill="url(#JhyCz~pGPP5x7R1AKmFYMb)" d="M37,9H11c-1.105,0-2,0.895-2,2v5h30v-5C39,9.895,38.105,9,37,9z"/><linearGradient id="JhyCz~pGPP5x7R1AKmFYMc" x1="20.558" x2="26.878" y1="376.732" y2="350.821" gradientTransform="matrix(1 0 0 -1 0 390)" gradientUnits="userSpaceOnUse"><stop offset="0" stop-color="#32bdef"/><stop offset="1" stop-color="#1ea2e4"/></linearGradient><path fill="url(#JhyCz~pGPP5x7R1AKmFYMc)" d="M38,13H10c-1.105,0-2,0.895-2,2v25h32V15C40,13.895,39.105,13,38,13z"/><path fill="#436dcd" d="M33.414,28.414l-4.872-4.872c-0.673-0.673-1.759-0.687-2.449-0.033l-5.426,5.141V31H34v-1.172	C34,29.298,33.789,28.789,33.414,28.414z"/><circle cx="32" cy="20" r="2" fill="#fff"/><linearGradient id="JhyCz~pGPP5x7R1AKmFYMd" x1="22.778" x2="22.778" y1="367.968" y2="357.827" gradientTransform="matrix(1 0 0 -1 0 390)" gradientUnits="userSpaceOnUse"><stop offset="0" stop-color="#124787"/><stop offset=".923" stop-color="#173b75"/><stop offset="1" stop-color="#173a73"/></linearGradient><path fill="url(#JhyCz~pGPP5x7R1AKmFYMd)" d="M31.556,32l-9.248-9.248c-0.913-0.913-2.387-0.933-3.325-0.045l-4.358,4.128	C14.226,27.213,14,27.738,14,28.287V32H31.556z"/><linearGradient id="JhyCz~pGPP5x7R1AKmFYMe" x1="24" x2="24" y1="31.071" y2="42.693" gradientUnits="userSpaceOnUse"><stop offset="0" stop-color="#ffd869"/><stop offset="1" stop-color="#fec52b"/></linearGradient><path fill="url(#JhyCz~pGPP5x7R1AKmFYMe)" d="M41,31H7c-0.552,0-1,0.448-1,1v8c0,1.657,1.343,3,3,3h30c1.657,0,3-1.343,3-3v-8	C42,31.448,41.552,31,41,31z"/></svg>