<svg xmlns="http://www.w3.org/2000/svg" viewBox="0 0 48 48"><linearGradient id="UGRWfDqndLMysxtdqnIDAa" x1="9.25" x2="44.929" y1="25.846" y2="25.846" gradientUnits="userSpaceOnUse"><stop offset="0" stop-color="#f7ab40"/><stop offset=".32" stop-color="#f4a73c"/><stop offset=".671" stop-color="#ed992f"/><stop offset="1" stop-color="#e2861d"/></linearGradient><path fill="url(#UGRWfDqndLMysxtdqnIDAa)" d="M9,26l36-14.308V38c0,1.105-0.895,2-2,2H9V26z"/><linearGradient id="UGRWfDqndLMysxtdqnIDAb" x1="5.988" x2="26.58" y1="6.948" y2="44.356" gradientUnits="userSpaceOnUse"><stop offset="0" stop-color="#eba84b"/><stop offset="1" stop-color="#d97218"/></linearGradient><path fill="url(#UGRWfDqndLMysxtdqnIDAb)" d="M3,11.692V38c0,1.105,0.895,2,2,2h38c0.491,0,0.935-0.184,1.283-0.478L3,11.692z"/><path d="M3,11h42v1.692l-17.32,13.45c-2.165,1.681-5.195,1.681-7.36,0L3,12.692V11z" opacity=".05"/><path d="M3,10.5h42v1.692L26.966,25.304c-1.762,1.304-4.17,1.304-5.932,0L3,12.192V10.5z" opacity=".07"/><path fill="#fabb62" d="M5,8h38c1.105,0,2,0.895,2,2v1.692L26.252,24.466c-1.359,0.926-3.146,0.926-4.504,0L3,11.692V10	C3,8.895,3.895,8,5,8z"/></svg>