<svg xmlns="http://www.w3.org/2000/svg" viewBox="0 0 48 48"><linearGradient id="Gh4i78EqzHMeRtWB4OYqka" x1="25" x2="25" y1="11.065" y2="38.125" gradientUnits="userSpaceOnUse"><stop offset="0" stop-color="#21ad64"/><stop offset="1" stop-color="#088242"/></linearGradient><path fill="url(#Gh4i78EqzHMeRtWB4OYqka)" d="M44,37H4V11h40c1.105,0,2,0.895,2,2v22C46,36.105,45.105,37,44,37z"/><linearGradient id="Gh4i78EqzHMeRtWB4OYqkb" x1="2.5" x2="2.5" y1="4.393" y2="48.435" gradientUnits="userSpaceOnUse"><stop offset="0" stop-color="#899198"/><stop offset="1" stop-color="#787e85"/></linearGradient><path fill="url(#Gh4i78EqzHMeRtWB4OYqkb)" d="M5,47H3V8c0-0.552-0.449-1-1-1H0V5h2c1.654,0,3,1.346,3,3V47z"/><radialGradient id="Gh4i78EqzHMeRtWB4OYqkc" cx="34" cy="24" r="8" gradientUnits="userSpaceOnUse"><stop offset="0" stop-color="#4c4c4c"/><stop offset=".485" stop-color="#494949"/><stop offset=".775" stop-color="#414141"/><stop offset="1" stop-color="#343434"/></radialGradient><path fill="url(#Gh4i78EqzHMeRtWB4OYqkc)" d="M34,16c-4.418,0-8,3.582-8,8s3.582,8,8,8s8-3.582,8-8S38.418,16,34,16z"/><path fill="#ccc" d="M21,18h-3c-0.552,0-1-0.447-1-1s0.448-1,1-1h3c0.552,0,1,0.447,1,1S21.552,18,21,18z"/><path fill="#ccc" d="M21,22h-3c-0.552,0-1-0.447-1-1s0.448-1,1-1h3c0.552,0,1,0.447,1,1S21.552,22,21,22z"/><path d="M13.286,23H8.714C7.768,23,7,22.232,7,21.286v-4.571C7,15.768,7.768,15,8.714,15h4.571	C14.232,15,15,15.768,15,16.714v4.571C15,22.232,14.232,23,13.286,23z" opacity=".05"/><path d="M13,22.5H9c-0.828,0-1.5-0.672-1.5-1.5v-4c0-0.828,0.672-1.5,1.5-1.5h4c0.828,0,1.5,0.672,1.5,1.5v4	C14.5,21.828,13.828,22.5,13,22.5z" opacity=".07"/><path d="M13.286,33H8.714C7.768,33,7,32.232,7,31.286v-4.571C7,25.768,7.768,25,8.714,25h4.571	C14.232,25,15,25.768,15,26.714v4.571C15,32.232,14.232,33,13.286,33z" opacity=".05"/><path d="M13,32.5H9c-0.828,0-1.5-0.672-1.5-1.5v-4c0-0.828,0.672-1.5,1.5-1.5h4c0.828,0,1.5,0.672,1.5,1.5v4	C14.5,31.828,13.828,32.5,13,32.5z" opacity=".07"/><linearGradient id="Gh4i78EqzHMeRtWB4OYqkd" x1="10.098" x2="11.815" y1="15.81" y2="21.883" gradientUnits="userSpaceOnUse"><stop offset="0" stop-color="#4c4c4c"/><stop offset="1" stop-color="#343434"/></linearGradient><path fill="url(#Gh4i78EqzHMeRtWB4OYqkd)" d="M13,22H9c-0.552,0-1-0.448-1-1v-4c0-0.552,0.448-1,1-1h4c0.552,0,1,0.448,1,1v4	C14,21.552,13.552,22,13,22z"/><linearGradient id="Gh4i78EqzHMeRtWB4OYqke" x1="10.098" x2="11.815" y1="25.81" y2="31.883" gradientUnits="userSpaceOnUse"><stop offset="0" stop-color="#4c4c4c"/><stop offset="1" stop-color="#343434"/></linearGradient><path fill="url(#Gh4i78EqzHMeRtWB4OYqke)" d="M13,32H9c-0.552,0-1-0.448-1-1v-4c0-0.552,0.448-1,1-1h4c0.552,0,1,0.448,1,1v4	C14,31.552,13.552,32,13,32z"/><path fill="#666" d="M35,16c0,0-2,4-2,8h2V16z"/><path fill="#666" d="M33,32c0,0,2-4,2-8h-2V32z"/><path fill="#666" d="M42,25c0,0-4-2-8-2v2H42z"/><path fill="#666" d="M26,23c0,0,4,2,8,2v-2H26z"/><path fill="#666" d="M40.364,19.05c0,0-4.243,1.414-7.071,4.243l1.414,1.414L40.364,19.05z"/><path fill="#666" d="M27.636,28.95c0,0,4.243-1.414,7.071-4.243l-1.414-1.414L27.636,28.95z"/><path fill="#666" d="M38.95,30.364c0,0-1.414-4.243-4.243-7.071l-1.414,1.414L38.95,30.364z"/><path fill="#666" d="M29.05,17.636c0,0,1.414,4.243,4.243,7.071l1.414-1.414L29.05,17.636z"/><path fill="#999" d="M34,22c-1.105,0-2,0.895-2,2s0.895,2,2,2s2-0.895,2-2S35.105,22,34,22z"/><path fill="#ccc" d="M34,33c-4.962,0-9-4.037-9-9s4.038-9,9-9s9,4.037,9,9S38.962,33,34,33z M34,17c-3.86,0-7,3.141-7,7	s3.14,7,7,7s7-3.141,7-7S37.86,17,34,17z"/><rect width="4" height="2" x="10" y="38" fill="#e3a600" transform="rotate(90 12 39)"/><path fill="#edbe00" d="M11,41v-4H9v3c0,0.552,0.448,1,1,1H11z"/><rect width="4" height="2" x="12" y="38" fill="#edbe00" transform="rotate(90 14 39)"/><rect width="4" height="2" x="14" y="38" fill="#e3a600" transform="rotate(90 16 39)"/><rect width="4" height="2" x="16" y="38" fill="#edbe00" transform="rotate(90 18 39)"/><rect width="4" height="2" x="18" y="38" fill="#e3a600" transform="rotate(90 20 39)"/><rect width="4" height="2" x="20" y="38" fill="#edbe00" transform="rotate(90 22 39)"/><rect width="4" height="2" x="22" y="38" fill="#e3a600" transform="rotate(90 24 39)"/><path fill="#edbe00" d="M27,40v-3h-2v4h1C26.552,41,27,40.552,27,40z"/><rect width="4" height="2" x="31" y="38" fill="#e3a600" transform="rotate(90 33 39)"/><path fill="#edbe00" d="M32,41v-4h-2v3c0,0.552,0.448,1,1,1H32z"/><rect width="4" height="2" x="33" y="38" fill="#edbe00" transform="rotate(90 35 39)"/><rect width="4" height="2" x="35" y="38" fill="#e3a600" transform="rotate(90 37 39)"/><path fill="#edbe00" d="M40,40v-3h-2v4h1C39.552,41,40,40.552,40,40z"/><radialGradient id="Gh4i78EqzHMeRtWB4OYqkf" cx="20" cy="29.5" r="2.5" gradientUnits="userSpaceOnUse"><stop offset="0"/><stop offset="1" stop-opacity="0"/></radialGradient><circle cx="20" cy="29.5" r="2.5" fill="url(#Gh4i78EqzHMeRtWB4OYqkf)"/><linearGradient id="Gh4i78EqzHMeRtWB4OYqkg" x1="20" x2="20" y1="27.151" y2="31.074" gradientUnits="userSpaceOnUse"><stop offset="0" stop-color="#4c4c4c"/><stop offset="1" stop-color="#343434"/></linearGradient><circle cx="20" cy="29" r="2" fill="url(#Gh4i78EqzHMeRtWB4OYqkg)"/></svg>