<svg xmlns="http://www.w3.org/2000/svg" viewBox="0 0 48 48"><linearGradient id="4kcTVA6O6z_Nw1nBMv59ia" x1="1.663" x2="55.413" y1="15.426" y2="36.058" gradientUnits="userSpaceOnUse"><stop offset=".061" stop-color="#f0e400"/><stop offset=".201" stop-color="#f68b1f"/><stop offset=".35" stop-color="#00c25e"/><stop offset=".438" stop-color="#00addc"/><stop offset=".55" stop-color="#4641ba"/><stop offset=".606" stop-color="#622f96"/><stop offset=".877" stop-color="#662d91"/></linearGradient><path fill="url(#4kcTVA6O6z_Nw1nBMv59ia)" d="M35,35c-4.824,0-8.171-3.253-11-6.843C21.171,31.747,17.824,35,13,35C7.346,35,2,29.654,2,24 s5.346-11,11-11c4.824,0,8.171,3.253,11,6.843C26.829,16.253,30.176,13,35,13c5.654,0,11,5.346,11,11S40.654,35,35,35z M27.11,24 c2.44,3.249,4.857,6,7.89,6c3.175,0,6-3.355,6-6s-2.825-6-6-6C31.968,18,29.551,20.751,27.11,24z M13,18c-3.175,0-6,3.355-6,6 s2.825,6,6,6c3.032,0,5.449-2.751,7.89-6C18.449,20.751,16.032,18,13,18z"/><g><linearGradient id="4kcTVA6O6z_Nw1nBMv59ib" x1="11.129" x2="41.352" y1="10.86" y2="41.69" gradientUnits="userSpaceOnUse"><stop offset=".07" stop-color="#f99d20"/><stop offset=".101" stop-color="#f99920"/><stop offset=".135" stop-color="#f78c21"/><stop offset=".17" stop-color="#f57621"/><stop offset=".206" stop-color="#f35822"/><stop offset=".242" stop-color="#ef3123"/><stop offset=".26" stop-color="#ed1c24"/><stop offset=".425" stop-color="#ed1c24"/><stop offset=".437" stop-color="#e31d2c"/><stop offset=".497" stop-color="#b62350"/><stop offset=".555" stop-color="#93276c"/><stop offset=".609" stop-color="#7a2a81"/><stop offset=".658" stop-color="#6b2c8d"/><stop offset=".698" stop-color="#662d91"/><stop offset="1" stop-color="#623293"/></linearGradient><path fill="url(#4kcTVA6O6z_Nw1nBMv59ib)" d="M35,30c-7.34,0-11-17-22-17c0,1.63,0,3.312,0,5c7.479,0,11,17,22,17 c0.073,0,0.146-0.011,0.219-0.013c-0.119-1.663-0.175-3.326-0.199-4.989C35.014,29.999,35.007,30,35,30z"/></g></svg>