<svg xmlns="http://www.w3.org/2000/svg" viewBox="0 0 48 48"><linearGradient id="Eem7i5IAuO~Ogjt42srMia" x1="63.694" x2="67.153" y1="-93.369" y2="-88.035" gradientTransform="rotate(-60 125.704 -2.967)" gradientUnits="userSpaceOnUse"><stop offset="0" stop-color="#64717c"/><stop offset="1" stop-color="#56626b"/></linearGradient><path fill="url(#Eem7i5IAuO~Ogjt42srMia)" d="M22.391,4.403l-2.121,3.674l-3.674-2.121l1.621-2.808c0.276-0.478,0.888-0.642,1.366-0.366	L22.391,4.403z"/><linearGradient id="Eem7i5IAuO~Ogjt42srMib" x1="280.362" x2="283.821" y1="74.63" y2="79.964" gradientTransform="rotate(120 166.416 -15.267)" gradientUnits="userSpaceOnUse"><stop offset="0" stop-color="#64717c"/><stop offset="1" stop-color="#56626b"/></linearGradient><path fill="url(#Eem7i5IAuO~Ogjt42srMib)" d="M25.609,39.597l2.121-3.674l3.674,2.121l-1.621,2.808c-0.276,0.478-0.888,0.642-1.366,0.366	L25.609,39.597z"/><linearGradient id="Eem7i5IAuO~Ogjt42srMic" x1="63.694" x2="67.153" y1="98.964" y2="104.298" gradientTransform="rotate(30 209.862 13.338)" gradientUnits="userSpaceOnUse"><stop offset="0" stop-color="#64717c"/><stop offset="1" stop-color="#56626b"/></linearGradient><path fill="url(#Eem7i5IAuO~Ogjt42srMic)" d="M41.597,20.391l-3.674-2.121l2.121-3.674l2.808,1.621c0.478,0.276,0.642,0.888,0.366,1.366	L41.597,20.391z"/><linearGradient id="Eem7i5IAuO~Ogjt42srMid" x1="280.362" x2="283.821" y1="-117.703" y2="-112.369" gradientTransform="rotate(-150 163.682 -7.504)" gradientUnits="userSpaceOnUse"><stop offset="0" stop-color="#64717c"/><stop offset="1" stop-color="#56626b"/></linearGradient><path fill="url(#Eem7i5IAuO~Ogjt42srMid)" d="M6.403,23.609l3.674,2.121l-2.121,3.674l-2.808-1.621c-0.478-0.276-0.642-0.888-0.366-1.366	L6.403,23.609z"/><linearGradient id="Eem7i5IAuO~Ogjt42srMie" x1="124.661" x2="128.121" y1="-128.568" y2="-123.234" gradientTransform="rotate(-90 136.977 -.783)" gradientUnits="userSpaceOnUse"><stop offset="0" stop-color="#64717c"/><stop offset="1" stop-color="#56626b"/></linearGradient><path fill="url(#Eem7i5IAuO~Ogjt42srMie)" d="M13.808,7.565v4.243H9.565V8.565c0-0.552,0.448-1,1-1H13.808z"/><linearGradient id="Eem7i5IAuO~Ogjt42srMif" x1="219.395" x2="222.854" y1="109.829" y2="115.163" gradientTransform="rotate(90 167.783 -19.145)" gradientUnits="userSpaceOnUse"><stop offset="0" stop-color="#64717c"/><stop offset="1" stop-color="#56626b"/></linearGradient><path fill="url(#Eem7i5IAuO~Ogjt42srMif)" d="M34.192,36.435v-4.243h4.243v3.243c0,0.552-0.448,1-1,1H34.192z"/><linearGradient id="Eem7i5IAuO~Ogjt42srMig" x1="28.495" x2="31.954" y1="37.997" y2="43.331" gradientTransform="translate(5.973 -30.806)" gradientUnits="userSpaceOnUse"><stop offset="0" stop-color="#64717c"/><stop offset="1" stop-color="#56626b"/></linearGradient><path fill="url(#Eem7i5IAuO~Ogjt42srMig)" d="M38.435,11.808h-4.243V7.565h3.243c0.552,0,1,0.448,1,1V11.808z"/><linearGradient id="Eem7i5IAuO~Ogjt42srMih" x1="315.561" x2="319.02" y1="-56.736" y2="-51.402" gradientTransform="rotate(180 164.547 -9.964)" gradientUnits="userSpaceOnUse"><stop offset="0" stop-color="#64717c"/><stop offset="1" stop-color="#56626b"/></linearGradient><path fill="url(#Eem7i5IAuO~Ogjt42srMih)" d="M9.565,32.192h4.243v4.243h-3.243c-0.552,0-1-0.448-1-1V32.192z"/><linearGradient id="Eem7i5IAuO~Ogjt42srMii" x1="195.06" x2="198.519" y1="-128.568" y2="-123.234" gradientTransform="rotate(-120 143.488 .481)" gradientUnits="userSpaceOnUse"><stop offset="0" stop-color="#64717c"/><stop offset="1" stop-color="#56626b"/></linearGradient><path fill="url(#Eem7i5IAuO~Ogjt42srMii)" d="M7.956,14.595l2.121,3.674l-3.674,2.121l-1.621-2.808c-0.276-0.478-0.112-1.09,0.366-1.366	L7.956,14.595z"/><linearGradient id="Eem7i5IAuO~Ogjt42srMij" x1="148.996" x2="152.455" y1="109.829" y2="115.163" gradientTransform="rotate(60 170.155 -25.868)" gradientUnits="userSpaceOnUse"><stop offset="0" stop-color="#64717c"/><stop offset="1" stop-color="#56626b"/></linearGradient><path fill="url(#Eem7i5IAuO~Ogjt42srMij)" d="M40.044,29.405l-2.121-3.674l3.674-2.121l1.621,2.808c0.276,0.478,0.112,1.09-0.366,1.366	L40.044,29.405z"/><linearGradient id="Eem7i5IAuO~Ogjt42srMik" x1="28.495" x2="31.954" y1="-32.401" y2="-27.068" gradientTransform="rotate(-30 94.894 -8.937)" gradientUnits="userSpaceOnUse"><stop offset="0" stop-color="#64717c"/><stop offset="1" stop-color="#56626b"/></linearGradient><path fill="url(#Eem7i5IAuO~Ogjt42srMik)" d="M31.405,5.956l-3.674,2.121l-2.121-3.674l2.808-1.621c0.478-0.276,1.09-0.112,1.366,0.366	L31.405,5.956z"/><linearGradient id="Eem7i5IAuO~Ogjt42srMil" x1="315.561" x2="319.02" y1="13.663" y2="18.997" gradientTransform="rotate(150 165.416 -12.423)" gradientUnits="userSpaceOnUse"><stop offset="0" stop-color="#64717c"/><stop offset="1" stop-color="#56626b"/></linearGradient><path fill="url(#Eem7i5IAuO~Ogjt42srMil)" d="M16.595,38.044l3.674-2.121l2.121,3.674l-2.808,1.621c-0.478,0.276-1.09,0.112-1.366-0.366	L16.595,38.044z"/><linearGradient id="Eem7i5IAuO~Ogjt42srMim" x1="17.03" x2="31.803" y1="5.631" y2="40.324" gradientUnits="userSpaceOnUse"><stop offset="0" stop-color="#889097"/><stop offset="1" stop-color="#64717c"/></linearGradient><path fill="url(#Eem7i5IAuO~Ogjt42srMim)" d="M24,4C14.059,4,6,12.059,6,22s8.059,18,18,18s18-8.059,18-18S33.941,4,24,4z"/><linearGradient id="Eem7i5IAuO~Ogjt42srMin" x1="24" x2="24" y1="33.961" y2="41.995" gradientUnits="userSpaceOnUse"><stop offset="0" stop-color="#2aa4f4"/><stop offset="1" stop-color="#007ad9"/></linearGradient><path fill="url(#Eem7i5IAuO~Ogjt42srMin)" d="M42,35c-1.657,0-3-1-3-1s-1.343,1-3,1s-3-1-3-1s-1.343,1-3,1s-3-1-3-1s-1.343,1-3,1s-3-1-3-1	s-1.343,1-3,1s-3-1-3-1s-1.343,1-3,1s-3-1-3-1s-1.343,1-3,1s-3-1-3-1v6c0,1.105,0.895,2,2,2h38c1.105,0,2-0.895,2-2v-6	C45,34,43.657,35,42,35z"/><linearGradient id="Eem7i5IAuO~Ogjt42srMio" x1="19" x2="29" y1="22" y2="22" gradientUnits="userSpaceOnUse"><stop offset="0" stop-color="#fede00"/><stop offset="1" stop-color="#ffd000"/></linearGradient><polygon fill="url(#Eem7i5IAuO~Ogjt42srMio)" points="24,31 24,24 19,24 24,13 24,20 29,20"/></svg>