<svg xmlns="http://www.w3.org/2000/svg" data-name="Слой 1" viewBox="0 0 48 48"><defs><linearGradient id="RatAYe7ZeXczS8QJz9Mx3a" x1="29.834" x2="38.679" y1="8.702" y2="33.003" data-name="Безымянный градиент 166" gradientUnits="userSpaceOnUse"><stop offset="0" stop-color="#e38101"/><stop offset="1" stop-color="#fed100"/></linearGradient></defs><polygon fill="#64717c" points="32 38 34 44 41 44 43 38 37.5 37 32 38"/><path fill="url(#RatAYe7ZeXczS8QJz9Mx3a)" d="M37.5,36A1.50007,1.50007,0,0,1,36,34.5v-12A2.50263,2.50263,0,0,0,33.5,20h-3a1.5,1.5,0,0,1,0-3h3A5.50654,5.50654,0,0,1,39,22.5v12A1.50007,1.50007,0,0,1,37.5,36Z"/><path fill="#889097" d="M33,33h9a1,1,0,0,1,1,1v4a0,0,0,0,1,0,0H32a0,0,0,0,1,0,0V34A1,1,0,0,1,33,33Z"/><path fill="#64717c" d="M10.51794,34.11316,2.362,22.46529a2.0727,2.0727,0,0,1,.19911-2.62057l6.12665-6.41339L22.65064,6.04618a1.03634,1.03634,0,0,1,1.33346.32167l9.05567,12.93284a1.03634,1.03634,0,0,1-.1538,1.36306L21.17061,31.25869l-8.122,3.56365A2.07268,2.07268,0,0,1,10.51794,34.11316Z"/><path fill="#889097" d="M21.502,33a1.99694,1.99694,0,0,1-1.64013-.85254L7.37891,14.32031a2.00007,2.00007,0,1,1,3.27636-2.29492L23.13818,29.85254A1.99985,1.99985,0,0,1,21.502,33Z"/></svg>