<svg xmlns="http://www.w3.org/2000/svg" viewBox="0 0 48 48"><rect width="24" height="31" x="10" y="9" fill="#35c1f1"/><path d="M34,16h-9.005C23.895,16,23,16.895,23,17.995v14.01 C23,33.105,23.895,34,24.995,34H34V16z" opacity=".05"/><path d="M34,16.5h-9.005c-0.824,0-1.495,0.671-1.495,1.495v14.01 c0,0.824,0.67,1.495,1.495,1.495H34V16.5z" opacity=".05"/><path fill="#1b9de2" d="M34,40H10v3c0,1.105,0.895,2,2,2h20c1.105,0,2-0.895,2-2V40z"/><path fill="#1b9de2" d="M34,9H10V6c0-1.105,0.895-2,2-2h20c1.105,0,2,0.895,2,2V9z"/><circle cx="18" cy="6.5" r=".75" fill="#0c63ad"/><path fill="#0c63ad" d="M25.5,5.75c-0.194,0-4.806,0-5,0c-0.414,0-0.75,0.336-0.75,0.75s0.336,0.75,0.75,0.75 c0.194,0,4.806,0,5,0c0.414,0,0.75-0.336,0.75-0.75S25.914,5.75,25.5,5.75z"/><linearGradient id="A5drInEEV1~S7sTPfV9BQa" x1="27.125" x2="44.965" y1="1951.923" y2="1951.923" gradientTransform="translate(0 -1926)" gradientUnits="userSpaceOnUse"><stop offset="0" stop-color="#f7ab40"/><stop offset=".32" stop-color="#f4a73c"/><stop offset=".671" stop-color="#ed992f"/><stop offset="1" stop-color="#e2861d"/></linearGradient><path fill="url(#A5drInEEV1~S7sTPfV9BQa)" d="M27,26l18-7.154V32c0,0.552-0.448,1-1,1H27V26z"/><linearGradient id="A5drInEEV1~S7sTPfV9BQb" x1="25.494" x2="35.79" y1="1942.474" y2="1961.178" gradientTransform="translate(0 -1926)" gradientUnits="userSpaceOnUse"><stop offset="0" stop-color="#eba84b"/><stop offset="1" stop-color="#d97218"/></linearGradient><path fill="url(#A5drInEEV1~S7sTPfV9BQb)" d="M24,18.846V32c0,0.552,0.448,1,1,1h19c0.245,0,0.468-0.092,0.642-0.239L24,18.846z"/><path d="M24,18.5h21v0.846l-8.66,6.725c-1.083,0.84-2.597,0.84-3.68,0L24,19.346 V18.5z" opacity=".05"/><path d="M24,18.25h21v0.846l-9.017,6.556c-0.881,0.652-2.085,0.652-2.966,0 L24,19.096V18.25z" opacity=".07"/><path fill="#fabb62" d="M25,17h19c0.552,0,1,0.448,1,1v0.846l-9.374,6.387c-0.679,0.463-1.573,0.463-2.252,0L24,18.846V18 C24,17.448,24.448,17,25,17z"/></svg>