<svg xmlns="http://www.w3.org/2000/svg" viewBox="0 0 48 48"><linearGradient id="~NT3l_yZj3rcerKsUAUUXa" x1="10.645" x2="38.25" y1="-29.8" y2="-54.027" gradientTransform="matrix(1 0 0 -1 0 -18)" gradientUnits="userSpaceOnUse"><stop offset="0" stop-color="#3bc9f3"/><stop offset=".243" stop-color="#37c3f0"/><stop offset=".584" stop-color="#2ab0e7"/><stop offset=".979" stop-color="#1693d9"/><stop offset="1" stop-color="#1591d8"/></linearGradient><path fill="url(#~NT3l_yZj3rcerKsUAUUXa)" d="M28,4C12,4,4,18.559,4,28c0,8.182,3,10,5.23,10c4.3,0,6.335-7,9.77-7c1.533,0,3,1.076,3,3	c0,2.671-3,2.753-3,6.389C19,41.72,20.37,44,23.332,44C31.792,44,44,34,44,20.5C44,8.145,35,4,28,4z M25.5,29	c-1.381,0-2.5-1.119-2.5-2.5s1.119-2.5,2.5-2.5s2.5,1.119,2.5,2.5S26.881,29,25.5,29z"/><radialGradient id="~NT3l_yZj3rcerKsUAUUXb" cx="15.5" cy="-35.5" r="4.5" gradientTransform="matrix(1 0 0 -1 0 -18)" gradientUnits="userSpaceOnUse"><stop offset="0"/><stop offset="1" stop-opacity="0"/></radialGradient><circle cx="15.5" cy="17.5" r="4.5" fill="url(#~NT3l_yZj3rcerKsUAUUXb)" opacity=".15"/><radialGradient id="~NT3l_yZj3rcerKsUAUUXc" cx="10.5" cy="-44.5" r="4.5" gradientTransform="matrix(1 0 0 -1 0 -18)" gradientUnits="userSpaceOnUse"><stop offset="0"/><stop offset="1" stop-opacity="0"/></radialGradient><circle cx="10.5" cy="26.5" r="4.5" fill="url(#~NT3l_yZj3rcerKsUAUUXc)" opacity=".15"/><radialGradient id="~NT3l_yZj3rcerKsUAUUXd" cx="13.51" cy="-31.722" r="6.873" gradientTransform="matrix(1 0 0 -1 0 -18)" gradientUnits="userSpaceOnUse"><stop offset="0" stop-color="#fee100"/><stop offset="1" stop-color="#f7a511"/></radialGradient><circle cx="15.5" cy="16.5" r="3.5" fill="url(#~NT3l_yZj3rcerKsUAUUXd)"/><radialGradient id="~NT3l_yZj3rcerKsUAUUXe" cx="24.5" cy="-30.5" r="4.5" gradientTransform="matrix(1 0 0 -1 0 -18)" gradientUnits="userSpaceOnUse"><stop offset="0"/><stop offset="1" stop-opacity="0"/></radialGradient><circle cx="24.5" cy="12.5" r="4.5" fill="url(#~NT3l_yZj3rcerKsUAUUXe)" opacity=".15"/><radialGradient id="~NT3l_yZj3rcerKsUAUUXf" cx="22.715" cy="-26.859" r="6.758" gradientTransform="matrix(1 0 0 -1 0 -18)" gradientUnits="userSpaceOnUse"><stop offset="0" stop-color="#a6ff6e"/><stop offset="1" stop-color="#29cd2f"/></radialGradient><circle cx="24.5" cy="11.5" r="3.5" fill="url(#~NT3l_yZj3rcerKsUAUUXf)"/><radialGradient id="~NT3l_yZj3rcerKsUAUUXg" cx="34.5" cy="-32.5" r="4.5" gradientTransform="matrix(1 0 0 -1 0 -18)" gradientUnits="userSpaceOnUse"><stop offset="0"/><stop offset="1" stop-opacity="0"/></radialGradient><circle cx="34.5" cy="14.5" r="4.5" fill="url(#~NT3l_yZj3rcerKsUAUUXg)" opacity=".15"/><radialGradient id="~NT3l_yZj3rcerKsUAUUXh" cx="32.715" cy="-28.859" r="6.758" gradientTransform="matrix(1 0 0 -1 0 -18)" gradientUnits="userSpaceOnUse"><stop offset="0" stop-color="#42a4ff"/><stop offset="1" stop-color="#1645ab"/></radialGradient><circle cx="34.5" cy="13.5" r="3.5" fill="url(#~NT3l_yZj3rcerKsUAUUXh)"/><radialGradient id="~NT3l_yZj3rcerKsUAUUXi" cx="37.5" cy="-42.5" r="4.5" gradientTransform="matrix(1 0 0 -1 0 -18)" gradientUnits="userSpaceOnUse"><stop offset="0"/><stop offset="1" stop-opacity="0"/></radialGradient><circle cx="37.5" cy="24.5" r="4.5" fill="url(#~NT3l_yZj3rcerKsUAUUXi)" opacity=".15"/><radialGradient id="~NT3l_yZj3rcerKsUAUUXj" cx="35.715" cy="-38.859" r="6.758" gradientTransform="matrix(1 0 0 -1 0 -18)" gradientUnits="userSpaceOnUse"><stop offset="0" stop-color="#986ee0"/><stop offset="1" stop-color="#634796"/></radialGradient><circle cx="37.5" cy="23.5" r="3.5" fill="url(#~NT3l_yZj3rcerKsUAUUXj)"/><radialGradient id="~NT3l_yZj3rcerKsUAUUXk" cx="8.46" cy="-40.546" r="6.755" gradientTransform="matrix(1 0 0 -1 0 -18)" gradientUnits="userSpaceOnUse"><stop offset="0" stop-color="#e85182"/><stop offset="1" stop-color="#d03767"/></radialGradient><circle cx="10.5" cy="25.5" r="3.5" fill="url(#~NT3l_yZj3rcerKsUAUUXk)"/><linearGradient id="~NT3l_yZj3rcerKsUAUUXl" x1="29.45" x2="44.762" y1="29.45" y2="44.762" gradientUnits="userSpaceOnUse"><stop offset="0" stop-color="#fede00"/><stop offset="1" stop-color="#ffd000"/></linearGradient><circle cx="37" cy="37" r="11" fill="url(#~NT3l_yZj3rcerKsUAUUXl)"/><circle cx="37" cy="37" r="8.8" fill="#f5be00"/><path fill="#fee119" d="M34.544,41.054v-1.64c0.595,0.365,1.229,0.547,1.901,0.547c0.506,0,0.902-0.12,1.187-0.361 c0.285-0.241,0.428-0.568,0.428-0.981c0-0.863-0.609-1.294-1.828-1.294c-0.397,0-0.877,0.036-1.439,0.109V32.57h4.822v1.567h-3.182 v1.743c0.255-0.024,0.496-0.036,0.723-0.036c0.895,0,1.595,0.235,2.101,0.704c0.506,0.47,0.759,1.102,0.759,1.895 c0,0.878-0.302,1.596-0.905,2.152c-0.603,0.557-1.421,0.835-2.454,0.835C35.819,41.43,35.115,41.305,34.544,41.054z"/></svg>