<svg xmlns="http://www.w3.org/2000/svg" xmlns:xlink="http://www.w3.org/1999/xlink" data-name="Слой 1" viewBox="0 0 48 48"><defs><linearGradient id="s44mfc9qrqsR2YEhNErWha" x1="24" x2="24" y1="-1.457" y2="27.948" data-name="Безымянный градиент 102" gradientUnits="userSpaceOnUse"><stop offset="0" stop-color="#f5b967"/><stop offset="1" stop-color="#eba84b"/></linearGradient><linearGradient id="s44mfc9qrqsR2YEhNErWhb" x1="24" x2="24" y1="53.978" y2="18.785" gradientUnits="userSpaceOnUse"><stop offset="0" stop-color="#ffda94"/><stop offset="1" stop-color="#fff0ce"/></linearGradient><linearGradient id="s44mfc9qrqsR2YEhNErWhd" x1="9.5" x2="9.5" y1="-1.457" y2="27.948" xlink:href="#s44mfc9qrqsR2YEhNErWha"/><linearGradient id="s44mfc9qrqsR2YEhNErWhe" x1="38.5" x2="38.5" y1="-1.457" y2="27.948" xlink:href="#s44mfc9qrqsR2YEhNErWha"/><linearGradient id="s44mfc9qrqsR2YEhNErWhf" x1="38.5" x2="38.5" y1="29.913" y2="10.335" xlink:href="#s44mfc9qrqsR2YEhNErWhb"/><linearGradient id="s44mfc9qrqsR2YEhNErWhg" x1="9.5" x2="9.5" y1="29.913" y2="10.335" xlink:href="#s44mfc9qrqsR2YEhNErWhb"/><linearGradient id="s44mfc9qrqsR2YEhNErWhc" x1="32.5" x2="32.5" y1="24.973" y2="11.374" data-name="Безымянный градиент 18" gradientUnits="userSpaceOnUse"><stop offset=".002" stop-color="#454545"/><stop offset=".013" stop-color="#464646"/><stop offset=".874" stop-color="#626262"/><stop offset="1" stop-color="#6d6d6d"/></linearGradient><linearGradient id="s44mfc9qrqsR2YEhNErWhh" x1="15.5" x2="15.5" y1="24.973" y2="11.374" xlink:href="#s44mfc9qrqsR2YEhNErWhc"/></defs><path fill="url(#s44mfc9qrqsR2YEhNErWha)" d="M31.33,43C28,43,28,42,24,42s-4,1-7.33,1A11.84914,11.84914,0,0,1,4.81,29.19a10.341,10.341,0,0,1,.28-1.32l2.52-9.32a16.97749,16.97749,0,0,1,32.78,0l2.52,9.32a10.341,10.341,0,0,1,.28,1.32A11.84914,11.84914,0,0,1,31.33,43Z"/><path fill="url(#s44mfc9qrqsR2YEhNErWhb)" d="M31.33,43C28,43,28,42,24,42s-4,1-7.33,1A11.84914,11.84914,0,0,1,4.81,29.19,8.468,8.468,0,0,1,10.5,27c4,0,4.5,1,7,1s3.25-5,3.25-5h.01l1.05-11.01a2.20005,2.20005,0,0,1,4.38,0L27.24,23h.02s.75,5,3.25,5a9.94633,9.94633,0,0,0,2.94-.5A14.18787,14.18787,0,0,1,37.5,27h.01a8.4235,8.4235,0,0,1,5.68,2.19A11.84914,11.84914,0,0,1,31.33,43Z"/><path fill="#d97218" d="M24,35a.99632.99632,0,0,1-.55469-.168l-3-2A1,1,0,1,1,21.55469,31.168L24,32.79785,26.44531,31.168A1,1,0,1,1,27.55469,32.832l-3,2A.99632.99632,0,0,1,24,35Z"/><path fill="#d97218" d="M20,40a1,1,0,0,1,0-2,3.55962,3.55962,0,0,0,3-1.29V34a1,1,0,0,1,2,0v2.999a1.00061,1.00061,0,0,1-.10547.44727A5.31547,5.31547,0,0,1,20,40Z"/><path fill="#d97218" d="M28,40a5.81908,5.81908,0,0,1-4.84814-2.4707,1.00027,1.00027,0,0,1,1.69628-1.06055A3.81518,3.81518,0,0,0,28,38a1,1,0,0,1,0,2Z"/><path fill="url(#s44mfc9qrqsR2YEhNErWhd)" d="M10,8.75l-.00244.02655a2.983,2.983,0,0,0-4.6532,3.59131,3.98941,3.98941,0,1,0,3.661,7.0744L9,19.5l7-3V13Z"/><path fill="url(#s44mfc9qrqsR2YEhNErWhe)" d="M42.65564,12.36786A2.96657,2.96657,0,0,0,43,11a2.98812,2.98812,0,0,0-4.99756-2.22345L38,8.75,32,13v3.5l7,3-.00537-.05774A3.9595,3.9595,0,0,0,41,20a3.99445,3.99445,0,0,0,1.65564-7.63214Z"/><path fill="url(#s44mfc9qrqsR2YEhNErWhf)" d="M42.65564,12.36786a2.89188,2.89188,0,0,0,.24173-2.12713A3.04578,3.04578,0,0,0,40.5376,8.048a2.9698,2.9698,0,0,0-2.53516.72853L38,8.75l-.17527,1.09541A8.31994,8.31994,0,0,1,32,16.5h0l7,3-.00537-.05774a3.905,3.905,0,0,0,3.2331.36138,3.98964,3.98964,0,0,0,.42791-7.43578Z"/><path fill="url(#s44mfc9qrqsR2YEhNErWhg)" d="M5.34436,12.36786a2.89188,2.89188,0,0,1-.24173-2.12713A3.04578,3.04578,0,0,1,7.4624,8.048a2.9698,2.9698,0,0,1,2.53516.72853L10,8.75l.17527,1.09541A8.31994,8.31994,0,0,0,16,16.5h0l-7,3,.00537-.05774a3.905,3.905,0,0,1-3.2331.36138,3.98964,3.98964,0,0,1-.42791-7.43578Z"/><ellipse cx="32.5" cy="22.875" fill="url(#s44mfc9qrqsR2YEhNErWhc)" rx="1.5" ry="2.125"/><ellipse cx="15.5" cy="23.125" fill="url(#s44mfc9qrqsR2YEhNErWhh)" rx="1.5" ry="2.125"/></svg>