<svg xmlns="http://www.w3.org/2000/svg" viewBox="0 0 48 48"><linearGradient id="eqMt5j3k6x0uxQLkVWy2La" x1="27.5" x2="27.5" y1="-1091.575" y2="-1178.971" gradientTransform="matrix(1 0 0 -1 0 -1112.561)" gradientUnits="userSpaceOnUse"><stop offset="0" stop-color="#fed100"/><stop offset="1" stop-color="#e36001"/></linearGradient><path fill="url(#eqMt5j3k6x0uxQLkVWy2La)" d="M27.5,2c-2.757,0-5,2.243-5,5v38.5c0,0.828,0.672,1.5,1.5,1.5s1.5-0.672,1.5-1.5V7	c0-1.103,0.897-2,2-2s2,0.897,2,2v0.5C29.5,8.328,30.172,9,31,9s1.5-0.672,1.5-1.5V7C32.5,4.243,30.257,2,27.5,2z"/><linearGradient id="eqMt5j3k6x0uxQLkVWy2Lb" x1="24" x2="24" y1="11.994" y2="43" gradientUnits="userSpaceOnUse"><stop offset="0" stop-color="#a8e2f7"/><stop offset="1" stop-color="#47c1ff"/></linearGradient><path fill="url(#eqMt5j3k6x0uxQLkVWy2Lb)" d="M34.49,12.142l-0.465,0.274C31.5,14,29.123,13.97,26.5,13	c-0.411-0.152-0.977-0.431-1.506-0.735c-0.607-0.349-1.352-0.368-1.958-0.017C22.498,12.56,21.933,12.82,21.5,13	c-2.582,1.075-5,1-7.525-0.584l-0.465-0.274c-0.803-0.473-1.759,0.312-1.451,1.191l9.943,28.252C22.3,42.433,23.101,43,24,43h0h0	c0.899,0,1.7-0.567,1.998-1.415l9.943-28.252C36.248,12.454,35.292,11.67,34.49,12.142z"/><path fill="#231f20" d="M25.5,43.607v-1.263C25.11,42.744,24.583,43,24,43s-1.11-0.256-1.5-0.656v1.263 C22.951,43.855,23.462,44,24,44S25.049,43.855,25.5,43.607z" opacity=".05"/><path fill="#231f20" d="M22.5,11.402v1.128c0.179-0.091,0.357-0.179,0.536-0.282 c0.295-0.171,0.623-0.254,0.953-0.254c0.346,0,0.694,0.092,1.005,0.271c0.167,0.096,0.337,0.188,0.506,0.276v-1.138 c-0.003-0.002-0.005-0.003-0.008-0.004c-0.46-0.264-0.98-0.404-1.504-0.404c-0.512,0-1.014,0.135-1.454,0.389 C22.523,11.39,22.511,11.395,22.5,11.402z" opacity=".05"/><path fill="#231f20" d="M22.5,11.972v0.558c0.179-0.091,0.357-0.179,0.536-0.282 c0.295-0.171,0.623-0.254,0.953-0.254c0.346,0,0.694,0.092,1.005,0.271c0.167,0.096,0.337,0.188,0.506,0.276v-0.567 c-0.086-0.047-0.171-0.093-0.257-0.142c-0.384-0.221-0.818-0.338-1.255-0.338c-0.424,0-0.84,0.111-1.203,0.322 C22.69,11.871,22.595,11.921,22.5,11.972z" opacity=".07"/><path fill="#231f20" d="M25.5,43.025v-0.682C25.11,42.744,24.583,43,24,43s-1.11-0.256-1.5-0.656v0.682 c0.43,0.301,0.951,0.475,1.5,0.475S25.07,43.327,25.5,43.025z" opacity=".07"/><linearGradient id="eqMt5j3k6x0uxQLkVWy2Lc" x1="29.973" x2="29.973" y1="12" y2="43" gradientUnits="userSpaceOnUse"><stop offset="0" stop-color="#2aa4f4"/><stop offset="1" stop-color="#007ad9"/></linearGradient><path fill="url(#eqMt5j3k6x0uxQLkVWy2Lc)" d="M34.49,12.142l-0.465,0.274C31.5,14,29.123,13.97,26.5,13	c-0.411-0.152-0.977-0.431-1.506-0.735c-0.324-0.186-0.687-0.271-1.048-0.263v30.99C23.965,42.992,23.981,43,24,43	c0.899,0,1.7-0.567,1.998-1.415l9.943-28.252C36.248,12.454,35.292,11.67,34.49,12.142z"/></svg>