<svg xmlns="http://www.w3.org/2000/svg" viewBox="0 0 48 48"><path fill="#0370c8" d="M42,33H6c-1.105,0-2,0.895-2,2v2c0,1.105,0.895,2,2,2h36c1.105,0,2-0.895,2-2v-2	C44,33.895,43.105,33,42,33z"/><path fill="#0883d9" d="M24,7v4c-1.105,0-2-0.895-2-2S22.895,7,24,7z"/><polygon fill="#0883d9" points="43.261,23.215 41.841,27 24,27 24,9 25.431,7.603"/><path fill="#0883d9" d="M24,7v4c1.105,0,2-0.895,2-2S25.105,7,24,7z"/><circle cx="41.841" cy="24.841" r="2.159" fill="#0883d9"/><polygon fill="#0883d9" points="4.739,23.215 6.159,27 24,27 24,9 22.569,7.603"/><circle cx="6.159" cy="24.841" r="2.159" fill="#0883d9"/></svg>