<svg xmlns="http://www.w3.org/2000/svg" id="Layer_1" x="0" y="0" version="1.1" viewBox="0 0 48 48" xml:space="preserve"><linearGradient id="SVGID_1_" x1="-257.969" x2="-229.89" y1="-296.031" y2="-324.11" gradientTransform="rotate(90 -277 -9)" gradientUnits="userSpaceOnUse"><stop offset="0" stop-color="#fede00"/><stop offset=".519" stop-color="#fecc00"/><stop offset="1" stop-color="#ffb700"/></linearGradient><path fill="url(#SVGID_1_)" d="M24,44c11,0,20-9,20-20S35,4,24,4S4,13,4,24S13,44,24,44z"/><path fill="#343434" d="M31.8,31.7c0.4,0.4,0.3,1-0.1,1.4C29.5,35,26.8,36,24,36s-5.5-1-7.7-2.9c-0.4-0.4-0.5-1-0.1-1.4	c0.4-0.4,1-0.5,1.4-0.1c1.8,1.5,4,2.4,6.3,2.4s4.6-0.9,6.3-2.4c0.2-0.2,0.4-0.3,0.7-0.3C31.3,31.3,31.6,31.5,31.8,31.7z"/><path fill="#343434" d="M20,23c-0.3,0-0.7-0.2-0.9-0.5c-0.5-0.9-1.5-1.5-2.6-1.5s-2.1,0.6-2.6,1.5c-0.3,0.5-0.9,0.6-1.4,0.4 c-0.5-0.3-0.6-0.9-0.4-1.4c0.9-1.5,2.6-2.5,4.3-2.5s3.4,1,4.3,2.5c0.3,0.5,0.1,1.1-0.4,1.4C20.3,23,20.1,23,20,23z"/><path fill="#343434" d="M35,23c-0.3,0-0.7-0.2-0.9-0.5c-0.5-0.9-1.5-1.5-2.6-1.5s-2.1,0.6-2.6,1.5c-0.3,0.5-0.9,0.6-1.4,0.4 c-0.5-0.3-0.6-0.9-0.4-1.4c0.9-1.5,2.6-2.5,4.3-2.5s3.4,1,4.3,2.5c0.3,0.5,0.1,1.1-0.4,1.4C35.3,23,35.1,23,35,23z"/></svg>