<svg xmlns="http://www.w3.org/2000/svg" viewBox="0 0 48 48"><linearGradient id="mh5UacRye8UUXUUBQtspUa" x1="15.5" x2="15.5" y1="7" y2="47.945" gradientUnits="userSpaceOnUse"><stop offset="0" stop-color="#e83c67"/><stop offset=".423" stop-color="#c5214a"/><stop offset=".773" stop-color="#b01038"/><stop offset="1" stop-color="#a80a31"/></linearGradient><path fill="url(#mh5UacRye8UUXUUBQtspUa)" d="M26,42H5l5.312-29.981C10.706,9.277,13.134,7.236,16,7.236h0c2.866,0,5.294,2.041,5.688,4.782	L26,42z"/><linearGradient id="mh5UacRye8UUXUUBQtspUb" x1="32.5" x2="32.5" y1="7" y2="47.945" gradientUnits="userSpaceOnUse"><stop offset="0" stop-color="#e83c67"/><stop offset=".423" stop-color="#c5214a"/><stop offset=".773" stop-color="#b01038"/><stop offset="1" stop-color="#a80a31"/></linearGradient><path fill="url(#mh5UacRye8UUXUUBQtspUb)" d="M43,42H22l4.312-29.981C26.706,9.277,29.134,7.236,32,7.236h0	c2.866,0,5.294,2.041,5.688,4.782L43,42z"/><linearGradient id="mh5UacRye8UUXUUBQtspUc" x1="24" x2="24" y1="1.91" y2="48.899" gradientUnits="userSpaceOnUse"><stop offset=".002" stop-color="#f44f78"/><stop offset=".397" stop-color="#e4305d"/><stop offset=".763" stop-color="#d81b4a"/><stop offset="1" stop-color="#d41343"/></linearGradient><path fill="url(#mh5UacRye8UUXUUBQtspUc)" d="M35,42H13l5.312-30.185C18.706,9.055,21.134,7,24,7h0c2.866,0,5.294,2.055,5.688,4.815L35,42z"/><linearGradient id="mh5UacRye8UUXUUBQtspUd" x1="-1.972" x2="50.679" y1="41.5" y2="41.5" gradientUnits="userSpaceOnUse"><stop offset="0" stop-color="#dfe9f2"/><stop offset=".391" stop-color="#d6e0e9"/><stop offset="1" stop-color="#bfc8d1"/></linearGradient><path fill="url(#mh5UacRye8UUXUUBQtspUd)" d="M43,43H5c-0.857,0-1.618-0.545-1.894-1.356l-0.111-0.327C2.775,40.669,3.266,40,3.962,40	h40.075c0.696,0,1.187,0.669,0.967,1.316l-0.111,0.327C44.618,42.455,43.857,43,43,43z"/></svg>