<svg xmlns="http://www.w3.org/2000/svg" xmlns:xlink="http://www.w3.org/1999/xlink" data-name="Слой 1" viewBox="0 0 48 48"><defs><linearGradient id="1dr5M~wEkaCUWTJrbDa7La" x1="22.164" x2="25.836" y1="2.955" y2="13.045" data-name="Безымянный градиент 17" gradientUnits="userSpaceOnUse"><stop offset="0" stop-color="#a1aab3"/><stop offset="1" stop-color="#8f979e"/></linearGradient><linearGradient id="1dr5M~wEkaCUWTJrbDa7Lc" x1="20.535" x2="28.273" y1="13.482" y2="34.741" xlink:href="#1dr5M~wEkaCUWTJrbDa7La"/><linearGradient id="1dr5M~wEkaCUWTJrbDa7Lb" x1="10.75" x2="10.75" y1="29.723" y2="19.339" data-name="Безымянный градиент 18" gradientTransform="rotate(73.078 10.75 23.25)" gradientUnits="userSpaceOnUse"><stop offset=".503" stop-color="#a1aab3"/><stop offset=".658" stop-color="#9ea7af"/><stop offset=".796" stop-color="#949da5"/><stop offset=".928" stop-color="#848c92"/><stop offset="1" stop-color="#787f85"/></linearGradient><linearGradient id="1dr5M~wEkaCUWTJrbDa7Ld" x1="37.25" x2="37.25" y1="29.723" y2="19.339" gradientTransform="rotate(16.928 37.25 23.25)" xlink:href="#1dr5M~wEkaCUWTJrbDa7Lb"/></defs><path fill="#64717c" d="M20,35h8a0,0,0,0,1,0,0v8a2,2,0,0,1-2,2H22a2,2,0,0,1-2-2V35A0,0,0,0,1,20,35Z"/><rect width="2" height="5" x="23" y="11" fill="#64717c"/><path fill="#64717c" d="M23,14h2a1,1,0,0,1,1,1v1a0,0,0,0,1,0,0H22a0,0,0,0,1,0,0V15A1,1,0,0,1,23,14Z"/><rect width="16" height="8" x="16" y="4" fill="url(#1dr5M~wEkaCUWTJrbDa7La)" rx="4"/><path fill="url(#1dr5M~wEkaCUWTJrbDa7Lc)" d="M30.18143,36H17.81857a2,2,0,0,1-1.991-1.81038l-1.81857-17A2,2,0,0,1,16,15H32a2,2,0,0,1,1.991,2.18962l-1.81857,17A2,2,0,0,1,30.18143,36Z"/><rect width="12.021" height="2" x="4.74" y="22.25" fill="url(#1dr5M~wEkaCUWTJrbDa7Lb)" transform="rotate(-73.078 10.75 23.25)"/><rect width="2" height="12.021" x="36.25" y="17.24" fill="url(#1dr5M~wEkaCUWTJrbDa7Ld)" transform="rotate(-16.928 37.25 23.25)"/><path d="M27,20a1,1,0,0,1,1,1v4a1,1,0,0,1-1,1H21a1,1,0,0,1-1-1V21a1,1,0,0,1,1-1h6m0-1H21a2.00227,2.00227,0,0,0-2,2v4a2.00227,2.00227,0,0,0,2,2h6a2.00226,2.00226,0,0,0,2-2V21a2.00226,2.00226,0,0,0-2-2Z" opacity=".05"/><path d="M27,20a1,1,0,0,1,1,1v4a1,1,0,0,1-1,1H21a1,1,0,0,1-1-1V21a1,1,0,0,1,1-1h6m0-.5H21A1.5017,1.5017,0,0,0,19.5,21v4A1.5017,1.5017,0,0,0,21,26.5h6A1.50171,1.50171,0,0,0,28.5,25V21A1.50171,1.50171,0,0,0,27,19.5Z" opacity=".07"/><rect width="8" height="6" x="20" y="20" fill="#64717c" rx="1"/><rect width="10" height="4" x="19" y="6" fill="#64717c" rx="2"/><circle cx="21" cy="8" r="1" fill="#50e6ff"/><circle cx="27" cy="8" r="1" fill="#50e6ff"/><circle cx="12.5" cy="17.5" r="2.5" fill="#64717c"/><circle cx="35.5" cy="17.5" r="2.5" fill="#64717c"/><path fill="#64717c" d="M11,32a.99974.99974,0,0,1-1-1,1,1,0,0,0-2,0,1,1,0,0,1-2,0,3,3,0,0,1,6,0A.99974.99974,0,0,1,11,32Z"/><path fill="#64717c" d="M41,32a.99974.99974,0,0,1-1-1,1,1,0,0,0-2,0,1,1,0,0,1-2,0,3,3,0,0,1,6,0A.99974.99974,0,0,1,41,32Z"/></svg>