<svg xmlns="http://www.w3.org/2000/svg" viewBox="0 0 48 48"><linearGradient id="taL5T7piwUh4pj6MFLK~8a" x1="10.04" x2="11.96" y1="5.556" y2="16.445" gradientUnits="userSpaceOnUse"><stop offset="0" stop-color="#3079d6"/><stop offset="1" stop-color="#297cd2"/></linearGradient><path fill="url(#taL5T7piwUh4pj6MFLK~8a)" d="M7.667,6h6.667C15.254,6,16,6.746,16,7.667v6.667C16,15.254,15.254,16,14.333,16H7.667 C6.746,16,6,15.254,6,14.333V7.667C6,6.746,6.746,6,7.667,6z"/><linearGradient id="taL5T7piwUh4pj6MFLK~8b" x1="36.04" x2="37.96" y1="5.556" y2="16.445" gradientUnits="userSpaceOnUse"><stop offset="0" stop-color="#3079d6"/><stop offset="1" stop-color="#297cd2"/></linearGradient><path fill="url(#taL5T7piwUh4pj6MFLK~8b)" d="M33.667,6h6.667C41.254,6,42,6.746,42,7.667v6.667C42,15.254,41.254,16,40.333,16h-6.667 C32.746,16,32,15.254,32,14.333V7.667C32,6.746,32.746,6,33.667,6z"/><linearGradient id="taL5T7piwUh4pj6MFLK~8c" x1="23.04" x2="24.96" y1="5.556" y2="16.445" gradientUnits="userSpaceOnUse"><stop offset="0" stop-color="#3079d6"/><stop offset="1" stop-color="#297cd2"/></linearGradient><path fill="url(#taL5T7piwUh4pj6MFLK~8c)" d="M20.667,6h6.667C28.254,6,29,6.746,29,7.667v6.667C29,15.254,28.254,16,27.333,16h-6.667 C19.746,16,19,15.254,19,14.333V7.667C19,6.746,19.746,6,20.667,6z"/><linearGradient id="taL5T7piwUh4pj6MFLK~8d" x1="10.04" x2="11.96" y1="18.555" y2="29.445" gradientUnits="userSpaceOnUse"><stop offset="0" stop-color="#3079d6"/><stop offset="1" stop-color="#297cd2"/></linearGradient><path fill="url(#taL5T7piwUh4pj6MFLK~8d)" d="M7.667,19h6.667C15.254,19,16,19.746,16,20.667v6.667C16,28.254,15.254,29,14.333,29H7.667 C6.746,29,6,28.254,6,27.333v-6.667C6,19.746,6.746,19,7.667,19z"/><linearGradient id="taL5T7piwUh4pj6MFLK~8e" x1="36.04" x2="37.96" y1="18.555" y2="29.445" gradientUnits="userSpaceOnUse"><stop offset="0" stop-color="#3079d6"/><stop offset="1" stop-color="#297cd2"/></linearGradient><path fill="url(#taL5T7piwUh4pj6MFLK~8e)" d="M33.667,19h6.667C41.254,19,42,19.746,42,20.667v6.667C42,28.254,41.254,29,40.333,29h-6.667 C32.746,29,32,28.254,32,27.333v-6.667C32,19.746,32.746,19,33.667,19z"/><linearGradient id="taL5T7piwUh4pj6MFLK~8f" x1="23.04" x2="24.96" y1="18.555" y2="29.445" gradientUnits="userSpaceOnUse"><stop offset="0" stop-color="#3079d6"/><stop offset="1" stop-color="#297cd2"/></linearGradient><path fill="url(#taL5T7piwUh4pj6MFLK~8f)" d="M20.667,19h6.667C28.254,19,29,19.746,29,20.667v6.667C29,28.254,28.254,29,27.333,29h-6.667 C19.746,29,19,28.254,19,27.333v-6.667C19,19.746,19.746,19,20.667,19z"/><linearGradient id="taL5T7piwUh4pj6MFLK~8g" x1="10.04" x2="11.96" y1="31.555" y2="42.444" gradientUnits="userSpaceOnUse"><stop offset="0" stop-color="#3079d6"/><stop offset="1" stop-color="#297cd2"/></linearGradient><path fill="url(#taL5T7piwUh4pj6MFLK~8g)" d="M7.667,32h6.667C15.254,32,16,32.746,16,33.667v6.667C16,41.254,15.254,42,14.333,42H7.667 C6.746,42,6,41.254,6,40.333v-6.667C6,32.746,6.746,32,7.667,32z"/><linearGradient id="taL5T7piwUh4pj6MFLK~8h" x1="36.04" x2="37.96" y1="31.555" y2="42.444" gradientUnits="userSpaceOnUse"><stop offset="0" stop-color="#3079d6"/><stop offset="1" stop-color="#297cd2"/></linearGradient><path fill="url(#taL5T7piwUh4pj6MFLK~8h)" d="M33.667,32h6.667C41.254,32,42,32.746,42,33.667v6.667C42,41.254,41.254,42,40.333,42h-6.667 C32.746,42,32,41.254,32,40.333v-6.667C32,32.746,32.746,32,33.667,32z"/><linearGradient id="taL5T7piwUh4pj6MFLK~8i" x1="23.04" x2="24.96" y1="31.555" y2="42.444" gradientUnits="userSpaceOnUse"><stop offset="0" stop-color="#3079d6"/><stop offset="1" stop-color="#297cd2"/></linearGradient><path fill="url(#taL5T7piwUh4pj6MFLK~8i)" d="M20.667,32h6.667C28.254,32,29,32.746,29,33.667v6.667C29,41.254,28.254,42,27.333,42h-6.667 C19.746,42,19,41.254,19,40.333v-6.667C19,32.746,19.746,32,20.667,32z"/></svg>