<svg xmlns="http://www.w3.org/2000/svg" viewBox="0 0 48 48"><path fill="#195bbc" d="M26,28H6c-1.105,0-2,0.895-2,2v12c0,1.105,0.895,2,2,2h20c1.105,0,2-0.895,2-2V30	C28,28.895,27.105,28,26,28z"/><linearGradient id="Qr6xh3_LPVP7RtXhCjV4Xa" x1="28" x2="28" y1="19.934" y2="4.8" gradientUnits="userSpaceOnUse"><stop offset="0" stop-color="#42a3f2"/><stop offset="1" stop-color="#42a4eb"/></linearGradient><path fill="url(#Qr6xh3_LPVP7RtXhCjV4Xa)" d="M20,20h16c1.105,0,2-0.895,2-2V6c0-1.105-0.895-2-2-2H20c-1.105,0-2,0.895-2,2v12	C18,19.105,18.895,20,20,20z"/><path fill="#35c1f1" d="M41.924,36.617C41.77,36.243,41.404,36,41,36h-3V24.5c0-0.276-0.224-0.5-0.5-0.5h-1	c-0.276,0-0.5,0.224-0.5,0.5V36h-3c-0.404,0-0.77,0.243-0.924,0.617c-0.155,0.374-0.069,0.804,0.217,1.09l4,4	C36.488,41.902,36.744,42,37,42s0.512-0.098,0.707-0.293l4-4C41.993,37.421,42.079,36.991,41.924,36.617z"/></svg>