<svg xmlns="http://www.w3.org/2000/svg" data-name="Слой 1" viewBox="0 0 48 48"><defs><linearGradient id="7zgfsbaiQ2x1CnyoGAs0_a" x1="12.815" x2="35.995" y1="6.101" y2="43.195" data-name="Безымянный градиент 20" gradientUnits="userSpaceOnUse"><stop offset="0" stop-color="#ffd869"/><stop offset="1" stop-color="#fec52b"/></linearGradient></defs><path fill="url(#7zgfsbaiQ2x1CnyoGAs0_a)" d="M40,9H8a4,4,0,0,1-4,4V35a4,4,0,0,1,4,4H40a4,4,0,0,1,4-4V13A4,4,0,0,1,40,9ZM32,37a1,1,0,1,1,1-1A1.00036,1.00036,0,0,1,32,37Zm0-4a1,1,0,1,1,1-1A1.00036,1.00036,0,0,1,32,33Zm0-4a1,1,0,1,1,1-1A1.00036,1.00036,0,0,1,32,29Zm0-4a1,1,0,1,1,1-1A1.00036,1.00036,0,0,1,32,25Zm0-4a1,1,0,1,1,1-1A1.00036,1.00036,0,0,1,32,21Zm0-4a1,1,0,1,1,1-1A1.00036,1.00036,0,0,1,32,17Zm0-4a1,1,0,1,1,1-1A1.00036,1.00036,0,0,1,32,13Z"/><rect width="7" height="2" x="21" y="20" fill="#c2620e" rx="1"/><rect width="12" height="2" x="7" y="20" fill="#c2620e" rx="1"/><rect width="21" height="2" x="7" y="26" fill="#c2620e" rx="1"/></svg>