<svg xmlns="http://www.w3.org/2000/svg" viewBox="0 0 48 48"><linearGradient id="KXWO7rbZUtTkKsDmNZRjPa" x1="20.766" x2="25.05" y1="30.008" y2="44.746" gradientUnits="userSpaceOnUse"><stop offset="0" stop-color="#33bef0"/><stop offset="1" stop-color="#0a85d9"/></linearGradient><path fill="url(#KXWO7rbZUtTkKsDmNZRjPa)" d="M24,30.571c-8.837,0-16,4.921-16,10.286V42c0,1.105,0.895,2,2,2h28c1.105,0,2-0.895,2-2	v-1.143C40,35.492,32.837,30.571,24,30.571z"/><path fill="#d6a121" d="M29,31c0,1.897-2,4-5,4s-5-2.103-5-4c0-2.637,0-7.035,0-7.035h10C29,23.965,29,28.363,29,31z"/><linearGradient id="KXWO7rbZUtTkKsDmNZRjPb" x1="32.917" x2="34.251" y1="20" y2="20" gradientUnits="userSpaceOnUse"><stop offset="0" stop-color="#c48f0c"/><stop offset=".251" stop-color="#d19b16"/><stop offset=".619" stop-color="#dca51f"/><stop offset="1" stop-color="#e0a922"/></linearGradient><path fill="url(#KXWO7rbZUtTkKsDmNZRjPb)" d="M32.916,18h-0.527v4h0.703c0.515,0,0.954-0.312,1.041-0.74l0.344-1.703	C34.642,18.743,33.897,18,32.916,18z"/><linearGradient id="KXWO7rbZUtTkKsDmNZRjPc" x1="-479.083" x2="-477.749" y1="20" y2="20" gradientTransform="matrix(-1 0 0 1 -464 0)" gradientUnits="userSpaceOnUse"><stop offset="0" stop-color="#c48f0c"/><stop offset=".251" stop-color="#d19b16"/><stop offset=".619" stop-color="#dca51f"/><stop offset="1" stop-color="#e0a922"/></linearGradient><path fill="url(#KXWO7rbZUtTkKsDmNZRjPc)" d="M15.084,18h0.527v4h-0.703c-0.515,0-0.954-0.312-1.041-0.74l-0.344-1.703	C13.358,18.743,14.103,18,15.084,18z"/><radialGradient id="KXWO7rbZUtTkKsDmNZRjPd" cx="14.87" cy="54.238" r="12.224" gradientTransform="translate(10.89 -29.118) scale(.8816)" gradientUnits="userSpaceOnUse"><stop offset="0" stop-color="#ffcf54"/><stop offset=".261" stop-color="#fdcb4d"/><stop offset=".639" stop-color="#f7c13a"/><stop offset="1" stop-color="#f0b421"/></radialGradient><path fill="url(#KXWO7rbZUtTkKsDmNZRjPd)" d="M24,6.4c-4.441,0-9,0.675-9,10.275c0,0.768,0,5.877,0,6.698C15,26.8,20.4,31,24,31	s9-4.2,9-7.627c0-0.821,0-5.929,0-6.698C33,7.075,28.441,6.4,24,6.4z"/><radialGradient id="KXWO7rbZUtTkKsDmNZRjPe" cx="5.168" cy="40.585" r="28.915" gradientTransform="translate(10.89 -29.118) scale(.8816)" gradientUnits="userSpaceOnUse"><stop offset="0" stop-color="#c26715"/><stop offset=".508" stop-color="#b85515"/><stop offset="1" stop-color="#ad3f16"/></radialGradient><path fill="url(#KXWO7rbZUtTkKsDmNZRjPe)" d="M24,5.545c-4.354,0-5,1.636-5,1.636c-1.77,0.261-5,2.854-5,5.818c0,1.654,0.265,2.876,1,7	c0.545-6.545,2.249-9,4-9c1.267,0,2.273,1,5,1c2.303,0,2.875-1,5-1c3,0,4,7.968,4,9c0.601-3.01,1-5.555,1-7	C34,9.57,30.209,5.545,24,5.545z"/><radialGradient id="KXWO7rbZUtTkKsDmNZRjPf" cx="9.286" cy="42.522" r="33.398" gradientTransform="matrix(.8431 0 0 .8816 14.736 -29.118)" gradientUnits="userSpaceOnUse"><stop offset="0" stop-color="#c26715"/><stop offset=".508" stop-color="#b85515"/><stop offset="1" stop-color="#ad3f16"/></radialGradient><path fill="url(#KXWO7rbZUtTkKsDmNZRjPf)" d="M24.219,5c-4.164,0-5.216,2.182-5.216,2.182c-0.042,1.159,0.522,2.182,0.522,2.182	S20.285,11,24.625,11C27.245,11,31,9.365,31,5C31,5,30.157,5,24.219,5z"/><radialGradient id="KXWO7rbZUtTkKsDmNZRjPg" cx="37.016" cy="37.07" r="10.034" gradientUnits="userSpaceOnUse"><stop offset=".627"/><stop offset="1" stop-opacity="0"/></radialGradient><path fill="url(#KXWO7rbZUtTkKsDmNZRjPg)" d="M28.935,31.105C27.724,32.759,27,34.793,27,37c0,2.727,1.094,5.196,2.864,7H38	c1.105,0,2-0.895,2-2v-1.143C40,36.538,35.355,32.513,28.935,31.105z" opacity=".15"/><path fill="#199be2" d="M44.992,43.224l-1.768,1.768l2.935,2.935c0.098,0.098,0.256,0.098,0.354,0l1.414-1.414	c0.098-0.098,0.098-0.256,0-0.354L44.992,43.224z"/><radialGradient id="KXWO7rbZUtTkKsDmNZRjPh" cx="37.012" cy="37.048" r="9.802" gradientUnits="userSpaceOnUse"><stop offset=".693" stop-color="#006185"/><stop offset=".921" stop-color="#35c1f1"/></radialGradient><polygon fill="url(#KXWO7rbZUtTkKsDmNZRjPh)" points="42.8,41.033 41.033,42.8 43.224,44.992 44.992,43.224"/><linearGradient id="KXWO7rbZUtTkKsDmNZRjPi" x1="31.455" x2="42.669" y1="31.455" y2="42.669" gradientUnits="userSpaceOnUse"><stop offset="0" stop-color="#a3ffff"/><stop offset=".223" stop-color="#9dfbff"/><stop offset=".53" stop-color="#8bf1ff"/><stop offset=".885" stop-color="#6ee0ff"/><stop offset="1" stop-color="#63daff"/></linearGradient><circle cx="37" cy="37" r="8" fill="url(#KXWO7rbZUtTkKsDmNZRjPi)"/></svg>