<svg xmlns="http://www.w3.org/2000/svg" viewBox="0 0 48 48"><path fill="#107c42" d="M9,21c-0.293,0-0.584-0.128-0.781-0.375c-0.345-0.431-0.275-1.061,0.156-1.405l10-8	c0.282-0.226,0.662-0.28,0.996-0.148l9.459,3.784l9.545-7.636c0.43-0.345,1.061-0.275,1.405,0.156	c0.345,0.431,0.275,1.061-0.156,1.405l-10,8c-0.282,0.225-0.662,0.28-0.996,0.148l-9.459-3.784l-9.545,7.636	C9.44,20.928,9.22,21,9,21z"/><circle cx="9" cy="40" r="1" fill="#64717c"/><circle cx="9" cy="36" r="1" fill="#64717c"/><circle cx="9" cy="32" r="1" fill="#64717c"/><circle cx="9" cy="28" r="1" fill="#64717c"/><circle cx="19" cy="40" r="1" fill="#64717c"/><circle cx="19" cy="36" r="1" fill="#64717c"/><circle cx="19" cy="32" r="1" fill="#64717c"/><circle cx="19" cy="24" r="1" fill="#64717c"/><circle cx="9" cy="24" r="1" fill="#64717c"/><circle cx="19" cy="28" r="1" fill="#64717c"/><circle cx="19" cy="20" r="1" fill="#64717c"/><circle cx="9" cy="20" r="1" fill="#64717c"/><circle cx="19" cy="16" r="1" fill="#64717c"/><circle cx="29" cy="40" r="1" fill="#64717c"/><circle cx="29" cy="36" r="1" fill="#64717c"/><circle cx="29" cy="32" r="1" fill="#64717c"/><circle cx="29" cy="24" r="1" fill="#64717c"/><circle cx="29" cy="28" r="1" fill="#64717c"/><circle cx="39" cy="40" r="1" fill="#64717c"/><circle cx="39" cy="36" r="1" fill="#64717c"/><circle cx="39" cy="32" r="1" fill="#64717c"/><circle cx="39" cy="24" r="1" fill="#64717c"/><circle cx="39" cy="28" r="1" fill="#64717c"/><circle cx="39" cy="20" r="1" fill="#64717c"/><circle cx="29" cy="20" r="1" fill="#64717c"/><circle cx="39" cy="16" r="1" fill="#64717c"/><circle cx="29" cy="16" r="1" fill="#64717c"/><circle cx="39" cy="12" r="1" fill="#64717c"/><path fill="#abb4be" d="M42,40H6c-0.552,0-1,0.448-1,1s0.448,1,1,1h36c0.552,0,1-0.448,1-1S42.552,40,42,40z"/><circle cx="9" cy="20" r="2" fill="#33c481"/><circle cx="19" cy="12" r="2" fill="#33c481"/><circle cx="29" cy="16" r="2" fill="#33c481"/><circle cx="39" cy="8" r="2" fill="#33c481"/></svg>