<svg xmlns="http://www.w3.org/2000/svg" viewBox="0 0 48 48"><linearGradient id="cBCUZH8rtrjroo9LWE_TJa" x1="11.358" x2="11.358" y1="-2177.74" y2="-2197.573" gradientTransform="matrix(1 0 0 -1 .047 -2153.23)" gradientUnits="userSpaceOnUse"><stop offset="0" stop-color="#ffd869"/><stop offset="1" stop-color="#fec52b"/></linearGradient><path fill="url(#cBCUZH8rtrjroo9LWE_TJa)" d="M16.718,26.977l-0.507,0.507l-5.284,5.284l-8.616,8.616c-0.59,0.59-0.62,1.515-0.068,2.067 l2.243,2.243c0.552,0.552,1.478,0.522,2.067-0.068l14.407-14.407L16.718,26.977z"/><linearGradient id="cBCUZH8rtrjroo9LWE_TJb" x1="18.977" x2="30.888" y1="36.679" y2="24.768" gradientTransform="rotate(45.001 23.01 22.941)" gradientUnits="userSpaceOnUse"><stop offset="0" stop-color="#889097"/><stop offset=".331" stop-color="#848c94"/><stop offset=".669" stop-color="#78828b"/><stop offset="1" stop-color="#64717c"/></linearGradient><path fill="url(#cBCUZH8rtrjroo9LWE_TJb)" d="M23.288,29.304l-5.155-5.155l-5.516,5.516c-0.208,0.294-0.206,0.682,0.04,0.927l4.672,4.672 c0.277,0.277,0.743,0.261,1.04-0.037l4.883-4.883C23.549,30.046,23.565,29.58,23.288,29.304z"/><linearGradient id="cBCUZH8rtrjroo9LWE_TJc" x1="9.409" x2="39.437" y1="16.742" y2="16.742" gradientTransform="rotate(45.001 23.01 22.941)" gradientUnits="userSpaceOnUse"><stop offset="0" stop-color="#a1aab3"/><stop offset="1" stop-color="#8f979e"/></linearGradient><path fill="url(#cBCUZH8rtrjroo9LWE_TJc)" d="M44.451,23.658c0.458-0.588,0.926-1.188,1.413-1.805c0.686-0.867,0.545-2.131-0.329-2.809 c-0.867-0.685-2.124-0.537-2.809,0.329c-0.493,0.624-0.967,1.232-1.43,1.826c-2.214,2.84-4.124,5.292-6.816,7.818 c-2.597,2.335-6.179,2.472-8.331,0.32l-2.36-2.36l13.435-13.435c0.781-0.781,0.781-2.047,0-2.828c-0.781-0.781-2.047-0.781-2.828,0 L20.961,24.148l-2.36-2.36c-2.211-2.211-2.094-5.845,0.264-8.271c2.801-2.871,5.066-4.651,7.688-6.713 c0.656-0.515,1.326-1.042,2.024-1.602c0.862-0.691,1.001-1.949,0.31-2.811c-0.694-0.866-1.95-1-2.812-0.309 c-0.687,0.55-1.348,1.07-1.993,1.577c-2.62,2.06-5.095,4.005-8.082,7.067c-3.902,4.014-4.001,10.116-0.226,13.891l7.549,7.549 c3.682,3.682,9.629,3.607,13.865-0.202C40.136,29.195,42.232,26.505,44.451,23.658z"/></svg>