<svg xmlns="http://www.w3.org/2000/svg" viewBox="0 0 48 48"><path fill="#199be2" d="M36,17v25c0,1.105-0.895,2-2,2H10c-1.105,0-2-0.895-2-2V10c0-1.105,0.895-2,2-2h17L36,17z"/><path d="M10,8h17l9,9v25H13.681C11.648,42,10,40.352,10,38.319V8z" opacity=".05"/><path d="M11,8h16l9,9v24H13.839C12.271,41,11,39.729,11,38.161V8z" opacity=".07"/><path fill="#50e6ff" d="M40,14v24c0,1.105-0.895,2-2,2H14c-1.105,0-2-0.895-2-2V6c0-1.105,0.895-2,2-2h16L40,14z"/><linearGradient id="lWtdegxGOw5avCgoDjXSPa" x1="30.534" x2="35.09" y1="34.534" y2="39.09" gradientTransform="matrix(1 0 0 -1 0 48)" gradientUnits="userSpaceOnUse"><stop offset="0" stop-color="#3079d6"/><stop offset="1" stop-color="#297cd2"/></linearGradient><path fill="url(#lWtdegxGOw5avCgoDjXSPa)" d="M30,4v8c0,1.105,0.895,2,2,2h8L30,4z"/><path fill="#057093" d="M33.317,20.934h-15c-0.276,0-0.5-0.224-0.5-0.5v-1c0-0.276,0.224-0.5,0.5-0.5h15	c0.276,0,0.5,0.224,0.5,0.5v1C33.817,20.71,33.593,20.934,33.317,20.934z"/><path fill="#057093" d="M33.317,24.934h-15c-0.276,0-0.5-0.224-0.5-0.5v-1c0-0.276,0.224-0.5,0.5-0.5h15	c0.276,0,0.5,0.224,0.5,0.5v1C33.817,24.71,33.593,24.934,33.317,24.934z"/><path fill="#057093" d="M33.317,28.934h-15c-0.276,0-0.5-0.224-0.5-0.5v-1c0-0.276,0.224-0.5,0.5-0.5h15	c0.276,0,0.5,0.224,0.5,0.5v1C33.817,28.71,33.593,28.934,33.317,28.934z"/><path fill="#057093" d="M29.317,32.934h-11c-0.276,0-0.5-0.224-0.5-0.5v-1c0-0.276,0.224-0.5,0.5-0.5h11	c0.276,0,0.5,0.224,0.5,0.5v1C29.817,32.71,29.593,32.934,29.317,32.934z"/></svg>