<svg xmlns="http://www.w3.org/2000/svg" viewBox="0 0 48 48"><linearGradient id="bEKa3rVP8C_Ezi51gnMiga" x1="24" x2="24" y1="-197.682" y2="-191.189" gradientTransform="matrix(1 0 0 -1 0 -154)" gradientUnits="userSpaceOnUse"><stop offset="0" stop-color="#c26715"/><stop offset=".508" stop-color="#b85515"/><stop offset="1" stop-color="#ad3f16"/></linearGradient><path fill="url(#bEKa3rVP8C_Ezi51gnMiga)" d="M21,35h6v8c0,0.552-0.448,1-1,1h-4c-0.552,0-1-0.448-1-1V35z"/><path fill="#107c42" d="M23.998,12.873L9.313,34.239C8.51,35.412,9.345,37,10.764,37h26.472c1.419,0,2.254-1.588,1.451-2.757	L23.998,12.873z"/><path fill="#21a366" d="M23.998,7.839L13.285,24.301C12.526,25.462,13.362,27,14.75,27h18.496	c1.388,0,2.224-1.538,1.465-2.703L23.998,7.839z"/><path fill="#33c481" d="M22.612,4.316l-5.374,9.11C16.565,14.562,17.384,16,18.706,16h10.582	c1.321,0,2.141-1.438,1.472-2.575l-5.374-9.11C24.763,3.261,23.233,3.261,22.612,4.316z"/><linearGradient id="bEKa3rVP8C_Ezi51gnMigb" x1="30.2" x2="34.588" y1="-173.551" y2="-197.645" gradientTransform="matrix(1 0 0 -1 0 -154)" gradientUnits="userSpaceOnUse"><stop offset="0" stop-color="#f44f5a"/><stop offset=".443" stop-color="#ee3d4a"/><stop offset="1" stop-color="#e52030"/></linearGradient><path fill="url(#bEKa3rVP8C_Ezi51gnMigb)" d="M31.215,20.138C31.205,20.104,31.2,20.044,31.2,20c0-0.331,0.269-0.6,0.6-0.6	c0.141,0,0.24,0.053,0.278,0.068c0.734,0.287,5.773,2.663,4.607,9.532c1.692-1.019,1.087-3,1.64-3c0.208,0,0.293,0.077,0.42,0.259	C40.598,28.902,42,32.052,42,35c0,4.97-4.03,9-9,9c-5.465,0-9-4.604-9-9C24,27.688,32.618,26.338,31.215,20.138z"/><linearGradient id="bEKa3rVP8C_Ezi51gnMigc" x1="31.366" x2="34.432" y1="-185.011" y2="-201.757" gradientTransform="matrix(1 0 0 -1 0 -154)" gradientUnits="userSpaceOnUse"><stop offset="0" stop-color="#fed100"/><stop offset="1" stop-color="#e36001"/></linearGradient><path fill="url(#bEKa3rVP8C_Ezi51gnMigc)" d="M32.81,32.107c0,0-0.126-0.107-0.31-0.107c-0.276,0-0.5,0.224-0.5,0.5c0.5,3-3,4-3,7.5	c0,2.209,1.791,4,4,4s4-1.791,4-4C37,37.15,34.49,33.346,32.81,32.107z"/></svg>