<svg xmlns="http://www.w3.org/2000/svg" xmlns:xlink="http://www.w3.org/1999/xlink" data-name="Слой 1" viewBox="0 0 48 48"><defs><linearGradient id="y3ycaVAGaFGOGPrNsLk22a" x1="10" x2="10" y1="15.62" y2="37.412" data-name="Безымянный градиент 101" gradientUnits="userSpaceOnUse"><stop offset="0" stop-color="#21ad64"/><stop offset="1" stop-color="#088242"/></linearGradient><linearGradient id="y3ycaVAGaFGOGPrNsLk22b" x1="38" x2="38" y1="15.62" y2="37.412" xlink:href="#y3ycaVAGaFGOGPrNsLk22a"/><linearGradient id="y3ycaVAGaFGOGPrNsLk22c" x1="24" x2="24" y1="28.174" y2="-1.904" data-name="Безымянный градиент 221" gradientUnits="userSpaceOnUse"><stop offset="0" stop-color="#f9f9f9"/><stop offset=".189" stop-color="#eceeef"/><stop offset=".708" stop-color="#ced2d5"/><stop offset="1" stop-color="#c2c8cc"/></linearGradient><linearGradient id="y3ycaVAGaFGOGPrNsLk22d" x1="24" x2="24" y1="-2131.966" y2="-2138.996" data-name="Безымянный градиент 218" gradientTransform="matrix(1 0 0 -1 0 -2096)" gradientUnits="userSpaceOnUse"><stop offset="0" stop-color="#b9360c"/><stop offset=".537" stop-color="#b5350c"/><stop offset=".999" stop-color="#ab320b"/></linearGradient></defs><path fill="url(#y3ycaVAGaFGOGPrNsLk22a)" d="M3,34,9.11953,22.53073a.99571.99571,0,0,1,1.76094,0L17,34Z"/><path fill="url(#y3ycaVAGaFGOGPrNsLk22b)" d="M31,34l6.11953-11.46927a.99571.99571,0,0,1,1.76094,0L45,34Z"/><path fill="#33c481" d="M10,35,22.79329,13.67668a1.41429,1.41429,0,0,1,2.41342,0L38,35Z"/><path fill="url(#y3ycaVAGaFGOGPrNsLk22c)" d="M29.74817,11.19727A2.9804,2.9804,0,0,0,25.9809,7.1897C25.98694,7.12622,26,7.06494,26,7a2,2,0,0,0-4,0c0,.06494.01306.12622.0191.1897a2.98951,2.98951,0,0,0-3.76727,4.00757A4.4882,4.4882,0,0,0,19.5,20h1.96875L22.5,31h3l1.03125-11H28.5a4.4882,4.4882,0,0,0,1.24817-8.80273Z"/><path fill="url(#y3ycaVAGaFGOGPrNsLk22d)" d="M3,36v5a1.99945,1.99945,0,0,0,2,2H43a1.99945,1.99945,0,0,0,2-2V36Z"/><path fill="#d43a02" d="M28.37873,31.51493h0A2,2,0,0,0,26.43845,30h-4.8769a2,2,0,0,0-1.94028,1.51493h0A3.28079,3.28079,0,0,1,16.43845,34H3v2H45V34H31.56155A3.28079,3.28079,0,0,1,28.37873,31.51493Z"/></svg>