<svg xmlns="http://www.w3.org/2000/svg" viewBox="0 0 48 48"><path fill="#e3a600" d="M42,21H14V9c0-0.552,0.448-1,1-1h26c0.552,0,1,0.448,1,1V21z"/><path fill="#c48c00" d="M41,34H15c-0.55,0-1-0.45-1-1V21h28v12C42,33.55,41.55,34,41,34z"/><circle cx="40" cy="40" r="3" fill="#5c5f61"/><circle cx="40" cy="40" r="1" opacity=".15"/><circle cx="17" cy="40" r="3" fill="#5c5f61"/><circle cx="17" cy="40" r="1" opacity=".15"/><linearGradient id="3WagC5aOC1io1_RDFd2ppa" x1="9.5" x2="9.5" y1="38" y2="10" gradientUnits="userSpaceOnUse"><stop offset="0" stop-color="#92a3b0"/><stop offset=".015" stop-color="#a3b5c4"/><stop offset=".032" stop-color="#aec2d1"/><stop offset=".046" stop-color="#b2c6d6"/></linearGradient><path fill="url(#3WagC5aOC1io1_RDFd2ppa)" d="M16,38h-5.217c-1.524,0-2.806-1.142-2.98-2.656L5.21,12.885C5.152,12.381,4.726,12,4.217,12H3	c-0.552,0-1-0.447-1-1s0.448-1,1-1h1.217c1.524,0,2.806,1.142,2.98,2.656L9.79,35.115C9.848,35.619,10.274,36,10.783,36H16	c0.552,0,1,0.447,1,1S16.552,38,16,38z"/><linearGradient id="3WagC5aOC1io1_RDFd2ppb" x1="11" x2="45" y1="36" y2="36" gradientUnits="userSpaceOnUse"><stop offset="0" stop-color="#3079d6"/><stop offset="1" stop-color="#297cd2"/></linearGradient><path fill="url(#3WagC5aOC1io1_RDFd2ppb)" d="M12,34h32c0.552,0,1,0.448,1,1v2c0,0.552-0.448,1-1,1H12c-0.552,0-1-0.448-1-1v-2	C11,34.448,11.448,34,12,34z"/></svg>