<svg xmlns="http://www.w3.org/2000/svg" viewBox="0 0 48 48"><linearGradient id="aP389y4LFZU40HKEwdkZ0a" x1="12.75" x2="12.75" y1="21" y2="5" gradientUnits="userSpaceOnUse"><stop offset="0" stop-color="#006185"/><stop offset=".25" stop-color="#35c1f1"/></linearGradient><path fill="url(#aP389y4LFZU40HKEwdkZ0a)" d="M17.5,5h-3c-0.478,0-0.926,0.227-1.209,0.612l-9.5,12.931 c-0.332,0.453-0.384,1.053-0.134,1.555c0.25,0.503,0.759,0.824,1.32,0.833L9.477,21c0.008,0,0.015,0,0.023,0 c0.462,0,0.899-0.213,1.184-0.579L17.233,12H17.5c2.954,0,4.5-1.761,4.5-3.5S20.454,5,17.5,5z"/><linearGradient id="aP389y4LFZU40HKEwdkZ0b" x1="35.25" x2="35.25" y1="21" y2="5" gradientUnits="userSpaceOnUse"><stop offset="0" stop-color="#006185"/><stop offset=".25" stop-color="#35c1f1"/></linearGradient><path fill="url(#aP389y4LFZU40HKEwdkZ0b)" d="M44.209,18.542l-9.5-12.931C34.426,5.227,33.978,5,33.5,5h-3 c-1.254,0-2.343,0.32-3.15,0.925C26.492,6.568,26,7.507,26,8.5c0,1.739,1.546,3.5,4.5,3.5h0.267l6.549,8.421 C37.601,20.787,38.038,21,38.5,21c0.008,0,0.016,0,0.023,0l4.5-0.069c0.562-0.009,1.071-0.33,1.32-0.833 C44.593,19.595,44.541,18.995,44.209,18.542z"/><linearGradient id="aP389y4LFZU40HKEwdkZ0c" x1="24" x2="24" y1="17.931" y2="41" gradientUnits="userSpaceOnUse"><stop offset="0" stop-color="#a3ffff"/><stop offset=".223" stop-color="#9dfbff"/><stop offset=".53" stop-color="#8bf1ff"/><stop offset=".885" stop-color="#6ee0ff"/><stop offset="1" stop-color="#63daff"/></linearGradient><path fill="url(#aP389y4LFZU40HKEwdkZ0c)" d="M44.125,18.438c-0.285-0.322-0.694-0.507-1.125-0.507H5c-0.43,0-0.839,0.185-1.125,0.507 c-0.285,0.323-0.417,0.752-0.364,1.179L5.575,36.18C5.917,38.928,8.264,41,11.033,41h7.231c1.333,0,2.533-0.741,3.13-1.935 L22.427,37h3.146l1.033,2.066C27.203,40.259,28.402,41,29.736,41h7.231c2.769,0,5.115-2.072,5.458-4.82l2.063-16.564 C44.542,19.189,44.409,18.76,44.125,18.438z"/></svg>