<svg xmlns="http://www.w3.org/2000/svg" viewBox="0 0 48 48"><path fill="#33c481" d="M6.999,20c-0.019,0-0.037,0-0.056-0.001C6.393,19.968,5.97,19.497,6,18.945	c0.005-0.121,0.104-3.112-2.607-5.143c-0.441-0.331-0.532-0.958-0.201-1.399c0.33-0.442,0.957-0.533,1.4-0.201	c3.589,2.687,3.414,6.684,3.404,6.853C7.968,19.587,7.526,20,6.999,20z"/><path fill="#33c481" d="M34.998,45c-0.305,0-0.605-0.138-0.802-0.401c-2.028-2.71-5.021-2.606-5.146-2.606	c-0.582,0.038-1.019-0.4-1.046-0.949c-0.027-0.55,0.393-1.018,0.941-1.048c0.176-0.011,4.166-0.185,6.853,3.405	c0.331,0.442,0.24,1.069-0.201,1.4C35.417,44.935,35.206,45,34.998,45z"/><linearGradient id="G5HsV5C30WwegJ6cSlymwa" x1="5.636" x2="48.042" y1="6.364" y2="48.77" gradientUnits="userSpaceOnUse"><stop offset="0" stop-color="#9dffce"/><stop offset="1" stop-color="#50d18d"/></linearGradient><path fill="url(#G5HsV5C30WwegJ6cSlymwa)" d="M35.728,37.728c-7.029,7.029-18.426,7.029-25.456,0s-7.029-18.426,0-25.456S32,6,37,11	S42.757,30.698,35.728,37.728z"/><path fill="#33c481" d="M20,35c-0.256,0-0.512-0.098-0.707-0.293c-0.444-0.289-2.887-0.168-5.097,0.273	c-0.328,0.066-0.667-0.037-0.903-0.273s-0.339-0.575-0.273-0.903c0.441-2.212,0.562-4.653,0.251-5.123	c-0.39-0.39-0.379-1.011,0.012-1.401c0.389-0.389,1.034-0.378,1.425,0.013c0.955,0.955,0.824,3.455,0.523,5.477	c2.021-0.3,4.522-0.432,5.477,0.523c0.391,0.391,0.391,1.023,0,1.414C20.512,34.902,20.256,35,20,35z"/><path fill="#33c481" d="M22,20c-0.256,0-0.512-0.098-0.707-0.293c-0.445-0.289-2.887-0.168-5.097,0.273	c-0.327,0.067-0.667-0.037-0.903-0.273c-0.236-0.236-0.339-0.575-0.273-0.903c0.441-2.212,0.562-4.653,0.251-5.123	c-0.39-0.39-0.379-1.011,0.012-1.401c0.389-0.389,1.034-0.378,1.425,0.013c0.955,0.955,0.824,3.455,0.523,5.477	c2.021-0.301,4.523-0.431,5.477,0.523c0.391,0.391,0.391,1.023,0,1.414C22.512,19.902,22.256,20,22,20z"/><path fill="#33c481" d="M35,33c-0.256,0-0.512-0.098-0.707-0.293c-0.445-0.288-2.887-0.167-5.097,0.273	c-0.327,0.067-0.667-0.037-0.903-0.273c-0.236-0.236-0.339-0.575-0.273-0.903c0.441-2.212,0.562-4.653,0.251-5.123	c-0.39-0.39-0.379-1.011,0.012-1.401c0.39-0.389,1.035-0.378,1.425,0.013c0.955,0.955,0.824,3.455,0.523,5.477	c2.021-0.3,4.522-0.431,5.477,0.523c0.391,0.391,0.391,1.023,0,1.414C35.512,32.902,35.256,33,35,33z"/><path fill="#33c481" d="M34,15c-0.256,0-0.512-0.098-0.707-0.293c-0.391-0.391-0.391-1.023,0-1.414l7-7	c0.391-0.391,1.023-0.391,1.414,0s0.391,1.023,0,1.414l-7,7C34.512,14.902,34.256,15,34,15z"/><path fill="#33c481" d="M31.001,12c-0.323,0-0.641-0.156-0.833-0.445c-0.307-0.459-0.183-1.081,0.277-1.387	C30.546,10.1,33,8.387,33,5c0-0.552,0.447-1,1-1s1,0.448,1,1c0,4.483-3.305,6.738-3.445,6.832C31.384,11.946,31.191,12,31.001,12z"/><path fill="#33c481" d="M36.999,17.997c-0.192,0-0.386-0.055-0.557-0.17c-0.456-0.308-0.58-0.924-0.274-1.382	C36.262,16.305,38.517,13,43,13c0.553,0,1,0.448,1,1s-0.447,1-1,1c-3.387,0-5.1,2.455-5.171,2.559	C37.636,17.843,37.319,17.997,36.999,17.997z"/></svg>