<svg xmlns="http://www.w3.org/2000/svg" viewBox="0 0 48 48"><linearGradient id="BFzkaf4mKsJSLdAk0V~fNa" x1="24" x2="24" y1="112.815" y2="105.222" gradientTransform="matrix(1 0 0 -1 0 118)" gradientUnits="userSpaceOnUse"><stop offset="0" stop-color="#0d61a9"/><stop offset="1" stop-color="#16528c"/></linearGradient><path fill="url(#BFzkaf4mKsJSLdAk0V~fNa)" d="M36,5H12c-1.105,0-2,0.895-2,2v6h28V7C38,5.895,37.105,5,36,5z"/><linearGradient id="BFzkaf4mKsJSLdAk0V~fNb" x1="24" x2="24" y1="108.934" y2="101.865" gradientTransform="matrix(1 0 0 -1 0 118)" gradientUnits="userSpaceOnUse"><stop offset="0" stop-color="#199ae0"/><stop offset="1" stop-color="#0782d8"/></linearGradient><path fill="url(#BFzkaf4mKsJSLdAk0V~fNb)" d="M37,9H11c-1.105,0-2,0.895-2,2v5h30v-5C39,9.895,38.105,9,37,9z"/><linearGradient id="BFzkaf4mKsJSLdAk0V~fNc" x1="20.558" x2="26.878" y1="104.732" y2="78.821" gradientTransform="matrix(1 0 0 -1 0 118)" gradientUnits="userSpaceOnUse"><stop offset="0" stop-color="#32bdef"/><stop offset="1" stop-color="#1ea2e4"/></linearGradient><path fill="url(#BFzkaf4mKsJSLdAk0V~fNc)" d="M38,13H10c-1.105,0-2,0.895-2,2v25h32V15C40,13.895,39.105,13,38,13z"/><linearGradient id="BFzkaf4mKsJSLdAk0V~fNd" x1="24" x2="24" y1="31.071" y2="42.693" gradientUnits="userSpaceOnUse"><stop offset="0" stop-color="#ffd869"/><stop offset="1" stop-color="#fec52b"/></linearGradient><path fill="url(#BFzkaf4mKsJSLdAk0V~fNd)" d="M41,31H30.693c-0.904,0-1.649,0.624-1.918,1.487C28.142,34.522,26.244,36,24,36	s-4.142-1.478-4.775-3.513C18.956,31.624,18.211,31,17.307,31H7c-0.552,0-1,0.448-1,1v8c0,1.657,1.343,3,3,3h30c1.657,0,3-1.343,3-3	v-8C42,31.448,41.552,31,41,31z"/><path fill="#0d61a9" d="M31.982,22.131h-15c-0.276,0-0.5-0.224-0.5-0.5v-1c0-0.276,0.224-0.5,0.5-0.5h15	c0.276,0,0.5,0.224,0.5,0.5v1C32.482,21.908,32.259,22.131,31.982,22.131z"/><path fill="#0d61a9" d="M28.982,26.131h-12c-0.276,0-0.5-0.224-0.5-0.5v-1c0-0.276,0.224-0.5,0.5-0.5h12	c0.276,0,0.5,0.224,0.5,0.5v1C29.482,25.908,29.259,26.131,28.982,26.131z"/></svg>