<svg xmlns="http://www.w3.org/2000/svg" viewBox="0 0 48 48"><linearGradient id="dJjWdM0L8nCQ-w_cbl4_1a" x1="4" x2="29.034" y1="37.073" y2="37.073" gradientUnits="userSpaceOnUse"><stop offset="0" stop-color="#009688"/><stop offset="1" stop-color="#80cbc4"/></linearGradient><path fill="url(#dJjWdM0L8nCQ-w_cbl4_1a)" d="M29.034,33H29.03h-7.54h-5.63h-2.321l-1.976-1.854l-1.97,0.005c0,0,0,0,0,0L4,31.166	c0,0.472,0.005,0.69,0.346,1.344c5.592,10.341,4.835,8.993,5.166,9.467C9.822,42.425,10.359,43,11.47,43c0.001,0,0.001,0,0.002,0	c0,0,0.001,0,0.001,0c0.002,0,0.005-0.001,0.008-0.001c0.974-0.003,2.437-0.469,4.519-1.749C19.269,39.241,29.034,33,29.034,33z"/><linearGradient id="dJjWdM0L8nCQ-w_cbl4_1b" x1="10.07" x2="18.215" y1="28.083" y2="10.19" gradientUnits="userSpaceOnUse"><stop offset="0" stop-color="#9ccc65"/><stop offset="1" stop-color="#33691e"/></linearGradient><path fill="url(#dJjWdM0L8nCQ-w_cbl4_1b)" d="M16.86,5.07c0,0,0.39-0.07-0.86-0.07	c-1.38,0-1.7,1.09-1.7,1.09l-1.01,2.4l-8.78,20.9C4.22,30.13,4,30.75,4,31.17C4,32.22,4.88,33,6.91,33h6.71l7.23-16.97l0.51-1.2	l0.95-2.99l1.35-4.25L16.86,5.07z"/><linearGradient id="dJjWdM0L8nCQ-w_cbl4_1c" x1="23.107" x2="36.669" y1="4.905" y2="42.473" gradientUnits="userSpaceOnUse"><stop offset=".048" stop-color="#29b6f6"/><stop offset=".545" stop-color="#0083de"/><stop offset="1" stop-color="#006aac"/></linearGradient><path fill="url(#dJjWdM0L8nCQ-w_cbl4_1c)" d="M44,43H33.26	C30.15,35.64,18.865,9.027,17.82,6.52C17.55,5.9,17.1,5,16,5h10.71c0.99,0,1.46,0.58,1.67,1.11C28.424,6.213,43.957,42.899,44,43z"/></svg>