<svg xmlns="http://www.w3.org/2000/svg" viewBox="0 0 48 48"><linearGradient id="kIFusMwW935r5TaR5TTCda" x1="-59.037" x2="-59.035" y1="627.904" y2="627.904" gradientTransform="rotate(170.68 17.2 332.81)" gradientUnits="userSpaceOnUse"><stop offset="0" stop-color="#ffc430"/><stop offset=".57" stop-color="#f8bd29"/><stop offset="1" stop-color="#f0b421"/></linearGradient><path fill="url(#kIFusMwW935r5TaR5TTCda)" d="M44.637,29.255l-0.002,0.001c0.001,0.007,0.004,0.012,0.005,0.019L44.637,29.255z"/><linearGradient id="kIFusMwW935r5TaR5TTCdb" x1="7.782" x2="15.728" y1="492.057" y2="499.893" gradientTransform="rotate(180 24 263)" gradientUnits="userSpaceOnUse"><stop offset=".282" stop-color="#ffc430"/><stop offset=".401" stop-color="#f8bd2d"/><stop offset=".574" stop-color="#e5aa23"/><stop offset=".78" stop-color="#c58a14"/><stop offset="1" stop-color="#9c6000"/></linearGradient><path fill="url(#kIFusMwW935r5TaR5TTCdb)" d="M39.334,27.896c-1.629-0.379-3.195,2.888-5.334-0.762v13.834	c0.123-0.11,0.249-0.215,0.366-0.332l11.369-13.291c0-1.34-0.732-2.345-2.35-2.345C40.011,25,39.334,27.895,39.334,27.896z"/><linearGradient id="kIFusMwW935r5TaR5TTCdc" x1="19.361" x2="43.473" y1="505.53" y2="480.49" gradientTransform="rotate(180 24 263)" gradientUnits="userSpaceOnUse"><stop offset="0" stop-color="#ffc430"/><stop offset=".41" stop-color="#fec130"/><stop offset=".72" stop-color="#fcb730"/><stop offset=".998" stop-color="#f7a72f"/><stop offset="1" stop-color="#f7a72f"/></linearGradient><path fill="url(#kIFusMwW935r5TaR5TTCdc)" d="M12,13v24c0,3.314,2.686,6,6,6h10.686c1.967,0,3.853-0.732,5.314-2.032c0,0,0-31.231,0-31.468	c0-1.466-1.261-2.637-2.758-2.487C29.941,7.144,29,8.335,29,9.643V20l-1,0.091V6.5C28,5.119,26.881,4,25.5,4S23,5.119,23,6.5v14.042	l-1,0.091V7.5C22,6.119,20.881,5,19.5,5S17,6.119,17,7.5v13.585l-1,0.091V13c0-1.105-0.895-2-2-2S12,11.895,12,13z"/><path fill="#cf1928" d="M28.685,35.93l-0.756,0.756c-0.419,0.419-1.1,0.419-1.519,0l-9.096-9.096	c-0.419-0.419-0.419-1.1,0-1.519l0.756-0.756c0.419-0.419,1.1-0.419,1.519,0l9.096,9.096C29.105,34.83,29.105,35.51,28.685,35.93z"/><path fill="#cf1928" d="M18.07,36.685l-0.756-0.756c-0.419-0.419-0.419-1.1,0-1.519l9.096-9.096	c0.419-0.419,1.1-0.419,1.519,0l0.756,0.756c0.419,0.419,0.419,1.1,0,1.519l-9.096,9.096C19.17,37.105,18.49,37.105,18.07,36.685z"/></svg>