<svg xmlns="http://www.w3.org/2000/svg" xmlns:xlink="http://www.w3.org/1999/xlink" data-name="Слой 1" viewBox="0 0 48 48"><defs><linearGradient id="YIRmLt8U~Xur5LGvm7czda" x1="22" x2="37" y1="23.5" y2="23.5" data-name="Безымянный градиент 13" gradientUnits="userSpaceOnUse"><stop offset="0" stop-color="#ffcf54"/><stop offset=".261" stop-color="#fdcb4d"/><stop offset=".639" stop-color="#f7c13a"/><stop offset="1" stop-color="#f0b421"/></linearGradient><linearGradient id="YIRmLt8U~Xur5LGvm7czdd" x1="14.5" x2="14.5" y1="23.011" y2="45.147" xlink:href="#YIRmLt8U~Xur5LGvm7czda"/><linearGradient id="YIRmLt8U~Xur5LGvm7czdb" x1="26.688" x2="36.311" y1="14.657" y2="41.097" data-name="Безымянный градиент 121" gradientUnits="userSpaceOnUse"><stop offset="0" stop-color="#f44f5a"/><stop offset=".443" stop-color="#ee3d4a"/><stop offset="1" stop-color="#e52030"/></linearGradient><linearGradient id="YIRmLt8U~Xur5LGvm7czde" x1="20.401" x2="25.618" y1="4.932" y2="23.063" data-name="Безымянный градиент 17" gradientUnits="userSpaceOnUse"><stop offset="0" stop-color="#a1aab3"/><stop offset="1" stop-color="#8f979e"/></linearGradient><linearGradient id="YIRmLt8U~Xur5LGvm7czdf" x1="20.886" x2="23.339" y1=".94" y2="7.68" xlink:href="#YIRmLt8U~Xur5LGvm7czdb"/><linearGradient id="YIRmLt8U~Xur5LGvm7czdg" x1="28.788" x2="36.143" y1="20.24" y2="40.448" xlink:href="#YIRmLt8U~Xur5LGvm7czda"/><linearGradient id="YIRmLt8U~Xur5LGvm7czdh" x1="28.648" x2="36.14" y1="20.042" y2="40.628" xlink:href="#YIRmLt8U~Xur5LGvm7czda"/><radialGradient id="YIRmLt8U~Xur5LGvm7czdc" cx="22" cy="25.457" r="12.337" data-name="Безымянный градиент 28" gradientUnits="userSpaceOnUse"><stop offset="0" stop-color="#dfe9f2"/><stop offset=".391" stop-color="#d6e0e9"/><stop offset="1" stop-color="#bfc8d1"/></radialGradient><radialGradient id="YIRmLt8U~Xur5LGvm7czdi" cx="32.609" cy="30.728" r="3.758" xlink:href="#YIRmLt8U~Xur5LGvm7czdc"/></defs><path fill="url(#YIRmLt8U~Xur5LGvm7czda)" d="M37,31H32l-2.43-4.25L29.14,26,29,25.75,28,24l-6,3V16h3a6.55292,6.55292,0,0,1,5.19,2c.15.16.29.33.43.5.12.16.24.33.35.5A12.10423,12.10423,0,0,1,32,21l2.38,4.75.12.25Z"/><path fill="#e52030" d="M13.14039,45a.5.5,0,0,1-.48507-.62127L15,35l.5-.75L16,35l1,5-1,4.5a.5.5,0,0,1-.5.5Z"/><path fill="#b31523" d="M16,44.5V35h3l1,5-1,4.5a.5.5,0,0,1-.5.5h-2A.5.5,0,0,1,16,44.5Z"/><path fill="#e52030" d="M19,44.5V35h3l1,5-1,4.5a.5.5,0,0,1-.5.5h-2A.5.5,0,0,1,19,44.5Z"/><path fill="#b31523" d="M26,35V45H22.5a.49514.49514,0,0,1-.5-.5V35Z"/><path fill="url(#YIRmLt8U~Xur5LGvm7czdd)" d="M22,16V27l-6-3-1,1.75-.14.25L12,31v9.5a2.50025,2.50025,0,0,1-2.76,2.49A2.5958,2.5958,0,0,1,7,40.36V30.99a4.07013,4.07013,0,0,1,.46-1.87L9.11,26l.13-.25L11.75,21c1.5-3,3.25-5,7.25-5Z"/><path fill="#b31523" d="M34.5,26H29.14L29,25.75,28,24l-4,2H20l-4-2-1,1.75-.14.25H9.11l.13-.25L11.75,21c1.5-3,3.25-5,7.25-5h6a6.55292,6.55292,0,0,1,5.19,2c.15.16.29.33.43.5.12.16.24.33.35.5A12.10423,12.10423,0,0,1,32,21l2.38,4.75Z"/><ellipse cx="22" cy="11.625" fill="#64717c" rx="3.5" ry="5.375"/><path fill="url(#YIRmLt8U~Xur5LGvm7czdc)" d="M30,22l-.34,3.75-.09,1L29,33l-5,.63-1,.12L21,34l-6-1s-.57-3.42-.85-7.25C14.06,24.51,14,23.22,14,22a6.04364,6.04364,0,0,1,6-6h4a5.947,5.947,0,0,1,4.46,2,4.71922,4.71922,0,0,1,.41.5,3.83527,3.83527,0,0,1,.32.5A5.85683,5.85683,0,0,1,30,22Z"/><rect width="14" height="2" x="15" y="33" fill="#64717c"/><rect width="18" height="26" x="24" y="19" fill="url(#YIRmLt8U~Xur5LGvm7czdb)" rx="2"/><path fill="url(#YIRmLt8U~Xur5LGvm7czde)" d="M22,5a5,5,0,0,0-5,5c0,6,4,8,4,8V12.414l-1.707-1.70746A.99989.99989,0,0,1,20.707,9.29248L22,10.58545l1.293-1.293A.99989.99989,0,0,1,24.707,10.70654L23,12.414V18s4-2,4-8A5,5,0,0,0,22,5Z"/><rect width="2" height="6" x="21" y="1" fill="url(#YIRmLt8U~Xur5LGvm7czdf)" rx="1"/><path d="M30.62,18.5c-.14-.17-.28-.34-.43-.5H26a3.00879,3.00879,0,0,0-3,3V43a2.98419,2.98419,0,0,0,.77,2H26a2.00591,2.00591,0,0,1-2-2V21a2.00587,2.00587,0,0,1,2-2h4.97C30.86,18.83,30.74,18.66,30.62,18.5Z" opacity=".05"/><path d="M30.62,18.5H26A2.50091,2.50091,0,0,0,23.5,21V43a2.48525,2.48525,0,0,0,1.01,2H26a2.00591,2.00591,0,0,1-2-2V21a2.00587,2.00587,0,0,1,2-2h4.97C30.86,18.83,30.74,18.66,30.62,18.5Z" opacity=".07"/><path fill="url(#YIRmLt8U~Xur5LGvm7czdg)" d="M30,31c-6-1-5-8.5-2-10-1,4,2,8,3,9Zm6,0c6-1,5-8.5,2-10,1,4-2,8-3,9Zm-5.86447,2c-6,1-5,8.5-2,10-1-4,2-8,3-9ZM35,34c1,1,4,5,3,9,3-1.5,4-9-2-10ZM33,23h0a1,1,0,0,0-1,1V40a1,1,0,0,0,1,1h0a1,1,0,0,0,1-1V24A1,1,0,0,0,33,23Z"/><rect width="8" height="8" x="29" y="28" fill="url(#YIRmLt8U~Xur5LGvm7czdh)" rx="2"/><g><path d="M33,30a2,2,0,1,1-2,2,2,2,0,0,1,2-2m0-1a3,3,0,1,0,3,3,3.00339,3.00339,0,0,0-3-3Z" opacity=".05"/><path d="M33,30a2,2,0,1,1-2,2,2,2,0,0,1,2-2m0-.5A2.5,2.5,0,1,0,35.5,32,2.50284,2.50284,0,0,0,33,29.5Z" opacity=".07"/><circle cx="33" cy="32" r="2" fill="url(#YIRmLt8U~Xur5LGvm7czdi)"/></g></svg>