<svg xmlns="http://www.w3.org/2000/svg" xmlns:xlink="http://www.w3.org/1999/xlink" viewBox="0 0 48 48"><linearGradient id="N4LJP1BgF2Fkd2KXOuBjHa" x1="13.302" x2="53.378" y1="36.699" y2="-3.378" gradientTransform="matrix(1 0 0 -1 0 50)" gradientUnits="userSpaceOnUse"><stop offset="0" stop-color="#dfe9f2"/><stop offset=".998" stop-color="#9ea7b0"/></linearGradient><path fill="url(#N4LJP1BgF2Fkd2KXOuBjHa)" d="M44,24c0-11.045-8.955-20-20-20S4,12.955,4,24s8.955,20,20,20S44,35.045,44,24z"/><linearGradient id="N4LJP1BgF2Fkd2KXOuBjHb" x1="17.254" x2="33.757" y1="15.796" y2="35.865" gradientUnits="userSpaceOnUse"><stop offset=".008" stop-color="#f44f5a"/><stop offset=".447" stop-color="#ee3d4a"/><stop offset="1" stop-color="#e52030"/></linearGradient><path fill="url(#N4LJP1BgF2Fkd2KXOuBjHb)" d="M43.751,21H27V4.249C26.019,4.101,25.022,4,24,4s-2.019,0.101-3,0.249V21H4.249	C4.101,21.981,4,22.978,4,24s0.101,2.019,0.249,3H21v16.751C21.981,43.899,22.978,44,24,44s2.019-0.101,3-0.249V27h16.751	C43.899,26.019,44,25.022,44,24S43.899,21.981,43.751,21z"/><circle cx="24.014" cy="13.755" r=".401" fill="#ffd400"/><path fill="#263238" d="M24.014,14.231c-0.263,0-0.477-0.214-0.477-0.477c0-0.262,0.214-0.476,0.477-0.476 c0.262,0,0.476,0.214,0.476,0.476C24.49,14.018,24.276,14.231,24.014,14.231z M24.014,13.429c-0.18,0-0.326,0.146-0.326,0.326 c0,0.18,0.146,0.326,0.326,0.326c0.18,0,0.326-0.146,0.326-0.326C24.34,13.575,24.194,13.429,24.014,13.429z"/><polygon fill="#dfe9f2" points="28.667,24 31,20 26.333,20 24,16 21.667,20 17,20 19.333,24 17,28 21.667,28 24,32 26.333,28 31,28"/><path fill="#263238" d="M24,32.075c-0.027,0-0.051-0.015-0.065-0.037l-2.312-3.963H17c-0.027,0-0.052-0.015-0.065-0.038 c-0.014-0.023-0.013-0.052,0-0.075L19.247,24l-2.312-3.962c-0.013-0.023-0.014-0.052,0-0.075c0.013-0.023,0.038-0.038,0.065-0.038 h4.624l2.312-3.962c0.027-0.047,0.103-0.047,0.13,0l2.311,3.962H31c0.026,0,0.052,0.015,0.065,0.038 c0.013,0.023,0.013,0.052-0.001,0.075L28.754,24l2.311,3.962c0.014,0.023,0.014,0.052,0.001,0.075 c-0.014,0.023-0.039,0.038-0.065,0.038h-4.624l-2.311,3.963C24.051,32.061,24.027,32.075,24,32.075z M17.13,27.925h4.536 c0.027,0,0.051,0.015,0.065,0.037L24,31.852l2.269-3.89c0.013-0.022,0.038-0.037,0.064-0.037h4.536l-2.267-3.887 c-0.014-0.023-0.014-0.052,0-0.075l2.267-3.887h-4.536c-0.026,0-0.052-0.014-0.064-0.038L24,16.149l-2.269,3.889 c-0.014,0.023-0.038,0.038-0.065,0.038H17.13l2.268,3.887c0.014,0.023,0.014,0.052,0,0.075L17.13,27.925z"/><path fill="#ffd400" d="M27.383,16.329c-0.986-0.324-2.137-0.52-3.382-0.52c-1.222,0-2.355,0.188-3.33,0.502l0.109,1.019 c0.985-0.192,2.071-0.304,3.221-0.304c1.17,0,2.275,0.115,3.274,0.314L27.383,16.329z"/><path fill="#263238" d="M27.274,17.415c-0.005,0-0.01,0-0.015-0.001c-1.042-0.208-2.139-0.313-3.259-0.313 c-1.098,0-2.177,0.102-3.207,0.302c-0.019,0.004-0.042-0.001-0.059-0.013c-0.017-0.013-0.028-0.032-0.03-0.053l-0.109-1.019 c-0.003-0.035,0.018-0.068,0.052-0.079c1.026-0.331,2.185-0.505,3.353-0.505c1.187,0,2.364,0.181,3.405,0.523 c0.033,0.011,0.055,0.044,0.051,0.079l-0.108,1.011c-0.002,0.021-0.013,0.04-0.03,0.053C27.306,17.41,27.29,17.415,27.274,17.415z M24.001,16.951c1.101,0,2.18,0.101,3.208,0.3l0.093-0.869c-1.013-0.326-2.152-0.497-3.301-0.497c-1.13,0-2.252,0.166-3.249,0.479 l0.094,0.877C21.861,17.048,22.922,16.951,24.001,16.951z"/><path fill="#ffd400" d="M27.275,17.336c-0.999-0.198-2.105-0.31-3.274-0.31c-1.148,0-2.236,0.108-3.221,0.299 c-0.064,0.228-0.047,0.442,0.068,0.637c0.967-0.183,2.031-0.287,3.153-0.287c1.142,0,2.224,0.108,3.206,0.298 C27.332,17.785,27.353,17.572,27.275,17.336z"/><path fill="#263238" d="M27.206,18.048c-0.005,0-0.01,0-0.015-0.001c-1.019-0.197-2.093-0.296-3.19-0.296 c-1.078,0-2.134,0.096-3.139,0.286C20.83,18.041,20.8,18.027,20.784,18c-0.123-0.207-0.148-0.44-0.076-0.695 c0.008-0.027,0.03-0.048,0.058-0.053c1.03-0.199,2.118-0.301,3.235-0.301c1.136,0,2.242,0.105,3.288,0.312 c0.026,0.005,0.048,0.024,0.057,0.05c0.087,0.26,0.061,0.496-0.077,0.702C27.254,18.036,27.23,18.048,27.206,18.048z M24.001,17.6 c1.09,0,2.155,0.098,3.169,0.29c0.083-0.146,0.098-0.307,0.046-0.488c-1.023-0.199-2.104-0.3-3.215-0.3 c-1.091,0-2.154,0.097-3.161,0.289c-0.042,0.179-0.026,0.34,0.047,0.488C21.885,17.693,22.933,17.6,24.001,17.6z"/><path fill="#ffd400" d="M28.142,15.045c0,0-0.333-0.578-0.573-0.764c0,0,0.105,0.501,0.043,0.884 c-0.045-0.085-0.117-0.153-0.22-0.153c-0.148,0-0.267,0.12-0.267,0.267s0.12,0.267,0.267,0.267c0.031,0,0.051-0.023,0.079-0.033 c-0.199,0.305-0.375,0.508-0.713,0.431c-0.317-0.073-0.451-0.356-0.464-0.679c0.039,0.053,0.091,0.097,0.161,0.106 c0.139,0.019,0.267-0.079,0.286-0.218c0.019-0.139-0.079-0.267-0.218-0.286c-0.046-0.006-0.084,0.016-0.124,0.033 c0.058-0.053,0.102-0.123,0.113-0.207c0.025-0.19-0.108-0.364-0.298-0.39c-0.19-0.025-0.364,0.108-0.39,0.298 c-0.012,0.088,0.013,0.17,0.059,0.238c-0.037-0.034-0.076-0.068-0.129-0.075c-0.139-0.019-0.267,0.079-0.286,0.218 c-0.019,0.139,0.079,0.267,0.218,0.286c0.056,0.008,0.104-0.012,0.148-0.04c-0.086,0.193-0.292,0.467-0.783,0.427 c-0.63-0.051-0.786-0.419-0.834-0.713c0.046,0.06,0.109,0.105,0.19,0.105c0.141,0,0.255-0.114,0.255-0.255 s-0.114-0.255-0.255-0.255c-0.054,0-0.096,0.029-0.138,0.057c0.054-0.061,0.09-0.14,0.09-0.228c0-0.192-0.155-0.347-0.347-0.347 c-0.192,0-0.347,0.155-0.347,0.347c0,0.085,0.034,0.16,0.085,0.22c-0.037-0.022-0.072-0.049-0.119-0.049 c-0.141,0-0.255,0.114-0.255,0.255s0.114,0.255,0.255,0.255c0.076,0,0.14-0.037,0.186-0.09l0.002,0.002 c0.001,0.248-0.086,0.676-0.71,0.685c-0.585,0.008-0.799-0.226-0.892-0.412c0.04,0.022,0.084,0.037,0.134,0.03 c0.139-0.019,0.237-0.147,0.218-0.286c-0.019-0.139-0.147-0.237-0.286-0.218c-0.053,0.007-0.092,0.041-0.129,0.075 c0.046-0.068,0.071-0.151,0.059-0.238c-0.025-0.19-0.2-0.323-0.39-0.298c-0.19,0.026-0.323,0.2-0.298,0.39 c0.011,0.084,0.055,0.154,0.113,0.207c-0.04-0.016-0.078-0.039-0.124-0.033c-0.139,0.019-0.237,0.147-0.218,0.286 c0.019,0.139,0.147,0.237,0.286,0.218c0.075-0.01,0.133-0.055,0.172-0.113c0.018,0.2-0.002,0.603-0.437,0.675 c-0.445,0.073-0.641-0.231-0.727-0.411c0.027,0.009,0.046,0.031,0.076,0.031c0.148,0,0.267-0.12,0.267-0.267 s-0.12-0.267-0.267-0.267c-0.131,0-0.228,0.101-0.25,0.226c-0.004-0.005-0.017-0.02-0.017-0.02s0.024-0.619,0.096-0.961 c-0.523,0.445-0.613,0.754-0.613,0.754l0.259,0.327c0,0-0.138,0.342,0.222,0.391c-0.018,0.282,0.165,0.528,0.305,0.583 c0.206-0.09,1.804-0.547,3.42-0.499s3.292,0.517,3.292,0.517s0.325-0.198,0.265-0.595c0.384-0.042,0.258-0.445,0.258-0.445 L28.142,15.045z"/><path fill="#263238" d="M27.383,16.404c-0.007,0-0.014-0.001-0.021-0.003c-0.017-0.005-1.686-0.467-3.274-0.514 c-1.559-0.046-3.163,0.394-3.388,0.492c-0.018,0.008-0.039,0.008-0.057,0.001c-0.169-0.065-0.344-0.316-0.354-0.591 c-0.095-0.024-0.164-0.073-0.206-0.145c-0.061-0.104-0.041-0.228-0.024-0.292l-0.234-0.296c-0.015-0.019-0.02-0.044-0.013-0.067 c0.004-0.014,0.103-0.336,0.637-0.79c0.025-0.021,0.06-0.022,0.087-0.007c0.027,0.017,0.042,0.048,0.035,0.08 c-0.043,0.204-0.068,0.512-0.082,0.721c0.052-0.036,0.113-0.056,0.18-0.056c0.189,0,0.343,0.154,0.343,0.342 c0,0.166-0.118,0.304-0.274,0.336c0.138,0.2,0.327,0.276,0.571,0.237c0.276-0.045,0.363-0.241,0.377-0.439 c-0.028,0.013-0.059,0.022-0.09,0.026c-0.087,0.014-0.174-0.011-0.243-0.064c-0.07-0.053-0.115-0.131-0.127-0.218 c-0.023-0.17,0.09-0.328,0.254-0.365c-0.012-0.03-0.021-0.063-0.025-0.095c-0.015-0.111,0.014-0.222,0.083-0.312 c0.068-0.09,0.167-0.147,0.279-0.162c0.233-0.031,0.442,0.132,0.474,0.362c0.004,0.033,0.005,0.065,0.001,0.097 c0.169-0.013,0.331,0.11,0.354,0.285s-0.096,0.336-0.268,0.368c0.144,0.158,0.376,0.235,0.703,0.235c0.009,0,0.019,0,0.028,0 c0.435-0.006,0.586-0.231,0.625-0.464c-0.032,0.012-0.066,0.018-0.102,0.018c-0.182,0-0.33-0.148-0.33-0.33 c0-0.172,0.133-0.313,0.301-0.328c-0.008-0.032-0.013-0.064-0.013-0.098c0-0.232,0.189-0.422,0.422-0.422s0.422,0.189,0.422,0.422 c0,0.033-0.004,0.065-0.012,0.097c0.174,0.008,0.314,0.153,0.314,0.329c0,0.182-0.148,0.33-0.33,0.33 c-0.024,0-0.048-0.003-0.07-0.009c0.077,0.214,0.257,0.43,0.72,0.467c0.03,0.002,0.06,0.003,0.087,0.003 c0.272,0,0.438-0.111,0.537-0.242c-0.001,0-0.003,0-0.004,0c-0.088-0.012-0.165-0.057-0.219-0.126 c-0.053-0.07-0.076-0.157-0.064-0.244c0.025-0.175,0.188-0.302,0.355-0.285c-0.004-0.032-0.004-0.065,0.001-0.097 c0.015-0.112,0.072-0.211,0.162-0.279s0.203-0.096,0.312-0.083c0.23,0.031,0.394,0.244,0.362,0.474 c-0.005,0.033-0.013,0.064-0.025,0.095c0.165,0.036,0.277,0.194,0.255,0.365c-0.025,0.18-0.187,0.305-0.37,0.283 c-0.02-0.002-0.038-0.007-0.057-0.014c0.037,0.18,0.135,0.382,0.385,0.439c0.232,0.054,0.373-0.039,0.537-0.259 c-0.149-0.036-0.262-0.172-0.262-0.333c0-0.188,0.153-0.342,0.342-0.342c0.06,0,0.114,0.017,0.163,0.049 c0.015-0.331-0.058-0.686-0.059-0.69c-0.007-0.031,0.007-0.062,0.033-0.079c0.027-0.018,0.061-0.015,0.086,0.004 c0.249,0.193,0.577,0.762,0.592,0.786c0.017,0.029,0.012,0.065-0.012,0.09l-0.207,0.215c0.015,0.073,0.03,0.222-0.047,0.34 c-0.047,0.072-0.118,0.12-0.213,0.144c0.021,0.392-0.292,0.588-0.307,0.597C27.41,16.4,27.396,16.404,27.383,16.404z M23.846,15.734c0.082,0,0.165,0.001,0.248,0.003c1.479,0.044,3.027,0.443,3.275,0.51c0.068-0.052,0.248-0.219,0.205-0.502 c-0.003-0.021,0.002-0.041,0.015-0.057s0.031-0.026,0.052-0.029c0.085-0.009,0.143-0.038,0.176-0.089 c0.066-0.1,0.019-0.257,0.019-0.258c-0.009-0.026-0.002-0.055,0.018-0.075l0.196-0.204c-0.062-0.104-0.216-0.353-0.367-0.534 c0.023,0.185,0.042,0.449,0.006,0.677c-0.005,0.032-0.03,0.057-0.063,0.063c-0.03,0.003-0.063-0.01-0.078-0.04 c-0.104-0.199-0.347-0.091-0.346,0.08c0,0.106,0.086,0.192,0.191,0.192c0.023-0.014,0.037-0.022,0.055-0.028 c0.03-0.012,0.063,0,0.084,0.025c0.02,0.025,0.021,0.06,0.003,0.087c-0.193,0.295-0.407,0.55-0.792,0.463 c-0.316-0.073-0.507-0.347-0.521-0.75c-0.001-0.033,0.02-0.063,0.051-0.074c0.03-0.011,0.066,0,0.085,0.027 c0.033,0.045,0.069,0.07,0.11,0.076c0.009,0.001,0.017,0.001,0.024,0.001c0.088,0,0.165-0.066,0.178-0.156 c0.013-0.098-0.057-0.188-0.154-0.202c-0.016-0.002-0.035,0.005-0.063,0.018l-0.022,0.01c-0.031,0.016-0.071,0.002-0.092-0.029 c-0.02-0.031-0.014-0.071,0.013-0.096c0.035-0.032,0.079-0.087,0.09-0.162c0.02-0.148-0.085-0.285-0.233-0.306 c-0.07-0.008-0.144,0.009-0.201,0.054c-0.058,0.044-0.095,0.108-0.104,0.18c-0.011,0.082,0.02,0.146,0.047,0.187 c0.021,0.031,0.016,0.074-0.014,0.099c-0.028,0.025-0.071,0.024-0.1-0.001c-0.035-0.032-0.059-0.052-0.088-0.056 c-0.087-0.013-0.188,0.055-0.202,0.154c-0.006,0.047,0.006,0.094,0.035,0.132c0.029,0.039,0.071,0.063,0.119,0.069 c0.031,0.004,0.061-0.004,0.097-0.028c0.028-0.018,0.065-0.015,0.09,0.006c0.025,0.021,0.033,0.057,0.02,0.087 c-0.086,0.195-0.321,0.516-0.857,0.472c-0.521-0.042-0.825-0.303-0.902-0.776c-0.005-0.034,0.013-0.067,0.044-0.081 c0.031-0.013,0.068-0.004,0.089,0.023c0.119,0.155,0.311,0.044,0.311-0.104c0-0.099-0.081-0.179-0.18-0.179 c-0.03,0-0.057,0.017-0.095,0.043c-0.032,0.022-0.074,0.016-0.099-0.012c-0.025-0.028-0.025-0.071,0-0.1 c0.032-0.037,0.071-0.097,0.071-0.178c0-0.15-0.122-0.271-0.271-0.271s-0.271,0.122-0.271,0.271c0,0.077,0.036,0.136,0.066,0.172 c0.024,0.028,0.024,0.068,0,0.097c-0.024,0.028-0.063,0.035-0.095,0.017l-0.021-0.012c-0.027-0.017-0.044-0.026-0.061-0.026 c-0.099,0-0.179,0.08-0.179,0.179c0,0.148,0.195,0.245,0.31,0.115c0.014-0.016,0.028-0.03,0.056-0.025 c0.02,0,0.039,0.008,0.053,0.022c0.014,0.014,0.024,0.035,0.024,0.055c0,0.225-0.075,0.75-0.784,0.76 c-0.481,0.001-0.806-0.146-0.96-0.454c-0.015-0.029-0.009-0.065,0.015-0.088c0.024-0.023,0.06-0.027,0.088-0.012 c0.033,0.018,0.056,0.023,0.089,0.022c0.098-0.014,0.167-0.104,0.154-0.202c-0.013-0.098-0.1-0.163-0.202-0.154 c-0.029,0.004-0.055,0.026-0.088,0.056c-0.027,0.025-0.07,0.026-0.1,0.001c-0.028-0.025-0.034-0.067-0.013-0.099 c0.027-0.041,0.058-0.105,0.047-0.186c-0.021-0.148-0.156-0.252-0.306-0.233c-0.072,0.01-0.136,0.047-0.18,0.104 s-0.063,0.129-0.053,0.201c0.008,0.061,0.038,0.115,0.089,0.162c0.027,0.025,0.033,0.065,0.013,0.096 c-0.019,0.032-0.059,0.044-0.092,0.029l-0.022-0.01c-0.029-0.013-0.05-0.02-0.063-0.019c-0.098,0.014-0.167,0.104-0.154,0.202 c0.006,0.047,0.031,0.089,0.069,0.119c0.038,0.029,0.085,0.04,0.132,0.035c0.06-0.008,0.099-0.048,0.12-0.081 c0.018-0.027,0.049-0.038,0.081-0.031c0.031,0.008,0.053,0.034,0.056,0.066c0.018,0.2,0.005,0.672-0.5,0.756 c-0.25,0.041-0.592-0.004-0.807-0.453c-0.013-0.027-0.009-0.059,0.011-0.082c0.02-0.022,0.051-0.03,0.08-0.021 c0.018,0.006,0.032,0.014,0.042,0.021c0.119,0,0.201-0.079,0.201-0.186c0-0.106-0.086-0.192-0.192-0.192 c-0.101,0-0.162,0.083-0.176,0.164c-0.005,0.029-0.026,0.052-0.055,0.06c-0.03,0.004-0.059-0.003-0.077-0.025l-0.017-0.02 c-0.012-0.015-0.018-0.033-0.017-0.051c0-0.021,0.017-0.424,0.062-0.759c-0.278,0.267-0.385,0.465-0.419,0.542l0.232,0.294 c0.017,0.021,0.021,0.049,0.011,0.074c-0.014,0.034-0.039,0.136,0,0.205c0.026,0.045,0.081,0.073,0.162,0.084 c0.039,0.005,0.067,0.04,0.065,0.079c-0.014,0.227,0.121,0.433,0.233,0.496C20.938,16.134,22.327,15.734,23.846,15.734z"/><path fill="#f44f5a" d="M24.394,16.726h-0.775c-0.111,0-0.201-0.09-0.201-0.201v-0.198c0-0.111,0.09-0.201,0.201-0.201 h0.775c0.111,0,0.201,0.09,0.201,0.201v0.198C24.595,16.636,24.505,16.726,24.394,16.726z"/><path fill="#263238" d="M24.394,16.801h-0.775c-0.152,0-0.276-0.124-0.276-0.276v-0.198c0-0.152,0.124-0.276,0.276-0.276 h0.775c0.152,0,0.277,0.124,0.277,0.276v0.198C24.671,16.677,24.546,16.801,24.394,16.801z M23.619,16.2 c-0.069,0-0.126,0.057-0.126,0.126v0.198c0,0.069,0.057,0.126,0.126,0.126h0.775c0.07,0,0.126-0.057,0.126-0.126v-0.198 c0-0.069-0.057-0.126-0.126-0.126H23.619z"/><path fill="#f44f5a" d="M21.147,16.708l-0.463-0.216c0,0-0.312,0.276,0.054,0.613 C20.931,16.912,21.147,16.708,21.147,16.708z"/><path fill="#263238" d="M20.739,17.179c-0.018,0-0.036-0.007-0.051-0.02c-0.136-0.125-0.204-0.258-0.203-0.396 c0.002-0.195,0.144-0.322,0.149-0.328c0.023-0.019,0.054-0.025,0.082-0.012l0.462,0.216c0.022,0.01,0.039,0.031,0.042,0.056 c0.004,0.025-0.004,0.05-0.022,0.066c0,0-0.215,0.204-0.407,0.396C20.777,17.172,20.758,17.179,20.739,17.179z M20.703,16.583 c-0.029,0.038-0.067,0.103-0.068,0.183c0,0.077,0.035,0.155,0.104,0.232c0.104-0.103,0.208-0.203,0.276-0.269L20.703,16.583z"/><ellipse cx="22.103" cy="16.548" fill="#f44f5a" rx=".419" ry=".294" transform="rotate(-7.325 22.112 16.554)"/><path fill="#263238" d="M22.066,16.92c-0.125,0-0.243-0.036-0.328-0.101c-0.072-0.056-0.115-0.127-0.125-0.208 c-0.014-0.103,0.029-0.205,0.119-0.287c0.083-0.076,0.198-0.126,0.324-0.143c0.274-0.037,0.511,0.098,0.538,0.303c0,0,0,0,0,0 c0.026,0.206-0.168,0.394-0.443,0.429C22.122,16.918,22.094,16.92,22.066,16.92z M22.141,16.326c-0.021,0-0.043,0.001-0.065,0.004 c-0.096,0.013-0.182,0.05-0.242,0.105c-0.053,0.048-0.078,0.104-0.071,0.157c0.007,0.051,0.041,0.087,0.068,0.108 c0.073,0.056,0.183,0.08,0.301,0.065c0.185-0.024,0.329-0.144,0.314-0.261l0,0C22.432,16.4,22.298,16.326,22.141,16.326z"/><path fill="#f44f5a" d="M26.909,16.708l0.463-0.216c0,0,0.312,0.276-0.054,0.613C27.125,16.912,26.909,16.708,26.909,16.708 z"/><path fill="#263238" d="M27.317,17.179c-0.02,0-0.038-0.007-0.053-0.022c-0.191-0.191-0.407-0.395-0.407-0.396 c-0.018-0.017-0.026-0.042-0.022-0.066c0.004-0.024,0.02-0.045,0.042-0.056l0.462-0.216c0.029-0.013,0.061-0.007,0.082,0.012 c0.006,0.005,0.147,0.133,0.149,0.328c0.001,0.139-0.066,0.272-0.202,0.396C27.354,17.172,27.336,17.179,27.317,17.179z M27.04,16.729c0.069,0.066,0.173,0.167,0.277,0.269c0.068-0.078,0.104-0.155,0.103-0.232c0-0.08-0.038-0.145-0.067-0.183 L27.04,16.729z"/><ellipse cx="25.953" cy="16.548" fill="#f44f5a" rx=".294" ry=".419" transform="rotate(-82.675 25.952 16.549)"/><path fill="#263238" d="M25.99,16.92c-0.028,0-0.057-0.002-0.085-0.006c-0.271-0.034-0.47-0.227-0.443-0.429c0,0,0,0,0,0 c0.027-0.205,0.263-0.342,0.538-0.303c0.155,0.02,0.295,0.094,0.375,0.198c0.055,0.072,0.078,0.152,0.067,0.232 c-0.01,0.08-0.054,0.152-0.125,0.208C26.232,16.884,26.114,16.92,25.99,16.92z M25.61,16.504L25.61,16.504 c-0.015,0.118,0.129,0.238,0.314,0.262c0.118,0.017,0.229-0.01,0.301-0.065c0.027-0.021,0.062-0.058,0.068-0.108 c0.007-0.051-0.017-0.094-0.038-0.122c-0.056-0.073-0.159-0.125-0.275-0.141C25.79,16.305,25.627,16.387,25.61,16.504z"/><g><polygon fill="#ffd400" points="23.604,10.466 23.803,11.025 23.244,10.79 23.244,11.682 23.803,11.484 23.685,12.133 24.361,12.133 24.235,11.457 24.776,11.682 24.776,10.844 24.226,11.034 24.451,10.466"/><path fill="#263238" d="M24.361,12.208h-0.676c-0.022,0-0.043-0.01-0.058-0.027c-0.014-0.017-0.02-0.04-0.016-0.061 l0.094-0.522l-0.438,0.155c-0.021,0.008-0.047,0.005-0.068-0.01c-0.02-0.014-0.032-0.037-0.032-0.061V10.79 c0-0.025,0.013-0.048,0.034-0.063c0.021-0.014,0.047-0.017,0.07-0.007l0.403,0.169l-0.142-0.399 c-0.008-0.023-0.004-0.048,0.01-0.068c0.014-0.02,0.037-0.032,0.061-0.032h0.847c0.025,0,0.048,0.013,0.062,0.033 s0.017,0.046,0.008,0.07l-0.165,0.416l0.396-0.136c0.022-0.008,0.049-0.004,0.068,0.01c0.02,0.014,0.032,0.037,0.032,0.061v0.838 c0,0.025-0.013,0.048-0.034,0.063s-0.047,0.017-0.07,0.007l-0.413-0.172l0.101,0.54c0.004,0.022-0.002,0.044-0.016,0.062 S24.384,12.208,24.361,12.208z M23.775,12.058h0.496l-0.11-0.587c-0.005-0.027,0.005-0.055,0.026-0.072 c0.021-0.018,0.051-0.021,0.076-0.011l0.437,0.182v-0.621l-0.45,0.155c-0.027,0.01-0.059,0.002-0.079-0.019 c-0.021-0.021-0.026-0.052-0.016-0.08l0.185-0.465h-0.63L23.874,11c0.01,0.028,0.002,0.059-0.019,0.08 c-0.022,0.02-0.054,0.025-0.081,0.015l-0.455-0.191v0.673l0.459-0.163c0.024-0.009,0.053-0.003,0.073,0.014 c0.021,0.017,0.03,0.044,0.025,0.07L23.775,12.058z"/></g><g><path fill="#ffd400" d="M28.142,15.045l0.465-0.557c-0.871-1.105-2.596-1.868-4.607-1.868c-1.991,0-3.7,0.748-4.58,1.835 l0.464,0.556c0.805-1.066,2.336-1.796,4.116-1.796C25.8,13.214,27.345,13.96,28.142,15.045z"/><path fill="#263238" d="M28.142,15.12c-0.001,0-0.002,0-0.002,0c-0.023-0.001-0.045-0.012-0.059-0.031 c-0.815-1.11-2.379-1.8-4.08-1.8c-1.68,0-3.234,0.677-4.056,1.766c-0.015,0.018-0.043,0.033-0.06,0.03 c-0.022,0-0.043-0.01-0.058-0.027l-0.464-0.556c-0.023-0.027-0.023-0.067,0-0.095c0.93-1.149,2.707-1.863,4.638-1.863 c1.956,0,3.743,0.727,4.665,1.896c0.022,0.028,0.021,0.067-0.001,0.094l-0.466,0.558C28.185,15.11,28.164,15.12,28.142,15.12z M24.001,13.139c1.709,0,3.286,0.682,4.144,1.785l0.366-0.438c-0.905-1.106-2.626-1.792-4.51-1.792c-1.86,0-3.57,0.673-4.482,1.759 l0.364,0.437C20.746,13.808,22.313,13.139,24.001,13.139z"/></g><g><circle cx="23.052" cy="12.604" r=".421" fill="#dfe9f2"/><path fill="#263238" d="M23.052,13.1c-0.274,0-0.497-0.223-0.497-0.496c0-0.274,0.223-0.497,0.497-0.497 s0.497,0.223,0.497,0.497C23.549,12.877,23.326,13.1,23.052,13.1z M23.052,12.258c-0.191,0-0.346,0.155-0.346,0.346 s0.155,0.346,0.346,0.346s0.346-0.155,0.346-0.346S23.243,12.258,23.052,12.258z"/><circle cx="22.16" cy="12.838" r=".421" fill="#dfe9f2"/><path fill="#263238" d="M22.16,13.334c-0.274,0-0.497-0.223-0.497-0.497c0-0.273,0.223-0.496,0.497-0.496 s0.497,0.223,0.497,0.496C22.657,13.112,22.434,13.334,22.16,13.334z M22.16,12.492c-0.191,0-0.346,0.155-0.346,0.346 s0.155,0.346,0.346,0.346s0.346-0.155,0.346-0.346S22.351,12.492,22.16,12.492z"/><circle cx="21.295" cy="13.199" r=".421" fill="#dfe9f2"/><path fill="#263238" d="M21.295,13.695c-0.273,0-0.496-0.223-0.496-0.496c0-0.274,0.223-0.497,0.496-0.497 c0.274,0,0.497,0.223,0.497,0.497C21.792,13.472,21.569,13.695,21.295,13.695z M21.295,12.853c-0.191,0-0.346,0.155-0.346,0.346 s0.155,0.346,0.346,0.346s0.346-0.155,0.346-0.346S21.486,12.853,21.295,12.853z"/><circle cx="20.475" cy="13.595" r=".421" fill="#dfe9f2"/><path fill="#263238" d="M20.475,14.091c-0.274,0-0.497-0.223-0.497-0.496c0-0.274,0.223-0.497,0.497-0.497 c0.273,0,0.496,0.223,0.496,0.497C20.971,13.869,20.749,14.091,20.475,14.091z M20.475,13.249c-0.191,0-0.346,0.155-0.346,0.346 s0.155,0.346,0.346,0.346s0.346-0.155,0.346-0.346S20.666,13.249,20.475,13.249z"/><circle cx="19.7" cy="14.118" r=".421" fill="#dfe9f2"/><path fill="#263238" d="M19.7,14.614c-0.274,0-0.497-0.223-0.497-0.497s0.223-0.497,0.497-0.497 c0.273,0,0.496,0.223,0.496,0.497S19.974,14.614,19.7,14.614z M19.7,13.771c-0.191,0-0.346,0.155-0.346,0.346 s0.155,0.346,0.346,0.346s0.346-0.155,0.346-0.346S19.891,13.771,19.7,13.771z"/><circle cx="25.053" cy="12.604" r=".421" fill="#dfe9f2"/><path fill="#263238" d="M25.053,13.1c-0.274,0-0.497-0.223-0.497-0.496c0-0.274,0.223-0.497,0.497-0.497 c0.273,0,0.496,0.223,0.496,0.497C25.549,12.877,25.326,13.1,25.053,13.1z M25.053,12.258c-0.191,0-0.346,0.155-0.346,0.346 s0.155,0.346,0.346,0.346c0.19,0,0.346-0.155,0.346-0.346S25.243,12.258,25.053,12.258z"/><g><circle cx="25.945" cy="12.838" r=".421" fill="#dfe9f2"/><path fill="#263238" d="M25.945,13.334c-0.274,0-0.497-0.223-0.497-0.497c0-0.273,0.223-0.496,0.497-0.496 c0.273,0,0.496,0.223,0.496,0.496C26.441,13.112,26.219,13.334,25.945,13.334z M25.945,12.492c-0.191,0-0.347,0.155-0.347,0.346 s0.155,0.346,0.347,0.346c0.19,0,0.346-0.155,0.346-0.346S26.136,12.492,25.945,12.492z"/></g><g><circle cx="26.81" cy="13.199" r=".421" fill="#dfe9f2"/><path fill="#263238" d="M26.81,13.695c-0.273,0-0.496-0.223-0.496-0.496c0-0.274,0.223-0.497,0.496-0.497 c0.274,0,0.497,0.223,0.497,0.497C27.307,13.472,27.084,13.695,26.81,13.695z M26.81,12.853c-0.19,0-0.346,0.155-0.346,0.346 s0.155,0.346,0.346,0.346c0.191,0,0.347-0.155,0.347-0.346S27.001,12.853,26.81,12.853z"/></g><g><circle cx="27.63" cy="13.595" r=".421" fill="#dfe9f2"/><path fill="#263238" d="M27.63,14.091c-0.273,0-0.496-0.223-0.496-0.496c0-0.274,0.223-0.497,0.496-0.497 s0.496,0.223,0.496,0.497C28.126,13.869,27.903,14.091,27.63,14.091z M27.63,13.249c-0.19,0-0.346,0.155-0.346,0.346 s0.155,0.346,0.346,0.346s0.346-0.155,0.346-0.346S27.82,13.249,27.63,13.249z"/></g><g><circle cx="28.405" cy="14.118" r=".421" fill="#dfe9f2"/><path fill="#263238" d="M28.405,14.614c-0.274,0-0.497-0.223-0.497-0.497s0.223-0.497,0.497-0.497 c0.273,0,0.496,0.223,0.496,0.497S28.679,14.614,28.405,14.614z M28.405,13.771c-0.191,0-0.347,0.155-0.347,0.346 s0.155,0.346,0.347,0.346c0.19,0,0.346-0.155,0.346-0.346S28.596,13.771,28.405,13.771z"/></g><g><circle cx="24.014" cy="12.448" r=".532" fill="#dfe9f2"/><path fill="#263238" d="M24.014,13.055c-0.334,0-0.607-0.272-0.607-0.607s0.272-0.607,0.607-0.607s0.607,0.272,0.607,0.607 S24.349,13.055,24.014,13.055z M24.014,11.992c-0.252,0-0.457,0.205-0.457,0.457s0.205,0.457,0.457,0.457s0.457-0.205,0.457-0.457 S24.266,11.992,24.014,11.992z"/></g></g><g><defs><path id="N4LJP1BgF2Fkd2KXOuBjHc" d="M25.125,27.307c0,0,0.024-0.993,0.036-1.233c0.012-0.239,0.335-0.407,0.479-0.634 c0.144-0.227,0.443-1.041,0.694-1.305c0.225-0.236,0.512-0.397,0.646-0.563c0.263-0.323,0.048-0.922-0.527-0.527 c-0.574,0.395-0.598,0.563-0.838,0.694c-0.315,0.174-0.275,0.108-0.275,0.108s0-2.824-0.048-3.375s-0.395-0.826-0.766-0.503 c0.06-0.742-0.838-0.874-0.838,0.048c-0.132-0.563-0.778-0.443-0.766,0.168s0,0.563,0,0.563c-0.096-0.311-0.69-0.3-0.682,0.251 c0.012,0.862-0.012,1.795,0,2.178c0.012,0.383-0.431,1.903,0.419,2.669c-0.012,0.479,0,1.209,0,1.209 c-0.012,0.718,0.516,0.299,1.281,0.275C24.299,27.32,24.539,27.559,25.125,27.307z"/></defs><clipPath id="N4LJP1BgF2Fkd2KXOuBjHd"><use overflow="visible" xlink:href="#N4LJP1BgF2Fkd2KXOuBjHc"/></clipPath><polygon fill="#f44f5a" points="26.085,19.097 21.81,22.612 21.81,19.097" clip-path="url(#N4LJP1BgF2Fkd2KXOuBjHd)"/><polygon fill="#f44f5a" points="26.292,19.097 21.81,22.783 21.81,22.612 26.085,19.097" clip-path="url(#N4LJP1BgF2Fkd2KXOuBjHd)"/><polygon fill="#f44e59" points="26.499,19.097 21.81,22.953 21.81,22.783 26.292,19.097" clip-path="url(#N4LJP1BgF2Fkd2KXOuBjHd)"/><polygon fill="#f34d58" points="26.707,19.097 21.81,23.124 21.81,22.953 26.499,19.097" clip-path="url(#N4LJP1BgF2Fkd2KXOuBjHd)"/><polygon fill="#f34c57" points="26.914,19.097 21.81,23.294 21.81,23.124 26.707,19.097" clip-path="url(#N4LJP1BgF2Fkd2KXOuBjHd)"/><polygon fill="#f34b56" points="27.122,19.097 21.81,23.465 21.81,23.294 26.914,19.097" clip-path="url(#N4LJP1BgF2Fkd2KXOuBjHd)"/><polygon fill="#f24a55" points="27.155,19.097 27.225,19.183 21.81,23.635 21.81,23.465 27.122,19.097" clip-path="url(#N4LJP1BgF2Fkd2KXOuBjHd)"/><polygon fill="#f24954" points="27.225,19.183 27.243,19.205 27.243,19.338 21.81,23.806 21.81,23.635" clip-path="url(#N4LJP1BgF2Fkd2KXOuBjHd)"/><polygon fill="#f24853" points="27.243,19.509 21.81,23.976 21.81,23.806 27.243,19.338" clip-path="url(#N4LJP1BgF2Fkd2KXOuBjHd)"/><polygon fill="#f14752" points="27.243,19.679 21.81,24.147 21.81,23.976 27.243,19.509" clip-path="url(#N4LJP1BgF2Fkd2KXOuBjHd)"/><polygon fill="#f14552" points="27.243,19.85 21.81,24.317 21.81,24.147 27.243,19.679" clip-path="url(#N4LJP1BgF2Fkd2KXOuBjHd)"/><polygon fill="#f04451" points="27.243,20.02 21.81,24.488 21.81,24.317 27.243,19.85" clip-path="url(#N4LJP1BgF2Fkd2KXOuBjHd)"/><polygon fill="#f04350" points="27.243,20.191 21.81,24.659 21.81,24.488 27.243,20.02" clip-path="url(#N4LJP1BgF2Fkd2KXOuBjHd)"/><polygon fill="#f0424f" points="27.243,20.361 21.81,24.829 21.81,24.659 27.243,20.191" clip-path="url(#N4LJP1BgF2Fkd2KXOuBjHd)"/><polygon fill="#ef414e" points="27.243,20.532 21.81,25 21.81,24.829 27.243,20.361" clip-path="url(#N4LJP1BgF2Fkd2KXOuBjHd)"/><polygon fill="#ef404d" points="27.243,20.702 21.81,25.17 21.81,25 27.243,20.532" clip-path="url(#N4LJP1BgF2Fkd2KXOuBjHd)"/><polygon fill="#ef3f4c" points="27.243,20.873 21.81,25.341 21.81,25.17 27.243,20.702" clip-path="url(#N4LJP1BgF2Fkd2KXOuBjHd)"/><polygon fill="#ee3e4b" points="27.243,21.044 21.81,25.511 21.81,25.341 27.243,20.873" clip-path="url(#N4LJP1BgF2Fkd2KXOuBjHd)"/><polygon fill="#ee3d4a" points="27.243,21.214 21.81,25.682 21.81,25.511 27.243,21.044" clip-path="url(#N4LJP1BgF2Fkd2KXOuBjHd)"/><polygon fill="#ee3d4a" points="27.243,21.347 21.81,25.815 21.81,25.682 27.243,21.214" clip-path="url(#N4LJP1BgF2Fkd2KXOuBjHd)"/><polygon fill="#ee3c49" points="27.243,21.481 21.81,25.949 21.81,25.815 27.243,21.347" clip-path="url(#N4LJP1BgF2Fkd2KXOuBjHd)"/><polygon fill="#ed3b48" points="27.243,21.614 21.81,26.082 21.81,25.949 27.243,21.481" clip-path="url(#N4LJP1BgF2Fkd2KXOuBjHd)"/><polygon fill="#ed3a47" points="27.243,21.747 21.81,26.215 21.81,26.082 27.243,21.614" clip-path="url(#N4LJP1BgF2Fkd2KXOuBjHd)"/><polygon fill="#ed3946" points="27.243,21.881 21.81,26.349 21.81,26.215 27.243,21.747" clip-path="url(#N4LJP1BgF2Fkd2KXOuBjHd)"/><polygon fill="#ec3845" points="27.243,22.014 21.81,26.482 21.81,26.349 27.243,21.881" clip-path="url(#N4LJP1BgF2Fkd2KXOuBjHd)"/><polygon fill="#ec3744" points="27.243,22.147 21.81,26.615 21.81,26.482 27.243,22.014" clip-path="url(#N4LJP1BgF2Fkd2KXOuBjHd)"/><polygon fill="#ec3644" points="27.243,22.281 21.81,26.749 21.81,26.615 27.243,22.147" clip-path="url(#N4LJP1BgF2Fkd2KXOuBjHd)"/><polygon fill="#eb3543" points="27.243,22.414 21.81,26.882 21.81,26.749 27.243,22.281" clip-path="url(#N4LJP1BgF2Fkd2KXOuBjHd)"/><polygon fill="#eb3442" points="27.243,22.548 21.81,27.015 21.81,26.882 27.243,22.414" clip-path="url(#N4LJP1BgF2Fkd2KXOuBjHd)"/><polygon fill="#eb3341" points="27.243,22.681 21.81,27.149 21.81,27.015 27.243,22.548" clip-path="url(#N4LJP1BgF2Fkd2KXOuBjHd)"/><polygon fill="#ea3240" points="27.243,22.814 21.81,27.282 21.81,27.149 27.243,22.681" clip-path="url(#N4LJP1BgF2Fkd2KXOuBjHd)"/><polygon fill="#ea313f" points="27.243,22.948 21.81,27.415 21.81,27.282 27.243,22.814" clip-path="url(#N4LJP1BgF2Fkd2KXOuBjHd)"/><polygon fill="#ea303e" points="27.243,23.081 21.81,27.549 21.81,27.415 27.243,22.948" clip-path="url(#N4LJP1BgF2Fkd2KXOuBjHd)"/><polygon fill="#ea2f3d" points="27.243,23.214 21.81,27.682 21.81,27.549 27.243,23.081" clip-path="url(#N4LJP1BgF2Fkd2KXOuBjHd)"/><polygon fill="#e92d3c" points="27.243,23.348 21.86,27.774 21.81,27.774 21.81,27.682 27.243,23.214" clip-path="url(#N4LJP1BgF2Fkd2KXOuBjHd)"/><polygon fill="#e92c3b" points="27.243,23.481 22.022,27.774 21.86,27.774 27.243,23.348" clip-path="url(#N4LJP1BgF2Fkd2KXOuBjHd)"/><polygon fill="#e92b3a" points="27.243,23.614 22.184,27.774 22.022,27.774 27.243,23.481" clip-path="url(#N4LJP1BgF2Fkd2KXOuBjHd)"/><polygon fill="#e82a39" points="27.243,23.748 22.347,27.774 22.184,27.774 27.243,23.614" clip-path="url(#N4LJP1BgF2Fkd2KXOuBjHd)"/><polygon fill="#e82938" points="27.243,23.881 22.509,27.774 22.347,27.774 27.243,23.748" clip-path="url(#N4LJP1BgF2Fkd2KXOuBjHd)"/><polygon fill="#e82837" points="27.243,24.014 22.671,27.774 22.509,27.774 27.243,23.881" clip-path="url(#N4LJP1BgF2Fkd2KXOuBjHd)"/><polygon fill="#e72737" points="27.243,24.148 22.833,27.774 22.671,27.774 27.243,24.014" clip-path="url(#N4LJP1BgF2Fkd2KXOuBjHd)"/><polygon fill="#e72636" points="27.243,24.281 22.995,27.774 22.833,27.774 27.243,24.148" clip-path="url(#N4LJP1BgF2Fkd2KXOuBjHd)"/><polygon fill="#e72535" points="27.243,24.414 23.157,27.774 22.995,27.774 27.243,24.281" clip-path="url(#N4LJP1BgF2Fkd2KXOuBjHd)"/><polygon fill="#e62434" points="27.243,24.548 23.32,27.774 23.157,27.774 27.243,24.414" clip-path="url(#N4LJP1BgF2Fkd2KXOuBjHd)"/><polygon fill="#e62333" points="27.243,24.681 23.482,27.774 23.32,27.774 27.243,24.548" clip-path="url(#N4LJP1BgF2Fkd2KXOuBjHd)"/><polygon fill="#e62232" points="27.243,24.814 23.644,27.774 23.482,27.774 27.243,24.681" clip-path="url(#N4LJP1BgF2Fkd2KXOuBjHd)"/><polygon fill="#e52131" points="27.243,24.948 23.806,27.774 23.644,27.774 27.243,24.814" clip-path="url(#N4LJP1BgF2Fkd2KXOuBjHd)"/><polygon fill="#e52030" points="27.243,25.081 23.968,27.774 23.806,27.774 27.243,24.948" clip-path="url(#N4LJP1BgF2Fkd2KXOuBjHd)"/><polygon fill="#e52030" points="23.968,27.774 27.243,25.081 27.243,27.774" clip-path="url(#N4LJP1BgF2Fkd2KXOuBjHd)"/></g><g><path d="M22.918,27.549c-0.093,0-0.171-0.019-0.235-0.071c-0.093-0.077-0.134-0.211-0.131-0.423c0-0.005-0.011-0.7,0-1.176 c-0.677-0.641-0.531-1.751-0.452-2.351c0.02-0.148,0.036-0.275,0.034-0.347c-0.006-0.184-0.003-0.496,0-0.857 c0.003-0.409,0.007-0.872,0-1.323c-0.005-0.344,0.203-0.499,0.382-0.527c0.114-0.021,0.222,0.006,0.305,0.063 c0-0.08-0.002-0.192-0.005-0.35c-0.007-0.377,0.212-0.578,0.419-0.604c0.127-0.019,0.272,0.032,0.376,0.162 c0.045-0.188,0.139-0.328,0.272-0.4c0.138-0.076,0.3-0.066,0.436,0.021c0.143,0.093,0.231,0.259,0.249,0.458 c0.132-0.074,0.265-0.088,0.388-0.039c0.207,0.083,0.349,0.338,0.379,0.681c0.043,0.499,0.047,2.799,0.048,3.292 c0.035-0.016,0.088-0.042,0.164-0.084c0.095-0.052,0.15-0.108,0.235-0.194c0.111-0.113,0.265-0.269,0.597-0.496 c0.381-0.262,0.592-0.092,0.646-0.032c0.153,0.167,0.146,0.467-0.019,0.668c-0.073,0.089-0.184,0.175-0.301,0.265 c-0.113,0.088-0.241,0.188-0.35,0.302c-0.153,0.161-0.333,0.554-0.478,0.871c-0.083,0.181-0.154,0.337-0.208,0.422 c-0.061,0.096-0.146,0.178-0.229,0.258c-0.119,0.114-0.231,0.223-0.237,0.34c-0.012,0.235-0.036,1.222-0.036,1.231 c-0.001,0.029-0.019,0.056-0.046,0.067c-0.417,0.179-0.675,0.119-0.899,0.071c-0.105-0.024-0.211-0.045-0.312-0.042 c-0.225,0.007-0.428,0.049-0.607,0.086C23.157,27.522,23.028,27.549,22.918,27.549z M22.584,20.618 c-0.015,0-0.03,0.001-0.044,0.003c-0.061,0.01-0.26,0.065-0.255,0.377c0.006,0.452,0.002,0.917-0.001,1.326 c-0.002,0.359-0.005,0.67,0.001,0.851c0.002,0.084-0.014,0.211-0.036,0.372c-0.082,0.621-0.218,1.661,0.429,2.244 c0.016,0.015,0.025,0.035,0.025,0.058c-0.012,0.473,0,1.198,0,1.206c-0.003,0.163,0.022,0.263,0.076,0.308 c0.083,0.068,0.265,0.03,0.494-0.017c0.185-0.039,0.396-0.082,0.633-0.09c0.131,0.002,0.24,0.021,0.349,0.046 c0.207,0.045,0.419,0.093,0.764-0.045c0.006-0.203,0.025-0.979,0.035-1.187c0.009-0.177,0.148-0.311,0.284-0.44 c0.076-0.073,0.155-0.149,0.206-0.229c0.048-0.076,0.118-0.229,0.198-0.404c0.149-0.327,0.335-0.733,0.505-0.912 c0.117-0.123,0.25-0.226,0.367-0.316c0.11-0.085,0.214-0.166,0.276-0.242c0.127-0.156,0.114-0.374,0.024-0.472 c-0.093-0.099-0.255-0.08-0.45,0.055c-0.32,0.219-0.468,0.369-0.575,0.478c-0.087,0.088-0.156,0.158-0.27,0.221 c-0.264,0.144-0.322,0.149-0.366,0.103c-0.015-0.015-0.021-0.039-0.021-0.061l0,0c0-0.028,0-2.828-0.048-3.369 c-0.023-0.281-0.133-0.493-0.285-0.554c-0.137-0.056-0.269,0.024-0.357,0.102c-0.024,0.02-0.057,0.024-0.083,0.01 c-0.027-0.014-0.043-0.042-0.041-0.073c0.017-0.21-0.051-0.386-0.182-0.472c-0.088-0.057-0.193-0.062-0.282-0.015 c-0.142,0.077-0.224,0.274-0.224,0.541c0,0.038-0.029,0.07-0.066,0.075c-0.035,0.003-0.073-0.02-0.082-0.058 c-0.048-0.204-0.182-0.329-0.33-0.303c-0.143,0.018-0.293,0.167-0.288,0.452c0.012,0.629,0.012,0.629-0.065,0.639 c-0.035,0.012-0.074-0.021-0.083-0.057C22.788,20.667,22.682,20.618,22.584,20.618z"/></g><g><path d="M22.931,22.559c-0.041,0-0.074-0.033-0.075-0.074l-0.032-1.835c0-0.042,0.033-0.076,0.074-0.077c0,0,0.001,0,0.001,0 c0.041,0,0.074,0.033,0.075,0.074l0.032,1.835c0,0.042-0.033,0.076-0.074,0.077C22.932,22.559,22.931,22.559,22.931,22.559z"/></g><g><path d="M23.683,22.404c-0.041,0-0.074-0.033-0.075-0.074l-0.032-2.378c0-0.042,0.039-0.077,0.075-0.076 c0.041,0,0.074,0.033,0.075,0.074l0.032,2.378C23.759,22.37,23.726,22.403,23.683,22.404 C23.684,22.404,23.684,22.404,23.683,22.404z"/></g><g><path d="M24.529,22.324c-0.041,0-0.074-0.033-0.075-0.074l-0.032-2.314c0-0.042,0.033-0.075,0.074-0.076 c0.047-0.007,0.075,0.033,0.076,0.074l0.032,2.314C24.604,22.29,24.571,22.323,24.529,22.324 C24.529,22.324,24.529,22.324,24.529,22.324z"/></g><g><path d="M24.814,24.601c-0.041,0-0.074-0.032-0.075-0.072c0-0.006-0.011-0.594,0.551-0.741c0.037-0.01,0.08,0.014,0.091,0.054 s-0.014,0.081-0.054,0.092c-0.445,0.116-0.438,0.571-0.438,0.591c0.001,0.041-0.032,0.076-0.073,0.077 C24.815,24.601,24.814,24.601,24.814,24.601z"/></g></svg>