<svg xmlns="http://www.w3.org/2000/svg" viewBox="0 0 48 48"><linearGradient id="y1EotRNfWznAWgIr43OtAa" x1="9.899" x2="38.183" y1="-163.98" y2="-192.264" gradientTransform="matrix(1 0 0 -1 0 -154)" gradientUnits="userSpaceOnUse"><stop offset="0" stop-color="#f44f5a"/><stop offset=".443" stop-color="#ee3d4a"/><stop offset="1" stop-color="#e52030"/></linearGradient><path fill="url(#y1EotRNfWznAWgIr43OtAa)" d="M44.041,24.122c0,11.045-8.955,20-20,20s-20-8.955-20-20s8.955-20,20-20	S44.041,13.077,44.041,24.122z"/><linearGradient id="y1EotRNfWznAWgIr43OtAb" x1="355.424" x2="361.106" y1="-447.628" y2="-453.231" gradientTransform="matrix(-1 0 0 1 390 478)" gradientUnits="userSpaceOnUse"><stop offset=".282" stop-color="#ffc430"/><stop offset=".401" stop-color="#f8bd2d"/><stop offset=".574" stop-color="#e5aa23"/><stop offset=".78" stop-color="#c58a14"/><stop offset="1" stop-color="#9c6000"/></linearGradient><path fill="url(#y1EotRNfWznAWgIr43OtAb)" d="M34.085,26.218c-1.248-0.29-2.447,2.212-4.085-0.584l-0.106,9.903	c0.038,0.014,0.068,0.004,0.106,0.018l8.988-9.759c0-1.026-0.561-1.796-1.8-1.796C34.604,24,34.085,26.217,34.085,26.218z"/><linearGradient id="y1EotRNfWznAWgIr43OtAc" x1="30.751" x2="16.168" y1="14.318" y2="35.484" gradientUnits="userSpaceOnUse"><stop offset="0" stop-color="#ffc430"/><stop offset=".41" stop-color="#fec130"/><stop offset=".72" stop-color="#fcb730"/><stop offset=".998" stop-color="#f7a72f"/><stop offset="1" stop-color="#f7a72f"/></linearGradient><path fill="url(#y1EotRNfWznAWgIr43OtAc)" d="M28.5,14c-0.828,0-1.5,0.672-1.5,1.5V22h-1v-9.5c0-0.828-0.672-1.5-1.5-1.5S23,11.672,23,12.5	V22h-1v-8.521c0-0.828-0.672-1.5-1.5-1.5s-1.5,0.672-1.5,1.5V22h-1v-4.5c0-0.828-0.672-1.5-1.5-1.5S15,16.672,15,17.5v15.233	C15,35.09,16.961,37,19.38,37h6.741c1.436,0,2.812-0.521,3.879-1.445c0,0,0-0.996,0-2.555c0-3.649,0-17.5,0-17.5	C30,14.672,29.328,14,28.5,14z"/></svg>