<svg xmlns="http://www.w3.org/2000/svg" viewBox="0 0 48 48"><linearGradient id="p6iO70XU6pzZdrcIh8utja" x1="14.188" x2="34.451" y1="4.779" y2="44.203" gradientTransform="translate(-.022 -.01)" gradientUnits="userSpaceOnUse"><stop offset="0" stop-color="#0d61a9"/><stop offset="1" stop-color="#16528c"/></linearGradient><path fill="url(#p6iO70XU6pzZdrcIh8utja)" d="M35.018,41.825l-22,0.021c-3.866,0.004-7.003-3.127-7.007-6.993l-0.021-22	C5.986,8.987,9.117,5.85,12.983,5.847l22-0.021c3.866-0.004,7.003,3.127,7.007,6.993l0.021,22	C42.015,38.685,38.884,41.822,35.018,41.825z"/><linearGradient id="p6iO70XU6pzZdrcIh8utjb" x1="-359" x2="-351" y1="-229.602" y2="-229.602" gradientTransform="translate(389.237 269.087)" gradientUnits="userSpaceOnUse"><stop offset=".266" stop-color="#199ae0"/><stop offset=".582" stop-color="#1898de"/><stop offset=".745" stop-color="#1590d6"/><stop offset=".873" stop-color="#1083c9"/><stop offset=".982" stop-color="#0870b7"/><stop offset="1" stop-color="#076cb3"/></linearGradient><path fill="url(#p6iO70XU6pzZdrcIh8utjb)" d="M38.014,37.823l-7,0.007c-0.552,0.001-1,0.449-0.999,1.001l0.003,3l8-0.008L38.014,37.823z"/><linearGradient id="p6iO70XU6pzZdrcIh8utjc" x1="37.831" x2="42.034" y1="29.724" y2="41.633" gradientTransform="translate(-.022 -.01)" gradientUnits="userSpaceOnUse"><stop offset="0" stop-color="#32bdef"/><stop offset="1" stop-color="#1ea2e4"/></linearGradient><path fill="url(#p6iO70XU6pzZdrcIh8utjc)" d="M38.007,30.823l0.011,11l3.411-3.417c0.375-0.375,0.585-0.884,0.584-1.415l-0.007-7.172	l-3,0.003C38.454,29.822,38.007,30.27,38.007,30.823z"/><linearGradient id="p6iO70XU6pzZdrcIh8utjd" x1="-63" x2="-55" y1="882.659" y2="882.659" gradientTransform="rotate(180 -22.297 445.27)" gradientUnits="userSpaceOnUse"><stop offset=".266" stop-color="#199ae0"/><stop offset=".582" stop-color="#1898de"/><stop offset=".745" stop-color="#1590d6"/><stop offset=".873" stop-color="#1083c9"/><stop offset=".982" stop-color="#0870b7"/><stop offset="1" stop-color="#076cb3"/></linearGradient><path fill="url(#p6iO70XU6pzZdrcIh8utjd)" d="M9.987,9.849l7-0.007c0.552-0.001,1-0.449,0.999-1.001l-0.003-3l-8,0.008L9.987,9.849z"/><linearGradient id="p6iO70XU6pzZdrcIh8utje" x1="333.831" x2="338.035" y1="1141.986" y2="1153.895" gradientTransform="rotate(180 172.268 579.912)" gradientUnits="userSpaceOnUse"><stop offset="0" stop-color="#32bdef"/><stop offset="1" stop-color="#1ea2e4"/></linearGradient><path fill="url(#p6iO70XU6pzZdrcIh8utje)" d="M9.994,16.849l-0.011-11L6.572,9.267c-0.375,0.375-0.585,0.884-0.584,1.415l0.007,7.172	l3-0.003C9.547,17.85,9.994,17.402,9.994,16.849z"/><linearGradient id="p6iO70XU6pzZdrcIh8utjf" x1="-87" x2="-79" y1="-229.602" y2="-229.602" gradientTransform="matrix(-1 .00096 .00096 1 -68.763 269.528)" gradientUnits="userSpaceOnUse"><stop offset=".266" stop-color="#199ae0"/><stop offset=".582" stop-color="#1898de"/><stop offset=".745" stop-color="#1590d6"/><stop offset=".873" stop-color="#1083c9"/><stop offset=".982" stop-color="#0870b7"/><stop offset="1" stop-color="#076cb3"/></linearGradient><path fill="url(#p6iO70XU6pzZdrcIh8utjf)" d="M10.014,37.849l7-0.007c0.552-0.001,1,0.447,1.001,0.999l0.003,3l-8,0.008L10.014,37.849z"/><linearGradient id="p6iO70XU6pzZdrcIh8utjg" x1="309.831" x2="314.035" y1="29.724" y2="41.633" gradientTransform="matrix(-1 .00096 .00096 1 319.978 -.318)" gradientUnits="userSpaceOnUse"><stop offset="0" stop-color="#32bdef"/><stop offset="1" stop-color="#1ea2e4"/></linearGradient><path fill="url(#p6iO70XU6pzZdrcIh8utjg)" d="M10.007,30.849l0.011,11L6.6,38.439c-0.375-0.375-0.587-0.883-0.587-1.414l-0.007-7.172	l3-0.003C9.558,29.85,10.007,30.297,10.007,30.849z"/><linearGradient id="p6iO70XU6pzZdrcIh8utjh" x1="-335" x2="-327" y1="882.659" y2="882.659" gradientTransform="matrix(1 -.00096 -.00096 -1 365.834 890.167)" gradientUnits="userSpaceOnUse"><stop offset=".266" stop-color="#199ae0"/><stop offset=".582" stop-color="#1898de"/><stop offset=".745" stop-color="#1590d6"/><stop offset=".873" stop-color="#1083c9"/><stop offset=".982" stop-color="#0870b7"/><stop offset="1" stop-color="#076cb3"/></linearGradient><path fill="url(#p6iO70XU6pzZdrcIh8utjh)" d="M37.987,9.823l-7,0.007c-0.552,0.001-1-0.447-1.001-0.999l-0.003-3l8-0.008L37.987,9.823z"/><linearGradient id="p6iO70XU6pzZdrcIh8utji" x1="61.831" x2="66.034" y1="1141.986" y2="1153.895" gradientTransform="matrix(1 -.00096 -.00096 -1 -22.907 1160.013)" gradientUnits="userSpaceOnUse"><stop offset="0" stop-color="#32bdef"/><stop offset="1" stop-color="#1ea2e4"/></linearGradient><path fill="url(#p6iO70XU6pzZdrcIh8utji)" d="M37.994,16.823l-0.011-11l3.417,3.411c0.375,0.375,0.587,0.883,0.587,1.414l0.007,7.172	l-3,0.003C38.442,17.822,37.994,17.375,37.994,16.823z"/><radialGradient id="p6iO70XU6pzZdrcIh8utjj" cx="17.88" cy="21.15" r="5.225" gradientTransform="translate(6.89 -2.24) scale(.9569)" gradientUnits="userSpaceOnUse"><stop offset="0"/><stop offset="1" stop-opacity="0"/></radialGradient><circle cx="24" cy="18" r="5" fill="url(#p6iO70XU6pzZdrcIh8utjj)"/><linearGradient id="p6iO70XU6pzZdrcIh8utjk" x1="21.286" x2="26.867" y1="15.286" y2="20.867" gradientUnits="userSpaceOnUse"><stop offset="0" stop-color="#75daff"/><stop offset="1" stop-color="#1ea2e4"/></linearGradient><circle cx="24" cy="18" r="4" fill="url(#p6iO70XU6pzZdrcIh8utjk)"/><path d="M24,23c-4.411,0-8,3.589-8,8v1.125C16,33.159,16.841,34,17.875,34h12.25	C31.159,34,32,33.159,32,32.125V31C32,26.589,28.411,23,24,23z" opacity=".05"/><path d="M24,23.5c-4.136,0-7.5,3.364-7.5,7.5v1.125c0,0.758,0.617,1.375,1.375,1.375h12.25	c0.758,0,1.375-0.617,1.375-1.375V31C31.5,26.864,28.136,23.5,24,23.5z" opacity=".07"/><linearGradient id="p6iO70XU6pzZdrcIh8utjl" x1="24" x2="24" y1="23.814" y2="33.075" gradientUnits="userSpaceOnUse"><stop offset="0" stop-color="#75daff"/><stop offset="1" stop-color="#1ea2e4"/></linearGradient><path fill="url(#p6iO70XU6pzZdrcIh8utjl)" d="M31,31c0-3.866-3.134-7-7-7s-7,3.134-7,7c0,0.605,0,1.125,0,1.125	C17,32.608,17.392,33,17.875,33h12.25C30.608,33,31,32.608,31,32.125C31,32.125,31,31.605,31,31z"/></svg>