<svg xmlns="http://www.w3.org/2000/svg" viewBox="0 0 48 48"><polygon fill="#195bbc" points="31,31 29,25 11.242,22.03 10.091,23.416 14,31"/><linearGradient id="XGO0JzncWYQsEG2kWGuDza" x1="6.183" x2="34" y1="36" y2="36" gradientUnits="userSpaceOnUse"><stop offset="0" stop-color="#42a3f2"/><stop offset="1" stop-color="#42a4eb"/></linearGradient><polygon fill="url(#XGO0JzncWYQsEG2kWGuDza)" points="30,30 7,30 6.183,31.577 13.213,41.617 14,42 34,42"/><linearGradient id="XGO0JzncWYQsEG2kWGuDzb" x1="-13.139" x2="-13.137" y1="-27.293" y2="-27.293" gradientTransform="scale(1 -1) rotate(-80.683 -15.062 -44.202)" gradientUnits="userSpaceOnUse"><stop offset="0" stop-color="#ffc430"/><stop offset=".57" stop-color="#f8bd29"/><stop offset="1" stop-color="#f0b421"/></linearGradient><path fill="url(#XGO0JzncWYQsEG2kWGuDzb)" d="M1.946,43.36c-0.007,0.001-0.012,0.004-0.019,0.005l-0.001-0.002L1.946,43.36z"/><linearGradient id="XGO0JzncWYQsEG2kWGuDzc" x1="22.33" x2="37.504" y1="8.589" y2="8.589" gradientUnits="userSpaceOnUse"><stop offset="0" stop-color="#42a3f2"/><stop offset="1" stop-color="#42a4eb"/></linearGradient><polygon fill="url(#XGO0JzncWYQsEG2kWGuDzc)" points="23,12 37,12 37.504,10.136 29.569,5.177 28.282,5.304 22.33,11.258"/><linearGradient id="XGO0JzncWYQsEG2kWGuDzd" x1="22.056" x2="41.776" y1="27" y2="27" gradientUnits="userSpaceOnUse"><stop offset="0" stop-color="#3079d6"/><stop offset="1" stop-color="#297cd2"/></linearGradient><polygon fill="url(#XGO0JzncWYQsEG2kWGuDzd)" points="22.056,12.33 34,42 34.849,41.529 41.777,30.627 41.777,29.376 28,12 23,12"/><linearGradient id="XGO0JzncWYQsEG2kWGuDze" x1="36" x2="38" y1="11" y2="11" gradientUnits="userSpaceOnUse"><stop offset="0" stop-color="#42a3f2"/><stop offset="1" stop-color="#42a4eb"/></linearGradient><circle cx="37" cy="11" r="1" fill="url(#XGO0JzncWYQsEG2kWGuDze)"/><circle cx="11" cy="23" r="1" fill="#195bbc"/><linearGradient id="XGO0JzncWYQsEG2kWGuDzf" x1="6" x2="8" y1="31" y2="31" gradientUnits="userSpaceOnUse"><stop offset="0" stop-color="#42a3f2"/><stop offset="1" stop-color="#42a4eb"/></linearGradient><circle cx="7" cy="31" r="1" fill="url(#XGO0JzncWYQsEG2kWGuDzf)"/><linearGradient id="XGO0JzncWYQsEG2kWGuDzg" x1="13" x2="15" y1="41" y2="41" gradientUnits="userSpaceOnUse"><stop offset="0" stop-color="#42a3f2"/><stop offset="1" stop-color="#42a4eb"/></linearGradient><circle cx="14" cy="41" r="1" fill="url(#XGO0JzncWYQsEG2kWGuDzg)"/><linearGradient id="XGO0JzncWYQsEG2kWGuDzh" x1="40" x2="42" y1="30" y2="30" gradientUnits="userSpaceOnUse"><stop offset="0" stop-color="#3079d6"/><stop offset="1" stop-color="#297cd2"/></linearGradient><circle cx="41" cy="30" r="1" fill="url(#XGO0JzncWYQsEG2kWGuDzh)"/><linearGradient id="XGO0JzncWYQsEG2kWGuDzi" x1="28" x2="30" y1="6" y2="6" gradientUnits="userSpaceOnUse"><stop offset="0" stop-color="#42a3f2"/><stop offset="1" stop-color="#42a4eb"/></linearGradient><circle cx="29" cy="6" r="1" fill="url(#XGO0JzncWYQsEG2kWGuDzi)"/><linearGradient id="XGO0JzncWYQsEG2kWGuDzj" x1="22" x2="24" y1="12.5" y2="12.5" gradientUnits="userSpaceOnUse"><stop offset="0" stop-color="#3079d6"/><stop offset="1" stop-color="#297cd2"/></linearGradient><path fill="url(#XGO0JzncWYQsEG2kWGuDzj)" d="M24,12c0,0.552-0.448,1-1,1s-1-0.448-1-1H24z"/><linearGradient id="XGO0JzncWYQsEG2kWGuDzk" x1="22" x2="24" y1="11.5" y2="11.5" gradientUnits="userSpaceOnUse"><stop offset="0" stop-color="#42a3f2"/><stop offset="1" stop-color="#42a4eb"/></linearGradient><path fill="url(#XGO0JzncWYQsEG2kWGuDzk)" d="M24,12h-2c0-0.552,0.448-1,1-1S24,11.448,24,12z"/><linearGradient id="XGO0JzncWYQsEG2kWGuDzl" x1="33.309" x2="35" y1="41" y2="41" gradientUnits="userSpaceOnUse"><stop offset="0" stop-color="#3079d6"/><stop offset="1" stop-color="#297cd2"/></linearGradient><path fill="url(#XGO0JzncWYQsEG2kWGuDzl)" d="M34,40c-0.269,0-0.512,0.109-0.691,0.282L34,42c0.552,0,1-0.448,1-1	C35,40.448,34.552,40,34,40z"/></svg>