<svg xmlns="http://www.w3.org/2000/svg" xmlns:xlink="http://www.w3.org/1999/xlink" data-name="Слой 1" viewBox="0 0 48 48"><defs><linearGradient id="sxOR5NHxk2EQSmgs8o942a" x1="24" x2="24" y1="-1.935" y2="15.496" gradientUnits="userSpaceOnUse"><stop offset="0" stop-color="#d4943b"/><stop offset="1" stop-color="#c2620e"/></linearGradient><linearGradient id="sxOR5NHxk2EQSmgs8o942b" x1="24" x2="24" y1="25.163" y2="47.763" gradientTransform="rotate(-180 24 27)" xlink:href="#sxOR5NHxk2EQSmgs8o942a"/><linearGradient id="sxOR5NHxk2EQSmgs8o942c" x1="24" x2="24" y1="7.848" y2="51.381" gradientTransform="rotate(-180 24 23)" xlink:href="#sxOR5NHxk2EQSmgs8o942a"/></defs><path fill="url(#sxOR5NHxk2EQSmgs8o942a)" d="M24,24C12.78516,24,4,20.04688,4,15l.03027-.24268C5.17578,10.17432,14.69434,6,24,6s18.82422,4.17432,19.96973,8.75732L44,15C44,20.04688,35.21484,24,24,24ZM6.00293,15.12256C6.18262,18.40137,13.52344,22,24,22s17.81738-3.59863,17.99707-6.87744C41.00977,11.86621,32.875,8,24,8S6.99023,11.86621,6.00293,15.12256Z"/><rect width="40" height="28" x="4" y="13" fill="url(#sxOR5NHxk2EQSmgs8o942b)" rx="2" transform="rotate(180 24 27)"/><rect width="40" height="20" x="4" y="13" fill="url(#sxOR5NHxk2EQSmgs8o942c)" rx="2" transform="rotate(180 24 23)"/><path d="M25,16a1,1,0,0,1,1,1v4h4a1,1,0,0,1,1,1v2a1,1,0,0,1-1,1H26v4a1,1,0,0,1-1,1H23a1,1,0,0,1-1-1V25H18a1,1,0,0,1-1-1V22a1,1,0,0,1,1-1h4V17a1,1,0,0,1,1-1h2m0-1H23a2.00226,2.00226,0,0,0-2,2v3H18a2.00226,2.00226,0,0,0-2,2v2a2.00226,2.00226,0,0,0,2,2h3v3a2.00226,2.00226,0,0,0,2,2h2a2.00226,2.00226,0,0,0,2-2V26h3a2.00226,2.00226,0,0,0,2-2V22a2.00226,2.00226,0,0,0-2-2H27V17a2.00226,2.00226,0,0,0-2-2Z" opacity=".05"/><path d="M25,16a1,1,0,0,1,1,1v4h4a1,1,0,0,1,1,1v2a1,1,0,0,1-1,1H26v4a1,1,0,0,1-1,1H23a1,1,0,0,1-1-1V25H18a1,1,0,0,1-1-1V22a1,1,0,0,1,1-1h4V17a1,1,0,0,1,1-1h2m0-.5H23A1.50171,1.50171,0,0,0,21.5,17v3.5H18A1.50171,1.50171,0,0,0,16.5,22v2A1.50171,1.50171,0,0,0,18,25.5h3.5V29A1.50171,1.50171,0,0,0,23,30.5h2A1.50171,1.50171,0,0,0,26.5,29V25.5H30A1.50171,1.50171,0,0,0,31.5,24V22A1.50171,1.50171,0,0,0,30,20.5H26.5V17A1.50171,1.50171,0,0,0,25,15.5Z" opacity=".07"/><path fill="#fff" d="M26,21V17a1,1,0,0,0-1-1H23a1,1,0,0,0-1,1v4H18a1,1,0,0,0-1,1v2a1,1,0,0,0,1,1h4v4a1,1,0,0,0,1,1h2a1,1,0,0,0,1-1V25h4a1,1,0,0,0,1-1V22a1,1,0,0,0-1-1Z"/><g><path d="M42,33H6a2.00591,2.00591,0,0,1-2-2v2.23A2.98448,2.98448,0,0,0,6,34H42a2.98448,2.98448,0,0,0,2-.77V31A2.00591,2.00591,0,0,1,42,33Z" opacity=".05"/><path d="M42,33H6a2.00591,2.00591,0,0,1-2-2v1.5a2.49068,2.49068,0,0,0,2,1H42a2.49068,2.49068,0,0,0,2-1V31A2.00591,2.00591,0,0,1,42,33Z" opacity=".07"/></g></svg>