<svg xmlns="http://www.w3.org/2000/svg" viewBox="0 0 48 48"><linearGradient id="M2iQVtoOtXNcZRhYHldH_a" x1="6.997" x2="40.749" y1="655.508" y2="620.753" gradientTransform="matrix(1 0 0 -1 0 662)" gradientUnits="userSpaceOnUse"><stop offset="0" stop-color="#ffd869"/><stop offset="1" stop-color="#fec52b"/></linearGradient><path fill="url(#M2iQVtoOtXNcZRhYHldH_a)" d="M40,42H8c-1.1,0-2-0.9-2-2V8c0-1.1,0.9-2,2-2h32c1.1,0,2,0.9,2,2v32C42,41.1,41.1,42,40,42z"/><path fill="#fff8e6" d="M19,6h10v5H19V6z"/><path d="M42,17.445l-1.914-1.914C39.744,15.189,39.292,15,38.814,15C37.813,15,37,15.812,37,16.81V20H25	c-1.103,0-2,0.897-2,2v4c0,1.103,0.897,2,2,2h12v3.19c0,0.998,0.813,1.81,1.813,1.81c0.478,0,0.93-0.188,1.272-0.531L42,30.554	V17.445z" opacity=".05"/><path d="M42,18.152l-2.268-2.268c-0.248-0.248-0.574-0.384-0.918-0.384c-0.725,0-1.314,0.587-1.314,1.31v3.69	H25c-0.827,0-1.5,0.673-1.5,1.5v4c0,0.827,0.673,1.5,1.5,1.5h12.5v3.69c0,0.722,0.589,1.31,1.313,1.31	c0.345,0,0.671-0.137,0.919-0.385L42,29.847V18.152z" opacity=".07"/><linearGradient id="M2iQVtoOtXNcZRhYHldH_b" x1="24" x2="46.52" y1="24" y2="24" gradientUnits="userSpaceOnUse"><stop offset="0" stop-color="#d43a02"/><stop offset="1" stop-color="#b9360c"/></linearGradient><path fill="url(#M2iQVtoOtXNcZRhYHldH_b)" d="M38,16.81V21H25c-0.552,0-1,0.448-1,1v4c0,0.552,0.448,1,1,1h13v4.19	c0,0.72,0.87,1.08,1.379,0.571l6.701-6.701c0.586-0.586,0.586-1.536,0-2.121l-6.701-6.701C38.87,15.729,38,16.09,38,16.81z"/></svg>