<svg xmlns="http://www.w3.org/2000/svg" data-name="Слой 1" viewBox="0 0 48 48"><defs><linearGradient id="YkwA9mz7w8_Q2Mc1NBGrQa" x1="15.456" x2="33.2" y1="-2.187" y2="46.565" data-name="Безымянный градиент 3" gradientUnits="userSpaceOnUse"><stop offset="0" stop-color="#f44f5a"/><stop offset=".443" stop-color="#ee3d4a"/><stop offset="1" stop-color="#e52030"/></linearGradient><linearGradient id="YkwA9mz7w8_Q2Mc1NBGrQb" x1="19.952" x2="31.086" y1="11.249" y2="41.84" data-name="Безымянный градиент 2" gradientUnits="userSpaceOnUse"><stop offset="0" stop-color="#fed100"/><stop offset="1" stop-color="#e36001"/></linearGradient></defs><path fill="url(#YkwA9mz7w8_Q2Mc1NBGrQa)" d="M23.11223,3.36628l-2.70276,8.96655L9.39457,5.93788a.51535.51535,0,0,0-.73239.65178l5.293,11.91L4.37758,21.15984a.51316.51316,0,0,0-.04251.97618L13.1806,25.4374,7.60465,34.9179a.51452.51452,0,0,0,.57085.75818L19.37678,32.889l1.80469,11.675a.517.517,0,0,0,.97917.13721l5.4777-11.8122,12.1135,4.637a.51485.51485,0,0,0,.63866-.72573L34.86721,26.72216l9.81763-4.44144a.51327.51327,0,0,0-.12878-.97476L33.83452,19.5275l7.23415-9.89989a.51464.51464,0,0,0-.60295-.78192L28.671,13.36064,24.07687,3.30129A.5172.5172,0,0,0,23.11223,3.36628Z"/><path fill="url(#YkwA9mz7w8_Q2Mc1NBGrQb)" d="M24.98581,13.621,25.99437,19l5.0187-2.86782a.5.5,0,0,1,.65493.72474L27.99437,22l5.20856,1.11612a.5.5,0,0,1,.05335.96325L28.99437,25.5l2.97373,4.83231a.5.5,0,0,1-.6739.69617L25.99437,28l-1.90125,6.084a.5.5,0,0,1-.96868-.057L22,28l-4.44514,1.46375a.5.5,0,0,1-.54465-.79011L20,25l-5.4667-1.95035a.5.5,0,0,1,.04406-.95522L19,21l-2.27076-5.33218a.5.5,0,0,1,.74817-.60847L22.99437,19l1.00857-5.379A.5.5,0,0,1,24.98581,13.621Z"/></svg>