<svg xmlns="http://www.w3.org/2000/svg" data-name="Слой 1" viewBox="0 0 48 48"><defs><linearGradient id="jvSwd3TLpJ_eLxlbR6buNa" x1="12.815" x2="35.995" y1="6.101" y2="43.195" data-name="Безымянный градиент 129" gradientUnits="userSpaceOnUse"><stop offset="0" stop-color="#ffd869"/><stop offset="1" stop-color="#fec52b"/></linearGradient><linearGradient id="jvSwd3TLpJ_eLxlbR6buNb" x1="11" x2="17" y1="10.5" y2="10.5" data-name="Безымянный градиент 69" gradientUnits="userSpaceOnUse"><stop offset="0" stop-color="#3079d6"/><stop offset="1" stop-color="#297cd2"/></linearGradient></defs><rect width="4.75" height="21" x="29.75" y="18.25" fill="#c28200"/><path fill="#c28200" d="M32,38l-23.93256.99719-.001.01209L37.02222,44.063a3.84751,3.84751,0,0,1,4.30719-3.30878l1.25006-7.16229Z"/><path fill="url(#jvSwd3TLpJ_eLxlbR6buNa)" d="M40,9H8a4,4,0,0,1-4,4V35a4,4,0,0,1,4,4H40a4,4,0,0,1,4-4V13A4,4,0,0,1,40,9ZM32,37a1,1,0,1,1,1-1A1.00036,1.00036,0,0,1,32,37Zm0-4a1,1,0,1,1,1-1A1.00036,1.00036,0,0,1,32,33Zm0-4a1,1,0,1,1,1-1A1.00036,1.00036,0,0,1,32,29Zm0-4a1,1,0,1,1,1-1A1.00036,1.00036,0,0,1,32,25Zm0-4a1,1,0,1,1,1-1A1.00036,1.00036,0,0,1,32,21Zm0-4a1,1,0,1,1,1-1A1.00036,1.00036,0,0,1,32,17Zm0-4a1,1,0,1,1,1-1A1.00036,1.00036,0,0,1,32,13Z"/><rect width="7" height="2" x="21" y="20" fill="#c2620e" rx="1"/><rect width="12" height="2" x="7" y="20" fill="#c2620e" rx="1"/><rect width="21" height="2" x="7" y="26" fill="#c2620e" rx="1"/><path fill="url(#jvSwd3TLpJ_eLxlbR6buNb)" d="M17,8V9H16V8a2,2,0,0,0-4,0v6a1,1,0,0,0,2,0V10.5a.5.5,0,0,1,1,0V14a2,2,0,0,1-4,0V8a3,3,0,0,1,6,0Z"/></svg>