<svg xmlns="http://www.w3.org/2000/svg" data-name="Слой 1" viewBox="0 0 48 48"><defs><linearGradient id="bXu9gEqOfiv7WMon86qGoa" x1="40.797" x2="47.261" y1="32.511" y2="50.271" data-name="Безымянный градиент 111" gradientUnits="userSpaceOnUse"><stop offset="0" stop-color="#fed100"/><stop offset="1" stop-color="#e36001"/></linearGradient><linearGradient id="bXu9gEqOfiv7WMon86qGob" x1="33.485" x2="46.971" y1="7.55" y2="44.603" data-name="Безымянный градиент 70" gradientUnits="userSpaceOnUse"><stop offset="0" stop-color="#6d6d6d"/><stop offset=".126" stop-color="#626262"/><stop offset=".987" stop-color="#464646"/><stop offset=".998" stop-color="#454545"/></linearGradient><linearGradient id="bXu9gEqOfiv7WMon86qGoc" x1="7.965" x2="32.215" y1="-485.979" y2="-510.229" data-name="Безымянный градиент 119" gradientTransform="matrix(1 0 0 -1 0 -472)" gradientUnits="userSpaceOnUse"><stop offset="0" stop-color="#00bffe"/><stop offset="1" stop-color="#1d55c4"/></linearGradient><linearGradient id="bXu9gEqOfiv7WMon86qGod" x1="8.26" x2="32.417" y1="-485.829" y2="-509.986" data-name="Безымянный градиент 118" gradientTransform="matrix(1 0 0 -1 0 -472)" gradientUnits="userSpaceOnUse"><stop offset="0" stop-color="#84e1fe"/><stop offset="1" stop-color="#167cf7"/></linearGradient></defs><path fill="url(#bXu9gEqOfiv7WMon86qGoa)" d="M41.3253,30.17449,40.98566,32.5l-1.55941-1.12766a.23506.23506,0,0,0-.35091.21364L39.5,34l-2.1303-.43861a.23506.23506,0,0,0-.16621.40127L39,35.5l-1.32639.95095a.23506.23506,0,0,0,.16621.40127L39.48566,37l.13727,2.654a.23506.23506,0,0,0,.3819.18355L42,38l.94726,1.88547a.23506.23506,0,0,0,.43662-.12094L43.5,38l2.04633.51328a.23506.23506,0,0,0,.26889-.35491L44.5,36l1.64408-1.16938a.23506.23506,0,0,0-.08522-.43164L44,34l.59054-1.80985a.23506.23506,0,0,0-.30555-.30554L42.48566,32.5l-.70638-2.32651A.23506.23506,0,0,0,41.3253,30.17449Z"/><path fill="url(#bXu9gEqOfiv7WMon86qGob)" d="M42,36a.99943.99943,0,0,1-1-1V13.65723a2.99973,2.99973,0,0,0-5.12109-2.12207L30.707,16.707A.99989.99989,0,0,1,29.293,15.293l5.17187-5.17188A4.9998,4.9998,0,0,1,43,13.65723V35A.99943.99943,0,0,1,42,36Z"/><rect width="9.899" height="9.454" x="26.036" y="10.273" fill="#0d61a9" rx="2" transform="rotate(45 30.986 15)"/><path fill="url(#bXu9gEqOfiv7WMon86qGoc)" d="M36.986,26a17,17,0,1,1-17-17A17.00076,17.00076,0,0,1,36.986,26Z"/><path fill="url(#bXu9gEqOfiv7WMon86qGod)" d="M19.79054,34.9318a2.586,2.586,0,0,1-.19465,1.74675,4.68918,4.68918,0,0,1-.77605,1.74335,4.019,4.019,0,0,1-1.162.77945,13.76976,13.76976,0,0,0-1.5521,1.74675c0,.19125-.776,1.1781-.9707,1.1781-.07225.03825-.14111.0731-.2108.108a16.87484,16.87484,0,0,1-3.26145-1.41865c-.0068-.0204-.01445-.03995-.0221-.0612,0-.19465-.19125-1.36-.19125-1.5521-.19465-.58395-.39015-1.36-.584-1.9414-.3859-.9707-1.16195-1.9414-1.16195-3.10335,0-.97155.19125-1.938-.39015-2.71745-.776-.9707-2.32815-.9707-3.1042-1.5521a8.82729,8.82729,0,0,1-2.90955-3.1042,3.64115,3.64115,0,0,1-.30855-.6528c.00085-.045-.0051-.0867-.0051-.1309a16.92487,16.92487,0,0,1,4.7158-11.73,8.36215,8.36215,0,0,1,6.5926-1.31325c.5814.19125,2.67325,1.44245,2.67325,2.02385,0,.19465,0,.19465-.19465.39015a.70661.70661,0,0,1-.5814.19465,8.56066,8.56066,0,0,1-2.60865-.618c-1.1662-.3893-2.90955,2.1335-3.10335,2.90955-.19465.584-.19465,1.9414.776,2.13605.5814,0,3.2419-2.2576,3.63205-2.45225a3.13555,3.13555,0,0,1,3.1416,2.49985c.5814,1.5521-2.69875,3.05235-3.865,3.4425-.3859.19465-.58055-.19465-.9707,0a2.71319,2.71319,0,0,0-1.65495,2.41315c-.09775.98175-.19465,1.93885-.3859,2.90955-.19465,0-.5933-.00255-.5933-.1972v-.3859c0-.58565-.19465-1.36085-.776-1.5555-.19465-.1904-.4692.1156-.66385.1156-.5814,0-1.16195-.584-1.74336-.19465a2.382,2.382,0,0,0-.77605,1.5521.71374.71374,0,0,0,.19126.5814c.39014.19465.77605-.19125,1.16619,0,.38591,0,.38591.39015.38591.584.39015.5814.776,1.35745,1.36,1.5521H13.583a5.80222,5.80222,0,0,1,1.9414.77605c.1904.3859.1904.776.3859,1.16195.9707.9707,2.13265.9707,3.298,1.36C19.59589,34.3504,19.79139,34.54165,19.79054,34.9318ZM30.63143,12.757a2.1993,2.1993,0,0,0-.25584.085c-.5814.19465-2.09866,2.99625-2.4871,3.5768-.19465.19465-.3859.5814-.19465.776,0,.19465.19465.19465.39015.19465.38589.19465.4386.2754.8279.46665.19465,0,.38589.19465.19465.39015a.19064.19064,0,0,1-.19465.19465c-.9707.9707-1.9414,1.74675-2.90955,2.71405a1.35548,1.35548,0,0,0-.32555.7769c0,.19465.13005.19465.13005.39015s-.19465.19465-.39015.3859a4.33817,4.33817,0,0,0-.9707.58395c-.19125.3859,0,.9707-.19125,1.35745a16.61217,16.61217,0,0,1-1.1662,2.71745c-.39015.5814-.7378,1.16195-1.12795,1.74675,0,.77605-.19465,1.35745.19465,1.938.9707,1.36,2.9138.05865,4.27125.6392.38589.19465.71825.23035.97069.5814a10.05978,10.05978,0,0,1,.73611,2.663,10.66993,10.66993,0,0,0,.776,2.32815c.19295.9622.57375,1.92355.7701,2.69195a16.97849,16.97849,0,0,0,.952-27.1983Zm-6.72859.79645a3.34507,3.34507,0,0,0,1.15855-1.66685c.18955-.3723.77095-1.1118.578-1.66685-.15045-.289-.76245-.4624-1.20955-.61285A16.99782,16.99782,0,0,0,19.986,9c-.391,0-.77435.0323-1.15855.05865a1.05953,1.05953,0,0,0-.70806.6069c-.1938.92565.578.7395,1.34811.92565,0,0,.1938,1.4807.1938,1.66685.1938.92565-.38675,1.4807-.38675,2.4038,0,.5576,0,1.48325.38675,1.853h.1938c.1938,0,.38335-.18615.771-.36805.578-.3723,1.15855-.92565,1.7357-1.29795A11.01757,11.01757,0,0,0,23.90284,13.55345Z"/></svg>