<svg xmlns="http://www.w3.org/2000/svg" viewBox="0 0 48 48"><linearGradient id="OqiqqQOaIUtodGYSoDJR3a" x1="13.042" x2="31.564" y1="9.959" y2="36.751" gradientUnits="userSpaceOnUse"><stop offset="0" stop-color="#7dd8f3"/><stop offset="1" stop-color="#45b0d0"/></linearGradient><path fill="url(#OqiqqQOaIUtodGYSoDJR3a)" d="M4,38V13h40v23c0,2.2-1.8,4-4,4H6C4.9,40,4,39.1,4,38z"/><path fill="#0f94bf" d="M38.5,22h-23c-0.276,0-0.5-0.224-0.5-0.5v-1c0-0.276,0.224-0.5,0.5-0.5h23c0.276,0,0.5,0.224,0.5,0.5	v1C39,21.776,38.776,22,38.5,22z"/><path fill="#0f94bf" d="M38.5,27h-23c-0.276,0-0.5-0.224-0.5-0.5v-1c0-0.276,0.224-0.5,0.5-0.5h23c0.276,0,0.5,0.224,0.5,0.5	v1C39,26.776,38.776,27,38.5,27z"/><path fill="#0f94bf" d="M38.5,32h-23c-0.276,0-0.5-0.224-0.5-0.5v-1c0-0.276,0.224-0.5,0.5-0.5h23c0.276,0,0.5,0.224,0.5,0.5	v1C39,31.776,38.776,32,38.5,32z"/><linearGradient id="OqiqqQOaIUtodGYSoDJR3b" x1="4.808" x2="42.75" y1="6.78" y2="14.495" gradientUnits="userSpaceOnUse"><stop offset="0" stop-color="#0077d2"/><stop offset="1" stop-color="#0b59a2"/></linearGradient><path fill="url(#OqiqqQOaIUtodGYSoDJR3b)" d="M44,10v3H4v-3c0-1.1,0.9-2,2-2h36C43.1,8,44,8.9,44,10z"/><path fill="#0f94bf" d="M9.5,22h1c0.276,0,0.5-0.224,0.5-0.5v-1c0-0.276-0.224-0.5-0.5-0.5h-1C9.224,20,9,20.224,9,20.5v1	C9,21.776,9.224,22,9.5,22z"/><path fill="#0f94bf" d="M9.5,27h1c0.276,0,0.5-0.224,0.5-0.5v-1c0-0.276-0.224-0.5-0.5-0.5h-1C9.224,25,9,25.224,9,25.5v1	C9,26.776,9.224,27,9.5,27z"/><path fill="#0f94bf" d="M9.5,32h1c0.276,0,0.5-0.224,0.5-0.5v-1c0-0.276-0.224-0.5-0.5-0.5h-1C9.224,30,9,30.224,9,30.5v1	C9,31.776,9.224,32,9.5,32z"/><radialGradient id="OqiqqQOaIUtodGYSoDJR3c" cx="36.018" cy="35.992" r="9.941" gradientUnits="userSpaceOnUse"><stop offset="0"/><stop offset="1" stop-opacity="0"/></radialGradient><path fill="url(#OqiqqQOaIUtodGYSoDJR3c)" d="M44,30.018C42.176,27.583,39.277,26,36,26c-5.523,0-10,4.477-10,10	c0,1.423,0.302,2.774,0.838,4H40c2.2,0,4-1.8,4-4V30.018z" opacity=".15"/><path fill="#199be2" d="M43.992,42.224l-1.768,1.768l3.935,3.935c0.098,0.098,0.256,0.098,0.354,0l1.414-1.414	c0.098-0.098,0.098-0.256,0-0.354L43.992,42.224z"/><radialGradient id="OqiqqQOaIUtodGYSoDJR3d" cx="36.012" cy="36.048" r="9.802" gradientUnits="userSpaceOnUse"><stop offset=".693" stop-color="#006185"/><stop offset=".921" stop-color="#35c1f1"/></radialGradient><polygon fill="url(#OqiqqQOaIUtodGYSoDJR3d)" points="41.8,40.033 40.033,41.8 42.224,43.992 43.992,42.224"/><linearGradient id="OqiqqQOaIUtodGYSoDJR3e" x1="30.455" x2="41.669" y1="30.455" y2="41.669" gradientUnits="userSpaceOnUse"><stop offset="0" stop-color="#a3ffff"/><stop offset=".223" stop-color="#9dfbff"/><stop offset=".53" stop-color="#8bf1ff"/><stop offset=".885" stop-color="#6ee0ff"/><stop offset="1" stop-color="#63daff"/></linearGradient><circle cx="36" cy="36" r="8" fill="url(#OqiqqQOaIUtodGYSoDJR3e)"/></svg>