<svg xmlns="http://www.w3.org/2000/svg" viewBox="0 0 48 48"><linearGradient id="15ZABlUlmD6Y_AnSRsmPwa" x1="24.002" x2="24.002" y1="16.118" y2="48.184" gradientUnits="userSpaceOnUse"><stop offset="0" stop-color="#a34f27"/><stop offset=".587" stop-color="#8b3817"/><stop offset="1" stop-color="#802d10"/></linearGradient><path fill="url(#15ZABlUlmD6Y_AnSRsmPwa)" d="M42.712,22.48l-37.34-2.95l-0.37-0.03v3v0.04c0,4.22,2.69,7.79,6.46,9.14	c1.15,0.41,2.19,1.15,2.86,2.18c3.05,4.73,8.61,7.71,14.81,7.05c7.17-0.77,12.98-6.53,13.77-13.68c0.07-0.59,0.1-1.16,0.1-1.73	v-0.04V22.5L42.712,22.48z"/><path fill="#f09ca2" d="M42.901,24.272c-0.795,7.124-6.601,12.871-13.769,13.636c-6.206,0.662-11.758-2.307-14.816-7.027	c-0.666-1.029-1.701-1.764-2.86-2.177c-3.761-1.34-6.454-4.908-6.454-9.11C5.002,7.969,19.617,7,27.411,7	C36.608,7,43.944,14.918,42.901,24.272z"/><linearGradient id="15ZABlUlmD6Y_AnSRsmPwb" x1="24.001" x2="24.001" y1="6.235" y2="41.835" gradientUnits="userSpaceOnUse"><stop offset="0" stop-color="#f05964"/><stop offset="1" stop-color="#d4414c"/></linearGradient><path fill="url(#15ZABlUlmD6Y_AnSRsmPwb)" d="M6.95,19.594c0,3.258,2.075,6.185,5.162,7.285c1.616,0.575,2.981,1.623,3.841,2.952	c2.815,4.347,7.785,6.705,12.97,6.151c6.281-0.671,11.345-5.686,12.04-11.924c0.058-0.518,0.087-1.043,0.087-1.558	c0-7.478-6.119-13.563-13.64-13.563C13.643,8.938,6.95,12.423,6.95,19.594z"/><linearGradient id="15ZABlUlmD6Y_AnSRsmPwc" x1="20.502" x2="20.502" y1="20.132" y2="8.924" gradientUnits="userSpaceOnUse"><stop offset=".002" stop-color="#454545"/><stop offset=".013" stop-color="#464646"/><stop offset=".875" stop-color="#626262"/><stop offset="1" stop-color="#6d6d6d"/></linearGradient><circle cx="20.502" cy="18.5" r="2.5" fill="url(#15ZABlUlmD6Y_AnSRsmPwc)"/><linearGradient id="15ZABlUlmD6Y_AnSRsmPwd" x1="31.502" x2="31.502" y1="20.132" y2="8.924" gradientUnits="userSpaceOnUse"><stop offset=".002" stop-color="#454545"/><stop offset=".013" stop-color="#464646"/><stop offset=".875" stop-color="#626262"/><stop offset="1" stop-color="#6d6d6d"/></linearGradient><circle cx="31.502" cy="18.5" r="2.5" fill="url(#15ZABlUlmD6Y_AnSRsmPwd)"/><linearGradient id="15ZABlUlmD6Y_AnSRsmPwe" x1="20.002" x2="20.002" y1="15.235" y2="20.882" gradientUnits="userSpaceOnUse"><stop offset="0" stop-color="#f9f9f9"/><stop offset="1" stop-color="#c2c8cc"/></linearGradient><circle cx="20.002" cy="18" r="1" fill="url(#15ZABlUlmD6Y_AnSRsmPwe)"/><linearGradient id="15ZABlUlmD6Y_AnSRsmPwf" x1="31.002" x2="31.002" y1="15.235" y2="20.882" gradientUnits="userSpaceOnUse"><stop offset="0" stop-color="#f9f9f9"/><stop offset="1" stop-color="#c2c8cc"/></linearGradient><circle cx="31.002" cy="18" r="1" fill="url(#15ZABlUlmD6Y_AnSRsmPwf)"/><circle cx="16.002" cy="24" r="2" fill="#f09ca2"/><circle cx="36.002" cy="24" r="2" fill="#f09ca2"/><linearGradient id="15ZABlUlmD6Y_AnSRsmPwg" x1="26.002" x2="26.002" y1="28.353" y2="16.614" gradientUnits="userSpaceOnUse"><stop offset=".002" stop-color="#454545"/><stop offset=".013" stop-color="#464646"/><stop offset=".875" stop-color="#626262"/><stop offset="1" stop-color="#6d6d6d"/></linearGradient><path fill="url(#15ZABlUlmD6Y_AnSRsmPwg)" d="M26.002,28c-2.206,0-4-1.794-4-4c0-0.553,0.447-1,1-1s1,0.447,1,1c0,1.103,0.897,2,2,2	s2-0.897,2-2c0-0.553,0.447-1,1-1s1,0.447,1,1C30.002,26.206,28.208,28,26.002,28z"/></svg>