<svg xmlns="http://www.w3.org/2000/svg" viewBox="0 0 48 48"><path fill="#1783bd" d="M41,6v36c0,1.105-0.895,2-2,2h-5V4h5C40.105,4,41,4.895,41,6z"/><linearGradient id="ptRnd_mwIKW39TZU_j4z1a" x1="130.581" x2="130.581" y1="629.305" y2="626.163" gradientTransform="matrix(0 -1 -1 0 664.277 154.581)" gradientUnits="userSpaceOnUse"><stop offset=".441" stop-color="#999998"/><stop offset=".653" stop-color="#c1c1c0"/><stop offset=".88" stop-color="#e5e5e5"/><stop offset="1" stop-color="#f3f3f3"/></linearGradient><path fill="url(#ptRnd_mwIKW39TZU_j4z1a)" d="M39,6v36c0,1.105-0.895,2-2,2h-6V4h6C38.105,4,39,4.895,39,6z"/><linearGradient id="ptRnd_mwIKW39TZU_j4z1b" x1="14.798" x2="29.577" y1="482.068" y2="522.327" gradientTransform="translate(0 -477.276)" gradientUnits="userSpaceOnUse"><stop offset="0" stop-color="#33bef0"/><stop offset="1" stop-color="#22a5e2"/></linearGradient><path fill="url(#ptRnd_mwIKW39TZU_j4z1b)" d="M35,4H8C7.448,4,7,4.448,7,5v38c0,0.552,0.448,1,1,1h27c1.105,0,2-0.895,2-2V6 C37,4.895,36.105,4,35,4z"/><linearGradient id="ptRnd_mwIKW39TZU_j4z1c" x1="20.268" x2="24.448" y1="16.736" y2="34.264" gradientUnits="userSpaceOnUse"><stop offset="0" stop-color="#ffda1c"/><stop offset="1" stop-color="#feb705"/></linearGradient><rect width="30" height="14" x="7" y="17" fill="url(#ptRnd_mwIKW39TZU_j4z1c)"/><path fill="#fff" d="M16,28c0,0-1-1-3-1s-3,1-3,1v-7c0,0,1-1,3-1s3,1,3,1V28z"/><path fill="#fff" d="M22,28c0,0-1-1-3-1s-3,1-3,1v-7c0,0,1-1,3-1s3,1,3,1V28z"/><path d="M30.5,4.5h1v39h-1V4.5z" opacity=".05"/><linearGradient id="ptRnd_mwIKW39TZU_j4z1d" x1="30" x2="32" y1="24" y2="24" gradientUnits="userSpaceOnUse"><stop offset="0" stop-color="#0370c8"/><stop offset=".484" stop-color="#036fc5"/><stop offset=".775" stop-color="#036abd"/><stop offset="1" stop-color="#0362b0"/></linearGradient><rect width="2" height="40" x="30" y="4" fill="url(#ptRnd_mwIKW39TZU_j4z1d)"/></svg>