<svg xmlns="http://www.w3.org/2000/svg" viewBox="0 0 48 48"><path fill="#50e6ff" d="M21,4v14H9V4c0-0.552,0.448-1,1-1h10C20.552,3,21,3.448,21,4z"/><linearGradient id="5q8hsGQKvrLpMkZk5RLkPa" x1="36" x2="36" y1="12.959" y2="3.5" gradientUnits="userSpaceOnUse"><stop offset="0" stop-color="#42a3f2"/><stop offset="1" stop-color="#42a4eb"/></linearGradient><path fill="url(#5q8hsGQKvrLpMkZk5RLkPa)" d="M43,3H29c-0.552,0-1,0.448-1,1v8c0,0.552,0.448,1,1,1h14c0.552,0,1-0.448,1-1V4	C44,3.448,43.552,3,43,3z"/><linearGradient id="5q8hsGQKvrLpMkZk5RLkPb" x1="24" x2="24" y1="42" y2="36.054" gradientUnits="userSpaceOnUse"><stop offset="0" stop-color="#11408a"/><stop offset="1" stop-color="#103f8f"/></linearGradient><path fill="url(#5q8hsGQKvrLpMkZk5RLkPb)" d="M4,36.054V40c0,1.105,0.895,2,2,2h36c1.105,0,2-0.895,2-2v-3.946H4z"/><linearGradient id="5q8hsGQKvrLpMkZk5RLkPc" x1="24" x2="24" y1="62.054" y2="42" gradientTransform="rotate(180 24 39.027)" gradientUnits="userSpaceOnUse"><stop offset="0" stop-color="#3079d6"/><stop offset="1" stop-color="#297cd2"/></linearGradient><path fill="url(#5q8hsGQKvrLpMkZk5RLkPc)" d="M44,18v18.054H4V18c0-1.105,0.895-2,2-2h36C43.105,16,44,16.895,44,18z"/><linearGradient id="5q8hsGQKvrLpMkZk5RLkPd" x1="22" x2="26" y1="39" y2="39" gradientUnits="userSpaceOnUse"><stop offset="0" stop-color="#1d59b3"/><stop offset="1" stop-color="#195bbc"/></linearGradient><circle cx="24" cy="39" r="2" fill="url(#5q8hsGQKvrLpMkZk5RLkPd)"/><linearGradient id="5q8hsGQKvrLpMkZk5RLkPe" x1="12" x2="12" y1="7.464" y2="7.437" gradientUnits="userSpaceOnUse"><stop offset="0" stop-color="#42a3f2"/><stop offset="1" stop-color="#42a4eb"/></linearGradient><circle cx="12" cy="23" r="2" fill="url(#5q8hsGQKvrLpMkZk5RLkPe)"/><linearGradient id="5q8hsGQKvrLpMkZk5RLkPf" x1="18" x2="18" y1="7.464" y2="7.437" gradientUnits="userSpaceOnUse"><stop offset="0" stop-color="#42a3f2"/><stop offset="1" stop-color="#42a4eb"/></linearGradient><circle cx="18" cy="23" r="2" fill="url(#5q8hsGQKvrLpMkZk5RLkPf)"/><linearGradient id="5q8hsGQKvrLpMkZk5RLkPg" x1="24" x2="24" y1="7.464" y2="7.437" gradientUnits="userSpaceOnUse"><stop offset="0" stop-color="#42a3f2"/><stop offset="1" stop-color="#42a4eb"/></linearGradient><circle cx="24" cy="23" r="2" fill="url(#5q8hsGQKvrLpMkZk5RLkPg)"/><linearGradient id="5q8hsGQKvrLpMkZk5RLkPh" x1="30" x2="30" y1="7.464" y2="7.437" gradientUnits="userSpaceOnUse"><stop offset="0" stop-color="#42a3f2"/><stop offset="1" stop-color="#42a4eb"/></linearGradient><circle cx="30" cy="23" r="2" fill="url(#5q8hsGQKvrLpMkZk5RLkPh)"/><linearGradient id="5q8hsGQKvrLpMkZk5RLkPi" x1="15" x2="15" y1="13.464" y2="13.437" gradientUnits="userSpaceOnUse"><stop offset="0" stop-color="#42a3f2"/><stop offset="1" stop-color="#42a4eb"/></linearGradient><circle cx="15" cy="29" r="2" fill="url(#5q8hsGQKvrLpMkZk5RLkPi)"/><linearGradient id="5q8hsGQKvrLpMkZk5RLkPj" x1="21" x2="21" y1="13.464" y2="13.437" gradientUnits="userSpaceOnUse"><stop offset="0" stop-color="#42a3f2"/><stop offset="1" stop-color="#42a4eb"/></linearGradient><circle cx="21" cy="29" r="2" fill="url(#5q8hsGQKvrLpMkZk5RLkPj)"/><linearGradient id="5q8hsGQKvrLpMkZk5RLkPk" x1="27" x2="27" y1="13.464" y2="13.437" gradientUnits="userSpaceOnUse"><stop offset="0" stop-color="#42a3f2"/><stop offset="1" stop-color="#42a4eb"/></linearGradient><circle cx="27" cy="29" r="2" fill="url(#5q8hsGQKvrLpMkZk5RLkPk)"/><linearGradient id="5q8hsGQKvrLpMkZk5RLkPl" x1="36" x2="36" y1="7.464" y2="7.437" gradientUnits="userSpaceOnUse"><stop offset="0" stop-color="#42a3f2"/><stop offset="1" stop-color="#42a4eb"/></linearGradient><circle cx="36" cy="23" r="2" fill="url(#5q8hsGQKvrLpMkZk5RLkPl)"/><linearGradient id="5q8hsGQKvrLpMkZk5RLkPm" x1="33" x2="33" y1="13.464" y2="13.437" gradientUnits="userSpaceOnUse"><stop offset="0" stop-color="#42a3f2"/><stop offset="1" stop-color="#42a4eb"/></linearGradient><circle cx="33" cy="29" r="2" fill="url(#5q8hsGQKvrLpMkZk5RLkPm)"/><linearGradient id="5q8hsGQKvrLpMkZk5RLkPn" x1="33" x2="39" y1="14.5" y2="14.5" gradientUnits="userSpaceOnUse"><stop offset="0" stop-color="#1d59b3"/><stop offset="1" stop-color="#195bbc"/></linearGradient><rect width="6" height="3" x="33" y="13" fill="url(#5q8hsGQKvrLpMkZk5RLkPn)"/></svg>