<svg xmlns="http://www.w3.org/2000/svg" viewBox="0 0 48 48"><linearGradient id="7Zr_n0zs~4_3KKC4ezMi7a" x1="16.414" x2="29.362" y1="2.562" y2="18.93" gradientUnits="userSpaceOnUse"><stop offset="0" stop-color="#a1aab3"/><stop offset="1" stop-color="#8f979e"/></linearGradient><path fill="url(#7Zr_n0zs~4_3KKC4ezMi7a)" d="M33,20H15V5c0-1.105,0.895-2,2-2h14c1.105,0,2,0.895,2,2V20z"/><linearGradient id="7Zr_n0zs~4_3KKC4ezMi7b" x1="18.638" x2="30.135" y1="18.858" y2="30.751" gradientUnits="userSpaceOnUse"><stop offset="0" stop-color="#6d7479"/><stop offset="1" stop-color="#323538"/></linearGradient><path fill="url(#7Zr_n0zs~4_3KKC4ezMi7b)" d="M15,20h18v8c0,1.105-0.895,2-2,2H17c-1.105,0-2-0.895-2-2V20z"/><linearGradient id="7Zr_n0zs~4_3KKC4ezMi7c" x1="22.825" x2="25.43" y1="23.384" y2="26.967" gradientUnits="userSpaceOnUse"><stop offset="0" stop-color="#e96120"/><stop offset="1" stop-color="#cf410b"/></linearGradient><circle cx="24" cy="25" r="2.5" fill="url(#7Zr_n0zs~4_3KKC4ezMi7c)"/><linearGradient id="7Zr_n0zs~4_3KKC4ezMi7d" x1="24" x2="24" y1="36.985" y2="44.014" gradientUnits="userSpaceOnUse"><stop offset="0" stop-color="#484b4f"/><stop offset=".23" stop-color="#656d75"/><stop offset=".367" stop-color="#727d86"/></linearGradient><path fill="url(#7Zr_n0zs~4_3KKC4ezMi7d)" d="M31,40h-5v-3h-4v3h-5c-0.552,0-1,0.448-1,1v2c0,0.552,0.448,1,1,1h14c0.552,0,1-0.448,1-1v-2	C32,40.448,31.552,40,31,40z"/><linearGradient id="7Zr_n0zs~4_3KKC4ezMi7e" x1="22.306" x2="26.296" y1="16.977" y2="36.358" gradientUnits="userSpaceOnUse"><stop offset="0" stop-color="#a1aab3"/><stop offset="1" stop-color="#767d84"/></linearGradient><path fill="url(#7Zr_n0zs~4_3KKC4ezMi7e)" d="M35,17h-2v15c0,1.105-0.895,2-2,2H17c-1.105,0-2-0.895-2-2V17h-2c-0.552,0-1,0.448-1,1v14	c0,2.761,2.239,5,5,5h14c2.761,0,5-2.239,5-5V18C36,17.448,35.552,17,35,17z"/></svg>