<svg xmlns="http://www.w3.org/2000/svg" viewBox="0 0 48 48"><linearGradient id="TtiPZI13Ihrie03qJf9eUa" x1="20" x2="20" y1="-1.471" y2="10.448" gradientUnits="userSpaceOnUse"><stop offset="0" stop-color="#ffcf7b"/><stop offset=".196" stop-color="#fecd76"/><stop offset=".439" stop-color="#fac666"/><stop offset=".709" stop-color="#f3bc4d"/><stop offset=".995" stop-color="#eaad2a"/><stop offset="1" stop-color="#eaad29"/></linearGradient><path fill="url(#TtiPZI13Ihrie03qJf9eUa)" d="M16,13V3.917c0-0.886,1.239-1.255,1.809-0.538L24,11.17L16,13z"/><linearGradient id="TtiPZI13Ihrie03qJf9eUb" x1="36.406" x2="36.406" y1="-6.412" y2="25.662" gradientUnits="userSpaceOnUse"><stop offset="0" stop-color="#ffcf7b"/><stop offset=".196" stop-color="#fecd76"/><stop offset=".439" stop-color="#fac666"/><stop offset=".709" stop-color="#f3bc4d"/><stop offset=".995" stop-color="#eaad2a"/><stop offset="1" stop-color="#eaad29"/></linearGradient><path fill="url(#TtiPZI13Ihrie03qJf9eUb)" d="M30.75,11.071l9.202-7.831c0.593-0.504,1.509-0.172,1.638,0.593	C42.213,7.534,43.054,16.368,38,21C35.25,17.029,30.75,11.071,30.75,11.071z"/><linearGradient id="TtiPZI13Ihrie03qJf9eUc" x1="23" x2="23" y1="-6.412" y2="25.662" gradientUnits="userSpaceOnUse"><stop offset="0" stop-color="#ffcf7b"/><stop offset=".196" stop-color="#fecd76"/><stop offset=".439" stop-color="#fac666"/><stop offset=".709" stop-color="#f3bc4d"/><stop offset=".995" stop-color="#eaad2a"/><stop offset="1" stop-color="#eaad29"/></linearGradient><path fill="url(#TtiPZI13Ihrie03qJf9eUc)" d="M41,27c0,9.94-8.06,18-18,18S5,35,5,27c0-2.07,0.48-4.05,1.29-5.9H6.3C9.4,14.06,17.46,9,23,9	c1.37,0,2,0.5,3,1c9.11-2.73,14.07,6.51,14.88,14.66C40.96,25.45,41,26.24,41,27z"/><linearGradient id="TtiPZI13Ihrie03qJf9eUd" x1="25.5" x2="25.5" y1="16.765" y2="24.958" gradientUnits="userSpaceOnUse"><stop offset="0" stop-color="#4c4c4c"/><stop offset="1" stop-color="#343434"/></linearGradient><path fill="url(#TtiPZI13Ihrie03qJf9eUd)" d="M28.86,21.836c0.187-0.191,0.187-0.481,0-0.672C28.193,20.482,26.617,19,25.5,19	s-2.693,1.482-3.36,2.164c-0.187,0.191-0.187,0.481,0,0.672C22.807,22.518,24.383,24,25.5,24S28.193,22.518,28.86,21.836z"/><linearGradient id="TtiPZI13Ihrie03qJf9eUe" x1="13" x2="13" y1="16.765" y2="24.958" gradientUnits="userSpaceOnUse"><stop offset="0" stop-color="#4c4c4c"/><stop offset="1" stop-color="#343434"/></linearGradient><path fill="url(#TtiPZI13Ihrie03qJf9eUe)" d="M15,20c0-1.105-0.7-2-1.563-2c-0.64,0-1.763,1.099-2.302,1.668c-0.18,0.19-0.18,0.474,0,0.664	C11.673,20.901,12.796,22,13.437,22C14.3,22,15,21.105,15,20z"/><linearGradient id="TtiPZI13Ihrie03qJf9eUf" x1="23.5" x2="23.5" y1="52.971" y2="18.061" gradientUnits="userSpaceOnUse"><stop offset="0" stop-color="#ffda94"/><stop offset="1" stop-color="#fff0ce"/></linearGradient><path fill="url(#TtiPZI13Ihrie03qJf9eUf)" d="M42,27c0,9.94-9.06,18-19,18S5,35,5,27c0-2.07,0.48-4.05,1.29-5.9H6.3	c2.93,0.49,3.76,2.16,4.7,4.9c1,0.36,3.7,1,5,1c12,0,14-4,20-4c0.974,0,2.187,0.174,3.312,0.492	c1.562,0.441,2.686,1.862,2.688,3.486C42,26.985,42,26.992,42,27z"/><linearGradient id="TtiPZI13Ihrie03qJf9eUg" x1="16" x2="16" y1="27.647" y2="33.67" gradientUnits="userSpaceOnUse"><stop offset="0" stop-color="#4c4c4c"/><stop offset="1" stop-color="#343434"/></linearGradient><path fill="url(#TtiPZI13Ihrie03qJf9eUg)" d="M9,32.989c0,0,1.23-1.564,2.764-1.487c1.225,0.061,2.45,1.891,4.55,2.141	C19.814,34.06,23,33.052,23,33.052s-2.536,3.318-10.253,1.548C10.861,34.168,9,32.989,9,32.989z"/><linearGradient id="TtiPZI13Ihrie03qJf9eUh" x1="12.5" x2="12.5" y1="20.941" y2="30.506" gradientUnits="userSpaceOnUse"><stop offset="0" stop-color="#4c4c4c"/><stop offset="1" stop-color="#343434"/></linearGradient><path fill="url(#TtiPZI13Ihrie03qJf9eUh)" d="M16,27c0-1.381-2.343-2-4-2s-3,0.619-3,2s1.343,3,3,3S16,28.381,16,27z"/><linearGradient id="TtiPZI13Ihrie03qJf9eUi" x1="24" x2="26" y1="21.5" y2="21.5" gradientUnits="userSpaceOnUse"><stop offset="0" stop-color="#f9f9f9"/><stop offset=".966" stop-color="#c4c9cd"/><stop offset="1" stop-color="#c2c8cc"/></linearGradient><path fill="url(#TtiPZI13Ihrie03qJf9eUi)" d="M25,21.5c0-0.652,0.419-1.202,1-1.408C25.843,20.036,25.676,20,25.5,20	c-0.828,0-1.5,0.672-1.5,1.5s0.672,1.5,1.5,1.5c0.176,0,0.343-0.036,0.5-0.092C25.419,22.702,25,22.152,25,21.5z"/><linearGradient id="TtiPZI13Ihrie03qJf9eUj" x1="12" x2="13.25" y1="20" y2="20" gradientUnits="userSpaceOnUse"><stop offset="0" stop-color="#f9f9f9"/><stop offset=".966" stop-color="#c4c9cd"/><stop offset="1" stop-color="#c2c8cc"/></linearGradient><path fill="url(#TtiPZI13Ihrie03qJf9eUj)" d="M12.625,20c0-0.435,0.262-0.801,0.625-0.939C13.152,19.024,13.048,19,12.937,19	C12.42,19,12,19.448,12,20s0.42,1,0.937,1c0.11,0,0.214-0.024,0.313-0.061C12.887,20.801,12.625,20.435,12.625,20z"/></svg>