<svg xmlns="http://www.w3.org/2000/svg" viewBox="0 0 48 48"><linearGradient id="nZeLeZ1JaZqqUlrAtr~Qga" x1="21.344" x2="25.752" y1=".701" y2="38.444" gradientUnits="userSpaceOnUse"><stop offset="0" stop-color="#21ad64"/><stop offset="1" stop-color="#088242"/></linearGradient><path fill="url(#nZeLeZ1JaZqqUlrAtr~Qga)" d="M41,7H7C5.9,7,5,7.9,5,9v29h38V9C43,7.9,42.1,7,41,7z"/><path fill="#46494c" d="M43.5,42h-39C3.119,42,2,40.881,2,39.5v0C2,38.119,3.119,37,4.5,37h39c1.381,0,2.5,1.119,2.5,2.5v0 C46,40.881,44.881,42,43.5,42z"/><path fill="#fff" d="M38.5,37h-5c-0.828,0-1.5-0.672-1.5-1.5l0,0c0-0.828,0.672-1.5,1.5-1.5h5c0.828,0,1.5,0.672,1.5,1.5 l0,0C40,36.328,39.328,37,38.5,37z"/><polyline fill="none" stroke="#fff" stroke-linecap="round" stroke-linejoin="round" stroke-miterlimit="10" stroke-width="3" points="10.5,26.5 19.5,19.5 25,26 36.5,16.5"/></svg>