<svg xmlns="http://www.w3.org/2000/svg" viewBox="0 0 48 48"><linearGradient id="ULjKwli0hDJWZEbyzkJ5Ya" x1="20.846" x2="23.819" y1="19.314" y2="30.948" gradientUnits="userSpaceOnUse"><stop offset="0" stop-color="#1d59b3"/><stop offset="1" stop-color="#195bbc"/></linearGradient><path fill="url(#ULjKwli0hDJWZEbyzkJ5Ya)" d="M34.667,35H13.333v-5.333C13.333,23.776,18.109,19,24,19l0,0	c5.891,0,10.667,4.776,10.667,10.667V35z"/><linearGradient id="ULjKwli0hDJWZEbyzkJ5Yb" x1="22.78" x2="25.236" y1="4.285" y2="15.789" gradientUnits="userSpaceOnUse"><stop offset="0" stop-color="#1d59b3"/><stop offset="1" stop-color="#195bbc"/></linearGradient><circle cx="24" cy="10" r="6" fill="url(#ULjKwli0hDJWZEbyzkJ5Yb)"/><linearGradient id="ULjKwli0hDJWZEbyzkJ5Yc" x1="9" x2="39" y1="35" y2="35" gradientUnits="userSpaceOnUse"><stop offset="0" stop-color="#199ae0"/><stop offset="1" stop-color="#0782d8"/></linearGradient><path fill="url(#ULjKwli0hDJWZEbyzkJ5Yc)" d="M9,29h30l-1.721,10.329C37.118,40.293,36.283,41,35.306,41H12.694	c-0.978,0-1.812-0.707-1.973-1.671L9,29z"/><path fill="#3cf" d="M39,30H9c-0.552,0-1-0.448-1-1v-1c0-0.552,0.448-1,1-1h30c0.552,0,1,0.448,1,1v1	C40,29.552,39.552,30,39,30z"/></svg>