<svg xmlns="http://www.w3.org/2000/svg" viewBox="0 0 48 48"><path fill="#50e6ff" d="M39,16v25c0,1.105-0.895,2-2,2H11c-1.105,0-2-0.895-2-2V7c0-1.105,0.895-2,2-2h17L39,16z"/><path fill="#057093" d="M32.5,21h-17c-0.276,0-0.5-0.224-0.5-0.5v-1c0-0.276,0.224-0.5,0.5-0.5h17c0.276,0,0.5,0.224,0.5,0.5	v1C33,20.776,32.776,21,32.5,21z"/><path fill="#057093" d="M30.5,25h-15c-0.276,0-0.5-0.224-0.5-0.5v-1c0-0.276,0.224-0.5,0.5-0.5h15c0.276,0,0.5,0.224,0.5,0.5	v1C31,24.776,30.776,25,30.5,25z"/><path fill="#057093" d="M32.5,29h-17c-0.276,0-0.5-0.224-0.5-0.5v-1c0-0.276,0.224-0.5,0.5-0.5h17c0.276,0,0.5,0.224,0.5,0.5	v1C33,28.776,32.776,29,32.5,29z"/><path fill="#057093" d="M30.5,33h-15c-0.276,0-0.5-0.224-0.5-0.5v-1c0-0.276,0.224-0.5,0.5-0.5h15c0.276,0,0.5,0.224,0.5,0.5	v1C31,32.776,30.776,33,30.5,33z"/><linearGradient id="X5mvSxmxOaHjL5lPrnmrNa" x1="28.529" x2="33.6" y1="34.528" y2="39.6" gradientTransform="matrix(1 0 0 -1 0 50)" gradientUnits="userSpaceOnUse"><stop offset="0" stop-color="#3079d6"/><stop offset="1" stop-color="#297cd2"/></linearGradient><path fill="url(#X5mvSxmxOaHjL5lPrnmrNa)" d="M28,5v9c0,1.105,0.895,2,2,2h9L28,5z"/><path d="M39,19.602L23.101,35.504L21.868,40.4	c-0.111,0.442,0.29,0.843,0.732,0.732l4.897-1.233L39,28.394V19.602z" opacity=".05"/><path d="M39,20.309L23.941,35.371l-0.547,1.017l0,0h-0.001l-0.864,3.434	c-0.099,0.392,0.256,0.746,0.648,0.648l3.446-0.868l0,0l0,0l1.006-0.543L39,27.663V20.309z" opacity=".07"/><path fill="#c94f60" d="M42.781,22.141l-1.922-1.921c-0.292-0.293-0.768-0.293-1.061,0l-0.904,0.905l2.981,2.981l0.905-0.904	C43.073,22.908,43.073,22.434,42.781,22.141"/><path fill="#f0f0f0" d="M24.003,36.016L23,40l3.985-1.003l0.418-3.456L24.003,36.016z"/><path fill="#edbe00" d="M39.333,26.648L26.985,38.996l-2.981-2.981l12.348-12.348L39.333,26.648z"/><linearGradient id="X5mvSxmxOaHjL5lPrnmrNb" x1="39.112" x2="39.112" y1="28.688" y2="23.199" gradientTransform="matrix(1 0 0 -1 0 50)" gradientUnits="userSpaceOnUse"><stop offset="0" stop-color="#dedede"/><stop offset="1" stop-color="#d6d6d6"/></linearGradient><path fill="url(#X5mvSxmxOaHjL5lPrnmrNb)" d="M36.349,23.667l2.543-2.544l2.983,2.981l-2.543,2.544L36.349,23.667z"/><path fill="#787878" d="M23.508,37.985L23,40l2.014-0.508L23.508,37.985z"/></svg>