<svg xmlns="http://www.w3.org/2000/svg" viewBox="0 0 48 48"><linearGradient id="vfPU0T76EMdRxWVf_r9gLa" x1="11.27" x2="36.73" y1="2493.259" y2="2518.72" gradientTransform="translate(0 -2484)" gradientUnits="userSpaceOnUse"><stop offset="0" stop-color="#d43a02"/><stop offset="1" stop-color="#b9360c"/></linearGradient><path fill="url(#vfPU0T76EMdRxWVf_r9gLa)" d="M36.902,34.536c6.932-7.126,6.775-18.521-0.351-25.453S18.03,2.308,11.098,9.433	c-6.797,6.987-6.797,18.116,0,25.103c0.018,0.019,0.03,0.04,0.048,0.059l0.059,0.059c0.047,0.048,0.094,0.095,0.142,0.142	l11.239,11.239c0.781,0.781,2.047,0.781,2.828,0c0,0,0,0,0,0l11.239-11.239c0.048-0.047,0.095-0.094,0.142-0.142l0.059-0.059	C36.873,34.576,36.885,34.554,36.902,34.536z"/><path d="M24,26h8c1.105,0,2-0.895,2-2v-4c0-1.105-0.895-2-2-2h-8v-3.648	c0-1.336-1.616-2.006-2.561-1.061l-7.295,7.295c-0.781,0.781-0.781,2.047,0,2.828l7.295,7.295C22.384,31.654,24,30.985,24,29.648V26	z" opacity=".05"/><path d="M23.5,25.5H32c0.828,0,1.5-0.672,1.5-1.5v-4c0-0.828-0.672-1.5-1.5-1.5	h-8.5v-4.021c0-0.938-1.134-1.408-1.798-0.745l-7.13,7.129c-0.627,0.627-0.627,1.644,0,2.271l7.13,7.129	c0.663,0.663,1.798,0.194,1.798-0.745V25.5z" opacity=".07"/><path fill="#fff" d="M23,29.393V25h9c0.552,0,1-0.448,1-1v-4c0-0.552-0.448-1-1-1h-9v-4.393	c0-0.54-0.653-0.81-1.034-0.428l-6.964,6.964c-0.473,0.473-0.473,1.241,0,1.714l6.964,6.964C22.347,30.203,23,29.933,23,29.393z"/></svg>