<svg xmlns="http://www.w3.org/2000/svg" id="Layer_1" x="0" y="0" version="1.1" viewBox="0 0 48 48" xml:space="preserve"><path fill="#fec62d" d="M9,5h30c1.7,0,3,1.3,3,3v29H6V8C6,6.3,7.3,5,9,5z"/><linearGradient id="SVGID_1_" x1="24" x2="24" y1="655.936" y2="621.893" gradientTransform="matrix(1 0 0 -1 0 662)" gradientUnits="userSpaceOnUse"><stop offset="0" stop-color="#eba600"/><stop offset="1" stop-color="#c28200"/></linearGradient><path fill="url(#SVGID_1_)" d="M9,7h30c0.6,0,1,0.4,1,1v29H8V8C8,7.4,8.4,7,9,7z"/><radialGradient id="SVGID_2_" cx="38.346" cy="9.627" r="11.814" gradientUnits="userSpaceOnUse"><stop offset="0"/><stop offset="1" stop-opacity="0"/></radialGradient><path fill="url(#SVGID_2_)" d="M39,5H26.8c-0.6,1.4-0.9,3-0.9,4.6c0,6.7,5.4,12.1,12.1,12.1c1.4,0,2.7-0.3,4-0.7V8C42,6.3,40.7,5,39,5z"/><linearGradient id="SVGID_3_" x1="24" x2="24" y1="-310.929" y2="-299.307" gradientTransform="translate(0 342)" gradientUnits="userSpaceOnUse"><stop offset="0" stop-color="#ffd869"/><stop offset="1" stop-color="#fec52b"/></linearGradient><path fill="url(#SVGID_3_)" d="M41,31H30.7c-0.9,0-1.6,0.6-1.9,1.5c-0.6,2-2.5,3.5-4.8,3.5s-4.1-1.5-4.8-3.5c-0.3-0.9-1-1.5-1.9-1.5H7	c-0.6,0-1,0.4-1,1v8c0,1.7,1.3,3,3,3h30c1.7,0,3-1.3,3-3v-8C42,31.4,41.6,31,41,31z"/><linearGradient id="SVGID_4_" x1="31.189" x2="45.426" y1="476.774" y2="491.011" gradientTransform="translate(0 -474)" gradientUnits="userSpaceOnUse"><stop offset="0" stop-color="#889097"/><stop offset=".331" stop-color="#848c94"/><stop offset=".669" stop-color="#78828b"/><stop offset="1" stop-color="#64717c"/></linearGradient><path fill="url(#SVGID_4_)" d="M47.7,7.3c-1.2,0.2-2.4-0.4-3.1-1.5c-0.6-1.1-0.5-2.4,0.2-3.4c-1.1-1.1-2.5-1.9-4-2.3c-0.5,1.1-1.6,1.9-2.8,1.9	S35.6,1.1,35.2,0c-1.5,0.5-2.9,1.3-4,2.3c0.7,1,0.9,2.3,0.2,3.4c-0.6,1.1-1.9,1.7-3.1,1.5C28.1,8,28,8.8,28,9.6s0.1,1.6,0.3,2.3	c1.2-0.2,2.4,0.4,3.1,1.5c0.6,1.1,0.5,2.4-0.2,3.4c1.1,1.1,2.5,1.9,4,2.3c0.5-1.1,1.6-1.9,2.8-1.9s2.4,0.8,2.8,1.9	c1.5-0.5,2.9-1.3,4-2.3c-0.7-1-0.9-2.3-0.2-3.4c0.6-1.1,1.9-1.7,3.1-1.5c0.2-0.7,0.3-1.5,0.3-2.3S47.9,8,47.7,7.3z"/><linearGradient id="SVGID_5_" x1="41.484" x2="34.47" y1="487.069" y2="480.055" gradientTransform="translate(0 -474)" gradientUnits="userSpaceOnUse"><stop offset="0" stop-color="#fff"/><stop offset=".242" stop-color="#f2f2f2"/><stop offset="1" stop-color="#ccc"/></linearGradient><circle cx="38" cy="9.6" r="5" fill="url(#SVGID_5_)"/><linearGradient id="SVGID_6_" x1="35.193" x2="40.117" y1="480.778" y2="485.702" gradientTransform="translate(0 -474)" gradientUnits="userSpaceOnUse"><stop offset="0" stop-color="#0d61a9"/><stop offset=".363" stop-color="#0e5fa4"/><stop offset=".78" stop-color="#135796"/><stop offset="1" stop-color="#16528c"/></linearGradient><circle cx="38" cy="9.6" r="3" fill="url(#SVGID_6_)"/></svg>