<svg xmlns="http://www.w3.org/2000/svg" viewBox="0 0 48 48"><linearGradient id="qarCMjwwTzoPeima1znR6a" x1="24.939" x2="24.939" y1="6.426" y2="20.318" gradientUnits="userSpaceOnUse"><stop offset="0" stop-color="#6ee0ff"/><stop offset="1" stop-color="#1dcaf2"/></linearGradient><path fill="url(#qarCMjwwTzoPeima1znR6a)" d="M43.988,17.327l-16.315,7.121c-1.695,0.74-3.64,0.742-5.337,0.007L5.894,17.329	c-1.192-0.517-1.192-2.142,0-2.658l16.442-7.126c1.697-0.736,3.642-0.733,5.337,0.007l16.315,7.121	C45.175,15.191,45.175,16.809,43.988,17.327z"/><linearGradient id="qarCMjwwTzoPeima1znR6b" x1="24.939" x2="24.939" y1="25.455" y2="37.658" gradientUnits="userSpaceOnUse"><stop offset="0" stop-color="#aad13d"/><stop offset="1" stop-color="#84a528"/></linearGradient><path fill="url(#qarCMjwwTzoPeima1znR6b)" d="M43.988,23.673L39.011,21.5l-11.337,4.948	c-1.695,0.74-3.64,0.742-5.338,0.007L10.903,21.5l-5.009,2.171c-1.192,0.517-1.192,2.142,0,2.658l16.442,7.126	c1.697,0.736,3.642,0.733,5.338-0.007l16.314-7.121C45.175,25.809,45.175,24.191,43.988,23.673z"/><linearGradient id="qarCMjwwTzoPeima1znR6c" x1="24.939" x2="24.939" y1="31.965" y2="39.169" gradientUnits="userSpaceOnUse"><stop offset="0" stop-color="#ffa188"/><stop offset="1" stop-color="#ff6f3d"/></linearGradient><path fill="url(#qarCMjwwTzoPeima1znR6c)" d="M43.988,32.673L39.011,30.5l-11.337,4.948	c-1.695,0.74-3.64,0.742-5.338,0.007L10.903,30.5l-5.009,2.171c-1.192,0.517-1.192,2.142,0,2.658l16.442,7.126	c1.698,0.736,3.643,0.733,5.339-0.007l16.314-7.121C45.175,34.809,45.175,33.191,43.988,32.673z"/></svg>