<svg xmlns="http://www.w3.org/2000/svg" viewBox="0 0 48 48"><path fill="#50e6ff" d="M39,16v25c0,1.105-0.895,2-2,2H11c-1.105,0-2-0.895-2-2V7c0-1.105,0.895-2,2-2h17L39,16z"/><linearGradient id="uqCiXv3mI5F0aamGOCZbUa" x1="28.529" x2="33.6" y1="102.528" y2="107.6" gradientTransform="matrix(1 0 0 -1 0 118)" gradientUnits="userSpaceOnUse"><stop offset="0" stop-color="#3079d6"/><stop offset="1" stop-color="#297cd2"/></linearGradient><path fill="url(#uqCiXv3mI5F0aamGOCZbUa)" d="M28,5v9c0,1.105,0.895,2,2,2h9L28,5z"/><linearGradient id="uqCiXv3mI5F0aamGOCZbUb" x1="-254.646" x2="-254.646" y1="144.319" y2="157.739" gradientTransform="rotate(180 -107.823 94.823)" gradientUnits="userSpaceOnUse"><stop offset="0" stop-color="#c965eb"/><stop offset="1" stop-color="#c767e5"/></linearGradient><path fill="url(#uqCiXv3mI5F0aamGOCZbUb)" d="M44.393,39H41v-6c0-0.552-0.448-1-1-1h-2c-0.552,0-1,0.448-1,1v6h-3.393	c-0.54,0-0.81,0.653-0.428,1.034l4.964,4.964c0.473,0.473,1.241,0.473,1.714,0l4.964-4.964C45.203,39.653,44.933,39,44.393,39z"/><linearGradient id="uqCiXv3mI5F0aamGOCZbUc" x1="15" x2="30.551" y1="90" y2="90" gradientTransform="matrix(1 0 0 -1 0 118)" gradientUnits="userSpaceOnUse"><stop offset="0" stop-color="#42a3f2"/><stop offset="1" stop-color="#42a4eb"/></linearGradient><path fill="url(#uqCiXv3mI5F0aamGOCZbUc)" d="M24,19c-4.949,0-9,4.051-9,9s4.051,9,9,9c2.6,0,4.949-1.1,6.551-2.849L24,28V19z"/><linearGradient id="uqCiXv3mI5F0aamGOCZbUd" x1="24" x2="33" y1="94.5" y2="94.5" gradientTransform="matrix(1 0 0 -1 0 118)" gradientUnits="userSpaceOnUse"><stop offset="0" stop-color="#3079d6"/><stop offset="1" stop-color="#297cd2"/></linearGradient><path fill="url(#uqCiXv3mI5F0aamGOCZbUd)" d="M33,28c0-4.949-4.051-9-9-9v9H33z"/><linearGradient id="uqCiXv3mI5F0aamGOCZbUe" x1="24" x2="33" y1="86.925" y2="86.925" gradientTransform="matrix(1 0 0 -1 0 118)" gradientUnits="userSpaceOnUse"><stop offset="0" stop-color="#1d59b3"/><stop offset="1" stop-color="#195bbc"/></linearGradient><path fill="url(#uqCiXv3mI5F0aamGOCZbUe)" d="M24,28l6.551,6.151C32.051,32.551,33,30.4,33,28H24z"/></svg>