<svg xmlns="http://www.w3.org/2000/svg" viewBox="0 0 48 48"><linearGradient id="je18g~_7AFCUy8V9KqK7ua" x1="94" x2="94" y1="491.013" y2="484.988" gradientTransform="rotate(180 59 263)" gradientUnits="userSpaceOnUse"><stop offset="0" stop-color="#a1aab3"/><stop offset="1" stop-color="#8f979e"/></linearGradient><path fill="url(#je18g~_7AFCUy8V9KqK7ua)" d="M14,38v-3h20v3l13,0.335V40c0,0.552-0.448,1-1,1H2c-0.552,0-1-0.448-1-1v-1.419L14,38z"/><linearGradient id="je18g~_7AFCUy8V9KqK7ub" x1="8.364" x2="38.396" y1="518.692" y2="493.353" gradientTransform="matrix(1 0 0 -1 0 526)" gradientUnits="userSpaceOnUse"><stop offset="0" stop-color="#a1aab3"/><stop offset="1" stop-color="#8f979e"/></linearGradient><path fill="url(#je18g~_7AFCUy8V9KqK7ub)" d="M42,34H6c-1.105,0-2-0.895-2-2V9c0-1.105,0.895-2,2-2h36c1.105,0,2,0.895,2,2v23	C44,33.105,43.105,34,42,34z"/><radialGradient id="je18g~_7AFCUy8V9KqK7uc" cx="17.957" cy="517.317" r="83.03" gradientTransform="matrix(.8095 0 0 -.7188 33.906 428.702)" gradientUnits="userSpaceOnUse"><stop offset=".323" stop-color="#23d9d6"/><stop offset=".427" stop-color="#23d4d7"/><stop offset=".542" stop-color="#21c7dc"/><stop offset=".664" stop-color="#1fb0e2"/><stop offset=".789" stop-color="#1c91ec"/><stop offset=".917" stop-color="#1969f8"/><stop offset=".944" stop-color="#1860fb"/></radialGradient><rect width="36" height="23" x="6" y="9" fill="url(#je18g~_7AFCUy8V9KqK7uc)"/><linearGradient id="je18g~_7AFCUy8V9KqK7ud" x1="24" x2="24" y1="492.011" y2="486.99" gradientTransform="matrix(1 0 0 -1 0 526)" gradientUnits="userSpaceOnUse"><stop offset="0" stop-color="#484b4f"/><stop offset=".028" stop-color="#565b61"/><stop offset=".066" stop-color="#626a72"/><stop offset=".114" stop-color="#6b757d"/><stop offset=".181" stop-color="#717b84"/><stop offset=".367" stop-color="#727d86"/></linearGradient><path fill="url(#je18g~_7AFCUy8V9KqK7ud)" d="M46.909,38.335l-2.867-3.584C43.663,34.276,43.088,34,42.481,34H5.519	c-0.608,0-1.182,0.276-1.562,0.751L1.09,38.335C0.876,38.603,1.067,39,1.41,39h14.966c0.382,0,0.73-0.217,0.898-0.56l0.431-0.88	c0.168-0.343,0.516-0.56,0.898-0.56h10.793c0.382,0,0.73,0.217,0.898,0.56l0.431,0.88c0.168,0.343,0.516,0.56,0.898,0.56H46.59	C46.933,39,47.124,38.603,46.909,38.335z"/><radialGradient id="je18g~_7AFCUy8V9KqK7ue" cx="37.14" cy="10.91" r="11.483" gradientTransform="matrix(1.0105 0 0 1 -.274 0)" gradientUnits="userSpaceOnUse"><stop offset="0"/><stop offset=".979" stop-opacity="0"/></radialGradient><path fill="url(#je18g~_7AFCUy8V9KqK7ue)" d="M42.105,7H26.663C26.242,8.175,26,9.434,26,10.75C26,16.953,31.1,22,37.368,22	c2.476,0,4.763-0.796,6.632-2.131V8.875C44,7.839,43.152,7,42.105,7z"/><linearGradient id="je18g~_7AFCUy8V9KqK7uf" x1="30.929" x2="45.071" y1="-854.929" y2="-869.071" gradientTransform="matrix(1 0 0 -1 0 -852)" gradientUnits="userSpaceOnUse"><stop offset="0" stop-color="#21ad64"/><stop offset="1" stop-color="#088242"/></linearGradient><path fill="url(#je18g~_7AFCUy8V9KqK7uf)" d="M48,10c0,5.522-4.478,10-10,10s-10-4.478-10-10S32.478,0,38,0S48,4.478,48,10z"/><path fill="#fff" d="M36.646,14.354l-4-4c-0.195-0.195-0.195-0.512,0-0.707l0.707-0.707c0.195-0.195,0.512-0.195,0.707,0	L37,11.879l5.439-5.439c0.195-0.195,0.512-0.195,0.707,0l0.707,0.707c0.195,0.195,0.195,0.512,0,0.707l-6.5,6.5	C37.158,14.549,36.842,14.549,36.646,14.354z"/></svg>