<svg xmlns="http://www.w3.org/2000/svg" viewBox="0 0 48 48"><linearGradient id="8niR2Cf1R~8OU3MLF8ldda" x1="24" x2="24" y1="3" y2="43.652" gradientUnits="userSpaceOnUse"><stop offset="0" stop-color="#889097"/><stop offset="1" stop-color="#64717c"/></linearGradient><path fill="url(#8niR2Cf1R~8OU3MLF8ldda)" d="M38,34c0-1.484,3.417-5.008,3.417-8.833C41.417,14.544,36,3,24,3S7,15,7,26 c0,3.825,4,8.516,4,10s-5,3.147-5,4.833C6,42.52,8,43,9.75,43h28.5C40,43,42,41.686,42,40C42,38.314,38,35.484,38,34z"/><linearGradient id="8niR2Cf1R~8OU3MLF8lddb" x1="21.559" x2="27.628" y1="8.933" y2="39.044" gradientUnits="userSpaceOnUse"><stop offset="0" stop-color="#fcfcfc"/><stop offset="1" stop-color="#c3c9cd"/></linearGradient><path fill="url(#8niR2Cf1R~8OU3MLF8lddb)" d="M34,16c0,0-1.689-9-10-9s-10,9-10,9s-3,1.585-3,5c0,3.815,3.118,5.199,4,6	c3.963,3.6,3,14,9,14s5.037-10.4,9-14c0.882-0.801,4-2.185,4-6C37,17.585,34,16,34,16z"/><linearGradient id="8niR2Cf1R~8OU3MLF8lddc" x1="23.994" x2="24.055" y1="25.311" y2="20.766" gradientUnits="userSpaceOnUse"><stop offset="0" stop-color="#6d7479"/><stop offset=".019" stop-color="#686e73"/><stop offset=".105" stop-color="#54595d"/><stop offset=".207" stop-color="#45494c"/><stop offset=".333" stop-color="#3a3d41"/><stop offset=".51" stop-color="#34373a"/><stop offset="1" stop-color="#323538"/></linearGradient><path fill="url(#8niR2Cf1R~8OU3MLF8lddc)" d="M25.867,25.286c0.95,0-0.781-4.452-1.868-4.452c-1.088,0-2.723,4.452-1.932,4.452	c0.95,0,1.458-0.972,1.933-0.972S25.233,25.286,25.867,25.286z"/><linearGradient id="8niR2Cf1R~8OU3MLF8lddd" x1="24.158" x2="23.973" y1="38.004" y2="27.73" gradientUnits="userSpaceOnUse"><stop offset="0" stop-color="#6d7479"/><stop offset=".019" stop-color="#686e73"/><stop offset=".105" stop-color="#54595d"/><stop offset=".207" stop-color="#45494c"/><stop offset=".333" stop-color="#3a3d41"/><stop offset=".51" stop-color="#34373a"/><stop offset="1" stop-color="#323538"/></linearGradient><path fill="url(#8niR2Cf1R~8OU3MLF8lddd)" d="M20.833,29.23c0,1.561,1.346,1.499,1.504,3.874c0,2.533,0.712,5.146,1.663,5.146	c1.108,0,1.662-2.138,1.821-4.671c0.158-3.325,1.346-3.111,1.346-4.349c0-0.624-1.188-2.063-3.087-2.063S20.833,28.28,20.833,29.23z"/><linearGradient id="8niR2Cf1R~8OU3MLF8ldde" x1="29.071" x2="28.949" y1="22.495" y2="14.807" gradientUnits="userSpaceOnUse"><stop offset="0" stop-color="#6d7479"/><stop offset=".019" stop-color="#686e73"/><stop offset=".105" stop-color="#54595d"/><stop offset=".207" stop-color="#45494c"/><stop offset=".333" stop-color="#3a3d41"/><stop offset=".51" stop-color="#34373a"/><stop offset="1" stop-color="#323538"/></linearGradient><path fill="url(#8niR2Cf1R~8OU3MLF8ldde)" d="M30.3,22.417c1.279,0,2.557-1.279,1.989-2.7c-0.426-0.711-1.137-0.852-1.848-1.137	c-0.994-0.568-1.848-1.42-2.274-2.557c-0.426-0.852-0.994-1.848-1.848-1.42c-1.279,0.568-0.568,2.985-0.283,3.979	C26.89,20.569,28.169,22.417,30.3,22.417z"/><linearGradient id="8niR2Cf1R~8OU3MLF8lddf" x1="18.961" x2="19.022" y1="22.521" y2="14.559" gradientUnits="userSpaceOnUse"><stop offset="0" stop-color="#6d7479"/><stop offset=".019" stop-color="#686e73"/><stop offset=".105" stop-color="#54595d"/><stop offset=".207" stop-color="#45494c"/><stop offset=".333" stop-color="#3a3d41"/><stop offset=".51" stop-color="#34373a"/><stop offset="1" stop-color="#323538"/></linearGradient><path fill="url(#8niR2Cf1R~8OU3MLF8lddf)" d="M21.962,18.58c0.283-0.994,0.994-3.411-0.283-3.979c-0.852-0.426-1.42,0.568-1.848,1.42	c-0.426,1.137-1.279,1.989-2.274,2.557c-0.711,0.283-1.42,0.426-1.848,1.137c-0.567,1.422,0.711,2.701,1.99,2.701	C19.831,22.417,21.11,20.569,21.962,18.58z"/></svg>