<svg xmlns="http://www.w3.org/2000/svg" viewBox="0 0 48 48"><path fill="#751b0b" d="M10.006,20.904c-0.339-0.131-0.484-0.219-0.697-0.329l-0.567-0.321 c-0.367-0.217-0.718-0.447-1.061-0.684c-0.685-0.475-1.334-0.997-1.946-1.57c-1.208-1.128-2.326-2.519-2.951-4.076 c-0.624-1.512-0.857-3.086-0.782-4.557c0.06-1.126,0.272-2.205,0.635-3.2c0.088-0.241,0.441-0.213,0.483,0.04 c0.167,1,0.49,1.944,0.914,2.788c0.557,1.104,1.315,2.015,2.187,2.673c0.875,0.687,1.868,1.074,2.973,1.353 c0.448,0.113,0.906,0.193,1.366,0.245c0.27,0.03,0.538,0.053,0.802,0.063c0.129,0.004,0.256,0.008,0.376,0.004 c0.103-0.006,0.276,0.001,0.258-0.043L10.006,20.904z"/><path fill="#751b0b" d="M35.982,13.291c-0.018,0.044,0.156,0.037,0.258,0.043c0.12,0.004,0.247,0,0.376-0.004 c0.258-0.01,0.523-0.032,0.789-0.062c0.461-0.051,0.92-0.131,1.37-0.244c1.108-0.279,2.103-0.666,2.981-1.355 c0.872-0.657,1.63-1.569,2.187-2.673c0.424-0.845,0.747-1.789,0.914-2.789c0.042-0.253,0.395-0.281,0.483-0.04 c0.362,0.994,0.574,2.073,0.635,3.198c0.075,1.471-0.158,3.046-0.782,4.557c-0.625,1.556-1.743,2.948-2.951,4.077 c-0.612,0.573-1.261,1.095-1.946,1.57c-0.343,0.237-0.694,0.466-1.061,0.684l-0.567,0.321c-0.213,0.11-0.358,0.198-0.697,0.329 L35.982,13.291z"/><path fill="#33c481" d="M33.512,42H14.488c-4.959,0-8.723-4.464-7.885-9.352c0,0,1.222-10.223,1.397-13.648 c0.408-7.99,8.341-14,15.647-14h0.705C31.659,5,39.592,11.01,40,19c0.175,3.425,1.397,13.648,1.397,13.648 C42.235,37.536,38.47,42,33.512,42z"/><circle cx="17.5" cy="18.5" r="4.5" fill="#f7c13a"/><linearGradient id="FS4ldajpOagr5aRaijDkCa" x1="17.5" x2="17.5" y1="16" y2="21" gradientUnits="userSpaceOnUse"><stop offset="0" stop-color="#5e5e5e"/><stop offset="1" stop-color="#545454"/></linearGradient><circle cx="17.5" cy="18.5" r="2.5" fill="url(#FS4ldajpOagr5aRaijDkCa)"/><circle cx="30.5" cy="18.5" r="4.5" fill="#f7c13a"/><linearGradient id="FS4ldajpOagr5aRaijDkCb" x1="24" x2="24" y1="27" y2="37.003" gradientUnits="userSpaceOnUse"><stop offset="0" stop-color="#5e5e5e"/><stop offset="1" stop-color="#545454"/></linearGradient><path fill="url(#FS4ldajpOagr5aRaijDkCb)" d="M36,35c0,4.485-5.373,0-12,0s-12,4.507-12,0c0-4,5.373-8,12-8S36,31,36,35z"/><path fill="#b31523" d="M24,35c2.925,0,5.603,0.872,7.685,1.463c-0.678-2.006-2.543-3.46-4.779-3.46 c-1.084,0-2.084,0.344-2.909,0.921c-0.825-0.577-1.825-0.921-2.909-0.921c-2.239,0-4.111,1.46-4.787,3.471 C18.385,35.881,21.068,35,24,35z"/><linearGradient id="FS4ldajpOagr5aRaijDkCc" x1="30.5" x2="30.5" y1="16" y2="21" gradientUnits="userSpaceOnUse"><stop offset="0" stop-color="#5e5e5e"/><stop offset="1" stop-color="#545454"/></linearGradient><circle cx="30.5" cy="18.5" r="2.5" fill="url(#FS4ldajpOagr5aRaijDkCc)"/><path fill="#fff" d="M19,29.961v-2.169c-1.042,0.344-2.008,0.788-2.863,1.306c0.334,0.536,0.722,1.1,1.142,1.576 C17.882,31.36,19,30.887,19,29.961z"/><path fill="#fff" d="M30.722,30.674c0.419-0.476,0.805-1.041,1.139-1.578c-0.856-0.518-1.819-0.96-2.861-1.304v2.169 C29,30.887,30.118,31.36,30.722,30.674z"/><path fill="#fff" d="M14.125,33.865c-0.172,0.851-0.2,1.903,0.132,3.09c0.827-0.105,1.843-0.411,3.016-0.751 c-0.578-0.761-1.1-1.893-1.388-2.578C15.489,32.682,14.333,32.84,14.125,33.865z"/><path fill="#fff" d="M33.873,33.865c-0.208-1.025-1.363-1.183-1.76-0.239c-0.287,0.684-0.813,1.809-1.39,2.57 c1.172,0.338,2.18,0.639,3.016,0.749C34.069,35.763,34.045,34.714,33.873,33.865z"/><path fill="#12945a" d="M16,40.01c0.994-1.074,2.323-1.769,3.693-2.251c1.381-0.469,2.846-0.712,4.307-0.713 c1.461-0.002,2.926,0.242,4.308,0.711c1.37,0.481,2.7,1.178,3.692,2.254c-2.779-0.67-5.358-0.96-8-0.965 C21.358,39.045,18.777,39.336,16,40.01z"/><linearGradient id="FS4ldajpOagr5aRaijDkCd" x1="17.5" x2="17.5" y1="19.001" y2="12" gradientUnits="userSpaceOnUse"><stop offset=".108" stop-color="#0d7044"/><stop offset=".433" stop-color="#11945a"/></linearGradient><path fill="url(#FS4ldajpOagr5aRaijDkCd)" d="M20.999,19.001c-0.263,0-0.53-0.053-0.787-0.163l-7-3c-1.016-0.435-1.486-1.61-1.051-2.626 c0.436-1.014,1.612-1.484,2.626-1.05l7,3c1.016,0.435,1.486,1.61,1.051,2.626C22.513,18.546,21.775,19.001,20.999,19.001z"/><linearGradient id="FS4ldajpOagr5aRaijDkCe" x1="30.5" x2="30.5" y1="19.001" y2="11.999" gradientUnits="userSpaceOnUse"><stop offset=".108" stop-color="#0d7044"/><stop offset=".433" stop-color="#11945a"/></linearGradient><path fill="url(#FS4ldajpOagr5aRaijDkCe)" d="M27.001,19.001c-0.776,0-1.514-0.455-1.839-1.213c-0.435-1.016,0.035-2.191,1.051-2.626l7-3 c1.014-0.437,2.19,0.035,2.626,1.05c0.435,1.016-0.035,2.191-1.051,2.626l-7,3C27.531,18.948,27.264,19.001,27.001,19.001z"/><circle cx="20.5" cy="9.5" r="1.5" fill="#12945a"/><circle cx="27" cy="11" r="1" fill="#12945a"/><circle cx="11" cy="26" r="1" fill="#12945a"/><circle cx="16" cy="26" r="1" fill="#12945a"/><circle cx="10" cy="31" r="1" fill="#12945a"/><circle cx="35.5" cy="26.5" r="1.5" fill="#12945a"/><circle cx="38" cy="30" r="1" fill="#12945a"/></svg>