<svg xmlns="http://www.w3.org/2000/svg" viewBox="0 0 48 48"><linearGradient id="YXa7vADgyCMG3Uy79VxAza" x1="23.793" x2="23.973" y1="28.526" y2="16.35" gradientTransform="matrix(1 0 0 -1 0 48)" gradientUnits="userSpaceOnUse"><stop offset=".617" stop-color="#92a3b0"/><stop offset=".71" stop-color="#a1b3c2"/><stop offset=".809" stop-color="#adc0d0"/><stop offset=".897" stop-color="#b2c6d6"/></linearGradient><path fill="url(#YXa7vADgyCMG3Uy79VxAza)" d="M10,26h5v15c0,0.552-0.448,1-1,1h-3c-0.552,0-1-0.448-1-1V26z M33,26h5v15	c0,0.552-0.448,1-1,1h-3c-0.552,0-1-0.448-1-1V26z"/><linearGradient id="YXa7vADgyCMG3Uy79VxAzb" x1="-3.99" x2="33.313" y1="52.406" y2="22.545" gradientTransform="matrix(1 0 0 -1 0 48)" gradientUnits="userSpaceOnUse"><stop offset="0" stop-color="#fcfcfc"/><stop offset=".444" stop-color="#f4f4f4"/><stop offset=".809" stop-color="#e8e8e8"/><stop offset="1" stop-color="#e8e8e8"/></linearGradient><path fill="url(#YXa7vADgyCMG3Uy79VxAzb)" d="M45,9H3c-1.104,0-2,0.896-2,2v14c0,1.104,0.896,2,2,2h42c1.104,0,2-0.896,2-2V11	C47,9.896,46.104,9,45,9L45,9z"/><linearGradient id="YXa7vADgyCMG3Uy79VxAzc" x1="18.465" x2="37.646" y1="40.409" y2="4.335" gradientTransform="matrix(1 0 0 -1 0 48)" gradientUnits="userSpaceOnUse"><stop offset="0" stop-color="#f44f5a"/><stop offset=".443" stop-color="#ee3d4a"/><stop offset=".843" stop-color="#e52030"/></linearGradient><path fill="url(#YXa7vADgyCMG3Uy79VxAzc)" d="M45,9H3c-1.1,0-2,0.9-2,2v14c0,1.1,0.9,2,2,2h42c1.1,0,2-0.9,2-2V11C47,9.9,46.1,9,45,9z M4,12h9.21L4,23.73V12z M9.79,24l9.42-12h6.5l-9.42,12H9.79z M22.29,24l9.42-12h6.5l-9.42,12H22.29z M44,24h-9.21L44,12.27V24z"/></svg>