<svg xmlns="http://www.w3.org/2000/svg" viewBox="0 0 48 48"><path fill="#edbe00" d="M43,36H29V14h10.559c0.86,0,1.625,0.551,1.897,1.368L45,26v8C45,35.105,44.105,36,43,36"/><linearGradient id="QKoa9rbvUyJEy9ngFNRxXa" x1="6.441" x2="24.98" y1="-296.868" y2="-325.245" gradientTransform="matrix(1 0 0 -1 0 -290)" gradientUnits="userSpaceOnUse"><stop offset="0" stop-color="#bd4ff4"/><stop offset=".587" stop-color="#a235ec"/><stop offset="1" stop-color="#8c20e5"/></linearGradient><path fill="url(#QKoa9rbvUyJEy9ngFNRxXa)" d="M29,36H5c-1.105,0-2-0.895-2-2V9c0-1.105,0.895-2,2-2h22c1.105,0,2,0.895,2,2V36z"/><path fill="#586169" d="M42,36c0,2.761-2.238,5-5,5s-5-2.239-5-5s2.238-5,5-5S42,33.239,42,36"/><path fill="#586169" d="M18,36c0,2.761-2.239,5-5,5s-5-2.239-5-5s2.239-5,5-5S18,33.239,18,36"/><path fill="#999" d="M39,36c0,1.105-0.895,2-2,2s-2-0.895-2-2s0.895-2,2-2S39,34.895,39,36"/><path fill="#999" d="M15,36c0,1.105-0.895,2-2,2s-2-0.895-2-2s0.895-2,2-2S15,34.895,15,36"/><path fill="#ad8b00" d="M41,25h-7c-0.552,0-1-0.448-1-1v-7c0-0.552,0.448-1,1-1h5c0.432,0,0.813,0.275,0.949,0.684l2,6	C41.982,22.786,42,22.893,42,23v1C42,24.552,41.552,25,41,25"/><path d="M25.828,21.903v-1.808h0.147v-3.101h-4.564h-0.899h-4.564v0.808c-0.465-0.455-1.22-0.808-2.456-0.808	h-2.133h-1.012h-4.46V25H9.24v-2.332h1.106V25H13.7v-0.938L14.267,25h1.681h2.265h2.3h1.037h4.564v-3.097H25.828z" opacity=".05"/><path d="M23.364,22.403V22.03h1.964v-2.099h-1.964v-0.336h2.111v-2.101h-4.464v4.908h-2.211V22.03h1.964	v-2.099h-1.964v-0.336h2.11v-2.101h-4.464v5.673l-0.773-1.209c-0.063-0.102-0.136-0.205-0.222-0.323	c-0.063-0.08-0.125-0.159-0.189-0.231c0.165-0.115,0.31-0.249,0.431-0.397c0.149-0.18,0.27-0.39,0.358-0.63	c0.084-0.233,0.126-0.485,0.126-0.749c0-0.797-0.349-2.133-2.687-2.133h-2.633h-0.012h-4.46V24.5H8.74v-2.332h1.947v-2.099H8.74	v-0.474h2.106V24.5H13.2v-2.186c0.028,0.033,0.058,0.071,0.087,0.114c0.058,0.082,0.117,0.175,0.182,0.285l1.08,1.786h1.898h0.852	h3.713h0.037h4.564v-2.097H23.364z M13.642,20.065c-0.052,0.049-0.145,0.114-0.355,0.114H13.2v-0.672h0.11	c0.443,0,0.443,0.127,0.443,0.287C13.754,19.91,13.721,19.991,13.642,20.065z" opacity=".07"/><path fill="#fff" d="M10.358,19.095H8.24v1.474h1.947v1.098H8.24V24H6.887v-6.005h3.471V19.095z"/><path fill="#fff" d="M16.385,24h-1.554l-0.934-1.545c-0.069-0.117-0.136-0.221-0.201-0.315	c-0.063-0.091-0.128-0.171-0.194-0.236s-0.134-0.115-0.205-0.151c-0.073-0.035-0.149-0.052-0.233-0.052H12.7V24h-1.353v-6.005h2.144	c1.457,0,2.187,0.543,2.187,1.632c0,0.21-0.034,0.404-0.097,0.581c-0.065,0.177-0.154,0.337-0.272,0.478	c-0.117,0.143-0.259,0.266-0.426,0.369c-0.166,0.104-0.35,0.184-0.555,0.244v0.017c0.089,0.028,0.177,0.073,0.261,0.136	c0.084,0.063,0.164,0.136,0.242,0.22c0.078,0.084,0.153,0.175,0.225,0.27c0.071,0.097,0.136,0.192,0.194,0.283L16.385,24z M12.7,19.008v1.671h0.586c0.29,0,0.523-0.084,0.7-0.251c0.179-0.169,0.268-0.382,0.268-0.633c0-0.525-0.315-0.787-0.944-0.787H12.7	z"/><path fill="#fff" d="M20.549,24h-3.602v-6.005h3.464v1.1h-2.111v1.336h1.964v1.098h-1.964v1.374h2.248V24z"/><path fill="#fff" d="M25.113,24h-3.602v-6.005h3.464v1.1h-2.111v1.336h1.964v1.098h-1.964v1.374h2.248V24z"/></svg>