<svg xmlns="http://www.w3.org/2000/svg" viewBox="0 0 48 48"><linearGradient id="N6~0Byn8qOfkTqtGjds4ga" x1="6" x2="42" y1="-1798" y2="-1798" gradientTransform="matrix(1 0 0 -1 0 -1756)" gradientUnits="userSpaceOnUse"><stop offset="0" stop-color="#c8d3de"/><stop offset="1" stop-color="#c8d3de"/></linearGradient><path fill="url(#N6~0Byn8qOfkTqtGjds4ga)" d="M42,40H6v2c0,1.105,0.895,2,2,2h32c1.105,0,2-0.895,2-2V40z"/><linearGradient id="N6~0Byn8qOfkTqtGjds4gb" x1="14.095" x2="31.385" y1="-1767.338" y2="-1800.787" gradientTransform="matrix(1 0 0 -1 0 -1756)" gradientUnits="userSpaceOnUse"><stop offset="0" stop-color="#fcfcfc"/><stop offset=".495" stop-color="#f4f4f4"/><stop offset=".946" stop-color="#e8e8e8"/><stop offset="1" stop-color="#e8e8e8"/></linearGradient><path fill="url(#N6~0Byn8qOfkTqtGjds4gb)" d="M42,40H6V21L24,4l18,17V40z"/><path fill="#de490d" d="M19,26h10c0.552,0,1,0.448,1,1v17H18V27C18,26.448,18.448,26,19,26z"/><radialGradient id="N6~0Byn8qOfkTqtGjds4gc" cx="37.319" cy="37.298" r="11.095" gradientUnits="userSpaceOnUse"><stop offset="0"/><stop offset="1" stop-opacity="0"/></radialGradient><path fill="url(#N6~0Byn8qOfkTqtGjds4gc)" d="M38,26c-6.617,0-12,5.383-12,12c0,2.187,0.598,4.233,1.624,6H40c1.105,0,2-0.895,2-2V26.7	C40.747,26.255,39.404,26,38,26z"/><path d="M24,5c-0.474,0-0.948,0.168-1.326,0.503l-5.359,4.811L6,21v5.39l18-15.962	L42,26.39V21L30.685,10.314l-5.359-4.811C24.948,5.168,24.474,5,24,5z" opacity=".05"/><path d="M24,4c-0.474,0-0.948,0.167-1.326,0.5l-5.359,4.784L6,19.909v5.359	L24,9.397l18,15.871v-5.359L30.685,9.284L25.326,4.5C24.948,4.167,24.474,4,24,4z" opacity=".07"/><linearGradient id="N6~0Byn8qOfkTqtGjds4gd" x1="24" x2="24" y1="-1758.684" y2="-1780.696" gradientTransform="matrix(1 0 0 -1 0 -1756)" gradientUnits="userSpaceOnUse"><stop offset="0" stop-color="#d43a02"/><stop offset="1" stop-color="#b9360c"/></linearGradient><path fill="url(#N6~0Byn8qOfkTqtGjds4gd)" d="M44.495,20.507L25.326,3.503C24.948,3.168,24.474,3,24,3s-0.948,0.168-1.326,0.503	L3.505,20.507c-0.42,0.374-0.449,1.02-0.064,1.43l1.636,1.745c0.369,0.394,0.984,0.424,1.39,0.067L24,8.428L41.533,23.75	c0.405,0.356,1.021,0.327,1.39-0.067l1.636-1.745C44.944,21.527,44.915,20.881,44.495,20.507z"/><linearGradient id="N6~0Byn8qOfkTqtGjds4ge" x1="28" x2="48" y1="1000" y2="1000" gradientTransform="translate(0 -962)" gradientUnits="userSpaceOnUse"><stop offset="0" stop-color="#21ad64"/><stop offset="1" stop-color="#088242"/></linearGradient><circle cx="38" cy="38" r="10" fill="url(#N6~0Byn8qOfkTqtGjds4ge)"/><path d="M37.75,46.002c-0.689,0-1.25-0.561-1.25-1.25v-0.396	c-0.724-0.129-1.449-0.337-2.043-0.589c-0.583-0.25-0.958-0.816-0.958-1.443v-1.191c0-0.73,0.593-1.325,1.322-1.325	c0.206,0,0.413,0.05,0.598,0.144c0.301,0.154,1.37,0.653,2.581,0.653c0.522,0,0.644-0.113,0.645-0.115	c-0.098-0.199-0.966-0.521-1.383-0.675c-1.567-0.58-3.937-1.457-3.937-4.315c0-1.966,1.178-3.404,3.174-3.915V31.25	c0-0.689,0.561-1.25,1.25-1.25h0.5c0.689,0,1.25,0.561,1.25,1.25v0.222c0.593,0.068,1.093,0.184,1.52,0.35	C41.25,31.913,42,32.293,42,33.396v1.047c0,0.729-0.594,1.322-1.324,1.322c-0.197,0-0.389-0.043-0.569-0.128	c-0.382-0.179-1.165-0.48-2.107-0.48c-0.237,0-0.638,0.036-0.638,0.168c0,0.24,0.976,0.619,1.5,0.822	c1.52,0.591,3.813,1.482,3.813,4.2c0,1.514-0.841,3.408-3.174,3.982v0.422c0,0.689-0.561,1.25-1.25,1.25L37.75,46.002L37.75,46.002z" opacity=".05"/><path d="M37.75,45.502c-0.413,0-0.75-0.336-0.75-0.75v-0.824	c-0.814-0.109-1.665-0.332-2.348-0.622c-0.397-0.17-0.653-0.556-0.653-0.982v-1.191c0-0.455,0.369-0.825,0.822-0.825	c0.128,0,0.257,0.031,0.371,0.089c0.325,0.167,1.483,0.708,2.808,0.708c1.138,0,1.138-0.472,1.138-0.65	c0-0.446-0.643-0.716-1.702-1.109c-1.523-0.564-3.61-1.337-3.61-3.847c0-2.172,1.565-3.218,3.174-3.513V31.25	c0-0.414,0.337-0.75,0.75-0.75h0.5c0.413,0,0.75,0.336,0.75,0.75v0.678c0.75,0.053,1.354,0.172,1.838,0.36	c0.2,0.079,0.663,0.342,0.663,1.108v1.047c0,0.453-0.37,0.822-0.824,0.822c-0.124,0-0.243-0.027-0.356-0.081	c-0.42-0.197-1.28-0.527-2.32-0.527c-0.755,0-1.138,0.225-1.138,0.668c0,0.543,0.688,0.849,1.819,1.289	c1.474,0.573,3.493,1.357,3.493,3.734c0,1.444-0.842,3.187-3.174,3.575v0.83c0,0.414-0.337,0.75-0.75,0.75H37.75V45.502z" opacity=".05"/><path fill="#fff" d="M41.674,40.347c0-3.599-5.313-2.896-5.313-5.022c0-1.11,1.248-1.169,1.638-1.169	c0.938,0,1.843,0.252,2.533,0.575C40.75,34.834,41,34.683,41,34.443v-1.047c0-0.351-0.132-0.559-0.343-0.642	c-0.473-0.184-1.152-0.319-2.157-0.352V31.25c0-0.138-0.112-0.25-0.25-0.25h-0.5c-0.138,0-0.25,0.112-0.25,0.25v1.171	c-1.559,0.152-3.174,1.032-3.174,3.078c0,3.731,5.313,2.99,5.313,4.955c0,0.618-0.395,1.15-1.638,1.15	c-1.25,0-2.399-0.436-3.034-0.762c-0.214-0.109-0.466,0.049-0.466,0.289v1.192c0,0.228,0.138,0.432,0.349,0.522	c0.753,0.32,1.763,0.562,2.652,0.633v1.273c0,0.138,0.112,0.25,0.25,0.25h0.5c0.138,0,0.25-0.112,0.25-0.25V43.48	C40.832,43.286,41.674,41.725,41.674,40.347z"/></svg>