<svg xmlns="http://www.w3.org/2000/svg" viewBox="0 0 48 48"><linearGradient id="MElC_fObfDzDheLSwE7fqa" x1="2.779" x2="43.545" y1="13.677" y2="33.507" gradientUnits="userSpaceOnUse"><stop offset="0" stop-color="#737be6"/><stop offset="1" stop-color="#4750b3"/></linearGradient><path fill="url(#MElC_fObfDzDheLSwE7fqa)" d="M36,36H12C5.373,36,0,30.627,0,24v0c0-6.627,5.373-12,12-12h24c6.627,0,12,5.373,12,12v0	C48,30.627,42.627,36,36,36z"/><radialGradient id="MElC_fObfDzDheLSwE7fqb" cx="12" cy="24" r="9" gradientUnits="userSpaceOnUse"><stop offset="0"/><stop offset=".979" stop-opacity="0"/></radialGradient><circle cx="12" cy="24" r="9" fill="url(#MElC_fObfDzDheLSwE7fqb)"/><circle cx="12" cy="24" r="7" fill="#f9f9f9"/><path d="M40.628,26.894l-1.095-1.714c-0.094-0.147-0.198-0.298-0.312-0.453	c-0.028-0.038-0.057-0.075-0.085-0.111c0.148-0.127,0.284-0.265,0.406-0.413c0.237-0.287,0.422-0.613,0.549-0.966	c0.13-0.357,0.195-0.745,0.195-1.152c0-1.227-0.527-3.285-4.059-3.285h-2.5c-0.827,0-1.5,0.673-1.5,1.5v5.057l-1.978-5.561	c-0.212-0.596-0.78-0.996-1.412-0.996h-1.542c-0.628,0-1.194,0.396-1.409,0.987l-2.694,7.403c-0.167,0.46-0.1,0.974,0.182,1.374	c0.281,0.399,0.74,0.638,1.228,0.638h0.971c0.659,0,1.233-0.421,1.43-1.047l0.261-0.822h1.525l0.265,0.828	c0.2,0.623,0.774,1.042,1.429,1.042h0.988c0.438,0,0.845-0.199,1.127-0.526c0.275,0.319,0.677,0.526,1.131,0.526h0.893	c0.827,0,1.5-0.673,1.5-1.5v-0.847l0.979,1.622c0.27,0.448,0.762,0.726,1.285,0.726h0.979c0.548,0,1.052-0.298,1.315-0.778	C40.943,27.942,40.924,27.356,40.628,26.894z M36.23,22.479c-0.013,0.012-0.04,0.038-0.109,0.057v-0.313	c0.083,0.005,0.169,0.013,0.172,0.013c0.002,0.025,0.002,0.059,0.002,0.084C36.295,22.403,36.274,22.436,36.23,22.479z" opacity=".05"/><path d="M30.482,28.701c-0.437,0-0.819-0.279-0.953-0.695l-0.375-1.174h-2.257l-0.371,1.171	c-0.131,0.417-0.515,0.698-0.953,0.698h-0.971c-0.325,0-0.631-0.159-0.818-0.426s-0.232-0.609-0.121-0.916l2.694-7.403	c0.144-0.394,0.521-0.658,0.939-0.658h1.542c0.421,0,0.8,0.267,0.941,0.664l2.633,7.403c0.108,0.307,0.062,0.647-0.126,0.912	c-0.187,0.265-0.492,0.423-0.816,0.423H30.482z M28.401,24.379l-0.39-1.218l-0.391,1.218H28.401z" opacity=".07"/><path fill="#fff" d="M31.471,28.201h-0.989c-0.217,0-0.41-0.141-0.476-0.348l-0.486-1.521h-2.988l-0.481,1.52	c-0.066,0.208-0.259,0.349-0.477,0.349h-0.971c-0.347,0-0.589-0.345-0.47-0.671l2.695-7.402c0.072-0.198,0.26-0.329,0.47-0.329	h1.541c0.212,0,0.4,0.133,0.471,0.332l2.633,7.402C32.058,27.859,31.817,28.201,31.471,28.201z M29.086,24.879l-0.902-2.824	c-0.066-0.211-0.113-0.463-0.141-0.756h-0.047c-0.02,0.246-0.068,0.49-0.146,0.732l-0.914,2.848H29.086z"/><path d="M38.386,28.701c-0.349,0-0.677-0.185-0.856-0.483l-1.16-1.92c-0.093-0.156-0.18-0.292-0.264-0.412	c-0.071-0.103-0.143-0.191-0.216-0.264c-0.053-0.052-0.104-0.091-0.153-0.116c-0.031-0.015-0.064-0.022-0.105-0.022h-0.01v2.217	c0,0.551-0.448,1-1,1h-0.893c-0.552,0-1-0.449-1-1v-7.402c0-0.551,0.448-1,1-1h2.5c2.941,0,3.559,1.515,3.559,2.785	c0,0.35-0.056,0.68-0.165,0.982c-0.108,0.301-0.265,0.576-0.465,0.818c-0.197,0.24-0.438,0.45-0.717,0.623	c-0.013,0.008-0.026,0.016-0.04,0.024c0.023,0.023,0.046,0.047,0.068,0.071c0.122,0.131,0.239,0.271,0.351,0.422	c0.106,0.145,0.204,0.286,0.292,0.424l1.096,1.714c0.197,0.309,0.21,0.699,0.034,1.02s-0.512,0.519-0.877,0.519H38.386z M35.941,23.055c0.275,0,0.482-0.07,0.634-0.214c0.149-0.143,0.22-0.309,0.22-0.522c0-0.254,0-0.602-0.818-0.602h-0.355v1.338	H35.941z" opacity=".07"/><path fill="#fff" d="M39.364,28.201h-0.979c-0.175,0-0.337-0.092-0.428-0.241l-1.161-1.921	c-0.098-0.164-0.191-0.311-0.281-0.439s-0.181-0.239-0.272-0.331s-0.188-0.162-0.287-0.211s-0.208-0.073-0.325-0.073h-0.51v2.717	c0,0.276-0.224,0.5-0.5,0.5h-0.893c-0.276,0-0.5-0.224-0.5-0.5v-7.402c0-0.276,0.224-0.5,0.5-0.5h2.5	c2.039,0,3.059,0.762,3.059,2.285c0,0.293-0.045,0.563-0.135,0.812c-0.09,0.248-0.217,0.472-0.381,0.671s-0.362,0.371-0.595,0.516	s-0.491,0.258-0.776,0.34v0.023c0.125,0.039,0.246,0.103,0.363,0.19s0.23,0.19,0.34,0.308s0.214,0.243,0.313,0.378	s0.19,0.267,0.272,0.396l1.096,1.715C39.998,27.765,39.759,28.201,39.364,28.201z M35.121,21.217v2.338h0.82	c0.406,0,0.732-0.117,0.979-0.352c0.25-0.238,0.375-0.533,0.375-0.885c0-0.734-0.439-1.102-1.318-1.102H35.121z"/></svg>