<svg xmlns="http://www.w3.org/2000/svg" viewBox="0 0 48 48"><radialGradient id="vAaRN8Eal4YV3qoiQ9GEva" cx="21.212" cy="37.355" r="12.079" gradientUnits="userSpaceOnUse"><stop offset="0" stop-color="#6e757b"/><stop offset="1" stop-color="#4a4e52"/></radialGradient><path fill="url(#vAaRN8Eal4YV3qoiQ9GEva)" d="M30,38H18c0,0.855,0,2.4,0,2.4c0,3.314,2.686,6,6,6s6-2.686,6-6C30,40.4,30,38.855,30,38z"/><linearGradient id="vAaRN8Eal4YV3qoiQ9GEvb" x1="20.26" x2="30.186" y1="9.37" y2="40.416" gradientUnits="userSpaceOnUse"><stop offset="0" stop-color="#ffda1c"/><stop offset="1" stop-color="#feb705"/></linearGradient><path fill="url(#vAaRN8Eal4YV3qoiQ9GEvb)" d="M36,21c0-6.627-5.373-12-12-12s-12,5.373-12,12c0,7,6,12,6,15.8V38h12v-1.2C30,33,36,28,36,21	z"/><linearGradient id="vAaRN8Eal4YV3qoiQ9GEvc" x1="31.627" x2="49.114" y1="-7.197" y2="36.16" gradientUnits="userSpaceOnUse"><stop offset="0" stop-color="#ffda1c"/><stop offset="1" stop-color="#feb705"/></linearGradient><circle cx="43" cy="21" r="2" fill="url(#vAaRN8Eal4YV3qoiQ9GEvc)"/><linearGradient id="vAaRN8Eal4YV3qoiQ9GEvd" x1="-1.056" x2="16.431" y1="5.985" y2="49.342" gradientUnits="userSpaceOnUse"><stop offset="0" stop-color="#ffda1c"/><stop offset="1" stop-color="#feb705"/></linearGradient><circle cx="5" cy="21" r="2" fill="url(#vAaRN8Eal4YV3qoiQ9GEvd)"/><linearGradient id="vAaRN8Eal4YV3qoiQ9GEve" x1="21.877" x2="39.364" y1="-3.264" y2="40.093" gradientUnits="userSpaceOnUse"><stop offset="0" stop-color="#ffda1c"/><stop offset="1" stop-color="#feb705"/></linearGradient><circle cx="24" cy="2" r="2" fill="url(#vAaRN8Eal4YV3qoiQ9GEve)"/><linearGradient id="vAaRN8Eal4YV3qoiQ9GEvf" x1="22.18" x2="39.667" y1="-3.387" y2="39.97" gradientUnits="userSpaceOnUse"><stop offset="0" stop-color="#ffda1c"/><stop offset="1" stop-color="#feb705"/></linearGradient><circle cx="37.435" cy="34.435" r="2" fill="url(#vAaRN8Eal4YV3qoiQ9GEvf)"/><linearGradient id="vAaRN8Eal4YV3qoiQ9GEvg" x1="8.391" x2="25.878" y1="2.175" y2="45.532" gradientUnits="userSpaceOnUse"><stop offset="0" stop-color="#ffda1c"/><stop offset="1" stop-color="#feb705"/></linearGradient><circle cx="10.565" cy="7.565" r="2" fill="url(#vAaRN8Eal4YV3qoiQ9GEvg)"/><linearGradient id="vAaRN8Eal4YV3qoiQ9GEvh" x1="-.93" x2="16.557" y1="5.934" y2="49.291" gradientUnits="userSpaceOnUse"><stop offset="0" stop-color="#ffda1c"/><stop offset="1" stop-color="#feb705"/></linearGradient><circle cx="10.565" cy="34.435" r="2" fill="url(#vAaRN8Eal4YV3qoiQ9GEvh)"/><linearGradient id="vAaRN8Eal4YV3qoiQ9GEvi" x1="31.501" x2="48.989" y1="-7.146" y2="36.211" gradientUnits="userSpaceOnUse"><stop offset="0" stop-color="#ffda1c"/><stop offset="1" stop-color="#feb705"/></linearGradient><circle cx="37.435" cy="7.565" r="2" fill="url(#vAaRN8Eal4YV3qoiQ9GEvi)"/></svg>