<svg xmlns="http://www.w3.org/2000/svg" data-name="Layer 1" viewBox="0 0 48 48"><defs><linearGradient id="0sE4sYdkPemnLnXJmqr42a" x1="24.5" x2="24.5" y1="8.608" y2="55.343" data-name="Безымянный градиент 102" gradientUnits="userSpaceOnUse"><stop offset="0" stop-color="#9dffce"/><stop offset="1" stop-color="#50d18d"/></linearGradient></defs><path fill="#33c481" d="M32,9.9992a8.23644,8.23644,0,0,0-8-8,8.23644,8.23644,0,0,0-8,8c0,5.799,4.57143,13,8,13S32,15.79819,32,9.9992Z"/><path fill="#33c481" d="M38.33647,32.2737a6.08887,6.08887,0,0,1-8.611-8.611c3.17047-3.17047,9.63608-4.71554,11.48129-2.87033S41.50694,29.10323,38.33647,32.2737Z"/><path fill="#33c481" d="M9.66353,36.2737a6.23485,6.23485,0,0,0,8.611,0,6.23484,6.23484,0,0,0,0-8.611C15.104,24.49226,8.63841,22.94719,6.7932,24.7924S6.49306,33.10323,9.66353,36.2737Z"/><path fill="url(#0sE4sYdkPemnLnXJmqr42a)" d="M32.707,29.29217a.99962.99962,0,0,0-1.41406,0,27.50872,27.50872,0,0,0-5.51026,7.319L25,9.9992a1.00043,1.00043,0,0,0-2,0l-.82806,28.155a22.80526,22.80526,0,0,0-3.59772-4.03095c-.31445-.2959-.6084-.57226-.86719-.83105A.99989.99989,0,0,0,16.293,34.70623c.27246.27246.58008.5625.91016.873C19.22754,37.48553,22,40.0949,22,43.9992c-.00092.03693-.0011.08026,0,.11768a2.00087,2.00087,0,1,0,4-.11768c0-6.58594,4.7002-11.28613,6.707-13.293A.99962.99962,0,0,0,32.707,29.29217Z"/></svg>