<svg xmlns="http://www.w3.org/2000/svg" id="Layer_1" x="0" y="0" version="1.1" viewBox="0 0 48 48" xml:space="preserve"><linearGradient id="SVGID_1_" x1="21.516" x2="45.592" y1="1049.638" y2="1085.673" gradientTransform="translate(0 -1032)" gradientUnits="userSpaceOnUse"><stop offset="0" stop-color="#28afea"/><stop offset="1" stop-color="#0b88da"/></linearGradient><path fill="url(#SVGID_1_)" d="M9,26l36-14.3V38c0,1.1-0.9,2-2,2H9V26z"/><linearGradient id="SVGID_2_" x1="1.408" x2="36.331" y1="1056.41" y2="1078.164" gradientTransform="translate(0 -1032)" gradientUnits="userSpaceOnUse"><stop offset="0" stop-color="#28afea"/><stop offset="1" stop-color="#0b88da"/></linearGradient><path fill="url(#SVGID_2_)" d="M3,11.7V38c0,1.1,0.9,2,2,2h38c0.5,0,0.9-0.2,1.3-0.5L3,11.7z"/><path d="M3,11h42v1.7L27.7,26.1c-2.2,1.7-5.2,1.7-7.4,0L3,12.7V11z" opacity=".05"/><path d="M3,10.5h42v1.7L27,25.3c-1.8,1.3-4.2,1.3-5.9,0L3,12.2V10.5z" opacity=".07"/><path fill="#50e6ff" d="M5,8h38c1.1,0,2,0.9,2,2v1.7L26.3,24.5c-1.4,0.9-3.1,0.9-4.5,0L3,11.7V10C3,8.9,3.9,8,5,8z"/><radialGradient id="SVGID_3_" cx="38.351" cy="38.404" r="12.33" gradientUnits="userSpaceOnUse"><stop offset="0"/><stop offset="1" stop-opacity="0"/></radialGradient><path fill="url(#SVGID_3_)" d="M38,26c-6.6,0-12,5.4-12,12c0,0.7,0.1,1.3,0.2,2H43c1.1,0,2-0.9,2-2v-9.7C43,26.8,40.6,26,38,26z"/><linearGradient id="SVGID_4_" x1="28" x2="48" y1="1544" y2="1544" gradientTransform="translate(0 -1506)" gradientUnits="userSpaceOnUse"><stop offset="0" stop-color="#f44f5a"/><stop offset=".443" stop-color="#ee3d4a"/><stop offset="1" stop-color="#e52030"/></linearGradient><circle cx="38" cy="38" r="10" fill="url(#SVGID_4_)"/><path fill="#fff" d="M41.5,33.8l0.7,0.7c0.2,0.2,0.2,0.5,0,0.7l-7.1,7.1c-0.2,0.2-0.5,0.2-0.7,0l-0.7-0.7c-0.2-0.2-0.2-0.5,0-0.7	l7.1-7.1C41,33.6,41.3,33.6,41.5,33.8z"/><path fill="#fff" d="M42.2,41.5l-0.7,0.7c-0.2,0.2-0.5,0.2-0.7,0l-7.1-7.1c-0.2-0.2-0.2-0.5,0-0.7l0.7-0.7c0.2-0.2,0.5-0.2,0.7,0	l7.1,7.1C42.4,41,42.4,41.3,42.2,41.5z"/></svg>