<svg xmlns="http://www.w3.org/2000/svg" viewBox="0 0 48 48"><path fill="#9efcff" d="M40,42H8c-1.105,0-2-0.895-2-2V8c0-1.105,0.895-2,2-2h32c1.105,0,2,0.895,2,2v32 C42,41.105,41.105,42,40,42z"/><path fill="#50e6ff" d="M6,25v14.806C6,41.018,6.982,42,8.194,42H40L6,25z"/><circle cx="13" cy="20" r="2" fill="#f4bb2e"/><linearGradient id="5iqwp_Tz11PX8e5upd_A8a" x1="24.165" x2="23.511" y1="35.013" y2="9.021" gradientUnits="userSpaceOnUse"><stop offset="0" stop-color="#0d62ab"/><stop offset="1" stop-color="#007ad9"/></linearGradient><path fill="url(#5iqwp_Tz11PX8e5upd_A8a)" d="M28,11c0-1.65,1.35-3,3-3s3,1.35,3,3c0,1.65-1.35,3-3,3S28,12.65,28,11z M32,15h-2 c-2.761,0-5,2.239-5,5v7.5c0,0.828,0.672,1.5,1.5,1.5H27v6.488l-0.008-0.004L11,37l1,2h22l1-10h0.5c0.828,0,1.5-0.672,1.5-1.5V20 C37,17.239,34.761,15,32,15z"/><linearGradient id="5iqwp_Tz11PX8e5upd_A8b" x1="12.36" x2="14.373" y1="22.196" y2="40.594" gradientUnits="userSpaceOnUse"><stop offset="0" stop-color="#889097"/><stop offset="1" stop-color="#64717c"/></linearGradient><path fill="url(#5iqwp_Tz11PX8e5upd_A8b)" d="M13.843,23h-1.686C10.966,23,10,23.966,10,25.157V31c0,0.552,0.448,1,1,1v6 c0,0.552,0.448,1,1,1s1.448,0,2,0s1-0.448,1-1v-6c0.552,0,1-0.448,1-1v-5.843C16,23.966,15.034,23,13.843,23z"/></svg>