<svg xmlns="http://www.w3.org/2000/svg" viewBox="0 0 48 48"><linearGradient id="Ge2W9KU1szp15dxqFcV6Ia" x1="9.858" x2="38.142" y1="9.858" y2="38.142" gradientUnits="userSpaceOnUse"><stop offset="0" stop-color="#21ad64"/><stop offset="1" stop-color="#088242"/></linearGradient><path fill="url(#Ge2W9KU1szp15dxqFcV6Ia)" d="M44,24c0,11.045-8.955,20-20,20S4,35.045,4,24S12.955,4,24,4S44,12.955,44,24z"/><path d="M33.656,23C33.883,22.532,34,22.024,34,21.5c0-1.93-1.57-3.5-3.5-3.5h-6.319l0.244-1.466	C24.99,16.02,26,14.844,26,13c0-1.654-1.346-3-3-3h-0.48l-6.986,8.732C14.545,19.969,14,21.521,14,23.104V30c0,2.206,1.794,4,4,4	h10.5c1.93,0,3.5-1.57,3.5-3.5c0-0.172-0.014-0.344-0.04-0.516C32.621,29.333,33,28.447,33,27.5c0-0.172-0.014-0.344-0.04-0.516	C33.621,26.333,34,25.447,34,24.5C34,23.976,33.883,23.468,33.656,23z" opacity=".05"/><path d="M25.5,13c0-1.203-0.864-2.205-1.996-2.413c-0.158-0.056-0.593,0.245-0.77,0.245l-0.359,0.148	l-6.452,8.064c-0.92,1.15-1.424,2.588-1.424,4.06V30c0,1.791,1.356,3.269,3.092,3.458c0.132,0.027,0.604,0.042,0.744,0.042h9.774	c0.16,0,0.705-0.022,0.852-0.062c1.432-0.203,2.538-1.443,2.538-2.938c0-0.179-0.018-0.356-0.052-0.529	c0.028-0.101,0.049-0.202,0.065-0.303c0.607-0.53,0.987-1.309,0.987-2.168c0-0.179-0.018-0.356-0.052-0.528	c0.028-0.101,0.05-0.202,0.065-0.304c0.607-0.53,0.986-1.309,0.986-2.168c0-0.545-0.156-1.057-0.428-1.5	c0.272-0.443,0.428-0.955,0.428-1.5c0-1.354-0.931-2.493-2.168-2.789c-0.248-0.134-1.428-0.211-1.729-0.211h-5.61l-0.331-0.433	l0.245-1.473c0.064-0.058,0.193-0.46,0.271-0.551C24.447,15.729,25.5,14.715,25.5,13z" opacity=".07"/><linearGradient id="Ge2W9KU1szp15dxqFcV6Ib" x1="18.292" x2="27.133" y1="11.812" y2="33.476" gradientUnits="userSpaceOnUse"><stop offset="0" stop-color="#ffcf54"/><stop offset=".261" stop-color="#fdcb4d"/><stop offset=".639" stop-color="#f7c13a"/><stop offset="1" stop-color="#f0b421"/></linearGradient><path fill="url(#Ge2W9KU1szp15dxqFcV6Ib)" d="M33,21.5c0-1.381-1.119-2.5-2.5-2.5H23l0.5-3c0,0,1.5-1,1.5-3c0-1.105-0.895-2-2-2	l-6.685,8.357C15.464,20.42,15,21.742,15,23.105V30c0,1.657,1.343,3,3,3h10.5c1.381,0,2.5-1.119,2.5-2.5	c0-0.315-0.065-0.613-0.171-0.89C31.531,29.167,32,28.391,32,27.5c0-0.315-0.065-0.613-0.171-0.89C32.531,26.167,33,25.391,33,24.5	c0-0.565-0.195-1.081-0.511-1.5C32.805,22.581,33,22.065,33,21.5z"/></svg>