<svg xmlns="http://www.w3.org/2000/svg" viewBox="0 0 48 48"><radialGradient id="-5n5ueG2RqdcUkHij3H8ya" cx="13" cy="351" r="10.602" gradientTransform="translate(0 -338)" gradientUnits="userSpaceOnUse"><stop offset="0" stop-color="#fed100"/><stop offset=".306" stop-color="#fdcf00"/><stop offset=".482" stop-color="#fbc600"/><stop offset=".625" stop-color="#f8b800"/><stop offset=".75" stop-color="#f3a500"/><stop offset=".863" stop-color="#ed8b01"/><stop offset=".967" stop-color="#e66c01"/><stop offset="1" stop-color="#e36001"/></radialGradient><path fill="url(#-5n5ueG2RqdcUkHij3H8ya)" d="M13,3l0.646,0.67c0.422,0.438,1.086,0.543,1.623,0.258L16.09,3.49l0.408,0.837	c0.267,0.548,0.864,0.852,1.464,0.746l0.917-0.162l0.128,0.922c0.084,0.603,0.558,1.078,1.163,1.162l0.922,0.128L20.929,8.04	c-0.107,0.6,0.198,1.198,0.746,1.464l0.837,0.408l-0.438,0.821c-0.287,0.538-0.182,1.2,0.257,1.623L23,13l-0.67,0.646	c-0.438,0.422-0.543,1.086-0.257,1.623l0.438,0.821l-0.837,0.408c-0.548,0.267-0.852,0.864-0.746,1.464l0.163,0.917l-0.922,0.128	c-0.603,0.084-1.077,0.558-1.163,1.163l-0.128,0.922l-0.917-0.163c-0.6-0.107-1.198,0.198-1.464,0.746l-0.408,0.837l-0.821-0.438	c-0.538-0.287-1.2-0.182-1.623,0.257L13,23l-0.646-0.67c-0.422-0.438-1.086-0.543-1.623-0.257L9.91,22.51l-0.408-0.837	c-0.267-0.548-0.864-0.853-1.464-0.746L7.122,21.09l-0.128-0.922c-0.084-0.603-0.558-1.077-1.163-1.163l-0.922-0.128l0.162-0.917	c0.107-0.6-0.198-1.198-0.746-1.464l-0.837-0.408l0.437-0.821c0.287-0.538,0.182-1.2-0.257-1.623L3,13l0.67-0.646	c0.438-0.422,0.543-1.086,0.258-1.623L3.49,9.91l0.837-0.408c0.548-0.267,0.852-0.864,0.746-1.464L4.91,7.122l0.922-0.128	C6.435,6.91,6.91,6.436,6.994,5.832L7.122,4.91l0.917,0.162c0.6,0.107,1.198-0.198,1.464-0.746l0.408-0.837l0.821,0.437	c0.538,0.287,1.2,0.182,1.623-0.257L13,3z"/><linearGradient id="-5n5ueG2RqdcUkHij3H8yb" x1="4.07" x2="17.285" y1="341.847" y2="355.393" gradientTransform="translate(0 -338)" gradientUnits="userSpaceOnUse"><stop offset="0" stop-color="#fed100"/><stop offset="1" stop-color="#e36001"/></linearGradient><path fill="url(#-5n5ueG2RqdcUkHij3H8yb)" d="M13,7c-3.314,0-6,2.686-6,6s2.686,6,6,6s6-2.686,6-6S16.314,7,13,7z"/><path d="M9.502,21.673L9.91,22.51l0.821-0.437c0.358-0.191,0.768-0.193,1.13-0.053L22.02,11.861	c-0.139-0.361-0.137-0.77,0.054-1.128l0.438-0.821l-0.837-0.408c-0.237-0.115-0.416-0.299-0.549-0.511L8.993,21.126	C9.204,21.258,9.387,21.437,9.502,21.673z" opacity=".05"/><path d="M9.502,21.673L9.91,22.51l0.821-0.437c0.066-0.035,0.138-0.047,0.207-0.07l11.067-11.067	c0.023-0.068,0.034-0.138,0.069-0.203l0.438-0.821l-0.837-0.408c-0.027-0.013-0.045-0.035-0.07-0.05L9.454,21.605	C9.468,21.63,9.49,21.647,9.502,21.673z" opacity=".07"/><linearGradient id="-5n5ueG2RqdcUkHij3H8yc" x1="18.122" x2="37.237" y1="4.942" y2="43.492" gradientUnits="userSpaceOnUse"><stop offset="0" stop-color="#32bdef"/><stop offset="1" stop-color="#1ea2e4"/></linearGradient><path fill="url(#-5n5ueG2RqdcUkHij3H8yc)" d="M24.828,7.172L7.2,24.8c-1.574,1.574-1.574,4.126,0,5.7l12.3,12.3	c1.574,1.574,4.126,1.574,5.7,0l17.628-17.628c0.75-0.75,1.172-1.768,1.172-2.828V10c0-2.2-1.8-4-4-4H27.657	C26.596,6,25.579,6.421,24.828,7.172z M38,14c-1.1,0-2-0.9-2-2s0.9-2,2-2s2,0.9,2,2S39.1,14,38,14"/><path fill="#fff" d="M33.101,25.071l-16.352,3.452l-1.685-1.685l16.338-3.467L33.101,25.071z M20.851,22.861	c-0.704-0.704-1.049-1.495-1.032-2.372s0.402-1.693,1.156-2.447c0.824-0.824,1.707-1.249,2.648-1.274s1.794,0.344,2.559,1.108	c0.732,0.732,1.085,1.522,1.061,2.371c-0.025,0.85-0.434,1.67-1.227,2.463c-0.814,0.814-1.689,1.233-2.623,1.256	C22.457,23.989,21.61,23.621,20.851,22.861z M21.997,34.048c-0.704-0.704-1.05-1.494-1.032-2.371	c0.016-0.877,0.402-1.693,1.156-2.449c0.824-0.823,1.707-1.248,2.648-1.273s1.794,0.344,2.559,1.108	c0.736,0.737,1.094,1.526,1.07,2.368c-0.023,0.843-0.43,1.66-1.223,2.451c-0.814,0.815-1.691,1.236-2.631,1.264	S22.757,34.807,21.997,34.048z M24.925,19.05c-0.672-0.672-1.476-0.541-2.41,0.394c-0.884,0.884-1.006,1.646-0.366,2.286	c0.654,0.653,1.441,0.52,2.361-0.4C25.408,20.431,25.547,19.671,24.925,19.05z M26.051,30.216c-0.668-0.668-1.469-0.533-2.403,0.4	c-0.884,0.884-1.001,1.65-0.353,2.299c0.654,0.654,1.441,0.521,2.361-0.4c0.429-0.428,0.672-0.848,0.732-1.257	S26.336,30.501,26.051,30.216z"/></svg>