<svg xmlns="http://www.w3.org/2000/svg" viewBox="0 0 48 48"><linearGradient id="JuWTCp7EUvi1bXMF4bmEna" x1="21.962" x2="23.79" y1="11.381" y2="22.702" gradientUnits="userSpaceOnUse"><stop offset="0" stop-color="#21ad64"/><stop offset="1" stop-color="#088242"/></linearGradient><path fill="url(#JuWTCp7EUvi1bXMF4bmEna)" d="M37,13c-6.075,0-11,4.925-11,11c0,2.659,0.944,5.098,2.515,7h-9.029 C21.056,29.098,22,26.659,22,24c0-6.075-4.925-11-11-11S0,17.925,0,24s4.925,11,11,11h26c6.075,0,11-4.925,11-11S43.075,13,37,13z M4,24c0-3.866,3.134-7,7-7s7,3.134,7,7c0,3.866-3.134,7-7,7S4,27.866,4,24z M37,31c-3.866,0-7-3.134-7-7c0-3.866,3.134-7,7-7 s7,3.134,7,7C44,27.866,40.866,31,37,31z"/></svg>