<svg xmlns="http://www.w3.org/2000/svg" viewBox="0 0 48 48"><path fill="#b31523" d="M42.99,10.443c-0.228-0.501-0.817-0.726-1.324-0.496c-8.44,3.838-14.295,9.274-18.318,14.577	c-1.853,2.285-3.499,4.748-4.883,7.364c-0.85,1.605-1.607,3.265-2.26,4.972c-0.65,1.727-1.209,3.416-1.597,5.342	c-0.007,0.034-0.013,0.072-0.018,0.106c-0.105,0.823,0.477,1.575,1.3,1.68c0.822,0.105,1.575-0.477,1.68-1.3l0.007-0.055	c0.2-1.568,0.621-3.297,1.111-4.921c0.499-1.643,1.104-3.261,1.801-4.841c0.08-0.18,0.172-0.354,0.254-0.532	c3.503-6.688,10.015-15.234,21.752-20.571C42.997,11.539,43.219,10.946,42.99,10.443z"/><path fill="#eb6773" d="M38.018,4.553c-0.248-0.495-0.848-0.694-1.342-0.447c-3.948,1.974-8.261,6.835-12.049,11.974	c-0.431,0.51-0.908,1.115-1.504,1.921c-2.217,3.003-6.042,8.791-8.086,11.894c-0.9,1.439-2.034,2.408-3.451,3.104	c-0.699,0.338-1.448,0.594-2.223,0.762C8.619,33.928,7.732,34.023,7.109,34l-0.032-0.001c-0.067-0.003-0.136-0.002-0.205,0.003	c-1.104,0.073-1.939,1.027-1.867,2.131c0.073,1.104,1.027,1.94,2.132,1.867c1.229-0.081,2.182-0.305,3.223-0.625	c1.014-0.32,1.997-0.757,2.92-1.313c0.921-0.557,1.78-1.238,2.519-2.034c0.375-0.393,0.707-0.823,1.018-1.263	c0.297-0.429,0.596-0.948,0.795-1.329c1.745-3.248,3.522-6.45,5.428-9.588c4.263-6.363,9.819-13.598,14.53-15.953	C38.064,5.647,38.265,5.047,38.018,4.553z"/><path fill="#eb6773" d="M13.123,36.154C15.268,35,16.689,37,18.623,37s3.5-1.566,3.5-3.5s-3-3.649-2-6.649	C18.189,26.851,13.123,34.221,13.123,36.154z"/><path fill="#3b3b3b" d="M18.623,32c-0.828,0-1.5,0.672-1.5,1.5s0.672,1.5,1.5,1.5s1.5-0.672,1.5-1.5S19.451,32,18.623,32z"/></svg>