<svg xmlns="http://www.w3.org/2000/svg" viewBox="0 0 48 48"><path fill="#50e6ff" d="M39,16v25c0,1.105-0.895,2-2,2H11c-1.105,0-2-0.895-2-2V7c0-1.105,0.895-2,2-2h17L39,16z"/><linearGradient id="ds5dOyyRmRkulEvVkXrQZa" x1="28.529" x2="33.6" y1="15.472" y2="10.4" gradientUnits="userSpaceOnUse"><stop offset="0" stop-color="#3079d6"/><stop offset="1" stop-color="#297cd2"/></linearGradient><path fill="url(#ds5dOyyRmRkulEvVkXrQZa)" d="M28,5v9c0,1.105,0.895,2,2,2h9L28,5z"/><path fill="#e8e8e8" d="M36,36.607c-5.523,0-10,3.075-10,6.429V44c0,0.552,0.448,1,1,1h18c0.552,0,1-0.448,1-1v-0.964 C46,39.683,41.523,36.607,36,36.607z"/><polygon fill="#fff" points="39,41.248 36,39.205 33,41.248 33,34 39,34"/><polygon fill="#d32f2f" points="34.75,40 35.375,40.625 34.75,45 37.25,45 36.625,40.625 37.25,40 36,38.75"/><path fill="#d6a121" d="M39,36.6c0,1.138-1.2,2.4-3,2.4s-3-1.262-3-2.4c0-1.582,0-4.221,0-4.221h6 C39,32.379,39,35.018,39,36.6z"/><linearGradient id="ds5dOyyRmRkulEvVkXrQZb" x1="40.756" x2="41.804" y1="31.5" y2="31.5" gradientUnits="userSpaceOnUse"><stop offset="0" stop-color="#c48f0c"/><stop offset=".251" stop-color="#d19b16"/><stop offset=".619" stop-color="#dca51f"/><stop offset="1" stop-color="#e0a922"/></linearGradient><path fill="url(#ds5dOyyRmRkulEvVkXrQZb)" d="M41.095,30h-0.754v3h0.855c0.294,0,0.545-0.234,0.595-0.555l0.197-1.277 C42.081,30.557,41.655,30,41.095,30z"/><linearGradient id="ds5dOyyRmRkulEvVkXrQZc" x1="-1205.733" x2="-1204.685" y1="31.5" y2="31.5" gradientTransform="matrix(-1 0 0 1 -1174.49 0)" gradientUnits="userSpaceOnUse"><stop offset="0" stop-color="#c48f0c"/><stop offset=".251" stop-color="#d19b16"/><stop offset=".619" stop-color="#dca51f"/><stop offset="1" stop-color="#e0a922"/></linearGradient><path fill="url(#ds5dOyyRmRkulEvVkXrQZc)" d="M30.905,30h0.754v3h-0.855c-0.294,0-0.545-0.234-0.595-0.555l-0.197-1.277 C29.919,30.557,30.345,30,30.905,30z"/><radialGradient id="ds5dOyyRmRkulEvVkXrQZd" cx="61.92" cy="19.67" r="7.438" gradientTransform="matrix(.805 0 0 .805 -13.844 14.333)" gradientUnits="userSpaceOnUse"><stop offset="0" stop-color="#ffcf54"/><stop offset=".261" stop-color="#fdcb4d"/><stop offset=".639" stop-color="#f7c13a"/><stop offset="1" stop-color="#f0b421"/></radialGradient><path fill="url(#ds5dOyyRmRkulEvVkXrQZd)" d="M36,23.333c-2.467,0-5,0.375-5,5.708c0,0.427,0,3.265,0,3.721C31,34.667,34,37,36,37 s5-2.333,5-4.237c0-0.456,0-3.294,0-3.721C41,23.708,38.467,23.333,36,23.333z"/><radialGradient id="ds5dOyyRmRkulEvVkXrQZe" cx="55.544" cy="11.304" r="19.47" gradientTransform="matrix(.805 0 0 .8669 -13.844 12.974)" gradientUnits="userSpaceOnUse"><stop offset="0" stop-color="#c26715"/><stop offset=".508" stop-color="#b85515"/><stop offset="1" stop-color="#ad3f16"/></radialGradient><path fill="url(#ds5dOyyRmRkulEvVkXrQZe)" d="M36,22c-2.387,0-3,1-3,1c-1.429,0-3,0.945-3,4c0,1.113,0.286,2.692,1,5 c0.341-4.406,1.048-6.587,2.143-6.587C33.935,25.413,34.646,26,36,26s2.362-0.587,2.857-0.587C40.732,25.413,41,31.305,41,32 c0.714-2.308,1-4.027,1-5C42,23.92,39.881,22,36,22z"/><radialGradient id="ds5dOyyRmRkulEvVkXrQZf" cx="68.299" cy="12.316" r="21.61" gradientTransform="matrix(.7698 0 0 .805 -17.5 14.333)" gradientUnits="userSpaceOnUse"><stop offset="0" stop-color="#c26715"/><stop offset=".508" stop-color="#b85515"/><stop offset="1" stop-color="#ad3f16"/></radialGradient><path fill="url(#ds5dOyyRmRkulEvVkXrQZf)" d="M36,22c-2.602,0-3,1-3,1c-0.026,0.724,0.143,1.286,0.143,1.286S33.589,26,36.301,26 C37.939,26,40,24.728,40,22C40,22,39.711,22,36,22z"/></svg>