<svg xmlns="http://www.w3.org/2000/svg" viewBox="0 0 48 48"><linearGradient id="ijNkE885XgLMH0rOOxKV0a" x1=".898" x2="72.898" y1="-9.571" y2="95.058" gradientUnits="userSpaceOnUse"><stop offset="0" stop-color="#fed100"/><stop offset="1" stop-color="#e36001"/></linearGradient><circle cx="24" cy="24" r="20" fill="url(#ijNkE885XgLMH0rOOxKV0a)"/><path fill="#804e20" d="M25,7c0,0.552-0.448,1-1,1s-1-0.448-1-1s0.448-1,1-1S25,6.448,25,7z M25,41c0,0.552-0.448,1-1,1 s-1-0.448-1-1s0.448-1,1-1S25,40.448,25,41z M41,25c-0.552,0-1-0.448-1-1s0.448-1,1-1s1,0.448,1,1S41.552,25,41,25z M7,25 c-0.552,0-1-0.448-1-1s0.448-1,1-1s1,0.448,1,1S7.552,25,7,25z M36.728,12.686c-0.39,0.39-1.024,0.39-1.414,0 c-0.39-0.39-0.39-1.024,0-1.414c0.39-0.39,1.024-0.39,1.414,0C37.118,11.662,37.118,12.296,36.728,12.686z M12.686,36.728 c-0.39,0.39-1.024,0.39-1.414,0c-0.39-0.39-0.39-1.024,0-1.414c0.39-0.39,1.024-0.39,1.414,0 C13.077,35.704,13.077,36.338,12.686,36.728z M35.314,36.728c-0.39-0.39-0.39-1.024,0-1.414s1.024-0.39,1.414,0 c0.39,0.39,0.39,1.024,0,1.414C36.338,37.118,35.704,37.118,35.314,36.728z M11.272,12.686c-0.39-0.39-0.39-1.024,0-1.414 c0.39-0.39,1.024-0.39,1.414,0c0.39,0.39,0.39,1.024,0,1.414C12.296,13.077,11.662,13.077,11.272,12.686z"/><linearGradient id="ijNkE885XgLMH0rOOxKV0b" x1="23.486" x2="47.575" y1="24.34" y2="13.804" gradientUnits="userSpaceOnUse"><stop offset="0" stop-color="#c96c16"/><stop offset="1" stop-color="#c96c16" stop-opacity="0"/></linearGradient><path fill="url(#ijNkE885XgLMH0rOOxKV0b)" d="M24.706,25.873l18.043-8.78 c-0.202-0.548-0.426-1.085-0.674-1.609l-18.889,6.919C23.187,22.403,24.707,25.874,24.706,25.873z"/><path fill="#45494d" d="M22.113,24.034l0.748-12.959C22.896,10.471,23.396,10,24,10h0c0.604,0,1.104,0.472,1.139,1.075 l0.747,12.959C25.947,25.101,25.099,26,24.03,26h-0.05C22.901,26,22.052,25.101,22.113,24.034z"/></svg>