<svg xmlns="http://www.w3.org/2000/svg" viewBox="0 0 48 48"><path fill="#0078d4" d="M9.979,38.014c-0.918-0.918-2.412-0.912-3.338,0.014c-0.926,0.926-0.932,2.419-0.014,3.338	s2.412,0.912,3.338-0.014C10.89,40.425,10.897,38.932,9.979,38.014z"/><polygon fill="#0078d4" points="30.029,19.629 29.2,18.8 28.365,17.964 6.79,37.894 8.303,39.697 10.099,41.203"/><path fill="#199be2" d="M41.711,12.921c-0.458-0.458-1.203-0.454-1.665,0.007l-6.687,6.687	c-0.462,0.462-1.207,0.465-1.665,0.007c-0.458-0.458-0.455-1.203,0.007-1.665l6.687-6.687c0.461-0.461,0.465-1.207,0.007-1.665	c-0.458-0.458-1.203-0.454-1.665,0.007l-6.687,6.687c-0.462,0.462-1.207,0.465-1.665,0.007c-0.458-0.458-0.455-1.203,0.007-1.665	l6.687-6.687c0.461-0.461,0.465-1.207,0.007-1.665c-0.458-0.458-1.203-0.454-1.665,0.007l-9.195,9.195	c-1.846,1.846-1.859,4.828-0.028,6.659l1.658,1.658c1.831,1.831,4.813,1.819,6.659-0.028l9.195-9.195	C42.165,14.124,42.168,13.378,41.711,12.921z"/></svg>