<svg xmlns="http://www.w3.org/2000/svg" viewBox="0 0 48 48"><linearGradient id="uGtnO_d30pCEiGTO_B70Ra" x1="23.034" x2="27.012" y1="387.691" y2="382.742" gradientTransform="matrix(1 0 0 -1 0 390)" gradientUnits="userSpaceOnUse"><stop offset="0" stop-color="#21ad64"/><stop offset="1" stop-color="#088242"/></linearGradient><path fill="url(#uGtnO_d30pCEiGTO_B70Ra)" d="M23,8.665c0-4.723,1.799-7.446,2.702-8.49c0.212-0.245,0.593-0.23,0.784,0.031l1.263,1.729 c0.145,0.199,0.129,0.469-0.046,0.643c-0.73,0.726-2.5,2.807-2.687,5.607c-0.018,0.267-0.227,0.481-0.495,0.481L23,8.665L23,8.665z"/><linearGradient id="uGtnO_d30pCEiGTO_B70Rb" x1="24" x2="24" y1="383.209" y2="347.929" gradientTransform="matrix(1 0 0 -1 0 390)" gradientUnits="userSpaceOnUse"><stop offset="0" stop-color="#f09701"/><stop offset="1" stop-color="#e36001"/></linearGradient><path fill="url(#uGtnO_d30pCEiGTO_B70Rb)" d="M44.919,27.564l-1.111-10C43.076,10.981,37.533,6,30.887,6C27.009,6,24,9,24,9s-3.122-2-7-2 C10.354,7,4.924,10.981,4.192,17.564l-1.111,10C2.226,35.265,8,42,14,42c5,0,10-3,10-3s5,3,10,3C40,42,45.774,35.265,44.919,27.564 z"/><linearGradient id="uGtnO_d30pCEiGTO_B70Rc" x1="23.5" x2="23.5" y1="383.5" y2="346.541" gradientTransform="matrix(1 0 0 -1 0 390)" gradientUnits="userSpaceOnUse"><stop offset="0" stop-color="#fed100"/><stop offset=".794" stop-color="#e36001"/></linearGradient><path fill="url(#uGtnO_d30pCEiGTO_B70Rc)" d="M25,7h-2.273C15.909,7,12,19,12,28s6,14,10,14h3c4,0,10-5,10-14S31.818,7,25,7z"/><path d="M22.59,39c-0.392,0-0.763-0.152-1.044-0.427c-0.41-0.403-0.848-0.86-1.232-1.271c-0.074,0.208-0.135,0.396-0.183,0.562 c-0.155,0.547-0.598,0.954-1.155,1.062c-0.554,0.108-1.111-0.103-1.458-0.548c-0.22-0.283-0.424-0.574-0.611-0.872 c-0.194,0.289-0.483,0.5-0.83,0.598c-0.466,0.13-0.971,0.029-1.35-0.274c-0.807-0.645-1.369-1.284-1.76-1.849 c-0.179,0.396-0.521,0.697-0.951,0.82c-0.55,0.154-1.134-0.01-1.522-0.435C8.161,33.801,6,30.679,6,25.225 c0-2.042,1.019-5.552,2.284-6.848l2.127-2.18L9.99,19.213c-0.386,2.768-0.306,4.713-0.08,6.043 c0.124-0.208,0.261-0.415,0.41-0.62c0.377-0.518,1.018-0.738,1.629-0.558c0.623,0.183,1.047,0.722,1.083,1.374 c0.03,0.544,0.08,1.069,0.148,1.571c0.055-0.091,0.111-0.181,0.167-0.27c0.337-0.522,0.945-0.778,1.546-0.651 c0.623,0.13,1.091,0.626,1.193,1.263c0.222,1.383,0.838,2.431,1.385,3.123c0.281-0.695,0.676-1.42,1.125-2.052 c0.307-0.432,0.804-0.665,1.339-0.616c0.538,0.048,0.994,0.37,1.222,0.86c0.248,0.535,0.673,1.24,1.111,1.917 c0.1-0.572,0.228-1.104,0.382-1.592c0.176-0.562,0.648-0.957,1.232-1.029c0.592-0.072,1.159,0.203,1.472,0.713 c0.392,0.638,0.846,1.246,1.257,1.754c0.183-0.734,0.302-1.491,0.355-2.26c0.041-0.579,0.396-1.075,0.925-1.296 c0.518-0.217,1.108-0.125,1.537,0.244c0.814,0.7,1.875,1.771,2.687,3.139c0.366-0.874,0.716-2.11,0.838-3.782 c0.047-0.648,0.475-1.177,1.092-1.353l0.001-0.014l0.008,0.012c0.002,0,0.005-0.001,0.007-0.002 c0.62-0.163,1.255,0.07,1.617,0.597c0.09,0.13,0.175,0.261,0.257,0.391c0.161-0.68,0.306-1.466,0.336-2.177 c0.027-0.638,0.439-1.176,1.037-1.368l0.012-0.352l0.174,0.304c0.251-0.048,0.501-0.03,0.733,0.045 c-0.074-1.591-0.363-3.744-1.182-6.261l-1.255-3.86l2.904,2.835C40.92,17.453,42,20.705,42,25.225 c0,3.993-1.743,6.877-2.493,7.932c-0.331,0.465-0.887,0.698-1.453,0.606c-0.25-0.042-0.479-0.143-0.67-0.29 c-0.265,0.679-0.606,1.322-1.01,1.897c-0.309,0.439-0.817,0.675-1.344,0.62c-0.4-0.037-0.764-0.234-1.017-0.536 c-0.314,0.507-0.599,0.898-0.808,1.167c-0.282,0.362-0.707,0.571-1.165,0.574c-0.463,0-0.887-0.205-1.17-0.563 c-0.07-0.087-0.146-0.176-0.226-0.265c-0.122,0.362-0.276,0.728-0.462,1.093c-0.209,0.411-0.586,0.699-1.034,0.79 c-0.452,0.094-0.916-0.026-1.272-0.324c-0.225-0.188-0.445-0.394-0.66-0.614c-0.038,0.115-0.07,0.228-0.098,0.339 c-0.146,0.58-0.598,1.007-1.18,1.116c-0.581,0.106-1.151-0.127-1.493-0.609c-0.104-0.146-0.228-0.325-0.36-0.525 c-0.008,0.039-0.015,0.079-0.021,0.119c-0.092,0.551-0.479,1.001-1.01,1.174C22.904,38.975,22.748,39,22.59,39z M24.568,36.532 c0.251,0.41,0.507,0.785,0.694,1.048c0.004,0.006,0.008,0.011,0.012,0.017l-0.012-0.016 C25.013,37.228,24.773,36.866,24.568,36.532z M27.552,36.195c0.309,0.362,0.633,0.686,0.967,0.965 c0.006,0.005,0.012,0.009,0.018,0.014l-0.017-0.015C28.121,36.827,27.788,36.471,27.552,36.195z M29.568,36.398 c-0.106,0.259-0.211,0.47-0.287,0.613l-0.044,0.082c0.021-0.026,0.039-0.055,0.055-0.085 C29.395,36.803,29.487,36.6,29.568,36.398z M16.496,36.121c-0.134,0.207-0.269,0.449-0.362,0.706l-0.02,0.054 c0.007-0.015,0.013-0.03,0.019-0.046c0.077-0.212,0.187-0.432,0.326-0.655L16.496,36.121z M13.287,34.515 c0.231,0.533,0.688,1.298,1.584,2.12C13.976,35.813,13.518,35.048,13.287,34.515z M20.142,34.872 c0.417,0,0.819,0.178,1.102,0.489c0.293,0.322,0.677,0.736,1.073,1.147c0.081-0.249,0.18-0.491,0.295-0.725 c0.243-0.493,0.735-0.811,1.285-0.828c0.534-0.036,1.06,0.256,1.344,0.751c0.082,0.143,0.174,0.295,0.272,0.453 c0.06-0.144,0.125-0.288,0.195-0.432c0.229-0.468,0.669-0.783,1.18-0.842c0.51-0.058,1.001,0.147,1.32,0.536 c0.118,0.144,0.276,0.326,0.465,0.519c0.093-0.235,0.186-0.514,0.249-0.811c0.115-0.54,0.506-0.979,1.021-1.147 c0.507-0.166,1.044-0.05,1.441,0.306c0.222,0.198,0.428,0.399,0.618,0.601c0.208-0.308,0.458-0.7,0.716-1.165 c0.249-0.447,0.745-0.744,1.294-0.777c0.473,0.003,0.891,0.205,1.168,0.541c0.436-0.84,0.82-1.979,0.82-3.138v-1.358 c-0.519-0.034-0.991-0.342-1.238-0.812c-0.312,1.869-0.88,3.156-1.352,3.957c-0.284,0.48-0.815,0.773-1.364,0.735 c-0.552-0.028-1.042-0.363-1.277-0.873c-0.501-1.089-1.268-2.014-1.917-2.671c-0.146,1.118-0.396,2.018-0.604,2.625 c-0.177,0.52-0.6,0.892-1.132,0.998c-0.52,0.11-1.051-0.073-1.409-0.48c-0.397-0.451-0.916-1.075-1.422-1.783 c-0.087,0.439-0.157,0.915-0.208,1.424c-0.065,0.643-0.507,1.161-1.126,1.319c-0.614,0.156-1.241-0.082-1.599-0.604 c-0.498-0.725-1.121-1.667-1.591-2.502c-0.29,0.524-0.528,1.07-0.662,1.535c-0.15,0.522-0.55,0.915-1.068,1.05 c-0.511,0.131-1.041-0.011-1.417-0.384c-0.624-0.617-1.63-1.816-2.195-3.563c-0.028,0.062-0.055,0.125-0.082,0.187 c-0.253,0.604-0.834,0.974-1.466,0.927l-0.049,0.118l-0.029-0.125c-0.636-0.062-1.148-0.515-1.297-1.156 c-0.126-0.538-0.229-1.106-0.307-1.698c-0.108,0.317-0.17,0.631-0.185,0.94l1.276,3.915L11,30.756v3.126 c0.12,0.149,0.241,0.296,0.363,0.44c0.02-0.056,0.041-0.111,0.062-0.166c0.227-0.579,0.771-0.959,1.385-0.968 c0.557-0.044,1.141,0.333,1.385,0.909c0.183,0.43,0.554,1.056,1.296,1.75c0.334-0.588,0.732-1.009,0.79-1.069l1.097-1.124 l0.556,1.466c0.172,0.453,0.387,0.866,0.604,1.221c0.066-0.174,0.141-0.357,0.223-0.551c0.202-0.476,0.624-0.811,1.129-0.897 C19.973,34.879,20.058,34.872,20.142,34.872z M24.371,36.2l0.003,0.005c0.007,0.012,0.014,0.024,0.021,0.036 c-0.007-0.012-0.014-0.024-0.021-0.036C24.374,36.203,24.373,36.201,24.371,36.2z M16.97,35.507l0.339,0.676 c-0.111-0.223-0.216-0.459-0.31-0.708C16.997,35.479,16.986,35.489,16.97,35.507z M7,25.225c0,5.113,2.035,8.051,4.234,10.464 c0.004,0.004,0.008,0.008,0.012,0.012l-0.012-0.012C9.035,33.276,7,30.338,7,25.225z M30.712,35.029l0.005,0.004 c0.243,0.218,0.464,0.437,0.66,0.653c-0.197-0.218-0.418-0.437-0.66-0.653C30.715,35.032,30.714,35.031,30.712,35.029z M37,30.351c0,1.765-0.739,3.443-1.431,4.425l-0.034,0.048c0.007-0.009,0.014-0.018,0.021-0.028 c0.543-0.774,0.961-1.69,1.206-2.649l0.381-1.489C37.058,30.47,37.002,30.354,37,30.351L37,30.351z M34.47,34.218 c0.078,0.147,0.159,0.308,0.235,0.478c0.003,0.006,0.006,0.013,0.009,0.019l-0.009-0.019 C34.628,34.526,34.548,34.365,34.47,34.218z M8.017,25.994c0.146,3.259,1.22,5.527,2.58,7.365l-1.491-4.578 C8.843,28.424,8.339,27.573,8.017,25.994z M37.72,32.11l0.001,0.005c0.034,0.102,0.065,0.204,0.095,0.303 c0.002,0.006,0.004,0.012,0.005,0.017l-0.005-0.017C37.787,32.316,37.754,32.213,37.72,32.11z M20.245,29.084l0.008,0.017 c0.347,0.748,0.993,1.772,1.571,2.635c-0.579-0.865-1.225-1.89-1.571-2.636C20.25,29.095,20.247,29.09,20.245,29.084z M28.847,27.948c0.718,0.628,1.932,1.833,2.71,3.382C30.818,29.854,29.7,28.692,28.847,27.948z M37.209,28.498l0.689,1.414 c0.016,0.032,0.271,0.556,0.531,1.221C39.122,29.913,40,27.849,40,25.225c0-0.226-0.003-0.447-0.008-0.665 c-0.179,0.265-0.442,0.469-0.761,0.575l-0.006,0.401l-0.2-0.348c-0.3,0.056-0.596,0.02-0.86-0.092 c-0.143,1.026-0.41,2.059-0.64,2.829C37.461,28.141,37.353,28.335,37.209,28.498z M23.615,29.279 c-0.003,0.008-0.006,0.017-0.009,0.026c-0.024,0.077-0.048,0.155-0.071,0.234c0.021-0.074,0.043-0.146,0.066-0.218L23.615,29.279 z M41,25.247c-0.002,1.425-0.244,2.697-0.579,3.778C40.756,27.944,40.998,26.672,41,25.247z M9.84,28.086 c0.045,0.068,0.082,0.118,0.107,0.15L10,28.304V28.3l0,0l-0.001-0.003l0.002-0.085c0.009-0.428,0.086-0.859,0.23-1.29 L9.84,28.086z M14.289,27.182c-0.038,0.032-0.071,0.07-0.099,0.113c-0.173,0.27-0.336,0.553-0.482,0.84 c0.152-0.295,0.317-0.571,0.487-0.817L14.289,27.182z M36.934,26.252c-0.126,0.544-0.262,1.027-0.367,1.371l-0.026,0.086 c0.01-0.022,0.019-0.045,0.026-0.069C36.687,27.237,36.817,26.76,36.934,26.252z M35.623,27.662 c0.001,0.004,0.003,0.007,0.005,0.011c0,0.001,0,0.001,0,0.002l0-0.002C35.626,27.669,35.625,27.666,35.623,27.662z M11.205,25.141c-0.027,0.024-0.053,0.052-0.075,0.083c-0.403,0.556-0.703,1.118-0.89,1.672c0.188-0.555,0.487-1.109,0.895-1.66 L11.205,25.141z M34.852,26.285l0.006,0.01c0.083,0.121,0.162,0.241,0.236,0.36c-0.075-0.12-0.153-0.24-0.236-0.361 C34.856,26.292,34.854,26.288,34.852,26.285z M41,25.225c0,0.007,0,0.014,0,0.021C41,25.239,41,25.232,41,25.225z M7,25.219 c0,0.002,0,0.004,0,0.006C7,25.223,7,25.221,7,25.219z M7,25.215c0,0.001,0,0.002,0,0.003C7,25.217,7,25.216,7,25.215z M41,25.211c0,0.001,0,0.001,0,0.002C41,25.213,41,25.212,41,25.211z M38.233,23.812l0.075,0.131 c0.005,0.01,0.011,0.019,0.017,0.028L38.233,23.812z M8.756,21.553c-0.028,0.52-0.038,1.004-0.032,1.454 C8.719,22.557,8.728,22.074,8.756,21.553z M8.756,21.549C8.756,21.549,8.756,21.549,8.756,21.549L8.756,21.549z M8.885,19.202 l-0.126,2.3C8.799,20.767,8.876,19.96,9,19.075C8.961,19.115,8.923,19.157,8.885,19.202z M38,16L38,16 c0.353,1.084,0.611,2.105,0.798,3.047c-0.03-0.153-0.062-0.309-0.097-0.467l-0.524-2.401C38.119,16.118,38.06,16.059,38,16L38,16 z M39.606,18.189l0.029,0.059c0.075,0.148,0.147,0.3,0.217,0.455C39.774,18.527,39.692,18.356,39.606,18.189z" opacity=".05"/><path d="M23,25.998c-0.407,0-0.796-0.136-1.097-0.382l-2.345-1.926c-0.497-0.408-0.683-1.052-0.473-1.639 c0.226-0.628,0.856-1.05,1.57-1.05h4.689c0.713,0,1.344,0.422,1.57,1.05c0.21,0.588,0.024,1.231-0.473,1.64l-2.345,1.926 C23.797,25.862,23.407,25.998,23,25.998z M23.455,24.849c-0.097,0.076-0.215,0.123-0.338,0.141 C23.244,24.972,23.361,24.923,23.455,24.849z M25.825,22.902l-1.426,1.172l1.409-1.157 C25.813,22.912,25.819,22.907,25.825,22.902z M23.164,24.063l0.005,0.004C23.167,24.066,23.166,24.064,23.164,24.063z M21.844,22.999l1.155,0.931l1.135-0.932L21.844,22.999z M20.069,22.298c-0.011,0.018-0.02,0.036-0.029,0.055l0.006-0.012 C20.054,22.326,20.061,22.312,20.069,22.298z M25.348,22C25.348,22,25.348,22,25.348,22C25.348,22,25.348,22,25.348,22z M25.345,22c0,0,0.001,0,0.002,0C25.346,22,25.345,22,25.345,22z" opacity=".05"/><path d="M25.543,20c-0.547,0-1.059-0.293-1.334-0.765c-0.313-0.537-0.271-1.203,0.107-1.697l5.31-6.933 c0.281-0.367,0.741-0.585,1.229-0.585c0,0,0,0,0.001,0c0.496,0,0.943,0.214,1.229,0.586l2.6,3.394 c0.401,0.524,0.421,1.242,0.051,1.787l-1.829,2.688c-0.245,0.359-0.633,0.599-1.065,0.66l-6.08,0.851 C25.688,19.995,25.615,20,25.543,20z M25.446,18.991c0.057,0.01,0.117,0.01,0.179,0.003l6.054-0.847L25.446,18.991z M25.072,18.729c0,0.001,0.002,0.003,0.003,0.005L25.072,18.729z M30.609,11.069c-0.077,0.034-0.142,0.083-0.189,0.145 l-5.31,6.933c-0.01,0.013-0.02,0.027-0.029,0.042l0.028-0.04L30.609,11.069z M33.917,15.212l-1.927,2.8 c0.034-0.029,0.064-0.063,0.09-0.101l1.829-2.687C33.912,15.22,33.915,15.216,33.917,15.212z M30.89,12.338l-4.26,5.483 l4.718-0.639l1.531-2.225L30.89,12.338z M31.299,11.224l2.662,3.504c-0.018-0.042-0.041-0.083-0.069-0.121L31.299,11.224z" opacity=".05"/><path d="M19.494,20h-5.472c-0.401,0-0.792-0.166-1.073-0.454l-1.517-1.555c-0.573-0.588-0.572-1.543,0-2.129l2.349-2.409 c0.549-0.563,1.448-0.604,2.046-0.094l4.639,3.964c0.49,0.418,0.662,1.081,0.438,1.688C20.683,19.612,20.129,20,19.494,20z M13.991,18.999C14.001,19,14.012,19,14.022,19h5.328L13.991,18.999z M12.057,17.163c0.023,0.047,0.054,0.092,0.092,0.131 l1.512,1.55L12.057,17.163z M19.898,18.795l-0.023,0.029C19.883,18.815,19.891,18.805,19.898,18.795z M14.236,17.999L18.179,18 l-3.294-2.815l-1.684,1.728L14.236,17.999z M15.167,14.11l2.925,2.499l-2.914-2.49C15.174,14.117,15.17,14.114,15.167,14.11z" opacity=".05"/><g opacity=".07"><path d="M25.543,19.5c-0.37,0-0.713-0.193-0.902-0.517c-0.21-0.36-0.182-0.808,0.072-1.14l5.31-6.933 c0.398-0.52,1.267-0.52,1.665,0l2.6,3.395c0.27,0.353,0.283,0.835,0.034,1.201l-1.829,2.688 c-0.166,0.243-0.428,0.405-0.721,0.446l-6.08,0.851C25.643,19.496,25.593,19.5,25.543,19.5z M30.894,11.518l-5.387,6.933 c-0.008,0.01-0.011,0.014-0.002,0.028l6.129-0.83l1.861-2.706L30.894,11.518z"/><path d="M19.494,19.5h-5.472c-0.267,0-0.528-0.11-0.715-0.303l-1.517-1.555c-0.385-0.395-0.385-1.037,0-1.431l2.349-2.409 c0.367-0.376,0.966-0.402,1.364-0.063l4.639,3.964c0.329,0.281,0.444,0.727,0.293,1.135C20.287,19.241,19.917,19.5,19.494,19.5z M14.854,14.5l-2.348,2.409l1.517,1.589l5.471,0.001l0.323-0.417l-0.325,0.38L14.854,14.5z"/><path d="M23,25.498c-0.281,0-0.561-0.089-0.779-0.269l-2.345-1.926c-0.337-0.277-0.459-0.692-0.319-1.084 c0.154-0.43,0.596-0.719,1.099-0.719h4.689c0.503,0,0.945,0.289,1.099,0.719c0.14,0.392,0.018,0.808-0.319,1.084l-2.345,1.926 C23.561,25.409,23.28,25.498,23,25.498z M20.655,22.5c-0.108,0-0.152,0.045-0.158,0.057l2.357,1.9 c0.07,0.057,0.218,0.058,0.291,0l2.341-1.923c-0.012-0.005-0.058-0.033-0.142-0.033H20.655z"/><path d="M22.59,38.5c-0.256,0-0.505-0.099-0.694-0.284c-0.613-0.602-1.295-1.335-1.76-1.845 c-0.205,0.505-0.375,0.972-0.485,1.354c-0.104,0.365-0.399,0.637-0.77,0.708c-0.364,0.071-0.737-0.068-0.968-0.365 c-0.301-0.387-0.689-0.945-1.03-1.624c-0.105,0.168-0.207,0.36-0.28,0.561c-0.11,0.303-0.351,0.527-0.661,0.614 s-0.648,0.019-0.902-0.184c-1.317-1.052-1.937-2.077-2.224-2.752c-0.097,0.281-0.176,0.561-0.23,0.852 c-0.07,0.377-0.34,0.676-0.706,0.78c-0.368,0.104-0.757-0.008-1.015-0.291C8.598,33.539,6.5,30.508,6.5,25.225 c0-1.937,0.988-5.317,2.142-6.499l1.063-1.09l-0.21,1.508c-0.558,4.003-0.156,6.35,0.268,7.601 c0.204-0.605,0.525-1.212,0.962-1.815c0.251-0.345,0.677-0.49,1.085-0.372c0.416,0.122,0.7,0.484,0.724,0.921 c0.062,1.116,0.203,2.155,0.422,3.09c0.22-0.529,0.502-1.061,0.813-1.546c0.223-0.346,0.626-0.516,1.022-0.433 c0.418,0.087,0.733,0.422,0.802,0.853c0.325,2.028,1.44,3.385,2.076,4.013c0.235-0.869,0.751-1.909,1.336-2.731 c0.204-0.287,0.541-0.438,0.888-0.408c0.357,0.032,0.661,0.247,0.812,0.573c0.405,0.873,1.248,2.16,1.884,3.086 c0.102-1.07,0.284-2.014,0.539-2.821c0.117-0.374,0.431-0.636,0.817-0.684c0.399-0.047,0.773,0.134,0.984,0.478 c0.616,1.001,1.375,1.929,1.904,2.53c0.232-0.706,0.535-1.835,0.633-3.263c0.027-0.388,0.264-0.721,0.619-0.869 c0.343-0.144,0.734-0.082,1.019,0.162c0.945,0.813,2.238,2.144,3.028,3.862c0.497-0.865,1.144-2.413,1.322-4.847 c0.032-0.439,0.323-0.797,0.742-0.912c0.41-0.108,0.832,0.045,1.074,0.398c0.341,0.495,0.616,0.988,0.818,1.467 c0.285-0.939,0.636-2.33,0.686-3.516c0.019-0.449,0.323-0.823,0.756-0.932c0.431-0.108,0.867,0.076,1.092,0.456l0.127,0.222 c0.023-1.653-0.169-4.306-1.226-7.553l-0.627-1.93l1.452,1.417c2.12,2.069,3.151,5.204,3.151,9.583 c0,3.848-1.679,6.627-2.4,7.643c-0.221,0.311-0.589,0.463-0.966,0.402c-0.381-0.064-0.687-0.336-0.797-0.711 c-0.028-0.095-0.058-0.191-0.09-0.288c-0.256,1-0.697,1.98-1.282,2.813c-0.204,0.29-0.537,0.443-0.888,0.41 c-0.36-0.034-0.677-0.261-0.828-0.593c-0.074-0.164-0.152-0.318-0.227-0.459c-0.471,0.871-0.919,1.498-1.212,1.873 c-0.188,0.241-0.469,0.38-0.773,0.381c-0.001,0-0.003,0-0.005,0c-0.301,0-0.583-0.136-0.771-0.374 c-0.24-0.3-0.535-0.608-0.878-0.916c-0.146,0.756-0.433,1.408-0.646,1.828c-0.14,0.274-0.391,0.466-0.688,0.526 c-0.305,0.062-0.612-0.018-0.851-0.218c-0.4-0.334-0.786-0.728-1.148-1.17c-0.179,0.395-0.321,0.779-0.416,1.156 c-0.098,0.388-0.399,0.674-0.787,0.747c-0.386,0.071-0.765-0.084-0.993-0.406c-0.243-0.343-0.598-0.866-0.913-1.415 c-0.166,0.362-0.296,0.773-0.37,1.215c-0.062,0.367-0.319,0.666-0.672,0.781C22.798,38.484,22.693,38.5,22.59,38.5z M20.142,35.372c0.276,0,0.541,0.116,0.732,0.326c0.457,0.5,1.126,1.219,1.722,1.804c0.079-0.535,0.239-1.04,0.465-1.497 c0.161-0.327,0.488-0.538,0.853-0.549c0.361-0.026,0.711,0.18,0.895,0.5c0.23,0.402,0.537,0.876,0.862,1.335 c0.105-0.449,0.271-0.899,0.488-1.344c0.153-0.314,0.448-0.525,0.789-0.564c0.338-0.036,0.662,0.095,0.875,0.356 c0.222,0.271,0.579,0.67,1.017,1.037c0.192-0.361,0.442-0.927,0.572-1.542c0.078-0.366,0.341-0.663,0.687-0.776 c0.333-0.108,0.689-0.033,0.952,0.203c0.385,0.345,0.719,0.694,0.994,1.039c0.249-0.347,0.665-0.929,1.111-1.733 c0.18-0.324,0.539-0.5,0.887-0.521c0.362,0.003,0.693,0.206,0.864,0.527c0.084,0.158,0.171,0.332,0.254,0.515 c0.641-0.91,1.339-2.492,1.339-4.138v-1.939c-0.106,0.047-0.223,0.075-0.345,0.082c-0.422,0.025-0.817-0.222-0.988-0.626 c-0.175-0.416-0.418-0.85-0.72-1.288c-0.188,2.646-0.902,4.343-1.467,5.304c-0.19,0.321-0.541,0.511-0.903,0.489 c-0.37-0.019-0.696-0.242-0.853-0.582c-0.753-1.636-2.06-2.909-2.772-3.522c-0.093,1.553-0.42,2.771-0.676,3.523 c-0.119,0.348-0.401,0.598-0.756,0.668c-0.347,0.07-0.699-0.05-0.937-0.32c-0.555-0.63-1.353-1.604-2.005-2.667 c-0.23,0.725-0.399,1.602-0.498,2.588c-0.043,0.432-0.339,0.779-0.753,0.885c-0.409,0.104-0.823-0.054-1.062-0.403 c-0.658-0.957-1.533-2.295-1.967-3.23c-0.502,0.73-0.962,1.655-1.179,2.407c-0.101,0.351-0.368,0.615-0.714,0.705 c-0.34,0.088-0.689-0.008-0.939-0.255c-0.722-0.714-1.99-2.256-2.36-4.566c-0.277,0.4-0.531,0.88-0.729,1.351 c-0.174,0.414-0.567,0.667-1.011,0.619c-0.436-0.037-0.783-0.341-0.884-0.774c-0.232-0.992-0.382-2.089-0.446-3.263 c-0.668,0.903-1.016,1.812-1.035,2.689l0.639,1.961l-0.64-0.656v1.919l-0.945-2.901C9.208,28.106,8,26.212,8.258,21.495 C7.819,22.71,7.5,24.161,7.5,25.225c0,4.943,1.973,7.789,4.104,10.127c0.064-0.352,0.161-0.693,0.287-1.013 c0.153-0.39,0.517-0.645,0.927-0.65c0.375-0.026,0.757,0.226,0.917,0.604c0.243,0.569,0.774,1.44,1.928,2.363 c0.304-0.832,0.951-1.501,0.979-1.53l0.547-0.561l0.278,0.733c0.35,0.922,0.865,1.682,1.234,2.157 c0.11-0.432,0.289-0.925,0.52-1.47c0.135-0.318,0.417-0.542,0.752-0.599C20.03,35.376,20.086,35.372,20.142,35.372z M36.588,28.366l0.861,1.765c0.022,0.046,0.55,1.133,0.848,2.147c0.654-0.927,2.203-3.492,2.203-7.053 c0-2.786-0.431-5.019-1.311-6.751c0.477,2.188,0.577,3.994,0.559,5.25c-0.007,0.464-0.31,0.85-0.755,0.961 c-0.448,0.11-0.895-0.088-1.119-0.493l-0.111-0.194c-0.044,1.296-0.416,2.772-0.717,3.785 C36.97,28.038,36.805,28.243,36.588,28.366z"/></g><path fill="#cf1928" d="M25.11,18.146l5.309-6.933c0.218-0.284,0.653-0.284,0.871,0l2.6,3.395 c0.139,0.181,0.146,0.428,0.017,0.616l-1.829,2.687c-0.086,0.126-0.223,0.211-0.376,0.232l-6.08,0.851 C25.143,19.061,24.819,18.526,25.11,18.146z"/><path fill="#cf1928" d="M19.817,18.084l-4.639-3.963c-0.201-0.172-0.496-0.158-0.681,0.032l-2.349,2.409 c-0.197,0.202-0.197,0.531,0,0.733l1.517,1.555C13.759,18.945,13.888,19,14.022,19h5.471C19.966,19,20.18,18.394,19.817,18.084z"/><path fill="#cf1928" d="M20.655,22h4.69c0.583,0,0.874,0.579,0.462,0.917l-2.345,1.926c-0.255,0.21-0.669,0.21-0.925,0 l-2.345-1.926C19.781,22.579,20.073,22,20.655,22z"/><path fill="#cf1928" d="M38,16c1.054,3.242,1.275,5.914,1.248,7.716c-0.008,0.523-0.685,0.689-0.936,0.233 c-0.039-0.071-0.079-0.141-0.119-0.209c-0.251-0.425-0.898-0.254-0.919,0.242c-0.051,1.207-0.391,2.596-0.706,3.656 c-0.137,0.461-0.753,0.476-0.939,0.033c-0.217-0.515-0.5-0.987-0.769-1.377c-0.273-0.396-0.871-0.217-0.906,0.266 c-0.188,2.575-0.895,4.203-1.404,5.068c-0.204,0.347-0.701,0.318-0.87-0.048c-0.773-1.679-2.071-2.978-2.9-3.692 c-0.31-0.267-0.783-0.052-0.812,0.362c-0.103,1.489-0.42,2.665-0.664,3.379c-0.126,0.371-0.587,0.471-0.844,0.179 c-0.517-0.588-1.311-1.552-1.955-2.599c-0.225-0.366-0.769-0.316-0.899,0.095c-0.293,0.929-0.444,1.925-0.522,2.704 c-0.047,0.473-0.638,0.639-0.905,0.249c-0.647-0.942-1.506-2.254-1.926-3.158c-0.158-0.341-0.623-0.391-0.84-0.086 c-0.555,0.78-1.043,1.766-1.273,2.564c-0.107,0.372-0.55,0.502-0.822,0.233c-0.745-0.737-1.877-2.167-2.218-4.29 c-0.075-0.466-0.656-0.623-0.91-0.229c-0.298,0.463-0.567,0.974-0.774,1.464c-0.193,0.457-0.834,0.41-0.947-0.075 c-0.183-0.783-0.361-1.842-0.434-3.177c-0.026-0.48-0.625-0.668-0.905-0.282C10,26.781,10,27.961,10,28.3 c-0.1-0.307-0.1-0.307,0,0c0,0-2-2.05-1-9.225c-1,1.025-2,4.202-2,6.15c0,4.675,1.665,7.645,4.234,10.464 c0.28,0.307,0.783,0.169,0.86-0.243c0.066-0.355,0.159-0.663,0.262-0.924c0.166-0.424,0.741-0.452,0.92-0.033 c0.288,0.675,0.875,1.599,2.076,2.558c0.265,0.212,0.664,0.112,0.781-0.211C16.404,36.086,17,35.475,17,35.475 c0.363,0.956,0.887,1.747,1.307,2.287c0.249,0.32,0.75,0.218,0.863-0.174c0.14-0.489,0.342-1.007,0.512-1.407 c0.144-0.339,0.576-0.416,0.823-0.146c0.452,0.495,1.136,1.23,1.741,1.824c0.283,0.278,0.766,0.125,0.832-0.271 c0.095-0.568,0.263-1.022,0.431-1.361c0.175-0.354,0.67-0.363,0.866-0.021c0.258,0.45,0.577,0.936,0.887,1.375 c0.249,0.351,0.781,0.248,0.887-0.173c0.121-0.483,0.298-0.911,0.459-1.241c0.162-0.332,0.596-0.394,0.828-0.11 c0.262,0.32,0.633,0.727,1.082,1.103c0.251,0.21,0.623,0.143,0.773-0.151c0.206-0.404,0.469-1.007,0.61-1.671 c0.082-0.388,0.524-0.565,0.816-0.303c0.294,0.263,0.635,0.6,0.936,0.978c0.197,0.248,0.569,0.245,0.764-0.005 c0.296-0.38,0.721-0.979,1.175-1.798c0.193-0.348,0.686-0.353,0.872-0.001c0.08,0.15,0.162,0.314,0.24,0.487 c0.159,0.35,0.631,0.416,0.851,0.102C36.34,33.681,37,32.016,37,30.35c0,0,0.528,1.083,0.817,2.069 c0.117,0.401,0.634,0.498,0.875,0.159C39.716,31.136,41,28.51,41,25.225C41,21.125,40.1,18.05,38,16z"/></svg>