<svg xmlns="http://www.w3.org/2000/svg" viewBox="0 0 48 48"><linearGradient id="No84_EJ6idRIWtc9xaig1a" x1="22.787" x2="33.42" y1="-1209.032" y2="-1209.032" gradientTransform="matrix(1 0 0 -1 0 -1185.967)" gradientUnits="userSpaceOnUse"><stop offset="0" stop-color="#f45560"/><stop offset="1" stop-color="#cf1928"/></linearGradient><path fill="url(#No84_EJ6idRIWtc9xaig1a)" d="M17.802,43.129l-1.917-0.57L26.572,6.611c0.292-0.983,1.066-1.749,2.052-2.03l5.464-1.561	c0.265-0.076,0.542,0.078,0.618,0.343l0.275,0.961c0.076,0.266-0.078,0.542-0.343,0.618l-5.464,1.561	c-0.329,0.094-0.587,0.349-0.684,0.677L17.802,43.129z"/><path fill="#ccc" d="M38,14H10v-1c0-1.657,1.343-3,3-3h22c1.657,0,3,1.343,3,3V14z"/><linearGradient id="No84_EJ6idRIWtc9xaig1b" x1="20.486" x2="30.093" y1="-1199.004" y2="-1229.544" gradientTransform="matrix(1 0 0 -1 0 -1185.967)" gradientUnits="userSpaceOnUse"><stop offset="0" stop-color="#f45560"/><stop offset="1" stop-color="#cf1928"/></linearGradient><path fill="url(#No84_EJ6idRIWtc9xaig1b)" d="M12,14l2.809,29.213C14.917,44.229,15.775,45,16.797,45h14.406	c1.022,0,1.88-0.771,1.989-1.787L36,14H12z"/><linearGradient id="No84_EJ6idRIWtc9xaig1c" x1="18.5" x2="18.5" y1="27.149" y2="15.941" gradientUnits="userSpaceOnUse"><stop offset=".002" stop-color="#454545"/><stop offset=".013" stop-color="#464646"/><stop offset=".875" stop-color="#626262"/><stop offset="1" stop-color="#6d6d6d"/></linearGradient><circle cx="18.5" cy="25.517" r="2.5" fill="url(#No84_EJ6idRIWtc9xaig1c)"/><linearGradient id="No84_EJ6idRIWtc9xaig1d" x1="29.5" x2="29.5" y1="27.149" y2="15.941" gradientUnits="userSpaceOnUse"><stop offset=".002" stop-color="#454545"/><stop offset=".013" stop-color="#464646"/><stop offset=".875" stop-color="#626262"/><stop offset="1" stop-color="#6d6d6d"/></linearGradient><circle cx="29.5" cy="25.517" r="2.5" fill="url(#No84_EJ6idRIWtc9xaig1d)"/><linearGradient id="No84_EJ6idRIWtc9xaig1e" x1="18" x2="18" y1="22.252" y2="27.899" gradientUnits="userSpaceOnUse"><stop offset="0" stop-color="#f9f9f9"/><stop offset="1" stop-color="#c2c8cc"/></linearGradient><circle cx="18" cy="25.017" r="1" fill="url(#No84_EJ6idRIWtc9xaig1e)"/><linearGradient id="No84_EJ6idRIWtc9xaig1f" x1="29" x2="29" y1="22.252" y2="27.899" gradientUnits="userSpaceOnUse"><stop offset="0" stop-color="#f9f9f9"/><stop offset="1" stop-color="#c2c8cc"/></linearGradient><circle cx="29" cy="25.017" r="1" fill="url(#No84_EJ6idRIWtc9xaig1f)"/><path fill="#f09ca2" d="M17,32.017c0,1.1-0.9,2-2,2c-0.41,0-0.79-0.12-1.11-0.33l-0.29-3.09c0.36-0.36,0.85-0.58,1.4-0.58	C16.1,30.017,17,30.917,17,32.017z"/><path fill="#f09ca2" d="M34.4,30.597l-0.29,3.09c-0.32,0.21-0.7,0.33-1.11,0.33c-1.1,0-2-0.9-2-2c0-1.1,0.9-2,2-2	C33.55,30.017,34.04,30.237,34.4,30.597z"/><linearGradient id="No84_EJ6idRIWtc9xaig1g" x1="24" x2="24" y1="35.37" y2="23.63" gradientUnits="userSpaceOnUse"><stop offset=".002" stop-color="#454545"/><stop offset=".013" stop-color="#464646"/><stop offset=".875" stop-color="#626262"/><stop offset="1" stop-color="#6d6d6d"/></linearGradient><path fill="url(#No84_EJ6idRIWtc9xaig1g)" d="M24,35.017c-2.206,0-4-1.794-4-4c0-0.553,0.447-1,1-1s1,0.447,1,1c0,1.103,0.897,2,2,2	s2-0.897,2-2c0-0.553,0.447-1,1-1s1,0.447,1,1C28,33.223,26.206,35.017,24,35.017z"/></svg>