<svg xmlns="http://www.w3.org/2000/svg" viewBox="0 0 48 48"><rect width="36" height="29" x="6" y="10" fill="#195bbc"/><linearGradient id="U6JfzfLdooePfAaODD~02a" x1="5" x2="43" y1="24.5" y2="24.5" gradientUnits="userSpaceOnUse"><stop offset="0" stop-color="#3079d6"/><stop offset="1" stop-color="#297cd2"/></linearGradient><path fill="url(#U6JfzfLdooePfAaODD~02a)" d="M43,40H5V9h38V40z M7,38h34V11H7V38z"/><path fill="#6ad7fc" d="M29,23h-2.184c-0.413-1.163-1.512-2-2.816-2c-1.657,0-3,1.343-3,3s1.343,3,3,3	c1.304,0,2.403-0.837,2.816-2H29c0.552,0,1-0.448,1-1C30,23.448,29.552,23,29,23z"/><circle cx="42" cy="10" r="3" fill="#6ad7fc"/><circle cx="6" cy="10" r="3" fill="#6ad7fc"/><circle cx="42" cy="38" r="3" fill="#6ad7fc"/><circle cx="6" cy="38" r="3" fill="#6ad7fc"/></svg>