<svg xmlns="http://www.w3.org/2000/svg" viewBox="0 0 48 48"><path fill="#50e6ff" d="M8,6h32c1.105,0,2,0.895,2,2v32c0,1.105-0.895,2-2,2H8c-1.105,0-2-0.895-2-2V8C6,6.895,6.895,6,8,6z"/><path d="M18.019,39c-3.857,0-6.995-3.14-6.995-7s3.138-7,6.995-7h11.963c3.857,0,6.995,3.14,6.995,7	c0,1.87-0.728,3.627-2.049,4.95C33.606,38.272,31.85,39,29.982,39H18.019z" opacity=".05"/><path d="M18.019,38.5c-3.581,0-6.495-2.916-6.495-6.5s2.914-6.5,6.495-6.5h11.963	c3.581,0,6.495,2.916,6.495,6.5c0,1.736-0.675,3.368-1.902,4.596c-1.227,1.228-2.857,1.904-4.592,1.904H18.019z" opacity=".07"/><path fill="#e92d3b" d="M29.831,26.002c-3.215,0-8.447,0-11.663,0c-3.379-0.083-6.145,2.635-6.145,5.998	s2.766,6.081,6.145,5.998c3.215,0,8.447,0,11.663,0c3.379,0.083,6.145-2.635,6.145-5.998S33.211,25.919,29.831,26.002z"/><path d="M18.019,23c-3.857,0-6.995-3.14-6.995-7s3.138-7,6.995-7h11.963c3.857,0,6.995,3.14,6.995,7	c0,1.87-0.728,3.627-2.049,4.95C33.606,22.272,31.85,23,29.982,23H18.019z" opacity=".05"/><path d="M18.019,22.5c-3.581,0-6.495-2.916-6.495-6.5s2.914-6.5,6.495-6.5h11.963	c3.581,0,6.495,2.916,6.495,6.5c0,1.736-0.675,3.368-1.902,4.596c-1.227,1.228-2.857,1.904-4.592,1.904H18.019z" opacity=".07"/><path fill="#0078d4" d="M29.831,10.002c-3.215,0-8.447,0-11.663,0c-3.379-0.083-6.145,2.635-6.145,5.998	s2.766,6.081,6.145,5.998c3.215,0,8.447,0,11.663,0c3.379,0.083,6.145-2.635,6.145-5.998S33.211,9.919,29.831,10.002z"/><radialGradient id="mhu1WWIQPxMljZhds5nIwa" cx="30" cy="16" r="4.958" gradientUnits="userSpaceOnUse"><stop offset="0"/><stop offset="1" stop-opacity="0"/></radialGradient><circle cx="30" cy="16" r="4.958" fill="url(#mhu1WWIQPxMljZhds5nIwa)"/><circle cx="30" cy="16" r="4" fill="#fff"/><radialGradient id="mhu1WWIQPxMljZhds5nIwb" cx="18" cy="32" r="5" gradientUnits="userSpaceOnUse"><stop offset="0"/><stop offset="1" stop-opacity="0"/></radialGradient><circle cx="18" cy="32" r="5" fill="url(#mhu1WWIQPxMljZhds5nIwb)"/><circle cx="18" cy="32" r="4" fill="#fff"/></svg>