<svg xmlns="http://www.w3.org/2000/svg" viewBox="0 0 48 48"><linearGradient id="B~Apt4H64jFEnQEd98aqBa" x1="7.791" x2="35.621" y1=".951" y2="40.525" gradientUnits="userSpaceOnUse"><stop offset="0" stop-color="#5961c3"/><stop offset="1" stop-color="#3a41ac"/></linearGradient><path fill="url(#B~Apt4H64jFEnQEd98aqBa)" d="M9.597,10.951l4.444-4.376C14.415,6.206,14.919,6,15.444,6H37c1.105,0,2,0.895,2,2v32	c0,1.105-0.895,2-2,2H11c-1.105,0-2-0.895-2-2V12.376C9,11.84,9.215,11.327,9.597,10.951z"/><path fill-rule="evenodd" d="M35.5,15c-0.827,0-1.5-0.673-1.5-1.5v-5	C34,7.673,34.673,7,35.5,7h1C37.327,7,38,7.673,38,8.5v5c0,0.827-0.673,1.5-1.5,1.5H35.5z" clip-rule="evenodd" opacity=".05"/><path fill-rule="evenodd" d="M35.5,14.5c-0.552,0-1-0.449-1-1v-5c0-0.551,0.448-1,1-1h1	c0.552,0,1,0.449,1,1v5c0,0.551-0.448,1-1,1H35.5z" clip-rule="evenodd" opacity=".07"/><linearGradient id="B~Apt4H64jFEnQEd98aqBb" x1="36" x2="36" y1="6.83" y2="14.343" gradientUnits="userSpaceOnUse"><stop offset="0" stop-color="#ffda1c"/><stop offset="1" stop-color="#feb705"/></linearGradient><path fill="url(#B~Apt4H64jFEnQEd98aqBb)" fill-rule="evenodd" d="M35.5,8h1C36.776,8,37,8.224,37,8.5v5	c0,0.276-0.224,0.5-0.5,0.5h-1c-0.276,0-0.5-0.224-0.5-0.5v-5C35,8.224,35.224,8,35.5,8z" clip-rule="evenodd"/><path fill-rule="evenodd" d="M31.5,15c-0.827,0-1.5-0.673-1.5-1.5v-5	C30,7.673,30.673,7,31.5,7h1C33.327,7,34,7.673,34,8.5v5c0,0.827-0.673,1.5-1.5,1.5H31.5z" clip-rule="evenodd" opacity=".05"/><path fill-rule="evenodd" d="M31.5,14.5c-0.552,0-1-0.449-1-1v-5c0-0.551,0.448-1,1-1h1	c0.552,0,1,0.449,1,1v5c0,0.551-0.448,1-1,1H31.5z" clip-rule="evenodd" opacity=".07"/><linearGradient id="B~Apt4H64jFEnQEd98aqBc" x1="32" x2="32" y1="6.83" y2="14.343" gradientUnits="userSpaceOnUse"><stop offset="0" stop-color="#ffda1c"/><stop offset="1" stop-color="#feb705"/></linearGradient><path fill="url(#B~Apt4H64jFEnQEd98aqBc)" fill-rule="evenodd" d="M31.5,8h1C32.776,8,33,8.224,33,8.5v5	c0,0.276-0.224,0.5-0.5,0.5h-1c-0.276,0-0.5-0.224-0.5-0.5v-5C31,8.224,31.224,8,31.5,8z" clip-rule="evenodd"/><path fill-rule="evenodd" d="M27.5,15c-0.827,0-1.5-0.673-1.5-1.5v-5	C26,7.673,26.673,7,27.5,7h1C29.327,7,30,7.673,30,8.5v5c0,0.827-0.673,1.5-1.5,1.5H27.5z" clip-rule="evenodd" opacity=".05"/><path fill-rule="evenodd" d="M27.5,14.5c-0.552,0-1-0.449-1-1v-5c0-0.551,0.448-1,1-1h1	c0.552,0,1,0.449,1,1v5c0,0.551-0.448,1-1,1H27.5z" clip-rule="evenodd" opacity=".07"/><linearGradient id="B~Apt4H64jFEnQEd98aqBd" x1="28" x2="28" y1="6.83" y2="14.343" gradientUnits="userSpaceOnUse"><stop offset="0" stop-color="#ffda1c"/><stop offset="1" stop-color="#feb705"/></linearGradient><path fill="url(#B~Apt4H64jFEnQEd98aqBd)" fill-rule="evenodd" d="M27.5,8h1C28.776,8,29,8.224,29,8.5v5	c0,0.276-0.224,0.5-0.5,0.5h-1c-0.276,0-0.5-0.224-0.5-0.5v-5C27,8.224,27.224,8,27.5,8z" clip-rule="evenodd"/><path fill-rule="evenodd" d="M23.5,15c-0.827,0-1.5-0.673-1.5-1.5v-5	C22,7.673,22.673,7,23.5,7h1C25.327,7,26,7.673,26,8.5v5c0,0.827-0.673,1.5-1.5,1.5H23.5z" clip-rule="evenodd" opacity=".05"/><path fill-rule="evenodd" d="M23.5,14.5c-0.552,0-1-0.449-1-1v-5c0-0.551,0.448-1,1-1h1	c0.552,0,1,0.449,1,1v5c0,0.551-0.448,1-1,1H23.5z" clip-rule="evenodd" opacity=".07"/><linearGradient id="B~Apt4H64jFEnQEd98aqBe" x1="24" x2="24" y1="6.83" y2="14.343" gradientUnits="userSpaceOnUse"><stop offset="0" stop-color="#ffda1c"/><stop offset="1" stop-color="#feb705"/></linearGradient><path fill="url(#B~Apt4H64jFEnQEd98aqBe)" fill-rule="evenodd" d="M23.5,8h1C24.776,8,25,8.224,25,8.5v5	c0,0.276-0.224,0.5-0.5,0.5h-1c-0.276,0-0.5-0.224-0.5-0.5v-5C23,8.224,23.224,8,23.5,8z" clip-rule="evenodd"/><path fill-rule="evenodd" d="M19.5,15c-0.827,0-1.5-0.673-1.5-1.5v-5	C18,7.673,18.673,7,19.5,7h1C21.327,7,22,7.673,22,8.5v5c0,0.827-0.673,1.5-1.5,1.5H19.5z" clip-rule="evenodd" opacity=".05"/><path fill-rule="evenodd" d="M19.5,14.5c-0.552,0-1-0.449-1-1v-5c0-0.551,0.448-1,1-1h1	c0.552,0,1,0.449,1,1v5c0,0.551-0.448,1-1,1H19.5z" clip-rule="evenodd" opacity=".07"/><linearGradient id="B~Apt4H64jFEnQEd98aqBf" x1="20" x2="20" y1="6.83" y2="14.343" gradientUnits="userSpaceOnUse"><stop offset="0" stop-color="#ffda1c"/><stop offset="1" stop-color="#feb705"/></linearGradient><path fill="url(#B~Apt4H64jFEnQEd98aqBf)" fill-rule="evenodd" d="M19.5,8h1C20.776,8,21,8.224,21,8.5v5	c0,0.276-0.224,0.5-0.5,0.5h-1c-0.276,0-0.5-0.224-0.5-0.5v-5C19,8.224,19.224,8,19.5,8z" clip-rule="evenodd"/><path fill-rule="evenodd" d="M15.5,15c-0.827,0-1.5-0.673-1.5-1.5v-5	C14,7.673,14.673,7,15.5,7h1C17.327,7,18,7.673,18,8.5v5c0,0.827-0.673,1.5-1.5,1.5H15.5z" clip-rule="evenodd" opacity=".05"/><path fill-rule="evenodd" d="M15.5,14.5c-0.552,0-1-0.449-1-1v-5c0-0.551,0.448-1,1-1h1	c0.552,0,1,0.449,1,1v5c0,0.551-0.448,1-1,1H15.5z" clip-rule="evenodd" opacity=".07"/><linearGradient id="B~Apt4H64jFEnQEd98aqBg" x1="16" x2="16" y1="6.83" y2="14.343" gradientUnits="userSpaceOnUse"><stop offset="0" stop-color="#ffda1c"/><stop offset="1" stop-color="#feb705"/></linearGradient><path fill="url(#B~Apt4H64jFEnQEd98aqBg)" fill-rule="evenodd" d="M15.5,8h1C16.776,8,17,8.224,17,8.5v5	c0,0.276-0.224,0.5-0.5,0.5h-1c-0.276,0-0.5-0.224-0.5-0.5v-5C15,8.224,15.224,8,15.5,8z" clip-rule="evenodd"/><path fill-rule="evenodd" d="M11.5,15c-0.827,0-1.5-0.673-1.5-1.5v-1.543l4-3.938V13.5	c0,0.827-0.673,1.5-1.5,1.5H11.5z" clip-rule="evenodd" opacity=".05"/><path fill-rule="evenodd" d="M11.5,14.5c-0.552,0-1-0.449-1-1v-1.333l3-2.954V13.5	c0,0.551-0.448,1-1,1H11.5z" clip-rule="evenodd" opacity=".07"/><linearGradient id="B~Apt4H64jFEnQEd98aqBh" x1="12" x2="12" y1="6.83" y2="14.343" gradientUnits="userSpaceOnUse"><stop offset="0" stop-color="#ffda1c"/><stop offset="1" stop-color="#feb705"/></linearGradient><path fill="url(#B~Apt4H64jFEnQEd98aqBh)" fill-rule="evenodd" d="M13,10.407l-2,1.969V13.5c0,0.276,0.224,0.5,0.5,0.5h1	c0.276,0,0.5-0.224,0.5-0.5V10.407z" clip-rule="evenodd"/></svg>