<svg xmlns="http://www.w3.org/2000/svg" viewBox="0 0 48 48"><path fill="#eb6773" d="M37,6c0-1.105-0.895-2-2-2H13c-1.105,0-2,0.895-2,2v4h26V6z"/><path fill="#b31523" d="M11,41.72c0,0.996,1.092,1.606,1.94,1.084L24,35.998l11.06,6.806C35.908,43.326,37,42.716,37,41.72	V30H11V41.72z"/><rect width="26" height="12" x="11" y="18" fill="#cf1928"/><rect width="26" height="8" x="11" y="10" fill="#d9414f"/><radialGradient id="ubywhEL8b9KRXkgPKUsFqa" cx="37.181" cy="24.128" r="11.585" gradientUnits="userSpaceOnUse"><stop offset=".348"/><stop offset=".936" stop-opacity=".098"/><stop offset="1" stop-opacity="0"/></radialGradient><path fill="url(#ubywhEL8b9KRXkgPKUsFqa)" d="M37,12.051C30.851,12.562,26,17.72,26,24	s4.851,11.438,11,11.949V12.051z" opacity=".3"/><linearGradient id="ubywhEL8b9KRXkgPKUsFqb" x1="30.929" x2="45.071" y1="-170.929" y2="-185.071" gradientTransform="matrix(1 0 0 -1 0 -154)" gradientUnits="userSpaceOnUse"><stop offset="0" stop-color="#f44f5a"/><stop offset=".443" stop-color="#ee3d4a"/><stop offset="1" stop-color="#e52030"/></linearGradient><path fill="url(#ubywhEL8b9KRXkgPKUsFqb)" d="M48,24c0,5.522-4.478,10-10,10s-10-4.478-10-10s4.478-10,10-10S48,18.478,48,24z"/><path fill="#fff" d="M41.536,19.757l0.707,0.707c0.195,0.195,0.195,0.512,0,0.707l-7.071,7.071 c-0.195,0.195-0.512,0.195-0.707,0l-0.707-0.707c-0.195-0.195-0.195-0.512,0-0.707l7.071-7.071 C41.024,19.562,41.34,19.562,41.536,19.757z"/><path fill="#fff" d="M42.243,27.536l-0.707,0.707c-0.195,0.195-0.512,0.195-0.707,0l-7.071-7.071 c-0.195-0.195-0.195-0.512,0-0.707l0.707-0.707c0.195-0.195,0.512-0.195,0.707,0l7.071,7.071 C42.438,27.024,42.438,27.34,42.243,27.536z"/></svg>