<svg xmlns="http://www.w3.org/2000/svg" viewBox="0 0 48 48"><linearGradient id="-G1PKl6Gual4W0kpA_a6Fa" x1="17.122" x2="36.237" y1="69.942" y2="108.492" gradientTransform="translate(0 -66)" gradientUnits="userSpaceOnUse"><stop offset="0" stop-color="#f44f5a"/><stop offset=".443" stop-color="#ee3d4a"/><stop offset="1" stop-color="#e52030"/></linearGradient><path fill="url(#-G1PKl6Gual4W0kpA_a6Fa)" d="M23.828,6.172L6.2,23.8c-1.574,1.574-1.574,4.126,0,5.7l12.3,12.3	c1.574,1.574,4.126,1.574,5.7,0l17.628-17.628c0.75-0.75,1.172-1.768,1.172-2.828V9c0-2.2-1.8-4-4-4H26.657	C25.596,5,24.579,5.421,23.828,6.172z M37,13c-1.1,0-2-0.9-2-2s0.9-2,2-2s2,0.9,2,2S38.1,13,37,13"/><path d="M31.861,26.46c-1.055-1.054-2.276-1.549-3.599-1.511c-0.216,0.008-0.426,0.053-0.638,0.091	l3.401-3.401l-3.997-3.998l-4.454,2.166l2.17-4.45l-4.062-4.062l-9.308,9.308l3.388,3.388l1.068-1.068l-0.689,1.446l2.701,2.704	l1.331-0.648l-0.989,0.989l3.533,3.533l1.253-1.253c-0.033,0.187-0.078,0.371-0.089,0.561c-0.074,1.328,0.421,2.535,1.472,3.586	c0.989,0.989,2.119,1.489,3.365,1.489c0.094,0,0.188-0.003,0.283-0.009c1.293-0.078,2.514-0.683,3.624-1.795	c1.05-1.048,1.619-2.221,1.694-3.485C33.402,28.716,32.911,27.511,31.861,26.46z M18.385,23.85l-0.033-0.032l0.053-0.111l0.09,0.09	L18.385,23.85z M28.739,29.548c0,0.002-0.037,0.218-0.485,0.666c-0.52,0.52-0.761,0.553-0.72,0.537	c-0.024-0.025-0.041-0.045-0.051-0.053c0.024-0.074,0.123-0.299,0.499-0.675c0.4-0.401,0.633-0.467,0.675-0.491	c0.001,0,0.016,0.009,0.043,0.036l0.94-0.94L28.739,29.548z" opacity=".05"/><path d="M30.086,21.639l-8.367,8.367l-2.593-2.593l3.327-3.327l-4.474,2.181l-2.035-2.036l2.153-4.515	l-3.334,3.334l-2.447-2.447l8.367-8.367l3.256,3.256l-2.807,5.756l5.762-2.802L30.086,21.639z M32.658,30.001	c-0.065,1.098-0.57,2.125-1.501,3.055c-0.993,0.994-2.068,1.534-3.195,1.603c-0.079,0.005-0.159,0.007-0.238,0.007	c-1.065,0-2.039-0.435-2.899-1.294c-0.911-0.912-1.341-1.947-1.277-3.079c0.06-1.102,0.579-2.15,1.544-3.116	c0.997-0.996,2.072-1.521,3.196-1.563c1.144-0.021,2.187,0.399,3.104,1.316C32.3,27.841,32.727,28.873,32.658,30.001z M29.17,29.098	c-0.149-0.149-0.297-0.219-0.472-0.219c-0.043,0-0.088,0.004-0.134,0.012c-0.313,0.054-0.667,0.277-1.053,0.663	c-1.058,1.058-0.661,1.454-0.447,1.667c0.166,0.168,0.563,0.562,1.659-0.537C29.739,29.669,29.369,29.298,29.17,29.098z" opacity=".07"/><path fill="#fff" d="M21.719,29.065l-1.652-1.652l4.444-4.444c0.48-0.48,1.031-0.99,1.652-1.528l-0.041-0.041 c-0.542,0.369-0.948,0.621-1.217,0.752l-6.789,3.309l-1.367-1.367l3.227-6.769c0.086-0.182,0.353-0.606,0.802-1.269l-0.046-0.046 c-0.688,0.778-1.308,1.442-1.86,1.994l-4.107,4.107l-1.507-1.507l7.427-7.427l2.45,2.45l-2.885,5.919 c-0.231,0.473-0.498,0.915-0.798,1.327l0.03,0.03c0.505-0.317,0.961-0.577,1.368-0.777l5.91-2.874l2.387,2.387L21.719,29.065z"/><path fill="#fff" d="M25.295,32.901c-0.776-0.776-1.137-1.633-1.085-2.572c0.051-0.939,0.502-1.833,1.351-2.683 c0.877-0.877,1.794-1.333,2.749-1.368c0.956-0.036,1.826,0.339,2.61,1.123c0.773,0.773,1.13,1.626,1.073,2.561 c-0.056,0.934-0.492,1.809-1.306,2.624c-0.88,0.88-1.803,1.35-2.766,1.409C26.957,34.052,26.082,33.687,25.295,32.901z M29.64,28.628c-0.34-0.34-0.736-0.471-1.189-0.392s-0.923,0.361-1.41,0.848c-1.019,1.019-1.168,1.887-0.447,2.608 c0.687,0.687,1.554,0.509,2.6-0.538C30.185,30.163,30.333,29.321,29.64,28.628z"/></svg>