<svg xmlns="http://www.w3.org/2000/svg" viewBox="0 0 48 48"><path fill="#ffadc8" d="M39,42H9c-1.657,0-3-1.343-3-3V9c0-1.657,1.343-3,3-3h30c1.657,0,3,1.343,3,3v30 C42,40.657,40.657,42,39,42z"/><path fill="#e72636" d="M17,39c-0.38,0-0.743-0.218-0.911-0.586c-2.675-5.884-1.324-10.61-0.018-15.181 c1.202-4.206,2.337-8.179,0.034-12.786c-0.247-0.494-0.047-1.095,0.447-1.342c0.495-0.246,1.095-0.047,1.342,0.447 c2.651,5.304,1.354,9.842,0.101,14.229c-1.263,4.418-2.455,8.59-0.085,13.804c0.229,0.503,0.006,1.096-0.497,1.324 C17.28,38.972,17.139,39,17,39z"/><path fill="#e72636" d="M24,39c-0.38,0-0.743-0.218-0.911-0.586c-2.675-5.884-1.324-10.61-0.018-15.181 c1.202-4.206,2.337-8.179,0.034-12.786c-0.247-0.494-0.047-1.095,0.447-1.342c0.495-0.246,1.095-0.047,1.342,0.447 c2.651,5.304,1.354,9.842,0.101,14.229c-1.263,4.418-2.455,8.59-0.085,13.804c0.229,0.503,0.006,1.096-0.497,1.324 C24.28,38.972,24.139,39,24,39z"/><path fill="#e72636" d="M31,39c-0.38,0-0.743-0.218-0.911-0.586c-2.675-5.884-1.324-10.61-0.018-15.181 c1.202-4.206,2.337-8.179,0.034-12.786c-0.247-0.494-0.047-1.095,0.447-1.342c0.495-0.246,1.095-0.047,1.342,0.447 c2.651,5.304,1.354,9.842,0.101,14.229c-1.263,4.418-2.455,8.59-0.085,13.804c0.229,0.503,0.006,1.096-0.497,1.324 C31.28,38.972,31.139,39,31,39z"/></svg>