<svg xmlns="http://www.w3.org/2000/svg" xmlns:xlink="http://www.w3.org/1999/xlink" data-name="Слой 1" viewBox="0 0 48 48"><defs><linearGradient id="RWEb9JCQMhmyfnyyagmzqb" x1="24" x2="24" y1="216.028" y2="194.454" data-name="Безымянный градиент 33" gradientTransform="matrix(1 0 0 -1 0 224)" gradientUnits="userSpaceOnUse"><stop offset="0" stop-color="#c26715"/><stop offset=".492" stop-color="#c06515"/><stop offset=".669" stop-color="#b95f14"/><stop offset=".795" stop-color="#ae5514"/><stop offset=".897" stop-color="#9d4613"/><stop offset=".984" stop-color="#873311"/><stop offset="1" stop-color="#822f11"/></linearGradient><linearGradient id="RWEb9JCQMhmyfnyyagmzqc" x1="24.639" x2="24.639" y1="26.13" y2="33.034" data-name="Безымянный градиент 32" gradientUnits="userSpaceOnUse"><stop offset=".487" stop-color="#c26715"/><stop offset=".637" stop-color="#be6015"/><stop offset=".85" stop-color="#b54e16"/><stop offset=".979" stop-color="#ad3f16"/></linearGradient><linearGradient id="RWEb9JCQMhmyfnyyagmzqd" x1="24" x2="24" y1="-4282.951" y2="-4292.994" data-name="Безымянный градиент 16" gradientTransform="matrix(1 0 0 -1 0 -4250)" gradientUnits="userSpaceOnUse"><stop offset="0" stop-color="#2aa4f4"/><stop offset="1" stop-color="#007ad9"/></linearGradient><linearGradient id="RWEb9JCQMhmyfnyyagmzqa" x1="15.702" x2="28.468" y1="13.11" y2="30.034" data-name="Безымянный градиент 34" gradientUnits="userSpaceOnUse"><stop offset="0" stop-color="#33d7f0"/><stop offset=".127" stop-color="#30d2ed"/><stop offset=".281" stop-color="#27c3e6"/><stop offset=".449" stop-color="#18abd9"/><stop offset=".626" stop-color="#0389c7"/><stop offset=".652" stop-color="#0083c4"/></linearGradient><linearGradient id="RWEb9JCQMhmyfnyyagmzqe" x1="23.402" x2="43.946" y1="13.477" y2="32.716" xlink:href="#RWEb9JCQMhmyfnyyagmzqa"/></defs><path fill="url(#RWEb9JCQMhmyfnyyagmzqb)" d="M24,8a.95984.95984,0,0,0-1,.913V29h2V8.913A.95984.95984,0,0,0,24,8Z"/><path fill="url(#RWEb9JCQMhmyfnyyagmzqc)" d="M9,35H39l3.14506-5.50386A1,1,0,0,0,41.27682,28H8a1,1,0,0,0-1,1v1.05573a4,4,0,0,0,.42229,1.78885Z"/><path fill="url(#RWEb9JCQMhmyfnyyagmzqd)" d="M42,34a5.60654,5.60654,0,0,1-3-1,5.60654,5.60654,0,0,1-3,1,5.60654,5.60654,0,0,1-3-1,5.60654,5.60654,0,0,1-3,1,5.60654,5.60654,0,0,1-3-1,5.60654,5.60654,0,0,1-3,1,5.60654,5.60654,0,0,1-3-1,5.60654,5.60654,0,0,1-3,1,5.60654,5.60654,0,0,1-3-1,5.60654,5.60654,0,0,1-3,1,5.60654,5.60654,0,0,1-3-1,5.60654,5.60654,0,0,1-3,1,5.60654,5.60654,0,0,1-3-1v8a1.99945,1.99945,0,0,0,2,2H43a1.99945,1.99945,0,0,0,2-2V33A5.60654,5.60654,0,0,1,42,34Z"/><path fill="url(#RWEb9JCQMhmyfnyyagmzqa)" d="M25,7.09438V22.815A2.34075,2.34075,0,0,1,22.52981,25H11.23715a1.09375,1.09375,0,0,1-1.03122-1.69375L22.70582,6.5323A1.267,1.267,0,0,1,25,7.09438Z"/><path fill="url(#RWEb9JCQMhmyfnyyagmzqe)" d="M26.326,9.0991a58.3261,58.3261,0,0,1-.30441,15.68953.99336.99336,0,0,0,1.10319,1.20091l11.02265-1.593a.99813.99813,0,0,0,.7381-1.45054A58.71312,58.71312,0,0,0,27.99321,8.247.99145.99145,0,0,0,26.326,9.0991Z"/></svg>