<svg xmlns="http://www.w3.org/2000/svg" viewBox="0 0 48 48"><path fill="#50e6ff" d="M37,42H11l-5-3V9l5.5-3h25L42,9v30L37,42z"/><linearGradient id="FWQyyIejymmddyzOu_nCqa" x1="-933.895" x2="-933.895" y1="-1045" y2="-1048" gradientTransform="matrix(1 0 0 -1 974.395 -1009)" gradientUnits="userSpaceOnUse"><stop offset=".478" stop-color="#199ae0"/><stop offset=".868" stop-color="#1186cc"/><stop offset="1" stop-color="#076cb3"/></linearGradient><path fill="url(#FWQyyIejymmddyzOu_nCqa)" d="M41.5,36h-2c-0.276,0-0.5,0.224-0.5,0.5V39h3v-2.5C42,36.224,41.776,36,41.5,36z"/><linearGradient id="FWQyyIejymmddyzOu_nCqb" x1="-933.895" x2="-933.895" y1="-26" y2="-29" gradientTransform="translate(974.395 38)" gradientUnits="userSpaceOnUse"><stop offset=".478" stop-color="#199ae0"/><stop offset=".868" stop-color="#1186cc"/><stop offset="1" stop-color="#076cb3"/></linearGradient><path fill="url(#FWQyyIejymmddyzOu_nCqb)" d="M41.5,12h-2c-0.276,0-0.5-0.224-0.5-0.5V9h3v2.5C42,11.776,41.776,12,41.5,12z"/><linearGradient id="FWQyyIejymmddyzOu_nCqc" x1="37.898" x2="39.21" y1="34.022" y2="41.462" gradientUnits="userSpaceOnUse"><stop offset="0" stop-color="#32bdef"/><stop offset=".661" stop-color="#25abe8"/><stop offset="1" stop-color="#1ea2e4"/></linearGradient><path fill="url(#FWQyyIejymmddyzOu_nCqc)" d="M36,39.5v2c0,0.276,0.224,0.5,0.5,0.5h1.375c1.5,0,2.625-1.125,4.125-3h-5.5	C36.224,39,36,39.224,36,39.5z"/><linearGradient id="FWQyyIejymmddyzOu_nCqd" x1="37.474" x2="39.058" y1="-25.881" y2="-16.9" gradientTransform="translate(0 26)" gradientUnits="userSpaceOnUse"><stop offset="0" stop-color="#32bdef"/><stop offset=".661" stop-color="#25abe8"/><stop offset="1" stop-color="#1ea2e4"/></linearGradient><path fill="url(#FWQyyIejymmddyzOu_nCqd)" d="M36.5,9H42c-1.5-1.875-2.625-3-4.125-3H36.5C36.224,6,36,6.224,36,6.5v2	C36,8.776,36.224,9,36.5,9z"/><linearGradient id="FWQyyIejymmddyzOu_nCqe" x1="-959.895" x2="-959.895" y1="-1045" y2="-1048" gradientTransform="rotate(180 -476.197 -504.5)" gradientUnits="userSpaceOnUse"><stop offset=".478" stop-color="#199ae0"/><stop offset=".868" stop-color="#1186cc"/><stop offset="1" stop-color="#076cb3"/></linearGradient><path fill="url(#FWQyyIejymmddyzOu_nCqe)" d="M6,36.5V39h3v-2.5C9,36.224,8.776,36,8.5,36h-2C6.224,36,6,36.224,6,36.5z"/><linearGradient id="FWQyyIejymmddyzOu_nCqf" x1="-959.895" x2="-959.895" y1="-26" y2="-29" gradientTransform="matrix(-1 0 0 1 -952.395 38)" gradientUnits="userSpaceOnUse"><stop offset=".478" stop-color="#199ae0"/><stop offset=".868" stop-color="#1186cc"/><stop offset="1" stop-color="#076cb3"/></linearGradient><path fill="url(#FWQyyIejymmddyzOu_nCqf)" d="M6,11.5V9h3v2.5C9,11.776,8.776,12,8.5,12h-2C6.224,12,6,11.776,6,11.5z"/><linearGradient id="FWQyyIejymmddyzOu_nCqg" x1="11.898" x2="13.21" y1="34.022" y2="41.462" gradientTransform="matrix(-1 0 0 1 22 0)" gradientUnits="userSpaceOnUse"><stop offset="0" stop-color="#32bdef"/><stop offset=".661" stop-color="#25abe8"/><stop offset="1" stop-color="#1ea2e4"/></linearGradient><path fill="url(#FWQyyIejymmddyzOu_nCqg)" d="M11.5,39H6c1.5,1.875,2.625,3,4.125,3H11.5c0.276,0,0.5-0.224,0.5-0.5v-2	C12,39.224,11.776,39,11.5,39z"/><linearGradient id="FWQyyIejymmddyzOu_nCqh" x1="11.474" x2="13.058" y1="-25.881" y2="-16.9" gradientTransform="matrix(-1 0 0 1 22 26)" gradientUnits="userSpaceOnUse"><stop offset="0" stop-color="#32bdef"/><stop offset=".661" stop-color="#25abe8"/><stop offset="1" stop-color="#1ea2e4"/></linearGradient><path fill="url(#FWQyyIejymmddyzOu_nCqh)" d="M12,8.5v-2C12,6.224,11.776,6,11.5,6h-1.375C8.625,6,7.5,7.125,6,9h5.5	C11.776,9,12,8.776,12,8.5z"/><linearGradient id="FWQyyIejymmddyzOu_nCqi" x1="6" x2="9" y1="17" y2="17" gradientUnits="userSpaceOnUse"><stop offset="0" stop-color="#199ae0"/><stop offset="1" stop-color="#199ae0"/></linearGradient><path fill="url(#FWQyyIejymmddyzOu_nCqi)" d="M8.5,15h-2C6.224,15,6,15.224,6,15.5v3C6,18.776,6.224,19,6.5,19h2C8.776,19,9,18.776,9,18.5	v-3C9,15.224,8.776,15,8.5,15z"/><linearGradient id="FWQyyIejymmddyzOu_nCqj" x1="6" x2="9" y1="24" y2="24" gradientUnits="userSpaceOnUse"><stop offset="0" stop-color="#199ae0"/><stop offset="1" stop-color="#199ae0"/></linearGradient><path fill="url(#FWQyyIejymmddyzOu_nCqj)" d="M8.5,22h-2C6.224,22,6,22.224,6,22.5v3C6,25.776,6.224,26,6.5,26h2C8.776,26,9,25.776,9,25.5	v-3C9,22.224,8.776,22,8.5,22z"/><linearGradient id="FWQyyIejymmddyzOu_nCqk" x1="6" x2="9" y1="31" y2="31" gradientUnits="userSpaceOnUse"><stop offset="0" stop-color="#199ae0"/><stop offset="1" stop-color="#199ae0"/></linearGradient><path fill="url(#FWQyyIejymmddyzOu_nCqk)" d="M8.5,29h-2C6.224,29,6,29.224,6,29.5v3C6,32.776,6.224,33,6.5,33h2C8.776,33,9,32.776,9,32.5	v-3C9,29.224,8.776,29,8.5,29z"/><linearGradient id="FWQyyIejymmddyzOu_nCql" x1="39" x2="42" y1="17" y2="17" gradientUnits="userSpaceOnUse"><stop offset="0" stop-color="#199ae0"/><stop offset="1" stop-color="#199ae0"/></linearGradient><path fill="url(#FWQyyIejymmddyzOu_nCql)" d="M41.5,15h-2c-0.276,0-0.5,0.224-0.5,0.5v3c0,0.276,0.224,0.5,0.5,0.5h2	c0.276,0,0.5-0.224,0.5-0.5v-3C42,15.224,41.776,15,41.5,15z"/><linearGradient id="FWQyyIejymmddyzOu_nCqm" x1="39" x2="42" y1="24" y2="24" gradientUnits="userSpaceOnUse"><stop offset="0" stop-color="#199ae0"/><stop offset="1" stop-color="#199ae0"/></linearGradient><path fill="url(#FWQyyIejymmddyzOu_nCqm)" d="M41.5,22h-2c-0.276,0-0.5,0.224-0.5,0.5v3c0,0.276,0.224,0.5,0.5,0.5h2	c0.276,0,0.5-0.224,0.5-0.5v-3C42,22.224,41.776,22,41.5,22z"/><linearGradient id="FWQyyIejymmddyzOu_nCqn" x1="39" x2="42" y1="31" y2="31" gradientUnits="userSpaceOnUse"><stop offset="0" stop-color="#199ae0"/><stop offset="1" stop-color="#199ae0"/></linearGradient><path fill="url(#FWQyyIejymmddyzOu_nCqn)" d="M41.5,29h-2c-0.276,0-0.5,0.224-0.5,0.5v3c0,0.276,0.224,0.5,0.5,0.5h2	c0.276,0,0.5-0.224,0.5-0.5v-3C42,29.224,41.776,29,41.5,29z"/><linearGradient id="FWQyyIejymmddyzOu_nCqo" x1="6" x2="9" y1="17" y2="17" gradientTransform="rotate(90 24 24)" gradientUnits="userSpaceOnUse"><stop offset="0" stop-color="#199ae0"/><stop offset="1" stop-color="#199ae0"/></linearGradient><path fill="url(#FWQyyIejymmddyzOu_nCqo)" d="M33,8.5v-2C33,6.224,32.776,6,32.5,6h-3C29.224,6,29,6.224,29,6.5v2	C29,8.776,29.224,9,29.5,9h3C32.776,9,33,8.776,33,8.5z"/><linearGradient id="FWQyyIejymmddyzOu_nCqp" x1="6" x2="9" y1="24" y2="24" gradientTransform="rotate(90 24 24)" gradientUnits="userSpaceOnUse"><stop offset="0" stop-color="#199ae0"/><stop offset="1" stop-color="#199ae0"/></linearGradient><path fill="url(#FWQyyIejymmddyzOu_nCqp)" d="M26,8.5v-2C26,6.224,25.776,6,25.5,6h-3C22.224,6,22,6.224,22,6.5v2	C22,8.776,22.224,9,22.5,9h3C25.776,9,26,8.776,26,8.5z"/><linearGradient id="FWQyyIejymmddyzOu_nCqq" x1="6" x2="9" y1="31" y2="31" gradientTransform="rotate(90 24 24)" gradientUnits="userSpaceOnUse"><stop offset="0" stop-color="#199ae0"/><stop offset="1" stop-color="#199ae0"/></linearGradient><path fill="url(#FWQyyIejymmddyzOu_nCqq)" d="M19,8.5v-2C19,6.224,18.776,6,18.5,6h-3C15.224,6,15,6.224,15,6.5v2	C15,8.776,15.224,9,15.5,9h3C18.776,9,19,8.776,19,8.5z"/><linearGradient id="FWQyyIejymmddyzOu_nCqr" x1="39" x2="42" y1="17" y2="17" gradientTransform="rotate(90 24 24)" gradientUnits="userSpaceOnUse"><stop offset="0" stop-color="#199ae0"/><stop offset="1" stop-color="#199ae0"/></linearGradient><path fill="url(#FWQyyIejymmddyzOu_nCqr)" d="M33,41.5v-2c0-0.276-0.224-0.5-0.5-0.5h-3c-0.276,0-0.5,0.224-0.5,0.5v2	c0,0.276,0.224,0.5,0.5,0.5h3C32.776,42,33,41.776,33,41.5z"/><linearGradient id="FWQyyIejymmddyzOu_nCqs" x1="39" x2="42" y1="24" y2="24" gradientTransform="rotate(90 24 24)" gradientUnits="userSpaceOnUse"><stop offset="0" stop-color="#199ae0"/><stop offset="1" stop-color="#199ae0"/></linearGradient><path fill="url(#FWQyyIejymmddyzOu_nCqs)" d="M26,41.5v-2c0-0.276-0.224-0.5-0.5-0.5h-3c-0.276,0-0.5,0.224-0.5,0.5v2	c0,0.276,0.224,0.5,0.5,0.5h3C25.776,42,26,41.776,26,41.5z"/><linearGradient id="FWQyyIejymmddyzOu_nCqt" x1="39" x2="42" y1="31" y2="31" gradientTransform="rotate(90 24 24)" gradientUnits="userSpaceOnUse"><stop offset="0" stop-color="#199ae0"/><stop offset="1" stop-color="#199ae0"/></linearGradient><path fill="url(#FWQyyIejymmddyzOu_nCqt)" d="M19,41.5v-2c0-0.276-0.224-0.5-0.5-0.5h-3c-0.276,0-0.5,0.224-0.5,0.5v2	c0,0.276,0.224,0.5,0.5,0.5h3C18.776,42,19,41.776,19,41.5z"/></svg>