<svg xmlns="http://www.w3.org/2000/svg" viewBox="0 0 48 48"><linearGradient id="O0CZK4ZPA4cWlGOX9CTUba" x1="8.95" x2="29.461" y1="2.837" y2="40.539" gradientUnits="userSpaceOnUse"><stop offset="0" stop-color="#f0f0f0"/><stop offset="1" stop-color="#bbc1c4"/></linearGradient><path fill="url(#O0CZK4ZPA4cWlGOX9CTUba)" d="M6.202,9h26.93c0.669,0,1.293,0.334,1.664,0.891l8.667,13c0.448,0.672,0.448,1.547,0,2.219	l-8.667,13C34.425,38.666,33.8,39,33.131,39H6.202c-1.105,0-2-0.895-2-2V11C4.202,9.895,5.097,9,6.202,9z"/><linearGradient id="O0CZK4ZPA4cWlGOX9CTUbb" x1="24.924" x2="38.712" y1="4.869" y2="39.337" gradientUnits="userSpaceOnUse"><stop offset="0" stop-color="#d43a02"/><stop offset="1" stop-color="#b9360c"/></linearGradient><path fill="url(#O0CZK4ZPA4cWlGOX9CTUbb)" d="M34.796,38.109l8.667-13c0.448-0.672,0.448-1.547,0-2.219l-8.667-13	C34.425,9.334,33.8,9,33.131,9h-5.93l10,15l-10,15h5.93C33.8,39,34.425,38.666,34.796,38.109z"/><polygon points="17.492,29.551 14.849,25.521 14.849,29.551 10.913,29.551 10.913,18.449 14.664,18.449 17.166,22.287 17.166,18.449 21.102,18.449 21.102,29.551" opacity=".05"/><polygon points="17.762,29.051 14.349,23.848 14.349,29.051 11.413,29.051 11.413,18.949 14.393,18.949 17.666,23.97 17.666,18.949 20.602,18.949 20.602,29.051" opacity=".07"/><linearGradient id="O0CZK4ZPA4cWlGOX9CTUbc" x1="12.37" x2="20.711" y1="18.47" y2="31.151" gradientUnits="userSpaceOnUse"><stop offset="0" stop-color="#4b4b4b"/><stop offset=".531" stop-color="#393939"/><stop offset="1" stop-color="#252525"/></linearGradient><path fill="url(#O0CZK4ZPA4cWlGOX9CTUbc)" d="M20.102,28.551h-2.069l-3.751-5.719c-0.22-0.334-0.373-0.586-0.457-0.755h-0.025	c0.034,0.322,0.051,0.813,0.051,1.473v5.002h-1.936v-9.103h2.209l3.612,5.542c0.165,0.25,0.317,0.497,0.457,0.743h0.025	c-0.034-0.211-0.051-0.628-0.051-1.25v-5.034h1.936V28.551z"/><polygon points="21.184,29.551 21.184,18.449 28.433,18.449 28.433,22.118 25.234,22.118 25.234,22.143 28.211,22.143 28.211,25.806 25.234,25.806 25.234,25.888 28.643,25.888 28.643,29.551" opacity=".05"/><polygon points="21.684,29.051 21.684,18.949 27.933,18.949 27.933,21.618 24.734,21.618 24.734,22.643 27.711,22.643 27.711,25.306 24.734,25.306 24.734,26.388 28.143,26.388 28.143,29.051" opacity=".07"/><linearGradient id="O0CZK4ZPA4cWlGOX9CTUbd" x1="18.514" x2="26.854" y1="14.429" y2="27.11" gradientUnits="userSpaceOnUse"><stop offset="0" stop-color="#4b4b4b"/><stop offset=".531" stop-color="#393939"/><stop offset="1" stop-color="#252525"/></linearGradient><path fill="url(#O0CZK4ZPA4cWlGOX9CTUbd)" d="M27.643,28.551h-5.459v-9.103h5.25v1.669h-3.199v2.025h2.977v1.663h-2.977v2.082h3.409V28.551	z"/></svg>