<svg xmlns="http://www.w3.org/2000/svg" viewBox="0 0 48 48"><linearGradient id="oH3vOZjFTKjrLZGO52l03a" x1="9.858" x2="38.142" y1="9.858" y2="38.142" gradientUnits="userSpaceOnUse"><stop offset="0" stop-color="#f44f5a"/><stop offset=".443" stop-color="#ee3d4a"/><stop offset="1" stop-color="#e52030"/></linearGradient><path fill="url(#oH3vOZjFTKjrLZGO52l03a)" d="M44,24c0,11.045-8.955,20-20,20S4,35.045,4,24S12.955,4,24,4S44,12.955,44,24z"/><radialGradient id="oH3vOZjFTKjrLZGO52l03b" cx="23.89" cy="7.394" r="37.883" gradientUnits="userSpaceOnUse"><stop offset="0" stop-color="#fafafb"/><stop offset="1" stop-color="#c8cdd1"/></radialGradient><circle cx="24" cy="24" r="17" fill="url(#oH3vOZjFTKjrLZGO52l03b)"/><linearGradient id="oH3vOZjFTKjrLZGO52l03c" x1="17.418" x2="17.418" y1="17.252" y2="30.804" gradientUnits="userSpaceOnUse"><stop offset="0" stop-color="#6d7479"/><stop offset=".32" stop-color="#565b60"/><stop offset=".752" stop-color="#3c3f43"/><stop offset="1" stop-color="#323538"/></linearGradient><path fill="url(#oH3vOZjFTKjrLZGO52l03c)" d="M23.837,30.504h-3.193l-0.925-2.894h-4.627l-0.916,2.894H11l4.736-13.009h3.475L23.837,30.504	z M19.047,25.361l-1.397-4.373c-0.103-0.327-0.175-0.717-0.218-1.17h-0.073c-0.03,0.381-0.106,0.759-0.227,1.134l-1.415,4.409	H19.047z"/><linearGradient id="oH3vOZjFTKjrLZGO52l03d" x1="31.23" x2="31.23" y1="17.665" y2="30.674" gradientUnits="userSpaceOnUse"><stop offset="0" stop-color="#6d7479"/><stop offset=".32" stop-color="#565b60"/><stop offset=".752" stop-color="#3c3f43"/><stop offset="1" stop-color="#323538"/></linearGradient><path fill="url(#oH3vOZjFTKjrLZGO52l03d)" d="M25.461,30.504V17.496h4.609c4.621,0,6.931,2.114,6.931,6.341c0,2.026-0.63,3.644-1.891,4.853	c-1.261,1.21-2.941,1.814-5.039,1.814H25.461z M28.391,19.881v8.246h1.451c1.27,0,2.266-0.381,2.989-1.143	c0.723-0.762,1.084-1.799,1.084-3.112c0-1.24-0.358-2.215-1.075-2.926s-1.722-1.066-3.016-1.066H28.391z"/><g><linearGradient id="oH3vOZjFTKjrLZGO52l03e" x1="8.791" x2="39.09" y1="8.739" y2="39.142" gradientUnits="userSpaceOnUse"><stop offset="0" stop-color="#f44f5a"/><stop offset=".443" stop-color="#ee3d4a"/><stop offset="1" stop-color="#e52030"/></linearGradient><path fill="url(#oH3vOZjFTKjrLZGO52l03e)" d="M12.243,9.839c-0.879,0.72-1.685,1.525-2.404,2.404l25.917,25.917 c0.879-0.719,1.685-1.525,2.404-2.404L12.243,9.839z"/></g></svg>