<svg xmlns="http://www.w3.org/2000/svg" viewBox="0 0 48 48"><circle cx="30.5" cy="17.5" r="1.5" fill="#eba600"/><circle cx="17.5" cy="17.5" r="1.5" fill="#eba600"/><circle cx="17.5" cy="30.5" r="1.5" fill="#eba600"/><circle cx="30.5" cy="30.5" r="1.5" fill="#eba600"/><linearGradient id="8eFWNrQ7Y7CqPlk_oF8Dra" x1="8.348" x2="44.444" y1="8.348" y2="44.444" gradientUnits="userSpaceOnUse"><stop offset="0" stop-color="#ffd869"/><stop offset="1" stop-color="#fec52b"/></linearGradient><path fill="url(#8eFWNrQ7Y7CqPlk_oF8Dra)" d="M40,7L40,7c0,0.552-0.448,1-1,1H27c-3.314,0-6,2.686-6,6v7h-5c-1.105,0-2-0.895-2-2v-8	c0-2.761-2.239-5-5-5H8H7C6.448,6,6,6.448,6,7v0c0,0.552,0.448,1,1,1h0c0.552,0,1,0.448,1,1v12c0,3.314,2.686,6,6,6h7v5	c0,1.105-0.895,2-2,2h-8c-2.761,0-5,2.239-5,5v2c0,0.552,0.448,1,1,1h0c0.552,0,1-0.448,1-1v0c0-0.552,0.448-1,1-1h12	c3.314,0,6-2.686,6-6v-7h5c1.105,0,2,0.895,2,2v8c0,2.761,2.239,5,5,5h2c0.552,0,1-0.448,1-1v0c0-0.552-0.448-1-1-1h0	c-0.552,0-1-0.448-1-1V27c0-3.314-2.686-6-6-6h-7v-5c0-1.105,0.895-2,2-2h8c2.761,0,5-2.239,5-5V7c0-0.552-0.448-1-1-1h0	C40.448,6,40,6.448,40,7z"/><path fill="#eba600" d="M38.129,39.871C36.898,39.497,36,38.352,36,37V27c0-1.105-0.895-2-2-2h-9v9c0,2.209-1.791,4-4,4H9	c-0.303,0-0.596,0.045-0.871,0.129C8.503,36.898,9.648,36,11,36h10c1.105,0,2-0.895,2-2v-9h-9c-2.209,0-4-1.791-4-4V9	c0-0.303-0.045-0.596-0.129-0.871C11.102,8.503,12,9.648,12,11v10c0,1.105,0.895,2,2,2h9v-9c0-2.209,1.791-4,4-4h12	c0.303,0,0.596-0.045,0.871-0.129C39.497,11.102,38.352,12,37,12H27c-1.105,0-2,0.895-2,2v9h9c2.209,0,4,1.791,4,4v12	C38,39.303,38.045,39.596,38.129,39.871z"/></svg>