<svg xmlns="http://www.w3.org/2000/svg" viewBox="0 0 48 48"><linearGradient id="z4or_3A4sJ2zF44PD2hpHa" x1="11" x2="11" y1="4.941" y2="51.001" gradientUnits="userSpaceOnUse"><stop offset="0" stop-color="#afb6bc"/><stop offset=".925" stop-color="#9aa0a5"/></linearGradient><path fill="url(#z4or_3A4sJ2zF44PD2hpHa)" d="M21,18c0-5.523-3.477-10-9-10S1,14.477,1,20s4.477,8,10,8S21,23.523,21,18z"/><linearGradient id="z4or_3A4sJ2zF44PD2hpHb" x1="11" x2="11" y1="-5.588" y2="27.765" gradientUnits="userSpaceOnUse"><stop offset="0" stop-color="#889097"/><stop offset="1" stop-color="#4c5963"/></linearGradient><path fill="url(#z4or_3A4sJ2zF44PD2hpHb)" d="M11,25c-2.614,0-7-0.649-7-5c0-4.121,4.337-9,8-9c4.145,0,6,3.516,6,7	C18,21.859,14.859,25,11,25z"/><linearGradient id="z4or_3A4sJ2zF44PD2hpHc" x1="37" x2="37" y1="4.941" y2="51.001" gradientUnits="userSpaceOnUse"><stop offset="0" stop-color="#afb6bc"/><stop offset=".925" stop-color="#9aa0a5"/></linearGradient><path fill="url(#z4or_3A4sJ2zF44PD2hpHc)" d="M27,18c0-5.523,3.477-10,9-10s11,6.477,11,12s-4.477,8-10,8S27,23.523,27,18z"/><linearGradient id="z4or_3A4sJ2zF44PD2hpHd" x1="37" x2="37" y1="-5.588" y2="27.765" gradientUnits="userSpaceOnUse"><stop offset="0" stop-color="#889097"/><stop offset="1" stop-color="#4c5963"/></linearGradient><path fill="url(#z4or_3A4sJ2zF44PD2hpHd)" d="M37,25c-3.859,0-7-3.141-7-7c0-3.484,1.855-7,6-7c3.663,0,8,4.879,8,9	C44,24.351,39.614,25,37,25z"/><linearGradient id="z4or_3A4sJ2zF44PD2hpHe" x1="24" x2="24" y1="6.099" y2="50.72" gradientUnits="userSpaceOnUse"><stop offset="0" stop-color="#afb6bc"/><stop offset=".925" stop-color="#9aa0a5"/></linearGradient><path fill="url(#z4or_3A4sJ2zF44PD2hpHe)" d="M40,31.344C40,22.783,32.837,11,24,11S8,22.783,8,31.344S15.163,42,24,42S40,39.904,40,31.344	z"/><path fill="#cdd2d6" d="M27,37h-6c-1.105,0-2,0.895-2,2v0c0,2.761,2.239,5,5,5h0c2.761,0,5-2.239,5-5v0	C29,37.895,28.105,37,27,37z"/><linearGradient id="z4or_3A4sJ2zF44PD2hpHf" x1="24" x2="24" y1="42.5" y2="18.147" gradientUnits="userSpaceOnUse"><stop offset=".002" stop-color="#454545"/><stop offset=".013" stop-color="#464646"/><stop offset=".875" stop-color="#626262"/><stop offset="1" stop-color="#6d6d6d"/></linearGradient><path fill="url(#z4or_3A4sJ2zF44PD2hpHf)" d="M24,27L24,27c-2.209,0-4,1.791-4,4v5c0,2.209,1.791,4,4,4h0c2.209,0,4-1.791,4-4v-5	C28,28.791,26.209,27,24,27z"/><linearGradient id="z4or_3A4sJ2zF44PD2hpHg" x1="16.5" x2="16.5" y1="27.191" y2="20.19" gradientUnits="userSpaceOnUse"><stop offset=".002" stop-color="#454545"/><stop offset=".013" stop-color="#464646"/><stop offset=".875" stop-color="#626262"/><stop offset="1" stop-color="#6d6d6d"/></linearGradient><path fill="url(#z4or_3A4sJ2zF44PD2hpHg)" d="M16.5,30L16.5,30c-0.828,0-1.5-0.672-1.5-1.5v0c0-0.828,0.672-1.5,1.5-1.5h0	c0.828,0,1.5,0.672,1.5,1.5v0C18,29.328,17.328,30,16.5,30z"/><linearGradient id="z4or_3A4sJ2zF44PD2hpHh" x1="31.5" x2="31.5" y1="27.191" y2="20.19" gradientUnits="userSpaceOnUse"><stop offset=".002" stop-color="#454545"/><stop offset=".013" stop-color="#464646"/><stop offset=".875" stop-color="#626262"/><stop offset="1" stop-color="#6d6d6d"/></linearGradient><path fill="url(#z4or_3A4sJ2zF44PD2hpHh)" d="M31.5,30L31.5,30c-0.828,0-1.5-0.672-1.5-1.5v0c0-0.828,0.672-1.5,1.5-1.5h0	c0.828,0,1.5,0.672,1.5,1.5v0C33,29.328,32.328,30,31.5,30z"/></svg>