<svg xmlns="http://www.w3.org/2000/svg" xmlns:xlink="http://www.w3.org/1999/xlink" data-name="Layer 1" viewBox="0 0 48 48"><defs><linearGradient id="6niK2OSLardDiHcGOPCAPh" y1="17" y2="17" xlink:href="#6niK2OSLardDiHcGOPCAPa"/><linearGradient id="6niK2OSLardDiHcGOPCAPa" x1="23" x2="29" y1="9" y2="9" data-name="Безымянный градиент 88" gradientUnits="userSpaceOnUse"><stop offset="0" stop-color="#f44f5a"/><stop offset=".443" stop-color="#ee3d4a"/><stop offset="1" stop-color="#e52030"/></linearGradient><linearGradient id="6niK2OSLardDiHcGOPCAPd" x1="11" x2="17" y1="13" y2="13" xlink:href="#6niK2OSLardDiHcGOPCAPa"/><linearGradient id="6niK2OSLardDiHcGOPCAPe" x1="19" x2="25" y1="13" y2="13" xlink:href="#6niK2OSLardDiHcGOPCAPa"/><linearGradient id="6niK2OSLardDiHcGOPCAPf" x1="27.879" x2="32.121" y1="10.879" y2="15.121" xlink:href="#6niK2OSLardDiHcGOPCAPa"/><linearGradient id="6niK2OSLardDiHcGOPCAPg" x1="7" x2="13" y1="17" y2="17" xlink:href="#6niK2OSLardDiHcGOPCAPa"/><linearGradient id="6niK2OSLardDiHcGOPCAPc" x1="15.879" x2="20.121" y1="6.879" y2="11.121" xlink:href="#6niK2OSLardDiHcGOPCAPa"/><linearGradient id="6niK2OSLardDiHcGOPCAPi" x1="15" x2="21" y1="17" y2="17" xlink:href="#6niK2OSLardDiHcGOPCAPa"/><linearGradient id="6niK2OSLardDiHcGOPCAPj" x1="17.826" x2="30.897" y1="13.038" y2="48.949" data-name="Новый образец градиентной зал 3" gradientUnits="userSpaceOnUse"><stop offset="0" stop-color="#32bdef"/><stop offset="1" stop-color="#1ea2e4"/></linearGradient><linearGradient id="6niK2OSLardDiHcGOPCAPb" x1="1.043" x2="69.82" y1="40.5" y2="40.5" gradientUnits="userSpaceOnUse"><stop offset=".002" stop-color="#427fdb"/><stop offset=".397" stop-color="#2668cb"/><stop offset=".763" stop-color="#1358bf"/><stop offset="1" stop-color="#0c52bb"/></linearGradient><linearGradient id="6niK2OSLardDiHcGOPCAPk" x1="31" x2="37" y1="17" y2="17" xlink:href="#6niK2OSLardDiHcGOPCAPa"/><linearGradient id="6niK2OSLardDiHcGOPCAPl" x1="1.043" x2="69.82" y1="19.5" y2="19.5" xlink:href="#6niK2OSLardDiHcGOPCAPb"/></defs><circle cx="30" cy="9" r="3" fill="#b31523"/><circle cx="26" cy="9" r="3" fill="url(#6niK2OSLardDiHcGOPCAPa)"/><circle cx="18" cy="9" r="3" fill="url(#6niK2OSLardDiHcGOPCAPc)"/><circle cx="22" cy="9" r="3" fill="#b31523"/><circle cx="26" cy="13" r="3" fill="#b31523"/><circle cx="14" cy="13" r="3" fill="url(#6niK2OSLardDiHcGOPCAPd)"/><circle cx="22" cy="13" r="3" fill="url(#6niK2OSLardDiHcGOPCAPe)"/><circle cx="34" cy="13" r="3" fill="#b31523"/><circle cx="30" cy="13" r="3" fill="url(#6niK2OSLardDiHcGOPCAPf)"/><circle cx="18" cy="13" r="3" fill="#b31523"/><circle cx="10" cy="17" r="3" fill="url(#6niK2OSLardDiHcGOPCAPg)"/><circle cx="14" cy="17" r="3" fill="#b31523"/><circle cx="26" cy="17" r="3" fill="url(#6niK2OSLardDiHcGOPCAPh)"/><circle cx="30" cy="17" r="3" fill="#b31523"/><circle cx="38" cy="17" r="3" fill="#b31523"/><circle cx="22" cy="17" r="3" fill="#b31523"/><circle cx="18" cy="17" r="3" fill="url(#6niK2OSLardDiHcGOPCAPi)"/><rect width="36" height="22" x="6" y="19" fill="url(#6niK2OSLardDiHcGOPCAPj)"/><rect width="40" height="3" x="4" y="39" fill="url(#6niK2OSLardDiHcGOPCAPb)" rx="1.5"/><circle cx="34" cy="17" r="3" fill="url(#6niK2OSLardDiHcGOPCAPk)"/><rect width="40" height="3" x="4" y="18" fill="url(#6niK2OSLardDiHcGOPCAPl)" rx="1.5"/><g opacity=".05"><path d="M15.91306,27.01654a1.01839,1.01839,0,0,1,.45651.14142,12.957,12.957,0,0,1,2.73913,2.85858,12.957,12.957,0,0,1-2.73913,2.85858,1.01839,1.01839,0,0,1-.45651.14142c-.50217,0-.91306-1.34143-.91306-3s.41089-3,.91306-3m0-1c-1.77509,0-1.91306,3.06165-1.91306,4s.138,4,1.91306,4a1.95728,1.95728,0,0,0,.9266-.25879,12.86266,12.86266,0,0,0,3.07947-3.15533l.42349-.58588-.42349-.58588a12.867,12.867,0,0,0-3.07608-3.1535,1.96242,1.96242,0,0,0-.93-.26062Z"/><path d="M25.36975,25.98877a5.91225,5.91225,0,0,1,.88666.06958,6.44654,6.44654,0,0,1,1.07693.26727,10.76645,10.76645,0,0,1,4.60205,3.50049.31281.31281,0,0,1,0,.3808,10.766,10.766,0,0,1-4.60205,3.50055,6.4524,6.4524,0,0,1-1.07693.26727,5.91225,5.91225,0,0,1-.88666.06958,7.5675,7.5675,0,0,1-1.98514-.27093,8.52688,8.52688,0,0,1-1.07693-.3772,10.74849,10.74849,0,0,1-2.8718-1.86011,11.851,11.851,0,0,1-1.0769-1.08014c-.23334-.271-.359-.43939-.359-.43939s.12207-.19043.359-.487a10.25007,10.25007,0,0,1,1.0769-1.13507,9.39412,9.39412,0,0,1,2.8718-1.81982,7.75854,7.75854,0,0,1,1.07693-.34424,8.11388,8.11388,0,0,1,1.98514-.24164m0-1a9.13454,9.13454,0,0,0-2.22946.27191,8.75441,8.75441,0,0,0-1.20523.386A10.3102,10.3102,0,0,0,18.76044,27.657a11.16476,11.16476,0,0,0-1.17816,1.24262c-.26645.33349-.40879.55322-.42417.57721l-.3725.58111.41288.55652s.14062.18958.40271.494a12.89929,12.89929,0,0,0,1.1741,1.17834,11.64269,11.64269,0,0,0,3.13943,2.02893,9.57457,9.57457,0,0,0,1.205.42194,8.60178,8.60178,0,0,0,2.25.30664,6.86754,6.86754,0,0,0,1.0361-.08081,7.49911,7.49911,0,0,0,1.24927-.3092,11.6727,11.6727,0,0,0,5.07666-3.84259,1.32028,1.32028,0,0,0,.00931-1.57788A11.6819,11.6819,0,0,0,27.657,25.37946a7.488,7.488,0,0,0-1.24551-.309,6.88933,6.88933,0,0,0-1.04172-.08166Z"/></g><g opacity=".07"><path d="M15.91306,27.01654a1.01839,1.01839,0,0,1,.45651.14142,12.957,12.957,0,0,1,2.73913,2.85858,12.957,12.957,0,0,1-2.73913,2.85858,1.01839,1.01839,0,0,1-.45651.14142c-.50217,0-.91306-1.34143-.91306-3s.41089-3,.91306-3m0-.5c-1.043,0-1.41306,1.88544-1.41306,3.5s.37009,3.5,1.41306,3.5a1.475,1.475,0,0,0,.69155-.20013,12.784,12.784,0,0,0,2.90931-3.007l.21176-.29291-.21176-.29291a12.78719,12.78719,0,0,0-2.9076-3.006,1.47779,1.47779,0,0,0-.69326-.20105Z"/><path d="M25.36975,25.98877a5.91225,5.91225,0,0,1,.88666.06958,6.44654,6.44654,0,0,1,1.07693.26727,10.76645,10.76645,0,0,1,4.60205,3.50049.31281.31281,0,0,1,0,.3808,10.766,10.766,0,0,1-4.60205,3.50055,6.4524,6.4524,0,0,1-1.07693.26727,5.91225,5.91225,0,0,1-.88666.06958,7.5675,7.5675,0,0,1-1.98514-.27093,8.52688,8.52688,0,0,1-1.07693-.3772,10.74849,10.74849,0,0,1-2.8718-1.86011,11.851,11.851,0,0,1-1.0769-1.08014c-.23334-.271-.359-.43939-.359-.43939s.12207-.19043.359-.487a10.25007,10.25007,0,0,1,1.0769-1.13507,9.39412,9.39412,0,0,1,2.8718-1.81982,7.75854,7.75854,0,0,1,1.07693-.34424,8.11388,8.11388,0,0,1,1.98514-.24164m0-.5a8.63548,8.63548,0,0,0-2.1073.25677,8.27328,8.27328,0,0,0-1.14108.36512,9.81565,9.81565,0,0,0-3.02319,1.9151,10.67186,10.67186,0,0,0-1.12754,1.18884c-.25259.31616-.386.52344-.39157.5321l-.18652.291.20669.27789s.13315.179.38086.46662a12.386,12.386,0,0,0,1.12549,1.12927A11.1493,11.1493,0,0,0,22.11121,33.856a9.06578,9.06578,0,0,0,1.141.39953,8.09714,8.09714,0,0,0,2.11755.28882,6.37547,6.37547,0,0,0,.9614-.07519,6.98925,6.98925,0,0,0,1.16308-.28827,11.37225,11.37225,0,0,0,4.83936-3.67157.81014.81014,0,0,0,.00467-.97931,11.37666,11.37666,0,0,0-4.84311-3.67743,6.9772,6.9772,0,0,0-1.16123-.28815,6.38486,6.38486,0,0,0-.96417-.07562Z"/></g><path fill="#fff" d="M19.1087,30.01654a12.95672,12.95672,0,0,1-2.73913,2.85857,1.01788,1.01788,0,0,1-.45653.14143c-.50216,0-.913-1.34143-.913-3s.41088-3,.913-3a1.0182,1.0182,0,0,1,.45653.14141A12.95669,12.95669,0,0,1,19.1087,30.01654Z"/><path fill="#fff" d="M31.93539,30.20693a10.766,10.766,0,0,1-4.60206,3.50051,6.448,6.448,0,0,1-1.07692.26731,5.91377,5.91377,0,0,1-.88666.06957,7.566,7.566,0,0,1-1.98513-.27095,8.52778,8.52778,0,0,1-1.07693-.37716A10.74932,10.74932,0,0,1,19.4359,31.5361,11.84659,11.84659,0,0,1,18.359,30.45594c-.23334-.271-.359-.4394-.359-.4394s.12206-.19041.359-.487a10.24709,10.24709,0,0,1,1.07693-1.13509,9.39514,9.39514,0,0,1,2.87179-1.81983,7.759,7.759,0,0,1,1.07693-.3442,8.11233,8.11233,0,0,1,1.98513-.24165,5.91377,5.91377,0,0,1,.88666.06957,6.444,6.444,0,0,1,1.07692.26729,10.7662,10.7662,0,0,1,4.60206,3.5005A.31284.31284,0,0,1,31.93539,30.20693Z"/></svg>