<svg xmlns="http://www.w3.org/2000/svg" viewBox="0 0 48 48"><path fill="#21a366" d="M27.575,9.074c-2.862,2.856-3.562,6.28-3.571,8.922c-0.008,2.472,0,7.004,0,7.004l17.63-19.753	C41.634,5.247,33.114,3.546,27.575,9.074z"/><path fill="#33c481" d="M37.8,19.28C32.53,24.55,26,22.3,26,26.67V43c0,0.55-0.45,1-1,1h-1V24.49c0-1.06,0.43-2.08,1.18-2.83	L41.63,5.25C41.63,5.25,43.76,13.32,37.8,19.28z"/><path fill="#21a366" d="M24,40v4h-1.32c-0.41,0-0.78-0.25-0.93-0.63L20,39l-8.6-22.92c-0.21-0.57-0.88-0.82-1.41-0.53L7,18	c-0.44,0.15-0.83-0.33-0.59-0.73l3.57-7.58c0.43-0.7,1.47-0.62,1.78,0.13L24,40z"/></svg>