<svg xmlns="http://www.w3.org/2000/svg" viewBox="0 0 48 48"><path fill="#586169" d="M42.007,29.999c-0.94,0-1.853-0.325-2.578-0.935c-0.754-0.634-1.241-1.512-1.385-2.47	C37.998,26.284,38.226,26,38.54,26h1.013c0.226,0,0.439,0.148,0.481,0.371c0.085,0.451,0.322,0.861,0.68,1.161	c0.454,0.382,1.029,0.537,1.628,0.439c0.743-0.121,1.386-0.687,1.582-1.413c0.272-1.011-0.229-2.022-1.161-2.408	C41.692,23.707,41,22.636,41,21.42V4h2v17.42c0,0.397,0.212,0.752,0.528,0.883c1.748,0.723,2.738,2.537,2.409,4.414	c-0.284,1.612-1.608,2.937-3.221,3.221C42.48,29.979,42.242,29.999,42.007,29.999z"/><rect width="12" height="5" x="13" y="25" fill="#e3a600"/><path fill="#586169" d="M29,42H11c-3.314,0-6-2.686-6-6l0,0c0-3.314,2.686-6,6-6h18c3.314,0,6,2.686,6,6l0,0	C35,39.314,32.314,42,29,42z"/><circle cx="11" cy="36" r="2" fill="#999"/><circle cx="17" cy="36" r="2" fill="#999"/><circle cx="23" cy="36" r="2" fill="#999"/><circle cx="29" cy="36" r="2" fill="#999"/><path fill="#999" d="M25.861,18.139l-4.416-4.971l15-10C36.61,3.058,36.803,3,37,3h7.5C44.776,3,45,3.224,45,3.5v1	C45,4.776,44.776,5,44.5,5h-7.197L25.861,18.139z"/><path fill="#fad500" d="M19.219,9H10c-1.657,0-3,1.343-3,3v12c0,1.657,1.343,3,3,3h17c1.657,0,3-1.343,3-3v-3.465	c0-0.988-0.366-1.941-1.027-2.676l-6.781-7.535C21.433,9.481,20.352,9,19.219,9z"/><path fill="#e3a600" d="M17,11h2.556c0.283,0,0.552,0.12,0.742,0.33l6.304,6.975C26.858,18.588,27,18.958,27,19.34V20h-6.027	c-0.542,0-0.985-0.431-1-0.973L19.945,18H17c-1.105,0-2-0.895-2-2v-3C15,11.895,15.895,11,17,11z"/></svg>