<svg xmlns="http://www.w3.org/2000/svg" viewBox="0 0 48 48"><linearGradient id="VP94IKqFveyCR2asqzovIa" x1="6.298" x2="34.534" y1="6.112" y2="34.348" gradientUnits="userSpaceOnUse"><stop offset="0" stop-color="#33bef0"/><stop offset="1" stop-color="#0a85d9"/></linearGradient><path fill="url(#VP94IKqFveyCR2asqzovIa)" d="M27.615,29.057h-0.107c-1.033,3.085-3.056,4.627-6.069,4.627 c-1.922,0-3.472-0.721-4.647-2.162c-1.177-1.442-1.765-3.383-1.765-5.821c0-3.229,0.807-5.911,2.421-8.049 c1.613-2.138,3.74-3.206,6.38-3.206c1.005,0,1.901,0.276,2.69,0.828c0.789,0.553,1.298,1.216,1.528,1.99h0.064 c0.038-0.352,0.125-1.031,0.262-2.036c0.034-0.248,0.246-0.439,0.496-0.439h2.59c0.294,0,0.523,0.26,0.497,0.553 c-0.641,7.21-0.962,10.885-0.962,11.025c0,2.841,0.738,4.261,2.216,4.261c1.349,0,2.468-0.792,3.357-2.378 c0.89-1.585,1.334-3.641,1.334-6.165c0-3.73-1.201-6.775-3.604-9.136c-2.403-2.359-5.734-3.54-9.996-3.54 c-4.089,0-7.475,1.428-10.157,4.282c-2.683,2.855-4.024,6.428-4.024,10.718c0,4.232,1.291,7.646,3.874,10.243 c2.582,2.597,6.062,3.896,10.438,3.896c3.123,0,5.839-0.485,8.148-1.452c0.333-0.139,0.696,0.092,0.696,0.453v2.205 c0,0.207-0.122,0.396-0.314,0.472c-2.457,0.976-5.487,1.464-9.09,1.464c-5.28,0-9.534-1.578-12.762-4.734 c-3.229-3.156-4.842-7.288-4.842-12.396c0-5.251,1.707-9.605,5.121-13.063c3.415-3.458,7.776-5.187,13.085-5.187 c4.978,0,9.099,1.449,12.363,4.347c3.264,2.898,4.896,6.679,4.896,11.341c0,3.415-0.886,6.217-2.658,8.404 c-1.771,2.188-3.935,3.281-6.488,3.281C29.286,33.684,27.629,32.142,27.615,29.057z M24.193,17.501 c-1.578,0-2.852,0.774-3.819,2.324c-0.969,1.549-1.453,3.479-1.453,5.789c0,1.549,0.326,2.772,0.979,3.669 c0.652,0.896,1.524,1.345,2.614,1.345c1.578,0,2.826-0.813,3.745-2.442c0.918-1.628,1.377-3.784,1.377-6.467 C27.637,18.907,26.488,17.501,24.193,17.501z"/></svg>