<svg xmlns="http://www.w3.org/2000/svg" viewBox="0 0 48 48"><linearGradient id="9o_uqt67YYMQ58lCdP1uia" x1="24.287" x2="23.892" y1="11.065" y2="31.109" gradientUnits="userSpaceOnUse"><stop offset="0" stop-color="#00b4f0"/><stop offset="1" stop-color="#0082db"/></linearGradient><path fill="url(#9o_uqt67YYMQ58lCdP1uia)" d="M47.357,23.407c-0.127-1.167-0.895-2.157-1.977-2.55l-9.073-3.295l-5.426-4.989	C29.779,11.561,28.35,11,26.868,11H12.274c-1.259,0-2.445,0.606-3.2,1.635L6.421,16.25l-4.045,1.836C0.931,18.743,0,20.207,0,21.822	v7.397c0,0.89,0.561,1.676,1.39,1.947C2.537,31.541,4.094,32,4.853,32c0.047,0,39.27,0,39.443,0c0.657,0,1.649-0.343,2.463-0.679	c0.828-0.341,1.328-1.21,1.229-2.117L47.357,23.407z"/><path fill="#53616a" d="M44,31.5c0,2.485-2.015,4.5-4.5,4.5S35,33.985,35,31.5s2.015-4.5,4.5-4.5S44,29.015,44,31.5"/><path fill="#999" d="M41.3,31.5c0,0.994-0.806,1.8-1.8,1.8s-1.8-0.806-1.8-1.8s0.806-1.8,1.8-1.8S41.3,30.506,41.3,31.5"/><path fill="#53616a" d="M14,31.5c0,2.485-2.015,4.5-4.5,4.5S5,33.985,5,31.5S7.015,27,9.5,27S14,29.015,14,31.5"/><path fill="#999" d="M11.3,31.5c0,0.994-0.806,1.8-1.8,1.8s-1.8-0.806-1.8-1.8s0.806-1.8,1.8-1.8S11.3,30.506,11.3,31.5"/><linearGradient id="9o_uqt67YYMQ58lCdP1uib" x1="24.5" x2="24.5" y1="7.626" y2="47.333" gradientUnits="userSpaceOnUse"><stop offset="0" stop-color="#ffcf47"/><stop offset=".261" stop-color="#ffcb3f"/><stop offset=".639" stop-color="#ffc123"/><stop offset="1" stop-color="#ffb400"/></linearGradient><path fill="url(#9o_uqt67YYMQ58lCdP1uib)" d="M24.105,20.195l-3.017,4.086C20.864,24.584,21.093,25,21.483,25h6.034	c0.39,0,0.619-0.416,0.395-0.719l-3.017-4.086C24.703,19.935,24.297,19.935,24.105,20.195z"/><linearGradient id="9o_uqt67YYMQ58lCdP1uic" x1="24.5" x2="24.5" y1="7.626" y2="47.333" gradientUnits="userSpaceOnUse"><stop offset="0" stop-color="#ffcf47"/><stop offset=".261" stop-color="#ffcb3f"/><stop offset=".639" stop-color="#ffc123"/><stop offset="1" stop-color="#ffb400"/></linearGradient><path fill="url(#9o_uqt67YYMQ58lCdP1uic)" d="M24.895,39.805l3.017-4.086C28.136,35.416,27.907,35,27.517,35h-6.034	c-0.39,0-0.619,0.416-0.395,0.719l3.017,4.086C24.297,40.065,24.703,40.065,24.895,39.805z"/><linearGradient id="9o_uqt67YYMQ58lCdP1uid" x1="24.5" x2="24.5" y1="7.626" y2="47.333" gradientUnits="userSpaceOnUse"><stop offset="0" stop-color="#ffcf47"/><stop offset=".261" stop-color="#ffcb3f"/><stop offset=".639" stop-color="#ffc123"/><stop offset="1" stop-color="#ffb400"/></linearGradient><path fill="url(#9o_uqt67YYMQ58lCdP1uid)" d="M24.5,37c-0.829,0-1.5-0.671-1.5-1.5v-12c0-0.829,0.671-1.5,1.5-1.5s1.5,0.671,1.5,1.5v12	C26,36.329,25.329,37,24.5,37z"/></svg>