<svg xmlns="http://www.w3.org/2000/svg" viewBox="0 0 48 48"><linearGradient id="hhM9eLKNEu95BBHBPFn_Xa" x1="16.119" x2="31.311" y1="3.819" y2="33.378" gradientTransform="translate(-.022 -.206)" gradientUnits="userSpaceOnUse"><stop offset="0" stop-color="#0d61a9"/><stop offset="1" stop-color="#16528c"/></linearGradient><path fill="url(#hhM9eLKNEu95BBHBPFn_Xa)" d="M42.003,26.753l-36,0.035l-0.013-14c-0.004-3.866,3.127-7.003,6.993-7.007l22-0.021	c3.866-0.004,7.003,3.127,7.007,6.993L42.003,26.753z"/><linearGradient id="hhM9eLKNEu95BBHBPFn_Xb" x1="17.995" x2="30.174" y1="17.195" y2="29.374" gradientTransform="translate(-.022 -.206)" gradientUnits="userSpaceOnUse"><stop offset="0" stop-color="#32bdef"/><stop offset="1" stop-color="#1ea2e4"/></linearGradient><path fill="url(#hhM9eLKNEu95BBHBPFn_Xb)" d="M33.544,26.761c0.297-0.947,0.457-1.955,0.456-3c-0.005-5.523-4.487-9.996-10.01-9.99	S13.995,18.257,14,23.78c0.001,1.045,0.164,2.053,0.462,3L33.544,26.761z"/><path fill="#b52858" d="M6.003,26.788l36-0.035l0.008,8c0.004,3.866-3.127,7.003-6.993,7.007l-22,0.021	c-3.866,0.004-7.003-3.127-7.007-6.993L6.003,26.788z"/><path fill="#ff9cbe" d="M14.462,26.78c1.278,4.056,5.07,6.995,9.548,6.991c4.477-0.004,8.263-2.951,9.534-7.009L14.462,26.78	z"/><linearGradient id="hhM9eLKNEu95BBHBPFn_Xc" x1="-359" x2="-351" y1="-229.472" y2="-229.472" gradientTransform="translate(389.237 268.891)" gradientUnits="userSpaceOnUse"><stop offset=".266" stop-color="#199ae0"/><stop offset=".582" stop-color="#1898de"/><stop offset=".745" stop-color="#1590d6"/><stop offset=".873" stop-color="#1083c9"/><stop offset=".982" stop-color="#0870b7"/><stop offset="1" stop-color="#076cb3"/></linearGradient><path fill="url(#hhM9eLKNEu95BBHBPFn_Xc)" d="M38.014,37.757l-7,0.007c-0.552,0.001-1,0.449-0.999,1.001l0.003,3l8-0.008L38.014,37.757z"/><linearGradient id="hhM9eLKNEu95BBHBPFn_Xd" x1="37.831" x2="42.034" y1="29.855" y2="41.764" gradientTransform="translate(-.022 -.206)" gradientUnits="userSpaceOnUse"><stop offset="0" stop-color="#32bdef"/><stop offset="1" stop-color="#1ea2e4"/></linearGradient><path fill="url(#hhM9eLKNEu95BBHBPFn_Xd)" d="M38.007,30.757l0.011,11l3.411-3.417c0.375-0.375,0.585-0.884,0.584-1.415l-0.007-7.172	l-3,0.003C38.454,29.757,38.007,30.205,38.007,30.757z"/><linearGradient id="hhM9eLKNEu95BBHBPFn_Xe" x1="-471" x2="-463" y1="882.528" y2="882.528" gradientTransform="rotate(180 -226.297 445.27)" gradientUnits="userSpaceOnUse"><stop offset=".266" stop-color="#199ae0"/><stop offset=".582" stop-color="#1898de"/><stop offset=".745" stop-color="#1590d6"/><stop offset=".873" stop-color="#1083c9"/><stop offset=".982" stop-color="#0870b7"/><stop offset="1" stop-color="#076cb3"/></linearGradient><path fill="url(#hhM9eLKNEu95BBHBPFn_Xe)" d="M9.987,9.784l7-0.007c0.552-0.001,1-0.449,0.999-1.001l-0.003-3l-8,0.008L9.987,9.784z"/><linearGradient id="hhM9eLKNEu95BBHBPFn_Xf" x1="-74.168" x2="-69.965" y1="1141.855" y2="1153.764" gradientTransform="rotate(180 -31.732 579.912)" gradientUnits="userSpaceOnUse"><stop offset="0" stop-color="#32bdef"/><stop offset="1" stop-color="#1ea2e4"/></linearGradient><path fill="url(#hhM9eLKNEu95BBHBPFn_Xf)" d="M9.994,16.784l-0.011-11L6.572,9.202c-0.375,0.375-0.585,0.884-0.584,1.415l0.007,7.172	l3-0.003C9.547,17.784,9.994,17.336,9.994,16.784z"/><linearGradient id="hhM9eLKNEu95BBHBPFn_Xg" x1="-495" x2="-487" y1="-229.472" y2="-229.472" gradientTransform="matrix(-1 .00096 .00096 1 -476.763 269.724)" gradientUnits="userSpaceOnUse"><stop offset=".266" stop-color="#199ae0"/><stop offset=".582" stop-color="#1898de"/><stop offset=".745" stop-color="#1590d6"/><stop offset=".873" stop-color="#1083c9"/><stop offset=".982" stop-color="#0870b7"/><stop offset="1" stop-color="#076cb3"/></linearGradient><path fill="url(#hhM9eLKNEu95BBHBPFn_Xg)" d="M10.014,37.784l7-0.007c0.552-0.001,1,0.447,1.001,0.999l0.003,3l-8,0.008L10.014,37.784z"/><linearGradient id="hhM9eLKNEu95BBHBPFn_Xh" x1="-98.168" x2="-93.965" y1="29.855" y2="41.764" gradientTransform="matrix(-1 .00096 .00096 1 -88.022 -.122)" gradientUnits="userSpaceOnUse"><stop offset="0" stop-color="#32bdef"/><stop offset="1" stop-color="#1ea2e4"/></linearGradient><path fill="url(#hhM9eLKNEu95BBHBPFn_Xh)" d="M10.007,30.784l0.011,11L6.6,38.373c-0.375-0.375-0.587-0.883-0.587-1.414l-0.007-7.172	l3-0.003C9.558,29.784,10.007,30.232,10.007,30.784z"/><linearGradient id="hhM9eLKNEu95BBHBPFn_Xi" x1="-335" x2="-327" y1="882.528" y2="882.528" gradientTransform="matrix(1 -.00096 -.00096 -1 365.834 889.97)" gradientUnits="userSpaceOnUse"><stop offset=".266" stop-color="#199ae0"/><stop offset=".582" stop-color="#1898de"/><stop offset=".745" stop-color="#1590d6"/><stop offset=".873" stop-color="#1083c9"/><stop offset=".982" stop-color="#0870b7"/><stop offset="1" stop-color="#076cb3"/></linearGradient><path fill="url(#hhM9eLKNEu95BBHBPFn_Xi)" d="M37.987,9.757l-7,0.007c-0.552,0.001-1-0.447-1.001-0.999l-0.003-3l8-0.008L37.987,9.757z"/><linearGradient id="hhM9eLKNEu95BBHBPFn_Xj" x1="61.831" x2="66.034" y1="1141.855" y2="1153.764" gradientTransform="matrix(1 -.00096 -.00096 -1 -22.907 1159.817)" gradientUnits="userSpaceOnUse"><stop offset="0" stop-color="#32bdef"/><stop offset="1" stop-color="#1ea2e4"/></linearGradient><path fill="url(#hhM9eLKNEu95BBHBPFn_Xj)" d="M37.994,16.757l-0.011-11l3.417,3.411c0.375,0.375,0.587,0.883,0.587,1.414l0.007,7.172	l-3,0.003C38.442,17.757,37.994,17.309,37.994,16.757z"/><radialGradient id="hhM9eLKNEu95BBHBPFn_Xk" cx="21.054" cy="16.685" r="12.978" gradientTransform="translate(-.022 -.206)" gradientUnits="userSpaceOnUse"><stop offset="0" stop-color="#4b4b4b"/><stop offset=".531" stop-color="#393939"/><stop offset="1" stop-color="#252525"/></radialGradient><path fill="url(#hhM9eLKNEu95BBHBPFn_Xk)" d="M29,23.766c-0.003-2.761-2.243-4.998-5.005-4.995c-2.761,0.003-4.998,2.243-4.995,5.005	c0.001,1.131,0.392,2.162,1.026,2.999l7.955-0.008C28.613,25.928,29.001,24.897,29,23.766z"/><radialGradient id="hhM9eLKNEu95BBHBPFn_Xl" cx="21.054" cy="16.685" r="12.978" gradientTransform="translate(-.022 -.206)" gradientUnits="userSpaceOnUse"><stop offset="0" stop-color="#4b4b4b"/><stop offset=".531" stop-color="#393939"/><stop offset="1" stop-color="#252525"/></radialGradient><path fill="url(#hhM9eLKNEu95BBHBPFn_Xl)" d="M24.005,28.771c1.63-0.002,3.064-0.795,3.975-2.004l-7.955,0.008	C20.94,27.981,22.375,28.772,24.005,28.771z"/><path fill="#b52858" d="M24.005,28.771c1.63-0.002,3.064-0.795,3.975-2.004l-7.955,0.008	C20.94,27.981,22.375,28.772,24.005,28.771z"/><path fill="#cf1928" d="M4.002,26.79c-0.552,0-0.999-0.447-1-0.999c-0.001-0.552,0.446-1,0.999-1.001l40-0.039h0.001	c0.552,0,0.999,0.447,1,0.999c0.001,0.552-0.446,1-0.999,1.001L4.002,26.79L4.002,26.79z"/><circle cx="20.497" cy="20.274" r="1.5" fill="#fff"/></svg>