<svg xmlns="http://www.w3.org/2000/svg" viewBox="0 0 48 48"><linearGradient id="lGD8Z6oQ5zWJaV4mrhdmfa" x1="13.651" x2="45.047" y1="-181.83" y2="-229.848" gradientTransform="matrix(1 0 0 -1 0 -174)" gradientUnits="userSpaceOnUse"><stop offset="0" stop-color="#dfe9f2"/><stop offset=".998" stop-color="#9ea7b0"/></linearGradient><path fill="url(#lGD8Z6oQ5zWJaV4mrhdmfa)" d="M44.223,24c0-2.467-0.468-4.818-1.284-7H5.507c-0.816,2.182-1.284,4.533-1.284,7	s0.468,4.818,1.284,7h37.431C43.755,28.818,44.223,26.467,44.223,24z"/><linearGradient id="lGD8Z6oQ5zWJaV4mrhdmfb" x1="16.464" x2="34.83" y1="1.587" y2="54.64" gradientUnits="userSpaceOnUse"><stop offset=".008" stop-color="#f44f5a"/><stop offset=".447" stop-color="#ee3d4a"/><stop offset="1" stop-color="#e52030"/></linearGradient><path fill="url(#lGD8Z6oQ5zWJaV4mrhdmfb)" d="M24.223,44c-8.579,0-15.875-5.412-18.716-13h37.432C40.098,38.588,32.802,44,24.223,44z M24.223,4C15.644,4,8.348,9.412,5.507,17h37.431C40.098,9.412,32.802,4,24.223,4z"/></svg>