<svg xmlns="http://www.w3.org/2000/svg" xmlns:xlink="http://www.w3.org/1999/xlink" data-name="Слой 1" viewBox="0 0 48 48"><defs><linearGradient id="lKShy1Pt07F6A4ORXlyFcb" x1="14.029" x2="22.504" y1="29.734" y2="29.734" data-name="Безымянный градиент 155" gradientTransform="rotate(-45 18.266 29.734)" gradientUnits="userSpaceOnUse"><stop offset="0" stop-color="#3079d6"/><stop offset="1" stop-color="#297cd2"/></linearGradient><linearGradient id="lKShy1Pt07F6A4ORXlyFca" x1="4.136" x2="30.166" y1="25.538" y2="51.568" data-name="Новый образец градиентной зал 3" gradientUnits="userSpaceOnUse"><stop offset="0" stop-color="#32bdef"/><stop offset="1" stop-color="#1ea2e4"/></linearGradient><linearGradient id="lKShy1Pt07F6A4ORXlyFcc" x1="21.981" x2="48.011" y1="7.693" y2="33.722" xlink:href="#lKShy1Pt07F6A4ORXlyFca"/><linearGradient id="lKShy1Pt07F6A4ORXlyFcd" x1="21.174" x2="37.774" y1="18.531" y2="18.531" xlink:href="#lKShy1Pt07F6A4ORXlyFcb"/><linearGradient id="lKShy1Pt07F6A4ORXlyFce" x1="6.794" x2="18.064" y1="35.576" y2="35.576" xlink:href="#lKShy1Pt07F6A4ORXlyFcb"/></defs><rect width="5.657" height="6.328" x="15.438" y="26.569" fill="url(#lKShy1Pt07F6A4ORXlyFcb)" transform="rotate(45 18.266 29.734)"/><path fill="url(#lKShy1Pt07F6A4ORXlyFca)" d="M18.06378,39.63623a6.83614,6.83614,0,0,1-1.06,1.36l-.21.21-1.49,1.49a1.008,1.008,0,0,1-1.42,0l-8.58-8.58a1.00792,1.00792,0,0,1,0-1.42l1.49-1.49005.21-.21a6.43168,6.43168,0,0,1,1.36-1.05,7.06292,7.06292,0,0,1,9.7,9.69Z"/><path fill="url(#lKShy1Pt07F6A4ORXlyFcc)" d="M42.99377,6.1062c-.35,3.32-1.71,12.73-5.22,17.84a11.07454,11.07454,0,0,1-1.27,1.55c-.48.48-.97.92-1.48,1.34-5.21,4.27-11.80005,5.24-15.32,1.71-3.53-3.52-2.77-10.31,1.47-15.56a18.43307,18.43307,0,0,1,1.33-1.49,11.07107,11.07107,0,0,1,1.55-1.27c5.11-3.51,14.52-4.87,17.84-5.22A.99159.99159,0,0,1,42.99377,6.1062Z"/><path fill="url(#lKShy1Pt07F6A4ORXlyFcd)" d="M37.7738,23.94623a11.07454,11.07454,0,0,1-1.27,1.55c-.48.48-.97.92-1.48,1.34l-13.85-13.85a18.43307,18.43307,0,0,1,1.33-1.49,11.07107,11.07107,0,0,1,1.55-1.27Z"/><path fill="url(#lKShy1Pt07F6A4ORXlyFce)" d="M18.06378,39.63623a6.83614,6.83614,0,0,1-1.06,1.36l-.21.21-10-10,.21-.21a6.43168,6.43168,0,0,1,1.36-1.05Z"/><path fill="#e52030" d="M14.804,26.47845h9.89949a0,0,0,0,1,0,0V28.014a2,2,0,0,1-2,2H16.804a2,2,0,0,1-2-2V26.47845a0,0,0,0,1,0,0Z" transform="rotate(45 19.754 28.246)"/></svg>