<svg xmlns="http://www.w3.org/2000/svg" viewBox="0 0 48 48"><linearGradient id="u5w1WQiC8muZcP_2oCB1Ja" x1="23.988" x2="24.015" y1="13.072" y2="40.045" gradientUnits="userSpaceOnUse"><stop offset="0" stop-color="#8795a1"/><stop offset="1" stop-color="#6d7882"/></linearGradient><path fill="url(#u5w1WQiC8muZcP_2oCB1Ja)" d="M41,40H7c-1.657,0-3-1.343-3-3V13h40v24C44,38.657,42.657,40,41,40z"/><linearGradient id="u5w1WQiC8muZcP_2oCB1Jb" x1="24" x2="24" y1="8.081" y2="13.896" gradientUnits="userSpaceOnUse"><stop offset="0" stop-color="#c3cdd9"/><stop offset="1" stop-color="#9fa7b0"/></linearGradient><path fill="url(#u5w1WQiC8muZcP_2oCB1Jb)" d="M44,14H4c-0.552,0-1-0.448-1-1v-2c0-1.657,1.343-3,3-3h36c1.657,0,3,1.343,3,3v2	C45,13.552,44.552,14,44,14z"/><path d="M18.5,24H16v-2.5c0-0.828-0.672-1.5-1.5-1.5h-1c-0.828,0-1.5,0.672-1.5,1.5V24H9.5	C8.672,24,8,24.672,8,25.5v1C8,27.328,8.672,28,9.5,28H12v2.5c0,0.828,0.672,1.5,1.5,1.5h1c0.828,0,1.5-0.672,1.5-1.5V28h2.5	c0.828,0,1.5-0.672,1.5-1.5v-1C20,24.672,19.328,24,18.5,24z" opacity=".05"/><path d="M18.5,24.5h-3v-3c0-0.552-0.448-1-1-1h-1c-0.552,0-1,0.448-1,1v3h-3c-0.552,0-1,0.448-1,1v1	c0,0.552,0.448,1,1,1h3v3c0,0.552,0.448,1,1,1h1c0.552,0,1-0.448,1-1v-3h3c0.552,0,1-0.448,1-1v-1	C19.5,24.948,19.052,24.5,18.5,24.5z" opacity=".07"/><path fill="#fff" d="M13.5,21h1c0.276,0,0.5,0.224,0.5,0.5v9c0,0.276-0.224,0.5-0.5,0.5h-1c-0.276,0-0.5-0.224-0.5-0.5v-9	C13,21.224,13.224,21,13.5,21z"/><path fill="#fff" d="M19,25.5v1c0,0.276-0.224,0.5-0.5,0.5h-9C9.224,27,9,26.776,9,26.5v-1C9,25.224,9.224,25,9.5,25h9	C18.776,25,19,25.224,19,25.5z"/><path d="M38.5,24h-9c-0.828,0-1.5,0.672-1.5,1.5v1c0,0.828,0.672,1.5,1.5,1.5h9c0.828,0,1.5-0.672,1.5-1.5v-1	C40,24.672,39.328,24,38.5,24z" opacity=".05"/><path d="M38.5,24.5h-9c-0.552,0-1,0.448-1,1v1c0,0.552,0.448,1,1,1h9c0.552,0,1-0.448,1-1v-1	C39.5,24.948,39.052,24.5,38.5,24.5z" opacity=".07"/><path fill="#fff" d="M39,25.5v1c0,0.276-0.224,0.5-0.5,0.5h-9c-0.276,0-0.5-0.224-0.5-0.5v-1c0-0.276,0.224-0.5,0.5-0.5h9	C38.776,25,39,25.224,39,25.5z"/><path fill="#0078d4" d="M36,5h-4c-0.552,0-1,0.448-1,1v2h6V6C37,5.448,36.552,5,36,5z"/><linearGradient id="u5w1WQiC8muZcP_2oCB1Jc" x1="13.686" x2="14.214" y1="4.844" y2="8.408" gradientUnits="userSpaceOnUse"><stop offset="0" stop-color="#f44f5a"/><stop offset=".443" stop-color="#ee3d4a"/><stop offset="1" stop-color="#e52030"/></linearGradient><path fill="url(#u5w1WQiC8muZcP_2oCB1Jc)" d="M16,5h-4c-0.552,0-1,0.448-1,1v2h6V6C17,5.448,16.552,5,16,5z"/></svg>