<svg xmlns="http://www.w3.org/2000/svg" viewBox="0 0 48 48"><radialGradient id="0y6fXfGCvlzGD8pOwoms_a" cx="24.052" cy="21.482" r="22.723" gradientTransform="matrix(1 0 0 .7871 0 4.572)" gradientUnits="userSpaceOnUse"><stop offset=".545" stop-color="#fdde02"/><stop offset="1" stop-color="#f0a800"/></radialGradient><path fill="url(#0y6fXfGCvlzGD8pOwoms_a)" d="M33,8c-2.54,0-4.916,0.687-6.97,1.87C23.372,7.472,19.862,6,16,6C7.716,6,1,12.716,1,21 c0,8.284,6.716,15,15,15c3.232,0,6.217-1.032,8.665-2.77C26.996,34.962,29.873,36,33,36c7.732,0,14-6.268,14-14S40.732,8,33,8z"/><linearGradient id="0y6fXfGCvlzGD8pOwoms_b" x1="15.487" x2="16.134" y1="30.987" y2="41.268" gradientUnits="userSpaceOnUse"><stop offset="0" stop-color="#199ae0"/><stop offset="1" stop-color="#0782d8"/></linearGradient><path fill="url(#0y6fXfGCvlzGD8pOwoms_b)" d="M16,30.659c-6.627,0-12,3.796-12,7.708V40c0,0.552,0.448,1,1,1h23v-2.633	C28,34.455,22.627,30.659,16,30.659z"/><path fill="#fefefe" d="M23,21c0-3.866-3.134-7-7-7s-7,3.134-7,7c0,3.5,4,6.65,4,9.5V32h6v-1.5C19,27.65,23,24.5,23,21z"/><linearGradient id="0y6fXfGCvlzGD8pOwoms_c" x1="30.63" x2="33.777" y1="30.618" y2="41.444" gradientUnits="userSpaceOnUse"><stop offset="0" stop-color="#32bdef"/><stop offset="1" stop-color="#1ea2e4"/></linearGradient><path fill="url(#0y6fXfGCvlzGD8pOwoms_c)" d="M33,31c-6.075,0-11,3.312-11,7v2c0,0.552,0.448,1,1,1h20c0.552,0,1-0.448,1-1v-2	C44,34.312,39.075,31,33,31z"/><radialGradient id="0y6fXfGCvlzGD8pOwoms_d" cx="14.792" cy="34.484" r="8.701" gradientTransform="matrix(.765 0 0 .765 3.29 5.235)" gradientUnits="userSpaceOnUse"><stop offset="0" stop-color="#6e757b"/><stop offset="1" stop-color="#4a4e52"/></radialGradient><path fill="url(#0y6fXfGCvlzGD8pOwoms_d)" d="M19,32h-6c0,0.427,0,2,0,2c0,1.657,1.343,3,3,3s3-1.343,3-3C19,34,19,32.427,19,32z"/><path fill="#fefefe" d="M39,22c0-3.314-2.686-6-6-6s-6,2.686-6,6c0,3,4,5.557,4,8v2h4v-2C35,27.557,39,25,39,22z"/><radialGradient id="0y6fXfGCvlzGD8pOwoms_e" cx="37.621" cy="34.584" r="6.521" gradientTransform="matrix(.765 0 0 .765 3.29 5.235)" gradientUnits="userSpaceOnUse"><stop offset="0" stop-color="#6e757b"/><stop offset="1" stop-color="#4a4e52"/></radialGradient><path fill="url(#0y6fXfGCvlzGD8pOwoms_e)" d="M35,32h-4c0,0.285,0,2,0,2c0,1.105,0.895,2,2,2s2-0.895,2-2C35,34,35,32.285,35,32z"/></svg>