<svg xmlns="http://www.w3.org/2000/svg" viewBox="0 0 48 48"><linearGradient id="9ziILT2_R5v3H8NZZEtL3a" x1="6.414" x2="41.774" y1="376.338" y2="350.512" gradientTransform="matrix(1 0 0 -1 0 390)" gradientUnits="userSpaceOnUse"><stop offset="0" stop-color="#28afea"/><stop offset="1" stop-color="#047ed6"/></linearGradient><path fill="url(#9ziILT2_R5v3H8NZZEtL3a)" d="M6,40V12h36v28c0,1.1-0.9,2-2,2H8C6.9,42,6,41.1,6,40z"/><linearGradient id="9ziILT2_R5v3H8NZZEtL3b" x1="6.42" x2="41.198" y1="383.392" y2="376.32" gradientTransform="matrix(1 0 0 -1 0 390)" gradientUnits="userSpaceOnUse"><stop offset="0" stop-color="#0077d2"/><stop offset="1" stop-color="#0b59a2"/></linearGradient><path fill="url(#9ziILT2_R5v3H8NZZEtL3b)" d="M42,8v6H6V8c0-1.1,0.9-2,2-2h32C41.1,6,42,6.9,42,8z"/><path d="M35.5,12.5L35.5,12.5c-1.657,0-3-1.343-3-3V6h6v3.5	C38.5,11.157,37.157,12.5,35.5,12.5z" opacity=".05"/><path d="M35.5,11.75L35.5,11.75c-1.243,0-2.25-1.007-2.25-2.25V6h4.5v3.5	C37.75,10.743,36.743,11.75,35.5,11.75z" opacity=".07"/><path d="M12.5,12.5L12.5,12.5c-1.657,0-3-1.343-3-3V6h6v3.5	C15.5,11.157,14.157,12.5,12.5,12.5z" opacity=".05"/><path d="M12.5,11.75L12.5,11.75c-1.243,0-2.25-1.007-2.25-2.25V6h4.5v3.5	C14.75,10.743,13.743,11.75,12.5,11.75z" opacity=".07"/><path fill="#3ccbf4" d="M12.5,11L12.5,11c-0.828,0-1.5-0.672-1.5-1.5v-4C11,4.672,11.672,4,12.5,4l0,0	C13.328,4,14,4.672,14,5.5v4C14,10.328,13.328,11,12.5,11z"/><path fill="#fff" d="M38,19.5v3c0,0.276-0.224,0.5-0.5,0.5h-3c-0.276,0-0.5-0.224-0.5-0.5v-3c0-0.276,0.224-0.5,0.5-0.5h3	C37.776,19,38,19.224,38,19.5z M30,19.5v3c0,0.276-0.224,0.5-0.5,0.5h-3c-0.276,0-0.5-0.224-0.5-0.5v-3c0-0.276,0.224-0.5,0.5-0.5h3	C29.776,19,30,19.224,30,19.5z M22,19.5v3c0,0.276-0.224,0.5-0.5,0.5h-3c-0.276,0-0.5-0.224-0.5-0.5v-3c0-0.276,0.224-0.5,0.5-0.5h3	C21.776,19,22,19.224,22,19.5z"/><path fill="#fff" d="M38,26.5v3c0,0.276-0.224,0.5-0.5,0.5h-3c-0.276,0-0.5-0.224-0.5-0.5v-3c0-0.276,0.224-0.5,0.5-0.5h3	C37.776,26,38,26.224,38,26.5z M30,26.5v3c0,0.276-0.224,0.5-0.5,0.5h-3c-0.276,0-0.5-0.224-0.5-0.5v-3c0-0.276,0.224-0.5,0.5-0.5h3	C29.776,26,30,26.224,30,26.5z M22,26.5v3c0,0.276-0.224,0.5-0.5,0.5h-3c-0.276,0-0.5-0.224-0.5-0.5v-3c0-0.276,0.224-0.5,0.5-0.5h3	C21.776,26,22,26.224,22,26.5z M14,26.5v3c0,0.276-0.224,0.5-0.5,0.5h-3c-0.276,0-0.5-0.224-0.5-0.5v-3c0-0.276,0.224-0.5,0.5-0.5h3	C13.776,26,14,26.224,14,26.5z"/><path fill="#fff" d="M30,33.5v3c0,0.276-0.224,0.5-0.5,0.5h-3c-0.276,0-0.5-0.224-0.5-0.5v-3c0-0.276,0.224-0.5,0.5-0.5h3	C29.776,33,30,33.224,30,33.5z M22,33.5v3c0,0.276-0.224,0.5-0.5,0.5h-3c-0.276,0-0.5-0.224-0.5-0.5v-3c0-0.276,0.224-0.5,0.5-0.5h3	C21.776,33,22,33.224,22,33.5z M14,33.5v3c0,0.276-0.224,0.5-0.5,0.5h-3c-0.276,0-0.5-0.224-0.5-0.5v-3c0-0.276,0.224-0.5,0.5-0.5h3	C13.776,33,14,33.224,14,33.5z"/><path fill="#3ccbf4" d="M35.5,11L35.5,11c-0.828,0-1.5-0.672-1.5-1.5v-4C34,4.672,34.672,4,35.5,4l0,0	C36.328,4,37,4.672,37,5.5v4C37,10.328,36.328,11,35.5,11z"/><radialGradient id="9ziILT2_R5v3H8NZZEtL3c" cx="38.085" cy="37.404" r="11.346" gradientUnits="userSpaceOnUse"><stop offset="0"/><stop offset="1" stop-opacity="0"/></radialGradient><path fill="url(#9ziILT2_R5v3H8NZZEtL3c)" d="M38,26c-6.627,0-12,5.373-12,12c0,1.405,0.254,2.747,0.697,4H40c1.1,0,2-0.9,2-2V26.697	C40.747,26.254,39.405,26,38,26z"/><linearGradient id="9ziILT2_R5v3H8NZZEtL3d" x1="31.136" x2="45.056" y1="358.864" y2="344.944" gradientTransform="matrix(1 0 0 -1 0 390)" gradientUnits="userSpaceOnUse"><stop offset="0" stop-color="#fede00"/><stop offset="1" stop-color="#ffd000"/></linearGradient><circle cx="38" cy="38" r="10" fill="url(#9ziILT2_R5v3H8NZZEtL3d)"/><circle cx="38" cy="38" r="8" fill="#f5be00"/><path fill="#fee119" d="M35.767,41.685v-1.49c0.541,0.331,1.117,0.497,1.728,0.497c0.46,0,0.82-0.109,1.079-0.328	c0.259-0.219,0.389-0.516,0.389-0.892c0-0.784-0.554-1.176-1.662-1.176c-0.361,0-0.797,0.033-1.309,0.099v-4.423h4.384v1.425h-2.893	v1.584c0.232-0.022,0.451-0.033,0.657-0.033c0.813,0,1.45,0.214,1.91,0.64c0.46,0.427,0.69,1.002,0.69,1.723	c0,0.798-0.274,1.451-0.823,1.957c-0.548,0.507-1.292,0.759-2.231,0.759C36.926,42.028,36.286,41.914,35.767,41.685z"/></svg>