<svg xmlns="http://www.w3.org/2000/svg" viewBox="0 0 48 48"><linearGradient id="jwSQ6KjCFbc6JpCMCeODfa" x1="3.87" x2="29.743" y1="7.863" y2="34.501" gradientUnits="userSpaceOnUse"><stop offset="0" stop-color="#5c65d6"/><stop offset=".999" stop-color="#464eb0"/></linearGradient><path fill="url(#jwSQ6KjCFbc6JpCMCeODfa)" d="M47.048,25.198c-0.114-0.096-0.211-0.209-0.289-0.335L45,22v-1l-0.593-0.593	C44.146,20.146,44,19.793,44,19.424v-0.565c0-0.526-0.297-1.008-0.768-1.243L42,17v-1h-0.875l-1.5,1L39,16h-1l-1,1h-0.75	l-0.268-0.671c-0.149-0.373-0.453-0.663-0.832-0.796l-0.884-0.309c-0.404-0.141-0.721-0.461-0.858-0.867l-0.073-0.215	c-0.094-0.278-0.274-0.52-0.514-0.69l-0.278-0.197C32.308,13.089,32.028,13,31.74,13h-1.164c-0.369,0-0.722,0.146-0.983,0.407L29,14	l1,0.625l-0.006,0.669l-0.91,0.917c-0.138,0.139-0.304,0.248-0.487,0.318l-0.981,0.378C27.457,16.968,27.287,17,27.116,17h-0.055	c-0.627,0-1.176,0.42-1.341,1.024l-0.001,0.003c-0.088,0.324-0.291,0.606-0.571,0.792l-0.825,0.549	c-0.132,0.088-0.247,0.197-0.342,0.323L23,21v0.5L22.625,22H21.5L21,21l-2,1v1h-1l-0.625-1l-0.613,0.241	c-0.324,0.128-0.589,0.372-0.741,0.686L15.5,24l-0.875-0.25L14,23h-2.669c-0.218,0-0.432,0.051-0.627,0.149l-0.609,0.307	c-0.261,0.132-0.473,0.342-0.608,0.601l-0.332,0.641C9.053,24.897,9,25.116,9,25.339V26.5L8.5,27h-1L7,27.75V30H6.25l-2.227-0.993	L3.25,29l-0.875,0.625L2,30.5l1,1.125l-0.736,0.38L2,33l-0.875,0.375L1,34l-1,1h10v-1h27.615c0.252,0,0.499-0.068,0.715-0.198L43,31	v-1l1.84-1.84c0.106-0.106,0.228-0.194,0.361-0.26l1.596-0.798c0.134-0.067,0.256-0.155,0.361-0.26L48,26L47.048,25.198z"/></svg>