<svg xmlns="http://www.w3.org/2000/svg" data-name="Слой 1" viewBox="0 0 48 48"><defs><linearGradient id="fCfhvpc8pQ~bfDJgaKTCGa" x1="25" x2="25" y1="33.141" y2="43.219" data-name="Безымянный градиент 18" gradientUnits="userSpaceOnUse"><stop offset=".002" stop-color="#454545"/><stop offset=".013" stop-color="#464646"/><stop offset=".874" stop-color="#626262"/><stop offset="1" stop-color="#6d6d6d"/></linearGradient><linearGradient id="fCfhvpc8pQ~bfDJgaKTCGb" x1="35" x2="35" y1="12.207" y2="3.642" data-name="Безымянный градиент 147" gradientUnits="userSpaceOnUse"><stop offset="0" stop-color="#dfe9f2"/><stop offset=".391" stop-color="#d6e0e9"/><stop offset="1" stop-color="#bfc8d1"/></linearGradient><linearGradient id="fCfhvpc8pQ~bfDJgaKTCGc" x1="14" x2="29" y1="24.625" y2="24.625" data-name="Безымянный градиент 5" gradientUnits="userSpaceOnUse"><stop offset="0" stop-color="#3079d6"/><stop offset="1" stop-color="#297cd2"/></linearGradient></defs><path fill="url(#fCfhvpc8pQ~bfDJgaKTCGa)" d="M31.22559,44H18.77441a2.999,2.999,0,0,1-2.84472-3.94922l2.12207-6.36719A.99889.99889,0,0,1,19,33H31a.9989.9989,0,0,1,.94824.68359l2.12207,6.36719A2.999,2.999,0,0,1,31.22559,44ZM19.7207,35l-1.89453,5.68359A1.00016,1.00016,0,0,0,18.77441,42H31.22559a1.00016,1.00016,0,0,0,.94824-1.31641L30.2793,35Z"/><path fill="#0370c8" d="M32.5,35H18.94141a4.494,4.494,0,0,1-4.26856-3.07617L7.12793,9.291a2.50049,2.50049,0,0,1,4.74414-1.582L19.30176,30H32.5a2.5,2.5,0,0,1,0,5Z"/><rect width="12" height="16" x="29" y="5" fill="#35c1f1" rx="5"/><path fill="url(#fCfhvpc8pQ~bfDJgaKTCGb)" d="M41,10v2H29V10a5.00181,5.00181,0,0,1,5-5h2A5.00181,5.00181,0,0,1,41,10Z"/><path fill="url(#fCfhvpc8pQ~bfDJgaKTCGc)" d="M15.625,23H26.75A2.25,2.25,0,0,1,29,25.25v0a1,1,0,0,1-1,1H15.625A1.625,1.625,0,0,1,14,24.625v0A1.625,1.625,0,0,1,15.625,23Z"/><path d="M18.22,26.75l-.17-.5H15.62a1.625,1.625,0,0,1,0-3.25h1.35l-.34-1H15.62a2.625,2.625,0,0,0,0,5.25h2.76Z" opacity=".05"/><path d="M18.05,26.25H15.62a1.625,1.625,0,0,1,0-3.25h1.35l-.17-.5H15.62a2.125,2.125,0,0,0,0,4.25h2.6Z" opacity=".07"/><rect width="12" height="1" x="29" y="12" opacity=".05"/><rect width="12" height=".5" x="29" y="12" opacity=".07"/></svg>