<svg xmlns="http://www.w3.org/2000/svg" viewBox="0 0 48 48"><linearGradient id="p4cKCt8T0oLPqdeAOb2vJa" x1="24" x2="24" y1="518.016" y2="509.747" gradientTransform="matrix(1 0 0 -1 0 524.724)" gradientUnits="userSpaceOnUse"><stop offset="0" stop-color="#eba600"/><stop offset="1" stop-color="#c28200"/></linearGradient><path fill="url(#p4cKCt8T0oLPqdeAOb2vJa)" d="M24.414,10.414l-2.536-2.536C21.316,7.316,20.553,7,19.757,7H5C3.895,7,3,7.895,3,9v30 c0,1.105,0.895,2,2,2h38c1.105,0,2-0.895,2-2V13c0-1.105-0.895-2-2-2H25.828C25.298,11,24.789,10.789,24.414,10.414z"/><linearGradient id="p4cKCt8T0oLPqdeAOb2vJb" x1="24" x2="24" y1="513.87" y2="483.741" gradientTransform="matrix(1 0 0 -1 0 524.724)" gradientUnits="userSpaceOnUse"><stop offset="0" stop-color="#ffd869"/><stop offset="1" stop-color="#fec52b"/></linearGradient><path fill="url(#p4cKCt8T0oLPqdeAOb2vJb)" d="M21.586,14.414l3.268-3.268C24.947,11.053,25.074,11,25.207,11H43c1.105,0,2,0.895,2,2v26 c0,1.105-0.895,2-2,2H5c-1.105,0-2-0.895-2-2V15.5C3,15.224,3.224,15,3.5,15h16.672C20.702,15,21.211,14.789,21.586,14.414z"/><linearGradient id="p4cKCt8T0oLPqdeAOb2vJc" x1="30.901" x2="31.072" y1="20.984" y2="22.744" gradientUnits="userSpaceOnUse"><stop offset="0" stop-color="#bd4ff4"/><stop offset=".587" stop-color="#a235ec"/><stop offset="1" stop-color="#8c20e5"/></linearGradient><path fill="url(#p4cKCt8T0oLPqdeAOb2vJc)" d="M27,21.5v1c0,0.276,0.224,0.5,0.5,0.5h7c0.276,0,0.5-0.224,0.5-0.5v-1 c0-0.276-0.224-0.5-0.5-0.5h-7C27.224,21,27,21.224,27,21.5z"/><linearGradient id="p4cKCt8T0oLPqdeAOb2vJd" x1="30.901" x2="31.072" y1="30.984" y2="32.743" gradientUnits="userSpaceOnUse"><stop offset="0" stop-color="#bd4ff4"/><stop offset=".587" stop-color="#a235ec"/><stop offset="1" stop-color="#8c20e5"/></linearGradient><path fill="url(#p4cKCt8T0oLPqdeAOb2vJd)" d="M27,31.5v1c0,0.276,0.224,0.5,0.5,0.5h7c0.276,0,0.5-0.224,0.5-0.5v-1 c0-0.276-0.224-0.5-0.5-0.5h-7C27.224,31,27,31.224,27,31.5z"/><linearGradient id="p4cKCt8T0oLPqdeAOb2vJe" x1="30.901" x2="31.072" y1="34.984" y2="36.743" gradientUnits="userSpaceOnUse"><stop offset="0" stop-color="#bd4ff4"/><stop offset=".587" stop-color="#a235ec"/><stop offset="1" stop-color="#8c20e5"/></linearGradient><path fill="url(#p4cKCt8T0oLPqdeAOb2vJe)" d="M27,35.5v1c0,0.276,0.224,0.5,0.5,0.5h7c0.276,0,0.5-0.224,0.5-0.5v-1 c0-0.276-0.224-0.5-0.5-0.5h-7C27.224,35,27,35.224,27,35.5z"/><linearGradient id="p4cKCt8T0oLPqdeAOb2vJf" x1="15.981" x2="17.884" y1="18.099" y2="25.382" gradientUnits="userSpaceOnUse"><stop offset="0" stop-color="#bd4ff4"/><stop offset=".587" stop-color="#a235ec"/><stop offset="1" stop-color="#8c20e5"/></linearGradient><path fill="url(#p4cKCt8T0oLPqdeAOb2vJf)" d="M17.5,18h-1c-0.276,0-0.5,0.224-0.5,0.5V21h-2.5c-0.276,0-0.5,0.224-0.5,0.5v1 c0,0.276,0.224,0.5,0.5,0.5H16v2.5c0,0.276,0.224,0.5,0.5,0.5h1c0.276,0,0.5-0.224,0.5-0.5V23h2.5c0.276,0,0.5-0.224,0.5-0.5v-1 c0-0.276-0.224-0.5-0.5-0.5H18v-2.5C18,18.224,17.776,18,17.5,18z"/><linearGradient id="p4cKCt8T0oLPqdeAOb2vJg" x1="16.553" x2="17.383" y1="30.615" y2="36.902" gradientUnits="userSpaceOnUse"><stop offset="0" stop-color="#bd4ff4"/><stop offset=".587" stop-color="#a235ec"/><stop offset="1" stop-color="#8c20e5"/></linearGradient><path fill="url(#p4cKCt8T0oLPqdeAOb2vJg)" d="M18.768,30.819L17,32.586l-1.768-1.768c-0.195-0.195-0.512-0.195-0.707,0l-0.707,0.707 c-0.195,0.195-0.195,0.512,0,0.707L15.586,34l-1.768,1.768c-0.195,0.195-0.195,0.512,0,0.707l0.707,0.707 c0.195,0.195,0.512,0.195,0.707,0L17,35.414l1.768,1.768c0.195,0.195,0.512,0.195,0.707,0l0.707-0.707 c0.195-0.195,0.195-0.512,0-0.707L18.414,34l1.768-1.768c0.195-0.195,0.195-0.512,0-0.707l-0.707-0.707 C19.279,30.623,18.963,30.623,18.768,30.819z"/></svg>