<svg xmlns="http://www.w3.org/2000/svg" data-name="Layer 1" viewBox="0 0 48 48"><defs><linearGradient id="WDfomMgVaJE4qwpSPUpD4a" x1="31" x2="31" y1="11.212" y2="30.405" data-name="Безымянный градиент 26" gradientUnits="userSpaceOnUse"><stop offset="0" stop-color="#c8cdd1"/><stop offset="1" stop-color="#fafafb"/></linearGradient><linearGradient id="WDfomMgVaJE4qwpSPUpD4b" x1="23.873" x2="34.884" y1="14.124" y2="44.375" data-name="Безымянный градиент 88" gradientUnits="userSpaceOnUse"><stop offset="0" stop-color="#f44f5a"/><stop offset=".443" stop-color="#ee3d4a"/><stop offset="1" stop-color="#e52030"/></linearGradient></defs><path fill="#b31523" d="M32.90527,15.44428a4.091,4.091,0,0,0-3.67382-.79883,4.975,4.975,0,0,0-1.75379.79285,11.01826,11.01826,0,0,0-1.32812-1.80109,2.71027,2.71027,0,0,1,.95984-1.17926,2.14568,2.14568,0,0,1,1.89648-.39258.99964.99964,0,1,0,.63281-1.89648,4.07781,4.07781,0,0,0-3.69824.667,4.97162,4.97162,0,0,0-1.31915,1.405,10.97848,10.97848,0,0,0-1.91553-1.15979,2.704,2.704,0,0,1,.43488-1.45319A2.1438,2.1438,0,0,1,24.74316,8.538a.99955.99955,0,1,0-.14062-1.99414,4.0864,4.0864,0,0,0-3.16309,2.03222,4.97618,4.97618,0,0,0-.67993,1.80121,10.97291,10.97291,0,0,0-2.212-.33355,2.71636,2.71636,0,0,1-.156-1.51453,2.142,2.142,0,0,1,1.06445-1.61816A1.00012,1.00012,0,0,0,18.56152,5.122,4.08947,4.08947,0,0,0,16.418,8.20893a4.97062,4.97062,0,0,0,.061,1.92621,10.91167,10.91167,0,0,0-2.17437.53448A2.70951,2.70951,0,0,1,13.584,9.33393a2.14134,2.14134,0,0,1,.36426-1.90332,1.00035,1.00035,0,1,0-1.51172-1.31055,4.09318,4.09318,0,0,0-.79882,3.67383,4.975,4.975,0,0,0,.79284,1.75378,11.01866,11.01866,0,0,0-1.80108,1.32813A2.71042,2.71042,0,0,1,9.4502,11.916a2.14193,2.14193,0,0,1-.39258-1.89649.99964.99964,0,0,0-1.89649-.63281,4.08447,4.08447,0,0,0,.667,3.69824,4.97163,4.97163,0,0,0,1.405,1.31916A10.97911,10.97911,0,0,0,8.0733,16.31952a2.70679,2.70679,0,0,1-1.45318-.43481,2.14383,2.14383,0,0,1-1.08985-1.60254.99955.99955,0,1,0-1.99414.14062,4.08641,4.08641,0,0,0,2.03223,3.16309,4.96687,4.96687,0,0,0,1.80115.68011,10.97737,10.97737,0,0,0-.3335,2.21155,2.71475,2.71475,0,0,1-1.51453.15619,2.14193,2.14193,0,0,1-1.61816-1.06445,1.00011,1.00011,0,1,0-1.78906.89453,4.08947,4.08947,0,0,0,3.08691,2.14355,5.16616,5.16616,0,0,0,.82617.06641,4.72741,4.72741,0,0,0,1.098-.14069,10.90941,10.90941,0,0,0,.5365,2.18763,2.70962,2.70962,0,0,1-1.3357.72064,2.144,2.144,0,0,1-1.90332-.36426A1.00035,1.00035,0,0,0,3.1123,26.58881a3.89915,3.89915,0,0,0,2.583.92871,4.75194,4.75194,0,0,0,1.09082-.12988,4.97531,4.97531,0,0,0,1.75379-.79285A11.01911,11.01911,0,0,0,9.868,28.39588a2.71033,2.71033,0,0,1-.95984,1.17926,2.14947,2.14947,0,0,1-1.89648.39258.99964.99964,0,1,0-.63281,1.89648,3.6874,3.6874,0,0,0,1.17578.19043,4.325,4.325,0,0,0,2.52246-.85742,4.97162,4.97162,0,0,0,1.31915-1.405A10.97686,10.97686,0,0,0,13.31183,30.952a2.70413,2.70413,0,0,1-.43488,1.45319,2.1438,2.1438,0,0,1-1.60254,1.08984.99978.99978,0,0,0,.06934,1.99707c.02344,0,.04785-.001.07129-.00293A4.0864,4.0864,0,0,0,14.57813,33.457a4.97625,4.97625,0,0,0,.67993-1.8012A10.97208,10.97208,0,0,0,28.35571,17.31238a2.70942,2.70942,0,0,1,1.3357-.72064,2.14131,2.14131,0,0,1,1.90332.36426,1.00035,1.00035,0,1,0,1.31054-1.51172Z"/><circle cx="31" cy="29.017" r="9" fill="url(#WDfomMgVaJE4qwpSPUpD4a)"/><path fill="url(#WDfomMgVaJE4qwpSPUpD4b)" d="M45.99707,33.17768a1.00133,1.00133,0,0,0-1.41113-.10059,2.14091,2.14091,0,0,1-1.90332.36426,2.71,2.71,0,0,1-1.33417-.71936,10.91407,10.91407,0,0,0,.597-2.60272,1.00669,1.00669,0,0,0-1.001-1.10273H21.05554a1.00669,1.00669,0,0,0-1.001,1.10273,10.92319,10.92319,0,0,0,.30389,1.64874,4.95952,4.95952,0,0,0-1.79889.6792,4.08641,4.08641,0,0,0-2.03223,3.16308.99872.99872,0,0,0,.92676,1.06739c.02344.002.04785.00293.07129.00293a.9992.9992,0,0,0,.99609-.92969,2.14383,2.14383,0,0,1,1.08985-1.60254,2.701,2.701,0,0,1,1.45007-.43512,10.9953,10.9953,0,0,0,1.155,1.92114,4.972,4.972,0,0,0-1.397,1.31378,4.08449,4.08449,0,0,0-.667,3.69825.99964.99964,0,0,0,1.89649-.63282,2.14191,2.14191,0,0,1,.39258-1.89648,2.7123,2.7123,0,0,1,1.1679-.95422,11.03494,11.03494,0,0,0,1.81092,1.32483,4.97435,4.97435,0,0,0-.79132,1.75146,4.09318,4.09318,0,0,0,.79882,3.67383,1.00035,1.00035,0,0,0,1.51172-1.31055,2.1413,2.1413,0,0,1-.36425-1.90332,2.70962,2.70962,0,0,1,.719-1.33374,10.92,10.92,0,0,0,2.1759.53327,4.97176,4.97176,0,0,0-.06091,1.92547,4.08949,4.08949,0,0,0,2.14355,3.08692,1.00012,1.00012,0,0,0,.89454-1.78907,2.14194,2.14194,0,0,1-1.06446-1.61816,2.717,2.717,0,0,1,.1554-1.51282,10.98279,10.98279,0,0,0,2.21313-.33234,4.97579,4.97579,0,0,0,.67932,1.79828,4.0864,4.0864,0,0,0,3.16309,2.03223c.02344.002.04785.00293.07129.00293a.99978.99978,0,0,0,.06934-1.99707,2.1438,2.1438,0,0,1-1.60254-1.08984,2.70491,2.70491,0,0,1-.43457-1.44941,10.99118,10.99118,0,0,0,1.92157-1.15417,4.97178,4.97178,0,0,0,1.3128,1.39557,4.325,4.325,0,0,0,2.52246.85742,3.683,3.683,0,0,0,1.17578-.19043.99964.99964,0,1,0-.63281-1.89648,2.15088,2.15088,0,0,1-1.89648-.39258,2.71241,2.71241,0,0,1-.95508-1.16968,11.031,11.031,0,0,0,1.325-1.80957,4.97429,4.97429,0,0,0,1.75214.79175,4.75194,4.75194,0,0,0,1.09082.12988,3.901,3.901,0,0,0,2.583-.92871A1.00133,1.00133,0,0,0,45.99707,33.17768Z"/><circle cx="14" cy="15.017" r="1" fill="#eb6773"/><circle cx="11" cy="19.017" r="1" fill="#eb6773"/><circle cx="21" cy="14.017" r="1" fill="#eb6773"/><circle cx="25" cy="18.017" r="1" fill="#eb6773"/><circle cx="18" cy="18.017" r="1" fill="#eb6773"/><circle cx="21" cy="22.017" r="1" fill="#eb6773"/><circle cx="15" cy="22.017" r="1" fill="#eb6773"/><circle cx="18" cy="27.017" r="1" fill="#eb6773"/><circle cx="24" cy="33.017" r="1" fill="#f09ca2"/><circle cx="28" cy="36.017" r="1" fill="#f09ca2"/><circle cx="29" cy="32.017" r="1" fill="#f09ca2"/><circle cx="33" cy="37.017" r="1" fill="#f09ca2"/><circle cx="34" cy="33.017" r="1" fill="#f09ca2"/><circle cx="39" cy="32.017" r="1" fill="#f09ca2"/><circle cx="12" cy="26.017" r="1" fill="#eb6773"/></svg>