<svg xmlns="http://www.w3.org/2000/svg" viewBox="0 0 48 48"><path fill="#5c2415" d="M23,9.75h-2V7c0-1.105,0.895-2,2-2h0V9.75z"/><path fill="#5c2415" d="M25,9.75h2V7c0-1.105-0.895-2-2-2h0V9.75z"/><linearGradient id="hsXu9iC8t~tOOSSQlyRssa" x1="18.5" x2="18.5" y1="-1.662" y2="11.491" gradientUnits="userSpaceOnUse"><stop offset="0" stop-color="#6d7479"/><stop offset=".425" stop-color="#565c60"/><stop offset="1" stop-color="#323538"/></linearGradient><path fill="url(#hsXu9iC8t~tOOSSQlyRssa)" d="M20.999,12c-0.19,0-0.383-0.055-0.554-0.168l-3-2c-0.145-0.097-0.262-0.229-0.34-0.385l-2-4	c-0.247-0.494-0.047-1.095,0.447-1.342c0.496-0.246,1.095-0.046,1.342,0.447l1.881,3.763l2.779,1.853	c0.459,0.307,0.583,0.927,0.277,1.387C21.639,11.844,21.322,12,20.999,12z"/><linearGradient id="hsXu9iC8t~tOOSSQlyRssb" x1="6.603" x2="19.695" y1="15.5" y2="15.5" gradientUnits="userSpaceOnUse"><stop offset="0" stop-color="#6d7479"/><stop offset=".425" stop-color="#565c60"/><stop offset="1" stop-color="#323538"/></linearGradient><path fill="url(#hsXu9iC8t~tOOSSQlyRssb)" d="M22.001,21.001c-0.081,0-0.162-0.01-0.244-0.03l-8-2c-0.264-0.065-0.49-0.237-0.625-0.474	l-4-7c-0.274-0.479-0.107-1.09,0.372-1.364c0.48-0.275,1.091-0.107,1.364,0.372l3.789,6.63l7.586,1.896	c0.536,0.134,0.861,0.677,0.728,1.212C22.856,20.698,22.449,21.001,22.001,21.001z"/><linearGradient id="hsXu9iC8t~tOOSSQlyRssc" x1="6.603" x2="19.695" y1="25.501" y2="25.501" gradientUnits="userSpaceOnUse"><stop offset="0" stop-color="#6d7479"/><stop offset=".425" stop-color="#565c60"/><stop offset="1" stop-color="#323538"/></linearGradient><path fill="url(#hsXu9iC8t~tOOSSQlyRssc)" d="M8,29.001c-0.287,0-0.571-0.122-0.769-0.359c-0.354-0.425-0.296-1.056,0.128-1.409l6-5	c0.18-0.149,0.406-0.231,0.64-0.231h8c0.552,0,1,0.447,1,1s-0.448,1-1,1h-7.638L8.64,28.769C8.453,28.924,8.226,29.001,8,29.001z"/><linearGradient id="hsXu9iC8t~tOOSSQlyRssd" x1="6.603" x2="19.695" y1="34" y2="34" gradientUnits="userSpaceOnUse"><stop offset="0" stop-color="#6d7479"/><stop offset=".425" stop-color="#565c60"/><stop offset="1" stop-color="#323538"/></linearGradient><path fill="url(#hsXu9iC8t~tOOSSQlyRssd)" d="M10.001,43c-0.098,0-0.197-0.014-0.294-0.044c-0.528-0.163-0.824-0.723-0.662-1.25l4-13	c0.091-0.296,0.314-0.533,0.604-0.643l8-3c0.518-0.191,1.093,0.068,1.288,0.585c0.194,0.518-0.068,1.094-0.585,1.288l-7.54,2.827	l-3.855,12.53C10.824,42.724,10.428,43,10.001,43z"/><linearGradient id="hsXu9iC8t~tOOSSQlyRsse" x1="29.5" x2="29.5" y1="-1.662" y2="11.491" gradientUnits="userSpaceOnUse"><stop offset="0" stop-color="#6d7479"/><stop offset=".425" stop-color="#565c60"/><stop offset="1" stop-color="#323538"/></linearGradient><path fill="url(#hsXu9iC8t~tOOSSQlyRsse)" d="M27.001,12c-0.323,0-0.64-0.156-0.833-0.445c-0.306-0.46-0.182-1.08,0.277-1.387l2.779-1.853	l1.881-3.763c0.247-0.493,0.847-0.693,1.342-0.447c0.494,0.247,0.694,0.848,0.447,1.342l-2,4c-0.078,0.155-0.195,0.288-0.34,0.385	l-3,2C27.384,11.945,27.191,12,27.001,12z"/><linearGradient id="hsXu9iC8t~tOOSSQlyRssf" x1="40.485" x2="28.217" y1="15.5" y2="15.5" gradientUnits="userSpaceOnUse"><stop offset="0" stop-color="#6d7479"/><stop offset=".425" stop-color="#565c60"/><stop offset="1" stop-color="#323538"/></linearGradient><path fill="url(#hsXu9iC8t~tOOSSQlyRssf)" d="M25.999,21.001c-0.448,0-0.855-0.303-0.969-0.758c-0.134-0.535,0.192-1.078,0.728-1.212	l7.586-1.896l3.789-6.63c0.274-0.479,0.885-0.647,1.364-0.372c0.479,0.274,0.646,0.885,0.372,1.364l-4,7	c-0.135,0.236-0.361,0.408-0.625,0.474l-8,2C26.161,20.991,26.08,21.001,25.999,21.001z"/><linearGradient id="hsXu9iC8t~tOOSSQlyRssg" x1="40.485" x2="28.217" y1="25.501" y2="25.501" gradientUnits="userSpaceOnUse"><stop offset="0" stop-color="#6d7479"/><stop offset=".425" stop-color="#565c60"/><stop offset="1" stop-color="#323538"/></linearGradient><path fill="url(#hsXu9iC8t~tOOSSQlyRssg)" d="M40,29.001c-0.226,0-0.453-0.076-0.64-0.231l-5.722-4.769H26c-0.552,0-1-0.447-1-1	s0.448-1,1-1h8c0.234,0,0.46,0.082,0.64,0.231l6,5c0.424,0.354,0.481,0.984,0.128,1.409C40.57,28.879,40.286,29.001,40,29.001z"/><linearGradient id="hsXu9iC8t~tOOSSQlyRssh" x1="40.485" x2="28.217" y1="34" y2="34" gradientUnits="userSpaceOnUse"><stop offset="0" stop-color="#6d7479"/><stop offset=".425" stop-color="#565c60"/><stop offset="1" stop-color="#323538"/></linearGradient><path fill="url(#hsXu9iC8t~tOOSSQlyRssh)" d="M38,43c-0.427,0-0.823-0.276-0.955-0.706l-3.855-12.53l-7.54-2.827	c-0.517-0.194-0.779-0.771-0.585-1.288c0.194-0.517,0.771-0.776,1.288-0.585l8,3c0.29,0.109,0.514,0.347,0.604,0.643l4,13	c0.163,0.527-0.134,1.087-0.662,1.25C38.196,42.986,38.097,43,38,43z"/><linearGradient id="hsXu9iC8t~tOOSSQlyRssi" x1="24" x2="24" y1="-.353" y2="18.588" gradientUnits="userSpaceOnUse"><stop offset="0" stop-color="#a34f27"/><stop offset=".587" stop-color="#8b3817"/><stop offset="1" stop-color="#802d10"/></linearGradient><path fill="url(#hsXu9iC8t~tOOSSQlyRssi)" d="M29,13.5c0-2.485-2.239-6.5-5-6.5s-5,4.015-5,6.5s2.239,4.5,5,4.5S29,15.985,29,13.5z"/><linearGradient id="hsXu9iC8t~tOOSSQlyRssj" x1="24" x2="24" y1="12.529" y2="37.308" gradientUnits="userSpaceOnUse"><stop offset="0" stop-color="#a34f27"/><stop offset=".587" stop-color="#8b3817"/><stop offset="1" stop-color="#802d10"/></linearGradient><path fill="url(#hsXu9iC8t~tOOSSQlyRssj)" d="M28,22.341C28,19.391,26.209,17,24,17s-4,2.391-4,5.341s1.791,6.409,4,6.409	S28,25.291,28,22.341z"/><linearGradient id="hsXu9iC8t~tOOSSQlyRssk" x1="24" x2="24" y1="19.412" y2="53.495" gradientUnits="userSpaceOnUse"><stop offset="0" stop-color="#a34f27"/><stop offset=".587" stop-color="#8b3817"/><stop offset="1" stop-color="#802d10"/></linearGradient><path fill="url(#hsXu9iC8t~tOOSSQlyRssk)" d="M31,34c0-3.866-3.134-6-7-6s-7,2.134-7,6s3.134,10,7,10S31,37.866,31,34z"/></svg>