<svg xmlns="http://www.w3.org/2000/svg" viewBox="0 0 48 48"><linearGradient id="Cfnf4fa798zGzWkU1_x1ha" x1="-393.969" x2="-365.89" y1="-568.031" y2="-596.11" gradientTransform="rotate(90 -481 -77)" gradientUnits="userSpaceOnUse"><stop offset="0" stop-color="#fede00"/><stop offset=".519" stop-color="#fecc00"/><stop offset="1" stop-color="#ffb700"/></linearGradient><path fill="url(#Cfnf4fa798zGzWkU1_x1ha)" d="M24,44c11.045,0,20-8.955,20-20S35.045,4,24,4S4,12.955,4,24S12.955,44,24,44z"/><path fill="#666e76" d="M28,24.5c-0.553,0-1-0.447-1-1c0-1.654-1.346-3-3-3s-3,1.346-3,3c0,0.553-0.447,1-1,1s-1-0.447-1-1 c0-2.757,2.243-5,5-5s5,2.243,5,5C29,24.053,28.553,24.5,28,24.5z"/><circle cx="16" cy="22" r="5" fill="#fff"/><path fill="#727d86" d="M16,28c-3.309,0-6-2.691-6-6s2.691-6,6-6s6,2.691,6,6S19.309,28,16,28z M16,18c-2.206,0-4,1.794-4,4	s1.794,4,4,4s4-1.794,4-4S18.206,18,16,18z"/><circle cx="32" cy="22" r="5" fill="#fff"/><path fill="#727d86" d="M32,28c-3.309,0-6-2.691-6-6s2.691-6,6-6s6,2.691,6,6S35.309,28,32,28z M32,18c-2.206,0-4,1.794-4,4	s1.794,4,4,4s4-1.794,4-4S34.206,18,32,18z"/><circle cx="16" cy="22" r="2" fill="#343434"/><circle cx="32" cy="22" r="2" fill="#343434"/><path fill="#343434" d="M24,39L24,39c-3.314,0-6-2.686-6-6v0c0-0.552,0.448-1,1-1h10c0.552,0,1,0.448,1,1v0	C30,36.314,27.314,39,24,39z"/><linearGradient id="Cfnf4fa798zGzWkU1_x1hb" x1="24" x2="24" y1="40.653" y2="36.756" gradientUnits="userSpaceOnUse"><stop offset="0" stop-color="#f05964"/><stop offset="1" stop-color="#d4414c"/></linearGradient><path fill="url(#Cfnf4fa798zGzWkU1_x1hb)" d="M27.954,37.505C26.899,36.572,25.519,36,24,36s-2.899,0.572-3.954,1.505	C21.103,38.433,22.484,39,24,39S26.897,38.433,27.954,37.505z"/><path fill="#fff" d="M25,34h-2c-0.552,0-1-0.448-1-1v-1h4v1C26,33.552,25.552,34,25,34z"/></svg>