<svg xmlns="http://www.w3.org/2000/svg" id="Layer_1" x="0" y="0" version="1.1" viewBox="0 0 48 48" xml:space="preserve"><linearGradient id="SVGID_1_" x1="13.069" x2="31.926" y1="652.001" y2="624.725" gradientTransform="matrix(1 0 0 -1 0 662)" gradientUnits="userSpaceOnUse"><stop offset="0" stop-color="#7dd8f3"/><stop offset="1" stop-color="#45b0d0"/></linearGradient><path fill="url(#SVGID_1_)" d="M4,38V13h40v25c0,1.1-0.9,2-2,2H6C4.9,40,4,39.1,4,38z"/><path fill="#0f94bf" d="M38.5,22h-23c-0.3,0-0.5-0.2-0.5-0.5v-1c0-0.3,0.2-0.5,0.5-0.5h23c0.3,0,0.5,0.2,0.5,0.5v1	C39,21.8,38.8,22,38.5,22z"/><path fill="#0f94bf" d="M38.5,27h-23c-0.3,0-0.5-0.2-0.5-0.5v-1c0-0.3,0.2-0.5,0.5-0.5h23c0.3,0,0.5,0.2,0.5,0.5v1	C39,26.8,38.8,27,38.5,27z"/><path fill="#0f94bf" d="M38.5,32h-23c-0.3,0-0.5-0.2-0.5-0.5v-1c0-0.3,0.2-0.5,0.5-0.5h23c0.3,0,0.5,0.2,0.5,0.5v1	C39,31.8,38.8,32,38.5,32z"/><linearGradient id="SVGID_2_" x1="4.808" x2="42.75" y1="655.22" y2="647.505" gradientTransform="matrix(1 0 0 -1 0 662)" gradientUnits="userSpaceOnUse"><stop offset="0" stop-color="#0077d2"/><stop offset="1" stop-color="#0b59a2"/></linearGradient><path fill="url(#SVGID_2_)" d="M44,10v3H4v-3c0-1.1,0.9-2,2-2h36C43.1,8,44,8.9,44,10z"/><path fill="#0f94bf" d="M9.5,22h1c0.3,0,0.5-0.2,0.5-0.5v-1c0-0.3-0.2-0.5-0.5-0.5h-1C9.2,20,9,20.2,9,20.5v1C9,21.8,9.2,22,9.5,22z"/><path fill="#0f94bf" d="M9.5,27h1c0.3,0,0.5-0.2,0.5-0.5v-1c0-0.3-0.2-0.5-0.5-0.5h-1C9.2,25,9,25.2,9,25.5v1C9,26.8,9.2,27,9.5,27z"/><path fill="#0f94bf" d="M9.5,32h1c0.3,0,0.5-0.2,0.5-0.5v-1c0-0.3-0.2-0.5-0.5-0.5h-1C9.2,30,9,30.2,9,30.5v1C9,31.8,9.2,32,9.5,32z"/><path d="M37.5,30C31.2,30,26,34.3,26,39.5c0,0.2,0,0.3,0,0.5h16c1.1,0,2-0.9,2-2v-6.3C42.1,30.6,39.9,30,37.5,30z" opacity=".05"/><path d="M37.5,30.5c-6.1,0-11,4-11,9c0,0.2,0,0.3,0,0.5H42c1.1,0,2-0.9,2-2v-5.7C42.2,31.2,39.9,30.5,37.5,30.5z" opacity=".07"/><radialGradient id="SVGID_3_" cx="19.257" cy="1093.685" r="10.612" gradientTransform="matrix(1.05 0 0 -1.0625 17.35 1198.876)" gradientUnits="userSpaceOnUse"><stop offset=".55" stop-color="#e4e4e6"/><stop offset=".73" stop-color="#e1e2e4"/><stop offset=".854" stop-color="#d8dadc"/><stop offset=".961" stop-color="#c9cdcf"/><stop offset="1" stop-color="#c1c6c9"/></radialGradient><ellipse cx="37.5" cy="39.5" fill="url(#SVGID_3_)" rx="10.5" ry="8.5"/><linearGradient id="SVGID_4_" x1="33.044" x2="42.082" y1="1106.456" y2="1097.418" gradientTransform="matrix(1 0 0 -1 0 1140)" gradientUnits="userSpaceOnUse"><stop offset="0" stop-color="#32bdef"/><stop offset="1" stop-color="#1ea2e4"/></linearGradient><circle cx="37.5" cy="38" r="7" fill="url(#SVGID_4_)"/><radialGradient id="SVGID_5_" cx="35.143" cy="1107.852" r="10.382" gradientTransform="matrix(1 0 0 -1 0 1140)" gradientUnits="userSpaceOnUse"><stop offset="0" stop-color="#4b4b4b"/><stop offset=".531" stop-color="#393939"/><stop offset="1" stop-color="#252525"/></radialGradient><circle cx="37.5" cy="38" r="4" fill="url(#SVGID_5_)"/><circle cx="39.5" cy="35" r="1" fill="#fff"/></svg>