<svg xmlns="http://www.w3.org/2000/svg" data-name="Слой 1" viewBox="0 0 48 48"><defs><linearGradient id="xc7bYcuysE0TvKLwNeZhAa" x1="19" x2="29" y1="39" y2="39" data-name="Безымянный градиент 69" gradientUnits="userSpaceOnUse"><stop offset="0" stop-color="#3079d6"/><stop offset="1" stop-color="#297cd2"/></linearGradient></defs><circle cx="24" cy="39" r="5" fill="url(#xc7bYcuysE0TvKLwNeZhAa)"/><path fill="#42a4ed" d="M27.838,5a1,1,0,0,1,.98884,1.149L24.92,32.07A5.60985,5.60985,0,0,0,24,32a6.79791,6.79791,0,0,0-1.02.08L19.16834,6.14541A1,1,0,0,1,20.15771,5Z"/><path fill="#42a4ed" d="M21.65,32.41a6.62967,6.62967,0,0,0-1.69.88L7.63735,15.89946a1,1,0,0,1,.31979-1.44639l5.00661-2.86093a1,1,0,0,1,1.43783.53177Z"/><path fill="#42a4ed" d="M18.76,34.37a6.56478,6.56478,0,0,0-1.14,1.76L4.94982,30.42749a1,1,0,0,1-.484-1.35911l1.953-3.90609a1,1,0,0,1,1.55582-.30283Z"/><path fill="#42a4ed" d="M40.36265,15.89946,28.04,33.29a6.62967,6.62967,0,0,0-1.69-.88l7.24844-20.28606a1,1,0,0,1,1.43783-.53177l5.00661,2.86093A1,1,0,0,1,40.36265,15.89946Z"/><path fill="#42a4ed" d="M43.05018,30.42749,30.38,36.13a6.56478,6.56478,0,0,0-1.14-1.76l10.78534-9.51054a1,1,0,0,1,1.55582.30283l1.953,3.90609A1,1,0,0,1,43.05018,30.42749Z"/></svg>