<svg xmlns="http://www.w3.org/2000/svg" viewBox="0 0 48 48"><linearGradient id="iOmQfjoCC4Hw6zVwRjSDha" x1="21.861" x2="25.703" y1="8.237" y2="36.552" gradientUnits="userSpaceOnUse"><stop offset="0" stop-color="#00c1e0"/><stop offset="1" stop-color="#009bb8"/></linearGradient><path fill="url(#iOmQfjoCC4Hw6zVwRjSDha)" d="M24,9.604c-5.589,0-9.347,2.439-11.276,7.318c-0.2,0.505,0.417,0.92,0.816,0.551 c2.035-1.882,4.322-2.505,6.86-1.871c1.826,0.456,3.131,1.781,4.576,3.247C27.328,21.236,30.051,24,36,24 c5.589,0,9.348-2.44,11.276-7.319c0.2-0.505-0.417-0.92-0.816-0.551c-2.035,1.882-4.322,2.506-6.86,1.872 c-1.825-0.456-3.13-1.781-4.575-3.247C32.672,12.367,29.948,9.604,24,9.604L24,9.604z M12,24c-5.589,0-9.348,2.44-11.276,7.319 c-0.2,0.505,0.417,0.92,0.816,0.551c2.035-1.882,4.322-2.506,6.86-1.871c1.825,0.457,3.13,1.781,4.575,3.246 c2.353,2.388,5.077,5.152,11.025,5.152c5.589,0,9.348-2.44,11.276-7.319c0.2-0.505-0.417-0.92-0.816-0.551 c-2.035,1.882-4.322,2.506-6.86,1.871c-1.826-0.456-3.131-1.781-4.576-3.246C20.672,26.764,17.949,24,12,24L12,24z"/></svg>