<svg xmlns="http://www.w3.org/2000/svg" viewBox="0 0 48 48"><radialGradient id="mswrK9aiRSTveEJFJboCsa" cx="14.961" cy="-428.99" r="56.266" gradientTransform="matrix(1 0 0 -1 0 -426)" gradientUnits="userSpaceOnUse"><stop offset="0" stop-color="#ffcf54"/><stop offset=".261" stop-color="#fdcb4d"/><stop offset=".639" stop-color="#f7c13a"/><stop offset="1" stop-color="#f0b421"/></radialGradient><path fill="url(#mswrK9aiRSTveEJFJboCsa)" d="M31,39.4l2.6,0.5c2.9,0.6,5.6-1.5,5.8-4.4L40,29l2.9-1.2c1-0.4,1.4-1.6,0.8-2.6L40,19	c-0.6-7.6-4.9-15-16-15C13,4,7,11.4,7,20c0,3.7,1.3,7.9,3.3,10.6c1.8,2.5,2.7,5.5,2.7,8.5v2.8c0,1.105,0.895,2,2,2h14	c1.105,0,2-0.895,2-2V39.4z"/><path d="M20,19.441v10c0,1.105,0.895,2,2,2h2c1.105,0,2-0.895,2-2v-10h2.648c1.336,0,2.006-1.616,1.061-2.561	l-5.295-5.295c-0.781-0.781-2.047-0.781-2.828,0l-5.295,5.295c-0.945,0.945-0.276,2.561,1.061,2.561H20z" opacity=".05"/><path d="M20.5,18.941v10.5c0,0.828,0.672,1.5,1.5,1.5h2c0.828,0,1.5-0.672,1.5-1.5v-10.5h3.021	c0.938,0,1.408-1.134,0.745-1.798l-5.129-5.13c-0.627-0.627-1.644-0.627-2.271,0l-5.129,5.13c-0.663,0.663-0.194,1.798,0.745,1.798	H20.5z" opacity=".07"/><path fill="#fff" d="M17.607,18.441H21v11c0,0.552,0.448,1,1,1h2c0.552,0,1-0.448,1-1v-11h3.393	c0.54,0,0.81-0.653,0.428-1.034l-4.964-4.964c-0.473-0.473-1.241-0.473-1.714,0l-4.964,4.964	C16.797,17.788,17.067,18.441,17.607,18.441z"/></svg>