<svg xmlns="http://www.w3.org/2000/svg" viewBox="0 0 48 48"><radialGradient id="oOttrHxSuOAj21Gt5U3d4a" cx="34.142" cy="24.964" r="16.593" gradientUnits="userSpaceOnUse"><stop offset=".317" stop-color="#3a41ac"/><stop offset="1" stop-color="#5961c3"/></radialGradient><path fill="url(#oOttrHxSuOAj21Gt5U3d4a)" d="M38,18.3C38,17,36.8,11,23.4,11c-7.691,0-12.461,3.213-13.748,4.21	c-0.207,0.16-0.496,0.13-0.671-0.065l-2.023-2.247c-0.195-0.217-0.168-0.55,0.063-0.728C8.567,10.974,14.222,7,23.4,7	C40.6,7,41.9,17.3,42,17.8L38,18.3z"/><linearGradient id="oOttrHxSuOAj21Gt5U3d4b" x1="32.315" x2="37.306" y1="11.531" y2="27.452" gradientUnits="userSpaceOnUse"><stop offset="0" stop-color="#7b83eb"/><stop offset="1" stop-color="#5961c3"/></linearGradient><path fill="url(#oOttrHxSuOAj21Gt5U3d4b)" d="M34.5,26c-4.1,0-7.5-3.4-7.5-7.5s3.4-7.5,7.5-7.5s7.5,3.4,7.5,7.5S38.6,26,34.5,26z M34.5,15	c-1.9,0-3.5,1.6-3.5,3.5s1.6,3.5,3.5,3.5s3.5-1.6,3.5-3.5S36.4,15,34.5,15z"/><radialGradient id="oOttrHxSuOAj21Gt5U3d4c" cx="34.171" cy="22.997" r="16.593" gradientTransform="rotate(180 24 24)" gradientUnits="userSpaceOnUse"><stop offset=".317" stop-color="#3a41ac"/><stop offset="1" stop-color="#5961c3"/></radialGradient><path fill="url(#oOttrHxSuOAj21Gt5U3d4c)" d="M10,29.7C10,31,11.2,37,24.6,37c7.691,0,12.461-3.213,13.748-4.21	c0.207-0.16,0.496-0.13,0.671,0.065l2.023,2.247c0.195,0.217,0.168,0.55-0.063,0.728C39.433,37.026,33.778,41,24.6,41	C7.4,41,6.1,30.7,6,30.2L10,29.7z"/><linearGradient id="oOttrHxSuOAj21Gt5U3d4d" x1="11.403" x2="16.106" y1="22.159" y2="38.622" gradientUnits="userSpaceOnUse"><stop offset="0" stop-color="#7b83eb"/><stop offset="1" stop-color="#5961c3"/></linearGradient><path fill="url(#oOttrHxSuOAj21Gt5U3d4d)" d="M13.5,22c4.1,0,7.5,3.4,7.5,7.5S17.6,37,13.5,37S6,33.6,6,29.5S9.4,22,13.5,22z M13.5,33	c1.9,0,3.5-1.6,3.5-3.5S15.4,26,13.5,26S10,27.6,10,29.5S11.6,33,13.5,33z"/></svg>