<svg xmlns="http://www.w3.org/2000/svg" viewBox="0 0 48 48"><linearGradient id="dNBgwcNCK51hO0Aloe_pla" x1="43.99" x2="10.915" y1="24.166" y2="27.642" gradientUnits="userSpaceOnUse"><stop offset=".863" stop-color="#c93702"/><stop offset=".895" stop-color="#ba3202"/><stop offset=".957" stop-color="#922704"/><stop offset=".98" stop-color="#822204"/></linearGradient><path fill="url(#dNBgwcNCK51hO0Aloe_pla)" d="M29,16v-6l-17,6v24h17h14c1.105,0,2-0.895,2-2V10L29,16z"/><polyline fill="none" stroke="#a60f0f" stroke-linecap="round" stroke-linejoin="round" stroke-miterlimit="10" stroke-width="2" points="45,10 29,16 29,10 12,16"/><path fill="#d43a02" d="M11.054,4H5.946C5.415,4,4.977,4.415,4.948,4.945l-1.83,32.945C3.054,39.035,3.966,40,5.114,40H14	L12.052,4.945C12.023,4.415,11.585,4,11.054,4z"/><polygon fill="#a8a8a8" points="13.667,34 13.444,30 3.556,30 3.333,34"/><polygon fill="#a8a8a8" points="4.111,20 3.889,24 13.111,24 12.889,20"/><polygon fill="#a8a8a8" points="4.667,10 4.444,14 12.556,14 12.333,10"/><rect width="2" height="2" x="40" y="20" fill="#f80"/><rect width="2" height="2" x="36" y="20" fill="#f80"/><rect width="2" height="2" x="32" y="20" fill="#f80"/><rect width="2" height="2" x="28" y="20" fill="#f80"/><rect width="2" height="2" x="24" y="20" fill="#f80"/><rect width="2" height="2" x="20" y="20" fill="#f80"/><rect width="2" height="2" x="16" y="20" fill="#f80"/><rect width="2" height="2" x="40" y="26" fill="#f80"/><rect width="2" height="2" x="36" y="26" fill="#f80"/><rect width="2" height="2" x="32" y="26" fill="#f80"/><rect width="2" height="2" x="28" y="26" fill="#f80"/><rect width="2" height="2" x="24" y="26" fill="#f80"/><rect width="2" height="2" x="20" y="26" fill="#f80"/><rect width="2" height="2" x="16" y="26" fill="#f80"/><rect width="2" height="2" x="40" y="32" fill="#f80"/><rect width="2" height="2" x="36" y="32" fill="#f80"/><rect width="2" height="2" x="32" y="32" fill="#f80"/><rect width="2" height="2" x="28" y="32" fill="#f80"/><rect width="2" height="2" x="24" y="32" fill="#f80"/><rect width="2" height="2" x="20" y="32" fill="#f80"/><rect width="2" height="2" x="16" y="32" fill="#f80"/></svg>