<svg xmlns="http://www.w3.org/2000/svg" viewBox="0 0 48 48"><radialGradient id="xrs1pFz0XfaOAGGfS69lya" cx="30.789" cy="-1256.339" r="11.736" gradientTransform="matrix(1 0 0 -1 0 -1237.89)" gradientUnits="userSpaceOnUse"><stop offset=".376" stop-color="#261103"/><stop offset=".68" stop-color="#431d06"/><stop offset="1" stop-color="#662c09"/></radialGradient><path fill="url(#xrs1pFz0XfaOAGGfS69lya)" d="M31,7.83c-8.814,0-11,14.232-11,14.232c0,2.534,1.177,4.754,3.641,5.342 c2.11,0.504,4.766,0.971,7.359,0.971s5.248-0.467,7.359-0.971C40.823,26.816,42,24.595,42,22.062C42,22.062,39.814,7.83,31,7.83z"/><linearGradient id="xrs1pFz0XfaOAGGfS69lyb" x1="28.113" x2="31.911" y1="-1263.446" y2="-1276.51" gradientTransform="matrix(1 0 0 -1 0 -1237.89)" gradientUnits="userSpaceOnUse"><stop offset="0" stop-color="#0d61a9"/><stop offset="1" stop-color="#16528c"/></linearGradient><path fill="url(#xrs1pFz0XfaOAGGfS69lyb)" d="M31,26c-7.732,0-14,4.556-14,9.25v1c0,0.966,0.784,1.75,1.75,1.75h24.5 c0.966,0,1.75-0.784,1.75-1.75v-1C45,30.556,38.732,26,31,26z"/><path fill="#d6a121" d="M35,28.8c0,1.518-1.6,3.2-4,3.2s-4-1.682-4-3.2c0-2.11,0-4.628,0-4.628h8 C35,24.172,35,26.69,35,28.8z"/><radialGradient id="xrs1pFz0XfaOAGGfS69lyc" cx="-1041.723" cy="-1285.57" r="9.38" gradientTransform="matrix(-.9136 0 0 -.9667 -920.718 -1225.23)" gradientUnits="userSpaceOnUse"><stop offset="0" stop-color="#ffcf54"/><stop offset=".261" stop-color="#fdcb4d"/><stop offset=".639" stop-color="#f7c13a"/><stop offset="1" stop-color="#f0b421"/></radialGradient><path fill="url(#xrs1pFz0XfaOAGGfS69lyc)" d="M31,7.062c3.454,0,7,0.606,7,8.507c0,0.632,0,5.019,0,5.695C38,24.085,33.713,28,31,28 s-7-3.915-7-6.736c0-0.675,0-5.062,0-5.695C24,7.875,27.546,7.062,31,7.062z"/><radialGradient id="xrs1pFz0XfaOAGGfS69lyd" cx="24.979" cy="-1242.31" r="28.154" gradientTransform="matrix(1 0 0 -1 0 -1237.89)" gradientUnits="userSpaceOnUse"><stop offset="0" stop-color="#c26715"/><stop offset=".508" stop-color="#b85515"/><stop offset="1" stop-color="#ad3f16"/></radialGradient><path fill="url(#xrs1pFz0XfaOAGGfS69lyd)" d="M31,4c-4.54,0-5,3-5,3c-1.846,0.272-6,0.207-6,15c0,3.533,1.613,4.625,2.731,5.088 C19.662,15.544,28.379,16.906,27,9c3.54,10.336,15.558,3.338,12.269,18.088C40.985,26.362,42,24.186,42,22C42,9.92,37.474,4,31,4z"/><g><radialGradient id="xrs1pFz0XfaOAGGfS69lye" cx="16.789" cy="-1260.339" r="11.736" gradientTransform="matrix(1 0 0 -1 0 -1237.89)" gradientUnits="userSpaceOnUse"><stop offset=".376" stop-color="#261103"/><stop offset=".68" stop-color="#431d06"/><stop offset="1" stop-color="#662c09"/></radialGradient><path fill="url(#xrs1pFz0XfaOAGGfS69lye)" d="M17,11.83c-8.814,0-11,14.232-11,14.232c0,2.534,1.177,4.754,3.641,5.342 c2.11,0.504,4.766,0.971,7.359,0.971s5.248-0.467,7.359-0.971C26.823,30.816,28,28.595,28,26.062C28,26.062,25.814,11.83,17,11.83 z"/><linearGradient id="xrs1pFz0XfaOAGGfS69lyf" x1="14.113" x2="17.911" y1="-1267.446" y2="-1280.51" gradientTransform="matrix(1 0 0 -1 0 -1237.89)" gradientUnits="userSpaceOnUse"><stop offset="0" stop-color="#33bef0"/><stop offset="1" stop-color="#0a85d9"/></linearGradient><path fill="url(#xrs1pFz0XfaOAGGfS69lyf)" d="M17,30c-7.732,0-14,4.556-14,9.25v1C3,41.216,3.784,42,4.75,42h24.5 c0.966,0,1.75-0.784,1.75-1.75v-1C31,34.556,24.732,30,17,30z"/><path fill="#d6a121" d="M21,32.8c0,1.518-1.6,3.2-4,3.2s-4-1.682-4-3.2c0-2.11,0-4.628,0-4.628h8 C21,28.172,21,30.69,21,32.8z"/><radialGradient id="xrs1pFz0XfaOAGGfS69lyg" cx="-1026.399" cy="-1289.708" r="9.38" gradientTransform="matrix(-.9136 0 0 -.9667 -920.718 -1225.23)" gradientUnits="userSpaceOnUse"><stop offset="0" stop-color="#ffcf54"/><stop offset=".261" stop-color="#fdcb4d"/><stop offset=".639" stop-color="#f7c13a"/><stop offset="1" stop-color="#f0b421"/></radialGradient><path fill="url(#xrs1pFz0XfaOAGGfS69lyg)" d="M17,11.062c3.454,0,7,0.606,7,8.507c0,0.632,0,5.019,0,5.695C24,28.085,19.713,32,17,32 s-7-3.915-7-6.736c0-0.675,0-5.062,0-5.695C10,11.875,13.546,11.062,17,11.062z"/><radialGradient id="xrs1pFz0XfaOAGGfS69lyh" cx="10.979" cy="-1246.31" r="28.154" gradientTransform="matrix(1 0 0 -1 0 -1237.89)" gradientUnits="userSpaceOnUse"><stop offset="0" stop-color="#c26715"/><stop offset=".508" stop-color="#b85515"/><stop offset="1" stop-color="#ad3f16"/></radialGradient><path fill="url(#xrs1pFz0XfaOAGGfS69lyh)" d="M17,8c-4.54,0-5,3-5,3c-1.846,0.272-6,0.207-6,15c0,3.533,1.613,4.625,2.731,5.088 C5.662,19.544,14.379,20.906,13,13c3.54,10.336,15.558,3.338,12.269,18.088C26.985,30.362,28,28.186,28,26C28,13.92,23.474,8,17,8 z"/></g></svg>