<svg xmlns="http://www.w3.org/2000/svg" viewBox="0 0 48 48"><linearGradient id="PMEPxtPL7G8qoE0lz9xxva" x1=".84" x2="43.363" y1="6.214" y2="48.737" gradientUnits="userSpaceOnUse"><stop offset="0" stop-color="#21ad64"/><stop offset="1" stop-color="#088242"/></linearGradient><path fill="url(#PMEPxtPL7G8qoE0lz9xxva)" d="M36.739,33.217l-1.445-0.071c-0.04,0-0.748,0.01-0.758,0.776c0,0.282,0.01,0.706,0.283,0.766	c0.556,0.121,0.849,1.039,0.738,1.593c-0.121,0.545-0.718,1.2-1.253,1.079c-0.354-0.071-1.162,0.262-0.687,0.363	c0.536,0.121,0.89,0.655,0.768,1.2c-0.121,0.545-1.243,1.513-1.789,0.968c-0.516-0.504-1.051-0.252-1.102,0.141	c-0.374,2.924-1.082,3.529-2.477,3.388c-0.708,0.222-1.456,0.343-1.991,0.393c-0.404,0.101-0.809,0.202-1.112,0.101	c-0.505-0.202-0.91-0.706-0.91-1.21v-0.605c-0.01-0.05-0.03-0.101-0.061-0.151c-0.121-0.313-0.374-0.494-0.546-0.756	c-0.505-0.807-0.91-1.613-1.112-2.521c-0.101-0.403-0.101-0.908-0.202-1.311c-0.303-1.21-1.819-2.219-1.819-3.529	c0-1.21,0.91-2.219,1.011-3.429c0-0.141-0.01-0.272-0.02-0.403h15.172c0.253,0.424,0.435,0.676,0.435,0.676	C38.245,31.795,37.821,33.035,36.739,33.217z"/><linearGradient id="PMEPxtPL7G8qoE0lz9xxvb" x1="6.999" x2="49.522" y1=".055" y2="42.579" gradientUnits="userSpaceOnUse"><stop offset="0" stop-color="#f44f5a"/><stop offset=".443" stop-color="#ee3d4a"/><stop offset="1" stop-color="#e52030"/></linearGradient><path fill="url(#PMEPxtPL7G8qoE0lz9xxvb)" d="M6.91,15.935c0.202-0.602,0.303-1.304-0.101-1.805c-0.091-0.13-0.243-0.281-0.404-0.431	C6.202,13.488,6,13.257,6,13.026c0-0.201,0.101-0.401,0.202-0.602c0.505-1.003,1.213-1.705,2.123-2.307	C8.83,9.817,9.538,9.516,9.74,8.814c0.101-0.401,0-0.903,0.101-1.304c0.202-0.702,1.415-0.903,1.516-1.705	c0-0.201-0.101-0.301,0-0.501c0.101-0.201,0.404-0.301,0.708-0.301c0.303,0,0.505,0.201,0.809,0.301	c0.91,0.201,1.921-0.401,2.729-0.702C16.917,4.201,18.231,4.1,19.646,4c0.202,0,0.505,0,0.708,0.1	c0.303,0.201,0.505,0.702,0.404,1.003c-0.101,0.301-0.202,0.602-0.404,0.903c1.011,0.702,3.032,1.003,4.043,1.705	c0.303,0.201,0.505,0.401,0.809,0.501c0.303,0.1,0.708,0.1,0.91-0.1c0.303-0.301,0.202-0.802,0.505-1.103	c0.202-0.201,0.606-0.201,0.91-0.1c1.415,0.301,2.729,1.304,4.144,1.103h0.708c0.404,0,0.606,0.501,0.809,0.903	c0.425,1.023,0.596,1.936,0.788,2.868c1.344,1.474,2.295,3.3,2.709,5.255H6.354C6.546,16.697,6.778,16.336,6.91,15.935z"/><linearGradient id="PMEPxtPL7G8qoE0lz9xxvc" x1="5.431" x2="47.954" y1="1.623" y2="44.147" gradientUnits="userSpaceOnUse"><stop offset="0" stop-color="#fed100"/><stop offset="1" stop-color="#e38101"/></linearGradient><path fill="url(#PMEPxtPL7G8qoE0lz9xxvc)" d="M37.426,30H22.254c-0.071-0.997-0.465-1.795-1.092-2.592c-0.708-0.897-0.809-1.496-0.91-2.592	c-0.101-0.299,0.101-0.598,0.101-0.997s-0.404-1.196-0.809-1.496c-0.404,0.199-0.91,0.299-1.314,0	c-0.303-0.199-0.404-0.598-0.708-0.798c-0.404-0.399-1.213-0.598-1.718-0.399c-0.505,0.199-1.112,0.598-1.718,0.499	c-0.303,0-0.708-0.199-1.011-0.199c-0.505,0-1.011,0.399-1.516,0.499s-1.112-0.199-1.617-0.499s-0.809-0.399-1.213-0.897	c-0.708-0.798-1.516-1.496-2.426-2.194L6,18.035c0-0.1,0-0.299,0.101-0.499c0.071-0.16,0.152-0.329,0.253-0.499h30.335	c0.414,1.994,0.263,4.118-0.627,6.102C34.99,25.533,36.598,28.654,37.426,30z"/></svg>