<svg xmlns="http://www.w3.org/2000/svg" id="Layer_1" x="0" y="0" version="1.1" viewBox="0 0 48 48" xml:space="preserve"><radialGradient id="SVGID_1_" cx="24.511" cy="4.085" r="34.367" gradientUnits="userSpaceOnUse"><stop offset="0" stop-color="#fafafb"/><stop offset="1" stop-color="#c8cdd1"/></radialGradient><circle cx="24" cy="24" r="20" fill="url(#SVGID_1_)"/><path d="M12,33.2c0.1-0.3,0.2-0.6,0.5-0.8l6.9-6.9l-4.3-4.3l2-2c0.9-0.9,2-1.4,3.3-1.4c0.7,0,1.4,0.1,2,0.4l5.3-4.2	c-0.1-0.7,0.1-1.5,0.7-2l0.5-0.5c0.4-0.4,1-0.7,1.7-0.7s1.2,0.2,1.7,0.7l4.3,4.3c0.4,0.4,0.7,1,0.7,1.7s-0.2,1.2-0.7,1.7l-0.5,0.5	c-0.4,0.4-1,0.7-1.6,0.7c-0.1,0-0.2,0-0.3,0l-4.2,5.3c0.8,1.8,0.5,3.9-0.9,5.3l-2,2l-4.3-4.3l-6.9,6.9c-0.2,0.2-0.5,0.4-0.8,0.5	l-3.7,0.8L12,33.2z" opacity=".05"/><path d="M12.5,33.3c0-0.2,0.2-0.4,0.3-0.6l7.2-7.2l-4.3-4.3l1.6-1.6c0.8-0.8,1.8-1.2,2.9-1.2c0.7,0,1.4,0.2,2,0.5	l5.8-4.5c-0.2-0.6,0-1.4,0.4-1.8l0.5-0.5c0.4-0.4,0.8-0.5,1.3-0.5c0.5,0,1,0.2,1.3,0.5l4.3,4.3c0.7,0.7,0.7,1.9,0,2.6l-0.5,0.5	c-0.3,0.3-0.8,0.5-1.3,0.5l0,0c-0.2,0-0.4,0-0.5-0.1l-4.5,5.8c0.9,1.6,0.6,3.6-0.7,5l-1.6,1.6L22.6,28l-7.2,7.2	c-0.2,0.2-0.4,0.3-0.6,0.3l-2.9,0.6L12.5,33.3z" opacity=".07"/><path fill="#fff" d="M14.6,35.1l-2.2,0.5l0.5-2.2c0-0.1,0.1-0.2,0.2-0.3l8.5-8.5l1.8,1.8L15,34.9C14.9,35,14.7,35,14.6,35.1z"/><polygon fill="#c94f60" points="27.6,26.8 21.2,20.4 30.9,12.8 35.2,17.1"/><path fill="#bf2336" d="M26.8,31.5L16.5,21.2l1.3-1.3c1.4-1.4,3.7-1.4,5.2,0l5.2,5.2c1.4,1.4,1.4,3.7,0,5.2L26.8,31.5z"/><path fill="#bf2336" d="M33.2,19L29,14.8c-0.5-0.5-0.5-1.4,0-1.9l0.5-0.5c0.5-0.5,1.4-0.5,1.9,0l4.3,4.3c0.5,0.5,0.5,1.4,0,1.9	L35.2,19C34.6,19.6,33.8,19.6,33.2,19z"/></svg>