<svg xmlns="http://www.w3.org/2000/svg" viewBox="0 0 48 48"><linearGradient id="F4HTUvwMNG7YMd5b3Uv19a" x1="13" x2="13" y1="-3.697" y2="10.303" gradientUnits="userSpaceOnUse"><stop offset="0" stop-color="#a34f27"/><stop offset=".587" stop-color="#8b3817"/><stop offset="1" stop-color="#802d10"/></linearGradient><path fill="url(#F4HTUvwMNG7YMd5b3Uv19a)" d="M11,18h4V4h-1c-1.657,0-3,1.343-3,3V18z"/><linearGradient id="F4HTUvwMNG7YMd5b3Uv19b" x1="18.05" x2="18.05" y1="4" y2="10.467" gradientUnits="userSpaceOnUse"><stop offset="0" stop-color="#c26715"/><stop offset=".508" stop-color="#b85515"/><stop offset="1" stop-color="#ad3f16"/></linearGradient><path fill="url(#F4HTUvwMNG7YMd5b3Uv19b)" d="M23,11h-5l-3-4.2l-1.9-2.66C13.38,4.05,13.69,4,14,4h1.43c1.61,0,3.13,0.78,4.07,2.09L23,11z"/><linearGradient id="F4HTUvwMNG7YMd5b3Uv19c" x1="35" x2="35" y1="-3.664" y2="10.336" gradientUnits="userSpaceOnUse"><stop offset="0" stop-color="#a34f27"/><stop offset=".587" stop-color="#8b3817"/><stop offset="1" stop-color="#802d10"/></linearGradient><path fill="url(#F4HTUvwMNG7YMd5b3Uv19c)" d="M37,18h-4V4h1c1.657,0,3,1.343,3,3V18z"/><linearGradient id="F4HTUvwMNG7YMd5b3Uv19d" x1="29.95" x2="29.95" y1="4" y2="10.789" gradientUnits="userSpaceOnUse"><stop offset="0" stop-color="#c26715"/><stop offset=".508" stop-color="#b85515"/><stop offset="1" stop-color="#ad3f16"/></linearGradient><path fill="url(#F4HTUvwMNG7YMd5b3Uv19d)" d="M25,11h5l3-4.2l1.9-2.66C34.62,4.05,34.31,4,34,4h-1.43c-1.61,0-3.13,0.78-4.07,2.09L25,11z"/><linearGradient id="F4HTUvwMNG7YMd5b3Uv19e" x1="24" x2="24" y1="8.258" y2="33.258" gradientUnits="userSpaceOnUse"><stop offset="0" stop-color="#a34f27"/><stop offset=".587" stop-color="#8b3817"/><stop offset="1" stop-color="#802d10"/></linearGradient><path fill="url(#F4HTUvwMNG7YMd5b3Uv19e)" d="M33.846,19c-3.399,0-16.294,0-19.692,0S8,22.134,8,26v15c0,1.657,1.653,3,3.692,3h24.615	C38.347,44,40,42.657,40,41V26C40,22.134,37.245,19,33.846,19z"/><linearGradient id="F4HTUvwMNG7YMd5b3Uv19f" x1="16" x2="16" y1="20" y2="35" gradientUnits="userSpaceOnUse"><stop offset="0" stop-color="#eba84b"/><stop offset="1" stop-color="#d97218"/></linearGradient><path fill="url(#F4HTUvwMNG7YMd5b3Uv19f)" d="M16,35L16,35c-1.105,0-2-0.895-2-2V20h4v13C18,34.105,17.105,35,16,35z"/><linearGradient id="F4HTUvwMNG7YMd5b3Uv19g" x1="16" x2="16" y1="25" y2="42.016" gradientUnits="userSpaceOnUse"><stop offset="0" stop-color="#ffcf7b"/><stop offset=".196" stop-color="#fecd76"/><stop offset=".439" stop-color="#fac666"/><stop offset=".709" stop-color="#f3bc4d"/><stop offset=".995" stop-color="#eaad2a"/><stop offset="1" stop-color="#eaad29"/></linearGradient><path fill="url(#F4HTUvwMNG7YMd5b3Uv19g)" d="M18,25v3h-4v-3h0c-1.105,0-2,0.895-2,2v1c0,1.105,0.895,2,2,2h4c1.105,0,2-0.895,2-2v-1	C20,25.895,19.105,25,18,25L18,25z"/><linearGradient id="F4HTUvwMNG7YMd5b3Uv19h" x1="32" x2="32" y1="20" y2="35" gradientUnits="userSpaceOnUse"><stop offset="0" stop-color="#eba84b"/><stop offset="1" stop-color="#d97218"/></linearGradient><path fill="url(#F4HTUvwMNG7YMd5b3Uv19h)" d="M32,35L32,35c-1.105,0-2-0.895-2-2V20h4v13C34,34.105,33.105,35,32,35z"/><linearGradient id="F4HTUvwMNG7YMd5b3Uv19i" x1="32" x2="32" y1="25" y2="30" gradientUnits="userSpaceOnUse"><stop offset="0" stop-color="#ffcf7b"/><stop offset=".196" stop-color="#fecd76"/><stop offset=".439" stop-color="#fac666"/><stop offset=".709" stop-color="#f3bc4d"/><stop offset=".995" stop-color="#eaad2a"/><stop offset="1" stop-color="#eaad29"/></linearGradient><path fill="url(#F4HTUvwMNG7YMd5b3Uv19i)" d="M34,25v3h-4v-3h0c-1.105,0-2,0.895-2,2v1c0,1.105,0.895,2,2,2h4c1.105,0,2-0.895,2-2v-1	C36,25.895,35.105,25,34,25L34,25z"/><linearGradient id="F4HTUvwMNG7YMd5b3Uv19j" x1="24" x2="24" y1="11" y2="22" gradientUnits="userSpaceOnUse"><stop offset="0" stop-color="#eba84b"/><stop offset="1" stop-color="#d97218"/></linearGradient><path fill="url(#F4HTUvwMNG7YMd5b3Uv19j)" d="M34,22H14c-3.314,0-6-2.686-6-6v-2c0-1.657,1.343-3,3-3h26c1.657,0,3,1.343,3,3v2	C40,19.314,37.314,22,34,22z"/><path fill="#231f20" d="M37,11c1.657,0,3,1.343,3,3v2c0,3.314-2.686,6-6,6H14c-3.314,0-6-2.686-6-6v-2	c0-1.657,1.343-3,3-3H37" opacity=".07"/><path fill="#231f20" d="M37.802,20.641C36.767,21.49,35.443,22,34,22H14c-1.443,0-2.767-0.51-3.802-1.359	C9.96,20.869,9.74,21.12,9.535,21.386C10.747,22.393,12.304,23,14,23h20c1.696,0,3.253-0.607,4.466-1.615	C38.26,21.12,38.04,20.869,37.802,20.641z" opacity=".05"/><path fill="#231f20" d="M37.802,20.641C36.767,21.49,35.443,22,34,22H14c-1.443,0-2.767-0.51-3.802-1.359	c-0.12,0.114-0.235,0.234-0.346,0.358C10.978,21.936,12.424,22.5,14,22.5h20c1.576,0,3.022-0.564,4.148-1.501	C38.037,20.875,37.921,20.755,37.802,20.641z" opacity=".07"/><polygon fill="#231f20" points="30.714,10 25.713,10 25,11 30,11" opacity=".05"/><polygon fill="#231f20" points="30.357,10.5 25.356,10.5 25,11 30,11" opacity=".07"/><polygon fill="#231f20" points="18,11 23,11 22.287,10 17.286,10" opacity=".05"/><polygon fill="#231f20" points="18,11 23,11 22.644,10.5 17.643,10.5" opacity=".07"/><rect width="4" height="1" x="11" y="10" fill="#231f20" opacity=".05"/><rect width="4" height=".5" x="11" y="10.5" fill="#231f20" opacity=".07"/><rect width="4" height="1" x="33" y="10" fill="#231f20" opacity=".05"/><rect width="4" height=".5" x="33" y="10.5" fill="#231f20" opacity=".07"/></svg>