<svg xmlns="http://www.w3.org/2000/svg" viewBox="0 0 48 48"><path fill="#727d86" d="M43,43H18c-0.553,0-1-0.448-1-1s0.447-1,1-1h25c0.553,0,1,0.448,1,1S43.553,43,43,43z"/><linearGradient id="7MAGagniDPtqhfIb4bd3Ha" x1="12.963" x2="21.15" y1=".595" y2="47.027" gradientUnits="userSpaceOnUse"><stop offset="0" stop-color="#f9f9f9"/><stop offset=".966" stop-color="#c4c9cd"/><stop offset="1" stop-color="#c2c8cc"/></linearGradient><path fill="url(#7MAGagniDPtqhfIb4bd3Ha)" d="M14.129,43h5.982c0.528,0,1.034-0.208,1.408-0.58L33,31.021L18.978,17L4.581,31.399 c-0.774,0.773-0.774,2.029,0,2.804l8.127,8.205C13.084,42.787,13.595,43,14.129,43z"/><linearGradient id="7MAGagniDPtqhfIb4bd3Hb" x1="28.511" x2="40.256" y1="2.756" y2="69.365" gradientUnits="userSpaceOnUse"><stop offset="0" stop-color="#889097"/><stop offset=".679" stop-color="#5f6b74"/><stop offset="1" stop-color="#4c5963"/></linearGradient><path fill="url(#7MAGagniDPtqhfIb4bd3Hb)" d="M31.51,32.51l12.909-12.908c0.774-0.774,0.774-2.03,0-2.805L33.203,5.581 c-0.774-0.774-2.03-0.774-2.805,0L17.489,18.489L31.51,32.51z"/><linearGradient id="7MAGagniDPtqhfIb4bd3Hc" x1="32.288" x2="41.311" y1="-8.821" y2="42.352" gradientUnits="userSpaceOnUse"><stop offset="0" stop-color="#889097"/><stop offset="1" stop-color="#4c5963"/></linearGradient><path fill="url(#7MAGagniDPtqhfIb4bd3Hc)" d="M41.403,22.618l3.016-3.016c0.774-0.774,0.774-2.03,0-2.805L33.203,5.581 c-0.774-0.774-2.03-0.774-2.805,0l-3.017,3.016L41.403,22.618z"/></svg>