<svg xmlns="http://www.w3.org/2000/svg" viewBox="0 0 48 48"><linearGradient id="vxh3z~3YNFY_6rtH4oZlza" x1="24" x2="24" y1="-2.382" y2="31.428" gradientUnits="userSpaceOnUse"><stop offset="0" stop-color="#a34f27"/><stop offset=".587" stop-color="#8b3817"/><stop offset="1" stop-color="#802d10"/></linearGradient><circle cx="24" cy="19" r="16" fill="url(#vxh3z~3YNFY_6rtH4oZlza)"/><path fill="#802d10" d="M25.999,8c-0.15,0-0.303-0.034-0.446-0.105l-4-2c-0.494-0.247-0.694-0.848-0.447-1.342	c0.247-0.494,0.847-0.694,1.342-0.447l4,2c0.494,0.247,0.694,0.848,0.447,1.342C26.719,7.798,26.366,8,25.999,8z"/><path fill="#802d10" d="M15,11c-0.256,0-0.512-0.098-0.707-0.293c-0.391-0.391-0.391-1.023,0-1.414l3-3	c0.391-0.391,1.023-0.391,1.414,0s0.391,1.023,0,1.414l-3,3C15.512,10.902,15.256,11,15,11z"/><path fill="#802d10" d="M23.001,13c-0.323,0-0.64-0.156-0.833-0.445l-2-3c-0.306-0.459-0.182-1.081,0.277-1.387	c0.458-0.308,1.081-0.182,1.387,0.277l2,3c0.306,0.459,0.182,1.081-0.277,1.387C23.384,12.946,23.191,13,23.001,13z"/><path fill="#802d10" d="M16,17c-0.256,0-0.512-0.098-0.707-0.293c-0.391-0.391-0.391-1.023,0-1.414l3-3	c0.391-0.391,1.023-0.391,1.414,0s0.391,1.023,0,1.414l-3,3C16.512,16.902,16.256,17,16,17z"/><path fill="#802d10" d="M31.001,12c-0.065,0-0.131-0.006-0.197-0.02l-5-1c-0.542-0.108-0.893-0.635-0.784-1.177	c0.108-0.542,0.631-0.894,1.177-0.784l5,1c0.542,0.108,0.893,0.635,0.784,1.177C31.886,11.671,31.468,12,31.001,12z"/><path fill="#802d10" d="M11.001,16c-0.323,0-0.64-0.156-0.833-0.445c-0.306-0.459-0.182-1.081,0.277-1.387l3-2	c0.459-0.308,1.08-0.182,1.387,0.277c0.306,0.459,0.182,1.081-0.277,1.387l-3,2C11.384,15.946,11.191,16,11.001,16z"/><path fill="#802d10" d="M34.999,11c-0.208,0-0.419-0.065-0.599-0.2l-4-3c-0.442-0.331-0.531-0.958-0.2-1.4	c0.332-0.44,0.958-0.532,1.4-0.2l4,3c0.442,0.331,0.531,0.958,0.2,1.4C35.604,10.862,35.303,11,34.999,11z"/><path fill="#802d10" d="M30.999,17c-0.19,0-0.383-0.054-0.554-0.168c-0.459-0.306-0.583-0.927-0.277-1.387l2-3	c0.306-0.459,0.926-0.585,1.387-0.277c0.459,0.306,0.583,0.927,0.277,1.387l-2,3C31.639,16.844,31.322,17,30.999,17z"/><path fill="#802d10" d="M22.999,16c-0.467,0-0.885-0.329-0.979-0.804c-0.108-0.542,0.243-1.068,0.784-1.177l5-1	c0.542-0.107,1.069,0.243,1.177,0.784c0.108,0.542-0.243,1.068-0.784,1.177l-5,1C23.13,15.994,23.064,16,22.999,16z"/><path fill="#802d10" d="M37.001,16c-0.367,0-0.72-0.202-0.896-0.553l-1-2c-0.247-0.494-0.047-1.095,0.447-1.342	c0.496-0.248,1.095-0.046,1.342,0.447l1,2c0.247,0.494,0.047,1.095-0.447,1.342C37.304,15.966,37.151,16,37.001,16z"/><linearGradient id="vxh3z~3YNFY_6rtH4oZlzb" x1="19.5" x2="19.5" y1="15.246" y2="50.001" gradientUnits="userSpaceOnUse"><stop offset="0" stop-color="#faa0bd"/><stop offset="1" stop-color="#fa67a6"/></linearGradient><path fill="url(#vxh3z~3YNFY_6rtH4oZlzb)" d="M33,21.5V44H15c-0.79,0-1.55-0.21-2.21-0.59c-0.11-0.06-0.22-0.13-0.32-0.2	c-0.85-0.57-1.5-1.44-1.79-2.47C9.08,35.12,6,24,6,21.5c0-1.82,1.08-3.39,2.64-4.08c0.45-0.21,0.95-0.35,1.46-0.4	c0.13-0.01,0.27-0.02,0.4-0.02c2.49,0,4.5,2.01,4.5,4.5c0-2.49,2.01-4.5,4.5-4.5c0.17,0,0.34,0.01,0.5,0.03c2.25,0.25,4,2.15,4,4.47	c0-2.49,2.01-4.5,4.5-4.5c0.17,0,0.34,0.01,0.5,0.03C31.25,17.28,33,19.18,33,21.5z"/><linearGradient id="vxh3z~3YNFY_6rtH4oZlzc" x1="35.4" x2="35.4" y1="15.246" y2="50.001" gradientUnits="userSpaceOnUse"><stop offset="0" stop-color="#faa0bd"/><stop offset="1" stop-color="#fa67a6"/></linearGradient><path fill="url(#vxh3z~3YNFY_6rtH4oZlzc)" d="M37.8,17.02l-2.65,26.44C34.51,43.8,33.78,44,33,44V21.5c0-2.49,2.01-4.5,4.5-4.5	C37.6,17,37.7,17,37.8,17.02z"/><linearGradient id="vxh3z~3YNFY_6rtH4oZlzd" x1="22" x2="22" y1="15.529" y2="69.817" gradientUnits="userSpaceOnUse"><stop offset=".002" stop-color="#f44f78"/><stop offset=".397" stop-color="#e4305d"/><stop offset=".763" stop-color="#d81b4a"/><stop offset="1" stop-color="#d41343"/></linearGradient><path fill="url(#vxh3z~3YNFY_6rtH4oZlzd)" d="M24,21.5V44h-4V17.03C22.25,17.28,24,19.18,24,21.5z"/><linearGradient id="vxh3z~3YNFY_6rtH4oZlze" x1="31" x2="31" y1="15.529" y2="69.817" gradientUnits="userSpaceOnUse"><stop offset=".002" stop-color="#f44f78"/><stop offset=".397" stop-color="#e4305d"/><stop offset=".763" stop-color="#d81b4a"/><stop offset="1" stop-color="#d41343"/></linearGradient><path fill="url(#vxh3z~3YNFY_6rtH4oZlze)" d="M33,21.5V44h-4V17.03C31.25,17.28,33,19.18,33,21.5z"/><linearGradient id="vxh3z~3YNFY_6rtH4oZlzf" x1="12.55" x2="12.55" y1="15.529" y2="69.817" gradientUnits="userSpaceOnUse"><stop offset=".002" stop-color="#f44f78"/><stop offset=".397" stop-color="#e4305d"/><stop offset=".763" stop-color="#d81b4a"/><stop offset="1" stop-color="#d41343"/></linearGradient><path fill="url(#vxh3z~3YNFY_6rtH4oZlzf)" d="M15,21.5V44c-0.79,0-1.55-0.21-2.21-0.59L10.1,17.02c0.13-0.01,0.27-0.02,0.4-0.02	C12.99,17,15,19.01,15,21.5z"/><linearGradient id="vxh3z~3YNFY_6rtH4oZlzg" x1="38.575" x2="38.575" y1="15.529" y2="69.817" gradientUnits="userSpaceOnUse"><stop offset=".002" stop-color="#f44f78"/><stop offset=".397" stop-color="#e4305d"/><stop offset=".763" stop-color="#d81b4a"/><stop offset="1" stop-color="#d41343"/></linearGradient><path fill="url(#vxh3z~3YNFY_6rtH4oZlzg)" d="M42,21.5c0,2.5-3.08,13.62-4.68,19.24c-0.3,1.08-0.99,1.97-1.88,2.55	c-0.1,0.06-0.19,0.12-0.29,0.17l2.65-26.44c0.52,0.03,1.03,0.16,1.48,0.35C40.89,18.06,42,19.64,42,21.5z"/></svg>