<svg xmlns="http://www.w3.org/2000/svg" viewBox="0 0 48 48"><linearGradient id="T7C_iiiGyeevw5NJE0cPOa" x1="6.414" x2="41.774" y1="-175.662" y2="-201.488" gradientTransform="matrix(1 0 0 -1 0 -162)" gradientUnits="userSpaceOnUse"><stop offset="0" stop-color="#28afea"/><stop offset="1" stop-color="#047ed6"/></linearGradient><path fill="url(#T7C_iiiGyeevw5NJE0cPOa)" d="M6,40V12h36v28c0,1.1-0.9,2-2,2H8C6.9,42,6,41.1,6,40z"/><linearGradient id="T7C_iiiGyeevw5NJE0cPOb" x1="6.42" x2="41.198" y1="-168.608" y2="-175.68" gradientTransform="matrix(1 0 0 -1 0 -162)" gradientUnits="userSpaceOnUse"><stop offset="0" stop-color="#0077d2"/><stop offset="1" stop-color="#0b59a2"/></linearGradient><path fill="url(#T7C_iiiGyeevw5NJE0cPOb)" d="M42,8v6H6V8c0-1.1,0.9-2,2-2h32C41.1,6,42,6.9,42,8z"/><path d="M35.5,12.5L35.5,12.5c-1.657,0-3-1.343-3-3V6h6v3.5	C38.5,11.157,37.157,12.5,35.5,12.5z" opacity=".05"/><path d="M35.5,11.75L35.5,11.75c-1.243,0-2.25-1.007-2.25-2.25V6h4.5v3.5	C37.75,10.743,36.743,11.75,35.5,11.75z" opacity=".07"/><path d="M12.5,12.5L12.5,12.5c-1.657,0-3-1.343-3-3V6h6v3.5	C15.5,11.157,14.157,12.5,12.5,12.5z" opacity=".05"/><path d="M12.5,11.75L12.5,11.75c-1.243,0-2.25-1.007-2.25-2.25V6h4.5v3.5	C14.75,10.743,13.743,11.75,12.5,11.75z" opacity=".07"/><path fill="#3ccbf4" d="M12.5,11L12.5,11c-0.828,0-1.5-0.672-1.5-1.5v-4C11,4.672,11.672,4,12.5,4l0,0	C13.328,4,14,4.672,14,5.5v4C14,10.328,13.328,11,12.5,11z"/><path fill="#3ccbf4" d="M35.5,11L35.5,11c-0.828,0-1.5-0.672-1.5-1.5v-4C34,4.672,34.672,4,35.5,4l0,0	C36.328,4,37,4.672,37,5.5v4C37,10.328,36.328,11,35.5,11z"/><path fill="#fff" d="M13.125,29.32H8.852v-1.727h4.273V29.32z"/><path fill="#fff" d="M20.703,21.273v11.453h-2.461v-8.672c-0.136,0.12-0.296,0.233-0.48,0.34s-0.382,0.203-0.59,0.289 s-0.425,0.159-0.648,0.219s-0.445,0.103-0.664,0.129v-2.078c0.641-0.188,1.245-0.427,1.812-0.719s1.081-0.612,1.539-0.961H20.703z"/><path fill="#fff" d="M37.148,32.727h-2.461v-4.562c0-1.161-0.427-1.742-1.281-1.742c-0.406,0-0.737,0.175-0.992,0.523 s-0.383,0.784-0.383,1.305v4.477h-2.469v-4.609c0-1.13-0.419-1.695-1.258-1.695c-0.422,0-0.759,0.167-1.012,0.5 s-0.379,0.786-0.379,1.359v4.445h-2.469v-8h2.469v1.25h0.031c0.255-0.427,0.613-0.774,1.074-1.043s0.965-0.402,1.512-0.402 c1.13,0,1.903,0.497,2.32,1.492c0.609-0.995,1.505-1.492,2.688-1.492c1.739,0,2.609,1.073,2.609,3.219V32.727z"/></svg>