<svg xmlns="http://www.w3.org/2000/svg" viewBox="0 0 48 48"><linearGradient id="iHyQgX7FxQ9zn9w303OOfa" x1="46.87" x2="37.996" y1="26.041" y2="25.995" gradientTransform="matrix(1 0 0 -1 0 50)" gradientUnits="userSpaceOnUse"><stop offset=".004" stop-color="#6d7882"/><stop offset=".337" stop-color="#6a757e"/><stop offset=".668" stop-color="#616a72"/><stop offset=".836" stop-color="#5a6269"/><stop offset="1" stop-color="#575f66"/></linearGradient><path fill="url(#iHyQgX7FxQ9zn9w303OOfa)" d="M47,17v14c0,0.552-0.448,1-1,1H32V16h14C46.552,16,47,16.448,47,17z"/><linearGradient id="iHyQgX7FxQ9zn9w303OOfb" x1="38.128" x2="44.49" y1="30" y2="30" gradientTransform="matrix(1 0 0 -1 0 50)" gradientUnits="userSpaceOnUse"><stop offset="0" stop-color="#e5a505"/><stop offset=".095" stop-color="#e9a804"/><stop offset=".177" stop-color="#f4b102"/><stop offset=".297" stop-color="#fbb600"/><stop offset=".526" stop-color="#fdb700"/></linearGradient><rect width="10" height="2" x="37" y="19" fill="url(#iHyQgX7FxQ9zn9w303OOfb)"/><linearGradient id="iHyQgX7FxQ9zn9w303OOfc" x1="38.128" x2="44.49" y1="22" y2="22" gradientTransform="matrix(1 0 0 -1 0 50)" gradientUnits="userSpaceOnUse"><stop offset="0" stop-color="#e5a505"/><stop offset=".095" stop-color="#e9a804"/><stop offset=".177" stop-color="#f4b102"/><stop offset=".297" stop-color="#fbb600"/><stop offset=".526" stop-color="#fdb700"/></linearGradient><rect width="10" height="2" x="37" y="27" fill="url(#iHyQgX7FxQ9zn9w303OOfc)"/><linearGradient id="iHyQgX7FxQ9zn9w303OOfd" x1="38.102" x2="44.903" y1="26.018" y2="25.972" gradientTransform="matrix(1 0 0 -1 0 50)" gradientUnits="userSpaceOnUse"><stop offset="0" stop-color="#e5a505"/><stop offset=".095" stop-color="#e9a804"/><stop offset=".177" stop-color="#f4b102"/><stop offset=".297" stop-color="#fbb600"/><stop offset=".526" stop-color="#fdb700"/></linearGradient><path fill="url(#iHyQgX7FxQ9zn9w303OOfd)" d="M37,25h7.5c0.276,0,0.5-0.224,0.5-0.5v-1c0-0.276-0.224-0.5-0.5-0.5H37V25z"/><path fill="#7c8994" d="M4,35h31c1.657,0,3-1.343,3-3V16c0-1.657-1.343-3-3-3H4c-1.657,0-3,1.343-3,3v16	C1,33.657,2.343,35,4,35z"/><linearGradient id="iHyQgX7FxQ9zn9w303OOfe" x1="6.852" x2="10.98" y1="1758.901" y2="1766.664" gradientTransform="translate(0 -1738)" gradientUnits="userSpaceOnUse"><stop offset="0" stop-color="#fff"/><stop offset=".428" stop-color="#f2f2f2"/><stop offset="1" stop-color="#ccc"/></linearGradient><path fill="url(#iHyQgX7FxQ9zn9w303OOfe)" d="M12,24c0,1.933-1.567,3.5-3.5,3.5S5,25.933,5,24s1.567-3.5,3.5-3.5S12,22.067,12,24z"/><circle cx="25" cy="24" r="7" opacity=".05"/><circle cx="25" cy="24" r="6.5" opacity=".07"/><linearGradient id="iHyQgX7FxQ9zn9w303OOff" x1="19.391" x2="27.648" y1="36.152" y2="21.207" gradientTransform="matrix(1 0 0 -1 0 50)" gradientUnits="userSpaceOnUse"><stop offset="0" stop-color="#ffda1c"/><stop offset="1" stop-color="#feb705"/></linearGradient><path fill="url(#iHyQgX7FxQ9zn9w303OOff)" d="M31,24c0,3.313-2.687,6-6,6s-6-2.687-6-6s2.687-6,6-6S31,20.687,31,24z"/></svg>