<svg xmlns="http://www.w3.org/2000/svg" viewBox="0 0 48 48"><linearGradient id="vJjSBl7u6b4uW1w33q7x5a" x1="15" x2="15" y1="15.609" y2="27.937" gradientUnits="userSpaceOnUse"><stop offset="0" stop-color="#6d6d6d"/><stop offset=".126" stop-color="#626262"/><stop offset=".987" stop-color="#464646"/><stop offset=".998" stop-color="#454545"/></linearGradient><path fill="url(#vJjSBl7u6b4uW1w33q7x5a)" d="M20.384,19c-1.502-0.625-3.362-1-5.384-1s-3.881,0.375-5.384,1H6v4c0,2.761,4.029,5,9,5	s9-2.239,9-5v-4H20.384z"/><ellipse cx="15" cy="19" fill="#5f5f5f" rx="9" ry="5"/><linearGradient id="vJjSBl7u6b4uW1w33q7x5b" x1="11.973" x2="47.442" y1="10.237" y2="45.706" gradientUnits="userSpaceOnUse"><stop offset="0" stop-color="#d4943b"/><stop offset="1" stop-color="#c2620e"/><stop offset="1" stop-color="#c2620e"/></linearGradient><path fill="url(#vJjSBl7u6b4uW1w33q7x5b)" d="M40,4l-6.812,25.546C32.487,32.172,30.109,34,27.39,34H9c-1.657,0-3,1.343-3,3v4.786	c0,1.738,1.472,3.112,3.206,2.993l19.831-1.368c3.536-0.244,6.49-2.785,7.259-6.246L37,34l7.5-30H40z"/><linearGradient id="vJjSBl7u6b4uW1w33q7x5c" x1="3.515" x2="28.885" y1="30.309" y2="44.956" gradientUnits="userSpaceOnUse"><stop offset="0" stop-color="#c26715"/><stop offset=".346" stop-color="#be6015"/><stop offset=".686" stop-color="#b54e16"/><stop offset=".979" stop-color="#ad3f16"/></linearGradient><path fill="url(#vJjSBl7u6b4uW1w33q7x5c)" d="M28.617,41.207l-18.444,1.604C9.005,42.913,8,41.991,8,40.819V38c0-1.105,0.895-2,2-2h18.392	C29.832,36,31,37.168,31,38.608v0C31,39.962,29.965,41.09,28.617,41.207z"/></svg>