<svg xmlns="http://www.w3.org/2000/svg" viewBox="0 0 48 48"><linearGradient id="vEfmp3M9ufpKjCTC15rQla" x1="33.099" x2="34.961" y1="11.159" y2="21.163" gradientUnits="userSpaceOnUse"><stop offset="0" stop-color="#0d61a9"/><stop offset="1" stop-color="#16528c"/></linearGradient><circle cx="34" cy="16" r="5" fill="url(#vEfmp3M9ufpKjCTC15rQla)"/><linearGradient id="vEfmp3M9ufpKjCTC15rQlb" x1="14.621" x2="18.222" y1="3.743" y2="15.916" gradientUnits="userSpaceOnUse"><stop offset="0" stop-color="#0d61a9"/><stop offset="1" stop-color="#16528c"/></linearGradient><circle cx="16.25" cy="9.25" r="6.25" fill="url(#vEfmp3M9ufpKjCTC15rQlb)"/><linearGradient id="vEfmp3M9ufpKjCTC15rQlc" x1="18.617" x2="25.647" y1="16.595" y2="42.142" gradientUnits="userSpaceOnUse"><stop offset="0" stop-color="#0d61a9"/><stop offset="1" stop-color="#16528c"/></linearGradient><path fill="url(#vEfmp3M9ufpKjCTC15rQlc)" d="M34.178,23.002c-2.853-0.055-5.41,1.219-7.096,3.244c-1.399-5.053-6.222-8.682-11.822-8.203	C9.392,18.544,5,23.686,5,29.576L5,41c0,1.105,0.895,2,2,2h34c1.105,0,2-0.895,2-2l0-8.677C43,27.367,39.133,23.097,34.178,23.002z"/><linearGradient id="vEfmp3M9ufpKjCTC15rQld" x1="4.5" x2="4.5" y1="13.129" y2="20.129" gradientUnits="userSpaceOnUse"><stop offset="0" stop-color="#0d61a9"/><stop offset="1" stop-color="#16528c"/></linearGradient><path fill="url(#vEfmp3M9ufpKjCTC15rQld)" d="M3.122,15.122c-1.776,1.776-2.599,3.833-1.838,4.595c0.761,0.761,2.818-0.062,4.594-1.838	c1.776-1.776,2.599-3.833,1.838-4.595C6.955,12.522,4.898,13.345,3.122,15.122z"/><linearGradient id="vEfmp3M9ufpKjCTC15rQle" x1="35.093" x2="23.602" y1="35.5" y2="35.5" gradientUnits="userSpaceOnUse"><stop offset="0" stop-color="#1ea2e4"/><stop offset="1" stop-color="#32bdef"/></linearGradient><path fill="url(#vEfmp3M9ufpKjCTC15rQle)" d="M33.979,28.001C27.612,28.27,24,30.979,24,30.979V43h10c0.552,0,1-0.448,1-1l0-12.999	C35,28.44,34.539,27.977,33.979,28.001z"/><linearGradient id="vEfmp3M9ufpKjCTC15rQlf" x1="182.093" x2="170.602" y1="35.5" y2="35.5" gradientTransform="matrix(-1 0 0 1 195 0)" gradientUnits="userSpaceOnUse"><stop offset="0" stop-color="#1ea2e4"/><stop offset="1" stop-color="#32bdef"/></linearGradient><path fill="url(#vEfmp3M9ufpKjCTC15rQlf)" d="M14.021,28.001C20.388,28.27,24,30.979,24,30.979V43H14c-0.552,0-1-0.448-1-1l0-12.999	C13,28.44,13.461,27.977,14.021,28.001z"/></svg>