<svg xmlns="http://www.w3.org/2000/svg" viewBox="0 0 48 48"><radialGradient id="lyD0jlmhfAEVvgAIUogxja" cx="14.957" cy="15.043" r="27.196" gradientUnits="userSpaceOnUse"><stop offset="0" stop-color="#a8e2f7"/><stop offset="1" stop-color="#47c1ff"/></radialGradient><path fill="url(#lyD0jlmhfAEVvgAIUogxja)" d="M40,37H8c-1.105,0-2-0.895-2-2V8c0-1.105,0.895-2,2-2h32c1.105,0,2,0.895,2,2v27	C42,36.105,41.105,37,40,37z"/><path fill="#33c481" d="M15,28c-3.309,0-6.388,0.509-9,1.375V40c0,1.105,0.895,2,2,2h21.133C30.942,40.57,32,38.851,32,37	C32,32.029,24.389,28,15,28z"/><linearGradient id="lyD0jlmhfAEVvgAIUogxjb" x1="32.5" x2="32.5" y1="28.929" y2="25.668" gradientUnits="userSpaceOnUse"><stop offset="0" stop-color="#c26715"/><stop offset=".508" stop-color="#b85515"/><stop offset="1" stop-color="#ad3f16"/></linearGradient><path fill="url(#lyD0jlmhfAEVvgAIUogxjb)" d="M31,14.947h3v15.52C34,30.761,33.776,31,33.5,31h-2c-0.276,0-0.5-0.239-0.5-0.533L31,14.947z"/><linearGradient id="lyD0jlmhfAEVvgAIUogxjc" x1="30.611" x2="33.647" y1="9.788" y2="27.004" gradientUnits="userSpaceOnUse"><stop offset="0" stop-color="#33c481"/><stop offset="1" stop-color="#21a366"/></linearGradient><path fill="url(#lyD0jlmhfAEVvgAIUogxjc)" d="M37.339,17.534C37.751,16.96,38,16.261,38,15.5c0-1.777-1.33-3.229-3.046-3.454	C34.74,10.883,33.725,10,32.5,10s-2.24,0.883-2.454,2.046C28.33,12.271,27,13.723,27,15.5c0,0.761,0.249,1.46,0.661,2.034	C26.667,18.151,26,19.244,26,20.5c0,1.933,1.567,3.5,3.5,3.5c0.061,0,0.118-0.015,0.178-0.018C30.086,25.154,31.189,26,32.5,26	s2.414-0.846,2.822-2.018C35.382,23.985,35.439,24,35.5,24c1.933,0,3.5-1.567,3.5-3.5C39,19.244,38.333,18.151,37.339,17.534z"/><linearGradient id="lyD0jlmhfAEVvgAIUogxjd" x1="24" x2="24" y1="26.88" y2="42.031" gradientUnits="userSpaceOnUse"><stop offset="0" stop-color="#33c481"/><stop offset="1" stop-color="#21a366"/></linearGradient><path fill="url(#lyD0jlmhfAEVvgAIUogxjd)" d="M42,31v1c-2-2-5-3-9.5-3c-4.472,0-9.437,2.962-13.092,5.286	C16.605,36.068,13.346,37,10.025,37L6,37v3c0,1.105,0.895,2,2,2h32c1.105,0,2-0.895,2-2V31z"/><linearGradient id="lyD0jlmhfAEVvgAIUogxje" x1="11.381" x2="16.803" y1="11.38" y2="16.803" gradientUnits="userSpaceOnUse"><stop offset="0" stop-color="#ffd869"/><stop offset="1" stop-color="#fec52b"/></linearGradient><path fill="url(#lyD0jlmhfAEVvgAIUogxje)" d="M20,15c0-2.766-2.238-5-5-5s-5,2.234-5,5c0,2.762,2.238,5,5,5S20,17.762,20,15"/></svg>