<svg xmlns="http://www.w3.org/2000/svg" viewBox="0 0 48 48"><linearGradient id="IAIwAoLnjqIvDvA5oApXJa" x1="24" x2="24" y1="41.039" y2="44.94" gradientUnits="userSpaceOnUse"><stop offset=".098" stop-color="#c28200"/><stop offset="1" stop-color="#996700"/></linearGradient><path fill="url(#IAIwAoLnjqIvDvA5oApXJa)" d="M24,41c-1.105,0-2,0.895-2,2s0.895,2,2,2s2-0.895,2-2S25.105,41,24,41z"/><linearGradient id="IAIwAoLnjqIvDvA5oApXJb" x1="26.306" x2="24.577" y1=".142" y2="6.647" gradientUnits="userSpaceOnUse"><stop offset="0" stop-color="#a34f27"/><stop offset=".587" stop-color="#8b3817"/><stop offset="1" stop-color="#802d10"/></linearGradient><path fill="url(#IAIwAoLnjqIvDvA5oApXJb)" d="M25,7h-2c0-3.858,2.625-6.063,3.478-6.677c0.14-0.101,0.332-0.056,0.422,0.091L27.566,1.5	c0.117,0.191,0.078,0.44-0.099,0.578C26.736,2.648,25,4.287,25,7z"/><linearGradient id="IAIwAoLnjqIvDvA5oApXJc" x1="24" x2="24" y1="14.231" y2="44.939" gradientUnits="userSpaceOnUse"><stop offset="0" stop-color="#eba600"/><stop offset="1" stop-color="#c28200"/></linearGradient><path fill="url(#IAIwAoLnjqIvDvA5oApXJc)" d="M24,44L24,44c-8.837,0-16-7.163-16-16V14h32v14C40,36.837,32.837,44,24,44z"/><linearGradient id="IAIwAoLnjqIvDvA5oApXJd" x1="24" x2="24" y1="5.96" y2="14.688" gradientUnits="userSpaceOnUse"><stop offset="0" stop-color="#a34f27"/><stop offset=".587" stop-color="#8b3817"/><stop offset="1" stop-color="#802d10"/></linearGradient><path fill="url(#IAIwAoLnjqIvDvA5oApXJd)" d="M29.951,6.805c-3.896-1.063-8.006-1.063-11.903,0L8.05,9.531C6.839,9.862,6,10.961,6,12.217	l0,0C6,13.753,7.247,15,8.783,15h30.433C40.753,15,42,13.753,42,12.217l0,0c0-1.255-0.839-2.355-2.05-2.685L29.951,6.805z"/></svg>