<svg xmlns="http://www.w3.org/2000/svg" xmlns:xlink="http://www.w3.org/1999/xlink" data-name="Layer 1" viewBox="0 0 48 48"><defs><linearGradient id="ZwDsFCrD~LFBT~n5fC8uBb" x1="11.78" x2="35.604" y1="10.621" y2="44.503" data-name="Безымянный градиент 103" gradientUnits="userSpaceOnUse"><stop offset="0" stop-color="#21ad64"/><stop offset="1" stop-color="#088242"/></linearGradient><linearGradient id="ZwDsFCrD~LFBT~n5fC8uBa" x1="15.397" x2="41.073" y1="2.019" y2="40.313" data-name="Новый образец градиентной зал 6" gradientUnits="userSpaceOnUse"><stop offset="0" stop-color="#eba84b"/><stop offset="1" stop-color="#d97218"/></linearGradient><linearGradient id="ZwDsFCrD~LFBT~n5fC8uBc" x1="3.231" x2="28.908" y1="10.176" y2="48.47" xlink:href="#ZwDsFCrD~LFBT~n5fC8uBa"/><linearGradient id="ZwDsFCrD~LFBT~n5fC8uBd" x1="24" x2="24" y1=".5" y2="15.324" xlink:href="#ZwDsFCrD~LFBT~n5fC8uBb"/><linearGradient id="ZwDsFCrD~LFBT~n5fC8uBe" x1="24" x2="24" y1="21.489" y2="38.267" gradientUnits="userSpaceOnUse"><stop offset="0" stop-color="#d4943b"/><stop offset="1" stop-color="#c2620e"/></linearGradient></defs><rect width="26" height="24" x="11" y="16" fill="url(#ZwDsFCrD~LFBT~n5fC8uBb)"/><path d="M24.04762,20a8,8,0,1,1,0,16h-.09524a8,8,0,0,1,0-16h.09524m0-1h-.09524a9,9,0,0,0,0,18h.09524a9,9,0,1,0,0-18Z" opacity=".05"/><path d="M24.04762,20a8,8,0,1,1,0,16h-.09524a8,8,0,0,1,0-16h.09524m0-.5h-.09524a8.5,8.5,0,0,0,0,17h.09524a8.5,8.5,0,1,0,0-17Z" opacity=".07"/><path fill="#fff" d="M32,28v0a7.97643,7.97643,0,0,1-7.95265,8h-.0947A7.97643,7.97643,0,0,1,16,28v0a7.97643,7.97643,0,0,1,7.95265-8h.0947A7.97643,7.97643,0,0,1,32,28Z"/><path fill="url(#ZwDsFCrD~LFBT~n5fC8uBa)" d="M38,14v2a1,1,0,0,1-1,1H11a1,1,0,0,1-1-1V14a2.00588,2.00588,0,0,1,2-2H36A2.00588,2.00588,0,0,1,38,14Z"/><path fill="url(#ZwDsFCrD~LFBT~n5fC8uBc)" d="M11,39H37a1,1,0,0,1,1,1v2a2.00588,2.00588,0,0,1-2,2H12a2.00588,2.00588,0,0,1-2-2V40A1,1,0,0,1,11,39Z"/><path fill="url(#ZwDsFCrD~LFBT~n5fC8uBd)" d="M12,4H36a2,2,0,0,1,2,2v5a1,1,0,0,1-1,1H11a1,1,0,0,1-1-1V6A2,2,0,0,1,12,4Z"/><g><path fill="#107c42" d="M13,4h2a0,0,0,0,1,0,0V8a1,1,0,0,1-1,1h0a1,1,0,0,1-1-1V4a0,0,0,0,1,0,0Z"/><path fill="#107c42" d="M17,4h2a0,0,0,0,1,0,0V8a1,1,0,0,1-1,1h0a1,1,0,0,1-1-1V4a0,0,0,0,1,0,0Z"/><path fill="#107c42" d="M21,4h2a0,0,0,0,1,0,0V8a1,1,0,0,1-1,1h0a1,1,0,0,1-1-1V4a0,0,0,0,1,0,0Z"/><path fill="#107c42" d="M25,4h2a0,0,0,0,1,0,0V8a1,1,0,0,1-1,1h0a1,1,0,0,1-1-1V4a0,0,0,0,1,0,0Z"/><path fill="#107c42" d="M29,4h2a0,0,0,0,1,0,0V8a1,1,0,0,1-1,1h0a1,1,0,0,1-1-1V4a0,0,0,0,1,0,0Z"/><path fill="#107c42" d="M33,4h2a0,0,0,0,1,0,0V8a1,1,0,0,1-1,1h0a1,1,0,0,1-1-1V4a0,0,0,0,1,0,0Z"/></g><path fill="url(#ZwDsFCrD~LFBT~n5fC8uBe)" d="M28,30.01654c0-3.3137-1.79086-8-4-8s-4,4.6863-4,8a4.14091,4.14091,0,0,0,4,4A4.14091,4.14091,0,0,0,28,30.01654Z"/></svg>