<svg xmlns="http://www.w3.org/2000/svg" xmlns:xlink="http://www.w3.org/1999/xlink" data-name="Слой 1" viewBox="0 0 48 48"><defs><linearGradient id="SpFtj4rcxdltI1EvlbVqZa" x1="16.5" x2="16.5" y1="15.891" y2="-.171" data-name="Безымянный градиент 131" gradientUnits="userSpaceOnUse"><stop offset="0" stop-color="#4c5963"/><stop offset="1" stop-color="#889097"/></linearGradient><linearGradient id="SpFtj4rcxdltI1EvlbVqZb" x1="31.5" x2="31.5" y1="15.891" y2="-.171" xlink:href="#SpFtj4rcxdltI1EvlbVqZa"/><linearGradient id="SpFtj4rcxdltI1EvlbVqZc" x1="24" x2="24" y1="54.45" y2="-4.145" data-name="Безымянный градиент 162" xlink:href="#SpFtj4rcxdltI1EvlbVqZa"/><linearGradient id="SpFtj4rcxdltI1EvlbVqZd" x1="24" x2="24" y1="47.543" y2="42.45" data-name="Безымянный градиент 163" gradientUnits="userSpaceOnUse"><stop offset="0" stop-color="#afb6bc"/><stop offset=".512" stop-color="#9aa0a5"/><stop offset=".922" stop-color="#889097"/></linearGradient><linearGradient id="SpFtj4rcxdltI1EvlbVqZe" x1="24" x2="24" y1="17.935" y2="28.566" data-name="Безымянный градиент 159" gradientUnits="userSpaceOnUse"><stop offset="0" stop-color="#9aa0a5" stop-opacity="0"/><stop offset=".099" stop-color="#9aa0a5" stop-opacity=".151"/><stop offset=".317" stop-color="#9aa0a5" stop-opacity=".452"/><stop offset=".524" stop-color="#9aa0a5" stop-opacity=".69"/><stop offset=".713" stop-color="#9aa0a5" stop-opacity=".86"/><stop offset=".877" stop-color="#9aa0a5" stop-opacity=".963"/><stop offset="1" stop-color="#9aa0a5"/></linearGradient></defs><path fill="url(#SpFtj4rcxdltI1EvlbVqZa)" d="M18.00146,12a1.9984,1.9984,0,0,1-1.60156-.7998l-3-4a2.0002,2.0002,0,0,1,3.2002-2.4004l3,4A2.00034,2.00034,0,0,1,18.00146,12Z"/><path fill="url(#SpFtj4rcxdltI1EvlbVqZb)" d="M29.99854,12A2.00034,2.00034,0,0,1,28.3999,8.7998l3-4a2.0002,2.0002,0,0,1,3.2002,2.4004l-3,4A1.9984,1.9984,0,0,1,29.99854,12Z"/><path fill="url(#SpFtj4rcxdltI1EvlbVqZc)" d="M37.41609,18.03941a5.30509,5.30509,0,0,0-3.50682-7.42076C31.30652,6.70379,27.8736,4,24,4s-7.30652,2.70379-9.90927,6.61865a5.30509,5.30509,0,0,0-3.50682,7.42076A31.66261,31.66261,0,0,0,9.0005,27.57189C9.0005,37.92688,15.44331,41.5,23.72731,41.5S38.9995,37.92688,38.9995,27.57189A31.66261,31.66261,0,0,0,37.41609,18.03941Z"/><path fill="#4c5963" d="M21,17a.99974.99974,0,0,1-1-1c0-2.206-1.3457-4-3-4a1,1,0,0,1,0-2c2.75684,0,5,2.69141,5,6A.99974.99974,0,0,1,21,17Z"/><path fill="#4c5963" d="M27,17a.99974.99974,0,0,1-1-1c0-3.30859,2.24316-6,5-6a1,1,0,0,1,0,2c-1.6543,0-3,1.794-3,4A.99974.99974,0,0,1,27,17Z"/><path fill="#343434" d="M32.66667,18h-2A.66692.66692,0,0,1,30,17.33333v-.03066A3.30269,3.30269,0,0,1,33.30267,14h.03066A.66692.66692,0,0,1,34,14.66667v2A1.33382,1.33382,0,0,1,32.66667,18Z"/><path fill="#343434" d="M15.33333,18h2A.66692.66692,0,0,0,18,17.33333v-.03067A3.30269,3.30269,0,0,0,14.69733,14h-.03066A.66692.66692,0,0,0,14,14.66667v2A1.33382,1.33382,0,0,0,15.33333,18Z"/><path fill="url(#SpFtj4rcxdltI1EvlbVqZd)" d="M12,40H36a0,0,0,0,1,0,0v1a4,4,0,0,1-4,4H16a4,4,0,0,1-4-4V40A0,0,0,0,1,12,40Z"/><path fill="url(#SpFtj4rcxdltI1EvlbVqZe)" d="M33.5,30a6.47505,6.47505,0,0,0-4.75787,2.08173L26,17H22L19.25787,32.08173A6.49708,6.49708,0,1,0,14.5,43c6.25,0,8.5-2,9.5-2s3.25,2,9.5,2a6.5,6.5,0,0,0,0-13Z"/><circle cx="15.5" cy="33.5" r="1.5" fill="#4c5963"/><circle cx="32.5" cy="33.5" r="1.5" fill="#4c5963"/></svg>