<svg xmlns="http://www.w3.org/2000/svg" data-name="Слой 1" viewBox="0 0 48 48"><defs><linearGradient id="g~cReKmNWPuQ2u5zt7mBya" x1="26" x2="26" y1="-.357" y2="41.118" data-name="Безымянный градиент 8" gradientUnits="userSpaceOnUse"><stop offset="0" stop-color="#dfe9f2"/><stop offset=".391" stop-color="#d6e0e9"/><stop offset="1" stop-color="#bfc8d1"/></linearGradient><linearGradient id="g~cReKmNWPuQ2u5zt7mByb" x1="8" x2="15" y1="-137.5" y2="-137.5" data-name="Безымянный градиент 19" gradientTransform="matrix(1 0 0 -1 0 -124)" gradientUnits="userSpaceOnUse"><stop offset="0" stop-color="#ffcf54"/><stop offset=".261" stop-color="#fdcb4d"/><stop offset=".639" stop-color="#f7c13a"/><stop offset="1" stop-color="#f0b421"/></linearGradient></defs><path fill="url(#g~cReKmNWPuQ2u5zt7mBya)" d="M40,8a1,1,0,1,1,1,1A1,1,0,0,1,40,8ZM24.5,4A1.5,1.5,0,1,0,23,2.5,1.5,1.5,0,0,0,24.5,4ZM10,2a2,2,0,1,0,2,2A2,2,0,0,0,10,2ZM7,7A1,1,0,1,0,8,8,1,1,0,0,0,7,7ZM46,23.5a3.48831,3.48831,0,0,0-3.1933-3.46906,2.93731,2.93731,0,0,0-.9975-3.40979,2.49663,2.49663,0,0,0-1.81439-4.56994C39.99512,12.03375,40,12.01752,40,12a2.992,2.992,0,0,0-2.2196-2.88446A2.99147,2.99147,0,0,0,32.806,5.9668a2.98449,2.98449,0,0,0-5.69043.2528,2.96471,2.96471,0,0,0-2.75549.27247A3.49084,3.49084,0,0,0,21.5,5a3.43815,3.43815,0,0,0-1.879.56842A2.99061,2.99061,0,0,0,14.22034,8.118,2.47289,2.47289,0,0,0,13.5,8a2.5,2.5,0,0,0,0,5L41,32a2.994,2.994,0,0,0,2.16608-5.06714A3.49818,3.49818,0,0,0,46,23.5Z"/><path fill="#565b5e" d="M12,42V35H5v7a1.00036,1.00036,0,0,0,1,1h5A1.00036,1.00036,0,0,0,12,42Z"/><path fill="#565b5e" d="M41,42V35H34v7a1.00036,1.00036,0,0,0,1,1h5A1.00036,1.00036,0,0,0,41,42Z"/><path fill="#eb6773" d="M38,24l-2.59806-9.52623A2,2,0,0,0,33.47241,13H12.52759a2,2,0,0,0-1.92953,1.47377L8,24,5.6,27.2A3,3,0,0,0,5,29v8a2,2,0,0,0,2,2H39a2,2,0,0,0,2-2V29a3,3,0,0,0-.6-1.8Z"/><circle cx="9.5" cy="31.5" r="2.5" fill="#fff"/><circle cx="36.5" cy="31.5" r="2.5" fill="#fff"/><path fill="#b31523" d="M14,31l1.497,2.9944A2.04957,2.04957,0,0,0,17.354,35H28.646a2.04957,2.04957,0,0,0,1.857-1.0056L32,31Z"/><path fill="#eb6773" d="M42,25H38V23a1.99945,1.99945,0,0,1,2-2h3a1.00036,1.00036,0,0,1,1,1v1A1.99945,1.99945,0,0,1,42,25Z"/><path fill="#b31523" d="M35.75,25l-2.183-8.485A1.99718,1.99718,0,0,0,31.627,15H14.373a1.99718,1.99718,0,0,0-1.94,1.515L10.25,25Z"/><circle cx="21" cy="14" r="2" fill="#fff"/><circle cx="25.5" cy="10.5" r="1.5" fill="#fff"/><circle cx="8" cy="22" r="2" fill="#fff"/><circle cx="40" cy="21" r="1" fill="#fff"/><path fill="url(#g~cReKmNWPuQ2u5zt7mByb)" d="M8,13.5A3.5,3.5,0,1,0,11.49825,10,3.49978,3.49978,0,0,0,8,13.5Z"/><circle cx="19.5" cy="22.5" r="1.5" fill="#35c1f1"/><path fill="#35c1f1" d="M19.5,21v3H15.32456a2.0002,2.0002,0,0,1-.63246-.10263L12,23l-.74313-4.5228L15.5,21Z"/><path fill="#35c1f1" d="M6,21.5A3.5,3.5,0,1,0,9.49825,18,3.49978,3.49978,0,0,0,6,21.5Z"/><path fill="#35c1f1" d="M4,27.5A3.5,3.5,0,1,0,7.49825,24,3.49978,3.49978,0,0,0,4,27.5Z"/><path fill="#35c1f1" d="M4,27.5V42a1,1,0,0,0,1,1H8.12074a1,1,0,0,0,.99178-.872L11,27.5Z"/><polygon fill="#35c1f1" points="6.271 20.147 4.233 26.241 10.884 28.402 12.836 22.563 6.271 20.147"/><path d="M19.5,20H15.77l-3.506-2.07733A4.50014,4.50014,0,0,0,16,13.5a4.06547,4.06547,0,0,0-.03-.5H14.96a2.73921,2.73921,0,0,1,.04.5A3.50386,3.50386,0,0,1,11.5,17a3.40576,3.40576,0,0,1-1.5-.34l-.0976.36048L9.9,17.02l-.04663.17932L9.73,17.64l.00525.00165L9.63,18.01a3.4825,3.4825,0,0,1,1.63.48L15.5,21h4a1.5,1.5,0,0,1,0,3H15.32a1.97436,1.97436,0,0,1-.63-.1l-2.07-.69L10.88,28.4,9.11,42.13a.9942.9942,0,0,1-.99.87H9.85a1.85662,1.85662,0,0,0,.25-.74l1.76-13.63,1.39-4.16,1.13.38a2.98216,2.98216,0,0,0,.94.15H19.5a2.5,2.5,0,0,0,0-5Z" opacity=".05"/><path d="M15.47,13H14.96a2.73921,2.73921,0,0,1,.04.5A3.50386,3.50386,0,0,1,11.5,17a3.40576,3.40576,0,0,1-1.5-.34l-.13.48a3.73837,3.73837,0,0,0,1.63.36,4.00533,4.00533,0,0,0,4-4A4.06547,4.06547,0,0,0,15.47,13Z" opacity=".07"/><path d="M19.5,20.5H15.64l-4.13-2.44a3.80871,3.80871,0,0,0-1.74-.54L9.63,18.01a3.4825,3.4825,0,0,1,1.63.48L15.5,21h4a1.5,1.5,0,0,1,0,3H15.32a1.97436,1.97436,0,0,1-.63-.1l-2.07-.69L10.88,28.4,9.11,42.13a.9942.9942,0,0,1-.99.87H9.23a1.49154,1.49154,0,0,0,.38-.81l1.76-13.68,1.57-4.67,1.59.53a2.4229,2.4229,0,0,0,.79.13H19.5a2,2,0,0,0,0-4Z" opacity=".07"/></svg>