<svg xmlns="http://www.w3.org/2000/svg" viewBox="0 0 48 48"><path fill="#0883d9" d="M40,35H22V14h18c1.105,0,2,0.895,2,2v17C42,34.105,41.105,35,40,35z"/><rect width="17" height="17" x="23" y="16" fill="#fff"/><path fill="#0883d9" d="M30.5,30L30.5,30c-3.038,0-5.5-2.462-5.5-5.5v0c0-3.038,2.462-5.5,5.5-5.5h0 c3.038,0,5.5,2.462,5.5,5.5v0C36,27.538,33.538,30,30.5,30z"/><rect width="6" height="21" x="22" y="14" opacity=".05"/><rect width="5.5" height="21" x="22" y="14" opacity=".07"/><path fill="#0883d9" d="M25.813,42.982l-20-3.827C5.341,39.065,5,38.653,5,38.172V9.828c0-0.48,0.341-0.892,0.813-0.982 l20-3.827C26.429,4.901,27,5.373,27,6V42C27,42.627,26.429,43.099,25.813,42.982z"/><path fill="#fff" d="M21.076,16.992l-4.592,14.017l-3.142-0.223l-3.885-12.97l2.736-0.194l2.488,9.174 c0.137,0.51,0.22,0.961,0.248,1.35l0.052,0.002c0.04-0.418,0.129-0.876,0.267-1.374l2.64-9.556L21.076,16.992z"/><path fill="#fff" d="M29,26.403v-3.807c0-0.468,0.486-0.753,0.86-0.505l2.875,1.903c0.352,0.233,0.352,0.777,0,1.01 l-2.875,1.903C29.486,27.156,29,26.871,29,26.403z"/></svg>