<svg xmlns="http://www.w3.org/2000/svg" viewBox="0 0 48 48"><linearGradient id="s8icSkdAEFGrH7MpFBT8_a" x1="38.815" x2="39.963" y1="-943.153" y2="-952.722" gradientTransform="rotate(180 24 -468)" gradientUnits="userSpaceOnUse"><stop offset="0" stop-color="#e36001"/><stop offset="1" stop-color="#ffb840"/></linearGradient><path fill="url(#s8icSkdAEFGrH7MpFBT8_a)" d="M15,6.985H6c-2.209,0-4,1.791-4,4v3c0,0.552,0.448,1,1,1h12V6.985z"/><linearGradient id="s8icSkdAEFGrH7MpFBT8_b" x1="28.84" x2="33.505" y1="-942.918" y2="-981.383" gradientTransform="rotate(180 24 -468)" gradientUnits="userSpaceOnUse"><stop offset="0" stop-color="#ffc563"/><stop offset=".221" stop-color="#ffbe52"/><stop offset=".656" stop-color="#ffaa27"/><stop offset="1" stop-color="#f90"/></linearGradient><path fill="url(#s8icSkdAEFGrH7MpFBT8_b)" d="M10,10.985v23c0,2.209,1.791,4,4,4h11c2.209,0,4-1.791,4-4v-23c0-2.209-1.791-4-4-4H6 C8.209,6.985,10,8.776,10,10.985z"/><linearGradient id="s8icSkdAEFGrH7MpFBT8_c" x1="22.618" x2="23.048" y1="-961.17" y2="-973.374" gradientTransform="rotate(180 24 -468)" gradientUnits="userSpaceOnUse"><stop offset="0" stop-color="#ffb840"/><stop offset="1" stop-color="#e36001"/></linearGradient><path fill="url(#s8icSkdAEFGrH7MpFBT8_c)" d="M18,33.985v-2c0-0.552,0.448-1,1-1h16c0.552,0,1,0.448,1,1v2c0,2.209-1.791,4-4,4H14 C16.209,37.985,18,36.194,18,33.985z"/><path fill="#eb6773" d="M33.093,10.197C33.031,10.517,33,10.842,33,11.169v8.652c0.077,2.256,1.439,4.266,3.5,5.164l0,0 c2.06-0.898,3.423-2.908,3.5-5.164v-8.652c0-0.308-0.028-0.615-0.083-0.918C39.634,8.696,33.389,8.663,33.093,10.197z"/><path fill="#e52030" d="M33,16.962v2.859c0.077,2.256,1.44,4.266,3.5,5.164l0,0v-5.007L33,16.962z"/><path fill="#e52030" d="M40,16.962v2.859c-0.077,2.256-1.44,4.266-3.5,5.164l0,0v-5.007L40,16.962z"/><path fill="#f09ca2" d="M37.132,6.352l-0.517-0.319c-0.071-0.044-0.16-0.044-0.231,0l-0.517,0.32 c-1.539,0.895-2.583,2.452-2.832,4.221l3.464,2.986l3.464-2.986C39.715,8.804,38.671,7.247,37.132,6.352z"/><path fill="#b31523" d="M36.5,27.985c-0.276,0-0.5-0.224-0.5-0.5v-17c0-0.276,0.224-0.5,0.5-0.5s0.5,0.224,0.5,0.5v17	C37,27.762,36.776,27.985,36.5,27.985z"/><linearGradient id="s8icSkdAEFGrH7MpFBT8_d" x1="35.501" x2="35.501" y1="27.126" y2="30.129" gradientUnits="userSpaceOnUse"><stop offset="0" stop-color="#32bdef"/><stop offset="1" stop-color="#1ea2e4"/></linearGradient><path fill="url(#s8icSkdAEFGrH7MpFBT8_d)" d="M39.997,27.785v3.2h-8.993v-3.2c0.001-0.441,0.367-0.799,0.818-0.8h7.358	c0.042-0.003,0.083,0.003,0.123,0.016C39.701,27.058,39.997,27.392,39.997,27.785z"/><linearGradient id="s8icSkdAEFGrH7MpFBT8_e" x1="35.497" x2="35.497" y1="27.322" y2="36.996" gradientUnits="userSpaceOnUse"><stop offset="0" stop-color="#32bdef"/><stop offset="1" stop-color="#1ea2e4"/></linearGradient><path fill="url(#s8icSkdAEFGrH7MpFBT8_e)" d="M43.837,36.455l-1.89,5.44c-0.23,0.65-0.84,1.09-1.53,1.09h-9.84c-0.69,0-1.3-0.44-1.53-1.09	l-1.89-5.44c-0.34-0.98-0.12-2.07,0.58-2.84l0.57-0.63l2.74-3h8.9l2.74,3l0.57,0.63C43.957,34.385,44.177,35.475,43.837,36.455z"/><linearGradient id="s8icSkdAEFGrH7MpFBT8_f" x1="32.768" x2="37.857" y1="43.51" y2="28.618" gradientUnits="userSpaceOnUse"><stop offset="0" stop-color="#9332bf"/><stop offset="1" stop-color="#912fbd"/></linearGradient><path fill="url(#s8icSkdAEFGrH7MpFBT8_f)" d="M43.837,36.455l-1.89,5.44c-0.23,0.65-0.84,1.09-1.53,1.09h-9.84c-0.69,0-1.3-0.44-1.53-1.09	l-1.89-5.44c-0.34-0.98-0.12-2.07,0.58-2.84l0.57-0.63h14.38l0.57,0.63C43.957,34.385,44.177,35.475,43.837,36.455z"/><rect width="1" height="6" x="36" y="26.985" fill="#199be2"/><path fill="#e52030" d="M15.5,13.215c0,0,0.784-0.875,1.75-0.875S19,13.134,19,14.09c0,0.592-0.583,1.167-0.583,1.167	l-2.621,2.622c-0.163,0.163-0.428,0.163-0.59,0l-2.621-2.622c0,0-0.583-0.574-0.583-1.167c0-0.956,0.783-1.75,1.75-1.75	S15.5,13.215,15.5,13.215z"/><path fill="#e88913" d="M22,12h4c0.552,0,1,0.448,1,1l0,0c0,0.552-0.448,1-1,1h-4c-0.552,0-1-0.448-1-1l0,0	C21,12.448,21.448,12,22,12z M22,16h4c0.552,0,1,0.448,1,1l0,0c0,0.552-0.448,1-1,1h-4c-0.552,0-1-0.448-1-1l0,0	C21,16.448,21.448,16,22,16z M13,20h13c0.552,0,1,0.448,1,1l0,0c0,0.552-0.448,1-1,1H13c-0.552,0-1-0.448-1-1l0,0	C12,20.448,12.448,20,13,20z M13,24h13c0.552,0,1,0.448,1,1l0,0c0,0.552-0.448,1-1,1H13c-0.552,0-1-0.448-1-1l0,0	C12,24.448,12.448,24,13,24z"/></svg>