<svg xmlns="http://www.w3.org/2000/svg" viewBox="0 0 48 48"><path fill="#cf1928" d="M32,44c-0.552,0-1-0.448-1-1c0-1.276-0.42-3.055-0.866-4.939C29.603,35.811,29,33.26,29,31	c0-2.176,1-4.928,2.06-7.842C32.014,20.536,33,17.824,33,16c0-2.012-0.546-4.048-1.073-6.018C31.45,8.204,31,6.524,31,5	c0-0.552,0.448-1,1-1s1,0.448,1,1c0,1.261,0.417,2.817,0.858,4.464C34.394,11.461,35,13.725,35,16c0,2.176-1,4.928-2.06,7.842	C31.986,26.464,31,29.176,31,31c0,2.027,0.549,4.352,1.081,6.601C32.553,39.602,33,41.491,33,43C33,43.552,32.552,44,32,44z"/><path fill="#cf1928" d="M16,44c-0.552,0-1-0.448-1-1c0-1.276-0.42-3.055-0.866-4.939C13.603,35.811,13,33.26,13,31	c0-2.176,1-4.928,2.06-7.842C16.014,20.536,17,17.824,17,16c0-2.012-0.546-4.048-1.073-6.018C15.45,8.204,15,6.524,15,5	c0-0.552,0.448-1,1-1s1,0.448,1,1c0,1.261,0.417,2.817,0.858,4.464C18.394,11.461,19,13.725,19,16c0,2.176-1,4.928-2.06,7.842	C15.986,26.464,15,29.176,15,31c0,2.027,0.549,4.352,1.081,6.601C16.553,39.602,17,41.491,17,43C17,43.552,16.552,44,16,44z"/><path fill="#cf1928" d="M23.379,40c-0.456,0-0.868-0.313-0.974-0.777l-0.271-1.161C21.603,35.812,21,33.261,21,31	c0-2.176,1-4.928,2.06-7.842C24.014,20.536,25,17.824,25,16c0-2.015-0.546-4.053-1.074-6.023l-0.192-0.722	c-0.141-0.534,0.178-1.081,0.712-1.222c0.538-0.142,1.081,0.178,1.222,0.712l0.19,0.714C26.393,11.457,27,13.722,27,16	c0,2.176-1,4.928-2.06,7.842C23.986,26.464,23,29.176,23,31c0,2.028,0.549,4.354,1.081,6.603l0.274,1.174	c0.124,0.538-0.213,1.075-0.751,1.198C23.528,39.992,23.454,40,23.379,40z"/><path fill="#cf1928" d="M39.379,40c-0.456,0-0.868-0.313-0.974-0.777l-0.271-1.161C37.603,35.812,37,33.261,37,31	c0-2.176,1-4.928,2.06-7.842C40.014,20.536,41,17.824,41,16c0-2.015-0.546-4.053-1.074-6.023l-0.192-0.722	c-0.141-0.534,0.178-1.081,0.712-1.222c0.536-0.142,1.081,0.178,1.222,0.712l0.19,0.714C42.393,11.457,43,13.722,43,16	c0,2.176-1,4.928-2.06,7.842C39.986,26.464,39,29.176,39,31c0,2.028,0.549,4.354,1.081,6.603l0.274,1.174	c0.124,0.538-0.213,1.075-0.751,1.198C39.528,39.992,39.454,40,39.379,40z"/><path fill="#cf1928" d="M7.379,40c-0.456,0-0.868-0.313-0.974-0.777l-0.271-1.161C5.603,35.812,5,33.261,5,31	c0-2.176,1-4.928,2.06-7.842C8.014,20.536,9,17.824,9,16c0-2.015-0.546-4.053-1.074-6.023L7.734,9.255	C7.593,8.721,7.912,8.174,8.446,8.033c0.537-0.142,1.082,0.178,1.222,0.712l0.19,0.714C10.393,11.457,11,13.722,11,16	c0,2.176-1,4.928-2.06,7.842C7.986,26.464,7,29.176,7,31c0,2.028,0.549,4.354,1.081,6.603l0.274,1.174	c0.124,0.538-0.213,1.075-0.751,1.198C7.528,39.992,7.454,40,7.379,40z"/></svg>