<svg xmlns="http://www.w3.org/2000/svg" viewBox="0 0 48 48"><path fill="#50e6ff" d="M37.228,42H10.772c-1.466,0-2.654-1.188-2.654-2.654V8.654C8.118,7.188,9.306,6,10.772,6h26.457	c1.466,0,2.654,1.188,2.654,2.654v30.692C39.882,40.812,38.694,42,37.228,42z"/><path fill="#057093" d="M33.5,16h-19c-0.276,0-0.5-0.224-0.5-0.5v-2c0-0.276,0.224-0.5,0.5-0.5h19c0.276,0,0.5,0.224,0.5,0.5	v2C34,15.776,33.776,16,33.5,16z"/><path fill="#057093" d="M33.5,22h-2c-0.276,0-0.5-0.224-0.5-0.5v-1c0-0.276,0.224-0.5,0.5-0.5h2c0.276,0,0.5,0.224,0.5,0.5v1	C34,21.776,33.776,22,33.5,22z"/><path fill="#057093" d="M25.5,22h-11c-0.276,0-0.5-0.224-0.5-0.5v-1c0-0.276,0.224-0.5,0.5-0.5h11c0.276,0,0.5,0.224,0.5,0.5	v1C26,21.776,25.776,22,25.5,22z"/><path fill="#057093" d="M33.5,26h-2c-0.276,0-0.5-0.224-0.5-0.5v-1c0-0.276,0.224-0.5,0.5-0.5h2c0.276,0,0.5,0.224,0.5,0.5v1	C34,25.776,33.776,26,33.5,26z"/><path fill="#057093" d="M22.5,26h-8c-0.276,0-0.5-0.224-0.5-0.5v-1c0-0.276,0.224-0.5,0.5-0.5h8c0.276,0,0.5,0.224,0.5,0.5v1	C23,25.776,22.776,26,22.5,26z"/><path fill="#057093" d="M33.5,30h-2c-0.276,0-0.5-0.224-0.5-0.5v-1c0-0.276,0.224-0.5,0.5-0.5h2c0.276,0,0.5,0.224,0.5,0.5v1	C34,29.776,33.776,30,33.5,30z"/><path fill="#057093" d="M25.5,30h-11c-0.276,0-0.5-0.224-0.5-0.5v-1c0-0.276,0.224-0.5,0.5-0.5h11c0.276,0,0.5,0.224,0.5,0.5	v1C26,29.776,25.776,30,25.5,30z"/><path fill="#057093" d="M33.5,34h-2c-0.276,0-0.5-0.224-0.5-0.5v-1c0-0.276,0.224-0.5,0.5-0.5h2c0.276,0,0.5,0.224,0.5,0.5v1	C34,33.776,33.776,34,33.5,34z"/><path fill="#057093" d="M22.5,34h-8c-0.276,0-0.5-0.224-0.5-0.5v-1c0-0.276,0.224-0.5,0.5-0.5h8c0.276,0,0.5,0.224,0.5,0.5v1	C23,33.776,22.776,34,22.5,34z"/><path fill="#64717c" d="M36,8h2v2c0,0.552,0.448,1,1,1l0,0c0.552,0,1-0.448,1-1V8c0-1.1-0.9-2-2-2h-2c-0.552,0-1,0.448-1,1	l0,0C35,7.552,35.448,8,36,8z"/><path fill="#64717c" d="M10,10V8h2c0.552,0,1-0.448,1-1l0,0c0-0.552-0.448-1-1-1h-2C8.9,6,8,6.9,8,8v2c0,0.552,0.448,1,1,1	l0,0C9.552,11,10,10.552,10,10z"/><path fill="#64717c" d="M38,38v2h-2c-0.552,0-1,0.448-1,1l0,0c0,0.552,0.448,1,1,1h2c1.1,0,2-0.9,2-2v-2c0-0.552-0.448-1-1-1	l0,0C38.448,37,38,37.448,38,38z"/><path fill="#64717c" d="M12,40h-2v-2c0-0.552-0.448-1-1-1l0,0c-0.552,0-1,0.448-1,1v2c0,1.1,0.9,2,2,2h2c0.552,0,1-0.448,1-1	l0,0C13,40.448,12.552,40,12,40z"/><circle cx="16" cy="7" r="1" fill="#64717c"/><circle cx="20" cy="7" r="1" fill="#64717c"/><circle cx="24" cy="7" r="1" fill="#64717c"/><circle cx="32" cy="7" r="1" fill="#64717c"/><circle cx="38" cy="7" r="1" fill="#64717c"/><circle cx="28" cy="7" r="1" fill="#64717c"/><circle cx="16" cy="41" r="1" fill="#64717c"/><circle cx="20" cy="41" r="1" fill="#64717c"/><circle cx="24" cy="41" r="1" fill="#64717c"/><circle cx="32" cy="41" r="1" fill="#64717c"/><circle cx="38" cy="41" r="1" fill="#64717c"/><circle cx="28" cy="41" r="1" fill="#64717c"/><circle cx="39" cy="14" r="1" fill="#64717c"/><circle cx="39" cy="18" r="1" fill="#64717c"/><circle cx="39" cy="22" r="1" fill="#64717c"/><circle cx="39" cy="30" r="1" fill="#64717c"/><circle cx="39" cy="34" r="1" fill="#64717c"/><circle cx="39" cy="26" r="1" fill="#64717c"/><circle cx="9" cy="14" r="1" fill="#64717c"/><circle cx="9" cy="18" r="1" fill="#64717c"/><circle cx="9" cy="22" r="1" fill="#64717c"/><circle cx="9" cy="30" r="1" fill="#64717c"/><circle cx="9" cy="34" r="1" fill="#64717c"/><circle cx="9" cy="26" r="1" fill="#64717c"/></svg>