<svg xmlns="http://www.w3.org/2000/svg" viewBox="0 0 48 48"><linearGradient id="KQJPDl~mD2hTKeiAERfGSa" x1="24" x2="24" y1="193.824" y2="226.929" gradientTransform="matrix(1 0 0 -1 0 254)" gradientUnits="userSpaceOnUse"><stop offset="0" stop-color="#899198"/><stop offset="1" stop-color="#787e85"/></linearGradient><path fill="url(#KQJPDl~mD2hTKeiAERfGSa)" d="M6,34v5c0,1.657,1.338,3,2.99,3h30.02c1.651,0,2.99-1.343,2.99-3v-5H6z"/><linearGradient id="KQJPDl~mD2hTKeiAERfGSb" x1="24" x2="24" y1="244.667" y2="208.929" gradientTransform="matrix(1 0 0 -1 0 254)" gradientUnits="userSpaceOnUse"><stop offset="0" stop-color="#c3cdd9"/><stop offset="1" stop-color="#9fa7b0"/></linearGradient><path fill="url(#KQJPDl~mD2hTKeiAERfGSb)" d="M42,34c-0.125,1.657-1.461,3-3.109,3H8.985C7.336,37,6,35.657,6,34V9c0-1.657,1.336-3,2.985-3	H38.89c1.648,0,2.984,1.343,3.109,3L42,34L42,34z"/><path fill="#575c61" d="M27.438,15.122v8.387h1.596v2.189h-1.596v2.728h-2.672v-2.728h-5.799v-2.292 c0.514-0.575,1.046-1.205,1.596-1.888c0.551-0.683,1.083-1.387,1.596-2.11c0.514-0.724,0.991-1.452,1.434-2.185 c0.442-0.733,0.818-1.434,1.127-2.102H27.438z M21.593,23.508h3.173V18.86c-0.217,0.402-0.451,0.809-0.705,1.22 c-0.254,0.411-0.52,0.816-0.798,1.215c-0.278,0.399-0.56,0.786-0.845,1.16C22.134,22.83,21.858,23.181,21.593,23.508z"/></svg>