<svg xmlns="http://www.w3.org/2000/svg" viewBox="0 0 48 48"><path fill="#727d86" d="M43,15H15c-1.1,0-2-0.9-2-2v-2c0-1.1,0.9-2,2-2h28c1.1,0,2,0.9,2,2v2C45,14.1,44.1,15,43,15z"/><linearGradient id="DgvvO1D59meuHJVbIADeZa" x1="3.477" x2="8.302" y1="9.477" y2="14.302" gradientUnits="userSpaceOnUse"><stop offset="0" stop-color="#c965eb"/><stop offset="1" stop-color="#c767e5"/></linearGradient><path fill="url(#DgvvO1D59meuHJVbIADeZa)" d="M7,15H5c-1.1,0-2-0.9-2-2v-2c0-1.1,0.9-2,2-2h2c1.1,0,2,0.9,2,2v2C9,14.1,8.1,15,7,15z"/><path fill="#727d86" d="M43,27H15c-1.1,0-2-0.9-2-2v-2c0-1.1,0.9-2,2-2h28c1.1,0,2,0.9,2,2v2C45,26.1,44.1,27,43,27z"/><linearGradient id="DgvvO1D59meuHJVbIADeZb" x1="3.477" x2="8.302" y1="21.477" y2="26.302" gradientUnits="userSpaceOnUse"><stop offset="0" stop-color="#c965eb"/><stop offset="1" stop-color="#c767e5"/></linearGradient><path fill="url(#DgvvO1D59meuHJVbIADeZb)" d="M7,27H5c-1.1,0-2-0.9-2-2v-2c0-1.1,0.9-2,2-2h2c1.1,0,2,0.9,2,2v2C9,26.1,8.1,27,7,27z"/><path fill="#727d86" d="M43,39H15c-1.1,0-2-0.9-2-2v-2c0-1.1,0.9-2,2-2h28c1.1,0,2,0.9,2,2v2C45,38.1,44.1,39,43,39z"/><linearGradient id="DgvvO1D59meuHJVbIADeZc" x1="3.477" x2="8.302" y1="33.477" y2="38.302" gradientUnits="userSpaceOnUse"><stop offset="0" stop-color="#c965eb"/><stop offset="1" stop-color="#c767e5"/></linearGradient><path fill="url(#DgvvO1D59meuHJVbIADeZc)" d="M7,39H5c-1.1,0-2-0.9-2-2v-2c0-1.1,0.9-2,2-2h2c1.1,0,2,0.9,2,2v2C9,38.1,8.1,39,7,39z"/></svg>