<svg xmlns="http://www.w3.org/2000/svg" xmlns:xlink="http://www.w3.org/1999/xlink" data-name="Слой 1" viewBox="0 0 48 48"><defs><linearGradient id="0Ap67xHD6CLlyaUSN76s1a" x1="26.009" x2="26.009" y1="49.891" y2="39.422" data-name="Безымянный градиент 160" gradientUnits="userSpaceOnUse"><stop offset="0" stop-color="#f09701"/><stop offset="1" stop-color="#e36001"/></linearGradient><linearGradient id="0Ap67xHD6CLlyaUSN76s1c" x1="19.5" x2="19.5" y1="49.891" y2="39.422" xlink:href="#0Ap67xHD6CLlyaUSN76s1a"/><linearGradient id="0Ap67xHD6CLlyaUSN76s1d" x1="25.5" x2="25.5" y1="4.761" y2="26.03" data-name="Безымянный градиент 118" gradientUnits="userSpaceOnUse"><stop offset="0" stop-color="#8521b0"/><stop offset="1" stop-color="#64129a"/></linearGradient><linearGradient id="0Ap67xHD6CLlyaUSN76s1e" x1="17.9" x2="17.9" y1="1.781" y2="5.697" xlink:href="#0Ap67xHD6CLlyaUSN76s1a"/><linearGradient id="0Ap67xHD6CLlyaUSN76s1b" x1="16.93" x2="16.93" y1="30" y2="1.424" data-name="Безымянный градиент 119" gradientUnits="userSpaceOnUse"><stop offset="0" stop-color="#912fbd"/><stop offset="1" stop-color="#9332bf"/></linearGradient><linearGradient id="0Ap67xHD6CLlyaUSN76s1f" x1="24.5" x2="24.5" y2="1.424" xlink:href="#0Ap67xHD6CLlyaUSN76s1b"/></defs><path fill="url(#0Ap67xHD6CLlyaUSN76s1a)" d="M27.86808,45.85a.48323.48323,0,0,1-.69995,0l-.65-.64-.65.64a.48323.48323,0,0,1-.69995,0,.48334.48334,0,0,1,0-.7l.81-.82-.84-4.38-1.11-5.81a1.50718,1.50718,0,0,1,2.96-.57c.01.1.02.19995.02.29v4.15l.01,6.28.85.86A.48334.48334,0,0,1,27.86808,45.85Z"/><path fill="url(#0Ap67xHD6CLlyaUSN76s1c)" d="M22,33.95v.1l-.26,2.44L21,43.53v.01a.52516.52516,0,0,1-.28.41l-2,1a.54506.54506,0,0,1-.22.05.50028.50028,0,0,1-.22-.95l.1-.05H17.5a.5.5,0,0,1,0-1H20V33.95a1,1,0,0,1,2,0Z"/><path fill="#bfc8d1" d="M22,33.95v.1l-.26,2.44A11.59563,11.59563,0,0,1,20,39V33.95a1,1,0,0,1,2,0Z"/><path fill="#bfc8d1" d="M27.0081,33.86v4.15a4.39078,4.39078,0,0,1-1.87,1.94l-1.11-5.81a1.50718,1.50718,0,0,1,2.96-.57C26.99809,33.67,27.0081,33.77,27.0081,33.86Z"/><path fill="url(#0Ap67xHD6CLlyaUSN76s1d)" d="M42,17.5,39,20l2-4a34.81361,34.81361,0,0,1-6.59991,5.75763A21.87067,21.87067,0,0,0,24.19,17.03,2.47088,2.47088,0,0,0,23.8,17a23.00092,23.00092,0,0,0-6.8.69,7.50593,7.50593,0,0,1,.94-2.97,13.34927,13.34927,0,0,1,2.73-3.2A26.30283,26.30283,0,0,1,23.03,9.64a2.23834,2.23834,0,0,0,.84-2.77L22.75,5a2.31915,2.31915,0,0,0-3-.6,31.19222,31.19222,0,0,0-3.14,2.05,19.68191,19.68191,0,0,0-4.52,4.43A14.62883,14.62883,0,0,0,10.41,13.94a17.968,17.968,0,0,0-.9,3.27.58534.58534,0,0,0-.02.13A47.12436,47.12436,0,0,0,9,23c0,2.97,4.9,9.86,13.74,11.94a1.01931,1.01931,0,0,0,.52-.01C30.06,33.13,34.89,29.76,38,25l4-5-3,2Z"/><path fill="url(#0Ap67xHD6CLlyaUSN76s1e)" d="M17,3V6.6l1.8-1.3A5.72686,5.72686,0,0,0,17,3Z"/><path fill="url(#0Ap67xHD6CLlyaUSN76s1b)" d="M10.25,19c.4,0,1-1,1-1s-.15,2.1.75,3l1.35-2L14,20l1.35-1A3.1058,3.1058,0,0,0,16,21c1.1-.5,2.35-3,2.35-3a38.68767,38.68767,0,0,1,2-4.4c1.5-2.4,4-3,4-5.5V7.6a3.7711,3.7711,0,0,0-1.4-2.5A3.339,3.339,0,0,0,20.85,4c-3.5,0-8.3,5.1-9.7,8.4a15.13011,15.13011,0,0,0-1.64,4.81A3.35764,3.35764,0,0,0,10.25,19Z"/><path fill="#fed100" d="M18.91975,12a1.86871,1.86871,0,0,1-1.35732-.58594,2.05883,2.05883,0,0,1,0-2.82812,17.20336,17.20336,0,0,1,2.45218-2.25A1.86421,1.86421,0,0,1,21.07947,6a1.89536,1.89536,0,0,1,1.59823.8916,2.05,2.05,0,0,1,.284,1.501,1.9931,1.9931,0,0,1-.81739,1.27148,14.643,14.643,0,0,0-1.86726,1.75A1.86871,1.86871,0,0,1,18.91975,12Z"/><path fill="#343434" d="M18.91975,11a.93756.93756,0,0,1-.67866-.293,1.02942,1.02942,0,0,1,0-1.41406A16.51322,16.51322,0,0,1,20.547,7.168a.93647.93647,0,0,1,1.33107.27734A1.02522,1.02522,0,0,1,21.6119,8.832a15.21562,15.21562,0,0,0-2.01349,1.875A.93756.93756,0,0,1,18.91975,11Z"/><path fill="url(#0Ap67xHD6CLlyaUSN76s1f)" d="M21,21a36.443,36.443,0,0,1,6,.8c2.7.6,5,1.5,5,1.9,0,.7-1.6,2.3-3.5,3.8s-5.8,3.5-7,3.5c-1.4,0-4.5-1.8-4.5-1.8l3-.9-1-1.8,2-.9-1-.9s2-1.4,2-1.8A8.15832,8.15832,0,0,0,21,21Z"/></svg>