<svg xmlns="http://www.w3.org/2000/svg" viewBox="0 0 48 48"><linearGradient id="NFkPO1ssIE1RnfQP35Imca" x1="3.128" x2="43.014" y1="12.507" y2="34.471" gradientTransform="rotate(.81 23.945 23.966)" gradientUnits="userSpaceOnUse"><stop offset=".155" stop-color="#b7bde4"/><stop offset="1" stop-color="#8d96d2"/></linearGradient><path fill="url(#NFkPO1ssIE1RnfQP35Imca)" d="M44.099,17.29l-2-0.029c-0.55-0.008-0.993-0.464-0.985-1.014	c0.008-0.55,0.464-0.993,1.014-0.985c0.05,0.011,0.449,0.056,0.754-0.249c0.315-0.315,0.27-0.716,0.261-0.756l0.029-1.98	c0.001-0.07-0.004-0.42-0.28-0.714c-0.177-0.183-0.426-0.296-0.706-0.3l-11.529-0.167l-4.47-0.065l-3.77-0.055L6.19,10.741	c-0.55-0.008-1.006,0.435-1.014,0.985l-0.028,1.96c-0.011,0.05-0.056,0.449,0.239,0.764c0.295,0.314,0.696,0.29,0.746,0.291	s0.1,0.001,0.14,0.012c0.1,0.011,0.189,0.043,0.279,0.084c0.03,0.02,0.069,0.041,0.099,0.061c0.03,0.02,0.069,0.041,0.099,0.071	c0.05,0.031,0.089,0.081,0.128,0.122c0.039,0.041,0.069,0.091,0.098,0.141c0.098,0.151,0.145,0.332,0.142,0.522	c-0.008,0.55-0.464,0.993-1.014,0.985l-2-0.029c-0.55-0.008-1.053,0.205-1.418,0.569c-0.091,0.079-0.183,0.177-0.254,0.286	c-0.225,0.317-0.35,0.705-0.356,1.115L1.93,28.681c-0.004,0.28,0.052,0.541,0.149,0.782c0.019,0.06,0.048,0.111,0.078,0.171	c0.204,0.393,0.54,0.708,0.947,0.894c0.248,0.114,0.517,0.178,0.797,0.182l2,0.029c0.28,0.004,0.518,0.118,0.706,0.3	c0.177,0.183,0.284,0.434,0.28,0.714c-0.008,0.55-0.464,0.993-1.014,0.985c-0.09-0.001-0.38,0.014-0.633,0.221	c-0.354,0.275-0.38,0.685-0.381,0.755l-0.029,2.01c-0.001,0.07,0.004,0.42,0.28,0.714c0.177,0.183,0.426,0.296,0.706,0.3l0.07,0.001	l35.926,0.52c0.55,0.008,1.006-0.435,1.014-0.985l0.03-2.08c0.001-0.05,0.016-0.4-0.25-0.674c-0.296-0.304-0.686-0.27-0.736-0.261	c-0.55-0.008-0.993-0.464-0.985-1.014s0.464-0.993,1.014-0.985l2,0.029c1.1,0.016,2.013-0.871,2.029-1.971l0.145-9.999	C46.086,18.219,45.199,17.306,44.099,17.29z M40.969,26.246c-0.008,0.55-0.464,0.993-1.014,0.985s-0.993-0.464-0.985-1.014l0.014-1	l-1.79-0.026c-0.14-0.002-0.261,0.046-0.362,0.145l-1.522,1.478c-0.193,0.187-0.513,0.183-0.7-0.01l-1.478-1.522	c-0.099-0.101-0.218-0.153-0.358-0.155l-1.79-0.026l-0.014,1c-0.008,0.55-0.464,0.993-1.014,0.985s-0.993-0.464-0.985-1.014l0.014-1	l-1.85-0.027c-0.2-0.003-0.372,0.115-0.464,0.303c-0.504,0.993-1.524,1.668-2.714,1.651c-1.19-0.017-2.19-0.722-2.665-1.729	c-0.087-0.191-0.255-0.314-0.455-0.317l-1.85-0.027l-0.014,1c-0.008,0.55-0.464,0.993-1.014,0.985	c-0.55-0.008-0.993-0.464-0.985-1.014l0.011-0.75l0.004-0.25l-1.79-0.026c-0.14-0.002-0.261,0.046-0.362,0.145l-1.522,1.478	c-0.193,0.187-0.513,0.183-0.7-0.01l-0.641-0.659l-0.838-0.862c-0.099-0.101-0.218-0.153-0.358-0.155l-1.79-0.026l-0.014,1	c-0.008,0.55-0.464,0.993-1.014,0.985c-0.26-0.004-0.488-0.107-0.666-0.26l0.01-0.01c-0.049-0.051-0.099-0.101-0.138-0.152	c-0.039-0.061-0.078-0.111-0.108-0.172c-0.058-0.121-0.086-0.271-0.084-0.421l0.058-4c0.008-0.55,0.464-0.993,1.014-0.985	s0.993,0.464,0.985,1.014l-0.014,1l1.79,0.026c0.14,0.002,0.261-0.046,0.362-0.145l1.522-1.478c0.071-0.069,0.162-0.108,0.262-0.116	c0.161-0.038,0.32,0.005,0.438,0.126l1.478,1.522c0.059,0.061,0.119,0.102,0.188,0.113l-0.041,0.039l0.21,0.003l1.79,0.026l0.014-1	c0.008-0.55,0.464-0.993,1.014-0.985s0.993,0.464,0.985,1.014l-0.014,1l0.28,0.004l1.57,0.023c0.2,0.003,0.372-0.115,0.464-0.303	c0.504-0.993,1.524-1.668,2.714-1.651c1.19,0.017,2.19,0.722,2.665,1.729c0.087,0.191,0.255,0.314,0.455,0.317l1.85,0.027l0.014-1	c0.008-0.55,0.464-0.993,1.014-0.985c0.55,0.008,0.993,0.464,0.985,1.014l-0.014,1l1.79,0.026c0.14,0.002,0.261-0.046,0.362-0.145	l1.522-1.478c0.193-0.187,0.513-0.183,0.7,0.01l1.478,1.522c0.099,0.101,0.218,0.153,0.358,0.155l1.79,0.026l0.014-1	c0.008-0.55,0.464-0.993,1.014-0.985c0.55,0.008,0.993,0.464,0.985,1.014L40.969,26.246z"/></svg>