<svg xmlns="http://www.w3.org/2000/svg" viewBox="0 0 48 48"><linearGradient id="y5ST~hZcxYgABdG1G_zFea" x1="21.231" x2="26.606" y1="8.444" y2="38.639" gradientUnits="userSpaceOnUse"><stop offset="0" stop-color="#0370c8"/><stop offset=".484" stop-color="#036fc5"/><stop offset=".775" stop-color="#036abd"/><stop offset="1" stop-color="#0362b0"/></linearGradient><path fill="url(#y5ST~hZcxYgABdG1G_zFea)" d="M7,9h34c1.105,0,2,0.895,2,2v26c0,1.105-0.895,2-2,2H7c-1.105,0-2-0.895-2-2V11	C5,9.895,5.895,9,7,9z"/><path d="M22,29c0-3.314-2.686-6-6-6s-6,2.686-6,6v3c0,1.105,0.895,2,2,2h8c1.105,0,2-0.895,2-2V29z" opacity=".05"/><path d="M16,23.5c-3.038,0-5.5,2.462-5.5,5.5c0,0.114,0,3,0,3c0,0.828,0.672,1.5,1.5,1.5h8	c0.828,0,1.5-0.672,1.5-1.5c0,0,0-2.897,0-3C21.5,25.962,19.038,23.5,16,23.5z" opacity=".07"/><path d="M36,21c-0.366,0-9.634,0-10,0c-1.105,0-2,0.895-2,2c0,1.105,0.895,2,2,2c0.366,0,9.634,0,10,0	c1.105,0,2-0.895,2-2C38,21.895,37.105,21,36,21z" opacity=".05"/><path d="M26,21.5c-0.828,0-1.5,0.672-1.5,1.5v0c0,0.828,0.672,1.5,1.5,1.5c0.183,0,9.817,0,10,0	c0.828,0,1.5-0.672,1.5-1.5v0c0-0.828-0.672-1.5-1.5-1.5C35.817,21.5,26.183,21.5,26,21.5z" opacity=".07"/><path d="M36,26c-0.366,0-9.634,0-10,0c-1.105,0-2,0.895-2,2c0,1.105,0.895,2,2,2c0.366,0,9.634,0,10,0	c1.105,0,2-0.895,2-2C38,26.895,37.105,26,36,26z" opacity=".05"/><path d="M26,26.5c-0.828,0-1.5,0.672-1.5,1.5v0c0,0.828,0.672,1.5,1.5,1.5c0.183,0,9.817,0,10,0	c0.828,0,1.5-0.672,1.5-1.5v0c0-0.828-0.672-1.5-1.5-1.5C35.817,26.5,26.183,26.5,26,26.5z" opacity=".07"/><radialGradient id="y5ST~hZcxYgABdG1G_zFeb" cx="16" cy="19" r="4" gradientUnits="userSpaceOnUse"><stop offset="0"/><stop offset=".009" stop-opacity=".991"/><stop offset="1" stop-opacity="0"/></radialGradient><circle cx="16" cy="19" r="4" fill="url(#y5ST~hZcxYgABdG1G_zFeb)"/><linearGradient id="y5ST~hZcxYgABdG1G_zFec" x1="23.289" x2="24.843" y1="5.034" y2="13.704" gradientUnits="userSpaceOnUse"><stop offset="0" stop-color="#75daff"/><stop offset="1" stop-color="#1ea2e4"/></linearGradient><path fill="url(#y5ST~hZcxYgABdG1G_zFec)" d="M27,5h-6c-0.552,0-1,0.448-1,1v6c0,0.552,0.448,1,1,1h6c0.552,0,1-0.448,1-1V6	C28,5.448,27.552,5,27,5z M24,11c-0.552,0-1-0.448-1-1c0-0.552,0.448-1,1-1s1,0.448,1,1C25,10.552,24.552,11,24,11z"/><linearGradient id="y5ST~hZcxYgABdG1G_zFed" x1="13.594" x2="16.499" y1="16.42" y2="33.212" gradientUnits="userSpaceOnUse"><stop offset="0" stop-color="#75daff"/><stop offset="1" stop-color="#1ea2e4"/></linearGradient><path fill="url(#y5ST~hZcxYgABdG1G_zFed)" d="M13,19c0-1.657,1.343-3,3-3s3,1.343,3,3c0,1.657-1.343,3-3,3S13,20.657,13,19z M16,24	c-2.761,0-5,2.239-5,5v3c0,0.552,0.448,1,1,1h8c0.552,0,1-0.448,1-1v-3C21,26.239,18.761,24,16,24z"/><path fill="#75daff" d="M36,27H26c-0.552,0-1,0.448-1,1v0c0,0.552,0.448,1,1,1h10c0.552,0,1-0.448,1-1v0	C37,27.448,36.552,27,36,27z"/><path fill="#75daff" d="M36,22H26c-0.552,0-1,0.448-1,1v0c0,0.552,0.448,1,1,1h10c0.552,0,1-0.448,1-1v0	C37,22.448,36.552,22,36,22z"/></svg>