<svg xmlns="http://www.w3.org/2000/svg" viewBox="0 0 48 48"><linearGradient id="N4kRjXF7WPuqNA_iaj_SKa" x1="23.5" x2="23.5" y1="20.038" y2="1.118" gradientUnits="userSpaceOnUse"><stop offset="0" stop-color="#ad3f16"/><stop offset=".492" stop-color="#b85515"/><stop offset="1" stop-color="#c26715"/></linearGradient><path fill="url(#N4kRjXF7WPuqNA_iaj_SKa)" d="M39,25c0-5.407-3-9-8-11c-2-1-2.654-5.883,1.543-7.08L24,6.985L14.457,6.92 C18.654,8.117,18,13,16,14c-5,2-8,5.593-8,11c0,3.292,1.538,6.499,3.938,9.017c1.66,2.564,3.492,4.854,3.953,8.301 C16.021,43.291,16.882,44,17.864,44H24h5.136c0.981,0,1.843-0.709,1.973-1.682c0.46-3.448,2.292-5.737,3.953-8.301 C37.462,31.499,39,28.292,39,25z"/><path fill="#d6742d" d="M32,7H15c-1.105,0-2-0.895-2-2v0c0-1.105,0.895-2,2-2h17c1.105,0,2,0.895,2,2v0 C34,6.105,33.105,7,32,7z"/><linearGradient id="N4kRjXF7WPuqNA_iaj_SKb" x1="1900.616" x2="1900.617" y1="-824.188" y2="-824.188" gradientTransform="scale(-1 1) rotate(80.683 446.614 -1527.931)" gradientUnits="userSpaceOnUse"><stop offset="0" stop-color="#ffc430"/><stop offset=".57" stop-color="#f8bd29"/><stop offset="1" stop-color="#f0b421"/></linearGradient><polygon fill="url(#N4kRjXF7WPuqNA_iaj_SKb)" points="12.416,20.82 12.415,20.821 12.404,20.818"/><linearGradient id="N4kRjXF7WPuqNA_iaj_SKc" x1="1785.186" x2="1789.907" y1="-1213.851" y2="-1209.195" gradientTransform="matrix(0 1 1 0 1224.568 -1762.334)" gradientUnits="userSpaceOnUse"><stop offset=".157" stop-color="#ffc430"/><stop offset=".296" stop-color="#f8bd2d"/><stop offset=".499" stop-color="#e5aa23"/><stop offset=".741" stop-color="#c58a14"/><stop offset="1" stop-color="#9c6000"/></linearGradient><path fill="url(#N4kRjXF7WPuqNA_iaj_SKc)" d="M14.178,23.256c-0.586,1.303-2.622,2.722,0.492,3.383l-8.118,0 c0.062-0.07,0.121-0.141,0.187-0.207l7.244-7.244c0,0,0.64-0.374,1.36,0.346C16.357,20.546,15.71,22.556,14.178,23.256z"/><linearGradient id="N4kRjXF7WPuqNA_iaj_SKd" x1="1791.984" x2="1805.911" y1="-1205.409" y2="-1219.872" gradientTransform="matrix(0 1 1 0 1224.568 -1762.334)" gradientUnits="userSpaceOnUse"><stop offset="0" stop-color="#ffc430"/><stop offset=".41" stop-color="#fec130"/><stop offset=".72" stop-color="#fcb730"/><stop offset=".998" stop-color="#f7a72f"/><stop offset="1" stop-color="#f7a72f"/></linearGradient><path fill="url(#N4kRjXF7WPuqNA_iaj_SKd)" d="M11.323,39.92h2.932c0.573,0,1.5,0,2.57,0h1.455l0,0c2.432,0,4.953,0,5.155,0 c0.668,0,1.208-0.54,1.208-1.208c-0.001-0.667-0.541-1.207-1.208-1.208c-0.195,0-2.574,0-4.936,0l0.055-0.604 c2.761,0,7.842,0,8.202,0c0.833,0,1.509-0.676,1.509-1.509c0-0.833-0.676-1.509-1.509-1.509h-7.929l0.055-0.604 c2.684,0,8.106,0,8.478,0c0.833,0,1.509-0.676,1.509-1.509c0-0.833-0.676-1.509-1.509-1.509h-8.205l0.055-0.604h6.252 c0.79-0.001,1.509-0.569,1.587-1.354c0.091-0.904-0.616-1.665-1.501-1.665c-0.143,0-18.997,0-18.997,0 c-0.785,0.882-1.227,2.02-1.227,3.208l0,4.074C5.325,37.234,8.011,39.92,11.323,39.92z"/><circle cx="25.55" cy="28.147" r=".906" fill="#fff0c9"/><circle cx="27.361" cy="31.77" r=".906" fill="#fff0c9"/><circle cx="26.757" cy="35.392" r=".906" fill="#fff0c9"/><circle cx="23.437" cy="38.713" r=".604" fill="#fff0c9"/></svg>