<svg xmlns="http://www.w3.org/2000/svg" viewBox="0 0 48 48"><path fill="#35c1f1" d="M28,44h-8c-0.552,0-1-0.448-1-1v-9h10v9C29,43.552,28.552,44,28,44z"/><path fill="#50e6ff" d="M33,12.572C33,7.838,28.97,4,23.999,4l0,0c-4.971,0-9,3.838-9,8.572v6.855	c0,4.734,4.029,8.572,9,8.572l0,0C28.97,28,33,24.162,33,19.428V12.572z"/><linearGradient id="hvlq4Urb2JZSEvRcoiw0Ca" x1="16" x2="32" y1="24" y2="24" gradientUnits="userSpaceOnUse"><stop offset="0" stop-color="#3079d6"/><stop offset="1" stop-color="#297cd2"/></linearGradient><path fill="url(#hvlq4Urb2JZSEvRcoiw0Ca)" d="M19,25v-1c0-0.553-0.447-1-1-1h-1c-0.553,0-1,0.447-1,1v1H19z M32,25v-1c0-0.553-0.447-1-1-1	h-1c-0.553,0-1,0.447-1,1v1H32z"/><path fill="#35c1f1" d="M29.251,19.273c0,2.812-2.352,5.091-5.251,5.091l0,0c-2.899,0-5.251-2.279-5.251-5.091v-6.909	c0-2.812,2.352-5.091,5.251-5.091l0,0c2.899,0,5.251,2.279,5.251,5.091V19.273z"/><path fill="#50e6ff" d="M34,26v1c0,5.523-4.477,10-10,10h0c-5.523,0-10-4.477-10-10v-1"/><path fill="#35c1f1" d="M34,26v2H14v-2c0-0.552,0.448-1,1-1h18C33.552,25,34,25.448,34,26z"/></svg>