<svg xmlns="http://www.w3.org/2000/svg" xmlns:xlink="http://www.w3.org/1999/xlink" data-name="Слой 1" viewBox="0 0 48 48"><defs><linearGradient id="2v4FBqNleL2Go6k5pnjzCa" x1="18.865" x2="29.135" y1="14.391" y2="42.609" data-name="Безымянный градиент 17" gradientUnits="userSpaceOnUse"><stop offset="0" stop-color="#a1aab3"/><stop offset="1" stop-color="#8f979e"/></linearGradient><linearGradient id="2v4FBqNleL2Go6k5pnjzCb" x1="24" x2="24" y1="8.576" y2="11.755" xlink:href="#2v4FBqNleL2Go6k5pnjzCa"/><linearGradient id="2v4FBqNleL2Go6k5pnjzCc" x1="10.045" x2="27.819" y1="-2.973" y2="45.86" data-name="Безымянный градиент 121" gradientUnits="userSpaceOnUse"><stop offset="0" stop-color="#f44f5a"/><stop offset=".443" stop-color="#ee3d4a"/><stop offset="1" stop-color="#e52030"/></linearGradient><linearGradient id="2v4FBqNleL2Go6k5pnjzCd" x1="20.311" x2="22.59" y1=".79" y2="13.711" data-name="Безымянный градиент 36" gradientUnits="userSpaceOnUse"><stop offset="0" stop-color="#2aa4f4"/><stop offset="1" stop-color="#007ad9"/></linearGradient><linearGradient id="2v4FBqNleL2Go6k5pnjzCe" x1="21.151" x2="23.792" y1="3.462" y2="10.719" data-name="Безымянный градиент 35" gradientUnits="userSpaceOnUse"><stop offset="0" stop-color="#a3ffff"/><stop offset=".223" stop-color="#9dfbff"/><stop offset=".53" stop-color="#8bf1ff"/><stop offset=".885" stop-color="#6ee0ff"/><stop offset="1" stop-color="#63daff"/></linearGradient></defs><rect width="4" height="30.5" x="22" y="13.25" fill="url(#2v4FBqNleL2Go6k5pnjzCa)"/><path d="M22,23.92v1.13l2,1.05,2-1.05V23.92l-2,1.05Zm2-5.41L22,19.65V20.8l2-1.14,2,1.14V19.65ZM22,34.83v1.1l2,.89,2-.89v-1.1l-2,.89Zm2-6.48L22,29.4v1.13l2-1.05,2,1.05V29.4Zm-2-4.43v1.13l2,1.05,2-1.05V23.92l-2,1.05Zm2-5.41L22,19.65V20.8l2-1.14,2,1.14V19.65ZM22,34.83v1.1l2,.89,2-.89v-1.1l-2,.89Zm2-6.48L22,29.4v1.13l2-1.05,2,1.05V29.4Zm-2-4.43v1.13l2,1.05,2-1.05V23.92l-2,1.05Zm2-5.41L22,19.65V20.8l2-1.14,2,1.14V19.65ZM22,34.83v1.1l2,.89,2-.89v-1.1l-2,.89Zm2-6.48L22,29.4v1.13l2-1.05,2,1.05V29.4ZM22,39.9V41l2-.89L26,41V39.9L24,39.01Zm2-24.85-2-1.14v1.15l2,1.15,2-1.15V13.91Z" opacity=".05"/><path d="M22,24.48v.57l2,1.05,2-1.05v-.57l-2,1.05Zm2-5.97L22,19.65v.57l2-1.14,2,1.14v-.57ZM22,35.38v.55l2,.89,2-.89v-.55l-2,.89Zm2-7.03L22,29.4v.57l2-1.05,2,1.05V29.4Zm-2-3.87v.57l2,1.05,2-1.05v-.57l-2,1.05Zm2-5.97L22,19.65v.57l2-1.14,2,1.14v-.57ZM22,35.38v.55l2,.89,2-.89v-.55l-2,.89Zm2-7.03L22,29.4v.57l2-1.05,2,1.05V29.4Zm-2-3.87v.57l2,1.05,2-1.05v-.57l-2,1.05Zm2-5.97L22,19.65v.57l2-1.14,2,1.14v-.57ZM22,35.38v.55l2,.89,2-.89v-.55l-2,.89Zm2-7.03L22,29.4v.57l2-1.05,2,1.05V29.4ZM22,39.9v.55l2-.89,2,.89V39.9L24,39.01Zm2-24.27-2-1.14v.57l2,1.15,2-1.15v-.57Z" opacity=".07"/><path fill="url(#2v4FBqNleL2Go6k5pnjzCb)" d="M23,9h2a2,2,0,0,1,2,2v2a0,0,0,0,1,0,0H21a0,0,0,0,1,0,0V11A2,2,0,0,1,23,9Z"/><path fill="url(#2v4FBqNleL2Go6k5pnjzCc)" d="M37.97949,43.25293l-5-30A1.4996,1.4996,0,0,0,31.5,12h-15a1.49961,1.49961,0,0,0-1.47949,1.25293l-5,30A1.49977,1.49977,0,0,0,11.5,45h25a1.49977,1.49977,0,0,0,1.47949-1.74707ZM17.77051,15h.08911l4.12506,2.35712-5.092,2.90966ZM32.71094,32.92773,24,36.8197l-8.71094-3.892L24,28.35461ZM17.08008,22.46289,24,18.50873l6.91992,3.95416L24,26.09558Zm9.07147,4.76221L31.775,24.27289l1.07843,6.47046ZM30.22949,15l.87781,5.26678-5.092-2.90966L30.14038,15ZM24,16.20551,21.89038,15h4.21924Zm-7.775,8.06738,5.62341,2.95221-6.70184,3.51825ZM14.47791,34.7558,21.54846,37.915,13.34009,41.5824ZM24,39.01038,30.6911,42H17.3089Zm2.45154-1.0954,7.07055-3.15918,1.13782,6.8266Z"/><rect width="6" height="1" x="21" y="11" opacity=".05"/><rect width="6" height=".5" x="21" y="11.5" opacity=".07"/><path fill="url(#2v4FBqNleL2Go6k5pnjzCd)" d="M27,6a2.8884,2.8884,0,0,0-3-3H15.66425a.67061.67061,0,0,0-.45378,1.15807C18,7,21,9,24,9A2.92109,2.92109,0,0,0,27,6Z"/><path fill="url(#2v4FBqNleL2Go6k5pnjzCe)" d="M25.00071,6.49929A1.4449,1.4449,0,0,0,23.5,4.99857H19.33014a.33547.33547,0,0,0-.227.57931C20.49857,6.99953,21.99928,8,23.5,8A1.46124,1.46124,0,0,0,25.00071,6.49929Z"/></svg>