<svg xmlns="http://www.w3.org/2000/svg" viewBox="0 0 48 48"><linearGradient id="ty2wJAEubWd3tVqt3etGYa" x1="21.713" x2="26.281" y1="8.877" y2="39.085" gradientUnits="userSpaceOnUse"><stop offset="0" stop-color="#0370c8"/><stop offset=".484" stop-color="#036fc5"/><stop offset=".775" stop-color="#036abd"/><stop offset="1" stop-color="#0362b0"/></linearGradient><path fill="url(#ty2wJAEubWd3tVqt3etGYa)" d="M41,39H7c-1.105,0-2-0.895-2-2V11c0-1.105,0.895-2,2-2h34c1.105,0,2,0.895,2,2v26	C43,38.105,42.105,39,41,39z"/><path d="M32.709,21.291C32.709,21.291,32.709,21.291,32.709,21.291c-1.026-1.026-2.488-1.248-3.267-1.289	c-0.393-0.015-0.768,0.126-1.042,0.399s-0.419,0.653-0.398,1.041c0.042,0.78,0.264,2.242,1.289,3.267	c1.027,1.026,2.488,1.248,3.267,1.289C32.582,25.999,32.606,26,32.63,26c0.362,0,0.712-0.145,0.969-0.401	c0.274-0.273,0.419-0.653,0.398-1.041C33.957,23.777,33.734,22.315,32.709,21.291z" opacity=".05"/><path d="M32.355,21.645c-0.908-0.908-2.231-1.105-2.94-1.143c-0.251-0.018-0.488,0.079-0.662,0.253	s-0.266,0.415-0.253,0.661c0.038,0.709,0.236,2.033,1.144,2.939c0.909,0.908,2.232,1.105,2.94,1.143	C32.6,25.499,32.615,25.5,32.63,25.5c0.23,0,0.453-0.092,0.616-0.255c0.174-0.174,0.266-0.415,0.253-0.661	C33.461,23.875,33.263,22.551,32.355,21.645z" opacity=".07"/><path d="M24,25c-4.418,0-8,3.582-8,8v1c0,1.105,0.895,2,2,2h12	c1.105,0,2-0.895,2-2v-1C32,28.582,28.418,25,24,25z" opacity=".05"/><path d="M24,25.5c-4.142,0-7.5,3.358-7.5,7.5v0.8c0,0.939,0.761,1.7,1.7,1.7h11.6	c0.939,0,1.7-0.761,1.7-1.7V33C31.5,28.858,28.142,25.5,24,25.5z" opacity=".07"/><radialGradient id="ty2wJAEubWd3tVqt3etGYb" cx="24" cy="-38" r="5" gradientTransform="matrix(1 0 0 -1 0 -18)" gradientUnits="userSpaceOnUse"><stop offset="0"/><stop offset="1" stop-opacity="0"/></radialGradient><circle cx="24" cy="20" r="5" fill="url(#ty2wJAEubWd3tVqt3etGYb)"/><linearGradient id="ty2wJAEubWd3tVqt3etGYc" x1="23.289" x2="24.843" y1="-23.034" y2="-31.704" gradientTransform="matrix(1 0 0 -1 0 -18)" gradientUnits="userSpaceOnUse"><stop offset="0" stop-color="#75daff"/><stop offset="1" stop-color="#1ea2e4"/></linearGradient><path fill="url(#ty2wJAEubWd3tVqt3etGYc)" d="M27,5h-6c-0.552,0-1,0.448-1,1v6c0,0.552,0.448,1,1,1h6c0.552,0,1-0.448,1-1V6	C28,5.448,27.552,5,27,5z M24,11c-0.552,0-1-0.448-1-1s0.448-1,1-1s1,0.448,1,1S24.552,11,24,11z"/><linearGradient id="ty2wJAEubWd3tVqt3etGYd" x1="22.777" x2="26.058" y1="-34.207" y2="-53.172" gradientTransform="matrix(1 0 0 -1 0 -18)" gradientUnits="userSpaceOnUse"><stop offset="0" stop-color="#75daff"/><stop offset="1" stop-color="#1ea2e4"/></linearGradient><path fill="url(#ty2wJAEubWd3tVqt3etGYd)" d="M20,20c0-2.209,1.791-4,4-4s4,1.791,4,4s-1.791,4-4,4S20,22.209,20,20z M24,26	c-3.866,0-7,3.134-7,7v0.6c0,0.773,0.627,1.4,1.4,1.4h11.2c0.773,0,1.4-0.627,1.4-1.4V33C31,29.134,27.866,26,24,26z M32.002,21.998	c-0.794-0.794-1.997-0.965-2.613-0.997c-0.221-0.012-0.4,0.168-0.389,0.389c0.033,0.616,0.203,1.818,0.997,2.613	s1.997,0.965,2.613,0.997c0.221,0.012,0.4-0.168,0.389-0.389C32.967,23.995,32.796,22.792,32.002,21.998z"/></svg>