<svg xmlns="http://www.w3.org/2000/svg" viewBox="0 0 48 48"><linearGradient id="U7BGsV~AtUTqiuHYd7X8Ma" x1="11" x2="11" y1="5.723" y2="15.488" gradientUnits="userSpaceOnUse"><stop offset="0" stop-color="#32bdef"/><stop offset="1" stop-color="#1ea2e4"/></linearGradient><path fill="url(#U7BGsV~AtUTqiuHYd7X8Ma)" d="M14.75,16h-7.5C6.563,16,6,15.438,6,14.75v-7.5C6,6.563,6.563,6,7.25,6h7.5	C15.438,6,16,6.563,16,7.25v7.5C16,15.438,15.438,16,14.75,16z"/><linearGradient id="U7BGsV~AtUTqiuHYd7X8Mb" x1="24" x2="24" y1="5.723" y2="15.488" gradientUnits="userSpaceOnUse"><stop offset="0" stop-color="#32bdef"/><stop offset="1" stop-color="#1ea2e4"/></linearGradient><path fill="url(#U7BGsV~AtUTqiuHYd7X8Mb)" d="M27.75,16h-7.5C19.563,16,19,15.438,19,14.75v-7.5C19,6.563,19.563,6,20.25,6h7.5	C28.438,6,29,6.563,29,7.25v7.5C29,15.438,28.438,16,27.75,16z"/><linearGradient id="U7BGsV~AtUTqiuHYd7X8Mc" x1="37" x2="37" y1="5.723" y2="15.488" gradientUnits="userSpaceOnUse"><stop offset="0" stop-color="#32bdef"/><stop offset="1" stop-color="#1ea2e4"/></linearGradient><path fill="url(#U7BGsV~AtUTqiuHYd7X8Mc)" d="M40.75,16h-7.5C32.563,16,32,15.438,32,14.75v-7.5C32,6.563,32.563,6,33.25,6h7.5	C41.438,6,42,6.563,42,7.25v7.5C42,15.438,41.438,16,40.75,16z"/><linearGradient id="U7BGsV~AtUTqiuHYd7X8Md" x1="11" x2="11" y1="18.745" y2="28.108" gradientUnits="userSpaceOnUse"><stop offset="0" stop-color="#32bdef"/><stop offset="1" stop-color="#1ea2e4"/></linearGradient><path fill="url(#U7BGsV~AtUTqiuHYd7X8Md)" d="M14.75,29h-7.5C6.563,29,6,28.438,6,27.75v-7.5C6,19.563,6.563,19,7.25,19h7.5	c0.688,0,1.25,0.563,1.25,1.25v7.5C16,28.438,15.438,29,14.75,29z"/><linearGradient id="U7BGsV~AtUTqiuHYd7X8Me" x1="24" x2="24" y1="18.745" y2="28.108" gradientUnits="userSpaceOnUse"><stop offset="0" stop-color="#32bdef"/><stop offset="1" stop-color="#1ea2e4"/></linearGradient><path fill="url(#U7BGsV~AtUTqiuHYd7X8Me)" d="M27.75,29h-7.5C19.563,29,19,28.438,19,27.75v-7.5c0-0.688,0.563-1.25,1.25-1.25h7.5	c0.688,0,1.25,0.563,1.25,1.25v7.5C29,28.438,28.438,29,27.75,29z"/><linearGradient id="U7BGsV~AtUTqiuHYd7X8Mf" x1="37" x2="37" y1="18.745" y2="28.108" gradientUnits="userSpaceOnUse"><stop offset="0" stop-color="#32bdef"/><stop offset="1" stop-color="#1ea2e4"/></linearGradient><path fill="url(#U7BGsV~AtUTqiuHYd7X8Mf)" d="M40.75,29h-7.5C32.563,29,32,28.438,32,27.75v-7.5c0-0.688,0.563-1.25,1.25-1.25h7.5	c0.688,0,1.25,0.563,1.25,1.25v7.5C42,28.438,41.438,29,40.75,29z"/><linearGradient id="U7BGsV~AtUTqiuHYd7X8Mg" x1="11" x2="11" y1="32.362" y2="41.385" gradientUnits="userSpaceOnUse"><stop offset="0" stop-color="#32bdef"/><stop offset="1" stop-color="#1ea2e4"/></linearGradient><path fill="url(#U7BGsV~AtUTqiuHYd7X8Mg)" d="M14.75,42h-7.5C6.563,42,6,41.438,6,40.75v-7.5C6,32.563,6.563,32,7.25,32h7.5	c0.688,0,1.25,0.563,1.25,1.25v7.5C16,41.438,15.438,42,14.75,42z"/><linearGradient id="U7BGsV~AtUTqiuHYd7X8Mh" x1="24" x2="24" y1="32.362" y2="41.385" gradientUnits="userSpaceOnUse"><stop offset="0" stop-color="#32bdef"/><stop offset="1" stop-color="#1ea2e4"/></linearGradient><path fill="url(#U7BGsV~AtUTqiuHYd7X8Mh)" d="M27.75,42h-7.5C19.563,42,19,41.438,19,40.75v-7.5c0-0.688,0.563-1.25,1.25-1.25h7.5	c0.688,0,1.25,0.563,1.25,1.25v7.5C29,41.438,28.438,42,27.75,42z"/><linearGradient id="U7BGsV~AtUTqiuHYd7X8Mi" x1="37" x2="37" y1="32.362" y2="41.385" gradientUnits="userSpaceOnUse"><stop offset="0" stop-color="#32bdef"/><stop offset="1" stop-color="#1ea2e4"/></linearGradient><path fill="url(#U7BGsV~AtUTqiuHYd7X8Mi)" d="M40.75,42h-7.5C32.563,42,32,41.438,32,40.75v-7.5c0-0.688,0.563-1.25,1.25-1.25h7.5	c0.688,0,1.25,0.563,1.25,1.25v7.5C42,41.438,41.438,42,40.75,42z"/></svg>