<svg xmlns="http://www.w3.org/2000/svg" viewBox="0 0 48 48"><linearGradient id="I1zzAMqpSX58ad6FP2yeda" x1="3.671" x2="18.492" y1="-2.406" y2="12.414" gradientUnits="userSpaceOnUse"><stop offset="0" stop-color="#889097"/><stop offset="1" stop-color="#4c5963"/></linearGradient><path fill="url(#I1zzAMqpSX58ad6FP2yeda)" d="M13,11h9v0c0-2.892-2.076-5.366-4.924-5.869L5,3v0C5,7.418,8.582,11,13,11z"/><linearGradient id="I1zzAMqpSX58ad6FP2yedb" x1="43.344" x2="29.531" y1="-1.421" y2="12.391" gradientUnits="userSpaceOnUse"><stop offset="0" stop-color="#889097"/><stop offset="1" stop-color="#4c5963"/></linearGradient><path fill="url(#I1zzAMqpSX58ad6FP2yedb)" d="M35,11h-9v0c0-2.892,2.076-5.366,4.924-5.869L43,3v0C43,7.418,39.418,11,35,11z"/><linearGradient id="I1zzAMqpSX58ad6FP2yedc" x1="24" x2="24" y1="-1.323" y2="54.371" gradientUnits="userSpaceOnUse"><stop offset="0" stop-color="#889097"/><stop offset="1" stop-color="#4c5963"/></linearGradient><path fill="url(#I1zzAMqpSX58ad6FP2yedc)" d="M38,24.5C38,17.044,31.732,6,24,6S10,17.044,10,24.5S16.268,38,24,38S38,31.956,38,24.5z"/><linearGradient id="I1zzAMqpSX58ad6FP2yedd" x1="23.999" x2="23.999" y1="27.823" y2="48.768" gradientUnits="userSpaceOnUse"><stop offset="0" stop-color="#afb6bc"/><stop offset=".925" stop-color="#9aa0a5"/></linearGradient><path fill="url(#I1zzAMqpSX58ad6FP2yedd)" d="M32.368,34.621l-1.993-3.132C28.994,29.319,26.571,28,23.965,28h0	c-2.568,0-4.96,1.28-6.352,3.399l-1.951,2.97c-0.642,0.977-0.829,2.176-0.514,3.297l1.051,3.741	c0.336,1.196,1.207,2.176,2.368,2.665l3.797,1.598c1.045,0.44,2.228,0.44,3.273,0l3.818-1.607c1.149-0.483,2.015-1.449,2.358-2.629	l1.027-3.53C33.163,36.793,32.992,35.6,32.368,34.621z"/><path fill="#cdd2d6" d="M24,34L24,34c-2.1,0-3.704-1.876-3.376-3.951l2.22-14.061C22.934,15.419,23.424,15,24,15h0	c0.576,0,1.066,0.419,1.156,0.988l2.22,14.061C27.704,32.124,26.1,34,24,34z"/><linearGradient id="I1zzAMqpSX58ad6FP2yede" x1="32.5" x2="32.5" y1="16.235" y2="24.119" gradientUnits="userSpaceOnUse"><stop offset="0" stop-color="#6d7479"/><stop offset=".425" stop-color="#565c60"/><stop offset="1" stop-color="#323538"/></linearGradient><path fill="url(#I1zzAMqpSX58ad6FP2yede)" d="M33,27h-1.5c-0.276,0-0.5-0.224-0.5-0.5v-0.023C31,25.109,32.109,24,33.477,24H33.5	c0.276,0,0.5,0.224,0.5,0.5V26C34,26.552,33.552,27,33,27z"/><linearGradient id="I1zzAMqpSX58ad6FP2yedf" x1="15.5" x2="15.5" y1="16.235" y2="24.119" gradientUnits="userSpaceOnUse"><stop offset="0" stop-color="#6d7479"/><stop offset=".425" stop-color="#565c60"/><stop offset="1" stop-color="#323538"/></linearGradient><path fill="url(#I1zzAMqpSX58ad6FP2yedf)" d="M15,27h1.5c0.276,0,0.5-0.224,0.5-0.5v-0.023C17,25.109,15.891,24,14.523,24H14.5	c-0.276,0-0.5,0.224-0.5,0.5V26C14,26.552,14.448,27,15,27z"/><linearGradient id="I1zzAMqpSX58ad6FP2yedg" x1="19.5" x2="19.5" y1="26.647" y2="39.66" gradientUnits="userSpaceOnUse"><stop offset="0" stop-color="#6d7479"/><stop offset=".425" stop-color="#565c60"/><stop offset="1" stop-color="#323538"/></linearGradient><path fill="url(#I1zzAMqpSX58ad6FP2yedg)" d="M21.414,36.586C20.633,35.805,17,35,17,35s0.805,3.633,1.586,4.414	c0.781,0.781,2.047,0.781,2.828,0C22.195,38.633,22.195,37.367,21.414,36.586z"/><linearGradient id="I1zzAMqpSX58ad6FP2yedh" x1="28.5" x2="28.5" y1="26.647" y2="39.66" gradientUnits="userSpaceOnUse"><stop offset="0" stop-color="#6d7479"/><stop offset=".425" stop-color="#565c60"/><stop offset="1" stop-color="#323538"/></linearGradient><path fill="url(#I1zzAMqpSX58ad6FP2yedh)" d="M26.586,36.586C27.367,35.805,31,35,31,35s-0.805,3.633-1.586,4.414	c-0.781,0.781-2.047,0.781-2.828,0C25.805,38.633,25.805,37.367,26.586,36.586z"/></svg>