<svg xmlns="http://www.w3.org/2000/svg" viewBox="0 0 48 48"><linearGradient id="VEaxJ~DY98_gxQBn8uTyIa" x1="19.578" x2="33.328" y1="4.569" y2="42.839" gradientUnits="userSpaceOnUse"><stop offset="0" stop-color="#ffda1c"/><stop offset="1" stop-color="#feb705"/></linearGradient><path fill="url(#VEaxJ~DY98_gxQBn8uTyIa)" d="M42,10c-11.122,0-11.278-6-18-6s-6.878,6-18,6c-0.552,0-1,0.448-1,1c0,0,0,5.856,0,9	c0,1.378,0.178,2.712,0.493,4c2.935,12.007,18.08,19.907,18.08,19.907l0.004-0.008C23.706,43.96,23.847,44,24,44	s0.294-0.04,0.423-0.102l0.004,0.008c0,0,15.144-7.9,18.08-19.907C42.822,22.712,43,21.378,43,20c0-3.144,0-9,0-9	C43,10.448,42.552,10,42,10z"/><linearGradient id="VEaxJ~DY98_gxQBn8uTyIb" x1="20.761" x2="29.881" y1="4.5" y2="41.615" gradientUnits="userSpaceOnUse"><stop offset="0" stop-color="#ebc70f"/><stop offset="1" stop-color="#e3a405"/></linearGradient><path fill="url(#VEaxJ~DY98_gxQBn8uTyIb)" d="M24,8c1.641,0,2.445,0.504,4.266,1.745c2.256,1.537,5.226,3.561,10.734,4.112V20	c0,0.996-0.127,2.022-0.379,3.05c-1.981,8.103-11.075,14.328-14.622,16.487c-1.383-0.842-3.606-2.3-5.922-4.253	c-3.28-2.766-7.451-7.133-8.698-12.234C9.127,22.022,9,20.996,9,20v-6.143c5.508-0.55,8.478-2.574,10.734-4.112	C21.555,8.504,22.359,8,24,8"/></svg>