<svg xmlns="http://www.w3.org/2000/svg" data-name="Слой 1" viewBox="0 0 48 48"><defs><linearGradient id="FEBNN7~BN1lAK3QRBNdeia" x1="16.116" x2="33.73" y1="2.34" y2="50.734" data-name="Безымянный градиент 141" gradientUnits="userSpaceOnUse"><stop offset="0" stop-color="#fafafb"/><stop offset=".293" stop-color="#f6f7f8"/><stop offset=".566" stop-color="#ebecee"/><stop offset=".832" stop-color="#d8dcdf"/><stop offset="1" stop-color="#c8cdd1"/></linearGradient><linearGradient id="FEBNN7~BN1lAK3QRBNdeib" x1="15.478" x2="34.518" y1=".586" y2="52.898" data-name="Безымянный градиент 121" gradientUnits="userSpaceOnUse"><stop offset="0" stop-color="#f44f5a"/><stop offset=".443" stop-color="#ee3d4a"/><stop offset="1" stop-color="#e52030"/></linearGradient><radialGradient id="FEBNN7~BN1lAK3QRBNdeic" cx="20.38" cy="15.44" r="22.548" data-name="Безымянный градиент 165" gradientUnits="userSpaceOnUse"><stop offset="0" stop-color="#6d6d6d"/><stop offset=".146" stop-color="#626262"/><stop offset=".987" stop-color="#464646"/><stop offset=".998" stop-color="#454545"/></radialGradient></defs><path fill="url(#FEBNN7~BN1lAK3QRBNdeia)" d="M42.5,24a18.35816,18.35816,0,0,1-4.4,11.97,17.85165,17.85165,0,0,1-2.13,2.13A18.4951,18.4951,0,0,1,9.9,12.03,17.86155,17.86155,0,0,1,12.03,9.8999,18.49521,18.49521,0,0,1,42.5,24Z"/><path fill="#f09ca2" d="M38.1,35.97a17.85165,17.85165,0,0,1-2.13,2.13L9.9,12.03A17.86155,17.86155,0,0,1,12.03,9.8999Z"/><path fill="url(#FEBNN7~BN1lAK3QRBNdeib)" d="M24,4A20,20,0,1,0,44,24,20,20,0,0,0,24,4Zm0,37A17,17,0,1,1,41,24,16.99994,16.99994,0,0,1,24,41Z"/><path fill="url(#FEBNN7~BN1lAK3QRBNdeic)" d="M12,25H30a1,1,0,0,1,1,1v2a1,1,0,0,1-1,1H12a1,1,0,0,1-1-1V26A1,1,0,0,1,12,25Zm21,0h0a1,1,0,0,1,1,1v2a1,1,0,0,1-1,1h0a1,1,0,0,1-1-1V26A1,1,0,0,1,33,25Zm3,0h0a1,1,0,0,1,1,1v2a1,1,0,0,1-1,1h0a1,1,0,0,1-1-1V26A1,1,0,0,1,36,25Zm1-3c0-1.873,0-7.36914-5.09082-7.9502A5.00677,5.00677,0,0,0,27,10a1,1,0,0,0,0,2,3.00328,3.00328,0,0,1,3,3,.99943.99943,0,0,0,1,1c3.51563,0,4,2.88379,4,6a1,1,0,0,0,2,0Zm-3,0c0-1.66113-1.55078-4-5-4H27c-1.44238,0-3-1.5293-3-4a1,1,0,0,0-2,0c0,3.70605,2.5957,6,5,6h2c2.49121,0,3,1.57715,3,2a1,1,0,0,0,2,0Z"/></svg>