<svg xmlns="http://www.w3.org/2000/svg" viewBox="0 0 48 48"><path fill="#252525" d="M38,42H10c-2.209,0-4-1.791-4-4V10c0-2.209,1.791-4,4-4h28c2.209,0,4,1.791,4,4v28	C42,40.209,40.209,42,38,42z"/><linearGradient id="nXPzdrsXxd3ANg3rxKcbja" x1="10.5" x2="10.5" y1="1211.677" y2="1271.551" gradientTransform="translate(0 -1214)" gradientUnits="userSpaceOnUse"><stop offset="0" stop-color="#11408a"/><stop offset="1" stop-color="#103f8f"/></linearGradient><rect width="3" height="3" x="9" y="27" fill="url(#nXPzdrsXxd3ANg3rxKcbja)"/><linearGradient id="nXPzdrsXxd3ANg3rxKcbjb" x1="22.5" x2="22.5" y1="1208.677" y2="1268.551" gradientTransform="translate(0 -1214)" gradientUnits="userSpaceOnUse"><stop offset="0" stop-color="#11408a"/><stop offset="1" stop-color="#103f8f"/></linearGradient><rect width="3" height="3" x="21" y="24" fill="url(#nXPzdrsXxd3ANg3rxKcbjb)"/><linearGradient id="nXPzdrsXxd3ANg3rxKcbjc" x1="30" x2="30" y1="1214.677" y2="1274.551" gradientTransform="translate(0 -1214)" gradientUnits="userSpaceOnUse"><stop offset="0" stop-color="#11408a"/><stop offset="1" stop-color="#103f8f"/></linearGradient><rect width="6" height="3" x="27" y="30" fill="url(#nXPzdrsXxd3ANg3rxKcbjc)"/><linearGradient id="nXPzdrsXxd3ANg3rxKcbjd" x1="27" x2="27" y1="1190.677" y2="1250.551" gradientTransform="translate(0 -1214)" gradientUnits="userSpaceOnUse"><stop offset="0" stop-color="#11408a"/><stop offset="1" stop-color="#103f8f"/></linearGradient><rect width="6" height="3" x="24" y="6" fill="url(#nXPzdrsXxd3ANg3rxKcbjd)"/><linearGradient id="nXPzdrsXxd3ANg3rxKcbje" x1="15" x2="15" y1="1193.677" y2="1253.551" gradientTransform="translate(0 -1214)" gradientUnits="userSpaceOnUse"><stop offset="0" stop-color="#11408a"/><stop offset="1" stop-color="#103f8f"/></linearGradient><rect width="6" height="3" x="12" y="9" fill="url(#nXPzdrsXxd3ANg3rxKcbje)"/><linearGradient id="nXPzdrsXxd3ANg3rxKcbjf" x1="13.5" x2="13.5" y1="1205.677" y2="1265.551" gradientTransform="translate(0 -1214)" gradientUnits="userSpaceOnUse"><stop offset="0" stop-color="#11408a"/><stop offset="1" stop-color="#103f8f"/></linearGradient><rect width="3" height="3" x="12" y="21" fill="url(#nXPzdrsXxd3ANg3rxKcbjf)"/><linearGradient id="nXPzdrsXxd3ANg3rxKcbjg" x1="7.5" x2="7.5" y1="1196.677" y2="1256.551" gradientTransform="translate(0 -1214)" gradientUnits="userSpaceOnUse"><stop offset="0" stop-color="#11408a"/><stop offset="1" stop-color="#103f8f"/></linearGradient><rect width="3" height="3" x="6" y="12" fill="url(#nXPzdrsXxd3ANg3rxKcbjg)"/><linearGradient id="nXPzdrsXxd3ANg3rxKcbjh" x1="25.5" x2="25.5" y1="1202.677" y2="1262.551" gradientTransform="translate(0 -1214)" gradientUnits="userSpaceOnUse"><stop offset="0" stop-color="#11408a"/><stop offset="1" stop-color="#103f8f"/></linearGradient><rect width="3" height="3" x="24" y="18" fill="url(#nXPzdrsXxd3ANg3rxKcbjh)"/><linearGradient id="nXPzdrsXxd3ANg3rxKcbji" x1="34.5" x2="34.5" y1="1205.677" y2="1265.551" gradientTransform="translate(0 -1214)" gradientUnits="userSpaceOnUse"><stop offset="0" stop-color="#11408a"/><stop offset="1" stop-color="#103f8f"/></linearGradient><rect width="3" height="3" x="33" y="21" fill="url(#nXPzdrsXxd3ANg3rxKcbji)"/><linearGradient id="nXPzdrsXxd3ANg3rxKcbjj" x1="19.5" x2="19.5" y1="1220.677" y2="1280.551" gradientTransform="translate(0 -1214)" gradientUnits="userSpaceOnUse"><stop offset="0" stop-color="#11408a"/><stop offset="1" stop-color="#103f8f"/></linearGradient><rect width="3" height="3" x="18" y="36" fill="url(#nXPzdrsXxd3ANg3rxKcbjj)"/><linearGradient id="nXPzdrsXxd3ANg3rxKcbjk" x1="22.5" x2="22.5" y1="1214.677" y2="1274.551" gradientTransform="translate(0 -1214)" gradientUnits="userSpaceOnUse"><stop offset="0" stop-color="#11408a"/><stop offset="1" stop-color="#103f8f"/></linearGradient><rect width="3" height="3" x="21" y="30" fill="url(#nXPzdrsXxd3ANg3rxKcbjk)"/><linearGradient id="nXPzdrsXxd3ANg3rxKcbjl" x1="34.5" x2="34.5" y1="1220.677" y2="1280.551" gradientTransform="translate(0 -1214)" gradientUnits="userSpaceOnUse"><stop offset="0" stop-color="#11408a"/><stop offset="1" stop-color="#103f8f"/></linearGradient><rect width="3" height="3" x="33" y="36" fill="url(#nXPzdrsXxd3ANg3rxKcbjl)"/><linearGradient id="nXPzdrsXxd3ANg3rxKcbjm" x1="37.5" x2="37.5" y1="-21.323" y2="38.551" gradientTransform="matrix(1 0 0 -1 0 50)" gradientUnits="userSpaceOnUse"><stop offset="0" stop-color="#11408a"/><stop offset="1" stop-color="#103f8f"/></linearGradient><path fill="url(#nXPzdrsXxd3ANg3rxKcbjm)" d="M39,39h-3v3h2c0.347,0,0.679-0.058,1-0.141V39z"/><linearGradient id="nXPzdrsXxd3ANg3rxKcbjn" x1="28.5" x2="28.5" y1="1208.677" y2="1268.551" gradientTransform="translate(0 -1214)" gradientUnits="userSpaceOnUse"><stop offset="0" stop-color="#11408a"/><stop offset="1" stop-color="#103f8f"/></linearGradient><rect width="3" height="3" x="27" y="24" fill="url(#nXPzdrsXxd3ANg3rxKcbjn)"/><linearGradient id="nXPzdrsXxd3ANg3rxKcbjo" x1="37.5" x2="37.5" y1="1196.677" y2="1256.551" gradientTransform="translate(0 -1214)" gradientUnits="userSpaceOnUse"><stop offset="0" stop-color="#11408a"/><stop offset="1" stop-color="#103f8f"/></linearGradient><rect width="3" height="3" x="36" y="12" fill="url(#nXPzdrsXxd3ANg3rxKcbjo)"/><linearGradient id="nXPzdrsXxd3ANg3rxKcbjp" x1="12" x2="12" y1="1217.677" y2="1277.551" gradientTransform="translate(0 -1214)" gradientUnits="userSpaceOnUse"><stop offset="0" stop-color="#11408a"/><stop offset="1" stop-color="#103f8f"/></linearGradient><rect width="6" height="3" x="9" y="33" fill="url(#nXPzdrsXxd3ANg3rxKcbjp)"/><linearGradient id="nXPzdrsXxd3ANg3rxKcbjq" x1="16.5" x2="16.5" y1="1217.677" y2="1277.551" gradientTransform="translate(0 -1214)" gradientUnits="userSpaceOnUse"><stop offset="0" stop-color="#7819a2"/><stop offset="1" stop-color="#771aa9"/></linearGradient><rect width="3" height="3" x="15" y="33" fill="url(#nXPzdrsXxd3ANg3rxKcbjq)"/><linearGradient id="nXPzdrsXxd3ANg3rxKcbjr" x1="13.5" x2="13.5" y1="1223.677" y2="1283.551" gradientTransform="translate(0 -1214)" gradientUnits="userSpaceOnUse"><stop offset="0" stop-color="#7819a2"/><stop offset="1" stop-color="#771aa9"/></linearGradient><rect width="3" height="3" x="12" y="39" fill="url(#nXPzdrsXxd3ANg3rxKcbjr)"/><linearGradient id="nXPzdrsXxd3ANg3rxKcbjs" x1="22.5" x2="22.5" y1="1223.677" y2="1283.551" gradientTransform="translate(0 -1214)" gradientUnits="userSpaceOnUse"><stop offset="0" stop-color="#7819a2"/><stop offset="1" stop-color="#771aa9"/></linearGradient><rect width="3" height="3" x="21" y="39" fill="url(#nXPzdrsXxd3ANg3rxKcbjs)"/><linearGradient id="nXPzdrsXxd3ANg3rxKcbjt" x1="10.5" x2="10.5" y1="1214.677" y2="1274.551" gradientTransform="translate(0 -1214)" gradientUnits="userSpaceOnUse"><stop offset="0" stop-color="#7819a2"/><stop offset="1" stop-color="#771aa9"/></linearGradient><rect width="3" height="3" x="9" y="30" fill="url(#nXPzdrsXxd3ANg3rxKcbjt)"/><linearGradient id="nXPzdrsXxd3ANg3rxKcbju" x1="10.5" x2="10.5" y1="1220.677" y2="1280.551" gradientTransform="translate(0 -1214)" gradientUnits="userSpaceOnUse"><stop offset="0" stop-color="#7819a2"/><stop offset="1" stop-color="#771aa9"/></linearGradient><rect width="3" height="3" x="9" y="36" fill="url(#nXPzdrsXxd3ANg3rxKcbju)"/><linearGradient id="nXPzdrsXxd3ANg3rxKcbjv" x1="25.5" x2="25.5" y1="-26.646" y2="93.102" gradientTransform="matrix(1 0 0 -1 0 50)" gradientUnits="userSpaceOnUse"><stop offset="0" stop-color="#7819a2"/><stop offset="1" stop-color="#771aa9"/></linearGradient><rect width="3" height="6" x="24" y="12" fill="url(#nXPzdrsXxd3ANg3rxKcbjv)"/><linearGradient id="nXPzdrsXxd3ANg3rxKcbjw" x1="16.5" x2="16.5" y1="1205.677" y2="1265.551" gradientTransform="translate(0 -1214)" gradientUnits="userSpaceOnUse"><stop offset="0" stop-color="#7819a2"/><stop offset="1" stop-color="#771aa9"/></linearGradient><rect width="3" height="3" x="15" y="21" fill="url(#nXPzdrsXxd3ANg3rxKcbjw)"/><linearGradient id="nXPzdrsXxd3ANg3rxKcbjx" x1="16.5" x2="16.5" y1="1199.677" y2="1259.551" gradientTransform="translate(0 -1214)" gradientUnits="userSpaceOnUse"><stop offset="0" stop-color="#7819a2"/><stop offset="1" stop-color="#771aa9"/></linearGradient><rect width="3" height="3" x="15" y="15" fill="url(#nXPzdrsXxd3ANg3rxKcbjx)"/><linearGradient id="nXPzdrsXxd3ANg3rxKcbjy" x1="31.5" x2="31.5" y1="1193.677" y2="1253.551" gradientTransform="translate(0 -1214)" gradientUnits="userSpaceOnUse"><stop offset="0" stop-color="#7819a2"/><stop offset="1" stop-color="#771aa9"/></linearGradient><rect width="3" height="3" x="30" y="9" fill="url(#nXPzdrsXxd3ANg3rxKcbjy)"/><linearGradient id="nXPzdrsXxd3ANg3rxKcbjz" x1="36" x2="36" y1="-43.646" y2="76.102" gradientUnits="userSpaceOnUse"><stop offset="0" stop-color="#7819a2"/><stop offset="1" stop-color="#771aa9"/></linearGradient><polygon fill="url(#nXPzdrsXxd3ANg3rxKcbjz)" points="33,15 33,18 36,18 36,21 39,21 39,15"/><linearGradient id="nXPzdrsXxd3ANg3rxKcbjA" x1="34.5" x2="34.5" y1="1190.677" y2="1250.551" gradientTransform="translate(0 -1214)" gradientUnits="userSpaceOnUse"><stop offset="0" stop-color="#7819a2"/><stop offset="1" stop-color="#771aa9"/></linearGradient><rect width="3" height="3" x="33" y="6" fill="url(#nXPzdrsXxd3ANg3rxKcbjA)"/><linearGradient id="nXPzdrsXxd3ANg3rxKcbjB" x1="34.5" x2="34.5" y1="1208.677" y2="1268.551" gradientTransform="translate(0 -1214)" gradientUnits="userSpaceOnUse"><stop offset="0" stop-color="#7819a2"/><stop offset="1" stop-color="#771aa9"/></linearGradient><rect width="3" height="3" x="33" y="24" fill="url(#nXPzdrsXxd3ANg3rxKcbjB)"/><linearGradient id="nXPzdrsXxd3ANg3rxKcbjC" x1="19.5" x2="19.5" y1="1196.677" y2="1256.551" gradientTransform="translate(0 -1214)" gradientUnits="userSpaceOnUse"><stop offset="0" stop-color="#7819a2"/><stop offset="1" stop-color="#771aa9"/></linearGradient><rect width="3" height="3" x="18" y="12" fill="url(#nXPzdrsXxd3ANg3rxKcbjC)"/><linearGradient id="nXPzdrsXxd3ANg3rxKcbjD" x1="19.5" x2="19.5" y1="1190.677" y2="1250.551" gradientTransform="translate(0 -1214)" gradientUnits="userSpaceOnUse"><stop offset="0" stop-color="#7819a2"/><stop offset="1" stop-color="#771aa9"/></linearGradient><rect width="3" height="3" x="18" y="6" fill="url(#nXPzdrsXxd3ANg3rxKcbjD)"/><linearGradient id="nXPzdrsXxd3ANg3rxKcbjE" x1="7.571" x2="7.571" y1="-19.799" y2="37.252" gradientTransform="matrix(1 0 0 -1 0 50)" gradientUnits="userSpaceOnUse"><stop offset="0" stop-color="#7819a2"/><stop offset="1" stop-color="#771aa9"/></linearGradient><path fill="url(#nXPzdrsXxd3ANg3rxKcbjE)" d="M9,41.859V39H6.141C6.504,40.401,7.599,41.496,9,41.859z"/><linearGradient id="nXPzdrsXxd3ANg3rxKcbjF" x1="7.5" x2="7.5" y1="1208.677" y2="1268.551" gradientTransform="translate(0 -1214)" gradientUnits="userSpaceOnUse"><stop offset="0" stop-color="#7819a2"/><stop offset="1" stop-color="#771aa9"/></linearGradient><rect width="3" height="3" x="6" y="24" fill="url(#nXPzdrsXxd3ANg3rxKcbjF)"/><linearGradient id="nXPzdrsXxd3ANg3rxKcbjG" x1="10.5" x2="10.5" y1="1170.354" y2="1290.102" gradientTransform="translate(0 -1214)" gradientUnits="userSpaceOnUse"><stop offset="0" stop-color="#7819a2"/><stop offset="1" stop-color="#771aa9"/></linearGradient><rect width="3" height="6" x="9" y="15" fill="url(#nXPzdrsXxd3ANg3rxKcbjG)"/><linearGradient id="nXPzdrsXxd3ANg3rxKcbjH" x1="13.5" x2="13.5" y1="1208.677" y2="1268.551" gradientTransform="translate(0 -1214)" gradientUnits="userSpaceOnUse"><stop offset="0" stop-color="#7819a2"/><stop offset="1" stop-color="#771aa9"/></linearGradient><rect width="3" height="3" x="12" y="24" fill="url(#nXPzdrsXxd3ANg3rxKcbjH)"/><linearGradient id="nXPzdrsXxd3ANg3rxKcbjI" x1="34.5" x2="34.5" y1="1214.677" y2="1274.551" gradientTransform="translate(0 -1214)" gradientUnits="userSpaceOnUse"><stop offset="0" stop-color="#7819a2"/><stop offset="1" stop-color="#771aa9"/></linearGradient><rect width="3" height="3" x="33" y="30" fill="url(#nXPzdrsXxd3ANg3rxKcbjI)"/><linearGradient id="nXPzdrsXxd3ANg3rxKcbjJ" x1="40.5" x2="40.5" y1="1205.677" y2="1265.551" gradientTransform="translate(0 -1214)" gradientUnits="userSpaceOnUse"><stop offset="0" stop-color="#7819a2"/><stop offset="1" stop-color="#771aa9"/></linearGradient><rect width="3" height="3" x="39" y="21" fill="url(#nXPzdrsXxd3ANg3rxKcbjJ)"/><linearGradient id="nXPzdrsXxd3ANg3rxKcbjK" x1="31.5" x2="31.5" y1="1217.677" y2="1277.551" gradientTransform="translate(0 -1214)" gradientUnits="userSpaceOnUse"><stop offset="0" stop-color="#7819a2"/><stop offset="1" stop-color="#771aa9"/></linearGradient><rect width="3" height="3" x="30" y="33" fill="url(#nXPzdrsXxd3ANg3rxKcbjK)"/><linearGradient id="nXPzdrsXxd3ANg3rxKcbjL" x1="37.5" x2="37.5" y1="1217.677" y2="1277.551" gradientTransform="translate(0 -1214)" gradientUnits="userSpaceOnUse"><stop offset="0" stop-color="#7819a2"/><stop offset="1" stop-color="#771aa9"/></linearGradient><rect width="3" height="3" x="36" y="33" fill="url(#nXPzdrsXxd3ANg3rxKcbjL)"/><linearGradient id="nXPzdrsXxd3ANg3rxKcbjM" x1="25.5" x2="25.5" y1="-47.646" y2="72.102" gradientTransform="matrix(1 0 0 -1 0 50)" gradientUnits="userSpaceOnUse"><stop offset="0" stop-color="#7819a2"/><stop offset="1" stop-color="#771aa9"/></linearGradient><polygon fill="url(#nXPzdrsXxd3ANg3rxKcbjM)" points="24,33 24,36 24,37 24,39 27,39 27,37 27,36 27,33"/><linearGradient id="nXPzdrsXxd3ANg3rxKcbjN" x1="27" x2="27" y1="-32.646" y2="87.102" gradientTransform="matrix(1 0 0 -1 0 50)" gradientUnits="userSpaceOnUse"><stop offset="0" stop-color="#7819a2"/><stop offset="1" stop-color="#771aa9"/></linearGradient><polygon fill="url(#nXPzdrsXxd3ANg3rxKcbjN)" points="27,18 27,21 24,21 24,24 30,24 30,21 30,18"/><linearGradient id="nXPzdrsXxd3ANg3rxKcbjO" x1="7.5" x2="7.5" y1="1205.677" y2="1265.551" gradientTransform="translate(0 -1214)" gradientUnits="userSpaceOnUse"><stop offset="0" stop-color="#ae4cd5"/><stop offset="1" stop-color="#ac4ad5"/></linearGradient><rect width="3" height="3" x="6" y="21" fill="url(#nXPzdrsXxd3ANg3rxKcbjO)"/><linearGradient id="nXPzdrsXxd3ANg3rxKcbjP" x1="13.5" x2="13.5" y1="1202.677" y2="1262.551" gradientTransform="translate(0 -1214)" gradientUnits="userSpaceOnUse"><stop offset="0" stop-color="#ae4cd5"/><stop offset="1" stop-color="#ac4ad5"/></linearGradient><rect width="3" height="3" x="12" y="18" fill="url(#nXPzdrsXxd3ANg3rxKcbjP)"/><linearGradient id="nXPzdrsXxd3ANg3rxKcbjQ" x1="18" x2="18" y1="1211.677" y2="1271.551" gradientTransform="translate(0 -1214)" gradientUnits="userSpaceOnUse"><stop offset="0" stop-color="#7819a2"/><stop offset="1" stop-color="#771aa9"/></linearGradient><rect width="6" height="3" x="15" y="27" fill="url(#nXPzdrsXxd3ANg3rxKcbjQ)"/><linearGradient id="nXPzdrsXxd3ANg3rxKcbjR" x1="7.5" x2="7.5" y1="1217.677" y2="1277.551" gradientTransform="translate(0 -1214)" gradientUnits="userSpaceOnUse"><stop offset="0" stop-color="#ae4cd5"/><stop offset="1" stop-color="#ac4ad5"/></linearGradient><rect width="3" height="3" x="6" y="33" fill="url(#nXPzdrsXxd3ANg3rxKcbjR)"/><linearGradient id="nXPzdrsXxd3ANg3rxKcbjS" x1="13.5" x2="13.5" y1="1214.677" y2="1274.551" gradientTransform="translate(0 -1214)" gradientUnits="userSpaceOnUse"><stop offset="0" stop-color="#ae4cd5"/><stop offset="1" stop-color="#ac4ad5"/></linearGradient><rect width="3" height="3" x="12" y="30" fill="url(#nXPzdrsXxd3ANg3rxKcbjS)"/><linearGradient id="nXPzdrsXxd3ANg3rxKcbjT" x1="19.5" x2="19.5" y1="1208.677" y2="1268.551" gradientTransform="translate(0 -1214)" gradientUnits="userSpaceOnUse"><stop offset="0" stop-color="#ae4cd5"/><stop offset="1" stop-color="#ac4ad5"/></linearGradient><rect width="3" height="3" x="18" y="24" fill="url(#nXPzdrsXxd3ANg3rxKcbjT)"/><linearGradient id="nXPzdrsXxd3ANg3rxKcbjU" x1="19.5" x2="19.5" y1="1202.677" y2="1262.551" gradientTransform="translate(0 -1214)" gradientUnits="userSpaceOnUse"><stop offset="0" stop-color="#ae4cd5"/><stop offset="1" stop-color="#ac4ad5"/></linearGradient><rect width="3" height="3" x="18" y="18" fill="url(#nXPzdrsXxd3ANg3rxKcbjU)"/><linearGradient id="nXPzdrsXxd3ANg3rxKcbjV" x1="25.5" x2="25.5" y1="1211.677" y2="1271.551" gradientTransform="translate(0 -1214)" gradientUnits="userSpaceOnUse"><stop offset="0" stop-color="#ae4cd5"/><stop offset="1" stop-color="#ac4ad5"/></linearGradient><rect width="3" height="3" x="24" y="27" fill="url(#nXPzdrsXxd3ANg3rxKcbjV)"/><linearGradient id="nXPzdrsXxd3ANg3rxKcbjW" x1="34.5" x2="34.5" y1="1211.677" y2="1271.551" gradientTransform="translate(0 -1214)" gradientUnits="userSpaceOnUse"><stop offset="0" stop-color="#ae4cd5"/><stop offset="1" stop-color="#ac4ad5"/></linearGradient><rect width="3" height="3" x="33" y="27" fill="url(#nXPzdrsXxd3ANg3rxKcbjW)"/><linearGradient id="nXPzdrsXxd3ANg3rxKcbjX" x1="30" x2="30" y1="1199.677" y2="1259.551" gradientTransform="translate(0 -1214)" gradientUnits="userSpaceOnUse"><stop offset="0" stop-color="#ae4cd5"/><stop offset="1" stop-color="#ac4ad5"/></linearGradient><rect width="6" height="3" x="27" y="15" fill="url(#nXPzdrsXxd3ANg3rxKcbjX)"/><linearGradient id="nXPzdrsXxd3ANg3rxKcbjY" x1="39" x2="39" y1="1208.677" y2="1268.551" gradientTransform="translate(0 -1214)" gradientUnits="userSpaceOnUse"><stop offset="0" stop-color="#ae4cd5"/><stop offset="1" stop-color="#ac4ad5"/></linearGradient><rect width="6" height="3" x="36" y="24" fill="url(#nXPzdrsXxd3ANg3rxKcbjY)"/><linearGradient id="nXPzdrsXxd3ANg3rxKcbjZ" x1="22.5" x2="22.5" y1="1199.677" y2="1259.551" gradientTransform="translate(0 -1214)" gradientUnits="userSpaceOnUse"><stop offset="0" stop-color="#ae4cd5"/><stop offset="1" stop-color="#ac4ad5"/></linearGradient><rect width="3" height="3" x="21" y="15" fill="url(#nXPzdrsXxd3ANg3rxKcbjZ)"/><linearGradient id="nXPzdrsXxd3ANg3rxKcbjaa" x1="22.5" x2="22.5" y1="1193.677" y2="1253.551" gradientTransform="translate(0 -1214)" gradientUnits="userSpaceOnUse"><stop offset="0" stop-color="#ae4cd5"/><stop offset="1" stop-color="#ac4ad5"/></linearGradient><rect width="3" height="3" x="21" y="9" fill="url(#nXPzdrsXxd3ANg3rxKcbjaa)"/><linearGradient id="nXPzdrsXxd3ANg3rxKcbjab" x1="10.5" x2="10.5" y1="1196.677" y2="1256.551" gradientTransform="translate(0 -1214)" gradientUnits="userSpaceOnUse"><stop offset="0" stop-color="#ae4cd5"/><stop offset="1" stop-color="#ac4ad5"/></linearGradient><rect width="3" height="3" x="9" y="12" fill="url(#nXPzdrsXxd3ANg3rxKcbjab)"/><linearGradient id="nXPzdrsXxd3ANg3rxKcbjac" x1="22.5" x2="22.5" y1="1205.677" y2="1265.551" gradientTransform="translate(0 -1214)" gradientUnits="userSpaceOnUse"><stop offset="0" stop-color="#ae4cd5"/><stop offset="1" stop-color="#ac4ad5"/></linearGradient><rect width="3" height="3" x="21" y="21" fill="url(#nXPzdrsXxd3ANg3rxKcbjac)"/><linearGradient id="nXPzdrsXxd3ANg3rxKcbjad" x1="19.5" x2="19.5" y1="1223.677" y2="1283.551" gradientTransform="translate(0 -1214)" gradientUnits="userSpaceOnUse"><stop offset="0" stop-color="#ae4cd5"/><stop offset="1" stop-color="#ac4ad5"/></linearGradient><rect width="3" height="3" x="18" y="39" fill="url(#nXPzdrsXxd3ANg3rxKcbjad)"/><linearGradient id="nXPzdrsXxd3ANg3rxKcbjae" x1="16.5" x2="16.5" y1="1220.677" y2="1280.551" gradientTransform="translate(0 -1214)" gradientUnits="userSpaceOnUse"><stop offset="0" stop-color="#ae4cd5"/><stop offset="1" stop-color="#ac4ad5"/></linearGradient><rect width="3" height="3" x="15" y="36" fill="url(#nXPzdrsXxd3ANg3rxKcbjae)"/></svg>