<svg xmlns="http://www.w3.org/2000/svg" viewBox="0 0 48 48"><radialGradient id="RDycOpbN2xU0pxyny7rhoa" cx="24" cy="24" r="19" gradientUnits="userSpaceOnUse"><stop offset=".45" stop-color="#46c433"/><stop offset=".538" stop-color="#45c033"/><stop offset=".629" stop-color="#44b333"/><stop offset=".721" stop-color="#409f32"/><stop offset=".814" stop-color="#3c8232"/><stop offset=".907" stop-color="#375d31"/><stop offset="1" stop-color="#303030"/></radialGradient><circle cx="24" cy="24" r="19" fill="url(#RDycOpbN2xU0pxyny7rhoa)"/><linearGradient id="RDycOpbN2xU0pxyny7rhob" x1="38.136" x2="9.864" y1="38.136" y2="9.864" gradientUnits="userSpaceOnUse"><stop offset="0" stop-color="#999"/><stop offset=".071" stop-color="#b0b0b0"/><stop offset=".18" stop-color="#cdcdcd"/><stop offset=".289" stop-color="#e1e1e1"/><stop offset=".397" stop-color="#eee"/><stop offset=".5" stop-color="#f2f2f2"/><stop offset=".591" stop-color="#eee"/><stop offset=".686" stop-color="#e1e1e1"/><stop offset=".781" stop-color="#cdcdcd"/><stop offset=".878" stop-color="#b0b0b0"/><stop offset=".976" stop-color="#8b8b8b"/><stop offset="1" stop-color="gray"/></linearGradient><path fill="url(#RDycOpbN2xU0pxyny7rhob)" d="M24,44C12.972,44,4,35.028,4,24S12.972,4,24,4s20,8.972,20,20S35.028,44,24,44z M24,6	C14.075,6,6,14.075,6,24s8.075,18,18,18s18-8.075,18-18S33.925,6,24,6z"/><radialGradient id="RDycOpbN2xU0pxyny7rhoc" cx="39.859" cy="35.728" r="15.326" gradientTransform="matrix(-.8 -.6 .288 -.384 61.456 73.363)" gradientUnits="userSpaceOnUse"><stop offset="0" stop-color="#ffabd6"/><stop offset=".015" stop-color="#ffc0de"/><stop offset=".037" stop-color="#ffd6e7"/><stop offset=".063" stop-color="#ffe7ed"/><stop offset=".094" stop-color="#fff2f2"/><stop offset=".139" stop-color="#fff9f4"/><stop offset=".262" stop-color="#fffbf5"/><stop offset=".361" stop-color="#fefaf1"/><stop offset=".464" stop-color="#fcf8e4"/><stop offset=".569" stop-color="#f8f4d0"/><stop offset=".674" stop-color="#f3efb3"/><stop offset=".781" stop-color="#ede88d"/><stop offset=".888" stop-color="#e5df5f"/><stop offset=".995" stop-color="#dcd62a"/><stop offset="1" stop-color="#dbd527"/></radialGradient><path fill="url(#RDycOpbN2xU0pxyny7rhoc)" d="M38.76,34.28c-0.17,0.25-0.35,0.5-0.55,0.74c-1.54-0.29-4.47-0.96-6.01-2.07	c-2.15-1.57-2.33-2.97-1.58-4.01c0.75-1.03,2.14-1.3,4.3,0.27C36.46,30.32,38,32.9,38.76,34.28z"/><path d="M39.04,22.6l-7.5,7.05l-4.47,9.11l-3.96-2.8l0.23-6.63l-0.17-0.13l-5.99,8.08l-4.45-3.2l1.82-10.47	l-6.76-7.43L6.35,14.6c0.9-1.69,2.03-3.23,3.36-4.58l1.94,0.91l9.07,4.24l9.42-4.82l4.53,3.29l-6,8.11l0.05,0.03L35,19.69	L39.04,22.6z" opacity=".05"/><path d="M38.26,22.65l-7.13,6.7l-4.25,8.67l-3.26-2.32l0.23-6.62l-0.79-0.58l-5.98,8.09l-3.8-2.73l1.81-10.4	l-7.05-7.75l-1.43-1.57c0.76-1.35,1.68-2.61,2.73-3.74l1.92,0.9l9.47,4.43l9.36-4.8l3.88,2.82l-6,8.1l0.66,0.49l6.28-2.09	L38.26,22.65z" opacity=".07"/><radialGradient id="RDycOpbN2xU0pxyny7rhod" cx="20.323" cy="21.342" r="24.15" gradientTransform="matrix(-.802 -.5973 .4235 -.5687 27.582 45.618)" gradientUnits="userSpaceOnUse"><stop offset="0" stop-color="#f2f2f2"/><stop offset=".155" stop-color="#eee"/><stop offset=".297" stop-color="#e3e3e3"/><stop offset=".435" stop-color="#d0d0d0"/><stop offset=".569" stop-color="#b6b6b6"/><stop offset=".701" stop-color="#959595"/><stop offset=".769" stop-color="gray"/></radialGradient><polygon fill="url(#RDycOpbN2xU0pxyny7rhod)" points="2.782,8.446 20.747,16.845 30.001,12.101 32.568,13.968 26.58,22.056 28.446,23.456 34.745,21.356 36.69,22.756 30.312,28.744 26.502,36.521 24.635,35.199 24.869,28.588 22.847,27.111 16.858,35.199 14.37,33.41 16.158,23.145"/><path fill="#7a7a7a" d="M26.502,37.021c-0.103,0-0.204-0.031-0.289-0.092l-1.866-1.321c-0.138-0.098-0.217-0.258-0.211-0.426	l0.224-6.346l-1.406-1.028l-5.692,7.689c-0.164,0.22-0.472,0.268-0.694,0.108l-2.489-1.789c-0.155-0.112-0.233-0.303-0.2-0.492	L15.624,23.3L2.412,8.783C2.252,8.606,2.238,8.342,2.38,8.149c0.142-0.191,0.398-0.254,0.614-0.156l17.743,8.295l9.035-4.632	c0.168-0.083,0.37-0.069,0.522,0.041l2.566,1.866c0.108,0.078,0.18,0.196,0.2,0.328s-0.013,0.267-0.093,0.374l-5.692,7.688	l1.261,0.944l6.05-2.018c0.152-0.05,0.32-0.026,0.45,0.069l1.944,1.4c0.121,0.087,0.197,0.224,0.207,0.373	c0.01,0.148-0.048,0.295-0.157,0.396l-6.31,5.926l-3.771,7.694c-0.064,0.132-0.184,0.229-0.326,0.265	C26.585,37.016,26.543,37.021,26.502,37.021z M25.145,34.947l1.167,0.826l3.552-7.249c0.026-0.055,0.063-0.104,0.107-0.145	l5.934-5.573l-1.244-0.896l-6.056,2.02c-0.156,0.05-0.326,0.023-0.458-0.074l-1.867-1.4c-0.22-0.165-0.266-0.477-0.102-0.698	l5.688-7.683l-1.91-1.389l-8.979,4.604c-0.14,0.069-0.301,0.072-0.44,0.008L4.833,9.957l11.695,12.851	c0.104,0.114,0.149,0.271,0.122,0.423l-1.734,9.957l1.834,1.318l5.694-7.693c0.165-0.221,0.477-0.268,0.697-0.105l2.021,1.479	c0.134,0.098,0.211,0.255,0.205,0.421L25.145,34.947z"/></svg>