<svg xmlns="http://www.w3.org/2000/svg" viewBox="0 0 48 48"><linearGradient id="MCPHF0Xl4iujUyI6Gn6Bza" x1="15.44" x2="20.56" y1="3.481" y2="32.519" gradientUnits="userSpaceOnUse"><stop offset="0" stop-color="#a3ffff"/><stop offset=".223" stop-color="#9dfbff"/><stop offset=".53" stop-color="#8bf1ff"/><stop offset=".885" stop-color="#6ee0ff"/><stop offset="1" stop-color="#63daff"/></linearGradient><path fill="url(#MCPHF0Xl4iujUyI6Gn6Bza)" d="M29,5H7C5.895,5,5,5.895,5,7v22c0,1.105,0.895,2,2,2h22c1.105,0,2-0.895,2-2V7 C31,5.895,30.105,5,29,5z"/><path d="M19,16h12v13c0,1.105-0.895,2-2,2H16V19C16,17.343,17.343,16,19,16z" opacity=".05"/><path d="M19,16.5h12V29c0,1.105-0.895,2-2,2H16.5V19C16.5,17.619,17.619,16.5,19,16.5z" opacity=".05"/><linearGradient id="MCPHF0Xl4iujUyI6Gn6Bzb" x1="27.44" x2="32.56" y1="15.481" y2="44.519" gradientUnits="userSpaceOnUse"><stop offset="0" stop-color="#2aa4f4"/><stop offset="1" stop-color="#007ad9"/></linearGradient><path fill="url(#MCPHF0Xl4iujUyI6Gn6Bzb)" d="M17,19v22c0,1.105,0.895,2,2,2h22c1.105,0,2-0.895,2-2V19c0-1.105-0.895-2-2-2H19 C17.895,17,17,17.895,17,19z"/></svg>