<svg xmlns="http://www.w3.org/2000/svg" viewBox="0 0 48 48"><linearGradient id="hu_7AZrbaE1FWRckN6n4ha" x1="16" x2="16" y1="12.456" y2="21.412" gradientUnits="userSpaceOnUse"><stop offset="0" stop-color="#f44f5a"/><stop offset=".443" stop-color="#ee3d4a"/><stop offset="1" stop-color="#e52030"/></linearGradient><circle cx="16" cy="21" r="8" fill="url(#hu_7AZrbaE1FWRckN6n4ha)"/><linearGradient id="hu_7AZrbaE1FWRckN6n4hb" x1="33" x2="33" y1="14" y2="21.749" gradientUnits="userSpaceOnUse"><stop offset="0" stop-color="#f9f9f9"/><stop offset=".26" stop-color="#f0f1f2"/><stop offset=".678" stop-color="#d9dcdf"/><stop offset="1" stop-color="#c2c8cc"/></linearGradient><path fill="url(#hu_7AZrbaE1FWRckN6n4hb)" d="M39.18,16.5c-0.11-0.28-0.23-0.56-0.36-0.83L38.49,15l-0.24-0.49L37.51,13h-9.02l-0.74,1.51	L27.51,15l-0.33,0.67c-0.13,0.27-0.25,0.55-0.36,0.83C26.28,17.86,26,19.33,26,20.8v0.7h14v-0.7C40,19.33,39.72,17.86,39.18,16.5z"/><linearGradient id="hu_7AZrbaE1FWRckN6n4hc" x1="33" x2="33" y1="8.309" y2="16.651" gradientUnits="userSpaceOnUse"><stop offset="0" stop-color="#32bdef"/><stop offset="1" stop-color="#1ea2e4"/></linearGradient><polygon fill="url(#hu_7AZrbaE1FWRckN6n4hc)" points="38.49,15 27.51,15 27.75,14.51 28.49,13 30.2,9.5 35.8,9.5 37.51,13 38.25,14.51"/><linearGradient id="hu_7AZrbaE1FWRckN6n4hd" x1="24" x2="24" y1="11.441" y2="21.146" gradientUnits="userSpaceOnUse"><stop offset="0" stop-color="#fed100"/><stop offset=".387" stop-color="#fdcf00"/><stop offset=".574" stop-color="#fbc700"/><stop offset=".718" stop-color="#f6ba00"/><stop offset=".84" stop-color="#f0a801"/><stop offset=".947" stop-color="#e89001"/><stop offset="1" stop-color="#e38101"/></linearGradient><path fill="url(#hu_7AZrbaE1FWRckN6n4hd)" d="M35.314,24.642l-9.899,9.899c-0.781,0.781-2.047,0.781-2.828,0l-9.899-9.899	c-0.781-0.781-0.781-2.047,0-2.828l9.899-9.899c0.781-0.781,2.047-0.781,2.828,0l9.899,9.899	C36.095,22.595,36.095,23.861,35.314,24.642z"/><linearGradient id="hu_7AZrbaE1FWRckN6n4he" x1="24.01" x2="24.01" y1="22.868" y2="50.883" gradientUnits="userSpaceOnUse"><stop offset="0" stop-color="#21ad64"/><stop offset="1" stop-color="#088242"/></linearGradient><path fill="url(#hu_7AZrbaE1FWRckN6n4he)" d="M43.61,21.26L43.2,24l-0.06,0.4l-2.35,15.73C40.62,41.21,39.7,42,38.61,42H9.39	c-1.09,0-2.01-0.79-2.18-1.87L4.88,24.4L4.82,24l-0.41-2.74C4.31,20.59,4.82,20,5.5,20h37.02C43.2,20,43.71,20.59,43.61,21.26z"/><path fill="#33c481" d="M43.61,21.26L43.2,24H4.82l-0.41-2.74C4.31,20.59,4.82,20,5.5,20h37.02	C43.2,20,43.71,20.59,43.61,21.26z"/><path fill="#107c42" d="M20.5,40L20.5,40c-0.828,0-1.5-0.672-1.5-1.5v-11c0-0.828,0.672-1.5,1.5-1.5h0	c0.828,0,1.5,0.672,1.5,1.5v11C22,39.328,21.328,40,20.5,40z"/><path fill="#107c42" d="M13.5,40L13.5,40c-0.828,0-1.5-0.672-1.5-1.5v-11c0-0.828,0.672-1.5,1.5-1.5h0	c0.828,0,1.5,0.672,1.5,1.5v11C15,39.328,14.328,40,13.5,40z"/><path fill="#107c42" d="M27.5,40L27.5,40c-0.828,0-1.5-0.672-1.5-1.5v-11c0-0.828,0.672-1.5,1.5-1.5h0	c0.828,0,1.5,0.672,1.5,1.5v11C29,39.328,28.328,40,27.5,40z"/><path fill="#107c42" d="M34.5,40L34.5,40c-0.828,0-1.5-0.672-1.5-1.5v-11c0-0.828,0.672-1.5,1.5-1.5l0,0	c0.828,0,1.5,0.672,1.5,1.5v11C36,39.328,35.328,40,34.5,40z"/><linearGradient id="hu_7AZrbaE1FWRckN6n4hf" x1="33" x2="33" y1="5.013" y2="13.601" gradientUnits="userSpaceOnUse"><stop offset=".002" stop-color="#427fdb"/><stop offset=".397" stop-color="#2668cb"/><stop offset=".763" stop-color="#1358bf"/><stop offset="1" stop-color="#0c52bb"/></linearGradient><path fill="url(#hu_7AZrbaE1FWRckN6n4hf)" d="M30.5,10h5c0.828,0,1.5-0.672,1.5-1.5v0C37,7.672,36.328,7,35.5,7h-5	C29.672,7,29,7.672,29,8.5v0C29,9.328,29.672,10,30.5,10z"/></svg>