<svg xmlns="http://www.w3.org/2000/svg" viewBox="0 0 48 48"><linearGradient id="uIewmlCPXZhV4f8DeBFDma" x1="10.437" x2="37.47" y1="8.982" y2="38.916" gradientUnits="userSpaceOnUse"><stop offset="0" stop-color="#2b92f3"/><stop offset="1" stop-color="#1166d2"/></linearGradient><path fill="url(#uIewmlCPXZhV4f8DeBFDma)" d="M44,24c0,11.044-8.956,20-20,20S4,35.044,4,24S12.956,4,24,4S44,12.956,44,24z"/><linearGradient id="uIewmlCPXZhV4f8DeBFDmb" x1="12.912" x2="35.33" y1="12.912" y2="35.33" gradientUnits="userSpaceOnUse"><stop offset="0" stop-color="#f6f6f6"/><stop offset=".228" stop-color="#edeeef"/><stop offset=".595" stop-color="#d6d9db"/><stop offset="1" stop-color="#b4bbc0"/></linearGradient><path fill="url(#uIewmlCPXZhV4f8DeBFDmb)" d="M24,8C15.146,8,8,15.146,8,24s7.146,16,16,16s16-7.146,16-16S32.854,8,24,8z"/><path fill="#0d3592" d="M24,4v4v14.775c0,0.791,0.278,1.557,0.786,2.164L34.3,36.3c0.014-0.012,0.026-0.025,0.04-0.037	L36.9,39.3C41.4,35.5,44,29.9,44,24C44,13,35,4,24,4z"/><path fill="#1a62ca" d="M25.033,25.234L34.3,36.3c3.6-3,5.7-7.5,5.7-12.3c0-8.8-7.2-16-16-16v14.39	C24,23.43,24.366,24.437,25.033,25.234z"/></svg>