<svg xmlns="http://www.w3.org/2000/svg" viewBox="0 0 48 48"><path fill="#52bf8d" d="M41,35H28V22h13c0.552,0,1,0.448,1,1v11C42,34.552,41.552,35,41,35z"/><rect width="11" height="13" x="28" y="22" fill="#107c42"/><path fill="#59d19a" d="M41,33H28V20h13c0.552,0,1,0.448,1,1v11C42,32.552,41.552,33,41,33z"/><rect width="11" height="13" x="28" y="20" fill="#21a366"/><linearGradient id="cYZx8ECMxh~Vv1DPmkGSIa" x1="27" x2="27" y1="3.617" y2="15.745" gradientUnits="userSpaceOnUse"><stop offset="0" stop-color="#199ae0"/><stop offset="1" stop-color="#0782d8"/></linearGradient><path fill="url(#cYZx8ECMxh~Vv1DPmkGSIa)" d="M16,20.48V5c0-0.552,0.448-1,1-1h1c0,0.552,0.448,1,1,1s1-0.448,1-1h2c0,0.552,0.448,1,1,1	s1-0.448,1-1h2c0,0.552,0.448,1,1,1s1-0.448,1-1h2c0,0.552,0.448,1,1,1s1-0.448,1-1h2c0,0.552,0.448,1,1,1s1-0.448,1-1h1	c0.552,0,1,0.448,1,1v15.48H16z"/><path fill="#61e3a7" d="M41,31H28V18h13c0.552,0,1,0.448,1,1v11C42,30.552,41.552,31,41,31z"/><rect width="11" height="13" x="28" y="18" fill="#33c481"/><circle cx="28.5" cy="24.5" r="4.5" fill="#61e3a7"/><circle cx="36" cy="28" r="1" fill="#61e3a7"/><linearGradient id="cYZx8ECMxh~Vv1DPmkGSIb" x1="18" x2="18" y1="13.386" y2="41.215" gradientUnits="userSpaceOnUse"><stop offset="0" stop-color="#7dd8f3"/><stop offset="1" stop-color="#45b0d0"/></linearGradient><path fill="url(#cYZx8ECMxh~Vv1DPmkGSIb)" d="M30,13H8c-1.105,0-2,0.895-2,2v28c0,0.552,0.448,1,1,1h1c0-0.556,0.448-1.007,1-1.007	s1,0.451,1,1.007h2c0-0.556,0.448-1.007,1-1.007s1,0.451,1,1.007h2c0-0.556,0.448-1.007,1-1.007s1,0.451,1,1.007h2	c0-0.556,0.448-1.007,1-1.007s1,0.451,1,1.007h2c0-0.556,0.448-1.007,1-1.007s1,0.451,1,1.007h1c0.552,0,1-0.448,1-1V16h2V13z"/><linearGradient id="cYZx8ECMxh~Vv1DPmkGSIc" x1="30" x2="30" y1="22.231" y2="14.887" gradientUnits="userSpaceOnUse"><stop offset="0" stop-color="#0176d0"/><stop offset="1" stop-color="#16538c"/></linearGradient><path fill="url(#cYZx8ECMxh~Vv1DPmkGSIc)" d="M32,18h-4v-3c0-1.105,0.895-2,2-2h0c1.105,0,2,0.895,2,2V18z"/><rect width="1" height="17" x="28" y="18" opacity=".05"/><rect width=".5" height="17" x="28" y="18" opacity=".07"/><path d="M16.66,37.525c-0.739,0-1.34-0.602-1.34-1.341v-0.846c-1.055-0.165-2.148-0.466-3-0.828	c-0.657-0.276-1.083-0.916-1.083-1.629V31.26c0-0.795,0.645-1.441,1.437-1.441c0.228,0,0.454,0.056,0.656,0.159	c0.543,0.277,1.995,0.925,3.67,0.925c1.229,0,1.229-0.396,1.229-0.564c0-0.396-0.954-0.781-2.107-1.208	C14.082,28.375,11,27.234,11,23.596c0-2.597,1.606-4.455,4.321-5.041v-0.738c0-0.739,0.601-1.341,1.34-1.341h0.68	c0.739,0,1.34,0.602,1.34,1.341v0.626c0.917,0.085,1.672,0.245,2.297,0.488c0.692,0.268,1.105,0.942,1.105,1.805v1.425	c0,0.792-0.646,1.437-1.44,1.437c-0.218,0-0.427-0.047-0.623-0.14C19.474,23.2,18.353,22.77,17,22.77	c-0.815,0-1.229,0.199-1.229,0.591c0,0.534,0.857,0.905,2.271,1.454C20.135,25.627,23,26.74,23,30.193	c0,1.997-1.142,4.479-4.32,5.129v0.862c0,0.739-0.601,1.341-1.34,1.341H16.66z" opacity=".05"/><path d="M16.66,37.025c-0.463,0-0.84-0.377-0.84-0.841v-1.28c-1.132-0.138-2.361-0.452-3.305-0.854	c-0.473-0.199-0.778-0.658-0.778-1.169V31.26c0-0.52,0.42-0.941,0.937-0.941c0.146,0,0.294,0.035,0.426,0.104	c0.577,0.294,2.115,0.98,3.9,0.98c1.729,0,1.729-0.801,1.729-1.064c0-0.724-0.919-1.116-2.434-1.677	c-2.023-0.749-4.795-1.775-4.795-5.065c0-2.909,2.155-4.277,4.321-4.626v-1.153c0-0.464,0.377-0.841,0.84-0.841h0.68	c0.463,0,0.84,0.377,0.84,0.841v1.09c1.078,0.065,1.938,0.227,2.616,0.49c0.5,0.193,0.786,0.682,0.786,1.339v1.425	c0,0.517-0.422,0.937-0.94,0.937c-0.142,0-0.279-0.03-0.409-0.092C19.648,22.73,18.449,22.27,17,22.27	c-0.788,0-1.729,0.189-1.729,1.091c0,0.87,0.984,1.297,2.59,1.92c2.066,0.803,4.639,1.802,4.639,4.913	c0,1.923-1.143,4.25-4.32,4.709v1.282c0,0.464-0.377,0.841-0.84,0.841H16.66z" opacity=".07"/><path fill="#fff" d="M22,30.193c0-4.897-7.229-3.94-7.229-6.833c0-1.51,1.698-1.59,2.229-1.59	c1.276,0,2.508,0.342,3.447,0.783c0.296,0.139,0.636-0.067,0.636-0.393v-1.425c0-0.478-0.18-0.761-0.467-0.873	c-0.644-0.25-1.568-0.433-2.935-0.478v-1.568c0-0.188-0.152-0.34-0.34-0.34h-0.68c-0.188,0-0.34,0.152-0.34,0.34v1.593	C14.199,19.615,12,20.812,12,23.596c0,5.076,7.229,4.069,7.229,6.742c0,0.84-0.537,1.564-2.229,1.564	c-1.701,0-3.264-0.594-4.129-1.036c-0.291-0.149-0.634,0.067-0.634,0.394v1.622c0,0.311,0.187,0.588,0.474,0.709	c1.025,0.435,2.4,0.765,3.609,0.861v1.733c0,0.188,0.152,0.34,0.34,0.34h0.68c0.188,0,0.34-0.152,0.34-0.34v-1.729	C20.853,34.192,22,32.068,22,30.193z"/></svg>