<svg xmlns="http://www.w3.org/2000/svg" viewBox="0 0 48 48"><linearGradient id="hRgrr_PjhpUTeSijYJxA8a" x1="47.046" x2="40.779" y1="24" y2="24" gradientUnits="userSpaceOnUse"><stop offset="0" stop-color="#199ae0"/><stop offset="1" stop-color="#0782d8"/></linearGradient><path fill="url(#hRgrr_PjhpUTeSijYJxA8a)" d="M44,16c0.551,0,1,0.449,1,1v8.667c0,1.215-0.725,2.302-1.846,2.769L37,31V16H44 M44,14h-9v20	l8.923-3.718C45.786,29.506,47,27.685,47,25.667V17C47,15.343,45.657,14,44,14L44,14z"/><linearGradient id="hRgrr_PjhpUTeSijYJxA8b" x1="20.701" x2="30.201" y1="8.197" y2="39.365" gradientUnits="userSpaceOnUse"><stop offset="0" stop-color="#33bef0"/><stop offset="1" stop-color="#0a85d9"/></linearGradient><path fill="url(#hRgrr_PjhpUTeSijYJxA8b)" d="M39,8H9C8.448,8,8,8.448,8,9v18c0,5,4,13,4,13h24c0,0,4-8,4-13V9C40,8.448,39.552,8,39,8z"/><radialGradient id="hRgrr_PjhpUTeSijYJxA8c" cx="24" cy="23" r="8" gradientUnits="userSpaceOnUse"><stop offset="0"/><stop offset="1" stop-opacity="0"/></radialGradient><circle cx="24" cy="23" r="8" fill="url(#hRgrr_PjhpUTeSijYJxA8c)"/><linearGradient id="hRgrr_PjhpUTeSijYJxA8d" x1="24" x2="24" y1="38.264" y2="41.964" gradientUnits="userSpaceOnUse"><stop offset="0" stop-color="#32bdef"/><stop offset="1" stop-color="#1ea2e4"/></linearGradient><path fill="url(#hRgrr_PjhpUTeSijYJxA8d)" d="M8.904,42h30.192c2.294,0,4.294-1.561,4.851-3.787L44,38H4l0.053,0.213	C4.61,40.439,6.61,42,8.904,42z"/><circle cx="24" cy="23" r="7" fill="#35c1f1"/></svg>