<svg xmlns="http://www.w3.org/2000/svg" viewBox="0 0 48 48"><path fill="#1a9ba1" d="M2.569,34.456c0,0,2.204-2.614,5.031-3.563c2.827-0.948,9.297-2.244,9.666-0.573	c-1.117,0.156-1.511,1.195-1.499,1.905c0.008,0.461,0.068,2.6,0.11,4.046c0.023,0.802-0.499,1.519-1.269,1.744l-7.432,2.169	c-0.806,0.235-1.666-0.13-2.056-0.873L2.569,34.456z"/><path fill="#1a9ba1" d="M45.431,34.456c0,0-2.204-2.614-5.031-3.563c-2.827-0.948-9.297-2.244-9.666-0.573	c1.117,0.156,1.511,1.195,1.499,1.905c-0.008,0.461-0.068,2.6-0.11,4.046c-0.023,0.802,0.499,1.519,1.269,1.744l7.432,2.169	c0.806,0.235,1.666-0.13,2.056-0.873L45.431,34.456z"/><path fill="#37c6d0" d="M24,29.889c7.636,0,14.88,1.647,21.431,4.567l0.502-1.883c0.246-0.922-0.207-1.901-1.083-2.279	C38.454,27.535,31.408,26,24,26S9.546,27.535,3.149,30.293c-0.876,0.378-1.329,1.357-1.083,2.279l0.502,1.883	C9.12,31.535,16.364,29.889,24,29.889z"/><path fill="#007ad9" d="M25,16h-2c-0.552,0-1-0.448-1-1V5c0-0.552,0.448-1,1-1h2c0.552,0,1,0.448,1,1v10	C26,15.552,25.552,16,25,16z"/><path fill="#007ad9" d="M36.895,19.447l-1.789-0.895c-0.494-0.247-0.694-0.848-0.447-1.342L38.764,9	c0.247-0.494,0.848-0.694,1.342-0.447l1.789,0.895c0.494,0.247,0.694,0.848,0.447,1.342L38.236,19	C37.989,19.494,37.389,19.694,36.895,19.447z"/><path fill="#007ad9" d="M9.781,19.277l-4.891-7.336c-0.306-0.46-0.182-1.08,0.277-1.387l1.664-1.109	c0.46-0.306,1.08-0.182,1.387,0.277l4.891,7.336c0.306,0.46,0.182,1.08-0.277,1.387l-1.664,1.109	C10.708,19.861,10.088,19.737,9.781,19.277z"/></svg>