<svg xmlns="http://www.w3.org/2000/svg" xmlns:xlink="http://www.w3.org/1999/xlink" data-name="Слой 1" viewBox="0 0 48 48"><defs><linearGradient id="T8PzAoV4UDiOGaikC9byob" x1="24" x2="24" y1="-9.118" y2="52.471" gradientUnits="userSpaceOnUse"><stop offset="0" stop-color="#ffcf7b"/><stop offset=".196" stop-color="#fecd76"/><stop offset=".439" stop-color="#fac666"/><stop offset=".709" stop-color="#f3bc4d"/><stop offset=".995" stop-color="#eaad2a"/><stop offset="1" stop-color="#eaad29"/></linearGradient><linearGradient id="T8PzAoV4UDiOGaikC9byoa" x1="24" x2="24" y1="-5.059" y2="17.984" gradientUnits="userSpaceOnUse"><stop offset="0" stop-color="#d4943b"/><stop offset="1" stop-color="#c2620e"/></linearGradient><linearGradient id="T8PzAoV4UDiOGaikC9byoc" x1="24" x2="24" y1="28.435" y2="2.98" data-name="Безымянный градиент 17" gradientUnits="userSpaceOnUse"><stop offset=".002" stop-color="#454545"/><stop offset=".013" stop-color="#464646"/><stop offset=".562" stop-color="#626262"/><stop offset="1" stop-color="#6d6d6d"/></linearGradient><linearGradient id="T8PzAoV4UDiOGaikC9byod" x1="24" x2="24" y1="28.295" y2="32.668" xlink:href="#T8PzAoV4UDiOGaikC9byoa"/></defs><path fill="url(#T8PzAoV4UDiOGaikC9byob)" d="M35,43H13a1.99945,1.99945,0,0,1-2-2L6,20,24,3,42,20,37,41A1.99945,1.99945,0,0,1,35,43Z"/><path fill="url(#T8PzAoV4UDiOGaikC9byoa)" d="M44.495,19.507,25.326,2.503a1.99929,1.99929,0,0,0-2.652,0L3.505,19.507a.99869.99869,0,0,0-.064,1.43l1.636,1.745a.9995.9995,0,0,0,1.39.067L24,7.428,41.533,22.75a1.0005,1.0005,0,0,0,1.39-.067l1.636-1.745A.99983.99983,0,0,0,44.495,19.507Z"/><path d="M24,7.43,6.62,22.62l.13.54.13.52a1.43751,1.43751,0,0,0,.25-.18L24,8.76,40.88,23.5a1.07684,1.07684,0,0,0,.24.18l.13-.52.13-.54Z" opacity=".05"/><path d="M24,7.43,6.62,22.62l.13.54c.02-.01.03-.03.05-.04L24,8.09,41.2,23.13c.02.01.03.03.05.03l.13-.54Z" opacity=".07"/><circle cx="24" cy="23" r="6" fill="url(#T8PzAoV4UDiOGaikC9byoc)"/><g><path d="M30,32a1,1,0,0,1,0,2H18a1,1,0,0,1,0-2H30m0-1H18a2,2,0,0,0,0,4H30a2,2,0,0,0,0-4Z" opacity=".05"/><path d="M30,32a1,1,0,0,1,0,2H18a1,1,0,0,1,0-2H30m0-.5H18a1.5,1.5,0,0,0,0,3H30a1.5,1.5,0,0,0,0-3Z" opacity=".07"/><rect width="14" height="2" x="17" y="32" fill="url(#T8PzAoV4UDiOGaikC9byod)" rx="1"/></g></svg>