<svg xmlns="http://www.w3.org/2000/svg" viewBox="0 0 48 48"><radialGradient id="hcQJNkdJyn5_LSWRv3JWsa" cx="14.502" cy="1489.521" r="11.236" gradientTransform="matrix(1.0389 0 0 1.0625 21.009 -1546.438)" gradientUnits="userSpaceOnUse"><stop offset=".55" stop-color="#e4e4e6"/><stop offset=".73" stop-color="#e1e2e4"/><stop offset=".854" stop-color="#d8dadc"/><stop offset=".961" stop-color="#c9cdcf"/><stop offset="1" stop-color="#c1c6c9"/></radialGradient><ellipse cx="36" cy="39" fill="url(#hcQJNkdJyn5_LSWRv3JWsa)" rx="11" ry="9"/><linearGradient id="hcQJNkdJyn5_LSWRv3JWsb" x1="31.064" x2="41.075" y1="1530.564" y2="1540.575" gradientTransform="translate(0 -1498)" gradientUnits="userSpaceOnUse"><stop offset="0" stop-color="#32bdef"/><stop offset="1" stop-color="#1ea2e4"/></linearGradient><ellipse cx="36" cy="37.5" fill="url(#hcQJNkdJyn5_LSWRv3JWsb)" rx="8" ry="7.5"/><radialGradient id="hcQJNkdJyn5_LSWRv3JWsc" cx="10.326" cy="1506.155" r="8.738" gradientTransform="translate(23.201 -1533.575) scale(1.0397)" gradientUnits="userSpaceOnUse"><stop offset="0" stop-color="#4b4b4b"/><stop offset=".531" stop-color="#393939"/><stop offset="1" stop-color="#252525"/></radialGradient><circle cx="36" cy="37.5" r="3.5" fill="url(#hcQJNkdJyn5_LSWRv3JWsc)"/><circle cx="33.5" cy="35.5" r="1.5" fill="#fff"/><linearGradient id="hcQJNkdJyn5_LSWRv3JWsd" x1="11" x2="11" y1="18.993" y2="15.848" gradientTransform="matrix(1 0 0 -1 0 50)" gradientUnits="userSpaceOnUse"><stop offset=".051" stop-color="#c1c6c9"/><stop offset=".325" stop-color="#c9cdcf"/><stop offset=".493" stop-color="#d8dadc"/><stop offset=".672" stop-color="#e1e2e4"/><stop offset="1" stop-color="#e4e4e6"/></linearGradient><path fill="url(#hcQJNkdJyn5_LSWRv3JWsd)" d="M16,40H3c-0.552,0-1-0.447-1-1s0.448-1,1-1h13c1.103,0,2-0.897,2-2v-8c0-0.553,0.448-1,1-1	s1,0.447,1,1v8C20,38.206,18.206,40,16,40z"/><path fill="#999" d="M20,31h-2c-1.657,0-3-1.343-3-3v-2h8v2C23,29.657,21.657,31,20,31z"/><path fill="#666" d="M36,7v20H12C6.48,27,2,22.52,2,17S6.48,7,12,7H36z"/><circle cx="36" cy="17" r="10" fill="#ccc"/><linearGradient id="hcQJNkdJyn5_LSWRv3JWse" x1="31.137" x2="41.879" y1="42.146" y2="21.942" gradientTransform="matrix(1 0 0 -1 0 50)" gradientUnits="userSpaceOnUse"><stop offset="0" stop-color="#2aa4f4"/><stop offset="1" stop-color="#007ad9"/></linearGradient><circle cx="36" cy="17" r="8" fill="url(#hcQJNkdJyn5_LSWRv3JWse)"/><circle cx="36" cy="17" r="3" fill="#50e6ff"/></svg>