<svg xmlns="http://www.w3.org/2000/svg" viewBox="0 0 48 48"><linearGradient id="is97YhnlUIXdVqeL3oV9Oa" x1="27.5" x2="27.5" y1="40" y2="14" gradientUnits="userSpaceOnUse"><stop offset="0" stop-color="#92a3b0"/><stop offset=".015" stop-color="#a3b5c4"/><stop offset=".032" stop-color="#aec2d1"/><stop offset=".046" stop-color="#b2c6d6"/></linearGradient><path fill="url(#is97YhnlUIXdVqeL3oV9Oa)" d="M12,40c-0.298,0-0.594-0.133-0.791-0.388c-0.338-0.437-0.258-1.065,0.178-1.403l31-24	c0.435-0.338,1.065-0.259,1.403,0.178c0.338,0.437,0.258,1.065-0.178,1.403l-31,24C12.43,39.932,12.214,40,12,40z"/><linearGradient id="is97YhnlUIXdVqeL3oV9Ob" x1="35" x2="35" y1="38" y2="20" gradientTransform="matrix(-1 0 0 1 55 0)" gradientUnits="userSpaceOnUse"><stop offset="0" stop-color="#92a3b0"/><stop offset=".015" stop-color="#a3b5c4"/><stop offset=".032" stop-color="#aec2d1"/><stop offset=".046" stop-color="#b2c6d6"/></linearGradient><path fill="url(#is97YhnlUIXdVqeL3oV9Ob)" d="M33.999,38c-0.168,0-0.339-0.042-0.495-0.132l-28-16c-0.479-0.274-0.646-0.885-0.372-1.364	c0.274-0.479,0.886-0.646,1.364-0.372l28,16c0.479,0.274,0.646,0.885,0.372,1.364C34.684,37.819,34.346,38,33.999,38z"/><circle cx="12" cy="39" r="4" fill="#5c5f61"/><circle cx="12" cy="39" r="2" fill="#fff"/><linearGradient id="is97YhnlUIXdVqeL3oV9Oc" x1="41" x2="45" y1="15" y2="15" gradientUnits="userSpaceOnUse"><stop offset="0" stop-color="#1d59b3"/><stop offset="1" stop-color="#195bbc"/></linearGradient><circle cx="43" cy="15" r="2" fill="url(#is97YhnlUIXdVqeL3oV9Oc)"/><circle cx="34" cy="37" r="6" fill="#5c5f61"/><path fill="#fff" d="M34,33c-2.209,0-4,1.791-4,4c0,2.209,1.791,4,4,4s4-1.791,4-4C38,34.791,36.209,33,34,33z M34,39	c-1.105,0-2-0.895-2-2c0-1.105,0.895-2,2-2s2,0.895,2,2C36,38.105,35.105,39,34,39z"/><linearGradient id="is97YhnlUIXdVqeL3oV9Od" x1="21" x2="21" y1="32" y2="21" gradientUnits="userSpaceOnUse"><stop offset="0" stop-color="#3079d6"/><stop offset="1" stop-color="#297cd2"/></linearGradient><path fill="url(#is97YhnlUIXdVqeL3oV9Od)" d="M5,21l0.101,1.783L23,32l14-11H5z"/><linearGradient id="is97YhnlUIXdVqeL3oV9Oe" x1="16.046" x2="16.046" y1="21" y2="5.062" gradientUnits="userSpaceOnUse"><stop offset="0" stop-color="#42a3f2"/><stop offset="1" stop-color="#42a4eb"/></linearGradient><path fill="url(#is97YhnlUIXdVqeL3oV9Oe)" d="M5.58,21l-1.23-1.117l8.957-13.941l2.179-0.881l11.829,3.989l0.425,1.616L19,21H5.58z"/><linearGradient id="is97YhnlUIXdVqeL3oV9Of" x1="6" x2="6" y1="23" y2="21" gradientUnits="userSpaceOnUse"><stop offset="0" stop-color="#3079d6"/><stop offset="1" stop-color="#297cd2"/></linearGradient><path fill="url(#is97YhnlUIXdVqeL3oV9Of)" d="M8,21c0,1.105-0.895,2-2,2s-2-0.895-2-2H8z"/><linearGradient id="is97YhnlUIXdVqeL3oV9Og" x1="6" x2="6" y1="21" y2="19" gradientTransform="rotate(180 6 20)" gradientUnits="userSpaceOnUse"><stop offset="0" stop-color="#42a3f2"/><stop offset="1" stop-color="#42a4eb"/></linearGradient><path fill="url(#is97YhnlUIXdVqeL3oV9Og)" d="M4,21c0-1.105,0.895-2,2-2s2,0.895,2,2H4z"/><linearGradient id="is97YhnlUIXdVqeL3oV9Oh" x1="15" x2="15" y1="9" y2="5" gradientUnits="userSpaceOnUse"><stop offset="0" stop-color="#42a3f2"/><stop offset="1" stop-color="#42a4eb"/></linearGradient><circle cx="15" cy="7" r="2" fill="url(#is97YhnlUIXdVqeL3oV9Oh)"/><linearGradient id="is97YhnlUIXdVqeL3oV9Oi" x1="27" x2="27" y1="11" y2="9" gradientUnits="userSpaceOnUse"><stop offset="0" stop-color="#42a3f2"/><stop offset="1" stop-color="#42a4eb"/></linearGradient><circle cx="27" cy="10" r="1" fill="url(#is97YhnlUIXdVqeL3oV9Oi)"/></svg>