<svg xmlns="http://www.w3.org/2000/svg" viewBox="0 0 48 48"><linearGradient id="pu5aAwvbbIekxjeqLr7KPa" x1="5.5" x2="5.5" y1="16.84" y2="35.017" gradientUnits="userSpaceOnUse"><stop offset="0" stop-color="#a8e2f7"/><stop offset="1" stop-color="#47c1ff"/></linearGradient><path fill="url(#pu5aAwvbbIekxjeqLr7KPa)" d="M2.999,29.017c-0.15,0-0.303-0.034-0.446-0.105c-0.494-0.247-0.694-0.848-0.447-1.342l5-10	c0.247-0.493,0.847-0.693,1.342-0.447c0.494,0.247,0.694,0.848,0.447,1.342l-5,10C3.719,28.814,3.366,29.017,2.999,29.017z"/><linearGradient id="pu5aAwvbbIekxjeqLr7KPb" x1="42.5" x2="42.5" y1="16.84" y2="35.017" gradientUnits="userSpaceOnUse"><stop offset="0" stop-color="#a8e2f7"/><stop offset="1" stop-color="#47c1ff"/></linearGradient><path fill="url(#pu5aAwvbbIekxjeqLr7KPb)" d="M45.001,29.017c-0.367,0-0.72-0.202-0.896-0.553l-5-10c-0.247-0.494-0.047-1.095,0.447-1.342	c0.494-0.246,1.095-0.046,1.342,0.447l5,10c0.247,0.494,0.047,1.095-0.447,1.342C45.304,28.982,45.151,29.017,45.001,29.017z"/><linearGradient id="pu5aAwvbbIekxjeqLr7KPc" x1="24.994" x2="24.994" y1="22.252" y2="-2.924" gradientUnits="userSpaceOnUse"><stop offset="0" stop-color="#d4943b"/><stop offset="1" stop-color="#c2620e"/><stop offset="1" stop-color="#c2620e"/></linearGradient><path fill="url(#pu5aAwvbbIekxjeqLr7KPc)" d="M32.892,3.469L18.88,31.122c-0.25,0.493-0.851,0.69-1.344,0.44	c-0.493-0.25-0.69-0.851-0.44-1.344L31.108,2.565c0.25-0.493,0.851-0.69,1.344-0.44C32.944,2.374,33.141,2.976,32.892,3.469z"/><linearGradient id="pu5aAwvbbIekxjeqLr7KPd" x1="24" x2="24" y1="10.943" y2="24.709" gradientUnits="userSpaceOnUse"><stop offset="0" stop-color="#fed100"/><stop offset="1" stop-color="#e38101"/></linearGradient><path fill="url(#pu5aAwvbbIekxjeqLr7KPd)" d="M31.547,12.017c-0.918-0.002-1.801,0.126-2.629,0.364c-2.684,0.771-7.152,0.771-9.836,0	c-0.827-0.238-1.711-0.366-2.629-0.364c-4.5,0.008-8.312,3.283-8.449,7.266c-0.146,4.249,3.7,7.734,8.467,7.734	c3.283,0,6.123-1.657,7.529-4.074c1.406,2.418,4.247,4.074,7.529,4.074c4.766,0,8.613-3.485,8.467-7.734	C39.859,15.3,36.047,12.025,31.547,12.017z"/><linearGradient id="pu5aAwvbbIekxjeqLr7KPe" x1="30.554" x2="30.554" y1="22.252" y2="-2.924" gradientUnits="userSpaceOnUse"><stop offset="0" stop-color="#d4943b"/><stop offset="1" stop-color="#c2620e"/><stop offset="1" stop-color="#c2620e"/></linearGradient><path fill="url(#pu5aAwvbbIekxjeqLr7KPe)" d="M40.793,5.626L21.901,30.204c-0.337,0.438-0.964,0.52-1.402,0.183	c-0.438-0.337-0.52-0.964-0.183-1.402L39.207,4.407c0.337-0.438,0.964-0.52,1.402-0.183C41.047,4.56,41.129,5.188,40.793,5.626z"/><linearGradient id="pu5aAwvbbIekxjeqLr7KPf" x1="24" x2="24" y1="8.37" y2="21.167" gradientUnits="userSpaceOnUse"><stop offset="0" stop-color="#fed100"/><stop offset="1" stop-color="#e38101"/></linearGradient><path fill="url(#pu5aAwvbbIekxjeqLr7KPf)" d="M31.529,25.017c-2.473,0-4.696-1.18-5.8-3.08L24,18.964l-1.729,2.973	c-1.104,1.9-3.327,3.08-5.8,3.08c-1.94,0-3.763-0.735-5.001-2.017c-0.992-1.026-1.513-2.322-1.467-3.649	c0.099-2.885,3.055-5.328,6.454-5.334c0.721,0,1.413,0.097,2.072,0.286c1.473,0.424,3.416,0.657,5.471,0.657	s3.998-0.233,5.471-0.657c0.66-0.189,1.352-0.286,2.055-0.286c3.417,0.006,6.372,2.449,6.471,5.335	c0.046,1.326-0.475,2.622-1.467,3.648C35.292,24.281,33.469,25.017,31.529,25.017z"/><linearGradient id="pu5aAwvbbIekxjeqLr7KPg" x1="24" x2="24" y1="48.822" y2="18.015" gradientUnits="userSpaceOnUse"><stop offset="0" stop-color="#2aa4f4"/><stop offset="1" stop-color="#007ad9"/></linearGradient><path fill="url(#pu5aAwvbbIekxjeqLr7KPg)" d="M40.994,18.213l-0.342,3.114l-2.526,21.772c-0.118,1.088-1.038,1.918-2.13,1.918H12.003	c-1.092,0-2.012-0.83-2.13-1.918L7.348,21.326l-0.342-3.114c-0.064-0.636,0.428-1.196,1.07-1.196h31.848	C40.566,17.017,41.059,17.577,40.994,18.213z"/><path d="M40.81,17.477c0,0.06-0.01,0.13-0.03,0.2l-3.32,9.97c-0.28,0.82-1.04,1.37-1.9,1.37H12.44c-0.86,0-1.62-0.55-1.9-1.37 l-3.32-9.97c-0.02-0.07-0.03-0.14-0.03-0.2c-0.14,0.2-0.21,0.46-0.18,0.73l0.07,0.61l0.25,2.36l2.27,6.79 c0.4,1.23,1.55,2.05,2.84,2.05h23.12c1.29,0,2.44-0.82,2.84-2.05l2.27-6.79l0.25-2.36l0.07-0.61 C41.02,17.936,40.95,17.676,40.81,17.477z" opacity=".05"/><path d="M40.81,17.477c0,0.06-0.01,0.13-0.03,0.2l-3.32,9.97c-0.28,0.82-1.04,1.37-1.9,1.37H12.44c-0.86,0-1.62-0.55-1.9-1.37 l-3.32-9.97c-0.02-0.07-0.03-0.14-0.03-0.2c-0.14,0.2-0.21,0.46-0.18,0.73l0.07,0.61l2.99,8.99c0.34,1.02,1.29,1.71,2.37,1.71 h23.12c1.08,0,2.03-0.69,2.37-1.71l2.99-8.99l0.07-0.61C41.02,17.936,40.95,17.676,40.81,17.477z" opacity=".07"/><linearGradient id="pu5aAwvbbIekxjeqLr7KPh" x1="24" x2="24" y1="14.075" y2="32.959" gradientUnits="userSpaceOnUse"><stop offset="0" stop-color="#a8e2f7"/><stop offset="1" stop-color="#47c1ff"/></linearGradient><path fill="url(#pu5aAwvbbIekxjeqLr7KPh)" d="M35.558,29.017H12.442c-0.861,0-1.625-0.551-1.897-1.368l-3.325-9.974	c-0.108-0.324,0.133-0.658,0.474-0.658h32.613c0.341,0,0.582,0.334,0.474,0.658l-3.325,9.974	C37.184,28.466,36.419,29.017,35.558,29.017z"/></svg>