<svg xmlns="http://www.w3.org/2000/svg" viewBox="0 0 48 48"><linearGradient id="KYJx_BRlsTsPOHs39Zetfa" x1="39.001" x2="41.528" y1="1047.5" y2="1047.5" gradientTransform="translate(0 -1018)" gradientUnits="userSpaceOnUse"><stop offset="0" stop-color="#c48f0c"/><stop offset=".251" stop-color="#d19b16"/><stop offset=".619" stop-color="#dca51f"/><stop offset="1" stop-color="#e0a922"/></linearGradient><path fill="url(#KYJx_BRlsTsPOHs39Zetfa)" d="M39,25h-1v9h1.3c1,0,1.8-0.7,2-1.7l0.7-3.8C42.3,26.7,40.9,25,39,25z"/><linearGradient id="KYJx_BRlsTsPOHs39Zetfb" x1="-2991" x2="-2988.472" y1="1047.5" y2="1047.5" gradientTransform="matrix(-1 0 0 1 -2982 -1018)" gradientUnits="userSpaceOnUse"><stop offset="0" stop-color="#c48f0c"/><stop offset=".251" stop-color="#d19b16"/><stop offset=".619" stop-color="#dca51f"/><stop offset="1" stop-color="#e0a922"/></linearGradient><path fill="url(#KYJx_BRlsTsPOHs39Zetfb)" d="M9,25h1v9H8.7c-1,0-1.8-0.7-2-1.7L6,28.5C5.7,26.7,7.1,25,9,25z"/><radialGradient id="KYJx_BRlsTsPOHs39Zetfc" cx="24" cy="1043.5" r="17.396" gradientTransform="translate(0 -1018)" gradientUnits="userSpaceOnUse"><stop offset="0" stop-color="#ffcf54"/><stop offset=".261" stop-color="#fdcb4d"/><stop offset=".639" stop-color="#f7c13a"/><stop offset="1" stop-color="#f0b421"/></radialGradient><path fill="url(#KYJx_BRlsTsPOHs39Zetfc)" d="M24,6C16.6,6,9,9,9,25c0,1.3,0,5.9,0,7.3C9,38,18,45,24,45s15-7,15-12.7c0-1.4,0-6,0-7.3	C39,9,31.4,6,24,6z"/><path fill="#d59f1a" d="M27,37h-6c-0.552,0-1-0.448-1-1v0c0-0.552,0.448-1,1-1h6c0.552,0,1,0.448,1,1v0	C28,36.552,27.552,37,27,37z"/><path fill="#3b3b3b" d="M29.001,24c-0.367,0-0.72-0.202-0.896-0.553c-0.247-0.494-0.047-1.095,0.447-1.342l4-2	c0.493-0.246,1.094-0.047,1.342,0.447c0.247,0.494,0.047,1.095-0.447,1.342l-4,2C29.304,23.966,29.151,24,29.001,24z"/><path fill="#3b3b3b" d="M18.999,24c-0.15,0-0.303-0.034-0.446-0.105l-4-2c-0.494-0.247-0.694-0.848-0.447-1.342	c0.248-0.494,0.848-0.693,1.342-0.447l4,2c0.494,0.247,0.694,0.848,0.447,1.342C19.719,23.798,19.366,24,18.999,24z"/><path fill="#b31523" d="M30.48,7.07C29.63,7.3,29,8.08,29,9v1c0,1.38-0.56,2.63-1.46,3.54C26.63,14.44,25.38,15,24,15	c-2.76,0-5-2.24-5-5V9c0-0.92-0.63-1.7-1.48-1.93C19.56,6.27,21.79,6,24,6S28.44,6.27,30.48,7.07z"/><path fill="#0370c8" d="M39,32c-11,0-11-2-15-2s-4,2-15,2c0-2,0-6,0-6h30C39,26,39,30,39,32z"/><circle cx="30.5" cy="26.5" r="1.5" fill="#3b3b3b"/><circle cx="17.5" cy="26.5" r="1.5" fill="#3b3b3b"/><path fill="#b31523" d="M37.91,36c-2.57,4.64-9.17,9-13.91,9s-11.34-4.36-13.91-9c0,0,3.91,1,13.91,1S37.91,36,37.91,36z"/></svg>