<svg xmlns="http://www.w3.org/2000/svg" xmlns:xlink="http://www.w3.org/1999/xlink" data-name="Слой 1" viewBox="0 0 48 48"><defs><linearGradient id="El3Y6JbaTcrxbMnkOSSLua" x1="10.923" x2="17.444" y1="34.423" y2="40.944" data-name="Безымянный градиент 9" gradientTransform="rotate(-45 12.25 35.75)" gradientUnits="userSpaceOnUse"><stop offset="0" stop-color="#f09801"/><stop offset="1" stop-color="#e36001"/></linearGradient><linearGradient id="El3Y6JbaTcrxbMnkOSSLub" x1="9.59" x2="13.553" y1="33.09" y2="37.053" gradientTransform="rotate(-45 12.937 36.438)" xlink:href="#El3Y6JbaTcrxbMnkOSSLua"/><linearGradient id="El3Y6JbaTcrxbMnkOSSLuc" x1="5" x2="21.301" y1="35.4" y2="35.4" data-name="Безымянный градиент 8" gradientUnits="userSpaceOnUse"><stop offset="0" stop-color="#ffda1c"/><stop offset="1" stop-color="#feb705"/></linearGradient></defs><rect width="4.243" height="10.607" x="10.129" y="30.447" fill="url(#El3Y6JbaTcrxbMnkOSSLua)" transform="rotate(45 12.25 35.75)"/><path fill="#90a4ae" d="M35.02039,16.97961C36.92152,15.07848,39.72623,11.3702,39.14,3.27805a.32882.32882,0,0,0-.62456-.1215,29.28563,29.28563,0,0,1-6.495,8.82306L14,30l4,4Z"/><rect width="2.298" height="10.607" x="11.788" y="31.134" fill="url(#El3Y6JbaTcrxbMnkOSSLub)" transform="rotate(45 12.938 36.437)"/><path fill="url(#El3Y6JbaTcrxbMnkOSSLuc)" d="M15,44.80078A6.2846,6.2846,0,0,1,10.543,42.957l-5.25-5.25A.99989.99989,0,0,1,6.707,36.293l5.25,5.25A4.30341,4.30341,0,1,0,18.043,35.457l-7.75-7.75A.99989.99989,0,0,1,11.707,26.293l7.75,7.75A6.30078,6.30078,0,0,1,15,44.80078Z"/></svg>