<svg xmlns="http://www.w3.org/2000/svg" viewBox="0 0 48 48"><linearGradient id="S570cBBn3eFmeKXnEMjlNa" x1="8.789" x2="13.254" y1="13" y2="17.227" gradientUnits="userSpaceOnUse"><stop offset="0" stop-color="#21ad64"/><stop offset="1" stop-color="#088242"/></linearGradient><path fill="url(#S570cBBn3eFmeKXnEMjlNa)" d="M14.5,21.5c-0.768,0-1.535-0.293-2.121-0.879l-3.5-3.5c-1.172-1.171-1.172-3.071,0-4.242	c1.172-1.172,3.07-1.172,4.242,0l3.5,3.5c1.172,1.171,1.172,3.071,0,4.242C16.035,21.207,15.268,21.5,14.5,21.5z"/><linearGradient id="S570cBBn3eFmeKXnEMjlNb" x1="39.582" x2="35.014" y1="12.451" y2="16.985" gradientUnits="userSpaceOnUse"><stop offset="0" stop-color="#21ad64"/><stop offset="1" stop-color="#088242"/></linearGradient><path fill="url(#S570cBBn3eFmeKXnEMjlNb)" d="M33.5,21.5c-0.768,0-1.535-0.293-2.121-0.879c-1.172-1.171-1.172-3.071,0-4.242l3.5-3.5	c1.172-1.172,3.07-1.172,4.242,0c1.172,1.171,1.172,3.071,0,4.242l-3.5,3.5C35.035,21.207,34.268,21.5,33.5,21.5z"/><linearGradient id="S570cBBn3eFmeKXnEMjlNc" x1="9.112" x2="12.896" y1="39.822" y2="36.106" gradientUnits="userSpaceOnUse"><stop offset="0" stop-color="#21ad64"/><stop offset="1" stop-color="#088242"/></linearGradient><path fill="url(#S570cBBn3eFmeKXnEMjlNc)" d="M11,41c-0.768,0-1.535-0.293-2.121-0.879c-1.172-1.171-1.172-3.071,0-4.242l3.5-3.5	c1.172-1.172,3.07-1.172,4.242,0c1.172,1.171,1.172,3.071,0,4.242l-3.5,3.5C12.535,40.707,11.768,41,11,41z"/><linearGradient id="S570cBBn3eFmeKXnEMjlNd" x1="38.806" x2="34.647" y1="39.544" y2="35.691" gradientUnits="userSpaceOnUse"><stop offset="0" stop-color="#21ad64"/><stop offset="1" stop-color="#088242"/></linearGradient><path fill="url(#S570cBBn3eFmeKXnEMjlNd)" d="M37,41c-0.768,0-1.535-0.293-2.121-0.879l-3.5-3.5c-1.172-1.171-1.172-3.071,0-4.242	c1.172-1.172,3.07-1.172,4.242,0l3.5,3.5c1.172,1.171,1.172,3.071,0,4.242C38.535,40.707,37.768,41,37,41z"/><linearGradient id="S570cBBn3eFmeKXnEMjlNe" x1="24" x2="24" y1="45.057" y2="43.077" gradientUnits="userSpaceOnUse"><stop offset="0" stop-color="#21ad64"/><stop offset="1" stop-color="#088242"/></linearGradient><path fill="url(#S570cBBn3eFmeKXnEMjlNe)" d="M24,45L24,45c-0.552,0-1-0.448-1-1v-5.25h2V44C25,44.552,24.552,45,24,45z"/><linearGradient id="S570cBBn3eFmeKXnEMjlNf" x1="24" x2="24" y1="3.807" y2="11.449" gradientUnits="userSpaceOnUse"><stop offset="0" stop-color="#21ad64"/><stop offset="1" stop-color="#088242"/></linearGradient><path fill="url(#S570cBBn3eFmeKXnEMjlNf)" d="M29,13.5H19V8c0-2.761,2.239-5,5-5h0c2.761,0,5,2.239,5,5V13.5z"/><linearGradient id="S570cBBn3eFmeKXnEMjlNg" x1="21" x2="23" y1="7" y2="7" gradientUnits="userSpaceOnUse"><stop offset="0" stop-color="#4c4c4c"/><stop offset="1" stop-color="#343434"/></linearGradient><circle cx="22" cy="7" r="1" fill="url(#S570cBBn3eFmeKXnEMjlNg)"/><linearGradient id="S570cBBn3eFmeKXnEMjlNh" x1="25" x2="27" y1="7" y2="7" gradientUnits="userSpaceOnUse"><stop offset="0" stop-color="#4c4c4c"/><stop offset="1" stop-color="#343434"/></linearGradient><circle cx="26" cy="7" r="1" fill="url(#S570cBBn3eFmeKXnEMjlNh)"/><linearGradient id="S570cBBn3eFmeKXnEMjlNi" x1="24" x2="24" y1="9.773" y2="53.955" gradientUnits="userSpaceOnUse"><stop offset="0" stop-color="#d4943b"/><stop offset="1" stop-color="#c2620e"/><stop offset="1" stop-color="#c2620e"/></linearGradient><ellipse cx="24" cy="26.5" fill="url(#S570cBBn3eFmeKXnEMjlNi)" rx="14" ry="16.5"/><linearGradient id="S570cBBn3eFmeKXnEMjlNj" x1="24" x2="24" y1="10.063" y2="47.909" gradientUnits="userSpaceOnUse"><stop offset="0" stop-color="#a34f27"/><stop offset=".587" stop-color="#8b3817"/><stop offset="1" stop-color="#802d10"/></linearGradient><ellipse cx="24" cy="26.5" fill="url(#S570cBBn3eFmeKXnEMjlNj)" rx="12" ry="14.5"/><linearGradient id="S570cBBn3eFmeKXnEMjlNk" x1="24" x2="24" y1="9.773" y2="53.955" gradientUnits="userSpaceOnUse"><stop offset="0" stop-color="#d4943b"/><stop offset="1" stop-color="#c2620e"/><stop offset="1" stop-color="#c2620e"/></linearGradient><path fill="url(#S570cBBn3eFmeKXnEMjlNk)" d="M37,25h-7.323l-1.504-3.759l5.284-5.284c0.391-0.391,0.391-1.023,0-1.414	s-1.023-0.391-1.414,0L26.586,20h-5.172l-5.457-5.457c-0.391-0.391-1.023-0.391-1.414,0s-0.391,1.023,0,1.414l5.284,5.284L18.323,25	H11c-0.553,0-1,0.448-1,1s0.447,1,1,1h7.28l1.577,4.73l-5.313,5.313c-0.391,0.391-0.391,1.023,0,1.414	c0.195,0.195,0.451,0.293,0.707,0.293s0.512-0.098,0.707-0.293L21.414,33h5.172l5.457,5.457c0.195,0.195,0.451,0.293,0.707,0.293	s0.512-0.098,0.707-0.293c0.391-0.391,0.391-1.023,0-1.414l-5.313-5.313L29.72,27H37c0.553,0,1-0.448,1-1S37.553,25,37,25z M26.279,31h-4.559l-1.656-4.969L21.677,22h4.646l1.612,4.031L26.279,31z"/></svg>