<svg xmlns="http://www.w3.org/2000/svg" viewBox="0 0 48 48"><linearGradient id="WTUpMVOk7dLQwmvFXogzHa" x1="30.624" x2="30.624" y1="3.529" y2="43.312" gradientUnits="userSpaceOnUse"><stop offset="0" stop-color="#3079d6"/><stop offset="1" stop-color="#297cd2"/></linearGradient><path fill="url(#WTUpMVOk7dLQwmvFXogzHa)" d="M25.922,37.803c-0.14,0.458-0.196,0.938-0.163,1.417l0.273,3.999 c0.052,0.761,1.006,1.062,1.48,0.467l2.498-3.13c0.304-0.381,0.534-0.818,0.679-1.284l4.808-15.637l-4.761-1.484L25.922,37.803z"/><linearGradient id="WTUpMVOk7dLQwmvFXogzHb" x1="36.233" x2="36.233" y1="3.529" y2="43.312" gradientUnits="userSpaceOnUse"><stop offset="0" stop-color="#3079d6"/><stop offset="1" stop-color="#297cd2"/></linearGradient><path fill="url(#WTUpMVOk7dLQwmvFXogzHb)" d="M39.249,3.115c-1.313-0.413-2.71,0.322-3.12,1.642l-4.662,15.035l4.761,1.484l4.659-15.024 C41.296,4.932,40.563,3.527,39.249,3.115z"/><linearGradient id="WTUpMVOk7dLQwmvFXogzHc" x1="23.983" x2="29.332" y1="556.133" y2="556.133" gradientTransform="scale(1 -1) rotate(24.999 1333.377 282.624)" gradientUnits="userSpaceOnUse"><stop offset="0" stop-color="#42a3f2"/><stop offset="1" stop-color="#42a4eb"/></linearGradient><path fill="url(#WTUpMVOk7dLQwmvFXogzHc)" d="M30.736,22.152l4.761,1.484l0.733-2.359l-4.761-1.484L30.736,22.152z"/><path fill="#ed3675" d="M24.001,44c-0.305,0-0.604-0.138-0.801-0.4c-0.807-1.075-1.746-1.433-2.958-1.13	c-0.71,0.179-1.146-0.063-1.384-0.297c-0.558-0.546-0.387-1.29-0.25-1.888c0.015-0.065,0.033-0.145,0.05-0.226	c-0.322,0.103-0.602,0.34-0.994,0.689C17.036,41.306,16.255,42,15,42c-0.707,0-1.054-0.387-1.197-0.617	c-0.482-0.775-0.037-1.68,0.526-2.825c0.207-0.422,0.562-1.143,0.663-1.558c-0.521,0.006-1.416,0.658-2.207,1.233	C11.593,39.102,10.358,40,9,40c-2.243,0-4-2.636-4-6c0-7.993,4.646-12.25,8-12.25c3.084,0,5,2.395,5,6.25c0,0.552-0.447,1-1,1	s-1-0.448-1-1c0-1.587-0.39-4.25-3-4.25c-2.026,0-6,3.095-6,10.25c0,2.478,1.165,4,2,4c0.708,0,1.718-0.735,2.608-1.383	C12.75,35.785,13.829,35,15,35c1.029,0,1.525,0.45,1.761,0.828c0.636,1.022-0.01,2.337-0.636,3.61	c0.066-0.058,0.137-0.12,0.211-0.186C16.964,38.694,17.745,38,19,38c0.739,0,1.151,0.322,1.367,0.592	c0.436,0.547,0.379,1.222,0.267,1.792c1.645-0.135,3.067,0.551,4.166,2.016c0.332,0.442,0.242,1.069-0.2,1.4	C24.42,43.935,24.21,44,24.001,44z"/></svg>