<svg xmlns="http://www.w3.org/2000/svg" data-name="Слой 1" viewBox="0 0 48 48"><defs><linearGradient id="IN~RiSq_ltPeAoIVyTf89a" x1="16.237" x2="35.217" y1="1.495" y2="53.641" data-name="Безымянный градиент 51" gradientUnits="userSpaceOnUse"><stop offset="0" stop-color="#7dd8f3"/><stop offset="1" stop-color="#45b0d0"/></linearGradient><linearGradient id="IN~RiSq_ltPeAoIVyTf89b" x1="18.566" x2="31.056" y1="25.248" y2="59.565" data-name="Безымянный градиент 81" gradientUnits="userSpaceOnUse"><stop offset="0" stop-color="#0176d0"/><stop offset="1" stop-color="#16538c"/></linearGradient><linearGradient id="IN~RiSq_ltPeAoIVyTf89d" x1="22.25" x2="22.25" y1="-137.718" y2="-147.161" data-name="Безымянный градиент 49" gradientTransform="matrix(1 0 0 -1 0 -124)" gradientUnits="userSpaceOnUse"><stop offset="0" stop-color="#124787"/><stop offset=".923" stop-color="#173b75"/><stop offset="1" stop-color="#173a73"/></linearGradient><linearGradient id="IN~RiSq_ltPeAoIVyTf89e" x1="23.942" x2="25.401" y1="40.942" y2="42.401" data-name="Безымянный градиент 147" gradientUnits="userSpaceOnUse"><stop offset="0" stop-color="#dfe9f2"/><stop offset=".391" stop-color="#d6e0e9"/><stop offset="1" stop-color="#bfc8d1"/></linearGradient><radialGradient id="IN~RiSq_ltPeAoIVyTf89c" cx="39.545" cy="-147.787" r="13.918" data-name="Безымянный градиент 50" gradientTransform="matrix(1 0 0 -1 0 -124)" gradientUnits="userSpaceOnUse"><stop offset="0" stop-color="#ba84f5"/><stop offset=".129" stop-color="#b584f3"/><stop offset=".291" stop-color="#a585ee"/><stop offset=".47" stop-color="#8c87e6"/><stop offset=".662" stop-color="#6889db"/><stop offset=".862" stop-color="#3b8bcd"/><stop offset="1" stop-color="#178dc2"/></radialGradient></defs><path fill="url(#IN~RiSq_ltPeAoIVyTf89a)" d="M11,4H37a2,2,0,0,1,2,2V40H9V6A2,2,0,0,1,11,4Z"/><path fill="url(#IN~RiSq_ltPeAoIVyTf89b)" d="M39,38H9v4a1.99945,1.99945,0,0,0,2,2H37a1.99945,1.99945,0,0,0,2-2Z"/><path fill="#0d86ad" d="M34.5,28h-21a.50018.50018,0,0,1-.5-.5v-1a.50018.50018,0,0,1,.5-.5h21a.50018.50018,0,0,1,.5.5v1A.50018.50018,0,0,1,34.5,28Z"/><path fill="#0d86ad" d="M22.5,33h-9a.50018.50018,0,0,1-.5-.5v-1a.50018.50018,0,0,1,.5-.5h9a.50018.50018,0,0,1,.5.5v1A.50018.50018,0,0,1,22.5,33Z"/><path fill="#0d86ad" d="M34.5,33h-9a.50018.50018,0,0,1-.5-.5v-1a.50018.50018,0,0,1,.5-.5h9a.50018.50018,0,0,1,.5.5v1A.50018.50018,0,0,1,34.5,33Z"/><path fill="url(#IN~RiSq_ltPeAoIVyTf89c)" d="M34,9H14a1,1,0,0,0-1,1V22a1,1,0,0,0,1,1H34a1,1,0,0,0,1-1V10A1,1,0,0,0,34,9Z"/><path fill="#436dcd" d="M34.41,22.91A.94516.94516,0,0,1,34,23H21.67V19.25l3.84-3.64a1.17169,1.17169,0,0,1,1.63.03Z"/><circle cx="28" cy="12" r="1" fill="#fff"/><path fill="url(#IN~RiSq_ltPeAoIVyTf89d)" d="M31.5,23l-9.03-8.919a1.16644,1.16644,0,0,0-1.62763-.0214L13,21.5V22a1,1,0,0,0,1,1Z"/><path d="M24,40a1,1,0,1,1-1,1,1,1,0,0,1,1-1m0-1a2,2,0,1,0,2,2,2.00226,2.00226,0,0,0-2-2Z" opacity=".05"/><path d="M24,40a1,1,0,1,1-1,1,1,1,0,0,1,1-1m0-.5A1.5,1.5,0,1,0,25.5,41,1.50172,1.50172,0,0,0,24,39.5Z" opacity=".07"/><circle cx="24" cy="41" r="1" fill="url(#IN~RiSq_ltPeAoIVyTf89e)"/></svg>