<svg xmlns="http://www.w3.org/2000/svg" viewBox="0 0 48 48"><path fill="#424a52" d="M42,38.5c0-0.828-0.672-1.5-1.5-1.5S39,37.672,39,38.5c0,0.386,0,1.614,0,2 c0,0.828,0.672,1.5,1.5,1.5s1.5-0.672,1.5-1.5C42,40.114,42,38.886,42,38.5z"/><path fill="#424a52" d="M9,38.5C9,37.672,8.328,37,7.5,37S6,37.672,6,38.5c0,0.386,0,1.614,0,2C6,41.328,6.672,42,7.5,42 S9,41.328,9,40.5C9,40.114,9,38.886,9,38.5z"/><linearGradient id="o0E7A3~FCv85o0FC4Wl_Da" x1="24" x2="24" y1="8.485" y2="41.143" gradientUnits="userSpaceOnUse"><stop offset="0" stop-color="#889097"/><stop offset="1" stop-color="#64717c"/></linearGradient><path fill="url(#o0E7A3~FCv85o0FC4Wl_Da)" d="M43,8H5c-1.105,0-2,0.895-2,2v28c0,1.105,0.895,2,2,2h38c1.105,0,2-0.895,2-2V10 C45,8.895,44.105,8,43,8z"/><linearGradient id="o0E7A3~FCv85o0FC4Wl_Db" x1="29" x2="29" y1="11.956" y2="36.409" gradientUnits="userSpaceOnUse"><stop offset="0" stop-color="#636363"/><stop offset=".998" stop-color="#3b3b3b"/></linearGradient><circle cx="29" cy="24" r="12" fill="url(#o0E7A3~FCv85o0FC4Wl_Db)"/><linearGradient id="o0E7A3~FCv85o0FC4Wl_Dc" x1="8" x2="8" y1="26.436" y2="32.609" gradientUnits="userSpaceOnUse"><stop offset="0"/><stop offset="1" stop-opacity="0"/></linearGradient><path fill="url(#o0E7A3~FCv85o0FC4Wl_Dc)" d="M8,19c-0.552,0-1,0.448-1,1v12c0,0.552,0.448,1,1,1s1-0.448,1-1V20C9,19.448,8.552,19,8,19z"/><path fill="#e6e6e6" d="M8,17c-0.552,0-1,0.448-1,1v12c0,0.552,0.448,1,1,1s1-0.448,1-1V18C9,17.448,8.552,17,8,17z"/><path fill="#e6e6e6" d="M30.5,15.5L29,17l-1.5-1.5l1.166-1.166c0.184-0.184,0.483-0.184,0.667,0L30.5,15.5z"/><path fill="#e6e6e6" d="M30.5,32.5l-1.166,1.166c-0.184,0.184-0.483,0.184-0.667,0L27.5,32.5L29,31L30.5,32.5z"/><path fill="#e6e6e6" d="M37.5,25.5L36,24l1.5-1.5l1.166,1.166c0.184,0.184,0.184,0.483,0,0.667L37.5,25.5z"/><path fill="#e6e6e6" d="M20.5,25.5l-1.166-1.166c-0.184-0.184-0.184-0.483,0-0.667L20.5,22.5L22,24L20.5,25.5z"/><path fill="#e6e6e6" d="M34.549,17.389L32.5,17.938l-0.549-2.049l1.593-0.427c0.252-0.067,0.51,0.082,0.578,0.334	L34.549,17.389z"/><path fill="#e6e6e6" d="M26.049,32.111l-1.593,0.427c-0.252,0.067-0.51-0.082-0.578-0.334l-0.427-1.593l2.049-0.549	L26.049,32.111z"/><path fill="#e6e6e6" d="M35.611,29.549L35.062,27.5l2.049-0.549l0.427,1.593c0.067,0.252-0.082,0.51-0.334,0.578	L35.611,29.549z"/><path fill="#e6e6e6" d="M20.889,21.049l-0.427-1.593c-0.067-0.252,0.082-0.51,0.334-0.578l1.593-0.427l0.549,2.049	L20.889,21.049z"/><path fill="#e6e6e6" d="M37.111,21.049L35.062,20.5l0.549-2.049l1.593,0.427c0.252,0.067,0.401,0.326,0.334,0.578	L37.111,21.049z"/><path fill="#e6e6e6" d="M22.389,29.549l-1.593-0.427c-0.252-0.067-0.401-0.326-0.334-0.578l0.427-1.593l2.049,0.549	L22.389,29.549z"/><path fill="#e6e6e6" d="M31.951,32.111l0.549-2.049l2.049,0.549l-0.427,1.593c-0.067,0.252-0.326,0.401-0.578,0.334	L31.951,32.111z"/><path fill="#e6e6e6" d="M23.451,17.389l0.427-1.593c0.067-0.252,0.326-0.401,0.578-0.334l1.593,0.427L25.5,17.938	L23.451,17.389z"/><polygon fill="#50e6ff" points="12,26 12,22 14,24"/><g><linearGradient id="o0E7A3~FCv85o0FC4Wl_Dd" x1="29" x2="29" y1="15.025" y2="33.156" gradientUnits="userSpaceOnUse"><stop offset="0" stop-color="#889097"/><stop offset="1" stop-color="#76818a"/></linearGradient><circle cx="29" cy="24" r="9" fill="url(#o0E7A3~FCv85o0FC4Wl_Dd)"/></g></svg>