<svg xmlns="http://www.w3.org/2000/svg" width="48" height="48" viewBox="0 0 48 48"><linearGradient id="HguLTjY7VKh_llA8~ZKn9a" x1="46.523" x2="42.32" y1="21" y2="21" gradientUnits="userSpaceOnUse"><stop offset="0" stop-color="#ffd869"/><stop offset="1" stop-color="#fec52b"/></linearGradient><path fill="url(#HguLTjY7VKh_llA8~ZKn9a)" d="M45,29c0.552,0,1-0.448,1-1v-1.624V14c0-0.552-0.448-1-1-1h-5v16H45z"/><linearGradient id="HguLTjY7VKh_llA8~ZKn9b" x1="46.523" x2="42.32" y1="33.5" y2="33.5" gradientUnits="userSpaceOnUse"><stop offset="0" stop-color="#ffd869"/><stop offset="1" stop-color="#fec52b"/></linearGradient><path fill="url(#HguLTjY7VKh_llA8~ZKn9b)" d="M46,33c0-0.552-0.448-1-1-1h-5v3h5c0.552,0,1-0.448,1-1V33z"/><path d="M39.5,29H44V13h-6v17.5C38,29.672,38.672,29,39.5,29z" opacity=".05"/><path d="M39.5,32c-0.828,0-1.5-0.672-1.5-1.5V35h6v-3H39.5z" opacity=".05"/><path d="M39.5,32c-0.828,0-1.5-0.672-1.5-1.5s0.672-1.5,1.5-1.5H43V13h-6v22h6v-3H39.5z" opacity=".07"/><linearGradient id="HguLTjY7VKh_llA8~ZKn9c" x1="18.791" x2="26.203" y1="12.546" y2="39.001" gradientUnits="userSpaceOnUse"><stop offset="0" stop-color="#21ad64"/><stop offset="1" stop-color="#088242"/></linearGradient><path fill="url(#HguLTjY7VKh_llA8~ZKn9c)" d="M39.5,32c-0.828,0-1.5-0.672-1.5-1.5s0.672-1.5,1.5-1.5H42V13c0-1.105-0.895-2-2-2H4	c-1.105,0-2,0.895-2,2v8c1.657,0,3,1.343,3,3s-1.343,3-3,3v8c0,1.105,0.895,2,2,2h36c1.105,0,2-0.895,2-2v-3H39.5z"/><linearGradient id="HguLTjY7VKh_llA8~ZKn9d" x1="8.304" x2="36.471" y1="22.775" y2="32.109" gradientUnits="userSpaceOnUse"><stop offset="0" stop-color="#4c4c4c"/><stop offset="1" stop-color="#343434"/></linearGradient><path fill="url(#HguLTjY7VKh_llA8~ZKn9d)" d="M17,32H7c-0.552,0-1-0.448-1-1V17c0-0.552,0.448-1,1-1h10c0.552,0,1,0.448,1,1v14	C18,31.552,17.552,32,17,32z"/><linearGradient id="HguLTjY7VKh_llA8~ZKn9e" x1="9.59" x2="37.757" y1="18.894" y2="28.227" gradientUnits="userSpaceOnUse"><stop offset="0" stop-color="#4c4c4c"/><stop offset="1" stop-color="#343434"/></linearGradient><path fill="url(#HguLTjY7VKh_llA8~ZKn9e)" d="M30,32H20c-0.552,0-1-0.448-1-1V17c0-0.552,0.448-1,1-1h10c0.552,0,1,0.448,1,1v14	C31,31.552,30.552,32,30,32z"/><linearGradient id="HguLTjY7VKh_llA8~ZKn9f" x1="11.873" x2="40.04" y1="12.005" y2="21.339" gradientUnits="userSpaceOnUse"><stop offset="0" stop-color="#4c4c4c"/><stop offset="1" stop-color="#343434"/></linearGradient><path fill="url(#HguLTjY7VKh_llA8~ZKn9f)" d="M39,24h-6c-0.552,0-1-0.448-1-1v-6c0-0.552,0.448-1,1-1h6c0.552,0,1,0.448,1,1v6	C40,23.552,39.552,24,39,24z"/></svg>