<svg xmlns="http://www.w3.org/2000/svg" viewBox="0 0 48 48"><linearGradient id="HY5gKSQ3NdDDgsyr3bToZa" x1="24" x2="24" y1="46" y2="4" gradientUnits="userSpaceOnUse"><stop offset="0" stop-color="#ffda94"/><stop offset="1" stop-color="#fff0ce"/></linearGradient><path fill="url(#HY5gKSQ3NdDDgsyr3bToZa)" d="M24,4C9.7,4,7,13.4,7,25s8.9,21,17,21s17-9.4,17-21S38.3,4,24,4z"/><path fill="#cf1928" d="M30.858,16.496l-6.743,3.447c-0.072,0.037-0.157,0.037-0.229,0l-6.743-3.447 c-0.258-0.132-0.139-0.53,0.146-0.494l6.68,0.854c0.021,0.003,0.042,0.003,0.064,0l6.68-0.854 C30.997,15.966,31.115,16.365,30.858,16.496z M16.344,34.853l3.616-6.416c0.159-0.282-0.187-0.575-0.433-0.368l-5.424,4.583 c-0.13,0.11-0.139,0.308-0.019,0.429l1.808,1.833C16.026,35.05,16.25,35.02,16.344,34.853z M33.897,32.652l-5.424-4.583 c-0.246-0.208-0.592,0.086-0.433,0.368l3.616,6.416c0.094,0.167,0.318,0.197,0.452,0.061l1.808-1.833 C34.035,32.961,34.026,32.762,33.897,32.652z"/><linearGradient id="HY5gKSQ3NdDDgsyr3bToZb" x1="24" x2="24" y1="20" y2="27" gradientUnits="userSpaceOnUse"><stop offset="0" stop-color="#5e5e5e"/><stop offset="1" stop-color="#545454"/></linearGradient><path fill="url(#HY5gKSQ3NdDDgsyr3bToZb)" d="M21,23c0,2.2-1.8,4-4,4c-3.1,0-5-2.8-5-5c0-1.7,2.2-2,4.3-2H18C20.2,20,21,20.8,21,23z M27,23c0,2.2,1.8,4,4,4c3.1,0,5-2.8,5-5c0-1.7-2.2-2-4.3-2H30C27.8,20,27,20.8,27,23z"/><linearGradient id="HY5gKSQ3NdDDgsyr3bToZc" x1="24" x2="24" y1="3" y2="26" gradientUnits="userSpaceOnUse"><stop offset="0" stop-color="#5e5e5e"/><stop offset="1" stop-color="#545454"/></linearGradient><path fill="url(#HY5gKSQ3NdDDgsyr3bToZc)" d="M26,9h-4c-0.552,0-1-0.448-1-1V4.1C21,3.495,21.495,3,22.1,3h3.8C26.505,3,27,3.495,27,4.1V8 C27,8.552,26.552,9,26,9z M6.1,20C5.495,20,5,20.495,5,21.1v3.8C5,25.505,5.495,26,6.1,26H9c0.552,0,1-0.448,1-1v-4 c0-0.552-0.448-1-1-1H6.1z M38,21v4c0,0.552,0.448,1,1,1h2.9c0.605,0,1.1-0.495,1.1-1.1v-3.8c0-0.605-0.495-1.1-1.1-1.1H39 C38.448,20,38,20.448,38,21z"/><path fill="#751b0b" d="M15,10c0,0.6-0.4,1-1,1s-1-0.4-1-1s0.4-1,1-1S15,9.4,15,10z M14,13c-0.6,0-1,0.4-1,1s0.4,1,1,1 s1-0.4,1-1S14.6,13,14,13z M11,16c-0.6,0-1,0.4-1,1s0.4,1,1,1s1-0.4,1-1S11.6,16,11,16z M29,12c-0.6,0-1,0.4-1,1s0.4,1,1,1 s1-0.4,1-1S29.6,12,29,12z M24,12c-0.6,0-1,0.4-1,1s0.4,1,1,1s1-0.4,1-1S24.6,12,24,12z M19,12c-0.6,0-1,0.4-1,1s0.4,1,1,1 s1-0.4,1-1S19.6,12,19,12z M33,10c0,0.6,0.4,1,1,1s1-0.4,1-1s-0.4-1-1-1S33,9.4,33,10z M33,14c0,0.6,0.4,1,1,1s1-0.4,1-1 s-0.4-1-1-1S33,13.4,33,14z M36,17c0,0.6,0.4,1,1,1s1-0.4,1-1s-0.4-1-1-1S36,16.4,36,17z M24,30c-0.6,0-1,0.4-1,1s0.4,1,1,1 s1-0.4,1-1S24.6,30,24,30z M21,34c-0.6,0-1,0.4-1,1s0.4,1,1,1s1-0.4,1-1S21.6,34,21,34z M27,34c-0.6,0-1,0.4-1,1s0.4,1,1,1 s1-0.4,1-1S27.6,34,27,34z M21,38c-0.6,0-1,0.4-1,1s0.4,1,1,1s1-0.4,1-1S21.6,38,21,38z M27,38c-0.6,0-1,0.4-1,1s0.4,1,1,1 s1-0.4,1-1S27.6,38,27,38z M21,42c-0.6,0-1,0.4-1,1s0.4,1,1,1s1-0.4,1-1S21.6,42,21,42z M27,42c-0.6,0-1,0.4-1,1s0.4,1,1,1 s1-0.4,1-1S27.6,42,27,42z M16,38c-0.6,0-1,0.4-1,1s0.4,1,1,1s1-0.4,1-1S16.6,38,16,38z M32,38c-0.6,0-1,0.4-1,1s0.4,1,1,1 c0.6,0,1-0.4,1-1S32.6,38,32,38z M37,32c-0.6,0-1,0.4-1,1s0.4,1,1,1s1-0.4,1-1S37.6,32,37,32z M37,27c-0.6,0-1,0.4-1,1s0.4,1,1,1 s1-0.4,1-1S37.6,27,37,27z M11,32c-0.6,0-1,0.4-1,1s0.4,1,1,1s1-0.4,1-1S11.6,32,11,32z M11,27c-0.6,0-1,0.4-1,1s0.4,1,1,1 s1-0.4,1-1S11.6,27,11,27z"/></svg>