<svg xmlns="http://www.w3.org/2000/svg" viewBox="0 0 48 48"><path fill="#21a366" d="M35.379,18.826c-4.914,4.923-11.717,2.651-11.717,2.651L38.781,6.329	C38.781,6.329,40.292,13.903,35.379,18.826z"/><path fill="#33c481" d="M23.661,21.476c0,0-2.646-6.438,2.646-11.74s12.473-3.408,12.473-3.408L23.661,21.476z"/><path fill="#21a366" d="M21.429,6.074c5.538,5.528,2.982,13.182,2.982,13.182L7.37,2.247	C7.37,2.247,15.89,0.546,21.429,6.074z"/><path fill="#33c481" d="M7.37,2.247c0,0-2.124,8.074,3.834,14.032C16.471,21.546,23,19.302,23,23.668V27h2v-5.51	c0-1.063-0.423-2.082-1.175-2.832L7.37,2.247z"/><linearGradient id="KVtj1BZtMvaMeHuKewllOa" x1="10" x2="38" y1="35.5" y2="35.5" gradientUnits="userSpaceOnUse"><stop offset="0" stop-color="#b9360c"/><stop offset=".537" stop-color="#b5350c"/><stop offset=".999" stop-color="#ab320b"/></linearGradient><path fill="url(#KVtj1BZtMvaMeHuKewllOa)" d="M34.249,43H13.751c-1.002,0-1.85-0.742-1.982-1.736L10,28h28l-1.769,13.264	C36.099,42.258,35.251,43,34.249,43z"/><path fill="#d43a02" d="M9,28v-2c0-0.552,0.448-1,1-1h28c0.552,0,1,0.448,1,1v2c0,0.552-0.448,1-1,1H10	C9.448,29,9,28.552,9,28z"/></svg>