<svg xmlns="http://www.w3.org/2000/svg" viewBox="0 0 48 48"><linearGradient id="_QZNWVrFth~WjgqdmYKfia" x1="25" x2="25" y1="41" y2="25" gradientUnits="userSpaceOnUse"><stop offset="0" stop-color="#d43a02"/><stop offset="1" stop-color="#b9360c"/></linearGradient><path fill="url(#_QZNWVrFth~WjgqdmYKfia)" d="M25,41H11c-1.105,0-2-0.895-2-2V25h32v6c0,1.105-0.895,2-2,2H27v6C27,40.105,26.105,41,25,41z"/><linearGradient id="_QZNWVrFth~WjgqdmYKfib" x1="9" x2="41" y1="31" y2="31" gradientUnits="userSpaceOnUse"><stop offset="0" stop-color="#f44f5a"/><stop offset=".567" stop-color="#ee3d4a"/><stop offset=".596" stop-color="#eb3442"/><stop offset=".66" stop-color="#e82938"/><stop offset=".75" stop-color="#e62232"/><stop offset="1" stop-color="#e52030"/></linearGradient><path fill="url(#_QZNWVrFth~WjgqdmYKfib)" d="M24,38H9l0,0V24h32v6H31c-2.209,0-4,1.791-4,4v1C27,36.657,25.657,38,24,38L24,38z"/><path fill="#fad500" d="M9,20v15h4l4,2l4-2h3c1.657,0,3-1.343,3-3v-1c0-2.209,1.791-4,4-4h10v-7H9z"/><linearGradient id="_QZNWVrFth~WjgqdmYKfic" x1="25" x2="25" y1="32" y2="17" gradientUnits="userSpaceOnUse"><stop offset="0" stop-color="#fafafb"/><stop offset="1" stop-color="#c8cdd1"/></linearGradient><path fill="url(#_QZNWVrFth~WjgqdmYKfic)" d="M24,32H9V17h32v7H31c-2.209,0-4,1.791-4,4v1C27,30.657,25.657,32,24,32z"/><linearGradient id="_QZNWVrFth~WjgqdmYKfid" x1="9" x2="41" y1="23.5" y2="23.5" gradientUnits="userSpaceOnUse"><stop offset="0" stop-color="#33c481"/><stop offset=".22" stop-color="#27ac6c"/><stop offset=".521" stop-color="#1b9255"/><stop offset=".791" stop-color="#138247"/><stop offset="1" stop-color="#107c42"/></linearGradient><path fill="url(#_QZNWVrFth~WjgqdmYKfid)" d="M9,17v12c0,0,1.567,1,3.5,1s3.5-1,3.5-1s1.567,1,3.5,1s3.5-1,3.5-1h1c1.657,0,3-1.343,3-3v-1	c0-2.209,1.791-4,4-4h1c0,0,2.015,1,4.5,1s4.5-1,4.5-1v-4H9z"/><linearGradient id="_QZNWVrFth~WjgqdmYKfie" x1="25" x2="25" y1="27" y2="15" gradientUnits="userSpaceOnUse"><stop offset="0" stop-color="#d43a02"/><stop offset="1" stop-color="#b9360c"/></linearGradient><path fill="url(#_QZNWVrFth~WjgqdmYKfie)" d="M24,27H9V15h32v4h-9c-2.761,0-5,2.239-5,5v0C27,25.657,25.657,27,24,27z"/><linearGradient id="_QZNWVrFth~WjgqdmYKfif" x1="25" x2="25" y1="7" y2="24" gradientUnits="userSpaceOnUse"><stop offset="0" stop-color="#eba84b"/><stop offset="1" stop-color="#d97218"/></linearGradient><path fill="url(#_QZNWVrFth~WjgqdmYKfif)" d="M24,24H9V9c0-1.105,0.895-2,2-2h28c1.105,0,2,0.895,2,2v7H31c-2.209,0-4,1.791-4,4v1	C27,22.657,25.657,24,24,24z"/><circle cx="12" cy="20" r="1" fill="#f5b967"/><circle cx="18" cy="20" r="1" fill="#f5b967"/><circle cx="24" cy="20" r="1" fill="#f5b967"/><circle cx="34" cy="10" r="1" fill="#f5b967"/><circle cx="28" cy="10" r="1" fill="#f5b967"/><circle cx="22" cy="10" r="1" fill="#f5b967"/><circle cx="16" cy="10" r="1" fill="#f5b967"/></svg>