<svg xmlns="http://www.w3.org/2000/svg" id="Layer_1" x="0" y="0" version="1.1" viewBox="0 0 48 48" xml:space="preserve"><linearGradient id="SVGID_1_" x1="8.663" x2="38.122" y1="-197.941" y2="-173.085" gradientTransform="translate(0 206)" gradientUnits="userSpaceOnUse"><stop offset="0" stop-color="#a1aab3"/><stop offset="1" stop-color="#8f979e"/></linearGradient><path fill="url(#SVGID_1_)" d="M41,35H7c-1.1,0-2-0.9-2-2V9c0-1.1,0.9-2,2-2h34c1.1,0,2,0.9,2,2v24C43,34.1,42.1,35,41,35z"/><radialGradient id="SVGID_2_" cx="270.666" cy="-35.99" r="86.245" gradientTransform="matrix(.8095 0 0 .7188 -172.022 84.803)" gradientUnits="userSpaceOnUse"><stop offset=".14" stop-color="#f44f5a"/><stop offset=".368" stop-color="#f44f5a"/><stop offset=".546" stop-color="#ee3d4a"/><stop offset=".664" stop-color="#ee3d4a"/><stop offset=".818" stop-color="#e52030"/><stop offset=".971" stop-color="#cf1928"/><stop offset="1" stop-color="#cf1928"/></radialGradient><rect width="34" height="24" x="7" y="9" fill="url(#SVGID_2_)"/><linearGradient id="SVGID_3_" x1="24" x2="24" y1="-171.015" y2="-163.986" gradientTransform="translate(0 206)" gradientUnits="userSpaceOnUse"><stop offset="0" stop-color="#484b4f"/><stop offset=".23" stop-color="#656d75"/><stop offset=".367" stop-color="#727d86"/></linearGradient><path fill="url(#SVGID_3_)" d="M33,38h-5v-3h-8v3h-5c-0.6,0-1,0.4-1,1v2c0,0.6,0.4,1,1,1h18c0.6,0,1-0.4,1-1v-2C34,38.4,33.6,38,33,38z"/><path d="M26.1,25.1c-0.1-0.1-0.3-0.2-0.5-0.3c0.4-0.3,0.7-0.7,0.8-1.3l0.4-9.9c0-0.4-0.1-0.8-0.4-1.1	C26,12.2,25.7,12,25.2,12h-2.5c-0.4,0-0.8,0.2-1.1,0.5c-0.3,0.3-0.5,0.7-0.4,1.1l0.4,9.9c0,0.6,0.3,1,0.8,1.3	c-0.2,0.1-0.3,0.2-0.4,0.3c-0.6,0.5-0.9,1.2-0.9,2c0,0.8,0.3,1.5,0.9,2c0.6,0.5,1.3,0.8,2.1,0.8c0.8,0,1.6-0.3,2.1-0.8	c0.6-0.5,0.9-1.2,0.9-2C27,26.4,26.7,25.7,26.1,25.1z" opacity=".05"/><path d="M24,29.5c-0.7,0-1.3-0.2-1.8-0.7c-0.5-0.5-0.7-1-0.7-1.6c0-0.7,0.3-1.2,0.7-1.7c0.5-0.4,1.1-0.6,1.8-0.6	c0.7,0,1.3,0.2,1.8,0.6c0.5,0.4,0.7,1,0.7,1.7c0,0.7-0.2,1.2-0.7,1.7C25.3,29.3,24.7,29.5,24,29.5z" opacity=".07"/><path fill="#fff" d="M24,29c-0.6,0-1.1-0.2-1.4-0.5c-0.4-0.4-0.6-0.8-0.6-1.3c0-0.5,0.2-1,0.6-1.3c0.4-0.3,0.9-0.5,1.4-0.5	c0.6,0,1.1,0.2,1.4,0.5c0.4,0.3,0.6,0.8,0.6,1.3c0,0.5-0.2,1-0.6,1.3C25.1,28.8,24.6,29,24,29z"/><path d="M23.1,24.5c-0.6,0-1-0.4-1.1-1l-0.4-9.9c0-0.3,0.1-0.6,0.3-0.8c0.2-0.2,0.5-0.3,0.8-0.3h2.5	c0.3,0,0.6,0.1,0.8,0.3s0.3,0.5,0.3,0.8l-0.4,9.9c0,0.6-0.5,1-1.1,1H23.1z" opacity=".07"/><path fill="#fff" d="M25.8,13.6l-0.4,9.9c0,0.3-0.3,0.5-0.6,0.5h-1.7c-0.3,0-0.5-0.2-0.6-0.5l-0.4-9.9c0-0.3,0.2-0.6,0.6-0.6h2.5	C25.5,13,25.8,13.3,25.8,13.6z"/></svg>