<svg xmlns="http://www.w3.org/2000/svg" viewBox="0 0 48 48"><path fill="#0076d7" d="M5,26h38c0.552,0,1-0.448,1-1v-2c0-0.552-0.448-1-1-1H5c-0.552,0-1,0.448-1,1v2	C4,25.552,4.448,26,5,26z"/><path fill="#0076d7" d="M9,19h30v-6c0-0.552-0.448-1-1-1H10c-0.552,0-1,0.448-1,1V19z"/><linearGradient id="gy48gnwg5NLNscb5X8klia" x1="24" x2="24" y1="19.157" y2="43.081" gradientUnits="userSpaceOnUse"><stop offset="0" stop-color="#889097"/><stop offset="1" stop-color="#64717c"/></linearGradient><path fill="url(#gy48gnwg5NLNscb5X8klia)" d="M41,19H7c-0.552,0-1,0.448-1,1v19c0,2.209,1.791,4,4,4h28c2.209,0,4-1.791,4-4V20 C42,19.448,41.552,19,41,19z"/><circle cx="34" cy="37" r="1" fill="#fff"/><circle cx="14" cy="37" r="1" fill="#fff"/><circle cx="24" cy="33" r="1" fill="#fff"/><circle cx="28" cy="33" r="1" fill="#fff"/><circle cx="32" cy="33" r="1" fill="#fff"/><circle cx="36" cy="33" r="1" fill="#fff"/><circle cx="12" cy="33" r="1" fill="#fff"/><circle cx="16" cy="33" r="1" fill="#fff"/><circle cx="20" cy="33" r="1" fill="#fff"/><circle cx="22" cy="29" r="1" fill="#fff"/><circle cx="26" cy="29" r="1" fill="#fff"/><circle cx="30" cy="29" r="1" fill="#fff"/><circle cx="34" cy="29" r="1" fill="#fff"/><circle cx="14" cy="29" r="1" fill="#fff"/><circle cx="18" cy="29" r="1" fill="#fff"/><path fill="#fff" d="M31,37c0,0.553-0.448,1-1,1H18c-0.552,0-1-0.447-1-1l0,0c0-0.553,0.448-1,1-1h12	C30.552,36,31,36.447,31,37L31,37z"/><path fill="#58646e" d="M9,19v2c0,1.105,0.895,2,2,2h4c0,1.105,0.895,2,2,2h13c1.105,0,2-0.895,2-2h5c1.105,0,2-0.895,2-2v-2	H9z"/><path fill="#50e6ff" d="M37,7c0-1.105-0.895-2-2-2H13c-1.105,0-2,0.895-2,2v14h6v1c0,0.552,0.448,1,1,1h11	c0.552,0,1-0.448,1-1v-1h7V7z"/><path fill="#057093" d="M31.982,13.131h-15c-0.276,0-0.5-0.224-0.5-0.5v-1c0-0.276,0.224-0.5,0.5-0.5h15	c0.276,0,0.5,0.224,0.5,0.5v1C32.482,12.908,32.259,13.131,31.982,13.131z"/><path fill="#057093" d="M28.982,17.131h-12c-0.276,0-0.5-0.224-0.5-0.5v-1c0-0.276,0.224-0.5,0.5-0.5h12	c0.276,0,0.5,0.224,0.5,0.5v1C29.482,16.908,29.259,17.131,28.982,17.131z"/></svg>