<svg xmlns="http://www.w3.org/2000/svg" viewBox="0 0 48 48"><linearGradient id="NREW9gtTPtuuwH8uunNEoa" x1="12" x2="12" y1="35.994" y2="39.06" gradientUnits="userSpaceOnUse"><stop offset="0" stop-color="#e5a505"/><stop offset=".116" stop-color="#eaa804"/><stop offset=".595" stop-color="#f8b301"/><stop offset="1" stop-color="#fdb700"/></linearGradient><rect width="12" height="3" x="6" y="36" fill="url(#NREW9gtTPtuuwH8uunNEoa)"/><linearGradient id="NREW9gtTPtuuwH8uunNEob" x1="12" x2="12" y1="32.886" y2="36.048" gradientUnits="userSpaceOnUse"><stop offset="0" stop-color="#fede00"/><stop offset="1" stop-color="#ffd000"/></linearGradient><rect width="12" height="3" x="6" y="33" fill="url(#NREW9gtTPtuuwH8uunNEob)"/><linearGradient id="NREW9gtTPtuuwH8uunNEoc" x1="36" x2="36" y1="35.994" y2="39.06" gradientUnits="userSpaceOnUse"><stop offset="0" stop-color="#e5a505"/><stop offset=".116" stop-color="#eaa804"/><stop offset=".595" stop-color="#f8b301"/><stop offset="1" stop-color="#fdb700"/></linearGradient><rect width="12" height="3" x="30" y="36" fill="url(#NREW9gtTPtuuwH8uunNEoc)"/><linearGradient id="NREW9gtTPtuuwH8uunNEod" x1="36" x2="36" y1="32.886" y2="36.048" gradientUnits="userSpaceOnUse"><stop offset="0" stop-color="#fede00"/><stop offset="1" stop-color="#ffd000"/></linearGradient><path fill="url(#NREW9gtTPtuuwH8uunNEod)" d="M41,33H30v3h12v-2C42,33.448,41.552,33,41,33z"/><linearGradient id="NREW9gtTPtuuwH8uunNEoe" x1="12" x2="12" y1="30.041" y2="33.02" gradientUnits="userSpaceOnUse"><stop offset="0" stop-color="#e5a505"/><stop offset=".116" stop-color="#eaa804"/><stop offset=".595" stop-color="#f8b301"/><stop offset="1" stop-color="#fdb700"/></linearGradient><path fill="url(#NREW9gtTPtuuwH8uunNEoe)" d="M18,30H7c-0.552,0-1,0.448-1,1v2h12V30z"/><linearGradient id="NREW9gtTPtuuwH8uunNEof" x1="24" x2="24" y1="32.994" y2="36.06" gradientUnits="userSpaceOnUse"><stop offset="0" stop-color="#e5a505"/><stop offset=".116" stop-color="#eaa804"/><stop offset=".595" stop-color="#f8b301"/><stop offset="1" stop-color="#fdb700"/></linearGradient><rect width="12" height="3" x="18" y="33" fill="url(#NREW9gtTPtuuwH8uunNEof)"/><linearGradient id="NREW9gtTPtuuwH8uunNEog" x1="12" x2="12" y1="38.886" y2="42.048" gradientUnits="userSpaceOnUse"><stop offset="0" stop-color="#fede00"/><stop offset="1" stop-color="#ffd000"/></linearGradient><path fill="url(#NREW9gtTPtuuwH8uunNEog)" d="M18,39H6v2c0,0.552,0.448,1,1,1h11V39z"/><linearGradient id="NREW9gtTPtuuwH8uunNEoh" x1="36" x2="36" y1="38.886" y2="42.048" gradientUnits="userSpaceOnUse"><stop offset="0" stop-color="#fede00"/><stop offset="1" stop-color="#ffd000"/></linearGradient><path fill="url(#NREW9gtTPtuuwH8uunNEoh)" d="M42,39H30v3h11c0.552,0,1-0.448,1-1V39z"/><linearGradient id="NREW9gtTPtuuwH8uunNEoi" x1="24" x2="24" y1="38.994" y2="42.06" gradientUnits="userSpaceOnUse"><stop offset="0" stop-color="#e5a505"/><stop offset=".116" stop-color="#eaa804"/><stop offset=".595" stop-color="#f8b301"/><stop offset="1" stop-color="#fdb700"/></linearGradient><rect width="12" height="3" x="18" y="39" fill="url(#NREW9gtTPtuuwH8uunNEoi)"/><linearGradient id="NREW9gtTPtuuwH8uunNEoj" x1="24" x2="24" y1="29.886" y2="33.048" gradientUnits="userSpaceOnUse"><stop offset="0" stop-color="#fede00"/><stop offset="1" stop-color="#ffd000"/></linearGradient><rect width="12" height="3" x="18" y="30" fill="url(#NREW9gtTPtuuwH8uunNEoj)"/><linearGradient id="NREW9gtTPtuuwH8uunNEok" x1="24" x2="24" y1="35.886" y2="39.048" gradientUnits="userSpaceOnUse"><stop offset="0" stop-color="#fede00"/><stop offset="1" stop-color="#ffd000"/></linearGradient><rect width="12" height="3" x="18" y="36" fill="url(#NREW9gtTPtuuwH8uunNEok)"/><linearGradient id="NREW9gtTPtuuwH8uunNEol" x1="24" x2="24" y1="27.041" y2="30.02" gradientUnits="userSpaceOnUse"><stop offset="0" stop-color="#e5a505"/><stop offset=".116" stop-color="#eaa804"/><stop offset=".595" stop-color="#f8b301"/><stop offset="1" stop-color="#fdb700"/></linearGradient><path fill="url(#NREW9gtTPtuuwH8uunNEol)" d="M29,27H19c-0.552,0-1,0.448-1,1v2h12v-2C30,27.448,29.552,27,29,27z"/><linearGradient id="NREW9gtTPtuuwH8uunNEom" x1="21" x2="27" y1="5" y2="5" gradientUnits="userSpaceOnUse"><stop offset="0" stop-color="#32bdef"/><stop offset="1" stop-color="#1ea2e4"/></linearGradient><circle cx="24" cy="5" r="3" fill="url(#NREW9gtTPtuuwH8uunNEom)"/><linearGradient id="NREW9gtTPtuuwH8uunNEon" x1="15" x2="33" y1="16" y2="16" gradientUnits="userSpaceOnUse"><stop offset="0" stop-color="#32bdef"/><stop offset="1" stop-color="#1ea2e4"/></linearGradient><path fill="url(#NREW9gtTPtuuwH8uunNEon)" d="M32.769,5.36c-0.354-0.424-0.982-0.481-1.409-0.128l-5.165,4.305	C25.835,9.835,25.381,10,24.914,10h-1.828c-0.467,0-0.922-0.165-1.28-0.463l-5.165-4.305c-0.427-0.354-1.055-0.296-1.409,0.128	c-0.354,0.424-0.296,1.055,0.128,1.408l5.057,5.032C20.79,12.175,21,12.683,21,13.213v12.754C21,26.537,21.463,27,22.033,27	c0.544,0,0.995-0.422,1.031-0.964l0.438-6.57C23.52,19.204,23.737,19,24,19s0.48,0.204,0.498,0.466l0.438,6.57	C24.972,26.578,25.423,27,25.967,27C26.537,27,27,26.537,27,25.967V13.213c0-0.53,0.21-1.038,0.584-1.413l5.057-5.032	C33.064,6.415,33.122,5.784,32.769,5.36z"/></svg>