<svg xmlns="http://www.w3.org/2000/svg" viewBox="0 0 48 48"><path fill="#50e6ff" d="M4,38V15h40v23c0,1.1-0.9,2-2,2H6C4.9,40,4,39.1,4,38z"/><linearGradient id="bbgFHO2bN9YS7MQDlx~gea" x1="4.614" x2="42.936" y1="833.741" y2="841.533" gradientTransform="translate(0 -826)" gradientUnits="userSpaceOnUse"><stop offset="0" stop-color="#0077d2"/><stop offset="1" stop-color="#0b59a2"/></linearGradient><path fill="url(#bbgFHO2bN9YS7MQDlx~gea)" d="M44,10v5H4v-5c0-1.1,0.9-2,2-2h36C43.1,8,44,8.9,44,10z"/><linearGradient id="bbgFHO2bN9YS7MQDlx~geb" x1="16" x2="42" y1="837.5" y2="837.5" gradientTransform="translate(0 -826)" gradientUnits="userSpaceOnUse"><stop offset="0" stop-color="#7dd8f3"/><stop offset="1" stop-color="#45b0d0"/></linearGradient><path fill="url(#bbgFHO2bN9YS7MQDlx~geb)" d="M16.5,13h25c0.276,0,0.5-0.224,0.5-0.5v-2c0-0.276-0.224-0.5-0.5-0.5h-25	c-0.276,0-0.5,0.224-0.5,0.5v2C16,12.776,16.224,13,16.5,13z"/><linearGradient id="bbgFHO2bN9YS7MQDlx~gec" x1="6.751" x2="8.032" y1="836.416" y2="838.269" gradientTransform="translate(0 -826)" gradientUnits="userSpaceOnUse"><stop offset="0" stop-color="#75daff"/><stop offset="1" stop-color="#49bef1"/></linearGradient><circle cx="7.5" cy="11.5" r="1.5" fill="url(#bbgFHO2bN9YS7MQDlx~gec)"/><linearGradient id="bbgFHO2bN9YS7MQDlx~ged" x1="11.751" x2="13.032" y1="836.416" y2="838.269" gradientTransform="translate(0 -826)" gradientUnits="userSpaceOnUse"><stop offset="0" stop-color="#75daff"/><stop offset="1" stop-color="#49bef1"/></linearGradient><circle cx="12.5" cy="11.5" r="1.5" fill="url(#bbgFHO2bN9YS7MQDlx~ged)"/><path fill="#199be2" d="M44.992,43.224l-1.768,1.768l2.935,2.935c0.098,0.098,0.256,0.098,0.354,0l1.414-1.414	c0.098-0.098,0.098-0.256,0-0.354L44.992,43.224z"/><radialGradient id="bbgFHO2bN9YS7MQDlx~gee" cx="37.012" cy="-440.952" r="9.802" gradientTransform="translate(0 478)" gradientUnits="userSpaceOnUse"><stop offset=".693" stop-color="#006185"/><stop offset=".921" stop-color="#35c1f1"/></radialGradient><polygon fill="url(#bbgFHO2bN9YS7MQDlx~gee)" points="42.8,41.033 41.033,42.8 43.224,44.992 44.992,43.224"/><radialGradient id="bbgFHO2bN9YS7MQDlx~gef" cx="36.936" cy="36.915" r="9.655" gradientUnits="userSpaceOnUse"><stop offset="0"/><stop offset="1" stop-opacity="0"/></radialGradient><path fill="url(#bbgFHO2bN9YS7MQDlx~gef)" d="M37,27c-5.514,0-10,4.486-10,10c0,1.045,0.163,2.052,0.461,3H42c1.1,0,2-0.9,2-2v-8.129	C42.195,28.098,39.724,27,37,27z"/><linearGradient id="bbgFHO2bN9YS7MQDlx~geg" x1="31.455" x2="42.669" y1="-446.545" y2="-435.331" gradientTransform="translate(0 478)" gradientUnits="userSpaceOnUse"><stop offset="0" stop-color="#a3ffff"/><stop offset=".223" stop-color="#9dfbff"/><stop offset=".53" stop-color="#8bf1ff"/><stop offset=".885" stop-color="#6ee0ff"/><stop offset="1" stop-color="#63daff"/></linearGradient><circle cx="37" cy="37" r="8" fill="url(#bbgFHO2bN9YS7MQDlx~geg)"/></svg>