<svg xmlns="http://www.w3.org/2000/svg" data-name="Слой 1" viewBox="0 0 48 48"><defs><linearGradient id="0IJhStOchrxNb~VudbaVwa" x1="4.728" x2="28.256" y1="5.103" y2="79.747" data-name="Безымянный градиент 147" gradientUnits="userSpaceOnUse"><stop offset="0" stop-color="#dfe9f2"/><stop offset=".391" stop-color="#d6e0e9"/><stop offset="1" stop-color="#bfc8d1"/></linearGradient></defs><path fill="#bfc8d1" d="M46,14v3a1.003,1.003,0,0,1-1,1H41a1.003,1.003,0,0,0-1,1v2H11V13H45A1.003,1.003,0,0,1,46,14Z"/><path fill="#bfc8d1" d="M46,33v3a1.003,1.003,0,0,1-1,1H11V29H40v2a1.003,1.003,0,0,0,1,1h4A1.003,1.003,0,0,1,46,33Z"/><path fill="#889097" d="M40,31V19a1.003,1.003,0,0,1,1-1H11V32H41A1.003,1.003,0,0,1,40,31Z"/><path fill="url(#0IJhStOchrxNb~VudbaVwa)" d="M20,17V14a1,1,0,0,0-1-1H3a1,1,0,0,0-1,1v3a1,1,0,0,0,1,1H7a1,1,0,0,1,1,1V31a1,1,0,0,1-1,1H3a1,1,0,0,0-1,1v3a1,1,0,0,0,1,1H19a1,1,0,0,0,1-1V33a1,1,0,0,0-1-1H15a1,1,0,0,1-1-1V19a1,1,0,0,1,1-1h4A1,1,0,0,0,20,17Z"/></svg>