<svg xmlns="http://www.w3.org/2000/svg" viewBox="0 0 48 48"><linearGradient id="R0I1yfGfUU7OvjbAK2CAga" x1="24" x2="24" y1="6.708" y2="14.977" gradientUnits="userSpaceOnUse"><stop offset="0" stop-color="#eba600"/><stop offset="1" stop-color="#c28200"/></linearGradient><path fill="url(#R0I1yfGfUU7OvjbAK2CAga)" d="M24.414,10.414l-2.536-2.536C21.316,7.316,20.553,7,19.757,7L5,7C3.895,7,3,7.895,3,9l0,30	c0,1.105,0.895,2,2,2l38,0c1.105,0,2-0.895,2-2V13c0-1.105-0.895-2-2-2l-17.172,0C25.298,11,24.789,10.789,24.414,10.414z"/><linearGradient id="R0I1yfGfUU7OvjbAK2CAgb" x1="24" x2="24" y1="10.854" y2="40.983" gradientUnits="userSpaceOnUse"><stop offset="0" stop-color="#ffd869"/><stop offset="1" stop-color="#fec52b"/></linearGradient><path fill="url(#R0I1yfGfUU7OvjbAK2CAgb)" d="M21.586,14.414l3.268-3.268C24.947,11.053,25.074,11,25.207,11H43c1.105,0,2,0.895,2,2v26	c0,1.105-0.895,2-2,2H5c-1.105,0-2-0.895-2-2V15.5C3,15.224,3.224,15,3.5,15h16.672C20.702,15,21.211,14.789,21.586,14.414z"/><path fill="#d33e27" d="M15.609,33l-0.781-1.991c-0.276-0.683-0.492-1.278-0.719-1.956h-0.035 c-0.193,0.676-0.401,1.307-0.628,1.982L12.766,33h-2.41l2.435-5.606L10.446,22h2.493l0.737,1.999 c0.224,0.609,0.409,1.17,0.606,1.792h0.036c0.206-0.675,0.366-1.195,0.556-1.805L15.541,22h2.428l-2.419,5.434L18.102,33H15.609z"/><path fill="#d33e27" d="M25.38,33L24.6,31.009c-0.276-0.683-0.492-1.278-0.719-1.956h-0.035 c-0.193,0.676-0.401,1.307-0.628,1.982L22.537,33h-2.41l2.435-5.606L20.217,22h2.493l0.737,1.999 c0.224,0.609,0.409,1.17,0.606,1.792h0.036c0.206-0.675,0.366-1.195,0.556-1.805L25.312,22h2.428l-2.419,5.434L27.873,33H25.38z"/><path fill="#d33e27" d="M35.152,33l-0.781-1.991c-0.276-0.683-0.492-1.278-0.719-1.956h-0.035 c-0.193,0.676-0.401,1.307-0.628,1.982L32.308,33h-2.41l2.435-5.606L29.988,22h2.493l0.737,1.999 c0.224,0.609,0.409,1.17,0.606,1.792h0.036c0.206-0.675,0.366-1.195,0.556-1.805L35.084,22h2.428l-2.419,5.434L37.644,33H35.152z"/></svg>