<svg xmlns="http://www.w3.org/2000/svg" viewBox="0 0 48 48"><path fill="#ad3f16" d="M26.56,19.44c-0.587-0.587-1.534-0.587-2.121,0c0,0-16.778,14.656-17.561,15.44	c-1.172,1.172-1.172,3.07,0,4.242c1.171,1.171,3.07,1.171,4.242,0c0.783-0.783,15.439-17.561,15.439-17.561	C27.147,20.974,27.147,20.026,26.56,19.44z"/><path fill="#d6742d" d="M39.5,38h-13c-0.828,0-1.5,0.671-1.5,1.5s0.672,1.5,1.5,1.5h13c0.828,0,1.5-0.671,1.5-1.5	S40.328,38,39.5,38z"/><path fill="#ad3f16" d="M42.5,40h-19c-0.828,0-1.5,0.671-1.5,1.5s0.672,1.5,1.5,1.5h19c0.828,0,1.5-0.671,1.5-1.5	S43.328,40,42.5,40z"/><path fill="#ad3f16" d="M32.618,28c-0.4,0-0.8-0.153-1.106-0.458c-0.611-0.611-0.611-1.6,0-2.211l7.818-7.818	c0.611-0.611,1.6-0.611,2.211,0c0.611,0.611,0.611,1.6,0,2.211l-7.818,7.818C33.419,27.847,33.019,28,32.618,28z"/><path fill="#ad3f16" d="M19.564,14.945c-0.4,0-0.8-0.153-1.106-0.458c-0.611-0.611-0.611-1.6,0-2.211l7.818-7.818	c0.611-0.611,1.6-0.611,2.211,0c0.611,0.611,0.611,1.6,0,2.211l-7.818,7.818C20.364,14.792,19.964,14.945,19.564,14.945z"/><path fill="#d6742d" d="M31.571,25.389c0,0-4.691-3.127-6.254-4.691s-4.691-6.254-4.691-6.254l7.818-7.818	c0,0,4.691,3.127,6.254,4.691s4.691,6.254,4.691,6.254L31.571,25.389z"/></svg>