<svg xmlns="http://www.w3.org/2000/svg" viewBox="0 0 48 48"><path fill="#35c1f1" d="M44.993,11.567c0-0.023,0.007-0.044,0.007-0.067c0-0.002-0.001-0.004-0.001-0.005 c0-0.002,0.001-0.004,0.001-0.007l-0.001,0c-0.007-2.464-1.993-4.457-4.452-4.483l0-0.005c-0.008,0-0.017,0.002-0.025,0.002 C40.514,7.002,40.507,7,40.5,7c-0.091,0-0.176,0.021-0.266,0.027c-0.203,0.013-0.406,0.027-0.621,0.063 c-0.014,0.003-0.028,0.006-0.043,0.009c-2.065,0.357-4.629,1.616-7.039,1.625C29.67,8.733,26.826,8.157,24,7 c-2.826,1.157-5.67,1.733-8.532,1.723c-2.41-0.009-4.975-1.268-7.039-1.625C8.415,7.095,8.401,7.092,8.387,7.089 C8.172,7.053,7.969,7.04,7.766,7.027C7.676,7.021,7.591,7,7.5,7C7.493,7,7.486,7.002,7.479,7.002C7.471,7.002,7.461,7,7.453,7 l0,0.005c-2.459,0.026-4.445,2.02-4.452,4.483l-0.001,0c0,0.002,0.001,0.005,0.001,0.007C3.001,11.497,3,11.498,3,11.5 c0,0.022,0.006,0.042,0.006,0.063c0.037,2.316,1.707,5.173,1.717,7.212c0.01,2.101-0.565,3.632-1.72,5.705H3 c0.001,0.001,0.001,0.002,0.002,0.003C3.001,24.485,3.001,24.486,3,24.487h0.003c1.155,2.078,1.73,3.612,1.72,5.718 c-0.01,2.056-1.704,4.927-1.72,7.268C3.003,37.482,3,37.491,3,37.5c0,0.001,0,0.001,0,0.002c0,0.001,0,0.002,0,0.003l0.001,0 c0.003,2.467,1.991,4.464,4.453,4.49l0,0.005c0.008,0,0.017-0.002,0.025-0.002C7.486,41.998,7.493,42,7.5,42 c0.091,0,0.176-0.021,0.266-0.027c0.203-0.013,0.406-0.027,0.621-0.063c0.014-0.003,0.028-0.006,0.043-0.009 c2.065-0.357,4.629-1.616,7.039-1.625C18.33,40.267,21.174,40.843,24,42c2.826-1.157,5.67-1.733,8.532-1.723 c2.41,0.009,4.974,1.268,7.039,1.625c0.014,0.003,0.028,0.006,0.043,0.009c0.215,0.036,0.418,0.049,0.621,0.063 C40.324,41.979,40.409,42,40.5,42c0.007,0,0.014-0.002,0.021-0.002c0.008,0,0.017,0.002,0.025,0.002l0-0.005 c2.461-0.026,4.449-2.023,4.452-4.49l0.001,0c0-0.001,0-0.002,0-0.003c0-0.001,0-0.001,0-0.002c0-0.009-0.003-0.018-0.003-0.027 c-0.016-2.341-1.711-5.212-1.72-7.268c-0.01-2.106,0.565-3.64,1.72-5.718H45c-0.001-0.001-0.001-0.002-0.002-0.003 c0.001-0.001,0.001-0.002,0.002-0.003h-0.003c-1.155-2.073-1.73-3.604-1.72-5.705C43.287,16.738,44.955,13.881,44.993,11.567z"/><linearGradient id="e1UzJJ0MmTlKQYjg5m6Wla" x1="21.056" x2="26.444" y1="14.73" y2="32.612" gradientUnits="userSpaceOnUse"><stop offset="0" stop-color="#007ad9"/><stop offset="1" stop-color="#0d62ab"/></linearGradient><path fill="url(#e1UzJJ0MmTlKQYjg5m6Wla)" d="M37,36H11c-1.105,0-2-0.895-2-2V15c0-1.105,0.895-2,2-2h26c1.105,0,2,0.895,2,2v19 C39,35.105,38.105,36,37,36z"/></svg>