<svg xmlns="http://www.w3.org/2000/svg" data-name="Слой 1" viewBox="0 0 48 48"><defs><linearGradient id="2BFPzXbZY2~F5tTmmpMjHa" x1="24" x2="24" y1="45.141" y2="32.684" data-name="Безымянный градиент 60" gradientUnits="userSpaceOnUse"><stop offset="0" stop-color="#dfe9f2"/><stop offset=".769" stop-color="#d6e0e9"/><stop offset=".945" stop-color="#bfc8d1"/></linearGradient><linearGradient id="2BFPzXbZY2~F5tTmmpMjHb" x1="24" x2="24" y1="28.478" y2="18.027" data-name="Безымянный градиент 61" gradientUnits="userSpaceOnUse"><stop offset="0" stop-color="#dfe9f2"/><stop offset=".718" stop-color="#d6e0e9"/><stop offset=".899" stop-color="#bfc8d1"/></linearGradient><linearGradient id="2BFPzXbZY2~F5tTmmpMjHc" x1="24" x2="24" y1="32.783" y2="29.66" data-name="Безымянный градиент 59" gradientUnits="userSpaceOnUse"><stop offset="0" stop-color="#dfe9f2"/><stop offset=".647" stop-color="#d6e0e9"/><stop offset=".898" stop-color="#bfc8d1"/></linearGradient><linearGradient id="2BFPzXbZY2~F5tTmmpMjHd" x1="11.586" x2="29.575" y1="3.891" y2="21.879" data-name="Безымянный градиент 147" gradientUnits="userSpaceOnUse"><stop offset="0" stop-color="#dfe9f2"/><stop offset=".391" stop-color="#d6e0e9"/><stop offset="1" stop-color="#bfc8d1"/></linearGradient></defs><rect width="26" height="13.25" x="11" y="31.75" fill="url(#2BFPzXbZY2~F5tTmmpMjHa)"/><rect width="2" height="12.75" x="13" y="32.25" fill="#64717c"/><rect width="2" height="12.75" x="17" y="32.25" fill="#64717c"/><rect width="2" height="12.75" x="21" y="32.25" fill="#64717c"/><rect width="2" height="12.75" x="25" y="32.25" fill="#64717c"/><rect width="2" height="12.75" x="29" y="32.25" fill="#64717c"/><rect width="2" height="12.75" x="33" y="32.25" fill="#64717c"/><path fill="#64717c" d="M24,2h0a1,1,0,0,1,1,1V6a0,0,0,0,1,0,0H23a0,0,0,0,1,0,0V3A1,1,0,0,1,24,2Z"/><path fill="#abc1c9" d="M24,5h0a2,2,0,0,1,2,2v4a0,0,0,0,1,0,0H22a0,0,0,0,1,0,0V7A2,2,0,0,1,24,5Z"/><rect width="22" height="10.25" x="13" y="18.5" fill="url(#2BFPzXbZY2~F5tTmmpMjHb)"/><path fill="url(#2BFPzXbZY2~F5tTmmpMjHc)" d="M10,29.5H38a0,0,0,0,1,0,0V31a2,2,0,0,1-2,2H12a2,2,0,0,1-2-2V29.5A0,0,0,0,1,10,29.5Z"/><g><path fill="#64717c" d="M16,21h0a1,1,0,0,1,1,1v6.75a0,0,0,0,1,0,0H15a0,0,0,0,1,0,0V22a1,1,0,0,1,1-1Z"/><path fill="#64717c" d="M20,21h0a1,1,0,0,1,1,1v6.75a0,0,0,0,1,0,0H19a0,0,0,0,1,0,0V22a1,1,0,0,1,1-1Z"/><path fill="#64717c" d="M24,21h0a1,1,0,0,1,1,1v6.75a0,0,0,0,1,0,0H23a0,0,0,0,1,0,0V22A1,1,0,0,1,24,21Z"/><path fill="#64717c" d="M28,21h0a1,1,0,0,1,1,1v6.75a0,0,0,0,1,0,0H27a0,0,0,0,1,0,0V22A1,1,0,0,1,28,21Z"/><path fill="#64717c" d="M32,21h0a1,1,0,0,1,1,1v6.75a0,0,0,0,1,0,0H31a0,0,0,0,1,0,0V22A1,1,0,0,1,32,21Z"/></g><path fill="url(#2BFPzXbZY2~F5tTmmpMjHd)" d="M34.902,18A4.64891,4.64891,0,0,0,35,17.1C35,14.85,32,9,24,9s-11,5.85-11,8.1a4.64891,4.64891,0,0,0,.098.9Z"/><rect width="32" height="2" x="8" y="44" fill="#abc1c9" rx="1"/><rect width="30" height="2" x="9" y="28" fill="#abc1c9" rx="1"/><rect width="24" height="2" x="12" y="17" fill="#abc1c9" rx="1"/></svg>