<svg xmlns="http://www.w3.org/2000/svg" viewBox="0 0 48 48"><linearGradient id="fca3HHtBCaKhxIbwZg9X9a" x1="24" x2="24" y1="6.255" y2="42.255" gradientUnits="userSpaceOnUse"><stop offset="0" stop-color="#ffa402"/><stop offset="1" stop-color="#ff6000"/></linearGradient><path fill="url(#fca3HHtBCaKhxIbwZg9X9a)" d="M13.083,42h21.834C38.829,42,42,38.829,42,34.917V13.083C42,9.171,38.829,6,34.917,6H13.083	C9.171,6,6,9.171,6,13.083v21.834C6,38.829,9.171,42,13.083,42z"/><path fill="#fff" d="M23,34c-2.347-4.355-8-5-12-1V17c4-4,9-3,12,0V34z"/><path fill="#fff" d="M25,34c2.347-4.355,8-5,12-1V17c-4-4-9-3-12,0V34z"/></svg>