<svg xmlns="http://www.w3.org/2000/svg" viewBox="0 0 48 48"><rect width="2" height="4" x="11.144" y="31.149" fill="#64717c" transform="rotate(-65.644 12.144 33.149)"/><rect width="2" height="4" x="15.145" y="22.149" fill="#64717c" transform="rotate(-65.644 16.145 24.149)"/><rect width="2" height="4" x="19.145" y="13.149" fill="#64717c" transform="rotate(-65.644 20.145 15.149)"/><rect width="2" height="4" x="23.145" y="4.149" fill="#64717c" transform="rotate(-65.644 24.145 6.15)"/><linearGradient id="NsqJtpoGHR1MJBeclAeXLa" x1="23" x2="23" y1="35.652" y2="45.069" gradientUnits="userSpaceOnUse"><stop offset=".002" stop-color="#3b3b3b"/><stop offset=".013" stop-color="#3c3c3c"/><stop offset=".875" stop-color="#585858"/><stop offset="1" stop-color="#636363"/></linearGradient><rect width="14" height="7" x="16" y="40" fill="url(#NsqJtpoGHR1MJBeclAeXLa)"/><linearGradient id="NsqJtpoGHR1MJBeclAeXLb" x1="15.947" x2="31.577" y1="-.685" y2="42.26" gradientUnits="userSpaceOnUse"><stop offset="0" stop-color="#eba84b"/><stop offset="1" stop-color="#d97218"/></linearGradient><path fill="url(#NsqJtpoGHR1MJBeclAeXLb)" d="M36,6.638C36,3.524,33.476,1,30.362,1c-2.515,0-4.644,1.648-5.37,3.922L11.637,34.586	c-0.375,0.832-0.138,1.813,0.574,2.383L16,40h14c4-2,6-5,6-9c0-7.989-3.988-10.993-3.999-18.968C34.315,11.33,36,9.181,36,6.638z"/><rect width="2" height="12" x="16" y="35" fill="#889097"/><rect width="2" height="21.266" x="20" y="25.734" fill="#889097"/><rect width="2" height="30" x="24" y="17" fill="#889097"/><rect width="2" height="38.524" x="28" y="8.476" fill="#889097"/><radialGradient id="NsqJtpoGHR1MJBeclAeXLc" cx="16" cy="35" r="3" gradientUnits="userSpaceOnUse"><stop offset=".649" stop-opacity=".2"/><stop offset="1" stop-opacity="0"/></radialGradient><circle cx="16" cy="35" r="3" fill="url(#NsqJtpoGHR1MJBeclAeXLc)"/><circle cx="16" cy="35" r="2" fill="#bfc8d1"/><radialGradient id="NsqJtpoGHR1MJBeclAeXLd" cx="20" cy="26" r="3" gradientUnits="userSpaceOnUse"><stop offset=".649" stop-opacity=".2"/><stop offset="1" stop-opacity="0"/></radialGradient><circle cx="20" cy="26" r="3" fill="url(#NsqJtpoGHR1MJBeclAeXLd)"/><circle cx="20" cy="26" r="2" fill="#bfc8d1"/><radialGradient id="NsqJtpoGHR1MJBeclAeXLe" cx="24" cy="17" r="3" gradientUnits="userSpaceOnUse"><stop offset=".649" stop-opacity=".2"/><stop offset="1" stop-opacity="0"/></radialGradient><circle cx="24" cy="17" r="3" fill="url(#NsqJtpoGHR1MJBeclAeXLe)"/><circle cx="24" cy="17" r="2" fill="#bfc8d1"/><radialGradient id="NsqJtpoGHR1MJBeclAeXLf" cx="28" cy="8" r="3" gradientUnits="userSpaceOnUse"><stop offset=".649" stop-opacity=".2"/><stop offset="1" stop-opacity="0"/></radialGradient><circle cx="28" cy="8" r="3" fill="url(#NsqJtpoGHR1MJBeclAeXLf)"/><circle cx="28" cy="8" r="2" fill="#bfc8d1"/><path fill="#889097" d="M8.176,34.645L8.176,34.645c-1.006-0.455-1.453-1.64-0.997-2.647l0.825-1.822	c0.455-1.006,1.64-1.453,2.647-0.997l0,0c1.006,0.455,1.453,1.64,0.997,2.647l-0.825,1.822C10.367,34.654,9.182,35.1,8.176,34.645z"/><path fill="#889097" d="M12.176,25.645L12.176,25.645c-1.006-0.455-1.453-1.64-0.997-2.647l0.825-1.822	c0.455-1.006,1.64-1.453,2.647-0.997l0,0c1.006,0.455,1.453,1.64,0.997,2.647l-0.825,1.822C14.367,25.654,13.182,26.1,12.176,25.645	z"/><path fill="#889097" d="M16.176,16.645L16.176,16.645c-1.006-0.455-1.453-1.64-0.997-2.647l0.825-1.822	c0.455-1.006,1.64-1.453,2.647-0.997l0,0c1.006,0.455,1.453,1.64,0.997,2.647l-0.825,1.822	C18.367,16.654,17.182,17.101,16.176,16.645z"/><path fill="#889097" d="M20.176,7.645L20.176,7.645c-1.006-0.455-1.453-1.64-0.997-2.647l0.825-1.822	c0.455-1.006,1.64-1.453,2.647-0.997l0,0c1.006,0.455,1.453,1.64,0.997,2.647l-0.825,1.822C22.367,7.654,21.182,8.101,20.176,7.645z"/></svg>