<svg xmlns="http://www.w3.org/2000/svg" baseProfile="basic" viewBox="0 0 48 48"><linearGradient id="NKmoOOrGYLTtT0mYH1vAEa" x1="38.09" x2="8.886" y1="11.214" y2="39.416" gradientUnits="userSpaceOnUse"><stop offset="0" stop-color="#ffc430"/><stop offset=".41" stop-color="#fec130"/><stop offset=".72" stop-color="#fcb730"/><stop offset=".998" stop-color="#f7a72f"/><stop offset="1" stop-color="#f7a72f"/></linearGradient><path fill="url(#NKmoOOrGYLTtT0mYH1vAEa)" d="M41.995,26.189c-0.086-0.017-14.706-3.238-14.921-3.448c0.295-0.288,0.532-0.632,0.705-1.012	c6.351-1.284,12.58-2.544,12.665-2.562c1.437-0.291,2.335-1.759,1.891-3.196c-0.386-1.249-1.74-1.935-3.022-1.676l-13.297,2.696	c-0.321,0-2.51,0-3.315,0c-0.275-0.45-0.632-0.863-1.091-1.197l-2.299-1.673c-1.79-1.303-4.32-1.485-6.337-0.465	c-2.219,1.121-4.961,2.412-5.825,3.21c-0.324,0.299-0.586,0.61-0.804,0.927c-1.132,1.45-1.321,2.849-1.321,4.512v10.686	c0,3.314,2.686,6,6,6h16.426c1.584,0,2.868-1.284,2.868-2.868c0-0.888-0.412-1.672-1.046-2.198c1.178-0.518,2.002-1.691,2.002-3.06	c0-0.694-0.219-1.331-0.583-1.862l10.174,2.058c1.511,0.314,2.636-0.427,3.022-1.676C44.33,27.948,43.432,26.479,41.995,26.189z"/><circle cx="39.875" cy="16.75" r="1.5" fill="#fff0c9"/><circle cx="41.5" cy="28.625" r="1.5" fill="#fff0c9"/><linearGradient id="NKmoOOrGYLTtT0mYH1vAEb" x1="14.513" x2="14.926" y1="12.606" y2="17.86" gradientUnits="userSpaceOnUse"><stop offset=".008" stop-color="#ffc430"/><stop offset=".446" stop-color="#f8bd2d"/><stop offset="1" stop-color="#dc9e14"/></linearGradient><path fill="url(#NKmoOOrGYLTtT0mYH1vAEb)" d="M7.023,16.991c0.865-0.798,3.732-2.214,5.95-3.335c2.017-1.02,4.547-0.838,6.337,0.465	l2.299,1.673c0.459,0.334,0.808,0.745,1.083,1.195L7.023,16.991z"/></svg>