<svg xmlns="http://www.w3.org/2000/svg" viewBox="0 0 48 48"><linearGradient id="_emLYSOAQy~GL2XcbqFqUa" x1="24" x2="32" y1="-363" y2="-363" gradientTransform="matrix(1 0 0 -1 0 -356)" gradientUnits="userSpaceOnUse"><stop offset="0" stop-color="#ffcf54"/><stop offset=".261" stop-color="#fdcb4d"/><stop offset=".639" stop-color="#f7c13a"/><stop offset="1" stop-color="#f0b421"/></linearGradient><path fill="url(#_emLYSOAQy~GL2XcbqFqUa)" d="M24,7c0,2.208,1.79,4,3.998,4C30.211,11,32,9.208,32,7s-1.789-4-4.002-4	C25.79,3,24,4.792,24,7z"/><path fill="#35c1f1" d="M16,26c0,2.208,1.79,4,3.998,4C22.211,30,24,28.208,24,26s-1.789-4-4.002-4C17.79,22,16,23.792,16,26	z"/><path fill="#35c1f1" d="M32.5,25c-0.828,0-1.5,0.672-1.5,1.5s0.672,1.5,1.5,1.5s1.5-0.672,1.5-1.5S33.328,25,32.5,25z"/><path fill="#35c1f1" d="M27.5,40c-0.828,0-1.5,0.672-1.5,1.5s0.672,1.5,1.5,1.5s1.5-0.672,1.5-1.5S28.328,40,27.5,40z"/><path fill="#35c1f1" d="M29,16v6.5l4.158,2.652l-1.404,2.649l-4.525-2.843c-0.465-0.292-0.789-0.763-0.897-1.301L26,22L29,16	z"/><path fill="#35c1f1" d="M26.029,41.204L27.5,32.5l-8.691-2.68l-2.356-5.671l5.075-10.137l6.983,3.906L24,26l7.031,3.722	c0.851,0.451,1.26,1.444,0.973,2.364l-3.038,9.728L26.029,41.204z"/><linearGradient id="_emLYSOAQy~GL2XcbqFqUb" x1="17.25" x2="17.25" y1="34.12" y2="38.918" gradientUnits="userSpaceOnUse"><stop offset="0" stop-color="#a34f27"/><stop offset=".587" stop-color="#8b3817"/><stop offset="1" stop-color="#802d10"/></linearGradient><path fill="url(#_emLYSOAQy~GL2XcbqFqUb)" d="M15.023,37.294c0.174,1.091,1.273,1.845,2.456,1.685c1.032,0,1.657-0.751,2.021-1.479	c0,0-1.353-0.123-1.49-0.987C17.898,35.808,18.5,35.5,18.5,35.5c-0.5-0.5-1.066-0.549-1.65-0.47	C15.667,35.19,14.849,36.203,15.023,37.294z"/><linearGradient id="_emLYSOAQy~GL2XcbqFqUc" x1="16.5" x2="16.5" y1="36.174" y2="41.087" gradientUnits="userSpaceOnUse"><stop offset="0" stop-color="#a34f27"/><stop offset=".587" stop-color="#8b3817"/><stop offset="1" stop-color="#802d10"/></linearGradient><path fill="url(#_emLYSOAQy~GL2XcbqFqUc)" d="M18.5,40h-4c-0.828,0-1.5-0.672-1.5-1.5v0c0-0.828,0.672-1.5,1.5-1.5h4	c0.828,0,1.5,0.672,1.5,1.5v0C20,39.328,19.328,40,18.5,40z"/><linearGradient id="_emLYSOAQy~GL2XcbqFqUd" x1="16.5" x2="16.5" y1="37.421" y2="44.763" gradientUnits="userSpaceOnUse"><stop offset="0" stop-color="#a34f27"/><stop offset=".587" stop-color="#8b3817"/><stop offset="1" stop-color="#802d10"/></linearGradient><path fill="url(#_emLYSOAQy~GL2XcbqFqUd)" d="M20,43h-7c-1.105,0-2-0.895-2-2v0c0-1.105,0.895-2,2-2h7c1.105,0,2,0.895,2,2v0	C22,42.105,21.105,43,20,43z"/><path fill="#35c1f1" d="M21,16c0,2.208,1.79,4,3.998,4C27.211,20,29,18.208,29,16s-1.789-4-4.002-4C22.79,12,21,13.792,21,16	z"/></svg>