<svg xmlns="http://www.w3.org/2000/svg" viewBox="0 0 48 48"><linearGradient id="iSXIKVp3wbsxnygj81rfya" x1="24.226" x2="38.138" y1="4.726" y2="18.638" gradientUnits="userSpaceOnUse"><stop offset="0" stop-color="#1d59b3"/><stop offset="1" stop-color="#195bbc"/></linearGradient><path fill="url(#iSXIKVp3wbsxnygj81rfya)" d="M43,14H20c-0.55,0-1-0.45-1-1v-2c0-0.55,0.45-1,1-1h23c0.55,0,1,0.45,1,1v2	C44,13.55,43.55,14,43,14z"/><path fill="#42a4eb" d="M6.761,15.743l-3.504-3.504c-0.342-0.342-0.342-0.897,0-1.239l1.239-1.239	c0.342-0.342,0.897-0.342,1.239,0l1.646,1.646l5.151-5.151c0.342-0.342,0.897-0.342,1.239,0l1.239,1.239	c0.342,0.342,0.342,0.897,0,1.239L8,15.743C7.658,16.086,7.103,16.086,6.761,15.743z"/><linearGradient id="iSXIKVp3wbsxnygj81rfyb" x1="24.226" x2="38.138" y1="16.726" y2="30.638" gradientUnits="userSpaceOnUse"><stop offset="0" stop-color="#1d59b3"/><stop offset="1" stop-color="#195bbc"/></linearGradient><path fill="url(#iSXIKVp3wbsxnygj81rfyb)" d="M43,26H20c-0.55,0-1-0.45-1-1v-2c0-0.55,0.45-1,1-1h23c0.55,0,1,0.45,1,1v2	C44,25.55,43.55,26,43,26z"/><path fill="#42a4eb" d="M6.761,27.743l-3.504-3.504c-0.342-0.342-0.342-0.897,0-1.239l1.239-1.239	c0.342-0.342,0.897-0.342,1.239,0l1.646,1.646l5.151-5.151c0.342-0.342,0.897-0.342,1.239,0l1.239,1.239	c0.342,0.342,0.342,0.897,0,1.239L8,27.743C7.658,28.086,7.103,28.086,6.761,27.743z"/><linearGradient id="iSXIKVp3wbsxnygj81rfyc" x1="24.226" x2="38.138" y1="28.726" y2="42.638" gradientUnits="userSpaceOnUse"><stop offset="0" stop-color="#1d59b3"/><stop offset="1" stop-color="#195bbc"/></linearGradient><path fill="url(#iSXIKVp3wbsxnygj81rfyc)" d="M43,38H20c-0.55,0-1-0.45-1-1v-2c0-0.55,0.45-1,1-1h23c0.55,0,1,0.45,1,1v2	C44,37.55,43.55,38,43,38z"/><linearGradient id="iSXIKVp3wbsxnygj81rfyd" x1="6" x2="12" y1="36" y2="36" gradientUnits="userSpaceOnUse"><stop offset="0" stop-color="#1d59b3"/><stop offset="1" stop-color="#195bbc"/></linearGradient><path fill="url(#iSXIKVp3wbsxnygj81rfyd)" d="M9,33c-1.657,0-3,1.343-3,3s1.343,3,3,3s3-1.343,3-3S10.657,33,9,33z"/></svg>