<svg xmlns="http://www.w3.org/2000/svg" viewBox="0 0 48 48"><linearGradient id="CUyaNmX2o_ib0jpVnDal~a" x1="20.375" x2="28.748" y1="312.939" y2="283.054" gradientTransform="matrix(1 0 0 -1 0 324)" gradientUnits="userSpaceOnUse"><stop offset="0" stop-color="#32bdef"/><stop offset="1" stop-color="#1ea2e4"/></linearGradient><path fill="url(#CUyaNmX2o_ib0jpVnDal~a)" d="M43.125,9H4.875C3.287,9,2,10.287,2,11.875v24.25C2,37.713,3.287,39,4.875,39h38.25	C44.713,39,46,37.713,46,36.125v-24.25C46,10.287,44.713,9,43.125,9z"/><linearGradient id="CUyaNmX2o_ib0jpVnDal~b" x1="219.391" x2="221.301" y1="34.186" y2="29.559" gradientTransform="matrix(0 -1 -1 0 39.5 244.5)" gradientUnits="userSpaceOnUse"><stop offset="0" stop-color="#5bc8ef"/><stop offset="1" stop-color="#42befc"/></linearGradient><path fill="url(#CUyaNmX2o_ib0jpVnDal~b)" d="M11,24L11,24c0,0.552-0.448,1-1,1H6c-0.552,0-1-0.448-1-1l0,0c0-0.552,0.448-1,1-1h4	C10.552,23,11,23.448,11,24z"/><linearGradient id="CUyaNmX2o_ib0jpVnDal~c" x1="219.391" x2="221.301" y1="26.186" y2="21.559" gradientTransform="matrix(0 -1 -1 0 39.5 244.5)" gradientUnits="userSpaceOnUse"><stop offset="0" stop-color="#5bc8ef"/><stop offset="1" stop-color="#42befc"/></linearGradient><path fill="url(#CUyaNmX2o_ib0jpVnDal~c)" d="M19,24L19,24c0,0.552-0.448,1-1,1h-4c-0.552,0-1-0.448-1-1l0,0c0-0.552,0.448-1,1-1h4	C18.552,23,19,23.448,19,24z"/><linearGradient id="CUyaNmX2o_ib0jpVnDal~d" x1="219.391" x2="221.301" y1="18.186" y2="13.559" gradientTransform="matrix(0 -1 -1 0 39.5 244.5)" gradientUnits="userSpaceOnUse"><stop offset="0" stop-color="#5bc8ef"/><stop offset="1" stop-color="#42befc"/></linearGradient><path fill="url(#CUyaNmX2o_ib0jpVnDal~d)" d="M27,24L27,24c0,0.552-0.448,1-1,1h-4c-0.552,0-1-0.448-1-1l0,0c0-0.552,0.448-1,1-1h4	C26.552,23,27,23.448,27,24z"/><linearGradient id="CUyaNmX2o_ib0jpVnDal~e" x1="219.391" x2="221.301" y1="10.186" y2="5.559" gradientTransform="matrix(0 -1 -1 0 39.5 244.5)" gradientUnits="userSpaceOnUse"><stop offset="0" stop-color="#5bc8ef"/><stop offset="1" stop-color="#42befc"/></linearGradient><path fill="url(#CUyaNmX2o_ib0jpVnDal~e)" d="M35,24L35,24c0,0.552-0.448,1-1,1h-4c-0.552,0-1-0.448-1-1l0,0c0-0.552,0.448-1,1-1h4	C34.552,23,35,23.448,35,24z"/><linearGradient id="CUyaNmX2o_ib0jpVnDal~f" x1="219.391" x2="221.301" y1="2.186" y2="-2.441" gradientTransform="matrix(0 -1 -1 0 39.5 244.5)" gradientUnits="userSpaceOnUse"><stop offset="0" stop-color="#5bc8ef"/><stop offset="1" stop-color="#42befc"/></linearGradient><path fill="url(#CUyaNmX2o_ib0jpVnDal~f)" d="M43,24L43,24c0,0.552-0.448,1-1,1h-4c-0.552,0-1-0.448-1-1l0,0c0-0.552,0.448-1,1-1h4	C42.552,23,43,23.448,43,24z"/><path fill="#bbd2de" d="M36.013,20h5.974C42.546,20,43,19.546,43,18.987v-4.974C43,13.454,42.546,13,41.987,13h-5.974	C35.454,13,35,13.454,35,14.013v4.974C35,19.546,35.454,20,36.013,20z"/><path fill="#0078d4" d="M13.5,31h-8C5.224,31,5,30.776,5,30.5v-1C5,29.224,5.224,29,5.5,29h8c0.276,0,0.5,0.224,0.5,0.5v1	C14,30.776,13.776,31,13.5,31z"/><path fill="#0078d4" d="M24.5,31h-8c-0.276,0-0.5-0.224-0.5-0.5v-1c0-0.276,0.224-0.5,0.5-0.5h8c0.276,0,0.5,0.224,0.5,0.5v1	C25,30.776,24.776,31,24.5,31z"/><path fill="#0078d4" d="M19.5,35h-14C5.224,35,5,34.776,5,34.5v-1C5,33.224,5.224,33,5.5,33h14c0.276,0,0.5,0.224,0.5,0.5v1	C20,34.776,19.776,35,19.5,35z"/><path d="M46,30.474C43.992,28.341,41.153,27,38,27c-6.065,0-11,4.935-11,11	c0,0.338,0.021,0.67,0.051,1h16.074C44.713,39,46,37.713,46,36.125V30.474z" opacity=".05"/><path d="M46,31.216c-1.927-2.269-4.796-3.716-8-3.716c-5.79,0-10.5,4.71-10.5,10.5	c0,0.338,0.019,0.671,0.051,1h15.574C44.713,39,46,37.713,46,36.125V31.216z" opacity=".07"/><linearGradient id="CUyaNmX2o_ib0jpVnDal~g" x1="30.096" x2="43.366" y1="30.096" y2="43.366" gradientUnits="userSpaceOnUse"><stop offset="0" stop-color="#bd4ff4"/><stop offset=".587" stop-color="#a235ec"/><stop offset="1" stop-color="#8c20e5"/></linearGradient><circle cx="38" cy="38" r="10" fill="url(#CUyaNmX2o_ib0jpVnDal~g)"/><path d="M40.95,44c-1.366,0-2.822-0.79-3.208-2.502l-1.078,1.654c-0.291,0.446-0.781,0.712-1.312,0.712	h-0.981c-0.44,0-0.844-0.24-1.054-0.627c-0.21-0.385-0.192-0.854,0.047-1.224l1.926-2.964c-0.13,0.013-0.263,0.019-0.399,0.019	c-1.592,0-3.306-1.073-3.306-3.43c0-2.177,1.397-3.639,3.476-3.639c1.674,0,2.852,0.949,3.192,2.489l1.066-1.641	c0.292-0.446,0.782-0.712,1.313-0.712h0.994c0.438,0,0.842,0.238,1.052,0.623c0.211,0.387,0.194,0.855-0.044,1.226l-1.932,2.967	c0.136-0.014,0.274-0.021,0.416-0.021c2.031,0,3.293,1.319,3.293,3.442C44.413,42.509,42.989,44,40.95,44z" opacity=".05"/><path d="M40.95,43.5c-1.397,0-2.806-0.905-2.806-2.929c0-0.242,0.02-0.475,0.059-0.695l-1.957,3.004	c-0.198,0.304-0.532,0.484-0.893,0.484h-0.981c-0.256,0-0.492-0.14-0.614-0.365c-0.123-0.225-0.112-0.499,0.027-0.714l2.676-4.117	c-0.441,0.259-0.972,0.4-1.568,0.4c-1.397,0-2.806-0.906-2.806-2.93c0-1.906,1.168-3.139,2.976-3.139	c1.723,0,2.793,1.133,2.793,2.956c0,0.224-0.017,0.438-0.05,0.643l1.935-2.978c0.199-0.304,0.532-0.484,0.893-0.484h0.994	c0.256,0,0.491,0.14,0.614,0.363c0.123,0.225,0.113,0.499-0.026,0.715l-2.692,4.134c0.447-0.27,0.988-0.417,1.597-0.417	c1.749,0,2.793,1.1,2.793,2.942C43.913,42.244,42.722,43.5,40.95,43.5z M41.059,39.626c-0.181,0-0.483,0-0.483,0.877	c0,0.802,0.274,0.802,0.456,0.802c0.173,0,0.463,0,0.463-0.856C41.495,40.201,41.453,39.626,41.059,39.626z M35.022,34.694	c-0.183,0-0.49,0-0.49,0.877c0,0.802,0.277,0.802,0.443,0.802c0.173,0,0.463,0,0.463-0.857	C35.437,34.694,35.167,34.694,35.022,34.694z" opacity=".07"/><path fill="#fff" d="M34.893,38.068c-0.88,0-2.306-0.485-2.306-2.429c0-1.682,1.001-2.639,2.476-2.639	c1.43,0,2.293,0.908,2.293,2.456C37.356,37.004,36.445,38.068,34.893,38.068z M41.795,33.444l-5.968,9.163	c-0.104,0.16-0.283,0.257-0.474,0.257h-0.981c-0.158,0-0.253-0.175-0.167-0.307l5.955-9.163c0.104-0.16,0.283-0.257,0.474-0.257	h0.994C41.786,33.136,41.881,33.311,41.795,33.444z M35.022,34.194c-0.66,0-0.99,0.459-0.99,1.377c0,0.868,0.314,1.302,0.943,1.302	c0.642,0,0.963-0.452,0.963-1.357C35.937,34.635,35.632,34.194,35.022,34.194z M40.95,43c-1.22,0-2.306-0.789-2.306-2.429	c0-1.639,0.997-2.639,2.476-2.639c1.479,0,2.293,0.9,2.293,2.442S42.504,43,40.95,43z M41.059,39.126	c-0.656,0-0.983,0.459-0.983,1.377c0,0.868,0.319,1.302,0.956,1.302c0.642,0,0.963-0.452,0.963-1.357	C41.995,39.772,41.737,39.126,41.059,39.126z"/></svg>