<svg xmlns="http://www.w3.org/2000/svg" viewBox="0 0 48 48"><linearGradient id="KhuQTRxMIm_NNVnNgRnfua" x1="11.711" x2="34.673" y1="3.696" y2="40.787" gradientUnits="userSpaceOnUse"><stop offset="0" stop-color="#5c65d6"/><stop offset=".999" stop-color="#464eb0"/></linearGradient><path fill="url(#KhuQTRxMIm_NNVnNgRnfua)" d="M38,11l0.565-1.339c0.064-0.153,0.164-0.288,0.291-0.394l0.579-0.484	c0.166-0.138,0.284-0.325,0.339-0.533l0.101-0.384c0.079-0.3,0.02-0.619-0.161-0.871l-0.403-0.562C39.116,6.161,38.801,6,38.466,6	H6.162C5.542,6,5.06,6.539,5.128,7.155l0.865,7.788C5.998,14.981,6,15.019,6,15.058v20.512c0,0.276,0.11,0.54,0.305,0.735	l0.391,0.391C6.89,36.89,7.155,37,7.431,37H7.96C8.534,37,9,37.466,9,38.04v2.92C9,41.534,9.466,42,10.04,42h21.529	c0.276,0,0.54-0.11,0.735-0.305l0.391-0.391C32.89,41.11,33,40.845,33,40.569v-1.138c0-0.276-0.11-0.54-0.305-0.735l-0.002-0.002	c-0.389-0.389-0.408-1.015-0.042-1.426L33,36.875l-0.534-0.467c-0.287-0.251-0.414-0.639-0.33-1.011l0.653-2.899	c0.042-0.185,0.133-0.356,0.265-0.492l0.653-0.679c0.186-0.193,0.29-0.45,0.291-0.718l0.001-0.474c0-0.17,0.042-0.337,0.122-0.487	l0.661-1.239c0.138-0.259,0.38-0.448,0.665-0.52l0.764-0.191C36.675,27.581,37,27.165,37,26.688v-1.476	c0-0.14,0.028-0.278,0.083-0.406l0.619-1.458c0.077-0.18,0.203-0.336,0.364-0.447l0.488-0.339C38.833,22.366,39,22.047,39,21.706	v-1.276c0-0.276,0.11-0.54,0.305-0.735l0.391-0.391C39.89,19.11,40,18.845,40,18.569v-1.926c0-0.394,0.223-0.754,0.575-0.93	l0.85-0.425C41.777,15.111,42,14.751,42,14.357v-1.112c0-0.161,0.038-0.321,0.11-0.465l0.138-0.275	C42.593,11.814,42.09,11,41.317,11H38z"/></svg>