<svg xmlns="http://www.w3.org/2000/svg" data-name="Слой 1" viewBox="0 0 48 48"><defs><linearGradient id="eP4vH9qeCmcnHOmNyJS1ya" x1="36.25" x2="28.813" y1="13.502" y2="13.502" data-name="Безымянный градиент 254" gradientUnits="userSpaceOnUse"><stop offset="0" stop-color="#21ad64"/><stop offset=".311" stop-color="#1fa961"/><stop offset=".608" stop-color="#189e58"/><stop offset=".899" stop-color="#0d8b49"/><stop offset="1" stop-color="#088242"/></linearGradient><linearGradient id="eP4vH9qeCmcnHOmNyJS1yb" x1="12" x2="19.097" y1="21.502" y2="21.502" data-name="Безымянный градиент 253" gradientUnits="userSpaceOnUse"><stop offset="0" stop-color="#21ad64"/><stop offset=".315" stop-color="#1fa961"/><stop offset=".608" stop-color="#189e58"/><stop offset=".891" stop-color="#0d8b49"/><stop offset="1" stop-color="#088242"/></linearGradient><linearGradient id="eP4vH9qeCmcnHOmNyJS1yc" x1="17.919" x2="31.142" y1="4.852" y2="41.182" data-name="Безымянный градиент 100" gradientUnits="userSpaceOnUse"><stop offset="0" stop-color="#21ad64"/><stop offset="1" stop-color="#088242"/></linearGradient><linearGradient id="eP4vH9qeCmcnHOmNyJS1yd" x1="12.344" x2="33.785" y1="34.397" y2="46.776" data-name="Безымянный градиент 216" gradientUnits="userSpaceOnUse"><stop offset="0" stop-color="#b9360c"/><stop offset=".537" stop-color="#b5350c"/><stop offset=".999" stop-color="#ab320b"/></linearGradient></defs><path fill="url(#eP4vH9qeCmcnHOmNyJS1ya)" d="M30,19.0023H25a2,2,0,0,1,0-4h5a2.00229,2.00229,0,0,0,2-2v-3a2,2,0,1,1,4,0v3A6.00656,6.00656,0,0,1,30,19.0023Z"/><path fill="url(#eP4vH9qeCmcnHOmNyJS1yb)" d="M23,28.0023H18a6.00656,6.00656,0,0,1-6-6v-5a2,2,0,1,1,4,0v5a2.00229,2.00229,0,0,0,2,2h5a2,2,0,0,1,0,4Z"/><path fill="url(#eP4vH9qeCmcnHOmNyJS1yc)" d="M24,4.0023h0a5,5,0,0,1,5,5v26a0,0,0,0,1,0,0H19a0,0,0,0,1,0,0v-26A5,5,0,0,1,24,4.0023Z"/><rect width="2" height="19" x="21" y="11.002" fill="#107c42" rx="1"/><rect width="2" height="19" x="25" y="11.002" fill="#107c42" rx="1"/><path fill="url(#eP4vH9qeCmcnHOmNyJS1yd)" d="M40.2062,43.0023H7.7938a1.78847,1.78847,0,0,1-1.04861-3.23864A29.5285,29.5285,0,0,1,24,34.0023a29.5285,29.5285,0,0,1,17.25481,5.76136A1.78847,1.78847,0,0,1,40.2062,43.0023Z"/></svg>