<svg xmlns="http://www.w3.org/2000/svg" viewBox="0 0 48 48"><linearGradient id="c03tIO7o9a6GBRHIm5D3Za" x1="24" x2="24" y1="43.304" y2="38.148" gradientUnits="userSpaceOnUse"><stop offset="0" stop-color="#37c6d0"/><stop offset="1" stop-color="#1a9ba1"/></linearGradient><rect width="4" height="6" x="22" y="37" fill="url(#c03tIO7o9a6GBRHIm5D3Za)"/><linearGradient id="c03tIO7o9a6GBRHIm5D3Zb" x1="24" x2="24" y1="38.935" y2="34.943" gradientUnits="userSpaceOnUse"><stop offset="0" stop-color="#1a9ba1"/><stop offset="1" stop-color="#038387"/></linearGradient><path fill="url(#c03tIO7o9a6GBRHIm5D3Zb)" d="M29,33H19v4c0,1.105,0.895,2,2,2h6c1.105,0,2-0.895,2-2V33z"/><linearGradient id="c03tIO7o9a6GBRHIm5D3Zc" x1="18.843" x2="33.679" y1="3.208" y2="43.969" gradientUnits="userSpaceOnUse"><stop offset="0" stop-color="#37c6d0"/><stop offset="1" stop-color="#1a9ba1"/></linearGradient><path fill="url(#c03tIO7o9a6GBRHIm5D3Zc)" d="M37,16c0-7.18-5.82-13-13-13S11,8.82,11,16c0,2.455,3.349,13.619,4.566,17.592	C15.823,34.432,16.597,35,17.476,35h13.048c0.879,0,1.653-0.568,1.911-1.408C33.651,29.619,37,18.455,37,16z"/><path fill="#343434" d="M26,26c0-0.738-0.405-1.376-1-1.723V21c0-0.552-0.448-1-1-1s-1,0.448-1,1v3.277	c-0.595,0.346-1,0.984-1,1.723c0,0.738,0.405,1.376,1,1.723V29c0,0.552,0.448,1,1,1s1-0.448,1-1v-1.277	C25.595,27.376,26,26.738,26,26z"/><radialGradient id="c03tIO7o9a6GBRHIm5D3Zd" cx="24.326" cy="11.022" r="16.2" gradientUnits="userSpaceOnUse"><stop offset="0" stop-color="#dfe9f2"/><stop offset=".391" stop-color="#d6e0e9"/><stop offset="1" stop-color="#bfc8d1"/></radialGradient><path fill="url(#c03tIO7o9a6GBRHIm5D3Zd)" d="M33.945,16H14.055c-0.592,0-1.059-0.513-1.001-1.103C13.607,9.336,18.292,5,24,5	s10.393,4.336,10.946,9.897C35.004,15.487,34.537,16,33.945,16z"/><path fill="#b31523" d="M24,17c-0.256,0-0.512-0.098-0.707-0.293c-0.391-0.391-0.391-1.023,0-1.414l5-5	c0.391-0.391,1.023-0.391,1.414,0s0.391,1.023,0,1.414l-5,5C24.512,16.902,24.256,17,24,17z"/><linearGradient id="c03tIO7o9a6GBRHIm5D3Ze" x1="19.286" x2="34.122" y1="3.047" y2="43.81" gradientUnits="userSpaceOnUse"><stop offset="0" stop-color="#37c6d0"/><stop offset="1" stop-color="#1a9ba1"/></linearGradient><circle cx="24" cy="16" r="3" fill="url(#c03tIO7o9a6GBRHIm5D3Ze)"/></svg>