<svg xmlns="http://www.w3.org/2000/svg" viewBox="0 0 48 48"><linearGradient id="wInPjCRFVHsSukErikFTNa" x1="19.386" x2="26.616" y1="-429.716" y2="-469.415" gradientTransform="matrix(1 0 0 -1 0 -426)" gradientUnits="userSpaceOnUse"><stop offset="0" stop-color="#f44f5a"/><stop offset=".443" stop-color="#ee3d4a"/><stop offset="1" stop-color="#e52030"/></linearGradient><path fill="url(#wInPjCRFVHsSukErikFTNa)" d="M21.059,4.683c-0.016-0.056-0.025-0.155-0.025-0.228c0-0.546,0.443-0.989,0.989-0.989	c0.233,0,0.395,0.087,0.459,0.112c1.209,0.472,9.511,4.387,7.591,15.706c2.788-1.68,1.791-4.943,2.703-4.943	c0.342,0,0.483,0.128,0.692,0.428c3.05,4.353,5.36,9.544,5.36,14.401C38.829,37.361,32.19,44,24,44	c-9.006,0-14.829-7.586-14.829-14.829C9.171,17.123,23.37,14.898,21.059,4.683z"/><path d="M27.394,38.277c-1.602,0-3.314-0.984-3.608-3.128l-1.447,2.221c-0.305,0.47-0.822,0.75-1.383,0.75 h-1.129c-0.451,0-0.865-0.247-1.08-0.644c-0.216-0.396-0.197-0.877,0.051-1.256l2.391-3.679c-0.246,0.041-0.5,0.063-0.762,0.063 c-1.759,0-3.652-1.187-3.652-3.793c0-2.413,1.546-4.035,3.848-4.035c1.975,0,3.325,1.199,3.59,3.113l1.433-2.206 c0.307-0.471,0.825-0.752,1.385-0.752h1.144c0.451,0,0.865,0.247,1.08,0.644c0.215,0.396,0.196,0.877-0.05,1.256l-2.401,3.687 c0.253-0.046,0.517-0.069,0.788-0.069c2.243,0,3.637,1.46,3.637,3.81C31.226,36.624,29.65,38.277,27.394,38.277z M27.453,33.823 c0.007,0.014-0.065,0.154-0.065,0.582c0,0.419,0.076,0.527,0.077,0.528c0.043-0.006,0.131-0.122,0.131-0.591 c0-0.293-0.057-0.465-0.093-0.521C27.485,33.821,27.465,33.821,27.453,33.823z M20.503,28.151c0.006,0.012-0.068,0.149-0.068,0.582 c0,0.419,0.078,0.527,0.078,0.528c0.027-0.007,0.115-0.123,0.115-0.592c0-0.305-0.037-0.455-0.061-0.521 C20.546,28.149,20.518,28.149,20.503,28.151z M20.548,28.107" opacity=".05"/><path d="M27.394,37.777c-1.569,0-3.152-1.019-3.152-3.294c0-0.43,0.056-0.831,0.161-1.197l-2.483,3.812 c-0.213,0.327-0.573,0.522-0.964,0.522h-1.129c-0.268,0-0.513-0.146-0.641-0.382c-0.128-0.234-0.116-0.521,0.03-0.744l3.254-5.007 c-0.542,0.398-1.236,0.617-2.043,0.617c-1.569,0-3.152-1.019-3.152-3.293c0-2.147,1.314-3.535,3.348-3.535 c1.935,0,3.137,1.273,3.137,3.324c0,0.396-0.045,0.766-0.132,1.105l2.437-3.75c0.214-0.328,0.575-0.524,0.965-0.524h1.144 c0.267,0,0.513,0.146,0.64,0.382c0.128,0.235,0.116,0.521-0.03,0.745l-3.307,5.078c0.557-0.441,1.277-0.688,2.113-0.688 c1.964,0,3.137,1.237,3.137,3.31C30.726,36.363,29.387,37.777,27.394,37.777z M27.519,33.321c-0.221,0-0.631,0-0.631,1.084 c0,0.998,0.375,0.998,0.6,0.998c0.212,0,0.608,0,0.608-1.061C28.096,34.035,28.04,33.321,27.519,33.321z M20.574,27.649 c-0.223,0-0.639,0-0.639,1.084c0,0.997,0.38,0.997,0.584,0.997c0.212,0,0.608,0,0.608-1.061 C21.128,27.649,20.768,27.649,20.574,27.649z" opacity=".07"/><path fill="#fff" d="M20.426,31.605c-1.013,0-2.653-0.558-2.653-2.794c0-1.935,1.151-3.035,2.848-3.035 c1.645,0,2.637,1.044,2.637,2.825S22.212,31.605,20.426,31.605z M28.365,26.286l-6.864,10.539c-0.12,0.185-0.325,0.296-0.545,0.296 h-1.129c-0.182,0-0.291-0.201-0.192-0.354l6.849-10.539c0.12-0.185,0.325-0.296,0.546-0.296h1.144 C28.355,25.932,28.464,26.134,28.365,26.286z M20.574,27.149c-0.76,0-1.139,0.528-1.139,1.584c0,0.999,0.362,1.498,1.085,1.498 c0.738,0,1.108-0.52,1.108-1.561C21.628,27.656,21.277,27.149,20.574,27.149z M27.394,37.277c-1.404,0-2.653-0.908-2.653-2.794 c0-1.886,1.147-3.035,2.848-3.035c1.701,0,2.637,1.036,2.637,2.809C30.226,36.031,29.18,37.277,27.394,37.277z M27.518,32.822 c-0.754,0-1.131,0.528-1.131,1.584c0,0.999,0.367,1.498,1.1,1.498c0.738,0,1.108-0.52,1.108-1.561 C28.595,33.565,28.298,32.822,27.518,32.822z"/></svg>