<svg xmlns="http://www.w3.org/2000/svg" viewBox="0 0 48 48"><linearGradient id="~uwQzB9Ox8W16aS9samHEa" x1="24" x2="24" y1="44.882" y2="31.541" gradientUnits="userSpaceOnUse"><stop offset="0" stop-color="#d67526"/><stop offset=".147" stop-color="#c86b1f"/><stop offset=".447" stop-color="#b35b13"/><stop offset=".736" stop-color="#a5510c"/><stop offset="1" stop-color="#a14e0a"/></linearGradient><path fill="url(#~uwQzB9Ox8W16aS9samHEa)" d="M24,29.25L24,29.25c1.105,0,2,0.895,2,2v12.767c0,1.105-0.895,2-2,2h0c-1.105,0-2-0.895-2-2	V31.25C22,30.145,22.895,29.25,24,29.25z"/><linearGradient id="~uwQzB9Ox8W16aS9samHEb" x1="24" x2="24" y1="-1.429" y2="67.52" gradientUnits="userSpaceOnUse"><stop offset="0" stop-color="#fed100"/><stop offset="1" stop-color="#e38101"/></linearGradient><path fill="url(#~uwQzB9Ox8W16aS9samHEb)" d="M37,15.739v22.167c0,1.161-0.9,2.111-2,2.111H13c-1.1,0-2-0.95-2-2.111V15.739	c0-5.711,3.3-10.598,8-12.667c1.54-0.676,3.23-1.056,5-1.056s3.46,0.38,5,1.056C33.7,5.141,37,10.028,37,15.739z"/><linearGradient id="~uwQzB9Ox8W16aS9samHEc" x1="24" x2="24" y1="2.296" y2="33.816" gradientUnits="userSpaceOnUse"><stop offset="0" stop-color="#fed100"/><stop offset="1" stop-color="#e38101"/></linearGradient><path fill="url(#~uwQzB9Ox8W16aS9samHEc)" d="M29,3.072v36.944H19V3.072c1.54-0.676,3.23-1.056,5-1.056S27.46,2.397,29,3.072z"/><linearGradient id="~uwQzB9Ox8W16aS9samHEd" x1="18.5" x2="18.5" y1="24.149" y2="12.941" gradientUnits="userSpaceOnUse"><stop offset=".002" stop-color="#454545"/><stop offset=".013" stop-color="#464646"/><stop offset=".875" stop-color="#626262"/><stop offset="1" stop-color="#6d6d6d"/></linearGradient><circle cx="18.5" cy="22.517" r="2.5" fill="url(#~uwQzB9Ox8W16aS9samHEd)"/><linearGradient id="~uwQzB9Ox8W16aS9samHEe" x1="29.5" x2="29.5" y1="24.149" y2="12.941" gradientUnits="userSpaceOnUse"><stop offset=".002" stop-color="#454545"/><stop offset=".013" stop-color="#464646"/><stop offset=".875" stop-color="#626262"/><stop offset="1" stop-color="#6d6d6d"/></linearGradient><circle cx="29.5" cy="22.517" r="2.5" fill="url(#~uwQzB9Ox8W16aS9samHEe)"/><linearGradient id="~uwQzB9Ox8W16aS9samHEf" x1="18" x2="18" y1="19.252" y2="24.899" gradientUnits="userSpaceOnUse"><stop offset="0" stop-color="#f9f9f9"/><stop offset="1" stop-color="#c2c8cc"/></linearGradient><circle cx="18" cy="22.017" r="1" fill="url(#~uwQzB9Ox8W16aS9samHEf)"/><linearGradient id="~uwQzB9Ox8W16aS9samHEg" x1="29" x2="29" y1="19.252" y2="24.899" gradientUnits="userSpaceOnUse"><stop offset="0" stop-color="#f9f9f9"/><stop offset="1" stop-color="#c2c8cc"/></linearGradient><circle cx="29" cy="22.017" r="1" fill="url(#~uwQzB9Ox8W16aS9samHEg)"/><circle cx="15" cy="29.017" r="2" fill="#eb6773"/><circle cx="33" cy="29.017" r="2" fill="#eb6773"/><linearGradient id="~uwQzB9Ox8W16aS9samHEh" x1="24" x2="24" y1="32.37" y2="20.63" gradientUnits="userSpaceOnUse"><stop offset=".002" stop-color="#454545"/><stop offset=".013" stop-color="#464646"/><stop offset=".875" stop-color="#626262"/><stop offset="1" stop-color="#6d6d6d"/></linearGradient><path fill="url(#~uwQzB9Ox8W16aS9samHEh)" d="M24,32.017c-2.206,0-4-1.794-4-4c0-0.553,0.447-1,1-1s1,0.447,1,1c0,1.103,0.897,2,2,2	s2-0.897,2-2c0-0.553,0.447-1,1-1s1,0.447,1,1C28,30.223,26.206,32.017,24,32.017z"/></svg>