<svg xmlns="http://www.w3.org/2000/svg" viewBox="0 0 48 48"><path fill="#f9f06b" d="M39.436,42H8.564C7.148,42,6,40.852,6,39.436V8.564C6,7.148,7.148,6,8.564,6h30.872	C40.852,6,42,7.148,42,8.564v30.872C42,40.852,40.852,42,39.436,42z"/><linearGradient id="fUu_tR23fjLK6FL7WZTLIa" x1="22.724" x2="29.62" y1="13.456" y2="43.428" gradientUnits="userSpaceOnUse"><stop offset="0" stop-color="#f6bd27"/><stop offset="1" stop-color="#e36001"/></linearGradient><path fill="url(#fUu_tR23fjLK6FL7WZTLIa)" d="M39.149,30H8.851C8.381,30,8,29.619,8,29.149V8.851C8,8.381,8.381,8,8.851,8h30.298	C39.619,8,40,8.381,40,8.851v20.298C40,29.619,39.619,30,39.149,30z"/><linearGradient id="fUu_tR23fjLK6FL7WZTLIb" x1="22.685" x2="26.415" y1="28.868" y2="45.077" gradientUnits="userSpaceOnUse"><stop offset="0" stop-color="#ffd000"/><stop offset="1" stop-color="#f9b200"/></linearGradient><path fill="url(#fUu_tR23fjLK6FL7WZTLIb)" d="M39.436,32H33v5.734	C33,38.433,32.433,39,31.734,39H16.266C15.567,39,15,38.433,15,37.734V32H8.564C7.148,32,6,30.852,6,29.436v10	C6,40.852,7.148,42,8.564,42h30.872C40.852,42,42,40.852,42,39.436v-10C42,30.852,40.852,32,39.436,32z"/><path fill="#f6f5f4" d="M38.122,11H9.878C9.393,11,9,11.393,9,11.878V30h6v5.904C15,36.509,15.491,37,16.096,37h15.808	C32.509,37,33,36.509,33,35.904V30h6V11.878C39,11.393,38.607,11,38.122,11z"/><linearGradient id="fUu_tR23fjLK6FL7WZTLIc" x1="24.157" x2="25.73" y1="35.699" y2="42.535" gradientUnits="userSpaceOnUse"><stop offset="0" stop-color="#c1c0bd"/><stop offset=".998" stop-color="#9ea7b0"/></linearGradient><path fill="url(#fUu_tR23fjLK6FL7WZTLIc)" d="M15,34v1.904	C15,36.509,15.491,37,16.096,37h15.808C32.509,37,33,36.509,33,35.904V34H15z"/><polygon fill="#eaeae9" points="9,28.655 9,29.891 19.294,22.404 18.706,21.596"/><polygon fill="#eaeae9" points="39,28.655 29.294,21.596 28.706,22.404 39,29.891"/><path fill="#d9d8d7" d="M38.285,11.033L26.969,23.177C26.174,24.03,25.119,24.5,24,24.5s-2.174-0.47-2.969-1.323	L9.715,11.033c-0.364,0.071-0.638,0.356-0.691,0.726l11.275,12.099C21.285,24.917,22.6,25.5,24,25.5s2.715-0.583,3.701-1.642	l11.275-12.099C38.924,11.389,38.65,11.104,38.285,11.033z"/></svg>