<svg xmlns="http://www.w3.org/2000/svg" viewBox="0 0 48 48"><linearGradient id="9YxGHieIqC8mLkpc2xbUwa" x1="-2.433" x2="35.036" y1="4.694" y2="32.061" gradientUnits="userSpaceOnUse"><stop offset="0" stop-color="#a8e2f7"/><stop offset="1" stop-color="#47c1ff"/></linearGradient><path fill="url(#9YxGHieIqC8mLkpc2xbUwa)" d="M40,6H8C6.897,6.003,6.003,6.897,6,8v4v2v26c0.003,1.103,0.897,1.997,2,2h32 c1.103-0.003,1.997-0.897,2-2V14v-2V8C41.997,6.897,41.103,6.003,40,6z"/><path fill="#fff" d="M10.5,19h3c0.276,0,0.5,0.224,0.5,0.5v3c0,0.276-0.224,0.5-0.5,0.5h-3c-0.276,0-0.5-0.224-0.5-0.5 v-3C10,19.224,10.224,19,10.5,19z"/><path fill="#fff" d="M18.5,26h19c0.276,0,0.5,0.224,0.5,0.5v3c0,0.276-0.224,0.5-0.5,0.5h-19c-0.276,0-0.5-0.224-0.5-0.5 v-3C18,26.224,18.224,26,18.5,26z"/><path fill="#fff" d="M18.5,19h19c0.276,0,0.5,0.224,0.5,0.5v3c0,0.276-0.224,0.5-0.5,0.5h-19c-0.276,0-0.5-0.224-0.5-0.5 v-3C18,19.224,18.224,19,18.5,19z"/><path fill="#e52030" d="M10.5,11h27c0.276,0,0.5,0.224,0.5,0.5v3c0,0.276-0.224,0.5-0.5,0.5h-27c-0.276,0-0.5-0.224-0.5-0.5 v-3C10,11.224,10.224,11,10.5,11z"/><path fill="#fff" d="M18.5,33h19c0.276,0,0.5,0.224,0.5,0.5v3c0,0.276-0.224,0.5-0.5,0.5h-19c-0.276,0-0.5-0.224-0.5-0.5 v-3C18,33.224,18.224,33,18.5,33z"/><path fill="#fff" d="M10.5,26h3c0.276,0,0.5,0.224,0.5,0.5v3c0,0.276-0.224,0.5-0.5,0.5h-3c-0.276,0-0.5-0.224-0.5-0.5 v-3C10,26.224,10.224,26,10.5,26z"/><path fill="#fff" d="M10.5,33h3c0.276,0,0.5,0.224,0.5,0.5v3c0,0.276-0.224,0.5-0.5,0.5h-3c-0.276,0-0.5-0.224-0.5-0.5 v-3C10,33.224,10.224,33,10.5,33z"/></svg>