<svg xmlns="http://www.w3.org/2000/svg" viewBox="0 0 48 48"><linearGradient id="L8Pm9S4wycBx4wcC0ydlBa" x1="24" x2="24" y1="5.908" y2="41.795" gradientTransform="translate(-.022 .252)" gradientUnits="userSpaceOnUse"><stop offset="0" stop-color="#0568ba"/><stop offset="1" stop-color="#0b59a2"/></linearGradient><path fill="url(#L8Pm9S4wycBx4wcC0ydlBa)" d="M40.004,41.969L8.031,42c-1.099,0.001-1.999-0.897-2-1.996L6,8.031	c-0.001-1.099,0.897-1.999,1.996-2L39.969,6c1.099-0.001,1.999,0.897,2,1.996L42,39.969C42.001,41.068,41.103,41.968,40.004,41.969z"/><path fill="#50e6ff" d="M38.5,37h-29C9.224,37,9,36.776,9,36.5v-25C9,11.224,9.224,11,9.5,11h29c0.276,0,0.5,0.224,0.5,0.5	v25C39,36.776,38.776,37,38.5,37z"/><radialGradient id="L8Pm9S4wycBx4wcC0ydlBb" cx="38.111" cy="37.92" r="12.113" gradientUnits="userSpaceOnUse"><stop offset=".348"/><stop offset=".936" stop-opacity=".098"/><stop offset="1" stop-opacity="0"/></radialGradient><path fill="url(#L8Pm9S4wycBx4wcC0ydlBb)" d="M26,38c0,1.398,0.251,2.734,0.691,3.982l13.313-0.013	c1.099-0.001,1.997-0.901,1.996-2l-0.013-13.276C40.738,26.252,39.4,26,38,26C31.373,26,26,31.373,26,38z" opacity=".3"/><linearGradient id="L8Pm9S4wycBx4wcC0ydlBc" x1="30.929" x2="45.071" y1="30.929" y2="45.071" gradientUnits="userSpaceOnUse"><stop offset="0" stop-color="#f44f5a"/><stop offset=".443" stop-color="#ee3d4a"/><stop offset="1" stop-color="#e52030"/></linearGradient><path fill="url(#L8Pm9S4wycBx4wcC0ydlBc)" d="M48,38c0,5.522-4.478,10-10,10s-10-4.478-10-10s4.478-10,10-10S48,32.478,48,38z"/><path fill="#fff" d="M41.536,33.757l0.707,0.707c0.195,0.195,0.195,0.512,0,0.707l-7.071,7.071	c-0.195,0.195-0.512,0.195-0.707,0l-0.707-0.707c-0.195-0.195-0.195-0.512,0-0.707l7.071-7.071	C41.024,33.562,41.34,33.562,41.536,33.757z"/><path fill="#fff" d="M42.243,41.536l-0.707,0.707c-0.195,0.195-0.512,0.195-0.707,0l-7.071-7.071	c-0.195-0.195-0.195-0.512,0-0.707l0.707-0.707c0.195-0.195,0.512-0.195,0.707,0l7.071,7.071	C42.438,41.024,42.438,41.34,42.243,41.536z"/></svg>