<svg xmlns="http://www.w3.org/2000/svg" data-name="Слой 1" viewBox="0 0 48 48"><defs><linearGradient id="lfYWx_IBl2iWqqlvydX42a" x1="4.054" x2="18.63" y1="24.002" y2="24.002" data-name="Безымянный градиент 277" gradientUnits="userSpaceOnUse"><stop offset="0" stop-color="#21ad64"/><stop offset=".297" stop-color="#1ea961"/><stop offset=".617" stop-color="#179c56"/><stop offset=".947" stop-color="#0a8645"/><stop offset="1" stop-color="#088242"/></linearGradient><linearGradient id="lfYWx_IBl2iWqqlvydX42b" x1="40.837" x2="29.391" y1="17.502" y2="17.502" data-name="Безымянный градиент 278" gradientUnits="userSpaceOnUse"><stop offset="0" stop-color="#21ad64"/><stop offset=".288" stop-color="#1ea860"/><stop offset=".638" stop-color="#159954"/><stop offset="1" stop-color="#088242"/></linearGradient><linearGradient id="lfYWx_IBl2iWqqlvydX42c" x1="16.597" x2="30.616" y1="5.664" y2="44.179" data-name="Безымянный градиент 100" gradientUnits="userSpaceOnUse"><stop offset="0" stop-color="#21ad64"/><stop offset="1" stop-color="#088242"/></linearGradient></defs><path fill="url(#lfYWx_IBl2iWqqlvydX42a)" d="M23,31.0023H15a1.001,1.001,0,0,1-1-1V18.81138l1.72363-.86181a.50006.50006,0,1,0-.44726-.89453L14,17.69322V16.0023a2.99983,2.99983,0,0,0-3-3c-.09375,0-.18213.01917-.27368.02759L9.957,11.29918a.50014.50014,0,1,0-.91406.40625l.70215,1.57983A2.994,2.994,0,0,0,8,16.0023v5.69092L6.72363,21.055a.50006.50006,0,1,0-.44726.89453L8,22.81138V30.0023c0,.06287.00781.12378.0094.18622l-1.733.86652a.50006.50006,0,0,0,.44726.89453l1.39453-.69727A7.00731,7.00731,0,0,0,15,37.0023h8a3,3,0,1,0,0-6Z"/><path fill="url(#lfYWx_IBl2iWqqlvydX42b)" d="M41.94727,15.27867a.50054.50054,0,0,0-.6709-.22363L40,15.69322V13.0023a2.99983,2.99983,0,0,0-3-3,2.96865,2.96865,0,0,0-1.48657.40875l-.56616-1.13238a.50006.50006,0,0,0-.89454.44726l.67115,1.34247A2.97417,2.97417,0,0,0,34,13.0023v6a1.001,1.001,0,0,1-1,1H25a3,3,0,0,0,0,6h8a6.96438,6.96438,0,0,0,4.70923-1.83624l1.56714.78351a.50006.50006,0,1,0,.44726-.89453l-1.29175-.64594A6.96455,6.96455,0,0,0,40,19.0023V16.81138l1.72363-.86181A.50042.50042,0,0,0,41.94727,15.27867Z"/><path fill="url(#lfYWx_IBl2iWqqlvydX42c)" d="M31.72363,39.055,30,38.19322V32.90776l1.74316-.96845a.5001.5001,0,1,0-.48632-.874L30,31.76353V12.71629l1.70313-.757a.50014.50014,0,0,0-.40625-.91406L30,11.62169V10.0023A5.99244,5.99244,0,0,0,27.3103,5l.637-1.27411a.50006.50006,0,0,0-.89454-.44726l-.62085,1.24158a5.97482,5.97482,0,0,0-6.54125,1.11828l-1.167-.58349a.50006.50006,0,1,0-.44726.89453l.92456.46234A5.96567,5.96567,0,0,0,18,10.0023v1.69092L16.72363,11.055a.50006.50006,0,1,0-.44726.89453L18,12.81138V25.69322L16.72363,25.055a.50006.50006,0,1,0-.44726.89453L18,26.81138V39.19322l-1.72363.86182a.50006.50006,0,0,0,.44726.89453L18,40.31138V43.0023a2.00006,2.00006,0,0,0,2,2h8a2.00006,2.00006,0,0,0,2-2V39.31138l1.27637.63819a.50006.50006,0,1,0,.44726-.89453Z"/><rect width="2" height="16" x="21" y="9.002" fill="#107c42" rx="1"/><rect width="2" height="13" x="21" y="29.002" fill="#107c42" rx="1"/><rect width="2" height="16" x="25" y="19.002" fill="#107c42" rx="1"/></svg>