<svg xmlns="http://www.w3.org/2000/svg" viewBox="0 0 48 48"><linearGradient id="5OYKx~fv~ZsyOuC62tifWa" x1="10" x2="46" y1="27" y2="27" gradientUnits="userSpaceOnUse"><stop offset="0" stop-color="#28afea"/><stop offset="1" stop-color="#0b88da"/></linearGradient><path fill="url(#5OYKx~fv~ZsyOuC62tifWa)" d="M44,41H12c-1.105,0-2-0.895-2-2V15c0-1.105,0.895-2,2-2h32c1.105,0,2,0.895,2,2v24 C46,40.105,45.105,41,44,41z"/><path fill="#50e6ff" d="M36,34H4c-1.105,0-2-0.895-2-2V8c0-1.105,0.895-2,2-2h32c1.105,0,2,0.895,2,2v24 C38,33.105,37.105,34,36,34z"/><path fill="#50e6ff" d="M33,31H7c-1.105,0-2-0.895-2-2V11c0-1.105,0.895-2,2-2h26c1.105,0,2,0.895,2,2v18 C35,30.105,34.105,31,33,31z"/><linearGradient id="5OYKx~fv~ZsyOuC62tifWb" x1="17" x2="35" y1="25.671" y2="25.671" gradientUnits="userSpaceOnUse"><stop offset="0" stop-color="#3ccbf4"/><stop offset="1" stop-color="#1fa0e5"/></linearGradient><path fill="url(#5OYKx~fv~ZsyOuC62tifWb)" d="M35,27.706l-6.805-6.805c-0.731-0.731-1.911-0.746-2.661-0.036L17,28.765L19.823,31h14.118 C34.526,31,35,30.526,35,29.941V27.706z"/><circle cx="29.5" cy="14.5" r="2" fill="#fff8de"/><linearGradient id="5OYKx~fv~ZsyOuC62tifWc" x1="15.477" x2="15.477" y1="-849.967" y2="-865.261" gradientTransform="matrix(1 0 0 -1 0 -834)" gradientUnits="userSpaceOnUse"><stop offset="0" stop-color="#28afea"/><stop offset="1" stop-color="#0b88da"/></linearGradient><path fill="url(#5OYKx~fv~ZsyOuC62tifWc)" d="M25.953,31L13.802,16.706c-0.924-0.924-2.413-0.943-3.361-0.045L5,21.814v8.114 C5,30.52,5.48,31,6.071,31H25.953z"/></svg>