<svg xmlns="http://www.w3.org/2000/svg" viewBox="0 0 48 48"><path fill="#199be2" d="M45,23v18c0,1.105-0.895,2-2,2H25c-1.105,0-2-0.895-2-2V17c0-1.105,0.895-2,2-2h12L45,23z"/><linearGradient id="N3lHpBI~aAVd21QzFT7oHa" x1="36.047" x2="44.728" y1="366.046" y2="374.729" gradientTransform="matrix(1 0 0 -1 0 390)" gradientUnits="userSpaceOnUse"><stop offset="0" stop-color="#0077d2"/><stop offset="1" stop-color="#0b59a2"/></linearGradient><path fill="url(#N3lHpBI~aAVd21QzFT7oHa)" d="M37,15v6c0,1.105,0.895,2,2,2h6L37,15z"/><path d="M23,34c1.65,0,3-1.35,3-3V15h-1c-1.105,0-2,0.895-2,2V34z" opacity=".05"/><path d="M25,15h0.5v16c0,1.381-1.119,2.5-2.5,2.5V17C23,15.895,23.895,15,25,15z" opacity=".05"/><path fill="#50e6ff" d="M25,13v18c0,1.105-0.895,2-2,2H5c-1.105,0-2-0.895-2-2V7c0-1.105,0.895-2,2-2h12L25,13z"/><linearGradient id="N3lHpBI~aAVd21QzFT7oHb" x1="17.546" x2="21.07" y1="377.546" y2="381.07" gradientTransform="matrix(1 0 0 -1 0 390)" gradientUnits="userSpaceOnUse"><stop offset="0" stop-color="#3079d6"/><stop offset="1" stop-color="#297cd2"/></linearGradient><path fill="url(#N3lHpBI~aAVd21QzFT7oHb)" d="M17,5v6c0,1.105,0.895,2,2,2h6L17,5z"/><linearGradient id="N3lHpBI~aAVd21QzFT7oHc" x1="15" x2="19.771" y1="368.5" y2="368.5" gradientTransform="matrix(1 0 0 -1 0 390)" gradientUnits="userSpaceOnUse"><stop offset="0" stop-color="#c965eb"/><stop offset="1" stop-color="#c767e5"/></linearGradient><path fill="url(#N3lHpBI~aAVd21QzFT7oHc)" d="M15,22.978v2.566c0,0.406,0.491,0.609,0.777,0.321l3.749-3.769 c0.327-0.33,0.327-0.862,0-1.191l-3.749-3.769C15.491,16.847,15,17.05,15,17.456v3.27"/><linearGradient id="N3lHpBI~aAVd21QzFT7oHd" x1="8" x2="16" y1="368.5" y2="368.5" gradientTransform="matrix(1 0 0 -1 0 390)" gradientUnits="userSpaceOnUse"><stop offset="0" stop-color="#c965eb"/><stop offset="1" stop-color="#c767e5"/></linearGradient><path fill="url(#N3lHpBI~aAVd21QzFT7oHd)" d="M16,20H8.5C8.224,20,8,20.224,8,20.5v2C8,22.776,8.224,23,8.5,23H16"/><linearGradient id="N3lHpBI~aAVd21QzFT7oHe" x1="32.772" x2="37.543" y1="358.5" y2="358.5" gradientTransform="rotate(180 32.886 195)" gradientUnits="userSpaceOnUse"><stop offset="0" stop-color="#912fbd"/><stop offset="1" stop-color="#9332bf"/></linearGradient><path fill="url(#N3lHpBI~aAVd21QzFT7oHe)" d="M33,30.726v-3.27c0-0.406-0.491-0.609-0.777-0.321l-3.749,3.769 c-0.327,0.329-0.327,0.861,0,1.191l3.749,3.769C32.509,36.153,33,35.95,33,35.544v-2.566"/><linearGradient id="N3lHpBI~aAVd21QzFT7oHf" x1="25.771" x2="34.772" y1="358.5" y2="358.5" gradientTransform="rotate(180 32.886 195)" gradientUnits="userSpaceOnUse"><stop offset="0" stop-color="#912fbd"/><stop offset="1" stop-color="#9332bf"/></linearGradient><path fill="url(#N3lHpBI~aAVd21QzFT7oHf)" d="M31,33h8.5c0.276,0,0.5-0.224,0.5-0.5v-2c0-0.276-0.224-0.5-0.5-0.5H31"/></svg>