<svg xmlns="http://www.w3.org/2000/svg" xmlns:xlink="http://www.w3.org/1999/xlink" data-name="Слой 1" viewBox="0 0 48 48"><defs><linearGradient id="iLWKHwRaXPmZ6xoi7hcxFa" x1="16.045" x2="16.045" y1="44.033" y2="33.46" data-name="Безымянный градиент 8" gradientUnits="userSpaceOnUse"><stop offset="0" stop-color="#c26715"/><stop offset=".508" stop-color="#b85515"/><stop offset="1" stop-color="#ad3f16"/></linearGradient><linearGradient id="iLWKHwRaXPmZ6xoi7hcxFb" x1="6.779" x2="25.903" y1="-4.46" y2="48.08" data-name="Безымянный градиент 101" gradientUnits="userSpaceOnUse"><stop offset="0" stop-color="#21ad64"/><stop offset="1" stop-color="#088242"/></linearGradient><linearGradient id="iLWKHwRaXPmZ6xoi7hcxFc" x1="30" x2="30" y1="1277.682" y2="1271.189" gradientTransform="translate(0 -1234)" xlink:href="#iLWKHwRaXPmZ6xoi7hcxFa"/><linearGradient id="iLWKHwRaXPmZ6xoi7hcxFd" x1="15.076" x2="35.154" y1="-5.766" y2="49.397" data-name="Безымянный градиент 112" gradientUnits="userSpaceOnUse"><stop offset="0" stop-color="#33c481"/><stop offset="1" stop-color="#21a366"/></linearGradient></defs><path fill="url(#iLWKHwRaXPmZ6xoi7hcxFa)" d="M13.04545,15h6V43a1.00036,1.00036,0,0,1-1,1h-4a1.00036,1.00036,0,0,1-1-1Z"/><path fill="url(#iLWKHwRaXPmZ6xoi7hcxFb)" d="M26.10162,19.09027A6.49961,6.49961,0,0,0,21.50006,8c-.16968,0-.33618.01263-.50256.02539.00006-.00867.00256-.01672.00256-.02539a5,5,0,1,0-10,0c0,.00867.0025.01672.00256.02539C10.83624,8.01263,10.66974,8,10.50006,8A6.49961,6.49961,0,0,0,5.8985,19.09027a6.49191,6.49191,0,0,0,5.182,11.70813,4.9809,4.9809,0,0,0,9.83911,0,6.49571,6.49571,0,0,0,5.182-11.70813Z"/><path fill="url(#iLWKHwRaXPmZ6xoi7hcxFc)" d="M27,35h6v8a1.00036,1.00036,0,0,1-1,1H28a1.00036,1.00036,0,0,1-1-1Z"/><path fill="url(#iLWKHwRaXPmZ6xoi7hcxFd)" d="M44.687,34.243,39.02106,26h.225a1.74792,1.74792,0,0,0,1.465-2.703L35.884,15.88135A1.70347,1.70347,0,0,0,36.76,13.425l-5.374-9.11a1.61166,1.61166,0,0,0-2.774.001l-5.374,9.11a1.699,1.699,0,0,0,.87469,2.45667L19.285,23.301A1.74564,1.74564,0,0,0,20.75006,26h.22571l-5.66272,8.239A1.76174,1.76174,0,0,0,16.764,37H43.236A1.75941,1.75941,0,0,0,44.687,34.243Z"/><path d="M24.11,15.88a1.6856,1.6856,0,0,1-.87-2.45l2.35-3.99c-.13-.1-.27-.21-.41-.3s-.28-.18-.42-.26l-2.38,4.04a2.67971,2.67971,0,0,0-.23,2.26,2.77519,2.77519,0,0,0,.6.97L18.45,22.76a2.73093,2.73093,0,0,0,.89,3.85l-4.85,7.06A2.76006,2.76006,0,0,0,16.76,38h2.29V37H16.76a1.76458,1.76458,0,0,1-1.45-2.76L20.98,26h-.23a1.74363,1.74363,0,0,1-1.46-2.7Z" opacity=".05"/><path d="M24.11,15.88a1.6856,1.6856,0,0,1-.87-2.45l2.35-3.99c-.13-.1-.27-.21-.41-.3l-2.37,4.03a2.18286,2.18286,0,0,0,.59,2.89l-4.53,6.97a2.1966,2.1966,0,0,0-.1,2.29,2.17149,2.17149,0,0,0,1.32,1.08L14.9,33.96a2.259,2.259,0,0,0,1.86,3.54h2.29V37H16.76a1.76458,1.76458,0,0,1-1.45-2.76L20.98,26h-.23a1.74363,1.74363,0,0,1-1.46-2.7Z" opacity=".07"/></svg>