<svg xmlns="http://www.w3.org/2000/svg" viewBox="0 0 48 48"><linearGradient id="k14T_TPXEByDjaXj8~V84a" x1="17.607" x2="28.679" y1="4.297" y2="45.35" gradientUnits="userSpaceOnUse"><stop offset="0" stop-color="#636363"/><stop offset="1" stop-color="#444"/></linearGradient><path fill="url(#k14T_TPXEByDjaXj8~V84a)" d="M36,19c-2.852,0-5.696,1.499-8.075,3.27C30.35,19.59,33,15.8,33,12c0-4.971-4.029-9-9-9 s-9,4.029-9,9c0,3.8,2.65,7.59,5.075,10.27C17.696,20.499,14.852,19,12,19c-4.971,0-9,4.029-9,9c0,4.971,4.029,9,9,9 c4.077,0,8.144-3.049,10.838-5.599C22.061,37.317,18.533,42,15,42c-0.552,0-1,0.448-1,1c0,0.552,0.448,1,1,1h9h9 c0.552,0,1-0.448,1-1c0-0.552-0.448-1-1-1c-3.533,0-7.061-4.683-7.838-10.599C27.856,33.951,31.923,37,36,37c4.971,0,9-4.029,9-9 C45,23.029,40.971,19,36,19z"/></svg>