<svg xmlns="http://www.w3.org/2000/svg" viewBox="0 0 48 48"><linearGradient id="~agIDRMFCpoBmKFMN4M2fa" x1="13.02" x2="34.556" y1="7.644" y2="39.725" gradientUnits="userSpaceOnUse"><stop offset="0" stop-color="#8521b0"/><stop offset=".77" stop-color="#6c16a0"/><stop offset="1" stop-color="#64129a"/></linearGradient><path fill="url(#~agIDRMFCpoBmKFMN4M2fa)" d="M24,4C12.954,4,4,12.954,4,24s8.954,20,20,20s20-8.954,20-20S35.046,4,24,4z"/><path d="M21.199,17.5v1.567c0,0.827-0.673,1.5-1.5,1.5h-2.23V30.5c0,0.827-0.673,1.5-1.5,1.5h-1.956	c-0.827,0-1.5-0.673-1.5-1.5v-9.933h-2.212c-0.827,0-1.5-0.673-1.5-1.5V17.5c0-0.827,0.673-1.5,1.5-1.5h9.398	C20.526,16,21.199,16.673,21.199,17.5z M36.953,16h-3.342c-0.654,0-1.229,0.418-1.427,1.039l-2.133,6.603l-2.126-6.601	C27.727,16.418,27.152,16,26.498,16h-3.451c-0.827,0-1.5,0.673-1.5,1.5v13c0,0.827,0.673,1.5,1.5,1.5h1.655	c0.827,0,1.5-0.673,1.5-1.5v-3.849l1.43,4.318c0.203,0.616,0.775,1.03,1.425,1.03h1.683c0.652,0,1.226-0.417,1.429-1.04l1.375-4.271	V30.5c0,0.827,0.673,1.5,1.5,1.5h1.91c0.827,0,1.5-0.673,1.5-1.5v-13C38.453,16.673,37.78,16,36.953,16z" opacity=".05"/><path d="M20.699,17.5v1.567c0,0.552-0.448,1-1,1h-2.73V30.5c0,0.552-0.448,1-1,1h-1.956c-0.552,0-1-0.448-1-1	V20.067h-2.712c-0.552,0-1-0.448-1-1V17.5c0-0.552,0.448-1,1-1h9.398C20.251,16.5,20.699,16.948,20.699,17.5z M36.953,16.5h-3.342	c-0.437,0-0.818,0.279-0.951,0.693l-2.562,7.935c-0.016,0.049-0.03,0.098-0.046,0.147c-0.014-0.043-0.027-0.087-0.041-0.13	l-2.561-7.951c-0.134-0.415-0.516-0.694-0.952-0.694h-3.451c-0.552,0-1,0.448-1,1v13c0,0.552,0.448,1,1,1h1.655c0.552,0,1-0.448,1-1	v-6.95l2.405,7.264c0.135,0.41,0.517,0.687,0.949,0.687h1.683c0.435,0,0.817-0.278,0.952-0.693l2.352-7.303V30.5	c0,0.552,0.448,1,1,1h1.91c0.552,0,1-0.448,1-1v-13C37.953,16.948,37.505,16.5,36.953,16.5z" opacity=".07"/><path fill="#fff" d="M19.7,19.568h-3.231V30.5c0,0.276-0.224,0.5-0.5,0.5h-1.956c-0.276,0-0.5-0.224-0.5-0.5V19.568H10.3	c-0.276,0-0.5-0.224-0.5-0.5V17.5c0-0.276,0.224-0.5,0.5-0.5H19.7c0.276,0,0.5,0.224,0.5,0.5v1.568	C20.2,19.344,19.976,19.568,19.7,19.568z"/><path fill="#fff" d="M36.953,31h-1.91c-0.276,0-0.5-0.224-0.5-0.5v-7.877c0-0.906,0.036-1.904,0.109-2.997h-0.073	c-0.153,0.859-0.29,1.477-0.41,1.855l-2.953,9.172C31.149,30.86,30.957,31,30.739,31h-1.683c-0.216,0-0.407-0.138-0.475-0.343	l-3.006-9.078c-0.084-0.254-0.221-0.906-0.41-1.953h-0.082c0.08,1.379,0.119,2.59,0.119,3.632V30.5c0,0.276-0.224,0.5-0.5,0.5	h-1.655c-0.276,0-0.5-0.224-0.5-0.5v-13c0-0.276,0.224-0.5,0.5-0.5h3.45c0.217,0,0.409,0.14,0.476,0.347l2.561,7.952	c0.212,0.664,0.367,1.33,0.465,2.001h0.055c0.164-0.774,0.338-1.447,0.52-2.021l2.561-7.933C33.202,17.14,33.394,17,33.611,17h3.341	c0.276,0,0.5,0.224,0.5,0.5v13C37.453,30.776,37.229,31,36.953,31z"/></svg>