<svg xmlns="http://www.w3.org/2000/svg" viewBox="0 0 48 48"><linearGradient id="jXzIwGC9vKAm9adXXFMORa" x1="-626" x2="-626" y1="-443.013" y2="-436.988" gradientTransform="matrix(-1 0 0 1 -602 478)" gradientUnits="userSpaceOnUse"><stop offset="0" stop-color="#a1aab3"/><stop offset="1" stop-color="#8f979e"/></linearGradient><path fill="url(#jXzIwGC9vKAm9adXXFMORa)" d="M14,38v-3h20v3l13,0.335V40c0,0.552-0.448,1-1,1H2c-0.552,0-1-0.448-1-1v-1.419L14,38z"/><linearGradient id="jXzIwGC9vKAm9adXXFMORb" x1="8.364" x2="38.396" y1="-470.692" y2="-445.353" gradientTransform="translate(0 478)" gradientUnits="userSpaceOnUse"><stop offset="0" stop-color="#a1aab3"/><stop offset="1" stop-color="#8f979e"/></linearGradient><path fill="url(#jXzIwGC9vKAm9adXXFMORb)" d="M42,34H6c-1.105,0-2-0.895-2-2V9	c0-1.105,0.895-2,2-2h36c1.105,0,2,0.895,2,2v23C44,33.105,43.105,34,42,34z"/><radialGradient id="jXzIwGC9vKAm9adXXFMORc" cx="102.676" cy="-518.609" r="83.03" gradientTransform="matrix(.8095 0 0 .7188 -34.674 429.63)" gradientUnits="userSpaceOnUse"><stop offset=".323" stop-color="#23d9d6"/><stop offset=".427" stop-color="#23d4d7"/><stop offset=".542" stop-color="#21c7dc"/><stop offset=".664" stop-color="#1fb0e2"/><stop offset=".789" stop-color="#1c91ec"/><stop offset=".917" stop-color="#1969f8"/><stop offset=".944" stop-color="#1860fb"/></radialGradient><rect width="36" height="23" x="6" y="9" fill="url(#jXzIwGC9vKAm9adXXFMORc)"/><linearGradient id="jXzIwGC9vKAm9adXXFMORd" x1="24" x2="24" y1="-444.011" y2="-438.99" gradientTransform="translate(0 478)" gradientUnits="userSpaceOnUse"><stop offset="0" stop-color="#484b4f"/><stop offset=".028" stop-color="#565b61"/><stop offset=".066" stop-color="#626a72"/><stop offset=".114" stop-color="#6b757d"/><stop offset=".181" stop-color="#717b84"/><stop offset=".367" stop-color="#727d86"/></linearGradient><path fill="url(#jXzIwGC9vKAm9adXXFMORd)" d="M46.909,38.335l-2.867-3.584	C43.663,34.276,43.088,34,42.481,34H5.519c-0.608,0-1.182,0.276-1.562,0.751L1.09,38.335C0.876,38.603,1.067,39,1.41,39h14.966	c0.382,0,0.73-0.217,0.898-0.56l0.431-0.88c0.168-0.343,0.516-0.56,0.898-0.56h10.793c0.382,0,0.73,0.217,0.898,0.56l0.431,0.88	c0.168,0.343,0.516,0.56,0.898,0.56H46.59C46.933,39,47.124,38.603,46.909,38.335z"/><radialGradient id="jXzIwGC9vKAm9adXXFMORe" cx="33.399" cy="289.09" r="11.483" gradientTransform="matrix(1.0105 0 0 -1 3.506 300)" gradientUnits="userSpaceOnUse"><stop offset="0"/><stop offset=".979" stop-opacity="0"/></radialGradient><path fill="url(#jXzIwGC9vKAm9adXXFMORe)" d="M42.105,7H26.663	C26.242,8.175,26,9.434,26,10.75C26,16.953,31.1,22,37.368,22c2.476,0,4.763-0.796,6.632-2.131V8.875C44,7.839,43.152,7,42.105,7z"/><linearGradient id="jXzIwGC9vKAm9adXXFMORf" x1="27.851" x2="47.851" y1="-332" y2="-332" gradientTransform="translate(0 342)" gradientUnits="userSpaceOnUse"><stop offset="0" stop-color="#f44f5a"/><stop offset=".443" stop-color="#ee3d4a"/><stop offset="1" stop-color="#e52030"/></linearGradient><circle cx="37.851" cy="10" r="10" fill="url(#jXzIwGC9vKAm9adXXFMORf)"/><path fill="#fff" d="M37.859,16c-0.439,0-0.802-0.147-1.087-0.441s-0.428-0.65-0.428-1.068	c0-0.436,0.144-0.794,0.433-1.073C37.064,13.139,37.426,13,37.859,13c0.439,0,0.799,0.141,1.079,0.423s0.42,0.638,0.42,1.068	c0,0.436-0.139,0.797-0.416,1.081S38.304,16,37.859,16z"/><path fill="#fff" d="M39.193,4.425l-0.289,7.182C38.895,11.827,38.711,12,38.488,12h-1.307	c-0.224,0-0.407-0.174-0.416-0.394l-0.273-7.181C36.483,4.193,36.672,4,36.908,4h1.87C39.013,4,39.202,4.193,39.193,4.425z"/></svg>