<svg xmlns="http://www.w3.org/2000/svg" viewBox="0 0 48 48"><linearGradient id="hwH3fnHFApNdH8Bh5dVFna" x1="9.206" x2="27.674" y1="5.116" y2="43.414" gradientUnits="userSpaceOnUse"><stop offset="0" stop-color="#5c65d6"/><stop offset=".999" stop-color="#464eb0"/></linearGradient><path fill="url(#hwH3fnHFApNdH8Bh5dVFna)" d="M36.043,29.127c-0.006-0.084-0.023-0.167-0.05-0.247L35.698,28l-0.642,0.397L35.034,29H31.73	c-0.051,0-0.102,0.004-0.153,0.012l-1.543,0.238l-0.5,0.75h-0.5l-0.707-1.51c-0.042-0.09-0.098-0.174-0.165-0.248L27.034,27v-1l-2-3	l-0.986,1l-0.875-0.987l-0.139-0.638l1-4.752L23.659,17l-1.596-0.216c-0.325-0.044-0.634-0.167-0.901-0.359l-0.429-0.309	c-0.165-0.119-0.31-0.261-0.432-0.424L19.034,14l-0.828-0.435l-0.772-0.997c-0.098-0.127-0.165-0.276-0.193-0.434l-0.15-0.827	c-0.037-0.204-0.106-0.401-0.203-0.583l-0.735-1.379c-0.077-0.145-0.118-0.306-0.118-0.471V5c0-0.552-0.448-1-1-1h-2	c-0.552,0-1,0.448-1,1v13.893c0,0.071,0.008,0.142,0.022,0.211l0.337,1.559c0.041,0.191,0.11,0.374,0.204,0.545l0.016,0.029	c0.268,0.486,0.727,0.839,1.266,0.974l0.655,0.164l0.5,0.625l-1.395,1.671c-0.105,0.126-0.178,0.276-0.211,0.437L13.034,27v0.978	l-0.572,0.202c-0.361,0.127-0.678,0.356-0.913,0.658l-0.094,0.12c-0.273,0.351-0.421,0.783-0.421,1.228v0.444L11.659,31h1.375v1	l-0.892,1.784c-0.071,0.142-0.107,0.299-0.106,0.458l0.09,8.769c0.006,0.548,0.452,0.99,1,0.99h10.869	c0.026,0,0.051-0.001,0.077-0.003l11.97-0.921c0.549-0.042,0.96-0.52,0.921-1.068L36.043,29.127z"/></svg>