<svg xmlns="http://www.w3.org/2000/svg" viewBox="0 0 48 48"><path fill="#e3a600" d="M45,34H3c-0.552,0-1,0.448-1,1v4c0,0.552,0.448,1,1,1h42c0.552,0,1-0.448,1-1v-4	C46,34.448,45.552,34,45,34z"/><path fill="#c48c00" d="M9,25.857h14l-8.821-11.467c-0.495-0.643-1.51-0.46-1.748,0.316L9,25.857z"/><circle cx="13" cy="12" r="2" fill="#e3a600"/><path fill="#c48c00" d="M39,25.857H25l8.821-11.467c0.495-0.643,1.51-0.46,1.748,0.316L39,25.857z"/><path fill="#edbe00" d="M3,34h42l0.876-17.512c0.055-1.093-1.106-1.826-2.069-1.307L33,21L25.818,9.03	c-0.824-1.373-2.813-1.373-3.636,0L15,21L4.193,15.181c-0.963-0.519-2.124,0.214-2.069,1.307L3,34z"/><radialGradient id="0jem8~VAh~3olT2CKxjJka" cx="43" cy="27.333" r="4" gradientTransform="matrix(.5 0 0 .75 19.5 6.5)" gradientUnits="userSpaceOnUse"><stop offset="0" stop-color="#ad8a00"/><stop offset="1" stop-color="#edbe00"/></radialGradient><ellipse cx="41" cy="27" fill="url(#0jem8~VAh~3olT2CKxjJka)" rx="2" ry="3"/><circle cx="24" cy="6" r="2" fill="#fad500"/><circle cx="45" cy="13" r="2" fill="#fad500"/><circle cx="35" cy="12" r="2" fill="#e3a600"/><circle cx="3" cy="13" r="2" fill="#fad500"/><radialGradient id="0jem8~VAh~3olT2CKxjJkb" cx="24" cy="27" r="4" gradientUnits="userSpaceOnUse"><stop offset="0" stop-color="#ad8a00"/><stop offset="1" stop-color="#edbe00"/></radialGradient><circle cx="24" cy="27" r="4" fill="url(#0jem8~VAh~3olT2CKxjJkb)"/><circle cx="24" cy="27" r="3" fill="#ffe44a"/><ellipse cx="41.5" cy="27" fill="#ffe44a" rx="1.5" ry="2"/><radialGradient id="0jem8~VAh~3olT2CKxjJkc" cx="43" cy="27.333" r="4" gradientTransform="matrix(-.5 0 0 .75 28.5 6.5)" gradientUnits="userSpaceOnUse"><stop offset="0" stop-color="#ad8a00"/><stop offset="1" stop-color="#edbe00"/></radialGradient><ellipse cx="7" cy="27" fill="url(#0jem8~VAh~3olT2CKxjJkc)" rx="2" ry="3"/><ellipse cx="6.5" cy="27" fill="#ffe44a" rx="1.5" ry="2"/></svg>