<svg xmlns="http://www.w3.org/2000/svg" viewBox="0 0 48 48"><linearGradient id="rPjIz87FG8amnz2JYEI7za" x1="24" x2="24" y1="28.575" y2="42.664" gradientUnits="userSpaceOnUse"><stop offset="0" stop-color="#692212"/><stop offset=".049" stop-color="#832b16"/><stop offset=".113" stop-color="#9e351a"/><stop offset=".187" stop-color="#b43d1d"/><stop offset=".273" stop-color="#c54320"/><stop offset=".38" stop-color="#d04722"/><stop offset=".529" stop-color="#d74923"/><stop offset=".944" stop-color="#d94a23"/></linearGradient><path fill="url(#rPjIz87FG8amnz2JYEI7za)" d="M39,29H9l1.755,12.283C10.895,42.268,11.739,43,12.735,43h22.531	c0.995,0,1.839-0.732,1.98-1.717L39,29z"/><linearGradient id="rPjIz87FG8amnz2JYEI7zb" x1="31.5" x2="32.469" y1="8.607" y2="19.062" gradientUnits="userSpaceOnUse"><stop offset="0" stop-color="#4dd1f7"/><stop offset="1" stop-color="#1995d6"/></linearGradient><circle cx="32" cy="14" r="6" fill="url(#rPjIz87FG8amnz2JYEI7zb)"/><linearGradient id="rPjIz87FG8amnz2JYEI7zc" x1="14.461" x2="15.43" y1="10.187" y2="20.642" gradientUnits="userSpaceOnUse"><stop offset="0" stop-color="#4dd1f7"/><stop offset="1" stop-color="#1995d6"/></linearGradient><circle cx="15" cy="16" r="5" fill="url(#rPjIz87FG8amnz2JYEI7zc)"/><linearGradient id="rPjIz87FG8amnz2JYEI7zd" x1="22.099" x2="23.868" y1="3.396" y2="11.931" gradientUnits="userSpaceOnUse"><stop offset="0" stop-color="#4dd1f7"/><stop offset="1" stop-color="#1995d6"/></linearGradient><path fill="url(#rPjIz87FG8amnz2JYEI7zd)" d="M23.425,3c-1.501,0-2.858,0.604-3.85,1.579C19.575,4.579,21,5.035,21,7	c0,2.404-3.325,3.451-3.325,3.451C18.668,11.426,21.924,14,23.425,14c3.038,0,5.5-2.462,5.5-5.5S26.463,3,23.425,3z"/><linearGradient id="rPjIz87FG8amnz2JYEI7ze" x1="22.82" x2="23.79" y1="9.412" y2="19.866" gradientUnits="userSpaceOnUse"><stop offset="0" stop-color="#4dd1f7"/><stop offset="1" stop-color="#1995d6"/></linearGradient><polygon fill="url(#rPjIz87FG8amnz2JYEI7ze)" points="32,19 16,21 14.275,11.053 31.39,8.032"/><linearGradient id="rPjIz87FG8amnz2JYEI7zf" x1="36.371" x2="36.648" y1="17.852" y2="29.968" gradientUnits="userSpaceOnUse"><stop offset="0" stop-color="#4dd1f7"/><stop offset="1" stop-color="#1995d6"/></linearGradient><circle cx="36.5" cy="23.5" r="6.5" fill="url(#rPjIz87FG8amnz2JYEI7zf)"/><linearGradient id="rPjIz87FG8amnz2JYEI7zg" x1="10.35" x2="10.627" y1="18.446" y2="30.563" gradientUnits="userSpaceOnUse"><stop offset="0" stop-color="#4dd1f7"/><stop offset="1" stop-color="#1995d6"/></linearGradient><circle cx="10.5" cy="25" r="5" fill="url(#rPjIz87FG8amnz2JYEI7zg)"/><linearGradient id="rPjIz87FG8amnz2JYEI7zh" x1="22.709" x2="22.986" y1="18.164" y2="30.28" gradientUnits="userSpaceOnUse"><stop offset="0" stop-color="#4dd1f7"/><stop offset="1" stop-color="#1995d6"/></linearGradient><polygon fill="url(#rPjIz87FG8amnz2JYEI7zh)" points="35.632,17.19 9.731,20.056 10,30 36,30"/><path fill="#b83c1f" d="M31.556,34.001c-0.594-0.031-1.023,0.392-1.054,0.943L30.054,43h2.002l0.441-7.944	C32.529,34.504,32.106,34.032,31.556,34.001z"/><path fill="#b83c1f" d="M17.498,34.944c-0.03-0.551-0.472-0.971-1.054-0.943c-0.551,0.031-0.974,0.502-0.942,1.054L15.943,43	h2.002L17.498,34.944z"/><path fill="#b83c1f" d="M24,34c-0.553,0-1,0.448-1,1v8h2v-8C25,34.448,24.553,34,24,34z"/></svg>