<svg xmlns="http://www.w3.org/2000/svg" xmlns:xlink="http://www.w3.org/1999/xlink" data-name="Layer 1" viewBox="0 0 48 48"><defs><linearGradient id="fd1ixKA6VdtEESjmGvH_Ea" x1="35.294" x2="22.2" y1="42.5" y2="42.5" data-name="Безымянный градиент 112" gradientUnits="userSpaceOnUse"><stop offset=".002" stop-color="#454545"/><stop offset=".013" stop-color="#464646"/><stop offset=".875" stop-color="#626262"/><stop offset="1" stop-color="#6d6d6d"/></linearGradient><linearGradient id="fd1ixKA6VdtEESjmGvH_Eb" x1="23.294" x2="8.712" y1="42.5" y2="42.5" xlink:href="#fd1ixKA6VdtEESjmGvH_Ea"/></defs><path fill="#d35230" d="M40,30a.99943.99943,0,0,1-1-1V18c0-3.3457-1.4668-4-4-4a1,1,0,0,1,0-2c2.57617,0,6,.62207,6,6V29A.99943.99943,0,0,1,40,30Z"/><path fill="#ed6c47" d="M34.86,26.75l1.04686,2.98442a1,1,0,0,1,.03412.54077L33.64,41l-.47,2.21a.99756.99756,0,0,1-.97574.79H28.24a1.00185,1.00185,0,0,1-.98-1.2099L27.64,41,30,31a21.93993,21.93993,0,0,1-3.93-2.95C24.47,26.53,23,23.82,23,19L27,9c6.5,0,10,4,10,8a14.84674,14.84674,0,0,1-1.91086,6.58029A3.95145,3.95145,0,0,0,34.86,26.75Z"/><path fill="#d35230" d="M25.67,31.79,21.84,41l-.92,2.21a1.00537,1.00537,0,0,1-.98.79H15.99a1.00286,1.00286,0,0,1-.98-1.21L15.84,41,20,32a13.13089,13.13089,0,0,1-9-13H22c0,3.06,0,9.22,3.33,11.6A.98584.98584,0,0,1,25.67,31.79Z"/><path fill="#ed6c47" d="M26,27c-2,2-7,4-11,4a27.84979,27.84979,0,0,1-8.34025-1.753A.99628.99628,0,0,1,6,28.3064V10.2381a1.00162,1.00162,0,0,1,1.19237-.98034A37.75439,37.75439,0,0,0,14,9.75C17.75,9.75,20,8,22,8s3,1,5,1C31.5,13.5,26,27,26,27Z"/><path fill="url(#fd1ixKA6VdtEESjmGvH_Ea)" d="M33.64,41l-.47,2.21a1.00537,1.00537,0,0,1-.98.79H28.24a1.00286,1.00286,0,0,1-.98-1.21L27.64,41Z"/><path fill="url(#fd1ixKA6VdtEESjmGvH_Eb)" d="M21.84,41l-.92,2.21a1.00537,1.00537,0,0,1-.98.79H15.99a1.00286,1.00286,0,0,1-.98-1.21L15.84,41Z"/><path fill="#e52030" d="M44.88812,42.73328,5.26577,3.11175a.38084.38084,0,0,0-.539,0l-1.615,1.616a.38083.38083,0,0,0,0,.539L42.73411,44.88825a.38084.38084,0,0,0,.539,0l1.616-1.616A.38175.38175,0,0,0,44.88812,42.73328Z"/></svg>