<svg xmlns="http://www.w3.org/2000/svg" viewBox="0 0 48 48"><radialGradient id="44Bgl0qrKPFHPK5PCmh3~a" cx="14.961" cy="2.99" r="56.266" gradientUnits="userSpaceOnUse"><stop offset="0" stop-color="#ffcf54"/><stop offset=".261" stop-color="#fdcb4d"/><stop offset=".639" stop-color="#f7c13a"/><stop offset="1" stop-color="#f0b421"/></radialGradient><path fill="url(#44Bgl0qrKPFHPK5PCmh3~a)" d="M31,39.4l2.6,0.5c2.9,0.6,5.6-1.5,5.8-4.4L40,29l2.9-1.2c1-0.4,1.4-1.6,0.8-2.6L40,19	c-0.6-7.6-4.9-15-16-15C13,4,7,11.4,7,20c0,3.7,1.3,7.9,3.3,10.6c1.8,2.5,2.7,5.5,2.7,8.5v2.8c0,1.105,0.895,2,2,2h14	c1.105,0,2-0.895,2-2V39.4z"/><radialGradient id="44Bgl0qrKPFHPK5PCmh3~b" cx="21.606" cy="29.662" r="6.189" gradientUnits="userSpaceOnUse"><stop offset="0" stop-color="#6e757b"/><stop offset="1" stop-color="#4a4e52"/></radialGradient><path fill="url(#44Bgl0qrKPFHPK5PCmh3~b)" d="M26,30h-6c0,0.427,0,1.4,0,1.4c0,1.657,1.343,3,3,3s3-1.343,3-3C26,31.4,26,30.427,26,30z"/><path fill="#fefefe" d="M30,19c0-3.866-3.134-7-7-7s-7,3.134-7,7c0,3.5,4,6.5,4,10v1h6v-1C26,25.5,30,22.5,30,19z"/></svg>