<svg xmlns="http://www.w3.org/2000/svg" viewBox="0 0 48 48"><linearGradient id="Zkopy7Kjr305d~8_KQToGa" x1="24" x2="24" y1="47.471" y2="40.94" gradientUnits="userSpaceOnUse"><stop offset="0" stop-color="#eba600"/><stop offset="1" stop-color="#c28200"/></linearGradient><circle cx="24" cy="42" r="4" fill="url(#Zkopy7Kjr305d~8_KQToGa)"/><path fill="#eba600" d="M16.625,16.75c-2.554,0-4.625,2.071-4.625,4.625c0,1.465,0.695,2.756,1.758,3.603L13.75,25	C18,28,14,36,20,39c4,0,4-7,4-7V17L16.625,16.75z"/><path fill="#eba600" d="M31.375,16.75c2.554,0,4.625,2.071,4.625,4.625c0,1.465-0.695,2.756-1.758,3.603L34.25,25	C30,28,34,36,28,39c-4,0-4-7-4-7V17L31.375,16.75z"/><linearGradient id="Zkopy7Kjr305d~8_KQToGb" x1="45.147" x2="33.055" y1="3.353" y2="15.445" gradientUnits="userSpaceOnUse"><stop offset="0" stop-color="#ffcf54"/><stop offset=".261" stop-color="#fdcb4d"/><stop offset=".639" stop-color="#f7c13a"/><stop offset="1" stop-color="#f0b421"/></linearGradient><path fill="url(#Zkopy7Kjr305d~8_KQToGb)" d="M45,6h-5c-5.523,0-10,4.477-10,10v0h5C40.523,16,45,11.523,45,6L45,6z"/><linearGradient id="Zkopy7Kjr305d~8_KQToGc" x1="3.956" x2="15.63" y1="4.456" y2="16.13" gradientUnits="userSpaceOnUse"><stop offset="0" stop-color="#ffcf54"/><stop offset=".261" stop-color="#fdcb4d"/><stop offset=".639" stop-color="#f7c13a"/><stop offset="1" stop-color="#f0b421"/></linearGradient><path fill="url(#Zkopy7Kjr305d~8_KQToGc)" d="M3,6h5c5.523,0,10,4.477,10,10v0h-5C7.477,16,3,11.523,3,6L3,6z"/><linearGradient id="Zkopy7Kjr305d~8_KQToGd" x1="24" x2="24" y1="6.382" y2="44.069" gradientUnits="userSpaceOnUse"><stop offset="0" stop-color="#ffcf54"/><stop offset=".261" stop-color="#fdcb4d"/><stop offset=".639" stop-color="#f7c13a"/><stop offset="1" stop-color="#f0b421"/></linearGradient><path fill="url(#Zkopy7Kjr305d~8_KQToGd)" d="M29,12.34V6c0-1.1-0.9-2-2-2s-2,0.9-2,2v5.06h-0.01C24.96,11.58,24.53,12,24,12	s-0.96-0.42-0.99-0.94H23V6c0-1.1-0.9-2-2-2s-2,0.9-2,2v6.34c-1.9,1.1-3.4,2.81-4.24,4.85C18.33,18,21,21.19,21,25v5.54V34h6v-3.46	V25c0-3.81,2.67-7,6.24-7.81C32.4,15.15,30.9,13.44,29,12.34z"/><path fill="#5c2415" d="M23,6v1h-4V6c0-1.1,0.9-2,2-2S23,4.9,23,6z"/><path fill="#5c2415" d="M29,6v1h-4V6c0-1.1,0.9-2,2-2S29,4.9,29,6z"/><path fill="#5c2415" d="M13,21.01L9,21c0,0,0.667,2,4,2C13,22,13,21.01,13,21.01z"/><path fill="#5c2415" d="M35,21.01L39,21c0,0-0.667,2-4,2C35,22,35,21.01,35,21.01z"/><linearGradient id="Zkopy7Kjr305d~8_KQToGe" x1="24" x2="24" y1="6.382" y2="44.069" gradientUnits="userSpaceOnUse"><stop offset="0" stop-color="#ffcf54"/><stop offset=".261" stop-color="#fdcb4d"/><stop offset=".639" stop-color="#f7c13a"/><stop offset="1" stop-color="#f0b421"/></linearGradient><path fill="url(#Zkopy7Kjr305d~8_KQToGe)" d="M26.36,33H21.64c-0.953,0-1.774,0.673-1.961,1.608l-1.2,6C18.231,41.845,19.178,43,20.44,43	h7.121c1.262,0,2.209-1.155,1.961-2.392l-1.2-6C28.135,33.673,27.314,33,26.36,33z"/><path fill="#5c2415" d="M22.5,39h-2C20.223,39,20,38.777,20,38.5V38.13c0-1.176,0.954-2.13,2.13-2.13H22.5	c0.276,0,0.5,0.223,0.5,0.5v2C23,38.777,22.776,39,22.5,39z"/><path fill="#5c2415" d="M25.5,39h2C27.776,39,28,38.777,28,38.5V38.13c0-1.176-0.954-2.13-2.13-2.13H25.5	c-0.276,0-0.5,0.223-0.5,0.5v2C25,38.777,25.223,39,25.5,39z"/><path fill="#5c2415" d="M16.5,24.51c-0.46,0.6-1.18,0.99-1.99,0.99c-1.38,0-2.5-1.12-2.5-2.5c0-0.81,0.39-1.53,0.99-1.99	C14.88,21.13,16.38,22.63,16.5,24.51z"/><path fill="#5c2415" d="M31.51,24.51c0.46,0.6,1.18,0.99,1.99,0.99c1.38,0,2.5-1.12,2.5-2.5c0-0.81-0.39-1.53-0.99-1.99	C33.13,21.13,31.63,22.63,31.51,24.51z"/></svg>