<svg xmlns="http://www.w3.org/2000/svg" viewBox="0 0 48 48"><path fill="#50e6ff" d="M4,38V15h40v23c0,1.1-0.9,2-2,2H6C4.9,40,4,39.1,4,38z"/><linearGradient id="b3k47SvU0EbfDYG31kPoUa" x1="4.614" x2="42.936" y1="-198.259" y2="-190.467" gradientTransform="translate(0 206)" gradientUnits="userSpaceOnUse"><stop offset="0" stop-color="#0077d2"/><stop offset="1" stop-color="#0b59a2"/></linearGradient><path fill="url(#b3k47SvU0EbfDYG31kPoUa)" d="M44,10v5H4v-5c0-1.1,0.9-2,2-2h36C43.1,8,44,8.9,44,10z"/><linearGradient id="b3k47SvU0EbfDYG31kPoUb" x1="6.751" x2="8.032" y1="-195.584" y2="-193.731" gradientTransform="translate(0 206)" gradientUnits="userSpaceOnUse"><stop offset="0" stop-color="#75daff"/><stop offset="1" stop-color="#49bef1"/></linearGradient><circle cx="7.5" cy="11.5" r="1.5" fill="url(#b3k47SvU0EbfDYG31kPoUb)"/><linearGradient id="b3k47SvU0EbfDYG31kPoUc" x1="11.751" x2="13.032" y1="-195.584" y2="-193.731" gradientTransform="translate(0 206)" gradientUnits="userSpaceOnUse"><stop offset="0" stop-color="#75daff"/><stop offset="1" stop-color="#49bef1"/></linearGradient><circle cx="12.5" cy="11.5" r="1.5" fill="url(#b3k47SvU0EbfDYG31kPoUc)"/><linearGradient id="b3k47SvU0EbfDYG31kPoUd" x1="16.751" x2="18.032" y1="-195.584" y2="-193.731" gradientTransform="translate(0 206)" gradientUnits="userSpaceOnUse"><stop offset="0" stop-color="#75daff"/><stop offset="1" stop-color="#49bef1"/></linearGradient><circle cx="17.5" cy="11.5" r="1.5" fill="url(#b3k47SvU0EbfDYG31kPoUd)"/><path d="M44,35.315c-0.346-0.104-0.694-0.193-1.038-0.241C41.555,32.59,38.852,31,36,31	c-3.662,0-6.864,2.521-7.751,6.047c-1.729,0.22-3.305,1.202-4.271,2.68L23.798,40H42c1.1,0,2-0.9,2-2V35.315z" opacity=".05"/><path d="M42,40c1.1,0,2-0.9,2-2v-2.174c-0.433-0.14-0.885-0.24-1.354-0.287C41.36,33.076,38.783,31.5,36,31.5	c-3.562,0-6.645,2.555-7.344,6.011c-1.783,0.11-3.336,1.076-4.26,2.489H42z" opacity=".07"/><linearGradient id="b3k47SvU0EbfDYG31kPoUe" x1="32.481" x2="38.162" y1="-322.771" y2="-338.337" gradientTransform="matrix(1 0 0 -1 0 -290)" gradientUnits="userSpaceOnUse"><stop offset="0" stop-color="#2aa4f4"/><stop offset="1" stop-color="#007ad9"/></linearGradient><path fill="url(#b3k47SvU0EbfDYG31kPoUe)" d="M42.325,36.016C41.204,33.645,38.797,32,36,32c-3.528,0-6.439,2.613-6.922,6.008	C29.052,38.007,29.027,38,29,38c-2.761,0-5,2.239-5,5s2.239,5,5,5c1.859,0,11.156,0,13,0c3.314,0,6-2.686,6-6	C48,38.796,45.487,36.186,42.325,36.016z"/></svg>