<svg xmlns="http://www.w3.org/2000/svg" viewBox="0 0 48 48"><path fill="#0d62ab" d="M29.591,31.144l0.003-0.005l-2.861-6.157c-4.425,3.375-6.723,5.433-10.566,8.522 c0.002,0.828,0.676,1.498,1.504,1.496l9.812-0.035c1.381-0.004,2.497-1.126,2.493-2.507C29.975,31.974,29.83,31.526,29.591,31.144z"/><path fill="#0d62ab" d="M42.841,17.315l-5.258,1.713l-5.441-6.522l-1.077,5.649l5.355,4.522 c0.448,0.376,1.072,0.457,1.601,0.209l6.093-2.855c0.75-0.352,1.073-1.245,0.722-1.995C44.484,17.286,43.591,16.963,42.841,17.315z"/><circle cx="35" cy="7" r="4" fill="#199be2"/><path fill="#199be2" d="M14.24,43.284c0.009-0.012,0.016-0.025,0.024-0.038L27,25l-1.787-11.021l-8.288,16.977L11.64,41.82 c-0.006,0.014-0.014,0.027-0.019,0.042l-0.008,0.016l0.002,0.001c-0.068,0.171-0.108,0.357-0.108,0.553c0,0.828,0.672,1.5,1.5,1.5 c0.508,0,0.955-0.254,1.226-0.64l0.001,0.001L14.24,43.284z"/><path fill="#50e6ff" d="M14,24c-0.186,0-7.814,0-8,0c-0.552,0-1,0.448-1,1s0.448,1,1,1c0.186,0,7.814,0,8,0 c0.552,0,1-0.448,1-1S14.552,24,14,24z"/><path fill="#50e6ff" d="M17,20c-0.186,0-8.814,0-9,0c-0.552,0-1,0.448-1,1s0.448,1,1,1c0.186,0,8.814,0,9,0 c0.552,0,1-0.448,1-1S17.552,20,17,20z"/><path fill="#50e6ff" d="M11,28c-0.186,0-6.814,0-7,0c-0.552,0-1,0.448-1,1s0.448,1,1,1c0.186,0,6.814,0,7,0 c0.552,0,1-0.448,1-1S11.552,28,11,28z"/><path fill="#199be2" d="M15.415,16.665c0.093-0.032,0.18-0.073,0.263-0.121l0.001,0.001l0.007-0.004 c0.006-0.003,0.011-0.007,0.016-0.01l6.562-4.151l2.913,1.659l-3.956,8.205c-0.006,0.013-0.012,0.025-0.018,0.038l-0.037,0.077 l0.003,0.013c-0.407,0.896-0.495,1.939-0.151,2.944c0.232,0.679,0.639,1.244,1.141,1.687L27,25 c1.819-2.293,3.926-5.117,5.632-7.884l-0.007-0.018c0.544-0.961,0.704-2.133,0.318-3.26c-0.413-1.206-1.35-2.071-2.466-2.463 l-0.007-0.019l-7.418-3.017c-0.026-0.013-0.054-0.021-0.081-0.033l-0.156-0.063l-0.009,0.001c-0.405-0.139-0.855-0.157-1.292-0.008 c-0.212,0.073-0.397,0.184-0.566,0.313l-0.018,0.003l-6.994,5.569c-0.003,0.003-0.007,0.005-0.01,0.008l-0.004,0.003l0,0.001 c-0.431,0.39-0.614,1.014-0.414,1.598C13.778,16.515,14.631,16.933,15.415,16.665z"/></svg>