<svg xmlns="http://www.w3.org/2000/svg" xmlns:xlink="http://www.w3.org/1999/xlink" data-name="Слой 1" viewBox="0 0 48 48"><defs><linearGradient id="YNLHFYaxvvWk5m_JDULKbc" x1="8.911" x2="31.339" y1="-596.911" y2="-619.339" data-name="Безымянный градиент 156" gradientTransform="matrix(1 0 0 -1 0 -588)" gradientUnits="userSpaceOnUse"><stop offset="0" stop-color="#a3ffff"/><stop offset=".223" stop-color="#9dfbff"/><stop offset=".53" stop-color="#8bf1ff"/><stop offset=".885" stop-color="#6ee0ff"/><stop offset="1" stop-color="#63daff"/></linearGradient><linearGradient id="YNLHFYaxvvWk5m_JDULKba" x1="19" x2="21" y1="29" y2="29" data-name="Безымянный градиент 158" gradientUnits="userSpaceOnUse"><stop offset="0" stop-color="#3079d6"/><stop offset="1" stop-color="#297cd2"/></linearGradient><linearGradient id="YNLHFYaxvvWk5m_JDULKbd" y1="20" y2="20" xlink:href="#YNLHFYaxvvWk5m_JDULKba"/><linearGradient id="YNLHFYaxvvWk5m_JDULKbe" x1="15" x2="25" y1="20.77" y2="20.77" xlink:href="#YNLHFYaxvvWk5m_JDULKba"/><linearGradient id="YNLHFYaxvvWk5m_JDULKbf" x1="11" x2="14.643" y1="19.644" y2="19.644" xlink:href="#YNLHFYaxvvWk5m_JDULKba"/><linearGradient id="YNLHFYaxvvWk5m_JDULKbg" x1="15.796" x2="29" y1="18.065" y2="18.065" xlink:href="#YNLHFYaxvvWk5m_JDULKba"/><radialGradient id="YNLHFYaxvvWk5m_JDULKbb" cx="20.024" cy="-608.096" r="19.604" data-name="Безымянный градиент 157" gradientTransform="matrix(1 0 0 -1 0 -588)" gradientUnits="userSpaceOnUse"><stop offset=".693" stop-color="#006185"/><stop offset=".921" stop-color="#35c1f1"/></radialGradient></defs><path fill="#199be2" d="M35.983,32.448l-3.536,3.536,7.87,7.87a.50035.50035,0,0,0,.707,0l2.828-2.828a.50035.50035,0,0,0,0-.707Z"/><polygon fill="url(#YNLHFYaxvvWk5m_JDULKbb)" points="31.601 28.065 28.065 31.601 32.448 35.983 35.983 32.448 31.601 28.065"/><circle cx="20" cy="20" r="16" fill="url(#YNLHFYaxvvWk5m_JDULKbc)"/><path fill="url(#YNLHFYaxvvWk5m_JDULKba)" d="M20,31a.99909.99909,0,0,1-1-1V28a1,1,0,0,1,2,0v2A.99909.99909,0,0,1,20,31Z"/><path fill="url(#YNLHFYaxvvWk5m_JDULKbd)" d="M20,15a1.00294,1.00294,0,0,0-1,1v8a1,1,0,0,0,2,0V16A1.00294,1.00294,0,0,0,20,15Z"/><path fill="url(#YNLHFYaxvvWk5m_JDULKbe)" d="M20,11a5.00182,5.00182,0,0,0-5,5V29.54a1,1,0,0,0,2,0V16a3,3,0,0,1,6,0V29.54a1,1,0,0,0,2,0V16A5.00182,5.00182,0,0,0,20,11Z"/><path fill="url(#YNLHFYaxvvWk5m_JDULKbf)" d="M12.85,10.55A8.92467,8.92467,0,0,0,11,16V28.13a1,1,0,0,0,2,0V16a6.95982,6.95982,0,0,1,1.44-4.24.999.999,0,1,0-1.59-1.21Z"/><path fill="url(#YNLHFYaxvvWk5m_JDULKbg)" d="M20,7a8.993,8.993,0,0,0-3.61.76.99861.99861,0,0,0,.8,1.83A6.99768,6.99768,0,0,1,27,16V28.13a1,1,0,0,0,2,0V16A9.01356,9.01356,0,0,0,20,7Z"/></svg>