<svg xmlns="http://www.w3.org/2000/svg" xmlns:xlink="http://www.w3.org/1999/xlink" data-name="Слой 1" viewBox="0 0 48 48"><defs><linearGradient id="tnV~fDXLi7NswNaoPKuepb" x1="23.536" x2="24.905" y1="3.874" y2="27.483" data-name="Безымянный градиент 147" gradientUnits="userSpaceOnUse"><stop offset="0" stop-color="#dfe9f2"/><stop offset=".391" stop-color="#d6e0e9"/><stop offset="1" stop-color="#bfc8d1"/></linearGradient><linearGradient id="tnV~fDXLi7NswNaoPKuepc" x1="24" x2="24" y1="44.979" y2="34.091" data-name="Безымянный градиент 25" gradientUnits="userSpaceOnUse"><stop offset=".087" stop-color="#dfe9f2"/><stop offset=".291" stop-color="#d6e0e9"/><stop offset=".619" stop-color="#bfc8d1"/><stop offset=".768" stop-color="#889097"/></linearGradient><linearGradient id="tnV~fDXLi7NswNaoPKuepa" x1="24" x2="24" y1="39.065" y2="29.563" data-name="Безымянный градиент 121" gradientUnits="userSpaceOnUse"><stop offset="0" stop-color="#f44f5a"/><stop offset=".443" stop-color="#ee3d4a"/><stop offset="1" stop-color="#e52030"/></linearGradient><linearGradient id="tnV~fDXLi7NswNaoPKuepd" x1="20.305" x2="30.112" y1="13.848" y2="40.793" xlink:href="#tnV~fDXLi7NswNaoPKuepa"/></defs><rect width="16" height="15.75" x="16" y="4" fill="url(#tnV~fDXLi7NswNaoPKuepb)"/><path fill="url(#tnV~fDXLi7NswNaoPKuepc)" d="M16,36H32a0,0,0,0,1,0,0v7a2,2,0,0,1-2,2H18a2,2,0,0,1-2-2V36A0,0,0,0,1,16,36Z"/><path fill="url(#tnV~fDXLi7NswNaoPKuepa)" d="M13.5,27h21a0,0,0,0,1,0,0v8a2,2,0,0,1-2,2h-17a2,2,0,0,1-2-2V27A0,0,0,0,1,13.5,27Z"/><path fill="#bfc8d1" d="M29.00049,22a.99193.99193,0,0,1-.29444-.04395l-13-4a1.00022,1.00022,0,0,1,.5879-1.9121l13,4A1.00017,1.00017,0,0,1,29.00049,22Z"/><path fill="#bfc8d1" d="M32.00049,19a.99209.99209,0,0,1-.29883-.0459l-16-5a.99966.99966,0,1,1,.59668-1.9082l16,5A.99981.99981,0,0,1,32.00049,19Z"/><path fill="#bfc8d1" d="M32.00049,15a.99209.99209,0,0,1-.29883-.0459l-16-5a.99966.99966,0,1,1,.59668-1.9082l16,5A.99981.99981,0,0,1,32.00049,15Z"/><path fill="#bfc8d1" d="M32.00049,11a.99209.99209,0,0,1-.29883-.0459l-16-5a.99966.99966,0,1,1,.59668-1.9082l16,5A.99981.99981,0,0,1,32.00049,11Z"/><path fill="#bfc8d1" d="M32.95,6.3A.98385.98385,0,0,1,32,7a.789.789,0,0,1-.3-.05L22.26,4h6.68L32,4.96l.3.09A.98412.98412,0,0,1,32.95,6.3Z"/><path fill="url(#tnV~fDXLi7NswNaoPKuepd)" d="M14,19H34a5,5,0,0,1,5,5v0a5,5,0,0,1-5,5H14a5,5,0,0,1-5-5v0a5,5,0,0,1,5-5Z"/><path d="M34,29H14a4.06619,4.06619,0,0,1-.5-.03v1.01c.16.01.33.02.5.02H34c.17,0,.34-.01.5-.02V28.97A4.06619,4.06619,0,0,1,34,29Z" opacity=".05"/><path d="M34,29H14a4.06619,4.06619,0,0,1-.5-.03v.5a4.06619,4.06619,0,0,0,.5.03H34a4.06619,4.06619,0,0,0,.5-.03v-.5A4.06619,4.06619,0,0,1,34,29Z" opacity=".07"/></svg>