<svg xmlns="http://www.w3.org/2000/svg" viewBox="0 0 48 48"><radialGradient id="wyS32YMIv~YXE2xbE17ZJa" cx="17.049" cy="28.951" r="32.363" gradientUnits="userSpaceOnUse"><stop offset=".169" stop-color="#faeeae"/><stop offset=".388" stop-color="#fac5d9"/><stop offset=".558" stop-color="#eccee8"/><stop offset=".807" stop-color="#dcd7f8"/><stop offset="1" stop-color="#d7dafe"/></radialGradient><path fill="url(#wyS32YMIv~YXE2xbE17ZJa)" d="M40,37H8c-1.105,0-2-0.895-2-2V8c0-1.105,0.895-2,2-2h32c1.105,0,2,0.895,2,2v27	C42,36.105,41.105,37,40,37z"/><circle cx="17" cy="29" r="7" fill="#fff"/><path fill="#21a366" d="M15,28c-3.309,0-6.388,0.509-9,1.375V40c0,1.105,0.895,2,2,2h21.133C30.942,40.57,32,38.851,32,37	C32,32.029,24.389,28,15,28z"/><linearGradient id="wyS32YMIv~YXE2xbE17ZJb" x1="32.5" x2="32.5" y1="28.929" y2="25.668" gradientUnits="userSpaceOnUse"><stop offset="0" stop-color="#c26715"/><stop offset=".508" stop-color="#b85515"/><stop offset="1" stop-color="#ad3f16"/></linearGradient><path fill="url(#wyS32YMIv~YXE2xbE17ZJb)" d="M31,14.947h3v15.52C34,30.761,33.776,31,33.5,31h-2c-0.276,0-0.5-0.239-0.5-0.533L31,14.947z"/><linearGradient id="wyS32YMIv~YXE2xbE17ZJc" x1="30.543" x2="33.579" y1="9.403" y2="26.619" gradientUnits="userSpaceOnUse"><stop offset="0" stop-color="#21ad64"/><stop offset="1" stop-color="#088242"/></linearGradient><path fill="url(#wyS32YMIv~YXE2xbE17ZJc)" d="M37.339,17.534C37.751,16.96,38,16.261,38,15.5c0-1.777-1.33-3.229-3.046-3.454	C34.74,10.883,33.725,10,32.5,10s-2.24,0.883-2.454,2.046C28.33,12.271,27,13.723,27,15.5c0,0.761,0.249,1.46,0.661,2.034	C26.667,18.151,26,19.244,26,20.5c0,1.933,1.567,3.5,3.5,3.5c0.061,0,0.118-0.015,0.178-0.018C30.086,25.154,31.189,26,32.5,26	s2.414-0.846,2.822-2.018C35.382,23.985,35.439,24,35.5,24c1.933,0,3.5-1.567,3.5-3.5C39,19.244,38.333,18.151,37.339,17.534z"/><linearGradient id="wyS32YMIv~YXE2xbE17ZJd" x1="24" x2="24" y1="20.261" y2="43.893" gradientUnits="userSpaceOnUse"><stop offset="0" stop-color="#21ad64"/><stop offset="1" stop-color="#088242"/></linearGradient><path fill="url(#wyS32YMIv~YXE2xbE17ZJd)" d="M42,31v1c-2-2-5-3-9.5-3c-4.472,0-9.437,2.962-13.092,5.286	C16.605,36.068,13.346,37,10.025,37L6,37v3c0,1.105,0.895,2,2,2h32c1.105,0,2-0.895,2-2V31z"/></svg>