<svg xmlns="http://www.w3.org/2000/svg" viewBox="0 0 48 48"><linearGradient id="wsXs2EtI_kc~Dc19hch~Ha" x1="25.247" x2="23.862" y1="49.347" y2="31.15" gradientUnits="userSpaceOnUse"><stop offset="0" stop-color="#2b92f3"/><stop offset="1" stop-color="#1166d2"/></linearGradient><path fill="url(#wsXs2EtI_kc~Dc19hch~Ha)" d="M42.77,26.91C42.24,25.64,40.88,25,40.43,25c-0.14,0-0.28,0.02-0.43,0.07	c-0.16,0.04-0.33,0.11-0.5,0.21c-0.17,0.09-0.33,0.2-0.5,0.33c-0.24,0.19-0.48,0.41-0.7,0.66l-0.01,0.01	c-0.36,0.4-0.69,0.87-0.91,1.35C37.15,28.1,37.01,28.57,37,29v9h6c0,0,0-7.63,0-9.96C43,27.62,42.91,27.24,42.77,26.91z M10.62,27.63c-0.22-0.48-0.55-0.95-0.91-1.35L9.7,26.27C9.48,26.02,9.24,25.8,9,25.61c-0.17-0.13-0.33-0.24-0.5-0.33	c-0.17-0.1-0.34-0.17-0.5-0.21C7.85,25.02,7.71,25,7.57,25c-0.45,0-1.81,0.64-2.34,1.91C5.09,27.24,5,27.62,5,28.04	C5,30.37,5,38,5,38h6v-9C10.99,28.57,10.85,28.1,10.62,27.63z"/><path fill="#a1cd6a" d="M9,21.06C8.83,21.02,8.66,21.01,8.5,21H8.43C8.28,21,8.14,21.01,8,21.02c-1.69,0.12-3,1-3,2.63	c0,1.18,0.09,2.26,0.23,3.26c0.06,0.4,0.12,0.79,0.2,1.17H5.42C5.48,28.4,5.55,28.7,5.63,29H13v-4.46C13,23.22,10.81,21.4,9,21.06z M43,23.65c0-1.63-1.31-2.51-3-2.63C39.86,21.01,39.72,21,39.57,21H39.5c-0.16,0.01-0.33,0.02-0.5,0.06c-1.81,0.34-4,2.16-4,3.48V29	h7.37c0.08-0.3,0.15-0.6,0.21-0.92h-0.01c0.08-0.38,0.14-0.77,0.2-1.17C42.91,25.91,43,24.83,43,23.65z"/><linearGradient id="wsXs2EtI_kc~Dc19hch~Hb" x1="13.852" x2="23.94" y1="1.272" y2="18.481" gradientUnits="userSpaceOnUse"><stop offset="0" stop-color="#d7e3ee"/><stop offset=".391" stop-color="#ccd8e3"/><stop offset="1" stop-color="#b1bbc6"/></linearGradient><path fill="url(#wsXs2EtI_kc~Dc19hch~Hb)" d="M39,9.8V29H9V9.8C9,7.11,10.65,5,12.75,5c1.8,0,3.26,1.55,3.65,3.67	c0.6-0.1,1.22-0.18,1.84-0.26c0.57-0.06,1.15-0.12,1.73-0.16c0.1-0.02,0.2-0.02,0.3-0.03c0.59-0.05,1.18-0.08,1.78-0.1	c0.63-0.03,1.27-0.04,1.91-0.04c0.01,0,0.01,0,0.02,0c2.59,0,5.19,0.2,7.62,0.6C31.98,6.55,33.45,5,35.25,5C37.35,5,39,7.11,39,9.8z"/><path fill="#fabeac" d="M35.76,16.99c-0.93-2.97-4.57-5.25-9.32-5.84C25.65,11.05,24.84,11,24,11s-1.65,0.05-2.44,0.15	c-4.75,0.59-8.39,2.87-9.32,5.84C12.08,17.48,12,17.98,12,18.5s0.08,1.02,0.24,1.51c0.93,2.97,4.57,5.25,9.32,5.84	C22.35,25.95,23.16,26,24,26s1.65-0.05,2.44-0.15c4.75-0.59,8.39-2.87,9.32-5.84C35.92,19.52,36,19.02,36,18.5	S35.92,17.48,35.76,16.99z M5,38v4c0,1.1,0.9,2,2,2h2v-6H5z M39,38v6h2c1.1,0,2-0.9,2-2v-4H39z"/><path fill="#6fa52c" d="M5.63,29c0.61,2.38,1.54,4.12,2.37,5.29c0.17,0.24,0.34,0.46,0.5,0.65c0.18,0.23,0.35,0.42,0.5,0.58 c0.25,0.25,0.44,0.42,0.57,0.52c0.49,0.38,0.98,0.61,1.43,0.75c1.12,0.37,2,0.14,2,0.14s0-4.35,0-5.31V29H5.63z M35,29v2.62 c0,0.96,0,5.31,0,5.31s0.88,0.23,2-0.14c0.45-0.14,0.94-0.37,1.43-0.75c0.13-0.1,0.32-0.27,0.57-0.52c0.15-0.16,0.32-0.35,0.5-0.58 c0.16-0.19,0.33-0.41,0.5-0.65c0.83-1.17,1.76-2.91,2.37-5.29H35z"/><path fill="#272727" d="M31,16c-0.552,0-1,0.448-1,1s0.448,1,1,1s1-0.448,1-1S31.552,16,31,16z M17,16c-0.552,0-1,0.448-1,1 s0.448,1,1,1s1-0.448,1-1S17.552,16,17,16z M24.001,21c-1.736,0-3.347-0.409-4.532-1.153c-0.468-0.293-0.609-0.91-0.316-1.378 c0.295-0.468,0.912-0.608,1.379-0.316C21.39,18.691,22.655,19,24.001,19c1.345,0,2.608-0.309,3.469-0.847 c0.467-0.293,1.085-0.152,1.378,0.317c0.293,0.468,0.151,1.085-0.317,1.378C27.345,20.591,25.735,21,24.001,21z"/><linearGradient id="wsXs2EtI_kc~Dc19hch~Hc" x1="21.841" x2="25.599" y1="25.001" y2="42.407" gradientUnits="userSpaceOnUse"><stop offset="0" stop-color="#2b92f3"/><stop offset="1" stop-color="#1166d2"/></linearGradient><path fill="url(#wsXs2EtI_kc~Dc19hch~Hc)" d="M39,26v18H9V26l0.7,0.27l0.01,0.01l0.83,0.32c0.75,0.29,1.58,0.56,2.46,0.79	c0.38,0.11,0.77,0.2,1.16,0.29c0.02,0,0.04,0.01,0.05,0.01c0.83,0.19,1.71,0.36,2.61,0.49c0.45,0.07,0.9,0.13,1.37,0.19	c0.24,0.03,0.48,0.06,0.73,0.08c0.34,0.04,0.69,0.07,1.04,0.09c0.23,0.03,0.46,0.04,0.69,0.05c0.48,0.04,0.96,0.07,1.45,0.08	c0.63,0.03,1.26,0.04,1.9,0.04s1.27-0.01,1.9-0.04c0.49-0.01,0.97-0.04,1.45-0.08c0.23-0.01,0.46-0.02,0.69-0.05	c0.35-0.02,0.7-0.05,1.04-0.09c0.25-0.02,0.49-0.05,0.73-0.08c0.47-0.06,0.92-0.12,1.37-0.19c0.9-0.13,1.78-0.3,2.61-0.49	c0.01,0,0.03-0.01,0.05-0.01c0.39-0.09,0.78-0.18,1.16-0.29c0.88-0.23,1.71-0.5,2.46-0.79l0.83-0.32l0.01-0.01L39,26z"/><path fill="#151515" d="M24,11.5c6.341,0,11.5,3.14,11.5,7s-5.159,7-11.5,7s-11.5-3.14-11.5-7S17.659,11.5,24,11.5 M24,11 c-6.627,0-12,3.358-12,7.5S17.373,26,24,26s12-3.358,12-7.5S30.627,11,24,11L24,11z" opacity=".05"/><path fill="#151515" d="M24,12c5.963,0,11,2.977,11,6.5S29.963,25,24,25s-11-2.977-11-6.5S18.037,12,24,12 M24,11 c-6.627,0-12,3.358-12,7.5S17.373,26,24,26s12-3.358,12-7.5S30.627,11,24,11L24,11z" opacity=".05"/><path fill="#151515" d="M39,21.06V44h0.5V21C39.34,21.01,39.17,21.02,39,21.06z M8.5,44H9V21.06	C8.83,21.02,8.66,21.01,8.5,21V44z" opacity=".05"/><path fill="#151515" d="M39.57,21H39.5c-0.16,0.01-0.33,0.02-0.5,0.06V44h1V21.02	C39.86,21.01,39.72,21,39.57,21z M8.43,21C8.28,21,8.14,21.01,8,21.02V44h1V21.06C8.83,21.02,8.66,21.01,8.5,21H8.43z" opacity=".05"/><path fill="#151515" d="M37.46,26.6c-3.45,1.34-8.36,2.11-13.46,2.11s-10.01-0.77-13.46-2.11L9,26v1.07	l1.18,0.46c1.57,0.61,3.44,1.11,5.48,1.47c2.57,0.46,5.43,0.71,8.34,0.71s5.77-0.25,8.34-0.71c2.04-0.36,3.91-0.86,5.48-1.47	L39,27.07V26L37.46,26.6z" opacity=".05"/><path fill="#151515" d="M37.46,26.6c-3.45,1.34-8.36,2.11-13.46,2.11s-10.01-0.77-13.46-2.11L9,26v0.54	l1.36,0.53c2.46,0.95,5.65,1.62,9.11,1.93c1.47,0.14,2.99,0.21,4.53,0.21s3.06-0.07,4.53-0.21c3.46-0.31,6.65-0.98,9.11-1.93	L39,26.54V26L37.46,26.6z" opacity=".05"/></svg>