<svg xmlns="http://www.w3.org/2000/svg" viewBox="0 0 48 48"><path fill="#21a366" d="M29,30.74c3.2,4.9,11.6-5.8,13-9.7C39.1,20.24,25,24.74,29,30.74z"/><path fill="#33c481" d="M29,33c-0.552,0-1-0.447-1-1V11c0-3.309-2.691-6-6-6s-6,2.691-6,6v2c0,0.553-0.448,1-1,1	s-1-0.447-1-1v-2c0-4.411,3.589-8,8-8s8,3.589,8,8v21C30,32.553,29.552,33,29,33z"/><linearGradient id="keUTVuCM4bTNBFBgIgs5Wa" x1="12.316" x2="17.264" y1="7.436" y2="21.029" gradientUnits="userSpaceOnUse"><stop offset="0" stop-color="#f44f5a"/><stop offset=".443" stop-color="#ee3d4a"/><stop offset="1" stop-color="#e52030"/></linearGradient><path fill="url(#keUTVuCM4bTNBFBgIgs5Wa)" d="M20.274,11.944C19.203,9.956,17.5,9,15.5,9c-0.247-0.005-0.753-0.005-1,0	c-2,0-3.703,0.956-4.774,2.944c-1.071,1.988-0.906,4.236,0.165,6.051c1.978,0.086,3.956-0.951,5.027-2.939	c0.033-0.062,0.055-0.126,0.085-0.188c0.029,0.062,0.049,0.127,0.079,0.188c1.071,1.988,3.049,3.025,5.027,2.939	C21.181,16.18,21.346,13.932,20.274,11.944z"/><path fill="#fed100" d="M15.315,26.001c3.579,0.052,3.579,4.947,0,4.999C15.281,31,15.247,31,15.213,31	C11.781,31,9,28.5,9,28.5s2.781-2.5,6.213-2.5C15.247,26,15.281,26,15.315,26.001z"/><path fill="#ff8f6b" d="M42,33H6v-1c0-0.552,0.448-1,1-1h34c0.552,0,1,0.448,1,1V33z"/><path fill="#ed6c47" d="M6,32.5V41c0,1.104,0.895,2,1.999,2C7.999,43,8,43,8,43h32c1.104,0,2-0.895,2-1.999	c0,0,0-0.001,0-0.001v-8.5H6z"/><path fill="#d43a02" d="M21,43v-3.382c0-0.379,0.214-0.725,0.553-0.894L23,38l-0.5-3l0.966-0.18l1.672,3.437 c0.21,0.431,0.084,0.95-0.299,1.238L23.5,40.5L24,43H21z"/><path fill="#d43a02" d="M36,31l2,2l-1,1.5l-4.287,1.286C32.29,35.913,32,36.302,32,36.744V40.5l0.985,0.102L33.5,37l4-0.5 l1.5,2v3l0.969,0.173l0.907-3.23c0.079-0.281,0.031-0.582-0.131-0.825L39,35l0.776-1.553c0.141-0.282,0.141-0.613,0-0.894L39,31H36 z"/><circle cx="23" cy="35" r=".5" fill="#d43a02"/><circle cx="39.5" cy="41.5" r=".5" fill="#d43a02"/><circle cx="32.5" cy="40.5" r=".5" fill="#d43a02"/><path fill="#d43a02" d="M8,31l4,3l-1.451,3.629C10.286,38.285,10.77,39,11.477,39H14.5l1.5,4h2l-1.5-4l2-5.5L21,31h-2 l-1.877,1.877c-0.081,0.081-0.147,0.177-0.194,0.282L15,37.5h-2.5l1.251-3.335c0.149-0.398,0.031-0.847-0.296-1.119L11,31H8z"/></svg>