<svg xmlns="http://www.w3.org/2000/svg" viewBox="0 0 48 48"><linearGradient id="nRCAYObd41CzKz2hIjqsYa" x1="24" x2="24" y1="465.824" y2="498.929" gradientTransform="matrix(1 0 0 -1 0 526)" gradientUnits="userSpaceOnUse"><stop offset="0" stop-color="#899198"/><stop offset="1" stop-color="#787e85"/></linearGradient><path fill="url(#nRCAYObd41CzKz2hIjqsYa)" d="M6,34v5c0,1.657,1.338,3,2.99,3h30.02c1.651,0,2.99-1.343,2.99-3v-5H6z"/><linearGradient id="nRCAYObd41CzKz2hIjqsYb" x1="24" x2="24" y1="516.667" y2="480.929" gradientTransform="matrix(1 0 0 -1 0 526)" gradientUnits="userSpaceOnUse"><stop offset="0" stop-color="#c3cdd9"/><stop offset="1" stop-color="#9fa7b0"/></linearGradient><path fill="url(#nRCAYObd41CzKz2hIjqsYb)" d="M42,34c-0.125,1.657-1.461,3-3.109,3H8.985C7.336,37,6,35.657,6,34V9c0-1.657,1.336-3,2.985-3	H38.89c1.648,0,2.984,1.343,3.109,3L42,34L42,34z"/><path fill="#575c61" d="M25.725,15.058v12.885h-2.769v-9.756c-0.152,0.135-0.333,0.262-0.54,0.382 c-0.209,0.12-0.43,0.229-0.664,0.325s-0.478,0.179-0.729,0.246s-0.501,0.116-0.747,0.145v-2.338c0.721-0.211,1.4-0.48,2.039-0.809 s1.216-0.688,1.731-1.081H25.725z"/></svg>