<svg xmlns="http://www.w3.org/2000/svg" xmlns:xlink="http://www.w3.org/1999/xlink" data-name="Слой 1" viewBox="0 0 48 48"><defs><linearGradient id="CIvMrLfQe6JzLRYKXhj1Ka" x1="4.845" x2="16.129" y1="4.968" y2="35.971" data-name="Безымянный градиент 39" gradientUnits="userSpaceOnUse"><stop offset="0" stop-color="#5c65d6"/><stop offset=".999" stop-color="#464eb0"/></linearGradient><linearGradient id="CIvMrLfQe6JzLRYKXhj1Kb" x1="3.187" x2="18.921" y1=".414" y2="43.643" data-name="Безымянный градиент 38" gradientUnits="userSpaceOnUse"><stop offset="0" stop-color="#7b83eb"/><stop offset="1" stop-color="#5961c3"/></linearGradient><linearGradient id="CIvMrLfQe6JzLRYKXhj1Kc" x1="27.845" x2="39.129" y1="4.968" y2="35.971" xlink:href="#CIvMrLfQe6JzLRYKXhj1Ka"/><linearGradient id="CIvMrLfQe6JzLRYKXhj1Kd" x1="26.188" x2="41.922" y1=".414" y2="43.643" xlink:href="#CIvMrLfQe6JzLRYKXhj1Kb"/></defs><polygon fill="url(#CIvMrLfQe6JzLRYKXhj1Ka)" points="20 14 12.5 8.5 5 14 5 38.002 12.5 41.502 20 38.002 20 14"/><path fill="url(#CIvMrLfQe6JzLRYKXhj1Kb)" d="M20,28H17.18046a2.044,2.044,0,0,0-1.45966.64044,4.49482,4.49482,0,0,1-6.4416,0A2.044,2.044,0,0,0,7.81954,28H5V23H7.81954a2.044,2.044,0,0,0,1.45966-.64044,4.49482,4.49482,0,0,1,6.4416,0A2.044,2.044,0,0,0,17.18046,23H20Zm1.68164-12.5752a1.50165,1.50165,0,0,0-.25684-2.10644l-7.40039-5.79a2.46971,2.46971,0,0,0-3.04882-.001l-7.40039,5.791a1.50051,1.50051,0,0,0,1.8496,2.36328L12.5,10.14453l7.0752,5.53711a1.50177,1.50177,0,0,0,2.10644-.25684ZM13.794,42.69336,21.19434,38.832a1.5004,1.5004,0,1,0-1.38868-2.66015L12.5,39.98438l-7.30566-3.8125A1.5004,1.5004,0,1,0,3.80566,38.832L11.209,42.69434a2.88134,2.88134,0,0,0,2.585-.001Z"/><polygon fill="url(#CIvMrLfQe6JzLRYKXhj1Kc)" points="43 14 35.5 8.5 28 14 28 38.002 35.5 41.502 43 38.002 43 14"/><path fill="url(#CIvMrLfQe6JzLRYKXhj1Kd)" d="M43.00038,28H40.18084a2.044,2.044,0,0,0-1.45966.64044,4.49482,4.49482,0,0,1-6.4416,0A2.044,2.044,0,0,0,30.81992,28H28.00038V23h2.81954a2.044,2.044,0,0,0,1.45966-.64044,4.49482,4.49482,0,0,1,6.4416,0A2.044,2.044,0,0,0,40.18084,23h2.81954ZM44.682,15.4248a1.50166,1.50166,0,0,0-.25683-2.10644l-7.4004-5.79a2.46971,2.46971,0,0,0-3.04882-.001l-7.40039,5.791a1.50051,1.50051,0,1,0,1.84961,2.36328l7.07519-5.53711,7.0752,5.53711A1.50177,1.50177,0,0,0,44.682,15.4248ZM36.79433,42.69336,44.19472,38.832A1.5004,1.5004,0,1,0,42.806,36.17188l-7.30566,3.8125-7.30566-3.8125A1.5004,1.5004,0,1,0,26.806,38.832l7.40333,3.86231a2.88132,2.88132,0,0,0,2.585-.001Z"/></svg>