<svg xmlns="http://www.w3.org/2000/svg" xmlns:xlink="http://www.w3.org/1999/xlink" data-name="Слой 1" viewBox="0 0 48 48"><defs><linearGradient id="U5zHK63tCesAe3nkczJvlb" x1="14.095" x2="31.385" y1="-3496.338" y2="-3529.787" data-name="Безымянный градиент 23" gradientTransform="matrix(1 0 0 -1 0 -3486)" gradientUnits="userSpaceOnUse"><stop offset="0" stop-color="#fcfcfc"/><stop offset=".495" stop-color="#f4f4f4"/><stop offset=".946" stop-color="#e8e8e8"/><stop offset="1" stop-color="#e8e8e8"/></linearGradient><linearGradient id="U5zHK63tCesAe3nkczJvlc" x1="24" x2="24" y1="-3487.684" y2="-3509.696" data-name="Безымянный градиент 124" gradientTransform="matrix(1 0 0 -1 0 -3486)" gradientUnits="userSpaceOnUse"><stop offset="0" stop-color="#d43a02"/><stop offset="1" stop-color="#b9360c"/></linearGradient><linearGradient id="U5zHK63tCesAe3nkczJvla" x1="32.003" x2="38.003" y1="-1778.5" y2="-1778.5" data-name="Безымянный градиент 180" gradientTransform="matrix(1 0 0 -1 0 -1748)" gradientUnits="userSpaceOnUse"><stop offset="0" stop-color="#92a3b0"/><stop offset=".015" stop-color="#a3b5c4"/><stop offset=".032" stop-color="#aec2d1"/><stop offset=".046" stop-color="#b2c6d6"/></linearGradient><linearGradient id="U5zHK63tCesAe3nkczJvld" x1="22.003" x2="28.003" xlink:href="#U5zHK63tCesAe3nkczJvla"/><linearGradient id="U5zHK63tCesAe3nkczJvle" x1="24.001" x2="24.001" y1="33.804" y2="44.233" data-name="Безымянный градиент 154" gradientUnits="userSpaceOnUse"><stop offset="0" stop-color="#2aa4f4"/><stop offset="1" stop-color="#007ad9"/></linearGradient></defs><path fill="url(#U5zHK63tCesAe3nkczJvlb)" d="M42,39H6V20L24,3,42,20Z"/><path style="isolation:isolate" d="M24,4a1.99525,1.99525,0,0,0-1.326.503L17.315,9.314,6,20v5.39L24,9.428,42,25.39V20L30.685,9.314,25.326,4.503A1.99525,1.99525,0,0,0,24,4Z" opacity=".05"/><path style="isolation:isolate" d="M24,3a2.00219,2.00219,0,0,0-1.326.5L17.315,8.284,6,18.909v5.359L24,8.397,42,24.268V18.909L30.685,8.284,25.326,3.5A2.00219,2.00219,0,0,0,24,3Z" opacity=".07"/><path fill="url(#U5zHK63tCesAe3nkczJvlc)" d="M44.495,19.507,25.326,2.503a1.99929,1.99929,0,0,0-2.652,0L3.505,19.507a.99869.99869,0,0,0-.064,1.43l1.636,1.745a.9995.9995,0,0,0,1.39.067L24,7.428,41.533,22.75a1.0005,1.0005,0,0,0,1.39-.067l1.636-1.745A.99983.99983,0,0,0,44.495,19.507Z"/><path fill="#64717c" d="M22.70844,30.016c-.38965,0-.70518-.446-.70588-.998s.31412-1.001.70447-1.002l10.58823-.032h.00141c.38965,0,.70518.446.70589.998s-.31412,1.001-.70447,1.002l-10.58824.032Z"/><path fill="#64717c" d="M22.70844,34c-.38965,0-.70518-.446-.70588-.998s.31412-1.001.70447-1.002l10.58823-.032h.00141c.38965,0,.70518.446.70589.998s-.31412,1.001-.70447,1.002L22.70985,34Z"/><path fill="url(#U5zHK63tCesAe3nkczJvla)" d="M33.00256,40a.99972.99972,0,0,1-1-1V24a3,3,0,0,1,6,0,1,1,0,0,1-2,0,1,1,0,0,0-2,0V39A.99972.99972,0,0,1,33.00256,40Z"/><path fill="url(#U5zHK63tCesAe3nkczJvld)" d="M23.00256,40a.99972.99972,0,0,1-1-1V24a3,3,0,0,1,6,0,1,1,0,0,1-2,0,1,1,0,0,0-2,0V39A.99972.99972,0,0,1,23.00256,40Z"/><path fill="url(#U5zHK63tCesAe3nkczJvle)" d="M42.00256,35.00183,42,35a5.60659,5.60659,0,0,1-3,1,5.60663,5.60663,0,0,1-3-1,5.60659,5.60659,0,0,1-3,1,5.60663,5.60663,0,0,1-3-1,5.60659,5.60659,0,0,1-3,1,5.60663,5.60663,0,0,1-3-1,5.60659,5.60659,0,0,1-3,1,5.60663,5.60663,0,0,1-3-1,5.60659,5.60659,0,0,1-3,1,5.60663,5.60663,0,0,1-3-1,5.60659,5.60659,0,0,1-3,1,5.60663,5.60663,0,0,1-3-1v6a2,2,0,0,0,2,2H40.00256a2,2,0,0,0,2-2Z"/></svg>