<svg xmlns="http://www.w3.org/2000/svg" viewBox="0 0 48 48"><radialGradient id="MT2JgfHeKs~~CZuRnmiQIa" cx="26.992" cy="38.191" r="3.519" fx="23.822" fy="38.416" gradientUnits="userSpaceOnUse"><stop offset=".264" stop-color="#3a41ac"/><stop offset="1" stop-color="#5961c3"/></radialGradient><path fill="url(#MT2JgfHeKs~~CZuRnmiQIa)" d="M32,36h-8v4h8c0.552,0,1-0.448,1-1v-2C33,36.448,32.552,36,32,36z"/><linearGradient id="MT2JgfHeKs~~CZuRnmiQIb" x1="10.645" x2="43.44" y1="7.191" y2="44.086" gradientUnits="userSpaceOnUse"><stop offset="0" stop-color="#7b83eb"/><stop offset="1" stop-color="#5961c3"/></linearGradient><path fill="url(#MT2JgfHeKs~~CZuRnmiQIb)" d="M38,16c0-7.732-6.268-14-14-14S10,8.268,10,16c0,7.051,5.218,12.868,12,13.841V36h-6 c-0.552,0-1,0.448-1,1v2c0,0.552,0.448,1,1,1h6v5c0,0.552,0.448,1,1,1h2c0.552,0,1-0.448,1-1V29.841C32.782,28.868,38,23.051,38,16 z M24,26c-5.523,0-10-4.477-10-10c0-5.523,4.477-10,10-10s10,4.477,10,10C34,21.523,29.523,26,24,26z"/></svg>