<svg xmlns="http://www.w3.org/2000/svg" viewBox="0 0 48 48"><linearGradient id="3kK0fUAw3kagRyOwB2SfVa" x1="27" x2="27" y1="3.617" y2="15.745" gradientUnits="userSpaceOnUse"><stop offset="0" stop-color="#199ae0"/><stop offset="1" stop-color="#0782d8"/></linearGradient><path fill="url(#3kK0fUAw3kagRyOwB2SfVa)" d="M16,20.48V5c0-0.552,0.448-1,1-1h1c0,0.552,0.448,1,1,1s1-0.448,1-1h2c0,0.552,0.448,1,1,1	s1-0.448,1-1h2c0,0.552,0.448,1,1,1s1-0.448,1-1h2c0,0.552,0.448,1,1,1s1-0.448,1-1h2c0,0.552,0.448,1,1,1s1-0.448,1-1h1	c0.552,0,1,0.448,1,1v15.48H16z"/><linearGradient id="3kK0fUAw3kagRyOwB2SfVb" x1="27.325" x2="32.272" y1="-309.354" y2="-327.014" gradientTransform="matrix(1 0 0 -1 0 -290)" gradientUnits="userSpaceOnUse"><stop offset="0" stop-color="#f44f5a"/><stop offset=".443" stop-color="#ee3d4a"/><stop offset="1" stop-color="#e52030"/></linearGradient><path fill="url(#3kK0fUAw3kagRyOwB2SfVb)" d="M40.304,18H18.629C17.729,18,17,18.772,17,19.725v14.55C17,35.228,17.729,36,18.629,36h21.675	c0.9,0,1.629-0.772,1.629-1.725v-14.55C41.933,18.772,41.204,18,40.304,18z"/><path fill="#ff6771" d="M38,25h-3c-0.552,0-1-0.448-1-1v-2c0-0.552,0.448-1,1-1h3c0.552,0,1,0.448,1,1v2	C39,24.552,38.552,25,38,25z"/><path fill="#ff6771" d="M38,29h-3c-0.552,0-1-0.448-1-1v0c0-0.552,0.448-1,1-1h3c0.552,0,1,0.448,1,1v0	C39,28.552,38.552,29,38,29z"/><path fill="#ff6771" d="M31,29h-3c-0.552,0-1-0.448-1-1v0c0-0.552,0.448-1,1-1h3c0.552,0,1,0.448,1,1v0	C32,28.552,31.552,29,31,29z"/><path fill="#ff6771" d="M24,29h-3c-0.552,0-1-0.448-1-1v0c0-0.552,0.448-1,1-1h3c0.552,0,1,0.448,1,1v0	C25,28.552,24.552,29,24,29z"/><path fill="#cf1928" d="M31.55,33h-4.1C27.201,33,27,32.799,27,32.55v-1.1c0-0.249,0.201-0.45,0.45-0.45h4.1	c0.249,0,0.45,0.201,0.45,0.45v1.1C32,32.799,31.799,33,31.55,33z"/><linearGradient id="3kK0fUAw3kagRyOwB2SfVc" x1="18" x2="18" y1="13.386" y2="41.215" gradientUnits="userSpaceOnUse"><stop offset="0" stop-color="#7dd8f3"/><stop offset="1" stop-color="#45b0d0"/></linearGradient><path fill="url(#3kK0fUAw3kagRyOwB2SfVc)" d="M30,13H8c-1.105,0-2,0.895-2,2v28c0,0.552,0.448,1,1,1h1c0-0.556,0.448-1.007,1-1.007	s1,0.451,1,1.007h2c0-0.556,0.448-1.007,1-1.007s1,0.451,1,1.007h2c0-0.556,0.448-1.007,1-1.007s1,0.451,1,1.007h2	c0-0.556,0.448-1.007,1-1.007s1,0.451,1,1.007h2c0-0.556,0.448-1.007,1-1.007s1,0.451,1,1.007h1c0.552,0,1-0.448,1-1V16h2V13z"/><linearGradient id="3kK0fUAw3kagRyOwB2SfVd" x1="30" x2="30" y1="22.231" y2="14.887" gradientUnits="userSpaceOnUse"><stop offset="0" stop-color="#0176d0"/><stop offset="1" stop-color="#16538c"/></linearGradient><path fill="url(#3kK0fUAw3kagRyOwB2SfVd)" d="M32,18h-4v-3c0-1.105,0.895-2,2-2h0c1.105,0,2,0.895,2,2V18z"/><path fill="#057093" d="M24.5,20h-15C9.224,20,9,19.776,9,19.5v-1C9,18.224,9.224,18,9.5,18h15c0.276,0,0.5,0.224,0.5,0.5v1 C25,19.776,24.776,20,24.5,20z"/><path fill="#057093" d="M24.5,27h-1c-0.276,0-0.5-0.224-0.5-0.5v-1c0-0.276,0.224-0.5,0.5-0.5h1c0.276,0,0.5,0.224,0.5,0.5 v1C25,26.776,24.776,27,24.5,27z"/><path fill="#057093" d="M16.5,27h-7C9.224,27,9,26.776,9,26.5v-1C9,25.224,9.224,25,9.5,25h7c0.276,0,0.5,0.224,0.5,0.5v1 C17,26.776,16.776,27,16.5,27z"/><path fill="#057093" d="M24.5,31h-1c-0.276,0-0.5-0.224-0.5-0.5v-1c0-0.276,0.224-0.5,0.5-0.5h1c0.276,0,0.5,0.224,0.5,0.5 v1C25,30.776,24.776,31,24.5,31z"/><path fill="#057093" d="M13.5,31h-4C9.224,31,9,30.776,9,30.5v-1C9,29.224,9.224,29,9.5,29h4c0.276,0,0.5,0.224,0.5,0.5v1 C14,30.776,13.776,31,13.5,31z"/><path fill="#057093" d="M24.5,35h-1c-0.276,0-0.5-0.224-0.5-0.5v-1c0-0.276,0.224-0.5,0.5-0.5h1c0.276,0,0.5,0.224,0.5,0.5 v1C25,34.776,24.776,35,24.5,35z"/><path fill="#057093" d="M16.5,35h-7C9.224,35,9,34.776,9,34.5v-1C9,33.224,9.224,33,9.5,33h7c0.276,0,0.5,0.224,0.5,0.5v1 C17,34.776,16.776,35,16.5,35z"/><rect width="1" height="18" x="28" y="18" opacity=".05"/><rect width=".5" height="18" x="28" y="18" opacity=".07"/></svg>