<svg xmlns="http://www.w3.org/2000/svg" viewBox="0 0 48 48"><linearGradient id="veNwaC6AHeEKtE5UM3756a" x1="20.373" x2="25.498" y1="1.162" y2="43.505" gradientUnits="userSpaceOnUse"><stop offset="0" stop-color="#32bdef"/><stop offset=".259" stop-color="#27aee9"/><stop offset=".566" stop-color="#20a5e5"/><stop offset="1" stop-color="#1ea2e4"/></linearGradient><path fill="url(#veNwaC6AHeEKtE5UM3756a)" d="M38,31c0,7.732-6.268,14-14,14s-14-6.268-14-14c0-7.682,10.199-23.358,13.187-27.578 c0.398-0.562,1.228-0.562,1.626,0C27.801,7.642,38,23.318,38,31z"/><linearGradient id="veNwaC6AHeEKtE5UM3756b" x1="4.024" x2="4.976" y1="28.76" y2="33.24" gradientUnits="userSpaceOnUse"><stop offset="0" stop-color="#2aa4f4"/><stop offset="1" stop-color="#007ad9"/></linearGradient><path fill="url(#veNwaC6AHeEKtE5UM3756b)" d="M3,29h3c0.552,0,1,0.448,1,1v2c0,0.552-0.448,1-1,1H3c-0.552,0-1-0.448-1-1v-2 C2,29.448,2.448,29,3,29z"/><linearGradient id="veNwaC6AHeEKtE5UM3756c" x1="6.504" x2="7.499" y1="38.661" y2="43.342" gradientUnits="userSpaceOnUse"><stop offset="0" stop-color="#2aa4f4"/><stop offset="1" stop-color="#007ad9"/></linearGradient><path fill="url(#veNwaC6AHeEKtE5UM3756c)" d="M4.849,40.033l2.086-1.391c0.46-0.306,1.08-0.182,1.387,0.277l1.109,1.664 c0.306,0.46,0.182,1.08-0.277,1.387l-2.086,1.391c-0.46,0.306-1.08,0.182-1.387-0.277l-1.109-1.664 C4.265,40.96,4.39,40.339,4.849,40.033z"/><linearGradient id="veNwaC6AHeEKtE5UM3756d" x1="6.287" x2="7.339" y1="18.524" y2="23.474" gradientUnits="userSpaceOnUse"><stop offset="0" stop-color="#2aa4f4"/><stop offset="1" stop-color="#007ad9"/></linearGradient><path fill="url(#veNwaC6AHeEKtE5UM3756d)" d="M4.36,21.045l0.781-1.84c0.216-0.508,0.803-0.746,1.311-0.53l2.284,0.969 c0.508,0.216,0.746,0.803,0.53,1.311l-0.781,1.84c-0.216,0.508-0.803,0.746-1.311,0.53L4.89,22.356 C4.381,22.14,4.144,21.553,4.36,21.045z"/><linearGradient id="veNwaC6AHeEKtE5UM3756e" x1="43.024" x2="43.976" y1="28.76" y2="33.24" gradientUnits="userSpaceOnUse"><stop offset="0" stop-color="#2aa4f4"/><stop offset="1" stop-color="#007ad9"/></linearGradient><path fill="url(#veNwaC6AHeEKtE5UM3756e)" d="M42,29h3c0.552,0,1,0.448,1,1v2c0,0.552-0.448,1-1,1h-3c-0.552,0-1-0.448-1-1v-2 C41,29.448,41.448,29,42,29z"/><linearGradient id="veNwaC6AHeEKtE5UM3756f" x1="40.463" x2="41.542" y1="38.457" y2="43.535" gradientUnits="userSpaceOnUse"><stop offset="0" stop-color="#2aa4f4"/><stop offset="1" stop-color="#007ad9"/></linearGradient><path fill="url(#veNwaC6AHeEKtE5UM3756f)" d="M38.573,40.578l1.109-1.664c0.306-0.46,0.927-0.584,1.387-0.277l2.086,1.391 c0.46,0.306,0.584,0.927,0.277,1.387l-1.109,1.664c-0.306,0.46-0.927,0.584-1.387,0.277l-2.086-1.391 C38.39,41.659,38.266,41.038,38.573,40.578z"/><linearGradient id="veNwaC6AHeEKtE5UM3756g" x1="40.724" x2="41.647" y1="18.828" y2="23.167" gradientUnits="userSpaceOnUse"><stop offset="0" stop-color="#2aa4f4"/><stop offset="1" stop-color="#007ad9"/></linearGradient><path fill="url(#veNwaC6AHeEKtE5UM3756g)" d="M39.262,19.642l2.284-0.969c0.508-0.216,1.095,0.021,1.311,0.53l0.781,1.84 c0.216,0.508-0.021,1.095-0.53,1.311l-2.284,0.969c-0.508,0.216-1.095-0.021-1.311-0.53l-0.781-1.84 C38.517,20.445,38.754,19.857,39.262,19.642z"/></svg>