<svg xmlns="http://www.w3.org/2000/svg" width="48" height="48" viewBox="0 0 48 48"><radialGradient id="586DEAiTuLGxyRREUeNVOa" cx="12.92" cy="151.908" r="13.51" gradientTransform="matrix(1 0 0 -1 0 186)" gradientUnits="userSpaceOnUse"><stop offset="0" stop-color="#fee100"/><stop offset="1" stop-color="#f7a511"/></radialGradient><circle cx="17" cy="40" r="7" fill="url(#586DEAiTuLGxyRREUeNVOa)"/><path d="M23.227,36.813l-3.041-3.041c-0.706-0.362-1.481-0.607-2.301-0.711 l-0.059,0.267c-0.091,0.524,0.098,1.056,0.494,1.406l4.443,4.443c0.322,0.322,0.768,0.468,1.216,0.422 C23.923,38.6,23.66,37.657,23.227,36.813z" opacity=".05"/><path d="M10.773,36.812c-0.438,0.854-0.702,1.808-0.755,2.821 c0.043,0.004,0.085,0.011,0.128,0.011c0.396,0,0.78-0.157,1.065-0.442l4.505-4.505c0.348-0.358,0.5-0.864,0.405-1.354l-0.089-0.269 c-0.79,0.109-1.538,0.348-2.221,0.699L10.773,36.812z" opacity=".05"/><path d="M23.706,38L19.3,33.607l0.043-0.197 c-0.312-0.111-0.632-0.207-0.963-0.273l-0.061,0.277c-0.063,0.367,0.077,0.741,0.327,0.939l4.471,4.471 c0.217,0.217,0.517,0.314,0.819,0.281C23.888,38.727,23.813,38.357,23.706,38z" opacity=".07"/><path d="M14.646,33.646l-4.356,4.365c-0.108,0.363-0.185,0.74-0.232,1.125 c0.029,0.003,0.059,0.008,0.088,0.008c0.264,0,0.521-0.105,0.711-0.295l4.5-4.5c0.234-0.241,0.336-0.581,0.256-0.974l-0.073-0.22 c-0.331,0.07-0.651,0.169-0.963,0.285L14.646,33.646z" opacity=".07"/><linearGradient id="586DEAiTuLGxyRREUeNVOb" x1="22.5" x2="22.5" y1="4.867" y2="43.214" gradientUnits="userSpaceOnUse"><stop offset=".465" stop-color="#889097"/><stop offset=".591" stop-color="#818a91"/><stop offset=".773" stop-color="#6d7880"/><stop offset=".99" stop-color="#4e5a64"/><stop offset="1" stop-color="#4c5963"/></linearGradient><path fill="url(#586DEAiTuLGxyRREUeNVOb)" d="M42,23.25c0,0,0-7.913,0-8.079C42,9.554,37.416,5,31.762,5c-1.504,0-2.931,0.324-4.216,0.904	l-7.363,0.445C18.837,6.172,17.663,6,16,6C14,6,3,5.666,3,18.56C3,23.58,8.362,35.47,9.7,38.359	c0.146,0.315,0.558,0.382,0.804,0.137L15,34c0.12-0.124,0.172-0.298,0.14-0.467l-1.599-4.817c0,0,1.583,0.527,3.162,0.527	c1.58,0,3.162-0.527,3.162-0.527L18.812,33.5C18.779,33.688,18.851,33.88,19,34l4.471,4.471c0.252,0.252,0.678,0.17,0.814-0.159	c0.859-2.078,3.403-8.244,4.012-9.859c1.11-2.938,2.108-5.007,2.108-5.007c7.862,0,7.905,4.216,7.905,4.216v0.527	c0,1.068-0.791,2.108-2.108,2.108c-0.955,0-1.951-0.97-2.162-1.935C33.993,28.144,33.786,28,33.563,28l-2.726,0	c-0.286,0-0.528,0.241-0.502,0.526c0.272,2.977,2.819,5.46,5.868,5.46c3.226,0,5.797-2.706,5.797-5.911v-4.062V23.25z"/><path d="M39.808,19.357c-0.287-0.448-0.773-0.715-1.301-0.715	c-0.853,0-1.546,0.694-1.546,1.546c0,0.335,0.109,0.656,0.321,0.936c0.06,0.077,0.125,0.148,0.165,0.182	c0.885,0.948,2.547,1.699,4.553,2.127V23.25c0,0,0-0.81,0-1.915C41.136,20.846,40.478,20.256,39.808,19.357z M38.145,20.591	c-0.025-0.022-0.048-0.048-0.071-0.076c-0.051-0.068-0.113-0.18-0.113-0.327c0-0.301,0.245-0.546,0.546-0.546	c0.186,0,0.357,0.095,0.479,0.282c0.854,1.148,1.707,1.866,2.777,2.429C40.161,21.959,38.849,21.343,38.145,20.591z" opacity=".05"/><path d="M40.229,19.088c-0.379-0.592-1.023-0.946-1.722-0.946	c-1.128,0-2.046,0.918-2.046,2.046c0,0.445,0.144,0.87,0.382,1.183l0.089,0.116c0.063,0.078,0.125,0.143,0.149,0.16	c0.981,1.05,2.763,1.854,4.919,2.298V23.25c0,0,0-1.103,0-2.493C41.32,20.332,40.779,19.824,40.229,19.088z M38.509,20.25	l0.016-0.084l-0.018-0.023l0.079,0.081c0.079,0.105,0.157,0.208,0.236,0.307C38.705,20.438,38.601,20.344,38.509,20.25z" opacity=".05"/><linearGradient id="586DEAiTuLGxyRREUeNVOc" x1="37.461" x2="45.005" y1="21.223" y2="21.223" gradientUnits="userSpaceOnUse"><stop offset="0" stop-color="#c8d3de"/><stop offset="1" stop-color="#c8d3de"/></linearGradient><path fill="url(#586DEAiTuLGxyRREUeNVOc)" d="M44.865,23.303c0.158,0.008,0.196-0.215,0.045-0.263c-2.764-0.882-4.122-1.532-5.522-3.413	l-0.001,0.001c-0.186-0.29-0.51-0.484-0.88-0.484c-0.578,0-1.046,0.468-1.046,1.046c0,0.237,0.082,0.452,0.214,0.628l0,0	c0.001,0.002,0.003,0.003,0.004,0.004c0.04,0.052,0.084,0.1,0.133,0.144C38.989,22.225,41.724,23.144,44.865,23.303z"/><path d="M20.183,6.349C20.121,6.341,20.062,6.333,20,6.325V14h-9l0.019-7.429	C10.355,6.756,9.674,7.004,9,7.326V14c0,1.103,0.897,2,2,2h9c1.103,0,2-0.897,2-2V6.239L20.183,6.349z" opacity=".05"/><path d="M20.5,6.33V14c0,0.276-0.224,0.5-0.5,0.5h-9c-0.276,0-0.5-0.224-0.5-0.5	V6.728c-0.332,0.107-0.666,0.232-1,0.373V14c0,0.827,0.673,1.5,1.5,1.5h9c0.827,0,1.5-0.673,1.5-1.5V6.27L20.5,6.33z" opacity=".07"/><linearGradient id="586DEAiTuLGxyRREUeNVOd" x1="10" x2="21" y1="10.5" y2="10.5" gradientUnits="userSpaceOnUse"><stop offset="0" stop-color="#7819a2"/><stop offset="1" stop-color="#771aa9"/></linearGradient><path fill="url(#586DEAiTuLGxyRREUeNVOd)" d="M10,6.902V14c0,0.552,0.448,1,1,1h9c0.552,0,1-0.448,1-1V6.3l-0.817,0.049	C18.837,6.172,17.663,6,16,6h-0.538C14.323,6.007,12.188,6.094,10,6.902z"/><radialGradient id="586DEAiTuLGxyRREUeNVOe" cx="36.744" cy="171.451" r="1.5" fx="36.368" fy="171.566" gradientTransform="matrix(1 0 0 -1 0 186)" gradientUnits="userSpaceOnUse"><stop offset=".351"/><stop offset="1" stop-opacity="0"/></radialGradient><circle cx="36.744" cy="14.549" r="1.5" fill="url(#586DEAiTuLGxyRREUeNVOe)" opacity=".15"/><path fill="#472b29" d="M36.639,13.478c-0.552,0-1,0.457-1,1.02c0,0.563,0.448,1.02,1,1.02c0.552,0,1-0.457,1-1.02	C37.639,13.934,37.191,13.478,36.639,13.478z"/><path d="M29.201,19.23l0.027-12.999c0.001-0.315-0.044-0.605-0.119-0.871	c-0.538,0.144-1.063,0.317-1.562,0.543L27.19,5.925c0.022,0.083,0.038,0.179,0.038,0.302l-0.027,12.999	c-0.001,0.402-0.193,0.761-0.529,0.985c-0.339,0.228-0.751,0.268-1.131,0.112c-3.574-1.471-6.194-4.566-7.188-8.492	c-0.577-2.278-0.391-4.209,0.239-5.68c-0.642-0.071-1.322-0.121-2.086-0.138c-0.588,1.742-0.709,3.873-0.091,6.31	c1.151,4.545,4.201,8.136,8.365,9.851c0.395,0.163,0.81,0.243,1.224,0.243c0.625,0,1.245-0.183,1.781-0.542	C28.669,21.283,29.199,20.294,29.201,19.23z" opacity=".05"/><path d="M28.728,6.23c0-0.274-0.035-0.514-0.1-0.738	c-0.325,0.104-0.641,0.225-0.951,0.36c0.026,0.115,0.051,0.231,0.051,0.376l-0.027,12.999c-0.001,0.572-0.275,1.082-0.751,1.4	c-0.482,0.321-1.065,0.379-1.6,0.159c-3.722-1.532-6.449-4.751-7.482-8.832c-0.589-2.322-0.418-4.31,0.205-5.856	c-0.333-0.031-0.68-0.055-1.044-0.072c-0.602,1.682-0.739,3.771-0.13,6.174c1.112,4.391,4.054,7.857,8.071,9.511	c0.333,0.137,0.684,0.205,1.033,0.205c0.527,0,1.051-0.154,1.503-0.457c0.747-0.499,1.194-1.333,1.195-2.229L28.728,6.23z" opacity=".07"/><linearGradient id="586DEAiTuLGxyRREUeNVOf" x1="18.094" x2="30.118" y1="11.89" y2="11.89" gradientTransform="rotate(-14.217 23.856 14.166)" gradientUnits="userSpaceOnUse"><stop offset="0" stop-color="#afb6bc"/><stop offset="1" stop-color="#9aa0a5"/></linearGradient><path fill="url(#586DEAiTuLGxyRREUeNVOf)" d="M21.597,2.178c-2.953,0.748-5.598,4.439-4.215,9.899c1.01,3.986,3.732,7.506,7.777,9.172	c1.445,0.595,3.038-0.458,3.041-2.02l0.027-12.999c0-0.222-0.024-0.446-0.093-0.657C27.287,2.968,24.435,1.459,21.597,2.178z"/></svg>