<svg xmlns="http://www.w3.org/2000/svg" xmlns:xlink="http://www.w3.org/1999/xlink" data-name="Слой 1" viewBox="0 0 48 48"><defs><linearGradient id="QmADI_A0qcr4d8vnROyTDa" x1="42.13" x2="38.652" y1="14.424" y2="10.945" data-name="Безымянный градиент 49" gradientUnits="userSpaceOnUse"><stop offset=".365" stop-color="#199ae0"/><stop offset=".699" stop-color="#1898de"/><stop offset=".819" stop-color="#1691d8"/><stop offset=".905" stop-color="#1186cc"/><stop offset=".974" stop-color="#0a75bc"/><stop offset="1" stop-color="#076cb3"/></linearGradient><linearGradient id="QmADI_A0qcr4d8vnROyTDb" x1="40" x2="26" y1="20" y2="20" data-name="Безымянный градиент 47" gradientUnits="userSpaceOnUse"><stop offset="0" stop-color="#32bdef"/><stop offset="1" stop-color="#1ea2e4"/></linearGradient><linearGradient id="QmADI_A0qcr4d8vnROyTDc" x1="36.13" x2="32.652" y1="14.424" y2="10.945" gradientTransform="matrix(-1 0 0 1 42 0)" xlink:href="#QmADI_A0qcr4d8vnROyTDa"/><linearGradient id="QmADI_A0qcr4d8vnROyTDd" x1="28" x2="14" y1="20" y2="20" gradientTransform="matrix(-1 0 0 1 36 0)" xlink:href="#QmADI_A0qcr4d8vnROyTDb"/></defs><path fill="#64717c" d="M36,42H12a6.00657,6.00657,0,0,1-6-6V23a1.001,1.001,0,0,0-1-1,2,2,0,0,1,0-4,5.00588,5.00588,0,0,1,5,5V36a2.00229,2.00229,0,0,0,2,2H36a2.00229,2.00229,0,0,0,2-2V23a5.00588,5.00588,0,0,1,5-5,2,2,0,0,1,0,4,1.001,1.001,0,0,0-1,1V36A6.00657,6.00657,0,0,1,36,42Z"/><path fill="url(#QmADI_A0qcr4d8vnROyTDa)" d="M40,8v7.29a.70989.70989,0,0,1-1.21.5l-2.37-2.38L34.01,11l-.42-.42L31.21,8.2A.701.701,0,0,1,31.7,7H39A1.003,1.003,0,0,1,40,8Z"/><path fill="url(#QmADI_A0qcr4d8vnROyTDb)" d="M39,7H31.7a.701.701,0,0,0-.49,1.2l2.35254,2.35248-6.96588,6.85992A2,2,0,0,0,26,18.8374V32a1,1,0,0,0,1,1h1.997a1,1,0,0,0,1-1.003l-.03589-12.03626a.99978.99978,0,0,1,.305-.722L40,9.83V8A1.003,1.003,0,0,0,39,7Z"/><path fill="url(#QmADI_A0qcr4d8vnROyTDc)" d="M8,8v7.29a.70989.70989,0,0,0,1.21.5l2.37-2.38L13.99,11l.42-.42L16.79,8.2A.701.701,0,0,0,16.3,7H9A1.003,1.003,0,0,0,8,8Z"/><path fill="url(#QmADI_A0qcr4d8vnROyTDd)" d="M9,7h7.3a.701.701,0,0,1,.49,1.2l-2.35254,2.35248,6.96588,6.85992A2,2,0,0,1,22,18.8374V32a1,1,0,0,1-1,1H19.003a1,1,0,0,1-1-1.003l.03589-12.03626a.99978.99978,0,0,0-.305-.722L8,9.83V8A1.003,1.003,0,0,1,9,7Z"/></svg>