<svg xmlns="http://www.w3.org/2000/svg" viewBox="0 0 48 48"><linearGradient id="X_MOwHzc1izq8wQKBxvwka" x1="10.437" x2="37.47" y1="8.982" y2="38.916" gradientUnits="userSpaceOnUse"><stop offset="0" stop-color="#2b92f3"/><stop offset="1" stop-color="#1166d2"/></linearGradient><path fill="url(#X_MOwHzc1izq8wQKBxvwka)" d="M44,24c0,11.044-8.956,20-20,20S4,35.044,4,24S12.956,4,24,4S44,12.956,44,24z"/><linearGradient id="X_MOwHzc1izq8wQKBxvwkb" x1="12.912" x2="35.33" y1="12.912" y2="35.33" gradientUnits="userSpaceOnUse"><stop offset="0" stop-color="#f6f6f6"/><stop offset=".228" stop-color="#edeeef"/><stop offset=".595" stop-color="#d6d9db"/><stop offset="1" stop-color="#b4bbc0"/></linearGradient><path fill="url(#X_MOwHzc1izq8wQKBxvwkb)" d="M24,8C15.146,8,8,15.146,8,24s7.146,16,16,16s16-7.146,16-16S32.854,8,24,8z"/><path fill="#0d3592" d="M44,24c0-11.044-8.956-20-20-20v40C35.044,44,44,35.044,44,24z"/><path fill="#1a62ca" d="M40,24c0-8.854-7.146-16-16-16v32C32.854,40,40,32.854,40,24z"/></svg>