<svg xmlns="http://www.w3.org/2000/svg" viewBox="0 0 48 48"><path fill="#0d62ab" d="M9.5,45L9.5,45C8.119,45,7,43.881,7,42.5V41h5v1.5C12,43.881,10.881,45,9.5,45z"/><path fill="#0d62ab" d="M35.5,45L35.5,45c-1.381,0-2.5-1.119-2.5-2.5V41h5v1.5C38,43.881,36.881,45,35.5,45z"/><linearGradient id="~oX0~1x1xdBtlkYNmUKiFa" x1="33" x2="33" y1="11.117" y2="14.759" gradientUnits="userSpaceOnUse"><stop offset="0" stop-color="#a1aab3"/><stop offset="1" stop-color="#8f979e"/></linearGradient><path fill="url(#~oX0~1x1xdBtlkYNmUKiFa)" d="M34,14h-2V8c0-0.552,0.448-1,1-1l0,0c0.552,0,1,0.448,1,1V14z"/><linearGradient id="~oX0~1x1xdBtlkYNmUKiFb" x1="9" x2="9" y1="14.181" y2="27.19" gradientUnits="userSpaceOnUse"><stop offset="0" stop-color="#a1aab3"/><stop offset="1" stop-color="#8f979e"/></linearGradient><path fill="url(#~oX0~1x1xdBtlkYNmUKiFb)" d="M12,30h-1V8c0-0.552-0.448-1-1-1S9,7.448,9,8v22H6c-0.552,0-1,0.448-1,1s0.448,1,1,1h6 c0.552,0,1-0.448,1-1S12.552,30,12,30z"/><linearGradient id="~oX0~1x1xdBtlkYNmUKiFc" x1="42.5" x2="42.5" y1="17.415" y2="28.72" gradientUnits="userSpaceOnUse"><stop offset="0" stop-color="#50e6ff"/><stop offset="1" stop-color="#1fa0e5"/></linearGradient><path fill="url(#~oX0~1x1xdBtlkYNmUKiFc)" d="M44,28h-5V17h5c1.105,0,2,0.895,2,2v7C46,27.105,45.105,28,44,28z"/><linearGradient id="~oX0~1x1xdBtlkYNmUKiFd" x1="22.481" x2="23.181" y1="3.819" y2="43.86" gradientUnits="userSpaceOnUse"><stop offset="0" stop-color="#1ea2e4"/><stop offset="1" stop-color="#007ad9"/></linearGradient><path fill="url(#~oX0~1x1xdBtlkYNmUKiFd)" d="M9,10c-2.209,0-4,1.791-4,4v0v7v2.17C5,24.181,5.819,25,6.83,25h6.34 c1.011,0,1.83-0.819,1.83-1.83v0c0-1.199,0.972-2.17,2.17-2.17h2.33c3.59,0,6.5,2.91,6.5,6.5v0c0,3.59-2.91,6.5-6.5,6.5h-12 C5.015,34,3,36.015,3,38.5v0C3,40.985,5.015,43,7.5,43H26h13.305C41.287,43,43,41,43,39V29c0-9-2-19-11-19H9z"/><linearGradient id="~oX0~1x1xdBtlkYNmUKiFe" x1="33.487" x2="33.534" y1="19.985" y2="28.985" gradientUnits="userSpaceOnUse"><stop offset="0" stop-color="#50e6ff"/><stop offset="1" stop-color="#1fa0e5"/></linearGradient><circle cx="33.5" cy="22.5" r="4.5" fill="url(#~oX0~1x1xdBtlkYNmUKiFe)"/><circle cx="33.5" cy="22.5" r="1.5" fill="#027dda"/><rect width="4" height="6" x="23" y="3" fill="#f95568"/><path fill="#a1aab3" d="M27,10h-4c-0.552,0-1-0.448-1-1v0c0-0.552,0.448-1,1-1h4c0.552,0,1,0.448,1,1v0 C28,9.552,27.552,10,27,10z"/><path fill="#a1aab3" d="M27,5h-4c-0.552,0-1-0.448-1-1v0c0-0.552,0.448-1,1-1h4c0.552,0,1,0.448,1,1v0 C28,4.552,27.552,5,27,5z"/><path fill="#50e6ff" d="M37,35h-6c-0.552,0-1-0.448-1-1l0,0c0-0.552,0.448-1,1-1h6c0.552,0,1,0.448,1,1l0,0 C38,34.552,37.552,35,37,35z"/><path fill="#0d62ab" d="M7,19v-3c0-0.552,0.448-1,1-1h0c0.552,0,1,0.448,1,1v3c0,0.552-0.448,1-1,1h0 C7.448,20,7,19.552,7,19z"/><path fill="#0d62ab" d="M11,19v-3c0-0.552,0.448-1,1-1h0c0.552,0,1,0.448,1,1v3c0,0.552-0.448,1-1,1h0 C11.448,20,11,19.552,11,19z"/></svg>