<svg xmlns="http://www.w3.org/2000/svg" viewBox="0 0 48 48"><linearGradient id="tF4CvVE7AN7SH1VEG4fZva" x1="24.01" x2="24.01" y1="232.132" y2="204.117" gradientTransform="matrix(1 0 0 -1 0 254)" gradientUnits="userSpaceOnUse"><stop offset="0" stop-color="#21ad64"/><stop offset="1" stop-color="#088242"/></linearGradient><path fill="url(#tF4CvVE7AN7SH1VEG4fZva)" d="M43.61,20.26L43.2,23l-0.06,0.4l-2.35,15.73C40.62,40.21,39.7,41,38.61,41H9.39	c-1.09,0-2.01-0.79-2.18-1.87L4.88,23.4L4.82,23l-0.41-2.74C4.31,19.59,4.82,19,5.5,19h37.02C43.2,19,43.71,19.59,43.61,20.26z"/><linearGradient id="tF4CvVE7AN7SH1VEG4fZvb" x1="23.572" x2="9.353" y1="7.797" y2="21.153" gradientUnits="userSpaceOnUse"><stop offset="0" stop-color="#575c61"/><stop offset=".155" stop-color="#737b80"/><stop offset=".507" stop-color="#70787d"/><stop offset=".75" stop-color="#686f74"/><stop offset=".961" stop-color="#5a6065"/><stop offset="1" stop-color="#575c61"/></linearGradient><path fill="url(#tF4CvVE7AN7SH1VEG4fZvb)" d="M25.4,5.6c-0.8-0.8-2-0.8-2.8,0l-13,13c-0.8,0.8-0.8,2,0,2.8C10,21.8,10.5,22,11,22	s1-0.2,1.4-0.6l13-13C26.2,7.6,26.2,6.4,25.4,5.6z"/><linearGradient id="tF4CvVE7AN7SH1VEG4fZvc" x1="22" x2="39.5" y1="13.75" y2="13.75" gradientUnits="userSpaceOnUse"><stop offset="0" stop-color="#737b80"/><stop offset="1" stop-color="#575c61"/></linearGradient><path fill="url(#tF4CvVE7AN7SH1VEG4fZvc)" d="M38.9,19.1L25.4,5.6c-0.8-0.8-2-0.8-2.8,0s-0.8,2,0,2.8l13.5,13.5c0.4,0.4,0.9,0.6,1.4,0.6	s1-0.2,1.4-0.6C39.7,21.1,39.7,19.9,38.9,19.1z"/><path fill="#0e0500" d="M36.1,21.9c0.4,0.4,0.9,0.6,1.4,0.6s1-0.2,1.4-0.6c0.8-0.8,0.8-2,0-2.8L37.8,18h-5.6	L36.1,21.9z" opacity=".05"/><path fill="#0e0500" d="M11,22c0.5,0,1-0.2,1.4-0.6l3.4-3.4h-5.6l-0.6,0.6c-0.8,0.8-0.8,2,0,2.8	C10,21.8,10.5,22,11,22z" opacity=".05"/><path d="M11,22c0.5,0,1-0.2,1.4-0.6l2.9-2.9H9.7l-0.1,0.1c-0.8,0.8-0.8,2,0,2.8C10,21.8,10.5,22,11,22z" opacity=".07"/><path d="M36.1,21.9c0.4,0.4,0.9,0.6,1.4,0.6s1-0.2,1.4-0.6c0.8-0.8,0.8-2,0-2.8l-0.6-0.6h-5.6L36.1,21.9z" opacity=".07"/><path fill="#33c481" d="M43.61,20.26c0.1-0.67-0.41-1.26-1.09-1.26H5.5c-0.68,0-1.19,0.59-1.09,1.26L4.82,23H43.2	L43.61,20.26z"/><path fill="#107c42" d="M20.5,39L20.5,39c-0.828,0-1.5-0.672-1.5-1.5v-11c0-0.828,0.672-1.5,1.5-1.5l0,0	c0.828,0,1.5,0.672,1.5,1.5v11C22,38.328,21.328,39,20.5,39z"/><path fill="#107c42" d="M13.5,39L13.5,39c-0.828,0-1.5-0.672-1.5-1.5v-11c0-0.828,0.672-1.5,1.5-1.5l0,0	c0.828,0,1.5,0.672,1.5,1.5v11C15,38.328,14.328,39,13.5,39z"/><path fill="#107c42" d="M27.5,39L27.5,39c-0.828,0-1.5-0.672-1.5-1.5v-11c0-0.828,0.672-1.5,1.5-1.5l0,0	c0.828,0,1.5,0.672,1.5,1.5v11C29,38.328,28.328,39,27.5,39z"/><path fill="#107c42" d="M34.5,39L34.5,39c-0.828,0-1.5-0.672-1.5-1.5v-11c0-0.828,0.672-1.5,1.5-1.5l0,0	c0.828,0,1.5,0.672,1.5,1.5v11C36,38.328,35.328,39,34.5,39z"/><path d="M41.815,32.272l-4.193-4.193c-0.29-0.289-0.674-0.448-1.079-0.448c-0.213,0-0.42,0.043-0.615,0.128	C35.354,28.005,35,28.545,35,29.167V41h3.61c1.09,0,2.01-0.79,2.18-1.87L41.815,32.272z" opacity=".05"/><path d="M41.723,32.887l-4.454-4.454c-0.196-0.195-0.454-0.303-0.727-0.303c-0.144,0-0.284,0.029-0.417,0.087	c-0.386,0.167-0.625,0.531-0.625,0.95V41h3.11c1.09,0,2.01-0.79,2.18-1.87L41.723,32.887z" opacity=".07"/><path fill="#35c1f1" d="M36,29.167v15.631c0,0.464,0.541,0.717,0.898,0.42l3.608-3.009l2.378,5.469	c0.118,0.272,0.434,0.396,0.706,0.278l0.951-0.413l-8.217-18.866C36.141,28.755,36,28.932,36,29.167z"/><path fill="#199be2" d="M45.731,46.44l-2.359-5.428l4.129-0.37c0.462-0.041,0.666-0.604,0.338-0.932L36.916,28.787	c-0.171-0.171-0.404-0.193-0.592-0.112l8.217,18.867l0.914-0.397C45.725,47.027,45.849,46.711,45.731,46.44z"/></svg>