<svg xmlns="http://www.w3.org/2000/svg" viewBox="0 0 48 48"><linearGradient id="mOFpcO7~ia_aRRLhlmFBpa" x1="5.804" x2="42.371" y1="36.574" y2="36.574" gradientUnits="userSpaceOnUse"><stop offset="0" stop-color="#912fbd"/><stop offset="1" stop-color="#9332bf"/></linearGradient><polygon fill="url(#mOFpcO7~ia_aRRLhlmFBpa)" points="16.287,42.077 5.804,39.98 6.196,38.02 15.713,39.923 23.735,32.903 31.929,34.952 41.629,31.071 42.371,32.929 32.071,37.048 24.265,35.097"/><polygon fill="#0078d4" points="16.277,22.086 6.783,19.976 7.217,18.024 15.723,19.914 23.9,12.758 31.79,17.689 41.231,6.36 42.769,7.64 32.21,20.311 24.1,15.242"/><linearGradient id="mOFpcO7~ia_aRRLhlmFBpb" x1="4" x2="8" y1="39" y2="39" gradientUnits="userSpaceOnUse"><stop offset="0" stop-color="#c965eb"/><stop offset="1" stop-color="#c767e5"/></linearGradient><circle cx="6" cy="39" r="2" fill="url(#mOFpcO7~ia_aRRLhlmFBpb)"/><linearGradient id="mOFpcO7~ia_aRRLhlmFBpc" x1="14" x2="18" y1="41" y2="41" gradientUnits="userSpaceOnUse"><stop offset="0" stop-color="#c965eb"/><stop offset="1" stop-color="#c767e5"/></linearGradient><circle cx="16" cy="41" r="2" fill="url(#mOFpcO7~ia_aRRLhlmFBpc)"/><linearGradient id="mOFpcO7~ia_aRRLhlmFBpd" x1="22" x2="26" y1="34" y2="34" gradientUnits="userSpaceOnUse"><stop offset="0" stop-color="#c965eb"/><stop offset="1" stop-color="#c767e5"/></linearGradient><circle cx="24" cy="34" r="2" fill="url(#mOFpcO7~ia_aRRLhlmFBpd)"/><linearGradient id="mOFpcO7~ia_aRRLhlmFBpe" x1="30" x2="34" y1="36" y2="36" gradientUnits="userSpaceOnUse"><stop offset="0" stop-color="#c965eb"/><stop offset="1" stop-color="#c767e5"/></linearGradient><circle cx="32" cy="36" r="2" fill="url(#mOFpcO7~ia_aRRLhlmFBpe)"/><linearGradient id="mOFpcO7~ia_aRRLhlmFBpf" x1="40" x2="44" y1="32" y2="32" gradientUnits="userSpaceOnUse"><stop offset="0" stop-color="#c965eb"/><stop offset="1" stop-color="#c767e5"/></linearGradient><circle cx="42" cy="32" r="2" fill="url(#mOFpcO7~ia_aRRLhlmFBpf)"/><circle cx="7" cy="19" r="2" fill="#50e6ff"/><circle cx="16" cy="21" r="2" fill="#50e6ff"/><circle cx="24" cy="14" r="2" fill="#50e6ff"/><circle cx="32" cy="19" r="2" fill="#50e6ff"/><circle cx="42" cy="7" r="2" fill="#50e6ff"/></svg>