<svg xmlns="http://www.w3.org/2000/svg" viewBox="0 0 48 48"><path fill="#e9ebed" d="M25,40v-8h-2v8H7c-0.552,0-1,0.448-1,1l0,0c0,0.552,0.448,1,1,1h34c0.552,0,1-0.448,1-1l0,0	c0-0.552-0.448-1-1-1H25z"/><path fill="#21a366" d="M29,39h-3v-2c0-0.552-0.448-1-1-1h-2c-0.552,0-1,0.448-1,1v2h-3c-0.552,0-1,0.448-1,1v2	c0,0.552,0.448,1,1,1h10c0.552,0,1-0.448,1-1v-2C30,39.448,29.552,39,29,39z"/><linearGradient id="aAfV1f2gFKQNnRO9tk_fla" x1="15.5" x2="15.5" y1="32.813" y2="35.002" gradientTransform="matrix(1 0 0 -1 0 47.89)" gradientUnits="userSpaceOnUse"><stop offset="0" stop-color="#eba600"/><stop offset="1" stop-color="#c28200"/></linearGradient><path fill="url(#aAfV1f2gFKQNnRO9tk_fla)" d="M24,9v6H8l-1-1.004V7.59C7,6.71,7.72,6,8.62,6h10.35c0.63,0,1.23,0.25,1.68,0.69l1.65,1.62	C22.75,8.75,23.35,9,23.98,9H24z"/><linearGradient id="aAfV1f2gFKQNnRO9tk_flb" x1="24" x2="24" y1="790.663" y2="814.767" gradientTransform="translate(0 -781.78)" gradientUnits="userSpaceOnUse"><stop offset="0" stop-color="#ffd869"/><stop offset="1" stop-color="#fec52b"/></linearGradient><path fill="url(#aAfV1f2gFKQNnRO9tk_flb)" d="M21.239,11.729l2.643-2.612C23.958,9.042,24.06,9,24.166,9H39c1.105,0,2,0.895,2,2v20	c0,1.105-0.895,2-2,2H9c-1.105,0-2-0.895-2-2V13.2c0-0.552,0.448-1,1-1h12.092C20.521,12.2,20.933,12.031,21.239,11.729z"/></svg>