<svg xmlns="http://www.w3.org/2000/svg" data-name="Слой 1" viewBox="0 0 48 48"><path fill="#4f5d66" d="M39.85,28.96v.01a1.87522,1.87522,0,0,1-.16.69L33.5,42.92A2.00179,2.00179,0,0,1,31.73,44H19.11a1.95369,1.95369,0,0,1-1.03-.29,1.98314,1.98314,0,0,1-.67-.65L8.58,28.92a1.93834,1.93834,0,0,1-.3-.98,1.83,1.83,0,0,1,.18-.92l.75-1.62,5.55-11.88a2.157,2.157,0,0,1,.29-.44995,1.77215,1.77215,0,0,1,.44-.38L27.51,4.96a1.99594,1.99594,0,0,1,2.62.4L33.75,9.7a1.422,1.422,0,0,1,.21.33,1.57574,1.57574,0,0,1,.16.35l5.66,17.93A1.609,1.609,0,0,1,39.85,28.96Z"/><path fill="#424c51" d="M39.85,28.96v.01a1.87522,1.87522,0,0,1-.16.69L33.5,42.92A2.00179,2.00179,0,0,1,31.73,44H19.11a1.95369,1.95369,0,0,1-1.03-.29L23,25Z"/><path fill="#81909b" d="M28.88,4.66,27,15,23,25,15.05,13.07a1.77215,1.77215,0,0,1,.44-.38L27.51,4.96A1.98788,1.98788,0,0,1,28.88,4.66Z"/><path fill="#64717c" d="M39.85,28.96,23,25l4-10,6.96-4.97a1.57574,1.57574,0,0,1,.16.35l5.66,17.93A1.609,1.609,0,0,1,39.85,28.96Z"/><path fill="#94a5af" d="M23,25,8.28,27.94a1.83,1.83,0,0,1,.18-.92l.75-1.62,5.55-11.88a2.157,2.157,0,0,1,.29-.44995Z"/></svg>