<svg xmlns="http://www.w3.org/2000/svg" data-name="Слой 1" viewBox="0 0 48 48"><polygon fill="#199be2" points="42 42 8 42 8 18.001 25 12 42 18.001 42 42"/><path fill="#e52030" d="M21.04973,3l.9,2.1,2.3.2-1.8,1.5.5,2.2-1.9-1.2-1.9,1.2.5-2.2-1.8-1.5,2.3-.2Zm-7.4,3.5-.8,1.9-2.1.2,1.6,1.3-.5,2.1,1.8-1.1,1.8,1.1-.5-2.1,1.6-1.3-2.1-.2Zm16.2-1.4,2.3.2-1.8,1.5.5,2.2-1.9-1.2-1.9,1.2.5-2.2-1.8-1.5,2.3-.2.9-2.1Zm5.7,3.3-2.1.2,1.6,1.3-.5,2.1,1.8-1.1,1.8,1.1-.5-2.1,1.6-1.3-2.1-.2-.8-1.9Z"/><path fill="#51bbf5" d="M41.99974,19.00146a.99613.99613,0,0,1-.333-.05761l-16.667-5.8833-16.667,5.8833a.99995.99995,0,1,1-.666-1.88574l17-6.001a.99913.99913,0,0,1,.666,0l17,6.001a1.00028,1.00028,0,0,1-.333,1.94335Z"/><rect width="34" height="12" x="8" y="30" fill="#0078d4"/><rect width="6" height="8.999" x="22" y="33" fill="#005094"/><rect width="6" height="6" x="22" y="21" fill="#005094"/><rect width="6" height="6" x="32" y="21" fill="#005094"/><rect width="6" height="6" x="32" y="33" fill="#005094"/><rect width="6" height="6" x="12" y="21" fill="#005094"/><path fill="#35c1f1" d="M17.6933,36.6713l-4.71821,4.19484A.58.58,0,0,1,12,40.51191v-9.005a.58.58,0,0,1,.97509-.35424l4.71821,4.19485A.86754.86754,0,0,1,17.6933,36.6713Z"/><path fill="#35c1f1" d="M12,33.96135v4H4a1.003,1.003,0,0,1-1-1v-2.01a1.003,1.003,0,0,1,1-1Z"/></svg>