<svg xmlns="http://www.w3.org/2000/svg" viewBox="0 0 48 48"><linearGradient id="9~ey4XlUhCrZVkWOga6vOa" x1="14.2" x2="21.623" y1="4.564" y2="45.318" gradientUnits="userSpaceOnUse"><stop offset="0" stop-color="#32bdef"/><stop offset="1" stop-color="#1ea2e4"/></linearGradient><path fill="url(#9~ey4XlUhCrZVkWOga6vOa)" d="M23.224,3.374C20.152,6.935,9,20.515,9,30c0,8.284,6.716,15,15,15V3.016	C23.715,3.016,23.43,3.135,23.224,3.374z"/><linearGradient id="9~ey4XlUhCrZVkWOga6vOb" x1="25.247" x2="32.67" y1="2.552" y2="43.306" gradientUnits="userSpaceOnUse"><stop offset="0" stop-color="#f44f5a"/><stop offset=".443" stop-color="#ee3d4a"/><stop offset="1" stop-color="#e52030"/></linearGradient><path fill="url(#9~ey4XlUhCrZVkWOga6vOb)" d="M39,30c0-9.485-11.152-23.065-14.224-26.626C24.57,3.135,24.285,3.016,24,3.016V45	C32.284,45,39,38.284,39,30z"/><path fill="#007ad9" d="M39,30c0-9.485-11.152-23.065-14.224-26.626C24.57,3.135,24.285,3.016,24,3.016V45	C32.284,45,39,38.284,39,30z"/></svg>