<svg xmlns="http://www.w3.org/2000/svg" viewBox="0 0 48 48"><linearGradient id="koO0opNl5CNQDGskObkxFa" x1="2" x2="19" y1="20.5" y2="20.5" gradientUnits="userSpaceOnUse"><stop offset="0" stop-color="#afb6bc"/><stop offset=".925" stop-color="#9aa0a5"/></linearGradient><path fill="url(#koO0opNl5CNQDGskObkxFa)" d="M2,8l13.526,7.843c0.941,0.579,1.6,1.521,1.822,2.603L19,27.75L2,33V8z"/><path fill="#cdd2d6" d="M2,10l11.526,7.093c0.941,0.579,1.6,1.521,1.822,2.603L17,27.75L2,32V10z"/><path fill="#cdd2d6" d="M13,26.5c-3.97,0-8.283,1.157-11,2.92v8.184C4,38.5,7.315,39,10.875,39	c6.42,0,11.625-3.562,11.625-7.289S21,26.5,13,26.5z"/><path fill="#199be2" d="M46,34.5c0-1.233,0-8.5-4-12.5c-0.328,0-0.672,0-1,0c0,3,0,6-2.5,8C41.782,31.969,46,34.5,46,34.5z"/><path fill="#35c1f1" d="M44.665,37.043c0.095-0.461,0.154-0.934,0.154-1.418c0-1.946-0.863-3.701-2.257-4.928	C44.546,31.496,46,32.902,46,34.5C46,35.445,45.492,36.322,44.665,37.043z"/><path fill="#35c1f1" d="M42.455,34.5c0,1.789-0.875,3.386-2.245,4.41c-0.425,0.056-0.863,0.09-1.3,0.09	C35.316,39,33,36.986,33,34.5c0-2.486,2.316-4.5,5.909-4.5c0.437,0,0.875,0.034,1.3,0.09C41.58,31.114,42.455,32.711,42.455,34.5z"/><path fill="#199be2" d="M44.818,35.625c0,0.484-0.059,0.956-0.154,1.418c-1.075,0.956-2.706,1.642-4.455,1.867	c1.371-1.024,2.245-2.621,2.245-4.41c0-1.789-0.875-3.386-2.245-4.41c0.827,0.113,1.631,0.315,2.352,0.608	C43.955,31.924,44.818,33.679,44.818,35.625z"/><linearGradient id="koO0opNl5CNQDGskObkxFb" x1="46.077" x2="34.65" y1="22.003" y2="22.003" gradientUnits="userSpaceOnUse"><stop offset="0" stop-color="#f44f5a"/><stop offset=".443" stop-color="#ee3d4a"/><stop offset="1" stop-color="#e52030"/></linearGradient><path fill="url(#koO0opNl5CNQDGskObkxFb)" d="M32.01,24l13.441-1.34c0.756-0.128,0.72-1.244-0.043-1.321l-9.404-1.334L32.01,24z"/><linearGradient id="koO0opNl5CNQDGskObkxFc" x1="35" x2="40" y1="33.503" y2="33.503" gradientUnits="userSpaceOnUse"><stop offset="0" stop-color="#ffcf54"/><stop offset=".261" stop-color="#fdcb4d"/><stop offset=".639" stop-color="#f7c13a"/><stop offset="1" stop-color="#f0b421"/></linearGradient><circle cx="37.5" cy="33.503" r="2.5" fill="url(#koO0opNl5CNQDGskObkxFc)"/><circle cx="32.01" cy="20.005" r="3.995" fill="#cdd2d6"/><linearGradient id="koO0opNl5CNQDGskObkxFd" x1="33" x2="33" y1="18.91" y2="21.571" gradientUnits="userSpaceOnUse"><stop offset="0" stop-color="#4c4c4c"/><stop offset="1" stop-color="#343434"/></linearGradient><circle cx="33" cy="20" r="1" fill="url(#koO0opNl5CNQDGskObkxFd)"/><path fill="#cdd2d6" d="M32,20h-4c0,5.757-1.122,8-4,8h-1c-1,0-3.425-0.817-4-0.982C19,27.768,19,34,19,34h4h1	c4.529,0,7.408-3.298,7.912-11.347C31.995,21.588,32,20.646,32,20z"/></svg>