<svg xmlns="http://www.w3.org/2000/svg" viewBox="0 0 48 48"><linearGradient id="qgiiYy2XZ6bKpMlN3jwqHa" x1="16.446" x2="32.586" y1="1.74" y2="46.086" gradientUnits="userSpaceOnUse"><stop offset="0" stop-color="#ffd869"/><stop offset="1" stop-color="#fec52b"/></linearGradient><path fill="url(#qgiiYy2XZ6bKpMlN3jwqHa)" d="M38,19H28v-4h6c0.552,0,1-0.448,1-1V8c0-0.552-0.448-1-1-1h-6V4c0-0.552-0.448-1-1-1h-6	c-0.552,0-1,0.448-1,1v3h-6c-0.552,0-1,0.448-1,1v6c0,0.552,0.448,1,1,1h6v4H10c-0.552,0-1,0.448-1,1v6c0,0.552,0.448,1,1,1h10v17	c0,0.552,0.448,1,1,1h6c0.552,0,1-0.448,1-1V27h10c0.552,0,1-0.448,1-1v-6C39,19.448,38.552,19,38,19z"/><path fill="#eba600" d="M22,42.5V25H11.5c-0.276,0-0.5-0.224-0.5-0.5v-3c0-0.276,0.224-0.5,0.5-0.5H22v-8h-6.5	c-0.276,0-0.5-0.224-0.5-0.5v-3C15,9.224,15.224,9,15.5,9H22V5.5C22,5.224,22.224,5,22.5,5h3C25.776,5,26,5.224,26,5.5V9h6.5	C32.776,9,33,9.224,33,9.5v3c0,0.276-0.224,0.5-0.5,0.5H26v8h10.5c0.276,0,0.5,0.224,0.5,0.5v3c0,0.276-0.224,0.5-0.5,0.5H26v17.5	c0,0.276-0.224,0.5-0.5,0.5h-3C22.224,43,22,42.776,22,42.5z"/></svg>