<svg xmlns="http://www.w3.org/2000/svg" viewBox="0 0 48 48"><linearGradient id="_5XuZ~SqVOd8SlPaeT2Hga" x1=".234" x2="45.28" y1="24.966" y2="24.966" gradientUnits="userSpaceOnUse"><stop offset="0" stop-color="#489fd8"/><stop offset="1" stop-color="#2e75bb"/></linearGradient><path fill="url(#_5XuZ~SqVOd8SlPaeT2Hga)" d="M39.826,22.392c2.015-0.173,2.974-0.326,3.581-1.45c0.63-1.166-0.914-3.852-4.851-5.942	c1.419-2.729,2.549-5.46,3.2-7.965c0.07-0.271,0.048-0.622-0.08-0.981c-1.007,2.924-2.43,5.726-4.145,8.434	c-2.144-0.976-4.896-1.75-8.257-2.091c0.011-0.01,0.025-0.013,0.035-0.024c-1.077-2.28-5.377-10.726-10.149-9.894	c-2.039,0.356-3.455,3.397-3.572,8.295c-0.727-1.055-2.427-3.098-3.992-1.824c-1.029,0.837-1.873,3.27-1.787,6.623	c-3.227,0.207-6.272,0.712-7.955,1.132c-1.405,0.351-1.62,0.997-1.62,0.997c2.551-0.703,6.251-0.938,9.654-0.809	c0.223,2.38,0.916,5.134,2.27,8.056c-0.257,0.381-6.844,10.248-3.323,13.753c1.858,1.849,4.962,1.154,8.327-0.698	c-0.453,1.058-0.969,2.9,0.529,3.666c1.463,0.748,3.812,1.024,7.356-1.434c0,0,0,0,0,0c1.421,2.455,2.73,5.296,6.144,7.274	c-2.234-2.681-3.788-5.428-5.146-8.017c1.436-1.136,3.048-2.692,4.859-4.813c0.828-0.97,1.534-1.931,2.138-2.878	c-0.221,0.372-0.642,1.044-1.124,1.607c11.273,0.457,13.047-2.449,13.284-3.588C45.371,29.01,45.783,25.912,39.826,22.392z M40.223,20.343c-0.109,1.149-1.266,1.148-2.087,1.129c-0.8-0.403-1.683-0.809-2.669-1.216c0.693-1.053,1.349-2.131,1.972-3.217	C39.337,18.28,40.297,19.569,40.223,20.343z M19.423,10.577c0.863-3.324,3.745-5.006,7.61,1.666	c-0.274-0.01-0.531-0.034-0.812-0.039c-3.087-0.051-5.499,0.698-7.333,1.852C18.983,12.653,19.185,11.492,19.423,10.577z M13.239,11.654c1.256-0.905,2.187,0.571,2.362,0.876c0.035,0.96,0.114,1.977,0.243,3.047c-1.266-0.089-2.478-0.13-3.628-0.12	C12.291,13.389,12.743,12.012,13.239,11.654z M11.995,34.011c-2.09-1.628,1.085-7.245,1.085-7.245l-0.008-0.015	c0.181,0.329,0.352,0.657,0.55,0.989c1.589,2.658,3.364,4.336,5.131,5.342C15.769,34.55,13.244,34.984,11.995,34.011z M19.415,38.989c-0.908-0.437-0.565-1.551-0.28-2.18c0.878-0.575,1.759-1.206,2.63-1.875c0.609,1.104,1.268,2.216,1.979,3.333	C21.636,39.386,20.144,39.34,19.415,38.989z M29.66,33.197c-2.287,2.641-4.275,4.195-5.899,5.061	c0.399-0.213,0.823-0.474,1.266-0.776c-0.518-1.062-0.984-2.097-1.423-3.116c2.293-0.026,4.181-0.891,5.067-1.695	c-1.29,0.586-3.194,1.087-5.25,0.939c2.288-1.899,4.412-3.943,6.048-5.678c1.243-1.319,2.485-2.806,3.683-4.392	c-0.584-0.549-1.164-0.911-1.616-1.137c-1.03,1.173-2.103,2.329-3.208,3.47c-2.763,2.853-5.815,5.165-8.572,6.682	c-1.8-0.967-3.519-2.666-4.856-5.51c-1.789-3.805-2.512-7.255-2.661-9.935c1.133,0.08,2.251,0.186,3.348,0.314	c-1.144,1.936-1.491,4.035-1.142,5.599c0,0,0.21-2.524,1.775-4.949c0.693,3.885,1.98,8.331,4.026,13.159	c0.606-0.255,0.989-0.383,1.628-0.734c-2.412-6.557-3.087-11.527-3.038-15.126c1.61-1.09,3.8-1.812,6.788-1.685	c4.599,0.196,8.188,1.343,10.663,2.674c-0.634,0.913-1.3,1.815-1.996,2.707c-0.915-1.487-2.259-2.757-4.007-3.729	c1.085,1.049,2.518,2.4,3.407,4.223c-1.484-0.55-3.144-1.098-5.027-1.638c-3.139-0.901-6.011-1.509-8.66-1.901	c-0.083,0.459-0.209,1.293-0.193,2.022c3.038,0.54,5.786,1.229,7.992,1.986c2.404,0.824,4.745,1.878,6.709,3.018	C34.525,25.676,33.301,28.981,29.66,33.197z M39.521,29.223c-1.003,2.276-4.893,2.438-6.367,2.415	c1.761-2.813,2.536-5.491,2.485-7.897C38.498,25.601,40.231,27.614,39.521,29.223z"/></svg>