<svg xmlns="http://www.w3.org/2000/svg" xmlns:xlink="http://www.w3.org/1999/xlink" data-name="Слой 1" viewBox="0 0 48 48"><defs><linearGradient id="cBk3KvpDM0~8euc5gghHDa" x1="37.5" x2="37.5" y1="-1.293" y2="44.685" data-name="Безымянный градиент 132" gradientUnits="userSpaceOnUse"><stop offset="0" stop-color="#ffcf54"/><stop offset=".261" stop-color="#fdcb4d"/><stop offset=".639" stop-color="#f7c13a"/><stop offset="1" stop-color="#f0b421"/></linearGradient><linearGradient id="cBk3KvpDM0~8euc5gghHDc" x1="24" x2="24" y1="-1.293" y2="44.685" xlink:href="#cBk3KvpDM0~8euc5gghHDa"/><linearGradient id="cBk3KvpDM0~8euc5gghHDd" x1="22.5" x2="22.5" y1="-1.293" y2="44.685" xlink:href="#cBk3KvpDM0~8euc5gghHDa"/><linearGradient id="cBk3KvpDM0~8euc5gghHDe" x1="20.828" x2="21.172" y1="41.841" y2="36.159" xlink:href="#cBk3KvpDM0~8euc5gghHDa"/><linearGradient id="cBk3KvpDM0~8euc5gghHDf" x1="20.5" x2="20.5" y1="-1.293" y2="44.685" xlink:href="#cBk3KvpDM0~8euc5gghHDa"/><linearGradient id="cBk3KvpDM0~8euc5gghHDg" x1="30" x2="30" y1="-1.293" y2="44.685" xlink:href="#cBk3KvpDM0~8euc5gghHDa"/><linearGradient id="cBk3KvpDM0~8euc5gghHDb" x1="9.506" x2="9.506" y1="31.234" y2="43.861" data-name="Безымянный градиент 133" gradientUnits="userSpaceOnUse"><stop offset="0" stop-color="#a34f27"/><stop offset=".587" stop-color="#8b3817"/><stop offset="1" stop-color="#802d10"/></linearGradient><linearGradient id="cBk3KvpDM0~8euc5gghHDh" x1="9.5" x2="9.5" y1="31.234" y2="43.861" xlink:href="#cBk3KvpDM0~8euc5gghHDb"/></defs><path fill="url(#cBk3KvpDM0~8euc5gghHDa)" d="M45.901,13.435l-.003-.009a.97736.97736,0,0,0-.546-1.355l-3.737-1.686S41.239,9,39.101,9H36V6a3.80956,3.80956,0,0,0-3,4l-4,2,7,10,2.692-4h3.846a1.46,1.46,0,0,0,1.198-.627l.003-.002.003-.006a1.479,1.479,0,0,0,.144-.262Z"/><path fill="#bd8215" d="M13,29c-4.57959,0-7-2.4209-7-7a1,1,0,0,1,2,0c0,3.458,1.542,5,5,5a1,1,0,0,1,0,2Z"/><path fill="url(#cBk3KvpDM0~8euc5gghHDc)" d="M32,12H26A14,14,0,0,0,12,26v0a6,6,0,0,0,6,6l15-5,3-5Z"/><path fill="url(#cBk3KvpDM0~8euc5gghHDd)" d="M18,32l1.99888,1.33259a4,4,0,0,0,5.89538-1.75253L27,29l-6.75,2.25Z"/><line x1="23.5" x2="18.5" y1="40.5" y2="37.5" fill="none" stroke="url(#cBk3KvpDM0~8euc5gghHDe)" stroke-linecap="round" stroke-linejoin="round" stroke-width="3"/><polygon fill="url(#cBk3KvpDM0~8euc5gghHDf)" points="17 37.5 18 32 24 33 20 39 17 37.5"/><path fill="url(#cBk3KvpDM0~8euc5gghHDg)" d="M27,39h5a1,1,0,0,1,1,1v1a1,1,0,0,1-1,1H29a2,2,0,0,1-2-2V39A0,0,0,0,1,27,39Z"/><polygon fill="url(#cBk3KvpDM0~8euc5gghHDg)" points="27 39 27 29 33 27 30 39 27 39"/><path fill="url(#cBk3KvpDM0~8euc5gghHDb)" d="M8.02815,35.91292a1.29568,1.29568,0,0,0,1.61218,1.06471A3.2356,3.2356,0,0,0,11,35.9937s-.90905-.35212-.99989-1.00089a.65549.65549,0,0,1,.27554-.7097A1.37748,1.37748,0,0,0,9.224,34.00975,1.69837,1.69837,0,0,0,8.02815,35.91292Z"/><rect width="7" height="3" x="6" y="36" fill="url(#cBk3KvpDM0~8euc5gghHDh)" rx="1.5"/><rect width="11" height="4" x="4" y="38" fill="url(#cBk3KvpDM0~8euc5gghHDh)" rx="2"/></svg>