<svg xmlns="http://www.w3.org/2000/svg" xmlns:xlink="http://www.w3.org/1999/xlink" data-name="Слой 1" viewBox="0 0 48 48"><defs><linearGradient id="w9~443rF3MB9N_7Zh~2~ma" x1="8.428" x2="11.543" y1="-389.169" y2="-392.694" data-name="Безымянный градиент 59" gradientTransform="rotate(180 24 -178)" gradientUnits="userSpaceOnUse"><stop offset="0" stop-color="#fafafb"/><stop offset=".309" stop-color="#e1e1e2"/><stop offset=".751" stop-color="#c3c3c3"/><stop offset="1" stop-color="#b8b8b8"/></linearGradient><linearGradient id="w9~443rF3MB9N_7Zh~2~mb" x1="11.529" x2="16.321" y1="-392.364" y2="-398.038" data-name="Безымянный градиент 44" gradientTransform="rotate(180 24 -178)" gradientUnits="userSpaceOnUse"><stop offset="0" stop-color="#999ea1"/><stop offset=".278" stop-color="#9ca1a4"/><stop offset=".468" stop-color="#a5a9ac"/><stop offset=".631" stop-color="#b4b8ba"/><stop offset=".78" stop-color="#caccce"/><stop offset=".917" stop-color="#e5e6e8"/><stop offset="1" stop-color="#fafafb"/></linearGradient><linearGradient id="w9~443rF3MB9N_7Zh~2~mc" x1="8.428" x2="11.543" y1="-389.169" y2="-392.694" gradientTransform="matrix(1 0 0 -1 0 -356)" xlink:href="#w9~443rF3MB9N_7Zh~2~ma"/><linearGradient id="w9~443rF3MB9N_7Zh~2~md" x1="11.529" x2="16.321" y1="-392.364" y2="-398.038" gradientTransform="matrix(1 0 0 -1 0 -356)" xlink:href="#w9~443rF3MB9N_7Zh~2~mb"/></defs><polygon fill="#944d10" points="34.2 32.79 32.79 34.2 24.71 26.12 22.59 24 22.23 23.64 21.88 23.29 8.29 9.71 9.71 8.29 23.29 21.88 23.64 22.23 24 22.59 25.41 24 25.77 24.36 34.2 32.79"/><path fill="url(#w9~443rF3MB9N_7Zh~2~ma)" d="M32.15658,32.158,38.99858,39h3.5a.50056.50056,0,0,0,.354-.854l-5.988-5.988a.50359.50359,0,0,0-.354-.146h-4A.50213.50213,0,0,0,32.15658,32.158Z"/><path fill="url(#w9~443rF3MB9N_7Zh~2~mb)" d="M38.99858,42.5V39l-6.842-6.842a.50217.50217,0,0,0-.146.354v4a.49936.49936,0,0,0,.146.354l5.988,5.988a.5038.5038,0,0,0,.354.146.48948.48948,0,0,0,.191-.038A.5.5,0,0,0,38.99858,42.5Z"/><path fill="#90a4ae" d="M5.14058,5.151l6.209,6.202,2.501-2.501a.49989.49989,0,0,0-.177-.821l-8-3a.49851.49851,0,0,0-.529.115Z"/><path fill="#64717c" d="M8.85258,13.853l2.499-2.499-6.209-6.202a.4978.4978,0,0,0-.111.524l3,8a.49705.49705,0,0,0,.362.313.535.535,0,0,0,.105.011A.50135.50135,0,0,0,8.85258,13.853Z"/><rect width="34.64" height="2" x="9.432" y="20.247" fill="#944d10" transform="rotate(-45.001 26.752 21.247)"/><path fill="url(#w9~443rF3MB9N_7Zh~2~mc)" d="M15.488,32.012h-4a.50359.50359,0,0,0-.354.146L5.146,38.146A.50056.50056,0,0,0,5.5,39H9l6.842-6.842A.50217.50217,0,0,0,15.488,32.012Z"/><path fill="url(#w9~443rF3MB9N_7Zh~2~md)" d="M9.309,42.962A.48948.48948,0,0,0,9.5,43a.50381.50381,0,0,0,.354-.146l5.988-5.988a.49936.49936,0,0,0,.146-.354v-4a.50217.50217,0,0,0-.146-.354L9,39v3.5A.5.5,0,0,0,9.309,42.962Z"/><path fill="#90a4ae" d="M42.854,5.146a.49852.49852,0,0,0-.529-.115l-8,3a.49988.49988,0,0,0-.177.821l2.501,2.501,6.209-6.202Z"/><path fill="#64717c" d="M39.5,14a.535.535,0,0,0,.105-.011.49707.49707,0,0,0,.362-.313l3-8a.4978.4978,0,0,0-.111-.524l-6.209,6.202,2.499,2.499A.50133.50133,0,0,0,39.5,14Z"/><path d="M25.77,24.36,25.41,24,24,25.41l.71.71,1.41-1.41Zm-2.13-2.13-.35-.35-1.41,1.41.35.35.36.36L24,22.59Z" opacity=".05"/><path d="M25.41,24,24,25.41l.36.36,1.41-1.41Zm-1.77-1.77-1.41,1.41.36.36L24,22.59Z" opacity=".07"/></svg>