<svg xmlns="http://www.w3.org/2000/svg" viewBox="0 0 48 48"><path fill="#fee119" d="M34,42H14c-4.411,0-8-3.589-8-8V14c0-4.411,3.589-8,8-8h20c4.411,0,8,3.589,8,8v20 C42,38.411,38.411,42,34,42z"/><path d="M20.087,26.486c-1.217,0-2.206-1.115-2.206-2.486s0.989-2.486,2.206-2.486s2.207,1.115,2.207,2.486 S21.304,26.486,20.087,26.486z M20.087,22.014c-0.94,0-1.706,0.891-1.706,1.986s0.766,1.986,1.706,1.986 c0.941,0,1.707-0.891,1.707-1.986S21.028,22.014,20.087,22.014z M35.087,26.486c-1.217,0-2.206-1.115-2.206-2.486 s0.989-2.486,2.206-2.486s2.207,1.115,2.207,2.486S36.304,26.486,35.087,26.486z M35.087,22.014c-0.94,0-1.706,0.891-1.706,1.986 s0.766,1.986,1.706,1.986c0.941,0,1.707-0.891,1.707-1.986S36.028,22.014,35.087,22.014z M20.087,28.3 c-2.296,0-4.163-1.929-4.163-4.3s1.867-4.3,4.163-4.3s4.163,1.929,4.163,4.3S22.383,28.3,20.087,28.3z M20.087,20.2 c-2.02,0-3.663,1.705-3.663,3.8s1.644,3.8,3.663,3.8s3.663-1.705,3.663-3.8S22.106,20.2,20.087,20.2z M35.087,28.3 c-2.296,0-4.163-1.929-4.163-4.3s1.867-4.3,4.163-4.3s4.163,1.929,4.163,4.3S37.383,28.3,35.087,28.3z M35.087,20.2 c-2.02,0-3.663,1.705-3.663,3.8s1.644,3.8,3.663,3.8s3.663-1.705,3.663-3.8S37.106,20.2,35.087,20.2z M30.521,28.163h-5.217 c-0.138,0-0.25-0.112-0.25-0.25v-7.826c0-0.138,0.112-0.25,0.25-0.25h1.956c0.138,0,0.25,0.112,0.25,0.25v5.62h3.011 c0.138,0,0.25,0.112,0.25,0.25v1.957C30.771,28.051,30.659,28.163,30.521,28.163z M25.555,27.663h4.717v-1.457h-3.011 c-0.138,0-0.25-0.112-0.25-0.25v-5.62h-1.456V27.663z M13.565,28.163h-1.957c-0.138,0-0.25-0.112-0.25-0.25v-3.194l-2.575-4.508 c-0.045-0.077-0.044-0.172,0.001-0.25C8.828,19.884,8.911,19.837,9,19.837h1.956c0.086,0,0.166,0.044,0.212,0.118l1.419,2.27 l1.419-2.27c0.046-0.073,0.126-0.118,0.212-0.118h1.956c0.089,0,0.172,0.047,0.216,0.125c0.045,0.077,0.046,0.172,0.001,0.25 l-2.575,4.508v3.194C13.815,28.051,13.703,28.163,13.565,28.163z M11.858,27.663h1.457v-3.011c0-0.043,0.012-0.086,0.033-0.124 l2.395-4.191h-1.387l-1.558,2.491c-0.092,0.146-0.332,0.146-0.424,0l-1.558-2.491H9.431l2.395,4.191 c0.021,0.038,0.033,0.081,0.033,0.124V27.663z" opacity=".07"/><path d="M20.087,26.736c-1.354,0-2.456-1.227-2.456-2.736s1.102-2.736,2.456-2.736s2.457,1.227,2.457,2.736 S21.441,26.736,20.087,26.736z M20.087,22.264c-0.803,0-1.456,0.779-1.456,1.736s0.653,1.736,1.456,1.736 c0.804,0,1.457-0.779,1.457-1.736S20.891,22.264,20.087,22.264z M35.087,26.736c-1.354,0-2.456-1.227-2.456-2.736 s1.102-2.736,2.456-2.736s2.457,1.227,2.457,2.736S36.441,26.736,35.087,26.736z M35.087,22.264c-0.803,0-1.456,0.779-1.456,1.736 s0.653,1.736,1.456,1.736c0.804,0,1.457-0.779,1.457-1.736S35.891,22.264,35.087,22.264z M20.087,28.55 c-2.434,0-4.413-2.041-4.413-4.55s1.979-4.55,4.413-4.55S24.5,21.491,24.5,24S22.521,28.55,20.087,28.55z M20.087,20.45 c-1.882,0-3.413,1.592-3.413,3.55s1.531,3.55,3.413,3.55S23.5,25.958,23.5,24S21.969,20.45,20.087,20.45z M35.087,28.55 c-2.434,0-4.413-2.041-4.413-4.55s1.979-4.55,4.413-4.55S39.5,21.491,39.5,24S37.521,28.55,35.087,28.55z M35.087,20.45 c-1.882,0-3.413,1.592-3.413,3.55s1.531,3.55,3.413,3.55S38.5,25.958,38.5,24S36.969,20.45,35.087,20.45z M30.521,28.413h-5.217 c-0.276,0-0.5-0.224-0.5-0.5v-7.826c0-0.276,0.224-0.5,0.5-0.5h1.956c0.276,0,0.5,0.224,0.5,0.5v5.37h2.761 c0.276,0,0.5,0.224,0.5,0.5v1.957C31.021,28.189,30.798,28.413,30.521,28.413z M25.805,27.413h4.217v-0.957h-2.761 c-0.276,0-0.5-0.224-0.5-0.5v-5.37h-0.956V27.413z M13.565,28.413h-1.957c-0.276,0-0.5-0.224-0.5-0.5v-3.128l-2.543-4.45 c-0.088-0.155-0.087-0.345,0.002-0.499c0.09-0.154,0.254-0.249,0.433-0.249h1.956c0.173,0,0.333,0.089,0.424,0.235l1.207,1.931 l1.207-1.931c0.091-0.146,0.251-0.235,0.424-0.235h1.956c0.179,0,0.343,0.095,0.433,0.249c0.089,0.154,0.09,0.344,0.002,0.499 l-2.543,4.45v3.128C14.065,28.189,13.842,28.413,13.565,28.413z M12.108,27.413h0.957v-2.761c0-0.087,0.022-0.172,0.065-0.248 l2.182-3.817h-0.817l-1.484,2.374c-0.182,0.292-0.666,0.292-0.848,0l-1.484-2.374H9.861l2.182,3.817 c0.043,0.076,0.065,0.161,0.065,0.248V27.413z" opacity=".05"/><linearGradient id="gCQcFEBZ3SifQSr6kyZt~a" x1="21.933" x2="30.59" y1="13.877" y2="46.943" gradientUnits="userSpaceOnUse"><stop offset="0" stop-color="#4c4c4c"/><stop offset="1" stop-color="#343434"/></linearGradient><path fill="url(#gCQcFEBZ3SifQSr6kyZt~a)" d="M24,24c0,2.237-1.752,4.05-3.913,4.05s-3.913-1.813-3.913-4.05s1.752-4.05,3.913-4.05 S24,21.763,24,24z M20.087,21.764c-1.081,0-1.957,1.001-1.957,2.236s0.876,2.236,1.957,2.236s1.957-1.001,1.957-2.236 S21.168,21.764,20.087,21.764z M39,24c0,2.237-1.752,4.05-3.913,4.05s-3.913-1.813-3.913-4.05s1.752-4.05,3.913-4.05 S39,21.763,39,24z M35.087,21.764c-1.081,0-1.957,1.001-1.957,2.236s0.876,2.236,1.957,2.236c1.081,0,1.957-1.001,1.957-2.236 S36.168,21.764,35.087,21.764z M27.261,25.957v-5.87h-1.957v7.826h5.217v-1.957H27.261z M14.217,20.087l-1.63,2.609l-1.63-2.609H9 l2.609,4.565v3.261h1.957v-3.261l2.609-4.565H14.217z"/></svg>