<svg xmlns="http://www.w3.org/2000/svg" viewBox="0 0 48 48"><path fill="#199be2" d="M43.41,19.347C45.007,15.75,46,10.997,46,9c0-1.301-1.173-3-3.357-3C36.958,6,24,14.452,24,22.714	C24,23.475,24,26,24,26v7c0,4.971,4.029,9,9,9h3c2.761,0,5-2.239,5-5v-3c0-4.418-3.582-8-8-8c1.185,0,2.251,0,3,0	C39.664,26,41.815,22.937,43.41,19.347z"/><path fill="#35c1f1" d="M5.357,6C3.173,6,2,7.699,2,9c0,1.997,0.993,6.75,2.59,10.347C6.185,22.937,8.336,26,12,26	c0.749,0,1.815,0,3,0c-4.418,0-8,3.582-8,8v3c0,2.761,2.239,5,5,5h3c4.971,0,9-4.029,9-9v-7c0,0,0-2.525,0-3.286	C24,14.452,11.042,6,5.357,6z"/></svg>