<svg xmlns="http://www.w3.org/2000/svg" viewBox="0 0 48 48"><linearGradient id="IwNBM5kZoBb3MPrP4BcTJa" x1="20.375" x2="28.748" y1="-573.249" y2="-603.135" gradientTransform="matrix(1 0 0 -1 0 -562)" gradientUnits="userSpaceOnUse"><stop offset="0" stop-color="#1d59b3"/><stop offset="1" stop-color="#195bbc"/></linearGradient><path fill="url(#IwNBM5kZoBb3MPrP4BcTJa)" d="M43.125,9.188H4.875C3.287,9.188,2,10.475,2,12.063v24.25c0,1.588,1.287,2.875,2.875,2.875	h38.25c1.588,0,2.875-1.287,2.875-2.875v-24.25C46,10.475,44.713,9.188,43.125,9.188z"/><path d="M43.439,27.292C43.438,27.291,43.438,27.291,43.439,27.292l-2.486-8.259	C40.767,18.415,40.209,18,39.564,18h-2.942c-0.636,0-1.208,0.426-1.389,1.036l-1.26,4.238c0.037-0.387,0.039-0.737,0.039-0.992	c0-1.281,0-4.282-4.105-4.282h-4.058c-0.799,0-1.45,0.65-1.45,1.449v0.208c-0.049-0.089-0.111-0.173-0.188-0.245	c-1.08-1.022-2.498-1.586-3.995-1.586c-1.167,0-2.293,0.343-3.254,0.991c-0.737,0.496-1.34,1.149-1.772,1.911H14.87	c-0.389,0-0.743,0.226-0.907,0.578L13.3,22.73c-0.019,0.04-0.027,0.083-0.04,0.125c-0.102-0.147-0.21-0.282-0.33-0.396	c0.099-0.064,0.189-0.141,0.271-0.229c0.275-0.299,0.414-0.701,0.38-1.106C13.417,19.146,12.646,18,9.191,18	c-2.108,0-4.732,0-4.758,3.634c-0.008,1.006,0.406,1.928,1.083,2.598C5.263,24.3,5.03,24.438,4.847,24.63	c-0.275,0.288-0.422,0.684-0.402,1.085c0.137,2.739,1.826,3.275,4.696,3.275l0.294,0.004C9.562,28.997,9.702,29,9.852,29	c0.881,0,2.087-0.103,2.971-0.968c0.461-0.452,0.755-1.06,0.906-1.792c0.145,0.079,0.309,0.122,0.479,0.122h1.025	c1.017,1.714,2.906,2.789,4.984,2.789c1.159,0,2.276-0.338,3.232-0.978c0.275-0.184,0.441-0.49,0.444-0.821l0.018-1.788	c0.004-0.425-0.261-0.806-0.66-0.95c-0.241-0.087-0.498-0.076-0.723,0.017l0.142-0.31c0.06-0.131,0.09-0.27,0.091-0.409	c0.107-0.091,0.195-0.205,0.257-0.338l0.663-1.424c0.036-0.077,0.061-0.157,0.076-0.239c0.023-0.035,0.045-0.072,0.064-0.11	l0.579-1.177v6.916c0,0.8,0.65,1.45,1.45,1.45h1.52c0.799,0,1.449-0.65,1.449-1.45v-0.998h1.697c1.569,0,2.43-0.624,2.907-1.416	l-0.651,2.19c-0.117,0.392-0.041,0.821,0.204,1.149s0.635,0.524,1.044,0.524h1.698c0.65,0,1.225-0.438,1.397-1.063l0.136-0.49h1.724	l0.151,0.512c0.18,0.613,0.752,1.042,1.391,1.042h1.66c0.415,0,0.81-0.198,1.058-0.531C43.481,28.126,43.558,27.689,43.439,27.292z M28.818,22.495v-0.528h0.528c0.071,0,0.129,0.001,0.177,0.004c0.006,0.077,0.01,0.183,0.01,0.328c0,0.076-0.001,0.141-0.003,0.194	c-0.056,0.001-0.123,0.002-0.204,0.002H28.818z" opacity=".05"/><path d="M11.261,22.385h0.875c0.264,0,0.518-0.111,0.697-0.306c0.181-0.196,0.271-0.46,0.25-0.726	c-0.15-1.807-0.771-2.666-3.892-2.666c-2.178,0-4.235,0-4.258,3.138c-0.011,1.419,0.954,2.645,2.295,3.043c-0.001,0-0.002,0-0.003,0	H5.893c-0.261,0-0.504,0.104-0.684,0.294c-0.181,0.19-0.278,0.45-0.265,0.716c0.106,2.119,1.126,2.8,4.197,2.8l0.305,0.005	c0.129,0.002,0.269,0.005,0.415,0.005c0.82,0,1.862-0.092,2.611-0.825c0.582-0.569,0.876-1.432,0.876-2.562	C13.349,23.28,12.452,22.622,11.261,22.385z M8.275,22.087c0-0.001-0.028-0.047-0.028-0.222c0-0.343,0-0.379,0.921-0.379	c0.561,0,0.664,0.079,0.688,0.131c0.068,0.292,0.251,0.526,0.491,0.657c-0.097-0.007-0.195-0.013-0.293-0.017l-0.443-0.021	C9.006,22.211,8.38,22.182,8.275,22.087z M10.045,25.213c0.003,0.007,0.017,0.051,0.022,0.305c0.008,0.11,0.007,0.173-0.026,0.209	c-0.023,0.025-0.17,0.153-0.718,0.153L9.04,25.882c-0.835,0.015-0.848-0.032-0.883-0.227c-0.058-0.312-0.259-0.565-0.527-0.694	c0.099,0.017,0.199,0.028,0.301,0.036l0.359,0.025C9.168,25.085,9.927,25.138,10.045,25.213z" opacity=".07"/><path d="M29.907,18.688h-4.058c-0.523,0-0.95,0.426-0.95,0.949v8.091c0,0.524,0.426,0.95,0.95,0.95h1.52	c0.523,0,0.949-0.426,0.949-0.95V26.23h2.197c2.641,0,2.997-1.9,2.997-3.76C33.512,20.506,33.075,18.688,29.907,18.688z M30.034,22.487c0,0.496-0.046,0.615-0.06,0.637c-0.041,0.027-0.186,0.06-0.647,0.06h-1.009v-1.528h1.028	C30.034,21.655,30.034,21.655,30.034,22.487z" opacity=".07"/><path d="M42.96,27.624C42.96,27.624,42.96,27.624,42.96,27.624l-2.486-8.259	c-0.122-0.405-0.487-0.677-0.909-0.677h-2.942c-0.417,0-0.791,0.279-0.91,0.679l-2.461,8.28c-0.072,0.241-0.025,0.506,0.125,0.708	c0.153,0.206,0.387,0.323,0.643,0.323h1.698c0.426,0,0.802-0.287,0.915-0.697l0.237-0.856h2.479l0.257,0.871	c0.118,0.402,0.493,0.683,0.911,0.683h1.66c0.261,0,0.5-0.12,0.657-0.33S43.035,27.875,42.96,27.624z M38.58,24.374h-0.914	l0.45-1.584L38.58,24.374z" opacity=".07"/><path d="M20.217,18.514c-1.067,0-2.096,0.313-2.975,0.905c-0.752,0.507-1.353,1.193-1.75,1.997H14.87	c-0.194,0-0.371,0.112-0.453,0.289l-0.663,1.424c-0.072,0.155-0.06,0.336,0.032,0.479c0.092,0.145,0.25,0.231,0.421,0.231h0.235	c-0.009,0.015-0.017,0.029-0.023,0.045l-0.667,1.457c-0.071,0.155-0.058,0.335,0.034,0.479c0.092,0.143,0.25,0.229,0.421,0.229	h1.319c0.888,1.705,2.693,2.789,4.69,2.789c1.06,0,2.081-0.309,2.955-0.893c0.137-0.092,0.221-0.246,0.222-0.411l0.018-1.788	c0.002-0.212-0.13-0.403-0.33-0.476c-0.198-0.069-0.423-0.01-0.558,0.155c-0.008,0.01-0.843,1.017-2.146,1.017	c-0.53,0-1.027-0.139-1.452-0.395h2.167c0.195,0,0.373-0.114,0.455-0.292l0.668-1.457c0.069-0.15,0.059-0.325-0.026-0.466	c0.163-0.026,0.304-0.131,0.375-0.283l0.663-1.424c0.033-0.071,0.049-0.147,0.047-0.224c0.04-0.039,0.073-0.085,0.098-0.136	l0.601-1.222c0.097-0.196,0.054-0.433-0.105-0.584C22.882,19.029,21.585,18.514,20.217,18.514z M18.687,21.417	c0.967-0.751,2.433-0.75,3.395,0H18.687z" opacity=".07"/><path fill="#fff" d="M7.747,21.676c0-0.793,0.402-0.878,1.421-0.878c0.799,0,1.086,0.141,1.174,0.517	c0.051,0.216,0.222,0.382,0.443,0.382h1.35c0.263,0,0.47-0.228,0.448-0.49C12.472,19.856,12.269,19,9.191,19	c-2.466,0-3.74,0.162-3.758,2.642c-0.01,1.41,1.127,2.567,2.534,2.668c2.31,0.166,2.597,0.142,2.597,0.921	c0,0.178,0.2,0.962-1.24,0.962c-0.948,0-1.525,0.087-1.659-0.635c-0.04-0.214-0.222-0.377-0.44-0.377H5.893	c-0.261,0-0.463,0.224-0.449,0.485C5.53,27.41,6.191,27.99,9.141,27.99c1.197,0,3.708,0.337,3.708-2.878	c0-2.146-1.043-2.458-2.819-2.544C8.264,22.482,7.747,22.544,7.747,21.676z"/><path fill="#fff" d="M29.907,19h-4.058c-0.248,0-0.449,0.201-0.449,0.449v8.091c0,0.248,0.201,0.449,0.449,0.449h1.52	c0.248,0,0.449-0.201,0.449-0.449v-1.998c0,0,2.467,0,2.697,0c1.954,0,2.497-1.089,2.497-3.26C33.012,20.366,32.635,19,29.907,19z M29.327,23.495h-1.509v-2.528h1.528c0.964,0,1.187,0.214,1.187,1.331C30.534,23.378,30.351,23.495,29.327,23.495z"/><path fill="#fff" d="M42.481,27.579l-2.486-8.259c-0.057-0.19-0.232-0.32-0.43-0.32h-2.942	c-0.199,0-0.374,0.131-0.431,0.321l-2.462,8.28c-0.058,0.194,0.088,0.388,0.29,0.388h1.698c0.202,0,0.379-0.135,0.433-0.33	l0.339-1.224h3.233l0.363,1.231c0.056,0.191,0.232,0.323,0.431,0.323h1.66C42.389,27.99,42.542,27.784,42.481,27.579z M37.005,24.685l1.105-3.887l1.138,3.887H37.005z"/><linearGradient id="IwNBM5kZoBb3MPrP4BcTJb" x1="14.207" x2="23.524" y1="23.489" y2="23.489" gradientUnits="userSpaceOnUse"><stop offset="0" stop-color="#fede00"/><stop offset="1" stop-color="#ffd000"/></linearGradient><path fill="url(#IwNBM5kZoBb3MPrP4BcTJb)" d="M20.217,18.826c-0.968,0-1.9,0.284-2.695,0.82c-0.768,0.518-1.358,1.239-1.709,2.082H14.87	l-0.663,1.424h1.266c-0.008,0.12-0.015,0.233-0.015,0.336c0,0.136,0.008,0.276,0.021,0.416h-0.605l-0.667,1.458h1.634	c0.754,1.714,2.469,2.788,4.376,2.788c0.96,0,1.885-0.279,2.677-0.808l0.018-1.788c0,0-0.978,1.201-2.533,1.201	c-1.079,0-2.079-0.503-2.695-1.394h3.41l0.668-1.458h-4.632c-0.021-0.151-0.034-0.304-0.034-0.455c0-0.098,0.006-0.198,0.015-0.297	h5.001l0.663-1.424h-5.194c0.595-0.979,1.658-1.586,2.798-1.586c0.99,0,1.917,0.444,2.545,1.217l0.6-1.222	C22.631,19.292,21.457,18.826,20.217,18.826z"/></svg>