<svg xmlns="http://www.w3.org/2000/svg" viewBox="0 0 48 48"><linearGradient id="icel9jWHrmje6D6hzZW4Qa" x1="3.966" x2="17.33" y1="9.725" y2="46.442" gradientUnits="userSpaceOnUse"><stop offset="0" stop-color="#a1aab3"/><stop offset="1" stop-color="#8f979e"/></linearGradient><path fill="url(#icel9jWHrmje6D6hzZW4Qa)" d="M13.5,10.555V10h-3C5.806,10,2,13.806,2,18.5V38c0,1.105,0.895,2,2,2h6.5h3H17	c1.105,0,2-0.895,2-2V18.5C19,14.863,16.712,11.769,13.5,10.555z"/><linearGradient id="icel9jWHrmje6D6hzZW4Qb" x1="29.428" x2="42.852" y1="5.497" y2="42.379" gradientUnits="userSpaceOnUse"><stop offset="0" stop-color="#a1aab3"/><stop offset="1" stop-color="#8f979e"/></linearGradient><path fill="url(#icel9jWHrmje6D6hzZW4Qb)" d="M37.5,10h-3v0.555C31.288,11.769,29,14.863,29,18.5V38c0,1.105,0.895,2,2,2h3.5h3H44	c1.105,0,2-0.895,2-2V18.5C46,13.806,42.194,10,37.5,10z"/><linearGradient id="icel9jWHrmje6D6hzZW4Qc" x1="26.933" x2="40.646" y1="6.885" y2="44.56" gradientUnits="userSpaceOnUse"><stop offset="0" stop-color="#dfe9f2"/><stop offset=".391" stop-color="#d6e0e9"/><stop offset="1" stop-color="#bfc8d1"/></linearGradient><path fill="url(#icel9jWHrmje6D6hzZW4Qc)" d="M41,40H28c-1.105,0-2-0.895-2-2V18.5c0-4.694,3.806-8.5,8.5-8.5h0c4.694,0,8.5,3.806,8.5,8.5	V38C43,39.105,42.105,40,41,40z"/><linearGradient id="icel9jWHrmje6D6hzZW4Qd" x1="28.177" x2="38.419" y1="11.629" y2="39.767" gradientUnits="userSpaceOnUse"><stop offset="0" stop-color="#a1aab3"/><stop offset="1" stop-color="#8f979e"/></linearGradient><path fill="url(#icel9jWHrmje6D6hzZW4Qd)" d="M29,33h11c0.552,0,1,0.448,1,1l0,0c0,0.552-0.448,1-1,1H29c-0.552,0-1-0.448-1-1l0,0	C28,33.448,28.448,33,29,33z M31,30h7c0.552,0,1-0.448,1-1v0c0-0.552-0.448-1-1-1h-7c-0.552,0-1,0.448-1,1v0	C30,29.552,30.448,30,31,30z M29,25h11c0.552,0,1-0.448,1-1v0c0-0.552-0.448-1-1-1H29c-0.552,0-1,0.448-1,1v0	C28,24.552,28.448,25,29,25z M31,20h7c0.552,0,1-0.448,1-1v0c0-0.552-0.448-1-1-1h-7c-0.552,0-1,0.448-1,1v0	C30,19.552,30.448,20,31,20z"/><linearGradient id="icel9jWHrmje6D6hzZW4Qe" x1="7.143" x2="20.856" y1="10.209" y2="47.884" gradientUnits="userSpaceOnUse"><stop offset="0" stop-color="#dfe9f2"/><stop offset=".391" stop-color="#d6e0e9"/><stop offset="1" stop-color="#bfc8d1"/></linearGradient><path fill="url(#icel9jWHrmje6D6hzZW4Qe)" d="M7,40h13c1.105,0,2-0.895,2-2V18.5c0-4.694-3.806-8.5-8.5-8.5h0C8.806,10,5,13.806,5,18.5V38	C5,39.105,5.895,40,7,40z"/><linearGradient id="icel9jWHrmje6D6hzZW4Qf" x1="8.862" x2="19.104" y1="16.258" y2="44.396" gradientUnits="userSpaceOnUse"><stop offset="0" stop-color="#a1aab3"/><stop offset="1" stop-color="#8f979e"/></linearGradient><path fill="url(#icel9jWHrmje6D6hzZW4Qf)" d="M19,35H8c-0.552,0-1-0.448-1-1l0,0c0-0.552,0.448-1,1-1h11c0.552,0,1,0.448,1,1l0,0	C20,34.552,19.552,35,19,35z M17,28h-7c-0.552,0-1,0.448-1,1v0c0,0.552,0.448,1,1,1h7c0.552,0,1-0.448,1-1v0	C18,28.448,17.552,28,17,28z M19,23H8c-0.552,0-1,0.448-1,1v0c0,0.552,0.448,1,1,1h11c0.552,0,1-0.448,1-1v0	C20,23.448,19.552,23,19,23z M17,18h-7c-0.552,0-1,0.448-1,1v0c0,0.552,0.448,1,1,1h7c0.552,0,1-0.448,1-1v0	C18,18.448,17.552,18,17,18z"/></svg>