<svg xmlns="http://www.w3.org/2000/svg" viewBox="0 0 48 48"><linearGradient id="eFFvJUkZVDkSfishMa_aFa" x1="14.97" x2="35.352" y1="53.482" y2="15.15" gradientTransform="matrix(1 0 0 -1 0 50)" gradientUnits="userSpaceOnUse"><stop offset="0" stop-color="#f44f5a"/><stop offset=".443" stop-color="#ee3d4a"/><stop offset=".843" stop-color="#e52030"/></linearGradient><path fill="url(#eFFvJUkZVDkSfishMa_aFa)" d="M44.211,22H3.789C2.801,22,2,21.199,2,20.211V6.789C2,5.801,2.801,5,3.789,5h40.422	C45.199,5,46,5.801,46,6.789v13.422C46,21.199,45.199,22,44.211,22z"/><linearGradient id="eFFvJUkZVDkSfishMa_aFb" x1="19.346" x2="29.122" y1="45.253" y2="26.866" gradientTransform="matrix(1 0 0 -1 0 50)" gradientUnits="userSpaceOnUse"><stop offset="0" stop-color="#fcfcfc"/><stop offset=".495" stop-color="#f4f4f4"/><stop offset=".869" stop-color="#e8e8e8"/><stop offset="1" stop-color="#e8e8e8"/></linearGradient><polygon fill="url(#eFFvJUkZVDkSfishMa_aFb)" points="4,20 4,7 44,7 44,20"/><circle cx="19.5" cy="13.5" r="2.5" fill="#e82938"/><circle cx="10.5" cy="13.5" r="2.5" fill="#e82938"/><circle cx="28.5" cy="13.5" r="2.5" fill="#e82938"/><circle cx="37.5" cy="13.5" r="2.5" fill="#e82938"/><linearGradient id="eFFvJUkZVDkSfishMa_aFc" x1="18.209" x2="33.158" y1="25.892" y2="-2.224" gradientTransform="matrix(1 0 0 -1 0 50)" gradientUnits="userSpaceOnUse"><stop offset="0" stop-color="#f44f5a"/><stop offset=".443" stop-color="#ee3d4a"/><stop offset=".843" stop-color="#e52030"/></linearGradient><path fill="url(#eFFvJUkZVDkSfishMa_aFc)" d="M26.829,35l5.898-5.898c0.391-0.39,0.391-1.023,0-1.414l-1.414-1.414	c-0.39-0.391-1.024-0.391-1.414,0l-5.898,5.898l-5.898-5.898c-0.39-0.391-1.023-0.391-1.414,0l-1.414,1.414	c-0.391,0.39-0.391,1.023,0,1.414L21.173,35l-5.899,5.899c-0.391,0.39-0.391,1.023,0,1.414l1.414,1.414	c0.39,0.391,1.023,0.391,1.414,0l5.899-5.899l5.86,5.86c0.39,0.391,1.023,0.391,1.414,0l1.414-1.414c0.391-0.39,0.391-1.024,0-1.414	L26.829,35z"/></svg>