<svg xmlns="http://www.w3.org/2000/svg" viewBox="0 0 48 48"><path fill="#eba600" d="M37,5c0,0.63-0.19,1.35-0.52,2c-0.09,0.18-0.18,0.34-0.29,0.5c-0.1,0.18-0.23,0.35-0.36,0.5	c-0.5,0.6-1.14,1-1.83,1s-1.33-0.4-1.83-1c-0.13-0.15-0.26-0.32-0.36-0.5c-0.11-0.16-0.2-0.32-0.29-0.5C31.19,6.35,31,5.63,31,5	c0-1.66,1.34-2,3-2S37,3.34,37,5z"/><path fill="#eba600" d="M38.71,21.71l-2.01,2.01C36.5,23.9,36.26,24,36,24s-0.51-0.1-0.71-0.29	c-0.38-0.38-0.39-1.01-0.01-1.4c0-0.01,0-0.01,0.01-0.02l0.36-0.36l0.37-0.37l1.27-1.27c0.39-0.39,1.03-0.39,1.42,0	C39.1,20.68,39.1,21.32,38.71,21.71z"/><linearGradient id="iccZ0pT1wPGlEexhR2AiLa" x1="1.624" x2="29.73" y1="9.594" y2="37.7" gradientUnits="userSpaceOnUse"><stop offset="0" stop-color="#ffd869"/><stop offset="1" stop-color="#fec52b"/></linearGradient><path fill="url(#iccZ0pT1wPGlEexhR2AiLa)" d="M32.71,23.71c-0.39,0.39-1.02,0.39-1.41,0.01l-5.39-5.39c-0.2-0.21-0.49-0.33-0.79-0.33	C24.5,18,24,18.5,24,19.12V39.5c0,2.48-2.02,4.5-4.5,4.5S15,41.98,15,39.5V15c0-1.65-1.35-3-3-3H5c-0.55,0-1-0.45-1-1s0.45-1,1-1h7	c2.76,0,5,2.24,5,5v24.5c0,1.38,1.12,2.5,2.5,2.5s2.5-1.12,2.5-2.5V19.12C22,17.4,23.4,16,25.12,16c0.82,0,1.63,0.33,2.21,0.91	l4.65,4.65l0.37,0.37l0.36,0.36c0.01,0.01,0.01,0.01,0.01,0.02C33.1,22.7,33.09,23.33,32.71,23.71z"/><path fill="#eba600" d="M11,13c-0.553,0-1-0.448-1-1v-2c0-0.552,0.447-1,1-1s1,0.448,1,1v2C12,12.552,11.553,13,11,13z"/><linearGradient id="iccZ0pT1wPGlEexhR2AiLb" x1="25.37" x2="38.187" y1="10.127" y2="45.343" gradientUnits="userSpaceOnUse"><stop offset="0" stop-color="#2aa4f4"/><stop offset="1" stop-color="#007ad9"/></linearGradient><path fill="url(#iccZ0pT1wPGlEexhR2AiLb)" d="M36,32.213v-4.992c0.61-0.549,1-1.336,1-2.221c0-1.304-0.837-2.403-2-2.816V9h-2v13.184	c-1.163,0.413-2,1.512-2,2.816c0,0.885,0.39,1.672,1,2.221v4.992c-3.449,0.723-6,3.259-6,6.287c0,2.159,1.299,4.067,3.293,5.248	C29.587,43.922,29.93,44,30.271,44h7.457c0.342,0,0.684-0.078,0.978-0.252C40.701,42.567,42,40.659,42,38.5	C42,35.472,39.449,32.936,36,32.213z"/><linearGradient id="iccZ0pT1wPGlEexhR2AiLc" x1="29.696" x2="38.358" y1="3.696" y2="12.358" gradientUnits="userSpaceOnUse"><stop offset="0" stop-color="#ffd869"/><stop offset="1" stop-color="#fec52b"/></linearGradient><path fill="url(#iccZ0pT1wPGlEexhR2AiLc)" d="M36.758,10h-5.516c-1.054,0-2.084-0.427-2.828-1.172l-0.121-0.121	c-0.391-0.391-0.391-1.023,0-1.414s1.023-0.391,1.414,0l0.121,0.121C30.2,7.787,30.716,8,31.242,8h5.516	c0.526,0,1.042-0.213,1.414-0.586l0.121-0.121c0.391-0.391,1.023-0.391,1.414,0s0.391,1.023,0,1.414l-0.121,0.121	C38.842,9.573,37.812,10,36.758,10z"/><linearGradient id="iccZ0pT1wPGlEexhR2AiLd" x1="30.163" x2="37.237" y1="21.163" y2="28.237" gradientUnits="userSpaceOnUse"><stop offset="0" stop-color="#ffd869"/><stop offset="1" stop-color="#fec52b"/></linearGradient><path fill="url(#iccZ0pT1wPGlEexhR2AiLd)" d="M37,26h-6c-0.553,0-1-0.448-1-1s0.447-1,1-1h6c0.553,0,1,0.448,1,1S37.553,26,37,26z"/><path d="M36.02,21.56l-0.37,0.37l-0.36,0.36c-0.01,0.01-0.01,0.01-0.01,0.02c0.62,0.29,1.13,0.79,1.42,1.41l0.74-0.74 C37.1,22.4,36.61,21.91,36.02,21.56z M32.35,21.93l-0.37-0.37c-0.59,0.35-1.08,0.84-1.42,1.42l0.74,0.74 c0.29-0.62,0.8-1.12,1.42-1.41c0-0.01,0-0.01-0.01-0.02L32.35,21.93z" opacity=".05"/><path d="M35.65,21.93l-0.36,0.36c-0.01,0.01-0.01,0.01-0.01,0.02c0.62,0.29,1.13,0.79,1.42,1.41l0.37-0.37 C36.75,22.75,36.26,22.26,35.65,21.93z M32.35,21.93c-0.61,0.33-1.1,0.82-1.42,1.42l0.37,0.37c0.29-0.62,0.8-1.12,1.42-1.41 c0-0.01,0-0.01-0.01-0.02L32.35,21.93z" opacity=".07"/><path d="M31.52,7c0.09,0.18,0.18,0.34,0.29,0.5c0.1,0.18,0.23,0.35,0.36,0.5h3.66c0.13-0.15,0.26-0.32,0.36-0.5 c0.11-0.16,0.2-0.32,0.29-0.5H31.52z" opacity=".05"/><path d="M31.81,7.5c0.1,0.18,0.23,0.35,0.36,0.5h3.66c0.13-0.15,0.26-0.32,0.36-0.5H31.81z" opacity=".07"/><g><path d="M33,10v1h2v-1H33z" opacity=".05"/><path d="M33,10v0.5h2V10H33z" opacity=".07"/></g></svg>