<svg xmlns="http://www.w3.org/2000/svg" viewBox="0 0 48 48"><linearGradient id="fquC894utucmBEaO4yMywa" x1="39.843" x2="41.644" y1=".138" y2="15.063" gradientUnits="userSpaceOnUse"><stop offset="0" stop-color="#c767e6"/><stop offset="1" stop-color="#9231be"/></linearGradient><path fill="url(#fquC894utucmBEaO4yMywa)" d="M38.488,13.939c-0.072-0.188-0.129-0.399-0.168-0.635c-0.04-0.234-0.06-0.457-0.06-0.666 c0-0.333,0.032-0.636,0.097-0.911c0.065-0.274,0.163-0.532,0.293-0.775c0.13-0.241,0.293-0.473,0.488-0.693 s0.423-0.439,0.683-0.656c0.274-0.23,0.515-0.446,0.721-0.645c0.206-0.199,0.382-0.397,0.526-0.597 c0.145-0.198,0.253-0.404,0.325-0.618c0.072-0.213,0.108-0.449,0.108-0.71c0-0.224-0.04-0.432-0.119-0.623 c-0.08-0.191-0.193-0.355-0.342-0.493s-0.329-0.246-0.542-0.325c-0.213-0.08-0.45-0.119-0.71-0.119 c-0.563,0-1.149,0.117-1.757,0.353c-0.606,0.234-1.182,0.591-1.724,1.067V3.629c0.557-0.332,1.164-0.581,1.821-0.748 c0.658-0.166,1.337-0.249,2.038-0.249c0.673,0,1.298,0.074,1.876,0.223s1.082,0.381,1.513,0.699c0.43,0.318,0.766,0.725,1.008,1.22 s0.363,1.089,0.363,1.783c0,0.44-0.051,0.84-0.152,1.198c-0.101,0.357-0.249,0.695-0.444,1.014 c-0.195,0.317-0.438,0.623-0.726,0.916c-0.29,0.292-0.622,0.594-0.998,0.905c-0.253,0.209-0.476,0.404-0.667,0.585 s-0.351,0.359-0.477,0.537c-0.127,0.177-0.223,0.364-0.287,0.563c-0.065,0.198-0.098,0.425-0.098,0.678 c0,0.173,0.023,0.351,0.07,0.531s0.11,0.332,0.189,0.455H38.488z M40.07,18.688c-0.578,0-1.059-0.173-1.441-0.521 c-0.383-0.361-0.574-0.787-0.574-1.279c0-0.505,0.191-0.928,0.574-1.268s0.863-0.51,1.441-0.51c0.571,0,1.045,0.17,1.421,0.51 c0.375,0.332,0.563,0.755,0.563,1.268c0,0.521-0.185,0.951-0.553,1.291C41.126,18.518,40.648,18.688,40.07,18.688z"/><linearGradient id="fquC894utucmBEaO4yMywb" x1="14.786" x2="33.076" y1="-1135.077" y2="-1153.367" gradientTransform="matrix(1 0 0 -1 0 -1103.89)" gradientUnits="userSpaceOnUse"><stop offset="0" stop-color="#33bef0"/><stop offset="1" stop-color="#0a85d9"/></linearGradient><path fill="url(#fquC894utucmBEaO4yMywb)" d="M24,30.571c-8.837,0-16,4.921-16,10.286V42c0,1.105,0.895,2,2,2h28c1.105,0,2-0.895,2-2 v-1.143C40,35.492,32.837,30.571,24,30.571z"/><path fill="#d6a121" d="M29,31c0,1.897-2.83,4-5,4s-5-2.103-5-4c0-2.637,0-7.035,0-7.035h10C29,23.965,29,28.363,29,31z"/><linearGradient id="fquC894utucmBEaO4yMywc" x1="32.917" x2="34.251" y1="-1123.89" y2="-1123.89" gradientTransform="matrix(1 0 0 -1 0 -1103.89)" gradientUnits="userSpaceOnUse"><stop offset="0" stop-color="#c48f0c"/><stop offset=".251" stop-color="#d19b16"/><stop offset=".619" stop-color="#dca51f"/><stop offset="1" stop-color="#e0a922"/></linearGradient><path fill="url(#fquC894utucmBEaO4yMywc)" d="M32.916,18h-0.527v4h0.703c0.515,0,0.954-0.312,1.041-0.74l0.344-1.703 C34.642,18.743,33.897,18,32.916,18z"/><linearGradient id="fquC894utucmBEaO4yMywd" x1="-1501.083" x2="-1499.749" y1="-1123.89" y2="-1123.89" gradientTransform="rotate(180 -743 -551.945)" gradientUnits="userSpaceOnUse"><stop offset="0" stop-color="#c48f0c"/><stop offset=".251" stop-color="#d19b16"/><stop offset=".619" stop-color="#dca51f"/><stop offset="1" stop-color="#e0a922"/></linearGradient><path fill="url(#fquC894utucmBEaO4yMywd)" d="M15.084,18h0.527v4h-0.703c-0.515,0-0.954-0.312-1.041-0.74l-0.344-1.703 C13.358,18.743,14.103,18,15.084,18z"/><radialGradient id="fquC894utucmBEaO4yMywe" cx="83.497" cy="-1252.27" r="12.224" gradientTransform="matrix(.8816 0 0 -.8816 -49.611 -1085.301)" gradientUnits="userSpaceOnUse"><stop offset="0" stop-color="#ffcf54"/><stop offset=".261" stop-color="#fdcb4d"/><stop offset=".639" stop-color="#f7c13a"/><stop offset="1" stop-color="#f0b421"/></radialGradient><path fill="url(#fquC894utucmBEaO4yMywe)" d="M24,6.4c-4.441,0-9,0.675-9,10.275c0,0.768,0,5.877,0,6.698C15,26.8,20.4,31,24,31 s9-4.2,9-7.627c0-0.821,0-5.929,0-6.698C33,7.075,28.441,6.4,24,6.4z"/><radialGradient id="fquC894utucmBEaO4yMywf" cx="73.792" cy="-1238.617" r="28.915" gradientTransform="matrix(.8816 0 0 -.8816 -49.611 -1085.301)" gradientUnits="userSpaceOnUse"><stop offset="0" stop-color="#c26715"/><stop offset=".508" stop-color="#b85515"/><stop offset="1" stop-color="#ad3f16"/></radialGradient><path fill="url(#fquC894utucmBEaO4yMywf)" d="M24,5.545c-4.354,0-5,1.636-5,1.636c-1.77,0.261-5,2.854-5,5.818c0,1.654,0.265,2.876,1,7 c0.545-6.545,2.249-9,4-9c1.267,0,2.273,1,5,1c2.303,0,2.875-1,5-1c3,0,4,7.968,4,9c0.601-3.01,1-5.555,1-7 C34,9.57,30.209,5.545,24,5.545z"/><radialGradient id="fquC894utucmBEaO4yMywg" cx="104.379" cy="-1240.553" r="33.398" gradientTransform="matrix(.8431 0 0 -.8816 -65.437 -1085.301)" gradientUnits="userSpaceOnUse"><stop offset="0" stop-color="#c26715"/><stop offset=".508" stop-color="#b85515"/><stop offset="1" stop-color="#ad3f16"/></radialGradient><path fill="url(#fquC894utucmBEaO4yMywg)" d="M24.219,5c-4.164,0-5.216,2.182-5.216,2.182c-0.042,1.159,0.522,2.182,0.522,2.182 S20.285,11,24.625,11C27.245,11,31,9.365,31,5C31,5,30.157,5,24.219,5z"/></svg>