<svg xmlns="http://www.w3.org/2000/svg" viewBox="0 0 48 48"><linearGradient id="9XjvEiHspAE9~LH7xh_VAa" x1="29.5" x2="29.5" y1="12.596" y2="16.84" gradientUnits="userSpaceOnUse"><stop offset="0" stop-color="#737b80"/><stop offset="1" stop-color="#575c61"/></linearGradient><path fill="url(#9XjvEiHspAE9~LH7xh_VAa)" d="M32.5,13H26v5h5v-3h1.5c0.276,0,0.5-0.224,0.5-0.5v-1C33,13.224,32.776,13,32.5,13z"/><linearGradient id="9XjvEiHspAE9~LH7xh_VAb" x1="13.963" x2="32.941" y1="20.463" y2="39.441" gradientUnits="userSpaceOnUse"><stop offset="0" stop-color="#32bdef"/><stop offset="1" stop-color="#1ea2e4"/></linearGradient><path fill="url(#9XjvEiHspAE9~LH7xh_VAb)" d="M31,17H17v27c0,1.1,0.9,2,2,2h12c1.1,0,2-0.9,2-2V19C33,17.9,32.1,17,31,17z"/><path fill="#199be2" d="M33,20H17v-3h15c0.6,0,1,0.4,1,1V20z"/><linearGradient id="9XjvEiHspAE9~LH7xh_VAc" x1="22" x2="22" y1="10.489" y2="16.881" gradientUnits="userSpaceOnUse"><stop offset="0" stop-color="#c3cdd9"/><stop offset="1" stop-color="#9fa7b0"/></linearGradient><path fill="url(#9XjvEiHspAE9~LH7xh_VAc)" d="M27,17H17v-5c0-0.552,0.448-1,1-1h5c2.209,0,4,1.791,4,4V17z"/><linearGradient id="9XjvEiHspAE9~LH7xh_VAd" x1="19.333" x2="21.032" y1="-562.146" y2="-571.476" gradientTransform="matrix(1 0 0 -1 0 -562)" gradientUnits="userSpaceOnUse"><stop offset="0" stop-color="#f44f5a"/><stop offset=".443" stop-color="#ee3d4a"/><stop offset="1" stop-color="#e52030"/></linearGradient><path fill="url(#9XjvEiHspAE9~LH7xh_VAd)" d="M23.868,6.177c0,1.896-1.538,3.434-3.434,3.434S17,8.074,17,6.177	c0-2.171,2.553-5.28,3.256-6.096c0.094-0.109,0.261-0.109,0.355,0C21.315,0.897,23.868,4.006,23.868,6.177z"/><linearGradient id="9XjvEiHspAE9~LH7xh_VAe" x1="19.773" x2="20.793" y1="-565.932" y2="-571.53" gradientTransform="matrix(1 0 0 -1 0 -562)" gradientUnits="userSpaceOnUse"><stop offset="0" stop-color="#fed100"/><stop offset=".156" stop-color="#fdcb00"/><stop offset=".365" stop-color="#f9ba00"/><stop offset=".604" stop-color="#f29e00"/><stop offset=".863" stop-color="#e97701"/><stop offset="1" stop-color="#e36001"/></linearGradient><path fill="url(#9XjvEiHspAE9~LH7xh_VAe)" d="M22.494,7.551c0,1.138-0.922,2.06-2.06,2.06c-1.138,0-2.06-0.922-2.06-2.06	c0-1.303,1.532-3.168,1.954-3.657c0.057-0.065,0.157-0.065,0.213,0C20.963,4.383,22.494,6.248,22.494,7.551z"/></svg>