<svg xmlns="http://www.w3.org/2000/svg" viewBox="0 0 48 48"><path fill="#b9360c" d="M24,15h18V8c0-1.105-0.895-2-2-2H24V15z"/><path fill="#d43a02" d="M6,15h18V6H8C6.895,6,6,6.895,6,8V15z"/><path fill="#ff8f6b" d="M24,42H8c-1.1,0-2-0.9-2-2V15l7.926-6.605c0.622-0.519,1.526-0.519,2.149,0L24,15V42z"/><path fill="#ed6c47" d="M24,42h16c1.1,0,2-0.9,2-2V15l-7.926-6.605c-0.622-0.519-1.526-0.519-2.149,0L24,15V42z"/><path fill="#b9360c" d="M36,26h2v-2h-2V26z M36,30h2v-2h-2V30z M36,34h2v-2h-2V34z M36,38h2v-2h-2V38z M32,26h2v-2h-2V26z M32,30h2v-2h-2V30z M32,34h2v-2h-2V34z M32,38h2v-2h-2V38z M28,26h2v-2h-2V26z M28,30h2v-2h-2V30z M36,18h2v-2h-2V18z M36,22h2v-2	h-2V22z M32,18h2v-2h-2V18z M32,22h2v-2h-2V22z M28,18h2v-2h-2V18z M28,22h2v-2h-2V22z M28,34h2v-2h-2V34z M28,38h2v-2h-2V38z"/><path fill="#d43a02" d="M18,26h2v-2h-2V26z M18,30h2v-2h-2V30z M18,34h2v-2h-2V34z M18,38h2v-2h-2V38z M14,26h2v-2h-2V26z M14,30h2v-2h-2V30z M14,34h2v-2h-2V34z M14,38h2v-2h-2V38z M10,26h2v-2h-2V26z M10,30h2v-2h-2V30z M18,18h2v-2h-2V18z M18,22h2v-2	h-2V22z M14,18h2v-2h-2V18z M14,22h2v-2h-2V22z M10,18h2v-2h-2V18z M10,22h2v-2h-2V22z M10,34h2v-2h-2V34z M10,38h2v-2h-2V38z"/></svg>