<svg xmlns="http://www.w3.org/2000/svg" viewBox="0 0 48 48"><linearGradient id="xcs33hLJaWo_ashED4Au6a" x1="33" x2="45" y1="25.244" y2="25.244" gradientUnits="userSpaceOnUse"><stop offset="0" stop-color="#92a3b0"/><stop offset=".015" stop-color="#a3b5c4"/><stop offset=".032" stop-color="#aec2d1"/><stop offset=".046" stop-color="#b2c6d6"/></linearGradient><path fill="url(#xcs33hLJaWo_ashED4Au6a)" d="M41.5,38c-1.93,0-3.5-1.57-3.5-3.5V27h-4c-0.553,0-1-0.447-1-1s0.447-1,1-1h4	c1.103,0,2,0.897,2,2v7.5c0,0.827,0.673,1.5,1.5,1.5s1.5-0.673,1.5-1.5V19.369l-2.632-3.076l-4.736-1.875	c-0.514-0.203-0.765-0.784-0.562-1.298c0.203-0.515,0.786-0.764,1.298-0.562l4.967,1.966c0.151,0.06,0.286,0.156,0.392,0.279	l3.033,3.546C44.915,18.531,45,18.762,45,19v15.5C45,36.43,43.43,38,41.5,38z"/><path fill="#fad500" d="M35,43H11V9c0-2.2,1.8-4,4-4h16c2.2,0,4,1.8,4,4V43z"/><path fill="#b2ebf2" d="M31,8H15c-0.6,0-1,0.4-1,1v10c0,0.6,0.4,1,1,1h16c0.6,0,1-0.4,1-1V9C32,8.4,31.6,8,31,8z"/><path fill="#1b9de2" d="M31,8H15c-0.6,0-1,0.4-1,1v10c0,0.6,0.4,1,1,1h16c0.6,0,1-0.4,1-1V9C32,8.4,31.6,8,31,8z"/><path fill="#184f85" d="M22.772,18.184l4.893-6.667c0.186-0.254,0.543-0.309,0.797-0.122	c0.232,0.171,0.298,0.484,0.164,0.731l-3.936,7.274c-0.299,0.553-0.99,0.758-1.542,0.459c-0.553-0.299-0.758-0.99-0.459-1.542	C22.713,18.271,22.744,18.223,22.772,18.184z"/><path fill="#50e6ff" d="M25,20h-4c0-1.1,0.9-2,2-2S25,18.9,25,20z"/><path fill="#edbe00" d="M35,39H11c-1.105,0-2,0.895-2,2v2h28v-2C37,39.895,36.105,39,35,39z"/><path fill="#42a5f5" d="M41.586,14H40v6c0,0.552,0.448,1,1,1h4v-3.172c0-0.53-0.211-1.039-0.586-1.414l-2.121-2.121	C42.105,14.105,41.851,14,41.586,14z"/></svg>