<svg xmlns="http://www.w3.org/2000/svg" data-name="Слой 1" viewBox="0 0 48 48"><defs><linearGradient id="eVYr9tI5fyD08KqmHkc8na" x1="10.531" x2="27.482" y1="4.992" y2="51.563" data-name="Безымянный градиент 138" gradientUnits="userSpaceOnUse"><stop offset="0" stop-color="#6d6d6d"/><stop offset=".126" stop-color="#626262"/><stop offset=".987" stop-color="#464646"/><stop offset=".998" stop-color="#454545"/></linearGradient><linearGradient id="eVYr9tI5fyD08KqmHkc8nb" x1="18.357" x2="24.573" y1="-1640.995" y2="-1676.249" data-name="Безымянный градиент 134" gradientTransform="matrix(1 0 0 -1 0 -1632)" gradientUnits="userSpaceOnUse"><stop offset="0" stop-color="#ffda1c"/><stop offset="1" stop-color="#feb705"/></linearGradient><radialGradient id="eVYr9tI5fyD08KqmHkc8nc" cx="19.094" cy="8.239" r="38.84" data-name="Безымянный градиент 133" gradientUnits="userSpaceOnUse"><stop offset="0" stop-color="#4b4b4b"/><stop offset=".531" stop-color="#393939"/><stop offset="1" stop-color="#252525"/></radialGradient></defs><path fill="url(#eVYr9tI5fyD08KqmHkc8na)" d="M24.00043,4A1.96747,1.96747,0,0,0,22.2731,5.00878L1.82176,41.00568A2.00136,2.00136,0,0,0,3.54909,44H44.45078a2.001,2.001,0,0,0,1.72733-2.99432L25.72776,5.00878A1.96745,1.96745,0,0,0,24.00043,4Z"/><polygon fill="url(#eVYr9tI5fyD08KqmHkc8nb)" points="5 41 24.001 8 43 41 5 41"/><path fill="url(#eVYr9tI5fyD08KqmHkc8nc)" d="M27.06171,10.14258l-.0163.00244.00079.00171ZM36.67,30H34.959A3.40169,3.40169,0,0,0,34,28h-.04071c-.03088-.03223-.06-.06262-.096-.09814L28.0658,23A.99816.99816,0,0,0,27,24.0614a1.71644,1.71644,0,0,0,1.33228,1.72473C28.06989,26.57,29.48151,27.10059,27.99792,28H20a1,1,0,0,0,0,2h4.25L24,31H18a1,1,0,0,0,0,2h6l.25,1H19a1,1,0,0,0,0,2h5.74243L25,37H20.5a.5.5,0,0,0,0,1H33a2.00006,2.00006,0,0,0,2-2h5.12ZM24,39H17a1,1,0,0,0-1,1v1h9V40A1,1,0,0,0,24,39ZM17,26h7a1.00291,1.00291,0,0,0,1-1V9.74L24,8,16,21.89V25A1.00291,1.00291,0,0,0,17,26Zm1.43-5h4.15a.42346.42346,0,0,1,.32.7l-2.01,2.14a.53153.53153,0,0,1-.77,0L18.1,21.7A.42677.42677,0,0,1,18.43,21Z"/></svg>