<svg xmlns="http://www.w3.org/2000/svg" viewBox="0 0 48 48"><linearGradient id="1WUy7PPhWEgBwt7K9dC_ga" x1="15.838" x2="23.857" y1="3.821" y2="24.587" gradientUnits="userSpaceOnUse"><stop offset="0" stop-color="#33bef0"/><stop offset="1" stop-color="#0a85d9"/></linearGradient><path fill="url(#1WUy7PPhWEgBwt7K9dC_ga)" fill-rule="evenodd" d="M38.008,19.138C37.981,9.348,31.834,7.01,21.869,7l0,0	c-0.158,0-0.317,0-0.477,0.001C12.611,7.056,4.999,9.02,5,18.641c0,0.053,0,0.098,0,0.149l0,0V21l33,0.111v-1.608	C38.003,19.385,38.008,19.278,38.008,19.138z" clip-rule="evenodd"/><linearGradient id="1WUy7PPhWEgBwt7K9dC_gb" x1="21.355" x2="21.355" y1="4.447" y2="18.332" gradientUnits="userSpaceOnUse"><stop offset="0" stop-color="#fafafb"/><stop offset="1" stop-color="#c8cdd1"/></linearGradient><polygon fill="url(#1WUy7PPhWEgBwt7K9dC_gb)" fill-rule="evenodd" points="18.83,11.03 19.778,13.985 17.269,15.834 20.372,15.845 21.355,18.803 22.325,15.855 25.441,15.834 22.937,14.001 23.88,11.03 21.363,12.845 18.83,11.03" clip-rule="evenodd"/><linearGradient id="1WUy7PPhWEgBwt7K9dC_gc" x1="30.851" x2="30.851" y1="4.447" y2="18.332" gradientUnits="userSpaceOnUse"><stop offset="0" stop-color="#fafafb"/><stop offset="1" stop-color="#c8cdd1"/></linearGradient><polygon fill="url(#1WUy7PPhWEgBwt7K9dC_gc)" fill-rule="evenodd" points="28.326,11.064 29.274,14.019 26.765,15.868 29.868,15.879 30.851,18.837 31.821,15.889 34.937,15.868 32.434,14.035 33.377,11.064 30.86,12.879 28.326,11.064" clip-rule="evenodd"/><linearGradient id="1WUy7PPhWEgBwt7K9dC_gd" x1="11.841" x2="11.841" y1="4.447" y2="18.332" gradientUnits="userSpaceOnUse"><stop offset="0" stop-color="#fafafb"/><stop offset="1" stop-color="#c8cdd1"/></linearGradient><polygon fill="url(#1WUy7PPhWEgBwt7K9dC_gd)" fill-rule="evenodd" points="9.316,11.066 10.264,14.02 7.755,15.869 10.858,15.88 11.841,18.838 12.811,15.89 15.927,15.869 13.424,14.036 14.367,11.066 11.85,12.88 9.316,11.066" clip-rule="evenodd"/><linearGradient id="1WUy7PPhWEgBwt7K9dC_ge" x1="24" x2="24" y1="18.157" y2="41.856" gradientUnits="userSpaceOnUse"><stop offset="0" stop-color="#f44f5a"/><stop offset=".443" stop-color="#ee3d4a"/><stop offset="1" stop-color="#e52030"/></linearGradient><path fill="url(#1WUy7PPhWEgBwt7K9dC_ge)" fill-rule="evenodd" d="M42.501,33.467c-2.132,0-0.887,0.031-2.012,0	c-0.597-0.017-1.125,0.068-1.006,0.989c0.013,1.134,0.591,2.29-1.015,2.29c-1.286,0-0.681-9.241-0.516-11.992L38.083,23h-0.546	c-0.121-0.054-0.271-0.089-0.469-0.085l-0.001,0.001c-1.108,0.022-29.102,0.027-30.899,0.017C5.917,22.931,5.721,22.956,5.556,23	H4.919l0.038,1.004C4.955,25.799,4.838,37.14,4.907,39.112c0.027,0.784,0.46,1.015,1.04,1.023c1.296,0.017,4.518,0.059,5.712,0.034	c0.818-0.017,1.171-0.408,1.211-1.586c0.037-1.104-0.018-2.918,0.017-4.554c0.012-0.552,0.205-0.955,0.767-0.972	c1.426-0.043,6.907-0.044,7.996-0.017c1.381,0.034,1.603,0.017,1.637,1.449c0.04,1.702,0.034,2.73-0.017,4.043	c-0.055,1.403,0.409,1.534,1.159,1.551c1.108,0.025,3.666-0.036,4.944-0.017c1.7,0.024,1.668-0.494,1.688-2.711	c0.009-0.955,0.001-3.907-0.034-5.422c-0.009-0.377,0.188-0.644,0.443-0.648c1.042-0.017,1.259,2.711,1.517,4.075	c0.956,5.055,3.167,5.7,5.183,5.712c2.527,0.016,4.936-2.08,4.944-6.394C43.116,34.028,42.978,33.467,42.501,33.467z" clip-rule="evenodd"/><linearGradient id="1WUy7PPhWEgBwt7K9dC_gf" x1="2.319" x2="37.379" y1="14.726" y2="28.022" gradientUnits="userSpaceOnUse"><stop offset="0" stop-color="#fafafb"/><stop offset="1" stop-color="#c8cdd1"/></linearGradient><rect width="33" height="2" x="5" y="21" fill="url(#1WUy7PPhWEgBwt7K9dC_gf)" fill-rule="evenodd" clip-rule="evenodd"/></svg>