<svg xmlns="http://www.w3.org/2000/svg" viewBox="0 0 48 48"><linearGradient id="4oTpSUJ09J_5yXLTxPZPla" x1="965.105" x2="934.09" y1="20.739" y2="97.893" gradientTransform="matrix(1 0 0 -1 -952 50)" gradientUnits="userSpaceOnUse"><stop offset="0" stop-color="#32bdef"/><stop offset="1" stop-color="#1ea2e4"/></linearGradient><path fill="url(#4oTpSUJ09J_5yXLTxPZPla)" d="M16,13v30h-2.03c-0.34,0-0.68-0.09-0.97-0.25c-0.23-0.13-0.43-0.3-0.6-0.51l-6.97-8.83	C5.15,33.06,5,32.62,5,32.17V6c0-0.28,0.11-0.52,0.29-0.71C5.48,5.11,5.72,5,6,5h2.5L16,13z"/><linearGradient id="4oTpSUJ09J_5yXLTxPZPlb" x1="1011.165" x2="946.793" y1="31.415" y2="45.686" gradientTransform="matrix(1 0 0 -1 -952 50)" gradientUnits="userSpaceOnUse"><stop offset="0" stop-color="#a3ffff"/><stop offset=".223" stop-color="#9dfbff"/><stop offset=".53" stop-color="#8bf1ff"/><stop offset=".885" stop-color="#6ee0ff"/><stop offset="1" stop-color="#63daff"/></linearGradient><path fill="url(#4oTpSUJ09J_5yXLTxPZPlb)" d="M43,13.97V16H13v-3L5.29,5.29C5.48,5.11,5.72,5,6,5h26.17c0.45,0,0.89,0.15,1.24,0.43	l8.83,6.97c0.21,0.17,0.38,0.37,0.51,0.6C42.91,13.29,43,13.63,43,13.97z"/><linearGradient id="4oTpSUJ09J_5yXLTxPZPlc" x1="945.399" x2="976.878" y1="107.905" y2="29.6" gradientTransform="matrix(1 0 0 -1 -952 50)" gradientUnits="userSpaceOnUse"><stop offset="0" stop-color="#076cb3"/><stop offset="1" stop-color="#199ae0"/></linearGradient><path fill="url(#4oTpSUJ09J_5yXLTxPZPlc)" d="M43,13.97V42c0,0.552-0.448,1-1,1H13.97c-0.34,0-0.68-0.09-0.97-0.25V13h29.75	C42.91,13.29,43,13.63,43,13.97z"/><linearGradient id="4oTpSUJ09J_5yXLTxPZPld" x1="837.5" x2="837.5" y1="9.273" y2="20.125" gradientTransform="matrix(1 0 0 -1 -816 50)" gradientUnits="userSpaceOnUse"><stop offset="0" stop-color="#fafafb"/><stop offset=".863" stop-color="#ebecee"/><stop offset=".942" stop-color="#d8dcdf"/><stop offset="1" stop-color="#c8cdd1"/></linearGradient><path fill="url(#4oTpSUJ09J_5yXLTxPZPld)" d="M25.646,36.021H23V28.5c0-0.276-0.224-0.5-0.5-0.5h-2c-0.276,0-0.5,0.224-0.5,0.5v7.521	h-2.646c-0.315,0-0.473,0.381-0.25,0.604L21,40.52c0.276,0.276,0.724,0.276,1,0l0.208-0.208v0.001l3.689-3.688	C26.119,36.402,25.96,36.021,25.646,36.021z"/><linearGradient id="4oTpSUJ09J_5yXLTxPZPle" x1="-767.636" x2="-767.636" y1="-583.591" y2="-572.739" gradientTransform="matrix(0 -1 -1 0 -542.864 -746.136)" gradientUnits="userSpaceOnUse"><stop offset="0" stop-color="#fafafb"/><stop offset=".863" stop-color="#ebecee"/><stop offset=".942" stop-color="#d8dcdf"/><stop offset="1" stop-color="#c8cdd1"/></linearGradient><path fill="url(#4oTpSUJ09J_5yXLTxPZPle)" d="M36.021,17.354V20H28.5c-0.276,0-0.5,0.224-0.5,0.5v2c0,0.276,0.224,0.5,0.5,0.5h7.521v2.646	c0,0.315,0.381,0.473,0.604,0.25L40.52,22c0.276-0.276,0.276-0.724,0-1l-0.208-0.208h0.001l-3.688-3.689	C36.402,16.881,36.021,17.04,36.021,17.354z"/><linearGradient id="4oTpSUJ09J_5yXLTxPZPlf" x1="869.15" x2="814.303" y1="116.013" y2="3.559" gradientTransform="matrix(1 0 0 -1 -816 50)" gradientUnits="userSpaceOnUse"><stop offset="0" stop-color="#e36001"/><stop offset="1" stop-color="#fed100"/></linearGradient><path fill="url(#4oTpSUJ09J_5yXLTxPZPlf)" d="M15,13v17h-1c-0.36,0-0.7-0.1-1-0.28c-0.23-0.13-0.44-0.3-0.6-0.52l-4-5.33	C8.14,23.52,8,23.1,8,22.67V9c0-0.28,0.11-0.52,0.29-0.71C8.48,8.11,8.72,8,9,8h1L15,13z"/><linearGradient id="4oTpSUJ09J_5yXLTxPZPlg" x1="-1409.755" x2="-1356.983" y1="32.778" y2="44.477" gradientTransform="rotate(180 -683 25)" gradientUnits="userSpaceOnUse"><stop offset="0" stop-color="#f5bc00"/><stop offset=".393" stop-color="#ffd645"/><stop offset="1" stop-color="#ffd747"/></linearGradient><path fill="url(#4oTpSUJ09J_5yXLTxPZPlg)" d="M9,8h13.67c0.43,0,0.85,0.14,1.2,0.4L28,11.5l1.2,0.9c0.22,0.16,0.39,0.37,0.52,0.6	C29.9,13.3,30,13.64,30,14v1H13v-2L8.29,8.29C8.48,8.11,8.72,8,9,8z"/><linearGradient id="4oTpSUJ09J_5yXLTxPZPlh" x1="817.11" x2="841.823" y1="79.046" y2="17.573" gradientTransform="matrix(1 0 0 -1 -816 50)" gradientUnits="userSpaceOnUse"><stop offset="0" stop-color="#c18310"/><stop offset="1" stop-color="#eba601"/></linearGradient><path fill="url(#4oTpSUJ09J_5yXLTxPZPlh)" d="M30,14v15c0,0.55-0.45,1-1,1H14c-0.36,0-0.7-0.1-1-0.28V13h16.72C29.9,13.3,30,13.64,30,14z"/></svg>