<svg xmlns="http://www.w3.org/2000/svg" viewBox="0 0 48 48"><path fill="#33c481" d="M26.333,13.502c0-2.025-1.642-3.667-3.667-3.667c-0.043,0-0.083,0.011-0.126,0.013 C22.137,8.262,20.711,7.085,19,7.085s-3.137,1.177-3.541,2.763c-0.043-0.001-0.083-0.013-0.126-0.013 c-2.025,0-3.667,1.642-3.667,3.667C9.642,13.502,8,15.143,8,17.168c0,2.025,1.642,3.667,3.667,3.667 c0.671,0,1.292-0.194,1.833-0.509c0.541,0.315,1.162,0.509,1.833,0.509s1.292-0.194,1.833-0.509 c0.541,0.315,1.162,0.509,1.833,0.509s1.292-0.194,1.833-0.509c0.541,0.315,1.162,0.509,1.833,0.509 c0.671,0,1.292-0.194,1.833-0.509c0.541,0.315,1.162,0.509,1.833,0.509c2.025,0,3.667-1.642,3.667-3.667 C30,15.143,28.358,13.502,26.333,13.502z"/><linearGradient id="Vpov1_R5DzP4DHzMGlAK5a" x1="19.559" x2="27.147" y1="18.586" y2="18.586" gradientUnits="userSpaceOnUse"><stop offset="0" stop-color="#21ad64"/><stop offset="1" stop-color="#088242"/></linearGradient><circle cx="23.499" cy="18.586" r="3.499" fill="url(#Vpov1_R5DzP4DHzMGlAK5a)"/><linearGradient id="Vpov1_R5DzP4DHzMGlAK5b" x1="23.499" x2="23.499" y1="15.386" y2="18.202" gradientUnits="userSpaceOnUse"><stop offset="0" stop-color="#faf8e5"/><stop offset="1" stop-color="#faeeac"/></linearGradient><circle cx="23.499" cy="18.586" r="2.501" fill="url(#Vpov1_R5DzP4DHzMGlAK5b)"/><linearGradient id="Vpov1_R5DzP4DHzMGlAK5c" x1="11.37" x2="22.214" y1="17.085" y2="17.085" gradientUnits="userSpaceOnUse"><stop offset="0" stop-color="#f44f5a"/><stop offset=".443" stop-color="#ee3d4a"/><stop offset="1" stop-color="#e52030"/></linearGradient><circle cx="17" cy="17.085" r="5" fill="url(#Vpov1_R5DzP4DHzMGlAK5c)"/><circle cx="17" cy="17.085" r="4" fill="#eb6773"/><linearGradient id="Vpov1_R5DzP4DHzMGlAK5d" x1="40.195" x2="17.387" y1="31.543" y2="31.543" gradientUnits="userSpaceOnUse"><stop offset="0" stop-color="#fed100"/><stop offset=".273" stop-color="#f3b000"/><stop offset=".552" stop-color="#ea9601"/><stop offset=".803" stop-color="#e58701"/><stop offset="1" stop-color="#e38101"/></linearGradient><path fill="url(#Vpov1_R5DzP4DHzMGlAK5d)" d="M29.008,18.085h-3.1c-7.669,0-14.176,6.489-14.176,13.922V45H26.43h0.751 c0.507,0,0.932-0.37,0.986-0.859l1.827-24.993C30.057,18.58,29.598,18.085,29.008,18.085z"/><linearGradient id="Vpov1_R5DzP4DHzMGlAK5e" x1="16.989" x2="16.989" y1="14.4" y2="57.006" gradientUnits="userSpaceOnUse"><stop offset="0" stop-color="#fed100"/><stop offset=".327" stop-color="#f6ba00"/><stop offset="1" stop-color="#e38101"/></linearGradient><path fill="url(#Vpov1_R5DzP4DHzMGlAK5e)" d="M12.092,18.085H8.992c-0.59,0-1.049,0.496-0.986,1.064l1.827,24.993 C9.887,44.63,10.312,45,10.819,45h1.273c7.669,0,13.887-6.025,13.887-13.458v0C25.978,24.11,19.761,18.085,12.092,18.085z"/><g><linearGradient id="Vpov1_R5DzP4DHzMGlAK5f" x1="32" x2="32" y1="7.647" y2="57.687" gradientUnits="userSpaceOnUse"><stop offset="0" stop-color="#a34f27"/><stop offset=".587" stop-color="#8b3817"/><stop offset="1" stop-color="#802d10"/></linearGradient><path fill="url(#Vpov1_R5DzP4DHzMGlAK5f)" d="M40,43c0,1.1-0.9,2-2,2H26c-0.55,0-1.05-0.22-1.41-0.59C24.22,44.05,24,43.55,24,43 c0-0.66,0.11-1.32,0.32-1.95l0.63-1.91c0.69-2.07,0.89-4.26,0.58-6.41L25.28,31l-0.81-5.73c-0.26-1.77-0.11-3.57,0.42-5.27 c0.11-0.36,0.24-0.71,0.38-1.05l3.58-8.58c0.05-0.12,0.09-0.24,0.11-0.37h6.08c0.02,0.13,0.06,0.25,0.11,0.37l3.58,8.58 c0.14,0.34,0.27,0.69,0.38,1.05c0.53,1.7,0.68,3.5,0.42,5.27L38.72,31l-0.25,1.73c-0.31,2.15-0.11,4.34,0.58,6.41l0.63,1.91 C39.89,41.68,40,42.34,40,43z"/><linearGradient id="Vpov1_R5DzP4DHzMGlAK5g" x1="32" x2="32" y1="4.118" y2="12.378" gradientUnits="userSpaceOnUse"><stop offset="0" stop-color="#32bdef"/><stop offset="1" stop-color="#1ea2e4"/></linearGradient><path fill="url(#Vpov1_R5DzP4DHzMGlAK5g)" d="M35.04,10h-6.08C28.99,9.87,29,9.73,29,9.6V5h6v4.6C35,9.73,35.01,9.87,35.04,10z"/><linearGradient id="Vpov1_R5DzP4DHzMGlAK5h" x1="32" x2="32" y1="1.529" y2="6.594" gradientUnits="userSpaceOnUse"><stop offset="0" stop-color="#f44f5a"/><stop offset=".443" stop-color="#ee3d4a"/><stop offset="1" stop-color="#e52030"/></linearGradient><path fill="url(#Vpov1_R5DzP4DHzMGlAK5h)" d="M34.5,6h-5C28.672,6,28,5.328,28,4.5v0C28,3.672,28.672,3,29.5,3h5C35.328,3,36,3.672,36,4.5 v0C36,5.328,35.328,6,34.5,6z"/><linearGradient id="Vpov1_R5DzP4DHzMGlAK5i" x1="32" x2="32" y1="18.706" y2="34.002" gradientUnits="userSpaceOnUse"><stop offset="0" stop-color="#f44f5a"/><stop offset=".443" stop-color="#ee3d4a"/><stop offset="1" stop-color="#e52030"/></linearGradient><path fill="url(#Vpov1_R5DzP4DHzMGlAK5i)" d="M39.53,25.27L38.72,31H25.28l-0.81-5.73c-0.26-1.77-0.11-3.57,0.42-5.27h14.22 C39.64,21.7,39.79,23.5,39.53,25.27z"/></g><g><path d="M24,43c0-0.66,0.11-1.32,0.32-1.95l0.63-1.91c0.69-2.07,0.89-4.26,0.58-6.41L25.28,31l-0.81-5.73 c-0.26-1.77-0.11-3.57,0.42-5.27c0.11-0.36,0.24-0.71,0.38-1.05l2.2-5.27c-0.16-0.05-0.32-0.09-0.49-0.12 c-0.17-0.03-0.34-0.05-0.52-0.05l-2.11,5.05c-0.17,0.41-0.31,0.79-0.42,1.15c-0.57,1.84-0.73,3.81-0.45,5.71l0.81,5.72l0.25,1.73 c0.29,1.98,0.1,4.04-0.54,5.95l-0.63,1.92C23.12,41.47,23,42.24,23,43c0,0.75,0.27,1.46,0.77,2H26c-0.55,0-1.05-0.22-1.41-0.59 C24.22,44.05,24,43.55,24,43z" opacity=".05"/><path d="M24,43c0-0.66,0.11-1.32,0.32-1.95l0.63-1.91c0.69-2.07,0.89-4.26,0.58-6.41L25.28,31l-0.81-5.73 c-0.26-1.77-0.11-3.57,0.42-5.27c0.11-0.36,0.24-0.71,0.38-1.05l2.2-5.27c-0.16-0.05-0.32-0.09-0.49-0.12l-2.17,5.2 c-0.16,0.39-0.29,0.75-0.4,1.09c-0.55,1.78-0.7,3.67-0.43,5.49l0.8,5.73l0.26,1.73c0.29,2.06,0.1,4.19-0.56,6.18l-0.63,1.91 c-0.23,0.69-0.35,1.4-0.35,2.11c0,0.68,0.26,1.3,0.74,1.77c0.08,0.08,0.17,0.16,0.26,0.23H26c-0.55,0-1.05-0.22-1.41-0.59 C24.22,44.05,24,43.55,24,43z" opacity=".07"/></g></svg>