<svg xmlns="http://www.w3.org/2000/svg" data-name="Слой 1" viewBox="0 0 48 48"><defs><linearGradient id="uzLRVDaaJk60grVvenomUa" x1="15.478" x2="34.518" y1=".586" y2="52.898" gradientUnits="userSpaceOnUse"><stop offset=".002" stop-color="#427fdb"/><stop offset=".397" stop-color="#2668cb"/><stop offset=".763" stop-color="#1358bf"/><stop offset="1" stop-color="#0c52bb"/></linearGradient></defs><circle cx="24" cy="24" r="20" fill="url(#uzLRVDaaJk60grVvenomUa)"/><path fill="#fff" d="M21.05411,13c8.10071,0,9.2652,6.77625,9.42917,8.85315a1.00042,1.00042,0,0,0,.13815.43372l2.41229,4.04223a.21419.21419,0,0,1,.03342.18054.10753.10753,0,0,1-.06271.06836l-1.8877.74121a1,1,0,0,0-.63031.83924l-.39484,4.29907c-.06994,1.01416-.65048,2.10571-1.75973,2.10571a1.9499,1.9499,0,0,1-.364-.03589l-1.7109-.48889A1,1,0,0,0,24.98221,35v2h-10V34.87219a10.68074,10.68074,0,0,0-1.93848-6.20654c-.01648-.02283-.0339-.045-.05224-.06641A9.57838,9.57838,0,0,1,10.97641,22.426c0-4.5398,3.15366-9.426,10.0777-9.426m0-1c-7.0719,0-11.0777,4.822-11.0777,10.426a10.53725,10.53725,0,0,0,2.2558,6.824,9.72592,9.72592,0,0,1,1.75,5.62219V37a1,1,0,0,0,1,1h10a1,1,0,0,0,1-1V35l1.75.5a2.77938,2.77938,0,0,0,3.357-2.97363l.393-4.27637,1.88769-.74121a1.15023,1.15023,0,0,0,.5213-1.69421l-2.411-4.04017C31.0892,16.822,27.98221,12,21.05411,12Z"/><path fill="#fff" d="M33.499,36.69727a2.469,2.469,0,0,1-.38769-.03028,40.99244,40.99244,0,0,1-7.29785-1.70019h0c-1.90137-.73145-3.82032-2.39649-3.82032-4.4668v-11a.49972.49972,0,0,1,.5-.5h13a.49971.49971,0,0,1,.5.5V34.19531a2.49872,2.49872,0,0,1-2.49414,2.502ZM22.99316,20V30.5c0,1.82422,1.999,3.0791,3.17969,3.5332h0a39.95606,39.95606,0,0,0,7.09375,1.64551,1.47418,1.47418,0,0,0,1.2002-.33984,1.50158,1.50158,0,0,0,.52636-1.14356V20Z"/><path fill="#fff" d="M20.99313,8a12.00105,12.00105,0,0,0-11.95,10.89728A1.00923,1.00923,0,0,0,10.044,20H32.99313A11.99977,11.99977,0,0,0,20.99313,8Z"/><path fill="#fff" d="M32.24313,16l-.25,4h6.45113a.555.555,0,0,0,.23074-1.05972Z"/><rect width="12" height="2" x="10.5" y="23" fill="#fff"/></svg>