<svg xmlns="http://www.w3.org/2000/svg" viewBox="0 0 48 48"><path fill="#bd8215" d="M21,45L21,45c-0.552,0-1-0.448-1-1V27c0-0.552,0.448-1,1-1h0c0.552,0,1,0.448,1,1v17	C22,44.552,21.552,45,21,45z"/><linearGradient id="PwUiPsIcG3dGgRpcCbBnCa" x1="55.466" x2="14.379" y1="20.5" y2="20.5" gradientUnits="userSpaceOnUse"><stop offset="0" stop-color="#ffa1a6"/><stop offset=".187" stop-color="#fd909c"/><stop offset="1" stop-color="#f24472"/></linearGradient><path fill="url(#PwUiPsIcG3dGgRpcCbBnCa)" d="M29.75,31v-4c2.055,0,4.25-1.051,4.25-4c0-1.602-0.895-2.798-2.355-4.618	C30.021,16.358,28,13.84,28,10h4c0,2.434,1.281,4.03,2.765,5.879C36.281,17.769,38,19.911,38,23C38,27.71,34.607,31,29.75,31z"/><linearGradient id="PwUiPsIcG3dGgRpcCbBnCb" x1="27.375" x2="27.375" y1="39.876" y2="27.075" gradientUnits="userSpaceOnUse"><stop offset="0" stop-color="#ffcf54"/><stop offset=".261" stop-color="#fdcb4d"/><stop offset=".639" stop-color="#f7c13a"/><stop offset="1" stop-color="#f0b421"/></linearGradient><path fill="url(#PwUiPsIcG3dGgRpcCbBnCb)" d="M27.177,41.769L27.177,41.769c0.681-0.341,1.262-0.853,1.684-1.487l1.888-2.62L30.338,36.3	c-0.391-0.391-1.024-0.391-1.414,0L24,41.007l0,0l0,0C24.845,41.852,26.109,42.304,27.177,41.769z"/><linearGradient id="PwUiPsIcG3dGgRpcCbBnCc" x1="22" x2="22" y1="39.876" y2="27.075" gradientUnits="userSpaceOnUse"><stop offset="0" stop-color="#ffcf54"/><stop offset=".261" stop-color="#fdcb4d"/><stop offset=".639" stop-color="#f7c13a"/><stop offset="1" stop-color="#f0b421"/></linearGradient><path fill="url(#PwUiPsIcG3dGgRpcCbBnCc)" d="M30.001,38.007c-0.061,0-0.123-0.005-0.186-0.017l-16-3c-0.364-0.068-0.661-0.333-0.771-0.688	c-0.11-0.354-0.015-0.74,0.248-1.002l7-7c0.391-0.391,1.023-0.391,1.414,0s0.391,1.023,0,1.414l-5.659,5.66l14.137,2.65	c0.543,0.102,0.9,0.625,0.798,1.167C30.893,37.672,30.473,38.007,30.001,38.007z"/><linearGradient id="PwUiPsIcG3dGgRpcCbBnCd" x1="55.466" x2="14.379" y1="23.5" y2="23.5" gradientUnits="userSpaceOnUse"><stop offset="0" stop-color="#ffa1a6"/><stop offset=".187" stop-color="#fd909c"/><stop offset="1" stop-color="#f24472"/></linearGradient><path fill="url(#PwUiPsIcG3dGgRpcCbBnCd)" d="M17.5,16L17.5,16C24.404,16,30,21.596,30,28.5V31H7c-1.105,0-2-0.895-2-2v-0.5	C5,21.596,10.596,16,17.5,16z"/><linearGradient id="PwUiPsIcG3dGgRpcCbBnCe" x1="40" x2="40" y1="7.288" y2="15.87" gradientUnits="userSpaceOnUse"><stop offset="0" stop-color="#ffcf54"/><stop offset=".261" stop-color="#fdcb4d"/><stop offset=".639" stop-color="#f7c13a"/><stop offset="1" stop-color="#f0b421"/></linearGradient><path fill="url(#PwUiPsIcG3dGgRpcCbBnCe)" d="M44,12v2c0,0.55-0.45,1-1,1c-0.37,0-0.68-0.21-0.85-0.5h-0.02l-0.83-1.1	c-0.08-0.11-0.18-0.2-0.3-0.26C40.85,13.05,40.68,13,40.5,13H36v-3h6C43.1,10,44,10.9,44,12z"/><linearGradient id="PwUiPsIcG3dGgRpcCbBnCf" x1="55.466" x2="14.379" y1="10" y2="10" gradientUnits="userSpaceOnUse"><stop offset="0" stop-color="#ffa1a6"/><stop offset="1" stop-color="#f24472"/></linearGradient><circle cx="33" cy="10" r="5" fill="url(#PwUiPsIcG3dGgRpcCbBnCf)"/><linearGradient id="PwUiPsIcG3dGgRpcCbBnCg" x1="42.5" x2="42.5" y1="7.288" y2="15.87" gradientUnits="userSpaceOnUse"><stop offset="0" stop-color="#6d6d6d"/><stop offset=".438" stop-color="#626262"/><stop offset=".987" stop-color="#464646"/><stop offset=".998" stop-color="#454545"/></linearGradient><path fill="url(#PwUiPsIcG3dGgRpcCbBnCg)" d="M44,12v2c0,0.55-0.45,1-1,1c-0.37,0-0.68-0.21-0.85-0.5h-0.02l-0.83-1.1	c-0.08-0.11-0.18-0.2-0.3-0.26V10h1C43.1,10,44,10.9,44,12z"/><linearGradient id="PwUiPsIcG3dGgRpcCbBnCh" x1="34" x2="36" y1="10" y2="10" gradientUnits="userSpaceOnUse"><stop offset="0" stop-color="#4c4c4c"/><stop offset="1" stop-color="#343434"/></linearGradient><circle cx="35" cy="10" r="1" fill="url(#PwUiPsIcG3dGgRpcCbBnCh)"/><path d="M19,20h-5.44c-1.97,0-3.67,1.33-4.15,3.24C9.3,23.69,8.9,24,8.44,24H7.17c-0.5,0-0.98,0.09-1.43,0.25 c-0.07,0.21-0.14,0.42-0.21,0.63c-0.07,0.22-0.13,0.45-0.18,0.68C5.87,25.2,6.51,25,7.17,25h1.27c0.92,0,1.72-0.62,1.94-1.51 c0.18-0.73,0.6-1.36,1.16-1.8C12.1,21.26,12.81,21,13.56,21H19c3.87,0,7,3.13,7,7v1c0,1.1-0.9,2-2,2h2.23 c0.48-0.53,0.77-1.24,0.77-2v-1C27,23.59,23.41,20,19,20z" opacity=".05"/><path d="M19,20.5h-5.44c-1.74,0-3.24,1.18-3.67,2.86c-0.16,0.67-0.76,1.14-1.45,1.14H7.17c-0.59,0-1.14,0.14-1.64,0.38 c-0.07,0.22-0.13,0.45-0.18,0.68C5.87,25.2,6.51,25,7.17,25h1.27c0.92,0,1.72-0.62,1.94-1.51c0.18-0.73,0.6-1.36,1.16-1.8 C12.1,21.26,12.81,21,13.56,21H19c3.87,0,7,3.13,7,7v1c0,1.1-0.9,2-2,2h1.5c0.61-0.46,1-1.18,1-2v-1C26.5,23.86,23.14,20.5,19,20.5 z" opacity=".07"/><linearGradient id="PwUiPsIcG3dGgRpcCbBnCi" x1="-.528" x2="33.037" y1="26" y2="26" gradientUnits="userSpaceOnUse"><stop offset="0" stop-color="#ffa1a6"/><stop offset=".187" stop-color="#fd909c"/><stop offset="1" stop-color="#f24472"/></linearGradient><path fill="url(#PwUiPsIcG3dGgRpcCbBnCi)" d="M10.379,23.485L10.379,23.485C10.156,24.375,9.356,25,8.438,25L7.17,25	c-1.624,0-3.081,1.216-3.165,2.839C3.914,29.569,5.29,31,7,31h3h4h10c1.105,0,2-0.895,2-2v-1c0-3.866-3.134-7-7-7h-5.438	C12.056,21,10.744,22.025,10.379,23.485z"/></svg>