<svg xmlns="http://www.w3.org/2000/svg" viewBox="0 0 48 48"><linearGradient id="RMMBF06qW0Rj_Hw~Eq568a" x1="7.25" x2="41.583" y1="25.5" y2="25.5" gradientUnits="userSpaceOnUse"><stop offset="0" stop-color="#a34f27"/><stop offset=".587" stop-color="#8b3817"/><stop offset="1" stop-color="#802d10"/></linearGradient><path fill="url(#RMMBF06qW0Rj_Hw~Eq568a)" d="M22.171,6.102C14.817,6.917,8.884,12.877,8.095,20.234	c-0.683,6.369,2.381,12.068,7.254,15.207c1.062,0.684,1.821,1.746,2.247,2.935C18.98,42.236,22.663,45,27,45c12,0,13-15,13-23	C40,12.561,31.826,5.031,22.171,6.102z"/><linearGradient id="RMMBF06qW0Rj_Hw~Eq568b" x1="24" x2="24" y1=".605" y2="54.907" gradientUnits="userSpaceOnUse"><stop offset="0" stop-color="#d4943b"/><stop offset="1" stop-color="#c2620e"/><stop offset="1" stop-color="#c2620e"/></linearGradient><path fill="url(#RMMBF06qW0Rj_Hw~Eq568b)" d="M22.171,3.102C14.817,3.917,8.884,9.877,8.095,17.234c-0.683,6.369,2.381,12.068,7.254,15.207	c1.062,0.684,1.821,1.746,2.247,2.935C18.98,39.236,22.663,42,27,42c12,0,13-15,13-23C40,9.561,31.826,2.031,22.171,3.102z"/><linearGradient id="RMMBF06qW0Rj_Hw~Eq568c" x1="24" x2="24" y1=".248" y2="51.683" gradientUnits="userSpaceOnUse"><stop offset="0" stop-color="#a34f27"/><stop offset=".587" stop-color="#8b3817"/><stop offset="1" stop-color="#802d10"/></linearGradient><path fill="url(#RMMBF06qW0Rj_Hw~Eq568c)" d="M38,18.997v0.6c-0.01,0.67-0.02,1.33-0.04,1.96c-0.01,0.33-0.02,0.65-0.04,0.96	c-0.03,0.6-0.06,1.17-0.11,1.73c-0.24,3.04-0.71,5.63-1.39,7.77c-0.03,0.08-0.05,0.16-0.08,0.24c-0.19,0.57-0.4,1.12-0.63,1.63	c-0.02,0.06-0.05,0.12-0.08,0.18c-0.23,0.51-0.47,0.98-0.74,1.42c-0.37,0.61-0.77,1.16-1.2,1.64c-0.69,0.77-1.46,1.39-2.32,1.84	c-0.42,0.23-0.85,0.42-1.31,0.57c-0.25,0.08-0.5,0.15-0.76,0.2c-0.18,0.05-0.37,0.09-0.56,0.12c-0.55,0.09-1.13,0.14-1.74,0.14	c-1.8,0-3.51-0.62-4.88-1.68c-0.53-0.4-1.01-0.88-1.43-1.41c-0.47-0.6-0.86-1.28-1.14-2.02c-0.03-0.06-0.05-0.12-0.07-0.18	c-0.22-0.62-0.51-1.2-0.86-1.73c-0.41-0.64-0.91-1.21-1.48-1.68c-0.23-0.2-0.46-0.38-0.71-0.54c-0.32-0.21-0.63-0.43-0.93-0.66	c-1.58-1.2-2.85-2.7-3.77-4.39c-0.12-0.21-0.24-0.43-0.35-0.65c-0.2-0.42-0.38-0.86-0.54-1.3c-0.09-0.25-0.18-0.5-0.24-0.76	c-0.25-0.8-0.42-1.63-0.51-2.47c-0.11-0.94-0.12-1.9-0.03-2.87c0.01-0.07,0.01-0.14,0.02-0.21c0.12-1.11,0.37-2.17,0.74-3.19	c0.13-0.37,0.28-0.73,0.44-1.08c0.14-0.3,0.28-0.59,0.44-0.88c0.25-0.46,0.53-0.9,0.83-1.33c0.39-0.55,0.81-1.07,1.28-1.56	c1.23-1.31,2.72-2.39,4.37-3.15c0.38-0.17,0.77-0.33,1.17-0.47c0.72-0.26,1.48-0.46,2.25-0.59c0.26-0.04,0.52-0.08,0.79-0.11	c0.54-0.06,1.08-0.09,1.61-0.09c1.39,0,2.74,0.21,4.01,0.59c0.26,0.07,0.51,0.15,0.76,0.24c0.44,0.16,0.87,0.35,1.29,0.55	c0.23,0.11,0.44,0.22,0.66,0.34c1.71,0.94,3.21,2.23,4.39,3.77c0.41,0.54,0.79,1.11,1.13,1.71c0.38,0.69,0.71,1.42,0.98,2.18	c0.25,0.73,0.45,1.48,0.58,2.26C37.93,17.407,38,18.197,38,18.997z"/><path fill="#5c2415" d="M37.96,21.557c-0.01,0.33-0.02,0.65-0.04,0.96L37,23.437L19.35,5.787c0.72-0.26,1.48-0.46,2.25-0.59 l3.4,3.4l1.42,1.42l4.58,4.58l1.42,1.42l4.58,4.58L37.96,21.557z"/><path fill="#5c2415" d="M30.06,6.377L13,23.437l-1.42-1.42l1.42-1.42l4.58-4.58l1.42-1.42l4.58-4.58L25,8.597l3.01-3.01 c0.26,0.07,0.51,0.15,0.76,0.24C29.21,5.987,29.64,6.177,30.06,6.377z"/><path fill="#5c2415" d="M36.42,32.017c-0.03,0.08-0.05,0.16-0.08,0.24c-0.19,0.57-0.4,1.12-0.63,1.63 c-0.02,0.06-0.05,0.12-0.08,0.18l-23.1-23.1c0.39-0.55,0.81-1.07,1.28-1.56l0.61,0.61l4.58,4.58l1.42,1.42l4.58,4.58l1.42,1.42 l4.58,4.58l1.42,1.42L36.42,32.017z"/><path fill="#5c2415" d="M36.24,12.197l-19.1,19.1c-0.23-0.2-0.46-0.38-0.71-0.54c-0.32-0.21-0.63-0.43-0.93-0.66l2.08-2.08 l1.42-1.42l4.58-4.58l1.42-1.42l4.58-4.58l1.42-1.42l4.11-4.11C35.52,11.027,35.9,11.597,36.24,12.197z"/><path fill="#5c2415" d="M31.37,38.967c-0.42,0.23-0.85,0.42-1.31,0.57c-0.25,0.08-0.5,0.15-0.76,0.2l-19.21-19.21 c-0.11-0.94-0.12-1.9-0.03-2.87l2.94,2.94l1.42,1.42l4.58,4.58l1.42,1.42l4.58,4.58l1.42,1.42l4.58,4.58L31.37,38.967z"/><path fill="#5c2415" d="M38,19.597c-0.01,0.67-0.02,1.33-0.04,1.96c-0.01,0.33-0.02,0.65-0.04,0.96l-15.8,15.8 c-0.53-0.4-1.01-0.88-1.43-1.41l2.89-2.89l1.42-1.42l4.58-4.58l1.42-1.42l4.58-4.58l1.42-1.42L38,19.597z"/></svg>