<svg xmlns="http://www.w3.org/2000/svg" viewBox="0 0 48 48"><path fill="#184f85" d="M36,40H12v3c0,1.105,0.895,2,2,2h20c1.105,0,2-0.895,2-2V40z"/><rect width="24" height="7" x="12" y="33" fill="#0078d4"/><rect width="24" height="10" x="12" y="23" fill="#1b9de2"/><rect width="24" height="14" x="12" y="9" fill="#35c1f1"/><path fill="#50e6ff" d="M36,9H12V6c0-1.105,0.895-2,2-2h20c1.105,0,2,0.895,2,2V9z"/><circle cx="20" cy="6.5" r=".75" fill="#0c63ad"/><path fill="#0c63ad" d="M27.5,5.75c-0.194,0-4.806,0-5,0c-0.414,0-0.75,0.336-0.75,0.75c0,0.414,0.336,0.75,0.75,0.75	c0.194,0,4.806,0,5,0c0.414,0,0.75-0.336,0.75-0.75C28.25,6.086,27.914,5.75,27.5,5.75z"/><linearGradient id="OWhkMjZWRWzZB870uQmUHa" x1="40.993" x2="48" y1="28" y2="28" gradientUnits="userSpaceOnUse"><stop offset="0" stop-color="#7819a2"/><stop offset="1" stop-color="#771aa9"/></linearGradient><path fill="url(#OWhkMjZWRWzZB870uQmUHa)" d="M44.875,28c0,3.278-1.515,6.2-3.882,8.11l1.626,1.626c0.35,0.35,0.917,0.352,1.27,0.007	C46.423,35.268,48,31.821,48,28s-1.577-7.268-4.11-9.743c-0.354-0.346-0.921-0.343-1.27,0.007l-1.626,1.626	C43.36,21.8,44.875,24.722,44.875,28z"/><linearGradient id="OWhkMjZWRWzZB870uQmUHb" x1="38.612" x2="44.875" y1="28" y2="28" gradientUnits="userSpaceOnUse"><stop offset="0" stop-color="#912fbd"/><stop offset="1" stop-color="#9332bf"/></linearGradient><path fill="url(#OWhkMjZWRWzZB870uQmUHb)" d="M41.542,28c0,2.358-1.157,4.441-2.929,5.729l2.381,2.381c2.367-1.909,3.882-4.832,3.882-8.11	s-1.515-6.2-3.882-8.11l-2.381,2.381C40.385,23.559,41.542,25.642,41.542,28z"/><linearGradient id="OWhkMjZWRWzZB870uQmUHc" x1="36.202" x2="41.542" y1="28" y2="28" gradientUnits="userSpaceOnUse"><stop offset="0" stop-color="#ae4cd5"/><stop offset="1" stop-color="#ac4ad5"/></linearGradient><path fill="url(#OWhkMjZWRWzZB870uQmUHc)" d="M41.542,28c0-2.358-1.157-4.441-2.929-5.729l-2.41,2.41c1.192,0.628,2.006,1.877,2.006,3.318	s-0.814,2.691-2.006,3.318l2.41,2.41C40.385,32.441,41.542,30.358,41.542,28z"/><linearGradient id="OWhkMjZWRWzZB870uQmUHd" x1="33.256" x2="38.208" y1="28" y2="28" gradientUnits="userSpaceOnUse"><stop offset="0" stop-color="#c965eb"/><stop offset="1" stop-color="#c767e5"/></linearGradient><path fill="url(#OWhkMjZWRWzZB870uQmUHd)" d="M33.52,28.636l2.682,2.682c1.192-0.628,2.006-1.877,2.006-3.318s-0.814-2.691-2.006-3.318	l-2.682,2.682C33.168,27.715,33.168,28.285,33.52,28.636z"/></svg>