<svg xmlns="http://www.w3.org/2000/svg" viewBox="0 0 48 48"><linearGradient id="vslcRTSNH4fXygNobsRzxa" x1="16.86" x2="29.576" y1="2339.533" y2="2379.546" gradientTransform="translate(0 -2338)" gradientUnits="userSpaceOnUse"><stop offset="0" stop-color="#c77740"/><stop offset="1" stop-color="#b0622b"/></linearGradient><path fill="url(#vslcRTSNH4fXygNobsRzxa)" d="M38,4H26c0,1.105-0.895,2-2,2s-2-0.895-2-2H10C8.895,4,8,4.895,8,6v36c0,1.105,0.895,2,2,2h28	c1.105,0,2-0.895,2-2V6C40,4.895,39.105,4,38,4z"/><linearGradient id="vslcRTSNH4fXygNobsRzxb" x1="24" x2="24" y1="2374.966" y2="2378.893" gradientTransform="translate(0 -2338)" gradientUnits="userSpaceOnUse"><stop offset=".442" stop-color="#878786"/><stop offset=".594" stop-color="#9f9f9e"/><stop offset=".859" stop-color="#c3c3c3"/><stop offset="1" stop-color="#d1d1d1"/></linearGradient><path fill="url(#vslcRTSNH4fXygNobsRzxb)" d="M37,42H11c-0.552,0-1-0.448-1-1v-9h28v9C38,41.552,37.552,42,37,42z"/><path fill="#f3f3f3" d="M37,40H11c-0.552,0-1-0.448-1-1V7c0-0.552,0.448-1,1-1h26c0.552,0,1,0.448,1,1v32	C38,39.552,37.552,40,37,40z"/><linearGradient id="vslcRTSNH4fXygNobsRzxc" x1="-3268.93" x2="-3267.046" y1="-70.928" y2="-63.091" gradientTransform="rotate(180 -1622 -30.5)" gradientUnits="userSpaceOnUse"><stop offset="0" stop-color="#c3cdd9"/><stop offset="1" stop-color="#9fa7b0"/></linearGradient><path fill="url(#vslcRTSNH4fXygNobsRzxc)" d="M31,8V4h-4.184C26.403,2.837,25.304,2,24,2s-2.403,0.837-2.816,2H17v4c0,0.552,0.448,1,1,1h12	C30.552,9,31,8.552,31,8z M24,4c0.552,0,1,0.448,1,1s-0.448,1-1,1s-1-0.448-1-1S23.448,4,24,4z"/><path d="M21,13c-1.65,0-3,1.35-3,3v28h20c1.105,0,2-0.895,2-2V13H21z" opacity=".05"/><path d="M40,13.5V42c0,1.105-0.895,2-2,2H18.5V16c0-1.381,1.119-2.5,2.5-2.5H40z" opacity=".05"/><path fill="#50e6ff" d="M42,46H21c-1.105,0-2-0.895-2-2V16c0-1.105,0.895-2,2-2h21c1.105,0,2,0.895,2,2v28	C44,45.105,43.105,46,42,46z"/><path fill="#057093" d="M27,33c0-3,2-5,6-9l3,3c-4,4-8,7-4,13C32,40,27,37,27,33z"/><path fill="#057093" d="M37,30.793V24c0-0.552-0.448-1-1-1h-6.793c-0.445,0-0.669,0.539-0.354,0.854l7.293,7.293 C36.461,31.461,37,31.238,37,30.793z"/></svg>