<svg xmlns="http://www.w3.org/2000/svg" viewBox="0 0 48 48"><linearGradient id="bpU~N0dVGO0Kmn1lcTVhNa" x1="24" x2="24" y1="2.471" y2="50.87" gradientUnits="userSpaceOnUse"><stop offset="0" stop-color="#2aa4f4"/><stop offset="1" stop-color="#007ad9"/></linearGradient><path fill="url(#bpU~N0dVGO0Kmn1lcTVhNa)" d="M40,42H8c-1.105,0-2-0.895-2-2V8c0-1.105,0.895-2,2-2h32c1.105,0,2,0.895,2,2v32	C42,41.105,41.105,42,40,42z"/><linearGradient id="bpU~N0dVGO0Kmn1lcTVhNb" x1="24" x2="24" y1="7.147" y2="25.588" gradientUnits="userSpaceOnUse"><stop offset="0" stop-color="#f9f9f9"/><stop offset=".26" stop-color="#f0f1f2"/><stop offset=".678" stop-color="#d9dcdf"/><stop offset="1" stop-color="#c2c8cc"/></linearGradient><path fill="url(#bpU~N0dVGO0Kmn1lcTVhNb)" d="M37.97,12.73c-0.39,2.01-1.83,5.17-2.48,6.95C35.2,20.47,34.45,21,33.62,21H14.38	c-0.83,0-1.58-0.53-1.87-1.32c-0.65-1.78-2.09-4.94-2.48-6.95c-0.21-1.06,0.43-2.09,1.47-2.35c1.02-0.26,2.11-0.48,3.24-0.66	c0.66-0.12,1.33-0.21,2.02-0.29c2-0.25,4.12-0.39,6.24-0.42c0.67-0.01,1.33-0.01,2,0c2.12,0.03,4.24,0.17,6.24,0.42	c0.69,0.08,1.36,0.17,2.02,0.29c1.13,0.18,2.22,0.4,3.24,0.66C37.54,10.64,38.18,11.67,37.97,12.73z"/><path d="M13,28c-1.1,0-2,0.9-2,2v4c0,1.1,0.9,2,2,2h28.5c0.17,0,0.34-0.02,0.5-0.07v-1.07C41.85,34.95,41.68,35,41.5,35H13 c-0.55,0-1-0.45-1-1v-4c0-0.55,0.45-1,1-1h29v-1H13z" opacity=".05"/><path d="M13,29h29v-0.5H13c-0.83,0-1.5,0.67-1.5,1.5v4c0,0.83,0.67,1.5,1.5,1.5h28.5c0.17,0,0.34-0.03,0.5-0.08v-0.56 C41.85,34.95,41.68,35,41.5,35H13c-0.55,0-1-0.45-1-1v-4C12,29.45,12.45,29,13,29z" opacity=".07"/><linearGradient id="bpU~N0dVGO0Kmn1lcTVhNc" x1="12" x2="43.049" y1="32" y2="32" gradientUnits="userSpaceOnUse"><stop offset="0" stop-color="#fede00"/><stop offset="1" stop-color="#ffd000"/></linearGradient><path fill="url(#bpU~N0dVGO0Kmn1lcTVhNc)" d="M43,30.5l-0.551,3.816C42.313,34.725,41.93,35,41.5,35H13c-0.55,0-1-0.45-1-1v-4	c0-0.55,0.45-1,1-1h29C42.683,29,43.216,29.852,43,30.5z"/><path fill="#ccc" d="M16,29v6h-3c-0.55,0-1-0.45-1-1v-4c0-0.55,0.45-1,1-1H16z"/><path fill="#575c61" d="M19,33L19,33c-0.552,0-1-0.448-1-1v-3h2v3C20,32.552,19.552,33,19,33z"/><path fill="#575c61" d="M23,31L23,31c-0.552,0-1-0.448-1-1v-1h2v1C24,30.552,23.552,31,23,31z"/><path fill="#575c61" d="M27,33L27,33c-0.552,0-1-0.448-1-1v-3h2v3C28,32.552,27.552,33,27,33z"/><path fill="#575c61" d="M31,31L31,31c-0.552,0-1-0.448-1-1v-1h2v1C32,30.552,31.552,31,31,31z"/><path fill="#575c61" d="M35,33L35,33c-0.552,0-1-0.448-1-1v-3h2v3C36,32.552,35.552,33,35,33z"/><path fill="#575c61" d="M39,31L39,31c-0.552,0-1-0.448-1-1v-1h2v1C40,30.552,39.552,31,39,31z"/><path fill="#575c61" d="M25,9.01V12c0,0.55-0.45,1-1,1s-1-0.45-1-1V9.01C23.67,9,24.33,9,25,9.01z"/><path fill="#575c61" d="M17.34,13.94c-0.52,0.19-1.09-0.08-1.28-0.6l-1.32-3.62c0.66-0.12,1.33-0.21,2.02-0.29l1.18,3.23	C18.13,13.18,17.86,13.75,17.34,13.94z"/><path fill="#575c61" d="M33.26,9.72l-1.32,3.62c-0.19,0.52-0.76,0.79-1.28,0.6c-0.52-0.19-0.79-0.76-0.6-1.28l1.18-3.23	C31.93,9.51,32.6,9.6,33.26,9.72z"/><path fill="#575c61" d="M23,15.666L22,21h4l-1.162-5.334C24.492,14.778,23.346,14.778,23,15.666z"/></svg>