<svg xmlns="http://www.w3.org/2000/svg" viewBox="0 0 48 48"><linearGradient id="qbnsC~0SzbdTEU0vTaHuHa" x1="24.212" x2="24.212" y1="-5.044" y2="36.728" gradientUnits="userSpaceOnUse"><stop offset="0" stop-color="#30dc80"/><stop offset="1" stop-color="#21ad64"/></linearGradient><path fill="url(#qbnsC~0SzbdTEU0vTaHuHa)" d="M44.955,38.15l-1.765-1.436C42.623,36.252,41.915,36,41.184,36h-5.206H24h-0.062 C15.84,35.792,9,31.58,9,23.5c0-6.991,5.82-12.658,13-12.658c2.481,0,4.791,0.689,6.763,1.863 c5.636,3.412,6.849,14.439-3.438,16.121C24.56,28.951,24,29.622,24,30.397C24,31.282,24.717,32,25.603,32h6.01h4.416 c0.837,0,1.656-0.302,2.261-0.881c1.89-1.804,3.46-5.077,3.46-8.396C41.75,11.617,34.191,4,22,4C9.681,4,2.25,14.033,2.25,24.25 S9.426,43,21,43c2.312,0,5.514-1.425,7.561-2.164c5.695-1.964,11.216-1.07,14.681,0.713C45.569,42.782,47.532,40.197,44.955,38.15z"/></svg>