<svg xmlns="http://www.w3.org/2000/svg" viewBox="0 0 48 48"><rect width="2" height="17.692" x="28.501" y="14.155" fill="#64717c" transform="rotate(-47.289 29.5 23)"/><rect width="17.692" height="2" x="9.654" y="22.001" fill="#64717c" transform="rotate(-42.701 18.5 23)"/><linearGradient id="uoYr0rMi799Iib6kqjeBma" x1="19.227" x2="27.636" y1="307.05" y2="322.867" gradientTransform="translate(0 -301.78)" gradientUnits="userSpaceOnUse"><stop offset="0" stop-color="#7dd8f3"/><stop offset="1" stop-color="#45b0d0"/></linearGradient><path fill="url(#uoYr0rMi799Iib6kqjeBma)" d="M11,20V8h26v12c0,1.1-0.9,2-2,2H13C11.9,22,11,21.1,11,20z"/><linearGradient id="uoYr0rMi799Iib6kqjeBmb" x1="10.48" x2="38.523" y1="305.688" y2="310.343" gradientTransform="translate(0 -301.78)" gradientUnits="userSpaceOnUse"><stop offset="0" stop-color="#0077d2"/><stop offset="1" stop-color="#0b59a2"/></linearGradient><path fill="url(#uoYr0rMi799Iib6kqjeBmb)" d="M37,6v2H11V6c0-1.1,0.9-2,2-2h22C36.1,4,37,4.9,37,6z"/><linearGradient id="uoYr0rMi799Iib6kqjeBmc" x1="14.107" x2="15.814" y1="34.998" y2="36.705" gradientTransform="matrix(1 0 0 -1 0 47.89)" gradientUnits="userSpaceOnUse"><stop offset=".003" stop-color="#42a3f2"/><stop offset="1" stop-color="#42a4eb"/></linearGradient><path fill="url(#uoYr0rMi799Iib6kqjeBmc)" d="M15.5,13h-1c-0.276,0-0.5-0.224-0.5-0.5v-1c0-0.276,0.224-0.5,0.5-0.5h1	c0.276,0,0.5,0.224,0.5,0.5v1C16,12.776,15.776,13,15.5,13z"/><path fill="#195bbc" d="M33.5,13h-15c-0.276,0-0.5-0.224-0.5-0.5v-1c0-0.276,0.224-0.5,0.5-0.5h15c0.276,0,0.5,0.224,0.5,0.5	v1C34,12.776,33.776,13,33.5,13z"/><linearGradient id="uoYr0rMi799Iib6kqjeBmd" x1="14.107" x2="15.814" y1="29.997" y2="31.704" gradientTransform="matrix(1 0 0 -1 0 47.89)" gradientUnits="userSpaceOnUse"><stop offset=".003" stop-color="#42a3f2"/><stop offset="1" stop-color="#42a4eb"/></linearGradient><path fill="url(#uoYr0rMi799Iib6kqjeBmd)" d="M15.5,18h-1c-0.276,0-0.5-0.224-0.5-0.5v-1c0-0.276,0.224-0.5,0.5-0.5h1	c0.276,0,0.5,0.224,0.5,0.5v1C16,17.776,15.776,18,15.5,18z"/><path fill="#195bbc" d="M33.5,18h-15c-0.276,0-0.5-0.224-0.5-0.5v-1c0-0.276,0.224-0.5,0.5-0.5h15c0.276,0,0.5,0.224,0.5,0.5	v1C34,17.776,33.776,18,33.5,18z"/><linearGradient id="uoYr0rMi799Iib6kqjeBme" x1="35" x2="35" y1="340.769" y2="345.79" gradientTransform="translate(0 -301.78)" gradientUnits="userSpaceOnUse"><stop offset="0" stop-color="#484b4f"/><stop offset=".374" stop-color="#656d75"/><stop offset=".597" stop-color="#727d86"/><stop offset=".604" stop-color="#86949e"/></linearGradient><path fill="url(#uoYr0rMi799Iib6kqjeBme)" d="M39.5,42H37v-3h-4v3h-2.5c-0.276,0-0.5,0.224-0.5,0.5v1c0,0.276,0.224,0.5,0.5,0.5h9	c0.276,0,0.5-0.224,0.5-0.5v-1C40,42.224,39.776,42,39.5,42z"/><radialGradient id="uoYr0rMi799Iib6kqjeBmf" cx="43.399" cy="345.261" r="23.427" gradientTransform="translate(0 -301.78)" gradientUnits="userSpaceOnUse"><stop offset=".323" stop-color="#23d9d6"/><stop offset=".427" stop-color="#23d4d7"/><stop offset=".542" stop-color="#21c7dc"/><stop offset=".664" stop-color="#1fb0e2"/><stop offset=".789" stop-color="#1c91ec"/><stop offset=".917" stop-color="#1969f8"/><stop offset=".944" stop-color="#1860fb"/></radialGradient><path fill="url(#uoYr0rMi799Iib6kqjeBmf)" d="M42,40H28c-0.552,0-1-0.448-1-1V29c0-0.552,0.448-1,1-1h14c0.552,0,1,0.448,1,1v10	C43,39.552,42.552,40,42,40z"/><linearGradient id="uoYr0rMi799Iib6kqjeBmg" x1="13" x2="13" y1="340.769" y2="345.79" gradientTransform="translate(0 -301.78)" gradientUnits="userSpaceOnUse"><stop offset="0" stop-color="#484b4f"/><stop offset=".374" stop-color="#656d75"/><stop offset=".597" stop-color="#727d86"/><stop offset=".604" stop-color="#86949e"/></linearGradient><path fill="url(#uoYr0rMi799Iib6kqjeBmg)" d="M17.5,42H15v-3h-4v3H8.5C8.224,42,8,42.224,8,42.5v1C8,43.776,8.224,44,8.5,44h9	c0.276,0,0.5-0.224,0.5-0.5v-1C18,42.224,17.776,42,17.5,42z"/><radialGradient id="uoYr0rMi799Iib6kqjeBmh" cx="21.399" cy="345.261" r="23.427" gradientTransform="translate(0 -301.78)" gradientUnits="userSpaceOnUse"><stop offset=".323" stop-color="#23d9d6"/><stop offset=".427" stop-color="#23d4d7"/><stop offset=".542" stop-color="#21c7dc"/><stop offset=".664" stop-color="#1fb0e2"/><stop offset=".789" stop-color="#1c91ec"/><stop offset=".917" stop-color="#1969f8"/><stop offset=".944" stop-color="#1860fb"/></radialGradient><path fill="url(#uoYr0rMi799Iib6kqjeBmh)" d="M20,40H6c-0.552,0-1-0.448-1-1V29c0-0.552,0.448-1,1-1h14c0.552,0,1,0.448,1,1v10	C21,39.552,20.552,40,20,40z"/></svg>