<svg xmlns="http://www.w3.org/2000/svg" viewBox="0 0 48 48"><radialGradient id="Uv5gUSKIjDiZyILfUEwdQa" cx="48.258" cy="37.378" r="56.038" gradientUnits="userSpaceOnUse"><stop offset=".131" stop-color="#23d9d6"/><stop offset=".214" stop-color="#21bddd"/><stop offset=".364" stop-color="#1e90e7"/><stop offset=".508" stop-color="#1b6cf0"/><stop offset=".642" stop-color="#1953f6"/><stop offset=".764" stop-color="#1843fa"/><stop offset=".862" stop-color="#183efb"/></radialGradient><path fill="url(#Uv5gUSKIjDiZyILfUEwdQa)" d="M43,33H12c-0.552,0-1-0.448-1-1V9c0-0.552,0.448-1,1-1h31c0.552,0,1,0.448,1,1v23	C44,32.552,43.552,33,43,33z"/><linearGradient id="Uv5gUSKIjDiZyILfUEwdQb" x1="11.972" x2="29.533" y1="25.875" y2="25.875" gradientUnits="userSpaceOnUse"><stop offset=".002" stop-color="#454545"/><stop offset=".013" stop-color="#464646"/><stop offset=".562" stop-color="#626262"/><stop offset="1" stop-color="#6d6d6d"/></linearGradient><path fill="url(#Uv5gUSKIjDiZyILfUEwdQb)" d="M25.02,26.74l-4.38,2.92C20.3,29.89,19.92,30,19.53,30c-0.42,0-0.84-0.13-1.19-0.39	l-5.75-4.25c-0.89-0.66-1.07-1.91-0.42-2.8c0.66-0.89,1.91-1.07,2.8-0.42l4.62,3.42l2.93-1.95L25.02,26.74z"/><linearGradient id="Uv5gUSKIjDiZyILfUEwdQc" x1="9.682" x2="12.379" y1="328.716" y2="321.285" gradientTransform="matrix(1 0 0 -1 0 340)" gradientUnits="userSpaceOnUse"><stop offset="0" stop-color="#ffcf54"/><stop offset=".261" stop-color="#fdcb4d"/><stop offset=".639" stop-color="#f7c13a"/><stop offset="1" stop-color="#f0b421"/></linearGradient><path fill="url(#Uv5gUSKIjDiZyILfUEwdQc)" d="M11.03,19c-2.2,0-4-1.8-4-4s1.8-4,4-4s4,1.8,4,4S13.23,19,11.03,19"/><linearGradient id="Uv5gUSKIjDiZyILfUEwdQd" x1="7" x2="7" y1="39.971" y2="16.307" gradientUnits="userSpaceOnUse"><stop offset=".002" stop-color="#454545"/><stop offset=".013" stop-color="#464646"/><stop offset=".562" stop-color="#626262"/><stop offset="1" stop-color="#6d6d6d"/></linearGradient><path fill="url(#Uv5gUSKIjDiZyILfUEwdQd)" d="M11,21H9.667C5.991,21,3,23.991,3,27.667V36h8V21z"/><linearGradient id="Uv5gUSKIjDiZyILfUEwdQe" x1="11.03" x2="11.03" y1="43.074" y2="20.263" gradientUnits="userSpaceOnUse"><stop offset=".002" stop-color="#454545"/><stop offset=".013" stop-color="#464646"/><stop offset=".562" stop-color="#626262"/><stop offset="1" stop-color="#6d6d6d"/></linearGradient><path fill="url(#Uv5gUSKIjDiZyILfUEwdQe)" d="M16.03,25L15,41H6.03V25c0-1.87,1.29-3.45,3.03-3.88C9.37,21.04,9.7,21,10.03,21h2	c0.33,0,0.66,0.04,0.97,0.12C14.74,21.55,16.03,23.13,16.03,25z"/><linearGradient id="Uv5gUSKIjDiZyILfUEwdQf" x1="11.001" x2="11.001" y1="31" y2="19.12" gradientUnits="userSpaceOnUse"><stop offset="0" stop-color="#f9f9f9"/><stop offset="1" stop-color="#c2c8cc"/></linearGradient><path fill="url(#Uv5gUSKIjDiZyILfUEwdQf)" d="M9.01,21.03c-0.025,0.003,0.02,0.1,0.02,0.1L11,28.88L11.03,29L13,21.12	C12.69,21.04,12.36,21,12.03,21H11c0,0-0.727,0-0.97,0C10,21,9.25,21,9.01,21.03z"/><linearGradient id="Uv5gUSKIjDiZyILfUEwdQg" x1="22.52" x2="26.032" y1="24.869" y2="24.869" gradientUnits="userSpaceOnUse"><stop offset="0" stop-color="#ffcf54"/><stop offset=".261" stop-color="#fdcb4d"/><stop offset=".639" stop-color="#f7c13a"/><stop offset="1" stop-color="#f0b421"/></linearGradient><path fill="url(#Uv5gUSKIjDiZyILfUEwdQg)" d="M25.14,26.66l-0.12,0.08l-2.5-3.13l0.4-0.27c0.92-0.62,2.16-0.37,2.77,0.55	C26.31,24.81,26.06,26.05,25.14,26.66z"/><g opacity=".05"><path d="M11.03,10H11v1h0.03c2.2,0,4,1.8,4,4s-1.8,4-4,4H11v1h0.03c2.76,0,5-2.24,5-5S13.79,10,11.03,10z"/><path d="M26.52,23.33C25.97,22.5,25.04,22,24.03,22c-0.59,0-1.17,0.18-1.67,0.51l-0.4,0.27l-2.34,1.56l-4.05-3 c-0.16-0.11-0.32-0.21-0.5-0.29c-0.56-0.44-1.17-0.74-1.83-0.9c-0.38-0.1-0.79-0.15-1.21-0.15H11v1h1.03 c0.33,0,0.66,0.04,0.97,0.12c0.58,0.14,1.1,0.42,1.55,0.79c0.15,0.06,0.29,0.13,0.42,0.23l4.62,3.42l2.93-1.95l0.4-0.27 c0.34-0.23,0.73-0.34,1.11-0.34c0.65,0,1.28,0.31,1.66,0.89c0.62,0.92,0.37,2.16-0.55,2.77l-0.12,0.08l-4.38,2.92 C20.3,29.89,19.92,30,19.53,30c-0.42,0-0.84-0.13-1.19-0.39l-2.49-1.84L15.51,33h1.01l0.21-3.34l1.02,0.75 c0.5,0.38,1.14,0.59,1.78,0.59c0.6,0,1.18-0.18,1.67-0.51l4.38-2.92l0.12-0.08c0.66-0.44,1.12-1.12,1.27-1.91 C27.13,24.8,26.97,24,26.52,23.33z"/></g><g opacity=".07"><path d="M11.03,10.5H11V11h0.03c2.2,0,4,1.8,4,4s-1.8,4-4,4H11v0.5h0.03c2.48,0,4.5-2.02,4.5-4.5 C15.53,12.52,13.51,10.5,11.03,10.5z"/><path d="M26.11,23.61c-0.47-0.69-1.24-1.11-2.08-1.11c-0.49,0-0.98,0.15-1.39,0.43l-0.4,0.27l-2.63,1.75l-4.34-3.21 c-0.14-0.1-0.29-0.19-0.46-0.26c-0.51-0.41-1.08-0.7-1.69-0.85c-0.34-0.08-0.71-0.13-1.09-0.13H11V21h1.03 c0.33,0,0.66,0.04,0.97,0.12c0.58,0.14,1.1,0.42,1.55,0.79c0.15,0.06,0.29,0.13,0.42,0.23l4.62,3.42l2.93-1.95l0.4-0.27 c0.34-0.23,0.73-0.34,1.11-0.34c0.65,0,1.28,0.31,1.66,0.89c0.62,0.92,0.37,2.16-0.55,2.77l-0.12,0.08l-4.38,2.92 C20.3,29.89,19.92,30,19.53,30c-0.42,0-0.84-0.13-1.19-0.39l-2.49-1.84L15.51,33h0.51l0.27-4.28l1.75,1.29 c0.43,0.32,0.95,0.49,1.49,0.49c0.5,0,0.98-0.15,1.39-0.43l4.38-2.91l0.12-0.08c0.55-0.37,0.93-0.94,1.06-1.59 C26.61,24.83,26.48,24.17,26.11,23.61z"/></g><linearGradient id="Uv5gUSKIjDiZyILfUEwdQh" x1="4.5" x2="4.5" y1="39.647" y2="33.719" gradientUnits="userSpaceOnUse"><stop offset="0" stop-color="#ffcf54"/><stop offset=".261" stop-color="#fdcb4d"/><stop offset=".639" stop-color="#f7c13a"/><stop offset="1" stop-color="#f0b421"/></linearGradient><path fill="url(#Uv5gUSKIjDiZyILfUEwdQh)" d="M6,36H3v0.5C3,37.328,3.672,38,4.5,38h0C5.328,38,6,37.328,6,36.5V36z"/><circle cx="11" cy="17" r="1" fill="#997119"/><g opacity=".05"><path d="M33,21c1.657,0,3,1.343,3,3s-1.343,3-3,3s-3-1.343-3-3S31.343,21,33,21 M33,20c-2.206,0-4,1.794-4,4s1.794,4,4,4 s4-1.794,4-4S35.206,20,33,20L33,20z"/><path d="M38.5,15c0.276,0,0.5,0.224,0.5,0.5v1c0,0.276-0.224,0.5-0.5,0.5H36v7h-2v-8c0-0.552,0.448-1,1-1H38.5 M38.5,14H35 c-1.103,0-2,0.897-2,2v8v1h1h2h1v-1v-6h1.5c0.827,0,1.5-0.673,1.5-1.5v-1C40,14.673,39.327,14,38.5,14L38.5,14z"/></g><g opacity=".07"><path d="M33,21c1.657,0,3,1.343,3,3s-1.343,3-3,3s-3-1.343-3-3S31.343,21,33,21 M33,20.5c-1.93,0-3.5,1.57-3.5,3.5 s1.57,3.5,3.5,3.5s3.5-1.57,3.5-3.5S34.93,20.5,33,20.5L33,20.5z"/><path d="M38.5,15c0.276,0,0.5,0.224,0.5,0.5v1c0,0.276-0.224,0.5-0.5,0.5H36v7h-2v-8c0-0.552,0.448-1,1-1H38.5 M38.5,14.5H35 c-0.827,0-1.5,0.673-1.5,1.5v8v0.5H34h2h0.5V24v-6.5h2c0.551,0,1-0.449,1-1v-1C39.5,14.949,39.051,14.5,38.5,14.5L38.5,14.5z"/></g><path fill="#fff" d="M33,21c-1.657,0-3,1.343-3,3s1.343,3,3,3s3-1.343,3-3S34.657,21,33,21z"/><path fill="#fff" d="M38.5,15H35c-0.552,0-1,0.448-1,1v8h2v-7h2.5c0.276,0,0.5-0.224,0.5-0.5v-1 C39,15.224,38.776,15,38.5,15z"/></svg>