<svg xmlns="http://www.w3.org/2000/svg" viewBox="0 0 48 48"><linearGradient id="xA1jodRElSxedVkSxwvq~a" x1="4.587" x2="48.665" y1="4.587" y2="48.665" gradientUnits="userSpaceOnUse"><stop offset=".002" stop-color="#427fdb"/><stop offset=".397" stop-color="#2668cb"/><stop offset=".763" stop-color="#1358bf"/><stop offset="1" stop-color="#0c52bb"/></linearGradient><path fill="url(#xA1jodRElSxedVkSxwvq~a)" d="M8,42h32c1.105,0,2-0.895,2-2V8c0-1.105-0.895-2-2-2H8C6.895,6,6,6.895,6,8v32	C6,41.105,6.895,42,8,42z"/><g opacity=".05"><path d="M39,18v2h-2v2h-3v-2H14v2h-3v-2H9v-2H39 M40,17h-1H9H8v1v2v1h1h1v1v1h1h3h1v-1v-1h18v1v1h1h3h1v-1v-1h1h1v-1v-2V17L40,17z"/><path d="M26.25,10c0.44,0,0.83,0.3,0.96,0.73L28.72,16H25v-6H26.25 M26.25,9H25h-1v1v6v1h1h3.72h1.327l-0.365-1.275l-1.51-5.27 C27.911,9.592,27.122,9,26.25,9L26.25,9z"/><path d="M30.43,22l4.21,14.73c0.18,0.63-0.3,1.27-0.97,1.27H25V22H30.43 M31.184,21H30.43H25h-1v1v16v1h1h8.67 c0.636,0,1.221-0.291,1.604-0.799c0.381-0.505,0.5-1.141,0.328-1.746l-4.21-14.73L31.184,21L31.184,21z"/><path d="M23,10v6h-3.72l1.51-5.27C20.92,10.3,21.31,10,21.75,10H23 M24,9h-1h-1.25c-0.872,0-1.661,0.592-1.917,1.441l-1.514,5.284 L17.953,17h1.327H23h1v-1v-6V9L24,9z"/><path d="M23,22v16h-8.67c-0.67,0-1.15-0.64-0.97-1.27L17.57,22H23 M24,21h-1h-5.43h-0.754l-0.207,0.725l-4.21,14.73 c-0.173,0.605-0.053,1.241,0.328,1.746C13.109,38.709,13.694,39,14.33,39H23h1v-1V22V21L24,21z"/></g><g opacity=".07"><path d="M39,18v2h-2v2h-3v-2H14v2h-3v-2H9v-2H39 M39.5,17.5H39H9H8.5V18v2v0.5H9h1.5V22v0.5H11h3h0.5V22v-1.5h19V22v0.5H34h3h0.5 V22v-1.5H39h0.5V20v-2V17.5L39.5,17.5z"/><path d="M26.25,10c0.44,0,0.83,0.3,0.96,0.73L28.72,16H25v-6H26.25 M26.25,9.5H25h-0.5V10v6v0.5H25h3.72h0.663l-0.183-0.638 l-1.51-5.27C27.495,9.946,26.904,9.5,26.25,9.5L26.25,9.5z"/><path d="M30.43,22l4.21,14.73c0.18,0.63-0.3,1.27-0.97,1.27H25V22H30.43 M30.807,21.5H30.43H25h-0.5V22v16v0.5H25h8.67 c0.478,0,0.917-0.219,1.205-0.6c0.286-0.378,0.375-0.855,0.246-1.307l-4.21-14.73L30.807,21.5L30.807,21.5z"/><path d="M23,10v6h-3.72l1.51-5.27C20.92,10.3,21.31,10,21.75,10H23 M23.5,9.5H23h-1.25c-0.654,0-1.245,0.446-1.439,1.085 l-1.512,5.277L18.617,16.5h0.663H23h0.5V16v-6V9.5L23.5,9.5z"/><path d="M23,22v16h-8.67c-0.67,0-1.15-0.64-0.97-1.27L17.57,22H23 M23.5,21.5H23h-5.43h-0.377l-0.104,0.363l-4.21,14.73 c-0.129,0.452-0.04,0.929,0.246,1.307c0.288,0.381,0.727,0.6,1.205,0.6H23h0.5V38V22V21.5L23.5,21.5z"/></g><polygon fill="#fff" points="9,18 9,20 11,20 11,22 14,22 14,20 34,20 34,22 37,22 37,20 39,20 39,18"/><path fill="#fff" d="M27.21,10.73C27.08,10.3,26.69,10,26.25,10H25v6h3.72L27.21,10.73z"/><path fill="#fff" d="M30.43,22H25v16h8.67c0.67,0,1.15-0.64,0.97-1.27L30.43,22z"/><path fill="#fff" d="M23,10h-1.25c-0.44,0-0.83,0.3-0.96,0.73L19.28,16H23V10z"/><path fill="#fff" d="M13.36,36.73c-0.18,0.63,0.3,1.27,0.97,1.27H23V22h-5.43L13.36,36.73z"/></svg>