<svg xmlns="http://www.w3.org/2000/svg" viewBox="0 0 48 48"><path fill="#c8f178" fill-rule="evenodd" d="M12.187,14.648l9.532-5.488	c1.399-0.802,3.117-0.803,4.517-0.003l9.571,5.493c0.494,0.283,0.909,0.662,1.253,1.094l3.79-2.182	c-0.446-0.6-1.01-1.102-1.657-1.475L26.764,4.953c-1.731-0.989-3.856-0.987-5.586,0.004L8.801,12.085	c-0.653,0.381-1.222,0.892-1.67,1.501l3.787,2.181C11.265,15.315,11.696,14.935,12.187,14.648 M21.719,38.924l-9.531-5.488	c-1.399-0.807-2.261-2.297-2.264-3.912V18.561c0-0.431,0.07-0.851,0.189-1.254l-3.796-2.188C6.11,15.698,6.003,16.308,6,16.923	v14.239c0.004,1.996,1.07,3.839,2.8,4.837l12.379,7.128c0.586,0.337,1.231,0.553,1.918,0.658v-4.363	C22.613,39.334,22.147,39.166,21.719,38.924" clip-rule="evenodd"/><path fill="#a5de37" fill-rule="evenodd" d="M24.84,27.882v11.544c0.49-0.086,0.962-0.255,1.396-0.499	l9.571-5.492c1.402-0.806,2.267-2.299,2.27-3.916V18.565c-0.002-0.437-0.07-0.872-0.201-1.289l-10.404,5.991	C25.333,24.776,24.871,26.206,24.84,27.882" clip-rule="evenodd"/><path fill="#c8f178" fill-rule="evenodd" d="M41.671,15.09l-3.795,2.187	c0.131,0.417,0.199,0.851,0.201,1.287V29.52c0,1.611-0.87,3.112-2.27,3.916l-9.571,5.491c-0.433,0.244-0.905,0.413-1.394,0.5v4.36	c0.676-0.097,1.329-0.32,1.923-0.657l12.43-7.133c1.733-0.997,2.802-2.842,2.806-4.842V16.928	C41.998,16.301,41.886,15.679,41.671,15.09" clip-rule="evenodd"/><path fill="#a5de37" fill-rule="evenodd" d="M23.968,24.253c0.567-0.922,1.409-1.718,2.622-2.479l10.47-6.03	c-0.345-0.441-0.77-0.813-1.253-1.095l-9.572-5.491c-1.399-0.8-3.117-0.799-4.516,0.002l-9.532,5.488	c-0.501,0.288-0.922,0.677-1.269,1.12l10.423,6.002C22.559,22.536,23.403,23.331,23.968,24.253" clip-rule="evenodd"/><path fill="#a5de37" fill-rule="evenodd" d="M20.448,23.255l-10.334-5.949	c-0.12,0.403-0.19,0.823-0.19,1.254v10.963c0,1.61,0.867,3.109,2.264,3.912l9.531,5.489c0.433,0.248,0.899,0.407,1.377,0.497V27.879	C23.066,26.205,22.604,24.776,20.448,23.255" clip-rule="evenodd"/><linearGradient id="AQXyk19_HkZqSkuDxBdE8a" x1="15.163" x2="35.163" y1="-5.83" y2="36.382" gradientUnits="userSpaceOnUse"><stop offset="0" stop-color="#fff" stop-opacity="0"/><stop offset="1"/></linearGradient><path fill="url(#AQXyk19_HkZqSkuDxBdE8a)" fill-rule="evenodd" d="M24.84,27.882v11.544	c0.49-0.086,0.962-0.255,1.396-0.499l9.571-5.492c1.402-0.806,2.267-2.299,2.27-3.916V18.565c-0.002-0.437-0.07-0.872-0.201-1.289	l-10.404,5.991C25.333,24.776,24.871,26.206,24.84,27.882" clip-rule="evenodd" opacity=".3"/><linearGradient id="AQXyk19_HkZqSkuDxBdE8b" x1="14.019" x2="34.019" y1="-5.288" y2="36.925" gradientUnits="userSpaceOnUse"><stop offset="0" stop-color="#fff" stop-opacity="0"/><stop offset="1"/></linearGradient><path fill="url(#AQXyk19_HkZqSkuDxBdE8b)" fill-rule="evenodd" d="M23.968,24.253	c0.567-0.922,1.409-1.718,2.622-2.479l10.47-6.03c-0.345-0.441-0.77-0.813-1.253-1.095l-9.572-5.491	c-1.399-0.8-3.117-0.799-4.516,0.002l-9.532,5.488c-0.501,0.288-0.922,0.677-1.269,1.12l10.423,6.002	C22.559,22.536,23.403,23.331,23.968,24.253" clip-rule="evenodd" opacity=".3"/><linearGradient id="AQXyk19_HkZqSkuDxBdE8c" x1="2.951" x2="22.951" y1="-.044" y2="42.168" gradientUnits="userSpaceOnUse"><stop offset="0" stop-color="#fff" stop-opacity="0"/><stop offset="1"/></linearGradient><path fill="url(#AQXyk19_HkZqSkuDxBdE8c)" fill-rule="evenodd" d="M20.448,23.255l-10.334-5.949	c-0.12,0.403-0.19,0.823-0.19,1.254v10.963c0,1.61,0.867,3.109,2.264,3.912l9.531,5.489c0.433,0.248,0.899,0.407,1.377,0.497V27.879	C23.066,26.205,22.604,24.776,20.448,23.255" clip-rule="evenodd" opacity=".3"/><path fill="#fff" fill-rule="evenodd" d="M12.188,33.435	c-1.399-0.807-2.261-2.297-2.264-3.912V18.561c0-0.431,0.07-0.851,0.189-1.254l-0.89-0.513L9.155,17.02	c-0.153,0.518-0.231,1.036-0.231,1.54v10.963c0,1.967,1.06,3.798,2.765,4.778l9.534,5.491c0.509,0.291,1.078,0.496,1.689,0.611	l0.184,0.035v-1.015c-0.484-0.088-0.949-0.256-1.377-0.498L12.188,33.435z" clip-rule="evenodd" opacity=".22"/><path fill="#fff" fill-rule="evenodd" d="M12.188,33.435	c-1.399-0.807-2.261-2.297-2.264-3.912V18.561c0-0.431,0.07-0.851,0.189-1.254L9.668,17.05l-0.034,0.112	c-0.14,0.47-0.211,0.94-0.211,1.397v10.963c0,1.789,0.964,3.454,2.515,4.345l9.532,5.49c0.461,0.263,0.977,0.449,1.534,0.554	l0.091,0.017v-0.507c-0.484-0.088-0.949-0.256-1.377-0.498L12.188,33.435z" clip-rule="evenodd" opacity=".22"/><path fill="#fff" fill-rule="evenodd" d="M38.076,18.564V29.52	c0,1.611-0.87,3.112-2.27,3.916l-9.571,5.491c-0.433,0.244-0.905,0.413-1.394,0.5v1.014l0.172-0.03	c0.604-0.106,1.181-0.313,1.721-0.617l9.57-5.492c1.707-0.981,2.77-2.814,2.772-4.783V18.561c-0.002-0.537-0.086-1.071-0.249-1.586	l-0.066-0.209l-0.887,0.511C38.006,17.693,38.074,18.127,38.076,18.564z" clip-rule="evenodd" opacity=".22"/><path fill="#fff" fill-rule="evenodd" d="M38.076,18.564V29.52	c0,1.611-0.87,3.112-2.27,3.916l-9.571,5.491c-0.433,0.244-0.905,0.413-1.394,0.5v0.506l0.085-0.015	c0.547-0.096,1.07-0.283,1.559-0.558l9.57-5.492c1.552-0.892,2.519-2.559,2.521-4.35V18.563c-0.002-0.487-0.078-0.971-0.226-1.438	l-0.033-0.105l-0.443,0.255C38.006,17.693,38.074,18.127,38.076,18.564z" clip-rule="evenodd" opacity=".22"/><path fill="#fff" fill-rule="evenodd" d="M37.848,15.128	c-0.425-0.543-0.942-0.995-1.543-1.346L26.731,8.29c-0.833-0.477-1.785-0.729-2.752-0.729c-0.969,0-1.923,0.253-2.759,0.732	l-9.533,5.488c-0.583,0.336-1.106,0.796-1.557,1.368l-0.089,0.113l0.875,0.504c0.347-0.451,0.779-0.832,1.27-1.12v0.001l9.532-5.488	c1.399-0.802,3.117-0.803,4.517-0.003l9.571,5.493c0.494,0.283,0.909,0.662,1.253,1.094l0.875-0.504L37.848,15.128z" clip-rule="evenodd" opacity=".22"/><path fill="#fff" fill-rule="evenodd" d="M37.454,15.436	c-0.386-0.493-0.855-0.903-1.398-1.221l-9.572-5.492c-1.547-0.884-3.467-0.883-5.014,0.003l-9.532,5.488	c-0.527,0.304-1.003,0.723-1.413,1.244l-0.044,0.057l0.437,0.252c0.347-0.451,0.779-0.832,1.27-1.12v0.001l9.532-5.488	c1.399-0.802,3.117-0.803,4.517-0.003l9.571,5.493c0.494,0.283,0.909,0.662,1.253,1.094l0.438-0.252L37.454,15.436z" clip-rule="evenodd" opacity=".22"/></svg>