<svg xmlns="http://www.w3.org/2000/svg" viewBox="0 0 48 48"><linearGradient id="YDkWUTsRZILesnUZ5QafYa" x1="24" x2="24" y1="28.912" y2="41.13" gradientUnits="userSpaceOnUse"><stop offset="0" stop-color="#c26715"/><stop offset="0" stop-color="#c26715"/><stop offset=".51" stop-color="#b85515"/><stop offset="1" stop-color="#ad3f16"/></linearGradient><path fill="url(#YDkWUTsRZILesnUZ5QafYa)" d="M29.97,37.96C28.03,38.63,26.01,39,24,39s-4.03-0.37-5.97-1.04c0.44-0.24,0.87-0.48,1.29-0.73	c0.02-0.01,0.04-0.02,0.06-0.04c1.74-1.04,3.29-2.2,4.62-3.44c0.9,0.84,1.9,1.64,2.99,2.39c0.53,0.37,1.08,0.73,1.66,1.07	c0,0.01,0.01,0.01,0.01,0.01C29.09,37.48,29.53,37.72,29.97,37.96z"/><linearGradient id="YDkWUTsRZILesnUZ5QafYb" x1="17" x2="17" y1="3.765" y2="49.473" gradientUnits="userSpaceOnUse"><stop offset="0" stop-color="#eba84b"/><stop offset="1" stop-color="#d97218"/></linearGradient><path fill="url(#YDkWUTsRZILesnUZ5QafYb)" d="M30,21c0,0.38-0.01,0.75-0.04,1.11c-0.02,0.27-0.04,0.54-0.08,0.8	c-0.01,0.15-0.03,0.29-0.06,0.43c0,0.06-0.01,0.12-0.03,0.18c-0.02,0.16-0.05,0.32-0.08,0.48c-0.02,0.08-0.03,0.17-0.05,0.25	c-0.06,0.31-0.14,0.62-0.22,0.92c-0.04,0.15-0.09,0.3-0.14,0.45c-0.07,0.25-0.16,0.5-0.25,0.75c-0.09,0.26-0.19,0.5-0.29,0.75	c-0.03,0.07-0.06,0.13-0.09,0.2c-0.12,0.28-0.25,0.56-0.39,0.83c0,0.01-0.01,0.01-0.01,0.02c-0.08,0.15-0.15,0.3-0.24,0.45	c-0.07,0.15-0.16,0.3-0.24,0.44l-0.01,0.01c-0.21,0.36-0.43,0.72-0.66,1.07c-0.01,0.01-0.02,0.02-0.03,0.03	c-0.18,0.26-0.36,0.52-0.55,0.77c-0.06,0.09-0.13,0.18-0.21,0.27c-0.24,0.32-0.51,0.64-0.78,0.94c-0.28,0.32-0.57,0.63-0.87,0.93	c-0.22,0.24-0.44,0.45-0.68,0.67c-0.12,0.11-0.24,0.22-0.37,0.34c-0.12,0.11-0.25,0.22-0.38,0.32c-1.15,1-2.45,1.93-3.87,2.78	c-0.02,0.02-0.04,0.03-0.06,0.04c-0.42,0.25-0.85,0.49-1.29,0.73c-2.71,1.43-5.58,2.46-7.99,2.85c-0.18,0.03-0.36,0.06-0.53,0.08	c-0.32,0.05-0.63,0.08-0.92,0.09C8.39,40.99,8.19,41,8,41c-1.66,0-3-1.34-3-3c0-1.66,1.34-3,3-3c0.2,0,0.43-0.02,0.69-0.04	c0.76-0.09,1.7-0.31,2.74-0.65c-2.04-1.61-3.78-3.54-5.06-5.63c-0.97-1.58-1.68-3.24-2.06-4.94C4.3,23.73,4.3,23.72,4.3,23.71	C4.1,22.81,4,21.9,4,21C4,14.24,8.79,9.65,14.03,8.37C15.02,8.12,16.01,8,17,8c0.23,0,0.47,0.01,0.72,0.03	c0.28,0.01,0.56,0.04,0.85,0.08c0.13,0.02,0.27,0.04,0.41,0.06c0.43,0.07,0.87,0.16,1.3,0.28c0.13,0.04,0.26,0.07,0.39,0.11	c0.43,0.13,0.87,0.28,1.3,0.47c0.14,0.05,0.27,0.11,0.41,0.17c0.19,0.08,0.38,0.17,0.57,0.27c0.02,0.01,0.04,0.02,0.06,0.03	c0.13,0.06,0.26,0.13,0.38,0.2c0.04,0.02,0.08,0.04,0.12,0.07c0.17,0.09,0.33,0.18,0.49,0.28c-0.38,0.23-0.75,0.48-1.1,0.76	c-0.14,0.11-0.28,0.22-0.42,0.33c-0.2,0.16-0.39,0.33-0.58,0.51c-0.12,0.11-0.24,0.22-0.35,0.34c-0.07,0.06-0.13,0.13-0.19,0.2	c-0.12,0.12-0.23,0.24-0.34,0.37c-0.18,0.2-0.35,0.4-0.51,0.62c-0.14,0.18-0.27,0.36-0.39,0.55c-0.19,0.26-0.36,0.54-0.51,0.82	c-0.16-0.07-0.32-0.12-0.48-0.18c-0.17-0.05-0.33-0.1-0.49-0.14C18.03,14.07,17.47,14,17,14c-1,0-2.02,0.24-2.97,0.69	C11.79,15.74,10,17.96,10,21c0,0.23,0.01,0.47,0.04,0.71c0.04,0.39,0.12,0.78,0.23,1.18c0.08,0.33,0.19,0.65,0.33,0.98	c0.19,0.48,0.42,0.95,0.7,1.42c0.2,0.35,0.43,0.69,0.68,1.03c0.89,1.25,2.05,2.42,3.36,3.43c0.24,0.19,0.48,0.36,0.73,0.53	c0.49,0.34,1,0.65,1.53,0.93c0,0.01,0.01,0.01,0.01,0.01c0.55-0.39,1.1-0.8,1.61-1.25c0.01-0.01,0.01-0.01,0.02-0.02	c0.16-0.14,0.33-0.27,0.48-0.42c0.03-0.02,0.05-0.05,0.08-0.07c0.14-0.12,0.28-0.25,0.41-0.38v-0.01h0.01	c0.04-0.04,0.09-0.09,0.12-0.13c0.37-0.36,0.72-0.74,1.04-1.14c0,0,0,0,0-0.01c0.25-0.3,0.49-0.62,0.71-0.94	c0.39-0.56,0.72-1.14,1-1.75c0.05-0.12,0.11-0.25,0.16-0.37c0.06-0.15,0.12-0.31,0.18-0.47c0.03-0.09,0.06-0.17,0.09-0.26	c0.05-0.14,0.09-0.29,0.13-0.44c0.18-0.63,0.29-1.28,0.33-1.97C23.99,21.4,24,21.2,24,21c0-0.23,0.01-0.45,0.03-0.66	c0.01-0.19,0.03-0.37,0.06-0.54c0.04-0.27,0.09-0.53,0.16-0.77c0.02-0.1,0.05-0.2,0.08-0.29c0.03-0.08,0.05-0.17,0.09-0.25	c0.05-0.15,0.1-0.29,0.17-0.43c0.05-0.13,0.12-0.26,0.18-0.38c0.27-0.51,0.6-0.96,0.96-1.35c0.08-0.09,0.16-0.17,0.25-0.25	c0.03-0.02,0.05-0.05,0.08-0.07c0.71-0.66,1.53-1.14,2.33-1.46c0.08,0.14,0.16,0.29,0.23,0.44c0.05,0.08,0.09,0.16,0.13,0.24	c0.03,0.07,0.07,0.15,0.09,0.22c0.08,0.16,0.15,0.33,0.22,0.5c0.13,0.3,0.24,0.6,0.33,0.92c0.05,0.16,0.1,0.33,0.14,0.5	c0.03,0.09,0.06,0.18,0.08,0.28c0.05,0.2,0.09,0.4,0.13,0.61c0.01,0.02,0.01,0.05,0.01,0.07c0.05,0.21,0.08,0.41,0.1,0.62	c0.03,0.13,0.05,0.26,0.06,0.4c0.03,0.23,0.05,0.48,0.06,0.72C29.99,20.37,30,20.68,30,21z"/><linearGradient id="YDkWUTsRZILesnUZ5QafYc" x1="31" x2="31" y1="3.765" y2="49.473" gradientUnits="userSpaceOnUse"><stop offset="0" stop-color="#eba84b"/><stop offset="1" stop-color="#d97218"/></linearGradient><path fill="url(#YDkWUTsRZILesnUZ5QafYc)" d="M44,21c0,0.9-0.1,1.81-0.3,2.71c0,0.01,0,0.02-0.01,0.03c-0.88,3.95-3.55,7.75-7.12,10.57	c1.04,0.34,1.98,0.56,2.74,0.65C39.57,34.98,39.8,35,40,35c1.66,0,3,1.34,3,3c0,1.66-1.34,3-3,3c-0.19,0-0.39-0.01-0.59-0.02	c-0.29-0.01-0.6-0.04-0.92-0.09c-0.17-0.02-0.35-0.05-0.53-0.08c-2.41-0.39-5.28-1.41-7.99-2.85c-0.44-0.24-0.88-0.48-1.31-0.74	c0,0-0.01,0-0.01-0.01c-0.32-0.19-0.64-0.38-0.94-0.58c-0.24-0.16-0.48-0.33-0.72-0.49c-1.09-0.75-2.09-1.55-2.99-2.39	c0.24-0.22,0.46-0.43,0.68-0.67c0.3-0.3,0.59-0.61,0.87-0.93c0.27-0.3,0.54-0.62,0.78-0.94c0.08-0.09,0.15-0.18,0.21-0.27	c0.19-0.25,0.37-0.51,0.55-0.77c0.01-0.01,0.02-0.02,0.03-0.03c0.23-0.35,0.45-0.71,0.66-1.07c0.14,0.14,0.28,0.27,0.42,0.39	c0.69,0.65,1.43,1.23,2.19,1.76l0.01-0.01c0.53-0.28,1.04-0.59,1.53-0.93c0.25-0.17,0.49-0.35,0.73-0.53	c1.67-1.28,3.09-2.83,4.04-4.46c0.28-0.47,0.51-0.95,0.7-1.42c0.14-0.33,0.25-0.65,0.33-0.98c0.11-0.39,0.19-0.79,0.23-1.18	C37.99,21.47,38,21.23,38,21c0-4.32-3.63-7-7-7c-0.71,0-1.65,0.16-2.61,0.55c-0.83,0.33-1.68,0.83-2.41,1.53	c-0.09,0.08-0.17,0.16-0.25,0.25c-0.36,0.39-0.69,0.84-0.96,1.35c-0.06,0.12-0.13,0.25-0.18,0.38c-0.07,0.14-0.12,0.28-0.17,0.43	c-0.04,0.08-0.06,0.17-0.09,0.25c-0.1,0.33-0.19,0.68-0.24,1.06c-0.03,0.17-0.05,0.35-0.06,0.54C24.01,20.55,24,20.77,24,21	c0,0.2-0.01,0.4-0.02,0.59c-0.04,0.69-0.15,1.34-0.33,1.97c-0.06,0.24-0.14,0.47-0.22,0.7c-0.06,0.16-0.12,0.32-0.18,0.47	c-0.05,0.12-0.11,0.25-0.16,0.37c-0.28,0.61-0.61,1.19-1,1.75c-0.22,0.32-0.46,0.64-0.71,0.94c0,0.01,0,0.01,0,0.01	c-0.34,0.4-0.68,0.78-1.04,1.14c-0.03,0.04-0.08,0.09-0.12,0.13h-0.01v-0.01c-0.17-0.29-0.33-0.59-0.48-0.89	c-0.15-0.29-0.29-0.58-0.42-0.88c-0.01-0.02-0.01-0.03-0.02-0.05c-0.14-0.32-0.26-0.64-0.38-0.97c-0.12-0.35-0.23-0.7-0.33-1.05	c-0.09-0.32-0.17-0.64-0.24-0.97c-0.06-0.26-0.11-0.52-0.14-0.79c-0.01-0.04-0.02-0.07-0.02-0.11c-0.02-0.13-0.04-0.27-0.06-0.4	c-0.03-0.27-0.06-0.55-0.08-0.84C18.01,21.75,18,21.38,18,21c0-0.32,0.01-0.63,0.03-0.93c0.01-0.24,0.03-0.49,0.06-0.72	c0.01-0.14,0.03-0.27,0.06-0.4c0.02-0.21,0.05-0.41,0.1-0.62c0-0.02,0-0.05,0.01-0.07c0.04-0.21,0.08-0.41,0.13-0.61	c0.02-0.1,0.05-0.19,0.08-0.28c0.04-0.17,0.09-0.34,0.14-0.5c0.09-0.32,0.2-0.62,0.33-0.92c0.1-0.25,0.2-0.49,0.31-0.72	s0.23-0.46,0.36-0.68c0.15-0.28,0.32-0.56,0.51-0.82c0.12-0.19,0.25-0.37,0.39-0.55c0.16-0.22,0.33-0.42,0.51-0.62	c0.11-0.13,0.22-0.25,0.34-0.37c0.06-0.07,0.12-0.14,0.19-0.2c0.11-0.12,0.23-0.23,0.35-0.34c0.19-0.18,0.38-0.35,0.58-0.51	c0.14-0.11,0.28-0.22,0.42-0.33c0.35-0.28,0.72-0.53,1.1-0.76c0.2-0.12,0.4-0.24,0.61-0.35c0.14-0.08,0.29-0.16,0.44-0.23	c0.19-0.1,0.38-0.19,0.57-0.27c0.14-0.06,0.27-0.12,0.41-0.17c0.43-0.19,0.87-0.34,1.3-0.47c0.13-0.04,0.26-0.07,0.39-0.11	c0.44-0.12,0.88-0.21,1.31-0.28c0.14-0.03,0.27-0.05,0.4-0.06c0.29-0.04,0.57-0.07,0.85-0.08C30.53,8.01,30.77,8,31,8	C37.25,8,44,12.97,44,21z"/><linearGradient id="YDkWUTsRZILesnUZ5QafYd" x1="11.519" x2="17.299" y1="29.235" y2="38.102" gradientUnits="userSpaceOnUse"><stop offset="0" stop-color="#c26715" stop-opacity="0"/><stop offset="1" stop-color="#b85515"/></linearGradient><path fill="url(#YDkWUTsRZILesnUZ5QafYd)" d="M17.61,31.22c-1.97,1.56-5.04,2.74-6.18,3.09c-2.04-1.61-3.78-3.54-5.06-5.63l5.61-2.36	c0.89,1.25,2.05,2.42,3.36,3.43c0.24,0.19,0.48,0.36,0.73,0.53c0.49,0.34,1,0.65,1.53,0.93C17.6,31.22,17.61,31.22,17.61,31.22z"/><linearGradient id="YDkWUTsRZILesnUZ5QafYe" x1="41.916" x2="47.696" y1="29.235" y2="38.102" gradientTransform="matrix(-1 0 0 1 78.421 0)" gradientUnits="userSpaceOnUse"><stop offset="0" stop-color="#c26715" stop-opacity="0"/><stop offset="1" stop-color="#b85515"/></linearGradient><path fill="url(#YDkWUTsRZILesnUZ5QafYe)" d="M30.414,31.22c1.97,1.56,5.04,2.74,6.18,3.09c2.04-1.61,3.78-3.54,5.06-5.63l-5.61-2.36	c-0.89,1.25-2.05,2.42-3.36,3.43c-0.24,0.19-0.48,0.36-0.73,0.53c-0.49,0.34-1,0.65-1.53,0.93	C30.424,31.22,30.414,31.22,30.414,31.22z"/><linearGradient id="YDkWUTsRZILesnUZ5QafYf" x1="16.391" x2="24.597" y1="10.094" y2="17.212" gradientUnits="userSpaceOnUse"><stop offset="0" stop-color="#c26715" stop-opacity="0"/><stop offset="1" stop-color="#b85515"/></linearGradient><path fill="url(#YDkWUTsRZILesnUZ5QafYf)" d="M23.51,9.77c0.17,0.09,0.33,0.18,0.49,0.28c-0.38,0.23-0.75,0.48-1.1,0.76	c-0.14,0.11-0.28,0.22-0.42,0.33c-0.2,0.16-0.39,0.33-0.58,0.51c-0.12,0.11-0.24,0.22-0.35,0.34c-0.07,0.06-0.13,0.13-0.19,0.2	c-0.12,0.12-0.23,0.24-0.34,0.37c-0.18,0.2-0.35,0.4-0.51,0.62c-0.14,0.18-0.27,0.36-0.39,0.55c-0.19,0.26-0.36,0.54-0.51,0.82	c-0.16-0.07-0.32-0.12-0.48-0.18c-0.17-0.05-0.33-0.1-0.49-0.14C18.03,14.07,17.47,14,17,14c-1,0-2.02,0.24-2.97,0.69V8.37	C15.02,8.12,16.01,8,17,8c0.23,0,0.47,0.01,0.72,0.03c0.28,0.01,0.56,0.04,0.85,0.08c0.13,0.02,0.27,0.04,0.41,0.06	c0.43,0.07,0.87,0.16,1.3,0.28c0.13,0.04,0.26,0.07,0.39,0.11c0.43,0.13,0.87,0.28,1.3,0.47c0.14,0.05,0.27,0.11,0.41,0.17	c0.19,0.08,0.38,0.17,0.57,0.27c0.02,0.01,0.04,0.02,0.06,0.03c0.13,0.06,0.26,0.13,0.38,0.2C23.43,9.72,23.47,9.74,23.51,9.77z"/><linearGradient id="YDkWUTsRZILesnUZ5QafYg" x1="27.68" x2="20.4" y1="21.575" y2="11.869" gradientUnits="userSpaceOnUse"><stop offset="0" stop-color="#c26715" stop-opacity="0"/><stop offset="1" stop-color="#b85515"/></linearGradient><path fill="url(#YDkWUTsRZILesnUZ5QafYg)" d="M30,21c0,0.38-0.01,0.75-0.04,1.11c-0.02,0.27-0.04,0.54-0.08,0.8	c-0.01,0.15-0.03,0.29-0.06,0.43c0,0.06-0.01,0.12-0.03,0.18c-0.02,0.16-0.05,0.32-0.08,0.48h-6.19c0.05-0.14,0.09-0.29,0.13-0.44	c0.18-0.63,0.29-1.28,0.33-1.97C23.99,21.4,24,21.2,24,21c0-0.23,0.01-0.45,0.03-0.66c0.01-0.19,0.03-0.37,0.06-0.54	c0.04-0.27,0.09-0.53,0.16-0.77c0.02-0.1,0.05-0.2,0.08-0.29c0.03-0.08,0.05-0.17,0.09-0.25c0.05-0.15,0.1-0.29,0.17-0.43	c0.05-0.13,0.12-0.26,0.18-0.38c0.27-0.51,0.6-0.96,0.96-1.35c0.08-0.09,0.16-0.17,0.25-0.25c0.03-0.02,0.05-0.05,0.08-0.07	c0.71-0.66,1.53-1.14,2.33-1.46c0.08,0.14,0.16,0.29,0.23,0.44c0.05,0.08,0.09,0.16,0.13,0.24c0.03,0.07,0.07,0.15,0.09,0.22	c0.08,0.16,0.15,0.33,0.22,0.5c0.13,0.3,0.24,0.6,0.33,0.92c0.05,0.16,0.1,0.33,0.14,0.5c0.03,0.09,0.06,0.18,0.08,0.28	c0.05,0.2,0.09,0.4,0.13,0.61c0.01,0.02,0.01,0.05,0.01,0.07c0.05,0.21,0.08,0.41,0.1,0.62c0.03,0.13,0.05,0.26,0.06,0.4	c0.03,0.23,0.05,0.48,0.06,0.72C29.99,20.37,30,20.68,30,21z"/><linearGradient id="YDkWUTsRZILesnUZ5QafYh" x1="19.935" x2="28.163" y1="28.621" y2="33.077" gradientUnits="userSpaceOnUse"><stop offset="0" stop-color="#b85515"/><stop offset="1" stop-color="#c26715" stop-opacity="0"/></linearGradient><path fill="url(#YDkWUTsRZILesnUZ5QafYh)" d="M30.39,31.22l-2.68,5.41c-0.24-0.16-0.48-0.33-0.72-0.49c-1.09-0.75-2.09-1.55-2.99-2.39	c0.24-0.22,0.46-0.43,0.68-0.67c0.3-0.3,0.59-0.61,0.87-0.93c0.27-0.3,0.54-0.62,0.78-0.94c0.08-0.09,0.15-0.18,0.21-0.27	c0.19-0.25,0.37-0.51,0.55-0.77c0.01-0.01,0.02-0.02,0.03-0.03c0.23-0.35,0.45-0.71,0.66-1.07c0.14,0.14,0.28,0.27,0.42,0.39	C28.89,30.11,29.63,30.69,30.39,31.22z"/><linearGradient id="YDkWUTsRZILesnUZ5QafYi" x1="31" x2="31" y1="8.739" y2="11.066" gradientUnits="userSpaceOnUse"><stop offset="0" stop-color="#f5b967"/><stop offset="1" stop-color="#eba84b"/></linearGradient><circle cx="31" cy="10" r="1" fill="url(#YDkWUTsRZILesnUZ5QafYi)"/><linearGradient id="YDkWUTsRZILesnUZ5QafYj" x1="9" x2="9" y1="15.739" y2="18.066" gradientUnits="userSpaceOnUse"><stop offset="0" stop-color="#f5b967"/><stop offset="1" stop-color="#eba84b"/></linearGradient><circle cx="9" cy="17" r="1" fill="url(#YDkWUTsRZILesnUZ5QafYj)"/><linearGradient id="YDkWUTsRZILesnUZ5QafYk" x1="10" x2="10" y1="26.739" y2="29.066" gradientUnits="userSpaceOnUse"><stop offset="0" stop-color="#f5b967"/><stop offset="1" stop-color="#eba84b"/></linearGradient><circle cx="10" cy="28" r="1" fill="url(#YDkWUTsRZILesnUZ5QafYk)"/><linearGradient id="YDkWUTsRZILesnUZ5QafYl" x1="12" x2="12" y1="10.739" y2="13.066" gradientUnits="userSpaceOnUse"><stop offset="0" stop-color="#f5b967"/><stop offset="1" stop-color="#eba84b"/></linearGradient><circle cx="12" cy="12" r="1" fill="url(#YDkWUTsRZILesnUZ5QafYl)"/><linearGradient id="YDkWUTsRZILesnUZ5QafYm" x1="6" x2="6" y1="20.739" y2="23.066" gradientUnits="userSpaceOnUse"><stop offset="0" stop-color="#f5b967"/><stop offset="1" stop-color="#eba84b"/></linearGradient><circle cx="6" cy="22" r="1" fill="url(#YDkWUTsRZILesnUZ5QafYm)"/><linearGradient id="YDkWUTsRZILesnUZ5QafYn" x1="42" x2="42" y1="18.739" y2="21.066" gradientUnits="userSpaceOnUse"><stop offset="0" stop-color="#f5b967"/><stop offset="1" stop-color="#eba84b"/></linearGradient><circle cx="42" cy="20" r="1" fill="url(#YDkWUTsRZILesnUZ5QafYn)"/><linearGradient id="YDkWUTsRZILesnUZ5QafYo" x1="40" x2="40" y1="23.739" y2="26.066" gradientUnits="userSpaceOnUse"><stop offset="0" stop-color="#f5b967"/><stop offset="1" stop-color="#eba84b"/></linearGradient><circle cx="40" cy="25" r="1" fill="url(#YDkWUTsRZILesnUZ5QafYo)"/><linearGradient id="YDkWUTsRZILesnUZ5QafYp" x1="40" x2="40" y1="35.739" y2="38.066" gradientUnits="userSpaceOnUse"><stop offset="0" stop-color="#f5b967"/><stop offset="1" stop-color="#eba84b"/></linearGradient><circle cx="40" cy="37" r="1" fill="url(#YDkWUTsRZILesnUZ5QafYp)"/><linearGradient id="YDkWUTsRZILesnUZ5QafYq" x1="35" x2="35" y1="35.739" y2="38.066" gradientUnits="userSpaceOnUse"><stop offset="0" stop-color="#f5b967"/><stop offset="1" stop-color="#eba84b"/></linearGradient><circle cx="35" cy="37" r="1" fill="url(#YDkWUTsRZILesnUZ5QafYq)"/><linearGradient id="YDkWUTsRZILesnUZ5QafYr" x1="11" x2="11" y1="36.739" y2="39.066" gradientUnits="userSpaceOnUse"><stop offset="0" stop-color="#f5b967"/><stop offset="1" stop-color="#eba84b"/></linearGradient><circle cx="11" cy="38" r="1" fill="url(#YDkWUTsRZILesnUZ5QafYr)"/><linearGradient id="YDkWUTsRZILesnUZ5QafYs" x1="16" x2="16" y1="33.739" y2="36.066" gradientUnits="userSpaceOnUse"><stop offset="0" stop-color="#f5b967"/><stop offset="1" stop-color="#eba84b"/></linearGradient><circle cx="16" cy="35" r="1" fill="url(#YDkWUTsRZILesnUZ5QafYs)"/><linearGradient id="YDkWUTsRZILesnUZ5QafYt" x1="25" x2="25" y1="28.739" y2="31.066" gradientUnits="userSpaceOnUse"><stop offset="0" stop-color="#f5b967"/><stop offset="1" stop-color="#eba84b"/></linearGradient><circle cx="25" cy="30" r="1" fill="url(#YDkWUTsRZILesnUZ5QafYt)"/><linearGradient id="YDkWUTsRZILesnUZ5QafYu" x1="26" x2="26" y1="23.739" y2="26.066" gradientUnits="userSpaceOnUse"><stop offset="0" stop-color="#f5b967"/><stop offset="1" stop-color="#eba84b"/></linearGradient><circle cx="26" cy="25" r="1" fill="url(#YDkWUTsRZILesnUZ5QafYu)"/><linearGradient id="YDkWUTsRZILesnUZ5QafYv" x1="22" x2="22" y1="19.739" y2="22.066" gradientUnits="userSpaceOnUse"><stop offset="0" stop-color="#f5b967"/><stop offset="1" stop-color="#eba84b"/></linearGradient><circle cx="22" cy="21" r="1" fill="url(#YDkWUTsRZILesnUZ5QafYv)"/><linearGradient id="YDkWUTsRZILesnUZ5QafYw" x1="21" x2="21" y1="23.739" y2="26.066" gradientUnits="userSpaceOnUse"><stop offset="0" stop-color="#f5b967"/><stop offset="1" stop-color="#eba84b"/></linearGradient><circle cx="21" cy="25" r="1" fill="url(#YDkWUTsRZILesnUZ5QafYw)"/><linearGradient id="YDkWUTsRZILesnUZ5QafYx" x1="36" x2="36" y1="11.739" y2="14.066" gradientUnits="userSpaceOnUse"><stop offset="0" stop-color="#f5b967"/><stop offset="1" stop-color="#eba84b"/></linearGradient><circle cx="36" cy="13" r="1" fill="url(#YDkWUTsRZILesnUZ5QafYx)"/><linearGradient id="YDkWUTsRZILesnUZ5QafYy" x1="22" x2="22" y1="13.739" y2="16.066" gradientUnits="userSpaceOnUse"><stop offset="0" stop-color="#f5b967"/><stop offset="1" stop-color="#eba84b"/></linearGradient><circle cx="22" cy="15" r="1" fill="url(#YDkWUTsRZILesnUZ5QafYy)"/><linearGradient id="YDkWUTsRZILesnUZ5QafYz" x1="16" x2="16" y1="8.739" y2="11.066" gradientUnits="userSpaceOnUse"><stop offset="0" stop-color="#f5b967"/><stop offset="1" stop-color="#eba84b"/></linearGradient><circle cx="16" cy="10" r="1" fill="url(#YDkWUTsRZILesnUZ5QafYz)"/></svg>