<svg xmlns="http://www.w3.org/2000/svg" data-name="Слой 1" viewBox="0 0 48 48"><defs><linearGradient id="v3mK7pIpkgSpZSxeYLe2na" x1="15.478" x2="34.518" y1=".586" y2="52.898" gradientUnits="userSpaceOnUse"><stop offset=".002" stop-color="#427fdb"/><stop offset=".397" stop-color="#2668cb"/><stop offset=".763" stop-color="#1358bf"/><stop offset="1" stop-color="#0c52bb"/></linearGradient></defs><circle cx="24" cy="24" r="20" fill="url(#v3mK7pIpkgSpZSxeYLe2na)"/><rect width="14" height="14" x="9" y="15" fill="#fff" rx="2"/><circle cx="16" cy="22" r="5" fill="#1565c0"/><circle cx="16" cy="20" r="1" fill="#fff"/><circle cx="16" cy="24" r="1" fill="#fff"/><path fill="#fff" d="M26,18h5a0,0,0,0,1,0,0v2a0,0,0,0,1,0,0H26a1,1,0,0,1-1-1v0A1,1,0,0,1,26,18Z"/><rect width="6" height="2" x="35" y="21" fill="#fff"/><path fill="#fff" d="M26,24h5a0,0,0,0,1,0,0v2a0,0,0,0,1,0,0H26a1,1,0,0,1-1-1v0A1,1,0,0,1,26,24Z"/><rect width="2" height="12" x="30" y="16" fill="#fff" rx="1"/><path fill="#fff" d="M31,17h2a5,5,0,0,1,5,5v0a5,5,0,0,1-5,5H31a0,0,0,0,1,0,0V17A0,0,0,0,1,31,17Z"/><path fill="#fff" d="M22.5,30.5h2a0,0,0,0,1,0,0v6a1,1,0,0,1-1,1h0a1,1,0,0,1-1-1v-6A0,0,0,0,1,22.5,30.5Z" transform="rotate(90 23.5 34)"/><path fill="#fff" d="M26,30.99681v6.00638a.51011.51011,0,0,0,.88435.33352L29.72548,34.635a.87172.87172,0,0,0,0-1.27l-2.84113-2.70169A.51011.51011,0,0,0,26,30.99681Z"/></svg>