<svg xmlns="http://www.w3.org/2000/svg" viewBox="0 0 48 48"><linearGradient id="7S3FTcTxDVBdfN_4nJfeja" x1="40.025" x2="40.468" y1="11.691" y2="31.822" gradientUnits="userSpaceOnUse"><stop offset="0" stop-color="#f44f5a"/><stop offset=".443" stop-color="#ee3d4a"/><stop offset="1" stop-color="#e52030"/></linearGradient><path fill="url(#7S3FTcTxDVBdfN_4nJfeja)" d="M46.11,13.89L46.11,13.89c-0.07,0.07-0.11,0.165-0.11,0.265v22.096	c0,0.308-0.352,0.485-0.599,0.299l-3.251-2.438C42.055,34.042,42,33.931,42,33.813v-6.227c0-0.395-0.532-0.521-0.709-0.167	l-0.956,1.912c-0.138,0.276-0.532,0.276-0.67,0l-0.956-1.912C38.532,27.065,38,27.191,38,27.586v2.666	c0,0.308-0.352,0.485-0.599,0.299l-3.251-2.438C34.055,28.042,34,27.931,34,27.813V13.366C34,12.612,34.612,12,35.366,12H37.8	c0.125,0,0.242,0.063,0.311,0.167l1.577,2.366c0.148,0.222,0.475,0.222,0.623,0l1.577-2.366C41.958,12.063,42.075,12,42.2,12h3.126	C46.313,12,46.807,13.193,46.11,13.89z"/><linearGradient id="7S3FTcTxDVBdfN_4nJfejb" x1="6.437" x2="6.869" y1="12.431" y2="32.088" gradientUnits="userSpaceOnUse"><stop offset="0" stop-color="#f44f5a"/><stop offset=".443" stop-color="#ee3d4a"/><stop offset="1" stop-color="#e52030"/></linearGradient><path fill="url(#7S3FTcTxDVBdfN_4nJfejb)" d="M9.07,11.999l-7.474-0.002c-0.59,0-0.885,0.712-0.469,1.13l0.614,0.615	C1.907,13.907,2,14.131,2,14.365v20.798c0,0.74,0.856,1.152,1.434,0.689l8.235-6.588C11.878,29.098,12,28.844,12,28.576V14.93	C12,13.311,10.689,12,9.07,11.999z"/><linearGradient id="7S3FTcTxDVBdfN_4nJfejc" x1="17.806" x2="18.256" y1="12.168" y2="32.615" gradientUnits="userSpaceOnUse"><stop offset="0" stop-color="#f44f5a"/><stop offset=".443" stop-color="#ee3d4a"/><stop offset="1" stop-color="#e52030"/></linearGradient><path fill="url(#7S3FTcTxDVBdfN_4nJfejc)" d="M21,12h-6c-1.105,0-2,0.895-2,2v14l7,5l3-3V14C23,12.895,22.105,12,21,12z"/><polygon fill="none" stroke="#1d1d1b" stroke-miterlimit="10" points="9,24 6,26 6,16 9,16" opacity=".07"/><path fill="#1d1d1b" d="M9,16v8l-3,2V16H9 M10,15H9H6H5v1v10v1.869l1.555-1.036l3-2L10,24.535V24v-8V15L10,15z" opacity=".05"/><polygon fill="#f0f0f0" points="9,24 6,26 6,16 9,16"/><linearGradient id="7S3FTcTxDVBdfN_4nJfejd" x1="28.279" x2="28.729" y1="11.949" y2="32.397" gradientUnits="userSpaceOnUse"><stop offset="0" stop-color="#f44f5a"/><stop offset=".443" stop-color="#ee3d4a"/><stop offset="1" stop-color="#e52030"/></linearGradient><path fill="url(#7S3FTcTxDVBdfN_4nJfejd)" d="M31,12h-5c-1.105,0-2,0.895-2,2v16l3,3l6-5V14C33,12.895,32.105,12,31,12z"/><g><polygon fill="none" stroke="#1d1d1b" stroke-miterlimit="10" points="16,24 19,26 19,16 16,16" opacity=".07"/><path fill="#1d1d1b" d="M19,16v10l-3-2v-8H19 M20,15h-1h-3h-1v1v8v0.535l0.445,0.297l3,2L20,27.869V26V16V15L20,15z" opacity=".05"/><polygon fill="#f0f0f0" points="16,24 19,26 19,16 16,16"/></g><g><polygon fill="none" stroke="#1d1d1b" stroke-miterlimit="10" points="30,24 27,26 27,16 30,16" opacity=".07"/><path fill="#1d1d1b" d="M30,16v8l-3,2V16H30 M31,15h-1h-3h-1v1v10v1.869l1.555-1.036l3-2L31,24.535V24v-8V15L31,15z" opacity=".05"/><polygon fill="#f0f0f0" points="30,24 27,26 27,16 30,16"/></g></svg>