<svg xmlns="http://www.w3.org/2000/svg" data-name="Слой 1" viewBox="0 0 48 48"><defs><radialGradient id="WZ4fdpAL_fZ3cPNK~86Yta" cx="7.304" cy="8.424" r="8.365" data-name="Безымянный градиент 45" gradientUnits="userSpaceOnUse"><stop offset="0" stop-color="#f9f9f9"/><stop offset=".26" stop-color="#f0f1f2"/><stop offset=".678" stop-color="#d9dcdf"/><stop offset="1" stop-color="#c2c8cc"/></radialGradient><linearGradient id="WZ4fdpAL_fZ3cPNK~86Ytb" x1="22.452" x2="37.813" y1="13.756" y2="55.961" gradientUnits="userSpaceOnUse"><stop offset="0" stop-color="#a34f27"/><stop offset=".587" stop-color="#8b3817"/><stop offset="1" stop-color="#802d10"/></linearGradient></defs><rect width="4" height="3.25" x="8" y="41.75" fill="#64717c" rx="1"/><rect width="4" height="3.25" x="38" y="41.75" fill="#64717c" rx="1"/><rect width="2" height="25.75" x="8" y="14.25" fill="#64717c"/><circle cx="9" cy="11" r="6" fill="#64717c"/><circle cx="9" cy="11" r="5" fill="url(#WZ4fdpAL_fZ3cPNK~86Yta)"/><path fill="#5c2415" d="M32,23H24a.99974.99974,0,0,1-1-1V19a5,5,0,0,1,10,0v3A.99974.99974,0,0,1,32,23Zm-7-2h6V19a3,3,0,0,0-6,0Z"/><rect width="30" height="20" x="13" y="19" fill="url(#WZ4fdpAL_fZ3cPNK~86Ytb)" rx="2"/><rect width="3" height="20" x="18" y="19" fill="#5c2415"/><rect width="3" height="20" x="35" y="19" fill="#5c2415"/><rect width="40" height="4" x="5" y="39" fill="#889097" rx="1"/><path fill="#343434" d="M9.70711,11.70711A16.056,16.056,0,0,0,11,9a16.056,16.056,0,0,0-2.70711,1.29289,1,1,0,0,0,1.41422,1.41422Z"/></svg>