<svg xmlns="http://www.w3.org/2000/svg" id="Layer_1" x="0" y="0" version="1.1" viewBox="0 0 48 48" xml:space="preserve"><linearGradient id="SVGID_1_" x1="7.196" x2="39.472" y1="1168.822" y2="1196.054" gradientTransform="translate(0 -1162)" gradientUnits="userSpaceOnUse"><stop offset="0" stop-color="#a1aab3"/><stop offset="1" stop-color="#8f979e"/></linearGradient><path fill="url(#SVGID_1_)" d="M43,36H5c-1.1,0-2-0.9-2-2V8c0-1.1,0.9-2,2-2h38c1.1,0,2,0.9,2,2v26C45,35.1,44.1,36,43,36z"/><linearGradient id="SVGID_2_" x1="24" x2="24" y1="1197.987" y2="1204.012" gradientTransform="translate(0 -1162)" gradientUnits="userSpaceOnUse"><stop offset="0" stop-color="#a1aab3"/><stop offset="1" stop-color="#8f979e"/></linearGradient><path fill="url(#SVGID_2_)" d="M33,40v-4H15v4L0,39.7V41c0,0.6,0.4,1,1,1h46c0.6,0,1-0.4,1-1v-1.3L33,40z"/><linearGradient id="SVGID_3_" x1="23.999" x2="23.999" y1="1197.991" y2="1202.008" gradientTransform="translate(0 -1162)" gradientUnits="userSpaceOnUse"><stop offset="0" stop-color="#484b4f"/><stop offset=".028" stop-color="#565b61"/><stop offset=".066" stop-color="#626a72"/><stop offset=".114" stop-color="#6b757d"/><stop offset=".181" stop-color="#717b84"/><stop offset=".367" stop-color="#727d86"/></linearGradient><path fill="url(#SVGID_3_)" d="M47.9,39.5L45,36.6c-0.4-0.4-0.9-0.6-1.4-0.6H4.4c-0.5,0-1,0.2-1.4,0.6l-2.9,2.9C-0.1,39.7,0,40,0.3,40h17.1	c0.4,0,0.7-0.2,0.9-0.6l0.4-0.9c0.2-0.3,0.5-0.6,0.9-0.6h8.8c0.4,0,0.7,0.2,0.9,0.6l0.4,0.9c0.2,0.3,0.5,0.6,0.9,0.6h17.1	C48,40,48.1,39.7,47.9,39.5z"/><radialGradient id="SVGID_4_" cx="42.958" cy="-568.038" r="34.553" gradientTransform="matrix(1 0 0 -1.0833 0 -581.167)" gradientUnits="userSpaceOnUse"><stop offset="0" stop-color="#9e6fd9"/><stop offset=".173" stop-color="#aa73c7"/><stop offset=".522" stop-color="#ca7f97"/><stop offset="1" stop-color="#fc914d"/></radialGradient><path fill="url(#SVGID_4_)" d="M43,8H5v26h38V8z"/><path d="M16,7c0,0.6,0.3,1.2,0.9,1.5l0.5,0.2L17,9.3c-0.3,0.6-0.3,1.2,0,1.8s0.9,0.9,1.5,0.9l0.4,0v8.4	c0,0.9,0.7,1.7,1.7,1.7c0.3,0,0.6-0.1,0.9-0.3l2.4-1.6l2.4,1.6c0.3,0.2,0.6,0.3,0.9,0.3c0.4,0,0.8-0.2,1.2-0.5	c0.3-0.3,0.5-0.7,0.5-1.2v-8.4l0.4,0c0.6,0,1.2-0.3,1.5-0.9c0.3-0.5,0.3-1.2,0-1.8l-0.3-0.4l0.5-0.3C31.7,8.2,32,7.6,32,7	c0-0.4-0.1-0.7-0.3-1H16.3C16.1,6.3,16,6.6,16,7z" opacity=".05"/><path d="M16.5,7c0,0.5,0.2,0.9,0.6,1.1l0.5,0.3c0.1,0.1,0.2,0.1,0.2,0.3c0,0.1,0,0.2,0,0.3l-0.3,0.5	c-0.2,0.4-0.2,0.9,0,1.3s0.6,0.6,1.1,0.6l0.6,0c0.1,0,0.2,0.1,0.3,0.1c0,0,0,0,0,0.1v8.7c0,0.6,0.5,1.2,1.2,1.2	c0.2,0,0.4-0.1,0.6-0.2l2.7-1.8l2.7,1.8c0.2,0.1,0.4,0.2,0.6,0.2c0.3,0,0.6-0.1,0.8-0.3c0.2-0.2,0.4-0.5,0.4-0.8v-8.7l0.1,0l0.1-0.1	c0.1-0.1,0.2-0.1,0.2-0.1l0.6,0c0.5,0,0.9-0.2,1.1-0.6c0.2-0.4,0.2-0.9,0-1.3L30.3,9c-0.1-0.1-0.1-0.2,0-0.3c0-0.1,0.1-0.2,0.2-0.3	l0.5-0.3c0.4-0.2,0.6-0.6,0.6-1.1c0-0.4-0.2-0.8-0.5-1H17C16.7,6.2,16.5,6.6,16.5,7z" opacity=".07"/><linearGradient id="SVGID_5_" x1="24" x2="24" y1="-570.312" y2="-583.062" gradientTransform="matrix(1 0 0 -1 0 -562)" gradientUnits="userSpaceOnUse"><stop offset="0" stop-color="#1d59b3"/><stop offset="1" stop-color="#195bbc"/></linearGradient><path fill="url(#SVGID_5_)" d="M27,20.9l-3-2l-3,2c-0.4,0.3-1,0-1-0.6v-12h8v12C28,20.9,27.4,21.2,27,20.9z"/><linearGradient id="SVGID_6_" x1="20.432" x2="27.54" y1="-562.819" y2="-575.172" gradientTransform="matrix(1 0 0 -1 0 -562)" gradientUnits="userSpaceOnUse"><stop offset="0" stop-color="#ffda1c"/><stop offset="1" stop-color="#feb705"/></linearGradient><path fill="url(#SVGID_6_)" d="M30.6,6.4l-0.5-0.3c-0.2-0.1-0.4-0.3-0.4-0.6c0,0,0,0,0,0c-0.1-0.2,0-0.5,0.1-0.7l0.3-0.5	c0.3-0.5-0.1-1.1-0.7-1.2l-0.6,0c-0.2,0-0.5-0.1-0.6-0.3c0,0,0,0,0,0c-0.2-0.2-0.3-0.4-0.3-0.6l0-0.6c0-0.6-0.6-0.9-1.2-0.7	l-0.5,0.3c-0.2,0.1-0.5,0.1-0.7,0.1c0,0,0,0,0,0c-0.2-0.1-0.4-0.2-0.6-0.4l-0.3-0.5c-0.3-0.5-1-0.5-1.3,0L23,0.9	c-0.1,0.2-0.3,0.4-0.6,0.4c0,0,0,0,0,0c-0.2,0.1-0.5,0-0.7-0.1l-0.5-0.3c-0.5-0.3-1.1,0.1-1.2,0.7l0,0.6c0,0.2-0.1,0.5-0.3,0.6	c0,0,0,0,0,0c-0.2,0.2-0.4,0.3-0.6,0.3l-0.6,0c-0.6,0-0.9,0.6-0.7,1.2l0.3,0.5c0.1,0.2,0.1,0.5,0.1,0.7c0,0,0,0,0,0	c-0.1,0.2-0.2,0.4-0.4,0.6l-0.5,0.3c-0.5,0.3-0.5,1,0,1.3L17.8,8c0.2,0.1,0.4,0.3,0.4,0.6c0,0,0,0,0,0c0.1,0.2,0,0.5-0.1,0.7	l-0.3,0.5c-0.3,0.5,0.1,1.1,0.7,1.2l0.6,0c0.2,0,0.5,0.1,0.6,0.3c0,0,0,0,0,0c0.2,0.2,0.3,0.4,0.3,0.6l0,0.6c0,0.6,0.6,0.9,1.2,0.7	l0.5-0.3c0.2-0.1,0.5-0.1,0.7-0.1c0,0,0,0,0,0c0.2,0.1,0.4,0.2,0.6,0.4l0.3,0.5c0.3,0.5,1,0.5,1.3,0l0.3-0.5	c0.1-0.2,0.3-0.4,0.6-0.4c0,0,0,0,0,0c0.2-0.1,0.5,0,0.7,0.1l0.5,0.3c0.5,0.3,1.1-0.1,1.2-0.7l0-0.6c0-0.2,0.1-0.5,0.3-0.6	c0,0,0,0,0,0c0.2-0.2,0.4-0.3,0.6-0.3l0.6,0c0.6,0,0.9-0.6,0.7-1.2l-0.3-0.5c-0.1-0.2-0.1-0.5-0.1-0.7c0,0,0,0,0,0	c0.1-0.2,0.2-0.4,0.4-0.6l0.5-0.3C31.1,7.4,31.1,6.7,30.6,6.4z"/></svg>