<svg xmlns="http://www.w3.org/2000/svg" viewBox="0 0 48 48"><path fill="#25a2e5" d="M25,9h-2V2c0-0.552,0.448-1,1-1h0c0.552,0,1,0.448,1,1V9z"/><rect width="10" height="6" x="19" y="6" fill="#50e6ff"/><path fill="#45d5ed" d="M29,12h3V8.535c0-0.334-0.167-0.647-0.445-0.832L29,6V12z"/><path fill="#45d5ed" d="M19,12h-3V8.535c0-0.334,0.167-0.647,0.445-0.832L19,6V12z"/><path fill="#29aad6" d="M14,21h-3v-6.465c0-0.334,0.167-0.647,0.445-0.832L14,12V21z"/><path fill="#29aad6" d="M37,21h-3v-9l2.555,1.703C36.833,13.889,37,14.201,37,14.535V21z"/><rect width="20" height="9" x="14" y="12" fill="#35c1f1" transform="rotate(-180 24 16.5)"/><linearGradient id="pOVWcpEKHn0SOntzWFoOFa" x1="23.959" x2="43.965" y1="27" y2="27" gradientUnits="userSpaceOnUse"><stop offset="0" stop-color="#56626b"/><stop offset="1" stop-color="#5d6a74"/></linearGradient><path fill="url(#pOVWcpEKHn0SOntzWFoOFa)" d="M42.219,21.044l-17.67-4.958C24.374,16.036,24.192,16,24,16v22h14v-6.344 c0-1.725,0.557-3.403,1.589-4.785l3.214-4.306C42.918,22.403,43,22.215,43,22C43,21.526,42.663,21.147,42.219,21.044z"/><linearGradient id="pOVWcpEKHn0SOntzWFoOFb" x1="6.003" x2="23.907" y1="27" y2="27" gradientUnits="userSpaceOnUse"><stop offset="0" stop-color="#889097"/><stop offset="1" stop-color="#64717c"/></linearGradient><path fill="url(#pOVWcpEKHn0SOntzWFoOFb)" d="M5.781,21.044l17.67-4.958C23.626,16.036,23.808,16,24,16v22H10v-6.344 c0-1.725-0.557-3.403-1.589-4.785l-3.214-4.306C5.082,22.403,5,22.215,5,22C5,21.526,5.337,21.147,5.781,21.044z"/><linearGradient id="pOVWcpEKHn0SOntzWFoOFc" x1="24" x2="24" y1="35.961" y2="43.995" gradientUnits="userSpaceOnUse"><stop offset="0" stop-color="#2aa4f4"/><stop offset="1" stop-color="#007ad9"/></linearGradient><path fill="url(#pOVWcpEKHn0SOntzWFoOFc)" d="M42,37c-1.657,0-3-1-3-1s-1.343,1-3,1s-3-1-3-1s-1.343,1-3,1s-3-1-3-1s-1.343,1-3,1s-3-1-3-1	s-1.343,1-3,1s-3-1-3-1s-1.343,1-3,1s-3-1-3-1s-1.343,1-3,1s-3-1-3-1v6c0,1.105,0.895,2,2,2h38c1.105,0,2-0.895,2-2v-6	C45,36,43.657,37,42,37z"/><linearGradient id="pOVWcpEKHn0SOntzWFoOFd" x1="35" x2="35" y1="22.878" y2="25.998" gradientUnits="userSpaceOnUse"><stop offset="0" stop-color="#343434"/><stop offset="1" stop-color="#4c4c4c"/></linearGradient><ellipse cx="35" cy="24.5" fill="url(#pOVWcpEKHn0SOntzWFoOFd)" rx="1" ry="1.5"/><linearGradient id="pOVWcpEKHn0SOntzWFoOFe" x1="13" x2="13" y1="22.878" y2="25.998" gradientUnits="userSpaceOnUse"><stop offset="0" stop-color="#343434"/><stop offset="1" stop-color="#4c4c4c"/></linearGradient><ellipse cx="13" cy="24.5" fill="url(#pOVWcpEKHn0SOntzWFoOFe)" rx="1" ry="1.5"/></svg>