<svg xmlns="http://www.w3.org/2000/svg" viewBox="0 0 48 48"><linearGradient id="hpicty97LwYU90uQigPCda" x1="27" x2="27" y1="3.617" y2="15.745" gradientUnits="userSpaceOnUse"><stop offset="0" stop-color="#199ae0"/><stop offset="1" stop-color="#0782d8"/></linearGradient><path fill="url(#hpicty97LwYU90uQigPCda)" d="M16,20.48V5c0-0.552,0.448-1,1-1h1c0,0.552,0.448,1,1,1s1-0.448,1-1h2c0,0.552,0.448,1,1,1	s1-0.448,1-1h2c0,0.552,0.448,1,1,1s1-0.448,1-1h2c0,0.552,0.448,1,1,1s1-0.448,1-1h2c0,0.552,0.448,1,1,1s1-0.448,1-1h1	c0.552,0,1,0.448,1,1v15.48H16z"/><linearGradient id="hpicty97LwYU90uQigPCdb" x1="30" x2="30" y1="24.077" y2="15.264" gradientUnits="userSpaceOnUse"><stop offset="0" stop-color="#0176d0"/><stop offset="1" stop-color="#16538c"/></linearGradient><path fill="url(#hpicty97LwYU90uQigPCdb)" d="M32,19h-4v-4c0-1.105,0.895-2,2-2h0c1.105,0,2,0.895,2,2V19z"/><linearGradient id="hpicty97LwYU90uQigPCdc" x1="25.979" x2="39.203" y1="-37.979" y2="-51.203" gradientTransform="matrix(1 0 0 -1 0 -18)" gradientUnits="userSpaceOnUse"><stop offset="0" stop-color="#fede00"/><stop offset="1" stop-color="#ffd000"/></linearGradient><circle cx="32.5" cy="26.5" r="9.5" fill="url(#hpicty97LwYU90uQigPCdc)"/><circle cx="32.5" cy="26.5" r="7.719" fill="#f5be00"/><path fill="#fee119" d="M35.469,28.396c0-2.908-4.292-2.339-4.292-4.057c0-0.897,1.008-0.944,1.323-0.944	c0.758,0,1.489,0.203,2.047,0.465c0.176,0.083,0.378-0.04,0.378-0.233V22.78c0-0.284-0.107-0.452-0.277-0.518	c-0.382-0.148-0.931-0.257-1.743-0.284v-0.931c0-0.112-0.09-0.202-0.202-0.202h-0.404c-0.112,0-0.202,0.09-0.202,0.202v0.946	c-1.26,0.122-2.566,0.833-2.566,2.486c0,3.014,4.292,2.416,4.292,4.003c0,0.499-0.319,0.929-1.323,0.929	c-1.01,0-1.938-0.353-2.452-0.615c-0.173-0.088-0.376,0.04-0.376,0.234v0.963c0,0.185,0.111,0.349,0.281,0.421	c0.609,0.258,1.425,0.454,2.143,0.511v1.029c0,0.112,0.09,0.202,0.202,0.202h0.404c0.112,0,0.202-0.09,0.202-0.202v-1.027	C34.788,30.77,35.469,29.509,35.469,28.396z"/><path d="M29,17.674c-3.513,1.394-6,4.816-6,8.826s2.487,7.431,6,8.826V17.674z" opacity=".05"/><path d="M28.5,17.892C25.255,19.403,23,22.684,23,26.5s2.255,7.097,5.5,8.608V17.892z" opacity=".07"/><linearGradient id="hpicty97LwYU90uQigPCdd" x1="18" x2="18" y1="13.386" y2="41.215" gradientUnits="userSpaceOnUse"><stop offset="0" stop-color="#7dd8f3"/><stop offset="1" stop-color="#45b0d0"/></linearGradient><path fill="url(#hpicty97LwYU90uQigPCdd)" d="M28,15c0-1.105,0.895-2,2-2H8c-1.105,0-2,0.895-2,2v28c0,0.552,0.448,1,1,1h1	c0-0.556,0.448-1.007,1-1.007s1,0.451,1,1.007h2c0-0.556,0.448-1.007,1-1.007s1,0.451,1,1.007h2c0-0.556,0.448-1.007,1-1.007	s1,0.451,1,1.007h2c0-0.556,0.448-1.007,1-1.007s1,0.451,1,1.007h2c0-0.556,0.448-1.007,1-1.007s1,0.451,1,1.007h1	c0.552,0,1-0.448,1-1V18v-2V15z"/><path fill="#057093" d="M24.5,20h-15C9.224,20,9,19.776,9,19.5v-1C9,18.224,9.224,18,9.5,18h15c0.276,0,0.5,0.224,0.5,0.5v1 C25,19.776,24.776,20,24.5,20z"/><path fill="#057093" d="M24.5,27h-1c-0.276,0-0.5-0.224-0.5-0.5v-1c0-0.276,0.224-0.5,0.5-0.5h1c0.276,0,0.5,0.224,0.5,0.5 v1C25,26.776,24.776,27,24.5,27z"/><path fill="#057093" d="M16.5,27h-7C9.224,27,9,26.776,9,26.5v-1C9,25.224,9.224,25,9.5,25h7c0.276,0,0.5,0.224,0.5,0.5v1 C17,26.776,16.776,27,16.5,27z"/><path fill="#057093" d="M24.5,31h-1c-0.276,0-0.5-0.224-0.5-0.5v-1c0-0.276,0.224-0.5,0.5-0.5h1c0.276,0,0.5,0.224,0.5,0.5 v1C25,30.776,24.776,31,24.5,31z"/><path fill="#057093" d="M13.5,31h-4C9.224,31,9,30.776,9,30.5v-1C9,29.224,9.224,29,9.5,29h4c0.276,0,0.5,0.224,0.5,0.5v1 C14,30.776,13.776,31,13.5,31z"/><path fill="#057093" d="M24.5,35h-1c-0.276,0-0.5-0.224-0.5-0.5v-1c0-0.276,0.224-0.5,0.5-0.5h1c0.276,0,0.5,0.224,0.5,0.5 v1C25,34.776,24.776,35,24.5,35z"/><path fill="#057093" d="M16.5,35h-7C9.224,35,9,34.776,9,34.5v-1C9,33.224,9.224,33,9.5,33h7c0.276,0,0.5,0.224,0.5,0.5v1 C17,34.776,16.776,35,16.5,35z"/></svg>