<svg xmlns="http://www.w3.org/2000/svg" viewBox="0 0 48 48"><path fill="#1b9de2" d="M39,9H9v33c0,1.105,0.895,2,2,2h26c1.105,0,2-0.895,2-2V9z"/><path fill="#35c1f1" d="M39,9H9V6c0-1.105,0.895-2,2-2h26c1.105,0,2,0.895,2,2V9z"/><circle cx="20" cy="6.5" r=".75" fill="#184f85"/><path fill="#184f85" d="M27.5,5.75c-0.194,0-4.806,0-5,0c-0.414,0-0.75,0.336-0.75,0.75s0.336,0.75,0.75,0.75 c0.194,0,4.806,0,5,0c0.414,0,0.75-0.336,0.75-0.75S27.914,5.75,27.5,5.75z"/><linearGradient id="7ACJ7Fb2K8Xg5Ktod94uSa" x1="24" x2="24" y1="-448.957" y2="-447.199" gradientTransform="matrix(1 0 0 -1 0 -426)" gradientUnits="userSpaceOnUse"><stop offset="0" stop-color="#92a3b0"/><stop offset=".015" stop-color="#a3b5c4"/><stop offset=".032" stop-color="#aec2d1"/><stop offset=".046" stop-color="#b2c6d6"/></linearGradient><path fill="url(#7ACJ7Fb2K8Xg5Ktod94uSa)" d="M30,24.142h-2V22c0-2.206-1.794-4-4-4s-4,1.794-4,4v1.958h-2V22c0-3.309,2.691-6,6-6 s6,2.691,6,6V24.142z"/><path fill="#c48c00" d="M32.25,35h-16.5C15.336,35,15,34.664,15,34.25V32h18v2.25C33,34.664,32.664,35,32.25,35z"/><rect width="18" height="3" x="15" y="29" fill="#e3a600"/><rect width="18" height="3" x="15" y="26" fill="#edbe00"/><path fill="#fad500" d="M33,26H15v-2.25c0-0.414,0.336-0.75,0.75-0.75h16.5c0.414,0,0.75,0.336,0.75,0.75V26z"/><linearGradient id="7ACJ7Fb2K8Xg5Ktod94uSb" x1="24" x2="24" y1="-457.851" y2="-452.766" gradientTransform="matrix(1 0 0 -1 0 -426)" gradientUnits="userSpaceOnUse"><stop offset="0" stop-color="#4b4b4b"/><stop offset="1" stop-color="#3b3b3b"/></linearGradient><path fill="url(#7ACJ7Fb2K8Xg5Ktod94uSb)" d="M26,28c0-1.105-0.895-2-2-2s-2,0.895-2,2c0,0.738,0.405,1.376,1,1.723V32 c0,0.552,0.448,1,1,1s1-0.448,1-1v-2.277C25.595,29.376,26,28.738,26,28z"/></svg>