<svg xmlns="http://www.w3.org/2000/svg" viewBox="0 0 48 48"><linearGradient id="0~eYSmXh4Vd6f8WZ5ocW7a" x1="21.5" x2="21.5" y1="-4.455" y2="52.824" gradientUnits="userSpaceOnUse"><stop offset="0" stop-color="#a34f27"/><stop offset=".587" stop-color="#8b3817"/><stop offset="1" stop-color="#802d10"/></linearGradient><path fill="url(#0~eYSmXh4Vd6f8WZ5ocW7a)" d="M37,38.375c0-0.306-0.035-0.592-0.087-0.868c-0.013-0.066-0.031-0.129-0.047-0.194	c-0.049-0.206-0.11-0.406-0.186-0.598c-0.034-0.088-0.069-0.173-0.107-0.258c-0.069-0.146-0.147-0.287-0.231-0.425	c-0.08-0.136-0.163-0.267-0.256-0.393C34.506,33.476,31.212,32.212,29,30c-3-3-4-8-9-8s-5,5-7.25,6	c-2.209,0.982-3.686,1.963-4.686,2.892c-0.017,0.015-0.032,0.031-0.048,0.047C6.011,32.83,6,34.499,6,35.5c0,3.59,3.134,6.5,7,6.5	c6,0,6-3,9-3c2.738,0,5.79,3.323,9.438,3.905c0.005,0.001,0.009,0.001,0.014,0.002c0.247,0.039,0.496,0.064,0.748,0.075	C32.26,42.985,32.315,43,32.375,43c0.016,0,0.03-0.004,0.046-0.005c0.027,0,0.052,0.005,0.079,0.005	c0-0.004,0.001-0.008,0.001-0.013C34.996,42.919,37,40.886,37,38.375z"/><linearGradient id="0~eYSmXh4Vd6f8WZ5ocW7b" x1="8.5" x2="8.5" y1="-4.455" y2="52.824" gradientUnits="userSpaceOnUse"><stop offset="0" stop-color="#a34f27"/><stop offset=".587" stop-color="#8b3817"/><stop offset="1" stop-color="#802d10"/></linearGradient><path fill="url(#0~eYSmXh4Vd6f8WZ5ocW7b)" d="M12,23.5c0-1.933-1.567-5.5-3.5-5.5S5,21.567,5,23.5S6.567,27,8.5,27S12,25.433,12,23.5z"/><linearGradient id="0~eYSmXh4Vd6f8WZ5ocW7c" x1="40" x2="40" y1="-4.455" y2="52.824" gradientUnits="userSpaceOnUse"><stop offset="0" stop-color="#a34f27"/><stop offset=".587" stop-color="#8b3817"/><stop offset="1" stop-color="#802d10"/></linearGradient><path fill="url(#0~eYSmXh4Vd6f8WZ5ocW7c)" d="M39.571,35C38.714,35,37,34.111,37,31.444S38.714,27,40.429,27C41.286,27,43,27.889,43,30.556	C43,34.111,40.429,35,39.571,35z"/><linearGradient id="0~eYSmXh4Vd6f8WZ5ocW7d" x1="34" x2="34" y1="-4.455" y2="52.824" gradientUnits="userSpaceOnUse"><stop offset="0" stop-color="#a34f27"/><stop offset=".587" stop-color="#8b3817"/><stop offset="1" stop-color="#802d10"/></linearGradient><path fill="url(#0~eYSmXh4Vd6f8WZ5ocW7d)" d="M33.429,27C32.286,27,30,25.889,30,22.556S32.286,17,34.571,17C35.714,17,38,18.111,38,21.444	C38,25.889,34.571,27,33.429,27z"/><linearGradient id="0~eYSmXh4Vd6f8WZ5ocW7e" x1="16" x2="16" y1="-4.455" y2="52.824" gradientUnits="userSpaceOnUse"><stop offset="0" stop-color="#a34f27"/><stop offset=".587" stop-color="#8b3817"/><stop offset="1" stop-color="#802d10"/></linearGradient><path fill="url(#0~eYSmXh4Vd6f8WZ5ocW7e)" d="M20,16c0-2,0-7-2-7c-4,0-6,4.791-6,7s1.791,4,4,4S20,18,20,16z"/><linearGradient id="0~eYSmXh4Vd6f8WZ5ocW7f" x1="26" x2="26" y1="-4.455" y2="52.824" gradientUnits="userSpaceOnUse"><stop offset="0" stop-color="#a34f27"/><stop offset=".587" stop-color="#8b3817"/><stop offset="1" stop-color="#802d10"/></linearGradient><path fill="url(#0~eYSmXh4Vd6f8WZ5ocW7f)" d="M30,16c0-2,0-7-2-7c-4,0-6,4.791-6,7s1.791,4,4,4S30,18,30,16z"/><linearGradient id="0~eYSmXh4Vd6f8WZ5ocW7g" x1="8" x2="8" y1="-4.455" y2="52.824" gradientUnits="userSpaceOnUse"><stop offset="0" stop-color="#a34f27"/><stop offset=".587" stop-color="#8b3817"/><stop offset="1" stop-color="#802d10"/></linearGradient><path fill="url(#0~eYSmXh4Vd6f8WZ5ocW7g)" d="M10,21c0-1.105-0.895-7-2-7s-2,5.895-2,7s0.895,2,2,2S10,22.105,10,21z"/><linearGradient id="0~eYSmXh4Vd6f8WZ5ocW7h" x1="35" x2="35" y1="-4.455" y2="52.824" gradientUnits="userSpaceOnUse"><stop offset="0" stop-color="#a34f27"/><stop offset=".587" stop-color="#8b3817"/><stop offset="1" stop-color="#802d10"/></linearGradient><path fill="url(#0~eYSmXh4Vd6f8WZ5ocW7h)" d="M37,20c0-1.105-0.895-7-2-7s-2,5.895-2,7s0.895,2,2,2S37,21.105,37,20z"/><linearGradient id="0~eYSmXh4Vd6f8WZ5ocW7i" x1="40.5" x2="40.5" y1="-4.455" y2="52.824" gradientUnits="userSpaceOnUse"><stop offset="0" stop-color="#a34f27"/><stop offset=".587" stop-color="#8b3817"/><stop offset="1" stop-color="#802d10"/></linearGradient><path fill="url(#0~eYSmXh4Vd6f8WZ5ocW7i)" d="M42,29.444C42,28.585,41.328,24,40.5,24S39,28.585,39,29.444S39.672,31,40.5,31	S42,30.304,42,29.444z"/><linearGradient id="0~eYSmXh4Vd6f8WZ5ocW7j" x1="17.001" x2="17.001" y1="-4.455" y2="52.824" gradientUnits="userSpaceOnUse"><stop offset="0" stop-color="#a34f27"/><stop offset=".587" stop-color="#8b3817"/><stop offset="1" stop-color="#802d10"/></linearGradient><path fill="url(#0~eYSmXh4Vd6f8WZ5ocW7j)" d="M19,11c0-1.105,0.105-7-1-7s-3,5.895-3,7s0.895,2,2,2S19,12.105,19,11z"/><linearGradient id="0~eYSmXh4Vd6f8WZ5ocW7k" x1="26.999" x2="26.999" y1="-4.455" y2="52.824" gradientUnits="userSpaceOnUse"><stop offset="0" stop-color="#a34f27"/><stop offset=".587" stop-color="#8b3817"/><stop offset="1" stop-color="#802d10"/></linearGradient><path fill="url(#0~eYSmXh4Vd6f8WZ5ocW7k)" d="M28.997,11c0-1.105,0.105-7-1-7c-1.105,0-3,5.895-3,7s0.895,2,2,2	C28.102,13,28.997,12.105,28.997,11z"/></svg>