<svg xmlns="http://www.w3.org/2000/svg" viewBox="0 0 48 48"><path fill="#52bf8d" d="M43.083,15H4.917C4.411,15,4,14.589,4,14.083v-3.167C4,10.411,4.411,10,4.917,10h38.167	C43.589,10,44,10.411,44,10.917v3.167C44,14.589,43.589,15,43.083,15z"/><rect width="30" height="3" x="9" y="10" fill="#107c42"/><path fill="#59d19a" d="M44.083,18H3.917C3.411,18,3,17.589,3,17.083v-3.167C3,13.411,3.411,13,3.917,13h40.167	C44.589,13,45,13.411,45,13.917v3.167C45,17.589,44.589,18,44.083,18z"/><rect width="32" height="3" x="8" y="13" fill="#21a366"/><path fill="#61e3a7" d="M45.083,38H2.917C2.411,38,2,37.589,2,37.083V16.917C2,16.411,2.411,16,2.917,16h42.167	C45.589,16,46,16.411,46,16.917v20.167C46,37.589,45.589,38,45.083,38z"/><rect width="34" height="22" x="7" y="16" fill="#33c481"/><radialGradient id="1FpH5szDP5h5czlxddvtAa" cx="37.723" cy="37.043" r="10.897" gradientUnits="userSpaceOnUse"><stop offset="0"/><stop offset="1" stop-opacity="0"/></radialGradient><path fill="url(#1FpH5szDP5h5czlxddvtAa)" d="M46,37.083v-8.002C43.874,27.172,41.075,26,38,26c-6.617,0-12,5.383-12,12h19.083	C45.589,38,46,37.589,46,37.083z"/><radialGradient id="1FpH5szDP5h5czlxddvtAb" cx="41.106" cy="30.027" r="8.617" gradientUnits="userSpaceOnUse"><stop offset="0"/><stop offset="1" stop-opacity="0"/></radialGradient><path fill="url(#1FpH5szDP5h5czlxddvtAb)" d="M41,20.778c-4.962,0-9,4.037-9,9c0,3.665,2.205,6.819,5.355,8.222h7.29	c0.46-0.205,0.9-0.444,1.315-0.719c0.015-0.066,0.04-0.127,0.04-0.197V22.3C44.569,21.34,42.849,20.778,41,20.778z"/><circle cx="41" cy="29.778" r="7" fill="#ff8f6b"/><circle cx="41" cy="29.778" r="5" fill="#ed6c47"/><linearGradient id="1FpH5szDP5h5czlxddvtAc" x1="31.136" x2="45.056" y1="-174.864" y2="-160.944" gradientTransform="translate(0 206)" gradientUnits="userSpaceOnUse"><stop offset="0" stop-color="#fede00"/><stop offset="1" stop-color="#ffd000"/></linearGradient><circle cx="38" cy="38" r="10" fill="url(#1FpH5szDP5h5czlxddvtAc)"/><circle cx="38" cy="38" r="8" fill="#f5be00"/><path fill="#fee119" d="M35.767,41.685v-1.49c0.541,0.331,1.117,0.497,1.728,0.497c0.46,0,0.82-0.109,1.079-0.328	c0.259-0.219,0.389-0.516,0.389-0.892c0-0.784-0.554-1.176-1.662-1.176c-0.361,0-0.797,0.033-1.309,0.099v-4.423h4.384v1.425h-2.893	v1.584c0.232-0.022,0.451-0.033,0.657-0.033c0.813,0,1.45,0.214,1.91,0.64c0.46,0.427,0.69,1.002,0.69,1.723	c0,0.798-0.274,1.451-0.823,1.957c-0.548,0.507-1.292,0.759-2.231,0.759C36.926,42.028,36.286,41.914,35.767,41.685z"/><circle cx="19" cy="27" r="7" fill="#61e3a7"/></svg>