<svg xmlns="http://www.w3.org/2000/svg" viewBox="0 0 48 48"><path fill="#097138" d="M10.185,3.56C9.516,3.18,8.983,3,8.209,3C6.884,3,6,3.875,6,5.406v37.188 C6,44.125,6.884,45,8.209,45c0.773,0,1.307-0.18,1.976-0.56l22.123-12.474L35,28l4.418-0.043l2.98-1.68 C43.287,25.773,44,25.094,44,24s-0.713-1.775-1.603-2.279L10.185,3.56z"/><linearGradient id="y1jz9fnOiv2FD8Yq2nDjEa" x1="19.913" x2="32.282" y1="10.656" y2="32.081" gradientUnits="userSpaceOnUse"><stop offset="0" stop-color="#00b359"/><stop offset="1" stop-color="#019d4d"/></linearGradient><path fill="url(#y1jz9fnOiv2FD8Yq2nDjEa)" d="M39.42,27.96l-1.8-10.18c-0.59-3.34-3.5-5.78-6.9-5.78H19.6c-2.08,0-3.95,0.84-5.31,2.2 c-1.35,1.36-2.19,3.23-2.19,5.3c0,3.591,2.523,6.592,5.9,7.325V29h11.471l2.839,2.97L39.42,27.96z"/><path fill="#00e26b" d="M14.959,33.883L21.539,27H30.5c4.142,0,7.5-3.358,7.5-7.5v0c0-4.142-3.358-7.5-7.5-7.5H18.372 c-3.396,0-6.302,2.438-6.893,5.782l-2.325,13.16C8.568,34.255,12.635,36.314,14.959,33.883z"/><polygon points="16.5,24 16.5,21.5 14,21.5 14,17.5 16.5,17.5 16.5,15 20.5,15 20.5,17.5 23,17.5 23,21.5 20.5,21.5 20.5,24" opacity=".05"/><polygon points="17,23.5 17,21 14.5,21 14.5,18 17,18 17,15.5 20,15.5 20,18 22.5,18 22.5,21 20,21 20,23.5" opacity=".07"/><polygon fill="#fff" points="22,18.5 19.5,18.5 19.5,16 17.5,16 17.5,18.5 15,18.5 15,20.5 17.5,20.5 17.5,23 19.5,23 19.5,20.5 22,20.5"/><path d="M33.25,17.25c-0.095,0-0.186,0.017-0.278,0.028C32.983,17.186,33,17.095,33,17 c0-1.241-1.01-2.25-2.25-2.25S28.5,15.759,28.5,17c0,0.095,0.017,0.186,0.028,0.278c-0.092-0.012-0.183-0.028-0.278-0.028 c-1.24,0-2.25,1.009-2.25,2.25s1.01,2.25,2.25,2.25c0.095,0,0.186-0.017,0.278-0.028C28.517,21.814,28.5,21.905,28.5,22 c0,1.241,1.01,2.25,2.25,2.25S33,23.241,33,22c0-0.095-0.017-0.186-0.028-0.278c0.092,0.012,0.183,0.028,0.278,0.028 c1.24,0,2.25-1.009,2.25-2.25S34.49,17.25,33.25,17.25z" opacity=".05"/><circle cx="28.25" cy="19.5" r="1.75" opacity=".07"/><circle cx="33.25" cy="19.5" r="1.75" opacity=".07"/><circle cx="30.75" cy="17" r="1.75" opacity=".07"/><circle cx="30.75" cy="22" r="1.75" opacity=".07"/><circle cx="28.25" cy="19.5" r="1.25" fill="#fff"/><circle cx="33.25" cy="19.5" r="1.25" fill="#fff"/><circle cx="30.75" cy="17" r="1.25" fill="#fff"/><circle cx="30.75" cy="22" r="1.25" fill="#fff"/></svg>