<svg xmlns="http://www.w3.org/2000/svg" viewBox="0 0 48 48"><linearGradient id="v2EbAbE2WKpuuCIsX9KqEa" x1="24" x2="24" y1="36.326" y2="48.329" gradientUnits="userSpaceOnUse"><stop offset="0" stop-color="#c8cdd1"/><stop offset="1" stop-color="#fafafb"/></linearGradient><path fill="url(#v2EbAbE2WKpuuCIsX9KqEa)" d="M9,35.938h7v6.063c0,0.552-0.448,1-1,1h-5c-0.552,0-1-0.448-1-1V35.938z M32,35.938h7v6.063 c0,0.552-0.448,1-1,1h-5c-0.552,0-1-0.448-1-1V35.938z"/><linearGradient id="v2EbAbE2WKpuuCIsX9KqEb" x1="29.204" x2="35.777" y1="4.694" y2="35.132" gradientUnits="userSpaceOnUse"><stop offset="0" stop-color="#f44f5a"/><stop offset="1" stop-color="#e52030"/></linearGradient><path fill="url(#v2EbAbE2WKpuuCIsX9KqEb)" d="M24,5v7c4.648,0,8,3.246,8,8v16h7V20.341C39,11.868,32.285,5,24,5z"/><linearGradient id="v2EbAbE2WKpuuCIsX9KqEc" x1="14.052" x2="18.884" y1="5.253" y2="35.344" gradientUnits="userSpaceOnUse"><stop offset="0" stop-color="#2aa4f4"/><stop offset="1" stop-color="#007ad9"/></linearGradient><path fill="url(#v2EbAbE2WKpuuCIsX9KqEc)" d="M9,20.341V36h7V20c0-4.754,3.351-8,8-8V5C15.715,5,9,11.868,9,20.341z"/></svg>