<svg xmlns="http://www.w3.org/2000/svg" viewBox="0 0 48 48"><radialGradient id="NeDY3sbayh~juPyidAIvka" cx="24" cy="24" r="21" gradientUnits="userSpaceOnUse"><stop offset="0" stop-color="#e36001"/><stop offset=".634" stop-color="#ec8701"/><stop offset="1" stop-color="#f09801"/></radialGradient><path fill="url(#NeDY3sbayh~juPyidAIvka)" d="M43.963,22.95h-0.119c-1.143,0-2.08-0.846-2.271-1.972c-0.055-0.323-0.118-0.643-0.19-0.96 c-0.247-1.087,0.283-2.199,1.313-2.625l0.149-0.062c0.529-0.219,0.78-0.826,0.561-1.355l-0.01-0.024 c-0.219-0.529-0.826-0.78-1.355-0.561l-0.123,0.051c-1.046,0.433-2.225,0.015-2.829-0.943c-0.174-0.276-0.356-0.548-0.545-0.814 c-0.651-0.917-0.587-2.158,0.208-2.954l0.105-0.105c0.405-0.405,0.405-1.062,0-1.467L38.84,9.142c-0.405-0.405-1.062-0.405-1.467,0 l-0.105,0.105c-0.795,0.795-2.036,0.859-2.954,0.208c-0.266-0.189-0.537-0.37-0.814-0.545c-0.958-0.604-1.376-1.783-0.943-2.829 l0.051-0.123c0.219-0.529-0.032-1.136-0.561-1.355l-0.024-0.01c-0.529-0.219-1.136,0.032-1.355,0.561l-0.062,0.149 c-0.427,1.03-1.538,1.559-2.625,1.313c-0.317-0.072-0.637-0.135-0.96-0.19c-1.127-0.191-1.972-1.128-1.972-2.271V4.037 C25.05,3.464,24.586,3,24.013,3h-0.026c-0.573,0-1.037,0.464-1.037,1.037v0.119c0,1.143-0.846,2.08-1.972,2.271 c-0.323,0.055-0.643,0.118-0.96,0.19c-1.087,0.247-2.199-0.283-2.625-1.313l-0.062-0.149c-0.219-0.529-0.826-0.78-1.355-0.561 l-0.024,0.01c-0.529,0.219-0.781,0.826-0.561,1.355l0.051,0.123c0.433,1.046,0.015,2.225-0.943,2.829 c-0.276,0.174-0.548,0.356-0.814,0.545c-0.917,0.651-2.158,0.587-2.954-0.208l-0.105-0.105c-0.405-0.405-1.062-0.405-1.467,0 L9.142,9.16c-0.405,0.405-0.405,1.062,0,1.467l0.105,0.105c0.795,0.795,0.859,2.036,0.208,2.954 c-0.189,0.266-0.37,0.537-0.545,0.814c-0.604,0.958-1.783,1.376-2.829,0.943L5.959,15.39c-0.529-0.219-1.136,0.032-1.355,0.561 l-0.01,0.024c-0.219,0.529,0.032,1.136,0.561,1.355l0.149,0.062c1.03,0.427,1.559,1.538,1.313,2.625 c-0.072,0.317-0.135,0.637-0.19,0.96c-0.191,1.127-1.128,1.972-2.271,1.972H4.037C3.464,22.95,3,23.414,3,23.987v0.026 c0,0.573,0.464,1.037,1.037,1.037h0.119c1.143,0,2.08,0.846,2.271,1.972c0.055,0.323,0.118,0.643,0.19,0.96 c0.247,1.087-0.283,2.199-1.313,2.625l-0.149,0.062c-0.529,0.219-0.78,0.826-0.561,1.355l0.01,0.024 c0.219,0.529,0.826,0.781,1.355,0.561l0.123-0.051c1.046-0.433,2.225-0.015,2.829,0.943c0.174,0.276,0.356,0.548,0.545,0.814 c0.651,0.917,0.587,2.158-0.208,2.954l-0.105,0.105c-0.405,0.405-0.405,1.062,0,1.467l0.018,0.018c0.405,0.405,1.062,0.405,1.467,0 l0.105-0.105c0.795-0.795,2.036-0.859,2.954-0.208c0.266,0.189,0.537,0.37,0.814,0.545c0.958,0.604,1.376,1.783,0.943,2.829 l-0.051,0.123c-0.219,0.529,0.032,1.136,0.561,1.355l0.024,0.01c0.529,0.219,1.136-0.032,1.355-0.561l0.062-0.149 c0.427-1.03,1.538-1.559,2.625-1.313c0.317,0.072,0.637,0.135,0.96,0.19c1.127,0.191,1.972,1.128,1.972,2.271v0.119 c0,0.573,0.464,1.037,1.037,1.037h0.026c0.573,0,1.037-0.464,1.037-1.037v-0.119c0-1.143,0.846-2.08,1.972-2.271 c0.323-0.055,0.643-0.118,0.96-0.19c1.087-0.247,2.199,0.283,2.625,1.313l0.062,0.149c0.219,0.529,0.826,0.781,1.355,0.561 l0.024-0.01c0.529-0.219,0.781-0.826,0.561-1.355l-0.051-0.123c-0.433-1.046-0.015-2.225,0.943-2.829 c0.276-0.174,0.548-0.356,0.814-0.545c0.917-0.651,2.158-0.587,2.954,0.208l0.105,0.105c0.405,0.405,1.062,0.405,1.467,0 l0.018-0.018c0.405-0.405,0.405-1.062,0-1.467l-0.105-0.105c-0.795-0.795-0.859-2.036-0.208-2.954 c0.189-0.266,0.37-0.537,0.545-0.814c0.604-0.958,1.783-1.376,2.829-0.943l0.123,0.051c0.529,0.219,1.136-0.032,1.355-0.561 l0.01-0.024c0.219-0.529-0.032-1.136-0.561-1.355l-0.149-0.062c-1.03-0.427-1.559-1.538-1.313-2.625 c0.072-0.317,0.135-0.637,0.19-0.96c0.191-1.127,1.128-1.972,2.271-1.972h0.119c0.573,0,1.037-0.464,1.037-1.037v-0.026 C45,23.414,44.536,22.95,43.963,22.95z"/><radialGradient id="NeDY3sbayh~juPyidAIvkb" cx="24" cy="24" r="21" gradientUnits="userSpaceOnUse"><stop offset="0" stop-color="#ffda1c"/><stop offset=".334" stop-color="#ffd318"/><stop offset=".811" stop-color="#fec00b"/><stop offset="1" stop-color="#feb705"/></radialGradient><path fill="url(#NeDY3sbayh~juPyidAIvkb)" d="M43.963,22.95h-5.016c-0.089-1.286-0.335-2.527-0.728-3.703l4.627-1.916 c0.529-0.219,0.781-0.826,0.561-1.355l-0.01-0.024c-0.219-0.529-0.826-0.78-1.355-0.561l-4.631,1.918 c-0.568-1.136-1.272-2.188-2.097-3.137l3.545-3.545c0.405-0.405,0.405-1.062,0-1.467L38.84,9.142c-0.405-0.405-1.062-0.405-1.467,0 l-3.545,3.545c-0.949-0.825-2.002-1.529-3.137-2.097l1.918-4.631c0.219-0.529-0.032-1.136-0.561-1.355l-0.024-0.01 c-0.529-0.219-1.136,0.032-1.355,0.561l-1.916,4.627c-1.176-0.393-2.417-0.639-3.703-0.728V4.037C25.05,3.464,24.586,3,24.013,3 h-0.026c-0.573,0-1.037,0.464-1.037,1.037v5.016c-1.286,0.089-2.527,0.335-3.703,0.728l-1.916-4.627 c-0.219-0.529-0.826-0.78-1.355-0.561l-0.024,0.01c-0.529,0.219-0.78,0.826-0.561,1.355l1.918,4.631 c-1.136,0.568-2.188,1.272-3.137,2.097l-3.545-3.545c-0.405-0.405-1.062-0.405-1.467,0L9.142,9.16 c-0.405,0.405-0.405,1.062,0,1.467l3.545,3.545c-0.825,0.949-1.529,2.002-2.097,3.137L5.958,15.39 c-0.529-0.219-1.136,0.032-1.355,0.561l-0.01,0.024c-0.219,0.529,0.032,1.136,0.561,1.355l4.627,1.916 c-0.393,1.176-0.639,2.417-0.728,3.703H4.037C3.464,22.95,3,23.414,3,23.987v0.026c0,0.573,0.464,1.037,1.037,1.037h5.016 c0.089,1.286,0.335,2.527,0.728,3.703l-4.627,1.916c-0.529,0.219-0.781,0.826-0.561,1.355l0.01,0.024 c0.219,0.529,0.826,0.781,1.355,0.561l4.631-1.918c0.568,1.136,1.272,2.188,2.097,3.137l-3.545,3.545 c-0.405,0.405-0.405,1.062,0,1.467l0.018,0.018c0.405,0.405,1.062,0.405,1.467,0l3.545-3.545c0.949,0.825,2.002,1.529,3.137,2.097 l-1.918,4.631c-0.219,0.529,0.032,1.136,0.561,1.355l0.024,0.01c0.529,0.219,1.136-0.032,1.355-0.561l1.916-4.627 c1.176,0.393,2.417,0.639,3.703,0.728v5.016c0,0.573,0.464,1.037,1.037,1.037h0.026c0.573,0,1.037-0.464,1.037-1.037v-5.016 c1.286-0.089,2.527-0.335,3.703-0.728l1.916,4.627c0.219,0.529,0.826,0.781,1.355,0.561l0.024-0.01 c0.529-0.219,0.78-0.826,0.561-1.355l-1.918-4.631c1.136-0.568,2.188-1.272,3.137-2.097l3.545,3.545 c0.405,0.405,1.062,0.405,1.467,0l0.018-0.018c0.405-0.405,0.405-1.062,0-1.467l-3.545-3.545c0.825-0.949,1.529-2.002,2.097-3.137 l4.631,1.918c0.529,0.219,1.136-0.032,1.355-0.561l0.01-0.024c0.219-0.529-0.032-1.136-0.561-1.355l-4.627-1.916 c0.393-1.176,0.639-2.417,0.728-3.703h5.016c0.573,0,1.037-0.464,1.037-1.037v-0.026C45,23.414,44.536,22.95,43.963,22.95z"/><radialGradient id="NeDY3sbayh~juPyidAIvkc" cx="24" cy="24" r="30.629" gradientUnits="userSpaceOnUse"><stop offset="0" stop-color="#f9f9f9"/><stop offset=".369" stop-color="#f1f2f3"/><stop offset=".523" stop-color="#e5e7e9"/><stop offset=".693" stop-color="#dde0e2"/><stop offset="1" stop-color="#c2c8cc"/></radialGradient><path fill="url(#NeDY3sbayh~juPyidAIvkc)" d="M11,24c0,2.166,0.537,4.204,1.474,6h23.051C36.463,28.204,37,26.166,37,24 s-0.537-4.204-1.474-6H12.474C11.537,19.796,11,21.834,11,24z"/><path fill="#45494d" d="M14.176,27.5v-7h2.184c0.669,0,1.184,0.143,1.544,0.43c0.36,0.286,0.54,0.69,0.54,1.21 c0,0.378-0.11,0.708-0.329,0.991c-0.219,0.283-0.498,0.48-0.839,0.591v0.019c0.427,0.062,0.768,0.246,1.023,0.552 c0.255,0.306,0.383,0.679,0.383,1.118c0,0.641-0.197,1.149-0.59,1.525c-0.393,0.376-0.93,0.564-1.611,0.564H14.176z M15.527,21.662v1.66h0.594c0.279,0,0.498-0.079,0.659-0.237c0.16-0.158,0.241-0.375,0.241-0.652c0-0.514-0.329-0.771-0.988-0.771 H15.527z M15.527,24.493v1.845h0.732c0.312,0,0.557-0.085,0.734-0.254c0.177-0.169,0.265-0.4,0.265-0.693 c0-0.28-0.087-0.5-0.261-0.659c-0.174-0.16-0.418-0.239-0.73-0.239H15.527z"/><path fill="#45494d" d="M23.268,27.5h-3.598v-7h3.46v1.284h-2.109v1.557h1.962v1.279h-1.962v1.601h2.247V27.5z"/><path fill="#45494d" d="M27.828,27.5H24.23v-7h3.46v1.284h-2.109v1.557h1.962v1.279h-1.962v1.601h2.247V27.5z"/><path fill="#45494d" d="M33.824,27.5h-1.552l-0.933-1.801c-0.07-0.137-0.136-0.259-0.201-0.366 c-0.064-0.107-0.129-0.199-0.195-0.276c-0.066-0.076-0.134-0.135-0.205-0.176c-0.071-0.04-0.149-0.061-0.232-0.061h-0.364v2.68 h-1.351v-7h2.142c1.456,0,2.184,0.635,2.184,1.904c0,0.244-0.032,0.469-0.096,0.676c-0.064,0.207-0.155,0.393-0.272,0.559 s-0.259,0.309-0.425,0.429c-0.166,0.121-0.351,0.215-0.554,0.283v0.02c0.089,0.032,0.176,0.085,0.259,0.159 c0.084,0.073,0.164,0.158,0.243,0.256c0.078,0.098,0.153,0.203,0.224,0.315c0.071,0.113,0.136,0.222,0.195,0.329L33.824,27.5z M30.142,21.682v1.948h0.586c0.29,0,0.523-0.098,0.699-0.293c0.178-0.199,0.268-0.444,0.268-0.737 c0-0.612-0.314-0.918-0.941-0.918H30.142z"/><radialGradient id="NeDY3sbayh~juPyidAIvkd" cx="24" cy="24" r="20.504" gradientUnits="userSpaceOnUse"><stop offset="0" stop-color="#21ad64"/><stop offset="1" stop-color="#088242"/></radialGradient><path fill="url(#NeDY3sbayh~juPyidAIvkd)" d="M12.474,18c2.169-4.157,6.512-7,11.526-7s9.357,2.843,11.526,7H12.474z M12.474,30 c2.169,4.157,6.512,7,11.526,7s9.357-2.843,11.526-7H12.474z"/></svg>