<svg xmlns="http://www.w3.org/2000/svg" viewBox="0 0 48 48"><path fill="#33c481" d="M6,12.454v23.751c0,0.84,0.525,1.59,1.314,1.879l13.253,4.843c1.305,0.477,2.686-0.489,2.686-1.879	V18.423c0-0.836,0.52-1.583,1.303-1.875l12.244-4.551c1.756-0.653,1.731-3.145-0.037-3.763L25.59,4.329	c-0.438-0.153-0.916-0.149-1.351,0.011l-16.93,6.237C6.522,10.867,6,11.617,6,12.454z"/><path fill="#21a366" d="M24.581,19.418v11.473c0,0.842,0.528,1.594,1.319,1.881l13.419,4.857	C40.623,38.101,42,37.135,42,35.748V14.434c0-1.394-1.39-2.36-2.696-1.875l-13.419,4.984C25.101,17.835,24.581,18.582,24.581,19.418	z"/></svg>