<svg xmlns="http://www.w3.org/2000/svg" id="Layer_1" x="0" y="0" version="1.1" viewBox="0 0 48 48" xml:space="preserve"><linearGradient id="SVGID_1_" x1="6" x2="42" y1="-449" y2="-449" gradientTransform="matrix(1 0 0 -1 0 -426)" gradientUnits="userSpaceOnUse"><stop offset="0" stop-color="#11408a"/><stop offset="1" stop-color="#103f8f"/></linearGradient><path fill="url(#SVGID_1_)" d="M40,43H8c-1.1,0-2-0.9-2-2V20L24,3l18,17v21C42,42.1,41.1,43,40,43z"/><path d="M24,4c-0.5,0-0.9,0.2-1.3,0.5l-5.4,4.8L6,20v5.4l18-16l18,16V20L30.7,9.3l-5.4-4.8C24.9,4.2,24.5,4,24,4z" opacity=".05"/><path d="M24,3c-0.5,0-0.9,0.2-1.3,0.5l-5.4,4.8L6,18.9v5.4L24,8.4l18,15.9v-5.4L30.7,8.3l-5.4-4.8	C24.9,3.2,24.5,3,24,3z" opacity=".07"/><linearGradient id="SVGID_2_" x1="3.17" x2="44.83" y1="-438.5" y2="-438.5" gradientTransform="matrix(1 0 0 -1 0 -426)" gradientUnits="userSpaceOnUse"><stop offset="0" stop-color="#1d59b3"/><stop offset="1" stop-color="#195bbc"/></linearGradient><path fill="url(#SVGID_2_)" d="M44.5,19.5l-19.2-17C24.9,2.2,24.5,2,24,2s-0.9,0.2-1.3,0.5l-19.2,17c-0.4,0.4-0.4,1-0.1,1.4l1.6,1.7	c0.4,0.4,1,0.4,1.4,0.1L24,7.4l17.5,15.3c0.4,0.4,1,0.3,1.4-0.1l1.6-1.7C44.9,20.5,44.9,19.9,44.5,19.5z"/><g opacity=".05"><path d="M25.1,23h-1.4c-0.6,0-1.1,0.3-1.3,0.8C22.1,23.3,21.6,23,21,23h-7.3c-0.8,0-1.5,0.7-1.5,1.5v1c0,0.8,0.7,1.5,1.5,1.5h2.7 l-4.3,5.7c-0.1,0.1-0.3,0.5-0.3,1v0.7c0,0.8,0.7,1.5,1.5,1.5H21c0.6,0,1-0.3,1.3-0.8c0.3,0.5,0.7,0.8,1.3,0.8h1.4 c0.8,0,1.5-0.7,1.5-1.5v-9.9C26.6,23.7,25.9,23,25.1,23z M21,31.9h-3l4.1-5.7v6.1C21.9,32.1,21.5,31.9,21,31.9z"/><path d="M31.9,23h-3.3c-0.8,0-1.5,0.7-1.5,1.5v9.9c0,0.8,0.7,1.5,1.5,1.5H30c0.8,0,1.5-0.7,1.5-1.5v-2.2h0.2c1.6,0,2.8-0.4,3.8-1.3 c1-0.9,1.5-2,1.5-3.4C37,25.8,36.3,23,31.9,23z M31.5,28.3v-1.4c0.9,0,0.9,0.3,0.9,0.7C32.4,28,32.4,28.3,31.5,28.3z"/></g><path d="M23.6,35.4c-0.6,0-1-0.4-1-1v-9.9c0-0.6,0.4-1,1-1h1.4c0.6,0,1,0.4,1,1v9.9c0,0.6-0.4,1-1,1H23.6z" opacity=".07"/><path fill="#fff" d="M25.1,34.9h-1.4c-0.3,0-0.5-0.2-0.5-0.5v-9.9c0-0.3,0.2-0.5,0.5-0.5h1.4c0.3,0,0.5,0.2,0.5,0.5v9.9	C25.6,34.7,25.4,34.9,25.1,34.9z"/><path d="M28.6,35.4c-0.6,0-1-0.4-1-1v-9.9c0-0.6,0.4-1,1-1h3.3c3.8,0,4.6,2.2,4.6,4c0,1.2-0.5,2.3-1.4,3	c-0.9,0.8-2,1.1-3.5,1.1H31v2.7c0,0.6-0.4,1-1,1H28.6z M31.5,28.8c1.3,0,1.5-0.6,1.5-1.2c0-0.6-0.2-1.2-1.5-1.2H31v2.4H31.5z" opacity=".07"/><path fill="#fff" d="M30.5,31.1v3.2c0,0.3-0.2,0.5-0.5,0.5h-1.4c-0.3,0-0.5-0.2-0.5-0.5v-9.9c0-0.3,0.2-0.5,0.5-0.5h3.3	c2.7,0,4.1,1.2,4.1,3.5c0,1.1-0.4,2-1.2,2.6c-0.8,0.7-1.8,1-3.1,1H30.5z M30.5,25.9v3.4h1c1.3,0,2-0.6,2-1.7c0-1.1-0.7-1.7-2-1.7	H30.5z"/><path d="M13.3,35.4c-0.6,0-1-0.4-1-1v-0.7c0-0.3,0.2-0.6,0.2-0.7l4.8-6.5h-3.7c-0.6,0-1-0.4-1-1v-1c0-0.6,0.4-1,1-1H21	c0.6,0,1,0.4,1,1l0,0.6c0,0.3-0.1,0.5-0.2,0.7l-4.8,6.6h4c0.6,0,1,0.4,1,1v1c0,0.6-0.4,1-1,1H13.3z" opacity=".07"/><path fill="#fff" d="M21,32.9h-5l5.3-7.3c0.1-0.1,0.1-0.2,0.1-0.4l0-0.6c0-0.3-0.2-0.5-0.5-0.5h-7.3c-0.3,0-0.5,0.2-0.5,0.5v1	c0,0.3,0.2,0.5,0.5,0.5h4.7l-5.4,7.3c0,0-0.2,0.2-0.2,0.4v0.7c0,0.3,0.2,0.5,0.5,0.5H21c0.3,0,0.5-0.2,0.5-0.5v-1	C21.5,33.1,21.3,32.9,21,32.9z"/></svg>