<svg xmlns="http://www.w3.org/2000/svg" viewBox="0 0 48 48"><path fill="#50e6ff" d="M39,16v25c0,1.105-0.895,2-2,2H11c-1.105,0-2-0.895-2-2V7c0-1.105,0.895-2,2-2h17L39,16z"/><linearGradient id="N6~7kH17QVhRU530eLkrTa" x1="28.529" x2="33.6" y1="374.529" y2="379.6" gradientTransform="matrix(1 0 0 -1 0 390)" gradientUnits="userSpaceOnUse"><stop offset="0" stop-color="#3079d6"/><stop offset="1" stop-color="#297cd2"/></linearGradient><path fill="url(#N6~7kH17QVhRU530eLkrTa)" d="M28,5v9c0,1.105,0.895,2,2,2h9L28,5z"/><linearGradient id="N6~7kH17QVhRU530eLkrTb" x1="15" x2="30.551" y1="362" y2="362" gradientTransform="matrix(1 0 0 -1 0 390)" gradientUnits="userSpaceOnUse"><stop offset="0" stop-color="#42a3f2"/><stop offset="1" stop-color="#42a4eb"/></linearGradient><path fill="url(#N6~7kH17QVhRU530eLkrTb)" d="M24,19c-4.949,0-9,4.051-9,9s4.051,9,9,9c2.6,0,4.949-1.1,6.551-2.849L24,28V19z"/><linearGradient id="N6~7kH17QVhRU530eLkrTc" x1="24" x2="33" y1="366.5" y2="366.5" gradientTransform="matrix(1 0 0 -1 0 390)" gradientUnits="userSpaceOnUse"><stop offset="0" stop-color="#3079d6"/><stop offset="1" stop-color="#297cd2"/></linearGradient><path fill="url(#N6~7kH17QVhRU530eLkrTc)" d="M33,28c0-4.949-4.051-9-9-9v9H33z"/><linearGradient id="N6~7kH17QVhRU530eLkrTd" x1="24" x2="33" y1="358.925" y2="358.925" gradientTransform="matrix(1 0 0 -1 0 390)" gradientUnits="userSpaceOnUse"><stop offset="0" stop-color="#1d59b3"/><stop offset="1" stop-color="#195bbc"/></linearGradient><path fill="url(#N6~7kH17QVhRU530eLkrTd)" d="M24,28l6.551,6.151C32.051,32.551,33,30.4,33,28H24z"/><path d="M39,18.602L23.101,34.504L21.868,39.4c-0.111,0.442,0.29,0.843,0.732,0.732l4.897-1.233L39,27.394	V18.602z" opacity=".05"/><path d="M39,19.309L23.941,34.371l-0.547,1.017l0,0l-0.001,0l-0.864,3.434	c-0.099,0.392,0.256,0.746,0.648,0.648l3.446-0.868l0,0l0,0l1.006-0.543L39,26.663V19.309z" opacity=".07"/><path fill="#c94f60" d="M42.781,21.141l-1.922-1.921c-0.292-0.293-0.768-0.293-1.061,0l-0.904,0.905l2.981,2.981l0.905-0.904	C43.073,21.908,43.073,21.434,42.781,21.141"/><path fill="#f0f0f0" d="M24.003,35.016L23,39l3.985-1.003l0.418-3.456L24.003,35.016z"/><path fill="#edbe00" d="M39.333,25.648L26.985,37.996l-2.981-2.981l12.348-12.348L39.333,25.648z"/><linearGradient id="N6~7kH17QVhRU530eLkrTe" x1="39.112" x2="39.112" y1="20.312" y2="25.801" gradientUnits="userSpaceOnUse"><stop offset="0" stop-color="#dedede"/><stop offset="1" stop-color="#d6d6d6"/></linearGradient><path fill="url(#N6~7kH17QVhRU530eLkrTe)" d="M36.349,22.667l2.543-2.544l2.983,2.981l-2.543,2.544L36.349,22.667z"/><path fill="#787878" d="M23.508,36.985L23,39l2.014-0.508L23.508,36.985z"/></svg>