<svg xmlns="http://www.w3.org/2000/svg" data-name="Слой 1" viewBox="0 0 48 48"><defs><linearGradient id="tE6FHkkwhWNnBopOKQBBFa" x1="15.973" x2="32.804" y1="1.947" y2="48.189" data-name="Безымянный градиент 40" gradientUnits="userSpaceOnUse"><stop offset="0" stop-color="#50e6ff"/><stop offset="1" stop-color="#35c1f1"/></linearGradient><linearGradient id="tE6FHkkwhWNnBopOKQBBFb" x1="28.529" x2="33.6" y1="208.528" y2="213.6" data-name="Безымянный градиент 15" gradientTransform="translate(0 -176)" gradientUnits="userSpaceOnUse"><stop offset="0" stop-color="#3079d6"/><stop offset="1" stop-color="#297cd2"/></linearGradient></defs><path fill="url(#tE6FHkkwhWNnBopOKQBBFa)" d="M39,32V7a1.99945,1.99945,0,0,0-2-2H11A1.99945,1.99945,0,0,0,9,7V41a1.99945,1.99945,0,0,0,2,2H28Z"/><path fill="url(#tE6FHkkwhWNnBopOKQBBFb)" d="M28,43V34a1.99945,1.99945,0,0,1,2-2h9Z"/><path fill="#f9f9f9" d="M19.48225,10.34675l1.043,3.128,3.128,1.043a.50814.50814,0,0,1,0,.964l-3.128,1.043-1.043,3.128a.50814.50814,0,0,1-.964,0l-1.043-3.128-3.128-1.043a.50814.50814,0,0,1,0-.964l3.128-1.043,1.043-3.128A.5078.5078,0,0,1,19.48225,10.34675Z"/><path fill="#f9f9f9" d="M30.2895,20.20925l.626,1.876,1.876.626a.30523.30523,0,0,1,0,.579l-1.876.626-.626,1.876a.30523.30523,0,0,1-.579,0l-.626-1.876-1.876-.626a.30523.30523,0,0,1,0-.579l1.876-.626.626-1.876A.30489.30489,0,0,1,30.2895,20.20925Z"/><path fill="#f9f9f9" d="M20.741,27.174l.522,1.563,1.563.522a.2539.2539,0,0,1,0,.482l-1.563.522-.522,1.563a.25459.25459,0,0,1-.483,0l-.522-1.563-1.563-.522a.25459.25459,0,0,1,0-.483l1.563-.522.522-1.563A.25477.25477,0,0,1,20.741,27.174Z"/></svg>