<svg xmlns="http://www.w3.org/2000/svg" id="Layer_1" x="0" y="0" version="1.1" viewBox="0 0 48 48" xml:space="preserve"><path fill="#50e6ff" d="M39,16v25c0,1.1-0.9,2-2,2H11c-1.1,0-2-0.9-2-2V7c0-1.1,0.9-2,2-2h17L39,16z"/><path d="M37,43c1.1,0,2-0.9,2-2V28.2c-0.5-0.1-1-0.2-1.5-0.2c-1.1,0-2.1,0.3-3.1,0.7l-1.3-1.3C32.8,27.2,32.4,27,32,27	c-0.4,0-0.8,0.2-1.1,0.4c-0.6,0.6-0.6,1.5,0,2.1l1,1c-0.3,0.3-0.5,0.6-0.8,0.9h0L30.8,32c-0.2,0.4-0.5,0.8-0.7,1.2l-1.1-0.5	c-0.2-0.1-0.4-0.1-0.6-0.1c-0.6,0-1.1,0.3-1.4,0.9c-0.3,0.8,0,1.6,0.7,2l1.4,0.6c-0.1,0.7-0.2,1.3-0.2,2h-1.5	c-0.8,0-1.5,0.7-1.5,1.5s0.7,1.5,1.5,1.5h1.8c0.1,0.5,0.2,1,0.4,1.5L28.9,43H37z" opacity=".05"/><path d="M37,43c1.1,0,2-0.9,2-2V28.7c-0.5-0.1-1-0.2-1.5-0.2c-1.1,0-2.2,0.3-3.2,0.9l-1.6-1.6	c-0.2-0.2-0.4-0.3-0.7-0.3c-0.3,0-0.5,0.1-0.7,0.3c-0.4,0.4-0.4,1,0,1.4l1.4,1.4c-0.4,0.4-0.8,0.9-1.2,1.4h0l-0.1,0.2	c-0.3,0.5-0.6,1-0.8,1.6l-1.5-0.7C28.8,33,28.6,33,28.5,33c-0.4,0-0.7,0.2-0.9,0.6c-0.2,0.5,0,1.1,0.5,1.3l1.7,0.8	c-0.2,0.9-0.3,1.8-0.3,2.8h-2c-0.6,0-1,0.4-1,1s0.4,1,1,1h2.2c0.1,0.8,0.3,1.5,0.6,2.2L29.8,43H37z" opacity=".07"/><linearGradient id="SVGID_1_" x1="28.529" x2="33.6" y1="36.529" y2="41.6" gradientTransform="matrix(1 0 0 -1 0 52)" gradientUnits="userSpaceOnUse"><stop offset="0" stop-color="#3079d6"/><stop offset="1" stop-color="#297cd2"/></linearGradient><path fill="url(#SVGID_1_)" d="M28,5v9c0,1.1,0.9,2,2,2h9L28,5z"/><linearGradient id="SVGID_2_" x1="-1678.986" x2="-1682.295" y1="1065.5" y2="1065.5" gradientTransform="matrix(-1 0 0 1 -1652 -1026)" gradientUnits="userSpaceOnUse"><stop offset="0" stop-color="#6d7479"/><stop offset=".425" stop-color="#565c60"/><stop offset="1" stop-color="#323538"/></linearGradient><path fill="url(#SVGID_2_)" d="M27.5,40H32c0.3,0,0.5-0.2,0.5-0.5S32.3,39,32,39h-4.5c-0.3,0-0.5,0.2-0.5,0.5S27.2,40,27.5,40z"/><linearGradient id="SVGID_3_" x1="79.013" x2="75.705" y1="-185.5" y2="-185.5" gradientTransform="matrix(1 0 0 -1 -31 -146)" gradientUnits="userSpaceOnUse"><stop offset="0" stop-color="#6d7479"/><stop offset=".425" stop-color="#565c60"/><stop offset="1" stop-color="#323538"/></linearGradient><path fill="url(#SVGID_3_)" d="M47.5,39H43c-0.3,0-0.5,0.2-0.5,0.5S42.7,40,43,40h4.5c0.3,0,0.5-0.2,0.5-0.5S47.8,39,47.5,39z"/><linearGradient id="SVGID_4_" x1="46.964" x2="44.333" y1="1059.895" y2="1061.005" gradientTransform="translate(0 -1026)" gradientUnits="userSpaceOnUse"><stop offset="0" stop-color="#6d7479"/><stop offset=".425" stop-color="#565c60"/><stop offset="1" stop-color="#323538"/></linearGradient><path fill="url(#SVGID_4_)" d="M46.7,34.5l-4.1,1.9c-0.3,0.1-0.5,0-0.7-0.2c-0.1-0.3,0-0.5,0.2-0.7l4.1-1.9c0.3-0.1,0.5,0,0.7,0.2	C47.1,34,47,34.3,46.7,34.5z"/><linearGradient id="SVGID_5_" x1="46.533" x2="44.313" y1="1070.868" y2="1069.588" gradientTransform="translate(0 -1026)" gradientUnits="userSpaceOnUse"><stop offset="0" stop-color="#6d7479"/><stop offset=".425" stop-color="#565c60"/><stop offset="1" stop-color="#323538"/></linearGradient><path fill="url(#SVGID_5_)" d="M46.3,44.4l-3.7-2.6c-0.2-0.2-0.5-0.1-0.7,0.1c-0.2,0.2-0.1,0.5,0.1,0.7l3.7,2.6c0.2,0.2,0.5,0.1,0.7-0.1	S46.5,44.6,46.3,44.4z"/><linearGradient id="SVGID_6_" x1="-1680.036" x2="-1682.667" y1="1059.894" y2="1061.004" gradientTransform="matrix(-1 0 0 1 -1652 -1026)" gradientUnits="userSpaceOnUse"><stop offset="0" stop-color="#6d7479"/><stop offset=".425" stop-color="#565c60"/><stop offset="1" stop-color="#323538"/></linearGradient><path fill="url(#SVGID_6_)" d="M28.3,34.5l4.1,1.9c0.3,0.1,0.5,0,0.7-0.2c0.1-0.3,0-0.5-0.2-0.7l-4.1-1.9c-0.3-0.1-0.5,0-0.7,0.2	C27.9,34,28,34.3,28.3,34.5z"/><linearGradient id="SVGID_7_" x1="-1680.466" x2="-1682.688" y1="1070.868" y2="1069.588" gradientTransform="matrix(-1 0 0 1 -1652 -1026)" gradientUnits="userSpaceOnUse"><stop offset="0" stop-color="#6d7479"/><stop offset=".425" stop-color="#565c60"/><stop offset="1" stop-color="#323538"/></linearGradient><path fill="url(#SVGID_7_)" d="M28.7,44.4l3.7-2.6c0.2-0.2,0.5-0.1,0.7,0.1c0.2,0.2,0.1,0.5-0.1,0.7l-3.7,2.6c-0.2,0.2-0.5,0.1-0.7-0.1	C28.4,44.9,28.5,44.6,28.7,44.4z"/><linearGradient id="SVGID_8_" x1="32.029" x2="33.608" y1="1053.856" y2="1056.36" gradientTransform="translate(0 -1026)" gradientUnits="userSpaceOnUse"><stop offset="0" stop-color="#6d7479"/><stop offset=".425" stop-color="#565c60"/><stop offset="1" stop-color="#323538"/></linearGradient><path fill="url(#SVGID_8_)" d="M34,31.3l-2.4-2.4c-0.2-0.2-0.2-0.5,0-0.7l0,0c0.2-0.2,0.5-0.2,0.7,0l2.4,2.4L34,31.3z"/><linearGradient id="SVGID_9_" x1="43.165" x2="41.308" y1="1054.063" y2="1056.293" gradientTransform="translate(0 -1026)" gradientUnits="userSpaceOnUse"><stop offset="0" stop-color="#6d7479"/><stop offset=".425" stop-color="#565c60"/><stop offset="1" stop-color="#323538"/></linearGradient><path fill="url(#SVGID_9_)" d="M41,31.3l2.4-2.4c0.2-0.2,0.2-0.5,0-0.7l0,0c-0.2-0.2-0.5-0.2-0.7,0l-2.4,2.4L41,31.3z"/><linearGradient id="SVGID_10_" x1="37.5" x2="37.5" y1="1058.565" y2="1073.83" gradientTransform="translate(0 -1026)" gradientUnits="userSpaceOnUse"><stop offset="0" stop-color="#fed100"/><stop offset="1" stop-color="#e36001"/></linearGradient><path fill="url(#SVGID_10_)" d="M31.7,32.5c-1.1,1.6-1.7,3.7-1.7,6c0,5.2,3.4,9.5,7.5,9.5s7.5-4.3,7.5-9.5c0-2.3-0.6-4.4-1.7-6H31.7z"/><linearGradient id="SVGID_11_" x1="37.5" x2="37.5" y1="1059.622" y2="1074.303" gradientTransform="translate(0 -1026)" gradientUnits="userSpaceOnUse"><stop offset="0" stop-color="#dbb500"/><stop offset=".998" stop-color="#b54c01"/></linearGradient><path fill="url(#SVGID_11_)" d="M37,48c0.2,0,0.3,0,0.5,0s0.3,0,0.5,0V33.8h-1V48z"/><linearGradient id="SVGID_12_" x1="37.5" x2="37.5" y1="1055.08" y2="1060.658" gradientTransform="translate(0 -1026)" gradientUnits="userSpaceOnUse"><stop offset="0" stop-color="#6d7479"/><stop offset=".512" stop-color="#4d5256"/><stop offset="1" stop-color="#323538"/></linearGradient><path fill="url(#SVGID_12_)" d="M37.5,34.5c2.2,0,4.3-0.6,6.1-1.6C42.2,30.5,40,29,37.5,29s-4.7,1.5-6.1,3.9C33.2,33.9,35.3,34.5,37.5,34.5z"/></svg>