<svg xmlns="http://www.w3.org/2000/svg" viewBox="0 0 48 48"><circle cx="39.5" cy="29.5" r="2.5" fill="#c98e00"/><polygon fill="#c98e00" points="26.211,39.683 40.68,31.693 38.54,27.191 26,33"/><linearGradient id="VmFGzqQ86e33lJVZJEVaVa" x1="3" x2="45" y1="1537" y2="1537" gradientTransform="translate(0 -1506)" gradientUnits="userSpaceOnUse"><stop offset="0" stop-color="#ffcf54"/><stop offset=".261" stop-color="#fdcb4d"/><stop offset=".639" stop-color="#f7c13a"/><stop offset="1" stop-color="#f0b421"/></linearGradient><path fill="url(#VmFGzqQ86e33lJVZJEVaVa)" d="M45,30.5c0-1.381-1.119-2.5-2.5-2.5c-0.34,0-0.664,0.069-0.959,0.192l-0.001-0.001	l-0.011,0.005c-0.002,0.001-0.004,0.002-0.006,0.003L29,34l-1.5-1c1.381,0,2.5-1.119,2.5-2.5c0-0.93-0.514-1.732-1.267-2.163	l0.004-0.016l-13.651-6.866h-0.025C14.431,21.169,13.737,21,13,21c-0.718,0-1.397,0.157-2.015,0.43h-0.022L3,25v13l8.09-3.718	l15.911,6.508h0.001C27.309,40.924,27.645,41,28,41c0.435,0,0.838-0.121,1.195-0.317l0.017-0.001l14.469-7.989l-0.001-0.002	C44.462,32.269,45,31.452,45,30.5z"/><circle cx="27.5" cy="30.5" r="1.5" fill="#ffde87"/><linearGradient id="VmFGzqQ86e33lJVZJEVaVb" x1="22.337" x2="24.123" y1="1540.368" y2="1537.288" gradientTransform="translate(0 -1506)" gradientUnits="userSpaceOnUse"><stop offset="0" stop-color="#f0b421" stop-opacity="0"/><stop offset=".512" stop-color="#e9ab12" stop-opacity=".512"/><stop offset="1" stop-color="#e09f00"/></linearGradient><path fill="url(#VmFGzqQ86e33lJVZJEVaVb)" d="M29,34l-1.489-0.998c-1.255-0.06-2.242-0.468-10.511-3.513V33l11.551,4.734	C28.551,37.734,27.733,35.451,29,34z"/><linearGradient id="VmFGzqQ86e33lJVZJEVaVc" x1="28" x2="28" y1="-1.128" y2="11.516" gradientUnits="userSpaceOnUse"><stop offset="0" stop-color="#fafafb"/><stop offset="1" stop-color="#c8cdd1"/></linearGradient><path fill="url(#VmFGzqQ86e33lJVZJEVaVc)" d="M28,15c-0.553,0-1-0.448-1-1V2c0-0.552,0.447-1,1-1s1,0.448,1,1v12C29,14.552,28.553,15,28,15	z"/><linearGradient id="VmFGzqQ86e33lJVZJEVaVd" x1="24" x2="24" y1="-1.128" y2="11.516" gradientUnits="userSpaceOnUse"><stop offset="0" stop-color="#fafafb"/><stop offset="1" stop-color="#c8cdd1"/></linearGradient><path fill="url(#VmFGzqQ86e33lJVZJEVaVd)" d="M24,16c-0.553,0-1-0.448-1-1V5c0-0.552,0.447-1,1-1s1,0.448,1,1v10C25,15.552,24.553,16,24,16	z"/><linearGradient id="VmFGzqQ86e33lJVZJEVaVe" x1="36" x2="36" y1="-1.128" y2="11.516" gradientUnits="userSpaceOnUse"><stop offset="0" stop-color="#fafafb"/><stop offset="1" stop-color="#c8cdd1"/></linearGradient><path fill="url(#VmFGzqQ86e33lJVZJEVaVe)" d="M35,12V2c0-0.552,0.447-1,1-1s1,0.448,1,1v10c0,0.552-0.447,1-1,1S35,12.552,35,12z"/><linearGradient id="VmFGzqQ86e33lJVZJEVaVf" x1="32" x2="32" y1="-1.128" y2="11.516" gradientUnits="userSpaceOnUse"><stop offset="0" stop-color="#fafafb"/><stop offset="1" stop-color="#c8cdd1"/></linearGradient><path fill="url(#VmFGzqQ86e33lJVZJEVaVf)" d="M31,8V1c0-0.552,0.447-1,1-1s1,0.448,1,1v7c0,0.552-0.447,1-1,1S31,8.552,31,8z"/><linearGradient id="VmFGzqQ86e33lJVZJEVaVg" x1="40" x2="40" y1="-1.128" y2="11.516" gradientUnits="userSpaceOnUse"><stop offset="0" stop-color="#fafafb"/><stop offset="1" stop-color="#c8cdd1"/></linearGradient><path fill="url(#VmFGzqQ86e33lJVZJEVaVg)" d="M39,15V5c0-0.552,0.447-1,1-1s1,0.448,1,1v10c0,0.552-0.447,1-1,1S39,15.552,39,15z"/><linearGradient id="VmFGzqQ86e33lJVZJEVaVh" x1="25.816" x2="38.315" y1="-570.816" y2="-583.315" gradientTransform="matrix(1 0 0 -1 0 -562)" gradientUnits="userSpaceOnUse"><stop offset="0" stop-color="#fede00"/><stop offset="1" stop-color="#ffd000"/></linearGradient><circle cx="31.979" cy="14.979" r="8.979" fill="url(#VmFGzqQ86e33lJVZJEVaVh)"/><circle cx="31.964" cy="14.995" r="6.995" fill="#f5be00"/><path fill="#fee119" d="M34.301,16.487c0-2.289-3.38-1.842-3.38-3.194c0-0.706,0.794-0.743,1.042-0.743	c0.597,0,1.173,0.16,1.612,0.366c0.138,0.065,0.297-0.031,0.297-0.184v-0.666c0-0.223-0.084-0.356-0.218-0.408	c-0.301-0.117-0.733-0.202-1.372-0.223v-0.733c0-0.088-0.071-0.159-0.159-0.159h-0.318c-0.088,0-0.159,0.071-0.159,0.159v0.745	c-0.992,0.096-2.02,0.656-2.02,1.957c0,2.373,3.38,1.902,3.38,3.152c0,0.393-0.251,0.731-1.042,0.731	c-0.795,0-1.526-0.278-1.93-0.484c-0.136-0.07-0.296,0.031-0.296,0.184v0.758c0,0.145,0.087,0.275,0.222,0.331	c0.479,0.203,1.122,0.358,1.687,0.403v0.81c0,0.088,0.071,0.159,0.159,0.159h0.318c0.088,0,0.159-0.071,0.159-0.159V18.48	C33.765,18.357,34.301,17.364,34.301,16.487z"/></svg>