<svg xmlns="http://www.w3.org/2000/svg" viewBox="0 0 48 48"><path fill="#889097" d="M40,40H8V8h32V40z M10,38h28V10H10V38z"/><linearGradient id="yiZvAPDe4xO~mslF5iEima" x1="6.13" x2="12.505" y1="6.13" y2="12.505" gradientUnits="userSpaceOnUse"><stop offset="0" stop-color="#2aa4f4"/><stop offset="1" stop-color="#007ad9"/></linearGradient><path fill="url(#yiZvAPDe4xO~mslF5iEima)" d="M11,12H7c-0.552,0-1-0.448-1-1V7c0-0.552,0.448-1,1-1h4c0.552,0,1,0.448,1,1v4	C12,11.552,11.552,12,11,12z"/><linearGradient id="yiZvAPDe4xO~mslF5iEimb" x1="36.13" x2="42.505" y1="6.13" y2="12.505" gradientUnits="userSpaceOnUse"><stop offset="0" stop-color="#2aa4f4"/><stop offset="1" stop-color="#007ad9"/></linearGradient><path fill="url(#yiZvAPDe4xO~mslF5iEimb)" d="M41,12h-4c-0.552,0-1-0.448-1-1V7c0-0.552,0.448-1,1-1h4c0.552,0,1,0.448,1,1v4	C42,11.552,41.552,12,41,12z"/><linearGradient id="yiZvAPDe4xO~mslF5iEimc" x1="6.13" x2="12.505" y1="36.13" y2="42.505" gradientUnits="userSpaceOnUse"><stop offset="0" stop-color="#2aa4f4"/><stop offset="1" stop-color="#007ad9"/></linearGradient><path fill="url(#yiZvAPDe4xO~mslF5iEimc)" d="M11,42H7c-0.552,0-1-0.448-1-1v-4c0-0.552,0.448-1,1-1h4c0.552,0,1,0.448,1,1v4	C12,41.552,11.552,42,11,42z"/><linearGradient id="yiZvAPDe4xO~mslF5iEimd" x1="36.13" x2="42.505" y1="36.13" y2="42.505" gradientUnits="userSpaceOnUse"><stop offset="0" stop-color="#2aa4f4"/><stop offset="1" stop-color="#007ad9"/></linearGradient><path fill="url(#yiZvAPDe4xO~mslF5iEimd)" d="M41,42h-4c-0.552,0-1-0.448-1-1v-4c0-0.552,0.448-1,1-1h4c0.552,0,1,0.448,1,1v4	C42,41.552,41.552,42,41,42z"/><linearGradient id="yiZvAPDe4xO~mslF5iEime" x1="21.13" x2="27.505" y1="6.13" y2="12.505" gradientUnits="userSpaceOnUse"><stop offset="0" stop-color="#2aa4f4"/><stop offset="1" stop-color="#007ad9"/></linearGradient><path fill="url(#yiZvAPDe4xO~mslF5iEime)" d="M26,12h-4c-0.552,0-1-0.448-1-1V7c0-0.552,0.448-1,1-1h4c0.552,0,1,0.448,1,1v4	C27,11.552,26.552,12,26,12z"/><linearGradient id="yiZvAPDe4xO~mslF5iEimf" x1="21.13" x2="27.505" y1="21.13" y2="27.505" gradientUnits="userSpaceOnUse"><stop offset="0" stop-color="#2aa4f4"/><stop offset="1" stop-color="#007ad9"/></linearGradient><path fill="url(#yiZvAPDe4xO~mslF5iEimf)" d="M26,27h-4c-0.552,0-1-0.448-1-1v-4c0-0.552,0.448-1,1-1h4c0.552,0,1,0.448,1,1v4	C27,26.552,26.552,27,26,27z"/></svg>