<svg xmlns="http://www.w3.org/2000/svg" viewBox="0 0 48 48"><linearGradient id="jlTEJg9Svey-y47QarW1za" x1="24" x2="24" y1="42.932" y2="10.39" gradientUnits="userSpaceOnUse"><stop offset="0" stop-color="#9ca5ad"/><stop offset="1" stop-color="#cdd2d6"/></linearGradient><circle cx="24" cy="24.667" r="14" fill="url(#jlTEJg9Svey-y47QarW1za)"/><linearGradient id="jlTEJg9Svey-y47QarW1zb" x1="24.93" x2="30.97" y1="36.182" y2="36.182" gradientUnits="userSpaceOnUse"><stop offset="0" stop-color="#9ca5ad"/><stop offset="1" stop-color="#cdd2d6"/></linearGradient><path fill="url(#jlTEJg9Svey-y47QarW1zb)" d="M30.97,37.077	c-0.46,0.26-0.94,0.5-1.42,0.71c-0.1-0.05-0.19-0.1-0.29-0.15c-1.38-0.69-2.8-1.51-4.2-2.43c-0.04-0.02-0.09-0.05-0.13-0.08	c0.29-0.18,0.58-0.37,0.87-0.55c0.04,0.03,0.07,0.05,0.11,0.07c0.01,0.01,0.03,0.02,0.05,0.03c1.56,0.88,3.12,1.65,4.6,2.25	c0.04,0.02,0.07,0.03,0.11,0.05C30.77,37.017,30.87,37.057,30.97,37.077z"/><radialGradient id="jlTEJg9Svey-y47QarW1zc" cx="10.909" cy="24.329" r=".354" gradientUnits="userSpaceOnUse"><stop offset=".323" stop-color="#23d9d6"/><stop offset=".427" stop-color="#23d4d7"/><stop offset=".542" stop-color="#21c7dc"/><stop offset=".664" stop-color="#1fb0e2"/><stop offset=".789" stop-color="#1c91ec"/><stop offset=".917" stop-color="#1969f8"/><stop offset=".944" stop-color="#1860fb"/></radialGradient><path fill="url(#jlTEJg9Svey-y47QarW1zc)" d="M10.96,24.657	c-0.03-0.04-0.07-0.09-0.1-0.14c0.03-0.04,0.05-0.08,0.08-0.11C10.94,24.487,10.95,24.577,10.96,24.657z"/><linearGradient id="jlTEJg9Svey-y47QarW1zd" x1="23.748" x2="23.748" y1="54.906" y2="18.363" gradientUnits="userSpaceOnUse"><stop offset=".263" stop-color="#1fa0e5"/><stop offset=".655" stop-color="#20a2e6"/><stop offset=".797" stop-color="#25a9e8"/><stop offset=".898" stop-color="#2db4ec"/><stop offset=".979" stop-color="#38c5f2"/><stop offset="1" stop-color="#3ccbf4"/></linearGradient><path fill="url(#jlTEJg9Svey-y47QarW1zd)" d="M42.07,12.617	c-0.11,2.73-1.74,6.26-4.06,9.73c-0.05,0.08-0.1,0.15-0.16,0.23c-0.6,0.89-1.24,1.75-1.92,2.61c-0.47,0.63-0.99,1.24-1.5,1.85	c-1.33,1.54-2.74,2.97-4.12,4.2c-1.29,1.15-2.79,2.31-4.4,3.41c-0.22,0.14-0.44,0.29-0.66,0.44c-0.06,0.04-0.13,0.08-0.19,0.12	c-0.45,0.3-0.9,0.58-1.36,0.85c-0.22,0.14-0.44,0.27-0.66,0.4c-1,0.58-2.01,1.13-3.03,1.63c-0.08,0.04-0.16,0.08-0.24,0.12	c-3.19,1.56-6.36,2.59-8.89,2.67c-0.35,0.01-0.66,0.01-0.98-0.02c-1.53-0.13-2.7-0.67-3.47-1.63c-2.78-3.42,0.76-9.61,3.61-13.6	c0.07,1.17,0.3,2.3,0.65,3.37c-1.94,3.12-3.85,7.01-2.44,8.75c0.35,0.44,0.97,0.69,1.84,0.76c1.71,0.14,4.15-0.47,6.81-1.57	c0.07-0.03,0.13-0.06,0.2-0.09c1.24-0.52,2.52-1.14,3.8-1.85c0.2-0.11,0.4-0.23,0.6-0.34c0.54-0.31,1.08-0.63,1.61-0.97	c0.2-0.13,0.4-0.25,0.59-0.39c1.78-1.15,3.49-2.45,5.04-3.82c1.41-1.25,2.77-2.65,4.03-4.1c0.05-0.07,0.12-0.15,0.18-0.22	c0.2-0.23,0.4-0.46,0.58-0.69c0.26-0.3,0.5-0.62,0.73-0.92c1.04-1.34,1.98-2.7,2.76-4.01c0.05-0.07,0.09-0.14,0.13-0.21	c1.55-2.61,2.5-5.03,2.57-6.8c0.03-0.88-0.16-1.53-0.57-1.96c-1.19-1.26-5.24,0.04-8.53,1.77c-0.9-0.49-1.85-0.87-2.85-1.15	c8.23-4.97,12.48-2.87,13.09-2.25C41.73,9.847,42.13,11.087,42.07,12.617z"/><linearGradient id="jlTEJg9Svey-y47QarW1ze" x1="23.753" x2="23.753" y1="54.968" y2="18.263" gradientUnits="userSpaceOnUse"><stop offset=".263" stop-color="#1fa0e5"/><stop offset=".655" stop-color="#20a2e6"/><stop offset=".797" stop-color="#25a9e8"/><stop offset=".898" stop-color="#2db4ec"/><stop offset=".979" stop-color="#38c5f2"/><stop offset="1" stop-color="#3ccbf4"/></linearGradient><path fill="url(#jlTEJg9Svey-y47QarW1ze)" d="M41.07,39.227	c-0.77,0.96-1.94,1.5-3.47,1.63c-0.32,0.03-0.63,0.03-0.98,0.02c-2.53-0.08-5.7-1.11-8.89-2.67c-0.02-0.01-0.04-0.02-0.06-0.03	c-0.06-0.03-0.12-0.06-0.18-0.09c-1.02-0.5-2.03-1.05-3.03-1.63c-0.22-0.13-0.44-0.26-0.66-0.4c-0.46-0.27-0.91-0.55-1.36-0.85	c-0.06-0.04-0.13-0.08-0.19-0.12c-0.22-0.15-0.44-0.3-0.66-0.44c-1.61-1.1-3.11-2.26-4.4-3.41c-1.38-1.23-2.79-2.66-4.12-4.2	c-0.51-0.61-1.03-1.22-1.5-1.85c-0.52-0.66-1.02-1.32-1.49-2c-0.15-0.2-0.29-0.4-0.43-0.61c-0.06-0.08-0.11-0.15-0.16-0.23	c-2.32-3.47-3.95-7-4.06-9.73c-0.06-1.53,0.34-2.77,1.21-3.68c0.59-0.6,4.16-3.13,13.56,2.26c-1.17,0.32-2.28,0.8-3.3,1.41	c-3-1.97-7.37-3.29-8.55-2.04c-0.41,0.43-0.6,1.08-0.57,1.96c0.07,1.77,1.02,4.19,2.57,6.8c0.04,0.07,0.08,0.14,0.13,0.21	c0.1,0.17,0.2,0.33,0.31,0.5c0.71,1.15,1.54,2.34,2.45,3.51c0.23,0.3,0.47,0.62,0.73,0.92c0.18,0.23,0.38,0.46,0.58,0.69	c0.06,0.07,0.13,0.15,0.18,0.22c1.26,1.45,2.62,2.85,4.03,4.1c1.55,1.37,3.26,2.67,5.04,3.82c0.19,0.14,0.39,0.26,0.59,0.39	c0.53,0.34,1.07,0.66,1.61,0.97c0.2,0.11,0.4,0.23,0.6,0.34c1.28,0.71,2.56,1.33,3.8,1.85c0.07,0.03,0.13,0.06,0.2,0.09	c0.03,0.01,0.05,0.02,0.08,0.03c2.63,1.08,5.04,1.68,6.73,1.54c0.87-0.07,1.49-0.32,1.84-0.76c1.33-1.64-0.3-5.21-2.12-8.23	c0.39-1.03,0.65-2.12,0.78-3.25C40.66,30.257,43.71,35.987,41.07,39.227z"/></svg>