<svg xmlns="http://www.w3.org/2000/svg" xmlns:xlink="http://www.w3.org/1999/xlink" data-name="Слой 1" viewBox="0 0 48 48"><defs><linearGradient id="VeKHaEXaBuod0U2sKTWVna" x1="9" x2="16" y1="558.5" y2="558.5" data-name="Безымянный градиент 9" gradientTransform="matrix(1 0 0 -1 0 572)" gradientUnits="userSpaceOnUse"><stop offset="0" stop-color="#ffcf54"/><stop offset=".261" stop-color="#fdcb4d"/><stop offset=".639" stop-color="#f7c13a"/><stop offset="1" stop-color="#f0b421"/></linearGradient><linearGradient id="VeKHaEXaBuod0U2sKTWVnb" x1="7.648" x2="16.757" y1="20.921" y2="45.947" data-name="Безымянный градиент 17" gradientUnits="userSpaceOnUse"><stop offset="0" stop-color="#a1aab3"/><stop offset="1" stop-color="#8f979e"/></linearGradient><linearGradient id="VeKHaEXaBuod0U2sKTWVnc" x1="147" x2="154" y1="558.5" y2="558.5" gradientTransform="rotate(180 93 286)" xlink:href="#VeKHaEXaBuod0U2sKTWVna"/><linearGradient id="VeKHaEXaBuod0U2sKTWVnd" x1="145.648" x2="154.757" y1="20.921" y2="45.947" gradientTransform="matrix(-1 0 0 1 186 0)" xlink:href="#VeKHaEXaBuod0U2sKTWVnb"/><linearGradient id="VeKHaEXaBuod0U2sKTWVne" x1="20.492" x2="27.887" y1="22.074" y2="42.391" data-name="Безымянный градиент 8" gradientUnits="userSpaceOnUse"><stop offset="0" stop-color="#dfe9f2"/><stop offset=".391" stop-color="#d6e0e9"/><stop offset="1" stop-color="#bfc8d1"/></linearGradient></defs><path fill="url(#VeKHaEXaBuod0U2sKTWVna)" d="M9,13.49994a3.5,3.5,0,1,0,3.49825-3.5A3.49978,3.49978,0,0,0,9,13.49994Z"/><rect width="7" height="14" x="7" y="18" fill="#35c1f1" rx="3.5"/><circle cx="19.5" cy="40.5" r="1.5" fill="#35c1f1"/><circle cx="20.5" cy="22.5" r="1.5" fill="#35c1f1"/><polygon fill="#35c1f1" points="21 40.5 18 40.5 17 32 11 32 14 28 20 29 21 40.5"/><path fill="#35c1f1" d="M20.5,20.99994v3H16.32456a1.99992,1.99992,0,0,1-.63246-.10263L13,22.99994l-.74313-4.5228L16.5,20.99994Z"/><path fill="url(#VeKHaEXaBuod0U2sKTWVnb)" d="M18,32H11.29a3.98364,3.98364,0,0,1-3.957-3.41064L5.98535,20.8291a1.00006,1.00006,0,0,0-1.9707.3418l1.34473,7.74121a5.95152,5.95152,0,0,0,3.56976,4.5932L8.00781,40.876A1.00009,1.00009,0,0,0,8.876,41.99219.98765.98765,0,0,0,9.001,42a1.00045,1.00045,0,0,0,.99121-.876l.895-7.16c.13525.009.26538.036.40283.036H16v7a1,1,0,0,0,2,0V34a1,1,0,0,0,0-2Z"/><path fill="url(#VeKHaEXaBuod0U2sKTWVnc)" d="M38.99969,13.49994a3.5,3.5,0,1,1-3.49825-3.5A3.49978,3.49978,0,0,1,38.99969,13.49994Z"/><rect width="7" height="14" x="34" y="18" fill="#35c1f1" rx="3.5" transform="rotate(180 37.5 25)"/><circle cx="28.5" cy="40.5" r="1.5" fill="#35c1f1"/><circle cx="27.5" cy="22.5" r="1.5" fill="#35c1f1"/><polygon fill="#35c1f1" points="27 40.5 30 40.5 31 32 37 32 34 28 28 29 27 40.5"/><path fill="#35c1f1" d="M27.49969,20.99994v3h4.17545a1.9999,1.9999,0,0,0,.63245-.10263l2.6921-.89737.74313-4.5228-4.24313,2.5228Z"/><path fill="url(#VeKHaEXaBuod0U2sKTWVnd)" d="M29.99969,32h6.71a3.98365,3.98365,0,0,0,3.957-3.41064l1.34765-7.76026a1.00007,1.00007,0,0,1,1.97071.3418l-1.34473,7.74121a5.95152,5.95152,0,0,1-3.56976,4.5932l.92132,7.37067a1.00008,1.00008,0,0,1-.86816,1.11621.98776.98776,0,0,1-.125.00781,1.00044,1.00044,0,0,1-.99121-.876l-.895-7.16c-.13526.009-.26538.036-.40283.036h-4.71v7a1,1,0,0,1-2,0V34a1,1,0,0,1,0-2Z"/><path fill="url(#VeKHaEXaBuod0U2sKTWVne)" d="M32.16078,24.80383a1,1,0,0,0-.98058-.80389H16.8198a1,1,0,0,0-.98058.80389L14.04687,32.85a1.72473,1.72473,0,0,0,1.6715,2.1499H32.28163a1.72473,1.72473,0,0,0,1.6715-2.1499Z"/><path d="M34.92,32.59992l-.13-.6-.89-3.98-.49.08-.5.08.85,3.82.19.85a1.72376,1.72376,0,0,1-.1,1.15H34.9A2.65785,2.65785,0,0,0,34.92,32.59992Zm-7.49,2.9-.04.5H32v-1H27.48Zm-13.19-3.5.85-3.82-.5-.08-.49005-.08-.89,3.98-.14.63a2.65362,2.65362,0,0,0,.03,1.37h1.05a1.72376,1.72376,0,0,1-.1-1.15Zm6.33,3.5-.05-.5H16v1h4.61Z" opacity=".05"/><path d="M34.44,32.72992l-.16-.73-.87006-3.9-.5.08.85,3.82.19.85a1.72376,1.72376,0,0,1-.1,1.15h.54A2.19216,2.19216,0,0,0,34.44,32.72992Zm-7.01,2.77H32v-.5H27.48Zm-13.19-3.5.85-3.82-.5-.08-.87006,3.9-.16.74a2.162,2.162,0,0,0,.05,1.26h.54a1.72376,1.72376,0,0,1-.1-1.15Zm6.28,3H16v.5h4.57Z" opacity=".07"/></svg>