<svg xmlns="http://www.w3.org/2000/svg" viewBox="0 0 48 48"><radialGradient id="MKF9HqzsolBfyFnlTLELSa" cx="24.192" cy="14.746" r="13.707" gradientTransform="matrix(1 0 0 .7374 0 3.872)" gradientUnits="userSpaceOnUse"><stop offset=".573" stop-color="#3a41ac"/><stop offset="1" stop-color="#5961c3"/></radialGradient><path fill="url(#MKF9HqzsolBfyFnlTLELSa)" d="M16.57,15C12.447,8,0.201,9.5,6.385,27.596C6.617,28.312,5.657,28.793,5.233,28 C-6.517,6,17.097-4,23,12L16.57,15z M31.43,15c4.122-7,16.369-5.5,10.185,12.596c-0.232,0.717,0.728,1.197,1.151,0.404 C54.517,6,30.903-4,25,12L31.43,15z"/><linearGradient id="MKF9HqzsolBfyFnlTLELSb" x1="23.725" x2="23.725" y1="7.011" y2="30.664" gradientUnits="userSpaceOnUse"><stop offset="0" stop-color="#7b83eb"/><stop offset="1" stop-color="#5961c3"/></linearGradient><path fill="url(#MKF9HqzsolBfyFnlTLELSb)" d="M39.972,18.696c-0.068-0.426-0.315-0.802-0.68-1.031c-0.365-0.23-0.811-0.292-1.224-0.172 l-4.204,0.94c-1.772-4.229-5.318-6.991-9.184-7.034c-0.566-0.056-1.129-0.056-1.696,0c-3.892,0.043-7.447,2.828-9.21,7.092 l-4.399-0.998c-0.415-0.12-0.859-0.059-1.223,0.171c-0.364,0.23-0.612,0.605-0.68,1.031C7.116,20.912,8.676,23.573,13,25 c-0.011,1.436,0.437,3.256,0.771,3.985c1.583,3.448,3.348,5.007,3.348,8.853c0,4.161,2.442,7.208,6.274,7.208 c4.167,0,6.819-2.771,6.819-6.876c0-3.847,2.098-5.737,3.681-9.186C34.24,28.23,34.947,26.468,35,25 C39.105,23.488,40.313,20.842,39.972,18.696z"/><path fill="#292c61" d="M25.751,38c0.031-0.126,0.047-0.256,0.047-0.39c0-1.076-1.047-1.949-2.338-1.949 c-1.291,0-2.338,0.872-2.338,1.949c0,0.134,0.016,0.264,0.047,0.39H25.751z"/><ellipse cx="18" cy="25.5" fill="#292c61" rx="2" ry="1.5"/><ellipse cx="30" cy="25.5" fill="#292c61" rx="2" ry="1.5"/></svg>