<svg xmlns="http://www.w3.org/2000/svg" id="Layer_1" x="0" y="0" version="1.1" viewBox="0 0 48 48" xml:space="preserve"><path fill="#bf2336" d="M42,14l-2,26l-26,2L42,14z"/><path fill="#b31523" d="M28,28l12,12l2-26L28,28z"/><path fill="#cf1928" d="M15.8,15.8C6.9,24.6,3.4,35.4,8,40s15.4,1.1,24.2-7.7S44.6,12.6,40,8S24.6,6.9,15.8,15.8L15.8,15.8z"/><path fill="#d9414f" d="M10,17l7-7l8-4l6,4l-3,9l-9,8l-9,3l-4-6L10,17z"/><path fill="#eb6773" d="M31,10l-6-4h11L31,10z M42,15l-11-5l-3,9L42,15z M19,27l13.2,5.2L28,19L19,27z M10,30l4,12l5-15L10,30z M6,24	v11l4-5L6,24z"/></svg>