<svg xmlns="http://www.w3.org/2000/svg" data-name="Слой 1" viewBox="0 0 48 48"><defs><linearGradient id="hON94pEcIivorHJQ5NH1Za" x1="12.686" x2="35.58" y1="450.408" y2="413.159" data-name="Безымянный градиент 20" gradientTransform="matrix(1 0 0 -1 0 456)" gradientUnits="userSpaceOnUse"><stop offset="0" stop-color="#ffd869"/><stop offset="1" stop-color="#fec52b"/></linearGradient><linearGradient id="hON94pEcIivorHJQ5NH1Zb" x1="33.304" x2="42.696" y1="991.169" y2="1008.831" data-name="Безымянный градиент 21" gradientTransform="translate(0 -962)" gradientUnits="userSpaceOnUse"><stop offset="0" stop-color="#21ad64"/><stop offset="1" stop-color="#088242"/></linearGradient></defs><path fill="url(#hON94pEcIivorHJQ5NH1Za)" d="M44,20.023V11a1.99945,1.99945,0,0,0-2-2H6a1.99945,1.99945,0,0,0-2,2v9.023a4.95413,4.95413,0,0,1,0,7.954V37a1.99945,1.99945,0,0,0,2,2H42a1.99945,1.99945,0,0,0,2-2V27.977a4.95413,4.95413,0,0,1,0-7.954ZM35,37a1,1,0,1,1,1-1A1.00036,1.00036,0,0,1,35,37Zm0-4a1,1,0,1,1,1-1A1.00036,1.00036,0,0,1,35,33Zm0-4a1,1,0,1,1,1-1A1.00036,1.00036,0,0,1,35,29Zm0-4a1,1,0,1,1,1-1A1.00036,1.00036,0,0,1,35,25Zm0-4a1,1,0,1,1,1-1A1.00036,1.00036,0,0,1,35,21Zm0-4a1,1,0,1,1,1-1A1.00036,1.00036,0,0,1,35,17Zm0-4a1,1,0,1,1,1-1A1.00036,1.00036,0,0,1,35,13Z"/><circle cx="38" cy="38" r="10" fill="url(#hON94pEcIivorHJQ5NH1Zb)"/><path fill="#fff" d="M38.5,43h-1a.50018.50018,0,0,1-.5-.5v-9a.50018.50018,0,0,1,.5-.5h1a.50018.50018,0,0,1,.5.5v9A.50018.50018,0,0,1,38.5,43Z"/><path fill="#fff" d="M33,38.5v-1a.50018.50018,0,0,1,.5-.5h9a.50018.50018,0,0,1,.5.5v1a.50018.50018,0,0,1-.5.5h-9A.50018.50018,0,0,1,33,38.5Z"/><path d="M38,27a11.25643,11.25643,0,0,0-2.34.25.97605.97605,0,0,1,.29.45A.99332.99332,0,0,1,36,28a1.22986,1.22986,0,0,1-.02.2A10.32725,10.32725,0,0,1,38,28a9.93425,9.93425,0,0,1,6,2.01V28.78A10.90409,10.90409,0,0,0,38,27Zm-4,1a.74637.74637,0,0,1,.04-.26A11.00357,11.00357,0,0,0,27,38c0,.34.02.67.05,1h1c-.03-.33-.05-.66-.05-1a9.98208,9.98208,0,0,1,6.3-9.28.92342.92342,0,0,1-.25-.44A.66338.66338,0,0,1,34,28Z" opacity=".05"/><path d="M38,27.5a10.71332,10.71332,0,0,0-2.05.2A.99332.99332,0,0,1,36,28a1.22986,1.22986,0,0,1-.02.2A10.32725,10.32725,0,0,1,38,28a9.93425,9.93425,0,0,1,6,2.01v-.62A10.43144,10.43144,0,0,0,38,27.5ZM27.5,38c0,.34.02.67.04,1h.51c-.03-.33-.05-.66-.05-1a9.98208,9.98208,0,0,1,6.3-9.28.92342.92342,0,0,1-.25-.44A10.5009,10.5009,0,0,0,27.5,38Z" opacity=".07"/></svg>