<svg xmlns="http://www.w3.org/2000/svg" viewBox="0 0 48 48"><linearGradient id="2EwP1DD7JEUXsnT_kswt7a" x1="18.5" x2="18.5" y1="1167" y2="1171" gradientTransform="translate(0 -1150)" gradientUnits="userSpaceOnUse"><stop offset="0" stop-color="#889097"/><stop offset="1" stop-color="#4c5963"/></linearGradient><path fill="url(#2EwP1DD7JEUXsnT_kswt7a)" d="M7,17h23c0.6,0,1,0.4,1,1v2c0,0.6-0.4,1-1,1H7c-0.6,0-1-0.4-1-1v-2C6,17.4,6.4,17,7,17z"/><linearGradient id="2EwP1DD7JEUXsnT_kswt7b" x1="18.5" x2="18.5" y1="1177" y2="1181" gradientTransform="translate(0 -1150)" gradientUnits="userSpaceOnUse"><stop offset="0" stop-color="#889097"/><stop offset="1" stop-color="#4c5963"/></linearGradient><path fill="url(#2EwP1DD7JEUXsnT_kswt7b)" d="M7,27h23c0.6,0,1,0.4,1,1v2c0,0.6-0.4,1-1,1H7c-0.6,0-1-0.4-1-1v-2C6,27.4,6.4,27,7,27z"/><linearGradient id="2EwP1DD7JEUXsnT_kswt7c" x1="24" x2="24" y1="1187" y2="1191" gradientTransform="translate(0 -1150)" gradientUnits="userSpaceOnUse"><stop offset="0" stop-color="#889097"/><stop offset="1" stop-color="#4c5963"/></linearGradient><path fill="url(#2EwP1DD7JEUXsnT_kswt7c)" d="M7,37h34c0.6,0,1,0.4,1,1v2c0,0.6-0.4,1-1,1H7c-0.6,0-1-0.4-1-1v-2C6,37.4,6.4,37,7,37z"/><linearGradient id="2EwP1DD7JEUXsnT_kswt7d" x1="24" x2="24" y1="1157" y2="1161" gradientTransform="translate(0 -1150)" gradientUnits="userSpaceOnUse"><stop offset="0" stop-color="#889097"/><stop offset="1" stop-color="#4c5963"/></linearGradient><path fill="url(#2EwP1DD7JEUXsnT_kswt7d)" d="M7,7h34c0.6,0,1,0.4,1,1v2c0,0.6-0.4,1-1,1H7c-0.6,0-1-0.4-1-1V8C6,7.4,6.4,7,7,7z"/><path fill="#007ad9" d="M41,31c-0.3,0-0.5-0.1-0.7-0.3l-6-6c-0.4-0.4-0.4-1,0-1.4l6-6c0.3-0.3,0.7-0.4,1.1-0.2 c0.4,0.2,0.6,0.5,0.6,0.9v12c0,0.4-0.2,0.8-0.6,0.9C41.3,31,41.1,31,41,31z"/></svg>