<svg xmlns="http://www.w3.org/2000/svg" viewBox="0 0 48 48"><linearGradient id="4Sf9Q5G~PRpc8egK8FoUza" x1="24" x2="24" y1="59.176" y2="26.071" gradientUnits="userSpaceOnUse"><stop offset="0" stop-color="#899198"/><stop offset="1" stop-color="#787e85"/></linearGradient><path fill="url(#4Sf9Q5G~PRpc8egK8FoUza)" d="M3,28v6c0,1.105,0.895,2,2,2h38c1.105,0,2-0.895,2-2v-6H3z"/><linearGradient id="4Sf9Q5G~PRpc8egK8FoUzb" x1="24" x2="24" y1="10.118" y2="43.55" gradientUnits="userSpaceOnUse"><stop offset="0" stop-color="#c3cdd9"/><stop offset="1" stop-color="#9fa7b0"/></linearGradient><path fill="url(#4Sf9Q5G~PRpc8egK8FoUzb)" d="M45,29c0,1.105-0.895,2-2,2H5c-1.105,0-2-0.895-2-2V13c0-1.105,0.895-2,2-2h38	c1.105,0,2,0.895,2,2V29z"/><path d="M23.999,13.986c0.256,0,0.512,0.098,0.707,0.293l5.147,5.867C30.169,20.461,29.945,21,29.5,21H26v6c0,0.552-0.448,1-1,1 h-2c-0.552,0-1-0.448-1-1v-6h-3.5c-0.445,0-0.668-0.539-0.353-0.854l5.146-5.867C23.488,14.084,23.743,13.986,23.999,13.986 M23.999,12.986c-0.535,0-1.037,0.208-1.415,0.587l-0.023,0.023l-0.021,0.024l-5.13,5.848c-0.407,0.43-0.524,1.056-0.296,1.606 C17.348,21.637,17.891,22,18.5,22H21v5c0,1.103,0.897,2,2,2h2c1.103,0,2-0.897,2-2v-5h2.5c0.609,0,1.153-0.364,1.386-0.926 c0.228-0.55,0.111-1.175-0.296-1.605l-5.131-5.848l-0.021-0.025l-0.023-0.023C25.036,13.194,24.533,12.986,23.999,12.986 L23.999,12.986z" opacity=".05"/><path d="M23.999,13.986c0.256,0,0.512,0.098,0.707,0.293l5.147,5.867C30.169,20.461,29.945,21,29.5,21H26v6c0,0.552-0.448,1-1,1 h-2c-0.552,0-1-0.448-1-1v-6h-3.5c-0.445,0-0.668-0.539-0.353-0.854l5.146-5.867C23.488,14.084,23.743,13.986,23.999,13.986 M23.999,13.486c-0.401,0-0.778,0.156-1.061,0.44l-5.168,5.89c-0.265,0.263-0.35,0.691-0.194,1.066 c0.155,0.375,0.518,0.617,0.923,0.617h3V27c0,0.827,0.673,1.5,1.5,1.5h2c0.827,0,1.5-0.673,1.5-1.5v-5.5h3 c0.406,0,0.769-0.243,0.924-0.618c0.155-0.375,0.07-0.803-0.217-1.09l-5.125-5.843C24.777,13.642,24.4,13.486,23.999,13.486 L23.999,13.486z" opacity=".07"/><linearGradient id="4Sf9Q5G~PRpc8egK8FoUzc" x1="24" x2="24" y1="11.882" y2="34.195" gradientUnits="userSpaceOnUse"><stop offset="0" stop-color="#f44f5a"/><stop offset=".443" stop-color="#ee3d4a"/><stop offset="1" stop-color="#e52030"/></linearGradient><path fill="url(#4Sf9Q5G~PRpc8egK8FoUzc)" d="M23.293,14.279l-5.146,5.867C17.832,20.461,18.055,21,18.5,21H22v6c0,0.552,0.448,1,1,1h2 c0.552,0,1-0.448,1-1v-6h3.5c0.445,0,0.669-0.539,0.354-0.854l-5.147-5.867C24.316,13.888,23.683,13.888,23.293,14.279z"/></svg>