<svg xmlns="http://www.w3.org/2000/svg" viewBox="0 0 48 48"><linearGradient id="0oFVBTT7HKhR8irwuVAREa" x1="25.717" x2="22.309" y1="10.71" y2="14.263" gradientUnits="userSpaceOnUse"><stop offset="0" stop-color="#e5a505"/><stop offset=".011" stop-color="#e9a804"/><stop offset=".061" stop-color="#f4b102"/><stop offset=".133" stop-color="#fbb600"/><stop offset=".331" stop-color="#fdb700"/></linearGradient><rect width="4" height="3" x="22" y="11" fill="url(#0oFVBTT7HKhR8irwuVAREa)"/><linearGradient id="0oFVBTT7HKhR8irwuVAREb" x1="20.934" x2="26.915" y1="4.542" y2="13.238" gradientTransform="translate(0 -1)" gradientUnits="userSpaceOnUse"><stop offset="0" stop-color="#fede00"/><stop offset="1" stop-color="#ffd000"/></linearGradient><path fill="url(#0oFVBTT7HKhR8irwuVAREb)" d="M28,5c-1.657,0-3,1.343-3,3c0,0.353,0.072,0.686,0.184,1h-2.367C22.928,8.686,23,8.353,23,8 c0-1.657-1.343-3-3-3s-3,1.343-3,3s1.343,3,3,3h8c1.657,0,3-1.343,3-3S29.657,5,28,5z M19,8c0-0.552,0.448-1,1-1s1,0.448,1,1 c0,0.552-0.448,1-1,1S19,8.552,19,8z M28,9c-0.552,0-1-0.448-1-1c0-0.552,0.448-1,1-1s1,0.448,1,1C29,8.552,28.552,9,28,9z"/><linearGradient id="0oFVBTT7HKhR8irwuVAREc" x1="24" x2="24" y1="13.089" y2="31.03" gradientUnits="userSpaceOnUse"><stop offset="0" stop-color="#f44f5a"/><stop offset=".443" stop-color="#ee3d4a"/><stop offset="1" stop-color="#e52030"/></linearGradient><path fill="url(#0oFVBTT7HKhR8irwuVAREc)" d="M42,31H6c0-9.941,8.059-18,18-18S42,21.059,42,31z"/><linearGradient id="0oFVBTT7HKhR8irwuVAREd" x1="24" x2="24" y1="25.763" y2="39.876" gradientUnits="userSpaceOnUse"><stop offset="0" stop-color="#eba84b"/><stop offset=".252" stop-color="#e9a144"/><stop offset=".624" stop-color="#e28d31"/><stop offset="1" stop-color="#d97218"/></linearGradient><path fill="url(#0oFVBTT7HKhR8irwuVAREd)" d="M43,37H5c-1.105,0-2-0.895-2-2v-6c0-2.209,1.791-4,4-4h34c2.209,0,4,1.791,4,4v6	C45,36.105,44.105,37,43,37z"/><path fill="#586169" d="M41,37c0,2.761-2.238,5-5,5s-5-2.239-5-5s2.238-5,5-5S41,34.239,41,37"/><path fill="#586169" d="M17,37c0,2.761-2.239,5-5,5s-5-2.239-5-5s2.239-5,5-5S17,34.239,17,37"/><path fill="#999" d="M38,37c0,1.105-0.895,2-2,2s-2-0.895-2-2s0.895-2,2-2S38,35.895,38,37"/><path fill="#999" d="M14,37c0,1.105-0.895,2-2,2s-2-0.895-2-2s0.895-2,2-2S14,35.895,14,37"/></svg>