<svg xmlns="http://www.w3.org/2000/svg" viewBox="0 0 48 48"><linearGradient id="PrpOXkOdfIB4UtfRClDa1a" x1="6" x2="42" y1="-189.5" y2="-189.5" gradientTransform="matrix(1 0 0 -1 0 -154)" gradientUnits="userSpaceOnUse"><stop offset="0" stop-color="#33bef0"/><stop offset="1" stop-color="#22a5e2"/></linearGradient><ellipse cx="24" cy="35.5" fill="url(#PrpOXkOdfIB4UtfRClDa1a)" rx="18" ry="6.5"/><path d="M24,29c-2.753,0-5.351,0.23-7.684,0.629l5.737,6.963c0.481,0.576,1.191,0.907,1.947,0.907	s1.467-0.331,1.951-0.911l5.733-6.959C29.351,29.23,26.753,29,24,29z" opacity=".05"/><path d="M24,29c-2.529,0-4.933,0.19-7.117,0.53l5.554,6.741c0.386,0.462,0.955,0.728,1.563,0.728	s1.178-0.266,1.565-0.729l5.552-6.739C28.933,29.19,26.529,29,24,29z" opacity=".07"/><linearGradient id="PrpOXkOdfIB4UtfRClDa1b" x1="19.5" x2="33.5" y1="21" y2="21" gradientUnits="userSpaceOnUse"><stop offset="0" stop-color="#ae4cd5"/><stop offset="1" stop-color="#ac4ad5"/></linearGradient><path fill="url(#PrpOXkOdfIB4UtfRClDa1b)" d="M22.82,35.951l-2.32-2.82l-1-4.315l1-4.315v-18c0-0.55,0.45-1,1-1h5c0.55,0,1,0.45,1,1v18	h4.98c0.86,0,1.33,0.98,0.79,1.63l-8.09,9.82C24.57,36.681,23.43,36.681,22.82,35.951z"/><linearGradient id="PrpOXkOdfIB4UtfRClDa1c" x1="16.117" x2="20.69" y1="28.816" y2="28.816" gradientUnits="userSpaceOnUse"><stop offset=".273" stop-color="#912fbd"/><stop offset=".588" stop-color="#8f2ebb"/><stop offset=".758" stop-color="#892bb3"/><stop offset=".894" stop-color="#7e26a5"/><stop offset="1" stop-color="#701f94"/></linearGradient><path fill="url(#PrpOXkOdfIB4UtfRClDa1c)" d="M20.5,33.131l-5.77-7c-0.54-0.65-0.07-1.63,0.79-1.63h4.98V33.131z"/></svg>