<svg xmlns="http://www.w3.org/2000/svg" viewBox="0 0 48 48"><linearGradient id="T3WoPd0c5wIQ67~SeU8C4a" x1="16.644" x2="35.024" y1="9.919" y2="39.598" gradientUnits="userSpaceOnUse"><stop offset="0" stop-color="#7b83eb"/><stop offset="1" stop-color="#5961c3"/></linearGradient><path fill="url(#T3WoPd0c5wIQ67~SeU8C4a)" d="M26,45C14.42,45,5,35.579,5,24S14.42,3,26,3c4.77,0,9.445,1.651,13.165,4.65 c0.55,0.443,0.825,1.144,0.724,1.843c-0.102,0.699-0.564,1.294-1.217,1.563C33.404,13.228,30,18.309,30,24 s3.404,10.772,8.672,12.944c0.653,0.269,1.116,0.863,1.217,1.563c0.101,0.699-0.174,1.399-0.724,1.843 C35.445,43.349,30.77,45,26,45z M26,7C16.626,7,9,14.626,9,24s7.626,17,17,17c2.849,0,5.576-0.689,8.027-2.014 C29.062,35.694,26,30.122,26,24s3.062-11.694,8.027-14.986C31.576,7.689,28.849,7,26,7z"/></svg>