<svg xmlns="http://www.w3.org/2000/svg" viewBox="0 0 48 48"><linearGradient id="t3zKssoSqt4owXzJvDRY3a" x1="5.692" x2="10.106" y1="7.692" y2="12.106" gradientUnits="userSpaceOnUse"><stop offset="0" stop-color="#1d59b3"/><stop offset="1" stop-color="#195bbc"/></linearGradient><path fill="url(#t3zKssoSqt4owXzJvDRY3a)" d="M10,12H6c-0.552,0-1-0.448-1-1V9c0-0.552,0.448-1,1-1h4c0.552,0,1,0.448,1,1v2	C11,11.552,10.552,12,10,12z"/><linearGradient id="t3zKssoSqt4owXzJvDRY3b" x1="17.123" x2="24.538" y1="6.123" y2="13.538" gradientUnits="userSpaceOnUse"><stop offset=".003" stop-color="#42a3f2"/><stop offset="1" stop-color="#42a4eb"/></linearGradient><path fill="url(#t3zKssoSqt4owXzJvDRY3b)" d="M26,12H16c-0.552,0-1-0.448-1-1V9c0-0.552,0.448-1,1-1h10c0.552,0,1,0.448,1,1v2	C27,11.552,26.552,12,26,12z"/><linearGradient id="t3zKssoSqt4owXzJvDRY3c" x1="31.215" x2="34.629" y1="8.215" y2="11.629" gradientUnits="userSpaceOnUse"><stop offset=".003" stop-color="#42a3f2"/><stop offset="1" stop-color="#42a4eb"/></linearGradient><path fill="url(#t3zKssoSqt4owXzJvDRY3c)" d="M34,12h-2c-0.552,0-1-0.448-1-1V9c0-0.552,0.448-1,1-1h2c0.552,0,1,0.448,1,1v2	C35,11.552,34.552,12,34,12z"/><linearGradient id="t3zKssoSqt4owXzJvDRY3d" x1="39.215" x2="42.629" y1="8.215" y2="11.629" gradientUnits="userSpaceOnUse"><stop offset=".003" stop-color="#42a3f2"/><stop offset="1" stop-color="#42a4eb"/></linearGradient><path fill="url(#t3zKssoSqt4owXzJvDRY3d)" d="M42,12h-2c-0.552,0-1-0.448-1-1V9c0-0.552,0.448-1,1-1h2c0.552,0,1,0.448,1,1v2	C43,11.552,42.552,12,42,12z"/><linearGradient id="t3zKssoSqt4owXzJvDRY3e" x1="5.692" x2="10.106" y1="14.692" y2="19.106" gradientUnits="userSpaceOnUse"><stop offset="0" stop-color="#1d59b3"/><stop offset="1" stop-color="#195bbc"/></linearGradient><path fill="url(#t3zKssoSqt4owXzJvDRY3e)" d="M10,19H6c-0.552,0-1-0.448-1-1v-2c0-0.552,0.448-1,1-1h4c0.552,0,1,0.448,1,1v2	C11,18.552,10.552,19,10,19z"/><linearGradient id="t3zKssoSqt4owXzJvDRY3f" x1="17.123" x2="24.538" y1="13.123" y2="20.538" gradientUnits="userSpaceOnUse"><stop offset=".003" stop-color="#42a3f2"/><stop offset="1" stop-color="#42a4eb"/></linearGradient><path fill="url(#t3zKssoSqt4owXzJvDRY3f)" d="M26,19H16c-0.552,0-1-0.448-1-1v-2c0-0.552,0.448-1,1-1h10c0.552,0,1,0.448,1,1v2	C27,18.552,26.552,19,26,19z"/><linearGradient id="t3zKssoSqt4owXzJvDRY3g" x1="39.215" x2="42.629" y1="15.215" y2="18.629" gradientUnits="userSpaceOnUse"><stop offset=".003" stop-color="#42a3f2"/><stop offset="1" stop-color="#42a4eb"/></linearGradient><path fill="url(#t3zKssoSqt4owXzJvDRY3g)" d="M42,19h-2c-0.552,0-1-0.448-1-1v-2c0-0.552,0.448-1,1-1h2c0.552,0,1,0.448,1,1v2	C43,18.552,42.552,19,42,19z"/><linearGradient id="t3zKssoSqt4owXzJvDRY3h" x1="5.692" x2="10.106" y1="21.692" y2="26.106" gradientUnits="userSpaceOnUse"><stop offset="0" stop-color="#1d59b3"/><stop offset="1" stop-color="#195bbc"/></linearGradient><path fill="url(#t3zKssoSqt4owXzJvDRY3h)" d="M10,26H6c-0.552,0-1-0.448-1-1v-2c0-0.552,0.448-1,1-1h4c0.552,0,1,0.448,1,1v2	C11,25.552,10.552,26,10,26z"/><linearGradient id="t3zKssoSqt4owXzJvDRY3i" x1="17.123" x2="24.538" y1="20.123" y2="27.538" gradientUnits="userSpaceOnUse"><stop offset=".003" stop-color="#42a3f2"/><stop offset="1" stop-color="#42a4eb"/></linearGradient><path fill="url(#t3zKssoSqt4owXzJvDRY3i)" d="M26,26H16c-0.552,0-1-0.448-1-1v-2c0-0.552,0.448-1,1-1h10c0.552,0,1,0.448,1,1v2	C27,25.552,26.552,26,26,26z"/><linearGradient id="t3zKssoSqt4owXzJvDRY3j" x1="39.215" x2="42.629" y1="22.215" y2="25.629" gradientUnits="userSpaceOnUse"><stop offset=".003" stop-color="#42a3f2"/><stop offset="1" stop-color="#42a4eb"/></linearGradient><path fill="url(#t3zKssoSqt4owXzJvDRY3j)" d="M42,26h-2c-0.552,0-1-0.448-1-1v-2c0-0.552,0.448-1,1-1h2c0.552,0,1,0.448,1,1v2	C43,25.552,42.552,26,42,26z"/><linearGradient id="t3zKssoSqt4owXzJvDRY3k" x1="5.692" x2="10.106" y1="28.692" y2="33.106" gradientUnits="userSpaceOnUse"><stop offset="0" stop-color="#1d59b3"/><stop offset="1" stop-color="#195bbc"/></linearGradient><path fill="url(#t3zKssoSqt4owXzJvDRY3k)" d="M10,33H6c-0.552,0-1-0.448-1-1v-2c0-0.552,0.448-1,1-1h4c0.552,0,1,0.448,1,1v2	C11,32.552,10.552,33,10,33z"/><linearGradient id="t3zKssoSqt4owXzJvDRY3l" x1="17.123" x2="24.538" y1="27.123" y2="34.538" gradientUnits="userSpaceOnUse"><stop offset=".003" stop-color="#42a3f2"/><stop offset="1" stop-color="#42a4eb"/></linearGradient><path fill="url(#t3zKssoSqt4owXzJvDRY3l)" d="M26,33H16c-0.552,0-1-0.448-1-1v-2c0-0.552,0.448-1,1-1h10c0.552,0,1,0.448,1,1v2	C27,32.552,26.552,33,26,33z"/><linearGradient id="t3zKssoSqt4owXzJvDRY3m" x1="31.215" x2="34.629" y1="29.215" y2="32.629" gradientUnits="userSpaceOnUse"><stop offset=".003" stop-color="#42a3f2"/><stop offset="1" stop-color="#42a4eb"/></linearGradient><path fill="url(#t3zKssoSqt4owXzJvDRY3m)" d="M34,33h-2c-0.552,0-1-0.448-1-1v-2c0-0.552,0.448-1,1-1h2c0.552,0,1,0.448,1,1v2	C35,32.552,34.552,33,34,33z"/><linearGradient id="t3zKssoSqt4owXzJvDRY3n" x1="39.215" x2="42.629" y1="29.215" y2="32.629" gradientUnits="userSpaceOnUse"><stop offset=".003" stop-color="#42a3f2"/><stop offset="1" stop-color="#42a4eb"/></linearGradient><path fill="url(#t3zKssoSqt4owXzJvDRY3n)" d="M42,33h-2c-0.552,0-1-0.448-1-1v-2c0-0.552,0.448-1,1-1h2c0.552,0,1,0.448,1,1v2	C43,32.552,42.552,33,42,33z"/><linearGradient id="t3zKssoSqt4owXzJvDRY3o" x1="5.692" x2="10.106" y1="35.692" y2="40.106" gradientUnits="userSpaceOnUse"><stop offset="0" stop-color="#1d59b3"/><stop offset="1" stop-color="#195bbc"/></linearGradient><path fill="url(#t3zKssoSqt4owXzJvDRY3o)" d="M10,40H6c-0.552,0-1-0.448-1-1v-2c0-0.552,0.448-1,1-1h4c0.552,0,1,0.448,1,1v2	C11,39.552,10.552,40,10,40z"/><linearGradient id="t3zKssoSqt4owXzJvDRY3p" x1="17.123" x2="24.538" y1="34.123" y2="41.538" gradientUnits="userSpaceOnUse"><stop offset=".003" stop-color="#42a3f2"/><stop offset="1" stop-color="#42a4eb"/></linearGradient><path fill="url(#t3zKssoSqt4owXzJvDRY3p)" d="M26,40H16c-0.552,0-1-0.448-1-1v-2c0-0.552,0.448-1,1-1h10c0.552,0,1,0.448,1,1v2	C27,39.552,26.552,40,26,40z"/><linearGradient id="t3zKssoSqt4owXzJvDRY3q" x1="39.215" x2="42.629" y1="36.215" y2="39.629" gradientUnits="userSpaceOnUse"><stop offset=".003" stop-color="#42a3f2"/><stop offset="1" stop-color="#42a4eb"/></linearGradient><path fill="url(#t3zKssoSqt4owXzJvDRY3q)" d="M42,40h-2c-0.552,0-1-0.448-1-1v-2c0-0.552,0.448-1,1-1h2c0.552,0,1,0.448,1,1v2	C43,39.552,42.552,40,42,40z"/></svg>