<svg xmlns="http://www.w3.org/2000/svg" viewBox="0 0 48 48"><path fill="#565b5e" d="M36.972,41.164l5.943,0.826c0.547,0.076,1.052-0.306,1.128-0.853l0.689-4.952l-7.924-1.102	l-0.689,4.952C36.044,40.583,36.426,41.088,36.972,41.164z"/><path fill="#565b5e" d="M11,41v-5H3v5c0,0.552,0.448,1,1,1h6C10.552,42,11,41.552,11,41z"/><linearGradient id="gXrOOe3iejh4e8pEwdy10a" x1="3" x2="45" y1="639.5" y2="639.5" gradientTransform="matrix(1 0 0 -1 0 662)" gradientUnits="userSpaceOnUse"><stop offset="0" stop-color="#42a3f2"/><stop offset="1" stop-color="#42a4eb"/></linearGradient><path fill="url(#gXrOOe3iejh4e8pEwdy10a)" d="M40.415,22.381l-1.462-4.43c-0.428-1.298-1.496-2.282-2.824-2.603L32.13,14.38l-5.062-4.908	c-0.631-0.612-1.448-0.996-2.322-1.091L12.123,7c-1.836,0-3.436,1.249-3.881,3.03L6,19l-1.8,2.4C3.421,22.439,3,23.702,3,25v11	c0,1.105,0.895,2,2,2h38c1.105,0,2-0.895,2-2l-2.066-9.3L40.415,22.381z"/><path fill="#fff" d="M39.428,29.847c-0.605,1.241-2.101,1.757-3.343,1.152c-1.241-0.605-1.757-2.101-1.152-3.343	L39.428,29.847z"/><circle cx="9.5" cy="26.5" r="2.5" fill="#fff"/><linearGradient id="gXrOOe3iejh4e8pEwdy10b" x1="15" x2="31.503" y1="630.5" y2="630.5" gradientTransform="matrix(1 0 0 -1 0 662)" gradientUnits="userSpaceOnUse"><stop offset="0" stop-color="#3079d6"/><stop offset="1" stop-color="#297cd2"/></linearGradient><path fill="url(#gXrOOe3iejh4e8pEwdy10b)" d="M15,29l1.497,3.743C16.801,33.502,17.536,34,18.354,34h11.292	c0.818,0,1.553-0.498,1.857-1.257l-1.181-1.467L15,29z"/><linearGradient id="gXrOOe3iejh4e8pEwdy10c" x1="0" x2="6" y1="644" y2="644" gradientTransform="matrix(1 0 0 -1 0 662)" gradientUnits="userSpaceOnUse"><stop offset="0" stop-color="#42a3f2"/><stop offset="1" stop-color="#42a4eb"/></linearGradient><path fill="url(#gXrOOe3iejh4e8pEwdy10c)" d="M2,20h4v-2c0-1.105-0.895-2-2-2H1c-0.552,0-1,0.448-1,1v1C0,19.105,0.895,20,2,20z"/><linearGradient id="gXrOOe3iejh4e8pEwdy10d" x1="-40.612" x2="-34.612" y1="640.246" y2="640.246" gradientTransform="scale(-1) rotate(28.144 1283.313 296.097)" gradientUnits="userSpaceOnUse"><stop offset="0" stop-color="#42a3f2"/><stop offset="1" stop-color="#42a4eb"/></linearGradient><path fill="url(#gXrOOe3iejh4e8pEwdy10d)" d="M46.41,24.943l0.472-0.882c0.26-0.487,0.077-1.093-0.41-1.353l-2.645-1.415	c-0.974-0.521-2.186-0.154-2.707,0.82l-0.943,1.764l3.527,1.887C44.677,26.284,45.889,25.917,46.41,24.943z"/><linearGradient id="gXrOOe3iejh4e8pEwdy10e" x1="7.75" x2="38.562" y1="645.914" y2="645.914" gradientTransform="matrix(1 0 0 -1 0 662)" gradientUnits="userSpaceOnUse"><stop offset="0" stop-color="#3079d6"/><stop offset="1" stop-color="#297cd2"/></linearGradient><path fill="url(#gXrOOe3iejh4e8pEwdy10e)" d="M38.562,23.172l-0.077-0.133l-0.052-0.401l-1.148-3.387c-0.36-1.062-1.235-1.869-2.324-2.141	l-4.515-1.129l-5.044-4.717c-0.51-0.477-1.159-0.78-1.852-0.865L12.123,9c-0.918,0-1.717,0.625-1.94,1.515l-2.242,8.97l-0.098,0.392	L7.75,20L38.562,23.172z"/></svg>