<svg xmlns="http://www.w3.org/2000/svg" viewBox="0 0 48 48"><linearGradient id="YHJZfpKdg9XY8JbugrZUca" x1="13.998" x2="32.889" y1="43.324" y2="10.604" gradientTransform="matrix(1 0 0 -1 0 50)" gradientUnits="userSpaceOnUse"><stop offset="0" stop-color="#ec8601"/><stop offset=".592" stop-color="#e77101"/><stop offset=".771" stop-color="#e46401"/><stop offset=".941" stop-color="#e36001"/></linearGradient><path fill="url(#YHJZfpKdg9XY8JbugrZUca)" d="M8,26c0-9.941,8.059-18,18-18c9.604,0,17.428,7.527,17.95,17c0.017-0.333,0.05-0.662,0.05-1 c0-11.046-8.954-20-20-20S4,12.954,4,24s8.954,20,20,20c0.338,0,0.667-0.034,1-0.05C15.527,43.428,8,35.604,8,26z"/><g><linearGradient id="YHJZfpKdg9XY8JbugrZUcb" x1="19.698" x2="34.577" y1="35.677" y2="9.905" gradientTransform="matrix(1 0 0 -1 0 50)" gradientUnits="userSpaceOnUse"><stop offset="0" stop-color="#ec8601"/><stop offset=".592" stop-color="#e77101"/><stop offset=".771" stop-color="#e46401"/><stop offset=".941" stop-color="#e36001"/></linearGradient><path fill="url(#YHJZfpKdg9XY8JbugrZUcb)" d="M36,27c-3.866,0-7-3.134-7-7c0-3.032,1.932-5.607,4.629-6.579 C31.765,12.518,29.694,12,27.5,12C19.492,12,13,18.716,13,27s6.492,15,14.5,15S42,35.284,42,27c0-1.015-0.1-2.006-0.286-2.965 C40.446,25.827,38.362,27,36,27z"/></g></svg>