<svg xmlns="http://www.w3.org/2000/svg" viewBox="0 0 48 48"><linearGradient id="~fhswqHA4~N9AP1E3My~ya" x1="34.958" x2="28.307" y1="8.371" y2="33.336" gradientUnits="userSpaceOnUse"><stop offset="0" stop-color="#fff0c9"/><stop offset=".104" stop-color="#ffeec2"/><stop offset=".254" stop-color="#feeaaf"/><stop offset=".433" stop-color="#fde38f"/><stop offset=".633" stop-color="#fcd963"/><stop offset=".849" stop-color="#facc2b"/><stop offset="1" stop-color="#f9c200"/></linearGradient><path fill="url(#~fhswqHA4~N9AP1E3My~ya)" d="M35.344,27.722c2.63-4.304,4.116-8.251,4.116-14.375c0-4.137-1.167-8.434-3.501-8.434 c-1.644,0-2.938,1.633-4.35,8.01C29.965,20.349,27,24.074,22.934,27.722H35.344z"/><linearGradient id="~fhswqHA4~N9AP1E3My~yb" x1="10.569" x2="98.615" y1="40.477" y2="-40.619" gradientUnits="userSpaceOnUse"><stop offset="0" stop-color="#fed100"/><stop offset="1" stop-color="#feae00"/></linearGradient><path fill="url(#~fhswqHA4~N9AP1E3My~yb)" d="M37.9,25.26c-1.46,3.09-3.39,5.89-5.8,8.32c-5.33,5.37-12.24,9.1-20.57,9.1 c-2.05,0-3.32-0.13-4.43-0.39c-0.07-0.01-0.14-0.03-0.21-0.05c-1.03-0.56-1.86-1.62-1.86-3.35c0-0.01,0-0.07-0.01-0.16 c0.09-0.17,0.18-0.33,0.28-0.49c1.33-2.19,3.62-3.79,6.59-5.31c4.67-2.39,8.91-4.52,12.68-8.31c2.37-3.33,0.14-5.32,0.14-5.32 c-6.44-1.21-12.07,10.46-14.67,9.66c-0.25-0.07-0.45-0.22-0.61-0.42c0.07,0.04,0.15,0.08,0.23,0.1c3.26,0.84,7.91-12.93,17.37-9.33 C31,21,30.07,27.7,30.07,27.7c-0.07,0.08-0.15,0.17-0.23,0.25c0.08-0.08,0.16-0.16,0.24-0.24c0,0,0.91-1.35,1.5-2.15l1.9-1.74 L37.9,25.26z"/><linearGradient id="~fhswqHA4~N9AP1E3My~yc" x1="8.94" x2="29" y1="22.57" y2="22.57" gradientUnits="userSpaceOnUse"><stop offset="0" stop-color="#fff0c9"/><stop offset="1" stop-color="#ffe082"/></linearGradient><path fill="url(#~fhswqHA4~N9AP1E3My~yc)" d="M29,21c-2-5-8.685-5.593-9.411-5.528c-7.751,0.696-12.185,11.643-10.16,14.073 c0.074,0.037,0.149,0.073,0.232,0.095C12.918,30.484,23,14,29,21z"/><linearGradient id="~fhswqHA4~N9AP1E3My~yd" x1="31.111" x2="6.676" y1="19.76" y2="54.109" gradientUnits="userSpaceOnUse"><stop offset=".1" stop-color="#feae00"/><stop offset="1" stop-color="#fed100"/></linearGradient><path fill="url(#~fhswqHA4~N9AP1E3My~yd)" d="M37.9,25.26c-1.46,3.09-3.39,5.89-5.8,8.32c-5.33,5.37-12.24,9.1-20.57,9.1 c-2.05,0-3.32-0.13-4.43-0.39c-0.07-0.01-0.14-0.03-0.21-0.05c-0.73-0.39-1.35-1.04-1.65-1.99L7,40c0,0,16.8-4,22.8-12 c0.01-0.02,0.02-0.03,0.04-0.05c0.08-0.08,0.16-0.16,0.24-0.24c0,0,0.91-1.35,1.5-2.15l1.9-1.74L37.9,25.26z"/><path fill="#e38101" d="M7,40v2.265c-1.12-0.54-1.97-1.53-1.97-3.38c0-0.05,0-0.1,0.01-0.15C6.04,39.505,7,40,7,40z"/><linearGradient id="~fhswqHA4~N9AP1E3My~ye" x1="41.512" x2="32.297" y1="40.129" y2="24.168" gradientUnits="userSpaceOnUse"><stop offset="0" stop-color="#fff0c9"/><stop offset="1" stop-color="#ffe082"/></linearGradient><path fill="url(#~fhswqHA4~N9AP1E3My~ye)" d="M34.56,43.49c-0.05-0.02-0.1-0.04-0.15-0.06c-3.35-1.16,2.9-19.32-0.6-19.32 c-1.2,0-3.58,3.38-3.72,3.59c0.11-0.26,1.99-4.43,4.58-4.55c0.11,0,0.21-0.01,0.32,0c2.13,0.19,7.89,2.38,8.11,3.7 C44.01,32.38,38.72,44.21,34.56,43.49z"/></svg>