<svg xmlns="http://www.w3.org/2000/svg" viewBox="0 0 48 48"><path fill="#ff8f6b" d="M24,16l3.521-9.683C27.809,5.526,28.56,5,29.401,5h7.198c0.841,0,1.592,0.526,1.88,1.317L42,16"/><path fill="#d35230" d="M42,16v25c0,1.105-0.895,2-2,2H24V16"/><linearGradient id="hRrJ4IwtKoEpV6f3bNjPla" x1="33" x2="33" y1="10.91" y2="4.937" gradientUnits="userSpaceOnUse"><stop offset="0" stop-color="#b93b1d"/><stop offset="1" stop-color="#a8280f"/></linearGradient><path fill="url(#hRrJ4IwtKoEpV6f3bNjPla)" d="M32,11h2c1.105,0,2-0.895,2-2V5h-6v4C30,10.105,30.895,11,32,11z"/><circle cx="33" cy="29" r="4" fill="#fff"/><path fill="#50e6ff" d="M24,16l-3.521-9.683C20.191,5.526,19.44,5,18.599,5h-7.198c-0.841,0-1.592,0.526-1.88,1.317L6,16"/><linearGradient id="hRrJ4IwtKoEpV6f3bNjPlb" x1="15" x2="15" y1="16" y2="43.29" gradientUnits="userSpaceOnUse"><stop offset="0" stop-color="#199ae0"/><stop offset="1" stop-color="#0782d8"/></linearGradient><path fill="url(#hRrJ4IwtKoEpV6f3bNjPlb)" d="M6,16v25c0,1.105,0.895,2,2,2h16V16"/><linearGradient id="hRrJ4IwtKoEpV6f3bNjPlc" x1="15" x2="15" y1="10.932" y2="4.901" gradientUnits="userSpaceOnUse"><stop offset="0" stop-color="#0d61a9"/><stop offset="1" stop-color="#16528c"/></linearGradient><path fill="url(#hRrJ4IwtKoEpV6f3bNjPlc)" d="M14,11h2c1.105,0,2-0.895,2-2V5h-6v4C12,10.105,12.895,11,14,11z"/><path fill="#fff" d="M10.608,32.022l3.825-6.693c0.251-0.439,0.884-0.439,1.135,0l3.825,6.693	C19.641,32.458,19.326,33,18.825,33h-7.649C10.674,33,10.359,32.458,10.608,32.022z"/></svg>