<svg xmlns="http://www.w3.org/2000/svg" viewBox="0 0 48 48"><path fill="#50e6ff" d="M4,38V15h40v23c0,1.1-0.9,2-2,2H6C4.9,40,4,39.1,4,38z"/><linearGradient id="GM76ZQb4imqsTmWIXqbtJa" x1="4.614" x2="42.936" y1="343.741" y2="351.533" gradientTransform="translate(0 -336)" gradientUnits="userSpaceOnUse"><stop offset="0" stop-color="#0077d2"/><stop offset="1" stop-color="#0b59a2"/></linearGradient><path fill="url(#GM76ZQb4imqsTmWIXqbtJa)" d="M44,10v5H4v-5c0-1.1,0.9-2,2-2h36C43.1,8,44,8.9,44,10z"/><linearGradient id="GM76ZQb4imqsTmWIXqbtJb" x1="6.751" x2="8.032" y1="346.416" y2="348.269" gradientTransform="translate(0 -336)" gradientUnits="userSpaceOnUse"><stop offset="0" stop-color="#75daff"/><stop offset="1" stop-color="#49bef1"/></linearGradient><circle cx="7.5" cy="11.5" r="1.5" fill="url(#GM76ZQb4imqsTmWIXqbtJb)"/><path d="M42.323,28.394C41.317,27.708,40.278,27,38.5,27s-2.817,0.708-3.823,1.394	C33.519,29.184,32.321,30,29.5,30c-0.827,0-1.5,0.673-1.5,1.5V36c0,0.736,0.093,1.489,0.275,2.238	c0.148,0.606,0.356,1.194,0.61,1.762H42c1.1,0,2-0.9,2-2v-8.624C43.345,29.09,42.83,28.739,42.323,28.394z" opacity=".05"/><path d="M42.042,28.807C41.056,28.135,40.124,27.5,38.5,27.5s-2.556,0.635-3.542,1.307	C33.794,29.601,32.474,30.5,29.5,30.5c-0.552,0-1,0.448-1,1V36c0,0.697,0.088,1.41,0.261,2.119C28.92,38.77,29.149,39.398,29.43,40	H42c1.1,0,2-0.9,2-2v-8.085C43.2,29.596,42.603,29.189,42.042,28.807z" opacity=".07"/><linearGradient id="GM76ZQb4imqsTmWIXqbtJc" x1="11.751" x2="13.032" y1="346.416" y2="348.269" gradientTransform="translate(0 -336)" gradientUnits="userSpaceOnUse"><stop offset="0" stop-color="#75daff"/><stop offset="1" stop-color="#49bef1"/></linearGradient><circle cx="12.5" cy="11.5" r="1.5" fill="url(#GM76ZQb4imqsTmWIXqbtJc)"/><path fill="#107c42" d="M38.5,48c-0.276,0-0.5-0.224-0.5-0.5s0.224-0.5,0.5-0.5V48z"/><path fill="#185c37" d="M39,47.5c0,0.276-0.224,0.5-0.5,0.5v-1C38.776,47,39,47.224,39,47.5z"/><circle cx="47.5" cy="31.5" r=".5" fill="#21a366"/><circle cx="29.5" cy="31.5" r=".5" fill="#33c481"/><path fill="#185c37" d="M38.5,47.5l0.214,0.453c0,0,7.572-3.95,9.04-9.953H38.5V47.5z"/><path fill="#21a366" d="M48,31.5L47.5,31c-5.561,0-5.639-3-9-3v10h9.254C47.911,37.356,48,36.689,48,36 C48,34.428,48,31.5,48,31.5z"/><path fill="#107c42" d="M38.5,47.5l-0.214,0.453c0,0-7.572-3.95-9.04-9.953H38.5V47.5z"/><path fill="#33c481" d="M29,31.5l0.5-0.5c5.561,0,5.639-3,9-3v10h-9.253C29.089,37.356,29,36.689,29,36 C29,34.428,29,31.5,29,31.5z"/></svg>