<svg xmlns="http://www.w3.org/2000/svg" viewBox="0 0 48 48"><linearGradient id="JGiUH3KNs0KBpIkQteg8Ya" x1="14.265" x2="45.531" y1=".265" y2="31.531" gradientUnits="userSpaceOnUse"><stop offset="0" stop-color="#eba84b"/><stop offset=".255" stop-color="#e8a044"/><stop offset=".641" stop-color="#e18b30"/><stop offset="1" stop-color="#d97218"/></linearGradient><circle cx="31" cy="17" r="14" fill="url(#JGiUH3KNs0KBpIkQteg8Ya)"/><path d="M44,18.81v-0.88c0-0.89-0.39-1.72-1.06-2.29l-6.98-5.93C35.42,9.25,34.73,9,34.02,9H31V8.51c0-0.64-0.31-1.25-0.84-1.62 l-4.15-2.97c-0.19,0.07-0.37,0.15-0.55,0.22c-0.18,0.08-0.35,0.16-0.53,0.24l4.65,3.32C29.84,7.89,30,8.19,30,8.51V9 c0,0.55,0.45,1,1,1h3.02c0.47,0,0.93,0.17,1.29,0.47l6.98,5.93c0.45,0.38,0.71,0.94,0.71,1.53v0.88c0,0.12,0.02,0.25,0.07,0.37 l1.07,2.67c0.09-0.25,0.17-0.5,0.25-0.75c0.08-0.26,0.15-0.52,0.21-0.79L44,18.81z" opacity=".05"/><path d="M43.54,18.99c-0.03-0.06-0.04-0.12-0.04-0.18v-0.88c0-0.74-0.32-1.43-0.88-1.91l-6.99-5.93c-0.45-0.38-1.02-0.59-1.61-0.59 H31c-0.28,0-0.5-0.22-0.5-0.5V8.51c0-0.48-0.23-0.94-0.63-1.22l-4.41-3.15c-0.18,0.08-0.35,0.16-0.53,0.24l4.65,3.32 C29.84,7.89,30,8.19,30,8.51V9c0,0.55,0.45,1,1,1h3.02c0.47,0,0.93,0.17,1.29,0.47l6.98,5.93c0.45,0.38,0.71,0.94,0.71,1.53v0.88 c0,0.12,0.02,0.25,0.07,0.37l1.07,2.67c0.09-0.25,0.17-0.5,0.25-0.75L43.54,18.99z" opacity=".07"/><linearGradient id="JGiUH3KNs0KBpIkQteg8Yb" x1="11.99" x2="43.256" y1="2.539" y2="33.805" gradientUnits="userSpaceOnUse"><stop offset="0" stop-color="#f44f5a"/><stop offset=".443" stop-color="#ee3d4a"/><stop offset="1" stop-color="#e52030"/></linearGradient><path fill="url(#JGiUH3KNs0KBpIkQteg8Yb)" d="M10.75,17.75l6.629-11.269c0.501-0.852,1.549-1.21,2.467-0.843l0.193,0.077	c0.42,0.168,0.9,0.033,1.171-0.328l0.618-0.824c0.652-0.869,1.878-1.059,2.762-0.427l4.991,3.565C29.844,7.889,30,8.192,30,8.515V9	c0,0.552,0.448,1,1,1h3.016c0.474,0,0.933,0.168,1.294,0.475l6.984,5.926C42.742,16.781,43,17.339,43,17.926v0.881	c0,0.127,0.024,0.253,0.072,0.371l1.4,3.499c0.316,0.791,0.097,1.696-0.547,2.254L30,37L10.75,17.75z"/><path d="M24.972,8.772c0.512,0,1.024,0.195,1.414,0.586l12.089,12.089c0.781,0.781,0.781,2.047,0,2.828L27.75,35L12.833,20.083 L23.558,9.358C23.948,8.967,24.46,8.772,24.972,8.772 M24.972,7.772c-0.801,0-1.555,0.312-2.121,0.879L12.126,19.376l-0.707,0.707 l0.707,0.707l14.917,14.917l0.707,0.707l0.707-0.707l10.725-10.725c0.567-0.567,0.879-1.32,0.879-2.121 c0-0.801-0.312-1.555-0.879-2.121L27.093,8.651C26.527,8.084,25.773,7.772,24.972,7.772L24.972,7.772z" opacity=".05"/><path d="M24.972,8.772c0.512,0,1.024,0.195,1.414,0.586l12.089,12.089c0.781,0.781,0.781,2.047,0,2.828L27.75,35L12.833,20.083 L23.558,9.358C23.948,8.967,24.46,8.772,24.972,8.772 M24.972,8.272c-0.668,0-1.296,0.26-1.768,0.732L12.479,19.729l-0.354,0.354 l0.354,0.354l14.917,14.917l0.354,0.354l0.354-0.354l10.725-10.725c0.472-0.472,0.732-1.1,0.732-1.768 c0-0.668-0.26-1.296-0.732-1.768L26.74,9.004C26.267,8.532,25.64,8.272,24.972,8.272L24.972,8.272z" opacity=".07"/><linearGradient id="JGiUH3KNs0KBpIkQteg8Yc" x1="19.621" x2="46.237" y1="14.732" y2="41.348" gradientUnits="userSpaceOnUse"><stop offset="0" stop-color="#fed100"/><stop offset="1" stop-color="#e38101"/></linearGradient><path fill="url(#JGiUH3KNs0KBpIkQteg8Yc)" d="M27.75,35L12.833,20.083L23.558,9.358c0.781-0.781,2.047-0.781,2.828,0l12.089,12.089	c0.781,0.781,0.781,2.047,0,2.828L27.75,35z"/><linearGradient id="JGiUH3KNs0KBpIkQteg8Yd" x1="12.848" x2="39.612" y1="12.799" y2="39.562" gradientUnits="userSpaceOnUse"><stop offset="0" stop-color="#21ad64"/><stop offset="1" stop-color="#088242"/></linearGradient><path fill="url(#JGiUH3KNs0KBpIkQteg8Yd)" d="M33.2,28c0,1.25,1.41,2.68,1.1,3.83c-0.32,1.2-2.26,1.72-2.87,2.77	c-0.61,1.06-0.1,3-0.96,3.86c-0.323,0.323-0.94,0.54-1.588,0.685c-1.319,0.295-2.698-0.131-3.654-1.087L9.94,22.77	c-0.954-0.954-1.38-2.33-1.088-3.647C8.996,18.475,9.21,17.86,9.53,17.54c0.87-0.87,2.81-0.36,3.87-0.97	c1.05-0.61,1.57-2.55,2.77-2.87c1.15-0.31,2.58,1.1,3.83,1.1s2.68-1.41,3.83-1.1c1.2,0.32,1.72,2.26,2.77,2.87	c1.06,0.61,3,0.1,3.86,0.96c0.87,0.87,0.36,2.81,0.97,3.87c0.61,1.05,2.55,1.57,2.87,2.77C34.61,25.32,33.2,26.75,33.2,28z"/><path d="M17,16c-1.15,0-2.27,0.13-3.34,0.37c-0.64,0.15-1.26,0.34-1.86,0.56c-0.94,0.35-1.84,0.79-2.68,1.31 c-0.1,0.23-0.17,0.49-0.24,0.75c-0.01,0.04-0.02,0.09-0.03,0.13c-0.04,0.18-0.07,0.37-0.08,0.56C11.08,17.99,13.93,17,17,17 c7.73,0,14,6.27,14,14c0,3.07-0.99,5.92-2.68,8.23c0.19-0.01,0.38-0.04,0.56-0.08c0.04-0.01,0.09-0.02,0.13-0.03 c0.27-0.07,0.52-0.14,0.75-0.23c0.52-0.84,0.96-1.74,1.31-2.69c0.22-0.6,0.41-1.22,0.56-1.86C31.87,33.27,32,32.15,32,31 C32,22.73,25.27,16,17,16z M17,26c-1.08,0-2.08,0.34-2.9,0.93l0.36,0.36l0.36,0.36C15.45,27.24,16.2,27,17,27c2.21,0,4,1.79,4,4 c0,0.8-0.24,1.55-0.65,2.18l0.36,0.36l0.36,0.36C21.66,33.08,22,32.08,22,31C22,28.24,19.76,26,17,26z M17,26 c-1.08,0-2.08,0.34-2.9,0.93l0.36,0.36l0.36,0.36C15.45,27.24,16.2,27,17,27c2.21,0,4,1.79,4,4c0,0.8-0.24,1.55-0.65,2.18 l0.36,0.36l0.36,0.36C21.66,33.08,22,32.08,22,31C22,28.24,19.76,26,17,26z M17,26c-1.08,0-2.08,0.34-2.9,0.93l0.36,0.36l0.36,0.36 C15.45,27.24,16.2,27,17,27c2.21,0,4,1.79,4,4c0,0.8-0.24,1.55-0.65,2.18l0.36,0.36l0.36,0.36C21.66,33.08,22,32.08,22,31 C22,28.24,19.76,26,17,26z" opacity=".05"/><path d="M17,16.5c-3.01,0-5.8,0.92-8.12,2.49c-0.01,0.04-0.02,0.09-0.03,0.13c-0.04,0.18-0.07,0.37-0.08,0.56 C11.08,17.99,13.93,17,17,17c7.73,0,14,6.27,14,14c0,3.07-0.99,5.92-2.68,8.23c0.19-0.01,0.38-0.04,0.56-0.08 c0.04-0.01,0.09-0.02,0.13-0.03c1.57-2.32,2.49-5.11,2.49-8.12C31.5,23,25,16.5,17,16.5z M17,26c-1.08,0-2.08,0.34-2.9,0.93 l0.36,0.36c0.72-0.5,1.6-0.79,2.54-0.79c2.48,0,4.5,2.02,4.5,4.5c0,0.94-0.29,1.82-0.79,2.54l0.36,0.36C21.66,33.08,22,32.08,22,31 C22,28.24,19.76,26,17,26z M17,26c-1.08,0-2.08,0.34-2.9,0.93l0.36,0.36c0.72-0.5,1.6-0.79,2.54-0.79c2.48,0,4.5,2.02,4.5,4.5 c0,0.94-0.29,1.82-0.79,2.54l0.36,0.36C21.66,33.08,22,32.08,22,31C22,28.24,19.76,26,17,26z M17,26c-1.08,0-2.08,0.34-2.9,0.93 l0.36,0.36c0.72-0.5,1.6-0.79,2.54-0.79c2.48,0,4.5,2.02,4.5,4.5c0,0.94-0.29,1.82-0.79,2.54l0.36,0.36C21.66,33.08,22,32.08,22,31 C22,28.24,19.76,26,17,26z" opacity=".07"/><linearGradient id="JGiUH3KNs0KBpIkQteg8Ye" x1=".265" x2="31.531" y1="14.265" y2="45.531" gradientUnits="userSpaceOnUse"><stop offset="0" stop-color="#eba84b"/><stop offset=".255" stop-color="#e8a044"/><stop offset=".641" stop-color="#e18b30"/><stop offset="1" stop-color="#d97218"/></linearGradient><path fill="url(#JGiUH3KNs0KBpIkQteg8Ye)" d="M17,45C9.268,45,3,38.732,3,31s6.268-14,14-14s14,6.268,14,14S24.732,45,17,45z M22,31	c0-2.761-2.239-5-5-5s-5,2.239-5,5s2.239,5,5,5S22,33.761,22,31z"/><linearGradient id="JGiUH3KNs0KBpIkQteg8Yf" x1="9.077" x2="41.934" y1="22.452" y2="55.309" gradientUnits="userSpaceOnUse"><stop offset="0" stop-color="#f5b967"/><stop offset="1" stop-color="#eba84b"/></linearGradient><path fill="url(#JGiUH3KNs0KBpIkQteg8Yf)" d="M6,32c-0.552,0-1-0.448-1-1s0.448-1,1-1s1,0.448,1,1S6.552,32,6,32z M11,27	c0-0.552-0.448-1-1-1s-1,0.448-1,1s0.448,1,1,1S11,27.552,11,27z M14,21c0-0.552-0.448-1-1-1s-1,0.448-1,1s0.448,1,1,1	S14,21.552,14,21z M20,23c0-0.552-0.448-1-1-1s-1,0.448-1,1s0.448,1,1,1S20,23.552,20,23z M27,24c0-0.552-0.448-1-1-1s-1,0.448-1,1	s0.448,1,1,1S27,24.552,27,24z M26,30c0-0.552-0.448-1-1-1s-1,0.448-1,1s0.448,1,1,1S26,30.552,26,30z M28,36c0-0.552-0.448-1-1-1	s-1,0.448-1,1s0.448,1,1,1S28,36.552,28,36z M21,40c0-0.552-0.448-1-1-1s-1,0.448-1,1s0.448,1,1,1S21,40.552,21,40z M15,41	c0-0.552-0.448-1-1-1s-1,0.448-1,1s0.448,1,1,1S15,41.552,15,41z M10,37.75c0-0.552-0.448-1-1-1s-1,0.448-1,1s0.448,1,1,1	S10,38.302,10,37.75z"/></svg>