<svg xmlns="http://www.w3.org/2000/svg" id="Layer_1" x="0" y="0" version="1.1" viewBox="0 0 48 48" xml:space="preserve"><linearGradient id="SVGID_1_" x1="6.1" x2="11.934" y1="36.5" y2="36.5" gradientUnits="userSpaceOnUse"><stop offset="0" stop-color="#5059c9"/><stop offset=".999" stop-color="#4750b3"/></linearGradient><path fill="url(#SVGID_1_)" d="M7.4,38.8l-1.2-2c-0.1-0.2-0.1-0.4,0-0.5l1.2-2C7.5,34.1,7.6,34,7.8,34h2.4c0.2,0,0.3,0.1,0.4,0.2l1.2,2	c0.1,0.2,0.1,0.4,0,0.5l-1.2,2c-0.1,0.2-0.3,0.2-0.4,0.2H7.8C7.6,39,7.5,38.9,7.4,38.8z"/><path fill="#0365b6" d="M10.6,23.8l-1.5-2.5c-0.1-0.2-0.1-0.3,0-0.5l1.5-2.5c0.1-0.2,0.3-0.2,0.4-0.2H14c0.2,0,0.3,0.1,0.4,0.2	l1.5,2.5c0.1,0.2,0.1,0.3,0,0.5l-1.5,2.5C14.3,23.9,14.2,24,14,24h-2.9C10.9,24,10.7,23.9,10.6,23.8z"/><path fill="#0365b6" d="M21.6,41.8l-1.5-2.5c-0.1-0.2-0.1-0.3,0-0.5l1.5-2.5c0.1-0.2,0.3-0.2,0.4-0.2H25c0.2,0,0.3,0.1,0.4,0.2	l1.5,2.5c0.1,0.2,0.1,0.3,0,0.5l-1.5,2.5C25.3,41.9,25.2,42,25,42h-2.9C21.9,42,21.7,41.9,21.6,41.8z"/><path fill="#0365b6" d="M28.4,22.7l-2.2-4c-0.1-0.2-0.1-0.3,0-0.5l2.2-4c0.1-0.2,0.3-0.3,0.4-0.3h4.4c0.2,0,0.3,0.1,0.4,0.3l2.2,4	c0.1,0.2,0.1,0.3,0,0.5l-2.2,4c-0.1,0.2-0.3,0.3-0.4,0.3h-4.4C28.6,23,28.5,22.9,28.4,22.7z"/><linearGradient id="SVGID_2_" x1="23.107" x2="27.927" y1="30" y2="30" gradientUnits="userSpaceOnUse"><stop offset="0" stop-color="#5059c9"/><stop offset=".999" stop-color="#4750b3"/></linearGradient><path fill="url(#SVGID_2_)" d="M24.1,31.8l-0.9-1.5c-0.1-0.2-0.1-0.4,0-0.5l0.9-1.5c0.1-0.1,0.3-0.2,0.4-0.2h1.9c0.2,0,0.3,0.1,0.4,0.2	l0.9,1.5c0.1,0.2,0.1,0.4,0,0.5l-0.9,1.5c-0.1,0.1-0.3,0.2-0.4,0.2h-1.9C24.4,32,24.2,31.9,24.1,31.8z"/><linearGradient id="SVGID_3_" x1="18.1" x2="23.934" y1="13.5" y2="13.5" gradientUnits="userSpaceOnUse"><stop offset="0" stop-color="#5059c9"/><stop offset=".999" stop-color="#4750b3"/></linearGradient><path fill="url(#SVGID_3_)" d="M19.4,15.8l-1.2-2c-0.1-0.2-0.1-0.4,0-0.5l1.2-2c0.1-0.2,0.3-0.2,0.4-0.2h2.4c0.2,0,0.3,0.1,0.4,0.2l1.2,2	c0.1,0.2,0.1,0.4,0,0.5l-1.2,2c-0.1,0.2-0.3,0.2-0.4,0.2h-2.4C19.6,16,19.5,15.9,19.4,15.8z"/><linearGradient id="SVGID_4_" x1="36.1" x2="41.934" y1="26.5" y2="26.5" gradientUnits="userSpaceOnUse"><stop offset="0" stop-color="#5059c9"/><stop offset=".999" stop-color="#4750b3"/></linearGradient><path fill="url(#SVGID_4_)" d="M37.4,28.8l-1.2-2c-0.1-0.2-0.1-0.4,0-0.5l1.2-2c0.1-0.2,0.3-0.2,0.4-0.2h2.4c0.2,0,0.3,0.1,0.4,0.2l1.2,2	c0.1,0.2,0.1,0.4,0,0.5l-1.2,2c-0.1,0.2-0.3,0.2-0.4,0.2h-2.4C37.6,29,37.5,28.9,37.4,28.8z"/><linearGradient id="SVGID_5_" x1="31.103" x2="35" y1="32.712" y2="32.712" gradientUnits="userSpaceOnUse"><stop offset="0" stop-color="#5059c9"/><stop offset=".999" stop-color="#4750b3"/></linearGradient><path fill="url(#SVGID_5_)" d="M31.8,34l-0.5-0.9c-0.2-0.3-0.2-0.6,0-0.9l0.5-0.9c0.2-0.3,0.4-0.4,0.7-0.4h1.1c0.3,0,0.6,0.2,0.7,0.4l0.5,0.9	c0.2,0.3,0.2,0.6,0,0.9L34.4,34c-0.2,0.3-0.4,0.4-0.7,0.4h-1.1C32.2,34.4,31.9,34.3,31.8,34z"/><linearGradient id="SVGID_6_" x1="9.103" x2="12.567" y1="13.5" y2="13.5" gradientUnits="userSpaceOnUse"><stop offset="0" stop-color="#5059c9"/><stop offset=".999" stop-color="#4750b3"/></linearGradient><path fill="url(#SVGID_6_)" d="M9.7,14.7l-0.5-0.9c-0.1-0.2-0.1-0.4,0-0.6l0.5-0.9C9.8,12.1,10,12,10.3,12h1.2c0.2,0,0.4,0.1,0.5,0.3l0.5,0.9	c0.1,0.2,0.1,0.4,0,0.6l-0.5,0.9c-0.1,0.2-0.3,0.3-0.5,0.3h-1.2C10,15,9.8,14.9,9.7,14.7z"/><path d="M10.7,34.2c-0.1-0.2-0.3-0.2-0.4-0.2H8.6l1.8,3c0.2,0.3,0.5,0.6,0.8,0.8l0.6-1c0.1-0.2,0.1-0.4,0-0.5	L10.7,34.2z" opacity=".05"/><path d="M10.7,34.2c-0.1-0.2-0.3-0.2-0.4-0.2h-1l1.6,2.8c0.2,0.3,0.4,0.5,0.7,0.6l0.4-0.6c0.1-0.2,0.1-0.4,0-0.5	L10.7,34.2z" opacity=".07"/><path fill="#50e6ff" d="M11.3,36.5l-2.9-5c-0.2-0.3-0.2-0.7,0-1l2.9-5c0.2-0.3,0.5-0.5,0.9-0.5h5.8c0.4,0,0.7,0.2,0.9,0.5l2.9,5	c0.2,0.3,0.2,0.7,0,1l-2.9,5c-0.2,0.3-0.5,0.5-0.9,0.5h-5.8C11.8,37,11.4,36.8,11.3,36.5z"/><path d="M33.7,14.3c-0.1-0.2-0.3-0.3-0.4-0.3h-4l1.6,3c0.4,0.6,1,1,1.8,1h3.1L33.7,14.3z" opacity=".05"/><path d="M33.7,14.3c-0.1-0.2-0.3-0.3-0.4-0.3h-3.4l1.5,2.7c0.3,0.5,0.8,0.8,1.3,0.8h2.8L33.7,14.3z" opacity=".07"/><path fill="#50e6ff" d="M31.7,16.5l-2.5-4.5c-0.2-0.3-0.2-0.7,0-1l2.5-4.5C31.9,6.2,32.2,6,32.6,6h5.8c0.4,0,0.7,0.2,0.9,0.5l2.5,4.5	c0.2,0.3,0.2,0.7,0,1l-2.5,4.5c-0.2,0.3-0.5,0.5-0.9,0.5h-5.8C32.2,17,31.9,16.8,31.7,16.5z"/></svg>