<svg xmlns="http://www.w3.org/2000/svg" viewBox="0 0 48 48"><path fill="#35c1f1" d="M25.527,36.285l8.446-8.447c-1.507-2.861-6.514-3.806-9.973-3.806s-8.161,1.251-9.667,4.112	l8.141,8.141C23.316,37.128,24.684,37.128,25.527,36.285z"/><path fill="#199be2" d="M24,24.411c3.723,0,7.106,1.42,9.667,3.732l5.511-5.511C36.088,18.38,29.66,16.032,24,16.032	S11.912,18.38,8.822,22.633l5.511,5.511C16.894,25.831,20.277,24.411,24,24.411z"/><path fill="#0078d4" d="M24,16.93c5.815,0,11.114,2.161,15.178,5.703l5.549-5.549C40.144,11.404,31.866,8.032,24,8.032	S8.061,11.609,3.478,17.289l5.344,5.344C12.886,19.091,18.185,16.93,24,16.93z"/><path d="M24,27c-2.943,0-5.552,1.426-7.195,3.616l5.669,5.669c0.842,0.843,2.21,0.843,3.053,0l5.668-5.669	C29.552,28.426,26.943,27,24,27z" opacity=".05"/><path d="M24,27.5c-2.805,0-5.289,1.372-6.838,3.473l5.312,5.312c0.842,0.843,2.21,0.843,3.053,0l5.311-5.312	C29.289,28.872,26.805,27.5,24,27.5z" opacity=".07"/><radialGradient id="jYOnipyYFWenaqSkwcLFJa" cx="24" cy="36" r="8" gradientUnits="userSpaceOnUse"><stop offset="0" stop-color="#fafafb"/><stop offset="1" stop-color="#c8cdd1"/></radialGradient><circle cx="24" cy="36" r="8" fill="url(#jYOnipyYFWenaqSkwcLFJa)"/><path fill="#0d62ab" d="M3.857,17.669C9.194,12.865,16.254,9.94,24,9.94c7.745,0,14.806,2.925,20.143,7.728l3.223-3.223	c0.839-0.839,0.846-2.2,0.016-3.049C41.443,5.317,33.169,1.532,24,1.532c-9.169,0-17.443,3.785-23.383,9.864	c-0.829,0.849-0.823,2.21,0.016,3.049L3.857,17.669z"/></svg>