<svg xmlns="http://www.w3.org/2000/svg" data-name="Слой 1" viewBox="0 0 48 48"><defs><linearGradient id="LU8kT~oniCIz17nIwT2RCa" x1="15.201" x2="35.693" y1="-.174" y2="56.128" gradientUnits="userSpaceOnUse"><stop offset="0" stop-color="#4caf50"/><stop offset=".489" stop-color="#4aaf50"/><stop offset=".665" stop-color="#43ad50"/><stop offset=".79" stop-color="#38aa50"/><stop offset=".892" stop-color="#27a550"/><stop offset=".978" stop-color="#11a050"/><stop offset="1" stop-color="#0a9e50"/></linearGradient></defs><rect width="36" height="36" x="6" y="6" fill="url(#LU8kT~oniCIz17nIwT2RCa)" rx="2"/><path fill="#fff" d="M36.84558,23.678l-2.94543-2.5437a.54129.54129,0,0,0-.90015.322V23H6v2H33v1.5437a.54126.54126,0,0,0,.90015.322L36.84558,24.322A.413.413,0,0,0,36.84558,23.678Z"/><path d="M37.5,22.92l-2.95-2.54A1.51756,1.51756,0,0,0,33.53,20,1.497,1.497,0,0,0,32,21.46V22H6v1H33V21.46a.49533.49533,0,0,1,.53-.46.577.577,0,0,1,.37.13l2.95,2.55a.41634.41634,0,0,1,0,.64L33.9,26.87a.57736.57736,0,0,1-.37.13.49533.49533,0,0,1-.53-.46V25H6v1H32v.54A1.49705,1.49705,0,0,0,33.53,28a1.51756,1.51756,0,0,0,1.02-.38l2.95-2.54a1.41638,1.41638,0,0,0,0-2.16Z" opacity=".05"/><path d="M37.17,23.3l-2.94-2.54a1.04579,1.04579,0,0,0-.7-.26.98368.98368,0,0,0-1.03.96V22.5H6V23H33V21.46a.49533.49533,0,0,1,.53-.46.577.577,0,0,1,.37.13l2.95,2.55a.41634.41634,0,0,1,0,.64L33.9,26.87a.57736.57736,0,0,1-.37.13.49533.49533,0,0,1-.53-.46V25H6v.5H32.5v1.04a.98373.98373,0,0,0,1.03.96,1.04608,1.04608,0,0,0,.7-.26l2.94-2.54a.90741.90741,0,0,0,0-1.4Z" opacity=".07"/></svg>