<svg xmlns="http://www.w3.org/2000/svg" viewBox="0 0 48 48"><linearGradient id="XaRRmROjVXwkmdi2gikHca" x1="18.052" x2="24.642" y1="4.159" y2="22.265" gradientUnits="userSpaceOnUse"><stop offset="0" stop-color="#a8e2f7"/><stop offset="1" stop-color="#47c1ff"/></linearGradient><polygon fill="url(#XaRRmROjVXwkmdi2gikHca)" points="37,26 37,15 24,4 11,15 11,26"/><linearGradient id="XaRRmROjVXwkmdi2gikHcb" x1="21.766" x2="29.228" y1="11.363" y2="31.863" gradientUnits="userSpaceOnUse"><stop offset="0" stop-color="#a8e2f7"/><stop offset="1" stop-color="#47c1ff"/></linearGradient><polygon fill="url(#XaRRmROjVXwkmdi2gikHcb)" points="29,26 29,9 24,4 19,9 19,26"/><linearGradient id="XaRRmROjVXwkmdi2gikHcc" x1="19.046" x2="29.042" y1="20.065" y2="47.531" gradientUnits="userSpaceOnUse"><stop offset="0" stop-color="#2aa4f4"/><stop offset="1" stop-color="#007ad9"/></linearGradient><path fill="url(#XaRRmROjVXwkmdi2gikHcc)" d="M11,26v15c0,1.105,0.895,2,2,2h22c1.105,0,2-0.895,2-2V26H11z"/><linearGradient id="XaRRmROjVXwkmdi2gikHcd" x1="24" x2="24" y1="-7.251" y2="22.631" gradientUnits="userSpaceOnUse"><stop offset="0" stop-color="#2aa4f4"/><stop offset="1" stop-color="#007ad9"/></linearGradient><path fill="url(#XaRRmROjVXwkmdi2gikHcd)" d="M39.128,14.923L24.979,2.371C24.7,2.124,24.35,2,24,2s-0.7,0.124-0.979,0.371L8.872,14.923	c-0.31,0.276-0.331,0.753-0.047,1.056l1.208,1.288c0.272,0.291,0.726,0.313,1.026,0.049L24,6.007l12.942,11.31	c0.299,0.263,0.754,0.241,1.026-0.049l1.208-1.288C39.459,15.675,39.438,15.199,39.128,14.923z"/><linearGradient id="XaRRmROjVXwkmdi2gikHce" x1="24" x2="24" y1="14.94" y2="28.648" gradientUnits="userSpaceOnUse"><stop offset="0" stop-color="#0176d0"/><stop offset="1" stop-color="#16538c"/></linearGradient><path fill="url(#XaRRmROjVXwkmdi2gikHce)" d="M38,27H10c-0.552,0-1-0.448-1-1v0c0-0.552,0.448-1,1-1h28c0.552,0,1,0.448,1,1v0	C39,26.552,38.552,27,38,27z"/><path d="M24.033,30c1.148,0,2.039,0.267,2.671,0.802c0.632,0.535,0.948,1.288,0.948,2.259c0,0.972-0.33,1.767-0.99,2.385 c-0.66,0.618-1.553,0.927-2.678,0.927h-1.332v3.172c0,0.251-0.203,0.455-0.455,0.455h-0.744C21.204,40,21,39.797,21,39.545v-9.091 C21,30.203,21.204,30,21.455,30H24.033 M22.653,35.021h1.074c0.711,0,1.253-0.165,1.625-0.495s0.558-0.795,0.558-1.395 c0-1.176-0.683-1.764-2.05-1.764h-1.206V35.021 M24.033,29h-2.579C20.653,29,20,29.653,20,30.455v9.091 C20,40.347,20.653,41,21.455,41h0.744c0.802,0,1.455-0.653,1.455-1.455v-2.172h0.332c1.382,0,2.513-0.403,3.361-1.198 c0.867-0.812,1.307-1.86,1.307-3.115c0-1.275-0.438-2.292-1.303-3.023C26.535,29.349,25.419,29,24.033,29L24.033,29z M23.653,32.367h0.206c1.05,0,1.05,0.371,1.05,0.764c0,0.45-0.161,0.593-0.222,0.647c-0.226,0.201-0.648,0.243-0.961,0.243h-0.074 V32.367L23.653,32.367z" opacity=".05"/><path d="M24.033,30c1.148,0,2.039,0.267,2.671,0.802c0.632,0.535,0.948,1.288,0.948,2.259c0,0.972-0.33,1.767-0.99,2.385 c-0.66,0.618-1.553,0.927-2.678,0.927h-1.332v3.172c0,0.251-0.203,0.455-0.455,0.455h-0.744C21.204,40,21,39.797,21,39.545v-9.091 C21,30.203,21.204,30,21.455,30H24.033 M22.653,35.021h1.074c0.711,0,1.253-0.165,1.625-0.495s0.558-0.795,0.558-1.395 c0-1.176-0.683-1.764-2.05-1.764h-1.206V35.021 M24.033,29.5h-2.579c-0.526,0-0.955,0.428-0.955,0.955v9.091 c0,0.526,0.428,0.955,0.955,0.955h0.744c0.526,0,0.955-0.428,0.955-0.955v-2.672h0.832c1.251,0,2.267-0.357,3.02-1.063 c0.762-0.714,1.148-1.639,1.148-2.75c0-1.121-0.379-2.01-1.126-2.641C26.305,29.81,25.298,29.5,24.033,29.5L24.033,29.5z M23.153,31.867h0.706c1.366,0,1.55,0.639,1.55,1.264c0,0.454-0.128,0.788-0.39,1.021c-0.276,0.245-0.711,0.369-1.293,0.369 h-0.574V31.867L23.153,31.867z" opacity=".07"/><path fill="#fff" d="M22.653,36.374v3.172c0,0.251-0.204,0.455-0.455,0.455h-0.744C21.204,40,21,39.796,21,39.545 v-9.091C21,30.204,21.204,30,21.455,30h2.579c1.148,0,2.039,0.267,2.671,0.802c0.632,0.535,0.948,1.288,0.948,2.259 s-0.33,1.767-0.99,2.385s-1.553,0.927-2.678,0.927H22.653z M22.653,31.367v3.654h1.074c0.711,0,1.253-0.165,1.625-0.495 c0.372-0.33,0.558-0.795,0.558-1.395c0-1.176-0.683-1.764-2.05-1.764H22.653z"/></svg>