<svg xmlns="http://www.w3.org/2000/svg" viewBox="0 0 48 48"><path fill="#fad500" d="M42,8H6c-1.105,0-2,0.895-2,2v28c0,1.105,0.895,2,2,2h36c1.105,0,2-0.895,2-2V10	C44,8.895,43.105,8,42,8z"/><path fill="#e3a600" d="M42,8h-1.979v32H42c1.105,0,2-0.895,2-2V10C44,8.895,43.105,8,42,8z"/><linearGradient id="N2bgizWCx1h0ubCJcSedDa" x1="24.011" x2="24.075" y1="7.486" y2="-3.429" gradientUnits="userSpaceOnUse"><stop offset="0" stop-color="#92a3b0"/><stop offset=".015" stop-color="#a3b5c4"/><stop offset=".032" stop-color="#aec2d1"/><stop offset=".046" stop-color="#b2c6d6"/></linearGradient><path fill="url(#N2bgizWCx1h0ubCJcSedDa)" d="M11.919,10.391c-0.36,0-0.707-0.194-0.886-0.535c-0.257-0.489-0.069-1.094,0.42-1.351	l12.082-6.35c0.291-0.153,0.64-0.153,0.931,0l12.081,6.35c0.489,0.257,0.677,0.862,0.42,1.351c-0.257,0.489-0.86,0.678-1.351,0.42	L24,4.171l-11.616,6.105C12.235,10.354,12.076,10.391,11.919,10.391z"/><path fill="#edbe00" d="M24.001,24l19.69-15.057C43.338,8.378,42.715,8,42,8H6C5.285,8,4.662,8.378,4.309,8.942L24.001,24z"/><path fill="#edbe00" d="M24.001,24l19.69,15.057C43.338,39.622,42.715,40,42,40H6c-0.715,0-1.338-0.378-1.691-0.942	L24.001,24z"/><linearGradient id="N2bgizWCx1h0ubCJcSedDb" x1="21.264" x2="26.736" y1="653.515" y2="622.485" gradientTransform="matrix(1 0 0 -1 0 662)" gradientUnits="userSpaceOnUse"><stop offset="0" stop-color="#21ad64"/><stop offset="1" stop-color="#088242"/></linearGradient><rect width="34" height="26" x="7" y="11" fill="url(#N2bgizWCx1h0ubCJcSedDb)"/><path d="M41,11H7v26h34V11z M40,36H8V12h32V36z" opacity=".05"/><path d="M7,11v26h34V11H7z M40.5,36.5h-33v-25h33V36.5z" opacity=".07"/><path fill="#fff" d="M31.352,24.435c-0.378-0.216-1.002-0.353-1.723-0.437c0.723-0.085,1.345-0.221,1.723-0.437 c1.576-0.908,2.116-2.906,1.206-4.474c-0.91-1.566-2.924-2.103-4.502-1.193c-0.378,0.216-0.807,0.682-1.242,1.262 c0.288-0.666,0.481-1.272,0.481-1.705c0-1.808-1.473-3.27-3.296-3.27c-1.823,0-3.294,1.461-3.294,3.27 c0,0.435,0.193,1.042,0.483,1.71c-0.435-0.581-0.867-1.051-1.245-1.267c-1.578-0.91-3.594-0.373-4.502,1.193 c-0.908,1.568-0.368,3.566,1.208,4.474c0.378,0.216,1,0.352,1.723,0.437c-0.723,0.085-1.345,0.221-1.723,0.437 c-1.576,0.905-2.116,2.908-1.208,4.469c0.908,1.568,2.924,2.106,4.502,1.201c0.378-0.218,0.808-0.686,1.244-1.267 c-0.288,0.666-0.481,1.27-0.481,1.705c0,1.813,1.471,3.275,3.294,3.275s3.296-1.461,3.296-3.275c0-0.434-0.191-1.036-0.479-1.699 c0.434,0.578,0.862,1.044,1.24,1.26c1.578,0.905,3.592,0.367,4.502-1.201C33.468,27.343,32.928,25.34,31.352,24.435z M23.996,24.003L23.998,24l0,0C23.999,24,23.996,24.003,23.996,24.003z"/><linearGradient id="N2bgizWCx1h0ubCJcSedDc" x1="12.593" x2="45.91" y1="649.439" y2="616.122" gradientTransform="matrix(1 0 0 -1 0 662)" gradientUnits="userSpaceOnUse"><stop offset="0" stop-color="#fed100"/><stop offset="1" stop-color="#e36001"/></linearGradient><path fill="url(#N2bgizWCx1h0ubCJcSedDc)" d="M27.272,23.969c0,1.807-1.465,3.271-3.273,3.271c-1.808,0-3.273-1.465-3.273-3.271 c0-1.812,1.465-3.275,3.273-3.275C25.808,20.694,27.272,22.159,27.272,23.969"/></svg>