<svg xmlns="http://www.w3.org/2000/svg" viewBox="0 0 48 48"><linearGradient id="1zUM95tZK0w_~XGN4LzF8a" x1="12.742" x2="35.022" y1="10.579" y2="38.319" gradientUnits="userSpaceOnUse"><stop offset="0" stop-color="#ffd869"/><stop offset="1" stop-color="#fec52b"/></linearGradient><path fill="url(#1zUM95tZK0w_~XGN4LzF8a)" d="M10.5,11l2.83,30.187C13.426,42.214,14.289,43,15.321,43h17.357	c1.032,0,1.895-0.786,1.991-1.813L37.5,11H10.5z"/><linearGradient id="1zUM95tZK0w_~XGN4LzF8b" x1="24" x2="24" y1="9.07" y2="11.008" gradientUnits="userSpaceOnUse"><stop offset="0" stop-color="#a34f27"/><stop offset=".587" stop-color="#8b3817"/><stop offset="1" stop-color="#802d10"/></linearGradient><path fill="url(#1zUM95tZK0w_~XGN4LzF8b)" d="M38,9H10c-0.552,0-1,0.448-1,1v1h30v-1C39,9.448,38.552,9,38,9z"/><linearGradient id="1zUM95tZK0w_~XGN4LzF8c" x1="24" x2="24" y1="4.992" y2="9.028" gradientUnits="userSpaceOnUse"><stop offset="0" stop-color="#a34f27"/><stop offset=".374" stop-color="#a04c25"/><stop offset=".668" stop-color="#96421e"/><stop offset=".933" stop-color="#853214"/><stop offset="1" stop-color="#802d10"/></linearGradient><path fill="url(#1zUM95tZK0w_~XGN4LzF8c)" d="M35,5H13c-1.105,0-2,0.895-2,2v2h26V7C37,5.895,36.105,5,35,5z"/><linearGradient id="1zUM95tZK0w_~XGN4LzF8d" x1="24" x2="24" y1="-29.109" y2="41.417" gradientUnits="userSpaceOnUse"><stop offset="0" stop-color="#fed100"/><stop offset="1" stop-color="#e36001"/></linearGradient><path fill="url(#1zUM95tZK0w_~XGN4LzF8d)" d="M36.791,18H11.209c-0.294,0-0.525,0.253-0.498,0.546l1.581,17	C12.316,35.803,12.532,36,12.79,36h22.42c0.258,0,0.474-0.197,0.498-0.454l1.581-17C37.316,18.253,37.085,18,36.791,18z"/><linearGradient id="1zUM95tZK0w_~XGN4LzF8e" x1="19.744" x2="27.962" y1="22.744" y2="30.962" gradientUnits="userSpaceOnUse"><stop offset="0" stop-color="#fede00"/><stop offset="1" stop-color="#ffd000"/></linearGradient><circle cx="24" cy="27" r="6" fill="url(#1zUM95tZK0w_~XGN4LzF8e)"/></svg>