<svg xmlns="http://www.w3.org/2000/svg" id="Layer_1" x="0" y="0" version="1.1" viewBox="0 0 48 48" xml:space="preserve"><linearGradient id="SVGID_1_" x1="6.722" x2="37.36" y1="-1.282" y2="43.549" gradientUnits="userSpaceOnUse"><stop offset="0" stop-color="#ffa1a6"/><stop offset="1" stop-color="#f24472"/></linearGradient><path fill="url(#SVGID_1_)" d="M6,39c0,1.1,0.9,2,2,2h8.6l5.7,5.7c0.4,0.4,0.9,0.4,1.3,0l5.7-5.7H40c1.1,0,2-0.9,2-2V23h-0.4	c-1.6,0-2.9,3.1-4.2,3c-1.6-0.1-2.3-1.5-2.3-3.2v-5.7c0-1.6,0.7-3.1,2.3-3.2c1.3-0.1,2.7,3,4.2,3H42V9c0-1.1-0.9-2-2-2h-9.8	c-0.5,0-1,0.2-1.4,0.6l-5.1,5.1c-0.4,0.4-0.9,0.4-1.3,0l-5.1-5.1C16.8,7.2,16.3,7,15.8,7H8C6.9,7,6,7.9,6,9V39z"/></svg>