<svg xmlns="http://www.w3.org/2000/svg" viewBox="0 0 48 48"><path fill="#eba600" d="M25,5v38c0,0.6-0.4,1-1,1s-1-0.4-1-1V5c0-0.6,0.4-1,1-1S25,4.4,25,5z"/><path fill="#eba600" d="M44,24c0,0.6-0.4,1-1,1H5c-0.6,0-1-0.4-1-1c0-0.6,0.4-1,1-1h38C43.6,23,44,23.4,44,24z"/><path fill="#eba600" d="M38.2,38.2c-0.3,0.1-0.5,0.2-0.8,0.2c-0.3,0-0.5-0.1-0.7-0.3l-4.24-4.24l-3.55-3.55L25,26.4l-1-1	L23.6,25L23,24.4L22.6,24l-1-1l-3.91-3.91l-3.55-3.55l-1.42-1.42l-0.71-0.71L10.6,12l-0.7-0.7c-0.4-0.4-0.4-1,0-1.4	c0.4-0.4,1-0.4,1.4,0l0.7,0.7l1.41,1.41l0.71,0.71l1.42,1.42L23,21.6l15.2,15.2C38.6,37.2,38.6,37.8,38.2,38.2z"/><path fill="#eba600" d="M38.1,11.3L37.4,12l-1.41,1.41l-0.71,0.71l-1.42,1.42l-3.55,3.55L26.4,23l-1,1L25,24.4L24.4,25	L24,25.4l-1,1l-3.91,3.91l-3.55,3.55L11.3,38.1c-0.2,0.2-0.5,0.3-0.7,0.3c-0.3,0-0.5-0.1-0.7-0.3c-0.4-0.4-0.4-1,0-1.4l0.7-0.7	L25,21.6l7.46-7.46l1.42-1.42l0.71-0.71L36,10.6l0.7-0.7c0.4-0.4,1-0.4,1.4,0C38.5,10.3,38.5,10.9,38.1,11.3z"/><radialGradient id="ReyBdG67wH5Zuu0RrxGTAa" cx="24" cy="24" r="18" gradientUnits="userSpaceOnUse"><stop offset=".935" stop-opacity=".2"/><stop offset="1" stop-opacity="0"/></radialGradient><path fill="url(#ReyBdG67wH5Zuu0RrxGTAa)" d="M12,10.6c-0.5,0.43-0.97,0.9-1.4,1.4l1.41,1.41c0.43-0.5,0.9-0.97,1.4-1.4L12,10.6z M36,10.6	l-1.41,1.41c0.5,0.43,0.97,0.9,1.4,1.4L37.4,12C36.97,11.5,36.5,11.03,36,10.6z M41.97,23h-2c0.02,0.33,0.03,0.66,0.03,1	c0,0.34-0.01,0.67-0.03,1h2c0.02-0.33,0.03-0.67,0.03-1C42,23.67,41.99,23.33,41.97,23z M24,40c-0.34,0-0.67-0.01-1-0.03v2	c0.33,0.02,0.67,0.03,1,0.03s0.67-0.01,1-0.03v-2C24.67,39.99,24.34,40,24,40z M12.01,34.59L10.6,36c0.43,0.5,0.9,0.97,1.4,1.4	l1.41-1.41C12.91,35.56,12.44,35.09,12.01,34.59z M35.99,34.59c-0.43,0.5-0.9,0.97-1.4,1.4L36,37.4c0.5-0.43,0.97-0.9,1.4-1.4	L35.99,34.59z M24,6c-0.33,0-0.67,0.01-1,0.03v2C23.33,8.01,23.66,8,24,8s0.67,0.01,1,0.03v-2C24.67,6.01,24.33,6,24,6z M8.03,23h-2	C6.01,23.33,6,23.67,6,24c0,0.33,0.01,0.67,0.03,1h2C8.01,24.67,8,24.34,8,24C8,23.66,8.01,23.33,8.03,23z"/><radialGradient id="ReyBdG67wH5Zuu0RrxGTAb" cx="24" cy="24" r="15" gradientUnits="userSpaceOnUse"><stop offset=".867" stop-opacity="0"/><stop offset=".945" stop-opacity=".2"/></radialGradient><path fill="url(#ReyBdG67wH5Zuu0RrxGTAb)" d="M14.12,12.72c-0.5,0.43-0.97,0.9-1.4,1.4l1.42,1.42c0.42-0.51,0.89-0.98,1.4-1.4L14.12,12.72z M33.86,32.46c-0.42,0.51-0.89,0.98-1.4,1.4l1.42,1.42c0.5-0.43,0.97-0.9,1.4-1.4L33.86,32.46z M14.14,32.46l-1.42,1.42	c0.43,0.5,0.9,0.97,1.4,1.4l1.42-1.42C15.03,33.44,14.56,32.97,14.14,32.46z M9.04,23C9.01,23.33,9,23.66,9,24	c0,0.34,0.01,0.67,0.04,1h2.01C11.01,24.67,11,24.34,11,24c0-0.34,0.01-0.67,0.05-1H9.04z M24,37c-0.34,0-0.67-0.01-1-0.04v2	c0.33,0.03,0.66,0.04,1,0.04s0.67-0.01,1-0.04v-2C24.67,36.99,24.34,37,24,37z M38.96,23h-2c0.03,0.33,0.04,0.66,0.04,1	c0,0.34-0.01,0.67-0.04,1h2c0.03-0.33,0.04-0.66,0.04-1C39,23.66,38.99,23.33,38.96,23z M33.88,12.72l-1.42,1.42	c0.51,0.42,0.98,0.89,1.4,1.4l1.42-1.42C34.85,13.62,34.38,13.15,33.88,12.72z M24,9c-0.34,0-0.67,0.01-1,0.04v2.01	c0.33-0.04,0.66-0.05,1-0.05s0.67,0.01,1,0.05V9.04C24.67,9.01,24.34,9,24,9z"/><linearGradient id="ReyBdG67wH5Zuu0RrxGTAc" x1="17.13" x2="32.276" y1="5.125" y2="46.739" gradientUnits="userSpaceOnUse"><stop offset="0" stop-color="#ffcf54"/><stop offset=".261" stop-color="#fdcb4d"/><stop offset=".639" stop-color="#f7c13a"/><stop offset="1" stop-color="#f0b421"/></linearGradient><path fill="url(#ReyBdG67wH5Zuu0RrxGTAc)" d="M24,41c-9.4,0-17-7.6-17-17S14.6,7,24,7s17,7.6,17,17S33.4,41,24,41z M24,10	c-7.7,0-14,6.3-14,14s6.3,14,14,14s14-6.3,14-14S31.7,10,24,10z"/><radialGradient id="ReyBdG67wH5Zuu0RrxGTAd" cx="24" cy="24" r="8" gradientUnits="userSpaceOnUse"><stop offset=".853" stop-opacity=".2"/><stop offset="1" stop-opacity="0"/></radialGradient><path fill="url(#ReyBdG67wH5Zuu0RrxGTAd)" d="M31.94,25H26.4l3.91,3.91c-0.4,0.53-0.87,1-1.4,1.4L25,26.4v5.54C24.67,31.98,24.34,32,24,32	s-0.67-0.02-1-0.06V26.4l-3.91,3.91c-0.53-0.4-1-0.87-1.4-1.4L21.6,25h-5.54C16.02,24.67,16,24.34,16,24c0-0.34,0.02-0.67,0.06-1	h5.54l-3.91-3.91c0.4-0.53,0.87-1,1.4-1.4L23,21.6v-5.54c0.33-0.04,0.66-0.06,1-0.06s0.67,0.02,1,0.06v5.54l3.91-3.91	c0.53,0.4,1,0.87,1.4,1.4L26.4,23h5.54c0.04,0.33,0.06,0.66,0.06,1C32,24.34,31.98,24.67,31.94,25z"/><linearGradient id="ReyBdG67wH5Zuu0RrxGTAe" x1="17.131" x2="32.276" y1="5.127" y2="46.737" gradientUnits="userSpaceOnUse"><stop offset="0" stop-color="#ffcf54"/><stop offset=".261" stop-color="#fdcb4d"/><stop offset=".639" stop-color="#f7c13a"/><stop offset="1" stop-color="#f0b421"/></linearGradient><path fill="url(#ReyBdG67wH5Zuu0RrxGTAe)" d="M31,24c0,0.34-0.02,0.67-0.08,1c-0.16,1.18-0.64,2.28-1.33,3.19c-0.39,0.53-0.87,1.01-1.4,1.4	c-0.91,0.69-2.01,1.17-3.19,1.33C24.67,30.98,24.34,31,24,31s-0.67-0.02-1-0.08c-1.18-0.16-2.28-0.64-3.19-1.33	c-0.53-0.39-1.01-0.87-1.4-1.4c-0.69-0.91-1.17-2.01-1.33-3.19C17.02,24.67,17,24.34,17,24c0-0.34,0.02-0.67,0.08-1	c0.16-1.18,0.64-2.28,1.33-3.19c0.39-0.53,0.87-1.01,1.4-1.4c0.91-0.69,2.01-1.17,3.19-1.33c0.33-0.06,0.66-0.08,1-0.08	s0.67,0.02,1,0.08c1.18,0.16,2.28,0.64,3.19,1.33c0.53,0.39,1.01,0.87,1.4,1.4c0.69,0.91,1.17,2.01,1.33,3.19	C30.98,23.33,31,23.66,31,24z"/><linearGradient id="ReyBdG67wH5Zuu0RrxGTAf" x1="18.726" x2="30.647" y1="18.726" y2="30.647" gradientUnits="userSpaceOnUse"><stop offset="0" stop-color="#eba600"/><stop offset="1" stop-color="#c28200"/></linearGradient><path fill="url(#ReyBdG67wH5Zuu0RrxGTAf)" d="M29,24c0,2.75-2.25,5-5,5s-5-2.25-5-5s2.25-5,5-5S29,21.25,29,24z"/><linearGradient id="ReyBdG67wH5Zuu0RrxGTAg" x1="17.196" x2="32.197" y1="5.307" y2="46.521" gradientUnits="userSpaceOnUse"><stop offset="0" stop-color="#ffcf54"/><stop offset=".261" stop-color="#fdcb4d"/><stop offset=".639" stop-color="#f7c13a"/><stop offset="1" stop-color="#f0b421"/></linearGradient><path fill="url(#ReyBdG67wH5Zuu0RrxGTAg)" d="M31,24c0-0.34-0.02-0.67-0.08-1H26.4l3.19-3.19c-0.39-0.53-0.87-1.01-1.4-1.4L25,21.6v-4.52	C24.67,17.02,24.34,17,24,17s-0.67,0.02-1,0.08v4.52l-3.19-3.19c-0.53,0.39-1.01,0.87-1.4,1.4L21.6,23h-4.52	C17.02,23.33,17,23.66,17,24c0,0.34,0.02,0.67,0.08,1h4.52l-3.19,3.19c0.39,0.53,0.87,1.01,1.4,1.4L23,26.4v4.52	c0.33,0.06,0.66,0.08,1,0.08s0.67-0.02,1-0.08V26.4l3.19,3.19c0.53-0.39,1.01-0.87,1.4-1.4L26.4,25h4.52C30.98,24.67,31,24.34,31,24	z"/><circle cx="24" cy="24" r="3" fill="#eba600"/></svg>