<svg xmlns="http://www.w3.org/2000/svg" xmlns:xlink="http://www.w3.org/1999/xlink" data-name="Слой 1" viewBox="0 0 48 48"><defs><linearGradient id="P5nvlnCuwwpq6mc3BhgPFa" x1="10.601" x2="15.928" y1="537.994" y2="532.666" data-name="Безымянный градиент 9" gradientTransform="matrix(1 0 0 -1 0 572)" gradientUnits="userSpaceOnUse"><stop offset="0" stop-color="#f09801"/><stop offset="1" stop-color="#e36001"/></linearGradient><linearGradient id="P5nvlnCuwwpq6mc3BhgPFc" x1="8.732" x2="12.865" y1="539.862" y2="535.73" xlink:href="#P5nvlnCuwwpq6mc3BhgPFa"/><linearGradient id="P5nvlnCuwwpq6mc3BhgPFb" x1="6.5" x2="6.5" y1="538" y2="529" data-name="Безымянный градиент 8" gradientTransform="matrix(1 0 0 -1 0 572)" gradientUnits="userSpaceOnUse"><stop offset="0" stop-color="#ffda1c"/><stop offset="1" stop-color="#feb705"/></linearGradient><linearGradient id="P5nvlnCuwwpq6mc3BhgPFd" x1="15.5" x2="15.5" y1="553.151" y2="530.585" xlink:href="#P5nvlnCuwwpq6mc3BhgPFb"/></defs><path fill="#42a4ed" d="M43.55225,36.259l-2.146,2.146L33.00025,30l2.146-2.146Z"/><path fill="#0370c8" d="M41.40625,38.405l-2.146,2.146-8.406-8.405L33.00025,30Z"/><path fill="#90a4ae" d="M35.18,27.89l-2.14,2.15-5.03-5.03L27.65,24.65l-.36-.36-6.58-6.58-.36-.36L8.29,5.29a.98148.98148,0,0,1,.89-.27l9.07,1.84a2.0197,2.0197,0,0,1,1.22.75l3.9,5.03.31.41.32.41L30.48,21.82l.31.4.3.4Z"/><path fill="#35c1f1" d="M37.58625,42.414a1.99957,1.99957,0,0,1,0-2.828l5-5a1.9997,1.9997,0,0,1,2.828,2.828l-5,5a1.999,1.999,0,0,1-2.828,0Z"/><path fill="#64717c" d="M33.04,30.04l-2.15,2.14-6.07-4.7-.41-.32L24,26.84l-6.48-5.02-.4-.31L16.73,21.21l-6.12-4.74a2.0197,2.0197,0,0,1-.75-1.22L8.02,6.18a.99964.99964,0,0,1,.27-.89L20.35,17.35l.36.36,6.58,6.58.36.36.36.36005Z"/><path fill="#35c1f1" d="M26.58625,35.414a1.99957,1.99957,0,0,1,0-2.828l9-9a1.9997,1.9997,0,0,1,2.828,2.828l-9,9a1.999,1.999,0,0,1-2.828,0Z"/><path fill="url(#P5nvlnCuwwpq6mc3BhgPFa)" d="M12.854,27.854,15,30,6.594,38.405,4.448,36.259Z"/><path fill="url(#P5nvlnCuwwpq6mc3BhgPFc)" d="M15,30l2.146,2.146L8.74,40.551,6.594,38.405Z"/><path fill="#bfc8d1" d="M38.821,5.017,29.754,6.863a1.99925,1.99925,0,0,0-1.223.743L12.817,27.891l2.146,2.146h0L39.707,5.294A.99133.99133,0,0,0,38.821,5.017Z"/><path fill="url(#P5nvlnCuwwpq6mc3BhgPFb)" d="M9,43a1.992,1.992,0,0,1-1.414-.586l-5-5a1.9997,1.9997,0,0,1,2.828-2.828l5,5A2,2,0,0,1,9,43Z"/><path fill="#90a4ae" d="M17.109,32.183,37.394,16.469a1.99925,1.99925,0,0,0,.743-1.223l1.846-9.067a.99316.99316,0,0,0-.277-.886L14.963,30.037Z"/><path fill="url(#P5nvlnCuwwpq6mc3BhgPFd)" d="M20,36a1.992,1.992,0,0,1-1.414-.586l-9-9a1.9997,1.9997,0,0,1,2.828-2.828l9,9A2,2,0,0,1,20,36Z"/><path d="M30.79,22.22l-.31-.4-3.19,2.47L24,26.84l.41.32.41.32,3.19-2.47,3.08-2.39Zm-7.11-9.17-.31-.41-3.38,4.35-3.26,4.22.39.30005.4.31L20.71,17.71,24,13.46Z" opacity=".05"/><path d="M30.48,21.82l-3.19,2.47L24,26.84l.41.32L27.65,24.65l3.14-2.43Zm-6.8-8.77-3.33,4.3-3.23,4.16.4.31L20.71,17.71,24,13.46Z" opacity=".07"/></svg>