<svg xmlns="http://www.w3.org/2000/svg" viewBox="0 0 48 48"><linearGradient id="pXTeSo1b~_XkWW3YEfKlva" x1="12.5" x2="12.5" y1="5" y2="20.232" gradientUnits="userSpaceOnUse"><stop offset="0" stop-color="#2aa4f4"/><stop offset="1" stop-color="#007ad9"/></linearGradient><path fill="url(#pXTeSo1b~_XkWW3YEfKlva)" d="M13,5C7.477,5,3,9.477,3,15s0,10,0,10h19c0,0,0-6.029,0-11S17.971,5,13,5z"/><linearGradient id="pXTeSo1b~_XkWW3YEfKlvb" x1="12.5" x2="12.5" y1="25" y2="43" gradientUnits="userSpaceOnUse"><stop offset="0" stop-color="#32bdef"/><stop offset="1" stop-color="#1ea2e4"/></linearGradient><path fill="url(#pXTeSo1b~_XkWW3YEfKlvb)" d="M5,28l1.273,9.55C6.689,40.67,9.351,43,12.498,43h0.004c3.148,0,5.809-2.33,6.225-5.45L20,28	v-3H5V28z"/><linearGradient id="pXTeSo1b~_XkWW3YEfKlvc" x1="12.5" x2="12.5" y1="14.44" y2="43.385" gradientUnits="userSpaceOnUse"><stop offset="0" stop-color="#2aa4f4"/><stop offset="1" stop-color="#007ad9"/></linearGradient><path fill="url(#pXTeSo1b~_XkWW3YEfKlvc)" d="M18,25v2.867l-1.256,9.418C16.462,39.403,14.638,41,12.498,41	c-2.136,0-3.96-1.597-4.242-3.714L7,27.867V25H5v3l1.273,9.55C6.689,40.67,9.351,43,12.498,43h0.004c3.148,0,5.809-2.33,6.225-5.45	L20,28v-3H18z"/><linearGradient id="pXTeSo1b~_XkWW3YEfKlvd" x1="12.5" x2="12.5" y1="19" y2="40.532" gradientUnits="userSpaceOnUse"><stop offset="0" stop-color="#a8e2f7"/><stop offset="1" stop-color="#47c1ff"/></linearGradient><path fill="url(#pXTeSo1b~_XkWW3YEfKlvd)" d="M19.5,22c-0.213,0-0.419,0.026-0.622,0.063C18.455,20.308,16.885,19,15,19	c-0.951,0-1.813,0.346-2.5,0.901C11.813,19.346,10.951,19,10,19c-1.885,0-3.455,1.308-3.878,3.063C5.919,22.026,5.713,22,5.5,22	C3.567,22,2,23.567,2,25.5S3.567,29,5.5,29c0.906,0,1.724-0.353,2.346-0.919C8.391,28.646,9.153,29,10,29	c1.045,0,1.963-0.535,2.5-1.345C13.037,28.465,13.955,29,15,29c0.847,0,1.609-0.354,2.154-0.919C17.776,28.647,18.594,29,19.5,29	c1.933,0,3.5-1.567,3.5-3.5S21.433,22,19.5,22z"/><linearGradient id="pXTeSo1b~_XkWW3YEfKlve" x1="35.5" x2="35.5" y1="5" y2="20.383" gradientUnits="userSpaceOnUse"><stop offset="0" stop-color="#2aa4f4"/><stop offset="1" stop-color="#007ad9"/></linearGradient><path fill="url(#pXTeSo1b~_XkWW3YEfKlve)" d="M35,5c5.523,0,10,4.477,10,10s0,10,0,10H26c0,0,0-6.029,0-11S30.029,5,35,5z"/><linearGradient id="pXTeSo1b~_XkWW3YEfKlvf" x1="35.5" x2="35.5" y1="25" y2="43" gradientUnits="userSpaceOnUse"><stop offset="0" stop-color="#32bdef"/><stop offset="1" stop-color="#1ea2e4"/></linearGradient><path fill="url(#pXTeSo1b~_XkWW3YEfKlvf)" d="M43,28l-1.273,9.55C41.311,40.67,38.649,43,35.502,43h-0.004c-3.148,0-5.809-2.33-6.225-5.45	L28,28v-3h15V28z"/><linearGradient id="pXTeSo1b~_XkWW3YEfKlvg" x1="35.5" x2="35.5" y1="14.067" y2="42.731" gradientUnits="userSpaceOnUse"><stop offset="0" stop-color="#2aa4f4"/><stop offset="1" stop-color="#007ad9"/></linearGradient><path fill="url(#pXTeSo1b~_XkWW3YEfKlvg)" d="M41,25v2.867l-1.256,9.418C39.462,39.403,37.638,41,35.502,41	c-2.14,0-3.964-1.597-4.246-3.714L30,27.867V25h-2v3l1.273,9.55C29.689,40.67,32.35,43,35.498,43h0.004	c3.148,0,5.809-2.33,6.225-5.45L43,28v-3H41z"/><linearGradient id="pXTeSo1b~_XkWW3YEfKlvh" x1="35.5" x2="35.5" y1="19" y2="40.732" gradientUnits="userSpaceOnUse"><stop offset="0" stop-color="#a8e2f7"/><stop offset="1" stop-color="#47c1ff"/></linearGradient><path fill="url(#pXTeSo1b~_XkWW3YEfKlvh)" d="M28.5,22c0.213,0,0.419,0.026,0.622,0.063C29.545,20.308,31.115,19,33,19	c0.951,0,1.813,0.346,2.5,0.901C36.187,19.346,37.049,19,38,19c1.885,0,3.455,1.308,3.878,3.063C42.081,22.026,42.287,22,42.5,22	c1.933,0,3.5,1.567,3.5,3.5S44.433,29,42.5,29c-0.906,0-1.724-0.353-2.346-0.919C39.609,28.646,38.847,29,38,29	c-1.045,0-1.963-0.535-2.5-1.345C34.963,28.465,34.045,29,33,29c-0.847,0-1.609-0.354-2.154-0.919C30.224,28.647,29.406,29,28.5,29	c-1.933,0-3.5-1.567-3.5-3.5S26.567,22,28.5,22z"/></svg>