<svg xmlns="http://www.w3.org/2000/svg" data-name="Слой 1" viewBox="0 0 48 48"><defs><linearGradient id="2mNmHaSdDComiNd5yb9cZa" x1="24.085" x2="24.085" y1="11.652" y2="41.003" data-name="Безымянный градиент 129" gradientUnits="userSpaceOnUse"><stop offset="0" stop-color="#ffd869"/><stop offset="1" stop-color="#fec52b"/></linearGradient></defs><path fill="url(#2mNmHaSdDComiNd5yb9cZa)" d="M36.3,16l-.00025.01337L36.29,16h-.2c-4.88,0-9.57,4.21-12,6.83-.91.96-1.5,1.71-1.69,1.95l-.91,1.17-.63.81C18.67,29.07,15.17,32,12.08,32a5.99245,5.99245,0,0,1-1.61-11.78A5.69425,5.69425,0,0,1,12.08,20a5.299,5.299,0,0,1,1.45.21c.1-.43,1.23.18005,1.47-.21,0,0,4.51-1.65,5-2-1.12-.43-5-2-7.66-1.99a2.25874,2.25874,0,0,0-.26-.01,10.00032,10.00032,0,1,0,0,20c4.98,0,9.59-4.17,12.01-6.79C25,28.22,25.59,27.45,25.78,27.2l.87-1.15.3-.4C29.16,23.29,32.92,20,36.09,20h.13a6.06084,6.06084,0,0,1,5.92,6,5.96146,5.96146,0,0,1-1.42,3.87,6.15109,6.15109,0,0,1-2.66,1.8.88047.88047,0,0,1,.00006.20478C37.94354,33.01581,36.15,35.82123,36,35.99l.00793-.00049L36,36a12.73587,12.73587,0,0,0,4.59-1.05A9.988,9.988,0,0,0,36.3,16Z"/><path fill="#64717c" d="M13.951,18.885l.652-.759a4.50094,4.50094,0,0,1,6.346-.481l1.896,1.629-6.517,7.585L14.432,25.23A4.49966,4.49966,0,0,1,13.951,18.885Z"/><path fill="#64717c" d="M37.549,34.615l-.652.759a4.50094,4.50094,0,0,1-6.346.481l-1.896-1.629,6.517-7.585,1.896,1.629A4.49966,4.49966,0,0,1,37.549,34.615Z"/><path fill="#889097" d="M27.57781,29.34325h0a1,1,0,0,1,1.41018-.10677l2.27542,1.9551-1.3034,1.517-2.27543-1.9551A1,1,0,0,1,27.57781,29.34325Z"/><path fill="#889097" d="M30.18381,26.30825h0a1,1,0,0,1,1.41018-.10678l2.27542,1.95511L32.566,29.67353l-2.27543-1.95511A1,1,0,0,1,30.18381,26.30825Z"/></svg>