<svg xmlns="http://www.w3.org/2000/svg" viewBox="0 0 48 48"><linearGradient id="EfupsCnPgicEp9cAcZd1Ra" x1="-.143" x2="11.499" y1="12.877" y2="16.643" gradientUnits="userSpaceOnUse"><stop offset="0" stop-color="#54daff"/><stop offset=".359" stop-color="#52d8fe"/><stop offset=".534" stop-color="#4dd0fb"/><stop offset=".669" stop-color="#43c3f6"/><stop offset=".783" stop-color="#36b1ee"/><stop offset=".853" stop-color="#2aa1e8"/></linearGradient><path fill="url(#EfupsCnPgicEp9cAcZd1Ra)" d="M12,17H1c-0.552,0-1-0.448-1-1v-2c0-0.552,0.448-1,1-1h11V17z"/><linearGradient id="EfupsCnPgicEp9cAcZd1Rb" x1="-1.514" x2="9.345" y1="21.604" y2="24.881" gradientUnits="userSpaceOnUse"><stop offset="0" stop-color="#54daff"/><stop offset=".359" stop-color="#52d8fe"/><stop offset=".534" stop-color="#4dd0fb"/><stop offset=".669" stop-color="#43c3f6"/><stop offset=".783" stop-color="#36b1ee"/><stop offset=".853" stop-color="#2aa1e8"/></linearGradient><path fill="url(#EfupsCnPgicEp9cAcZd1Rb)" d="M12,26H1c-0.552,0-1-0.448-1-1v-2c0-0.552,0.448-1,1-1h11V26z"/><linearGradient id="EfupsCnPgicEp9cAcZd1Rc" x1="-2.606" x2="6.442" y1="29.782" y2="33.011" gradientUnits="userSpaceOnUse"><stop offset="0" stop-color="#54daff"/><stop offset=".359" stop-color="#52d8fe"/><stop offset=".534" stop-color="#4dd0fb"/><stop offset=".669" stop-color="#43c3f6"/><stop offset=".783" stop-color="#36b1ee"/><stop offset=".853" stop-color="#2aa1e8"/></linearGradient><path fill="url(#EfupsCnPgicEp9cAcZd1Rc)" d="M12,35H1c-0.552,0-1-0.448-1-1v-2c0-0.552,0.448-1,1-1h11V35z"/><linearGradient id="EfupsCnPgicEp9cAcZd1Rd" x1="7.063" x2="43.617" y1="-28.083" y2="-20.651" gradientTransform="matrix(1 0 -.2867 1 -4.014 38)" gradientUnits="userSpaceOnUse"><stop offset="0" stop-color="#0077d2"/><stop offset="1" stop-color="#0b59a2"/></linearGradient><path fill="url(#EfupsCnPgicEp9cAcZd1Rd)" d="M48.066,11.913L46.607,17h-38l1.592-5.551C10.445,10.591,11.229,10,12.122,10h34.502 C47.621,10,48.341,10.955,48.066,11.913z"/><linearGradient id="EfupsCnPgicEp9cAcZd1Re" x1="15.997" x2="32.711" y1="-25.599" y2="-1.422" gradientTransform="matrix(1 0 -.2867 1 -4.014 38)" gradientUnits="userSpaceOnUse"><stop offset="0" stop-color="#28afea"/><stop offset="1" stop-color="#047ed6"/></linearGradient><path fill="url(#EfupsCnPgicEp9cAcZd1Re)" d="M3.134,36.087L8.894,16h38l-5.893,20.551C40.755,37.409,39.971,38,39.078,38H4.576 C3.579,38,2.859,37.045,3.134,36.087z"/><path d="M37.531,20H15.214c-0.887,0-1.678,0.596-1.923,1.449l-2.404,8.383 c-0.148,0.518-0.048,1.062,0.276,1.492C11.488,31.753,11.983,32,12.522,32h22.318c0.887,0,1.678-0.596,1.923-1.449l2.404-8.383 c0.148-0.518,0.048-1.061-0.276-1.492S38.07,20,37.531,20L37.531,20z" opacity=".05"/><path d="M37.531,20.5H15.214c-0.666,0-1.258,0.447-1.442,1.087l-2.404,8.383 c-0.105,0.366-0.034,0.749,0.195,1.053c0.229,0.304,0.578,0.478,0.958,0.478h22.318c0.666,0,1.258-0.447,1.442-1.087l2.404-8.383 c0.105-0.365,0.034-0.749-0.195-1.053C38.261,20.674,37.912,20.5,37.531,20.5L37.531,20.5z" opacity=".07"/><path fill="#fff" d="M37.531,21H15.214c-0.446,0-0.838,0.296-0.961,0.724l-2.404,8.383 C11.721,30.554,12.056,31,12.522,31h22.318c0.446,0,0.838-0.296,0.961-0.724l2.404-8.383C38.332,21.446,37.997,21,37.531,21z"/><path fill="#0553a4" d="M14.313,28.49l1.47-5.128C15.844,23.148,16.04,23,16.264,23h1.092c0.266,0,0.458,0.255,0.385,0.51 l-1.47,5.128C16.209,28.852,16.013,29,15.789,29l-1.092,0C14.431,29,14.239,28.745,14.313,28.49z"/></svg>