<svg xmlns="http://www.w3.org/2000/svg" viewBox="0 0 48 48"><rect width="28" height="12" x="10" y="31" fill="#0078d4"/><path fill="#199be2" d="M14,9h20V7c0-1.104-0.896-2-2-2H16c-1.104,0-2,0.896-2,2V9z"/><path fill="#199be2" d="M10,11v20h28V11H10z"/><rect width="4" height="4" x="30" y="35" fill="#005094"/><rect width="6" height="8" x="21" y="35" fill="#005094"/><rect width="4" height="4" x="30" y="23" fill="#0d62ab"/><rect width="4" height="4" x="22" y="23" fill="#0d62ab"/><rect width="4" height="4" x="14" y="15" fill="#0d62ab"/><rect width="4" height="4" x="22" y="15" fill="#0d62ab"/><rect width="4" height="4" x="30" y="15" fill="#0d62ab"/><path fill="#35c1f1" d="M38,11H10c-0.553,0-1-0.448-1-1s0.447-1,1-1h28c0.553,0,1,0.448,1,1S38.553,11,38,11z"/><linearGradient id="Ct0818e6OIvBkgPC6E9LYa" x1="10.909" x2="13.636" y1="36.118" y2="45.499" gradientUnits="userSpaceOnUse"><stop offset="0" stop-color="#8795a1"/><stop offset="1" stop-color="#6d7882"/></linearGradient><path fill="url(#Ct0818e6OIvBkgPC6E9LYa)" d="M13,36.429c-5.523,0-10,3.254-10,6.607V44c0,0.552,0.448,1,1,1h18c0.552,0,1-0.448,1-1 v-0.964C23,39.683,18.523,36.429,13,36.429z"/><path fill="#fff" d="M16,36.848C16,41.595,13,44,13,44s-3-2.405-3-7.152c0-1.582,0-2.448,0-2.448h6 C16,34.4,16,35.265,16,36.848z"/><path fill="#d32f2f" d="M11.8,39.8l0.6,0.6l-0.468,2.428C12.512,43.604,13,44,13,44s0.488-0.396,1.068-1.172L13.6,40.4 l0.6-0.6L13,39L11.8,39.8z"/><path fill="#d6a121" d="M16,36.6c0,1.138-1.2,2.4-3,2.4s-3-1.262-3-2.4c0-1.582,0-4.221,0-4.221h6 C16,32.379,16,35.018,16,36.6z"/><linearGradient id="Ct0818e6OIvBkgPC6E9LYb" x1="17.756" x2="18.804" y1="31.5" y2="31.5" gradientUnits="userSpaceOnUse"><stop offset="0" stop-color="#c48f0c"/><stop offset=".251" stop-color="#d19b16"/><stop offset=".619" stop-color="#dca51f"/><stop offset="1" stop-color="#e0a922"/></linearGradient><path fill="url(#Ct0818e6OIvBkgPC6E9LYb)" d="M18.095,30h-0.754v3h0.855c0.294,0,0.545-0.234,0.595-0.555l0.197-1.277 C19.081,30.557,18.655,30,18.095,30z"/><linearGradient id="Ct0818e6OIvBkgPC6E9LYc" x1="-910.733" x2="-909.685" y1="31.5" y2="31.5" gradientTransform="matrix(-1 0 0 1 -902.49 0)" gradientUnits="userSpaceOnUse"><stop offset="0" stop-color="#c48f0c"/><stop offset=".251" stop-color="#d19b16"/><stop offset=".619" stop-color="#dca51f"/><stop offset="1" stop-color="#e0a922"/></linearGradient><path fill="url(#Ct0818e6OIvBkgPC6E9LYc)" d="M7.905,30h0.754v3H7.804c-0.294,0-0.545-0.234-0.595-0.555l-0.197-1.277 C6.919,30.557,7.345,30,7.905,30z"/><radialGradient id="Ct0818e6OIvBkgPC6E9LYd" cx=".397" cy="118.522" r="7.438" gradientTransform="matrix(.805 0 0 .805 12.68 -65.24)" gradientUnits="userSpaceOnUse"><stop offset="0" stop-color="#ffcf54"/><stop offset=".261" stop-color="#fdcb4d"/><stop offset=".639" stop-color="#f7c13a"/><stop offset="1" stop-color="#f0b421"/></radialGradient><path fill="url(#Ct0818e6OIvBkgPC6E9LYd)" d="M13,23.333c-2.467,0-5,0.375-5,5.708c0,0.427,0,3.265,0,3.721C8,34.667,11,37,13,37 s5-2.333,5-4.237c0-0.456,0-3.294,0-3.721C18,23.708,15.467,23.333,13,23.333z"/><radialGradient id="Ct0818e6OIvBkgPC6E9LYe" cx="-5.979" cy="73.952" r="19.47" gradientTransform="matrix(.805 0 0 .8669 12.68 -41.335)" gradientUnits="userSpaceOnUse"><stop offset="0" stop-color="#c26715"/><stop offset=".508" stop-color="#b85515"/><stop offset="1" stop-color="#ad3f16"/></radialGradient><path fill="url(#Ct0818e6OIvBkgPC6E9LYe)" d="M13,22c-2.387,0-3,1-3,1c-1.429,0-3,0.945-3,4c0,1.113,0.286,2.692,1,5 c0.341-4.406,1.048-6.587,2.143-6.587C10.935,25.413,11.646,26,13,26s2.362-0.587,2.857-0.587C17.732,25.413,18,31.305,18,32 c0.714-2.308,1-4.027,1-5C19,23.92,16.881,22,13,22z"/><radialGradient id="Ct0818e6OIvBkgPC6E9LYf" cx="-2.241" cy="111.168" r="21.61" gradientTransform="matrix(.7698 0 0 .805 13.803 -65.24)" gradientUnits="userSpaceOnUse"><stop offset="0" stop-color="#c26715"/><stop offset=".508" stop-color="#b85515"/><stop offset="1" stop-color="#ad3f16"/></radialGradient><path fill="url(#Ct0818e6OIvBkgPC6E9LYf)" d="M13,22c-2.602,0-3,1-3,1c-0.026,0.724,0.143,1.286,0.143,1.286S10.589,26,13.301,26 C14.939,26,17,24.728,17,22C17,22,16.711,22,13,22z"/></svg>