<svg xmlns="http://www.w3.org/2000/svg" viewBox="0 0 48 48"><linearGradient id="HoI9s07YGUx0OzWwF~wVAa" x1="24" x2="24" y1="3.894" y2="37.106" gradientUnits="userSpaceOnUse"><stop offset="0" stop-color="#a1aab3"/><stop offset="1" stop-color="#8f979e"/></linearGradient><path fill="url(#HoI9s07YGUx0OzWwF~wVAa)" d="M45,38H3c-1.105,0-2-0.895-2-2V12c0-1.105,0.895-2,2-2h42c1.105,0,2,0.895,2,2v24	C47,37.105,46.105,38,45,38z"/><path d="M4.5,36C3.673,36,3,35.327,3,34.5v-21C3,12.673,3.673,12,4.5,12h11c0.827,0,1.5,0.673,1.5,1.5v21	c0,0.827-0.673,1.5-1.5,1.5H4.5z" opacity=".05"/><path d="M4.5,35.5c-0.551,0-1-0.449-1-1v-21c0-0.551,0.449-1,1-1h11c0.551,0,1,0.449,1,1v21	c0,0.551-0.449,1-1,1H4.5z" opacity=".07"/><radialGradient id="HoI9s07YGUx0OzWwF~wVAb" cx="10.128" cy="20.425" r="24.375" gradientUnits="userSpaceOnUse"><stop offset="0" stop-color="#fafafb"/><stop offset="1" stop-color="#c8cdd1"/></radialGradient><path fill="url(#HoI9s07YGUx0OzWwF~wVAb)" d="M15.5,35h-11C4.224,35,4,34.776,4,34.5v-21C4,13.224,4.224,13,4.5,13h11	c0.276,0,0.5,0.224,0.5,0.5v21C16,34.776,15.776,35,15.5,35z"/><path d="M18.5,36c-0.827,0-1.5-0.673-1.5-1.5v-21c0-0.827,0.673-1.5,1.5-1.5h11c0.827,0,1.5,0.673,1.5,1.5v21	c0,0.827-0.673,1.5-1.5,1.5H18.5z" opacity=".05"/><path d="M18.5,35.5c-0.551,0-1-0.449-1-1v-21c0-0.551,0.449-1,1-1h11c0.551,0,1,0.449,1,1v21	c0,0.551-0.449,1-1,1H18.5z" opacity=".07"/><radialGradient id="HoI9s07YGUx0OzWwF~wVAc" cx="24.128" cy="20.425" r="24.375" gradientUnits="userSpaceOnUse"><stop offset="0" stop-color="#fafafb"/><stop offset="1" stop-color="#c8cdd1"/></radialGradient><path fill="url(#HoI9s07YGUx0OzWwF~wVAc)" d="M29.5,35h-11c-0.276,0-0.5-0.224-0.5-0.5v-21c0-0.276,0.224-0.5,0.5-0.5h11	c0.276,0,0.5,0.224,0.5,0.5v21C30,34.776,29.776,35,29.5,35z"/><path d="M32.5,36c-0.827,0-1.5-0.673-1.5-1.5v-21c0-0.827,0.673-1.5,1.5-1.5h11c0.827,0,1.5,0.673,1.5,1.5v21	c0,0.827-0.673,1.5-1.5,1.5H32.5z" opacity=".05"/><path d="M32.5,35.5c-0.551,0-1-0.449-1-1v-21c0-0.551,0.449-1,1-1h11c0.551,0,1,0.449,1,1v21	c0,0.551-0.449,1-1,1H32.5z" opacity=".07"/><radialGradient id="HoI9s07YGUx0OzWwF~wVAd" cx="38.128" cy="20.425" r="24.375" gradientUnits="userSpaceOnUse"><stop offset="0" stop-color="#fafafb"/><stop offset="1" stop-color="#c8cdd1"/></radialGradient><path fill="url(#HoI9s07YGUx0OzWwF~wVAd)" d="M43.5,35h-11c-0.276,0-0.5-0.224-0.5-0.5v-21c0-0.276,0.224-0.5,0.5-0.5h11	c0.276,0,0.5,0.224,0.5,0.5v21C44,34.776,43.776,35,43.5,35z"/><path fill="#4a4e52" d="M9.938,30.131c-2.667,0-4-1.872-4-5.617c0-1.942,0.36-3.423,1.082-4.441 c0.721-1.018,1.767-1.527,3.137-1.527c2.604,0,3.906,1.904,3.906,5.711c0,1.896-0.355,3.349-1.066,4.359 C12.285,29.626,11.266,30.131,9.938,30.131z M10.047,20.428c-1.068,0-1.602,1.341-1.602,4.023c0,2.526,0.523,3.789,1.57,3.789 c1.021,0,1.531-1.302,1.531-3.906C11.547,21.73,11.047,20.428,10.047,20.428z"/><path fill="#4a4e52" d="M23.938,30.131c-2.667,0-4-1.872-4-5.617c0-1.942,0.36-3.423,1.082-4.441 c0.721-1.018,1.767-1.527,3.137-1.527c2.604,0,3.906,1.904,3.906,5.711c0,1.896-0.355,3.349-1.066,4.359 C26.285,29.626,25.266,30.131,23.938,30.131z M24.047,20.428c-1.068,0-1.602,1.341-1.602,4.023c0,2.526,0.523,3.789,1.57,3.789 c1.021,0,1.531-1.302,1.531-3.906C25.547,21.73,25.047,20.428,24.047,20.428z"/><linearGradient id="HoI9s07YGUx0OzWwF~wVAe" x1="38" x2="38" y1="21.851" y2="13.495" gradientUnits="userSpaceOnUse"><stop offset="0" stop-color="#636363"/><stop offset=".36" stop-color="#585858"/><stop offset=".987" stop-color="#3c3c3c"/><stop offset=".998" stop-color="#3b3b3b"/></linearGradient><path fill="url(#HoI9s07YGUx0OzWwF~wVAe)" d="M41.414,16.163c-0.188-0.25-0.419-0.473-0.695-0.668c-0.276-0.195-0.597-0.355-0.961-0.48	c0.588-0.281,1.049-0.639,1.383-1.074c0.223-0.291,0.365-0.606,0.438-0.94h-2.244c-0.017,0.102-0.019,0.209-0.058,0.303	c-0.07,0.172-0.167,0.323-0.289,0.453c-0.123,0.13-0.265,0.232-0.426,0.305c-0.162,0.073-0.336,0.109-0.523,0.109	c-0.183,0-0.355-0.036-0.52-0.109c-0.164-0.073-0.306-0.173-0.426-0.301c-0.12-0.127-0.215-0.278-0.285-0.453	c-0.039-0.096-0.041-0.204-0.058-0.307h-2.272c0.066,0.352,0.203,0.682,0.42,0.987c0.313,0.44,0.752,0.801,1.32,1.082	c-0.37,0.125-0.691,0.285-0.965,0.48s-0.501,0.417-0.684,0.664c-0.183,0.248-0.319,0.516-0.41,0.805	c-0.091,0.289-0.137,0.59-0.137,0.902c0,0.474,0.099,0.908,0.297,1.301c0.198,0.394,0.473,0.73,0.824,1.012s0.771,0.499,1.258,0.652	c0.487,0.153,1.02,0.23,1.598,0.23c0.588,0,1.126-0.078,1.613-0.234c0.487-0.156,0.906-0.376,1.258-0.66	c0.352-0.284,0.624-0.622,0.816-1.016c0.192-0.393,0.289-0.829,0.289-1.309c0-0.317-0.047-0.624-0.141-0.918	C41.742,16.685,41.602,16.413,41.414,16.163z M39.531,18.389c-0.083,0.203-0.198,0.375-0.344,0.516	c-0.146,0.141-0.319,0.25-0.52,0.328c-0.201,0.078-0.421,0.117-0.66,0.117c-0.25,0-0.476-0.038-0.676-0.113	c-0.201-0.075-0.374-0.184-0.52-0.324c-0.146-0.141-0.258-0.313-0.336-0.516s-0.117-0.432-0.117-0.688	c0-0.239,0.042-0.461,0.125-0.664c0.083-0.203,0.198-0.379,0.344-0.527c0.146-0.148,0.32-0.263,0.523-0.344	c0.203-0.081,0.422-0.121,0.656-0.121c0.25,0,0.475,0.044,0.676,0.133c0.2,0.089,0.374,0.207,0.52,0.355	c0.146,0.148,0.258,0.324,0.336,0.527s0.117,0.417,0.117,0.641C39.656,17.959,39.614,18.186,39.531,18.389z"/><linearGradient id="HoI9s07YGUx0OzWwF~wVAf" x1="38.047" x2="38.047" y1="26.66" y2="34.927" gradientUnits="userSpaceOnUse"><stop offset="0" stop-color="#636363"/><stop offset=".36" stop-color="#585858"/><stop offset=".987" stop-color="#3c3c3c"/><stop offset=".998" stop-color="#3b3b3b"/></linearGradient><path fill="url(#HoI9s07YGUx0OzWwF~wVAf)" d="M38.137,30.858c-0.383,0.719-0.732,1.457-1.047,2.215c-0.26,0.624-0.487,1.27-0.695,1.927	h2.497c0.192-0.666,0.408-1.326,0.663-1.974c0.302-0.768,0.651-1.547,1.047-2.336c0.396-0.789,0.844-1.634,1.344-2.535v-1.422	h-7.797v2.016h5.203C38.924,29.436,38.52,30.139,38.137,30.858z"/></svg>