<svg xmlns="http://www.w3.org/2000/svg" viewBox="0 0 48 48"><linearGradient id="yaAlhrEaQInC2CV4A82xla" x1="10.382" x2="32.68" y1="5.008" y2="29.008" gradientUnits="userSpaceOnUse"><stop offset="0" stop-color="#21ad64"/><stop offset="1" stop-color="#088242"/></linearGradient><path fill="url(#yaAlhrEaQInC2CV4A82xla)" d="M39.799,26H35V6c0-1.105-0.895-2-2-2H15c-1.105,0-2,0.895-2,2v20H8.201	c-1.065,0-1.598,1.287-0.845,2.04l15.476,15.476C23.154,43.839,23.577,44,24,44c0.211,0,0.423-0.04,0.622-0.121	s0.385-0.202,0.546-0.363L40.644,28.04C41.397,27.287,40.864,26,39.799,26z"/><path d="M22.52,16.522c0-0.577,0.498-0.869,1.48-0.869	c1.352,0,2.47,0.43,3.016,0.686c0.339,0.159,1.534,0.381,1.534-0.964v-1.362c0-0.997-0.602-1.339-0.86-1.44	c-0.629-0.244-1.415-0.399-2.39-0.468v-0.881c0-0.538-0.437-0.975-0.975-0.975h-0.65c-0.538,0-0.975,0.437-0.975,0.975v0.957	c-2.091,0.382-4.126,1.742-4.126,4.566c0,5.651,6.906,5.164,6.906,6.441c0,0.231,0,0.845-1.48,0.845	c-1.718,0-3.227-0.703-3.648-0.919c-0.332-0.17-1.552-0.294-1.552,0.955v1.549c0,0.556,0.333,1.057,0.848,1.276	c0.872,0.37,1.996,0.666,3.052,0.808v1.072c0,0.538,0.437,0.975,0.975,0.975h0.65c0.538,0,0.975-0.437,0.975-0.975v-1.078	c3.032-0.504,4.126-2.769,4.126-4.647C29.426,17.531,22.52,18.407,22.52,16.522z" opacity=".05"/><path d="M22.195,16.522c0-1.01,1.06-1.194,1.805-1.194	c1.285,0,2.433,0.378,3.154,0.717c0.311,0.146,1.071,0.159,1.071-0.67v-1.361c0-0.727-0.387-1.033-0.653-1.137	c-0.622-0.242-1.456-0.406-2.597-0.462v-1.189c0-0.359-0.291-0.65-0.65-0.65h-0.65c-0.359,0-0.65,0.291-0.65,0.65v1.24	c-2.058,0.29-4.126,1.542-4.126,4.284c0,5.25,6.906,4.526,6.906,6.441c0,0.517-0.256,1.17-1.805,1.17	c-1.672,0-3.172-0.635-3.796-0.954c-0.305-0.156-1.079-0.115-1.079,0.666v1.549c0,0.427,0.256,0.809,0.65,0.977	c0.925,0.393,2.144,0.698,3.25,0.815v1.364c0,0.359,0.291,0.65,0.65,0.65h0.65c0.359,0,0.65-0.291,0.65-0.65V27.41	c3.031-0.379,4.126-2.526,4.126-4.36C29.101,17.952,22.195,18.847,22.195,16.522z" opacity=".07"/><path fill="#fff" d="M28.776,23.05c0-4.678-6.906-3.764-6.906-6.528c0-1.443,1.622-1.519,2.129-1.519	c1.219,0,2.395,0.327,3.293,0.748c0.283,0.133,0.607-0.064,0.607-0.376v-1.361c0-0.456-0.172-0.727-0.446-0.834	c-0.615-0.239-1.498-0.414-2.804-0.457v-1.498c0-0.18-0.146-0.325-0.325-0.325h-0.65c-0.179,0-0.325,0.145-0.325,0.325v1.522	c-2.026,0.198-4.126,1.341-4.126,4.001c0,4.849,6.906,3.887,6.906,6.441c0,0.803-0.513,1.495-2.129,1.495	c-1.625,0-3.118-0.567-3.944-0.99c-0.278-0.142-0.606,0.064-0.606,0.376v1.549c0,0.297,0.179,0.561,0.453,0.678	c0.979,0.416,2.292,0.731,3.447,0.823v1.655c0,0.179,0.146,0.325,0.325,0.325h0.65c0.179,0,0.325-0.146,0.325-0.325v-1.652	C27.681,26.87,28.776,24.841,28.776,23.05z"/></svg>