<svg xmlns="http://www.w3.org/2000/svg" viewBox="0 0 48 48"><linearGradient id="D1B~nNCjZF8X7LmypL2gRa" x1="8.663" x2="38.122" y1="1626.059" y2="1650.915" gradientTransform="translate(0 -1618)" gradientUnits="userSpaceOnUse"><stop offset="0" stop-color="#a1aab3"/><stop offset="1" stop-color="#8f979e"/></linearGradient><path fill="url(#D1B~nNCjZF8X7LmypL2gRa)" d="M41,35H7c-1.105,0-2-0.895-2-2V9c0-1.105,0.895-2,2-2h34c1.105,0,2,0.895,2,2v24	C43,34.105,42.105,35,41,35z"/><linearGradient id="D1B~nNCjZF8X7LmypL2gRb" x1="15.235" x2="35.959" y1="40.489" y2="13.324" gradientTransform="matrix(1 0 0 -1 0 50)" gradientUnits="userSpaceOnUse"><stop offset="0" stop-color="#0d61a9"/><stop offset="1" stop-color="#16528c"/></linearGradient><rect width="34" height="24" x="7" y="9" fill="url(#D1B~nNCjZF8X7LmypL2gRb)"/><linearGradient id="D1B~nNCjZF8X7LmypL2gRc" x1="24" x2="24" y1="1652.992" y2="1657.008" gradientTransform="translate(0 -1618)" gradientUnits="userSpaceOnUse"><stop offset="0" stop-color="#484b4f"/><stop offset=".23" stop-color="#656d75"/><stop offset=".367" stop-color="#727d86"/></linearGradient><rect width="8" height="4" x="20" y="35" fill="url(#D1B~nNCjZF8X7LmypL2gRc)"/><linearGradient id="D1B~nNCjZF8X7LmypL2gRd" x1="24" x2="24" y1="1655.992" y2="1660.008" gradientTransform="translate(0 -1618)" gradientUnits="userSpaceOnUse"><stop offset="0" stop-color="#a1aab3"/><stop offset="1" stop-color="#8f979e"/></linearGradient><path fill="url(#D1B~nNCjZF8X7LmypL2gRd)" d="M33,38H15c-0.552,0-1,0.448-1,1v2c0,0.552,0.448,1,1,1h18c0.552,0,1-0.448,1-1v-2	C34,38.448,33.552,38,33,38z"/><path d="M22,30c-1.103,0-2-0.897-2-2v-0.277l-0.734-0.243	c-1.381-0.472-2.227-1.849-2.014-3.276l0.08-0.573C16.46,22.397,16,20.974,16,19.5c0-4.136,3.589-7.5,8-7.5s8,3.364,8,7.5	c0,1.474-0.46,2.897-1.332,4.13l0.082,0.579c0.211,1.423-0.633,2.798-2.007,3.268L28,27.723V28c0,1.103-0.897,2-2,2H22z M26.43,21.59c-0.229,0-0.427,0.196-0.43,0.271c0,0.551,0.184,1.14,0.7,1.14c0.206,0,0.3,0,0.3-0.57	C27,22.177,26.944,21.59,26.43,21.59z M21.57,21.59c-0.515,0-0.57,0.587-0.57,0.84C21,23,21.094,23,21.3,23	c0.517,0,0.7-0.589,0.7-1.14C21.997,21.786,21.799,21.59,21.57,21.59z" opacity=".05"/><path d="M22,29.5c-0.827,0-1.5-0.673-1.5-1.5v-0.639l-1.077-0.356	c-1.149-0.393-1.854-1.539-1.677-2.729l0.109-0.777C16.968,22.314,16.5,20.937,16.5,19.5c0-3.859,3.364-7,7.5-7s7.5,3.141,7.5,7	c0,1.437-0.468,2.814-1.355,3.999l0.11,0.78c0.176,1.187-0.528,2.333-1.674,2.725L27.5,27.361V28c0,0.827-0.673,1.5-1.5,1.5H22z M24,24.92c0.195,0,0.323,0.088,0.411,0.201c-0.038-0.127-0.083-0.234-0.123-0.316c-0.111-0.215-0.19-0.368-0.288-0.495	c-0.096,0.124-0.171,0.268-0.259,0.439c-0.057,0.115-0.11,0.239-0.151,0.371C23.678,25.007,23.805,24.92,24,24.92z M26.43,21.09	c-0.469,0-0.93,0.382-0.93,0.771c0,0.996,0.471,1.64,1.2,1.64c0.387,0,0.8-0.083,0.8-1.07C27.5,21.616,27.08,21.09,26.43,21.09z M21.57,21.09c-0.65,0-1.07,0.526-1.07,1.34c0,0.987,0.413,1.07,0.8,1.07c0.729,0,1.2-0.644,1.2-1.64	C22.5,21.472,22.039,21.09,21.57,21.09z" opacity=".07"/><path fill="#fff" d="M29.62,23.36C30.48,22.28,31,20.95,31,19.5c0-3.59-3.13-6.5-7-6.5s-7,2.91-7,6.5	c0,1.45,0.52,2.78,1.38,3.86l-0.14,0.99c-0.14,0.95,0.43,1.87,1.34,2.18L21,27v1c0,0.55,0.45,1,1,1h4c0.55,0,1-0.45,1-1v-1	l1.42-0.47c0.91-0.31,1.48-1.23,1.34-2.18L29.62,23.36z M21.3,24c-0.87,0-1.3-0.54-1.3-1.57c0-1.17,0.71-1.84,1.57-1.84	c0.71,0,1.43,0.57,1.43,1.27C23,23.27,22.2,24,21.3,24z M24.58,26.25c-0.39,0-0.48-0.83-0.58-0.83s-0.19,0.83-0.58,0.83	c-0.36,0-0.46-0.46-0.4-0.83c0.03-0.31,0.13-0.6,0.24-0.83c0.14-0.27,0.26-0.52,0.48-0.74c0.08-0.07,0.17-0.1,0.26-0.1	s0.18,0.03,0.26,0.1c0.22,0.22,0.34,0.47,0.48,0.74c0.11,0.23,0.21,0.52,0.24,0.83C25.04,25.79,24.94,26.25,24.58,26.25z M26.7,24	c-0.9,0-1.7-0.73-1.7-2.14c0-0.7,0.72-1.27,1.43-1.27c0.86,0,1.57,0.67,1.57,1.84C28,23.46,27.57,24,26.7,24z"/></svg>