<svg xmlns="http://www.w3.org/2000/svg" viewBox="0 0 48 48"><linearGradient id="j2BPm03IKsQOzaLr7iN8ha" x1="7" x2="41" y1="24" y2="24" gradientUnits="userSpaceOnUse"><stop offset="0" stop-color="#ae4cd5"/><stop offset="1" stop-color="#ac4ad5"/></linearGradient><path fill="url(#j2BPm03IKsQOzaLr7iN8ha)" d="M11,20c-2.209,0-4,1.791-4,4s1.791,4,4,4s4-1.791,4-4S13.209,20,11,20z M24,20 c-2.209,0-4,1.791-4,4s1.791,4,4,4s4-1.791,4-4S26.209,20,24,20z M37,20c-2.209,0-4,1.791-4,4s1.791,4,4,4s4-1.791,4-4 S39.209,20,37,20z"/></svg>