<svg xmlns="http://www.w3.org/2000/svg" viewBox="0 0 48 48"><linearGradient id="qbPOo1EYqhJ6yfIzJqhmJa" x1="24" x2="24" y1="5.935" y2="15" gradientUnits="userSpaceOnUse"><stop offset="0" stop-color="#fede00"/><stop offset="1" stop-color="#ffd000"/></linearGradient><polygon fill="url(#qbPOo1EYqhJ6yfIzJqhmJa)" points="24,5.935 5,15 43,15"/><linearGradient id="qbPOo1EYqhJ6yfIzJqhmJb" x1="21.475" x2="25.532" y1="5.577" y2="20.716" gradientUnits="userSpaceOnUse"><stop offset="0" stop-color="#ffcf54"/><stop offset=".261" stop-color="#fdcb4d"/><stop offset=".639" stop-color="#f7c13a"/><stop offset="1" stop-color="#f0b421"/></linearGradient><path fill="url(#qbPOo1EYqhJ6yfIzJqhmJb)" d="M43,16H5c-0.484,0-0.899-0.348-0.984-0.824C3.931,14.698,4.2,14.23,4.655,14.062l19-9.065	c0.223-0.082,0.469-0.082,0.691,0l19,9.065c0.455,0.168,0.724,0.637,0.639,1.114C43.899,15.652,43.484,16,43,16z M10,14h28L24,7	L10,14z"/><linearGradient id="qbPOo1EYqhJ6yfIzJqhmJc" x1="23.482" x2="24.517" y1="9.068" y2="12.932" gradientUnits="userSpaceOnUse"><stop offset="0" stop-color="#c28200"/><stop offset="1" stop-color="#eba600"/></linearGradient><circle cx="24" cy="11" r="2" fill="url(#qbPOo1EYqhJ6yfIzJqhmJc)"/><linearGradient id="qbPOo1EYqhJ6yfIzJqhmJd" x1="24" x2="24" y1="39" y2="42" gradientUnits="userSpaceOnUse"><stop offset="0" stop-color="#fede00"/><stop offset="1" stop-color="#ffd000"/></linearGradient><path fill="url(#qbPOo1EYqhJ6yfIzJqhmJd)" d="M1,42h46v-2c0-0.552-0.448-1-1-1H2c-0.552,0-1,0.448-1,1V42z"/><linearGradient id="qbPOo1EYqhJ6yfIzJqhmJe" x1="24" x2="24" y1="36" y2="39" gradientUnits="userSpaceOnUse"><stop offset="0" stop-color="#fede00"/><stop offset="1" stop-color="#ffd000"/></linearGradient><path fill="url(#qbPOo1EYqhJ6yfIzJqhmJe)" d="M3,39h42v-2c0-0.552-0.448-1-1-1H4c-0.552,0-1,0.448-1,1V39z"/><linearGradient id="qbPOo1EYqhJ6yfIzJqhmJf" x1="24" x2="24" y1="36" y2="16" gradientUnits="userSpaceOnUse"><stop offset="0" stop-color="#eba600"/><stop offset="1" stop-color="#c28200"/></linearGradient><rect width="28" height="20" x="10" y="16" fill="url(#qbPOo1EYqhJ6yfIzJqhmJf)"/><linearGradient id="qbPOo1EYqhJ6yfIzJqhmJg" x1="26.866" x2="31.134" y1="18.036" y2="33.964" gradientUnits="userSpaceOnUse"><stop offset="0" stop-color="#ffcf54"/><stop offset=".261" stop-color="#fdcb4d"/><stop offset=".639" stop-color="#f7c13a"/><stop offset="1" stop-color="#f0b421"/></linearGradient><rect width="4" height="16" x="27" y="18" fill="url(#qbPOo1EYqhJ6yfIzJqhmJg)"/><linearGradient id="qbPOo1EYqhJ6yfIzJqhmJh" x1="36.866" x2="41.134" y1="18.036" y2="33.964" gradientUnits="userSpaceOnUse"><stop offset="0" stop-color="#ffcf54"/><stop offset=".261" stop-color="#fdcb4d"/><stop offset=".639" stop-color="#f7c13a"/><stop offset="1" stop-color="#f0b421"/></linearGradient><rect width="4" height="16" x="37" y="18" fill="url(#qbPOo1EYqhJ6yfIzJqhmJh)"/><linearGradient id="qbPOo1EYqhJ6yfIzJqhmJi" x1="16.866" x2="21.134" y1="18.036" y2="33.964" gradientUnits="userSpaceOnUse"><stop offset="0" stop-color="#ffcf54"/><stop offset=".261" stop-color="#fdcb4d"/><stop offset=".639" stop-color="#f7c13a"/><stop offset="1" stop-color="#f0b421"/></linearGradient><rect width="4" height="16" x="17" y="18" fill="url(#qbPOo1EYqhJ6yfIzJqhmJi)"/><linearGradient id="qbPOo1EYqhJ6yfIzJqhmJj" x1="6.866" x2="11.134" y1="18.036" y2="33.964" gradientUnits="userSpaceOnUse"><stop offset="0" stop-color="#ffcf54"/><stop offset=".261" stop-color="#fdcb4d"/><stop offset=".639" stop-color="#f7c13a"/><stop offset="1" stop-color="#f0b421"/></linearGradient><rect width="4" height="16" x="7" y="18" fill="url(#qbPOo1EYqhJ6yfIzJqhmJj)"/><linearGradient id="qbPOo1EYqhJ6yfIzJqhmJk" x1="29" x2="29" y1="34" y2="36" gradientUnits="userSpaceOnUse"><stop offset="0" stop-color="#ffcf54"/><stop offset=".261" stop-color="#fdcb4d"/><stop offset=".639" stop-color="#f7c13a"/><stop offset="1" stop-color="#f0b421"/></linearGradient><path fill="url(#qbPOo1EYqhJ6yfIzJqhmJk)" d="M31,34h-4c-0.552,0-1,0.448-1,1v1h6v-1C32,34.448,31.552,34,31,34z"/><linearGradient id="qbPOo1EYqhJ6yfIzJqhmJl" x1="39" x2="39" y1="34" y2="36" gradientUnits="userSpaceOnUse"><stop offset="0" stop-color="#ffcf54"/><stop offset=".261" stop-color="#fdcb4d"/><stop offset=".639" stop-color="#f7c13a"/><stop offset="1" stop-color="#f0b421"/></linearGradient><path fill="url(#qbPOo1EYqhJ6yfIzJqhmJl)" d="M41,34h-4c-0.552,0-1,0.448-1,1v1h6v-1C42,34.448,41.552,34,41,34z"/><linearGradient id="qbPOo1EYqhJ6yfIzJqhmJm" x1="19" x2="19" y1="34" y2="36" gradientUnits="userSpaceOnUse"><stop offset="0" stop-color="#ffcf54"/><stop offset=".261" stop-color="#fdcb4d"/><stop offset=".639" stop-color="#f7c13a"/><stop offset="1" stop-color="#f0b421"/></linearGradient><path fill="url(#qbPOo1EYqhJ6yfIzJqhmJm)" d="M21,34h-4c-0.552,0-1,0.448-1,1v1h6v-1C22,34.448,21.552,34,21,34z"/><linearGradient id="qbPOo1EYqhJ6yfIzJqhmJn" x1="9" x2="9" y1="34" y2="36" gradientUnits="userSpaceOnUse"><stop offset="0" stop-color="#ffcf54"/><stop offset=".261" stop-color="#fdcb4d"/><stop offset=".639" stop-color="#f7c13a"/><stop offset="1" stop-color="#f0b421"/></linearGradient><path fill="url(#qbPOo1EYqhJ6yfIzJqhmJn)" d="M11,34H7c-0.552,0-1,0.448-1,1v1h6v-1C12,34.448,11.552,34,11,34z"/><linearGradient id="qbPOo1EYqhJ6yfIzJqhmJo" x1="29" x2="29" y1="18" y2="16" gradientUnits="userSpaceOnUse"><stop offset="0" stop-color="#ffcf54"/><stop offset=".261" stop-color="#fdcb4d"/><stop offset=".639" stop-color="#f7c13a"/><stop offset="1" stop-color="#f0b421"/></linearGradient><path fill="url(#qbPOo1EYqhJ6yfIzJqhmJo)" d="M32,16h-6v1c0,0.552,0.448,1,1,1h4c0.552,0,1-0.448,1-1V16z"/><linearGradient id="qbPOo1EYqhJ6yfIzJqhmJp" x1="39" x2="39" y1="18" y2="16" gradientUnits="userSpaceOnUse"><stop offset="0" stop-color="#ffcf54"/><stop offset=".261" stop-color="#fdcb4d"/><stop offset=".639" stop-color="#f7c13a"/><stop offset="1" stop-color="#f0b421"/></linearGradient><path fill="url(#qbPOo1EYqhJ6yfIzJqhmJp)" d="M42,16h-6v1c0,0.552,0.448,1,1,1h4c0.552,0,1-0.448,1-1V16z"/><linearGradient id="qbPOo1EYqhJ6yfIzJqhmJq" x1="19" x2="19" y1="18" y2="16" gradientUnits="userSpaceOnUse"><stop offset="0" stop-color="#ffcf54"/><stop offset=".261" stop-color="#fdcb4d"/><stop offset=".639" stop-color="#f7c13a"/><stop offset="1" stop-color="#f0b421"/></linearGradient><path fill="url(#qbPOo1EYqhJ6yfIzJqhmJq)" d="M22,16h-6v1c0,0.552,0.448,1,1,1h4c0.552,0,1-0.448,1-1V16z"/><linearGradient id="qbPOo1EYqhJ6yfIzJqhmJr" x1="9" x2="9" y1="18" y2="16" gradientUnits="userSpaceOnUse"><stop offset="0" stop-color="#ffcf54"/><stop offset=".261" stop-color="#fdcb4d"/><stop offset=".639" stop-color="#f7c13a"/><stop offset="1" stop-color="#f0b421"/></linearGradient><path fill="url(#qbPOo1EYqhJ6yfIzJqhmJr)" d="M12,16H6v1c0,0.552,0.448,1,1,1h4c0.552,0,1-0.448,1-1V16z"/></svg>