<svg xmlns="http://www.w3.org/2000/svg" viewBox="0 0 48 48"><path fill="#ff9cbe" d="M39,28H9v13c0,1.105,0.895,2,2,2h26c1.105,0,2-0.895,2-2V28z"/><path fill="#50e6ff" d="M39,16v12H9V7c0-1.105,0.895-2,2-2h17L39,16z"/><linearGradient id="D5L3SOErRIMB3JX6aZayQa" x1="28.529" x2="33.6" y1="15.472" y2="10.4" gradientUnits="userSpaceOnUse"><stop offset="0" stop-color="#3079d6"/><stop offset="1" stop-color="#297cd2"/></linearGradient><path fill="url(#D5L3SOErRIMB3JX6aZayQa)" d="M28,5v9c0,1.105,0.895,2,2,2h9L28,5z"/><path fill="#057093" d="M33.5,21h-19c-0.276,0-0.5-0.224-0.5-0.5v-1c0-0.276,0.224-0.5,0.5-0.5h19c0.276,0,0.5,0.224,0.5,0.5	v1C34,20.776,33.776,21,33.5,21z"/><path fill="#057093" d="M33.5,25h-19c-0.276,0-0.5-0.224-0.5-0.5v-1c0-0.276,0.224-0.5,0.5-0.5h19c0.276,0,0.5,0.224,0.5,0.5	v1C34,24.776,33.776,25,33.5,25z"/><path fill="#ad1f4e" d="M33.5,33h-19c-0.276,0-0.5-0.224-0.5-0.5v-1c0-0.276,0.224-0.5,0.5-0.5h19c0.276,0,0.5,0.224,0.5,0.5	v1C34,32.776,33.776,33,33.5,33z"/><path fill="#cf1928" d="M44,29H4c-0.553,0-1-0.447-1-1s0.447-1,1-1h40c0.553,0,1,0.447,1,1S44.553,29,44,29z"/></svg>