<svg xmlns="http://www.w3.org/2000/svg" viewBox="0 0 48 48"><path fill="#50e6ff" d="M25,24v19h-7V24c0-0.552,0.448-1,1-1h5C24.552,23,25,23.448,25,24z"/><path fill="#35c1f1" d="M18,29v14h-7V30c0-0.552,0.448-1,1-1H18z"/><path fill="#199be2" d="M11,35v8H4v-7c0-0.552,0.448-1,1-1H11z"/><linearGradient id="N4opvZLqf4z_yQhDovirza" x1="34.651" x2="37.348" y1="657.716" y2="650.285" gradientTransform="matrix(1 0 0 -1 0 662)" gradientUnits="userSpaceOnUse"><stop offset="0" stop-color="#ffcf54"/><stop offset=".261" stop-color="#fdcb4d"/><stop offset=".639" stop-color="#f7c13a"/><stop offset="1" stop-color="#f0b421"/></linearGradient><path fill="url(#N4opvZLqf4z_yQhDovirza)" d="M36,12c-2.2,0-4-1.8-4-4s1.8-4,4-4s4,1.8,4,4S38.2,12,36,12"/><path fill="#0d61a9" d="M32,28v13c0,1.105,0.895,2,2,2s2.895,0,4,0s2-0.895,2-2V28H32z"/><linearGradient id="N4opvZLqf4z_yQhDovirzb" x1="34.659" x2="36.494" y1="647.868" y2="638.173" gradientTransform="matrix(1 0 0 -1 0 662)" gradientUnits="userSpaceOnUse"><stop offset="0" stop-color="#32bdef"/><stop offset="1" stop-color="#1ea2e4"/></linearGradient><path fill="url(#N4opvZLqf4z_yQhDovirzb)" d="M29,23v-3c0-3.314,2.686-6,6-6h2c3.314,0,6,2.686,6,6v3H29z"/><linearGradient id="N4opvZLqf4z_yQhDovirzc" x1="34.471" x2="37.513" y1="647.719" y2="631.649" gradientTransform="matrix(1 0 0 -1 0 662)" gradientUnits="userSpaceOnUse"><stop offset="0" stop-color="#32bdef"/><stop offset="1" stop-color="#1ea2e4"/></linearGradient><path fill="url(#N4opvZLqf4z_yQhDovirzc)" d="M37,14h-2c-1.657,0-3,1.343-3,3v11h8V17C40,15.343,38.657,14,37,14z"/><linearGradient id="N4opvZLqf4z_yQhDovirzd" x1="40.23" x2="43.904" y1="639.411" y2="631.247" gradientTransform="matrix(1 0 0 -1 0 662)" gradientUnits="userSpaceOnUse"><stop offset="0" stop-color="#ffcf54"/><stop offset=".261" stop-color="#fdcb4d"/><stop offset=".639" stop-color="#f7c13a"/><stop offset="1" stop-color="#f0b421"/></linearGradient><path fill="url(#N4opvZLqf4z_yQhDovirzd)" d="M43,21h-3c0,0,0,8.221,0,8.5c0,0.828,0.672,1.5,1.5,1.5s1.5-0.672,1.5-1.5	C43,29.221,43,33.279,43,21z"/><linearGradient id="N4opvZLqf4z_yQhDovirze" x1="29.23" x2="32.904" y1="639.411" y2="631.247" gradientTransform="matrix(1 0 0 -1 0 662)" gradientUnits="userSpaceOnUse"><stop offset="0" stop-color="#ffcf54"/><stop offset=".261" stop-color="#fdcb4d"/><stop offset=".639" stop-color="#f7c13a"/><stop offset="1" stop-color="#f0b421"/></linearGradient><path fill="url(#N4opvZLqf4z_yQhDovirze)" d="M32,21h-3c0,0,0,8.221,0,8.5c0,0.828,0.672,1.5,1.5,1.5s1.5-0.672,1.5-1.5	C32,29.221,32,33.279,32,21z"/><path fill="#50e6ff" d="M5.293,19.05L15.799,8.544l2.657,2.657L7.95,21.707c-0.391,0.391-1.024,0.391-1.414,0l-1.243-1.243	C4.902,20.074,4.902,19.441,5.293,19.05z"/><path fill="#50e6ff" d="M20,14.793V8c0-0.552-0.448-1-1-1h-6.793c-0.445,0-0.669,0.539-0.354,0.854l7.293,7.293	C19.461,15.461,20,15.238,20,14.793z"/></svg>