<svg xmlns="http://www.w3.org/2000/svg" viewBox="0 0 48 48"><path fill="#e3a600" d="M24,44C13.55,44,5,35.45,5,25S13.55,6,24,6s19,8.55,19,19S34.45,44,24,44z M24,10	c-8.25,0-15,6.75-15,15s6.75,15,15,15s15-6.75,15-15S32.25,10,24,10z"/><path fill="#1976d2" d="M17,4l4-3h6l4,3l-6,6h-2L17,4z"/><path fill="#0d62ab" d="M27,4h4l-6,6L27,4z"/><path fill="#50e6ff" d="M17,4h4V1L17,4z"/><path fill="#0078d4" d="M27,4V1h-6v3l2,6h2L27,4z"/><path fill="#35c1f1" d="M17,4h4l2,6L17,4z"/><path fill="#199be2" d="M21,4l3-3l3,3H21z"/></svg>