<svg xmlns="http://www.w3.org/2000/svg" viewBox="0 0 48 48"><linearGradient id="4Oqw_oW1tB8K3i4U9Sh7Ca" x1="24.721" x2="27.276" y1="-.456" y2="16.435" gradientUnits="userSpaceOnUse"><stop offset="0" stop-color="#1d59b3"/><stop offset="1" stop-color="#195bbc"/></linearGradient><path fill="url(#4Oqw_oW1tB8K3i4U9Sh7Ca)" d="M38,16H14c-1.105,0-2-0.895-2-2V2c0-1.105,0.895-2,2-2h24c1.105,0,2,0.895,2,2v12	C40,15.105,39.105,16,38,16z"/><linearGradient id="4Oqw_oW1tB8K3i4U9Sh7Cb" x1="14.387" x2="22.017" y1="7.997" y2="7.997" gradientUnits="userSpaceOnUse"><stop offset="0" stop-color="#3079d6"/><stop offset="1" stop-color="#297cd2"/></linearGradient><path fill="url(#4Oqw_oW1tB8K3i4U9Sh7Cb)" d="M21.704,11.997h-1.156c-0.217,0-0.41-0.141-0.476-0.348l-0.458-1.432h-2.845l-0.453,1.431	c-0.066,0.208-0.259,0.349-0.477,0.349H14.7c-0.217,0-0.368-0.216-0.294-0.42l2.64-7.251c0.072-0.198,0.26-0.329,0.47-0.329h1.434	c0.212,0,0.4,0.133,0.471,0.332l2.578,7.25C22.071,11.783,21.92,11.997,21.704,11.997z M19.202,8.834l-0.859-2.689l-0.318-0.022	l-0.87,2.711H19.202z"/><linearGradient id="4Oqw_oW1tB8K3i4U9Sh7Cc" x1="23.2" x2="30.297" y1="8" y2="8" gradientUnits="userSpaceOnUse"><stop offset="0" stop-color="#3079d6"/><stop offset="1" stop-color="#297cd2"/></linearGradient><path fill="url(#4Oqw_oW1tB8K3i4U9Sh7Cc)" d="M23.2,11.5v-7c0-0.276,0.224-0.5,0.5-0.5h2.334c2.841,0,4.262,1.3,4.262,3.9	c0,1.246-0.388,2.241-1.163,2.985S27.325,12,26.034,12H23.7C23.424,12,23.2,11.776,23.2,11.5z M25.002,5.467v5.071h0.893	c0.781,0,1.394-0.234,1.838-0.703C28.178,9.367,28.4,8.729,28.4,7.922c0-0.762-0.22-1.362-0.661-1.799	c-0.441-0.437-1.059-0.656-1.855-0.656H25.002z"/><linearGradient id="4Oqw_oW1tB8K3i4U9Sh7Cd" x1="31.674" x2="37.2" y1="8" y2="8" gradientUnits="userSpaceOnUse"><stop offset="0" stop-color="#3079d6"/><stop offset="1" stop-color="#297cd2"/></linearGradient><path fill="url(#4Oqw_oW1tB8K3i4U9Sh7Cd)" d="M31.708,11.532v-1.123c0-0.199,0.218-0.315,0.386-0.208c0.407,0.259,1.027,0.537,1.832,0.537	c0.228,0,1.365-0.008,1.365-0.814c0-1.427-3.617-1.057-3.617-3.695c0-1.265,0.881-2.392,3.162-2.392c0.91,0,1.484,0.133,1.815,0.24	c0.118,0.038,0.195,0.149,0.195,0.274l0,1.054c0,0.183-0.186,0.305-0.352,0.227c-0.351-0.165-0.917-0.368-1.558-0.368	c-0.206,0-1.353,0.045-1.353,0.814c0,1.349,3.617,1.042,3.617,3.684c0,1.505-1.048,2.404-3.195,2.404	c-1.114,0-1.774-0.212-2.129-0.369C31.772,11.749,31.708,11.646,31.708,11.532z"/><path d="M22,8.5C22,6.567,20.433,5,18.5,5S15,6.567,15,8.5c0,0.171,0,7.5,0,7.5h7C22,16,22,8.671,22,8.5z" opacity=".05"/><linearGradient id="4Oqw_oW1tB8K3i4U9Sh7Ce" x1="68.719" x2="68.721" y1="-628.797" y2="-628.797" gradientTransform="scale(1 -1) rotate(-9.317 3703.948 52.425)" gradientUnits="userSpaceOnUse"><stop offset="0" stop-color="#ffc430"/><stop offset=".57" stop-color="#f8bd29"/><stop offset="1" stop-color="#f0b421"/></linearGradient><path fill="url(#4Oqw_oW1tB8K3i4U9Sh7Ce)" d="M6.36,31.275c0.001-0.007,0.004-0.012,0.005-0.019l-0.002-0.001L6.36,31.275z"/><path d="M18.5,5.5c-1.657,0-3,1.343-3,3V16h6V8.5C21.5,6.843,20.157,5.5,18.5,5.5z" opacity=".07"/><linearGradient id="4Oqw_oW1tB8K3i4U9Sh7Cf" x1="17.991" x2="42.564" y1="-585.044" y2="-610.562" gradientTransform="matrix(1 0 0 -1 0 -562)" gradientUnits="userSpaceOnUse"><stop offset="0" stop-color="#ffc430"/><stop offset=".41" stop-color="#fec130"/><stop offset=".72" stop-color="#fcb730"/><stop offset=".998" stop-color="#f7a72f"/><stop offset="1" stop-color="#f7a72f"/></linearGradient><path fill="url(#4Oqw_oW1tB8K3i4U9Sh7Cf)" d="M33.738,20.902L21,19V8.643c0-1.308-0.941-2.499-2.242-2.63C17.261,5.863,16,7.034,16,8.5	c0,0.237,0,32.468,0,32.468c1.461,1.3,3.347,2.032,5.314,2.032H32c3.314,0,6-2.686,6-6V25.847	C38,23.371,36.188,21.268,33.738,20.902z"/><linearGradient id="4Oqw_oW1tB8K3i4U9Sh7Cg" x1="21.912" x2="20.163" y1="-583.981" y2="-583.029" gradientTransform="matrix(1 0 0 -1 0 -562)" gradientUnits="userSpaceOnUse"><stop offset=".282" stop-color="#ffc430"/><stop offset=".401" stop-color="#f8bd2d"/><stop offset=".574" stop-color="#e5aa23"/><stop offset=".78" stop-color="#c58a14"/><stop offset="1" stop-color="#9c6000"/></linearGradient><polygon fill="url(#4Oqw_oW1tB8K3i4U9Sh7Cg)" points="21,19 21,25 23.61,19.39"/><circle cx="18.5" cy="8.5" r="1.5" fill="#fff0c9"/><linearGradient id="4Oqw_oW1tB8K3i4U9Sh7Ch" x1="-42.984" x2="-34.537" y1="-1604.152" y2="-1595.822" gradientTransform="matrix(1 0 0 -1 52.373 -1570.646)" gradientUnits="userSpaceOnUse"><stop offset=".282" stop-color="#ffc430"/><stop offset=".401" stop-color="#f8bd2d"/><stop offset=".574" stop-color="#e5aa23"/><stop offset=".78" stop-color="#c58a14"/><stop offset="1" stop-color="#9c6000"/></linearGradient><path fill="url(#4Oqw_oW1tB8K3i4U9Sh7Ch)" d="M6.023,24c-1.72,0-2.498,1.068-2.498,2.492L15.61,40.621 c0.124,0.124,0.259,0.236,0.389,0.352V26.268c-2.273,3.88-3.939,0.407-5.67,0.81C10.33,27.078,9.61,24,6.023,24z"/></svg>