<svg xmlns="http://www.w3.org/2000/svg" viewBox="0 0 48 48"><linearGradient id="Pykm~EgnFbq6jDiyPDJmna" x1="17" x2="44" y1="17.5" y2="17.5" gradientUnits="userSpaceOnUse"><stop offset="0" stop-color="#c965eb"/><stop offset="1" stop-color="#c767e5"/></linearGradient><path fill="url(#Pykm~EgnFbq6jDiyPDJmna)" d="M30.5,31C23.1,31,17,24.9,17,17.5S23.1,4,30.5,4S44,10.1,44,17.5S37.9,31,30.5,31z M30.5,8	c-5.2,0-9.5,4.3-9.5,9.5s4.3,9.5,9.5,9.5s9.5-4.3,9.5-9.5S35.7,8,30.5,8z"/><linearGradient id="Pykm~EgnFbq6jDiyPDJmnb" x1="10" x2="37" y1="24.5" y2="24.5" gradientUnits="userSpaceOnUse"><stop offset="0" stop-color="#ae4cd5"/><stop offset="1" stop-color="#ac4ad5"/></linearGradient><path fill="url(#Pykm~EgnFbq6jDiyPDJmnb)" d="M37,24.5C37,32,31,38,23.5,38S10,32,10,24.5S16,11,23.5,11S37,17,37,24.5z"/><linearGradient id="Pykm~EgnFbq6jDiyPDJmnc" x1="4" x2="31" y1="30.5" y2="30.5" gradientUnits="userSpaceOnUse"><stop offset="0" stop-color="#7819a2"/><stop offset="1" stop-color="#771aa9"/></linearGradient><path fill="url(#Pykm~EgnFbq6jDiyPDJmnc)" d="M31,30.5C31,38,25,44,17.5,44S4,38,4,30.5S10,17,17.5,17S31,23,31,30.5z"/></svg>