<svg xmlns="http://www.w3.org/2000/svg" viewBox="0 0 48 48"><linearGradient id="IYjFYO2~WDrfio7HPPS1Ba" x1="21.231" x2="26.606" y1="1386.444" y2="1416.639" gradientTransform="translate(0 -1378)" gradientUnits="userSpaceOnUse"><stop offset="0" stop-color="#0370c8"/><stop offset=".484" stop-color="#036fc5"/><stop offset=".775" stop-color="#036abd"/><stop offset="1" stop-color="#0362b0"/></linearGradient><path fill="url(#IYjFYO2~WDrfio7HPPS1Ba)" d="M7,9h34c1.105,0,2,0.895,2,2v26c0,1.105-0.895,2-2,2H7c-1.105,0-2-0.895-2-2V11	C5,9.895,5.895,9,7,9z"/><path d="M22,29c0-3.314-2.686-6-6-6s-6,2.686-6,6v3c0,1.105,0.895,2,2,2h8	c1.105,0,2-0.895,2-2V29z" opacity=".05"/><path d="M16,23.5c-3.038,0-5.5,2.462-5.5,5.5c0,0.114,0,3,0,3	c0,0.828,0.672,1.5,1.5,1.5h8c0.828,0,1.5-0.672,1.5-1.5c0,0,0-2.897,0-3C21.5,25.962,19.038,23.5,16,23.5z" opacity=".07"/><path d="M36,21c-0.366,0-9.634,0-10,0c-1.105,0-2,0.895-2,2s0.895,2,2,2	c0.366,0,9.634,0,10,0c1.105,0,2-0.895,2-2S37.105,21,36,21z" opacity=".05"/><path d="M26,21.5c-0.828,0-1.5,0.672-1.5,1.5l0,0c0,0.828,0.672,1.5,1.5,1.5	c0.183,0,9.817,0,10,0c0.828,0,1.5-0.672,1.5-1.5l0,0c0-0.828-0.672-1.5-1.5-1.5C35.817,21.5,26.183,21.5,26,21.5z" opacity=".07"/><path d="M43,28.2V37c0,1.1-0.9,2-2,2H27.05C27.02,38.67,27,38.34,27,38	c0-3.03,1.28-5.93,3.47-8H26c-1.1,0-2-0.9-2-2s0.9-2,2-2h10c0.72,0,1.38,0.39,1.73,1.01C37.82,27,37.91,27,38,27	C39.8,27,41.5,27.43,43,28.2z" opacity=".05"/><path d="M43,28.77V37c0,1.1-0.9,2-2,2H27.54c-0.02-0.33-0.04-0.66-0.04-1	c0-3.5,1.72-6.59,4.36-8.5H26c-0.83,0-1.5-0.67-1.5-1.5s0.67-1.5,1.5-1.5h10c0.66,0,1.22,0.43,1.42,1.03	c0.19-0.01,0.38-0.03,0.58-0.03C39.81,27.5,41.52,27.96,43,28.77z" opacity=".07"/><radialGradient id="IYjFYO2~WDrfio7HPPS1Bb" cx="16" cy="1397" r="4" gradientTransform="translate(0 -1378)" gradientUnits="userSpaceOnUse"><stop offset="0"/><stop offset=".009" stop-opacity=".991"/><stop offset="1" stop-opacity="0"/></radialGradient><circle cx="16" cy="19" r="4" fill="url(#IYjFYO2~WDrfio7HPPS1Bb)"/><linearGradient id="IYjFYO2~WDrfio7HPPS1Bc" x1="23.289" x2="24.843" y1="1383.034" y2="1391.704" gradientTransform="translate(0 -1378)" gradientUnits="userSpaceOnUse"><stop offset="0" stop-color="#75daff"/><stop offset="1" stop-color="#1ea2e4"/></linearGradient><path fill="url(#IYjFYO2~WDrfio7HPPS1Bc)" d="M27,5h-6c-0.552,0-1,0.448-1,1v6c0,0.552,0.448,1,1,1h6c0.552,0,1-0.448,1-1V6	C28,5.448,27.552,5,27,5z M24,11c-0.552,0-1-0.448-1-1s0.448-1,1-1s1,0.448,1,1S24.552,11,24,11z"/><linearGradient id="IYjFYO2~WDrfio7HPPS1Bd" x1="13.594" x2="16.499" y1="1394.42" y2="1411.212" gradientTransform="translate(0 -1378)" gradientUnits="userSpaceOnUse"><stop offset="0" stop-color="#75daff"/><stop offset="1" stop-color="#1ea2e4"/></linearGradient><path fill="url(#IYjFYO2~WDrfio7HPPS1Bd)" d="M13,19c0-1.657,1.343-3,3-3s3,1.343,3,3s-1.343,3-3,3S13,20.657,13,19z M16,24	c-2.761,0-5,2.239-5,5v3c0,0.552,0.448,1,1,1h8c0.552,0,1-0.448,1-1v-3C21,26.239,18.761,24,16,24z"/><path fill="#75daff" d="M36,27H26c-0.552,0-1,0.448-1,1l0,0c0,0.552,0.448,1,1,1h10c0.552,0,1-0.448,1-1l0,0	C37,27.448,36.552,27,36,27z"/><path fill="#75daff" d="M36,22H26c-0.552,0-1,0.448-1,1l0,0c0,0.552,0.448,1,1,1h10c0.552,0,1-0.448,1-1l0,0	C37,22.448,36.552,22,36,22z"/><path d="M37,28c0,0.55-0.45,1-1,1h-4.32c1.39-0.98,3.01-1.64,4.77-1.89	c0.19,0.1,0.35,0.26,0.44,0.45C36.96,27.69,37,27.84,37,28z" opacity=".05"/><path d="M37,28c0,0.55-0.45,1-1,1h-3.4c1.28-0.77,2.73-1.28,4.29-1.44	C36.96,27.69,37,27.84,37,28z" opacity=".07"/><linearGradient id="IYjFYO2~WDrfio7HPPS1Be" x1="30.929" x2="45.071" y1="1408.929" y2="1423.071" gradientTransform="translate(0 -1378)" gradientUnits="userSpaceOnUse"><stop offset="0" stop-color="#21ad64"/><stop offset="1" stop-color="#088242"/></linearGradient><path fill="url(#IYjFYO2~WDrfio7HPPS1Be)" d="M48,38c0,5.522-4.478,10-10,10s-10-4.478-10-10s4.478-10,10-10S48,32.478,48,38z"/><path fill="#fff" d="M36.646,42.354l-4-4c-0.195-0.195-0.195-0.512,0-0.707l0.707-0.707c0.195-0.195,0.512-0.195,0.707,0	L37,39.879l5.439-5.439c0.195-0.195,0.512-0.195,0.707,0l0.707,0.707c0.195,0.195,0.195,0.512,0,0.707l-6.5,6.5	C37.158,42.549,36.842,42.549,36.646,42.354z"/></svg>