<svg xmlns="http://www.w3.org/2000/svg" viewBox="0 0 48 48"><linearGradient id="wBMF1D5CMyxiGhUVWyCLfa" x1="32.872" x2="32.872" y1="32.338" y2="42.994" gradientUnits="userSpaceOnUse"><stop offset="0" stop-color="#464eb0"/><stop offset="1" stop-color="#343b9e"/></linearGradient><polygon fill="url(#wBMF1D5CMyxiGhUVWyCLfa)" points="32.249,32.307 30.043,41.141 32.924,41.972 35.7,35"/><linearGradient id="wBMF1D5CMyxiGhUVWyCLfb" x1="31.5" x2="31.5" y1="32.087" y2="42.951" gradientUnits="userSpaceOnUse"><stop offset="0" stop-color="#464eb0"/><stop offset="1" stop-color="#343b9e"/></linearGradient><circle cx="31.5" cy="41.5" r="1.5" fill="url(#wBMF1D5CMyxiGhUVWyCLfb)"/><linearGradient id="wBMF1D5CMyxiGhUVWyCLfc" x1="34" x2="34" y1="14.05" y2="43.753" gradientUnits="userSpaceOnUse"><stop offset="0" stop-color="#7179d1"/><stop offset="1" stop-color="#5961c3"/></linearGradient><circle cx="34" cy="18" r="4" fill="url(#wBMF1D5CMyxiGhUVWyCLfc)"/><linearGradient id="wBMF1D5CMyxiGhUVWyCLfd" x1="39" x2="39" y1="14.05" y2="43.753" gradientUnits="userSpaceOnUse"><stop offset="0" stop-color="#7179d1"/><stop offset="1" stop-color="#5961c3"/></linearGradient><circle cx="39" cy="27" r="4" fill="url(#wBMF1D5CMyxiGhUVWyCLfd)"/><linearGradient id="wBMF1D5CMyxiGhUVWyCLfe" x1="36.53" x2="36.53" y1="14.05" y2="43.753" gradientUnits="userSpaceOnUse"><stop offset="0" stop-color="#7179d1"/><stop offset="1" stop-color="#5961c3"/></linearGradient><path fill="url(#wBMF1D5CMyxiGhUVWyCLfe)" d="M42.688,25.449l-5.166-9.346l-4.299,0.169l-2.852,3.407l5.328,9.582L42.688,25.449z"/><linearGradient id="wBMF1D5CMyxiGhUVWyCLff" x1="27.805" x2="27.805" y1="14.611" y2="42.639" gradientUnits="userSpaceOnUse"><stop offset="0" stop-color="#7179d1"/><stop offset="1" stop-color="#5961c3"/></linearGradient><path fill="url(#wBMF1D5CMyxiGhUVWyCLff)" d="M28.031,24L21.5,24v-3l6.023-0.455l3.086-4.668c0,0,4.225,1.741,3.391,2.983l-3.741,4.148	C29.691,23.64,28.881,24,28.031,24z"/><linearGradient id="wBMF1D5CMyxiGhUVWyCLfg" x1="37.042" x2="37.042" y1="14.05" y2="43.753" gradientUnits="userSpaceOnUse"><stop offset="0" stop-color="#7179d1"/><stop offset="1" stop-color="#5961c3"/></linearGradient><path fill="url(#wBMF1D5CMyxiGhUVWyCLfg)" d="M39.33,42.439l2.355-1.857l-4.085-7.25l3.956-3.254l-4.094-5.727l-5.063,6.797l0.074,2.816	L39.33,42.439z"/><linearGradient id="wBMF1D5CMyxiGhUVWyCLfh" x1="40.5" x2="40.5" y1="14.05" y2="43.753" gradientUnits="userSpaceOnUse"><stop offset="0" stop-color="#7179d1"/><stop offset="1" stop-color="#5961c3"/></linearGradient><circle cx="40.5" cy="41.5" r="1.5" fill="url(#wBMF1D5CMyxiGhUVWyCLfh)"/><linearGradient id="wBMF1D5CMyxiGhUVWyCLfi" x1="21.5" x2="21.5" y1="14.05" y2="43.753" gradientUnits="userSpaceOnUse"><stop offset="0" stop-color="#7179d1"/><stop offset="1" stop-color="#5961c3"/></linearGradient><circle cx="21.5" cy="22.5" r="1.5" fill="url(#wBMF1D5CMyxiGhUVWyCLfi)"/><linearGradient id="wBMF1D5CMyxiGhUVWyCLfj" x1="34.5" x2="34.5" y1="14.05" y2="43.753" gradientUnits="userSpaceOnUse"><stop offset="0" stop-color="#7179d1"/><stop offset="1" stop-color="#5961c3"/></linearGradient><circle cx="34.5" cy="32.5" r="2.5" fill="url(#wBMF1D5CMyxiGhUVWyCLfj)"/><path fill="#565b5e" d="M16,43h6c0.552,0,1-0.448,1-1v-5h-8v5C15,42.552,15.448,43,16,43z"/><path fill="#d9414f" d="M21.8,22.4L20,20l-2.243-8.97C17.312,9.249,15.712,8,13.877,8H5v31h16c1.105,0,2-0.895,2-2V26	C23,24.702,22.579,23.438,21.8,22.4z"/><linearGradient id="wBMF1D5CMyxiGhUVWyCLfk" x1="5" x2="18.25" y1="15.5" y2="15.5" gradientUnits="userSpaceOnUse"><stop offset="0" stop-color="#3079d6"/><stop offset="1" stop-color="#297cd2"/></linearGradient><path fill="url(#wBMF1D5CMyxiGhUVWyCLfk)" d="M5,21h13.25l-0.092-0.123l-0.098-0.392l-2.243-8.97C15.594,10.623,14.796,10,13.877,10H5V21z"/><circle cx="16.5" cy="27.5" r="2.5" fill="#fff"/><linearGradient id="wBMF1D5CMyxiGhUVWyCLfl" x1="27.42" x2="33.596" y1="6.42" y2="12.596" gradientUnits="userSpaceOnUse"><stop offset="0" stop-color="#ffcf54"/><stop offset=".261" stop-color="#fdcb4d"/><stop offset=".639" stop-color="#f7c13a"/><stop offset="1" stop-color="#f0b421"/></linearGradient><path fill="url(#wBMF1D5CMyxiGhUVWyCLfl)" d="M26,9c0,2.208,1.79,4,3.998,4C32.211,13,34,11.208,34,9s-1.789-4-4.002-4	C27.79,5,26,6.792,26,9z"/><path fill="#cf1928" d="M5,30v5h2.646c0.818,0,1.553-0.498,1.857-1.257L11,30H5z"/></svg>