<svg xmlns="http://www.w3.org/2000/svg" data-name="Слой 1" viewBox="0 0 48 48"><defs><linearGradient id="vnTEUFu9yUR_xv5hd6jEga" x1="15.478" x2="34.518" y1=".586" y2="52.898" gradientUnits="userSpaceOnUse"><stop offset=".002" stop-color="#427fdb"/><stop offset=".397" stop-color="#2668cb"/><stop offset=".763" stop-color="#1358bf"/><stop offset="1" stop-color="#0c52bb"/></linearGradient></defs><circle cx="24" cy="24" r="20" fill="url(#vnTEUFu9yUR_xv5hd6jEga)"/><path fill="#fff" d="M35,16H27a2.00006,2.00006,0,0,1-2,2H23a2.00006,2.00006,0,0,1-2-2H13a2,2,0,0,0-2,2V33a2.00591,2.00591,0,0,0,2,2H35a2.00006,2.00006,0,0,0,2-2V18A2.00583,2.00583,0,0,0,35,16ZM21,31a1,1,0,0,1-1,1H15a1,1,0,0,1-1-1V28.5A3.5,3.5,0,0,1,17.5,25,2.5,2.5,0,1,1,20,22.5,2.5,2.5,0,0,1,17.5,25,3.5,3.5,0,0,1,21,28.5Zm12,1H26a1,1,0,0,1,0-2h7a1,1,0,0,1,0,2Zm0-5H26a1,1,0,0,1,0-2h7a1,1,0,0,1,0,2Zm0-5H26a1,1,0,0,1,0-2h7a1,1,0,0,1,0,2Z"/><rect width="4" height="5" x="22" y="12" fill="#fff" rx="1"/></svg>