<svg xmlns="http://www.w3.org/2000/svg" viewBox="0 0 48 48"><radialGradient id="pvtT8fMQA~cb8akSww4sXa" cx="24" cy="-1" r="19" gradientTransform="translate(0 24)" gradientUnits="userSpaceOnUse"><stop offset=".078" stop-color="#fff"/><stop offset=".202" stop-color="#fff5a3"/><stop offset=".216" stop-color="#fff392"/><stop offset=".263" stop-color="#ffee5f"/><stop offset=".307" stop-color="#ffea37"/><stop offset=".347" stop-color="#ffe71a"/><stop offset=".382" stop-color="#ffe508"/><stop offset=".408" stop-color="#ffe402"/><stop offset=".545" stop-color="#fdde02"/><stop offset=".736" stop-color="#f9cc01"/><stop offset=".956" stop-color="#f2af00"/><stop offset="1" stop-color="#f0a800"/></radialGradient><circle cx="24" cy="23" r="19" fill="url(#pvtT8fMQA~cb8akSww4sXa)"/><radialGradient id="pvtT8fMQA~cb8akSww4sXb" cx="21.677" cy="13.463" r="10.066" gradientTransform="translate(0 24)" gradientUnits="userSpaceOnUse"><stop offset="0" stop-color="#6e757b"/><stop offset="1" stop-color="#4a4e52"/></radialGradient><path fill="url(#pvtT8fMQA~cb8akSww4sXb)" d="M29,38H19c0,0.7,0,2,0,2c0,2.8,2.2,5,5,5s5-2.2,5-5C29,40,29,38.7,29,38z"/><path fill="#fefefe" d="M34,23c0-5.5-4.5-10-10-10s-10,4.5-10,10c0,5,5,9,5,14v1h10v-1C29,32,34,28,34,23z"/><path fill="#4a4e52" d="M28.199,26.681c0-4.112-6.071-3.309-6.071-5.739c0-1.268,1.426-1.336,1.872-1.336	c1.072,0,2.106,0.287,2.895,0.657c0.249,0.117,0.534-0.056,0.534-0.33v-1.197c0-0.401-0.151-0.639-0.392-0.733	c-0.541-0.21-1.317-0.364-2.465-0.402v-1.317c0-0.158-0.128-0.286-0.286-0.286h-0.571c-0.158,0-0.286,0.128-0.286,0.286v1.338	c-1.781,0.174-3.627,1.179-3.627,3.518c0,4.263,6.071,3.417,6.071,5.662c0,0.706-0.451,1.314-1.872,1.314	c-1.429,0-2.741-0.499-3.468-0.87C20.288,27.122,20,27.303,20,27.578v1.362c0,0.261,0.157,0.494,0.398,0.596	c0.861,0.366,2.015,0.642,3.031,0.723v1.455c0,0.158,0.128,0.286,0.286,0.286h0.571c0.158,0,0.286-0.128,0.286-0.286v-1.452	C27.236,30.04,28.199,28.256,28.199,26.681z"/></svg>