<svg xmlns="http://www.w3.org/2000/svg" viewBox="0 0 48 48"><linearGradient id="je53GglhJUoyoESThL_eia" x1="17.338" x2="43.505" y1="-73.201" y2="-123.474" gradientTransform="matrix(1 0 0 -1 0 -62)" gradientUnits="userSpaceOnUse"><stop offset="0" stop-color="#dfe9f2"/><stop offset=".998" stop-color="#9ea7b0"/></linearGradient><path fill="url(#je53GglhJUoyoESThL_eia)" d="M44,24c0-11.045-8.955-20-20-20S4,12.955,4,24s8.955,20,20,20S44,35.045,44,24z"/><linearGradient id="je53GglhJUoyoESThL_eib" x1="14.979" x2="38.644" y1="11.721" y2="43.934" gradientUnits="userSpaceOnUse"><stop offset="0" stop-color="#0d61a9"/><stop offset="1" stop-color="#16528c"/></linearGradient><path fill="url(#je53GglhJUoyoESThL_eib)" d="M35.964,8C33.127,5.875,29.72,4.47,26,4.101V8H35.964z M26,17h16.716	c-0.529-1.415-1.201-2.758-2.021-4H26V17z M26,26h17.899C43.964,25.342,44,24.675,44,24s-0.036-1.342-0.101-2H26V26z M42.716,31	H5.284c0.529,1.415,1.201,2.758,2.021,4h33.39C41.515,33.758,42.186,32.415,42.716,31z M13,17H5.284C4.468,19.182,4,21.533,4,24	c0,0.675,0.036,1.342,0.101,2H13V17z M13,7.305C10.738,8.799,8.799,10.738,7.305,13H13V7.305z M26,17h-1h-8v9h8h1v-4V17z M25,13h1V8	V4.101C25.342,4.036,24.675,4,24,4c-2.467,0-4.818,0.468-7,1.284V13H25z M35.964,40H12.036c3.339,2.501,7.471,4,11.964,4	S32.625,42.501,35.964,40z"/></svg>