<svg xmlns="http://www.w3.org/2000/svg" viewBox="0 0 48 48"><linearGradient id="tz1YccH39pUSTeFet1mdYa" x1="26.677" x2="40.211" y1="19.738" y2="31.063" gradientUnits="userSpaceOnUse"><stop offset="0" stop-color="#ffc430"/><stop offset=".41" stop-color="#fec130"/><stop offset=".72" stop-color="#fcb730"/><stop offset=".998" stop-color="#f7a72f"/><stop offset="1" stop-color="#f7a72f"/></linearGradient><path fill="url(#tz1YccH39pUSTeFet1mdYa)" d="M37,7.107V17.56c0,0-0.142,0.44-0.5,0.44c-0.699,0-2.032-1-3-1c-1.089,0-2.507,0.5-3,0.5	s-1.419-1.5-3-1.5s-2.511,1.5-3,1.5c-0.49,0-1.738-0.501-3.004-0.5C20.115,17.001,19,18.133,19,19.514l0,19.454	C20.461,40.268,22.347,41,24.314,41H33c4.418,0,8-3.582,8-8V7c0-1.215-1.083-2.176-2.336-1.973C37.681,5.187,37,6.111,37,7.107z"/><linearGradient id="tz1YccH39pUSTeFet1mdYb" x1="636.545" x2="644.615" y1="1581.717" y2="1573.759" gradientTransform="translate(-624.127 -1550.146)" gradientUnits="userSpaceOnUse"><stop offset=".282" stop-color="#ffc430"/><stop offset=".401" stop-color="#f8bd2d"/><stop offset=".574" stop-color="#e5aa23"/><stop offset=".78" stop-color="#c58a14"/><stop offset="1" stop-color="#9c6000"/></linearGradient><path fill="url(#tz1YccH39pUSTeFet1mdYb)" d="M8.386,22.759C6.743,22.759,6,23.779,6,25.14l12.628,13.497 c0.119,0.119,0.247,0.226,0.372,0.337V24.926c-2.172,3.706-4.846,0.389-6.5,0.774C12.5,25.699,11.812,22.759,8.386,22.759z"/><linearGradient id="tz1YccH39pUSTeFet1mdYc" x1="28.001" x2="28.001" y1="28.735" y2="18.128" gradientUnits="userSpaceOnUse"><stop offset="0" stop-color="#ffc430"/><stop offset=".498" stop-color="#eaab2e"/><stop offset="1" stop-color="#d6922d"/></linearGradient><path fill="url(#tz1YccH39pUSTeFet1mdYc)" d="M24.5,28c0.47,0,0.5,1,0.5,1h5c0,0,0.026-1,0.5-1s0.5,1,0.5,1h5c0,0,0.098-5.803,1-11.377	c0.003-0.016,0-0.044,0-0.063c0,0-0.142,0.44-0.5,0.44c-0.699,0-2.032-1-3-1c-1.089,0-2.507,0.5-3,0.5s-1.419-1.5-3-1.5	s-2.511,1.5-3,1.5s-1.735-0.5-3-0.5c-1.381,0-2.5,1.119-2.5,2.5V29h5C24,29,24.03,28,24.5,28z"/><linearGradient id="tz1YccH39pUSTeFet1mdYd" x1="773.058" x2="773.061" y1="454.661" y2="454.661" gradientTransform="rotate(9.32 3000.637 -4450.306)" gradientUnits="userSpaceOnUse"><stop offset="0" stop-color="#ffc430"/><stop offset=".57" stop-color="#f8bd29"/><stop offset="1" stop-color="#f0b421"/></linearGradient><path fill="url(#tz1YccH39pUSTeFet1mdYd)" d="M8.36,29.275c0.001-0.007,0.004-0.012,0.005-0.019l-0.002-0.001L8.36,29.275z"/><radialGradient id="tz1YccH39pUSTeFet1mdYe" cx="33.5" cy="24.5" r="4.419" gradientTransform="matrix(1 0 0 1.9511 0 -23.301)" gradientUnits="userSpaceOnUse"><stop offset="0" stop-color="#ffc430"/><stop offset=".365" stop-color="#fdbe30"/><stop offset=".831" stop-color="#f9af2f"/><stop offset="1" stop-color="#f7a72f"/></radialGradient><path fill="url(#tz1YccH39pUSTeFet1mdYe)" d="M33.5,17c-1.38,0-2.5,1.12-2.5,2.5v10c0,1.38,1.12,2.5,2.5,2.5s2.5-1.12,2.5-2.5v-10	C36,18.12,34.88,17,33.5,17z"/><radialGradient id="tz1YccH39pUSTeFet1mdYf" cx="27.5" cy="24" r="4.246" gradientTransform="matrix(1 0 0 2.0168 0 -24.404)" gradientUnits="userSpaceOnUse"><stop offset="0" stop-color="#ffc430"/><stop offset=".365" stop-color="#fdbe30"/><stop offset=".831" stop-color="#f9af2f"/><stop offset="1" stop-color="#f7a72f"/></radialGradient><path fill="url(#tz1YccH39pUSTeFet1mdYf)" d="M27.5,16c-1.38,0-2.5,1.12-2.5,2.5v11c0,1.38,1.12,2.5,2.5,2.5s2.5-1.12,2.5-2.5v-11	C30,17.12,28.88,16,27.5,16z"/><radialGradient id="tz1YccH39pUSTeFet1mdYg" cx="21.5" cy="24" r="3.874" gradientTransform="matrix(1 0 0 1.9511 0 -22.826)" gradientUnits="userSpaceOnUse"><stop offset="0" stop-color="#ffc430"/><stop offset=".365" stop-color="#fdbe30"/><stop offset=".831" stop-color="#f9af2f"/><stop offset="1" stop-color="#f7a72f"/></radialGradient><path fill="url(#tz1YccH39pUSTeFet1mdYg)" d="M21.5,17c-1.38,0-2.5,1.12-2.5,2.5v9c0,1.38,1.12,2.5,2.5,2.5s2.5-1.12,2.5-2.5v-9	C24,18.12,22.88,17,21.5,17z"/><circle cx="33.5" cy="29.5" r="1.5" fill="#fff0c9"/><circle cx="27.5" cy="29.5" r="1.5" fill="#fff0c9"/><circle cx="21.5" cy="28.5" r="1.5" fill="#fff0c9"/></svg>