<svg xmlns="http://www.w3.org/2000/svg" viewBox="0 0 48 48"><linearGradient id="QBd_GmwsPchwM7zWYQ9Mla" x1="21.104" x2="39.047" y1="16.026" y2="46.288" gradientUnits="userSpaceOnUse"><stop offset="0" stop-color="#0176d0"/><stop offset="1" stop-color="#16538c"/></linearGradient><path fill="url(#QBd_GmwsPchwM7zWYQ9Mla)" d="M44.909,43.729l-3.657-8.32C42.367,33.355,43,31.001,43,28.5C43,20.492,36.508,14,28.5,14	S14,20.492,14,28.5S20.492,43,28.5,43c2.613,0,5.058-0.701,7.175-1.91l7.815,3.979C44.358,45.511,45.301,44.62,44.909,43.729z"/><linearGradient id="QBd_GmwsPchwM7zWYQ9Mlb" x1="27.679" x2="31.491" y1="24.144" y2="32.217" gradientUnits="userSpaceOnUse"><stop offset="0" stop-color="#199ae0"/><stop offset="1" stop-color="#0782d8"/></linearGradient><path fill="url(#QBd_GmwsPchwM7zWYQ9Mlb)" d="M21.5,29h16c0.276,0,0.5-0.224,0.5-0.5v-1c0-0.276-0.224-0.5-0.5-0.5h-16	c-0.276,0-0.5,0.224-0.5,0.5v1C21,28.776,21.224,29,21.5,29z"/><linearGradient id="QBd_GmwsPchwM7zWYQ9Mlc" x1="26.446" x2="29.699" y1="28.709" y2="35.599" gradientUnits="userSpaceOnUse"><stop offset="0" stop-color="#199ae0"/><stop offset="1" stop-color="#0782d8"/></linearGradient><path fill="url(#QBd_GmwsPchwM7zWYQ9Mlc)" d="M21.5,33h13c0.276,0,0.5-0.224,0.5-0.5v-1c0-0.276-0.224-0.5-0.5-0.5h-13	c-0.276,0-0.5,0.224-0.5,0.5v1C21,32.776,21.224,33,21.5,33z"/><radialGradient id="QBd_GmwsPchwM7zWYQ9Mld" cx="18.69" cy="16.741" r="16.113" gradientUnits="userSpaceOnUse"><stop offset=".627"/><stop offset="1" stop-opacity="0"/></radialGradient><path fill="url(#QBd_GmwsPchwM7zWYQ9Mld)" d="M14,28.5c0,1.383,0.206,2.715,0.567,3.982C15.854,32.808,17.193,33,18.58,33	c9.058,0,16.402-7.387,16.402-16.5c0-0.331-0.03-0.654-0.049-0.98C32.992,14.556,30.814,14,28.5,14C20.492,14,14,20.492,14,28.5z" opacity=".15"/><linearGradient id="QBd_GmwsPchwM7zWYQ9Mle" x1="9.997" x2="21.78" y1="5.934" y2="30.894" gradientUnits="userSpaceOnUse"><stop offset="0" stop-color="#33bef0"/><stop offset="1" stop-color="#22a5e2"/></linearGradient><path fill="url(#QBd_GmwsPchwM7zWYQ9Mle)" d="M18.5,3C11.044,3,5,9.044,5,16.5c0,2.059,0.474,4.002,1.299,5.748	c-0.013,0.03-0.029,0.054-0.04,0.088l-3.167,7.206c-0.392,0.892,0.551,1.783,1.419,1.341l6.369-3.243	C13.049,29.127,15.671,30,18.5,30C25.956,30,32,23.956,32,16.5C32,9.044,25.956,3,18.5,3z"/><linearGradient id="QBd_GmwsPchwM7zWYQ9Mlf" x1="16.679" x2="20.491" y1="10.144" y2="18.217" gradientUnits="userSpaceOnUse"><stop offset="0" stop-color="#199ae0"/><stop offset="1" stop-color="#0782d8"/></linearGradient><path fill="url(#QBd_GmwsPchwM7zWYQ9Mlf)" d="M10.5,15h16c0.276,0,0.5-0.224,0.5-0.5v-1c0-0.276-0.224-0.5-0.5-0.5h-16	c-0.276,0-0.5,0.224-0.5,0.5v1C10,14.776,10.224,15,10.5,15z"/><linearGradient id="QBd_GmwsPchwM7zWYQ9Mlg" x1="15.446" x2="18.699" y1="14.709" y2="21.599" gradientUnits="userSpaceOnUse"><stop offset="0" stop-color="#199ae0"/><stop offset="1" stop-color="#0782d8"/></linearGradient><path fill="url(#QBd_GmwsPchwM7zWYQ9Mlg)" d="M10.5,19h13c0.276,0,0.5-0.224,0.5-0.5v-1c0-0.276-0.224-0.5-0.5-0.5h-13	c-0.276,0-0.5,0.224-0.5,0.5v1C10,18.776,10.224,19,10.5,19z"/></svg>