<svg xmlns="http://www.w3.org/2000/svg" viewBox="0 0 48 48"><linearGradient id="qUVW_8hXILk2~YdaDYhCca" x1="7.498" x2="29.03" y1="7.866" y2="35.44" gradientUnits="userSpaceOnUse"><stop offset="0" stop-color="#5c65d6"/><stop offset=".999" stop-color="#464eb0"/></linearGradient><path fill="url(#qUVW_8hXILk2~YdaDYhCca)" d="M12.092,47.818c-1.038-0.372-3.342-1.199-3.814-1.385c-0.054-0.021-0.101-0.035-0.157-0.046	c-0.385-0.073-2.025-0.441-2.761-0.606c-0.235-0.053-0.437-0.189-0.577-0.385l-0.427-0.598c-0.218-0.305-0.242-0.707-0.063-1.036	l2.133-3.925c0.049-0.091,0.113-0.173,0.188-0.244l3.43-3.239c0.038-0.036,0.079-0.069,0.122-0.098l7.484-5.085	c0.164-0.111,0.29-0.269,0.362-0.454l1.415-3.626c0.049-0.126,0.124-0.241,0.22-0.336l1.41-1.41	c0.158-0.158,0.258-0.367,0.281-0.589l0.131-1.243c0.021-0.203,0.106-0.395,0.242-0.548l0.472-0.531	c0.449-0.505,1.262-0.414,1.588,0.177l0.441,0.8c0.268,0.485,0.885,0.652,1.36,0.366l0.589-0.353c0.33-0.198,0.744-0.184,1.06,0.035	l0.2,0.138c0.347,0.24,0.501,0.676,0.382,1.081l-0.192,0.652c-0.07,0.237-0.047,0.492,0.064,0.714L28,26.7l-2.481,4.485	c-0.078,0.141-0.189,0.26-0.325,0.348l-1.09,0.706c-0.255,0.165-0.418,0.438-0.444,0.74l-0.016,0.196	c-0.027,0.328,0.112,0.647,0.371,0.851l0.233,0.183c0.418,0.329,0.497,0.931,0.178,1.356l-0.109,0.145	c-0.14,0.187-0.343,0.317-0.571,0.368l-3.015,0.67c-0.152,0.034-0.294,0.104-0.414,0.203l-1.339,1.115	c-0.18,0.15-0.3,0.36-0.339,0.591l-0.413,2.477c-0.018,0.109-0.055,0.214-0.108,0.311l-2.025,3.681	c-0.063,0.114-0.147,0.214-0.249,0.295l-2.82,2.239C12.761,47.872,12.41,47.932,12.092,47.818z M31.605,25.794l-0.759-0.47	c-0.465-0.288-0.604-0.901-0.308-1.361l1.028-1.599c0.149-0.232,0.193-0.515,0.122-0.781l-0.564-2.117	c-0.078-0.294-0.289-0.534-0.569-0.651l-2.606-1.086c-0.337-0.141-0.568-0.458-0.599-0.822v0c-0.031-0.372,0.152-0.728,0.472-0.92	l1.607-0.964c0.236-0.142,0.402-0.377,0.456-0.647l0.472-2.362c0.028-0.141,0.025-0.286-0.009-0.425l-1.206-4.916	C29.114,6.558,29.066,6.45,29,6.353l-3.058-4.469c-0.37-0.541-0.115-1.285,0.509-1.484l0.45-0.144	c0.46-0.147,0.958,0.063,1.173,0.494l1.83,3.66c0.063,0.125,0.152,0.236,0.261,0.324l2.719,2.193	c0.141,0.114,0.247,0.264,0.308,0.434l0.865,2.438c0.091,0.256,0.284,0.463,0.534,0.571l2.799,1.21	c0.316,0.137,0.681,0.097,0.96-0.104l1.653-1.19c0.25-0.18,0.57-0.232,0.864-0.14l0.283,0.088c0.482,0.151,0.77,0.643,0.665,1.137	l-0.496,2.337c-0.013,0.061-0.032,0.121-0.056,0.178l-0.821,1.941c-0.148,0.349-0.484,0.582-0.864,0.596l-1.089,0.042	c-0.504,0.019-0.911,0.419-0.939,0.923l-0.04,0.722c-0.007,0.124-0.038,0.247-0.09,0.36l-2.003,4.292	c-0.011,0.024-0.024,0.048-0.037,0.072l-1.048,1.833c-0.087,0.152-0.212,0.277-0.364,0.364l-1.363,0.779	C32.294,25.989,31.91,25.982,31.605,25.794z"/><linearGradient id="qUVW_8hXILk2~YdaDYhCcb" x1="26.929" x2="41.071" y1="-318.929" y2="-333.071" gradientTransform="matrix(1 0 0 -1 0 -290)" gradientUnits="userSpaceOnUse"><stop offset="0" stop-color="#75daff"/><stop offset="1" stop-color="#1ea2e4"/></linearGradient><path fill="url(#qUVW_8hXILk2~YdaDYhCcb)" d="M44,36c0,5.522-4.478,10-10,10s-10-4.478-10-10s4.477-10,10-10S44,30.478,44,36z"/><radialGradient id="qUVW_8hXILk2~YdaDYhCcc" cx="34" cy="-326" r="9.25" gradientTransform="matrix(1 0 0 -1 0 -290)" gradientUnits="userSpaceOnUse"><stop offset="0"/><stop offset="1" stop-opacity="0"/></radialGradient><circle cx="34" cy="36" r="9.25" fill="url(#qUVW_8hXILk2~YdaDYhCcc)"/><radialGradient id="qUVW_8hXILk2~YdaDYhCcd" cx="33.945" cy="-317.697" r="18.942" gradientTransform="matrix(1 0 0 -1 0 -290)" gradientUnits="userSpaceOnUse"><stop offset="0" stop-color="#fafafb"/><stop offset="1" stop-color="#c8cdd1"/></radialGradient><circle cx="34" cy="36" r="8.5" fill="url(#qUVW_8hXILk2~YdaDYhCcd)"/><path fill="#f25022" d="M32.5,34.5l3,3l3.456-6.048c0.151-0.264-0.144-0.559-0.408-0.408L32.5,34.5z"/><path fill="#00a4ef" d="M35.5,37.5l-3-3l-3.456,6.048c-0.151,0.264,0.143,0.559,0.408,0.408L35.5,37.5z"/><path fill="#fff" d="M34.75,36c0,0.415-0.335,0.75-0.75,0.75s-0.75-0.335-0.75-0.75s0.336-0.75,0.75-0.75 C34.415,35.25,34.75,35.585,34.75,36"/></svg>