<svg xmlns="http://www.w3.org/2000/svg" viewBox="0 0 48 48"><linearGradient id="z9unrm3dryWyUAhhTFIkea" x1="24" x2="24" y1="4" y2="44" gradientUnits="userSpaceOnUse"><stop offset="0" stop-color="#fad500"/><stop offset="1" stop-color="#fd297c"/></linearGradient><path fill="url(#z9unrm3dryWyUAhhTFIkea)" d="M4.249,21h39.502C43.899,21.981,44,22.978,44,24H4C4,22.978,4.101,21.981,4.249,21z M8.028,36c0.822,1.093,1.75,2.098,2.775,3h26.395c1.025-0.902,1.952-1.907,2.775-3H8.028z M43.344,19 C41.121,10.379,33.315,4,24,4S6.879,10.379,4.656,19H43.344z M13.503,41c3.054,1.89,6.642,3,10.497,3s7.443-1.11,10.497-3H13.503z M4.101,26c0.102,1.028,0.303,2.024,0.555,3h38.689c0.252-0.976,0.453-1.972,0.555-3H4.101z M5.285,31 c0.391,1.044,0.861,2.047,1.413,3h34.604c0.552-0.953,1.022-1.956,1.413-3H5.285z"/><path fill="#d81b60" d="M43.344,19c0.169,0.655,0.304,1.321,0.407,2H4.249c0.102-0.679,0.238-1.345,0.407-2H43.344z M4.101,26h39.798C43.964,25.342,44,24.675,44,24H4C4,24.675,4.036,25.342,4.101,26z M6.698,34c0.403,0.696,0.849,1.361,1.33,2 h31.946c0.481-0.639,0.927-1.304,1.33-2H6.698z M4.656,29c0.176,0.682,0.385,1.348,0.629,2h37.431 c0.244-0.652,0.453-1.318,0.629-2H4.656z M34.498,41c0.957-0.592,1.86-1.26,2.7-2H10.802c0.841,0.74,1.743,1.408,2.7,2H34.498z"/></svg>