<svg xmlns="http://www.w3.org/2000/svg" viewBox="0 0 48 48"><linearGradient id="SMYDwsf5KA1kGIXZH2WUXa" x1="2.429" x2="42.387" y1="6.702" y2="38.745" gradientUnits="userSpaceOnUse"><stop offset="0" stop-color="#21ad64"/><stop offset="1" stop-color="#088242"/></linearGradient><circle cx="24" cy="24" r="20" fill="url(#SMYDwsf5KA1kGIXZH2WUXa)"/><path d="M37.251,9.02l-13.396,18.59l-6.021-7.526c-0.287-0.356-0.713-0.561-1.169-0.561h-4.59	c-0.469,0-0.918,0.225-1.2,0.601l-1.859,2.479c-0.343,0.456-0.397,1.058-0.142,1.569c0.256,0.512,0.771,0.83,1.342,0.83h2.309	l9.751,12.189c0.435,0.542,1.082,0.854,1.776,0.854c0.738,0,1.411-0.344,1.844-0.943l15.954-22.127	C40.703,12.707,39.136,10.688,37.251,9.02z" opacity=".05"/><path d="M37.624,9.358L23.876,28.436l-6.431-8.039c-0.191-0.237-0.476-0.374-0.78-0.374h-4.59	c-0.313,0-0.612,0.149-0.8,0.4l-1.859,2.479c-0.229,0.305-0.265,0.705-0.095,1.046c0.171,0.342,0.514,0.554,0.895,0.554h2.549	l9.901,12.377c0.338,0.423,0.844,0.666,1.385,0.666c0.576,0,1.1-0.268,1.438-0.735l16.101-22.33	C40.552,12.561,39.208,10.832,37.624,9.358z" opacity=".07"/><path fill="#fff" d="M37.98,9.698L23.897,29.261l-6.841-8.551c-0.095-0.119-0.239-0.188-0.39-0.188h-4.59	c-0.157,0-0.306,0.074-0.4,0.2l-1.859,2.479c-0.247,0.33-0.012,0.8,0.4,0.8h2.79l10.051,12.565c0.526,0.657,1.534,0.633,2.028-0.049	l16.24-22.514C40.409,12.417,39.281,10.969,37.98,9.698z"/></svg>