<svg xmlns="http://www.w3.org/2000/svg" viewBox="0 0 48 48"><linearGradient id="L8703AH85yZLU9sw7BeiYa" x1="33.915" x2="39.564" y1="42.445" y2="10.411" gradientTransform="matrix(1 0 0 -1 0 50)" gradientUnits="userSpaceOnUse"><stop offset="0" stop-color="#f44f5a"/><stop offset=".443" stop-color="#ee3d4a"/><stop offset="1" stop-color="#e52030"/></linearGradient><path fill="url(#L8703AH85yZLU9sw7BeiYa)" d="M30.759,8.298l-2.33,2.326c-0.399,0.398-0.398,1.044,0.002,1.441l11.79,11.712	c0.4,0.397,0.401,1.043,0.002,1.441L28.434,36.99c-0.401,0.4-0.398,1.049,0.007,1.446l2.318,2.273	c0.399,0.391,1.039,0.388,1.434-0.007l15.508-15.486c0.398-0.397,0.398-1.042,0-1.439L32.2,8.298	C31.802,7.901,31.157,7.901,30.759,8.298z"/><linearGradient id="L8703AH85yZLU9sw7BeiYb" x1="13.675" x2="19.324" y1="41.518" y2="9.482" gradientTransform="matrix(1 0 0 -1 0 50)" gradientUnits="userSpaceOnUse"><stop offset="0" stop-color="#f44f5a"/><stop offset=".443" stop-color="#ee3d4a"/><stop offset="1" stop-color="#e52030"/></linearGradient><path fill="url(#L8703AH85yZLU9sw7BeiYb)" d="M15.782,40.703L0.297,25.218	c-0.397-0.397-0.397-1.04,0-1.436L15.782,8.297c0.397-0.397,1.04-0.397,1.436,0l15.484,15.484c0.397,0.397,0.397,1.04,0,1.436	L17.218,40.703C16.822,41.099,16.178,41.099,15.782,40.703z"/></svg>