<svg xmlns="http://www.w3.org/2000/svg" xmlns:xlink="http://www.w3.org/1999/xlink" data-name="Слой 1" viewBox="0 0 48 48"><defs><linearGradient id="VOLTTqcpnF1z6LsV2e~dUc" x1="28.035" x2="28.035" y1="33.5" y2="44.655" data-name="Безымянный градиент 80" gradientUnits="userSpaceOnUse"><stop offset="0" stop-color="#afb6bc"/><stop offset=".925" stop-color="#9aa0a5"/></linearGradient><linearGradient id="VOLTTqcpnF1z6LsV2e~dUa" x1="36.5" x2="36.5" y1="27.435" y2="4.503" data-name="Безымянный градиент 100" gradientUnits="userSpaceOnUse"><stop offset="0" stop-color="#4c5963"/><stop offset="1" stop-color="#889097"/></linearGradient><linearGradient id="VOLTTqcpnF1z6LsV2e~dUf" x1="24" x2="24" y1="58.837" y2="5.173" data-name="Безымянный градиент 131" xlink:href="#VOLTTqcpnF1z6LsV2e~dUa"/><linearGradient id="VOLTTqcpnF1z6LsV2e~dUb" x1="12" x2="20" y1="23.5" y2="23.5" data-name="Безымянный градиент 113" gradientUnits="userSpaceOnUse"><stop offset="0" stop-color="#ffcf54"/><stop offset=".261" stop-color="#fdcb4d"/><stop offset=".639" stop-color="#f7c13a"/><stop offset="1" stop-color="#f0b421"/></linearGradient><linearGradient id="VOLTTqcpnF1z6LsV2e~dUg" x1="28" x2="36" xlink:href="#VOLTTqcpnF1z6LsV2e~dUb"/><linearGradient id="VOLTTqcpnF1z6LsV2e~dUh" x1="24" x2="24" y1="42.745" y2="37.597" data-name="Безымянный градиент 142" gradientUnits="userSpaceOnUse"><stop offset="0" stop-color="#afb6bc"/><stop offset=".665" stop-color="#9aa0a5"/><stop offset=".922" stop-color="#889097"/></linearGradient><linearGradient id="VOLTTqcpnF1z6LsV2e~dUe" x1="11.5" x2="11.5" y1="27.435" y2="4.503" xlink:href="#VOLTTqcpnF1z6LsV2e~dUa"/><linearGradient id="VOLTTqcpnF1z6LsV2e~dUi" x1="20.035" x2="20.035" y2="44.655" xlink:href="#VOLTTqcpnF1z6LsV2e~dUc"/><linearGradient id="VOLTTqcpnF1z6LsV2e~dUj" x1="24" x2="24" y1="30.598" y2="26.188" data-name="Безымянный градиент 18" gradientUnits="userSpaceOnUse"><stop offset=".002" stop-color="#454545"/><stop offset=".013" stop-color="#464646"/><stop offset=".874" stop-color="#626262"/><stop offset="1" stop-color="#6d6d6d"/></linearGradient><linearGradient id="VOLTTqcpnF1z6LsV2e~dUd" x1="24" x2="24" y1="6.304" y2="34.067" data-name="Безымянный градиент 5" gradientUnits="userSpaceOnUse"><stop offset="0" stop-color="#4c4c4c"/><stop offset="1" stop-color="#343434"/></linearGradient><linearGradient id="VOLTTqcpnF1z6LsV2e~dUk" x1="16" x2="16" y1="18.174" y2="31.253" xlink:href="#VOLTTqcpnF1z6LsV2e~dUd"/><linearGradient id="VOLTTqcpnF1z6LsV2e~dUl" x1="32" x2="32" y1="18.174" y2="31.253" xlink:href="#VOLTTqcpnF1z6LsV2e~dUd"/></defs><path fill="url(#VOLTTqcpnF1z6LsV2e~dUa)" d="M30.34205,12.79423C27.75347,12.79423,40.70671,25,40.70671,25s5.1668-9.60769-.01036-20C38.10778,5,35.5192,12.79423,30.34205,12.79423Z"/><path fill="url(#VOLTTqcpnF1z6LsV2e~dUe)" d="M17.658,12.79423C20.24653,12.79423,7.29329,25,7.29329,25s-5.1668-9.60769.01036-20C9.89222,5,12.4808,12.79423,17.658,12.79423Z"/><ellipse cx="24" cy="26.533" fill="url(#VOLTTqcpnF1z6LsV2e~dUf)" rx="19" ry="16.467"/><path fill="url(#VOLTTqcpnF1z6LsV2e~dUb)" d="M20,23.5S18.20914,21,16,21s-4,2.5-4,2.5S13.79086,26,16,26,20,23.5,20,23.5Z"/><path fill="url(#VOLTTqcpnF1z6LsV2e~dUg)" d="M36,23.5S34.20914,21,32,21s-4,2.5-4,2.5S29.79086,26,32,26,36,23.5,36,23.5Z"/><ellipse cx="24" cy="36.56" fill="url(#VOLTTqcpnF1z6LsV2e~dUh)" rx="5" ry="4.5"/><ellipse cx="28.035" cy="33.56" fill="url(#VOLTTqcpnF1z6LsV2e~dUc)" rx="4.965" ry="4.5"/><ellipse cx="20.035" cy="33.56" fill="url(#VOLTTqcpnF1z6LsV2e~dUi)" rx="4.965" ry="4.5"/><path fill="url(#VOLTTqcpnF1z6LsV2e~dUj)" d="M27.04,28.624C27.04,27.50286,25.679,27,24,27s-3.04.50286-3.04,1.624,1.361,2.436,3.04,2.436S27.04,29.74514,27.04,28.624Z"/><path fill="url(#VOLTTqcpnF1z6LsV2e~dUd)" d="M31,14H17c1-1,4-2,7-2S30,13,31,14Zm-7,2a4.96728,4.96728,0,0,0-4,2h8A4.96728,4.96728,0,0,0,24,16Zm0,4c-.85714,0-1.71429,1-2,2h4C25.71429,21,24.85714,20,24,20Z"/><ellipse cx="16" cy="23.5" fill="url(#VOLTTqcpnF1z6LsV2e~dUk)" rx="1" ry="2.5"/><ellipse cx="32" cy="23.5" fill="url(#VOLTTqcpnF1z6LsV2e~dUl)" rx="1" ry="2.5"/></svg>