<svg xmlns="http://www.w3.org/2000/svg" viewBox="0 0 48 48"><path fill="#107c42" d="M40,43H8c-1.105,0-2-0.895-2-2V20L24,3l18,17v21C42,42.105,41.105,43,40,43z"/><path d="M24,4c-0.474,0-0.948,0.168-1.326,0.503l-5.359,4.811L6,20v5.39L24,9.428L42,25.39V20L30.685,9.314	l-5.359-4.811C24.948,4.168,24.474,4,24,4z" opacity=".05"/><path d="M24,3c-0.474,0-0.948,0.167-1.326,0.5l-5.359,4.784L6,18.909v5.359L24,8.397l18,15.871v-5.359	L30.685,8.284L25.326,3.5C24.948,3.167,24.474,3,24,3z" opacity=".07"/><path fill="#21a366" d="M44.495,19.507L25.326,2.503C24.948,2.168,24.474,2,24,2s-0.948,0.168-1.326,0.503L3.505,19.507	c-0.42,0.374-0.449,1.02-0.064,1.43l1.636,1.745c0.369,0.394,0.984,0.424,1.39,0.067L24,7.428L41.533,22.75	c0.405,0.356,1.021,0.327,1.39-0.067l1.636-1.745C44.944,20.527,44.915,19.881,44.495,19.507z"/><path fill="#fff" d="M29,30.193c0-4.897-7.229-3.94-7.229-6.833c0-1.51,1.698-1.59,2.229-1.59	c1.276,0,2.508,0.342,3.447,0.783c0.296,0.139,0.636-0.067,0.636-0.393v-1.425c0-0.478-0.18-0.761-0.467-0.873	c-0.644-0.25-1.568-0.433-2.935-0.478v-1.568c0-0.188-0.152-0.34-0.34-0.34h-0.68c-0.188,0-0.34,0.152-0.34,0.34v1.593	C21.199,19.615,19,20.812,19,23.596c0,5.076,7.229,4.069,7.229,6.742c0,0.84-0.537,1.564-2.229,1.564	c-1.701,0-3.264-0.594-4.129-1.036c-0.291-0.149-0.634,0.067-0.634,0.394v1.622c0,0.311,0.187,0.588,0.474,0.709	c1.025,0.435,2.4,0.765,3.609,0.861v1.733c0,0.188,0.152,0.34,0.34,0.34h0.68c0.188,0,0.34-0.152,0.34-0.34v-1.729	C27.853,34.192,29,32.068,29,30.193z"/></svg>