<svg xmlns="http://www.w3.org/2000/svg" xmlns:xlink="http://www.w3.org/1999/xlink" data-name="Слой 1" viewBox="0 0 48 48"><defs><linearGradient id="A~K9RHGSIVU~yp0zmBfqea" x1="6" x2="6" y1=".043" y2="29.545" data-name="Безымянный градиент 143" gradientUnits="userSpaceOnUse"><stop offset="0" stop-color="#889097"/><stop offset="1" stop-color="#4c5963"/></linearGradient><linearGradient id="A~K9RHGSIVU~yp0zmBfqec" x1="42" x2="42" y1=".043" y2="29.545" xlink:href="#A~K9RHGSIVU~yp0zmBfqea"/><linearGradient id="A~K9RHGSIVU~yp0zmBfqeb" x1="6.5" x2="6.5" y1="38.783" y2="28.08" data-name="Безымянный градиент 70" gradientUnits="userSpaceOnUse"><stop offset="0" stop-color="#6d6d6d"/><stop offset=".126" stop-color="#626262"/><stop offset=".987" stop-color="#464646"/><stop offset=".998" stop-color="#454545"/></linearGradient><linearGradient id="A~K9RHGSIVU~yp0zmBfqed" x1="41.5" x2="41.5" y1="38.783" y2="28.08" xlink:href="#A~K9RHGSIVU~yp0zmBfqeb"/><linearGradient id="A~K9RHGSIVU~yp0zmBfqee" x1="5.851" x2="42.811" y1="20.022" y2="41.36" data-name="Безымянный градиент 22" gradientUnits="userSpaceOnUse"><stop offset="0" stop-color="#d4943b"/><stop offset="1" stop-color="#c2620e"/></linearGradient><linearGradient id="A~K9RHGSIVU~yp0zmBfqef" x1="16.882" x2="29.162" y1="-.057" y2="33.684" data-name="Безымянный градиент 87" gradientUnits="userSpaceOnUse"><stop offset="0" stop-color="#c26715"/><stop offset=".346" stop-color="#be6015"/><stop offset=".686" stop-color="#b54e16"/><stop offset=".979" stop-color="#ad3f16"/></linearGradient></defs><path fill="url(#A~K9RHGSIVU~yp0zmBfqea)" d="M6,11H6a1,1,0,0,1,1,1V29a0,0,0,0,1,0,0H5a0,0,0,0,1,0,0V12a1,1,0,0,1,1-1Z"/><path fill="url(#A~K9RHGSIVU~yp0zmBfqec)" d="M42,11h0a1,1,0,0,1,1,1V29a0,0,0,0,1,0,0H41a0,0,0,0,1,0,0V12A1,1,0,0,1,42,11Z"/><path fill="url(#A~K9RHGSIVU~yp0zmBfqeb)" d="M5,32H8a0,0,0,0,1,0,0v6.5a.5.5,0,0,1-.5.5h-2a.5.5,0,0,1-.5-.5V32A0,0,0,0,1,5,32Z"/><path fill="url(#A~K9RHGSIVU~yp0zmBfqed)" d="M40,32h3a0,0,0,0,1,0,0v6.5a.5.5,0,0,1-.5.5h-2a.5.5,0,0,1-.5-.5V32A0,0,0,0,1,40,32Z"/><rect width="42" height="5" x="3" y="28" fill="url(#A~K9RHGSIVU~yp0zmBfqee)" rx="1"/><path fill="url(#A~K9RHGSIVU~yp0zmBfqef)" d="M45,23.5v2a.5.5,0,0,1-.5.5H3.5a.5.5,0,0,1-.5-.5v-2a.5.5,0,0,1,.5-.5h41A.5.5,0,0,1,45,23.5ZM44.5,18H3.5a.5.5,0,0,0-.5.5v2a.5.5,0,0,0,.5.5h41a.5.5,0,0,0,.5-.5v-2A.5.5,0,0,0,44.5,18Zm0-5H3.5a.5.5,0,0,0-.5.5v2a.5.5,0,0,0,.5.5h41a.5.5,0,0,0,.5-.5v-2A.5.5,0,0,0,44.5,13Z"/></svg>