<svg xmlns="http://www.w3.org/2000/svg" data-name="Layer 1" viewBox="0 0 48 48"><defs><linearGradient id="PNWo9lstAKeiZ5OjxJzagb" x1="7.103" x2="19.866" y1="-135.525" y2="-148.288" data-name="Безымянный градиент 92" gradientTransform="matrix(1 0 0 -1 0 -124)" gradientUnits="userSpaceOnUse"><stop offset="0" stop-color="#fed100"/><stop offset="1" stop-color="#e36001"/></linearGradient><linearGradient id="PNWo9lstAKeiZ5OjxJzagc" x1="27.5" x2="27.5" y1="17.941" y2="28.488" gradientUnits="userSpaceOnUse"><stop offset=".002" stop-color="#427fdb"/><stop offset=".397" stop-color="#2668cb"/><stop offset=".763" stop-color="#1358bf"/><stop offset="1" stop-color="#0c52bb"/></linearGradient><linearGradient id="PNWo9lstAKeiZ5OjxJzagd" x1="12.28" x2="41.28" y1="26.526" y2="46.409" data-name="Безымянный градиент 33" gradientUnits="userSpaceOnUse"><stop offset="0" stop-color="#32bdef"/><stop offset="1" stop-color="#1ea2e4"/></linearGradient><linearGradient id="PNWo9lstAKeiZ5OjxJzage" x1="27.5" x2="27.5" y1="42.589" y2="46.753" gradientUnits="userSpaceOnUse"><stop offset="0" stop-color="#a8e2f7"/><stop offset="1" stop-color="#47c1ff"/></linearGradient><radialGradient id="PNWo9lstAKeiZ5OjxJzaga" cx="11.933" cy="-142.182" r="9.698" data-name="Безымянный градиент 97" gradientTransform="matrix(1 0 0 -1 0 -124)" gradientUnits="userSpaceOnUse"><stop offset=".756" stop-color="#ffed54"/><stop offset=".806" stop-color="#ffe649"/><stop offset=".891" stop-color="#ffd22d"/><stop offset="1" stop-color="#ffb300"/></radialGradient></defs><path fill="url(#PNWo9lstAKeiZ5OjxJzaga)" d="M12,8l.64571.67a1.364,1.364,0,0,0,1.62334.25714l.82143-.43762.40714.83667a1.36375,1.36375,0,0,0,1.46428.74619L17.87809,9.91l.12858.92143a1.36323,1.36323,0,0,0,1.1619,1.1619l.92143.12857-.16238.9162a1.36375,1.36375,0,0,0,.74619,1.46428l.83667.40714-.43762.82143A1.364,1.364,0,0,0,21.33,17.35428L22,18H2l.67-.64571A1.364,1.364,0,0,0,2.92714,15.731l-.43762-.82143.83667-.40714a1.36375,1.36375,0,0,0,.74619-1.46428L3.91,12.12191l.92143-.12858a1.36323,1.36323,0,0,0,1.1619-1.1619L6.1219,9.91l.9162.16238a1.36375,1.36375,0,0,0,1.46428-.74619l.40714-.83667.82143.43762A1.364,1.364,0,0,0,11.35429,8.67Z"/><path fill="url(#PNWo9lstAKeiZ5OjxJzagb)" d="M12,10.381A7.61878,7.61878,0,0,0,4.381,18h15.2381A7.61877,7.61877,0,0,0,12,10.381Z"/><ellipse cx="27.5" cy="22" fill="url(#PNWo9lstAKeiZ5OjxJzagc)" rx="1.5" ry="3"/><path fill="url(#PNWo9lstAKeiZ5OjxJzagd)" d="M44.04889,44.01654l.00071-.01819C44.0496,32.155,39.08472,22,27.5,22S10.9504,32.155,10.9504,43.99835l.00071.01819Z"/><rect width="37" height="1.983" x="9" y="43.017" fill="url(#PNWo9lstAKeiZ5OjxJzage)" rx=".992"/></svg>