<svg xmlns="http://www.w3.org/2000/svg" viewBox="0 0 48 48"><radialGradient id="S~b3bT7~oYmYGLW21bK23a" cx="16.387" cy="25.271" r="7.207" gradientUnits="userSpaceOnUse"><stop offset=".317" stop-color="#3a41ac"/><stop offset="1" stop-color="#5961c3"/></radialGradient><path fill="url(#S~b3bT7~oYmYGLW21bK23a)" d="M11.438,42.834l-1.712-1.038c-0.464-0.282-0.608-0.877-0.341-1.349 c5.849-10.322,5.89-23.4,0.111-32.495C9.205,7.493,9.312,6.892,9.758,6.583l1.644-1.138c0.462-0.32,1.108-0.204,1.411,0.269 c6.613,10.331,6.623,25.154,0.015,36.769C12.551,42.97,11.917,43.124,11.438,42.834z"/><radialGradient id="S~b3bT7~oYmYGLW21bK23b" cx="32.851" cy="25.271" r="8.124" gradientUnits="userSpaceOnUse"><stop offset=".317" stop-color="#3a41ac"/><stop offset="1" stop-color="#5961c3"/></radialGradient><path fill="url(#S~b3bT7~oYmYGLW21bK23b)" d="M35.548,42.483C28.94,30.868,28.95,16.046,35.563,5.714c0.303-0.473,0.949-0.589,1.411-0.269 l1.644,1.138c0.446,0.309,0.554,0.91,0.263,1.368c-5.779,9.094-5.738,22.173,0.111,32.495c0.268,0.472,0.124,1.068-0.341,1.349 l-1.712,1.038C36.459,43.124,35.825,42.97,35.548,42.483z"/><linearGradient id="S~b3bT7~oYmYGLW21bK23c" x1="24" x2="24" y1="11.468" y2="39.468" gradientUnits="userSpaceOnUse"><stop offset="0" stop-color="#7b83eb"/><stop offset="1" stop-color="#5961c3"/></linearGradient><path fill="url(#S~b3bT7~oYmYGLW21bK23c)" d="M37,26H11c-0.552,0-1-0.448-1-1v-2c0-0.552,0.448-1,1-1h26c0.552,0,1,0.448,1,1v2 C38,25.552,37.552,26,37,26z"/></svg>