<svg xmlns="http://www.w3.org/2000/svg" viewBox="0 0 48 48"><linearGradient id="Fbfu9xujOd0J4EEmBNlqza" x1="20.327" x2="29.193" y1="1.438" y2="25.795" gradientUnits="userSpaceOnUse"><stop offset="0" stop-color="#ffd869"/><stop offset="1" stop-color="#fec52b"/></linearGradient><path fill="url(#Fbfu9xujOd0J4EEmBNlqza)" d="M34.9,7.64L33.28,19L33,21H15l-0.28-2L13.1,7.64c-0.06-0.4,0.12-0.8,0.47-1.01	c0.36-0.21,0.88-0.5,1.56-0.81c0.53-0.24,1.16,0.05,1.35,0.6L18,11l0.82-5.75c0.06-0.41,0.37-0.75,0.78-0.83C20.9,4.16,22.37,4,24,4	c1.47,0,2.81,0.13,4,0.35c1.49,0.25,2.76,0.63,3.79,1.03c1.22,0.45,2.11,0.93,2.64,1.25C34.78,6.84,34.96,7.24,34.9,7.64z"/><linearGradient id="Fbfu9xujOd0J4EEmBNlqzb" x1="24" x2="24" y1="31.283" y2="45.578" gradientUnits="userSpaceOnUse"><stop offset="0" stop-color="#f44f5a"/><stop offset=".443" stop-color="#ee3d4a"/><stop offset="1" stop-color="#e52030"/></linearGradient><path fill="url(#Fbfu9xujOd0J4EEmBNlqzb)" d="M25,35h-2c-2.761,0-5,2.239-5,5v3	c0,0.552,0.448,1,1,1h10c0.552,0,1-0.448,1-1v-3C30,37.239,27.761,35,25,35z"/><linearGradient id="Fbfu9xujOd0J4EEmBNlqzc" x1="21.599" x2="30.052" y1="16.269" y2="39.493" gradientUnits="userSpaceOnUse"><stop offset="0" stop-color="#f44f5a"/><stop offset=".443" stop-color="#ee3d4a"/><stop offset="1" stop-color="#e52030"/></linearGradient><path fill="url(#Fbfu9xujOd0J4EEmBNlqzc)" d="M33.98,21.2C34.106,20.58,33.633,20,33,20	H15c-0.633,0-1.106,0.58-0.98,1.2l2.124,9.318h0.004C16.858,34.209,20.101,37,24,37c3.904,0,7.151-2.798,7.854-6.498h0.005	L33.98,21.2z"/><polygon points="33.28,19 33.14,20 14.86,20 14.72,19" opacity=".05"/><polygon points="33.21,19.5 33.14,20 14.86,20 14.79,19.5" opacity=".07"/></svg>