<svg xmlns="http://www.w3.org/2000/svg" viewBox="0 0 48 48"><path d="M20.618,10.5c-0.103,0-0.207-0.032-0.294-0.096L20,10.169l-0.324,0.235	c-0.175,0.128-0.413,0.128-0.588,0c-0.175-0.127-0.249-0.353-0.182-0.559l0.124-0.381l-0.324-0.236	c-0.175-0.127-0.249-0.353-0.182-0.559C18.591,8.464,18.783,8.324,19,8.324h0.401l0.124-0.381c0.134-0.412,0.817-0.412,0.951,0	l0.124,0.381H21c0.217,0,0.409,0.14,0.476,0.346c0.067,0.206-0.006,0.432-0.182,0.559L20.97,9.464l0.124,0.381	c0.067,0.206-0.006,0.432-0.182,0.559C20.825,10.468,20.721,10.5,20.618,10.5z" opacity=".07"/><path d="M20.618,13.402c-0.103,0-0.207-0.032-0.294-0.096L20,13.071l-0.324,0.235	c-0.175,0.128-0.413,0.128-0.588,0c-0.175-0.127-0.249-0.353-0.182-0.559l0.124-0.381l-0.324-0.236	c-0.175-0.127-0.249-0.353-0.182-0.559c0.067-0.206,0.259-0.346,0.476-0.346h0.401l0.124-0.381c0.134-0.412,0.817-0.412,0.951,0	l0.124,0.381H21c0.217,0,0.409,0.14,0.476,0.346c0.067,0.206-0.006,0.432-0.182,0.559l-0.324,0.236l0.124,0.381	c0.067,0.206-0.006,0.432-0.182,0.559C20.825,13.371,20.721,13.402,20.618,13.402z" opacity=".07"/><path d="M20.618,16.402c-0.103,0-0.207-0.032-0.294-0.096L20,16.071l-0.324,0.235	c-0.175,0.128-0.413,0.128-0.588,0c-0.175-0.127-0.249-0.353-0.182-0.559l0.124-0.381l-0.324-0.236	c-0.175-0.127-0.249-0.353-0.182-0.559c0.067-0.206,0.259-0.346,0.476-0.346h0.401l0.124-0.381c0.134-0.412,0.817-0.412,0.951,0	l0.124,0.381H21c0.217,0,0.409,0.14,0.476,0.346c0.067,0.206-0.006,0.432-0.182,0.559l-0.324,0.236l0.124,0.381	c0.067,0.206-0.006,0.432-0.182,0.559C20.825,16.371,20.721,16.402,20.618,16.402z" opacity=".07"/><path d="M23.618,10.5c-0.103,0-0.207-0.032-0.294-0.096L23,10.169l-0.324,0.235	c-0.175,0.128-0.413,0.128-0.588,0c-0.175-0.127-0.249-0.353-0.182-0.559l0.124-0.381l-0.324-0.236	c-0.175-0.127-0.249-0.353-0.182-0.559C21.591,8.464,21.783,8.324,22,8.324h0.401l0.124-0.381c0.134-0.412,0.817-0.412,0.951,0	l0.124,0.381H24c0.217,0,0.409,0.14,0.476,0.346c0.067,0.206-0.006,0.432-0.182,0.559L23.97,9.464l0.124,0.381	c0.067,0.206-0.006,0.432-0.182,0.559C23.825,10.468,23.721,10.5,23.618,10.5z" opacity=".07"/><path d="M23.618,13.402c-0.103,0-0.207-0.032-0.294-0.096L23,13.071l-0.324,0.235	c-0.175,0.128-0.413,0.128-0.588,0c-0.175-0.127-0.249-0.353-0.182-0.559l0.124-0.381l-0.324-0.236	c-0.175-0.127-0.249-0.353-0.182-0.559c0.067-0.206,0.259-0.346,0.476-0.346h0.401l0.124-0.381c0.134-0.412,0.817-0.412,0.951,0	l0.124,0.381H24c0.217,0,0.409,0.14,0.476,0.346c0.067,0.206-0.006,0.432-0.182,0.559l-0.324,0.236l0.124,0.381	c0.067,0.206-0.006,0.432-0.182,0.559C23.825,13.371,23.721,13.402,23.618,13.402z" opacity=".07"/><path d="M23.618,16.402c-0.103,0-0.207-0.032-0.294-0.096L23,16.071l-0.324,0.235	c-0.175,0.128-0.413,0.128-0.588,0c-0.175-0.127-0.249-0.353-0.182-0.559l0.124-0.381l-0.324-0.236	c-0.175-0.127-0.249-0.353-0.182-0.559c0.067-0.206,0.259-0.346,0.476-0.346h0.401l0.124-0.381c0.134-0.412,0.817-0.412,0.951,0	l0.124,0.381H24c0.217,0,0.409,0.14,0.476,0.346c0.067,0.206-0.006,0.432-0.182,0.559l-0.324,0.236l0.124,0.381	c0.067,0.206-0.006,0.432-0.182,0.559C23.825,16.371,23.721,16.402,23.618,16.402z" opacity=".07"/><path d="M26.618,10.5c-0.103,0-0.207-0.032-0.294-0.096L26,10.169l-0.324,0.235	c-0.175,0.128-0.413,0.128-0.588,0c-0.175-0.127-0.249-0.353-0.182-0.559l0.124-0.381l-0.324-0.236	c-0.175-0.127-0.249-0.353-0.182-0.559C24.591,8.464,24.783,8.324,25,8.324h0.401l0.124-0.381c0.134-0.412,0.817-0.412,0.951,0	l0.124,0.381H27c0.217,0,0.409,0.14,0.476,0.346c0.067,0.206-0.006,0.432-0.182,0.559L26.97,9.464l0.124,0.381	c0.067,0.206-0.006,0.432-0.182,0.559C26.825,10.468,26.721,10.5,26.618,10.5z" opacity=".07"/><path d="M26.618,13.402c-0.103,0-0.207-0.032-0.294-0.096L26,13.071l-0.324,0.235	c-0.175,0.128-0.413,0.128-0.588,0c-0.175-0.127-0.249-0.353-0.182-0.559l0.124-0.381l-0.324-0.236	c-0.175-0.127-0.249-0.353-0.182-0.559c0.067-0.206,0.259-0.346,0.476-0.346h0.401l0.124-0.381c0.134-0.412,0.817-0.412,0.951,0	l0.124,0.381H27c0.217,0,0.409,0.14,0.476,0.346c0.067,0.206-0.006,0.432-0.182,0.559l-0.324,0.236l0.124,0.381	c0.067,0.206-0.006,0.432-0.182,0.559C26.825,13.371,26.721,13.402,26.618,13.402z" opacity=".07"/><path d="M26.618,16.402c-0.103,0-0.207-0.032-0.294-0.096L26,16.071l-0.324,0.235	c-0.175,0.128-0.413,0.128-0.588,0c-0.175-0.127-0.249-0.353-0.182-0.559l0.124-0.381l-0.324-0.236	c-0.175-0.127-0.249-0.353-0.182-0.559c0.067-0.206,0.259-0.346,0.476-0.346h0.401l0.124-0.381c0.134-0.412,0.817-0.412,0.951,0	l0.124,0.381H27c0.217,0,0.409,0.14,0.476,0.346c0.067,0.206-0.006,0.432-0.182,0.559l-0.324,0.236l0.124,0.381	c0.067,0.206-0.006,0.432-0.182,0.559C26.825,16.371,26.721,16.402,26.618,16.402z" opacity=".07"/><path d="M17.618,13.402c-0.103,0-0.207-0.032-0.294-0.096L17,13.071l-0.324,0.235	c-0.175,0.128-0.413,0.128-0.588,0c-0.175-0.127-0.249-0.353-0.182-0.559l0.124-0.381l-0.324-0.236	c-0.175-0.127-0.249-0.353-0.182-0.559c0.067-0.206,0.259-0.346,0.476-0.346h0.401l0.124-0.381c0.134-0.412,0.817-0.412,0.951,0	l0.124,0.381H18c0.217,0,0.409,0.14,0.476,0.346c0.067,0.206-0.006,0.432-0.182,0.559l-0.324,0.236l0.124,0.381	c0.067,0.206-0.006,0.432-0.182,0.559C17.825,13.371,17.721,13.402,17.618,13.402z" opacity=".07"/><path d="M17.618,16.402c-0.103,0-0.207-0.032-0.294-0.096L17,16.071l-0.324,0.235	c-0.175,0.128-0.413,0.128-0.588,0c-0.175-0.127-0.249-0.353-0.182-0.559l0.124-0.381l-0.324-0.236	c-0.175-0.127-0.249-0.353-0.182-0.559c0.067-0.206,0.259-0.346,0.476-0.346h0.401l0.124-0.381c0.134-0.412,0.817-0.412,0.951,0	l0.124,0.381H18c0.217,0,0.409,0.14,0.476,0.346c0.067,0.206-0.006,0.432-0.182,0.559l-0.324,0.236l0.124,0.381	c0.067,0.206-0.006,0.432-0.182,0.559C17.825,16.371,17.721,16.402,17.618,16.402z" opacity=".07"/><path d="M14.618,16.402c-0.103,0-0.207-0.032-0.294-0.096L14,16.071l-0.324,0.235	c-0.175,0.128-0.413,0.128-0.588,0c-0.175-0.127-0.249-0.353-0.182-0.559l0.124-0.381l-0.324-0.236	c-0.175-0.127-0.249-0.353-0.182-0.559c0.067-0.206,0.259-0.346,0.476-0.346h0.401l0.124-0.381c0.134-0.412,0.817-0.412,0.951,0	l0.124,0.381H15c0.217,0,0.409,0.14,0.476,0.346c0.067,0.206-0.006,0.432-0.182,0.559l-0.324,0.236l0.124,0.381	c0.067,0.206-0.006,0.432-0.182,0.559C14.825,16.371,14.721,16.402,14.618,16.402z" opacity=".07"/><linearGradient id="Eb8a3y80d2~aqeciBCWbca" x1="24" x2="24" y1="7.019" y2="17.196" gradientUnits="userSpaceOnUse"><stop offset="0" stop-color="#00b6ce"/><stop offset=".371" stop-color="#00b2cb"/><stop offset=".722" stop-color="#00a7c1"/><stop offset="1" stop-color="#0098b5"/></linearGradient><rect width="48" height="11" y="7" fill="url(#Eb8a3y80d2~aqeciBCWbca)"/><linearGradient id="Eb8a3y80d2~aqeciBCWbcb" x1="24" x2="24" y1="41.493" y2="31.492" gradientUnits="userSpaceOnUse"><stop offset="0" stop-color="#21ad64"/><stop offset=".38" stop-color="#1da960"/><stop offset=".787" stop-color="#129e53"/><stop offset="1" stop-color="#099649"/></linearGradient><rect width="48" height="11" y="30" fill="url(#Eb8a3y80d2~aqeciBCWbcb)"/><linearGradient id="Eb8a3y80d2~aqeciBCWbcc" x1="0" x2="48" y1="23.5" y2="23.5" gradientUnits="userSpaceOnUse"><stop offset="0" stop-color="#dfe9f2"/><stop offset=".391" stop-color="#d6e0e9"/><stop offset="1" stop-color="#bfc8d1"/></linearGradient><rect width="48" height="11" y="18" fill="url(#Eb8a3y80d2~aqeciBCWbcc)"/><linearGradient id="Eb8a3y80d2~aqeciBCWbcd" x1="24" x2="24" y1="16.968" y2="30.977" gradientUnits="userSpaceOnUse"><stop offset="0" stop-color="#f44f5a"/><stop offset=".045" stop-color="#f14652"/><stop offset=".183" stop-color="#ea313f"/><stop offset=".317" stop-color="#e62434"/><stop offset=".443" stop-color="#e52030"/><stop offset=".647" stop-color="#e62332"/><stop offset=".783" stop-color="#e92c3a"/><stop offset=".899" stop-color="#ed3b48"/><stop offset="1" stop-color="#f44f5a"/></linearGradient><polygon fill="url(#Eb8a3y80d2~aqeciBCWbcd)" points="0,16.968 0,22 0,25 0,31 48,31 48,25 48,22 48,16.968"/><linearGradient id="Eb8a3y80d2~aqeciBCWbce" x1="24" x2="24" y1="18.796" y2="29.091" gradientUnits="userSpaceOnUse"><stop offset="0" stop-color="#dfe9f2"/><stop offset="1" stop-color="#bfc8d1"/></linearGradient><rect width="48" height="10" y="19" fill="url(#Eb8a3y80d2~aqeciBCWbce)"/><path fill="#fff" d="M10.086,15.529c-1.949,0-3.529-1.58-3.529-3.529c0-1.949,1.58-3.529,3.529-3.529	c0.317,0,0.622,0.045,0.914,0.124C10.391,8.22,9.677,8,8.91,8c-2.209,0-4,1.791-4,4s1.791,4,4,4c0.767,0,1.482-0.22,2.09-0.594	C10.708,15.484,10.403,15.529,10.086,15.529z"/><polygon fill="#fff" points="20,8.098 20.236,8.824 21,8.824 20.382,9.273 20.618,10 20,9.551 19.382,10 19.618,9.273 19,8.824 19.764,8.824"/><polygon fill="#fff" points="20,11 20.236,11.727 21,11.727 20.382,12.176 20.618,12.902 20,12.453 19.382,12.902 19.618,12.176 19,11.727 19.764,11.727"/><polygon fill="#fff" points="20,14 20.236,14.727 21,14.727 20.382,15.176 20.618,15.902 20,15.453 19.382,15.902 19.618,15.176 19,14.727 19.764,14.727"/><polygon fill="#fff" points="23,8.098 23.236,8.824 24,8.824 23.382,9.273 23.618,10 23,9.551 22.382,10 22.618,9.273 22,8.824 22.764,8.824"/><polygon fill="#fff" points="23,11 23.236,11.727 24,11.727 23.382,12.176 23.618,12.902 23,12.453 22.382,12.902 22.618,12.176 22,11.727 22.764,11.727"/><polygon fill="#fff" points="23,14 23.236,14.727 24,14.727 23.382,15.176 23.618,15.902 23,15.453 22.382,15.902 22.618,15.176 22,14.727 22.764,14.727"/><polygon fill="#fff" points="26,8.098 26.236,8.824 27,8.824 26.382,9.273 26.618,10 26,9.551 25.382,10 25.618,9.273 25,8.824 25.764,8.824"/><polygon fill="#fff" points="26,11 26.236,11.727 27,11.727 26.382,12.176 26.618,12.902 26,12.453 25.382,12.902 25.618,12.176 25,11.727 25.764,11.727"/><polygon fill="#fff" points="26,14 26.236,14.727 27,14.727 26.382,15.176 26.618,15.902 26,15.453 25.382,15.902 25.618,15.176 25,14.727 25.764,14.727"/><polygon fill="#fff" points="17,11 17.236,11.727 18,11.727 17.382,12.176 17.618,12.902 17,12.453 16.382,12.902 16.618,12.176 16,11.727 16.764,11.727"/><polygon fill="#fff" points="17,14 17.236,14.727 18,14.727 17.382,15.176 17.618,15.902 17,15.453 16.382,15.902 16.618,15.176 16,14.727 16.764,14.727"/><polygon fill="#fff" points="14,14 14.236,14.727 15,14.727 14.382,15.176 14.618,15.902 14,15.453 13.382,15.902 13.618,15.176 13,14.727 13.764,14.727"/><path fill="#fff" d="M10.086,15.529c-1.949,0-3.529-1.58-3.529-3.529c0-1.949,1.58-3.529,3.529-3.529	c0.317,0,0.622,0.045,0.914,0.124C10.391,8.22,9.677,8,8.91,8c-2.209,0-4,1.791-4,4s1.791,4,4,4c0.767,0,1.482-0.22,2.09-0.594	C10.708,15.484,10.403,15.529,10.086,15.529z"/><polygon fill="#fff" points="20,8.098 20.236,8.824 21,8.824 20.382,9.273 20.618,10 20,9.551 19.382,10 19.618,9.273 19,8.824 19.764,8.824"/><polygon fill="#fff" points="20,11 20.236,11.727 21,11.727 20.382,12.176 20.618,12.902 20,12.453 19.382,12.902 19.618,12.176 19,11.727 19.764,11.727"/><polygon fill="#fff" points="20,14 20.236,14.727 21,14.727 20.382,15.176 20.618,15.902 20,15.453 19.382,15.902 19.618,15.176 19,14.727 19.764,14.727"/><polygon fill="#fff" points="23,8.098 23.236,8.824 24,8.824 23.382,9.273 23.618,10 23,9.551 22.382,10 22.618,9.273 22,8.824 22.764,8.824"/><polygon fill="#fff" points="23,11 23.236,11.727 24,11.727 23.382,12.176 23.618,12.902 23,12.453 22.382,12.902 22.618,12.176 22,11.727 22.764,11.727"/><polygon fill="#fff" points="23,14 23.236,14.727 24,14.727 23.382,15.176 23.618,15.902 23,15.453 22.382,15.902 22.618,15.176 22,14.727 22.764,14.727"/><polygon fill="#fff" points="26,8.098 26.236,8.824 27,8.824 26.382,9.273 26.618,10 26,9.551 25.382,10 25.618,9.273 25,8.824 25.764,8.824"/><polygon fill="#fff" points="26,11 26.236,11.727 27,11.727 26.382,12.176 26.618,12.902 26,12.453 25.382,12.902 25.618,12.176 25,11.727 25.764,11.727"/><polygon fill="#fff" points="26,14 26.236,14.727 27,14.727 26.382,15.176 26.618,15.902 26,15.453 25.382,15.902 25.618,15.176 25,14.727 25.764,14.727"/><polygon fill="#fff" points="17,11 17.236,11.727 18,11.727 17.382,12.176 17.618,12.902 17,12.453 16.382,12.902 16.618,12.176 16,11.727 16.764,11.727"/><polygon fill="#fff" points="17,14 17.236,14.727 18,14.727 17.382,15.176 17.618,15.902 17,15.453 16.382,15.902 16.618,15.176 16,14.727 16.764,14.727"/><polygon fill="#fff" points="14,14 14.236,14.727 15,14.727 14.382,15.176 14.618,15.902 14,15.453 13.382,15.902 13.618,15.176 13,14.727 13.764,14.727"/></svg>