<svg xmlns="http://www.w3.org/2000/svg" viewBox="0 0 48 48"><linearGradient id="KOGRGs3a6kLD5A_pVAGU9a" x1="21.516" x2="45.592" y1="-171.638" y2="-207.673" gradientTransform="matrix(1 0 0 -1 0 -154)" gradientUnits="userSpaceOnUse"><stop offset="0" stop-color="#28afea"/><stop offset="1" stop-color="#0b88da"/></linearGradient><path fill="url(#KOGRGs3a6kLD5A_pVAGU9a)" d="M9,26l36-14.308V38c0,1.105-0.895,2-2,2H9V26z"/><linearGradient id="KOGRGs3a6kLD5A_pVAGU9b" x1="1.408" x2="36.331" y1="-178.41" y2="-200.164" gradientTransform="matrix(1 0 0 -1 0 -154)" gradientUnits="userSpaceOnUse"><stop offset="0" stop-color="#28afea"/><stop offset="1" stop-color="#0b88da"/></linearGradient><path fill="url(#KOGRGs3a6kLD5A_pVAGU9b)" d="M3,11.692V38c0,1.105,0.895,2,2,2h38c0.491,0,0.935-0.184,1.283-0.478L3,11.692z"/><path d="M45,33.325l-4.416-4.464c-0.23-0.233-0.537-0.361-0.863-0.361c-0.162,0-0.319,0.032-0.469,0.094	c-0.457,0.19-0.752,0.636-0.752,1.134V33.5h-7.979c-2.185,0-4.261,0.827-5.847,2.33L20.273,40H45V33.325z" opacity=".07"/><path d="M45,40v-7.386l-4.061-4.105C40.615,28.181,40.182,28,39.721,28c-0.226,0-0.447,0.044-0.661,0.132	C38.416,28.4,38,29.026,38,29.728V33h-7.479c-2.313,0-4.512,0.876-6.19,2.467L19.546,40H45z" opacity=".05"/><path d="M3,11h42v1.692l-17.32,13.45c-2.165,1.681-5.195,1.681-7.36,0L3,12.692V11	z" opacity=".05"/><path d="M3,10.5h42v1.692L26.966,25.304c-1.762,1.304-4.17,1.304-5.932,0L3,12.192	V10.5z" opacity=".07"/><path fill="#50e6ff" d="M5,8h38c1.105,0,2,0.895,2,2v1.692L26.252,24.466c-1.359,0.926-3.146,0.926-4.504,0L3,11.692V10	C3,8.895,3.895,8,5,8z"/><linearGradient id="KOGRGs3a6kLD5A_pVAGU9c" x1="24" x2="24" y1="-202.646" y2="-194.673" gradientTransform="matrix(1 0 0 -1 0 -154)" gradientUnits="userSpaceOnUse"><stop offset=".478" stop-color="#ad4bd5"/><stop offset=".758" stop-color="#9f3dc8"/><stop offset=".787" stop-color="#9a38c4"/><stop offset=".868" stop-color="#9533c0"/><stop offset="1" stop-color="#912fbd"/></linearGradient><path fill="url(#KOGRGs3a6kLD5A_pVAGU9c)" d="M27,40v6.921C27,47.517,26.517,48,25.921,48h-3.842C21.483,48,21,47.517,21,46.921V40H27z"/><linearGradient id="KOGRGs3a6kLD5A_pVAGU9d" x1="21" x2="47.526" y1="-191" y2="-191" gradientTransform="matrix(1 0 0 -1 0 -154)" gradientUnits="userSpaceOnUse"><stop offset="0" stop-color="#c965eb"/><stop offset="1" stop-color="#c767e5"/></linearGradient><path fill="url(#KOGRGs3a6kLD5A_pVAGU9d)" d="M40.228,29.213c-0.206-0.208-0.514-0.27-0.784-0.158C39.175,29.168,39,29.433,39,29.727V34	h-8.48c-2.047,0-4.017,0.785-5.503,2.193L21,40h18v4.273c0,0.294,0.175,0.559,0.444,0.672C39.533,44.982,39.627,45,39.719,45	c0.187,0,0.371-0.074,0.509-0.213l7.008-7.084c0.385-0.39,0.385-1.017,0-1.407L40.228,29.213z"/></svg>