<svg xmlns="http://www.w3.org/2000/svg" viewBox="0 0 48 48"><linearGradient id="FdmD3R9Tc8nRK_03TGTC5a" x1="12.314" x2="12.314" y1="34.011" y2="25.696" gradientUnits="userSpaceOnUse"><stop offset="0" stop-color="#c26715"/><stop offset=".508" stop-color="#b85515"/><stop offset="1" stop-color="#ad3f16"/></linearGradient><path fill="url(#FdmD3R9Tc8nRK_03TGTC5a)" d="M5,36c11.006-3.427,13.534-22.999,13.534-22.999L19.624,13c0,0,0.376,15-5.624,23H5z"/><path fill="#107c42" d="M19,13.17l10-10C28.458,3.058,27.896,3,27.321,3C22.725,3,19,6.725,19,11.321V13.17z"/><path fill="#21a366" d="M19,13h15.973c-1.825-2.425-4.718-4-7.986-4S20.825,10.575,19,13z"/><path fill="#33c481" d="M20.698,13h-1.86l11,11C29.94,23.449,30,22.883,30,22.302C30,17.164,25.835,13,20.698,13z"/><path fill="#107c42" d="M19,13.17l-10-10C9.542,3.058,10.104,3,10.679,3C15.275,3,19,6.725,19,11.321V13.17z"/><path fill="#21a366" d="M19,13H3.027c1.825-2.425,4.718-4,7.986-4S17.175,10.575,19,13z"/><path fill="#33c481" d="M17.302,13h1.86l-11,11C8.06,23.449,8,22.883,8,22.302C8,17.164,12.165,13,17.302,13z"/><linearGradient id="FdmD3R9Tc8nRK_03TGTC5b" x1="19.5" x2="19.5" y1="33.961" y2="41.995" gradientUnits="userSpaceOnUse"><stop offset="0" stop-color="#ffd869"/><stop offset="1" stop-color="#fec52b"/></linearGradient><path fill="url(#FdmD3R9Tc8nRK_03TGTC5b)" d="M22.299,34.693L36,42H5c-1.105,0-2-0.895-2-2v-6h16.527	C20.494,34,21.446,34.238,22.299,34.693z"/><linearGradient id="FdmD3R9Tc8nRK_03TGTC5c" x1="33.57" x2="33.57" y1="33.961" y2="41.995" gradientUnits="userSpaceOnUse"><stop offset="0" stop-color="#2aa4f4"/><stop offset="1" stop-color="#007ad9"/></linearGradient><path fill="url(#FdmD3R9Tc8nRK_03TGTC5c)" d="M42,35c-1.657,0-3-1-3-1s-1.343,1-3,1s-3-1-3-1s-1.343,1-3,1s-3-1-3-1s-1.343,1-3,1	c-0.706,0-1.347-0.183-1.86-0.392L36,42h7c1.105,0,2-0.895,2-2v-6C45,34,43.657,35,42,35z"/></svg>