<svg xmlns="http://www.w3.org/2000/svg" viewBox="0 0 48 48"><linearGradient id="DFil8tJMmDOZZPLXC1PSza" x1="10.044" x2="38.31" y1="-300.25" y2="-328.514" gradientTransform="matrix(1 0 0 -1 0 -290)" gradientUnits="userSpaceOnUse"><stop offset="0" stop-color="#f44f5a"/><stop offset=".443" stop-color="#ee3d4a"/><stop offset="1" stop-color="#e52030"/></linearGradient><path fill="url(#DFil8tJMmDOZZPLXC1PSza)" d="M25.698,4.836l1.275,1.472l1.684-0.979c1.183-0.688,2.7-0.167,3.212,1.103l0.728,1.806	l1.91-0.379c1.342-0.266,2.608,0.719,2.68,2.086l0.102,1.945l1.93,0.262c1.356,0.184,2.233,1.527,1.857,2.843l-0.535,1.872	l1.74,0.874c1.223,0.614,1.616,2.17,0.834,3.292l-1.114,1.597l1.362,1.392c0.957,0.978,0.824,2.577-0.28,3.384l-1.572,1.149	l0.836,1.759c0.588,1.236-0.057,2.705-1.364,3.11L39.123,34l0.22,1.935c0.154,1.359-0.932,2.54-2.3,2.498l-1.946-0.059l-0.42,1.901	c-0.295,1.336-1.706,2.1-2.986,1.616l-1.822-0.688l-1.015,1.662c-0.713,1.168-2.296,1.432-3.349,0.559L24,42.18l-1.5,1.242	c-1.054,0.873-2.636,0.609-3.349-0.559l-1.015-1.662l-1.822,0.688c-1.28,0.483-2.691-0.28-2.986-1.616l-0.42-1.901l-1.946,0.059	c-1.368,0.042-2.454-1.139-2.3-2.498l0.22-1.935l-1.86-0.576c-1.307-0.405-1.952-1.874-1.364-3.11l0.836-1.759l-1.572-1.149	C3.816,26.599,3.684,25,4.641,24.022l1.362-1.392l-1.114-1.597c-0.783-1.122-0.389-2.677,0.834-3.292l1.74-0.874l-0.535-1.872	c-0.376-1.315,0.501-2.659,1.857-2.843l1.93-0.262l0.102-1.945c0.071-1.366,1.338-2.352,2.68-2.086l1.91,0.379l0.728-1.806	c0.511-1.269,2.029-1.79,3.212-1.103l1.684,0.979l1.275-1.472C23.198,3.802,24.802,3.802,25.698,4.836z"/><path fill="#049000" d="M36.9,25.441v-2.883h0.188v-3.412h-6.441v6.295h-1.889v-6.295h-3.735v5.607	l-1.994-5.607h-3.464l-1.868,5.129c-0.131-0.263-0.29-0.513-0.5-0.733c-0.057-0.059-0.115-0.115-0.175-0.17l0.661,0.461v-4.211	l-0.645-0.246c-0.326-0.123-0.682-0.216-1.057-0.275c-0.356-0.056-0.767-0.084-1.221-0.084c-0.486,0-0.956,0.054-1.395,0.158	c-0.479,0.116-0.913,0.303-1.29,0.555c-0.408,0.275-0.734,0.63-0.969,1.052c-0.246,0.438-0.37,0.95-0.37,1.522	c0,0.714,0.205,1.341,0.608,1.867l-0.576-0.484v4.477l0.545,0.279c0.36,0.185,0.784,0.323,1.26,0.414	c0.437,0.083,0.905,0.125,1.393,0.125c0.483,0,0.948-0.048,1.379-0.141c0.28-0.059,0.538-0.148,0.783-0.254l-0.094,0.259h4.041	l0.543-1.713h1.276l0.548,1.713h2.582h1.456h4.168h0.963h5.656v-3.406H36.9z" opacity=".05"/><g opacity=".07"><path d="M17.212,27.01c0.205-0.364,0.308-0.811,0.308-1.326c0-0.381-0.058-0.709-0.175-1.002c-0.116-0.293-0.286-0.558-0.508-0.791 c-0.209-0.216-0.457-0.409-0.735-0.571c-0.26-0.156-0.561-0.306-0.897-0.446c-0.214-0.087-0.406-0.175-0.575-0.257 c-0.149-0.073-0.277-0.146-0.382-0.224c-0.078-0.057-0.133-0.11-0.166-0.159l-0.01-0.122c0.02-0.031,0.054-0.062,0.101-0.091 c0.062-0.038,0.151-0.071,0.257-0.096c0.126-0.029,0.27-0.044,0.425-0.044c0.122,0,0.25,0.011,0.387,0.028 c0.138,0.019,0.275,0.048,0.414,0.086c0.137,0.038,0.27,0.085,0.399,0.143c0.123,0.056,0.236,0.118,0.341,0.19l0.786,0.548v-2.908 l-0.322-0.123c-0.293-0.111-0.615-0.195-0.957-0.249c-0.33-0.052-0.715-0.078-1.144-0.078c-0.448,0-0.878,0.049-1.277,0.145 c-0.42,0.102-0.799,0.263-1.127,0.482c-0.342,0.231-0.616,0.528-0.813,0.882c-0.203,0.362-0.306,0.792-0.306,1.278 c0,0.629,0.187,1.177,0.556,1.627c0.347,0.425,0.865,0.782,1.542,1.063c0.231,0.096,0.446,0.189,0.643,0.277 c0.175,0.081,0.328,0.162,0.459,0.252c0.099,0.066,0.175,0.136,0.225,0.204c0.024,0.033,0.034,0.065,0.02,0.171 c-0.013,0.023-0.04,0.049-0.083,0.075c-0.041,0.027-0.118,0.065-0.253,0.098c-0.123,0.03-0.276,0.045-0.454,0.045 c-0.319,0-0.626-0.055-0.938-0.166c-0.309-0.111-0.6-0.279-0.862-0.5l-0.822-0.69v3.098l0.272,0.14 c0.321,0.164,0.7,0.287,1.125,0.368c0.406,0.077,0.843,0.116,1.299,0.116c0.448,0,0.878-0.044,1.276-0.13 c0.432-0.091,0.817-0.245,1.143-0.457C16.731,27.672,17.01,27.373,17.212,27.01z"/><path d="M33.88,25.941V25.18h2.52v-2.408h-2.52v-0.713h2.707v-2.412h-5.441v6.295h-2.889v-6.295h-2.735v8.005l-2.847-8.005h-2.761 l-3.168,8.701h2.96l0.543-1.713h2.008l0.548,1.713h2.717h0.248h5.376h0.163h5.457v-2.406H33.88z M20.939,24.303l0.301-0.939 l0.3,0.939H20.939z"/></g><path fill="#fff" d="M11.767,27.553v-1.719c0.312,0.262,0.65,0.457,1.016,0.588s0.733,0.195,1.106,0.195	c0.218,0,0.409-0.02,0.571-0.059c0.163-0.039,0.3-0.094,0.408-0.164c0.109-0.068,0.191-0.152,0.245-0.246	c0.054-0.096,0.08-0.197,0.08-0.309c0-0.15-0.043-0.285-0.129-0.404c-0.086-0.117-0.203-0.227-0.352-0.326	c-0.148-0.102-0.325-0.197-0.529-0.291c-0.204-0.092-0.424-0.188-0.66-0.285c-0.602-0.25-1.051-0.557-1.346-0.918	c-0.296-0.361-0.443-0.799-0.443-1.311c0-0.4,0.081-0.746,0.242-1.033c0.161-0.289,0.38-0.525,0.657-0.713	c0.278-0.186,0.6-0.322,0.965-0.41s0.752-0.131,1.16-0.131c0.4,0,0.756,0.023,1.065,0.072c0.311,0.049,0.596,0.123,0.857,0.223	v1.605c-0.129-0.09-0.27-0.168-0.422-0.236s-0.309-0.123-0.47-0.168s-0.321-0.078-0.481-0.1c-0.159-0.021-0.311-0.033-0.453-0.033	c-0.197,0-0.376,0.02-0.537,0.057s-0.298,0.09-0.408,0.158c-0.111,0.068-0.197,0.15-0.258,0.244	c-0.062,0.096-0.092,0.201-0.092,0.32c0,0.129,0.034,0.244,0.103,0.346c0.067,0.104,0.164,0.199,0.29,0.291	c0.125,0.092,0.277,0.18,0.456,0.268c0.18,0.088,0.382,0.18,0.607,0.271c0.308,0.129,0.584,0.266,0.829,0.412	c0.246,0.145,0.456,0.309,0.632,0.49c0.175,0.184,0.31,0.393,0.402,0.627c0.094,0.234,0.14,0.506,0.14,0.818	c0,0.43-0.081,0.791-0.244,1.082c-0.163,0.293-0.384,0.529-0.663,0.709c-0.279,0.182-0.604,0.311-0.976,0.389	c-0.37,0.08-0.762,0.119-1.173,0.119c-0.423,0-0.825-0.035-1.206-0.107C12.376,27.803,12.046,27.695,11.767,27.553z"/><path fill="#fff" d="M25.061,27.848H23.17l-0.548-1.713h-2.739l-0.543,1.713h-1.88l2.804-7.701h2.058L25.061,27.848z M22.225,24.803l-0.827-2.59c-0.062-0.193-0.104-0.424-0.129-0.691h-0.043c-0.019,0.225-0.063,0.449-0.135,0.67l-0.838,2.611H22.225	z"/><path fill="#fff" d="M30.609,27.848h-4.587v-7.701h1.735v6.295h2.852V27.848z"/><path fill="#fff" d="M36.265,27.848h-4.619v-7.701h4.441v1.412H33.38v1.713h2.52v1.408h-2.52v1.762h2.885V27.848z"/></svg>