<svg xmlns="http://www.w3.org/2000/svg" viewBox="0 0 48 48"><linearGradient id="O2PYfQe_UT6rfPol1LtAOa" x1="24" x2="24" y1="8.979" y2="6.308" gradientUnits="userSpaceOnUse"><stop offset="0" stop-color="#b33f20"/><stop offset=".129" stop-color="#c74724"/><stop offset=".295" stop-color="#d94f29"/><stop offset=".469" stop-color="#e4532b"/><stop offset=".659" stop-color="#e8552c"/></linearGradient><path fill="url(#O2PYfQe_UT6rfPol1LtAOa)" d="M28.5,6h-9C18.672,6,18,6.672,18,7.5V9h12V7.5C30,6.672,29.328,6,28.5,6z"/><radialGradient id="O2PYfQe_UT6rfPol1LtAOb" cx="23.832" cy="5.992" r="45.74" gradientTransform="matrix(1 0 0 .8044 0 1.172)" gradientUnits="userSpaceOnUse"><stop offset="0" stop-color="#40150b"/><stop offset=".156" stop-color="#622110"/><stop offset=".417" stop-color="#953218"/><stop offset=".645" stop-color="#ba3f1e"/><stop offset=".828" stop-color="#d14722"/><stop offset=".944" stop-color="#d94a23"/></radialGradient><path fill="url(#O2PYfQe_UT6rfPol1LtAOb)" d="M42,41H6c-1.1,0-2-0.9-2-2V13c0-2.2,1.8-4,4-4h32c2.2,0,4,1.8,4,4v26C44,40.1,43.1,41,42,41z"/><linearGradient id="O2PYfQe_UT6rfPol1LtAOc" x1="24" x2="24" y1="9.028" y2="26.927" gradientUnits="userSpaceOnUse"><stop offset="0" stop-color="#fc7d5b"/><stop offset=".06" stop-color="#f8734f"/><stop offset=".18" stop-color="#f3653d"/><stop offset=".326" stop-color="#f05b31"/><stop offset=".523" stop-color="#ee552a"/><stop offset="1" stop-color="#ed5328"/></linearGradient><path fill="url(#O2PYfQe_UT6rfPol1LtAOc)" d="M42.297,25.255L24,28L5.703,25.255C4.724,25.109,4,24.268,4,23.278V13c0-2.2,1.8-4,4-4h32	c2.2,0,4,1.8,4,4v10.278C44,24.268,43.276,25.109,42.297,25.255z"/><path fill="#f6eca5" d="M25.5,21h-3c-0.276,0-0.5,0.224-0.5,0.5v3c0,0.276,0.224,0.5,0.5,0.5h3c0.276,0,0.5-0.224,0.5-0.5v-3	C26,21.224,25.776,21,25.5,21z"/><radialGradient id="O2PYfQe_UT6rfPol1LtAOd" cx="36.941" cy="36.916" r="9.857" gradientUnits="userSpaceOnUse"><stop offset=".627"/><stop offset="1" stop-opacity="0"/></radialGradient><path fill="url(#O2PYfQe_UT6rfPol1LtAOd)" d="M37,27c-5.523,0-10,4.477-10,10c0,1.423,0.302,2.774,0.838,4H42c1.1,0,2-0.9,2-2	v-9.136C42.196,28.094,39.727,27,37,27z" opacity=".15"/><path fill="#199be2" d="M44.992,43.224l-1.768,1.768l2.935,2.935c0.098,0.098,0.256,0.098,0.354,0l1.414-1.414	c0.098-0.098,0.098-0.256,0-0.354L44.992,43.224z"/><radialGradient id="O2PYfQe_UT6rfPol1LtAOe" cx="37.012" cy="37.048" r="9.802" gradientUnits="userSpaceOnUse"><stop offset=".693" stop-color="#006185"/><stop offset=".921" stop-color="#35c1f1"/></radialGradient><polygon fill="url(#O2PYfQe_UT6rfPol1LtAOe)" points="42.8,41.033 41.033,42.8 43.224,44.992 44.992,43.224"/><linearGradient id="O2PYfQe_UT6rfPol1LtAOf" x1="31.455" x2="42.669" y1="31.455" y2="42.669" gradientUnits="userSpaceOnUse"><stop offset="0" stop-color="#a3ffff"/><stop offset=".223" stop-color="#9dfbff"/><stop offset=".53" stop-color="#8bf1ff"/><stop offset=".885" stop-color="#6ee0ff"/><stop offset="1" stop-color="#63daff"/></linearGradient><circle cx="37" cy="37" r="8" fill="url(#O2PYfQe_UT6rfPol1LtAOf)"/></svg>