<svg xmlns="http://www.w3.org/2000/svg" viewBox="0 0 48 48"><linearGradient id="ST8ISLaLnWKuCoCkc4aLNa" x1="6.963" x2="34.367" y1="7.548" y2="34.952" gradientUnits="userSpaceOnUse"><stop offset="0" stop-color="#5c65d6"/><stop offset=".999" stop-color="#464eb0"/></linearGradient><path fill="url(#ST8ISLaLnWKuCoCkc4aLNa)" d="M45,33v-1l-0.935-2.804C44.022,29.066,44,28.93,44,28.793v-1.214	c0-0.368-0.159-0.718-0.436-0.961l-0.128-0.112C43.159,26.264,43,25.914,43,25.546v-1.017c0-0.339-0.134-0.663-0.374-0.903	l-0.325-0.325c-0.195-0.195-0.322-0.449-0.361-0.722L41,16h-1l-1-1h-0.865l-1.562-0.539L35.979,14l-1.971,0.302	c-0.081,0.012-0.161,0.033-0.239,0.061l-1.007,0.363c-0.465,0.167-0.985,0.051-1.335-0.298l-0.813-0.813	c-0.157-0.157-0.27-0.352-0.329-0.567l-0.029-0.107C30.105,12.385,29.601,12,29.025,12H3.199c-0.674,0-1.232,0.524-1.274,1.197	l-0.84,13.447C1.039,27.379,1.622,28,2.359,28h7.365C10.429,28,11,28.571,11,29.276v5.447C11,35.429,11.571,36,12.276,36H30.96	c0.027,0,0.053-0.001,0.08-0.002l13.137-0.821C45.274,35.108,45.777,33.777,45,33L45,33z"/></svg>