<svg xmlns="http://www.w3.org/2000/svg" viewBox="0 0 48 48"><path fill="#802d10" d="M36,37l-0.25-3.5L31,29.25L34,27l3.832,5.748C37.942,32.912,38,33.105,38,33.303v5.447L36,37z"/><linearGradient id="QkcgYXw6NG7ZVjkI4Zyuha" x1="34.344" x2="38" y1="38.433" y2="38.433" gradientUnits="userSpaceOnUse"><stop offset=".002" stop-color="#454545"/><stop offset=".013" stop-color="#464646"/><stop offset=".875" stop-color="#626262"/><stop offset="1" stop-color="#6d6d6d"/></linearGradient><path fill="url(#QkcgYXw6NG7ZVjkI4Zyuha)" d="M38,38.75l-1.663,1.039c-0.197,0.123-0.454,0.094-0.619-0.07l-1.228-1.228	c-0.241-0.241-0.175-0.648,0.13-0.801L36,37L38,38.75z"/><linearGradient id="QkcgYXw6NG7ZVjkI4Zyuhb" x1="15.756" x2="-1.416" y1="25" y2="25" gradientUnits="userSpaceOnUse"><stop offset=".002" stop-color="#454545"/><stop offset=".013" stop-color="#464646"/><stop offset=".875" stop-color="#626262"/><stop offset="1" stop-color="#6d6d6d"/></linearGradient><path fill="url(#QkcgYXw6NG7ZVjkI4Zyuhb)" d="M14,18H6c-2.209,0-4,1.791-4,4v4c0,3,2,6,4,6v-8.125c0-1.467,1.06-2.718,2.507-2.959L14,20V18	z"/><linearGradient id="QkcgYXw6NG7ZVjkI4Zyuhc" x1="13" x2="15.692" y1="43" y2="43" gradientUnits="userSpaceOnUse"><stop offset=".002" stop-color="#454545"/><stop offset=".013" stop-color="#464646"/><stop offset=".875" stop-color="#626262"/><stop offset="1" stop-color="#6d6d6d"/></linearGradient><path fill="url(#QkcgYXw6NG7ZVjkI4Zyuhc)" d="M15.191,44H13.5c-0.276,0-0.5-0.224-0.5-0.5V42h2l0.638,1.276	C15.804,43.609,15.563,44,15.191,44z"/><path fill="#802d10" d="M12,30c0,2-3,4-3,4l4,8h2l-2-6c0,0,7-2,7-7C20,23.5,12,30,12,30z"/><linearGradient id="QkcgYXw6NG7ZVjkI4Zyuhd" x1="13.375" x2="26.498" y1="7.222" y2="43.28" gradientUnits="userSpaceOnUse"><stop offset="0" stop-color="#c26715"/><stop offset="0" stop-color="#c26715"/><stop offset=".51" stop-color="#b85515"/><stop offset="1" stop-color="#ad3f16"/></linearGradient><path fill="url(#QkcgYXw6NG7ZVjkI4Zyuhd)" d="M34.958,10.469l-0.303-0.662L30.8,13.091l-3.257,2.727C26.153,17.215,23.267,18,21.301,18 h-0.069c-0.797,0-1.588-0.129-2.344-0.382l-0.946-0.317c-0.775-0.26-1.586-0.392-2.403-0.392h0C10.823,16.909,7,20.75,7,25.488 C7,27.25,8,30,8,30c0,1.71-1.28,3.421-2.432,3.88C5.21,34.023,5,34.396,5,34.781V42h2l1-5c0,0,6.931-2.604,7.885-7H27.76 L26.5,40.5L27,42h2l-0.5-1.5l3.012-10.758c2.683-0.774,4.656-3.232,4.71-6.164l1.725-6.63L34.958,10.469z"/><linearGradient id="QkcgYXw6NG7ZVjkI4Zyuhe" x1="33.02" x2="33.02" y1="20.907" y2="1.608" gradientUnits="userSpaceOnUse"><stop offset=".002" stop-color="#454545"/><stop offset=".013" stop-color="#464646"/><stop offset=".875" stop-color="#626262"/><stop offset="1" stop-color="#6d6d6d"/></linearGradient><path fill="url(#QkcgYXw6NG7ZVjkI4Zyuhe)" d="M33.142,8.871c-0.735,0.857-2.099,2.406-3.406,3.885c-0.721,0.817-1.81,2.054-2.454,2.786	c-0.345,0.392-0.532,0.889-0.532,1.407v2.05c0,1.075,0.75,2.072,1.832,2.244c1.38,0.22,2.572-0.818,2.572-2.129v-2.158	c0,0.596,0.493,1.079,1.101,1.079c0.608,0,1.101-0.483,1.101-1.079v-1.889c0,0.447,0.37,0.809,0.826,0.809s0.826-0.362,0.826-0.809	v-4.175l0.031-0.02l0.331-0.287l3.919-3.569C36.888,6.075,35.064,6.634,33.142,8.871z"/><linearGradient id="QkcgYXw6NG7ZVjkI4Zyuhf" x1="40.5" x2="40.5" y1="3.119" y2="19.816" gradientUnits="userSpaceOnUse"><stop offset="0" stop-color="#c26715"/><stop offset="0" stop-color="#c26715"/><stop offset=".51" stop-color="#b85515"/><stop offset="1" stop-color="#ad3f16"/></linearGradient><path fill="url(#QkcgYXw6NG7ZVjkI4Zyuhf)" d="M45.441,14.54l-4.796-4.604c-0.081-0.078-0.174-0.139-0.276-0.183L37,8.5V6	c-1.31,0.545-2,2.182-2,3.818c0,4.295,0,5.727,1.833,7.159c0,0,0.481,0.477,1.856,0.477s2.177-0.477,2.177-0.477l3.014,0.679	c0.733,0.165,1.485-0.174,1.87-0.843v0C46.176,16.074,46.047,15.126,45.441,14.54z"/><linearGradient id="QkcgYXw6NG7ZVjkI4Zyuhg" x1="40.243" x2="40.243" y1="20.905" y2="1.487" gradientUnits="userSpaceOnUse"><stop offset=".002" stop-color="#454545"/><stop offset=".013" stop-color="#464646"/><stop offset=".875" stop-color="#626262"/><stop offset="1" stop-color="#6d6d6d"/></linearGradient><path fill="url(#QkcgYXw6NG7ZVjkI4Zyuhg)" d="M39.109,6.952c1.066,0.357,3.444,1.577,4.391,3.957c-1.9,0.545-5.429-0.818-6.514-2.455	C36.986,7.146,39.109,6.952,39.109,6.952z"/><path fill="#5c2415" d="M39.333,13C38.363,13,38,11.75,38,11.75s0.965,0,1.333,0S40,12.03,40,12.375S39.701,13,39.333,13z"/><linearGradient id="QkcgYXw6NG7ZVjkI4Zyuhh" x1="6.346" x2="6.346" y1="44.044" y2="38.907" gradientUnits="userSpaceOnUse"><stop offset=".002" stop-color="#454545"/><stop offset=".013" stop-color="#464646"/><stop offset=".875" stop-color="#626262"/><stop offset="1" stop-color="#6d6d6d"/></linearGradient><path fill="url(#QkcgYXw6NG7ZVjkI4Zyuhh)" d="M7.191,44H5.5C5.224,44,5,43.776,5,43.5V42h2l0.638,1.276C7.804,43.609,7.563,44,7.191,44z"/><linearGradient id="QkcgYXw6NG7ZVjkI4Zyuhi" x1="28.346" x2="28.346" y1="44.044" y2="38.907" gradientUnits="userSpaceOnUse"><stop offset=".002" stop-color="#454545"/><stop offset=".013" stop-color="#464646"/><stop offset=".875" stop-color="#626262"/><stop offset="1" stop-color="#6d6d6d"/></linearGradient><path fill="url(#QkcgYXw6NG7ZVjkI4Zyuhi)" d="M29.191,44H27.5c-0.276,0-0.5-0.224-0.5-0.5V42h2l0.638,1.276	C29.804,43.609,29.563,44,29.191,44z"/><g><linearGradient id="QkcgYXw6NG7ZVjkI4Zyuhj" x1="22.891" x2="29.913" y1="5" y2="5" gradientUnits="userSpaceOnUse"><stop offset="0" stop-color="#ffcf54"/><stop offset=".261" stop-color="#fdcb4d"/><stop offset=".639" stop-color="#f7c13a"/><stop offset="1" stop-color="#f0b421"/></linearGradient><path fill="url(#QkcgYXw6NG7ZVjkI4Zyuhj)" d="M29,5c0,1.656-1.343,3-2.998,3C24.342,8,23,6.656,23,5s1.342-3,3.001-3 C27.657,2,29,3.344,29,5z"/><path fill="#35c1f1" d="M27,12c0,1.656-1.343,3-2.998,3C22.342,15,21,13.656,21,12s1.342-3,3.001-3 C25.657,9,27,10.344,27,12z"/><path fill="#35c1f1" d="M24,17c0,1.656-1.343,3-2.998,3C19.342,20,18,18.656,18,17s1.342-3,3.001-3 C22.657,14,24,15.344,24,17z"/><path fill="#35c1f1" d="M32,17c0,0.552-0.448,1-0.999,1C30.447,18,30,17.552,30,17s0.447-1,1-1C31.552,16,32,16.448,32,17z"/><polygon fill="#35c1f1" points="21.446,10.426 18.526,15.302 23.693,18.322 26.55,13.581"/><polygon fill="#35c1f1" points="26.828,10.995 28.361,14.259 31.429,16.096 30.557,17.897 27,16 24.546,13.019"/><path fill="#35c1f1" d="M21,27c0,0.552-0.448,1-0.999,1C19.447,28,19,27.552,19,27s0.447-1,1-1C20.552,26,21,26.448,21,27z"/><path fill="#35c1f1" d="M18.526,18.697L21.5,22.5l-2.224,3.811l1.61,1.154l3.28-4.05c0.209-0.259,0.277-0.605,0.179-0.923 l-1.388-4.524L18.526,18.697z"/></g></svg>