<svg xmlns="http://www.w3.org/2000/svg" data-name="Слой 1" viewBox="0 0 48 48"><defs><linearGradient id="PzUz5FIt6jyZhm7jo9DjCa" x1="24" x2="24" y1="6.043" y2="27.704" data-name="Безымянный градиент 129" gradientUnits="userSpaceOnUse"><stop offset="0" stop-color="#ffd869"/><stop offset="1" stop-color="#fec52b"/></linearGradient><linearGradient id="PzUz5FIt6jyZhm7jo9DjCb" x1="24" x2="24" y1="12.598" y2="22.486" data-name="Безымянный градиент 121" gradientUnits="userSpaceOnUse"><stop offset="0" stop-color="#f44f5a"/><stop offset=".443" stop-color="#ee3d4a"/><stop offset="1" stop-color="#e52030"/></linearGradient></defs><path fill="url(#PzUz5FIt6jyZhm7jo9DjCa)" d="M48,20s-.4,2-5,2c-1,.8-3.1,1-4.2,1-.5.6-.9,1-1.2,1-.7,0-.7-.5-.5-1h-.9L31,30.4s.8.3.8.9c0,.7-.4.7-.4.7H28l1.2-1.8L32,23l.9-3h1s1.8-3,2.4-3H37s1-1,1.8-1-.8,4-.8,4h1a1.95445,1.95445,0,0,1,1.7-1c.7,0,.2,1,.2,1ZM0,20s.4,2,5,2c1,.8,3.1,1,4.2,1,.5.6.9,1,1.2,1,.7,0,.7-.5.5-1h.9L17,30.4s-.8.3-.8.9c0,.7.4.7.4.7H20l-1.2-1.8L16,23l-.9-3h-1s-1.8-3-2.4-3H11s-1-1-1.8-1,.8,4,.8,4H9a1.95445,1.95445,0,0,0-1.7-1c-.7,0-.2,1-.2,1Z"/><path fill="#889097" d="M23.5235,40.84208,30,17l.5-.25L31,17,24.48862,41.10388Z"/><path fill="#889097" d="M23.48491,40.93568,26,17l.5-.25L27,17,24.47953,41.03929Z"/><path fill="#889097" d="M17,17l.5-.25L18,17l6.50177,23.91271-.9653.26114Z"/><path fill="#889097" d="M21,17l.5-.25L22,17l2.5137,23.9799-.9947.10283Z"/><path fill="#889097" d="M34,17,24,40.9l.9.4L35,17l-.5-.25Z"/><path fill="#889097" d="M14,17,24.1,40.9l-.9.4L13,17l.5-.25Z"/><path fill="#64717c" d="M25,41a1,1,0,1,1-1-1A.94477.94477,0,0,1,25,41Z"/><path fill="#bfc8d1" d="M24,7c-6.9,0-11,4.1-11,9v1h1a1.45321,1.45321,0,0,1,1.5-1A1.45321,1.45321,0,0,1,17,17h1a1.45321,1.45321,0,0,1,1.5-1A1.45321,1.45321,0,0,1,21,17h1a2.16641,2.16641,0,0,1,2-1,2.16641,2.16641,0,0,1,2,1h1a1.625,1.625,0,0,1,3,0h1a1.625,1.625,0,0,1,3,0h1V16C35,11.1,30.9,7,24,7Z"/><path fill="url(#PzUz5FIt6jyZhm7jo9DjCb)" d="M24,16.2,25.2,20H29l-3,2.4L27,26l-3-2.2L21,26l1-3.6L19,20h3.8Z"/></svg>