<svg xmlns="http://www.w3.org/2000/svg" viewBox="0 0 48 48"><linearGradient id="RwscdJNOYS98EBTfhCEb1a" x1="24" x2="24" y1="5.065" y2="43.89" gradientUnits="userSpaceOnUse"><stop offset="0" stop-color="#bd4ff4"/><stop offset=".587" stop-color="#a235ec"/><stop offset="1" stop-color="#8c20e5"/></linearGradient><path fill="url(#RwscdJNOYS98EBTfhCEb1a)" d="M39.981,28H8.019C6.904,28,6,27.096,6,25.981v-3.961C6,20.904,6.904,20,8.019,20h31.961 C41.096,20,42,20.904,42,22.019v3.961C42,27.096,41.096,28,39.981,28z M25.981,15h-3.961C20.904,15,20,14.096,20,12.981V9.019 C20,7.904,20.904,7,22.019,7h3.961C27.096,7,28,7.904,28,9.019v3.961C28,14.096,27.096,15,25.981,15z M25.981,41h-3.961 C20.904,41,20,40.096,20,38.981v-3.961C20,33.904,20.904,33,22.019,33h3.961C27.096,33,28,33.904,28,35.019v3.961 C28,40.096,27.096,41,25.981,41z"/></svg>