<svg xmlns="http://www.w3.org/2000/svg" viewBox="0 0 48 48"><linearGradient id="dgaDH33cPbvqiBPKFTA~da" x1="21.405" x2="26.547" y1="3.091" y2="44.52" gradientUnits="userSpaceOnUse"><stop offset="0" stop-color="#636363"/><stop offset="1" stop-color="#444"/></linearGradient><path fill="url(#dgaDH33cPbvqiBPKFTA~da)" d="M27.316,15.158h5.526c0.61,0,1.105-0.495,1.105-1.105v-3.316C33.947,6.464,30.483,3,26.211,3 h-4.421c-4.273,0-7.737,3.464-7.737,7.737v21v5.526c0,4.273,3.464,7.737,7.737,7.737h4.421c4.273,0,7.737-3.464,7.737-7.737V21.789 c0-2.211-2.475-4.421-5.526-4.421h-2.211c-2.211,0-3.316,0.989-3.316,2.211l0,0v-7.184c0-0.915,0.743-1.658,1.658-1.658l0,0 c0.915,0,1.658,0.743,1.658,1.658v1.658C26.211,14.663,26.705,15.158,27.316,15.158z"/><path fill="#fff" d="M28.454,25.081c-1.385,0.418-3.171,1.119-3.357,1.155c-0.266,0.053-0.82,0.057-1.085,0 c-0.263-0.056-0.528-0.239-0.668-0.847c0,0-1.828-0.013-1.862,0c-0.126,0.05-0.79,0.315-0.817,0.847h-0.269 c0,0-0.067,0.422,0,0.538c0.043,0.074,0.298,0.169,0.298,0.169l-0.011,0.372v12.158v0.408l-0.309,0.292l-0.002,0.197h0.304v0.199 h0.229v0.408h1.285v-0.209c0,0,0.964,0.017,1.274-0.358c0.014-0.018,0.007-6.397,0-6.493c-0.027-0.407,0.588-0.727,1.435-0.777 h0.797c0,0,0.279-0.042,0.199-0.358c-0.01-0.04-0.02-2.293,0-3.057c0.007-0.25,0.01-0.378,0.876-0.477l3.257-0.568V25.96 C30.028,25.957,29.839,24.663,28.454,25.081z M25.695,32.492c-0.01,0.368-0.368,0.368-0.368,0.368h-1.274 c-0.578,0.04-0.518-0.388-0.518-0.388s-0.038-0.999,0-1.554c0.012-0.178,0.129-0.259,0.578-0.418 c0.715-0.254,0.837-0.031,1.069,0.086c0.069,0.035,0.212,0.139,0.265,0.083c0.225-0.24-0.368-0.658-0.518-0.717 c-0.149-0.06-0.124-0.248-0.06-0.249c0.558-0.013,0.827,0.398,0.827,0.398S25.705,32.123,25.695,32.492z"/></svg>