<svg xmlns="http://www.w3.org/2000/svg" viewBox="0 0 48 48"><path fill="#50e6ff" d="M39,7v34c0,1.105-0.895,2-2,2H11c-1.105,0-2-0.895-2-2V7c0-1.105,0.895-2,2-2h26	C38.105,5,39,5.895,39,7z"/><circle cx="17" cy="13" r="2" fill="#057093"/><path fill="#057093" d="M17,16c-1.657,0-3,1.343-3,3v1.4c0,0.331,0.269,0.6,0.6,0.6h4.8c0.331,0,0.6-0.269,0.6-0.6V19	C20,17.343,18.657,16,17,16z"/><path fill="#057093" d="M33,28H15c-0.552,0-1,0.448-1,1l0,0c0,0.552,0.448,1,1,1h18c0.552,0,1-0.448,1-1l0,0	C34,28.448,33.552,28,33,28z"/><path fill="#057093" d="M33,24H15c-0.552,0-1,0.448-1,1l0,0c0,0.552,0.448,1,1,1h18c0.552,0,1-0.448,1-1l0,0	C34,24.448,33.552,24,33,24z"/><path fill="#057093" d="M29,36H15c-0.552,0-1,0.448-1,1l0,0c0,0.552,0.448,1,1,1h14c0.552,0,1-0.448,1-1l0,0	C30,36.448,29.552,36,29,36z"/><path fill="#057093" d="M33,32H15c-0.552,0-1,0.448-1,1l0,0c0,0.552,0.448,1,1,1h18c0.552,0,1-0.448,1-1l0,0	C34,32.448,33.552,32,33,32z"/><path fill="#057093" d="M33,16h-8c-0.552,0-1,0.448-1,1l0,0c0,0.552,0.448,1,1,1h8c0.552,0,1-0.448,1-1l0,0	C34,16.448,33.552,16,33,16z"/><path fill="#057093" d="M33,12h-8c-0.552,0-1,0.448-1,1l0,0c0,0.552,0.448,1,1,1h8c0.552,0,1-0.448,1-1l0,0	C34,12.448,33.552,12,33,12z"/><linearGradient id="3H6fTjlxEFSD_8x0DhrE3a" x1="-254.646" x2="-254.646" y1="144.319" y2="157.739" gradientTransform="rotate(180 -107.823 94.823)" gradientUnits="userSpaceOnUse"><stop offset="0" stop-color="#c965eb"/><stop offset="1" stop-color="#c767e5"/></linearGradient><path fill="url(#3H6fTjlxEFSD_8x0DhrE3a)" d="M44.393,39H41v-6c0-0.552-0.448-1-1-1h-2c-0.552,0-1,0.448-1,1v6h-3.393	c-0.54,0-0.81,0.653-0.428,1.034l4.964,4.964c0.473,0.473,1.241,0.473,1.714,0l4.964-4.964C45.203,39.653,44.933,39,44.393,39z"/></svg>