<svg xmlns="http://www.w3.org/2000/svg" width="48" height="48" viewBox="0 0 48 48"><linearGradient id="ySS8Wr5WDESsnshD51QpFa" x1="4" x2="44" y1="24" y2="24" gradientUnits="userSpaceOnUse"><stop offset="0" stop-color="#ffcf7b"/><stop offset=".196" stop-color="#fecd76"/><stop offset=".439" stop-color="#fac666"/><stop offset=".709" stop-color="#f3bc4d"/><stop offset=".995" stop-color="#eaad2a"/><stop offset="1" stop-color="#eaad29"/></linearGradient><path fill="url(#ySS8Wr5WDESsnshD51QpFa)" d="M41.5,23c-0.885,0-1.707-0.26-2.4-0.703c-0.604-0.387-1.351-0.408-2-0.102	c-1.396,0.658-2.998,0.949-4.688,0.737c-3.801-0.477-6.889-3.574-7.348-7.377c-0.202-1.677,0.086-3.271,0.738-4.66	c0.293-0.625,0.319-1.362-0.062-1.938C25.274,8.252,25,7.41,25,6.5c0-0.612,0.138-1.188,0.35-1.723	c0.135-0.339,0.01-0.73-0.382-0.746C24.647,4.018,24.325,4,24,4C12.597,4,3.424,13.542,4.028,25.077	c0.529,10.095,8.799,18.366,18.895,18.895C34.458,44.576,44,35.403,44,24c0-0.315-0.012-0.627-0.027-0.938	c-0.02-0.437-0.411-0.578-0.81-0.387C42.663,22.914,42.089,23,41.5,23z"/><radialGradient id="ySS8Wr5WDESsnshD51QpFb" cx="16.5" cy="34" r="3" gradientUnits="userSpaceOnUse"><stop offset="0"/><stop offset=".661" stop-color="#121010" stop-opacity=".5"/><stop offset="1" stop-opacity="0"/></radialGradient><circle cx="16.5" cy="34" r="3" fill="url(#ySS8Wr5WDESsnshD51QpFb)" opacity=".3"/><radialGradient id="ySS8Wr5WDESsnshD51QpFc" cx="13" cy="22.5" r="3.5" gradientUnits="userSpaceOnUse"><stop offset="0"/><stop offset=".661" stop-color="#121010" stop-opacity=".5"/><stop offset="1" stop-opacity="0"/></radialGradient><circle cx="13" cy="22.5" r="3.5" fill="url(#ySS8Wr5WDESsnshD51QpFc)" opacity=".3"/><radialGradient id="ySS8Wr5WDESsnshD51QpFd" cx="28" cy="35.5" r="3.5" gradientUnits="userSpaceOnUse"><stop offset="0"/><stop offset=".661" stop-color="#121010" stop-opacity=".5"/><stop offset="1" stop-opacity="0"/></radialGradient><circle cx="28" cy="35.5" r="3.5" fill="url(#ySS8Wr5WDESsnshD51QpFd)" opacity=".3"/><radialGradient id="ySS8Wr5WDESsnshD51QpFe" cx="34.5" cy="28" r="2" gradientUnits="userSpaceOnUse"><stop offset="0"/><stop offset="1" stop-opacity="0"/></radialGradient><circle cx="34.5" cy="28" r="2" fill="url(#ySS8Wr5WDESsnshD51QpFe)" opacity=".3"/><radialGradient id="ySS8Wr5WDESsnshD51QpFf" cx="22.5" cy="25" r="2" gradientUnits="userSpaceOnUse"><stop offset="0"/><stop offset="1" stop-opacity="0"/></radialGradient><circle cx="22.5" cy="25" r="2" fill="url(#ySS8Wr5WDESsnshD51QpFf)" opacity=".3"/><radialGradient id="ySS8Wr5WDESsnshD51QpFg" cx="18.5" cy="14" r="2" gradientUnits="userSpaceOnUse"><stop offset="0"/><stop offset="1" stop-opacity="0"/></radialGradient><circle cx="18.5" cy="14" r="2" fill="url(#ySS8Wr5WDESsnshD51QpFg)" opacity=".3"/><linearGradient id="ySS8Wr5WDESsnshD51QpFh" x1="33" x2="44" y1="10.5" y2="10.5" gradientUnits="userSpaceOnUse"><stop offset="0" stop-color="#ffcf7b"/><stop offset=".196" stop-color="#fecd76"/><stop offset=".439" stop-color="#fac666"/><stop offset=".709" stop-color="#f3bc4d"/><stop offset=".995" stop-color="#eaad2a"/><stop offset="1" stop-color="#eaad29"/></linearGradient><path fill="url(#ySS8Wr5WDESsnshD51QpFh)" d="M34.5,11c-0.828,0-1.5,0.672-1.5,1.5s0.672,1.5,1.5,1.5s1.5-0.672,1.5-1.5S35.328,11,34.5,11	z M42.5,14c-0.828,0-1.5,0.672-1.5,1.5c0,0.828,0.672,1.5,1.5,1.5s1.5-0.672,1.5-1.5C44,14.672,43.328,14,42.5,14z M36,4	c-1.105,0-2,0.895-2,2s0.895,2,2,2s2-0.895,2-2S37.105,4,36,4z"/><linearGradient id="ySS8Wr5WDESsnshD51QpFi" x1="10" x2="36" y1="25" y2="25" gradientUnits="userSpaceOnUse"><stop offset="0" stop-color="#c26715"/><stop offset="0" stop-color="#c26715"/><stop offset=".51" stop-color="#b85515"/><stop offset="1" stop-color="#ad3f16"/></linearGradient><path fill="url(#ySS8Wr5WDESsnshD51QpFi)" d="M13,19c-1.657,0-3,1.343-3,3s1.343,3,3,3s3-1.343,3-3S14.657,19,13,19z M28,32	c-1.657,0-3,1.343-3,3s1.343,3,3,3s3-1.343,3-3S29.657,32,28,32z M16.5,31c-1.381,0-2.5,1.119-2.5,2.5s1.119,2.5,2.5,2.5	s2.5-1.119,2.5-2.5S17.881,31,16.5,31z M22.5,23c-0.828,0-1.5,0.672-1.5,1.5s0.672,1.5,1.5,1.5s1.5-0.672,1.5-1.5S23.328,23,22.5,23	z M34.5,26c-0.828,0-1.5,0.672-1.5,1.5s0.672,1.5,1.5,1.5s1.5-0.672,1.5-1.5S35.328,26,34.5,26z M18.5,12	c-0.828,0-1.5,0.672-1.5,1.5s0.672,1.5,1.5,1.5s1.5-0.672,1.5-1.5S19.328,12,18.5,12z"/></svg>