<svg xmlns="http://www.w3.org/2000/svg" viewBox="0 0 48 48"><linearGradient id="j2fhza3CJcHQ14bXtkn9Oa" x1="39.001" x2="41.528" y1="1247.5" y2="1247.5" gradientTransform="translate(0 -1218)" gradientUnits="userSpaceOnUse"><stop offset="0" stop-color="#c48f0c"/><stop offset=".251" stop-color="#d19b16"/><stop offset=".619" stop-color="#dca51f"/><stop offset="1" stop-color="#e0a922"/></linearGradient><path fill="url(#j2fhza3CJcHQ14bXtkn9Oa)" d="M39,25h-1v9h1.3c1,0,1.8-0.7,2-1.7l0.7-3.8C42.3,26.7,40.9,25,39,25z"/><linearGradient id="j2fhza3CJcHQ14bXtkn9Ob" x1="-3349" x2="-3346.472" y1="1247.5" y2="1247.5" gradientTransform="matrix(-1 0 0 1 -3340 -1218)" gradientUnits="userSpaceOnUse"><stop offset="0" stop-color="#c48f0c"/><stop offset=".251" stop-color="#d19b16"/><stop offset=".619" stop-color="#dca51f"/><stop offset="1" stop-color="#e0a922"/></linearGradient><path fill="url(#j2fhza3CJcHQ14bXtkn9Ob)" d="M9,25h1v9H8.7c-1,0-1.8-0.7-2-1.7L6,28.5C5.7,26.7,7.1,25,9,25z"/><radialGradient id="j2fhza3CJcHQ14bXtkn9Oc" cx="24" cy="1243.5" r="17.396" gradientTransform="translate(0 -1218)" gradientUnits="userSpaceOnUse"><stop offset="0" stop-color="#ffcf54"/><stop offset=".261" stop-color="#fdcb4d"/><stop offset=".639" stop-color="#f7c13a"/><stop offset="1" stop-color="#f0b421"/></radialGradient><path fill="url(#j2fhza3CJcHQ14bXtkn9Oc)" d="M24,6C16.6,6,9,9,9,25c0,1.3,0,5.9,0,7.3C9,38,18,45,24,45s15-7,15-12.7c0-1.4,0-6,0-7.3	C39,9,31.4,6,24,6z"/><radialGradient id="j2fhza3CJcHQ14bXtkn9Od" cx="9.386" cy="1223.933" r="42.765" gradientTransform="translate(0 -1218)" gradientUnits="userSpaceOnUse"><stop offset="0" stop-color="#c26715"/><stop offset=".508" stop-color="#b85515"/><stop offset="1" stop-color="#ad3f16"/></radialGradient><path fill="url(#j2fhza3CJcHQ14bXtkn9Od)" d="M24,4c-8,0-10,3-10,3c-3.2,0.5-7,4.6-7,10c0,3,0.7,4.4,2,12c1-12,2-16,4-16c3,0,3,2,11.8,2	c5,0,7.2-2,9.2-2c5,0,5,14.1,5,16c0.8-7.4,1-9.4,1-12C40,10.7,35.4,4,24,4z"/><radialGradient id="j2fhza3CJcHQ14bXtkn9Oe" cx="20.832" cy="1227.178" r="53.981" gradientTransform="translate(0 -1218)" gradientUnits="userSpaceOnUse"><stop offset="0" stop-color="#c26715"/><stop offset=".508" stop-color="#b85515"/><stop offset="1" stop-color="#ad3f16"/></radialGradient><path fill="url(#j2fhza3CJcHQ14bXtkn9Oe)" d="M24,3c-8,0-10,4-10,4c-0.1,2.1,1,4,1,4s1.5,3,9.8,3c5,0,12.2-3,12.2-11C37,3,35.4,3,24,3z"/><circle cx="30.5" cy="26.5" r="1.5" fill="#3b3b3b"/><circle cx="17.5" cy="26.5" r="1.5" fill="#3b3b3b"/><path fill="#d59f1a" d="M28,36h-8c-0.6,0-1,0.4-1,1s0.4,1,1,1h8c0.6,0,1-0.4,1-1S28.6,36,28,36z"/><polyline fill="none" stroke="#d59f1a" stroke-linecap="round" stroke-linejoin="round" stroke-miterlimit="10" stroke-width="1.7" points="23.596,25.73 25.915,31.594 21.957,31.594"/></svg>