<svg xmlns="http://www.w3.org/2000/svg" viewBox="0 0 48 48"><path fill="#35c1f1" d="M16,6h23c1.105,0,2,0.895,2,2v24c0,1.105-0.895,2-2,2H15V7C15,6.448,15.448,6,16,6z"/><path fill="#199be2" d="M15,7.219c0,0.459,0.312,0.859,0.757,0.97l14.485,3.621C30.688,11.922,31,12.322,31,12.781V15l-16,1	V7.219z"/><path fill="#50e6ff" d="M6,14h24c0.552,0,1-0.448,1-1v28c0,0.552-0.448,1-1,1H6c-0.552,0-1-0.448-1-1V15	C5,14.448,5.448,14,6,14z"/><radialGradient id="lbg0c1kW3b~vz7saGulyWa" cx="30.239" cy="29.852" r="10.473" gradientUnits="userSpaceOnUse"><stop offset="0" stop-color="#bd8af5"/><stop offset=".137" stop-color="#b88bf5"/><stop offset=".309" stop-color="#a88ff3"/><stop offset=".499" stop-color="#8f96f2"/><stop offset=".702" stop-color="#6b9eef"/><stop offset=".913" stop-color="#3eaaec"/><stop offset="1" stop-color="#29afea"/></radialGradient><path fill="url(#lbg0c1kW3b~vz7saGulyWa)" d="M26,18H10c-0.552,0-1,0.448-1,1v10c0,1.657,1.343,3,3,3h12.548C25.902,32,27,30.902,27,29.548	V19C27,18.448,26.552,18,26,18z"/><path fill="#436dcd" d="M27,29.488l-5.38-5.38c-0.578-0.578-1.511-0.59-2.104-0.028L15,28.357V32h11c0.552,0,1-0.448,1-1	V29.488z"/><linearGradient id="lbg0c1kW3b~vz7saGulyWb" x1="17" x2="17" y1="22.16" y2="32.171" gradientUnits="userSpaceOnUse"><stop offset="0" stop-color="#124787"/><stop offset=".923" stop-color="#173b75"/><stop offset="1" stop-color="#173a73"/></linearGradient><path fill="url(#lbg0c1kW3b~vz7saGulyWb)" d="M25,32l-9.279-9.279c-0.705-0.705-1.843-0.72-2.567-0.035L9,26.622V31c0,0.552,0.448,1,1,1H25	z"/><circle cx="23.5" cy="21.5" r="1.5" fill="#fff"/><path fill="#199be2" d="M26.5,37h-17C9.224,37,9,36.776,9,36.5v-1C9,35.224,9.224,35,9.5,35h17c0.276,0,0.5,0.224,0.5,0.5v1	C27,36.776,26.776,37,26.5,37z"/></svg>