<svg xmlns="http://www.w3.org/2000/svg" viewBox="0 0 48 48"><linearGradient id="LJ2Hm7NNFfCvlnBYrWQzWa" x1="24" x2="24" y1="-18.282" y2="-18.357" gradientUnits="userSpaceOnUse"><stop offset="0" stop-color="#3079d6"/><stop offset="1" stop-color="#297cd2"/></linearGradient><polygon fill="url(#LJ2Hm7NNFfCvlnBYrWQzWa)" points="39.676,29.95 32.768,18.948 15.232,18.948 8.324,29.95"/><linearGradient id="LJ2Hm7NNFfCvlnBYrWQzWb" x1="-305.603" x2="40.053" y1="-76.382" y2="-472.822" gradientTransform="matrix(1 0 0 -1 0 -426)" gradientUnits="userSpaceOnUse"><stop offset="0" stop-color="#3079d6"/><stop offset="1" stop-color="#297cd2"/></linearGradient><polygon fill="url(#LJ2Hm7NNFfCvlnBYrWQzWb)" points="39.676,29.95 32.768,18.948 15.232,18.948 8.324,29.95"/><linearGradient id="LJ2Hm7NNFfCvlnBYrWQzWc" x1="0" x2="48" y1="35.475" y2="35.475" gradientUnits="userSpaceOnUse"><stop offset="0" stop-color="#1d59b3"/><stop offset="1" stop-color="#195bbc"/></linearGradient><path fill="url(#LJ2Hm7NNFfCvlnBYrWQzWc)" d="M45,39c0-0.663-0.366-1.154-0.366-1.154l-4.958-7.896H8.324l-4.958,7.896	C3.366,37.846,3,38.337,3,39c0,1.105,0.895,2,2,2h38C44.105,41,45,40.105,45,39z"/><linearGradient id="LJ2Hm7NNFfCvlnBYrWQzWd" x1="-310.305" x2="35.351" y1="-80.482" y2="-476.922" gradientTransform="matrix(1 0 0 -1 0 -426)" gradientUnits="userSpaceOnUse"><stop offset="0" stop-color="#1d59b3"/><stop offset="1" stop-color="#195bbc"/></linearGradient><path fill="url(#LJ2Hm7NNFfCvlnBYrWQzWd)" d="M45,39c0-0.663-0.366-1.154-0.366-1.154l-4.958-7.896H8.324l-4.958,7.896	C3.366,37.846,3,38.337,3,39c0,1.105,0.895,2,2,2h38C44.105,41,45,40.105,45,39z"/><linearGradient id="LJ2Hm7NNFfCvlnBYrWQzWe" x1="19" x2="29" y1="29" y2="29" gradientUnits="userSpaceOnUse"><stop offset="0" stop-opacity="0"/><stop offset=".427" stop-opacity=".854"/><stop offset=".5"/><stop offset=".573" stop-opacity=".854"/><stop offset="1" stop-opacity="0"/></linearGradient><rect width="10" height="24" x="19" y="17" fill="url(#LJ2Hm7NNFfCvlnBYrWQzWe)"/><linearGradient id="LJ2Hm7NNFfCvlnBYrWQzWf" x1="24" x2="24" y1="18.895" y2="6.647" gradientUnits="userSpaceOnUse"><stop offset="0" stop-color="#42a3f2"/><stop offset="1" stop-color="#42a4eb"/></linearGradient><path fill="url(#LJ2Hm7NNFfCvlnBYrWQzWf)" d="M25.76,7.787c0,0-0.508-1.05-1.76-1.05s-1.76,1.05-1.76,1.05l-7.008,11.161h17.536	L25.76,7.787z"/><linearGradient id="LJ2Hm7NNFfCvlnBYrWQzWg" x1="-300.125" x2="45.532" y1="-71.605" y2="-468.045" gradientTransform="matrix(1 0 0 -1 0 -426)" gradientUnits="userSpaceOnUse"><stop offset="0" stop-color="#42a3f2"/><stop offset="1" stop-color="#42a4eb"/></linearGradient><path fill="url(#LJ2Hm7NNFfCvlnBYrWQzWg)" d="M25.76,7.787c0,0-0.508-1.05-1.76-1.05s-1.76,1.05-1.76,1.05l-7.008,11.161h17.536	L25.76,7.787z"/><linearGradient id="LJ2Hm7NNFfCvlnBYrWQzWh" x1="-409.75" x2="53.531" y1="526.477" y2="-4.869" gradientUnits="userSpaceOnUse"><stop offset="0" stop-color="#42a3f2"/><stop offset="1" stop-color="#42a4eb"/></linearGradient><rect width="4" height="24" x="22" y="17" fill="url(#LJ2Hm7NNFfCvlnBYrWQzWh)"/></svg>