<svg xmlns="http://www.w3.org/2000/svg" viewBox="0 0 48 48"><path fill="#50e6ff" d="M43,11c0-1.105-0.895-2-2-2H7c-1.105,0-2,0.895-2,2v26c0,1.105,0.895,2,2,2h34c1.105,0,2-0.895,2-2	V11z"/><path fill="#057093" d="M37.5,17h-27c-0.276,0-0.5-0.224-0.5-0.5v-2c0-0.276,0.224-0.5,0.5-0.5h27c0.276,0,0.5,0.224,0.5,0.5	v2C38,16.776,37.776,17,37.5,17z"/><path fill="#057093" d="M37.5,22h-2c-0.276,0-0.5-0.224-0.5-0.5v-1c0-0.276,0.224-0.5,0.5-0.5h2c0.276,0,0.5,0.224,0.5,0.5v1	C38,21.776,37.776,22,37.5,22z"/><path fill="#057093" d="M30.5,22h-20c-0.276,0-0.5-0.224-0.5-0.5v-1c0-0.276,0.224-0.5,0.5-0.5h20c0.276,0,0.5,0.224,0.5,0.5	v1C31,21.776,30.776,22,30.5,22z"/><path fill="#057093" d="M37.5,26h-2c-0.276,0-0.5-0.224-0.5-0.5v-1c0-0.276,0.224-0.5,0.5-0.5h2c0.276,0,0.5,0.224,0.5,0.5v1	C38,25.776,37.776,26,37.5,26z"/><path fill="#057093" d="M28.5,26h-18c-0.276,0-0.5-0.224-0.5-0.5v-1c0-0.276,0.224-0.5,0.5-0.5h18c0.276,0,0.5,0.224,0.5,0.5	v1C29,25.776,28.776,26,28.5,26z"/><path fill="#057093" d="M37.5,30h-2c-0.276,0-0.5-0.224-0.5-0.5v-1c0-0.276,0.224-0.5,0.5-0.5h2c0.276,0,0.5,0.224,0.5,0.5v1	C38,29.776,37.776,30,37.5,30z"/><path fill="#057093" d="M30.5,30h-20c-0.276,0-0.5-0.224-0.5-0.5v-1c0-0.276,0.224-0.5,0.5-0.5h20c0.276,0,0.5,0.224,0.5,0.5	v1C31,29.776,30.776,30,30.5,30z"/><path fill="#057093" d="M37.5,36h-9c-0.276,0-0.5-0.224-0.5-0.5v-1c0-0.276,0.224-0.5,0.5-0.5h9c0.276,0,0.5,0.224,0.5,0.5v1	C38,35.776,37.776,36,37.5,36z"/></svg>