<svg xmlns="http://www.w3.org/2000/svg" viewBox="0 0 48 48"><linearGradient id="kWRaptd_7WZXLRfs3Jtroa" x1="16.242" x2="30.925" y1="-297.522" y2="-332.493" gradientTransform="matrix(1 0 0 -1 0 -290)" gradientUnits="userSpaceOnUse"><stop offset="0" stop-color="#7dd8f3"/><stop offset="1" stop-color="#45b0d0"/></linearGradient><path fill="url(#kWRaptd_7WZXLRfs3Jtroa)" d="M43,11H23.828c-0.53,0-1.039-0.211-1.414-0.586l-2.536-2.536C19.316,7.316,18.553,7,17.757,7	H5C3.895,7,3,7.895,3,9v30c0,1.105,0.895,2,2,2h8c0-1.105,0.895-2,2-2s2,0.895,2,2h14c0-1.105,0.895-2,2-2s2,0.895,2,2h8	c1.105,0,2-0.895,2-2V13C45,11.895,44.105,11,43,11z"/><path fill="#057093" d="M11,19c0-1.657,1.343-3,3-3s3,1.343,3,3s-1.343,3-3,3S11,20.657,11,19z M14,24c-2.761,0-5,2.239-5,5	v4c0,0.552,0.448,1,1,1h8c0.552,0,1-0.448,1-1v-4C19,26.239,16.761,24,14,24z"/><path fill="#057093" d="M38,29H26c-0.552,0-1,0.448-1,1l0,0c0,0.552,0.448,1,1,1h12c0.552,0,1-0.448,1-1l0,0	C39,29.448,38.552,29,38,29z"/><path fill="#057093" d="M38,25H26c-0.552,0-1,0.448-1,1l0,0c0,0.552,0.448,1,1,1h12c0.552,0,1-0.448,1-1l0,0	C39,25.448,38.552,25,38,25z"/><path fill="#057093" d="M38,21H26c-0.552,0-1,0.448-1,1l0,0c0,0.552,0.448,1,1,1h12c0.552,0,1-0.448,1-1l0,0	C39,21.448,38.552,21,38,21z"/><polygon fill="#fdb700" points="38,28 40.329,29.307 43,29.34 44.364,31.636 46.66,33 46.693,35.671 48,38 46.693,40.329 46.66,43 44.364,44.364 43,46.66 40.329,46.693 38,48 35.671,46.693 33,46.66 31.636,44.364 29.34,43 29.307,40.329 28,38 29.307,35.671 29.34,33 31.636,31.636 33,29.34 35.671,29.307"/><linearGradient id="kWRaptd_7WZXLRfs3Jtrob" x1="31" x2="45" y1="38" y2="38" gradientUnits="userSpaceOnUse"><stop offset="0" stop-color="#fede00"/><stop offset="1" stop-color="#ffd000"/></linearGradient><circle cx="38" cy="38" r="7" fill="url(#kWRaptd_7WZXLRfs3Jtrob)"/></svg>