<svg xmlns="http://www.w3.org/2000/svg" viewBox="0 0 48 48"><path fill="#33c481" d="M28.579,23.542c0,0-2.315-5.633,2.315-10.272s10.914-2.982,10.914-2.982L28.579,23.542z"/><path fill="#21a366" d="M41.808,10.288c0,0-13.226,13.255-13.226,13.255l-5.066,5.066l0.01,2.818l5.794-5.794	c2.035-2.035,4.765,0.335,9.512-4.412C43.135,16.919,41.808,10.288,41.808,10.288z"/><path fill="#21a366" d="M21.429,8.074c2.862,2.856,3.562,6.28,3.571,8.922C25.008,19.468,25,24,25,24L7.37,4.247	C7.37,4.247,15.89,2.546,21.429,8.074z"/><path fill="#33c481" d="M7.37,4.247c0,0-2.124,8.074,3.834,14.032C16.471,23.546,23,21.302,23,25.668V34h2V23.49	c0-1.063-0.423-2.082-1.175-2.832L7.37,4.247z"/><path fill="#d43a02" d="M29,37H19c0-2.761,2.239-5,5-5S29,34.239,29,37z"/><path fill="#d43a02" d="M34,37.5h-8c0-2.209,1.791-4,4-4S34,35.291,34,37.5z"/><path fill="#d43a02" d="M21,37h-6c0-1.657,1.343-3,3-3S21,35.343,21,37z"/><path fill="#d43a02" d="M42,38H6v-1c0-0.552,0.448-1,1-1h34c0.552,0,1,0.448,1,1V38z"/><linearGradient id="mtALeVhv0vPzVBOXBSLbsa" x1="6" x2="42" y1="40.5" y2="40.5" gradientUnits="userSpaceOnUse"><stop offset="0" stop-color="#b9360c"/><stop offset=".537" stop-color="#b5350c"/><stop offset=".999" stop-color="#ab320b"/></linearGradient><path fill="url(#mtALeVhv0vPzVBOXBSLbsa)" d="M6,38v3c0,1.105,0.895,2,2,2h32c1.105,0,2-0.895,2-2v-3H6z"/></svg>