<svg xmlns="http://www.w3.org/2000/svg" viewBox="0 0 48 48"><rect width="12.64" height="3" x="27.086" y="12.235" fill="#ccc" transform="rotate(-45.001 33.406 13.736)"/><circle cx="39" cy="10.267" r="2" fill="#ccc"/><circle cx="37" cy="8.017" r="2" fill="#ccc"/><rect width="3" height="12.64" x="13.094" y="5.166" fill="#ccc" transform="rotate(-45.001 14.594 11.485)"/><linearGradient id="jiUAxgv9X60AENj8yWgoDa" x1="10.309" x2="24.929" y1="7.325" y2="21.945" gradientUnits="userSpaceOnUse"><stop offset="0" stop-color="#a34f27"/><stop offset=".587" stop-color="#8b3817"/><stop offset="1" stop-color="#802d10"/></linearGradient><path fill="url(#jiUAxgv9X60AENj8yWgoDa)" d="M23.351,11.175c-2.734-2.734-7.008-2.892-9.546-0.354s-2.38,6.812,0.354,9.546	s7.008,2.892,9.546,0.354S26.085,13.909,23.351,11.175z"/><linearGradient id="jiUAxgv9X60AENj8yWgoDb" x1="23.191" x2="34.102" y1="11.708" y2="22.619" gradientUnits="userSpaceOnUse"><stop offset="0" stop-color="#a34f27"/><stop offset=".587" stop-color="#8b3817"/><stop offset="1" stop-color="#802d10"/></linearGradient><path fill="url(#jiUAxgv9X60AENj8yWgoDb)" d="M24.658,13.175c2.734-2.734,7.008-2.892,9.546-0.354c2.538,2.538,2.38,6.812-0.354,9.546	c-2.734,2.734-7.008,2.892-9.546,0.354S21.925,15.909,24.658,13.175z"/><linearGradient id="jiUAxgv9X60AENj8yWgoDc" x1="24" x2="24" y1="10.672" y2="56.164" gradientUnits="userSpaceOnUse"><stop offset="0" stop-color="#fed100"/><stop offset="1" stop-color="#e38101"/></linearGradient><path fill="url(#jiUAxgv9X60AENj8yWgoDc)" d="M40.994,18.213l-0.342,3.114l-2.526,21.772c-0.118,1.088-1.038,1.918-2.13,1.918H12.003	c-1.092,0-2.012-0.83-2.13-1.918L7.348,21.326l-0.342-3.114c-0.064-0.636,0.428-1.196,1.07-1.196h31.848	C40.566,17.017,41.059,17.577,40.994,18.213z"/><circle cx="9" cy="8.017" r="2" fill="#ccc"/><circle cx="11" cy="6.017" r="2" fill="#ccc"/><linearGradient id="jiUAxgv9X60AENj8yWgoDd" x1="24" x2="24" y1="15.428" y2="23.577" gradientUnits="userSpaceOnUse"><stop offset="0" stop-color="#ffd869"/><stop offset="1" stop-color="#fec52b"/></linearGradient><path fill="url(#jiUAxgv9X60AENj8yWgoDd)" d="M40.685,21.017l0.31-2.808c0.064-0.634-0.428-1.192-1.07-1.192H8.076	c-0.642,0-1.134,0.558-1.07,1.192l0.31,2.808H40.685z"/></svg>