<svg xmlns="http://www.w3.org/2000/svg" viewBox="0 0 48 48"><linearGradient id="Gfj5al3cTJTXtxOnYwyoCa" x1="-733.969" x2="-705.89" y1="-92.031" y2="-120.11" gradientTransform="rotate(90 -413 331)" gradientUnits="userSpaceOnUse"><stop offset="0" stop-color="#fede00"/><stop offset=".519" stop-color="#fecc00"/><stop offset="1" stop-color="#ffb700"/></linearGradient><path fill="url(#Gfj5al3cTJTXtxOnYwyoCa)" d="M24,44c11.045,0,20-8.955,20-20S35.045,4,24,4S4,12.955,4,24S12.955,44,24,44z"/><linearGradient id="Gfj5al3cTJTXtxOnYwyoCb" x1="13.047" x2="19.027" y1="645.785" y2="636.576" gradientTransform="matrix(1 0 0 -1 0 662)" gradientUnits="userSpaceOnUse"><stop offset="0" stop-color="#f44f5a"/><stop offset=".443" stop-color="#ee3d4a"/><stop offset="1" stop-color="#e52030"/></linearGradient><path fill="url(#Gfj5al3cTJTXtxOnYwyoCb)" d="M15.542,18.577c0,0,1.455-1.625,3.25-1.625c1.795,0,3.25,1.475,3.25,3.25	c0,1.1-1.084,2.166-1.084,2.166l-4.868,4.869c-0.303,0.303-0.794,0.303-1.097,0l-4.868-4.869c0,0-1.084-1.067-1.084-2.166	c0-1.775,1.455-3.25,3.25-3.25S15.542,18.577,15.542,18.577z"/><linearGradient id="Gfj5al3cTJTXtxOnYwyoCc" x1="29.964" x2="35.944" y1="645.785" y2="636.576" gradientTransform="matrix(1 0 0 -1 0 662)" gradientUnits="userSpaceOnUse"><stop offset="0" stop-color="#f44f5a"/><stop offset=".443" stop-color="#ee3d4a"/><stop offset="1" stop-color="#e52030"/></linearGradient><path fill="url(#Gfj5al3cTJTXtxOnYwyoCc)" d="M32.458,18.577c0,0,1.455-1.625,3.25-1.625c1.795,0,3.25,1.475,3.25,3.25	c0,1.1-1.084,2.166-1.084,2.166l-4.868,4.869c-0.303,0.303-0.794,0.303-1.097,0l-4.868-4.869c0,0-1.084-1.067-1.084-2.166	c0-1.775,1.455-3.25,3.25-3.25C31.003,16.952,32.458,18.577,32.458,18.577z"/><path fill="#343434" d="M31.751,31.684c0.365,0.414,0.325,1.046-0.09,1.411c-2.125,1.871-4.846,2.901-7.661,2.901	s-5.536-1.03-7.66-2.901c-0.415-0.365-0.455-0.997-0.09-1.411c0.364-0.415,0.996-0.455,1.411-0.09	c1.759,1.549,4.01,2.402,6.339,2.402s4.58-0.853,6.34-2.402c0.19-0.168,0.425-0.25,0.66-0.25	C31.277,31.344,31.553,31.459,31.751,31.684z"/></svg>