<svg xmlns="http://www.w3.org/2000/svg" viewBox="0 0 48 48"><linearGradient id="gOktAlBak~dPOT0qMGgCia" x1="24" x2="24" y1="-.245" y2="4.419" gradientUnits="userSpaceOnUse"><stop offset="0" stop-color="#ffcf54"/><stop offset=".261" stop-color="#fdcb4d"/><stop offset=".639" stop-color="#f7c13a"/><stop offset="1" stop-color="#f0b421"/></linearGradient><path fill="url(#gOktAlBak~dPOT0qMGgCia)" d="M25.5,2h-1V0.5C24.5,0.224,24.276,0,24,0s-0.5,0.224-0.5,0.5V2h-1C22.224,2,22,2.224,22,2.5	S22.224,3,22.5,3h1v4c0,0.276,0.224,0.5,0.5,0.5s0.5-0.224,0.5-0.5V3h1C25.776,3,26,2.776,26,2.5S25.776,2,25.5,2z"/><linearGradient id="gOktAlBak~dPOT0qMGgCib" x1="11" x2="11" y1=".734" y2="10.076" gradientUnits="userSpaceOnUse"><stop offset="0" stop-color="#ffcf54"/><stop offset=".261" stop-color="#fdcb4d"/><stop offset=".639" stop-color="#f7c13a"/><stop offset="1" stop-color="#f0b421"/></linearGradient><path fill="url(#gOktAlBak~dPOT0qMGgCib)" d="M12.5,7h-1V5.5C11.5,5.224,11.276,5,11,5s-0.5,0.224-0.5,0.5V7h-1C9.224,7,9,7.224,9,7.5	S9.224,8,9.5,8h1v4c0,0.276,0.224,0.5,0.5,0.5s0.5-0.224,0.5-0.5V8h1C12.776,8,13,7.776,13,7.5S12.776,7,12.5,7z"/><linearGradient id="gOktAlBak~dPOT0qMGgCic" x1="37" x2="37" y1=".734" y2="10.076" gradientUnits="userSpaceOnUse"><stop offset="0" stop-color="#ffcf54"/><stop offset=".261" stop-color="#fdcb4d"/><stop offset=".639" stop-color="#f7c13a"/><stop offset="1" stop-color="#f0b421"/></linearGradient><path fill="url(#gOktAlBak~dPOT0qMGgCic)" d="M38.5,7h-1V5.5C37.5,5.224,37.276,5,37,5s-0.5,0.224-0.5,0.5V7h-1C35.224,7,35,7.224,35,7.5	S35.224,8,35.5,8h1v4c0,0.276,0.224,0.5,0.5,0.5s0.5-0.224,0.5-0.5V8h1C38.776,8,39,7.776,39,7.5S38.776,7,38.5,7z"/><radialGradient id="gOktAlBak~dPOT0qMGgCid" cx="9.435" cy="10.791" r="6.803" gradientUnits="userSpaceOnUse"><stop offset="0" stop-color="#ffcf54"/><stop offset=".261" stop-color="#fdcb4d"/><stop offset=".639" stop-color="#f7c13a"/><stop offset="1" stop-color="#f0b421"/></radialGradient><path fill="url(#gOktAlBak~dPOT0qMGgCid)" d="M15,14c0-2.383-2.467-2.637-3.605-4.227c-0.192-0.269-0.598-0.269-0.79,0	C9.467,11.363,7,11.617,7,14c0,1.945,2,3,4,3S15,15.945,15,14z"/><radialGradient id="gOktAlBak~dPOT0qMGgCie" cx="35.826" cy="11.231" r="6.732" gradientUnits="userSpaceOnUse"><stop offset="0" stop-color="#ffcf54"/><stop offset=".261" stop-color="#fdcb4d"/><stop offset=".639" stop-color="#f7c13a"/><stop offset="1" stop-color="#f0b421"/></radialGradient><path fill="url(#gOktAlBak~dPOT0qMGgCie)" d="M41,14c0-2.383-2.467-2.637-3.605-4.227c-0.192-0.269-0.598-0.269-0.79,0	C35.467,11.363,33,11.617,33,14c0,1.945,2,3,4,3S41,15.945,41,14z"/><rect width="6" height="8" x="8" y="16" fill="#bfc8d1"/><rect width="6" height="8" x="34" y="16" fill="#bfc8d1"/><radialGradient id="gOktAlBak~dPOT0qMGgCif" cx="22.533" cy="8.023" r="8.649" gradientUnits="userSpaceOnUse"><stop offset="0" stop-color="#ffcf54"/><stop offset=".261" stop-color="#fdcb4d"/><stop offset=".639" stop-color="#f7c13a"/><stop offset="1" stop-color="#f0b421"/></radialGradient><path fill="url(#gOktAlBak~dPOT0qMGgCif)" d="M29,11.5c0-3.111-3.161-3.457-4.565-5.603c-0.212-0.324-0.657-0.324-0.869,0	C22.161,8.043,19,8.389,19,11.5c0,2.5,2,3.783,5,3.783S29,14,29,11.5z"/><rect width="8" height="9" x="20" y="14" fill="#bfc8d1"/><path fill="#889097" d="M24,16L24,16c-0.552,0-1,0.448-1,1v4h2v-4C25,16.448,24.552,16,24,16z"/><path fill="#889097" d="M37,18L37,18c-0.552,0-1,0.448-1,1v3h2v-3C38,18.448,37.552,18,37,18z"/><path fill="#889097" d="M11,18L11,18c-0.552,0-1,0.448-1,1v3h2v-3C12,18.448,11.552,18,11,18z"/><linearGradient id="gOktAlBak~dPOT0qMGgCig" x1="36.5" x2="36.5" y1="15.913" y2="41.779" gradientUnits="userSpaceOnUse"><stop offset="0" stop-color="#dfe9f2"/><stop offset=".391" stop-color="#d6e0e9"/><stop offset="1" stop-color="#bfc8d1"/></linearGradient><path fill="url(#gOktAlBak~dPOT0qMGgCig)" d="M37,21L37,21c-3.314,0-6,2.686-6,6l-1,8l1,8h12V27C43,23.686,40.314,21,37,21z"/><linearGradient id="gOktAlBak~dPOT0qMGgCih" x1="11.5" x2="11.5" y1="15.913" y2="41.779" gradientUnits="userSpaceOnUse"><stop offset="0" stop-color="#dfe9f2"/><stop offset=".391" stop-color="#d6e0e9"/><stop offset="1" stop-color="#bfc8d1"/></linearGradient><path fill="url(#gOktAlBak~dPOT0qMGgCih)" d="M11,21L11,21c-3.314,0-6,2.686-6,6v16h12l1-8l-1-8C17,23.686,14.314,21,11,21z"/><path fill="#889097" d="M11,25L11,25c-0.552,0-1,0.448-1,1v3h2v-3C12,25.448,11.552,25,11,25z"/><path fill="#889097" d="M37,25L37,25c-0.552,0-1,0.448-1,1v3h2v-3C38,25.448,37.552,25,37,25z"/><linearGradient id="gOktAlBak~dPOT0qMGgCii" x1="24" x2="24" y1="22.109" y2="54.2" gradientUnits="userSpaceOnUse"><stop offset="0" stop-color="#dfe9f2"/><stop offset=".391" stop-color="#d6e0e9"/><stop offset="1" stop-color="#bfc8d1"/></linearGradient><path fill="url(#gOktAlBak~dPOT0qMGgCii)" d="M24,19L24,19c-3.866,0-7,3.134-7,7v17h14V26C31,22.134,27.866,19,24,19z"/><path fill="#889097" d="M24.093,33h-0.186C22.854,33,22,33.854,22,34.907V43h4v-8.093C26,33.854,25.146,33,24.093,33z"/><path fill="#889097" d="M24,25L24,25c-0.552,0-1,0.448-1,1v3h2v-3C25,25.448,24.552,25,24,25z"/><path d="M24,18c-1.46,0-2.82,0.39-4,1.07v1.19c1.13-0.8,2.51-1.26,4-1.26s2.87,0.46,4,1.26v-1.19C26.82,18.39,25.46,18,24,18z M37,20c-1.08,0-2.09,0.24-3,0.68v1.13c0.88-0.52,1.9-0.81,3-0.81s2.12,0.29,3,0.81v-1.13C39.09,20.24,38.07,20,37,20z M8,20.68 v1.13C8.88,21.29,9.9,21,11,21s2.12,0.29,3,0.81v-1.13C13.09,20.24,12.08,20,11,20C9.93,20,8.91,20.24,8,20.68z" opacity=".05"/><path d="M24,18.5c-1.47,0-2.85,0.42-4,1.17v0.59c1.13-0.8,2.51-1.26,4-1.26s2.87,0.46,4,1.26v-0.59 C26.85,18.92,25.47,18.5,24,18.5z M37,20.5c-1.09,0-2.1,0.27-3,0.73v0.58c0.88-0.52,1.9-0.81,3-0.81s2.12,0.29,3,0.81v-0.57 C39.1,20.77,38.08,20.5,37,20.5z M8,21.24v0.57C8.88,21.29,9.9,21,11,21s2.12,0.29,3,0.81v-0.58c-0.9-0.46-1.91-0.73-3-0.73 C9.92,20.5,8.9,20.77,8,21.24z" opacity=".07"/></svg>