<svg xmlns="http://www.w3.org/2000/svg" xmlns:xlink="http://www.w3.org/1999/xlink" data-name="Слой 1" viewBox="0 0 48 48"><defs><linearGradient id="jscyvkb9NEetwRY_J2mNPb" x1="9.034" x2="26.527" y1="-9.94" y2="38.122" data-name="Безымянный градиент 121" gradientUnits="userSpaceOnUse"><stop offset="0" stop-color="#f44f5a"/><stop offset=".443" stop-color="#ee3d4a"/><stop offset="1" stop-color="#e52030"/></linearGradient><linearGradient id="jscyvkb9NEetwRY_J2mNPa" x1="21.224" x2="29.109" y1="28.697" y2="50.362" data-name="Новый образец градиентной зал 5" gradientUnits="userSpaceOnUse"><stop offset="0" stop-color="#f9f9f9"/><stop offset=".26" stop-color="#f0f1f2"/><stop offset=".678" stop-color="#d9dcdf"/><stop offset="1" stop-color="#c2c8cc"/></linearGradient><linearGradient id="jscyvkb9NEetwRY_J2mNPc" x1="22.614" x2="26.635" y1="14.194" y2="25.242" xlink:href="#jscyvkb9NEetwRY_J2mNPa"/></defs><path fill="url(#jscyvkb9NEetwRY_J2mNPb)" d="M42,21.0023v20a2.00591,2.00591,0,0,1-2,2H8a2.00591,2.00591,0,0,1-2-2v-20l4.75-8.75L24,4.0023l13.25,8.25Z"/><path fill="#b31523" d="M41.78124,23.2796l-7.15038-10.726L24,7.23814,13.36914,12.55357,6.21876,23.2796A1,1,0,0,1,4.832,23.557L3.168,22.44763a1,1,0,0,1-.27735-1.38675L10.33652,9.89205a1.99812,1.99812,0,0,1,.769-.67881l12-6a2.00023,2.00023,0,0,1,1.78906,0L36.89359,9.21277a2.00207,2.00207,0,0,1,.77047.68016l7.4453,11.168a1,1,0,0,1-.27735,1.38675L43.168,23.557A1,1,0,0,1,41.78124,23.2796Z"/><path d="M41.78,23.28227l-7.15-10.73L24,7.24229l-10.63,5.31-7.15,10.73a.965.965,0,0,1-.22.23v1.11a1.92653,1.92653,0,0,0,1.05-.79l7-10.5,9.95-4.98,9.95,4.98,6.99994,10.5a1.92687,1.92687,0,0,0,1.05.79v-1.11A.965.965,0,0,1,41.78,23.28227Z" opacity=".05"/><path d="M41.78,23.28227l-7.15-10.73L24,7.24229l-10.63,5.31-7.15,10.73a.965.965,0,0,1-.22.23v.58a1.43194,1.43194,0,0,0,.63-.54l7.08-10.61L24,7.79228l10.29,5.15,7.08,10.61a1.43194,1.43194,0,0,0,.63.54v-.58A.965.965,0,0,1,41.78,23.28227Z" opacity=".07"/><rect width="18" height="14" x="15" y="29.002" fill="#b31523"/><path fill="url(#jscyvkb9NEetwRY_J2mNPa)" d="M25,28.0023H16a2,2,0,0,0-2,2v13h2V32.10582L21.87,43.0023h4.26L32,32.10582V43.0023h2v-13a2,2,0,0,0-2-2Zm-7.86688,2H23V40.898ZM25,40.898V30.0023h5.86688Z"/><rect width="8" height="8" x="20" y="14.002" fill="url(#jscyvkb9NEetwRY_J2mNPc)" rx="1"/><rect width="4" height="4" x="22" y="16.002" fill="#343434" rx=".5"/></svg>