<svg xmlns="http://www.w3.org/2000/svg" data-name="Слой 1" viewBox="0 0 48 48"><defs><linearGradient id="KdgqNHzKtI1Ez8aX1hKdva" x1="15.478" x2="34.518" y1=".586" y2="52.898" gradientUnits="userSpaceOnUse"><stop offset=".002" stop-color="#427fdb"/><stop offset=".397" stop-color="#2668cb"/><stop offset=".763" stop-color="#1358bf"/><stop offset="1" stop-color="#0c52bb"/></linearGradient></defs><circle cx="24" cy="24" r="20" fill="url(#KdgqNHzKtI1Ez8aX1hKdva)"/><path fill="#fff" d="M31.96437,26.59361A4,4,0,0,0,29.86758,26H25v1a1,1,0,0,1-2,0V26H18.13242a4,4,0,0,0-2.09679.59361l-7.512,4.624a.993.993,0,0,0-.36991,1.30448,17.98577,17.98577,0,0,0,31.69256,0,.993.993,0,0,0-.36991-1.30448ZM25,39a1,1,0,0,1-2,0V37a1,1,0,0,1,2,0Zm0-6a1,1,0,0,1-2,0V31a1,1,0,0,1,2,0Z"/><circle cx="19" cy="13" r="2" fill="#fff"/><circle cx="11" cy="21" r="2" fill="#fff"/><circle cx="27" cy="21" r="2" fill="#fff"/><path fill="#fff" d="M33,16a1,1,0,0,1-.707-1.707l3-3A.99989.99989,0,1,1,36.707,12.707l-3,3A.99676.99676,0,0,1,33,16Z"/><path fill="#fff" d="M36,16a.99676.99676,0,0,1-.707-.293l-3-3A.99989.99989,0,0,1,33.707,11.293l3,3A1,1,0,0,1,36,16Z"/><path fill="#fff" d="M27,22a.99676.99676,0,0,1-.707-.293L19,14.41406l-7.293,7.293A.99989.99989,0,0,1,10.293,20.293l8-8a.99962.99962,0,0,1,1.41406,0L27,19.58594l2.293-2.293A.99989.99989,0,0,1,30.707,18.707l-3,3A.99676.99676,0,0,1,27,22Z"/></svg>