<svg xmlns="http://www.w3.org/2000/svg" viewBox="0 0 48 48"><linearGradient id="vWmmEF34uVhGYABgGqGwra" x1="15" x2="15" y1="45.831" y2="43.659" gradientUnits="userSpaceOnUse"><stop offset="0" stop-color="#c26715"/><stop offset=".346" stop-color="#be6015"/><stop offset=".686" stop-color="#b54e16"/><stop offset=".979" stop-color="#ad3f16"/></linearGradient><circle cx="15" cy="43" r="2" fill="url(#vWmmEF34uVhGYABgGqGwra)"/><linearGradient id="vWmmEF34uVhGYABgGqGwrb" x1="33" x2="33" y1="45.831" y2="43.659" gradientUnits="userSpaceOnUse"><stop offset="0" stop-color="#c26715"/><stop offset=".346" stop-color="#be6015"/><stop offset=".686" stop-color="#b54e16"/><stop offset=".979" stop-color="#ad3f16"/></linearGradient><circle cx="33" cy="43" r="2" fill="url(#vWmmEF34uVhGYABgGqGwrb)"/><linearGradient id="vWmmEF34uVhGYABgGqGwrc" x1="15.451" x2="32.53" y1="8.705" y2="55.628" gradientUnits="userSpaceOnUse"><stop offset="0" stop-color="#c26715"/><stop offset=".346" stop-color="#be6015"/><stop offset=".686" stop-color="#b54e16"/><stop offset=".979" stop-color="#ad3f16"/></linearGradient><path fill="url(#vWmmEF34uVhGYABgGqGwrc)" d="M34,43H14c-1.22,0-2.16-1.08-1.98-2.29L13.54,31l3.15-20l0.2-1.3	c0.07-0.45,0.29-0.87,0.63-1.17l5.83-5.31c0.37-0.32,0.93-0.32,1.3,0l5.83,5.31c0.34,0.3,0.56,0.72,0.63,1.17l0.2,1.3l3.15,20	l1.52,9.71C36.16,41.92,35.22,43,34,43z"/><linearGradient id="vWmmEF34uVhGYABgGqGwrd" x1="24" x2="24" y1=".783" y2="38.674" gradientUnits="userSpaceOnUse"><stop offset="0" stop-color="#a34f27"/><stop offset=".587" stop-color="#8b3817"/><stop offset="1" stop-color="#802d10"/></linearGradient><polygon fill="url(#vWmmEF34uVhGYABgGqGwrd)" points="34.46,31 13.54,31 16.69,11 31.31,11"/><linearGradient id="vWmmEF34uVhGYABgGqGwre" x1="24" x2="24" y1="38.25" y2="-9.01" gradientUnits="userSpaceOnUse"><stop offset="0" stop-color="#ffda94"/><stop offset="1" stop-color="#fff0ce"/></linearGradient><path fill="url(#vWmmEF34uVhGYABgGqGwre)" d="M26,22c0.552,0,1-0.448,1-1c0-0.552-0.448-1-1-1h-1v-2c0.552,0,1-0.448,1-1 c0-0.552-0.448-1-1-1v-2h1c0.552,0,1-0.448,1-1c0-0.552-0.448-1-1-1h-1v-1h-2v1h-1c-0.552,0-1,0.448-1,1c0,0.552,0.448,1,1,1h1v2 c-0.552,0-1,0.448-1,1c0,0.552,0.448,1,1,1v2h-1c-0.552,0-1,0.448-1,1c0,0.552,0.448,1,1,1h1v2c-0.552,0-1,0.448-1,1 c0,0.552,0.448,1,1,1v2h-1c-0.552,0-1,0.448-1,1c0,0.552,0.448,1,1,1h1v1h2v-1h1c0.552,0,1-0.448,1-1c0-0.552-0.448-1-1-1h-1v-2 c0.552,0,1-0.448,1-1c0-0.552-0.448-1-1-1v-2H26z"/><path fill="#5c2415" d="M24.422,31h-2.84L7.292,16.71c-0.39-0.39-0.39-1.03,0-1.42c0.39-0.39,1.03-0.39,1.42,0l10.05,10.05	L24.422,31z"/><linearGradient id="vWmmEF34uVhGYABgGqGwrf" x1="8.181" x2="16.082" y1="16.178" y2="24.079" gradientUnits="userSpaceOnUse"><stop offset="0" stop-color="#a34f27"/><stop offset=".587" stop-color="#8b3817"/><stop offset="1" stop-color="#802d10"/></linearGradient><path fill="url(#vWmmEF34uVhGYABgGqGwrf)" d="M8.211,18.791l2.582-2.582c0.349-0.349,0.937-0.253,1.157,0.188l1.171,2.342	c0.227,0.454,0.138,1.003-0.221,1.363l-0.797,0.797c-0.359,0.359-0.908,0.448-1.363,0.221l-2.342-1.171	C7.958,19.728,7.863,19.14,8.211,18.791z"/><polygon points="31.47,12 16.53,12 16.61,11.5 16.69,11 31.31,11 31.39,11.5" opacity=".05"/><polygon points="31.39,11.5 16.61,11.5 16.69,11 31.31,11" opacity=".07"/><polygon points="34.46,31 13.54,31 13.7,30 34.3,30" opacity=".05"/><polygon points="34.46,31 13.54,31 13.62,30.5 34.38,30.5" opacity=".07"/></svg>