<svg xmlns="http://www.w3.org/2000/svg" viewBox="0 0 48 48"><linearGradient id="knmtAFbJdjkKnxL6AHI67a" x1="11.939" x2="21.939" y1="20.926" y2="20.926" gradientTransform="rotate(45.001 18 24.516)" gradientUnits="userSpaceOnUse"><stop offset="0" stop-color="#a34f27"/><stop offset=".587" stop-color="#8b3817"/><stop offset="1" stop-color="#802d10"/></linearGradient><polygon fill="url(#knmtAFbJdjkKnxL6AHI67a)" points="10.95,37.138 3.879,30.067 28.627,5.318 35.698,12.389"/><linearGradient id="knmtAFbJdjkKnxL6AHI67b" x1="11.939" x2="21.939" y1="3.426" y2="3.426" gradientTransform="rotate(45.001 18 24.516)" gradientUnits="userSpaceOnUse"><stop offset="0" stop-color="#c26715"/><stop offset="0" stop-color="#c26715"/><stop offset=".51" stop-color="#b85515"/><stop offset="1" stop-color="#ad3f16"/></linearGradient><path fill="url(#knmtAFbJdjkKnxL6AHI67b)" d="M35.698,8.146c-0.546-0.546-1.25-0.826-1.965-0.864c-0.037-0.715-0.318-1.419-0.864-1.965 c-1.172-1.172-3.071-1.172-4.243,0c-1.172,1.172-1.172,3.071,0,4.243c0.546,0.546,1.25,0.826,1.965,0.864 c0.037,0.715,0.318,1.419,0.864,1.965c1.172,1.172,3.071,1.172,4.243,0S36.87,9.318,35.698,8.146z"/><linearGradient id="knmtAFbJdjkKnxL6AHI67c" x1="11.939" x2="21.939" y1="38.426" y2="38.426" gradientTransform="rotate(45.001 18 24.516)" gradientUnits="userSpaceOnUse"><stop offset="0" stop-color="#a34f27"/><stop offset=".587" stop-color="#8b3817"/><stop offset="1" stop-color="#802d10"/></linearGradient><path fill="url(#knmtAFbJdjkKnxL6AHI67c)" d="M10.95,32.895c-0.546-0.546-1.25-0.826-1.965-0.864c-0.037-0.715-0.318-1.419-0.864-1.965 c-1.172-1.172-3.071-1.172-4.243,0s-1.172,3.071,0,4.243c0.546,0.546,1.25,0.826,1.965,0.864 c0.037,0.715,0.318,1.419,0.864,1.965c1.172,1.172,3.071,1.172,4.243,0C12.121,35.966,12.121,34.067,10.95,32.895z"/><circle cx="30.749" cy="7.439" r="1" fill="#5c2415"/><circle cx="33.577" cy="10.268" r="1" fill="#5c2415"/><polygon fill="#5c2415" points="8.121,32.895 32.163,7.439 33.577,8.854"/><rect width="4" height="1.5" x="30.34" y="7.927" fill="#5c2415" transform="rotate(45.001 32.34 8.676)"/><g><linearGradient id="knmtAFbJdjkKnxL6AHI67d" x1="27.392" x2="37.392" y1="38.391" y2="38.391" gradientTransform="rotate(56.743 37.307 33.917)" gradientUnits="userSpaceOnUse"><stop offset="0" stop-color="#a34f27"/><stop offset=".587" stop-color="#8b3817"/><stop offset="1" stop-color="#802d10"/></linearGradient><polygon fill="url(#knmtAFbJdjkKnxL6AHI67d)" points="23.575,43.023 18.092,34.66 38.161,21.499 43.645,29.861"/><linearGradient id="knmtAFbJdjkKnxL6AHI67e" x1="27.392" x2="37.392" y1="26.391" y2="26.391" gradientTransform="rotate(56.743 37.307 33.917)" gradientUnits="userSpaceOnUse"><stop offset="0" stop-color="#c26715"/><stop offset="0" stop-color="#c26715"/><stop offset=".51" stop-color="#b85515"/><stop offset="1" stop-color="#ad3f16"/></linearGradient><path fill="url(#knmtAFbJdjkKnxL6AHI67e)" d="M44.508,25.708c-0.423-0.645-1.056-1.064-1.748-1.245c0.109-0.707-0.022-1.454-0.446-2.099 c-0.909-1.385-2.768-1.772-4.154-0.864c-1.385,0.909-1.772,2.768-0.864,4.154c0.423,0.645,1.056,1.064,1.748,1.245 c-0.109,0.707,0.022,1.454,0.446,2.099c0.909,1.385,2.768,1.772,4.154,0.864S45.417,27.093,44.508,25.708z"/><linearGradient id="knmtAFbJdjkKnxL6AHI67f" x1="27.392" x2="37.392" y1="50.391" y2="50.391" gradientTransform="rotate(56.743 37.307 33.917)" gradientUnits="userSpaceOnUse"><stop offset="0" stop-color="#a34f27"/><stop offset=".587" stop-color="#8b3817"/><stop offset="1" stop-color="#802d10"/></linearGradient><path fill="url(#knmtAFbJdjkKnxL6AHI67f)" d="M24.439,38.869c-0.423-0.645-1.056-1.064-1.748-1.245c0.109-0.707-0.022-1.454-0.446-2.099 c-0.909-1.385-2.768-1.772-4.154-0.864c-1.385,0.909-1.772,2.768-0.864,4.154c0.423,0.645,1.056,1.064,1.748,1.245 c-0.109,0.707,0.023,1.454,0.446,2.099c0.909,1.386,2.768,1.772,4.154,0.864C24.961,42.114,25.348,40.254,24.439,38.869z"/><circle cx="39.806" cy="24.008" r="1" fill="#5c2415"/><circle cx="42" cy="27.353" r="1" fill="#5c2415"/><polygon fill="#5c2415" points="21.67,38.293 41.191,24.296 42.288,25.968"/><rect width="4" height="1.5" x="39.112" y="24.793" fill="#5c2415" transform="rotate(56.743 41.113 25.544)"/></g></svg>