<svg xmlns="http://www.w3.org/2000/svg" width="48" height="48" viewBox="0 0 48 48"><circle cx="24" cy="24" r="17.813" fill="#ccc"/><path d="M29.297,6.795l-0.465-0.137C27.294,6.229,25.673,6,24,6C14.075,6,6,14.075,6,24s8.075,18,18,18	s18-8.075,18-18C42,15.918,36.646,9.062,29.297,6.795z M19.136,35.96c3.912-2.208,5.3-7.187,3.093-11.099	c-1.206-2.136-3.285-3.603-5.704-4.023c-0.617-0.107-1.148-0.576-1.353-1.193c-0.311-0.939-0.469-1.922-0.469-2.921	c0-1.734,0.482-3.385,1.339-4.802c-0.17,0.836-0.211,1.712-0.107,2.601c0.443,3.791,3.654,6.864,7.47,7.148	c2.605,0.196,5.08-0.845,6.765-2.784c0.399-0.462,1.059-0.684,1.709-0.559c1.098,0.209,2.138,0.611,3.092,1.195	c1.661,1.017,2.918,2.515,3.676,4.223c-0.455-0.49-0.975-0.927-1.552-1.297c-1.314-0.841-2.83-1.286-4.385-1.286	c-2.795,0-5.363,1.404-6.868,3.756c-1.385,2.163-1.668,4.789-0.776,7.205c0.229,0.621,0.069,1.34-0.407,1.832	c-0.563,0.583-1.202,1.088-1.898,1.503c-1.681,1.002-3.673,1.456-5.607,1.302C17.844,36.581,18.512,36.313,19.136,35.96z" opacity=".05"/><path d="M24,6C14.075,6,6,14.075,6,24s8.075,18,18,18s18-8.075,18-18S33.925,6,24,6z M26.262,25.188	c-1.363,2.129-1.581,4.793-0.584,7.126c0.216,0.505,0.147,1.062-0.179,1.453c-0.706,0.846-1.542,1.559-2.484,2.121	c-2.772,1.654-6.357,1.801-9.195,0.541c1.723,0.278,3.547-0.043,5.071-0.904c3.672-2.072,4.974-6.746,2.902-10.417	c-1.186-2.1-3.323-3.532-5.718-3.831c-0.519-0.065-0.956-0.384-1.14-0.832c-0.486-1.183-0.732-2.435-0.732-3.721	c0-2.99,1.36-5.745,3.56-7.565c-1.051,1.498-1.558,3.369-1.332,5.306c0.416,3.557,3.43,6.441,7.011,6.708	c2.58,0.198,4.996-0.887,6.578-2.889c0.315-0.399,0.793-0.608,1.272-0.551c1.409,0.168,2.734,0.627,3.938,1.364	c2.758,1.688,4.457,4.635,4.702,7.739c-0.561-1.6-1.631-3.019-3.108-3.965c-1.233-0.79-2.656-1.208-4.115-1.208	C30.085,21.663,27.675,22.981,26.262,25.188z" opacity=".07"/><linearGradient id="MnjAbBmaekz2UBWbFoSO3a" x1="14.582" x2="31.683" y1="10.484" y2="35.026" gradientUnits="userSpaceOnUse"><stop offset="0" stop-color="#4c4c4c"/><stop offset="1" stop-color="#343434"/></linearGradient><path fill="url(#MnjAbBmaekz2UBWbFoSO3a)" d="M24,5C13.522,5,5,13.522,5,24s8.522,19,19,19s19-8.522,19-19S34.478,5,24,5z M39.501,31.743	c1.047-3.072-0.108-6.634-2.947-8.451c-3.324-2.128-7.743-1.157-9.871,2.167l0,0c-1.324,2.069-1.443,4.56-0.545,6.66	c0.281,0.657,0.203,1.421-0.255,1.97c-0.72,0.863-1.592,1.622-2.612,2.23c-4.461,2.66-10.207,1.612-13.404-2.296	c-0.154-0.217-0.303-0.435-0.446-0.658c2.164,2.704,6.116,3.48,9.224,1.726c3.437-1.94,4.652-6.299,2.712-9.737l0,0	c-1.157-2.05-3.175-3.309-5.345-3.58c-0.68-0.085-1.279-0.504-1.539-1.137c-0.496-1.206-0.77-2.527-0.77-3.911	c0-4.529,2.922-8.359,6.979-9.748c0.297-0.058,0.601-0.096,0.903-0.139c-2.995,1.089-5.061,4.116-4.657,7.57	c0.391,3.342,3.195,6.017,6.55,6.267c2.494,0.186,4.737-0.913,6.148-2.7c0.414-0.525,1.061-0.817,1.725-0.738	c1.425,0.17,2.836,0.636,4.14,1.434c4.177,2.556,5.925,7.678,4.453,12.154C39.809,31.14,39.653,31.44,39.501,31.743z"/></svg>