<svg xmlns="http://www.w3.org/2000/svg" viewBox="0 0 48 48"><linearGradient id="q5khA3dk7fZGWNL4NKQF9a" x1="-1.425" x2="20.609" y1="18.5" y2="18.5" gradientUnits="userSpaceOnUse"><stop offset="0" stop-color="#0176d0"/><stop offset="1" stop-color="#16538c"/></linearGradient><path fill="url(#q5khA3dk7fZGWNL4NKQF9a)" d="M23,29h-7C9.935,29,5,24.065,5,18V8h10v10c0,0.552,0.449,1,1,1h7V29z"/><path fill="#103f8f" d="M4.961,6h10.003c0.531,0,0.961,0.361,0.961,0.806v2.389c0,0.445-0.43,0.806-0.961,0.806H4.961	C4.43,10,4,9.639,4,9.194V6.806C4,6.361,4.43,6,4.961,6z"/><linearGradient id="q5khA3dk7fZGWNL4NKQF9b" x1="27.914" x2="42.468" y1="19.644" y2="39.176" gradientUnits="userSpaceOnUse"><stop offset="0" stop-color="#2aa4f4"/><stop offset="1" stop-color="#007ad9"/></linearGradient><path fill="url(#q5khA3dk7fZGWNL4NKQF9b)" d="M43,40H33V30c0-0.552-0.449-1-1-1h-7V19h7c6.065,0,11,4.935,11,11V40z"/><path fill="#095fac" d="M43.039,42H33.036c-0.531,0-0.961-0.361-0.961-0.806v-2.389c0-0.445,0.43-0.806,0.961-0.806h10.003	C43.57,38,44,38.361,44,38.806v2.389C44,41.639,43.57,42,43.039,42z"/><path fill="#103f8f" d="M26,18.967v10.067C26,29.567,25.639,30,25.194,30h-2.389C22.361,30,22,29.567,22,29.033V18.967	C22,18.433,22.361,18,22.806,18h2.389C25.639,18,26,18.433,26,18.967z"/></svg>