<svg xmlns="http://www.w3.org/2000/svg" viewBox="0 0 48 48"><linearGradient id="B~pPlXQOaUbUe33VMyfcHa" x1="35.578" x2="40.199" y1="38.54" y2="12.337" gradientTransform="matrix(1 0 0 -1 0 50)" gradientUnits="userSpaceOnUse"><stop offset="0" stop-color="#a235d4"/><stop offset=".441" stop-color="#a033d1"/><stop offset=".702" stop-color="#982cc9"/><stop offset=".915" stop-color="#8b21bb"/><stop offset="1" stop-color="#831bb3"/></linearGradient><path fill="url(#B~pPlXQOaUbUe33VMyfcHa)" d="M44,36.1c0,0.4-0.3,0.8-0.7,0.9c-0.9,0.3-2,0.5-3.4,0.5c-4.3,0-6.9-2.4-6.9-6.9V22h-2c-0.6,0-1-0.4-1-1v-3	c0-0.6,0.4-1,1-1h2v-3.8c0-0.4,0.3-0.8,0.7-1L38,11c0.5-0.1,1,0.2,1,0.7V17h4c0.6,0,1,0.4,1,1v3c0,0.6-0.4,1-1,1h-4v7.6	c0,2.1,1.4,3.1,3,3.1c0.3,0,0.7,0,1-0.1c0.5-0.1,1,0.2,1,0.7V36.1z"/><linearGradient id="B~pPlXQOaUbUe33VMyfcHb" x1="14.668" x2="19.853" y1="42.72" y2="13.311" gradientTransform="matrix(1 0 0 -1 0 50)" gradientUnits="userSpaceOnUse"><stop offset="0" stop-color="#a235d4"/><stop offset=".441" stop-color="#a033d1"/><stop offset=".702" stop-color="#982cc9"/><stop offset=".915" stop-color="#8b21bb"/><stop offset="1" stop-color="#831bb3"/></linearGradient><path fill="url(#B~pPlXQOaUbUe33VMyfcHb)" d="M5,15h7v21c0,0.6,0.4,1,1,1h5c0.6,0,1-0.4,1-1V15h7c0.6,0,1-0.4,1-1v-4c0-0.6-0.4-1-1-1H5c-0.6,0-1,0.4-1,1v4	C4,14.6,4.4,15,5,15z"/></svg>