<svg xmlns="http://www.w3.org/2000/svg" id="Layer_1" x="0" y="0" version="1.1" viewBox="0 0 48 48" xml:space="preserve"><radialGradient id="SVGID_1_" cx="11.876" cy="26.93" r="18.621" gradientUnits="userSpaceOnUse"><stop offset="0" stop-color="#c26715"/><stop offset=".508" stop-color="#b85515"/><stop offset="1" stop-color="#ad3f16"/></radialGradient><path fill="url(#SVGID_1_)" d="M7.9,40.7l-1-1c-1.2-1.2-1.2-3.1,0-4.2l10.9-10.8l3.8,3.8l-9.2,12C11.3,41.9,9.2,42,7.9,40.7z"/><path fill="#50e6ff" d="M30.1,31.3c-0.8,0.8-2.3,2.1-2.3,2.1l-4.7-6.5c0,0-0.1,0.1-0.1,0.1l-1.5,1.5l-3.8-3.8l0.6-0.7	c0.6-0.6,14.3-15.6,22.4-17.3L42,6.4L42,7.7C41.3,19,33.4,28,30.1,31.3z"/><radialGradient id="SVGID_2_" cx="22.995" cy="38.991" r="13.271" gradientUnits="userSpaceOnUse"><stop offset=".376" stop-color="#261103"/><stop offset=".68" stop-color="#431d06"/><stop offset="1" stop-color="#662c09"/></radialGradient><polygon fill="url(#SVGID_2_)" points="16.3,26.1 20.3,30.1 21.5,28.5 17.7,24.7"/><path fill="#35c1f1" d="M28.7,29.9C31.6,27,39.3,17.5,40.4,6.7c-8.1,2.1-21.4,16.6-22,17.2l-0.6,0.7l3.8,3.8L23,27	c0,0,0.1-0.1,0.1-0.1l3.6,5C27.6,31,28.6,30,28.7,29.9z"/></svg>