<svg xmlns="http://www.w3.org/2000/svg" viewBox="0 0 48 48"><radialGradient id="zTFFdIMRECgk2uy1FzzHta" cx="22.159" cy="29.599" r="39.628" fx="21.986" fy="29.57" gradientTransform="matrix(1 0 0 -1 0 50)" gradientUnits="userSpaceOnUse"><stop offset="0" stop-color="#fff"/><stop offset=".17" stop-color="#f9f9f9"/><stop offset=".386" stop-color="#eaeaea"/><stop offset=".627" stop-color="#d0d0d0"/><stop offset=".884" stop-color="#acacac"/><stop offset="1" stop-color="#999"/></radialGradient><polygon fill="url(#zTFFdIMRECgk2uy1FzzHta)" points="13.577,44.903 42.448,39.291 35.436,3.219 6.566,8.831"/><radialGradient id="zTFFdIMRECgk2uy1FzzHtb" cx="34.72" cy="22.612" r="40.744" fx="34.898" fy="22.581" gradientTransform="matrix(1 0 0 -1 0 50)" gradientUnits="userSpaceOnUse"><stop offset="0" stop-color="#fff"/><stop offset=".24" stop-color="#fcfcfc"/><stop offset=".43" stop-color="#f2f2f2"/><stop offset=".604" stop-color="#e1e1e1"/><stop offset=".767" stop-color="#cacaca"/><stop offset=".921" stop-color="#ababab"/><stop offset="1" stop-color="#999"/></radialGradient><path fill="url(#zTFFdIMRECgk2uy1FzzHtb)" d="M14.244,43.962c0,0,5.775-0.71,12.314-1.981c5.826-1.132,14.671-3.475,14.671-3.475	s-0.705-7.718-1.883-15.17l-3.91-20.117L6.566,8.831l4.039,20.78C12.649,40.13,14.244,43.962,14.244,43.962z"/><path d="M38.036,33.455c-1.193,0.755-5.212,1.365-8.083,1.332	s-3.926-2.352-3.926-2.352l-5.349,1.458c0,0-0.044,1.281-1.075,3.058c-0.961,1.657-4.225,2.596-6.954,3.18l0.36,1.851	c5.405-1.07,8.441-3.638,8.977-5.631c0.082-0.309,0.146-0.649,0.189-1c0.505-0.197,1.191-0.456,1.581-0.566	c0.17-0.048,0.635-0.155,1.864-0.354c0.213,0.283,0.441,0.548,0.672,0.778c0.92,0.92,2.685,1.447,4.843,1.447	c1.901,0,3.989-0.408,6.206-1.215c0.668-0.243,1.27-0.522,1.832-0.85c0.838,0.176,1.659,0.375,2.476,0.595l-0.422-2.174	C39.612,32.591,39.058,32.808,38.036,33.455z" opacity=".07"/><path d="M38.036,33.455c-1.193,0.755-5.212,1.365-8.083,1.332	s-3.926-2.352-3.926-2.352l-5.349,1.458c0,0-0.044,1.281-1.075,3.058c-0.961,1.657-4.225,2.596-6.954,3.18l0.264,1.36	c5.541-1.097,8.174-3.725,8.589-5.269c0.1-0.374,0.171-0.8,0.207-1.226c0.555-0.22,1.436-0.559,1.912-0.693	c0.24-0.067,0.821-0.193,2.225-0.415c0.243,0.352,0.521,0.688,0.8,0.967c0.814,0.814,2.493,1.301,4.489,1.301	c1.843,0,3.873-0.398,6.035-1.185c0.7-0.255,1.329-0.553,1.914-0.909c0.832,0.172,1.648,0.368,2.46,0.583l-0.317-1.632	C39.612,32.591,39.058,32.808,38.036,33.455z" opacity=".05"/><linearGradient id="zTFFdIMRECgk2uy1FzzHtc" x1="27.193" x2="27.996" y1="44.998" y2="21.152" gradientTransform="matrix(1 0 0 -1 0 50)" gradientUnits="userSpaceOnUse"><stop offset="0" stop-color="#32bdef"/><stop offset=".26" stop-color="#26aae0"/><stop offset=".73" stop-color="#138ec8"/><stop offset="1" stop-color="#0c83bf"/></linearGradient><path fill="url(#zTFFdIMRECgk2uy1FzzHtc)" d="M26,30c5.775,0,9.698-2.319,13.551-5.614l-1.168-6.008C37.251,22.017,33.704,29.131,25.5,28.5	c-6.291-0.484-7.429-12.21,0.212-23.391l-5.361,1.042C18.411,9.646,16,14.62,16,20C16,26,20,30,26,30z"/><path fill="#313131" d="M26.586,31.305c-2.5,0.937-3.343,1.222-3.343,1.222l-2.735,0.433l0.415,1.814	c0,0,1.783-0.733,2.564-0.952c0.781-0.22,3.321-0.586,3.321-0.586L26.586,31.305z"/><linearGradient id="zTFFdIMRECgk2uy1FzzHtd" x1="22.475" x2="23.02" y1="20.088" y2="17.934" gradientTransform="matrix(1 0 0 -1 0 50)" gradientUnits="userSpaceOnUse"><stop offset="0" stop-color="#cfdbe6"/><stop offset="1" stop-color="#8f979e"/></linearGradient><path fill="url(#zTFFdIMRECgk2uy1FzzHtd)" d="M25.811,30.029c0,0-1.709-0.321-3.287,0.091c-1.18,0.308-2.92,1.512-2.92,1.512l0.756,1.075	c0,0,1.32-1.226,2.744-1.558c1.085-0.253,2.923,0.082,2.923,0.082L25.811,30.029z"/><linearGradient id="zTFFdIMRECgk2uy1FzzHte" x1="41.419" x2="42.313" y1="23.798" y2="21.942" gradientTransform="matrix(1 0 0 -1 0 50)" gradientUnits="userSpaceOnUse"><stop offset="0" stop-color="#cfdbe6"/><stop offset="1" stop-color="#8f979e"/></linearGradient><path fill="url(#zTFFdIMRECgk2uy1FzzHte)" d="M41,26.5c0.883-0.192,1.954-0.31,2.222,0s0.297,1.323-1.693,1.579S41,26.5,41,26.5z"/><linearGradient id="zTFFdIMRECgk2uy1FzzHtf" x1="31.416" x2="36.243" y1="24.451" y2="14.432" gradientTransform="matrix(1 0 0 -1 0 50)" gradientUnits="userSpaceOnUse"><stop offset="0" stop-color="#cfdbe6"/><stop offset="1" stop-color="#8f979e"/></linearGradient><path fill="url(#zTFFdIMRECgk2uy1FzzHtf)" d="M25.5,30.5C26.152,28.544,29,27,32,26s8-1.5,9,0.5s1.5,6-4,8s-9,1-10,0	C26.209,33.709,25,32,25.5,30.5z"/><linearGradient id="zTFFdIMRECgk2uy1FzzHtg" x1="33.541" x2="33.541" y1="24.275" y2="14.01" gradientTransform="matrix(1 0 0 -1 0 50)" gradientUnits="userSpaceOnUse"><stop offset="0" stop-color="#f0f0f0"/><stop offset="1" stop-color="#bbc1c4"/></linearGradient><path fill="url(#zTFFdIMRECgk2uy1FzzHtg)" d="M31.024,34.237c-1.937,0-2.633-0.292-3.219-0.782c-0.864-0.724-1.341-1.722-1.232-2.392	c0.162-0.993,2.274-2.626,5.965-3.856c1.632-0.545,3.667-0.733,5.288-0.733c1.56,0,1.91,0.148,2.141,0.518	c0.425,0.682,0.832,1.856,0.313,3.16c-0.461,1.157-1.603,2.195-3.506,2.887C34.618,33.823,32.796,34.237,31.024,34.237z"/><linearGradient id="zTFFdIMRECgk2uy1FzzHth" x1="33.105" x2="31.916" y1="18.897" y2="22.269" gradientTransform="matrix(1 0 0 -1 0 50)" gradientUnits="userSpaceOnUse"><stop offset="0" stop-color="#32bdef"/><stop offset=".26" stop-color="#26aae0"/><stop offset=".73" stop-color="#138ec8"/><stop offset="1" stop-color="#0c83bf"/></linearGradient><path fill="url(#zTFFdIMRECgk2uy1FzzHth)" d="M27.35,29.931c3.291-0.175,7.092-1.002,9.475-3.428c-1.409,0.064-2.973,0.265-4.286,0.703	C30.04,28.039,28.286,29.053,27.35,29.931z"/><path fill="#313131" d="M45,33c0,0-1.879-0.559-4.258-1.091c-0.406,0.577-0.976,1.127-1.752,1.622	c1.704,0.344,3.535,0.811,5.51,1.469C45.25,34.565,45.518,33.939,45,33z"/><linearGradient id="zTFFdIMRECgk2uy1FzzHti" x1="37.032" x2="37.873" y1="22.657" y2="20.911" gradientTransform="matrix(1 0 0 -1 0 50)" gradientUnits="userSpaceOnUse"><stop offset="0" stop-color="#cfdbe6"/><stop offset="1" stop-color="#8f979e"/></linearGradient><path fill="url(#zTFFdIMRECgk2uy1FzzHti)" d="M39.967,26.992c-0.034-0.055-0.074-0.104-0.117-0.15l-5.253,1.765L35,29.611l5.337-1.82	C40.234,27.484,40.103,27.21,39.967,26.992z"/><linearGradient id="zTFFdIMRECgk2uy1FzzHtj" x1="29.053" x2="36.716" y1="25.182" y2="11.376" gradientTransform="matrix(1 0 0 -1 0 50)" gradientUnits="userSpaceOnUse"><stop offset="0" stop-color="#6d7479"/><stop offset="1" stop-color="#323538"/></linearGradient><path fill="url(#zTFFdIMRECgk2uy1FzzHtj)" d="M30.952,31.309l4.261-1.364c0.571-1.143-0.571-1.714-0.571-1.714l-8.057,3.073	c0.011,0.525,0.301,1.164,0.816,1.737c2.925-0.483,6.864-0.314,9.368-0.001c0.002-0.001,0.003-0.001,0.005-0.002	c1.019-0.371,1.813-0.843,2.408-1.377C34.225,30.897,30.952,31.309,30.952,31.309z"/><linearGradient id="zTFFdIMRECgk2uy1FzzHtk" x1="55.424" x2="56.318" y1="27.562" y2="25.705" gradientTransform="rotate(150 28.757 25)" gradientUnits="userSpaceOnUse"><stop offset="0" stop-color="#cfdbe6"/><stop offset="1" stop-color="#8f979e"/></linearGradient><path fill="url(#zTFFdIMRECgk2uy1FzzHtk)" d="M4.895,36.163c-0.861,0.275-1.847,0.709-1.924,1.111s0.404,1.295,2.255,0.521	C7.077,37.022,4.895,36.163,4.895,36.163z"/><linearGradient id="zTFFdIMRECgk2uy1FzzHtl" x1="45.42" x2="50.248" y1="28.214" y2="18.196" gradientTransform="rotate(150 28.757 25)" gradientUnits="userSpaceOnUse"><stop offset="0" stop-color="#cfdbe6"/><stop offset="1" stop-color="#8f979e"/></linearGradient><path fill="url(#zTFFdIMRECgk2uy1FzzHtl)" d="M20.318,31.877c-1.542-1.368-4.781-1.281-7.879-0.647s-7.678,2.701-7.544,4.933	c0.134,2.232,1.701,5.946,7.464,4.928s8.294-3.634,8.66-5C21.309,35.011,21.501,32.926,20.318,31.877z"/><linearGradient id="zTFFdIMRECgk2uy1FzzHtm" x1="47.546" x2="47.546" y1="28.038" y2="17.773" gradientTransform="rotate(150 28.757 25)" gradientUnits="userSpaceOnUse"><stop offset="0" stop-color="#f0f0f0"/><stop offset="1" stop-color="#bbc1c4"/></linearGradient><path fill="url(#zTFFdIMRECgk2uy1FzzHtm)" d="M17.403,37.876c1.678-0.969,2.135-1.569,2.396-2.287c0.386-1.059,0.301-2.162-0.129-2.688	c-0.637-0.779-3.282-1.138-7.094-0.357c-1.686,0.345-3.542,1.199-4.946,2.01c-1.351,0.78-1.58,1.084-1.595,1.519	c-0.027,0.803,0.208,2.023,1.309,2.893c0.978,0.772,2.486,1.099,4.479,0.747C14.084,39.314,15.868,38.762,17.403,37.876z"/><path fill="#313131" d="M4.681,43.792c0,0,1.347-1.423,3.142-3.073c0.64,0.296,1.409,0.488,2.328,0.528	c-1.304,1.15-2.656,2.47-4.037,4.027C5.247,45.273,4.701,44.865,4.681,43.792z"/><linearGradient id="zTFFdIMRECgk2uy1FzzHtn" x1="51.037" x2="51.878" y1="26.421" y2="24.675" gradientTransform="rotate(150 28.757 25)" gradientUnits="userSpaceOnUse"><stop offset="0" stop-color="#cfdbe6"/><stop offset="1" stop-color="#8f979e"/></linearGradient><path fill="url(#zTFFdIMRECgk2uy1FzzHtn)" d="M6.035,36.073c0.002-0.065,0.012-0.127,0.027-0.188l5.432-1.098l0.154,1.071L6.115,36.95	C6.05,36.632,6.026,36.33,6.035,36.073z"/><linearGradient id="zTFFdIMRECgk2uy1FzzHto" x1="43.057" x2="50.72" y1="28.946" y2="15.14" gradientTransform="rotate(150 28.757 25)" gradientUnits="userSpaceOnUse"><stop offset="0" stop-color="#6d7479"/><stop offset="1" stop-color="#323538"/></linearGradient><path fill="url(#zTFFdIMRECgk2uy1FzzHto)" d="M16.001,35.304l-4.372,0.949c-1.066-0.704-0.362-1.77-0.362-1.77l8.515-1.367	c0.253,0.46,0.321,1.159,0.162,1.913c-2.774,1.044-6.102,3.16-8.114,4.684c-0.002,0-0.004,0.001-0.006,0.001	c-1.068,0.189-1.992,0.177-2.774,0.012C12.96,36.584,16.001,35.304,16.001,35.304z"/></svg>