<svg xmlns="http://www.w3.org/2000/svg" viewBox="0 0 48 48"><path fill="#35c1f1" d="M28,26.947V5c0-0.552-0.448-1-1-1h-6c-0.552,0-1,0.448-1,1v21.947c-2.961,1.474-5,4.522-5,8.053	c0,4.971,4.029,9,9,9s9-4.029,9-9C33,31.468,30.961,28.42,28,26.947z"/><circle cx="24" cy="35" r="6" fill="#af2031"/><rect width="2" height="16" x="23" y="15" fill="#af2031"/><rect width="2" height="8" x="23" y="7" fill="#1b9de2"/><path fill="#64717c" d="M14.037,23.929H8.5c-0.276,0-0.5-0.224-0.5-0.5v-1c0-0.276,0.224-0.5,0.5-0.5h4.891L33.963,7.071 H39.5c0.276,0,0.5,0.224,0.5,0.5v1c0,0.276-0.224,0.5-0.5,0.5h-4.891L14.037,23.929z"/></svg>