<svg xmlns="http://www.w3.org/2000/svg" viewBox="0 0 48 48"><linearGradient id="LE1rGV5ch3GDR39_UKXJVa" x1="11.434" x2="35.775" y1="2.994" y2="34.994" gradientUnits="userSpaceOnUse"><stop offset="0" stop-color="#5c65d6"/><stop offset=".999" stop-color="#464eb0"/></linearGradient><path fill="url(#LE1rGV5ch3GDR39_UKXJVa)" d="M43.463,12H11.099c-0.066,0-0.132-0.004-0.198-0.012L4.451,11.19	c-0.857-0.106-1.645,0.483-1.785,1.335l-0.559,3.399c-0.068,0.415,0.028,0.84,0.269,1.184L3,18v1l0.227,0.521	c0.136,0.312,0.367,0.572,0.66,0.744h0c0.39,0.229,0.666,0.613,0.76,1.056l0.255,1.211c0.064,0.305,0.216,0.586,0.437,0.806L6,24h1	l-1,5v1l0.18,0.18c0.49,0.49,1.238,0.611,1.857,0.301L9,30v1l0.789,2.368c0.135,0.405,0.425,0.739,0.807,0.93L12,35v1l0.375,1H13	l0.529-0.529C13.83,36.17,14.24,36,14.666,36h0.667c0.427,0,0.836,0.17,1.138,0.471L17,37h1v-1l0.5-1l1,2H20v-1.391	C20,34.72,20.72,34,21.609,34h22.707c0.917,0,1.649-0.766,1.607-1.682L45.07,13.536C45.031,12.677,44.323,12,43.463,12z"/></svg>