<svg xmlns="http://www.w3.org/2000/svg" viewBox="0 0 48 48"><linearGradient id="hH1HCeKwPHMCrp8AV5KFMa" x1="17.613" x2="30.462" y1="48.374" y2="89.289" gradientTransform="translate(0 -46)" gradientUnits="userSpaceOnUse"><stop offset="0" stop-color="#ff8f6b"/><stop offset="1" stop-color="#d35230"/></linearGradient><path fill="url(#hH1HCeKwPHMCrp8AV5KFMa)" d="M11.633,10.5l2.111,30.774C13.888,43.372,15.632,45,17.735,45h12.53	c2.103,0,3.847-1.628,3.991-3.726L36.367,10.5H11.633z"/><path fill="#007ad9" d="M22,3v7.5h4V3c0-0.552-0.448-1-1-1h-2C22.448,2,22,2.448,22,3z"/><linearGradient id="hH1HCeKwPHMCrp8AV5KFMb" x1="24" x2="24" y1="52.356" y2="65.972" gradientTransform="translate(0 -46)" gradientUnits="userSpaceOnUse"><stop offset="0" stop-color="#a3ffff"/><stop offset=".404" stop-color="#82ecff"/><stop offset=".769" stop-color="#6bdfff"/><stop offset="1" stop-color="#63daff"/></linearGradient><polygon fill="url(#hH1HCeKwPHMCrp8AV5KFMb)" points="36.367,10.5 35.852,18 12.148,18 11.633,10.5"/><linearGradient id="hH1HCeKwPHMCrp8AV5KFMc" x1="23.105" x2="24.683" y1="50.699" y2="60.923" gradientTransform="translate(0 -46)" gradientUnits="userSpaceOnUse"><stop offset="0" stop-color="#32bdef"/><stop offset=".249" stop-color="#29b0ea"/><stop offset=".603" stop-color="#21a6e5"/><stop offset="1" stop-color="#1ea2e4"/></linearGradient><path fill="url(#hH1HCeKwPHMCrp8AV5KFMc)" d="M11,13h26c0.552,0,1-0.448,1-1V9c0-0.552-0.448-1-1-1H11c-0.552,0-1,0.448-1,1v3	C10,12.552,10.448,13,11,13z"/><linearGradient id="hH1HCeKwPHMCrp8AV5KFMd" x1="23.686" x2="24.441" y1="82.889" y2="90.377" gradientTransform="translate(0 -46)" gradientUnits="userSpaceOnUse"><stop offset="0" stop-color="#70371b"/><stop offset="1" stop-color="#401608"/></linearGradient><circle cx="24" cy="40" r="2" fill="url(#hH1HCeKwPHMCrp8AV5KFMd)"/><linearGradient id="hH1HCeKwPHMCrp8AV5KFMe" x1="29.686" x2="30.441" y1="82.889" y2="90.377" gradientTransform="translate(0 -46)" gradientUnits="userSpaceOnUse"><stop offset="0" stop-color="#70371b"/><stop offset="1" stop-color="#401608"/></linearGradient><circle cx="30" cy="40" r="2" fill="url(#hH1HCeKwPHMCrp8AV5KFMe)"/><linearGradient id="hH1HCeKwPHMCrp8AV5KFMf" x1="20.686" x2="21.441" y1="77.889" y2="85.377" gradientTransform="translate(0 -46)" gradientUnits="userSpaceOnUse"><stop offset="0" stop-color="#70371b"/><stop offset="1" stop-color="#401608"/></linearGradient><circle cx="21" cy="35" r="2" fill="url(#hH1HCeKwPHMCrp8AV5KFMf)"/><linearGradient id="hH1HCeKwPHMCrp8AV5KFMg" x1="26.686" x2="27.441" y1="77.889" y2="85.377" gradientTransform="translate(0 -46)" gradientUnits="userSpaceOnUse"><stop offset="0" stop-color="#70371b"/><stop offset="1" stop-color="#401608"/></linearGradient><circle cx="27" cy="35" r="2" fill="url(#hH1HCeKwPHMCrp8AV5KFMg)"/><linearGradient id="hH1HCeKwPHMCrp8AV5KFMh" x1="17.686" x2="18.441" y1="82.889" y2="90.377" gradientTransform="translate(0 -46)" gradientUnits="userSpaceOnUse"><stop offset="0" stop-color="#70371b"/><stop offset="1" stop-color="#401608"/></linearGradient><circle cx="18" cy="40" r="2" fill="url(#hH1HCeKwPHMCrp8AV5KFMh)"/><linearGradient id="hH1HCeKwPHMCrp8AV5KFMi" x1="24" x2="24" y1="37.786" y2="31.995" gradientTransform="matrix(1 0 0 -1 0 50)" gradientUnits="userSpaceOnUse"><stop offset="0" stop-color="#32bdef"/><stop offset=".249" stop-color="#29b0ea"/><stop offset=".603" stop-color="#21a6e5"/><stop offset="1" stop-color="#1ea2e4"/></linearGradient><path fill="url(#hH1HCeKwPHMCrp8AV5KFMi)" d="M22,13v5h4v-5H22z"/><polygon points="36.127,14 36.195,13 11.805,13 11.873,14" opacity=".07"/><polygon points="36.161,13.5 36.195,13 11.805,13 11.839,13.5" opacity=".05"/></svg>