<svg xmlns="http://www.w3.org/2000/svg" viewBox="0 0 48 48"><radialGradient id="VLeTdeALaxVNY5YdrSiHQa" cx="23.957" cy="5.864" r="24.468" fx="23.994" fy="5.493" gradientUnits="userSpaceOnUse"><stop offset=".016" stop-color="#999"/><stop offset=".066" stop-color="#999"/><stop offset=".101" stop-color="#a7a7a7"/><stop offset=".164" stop-color="#b8b8b8"/><stop offset=".241" stop-color="#c3c3c3"/><stop offset=".349" stop-color="#cacaca"/><stop offset=".651" stop-color="#ccc"/><stop offset=".686" stop-color="#c3c3c3"/><stop offset=".801" stop-color="#acacac"/><stop offset=".908" stop-color="#9e9e9e"/><stop offset="1" stop-color="#999"/></radialGradient><polygon fill="url(#VLeTdeALaxVNY5YdrSiHQa)" points="40.779,20.583 24,7.276 7.221,20.583 5.979,19.016 24,4.724 42.021,19.016"/><linearGradient id="VLeTdeALaxVNY5YdrSiHQb" x1="23.386" x2="24.614" y1="7.903" y2="4.097" gradientTransform="matrix(-1 0 0 1 48 0)" gradientUnits="userSpaceOnUse"><stop offset="0" stop-color="#4c5963"/><stop offset="1" stop-color="#889097"/></linearGradient><path fill="url(#VLeTdeALaxVNY5YdrSiHQb)" d="M24,4c1.1,0,2,0.9,2,2s-0.9,2-2,2s-2-0.9-2-2S22.9,4,24,4z"/><linearGradient id="VLeTdeALaxVNY5YdrSiHQc" x1="18.426" x2="29.574" y1="12.239" y2="46.761" gradientUnits="userSpaceOnUse"><stop offset="0" stop-color="#21ad64"/><stop offset="1" stop-color="#088242"/></linearGradient><path fill="url(#VLeTdeALaxVNY5YdrSiHQc)" d="M4,17h40c1.105,0,2,0.895,2,2v21c0,1.105-0.895,2-2,2H4c-1.105,0-2-0.895-2-2V19	C2,17.895,2.895,17,4,17z"/><path d="M40,24h-1.902c-0.552,0-1,0.449-1,1v2.75l-2.135-3.296C34.776,24.17,34.463,24,34.124,24h-2.17	c-0.339,0-0.64,0.17-0.82,0.429C30.953,24.17,30.652,24,30.313,24h-5.158c-0.552,0-1,0.449-1,1v0.486	C23.551,24.654,22.445,24,20.465,24h-3.156c-0.552,0-1,0.449-1,1v1.843c-0.234-0.518-0.548-0.986-0.939-1.401	c-0.98-1.04-2.268-1.567-3.823-1.567c-1.633,0-2.975,0.547-3.987,1.626c-0.994,1.062-1.498,2.446-1.498,4.114	c0,1.6,0.502,2.93,1.492,3.955c1,1.032,2.295,1.555,3.85,1.555c1.594,0,2.913-0.54,3.921-1.603c0.413-0.435,0.742-0.926,0.985-1.47	V34c0,0.551,0.448,1,1,1h2.016c0.552,0,1-0.449,1-1v-2.101c1.304-0.007,2.382-0.371,3.206-1.081c0.241-0.209,0.449-0.436,0.625-0.68	V34c0,0.551,0.448,1,1,1h5.364c0.281,0,0.535-0.117,0.718-0.304C31.419,34.883,31.673,35,31.954,35h1.902c0.552,0,1-0.449,1-1	v-2.939l2.272,3.486C37.314,34.831,37.628,35,37.966,35H40c0.552,0,1-0.449,1-1v-9C41,24.449,40.552,24,40,24z" opacity=".05"/><path d="M11.546,24.375c-1.489,0-2.708,0.494-3.622,1.468c-0.904,0.966-1.363,2.235-1.363,3.772	c0,1.466,0.455,2.68,1.352,3.607c0.901,0.931,2.075,1.403,3.49,1.403c1.451,0,2.648-0.487,3.559-1.447	c0.905-0.953,1.364-2.212,1.364-3.743c0-1.492-0.443-2.72-1.319-3.649C14.123,24.85,12.959,24.375,11.546,24.375z M12.705,31.318	c-0.311,0.381-0.725,0.567-1.266,0.567c-0.52,0-0.927-0.192-1.245-0.587c-0.34-0.421-0.512-1.023-0.512-1.788	c0-0.755,0.174-1.36,0.517-1.797c0.317-0.406,0.74-0.603,1.29-0.603c0.534,0,0.923,0.184,1.226,0.578	c0.324,0.422,0.488,1.047,0.488,1.859C13.203,30.316,13.035,30.912,12.705,31.318z M31.02,32.355V34c0,0.276-0.224,0.5-0.5,0.5	h-5.364c-0.276,0-0.5-0.224-0.5-0.5v-9c0-0.276,0.224-0.5,0.5-0.5h5.158c0.276,0,0.5,0.224,0.5,0.5v1.65c0,0.276-0.224,0.5-0.5,0.5	H27.67v1.002h2.425c0.276,0,0.5,0.224,0.5,0.5v1.645c0,0.276-0.224,0.5-0.5,0.5H27.67v1.059h2.85	C30.796,31.855,31.02,32.079,31.02,32.355z M20.465,24.5h-3.156c-0.276,0-0.5,0.224-0.5,0.5v9c0,0.276,0.224,0.5,0.5,0.5h2.016	c0.276,0,0.5-0.224,0.5-0.5v-2.601h0.46c1.199,0,2.181-0.323,2.919-0.959c0.758-0.655,1.143-1.521,1.143-2.572	C24.346,26.332,23.673,24.5,20.465,24.5z M19.824,27.057h0.291c1.023,0,1.109,0.458,1.109,0.887c0,0.551-0.188,0.918-1.109,0.918	h-0.291V27.057z M40.5,25v9c0,0.276-0.224,0.5-0.5,0.5h-2.034c-0.169,0-0.326-0.085-0.419-0.227l-3.19-4.895V34	c0,0.276-0.224,0.5-0.5,0.5h-1.902c-0.276,0-0.5-0.224-0.5-0.5v-9c0-0.276,0.224-0.5,0.5-0.5h2.17c0.17,0,0.327,0.086,0.42,0.228	l3.054,4.714V25c0-0.276,0.224-0.5,0.5-0.5H40C40.276,24.5,40.5,24.724,40.5,25z" opacity=".05"/><path fill="#fff" d="M11.402,34.125c-1.28,0-2.324-0.417-3.13-1.251c-0.807-0.834-1.211-1.92-1.211-3.259	c0-1.414,0.41-2.557,1.229-3.431c0.819-0.873,1.905-1.31,3.257-1.31c1.276,0,2.308,0.418,3.097,1.254	c0.787,0.836,1.182,1.938,1.182,3.306c0,1.406-0.409,2.538-1.226,3.399C13.782,33.695,12.716,34.125,11.402,34.125z M11.49,26.609	c-0.707,0-1.268,0.265-1.684,0.795c-0.416,0.53-0.623,1.232-0.623,2.105c0,0.886,0.208,1.586,0.623,2.102	c0.416,0.515,0.96,0.773,1.634,0.773c0.694,0,1.246-0.251,1.653-0.752c0.408-0.502,0.61-1.197,0.61-2.087	c0-0.927-0.197-1.649-0.592-2.164C12.716,26.867,12.175,26.609,11.49,26.609z M19.324,30.9V34h-2.015v-9h3.156	c2.254,0,3.381,0.956,3.381,2.868c0,0.904-0.324,1.635-0.97,2.194c-0.647,0.559-1.511,0.838-2.592,0.838H19.324z M19.324,26.556	v2.805h0.791c1.074,0,1.609-0.473,1.609-1.418c0-0.924-0.536-1.387-1.609-1.387H19.324z M30.519,34h-5.364v-9h5.158v1.65H27.17	v2.002h2.925v1.644H27.17v2.059h3.349V34z M40,34h-2.034l-3.686-5.655c-0.216-0.331-0.366-0.58-0.448-0.747h-0.026	c0.034,0.318,0.051,0.804,0.051,1.456V34h-1.903v-9h2.17l3.55,5.479c0.162,0.247,0.311,0.492,0.448,0.734h0.025	c-0.033-0.209-0.05-0.621-0.05-1.236V25H40V34z"/></svg>