<svg xmlns="http://www.w3.org/2000/svg" viewBox="0 0 48 48"><linearGradient id="vhhbP3q~MizkkwDeLVXw~a" x1="17" x2="17" y1="2.99" y2="8.99" gradientUnits="userSpaceOnUse"><stop offset="0" stop-color="#f0f0f0"/><stop offset="1" stop-color="#bbc1c4"/></linearGradient><path fill="url(#vhhbP3q~MizkkwDeLVXw~a)" d="M25,4c-0.552,0-1,0.448-1,1c0,0.552,0.448,1,1,1s1-0.448,1-1C26,4.448,25.552,4,25,4z M21,3 c-0.255,0-0.481,0.103-0.657,0.259C20.102,3.096,19.812,3,19.5,3c-0.386,0-0.734,0.15-1,0.389C18.234,3.15,17.886,3,17.5,3 s-0.734,0.15-1,0.389C16.234,3.15,15.886,3,15.5,3c-0.461,0-0.868,0.212-1.143,0.539C14,3.207,13.526,3,13,3 c-0.749,0-1.394,0.417-1.737,1.027C11.176,4.015,11.09,4,11,4c-0.811,0-1.507,0.485-1.82,1.18C8.485,5.493,8,6.188,8,7 c0,1.105,0.895,2,2,2c0.289,0,0.563-0.064,0.811-0.175C11.018,8.933,11.25,9,11.5,9c0.693,0,1.27-0.472,1.442-1.11 C13.115,7.96,13.302,8,13.5,8c0.386,0,0.734-0.15,1-0.389C14.766,7.85,15.114,8,15.5,8c0.693,0,1.27-0.472,1.442-1.11 C17.115,6.96,17.302,7,17.5,7c0.693,0,1.27-0.472,1.442-1.11C19.115,5.96,19.302,6,19.5,6c0.659,0,1.212-0.427,1.414-1.017 C20.944,4.985,20.969,5,21,5c0.552,0,1-0.448,1-1C22,3.448,21.552,3,21,3z"/><linearGradient id="vhhbP3q~MizkkwDeLVXw~b" x1="3.958" x2="28.114" y1="30" y2="30" gradientUnits="userSpaceOnUse"><stop offset="0" stop-color="#c93702"/><stop offset=".325" stop-color="#c63602"/><stop offset=".528" stop-color="#be3402"/><stop offset=".698" stop-color="#af2f03"/><stop offset=".849" stop-color="#9b2903"/><stop offset=".98" stop-color="#822204"/></linearGradient><path fill="url(#vhhbP3q~MizkkwDeLVXw~b)" d="M6,20h22v20H6c-1.105,0-2-0.895-2-2V22C4,20.895,4.895,20,6,20z"/><linearGradient id="vhhbP3q~MizkkwDeLVXw~c" x1="10.5" x2="10.5" y1="8.155" y2="21.993" gradientUnits="userSpaceOnUse"><stop offset="0" stop-color="#c93702"/><stop offset=".325" stop-color="#c63602"/><stop offset=".528" stop-color="#be3402"/><stop offset=".698" stop-color="#af2f03"/><stop offset=".849" stop-color="#9b2903"/><stop offset=".98" stop-color="#822204"/></linearGradient><path fill="url(#vhhbP3q~MizkkwDeLVXw~c)" d="M11.828,8H9.172c-0.511,0-0.94,0.386-0.994,0.895L7,20h7L12.822,8.895	C12.768,8.386,12.339,8,11.828,8z"/><linearGradient id="vhhbP3q~MizkkwDeLVXw~d" x1="35" x2="35" y1="7.696" y2="39.976" gradientUnits="userSpaceOnUse"><stop offset="0" stop-color="#c93702"/><stop offset=".499" stop-color="#ba3302"/><stop offset="1" stop-color="#a62d03"/></linearGradient><path fill="url(#vhhbP3q~MizkkwDeLVXw~d)" d="M28,40h14c1.1,0,2-0.9,2-2V15l-7.926-6.605c-0.622-0.519-1.526-0.519-2.149,0L26,15v23	C26,39.105,26.895,40,28,40z"/><path fill="#a60f0f" d="M44,15.994c-0.226,0-0.453-0.076-0.64-0.232l-7.926-6.604c-0.252-0.21-0.617-0.209-0.868,0	l-7.926,6.604c-0.425,0.354-1.055,0.296-1.408-0.128c-0.354-0.424-0.296-1.055,0.128-1.408l7.926-6.604	c0.993-0.829,2.435-0.829,3.429,0l7.925,6.604c0.424,0.354,0.481,0.984,0.128,1.408C44.57,15.871,44.286,15.994,44,15.994z"/><path fill="#f80" d="M38,21h2v-3h-2V21z M38,26h2v-3h-2V26z M38,31h2v-3h-2V31z M38,36h2v-3h-2V36z M34,21h2v-3h-2V21z M34,26h2v-3h-2V26z M34,31h2v-3h-2V31z M34,36h2v-3h-2V36z M30,21h2v-3h-2V21z M30,26h2v-3h-2V26z M30,31h2v-3h-2V31z M30,36h2v-3	h-2V36z"/><path fill="#f80" d="M9,23H7v6h2V23z M13,23h-2v6h2V23z M17,23h-2v6h2V23z M21,23h-2v6h2V23z"/><path fill="#f80" d="M9,31H7v6h2V31z M13,31h-2v6h2V31z M17,31h-2v6h2V31z M21,31h-2v6h2V31z"/><g><polygon fill="#a8a8a8" points="8.061,10 7.849,12 13.151,12 12.939,10"/><polygon fill="#a8a8a8" points="13.682,17 13.47,15 7.53,15 7.318,17"/></g></svg>