<svg xmlns="http://www.w3.org/2000/svg" viewBox="0 0 48 48"><linearGradient id="lAPc856SqcrzVTEvl7rUKa" x1="6.825" x2="41.469" y1="5.537" y2="42.78" gradientUnits="userSpaceOnUse"><stop offset="0" stop-color="#33bef0"/><stop offset="1" stop-color="#0a85d9"/></linearGradient><path fill="url(#lAPc856SqcrzVTEvl7rUKa)" d="M42,38c0,2.209-1.791,4-4,4H10c-2.209,0-4-1.791-4-4V10c0-2.209,1.791-4,4-4h28	c2.209,0,4,1.791,4,4V38z"/><path d="M25.1,37l-1.491-2.625L22.095,37H17.12l3.939-5.683L17.38,25.5h4.924l1.445,2.721l1.523-2.721h2.711 v-2.309l0.398-0.301c0.309-0.232,0.628-0.438,0.949-0.613c0.321-0.176,0.663-0.327,1.017-0.447c0.348-0.12,0.722-0.212,1.11-0.271 c0.378-0.057,0.781-0.086,1.199-0.086c0.699,0,1.353,0.096,1.939,0.285c0.621,0.201,1.162,0.504,1.609,0.899 c0.459,0.405,0.817,0.915,1.063,1.513c0.237,0.579,0.358,1.238,0.358,1.958c0,0.638-0.082,1.226-0.244,1.748 c-0.161,0.518-0.392,1.007-0.686,1.454c-0.283,0.432-0.63,0.846-1.028,1.229c-0.364,0.35-0.769,0.711-1.216,1.08 c-0.373,0.301-0.736,0.589-1.096,0.869c-0.284,0.22-0.544,0.434-0.778,0.645h5.252V37H25.1z M27.705,33.487 c0-0.002,0.001-0.003,0.001-0.005c0.143-0.442,0.334-0.864,0.572-1.255c0.235-0.385,0.509-0.746,0.814-1.076 c0.289-0.313,0.597-0.614,0.925-0.904c0.316-0.281,0.64-0.553,0.968-0.814c0.311-0.245,0.612-0.491,0.908-0.739 c0.262-0.221,0.502-0.44,0.719-0.654c0.188-0.185,0.349-0.376,0.479-0.568c0.115-0.171,0.207-0.354,0.271-0.543 c0.058-0.171,0.087-0.365,0.087-0.576c0-0.219-0.029-0.401-0.088-0.543c-0.052-0.126-0.116-0.221-0.201-0.298 c-0.092-0.083-0.203-0.146-0.34-0.192c-0.16-0.055-0.346-0.082-0.552-0.082c-0.398,0-0.819,0.099-1.251,0.293 c-0.452,0.204-0.901,0.521-1.335,0.944l-0.708,0.691l-2.724,4.137L27.705,33.487z" opacity=".05"/><path d="M31.47,33.654c0.013-0.021,0.025-0.04,0.039-0.061c0.153-0.229,0.361-0.465,0.616-0.701 c0.273-0.254,0.583-0.513,0.927-0.778c0.357-0.277,0.718-0.563,1.084-0.859c0.437-0.36,0.832-0.713,1.188-1.055 c0.371-0.357,0.693-0.742,0.957-1.144c0.268-0.407,0.479-0.854,0.626-1.328c0.147-0.476,0.222-1.014,0.222-1.6 c0-0.655-0.108-1.25-0.321-1.768c-0.217-0.527-0.531-0.975-0.933-1.329c-0.395-0.35-0.876-0.618-1.431-0.798 c-0.537-0.173-1.138-0.261-1.786-0.261c-0.396,0-0.774,0.027-1.124,0.08c-0.359,0.055-0.704,0.139-1.023,0.249 c-0.322,0.11-0.639,0.249-0.939,0.414c-0.302,0.164-0.601,0.357-0.888,0.573l-0.199,0.15V26h-2.918l-1.828,3.265L22.003,26h-3.715 l3.371,5.33l-3.584,5.17h3.73l1.807-3.132l1.778,3.132h11.941v-2.846H31.47z M30.349,30.621c-0.315,0.279-0.611,0.569-0.889,0.869 c-0.284,0.308-0.538,0.644-0.755,0.997c-0.217,0.356-0.393,0.742-0.522,1.147c-0.119,0.37-0.177,0.771-0.189,1.188l-2.343-3.519 l2.935-4.459l0.747-0.729c0.476-0.464,0.974-0.814,1.479-1.042c0.496-0.224,0.986-0.337,1.456-0.337 c0.26,0,0.499,0.036,0.712,0.108c0.202,0.068,0.371,0.165,0.515,0.295c0.141,0.127,0.248,0.284,0.329,0.479 c0.083,0.202,0.125,0.448,0.125,0.732c0,0.265-0.038,0.513-0.113,0.736c-0.078,0.23-0.189,0.454-0.33,0.663 c-0.147,0.218-0.329,0.435-0.541,0.644c-0.226,0.223-0.476,0.451-0.749,0.682c-0.299,0.251-0.604,0.5-0.918,0.748 C30.976,30.08,30.659,30.346,30.349,30.621z" opacity=".07"/><path fill="#fff" d="M28.214,26.5h-2.355l-2.125,3.795h-0.027c-0.118-0.242-0.238-0.477-0.362-0.705l-1.642-3.09h-2.506 l3.063,4.843L19.03,36h2.486l1.697-2.941c0.235-0.401,0.365-0.631,0.39-0.686h0.037c0.143,0.277,0.266,0.507,0.371,0.686L25.682,36 h2.495l-3.126-4.694L28.214,26.5z"/><path fill="#fff" d="M36.832,36v-1.846h-6.003v-0.047c0-0.266,0.089-0.53,0.265-0.793 c0.177-0.263,0.407-0.525,0.691-0.789c0.284-0.263,0.604-0.531,0.96-0.807s0.713-0.559,1.072-0.85 c0.426-0.352,0.813-0.695,1.159-1.029s0.642-0.687,0.886-1.058s0.433-0.771,0.566-1.201c0.133-0.43,0.199-0.914,0.199-1.452 c0-0.594-0.095-1.119-0.283-1.577s-0.456-0.84-0.803-1.146c-0.346-0.307-0.764-0.538-1.252-0.696 c-0.488-0.157-1.033-0.236-1.633-0.236c-0.371,0-0.721,0.024-1.049,0.074c-0.327,0.05-0.64,0.125-0.937,0.228 c-0.297,0.102-0.585,0.229-0.862,0.38c-0.279,0.152-0.554,0.329-0.826,0.534v2.068c0.52-0.507,1.061-0.888,1.623-1.141 c0.563-0.254,1.117-0.381,1.661-0.381c0.315,0,0.606,0.045,0.872,0.135s0.496,0.223,0.691,0.398 c0.194,0.177,0.346,0.396,0.454,0.659s0.163,0.57,0.163,0.923c0,0.321-0.047,0.62-0.14,0.896s-0.223,0.536-0.39,0.784 c-0.167,0.247-0.368,0.486-0.604,0.719c-0.234,0.231-0.494,0.469-0.779,0.709c-0.303,0.254-0.611,0.506-0.928,0.757 c-0.314,0.25-0.624,0.51-0.928,0.779c-0.303,0.269-0.587,0.547-0.854,0.835c-0.266,0.287-0.497,0.594-0.695,0.918 c-0.198,0.325-0.355,0.672-0.473,1.039c-0.118,0.368-0.177,0.763-0.177,1.184V36H36.832z"/></svg>