<svg xmlns="http://www.w3.org/2000/svg" xmlns:xlink="http://www.w3.org/1999/xlink" data-name="Слой 1" viewBox="0 0 48 48"><defs><linearGradient id="quBHZPgDmvlmUkTWJskfDh" x1="12.587" x2="13.501" y1="9.864" y2="12.377" xlink:href="#quBHZPgDmvlmUkTWJskfDa"/><linearGradient id="quBHZPgDmvlmUkTWJskfDa" x1="16.603" x2="32.971" y1="1.178" y2="46.149" data-name="Безымянный градиент 187" gradientUnits="userSpaceOnUse"><stop offset="0" stop-color="#ffda1c"/><stop offset="1" stop-color="#feb705"/></linearGradient><linearGradient id="quBHZPgDmvlmUkTWJskfDc" x1="7.587" x2="8.501" y1="20.864" y2="23.377" xlink:href="#quBHZPgDmvlmUkTWJskfDa"/><linearGradient id="quBHZPgDmvlmUkTWJskfDd" x1="12.587" x2="13.501" y1="20.864" y2="23.377" xlink:href="#quBHZPgDmvlmUkTWJskfDa"/><linearGradient id="quBHZPgDmvlmUkTWJskfDe" x1="7.587" x2="8.501" y1="34.864" y2="37.377" xlink:href="#quBHZPgDmvlmUkTWJskfDa"/><linearGradient id="quBHZPgDmvlmUkTWJskfDf" x1="12.587" x2="13.501" y1="31.864" y2="34.377" xlink:href="#quBHZPgDmvlmUkTWJskfDa"/><linearGradient id="quBHZPgDmvlmUkTWJskfDg" x1="7.587" x2="8.501" y1="6.864" y2="9.377" xlink:href="#quBHZPgDmvlmUkTWJskfDa"/><linearGradient id="quBHZPgDmvlmUkTWJskfDb" x1="30.885" x2="18.657" y1="47.19" y2="5.712" data-name="Безымянный градиент 73" gradientUnits="userSpaceOnUse"><stop offset="0" stop-color="#9332bf"/><stop offset="1" stop-color="#912fbd"/></linearGradient><linearGradient id="quBHZPgDmvlmUkTWJskfDi" x1="34.587" x2="35.501" y1="31.864" y2="34.377" xlink:href="#quBHZPgDmvlmUkTWJskfDa"/><linearGradient id="quBHZPgDmvlmUkTWJskfDj" x1="39.587" x2="40.501" y1="34.864" y2="37.377" xlink:href="#quBHZPgDmvlmUkTWJskfDa"/><linearGradient id="quBHZPgDmvlmUkTWJskfDk" x1="34.587" x2="35.501" y1="9.864" y2="12.377" xlink:href="#quBHZPgDmvlmUkTWJskfDa"/><linearGradient id="quBHZPgDmvlmUkTWJskfDl" x1="39.587" x2="40.501" y1="6.864" y2="9.377" xlink:href="#quBHZPgDmvlmUkTWJskfDa"/><linearGradient id="quBHZPgDmvlmUkTWJskfDm" x1="34.587" x2="35.501" y1="20.864" y2="23.377" xlink:href="#quBHZPgDmvlmUkTWJskfDa"/><linearGradient id="quBHZPgDmvlmUkTWJskfDn" x1="39.587" x2="40.501" y1="20.864" y2="23.377" xlink:href="#quBHZPgDmvlmUkTWJskfDa"/></defs><rect width="14" height="33" x="17" y="5" fill="url(#quBHZPgDmvlmUkTWJskfDa)"/><path fill="url(#quBHZPgDmvlmUkTWJskfDb)" d="M29.55848,45h-11.117a2,2,0,0,1-1.89737-1.36754l-.44152-1.32456A2.00018,2.00018,0,0,1,16,41.67545V37.5a.5.5,0,0,1,.5-.5h15a.5.5,0,0,1,.5.5v4.17545a2.00018,2.00018,0,0,1-.10263.63245l-.44152,1.32456A2,2,0,0,1,29.55848,45ZM32,6.5V6a2,2,0,0,0-2-2H18a2,2,0,0,0-2,2v.5a.5.5,0,0,0,.5.5h15A.5.5,0,0,0,32,6.5Zm0,11v-2a.5.5,0,0,0-.5-.5h-15a.5.5,0,0,0-.5.5v2a.5.5,0,0,0,.5.5h15A.5.5,0,0,0,32,17.5Zm0,11v-2a.5.5,0,0,0-.5-.5h-15a.5.5,0,0,0-.5.5v2a.5.5,0,0,0,.5.5h15A.5.5,0,0,0,32,28.5Z"/><circle cx="8" cy="22" r="1" fill="url(#quBHZPgDmvlmUkTWJskfDc)"/><circle cx="13" cy="22" r="1" fill="url(#quBHZPgDmvlmUkTWJskfDd)"/><circle cx="8" cy="36" r="1" fill="url(#quBHZPgDmvlmUkTWJskfDe)"/><circle cx="13" cy="33" r="1" fill="url(#quBHZPgDmvlmUkTWJskfDf)"/><circle cx="8" cy="8" r="1" fill="url(#quBHZPgDmvlmUkTWJskfDg)"/><circle cx="13" cy="11" r="1" fill="url(#quBHZPgDmvlmUkTWJskfDh)"/><circle cx="35" cy="33" r="1" fill="url(#quBHZPgDmvlmUkTWJskfDi)"/><circle cx="40" cy="36" r="1" fill="url(#quBHZPgDmvlmUkTWJskfDj)"/><circle cx="35" cy="11" r="1" fill="url(#quBHZPgDmvlmUkTWJskfDk)"/><circle cx="40" cy="8" r="1" fill="url(#quBHZPgDmvlmUkTWJskfDl)"/><circle cx="35" cy="22" r="1" fill="url(#quBHZPgDmvlmUkTWJskfDm)"/><circle cx="40" cy="22" r="1" fill="url(#quBHZPgDmvlmUkTWJskfDn)"/></svg>