<svg xmlns="http://www.w3.org/2000/svg" viewBox="0 0 48 48"><linearGradient id="KENZ1ciHWB0Zy9Qlt350Na" x1="24" x2="24" y1="307.879" y2="271.961" gradientTransform="rotate(180 24 157)" gradientUnits="userSpaceOnUse"><stop offset="0" stop-color="#2e9f4e"/><stop offset="1" stop-color="#1c7130"/></linearGradient><path fill="url(#KENZ1ciHWB0Zy9Qlt350Na)" d="M6,40V8c0-1.1,0.9-2,2-2h32c1.1,0,2,0.9,2,2v32c0,1.1-0.9,2-2,2H8C6.9,42,6,41.1,6,40z"/><path d="M14.814,24.001c0,0.628,0.312,1.211,0.835,1.56l11.436,7.624	c0.314,0.209,0.676,0.315,1.04,0.315c0.303,0,0.606-0.073,0.884-0.222C29.62,32.951,30,32.317,30,31.624V16.376	c0-0.693-0.38-1.326-0.991-1.653c-0.611-0.328-1.348-0.292-1.925,0.093L15.648,22.44C15.126,22.789,14.813,23.372,14.814,24.001z" opacity=".05"/><path d="M29.5,16.744v14.399c0,1.975-1.463,2.103-2.364,1.499	c0,0-10.674-7.094-11.045-7.364c-0.491-0.358-0.715-0.759-0.715-1.334s0.464-1.018,1.153-1.513l10.79-7.194	C27.916,14.839,29.5,14.739,29.5,16.744z" opacity=".07"/><path fill="#fff" d="M27.553,32.344l-11.352-7.568c-0.553-0.369-0.553-1.181,0-1.549l11.352-7.568	C28.172,15.246,29,15.69,29,16.433v15.135C29,32.312,28.172,32.755,27.553,32.344z"/></svg>