<svg xmlns="http://www.w3.org/2000/svg" viewBox="0 0 48 48"><radialGradient id="0nkApikEL5bxyYljsA08xa" cx="9.646" cy="11.755" r="38.569" gradientUnits="userSpaceOnUse"><stop offset="0" stop-color="#a6f2ff"/><stop offset="1" stop-color="#0083c4"/></radialGradient><path fill="url(#0nkApikEL5bxyYljsA08xa)" d="M24,4C12.954,4,4,12.954,4,24s8.954,20,20,20s20-8.954,20-20S35.046,4,24,4z"/><radialGradient id="0nkApikEL5bxyYljsA08xb" cx="3.678" cy="-3.441" r="5.386" gradientTransform="translate(18.525 18.188) scale(.9625)" gradientUnits="userSpaceOnUse"><stop offset="0" stop-color="#60b5e0" stop-opacity="0"/><stop offset=".562" stop-color="#3c99c8" stop-opacity=".562"/><stop offset="1" stop-color="#2586b8"/></radialGradient><path fill="url(#0nkApikEL5bxyYljsA08xb)" d="M21,10c-1.657,0-3,1.343-3,3s1.343,3,3,3s3-1.343,3-3S22.657,10,21,10z"/><radialGradient id="0nkApikEL5bxyYljsA08xc" cx="13.71" cy="25.25" r="3.456" gradientUnits="userSpaceOnUse"><stop offset="0" stop-color="#60b5e0" stop-opacity="0"/><stop offset=".562" stop-color="#3c99c8" stop-opacity=".562"/><stop offset="1" stop-color="#2586b8"/></radialGradient><path fill="url(#0nkApikEL5bxyYljsA08xc)" d="M13,22c-1.105,0-2,0.895-2,2s0.895,2,2,2s2-0.895,2-2S14.105,22,13,22z"/><radialGradient id="0nkApikEL5bxyYljsA08xd" cx="37.033" cy="22.438" r="2.592" gradientUnits="userSpaceOnUse"><stop offset="0" stop-color="#60b5e0" stop-opacity="0"/><stop offset=".327" stop-color="#48a2d0" stop-opacity=".327"/><stop offset=".747" stop-color="#2e8dbe" stop-opacity=".747"/><stop offset="1" stop-color="#2586b8"/></radialGradient><path fill="url(#0nkApikEL5bxyYljsA08xd)" d="M36.5,20c-0.828,0-1.5,0.672-1.5,1.5s0.672,1.5,1.5,1.5s1.5-0.672,1.5-1.5S37.328,20,36.5,20z"/></svg>