<svg xmlns="http://www.w3.org/2000/svg" viewBox="0 0 48 48"><polygon fill="#c98e00" points="26.211,41.683 40.68,33.693 38.54,29.191 26,35"/><circle cx="39.5" cy="31.5" r="2.5" fill="#c98e00"/><path fill="#50e6ff" d="M39,5v31h-7V5c0-0.552,0.448-1,1-1h5C38.552,4,39,4.448,39,5z"/><path fill="#35c1f1" d="M32,9v27h-7V10c0-0.552,0.448-1,1-1H32z"/><path fill="#199be2" d="M25,14v22h-7V15c0-0.552,0.448-1,1-1H25z"/><linearGradient id="GOD83QX4JGci7GVQhvnAGa" x1="3" x2="45" y1="-595" y2="-595" gradientTransform="matrix(1 0 0 -1 0 -562)" gradientUnits="userSpaceOnUse"><stop offset="0" stop-color="#ffcf54"/><stop offset=".261" stop-color="#fdcb4d"/><stop offset=".639" stop-color="#f7c13a"/><stop offset="1" stop-color="#f0b421"/></linearGradient><path fill="url(#GOD83QX4JGci7GVQhvnAGa)" d="M45,32.5c0-1.381-1.119-2.5-2.5-2.5c-0.34,0-0.664,0.069-0.959,0.192l-0.001-0.001	l-0.011,0.005c-0.002,0.001-0.004,0.002-0.006,0.003L29,36l-1.5-1c1.381,0,2.5-1.119,2.5-2.5c0-0.93-0.514-1.732-1.267-2.163	l0.004-0.016l-13.651-6.866h-0.025C14.431,23.169,13.737,23,13,23c-0.718,0-1.397,0.157-2.015,0.43h-0.022L3,27v13l8.09-3.718	l15.911,6.508h0.001C27.309,42.924,27.645,43,28,43c0.435,0,0.838-0.121,1.195-0.317l0.017-0.001l14.469-7.989l-0.001-0.002	C44.462,34.269,45,33.452,45,32.5z"/><circle cx="27.5" cy="32.5" r="1.5" fill="#ffde87"/><linearGradient id="GOD83QX4JGci7GVQhvnAGb" x1="22.337" x2="24.123" y1="-598.368" y2="-595.288" gradientTransform="matrix(1 0 0 -1 0 -562)" gradientUnits="userSpaceOnUse"><stop offset="0" stop-color="#f0b421" stop-opacity="0"/><stop offset=".512" stop-color="#e9ab12" stop-opacity=".512"/><stop offset="1" stop-color="#e09f00"/></linearGradient><path fill="url(#GOD83QX4JGci7GVQhvnAGb)" d="M29,36l-1.489-0.998c-1.255-0.06-2.242-0.468-10.511-3.513V35l11.551,4.734	C28.551,39.734,27.733,37.451,29,36z"/></svg>