<svg xmlns="http://www.w3.org/2000/svg" viewBox="0 0 48 48"><rect width="6" height="2" x="3.995" y="17.049" fill="#0078d4"/><linearGradient id="FuTjlYI_OUABgGxupeIIPa" x1="6.759" x2="9.552" y1="16.759" y2="19.552" gradientTransform="translate(-4.022 .06)" gradientUnits="userSpaceOnUse"><stop offset="0" stop-color="#33d7f0"/><stop offset="1" stop-color="#0083c4"/></linearGradient><circle cx="3.995" cy="18.051" r="2" fill="url(#FuTjlYI_OUABgGxupeIIPa)"/><rect width="6" height="2" x="4.006" y="29.049" fill="#0078d4"/><linearGradient id="FuTjlYI_OUABgGxupeIIPb" x1="6.759" x2="9.552" y1="28.759" y2="31.552" gradientTransform="translate(-4.022 .06)" gradientUnits="userSpaceOnUse"><stop offset="0" stop-color="#33d7f0"/><stop offset="1" stop-color="#0083c4"/></linearGradient><circle cx="4.006" cy="30.051" r="2" fill="url(#FuTjlYI_OUABgGxupeIIPb)"/><rect width="6" height="2" x="38" y="23.016" fill="#0078d4"/><path fill="#199be2" d="M39.929,23.169L9.511,4.198C9.202,4.005,8.814,3.996,8.497,4.173C8.179,4.35,7.982,4.684,7.982,5.048	l0.037,38c0,0.364,0.198,0.698,0.516,0.874c0.151,0.084,0.318,0.125,0.485,0.125c0.184,0,0.368-0.051,0.53-0.152l30.381-19.029	c0.292-0.183,0.47-0.504,0.469-0.849S40.222,23.352,39.929,23.169z"/><path fill="#e1f5fe" d="M12.505,29.043l5-0.005c0.276,0,0.5,0.223,0.5,0.5l0.001,1c0,0.276-0.223,0.5-0.5,0.5l-5,0.005	c-0.276,0-0.5-0.223-0.5-0.5l-0.001-1C12.006,29.268,12.229,29.044,12.505,29.043z"/><path fill="#e1f5fe" d="M12.494,17.043l5-0.005c0.276,0,0.5,0.223,0.5,0.5l0.001,1c0,0.276-0.223,0.5-0.5,0.5l-5,0.005	c-0.276,0-0.5-0.223-0.5-0.5l-0.001-1C11.994,17.268,12.218,17.044,12.494,17.043z"/><path fill="#e1f5fe" d="M15.992,15.54l0.005,5c0,0.276-0.223,0.5-0.5,0.5l-1,0.001c-0.276,0-0.5-0.223-0.5-0.5l-0.005-5	c0-0.276,0.223-0.5,0.5-0.5l1-0.001C15.768,15.04,15.992,15.264,15.992,15.54z"/><linearGradient id="FuTjlYI_OUABgGxupeIIPc" x1="42.759" x2="45.552" y1="22.759" y2="25.552" gradientTransform="translate(-.022 .055)" gradientUnits="userSpaceOnUse"><stop offset="0" stop-color="#33d7f0"/><stop offset="1" stop-color="#0083c4"/></linearGradient><circle cx="44" cy="24.013" r="2" fill="url(#FuTjlYI_OUABgGxupeIIPc)"/></svg>