<svg xmlns="http://www.w3.org/2000/svg" viewBox="0 0 48 48"><linearGradient id="tHWU6XYAF4oOUL4UVV035a" x1="57.379" x2="59.754" y1="-7.234" y2="2.009" gradientTransform="matrix(-.8036 .8036 .9161 .9161 57.74 -31.89)" gradientUnits="userSpaceOnUse"><stop offset="0" stop-color="#fc6b44"/><stop offset=".018" stop-color="#fa6a43"/><stop offset=".42" stop-color="#dc5029"/><stop offset=".761" stop-color="#c94019"/><stop offset="1" stop-color="#c23a13"/></linearGradient><path fill="url(#tHWU6XYAF4oOUL4UVV035a)" d="M3.42,15.456c2.024,2.024,5.463,1.865,7.682-0.354s2.377-5.658,0.354-7.682	S5.993,5.555,3.774,7.774S1.396,13.432,3.42,15.456z"/><ellipse cx="9.568" cy="13.604" fill="#37c6d0" rx="4.925" ry="2.707" transform="rotate(-45.001 9.568 13.604)"/><linearGradient id="tHWU6XYAF4oOUL4UVV035b" x1="41.512" x2="43.886" y1="6.684" y2="15.927" gradientTransform="matrix(.8036 .8036 -.9161 .9161 15.76 -31.89)" gradientUnits="userSpaceOnUse"><stop offset="0" stop-color="#fc6b44"/><stop offset=".018" stop-color="#fa6a43"/><stop offset=".42" stop-color="#dc5029"/><stop offset=".761" stop-color="#c94019"/><stop offset="1" stop-color="#c23a13"/></linearGradient><path fill="url(#tHWU6XYAF4oOUL4UVV035b)" d="M44.58,15.456c-2.024,2.024-5.463,1.865-7.682-0.354c-2.219-2.219-2.377-5.658-0.354-7.682	s5.463-1.865,7.682,0.354S46.604,13.432,44.58,15.456z"/><ellipse cx="38.432" cy="13.604" fill="#37c6d0" rx="2.707" ry="4.925" transform="rotate(-45.001 38.432 13.604)"/><path fill="#d97218" d="M36.5,32.75c0,1.519,1.231,2.75,2.75,2.75S42,33.801,42,32.282C42,30.763,40.769,30,39.25,30	S36.5,31.231,36.5,32.75z"/><path fill="#d97218" d="M11.5,32.75c0,1.519-1.231,2.75-2.75,2.75S6,33.801,6,32.282C6,30.763,7.231,30,8.75,30	S11.5,31.231,11.5,32.75z"/><radialGradient id="tHWU6XYAF4oOUL4UVV035c" cx="22.029" cy="18.262" r="30.069" gradientUnits="userSpaceOnUse"><stop offset="0" stop-color="#eba84b"/><stop offset=".277" stop-color="#eaa447"/><stop offset=".545" stop-color="#e6993c"/><stop offset=".808" stop-color="#df852a"/><stop offset="1" stop-color="#d97218"/></radialGradient><path fill="url(#tHWU6XYAF4oOUL4UVV035c)" d="M6.787,19l0.796,14.44C7.817,37.681,11.324,41,15.571,41h16.858	c4.247,0,7.754-3.319,7.988-7.56L41.213,19L28,17L6.787,19z"/><linearGradient id="tHWU6XYAF4oOUL4UVV035d" x1="20.42" x2="28.257" y1="9.046" y2="39.548" gradientUnits="userSpaceOnUse"><stop offset="0" stop-color="#fc6b44"/><stop offset=".018" stop-color="#fa6a43"/><stop offset=".42" stop-color="#dc5029"/><stop offset=".761" stop-color="#c94019"/><stop offset="1" stop-color="#c23a13"/></linearGradient><path fill="url(#tHWU6XYAF4oOUL4UVV035d)" d="M11,20c0,0,4,1,13,1s13-1,13-1l3.622,9.778c1.11-2.06,1.748-4.352,1.748-6.778	c0-8.837-8.225-16-18.37-16S5.63,14.163,5.63,23c0,2.427,0.638,4.718,1.748,6.778L11,20z"/><path fill="#c9781c" d="M34.5,23.626c0,0-2.5,0.874-4.75,0.874c-0.414,0-0.75-0.336-0.75-0.75S29.336,23,29.75,23	S34.5,23.626,34.5,23.626z"/><circle cx="33" cy="30.5" r="5.5"/><radialGradient id="tHWU6XYAF4oOUL4UVV035e" cx="32.157" cy="27.817" r="8.216" gradientUnits="userSpaceOnUse"><stop offset="0" stop-color="#fcfcfc"/><stop offset=".322" stop-color="#f9f9fa"/><stop offset=".557" stop-color="#f0f1f2"/><stop offset=".764" stop-color="#e0e3e5"/><stop offset=".955" stop-color="#cacfd2"/><stop offset="1" stop-color="#c3c9cd"/></radialGradient><circle cx="33" cy="30.5" r="5.5" fill="url(#tHWU6XYAF4oOUL4UVV035e)"/><radialGradient id="tHWU6XYAF4oOUL4UVV035f" cx="14.156" cy="27.817" r="8.216" gradientUnits="userSpaceOnUse"><stop offset="0" stop-color="#fcfcfc"/><stop offset=".322" stop-color="#f9f9fa"/><stop offset=".557" stop-color="#f0f1f2"/><stop offset=".764" stop-color="#e0e3e5"/><stop offset=".955" stop-color="#cacfd2"/><stop offset="1" stop-color="#c3c9cd"/></radialGradient><circle cx="15" cy="30.5" r="5.5" fill="url(#tHWU6XYAF4oOUL4UVV035f)"/><linearGradient id="tHWU6XYAF4oOUL4UVV035g" x1="31.634" x2="34.403" y1="25.494" y2="33.613" gradientUnits="userSpaceOnUse"><stop offset="0" stop-color="#33d7f0"/><stop offset="1" stop-color="#0083c4"/></linearGradient><circle cx="33" cy="29.5" r="4.5" fill="url(#tHWU6XYAF4oOUL4UVV035g)"/><linearGradient id="tHWU6XYAF4oOUL4UVV035h" x1="31.463" x2="34.465" y1="25.256" y2="31.592" gradientUnits="userSpaceOnUse"><stop offset="0" stop-color="#4c4c4c"/><stop offset="1" stop-color="#343434"/></linearGradient><circle cx="33" cy="28.5" r="3.5" fill="url(#tHWU6XYAF4oOUL4UVV035h)"/><path fill="#c9781c" d="M13.5,23.626c0,0,2.5,0.874,4.75,0.874c0.414,0,0.75-0.336,0.75-0.75S18.664,23,18.25,23	S13.5,23.626,13.5,23.626z"/><linearGradient id="tHWU6XYAF4oOUL4UVV035i" x1="13.606" x2="16.375" y1="25.127" y2="33.813" gradientUnits="userSpaceOnUse"><stop offset="0" stop-color="#33d7f0"/><stop offset="1" stop-color="#0083c4"/></linearGradient><circle cx="15" cy="29.5" r="4.5" fill="url(#tHWU6XYAF4oOUL4UVV035i)"/><linearGradient id="tHWU6XYAF4oOUL4UVV035j" x1="13.688" x2="16.261" y1="25.269" y2="31.605" gradientUnits="userSpaceOnUse"><stop offset="0" stop-color="#4c4c4c"/><stop offset="1" stop-color="#343434"/></linearGradient><circle cx="15" cy="28.5" r="3.5" fill="url(#tHWU6XYAF4oOUL4UVV035j)"/><circle cx="32" cy="28" r="1" fill="#fff"/><circle cx="14" cy="28" r="1" fill="#fff"/><linearGradient id="tHWU6XYAF4oOUL4UVV035k" x1="24" x2="24" y1="35.003" y2="36.9" gradientUnits="userSpaceOnUse"><stop offset="0" stop-color="#ec3745"/><stop offset="1" stop-color="#e52030"/></linearGradient><path fill="url(#tHWU6XYAF4oOUL4UVV035k)" d="M26,35.5c0,0-0.895,1.5-2,1.5s-2-1.5-2-1.5s0.895-0.5,2-0.5S26,35.5,26,35.5z"/><path fill="#f44f5a" d="M26,35.5h-4c0,0,0.895-1.5,2-1.5S26,35.5,26,35.5z"/></svg>