<svg xmlns="http://www.w3.org/2000/svg" viewBox="0 0 48 48"><path fill="#3079d6" d="M22.882,11.706h-1.118c-0.617,0-1.118-0.5-1.118-1.118V9.471C20.647,7.002,22.649,5,25.118,5h1.118 c0.617,0,1.118,0.5,1.118,1.118v0.534c1.118,0.559,0,4.774-2.235,4.456C24.46,11.488,23.697,11.706,22.882,11.706z"/><path fill="#42a4ed" d="M19.586,12.508l-1.622,0.527c-0.525,0.171-1.089-0.117-1.26-0.642l-0.527-1.622 c-0.683-2.101,0.467-4.358,2.568-5.04l1.622-0.527c0.525-0.171,1.089,0.117,1.26,0.642l0.527,1.622 C22.836,9.568,21.687,11.825,19.586,12.508z"/><path fill="#3079d6" d="M16.25,14.434l-1.38,1.003c-0.447,0.325-1.072,0.226-1.397-0.221l-1.003-1.38 c-1.298-1.787-0.902-4.289,0.885-5.587l1.38-1.003c0.447-0.325,1.072-0.226,1.397,0.221l1.003,1.38 C18.434,10.634,18.037,13.136,16.25,14.434z"/><path fill="#42a4ed" d="M13.674,17.297l-1.003,1.38c-0.325,0.447-0.95,0.546-1.397,0.221l-1.38-1.003 c-1.787-1.298-2.183-3.8-0.885-5.587l1.003-1.38c0.325-0.447,0.95-0.546,1.397-0.221l1.38,1.003 C14.576,13.008,14.972,15.51,13.674,17.297z"/><path fill="#3079d6" d="M12.108,20.816l-0.527,1.622c-0.171,0.525-0.735,0.813-1.26,0.642l-1.622-0.527 c-2.101-0.683-3.251-2.939-2.568-5.04l0.527-1.622c0.171-0.525,0.735-0.813,1.26-0.642l1.622,0.527 C11.641,16.459,12.79,18.715,12.108,20.816z"/><path fill="#42a4ed" d="M11.706,24.647v1.706c0,0.552-0.448,1-1,1H9c-2.209,0-4-1.791-4-4v-1.706c0-0.552,0.448-1,1-1h1.706 C9.915,20.647,11.706,22.438,11.706,24.647z"/><path fill="#3079d6" d="M12.508,28.414l0.527,1.622c0.171,0.525-0.117,1.089-0.642,1.26l-1.622,0.527 c-2.101,0.683-4.358-0.467-5.04-2.568l-0.527-1.622c-0.171-0.525,0.117-1.089,0.642-1.26l1.622-0.527 C9.568,25.164,11.825,26.313,12.508,28.414z"/><path fill="#42a4ed" d="M14.434,31.75l1.003,1.38c0.325,0.447,0.226,1.072-0.221,1.397l-1.38,1.003 c-1.787,1.299-4.289,0.902-5.587-0.885l-1.003-1.38c-0.325-0.447-0.226-1.072,0.221-1.397l1.38-1.003 C10.634,29.566,13.136,29.963,14.434,31.75z"/><path fill="#3079d6" d="M17.297,34.326l1.38,1.003c0.447,0.325,0.546,0.95,0.221,1.397l-1.003,1.38 c-1.298,1.787-3.8,2.183-5.587,0.885l-1.38-1.003c-0.447-0.325-0.546-0.95-0.221-1.397l1.003-1.38 C13.008,33.424,15.51,33.028,17.297,34.326z"/><path fill="#42a4ed" d="M20.816,35.892l1.622,0.527c0.525,0.171,0.813,0.735,0.642,1.26l-0.527,1.622 c-0.683,2.101-2.939,3.251-5.04,2.568l-1.622-0.527c-0.525-0.171-0.813-0.735-0.642-1.26l0.527-1.622 C16.459,36.359,18.715,35.21,20.816,35.892z"/><path fill="#3079d6" d="M24.647,36.294h1.706c0.552,0,1,0.448,1,1V39c0,2.209-1.791,4-4,4h-1.706c-0.552,0-1-0.448-1-1 v-1.706C20.647,38.085,22.438,36.294,24.647,36.294z"/><path fill="#42a4ed" d="M28.414,35.492l1.622-0.527c0.525-0.171,1.089,0.117,1.26,0.642l0.527,1.622 c0.683,2.101-0.467,4.358-2.568,5.04l-1.622,0.527c-0.525,0.171-1.089-0.117-1.26-0.642l-0.527-1.622 C25.164,38.432,26.313,36.175,28.414,35.492z"/><path fill="#3079d6" d="M31.75,33.566l1.38-1.003c0.447-0.325,1.072-0.226,1.397,0.221l1.003,1.38 c1.299,1.787,0.902,4.289-0.885,5.587l-1.38,1.003c-0.447,0.325-1.072,0.226-1.397-0.221l-1.003-1.38 C29.566,37.366,29.963,34.864,31.75,33.566z"/><path fill="#42a4ed" d="M34.326,30.703l1.003-1.38c0.325-0.447,0.95-0.546,1.397-0.221l1.38,1.003 c1.787,1.298,2.183,3.8,0.885,5.587l-1.003,1.38c-0.325,0.447-0.95,0.546-1.397,0.221l-1.38-1.003 C33.424,34.992,33.028,32.49,34.326,30.703z"/><path fill="#3079d6" d="M35.892,27.184l0.527-1.622c0.171-0.525,0.735-0.813,1.26-0.642l1.622,0.527 c2.101,0.683,3.251,2.939,2.568,5.04l-0.527,1.622c-0.171,0.525-0.735,0.813-1.26,0.642l-1.622-0.527 C36.359,31.541,35.21,29.285,35.892,27.184z"/><path fill="#42a4ed" d="M36.294,23.353v-1.706c0-0.552,0.448-1,1-1H39c2.209,0,4,1.791,4,4v1.706c0,0.552-0.448,1-1,1 h-1.706C38.085,27.353,36.294,25.562,36.294,23.353z"/><path fill="#3079d6" d="M35.492,19.586l-0.527-1.622c-0.171-0.525,0.117-1.089,0.642-1.26l1.622-0.527 c2.101-0.683,4.358,0.467,5.04,2.568l0.527,1.622c0.171,0.525-0.117,1.089-0.642,1.26l-1.622,0.527 C38.432,22.836,36.175,21.687,35.492,19.586z"/><path fill="#42a4ed" d="M33.566,16.25l-1.003-1.38c-0.325-0.447-0.226-1.072,0.221-1.397l1.38-1.003 c1.787-1.298,4.289-0.902,5.587,0.885l1.003,1.38c0.325,0.447,0.226,1.072-0.221,1.397l-1.38,1.003 C37.366,18.434,34.864,18.037,33.566,16.25z"/><path fill="#3079d6" d="M30.703,13.674l-1.38-1.003c-0.447-0.325-0.546-0.95-0.221-1.397l1.003-1.38 c1.298-1.787,3.8-2.183,5.587-0.885l1.38,1.003c0.447,0.325,0.546,0.95,0.221,1.397l-1.003,1.38 C34.992,14.576,32.49,14.972,30.703,13.674z"/><path fill="#42a4ed" d="M31.997,6.621l-1.063-0.345c-1.243-0.404-2.528-0.221-3.581,0.377v0.583 c0,1.672-0.929,3.113-2.288,3.879c0.134,0.227,0.338,0.414,0.609,0.502l1.063,0.345c2.348,0.763,4.87-0.522,5.633-2.87l0.345-1.063 C32.905,7.442,32.584,6.811,31.997,6.621z"/><linearGradient id="4lEWmFypf03-11x2TvcyZa" x1="17.19" x2="31.525" y1="5.068" y2="13.344" gradientUnits="userSpaceOnUse"><stop offset="0" stop-color="#ffd869"/><stop offset="1" stop-color="#fec52b"/></linearGradient><path fill="url(#4lEWmFypf03-11x2TvcyZa)" d="M29,14H19c-1.105,0-2-0.895-2-2V6c0-1.105,0.895-2,2-2h10c1.105,0,2,0.895,2,2v6	C31,13.105,30.105,14,29,14z"/><path fill="#eba600" d="M19,11V7c0-0.552,0.448-1,1-1h8c0.552,0,1,0.448,1,1v4c0,0.552-0.448,1-1,1h-8	C19.448,12,19,11.552,19,11z"/><g><path d="M31.5,6.46L31,6.3V12c0,0.56-0.24,1.08-0.62,1.44l0.32,0.23c0.03,0.02,0.07,0.05,0.1,0.07c0.14,0.1,0.29,0.18,0.44,0.25 C31.71,13.46,32,12.76,32,12V6.62L31.5,6.46z M17,6.88c-0.19,0.22-0.36,0.46-0.5,0.71c-0.05,0.07-0.08,0.15-0.12,0.22l-0.25-0.34 C16.09,7.41,16.05,7.36,16,7.32V12c0,0.75,0.29,1.45,0.75,1.98c0.13-0.12,0.23-0.25,0.33-0.38c0.11-0.14,0.2-0.29,0.28-0.45 C17.13,12.82,17,12.43,17,12V6.88z" opacity=".05"/><path d="M31,6.3V12c0,0.56-0.24,1.08-0.62,1.44l0.32,0.23c0.03,0.02,0.07,0.05,0.1,0.07c0.43-0.45,0.7-1.06,0.7-1.74V6.46L31,6.3z M17,6.88c-0.19,0.22-0.36,0.46-0.5,0.71V12c0,0.61,0.22,1.17,0.58,1.6c0.11-0.14,0.2-0.29,0.28-0.45C17.13,12.82,17,12.43,17,12 V6.88z" opacity=".07"/></g></svg>