<svg xmlns="http://www.w3.org/2000/svg" viewBox="0 0 48 48"><linearGradient id="ow1WSzeZXGWsRd_nsF6l9a" x1="24" x2="24" y1="14.261" y2="40.42" gradientUnits="userSpaceOnUse"><stop offset="0" stop-color="#f44f5a"/><stop offset=".443" stop-color="#ee3d4a"/><stop offset="1" stop-color="#e52030"/></linearGradient><path fill="url(#ow1WSzeZXGWsRd_nsF6l9a)" d="M47,39H1v-6.528c0-0.31,0.072-0.617,0.211-0.894l6.073-12.147	c0.459-0.919,1.254-1.625,2.22-1.974l12.459-4.494h4.071l12.459,4.494c0.966,0.348,1.761,1.055,2.22,1.974l6.073,12.147	C46.928,31.855,47,32.162,47,32.472V39z"/><path fill="#b31523" d="M45,39h-9v-2h8.5c0.276,0,0.5,0.224,0.5,0.5V39z"/><path fill="#b31523" d="M44,37.25h-8V35h7.5c0.276,0,0.5,0.224,0.5,0.5V37.25z"/><path fill="#b31523" d="M43,35.25h-7V33h6.5c0.276,0,0.5,0.224,0.5,0.5V35.25z"/><path fill="#b31523" d="M42,33.25h-6V31h5.5c0.276,0,0.5,0.224,0.5,0.5V33.25z"/><path fill="#b31523" d="M41,31.25h-5V29h4.5c0.276,0,0.5,0.224,0.5,0.5V31.25z"/><path fill="#b31523" d="M3,39h9v-2H3.5C3.224,37,3,37.224,3,37.5V39z"/><path fill="#b31523" d="M4,37.25h8V35H4.5C4.224,35,4,35.224,4,35.5V37.25z"/><path fill="#b31523" d="M5,35.25h7V33H5.5C5.224,33,5,33.224,5,33.5V35.25z"/><path fill="#b31523" d="M6,33.25h6V31H6.5C6.224,31,6,31.224,6,31.5V33.25z"/><path fill="#b31523" d="M7,31.25h5V29H7.5C7.224,29,7,29.224,7,29.5V31.25z"/><linearGradient id="ow1WSzeZXGWsRd_nsF6l9b" x1="24" x2="24" y1="25.609" y2="46.024" gradientUnits="userSpaceOnUse"><stop offset="0" stop-color="#f44f5a"/><stop offset=".443" stop-color="#ee3d4a"/><stop offset="1" stop-color="#e52030"/></linearGradient><rect width="28" height="15" x="10" y="24" fill="url(#ow1WSzeZXGWsRd_nsF6l9b)"/><path fill="#b31523" d="M24,13L24,13L24,13L24,13L24,13c-4,1.25-16,6.354-16,13.456c0,7.102,11.2,4.485,16,1.495	c4.8,2.99,16,5.607,16-1.495C40,19.354,28,14.25,24,13z"/><path fill="#b31523" d="M24,15c-1.5,0-10,4.25-10,9s7,3,10,1c3,2,10,3.75,10-1S25.5,15,24,15z"/><path fill="#bfc8d1" d="M17.522,28.029c-0.972,0-1.875-0.167-2.613-0.562C14.038,27.001,13,26.021,13,24	c0-5.386,8.911-10,11-10c0.553,0,1,0.447,1,1v10c0,0.334-0.167,0.646-0.445,0.832C22.855,26.965,19.976,28.029,17.522,28.029z M23,16.294c-2.479,0.994-8,4.354-8,7.706c0,1.118,0.486,1.508,0.853,1.704c1.543,0.826,4.948,0.021,7.147-1.259V16.294z"/><path fill="#bfc8d1" d="M30.478,28.029c-2.454,0-5.333-1.064-7.032-2.197C23.167,25.646,23,25.334,23,25V15	c0-0.553,0.447-1,1-1c2.089,0,11,4.614,11,10c0,2.021-1.038,3.001-1.909,3.467C32.354,27.862,31.448,28.029,30.478,28.029z M25,24.445c2.197,1.28,5.604,2.085,7.147,1.259C32.514,25.508,33,25.118,33,24c0-3.352-5.521-6.712-8-7.706V24.445z"/><path fill="#bfc8d1" d="M34.315,32.004c-3.744,0-8.175-1.541-10.844-3.204C23.178,28.617,23,28.297,23,27.951V13	c0-0.318,0.151-0.617,0.407-0.806s0.586-0.246,0.891-0.148C24.465,12.098,41,17.37,41,26.456c0,2.672-1.384,4.002-2.545,4.646	C37.311,31.737,35.872,32.004,34.315,32.004z M25,27.382c3.402,1.923,9.605,3.57,12.483,1.972C38.504,28.787,39,27.84,39,26.456	c0-5.71-9.3-10.317-14-12.056V27.382z"/><path fill="#bfc8d1" d="M13.685,32.004c-1.558,0-2.995-0.267-4.14-0.901C8.384,30.458,7,29.128,7,26.456	c0-9.086,16.535-14.358,16.702-14.41c0.305-0.098,0.635-0.04,0.891,0.148S25,12.682,25,13v14.951c0,0.346-0.178,0.666-0.472,0.849	C21.859,30.463,17.429,32.004,13.685,32.004z M23,14.4c-4.7,1.738-14,6.346-14,12.056c0,1.384,0.496,2.331,1.517,2.897	c2.873,1.6,9.081-0.049,12.483-1.972V14.4z"/><path fill="#333" d="M21,39h-5v-3.5c0-1.381,1.119-2.5,2.5-2.5h0c1.381,0,2.5,1.119,2.5,2.5V39z"/><path fill="#333" d="M32,39h-5v-3.5c0-1.381,1.119-2.5,2.5-2.5h0c1.381,0,2.5,1.119,2.5,2.5V39z"/><path fill="#eb6773" d="M25.962,40h-3.925c-0.567,0-1.02-0.471-0.999-1.037l0.926-26C21.984,12.425,22.426,12,22.964,12	h2.073c0.538,0,0.979,0.425,0.999,0.963l0.926,26C26.983,39.529,26.529,40,25.962,40z"/><g><path d="M27.05,13.33l-0.5-0.19l-0.51-0.18l0.92,26V39h1v-0.07L27.05,13.33z M20.96,13.32l-0.92,25.61V39h1v-0.04l0.92-26 l-0.51,0.18L20.96,13.32z" opacity=".05"/><path d="M26.55,13.14l-0.51-0.18l0.92,26V39h0.5v-0.06L26.55,13.14z M20.54,38.95V39h0.5v-0.04l0.92-26l-0.51,0.18L20.54,38.95z" opacity=".07"/></g><g><path d="M35.13,16.24l-2.01-0.72l-3.16-1.14C34.8,16.76,41,20.89,41,26.46c0,2.67-1.38,4-2.54,4.64 c-0.15,0.08-0.31,0.14-0.46,0.21V39h1v-7.06c1.94-1.1,3-3.04,3-5.48C42,22.21,38.79,18.77,35.13,16.24z M12.87,16.24 C9.21,18.77,6,22.21,6,26.46c0,2.44,1.06,4.38,3,5.48V39h1v-7.69c-0.15-0.07-0.31-0.13-0.46-0.21C8.38,30.46,7,29.13,7,26.46 c0-5.57,6.2-9.7,11.04-12.08l-3.16,1.14L12.87,16.24z" opacity=".05"/><path d="M33.12,15.52l-3.16-1.14C34.8,16.76,41,20.89,41,26.46c0,2.67-1.38,4-2.54,4.64c-0.15,0.08-0.31,0.14-0.46,0.21V39h0.5 v-7.36c0.07-0.03,0.13-0.06,0.2-0.1c1.28-0.71,2.8-2.17,2.8-5.08C41.5,21.74,37.33,18.05,33.12,15.52z M6.5,26.46 c0,2.91,1.52,4.37,2.8,5.08c0.07,0.04,0.13,0.07,0.2,0.1V39H10v-7.69c-0.15-0.07-0.31-0.13-0.46-0.21C8.38,30.46,7,29.13,7,26.46 c0-5.57,6.2-9.7,11.04-12.08l-3.16,1.14C10.67,18.05,6.5,21.74,6.5,26.46z" opacity=".07"/></g></svg>