<svg xmlns="http://www.w3.org/2000/svg" viewBox="0 0 48 48"><path fill="#50e6ff" d="M4,38V14h40v24c0,1.1-0.9,2-2,2H6C4.9,40,4,39.1,4,38z"/><linearGradient id="N7VkTovsxksL~q_swA0VLa" x1="4.614" x2="42.936" y1="-297.741" y2="-305.533" gradientTransform="matrix(1 0 0 -1 0 -290)" gradientUnits="userSpaceOnUse"><stop offset="0" stop-color="#0077d2"/><stop offset="1" stop-color="#0b59a2"/></linearGradient><path fill="url(#N7VkTovsxksL~q_swA0VLa)" d="M44,10v5H4v-5c0-1.1,0.9-2,2-2h36C43.1,8,44,8.9,44,10z"/><linearGradient id="N7VkTovsxksL~q_swA0VLb" x1="16" x2="42" y1="-301.5" y2="-301.5" gradientTransform="matrix(1 0 0 -1 0 -290)" gradientUnits="userSpaceOnUse"><stop offset="0" stop-color="#7dd8f3"/><stop offset="1" stop-color="#45b0d0"/></linearGradient><path fill="url(#N7VkTovsxksL~q_swA0VLb)" d="M16.5,13h25c0.276,0,0.5-0.224,0.5-0.5v-2c0-0.276-0.224-0.5-0.5-0.5h-25	c-0.276,0-0.5,0.224-0.5,0.5v2C16,12.776,16.224,13,16.5,13z"/><linearGradient id="N7VkTovsxksL~q_swA0VLc" x1="6.751" x2="8.032" y1="-300.416" y2="-302.269" gradientTransform="matrix(1 0 0 -1 0 -290)" gradientUnits="userSpaceOnUse"><stop offset="0" stop-color="#75daff"/><stop offset="1" stop-color="#49bef1"/></linearGradient><circle cx="7.5" cy="11.5" r="1.5" fill="url(#N7VkTovsxksL~q_swA0VLc)"/><linearGradient id="N7VkTovsxksL~q_swA0VLd" x1="11.751" x2="13.032" y1="-300.416" y2="-302.269" gradientTransform="matrix(1 0 0 -1 0 -290)" gradientUnits="userSpaceOnUse"><stop offset="0" stop-color="#75daff"/><stop offset="1" stop-color="#49bef1"/></linearGradient><circle cx="12.5" cy="11.5" r="1.5" fill="url(#N7VkTovsxksL~q_swA0VLd)"/><path d="M24,37c-5.238,0-9.5-4.262-9.5-9.5S18.762,18,24,18s9.5,4.262,9.5,9.5	S29.238,37,24,37z M23.356,31.953C23.569,31.984,23.784,32,24,32c2.481,0,4.5-2.019,4.5-4.5c0-0.376-0.047-0.747-0.14-1.107	L23.356,31.953z M24,23c-2.481,0-4.5,2.019-4.5,4.5c0,0.376,0.047,0.747,0.14,1.107l5.005-5.561C24.432,23.016,24.217,23,24,23z" opacity=".05"/><path d="M24,36.5c-4.962,0-9-4.037-9-9c0-4.962,4.038-9,9-9s9,4.038,9,9	C33,32.463,28.962,36.5,24,36.5z M22.424,32.241C22.933,32.413,23.461,32.5,24,32.5c2.757,0,5-2.243,5-5	c0-0.713-0.155-1.416-0.452-2.064L22.424,32.241z M24,22.5c-2.757,0-5,2.243-5,5c0,0.713,0.155,1.416,0.452,2.064l6.125-6.805	C25.067,22.587,24.54,22.5,24,22.5z" opacity=".07"/><linearGradient id="N7VkTovsxksL~q_swA0VLe" x1="17.254" x2="30.227" y1="31.984" y2="9.899" gradientTransform="matrix(1 0 0 -1 0 48)" gradientUnits="userSpaceOnUse"><stop offset="0" stop-color="#f44f5a"/><stop offset=".443" stop-color="#ee3d4a"/><stop offset="1" stop-color="#e52030"/></linearGradient><path fill="url(#N7VkTovsxksL~q_swA0VLe)" d="M24,19c-4.687,0-8.5,3.813-8.5,8.5S19.313,36,24,36s8.5-3.813,8.5-8.5S28.687,19,24,19z M24,22c0.869,0,1.689,0.208,2.42,0.569l-7.07,7.855c-0.535-0.848-0.85-1.849-0.85-2.924C18.5,24.467,20.967,22,24,22z M24,33	c-0.869,0-1.689-0.208-2.42-0.569l7.07-7.856c0.535,0.848,0.85,1.849,0.85,2.924C29.5,30.533,27.033,33,24,33z"/></svg>