<svg xmlns="http://www.w3.org/2000/svg" viewBox="0 0 48 48"><path fill="#0883d9" d="M32,0c0,0-3.08,0.054-5.012,1.988C25.054,3.92,25,7,25,7s3.08-0.054,5.012-1.988	C31.946,3.08,32,0,32,0z"/><path fill="#0883d9" d="M30.4,15.487C29.242,11.372,27.534,9,24,9s-5.242,2.372-6.4,6.487	c-1.081,3.84-5.079,6.525-7.562,10.513h27.923C35.479,22.012,31.481,19.328,30.4,15.487z"/><path fill="#0370c8" d="M19.2,44c1.725,0,2.938-0.544,4.8-0.544S27.075,44,28.8,44C34.986,44,40,39.036,40,32.912	c0-2.789-0.847-4.999-2.038-6.912H10.038C8.847,27.914,8,30.124,8,32.912C8,39.036,13.014,44,19.2,44z"/></svg>