<svg xmlns="http://www.w3.org/2000/svg" viewBox="0 0 48 48"><rect width="32" height="2" x="8" y="8" fill="#199be2"/><path fill="#50e6ff" d="M44,18v24h-8V17h7C43.552,17,44,17.448,44,18z"/><path fill="#35c1f1" d="M36,17v25h-8V17H36z"/><path fill="#199be2" d="M28,17v25h-8V17H28z"/><path fill="#0078d4" d="M20,17v25h-8V17H20z"/><path fill="#0d62ab" d="M12,17v25H4V18c0-0.552,0.448-1,1-1H12z"/><circle cx="8" cy="9" r="2" fill="#50e6ff"/><circle cx="16" cy="9" r="2" fill="#50e6ff"/><circle cx="24" cy="9" r="2" fill="#50e6ff"/><circle cx="32" cy="9" r="2" fill="#50e6ff"/><path fill="#50e6ff" d="M43.384,8.585l-4.605-3.102C38.447,5.26,38,5.498,38,5.898v6.204c0,0.4,0.447,0.638,0.779,0.415	l4.605-3.102C43.679,9.217,43.679,8.783,43.384,8.585z"/></svg>