<svg xmlns="http://www.w3.org/2000/svg" viewBox="0 0 48 48"><radialGradient id="dZnKE-geswm2_YyYlQUTpa" cx="11.333" cy="82.866" r="12.599" gradientTransform="matrix(1.0278 0 0 -1 20.544 118)" gradientUnits="userSpaceOnUse"><stop offset="0" stop-color="#bd8af5"/><stop offset=".137" stop-color="#b88bf5"/><stop offset=".309" stop-color="#a88ff3"/><stop offset=".499" stop-color="#8f96f2"/><stop offset=".702" stop-color="#6b9eef"/><stop offset=".913" stop-color="#3eaaec"/><stop offset="1" stop-color="#29afea"/></radialGradient><path fill="url(#dZnKE-geswm2_YyYlQUTpa)" d="M35,35H13V13h22V35z"/><path fill="#fff" d="M16.5,40.108v1.5c0,0.414-0.336,0.75-0.75,0.75h-1.5c-0.414,0-0.75-0.336-0.75-0.75v-1.5	c0-0.414,0.336-0.75,0.75-0.75h1.5C16.164,39.358,16.5,39.694,16.5,40.108z"/><linearGradient id="dZnKE-geswm2_YyYlQUTpb" x1="-390.606" x2="-390.606" y1="3417.141" y2="3449.032" gradientTransform="matrix(0 1 1 0 -3413.888 400.106)" gradientUnits="userSpaceOnUse"><stop offset=".478" stop-color="#ad4bd5"/><stop offset=".868" stop-color="#9533c0"/><stop offset="1" stop-color="#912fbd"/></linearGradient><path fill="url(#dZnKE-geswm2_YyYlQUTpb)" d="M35,13H4c-0.552,0-1-0.449-1-1.001v-5C3,6.447,3.448,6,4,6h31V13z"/><linearGradient id="dZnKE-geswm2_YyYlQUTpc" x1="-2625.607" x2="-2625.607" y1="3458.802" y2="3426.911" gradientTransform="rotate(-90 -3000.498 413.39)" gradientUnits="userSpaceOnUse"><stop offset=".478" stop-color="#ad4bd5"/><stop offset=".868" stop-color="#9533c0"/><stop offset="1" stop-color="#912fbd"/></linearGradient><path fill="url(#dZnKE-geswm2_YyYlQUTpc)" d="M13,35h31c0.552,0,1,0.448,1,1v5c0,0.552-0.448,1-1,1H13V35z"/><rect width="9" height="7" x="5" y="6" opacity=".05"/><rect width="8" height="7" x="5.5" y="6" opacity=".05"/><rect width="9" height="7" x="34" y="35" opacity=".05"/><rect width="8" height="7" x="34.5" y="35" opacity=".05"/><linearGradient id="dZnKE-geswm2_YyYlQUTpd" x1="53.397" x2="60.25" y1="-1006.502" y2="-1045.367" gradientTransform="matrix(1 0 0 -1 -46.5 -1003.499)" gradientUnits="userSpaceOnUse"><stop offset="0" stop-color="#c965eb"/><stop offset="1" stop-color="#c767e5"/></linearGradient><path fill="url(#dZnKE-geswm2_YyYlQUTpd)" d="M8.642,37.401C6.945,35.611,6,33.239,6,30.773V3.999C6,3.447,6.448,3,7,3h5	c0.552,0,1,0.448,1,1v38L8.642,37.401z"/><linearGradient id="dZnKE-geswm2_YyYlQUTpe" x1="-2976.5" x2="-2969.5" y1="1209.002" y2="1209.002" gradientTransform="matrix(-1 0 0 1 -2934.5 -1183.502)" gradientUnits="userSpaceOnUse"><stop offset="0" stop-color="#c965eb"/><stop offset="1" stop-color="#c767e5"/></linearGradient><path fill="url(#dZnKE-geswm2_YyYlQUTpe)" d="M39.358,10.598C41.055,12.388,42,14.76,42,17.226V44c0,0.552-0.448,1-1,1l-5-0.001	c-0.552,0-1-0.448-1-1v-38L39.358,10.598z"/><path d="M13,13v22h22V13H13z M14,34V14h20v20H14z" opacity=".05"/><path d="M13,13v22h22V13H13z M34.5,34.5h-21v-21h21V34.5z" opacity=".05"/><path d="M29.281,23.712l-6.874-4.325c-0.494-0.31-1.113-0.325-1.613-0.043 C20.297,19.619,20,20.117,20,20.677v8.647c0,0.561,0.297,1.06,0.795,1.334c0.236,0.132,0.502,0.2,0.769,0.2 c0.3,0,0.592-0.084,0.844-0.244l6.874-4.324C29.731,26.006,30,25.525,30,25S29.73,23.994,29.281,23.712z" opacity=".05"/><path d="M29.015,24.136l-6.873-4.325c-0.335-0.21-0.76-0.224-1.106-0.029 c-0.336,0.185-0.536,0.52-0.536,0.895v8.647c0,0.376,0.201,0.711,0.537,0.896c0.165,0.091,0.346,0.137,0.528,0.137 c0.201,0,0.402-0.056,0.578-0.167l6.873-4.324C29.32,25.675,29.5,25.35,29.5,25C29.5,24.649,29.318,24.326,29.015,24.136z" opacity=".07"/><path fill="#fff" d="M21,29.325v-8.647c0-0.425,0.502-0.678,0.876-0.442l6.873,4.324c0.335,0.21,0.335,0.674,0,0.885 l-6.873,4.324C21.502,30.004,21,29.75,21,29.325z"/></svg>