<svg xmlns="http://www.w3.org/2000/svg" viewBox="0 0 48 48"><path fill="#103262" d="M46,31.5c0-0.828-0.672-1.5-1.5-1.5c-0.291,0-0.56,0.086-0.789,0.229l-39.718-0.14	C3.837,30.035,3.674,30,3.5,30c-0.169,0-0.33,0.034-0.481,0.086l-0.019,0v0.006c-0.581,0.207-1,0.756-1,1.408s0.419,1.202,1,1.408	v0.035L24,40l21-7.087v-0.005C45.581,32.702,46,32.152,46,31.5z"/><path fill="#0078d4" d="M46,25.5c0-0.652-0.419-1.202-1-1.408v-0.005h-0.016C44.832,24.035,44.671,24,44.5,24	c-0.17,0-0.332,0.035-0.484,0.087L3.981,24.086C3.829,24.034,3.669,24,3.5,24s-0.329,0.034-0.481,0.086H3v0.006	c-0.581,0.207-1,0.756-1,1.408s0.419,1.202,1,1.408v0.005L24,34l21-7.087v-0.005C45.581,26.702,46,26.152,46,25.5z"/><path fill="#35c1f1" d="M46,19.5c0-0.652-0.419-1.202-1-1.408v-0.005h-0.016C44.832,18.035,44.671,18,44.5,18	s-0.332,0.035-0.484,0.087H3.984C3.832,18.035,3.671,18,3.5,18s-0.332,0.035-0.484,0.087H3v0.005c-0.581,0.207-1,0.756-1,1.408	s0.419,1.202,1,1.408v0.006L24,28l21-7.086v-0.006C45.581,20.702,46,20.152,46,19.5z"/><path fill="#1b9de2" d="M46,22.5c0-1.359-1.236-1.471-1.313-1.481L24,28L3.312,21.019C2.573,21.112,2,21.736,2,22.5	c0,0.653,0.42,1.203,1.003,1.409v0.005L24,31l21-7.087v-0.005C45.581,23.701,46,23.152,46,22.5z"/><circle cx="44.5" cy="16.5" r="1.5" fill="#50e6ff"/><path fill="#50e6ff" d="M24,8L3,15.086v0.006c-0.581,0.207-1,0.756-1,1.408s0.419,1.202,1,1.408v0.006L24,25l21-7.086v-2.827	L24,8z"/><path fill="#0553a4" d="M46,28.5c0-1.291-1.235-1.472-1.313-1.481L24,34L4.561,27.439l-1.248-0.421	C2.574,27.111,2,27.735,2,28.5c0,0.652,0.419,1.201,1,1.408v0.005L24,37l21-7.087v-0.005C45.581,29.701,46,29.152,46,28.5z"/></svg>