<svg xmlns="http://www.w3.org/2000/svg" xmlns:xlink="http://www.w3.org/1999/xlink" data-name="Слой 1" viewBox="0 0 48 48"><defs><linearGradient id="X7~TTQxhO_t3SInIzlJEMa" x1="40.841" x2="45.71" y1="26.5" y2="26.5" data-name="Безымянный градиент 132" gradientTransform="rotate(180 43 26.5)" gradientUnits="userSpaceOnUse"><stop offset=".002" stop-color="#454545"/><stop offset=".013" stop-color="#464646"/><stop offset=".874" stop-color="#626262"/><stop offset="1" stop-color="#6d6d6d"/></linearGradient><linearGradient id="X7~TTQxhO_t3SInIzlJEMb" x1="-98.159" x2="-93.29" y1="26.5" y2="26.5" gradientTransform="matrix(-1 0 0 1 -78 0)" xlink:href="#X7~TTQxhO_t3SInIzlJEMa"/><linearGradient id="X7~TTQxhO_t3SInIzlJEMc" x1="30.5" x2="30.5" y1="29.174" y2="16.764" xlink:href="#X7~TTQxhO_t3SInIzlJEMa"/><linearGradient id="X7~TTQxhO_t3SInIzlJEMd" x1="30.5" x2="30.5" y1="40.639" y2="23.906" xlink:href="#X7~TTQxhO_t3SInIzlJEMa"/><linearGradient id="X7~TTQxhO_t3SInIzlJEMe" x1="6.488" x2="21.488" y1="27" y2="27" data-name="Безымянный градиент 129" gradientUnits="userSpaceOnUse"><stop offset="0" stop-color="#ffd869"/><stop offset="1" stop-color="#fec52b"/></linearGradient></defs><path fill="url(#X7~TTQxhO_t3SInIzlJEMa)" d="M42.5,25H45a0,0,0,0,1,0,0v1.5A1.5,1.5,0,0,1,43.5,28H42a1,1,0,0,1-1-1v-.5A1.5,1.5,0,0,1,42.5,25Z" transform="rotate(-180 43 26.5)"/><path fill="url(#X7~TTQxhO_t3SInIzlJEMb)" d="M17,25h1.5A1.5,1.5,0,0,1,20,26.5V28a0,0,0,0,1,0,0H17.5A1.5,1.5,0,0,1,16,26.5V26A1,1,0,0,1,17,25Z"/><path fill="url(#X7~TTQxhO_t3SInIzlJEMc)" d="M27.3611,19H33.6389A7.3611,7.3611,0,0,1,41,26.3611V28.75a0,0,0,0,1,0,0H20a0,0,0,0,1,0,0V26.3611A7.3611,7.3611,0,0,1,27.3611,19Z"/><path fill="#343434" d="M32.36133,16H34a0,0,0,0,1,0,0V33a0,0,0,0,1,0,0H32.36133A5.36133,5.36133,0,0,1,27,27.63867V21.36133A5.36133,5.36133,0,0,1,32.36133,16Z" transform="rotate(90 30.5 24.5)"/><path fill="#565b5e" d="M37,37.58333h6a0,0,0,0,1,0,0V41a1,1,0,0,1-1,1H38a1,1,0,0,1-1-1V37.58333A0,0,0,0,1,37,37.58333Z"/><path fill="url(#X7~TTQxhO_t3SInIzlJEMd)" d="M43,30.62478a2.806,2.806,0,0,0-2.26247-2.76511A54.30277,54.30277,0,0,0,30.5,27a54.303,54.303,0,0,0-10.23754.85967A2.806,2.806,0,0,0,18,30.62478v6.22244H43Z"/><circle cx="21.5" cy="31.5" r="1.5" fill="#fff"/><circle cx="39.5" cy="31.5" r="1.5" fill="#fff"/><path fill="#343434" d="M30.5,30h0A3.5,3.5,0,0,1,34,33.5V35a1,1,0,0,1-1,1H28a1,1,0,0,1-1-1V33.5A3.5,3.5,0,0,1,30.5,30Z"/><rect width="27" height="3" x="17" y="36" fill="#6d6d6d" rx="1.472"/><g><path fill="#1b9de2" d="M4,15V40a1.99947,1.99947,0,0,0,2,2H22a1.99947,1.99947,0,0,0,2-2V15Z"/><path fill="#50e6ff" d="M24,15H4V12a1.99945,1.99945,0,0,1,2-2H22a1.99945,1.99945,0,0,1,2,2Z"/><circle cx="10" cy="12.5" r=".75" fill="#0c63ad"/><path fill="#0c63ad" d="M17.5,11.75h-5a.75.75,0,0,0,0,1.5h5a.75.75,0,0,0,0-1.5Z"/></g><g><g opacity=".05"><path d="M20.48753,24a1,1,0,0,1,1,1v4a1,1,0,0,1-1,1h-13a1,1,0,0,1-1-1V25a1,1,0,0,1,1-1h13m0-1h-13a2.00229,2.00229,0,0,0-2,2v4a2.00229,2.00229,0,0,0,2,2h13a2.00228,2.00228,0,0,0,2-2V25a2.00228,2.00228,0,0,0-2-2Z"/><path d="M18.5,24v3h-3V24h3m-6.01247,0v3h-3V24h3M21.5,27v2a1,1,0,0,1-1,1h-2V27h3m-6.01247,0v3h-3V27h3m-6,0v3h-2a1,1,0,0,1-1-1V27h3M19.5,23h-5v3H13.48753V23h-5v3h-3v3a2.00228,2.00228,0,0,0,2,2h3V28h1v3h5V28H17.5v3h3a2.00228,2.00228,0,0,0,2-2V26h-3V23Z"/></g><g opacity=".07"><path d="M20.48753,24a1,1,0,0,1,1,1v4a1,1,0,0,1-1,1h-13a1,1,0,0,1-1-1V25a1,1,0,0,1,1-1h13m0-.5h-13a1.50171,1.50171,0,0,0-1.5,1.5v4a1.50171,1.50171,0,0,0,1.5,1.5h13a1.5017,1.5017,0,0,0,1.5-1.5V25a1.5017,1.5017,0,0,0-1.5-1.5Z"/><path d="M18.5,24v3h-3V24h3m-6.01247,0v3h-3V24h3M21.5,27v2a1,1,0,0,1-1,1h-2V27h3m-6.01247,0v3h-3V27h3m-6,0v3h-2a1,1,0,0,1-1-1V27h3M19,23.5H15v3H12.98753v-3h-4v3h-3V29a1.50171,1.50171,0,0,0,1.5,1.5h2.5v-3h2v3h4v-3H18v3h2.5A1.50171,1.50171,0,0,0,22,29V26.5H19v-3Z"/></g><rect width="15" height="6" x="6.488" y="24" fill="url(#X7~TTQxhO_t3SInIzlJEMe)" rx="1"/><path fill="#565b5e" d="M12.48753,27h-3V24h3ZM18.5,24h-3v3h3ZM9.48753,27h-3v2a1,1,0,0,0,1,1h2ZM21.5,27h-3v3h2a1,1,0,0,0,1-1Zm-6.01247,0h-3v3h3Z"/></g></svg>