<svg xmlns="http://www.w3.org/2000/svg" viewBox="0 0 48 48"><linearGradient id="312NZlmxxImC5wqB32q~Wa" x1="14.844" x2="33.762" y1="13.274" y2="32.191" gradientUnits="userSpaceOnUse"><stop offset="0" stop-color="#eba84b"/><stop offset="1" stop-color="#d97218"/></linearGradient><path fill="url(#312NZlmxxImC5wqB32q~Wa)" d="M23.838,8.372c-1.885,1.885-2.635,4.589-2.813,7.056c-0.01,0.227-0.049,0.444-0.109,0.661	c-0.266,1.056-1.007,1.915-1.964,2.339c-0.523,0.247-1.115,0.365-1.737,0.316c-3.257-0.257-6.71,1.205-9.098,3.593	c-4.53,4.53-4.028,11.762,0.877,16.667c4.905,4.905,12.137,5.407,16.667,0.877c2.388-2.388,3.85-5.841,3.593-9.098	c-0.049-0.622,0.069-1.214,0.296-1.737c0.434-0.967,1.293-1.727,2.359-1.984c0.188-0.049,0.385-0.069,0.582-0.089	c2.487-0.158,5.22-0.918,7.125-2.823l0.01,0.01c3.79-3.79,4.767-7.865,0.947-16.737C31.703,3.606,27.628,4.583,23.838,8.372z"/><linearGradient id="312NZlmxxImC5wqB32q~Wb" x1="14.774" x2="33.691" y1="13.344" y2="32.262" gradientUnits="userSpaceOnUse"><stop offset="0" stop-color="#ffcf7b"/><stop offset=".196" stop-color="#fecd76"/><stop offset=".439" stop-color="#fac666"/><stop offset=".709" stop-color="#f3bc4d"/><stop offset=".995" stop-color="#eaad2a"/><stop offset="1" stop-color="#eaad29"/></linearGradient><path fill="url(#312NZlmxxImC5wqB32q~Wb)" d="M10.75,37.25c-4.001-4.001-4.378-9.658-0.877-13.158c1.965-1.965,4.705-3.067,7.148-2.873	c1.03,0.081,2.064-0.109,2.991-0.547c1.607-0.713,2.864-2.208,3.31-3.977c0.102-0.373,0.165-0.768,0.182-1.164	c0.115-1.59,0.576-3.893,2.088-5.405c2.464-2.464,5.019-4.091,13.087-0.806c3.067,7.535,1.851,10.262-0.331,12.596l-0.486,0.481	c-1.625,1.625-4.161,2.014-5.528,2.101c-0.418,0.039-0.743,0.083-1.057,0.166c-1.721,0.414-3.231,1.677-3.989,3.366	c-0.414,0.952-0.584,1.962-0.506,2.948c0.193,2.444-0.909,5.184-2.874,7.149C20.408,41.628,14.75,41.251,10.75,37.25z"/><path fill="#c2620e" d="M34.121,18.121C36.607,15.636,36.5,11.5,36.5,11.5s-4.136-0.107-6.621,2.379s-3.55,5.45-2.379,6.621	S31.636,20.607,34.121,18.121z"/><path fill="#c2620e" d="M19.097,33.122c2.485-2.485,2.379-6.621,2.379-6.621s-4.136-0.107-6.621,2.379	s-3.55,5.45-2.379,6.621C13.648,36.672,16.612,35.607,19.097,33.122z"/><path fill="#e52030" d="M44.888,42.733L5.266,3.112c-0.149-0.149-0.39-0.149-0.539,0L3.112,4.728	c-0.149,0.149-0.149,0.39,0,0.539l39.622,39.622c0.149,0.149,0.39,0.149,0.539,0l1.616-1.616	C45.037,43.123,45.037,42.881,44.888,42.733z"/></svg>