<svg xmlns="http://www.w3.org/2000/svg" viewBox="0 0 48 48"><linearGradient id="w_x_9GhWdbQn6lpZL3mPOa" x1="220.266" x2="220.266" y1="331.483" y2="338.07" gradientTransform="scale(1 -1) rotate(-45 -306.805 396.95)" gradientUnits="userSpaceOnUse"><stop offset="0" stop-color="#fede00"/><stop offset=".787" stop-color="#ffd400"/><stop offset="1" stop-color="#ffd000"/></linearGradient><path fill="url(#w_x_9GhWdbQn6lpZL3mPOa)" d="M19.404,22.232L19.404,22.232c-0.586-0.586-0.586-1.536,0-2.121L24,15.515l2.121,2.121	l-4.596,4.596C20.939,22.818,19.99,22.818,19.404,22.232z"/><linearGradient id="w_x_9GhWdbQn6lpZL3mPOb" x1="229.266" x2="229.266" y1="331.293" y2="337.328" gradientTransform="scale(1 -1) rotate(-45 -306.805 396.95)" gradientUnits="userSpaceOnUse"><stop offset="0" stop-color="#fede00"/><stop offset=".567" stop-color="#fed900"/><stop offset="1" stop-color="#ffd000"/></linearGradient><path fill="url(#w_x_9GhWdbQn6lpZL3mPOb)" d="M25.768,28.596L25.768,28.596c-0.586-0.586-0.586-1.536,0-2.121l4.596-4.596L32.485,24	l-4.596,4.596C27.303,29.182,26.354,29.182,25.768,28.596z"/><linearGradient id="w_x_9GhWdbQn6lpZL3mPOc" x1="9.993" x2="5.714" y1="10.536" y2="6.185" gradientTransform="matrix(1.0041 -.0041 .0041 -1.0041 -.426 48.316)" gradientUnits="userSpaceOnUse"><stop offset=".166" stop-color="#c9cdcf"/><stop offset=".469" stop-color="#e1e2e4"/><stop offset=".859" stop-color="#e4e4e6"/></linearGradient><path fill="url(#w_x_9GhWdbQn6lpZL3mPOc)" d="M4.879,42.414L4.879,42.414c0.781,0.781,2.047,0.781,2.828,0l13.111-13.111l-2.828-2.828	L4.879,39.586C4.098,40.367,4.098,41.633,4.879,42.414z"/><path fill="#a1aab3" d="M11.999,41.697l-5.696-5.696c-1.071-1.071-1.445-2.656-0.966-4.093l0,0	c0.416-1.248,1.117-2.382,2.047-3.312l4.95-4.95l12.021,12.021l-4.95,4.95c-0.93,0.93-2.064,1.631-3.312,2.047l0,0	C14.655,43.143,13.07,42.769,11.999,41.697z"/><linearGradient id="w_x_9GhWdbQn6lpZL3mPOd" x1="38.074" x2="42.312" y1="37.321" y2="41.659" gradientTransform="matrix(1.0041 -.0041 .0041 -1.0041 -.495 48.385)" gradientUnits="userSpaceOnUse"><stop offset=".222" stop-color="#c9cdcf"/><stop offset=".556" stop-color="#e1e2e4"/><stop offset=".859" stop-color="#e4e4e6"/></linearGradient><path fill="url(#w_x_9GhWdbQn6lpZL3mPOd)" d="M43.121,5.586L43.121,5.586c-0.781-0.781-2.047-0.781-2.828,0L27.182,18.697l2.828,2.828	L43.121,8.414C43.902,7.633,43.902,6.367,43.121,5.586z"/><path fill="#a1aab3" d="M36.001,6.303l5.696,5.696c1.071,1.071,1.445,2.656,0.966,4.093l0,0	c-0.416,1.248-1.117,2.382-2.047,3.312l-4.95,4.95l-12.02-12.021l4.95-4.95c0.93-0.93,2.064-1.631,3.312-2.047l0,0	C33.345,4.857,34.93,5.231,36.001,6.303z"/><path fill="#8795a1" d="M23.93,11.202L36.798,24.07c0.589,0.589,0.589,1.543,0,2.132l-1.403,1.403	c-0.589,0.589-1.543,0.589-2.132,0L20.394,14.738c-0.589-0.589-0.589-1.543,0-2.132l1.403-1.403	C22.387,10.613,23.341,10.613,23.93,11.202z"/><path fill="#8795a1" d="M24.07,36.798L11.202,23.93c-0.589-0.589-0.589-1.543,0-2.132l1.403-1.403	c0.589-0.589,1.543-0.589,2.132,0l12.868,12.868c0.589,0.589,0.589,1.543,0,2.132l-1.403,1.403	C25.613,37.387,24.659,37.387,24.07,36.798z"/></svg>