<svg xmlns="http://www.w3.org/2000/svg" viewBox="0 0 48 48"><linearGradient id="92asABLlorNYr_ExKK0kMa" x1="24" x2="24" y1="25.847" y2="14.982" gradientUnits="userSpaceOnUse"><stop offset="0" stop-color="#d160f6"/><stop offset="1" stop-color="#b22bdb"/></linearGradient><path fill="url(#92asABLlorNYr_ExKK0kMa)" d="M33,22c0-0.672,0.225-1.288,0.601-1.786C33.859,19.871,34,19.455,34,19.026V18H14v1.026	c0,0.429,0.141,0.845,0.399,1.187C14.775,20.712,15,21.328,15,22s-0.225,1.288-0.601,1.786C14.141,24.129,14,24.545,14,24.974V26h20	v-1.026c0-0.429-0.141-0.845-0.399-1.187C33.225,23.288,33,22.672,33,22z"/><path fill="#007ad9" d="M29,9H19V6c0-1.105,0.895-2,2-2h6c1.105,0,2,0.895,2,2V9z"/><linearGradient id="92asABLlorNYr_ExKK0kMb" x1="24" x2="24" y1="8.891" y2="21.726" gradientUnits="userSpaceOnUse"><stop offset="0" stop-color="#32bdef"/><stop offset="1" stop-color="#1ea2e4"/></linearGradient><path fill="url(#92asABLlorNYr_ExKK0kMb)" d="M34,14c0-2.761-2.239-5-5-5H19c-2.761,0-5,2.239-5,5c0,0,0,0.657,0,1h20	C34,14.657,34,14,34,14z"/><linearGradient id="92asABLlorNYr_ExKK0kMc" x1="20.076" x2="26.387" y1="15.633" y2="44.392" gradientUnits="userSpaceOnUse"><stop offset="0" stop-color="#d160f6"/><stop offset="1" stop-color="#b22bdb"/></linearGradient><path fill="url(#92asABLlorNYr_ExKK0kMc)" d="M34,26H14v14.667C14,42.508,15.492,44,17.333,44h13.333C32.508,44,34,42.508,34,40.667V26z"/><linearGradient id="92asABLlorNYr_ExKK0kMd" x1="23.355" x2="31.644" y1="14.259" y2="43.071" gradientUnits="userSpaceOnUse"><stop offset="0" stop-color="#d160f6"/><stop offset="1" stop-color="#c545ed"/></linearGradient><rect width="20" height="3" x="14" y="15" fill="url(#92asABLlorNYr_ExKK0kMd)"/><linearGradient id="92asABLlorNYr_ExKK0kMe" x1="24" x2="24" y1="21.979" y2="38.148" gradientUnits="userSpaceOnUse"><stop offset=".249" stop-color="#fede00"/><stop offset=".252" stop-color="#ffd000"/></linearGradient><polygon fill="url(#92asABLlorNYr_ExKK0kMe)" points="24,38 24,32 19,32 24,22 24,28 29,28"/></svg>