<svg xmlns="http://www.w3.org/2000/svg" viewBox="0 0 48 48"><linearGradient id="gHb~dHdL0mA4OoGhHvFsYa" x1="17.235" x2="44.032" y1="24.32" y2="48.801" gradientUnits="userSpaceOnUse"><stop offset="0" stop-color="#a14f26"/><stop offset=".587" stop-color="#8a3818"/><stop offset="1" stop-color="#802d0f"/></linearGradient><path fill="url(#gHb~dHdL0mA4OoGhHvFsYa)" d="M36,16.319v28.362C36,45.409,35.409,46,34.681,46H13.319C12.591,46,12,45.409,12,44.681	V16.319C12,15.591,12.591,15,13.319,15h21.362C35.409,15,36,15.591,36,16.319z"/><path fill="#343434" d="M16.239,13h15.521C32.445,13,33,13.555,33,14.239v27.521C33,42.445,32.445,43,31.761,43H16.239	C15.555,43,15,42.445,15,41.761V14.239C15,13.555,15.555,13,16.239,13z"/><linearGradient id="gHb~dHdL0mA4OoGhHvFsYb" x1="19.351" x2="27.351" y1="28.136" y2="29.328" gradientUnits="userSpaceOnUse"><stop offset="0" stop-color="#ee951a"/><stop offset="1" stop-color="#e2600e"/></linearGradient><polygon fill="url(#gHb~dHdL0mA4OoGhHvFsYb)" points="24.454,21.762 26.404,22.207 23.288,35.856 21.339,35.411"/><linearGradient id="gHb~dHdL0mA4OoGhHvFsYc" x1="19.477" x2="24.541" y1="34.562" y2="39.456" gradientUnits="userSpaceOnUse"><stop offset="0" stop-color="#fccf27"/><stop offset="1" stop-color="#e18015"/></linearGradient><path fill="url(#gHb~dHdL0mA4OoGhHvFsYc)" d="M26,37c0,2.209-1.791,4-4,4s-4-1.791-4-4s1.791-4,4-4S26,34.791,26,37z"/><linearGradient id="gHb~dHdL0mA4OoGhHvFsYd" x1="12.855" x2="53.961" y1="15.069" y2="14.814" gradientUnits="userSpaceOnUse"><stop offset="0" stop-color="#a14f26"/><stop offset=".587" stop-color="#8a3818"/><stop offset="1" stop-color="#802d0f"/></linearGradient><path fill="url(#gHb~dHdL0mA4OoGhHvFsYd)" d="M38,11.08v7.84c0,1.2-0.48,2.36-1.33,3.21l-5.54,5.54C30.28,28.52,29.12,29,27.92,29h-7.84	c-1.2,0-2.36-0.48-3.21-1.33l-5.54-5.54C10.48,21.28,10,20.12,10,18.92v-7.84c0-1.2,0.48-2.36,1.33-3.21l5.54-5.54	C17.72,1.48,18.88,1,20.08,1h7.84c1.2,0,2.36,0.48,3.21,1.33l5.54,5.54C37.52,8.72,38,9.88,38,11.08z"/><linearGradient id="gHb~dHdL0mA4OoGhHvFsYe" x1="16.222" x2="31.778" y1="466.778" y2="451.222" gradientTransform="matrix(1 0 0 -1 0 474)" gradientUnits="userSpaceOnUse"><stop offset="0" stop-color="#fdcd7b"/><stop offset=".196" stop-color="#fccc76"/><stop offset=".439" stop-color="#f9c466"/><stop offset=".709" stop-color="#f1ba4d"/><stop offset=".995" stop-color="#e8ab29"/><stop offset="1" stop-color="#e8ab28"/></linearGradient><circle cx="24" cy="15" r="11" fill="url(#gHb~dHdL0mA4OoGhHvFsYe)"/><radialGradient id="gHb~dHdL0mA4OoGhHvFsYf" cx="24.697" cy="458.086" r="9.93" gradientTransform="matrix(1.0095 0 0 -1.0095 -.86 477.528)" gradientUnits="userSpaceOnUse"><stop offset="0"/><stop offset="1" stop-opacity="0"/></radialGradient><circle cx="24.072" cy="15.072" r="10.025" fill="url(#gHb~dHdL0mA4OoGhHvFsYf)"/><linearGradient id="gHb~dHdL0mA4OoGhHvFsYg" x1="18.682" x2="31.939" y1="9.693" y2="22.95" gradientUnits="userSpaceOnUse"><stop offset="0" stop-color="#fdeecc"/><stop offset=".375" stop-color="#fdedca"/><stop offset=".597" stop-color="#fdeac1"/><stop offset=".779" stop-color="#fde4b3"/><stop offset=".938" stop-color="#fddd9f"/><stop offset="1" stop-color="#fdd995"/></linearGradient><ellipse cx="24" cy="15.011" fill="url(#gHb~dHdL0mA4OoGhHvFsYg)" rx="8.8" ry="8.778"/><path fill="none" stroke="#45494d" stroke-linecap="round" stroke-linejoin="round" stroke-miterlimit="10" stroke-width="1.532" d="M23.882,9.068c0,1.702,0,3.405,0,5.107"/><path fill="none" stroke="#45494d" stroke-linecap="round" stroke-linejoin="round" stroke-miterlimit="10" stroke-width="1.021" d="M26.726,20.967c-0.98-1.823-1.96-3.646-2.939-5.469"/><circle cx="23.882" cy="15.207" r="1.532" fill="#1e2021"/><path d="M31.13,27.67C30.28,28.52,29.12,29,27.92,29h-7.84	c-1.2,0-2.36-0.48-3.21-1.33L12,22.8v1.41l4.17,4.17C17.21,29.42,18.6,30,20.08,30h7.84c1.48,0,2.87-0.58,3.91-1.62L36,24.21V22.8	L31.13,27.67z" opacity=".07"/><path d="M31.13,27.67C30.28,28.52,29.12,29,27.92,29h-7.84	c-1.2,0-2.36-0.48-3.21-1.33L12,22.8v0.71l4.52,4.52c0.95,0.95,2.21,1.47,3.56,1.47h7.84c1.35,0,2.61-0.52,3.56-1.47L36,23.51V22.8	L31.13,27.67z" opacity=".07"/></svg>