<svg xmlns="http://www.w3.org/2000/svg" viewBox="0 0 48 48"><linearGradient id="KpyDQDLT~j3EaqJaNBBgGa" x1="13.48" x2="31.634" y1="514.407" y2="488.147" gradientTransform="matrix(1 0 0 -1 0 526)" gradientUnits="userSpaceOnUse"><stop offset="0" stop-color="#7dd8f3"/><stop offset="1" stop-color="#45b0d0"/></linearGradient><path fill="url(#KpyDQDLT~j3EaqJaNBBgGa)" d="M4,38V15h40v23c0,1.1-0.9,2-2,2H6C4.9,40,4,39.1,4,38z"/><linearGradient id="KpyDQDLT~j3EaqJaNBBgGb" x1="4.614" x2="42.936" y1="518.259" y2="510.467" gradientTransform="matrix(1 0 0 -1 0 526)" gradientUnits="userSpaceOnUse"><stop offset="0" stop-color="#0077d2"/><stop offset="1" stop-color="#0b59a2"/></linearGradient><path fill="url(#KpyDQDLT~j3EaqJaNBBgGb)" d="M44,10v5H4v-5c0-1.1,0.9-2,2-2h36C43.1,8,44,8.9,44,10z"/><linearGradient id="KpyDQDLT~j3EaqJaNBBgGc" x1="16" x2="42" y1="514.5" y2="514.5" gradientTransform="matrix(1 0 0 -1 0 526)" gradientUnits="userSpaceOnUse"><stop offset="0" stop-color="#7dd8f3"/><stop offset="1" stop-color="#45b0d0"/></linearGradient><path fill="url(#KpyDQDLT~j3EaqJaNBBgGc)" d="M16.5,13h25c0.276,0,0.5-0.224,0.5-0.5v-2c0-0.276-0.224-0.5-0.5-0.5h-25	c-0.276,0-0.5,0.224-0.5,0.5v2C16,12.776,16.224,13,16.5,13z"/><linearGradient id="KpyDQDLT~j3EaqJaNBBgGd" x1="6.751" x2="8.032" y1="515.584" y2="513.731" gradientTransform="matrix(1 0 0 -1 0 526)" gradientUnits="userSpaceOnUse"><stop offset="0" stop-color="#75daff"/><stop offset="1" stop-color="#49bef1"/></linearGradient><circle cx="7.5" cy="11.5" r="1.5" fill="url(#KpyDQDLT~j3EaqJaNBBgGd)"/><path fill="#0d86ad" d="M40,37h-8c-0.552,0-1-0.448-1-1V19c0-0.552,0.448-1,1-1h8c0.552,0,1,0.448,1,1v17	C41,36.552,40.552,37,40,37z"/><path fill="#0d86ad" d="M27,26H8c-0.552,0-1-0.448-1-1v-6c0-0.552,0.448-1,1-1h19c0.552,0,1,0.448,1,1v6	C28,25.552,27.552,26,27,26z"/><path fill="#0d86ad" d="M27,37H8c-0.552,0-1-0.448-1-1v-6c0-0.552,0.448-1,1-1h19c0.552,0,1,0.448,1,1v6	C28,36.552,27.552,37,27,37z"/><path fill="#e52030" d="M44.888,42.734L5.266,3.112c-0.149-0.149-0.39-0.149-0.539,0L3.112,4.728	c-0.149,0.149-0.149,0.39,0,0.539l39.622,39.622c0.149,0.149,0.39,0.149,0.539,0l1.616-1.616	C45.037,43.124,45.037,42.882,44.888,42.734z"/></svg>