<svg xmlns="http://www.w3.org/2000/svg" viewBox="0 0 48 48"><linearGradient id="TNTP5lxjjnRYfgzqcATOba" x1="31.893" x2="39.893" y1="13.68" y2="13.68" gradientUnits="userSpaceOnUse"><stop offset="0" stop-color="#7819a2"/><stop offset="1" stop-color="#771aa9"/></linearGradient><path fill="url(#TNTP5lxjjnRYfgzqcATOba)" d="M38.723,10.853c1.561,1.561,1.56,4.094-0.002,5.655c-1.563,1.563-4.095,1.563-5.655,0.002	c-1.563-1.564-1.564-4.096-0.001-5.658C34.625,9.289,37.159,9.289,38.723,10.853z"/><linearGradient id="TNTP5lxjjnRYfgzqcATObb" x1="10.97" x2="16.974" y1="13.814" y2="13.814" gradientUnits="userSpaceOnUse"><stop offset="0" stop-color="#912fbd"/><stop offset="1" stop-color="#9332bf"/></linearGradient><path fill="url(#TNTP5lxjjnRYfgzqcATObb)" d="M13.972,10.814c-1.657-0.001-3.001,1.341-3.002,2.998c-0.001,1.657,1.341,3.001,2.998,3.002	c0.001,0,0.002,0,0.003,0c1.657,0.001,3.001-1.341,3.002-2.998c0.001-1.657-1.341-3.001-2.998-3.002	C13.974,10.814,13.973,10.814,13.972,10.814z"/><linearGradient id="TNTP5lxjjnRYfgzqcATObc" x1="6.43" x2="12.43" y1="24.696" y2="24.696" gradientUnits="userSpaceOnUse"><stop offset="0" stop-color="#912fbd"/><stop offset="1" stop-color="#9332bf"/></linearGradient><path fill="url(#TNTP5lxjjnRYfgzqcATObc)" d="M9.43,21.696c-1.657,0-3,1.343-3,3s1.343,3,3,3s3-1.343,3-3S11.087,21.696,9.43,21.696z"/><linearGradient id="TNTP5lxjjnRYfgzqcATObd" x1="10.972" x2="16.972" y1="35.6" y2="35.6" gradientUnits="userSpaceOnUse"><stop offset="0" stop-color="#ae4cd5"/><stop offset="1" stop-color="#ac4ad5"/></linearGradient><path fill="url(#TNTP5lxjjnRYfgzqcATObd)" d="M16.095,33.479c1.17,1.17,1.17,3.07-0.003,4.243c-1.17,1.17-3.07,1.17-4.24,0	c-1.174-1.174-1.173-3.072-0.002-4.243C13.021,32.307,14.921,32.306,16.095,33.479z"/><linearGradient id="TNTP5lxjjnRYfgzqcATObe" x1="33.53" x2="37.529" y1="36.097" y2="36.097" gradientUnits="userSpaceOnUse"><stop offset="0" stop-color="#c965eb"/><stop offset="1" stop-color="#c767e5"/></linearGradient><path fill="url(#TNTP5lxjjnRYfgzqcATObe)" d="M36.944,34.683c0.779,0.778,0.781,2.048,0,2.829s-2.049,0.778-2.828,0	c-0.781-0.782-0.781-2.047,0-2.829C34.897,33.902,36.163,33.9,36.944,34.683z"/><linearGradient id="TNTP5lxjjnRYfgzqcATObf" x1="38.797" x2="41.796" y1="24.716" y2="24.716" gradientUnits="userSpaceOnUse"><stop offset="0" stop-color="#c965eb"/><stop offset="1" stop-color="#c767e5"/></linearGradient><path fill="url(#TNTP5lxjjnRYfgzqcATObf)" d="M41.355,23.656c0.586,0.586,0.589,1.535,0.002,2.123c-0.583,0.582-1.537,0.584-2.123-0.002	s-0.581-1.537,0.002-2.119C39.823,23.07,40.771,23.07,41.355,23.656z"/><linearGradient id="TNTP5lxjjnRYfgzqcATObg" x1="22.374" x2="27.374" y1="40.14" y2="40.14" gradientUnits="userSpaceOnUse"><stop offset="0" stop-color="#ae4cd5"/><stop offset="1" stop-color="#ac4ad5"/></linearGradient><circle cx="24.874" cy="40.14" r="2.5" fill="url(#TNTP5lxjjnRYfgzqcATObg)"/><linearGradient id="TNTP5lxjjnRYfgzqcATObh" x1="21.354" x2="28.354" y1="9.275" y2="9.275" gradientUnits="userSpaceOnUse"><stop offset="0" stop-color="#912fbd"/><stop offset="1" stop-color="#9332bf"/></linearGradient><path fill="url(#TNTP5lxjjnRYfgzqcATObh)" d="M27.327,6.799c1.368,1.369,1.369,3.583,0.001,4.951c-1.365,1.365-3.583,1.367-4.951-0.002	c-1.364-1.363-1.364-3.582,0.002-4.947C23.746,5.432,25.963,5.435,27.327,6.799z"/></svg>