<svg xmlns="http://www.w3.org/2000/svg" viewBox="0 0 48 48"><linearGradient id="NLwnoO9N0lv4wa25duTLda" x1="24" x2="24" y1="18.725" y2="43.64" gradientUnits="userSpaceOnUse"><stop offset="0" stop-color="#92a3b0"/><stop offset=".015" stop-color="#a3b5c4"/><stop offset=".032" stop-color="#aec2d1"/><stop offset=".046" stop-color="#b2c6d6"/></linearGradient><polygon fill="url(#NLwnoO9N0lv4wa25duTLda)" points="24,43.64 17.038,19.275 18.962,18.725 24,36.36 29.038,18.725 30.962,19.275"/><linearGradient id="NLwnoO9N0lv4wa25duTLdb" x1="24" x2="24" y1="18.352" y2="41.541" gradientUnits="userSpaceOnUse"><stop offset="0" stop-color="#92a3b0"/><stop offset=".015" stop-color="#a3b5c4"/><stop offset=".032" stop-color="#aec2d1"/><stop offset=".046" stop-color="#b2c6d6"/></linearGradient><polygon fill="url(#NLwnoO9N0lv4wa25duTLdb)" points="24,41.542 5.341,19.648 6.862,18.352 24,38.458 41.138,18.352 42.659,19.648"/><linearGradient id="NLwnoO9N0lv4wa25duTLdc" x1="22.113" x2="32.401" y1="33.377" y2="43.665" gradientUnits="userSpaceOnUse"><stop offset="0" stop-color="#eba600"/><stop offset="1" stop-color="#c28200"/></linearGradient><path fill="url(#NLwnoO9N0lv4wa25duTLdc)" d="M31.096,44H21V31h10.096C31.595,31,32,31.405,32,31.904v11.192C32,43.595,31.595,44,31.096,44	z"/><linearGradient id="NLwnoO9N0lv4wa25duTLdd" x1="15.756" x2="29.655" y1="31.256" y2="45.155" gradientUnits="userSpaceOnUse"><stop offset="0" stop-color="#ffd869"/><stop offset="1" stop-color="#fec52b"/></linearGradient><path fill="url(#NLwnoO9N0lv4wa25duTLdd)" d="M27.056,44H16.944C16.423,44,16,43.577,16,43.056V31.944C16,31.423,16.423,31,16.944,31	h10.112C27.577,31,28,31.423,28,31.944v11.112C28,43.577,27.577,44,27.056,44z"/><path fill="#fff8e6" d="M21,31h2v2h-2V31z"/><linearGradient id="NLwnoO9N0lv4wa25duTLde" x1="28.922" x2="39.365" y1="612.242" y2="632.562" gradientTransform="translate(-.348 -610.662)" gradientUnits="userSpaceOnUse"><stop offset="0" stop-color="#42a3f2"/><stop offset="1" stop-color="#42a4eb"/></linearGradient><path fill="url(#NLwnoO9N0lv4wa25duTLde)" d="M44,19l-5,0.038c0,0-9-15.019-15.019-15.019C41,4.019,44,19,44,19z"/><linearGradient id="NLwnoO9N0lv4wa25duTLdf" x1="31.731" x2="31.731" y1="630.949" y2="614.869" gradientTransform="translate(0 -610)" gradientUnits="userSpaceOnUse"><stop offset="0" stop-color="#3079d6"/><stop offset="1" stop-color="#297cd2"/></linearGradient><path fill="url(#NLwnoO9N0lv4wa25duTLdf)" d="M40,19.019c0,0-2.239,2-5,2s-5-2-5-2s-8.761-15-6-15C35,4.019,40,16.019,40,19.019z"/><linearGradient id="NLwnoO9N0lv4wa25duTLdg" x1="-1171.739" x2="-1161.295" y1="611.323" y2="631.643" gradientTransform="matrix(-1 0 0 1 -1152.736 -610.108)" gradientUnits="userSpaceOnUse"><stop offset="0" stop-color="#42a3f2"/><stop offset="1" stop-color="#42a4eb"/></linearGradient><path fill="url(#NLwnoO9N0lv4wa25duTLdg)" d="M4,19l5,0.038c0,0,9-15.019,15.019-15.019C7,4.019,4,19,4,19z"/><linearGradient id="NLwnoO9N0lv4wa25duTLdh" x1="-1168.809" x2="-1168.809" y1="630.949" y2="614.869" gradientTransform="matrix(-1 0 0 1 -1152.54 -610)" gradientUnits="userSpaceOnUse"><stop offset="0" stop-color="#3079d6"/><stop offset="1" stop-color="#297cd2"/></linearGradient><path fill="url(#NLwnoO9N0lv4wa25duTLdh)" d="M8,19.019c0,0,2.239,2,5,2s5-2,5-2s8.761-15,6-15C13,4.019,8,16.019,8,19.019z"/><linearGradient id="NLwnoO9N0lv4wa25duTLdi" x1="13" x2="13" y1="631.003" y2="627.219" gradientTransform="translate(0 -610)" gradientUnits="userSpaceOnUse"><stop offset="0" stop-color="#3079d6"/><stop offset="1" stop-color="#297cd2"/></linearGradient><path fill="url(#NLwnoO9N0lv4wa25duTLdi)" d="M18,19.019c0,0-2.239,2-5,2s-5-2-5-2s2.239-2,5-2S18,19.019,18,19.019z"/><linearGradient id="NLwnoO9N0lv4wa25duTLdj" x1="-2100" x2="-2100" y1="630.011" y2="628.119" gradientTransform="matrix(-.4 0 0 1 -798 -610)" gradientUnits="userSpaceOnUse"><stop offset="0" stop-color="#42a3f2"/><stop offset="1" stop-color="#42a4eb"/></linearGradient><path fill="url(#NLwnoO9N0lv4wa25duTLdj)" d="M40,19.019c0,0,0.895,1,2,1s2-1,2-1s-0.895-1-2-1S40,19.019,40,19.019z"/><linearGradient id="NLwnoO9N0lv4wa25duTLdk" x1="-2010" x2="-2010" y1="630.011" y2="628.119" gradientTransform="matrix(-.4 0 0 1 -798 -610)" gradientUnits="userSpaceOnUse"><stop offset="0" stop-color="#42a3f2"/><stop offset="1" stop-color="#42a4eb"/></linearGradient><path fill="url(#NLwnoO9N0lv4wa25duTLdk)" d="M4,19.019c0,0,0.895,1,2,1s2-1,2-1s-0.895-1-2-1S4,19.019,4,19.019z"/><linearGradient id="NLwnoO9N0lv4wa25duTLdl" x1="24" x2="24" y1="630.949" y2="614.869" gradientTransform="translate(0 -610)" gradientUnits="userSpaceOnUse"><stop offset="0" stop-color="#42a3f2"/><stop offset="1" stop-color="#42a4eb"/></linearGradient><path fill="url(#NLwnoO9N0lv4wa25duTLdl)" d="M30,19.019c0,0-2.686,2-6,2s-6-2-6-2c0-14,6-15,6-15S30,5.019,30,19.019z"/></svg>