<svg xmlns="http://www.w3.org/2000/svg" viewBox="0 0 48 48"><path fill="#5059c9" d="M6.84,14.005H6c-0.552,0-1,0.448-1,1v5.179c0,0.477,0.337,0.888,0.805,0.981L10,22v4l-4.196,0.839	C5.336,26.933,5,27.343,5,27.82v5.179c0,0.552,0.448,1,1,1h0.839c0.718,0,1.38-0.385,1.736-1.008L12,26.999v-6l-3.424-5.987	C8.22,14.389,7.557,14.005,6.84,14.005z"/><linearGradient id="R6rg1L7t5ATeECJ3Qrzw5a" x1="26.974" x2="18.496" y1="11" y2="11" gradientUnits="userSpaceOnUse"><stop offset="0" stop-color="#4951b7"/><stop offset="1" stop-color="#3a41ac"/></linearGradient><path fill="url(#R6rg1L7t5ATeECJ3Qrzw5a)" d="M26,12h-8v-2h8c0.552,0,1,0.448,1,1v0C27,11.552,26.552,12,26,12z"/><linearGradient id="R6rg1L7t5ATeECJ3Qrzw5b" x1="29.974" x2="21.496" y1="16" y2="16" gradientUnits="userSpaceOnUse"><stop offset="0" stop-color="#4951b7"/><stop offset="1" stop-color="#3a41ac"/></linearGradient><path fill="url(#R6rg1L7t5ATeECJ3Qrzw5b)" d="M29,17h-8v-2h8c0.552,0,1,0.448,1,1v0C30,16.552,29.552,17,29,17z"/><linearGradient id="R6rg1L7t5ATeECJ3Qrzw5c" x1="27.974" x2="19.496" y1="26" y2="26" gradientUnits="userSpaceOnUse"><stop offset="0" stop-color="#4951b7"/><stop offset="1" stop-color="#3a41ac"/></linearGradient><path fill="url(#R6rg1L7t5ATeECJ3Qrzw5c)" d="M27,27h-8v-2h8c0.552,0,1,0.448,1,1v0C28,26.552,27.552,27,27,27z"/><linearGradient id="R6rg1L7t5ATeECJ3Qrzw5d" x1="26.974" x2="18.496" y1="37" y2="37" gradientUnits="userSpaceOnUse"><stop offset="0" stop-color="#4951b7"/><stop offset="1" stop-color="#3a41ac"/></linearGradient><path fill="url(#R6rg1L7t5ATeECJ3Qrzw5d)" d="M26,38h-8v-2h8c0.552,0,1,0.448,1,1l0,0C27,37.552,26.552,38,26,38z"/><linearGradient id="R6rg1L7t5ATeECJ3Qrzw5e" x1="29.974" x2="21.496" y1="32" y2="32" gradientUnits="userSpaceOnUse"><stop offset="0" stop-color="#4951b7"/><stop offset="1" stop-color="#3a41ac"/></linearGradient><path fill="url(#R6rg1L7t5ATeECJ3Qrzw5e)" d="M29,33h-8v-2h8c0.552,0,1,0.448,1,1v0C30,32.552,29.552,33,29,33z"/><path fill="#5059c9" d="M16.898,3H16c-0.552,0-1,0.448-1,1v18h15L18.589,3.932C18.222,3.352,17.584,3,16.898,3z"/><path fill="#5059c9" d="M16.898,45H16c-0.552,0-1-0.448-1-1V26h15L18.589,44.068C18.222,44.648,17.584,45,16.898,45z"/><path fill="#7b83eb" d="M45.713,23.3c-1.12-1.147-3.712-3.3-7.381-3.3c-5,0-26.134,0-28.801,0	c-1.658,0-3.186,1.544-4.105,2.713c-0.585,0.744-0.563,1.792,0.044,2.518C6.454,26.407,8.059,28,9.531,28c2.332,0,23.801,0,28.801,0	c3.669,0,6.261-2.153,7.381-3.3C46.096,24.308,46.096,23.692,45.713,23.3z"/><path fill="#5059c9" d="M3.999,23h9.001C13.553,23,14,23.447,14,23.999v0c0,0.552-0.447,0.999-0.999,0.999H3.999	C3.447,24.999,3,24.552,3,24v0C3,23.447,3.447,23,3.999,23z"/><linearGradient id="R6rg1L7t5ATeECJ3Qrzw5f" x1="32.5" x2="32.5" y1="22.026" y2="25.982" gradientUnits="userSpaceOnUse"><stop offset="0" stop-color="#5961c3"/><stop offset="1" stop-color="#3a41ac"/></linearGradient><path fill="url(#R6rg1L7t5ATeECJ3Qrzw5f)" d="M36,26h-7c-1.105,0-2-0.895-2-2v0c0-1.105,0.895-2,2-2h7c1.105,0,2,0.895,2,2v0	C38,25.105,37.105,26,36,26z"/></svg>