<svg xmlns="http://www.w3.org/2000/svg" viewBox="0 0 48 48"><linearGradient id="m3kLzck98KMnWXi~sbnS9a" x1="24" x2="24" y1="-.319" y2="45.344" gradientUnits="userSpaceOnUse"><stop offset="0" stop-color="#33bef0"/><stop offset="1" stop-color="#0a85d9"/></linearGradient><circle cx="24" cy="24" r="20" fill="url(#m3kLzck98KMnWXi~sbnS9a)"/><path d="M21.929,37C20.866,37,20,36.136,20,35.073V21.019h-3.344c-0.684,0-1.288-0.411-1.54-1.046	c-0.251-0.635-0.092-1.348,0.405-1.816l7.032-6.61c0.393-0.37,0.907-0.573,1.447-0.573s1.054,0.203,1.447,0.573l7.031,6.61	c0.498,0.469,0.657,1.182,0.406,1.816c-0.252,0.635-0.857,1.046-1.541,1.046H28v14.055C28,36.136,27.135,37,26.072,37H21.929z" opacity=".05"/><path d="M21.929,36.5c-0.788,0-1.428-0.64-1.428-1.427V20.519h-3.844c-0.477,0-0.899-0.287-1.075-0.73	s-0.064-0.94,0.283-1.268l7.031-6.61c0.3-0.282,0.692-0.438,1.104-0.438s0.805,0.155,1.105,0.438l7.031,6.61	c0.348,0.327,0.459,0.824,0.283,1.268s-0.598,0.73-1.076,0.73H27.5v14.555c0,0.787-0.641,1.427-1.428,1.427H21.929z" opacity=".07"/><path fill="#fff" d="M23.238,12.275l-7.031,6.61c-0.433,0.407-0.145,1.134,0.45,1.134h4.344v15.055	c0,0.512,0.416,0.927,0.928,0.927h4.144c0.513,0,0.928-0.415,0.928-0.927V20.018h4.343c0.595,0,0.883-0.727,0.45-1.134l-7.031-6.61	C24.334,11.872,23.666,11.872,23.238,12.275z"/></svg>