<svg xmlns="http://www.w3.org/2000/svg" viewBox="0 0 48 48"><linearGradient id="EsOyA1X_kKa0xkNxXPEf~a" x1="6.414" x2="41.774" y1="36.338" y2="10.512" gradientTransform="matrix(1 0 0 -1 0 50)" gradientUnits="userSpaceOnUse"><stop offset="0" stop-color="#28afea"/><stop offset="1" stop-color="#047ed6"/></linearGradient><path fill="url(#EsOyA1X_kKa0xkNxXPEf~a)" d="M6,40V12h36v28c0,1.1-0.9,2-2,2H8C6.9,42,6,41.1,6,40z"/><linearGradient id="EsOyA1X_kKa0xkNxXPEf~b" x1="6.42" x2="41.198" y1="43.392" y2="36.32" gradientTransform="matrix(1 0 0 -1 0 50)" gradientUnits="userSpaceOnUse"><stop offset="0" stop-color="#0077d2"/><stop offset="1" stop-color="#0b59a2"/></linearGradient><path fill="url(#EsOyA1X_kKa0xkNxXPEf~b)" d="M42,8v6H6V8c0-1.1,0.9-2,2-2h32C41.1,6,42,6.9,42,8z"/><path d="M35.5,12.5L35.5,12.5c-1.657,0-3-1.343-3-3V6h6v3.5	C38.5,11.157,37.157,12.5,35.5,12.5z" opacity=".05"/><path d="M35.5,11.75L35.5,11.75c-1.243,0-2.25-1.007-2.25-2.25V6h4.5v3.5	C37.75,10.743,36.743,11.75,35.5,11.75z" opacity=".07"/><path d="M12.5,12.5L12.5,12.5c-1.657,0-3-1.343-3-3V6h6v3.5	C15.5,11.157,14.157,12.5,12.5,12.5z" opacity=".05"/><path d="M12.5,11.75L12.5,11.75c-1.243,0-2.25-1.007-2.25-2.25V6h4.5v3.5	C14.75,10.743,13.743,11.75,12.5,11.75z" opacity=".07"/><path fill="#3ccbf4" d="M12.5,11L12.5,11c-0.828,0-1.5-0.672-1.5-1.5v-4C11,4.672,11.672,4,12.5,4l0,0	C13.328,4,14,4.672,14,5.5v4C14,10.328,13.328,11,12.5,11z"/><path fill="#3ccbf4" d="M35.5,11L35.5,11c-0.828,0-1.5-0.672-1.5-1.5v-4C34,4.672,34.672,4,35.5,4l0,0	C36.328,4,37,4.672,37,5.5v4C37,10.328,36.328,11,35.5,11z"/><path fill="#fff" d="M19.259,31.898h-2.406l-0.697-2.181h-3.486l-0.69,2.181H9.586l3.568-9.803h2.618L19.259,31.898z M15.65,28.022l-1.053-3.295c-0.077-0.246-0.132-0.54-0.164-0.882h-0.055c-0.022,0.287-0.08,0.572-0.171,0.854l-1.066,3.322H15.65z"/><path fill="#fff" d="M28.235,27.653c0,2.944-1.372,4.416-4.115,4.416c-2.661,0-3.992-1.438-3.992-4.313v-5.66h2.215 v5.688c0,1.586,0.62,2.379,1.859,2.379c1.217,0,1.825-0.766,1.825-2.297v-5.77h2.208V27.653z"/><path fill="#fff" d="M38.414,31.242c-0.957,0.552-2.146,0.827-3.568,0.827c-1.577,0-2.819-0.437-3.729-1.31 c-0.908-0.872-1.363-2.074-1.363-3.605c0-1.54,0.497-2.796,1.49-3.767s2.315-1.456,3.965-1.456c1.039,0,1.955,0.144,2.748,0.431 v2.071c-0.757-0.438-1.682-0.656-2.775-0.656c-0.916,0-1.662,0.297-2.238,0.893c-0.577,0.594-0.865,1.389-0.865,2.382 c0,1.007,0.259,1.786,0.775,2.338c0.518,0.552,1.216,0.827,2.096,0.827c0.528,0,0.948-0.075,1.258-0.226v-1.914h-1.962v-1.764h4.17 V31.242z"/></svg>