<svg xmlns="http://www.w3.org/2000/svg" xmlns:xlink="http://www.w3.org/1999/xlink" data-name="Слой 1" viewBox="0 0 48 48"><defs><linearGradient id="6rfZFzvSBv_9UOqM5d5u7a" x1="17.498" x2="26.813" y1=".047" y2="25.639" data-name="Новый образец градиентной зал 3" gradientUnits="userSpaceOnUse"><stop offset="0" stop-color="#32bdef"/><stop offset="1" stop-color="#1ea2e4"/></linearGradient><linearGradient id="6rfZFzvSBv_9UOqM5d5u7b" x1="17.286" x2="33.388" y1="13.877" y2="58.117" xlink:href="#6rfZFzvSBv_9UOqM5d5u7a"/><linearGradient id="6rfZFzvSBv_9UOqM5d5u7c" x1="27.5" x2="27.5" y1="6.418" y2="14.201" data-name="Безымянный градиент 73" gradientUnits="userSpaceOnUse"><stop offset="0" stop-color="#9332bf"/><stop offset="1" stop-color="#912fbd"/></linearGradient></defs><path fill="url(#6rfZFzvSBv_9UOqM5d5u7a)" d="M8,14H40a1,1,0,0,1,1,1v6a0,0,0,0,1,0,0H7a0,0,0,0,1,0,0V15A1,1,0,0,1,8,14Z"/><path fill="url(#6rfZFzvSBv_9UOqM5d5u7b)" d="M5,20H43a2,2,0,0,1,2,2V43a0,0,0,0,1,0,0H3a0,0,0,0,1,0,0V22A2,2,0,0,1,5,20Z"/><rect width="2" height="2" x="9" y="16" fill="#0370c8"/><rect width="2" height="2" x="13" y="16" fill="#0370c8"/><rect width="2" height="2" x="17" y="16" fill="#0370c8"/><rect width="2" height="2" x="21" y="16" fill="#0370c8"/><rect width="2" height="2" x="25" y="16" fill="#0370c8"/><rect width="4" height="7" x="19" y="23" fill="#0370c8" rx="1"/><rect width="4" height="7" x="13" y="23" fill="#0370c8" rx="1"/><rect width="4" height="7" x="7" y="23" fill="#0370c8" rx="1"/><rect width="4" height="7" x="13" y="32" fill="#0370c8" rx="1"/><rect width="4" height="7" x="7" y="32" fill="#0370c8" rx="1"/><rect width="4" height="7" x="37" y="32" fill="#0370c8" rx="1"/><rect width="4" height="7" x="31" y="32" fill="#0370c8" rx="1"/><rect width="4" height="7" x="25" y="23" fill="#0370c8" rx="1"/><rect width="4" height="7" x="31" y="23" fill="#0370c8" rx="1"/><rect width="4" height="7" x="37" y="23" fill="#0370c8" rx="1"/><path fill="#0370c8" d="M24,32h0a5,5,0,0,1,5,5v6a0,0,0,0,1,0,0H19a0,0,0,0,1,0,0V37A5,5,0,0,1,24,32Z"/><rect width="2" height="2" x="29" y="16" fill="#0370c8"/><rect width="2" height="2" x="33" y="16" fill="#0370c8"/><rect width="2" height="2" x="37" y="16" fill="#0370c8"/><path fill="url(#6rfZFzvSBv_9UOqM5d5u7c)" d="M30.49036,12.9884c-3.25429-.07819-2.72919-.91225-5.993-.98855A.50456.50456,0,0,1,24,11.50066V8.50074a.50135.50135,0,0,1,.50964-.5006c3.25429.07819,2.72919.91226,5.993.98855A.50457.50457,0,0,1,31,9.48788V12.4878A.50134.50134,0,0,1,30.49036,12.9884Z"/><rect width="34" height="1" x="7" y="19" opacity=".05"/><rect width="34" height=".5" x="7" y="19.5" opacity=".07"/></svg>