<svg xmlns="http://www.w3.org/2000/svg" data-name="Layer 1" viewBox="0 0 48 48"><defs><linearGradient id="SMrSLkYmwTGlWHqVJPb3wa" x1="6.562" x2="47.156" y1="7.438" y2="48.032" gradientUnits="userSpaceOnUse"><stop offset="0" stop-color="#ffcf7b"/><stop offset=".196" stop-color="#fecd76"/><stop offset=".439" stop-color="#fac666"/><stop offset=".709" stop-color="#f3bc4d"/><stop offset=".995" stop-color="#eaad2a"/><stop offset="1" stop-color="#eaad29"/></linearGradient></defs><path fill="url(#SMrSLkYmwTGlWHqVJPb3wa)" d="M44,13a8.58938,8.58938,0,0,1-.3,2.28,9.01772,9.01772,0,0,1-.8,2.04,9.50335,9.50335,0,0,1-1.33,1.83,8.35656,8.35656,0,0,1-1.54,1.3,8.71163,8.71163,0,0,1-4.04,1.49,13.81667,13.81667,0,0,1-3.42,5.49,13.22389,13.22389,0,0,1-7.37,3.85l-1.59,1.59c3.4,1.67,6.9.97,11.56-3.7a4.00223,4.00223,0,1,1,5.66,5.66c-.27.27-.53.52-.8.78-.5.47-1.01.92-1.51,1.33a21.26645,21.26645,0,0,1-7.09,4.07,14.79932,14.79932,0,0,1-2.31.53,12.62844,12.62844,0,0,1-2.12.17,16.56766,16.56766,0,0,1-9.18-3.05l-3.58,3.58a5.99625,5.99625,0,0,1-8.48-8.48l5.29-5.29,1.94-1.94c-3.21-4.64-3.59-8.51-2.65-11.69a12.30661,12.30661,0,0,1,.8-2.02,15.87391,15.87391,0,0,1,1.23-2.03c.4-.55.82-1.08,1.26-1.58.41-.47.83-.91,1.25-1.33a2.99813,2.99813,0,0,1,4.24,4.24c-2.15,2.16-4.7,4.71-2.16,9.48a13.59079,13.59079,0,0,1,3.61-6.17,15.12132,15.12132,0,0,1,1.86-1.58,13.665,13.665,0,0,1,1.77-1.07,12.37375,12.37375,0,0,1,1.86-.77A8.99716,8.99716,0,0,1,44,13Z"/><path fill="#e79d41" d="M43.7,15.28a9.01772,9.01772,0,0,1-.8,2.04l-4.61-4.61a1.0041,1.0041,0,0,1,1.42-1.42Z"/><path fill="#e79d41" d="M41.57,19.15a8.35656,8.35656,0,0,1-1.54,1.3l-2.74-2.74a1.0041,1.0041,0,1,1,1.42-1.42Z"/><path fill="#e79d41" d="M28.71,18.71a1.01409,1.01409,0,0,1-1.42,0l-4.86-4.86a13.665,13.665,0,0,1,1.77-1.07l4.51,4.51A1.008,1.008,0,0,1,28.71,18.71Z"/><path fill="#e79d41" d="M28,26a.99676.99676,0,0,1-.707-.293l-4-4A.99989.99989,0,0,1,24.707,20.293l4,4A1,1,0,0,1,28,26Z"/><path fill="#e79d41" d="M40.03,35.61c-.5.47-1.01.92-1.51,1.33l-2.23-2.23a1.0041,1.0041,0,0,1,1.42-1.42Z"/><path fill="#e79d41" d="M31.43,41.01a14.79932,14.79932,0,0,1-2.31.53l-1.83-1.83a1.0041,1.0041,0,0,1,1.42-1.42Z"/><path fill="#e79d41" d="M33.875,37.875a.99676.99676,0,0,1-.707-.293l-1.875-1.875A.99989.99989,0,1,1,32.707,34.293l1.875,1.875a1,1,0,0,1-.707,1.707Z"/><path fill="#e79d41" d="M13.69,15.28c-.87-.82-1.77-1.69-2.55-2.46a12.30661,12.30661,0,0,0-.8,2.02c.56.53,1.21,1.16,1.97,1.88a.9906.9906,0,0,0,1.41-.03A.98714.98714,0,0,0,13.69,15.28Z"/><path fill="#e79d41" d="M15.71,12.71a1.01409,1.01409,0,0,1-1.42,0l-1.92-1.92c.4-.55.82-1.08,1.26-1.58l2.08,2.08A1.008,1.008,0,0,1,15.71,12.71Z"/><path fill="#e79d41" d="M15.71,31.71a1.01409,1.01409,0,0,1-1.42,0l-3.24-3.24,1.42-1.42L15.71,30.29A1.008,1.008,0,0,1,15.71,31.71Z"/><path fill="#e79d41" d="M14,39a.99676.99676,0,0,1-.707-.293l-4-4A.99989.99989,0,0,1,10.707,33.293l4,4A1,1,0,0,1,14,39Z"/><path fill="#e79d41" d="M21,32a.99676.99676,0,0,1-.707-.293l-3-3A.99989.99989,0,0,1,18.707,27.293l3,3A1,1,0,0,1,21,32Z"/></svg>