<svg xmlns="http://www.w3.org/2000/svg" viewBox="0 0 48 48"><linearGradient id="ArsJeogBr0emIIaSybUuza" x1="24" x2="24" y1="42.739" y2="25.979" gradientUnits="userSpaceOnUse"><stop offset="0" stop-color="#058e91"/><stop offset=".041" stop-color="#058b8e"/><stop offset=".273" stop-color="#037c80"/><stop offset=".551" stop-color="#027477"/><stop offset="1" stop-color="#027175"/></linearGradient><polygon fill="url(#ArsJeogBr0emIIaSybUuza)" points="36.076,26 11.924,26 6.5,43 41.5,43"/><path fill="#1a9ba1" d="M26.235,12L24.595,0.516c-0.098-0.688-1.091-0.688-1.19,0L21.765,12H26.235z"/><path fill="#1a9ba1" d="M32.823,14.285l5.11-10.414c0.306-0.624-0.515-1.183-0.983-0.67l-7.822,8.567L32.823,14.285z"/><path fill="#1a9ba1" d="M34.655,20.651l9.574-6.551c0.573-0.392,0.134-1.283-0.526-1.067l-11.025,3.608L34.655,20.651z"/><path fill="#1a9ba1" d="M33.305,26.834l11.562-0.946c0.693-0.057,0.752-1.048,0.072-1.187l-11.364-2.33L33.305,26.834z"/><path fill="#1a9ba1" d="M18.872,11.768L11.05,3.201c-0.468-0.513-1.289,0.046-0.983,0.67l5.11,10.414L18.872,11.768z"/><path fill="#1a9ba1" d="M15.322,16.642L4.297,13.033c-0.66-0.216-1.1,0.675-0.526,1.067l9.574,6.551L15.322,16.642z"/><path fill="#1a9ba1" d="M14.426,22.371l-11.364,2.33c-0.681,0.14-0.621,1.131,0.072,1.187l11.562,0.946L14.426,22.371z"/><path fill="#37c6d0" d="M30.083,37H24h-6.083c0,0-9.417,0-12.917,7h19h19C39.5,37,30.083,37,30.083,37z"/><path fill="#37c6d0" d="M24,9c-7.285,0-12,3.577-12,11.143C12,33.53,24,35,24,35s12-1.47,12-14.857C36,12.577,31.285,9,24,9z"/><path fill="#1a9ba1" d="M24,13c-8.244,0-10,5.145-10,9.994C14,29.609,17.579,33,17.579,33h12.841	c0,0,3.579-3.391,3.579-10.006C34,18.145,32.244,13,24,13z"/><path fill="#1a9ba1" d="M30,31.771H18V38.4c0,0,0,3.6,6,3.6s6-3.6,6-3.6V31.771z"/><path fill="#37c6d0" d="M32,24.25c0-6.066-3.587-8.25-8-8.25s-8,2.184-8,8.25c0,0.473,0,2.277,0,2.75c0,6.064,3.587,11,8,11	s8-4.936,8-11C32,26.527,32,24.723,32,24.25z"/></svg>