<svg xmlns="http://www.w3.org/2000/svg" viewBox="0 0 48 48"><linearGradient id="Uv0EEHixD7CYnV~kLrFJ_a" x1="12.75" x2="40.798" y1="7.392" y2="35.44" gradientUnits="userSpaceOnUse"><stop offset="0" stop-color="#dfe9f2"/><stop offset=".998" stop-color="#9ea7b0"/></linearGradient><path fill="url(#Uv0EEHixD7CYnV~kLrFJ_a)" d="M16,31h26.716C43.532,28.818,44,26.467,44,24s-0.468-4.818-1.284-7H16V31z"/><linearGradient id="Uv0EEHixD7CYnV~kLrFJ_b" x1="16.77" x2="45.27" y1="3.139" y2="31.639" gradientUnits="userSpaceOnUse"><stop offset="0" stop-color="#21ad64"/><stop offset="1" stop-color="#088242"/></linearGradient><path fill="url(#Uv0EEHixD7CYnV~kLrFJ_b)" d="M24,4c-2.846,0-5.549,0.604-8,1.675V17h26.716C39.875,9.412,32.579,4,24,4z"/><linearGradient id="Uv0EEHixD7CYnV~kLrFJ_c" x1="5.952" x2="34.693" y1="13.256" y2="41.998" gradientUnits="userSpaceOnUse"><stop offset="0" stop-color="#636363"/><stop offset=".998" stop-color="#3b3b3b"/></linearGradient><path fill="url(#Uv0EEHixD7CYnV~kLrFJ_c)" d="M16,42.325C18.451,43.396,21.154,44,24,44c8.579,0,15.875-5.412,18.716-13H16V42.325z"/><linearGradient id="Uv0EEHixD7CYnV~kLrFJ_d" x1="5.234" x2="34.319" y1="14.208" y2="43.294" gradientUnits="userSpaceOnUse"><stop offset="0" stop-color="#f44f5a"/><stop offset=".443" stop-color="#ee3d4a"/><stop offset="1" stop-color="#e52030"/></linearGradient><path fill="url(#Uv0EEHixD7CYnV~kLrFJ_d)" d="M16,17V5.675C8.939,8.763,4,15.801,4,24s4.939,15.237,12,18.325V31V17z"/></svg>