<svg xmlns="http://www.w3.org/2000/svg" viewBox="0 0 48 48"><linearGradient id="nebKK8f2fsptygCZbxORCa" x1="-1177.798" x2="-1202.051" y1="-24.794" y2="-65.698" gradientTransform="rotate(180 -582 -9)" gradientUnits="userSpaceOnUse"><stop offset="0" stop-color="#33bef0"/><stop offset="1" stop-color="#0a85d9"/></linearGradient><path fill="url(#nebKK8f2fsptygCZbxORCa)" d="M24,4c11.046,0,20,8.954,20,20c0,3.637-0.986,7.037-2.682,9.975l4.564,10.384	c0.506,1.151-0.711,2.3-1.831,1.73l-9.754-4.967C31.286,42.937,27.771,44,24,44C12.954,44,4,35.046,4,24S12.954,4,24,4z"/><path d="M18.45,33c-0.435,0-0.858-0.203-1.134-0.542c-0.278-0.344-0.384-0.788-0.292-1.219l1.155-5.448	l-4.138-3.727c-0.433-0.393-0.589-0.979-0.409-1.533c0.18-0.554,0.652-0.937,1.232-0.999l5.538-0.584l2.266-5.086	C22.907,13.331,23.417,13,24.001,13c0.583,0,1.093,0.331,1.331,0.864l2.266,5.086l5.538,0.584c0.58,0.062,1.053,0.444,1.232,0.999	c0.18,0.554,0.023,1.141-0.409,1.531l-4.138,3.728l1.155,5.449c0.092,0.431-0.014,0.875-0.292,1.217	C30.41,32.797,29.985,33,29.551,33c-0.254,0-0.505-0.068-0.728-0.196L24,30.022l-4.822,2.782C18.957,32.932,18.705,33,18.45,33z" opacity=".05"/><path d="M18.45,32.5c-0.286,0-0.564-0.134-0.746-0.357c-0.181-0.224-0.251-0.515-0.19-0.799l1.215-5.73	l-4.352-3.92c-0.284-0.258-0.387-0.643-0.269-1.007s0.429-0.615,0.81-0.656l5.824-0.615l2.384-5.349	c0.156-0.35,0.491-0.567,0.875-0.567c0.383,0,0.718,0.217,0.874,0.567l2.384,5.349l5.824,0.615c0.381,0.041,0.691,0.292,0.81,0.656	c0.118,0.364,0.016,0.75-0.269,1.006l-4.352,3.92l1.215,5.73c0.061,0.283-0.009,0.574-0.19,0.798	c-0.182,0.224-0.461,0.358-0.746,0.358l0,0c-0.166,0-0.331-0.044-0.478-0.129L24,29.445l-5.072,2.926	C18.782,32.456,18.616,32.5,18.45,32.5z" opacity=".07"/><path fill="#fff" d="M23.583,14.271l-2.502,5.613l-6.111,0.645c-0.393,0.042-0.551,0.529-0.258,0.794l4.565,4.113	l-1.274,6.012c-0.082,0.387,0.333,0.688,0.675,0.49L24,28.868l5.323,3.07c0.342,0.197,0.757-0.104,0.675-0.49l-1.274-6.012	l4.565-4.113c0.293-0.264,0.135-0.752-0.258-0.794l-6.111-0.645l-2.502-5.613C24.257,13.91,23.744,13.91,23.583,14.271z"/></svg>