<svg xmlns="http://www.w3.org/2000/svg" viewBox="0 0 48 48"><linearGradient id="NBMV6KI5iRETWnIO-kBj5a" x1="22.511" x2="25.489" y1="26.557" y2="43.443" gradientUnits="userSpaceOnUse"><stop offset="0" stop-color="#3940a4"/><stop offset="1" stop-color="#293091"/></linearGradient><rect width="8" height="16" x="20" y="27" fill="url(#NBMV6KI5iRETWnIO-kBj5a)"/><linearGradient id="NBMV6KI5iRETWnIO-kBj5b" x1="24" x2="24" y1="28.402" y2="24.41" gradientUnits="userSpaceOnUse"><stop offset="0" stop-color="#5c65d6"/><stop offset=".999" stop-color="#464eb0"/></linearGradient><path fill="url(#NBMV6KI5iRETWnIO-kBj5b)" d="M27,28h-6c-1.105,0-2-0.895-2-2v-4h10v4	C29,27.105,28.105,28,27,28z"/><linearGradient id="NBMV6KI5iRETWnIO-kBj5c" x1="24" x2="24" y1="24.685" y2="20.461" gradientUnits="userSpaceOnUse"><stop offset="0" stop-color="#5c65d6"/><stop offset=".999" stop-color="#464eb0"/></linearGradient><path fill="url(#NBMV6KI5iRETWnIO-kBj5c)" d="M27,25h-6c-2.761,0-5-2.239-5-5v0h16v0	C32,22.761,29.761,25,27,25z"/><linearGradient id="NBMV6KI5iRETWnIO-kBj5d" x1="20.554" x2="30.92" y1="4.032" y2="32.513" gradientUnits="userSpaceOnUse"><stop offset="0" stop-color="#7b83eb"/><stop offset="1" stop-color="#5961c3"/></linearGradient><path fill="url(#NBMV6KI5iRETWnIO-kBj5d)" d="M40,21H8c-1.105,0-2-0.895-2-2V8	c0-1.105,0.895-2,2-2h32c1.105,0,2,0.895,2,2v11C42,20.105,41.105,21,40,21z"/><linearGradient id="NBMV6KI5iRETWnIO-kBj5e" x1="21.452" x2="30.239" y1="4.588" y2="28.731" gradientUnits="userSpaceOnUse"><stop offset="0" stop-color="#faf8e5"/><stop offset="1" stop-color="#faeeac"/></linearGradient><path fill="url(#NBMV6KI5iRETWnIO-kBj5e)" d="M38,18H10c-0.552,0-1-0.448-1-1V6h30v11	C39,17.552,38.552,18,38,18z"/><linearGradient id="NBMV6KI5iRETWnIO-kBj5f" x1="24" x2="24" y1="7.908" y2="27.055" gradientUnits="userSpaceOnUse"><stop offset="0" stop-color="#a1aab3"/><stop offset="1" stop-color="#8f979e"/></linearGradient><rect width="30" height="2" x="9" y="10" fill="url(#NBMV6KI5iRETWnIO-kBj5f)"/><rect width="30" height="2" x="9" y="6" fill="#5961c3"/><linearGradient id="NBMV6KI5iRETWnIO-kBj5g" x1="24" x2="24" y1="7.908" y2="27.055" gradientUnits="userSpaceOnUse"><stop offset="0" stop-color="#a1aab3"/><stop offset="1" stop-color="#8f979e"/></linearGradient><rect width="30" height="2" x="9" y="14" fill="url(#NBMV6KI5iRETWnIO-kBj5g)"/></svg>