<svg xmlns="http://www.w3.org/2000/svg" xmlns:xlink="http://www.w3.org/1999/xlink" data-name="Слой 1" viewBox="0 0 48 48"><defs><linearGradient id="lSiSYgR8YC1qw7Mi0czr~a" x1="24" x2="24" y1="44.043" y2="18.974" data-name="Безымянный градиент 129" gradientUnits="userSpaceOnUse"><stop offset="0" stop-color="#ffd869"/><stop offset="1" stop-color="#fec52b"/></linearGradient><linearGradient id="lSiSYgR8YC1qw7Mi0czr~b" x1="15.036" x2="15.036" y1="44.043" y2="18.974" xlink:href="#lSiSYgR8YC1qw7Mi0czr~a"/><linearGradient id="lSiSYgR8YC1qw7Mi0czr~c" x1="32.965" x2="32.965" y1="44.043" y2="18.974" xlink:href="#lSiSYgR8YC1qw7Mi0czr~a"/><linearGradient id="lSiSYgR8YC1qw7Mi0czr~d" x1="21.906" x2="28.065" y1="3.745" y2="20.668" xlink:href="#lSiSYgR8YC1qw7Mi0czr~a"/></defs><path fill="#64717c" d="M30,7h3a1,1,0,0,1,1,1v3a1,1,0,0,1-1,1H30a0,0,0,0,1,0,0V7A0,0,0,0,1,30,7Z"/><path fill="#64717c" d="M16,12l-1.44721-.72361A1,1,0,0,1,14,10.382V8.618a1,1,0,0,1,.55279-.89442L16,7Z"/><path fill="#64717c" d="M22,16h4a1,1,0,0,1,1,1v3a0,0,0,0,1,0,0H21a0,0,0,0,1,0,0V17A1,1,0,0,1,22,16Z"/><rect width="2" height="4" x="23" y="13" fill="#64717c"/><path fill="url(#lSiSYgR8YC1qw7Mi0czr~a)" d="M26,23,25,43a1.00125,1.00125,0,0,1-2,0L22,23a2.0025,2.0025,0,1,1,4-.2C26.00333,22.86638,26.00308,22.935,26,23Z"/><path fill="url(#lSiSYgR8YC1qw7Mi0czr~b)" d="M22.67688,24.09027,8.83844,43.545a1.00087,1.00087,0,0,1-1.67688-1.09L19.32312,21.91031a2.00176,2.00176,0,0,1,3.44516,2.03937C22.74023,23.99706,22.7081,24.04608,22.67688,24.09027Z"/><path fill="url(#lSiSYgR8YC1qw7Mi0czr~c)" d="M28.67688,21.91031,40.83844,42.455a1.00087,1.00087,0,0,1-1.67688,1.09L25.32312,24.09027a2.00175,2.00175,0,0,1,3.26236-2.32057C28.6174,21.81456,28.64917,21.86383,28.67688,21.91031Z"/><path fill="#889097" d="M20,18h8a2,2,0,0,1,2,2v2a1,1,0,0,1-1,1H19a1,1,0,0,1-1-1V20A2,2,0,0,1,20,18Z"/><path d="M29.55,23.39l-.25-.44A.99363.99363,0,0,1,29,23H19a.99363.99363,0,0,1-.3-.05l-.25.44-.26.43A1.84758,1.84758,0,0,0,19,24H29a1.84758,1.84758,0,0,0,.81-.18Z" opacity=".05"/><path d="M29.3,22.95A.99363.99363,0,0,1,29,23H19a.99363.99363,0,0,1-.3-.05l-.25.44a1.45957,1.45957,0,0,0,.55.11H29a1.45957,1.45957,0,0,0,.55-.11Z" opacity=".07"/><rect width="16" height="9" x="16" y="5" fill="url(#lSiSYgR8YC1qw7Mi0czr~d)" rx="2"/><path fill="#c28200" d="M18,5h0a0,0,0,0,1,0,0v9a0,0,0,0,1,0,0h0a2,2,0,0,1-2-2V7A2,2,0,0,1,18,5Z"/><circle cx="24.5" cy="9.5" r="1.5" fill="#64717c"/></svg>