<svg xmlns="http://www.w3.org/2000/svg" viewBox="0 0 48 48"><linearGradient id="_TyPKz9sJxh2tAr3U2Xxfa" x1="23.996" x2="23.996" y1="15" y2="35" gradientUnits="userSpaceOnUse"><stop offset=".002" stop-color="#427fdb"/><stop offset=".397" stop-color="#2668cb"/><stop offset=".763" stop-color="#1358bf"/><stop offset="1" stop-color="#0c52bb"/></linearGradient><path fill="url(#_TyPKz9sJxh2tAr3U2Xxfa)" d="M38.1,15h-4.402c-0.217,0-0.331,0.258-0.184,0.419L40.45,23H30.29l-7.63-7.18	C22.1,15.29,21.37,15,20.6,15H9.026c-0.301,0-0.586,0.136-0.776,0.369l-7.655,9.42c-0.162,0.199-0.147,0.488,0.035,0.669	l9.258,9.249C10.075,34.895,10.329,35,10.594,35h4.623c0.223,0,0.334-0.269,0.177-0.427L7.83,27h10.34l7.123,7.123	C25.855,34.685,26.616,35,27.41,35h11.046c0.288,0,0.563-0.125,0.753-0.342l8.177-9.351c0.168-0.192,0.164-0.479-0.008-0.667	l-8.54-9.316C38.648,15.118,38.38,15,38.1,15z M37.09,31h-9.26l-7.12-7.12C20.15,23.32,19.38,23,18.59,23H7.2l3.25-4h9.76l7.63,7.18	C28.4,26.71,29.13,27,29.9,27h10.69L37.09,31z"/></svg>