<svg xmlns="http://www.w3.org/2000/svg" viewBox="0 0 48 48"><linearGradient id="r2pmIqzN9iZxKEm1tbiRua" x1="-7.018" x2="39.387" y1="9.308" y2="33.533" gradientUnits="userSpaceOnUse"><stop offset="0" stop-color="#fac017"/><stop offset=".909" stop-color="#e1ab2d"/></linearGradient><path fill="url(#r2pmIqzN9iZxKEm1tbiRua)" d="M44.5,41h-41C2.119,41,1,39.881,1,38.5v-31C1,6.119,2.119,5,3.5,5h11.597	c1.519,0,2.955,0.69,3.904,1.877L21.5,10h23c1.381,0,2.5,1.119,2.5,2.5v26C47,39.881,45.881,41,44.5,41z"/><linearGradient id="r2pmIqzN9iZxKEm1tbiRub" x1="16.865" x2="44.965" y1="39.287" y2="39.792" gradientUnits="userSpaceOnUse"><stop offset="0" stop-color="#e3a917"/><stop offset=".464" stop-color="#d79c1e"/></linearGradient><path fill="url(#r2pmIqzN9iZxKEm1tbiRub)" d="M1,37.875V38.5C1,39.881,2.119,41,3.5,41h41c1.381,0,2.5-1.119,2.5-2.5v-0.625H1z"/><linearGradient id="r2pmIqzN9iZxKEm1tbiRuc" x1="-4.879" x2="35.968" y1="12.764" y2="30.778" gradientUnits="userSpaceOnUse"><stop offset=".34" stop-color="#ffefb2"/><stop offset=".485" stop-color="#ffedad"/><stop offset=".652" stop-color="#ffe99f"/><stop offset=".828" stop-color="#fee289"/><stop offset="1" stop-color="#fed86b"/></linearGradient><path fill="url(#r2pmIqzN9iZxKEm1tbiRuc)" d="M44.5,11h-23l-1.237,0.824C19.114,12.591,17.763,13,16.381,13H3.5C2.119,13,1,14.119,1,15.5	v22C1,38.881,2.119,40,3.5,40h41c1.381,0,2.5-1.119,2.5-2.5v-24C47,12.119,45.881,11,44.5,11z"/><radialGradient id="r2pmIqzN9iZxKEm1tbiRud" cx="37.836" cy="49.317" r="53.875" gradientUnits="userSpaceOnUse"><stop offset=".199" stop-color="#fec832"/><stop offset=".601" stop-color="#fcd667"/><stop offset=".68" stop-color="#fdda75"/><stop offset=".886" stop-color="#fee496"/><stop offset="1" stop-color="#ffe8a2"/></radialGradient><path fill="url(#r2pmIqzN9iZxKEm1tbiRud)" d="M44.5,40h-41C2.119,40,1,38.881,1,37.5v-21C1,15.119,2.119,14,3.5,14h13.256	c1.382,0,2.733-0.409,3.883-1.176L21.875,12H44.5c1.381,0,2.5,1.119,2.5,2.5v23C47,38.881,45.881,40,44.5,40z"/><linearGradient id="r2pmIqzN9iZxKEm1tbiRue" x1="18.999" x2="29.001" y1="17.338" y2="34.662" gradientUnits="userSpaceOnUse"><stop offset="0" stop-color="#c78902"/><stop offset="1" stop-color="#986700"/></linearGradient><path fill="url(#r2pmIqzN9iZxKEm1tbiRue)" d="M24,16c-5.523,0-10,4.477-10,10c0,5.523,4.477,10,10,10s10-4.477,10-10	C34,20.477,29.523,16,24,16z M24,18.5c2.071,0,3.75,1.679,3.75,3.75c0,2.071-1.679,3.75-3.75,3.75s-3.75-1.679-3.75-3.75	C20.25,20.179,21.929,18.5,24,18.5z M24,33.499c-5,0-6.5-3.007-6.5-4.249c0-1.243,1.007-2.25,2.25-2.25s7.257,0,8.5,0	s2.25,1.007,2.25,2.25C30.5,30.493,29,33.499,24,33.499z"/></svg>