<svg xmlns="http://www.w3.org/2000/svg" viewBox="0 0 48 48"><path fill="#ccc" d="M9,5h30c1.105,0,2,0.895,2,2v35H7V7C7,5.895,7.895,5,9,5z"/><path fill="#999" d="M7,41h34v1c0,1.105-0.895,2-2,2H9c-1.105,0-2-0.895-2-2V41z"/><path fill="#c94f60" d="M39,5H9C7.9,5,7,5.9,7,7v2h34V7C41,5.9,40.1,5,39,5z"/><path fill="#199be2" d="M24,31h7c0.552,0,1,0.448,1,1v10h-8V31z"/><path fill="#199be2" d="M17,31h7v11h-8V32C16,31.448,16.448,31,17,31z"/><rect width="8" height="3" x="24" y="41" fill="#0078d4"/><rect width="8" height="3" x="16" y="41" fill="#0078d4"/><circle cx="28" cy="38" r="1" fill="#0078d4"/><circle cx="20" cy="38" r="1" fill="#0078d4"/><linearGradient id="gzJ4ytePM~rkJ1mq926KWa" x1="23" x2="25" y1="619.5" y2="619.5" gradientTransform="matrix(1 0 0 -1 0 662)" gradientUnits="userSpaceOnUse"><stop offset="0" stop-color="#1d59b3"/><stop offset="1" stop-color="#195bbc"/></linearGradient><rect width="2" height="3" x="23" y="41" fill="url(#gzJ4ytePM~rkJ1mq926KWa)"/><linearGradient id="gzJ4ytePM~rkJ1mq926KWb" x1="23" x2="25" y1="626" y2="626" gradientTransform="matrix(1 0 0 -1 0 662)" gradientUnits="userSpaceOnUse"><stop offset="0" stop-color="#3079d6"/><stop offset="1" stop-color="#297cd2"/></linearGradient><path fill="url(#gzJ4ytePM~rkJ1mq926KWb)" d="M23,31h2v10h-2V31z"/><rect width="6" height="6" x="11" y="17" fill="#199be2"/><rect width="6" height="6" x="21" y="17" fill="#199be2"/><rect width="6" height="6" x="31" y="17" fill="#199be2"/><path fill="#bf2336" d="M41,9H7l-2.168,1.445C4.312,10.792,4,11.375,4,12l0,0c0,1.105,0.895,2,2,2h36c1.105,0,2-0.895,2-2	l0,0c0-0.625-0.312-1.208-0.832-1.555L41,9z"/><path fill="#999" d="M41.5,28h-35C6.224,28,6,27.776,6,27.5v-1C6,26.224,6.224,26,6.5,26h35c0.276,0,0.5,0.224,0.5,0.5v1	C42,27.776,41.776,28,41.5,28z"/></svg>