<svg xmlns="http://www.w3.org/2000/svg" viewBox="0 0 48 48"><path fill="#184f85" d="M24,4c-0.552,0-1,0.448-1,1v2h2V5C25,4.448,24.552,4,24,4z"/><linearGradient id="E1LUfi4Yh0aAFqe5PCxfTa" x1="17" x2="31" y1="28.5" y2="28.5" gradientUnits="userSpaceOnUse"><stop offset="0" stop-color="#0f5695"/><stop offset=".963" stop-color="#134575"/></linearGradient><path fill="url(#E1LUfi4Yh0aAFqe5PCxfTa)" d="M29.999,44c-0.464,0-0.881-0.325-0.979-0.798L24,18.936l-5.021,24.267	c-0.112,0.541-0.645,0.885-1.182,0.777c-0.541-0.112-0.889-0.642-0.777-1.182l6-29C23.117,13.333,23.525,13,24,13	s0.883,0.333,0.979,0.798l6,29c0.111,0.54-0.236,1.069-0.777,1.182C30.135,43.993,30.066,44,29.999,44z"/><path fill="#0078d4" d="M37,6H11c-0.552,0-1,0.448-1,1v29c0,0.552,0.448,1,1,1h26c0.552,0,1-0.448,1-1V7	C38,6.448,37.552,6,37,6z"/><linearGradient id="E1LUfi4Yh0aAFqe5PCxfTb" x1="20.749" x2="20.749" y1="31.948" y2="6.823" gradientUnits="userSpaceOnUse"><stop offset="0" stop-color="#33bef0"/><stop offset="1" stop-color="#0a85d9"/></linearGradient><path fill="url(#E1LUfi4Yh0aAFqe5PCxfTb)" d="M9.98,7C9.771,21.148,5.251,29.535,3.597,32.127C3.355,32.507,3.628,33,4.079,33h26.47	c0.302,0,0.583-0.135,0.775-0.368c1.35-1.638,6.467-8.945,6.667-25.632H9.98z"/><path fill="#50e6ff" d="M38,6H10C9.448,6,9,6.448,9,7c0,0.552,0.448,1,1,1h28c0.552,0,1-0.448,1-1C39,6.448,38.552,6,38,6z"/></svg>