<svg xmlns="http://www.w3.org/2000/svg" viewBox="0 0 48 48"><radialGradient id="J1n6Tz1bhPO0VFSZcRoXLa" cx="41.96" cy="347.712" r="51.83" gradientTransform="matrix(1 0 0 -1 0 390)" gradientUnits="userSpaceOnUse"><stop offset="0" stop-color="#9e6fd9"/><stop offset=".173" stop-color="#aa73c7"/><stop offset=".522" stop-color="#ca7f97"/><stop offset="1" stop-color="#fc914d"/></radialGradient><path fill="url(#J1n6Tz1bhPO0VFSZcRoXLa)" d="M40,6H8C6.895,6,6,6.895,6,8v32c0,1.105,0.895,2,2,2h32c1.105,0,2-0.895,2-2V8	C42,6.895,41.105,6,40,6z"/><path d="M22.8,40c-0.992,0-1.8-0.808-1.8-1.8v-2.4c0-0.992,0.808-1.8,1.8-1.8h2.4c0.992,0,1.8,0.808,1.8,1.8	v2.4c0,0.992-0.808,1.8-1.8,1.8H22.8z" opacity=".05"/><path d="M22.8,39.5c-0.717,0-1.3-0.583-1.3-1.3v-2.4c0-0.717,0.583-1.3,1.3-1.3h2.4	c0.717,0,1.3,0.583,1.3,1.3v2.4c0,0.717-0.583,1.3-1.3,1.3H22.8z" opacity=".07"/><path fill="#fff" d="M25.2,39h-2.4c-0.442,0-0.8-0.358-0.8-0.8v-2.4c0-0.442,0.358-0.8,0.8-0.8h2.4	c0.442,0,0.8,0.358,0.8,0.8v2.4C26,38.642,25.642,39,25.2,39z"/><path d="M28.8,40c-0.992,0-1.8-0.808-1.8-1.8v-2.4c0-0.992,0.808-1.8,1.8-1.8h2.4c0.992,0,1.8,0.808,1.8,1.8	v2.4c0,0.992-0.808,1.8-1.8,1.8H28.8z" opacity=".05"/><path d="M28.8,39.5c-0.717,0-1.3-0.583-1.3-1.3v-2.4c0-0.717,0.583-1.3,1.3-1.3h2.4	c0.717,0,1.3,0.583,1.3,1.3v2.4c0,0.717-0.583,1.3-1.3,1.3H28.8z" opacity=".07"/><path fill="#fff" d="M31.2,39h-2.4c-0.442,0-0.8-0.358-0.8-0.8v-2.4c0-0.442,0.358-0.8,0.8-0.8h2.4	c0.442,0,0.8,0.358,0.8,0.8v2.4C32,38.642,31.642,39,31.2,39z"/><path d="M34.8,40c-0.992,0-1.8-0.808-1.8-1.8v-2.4c0-0.992,0.808-1.8,1.8-1.8h2.4c0.992,0,1.8,0.808,1.8,1.8	v2.4c0,0.992-0.808,1.8-1.8,1.8H34.8z" opacity=".05"/><path d="M34.8,39.5c-0.717,0-1.3-0.583-1.3-1.3v-2.4c0-0.717,0.583-1.3,1.3-1.3h2.4	c0.717,0,1.3,0.583,1.3,1.3v2.4c0,0.717-0.583,1.3-1.3,1.3H34.8z" opacity=".07"/><path fill="#fff" d="M37.2,39h-2.4c-0.442,0-0.8-0.358-0.8-0.8v-2.4c0-0.442,0.358-0.8,0.8-0.8h2.4	c0.442,0,0.8,0.358,0.8,0.8v2.4C38,38.642,37.642,39,37.2,39z"/><path d="M10.8,40C9.808,40,9,39.192,9,38.2v-2.4c0-0.992,0.808-1.8,1.8-1.8h2.4c0.992,0,1.8,0.808,1.8,1.8	v2.4c0,0.992-0.808,1.8-1.8,1.8H10.8z" opacity=".05"/><path d="M10.8,39.5c-0.717,0-1.3-0.583-1.3-1.3v-2.4c0-0.717,0.583-1.3,1.3-1.3h2.4	c0.717,0,1.3,0.583,1.3,1.3v2.4c0,0.717-0.583,1.3-1.3,1.3H10.8z" opacity=".07"/><path fill="#fff" d="M13.2,39h-2.4c-0.442,0-0.8-0.358-0.8-0.8v-2.4c0-0.442,0.358-0.8,0.8-0.8h2.4	c0.442,0,0.8,0.358,0.8,0.8v2.4C14,38.642,13.642,39,13.2,39z"/><path d="M16.8,40c-0.992,0-1.8-0.808-1.8-1.8v-2.4c0-0.992,0.808-1.8,1.8-1.8h2.4c0.992,0,1.8,0.808,1.8,1.8	v2.4c0,0.992-0.808,1.8-1.8,1.8H16.8z" opacity=".05"/><path d="M16.8,39.5c-0.717,0-1.3-0.583-1.3-1.3v-2.4c0-0.717,0.583-1.3,1.3-1.3h2.4	c0.717,0,1.3,0.583,1.3,1.3v2.4c0,0.717-0.583,1.3-1.3,1.3H16.8z" opacity=".07"/><path fill="#fff" d="M19.2,39h-2.4c-0.442,0-0.8-0.358-0.8-0.8v-2.4c0-0.442,0.358-0.8,0.8-0.8h2.4	c0.442,0,0.8,0.358,0.8,0.8v2.4C20,38.642,19.642,39,19.2,39z"/></svg>