<svg xmlns="http://www.w3.org/2000/svg" viewBox="0 0 48 48"><path fill="#35c1f1" d="M42.499,45c-0.286,0-0.575-0.081-0.831-0.252c-5.529-3.687-4.755-10.622-3.572-13.774 c0.291-0.776,1.156-1.168,1.931-0.878c0.774,0.29,1.167,1.152,0.879,1.928l0,0c-0.104,0.282-2.494,6.948,2.426,10.229 c0.689,0.46,0.875,1.391,0.416,2.08C43.459,44.766,42.983,45,42.499,45z"/><linearGradient id="ZF7CqjRcxEKw9nFRXicoUa" x1="21.63" x2="28.311" y1="8.007" y2="47.452" gradientUnits="userSpaceOnUse"><stop offset="0" stop-color="#889097"/><stop offset="1" stop-color="#64717c"/></linearGradient><path fill="url(#ZF7CqjRcxEKw9nFRXicoUa)" d="M43.899,19.959c-0.927-9.36-8.498-16.931-17.858-17.858 C13.391,0.849,2.849,11.391,4.101,24.041c0.927,9.36,8.498,16.931,17.858,17.858C34.609,43.151,45.151,32.609,43.899,19.959z"/><path fill="#eef2f3" d="M23.796,23.99c-0.936-0.093-1.693-0.85-1.786-1.786c-0.125-1.265,0.929-2.319,2.194-2.194 c0.936,0.093,1.693,0.85,1.786,1.786C26.115,23.061,25.061,24.115,23.796,23.99z"/><path fill="#35c1f1" d="M28.975,10.49c0.313,3.162-2.323,5.798-5.485,5.485c-2.34-0.232-4.233-2.124-4.465-4.465 c-0.313-3.162,2.323-5.798,5.485-5.485C26.85,6.257,28.743,8.15,28.975,10.49z M24.51,28.025c-3.162-0.313-5.798,2.323-5.485,5.485 c0.232,2.34,2.124,4.233,4.465,4.465c3.162,0.313,5.798-2.323,5.485-5.485C28.743,30.15,26.85,28.257,24.51,28.025z M12.49,17.025 c-2.34,0.232-4.233,2.125-4.465,4.465c-0.313,3.162,2.323,5.798,5.485,5.485c2.34-0.232,4.233-2.124,4.465-4.465 C18.288,19.348,15.652,16.712,12.49,17.025z M34.49,17.025c-2.34,0.232-4.233,2.125-4.465,4.465 c-0.313,3.162,2.323,5.798,5.485,5.485c2.34-0.232,4.233-2.124,4.465-4.465C40.288,19.348,37.652,16.712,34.49,17.025z"/></svg>