<svg xmlns="http://www.w3.org/2000/svg" viewBox="0 0 48 48"><path fill="#16538c" d="M34.999,42c-0.464,0-0.881-0.325-0.979-0.798L29,16.936l-5.021,24.267	c-0.112,0.541-0.645,0.885-1.182,0.777c-0.541-0.112-0.889-0.642-0.777-1.182l6-29C28.117,11.333,28.525,11,29,11	s0.883,0.333,0.979,0.798l6,29c0.111,0.54-0.236,1.069-0.777,1.182C35.135,41.993,35.066,42,34.999,42z"/><radialGradient id="wB_kcA~EcWDGg2nYIKYcIa" cx="50.216" cy="38.712" r="51.161" gradientUnits="userSpaceOnUse"><stop offset=".131" stop-color="#23d9d6"/><stop offset=".214" stop-color="#21bddd"/><stop offset=".364" stop-color="#1e90e7"/><stop offset=".508" stop-color="#1b6cf0"/><stop offset=".642" stop-color="#1953f6"/><stop offset=".764" stop-color="#1843fa"/><stop offset=".862" stop-color="#183efb"/></radialGradient><path fill="url(#wB_kcA~EcWDGg2nYIKYcIa)" d="M42,6H16c-0.552,0-1,0.448-1,1v22c0,0.552,0.448,1,1,1h26c0.552,0,1-0.448,1-1V7	C43,6.448,42.552,6,42,6z"/><path d="M22.5,15c-0.171,0-7.5,0-7.5,0v5c0,0,7.329,0,7.5,0c1.381,0,2.5-1.119,2.5-2.5	C25,16.119,23.881,15,22.5,15z" opacity=".05"/><path d="M22.5,15.5c-0.174,0-7.5,0-7.5,0v4c0,0,7.326,0,7.5,0c1.105,0,2-0.895,2-2	C24.5,16.395,23.605,15.5,22.5,15.5z" opacity=".07"/><linearGradient id="wB_kcA~EcWDGg2nYIKYcIb" x1="6.239" x2="11.739" y1="7.239" y2="12.739" gradientUnits="userSpaceOnUse"><stop offset="0" stop-color="#32bdef"/><stop offset="1" stop-color="#1ea2e4"/></linearGradient><path fill="url(#wB_kcA~EcWDGg2nYIKYcIb)" d="M9,14c-2.2,0-4-1.8-4-4s1.8-4,4-4s4,1.8,4,4S11.2,14,9,14"/><linearGradient id="wB_kcA~EcWDGg2nYIKYcIc" x1="4.42" x2="14.841" y1="15.295" y2="41.933" gradientUnits="userSpaceOnUse"><stop offset="0" stop-color="#32bdef"/><stop offset="1" stop-color="#1ea2e4"/></linearGradient><path fill="url(#wB_kcA~EcWDGg2nYIKYcIc)" d="M13,26h-3v14.5c0,0.828,0.672,1.5,1.5,1.5h0c0.828,0,1.5-0.672,1.5-1.5V26z"/><linearGradient id="wB_kcA~EcWDGg2nYIKYcId" x1=".206" x2="10.627" y1="17.303" y2="43.941" gradientUnits="userSpaceOnUse"><stop offset="0" stop-color="#32bdef"/><stop offset="1" stop-color="#1ea2e4"/></linearGradient><path fill="url(#wB_kcA~EcWDGg2nYIKYcId)" d="M8,26H5v14.5C5,41.328,5.672,42,6.5,42h0C7.328,42,8,41.328,8,40.5V26z"/><linearGradient id="wB_kcA~EcWDGg2nYIKYcIe" x1="10.34" x2="20.105" y1="13.973" y2="38.934" gradientUnits="userSpaceOnUse"><stop offset="0" stop-color="#32bdef"/><stop offset="1" stop-color="#1ea2e4"/></linearGradient><path fill="url(#wB_kcA~EcWDGg2nYIKYcIe)" d="M22.5,16H9c-2.209,0-4,1.791-4,4v12h3c0-0.552,0.448-1,1-1s1,0.448,1,1h3V20	c0-0.552,0.448-1,1-1h8.5c0.828,0,1.5-0.672,1.5-1.5S23.328,16,22.5,16z"/></svg>