<svg xmlns="http://www.w3.org/2000/svg" xmlns:xlink="http://www.w3.org/1999/xlink" data-name="Слой 1" viewBox="0 0 48 48"><defs><linearGradient id="oMPF~r1Lk0UVZwgreRk1ma" x1="42.311" x2="36.392" y1="21.073" y2="22.492" data-name="Безымянный градиент 80" gradientUnits="userSpaceOnUse"><stop offset="0" stop-color="#afb6bc"/><stop offset=".925" stop-color="#9aa0a5"/></linearGradient><linearGradient id="oMPF~r1Lk0UVZwgreRk1mb" x1="4.395" x2="10.069" y1="19.995" y2="22" gradientTransform="rotate(-180 9 22.5)" xlink:href="#oMPF~r1Lk0UVZwgreRk1ma"/><linearGradient id="oMPF~r1Lk0UVZwgreRk1mc" x1="24" x2="24" y1=".204" y2="61.893" data-name="Безымянный градиент 39" gradientUnits="userSpaceOnUse"><stop offset="0" stop-color="#889097"/><stop offset="1" stop-color="#4c5963"/></linearGradient><linearGradient id="oMPF~r1Lk0UVZwgreRk1md" x1="24" x2="24" y1="16.636" y2="54.711" xlink:href="#oMPF~r1Lk0UVZwgreRk1ma"/></defs><path fill="url(#oMPF~r1Lk0UVZwgreRk1ma)" d="M36,17h2a4,4,0,0,1,4,4v1a6,6,0,0,1-6,6h0a0,0,0,0,1,0,0V17A0,0,0,0,1,36,17Z"/><path fill="url(#oMPF~r1Lk0UVZwgreRk1mb)" d="M6,17H6a6,6,0,0,1,6,6v1a4,4,0,0,1-4,4H6a0,0,0,0,1,0,0V17a0,0,0,0,1,0,0Z" transform="rotate(180 9 22.5)"/><path fill="url(#oMPF~r1Lk0UVZwgreRk1mc)" d="M35.25867,11.8914a11.5738,11.5738,0,0,0-22.51734,0S8,26.47368,8,29.53547v1.02059C8,37.465,15.72278,41.66965,23.22037,44.84439a1.95732,1.95732,0,0,0,1.52963,0C32.24759,41.66965,40,37.465,40,30.55606V29.53547C40,26.47368,35.25867,11.8914,35.25867,11.8914Z"/><path fill="url(#oMPF~r1Lk0UVZwgreRk1md)" d="M35,21.5c0-2.48529-2.68628-4.5-6-4.5a7.25683,7.25683,0,0,0-3.86476,1.05931,2.0994,2.0994,0,0,1-2.27048,0A7.25683,7.25683,0,0,0,19,17c-3.31372,0-6,2.01471-6,4.5S15.68628,26,19,26a7.96431,7.96431,0,0,0,1.01855-.06964A12.34218,12.34218,0,0,0,16.75,34c0,4.41827,3.24591,6,7.25,6s7.25-1.58173,7.25-6a12.34218,12.34218,0,0,0-3.26855-8.06964A7.96431,7.96431,0,0,0,29,26C32.31372,26,35,23.98529,35,21.5Z"/><path fill="#343434" d="M31,20.831A2.14768,2.14768,0,0,1,28.767,23,1.65483,1.65483,0,0,1,27,21.667l4-1.333Z"/><path fill="#343434" d="M17,20.333l4,1.333A1.65469,1.65469,0,0,1,19.233,23,2.14768,2.14768,0,0,1,17,20.831Z"/><circle cx="26" cy="29" r="1" fill="#343434"/><circle cx="22" cy="29" r="1" fill="#343434"/><rect width="8" height="2" x="20" y="33" fill="#4c5963" rx="1"/></svg>