<svg xmlns="http://www.w3.org/2000/svg" data-name="Слой 1" viewBox="0 0 48 48"><defs><linearGradient id="CyMEVBPsqtCbGJxbKQWH3a" x1="-568.143" x2="-568.143" y1="335.305" y2="332.163" data-name="Безымянный градиент 44" gradientTransform="matrix(0 -1 -1 0 370.277 -544.143)" gradientUnits="userSpaceOnUse"><stop offset=".441" stop-color="#999998"/><stop offset=".653" stop-color="#c1c1c0"/><stop offset=".88" stop-color="#e5e5e5"/><stop offset="1" stop-color="#f3f3f3"/></linearGradient><linearGradient id="CyMEVBPsqtCbGJxbKQWH3b" x1="3.638" x2="15.691" y1="215.428" y2="182.595" data-name="Безымянный градиент 43" gradientTransform="matrix(1 0 0 -1 0 224)" gradientUnits="userSpaceOnUse"><stop offset="0" stop-color="#0176d0"/><stop offset="1" stop-color="#16538c"/></linearGradient><linearGradient id="CyMEVBPsqtCbGJxbKQWH3c" x1="16.78" x2="31.215" y1="218.846" y2="179.525" data-name="Безымянный градиент 42" gradientTransform="matrix(1 0 0 -1 0 224)" gradientUnits="userSpaceOnUse"><stop offset="0" stop-color="#33bef0"/><stop offset="1" stop-color="#22a5e2"/></linearGradient><linearGradient id="CyMEVBPsqtCbGJxbKQWH3d" x1="21.98" x2="27.067" y1="2.618" y2="21.205" data-name="Новый образец градиентной зал 5" gradientUnits="userSpaceOnUse"><stop offset="0" stop-color="#f9f9f9"/><stop offset=".26" stop-color="#f0f1f2"/><stop offset=".678" stop-color="#d9dcdf"/><stop offset="1" stop-color="#c2c8cc"/></linearGradient><linearGradient id="CyMEVBPsqtCbGJxbKQWH3e" x1="21.186" x2="31.272" y1="21.267" y2="48.98" data-name="Безымянный градиент 250" gradientUnits="userSpaceOnUse"><stop offset="0" stop-color="#fed100"/><stop offset="1" stop-color="#e38101"/></linearGradient></defs><path fill="#1783bd" d="M41,6V42a1.99945,1.99945,0,0,1-2,2H34V4h5A1.99945,1.99945,0,0,1,41,6Z"/><path fill="url(#CyMEVBPsqtCbGJxbKQWH3a)" d="M39,6V42a1.99945,1.99945,0,0,1-2,2H31V4h6A1.99945,1.99945,0,0,1,39,6Z"/><path fill="url(#CyMEVBPsqtCbGJxbKQWH3b)" d="M7,6V42a1.99945,1.99945,0,0,0,2,2h2V4H9A1.99945,1.99945,0,0,0,7,6Z"/><path fill="url(#CyMEVBPsqtCbGJxbKQWH3c)" d="M35,4H11V44H35a1.99945,1.99945,0,0,0,2-2V6A1.99945,1.99945,0,0,0,35,4Z"/><rect width="20" height="4" x="14" y="8" fill="url(#CyMEVBPsqtCbGJxbKQWH3d)" rx="1"/><path d="M26.045,21.84142a.54766.54766,0,0,1,.48841.29647l1.0404,2.00718,2.08231-.7726a.548.548,0,0,1,.73962.493l.08719,2.20153,2.06729.38321a.54907.54907,0,0,1,.34644.85942L31.6868,29l1.21,1.689a.549.549,0,0,1-.34613.85958l-2.06714.3837-.0867,2.20143a.548.548,0,0,1-.73944.49323l-2.08328-.77216L26.53394,35.862a.54891.54891,0,0,1-.85688.15358L24,34.49057l-1.67648,1.525a.5489.5489,0,0,1-.85691-.15348l-1.0404-2.00718-2.08231.7726a.548.548,0,0,1-.73962-.493L17.51709,31.933l-2.06729-.38321a.54907.54907,0,0,1-.34644-.85942L16.3132,29l-1.21-1.689a.549.549,0,0,1,.34613-.85958l2.06714-.3837.0867-2.20143a.548.548,0,0,1,.73944-.49323l2.08328.77216,1.04016-2.0072a.54891.54891,0,0,1,.85688-.15358L24,23.50943l1.67648-1.525a.5446.5446,0,0,1,.3685-.143m0-1a1.54467,1.54467,0,0,0-1.04138.40324l-1.00372.913-1.00418-.91315a1.5489,1.5489,0,0,0-2.41748.43331l-.63352,1.2225-1.25454-.465a1.548,1.548,0,0,0-2.08622,1.39157l-.05526,1.40331-1.28183.238a1.549,1.549,0,0,0-.97654,2.4252l.79294,1.10687-.79306,1.10808a1.54906,1.54906,0,0,0,.97736,2.42468l1.28192.23763.0556,1.40344a1.548,1.548,0,0,0,2.0867,1.391L19.94522,35.1l.63358,1.22229a1.54889,1.54889,0,0,0,2.4176.433l1.00372-.913,1.00418.91315a1.5489,1.5489,0,0,0,2.41748-.43331l.63352-1.2225,1.25454.465a1.548,1.548,0,0,0,2.08622-1.39157l.05526-1.40331,1.28183-.23795a1.549,1.549,0,0,0,.97654-2.4252l-.79294-1.10687.79306-1.10808a1.54906,1.54906,0,0,0-.97736-2.42468l-1.28192-.23763-.0556-1.40344a1.548,1.548,0,0,0-2.0867-1.391l-1.25345.465L27.4212,21.6777a1.54453,1.54453,0,0,0-1.37622-.83628Z" opacity=".05"/><path d="M26.045,21.84142a.54766.54766,0,0,1,.48841.29647l1.0404,2.00718,2.08231-.7726a.548.548,0,0,1,.73962.493l.08719,2.20153,2.06729.38321a.54907.54907,0,0,1,.34644.85942L31.6868,29l1.21,1.689a.549.549,0,0,1-.34613.85958l-2.06714.3837-.0867,2.20143a.548.548,0,0,1-.73944.49323l-2.08328-.77216L26.53394,35.862a.54891.54891,0,0,1-.85688.15358L24,34.49057l-1.67648,1.525a.5489.5489,0,0,1-.85691-.15348l-1.0404-2.00718-2.08231.7726a.548.548,0,0,1-.73962-.493L17.51709,31.933l-2.06729-.38321a.54907.54907,0,0,1-.34644-.85942L16.3132,29l-1.21-1.689a.549.549,0,0,1,.34613-.85958l2.06714-.3837.0867-2.20143a.548.548,0,0,1,.73944-.49323l2.08328.77216,1.04016-2.0072a.54891.54891,0,0,1,.85688-.15358L24,23.50943l1.67648-1.525a.5446.5446,0,0,1,.3685-.143m0-.5a1.04579,1.04579,0,0,0-.705.27311l-1.34009,1.219-1.34061-1.21907a1.04893,1.04893,0,0,0-1.6372.29342l-.83683,1.61487-1.66891-.61857a1.04794,1.04794,0,0,0-1.41281.94239l-.071,1.80237-1.6745.31082a1.049,1.049,0,0,0-.66131,1.64238l1.00146,1.39795-1.00146,1.39922a1.04908,1.04908,0,0,0,.66189,1.64206l1.67462.31041.07139,1.80249a1.048,1.048,0,0,0,1.41317.942l1.66785-.61884.837,1.61475a1.04891,1.04891,0,0,0,1.63726.29326l1.34009-1.219,1.34061,1.21907a1.04893,1.04893,0,0,0,1.6372-.29342l.83683-1.61487,1.66891.61857a1.04794,1.04794,0,0,0,1.41281-.94239l.071-1.80237,1.6745-.31082a1.049,1.049,0,0,0,.66131-1.64238l-1.00146-1.39795,1.00146-1.39922a1.04908,1.04908,0,0,0-.66189-1.64206l-1.67462-.31041-.07139-1.80249a1.048,1.048,0,0,0-1.41317-.942l-1.66785.61884-.837-1.61475a1.04625,1.04625,0,0,0-.93231-.56637Z" opacity=".07"/><path fill="url(#CyMEVBPsqtCbGJxbKQWH3e)" d="M31.68679,29l1.20983-1.69035a.54905.54905,0,0,0-.34641-.85942L30.48292,26.067l-.08721-2.20153a.54906.54906,0,0,0-.73963-.493l-2.08228.77261-1.04041-2.00718a.54905.54905,0,0,0-.85692-.15348L24,23.50943l-1.67706-1.525a.54905.54905,0,0,0-.85688.15359l-1.04017,2.00719L18.34263,23.373a.54906.54906,0,0,0-.73945.49323l-.08669,2.20143-2.06714.3837a.54905.54905,0,0,0-.34614.85959l1.21,1.689-1.20983,1.69035a.54905.54905,0,0,0,.34641.85942l2.06729.38321.08721,2.20153a.54906.54906,0,0,0,.73963.493l2.08228-.77261,1.04041,2.00718a.54905.54905,0,0,0,.85692.15348L24,34.49057l1.67706,1.525a.54905.54905,0,0,0,.85688-.15359l1.04017-2.00719,2.08326.77215a.54906.54906,0,0,0,.73945-.49323l.08669-2.20143,2.06714-.3837a.54905.54905,0,0,0,.34614-.85959Z"/></svg>