<svg xmlns="http://www.w3.org/2000/svg" viewBox="0 0 48 48"><linearGradient id="wwzA8kPTYnNGb2SoLoVzaa" x1="27.042" x2="27.042" y1="3.58" y2="15.527" gradientUnits="userSpaceOnUse"><stop offset="0" stop-color="#21ad64"/><stop offset=".299" stop-color="#1da55e"/><stop offset=".755" stop-color="#10904d"/><stop offset="1" stop-color="#088242"/></linearGradient><path fill="url(#wwzA8kPTYnNGb2SoLoVzaa)" d="M38.447,19.061L26.853,7.464c-0.916-0.916-2.272-1.237-3.501-0.827l-1.623,0.54l-3.876-3.876	c-0.399-0.399-1.046-0.399-1.445,0l-0.972,0.972c-0.399,0.399-0.399,1.046,0,1.445l3.876,3.876l-0.54,1.623	c-0.409,1.23-0.089,2.585,0.827,3.502l11.596,11.594c0.668,0.668,1.75,0.667,2.418,0l4.835-4.835	C39.116,20.81,39.116,19.727,38.447,19.061z"/><linearGradient id="wwzA8kPTYnNGb2SoLoVzab" x1="24" x2="24" y1="13.864" y2="41.984" gradientUnits="userSpaceOnUse"><stop offset="0" stop-color="#2aa4f4"/><stop offset=".009" stop-color="#2aa4f4"/><stop offset=".642" stop-color="#0b85e0"/><stop offset="1" stop-color="#007ad9"/></linearGradient><path fill="url(#wwzA8kPTYnNGb2SoLoVzab)" d="M42,15c-1.657,0-3-1-3-1s-1.343,1-3,1s-3-1-3-1s-1.343,1-3,1s-3-1-3-1s-1.343,1-3,1s-3-1-3-1	s-1.343,1-3,1s-3-1-3-1s-1.343,1-3,1s-3-1-3-1s-1.343,1-3,1s-3-1-3-1v26c0,1.105,0.895,2,2,2h38c1.105,0,2-0.895,2-2V14	C45,14,43.657,15,42,15z"/><path fill="#33c481" d="M21,14c0,0-0.565,0.415-1.409,0.711c0.002,0.002,0.004,0.005,0.006,0.007l11.598,11.596	c0.669,0.669,1.751,0.669,2.418,0l4.835-4.835c0.669-0.669,0.669-1.751,0-2.418l-4.554-4.555C33.343,14.254,33,14,33,14	s-1.343,1-3,1s-3-1-3-1s-1.343,1-3,1S21,14,21,14z"/><path fill="#81d4fa" d="M21,37c-0.553,0-1-0.447-1-1v-6c0-0.553,0.447-1,1-1s1,0.447,1,1v6C22,36.553,21.553,37,21,37z"/><path fill="#81d4fa" d="M17,38.5c-0.553,0-1-0.447-1-1v-9c0-0.553,0.447-1,1-1s1,0.447,1,1v9C18,38.053,17.553,38.5,17,38.5z"/><path fill="#81d4fa" d="M25,34H14c-0.553,0-1-0.447-1-1s0.447-1,1-1h11c0.553,0,1,0.447,1,1S25.553,34,25,34z"/><rect width="2.828" height="2.828" x="38.586" y="30.586" fill="#81d4fa" transform="rotate(45.001 40 32)"/><rect width="1.414" height="1.414" x="15.293" y="21.293" fill="#81d4fa" transform="rotate(45.001 16 22)"/><path fill="#81d4fa" d="M12,28c-1.105,0-5,2.239-5,5s3.895,5,5,5s2-2.239,2-5S13.105,28,12,28z M11,34c-0.552,0-1-0.448-1-1	s0.448-1,1-1s1,0.448,1,1S11.552,34,11,34z"/><path fill="#81d4fa" d="M25.764,29L25.764,29c-0.468,0-0.896,0.265-1.106,0.683L23,33h4v-2.764	C27,29.553,26.447,29,25.764,29z"/><path fill="#81d4fa" d="M25.764,37L25.764,37c-0.468,0-0.896-0.265-1.106-0.683L23,33h4v2.764C27,36.447,26.447,37,25.764,37	z"/></svg>