<svg xmlns="http://www.w3.org/2000/svg" viewBox="0 0 48 48"><linearGradient id="iV4SeN8APifuPnuRijoFBa" x1="24" x2="24" y1="6.182" y2="52.621" gradientUnits="userSpaceOnUse"><stop offset="0" stop-color="#32bdef"/><stop offset="1" stop-color="#1ea2e4"/></linearGradient><path fill="url(#iV4SeN8APifuPnuRijoFBa)" d="M44,22c0,11.434-9.582,20.619-21.158,19.967c-10.338-0.582-18.661-9.27-18.839-19.623	C3.965,20.12,4.297,17.993,4.93,16c0.584-1.846,1.434-3.577,2.5-5.158C7.793,10.305,8.415,10,9.064,10h29.872	c0.649,0,1.271,0.305,1.634,0.842c1.066,1.58,1.916,3.312,2.5,5.158C43.67,17.89,44,19.9,44,22z"/><linearGradient id="iV4SeN8APifuPnuRijoFBb" x1="24" x2="24" y1="9.046" y2="55.349" gradientUnits="userSpaceOnUse"><stop offset="0" stop-color="#a8e2f7"/><stop offset="1" stop-color="#47c1ff"/></linearGradient><path fill="url(#iV4SeN8APifuPnuRijoFBb)" d="M44,22c0,11.05-8.95,20-20,20S4,33.05,4,22c0-2.1,0.33-4.11,0.93-6h38.14	C43.67,17.89,44,19.9,44,22z"/><linearGradient id="iV4SeN8APifuPnuRijoFBc" x1="17.424" x2="11.436" y1="30" y2="30" gradientUnits="userSpaceOnUse"><stop offset="0" stop-color="#f44f5a"/><stop offset=".443" stop-color="#ee3d4a"/><stop offset="1" stop-color="#e52030"/></linearGradient><path fill="url(#iV4SeN8APifuPnuRijoFBc)" d="M17.109,30c0,0-1.639,2.267-2.739,2.859C14.201,32.949,14.045,33,13.913,33	C13.411,33,13,31.659,13,30s0.411-3,0.913-3c0.132,0,0.288,0.051,0.457,0.141C15.47,27.733,17.109,30,17.109,30z"/><linearGradient id="iV4SeN8APifuPnuRijoFBd" x1="13.682" x2="35.186" y1="30" y2="30" gradientUnits="userSpaceOnUse"><stop offset="0" stop-color="#f44f5a"/><stop offset=".443" stop-color="#ee3d4a"/><stop offset="1" stop-color="#e52030"/></linearGradient><path fill="url(#iV4SeN8APifuPnuRijoFBd)" d="M33.917,30.236c-0.618,0.786-2.848,3.332-5.917,4.345c-0.443,0.145-0.905,0.259-1.385,0.332	C26.242,34.968,25.863,35,25.475,35c-0.9,0-1.754-0.127-2.552-0.336c-0.48-0.127-0.942-0.286-1.385-0.468	c-1.509-0.623-2.76-1.509-3.692-2.309c-0.605-0.514-1.071-0.995-1.385-1.341C16.162,30.209,16,30,16,30s0.157-0.236,0.462-0.605	c0.309-0.368,0.775-0.877,1.385-1.409c0.905-0.8,2.142-1.668,3.692-2.259c0.434-0.168,0.895-0.314,1.385-0.427	c0.785-0.191,1.638-0.3,2.552-0.3c0.388,0,0.766,0.032,1.14,0.086c0.48,0.073,0.942,0.186,1.385,0.332	c3.069,1.014,5.298,3.559,5.917,4.345C34.028,29.909,34.028,30.091,33.917,30.236z"/><circle cx="36" cy="26" r="1" fill="#35c1f1"/><circle cx="33.5" cy="21.5" r="1.5" fill="#35c1f1"/><circle cx="38.983" cy="22" r="1" fill="#35c1f1"/><circle cx="9" cy="24" r="1" fill="#35c1f1"/><circle cx="13" cy="21" r="1" fill="#35c1f1"/><linearGradient id="iV4SeN8APifuPnuRijoFBe" x1="28" x2="30" y1="29" y2="29" gradientUnits="userSpaceOnUse"><stop offset="0" stop-color="#4c4c4c"/><stop offset="1" stop-color="#343434"/></linearGradient><circle cx="29" cy="29" r="1" fill="url(#iV4SeN8APifuPnuRijoFBe)"/><linearGradient id="iV4SeN8APifuPnuRijoFBf" x1="24" x2="24" y1="6.182" y2="52.621" gradientUnits="userSpaceOnUse"><stop offset="0" stop-color="#32bdef"/><stop offset="1" stop-color="#1ea2e4"/></linearGradient><path fill="url(#iV4SeN8APifuPnuRijoFBf)" d="M34,39H14c-1.105,0-2,0.895-2,2v0c0,1.105,0.895,2,2,2h20c1.105,0,2-0.895,2-2v0	C36,39.895,35.105,39,34,39z"/></svg>