<svg xmlns="http://www.w3.org/2000/svg" viewBox="0 0 48 48"><linearGradient id="zgdvUcHB510jw_A5hd6P~a" x1="24" x2="24" y1="39.009" y2="41.982" gradientUnits="userSpaceOnUse"><stop offset="0" stop-color="#eba600"/><stop offset="1" stop-color="#c28200"/></linearGradient><path fill="url(#zgdvUcHB510jw_A5hd6P~a)" d="M35.5,39h-23c-0.828,0-1.5,0.672-1.5,1.5c0,0.828,0.672,1.5,1.5,1.5h23	c0.828,0,1.5-0.672,1.5-1.5C37,39.672,36.328,39,35.5,39z"/><linearGradient id="zgdvUcHB510jw_A5hd6P~b" x1="34.979" x2="25.091" y1="21.5" y2="21.5" gradientUnits="userSpaceOnUse"><stop offset="0" stop-color="#4c4c4c"/><stop offset="1" stop-color="#444"/></linearGradient><path fill="url(#zgdvUcHB510jw_A5hd6P~b)" d="M27,19.51C27,16.241,30,5.805,30,5c0-0.552-0.448-1-1-1h-3c-0.552,0-1,0.448-1,1v2	c0,0.552-0.448,1-1,1v31h11C35,39,27,28,27,19.51z"/><linearGradient id="zgdvUcHB510jw_A5hd6P~c" x1="18.5" x2="18.5" y1="3.924" y2="39.193" gradientUnits="userSpaceOnUse"><stop offset="0" stop-color="#636363"/><stop offset="1" stop-color="#444"/></linearGradient><path fill="url(#zgdvUcHB510jw_A5hd6P~c)" d="M23,7V5c0-0.552-0.448-1-1-1h-3c-0.552,0-1,0.448-1,1c0,0.805,3,11.241,3,14.51	C21,28,13,39,13,39h11V8C23.448,8,23,7.552,23,7z"/></svg>