<svg xmlns="http://www.w3.org/2000/svg" data-name="Слой 1" viewBox="0 0 48 48"><defs><linearGradient id="tyZb6G7GkrJSOUtRyAOdIa" x1="24" x2="24" y1="35.076" y2="43.681" data-name="Безымянный градиент 100" gradientUnits="userSpaceOnUse"><stop offset="0" stop-color="#21ad64"/><stop offset="1" stop-color="#088242"/></linearGradient></defs><path fill="#5059c9" d="M35,30l-8.49615,5.6641A2,2,0,0,1,25.39445,36h-2.7889a2,2,0,0,1-1.1094-.3359L13,30V7L23.36738,3.10269a2,2,0,0,1,1.26524,0L35,7Z"/><rect width="24" height="2" x="12" y="7" fill="#7b83eb" rx="1"/><rect width="24" height="2" x="12" y="14" fill="#7b83eb" rx="1"/><rect width="24" height="2" x="12" y="21" fill="#7b83eb" rx="1"/><rect width="24" height="2" x="12" y="28" fill="#7b83eb" rx="1"/><rect width="33.924" height="2" x="-2.962" y="24.038" fill="#7b83eb" rx="1" transform="rotate(90 14 25.038)"/><rect width="33.924" height="2" x="17.038" y="24.038" fill="#7b83eb" rx="1" transform="rotate(90 34 25.038)"/><path fill="url(#tyZb6G7GkrJSOUtRyAOdIa)" d="M3,38H45a0,0,0,0,1,0,0v3a2,2,0,0,1-2,2H5a2,2,0,0,1-2-2V38a0,0,0,0,1,0,0Z"/></svg>