<svg xmlns="http://www.w3.org/2000/svg" id="Layer_1" x="0" y="0" version="1.1" viewBox="0 0 48 48" xml:space="preserve"><linearGradient id="SVGID_1_" x1="7.196" x2="39.472" y1="1168.822" y2="1196.054" gradientTransform="translate(0 -1162)" gradientUnits="userSpaceOnUse"><stop offset="0" stop-color="#a1aab3"/><stop offset="1" stop-color="#8f979e"/></linearGradient><path fill="url(#SVGID_1_)" d="M43,36H5c-1.1,0-2-0.9-2-2V8c0-1.1,0.9-2,2-2h38c1.1,0,2,0.9,2,2v26C45,35.1,44.1,36,43,36z"/><linearGradient id="SVGID_2_" x1="24" x2="24" y1="1197.987" y2="1204.012" gradientTransform="translate(0 -1162)" gradientUnits="userSpaceOnUse"><stop offset="0" stop-color="#a1aab3"/><stop offset="1" stop-color="#8f979e"/></linearGradient><path fill="url(#SVGID_2_)" d="M33,40v-4H15v4L0,39.7V41c0,0.6,0.4,1,1,1h46c0.6,0,1-0.4,1-1v-1.3L33,40z"/><linearGradient id="SVGID_3_" x1="23.999" x2="23.999" y1="1197.991" y2="1202.008" gradientTransform="translate(0 -1162)" gradientUnits="userSpaceOnUse"><stop offset="0" stop-color="#484b4f"/><stop offset=".028" stop-color="#565b61"/><stop offset=".066" stop-color="#626a72"/><stop offset=".114" stop-color="#6b757d"/><stop offset=".181" stop-color="#717b84"/><stop offset=".367" stop-color="#727d86"/></linearGradient><path fill="url(#SVGID_3_)" d="M47.9,39.5L45,36.6c-0.4-0.4-0.9-0.6-1.4-0.6H4.4c-0.5,0-1,0.2-1.4,0.6l-2.9,2.9C-0.1,39.7,0,40,0.3,40h17.1	c0.4,0,0.7-0.2,0.9-0.6l0.4-0.9c0.2-0.3,0.5-0.6,0.9-0.6h8.8c0.4,0,0.7,0.2,0.9,0.6l0.4,0.9c0.2,0.3,0.5,0.6,0.9,0.6h17.1	C48,40,48.1,39.7,47.9,39.5z"/><radialGradient id="SVGID_4_" cx="42.958" cy="-306.5" r="34.553" gradientTransform="matrix(1 0 0 -1.0833 0 -297.833)" gradientUnits="userSpaceOnUse"><stop offset="0" stop-color="#9e6fd9"/><stop offset=".173" stop-color="#aa73c7"/><stop offset=".522" stop-color="#ca7f97"/><stop offset="1" stop-color="#fc914d"/></radialGradient><path fill="url(#SVGID_4_)" d="M43,8H5v26h38V8z"/><path d="M43,6H30v10.1c0,1.1,0.9,1.9,1.9,1.9H45V8C45,6.9,44.1,6,43,6z" opacity=".05"/><path d="M43,6H30.5v10.1c0,0.8,0.6,1.4,1.4,1.4H45V8C45,6.9,44.1,6,43,6z" opacity=".07"/><path fill="#50e6ff" d="M47.1,0H31.9C31.4,0,31,0.4,31,0.9v14.2c0,0.5,0.4,0.9,0.9,0.9h15.1c0.5,0,0.9-0.4,0.9-0.9V0.9	C48,0.4,47.6,0,47.1,0z"/><linearGradient id="SVGID_5_" x1="36.667" x2="48" y1="-302.322" y2="-302.322" gradientTransform="matrix(1 0 0 -1 0 -290)" gradientUnits="userSpaceOnUse"><stop offset="0" stop-color="#3ccbf4"/><stop offset="1" stop-color="#1fa0e5"/></linearGradient><path fill="url(#SVGID_5_)" d="M43.3,8.1c-0.5-0.5-1.4-0.6-2,0l-4.7,4.4V17h10.4c0.5,0,0.9-0.4,0.9-0.9v-3.3L43.3,8.1z"/><linearGradient id="SVGID_6_" x1="39.458" x2="39.458" y1="-295.755" y2="-307" gradientTransform="matrix(1 0 0 -1 0 -290)" gradientUnits="userSpaceOnUse"><stop offset="0" stop-color="#28afea"/><stop offset="1" stop-color="#0b88da"/></linearGradient><path fill="url(#SVGID_6_)" d="M31.9,17h15.1c0.4,0,0.7-0.2,0.9-0.6L37.6,6.2c-0.5-0.5-1.4-0.6-2,0L31,10.6v5.5C31,16.6,31.4,17,31.9,17z"/><circle cx="41.5" cy="3.5" r="1.5" fill="#fff8de"/></svg>