<svg xmlns="http://www.w3.org/2000/svg" xmlns:xlink="http://www.w3.org/1999/xlink" data-name="Слой 1" viewBox="0 0 48 48"><defs><linearGradient id="Ei7r7Mm7XkVfmJeg3TW4Pb" x1="2.261" x2="41.876" y1="2.261" y2="41.876" data-name="Безымянный градиент 62" gradientUnits="userSpaceOnUse"><stop offset="0" stop-color="#c3cdd9"/><stop offset="1" stop-color="#9fa7b0"/></linearGradient><linearGradient id="Ei7r7Mm7XkVfmJeg3TW4Pa" x1="12.5" x2="25.5" y1="23.978" y2="23.978" data-name="Безымянный градиент 73" gradientUnits="userSpaceOnUse"><stop offset="0" stop-color="#9332bf"/><stop offset="1" stop-color="#912fbd"/></linearGradient><linearGradient id="Ei7r7Mm7XkVfmJeg3TW4Pc" x1="26.071" x2="34.5" y1="25.75" y2="25.75" xlink:href="#Ei7r7Mm7XkVfmJeg3TW4Pa"/></defs><path fill="url(#Ei7r7Mm7XkVfmJeg3TW4Pb)" d="M12,8.5a.5.5,0,0,1-.5.5H9v2.5a.5.5,0,0,1-.5.5h-2a.5.5,0,0,1-.5-.5v-5A.5.5,0,0,1,6.5,6h5a.5.5,0,0,1,.5.5ZM39.5,12a.5.5,0,0,1-.5-.5V9H36.5a.5.5,0,0,1-.5-.5v-2a.5.5,0,0,1,.5-.5h5a.5.5,0,0,1,.5.5v5a.5.5,0,0,1-.5.5ZM12,39.5a.5.5,0,0,0-.5-.5H9V36.5a.5.5,0,0,0-.5-.5h-2a.5.5,0,0,0-.5.5v5a.5.5,0,0,0,.5.5h5a.5.5,0,0,0,.5-.5Zm24,2a.5.5,0,0,0,.5.5h5a.5.5,0,0,0,.5-.5v-5a.5.5,0,0,0-.5-.5h-2a.5.5,0,0,0-.5.5V39H36.5a.5.5,0,0,0-.5.5ZM18.5,9h-3a.5.5,0,0,1-.5-.5v-2a.5.5,0,0,1,.5-.5h3a.5.5,0,0,1,.5.5v2A.5.5,0,0,1,18.5,9Zm7,0h-3a.5.5,0,0,1-.5-.5v-2a.5.5,0,0,1,.5-.5h3a.5.5,0,0,1,.5.5v2A.5.5,0,0,1,25.5,9Zm7,0h-3a.5.5,0,0,1-.5-.5v-2a.5.5,0,0,1,.5-.5h3a.5.5,0,0,1,.5.5v2A.5.5,0,0,1,32.5,9Zm-14,33h-3a.5.5,0,0,1-.5-.5v-2a.5.5,0,0,1,.5-.5h3a.5.5,0,0,1,.5.5v2A.5.5,0,0,1,18.5,42Zm7,0h-3a.5.5,0,0,1-.5-.5v-2a.5.5,0,0,1,.5-.5h3a.5.5,0,0,1,.5.5v2A.5.5,0,0,1,25.5,42Zm7,0h-3a.5.5,0,0,1-.5-.5v-2a.5.5,0,0,1,.5-.5h3a.5.5,0,0,1,.5.5v2A.5.5,0,0,1,32.5,42ZM9,29.5v3a.5.5,0,0,1-.5.5h-2a.5.5,0,0,1-.5-.5v-3a.5.5,0,0,1,.5-.5h2A.5.5,0,0,1,9,29.5Zm0-7v3a.5.5,0,0,1-.5.5h-2a.5.5,0,0,1-.5-.5v-3a.5.5,0,0,1,.5-.5h2A.5.5,0,0,1,9,22.5Zm0-7v3a.5.5,0,0,1-.5.5h-2a.5.5,0,0,1-.5-.5v-3a.5.5,0,0,1,.5-.5h2A.5.5,0,0,1,9,15.5Zm30,3v-3a.5.5,0,0,1,.5-.5h2a.5.5,0,0,1,.5.5v3a.5.5,0,0,1-.5.5h-2A.5.5,0,0,1,39,18.5Zm0,7v-3a.5.5,0,0,1,.5-.5h2a.5.5,0,0,1,.5.5v3a.5.5,0,0,1-.5.5h-2A.5.5,0,0,1,39,25.5Zm0,7v-3a.5.5,0,0,1,.5-.5h2a.5.5,0,0,1,.5.5v3a.5.5,0,0,1-.5.5h-2A.5.5,0,0,1,39,32.5Z"/><path fill="url(#Ei7r7Mm7XkVfmJeg3TW4Pa)" d="M25.5,30.95643H22.964l-1.25429-3.55211H16.23048L15.026,30.95643H12.5L17.71644,17h2.60449Zm-4.51681-5.55372L19.07591,19.91a6.47432,6.47432,0,0,1-.1831-.86415h-.0381A5.71594,5.71594,0,0,1,18.663,19.91l-1.88761,5.49266Z"/><path fill="url(#Ei7r7Mm7XkVfmJeg3TW4Pc)" d="M34.5,30.76519H32.3V29.1981h-.03886A3.31251,3.31251,0,0,1,29.22,31a3.20187,3.20187,0,0,1-2.31283-.80238,2.81208,2.81208,0,0,1-.83613-2.12587q0-2.84034,3.26554-3.31123L32.31,24.33987q0-2.14533-2.03454-2.1447A4.8245,4.8245,0,0,0,27.0488,23.4295v-1.989A7.03217,7.03217,0,0,1,30.70546,20.5Q34.5,20.5,34.5,24.24193ZM32.31,25.8379l-2.10223.29383a3.32471,3.32471,0,0,0-1.47169.4759,1.3864,1.3864,0,0,0-.4939,1.21927,1.33956,1.33956,0,0,0,.45379,1.04347,1.76572,1.76572,0,0,0,1.21846.40558,2.24353,2.24353,0,0,0,1.71614-.72955A2.59062,2.59062,0,0,0,32.31,26.7106Z"/></svg>