<svg xmlns="http://www.w3.org/2000/svg" viewBox="0 0 48 48"><linearGradient id="H48jIY~Td6~hp19RZ~GG5a" x1="14.077" x2="20.204" y1="10.206" y2="20.483" gradientUnits="userSpaceOnUse"><stop offset=".258" stop-color="#272727"/><stop offset=".713" stop-color="#1e1e1e"/><stop offset="1" stop-color="#161616"/></linearGradient><path fill="url(#H48jIY~Td6~hp19RZ~GG5a)" d="M46.131,15.92c-1.88-2.074-6.427-2.731-9.738-2.939c-1.468-0.094-2.931-0.351-4.351-0.765	c-0.642-0.179-1.283-0.405-1.91-0.648c-2.784-1.105-7.376-2.167-12.332-0.139c-0.158,0.069-0.311,0.124-0.455,0.199	c-0.153,0.055-0.307,0.134-0.465,0.203c-4.846,2.255-7.194,6.35-8.275,9.144c-0.247,0.625-0.517,1.249-0.822,1.842	C7.124,24.14,6.328,25.384,5.4,26.526c-2.101,2.561-4.698,6.34-4.467,9.123c0.037,0.49,0.162,0.952,0.398,1.366	c0.459,0.822,1.202,1.256,1.772,1.524c4.155,1.988,13.786,0.984,24.131-4.284c10.893-4.013,18.172-10.398,19.526-14.794	c0.191-0.601,0.377-1.441,0.086-2.336C46.707,16.68,46.456,16.284,46.131,15.92z"/><linearGradient id="H48jIY~Td6~hp19RZ~GG5b" x1="19.851" x2="25.914" y1="19.291" y2="30.462" gradientUnits="userSpaceOnUse"><stop offset=".27" stop-color="#27f"/><stop offset="1" stop-color="#115ace"/></linearGradient><path fill="url(#H48jIY~Td6~hp19RZ~GG5b)" fill-rule="evenodd" d="M46.791,16.934c2.114,4.733-6.446,13.059-19.033,18.56	S2.911,41.75,1.209,36.854C0,33.378,8.051,24.096,20.638,18.596S45.362,13.735,46.791,16.934z" clip-rule="evenodd"/><linearGradient id="H48jIY~Td6~hp19RZ~GG5c" x1="23.642" x2="26.897" y1="25.528" y2="31.719" gradientUnits="userSpaceOnUse"><stop offset="0" stop-color="#f6f6f6"/><stop offset=".196" stop-color="#edeeef"/><stop offset=".511" stop-color="#d6d9db"/><stop offset=".859" stop-color="#b4bbc0"/></linearGradient><path fill="url(#H48jIY~Td6~hp19RZ~GG5c)" fill-rule="evenodd" d="M14.047,34.068c-0.885-2.024,3.526-5.906,9.852-8.671	s12.171-3.364,13.056-1.34c0.885,2.024-3.526,5.906-9.852,8.671S14.931,36.093,14.047,34.068z" clip-rule="evenodd"/></svg>