<svg xmlns="http://www.w3.org/2000/svg" viewBox="0 0 48 48"><linearGradient id="A_9HO8mAxUd9Qy_T5BKYVa" x1="-393.969" x2="-365.89" y1="-432.031" y2="-460.11" gradientTransform="rotate(90 -413 -9)" gradientUnits="userSpaceOnUse"><stop offset="0" stop-color="#fede00"/><stop offset=".519" stop-color="#fecc00"/><stop offset="1" stop-color="#ffb700"/></linearGradient><path fill="url(#A_9HO8mAxUd9Qy_T5BKYVa)" d="M24,44c11.045,0,20-8.955,20-20S35.045,4,24,4S4,12.955,4,24S12.955,44,24,44z"/><circle cx="16" cy="22" r="4" fill="#fff"/><circle cx="32" cy="22" r="4" fill="#fff"/><circle cx="16" cy="22" r="2" fill="#343434"/><circle cx="32" cy="22" r="2" fill="#343434"/><linearGradient id="A_9HO8mAxUd9Qy_T5BKYVb" x1="4.606" x2="33.032" y1="47.158" y2="28.605" gradientUnits="userSpaceOnUse"><stop offset="0" stop-color="#bbc1c4"/><stop offset=".201" stop-color="#bbc1c4"/><stop offset=".384" stop-color="#c1c7c9"/><stop offset=".631" stop-color="#d3d6d8"/><stop offset="1" stop-color="#f0f0f0"/></linearGradient><path fill="url(#A_9HO8mAxUd9Qy_T5BKYVb)" d="M31.051,31.857l-0.581-1.21c-0.248-0.516-0.867-0.733-1.383-0.485L17.434,35.76	c-0.516,0.248-0.733,0.867-0.485,1.383l0.581,1.21c0.248,0.516,0.867,0.733,1.383,0.485l11.653-5.598	C31.081,32.992,31.299,32.373,31.051,31.857z"/><polygon points="18.901,35.055 22.844,36.949 29.099,33.945 25.156,32.051" opacity=".05"/><polygon points="23.422,36.672 28.521,34.222 24.578,32.328 19.479,34.778" opacity=".07"/><linearGradient id="A_9HO8mAxUd9Qy_T5BKYVc" x1="21.23" x2="42.74" y1="32.93" y2="45.121" gradientUnits="userSpaceOnUse"><stop offset="0" stop-color="#f0f0f0"/><stop offset="1" stop-color="#bbc1c4"/></linearGradient><path fill="url(#A_9HO8mAxUd9Qy_T5BKYVc)" d="M16.949,31.857l0.581-1.21c0.248-0.516,0.867-0.733,1.383-0.485l11.653,5.598	c0.516,0.248,0.733,0.867,0.485,1.383l-0.581,1.21c-0.248,0.516-0.867,0.733-1.383,0.485L17.434,33.24	C16.919,32.992,16.701,32.373,16.949,31.857z"/></svg>