<svg xmlns="http://www.w3.org/2000/svg" id="Layer_1" x="0" y="0" version="1.1" viewBox="0 0 48 48" xml:space="preserve"><path fill="#145693" d="M24,9c-0.6,0-1,0.4-1,1v6c0,0.6,0.4,1,1,1s1-0.4,1-1v-6C25,9.4,24.6,9,24,9z"/><path fill="#145693" d="M34,25.7c-0.6,0-1-0.4-1-1V18H15v6.5c0,0.6-0.4,1-1,1s-1-0.4-1-1V17c0-0.6,0.4-1,1-1h20c0.6,0,1,0.4,1,1v7.7 C35,25.2,34.6,25.7,34,25.7z"/><path fill="#12599a" d="M19,38.7c-0.6,0-1-0.4-1-1V34h-8v3.6c0,0.6-0.4,1-1,1s-1-0.4-1-1V33c0-0.6,0.4-1,1-1h10c0.6,0,1,0.4,1,1v4.7 C20,38.2,19.6,38.7,19,38.7z"/><path fill="#12599a" d="M39,38.7c-0.6,0-1-0.4-1-1V34h-8v3.6c0,0.6-0.4,1-1,1s-1-0.4-1-1V33c0-0.6,0.4-1,1-1h10c0.6,0,1,0.4,1,1v4.7 C40,38.2,39.6,38.7,39,38.7z"/><path fill="#12599a" d="M14,33c-0.6,0-1-0.4-1-1v-5c0-0.6,0.4-1,1-1s1,0.4,1,1v5C15,32.6,14.6,33,14,33z"/><path fill="#12599a" d="M34,34c-0.6,0-1-0.4-1-1v-6c0-0.6,0.4-1,1-1s1,0.4,1,1v6C35,33.6,34.6,34,34,34z"/><linearGradient id="SVGID_1_" x1="10.495" x2="17.197" y1="21.962" y2="27.771" gradientUnits="userSpaceOnUse"><stop offset="0" stop-color="#75daff"/><stop offset="1" stop-color="#1ea2e4"/></linearGradient><circle cx="14" cy="25" r="4" fill="url(#SVGID_1_)"/><linearGradient id="SVGID_2_" x1="30.813" x2="36.877" y1="21.846" y2="27.846" gradientUnits="userSpaceOnUse"><stop offset="0" stop-color="#75daff"/><stop offset="1" stop-color="#1ea2e4"/></linearGradient><circle cx="34" cy="25" r="4" fill="url(#SVGID_2_)"/><linearGradient id="SVGID_3_" x1="20.723" x2="26.727" y1="6.723" y2="12.726" gradientUnits="userSpaceOnUse"><stop offset="0" stop-color="#75daff"/><stop offset="1" stop-color="#1ea2e4"/></linearGradient><circle cx="24" cy="10" r="4" fill="url(#SVGID_3_)"/><linearGradient id="SVGID_4_" x1="5.888" x2="11.889" y1="36.517" y2="41.305" gradientUnits="userSpaceOnUse"><stop offset="0" stop-color="#75daff"/><stop offset="1" stop-color="#1ea2e4"/></linearGradient><circle cx="9" cy="39" r="3" fill="url(#SVGID_4_)"/><linearGradient id="SVGID_5_" x1="16.795" x2="21.199" y1="37.115" y2="40.88" gradientUnits="userSpaceOnUse"><stop offset="0" stop-color="#75daff"/><stop offset="1" stop-color="#1ea2e4"/></linearGradient><circle cx="19" cy="39" r="3" fill="url(#SVGID_5_)"/><linearGradient id="SVGID_6_" x1="25.854" x2="32.301" y1="36.29" y2="41.843" gradientUnits="userSpaceOnUse"><stop offset="0" stop-color="#75daff"/><stop offset="1" stop-color="#1ea2e4"/></linearGradient><circle cx="29" cy="39" r="3" fill="url(#SVGID_6_)"/><linearGradient id="SVGID_7_" x1="36.591" x2="41.443" y1="36.56" y2="41.475" gradientUnits="userSpaceOnUse"><stop offset="0" stop-color="#75daff"/><stop offset="1" stop-color="#1ea2e4"/></linearGradient><circle cx="39" cy="39" r="3" fill="url(#SVGID_7_)"/></svg>