<svg xmlns="http://www.w3.org/2000/svg" viewBox="0 0 48 48"><linearGradient id="8gq27tKAEFhKmHR~3NprPa" x1="24" x2="24" y1="20" y2="28" gradientUnits="userSpaceOnUse"><stop offset="0" stop-color="#33c481"/><stop offset="1" stop-color="#21a366"/></linearGradient><path fill="url(#8gq27tKAEFhKmHR~3NprPa)" d="M34.997,28c-3.401,0-5.218-1.321-6.678-2.382C27.028,24.679,26.095,24,23.994,24 c-2.098,0-3.03,0.678-4.321,1.617C18.214,26.679,16.398,28,12.999,28c-3.4,0-5.216-1.321-6.676-2.383 c-1.087-0.791-1.92-1.396-3.41-1.568C2.399,23.99,2,23.572,2,23.054v-2.006c0-0.586,0.507-1.054,1.091-1.001 c2.714,0.246,4.29,1.393,5.585,2.335C9.967,23.322,10.9,24,12.999,24c2.098,0,3.03-0.678,4.321-1.617 C18.779,21.321,20.595,20,23.994,20c3.401,0,5.218,1.321,6.678,2.382C31.963,23.321,32.896,24,34.997,24s3.034-0.679,4.325-1.618 c1.295-0.942,2.872-2.088,5.587-2.334C45.493,19.995,46,20.463,46,21.049v2.006c0,0.518-0.399,0.936-0.913,0.995 c-1.491,0.172-2.324,0.778-3.412,1.569C40.215,26.679,38.398,28,34.997,28z"/></svg>