<svg xmlns="http://www.w3.org/2000/svg" viewBox="0 0 48 48"><linearGradient id="4wpghhCfAKpxBWtzXswIXa" x1="23.125" x2="24.939" y1="1.484" y2="6.699" gradientUnits="userSpaceOnUse"><stop offset="0" stop-color="#889097"/><stop offset="1" stop-color="#64717c"/></linearGradient><circle cx="24" cy="4" r="3" fill="url(#4wpghhCfAKpxBWtzXswIXa)"/><linearGradient id="4wpghhCfAKpxBWtzXswIXb" x1="15" x2="33" y1="25" y2="25" gradientUnits="userSpaceOnUse"><stop offset=".186" stop-color="#ccc"/><stop offset=".335" stop-color="#c5c5c5"/><stop offset=".558" stop-color="#b0b0b0"/><stop offset=".75" stop-color="#999"/><stop offset=".955" stop-color="#a6a6a6"/><stop offset="1" stop-color="#aaa"/></linearGradient><rect width="18" height="34" x="15" y="8" fill="url(#4wpghhCfAKpxBWtzXswIXb)"/><linearGradient id="4wpghhCfAKpxBWtzXswIXc" x1="15" x2="33" y1="33" y2="33" gradientUnits="userSpaceOnUse"><stop offset="0" stop-color="#3079d6"/><stop offset="1" stop-color="#297cd2"/></linearGradient><polygon fill="url(#4wpghhCfAKpxBWtzXswIXc)" points="15,34 33,28 33,32 15,38"/><linearGradient id="4wpghhCfAKpxBWtzXswIXd" x1="15" x2="33" y1="17" y2="17" gradientUnits="userSpaceOnUse"><stop offset="0" stop-color="#3079d6"/><stop offset="1" stop-color="#297cd2"/></linearGradient><polygon fill="url(#4wpghhCfAKpxBWtzXswIXd)" points="15,18 33,12 33,16 15,22"/><polygon fill="#cf1928" points="15,26 33,20 33,24 15,30"/><polygon fill="#cf1928" points="24,7 15,10 15,14 33,8 33,7"/><linearGradient id="4wpghhCfAKpxBWtzXswIXe" x1="24" x2="24" y1="6.047" y2="7.974" gradientUnits="userSpaceOnUse"><stop offset="0" stop-color="#889097"/><stop offset="1" stop-color="#64717c"/></linearGradient><path fill="url(#4wpghhCfAKpxBWtzXswIXe)" d="M15,6h18c0.552,0,1,0.448,1,1v0c0,0.552-0.448,1-1,1H15c-0.552,0-1-0.448-1-1v0 C14,6.448,14.448,6,15,6z"/><polygon fill="#cf1928" points="24,43 33,40 33,36 15,42 15,43"/><g><linearGradient id="4wpghhCfAKpxBWtzXswIXf" x1="24" x2="24" y1="42.047" y2="43.974" gradientUnits="userSpaceOnUse"><stop offset="0" stop-color="#889097"/><stop offset="1" stop-color="#64717c"/></linearGradient><path fill="url(#4wpghhCfAKpxBWtzXswIXf)" d="M15,42h18c0.552,0,1,0.448,1,1l0,0c0,0.552-0.448,1-1,1H15c-0.552,0-1-0.448-1-1l0,0 C14,42.448,14.448,42,15,42z"/></g></svg>