<svg xmlns="http://www.w3.org/2000/svg" viewBox="0 0 48 48"><radialGradient id="C6qCa_GAaovj~Y5o1jh0Da" cx="41.617" cy="17.851" r="12.4" gradientTransform="matrix(-1.0475 0 0 1.0526 73.902 -1.105)" gradientUnits="userSpaceOnUse"><stop offset=".343" stop-color="#3a41ac"/><stop offset=".79" stop-color="#5961c3"/></radialGradient><path fill="url(#C6qCa_GAaovj~Y5o1jh0Da)" d="M28.999,12.579c2.095-5.263,8.38-7.368,14.665-6.316c1.047,4.211-0.348,12.738-8.728,14.843 L28.999,12.579z"/><radialGradient id="C6qCa_GAaovj~Y5o1jh0Db" cx="17.746" cy="17.773" r="12.328" gradientTransform="matrix(1.0475 0 0 1.0526 -.902 -1.105)" gradientUnits="userSpaceOnUse"><stop offset=".343" stop-color="#3a41ac"/><stop offset=".79" stop-color="#5961c3"/></radialGradient><path fill="url(#C6qCa_GAaovj~Y5o1jh0Db)" d="M19,12.579c-2.095-5.263-8.38-7.368-14.665-6.316c-1.047,4.211,0,12.632,8.38,14.737 L19,12.579z"/><linearGradient id="C6qCa_GAaovj~Y5o1jh0Dc" x1="24" x2="24" y1="6.805" y2="39.255" gradientUnits="userSpaceOnUse"><stop offset="0" stop-color="#7b83eb"/><stop offset=".723" stop-color="#5961c3"/></linearGradient><path fill="url(#C6qCa_GAaovj~Y5o1jh0Dc)" d="M40,31.537C40,39.502,32.359,45,24,45S8,39.502,8,31.537c0-4.507,4.324-9.015,6.054-13.522 C16.325,12.096,19.354,9,24,9c4.402,0,8.012,2.967,9.946,9.015C35.676,23.423,40,27.029,40,31.537z"/><linearGradient id="C6qCa_GAaovj~Y5o1jh0Dd" x1="24" x2="24" y1="35.916" y2="53.751" gradientUnits="userSpaceOnUse"><stop offset="0" stop-color="#7b83eb"/><stop offset=".744" stop-color="#5961c3"/><stop offset="1" stop-color="#434ab3"/></linearGradient><ellipse cx="24" cy="32.5" fill="url(#C6qCa_GAaovj~Y5o1jh0Dd)" rx="9" ry="7.5"/><circle cx="19.5" cy="19.5" r="1.5" fill="#292c61"/><circle cx="21" cy="32" r="2" fill="#292c61"/><circle cx="27" cy="32" r="2" fill="#292c61"/><circle cx="28.5" cy="19.5" r="1.5" fill="#292c61"/></svg>