<svg xmlns="http://www.w3.org/2000/svg" viewBox="0 0 48 48"><linearGradient id="UFInZBEzcToHc6YE9eFqha" x1="23" x2="23" y1="30.987" y2="37.012" gradientUnits="userSpaceOnUse"><stop offset="0" stop-color="#a1aab3"/><stop offset="1" stop-color="#8f979e"/></linearGradient><path fill="url(#UFInZBEzcToHc6YE9eFqha)" d="M32,35v-4H14v4L2,34.689V36c0,0.552,0.448,1,1,1h40c0.552,0,1-0.448,1-1v-1.311L32,35z"/><linearGradient id="UFInZBEzcToHc6YE9eFqhb" x1="9.049" x2="35.846" y1="7.228" y2="29.838" gradientUnits="userSpaceOnUse"><stop offset="0" stop-color="#a1aab3"/><stop offset="1" stop-color="#8f979e"/></linearGradient><path fill="url(#UFInZBEzcToHc6YE9eFqhb)" d="M39,31H7c-1.105,0-2-0.895-2-2V9c0-1.105,0.895-2,2-2h32c1.105,0,2,0.895,2,2v20	C41,30.105,40.105,31,39,31z"/><radialGradient id="UFInZBEzcToHc6YE9eFqhc" cx="165.604" cy="-12.936" r="72.282" gradientTransform="matrix(.8095 0 0 .7188 -89.333 59.906)" gradientUnits="userSpaceOnUse"><stop offset="0" stop-color="#9e6fd9"/><stop offset=".156" stop-color="#ad6fc7"/><stop offset=".469" stop-color="#d36f97"/><stop offset=".551" stop-color="#de6f8a"/><stop offset="1" stop-color="#fc914d"/></radialGradient><rect width="32" height="20" x="7" y="9" fill="url(#UFInZBEzcToHc6YE9eFqhc)"/><linearGradient id="UFInZBEzcToHc6YE9eFqhd" x1="22.999" x2="22.999" y1="30.991" y2="35.008" gradientUnits="userSpaceOnUse"><stop offset="0" stop-color="#484b4f"/><stop offset=".028" stop-color="#565b61"/><stop offset=".066" stop-color="#626a72"/><stop offset=".114" stop-color="#6b757d"/><stop offset=".181" stop-color="#717b84"/><stop offset=".367" stop-color="#727d86"/></linearGradient><path fill="url(#UFInZBEzcToHc6YE9eFqhd)" d="M43.904,34.462l-2.877-2.877C40.653,31.211,40.144,31,39.614,31H6.386	c-0.53,0-1.039,0.211-1.414,0.586l-2.88,2.88C1.895,34.663,2.035,35,2.314,35h14.068c0.379,0,0.725-0.214,0.894-0.553l0.447-0.894	C17.893,33.214,18.239,33,18.618,33h8.764c0.379,0,0.725,0.214,0.894,0.553l0.447,0.894C28.893,34.786,29.239,35,29.618,35h14.064	C43.962,35,44.103,34.661,43.904,34.462z"/><path d="M27,37h14V15H30c-1.657,0-3,1.343-3,3V37z" opacity=".05"/><path d="M28,37h13V16H30c-1.105,0-2,0.895-2,2V37z" opacity=".07"/><path fill="#184f85" d="M44,38H29v2c0,1.105,0.895,2,2,2h11c1.105,0,2-0.895,2-2V38z"/><rect width="15" height="4" x="29" y="34" fill="#0078d4"/><rect width="15" height="8" x="29" y="26" fill="#1b9de2"/><rect width="15" height="7" x="29" y="19" fill="#35c1f1"/><path fill="#50e6ff" d="M44,19H29v-1c0-1.105,0.895-2,2-2h11c1.105,0,2,0.895,2,2V19z"/><circle cx="33.5" cy="17.5" r=".5" fill="#0c63ad"/><path fill="#0c63ad" d="M38.5,17c-0.129,0-2.871,0-3,0c-0.276,0-0.5,0.224-0.5,0.5c0,0.276,0.224,0.5,0.5,0.5	c0.129,0,2.871,0,3,0c0.276,0,0.5-0.224,0.5-0.5C39,17.224,38.776,17,38.5,17z"/></svg>