<svg xmlns="http://www.w3.org/2000/svg" viewBox="0 0 48 48"><linearGradient id="_oY2QYAL4DGJfwa6bOSVea" x1="5.021" x2="38.073" y1="5.021" y2="38.073" gradientUnits="userSpaceOnUse"><stop offset="0" stop-color="#ffd869"/><stop offset="1" stop-color="#fec52b"/></linearGradient><path fill="url(#_oY2QYAL4DGJfwa6bOSVea)" d="M6,40V8c0-1.1,0.9-2,2-2h32c1.1,0,2,0.9,2,2v32c0,1.1-0.9,2-2,2H8C6.9,42,6,41.1,6,40z"/><path fill="#fff8e6" d="M29,11H19V6h10V11z"/><rect width="10" height="2" x="10" y="37" fill="#6b5f41"/><polygon fill="#6b5f41" points="11,32 11,35 13,35 13,32 14,32 12,30 10,32"/><polygon fill="#6b5f41" points="17,32 17,35 19,35 19,32 20,32 18,30 16,32"/><path fill="#199be2" d="M44.992,43.224l-1.768,1.768l2.935,2.935c0.098,0.098,0.256,0.098,0.354,0l1.414-1.414	c0.098-0.098,0.098-0.256,0-0.354L44.992,43.224z"/><radialGradient id="_oY2QYAL4DGJfwa6bOSVeb" cx="37.012" cy="-440.952" r="9.802" gradientTransform="translate(0 478)" gradientUnits="userSpaceOnUse"><stop offset=".693" stop-color="#006185"/><stop offset=".921" stop-color="#35c1f1"/></radialGradient><polygon fill="url(#_oY2QYAL4DGJfwa6bOSVeb)" points="42.8,41.033 41.033,42.8 43.224,44.992 44.992,43.224"/><radialGradient id="_oY2QYAL4DGJfwa6bOSVec" cx="37.138" cy="37.138" r="9.608" gradientUnits="userSpaceOnUse"><stop offset="0"/><stop offset="1" stop-opacity="0"/></radialGradient><path fill="url(#_oY2QYAL4DGJfwa6bOSVec)" d="M37,27c-5.514,0-10,4.486-10,10c0,1.822,0.498,3.527,1.353,5H40c1.1,0,2-0.9,2-2V28.353	C40.527,27.498,38.822,27,37,27z"/><linearGradient id="_oY2QYAL4DGJfwa6bOSVed" x1="31.455" x2="42.669" y1="-446.545" y2="-435.331" gradientTransform="translate(0 478)" gradientUnits="userSpaceOnUse"><stop offset="0" stop-color="#a3ffff"/><stop offset=".223" stop-color="#9dfbff"/><stop offset=".53" stop-color="#8bf1ff"/><stop offset=".885" stop-color="#6ee0ff"/><stop offset="1" stop-color="#63daff"/></linearGradient><circle cx="37" cy="37" r="8" fill="url(#_oY2QYAL4DGJfwa6bOSVed)"/></svg>