<svg xmlns="http://www.w3.org/2000/svg" viewBox="0 0 48 48"><path fill="#c98e00" d="M32,19.5c0,4.51-3.13,8.28-7.35,9.25C23.96,28.92,23.24,29,22.5,29c-3.99,0-7.41-2.46-8.81-5.95	c-0.21-0.51-2.12-5.13-4.09-9.92c-0.05-0.11-0.43-1.05-0.83-2.02c1.69-1.78,3.76-3.29,6.12-4.46C18.21,5,22.09,4.04,26.24,4	c0.79,1.76,1.61,3.58,1.72,3.81c1.67,3.78,3.24,7.49,3.7,9.15C31.88,17.77,32,18.62,32,19.5z"/><circle cx="31.5" cy="31.5" r="12.5" fill="#c9d4e0"/><circle cx="31.5" cy="31.5" r="10.5" fill="#b2bbc7"/><path fill="#c9d4e0" d="M28.363,36.538v-1.88c0.683,0.418,1.409,0.626,2.18,0.626c0.58,0,1.034-0.138,1.362-0.414	c0.328-0.276,0.491-0.651,0.491-1.125c0-0.989-0.699-1.483-2.096-1.483c-0.455,0-1.65,0.192-1.65,0.192v-5.645h5.529v1.796H30.53	v1.999c0.292-0.028,0.568-0.042,0.829-0.042c1.026,0,1.829,0.27,2.409,0.808c0.58,0.539,0.871,1.263,0.871,2.174	c0,1.007-0.346,1.83-1.038,2.468c-0.692,0.639-1.629,0.958-2.813,0.958C29.825,36.97,29.017,36.825,28.363,36.538z"/><radialGradient id="91szSFBXxWYAA99wNDplca" cx="17.092" cy="21.784" r="12.743" gradientUnits="userSpaceOnUse"><stop offset="0"/><stop offset="1" stop-opacity="0"/></radialGradient><path fill="url(#91szSFBXxWYAA99wNDplca)" d="M19,31.5c0,1.292,0.196,2.538,0.56,3.711C25.966,34.672,31,29.31,31,22.764	c0-1.292-0.196-2.538-0.56-3.711C24.034,19.593,19,24.954,19,31.5z"/><linearGradient id="91szSFBXxWYAA99wNDplcb" x1="4.01" x2="27.001" y1="19.326" y2="19.326" gradientUnits="userSpaceOnUse"><stop offset="0" stop-color="#ffcf54"/><stop offset=".261" stop-color="#fdcb4d"/><stop offset=".639" stop-color="#f7c13a"/><stop offset="1" stop-color="#f0b421"/></linearGradient><path fill="url(#91szSFBXxWYAA99wNDplcb)" d="M24.65,28.75c-0.13,0.16-0.28,0.32-0.43,0.47c-3.71,3.71-9.73,3.71-13.44,0	c-1.32-1.32-3.94-4-6.77-6.9c0.04-4.23,1.81-8.12,4.76-11.21c1.69-1.78,3.76-3.29,6.12-4.46l2.57,2.51c0,0,6.23,6.09,6.76,6.62	C27.78,19.34,27.92,25.02,24.65,28.75z"/><circle cx="17.5" cy="22.5" r="5.5" fill="#ffde87"/></svg>