<svg xmlns="http://www.w3.org/2000/svg" baseProfile="basic" viewBox="0 0 48 48"><linearGradient id="ggSiy2pFrL_eeyX8lLmlDa" x1="24.011" x2="24.011" y1="1022.248" y2="996.107" gradientTransform="translate(0 -993.67)" gradientUnits="userSpaceOnUse"><stop offset="0" stop-color="#737b80"/><stop offset=".473" stop-color="#686f74"/><stop offset="1" stop-color="#575c61"/></linearGradient><path fill="url(#ggSiy2pFrL_eeyX8lLmlDa)" d="M41.829,31.015L39.401,9.551C39.173,7.528,37.462,6,35.427,6H12.576	c-2.037,0-3.748,1.53-3.975,3.554l-2.408,21.46L24,31L41.829,31.015z"/><linearGradient id="ggSiy2pFrL_eeyX8lLmlDb" x1="-4736" x2="-4736" y1="1023.114" y2="1040.414" gradientTransform="matrix(-1 0 0 1 -4712 -993.67)" gradientUnits="userSpaceOnUse"><stop offset="0" stop-color="#899198"/><stop offset="1" stop-color="#787e85"/></linearGradient><path fill="url(#ggSiy2pFrL_eeyX8lLmlDb)" d="M9,42h30c1.65,0,3-1.35,3-3v-7c0-1.65-1.35-3-3-3H9c-1.65,0-3,1.35-3,3v7	C6,40.65,7.35,42,9,42z"/><linearGradient id="ggSiy2pFrL_eeyX8lLmlDc" x1="37.773" x2="34.17" y1="1030.943" y2="1027.34" gradientTransform="translate(0 -993.67)" gradientUnits="userSpaceOnUse"><stop offset="0" stop-color="#fff"/><stop offset=".242" stop-color="#f2f2f2"/><stop offset="1" stop-color="#ccc"/></linearGradient><path fill="url(#ggSiy2pFrL_eeyX8lLmlDc)" d="M38.5,35.5c0,1.38-1.12,2.5-2.5,2.5s-2.5-1.12-2.5-2.5S34.62,33,36,33S38.5,34.12,38.5,35.5z"/><linearGradient id="ggSiy2pFrL_eeyX8lLmlDd" x1="34.94" x2="37.06" y1="1028.109" y2="1030.231" gradientTransform="translate(0 -993.67)" gradientUnits="userSpaceOnUse"><stop offset="0" stop-color="#21ad64"/><stop offset="1" stop-color="#088242"/></linearGradient><path fill="url(#ggSiy2pFrL_eeyX8lLmlDd)" d="M37.5,35.5c0,0.828-0.672,1.5-1.5,1.5s-1.5-0.672-1.5-1.5S35.172,34,36,34	S37.5,34.672,37.5,35.5z"/><path fill="#737b80" d="M12,34h18c0.552,0,1,0.448,1,1v1c0,0.552-0.448,1-1,1H12c-0.552,0-1-0.448-1-1v-1	C11,34.448,11.448,34,12,34z"/><path d="M31.466,11.623c-0.176-0.226-0.441-0.364-0.786-0.383c-0.266,0-0.516,0.103-0.707,0.292l-0.004-0.007	c0.201-0.202,0.307-0.481,0.289-0.767c-0.018-0.284-0.156-0.548-0.38-0.725C28.211,8.722,26.124,8,24,8	c-4.823,0-8.879,3.604-9.434,8.388c-0.031,0.282,0.06,0.565,0.248,0.777c0.189,0.213,0.461,0.335,0.746,0.335	c-0.286,0-0.559,0.123-0.747,0.335c-0.191,0.214-0.28,0.5-0.245,0.782c0.516,4.378,3.936,7.798,8.312,8.315	c0.021,0.002,0.1,0.007,0.12,0.007c0.246,0,0.482-0.09,0.664-0.253C23.878,26.497,24,26.225,24,25.94	c0,0.285,0.122,0.557,0.336,0.748c0.184,0.163,0.42,0.252,0.664,0.252c0.02,0,0.096-0.004,0.115-0.007	c4.78-0.555,8.385-4.61,8.385-9.433C33.5,15.377,32.777,13.289,31.466,11.623z M24.676,19.374C24.271,19.512,24,19.893,24,20.32	c0-0.429-0.272-0.809-0.678-0.946c-0.559-0.19-1.005-0.638-1.196-1.197c-0.139-0.405-0.519-0.676-0.946-0.676	c0.429,0,0.81-0.272,0.945-0.676C22.396,16.032,23.15,15.5,24,15.5c0.29,0,0.585,0.069,0.851,0.197	c0.136,0.067,0.287,0.103,0.439,0.103c0.24,0,0.468-0.084,0.65-0.24c-0.257,0.3-0.314,0.727-0.14,1.088	C25.931,16.915,26,17.209,26,17.5C26,18.35,25.468,19.103,24.676,19.374z" opacity=".05"/><path d="M25,26.44c-0.122,0-0.24-0.044-0.333-0.126c-0.106-0.095-0.167-0.231-0.167-0.374v-5.62	c0-0.214,0.136-0.404,0.338-0.473c0.994-0.34,1.662-1.283,1.662-2.347c0-0.365-0.086-0.735-0.25-1.072	c-0.093-0.192-0.054-0.421,0.097-0.572l3.979-3.97c0.095-0.094,0.222-0.146,0.354-0.146c0.01,0,0.02,0,0.03,0.001	c0.143,0.008,0.274,0.078,0.362,0.19C32.315,13.511,33,15.488,33,17.5c0,4.569-3.414,8.411-7.942,8.937	C25.038,26.439,25.02,26.44,25,26.44z M22.941,26.437c-4.148-0.491-7.388-3.73-7.877-7.878c-0.018-0.142,0.027-0.284,0.122-0.391	C15.281,18.061,15.418,18,15.561,18h5.619c0.214,0,0.404,0.136,0.474,0.338c0.24,0.705,0.804,1.268,1.508,1.508	c0.203,0.069,0.339,0.259,0.339,0.473v5.62c0,0.143-0.062,0.279-0.168,0.374C23.24,26.396,23.122,26.44,23,26.44	C22.98,26.44,22.961,26.439,22.941,26.437z M15.561,17c-0.143,0-0.278-0.061-0.373-0.167s-0.14-0.249-0.124-0.39	C15.589,11.915,19.431,8.5,24,8.5c2.011,0,3.989,0.684,5.568,1.927c0.112,0.088,0.182,0.22,0.19,0.363s-0.044,0.282-0.145,0.383	l-3.97,3.98C25.548,15.249,25.42,15.3,25.29,15.3c-0.074,0-0.149-0.017-0.219-0.051C24.736,15.086,24.366,15,24,15	c-1.063,0-2.007,0.668-2.348,1.662C21.584,16.864,21.394,17,21.18,17H15.561z" opacity=".07"/><path fill="#fff" d="M30.68,12.24l-3.98,3.97c0.19,0.39,0.3,0.83,0.3,1.29c0,1.31-0.83,2.42-2,2.82v5.62	c4.22-0.49,7.5-4.09,7.5-8.44C32.5,15.52,31.82,13.69,30.68,12.24z"/><path fill="#fff" d="M29.26,10.82C27.81,9.68,25.98,9,24,9c-4.35,0-7.95,3.28-8.44,7.5h5.62c0.4-1.17,1.51-2,2.82-2	c0.46,0,0.9,0.11,1.29,0.3L29.26,10.82z"/><path fill="#fff" d="M21.18,18.5h-5.62c0.46,3.89,3.55,6.98,7.44,7.44v-5.62C22.15,20.03,21.47,19.35,21.18,18.5z"/></svg>