<svg xmlns="http://www.w3.org/2000/svg" viewBox="0 0 48 48"><linearGradient id="oEFbB~s~E2gJATxcQaeSra" x1="6.414" x2="41.774" y1="36.338" y2="10.512" gradientTransform="matrix(1 0 0 -1 0 50)" gradientUnits="userSpaceOnUse"><stop offset="0" stop-color="#28afea"/><stop offset="1" stop-color="#047ed6"/></linearGradient><path fill="url(#oEFbB~s~E2gJATxcQaeSra)" d="M6,40V12h36v28c0,1.1-0.9,2-2,2H8C6.9,42,6,41.1,6,40z"/><linearGradient id="oEFbB~s~E2gJATxcQaeSrb" x1="6.42" x2="41.198" y1="43.392" y2="36.32" gradientTransform="matrix(1 0 0 -1 0 50)" gradientUnits="userSpaceOnUse"><stop offset="0" stop-color="#0077d2"/><stop offset="1" stop-color="#0b59a2"/></linearGradient><path fill="url(#oEFbB~s~E2gJATxcQaeSrb)" d="M42,8v6H6V8c0-1.1,0.9-2,2-2h32C41.1,6,42,6.9,42,8z"/><path d="M35.5,12.5L35.5,12.5c-1.657,0-3-1.343-3-3V6h6v3.5	C38.5,11.157,37.157,12.5,35.5,12.5z" opacity=".05"/><path d="M35.5,11.75L35.5,11.75c-1.243,0-2.25-1.007-2.25-2.25V6h4.5v3.5	C37.75,10.743,36.743,11.75,35.5,11.75z" opacity=".07"/><path d="M12.5,12.5L12.5,12.5c-1.657,0-3-1.343-3-3V6h6v3.5	C15.5,11.157,14.157,12.5,12.5,12.5z" opacity=".05"/><path d="M12.5,11.75L12.5,11.75c-1.243,0-2.25-1.007-2.25-2.25V6h4.5v3.5	C14.75,10.743,13.743,11.75,12.5,11.75z" opacity=".07"/><path fill="#3ccbf4" d="M12.5,11L12.5,11c-0.828,0-1.5-0.672-1.5-1.5v-4C11,4.672,11.672,4,12.5,4l0,0	C13.328,4,14,4.672,14,5.5v4C14,10.328,13.328,11,12.5,11z"/><path fill="#3ccbf4" d="M35.5,11L35.5,11c-0.828,0-1.5-0.672-1.5-1.5v-4C34,4.672,34.672,4,35.5,4l0,0	C36.328,4,37,4.672,37,5.5v4C37,10.328,36.328,11,35.5,11z"/><path fill="#fff" d="M11.6,31.898v-9.803h3.473c3.481,0,5.223,1.593,5.223,4.778c0,1.526-0.475,2.746-1.426,3.657 c-0.949,0.911-2.216,1.367-3.797,1.367H11.6z M13.808,23.893v6.214h1.094c0.957,0,1.708-0.287,2.253-0.861 c0.544-0.574,0.816-1.355,0.816-2.345c0-0.935-0.27-1.669-0.811-2.204c-0.539-0.536-1.297-0.804-2.272-0.804H13.808z"/><path fill="#fff" d="M27.801,31.898h-5.879v-9.803h5.653v1.798H24.13v2.181h3.206v1.791H24.13v2.242h3.671V31.898z"/><path fill="#fff" d="M36.4,31.549c-0.716,0.347-1.649,0.52-2.803,0.52c-1.504,0-2.687-0.442-3.548-1.326 s-1.292-2.062-1.292-3.534c0-1.567,0.484-2.839,1.453-3.814c0.968-0.976,2.225-1.463,3.77-1.463c0.957,0,1.764,0.121,2.42,0.362 v2.126c-0.656-0.392-1.403-0.588-2.242-0.588c-0.921,0-1.663,0.289-2.229,0.868s-0.848,1.362-0.848,2.352 c0,0.948,0.267,1.703,0.8,2.267c0.533,0.562,1.251,0.844,2.153,0.844c0.861,0,1.649-0.21,2.365-0.629V31.549z"/></svg>