<svg xmlns="http://www.w3.org/2000/svg" viewBox="0 0 48 48"><linearGradient id="JZj9BmJkZIbkauZiVg0Yka" x1="24.052" x2="22.085" y1="46.285" y2="8.591" gradientUnits="userSpaceOnUse"><stop offset="0" stop-color="#8f979e"/><stop offset="1" stop-color="#a1aab3"/></linearGradient><path fill="url(#JZj9BmJkZIbkauZiVg0Yka)" d="M41.178,7.284c-1.709-1.699-4.222-0.428-5.461,0.797C34.641,9.147,4.253,42.715,4.253,42.715 c-0.647,0.708,0.072,1.371,0.758,0.753c0,0,34.252-29.65,35.36-30.756C41.648,11.446,42.881,8.978,41.178,7.284z M38.85,11.638 c-0.471,0.609-0.619,0.616-1.866,1.855c-0.809,0.804-1.929,0.998-2.495,0.436c-0.563-0.563-0.369-1.668,0.442-2.469 c0.362-0.361,2.033-2.028,2.099-2.054c0.776-0.609,1.718-0.717,2.226-0.212c0.562,0.552,0.372,1.633-0.398,2.429 C38.857,11.628,38.855,11.633,38.85,11.638z"/><linearGradient id="JZj9BmJkZIbkauZiVg0Ykb" x1="27.222" x2="37.407" y1="9.167" y2="30.895" gradientUnits="userSpaceOnUse"><stop offset=".273" stop-color="#912fbd"/><stop offset=".588" stop-color="#8f2ebb"/><stop offset=".758" stop-color="#892bb3"/><stop offset=".894" stop-color="#7e26a5"/><stop offset="1" stop-color="#701f94"/></linearGradient><path fill="url(#JZj9BmJkZIbkauZiVg0Ykb)" d="M20.866,5.156c-0.05-0.55,0.358-1.036,0.91-1.086c0.481-0.042,11.784-1.031,16.071,7.482 c0.133,0.263,0.244,0.524,0.352,0.785c-0.251,0.232-0.598,0.542-1.214,1.155c-0.125,0.124-0.258,0.228-0.394,0.322 c-0.14-0.454-0.314-0.909-0.544-1.368c-3.665-7.281-13.985-6.393-14.088-6.385C21.392,6.118,20.914,5.705,20.866,5.156z M43.993,42 c-5.358,0-11.074-0.541-11.074-7c0-3.072,1.511-6.137,2.973-9.101c1.85-3.752,3.744-7.611,2.868-11.748 c-0.507,0.446-1.115,0.98-1.816,1.593c0.189,3.083-1.301,6.114-2.859,9.275c-1.562,3.169-3.178,6.445-3.178,9.98 c0,9,9.171,9,13.087,9C44.55,44,45,43.553,45,43S44.55,42,43.993,42z"/></svg>