<svg xmlns="http://www.w3.org/2000/svg" viewBox="0 0 48 48"><radialGradient id="2UtlBWx0MmfX~iC~0S8Ata" cx="23.754" cy="21.405" r="13.71" gradientUnits="userSpaceOnUse"><stop offset=".376" stop-color="#261103"/><stop offset=".68" stop-color="#431d06"/><stop offset="1" stop-color="#662c09"/></radialGradient><path fill="url(#2UtlBWx0MmfX~iC~0S8Ata)" d="M24,9C13.704,9,11.15,25.625,11.15,25.625c0,2.96,1.375,5.553,4.253,6.24	C17.869,32.454,20.972,33,24,33s6.131-0.546,8.596-1.134c2.879-0.687,4.253-3.281,4.253-6.24C36.85,25.625,34.296,9,24,9z"/><linearGradient id="2UtlBWx0MmfX~iC~0S8Atb" x1="20.766" x2="25.05" y1="30.008" y2="44.746" gradientUnits="userSpaceOnUse"><stop offset="0" stop-color="#8795a1"/><stop offset="1" stop-color="#6d7882"/></linearGradient><path fill="url(#2UtlBWx0MmfX~iC~0S8Atb)" d="M24,30.571c-8.837,0-16,4.921-16,10.286V42c0,1.105,0.895,2,2,2h28c1.105,0,2-0.895,2-2	v-1.143C40,35.492,32.837,30.571,24,30.571z"/><circle cx="28.5" cy="33.5" r="2.5" fill="#9aaab8"/><path fill="#9aaab8" d="M31,38c0,4.286-7,6-7,6s0-4.92,0-6c0-1.657,2.343-3,4-3S31,36.343,31,38z"/><circle cx="19.5" cy="33.5" r="2.5" fill="#9aaab8"/><path fill="#9aaab8" d="M17,38c0,4.286,7,6,7,6s0-4.92,0-6c0-1.657-2.343-3-4-3S17,36.343,17,38z"/><path fill="#fff" d="M29,30.079C29,37.991,24,42,24,42s-5-4.009-5-11.921C19,27.442,19,26,19,26h10	C29,26,29,27.442,29,30.079z"/><path fill="#fff" d="M29,30.079C29,37.991,24,42,24,42s-5-4.009-5-11.921C19,27.442,19,26,19,26h10	C29,26,29,27.442,29,30.079z"/><path fill="#d6a121" d="M29,31c0,1.897-5,6-5,6s-5-4.103-5-6c0-2.637,0-7.035,0-7.035h10C29,23.965,29,28.363,29,31z"/><radialGradient id="2UtlBWx0MmfX~iC~0S8Atc" cx="36.269" cy="19.14" r="10.721" gradientTransform="matrix(-.9136 0 0 .9667 57.134 1.533)" gradientUnits="userSpaceOnUse"><stop offset="0" stop-color="#ffcf54"/><stop offset=".261" stop-color="#fdcb4d"/><stop offset=".639" stop-color="#f7c13a"/><stop offset="1" stop-color="#f0b421"/></radialGradient><path fill="url(#2UtlBWx0MmfX~iC~0S8Atc)" d="M24,8.071c3.948,0,8,0.693,8,9.722c0,0.723,0,5.736,0,6.508C32,27.526,27.101,32,24,32	s-8-4.474-8-7.698c0-0.772,0-5.785,0-6.508C16,9,20.052,8.071,24,8.071z"/><radialGradient id="2UtlBWx0MmfX~iC~0S8Atd" cx="16.884" cy="5.474" r="32.342" gradientUnits="userSpaceOnUse"><stop offset="0" stop-color="#c26715"/><stop offset=".508" stop-color="#b85515"/><stop offset="1" stop-color="#ad3f16"/></radialGradient><path fill="url(#2UtlBWx0MmfX~iC~0S8Atd)" d="M24,5c-5.188,0-6,3-6,3c-2.109,0.311-7,1-7,17.478c0,3.801,1.903,5.197,2.6,5.603	C11,16.717,20.576,19.036,19,10c4.046,11.813,16.293,0.054,15.871,20.734C36.077,29.817,37,27.977,37,25.478	C37,11.672,31.399,5,24,5z"/></svg>