<svg xmlns="http://www.w3.org/2000/svg" baseProfile="basic" viewBox="0 0 48 48"><radialGradient id="MeTbaVQD7BDhF7g2J0-Nua" cx="26.268" cy="34.705" r="36.039" gradientTransform="matrix(1 0 0 -1 0 50)" gradientUnits="userSpaceOnUse"><stop offset="0" stop-color="#23d9d6"/><stop offset=".159" stop-color="#22c7da"/><stop offset=".479" stop-color="#1e97e6"/><stop offset=".927" stop-color="#194bf8"/><stop offset="1" stop-color="#183efb"/></radialGradient><polygon fill="url(#MeTbaVQD7BDhF7g2J0-Nua)" points="27.176,39.882 42,37.765 42,24 27.176,25.059"/><linearGradient id="MeTbaVQD7BDhF7g2J0-Nub" x1="31.941" x2="31.941" y1="18.289" y2="28.826" gradientTransform="matrix(1 0 0 -1 0 50)" gradientUnits="userSpaceOnUse"><stop offset=".018" stop-color="#0078d3"/><stop offset="1" stop-color="#0858a1"/></linearGradient><polygon fill="url(#MeTbaVQD7BDhF7g2J0-Nub)" points="42,24 33.529,20.824 21.882,21.882 27.176,25.059"/><linearGradient id="MeTbaVQD7BDhF7g2J0-Nuc" x1="24.529" x2="24.529" y1="26.811" y2="11.329" gradientTransform="matrix(1 0 0 -1 0 50)" gradientUnits="userSpaceOnUse"><stop offset="0" stop-color="#0078d3"/><stop offset="1" stop-color="#0858a1"/></linearGradient><polygon fill="url(#MeTbaVQD7BDhF7g2J0-Nuc)" points="21.882,21.882 21.882,35.647 27.176,39.882 27.176,25.059"/><linearGradient id="MeTbaVQD7BDhF7g2J0-Nud" x1="11.541" x2="21.502" y1="26.566" y2="8.534" gradientTransform="matrix(1 0 0 -1 0 50)" gradientUnits="userSpaceOnUse"><stop offset="0" stop-color="#ffd869"/><stop offset="1" stop-color="#fec52b"/></linearGradient><polygon fill="url(#MeTbaVQD7BDhF7g2J0-Nud)" points="9.176,42 25.059,39.882 25.059,25.059 9.176,26.118"/><linearGradient id="MeTbaVQD7BDhF7g2J0-Nue" x1="15.53" x2="15.53" y1="19.509" y2="30.872" gradientTransform="matrix(1 0 0 -1 0 50)" gradientUnits="userSpaceOnUse"><stop offset="0" stop-color="#fed100"/><stop offset="1" stop-color="#e36001"/></linearGradient><polygon fill="url(#MeTbaVQD7BDhF7g2J0-Nue)" points="25.059,25.059 19.765,21.882 6,22.941 9.176,26.118"/><linearGradient id="MeTbaVQD7BDhF7g2J0-Nuf" x1="7.588" x2="7.588" y1="35.497" y2="-5.851" gradientTransform="matrix(1 0 0 -1 0 50)" gradientUnits="userSpaceOnUse"><stop offset="0" stop-color="#fed100"/><stop offset="1" stop-color="#e36001"/></linearGradient><polygon fill="url(#MeTbaVQD7BDhF7g2J0-Nuf)" points="6,22.941 6,37.765 9.176,42 9.176,26.118"/><linearGradient id="MeTbaVQD7BDhF7g2J0-Nug" x1="30.724" x2="39.039" y1="46.145" y2="23.301" gradientTransform="matrix(1 0 0 -1 0 50)" gradientUnits="userSpaceOnUse"><stop offset="0" stop-color="#21ad64"/><stop offset="1" stop-color="#088242"/></linearGradient><polygon fill="url(#MeTbaVQD7BDhF7g2J0-Nug)" points="27.176,22.941 42,21.882 42,6 27.176,6"/><polygon fill="#107c42" points="21.882,8.118 21.882,19.765 27.176,22.941 27.176,6"/><linearGradient id="MeTbaVQD7BDhF7g2J0-Nuh" x1="17.117" x2="17.117" y1="43.908" y2="25.559" gradientTransform="matrix(1 0 0 -1 0 50)" gradientUnits="userSpaceOnUse"><stop offset="0" stop-color="#f44f5a"/><stop offset=".443" stop-color="#ee3d4a"/><stop offset="1" stop-color="#e52030"/></linearGradient><polygon fill="url(#MeTbaVQD7BDhF7g2J0-Nuh)" points="9.176,24 25.059,22.941 25.059,6 9.176,6"/><linearGradient id="MeTbaVQD7BDhF7g2J0-Nui" x1="7.588" x2="7.588" y1="23.8" y2="44.754" gradientTransform="matrix(1 0 0 -1 0 50)" gradientUnits="userSpaceOnUse"><stop offset="0" stop-color="#a8142e"/><stop offset=".736" stop-color="#ba1632"/><stop offset="1" stop-color="#c21734"/></linearGradient><polygon fill="url(#MeTbaVQD7BDhF7g2J0-Nui)" points="6,8.118 6,20.824 9.176,24 9.176,6"/></svg>