<svg xmlns="http://www.w3.org/2000/svg" viewBox="0 0 48 48"><linearGradient id="nyeHUin1eCW9T4kNqueuoa" x1="21.046" x2="26.776" y1="6.046" y2="11.776" gradientUnits="userSpaceOnUse"><stop offset="0" stop-color="#0d61a9"/><stop offset="1" stop-color="#16528c"/></linearGradient><circle cx="24" cy="9" r="4" fill="url(#nyeHUin1eCW9T4kNqueuoa)"/><linearGradient id="nyeHUin1eCW9T4kNqueuob" x1="39.045" x2="42.844" y1="7.135" y2="14.646" gradientUnits="userSpaceOnUse"><stop offset="0" stop-color="#199ae0"/><stop offset="1" stop-color="#0782d8"/></linearGradient><circle cx="41" cy="11" r="4" fill="url(#nyeHUin1eCW9T4kNqueuob)"/><linearGradient id="nyeHUin1eCW9T4kNqueuoc" x1="20.644" x2="25.369" y1="16.863" y2="26.86" gradientUnits="userSpaceOnUse"><stop offset="0" stop-color="#0d61a9"/><stop offset="1" stop-color="#16528c"/></linearGradient><path fill="url(#nyeHUin1eCW9T4kNqueuoc)" d="M31,26.5H17V23c0-3.866,3.134-7,7-7l0,0c3.866,0,7,3.134,7,7V26.5z"/><linearGradient id="nyeHUin1eCW9T4kNqueuod" x1="28.469" x2="42.744" y1="-3.28" y2="51.836" gradientUnits="userSpaceOnUse"><stop offset="0" stop-color="#199ae0"/><stop offset="1" stop-color="#0782d8"/></linearGradient><path fill="url(#nyeHUin1eCW9T4kNqueuod)" d="M41,18c-2.209,0-4,1.791-4,4v7.981l-5.379,1.057C30.698,31.215,30,32.025,30,33v8.5	c0,0.828,0.672,1.5,1.5,1.5s1.421-0.69,1.519-1.5c0.037-0.307,0.791-6.5,0.791-6.5H41c2.209,0,4-1.791,4-4v-9	C45,19.791,43.209,18,41,18z"/><linearGradient id="nyeHUin1eCW9T4kNqueuoe" x1="68.045" x2="71.844" y1="7.135" y2="14.646" gradientTransform="matrix(-1 0 0 1 77 0)" gradientUnits="userSpaceOnUse"><stop offset="0" stop-color="#199ae0"/><stop offset="1" stop-color="#0782d8"/></linearGradient><circle cx="7" cy="11" r="4" fill="url(#nyeHUin1eCW9T4kNqueuoe)"/><linearGradient id="nyeHUin1eCW9T4kNqueuof" x1="57.469" x2="71.744" y1="-3.28" y2="51.836" gradientTransform="matrix(-1 0 0 1 77 0)" gradientUnits="userSpaceOnUse"><stop offset="0" stop-color="#199ae0"/><stop offset="1" stop-color="#0782d8"/></linearGradient><path fill="url(#nyeHUin1eCW9T4kNqueuof)" d="M7,18c2.209,0,4,1.791,4,4v7.981l5.379,1.057C17.302,31.215,18,32.025,18,33v8.5	c0,0.828-0.672,1.5-1.5,1.5s-1.421-0.69-1.519-1.5C14.944,41.193,14.19,35,14.19,35H7c-2.209,0-4-1.791-4-4v-9	C3,19.791,4.791,18,7,18z"/><path fill="#3cf" d="M33,28H15c-0.552,0-1-0.448-1-1v-1c0-0.552,0.448-1,1-1h18c0.552,0,1,0.448,1,1v1	C34,27.552,33.552,28,33,28z"/></svg>