<svg xmlns="http://www.w3.org/2000/svg" xmlns:xlink="http://www.w3.org/1999/xlink" data-name="Слой 1" viewBox="0 0 48 48"><defs><linearGradient id="IeGE4ltHddiW7XFcOLqoJa" x1="24.774" x2="46.989" y1="27.417" y2="27.417" data-name="Безымянный градиент 122" gradientUnits="userSpaceOnUse"><stop offset="0" stop-color="#2589d0"/><stop offset=".378" stop-color="#259ff1"/><stop offset="1" stop-color="#32bdef"/></linearGradient><linearGradient id="IeGE4ltHddiW7XFcOLqoJb" x1="21.033" x2="39.033" y1="26.929" y2="26.929" gradientTransform="rotate(21.209 31.554 25.789)" xlink:href="#IeGE4ltHddiW7XFcOLqoJa"/><linearGradient id="IeGE4ltHddiW7XFcOLqoJc" x1="13.641" x2="31.641" y1="26.332" y2="26.332" gradientTransform="rotate(13.039 29.537 24.69)" xlink:href="#IeGE4ltHddiW7XFcOLqoJa"/><linearGradient id="IeGE4ltHddiW7XFcOLqoJd" x1="7.706" x2="21.67" y1="25.087" y2="25.087" gradientTransform="rotate(5.561 27.5 24)" xlink:href="#IeGE4ltHddiW7XFcOLqoJa"/><linearGradient id="IeGE4ltHddiW7XFcOLqoJe" x1="4.358" x2="20.988" y1="5.171" y2="60.671" data-name="Новый образец градиентной зал 3" gradientUnits="userSpaceOnUse"><stop offset="0" stop-color="#32bdef"/><stop offset="1" stop-color="#1ea2e4"/></linearGradient></defs><path fill="url(#IeGE4ltHddiW7XFcOLqoJa)" d="M43.55914,17.6059c-4.49823-2.4682-11.19934,1.70129-15.587,9.69775a24.4155,24.4155,0,0,0-3.19769,10.6311h3.99871a20.77421,20.77421,0,0,1,2.70575-8.70691c3.57636-6.51788,8.32556-9.1195,10.156-8.11517s2.18732,6.40772-1.389,12.9256a2,2,0,0,0,3.50684,1.92413C48.14038,27.966,48.05737,20.074,43.55914,17.6059Z"/><path fill="url(#IeGE4ltHddiW7XFcOLqoJb)" d="M23.93527,41.21755c-4.78334-1.85616-5.90187-9.66888-2.60218-18.17219S30.72842,9.52877,35.51176,11.38494s5.90187,9.66888,2.60218,18.1722S28.71861,43.07372,23.93527,41.21755ZM34.0647,15.114c-1.94648-.75533-6.313,2.44738-9.00253,9.3784s-1.62632,12.24073.32016,12.99606,6.313-2.44739,9.00253-9.37841S36.01118,15.86934,34.0647,15.114Z"/><path fill="url(#IeGE4ltHddiW7XFcOLqoJc)" d="M18.839,40.32113c-4.99857-1.15758-7.216-8.73206-5.15818-17.618S21.06,7.98859,26.05853,9.14617s7.216,8.732,5.15818,17.618S23.83754,41.47871,18.839,40.32113ZM25.15609,13.043c-2.03406-.471-5.9011,3.31966-7.57843,10.56255s.12969,12.34761,2.16375,12.81867,5.9011-3.31967,7.57843-10.56255S27.19015,13.51409,25.15609,13.043Z"/><path fill="url(#IeGE4ltHddiW7XFcOLqoJd)" d="M14.34389,39.88683c-5.10671-.49724-8.291-7.71872-7.40708-16.79689S12.3383,7.54021,17.445,8.03745s8.291,7.71871,7.40708,16.79688S19.4506,40.38406,14.34389,39.88683Zm2.71348-27.86821c-2.07806-.20234-5.4189,4.05939-6.13939,11.459s1.73548,12.22573,3.81355,12.42806,5.4189-4.05939,6.13938-11.459S19.13543,12.221,17.05737,12.01862Z"/><path fill="url(#IeGE4ltHddiW7XFcOLqoJe)" d="M10,40c-5.13086,0-9-6.87891-9-16S4.86914,8,10,8s9,6.87891,9,16S15.13086,40,10,40Zm0-28c-2.08789,0-5,4.56543-5,12s2.91211,12,5,12,5-4.56543,5-12S12.08789,12,10,12Z"/></svg>