<svg xmlns="http://www.w3.org/2000/svg" baseProfile="basic" viewBox="0 0 48 48"><polygon fill="#ed6c47" points="5,15 4,13 23.5,3 43,13 42,15"/><rect width="37" height="29" x="5" y="15" fill="#ed6c47"/><rect width="37" height="2" x="5" y="25" fill="#ff8f6b"/><path fill="#ed6c47" d="M25,0h-3c-0.552,0-1,0.448-1,1v3h5V1C26,0.448,25.552,0,25,0z"/><path fill="#ff8f6b" d="M42,16H5c-0.379,0-0.725-0.214-0.895-0.553l-1-2c-0.245-0.49-0.05-1.087,0.438-1.337l19.5-10	c0.285-0.146,0.627-0.146,0.912,0l19.5,10c0.488,0.25,0.684,0.847,0.438,1.337l-1,2C42.725,15.786,42.379,16,42,16z M5.618,14	h35.764l0.281-0.562L23.5,4.124L5.337,13.438L5.618,14z"/><rect width="37" height="2" x="5" y="35" fill="#ff8f6b"/><path fill="#b63016" d="M27,14.5c0,0.17-0.01,0.34-0.04,0.5h-6.92C20.01,14.84,20,14.67,20,14.5c0-1.93,1.57-3.5,3.5-3.5	S27,12.57,27,14.5z"/><path fill="#ff8f6b" d="M32.47,14.74C31.41,10.77,27.72,8,23.5,8s-7.91,2.77-8.97,6.74c-0.02,0.09-0.03,0.17-0.03,0.26h18	C32.5,14.91,32.49,14.83,32.47,14.74z M16.94,14c1.18-2.41,3.71-4,6.56-4s5.38,1.59,6.56,4H16.94z"/><circle cx="33.5" cy="11.5" r="1.5" fill="#b63016"/><circle cx="13.5" cy="11.5" r="1.5" fill="#b63016"/><path fill="#b63016" d="M25,34h-3v-4.5c0-0.828,0.672-1.5,1.5-1.5h0c0.828,0,1.5,0.672,1.5,1.5V34z"/><path fill="#b63016" d="M28,34h3v-4.5c0-0.828-0.672-1.5-1.5-1.5h0c-0.828,0-1.5,0.672-1.5,1.5V34z"/><path fill="#b63016" d="M34,34h3v-4.5c0-0.828-0.672-1.5-1.5-1.5l0,0c-0.828,0-1.5,0.672-1.5,1.5V34z"/><path fill="#b63016" d="M19,34h-3v-4.5c0-0.828,0.672-1.5,1.5-1.5h0c0.828,0,1.5,0.672,1.5,1.5V34z"/><path fill="#b63016" d="M13,34h-3v-4.5c0-0.828,0.672-1.5,1.5-1.5h0c0.828,0,1.5,0.672,1.5,1.5V34z"/><path fill="#b63016" d="M25,44h-3v-4.5c0-0.828,0.672-1.5,1.5-1.5h0c0.828,0,1.5,0.672,1.5,1.5V44z"/><path fill="#b63016" d="M28,42h3v-2.5c0-0.828-0.672-1.5-1.5-1.5h0c-0.828,0-1.5,0.672-1.5,1.5V42z"/><path fill="#b63016" d="M34,44h3v-4.5c0-0.828-0.672-1.5-1.5-1.5l0,0c-0.828,0-1.5,0.672-1.5,1.5V44z"/><path fill="#b63016" d="M19,42h-3v-2.5c0-0.828,0.672-1.5,1.5-1.5h0c0.828,0,1.5,0.672,1.5,1.5V42z"/><path fill="#b63016" d="M13,44h-3v-4.5c0-0.828,0.672-1.5,1.5-1.5h0c0.828,0,1.5,0.672,1.5,1.5V44z"/><path fill="#b63016" d="M25,24h-3v-4.5c0-0.828,0.672-1.5,1.5-1.5h0c0.828,0,1.5,0.672,1.5,1.5V24z"/><path fill="#b63016" d="M28,24h3v-4.5c0-0.828-0.672-1.5-1.5-1.5h0c-0.828,0-1.5,0.672-1.5,1.5V24z"/><path fill="#b63016" d="M34,24h3v-4.5c0-0.828-0.672-1.5-1.5-1.5l0,0c-0.828,0-1.5,0.672-1.5,1.5V24z"/><path fill="#b63016" d="M19,24h-3v-4.5c0-0.828,0.672-1.5,1.5-1.5h0c0.828,0,1.5,0.672,1.5,1.5V24z"/><path fill="#b63016" d="M13,24h-3v-4.5c0-0.828,0.672-1.5,1.5-1.5h0c0.828,0,1.5,0.672,1.5,1.5V24z"/></svg>