<svg xmlns="http://www.w3.org/2000/svg" viewBox="0 0 48 48"><path fill="#c4401c" d="M8.387,10.596l13.842-2.096c1.093-0.165,2.111,0.586,2.277,1.678l3.593,23.73l-17.797,2.694	l-3.593-23.73C6.544,11.781,7.294,10.762,8.387,10.596z"/><rect width="2" height="2" x="19.61" y="16.848" fill="#ff8f6b" transform="rotate(-8.61 20.609 17.848)"/><rect width="2" height="2" x="15.655" y="17.447" fill="#ff8f6b" transform="rotate(-8.61 16.655 18.447)"/><rect width="2" height="2" x="11.7" y="18.046" fill="#ff8f6b" transform="rotate(-8.61 12.7 19.046)"/><rect width="2" height="2" x="19.012" y="12.893" fill="#ff8f6b" transform="rotate(-8.61 20.01 13.893)"/><rect width="2" height="2" x="15.057" y="13.492" fill="#ff8f6b" transform="rotate(-8.61 16.056 14.492)"/><rect width="2" height="2" x="11.102" y="14.091" fill="#ff8f6b" transform="rotate(-8.61 12.101 15.09)"/><rect width="2" height="2" x="20.808" y="24.758" fill="#ff8f6b" transform="rotate(-8.61 21.807 25.757)"/><rect width="2" height="2" x="16.853" y="25.357" fill="#ff8f6b" transform="rotate(-8.61 17.852 26.356)"/><rect width="2" height="2" x="12.898" y="25.956" fill="#ff8f6b" transform="rotate(-8.61 13.897 26.955)"/><rect width="2" height="2" x="20.209" y="20.803" fill="#ff8f6b" transform="rotate(-8.61 21.208 21.802)"/><rect width="2" height="2" x="16.254" y="21.402" fill="#ff8f6b" transform="rotate(-8.61 17.253 22.4)"/><rect width="2" height="2" x="12.299" y="22.001" fill="#ff8f6b" transform="rotate(-8.61 13.299 23)"/><rect width="2" height="2" x="21.407" y="28.713" fill="#ff8f6b" transform="rotate(-8.61 22.405 29.712)"/><rect width="2" height="2" x="17.452" y="29.312" fill="#ff8f6b" transform="rotate(-8.61 18.45 30.31)"/><rect width="2" height="2" x="13.497" y="29.911" fill="#ff8f6b" transform="rotate(-8.61 14.496 30.91)"/><path d="M21.68,34.88l6.419-0.972l-3.593-23.73c-0.088-0.579-0.419-1.057-0.87-1.358L21.68,34.88z" opacity=".05"/><path d="M24.104,9.26l-1.917,25.543l5.912-0.895l-3.593-23.73C24.453,9.829,24.306,9.521,24.104,9.26z" opacity=".07"/><linearGradient id="SKRx0fLXOIHwUQGMPpgZHa" x1="34.201" x2="31.715" y1="3.944" y2="33.776" gradientUnits="userSpaceOnUse"><stop offset="0" stop-color="#ffcf54"/><stop offset=".261" stop-color="#fdcb4d"/><stop offset=".639" stop-color="#f7c13a"/><stop offset="1" stop-color="#f0b421"/></linearGradient><path fill="url(#SKRx0fLXOIHwUQGMPpgZHa)" d="M26.995,4.151l13.961,1.048c1.102,0.083,1.927,1.042,1.845,2.144l-2.694,35.899l-17.95-1.347	l2.694-35.899C24.933,4.894,25.893,4.069,26.995,4.151z"/><rect width="2" height="2" x="35.018" y="29.901" fill="#c28200" transform="rotate(-85.71 36.017 30.901)"/><rect width="2" height="2" x="31.029" y="29.602" fill="#c28200" transform="rotate(-85.71 32.029 30.602)"/><rect width="2" height="2" x="35.318" y="25.913" fill="#c28200" transform="rotate(-85.71 36.317 26.913)"/><rect width="2" height="2" x="31.329" y="25.613" fill="#c28200" transform="rotate(-85.71 32.328 26.613)"/><rect width="2" height="2" x="35.617" y="21.924" fill="#c28200" transform="rotate(-85.71 36.616 22.924)"/><rect width="2" height="2" x="31.628" y="21.625" fill="#c28200" transform="rotate(-85.71 32.627 22.625)"/><rect width="2" height="2" x="27.639" y="21.325" fill="#c28200" transform="rotate(-85.71 28.639 22.325)"/><rect width="2" height="2" x="35.916" y="17.935" fill="#c28200" transform="rotate(-85.71 36.915 18.935)"/><rect width="2" height="2" x="31.927" y="17.636" fill="#c28200" transform="rotate(-85.71 32.927 18.636)"/><rect width="2" height="2" x="27.939" y="17.336" fill="#c28200" transform="rotate(-85.71 28.938 18.337)"/><rect width="2" height="2" x="36.215" y="13.946" fill="#c28200" transform="rotate(-85.71 37.215 14.947)"/><rect width="2" height="2" x="32.227" y="13.647" fill="#c28200" transform="rotate(-85.71 33.226 14.647)"/><rect width="2" height="2" x="28.238" y="13.348" fill="#c28200" transform="rotate(-85.71 29.237 14.348)"/><rect width="2" height="2" x="36.515" y="9.958" fill="#c28200" transform="rotate(-85.71 37.514 10.958)"/><rect width="2" height="2" x="32.526" y="9.658" fill="#c28200" transform="rotate(-85.71 33.525 10.658)"/><rect width="2" height="2" x="28.537" y="9.359" fill="#c28200" transform="rotate(-85.71 29.537 10.36)"/><linearGradient id="SKRx0fLXOIHwUQGMPpgZHb" x1="24" x2="24" y1="31.942" y2="43.993" gradientUnits="userSpaceOnUse"><stop offset="0" stop-color="#21ad64"/><stop offset="1" stop-color="#088242"/></linearGradient><path fill="url(#SKRx0fLXOIHwUQGMPpgZHb)" d="M3,36v6c0,1.105,0.895,2,2,2h31h7c1.105,0,2-0.895,2-2v-5l-15-5L3,36z"/><linearGradient id="SKRx0fLXOIHwUQGMPpgZHc" x1="28.087" x2="28.087" y1="24.719" y2="44.021" gradientUnits="userSpaceOnUse"><stop offset="0" stop-color="#4c4c4c"/><stop offset="1" stop-color="#343434"/></linearGradient><path fill="url(#SKRx0fLXOIHwUQGMPpgZHc)" d="M24.917,42l-4.198,2h13.012L38,41l-8.702-1.931l5.39-3.497l-5.354-1.709l2.154-1.387	l-2.351-3.859l0.507-3.993l-2.804,3.429l-0.463,4.386L22,35l4.304,1l-8.131,4.205L24.917,42z"/></svg>