<svg xmlns="http://www.w3.org/2000/svg" viewBox="0 0 48 48"><linearGradient id="Joaqoy_NAoPiMraywSX90a" x1="24" x2="24" y1="654.016" y2="645.747" gradientTransform="matrix(1 0 0 -1 0 660.724)" gradientUnits="userSpaceOnUse"><stop offset="0" stop-color="#eba600"/><stop offset="1" stop-color="#c28200"/></linearGradient><path fill="url(#Joaqoy_NAoPiMraywSX90a)" d="M24.414,10.414l-2.536-2.536C21.316,7.316,20.553,7,19.757,7H5C3.895,7,3,7.895,3,9v30 c0,1.105,0.895,2,2,2h38c1.105,0,2-0.895,2-2V13c0-1.105-0.895-2-2-2H25.828C25.298,11,24.789,10.789,24.414,10.414z"/><linearGradient id="Joaqoy_NAoPiMraywSX90b" x1="24" x2="24" y1="649.87" y2="619.741" gradientTransform="matrix(1 0 0 -1 0 660.724)" gradientUnits="userSpaceOnUse"><stop offset="0" stop-color="#ffd869"/><stop offset="1" stop-color="#fec52b"/></linearGradient><path fill="url(#Joaqoy_NAoPiMraywSX90b)" d="M21.586,14.414l3.268-3.268C24.947,11.053,25.074,11,25.207,11H43c1.105,0,2,0.895,2,2v26 c0,1.105-0.895,2-2,2H5c-1.105,0-2-0.895-2-2V15.5C3,15.224,3.224,15,3.5,15h16.672C20.702,15,21.211,14.789,21.586,14.414z"/><linearGradient id="Joaqoy_NAoPiMraywSX90c" x1="21.925" x2="28.218" y1="17.494" y2="52.392" gradientUnits="userSpaceOnUse"><stop offset="0" stop-color="#21ad64"/><stop offset="1" stop-color="#088242"/></linearGradient><path fill="url(#Joaqoy_NAoPiMraywSX90c)" d="M26,21v-1.893c0-0.996-0.681-1.92-1.664-2.08C23.083,16.824,22,17.785,22,19v2h-5 c-0.552,0-1,0.448-1,1v5h1.893c0.996,0,1.92,0.681,2.08,1.664C20.176,29.917,19.215,31,18,31h-2v5c0,0.552,0.448,1,1,1h14 c0.552,0,1-0.448,1-1V22c0-0.552-0.448-1-1-1H26z"/></svg>