<svg xmlns="http://www.w3.org/2000/svg" viewBox="0 0 48 48"><linearGradient id="4Va6twJ8nQ~dxaGu9R6Ana" x1="24" x2="24" y1="17" y2="21" gradientUnits="userSpaceOnUse"><stop offset="0" stop-color="#889097"/><stop offset="1" stop-color="#4c5963"/></linearGradient><path fill="url(#4Va6twJ8nQ~dxaGu9R6Ana)" d="M7,17h34c0.552,0,1,0.448,1,1v2c0,0.552-0.448,1-1,1H7c-0.552,0-1-0.448-1-1v-2 C6,17.448,6.448,17,7,17z"/><linearGradient id="4Va6twJ8nQ~dxaGu9R6Anb" x1="24" x2="24" y1="27" y2="31" gradientUnits="userSpaceOnUse"><stop offset="0" stop-color="#889097"/><stop offset="1" stop-color="#4c5963"/></linearGradient><path fill="url(#4Va6twJ8nQ~dxaGu9R6Anb)" d="M7,27h34c0.552,0,1,0.448,1,1v2c0,0.552-0.448,1-1,1H7c-0.552,0-1-0.448-1-1v-2 C6,27.448,6.448,27,7,27z"/><linearGradient id="4Va6twJ8nQ~dxaGu9R6Anc" x1="24" x2="24" y1="37" y2="41" gradientUnits="userSpaceOnUse"><stop offset="0" stop-color="#889097"/><stop offset="1" stop-color="#4c5963"/></linearGradient><path fill="url(#4Va6twJ8nQ~dxaGu9R6Anc)" d="M7,37h34c0.552,0,1,0.448,1,1v2c0,0.552-0.448,1-1,1H7c-0.552,0-1-0.448-1-1v-2 C6,37.448,6.448,37,7,37z"/><linearGradient id="4Va6twJ8nQ~dxaGu9R6And" x1="24" x2="24" y1="7" y2="11" gradientUnits="userSpaceOnUse"><stop offset="0" stop-color="#889097"/><stop offset="1" stop-color="#4c5963"/></linearGradient><path fill="url(#4Va6twJ8nQ~dxaGu9R6And)" d="M7,7h34c0.552,0,1,0.448,1,1v2c0,0.552-0.448,1-1,1H7c-0.552,0-1-0.448-1-1V8 C6,7.448,6.448,7,7,7z"/></svg>