<svg xmlns="http://www.w3.org/2000/svg" data-name="Слой 1" viewBox="0 0 48 48"><defs><linearGradient id="MzTnSiLBoanK8URO9WyrFa" x1="22" x2="26" y1="35" y2="35" data-name="Безымянный градиент 5" gradientUnits="userSpaceOnUse"><stop offset="0" stop-color="#3079d6"/><stop offset="1" stop-color="#297cd2"/></linearGradient><linearGradient id="MzTnSiLBoanK8URO9WyrFb" x1="11.364" x2="27.481" y1="5.271" y2="49.553" data-name="Новый образец градиентной зал 3" gradientUnits="userSpaceOnUse"><stop offset="0" stop-color="#32bdef"/><stop offset="1" stop-color="#1ea2e4"/></linearGradient></defs><rect width="4" height="14" x="22" y="28" fill="url(#MzTnSiLBoanK8URO9WyrFa)" rx="2"/><path fill="url(#MzTnSiLBoanK8URO9WyrFb)" d="M47.55969,38.76208l.00427-.00891L25.72632,8.98962H25.717a1.98428,1.98428,0,0,0-3.434,0h-.0094L.439,38.74963l.00428.00891a1.9719,1.9719,0,0,0-.43,1.47035A2.19064,2.19064,0,0,0,2.14576,42h0A2.2261,2.2261,0,0,0,3.635,41.42855l8.38855-7.54964a.5.5,0,0,1,.83141.42685l-.64161,5.77452A1.72881,1.72881,0,0,0,13.93154,42h0a1.7288,1.7288,0,0,0,1.54629-.95566L19.579,32.842a5.04064,5.04064,0,0,1,3.11505-2.66621,4.86052,4.86052,0,0,1,5.64754,2.50759l4.18056,8.361A1.7288,1.7288,0,0,0,34.06846,42h0a1.72881,1.72881,0,0,0,1.71824-1.91973l-.64161-5.77451a.5.5,0,0,1,.83141-.42685l8.38862,7.54971A2.22591,2.22591,0,0,0,45.85414,42h0a2.11418,2.11418,0,0,0,2.14454-2.07158A1.9863,1.9863,0,0,0,47.55969,38.76208Z"/></svg>