<svg xmlns="http://www.w3.org/2000/svg" viewBox="0 0 48 48"><linearGradient id="VjSL80et81_yfrwL435BAa" x1="24" x2="24" y1="1.2" y2="66.966" gradientUnits="userSpaceOnUse"><stop offset="0" stop-color="#fed100"/><stop offset="1" stop-color="#e38101"/></linearGradient><polygon fill="url(#VjSL80et81_yfrwL435BAa)" points="27,12.017 21,12.017 23,2.017 25,2.017"/><linearGradient id="VjSL80et81_yfrwL435BAb" x1="14.667" x2="33.755" y1="14.017" y2="14.017" gradientUnits="userSpaceOnUse"><stop offset="0" stop-color="#f09801"/><stop offset="1" stop-color="#e36001"/></linearGradient><path fill="url(#VjSL80et81_yfrwL435BAb)" d="M31,17.017H17v-4c0-1.105,0.895-2,2-2h10c1.105,0,2,0.895,2,2V17.017z"/><linearGradient id="VjSL80et81_yfrwL435BAc" x1="24" x2="24" y1="1.857" y2="63.019" gradientUnits="userSpaceOnUse"><stop offset="0" stop-color="#fed100"/><stop offset="1" stop-color="#e38101"/></linearGradient><path fill="url(#VjSL80et81_yfrwL435BAc)" d="M32,46.017H16c-1.105,0-2-0.895-2-2v-27c0-1.105,0.895-2,2-2h16c1.105,0,2,0.895,2,2v27	C34,45.121,33.105,46.017,32,46.017z"/></svg>