<svg xmlns="http://www.w3.org/2000/svg" viewBox="0 0 48 48"><linearGradient id="RfqQl70CQyyK7~ZUwmfAda" x1="5.365" x2="37.794" y1="5.446" y2="37.875" gradientUnits="userSpaceOnUse"><stop offset="0" stop-color="#21ad64"/><stop offset="1" stop-color="#088242"/></linearGradient><path fill="url(#RfqQl70CQyyK7~ZUwmfAda)" d="M44.163,24.122c0,11.112-9.01,20.122-20.122,20.122S3.919,35.234,3.919,24.122	S12.929,4,24.041,4S44.163,13.01,44.163,24.122z"/><path d="M15.5,37c-0.827,0-1.5-0.673-1.5-1.5v-1c0-0.827,0.673-1.5,1.5-1.5h17c0.827,0,1.5,0.673,1.5,1.5v1	c0,0.827-0.673,1.5-1.5,1.5H15.5z" opacity=".05"/><path d="M15.5,36.5c-0.551,0-1-0.448-1-1v-1c0-0.552,0.449-1,1-1h17c0.551,0,1,0.448,1,1v1	c0,0.552-0.449,1-1,1H15.5z" opacity=".07"/><path fill="#fff" d="M32.5,36h-17c-0.276,0-0.5-0.224-0.5-0.5v-1c0-0.276,0.224-0.5,0.5-0.5h17c0.276,0,0.5,0.224,0.5,0.5	v1C33,35.776,32.776,36,32.5,36z"/><path d="M25,33c-3.121,0-6.108-1.338-8.196-3.672c-2.085-2.328-3.082-5.455-2.734-8.579	c0.562-5.051,4.628-9.121,9.669-9.679C24.166,11.023,24.59,11,25.001,11c2.741,0,5.364,1.012,7.387,2.85	c0.303,0.275,0.475,0.654,0.484,1.067c0.01,0.411-0.151,0.814-0.443,1.106l-0.711,0.707c-0.28,0.277-0.651,0.431-1.046,0.433	c-0.374,0-0.733-0.138-1.014-0.389C28.378,15.63,26.724,15,25,15c-0.308,0-0.622,0.021-0.932,0.06	c-3.131,0.398-5.664,2.972-6.022,6.12c-0.23,2.022,0.385,3.967,1.731,5.476C21.107,28.146,23.011,29,25,29	c1.566,0,3.106-0.534,4.335-1.503c0.265-0.211,0.6-0.328,0.94-0.328c0.422,0,0.827,0.181,1.108,0.496l0.667,0.747	c0.275,0.309,0.413,0.722,0.377,1.134c-0.034,0.412-0.229,0.781-0.549,1.037C29.936,32.142,27.493,33,25,33z" opacity=".05"/><path d="M25,32.5c-2.979,0-5.831-1.277-7.824-3.505c-1.99-2.223-2.941-5.208-2.61-8.19	c0.536-4.819,4.417-8.705,9.227-9.237c0.401-0.044,0.808-0.067,1.208-0.067c2.616,0,5.12,0.966,7.051,2.72	c0.201,0.183,0.314,0.435,0.321,0.709c0.007,0.276-0.102,0.546-0.296,0.74l-0.71,0.707c-0.187,0.186-0.434,0.286-0.695,0.287	c-0.25,0-0.491-0.094-0.68-0.262C28.619,15.175,26.847,14.5,25,14.5c-0.329,0-0.664,0.021-0.995,0.063	c-3.356,0.427-6.072,3.186-6.456,6.56c-0.247,2.166,0.412,4.249,1.854,5.865C20.829,28.585,22.869,29.5,25,29.5	c1.679,0,3.328-0.572,4.645-1.61c0.179-0.143,0.404-0.221,0.631-0.221c0.281,0,0.549,0.12,0.736,0.329l0.667,0.747	c0.184,0.206,0.276,0.482,0.252,0.759c-0.023,0.274-0.152,0.52-0.364,0.689C29.712,31.681,27.38,32.5,25,32.5z" opacity=".07"/><path fill="#fff" d="M25,32c-5.89,0-10.606-5.118-9.937-11.139c0.508-4.569,4.216-8.29,8.785-8.797	c2.929-0.325,5.745,0.598,7.867,2.526c0.21,0.191,0.209,0.525,0.008,0.725l-0.71,0.706c-0.19,0.189-0.489,0.186-0.689,0.008	c-1.725-1.543-4.012-2.263-6.381-1.961c-3.587,0.456-6.48,3.406-6.889,6.999C16.504,25.893,20.281,30,25,30	c1.805,0,3.547-0.607,4.954-1.718c0.21-0.166,0.506-0.15,0.684,0.049l0.667,0.747c0.189,0.212,0.17,0.548-0.052,0.726	C29.483,31.224,27.282,32,25,32z"/></svg>