<svg xmlns="http://www.w3.org/2000/svg" viewBox="0 0 48 48"><linearGradient id="oMYWki2mFBY9I0oiDPzpAa" x1="10.955" x2="10.955" y1="211.065" y2="231.993" gradientTransform="matrix(0 -1 -1 0 252.065 48.955)" gradientUnits="userSpaceOnUse"><stop offset=".273" stop-color="#912fbd"/><stop offset=".588" stop-color="#8f2ebb"/><stop offset=".758" stop-color="#892bb3"/><stop offset=".894" stop-color="#7e26a5"/><stop offset="1" stop-color="#701f94"/></linearGradient><path fill="url(#oMYWki2mFBY9I0oiDPzpAa)" d="M20,34h19c1.105,0,2,0.895,2,2v4c0,1.105-0.895,2-2,2H20V34z"/><linearGradient id="oMYWki2mFBY9I0oiDPzpAb" x1="6.955" x2="43.864" y1="236.065" y2="236.065" gradientTransform="matrix(0 -1 -1 0 252.065 48.955)" gradientUnits="userSpaceOnUse"><stop offset="0" stop-color="#ae4cd5"/><stop offset="1" stop-color="#ac4ad5"/></linearGradient><path fill="url(#oMYWki2mFBY9I0oiDPzpAb)" d="M15.357,5.357l-9.091,9.091c-0.26,0.26-0.337,0.65-0.197,0.991 C6.21,15.779,6.541,16,6.909,16H12v14.686c0,2.122,0.843,4.157,2.343,5.657L20,42V16h5.091c0.368,0,0.699-0.221,0.84-0.561 C25.977,15.326,26,15.208,26,15.091c0-0.236-0.092-0.469-0.266-0.643l-9.091-9.091C16.288,5.002,15.712,5.002,15.357,5.357z"/></svg>