<svg xmlns="http://www.w3.org/2000/svg" viewBox="0 0 48 48"><linearGradient id="u101RxHu8iJpjgfgqjEnca" x1="6" x2="31" y1="18.5" y2="18.5" gradientUnits="userSpaceOnUse"><stop offset="0" stop-color="#11408a"/><stop offset="1" stop-color="#103f8f"/></linearGradient><path fill="url(#u101RxHu8iJpjgfgqjEnca)" d="M31,32H13c-3.866,0-7-3.134-7-7V5h18c3.866,0,7,3.134,7,7V32z"/><linearGradient id="u101RxHu8iJpjgfgqjEncb" x1="7.845" x2="34.95" y1="21.591" y2="21.591" gradientUnits="userSpaceOnUse"><stop offset="0" stop-color="#11408a"/><stop offset="1" stop-color="#103f8f"/></linearGradient><polygon fill="url(#u101RxHu8iJpjgfgqjEncb)" points="7.845,29.732 14.31,36.195 34.95,13.051 28.883,6.987"/><path fill="#fff" d="M36,37H18c-3.866,0-7-3.134-7-7V10h18c3.866,0,7,3.134,7,7V37z"/><polygon fill="#fff" points="12.845,34.732 19.31,41.195 39.95,18.051 33.883,11.987"/><path fill="#3ccbf4" d="M42,43H24c-3.866,0-7-3.134-7-7V16h18c3.866,0,7,3.134,7,7V43z"/><path d="M39.52,27.15l-13-8C26.36,19.05,26.18,19,26,19c-0.17,0-0.34,0.04-0.49,0.13 C25.2,19.3,25,19.64,25,20v4h-8v8h8v4c0,0.36,0.2,0.7,0.51,0.87C25.66,36.96,25.83,37,26,37c0.18,0,0.36-0.05,0.52-0.15l13-8 C39.82,28.67,40,28.35,40,28S39.82,27.33,39.52,27.15z" opacity=".05"/><path d="M39.26,27.57l-13-8c-0.08-0.05-0.17-0.07-0.26-0.07c-0.08,0-0.17,0.02-0.24,0.06 C25.6,19.65,25.5,19.82,25.5,20v4.5H17v7h8.5V36c0,0.18,0.1,0.35,0.26,0.44c0.07,0.04,0.16,0.06,0.24,0.06 c0.09,0,0.18-0.02,0.26-0.07l13-8c0.15-0.1,0.24-0.26,0.24-0.43S39.41,27.67,39.26,27.57z" opacity=".07"/><rect width="9" height="6" x="17" y="25" fill="#fff"/><polygon fill="#fff" points="26,36 26,20 39,28"/></svg>