<svg xmlns="http://www.w3.org/2000/svg" viewBox="0 0 48 48"><path fill="#f0f0f0" d="M20,11l-4-5l-4,5l5.116,12.597L20,11z"/><path fill="#0370c8" d="M34,42h-7c-1.105,0-2-0.895-2-2V8c0-1.105,0.895-2,2-2h7c1.105,0,2,0.895,2,2v32	C36,41.105,35.105,42,34,42z"/><rect width="4" height="2" x="32" y="8" fill="#0e8df2"/><rect width="3" height="2" x="33" y="13" fill="#0e8df2"/><rect width="4" height="2" x="32" y="18" fill="#0e8df2"/><rect width="3" height="2" x="33" y="23" fill="#0e8df2"/><rect width="4" height="2" x="32" y="28" fill="#0e8df2"/><rect width="3" height="2" x="33" y="33" fill="#0e8df2"/><rect width="4" height="2" x="32" y="38" fill="#0e8df2"/><rect width="8" height="23" x="12" y="11" fill="#edbe00"/><linearGradient id="9Emj6PX6ClMBLYJWhzJOua" x1="12" x2="20" y1="36" y2="36" gradientUnits="userSpaceOnUse"><stop offset="0" stop-color="#dedede"/><stop offset="1" stop-color="#d6d6d6"/></linearGradient><rect width="8" height="4" x="12" y="34" fill="url(#9Emj6PX6ClMBLYJWhzJOua)"/><path fill="#c94f60" d="M18,42h-4c-1.105,0-2-0.895-2-2v-2h8v2C20,41.105,19.105,42,18,42z"/><polygon fill="#787878" points="17.6,8 16,6 14.4,8"/></svg>