<svg xmlns="http://www.w3.org/2000/svg" data-name="Слой 1" viewBox="0 0 48 48"><defs><linearGradient id="84myPHOnpdc69rEuiFeOZa" x1="12.381" x2="35.619" y1="5.406" y2="42.594" data-name="Безымянный градиент 129" gradientUnits="userSpaceOnUse"><stop offset="0" stop-color="#ffd869"/><stop offset="1" stop-color="#fec52b"/></linearGradient></defs><path fill="url(#84myPHOnpdc69rEuiFeOZa)" d="M44,11H33a2,2,0,0,0-2,2,1,1,0,1,1-1,1,1.003,1.003,0,0,1,1-1,2,2,0,0,0-2-2H4a2.00587,2.00587,0,0,0-2,2V35a2.00591,2.00591,0,0,0,2,2H29a2,2,0,0,0,2-2,1,1,0,1,1,1-1,1.003,1.003,0,0,1-1,1,2,2,0,0,0,2,2H44a2.00591,2.00591,0,0,0,2-2V13A2.00587,2.00587,0,0,0,44,11ZM31,31a1,1,0,1,1,1-1A1.003,1.003,0,0,1,31,31Zm0-4a1,1,0,1,1,1-1A1.003,1.003,0,0,1,31,27Zm0-4a1,1,0,1,1,1-1A1.003,1.003,0,0,1,31,23Zm0-4a1,1,0,1,1,1-1A1.003,1.003,0,0,1,31,19Z"/><path fill="#c28200" d="M24.5,23H19l-4.10632-4.92761a2.0001,2.0001,0,0,0-2.20844-.6034l-.69592.24823L15,23H9L7.53943,20.49609A1.00009,1.00009,0,0,0,6.67566,20H6.5a.5.5,0,0,0-.49695.55518L6,24.5A1.5,1.5,0,0,0,7.5,26h17a1.5,1.5,0,0,0,0-3Z"/><path fill="#a56900" d="M11.98932,31.28274l.69591.24824a2,2,0,0,0,2.20842-.60336L19,26H15Z"/></svg>