<svg xmlns="http://www.w3.org/2000/svg" viewBox="0 0 48 48"><radialGradient id="6RIOPNpx1HhZ5EMVLskIIa" cx="23.049" cy="23.941" r="23.108" gradientUnits="userSpaceOnUse"><stop offset="0" stop-color="#d4943b"/><stop offset="1" stop-color="#c2620e"/><stop offset="1" stop-color="#c2620e"/></radialGradient><path fill="url(#6RIOPNpx1HhZ5EMVLskIIa)" d="M35.43,9.152l-0.644,0.644L23.861,20.71c-0.312,0.322-0.855,0.091-0.855-0.352V4.011	c0-0.594,0.493-1.066,1.076-1.006c4.265,0.412,8.148,2.102,11.287,4.668C35.822,8.045,35.842,8.739,35.43,9.152z M41.989,25.006	H25.642c-0.443,0-0.674,0.543-0.352,0.855l10.915,10.925l0.644,0.644c0.412,0.412,1.107,0.392,1.479-0.06	c2.565-3.139,4.255-7.022,4.668-11.287C43.055,25.499,42.582,25.006,41.989,25.006z M35.43,38.848l-0.644-0.644L23.861,27.29	c-0.312-0.322-0.855-0.091-0.855,0.352v16.347c0,0.593,0.493,1.066,1.076,1.006c4.265-0.412,8.148-2.103,11.287-4.668	C35.822,39.955,35.842,39.261,35.43,38.848z M38.327,10.63c-0.372-0.453-1.066-0.473-1.479-0.06l-0.644,0.644L25.29,22.139	c-0.322,0.312-0.091,0.855,0.352,0.855h16.347c0.594,0,1.066-0.493,1.006-1.076C42.582,17.652,40.892,13.769,38.327,10.63z M20.139,27.29L9.214,38.204L8.57,38.848c-0.412,0.412-0.392,1.107,0.06,1.479c3.139,2.565,7.022,4.255,11.287,4.668	c0.583,0.06,1.076-0.412,1.076-1.006V27.642C20.994,27.199,20.451,26.968,20.139,27.29z"/><radialGradient id="6RIOPNpx1HhZ5EMVLskIIb" cx="22.066" cy="23.912" r="32.419" gradientUnits="userSpaceOnUse"><stop offset="0" stop-color="#fed100"/><stop offset=".245" stop-color="#fdce00"/><stop offset=".461" stop-color="#f9c300"/><stop offset=".665" stop-color="#f3b100"/><stop offset=".862" stop-color="#eb9801"/><stop offset="1" stop-color="#e38101"/></radialGradient><path fill="url(#6RIOPNpx1HhZ5EMVLskIIb)" d="M20.994,27.642v15.452c-4.517-0.241-8.631-2.052-11.78-4.889L20.139,27.29	C20.451,26.968,20.994,27.199,20.994,27.642z M23.006,27.642v15.452c4.517-0.241,8.631-2.052,11.78-4.889L23.861,27.29	C23.549,26.968,23.006,27.199,23.006,27.642z M23.861,20.71L34.786,9.796c-3.149-2.837-7.263-4.648-11.78-4.889v15.452	C23.006,20.801,23.549,21.032,23.861,20.71z M25.29,25.861l10.915,10.925c2.837-3.149,4.648-7.263,4.889-11.78H25.642	C25.199,25.006,24.968,25.549,25.29,25.861z M25.642,22.994h15.452c-0.241-4.517-2.052-8.631-4.889-11.78L25.29,22.139	C24.968,22.451,25.199,22.994,25.642,22.994z"/><path fill="#33c481" d="M26.408,10.319c0.924-0.924,0.498-2.204,0.498-2.204l-2.845,2.845 C24.062,10.959,25.484,11.243,26.408,10.319z"/><path fill="#21a366" d="M26.906,8.114c0,0-1.209-0.498-2.204,0.498c-0.996,0.996-0.64,2.347-0.64,2.347L26.906,8.114z"/><path fill="#33c481" d="M37.408,31.329c0.924-0.924,0.498-2.204,0.498-2.204l-2.845,2.845 C35.062,31.969,36.484,32.253,37.408,31.329z"/><path fill="#21a366" d="M37.906,29.124c0,0-1.209-0.498-2.204,0.498c-0.996,0.996-0.64,2.347-0.64,2.347L37.906,29.124z"/><path fill="#33c481" d="M35.596,20.329c-0.924-0.924-0.498-2.204-0.498-2.204l2.845,2.845 C37.943,20.969,36.521,21.253,35.596,20.329z"/><path fill="#21a366" d="M35.098,18.124c0,0,1.209-0.498,2.204,0.498c0.996,0.996,0.64,2.347,0.64,2.347L35.098,18.124z"/><path fill="#33c481" d="M31.888,28.5c-1.307,0-1.911-1.25-1.911-1.25H34C34,27.25,33.195,28.5,31.888,28.5z"/><path fill="#21a366" d="M29.977,27.25c0,0,0.503-1.25,1.911-1.25C33.296,26,34,27.25,34,27.25H29.977z"/><path fill="#33c481" d="M29,37.888c0-1.307,1.25-1.911,1.25-1.911V40C30.25,40,29,39.195,29,37.888z"/><path fill="#21a366" d="M30.25,35.977c0,0,1.25,0.503,1.25,1.911c0,1.408-1.25,2.112-1.25,2.112V35.977z"/><path fill="#33c481" d="M15.408,38.319c0.924-0.924,0.498-2.204,0.498-2.204l-2.845,2.845 C13.062,38.959,14.484,39.243,15.408,38.319z"/><path fill="#21a366" d="M15.906,36.114c0,0-1.209-0.498-2.204,0.498c-0.996,0.996-0.64,2.347-0.64,2.347L15.906,36.114z"/><linearGradient id="6RIOPNpx1HhZ5EMVLskIIc" x1="22.593" x2="31.155" y1="19.873" y2="11.311" gradientUnits="userSpaceOnUse"><stop offset="0" stop-color="#f44f5a"/><stop offset=".443" stop-color="#ee3d4a"/><stop offset="1" stop-color="#e52030"/></linearGradient><path fill="url(#6RIOPNpx1HhZ5EMVLskIIc)" d="M31.03,13.56l-5.48,5.46C25.2,18.43,25,17.73,25,17c0-2.21,1.79-4,4-4	C29.74,13,30.43,13.2,31.03,13.56z"/><linearGradient id="6RIOPNpx1HhZ5EMVLskIId" x1="26.127" x2="34.689" y1="23.407" y2="14.845" gradientUnits="userSpaceOnUse"><stop offset="0" stop-color="#f44f5a"/><stop offset=".443" stop-color="#ee3d4a"/><stop offset="1" stop-color="#e52030"/></linearGradient><path fill="url(#6RIOPNpx1HhZ5EMVLskIId)" d="M33,17c0,2.21-1.79,4-4,4c-0.73,0-1.43-0.2-2.02-0.55l5.46-5.48C32.8,15.57,33,16.26,33,17z"/><linearGradient id="6RIOPNpx1HhZ5EMVLskIIe" x1="19.995" x2="19.995" y1="29.853" y2="42.221" gradientUnits="userSpaceOnUse"><stop offset="0" stop-color="#f44f5a"/><stop offset=".443" stop-color="#ee3d4a"/><stop offset="1" stop-color="#e52030"/></linearGradient><path fill="url(#6RIOPNpx1HhZ5EMVLskIIe)" d="M20.99,31.55v6.9C19.8,37.76,19,36.48,19,35C19,33.52,19.8,32.24,20.99,31.55z"/><linearGradient id="6RIOPNpx1HhZ5EMVLskIIf" x1="25.005" x2="25.005" y1="29.853" y2="42.221" gradientUnits="userSpaceOnUse"><stop offset="0" stop-color="#f44f5a"/><stop offset=".443" stop-color="#ee3d4a"/><stop offset="1" stop-color="#e52030"/></linearGradient><path fill="url(#6RIOPNpx1HhZ5EMVLskIIf)" d="M27,35c0,2.21-1.78,3.99-3.99,4v-8C25.22,31.01,27,32.79,27,35z"/></svg>