<svg xmlns="http://www.w3.org/2000/svg" xmlns:xlink="http://www.w3.org/1999/xlink" data-name="Слой 1" viewBox="0 0 48 48"><defs><linearGradient id="kv9lR44tbFZaohNuk6ZDEc" x1="11.072" x2="29.714" y1="-6.593" y2="44.625" gradientUnits="userSpaceOnUse"><stop offset="0" stop-color="#ffcf7b"/><stop offset=".196" stop-color="#fecd76"/><stop offset=".439" stop-color="#fac666"/><stop offset=".709" stop-color="#f3bc4d"/><stop offset=".995" stop-color="#eaad2a"/><stop offset="1" stop-color="#eaad29"/></linearGradient><linearGradient id="kv9lR44tbFZaohNuk6ZDEa" x1="24" x2="24" y1="-9.63" y2="12.353" gradientUnits="userSpaceOnUse"><stop offset="0" stop-color="#d4943b"/><stop offset="1" stop-color="#c2620e"/></linearGradient><linearGradient id="kv9lR44tbFZaohNuk6ZDEd" x1="24" x2="24" y1="7.685" y2="48.259" xlink:href="#kv9lR44tbFZaohNuk6ZDEa"/><linearGradient id="kv9lR44tbFZaohNuk6ZDEb" x1="18.359" x2="19.706" y1="-2011.359" y2="-2012.706" data-name="Безымянный градиент 227" gradientTransform="matrix(1 0 0 -1 0 -1980)" gradientUnits="userSpaceOnUse"><stop offset="0" stop-color="#4b4b4b"/><stop offset="1" stop-color="#3b3b3b"/></linearGradient><linearGradient id="kv9lR44tbFZaohNuk6ZDEe" x1="23.286" x2="24.994" y1="1118.787" y2="1121.418" gradientTransform="translate(0 -1098)" xlink:href="#kv9lR44tbFZaohNuk6ZDEb"/></defs><path fill="url(#kv9lR44tbFZaohNuk6ZDEc)" d="M13,44H35a2,2,0,0,0,2-2V15.5L24,3.99966,11,15.5V42A2,2,0,0,0,13,44Z"/><path fill="url(#kv9lR44tbFZaohNuk6ZDEa)" d="M38.25963,17.97083,24,5.49268,9.74037,17.97083a1,1,0,0,1-1.41111-.094l-.65857-.75266a1,1,0,0,1,.094-1.41106L23.01221,2.37061a1.50168,1.50168,0,0,1,1.97558,0L40.23527,15.71307a1,1,0,0,1,.094,1.41106l-.65857.75266A1,1,0,0,1,38.25963,17.97083Z"/><path d="M24,5.49048l-13,11.38v1.33L24,6.82056,37,18.20044v-1.33Z" opacity=".05"/><path d="M24,5.49048l-13,11.38v.67L24,6.1604,37,17.54053v-.67Z" opacity=".07"/><path fill="url(#kv9lR44tbFZaohNuk6ZDEd)" d="M17,17H31a1,1,0,0,1,1,1V44a0,0,0,0,1,0,0H16a0,0,0,0,1,0,0V18A1,1,0,0,1,17,17Z"/><circle cx="19" cy="32" r="1" fill="url(#kv9lR44tbFZaohNuk6ZDEb)"/><path fill="url(#kv9lR44tbFZaohNuk6ZDEe)" d="M23.99961,21.46374A1.45355,1.45355,0,0,1,24.93094,21a.933.933,0,0,1,.93133.92748,1.05927,1.05927,0,0,1-.31052.61825l-1.39507,1.38952a.22316.22316,0,0,1-.31436,0l-1.39507-1.38952a1.05927,1.05927,0,0,1-.31052-.61825A.9331.9331,0,0,1,23.06806,21,1.45439,1.45439,0,0,1,23.99961,21.46374Z"/></svg>