<svg xmlns="http://www.w3.org/2000/svg" viewBox="0 0 48 48"><linearGradient id="~Wb2Rl0ZoJFRX6fqj5JTCa" x1="13.48" x2="31.634" y1="514.407" y2="488.147" gradientTransform="matrix(1 0 0 -1 0 526)" gradientUnits="userSpaceOnUse"><stop offset="0" stop-color="#7dd8f3"/><stop offset="1" stop-color="#45b0d0"/></linearGradient><path fill="url(#~Wb2Rl0ZoJFRX6fqj5JTCa)" d="M4,38V15h40v23c0,1.1-0.9,2-2,2H6C4.9,40,4,39.1,4,38z"/><linearGradient id="~Wb2Rl0ZoJFRX6fqj5JTCb" x1="4.614" x2="42.936" y1="518.259" y2="510.467" gradientTransform="matrix(1 0 0 -1 0 526)" gradientUnits="userSpaceOnUse"><stop offset="0" stop-color="#0077d2"/><stop offset="1" stop-color="#0b59a2"/></linearGradient><path fill="url(#~Wb2Rl0ZoJFRX6fqj5JTCb)" d="M44,10v5H4v-5c0-1.1,0.9-2,2-2h36C43.1,8,44,8.9,44,10z"/><path fill="#057093" d="M38.5,22h-23c-0.276,0-0.5-0.224-0.5-0.5v-1c0-0.276,0.224-0.5,0.5-0.5h23c0.276,0,0.5,0.224,0.5,0.5	v1C39,21.776,38.776,22,38.5,22z"/><path fill="#057093" d="M38.5,26h-23c-0.276,0-0.5-0.224-0.5-0.5v-1c0-0.276,0.224-0.5,0.5-0.5h23c0.276,0,0.5,0.224,0.5,0.5	v1C39,25.776,38.776,26,38.5,26z"/><path fill="#057093" d="M37.5,30h-22c-0.276,0-0.5-0.224-0.5-0.5v-1c0-0.276,0.224-0.5,0.5-0.5h22c0.276,0,0.5,0.224,0.5,0.5	v1C38,29.776,37.776,30,37.5,30z"/><path fill="#057093" d="M35,34H15.5c-0.276,0-0.5-0.224-0.5-0.5v-1c0-0.276,0.224-0.5,0.5-0.5H35V34z"/><path fill="#057093" d="M9.5,22h1c0.276,0,0.5-0.224,0.5-0.5v-1c0-0.276-0.224-0.5-0.5-0.5h-1C9.224,20,9,20.224,9,20.5v1	C9,21.776,9.224,22,9.5,22z"/><path fill="#057093" d="M9.5,26h1c0.276,0,0.5-0.224,0.5-0.5v-1c0-0.276-0.224-0.5-0.5-0.5h-1C9.224,24,9,24.224,9,24.5v1	C9,25.776,9.224,26,9.5,26z"/><path fill="#057093" d="M9.5,30h1c0.276,0,0.5-0.224,0.5-0.5v-1c0-0.276-0.224-0.5-0.5-0.5h-1C9.224,28,9,28.224,9,28.5v1	C9,29.776,9.224,30,9.5,30z"/><radialGradient id="~Wb2Rl0ZoJFRX6fqj5JTCc" cx="37.745" cy="37.787" r="11.384" gradientUnits="userSpaceOnUse"><stop offset="0"/><stop offset=".979" stop-opacity="0"/></radialGradient><path fill="url(#~Wb2Rl0ZoJFRX6fqj5JTCc)" d="M38,26c-6.617,0-12,5.383-12,12c0,0.683,0.071,1.348,0.181,2H42c1.1,0,2-0.9,2-2V27.624	C42.232,26.598,40.187,26,38,26z"/><path fill="#057093" d="M9.5,34h1c0.276,0,0.5-0.224,0.5-0.5v-1c0-0.276-0.224-0.5-0.5-0.5h-1C9.224,32,9,32.224,9,32.5v1	C9,33.776,9.224,34,9.5,34z"/><polygon fill="#fdb700" points="38,28 40.329,29.307 43,29.34 44.364,31.636 46.66,33 46.693,35.671 48,38 46.693,40.329 46.66,43 44.364,44.364 43,46.66 40.329,46.693 38,48 35.671,46.693 33,46.66 31.636,44.364 29.34,43 29.307,40.329 28,38 29.307,35.671 29.34,33 31.636,31.636 33,29.34 35.671,29.307"/><linearGradient id="~Wb2Rl0ZoJFRX6fqj5JTCd" x1="31" x2="45" y1="488" y2="488" gradientTransform="matrix(1 0 0 -1 0 526)" gradientUnits="userSpaceOnUse"><stop offset="0" stop-color="#fede00"/><stop offset="1" stop-color="#ffd000"/></linearGradient><circle cx="38" cy="38" r="7" fill="url(#~Wb2Rl0ZoJFRX6fqj5JTCd)"/></svg>