<svg xmlns="http://www.w3.org/2000/svg" viewBox="0 0 48 48"><linearGradient id="8QDIBNShay0S8V3zeHoJra" x1="4.417" x2="39.648" y1="18.238" y2="38.579" gradientUnits="userSpaceOnUse"><stop offset="0" stop-color="#a34f27"/><stop offset=".587" stop-color="#8b3817"/><stop offset="1" stop-color="#802d10"/></linearGradient><path fill="url(#8QDIBNShay0S8V3zeHoJra)" d="M26.925,14.001c1.633-0.042,4.868,1.5,7.297,2.625C36.058,17.476,40,19.146,40,24 c0,6.542-3,17-3,17s0-10.542,0-14c0-2.468,0.394-5.656-6.064-7.792c-3.517-1.042-4.733-1.06-5.546-2.208 C24.49,15.73,25.209,14.045,26.925,14.001z M22.61,17c-0.813,1.148-2.029,1.166-5.546,2.208C10.606,21.344,11,24.532,11,27 c0,3.458,0,14,0,14S8,30.542,8,24c0-4.854,3.942-6.524,5.778-7.375c2.429-1.125,5.664-2.667,7.297-2.625 C22.791,14.044,23.51,15.729,22.61,17z"/></svg>