<svg xmlns="http://www.w3.org/2000/svg" viewBox="0 0 48 48"><linearGradient id="FEt8f2S678p~YSSDFtn_ka" x1="11.296" x2="30.146" y1="544.529" y2="580.427" gradientTransform="translate(0 -541.78)" gradientUnits="userSpaceOnUse"><stop offset="0" stop-color="#fcfcfc"/><stop offset=".95" stop-color="#c3c9cd"/></linearGradient><path fill="url(#FEt8f2S678p~YSSDFtn_ka)" d="M48,26c0,6.63-5.37,12-12,12c-1.8,0-24.66,0-26.5,0C4.25,38,0,33.75,0,28.5	c0-4.54,3.18-8.34,7.45-9.28C9.15,12.21,15.46,7,23,7c5.51,0,10.36,2.78,13.24,7.01C42.76,14.13,48,19.45,48,26z"/><linearGradient id="FEt8f2S678p~YSSDFtn_kb" x1="24" x2="24" y1="569.263" y2="561.045" gradientTransform="translate(0 -539.89)" gradientUnits="userSpaceOnUse"><stop offset="0" stop-color="#4b4b4b"/><stop offset="1" stop-color="#3b3b3b"/></linearGradient><path fill="url(#FEt8f2S678p~YSSDFtn_kb)" d="M27,23c0-1.657-1.343-3-3-3s-3,1.343-3,3c0,1.304,0.837,2.403,2,2.816V29c0,0.552,0.448,1,1,1	s1-0.448,1-1v-3.184C26.163,25.403,27,24.304,27,23z"/></svg>