<svg xmlns="http://www.w3.org/2000/svg" viewBox="0 0 48 48"><linearGradient id="I_jJnGo_KUveew~An_kA3a" x1="18.016" x2="30.612" y1="1.261" y2="42.027" gradientUnits="userSpaceOnUse"><stop offset="0" stop-color="#5c65d6"/><stop offset=".999" stop-color="#464eb0"/></linearGradient><path fill="url(#I_jJnGo_KUveew~An_kA3a)" d="M35.793,7.787l0.488-1.095c0.04-0.09,0.091-0.174,0.153-0.25L37,5.739V5.135	C37,4.508,36.492,4,35.865,4L13,4.005V5l-0.497,0.808c-0.29,0.472-0.198,1.084,0.219,1.449L13,7.5l-0.512,0.631	c-0.123,0.151-0.204,0.332-0.237,0.524l-0.203,1.191c-0.031,0.183-0.017,0.371,0.041,0.548l0.385,1.163L13,12v1.256	c0,0.24-0.076,0.474-0.217,0.668l-0.377,0.518c-0.249,0.343-0.287,0.796-0.097,1.175l0.347,0.693	c0.208,0.416,0.141,0.917-0.169,1.264l-0.541,0.606c-0.095,0.107-0.17,0.23-0.219,0.365l-0.454,1.235	c-0.164,0.446-0.033,0.947,0.329,1.255l0,0C11.854,21.251,12,21.566,12,21.899v1.631c0,0.003,0,0.006,0,0.009	c-0.007,0.887,0.024,1.774,0.327,2.608L13,28v1l0.633,0.633c0.233,0.233,0.353,0.555,0.33,0.884l-0.876,12.267	C13.04,43.441,13.56,44,14.219,44H24l-0.375-0.75L23,43l-1-1v-0.625l1-0.625V40l0.668-0.668C23.88,39.12,24,38.831,24,38.53v-2.049	c0-0.131,0.023-0.261,0.067-0.384l0.866-2.411C24.977,33.563,25,33.433,25,33.302v-3.048c0-0.082,0.009-0.165,0.027-0.245L25.25,29	l0.625-0.375l0.469-1.68c0.061-0.219,0.187-0.415,0.361-0.562l0.496-0.419c0.189-0.16,0.321-0.377,0.375-0.619l0.295-1.319	c0.053-0.236,0.179-0.449,0.362-0.607L29,22.75v-0.629c0-0.294,0.114-0.576,0.318-0.788l0.365-0.379	C29.886,20.743,30,20.461,30,20.167v-2.949c0-0.144,0.028-0.288,0.081-0.422l0.293-0.733c0.082-0.205,0.222-0.382,0.403-0.508	L31.571,15H32.5l1-1h0.929l0.821-2H36v-1l-1-2.625l0.445-0.259L35.793,7.787z"/></svg>