<svg xmlns="http://www.w3.org/2000/svg" viewBox="0 0 48 48"><linearGradient id="xc7i4K72lxGPCFH7YD30_a" x1="38.107" x2="45.388" y1="23.663" y2="23.663" gradientUnits="userSpaceOnUse"><stop offset="0" stop-color="#cf1928"/><stop offset="1" stop-color="#f45560"/></linearGradient><path fill="url(#xc7i4K72lxGPCFH7YD30_a)" d="M30,32.326V15h13c1.654,0,3,1.346,3,3v5.983c0,2.221-1.491,4.198-3.627,4.808L30,32.326z M32,17v12.674l9.824-2.807C43.105,26.501,44,25.315,44,23.983V18c0-0.551-0.448-1-1-1H32z"/><linearGradient id="xc7i4K72lxGPCFH7YD30_b" x1="24" x2="24" y1="624.736" y2="619.774" gradientTransform="matrix(1 0 0 -1 0 662)" gradientUnits="userSpaceOnUse"><stop offset=".162" stop-color="#f45560"/><stop offset="1" stop-color="#cf1928"/></linearGradient><path fill="url(#xc7i4K72lxGPCFH7YD30_b)" d="M8.904,41h30.192c2.294,0,4.294-1.561,4.851-3.787L44,37H4l0.053,0.213 C4.61,39.439,6.61,41,8.904,41z"/><linearGradient id="xc7i4K72lxGPCFH7YD30_c" x1="21.578" x2="29.096" y1="7.34" y2="30.378" gradientUnits="userSpaceOnUse"><stop offset="0" stop-color="#f45560"/><stop offset=".897" stop-color="#cf1928"/></linearGradient><path fill="url(#xc7i4K72lxGPCFH7YD30_c)" d="M34,37H14c0,0-5-15-5-20c0-2.25,0-9,0-9c0-0.552,0.448-1,1-1h28c0.552,0,1,0.448,1,1 c0,0,0,6.75,0,9C39,22,34,37,34,37z"/></svg>