<svg xmlns="http://www.w3.org/2000/svg" viewBox="0 0 48 48"><linearGradient id="UWVBT89Z02VFQihoyObnZa" x1="7.197" x2="37.988" y1="1.181" y2="42.996" gradientUnits="userSpaceOnUse"><stop offset="0" stop-color="#f0f0f0"/><stop offset="1" stop-color="#bbc1c4"/></linearGradient><path fill="url(#UWVBT89Z02VFQihoyObnZa)" d="M10.765,6h26.471C38.21,6,39,6.806,39,7.8v32.4c0,0.994-0.79,1.8-1.765,1.8H10.765	C9.79,42,9,41.194,9,40.2V7.8C9,6.806,9.79,6,10.765,6z"/><linearGradient id="UWVBT89Z02VFQihoyObnZb" x1="11.509" x2="35.853" y1="8.701" y2="38.517" gradientUnits="userSpaceOnUse"><stop offset="0" stop-color="#33bef0"/><stop offset="1" stop-color="#0a85d9"/></linearGradient><rect width="24" height="30" x="12" y="9" fill="url(#UWVBT89Z02VFQihoyObnZb)"/><rect width="30" height="4" x="9" y="23" opacity=".05"/><rect width="30" height="3" x="9" y="23.5" opacity=".07"/><linearGradient id="UWVBT89Z02VFQihoyObnZc" x1="8" x2="40" y1="9" y2="9" gradientTransform="matrix(1 0 0 -1 0 34)" gradientUnits="userSpaceOnUse"><stop offset="0" stop-color="#912fbd"/><stop offset="1" stop-color="#9332bf"/></linearGradient><path fill="url(#UWVBT89Z02VFQihoyObnZc)" d="M40,25v-1H8v1c0,0.552,0.421,1,0.941,1h30.118C39.579,26,40,25.552,40,25z"/><linearGradient id="UWVBT89Z02VFQihoyObnZd" x1="8" x2="40" y1="11" y2="11" gradientTransform="matrix(1 0 0 -1 0 34)" gradientUnits="userSpaceOnUse"><stop offset="0" stop-color="#c965eb"/><stop offset="1" stop-color="#c767e5"/></linearGradient><rect width="32" height="2" x="8" y="22" fill="url(#UWVBT89Z02VFQihoyObnZd)"/><linearGradient id="UWVBT89Z02VFQihoyObnZe" x1="8" x2="40" y1="13" y2="13" gradientTransform="matrix(1 0 0 -1 0 34)" gradientUnits="userSpaceOnUse"><stop offset="0" stop-color="#912fbd"/><stop offset="1" stop-color="#9332bf"/></linearGradient><rect width="32" height="2" x="8" y="20" fill="url(#UWVBT89Z02VFQihoyObnZe)"/><linearGradient id="UWVBT89Z02VFQihoyObnZf" x1="8" x2="40" y1="15" y2="15" gradientTransform="matrix(1 0 0 -1 0 34)" gradientUnits="userSpaceOnUse"><stop offset="0" stop-color="#c965eb"/><stop offset="1" stop-color="#c767e5"/></linearGradient><rect width="32" height="2" x="8" y="18" fill="url(#UWVBT89Z02VFQihoyObnZf)"/><linearGradient id="UWVBT89Z02VFQihoyObnZg" x1="8" x2="40" y1="17" y2="17" gradientTransform="matrix(1 0 0 -1 0 34)" gradientUnits="userSpaceOnUse"><stop offset="0" stop-color="#912fbd"/><stop offset="1" stop-color="#9332bf"/></linearGradient><rect width="32" height="2" x="8" y="16" fill="url(#UWVBT89Z02VFQihoyObnZg)"/><linearGradient id="UWVBT89Z02VFQihoyObnZh" x1="8" x2="40" y1="19" y2="19" gradientTransform="matrix(1 0 0 -1 0 34)" gradientUnits="userSpaceOnUse"><stop offset="0" stop-color="#c965eb"/><stop offset="1" stop-color="#c767e5"/></linearGradient><rect width="32" height="2" x="8" y="14" fill="url(#UWVBT89Z02VFQihoyObnZh)"/><linearGradient id="UWVBT89Z02VFQihoyObnZi" x1="8" x2="40" y1="21" y2="21" gradientTransform="matrix(1 0 0 -1 0 34)" gradientUnits="userSpaceOnUse"><stop offset="0" stop-color="#912fbd"/><stop offset="1" stop-color="#9332bf"/></linearGradient><rect width="32" height="2" x="8" y="12" fill="url(#UWVBT89Z02VFQihoyObnZi)"/><linearGradient id="UWVBT89Z02VFQihoyObnZj" x1="8" x2="40" y1="23" y2="23" gradientTransform="matrix(1 0 0 -1 0 34)" gradientUnits="userSpaceOnUse"><stop offset="0" stop-color="#c965eb"/><stop offset="1" stop-color="#c767e5"/></linearGradient><rect width="32" height="2" x="8" y="10" fill="url(#UWVBT89Z02VFQihoyObnZj)"/><linearGradient id="UWVBT89Z02VFQihoyObnZk" x1="6" x2="42" y1="8" y2="8" gradientUnits="userSpaceOnUse"><stop offset="0" stop-color="#7819a2"/><stop offset="1" stop-color="#771aa9"/></linearGradient><path fill="url(#UWVBT89Z02VFQihoyObnZk)" d="M6,7v2c0,0.552,0.424,1,0.947,1h34.105C41.576,10,42,9.552,42,9V7c0-0.552-0.424-1-0.947-1	H6.947C6.424,6,6,6.448,6,7z"/><path d="M24,27c0.459,0,0.887,0.206,1.174,0.564l1.966,2.48c0.361,0.453,0.429,1.06,0.177,1.582	c-0.246,0.514-0.749,0.836-1.316,0.85v3.92c0,0.827-0.673,1.5-1.5,1.5h-1c-0.827,0-1.5-0.673-1.5-1.5v-3.92	c-0.567-0.014-1.07-0.336-1.316-0.85c-0.252-0.522-0.184-1.13,0.179-1.584l1.963-2.476C23.112,27.206,23.54,27,24,27z" opacity=".05"/><path d="M24,27.5c0.307,0,0.592,0.138,0.783,0.377l1.965,2.479c0.24,0.302,0.286,0.706,0.118,1.055	c-0.168,0.35-0.514,0.566-0.901,0.566H25.5v4.42c0,0.552-0.448,1-1,1h-1c-0.552,0-1-0.448-1-1v-4.42h-0.465	c-0.388,0-0.733-0.217-0.901-0.566c-0.168-0.349-0.122-0.753,0.119-1.056l1.964-2.477C23.408,27.638,23.693,27.5,24,27.5z" opacity=".07"/><path fill="#fff" d="M22.035,31.476H23v4.92c0,0.276,0.224,0.5,0.5,0.5h1c0.276,0,0.5-0.224,0.5-0.5v-4.92h0.965	c0.418,0,0.652-0.483,0.392-0.811l-1.965-2.477c-0.2-0.252-0.583-0.252-0.783,0l-1.965,2.477	C21.383,30.993,21.616,31.476,22.035,31.476z"/></svg>