<svg xmlns="http://www.w3.org/2000/svg" viewBox="0 0 48 48"><linearGradient id="NiBqoCMT~GmwGGwVYzM52a" x1="24" x2="24" y1="221.049" y2="211.006" gradientTransform="matrix(1 0 0 -1 0 254)" gradientUnits="userSpaceOnUse"><stop offset="0" stop-color="#2aa4f4"/><stop offset="1" stop-color="#007ad9"/></linearGradient><path fill="url(#NiBqoCMT~GmwGGwVYzM52a)" d="M42,34c-1.657,0-3-1-3-1s-1.343,1-3,1s-3-1-3-1s-1.343,1-3,1s-3-1-3-1s-1.343,1-3,1s-3-1-3-1 s-1.343,1-3,1s-3-1-3-1s-1.343,1-3,1s-3-1-3-1s-1.343,1-3,1s-3-1-3-1v8c0,1.105,0.895,2,2,2h22h9h7c1.105,0,2-0.895,2-2v-8 C45,33,43.657,34,42,34z"/><linearGradient id="NiBqoCMT~GmwGGwVYzM52b" x1="24" x2="24" y1="30.015" y2="27.002" gradientUnits="userSpaceOnUse"><stop offset=".001" stop-color="#4d4d4d"/><stop offset="1" stop-color="#6e6e6e"/></linearGradient><path fill="url(#NiBqoCMT~GmwGGwVYzM52b)" d="M44.5,30h-41C3.224,30,3,29.776,3,29.5v-2C3,27.224,3.224,27,3.5,27h41 c0.276,0,0.5,0.224,0.5,0.5v2C45,29.776,44.776,30,44.5,30z"/><linearGradient id="NiBqoCMT~GmwGGwVYzM52c" x1="13.843" x2="14.917" y1="4.852" y2="26.331" gradientUnits="userSpaceOnUse"><stop offset="0" stop-color="#32bdef"/><stop offset="1" stop-color="#1ea2e4"/></linearGradient><path fill="url(#NiBqoCMT~GmwGGwVYzM52c)" d="M19,26c0,0.552-0.448,1-1,1h-8c-0.552,0-1-0.448-1-1c0-0.552,0.448-1,1-1h2 c0.552,0,1-0.448,1-1v-6h2v6c0,0.552,0.448,1,1,1h2C18.552,25,19,25.448,19,26z M21,10V6c0-0.552-0.448-1-1-1H8 C7.448,5,7,5.448,7,6v4H21z"/><radialGradient id="NiBqoCMT~GmwGGwVYzM52d" cx="13.933" cy="11.803" r="7.249" gradientUnits="userSpaceOnUse"><stop offset="0" stop-color="#fff0ce"/><stop offset="1" stop-color="#ffda94"/></radialGradient><path fill="url(#NiBqoCMT~GmwGGwVYzM52d)" d="M7,10v2c0,3.866,3.134,7,7,7s7-3.134,7-7v-2H7z"/><linearGradient id="NiBqoCMT~GmwGGwVYzM52e" x1="33.315" x2="34.958" y1="9.432" y2="24.153" gradientUnits="userSpaceOnUse"><stop offset="0" stop-color="#f09801"/><stop offset="1" stop-color="#e36001"/></linearGradient><polygon fill="url(#NiBqoCMT~GmwGGwVYzM52e)" points="27.81,25 39.184,25 40.621,10 26.376,10"/><linearGradient id="NiBqoCMT~GmwGGwVYzM52f" x1="33.182" x2="35.508" y1="4.596" y2="25.428" gradientUnits="userSpaceOnUse"><stop offset="0" stop-color="#32bdef"/><stop offset="1" stop-color="#1ea2e4"/></linearGradient><path fill="url(#NiBqoCMT~GmwGGwVYzM52f)" d="M26.376,10l-0.374-3.909C25.949,5.505,26.41,5,26.998,5H40c0.588,0,1.049,0.505,0.996,1.091 L40.621,10H26.376z M27.81,25l0.104,1.091C27.961,26.606,28.393,27,28.91,27h9.174c0.517,0,0.949-0.394,0.996-0.909L39.184,25 H27.81z"/></svg>