<svg xmlns="http://www.w3.org/2000/svg" viewBox="0 0 48 48"><path fill="#199be2" d="M35.983,32.448l-3.536,3.536l7.87,7.87c0.195,0.195,0.512,0.195,0.707,0l2.828-2.828	c0.195-0.195,0.195-0.512,0-0.707L35.983,32.448z"/><radialGradient id="iosZjBxRqBw6dJ7QUhJYAa" cx="20.024" cy="20.096" r="19.604" gradientUnits="userSpaceOnUse"><stop offset=".693" stop-color="#006185"/><stop offset=".921" stop-color="#35c1f1"/></radialGradient><polygon fill="url(#iosZjBxRqBw6dJ7QUhJYAa)" points="31.601,28.065 28.065,31.601 32.448,35.983 35.983,32.448"/><linearGradient id="iosZjBxRqBw6dJ7QUhJYAb" x1="8.911" x2="31.339" y1="8.911" y2="31.339" gradientUnits="userSpaceOnUse"><stop offset="0" stop-color="#a3ffff"/><stop offset=".223" stop-color="#9dfbff"/><stop offset=".53" stop-color="#8bf1ff"/><stop offset=".885" stop-color="#6ee0ff"/><stop offset="1" stop-color="#63daff"/></linearGradient><circle cx="20" cy="20" r="16" fill="url(#iosZjBxRqBw6dJ7QUhJYAb)"/><path fill="#2f69de" d="M43,19H32.586L29,22.586l-12-12L10.586,17H4.289c-0.124,0.654-0.212,1.32-0.254,2h7.38L17,13.414	l12,12L33.414,21H43c0.552,0,1-0.448,1-1C44,19.448,43.552,19,43,19z"/></svg>