<svg xmlns="http://www.w3.org/2000/svg" viewBox="0 0 48 48"><linearGradient id="E1eS0otlzlMDnYWxB9MOea" x1="8.663" x2="38.122" y1="8.059" y2="32.915" gradientUnits="userSpaceOnUse"><stop offset="0" stop-color="#a1aab3"/><stop offset="1" stop-color="#8f979e"/></linearGradient><path fill="url(#E1eS0otlzlMDnYWxB9MOea)" d="M41,35H7c-1.105,0-2-0.895-2-2V9c0-1.105,0.895-2,2-2h34c1.105,0,2,0.895,2,2v24	C43,34.105,42.105,35,41,35z"/><radialGradient id="E1eS0otlzlMDnYWxB9MOeb" cx="56.516" cy="105.076" r="86.245" gradientTransform="matrix(.8095 0 0 .7188 1.333 -16.594)" gradientUnits="userSpaceOnUse"><stop offset=".323" stop-color="#23d9d6"/><stop offset=".427" stop-color="#23d4d7"/><stop offset=".542" stop-color="#21c7dc"/><stop offset=".664" stop-color="#1fb0e2"/><stop offset=".789" stop-color="#1c91ec"/><stop offset=".917" stop-color="#1969f8"/><stop offset=".944" stop-color="#1860fb"/></radialGradient><rect width="34" height="24" x="7" y="9" fill="url(#E1eS0otlzlMDnYWxB9MOeb)"/><linearGradient id="E1eS0otlzlMDnYWxB9MOec" x1="24" x2="24" y1="34.992" y2="39.008" gradientUnits="userSpaceOnUse"><stop offset="0" stop-color="#484b4f"/><stop offset=".23" stop-color="#656d75"/><stop offset=".367" stop-color="#727d86"/></linearGradient><rect width="8" height="4" x="20" y="35" fill="url(#E1eS0otlzlMDnYWxB9MOec)"/><linearGradient id="E1eS0otlzlMDnYWxB9MOed" x1="24" x2="24" y1="37.992" y2="42.008" gradientUnits="userSpaceOnUse"><stop offset="0" stop-color="#a1aab3"/><stop offset="1" stop-color="#8f979e"/></linearGradient><path fill="url(#E1eS0otlzlMDnYWxB9MOed)" d="M33,38H15c-0.552,0-1,0.448-1,1v2c0,0.552,0.448,1,1,1h18c0.552,0,1-0.448,1-1v-2	C34,38.448,33.552,38,33,38z"/><path d="M27,14c-1.364,0-2.358,0.681-3,1.339C23.358,14.681,22.364,14,21,14c-2.206,0-4,1.794-4,4v7	c0,1.654,1.346,3,3,3h8c1.654,0,3-1.346,3-3v-7C31,15.794,29.206,14,27,14z" opacity=".05"/><path d="M27,14.5c-1.483,0-2.475,0.922-3,1.593c-0.525-0.671-1.517-1.593-3-1.593c-1.93,0-3.5,1.57-3.5,3.5v7	c0,1.379,1.122,2.5,2.5,2.5h8c1.378,0,2.5-1.121,2.5-2.5v-7C30.5,16.07,28.93,14.5,27,14.5z" opacity=".07"/><path fill="#fff" d="M27,15c-2,0-3,2-3,2s-1-2-3-2c-1.657,0-3,1.343-3,3v7c0,1.105,0.895,2,2,2h8c1.105,0,2-0.895,2-2v-7	C30,16.343,28.657,15,27,15z M21,21c-0.552,0-1-0.448-1-1c0-0.552,0.448-1,1-1s1,0.448,1,1C22,20.552,21.552,21,21,21z M26.011,23.375l-1.352,1.352c-0.364,0.364-0.954,0.364-1.318,0l-1.352-1.352C21.85,23.236,21.948,23,22.144,23h3.712	C26.052,23,26.15,23.236,26.011,23.375z M27,21c-0.552,0-1-0.448-1-1c0-0.552,0.448-1,1-1s1,0.448,1,1C28,20.552,27.552,21,27,21z"/></svg>