<svg xmlns="http://www.w3.org/2000/svg" viewBox="0 0 48 48"><linearGradient id="qNUWuApbNNx2oFtFbVtmIa" x1="6.997" x2="40.749" y1="111.508" y2="76.753" gradientTransform="matrix(1 0 0 -1 0 118)" gradientUnits="userSpaceOnUse"><stop offset="0" stop-color="#ffd869"/><stop offset="1" stop-color="#fec52b"/></linearGradient><path fill="url(#qNUWuApbNNx2oFtFbVtmIa)" d="M40,42H8c-1.1,0-2-0.9-2-2V8c0-1.1,0.9-2,2-2h32c1.1,0,2,0.9,2,2v32C42,41.1,41.1,42,40,42z"/><path fill="#52bf8d" d="M47,48h-1v-3.063h2V47C48,47.552,47.552,48,47,48z"/><path fill="#52bf8d" d="M27,48h-1c-0.552,0-1-0.448-1-1v-2.063h2V48z"/><path fill="#fff8e6" d="M19,6h10v5H19V6z"/><rect width="10" height="2" x="10" y="37" fill="#6b5f41"/><polygon fill="#6b5f41" points="20,32 18,30 16,32 17,32 17,35 19,35 19,32"/><polygon fill="#6b5f41" points="14,32 12,30 10,32 11,32 11,35 13,35 13,32"/><path d="M26,31c-1.103,0-2,0.897-2,2v9h16c1.1,0,2-0.9,2-2v-9H26z" opacity=".05"/><path d="M26,31.5c-0.827,0-1.5,0.673-1.5,1.5v9H40c1.1,0,2-0.9,2-2v-8.5H26z" opacity=".07"/><path fill="#59d19a" d="M47,46h-1v-3.207h2V45C48,45.552,47.552,46,47,46z"/><rect width="19" height="12" x="27" y="32" fill="#33c481"/><path fill="#59d19a" d="M27,46h-1c-0.552,0-1-0.448-1-1v-2.207h2V46z"/><path fill="#61e3a7" d="M47,44h-1V32h1c0.552,0,1,0.448,1,1v10C48,43.552,47.552,44,47,44z"/><path fill="#61e3a7" d="M27,44h-1c-0.552,0-1-0.448-1-1V33c0-0.552,0.448-1,1-1h1V44z"/><rect width="19" height="2" x="27" y="44" fill="#21a366"/><rect width="19" height="2" x="27" y="46" fill="#107c42"/><circle cx="33" cy="38" r="4" fill="#61e3a7"/><circle cx="39" cy="41" r="1" fill="#61e3a7"/><circle cx="43" cy="41" r="1" fill="#61e3a7"/></svg>