<svg xmlns="http://www.w3.org/2000/svg" viewBox="0 0 48 48"><linearGradient id="_sqU~9TtOr70Z~J5n~lPpa" x1="10.043" x2="38.306" y1="10.251" y2="38.513" gradientUnits="userSpaceOnUse"><stop offset="0" stop-color="#bd4ff4"/><stop offset=".587" stop-color="#a235ec"/><stop offset="1" stop-color="#8c20e5"/></linearGradient><path fill="url(#_sqU~9TtOr70Z~J5n~lPpa)" d="M25.698,4.836l1.275,1.472l1.684-0.979c1.183-0.688,2.7-0.167,3.212,1.103l0.728,1.806	l1.91-0.379c1.342-0.266,2.608,0.719,2.68,2.086l0.102,1.945l1.93,0.262c1.356,0.184,2.233,1.527,1.857,2.843l-0.535,1.872	l1.74,0.874c1.223,0.614,1.616,2.17,0.834,3.292l-1.114,1.597l1.362,1.392c0.957,0.978,0.824,2.577-0.28,3.384l-1.572,1.149	l0.836,1.759c0.588,1.236-0.057,2.705-1.364,3.11l-1.86,0.576l0.22,1.935c0.154,1.359-0.932,2.54-2.3,2.498l-1.946-0.059	l-0.42,1.901c-0.295,1.336-1.706,2.1-2.986,1.616l-1.822-0.688l-1.015,1.662c-0.713,1.168-2.296,1.432-3.349,0.559L24,42.18	l-1.5,1.242c-1.054,0.873-2.636,0.609-3.349-0.559l-1.015-1.662l-1.822,0.688c-1.28,0.483-2.691-0.28-2.986-1.616l-0.42-1.901	l-1.946,0.059c-1.368,0.042-2.454-1.139-2.3-2.498l0.22-1.935l-1.86-0.576c-1.307-0.405-1.952-1.874-1.364-3.11l0.836-1.759	l-1.572-1.149C3.816,26.599,3.684,25,4.641,24.022l1.362-1.392l-1.114-1.597c-0.783-1.122-0.389-2.677,0.834-3.292l1.74-0.874	l-0.535-1.872c-0.376-1.315,0.501-2.659,1.857-2.843l1.93-0.262l0.102-1.945c0.071-1.366,1.338-2.352,2.68-2.086l1.91,0.379	l0.728-1.806c0.511-1.269,2.029-1.79,3.212-1.103l1.684,0.979l1.275-1.472C23.198,3.802,24.802,3.802,25.698,4.836z"/><path fill="#fff" d="M11.794,28.8v-9.6c0-0.11,0.09-0.2,0.2-0.2h1.791c0.079,0,0.15,0.046,0.182,0.118l1.648,3.673 c0.401,0.857,0.921,2.129,1.259,3.082l0.033-0.002c-0.093-1.127-0.194-2.747-0.194-4.473V19.2c0-0.11,0.09-0.2,0.2-0.2h1.469 c0.11,0,0.2,0.09,0.2,0.2v9.6c0,0.11-0.09,0.2-0.2,0.2h-1.696c-0.079,0-0.15-0.046-0.182-0.117l-1.656-3.656 c-0.426-0.921-0.949-2.196-1.265-3.18l-0.037,0.001c0.061,1.108,0.118,2.617,0.118,4.492v2.26c0,0.11-0.09,0.2-0.2,0.2h-1.469 C11.884,29,11.794,28.91,11.794,28.8z"/><path fill="#fff" d="M25.035,24.678h-2.559v2.546h2.899c0.11,0,0.2,0.09,0.2,0.2V28.8c0,0.11-0.09,0.2-0.2,0.2h-4.794 c-0.11,0-0.2-0.09-0.2-0.2v-9.6c0-0.11,0.09-0.2,0.2-0.2h4.61c0.11,0,0.2,0.09,0.2,0.2v1.376c0,0.11-0.09,0.2-0.2,0.2h-2.715v2.179 h2.559c0.11,0,0.2,0.09,0.2,0.2v1.323C25.235,24.589,25.146,24.678,25.035,24.678z"/><path fill="#fff" d="M28.241,28.838l-1.854-9.6C26.363,19.115,26.458,19,26.583,19h1.785c0.1,0,0.184,0.068,0.197,0.168 c0.135,1.012,0.841,6.295,0.963,7.331h0.034c0.135-1.071,1.127-6.357,1.313-7.341C30.893,19.063,30.975,19,31.071,19h1.564 c0.098,0,0.18,0.065,0.196,0.161c0.166,0.986,1.039,6.197,1.158,7.318h0.032c0.12-1.116,0.861-6.316,1.003-7.314 C35.038,19.067,35.122,19,35.221,19h1.659c0.126,0,0.221,0.116,0.196,0.24l-1.955,9.6C35.102,28.933,35.02,29,34.925,29h-1.876 c-0.096,0-0.179-0.069-0.197-0.163l-0.635-3.412c-0.173-0.948-0.323-2.016-0.453-3.213h-0.029 c-0.176,1.186-0.339,2.241-0.553,3.223l-0.722,3.407C30.441,28.934,30.36,29,30.265,29h-1.828 C28.341,29,28.259,28.932,28.241,28.838z"/></svg>