<svg xmlns="http://www.w3.org/2000/svg" data-name="Слой 1" viewBox="0 0 48 48"><defs><linearGradient id="YRflzjo8ME0JKAgN_0ReZa" x1="20" x2="28" y1="-15" y2="-15" data-name="Безымянный градиент 2" gradientTransform="matrix(1 0 0 -1 0 -8)" gradientUnits="userSpaceOnUse"><stop offset="0" stop-color="#ffcf54"/><stop offset=".261" stop-color="#fdcb4d"/><stop offset=".639" stop-color="#f7c13a"/><stop offset="1" stop-color="#f0b421"/></linearGradient></defs><path fill="url(#YRflzjo8ME0JKAgN_0ReZa)" d="M20,7a4,4,0,1,0,3.998-4A3.99975,3.99975,0,0,0,20,7Z"/><path fill="#35c1f1" d="M20,17a4,4,0,1,0,3.998-4A3.99975,3.99975,0,0,0,20,17Z"/><path fill="#35c1f1" d="M9,12.5A1.5,1.5,0,1,0,10.49925,11,1.49991,1.49991,0,0,0,9,12.5Z"/><path fill="#35c1f1" d="M10,35.5A1.5,1.5,0,1,0,11.49925,34,1.49991,1.49991,0,0,0,10,35.5Z"/><path fill="#35c1f1" d="M20,24a4,4,0,1,0,3.998-4A3.99975,3.99975,0,0,0,20,24Z"/><polygon fill="#35c1f1" points="10.012 13.919 10.729 11.018 23.998 13 20 17 10.012 13.919"/><rect width="8" height="7" x="20" y="17" fill="#35c1f1"/><polygon fill="#35c1f1" points="10.5 34.382 20 24 23.998 28 12.386 36.711 10.5 34.382"/><path fill="#35c1f1" d="M39,12.5A1.5,1.5,0,1,1,37.50075,11,1.49991,1.49991,0,0,1,39,12.5Z"/><path fill="#35c1f1" d="M38,35.5A1.5,1.5,0,1,1,36.50075,34,1.49991,1.49991,0,0,1,38,35.5Z"/><polygon fill="#35c1f1" points="37.988 13.919 37.271 11.018 24.002 13 28 17 37.988 13.919"/><polygon fill="#35c1f1" points="37.5 34.382 28 24 24.002 28 35.614 36.711 37.5 34.382"/><path fill="#0370c8" d="M27.999,37.96875a1.00108,1.00108,0,0,1-.44629-.10547,7.76943,7.76943,0,0,0-7.10546,0,1.00012,1.00012,0,1,1-.89454-1.78906,9.78257,9.78257,0,0,1,8.89454,0,1,1,0,0,1-.44825,1.89453Z"/><path fill="#0370c8" d="M33,45a.9984.9984,0,0,1-.74414-.332,11.12512,11.12512,0,0,0-16.51172,0A1,1,0,1,1,14.25586,43.332a13.12488,13.12488,0,0,1,19.48828,0A1,1,0,0,1,33,45Z"/></svg>