<svg xmlns="http://www.w3.org/2000/svg" viewBox="0 0 48 48"><path fill="#184f85" d="M29,40H5v3c0,1.105,0.895,2,2,2h20c1.105,0,2-0.895,2-2V40z"/><rect width="24" height="7" x="5" y="33" fill="#0078d4"/><rect width="24" height="10" x="5" y="23" fill="#1b9de2"/><rect width="24" height="14" x="5" y="9" fill="#35c1f1"/><path fill="#50e6ff" d="M29,9H5V6c0-1.105,0.895-2,2-2h20c1.105,0,2,0.895,2,2V9z"/><circle cx="13" cy="6.5" r=".75" fill="#0c63ad"/><path fill="#0c63ad" d="M20.5,5.75c-0.194,0-4.806,0-5,0c-0.414,0-0.75,0.336-0.75,0.75s0.336,0.75,0.75,0.75	c0.194,0,4.806,0,5,0c0.414,0,0.75-0.336,0.75-0.75S20.914,5.75,20.5,5.75z"/><path d="M29,11.5h-9.734c-0.974,0-1.766,0.792-1.766,1.766v16.469c0,0.974,0.792,1.766,1.766,1.766H23.5	v4.567c0,0.625,0.51,1.134,1.137,1.134c0.299,0,0.582-0.118,0.796-0.333L29,33.301V11.5z" opacity=".07"/><path d="M29,11h-9.734C18.017,11,17,12.016,17,13.266v16.469C17,30.984,18.017,32,19.266,32H23v4.067	c0,0.901,0.734,1.634,1.637,1.634c0.432,0,0.841-0.17,1.15-0.479L29,34.008V11z" opacity=".05"/><linearGradient id="oohvMpKKKDqXSxVB5qo5oa" x1="20.091" x2="40.942" y1="11.725" y2="31.64" gradientUnits="userSpaceOnUse"><stop offset="0" stop-color="#f44f5a"/><stop offset=".443" stop-color="#ee3d4a"/><stop offset="1" stop-color="#e52030"/></linearGradient><path fill="url(#oohvMpKKKDqXSxVB5qo5oa)" d="M41.735,12H19.265C18.567,12,18,12.567,18,13.265v16.469C18,30.433,18.567,31,19.265,31H24	v5.067c0,0.564,0.681,0.846,1.08,0.447L30.594,31h11.14C42.433,31,43,30.433,43,29.735V13.265C43,12.567,42.433,12,41.735,12z"/><path fill="#ffd600" d="M30.5,18.969c-0.414,0-0.75-0.336-0.75-0.75v-2.688c0-0.414,0.336-0.75,0.75-0.75 s0.75,0.336,0.75,0.75v2.688C31.25,18.633,30.914,18.969,30.5,18.969z"/><path fill="#f5be00" d="M36,21.281c0-3.463-3.472-6.147-7.255-5.02C26.476,16.937,25,19.133,25,21.5l0,3.5h11	C36,25,36,21.418,36,21.281z"/><linearGradient id="oohvMpKKKDqXSxVB5qo5ob" x1="30.5" x2="30.5" y1="90.031" y2="91.575" gradientTransform="matrix(1 0 0 -1 0 118)" gradientUnits="userSpaceOnUse"><stop offset=".486" stop-color="#fbc300"/><stop offset="1" stop-color="#dbaa00"/></linearGradient><path fill="url(#oohvMpKKKDqXSxVB5qo5ob)" d="M32.021,26.479c0,0.84-0.681,1.521-1.521,1.521s-1.521-0.681-1.521-1.521H32.021z"/><linearGradient id="oohvMpKKKDqXSxVB5qo5oc" x1="30.5" x2="30.5" y1="93.003" y2="90.998" gradientTransform="matrix(1 0 0 -1 0 118)" gradientUnits="userSpaceOnUse"><stop offset="0" stop-color="#fede00"/><stop offset="1" stop-color="#ffd000"/></linearGradient><path fill="url(#oohvMpKKKDqXSxVB5qo5oc)" d="M37.035,25.809L36,25H25l-1.035,0.809c-0.158,0.122-0.268,0.306-0.268,0.525	c0,0.368,0.292,0.667,0.652,0.667h12.303c0.36,0,0.652-0.299,0.652-0.667C37.303,26.115,37.194,25.931,37.035,25.809z"/></svg>