<svg xmlns="http://www.w3.org/2000/svg" viewBox="0 0 48 48"><path fill="#184f85" d="M25,41.184V39h-2v2.184c-1.163,0.413-2,1.512-2,2.816c0,1.657,1.343,3,3,3s3-1.343,3-3	C27,42.696,26.163,41.597,25,41.184z M24,45c-0.552,0-1-0.448-1-1c0-0.552,0.448-1,1-1s1,0.448,1,1C25,44.552,24.552,45,24,45z"/><radialGradient id="XRT8HSXFk53ZCi5wDpAoRa" cx="47.589" cy="58.033" r="47.495" gradientUnits="userSpaceOnUse"><stop offset=".131" stop-color="#23d9d6"/><stop offset="1" stop-color="#183efb"/></radialGradient><path fill="url(#XRT8HSXFk53ZCi5wDpAoRa)" d="M42,7H6C5.448,7,5,7.448,5,8v30c0,0.552,0.448,1,1,1h36c0.552,0,1-0.448,1-1V8	C43,7.448,42.552,7,42,7z"/><path fill="#50e6ff" d="M43,7H5C4.448,7,4,7.448,4,8c0,0.552,0.448,1,1,1h38c0.552,0,1-0.448,1-1C44,7.448,43.552,7,43,7z"/><polygon fill="#199be2" points="27,28.414 21,22.414 15.707,27.707 14.293,26.293 21,19.586 27,25.586 32.293,20.293 33.707,21.707"/><circle cx="33" cy="21" r="2" fill="#50e6ff"/><circle cx="27" cy="27" r="2" fill="#50e6ff"/><circle cx="21" cy="21" r="2" fill="#50e6ff"/><circle cx="15" cy="27" r="2" fill="#50e6ff"/></svg>