<svg xmlns="http://www.w3.org/2000/svg" viewBox="0 0 48 48"><linearGradient id="kV2yPEH8ORqk1y4~bXJmxa" x1="26.225" x2="40.138" y1="509.275" y2="495.362" gradientTransform="matrix(1 0 0 -1 0 526)" gradientUnits="userSpaceOnUse"><stop offset="0" stop-color="#1d59b3"/><stop offset="1" stop-color="#195bbc"/></linearGradient><path fill="url(#kV2yPEH8ORqk1y4~bXJmxa)" d="M45,26H22c-0.55,0-1-0.45-1-1v-2c0-0.55,0.45-1,1-1h23c0.55,0,1,0.45,1,1v2	C46,25.55,45.55,26,45,26z"/><linearGradient id="kV2yPEH8ORqk1y4~bXJmxb" x1="26.226" x2="40.139" y1="519.274" y2="505.361" gradientTransform="matrix(1 0 0 -1 0 526)" gradientUnits="userSpaceOnUse"><stop offset="0" stop-color="#1d59b3"/><stop offset="1" stop-color="#195bbc"/></linearGradient><path fill="url(#kV2yPEH8ORqk1y4~bXJmxb)" d="M45,16H22c-0.55,0-1-0.45-1-1v-2c0-0.55,0.45-1,1-1h23c0.55,0,1,0.45,1,1v2	C46,15.55,45.55,16,45,16z"/><linearGradient id="kV2yPEH8ORqk1y4~bXJmxc" x1="26.226" x2="40.139" y1="499.274" y2="485.361" gradientTransform="matrix(1 0 0 -1 0 526)" gradientUnits="userSpaceOnUse"><stop offset="0" stop-color="#1d59b3"/><stop offset="1" stop-color="#195bbc"/></linearGradient><path fill="url(#kV2yPEH8ORqk1y4~bXJmxc)" d="M45,36H22c-0.55,0-1-0.45-1-1v-2c0-0.55,0.45-1,1-1h23c0.55,0,1,0.45,1,1v2	C46,35.55,45.55,36,45,36z"/><linearGradient id="kV2yPEH8ORqk1y4~bXJmxd" x1="13.113" x2="16.911" y1="497.444" y2="484.38" gradientTransform="matrix(1 0 0 -1 0 526)" gradientUnits="userSpaceOnUse"><stop offset="0" stop-color="#33bef0"/><stop offset="1" stop-color="#0a85d9"/></linearGradient><path fill="url(#kV2yPEH8ORqk1y4~bXJmxd)" d="M16,29c-7.732,0-14,4.556-14,9.25v1C2,40.216,2.784,41,3.75,41h24.5	c0.966,0,1.75-0.784,1.75-1.75v-1C30,33.556,23.732,29,16,29z"/><path fill="#d6a121" d="M20.545,30.491c0,1.564-1.648,3.297-4.121,3.297s-4.121-1.733-4.121-3.297c0-2.174,0-5.799,0-5.799	h8.242C20.545,24.692,20.545,28.317,20.545,30.491z"/><linearGradient id="kV2yPEH8ORqk1y4~bXJmxe" x1="23.774" x2="25.394" y1="505.606" y2="505.606" gradientTransform="matrix(1 0 0 -1 0 526)" gradientUnits="userSpaceOnUse"><stop offset="0" stop-color="#c48f0c"/><stop offset=".251" stop-color="#d19b16"/><stop offset=".619" stop-color="#dca51f"/><stop offset="1" stop-color="#e0a922"/></linearGradient><path fill="url(#kV2yPEH8ORqk1y4~bXJmxe)" d="M24.299,18.333h-1.166v4.121h1.321c0.454,0,0.843-0.321,0.919-0.762l0.304-1.755	C25.822,19.099,25.164,18.333,24.299,18.333z"/><linearGradient id="kV2yPEH8ORqk1y4~bXJmxf" x1="110.436" x2="112.057" y1="505.606" y2="505.606" gradientTransform="rotate(180 59.755 263)" gradientUnits="userSpaceOnUse"><stop offset="0" stop-color="#c48f0c"/><stop offset=".251" stop-color="#d19b16"/><stop offset=".619" stop-color="#dca51f"/><stop offset="1" stop-color="#e0a922"/></linearGradient><path fill="url(#kV2yPEH8ORqk1y4~bXJmxf)" d="M8.55,18.333h1.166v4.121H8.395c-0.454,0-0.843-0.321-0.919-0.762l-0.304-1.755	C7.027,19.099,7.684,18.333,8.55,18.333z"/><radialGradient id="kV2yPEH8ORqk1y4~bXJmxg" cx="-53.203" cy="511.727" r="9.796" gradientTransform="matrix(.8816 0 0 -.8816 63.328 470.95)" gradientUnits="userSpaceOnUse"><stop offset="0" stop-color="#ffcf54"/><stop offset=".261" stop-color="#fdcb4d"/><stop offset=".639" stop-color="#f7c13a"/><stop offset="1" stop-color="#f0b421"/></radialGradient><path fill="url(#kV2yPEH8ORqk1y4~bXJmxg)" d="M16.424,9.954c-3.559,0-7.212,0.541-7.212,8.234c0,0.616,0,4.71,0,5.367	c0,2.746,4.327,6.112,7.212,6.112s7.212-3.366,7.212-6.112c0-0.657,0-4.752,0-5.367C23.636,10.495,19.983,9.954,16.424,9.954z"/><radialGradient id="kV2yPEH8ORqk1y4~bXJmxh" cx="-61.697" cy="523.916" r="25.834" gradientTransform="matrix(.8816 0 0 -.8816 63.328 470.95)" gradientUnits="userSpaceOnUse"><stop offset="0" stop-color="#c26715"/><stop offset=".508" stop-color="#b85515"/><stop offset="1" stop-color="#ad3f16"/></radialGradient><path fill="url(#kV2yPEH8ORqk1y4~bXJmxh)" d="M16.424,8.03c-3.443,0-4.121,1.03-4.121,1.03c-2.061,0-4.636,2.09-4.636,6.182	c0,1.491,0.515,3.091,1.545,6.182c0.491-5.901,1.511-9.273,3.091-9.273c1.142,0,1.663,1.03,4.121,1.03	c2.076,0,2.061-1.03,4.121-1.03c2.705,0,3.091,8.342,3.091,9.273c1.03-3.091,1.545-4.88,1.545-6.182	C25.182,11.117,22.022,8.03,16.424,8.03z"/><radialGradient id="kV2yPEH8ORqk1y4~bXJmxi" cx="-81.685" cy="522.814" r="28.837" gradientTransform="matrix(.8431 0 0 -.8816 84.225 470.95)" gradientUnits="userSpaceOnUse"><stop offset="0" stop-color="#c26715"/><stop offset=".508" stop-color="#b85515"/><stop offset="1" stop-color="#ad3f16"/></radialGradient><path fill="url(#kV2yPEH8ORqk1y4~bXJmxi)" d="M16.492,7c-3.753,0-4.189,2.061-4.189,2.061c-0.038,1.045,0,2.061,0,2.061	s0.644,1.288,4.556,1.288c2.361,0,5.747-1.473,5.747-5.409C22.606,7,21.846,7,16.492,7z"/></svg>