<svg xmlns="http://www.w3.org/2000/svg" viewBox="0 0 48 48"><linearGradient id="K4jaWBV6O8uh_hsAHq0u8a" x1="24" x2="24" y1="2.618" y2="42.506" gradientUnits="userSpaceOnUse"><stop offset="0" stop-color="#33c481"/><stop offset="1" stop-color="#21a366"/></linearGradient><path fill="url(#K4jaWBV6O8uh_hsAHq0u8a)" d="M31.305,19.743c-0.761-1.056-1.037-2.374-0.638-3.613C30.883,15.459,31,14.743,31,14	c0-2.137-0.96-4.048-2.471-5.331c-0.552-0.468-0.746-1.215-0.603-1.925c0.126-0.628,0.1-1.312-0.144-2.029	c-0.453-1.333-1.608-2.374-2.99-2.639C22.235,1.586,20,3.532,20,6c0,0.269,0.029,0.531,0.083,0.784	c0.147,0.694-0.069,1.425-0.61,1.884C17.961,9.951,17,11.862,17,14c0,0.646,0.088,1.271,0.253,1.864	c0.377,1.358,0.202,2.801-0.611,3.953c-0.979,1.387-1.576,3.064-1.637,4.876c-0.165,4.907,3.832,9.168,8.74,9.303	C28.832,34.137,33,30.055,33,25C33,23.038,32.372,21.222,31.305,19.743z"/><path fill="#21a366" d="M24,40L24,40c-0.552,0-1-0.448-1-1V17c0-0.552,0.448-1,1-1h0c0.552,0,1,0.448,1,1v22	C25,39.552,24.552,40,24,40z"/><linearGradient id="K4jaWBV6O8uh_hsAHq0u8b" x1="31.017" x2="31.017" y1="-1.353" y2="26.77" gradientUnits="userSpaceOnUse"><stop offset="0" stop-color="#9dffce"/><stop offset="1" stop-color="#50d18d"/></linearGradient><path fill="url(#K4jaWBV6O8uh_hsAHq0u8b)" d="M30.164,19.232c-0.081-0.715-0.129-1.46-0.129-2.232c0-4.971,1.791-9,4-9s4,4.029,4,9	c0,0.338-0.01,0.671-0.026,1c0.005,0,0.026,0,0.026,0v12l-14,3C23.657,28.467,26.419,21.939,30.164,19.232z"/><linearGradient id="K4jaWBV6O8uh_hsAHq0u8c" x1="33.007" x2="33.007" y1="14.706" y2="44.126" gradientUnits="userSpaceOnUse"><stop offset="0" stop-color="#9dffce"/><stop offset="1" stop-color="#50d18d"/></linearGradient><path fill="url(#K4jaWBV6O8uh_hsAHq0u8c)" d="M23.014,37.5c0,1.94,0.37,3.79,1.04,5.49c6.28-0.26,12.79-6.33,16.33-15.26	c0.52-1.31,0.98-2.69,1.36-4.12c0.05-0.2,0.11-0.4,0.15-0.6c1.06-4.2,1.33-8.32,0.93-12c-0.1-0.01-0.21-0.01-0.31-0.01	c-4.69,0-8.5,3.81-8.5,8.5c0,1.19,0.25,2.34,0.7,3.37C28.024,24.37,23.014,30.35,23.014,37.5z"/><linearGradient id="K4jaWBV6O8uh_hsAHq0u8d" x1="17.017" x2="17.017" y1="-1.353" y2="26.77" gradientUnits="userSpaceOnUse"><stop offset="0" stop-color="#9dffce"/><stop offset="1" stop-color="#50d18d"/></linearGradient><path fill="url(#K4jaWBV6O8uh_hsAHq0u8d)" d="M17.871,19.232C17.952,18.517,18,17.772,18,17c0-4.971-1.791-9-4-9s-4,4.029-4,9	c0,0.338,0.01,0.671,0.026,1C10.021,18,10,18,10,18v12l14,3C24.378,28.467,21.616,21.939,17.871,19.232z"/><linearGradient id="K4jaWBV6O8uh_hsAHq0u8e" x1="15" x2="15" y1="10.998" y2="55.315" gradientUnits="userSpaceOnUse"><stop offset="0" stop-color="#9dffce"/><stop offset="1" stop-color="#50d18d"/></linearGradient><path fill="url(#K4jaWBV6O8uh_hsAHq0u8e)" d="M25,37.5c0-7.15-5.014-13.13-11.708-14.63c1.21-2.767,0.975-6.4-1.674-9.349	c-1.587-1.767-3.93-2.59-6.305-2.519c-0.046,0.001-0.092,0.004-0.136,0.008c-0.4,3.68-0.13,7.8,0.931,12c0.04,0.2,0.1,0.4,0.15,0.6	c0.38,1.43,0.841,2.81,1.361,4.12c3.207,8.085,8.85,13.816,14.554,15.023c0.475,0.1,0.827,0.497,0.827,0.982V45	c0,0.552,0.448,1,1.001,1S25,45.552,25,45v-7c0-0.034-0.016-0.062-0.019-0.095C24.984,37.769,25,37.637,25,37.5z"/></svg>