<svg xmlns="http://www.w3.org/2000/svg" viewBox="0 0 48 48"><linearGradient id="cFQW9O073D_xAedllncQMa" x1="28.413" x2="42.046" y1="14.862" y2="36.401" gradientUnits="userSpaceOnUse"><stop offset="0" stop-color="#42a3f2"/><stop offset="1" stop-color="#42a4eb"/></linearGradient><path fill="url(#cFQW9O073D_xAedllncQMa)" d="M43,36H29V14h10.559c0.86,0,1.625,0.551,1.897,1.368L45,26v8C45,35.105,44.105,36,43,36"/><linearGradient id="cFQW9O073D_xAedllncQMb" x1="6.441" x2="24.98" y1="6.868" y2="35.245" gradientUnits="userSpaceOnUse"><stop offset="0" stop-color="#3079d6"/><stop offset="1" stop-color="#297cd2"/></linearGradient><path fill="url(#cFQW9O073D_xAedllncQMb)" d="M29,36H5c-1.105,0-2-0.895-2-2V9c0-1.105,0.895-2,2-2h22c1.105,0,2,0.895,2,2V36z"/><path fill="#586169" d="M42,36c0,2.761-2.238,5-5,5s-5-2.239-5-5s2.238-5,5-5S42,33.239,42,36"/><path fill="#586169" d="M18,36c0,2.761-2.239,5-5,5s-5-2.239-5-5s2.239-5,5-5S18,33.239,18,36"/><path fill="#999" d="M39,36c0,1.105-0.895,2-2,2s-2-0.895-2-2s0.895-2,2-2S39,34.895,39,36"/><path fill="#999" d="M15,36c0,1.105-0.895,2-2,2s-2-0.895-2-2s0.895-2,2-2S15,34.895,15,36"/><linearGradient id="cFQW9O073D_xAedllncQMc" x1="41.544" x2="33.868" y1="25.845" y2="17.71" gradientUnits="userSpaceOnUse"><stop offset="0" stop-color="#3079d6"/><stop offset="1" stop-color="#297cd2"/></linearGradient><path fill="url(#cFQW9O073D_xAedllncQMc)" d="M41,25h-7c-0.552,0-1-0.448-1-1v-7c0-0.552,0.448-1,1-1h5c0.432,0,0.813,0.275,0.949,0.684	l2,6C41.982,22.786,42,22.893,42,23v1C42,24.552,41.552,25,41,25z"/></svg>