<svg xmlns="http://www.w3.org/2000/svg" viewBox="0 0 48 48"><linearGradient id="JoblmpPlulp1kaMItSSwqa" x1="8.475" x2="30.643" y1="19.379" y2="41.547" gradientUnits="userSpaceOnUse"><stop offset="0" stop-color="#eba84b"/><stop offset="1" stop-color="#d97218"/></linearGradient><path fill="url(#JoblmpPlulp1kaMItSSwqa)" d="M27.555,31.244c1.256-0.557,2.38-1.47,3.224-2.751c1.704-2.588,1.62-6.129-0.219-8.791	c-3.005-4.348-8.889-4.89-12.276-1.501c-0.682,0.682-1.202,1.466-1.565,2.307c-0.452,1.05-1.433,1.757-2.596,1.727	c-2.698-0.071-5.33,0.856-7.293,2.819C2.787,29.1,3.115,35.986,7.563,40.436s11.332,4.778,15.375,0.732	c1.939-1.94,2.867-4.532,2.821-7.196C25.738,32.755,26.462,31.729,27.555,31.244z"/><linearGradient id="JoblmpPlulp1kaMItSSwqb" x1="22" x2="22" y1="20.289" y2="28.755" gradientUnits="userSpaceOnUse"><stop offset="0" stop-color="#a34f27"/><stop offset=".587" stop-color="#8b3817"/><stop offset="1" stop-color="#802d10"/></linearGradient><circle cx="22" cy="26" r="3" fill="url(#JoblmpPlulp1kaMItSSwqb)"/><linearGradient id="JoblmpPlulp1kaMItSSwqc" x1="22.2" x2="11.368" y1="39.465" y2="28.633" gradientUnits="userSpaceOnUse"><stop offset=".002" stop-color="#3b3b3b"/><stop offset=".013" stop-color="#3c3c3c"/><stop offset=".875" stop-color="#585858"/><stop offset="1" stop-color="#636363"/></linearGradient><path fill="url(#JoblmpPlulp1kaMItSSwqc)" d="M17.838,33.691l-3.53-3.531c-0.195-0.195-0.511-0.195-0.706,0l-0.706,0.706	c-0.195,0.195-0.195,0.511,0,0.706l3.53,3.531c0.195,0.195,0.511,0.195,0.706,0l0.706-0.706	C18.033,34.202,18.033,33.886,17.838,33.691z"/><linearGradient id="JoblmpPlulp1kaMItSSwqd" x1="37.522" x2="30.224" y1="20.522" y2="13.224" gradientUnits="userSpaceOnUse"><stop offset=".002" stop-color="#3b3b3b"/><stop offset=".013" stop-color="#3c3c3c"/><stop offset=".875" stop-color="#585858"/><stop offset="1" stop-color="#636363"/></linearGradient><path fill="url(#JoblmpPlulp1kaMItSSwqd)" d="M26,24c-0.512,0-1.023-0.195-1.414-0.586c-0.781-0.781-0.781-2.047,0-2.828l13-13	c0.781-0.781,2.047-0.781,2.828,0c0.781,0.781,0.781,2.047,0,2.828l-13,13C27.023,23.805,26.512,24,26,24z"/><linearGradient id="JoblmpPlulp1kaMItSSwqe" x1="29.429" x2="50.806" y1="-.856" y2="20.52" gradientUnits="userSpaceOnUse"><stop offset="0" stop-color="#eba84b"/><stop offset="1" stop-color="#d97218"/></linearGradient><path fill="url(#JoblmpPlulp1kaMItSSwqe)" d="M40.467,5.146l2.387,2.387c0.176,0.176,0.196,0.454,0.046,0.654l-2.428,3.237	c-0.205,0.273-0.476,0.489-0.788,0.628l-1.376,0.571c-0.187,0.078-0.402,0.035-0.545-0.108l-2.277-2.277	c-0.143-0.143-0.186-0.358-0.108-0.545l0.571-1.376c0.139-0.312,0.355-0.583,0.628-0.788L39.813,5.1	C40.012,4.951,40.291,4.971,40.467,5.146z"/></svg>