<svg xmlns="http://www.w3.org/2000/svg" xmlns:xlink="http://www.w3.org/1999/xlink" data-name="Слой 1" viewBox="0 0 48 48"><defs><linearGradient id="Puay0ea85WEL3dezIH9~6a" x1="19.5" x2="19.5" y1="554.011" y2="538.432" data-name="Безымянный градиент 217" gradientTransform="matrix(1 0 0 -1 0 572.005)" gradientUnits="userSpaceOnUse"><stop offset="0" stop-color="#889097"/><stop offset="1" stop-color="#64717c"/></linearGradient><linearGradient id="Puay0ea85WEL3dezIH9~6b" x1="24" x2="24" y1="541.063" y2="529.011" data-name="Безымянный градиент 216" gradientTransform="matrix(1 0 0 -1 0 572.005)" gradientUnits="userSpaceOnUse"><stop offset="0" stop-color="#b9360c"/><stop offset=".537" stop-color="#b5350c"/><stop offset=".999" stop-color="#ab320b"/></linearGradient><linearGradient id="Puay0ea85WEL3dezIH9~6c" x1="15.282" x2="39.971" y1="29.717" y2="5.029" data-name="Безымянный градиент 230" gradientUnits="userSpaceOnUse"><stop offset="0" stop-color="#ffd869"/><stop offset="1" stop-color="#fec52b"/></linearGradient><linearGradient id="Puay0ea85WEL3dezIH9~6d" x1="36.997" x2="36.997" y1="567.946" y2="559.533" xlink:href="#Puay0ea85WEL3dezIH9~6a"/></defs><path fill="url(#Puay0ea85WEL3dezIH9~6a)" d="M26.56086,25.30875l-6.87634-6.87633a1.49909,1.49909,0,0,0-2.12017,0l-4.05893,4.05892c-1.387,1.387-1.50617,7.61106-1.50542,9.762a.74263.74263,0,0,0,.74.74521c2.14192.01575,8.321-.069,9.762-1.50991l4.05893-4.05893A1.5,1.5,0,0,0,26.56086,25.30875Z"/><path fill="url(#Puay0ea85WEL3dezIH9~6b)" d="M3,31V41a1.99945,1.99945,0,0,0,2,2H43a1.99945,1.99945,0,0,0,2-2V31Z"/><rect width="42" height="2" x="3" y="29" fill="#d43a02"/><circle cx="21" cy="34" r="1" fill="#d43a02"/><circle cx="24" cy="37" r="1" fill="#d43a02"/><circle cx="27" cy="34" r="1" fill="#d43a02"/><circle cx="30" cy="37" r="1" fill="#d43a02"/><circle cx="33" cy="34" r="1" fill="#d43a02"/><circle cx="36" cy="37" r="1" fill="#d43a02"/><circle cx="39" cy="34" r="1" fill="#d43a02"/><circle cx="42" cy="37" r="1" fill="#d43a02"/><circle cx="18" cy="37" r="1" fill="#d43a02"/><circle cx="6" cy="37" r="1" fill="#d43a02"/><circle cx="9" cy="34" r="1" fill="#d43a02"/><circle cx="12" cy="37" r="1" fill="#d43a02"/><circle cx="15" cy="34" r="1" fill="#d43a02"/><circle cx="21" cy="40" r="1" fill="#d43a02"/><circle cx="27" cy="40" r="1" fill="#d43a02"/><circle cx="33" cy="40" r="1" fill="#d43a02"/><circle cx="39" cy="40" r="1" fill="#d43a02"/><circle cx="9" cy="40" r="1" fill="#d43a02"/><circle cx="15" cy="40" r="1" fill="#d43a02"/><path fill="url(#Puay0ea85WEL3dezIH9~6c)" d="M39.709,9.54443a.99876.99876,0,0,0-1.41406-.00293L36.53516,11.293a2.049,2.049,0,0,1-2.82813,0A1.99928,1.99928,0,0,1,33.709,8.46289l1.75-1.75732a1.00024,1.00024,0,0,0-1.418-1.41114L32.293,7.05029a3.95947,3.95947,0,0,0-.60718,4.84986L18.293,25.293A.99989.99989,0,1,0,19.707,26.707L33.1001,13.314a3.959,3.959,0,0,0,4.84717-.60546l1.75781-1.75A.99965.99965,0,0,0,39.709,9.54443Z"/><path fill="url(#Puay0ea85WEL3dezIH9~6d)" d="M39.20568,11.7637,33.23023,5.78824a.78546.78546,0,0,1,0-1.11115l.44686-.44686a.78546.78546,0,0,1,1.11115,0l5.97546,5.97545a.78549.78549,0,0,1,0,1.11116l-.44686.44686A.78549.78549,0,0,1,39.20568,11.7637Z"/></svg>