<svg xmlns="http://www.w3.org/2000/svg" viewBox="0 0 48 48"><path fill="#50e6ff" d="M39,16v25c0,1.105-0.895,2-2,2H11c-1.105,0-2-0.895-2-2V7c0-1.105,0.895-2,2-2h17L39,16z"/><linearGradient id="1Y~Ba5~IRikhRfFiL6XcDa" x1="28.529" x2="33.6" y1="646.528" y2="651.6" gradientTransform="matrix(1 0 0 -1 0 662)" gradientUnits="userSpaceOnUse"><stop offset="0" stop-color="#3079d6"/><stop offset="1" stop-color="#297cd2"/></linearGradient><path fill="url(#1Y~Ba5~IRikhRfFiL6XcDa)" d="M28,5v9c0,1.105,0.895,2,2,2h9L28,5z"/><path d="M37,43c1.105,0,2-0.895,2-2V26.5h-0.207l-7,7H28c-0.827,0-1.5,0.673-1.5,1.5v8H37z" opacity=".07"/><path d="M37,43c1.105,0,2-0.895,2-2V26h-0.414l-7,7H28c-1.103,0-2,0.897-2,2v8H37z" opacity=".05"/><path fill="#057093" d="M14.001,34c-0.343,0-0.678-0.177-0.863-0.496c-0.278-0.476-0.118-1.088,0.357-1.368	c0.025-0.015,0.982-0.588,2.156-1.658C14.607,28.911,14,26.7,14,24.099C14,19.331,15.851,16,18.5,16c2.583,0,3.5,3.059,3.5,5.678	c0,3.816-1.752,6.791-3.563,8.846C18.895,30.829,19.416,31,20,31c1.428,0,2.74-0.42,3.833-1.086C23.246,28.851,23,27.528,23,26.301	C23,24.1,24.011,21,26.258,21C27.082,21,29,21.394,29,25.045c0,1.689-0.779,3.469-2.105,4.915c0.131,0.026,0.271,0.04,0.421,0.04	c1.079,0,1.621-0.581,2.487-1.608C30.7,27.326,31.818,26,34,26c0.553,0,1,0.448,1,1s-0.447,1-1,1c-1.191,0-1.79,0.639-2.668,1.681	C30.461,30.714,29.377,32,27.315,32c-0.846,0-1.546-0.216-2.119-0.583C23.75,32.386,21.97,33,20,33	c-1.118,0-2.129-0.366-2.988-1.033c-1.31,1.187-2.394,1.831-2.508,1.897C14.346,33.956,14.172,34,14.001,34z M18.5,18	c-1.207,0-2.5,2.451-2.5,6.099c0,1.782,0.371,3.575,1.096,4.887C18.598,27.215,20,24.742,20,21.678C20,20.256,19.593,18,18.5,18z M26.258,23C25.785,23,25,24.599,25,26.301c0,0.46,0.047,1.475,0.412,2.324c0.997-1.073,1.588-2.37,1.588-3.58	C27,24.431,26.928,23,26.258,23z"/><linearGradient id="1Y~Ba5~IRikhRfFiL6XcDb" x1="27.812" x2="31.152" y1="628.055" y2="614.957" gradientTransform="matrix(1 0 0 -1 0 662)" gradientUnits="userSpaceOnUse"><stop offset="0" stop-color="#0077d2"/><stop offset="1" stop-color="#0b59a2"/></linearGradient><path fill="url(#1Y~Ba5~IRikhRfFiL6XcDb)" d="M32,34h-4c-0.552,0-1,0.448-1,1v12c0,0.552,0.448,1,1,1h4V34z"/><linearGradient id="1Y~Ba5~IRikhRfFiL6XcDc" x1="34.1" x2="42.396" y1="634.041" y2="613.713" gradientTransform="matrix(1 0 0 -1 0 662)" gradientUnits="userSpaceOnUse"><stop offset="0" stop-color="#ffcf54"/><stop offset=".261" stop-color="#fdcb4d"/><stop offset=".639" stop-color="#f7c13a"/><stop offset="1" stop-color="#f0b421"/></linearGradient><path fill="url(#1Y~Ba5~IRikhRfFiL6XcDc)" d="M45.499,34H39l0.5-2c0,0,1.5-1,1.5-3c0-1.104-0.896-2-2-2l-7,7v14h11.356	c0.943,0,1.758-0.659,1.955-1.581l2.143-10C47.722,35.174,46.772,34,45.499,34z"/></svg>