<svg xmlns="http://www.w3.org/2000/svg" viewBox="0 0 48 48"><linearGradient id="Wv_KhHHvjZZWVw5tIYryca" x1="6.414" x2="41.774" y1="-305.552" y2="-331.378" gradientTransform="matrix(1 0 0 -1 0 -291.89)" gradientUnits="userSpaceOnUse"><stop offset="0" stop-color="#28afea"/><stop offset="1" stop-color="#047ed6"/></linearGradient><path fill="url(#Wv_KhHHvjZZWVw5tIYryca)" d="M6,40V12h36v28c0,1.1-0.9,2-2,2H8C6.9,42,6,41.1,6,40z"/><g opacity=".05"><path d="M19.035,18.177h-2.136c-0.218,0-0.433,0.073-0.605,0.204c-0.607,0.462-1.298,0.894-2.054,1.282 c-0.753,0.387-1.567,0.709-2.418,0.959c-0.423,0.124-0.719,0.519-0.719,0.959v2.974c0,0.286,0.123,0.559,0.337,0.749 c0.224,0.197,0.515,0.283,0.78,0.244c0.353-0.042,0.72-0.112,1.09-0.211c0.361-0.096,0.716-0.216,1.052-0.355 c0.05-0.021,0.101-0.042,0.151-0.063v10.651c0,0.552,0.449,1,1,1h3.522c0.551,0,1-0.448,1-1V19.177 C20.035,18.625,19.586,18.177,19.035,18.177z"/><path d="M29.714,18.266c-2.294,0-4.079,0.878-5.305,2.608c-1.15,1.622-1.733,3.955-1.733,6.935c0,7.472,3.657,9.04,6.725,9.04 c2.237,0,3.985-0.872,5.195-2.593c1.134-1.611,1.709-3.904,1.709-6.815C36.305,19.857,32.721,18.266,29.714,18.266z M29.513,32.143c-0.77,0-1.248-1.694-1.248-4.423c0-2.936,0.495-4.759,1.292-4.759c0.571,0,1.147,1.42,1.147,4.591 C30.705,30.937,30.089,32.143,29.513,32.143z"/></g><g opacity=".07"><path d="M19.035,18.677h-2.136c-0.109,0-0.216,0.036-0.303,0.103c-0.632,0.48-1.348,0.927-2.128,1.328 c-0.779,0.4-1.623,0.735-2.506,0.994c-0.213,0.063-0.359,0.258-0.359,0.479v2.974c0,0.143,0.061,0.279,0.168,0.374 c0.106,0.094,0.247,0.145,0.391,0.122c0.335-0.039,0.679-0.106,1.02-0.197c0.338-0.09,0.672-0.202,0.99-0.334 c0.296-0.122,0.579-0.259,0.842-0.407v11.457c0,0.276,0.224,0.5,0.5,0.5h3.522c0.276,0,0.5-0.224,0.5-0.5V19.177 C19.535,18.9,19.312,18.677,19.035,18.677z"/><path d="M29.714,18.766c-2.123,0-3.771,0.807-4.897,2.397c-1.089,1.536-1.641,3.772-1.641,6.646c0,5.667,2.094,8.54,6.225,8.54 c2.064,0,3.675-0.801,4.787-2.381c1.074-1.525,1.618-3.722,1.618-6.527C35.805,21.685,33.756,18.766,29.714,18.766z M29.558,22.461c1.433,0,1.647,3.189,1.647,5.091c0,2.322-0.293,5.091-1.692,5.091c-1.444,0-1.748-2.677-1.748-4.923 C27.765,25.32,28.076,22.461,29.558,22.461z"/></g><linearGradient id="Wv_KhHHvjZZWVw5tIYrycb" x1="6.42" x2="41.198" y1="-298.498" y2="-305.57" gradientTransform="matrix(1 0 0 -1 0 -291.89)" gradientUnits="userSpaceOnUse"><stop offset="0" stop-color="#0077d2"/><stop offset="1" stop-color="#0b59a2"/></linearGradient><path fill="url(#Wv_KhHHvjZZWVw5tIYrycb)" d="M42,8v6H6V8c0-1.1,0.9-2,2-2h32C41.1,6,42,6.9,42,8z"/><path d="M35.5,12.5L35.5,12.5c-1.657,0-3-1.343-3-3V6h6v3.5 C38.5,11.157,37.157,12.5,35.5,12.5z" opacity=".05"/><path d="M35.5,11.75L35.5,11.75c-1.243,0-2.25-1.007-2.25-2.25V6h4.5v3.5 C37.75,10.743,36.743,11.75,35.5,11.75z" opacity=".07"/><path d="M12.5,12.5L12.5,12.5c-1.657,0-3-1.343-3-3V6h6v3.5 C15.5,11.157,14.157,12.5,12.5,12.5z" opacity=".05"/><path d="M12.5,11.75L12.5,11.75c-1.243,0-2.25-1.007-2.25-2.25V6h4.5v3.5 C14.75,10.743,13.743,11.75,12.5,11.75z" opacity=".07"/><path fill="#3ccbf4" d="M12.5,11L12.5,11c-0.828,0-1.5-0.672-1.5-1.5v-4C11,4.672,11.672,4,12.5,4l0,0 C13.328,4,14,4.672,14,5.5v4C14,10.328,13.328,11,12.5,11z"/><path fill="#3ccbf4" d="M35.5,11L35.5,11c-0.828,0-1.5-0.672-1.5-1.5v-4C34,4.672,34.672,4,35.5,4l0,0 C36.328,4,37,4.672,37,5.5v4C37,10.328,36.328,11,35.5,11z"/><path fill="#fff" d="M19.035,19.177v16.393h-3.522V23.157c-0.194,0.172-0.423,0.334-0.688,0.486 c-0.265,0.153-0.546,0.291-0.844,0.414c-0.298,0.123-0.607,0.228-0.928,0.313c-0.321,0.086-0.638,0.147-0.951,0.185v-2.974 c0.917-0.269,1.782-0.611,2.594-1.029c0.813-0.417,1.547-0.876,2.203-1.375H19.035z"/><path fill="#fff" d="M29.401,35.849c-3.817,0-5.725-2.68-5.725-8.04c0-2.78,0.516-4.899,1.549-6.356 c1.032-1.457,2.529-2.187,4.49-2.187c3.727,0,5.591,2.725,5.591,8.175c0,2.713-0.509,4.793-1.526,6.239 S31.302,35.849,29.401,35.849z M29.558,21.961c-1.528,0-2.292,1.92-2.292,5.759c0,3.615,0.75,5.423,2.248,5.423 c1.461,0,2.192-1.863,2.192-5.591S30.989,21.961,29.558,21.961z"/></svg>