<svg xmlns="http://www.w3.org/2000/svg" xmlns:xlink="http://www.w3.org/1999/xlink" data-name="Слой 1" viewBox="0 0 48 48"><defs><linearGradient id="ESt1axE26Wbw5Mz5poEAja" x1="16.24" x2="31.385" y1="6.217" y2="47.828" data-name="Безымянный градиент 6" gradientUnits="userSpaceOnUse"><stop offset="0" stop-color="#f44f5a"/><stop offset=".443" stop-color="#ee3d4a"/><stop offset="1" stop-color="#e52030"/></linearGradient><linearGradient id="ESt1axE26Wbw5Mz5poEAjb" x1="10.994" x2="37" y1="316" y2="316" data-name="Безымянный градиент 4" gradientTransform="matrix(1 0 0 -1 0 340)" gradientUnits="userSpaceOnUse"><stop offset="0" stop-color="#42a3f2"/><stop offset="1" stop-color="#42a4eb"/></linearGradient><linearGradient id="ESt1axE26Wbw5Mz5poEAjc" x1="10.994" x2="37" y1="324" y2="324" data-name="Безымянный градиент 3" gradientTransform="matrix(1 0 0 -1 0 340)" gradientUnits="userSpaceOnUse"><stop offset="0" stop-color="#1d59b3"/><stop offset="1" stop-color="#195bbc"/></linearGradient><linearGradient id="ESt1axE26Wbw5Mz5poEAjd" x1="2.969" x2="16.619" y1="10.845" y2="48.348" xlink:href="#ESt1axE26Wbw5Mz5poEAja"/><linearGradient id="ESt1axE26Wbw5Mz5poEAje" x1="33.163" x2="47.748" y1="3.343" y2="43.415" gradientTransform="rotate(-180 40.5 23.5)" xlink:href="#ESt1axE26Wbw5Mz5poEAja"/></defs><path fill="#565b5e" d="M22.001,11a.99915.99915,0,0,1-.81494-.419l-5-7A1.00007,1.00007,0,1,1,17.814,2.419l5,7A1,1,0,0,1,22.001,11Z"/><path fill="#565b5e" d="M25.999,11a1,1,0,0,1-.813-1.581l5-7A1.00007,1.00007,0,1,1,31.814,3.58105l-5,7A.99915.99915,0,0,1,25.999,11Z"/><path fill="#bd2f2f" d="M19,9H29a2,2,0,0,1,2,2v1a0,0,0,0,1,0,0H17a0,0,0,0,1,0,0V11A2,2,0,0,1,19,9Z"/><g><path fill="#565b5e" d="M9,39h6a0,0,0,0,1,0,0v5a1,1,0,0,1-1,1H10a1,1,0,0,1-1-1V39A0,0,0,0,1,9,39Z"/><path fill="#565b5e" d="M33,39h6a0,0,0,0,1,0,0v5a1,1,0,0,1-1,1H34a1,1,0,0,1-1-1V39A0,0,0,0,1,33,39Z"/><path fill="url(#ESt1axE26Wbw5Mz5poEAja)" d="M39,15a2.97977,2.97977,0,0,0-2.70333-2.93678A67.075,67.075,0,0,0,24,11a67.35538,67.35538,0,0,0-12.29667,1.06322A2.97977,2.97977,0,0,0,9,15V40.32432A1.67611,1.67611,0,0,0,10.66667,42H37.33333A1.67611,1.67611,0,0,0,39,40.32432Z"/><path fill="#bd2f2f" d="M16.9875,35l1.311,2.9944A1.75847,1.75847,0,0,0,19.92487,39h8.13776A1.75847,1.75847,0,0,0,29.689,37.9944L31,35Z"/><circle cx="12.994" cy="36" r="2" fill="#fff"/><circle cx="35" cy="36" r="2" fill="#fff"/><path fill="url(#ESt1axE26Wbw5Mz5poEAjb)" d="M37,17H10.99375V30.14286A.86236.86236,0,0,0,11.86062,31h24.2725A.86237.86237,0,0,0,37,30.14286Z"/><path fill="url(#ESt1axE26Wbw5Mz5poEAjc)" d="M37,14.57167a.83956.83956,0,0,0-.73511-.82417A90.178,90.178,0,0,0,23.99687,13a90.17791,90.17791,0,0,0-12.268.7475.83956.83956,0,0,0-.73511.82417V19H37Z"/><path fill="url(#ESt1axE26Wbw5Mz5poEAjd)" d="M8,21H9a0,0,0,0,1,0,0v3a2,2,0,0,1-2,2H6.5a.5.5,0,0,1-.5-.5V23A2,2,0,0,1,8,21Z"/><path fill="url(#ESt1axE26Wbw5Mz5poEAje)" d="M39.5,21H40a2,2,0,0,1,2,2v3a0,0,0,0,1,0,0H41a2,2,0,0,1-2-2V21.5a.5.5,0,0,1,.5-.5Z" transform="rotate(180 40.5 23.5)"/><circle cx="15" cy="16" r="1" fill="#e3a600"/><circle cx="19" cy="16" r="1" fill="#e3a600"/><circle cx="25" cy="16" r="1" fill="#e3a600"/><rect width="6" height="2" x="19" y="15" fill="#e3a600"/></g></svg>