<svg xmlns="http://www.w3.org/2000/svg" viewBox="0 0 48 48"><path fill="#b63016" d="M9,6h30c2.209,0,4,1.791,4,4v11H5V10C5,7.791,6.791,6,9,6z"/><path fill="#751b0b" d="M9,8h30c1.105,0,2,0.895,2,2v11H7V10C7,8.895,7.895,8,9,8z"/><path fill="#edbe00" d="M37.86,18.14C37.488,16.905,36.356,16,35,16c-0.395,0-0.77,0.081-1.116,0.22 C33.539,14.944,32.385,14,31,14c-0.537,0-1.034,0.153-1.47,0.4C28.998,13.561,28.067,13,27,13c-0.395,0-0.77,0.081-1.116,0.22 C25.539,11.944,24.385,11,23,11s-2.539,0.944-2.884,2.22C19.77,13.081,19.395,13,19,13c-0.928,0-1.747,0.43-2.297,1.092 C16.477,14.037,16.243,14,16,14c-1.356,0-2.488,0.905-2.86,2.14c-0.92,0.277-1.648,0.975-1.962,1.878 C11.118,18.014,11.061,18,11,18c-1.657,0-3,1.343-3,3s1.343,3,3,3c1.311,0,2.414-0.846,2.822-2.018C13.882,21.986,13.939,22,14,22 c1.356,0,2.488-0.905,2.86-2.14c0.571-0.172,1.065-0.504,1.437-0.951C18.523,18.963,18.757,19,19,19 c1.385,0,2.539-0.944,2.884-2.22C22.23,16.919,22.605,17,23,17s0.77-0.081,1.116-0.22C24.461,18.056,25.615,19,27,19 c0.537,0,1.034-0.153,1.47-0.4C29.002,19.439,29.933,20,31,20c0.395,0,0.77-0.081,1.116-0.22c0.27,0.999,1.037,1.782,2.025,2.079 C34.512,23.095,35.644,24,37,24c1.657,0,3-1.343,3-3C40,19.644,39.095,18.512,37.86,18.14z"/><rect width="2.236" height="2.236" x="15.382" y="16.382" fill="#d9414f" transform="rotate(-63.435 16.5 17.5)"/><rect width="1.491" height="1.491" x="22.255" y="13.255" fill="#088242" transform="rotate(-63.435 23 14)"/><path fill="#fad500" d="M35,18c-0.537,0-1.034,0.153-1.47,0.4C32.998,17.561,32.067,17,31,17c-0.772,0-1.468,0.3-2,0.779 C28.468,17.3,27.772,17,27,17c-0.243,0-0.477,0.037-0.703,0.092C25.747,16.43,24.928,16,24,16s-1.747,0.43-2.297,1.092 C21.477,17.037,21.243,17,21,17c-1.067,0-1.998,0.561-2.53,1.4C18.034,18.153,17.537,18,17,18c-0.549,0-1.057,0.158-1.5,0.416 C15.057,18.158,14.549,18,14,18c-1.657,0-3,1.343-3,3s1.343,3,3,3c0.549,0,1.057-0.158,1.5-0.416C15.943,23.842,16.451,24,17,24 c1.067,0,1.998-0.561,2.53-1.4C19.966,22.847,20.463,23,21,23c0.928,0,1.747-0.43,2.297-1.092C23.523,21.963,23.757,22,24,22 s0.477-0.037,0.703-0.092C25.253,22.57,26.072,23,27,23c0.772,0,1.468-0.3,2-0.779C29.532,22.7,30.228,23,31,23 c0.537,0,1.034-0.153,1.47-0.4C33.002,23.439,33.933,24,35,24c1.657,0,3-1.343,3-3S36.657,18,35,18z"/><path fill="#751b0b" d="M11,37H5v5c0,0.552,0.448,1,1,1h4c0.552,0,1-0.448,1-1V37z"/><path fill="#751b0b" d="M43,37h-6v5c0,0.552,0.448,1,1,1h4c0.552,0,1-0.448,1-1V37z"/><rect width="38" height="5" x="5" y="21" fill="#d35230"/><rect width="38" height="5" x="5" y="26" fill="#bd4627"/><rect width="38" height="5" x="5" y="31" fill="#d35230"/><path fill="#bd4627" d="M41,41H7c-1.105,0-2-0.895-2-2v-3h38v3C43,40.105,42.105,41,41,41z"/><path fill="#ff8f6b" d="M21,21v4c0,1.657,1.343,3,3,3s3-1.343,3-3v-4H21z"/><circle cx="24" cy="25" r="1" fill="#751b0b"/><linearGradient id="EZhM9lD880uIrvTLLNNS1a" x1="32.084" x2="35.084" y1="18.5" y2="18.5" gradientUnits="userSpaceOnUse"><stop offset="0" stop-color="#3079d6"/><stop offset="1" stop-color="#297cd2"/></linearGradient><polygon fill="url(#EZhM9lD880uIrvTLLNNS1a)" points="34.084,17 32.084,18 33.084,20 35.084,19"/><rect width="2.236" height="2.236" x="25.382" y="16.382" fill="#d9414f" transform="rotate(-63.435 26.5 17.5)"/></svg>