<svg xmlns="http://www.w3.org/2000/svg" viewBox="0 0 48 48"><linearGradient id="EqBzGZ~Jc3YG8Pc4FcRNRa" x1="24" x2="24" y1="565.541" y2="525.009" gradientTransform="matrix(1 0 0 -1 0 572)" gradientUnits="userSpaceOnUse"><stop offset="0" stop-color="#2aa4f4"/><stop offset="1" stop-color="#007ad9"/></linearGradient><path fill="url(#EqBzGZ~Jc3YG8Pc4FcRNRa)" d="M35,42H13c-3.866,0-7-3.134-7-7V13c0-3.866,3.134-7,7-7h22c3.866,0,7,3.134,7,7v22	C42,38.866,38.866,42,35,42z"/><radialGradient id="EqBzGZ~Jc3YG8Pc4FcRNRb" cx="24" cy="548" r="16" gradientTransform="matrix(1 0 0 -1 0 572)" gradientUnits="userSpaceOnUse"><stop offset=".671"/><stop offset="1" stop-opacity="0"/></radialGradient><circle cx="24" cy="24" r="16" fill="url(#EqBzGZ~Jc3YG8Pc4FcRNRb)" opacity=".15"/><circle cx="24" cy="24" r="14" fill="#fff"/><linearGradient id="EqBzGZ~Jc3YG8Pc4FcRNRc" x1="37" x2="11" y1="24" y2="24" gradientUnits="userSpaceOnUse"><stop offset="0" stop-color="#2aa4f4"/><stop offset="1" stop-color="#007ad9"/></linearGradient><polygon fill="url(#EqBzGZ~Jc3YG8Pc4FcRNRc)" points="37,24 28,19 29,22 19,22 20,19 11,24 20,29 19,26 29,26 28,29"/></svg>