<svg xmlns="http://www.w3.org/2000/svg" viewBox="0 0 48 48"><linearGradient id="ae6muuhxi2BnJ4tmKpRKVa" x1="12.864" x2="32.072" y1="516.799" y2="489.014" gradientTransform="matrix(1 0 0 -1 0 526)" gradientUnits="userSpaceOnUse"><stop offset="0" stop-color="#7dd8f3"/><stop offset="1" stop-color="#45b0d0"/></linearGradient><path fill="url(#ae6muuhxi2BnJ4tmKpRKVa)" d="M4,38V12h40v26c0,1.1-0.9,2-2,2H6C4.9,40,4,39.1,4,38z"/><path fill="#0d86ad" d="M38.5,25h-23c-0.276,0-0.5-0.224-0.5-0.5v-1c0-0.276,0.224-0.5,0.5-0.5h23 c0.276,0,0.5,0.224,0.5,0.5v1C39,24.776,38.776,25,38.5,25z"/><path fill="#0d86ad" d="M38.5,30h-23c-0.276,0-0.5-0.224-0.5-0.5v-1c0-0.276,0.224-0.5,0.5-0.5h23 c0.276,0,0.5,0.224,0.5,0.5v1C39,29.776,38.776,30,38.5,30z"/><path fill="#0d86ad" d="M38.5,35h-23c-0.276,0-0.5-0.224-0.5-0.5v-1c0-0.276,0.224-0.5,0.5-0.5h23 c0.276,0,0.5,0.224,0.5,0.5v1C39,34.776,38.776,35,38.5,35z"/><linearGradient id="ae6muuhxi2BnJ4tmKpRKVb" x1="4.808" x2="42.75" y1="519.22" y2="511.505" gradientTransform="matrix(1 0 0 -1 0 526)" gradientUnits="userSpaceOnUse"><stop offset="0" stop-color="#0077d2"/><stop offset="1" stop-color="#0b59a2"/></linearGradient><path fill="url(#ae6muuhxi2BnJ4tmKpRKVb)" d="M44,10v3H4v-3c0-1.1,0.9-2,2-2h36C43.1,8,44,8.9,44,10z"/><path fill="#0d86ad" d="M9.5,25h1c0.276,0,0.5-0.224,0.5-0.5v-1c0-0.276-0.224-0.5-0.5-0.5h-1C9.224,23,9,23.224,9,23.5v1 C9,24.776,9.224,25,9.5,25z"/><path fill="#0d86ad" d="M9.5,30h1c0.276,0,0.5-0.224,0.5-0.5v-1c0-0.276-0.224-0.5-0.5-0.5h-1C9.224,28,9,28.224,9,28.5v1 C9,29.776,9.224,30,9.5,30z"/><path fill="#0d86ad" d="M9.5,35h1c0.276,0,0.5-0.224,0.5-0.5v-1c0-0.276-0.224-0.5-0.5-0.5h-1C9.224,33,9,33.224,9,33.5v1 C9,34.776,9.224,35,9.5,35z"/><path fill="#0d86ad" d="M38.5,20h-29C9.224,20,9,19.776,9,19.5v-2C9,17.224,9.224,17,9.5,17h29c0.276,0,0.5,0.224,0.5,0.5v2 C39,19.776,38.776,20,38.5,20z"/></svg>