<svg xmlns="http://www.w3.org/2000/svg" viewBox="0 0 48 48"><linearGradient id="bNXZuCxTPbCGedyCVJtsKa" x1="31.064" x2="51.021" y1="5.494" y2="44.533" gradientUnits="userSpaceOnUse"><stop offset="0" stop-color="#2aa4f4"/><stop offset="1" stop-color="#007ad9"/></linearGradient><path fill="url(#bNXZuCxTPbCGedyCVJtsKa)" d="M41,21c1.105,0,2-0.895,2-2V7c0-1.105-0.895-2-2-2H29c-1.105,0-2,0.895-2,2v3h-3v4h3v5 c0,1.105,0.895,2,2,2h6v4h4v-4H41z M31,17V9h8v8H31z"/><linearGradient id="bNXZuCxTPbCGedyCVJtsKb" x1="35.949" x2="40.706" y1="34.943" y2="44.249" gradientUnits="userSpaceOnUse"><stop offset="0" stop-color="#2aa4f4"/><stop offset="1" stop-color="#007ad9"/></linearGradient><rect width="4" height="4" x="35" y="35" fill="url(#bNXZuCxTPbCGedyCVJtsKb)"/><linearGradient id="bNXZuCxTPbCGedyCVJtsKc" x1="39.949" x2="44.706" y1="30.943" y2="40.249" gradientUnits="userSpaceOnUse"><stop offset="0" stop-color="#2aa4f4"/><stop offset="1" stop-color="#007ad9"/></linearGradient><rect width="4" height="4" x="39" y="31" fill="url(#bNXZuCxTPbCGedyCVJtsKc)"/><linearGradient id="bNXZuCxTPbCGedyCVJtsKd" x1="39.926" x2="44.073" y1="38.9" y2="47.011" gradientUnits="userSpaceOnUse"><stop offset="0" stop-color="#2aa4f4"/><stop offset="1" stop-color="#007ad9"/></linearGradient><path fill="url(#bNXZuCxTPbCGedyCVJtsKd)" d="M41,43c1.105,0,2-0.895,2-2v-2h-4v4H41z"/><linearGradient id="bNXZuCxTPbCGedyCVJtsKe" x1="31.949" x2="36.706" y1="30.943" y2="40.249" gradientUnits="userSpaceOnUse"><stop offset="0" stop-color="#2aa4f4"/><stop offset="1" stop-color="#007ad9"/></linearGradient><rect width="4" height="4" x="31" y="31" fill="url(#bNXZuCxTPbCGedyCVJtsKe)"/><linearGradient id="bNXZuCxTPbCGedyCVJtsKf" x1="31.949" x2="36.706" y1="38.943" y2="48.249" gradientUnits="userSpaceOnUse"><stop offset="0" stop-color="#2aa4f4"/><stop offset="1" stop-color="#007ad9"/></linearGradient><rect width="4" height="4" x="31" y="39" fill="url(#bNXZuCxTPbCGedyCVJtsKf)"/><linearGradient id="bNXZuCxTPbCGedyCVJtsKg" x1="11.949" x2="16.706" y1="32.943" y2="42.249" gradientUnits="userSpaceOnUse"><stop offset="0" stop-color="#2aa4f4"/><stop offset="1" stop-color="#007ad9"/></linearGradient><rect width="4" height="4" x="11" y="33" fill="url(#bNXZuCxTPbCGedyCVJtsKg)"/><linearGradient id="bNXZuCxTPbCGedyCVJtsKh" x1="11.949" x2="16.706" y1="10.943" y2="20.249" gradientUnits="userSpaceOnUse"><stop offset="0" stop-color="#2aa4f4"/><stop offset="1" stop-color="#007ad9"/></linearGradient><rect width="4" height="4" x="11" y="11" fill="url(#bNXZuCxTPbCGedyCVJtsKh)"/><linearGradient id="bNXZuCxTPbCGedyCVJtsKi" x1="33.949" x2="38.706" y1="10.943" y2="20.249" gradientUnits="userSpaceOnUse"><stop offset="0" stop-color="#2aa4f4"/><stop offset="1" stop-color="#007ad9"/></linearGradient><rect width="4" height="4" x="33" y="11" fill="url(#bNXZuCxTPbCGedyCVJtsKi)"/><linearGradient id="bNXZuCxTPbCGedyCVJtsKj" x1="39.949" x2="44.706" y1="24.943" y2="34.249" gradientUnits="userSpaceOnUse"><stop offset="0" stop-color="#2aa4f4"/><stop offset="1" stop-color="#007ad9"/></linearGradient><rect width="4" height="4" x="39" y="25" fill="url(#bNXZuCxTPbCGedyCVJtsKj)"/><linearGradient id="bNXZuCxTPbCGedyCVJtsKk" x1="15.076" x2="34.14" y1="23.609" y2="60.902" gradientUnits="userSpaceOnUse"><stop offset="0" stop-color="#2aa4f4"/><stop offset="1" stop-color="#007ad9"/></linearGradient><path fill="url(#bNXZuCxTPbCGedyCVJtsKk)" d="M27,25v-4h-6v4h-4v2h-4v-2H9v2H7c-1.105,0-2,0.895-2,2v12c0,1.105,0.895,2,2,2h12 c1.105,0,2-0.895,2-2v-4h4v2h4V29h2h4v-4h-4H27z M17,39H9v-8h8V39z M25,33h-4v-4h2h2V33z"/><linearGradient id="bNXZuCxTPbCGedyCVJtsKl" x1="9.143" x2="29.099" y1="5.454" y2="44.493" gradientUnits="userSpaceOnUse"><stop offset="0" stop-color="#2aa4f4"/><stop offset="1" stop-color="#007ad9"/></linearGradient><path fill="url(#bNXZuCxTPbCGedyCVJtsKl)" d="M17,21h2c1.105,0,2-0.895,2-2v-1h3v-4h-3V7c0-1.105-0.895-2-2-2H7C5.895,5,5,5.895,5,7v12 c0,1.105,0.895,2,2,2h6v4h4V21z M9,17V9h8v8H9z"/></svg>