<svg xmlns="http://www.w3.org/2000/svg" viewBox="0 0 48 48"><linearGradient id="gAXdK7ZEj5NLqF8ILhbMRa" x1="15.447" x2="35.35" y1="46.757" y2="9.324" gradientTransform="matrix(1 0 0 -1 0 47.89)" gradientUnits="userSpaceOnUse"><stop offset="0" stop-color="#32bdef"/><stop offset="1" stop-color="#1ea2e4"/></linearGradient><path fill="url(#gAXdK7ZEj5NLqF8ILhbMRa)" d="M40,13v5c0,0.55-0.45,1-1,1H14l-1,1h-3l-2.39-1l-1.99-1.99c-0.83-0.82-0.83-2.2,0-3.02	l6.71-6.7C12.96,6.66,14,7.13,14,8.04V12h25C39.55,12,40,12.45,40,13z"/><linearGradient id="gAXdK7ZEj5NLqF8ILhbMRb" x1="11.901" x2="31.804" y1="834.865" y2="797.432" gradientTransform="translate(0 -778.89)" gradientUnits="userSpaceOnUse"><stop offset="0" stop-color="#32bdef"/><stop offset="1" stop-color="#1ea2e4"/></linearGradient><path fill="url(#gAXdK7ZEj5NLqF8ILhbMRb)" d="M42.38,29.99l-6.71-6.7C35.04,22.66,34,23.13,34,24.04V28H9c-0.55,0-1,0.45-1,1v5	c0,0.55,0.45,1,1,1h25l1,1h3l2.39-1l1.99-1.99C43.21,32.19,43.21,30.81,42.38,29.99z"/><linearGradient id="gAXdK7ZEj5NLqF8ILhbMRc" x1="10.805" x2="10.805" y1="24.003" y2="29.566" gradientTransform="matrix(1 0 0 -1 0 47.89)" gradientUnits="userSpaceOnUse"><stop offset=".365" stop-color="#199ae0"/><stop offset=".553" stop-color="#1898de"/><stop offset=".709" stop-color="#1691d8"/><stop offset=".835" stop-color="#1186cc"/><stop offset=".974" stop-color="#0a75bc"/><stop offset="1" stop-color="#076cb3"/></linearGradient><path fill="url(#gAXdK7ZEj5NLqF8ILhbMRc)" d="M14,19v3.96c0,0.91-1.04,1.38-1.67,0.75L7.61,19H14z"/><linearGradient id="gAXdK7ZEj5NLqF8ILhbMRd" x1="-511.585" x2="-511.585" y1="16.004" y2="21.568" gradientTransform="rotate(180 -237.195 27.946)" gradientUnits="userSpaceOnUse"><stop offset=".365" stop-color="#199ae0"/><stop offset=".553" stop-color="#1898de"/><stop offset=".709" stop-color="#1691d8"/><stop offset=".835" stop-color="#1186cc"/><stop offset=".974" stop-color="#0a75bc"/><stop offset="1" stop-color="#076cb3"/></linearGradient><path fill="url(#gAXdK7ZEj5NLqF8ILhbMRd)" d="M34,35v3.96c0,0.91,1.04,1.38,1.67,0.75L40.39,35H34z"/></svg>