<svg xmlns="http://www.w3.org/2000/svg" viewBox="0 0 48 48"><path fill="#50e6ff" d="M41,8H7c-1.105,0-2,0.895-2,2v28c0,1.105,0.895,2,2,2h34c1.105,0,2-0.895,2-2V10	C43,8.895,42.105,8,41,8z"/><path fill="#057093" d="M21,19h-7c-0.552,0-1,0.448-1,1l0,0c0,0.552,0.448,1,1,1h7c0.552,0,1-0.448,1-1l0,0	C22,19.448,21.552,19,21,19z"/><path fill="#057093" d="M21,15h-7c-0.552,0-1,0.448-1,1l0,0c0,0.552,0.448,1,1,1h7c0.552,0,1-0.448,1-1l0,0	C22,15.448,21.552,15,21,15z"/><circle cx="10" cy="16" r="1" fill="#057093"/><circle cx="10" cy="20" r="1" fill="#057093"/><path fill="#057093" d="M21,23h-7c-0.552,0-1,0.448-1,1l0,0c0,0.552,0.448,1,1,1h7c0.552,0,1-0.448,1-1l0,0	C22,23.448,21.552,23,21,23z"/><circle cx="10" cy="24" r="1" fill="#057093"/><path fill="#057093" d="M21,27h-7c-0.552,0-1,0.448-1,1l0,0c0,0.552,0.448,1,1,1h7c0.552,0,1-0.448,1-1l0,0	C22,27.448,21.552,27,21,27z"/><circle cx="10" cy="28" r="1" fill="#057093"/><path fill="#057093" d="M21,31h-7c-0.552,0-1,0.448-1,1l0,0c0,0.552,0.448,1,1,1h7c0.552,0,1-0.448,1-1l0,0	C22,31.448,21.552,31,21,31z"/><circle cx="10" cy="32" r="1" fill="#057093"/><path fill="#057093" d="M38,19h-7c-0.552,0-1,0.448-1,1l0,0c0,0.552,0.448,1,1,1h7c0.552,0,1-0.448,1-1l0,0	C39,19.448,38.552,19,38,19z"/><path fill="#057093" d="M38,15h-7c-0.552,0-1,0.448-1,1l0,0c0,0.552,0.448,1,1,1h7c0.552,0,1-0.448,1-1l0,0	C39,15.448,38.552,15,38,15z"/><circle cx="27" cy="16" r="1" fill="#057093"/><circle cx="27" cy="20" r="1" fill="#057093"/><path fill="#057093" d="M38,23h-7c-0.552,0-1,0.448-1,1l0,0c0,0.552,0.448,1,1,1h7c0.552,0,1-0.448,1-1l0,0	C39,23.448,38.552,23,38,23z"/><circle cx="27" cy="24" r="1" fill="#057093"/><path fill="#057093" d="M38,27h-7c-0.552,0-1,0.448-1,1l0,0c0,0.552,0.448,1,1,1h7c0.552,0,1-0.448,1-1l0,0	C39,27.448,38.552,27,38,27z"/><circle cx="27" cy="28" r="1" fill="#057093"/><path fill="#057093" d="M38,31h-7c-0.552,0-1,0.448-1,1l0,0c0,0.552,0.448,1,1,1h7c0.552,0,1-0.448,1-1l0,0	C39,31.448,38.552,31,38,31z"/><circle cx="27" cy="32" r="1" fill="#057093"/></svg>