<svg xmlns="http://www.w3.org/2000/svg" viewBox="0 0 48 48"><linearGradient id="7ObS7cZIHphYoFW5Z_swga" x1="17.952" x2="36.371" y1="40.249" y2="5.608" gradientTransform="matrix(1 0 0 -1 0 48)" gradientUnits="userSpaceOnUse"><stop offset="0" stop-color="#f44f5a"/><stop offset=".443" stop-color="#ee3d4a"/><stop offset="1" stop-color="#e52030"/></linearGradient><path fill="url(#7ObS7cZIHphYoFW5Z_swga)" d="M46.012,37H10.46c-0.585,0-1.141-0.256-1.521-0.701L0.2,25.116	c-0.283-0.362-0.283-0.87,0-1.231l8.738-11.183C9.319,12.256,9.874,12,10.46,12h35.552c1.105,0,2,0.895,2,2v21	C48.012,36.105,47.116,37,46.012,37z"/><linearGradient id="7ObS7cZIHphYoFW5Z_swgb" x1="3.596" x2="45.012" y1="23.5" y2="23.5" gradientTransform="matrix(1 0 0 -1 0 48)" gradientUnits="userSpaceOnUse"><stop offset="0" stop-color="#fcfcfc"/><stop offset=".495" stop-color="#f4f4f4"/><stop offset=".869" stop-color="#e8e8e8"/><stop offset="1" stop-color="#e8e8e8"/></linearGradient><polygon fill="url(#7ObS7cZIHphYoFW5Z_swgb)" points="10.959,34 3.596,24.5 10.959,15 45.012,15 45.012,34"/><linearGradient id="7ObS7cZIHphYoFW5Z_swgc" x1="29.338" x2="31.686" y1="25.708" y2="21.292" gradientTransform="matrix(1 0 0 -1 0 48)" gradientUnits="userSpaceOnUse"><stop offset="0" stop-color="#f44f5a"/><stop offset=".443" stop-color="#ee3d4a"/><stop offset="1" stop-color="#e52030"/></linearGradient><circle cx="30.512" cy="24.5" r="2.5" fill="url(#7ObS7cZIHphYoFW5Z_swgc)"/><linearGradient id="7ObS7cZIHphYoFW5Z_swgd" x1="37.338" x2="39.686" y1="25.708" y2="21.292" gradientTransform="matrix(1 0 0 -1 0 48)" gradientUnits="userSpaceOnUse"><stop offset="0" stop-color="#f44f5a"/><stop offset=".443" stop-color="#ee3d4a"/><stop offset="1" stop-color="#e52030"/></linearGradient><circle cx="38.512" cy="24.5" r="2.5" fill="url(#7ObS7cZIHphYoFW5Z_swgd)"/><linearGradient id="7ObS7cZIHphYoFW5Z_swge" x1="21.338" x2="23.686" y1="25.708" y2="21.292" gradientTransform="matrix(1 0 0 -1 0 48)" gradientUnits="userSpaceOnUse"><stop offset="0" stop-color="#f44f5a"/><stop offset=".443" stop-color="#ee3d4a"/><stop offset="1" stop-color="#e52030"/></linearGradient><circle cx="22.512" cy="24.5" r="2.5" fill="url(#7ObS7cZIHphYoFW5Z_swge)"/><linearGradient id="7ObS7cZIHphYoFW5Z_swgf" x1="13.338" x2="15.686" y1="25.708" y2="21.292" gradientTransform="matrix(1 0 0 -1 0 48)" gradientUnits="userSpaceOnUse"><stop offset="0" stop-color="#f44f5a"/><stop offset=".443" stop-color="#ee3d4a"/><stop offset="1" stop-color="#e52030"/></linearGradient><circle cx="14.512" cy="24.5" r="2.5" fill="url(#7ObS7cZIHphYoFW5Z_swgf)"/></svg>