<svg xmlns="http://www.w3.org/2000/svg" viewBox="0 0 48 48"><linearGradient id="JuZ3nJ5gHaNQikbkc0l0Xa" x1="19.498" x2="27.745" y1="3.643" y2="42.575" gradientUnits="userSpaceOnUse"><stop offset="0" stop-color="#bb273d"/><stop offset="1" stop-color="#9f1728"/></linearGradient><path fill="url(#JuZ3nJ5gHaNQikbkc0l0Xa)" d="M39,9v30c0,2.209-1.791,4-4,4H11c-1.105,0-2-0.895-2-2V7c0-1.105,0.895-2,2-2h24	C37.209,5,39,6.791,39,9z"/><path fill="#ed6c47" d="M24,29c-4.962,0-9-4.037-9-9s4.038-9,9-9s9,4.037,9,9S28.962,29,24,29z M24,13c-3.86,0-7,3.141-7,7	s3.14,7,7,7s7-3.141,7-7S27.86,13,24,13z"/><path fill="#ed6c47" d="M24,29c-2.626,0-4-4.527-4-9s1.374-9,4-9s4,4.527,4,9S26.626,29,24,29z M24,13c-0.581,0-2,2.453-2,7	s1.419,7,2,7s2-2.453,2-7S24.581,13,24,13z"/><path fill="#ed6c47" d="M32,21H16c-0.552,0-1-0.447-1-1s0.448-1,1-1h16c0.552,0,1,0.447,1,1S32.552,21,32,21z"/><path fill="#ed6c47" d="M32,36H16c-0.552,0-1-0.447-1-1s0.448-1,1-1h16c0.552,0,1,0.447,1,1S32.552,36,32,36z"/></svg>