<svg xmlns="http://www.w3.org/2000/svg" viewBox="0 0 48 48"><linearGradient id="m4Fm3Pf1QA~2vy0N7nn1Da" x1="24.011" x2="24.011" y1="-316.358" y2="-290.217" gradientTransform="matrix(1 0 0 -1 0 -287.78)" gradientUnits="userSpaceOnUse"><stop offset="0" stop-color="#737b80"/><stop offset=".473" stop-color="#686f74"/><stop offset="1" stop-color="#575c61"/></linearGradient><path fill="url(#m4Fm3Pf1QA~2vy0N7nn1Da)" d="M41.829,31.015L39.401,9.551C39.173,7.528,37.462,6,35.427,6H12.576	c-2.037,0-3.748,1.53-3.975,3.554l-2.408,21.46L24,31L41.829,31.015z"/><linearGradient id="m4Fm3Pf1QA~2vy0N7nn1Db" x1="-1466" x2="-1466" y1="-317.224" y2="-334.524" gradientTransform="rotate(180 -721 -143.89)" gradientUnits="userSpaceOnUse"><stop offset="0" stop-color="#899198"/><stop offset="1" stop-color="#787e85"/></linearGradient><path fill="url(#m4Fm3Pf1QA~2vy0N7nn1Db)" d="M9,42h30c1.65,0,3-1.35,3-3v-7c0-1.65-1.35-3-3-3H9c-1.65,0-3,1.35-3,3v7	C6,40.65,7.35,42,9,42z"/><linearGradient id="m4Fm3Pf1QA~2vy0N7nn1Dc" x1="37.773" x2="34.17" y1="-325.053" y2="-321.45" gradientTransform="matrix(1 0 0 -1 0 -287.78)" gradientUnits="userSpaceOnUse"><stop offset="0" stop-color="#fff"/><stop offset=".242" stop-color="#f2f2f2"/><stop offset="1" stop-color="#ccc"/></linearGradient><path fill="url(#m4Fm3Pf1QA~2vy0N7nn1Dc)" d="M38.5,35.5c0,1.38-1.12,2.5-2.5,2.5s-2.5-1.12-2.5-2.5S34.62,33,36,33S38.5,34.12,38.5,35.5z"/><linearGradient id="m4Fm3Pf1QA~2vy0N7nn1Dd" x1="34.94" x2="37.06" y1="-322.219" y2="-324.341" gradientTransform="matrix(1 0 0 -1 0 -287.78)" gradientUnits="userSpaceOnUse"><stop offset="0" stop-color="#21ad64"/><stop offset="1" stop-color="#088242"/></linearGradient><path fill="url(#m4Fm3Pf1QA~2vy0N7nn1Dd)" d="M37.5,35.5c0,0.828-0.672,1.5-1.5,1.5s-1.5-0.672-1.5-1.5S35.172,34,36,34	S37.5,34.672,37.5,35.5z"/><path d="M30.066,26.48l-12.673-1.73C16.583,24.626,16,23.903,16,23.03l0-9.025	c-0.001-0.871,0.579-1.594,1.38-1.719l12.647-1.784c0.082-0.011,0.161-0.016,0.239-0.016c0.957,0,1.734,0.779,1.734,1.736v12.535	c0,0.466-0.182,0.904-0.513,1.232c-0.328,0.325-0.761,0.504-1.221,0.504L30.066,26.48z" opacity=".05"/><path d="M31.5,12.222c0-0.682-0.554-1.236-1.234-1.236c-0.056,0-0.112,0.003-0.169,0.011l-12.64,1.783	c-0.556,0.087-0.958,0.603-0.957,1.225l0,9.025c0,0.624,0.404,1.139,0.96,1.224L30.1,25.981l0.166,0.011	c0.327,0,0.636-0.127,0.869-0.359C31.37,25.4,31.5,25.089,31.5,24.757V12.222z" opacity=".07"/><path fill="#737b80" d="M12,34h18c0.552,0,1,0.448,1,1v1c0,0.552-0.448,1-1,1H12c-0.552,0-1-0.448-1-1v-1	C11,34.448,11.448,34,12,34z"/><path fill="#fff" d="M22,19l-5-0.01l0,4.04c0,0.37,0.23,0.683,0.536,0.73L22,24.441V19z"/><path fill="#fff" d="M23,18.987v5.542l7.167,0.957C30.608,25.545,31,25.202,31,24.757L31.002,19L23,18.987z"/><path fill="#fff" d="M22,12.576l-4.466,0.698C17.228,13.322,17,13.635,17,14.005L17.004,18H22V12.576z"/><path fill="#fff" d="M23,12.472V18h8v-5.778c0-0.446-0.393-0.789-0.835-0.729L23,12.472z"/></svg>