<svg xmlns="http://www.w3.org/2000/svg" viewBox="0 0 48 48"><linearGradient id="rqHJ3knveYAruuCkd_T8~a" x1="44.433" x2="-12.846" y1="13.053" y2="84.278" gradientUnits="userSpaceOnUse"><stop offset="0" stop-color="#002b82"/><stop offset=".186" stop-color="#003e99"/><stop offset=".575" stop-color="#0070d3"/><stop offset=".584" stop-color="#0071d4"/></linearGradient><path fill="url(#rqHJ3knveYAruuCkd_T8~a)" d="M29.855,19.482c-0.186-0.308-0.51-0.481-0.885-0.482c-0.36,0.011-0.688,0.215-0.855,0.534	l-4.905,9.603L27.132,36H2.294L2.1,36.35C1.99,36.56,1.96,36.79,2,37c0.03,0.2,0.13,0.38,0.27,0.52l6.19,6.19	C8.65,43.9,8.9,44,9.16,44h33.59c0.23,0,0.45-0.08,0.62-0.22c0.16-0.12,0.28-0.29,0.34-0.5l0.08-0.738L29.855,19.482z"/><linearGradient id="rqHJ3knveYAruuCkd_T8~b" x1="21.985" x2="38.848" y1="18.7" y2="45.606" gradientUnits="userSpaceOnUse"><stop offset="0" stop-color="#007ad9"/><stop offset="1" stop-color="#2aa4f4"/></linearGradient><path fill="url(#rqHJ3knveYAruuCkd_T8~b)" d="M45.861,35.146L28.29,4.5c-0.09-0.15-0.21-0.27-0.36-0.36C27.78,4.05,27.6,4,27.42,4h-0.539	L13.873,30.017l10-0.017L29,20l14.37,23.78c0.16-0.12,0.28-0.29,0.34-0.5l2.241-7.354c0.024-0.078,0.037-0.158,0.04-0.239	C45.998,35.501,45.951,35.313,45.861,35.146z"/><linearGradient id="rqHJ3knveYAruuCkd_T8~c" x1="12.276" x2="18.198" y1="5.32" y2="38.905" gradientUnits="userSpaceOnUse"><stop offset="0" stop-color="#a3ffff"/><stop offset=".223" stop-color="#9dfbff"/><stop offset=".53" stop-color="#8bf1ff"/><stop offset=".885" stop-color="#6ee0ff"/><stop offset="1" stop-color="#63daff"/></linearGradient><path fill="url(#rqHJ3knveYAruuCkd_T8~c)" d="M29,37H2c-0.04-0.21-0.01-0.44,0.1-0.65L18.97,4.53C19.14,4.2,19.48,4,19.85,4h7.57	c0.18,0,0.36,0.05,0.51,0.14L15.492,29.017L24.4,29L29,37z"/></svg>