<svg xmlns="http://www.w3.org/2000/svg" xmlns:xlink="http://www.w3.org/1999/xlink" data-name="Слой 1" viewBox="0 0 48 48"><defs><linearGradient id="3izcHbrcJnexpjJ~BtDipb" x1="10.205" x2="10.205" y1=".199" y2="28.491" data-name="Безымянный градиент 4" gradientUnits="userSpaceOnUse"><stop offset="0" stop-color="#889097"/><stop offset="1" stop-color="#64717c"/></linearGradient><linearGradient id="3izcHbrcJnexpjJ~BtDipa" x1="40" x2="44" y1="-2002" y2="-2002" data-name="Безымянный градиент 208" gradientTransform="matrix(1 0 0 -1 0 -1980)" gradientUnits="userSpaceOnUse"><stop offset="0" stop-color="#ffcf54"/><stop offset=".261" stop-color="#fdcb4d"/><stop offset=".639" stop-color="#f7c13a"/><stop offset="1" stop-color="#f0b421"/></linearGradient><linearGradient id="3izcHbrcJnexpjJ~BtDipc" x1="33" x2="37" y1="-2006" y2="-2006" xlink:href="#3izcHbrcJnexpjJ~BtDipa"/><linearGradient id="3izcHbrcJnexpjJ~BtDipd" x1="22.697" x2="22.697" y1="5.714" y2="39.264" xlink:href="#3izcHbrcJnexpjJ~BtDipb"/><linearGradient id="3izcHbrcJnexpjJ~BtDipe" x1="19.629" x2="19.629" y1="5.717" y2="39.602" xlink:href="#3izcHbrcJnexpjJ~BtDipb"/><linearGradient id="3izcHbrcJnexpjJ~BtDipf" x1="11" x2="11" y1="4.387" y2="30.815" data-name="Безымянный градиент 11" gradientUnits="userSpaceOnUse"><stop offset="0" stop-color="#a1aab3"/><stop offset="1" stop-color="#8f979e"/></linearGradient><linearGradient id="3izcHbrcJnexpjJ~BtDipg" x1="3.208" x2="14.612" y1="18.213" y2="49.544" gradientUnits="userSpaceOnUse"><stop offset="0" stop-color="#d4943b"/><stop offset="1" stop-color="#c2620e"/></linearGradient><linearGradient id="3izcHbrcJnexpjJ~BtDiph" x1="10" x2="10" y1="20.5" y2="33.676" gradientUnits="userSpaceOnUse"><stop offset="0" stop-color="#a34f27"/><stop offset=".587" stop-color="#8b3817"/><stop offset="1" stop-color="#802d10"/></linearGradient></defs><path fill="url(#3izcHbrcJnexpjJ~BtDipb)" d="M14.77271,20.71973V18.303A11.42441,11.42441,0,0,0,3,6.884V27H15l2.40912-4.303Z"/><path fill="url(#3izcHbrcJnexpjJ~BtDipa)" d="M40,22a2,2,0,1,0,1.999-2A1.99988,1.99988,0,0,0,40,22Z"/><path fill="url(#3izcHbrcJnexpjJ~BtDipc)" d="M33,26a2,2,0,1,0,1.999-2A1.99988,1.99988,0,0,0,33,26Z"/><path fill="url(#3izcHbrcJnexpjJ~BtDipd)" d="M26.197,21.8182H20.04547L20,23.5c3.51516,0,4.5,2.5,4.5,5.25v.78053A1.93929,1.93929,0,0,1,23,31.5a1.674,1.674,0,0,1-2.07643-1.16354A.42687.42687,0,0,0,20.5,30H17.8396a.43923.43923,0,0,0-.44325.464,5.11905,5.11905,0,0,0,5.97922,4.49139A5.25254,5.25254,0,0,0,28,29.72566V22Z"/><path fill="url(#3izcHbrcJnexpjJ~BtDipe)" d="M17.4091,6h0A10.267,10.267,0,0,1,28,16.5v7.25758L20,23.5a8.68479,8.68479,0,0,1-8.74242-8.71211V12.15152A6.15152,6.15152,0,0,1,17.4091,6Z"/><circle cx="22.996" cy="15.996" r="1.004" fill="#343434"/><path fill="url(#3izcHbrcJnexpjJ~BtDipf)" d="M17,12.20863A6.03272,6.03272,0,0,0,11,6C7.6863,6,5,8.66084,5,13.98252c0,4.43474,2.76923,7.98252,7.38462,9.75642Z"/><path fill="url(#3izcHbrcJnexpjJ~BtDipg)" d="M3,28H16a0,0,0,0,1,0,0V41a2,2,0,0,1-2,2H3a0,0,0,0,1,0,0V28A0,0,0,0,1,3,28Z"/><path fill="url(#3izcHbrcJnexpjJ~BtDiph)" d="M3,25.93478H15.96739A1.03261,1.03261,0,0,1,17,26.96739v0A1.03261,1.03261,0,0,1,15.96739,28H3a0,0,0,0,1,0,0V25.93478A0,0,0,0,1,3,25.93478Z"/><path fill="#35c1f1" d="M40,33a2,2,0,1,0,1.999-2A1.99988,1.99988,0,0,0,40,33Z"/><path fill="#35c1f1" d="M40,42a1,1,0,1,0,.9995-1A.99994.99994,0,0,0,40,42Z"/><polygon fill="#35c1f1" points="42 42 40 42 40 33 43 33 42 42"/><rect width="4" height="10" x="40" y="25" fill="#35c1f1" rx="2"/><path fill="#b31523" d="M33,33a2,2,0,1,0,1.999-2A1.99988,1.99988,0,0,0,33,33Z"/><path fill="#b31523" d="M33,42a1,1,0,1,0,.9995-1A.99994.99994,0,0,0,33,42Z"/><polygon fill="#b31523" points="35 42 33 42 33 35 36 35 35 42"/><rect width="4" height="8" x="33" y="29" fill="#b31523" rx="2"/><path d="M3,25v1H15.56l.28-.5.28-.5Z" opacity=".05"/><path d="M3,25.5V26H15.56l.28-.5Z" opacity=".07"/></svg>