<svg xmlns="http://www.w3.org/2000/svg" viewBox="0 0 48 48"><linearGradient id="MQy5dugktIg_hH99xak~Fa" x1="10.719" x2="30.447" y1="22.286" y2="42.014" gradientUnits="userSpaceOnUse"><stop offset="0" stop-color="#28afea"/><stop offset="1" stop-color="#047ed6"/></linearGradient><path fill="url(#MQy5dugktIg_hH99xak~Fa)" d="M32.012,31.754c-1.482,1.482-4.616,1.662-5.547,2.583c-0.921,0.931-0.37,4.806-3.324,7.77	c-3.695,3.695-8.812,1.532-13.308-2.964c-4.486-4.486-6.649-9.613-2.954-13.308c2.954-2.954,6.839-2.403,7.76-3.324	c0.921-0.921,1.111-4.065,2.583-5.547c0.249-0.249,0.997-0.826,2.023-0.956c0.692-0.087,1.195,0.548,1.087,1.237	c-0.255,1.614,3.109,2.503,4.661,1.572c-0.461,0.771-0.671,1.552-0.671,2.273c0,0.991,0.391,1.883,1.041,2.533	c0.621,0.631,1.492,1.021,2.463,1.041c0.741,0.01,1.532-0.19,2.333-0.671c-0.923,1.545-0.038,4.913,1.582,4.656	c0.688-0.109,1.323,0.399,1.232,1.09C32.841,30.759,32.26,31.505,32.012,31.754z"/><linearGradient id="MQy5dugktIg_hH99xak~Fb" x1="14.195" x2="25.378" y1="23.441" y2="34.624" gradientUnits="userSpaceOnUse"><stop offset="0" stop-color="#f9f9f9"/><stop offset=".276" stop-color="#eff0f1"/><stop offset=".746" stop-color="#d3d8da"/><stop offset="1" stop-color="#c2c8cc"/></linearGradient><path fill="url(#MQy5dugktIg_hH99xak~Fb)" d="M26.374,26.48c-0.53,0.62-1.12,1.25-1.74,1.87c-4.06,4.06-8.25,6.46-9.36,5.36	c-1.1-1.11,1.3-5.3,5.36-9.36c0.63-0.63,1.27-1.23,1.9-1.76c0.25,0.93,0.73,1.78,1.43,2.47C24.624,25.74,25.454,26.23,26.374,26.48z"/><linearGradient id="MQy5dugktIg_hH99xak~Fc" x1="39.326" x2="26.932" y1="24.332" y2="11.938" gradientUnits="userSpaceOnUse"><stop offset=".002" stop-color="#3b3b3b"/><stop offset=".013" stop-color="#3c3c3c"/><stop offset=".875" stop-color="#585858"/><stop offset="1" stop-color="#636363"/></linearGradient><path fill="url(#MQy5dugktIg_hH99xak~Fc)" d="M39.485,6.64l-17.93,17.93c-0.29,0.29-0.68,0.44-1.06,0.44c-0.42,0-0.84-0.18-1.15-0.53 c-0.51-0.61-0.4-1.54,0.17-2.11l12.38-12.38c0.11-0.11,0.2-0.25,0.25-0.4l1.4-4.22c0.28-0.82,1.04-1.37,1.9-1.37h2.81l0,0 c0.534,0,1.06,0.1,1.43,0.57C40.165,5.18,40.045,6.08,39.485,6.64z"/><linearGradient id="MQy5dugktIg_hH99xak~Fd" x1="37.821" x2="25.427" y1="25.836" y2="13.443" gradientUnits="userSpaceOnUse"><stop offset=".002" stop-color="#3b3b3b"/><stop offset=".013" stop-color="#3c3c3c"/><stop offset=".875" stop-color="#585858"/><stop offset="1" stop-color="#636363"/></linearGradient><path fill="url(#MQy5dugktIg_hH99xak~Fd)" d="M41.438,14.642L26.546,29.534c-0.29,0.29-0.68,0.44-1.06,0.44c-0.42,0-0.84-0.18-1.15-0.53 c-0.51-0.61-0.4-1.54,0.17-2.11l9.342-9.342c0.11-0.11,0.2-0.25,0.25-0.4l1.4-4.22c0.28-0.82,1.04-1.37,1.9-1.37h2.826l0,0 c0.551,0,1.044,0.1,1.414,0.57C42.118,13.182,41.998,14.082,41.438,14.642z"/><linearGradient id="MQy5dugktIg_hH99xak~Fe" x1="26.701" x2="13.014" y1="38.717" y2="25.03" gradientUnits="userSpaceOnUse"><stop offset=".002" stop-color="#3b3b3b"/><stop offset=".013" stop-color="#3c3c3c"/><stop offset=".875" stop-color="#585858"/><stop offset="1" stop-color="#636363"/></linearGradient><path fill="url(#MQy5dugktIg_hH99xak~Fe)" d="M16.984,30c-0.256,0-0.512-0.098-0.707-0.293l-2-2c-0.391-0.391-0.391-1.023,0-1.414	s1.023-0.391,1.414,0l2,2c0.391,0.391,0.391,1.023,0,1.414C17.495,29.902,17.24,30,16.984,30z"/><linearGradient id="MQy5dugktIg_hH99xak~Ff" x1="26.701" x2="13.014" y1="38.717" y2="25.03" gradientUnits="userSpaceOnUse"><stop offset=".002" stop-color="#3b3b3b"/><stop offset=".013" stop-color="#3c3c3c"/><stop offset=".875" stop-color="#585858"/><stop offset="1" stop-color="#636363"/></linearGradient><path fill="url(#MQy5dugktIg_hH99xak~Ff)" d="M21.984,35c-0.256,0-0.512-0.098-0.707-0.293l-2-2c-0.391-0.391-0.391-1.023,0-1.414	s1.023-0.391,1.414,0l2,2c0.391,0.391,0.391,1.023,0,1.414C22.495,34.902,22.24,35,21.984,35z"/><circle cx="15.984" cy="40" r="1" fill="#fff"/><circle cx="18.984" cy="41" r="1" fill="#fff"/><circle cx="19.984" cy="38" r="1" fill="#fff"/><circle cx="16.984" cy="37" r="1" fill="#fff"/></svg>