<svg xmlns="http://www.w3.org/2000/svg" viewBox="0 0 48 48"><linearGradient id="nN_SkRF34h3iwkj0Ix91Fa" x1="22.378" x2="24.392" y1="30.466" y2="43.892" gradientUnits="userSpaceOnUse"><stop offset="0" stop-color="#33bef0"/><stop offset="1" stop-color="#0a85d9"/></linearGradient><path fill="url(#nN_SkRF34h3iwkj0Ix91Fa)" d="M24,30.571c-8.837,0-16,4.921-16,10.286V42c0,1.105,0.895,2,2,2h28c1.105,0,2-0.895,2-2	v-1.143C40,35.492,32.837,30.571,24,30.571z"/><path fill="#d6a121" d="M29,31c0,1.897-5,7-5,7s-5-5.103-5-7c0-2.637,0-7.035,0-7.035h10C29,23.965,29,28.363,29,31z"/><linearGradient id="nN_SkRF34h3iwkj0Ix91Fb" x1="32.917" x2="34.251" y1="234" y2="234" gradientTransform="matrix(1 0 0 -1 0 254)" gradientUnits="userSpaceOnUse"><stop offset="0" stop-color="#c48f0c"/><stop offset=".251" stop-color="#d19b16"/><stop offset=".619" stop-color="#dca51f"/><stop offset="1" stop-color="#e0a922"/></linearGradient><path fill="url(#nN_SkRF34h3iwkj0Ix91Fb)" d="M32.916,18h-0.527v4h0.703c0.515,0,0.954-0.312,1.041-0.74l0.344-1.703	C34.642,18.743,33.897,18,32.916,18z"/><linearGradient id="nN_SkRF34h3iwkj0Ix91Fc" x1="-953.083" x2="-951.749" y1="234" y2="234" gradientTransform="rotate(180 -469 127)" gradientUnits="userSpaceOnUse"><stop offset="0" stop-color="#c48f0c"/><stop offset=".251" stop-color="#d19b16"/><stop offset=".619" stop-color="#dca51f"/><stop offset="1" stop-color="#e0a922"/></linearGradient><path fill="url(#nN_SkRF34h3iwkj0Ix91Fc)" d="M15.084,18h0.527v4h-0.703c-0.515,0-0.954-0.312-1.041-0.74l-0.344-1.703	C13.358,18.743,14.103,18,15.084,18z"/><radialGradient id="nN_SkRF34h3iwkj0Ix91Fd" cx="46.699" cy="259.243" r="12.224" gradientTransform="matrix(.8816 0 0 -.8816 -17.17 247.249)" gradientUnits="userSpaceOnUse"><stop offset="0" stop-color="#ffcf54"/><stop offset=".261" stop-color="#fdcb4d"/><stop offset=".639" stop-color="#f7c13a"/><stop offset="1" stop-color="#f0b421"/></radialGradient><path fill="url(#nN_SkRF34h3iwkj0Ix91Fd)" d="M24,6.4c-4.441,0-9,0.675-9,10.275c0,0.768,0,5.877,0,6.698C15,26.8,20.4,31,24,31	s9-4.2,9-7.627c0-0.821,0-5.929,0-6.698C33,7.075,28.441,6.4,24,6.4z"/><radialGradient id="nN_SkRF34h3iwkj0Ix91Fe" cx="36.994" cy="272.896" r="28.915" gradientTransform="matrix(.8816 0 0 -.8816 -17.17 247.249)" gradientUnits="userSpaceOnUse"><stop offset="0" stop-color="#c26715"/><stop offset=".508" stop-color="#b85515"/><stop offset="1" stop-color="#ad3f16"/></radialGradient><path fill="url(#nN_SkRF34h3iwkj0Ix91Fe)" d="M24,5.545c-4.354,0-5,1.636-5,1.636c-1.77,0.261-5,2.854-5,5.818c0,1.654,0.265,2.876,1,7	c0.545-6.545,2.249-9,4-9c1.267,0,2.273,1,5,1c2.303,0,2.875-1,5-1c3,0,4,7.968,4,9c0.601-3.01,1-5.555,1-7	C34,9.57,30.209,5.545,24,5.545z"/><radialGradient id="nN_SkRF34h3iwkj0Ix91Ff" cx="53.388" cy="270.96" r="33.398" gradientTransform="matrix(.8431 0 0 -.8816 -22.446 247.249)" gradientUnits="userSpaceOnUse"><stop offset="0" stop-color="#c26715"/><stop offset=".508" stop-color="#b85515"/><stop offset="1" stop-color="#ad3f16"/></radialGradient><path fill="url(#nN_SkRF34h3iwkj0Ix91Ff)" d="M24.219,5c-4.164,0-5.216,2.182-5.216,2.182c-0.042,1.159,0.522,2.182,0.522,2.182	S20.285,11,24.625,11C27.245,11,31,9.365,31,5C31,5,30.157,5,24.219,5z"/><linearGradient id="nN_SkRF34h3iwkj0Ix91Fg" x1="40.5" x2="40.5" y1="215.013" y2="205.991" gradientTransform="matrix(1 0 0 -1 0 254)" gradientUnits="userSpaceOnUse"><stop offset="0" stop-color="#e5a505"/><stop offset=".01" stop-color="#e9a804"/><stop offset=".06" stop-color="#f4b102"/><stop offset=".129" stop-color="#fbb600"/><stop offset=".323" stop-color="#fdb700"/></linearGradient><path fill="url(#nN_SkRF34h3iwkj0Ix91Fg)" d="M42.5,45c0-0.408,0.198-0.766,0.5-0.994v-1.645c-0.298-0.173-0.5-0.492-0.5-0.861	c0-0.369,0.202-0.688,0.5-0.861V39h-5v7.999L39,48h2.819L43,46.999v-1.005C42.698,45.766,42.5,45.408,42.5,45z"/><linearGradient id="nN_SkRF34h3iwkj0Ix91Fh" x1="35.978" x2="44.358" y1="226.524" y2="214.341" gradientTransform="matrix(1 0 0 -1 0 254)" gradientUnits="userSpaceOnUse"><stop offset="0" stop-color="#fede00"/><stop offset="1" stop-color="#ffd000"/></linearGradient><path fill="url(#nN_SkRF34h3iwkj0Ix91Fh)" d="M47,32.5c0-3.59-2.91-6.5-6.5-6.5S34,28.91,34,32.5c0,0.169,0.013,0.334,0.026,0.5H34v4	c0,1.104,0.896,2,2,2h9c1.104,0,2-0.896,2-2v-4h-0.025C46.987,32.834,47,32.669,47,32.5z M40.5,28.5c1.104,0,2,0.896,2,2	s-0.896,2-2,2s-2-0.896-2-2S39.396,28.5,40.5,28.5z"/></svg>