<svg xmlns="http://www.w3.org/2000/svg" viewBox="0 0 48 48"><path fill="#0078d4" d="M41,17H24v23h17c1.105,0,2-0.895,2-2V19C43,17.895,42.105,17,41,17z"/><path fill="#1b9de2" d="M24,17H7c-1.105,0-2,0.895-2,2v19c0,1.105,0.895,2,2,2h17V17z"/><path fill="#1b9de2" d="M21,38c0,1.657,1.343,3,3,3v-6C22.343,35,21,36.343,21,38z"/><path fill="#0078d4" d="M27,38c0-1.657-1.343-3-3-3v6C25.657,41,27,39.657,27,38z"/><path fill="#fff" d="M24,17H8c-0.552,0-1,0.448-1,1v19c0,0.552,0.448,1,1,1h16V17z"/><path fill="#f0f0f0" d="M40,17H24v21h16c0.552,0,1-0.448,1-1V18C41,17.448,40.552,17,40,17z"/><path fill="#f0f0f0" d="M20.5,23h-10c-0.276,0-0.5-0.224-0.5-0.5v-1c0-0.276,0.224-0.5,0.5-0.5h10c0.276,0,0.5,0.224,0.5,0.5	v1C21,22.776,20.776,23,20.5,23z"/><path fill="#f0f0f0" d="M20.5,27h-10c-0.276,0-0.5-0.224-0.5-0.5v-1c0-0.276,0.224-0.5,0.5-0.5h10c0.276,0,0.5,0.224,0.5,0.5	v1C21,26.776,20.776,27,20.5,27z"/><path fill="#f0f0f0" d="M20.5,31h-10c-0.276,0-0.5-0.224-0.5-0.5v-1c0-0.276,0.224-0.5,0.5-0.5h10c0.276,0,0.5,0.224,0.5,0.5	v1C21,30.776,20.776,31,20.5,31z"/><path fill="#f0f0f0" d="M18.5,35h-8c-0.276,0-0.5-0.224-0.5-0.5v-1c0-0.276,0.224-0.5,0.5-0.5h8c0.276,0,0.5,0.224,0.5,0.5v1	C19,34.776,18.776,35,18.5,35z"/><path fill="#e0e0e0" d="M37.5,23h-10c-0.276,0-0.5-0.224-0.5-0.5v-1c0-0.276,0.224-0.5,0.5-0.5h10c0.276,0,0.5,0.224,0.5,0.5	v1C38,22.776,37.776,23,37.5,23z"/><path fill="#e0e0e0" d="M37.5,27h-10c-0.276,0-0.5-0.224-0.5-0.5v-1c0-0.276,0.224-0.5,0.5-0.5h10c0.276,0,0.5,0.224,0.5,0.5	v1C38,26.776,37.776,27,37.5,27z"/><path fill="#e0e0e0" d="M37.5,31h-10c-0.276,0-0.5-0.224-0.5-0.5v-1c0-0.276,0.224-0.5,0.5-0.5h10c0.276,0,0.5,0.224,0.5,0.5	v1C38,30.776,37.776,31,37.5,31z"/><path fill="#e0e0e0" d="M35.5,35h-8c-0.276,0-0.5-0.224-0.5-0.5v-1c0-0.276,0.224-0.5,0.5-0.5h8c0.276,0,0.5,0.224,0.5,0.5v1	C36,34.776,35.776,35,35.5,35z"/><path fill="#ff3342" d="M43.09,12.793L24,7.066L4.91,12.793c-0.264,0.079-0.543-0.071-0.623-0.335l-0.575-1.915	C3.633,10.278,3.783,9.999,4.048,9.92l19.521-5.856c0.281-0.084,0.581-0.084,0.862,0L43.952,9.92	c0.265,0.079,0.415,0.358,0.335,0.623l-0.575,1.915C43.633,12.722,43.354,12.872,43.09,12.793z"/></svg>