<svg xmlns="http://www.w3.org/2000/svg" viewBox="0 0 48 48"><linearGradient id="g5CpYa1HbIUZZ_fgjgIkaa" x1="35.779" x2="37.744" y1="123.938" y2="123.938" gradientTransform="matrix(1 0 0 -1 0 152)" gradientUnits="userSpaceOnUse"><stop offset="0" stop-color="#c48f0c"/><stop offset=".251" stop-color="#d19b16"/><stop offset=".619" stop-color="#dca51f"/><stop offset="1" stop-color="#e0a922"/></linearGradient><path fill="url(#g5CpYa1HbIUZZ_fgjgIkaa)" d="M35.777,25.125H35V31h1.037c0.758,0,1.406-0.459,1.534-1.086l0.508-2.501	C38.32,26.216,37.222,25.125,35.777,25.125z"/><linearGradient id="g5CpYa1HbIUZZ_fgjgIkab" x1="-1432.222" x2="-1430.256" y1="123.938" y2="123.938" gradientTransform="rotate(180 -710 76)" gradientUnits="userSpaceOnUse"><stop offset="0" stop-color="#c48f0c"/><stop offset=".251" stop-color="#d19b16"/><stop offset=".619" stop-color="#dca51f"/><stop offset="1" stop-color="#e0a922"/></linearGradient><path fill="url(#g5CpYa1HbIUZZ_fgjgIkab)" d="M12.223,25.125H13V31h-1.037	c-0.758,0-1.406-0.459-1.534-1.086l-0.508-2.501C9.68,26.216,10.778,25.125,12.223,25.125z"/><radialGradient id="g5CpYa1HbIUZZ_fgjgIkac" cx="24.69" cy="15.515" r="6.168" gradientUnits="userSpaceOnUse"><stop offset="0" stop-color="#ffcf54"/><stop offset=".261" stop-color="#fdcb4d"/><stop offset=".639" stop-color="#f7c13a"/><stop offset="1" stop-color="#f0b421"/></radialGradient><path fill="url(#g5CpYa1HbIUZZ_fgjgIkac)" d="M16.18,15.98	c2.21-1.87,5.03-2.38,7.82-2.38c0.75,0,1.51,0.04,2.26,0.13c1.61,0.2,3.18,0.65,4.56,1.53c0.01,0.01,0.01,0.01,0.02,0.01	c0.87,0.54,1.67,1.24,2.36,2.16C24.78,15.83,19.21,15.78,16.18,15.98z"/><radialGradient id="g5CpYa1HbIUZZ_fgjgIkad" cx="23.983" cy="30.82" r="12.612" gradientUnits="userSpaceOnUse"><stop offset="0" stop-color="#ffcf54"/><stop offset=".261" stop-color="#fdcb4d"/><stop offset=".639" stop-color="#f7c13a"/><stop offset="1" stop-color="#f0b421"/></radialGradient><path fill="url(#g5CpYa1HbIUZZ_fgjgIkad)" d="M36,28.41v5.68C36,38.54,28.8,44,24,44	s-12-5.46-12-9.91v-5.68c0-1.88-0.135-5.085,0.125-6.535c1.82-0.47,4.88-0.41,8-1.25c0.6-0.16,1.255-0.33,1.875-0.5	c4.11-1.11,8.45-1.585,11.36-2.485c0.99,1.37,1.75,3.17,2.2,5.54c0.03,0.17,0.06,0.34,0.09,0.51c0.09,0.53,0.16,1.08,0.21,1.67	C35.95,26.3,36,27.32,36,28.41z"/><linearGradient id="g5CpYa1HbIUZZ_fgjgIkae" x1="24" x2="24" y1="25.2" y2="50.319" gradientUnits="userSpaceOnUse"><stop offset="0" stop-color="#c26715"/><stop offset=".508" stop-color="#b85515"/><stop offset="1" stop-color="#ad3f16"/></linearGradient><path fill="url(#g5CpYa1HbIUZZ_fgjgIkae)" d="M36,30.875c0,3.247-1.349,7.192-5.5,9.385	v-3.189c0-0.142,0.031-0.795,0-0.929c-0.245-1.62-0.929-1.857-3.714-1.857h-5.571c-2.786,0-3.469,0.237-3.714,1.857	c-0.031,0.134,0,0.786,0,0.929v3.198c-4.15-2.196-5.5-6.146-5.5-9.394c0,0-1,2.29-1,5.227C11,41.559,14.714,48,24,48	s13-6.441,13-11.898C37,33.166,36,30.875,36,30.875z"/><linearGradient id="g5CpYa1HbIUZZ_fgjgIkaf" x1="12.065" x2="12.065" y1="14.543" y2="27.607" gradientUnits="userSpaceOnUse"><stop offset="0" stop-color="#c26715"/><stop offset=".508" stop-color="#b85515"/><stop offset="1" stop-color="#ad3f16"/></linearGradient><path fill="url(#g5CpYa1HbIUZZ_fgjgIkaf)" d="M12.875,26.375L10.75,25.62v-2	c0-0.72,0.02-1.28,0.14-1.79l2.49-0.95l-0.505,1.745V26.375z"/><linearGradient id="g5CpYa1HbIUZZ_fgjgIkag" x1="35.438" x2="35.438" y1="14.543" y2="27.607" gradientUnits="userSpaceOnUse"><stop offset="0" stop-color="#c26715"/><stop offset=".508" stop-color="#b85515"/><stop offset="1" stop-color="#ad3f16"/></linearGradient><path fill="url(#g5CpYa1HbIUZZ_fgjgIkag)" d="M36.5,23.055v2.32l-0.64-0.2l-1.485,0.075	v-4.375l1.415-0.255C36.08,21.352,36.31,22.161,36.5,23.055z"/><linearGradient id="g5CpYa1HbIUZZ_fgjgIkah" x1="28.677" x2="28.677" y1="16.543" y2="32.872" gradientUnits="userSpaceOnUse"><stop offset="0" stop-color="#6d7479"/><stop offset="1" stop-color="#323538"/></linearGradient><circle cx="28.677" cy="26.983" r="3.943" fill="url(#g5CpYa1HbIUZZ_fgjgIkah)"/><linearGradient id="g5CpYa1HbIUZZ_fgjgIkai" x1="28.203" x2="28.203" y1="17.031" y2="32.563" gradientUnits="userSpaceOnUse"><stop offset="0" stop-color="#6d7479"/><stop offset="1" stop-color="#323538"/></linearGradient><path fill="url(#g5CpYa1HbIUZZ_fgjgIkai)" d="M36.5,25.5c-1.99,0.94-4.26,1.09-5.99,1.09	c-6.17,0-9.92-4.7-9.97-4.76L19.875,21c0.6-0.16,1.38-0.455,2-0.625c0.82,0.9,7.035,6.51,14.625,3.25	C36.59,24.155,36.45,24.91,36.5,25.5z"/><radialGradient id="g5CpYa1HbIUZZ_fgjgIkaj" cx="24.098" cy="33.135" r="11.736" gradientTransform="matrix(.7864 0 0 .75 5.193 9.5)" gradientUnits="userSpaceOnUse"><stop offset="0" stop-color="#ffcf54"/><stop offset=".261" stop-color="#fdcb4d"/><stop offset=".639" stop-color="#f7c13a"/><stop offset="1" stop-color="#f0b421"/></radialGradient><path fill="url(#g5CpYa1HbIUZZ_fgjgIkaj)" d="M20.635,37H28c0,0-1.473,3-3.683,3	S20.635,37,20.635,37z"/><circle cx="17.5" cy="27.5" r="1.5" fill="#2b1d1d"/><path fill="#343434" d="M21,28c-0.108,0-0.214-0.018-0.316-0.052l-6-2c-0.524-0.174-0.808-0.739-0.635-1.263	s0.739-0.808,1.263-0.635c0.001,0,0.003,0.001,0.004,0.001l6,2c0.524,0.175,0.807,0.741,0.632,1.265C21.813,27.725,21.43,28,21,28z"/><linearGradient id="g5CpYa1HbIUZZ_fgjgIkak" x1="22.34" x2="22.34" y1="14.626" y2="23.62" gradientUnits="userSpaceOnUse"><stop offset="0" stop-color="#f44f5a"/><stop offset=".443" stop-color="#ee3d4a"/><stop offset="1" stop-color="#e52030"/></linearGradient><path fill="url(#g5CpYa1HbIUZZ_fgjgIkak)" d="M33.93,17.31	c-1.92,0.57-4.78,1.45-6.95,2.04c-0.23,0.06-0.46,0.12-0.67,0.18c-1.73,0.44-3.54,0.9-5.32,1.34c-0.67,0.17-1.34,0.34-1.99,0.5	c-2.09,0.51-3.97,1.07-5.57,1.52c-1.01,0.29-1.91,0.54-2.68,0.73c0-0.72,0.02-1.28,0.14-1.79c0.02-0.1,0.05-0.21,0.08-0.31	c0.06-0.19,0.13-0.39,0.2-0.58c0.06-0.18,0.14-0.37,0.2-0.55c0.08-0.18,0.16-0.35,0.23-0.52c0.08-0.17,0.15-0.34,0.24-0.5	c0.08-0.16,0.17-0.32,0.25-0.47c0.07-0.12,0.14-0.24,0.22-0.36c0.13-0.21,0.26-0.4,0.39-0.59c0.19-0.24,0.37-0.47,0.56-0.69	c0.01-0.01,0.01-0.01,0.01-0.02c0.22-0.24,0.44-0.46,0.65-0.66c0.09-0.09,0.19-0.18,0.28-0.26h0.01c0.13-0.12,0.27-0.23,0.41-0.34	c0.1-0.01,0.21-0.01,0.32-0.03c2.95-0.27,8.22-1.84,15.33-1.15c0.42,0.15,0.85,0.3,1.27,0.46c0.01,0.01,0.01,0.01,0.03,0.01	c0.25,0.15,0.48,0.3,0.72,0.48C32.87,16.17,33.43,16.69,33.93,17.31z"/><linearGradient id="g5CpYa1HbIUZZ_fgjgIkal" x1="25.71" x2="25.71" y1="10.492" y2="19.997" gradientUnits="userSpaceOnUse"><stop offset="0" stop-color="#f44f5a"/><stop offset=".443" stop-color="#ee3d4a"/><stop offset="1" stop-color="#e52030"/></linearGradient><path fill="url(#g5CpYa1HbIUZZ_fgjgIkal)" d="M36.5,23.18	c-0.32-0.13-0.67-0.27-1.03-0.41c-0.61-0.25-1.27-0.52-1.97-0.81c-1.82-0.75-3.91-1.61-6.05-2.43c-0.16-0.06-0.31-0.12-0.47-0.18	c-0.19-0.07-0.38-0.14-0.57-0.21c-3.94-1.48-7.91-2.73-10.57-2.82h-0.01c-0.33-0.01-0.63-0.01-0.91,0.02c0-0.13,0-0.26,0.02-0.39	c0.4-5.75,9.81-2.75,9.81-2.75s0.82,0.2,2.03,0.53c0.99,0.28,2.24,0.64,3.49,1.07c0.42,0.15,0.85,0.3,1.27,0.46	c0.01,0.01,0.01,0.01,0.03,0.01c0.25,0.15,0.48,0.3,0.72,0.48c0.58,0.42,1.14,0.94,1.64,1.56c0.03,0.04,0.07,0.08,0.1,0.12	c0.07,0.07,0.12,0.14,0.17,0.21c0.62,0.83,1.16,1.81,1.59,2.98C36.08,21.39,36.31,22.24,36.5,23.18z"/><linearGradient id="g5CpYa1HbIUZZ_fgjgIkam" x1="23.5" x2="23.5" y1="-10.563" y2="29.496" gradientUnits="userSpaceOnUse"><stop offset="0" stop-color="#6d7479"/><stop offset="1" stop-color="#323538"/></linearGradient><path fill="url(#g5CpYa1HbIUZZ_fgjgIkam)" d="M41.148,14.959L35.929,21H11.071	l-5.219-6.041c-0.67-1.062-0.354-2.48,0.698-3.133c3.096-1.923,8.755-4.818,9.687-8.14C16.512,2.703,17.34,2,18.328,2h10.343	c0.989,0,1.817,0.703,2.092,1.685c0.932,3.322,6.591,6.217,9.687,8.14C41.502,12.479,41.818,13.897,41.148,14.959z"/><path fill="#fff" d="M18.928,13.064l7.694,2.855c0,0,0.845-0.581,0.757-1.059l-7.936-2.819 c0.065-0.116,0.1-0.246,0.102-0.379c0-0.468-0.38-0.848-0.848-0.848s-0.848,0.38-0.848,0.848c-0.001,0.109,0.022,0.217,0.068,0.317 c-0.451,0.117-0.723,0.577-0.606,1.028c0.117,0.451,0.577,0.723,1.028,0.606C18.615,13.542,18.837,13.335,18.928,13.064z M22.37,14.771c-0.393-0.001-0.757-0.206-0.961-0.543l-1.356,0.548c-0.152-0.44-0.631-0.674-1.071-0.522 c-0.44,0.152-0.674,0.631-0.522,1.071c0.092,0.268,0.313,0.471,0.587,0.541c-0.046,0.099-0.069,0.207-0.068,0.317 c0,0.468,0.38,0.848,0.848,0.848s0.848-0.38,0.848-0.848c-0.002-0.134-0.037-0.266-0.102-0.384l2.572-1.029H22.37z M27.739,14.205 c-0.356,0.01-0.67,0.236-0.791,0.571l-1.356-0.548c-0.203,0.336-0.568,0.542-0.961,0.543h-0.774l2.572,1.029 c-0.065,0.118-0.099,0.25-0.102,0.384c0,0.468,0.38,0.848,0.848,0.848s0.848-0.38,0.848-0.848c0.001-0.109-0.022-0.217-0.068-0.317 c0.451-0.117,0.723-0.577,0.606-1.029C28.463,14.464,28.125,14.204,27.739,14.205z M29.084,11.979 c0.046-0.099,0.069-0.207,0.068-0.317c0-0.468-0.38-0.848-0.848-0.848s-0.848,0.38-0.848,0.848 c0.002,0.134,0.037,0.266,0.102,0.384l-7.899,2.813c-0.091,0.476,0.605,1.059,0.605,1.059l7.808-2.849 c0.126,0.334,0.44,0.559,0.797,0.571c0.466,0.002,0.846-0.374,0.848-0.841C29.719,12.413,29.458,12.075,29.084,11.979z"/><circle cx="23.461" cy="8.888" r="2.92" fill="#fff"/></svg>