<svg xmlns="http://www.w3.org/2000/svg" viewBox="0 0 48 48"><linearGradient id="OquTn7nwLk4Hym0mhoD0Ja" x1="-5.281" x2="60.888" y1="7.703" y2="44.531" gradientUnits="userSpaceOnUse"><stop offset="0" stop-color="#33d7f0"/><stop offset=".187" stop-color="#2fd1ed"/><stop offset=".445" stop-color="#24bfe3"/><stop offset=".744" stop-color="#13a2d4"/><stop offset="1" stop-color="#0083c4"/></linearGradient><path fill="url(#OquTn7nwLk4Hym0mhoD0Ja)" d="M41.442,8H6.558C5.151,8,4,9.151,4,10.558V14v23.442C4,38.849,5.151,40,6.558,40h34.884	C42.849,40,44,38.849,44,37.442V14v-3.442C44,9.151,42.849,8,41.442,8z"/><linearGradient id="OquTn7nwLk4Hym0mhoD0Jb" x1="34.7" x2="37.808" y1="20.929" y2="3.296" gradientTransform="matrix(1 0 0 -1 0 47.89)" gradientUnits="userSpaceOnUse"><stop offset="0" stop-color="#fcfcfc"/><stop offset="1" stop-color="#c3c9cd"/></linearGradient><path fill="url(#OquTn7nwLk4Hym0mhoD0Jb)" d="M30.53,38h9.941c0.845,0,1.53-0.685,1.53-1.53V26.53c0-0.845-0.685-1.53-1.53-1.53H30.53	C29.685,25,29,25.685,29,26.53v9.941C29,37.315,29.685,38,30.53,38z"/><linearGradient id="OquTn7nwLk4Hym0mhoD0Jc" x1="34.7" x2="37.808" y1="35.929" y2="18.296" gradientTransform="matrix(1 0 0 -1 0 47.89)" gradientUnits="userSpaceOnUse"><stop offset="0" stop-color="#fcfcfc"/><stop offset="1" stop-color="#c3c9cd"/></linearGradient><path fill="url(#OquTn7nwLk4Hym0mhoD0Jc)" d="M30.53,23h9.941c0.845,0,1.53-0.685,1.53-1.53V11.53c0-0.845-0.685-1.53-1.53-1.53H30.53	C29.685,10,29,10.685,29,11.53v9.941C29,22.315,29.685,23,30.53,23z"/><path fill="#0d86ad" d="M23.5,19h-15C8.224,19,8,18.776,8,18.5v-1C8,17.224,8.224,17,8.5,17h15c0.276,0,0.5,0.224,0.5,0.5v1	C24,18.776,23.776,19,23.5,19z"/><path fill="#0d86ad" d="M23.5,23h-15C8.224,23,8,22.776,8,22.5v-1C8,21.224,8.224,21,8.5,21h15c0.276,0,0.5,0.224,0.5,0.5v1	C24,22.776,23.776,23,23.5,23z"/><path fill="#0d86ad" d="M23.5,27h-15C8.224,27,8,26.776,8,26.5v-1C8,25.224,8.224,25,8.5,25h15c0.276,0,0.5,0.224,0.5,0.5v1	C24,26.776,23.776,27,23.5,27z"/><path fill="#0d86ad" d="M20.5,31h-12C8.224,31,8,30.776,8,30.5v-1C8,29.224,8.224,29,8.5,29h12c0.276,0,0.5,0.224,0.5,0.5v1	C21,30.776,20.776,31,20.5,31z"/><path fill="#35c1f1" d="M40,27.5V36h-3v-8.5c0-0.276,0.224-0.5,0.5-0.5h2C39.776,27,40,27.224,40,27.5z"/><path fill="#199be2" d="M37,29v7h-3v-6.5c0-0.276,0.224-0.5,0.5-0.5H37z"/><path fill="#0078d4" d="M34,31v5h-3v-4.5c0-0.276,0.224-0.5,0.5-0.5H34z"/><path fill="#d35230" d="M31,16.5c0,2.485,2.015,4.5,4.5,4.5s4.5-2.015,4.5-4.5h-4.5H31z"/><path fill="#ff8f6b" d="M35.5,12v4.5H40C40,14.015,37.985,12,35.5,12z"/><path fill="#ed6c47" d="M35.5,12c-2.485,0-4.5,2.015-4.5,4.5h4.5V12z"/></svg>