<svg xmlns="http://www.w3.org/2000/svg" viewBox="0 0 48 48"><linearGradient id="af_X5cnxOoMbo122UmIema" x1="37.063" x2="19.938" y1="13" y2="13" gradientTransform="matrix(-1 0 0 1 48.39 0)" gradientUnits="userSpaceOnUse"><stop offset="0" stop-color="#0d61a9"/><stop offset="1" stop-color="#16528c"/></linearGradient><path fill="url(#af_X5cnxOoMbo122UmIema)" d="M11.28,13.694l3.39,3.52c0.624,0.648,1.72,0.206,1.72-0.694V15h14v-4h-14V9.48	c0-0.9-1.096-1.342-1.72-0.694l-3.39,3.52C10.907,12.694,10.907,13.307,11.28,13.694z"/><linearGradient id="af_X5cnxOoMbo122UmIemb" x1="27.983" x2="41.807" y1="5.592" y2="19.417" gradientUnits="userSpaceOnUse"><stop offset="0" stop-color="#75daff"/><stop offset="1" stop-color="#1ea2e4"/></linearGradient><circle cx="35.39" cy="13" r="8" fill="url(#af_X5cnxOoMbo122UmIemb)"/><linearGradient id="af_X5cnxOoMbo122UmIemc" x1="43.063" x2="25.938" y1="35" y2="35" gradientTransform="matrix(-1 0 0 1 48.39 0)" gradientUnits="userSpaceOnUse"><stop offset="0" stop-color="#0d61a9"/><stop offset="1" stop-color="#16528c"/></linearGradient><path fill="url(#af_X5cnxOoMbo122UmIemc)" d="M5.28,35.694l3.39,3.52c0.624,0.648,1.72,0.206,1.72-0.694V37h14v-4h-14v-1.52	c0-0.9-1.096-1.342-1.72-0.694l-3.39,3.52C4.907,34.694,4.907,35.307,5.28,35.694z"/><linearGradient id="af_X5cnxOoMbo122UmIemd" x1="21.897" x2="36.214" y1="27.507" y2="41.823" gradientUnits="userSpaceOnUse"><stop offset="0" stop-color="#75daff"/><stop offset="1" stop-color="#1ea2e4"/></linearGradient><circle cx="29.39" cy="35" r="8" fill="url(#af_X5cnxOoMbo122UmIemd)"/></svg>