<svg xmlns="http://www.w3.org/2000/svg" viewBox="0 0 48 48"><linearGradient id="5_xjw1kQiVToxyB4xNZ~ja" x1="22.472" x2="15.768" y1="11.472" y2="4.768" gradientUnits="userSpaceOnUse"><stop offset="0" stop-color="#a8142e"/><stop offset=".179" stop-color="#ba1632"/><stop offset=".243" stop-color="#c21734"/></linearGradient><path fill="url(#5_xjw1kQiVToxyB4xNZ~ja)" d="M16.976,4.176c-0.234-0.234-0.614-0.234-0.849,0l-0.951,0.951	c-0.234,0.234-0.234,0.614,0,0.849L20.6,11.4l3.3-0.3L16.976,4.176z"/><linearGradient id="5_xjw1kQiVToxyB4xNZ~jb" x1="16.249" x2="30.941" y1="9.706" y2="44.763" gradientUnits="userSpaceOnUse"><stop offset="0" stop-color="#eba84b"/><stop offset="1" stop-color="#d97218"/></linearGradient><path fill="url(#5_xjw1kQiVToxyB4xNZ~jb)" d="M43,15H5v26c0,1.105,0.895,2,2,2h34c1.105,0,2-0.895,2-2V15z"/><linearGradient id="5_xjw1kQiVToxyB4xNZ~jc" x1="22.472" x2="15.768" y1="11.472" y2="4.768" gradientTransform="matrix(-1 0 0 1 48 0)" gradientUnits="userSpaceOnUse"><stop offset="0" stop-color="#a8142e"/><stop offset=".179" stop-color="#ba1632"/><stop offset=".243" stop-color="#c21734"/></linearGradient><path fill="url(#5_xjw1kQiVToxyB4xNZ~jc)" d="M31.024,4.176c0.234-0.234,0.614-0.234,0.849,0l0.951,0.951c0.234,0.234,0.234,0.614,0,0.849	L27.4,11.4l-3.3-0.3L31.024,4.176z"/><linearGradient id="5_xjw1kQiVToxyB4xNZ~jd" x1="25.927" x2="25.927" y1=".791" y2="7.846" gradientUnits="userSpaceOnUse"><stop offset="0" stop-color="#f44f5a"/><stop offset=".523" stop-color="#f34d58"/><stop offset=".712" stop-color="#f14652"/><stop offset=".846" stop-color="#ed3b48"/><stop offset=".954" stop-color="#e82a39"/><stop offset="1" stop-color="#e52030"/></linearGradient><path fill="url(#5_xjw1kQiVToxyB4xNZ~jd)" d="M26.602,1.371c0.127-0.306,0.478-0.452,0.784-0.325l1.243,0.515	c0.306,0.127,0.452,0.478,0.325,0.784l-2.936,7.087l-3.164,0.986L26.602,1.371z"/><linearGradient id="5_xjw1kQiVToxyB4xNZ~je" x1="25.927" x2="25.927" y1=".791" y2="7.846" gradientTransform="matrix(-1 0 0 1 48 0)" gradientUnits="userSpaceOnUse"><stop offset="0" stop-color="#f44f5a"/><stop offset=".523" stop-color="#f34d58"/><stop offset=".712" stop-color="#f14652"/><stop offset=".846" stop-color="#ed3b48"/><stop offset=".954" stop-color="#e82a39"/><stop offset="1" stop-color="#e52030"/></linearGradient><path fill="url(#5_xjw1kQiVToxyB4xNZ~je)" d="M21.398,1.371c-0.127-0.306-0.478-0.452-0.784-0.325l-1.243,0.515	c-0.306,0.127-0.452,0.478-0.325,0.784l2.936,7.087l3.164,0.986L21.398,1.371z"/><path fill="#fabb62" d="M43,9H5c-0.552,0-1,0.448-1,1v4c0,0.552,0.448,1,1,1h38c0.552,0,1-0.448,1-1v-4	C44,9.448,43.552,9,43,9z"/><linearGradient id="5_xjw1kQiVToxyB4xNZ~jf" x1="24" x2="24" y1="9.325" y2="14.228" gradientUnits="userSpaceOnUse"><stop offset="0" stop-color="#f44f5a"/><stop offset=".443" stop-color="#ee3d4a"/><stop offset="1" stop-color="#e52030"/></linearGradient><rect width="4" height="6" x="22" y="9" fill="url(#5_xjw1kQiVToxyB4xNZ~jf)"/><linearGradient id="5_xjw1kQiVToxyB4xNZ~jg" x1="24" x2="24" y1="42.971" y2="15.051" gradientUnits="userSpaceOnUse"><stop offset="0" stop-color="#a8142e"/><stop offset=".736" stop-color="#ba1632"/><stop offset="1" stop-color="#c21734"/></linearGradient><rect width="4" height="28" x="22" y="15" fill="url(#5_xjw1kQiVToxyB4xNZ~jg)"/></svg>