<svg xmlns="http://www.w3.org/2000/svg" viewBox="0 0 48 48"><linearGradient id="VnPqrEUitHXZZUgWxURb8a" x1="16.758" x2="30.883" y1="3.118" y2="17.242" gradientUnits="userSpaceOnUse"><stop offset="0" stop-color="#f44f5a"/><stop offset=".443" stop-color="#ee3d4a"/><stop offset="1" stop-color="#e52030"/></linearGradient><path fill="url(#VnPqrEUitHXZZUgWxURb8a)" d="M24,4l-1,1v19h2.414L38.14,11.274V9.86C34.52,6.24,29.52,4,24,4z"/><linearGradient id="VnPqrEUitHXZZUgWxURb8b" x1="141.926" x2="175.626" y1="172.452" y2="206.152" gradientTransform="rotate(45.001 296 -44.004)" gradientUnits="userSpaceOnUse"><stop offset="0" stop-color="#fed100"/><stop offset="1" stop-color="#e36001"/></linearGradient><path fill="url(#VnPqrEUitHXZZUgWxURb8b)" d="M38.142,9.858L24,24l1,1l17.997,0l1-1C43.997,18.881,42.045,13.761,38.142,9.858z"/><linearGradient id="VnPqrEUitHXZZUgWxURb8c" x1="361.07" x2="371.777" y1="210.93" y2="221.637" gradientTransform="rotate(90 296 -44)" gradientUnits="userSpaceOnUse"><stop offset="0" stop-color="#ffd747"/><stop offset=".482" stop-color="#ffd645"/><stop offset="1" stop-color="#f5bc00"/></linearGradient><path fill="url(#VnPqrEUitHXZZUgWxURb8c)" d="M44,24H24v1.414L36.726,38.14h1.414C41.76,34.52,44,29.52,44,24z"/><linearGradient id="VnPqrEUitHXZZUgWxURb8d" x1="533.486" x2="544.193" y1="83.18" y2="93.887" gradientTransform="rotate(134.999 296.001 -44)" gradientUnits="userSpaceOnUse"><stop offset="0" stop-color="#33c481"/><stop offset="1" stop-color="#21a366"/></linearGradient><path fill="url(#VnPqrEUitHXZZUgWxURb8d)" d="M38.142,38.142L24,24l-1,1l0,17.997l1,1C29.119,43.997,34.239,42.045,38.142,38.142z"/><linearGradient id="VnPqrEUitHXZZUgWxURb8e" x1="565.07" x2="575.777" y1="-129.07" y2="-118.363" gradientTransform="rotate(180 296 -44)" gradientUnits="userSpaceOnUse"><stop offset="0" stop-color="#28afea"/><stop offset="1" stop-color="#0b88da"/></linearGradient><path fill="url(#VnPqrEUitHXZZUgWxURb8e)" d="M24,44V24h-1.414L9.86,36.726v1.414C13.48,41.76,18.48,44,24,44z"/><linearGradient id="VnPqrEUitHXZZUgWxURb8f" x1="435.788" x2="446.495" y1="-303.018" y2="-292.311" gradientTransform="rotate(-134.999 296.002 -44)" gradientUnits="userSpaceOnUse"><stop offset=".002" stop-color="#427fdb"/><stop offset=".397" stop-color="#2668cb"/><stop offset=".763" stop-color="#1358bf"/><stop offset="1" stop-color="#0c52bb"/></linearGradient><path fill="url(#VnPqrEUitHXZZUgWxURb8f)" d="M9.858,38.142L24,24l-1-1L5.003,23l-1,1C4.003,29.119,5.955,34.239,9.858,38.142z"/><linearGradient id="VnPqrEUitHXZZUgWxURb8g" x1="225.07" x2="235.777" y1="-333.07" y2="-322.363" gradientTransform="rotate(-90 296 -44)" gradientUnits="userSpaceOnUse"><stop offset="0" stop-color="#a235d4"/><stop offset=".441" stop-color="#a033d1"/><stop offset=".702" stop-color="#982cc9"/><stop offset=".915" stop-color="#8b21bb"/><stop offset="1" stop-color="#831bb3"/></linearGradient><path fill="url(#VnPqrEUitHXZZUgWxURb8g)" d="M4,24h20v-1.414L11.274,9.86H9.86C6.24,13.48,4,18.48,4,24z"/><linearGradient id="VnPqrEUitHXZZUgWxURb8h" x1="52.654" x2="79.998" y1="-205.32" y2="-177.975" gradientTransform="rotate(-45.001 296.002 -43.997)" gradientUnits="userSpaceOnUse"><stop offset="0" stop-color="#e83c67"/><stop offset=".423" stop-color="#c5214a"/><stop offset=".773" stop-color="#b01038"/><stop offset="1" stop-color="#a80a31"/></linearGradient><path fill="url(#VnPqrEUitHXZZUgWxURb8h)" d="M9.858,9.858L24,24V4.003C18.881,4.003,13.761,5.955,9.858,9.858z"/><linearGradient id="VnPqrEUitHXZZUgWxURb8i" x1="18.774" x2="28.941" y1="9.378" y2="19.545" gradientUnits="userSpaceOnUse"><stop offset="0" stop-color="#f77b83"/><stop offset=".443" stop-color="#f26e77"/><stop offset="1" stop-color="#ec5864"/></linearGradient><path fill="url(#VnPqrEUitHXZZUgWxURb8i)" d="M24,10l-1,1l-0.004,13h2.418l8.484-8.484v-1.414C31.364,11.568,27.864,10,24,10z"/><linearGradient id="VnPqrEUitHXZZUgWxURb8j" x1="144.737" x2="168.994" y1="179.505" y2="203.762" gradientTransform="rotate(45.001 296 -44.004)" gradientUnits="userSpaceOnUse"><stop offset="0" stop-color="#fedd40"/><stop offset="1" stop-color="#ea8841"/></linearGradient><path fill="url(#VnPqrEUitHXZZUgWxURb8j)" d="M33.899,14.101L24,24l1,1l11.998,0l1-1C37.998,20.416,36.632,16.833,33.899,14.101z"/><linearGradient id="VnPqrEUitHXZZUgWxURb8k" x1="361.949" x2="369.656" y1="216.051" y2="223.758" gradientTransform="rotate(90 296 -44)" gradientUnits="userSpaceOnUse"><stop offset="0" stop-color="#ffe175"/><stop offset=".482" stop-color="#ffe074"/><stop offset="1" stop-color="#f8cd40"/></linearGradient><path fill="url(#VnPqrEUitHXZZUgWxURb8k)" d="M38,24H24v1.414l8.484,8.484h1.414C36.432,31.364,38,27.864,38,24z"/><linearGradient id="VnPqrEUitHXZZUgWxURb8l" x1="534.365" x2="542.072" y1="88.301" y2="96.008" gradientTransform="rotate(134.999 296.001 -44)" gradientUnits="userSpaceOnUse"><stop offset="0" stop-color="#66d3a1"/><stop offset="1" stop-color="#59ba8c"/></linearGradient><path fill="url(#VnPqrEUitHXZZUgWxURb8l)" d="M33.899,33.899L24,24l-1,1l0,11.998l1,1C27.584,37.998,31.167,36.632,33.899,33.899z"/><linearGradient id="VnPqrEUitHXZZUgWxURb8m" x1="565.949" x2="573.656" y1="-123.949" y2="-116.242" gradientTransform="rotate(180 296 -44)" gradientUnits="userSpaceOnUse"><stop offset="0" stop-color="#5ec3ef"/><stop offset="1" stop-color="#48a6e3"/></linearGradient><path fill="url(#VnPqrEUitHXZZUgWxURb8m)" d="M24,38V24h-1.414l-8.484,8.484v1.414C16.636,36.432,20.136,38,24,38z"/><linearGradient id="VnPqrEUitHXZZUgWxURb8n" x1="437.096" x2="444.803" y1="-297.468" y2="-289.761" gradientTransform="rotate(-134.999 296.002 -44)" gradientUnits="userSpaceOnUse"><stop offset="0" stop-color="#719fe4"/><stop offset=".002" stop-color="#719fe4"/><stop offset=".397" stop-color="#5c8ed8"/><stop offset=".763" stop-color="#4e82cf"/><stop offset="1" stop-color="#497dcc"/></linearGradient><path fill="url(#VnPqrEUitHXZZUgWxURb8n)" d="M14.101,33.899L24,24l-1-1l-11.998,0l-1,1C10.002,27.584,11.368,31.167,14.101,33.899z"/><linearGradient id="VnPqrEUitHXZZUgWxURb8o" x1="225.949" x2="233.656" y1="-327.949" y2="-320.242" gradientTransform="rotate(-90 296 -44)" gradientUnits="userSpaceOnUse"><stop offset="0" stop-color="#b968df"/><stop offset=".441" stop-color="#b866dd"/><stop offset=".702" stop-color="#b261d7"/><stop offset=".915" stop-color="#a859cc"/><stop offset="1" stop-color="#a254c6"/></linearGradient><path fill="url(#VnPqrEUitHXZZUgWxURb8o)" d="M10,24h14v-1.414l-8.484-8.484h-1.414C11.568,16.636,10,20.136,10,24z"/><linearGradient id="VnPqrEUitHXZZUgWxURb8p" x1="53.533" x2="72.674" y1="-200.199" y2="-181.058" gradientTransform="rotate(-45.001 296.002 -43.997)" gradientUnits="userSpaceOnUse"><stop offset="0" stop-color="#ee6d8d"/><stop offset=".423" stop-color="#d45977"/><stop offset=".773" stop-color="#c44c6a"/><stop offset="1" stop-color="#be4765"/></linearGradient><path fill="url(#VnPqrEUitHXZZUgWxURb8p)" d="M14.101,14.101L24,24V10.002C20.416,10.002,16.833,11.368,14.101,14.101z"/><linearGradient id="VnPqrEUitHXZZUgWxURb8q" x1="20.791" x2="27.001" y1="15.637" y2="21.847" gradientUnits="userSpaceOnUse"><stop offset="0" stop-color="#faa7ad"/><stop offset=".443" stop-color="#f79ea5"/><stop offset="1" stop-color="#f29098"/></linearGradient><path fill="url(#VnPqrEUitHXZZUgWxURb8q)" d="M24,16l-1.004,1.004V24h2.418l4.242-4.242v-1.414C28.208,16.896,26.208,16,24,16z"/><linearGradient id="VnPqrEUitHXZZUgWxURb8r" x1="147.547" x2="162.363" y1="186.557" y2="201.373" gradientTransform="rotate(45.001 296 -44.004)" gradientUnits="userSpaceOnUse"><stop offset="0" stop-color="#ffe880"/><stop offset="1" stop-color="#f1b080"/></linearGradient><path fill="url(#VnPqrEUitHXZZUgWxURb8r)" d="M29.657,18.343L24,24l1,1l5.999,0l1-1C31.999,21.952,31.218,19.904,29.657,18.343z"/><linearGradient id="VnPqrEUitHXZZUgWxURb8s" x1="362.828" x2="367.535" y1="221.172" y2="225.879" gradientTransform="rotate(90 296 -44)" gradientUnits="userSpaceOnUse"><stop offset="0" stop-color="#ffeba3"/><stop offset=".482" stop-color="#ffeba2"/><stop offset="1" stop-color="#fade80"/></linearGradient><path fill="url(#VnPqrEUitHXZZUgWxURb8s)" d="M32,24h-8v1.414l4.242,4.242h1.414C31.104,28.208,32,26.208,32,24z"/><linearGradient id="VnPqrEUitHXZZUgWxURb8t" x1="535.244" x2="539.954" y1="93.422" y2="98.131" gradientTransform="rotate(134.999 296.001 -44)" gradientUnits="userSpaceOnUse"><stop offset="0" stop-color="#99e2c0"/><stop offset="1" stop-color="#90d1b3"/></linearGradient><path fill="url(#VnPqrEUitHXZZUgWxURb8t)" d="M29.657,29.657L24,24l-1,1l-0.004,5.995L24,31.999	C26.048,31.999,28.096,31.218,29.657,29.657z"/><linearGradient id="VnPqrEUitHXZZUgWxURb8u" x1="566.828" x2="571.535" y1="-118.828" y2="-114.121" gradientTransform="rotate(180 296 -44)" gradientUnits="userSpaceOnUse"><stop offset="0" stop-color="#94d7f5"/><stop offset="1" stop-color="#85c4ed"/></linearGradient><path fill="url(#VnPqrEUitHXZZUgWxURb8u)" d="M24,32v-8h-1.414l-4.242,4.242v1.414C19.792,31.104,21.792,32,24,32z"/><linearGradient id="VnPqrEUitHXZZUgWxURb8v" x1="438.404" x2="443.111" y1="-291.918" y2="-287.211" gradientTransform="rotate(-134.999 296.002 -44)" gradientUnits="userSpaceOnUse"><stop offset="0" stop-color="#a1bfed"/><stop offset=".002" stop-color="#a1bfed"/><stop offset=".397" stop-color="#93b4e5"/><stop offset=".763" stop-color="#89acdf"/><stop offset="1" stop-color="#86a9dd"/></linearGradient><path fill="url(#VnPqrEUitHXZZUgWxURb8v)" d="M18.343,29.657L24,24l-1-1l-5.999,0l-1,1C16.001,26.048,16.782,28.096,18.343,29.657z"/><linearGradient id="VnPqrEUitHXZZUgWxURb8w" x1="226.828" x2="231.535" y1="-322.828" y2="-318.121" gradientTransform="rotate(-90 296 -44)" gradientUnits="userSpaceOnUse"><stop offset="0" stop-color="#d19aea"/><stop offset=".441" stop-color="#d099e8"/><stop offset=".702" stop-color="#cc96e4"/><stop offset=".915" stop-color="#c590dd"/><stop offset="1" stop-color="#c18dd9"/></linearGradient><path fill="url(#VnPqrEUitHXZZUgWxURb8w)" d="M16,24h8v-1.414l-4.242-4.242h-1.414C16.896,19.792,16,21.792,16,24z"/><linearGradient id="VnPqrEUitHXZZUgWxURb8x" x1="54.412" x2="65.35" y1="-195.078" y2="-184.14" gradientTransform="rotate(-45.001 296.002 -43.997)" gradientUnits="userSpaceOnUse"><stop offset="0" stop-color="#f49eb3"/><stop offset=".423" stop-color="#e290a5"/><stop offset=".773" stop-color="#d8889c"/><stop offset="1" stop-color="#d48598"/></linearGradient><path fill="url(#VnPqrEUitHXZZUgWxURb8x)" d="M18.343,18.343L24,24v-7.999C21.952,16.001,19.904,16.782,18.343,18.343z"/></svg>