<svg xmlns="http://www.w3.org/2000/svg" viewBox="0 0 48 48"><linearGradient id="obthq8Po08oEcqOg6R43Qa" x1="30" x2="40" y1="-728" y2="-728" gradientTransform="matrix(1 0 0 -1 0 -704)" gradientUnits="userSpaceOnUse"><stop offset="0" stop-color="#ffcf54"/><stop offset=".261" stop-color="#fdcb4d"/><stop offset=".639" stop-color="#f7c13a"/><stop offset="1" stop-color="#f0b421"/></linearGradient><path fill="url(#obthq8Po08oEcqOg6R43Qa)" d="M30,24c0,2.76,2.237,5,4.997,5C37.764,29,40,26.76,40,24s-2.236-5-5.002-5	C32.237,19,30,21.24,30,24z"/><linearGradient id="obthq8Po08oEcqOg6R43Qb" x1="8.194" x2="32.552" y1="20.944" y2="45.302" gradientUnits="userSpaceOnUse"><stop offset="0" stop-color="#ffcf54"/><stop offset=".261" stop-color="#fdcb4d"/><stop offset=".639" stop-color="#f7c13a"/><stop offset="1" stop-color="#f0b421"/></linearGradient><polygon fill="url(#obthq8Po08oEcqOg6R43Qb)" points="10,33 23,25 34.5,35 10,35"/><linearGradient id="obthq8Po08oEcqOg6R43Qc" x1="12.223" x2="34.282" y1="18.223" y2="40.283" gradientUnits="userSpaceOnUse"><stop offset="0" stop-color="#ffcf54"/><stop offset=".261" stop-color="#fdcb4d"/><stop offset=".639" stop-color="#f7c13a"/><stop offset="1" stop-color="#f0b421"/></linearGradient><path fill="url(#obthq8Po08oEcqOg6R43Qc)" d="M19,30c0,2.76,2.238,5,4.997,5C26.764,35,29,32.76,29,30s-2.236-5-5.002-5	C21.238,25,19,27.24,19,30z"/><linearGradient id="obthq8Po08oEcqOg6R43Qd" x1="7.723" x2="29.782" y1="22.723" y2="44.783" gradientUnits="userSpaceOnUse"><stop offset="0" stop-color="#ffcf54"/><stop offset=".261" stop-color="#fdcb4d"/><stop offset=".639" stop-color="#f7c13a"/><stop offset="1" stop-color="#f0b421"/></linearGradient><path fill="url(#obthq8Po08oEcqOg6R43Qd)" d="M6,23c0,1.104,0.895,2,1.999,2C9.106,25,10,24.104,10,23s-0.894-2-2.001-2	C6.895,21,6,21.896,6,23z"/><linearGradient id="obthq8Po08oEcqOg6R43Qe" x1="11.58" x2="33.64" y1="18.865" y2="40.925" gradientUnits="userSpaceOnUse"><stop offset="0" stop-color="#ffcf54"/><stop offset=".261" stop-color="#fdcb4d"/><stop offset=".639" stop-color="#f7c13a"/><stop offset="1" stop-color="#f0b421"/></linearGradient><path fill="url(#obthq8Po08oEcqOg6R43Qe)" d="M7.257,21.144l10.486-3.7c0.761-0.269,1.61-0.053,2.15,0.546l7.709,8.544L20,27l-2-4	l-9.533,1.944L7.257,21.144z"/><linearGradient id="obthq8Po08oEcqOg6R43Qf" x1="24" x2="24" y1="-5209.946" y2="-5220.994" gradientTransform="matrix(1 0 0 -1 0 -5178)" gradientUnits="userSpaceOnUse"><stop offset="0" stop-color="#2aa4f4"/><stop offset="1" stop-color="#007ad9"/></linearGradient><path fill="url(#obthq8Po08oEcqOg6R43Qf)" d="M42,33c-1.657,0-3-1-3-1s-1.343,1-3,1s-3-1-3-1s-1.343,1-3,1s-3-1-3-1s-1.343,1-3,1s-3-1-3-1	s-1.343,1-3,1s-3-1-3-1s-1.343,1-3,1s-3-1-3-1s-1.343,1-3,1s-3-1-3-1v9c0,1.105,0.895,2,2,2h38c1.105,0,2-0.895,2-2v-9	C45,32,43.657,33,42,33z"/><path fill="#e52030" d="M44.888,42.75L5.266,3.128c-0.149-0.149-0.39-0.149-0.539,0L3.112,4.744	c-0.149,0.149-0.149,0.39,0,0.539l39.622,39.622c0.149,0.149,0.39,0.149,0.539,0l1.616-1.616	C45.037,43.14,45.037,42.898,44.888,42.75z"/></svg>