<svg xmlns="http://www.w3.org/2000/svg" viewBox="0 0 48 48"><linearGradient id="ZdQ5K9QI3c1laLwVUHRNSa" x1="35.232" x2="27.236" y1="26" y2="26" gradientUnits="userSpaceOnUse"><stop offset="0" stop-color="#4c4c4c"/><stop offset="1" stop-color="#444"/></linearGradient><path fill="url(#ZdQ5K9QI3c1laLwVUHRNSa)" d="M24,13v26h11c0,0-8-6-8-16.49C27,19,29,14,29,13H24z"/><linearGradient id="ZdQ5K9QI3c1laLwVUHRNSb" x1="24" x2="24" y1="39" y2="41.995" gradientUnits="userSpaceOnUse"><stop offset="0" stop-color="#eba600"/><stop offset="1" stop-color="#c28200"/></linearGradient><path fill="url(#ZdQ5K9QI3c1laLwVUHRNSb)" d="M35.5,39h-23c-0.828,0-1.5,0.672-1.5,1.5c0,0.828,0.672,1.5,1.5,1.5h23	c0.828,0,1.5-0.672,1.5-1.5C37,39.672,36.328,39,35.5,39z"/><linearGradient id="ZdQ5K9QI3c1laLwVUHRNSc" x1="23.5" x2="23.5" y1="8" y2="38.962" gradientUnits="userSpaceOnUse"><stop offset="0" stop-color="#636363"/><stop offset="1" stop-color="#444"/></linearGradient><path fill="url(#ZdQ5K9QI3c1laLwVUHRNSc)" d="M34,16c0-0.394-0.3-0.702-0.614-0.958l-8.598-6.686C24.563,8.16,24.299,8,24,8	c-0.284,0-0.537,0.121-0.719,0.311l-4.82,5.426C18.177,14.082,18,14.518,18,15c0,1.791,3,3.33,3,7.51C21,33,13,39,13,39h11V16	c3.956,0,5.598,3,7,3c0.306,0,0.55-0.188,0.753-0.361l1.879-1.882C33.852,16.574,34,16.309,34,16z"/></svg>