<svg xmlns="http://www.w3.org/2000/svg" viewBox="0 0 48 48"><ellipse cx="34.448" cy="16.575" fill="#107c42" rx="10.5" ry="6" transform="rotate(-45.001 34.448 16.576)"/><path fill="#185c37" d="M38.691,20.818C34.59,24.919,29.364,26.341,27.024,24L41.873,9.151 C44.213,11.491,42.792,16.717,38.691,20.818z"/><radialGradient id="Te1HI5EVtWvjekT4gXoB0a" cx="26.978" cy="13.752" r="12.191" gradientTransform="matrix(.0044 -1 .5958 .0026 18.665 40.693)" gradientUnits="userSpaceOnUse"><stop offset=".841" stop-opacity=".2"/><stop offset="1" stop-opacity="0"/></radialGradient><path fill="url(#Te1HI5EVtWvjekT4gXoB0a)" d="M41.873,9.151c-2.341-2.341-7.566-0.919-11.667,3.182c-4.101,4.101-5.522,9.327-3.182,11.667	s7.566,0.919,11.667-3.182C42.792,16.717,44.213,11.491,41.873,9.151z"/><ellipse cx="27.024" cy="13.5" fill="#33c481" rx="6" ry="10.5"/><path fill="#21a366" d="M33.024,13.5c0,5.8-2.69,10.5-6,10.5V3C30.334,3,33.024,7.7,33.024,13.5z"/><linearGradient id="Te1HI5EVtWvjekT4gXoB0b" x1="14.437" x2="23.633" y1="11.271" y2="36.537" gradientUnits="userSpaceOnUse"><stop offset=".002" stop-color="#427fdb"/><stop offset=".397" stop-color="#2668cb"/><stop offset=".763" stop-color="#1358bf"/><stop offset="1" stop-color="#0c52bb"/></linearGradient><circle cx="18.524" cy="22.5" r="9.5" fill="url(#Te1HI5EVtWvjekT4gXoB0b)"/><linearGradient id="Te1HI5EVtWvjekT4gXoB0c" x1="27.859" x2="36.71" y1="17.684" y2="42.003" gradientUnits="userSpaceOnUse"><stop offset="0" stop-color="#2aa4f4"/><stop offset="1" stop-color="#007ad9"/></linearGradient><circle cx="32.524" cy="30.5" r="9.5" fill="url(#Te1HI5EVtWvjekT4gXoB0c)"/><linearGradient id="Te1HI5EVtWvjekT4gXoB0d" x1="11.918" x2="20.325" y1="23.721" y2="46.818" gradientUnits="userSpaceOnUse"><stop offset="0" stop-color="#a8e2f7"/><stop offset="1" stop-color="#47c1ff"/></linearGradient><circle cx="16.024" cy="35" r="10" fill="url(#Te1HI5EVtWvjekT4gXoB0d)"/><linearGradient id="Te1HI5EVtWvjekT4gXoB0e" x1="12.746" x2="17.786" y1="30.49" y2="44.338" gradientUnits="userSpaceOnUse"><stop offset=".002" stop-color="#427fdb"/><stop offset=".397" stop-color="#2668cb"/><stop offset=".763" stop-color="#1358bf"/><stop offset="1" stop-color="#0c52bb"/></linearGradient><path fill="url(#Te1HI5EVtWvjekT4gXoB0e)" d="M14.024,30c-2.209,0-4,1.791-4,4c0,2.209,1.791,4,4,4s4-1.791,4-4	C18.024,31.791,16.233,30,14.024,30z M14.024,36.25c-1.243,0-2.25-1.007-2.25-2.25c0-1.243,1.007-2.25,2.25-2.25	s2.25,1.007,2.25,2.25C16.274,35.243,15.266,36.25,14.024,36.25z"/><linearGradient id="Te1HI5EVtWvjekT4gXoB0f" x1="33.128" x2="37.529" y1="22.045" y2="34.135" gradientUnits="userSpaceOnUse"><stop offset=".002" stop-color="#427fdb"/><stop offset=".397" stop-color="#2668cb"/><stop offset=".763" stop-color="#1358bf"/><stop offset="1" stop-color="#0c52bb"/></linearGradient><path fill="url(#Te1HI5EVtWvjekT4gXoB0f)" d="M36.024,26c-2.209,0-4,1.791-4,4c0,2.209,1.791,4,4,4s4-1.791,4-4	C40.024,27.791,38.233,26,36.024,26z M36.024,32.25c-1.243,0-2.25-1.007-2.25-2.25c0-1.243,1.007-2.25,2.25-2.25	s2.25,1.007,2.25,2.25C38.274,31.243,37.266,32.25,36.024,32.25z"/><linearGradient id="Te1HI5EVtWvjekT4gXoB0g" x1="15.128" x2="19.529" y1="11.045" y2="23.135" gradientUnits="userSpaceOnUse"><stop offset=".002" stop-color="#427fdb"/><stop offset=".397" stop-color="#2668cb"/><stop offset=".763" stop-color="#1358bf"/><stop offset="1" stop-color="#0c52bb"/></linearGradient><path fill="url(#Te1HI5EVtWvjekT4gXoB0g)" d="M18.024,15c-2.209,0-4,1.791-4,4c0,2.209,1.791,4,4,4s4-1.791,4-4	C22.024,16.791,20.233,15,18.024,15z M18.024,21.25c-1.243,0-2.25-1.007-2.25-2.25c0-1.243,1.007-2.25,2.25-2.25	s2.25,1.007,2.25,2.25C20.274,20.243,19.266,21.25,18.024,21.25z"/></svg>