<svg xmlns="http://www.w3.org/2000/svg" viewBox="0 0 48 48"><path fill="#21a366" d="M23.893,4L9,4C7.343,4,6,5.343,6,7v12h19L22.8,8c0.914,0,0.876,0,1.2,0	c1.215,0,2.176-1.083,1.973-2.336C25.813,4.681,24.889,4,23.893,4z"/><path fill="#107c42" d="M22,18H9V7.686C9,7.307,9.307,7,9.686,7h9.742c0.331,0,0.615,0.237,0.675,0.563L22,18z"/><path fill="#21a366" d="M25,32h17.5l3.449-11.833L44.25,18H14.5C14.5,18,25,23.25,25,32z"/><linearGradient id="69NchXVoBIJbC9phWieE7a" x1="34.489" x2="36.377" y1="5.462" y2="18.103" gradientUnits="userSpaceOnUse"><stop offset="0" stop-color="#8795a1"/><stop offset="1" stop-color="#6d7882"/></linearGradient><path fill="url(#69NchXVoBIJbC9phWieE7a)" d="M36,18h-3V9c0-1.657,1.343-3,3-3h1.5C37.776,6,38,6.224,38,6.5v2C38,8.776,37.776,9,37.5,9H36	V18z"/><linearGradient id="69NchXVoBIJbC9phWieE7b" x1="43.847" x2="45.57" y1="16.447" y2="30.565" gradientUnits="userSpaceOnUse"><stop offset="0" stop-color="#21ad64"/><stop offset="1" stop-color="#088242"/></linearGradient><path fill="url(#69NchXVoBIJbC9phWieE7b)" d="M44.25,18c-0.966,0-1.75,0.784-1.75,1.75s0.784,1.75,1.75,1.75S46,20.716,46,19.75	S45.216,18,44.25,18z"/><path fill="#586169" d="M46,35c0,3.865-3.133,7-7,7s-7-3.135-7-7s3.133-7,7-7S46,31.135,46,35"/><path fill="#33c481" d="M29,32v-1.604c0-7.538-5.791-14.024-13.32-14.38C7.64,15.636,1,22.044,1,30v1c0,0.552,0.448,1,1,1H29	z"/><path fill="#586169" d="M27,30c0,6.626-5.374,12-12,12S3,36.626,3,30s5.374-12,12-12S27,23.374,27,30"/><path fill="#999" d="M42,35c0,1.658-1.342,3-3,3s-3-1.342-3-3s1.342-3,3-3S42,33.342,42,35"/><path fill="#999" d="M20,30c0,2.762-2.238,5-5,5s-5-2.238-5-5s2.238-5,5-5S20,27.238,20,30"/></svg>