<svg xmlns="http://www.w3.org/2000/svg" viewBox="0 0 48 48"><path fill="#199be2" d="M32.187,24c0,3.948-1.937,7.436-4.905,9.592l3.331,3.331c0.37,0.37,0.973,0.404,1.362,0.054	c3.555-3.193,5.793-7.822,5.793-12.977s-2.238-9.784-5.793-12.977c-0.389-0.349-0.992-0.315-1.362,0.054l-3.331,3.331	C30.25,16.564,32.187,20.052,32.187,24z"/><path fill="#35c1f1" d="M32.187,24c0-3.948-1.937-7.436-4.905-9.592l-4.036,4.036c1.996,1.051,3.359,3.143,3.359,5.556	s-1.363,4.505-3.359,5.556l4.036,4.036C30.25,31.436,32.187,27.948,32.187,24z"/><path fill="#50e6ff" d="M17.69,24l5.556,5.556c1.996-1.051,3.359-3.143,3.359-5.556s-1.363-4.505-3.359-5.556L17.69,24z"/><path fill="#5c6369" d="M12,32H8c-1.105,0-2-0.895-2-2V18c0-1.105,0.895-2,2-2h4V32z"/><polygon fill="#727d86" points="21,42 12,32 12,16 21,6"/><linearGradient id="XhOdTl0sjej3isK3~GKU6a" x1="12.403" x2="28.927" y1="11.868" y2="32.757" gradientUnits="userSpaceOnUse"><stop offset="0" stop-color="#a1aab3"/><stop offset="1" stop-color="#8f979e"/></linearGradient><path fill="url(#XhOdTl0sjej3isK3~GKU6a)" d="M22,5L22,5c-0.552,0-1,0.448-1,1v36c0,0.552,0.448,1,1,1h0c0.552,0,1-0.448,1-1V6	C23,5.448,22.552,5,22,5z"/></svg>