<svg xmlns="http://www.w3.org/2000/svg" viewBox="0 0 48 48"><linearGradient id="Ej_XKCHRYKUDRKpaHKfn5a" x1="10.904" x2="28.947" y1="5.395" y2="34.161" gradientUnits="userSpaceOnUse"><stop offset="0" stop-color="#75daff"/><stop offset="1" stop-color="#1ea2e4"/></linearGradient><path fill="url(#Ej_XKCHRYKUDRKpaHKfn5a)" d="M42.254,35c-0.324,0-0.567-0.163-0.729-0.489c-0.082-0.163-7.786-16.133-21.977-15.807	c-3.163,0.081-4.785,0.896-5.677,1.629h3.244c12.57,0,16.787,8.23,16.949,8.637c0.162,0.326,0.081,0.734-0.244,0.978	c-0.324,0.245-0.729,0.245-1.054,0c-1.541-1.304-6.001-3.585-10.785-4.726c1.054,1.548,2.838,2.608,2.838,2.608	c0.324,0.163,0.486,0.57,0.405,0.896s-0.405,0.57-0.811,0.57c-6.082,0-8.677-3.503-9.407-4.807c-3,0.163-4.865,0.978-6.163,1.63	l-0.324,0.162c-1.703,0.734-2.758,0.245-3.244-0.488c-0.568-0.897-0.325-2.526,1.378-4.156c2.028-7.252,9.083-7.822,12.084-7.822	c2.433,0,4.865,0.326,7.055,0.978C26.927,14.059,28.874,13,30.901,13c2.271,0,3.649,0.896,3.73,0.978	c0.244,0.163,0.406,0.489,0.325,0.815c-0.081,0.326-0.243,0.57-0.568,0.651c-0.892,0.245-2.352,0.978-2.595,1.63	c0,0.082-0.081,0.326,0.162,0.733c8.434,5.786,10.948,15.726,11.029,16.215c0.081,0.408-0.162,0.815-0.486,0.978	C42.417,35,42.336,35,42.254,35z"/></svg>