<svg xmlns="http://www.w3.org/2000/svg" viewBox="0 0 48 48"><rect width="40" height="8.86" x="3" y="29.07" fill="#e3a600"/><path fill="#c48c00" d="M43,37H3v5c0,1.105,0.895,2,2,2h36c1.105,0,2-0.895,2-2V37z"/><linearGradient id="beulD291m3ov71eyBGVCda" x1="23" x2="23" y1="1513.647" y2="1497.704" gradientTransform="translate(0 -1498)" gradientUnits="userSpaceOnUse"><stop offset="0" stop-color="#92a3b0"/><stop offset=".015" stop-color="#a3b5c4"/><stop offset=".032" stop-color="#aec2d1"/><stop offset=".046" stop-color="#b2c6d6"/></linearGradient><path fill="url(#beulD291m3ov71eyBGVCda)" d="M10,13v3h4v-3c0-4.971,4.029-9,9-9l0,0c4.971,0,9,4.029,9,9v3h4v-3c0-7.18-5.82-13-13-13l0,0	C15.82,0,10,5.82,10,13z"/><path fill="#fad500" d="M43,24H3v-6c0-1.105,0.895-2,2-2h36c1.105,0,2,0.895,2,2V24z"/><rect width="40" height="7" x="3" y="23" fill="#edbe00"/><linearGradient id="beulD291m3ov71eyBGVCdb" x1="23" x2="23" y1="1533.373" y2="1525.155" gradientTransform="translate(0 -1498)" gradientUnits="userSpaceOnUse"><stop offset="0" stop-color="#4b4b4b"/><stop offset="1" stop-color="#3b3b3b"/></linearGradient><path fill="url(#beulD291m3ov71eyBGVCdb)" d="M26,29c0-1.657-1.343-3-3-3s-3,1.343-3,3c0,1.304,0.837,2.403,2,2.816V35c0,0.552,0.448,1,1,1	s1-0.448,1-1v-3.184C25.163,31.403,26,30.304,26,29z"/><path d="M43,30.34V42c0,1.1-0.9,2-2,2H26.61C25.58,42.53,25,40.82,25,39	c0-5.51,5.38-10,12-10C39.18,29,41.23,29.49,43,30.34z" opacity=".05"/><path d="M43,30.89V42c0,1.1-0.9,2-2,2H27.23c-1.1-1.45-1.73-3.17-1.73-5	c0-5.24,5.16-9.5,11.5-9.5C39.2,29.5,41.25,30.01,43,30.89z" opacity=".07"/><radialGradient id="beulD291m3ov71eyBGVCdc" cx="6.48" cy="1489.521" r="11.236" gradientTransform="matrix(1.0389 0 0 1.0625 30.342 -1546.438)" gradientUnits="userSpaceOnUse"><stop offset=".55" stop-color="#e4e4e6"/><stop offset=".73" stop-color="#e1e2e4"/><stop offset=".854" stop-color="#d8dadc"/><stop offset=".961" stop-color="#c9cdcf"/><stop offset="1" stop-color="#c1c6c9"/></radialGradient><ellipse cx="37" cy="39" fill="url(#beulD291m3ov71eyBGVCdc)" rx="11" ry="9"/><linearGradient id="beulD291m3ov71eyBGVCdd" x1="32.065" x2="42.075" y1="1530.564" y2="1540.575" gradientTransform="translate(0 -1498)" gradientUnits="userSpaceOnUse"><stop offset="0" stop-color="#32bdef"/><stop offset="1" stop-color="#1ea2e4"/></linearGradient><ellipse cx="37" cy="37.5" fill="url(#beulD291m3ov71eyBGVCdd)" rx="8" ry="7.5"/><radialGradient id="beulD291m3ov71eyBGVCde" cx="2.121" cy="1506.155" r="8.738" gradientTransform="translate(32.733 -1533.575) scale(1.0397)" gradientUnits="userSpaceOnUse"><stop offset="0" stop-color="#4b4b4b"/><stop offset=".531" stop-color="#393939"/><stop offset="1" stop-color="#252525"/></radialGradient><circle cx="37" cy="37.5" r="3.5" fill="url(#beulD291m3ov71eyBGVCde)"/><circle cx="34.5" cy="35.5" r="1.5" fill="#fff"/></svg>