<svg xmlns="http://www.w3.org/2000/svg" viewBox="0 0 48 48"><linearGradient id="2lIBfbgkA6xGwfE~HjvSPa" x1="14.631" x2="32.972" y1="-1.742" y2="48.651" gradientUnits="userSpaceOnUse"><stop offset="0" stop-color="#7dd8f3"/><stop offset="1" stop-color="#45b0d0"/></linearGradient><path fill="url(#2lIBfbgkA6xGwfE~HjvSPa)" d="M33,39H5c-1.105,0-2-0.895-2-2V21C3,14.373,8.373,9,15,9h28c1.105,0,2,0.895,2,2v16	C45,33.627,39.627,39,33,39z"/><path fill="#fff" d="M19.03,18.989h-4.714v4.193h4.306c0.276,0,0.5,0.224,0.5,0.5v0.956c0,0.276-0.224,0.5-0.5,0.5 h-4.306v5.337c0,0.276-0.224,0.5-0.5,0.5H12.5c-0.276,0-0.5-0.224-0.5-0.5v-12.95c0-0.276,0.224-0.5,0.5-0.5h6.53 c0.276,0,0.5,0.224,0.5,0.5v0.965C19.53,18.765,19.306,18.989,19.03,18.989z"/><path fill="#fff" d="M36.5,30.975h-1.296c-0.276,0-0.5-0.224-0.5-0.5v-8.528c0-0.74,0.045-1.645,0.136-2.715h-0.039 c-0.143,0.61-0.27,1.047-0.379,1.314l-4.039,10.114c-0.076,0.19-0.26,0.315-0.464,0.315H29c-0.204,0-0.387-0.124-0.464-0.313 l-4.047-10.038c-0.117-0.305-0.24-0.768-0.37-1.391H24.08c0.052,0.557,0.078,1.469,0.078,2.734v8.508c0,0.276-0.224,0.5-0.5,0.5 h-1.14c-0.276,0-0.5-0.224-0.5-0.5v-12.95c0-0.276,0.224-0.5,0.5-0.5h2.419c0.205,0,0.39,0.125,0.465,0.316l3.543,8.974 c0.279,0.714,0.461,1.245,0.545,1.595h0.048c0.24-0.732,0.434-1.277,0.584-1.634l3.609-8.939c0.076-0.189,0.26-0.313,0.464-0.313 H36.5c0.276,0,0.5,0.224,0.5,0.5v12.95C37,30.751,36.776,30.975,36.5,30.975z"/></svg>