<svg xmlns="http://www.w3.org/2000/svg" viewBox="0 0 48 48"><linearGradient id="7WArP93A3KmXyd1W3stYUa" x1="16" x2="16" y1="8.976" y2="27.468" gradientUnits="userSpaceOnUse"><stop offset="0" stop-color="#c26715"/><stop offset=".492" stop-color="#c06515"/><stop offset=".669" stop-color="#b95f14"/><stop offset=".795" stop-color="#ae5514"/><stop offset=".897" stop-color="#9d4613"/><stop offset=".984" stop-color="#873311"/><stop offset="1" stop-color="#822f11"/></linearGradient><path fill="url(#7WArP93A3KmXyd1W3stYUa)" d="M16,9c-0.552,0-1,0.448-1,1v17h2V10C17,9.448,16.552,9,16,9z"/><linearGradient id="7WArP93A3KmXyd1W3stYUb" x1="7.714" x2="27.666" y1="11.984" y2="28.725" gradientUnits="userSpaceOnUse"><stop offset="0" stop-color="#33d7f0"/><stop offset=".127" stop-color="#30d2ed"/><stop offset=".281" stop-color="#27c3e6"/><stop offset=".449" stop-color="#18abd9"/><stop offset=".626" stop-color="#0389c7"/><stop offset=".652" stop-color="#0083c4"/></linearGradient><path fill="url(#7WArP93A3KmXyd1W3stYUb)" d="M9.952,6.997c-0.139,4.018-0.596,8.61-1.673,13.726c-0.132,0.628,0.338,1.222,0.979,1.214 c2.624-0.033,8.722,0.112,13.216,0.434c0.835,0.06,1.368-0.87,0.894-1.559c-2.673-3.883-7.981-10.435-11.689-14.458 C11.074,5.698,9.983,6.105,9.952,6.997z"/><linearGradient id="7WArP93A3KmXyd1W3stYUc" x1="29" x2="29" y1="8.978" y2="26.442" gradientUnits="userSpaceOnUse"><stop offset="0" stop-color="#c26715"/><stop offset=".492" stop-color="#c06515"/><stop offset=".669" stop-color="#b95f14"/><stop offset=".795" stop-color="#ae5514"/><stop offset=".897" stop-color="#9d4613"/><stop offset=".984" stop-color="#873311"/><stop offset="1" stop-color="#822f11"/></linearGradient><path fill="url(#7WArP93A3KmXyd1W3stYUc)" d="M29,9c-0.552,0-1,0.448-1,1v16h2V10C30,9.448,29.552,9,29,9z"/><linearGradient id="7WArP93A3KmXyd1W3stYUd" x1="23.867" x2="23.867" y1="23.576" y2="33.124" gradientUnits="userSpaceOnUse"><stop offset=".487" stop-color="#c26715"/><stop offset=".637" stop-color="#be6015"/><stop offset=".85" stop-color="#b54e16"/><stop offset=".979" stop-color="#ad3f16"/></linearGradient><path fill="url(#7WArP93A3KmXyd1W3stYUd)" d="M6,24c-0.552,0-1,0.448-1,1v4.076c0,2.229,1.581,4.96,3.514,6.07L10,36h23.554 c1.543,0,2.999-0.712,3.947-1.93l5.021-6.456C43.033,26.957,42.565,26,41.733,26H16.908c-0.592,0-1.171-0.175-1.664-0.504 l-1.488-0.992C13.263,24.175,12.684,24,12.092,24H6z"/><linearGradient id="7WArP93A3KmXyd1W3stYUe" x1="19" x2="19" y1="4502.919" y2="4504.999" gradientTransform="translate(0 -4474)" gradientUnits="userSpaceOnUse"><stop offset="0" stop-color="#341818"/><stop offset="1" stop-color="#4c2424"/></linearGradient><circle cx="19" cy="30" r="1" fill="url(#7WArP93A3KmXyd1W3stYUe)"/><linearGradient id="7WArP93A3KmXyd1W3stYUf" x1="12" x2="12" y1="4502.919" y2="4504.999" gradientTransform="translate(0 -4474)" gradientUnits="userSpaceOnUse"><stop offset="0" stop-color="#341818"/><stop offset="1" stop-color="#4c2424"/></linearGradient><circle cx="12" cy="30" r="1" fill="url(#7WArP93A3KmXyd1W3stYUf)"/><linearGradient id="7WArP93A3KmXyd1W3stYUg" x1="26" x2="26" y1="4502.919" y2="4504.999" gradientTransform="translate(0 -4474)" gradientUnits="userSpaceOnUse"><stop offset="0" stop-color="#341818"/><stop offset="1" stop-color="#4c2424"/></linearGradient><circle cx="26" cy="30" r="1" fill="url(#7WArP93A3KmXyd1W3stYUg)"/><linearGradient id="7WArP93A3KmXyd1W3stYUh" x1="33" x2="33" y1="4502.919" y2="4504.999" gradientTransform="translate(0 -4474)" gradientUnits="userSpaceOnUse"><stop offset="0" stop-color="#341818"/><stop offset="1" stop-color="#4c2424"/></linearGradient><circle cx="33" cy="30" r="1" fill="url(#7WArP93A3KmXyd1W3stYUh)"/><linearGradient id="7WArP93A3KmXyd1W3stYUi" x1="19.013" x2="39.701" y1="9.566" y2="37.263" gradientUnits="userSpaceOnUse"><stop offset="0" stop-color="#33d7f0"/><stop offset=".131" stop-color="#2fd0ec"/><stop offset=".327" stop-color="#22bbe1"/><stop offset=".562" stop-color="#0e9ad0"/><stop offset=".7" stop-color="#0083c4"/></linearGradient><path fill="url(#7WArP93A3KmXyd1W3stYUi)" d="M21.19,5.207c-0.107,4.951-0.514,10.958-1.906,17.511c-0.133,0.628,0.334,1.222,0.976,1.215 c3.112-0.035,11.271,0.238,18.119,0.996c0.894,0.099,1.454-0.933,0.881-1.626c-4.533-5.473-12.18-14.51-16.361-18.78 C22.279,3.891,21.209,4.322,21.19,5.207z"/><linearGradient id="7WArP93A3KmXyd1W3stYUj" x1="24" x2="24" y1="4506.951" y2="4516.994" gradientTransform="translate(0 -4474)" gradientUnits="userSpaceOnUse"><stop offset="0" stop-color="#2aa4f4"/><stop offset="1" stop-color="#007ad9"/></linearGradient><path fill="url(#7WArP93A3KmXyd1W3stYUj)" d="M42,34c-1.657,0-3-1-3-1s-1.343,1-3,1s-3-1-3-1s-1.343,1-3,1s-3-1-3-1s-1.343,1-3,1 s-3-1-3-1s-1.343,1-3,1s-3-1-3-1s-1.343,1-3,1s-3-1-3-1s-1.343,1-3,1s-3-1-3-1v8c0,1.105,0.895,2,2,2h38c1.105,0,2-0.895,2-2v-8 C45,33,43.657,34,42,34z"/></svg>