<svg xmlns="http://www.w3.org/2000/svg" viewBox="0 0 48 48"><path fill="#5059c9" d="M13.72,23H38c0.553,0,1,0.447,1,1s-0.447,1-1,1H5c-0.553,0-1-0.447-1-1V14c0-0.553,0.447-1,1-1h0.649	c0.431,0,0.812,0.275,0.948,0.684L9.704,23h1.909"/><path fill="#5059c9" d="M10.949,14.683c-0.175-0.524-0.737-0.808-1.265-0.632c-0.524,0.174-0.807,0.741-0.632,1.265	l2.92,8.76l1.887-0.66L10.949,14.683z"/><path fill="#7b83eb" d="M38,30c3.3,0,6-2.7,6-6s-2.7-6-6-6s-6,2.7-6,6S34.7,30,38,30z"/><path fill="#5059c9" d="M14.949,14.683c-0.175-0.524-0.737-0.808-1.265-0.632c-0.524,0.174-0.807,0.741-0.632,1.265	l2.92,8.76l1.887-0.66L14.949,14.683z"/><path fill="#5059c9" d="M18.949,14.683c-0.175-0.524-0.737-0.808-1.265-0.632c-0.524,0.174-0.807,0.741-0.632,1.265	l2.92,8.76l1.887-0.66L18.949,14.683z"/><path fill="#5059c9" d="M23.949,17.683c-0.175-0.524-0.736-0.807-1.265-0.632c-0.524,0.174-0.807,0.741-0.632,1.265	l1.982,5.949l1.933-0.52L23.949,17.683z"/></svg>