<svg xmlns="http://www.w3.org/2000/svg" viewBox="0 0 48 48"><linearGradient id="PM3G3896kNhZ7Hj5CYcYfa" x1="3.842" x2="40.481" y1="-2.698" y2="44.919" gradientUnits="userSpaceOnUse"><stop offset="0" stop-color="#d4943b"/><stop offset="1" stop-color="#c2620e"/><stop offset="1" stop-color="#c2620e"/></linearGradient><path fill="url(#PM3G3896kNhZ7Hj5CYcYfa)" d="M7,38l-1,1h36l-1-1c-2,0-2-2-2-2s0-23,0-25	s2-2,2-2l1-1H6l1,1c2,0,2,2,2,2v25C9,38,7,38,7,38z M27,11c0-1.105,0.896-2,2-2h2c1.104,0,2,0.895,2,2v25c0,1.105-0.896,2-2,2h-2	c-1.104,0-2-0.895-2-2V11z M15,11c0-1.105,0.896-2,2-2h2c1.104,0,2,0.895,2,2v25c0,1.105-0.896,2-2,2h-2c-1.104,0-2-0.895-2-2V11z"/><linearGradient id="PM3G3896kNhZ7Hj5CYcYfb" x1="9" x2="9" y1="43.429" y2="-8.47" gradientUnits="userSpaceOnUse"><stop offset="0" stop-color="#a34f27"/><stop offset=".587" stop-color="#8b3817"/><stop offset="1" stop-color="#802d10"/></linearGradient><path fill="url(#PM3G3896kNhZ7Hj5CYcYfb)" d="M7,38l-1,1h6V8H6l1,1c2,0,2,2,2,2v25	C9,38,7,38,7,38z"/><linearGradient id="PM3G3896kNhZ7Hj5CYcYfc" x1="21.5" x2="21.5" y1="43.429" y2="-8.47" gradientUnits="userSpaceOnUse"><stop offset="0" stop-color="#a34f27"/><stop offset=".587" stop-color="#8b3817"/><stop offset="1" stop-color="#802d10"/></linearGradient><path fill="url(#PM3G3896kNhZ7Hj5CYcYfc)" d="M19,38l1,1h4V8h-4l-1,1c2,0,2,2,2,2v25	C21,37.735,19,38,19,38z"/><linearGradient id="PM3G3896kNhZ7Hj5CYcYfd" x1="33.5" x2="33.5" y1="43.429" y2="-8.47" gradientUnits="userSpaceOnUse"><stop offset="0" stop-color="#a34f27"/><stop offset=".587" stop-color="#8b3817"/><stop offset="1" stop-color="#802d10"/></linearGradient><path fill="url(#PM3G3896kNhZ7Hj5CYcYfd)" d="M31,38l1,1h4V8h-4l-1,1c1.819,0,2,2,2,2v25	C33,37.731,31,38,31,38z"/><linearGradient id="PM3G3896kNhZ7Hj5CYcYfe" x1="24" x2="24" y1="11.329" y2="6.012" gradientUnits="userSpaceOnUse"><stop offset="0" stop-color="#a34f27"/><stop offset=".587" stop-color="#8b3817"/><stop offset="1" stop-color="#802d10"/></linearGradient><path fill="url(#PM3G3896kNhZ7Hj5CYcYfe)" d="M6,8l1,1c0,0,2-1,5,2	c0,0,0.181-0.237,0.499-0.572C13.805,9.056,15.105,9,17,9h2c1.78,0,3.335-0.063,4.593,1.197c0.137,0.137,0.273,0.284,0.407,0.441	c0,0,1.947-1.638,5-1.638h2c2.606,0,4.339,0.876,5,1.495c0,0,2-2.495,5-1.495l1-1H6z"/><linearGradient id="PM3G3896kNhZ7Hj5CYcYff" x1="24" x2="24" y1="41.329" y2="36.012" gradientTransform="rotate(180 24 38.5)" gradientUnits="userSpaceOnUse"><stop offset="0" stop-color="#eba84b"/><stop offset="1" stop-color="#d97218"/></linearGradient><path fill="url(#PM3G3896kNhZ7Hj5CYcYff)" d="M42,39l-1-1c0,0-2,1-5-2	c0,0-0.181,0.237-0.499,0.572C34.195,37.944,33,38,31,38h-2c-4,0-4.866-1.481-5-1.638c0,0-1,1.638-5,1.638h-2c-3,0-4.339-1.382-5-2	c0,0-2,3-5,2l-1,1H42z"/></svg>