<svg xmlns="http://www.w3.org/2000/svg" viewBox="0 0 48 48"><linearGradient id="z5WAMFWCN0djAJMPebP73a" x1="4.624" x2="11.305" y1="13.89" y2="40.085" gradientUnits="userSpaceOnUse"><stop offset="0" stop-color="#0077d2"/><stop offset="1" stop-color="#0b59a2"/></linearGradient><path fill="url(#z5WAMFWCN0djAJMPebP73a)" d="M13,14H5c-1.105,0-2,0.895-2,2v24c0,1.105,0.895,2,2,2h8V14z"/><linearGradient id="z5WAMFWCN0djAJMPebP73b" x1="18.044" x2="34.931" y1="1.537" y2="42.915" gradientUnits="userSpaceOnUse"><stop offset="0" stop-color="#ffcf54"/><stop offset=".261" stop-color="#fdcb4d"/><stop offset=".639" stop-color="#f7c13a"/><stop offset="1" stop-color="#f0b421"/></linearGradient><path fill="url(#z5WAMFWCN0djAJMPebP73b)" d="M41.998,14H27l1-4c0,0,3-2,3-6c0-2.209-1.791-4-4-4L13,14v28h24.713	c1.886,0,3.516-1.318,3.911-3.162l4.286-20C46.443,16.348,44.545,14,41.998,14z"/></svg>