<svg xmlns="http://www.w3.org/2000/svg" viewBox="0 0 48 48"><path fill="#0368ba" d="M13,34v-7.961c0-0.477-0.171-0.939-0.481-1.302L8.76,20.351C8.155,19.646,7,20.074,7,21.002V34H13z"/><path fill="#0368ba" d="M35,14v7.961c0,0.477,0.171,0.939,0.481,1.302l3.759,4.386c0.605,0.705,1.76,0.277,1.76-0.651V14H35z"/><path fill="#0884db" d="M32,29.81V34H7l4.828,4.828c0.75,0.75,1.768,1.172,2.828,1.172H32v4.19c0,0.72,0.87,1.08,1.379,0.571	l6.701-6.701c0.586-0.586,0.586-1.536,0-2.121l-6.701-6.701C32.87,28.729,32,29.09,32,29.81z"/><path fill="#0884db" d="M16,18.19V14h25l-4.828-4.828C35.421,8.421,34.404,8,33.343,8H16V3.81c0-0.72-0.87-1.08-1.379-0.571	l-6.701,6.7c-0.586,0.586-0.586,1.536,0,2.121l6.701,6.701C15.13,19.271,16,18.91,16,18.19z"/><path fill="#50e6ff" d="M24.024,19.912h-0.04l-2.302,1.142l-0.469-2.171l3.159-1.565h2.416V30.32h-2.764V19.912z"/></svg>