<svg xmlns="http://www.w3.org/2000/svg" data-name="Слой 1" viewBox="0 0 48 48"><defs><linearGradient id="sh1Tnoqs0C1DPqZNW2W2hc" x1="8.103" x2="35.103" y1="12.693" y2="43.41" data-name="Безымянный градиент 147" gradientUnits="userSpaceOnUse"><stop offset="0" stop-color="#dfe9f2"/><stop offset=".391" stop-color="#d6e0e9"/><stop offset="1" stop-color="#bfc8d1"/></linearGradient><linearGradient id="sh1Tnoqs0C1DPqZNW2W2hd" x1="25.854" x2="32.057" y1="5.61" y2="22.655" gradientUnits="userSpaceOnUse"><stop offset="0" stop-color="#a34f27"/><stop offset=".587" stop-color="#8b3817"/><stop offset="1" stop-color="#802d10"/></linearGradient><linearGradient id="sh1Tnoqs0C1DPqZNW2W2he" x1="25.144" x2="35.592" y1="4.875" y2="33.58" data-name="Безымянный градиент 121" gradientUnits="userSpaceOnUse"><stop offset="0" stop-color="#f44f5a"/><stop offset=".443" stop-color="#ee3d4a"/><stop offset="1" stop-color="#e52030"/></linearGradient><radialGradient id="sh1Tnoqs0C1DPqZNW2W2ha" cx="40" cy="39.002" r="8.784" data-name="Безымянный градиент 247" gradientUnits="userSpaceOnUse"><stop offset="0" stop-color="#6d6d6d"/><stop offset=".126" stop-color="#626262"/><stop offset=".987" stop-color="#464646"/><stop offset=".998" stop-color="#454545"/></radialGradient><radialGradient id="sh1Tnoqs0C1DPqZNW2W2hb" cx="40" cy="39.002" r="4.284" data-name="Безымянный градиент 242" gradientUnits="userSpaceOnUse"><stop offset="0" stop-color="#f9f9f9"/><stop offset=".26" stop-color="#f0f1f2"/><stop offset=".678" stop-color="#d9dcdf"/><stop offset="1" stop-color="#c2c8cc"/></radialGradient></defs><circle cx="40" cy="39.002" r="5" fill="url(#sh1Tnoqs0C1DPqZNW2W2ha)"/><circle cx="40" cy="39.002" r="3" fill="url(#sh1Tnoqs0C1DPqZNW2W2hb)"/><path fill="url(#sh1Tnoqs0C1DPqZNW2W2hc)" d="M40,40.0023a.9963.9963,0,0,1-.74707-.33545l-5.35645-6.02636L28.51953,38.121a3.88339,3.88339,0,0,1-6.00683-1.34472l-3.35547-7.21387L9.55762,19.0023H4a1,1,0,0,1,0-2h6a.99946.99946,0,0,1,.74023.32715l10,11a1.00047,1.00047,0,0,1,.166.251l3.41992,7.352a1.8822,1.8822,0,0,0,2.91211.65234l6.1211-5.10058a1.0002,1.0002,0,0,1,1.38769.10351l6,6.75A1,1,0,0,1,40,40.0023Z"/><path fill="url(#sh1Tnoqs0C1DPqZNW2W2hd)" d="M38,13.0023c-.01746,0-.03345.00488-.0509.00513A3.4631,3.4631,0,0,0,38,12.5023a3.5,3.5,0,0,0-3.5-3.5,3.462,3.462,0,0,0-1.56433.38465,2.99933,2.99933,0,0,0-5.87134,0A3.462,3.462,0,0,0,25.5,9.0023a3.5,3.5,0,0,0-3.5,3.5,3.4631,3.4631,0,0,0,.0509.50513c-.01745-.00025-.03344-.00513-.0509-.00513a4,4,0,1,0,2.87134,6.77637,2.96,2.96,0,0,0,2.25732,0,3.98072,3.98072,0,0,0,5.74268,0,2.96,2.96,0,0,0,2.25732,0A3.99756,3.99756,0,1,0,38,13.0023Z"/><path fill="url(#sh1Tnoqs0C1DPqZNW2W2he)" d="M16.05823,18.35589l3.41415,9.77966A2.011,2.011,0,0,0,20.9,29.43362l14.382,3.433a1.992,1.992,0,0,0,2.25872-1.09088l6.358-13.3163a1.01415,1.01415,0,0,0-.90026-1.45718H17.00114A1.01283,1.01283,0,0,0,16.05823,18.35589Z"/><rect width="6" height="2" x="3" y="17.002" fill="#b31523" rx="1"/></svg>