<svg xmlns="http://www.w3.org/2000/svg" viewBox="0 0 48 48"><path fill="#c48c00" d="M43,37H5v5c0,1.105,0.895,2,2,2h34c1.105,0,2-0.895,2-2V37z"/><linearGradient id="EfqYsfgup1ZToYe9MmaaLa" x1="24" x2="24" y1="-358.353" y2="-374.296" gradientTransform="translate(0 374)" gradientUnits="userSpaceOnUse"><stop offset="0" stop-color="#92a3b0"/><stop offset=".015" stop-color="#a3b5c4"/><stop offset=".032" stop-color="#aec2d1"/><stop offset=".046" stop-color="#b2c6d6"/></linearGradient><path fill="url(#EfqYsfgup1ZToYe9MmaaLa)" d="M11,13v3h4v-3c0-4.971,4.029-9,9-9l0,0c4.971,0,9,4.029,9,9v3h4v-3c0-7.18-5.82-13-13-13l0,0	C16.82,0,11,5.82,11,13z"/><path fill="#fad500" d="M43,23H5v-5c0-1.105,0.895-2,2-2h34c1.105,0,2,0.895,2,2V23z"/><rect width="38" height="7" x="5" y="23" fill="#edbe00"/><rect width="38" height="7" x="5" y="30" fill="#e3a600"/><path d="M23.332,35.026c-1.57,0-3.24,1.043-3.24,2.975	c0,1.948,1.67,2.999,3.24,2.999c1.887,0,3.204-1.233,3.204-2.999C26.536,36.048,24.924,35.026,23.332,35.026z" opacity=".05"/><path d="M23.332,40.5c-1.33,0-2.74-0.865-2.74-2.499	c0-1.626,1.433-2.475,2.74-2.475c1.318,0,2.704,0.803,2.704,2.475C26.036,39.579,24.82,40.5,23.332,40.5z" opacity=".07"/><path d="M21.778,34.761c-0.687,0-1.285-0.464-1.454-1.128	c-0.073-0.285-0.194-0.853-0.194-1.455c0-2.513,1.465-3.793,2.534-4.728c0.927-0.81,1.411-1.271,1.411-2.094	c0-0.597-0.365-0.9-1.085-0.9c-1.209,0-2.242,0.521-2.896,0.958c-0.25,0.168-0.541,0.257-0.84,0.257	c-0.388,0-0.755-0.147-1.036-0.414c-0.299-0.284-0.463-0.669-0.463-1.084v-2.669c0-0.547,0.299-1.052,0.78-1.317	C19.971,19.399,21.625,19,23.452,19c6.302,0,6.792,4.421,6.792,5.776c0,2.948-1.795,4.447-3.106,5.541	c-0.877,0.732-1.511,1.261-1.556,1.955c-0.007,0.116,0.009,0.35,0.076,0.659c0.1,0.449-0.008,0.913-0.296,1.272	c-0.286,0.356-0.711,0.559-1.167,0.559L21.778,34.761L21.778,34.761z" opacity=".05"/><path d="M21.778,34.261c-0.458,0-0.857-0.309-0.97-0.751	c-0.067-0.263-0.179-0.784-0.179-1.332c0-2.286,1.311-3.431,2.364-4.352c0.884-0.772,1.582-1.382,1.582-2.47	c0-1.299-1.213-1.4-1.585-1.4c-1.335,0-2.462,0.567-3.174,1.042c-0.168,0.113-0.363,0.172-0.563,0.172	c-0.258,0-0.504-0.098-0.691-0.276c-0.198-0.188-0.308-0.445-0.308-0.722v-2.669c0-0.365,0.2-0.702,0.522-0.879	c1.36-0.747,2.933-1.125,4.675-1.125c5.679,0,6.292,3.689,6.292,5.276c0,2.714-1.623,4.068-2.927,5.157	c-0.936,0.781-1.675,1.398-1.734,2.306c-0.013,0.197,0.019,0.488,0.087,0.798c0.067,0.301-0.005,0.612-0.198,0.853	c-0.19,0.236-0.473,0.372-0.776,0.372C24.195,34.261,21.778,34.261,21.778,34.261z" opacity=".07"/><radialGradient id="EfqYsfgup1ZToYe9MmaaLb" cx="17.716" cy="28.105" r="22.346" gradientTransform="matrix(1 0 0 -1 0 48)" gradientUnits="userSpaceOnUse"><stop offset="0" stop-color="#4b4b4b"/><stop offset=".531" stop-color="#393939"/><stop offset="1" stop-color="#252525"/></radialGradient><path fill="url(#EfqYsfgup1ZToYe9MmaaLb)" d="M21.778,33.761c-0.23,0-0.429-0.152-0.485-0.375c-0.081-0.319-0.163-0.765-0.163-1.208	c0-3.832,3.945-3.979,3.945-6.821c0-1.789-1.768-1.9-2.085-1.9c-1.43,0-2.637,0.582-3.452,1.127	c-0.336,0.225-0.783-0.007-0.783-0.411v-2.669c0-0.185,0.101-0.352,0.263-0.441C19.795,20.637,21.261,20,23.452,20	c5.72,0,5.792,3.932,5.792,4.776c0,4.348-4.491,4.82-4.66,7.431c-0.018,0.282,0.031,0.636,0.098,0.937	c0.07,0.316-0.162,0.617-0.486,0.617H21.778z"/><radialGradient id="EfqYsfgup1ZToYe9MmaaLc" cx="17.716" cy="28.105" r="22.346" gradientTransform="matrix(1 0 0 -1 0 48)" gradientUnits="userSpaceOnUse"><stop offset="0" stop-color="#4b4b4b"/><stop offset=".531" stop-color="#393939"/><stop offset="1" stop-color="#252525"/></radialGradient><path fill="url(#EfqYsfgup1ZToYe9MmaaLc)" d="M23.332,40c-1.089,0-2.24-0.679-2.24-1.999s1.196-1.975,2.24-1.975s2.204,0.585,2.204,1.975	C25.536,39.391,24.421,40,23.332,40z"/></svg>