<svg xmlns="http://www.w3.org/2000/svg" viewBox="0 0 48 48"><linearGradient id="4dPHfZ9DX6AuIrXTT4Cdla" x1="6.414" x2="35.315" y1="465.552" y2="486.661" gradientTransform="translate(0 -451.89)" gradientUnits="userSpaceOnUse"><stop offset="0" stop-color="#28afea"/><stop offset="1" stop-color="#047ed6"/></linearGradient><path fill="url(#4dPHfZ9DX6AuIrXTT4Cdla)" d="M6,40V12h36v28c0,1.1-0.9,2-2,2H8C6.9,42,6,41.1,6,40z"/><path fill="#fff" d="M23.647,18.603l-2.121,4.756l-5.178,0.547c-0.333,0.035-0.467,0.448-0.219,0.673l3.868,3.486 l-1.08,5.095c-0.069,0.328,0.282,0.583,0.572,0.415L24,30.972l4.511,2.602c0.29,0.167,0.641-0.088,0.572-0.415l-1.08-5.095 l3.868-3.486c0.249-0.224,0.115-0.637-0.219-0.673l-5.178-0.547l-2.121-4.756C24.217,18.297,23.783,18.297,23.647,18.603z"/><linearGradient id="4dPHfZ9DX6AuIrXTT4Cdlb" x1="6.42" x2="41.198" y1="458.498" y2="465.57" gradientTransform="translate(0 -451.89)" gradientUnits="userSpaceOnUse"><stop offset="0" stop-color="#0077d2"/><stop offset="1" stop-color="#0b59a2"/></linearGradient><path fill="url(#4dPHfZ9DX6AuIrXTT4Cdlb)" d="M42,8v6H6V8c0-1.1,0.9-2,2-2h32C41.1,6,42,6.9,42,8z"/><path d="M35.5,12.5L35.5,12.5c-1.657,0-3-1.343-3-3V6h6v3.5 C38.5,11.157,37.157,12.5,35.5,12.5z" opacity=".05"/><path d="M35.5,11.75L35.5,11.75c-1.243,0-2.25-1.007-2.25-2.25V6h4.5v3.5 C37.75,10.743,36.743,11.75,35.5,11.75z" opacity=".07"/><path d="M12.5,12.5L12.5,12.5c-1.657,0-3-1.343-3-3V6h6v3.5 C15.5,11.157,14.157,12.5,12.5,12.5z" opacity=".05"/><path d="M12.5,11.75L12.5,11.75c-1.243,0-2.25-1.007-2.25-2.25V6h4.5v3.5 C14.75,10.743,13.743,11.75,12.5,11.75z" opacity=".07"/><path fill="#3ccbf4" d="M12.5,11L12.5,11c-0.828,0-1.5-0.672-1.5-1.5v-4C11,4.672,11.672,4,12.5,4l0,0 C13.328,4,14,4.672,14,5.5v4C14,10.328,13.328,11,12.5,11z"/><path fill="#3ccbf4" d="M35.5,11L35.5,11c-0.828,0-1.5-0.672-1.5-1.5v-4C34,4.672,34.672,4,35.5,4l0,0 C36.328,4,37,4.672,37,5.5v4C37,10.328,36.328,11,35.5,11z"/><radialGradient id="4dPHfZ9DX6AuIrXTT4Cdlc" cx="38.021" cy="-601.932" r="11.757" gradientTransform="matrix(1 0 0 -1 0 -563.89)" gradientUnits="userSpaceOnUse"><stop offset="0"/><stop offset="1" stop-opacity="0"/></radialGradient><path fill="url(#4dPHfZ9DX6AuIrXTT4Cdlc)" d="M38,26c-6.627,0-12,5.373-12,12c0,1.405,0.254,2.747,0.697,4H40c1.1,0,2-0.9,2-2V26.697 C40.747,26.254,39.405,26,38,26z"/><linearGradient id="4dPHfZ9DX6AuIrXTT4Cdld" x1="30.929" x2="45.071" y1="-2212.819" y2="-2226.96" gradientTransform="matrix(1 0 0 -1 0 -2181.89)" gradientUnits="userSpaceOnUse"><stop offset="0" stop-color="#21ad64"/><stop offset="1" stop-color="#088242"/></linearGradient><path fill="url(#4dPHfZ9DX6AuIrXTT4Cdld)" d="M48,38c0,5.522-4.478,10-10,10s-10-4.478-10-10s4.478-10,10-10S48,32.478,48,38z"/><path fill="#fff" d="M36.646,42.354l-4-4c-0.195-0.195-0.195-0.512,0-0.707l0.707-0.707c0.195-0.195,0.512-0.195,0.707,0 L37,39.879l5.439-5.439c0.195-0.195,0.512-0.195,0.707,0l0.707,0.707c0.195,0.195,0.195,0.512,0,0.707l-6.5,6.5 C37.158,42.549,36.842,42.549,36.646,42.354z"/></svg>