<svg xmlns="http://www.w3.org/2000/svg" viewBox="0 0 48 48"><linearGradient id="k6aQSIEJUqPlhRBIdnTkGa" x1="37.5" x2="37.5" y1="42.084" y2="34.084" gradientUnits="userSpaceOnUse"><stop offset="0" stop-color="#eba600"/><stop offset="1" stop-color="#c28200"/></linearGradient><path fill="url(#k6aQSIEJUqPlhRBIdnTkGa)" d="M36,34v7c0,0.552,0.448,1,1,1h1c0.552,0,1-0.448,1-1v-7H36z"/><linearGradient id="k6aQSIEJUqPlhRBIdnTkGb" x1="10.5" x2="10.5" y1="42.084" y2="34.084" gradientUnits="userSpaceOnUse"><stop offset="0" stop-color="#eba600"/><stop offset="1" stop-color="#c28200"/></linearGradient><path fill="url(#k6aQSIEJUqPlhRBIdnTkGb)" d="M9,34v7c0,0.552,0.448,1,1,1h1c0.552,0,1-0.448,1-1v-7H9z"/><linearGradient id="k6aQSIEJUqPlhRBIdnTkGc" x1="5" x2="43" y1="31.5" y2="31.5" gradientUnits="userSpaceOnUse"><stop offset="0" stop-color="#ffcf54"/><stop offset=".261" stop-color="#fdcb4d"/><stop offset=".639" stop-color="#f7c13a"/><stop offset="1" stop-color="#f0b421"/></linearGradient><path fill="url(#k6aQSIEJUqPlhRBIdnTkGc)" d="M42,34H6c-0.552,0-1-0.448-1-1v-3c0-0.552,0.448-1,1-1h36c0.552,0,1,0.448,1,1v3	C43,33.552,42.552,34,42,34z"/><linearGradient id="k6aQSIEJUqPlhRBIdnTkGd" x1="9" x2="15" y1="17.5" y2="17.5" gradientUnits="userSpaceOnUse"><stop offset="0" stop-color="#7819a2"/><stop offset="1" stop-color="#771aa9"/></linearGradient><path fill="url(#k6aQSIEJUqPlhRBIdnTkGd)" d="M10,6h4c0.552,0,1,0.448,1,1v21c0,0.552-0.448,1-1,1h-4c-0.552,0-1-0.448-1-1V7	C9,6.448,9.448,6,10,6z"/><path fill="#107c42" d="M18,6h4c0.552,0,1,0.448,1,1v21c0,0.552-0.448,1-1,1h-4c-0.552,0-1-0.448-1-1V7	C17,6.448,17.448,6,18,6z"/><path fill="#af2031" d="M24,12h4c0.552,0,1,0.448,1,1v15c0,0.552-0.448,1-1,1h-4c-0.552,0-1-0.448-1-1V13	C23,12.448,23.448,12,24,12z"/><linearGradient id="k6aQSIEJUqPlhRBIdnTkGe" x1="9" x2="15" y1="10" y2="10" gradientUnits="userSpaceOnUse"><stop offset="0" stop-color="#912fbd"/><stop offset="1" stop-color="#9332bf"/></linearGradient><rect width="6" height="2" x="9" y="9" fill="url(#k6aQSIEJUqPlhRBIdnTkGe)"/><linearGradient id="k6aQSIEJUqPlhRBIdnTkGf" x1="9" x2="15" y1="25" y2="25" gradientUnits="userSpaceOnUse"><stop offset="0" stop-color="#912fbd"/><stop offset="1" stop-color="#9332bf"/></linearGradient><rect width="6" height="2" x="9" y="24" fill="url(#k6aQSIEJUqPlhRBIdnTkGf)"/><rect width="6" height="2" x="17" y="9" fill="#21a366"/><rect width="6" height="2" x="17" y="24" fill="#21a366"/><rect width="6" height="2" x="23" y="15" fill="#c94f60"/><rect width="6" height="2" x="23" y="24" fill="#c94f60"/><path fill="#027ad4" d="M38.822,27.581l-4.102,1.367c-0.531,0.177-1.104-0.116-1.271-0.65l-4.403-14.091	c-0.163-0.52,0.121-1.075,0.638-1.247l4.102-1.367c0.531-0.177,1.104,0.116,1.271,0.65l4.403,14.091	C39.623,26.854,39.339,27.409,38.822,27.581z"/><polygon fill="#25a2e5" points="32.872,26.452 32.273,24.535 38.26,22.494 38.859,24.411"/><polygon fill="#25a2e5" points="29.576,15.904 30.175,17.821 36.15,15.74 35.551,13.823"/></svg>