<svg xmlns="http://www.w3.org/2000/svg" data-name="Слой 1" viewBox="0 0 48 48"><defs><linearGradient id="JNMuX2pF2HRHMo316wur0a" x1="15.478" x2="34.518" y1=".586" y2="52.898" gradientUnits="userSpaceOnUse"><stop offset=".002" stop-color="#427fdb"/><stop offset=".397" stop-color="#2668cb"/><stop offset=".763" stop-color="#1358bf"/><stop offset="1" stop-color="#0c52bb"/></linearGradient></defs><circle cx="24" cy="24" r="20" fill="url(#JNMuX2pF2HRHMo316wur0a)"/><path fill="#fff" d="M26,20l-13.998-.0065A6.06225,6.06225,0,0,0,10,24.47332V33.136A4.85477,4.85477,0,0,0,14.8461,38H26V35l.5-1,.25-4-.25-1V25L26,24Z"/><path fill="#fff" d="M24.75,13.25A2.18636,2.18636,0,0,0,22.68655,11L12.002,19.9935c-.09453.09286-.16315.15886-.252.25649H23c-2.75-1.75-.25-2.5-.75-4A2.85379,2.85379,0,0,0,24.75,13.25Z"/><path fill="#fff" d="M25,20H35a2,2,0,0,1,2,2v0a2,2,0,0,1-2,2H25a0,0,0,0,1,0,0V20a0,0,0,0,1,0,0Z"/><path fill="#fff" d="M25,35h7.5A1.5,1.5,0,0,1,34,36.5v0A1.5,1.5,0,0,1,32.5,38H25a0,0,0,0,1,0,0V35A0,0,0,0,1,25,35Z"/><path fill="#fff" d="M25,25H37a2,2,0,0,1,2,2v0a2,2,0,0,1-2,2H25a0,0,0,0,1,0,0V25A0,0,0,0,1,25,25Z"/><path fill="#fff" d="M25,30H36a2,2,0,0,1,2,2v0a2,2,0,0,1-2,2H25a0,0,0,0,1,0,0V30A0,0,0,0,1,25,30Z"/><path fill="#fff" d="M35,14.33333a2.51478,2.51478,0,1,1-5.02038,0C29.97962,12.86067,32.48981,9,32.48981,9S35,12.86067,35,14.33333Z"/><path fill="#fff" d="M28.99592,9.33333a1.5065,1.5065,0,1,1-2.99592,0C26,8.41292,27.498,6,27.498,6S28.99592,8.41292,28.99592,9.33333Z"/></svg>