<svg xmlns="http://www.w3.org/2000/svg" viewBox="0 0 48 48"><linearGradient id="ohCKxDXX8lGRv8Kntd7DOa" x1="15.754" x2="22.268" y1="2.287" y2="19.44" gradientUnits="userSpaceOnUse"><stop offset="0" stop-color="#1ea2e4"/><stop offset="1" stop-color="#007ad9"/></linearGradient><path fill="url(#ohCKxDXX8lGRv8Kntd7DOa)" d="M24,4C12.954,4,4,12.954,4,24s8.954,20,20,20s20-8.954,20-20S35.046,4,24,4z"/><path fill="#184686" d="M21.647,39.294c0,0,13.604-8.309,9.412-22.353c-4.706-3.529-14.118-2.353-14.118-2.353 s-2.353,3.529-2.353,10.588C14.588,25.176,14.588,33.412,21.647,39.294z"/><path fill="#0a68b6" d="M42.619,31.262c-1.345-10.06-9.962-17.851-20.384-17.851c-1.049,0-2.078,0.084-3.085,0.236 c-0.626,0.859-1.173,1.778-1.638,2.745c1.507-0.406,3.088-0.628,4.722-0.628c10.055,0,18.235,8.18,18.235,18.235 c0,0.482-0.035,0.956-0.073,1.432C41.296,34.145,42.04,32.746,42.619,31.262z"/><path fill="#22b0ef" d="M28.706,42.824C18.327,42.824,9.882,34.379,9.882,24S18.327,5.176,28.706,5.176 c0.854,0,1.688,0.076,2.512,0.188C28.976,4.495,26.548,4,24,4c-0.946,0-1.868,0.088-2.779,0.216 C13.233,7.249,7.529,14.961,7.529,24s5.704,16.751,13.692,19.784C22.132,43.912,23.054,44,24,44c2.548,0,4.975-0.495,7.218-1.364 C30.394,42.747,29.56,42.824,28.706,42.824z"/><path fill="#22b0ef" d="M33.407,41.647C23.679,41.645,15.765,33.729,15.765,24S23.679,6.355,33.407,6.353 c-1.465-0.782-3.044-1.372-4.696-1.772C19.947,6.705,13.412,14.593,13.412,24s6.535,17.295,15.299,19.419 C30.364,43.019,31.942,42.429,33.407,41.647z"/><path fill="#0a68b6" d="M30.609,31.434c1.505-2.912,2.268-6.061,2.268-9.362c0-1.013-0.076-2.021-0.225-3.018 c-0.858-0.6-1.772-1.119-2.728-1.567c0.392,1.495,0.601,3.033,0.601,4.584c0,2.92-0.674,5.708-2.005,8.282 c-1.501,2.907-3.759,5.333-6.536,7.067c0.639,0.545,1.32,1.039,2.033,1.489C26.794,36.998,29.058,34.441,30.609,31.434z"/><path fill="#0a68b6" d="M19.882,35.309c0.588,0.702,1.238,1.348,1.926,1.953c1.102-4.796,4.112-8.931,8.308-11.446 c0.196-0.935,0.312-1.889,0.358-2.86C25.368,25.442,21.538,29.933,19.882,35.309z M15.818,25.039 c2.294-4.236,6.153-7.371,10.762-8.729c-1.394-0.342-2.845-0.545-4.345-0.545c-0.147,0-0.292,0.012-0.438,0.015 c-2.153,1.194-4.069,2.769-5.667,4.644c-0.239,1.155-0.366,2.351-0.366,3.576C15.765,24.351,15.796,24.693,15.818,25.039z M26.605,13.838c-0.036,0.009-0.072,0.025-0.108,0.034c0.041,0.009,0.082,0.021,0.124,0.029L26.605,13.838z M30.409,20.144 c-0.086-0.778-0.221-1.547-0.406-2.307C24,19.531,19.087,23.929,16.7,29.627c0.369,1.094,0.842,2.138,1.408,3.125 C19.739,26.721,24.447,21.912,30.409,20.144z"/><path fill="#0a68b6" d="M36.284,22.387c0.006,0.216,0.014,0.432,0.014,0.648c0,2.884-0.692,5.748-2.002,8.284 c-1.929,3.736-5.118,6.693-8.978,8.345c0.914,0.474,1.869,0.882,2.868,1.193c3.482-1.951,6.354-4.884,8.2-8.456 c1.071-2.074,1.771-4.342,2.081-6.671C37.855,24.536,37.131,23.412,36.284,22.387z"/><path fill="#0a68b6" d="M41.647,27.529c0,3.542-1.06,6.832-2.866,9.597l0.149,0.148c2.777-3.12,4.595-7.103,4.981-11.508 c-0.82-9.339-8.08-16.838-17.301-18.047c-1.375,0.576-2.651,1.335-3.824,2.225C23.189,9.917,23.591,9.882,24,9.882 C33.731,9.882,41.647,17.799,41.647,27.529z"/></svg>