<svg xmlns="http://www.w3.org/2000/svg" viewBox="0 0 48 48"><linearGradient id="MS1ZJX0Rxo1wIaUaN_p1Da" x1="8.019" x2="39.979" y1="24" y2="24" gradientTransform="translate(-.022 .252)" gradientUnits="userSpaceOnUse"><stop offset="0" stop-color="#912fbd"/><stop offset="1" stop-color="#9332bf"/></linearGradient><path fill="url(#MS1ZJX0Rxo1wIaUaN_p1Da)" d="M36.958,4.216c-0.543,0.001-0.973,0.435-0.998,0.977c-0.399,8.604-6.208,12.394-12.761,16.836	c-6.894,4.573-14.732,9.714-15.16,21.192c-0.021,0.56,0.442,1.022,1.003,1.022l2.002-0.002c0.543-0.001,0.974-0.437,0.997-0.979	c0.398-9.405,6.693-13.576,13.362-17.934c6.588-4.369,14.115-9.397,14.559-20.087c0.023-0.561-0.442-1.027-1.004-1.026L36.958,4.216	z"/><linearGradient id="MS1ZJX0Rxo1wIaUaN_p1Db" x1="10" x2="39" y1="36" y2="36" gradientTransform="translate(-.022 .252)" gradientUnits="userSpaceOnUse"><stop offset="0" stop-color="#912fbd"/><stop offset="1" stop-color="#9332bf"/></linearGradient><path fill="url(#MS1ZJX0Rxo1wIaUaN_p1Db)" d="M38.017,41.215l-27,0.026c-0.6,0.001-1-0.399-1.001-0.999s0.399-1,0.999-1.001l27-0.026	c0.6-0.001,1,0.399,1.001,0.999S38.617,41.214,38.017,41.215z M36.013,37.217l-24,0.023c-0.6,0.001-1-0.399-1.001-0.999	c-0.001-0.6,0.399-1,0.999-1.001l24-0.023c0.6-0.001,1,0.399,1.001,0.999C37.013,36.816,36.613,37.216,36.013,37.217z M34.009,33.219l-20,0.019c-0.6,0.001-1-0.399-1.001-0.999s0.399-1,0.999-1.001l20-0.019c0.6-0.001,1,0.399,1.001,0.999	S34.609,33.218,34.009,33.219z"/><linearGradient id="MS1ZJX0Rxo1wIaUaN_p1Dc" x1="18" x2="30" y1="28" y2="28" gradientTransform="translate(-.022 .252)" gradientUnits="userSpaceOnUse"><stop offset="0" stop-color="#912fbd"/><stop offset="1" stop-color="#9332bf"/></linearGradient><path fill="url(#MS1ZJX0Rxo1wIaUaN_p1Dc)" d="M29.005,29.224l-10,0.01c-0.6,0.001-1-0.399-1.001-0.999c-0.001-0.6,0.399-1,0.999-1.001	l10-0.01c0.6-0.001,1,0.399,1.001,0.999C30.005,28.823,29.605,29.223,29.005,29.224z"/><linearGradient id="MS1ZJX0Rxo1wIaUaN_p1Dd" x1="9" x2="38" y1="8" y2="8" gradientTransform="translate(-.022 .252)" gradientUnits="userSpaceOnUse"><stop offset="0" stop-color="#c965eb"/><stop offset="1" stop-color="#c767e5"/></linearGradient><path fill="url(#MS1ZJX0Rxo1wIaUaN_p1Dd)" d="M36.986,9.216l-27,0.026c-0.6,0.001-1-0.399-1.001-0.999c-0.001-0.6,0.399-1,0.999-1.001	l27-0.026c0.6-0.001,1,0.399,1.001,0.999C37.986,8.815,37.586,9.215,36.986,9.216z"/><linearGradient id="MS1ZJX0Rxo1wIaUaN_p1De" x1="11" x2="37" y1="12" y2="12" gradientTransform="translate(-.022 .252)" gradientUnits="userSpaceOnUse"><stop offset="0" stop-color="#c965eb"/><stop offset="1" stop-color="#c767e5"/></linearGradient><path fill="url(#MS1ZJX0Rxo1wIaUaN_p1De)" d="M35.99,13.217l-24,0.023c-0.6,0.001-1-0.399-1.001-0.999c-0.001-0.6,0.399-1,0.999-1.001	l24-0.023c0.6-0.001,1,0.399,1.001,0.999C36.99,12.816,36.59,13.216,35.99,13.217z"/><linearGradient id="MS1ZJX0Rxo1wIaUaN_p1Df" x1="13" x2="34" y1="16" y2="16" gradientTransform="translate(-.022 .252)" gradientUnits="userSpaceOnUse"><stop offset="0" stop-color="#c965eb"/><stop offset="1" stop-color="#c767e5"/></linearGradient><path fill="url(#MS1ZJX0Rxo1wIaUaN_p1Df)" d="M32.994,17.22l-19,0.018c-0.6,0.001-1-0.399-1.001-0.999c-0.001-0.6,0.399-1,0.999-1.001	l19-0.018c0.6-0.001,1,0.399,1.001,0.999C33.993,16.819,33.594,17.219,32.994,17.22z"/><linearGradient id="MS1ZJX0Rxo1wIaUaN_p1Dg" x1="18" x2="30" y1="20" y2="20" gradientTransform="translate(-.022 .252)" gradientUnits="userSpaceOnUse"><stop offset="0" stop-color="#c965eb"/><stop offset="1" stop-color="#c767e5"/></linearGradient><path fill="url(#MS1ZJX0Rxo1wIaUaN_p1Dg)" d="M28.998,21.224l-10,0.01c-0.6,0.001-1-0.399-1.001-0.999c-0.001-0.6,0.399-1,0.999-1.001	l10-0.01c0.6-0.001,1,0.399,1.001,0.999C29.997,20.823,29.598,21.223,28.998,21.224z"/><linearGradient id="MS1ZJX0Rxo1wIaUaN_p1Dh" x1="8.021" x2="39.981" y1="24" y2="24" gradientTransform="translate(-.022 .252)" gradientUnits="userSpaceOnUse"><stop offset="0" stop-color="#c965eb"/><stop offset="1" stop-color="#c767e5"/></linearGradient><path fill="url(#MS1ZJX0Rxo1wIaUaN_p1Dh)" d="M38.999,44.214l-2.002,0.002c-0.543,0.001-0.975-0.435-0.999-0.977	c-0.416-9.404-6.719-13.563-13.396-17.909C16.005,20.974,8.468,15.96,8.004,5.271C7.98,4.71,8.444,4.243,9.006,4.243l1.999-0.002	c0.543-0.001,0.974,0.433,1,0.975c0.415,8.603,6.232,12.382,12.793,16.812c6.903,4.56,14.75,9.685,15.201,21.163	C40.021,43.751,39.559,44.214,38.999,44.214z"/></svg>