<svg xmlns="http://www.w3.org/2000/svg" viewBox="0 0 48 48"><linearGradient id="KF9TfG7kbeRbfx4zIV~7la" x1="14.678" x2="33.183" y1="-727.942" y2="-746.446" gradientTransform="matrix(1 0 0 -1 0 -698)" gradientUnits="userSpaceOnUse"><stop offset="0" stop-color="#f44f5a"/><stop offset=".443" stop-color="#ee3d4a"/><stop offset="1" stop-color="#e52030"/></linearGradient><path fill="url(#KF9TfG7kbeRbfx4zIV~7la)" d="M24,27.571c-7.732,0-14,4.921-14,10.286V43c0,1.105,0.783,2,1.75,2h24.5 c0.967,0,1.75-0.895,1.75-2v-5.143C38,32.492,31.732,27.571,24,27.571z"/><linearGradient id="KF9TfG7kbeRbfx4zIV~7lb" x1="19.079" x2="34" y1="36.285" y2="36.285" gradientUnits="userSpaceOnUse"><stop offset="0" stop-color="#ffcf54"/><stop offset=".261" stop-color="#fdcb4d"/><stop offset=".639" stop-color="#f7c13a"/><stop offset="1" stop-color="#f0b421"/></linearGradient><path fill="url(#KF9TfG7kbeRbfx4zIV~7lb)" d="M30,45l4-10l-4.41-6.524c-1.713-0.575-3.602-0.905-5.59-0.905 c-0.437,0-0.865,0.027-1.291,0.058l-0.765,0.076c-0.993,0.117-1.951,0.311-2.865,0.579L23.722,45H30z"/><radialGradient id="KF9TfG7kbeRbfx4zIV~7lc" cx="23.771" cy="1371.228" r="12.7" gradientTransform="matrix(1 0 0 .9545 0 -1292.045)" gradientUnits="userSpaceOnUse"><stop offset=".376" stop-color="#261103"/><stop offset=".68" stop-color="#431d06"/><stop offset="1" stop-color="#662c09"/></radialGradient><path fill="url(#KF9TfG7kbeRbfx4zIV~7lc)" d="M24,6C13.704,6,12,20.318,12,20.318c0,2.825,1.032,4.671,3,5.682c2.466,0.562,5.972,1,9,1 s7.535-0.439,10-1c1.005-1.011,2-2.857,2-5.682C36.001,20.317,34.296,6,24,6z"/><path fill="#d6a121" d="M28,28.738C28,30.285,25.736,32,24,32s-4-1.715-4-3.262C20,26.587,20,23,20,23h8 C28,23,28,26.587,28,28.738z"/><linearGradient id="KF9TfG7kbeRbfx4zIV~7ld" x1="-1166.395" x2="-1148.882" y1="1404.794" y2="1404.794" gradientTransform="matrix(-.7994 0 0 .8859 -901.416 -1229.475)" gradientUnits="userSpaceOnUse"><stop offset="0" stop-color="#ffcf54"/><stop offset=".261" stop-color="#fdcb4d"/><stop offset=".639" stop-color="#f7c13a"/><stop offset="1" stop-color="#f0b421"/></linearGradient><path fill="url(#KF9TfG7kbeRbfx4zIV~7ld)" d="M24,4.071c3.455,0,7,0.635,7,8.909c0,0.663,0,5.257,0,5.964C31,21.9,26.713,26,24,26 s-7-4.1-7-7.055c0-0.707,0-5.301,0-5.964C17,4.922,20.545,4.071,24,4.071z"/><radialGradient id="KF9TfG7kbeRbfx4zIV~7le" cx="17.431" cy="1356.436" r="29.797" gradientTransform="translate(0 -1354)" gradientUnits="userSpaceOnUse"><stop offset="0" stop-color="#c26715"/><stop offset=".508" stop-color="#b85515"/><stop offset="1" stop-color="#ad3f16"/></radialGradient><path fill="url(#KF9TfG7kbeRbfx4zIV~7le)" d="M24,2c-5.188,0-6,3-6,3c-2.109,0.311-6-0.478-6,16c0,3.801,2.205,4.779,3,5 c-2.6-14.364,5.576-9.964,4-19c4.046,11.813,15.422-1.68,15,19c1.029-0.293,2-2.501,2-5C36,7.194,31.399,2,24,2z"/><path d="M31.5,44c-3.032,0-5.5-2.468-5.5-5.5s2.468-5.5,5.5-5.5s5.5,2.468,5.5,5.5S34.532,44,31.5,44z M27,38.5c0,2.481,2.019,4.5,4.5,4.5s4.5-2.019,4.5-4.5c0,2.481-2.019,4.5-4.5,4.5S27,40.981,27,38.5z M31.5,35 c-1.93,0-3.5,1.57-3.5,3.5s1.57,3.5,3.5,3.5s3.5-1.57,3.5-3.5S33.43,35,31.5,35z" opacity=".05"/><path d="M31.5,43.5c-2.757,0-5-2.243-5-5s2.243-5,5-5s5,2.243,5,5S34.257,43.5,31.5,43.5z M31.5,34.5 c-2.206,0-4,1.794-4,4s1.794,4,4,4s4-1.794,4-4S33.706,34.5,31.5,34.5z" opacity=".07"/><linearGradient id="KF9TfG7kbeRbfx4zIV~7lf" x1="21.955" x2="27.633" y1="39.583" y2="45.527" gradientUnits="userSpaceOnUse"><stop offset="0" stop-color="#33bef0"/><stop offset="1" stop-color="#0a85d9"/></linearGradient><path fill="url(#KF9TfG7kbeRbfx4zIV~7lf)" d="M32,45c0.86-1.256,1.575-2.19,2-5c0.91-6.016-6-4-6-4s-8,1-15,9H32z"/><linearGradient id="KF9TfG7kbeRbfx4zIV~7lg" x1="27" x2="36" y1="38.5" y2="38.5" gradientUnits="userSpaceOnUse"><stop offset="0" stop-color="#ffcf54"/><stop offset=".261" stop-color="#fdcb4d"/><stop offset=".639" stop-color="#f7c13a"/><stop offset="1" stop-color="#f0b421"/></linearGradient><circle cx="31.5" cy="38.5" r="4.5" fill="url(#KF9TfG7kbeRbfx4zIV~7lg)"/></svg>