<svg xmlns="http://www.w3.org/2000/svg" viewBox="0 0 48 48"><linearGradient id="kKy~U_I7OeX8Onzf32lzTa" x1="9.858" x2="38.142" y1="9.858" y2="38.142" gradientUnits="userSpaceOnUse"><stop offset="0" stop-color="#f44f5a"/><stop offset=".443" stop-color="#ee3d4a"/><stop offset="1" stop-color="#e52030"/></linearGradient><path fill="url(#kKy~U_I7OeX8Onzf32lzTa)" d="M44,24c0,11.045-8.955,20-20,20S4,35.045,4,24S12.955,4,24,4S44,12.955,44,24z"/><path d="M14,27h20c1.105,0,2-0.895,2-2v-2c0-1.105-0.895-2-2-2H14c-1.105,0-2,0.895-2,2v2	C12,26.105,12.895,27,14,27z" opacity=".05"/><path d="M14,26.5h20c0.828,0,1.5-0.672,1.5-1.5v-2c0-0.828-0.672-1.5-1.5-1.5H14c-0.828,0-1.5,0.672-1.5,1.5	v2C12.5,25.828,13.172,26.5,14,26.5z" opacity=".07"/><path fill="#fff" d="M35,23v2c0,0.552-0.448,1-1,1H14c-0.552,0-1-0.448-1-1v-2c0-0.552,0.448-1,1-1h20	C34.552,22,35,22.448,35,23z"/></svg>