<svg xmlns="http://www.w3.org/2000/svg" viewBox="0 0 48 48"><linearGradient id="GYzMXTwbh4oBsSb20KZZAa" x1="18.511" x2="31.107" y1="12.529" y2="38.852" gradientUnits="userSpaceOnUse"><stop offset="0" stop-color="#21ad64"/><stop offset="1" stop-color="#088242"/></linearGradient><path fill="url(#GYzMXTwbh4oBsSb20KZZAa)" d="M38.591,10.351C34.941,6.451,29.763,4,24,4S13.059,6.451,9.409,10.351L24,20.2L38.591,10.351z M38.591,37.649L24,27.8L9.409,37.649C13.059,41.549,18.237,44,24,44S34.941,41.549,38.591,37.649z"/><linearGradient id="GYzMXTwbh4oBsSb20KZZAb" x1="11.722" x2="36.027" y1="7.952" y2="39.72" gradientUnits="userSpaceOnUse"><stop offset="0" stop-color="#636363"/><stop offset=".998" stop-color="#3b3b3b"/></linearGradient><path fill="url(#GYzMXTwbh4oBsSb20KZZAb)" d="M5.882,15.57C4.687,18.135,4,20.984,4,24s0.687,5.865,1.882,8.43L18.37,24L5.882,15.57z M42.118,32.43C43.313,29.865,44,27.016,44,24s-0.687-5.865-1.882-8.43L29.63,24L42.118,32.43z"/><linearGradient id="GYzMXTwbh4oBsSb20KZZAc" x1="15.925" x2="34.909" y1="10.871" y2="41.736" gradientUnits="userSpaceOnUse"><stop offset="0" stop-color="#ffd000"/><stop offset="1" stop-color="#ffc107"/></linearGradient><path fill="url(#GYzMXTwbh4oBsSb20KZZAc)" d="M42.118,15.57c-0.899-1.928-2.091-3.685-3.527-5.219L24,20.2L9.409,10.351	c-1.436,1.534-2.629,3.292-3.527,5.219L18.37,24L5.882,32.43c0.899,1.928,2.091,3.685,3.527,5.219L24,27.8l14.591,9.849	c1.436-1.534,2.629-3.292,3.527-5.219L29.63,24L42.118,15.57z"/></svg>