<svg xmlns="http://www.w3.org/2000/svg" viewBox="0 0 48 48"><linearGradient id="pXLyi~fTCUHH4ruT1qNhua" x1="18.088" x2="29.169" y1="4.844" y2="40.746" gradientUnits="userSpaceOnUse"><stop offset="0" stop-color="#33bef0"/><stop offset="1" stop-color="#0a85d9"/></linearGradient><path fill="url(#pXLyi~fTCUHH4ruT1qNhua)" d="M12.5,6h3C15.776,6,16,6.224,16,6.5v35c0,0.276-0.224,0.5-0.5,0.5h-3	c-0.276,0-0.5-0.224-0.5-0.5v-35C12,6.224,12.224,6,12.5,6z M18.5,42h1c0.276,0,0.5-0.224,0.5-0.5v-35C20,6.224,19.776,6,19.5,6h-1	C18.224,6,18,6.224,18,6.5v35C18,41.776,18.224,42,18.5,42z M6.5,42h3c0.276,0,0.5-0.224,0.5-0.5v-35C10,6.224,9.776,6,9.5,6h-3	C6.224,6,6,6.224,6,6.5v35C6,41.776,6.224,42,6.5,42z M22.5,42h7c0.276,0,0.5-0.224,0.5-0.5v-35C30,6.224,29.776,6,29.5,6h-7	C22.224,6,22,6.224,22,6.5v35C22,41.776,22.224,42,22.5,42z M38,6.5v35c0,0.276,0.224,0.5,0.5,0.5h3c0.276,0,0.5-0.224,0.5-0.5v-35	C42,6.224,41.776,6,41.5,6h-3C38.224,6,38,6.224,38,6.5z M32.5,42h3c0.276,0,0.5-0.224,0.5-0.5v-35C36,6.224,35.776,6,35.5,6h-3	C32.224,6,32,6.224,32,6.5v35C32,41.776,32.224,42,32.5,42z"/></svg>