<svg xmlns="http://www.w3.org/2000/svg" xmlns:xlink="http://www.w3.org/1999/xlink" data-name="Layer 1" viewBox="0 0 48 48"><defs><linearGradient id="pqB_GTzoq0z0E5mksDt6Da" x1="14.753" x2="1.121" y1="32.224" y2="45.856" data-name="Безымянный градиент 9" gradientUnits="userSpaceOnUse"><stop offset=".002" stop-color="#454545"/><stop offset=".013" stop-color="#464646"/><stop offset=".874" stop-color="#626262"/><stop offset="1" stop-color="#6d6d6d"/></linearGradient><linearGradient id="pqB_GTzoq0z0E5mksDt6Db" x1="41.162" x2="1.142" y1="33.162" y2="-6.858" xlink:href="#pqB_GTzoq0z0E5mksDt6Da"/><linearGradient id="pqB_GTzoq0z0E5mksDt6Dc" x1="20.859" x2="35.505" y1="-484.858" y2="-499.505" data-name="Безымянный градиент 83" gradientTransform="matrix(1 0 0 -1 0 -472)" gradientUnits="userSpaceOnUse"><stop offset="0" stop-color="#dfe9f2"/><stop offset=".391" stop-color="#d6e0e9"/><stop offset="1" stop-color="#bfc8d1"/></linearGradient><linearGradient id="pqB_GTzoq0z0E5mksDt6Dd" x1="26.504" x2="35.594" y1="-490.504" y2="-499.594" data-name="Безымянный градиент 2" gradientTransform="matrix(1 0 0 -1 0 -472)" gradientUnits="userSpaceOnUse"><stop offset="0" stop-color="#fed100"/><stop offset="1" stop-color="#e36001"/></linearGradient></defs><path fill="url(#pqB_GTzoq0z0E5mksDt6Da)" d="M14.325,29.851,3.942,39.081a2.80076,2.80076,0,1,0,3.954,3.954l9.23-10.383Z"/><circle cx="28" cy="20" r="18" fill="url(#pqB_GTzoq0z0E5mksDt6Db)"/><circle cx="28" cy="20" r="14" fill="#343434"/><path fill="url(#pqB_GTzoq0z0E5mksDt6Dc)" d="M37.97059,19.98529c0,3.20878-2.26916,4.085-3.63115,5.44648s-1.20972,4.53882-6.35415,4.53882c-8.17,0-9.98529-7.0596-9.98529-9.9853C18,15.90031,20.72349,10,27.98529,10c1.58417,0,2.96913.94411,4.53882,1.36149C36.60909,13.17732,37.97059,15.44648,37.97059,19.98529Z"/><path fill="url(#pqB_GTzoq0z0E5mksDt6Dd)" d="M29.5,18A3.5,3.5,0,1,0,33,21.5,3.5,3.5,0,0,0,29.5,18Z"/><path d="M27.98529,10c1.58417,0,2.96913.94409,4.53882,1.36151,4.085,1.8158,5.44647,4.085,5.44647,8.62378,0,3.2088-2.26914,4.085-3.63114,5.44647s-1.20973,4.53882-6.35415,4.53882C19.81532,29.97058,18,22.911,18,19.98529,18,15.90033,20.72349,10,27.98529,10m0-1C19.92555,9,17,15.56952,17,19.98529c0,3.05548,1.97352,10.98529,10.98529,10.98529,4.40236,0,5.57991-2.23938,6.35914-3.72119a4.80845,4.80845,0,0,1,.702-1.11041,11.57078,11.57078,0,0,1,.94271-.807c1.32832-1.06116,2.98146-2.38184,2.98146-5.34668,0-4.99536-1.63708-7.58032-6.0403-9.5376l-.0725-.03222-.07667-.02039a13.1594,13.1594,0,0,1-1.565-.56457A8.44471,8.44471,0,0,0,27.98529,9Z" opacity=".05"/><path d="M27.98529,10c1.58417,0,2.96913.94409,4.53882,1.36151,4.085,1.8158,5.44647,4.085,5.44647,8.62378,0,3.2088-2.26914,4.085-3.63114,5.44647s-1.20973,4.53882-6.35415,4.53882C19.81532,29.97058,18,22.911,18,19.98529,18,15.90033,20.72349,10,27.98529,10m0-.5C20.29239,9.5,17.5,15.77051,17.5,19.98529c0,2.91638,1.88369,10.48529,10.48529,10.48529,4.10037,0,5.15011-1.99628,5.91658-3.45392a5.182,5.182,0,0,1,.791-1.23126,11.91751,11.91751,0,0,1,.98411-.844c1.2446-.99433,2.79355-2.23176,2.79355-4.95606,0-4.81952-1.50294-7.19574-5.74338-9.08069l-.03626-.01611-.03834-.01019a13.751,13.751,0,0,1-1.62532-.58478A8.05889,8.05889,0,0,0,27.98529,9.5Z" opacity=".07"/></svg>