<svg xmlns="http://www.w3.org/2000/svg" viewBox="0 0 48 48"><linearGradient id="woell3tUZicXv9SF3TcWPa" x1="-324.925" x2="-324.925" y1="481.786" y2="486.196" gradientTransform="matrix(0 -1 -1 0 512 -281.89)" gradientUnits="userSpaceOnUse"><stop offset=".365" stop-color="#199ae0"/><stop offset=".699" stop-color="#1898de"/><stop offset=".819" stop-color="#1691d8"/><stop offset=".905" stop-color="#1186cc"/><stop offset=".974" stop-color="#0a75bc"/><stop offset="1" stop-color="#076cb3"/></linearGradient><path fill="url(#woell3tUZicXv9SF3TcWPa)" d="M25,46.071V40h4.864c0.445,0,0.669,0.539,0.354,0.854L25,46.071z"/><linearGradient id="woell3tUZicXv9SF3TcWPb" x1="-321.313" x2="-317.639" y1="500.757" y2="475.497" gradientTransform="matrix(0 -1 -1 0 512 -281.89)" gradientUnits="userSpaceOnUse"><stop offset="0" stop-color="#32bdef"/><stop offset="1" stop-color="#1ea2e4"/></linearGradient><path fill="url(#woell3tUZicXv9SF3TcWPb)" d="M26,43h-4V33c0-0.552,0.448-1,1-1h2c0.552,0,1,0.448,1,1V43z"/><linearGradient id="woell3tUZicXv9SF3TcWPc" x1="-327.545" x2="-321.336" y1="506.914" y2="464.224" gradientTransform="matrix(0 -1 -1 0 512 -281.89)" gradientUnits="userSpaceOnUse"><stop offset="0" stop-color="#32bdef"/><stop offset="1" stop-color="#1ea2e4"/></linearGradient><path fill="url(#woell3tUZicXv9SF3TcWPc)" d="M25.707,45.364l-1,1c-0.391,0.391-1.024,0.391-1.414,0l-5.51-5.51 C17.468,40.539,17.691,40,18.136,40H26v4.657C26,44.922,25.895,45.176,25.707,45.364z"/><path fill="#727d86" d="M45,19v2c0,0.55-0.45,1-1,1H4c-0.55,0-1-0.45-1-1v-2c0-0.55,0.45-1,1-1h40C44.55,18,45,18.45,45,19z"/><linearGradient id="woell3tUZicXv9SF3TcWPd" x1="288.854" x2="288.854" y1="481.786" y2="486.196" gradientTransform="rotate(90 397.945 114.055)" gradientUnits="userSpaceOnUse"><stop offset=".365" stop-color="#199ae0"/><stop offset=".699" stop-color="#1898de"/><stop offset=".819" stop-color="#1691d8"/><stop offset=".905" stop-color="#1186cc"/><stop offset=".974" stop-color="#0a75bc"/><stop offset="1" stop-color="#076cb3"/></linearGradient><path fill="url(#woell3tUZicXv9SF3TcWPd)" d="M25,1.929V8h4.864c0.445,0,0.669-0.539,0.354-0.854L25,1.929z"/><linearGradient id="woell3tUZicXv9SF3TcWPe" x1="292.467" x2="296.141" y1="500.757" y2="475.497" gradientTransform="rotate(90 397.945 114.055)" gradientUnits="userSpaceOnUse"><stop offset="0" stop-color="#32bdef"/><stop offset="1" stop-color="#1ea2e4"/></linearGradient><path fill="url(#woell3tUZicXv9SF3TcWPe)" d="M26,5h-4v10c0,0.552,0.448,1,1,1h2c0.552,0,1-0.448,1-1V5z"/><linearGradient id="woell3tUZicXv9SF3TcWPf" x1="286.234" x2="292.444" y1="506.914" y2="464.224" gradientTransform="rotate(90 397.945 114.055)" gradientUnits="userSpaceOnUse"><stop offset="0" stop-color="#32bdef"/><stop offset="1" stop-color="#1ea2e4"/></linearGradient><path fill="url(#woell3tUZicXv9SF3TcWPf)" d="M25.707,2.636l-1-1c-0.391-0.391-1.024-0.391-1.414,0l-5.51,5.51 C17.468,7.461,17.691,8,18.136,8H26V3.343C26,3.078,25.895,2.824,25.707,2.636z"/><path fill="#727d86" d="M45,29v-2c0-0.55-0.45-1-1-1H4c-0.55,0-1,0.45-1,1v2c0,0.55,0.45,1,1,1h40C44.55,30,45,29.55,45,29z"/></svg>