<svg xmlns="http://www.w3.org/2000/svg" viewBox="0 0 48 48"><linearGradient id="DrB12zy~bWVi9~NtaCUCja" x1="21.313" x2="25.618" y1="6.079" y2="31.448" gradientUnits="userSpaceOnUse"><stop offset="0" stop-color="#fcfcfc"/><stop offset="1" stop-color="#c3c9cd"/></linearGradient><path fill="url(#DrB12zy~bWVi9~NtaCUCja)" d="M34,11c-0.331,0-0.657,0.018-0.98,0.049C30.741,7.99,27.108,6,23,6	c-5.713,0-10.52,3.837-12.012,9.071C7.049,15.569,4,18.925,4,23c0,4.418,3.582,8,8,8c1.818,0,20.107,0,22,0c5.523,0,10-4.477,10-10	C44,15.477,39.523,11,34,11z"/><linearGradient id="DrB12zy~bWVi9~NtaCUCjb" x1="23.069" x2="23.721" y1="33.551" y2="38.051" gradientUnits="userSpaceOnUse"><stop offset="0" stop-color="#2aa4f4"/><stop offset=".595" stop-color="#0f80e3"/><stop offset="1" stop-color="#006dd9"/></linearGradient><path fill="url(#DrB12zy~bWVi9~NtaCUCjb)" d="M25,36.5c0,0.828-0.672,1.5-1.5,1.5S22,37.328,22,36.5c0-0.681,1.015-2.353,1.375-2.925	c0.058-0.093,0.191-0.093,0.25,0C23.985,34.147,25,35.819,25,36.5z"/><linearGradient id="DrB12zy~bWVi9~NtaCUCjc" x1="21.712" x2="22.148" y1="41.034" y2="44.034" gradientUnits="userSpaceOnUse"><stop offset="0" stop-color="#2aa4f4"/><stop offset=".595" stop-color="#0f80e3"/><stop offset="1" stop-color="#006dd9"/></linearGradient><path fill="url(#DrB12zy~bWVi9~NtaCUCjc)" d="M23,43c0,0.552-0.448,1-1,1s-1-0.448-1-1c0-0.454,0.677-1.569,0.917-1.95	c0.039-0.062,0.128-0.062,0.166,0C22.323,41.431,23,42.546,23,43z"/><linearGradient id="DrB12zy~bWVi9~NtaCUCjd" x1="11.069" x2="11.721" y1="33.551" y2="38.051" gradientUnits="userSpaceOnUse"><stop offset="0" stop-color="#2aa4f4"/><stop offset=".595" stop-color="#0f80e3"/><stop offset="1" stop-color="#006dd9"/></linearGradient><path fill="url(#DrB12zy~bWVi9~NtaCUCjd)" d="M13,36.5c0,0.828-0.672,1.5-1.5,1.5S10,37.328,10,36.5c0-0.681,1.015-2.353,1.375-2.925	c0.058-0.093,0.191-0.093,0.25,0C11.985,34.147,13,35.819,13,36.5z"/><linearGradient id="DrB12zy~bWVi9~NtaCUCje" x1="9.713" x2="10.148" y1="41.034" y2="44.034" gradientUnits="userSpaceOnUse"><stop offset="0" stop-color="#2aa4f4"/><stop offset=".595" stop-color="#0f80e3"/><stop offset="1" stop-color="#006dd9"/></linearGradient><path fill="url(#DrB12zy~bWVi9~NtaCUCje)" d="M11,43c0,0.552-0.448,1-1,1s-1-0.448-1-1c0-0.454,0.677-1.569,0.917-1.95	c0.039-0.062,0.128-0.062,0.166,0C10.323,41.431,11,42.546,11,43z"/><linearGradient id="DrB12zy~bWVi9~NtaCUCjf" x1="36.069" x2="36.721" y1="33.551" y2="38.051" gradientUnits="userSpaceOnUse"><stop offset="0" stop-color="#2aa4f4"/><stop offset=".595" stop-color="#0f80e3"/><stop offset="1" stop-color="#006dd9"/></linearGradient><path fill="url(#DrB12zy~bWVi9~NtaCUCjf)" d="M38,36.5c0,0.828-0.672,1.5-1.5,1.5S35,37.328,35,36.5c0-0.681,1.015-2.353,1.375-2.925	c0.058-0.093,0.191-0.093,0.25,0C36.985,34.147,38,35.819,38,36.5z"/><linearGradient id="DrB12zy~bWVi9~NtaCUCjg" x1="34.712" x2="35.148" y1="41.034" y2="44.034" gradientUnits="userSpaceOnUse"><stop offset="0" stop-color="#2aa4f4"/><stop offset=".595" stop-color="#0f80e3"/><stop offset="1" stop-color="#006dd9"/></linearGradient><path fill="url(#DrB12zy~bWVi9~NtaCUCjg)" d="M36,43c0,0.552-0.448,1-1,1s-1-0.448-1-1c0-0.454,0.677-1.569,0.917-1.95	c0.039-0.062,0.128-0.062,0.166,0C35.323,41.431,36,42.546,36,43z"/><linearGradient id="DrB12zy~bWVi9~NtaCUCjh" x1="17.712" x2="18.148" y1="34.034" y2="37.034" gradientUnits="userSpaceOnUse"><stop offset="0" stop-color="#2aa4f4"/><stop offset=".595" stop-color="#0f80e3"/><stop offset="1" stop-color="#006dd9"/></linearGradient><path fill="url(#DrB12zy~bWVi9~NtaCUCjh)" d="M19,36c0,0.552-0.448,1-1,1s-1-0.448-1-1c0-0.454,0.677-1.569,0.917-1.95	c0.039-0.062,0.128-0.062,0.166,0C18.323,34.431,19,35.546,19,36z"/><linearGradient id="DrB12zy~bWVi9~NtaCUCji" x1="16.069" x2="16.721" y1="40.551" y2="45.051" gradientUnits="userSpaceOnUse"><stop offset="0" stop-color="#2aa4f4"/><stop offset=".595" stop-color="#0f80e3"/><stop offset="1" stop-color="#006dd9"/></linearGradient><path fill="url(#DrB12zy~bWVi9~NtaCUCji)" d="M18,43.5c0,0.828-0.672,1.5-1.5,1.5c-0.828,0-1.5-0.672-1.5-1.5	c0-0.681,1.015-2.353,1.375-2.925c0.058-0.093,0.191-0.093,0.25,0C16.985,41.147,18,42.819,18,43.5z"/><linearGradient id="DrB12zy~bWVi9~NtaCUCjj" x1="5.713" x2="6.148" y1="34.034" y2="37.034" gradientUnits="userSpaceOnUse"><stop offset="0" stop-color="#2aa4f4"/><stop offset=".595" stop-color="#0f80e3"/><stop offset="1" stop-color="#006dd9"/></linearGradient><path fill="url(#DrB12zy~bWVi9~NtaCUCjj)" d="M7,36c0,0.552-0.448,1-1,1s-1-0.448-1-1c0-0.454,0.677-1.569,0.917-1.95	c0.039-0.062,0.128-0.062,0.166,0C6.323,34.431,7,35.546,7,36z"/><linearGradient id="DrB12zy~bWVi9~NtaCUCjk" x1="4.069" x2="4.721" y1="40.551" y2="45.051" gradientUnits="userSpaceOnUse"><stop offset="0" stop-color="#2aa4f4"/><stop offset=".595" stop-color="#0f80e3"/><stop offset="1" stop-color="#006dd9"/></linearGradient><path fill="url(#DrB12zy~bWVi9~NtaCUCjk)" d="M6,43.5C6,44.328,5.328,45,4.5,45S3,44.328,3,43.5c0-0.681,1.015-2.353,1.375-2.925	c0.058-0.093,0.191-0.093,0.25,0C4.985,41.147,6,42.819,6,43.5z"/><linearGradient id="DrB12zy~bWVi9~NtaCUCjl" x1="29.712" x2="30.148" y1="34.034" y2="37.034" gradientUnits="userSpaceOnUse"><stop offset="0" stop-color="#2aa4f4"/><stop offset=".595" stop-color="#0f80e3"/><stop offset="1" stop-color="#006dd9"/></linearGradient><path fill="url(#DrB12zy~bWVi9~NtaCUCjl)" d="M31,36c0,0.552-0.448,1-1,1s-1-0.448-1-1c0-0.454,0.677-1.569,0.917-1.95	c0.039-0.062,0.128-0.062,0.166,0C30.323,34.431,31,35.546,31,36z"/><linearGradient id="DrB12zy~bWVi9~NtaCUCjm" x1="28.069" x2="28.721" y1="40.551" y2="45.051" gradientUnits="userSpaceOnUse"><stop offset="0" stop-color="#2aa4f4"/><stop offset=".595" stop-color="#0f80e3"/><stop offset="1" stop-color="#006dd9"/></linearGradient><path fill="url(#DrB12zy~bWVi9~NtaCUCjm)" d="M30,43.5c0,0.828-0.672,1.5-1.5,1.5S27,44.328,27,43.5c0-0.681,1.015-2.353,1.375-2.925	c0.058-0.093,0.191-0.093,0.25,0C28.985,41.147,30,42.819,30,43.5z"/><linearGradient id="DrB12zy~bWVi9~NtaCUCjn" x1="42.712" x2="43.148" y1="34.034" y2="37.034" gradientUnits="userSpaceOnUse"><stop offset="0" stop-color="#2aa4f4"/><stop offset=".595" stop-color="#0f80e3"/><stop offset="1" stop-color="#006dd9"/></linearGradient><path fill="url(#DrB12zy~bWVi9~NtaCUCjn)" d="M44,36c0,0.552-0.448,1-1,1s-1-0.448-1-1c0-0.454,0.677-1.569,0.917-1.95	c0.039-0.062,0.128-0.062,0.166,0C43.323,34.431,44,35.546,44,36z"/><linearGradient id="DrB12zy~bWVi9~NtaCUCjo" x1="41.069" x2="41.721" y1="40.551" y2="45.051" gradientUnits="userSpaceOnUse"><stop offset="0" stop-color="#2aa4f4"/><stop offset=".595" stop-color="#0f80e3"/><stop offset="1" stop-color="#006dd9"/></linearGradient><path fill="url(#DrB12zy~bWVi9~NtaCUCjo)" d="M43,43.5c0,0.828-0.672,1.5-1.5,1.5S40,44.328,40,43.5c0-0.681,1.015-2.353,1.375-2.925	c0.058-0.093,0.191-0.093,0.25,0C41.985,41.147,43,42.819,43,43.5z"/></svg>