<svg xmlns="http://www.w3.org/2000/svg" viewBox="0 0 48 48"><linearGradient id="9DnFrAATWm6FANyVN5BGFa" x1="20.095" x2="27.905" y1="1.852" y2="46.148" gradientUnits="userSpaceOnUse"><stop offset="0" stop-color="#a235d4"/><stop offset=".441" stop-color="#a033d1"/><stop offset=".702" stop-color="#982cc9"/><stop offset=".915" stop-color="#8b21bb"/><stop offset="1" stop-color="#831bb3"/></linearGradient><path fill="url(#9DnFrAATWm6FANyVN5BGFa)" d="M40,44h-7c-0.552,0-1-0.448-1-1V28H16v15c0,0.552-0.448,1-1,1H8c-0.552,0-1-0.448-1-1V5 c0-0.552,0.448-1,1-1h7c0.552,0,1,0.448,1,1v15h16V5c0-0.552,0.448-1,1-1h7c0.552,0,1,0.448,1,1v38C41,43.552,40.552,44,40,44z"/></svg>