<svg xmlns="http://www.w3.org/2000/svg" xmlns:xlink="http://www.w3.org/1999/xlink" data-name="Слой 1" viewBox="0 0 48 48"><defs><linearGradient id="WXsftKx1Z154rmTVDOWl9a" x1="39.22" x2="48.074" y1="23" y2="23" data-name="Безымянный градиент 177" gradientUnits="userSpaceOnUse"><stop offset=".002" stop-color="#454545"/><stop offset=".013" stop-color="#464646"/><stop offset=".874" stop-color="#626262"/><stop offset="1" stop-color="#6d6d6d"/></linearGradient><linearGradient id="WXsftKx1Z154rmTVDOWl9c" x1="33" x2="33" y1="43.391" y2="32.043" xlink:href="#WXsftKx1Z154rmTVDOWl9a"/><linearGradient id="WXsftKx1Z154rmTVDOWl9d" x1="21.137" x2="24.006" y1="9.16" y2="25.856" data-name="Безымянный градиент 112" gradientUnits="userSpaceOnUse"><stop offset="0" stop-color="#33c481"/><stop offset="1" stop-color="#21a366"/></linearGradient><linearGradient id="WXsftKx1Z154rmTVDOWl9b" x1="29.454" x2="29.454" y1="9.283" y2="29.271" data-name="Безымянный градиент 129" gradientTransform="rotate(72.663 29.454 20)" gradientUnits="userSpaceOnUse"><stop offset="0" stop-color="#ffd869"/><stop offset="1" stop-color="#fec52b"/></linearGradient><linearGradient id="WXsftKx1Z154rmTVDOWl9e" x1="36.5" x2="36.5" y1="9.283" y2="29.271" gradientTransform="rotate(72.663 36.5 20)" xlink:href="#WXsftKx1Z154rmTVDOWl9b"/></defs><path fill="url(#WXsftKx1Z154rmTVDOWl9a)" d="M46.99725,22H45a4,4,0,0,0-4-4H39V28h2a4,4,0,0,0,4-4v.00543h1.99725a1.00272,1.00272,0,1,0,0-2.00543Z"/><rect width="2" height="8.75" x="22" y="28.25" fill="#889097"/><rect width="2.001" height="8.544" x="28.5" y="27.728" fill="#889097" transform="rotate(-20.556 29.5 32)"/><rect width="2" height="11.402" x="36.5" y="26.799" fill="#889097" transform="rotate(-37.875 37.5 32.5)"/><path fill="#0370c8" d="M10,14.12A4.10148,4.10148,0,0,1,8.83,17a4.629,4.629,0,0,1-.58.5,3.87831,3.87831,0,0,1-.97.5,4.00113,4.00113,0,0,1-1.4.25A4.23718,4.23718,0,0,1,5,18.16,3.23584,3.23584,0,0,1,4.47,18a3.92135,3.92135,0,0,1-1.34-.8A4.12375,4.12375,0,1,1,10,14.12Z"/><path fill="url(#WXsftKx1Z154rmTVDOWl9c)" d="M43,38H19a1,1,0,0,1,0-2H43c1.67285,0,2.35449-.334,3.168-1.55469A1,1,0,0,1,47.832,35.55469,5.03044,5.03044,0,0,1,43,38Z"/><path fill="#e52030" d="M5,10.09A5.99663,5.99663,0,0,0,0,16c0,2.97223,2,5,5,6Z"/><path fill="url(#WXsftKx1Z154rmTVDOWl9d)" d="M41,18V28H23L5,22V18H21.38a1.00291,1.00291,0,0,1,.9.55l.43994.9a1.003,1.003,0,0,0,.9.55h1.97a1.0085,1.0085,0,0,0,.7-.29l1.12-1.12A2.00614,2.00614,0,0,1,28.83,18Z"/><path d="M12.73,18H11a1,1,0,0,1,0,2H4a1,1,0,0,1,0-2H7.28a3.87831,3.87831,0,0,0,.97-.5,4.629,4.629,0,0,0,.58-.5H4a1.9517,1.9517,0,0,0-.87.2A1.99946,1.99946,0,0,0,4,21h7a1.99718,1.99718,0,0,0,1.73-3Z" opacity=".05"/><path d="M12.11,18H11a1,1,0,0,1,0,2H4a1,1,0,0,1,0-2H7.28a3.87831,3.87831,0,0,0,.97-.5H4a1.40077,1.40077,0,0,0-.41.06A1.49836,1.49836,0,0,0,4,20.5h7A1.498,1.498,0,0,0,12.5,19,1.46807,1.46807,0,0,0,12.11,18Z" opacity=".07"/><rect width="9" height="2" x="3" y="18" fill="#33c481" rx="1"/><circle cx="18" cy="22" r="3" fill="#0370c8"/><circle cx="18" cy="22" r="1.5" fill="#e52030"/><rect width="16.763" height="1.999" x="21.073" y="19" fill="url(#WXsftKx1Z154rmTVDOWl9b)" transform="rotate(-72.663 29.454 20)"/><rect width="16.763" height="1.999" x="28.118" y="19" fill="url(#WXsftKx1Z154rmTVDOWl9e)" transform="rotate(-72.663 36.5 20)"/><rect width="21" height="2" x="17" y="27" fill="#33c481" rx="1"/><rect width="21" height="2" x="24" y="11" fill="#33c481" rx="1"/><circle cx="31" cy="36" r="3" fill="#64717c"/><circle cx="31" cy="36" r="1.5" fill="#889097"/><path d="M36.44,29.5l-.39-.5H33.51l.39.5.39.5h2.53ZM28.83,18a1.874,1.874,0,0,0-.34.03,1.50194,1.50194,0,0,0-.58.21L25.48,26H18a2.0759,2.0759,0,0,0-.66.11l1.16.39L20,27h6.22L29.03,18ZM22,30h2V29H22Zm7.63-.5-.18-.5H27.3l.38,1h2.14ZM37,26h-.28l2.5-8H38.17l-2.81,9H37a1.003,1.003,0,0,1,1,1h1A2.00587,2.00587,0,0,0,37,26Zm-1.97-8-2.5,8H29.67l2.5-8H31.13l-2.82,9h4.96l2.81-9Zm0,0-2.5,8H29.67l2.5-8H31.13l-2.82,9h4.96l2.81-9Zm0,0-2.5,8H29.67l2.5-8H31.13l-2.82,9h4.96l2.81-9Z" opacity=".05"/><path d="M36.05,29H33.51l.39.5h2.54ZM28.83,18a1.874,1.874,0,0,0-.34.03L25.85,26.5H18.5L20,27h6.22L29.03,18ZM22,29.5h2V29H22Zm7.45-.5H27.3l.19.5h2.14ZM37,26.5h-.96L38.69,18h-.52l-2.81,9H37a1.003,1.003,0,0,1,1,1h.5A1.498,1.498,0,0,0,37,26.5ZM35.55,18,32.9,26.5H28.99L31.65,18h-.52l-2.82,9h4.96l2.81-9Zm0,0L32.9,26.5H28.99L31.65,18h-.52l-2.82,9h4.96l2.81-9Zm0,0L32.9,26.5H28.99L31.65,18h-.52l-2.82,9h4.96l2.81-9Z" opacity=".07"/><rect width="2" height="16" x="45" y="15" fill="#889097" rx="1"/></svg>