<svg xmlns="http://www.w3.org/2000/svg" width="48" height="48" viewBox="0 0 48 48"><linearGradient id="8DQJHWEfKhQow4m5H2AkUa" x1="5" x2="43" y1="24" y2="24" gradientUnits="userSpaceOnUse"><stop offset="0" stop-color="#32bdef"/><stop offset="1" stop-color="#1ea2e4"/></linearGradient><path fill="url(#8DQJHWEfKhQow4m5H2AkUa)" d="M34,43H14c-4.971,0-9-4.029-9-9V14c0-4.971,4.029-9,9-9h20c4.971,0,9,4.029,9,9v20	C43,38.971,38.971,43,34,43z"/><linearGradient id="8DQJHWEfKhQow4m5H2AkUb" x1="11.223" x2="34.176" y1="30.796" y2="30.796" gradientUnits="userSpaceOnUse"><stop offset="0" stop-color="#e1f5fe"/><stop offset="1" stop-color="#4fc3f7"/></linearGradient><path fill="url(#8DQJHWEfKhQow4m5H2AkUb)" d="M17.917,39.167c0,0,7.396-5.458,9.5-7.292c2.023-1.762,4.771-4.729,4.729-6.313	c-0.042-1.583-0.354-1.896-2.104-2.229c-1.75-0.333-5.208-0.375-7.583,0.083c-2.375,0.458-6.146,1.521-7.729,2.354	c-1.483,0.781-2.125,1.417-2.521,2.042c-0.495,0.782-0.447,1.327,0.292,1.646c1.354,0.583,2.583,0.25,2.583,0.25	s-0.625,0.5-2.208,0.333c-0.979-0.103-1.729-0.813-1.646-1.354c0.083-0.542,0.667-1.375,1.021-1.729	c0.597-0.597,2.583-1.917,5.292-2.75c1.43-0.44,4.75-1.417,6.708-1.708s4.75-0.583,6.458-0.333s3.271,0.5,3.437,1.875	c0.167,1.375-0.375,2.271-1.25,3.688c-0.875,1.417-3.312,3.875-5.271,5.313c-1.959,1.438-5.125,3.646-6.563,4.563	c-1.32,0.842-2.396,1.479-2.979,1.813C17.5,39.75,17.917,39.167,17.917,39.167z"/><path d="M37.799,26.757c-0.356-0.655-1.437-0.703-1.896-0.151c-0.245,0.291-0.52,0.606-0.8,0.922	c0.008-0.389,0.048-0.798,0.197-1.418c0.426-1.759,0.746-3.537-0.384-4.263c-0.949-0.611-1.912-0.566-2.946,0.165	c-0.319,0.226-0.646,0.565-0.937,0.965c-0.323-0.339-0.729-0.393-0.949-0.393c-0.235,0-0.479,0.053-0.787,0.172	c-0.235,0.09-0.595,0.235-1.008,0.412c0.697-1.182,1.283-2.179,1.563-2.67c0.557-0.974,0.788-1.611,0.599-2.605	c-0.146-0.764-0.801-1.257-1.669-1.257c-0.056,0-0.115,0.011-0.172,0.015c0.129-0.086,0.247-0.168,0.335-0.236	c0.877-0.676,1.092-1.461,1.117-2.001c0.042-0.878-0.377-1.773-1.178-2.52c-0.499-0.465-1.485-1.288-2.484-1.574	c-1.09-0.312-2.026-0.369-2.969-0.405c-0.013,0-0.121-0.002-0.134-0.002c-1.187,0-3.508,0.592-4.84,1.384	c-1.878,1.117-3.534,2.208-4.781,4.262c-1.26,2.074-1.213,4.865,0.105,6.354c0.767,0.865,3.193,2.853,3.978,3.353	c0.211,0.134,0.877,0.645,0.583,1.574c-0.202,0.643-2.514,1.848-4.302,1.848c-0.001,0-0.002,0-0.002,0	c-0.913-0.021-1.267-0.204-1.247-0.188c-1.026-0.579-0.888-0.27-1.246,0.029c-0.359,0.3-0.462,0.81-0.247,1.226	c0.068,0.133,0.72,1.303,2.446,1.398c0.098,0.005,0.195,0.008,0.295,0.008c1.105,0,2.258-0.332,3.273-0.625l0.532-0.152	c1.226-0.341,3.379-1.31,4.63-2.349c-0.4,1.577-0.681,2.793-0.68,2.951c0.083,1.182,0.997,1.216,1.101,1.216	c0.272,0,0.772-0.106,1.07-0.819c0.004-0.01,0.302-0.726,0.76-1.719c0.193,0.187,0.429,0.386,0.731,0.616	c0.966,0.736,2.431,1.396,3.317,1.642c0.856,0.238,1.938,0.245,2.059,0.245c0.512,0,0.941-0.387,0.994-0.896	c0.024-0.226-0.04-0.438-0.151-0.62c0.164,0.261,0.349,0.489,0.591,0.717c0.003,0.003,0.006,0.005,0.009,0.008	c-0.285,0.362-0.635,0.777-1.023,1.177c-1.224,1.258-2.987,2.942-3.563,3.349c-0.671,0.474-1.507,1.064-1.301,1.925	c0.084,0.354,0.387,0.763,0.982,0.85c0.154,0.023,0.303,0.035,0.446,0.035c0.671,0,1.263-0.257,1.861-0.81	c0.5-0.461,1.828-1.686,3.105-3.295l0.466-0.583c0.598-0.743,1.273-1.586,1.886-2.47c0.376-0.544,0.905-1.235,1.381-1.858	c0.484-0.633,0.901-1.179,1.106-1.499C37.968,27.659,38.027,27.175,37.799,26.757z M25.002,19.653	c-0.304,0.544-0.813,2.136-1.335,3.958c-0.025-0.04-0.041-0.081-0.068-0.121l-0.174-0.25c-0.487-0.704-0.781-1.129-1.349-1.823	c-0.009-0.011-0.022-0.067-0.008-0.17c0.051-0.335,0.375-0.878,0.971-1.275c0.511-0.34,1.574-0.955,2.603-1.548	c0.1-0.058,0.198-0.115,0.298-0.172C25.619,18.644,25.308,19.106,25.002,19.653z M31.039,30.188	c-0.015-0.003-1.465-0.313-2.369-0.784c-0.879-0.457-1.548-0.971-1.744-1.158c0.108-0.008,0.224-0.015,0.318-0.02	c0.505-0.028,1.076-0.061,1.588-0.231l0.157-0.052c0.473-0.156,0.955-0.316,1.35-0.653c0.114,0.444,0.266,0.915,0.496,1.498	c0.314,0.797,0.528,1.334,0.788,1.772C31.482,30.377,31.281,30.239,31.039,30.188z" opacity=".05"/><path d="M28.544,12.259c-0.466-0.435-1.383-1.202-2.281-1.459c-1.036-0.296-1.939-0.351-2.851-0.385	c-0.006,0-0.108-0.002-0.114-0.002c-1.099,0-3.341,0.574-4.585,1.314c-1.819,1.082-3.422,2.136-4.609,4.092	c-1.133,1.866-1.108,4.451,0.054,5.763c0.744,0.841,3.107,2.776,3.871,3.262c0.592,0.376,1.109,1.138,0.792,2.146	c-0.287,0.908-2.768,2.197-4.791,2.197c-0.001,0-0.001,0-0.002,0c-1.114-0.025-1.534-0.288-1.536-0.288c0,0,0,0,0.001,0	c-0.961-0.525-0.737-0.316-0.914-0.166c-0.18,0.15,0.058,0.583,0.165,0.792c0.022,0.043,0.557,1.047,2.03,1.128	c0.088,0.005,0.177,0.007,0.267,0.007c1.035,0,2.15-0.321,3.135-0.605l0.537-0.153c1.263-0.351,3.688-1.456,4.767-2.535	c1.183-1.182,1.448-2.525,0.709-3.593l-0.174-0.25c-0.496-0.718-0.77-1.113-1.324-1.791c-0.111-0.136-0.15-0.325-0.115-0.561	c0.083-0.557,0.549-1.191,1.188-1.617c0.523-0.349,1.595-0.968,2.63-1.565c1.408-0.813,2.739-1.582,3.248-1.973	c0.727-0.559,0.903-1.194,0.924-1.628C29.598,13.66,29.235,12.904,28.544,12.259z" opacity=".07"/><path fill="#e3f2fd" d="M18.969,12.156c1.156-0.688,3.418-1.28,4.425-1.242c0.979,0.037,1.786,0.096,2.731,0.367	c0.725,0.208,1.534,0.837,2.078,1.344c0.939,0.875,1.289,2.106,0.132,2.997c-0.871,0.67-4.645,2.715-5.851,3.519	s-1.785,2.174-1.182,2.911c0.603,0.737,0.871,1.139,1.473,2.009c0.603,0.871,0.354,1.951-0.651,2.955s-3.341,2.071-4.547,2.406	s-2.571,0.8-3.777,0.733c-1.206-0.067-1.614-0.858-1.614-0.858s0.469,0.359,1.828,0.391c1.943,0.045,4.879-1.274,5.281-2.547	s-0.263-2.25-1-2.719s-3.072-2.389-3.766-3.172c-0.969-1.094-1.063-3.422,0-5.172C15.626,14.275,17.086,13.276,18.969,12.156z"/><path d="M37.36,26.997c-0.201-0.367-0.822-0.374-1.076-0.069c-0.5,0.594-1.118,1.288-1.646,1.862	c-0.016-0.092-0.028-0.214-0.028-0.368l-0.004-0.396c-0.01-0.586-0.019-1.092,0.209-2.033c0.383-1.584,0.685-3.177-0.169-3.726	c-0.779-0.501-1.523-0.456-2.387,0.153c-0.473,0.333-0.961,0.95-1.284,1.63c-0.121-0.797-0.551-0.967-0.891-0.967	c-0.172,0-0.358,0.042-0.607,0.138c-0.487,0.188-1.519,0.612-2.429,1.063c1.031-1.743,1.986-3.364,2.371-4.036	c0.504-0.883,0.702-1.419,0.541-2.263c-0.137-0.721-1.019-1.03-1.904-0.723c-0.981,0.34-1.788,1.152-2.617,2.635	c-0.775,1.387-3.146,10.655-3.146,11.055c0.049,0.697,0.474,0.751,0.603,0.751c0.395,0,0.555-0.384,0.608-0.511	c0.005-0.013,0.454-1.09,1.099-2.444c0.239,0.356,0.552,0.673,1.157,1.135c0.917,0.698,2.307,1.324,3.148,1.558	c0.807,0.224,1.88,0.226,1.925,0.226c0.256,0,0.471-0.193,0.497-0.448c0.026-0.254-0.144-0.488-0.394-0.541	c-0.016-0.003-1.53-0.326-2.498-0.829c-1.161-0.604-1.975-1.3-2.047-1.532c-0.104-0.414-0.014-0.464,0.056-0.503	c0.104-0.048,0.504-0.071,0.769-0.086c0.474-0.027,1.01-0.057,1.458-0.207l0.159-0.052c0.701-0.231,1.306-0.43,1.627-1.178	c0.054-0.127,0.107-0.261,0.16-0.393c0.035,0.75,0.185,1.452,0.681,2.708c0.554,1.406,0.756,1.875,1.309,2.398	c0.127,0.12,0.252,0.209,0.37,0.274c-0.33,0.445-0.811,1.049-1.369,1.624c-1.098,1.129-2.971,2.941-3.633,3.409	c-0.834,0.588-1.212,0.948-1.104,1.4c0.028,0.121,0.142,0.409,0.569,0.472c0.129,0.019,0.253,0.029,0.373,0.029	c0.545,0,1.015-0.209,1.522-0.677c0.492-0.454,1.8-1.66,3.053-3.239l0.468-0.585c0.592-0.737,1.263-1.572,1.864-2.441	c0.38-0.549,0.914-1.248,1.396-1.877c0.477-0.625,0.889-1.164,1.083-1.465C37.301,27.773,37.562,27.366,37.36,26.997z" opacity=".07"/><path fill="#e3f2fd" d="M28.208,30.292c-1.042-0.542-2.177-1.354-2.302-1.854s-0.073-0.854,0.302-1.063	c0.375-0.208,1.557-0.078,2.307-0.328s1.234-0.37,1.484-0.953c0.25-0.583,0.568-1.37,0.484-1.953	c-0.083-0.583-0.286-0.661-0.828-0.453c-0.542,0.208-1.64,0.664-2.547,1.125c-0.568,0.288-1.128,0.665-1.56,1.028	c0.041-0.071,0.081-0.146,0.122-0.216c1.344-2.266,2.813-4.75,3.313-5.625s0.609-1.266,0.484-1.922	c-0.094-0.493-0.732-0.523-1.25-0.344c-0.813,0.281-1.552,0.99-2.344,2.406c-0.792,1.417-3.083,10.651-3.083,10.776	c0,0,0.042,0.583,0.25,0.083c0.145-0.348,0.778-1.826,1.557-3.383c0.025,0.093,0.053,0.186,0.109,0.3	c0.292,0.583,0.479,0.901,1.354,1.568c0.875,0.667,2.229,1.266,2.979,1.474s1.792,0.208,1.792,0.208S29.25,30.833,28.208,30.292z"/><path fill="#e3f2fd" d="M36.667,27.25c-0.526,0.625-1.182,1.359-1.729,1.953c-0.542,0.589-0.828,0.01-0.828-0.781	s-0.073-1.339,0.219-2.547s0.63-2.813,0.047-3.188s-1.12-0.359-1.828,0.141c-0.708,0.5-1.438,1.724-1.438,2.641	s0.115,1.578,0.656,2.953c0.542,1.375,0.714,1.771,1.188,2.219c0.529,0.5,0.922,0.234,0.922,0.234s-0.797,1.234-1.906,2.375	c-1.071,1.102-2.995,2.969-3.703,3.469s-1.166,0.908-0.75,0.969c0.531,0.078,0.943-0.021,1.484-0.521s1.797-1.667,3-3.182	c0.719-0.906,1.562-1.917,2.312-3c0.75-1.083,2.094-2.745,2.469-3.328S36.735,27.169,36.667,27.25z"/><linearGradient id="8DQJHWEfKhQow4m5H2AkUc" x1="13.832" x2="12.926" y1="30.023" y2="26.57" gradientUnits="userSpaceOnUse"><stop offset="0" stop-color="#e3f2fd"/><stop offset="1" stop-color="#ceebf1"/></linearGradient><path fill="url(#8DQJHWEfKhQow4m5H2AkUc)" d="M12.5,29.458c-0.739-0.318-0.787-0.864-0.292-1.646c0.396-0.625,1.038-1.261,2.521-2.042 c1.117-0.588-1.883,0.591-2.479,1.188c-0.354,0.354-0.938,1.188-1.021,1.729c-0.083,0.542,0.674,1.197,1.646,1.354 c2.359,0.38,2.208-0.333,2.208-0.333S13.854,30.042,12.5,29.458z"/></svg>