<svg xmlns="http://www.w3.org/2000/svg" viewBox="0 0 48 48"><linearGradient id="3kz7VV9oJggxvdX5YiVUba" x1="24" x2="24" y1="8.419" y2="14.47" gradientUnits="userSpaceOnUse"><stop offset="0" stop-color="#eba600"/><stop offset="1" stop-color="#c28200"/></linearGradient><path fill="url(#3kz7VV9oJggxvdX5YiVUba)" d="M43,13H5c0-2.7,2.3-5,5-5h28C40.7,8,43,10.3,43,13z"/><linearGradient id="3kz7VV9oJggxvdX5YiVUbb" x1="24" x2="24" y1="41.026" y2="31.132" gradientUnits="userSpaceOnUse"><stop offset="0" stop-color="#eba600"/><stop offset="1" stop-color="#c28200"/></linearGradient><path fill="url(#3kz7VV9oJggxvdX5YiVUbb)" d="M19,30h10v7H19V30z"/><linearGradient id="3kz7VV9oJggxvdX5YiVUbc" x1="20.937" x2="27.694" y1="13.35" y2="41.257" gradientUnits="userSpaceOnUse"><stop offset="0" stop-color="#ffd869"/><stop offset="1" stop-color="#fec52b"/></linearGradient><path fill="url(#3kz7VV9oJggxvdX5YiVUbc)" d="M6,40h11c1.1,0,2.2-0.6,2.6-1.7l2.2-5.9C22.1,31.6,23,31,24,31s1.9,0.6,2.2,1.4l2.2,5.9	c0.4,1,1.5,1.7,2.6,1.7h11c2.2,0,4-1.8,4-4V16c0-2.2-1.8-4-4-4H6c-2.2,0-4,1.8-4,4v20C2,38.2,3.8,40,6,40z"/><circle cx="35" cy="26" r="6" fill="#ffd869"/><circle cx="12" cy="26" r="6" fill="#ffd869"/><radialGradient id="3kz7VV9oJggxvdX5YiVUbd" cx="35.091" cy="20.843" r="10.324" gradientTransform="rotate(180 35 26)" gradientUnits="userSpaceOnUse"><stop offset="0" stop-color="#bd8af5"/><stop offset=".043" stop-color="#b28ff6"/><stop offset=".338" stop-color="#67b0fc"/><stop offset=".475" stop-color="#4abdff"/><stop offset=".633" stop-color="#40b3fd"/><stop offset=".903" stop-color="#2698f9"/><stop offset="1" stop-color="#1b8cf7"/></radialGradient><circle cx="35" cy="26" r="5" fill="url(#3kz7VV9oJggxvdX5YiVUbd)"/><radialGradient id="3kz7VV9oJggxvdX5YiVUbe" cx="58.091" cy="20.843" r="10.324" gradientTransform="rotate(180 35 26)" gradientUnits="userSpaceOnUse"><stop offset="0" stop-color="#bd8af5"/><stop offset=".043" stop-color="#b28ff6"/><stop offset=".338" stop-color="#67b0fc"/><stop offset=".475" stop-color="#4abdff"/><stop offset=".633" stop-color="#40b3fd"/><stop offset=".903" stop-color="#2698f9"/><stop offset="1" stop-color="#1b8cf7"/></radialGradient><circle cx="12" cy="26" r="5" fill="url(#3kz7VV9oJggxvdX5YiVUbe)"/><path fill="#8fe2ff" d="M34,24c-0.552,0-1,0.448-1,1s0.448,1,1,1s1-0.448,1-1S34.552,24,34,24z"/><path fill="#fff" d="M36.5,27c-0.276,0-0.5,0.224-0.5,0.5s0.224,0.5,0.5,0.5s0.5-0.224,0.5-0.5S36.776,27,36.5,27z"/><path fill="#8fe2ff" d="M11,24c-0.552,0-1,0.448-1,1s0.448,1,1,1s1-0.448,1-1S11.552,24,11,24z"/><path fill="#fff" d="M13.5,27c-0.276,0-0.5,0.224-0.5,0.5s0.224,0.5,0.5,0.5s0.5-0.224,0.5-0.5S13.776,27,13.5,27z"/></svg>