<svg xmlns="http://www.w3.org/2000/svg" width="48" height="48" viewBox="0 0 48 48"><radialGradient id="yz02LPR6ruUezSczlVNW7a" cx="24" cy="26" r="19" gradientUnits="userSpaceOnUse"><stop offset="0" stop-color="#eba600"/><stop offset="1" stop-color="#c28200"/></radialGradient><path fill="url(#yz02LPR6ruUezSczlVNW7a)" d="M24,7C13.507,7,5,15.507,5,26s8.507,19,19,19s19-8.507,19-19S34.493,7,24,7z"/><linearGradient id="yz02LPR6ruUezSczlVNW7b" x1="24" x2="24" y1="8" y2="44" gradientUnits="userSpaceOnUse"><stop offset="0" stop-color="#45b0d0"/><stop offset="1" stop-color="#057093"/></linearGradient><path fill="url(#yz02LPR6ruUezSczlVNW7b)" d="M24,8C14.059,8,6,16.059,6,26s8.059,18,18,18s18-8.059,18-18S33.941,8,24,8z"/><linearGradient id="yz02LPR6ruUezSczlVNW7c" x1="9" x2="9" y1="10.572" y2="42.253" gradientUnits="userSpaceOnUse"><stop offset="0" stop-color="#a3ffff"/><stop offset=".223" stop-color="#9dfbff"/><stop offset=".53" stop-color="#8bf1ff"/><stop offset=".885" stop-color="#6ee0ff"/><stop offset="1" stop-color="#63daff"/></linearGradient><path fill="url(#yz02LPR6ruUezSczlVNW7c)" d="M12,12.611C8.325,15.906,6,20.676,6,26s2.325,10.094,6,13.389V12.611z"/><linearGradient id="yz02LPR6ruUezSczlVNW7d" x1="27.756" x2="27.756" y1="9.971" y2="42.225" gradientUnits="userSpaceOnUse"><stop offset="0" stop-color="#a3ffff"/><stop offset=".223" stop-color="#9dfbff"/><stop offset=".53" stop-color="#8bf1ff"/><stop offset=".885" stop-color="#6ee0ff"/><stop offset="1" stop-color="#63daff"/></linearGradient><path fill="url(#yz02LPR6ruUezSczlVNW7d)" d="M41,26c0-0.313-0.03-0.618-0.047-0.927C41,20,33.505,20.502,29,19	c-6-2-8.2-4.595-10.109-8.412l-0.512-0.617c-0.537,0.188-1.06,0.402-1.571,0.642C16.965,14.926,12.167,32.767,16,32c5-1,10-2,12,2	c1.172,2.344,1.554,6.162,1.083,8.225C35.989,40.064,41,33.618,41,26z"/><radialGradient id="yz02LPR6ruUezSczlVNW7e" cx="24" cy="26" r="19" gradientUnits="userSpaceOnUse"><stop offset="0" stop-color="#eba600"/><stop offset="1" stop-color="#c28200"/></radialGradient><path fill="url(#yz02LPR6ruUezSczlVNW7e)" d="M24,7C13.507,7,5,15.507,5,26s8.507,19,19,19s19-8.507,19-19S34.493,7,24,7z M24,42	c-8.837,0-16-7.163-16-16s7.163-16,16-16s16,7.163,16,16S32.837,42,24,42z"/><path fill="#010101" d="M16,12.158c1.238-0.717,2.58-1.267,4-1.634V7.43c-1.399,0.3-2.734,0.765-4,1.354 V12.158z" opacity=".05"/><path fill="#010101" d="M34.559,38C31.74,40.482,28.051,42,24,42h10.22c1.705-1.091,3.23-2.437,4.505-4H34.559 z" opacity=".05"/><path fill="#010101" d="M18.5,10.991c0.33-0.121,0.66-0.238,1-0.338V7.558c-0.335,0.082-0.672,0.158-1,0.257 V10.991z" opacity=".07"/><path fill="#010101" d="M33.972,38.5c-0.45,0.359-0.922,0.69-1.409,1h4.801c0.322-0.319,0.622-0.659,0.921-1 H33.972z" opacity=".07"/><path fill="#010101" d="M11,16.701v-4.527c-0.72,0.676-1.392,1.402-2,2.182v6.134 C9.502,19.134,10.169,17.858,11,16.701z" opacity=".05"/><path fill="#010101" d="M11,39.825v-4.527c-0.831-1.156-1.498-2.432-2-3.79v6.134 C9.608,38.423,10.28,39.149,11,39.825z" opacity=".05"/><path fill="#010101" d="M10.5,17.466v-4.812c-0.349,0.352-0.68,0.721-1,1.099v5.524 C9.793,18.648,10.131,18.047,10.5,17.466z" opacity=".07"/><path fill="#010101" d="M10.5,39.346v-4.812c-0.369-0.581-0.707-1.182-1-1.811v5.524 C9.82,38.626,10.151,38.994,10.5,39.346z" opacity=".07"/><radialGradient id="yz02LPR6ruUezSczlVNW7f" cx="24" cy="26" r="19" gradientUnits="userSpaceOnUse"><stop offset="0" stop-color="#eba600"/><stop offset="1" stop-color="#c28200"/></radialGradient><path fill="url(#yz02LPR6ruUezSczlVNW7f)" d="M24,7C13.507,7,5,15.507,5,26s8.507,19,19,19s19-8.507,19-19S34.493,7,24,7z M24,42	c-8.837,0-16-7.163-16-16s7.163-16,16-16s16,7.163,16,16S32.837,42,24,42z"/><path fill="#010101" d="M11,39.83V12.17c-0.723,0.68-1.391,1.413-2,2.198v23.266 C9.609,38.417,10.277,39.151,11,39.83z" opacity=".05"/><path fill="#010101" d="M17.952,44c1.902,0.639,3.931,1,6.048,1s4.147-0.361,6.048-1H17.952z" opacity=".05"/><path fill="#010101" d="M20,38V7.43c-0.682,0.146-1.347,0.335-2,0.552V40h18.813 c0.681-0.624,1.328-1.284,1.912-2H20z" opacity=".05"/><path fill="#010101" d="M10.5,39.363V12.636c-0.349,0.352-0.68,0.722-1,1.1v24.526 C9.82,38.642,10.151,39.011,10.5,39.363z" opacity=".07"/><path fill="#010101" d="M19.727,44.5C21.103,44.817,22.529,45,24,45s2.897-0.183,4.273-0.5H19.727z" opacity=".07"/><path fill="#010101" d="M19.5,38.5V7.558c-0.335,0.082-0.672,0.158-1,0.257V39.5h18.864 c0.322-0.319,0.622-0.659,0.921-1H19.5z" opacity=".07"/><linearGradient id="yz02LPR6ruUezSczlVNW7g" x1="22.597" x2="22.597" y1="3" y2="45" gradientUnits="userSpaceOnUse"><stop offset="0" stop-color="#ffd869"/><stop offset="1" stop-color="#fec52b"/></linearGradient><path fill="url(#yz02LPR6ruUezSczlVNW7g)" d="M7,3h11v37l20.193-0.032L34,45H7l3-4V7L7,3z"/><radialGradient id="yz02LPR6ruUezSczlVNW7h" cx="28" cy="22" r="15.524" gradientUnits="userSpaceOnUse"><stop offset="0" stop-color="#eba600"/><stop offset="1" stop-color="#c28200"/></radialGradient><path fill="url(#yz02LPR6ruUezSczlVNW7h)" d="M19,39V3h-2v38h20.333L39,39H19z"/><linearGradient id="yz02LPR6ruUezSczlVNW7i" x1="22.597" x2="22.597" y1="3" y2="45" gradientUnits="userSpaceOnUse"><stop offset="0" stop-color="#ffd869"/><stop offset="1" stop-color="#fec52b"/></linearGradient><path fill="url(#yz02LPR6ruUezSczlVNW7i)" d="M7,3h11v37l20.193-0.032L34,45H7l3-4V7L7,3z"/><radialGradient id="yz02LPR6ruUezSczlVNW7j" cx="28" cy="22" r="15.524" gradientUnits="userSpaceOnUse"><stop offset="0" stop-color="#eba600"/><stop offset="1" stop-color="#c28200"/></radialGradient><path fill="url(#yz02LPR6ruUezSczlVNW7j)" d="M19,39V3h-2v38h20.333L39,39H19z"/></svg>