<svg xmlns="http://www.w3.org/2000/svg" viewBox="0 0 48 48"><radialGradient id="~COWIV0qjzv7ezQsR1hY0a" cx="52.363" cy="29.761" r="23.827" gradientTransform="matrix(1.0244 0 0 1.0645 -2.756 2.807)" gradientUnits="userSpaceOnUse"><stop offset="0" stop-color="#bd8af5"/><stop offset=".137" stop-color="#b88bf5"/><stop offset=".309" stop-color="#a88ff3"/><stop offset=".499" stop-color="#8f96f2"/><stop offset=".702" stop-color="#6b9eef"/><stop offset=".913" stop-color="#3eaaec"/><stop offset="1" stop-color="#29afea"/></radialGradient><path fill="url(#~COWIV0qjzv7ezQsR1hY0a)" d="M43,41H5c-1.105,0-2-0.895-2-2V10c0-1.105,0.895-2,2-2h38c1.105,0,2,0.895,2,2v29	C45,40.105,44.105,41,43,41z"/><path fill="#fff" d="M41,16h-2c-0.552,0-1-0.448-1-1v-2c0-0.552,0.448-1,1-1h2c0.552,0,1,0.448,1,1v2	C42,15.552,41.552,16,41,16z"/><path fill="#fff" d="M41,23h-2c-0.552,0-1-0.448-1-1v-2c0-0.552,0.448-1,1-1h2c0.552,0,1,0.448,1,1v2	C42,22.552,41.552,23,41,23z"/><path fill="#fff" d="M41,30h-2c-0.552,0-1-0.448-1-1v-2c0-0.552,0.448-1,1-1h2c0.552,0,1,0.448,1,1v2	C42,29.552,41.552,30,41,30z"/><path fill="#fff" d="M41,37h-2c-0.552,0-1-0.448-1-1v-2c0-0.552,0.448-1,1-1h2c0.552,0,1,0.448,1,1v2	C42,36.552,41.552,37,41,37z"/><path fill="#fff" d="M9,16H7c-0.552,0-1-0.448-1-1v-2c0-0.552,0.448-1,1-1h2c0.552,0,1,0.448,1,1v2	C10,15.552,9.552,16,9,16z"/><path fill="#fff" d="M9,23H7c-0.552,0-1-0.448-1-1v-2c0-0.552,0.448-1,1-1h2c0.552,0,1,0.448,1,1v2	C10,22.552,9.552,23,9,23z"/><path fill="#fff" d="M9,30H7c-0.552,0-1-0.448-1-1v-2c0-0.552,0.448-1,1-1h2c0.552,0,1,0.448,1,1v2	C10,29.552,9.552,30,9,30z"/><path fill="#fff" d="M9,37H7c-0.552,0-1-0.448-1-1v-2c0-0.552,0.448-1,1-1h2c0.552,0,1,0.448,1,1v2	C10,36.552,9.552,37,9,37z"/><path fill="#fff" d="M28.321,15.647h-5.337l-0.296,2.118c0.296-0.043,0.55-0.043,0.889-0.043 c1.314,0,2.648,0.296,3.622,0.996c1.038,0.698,1.673,1.843,1.673,3.452c0,2.563-2.203,4.829-5.909,4.829 c-1.673,0-3.071-0.381-3.833-0.783l0.572-2.415c0.615,0.296,1.864,0.678,3.114,0.678c1.334,0,2.754-0.635,2.754-2.098 c0-1.419-1.123-2.287-3.876-2.287c-0.763,0-1.292,0.043-1.864,0.128L20.738,13h7.582V15.647z"/><path fill="#fff" d="M15.045,33.26c0-0.685-0.022-1.268-0.045-1.752h1.438l0.079,0.742h0.034 c0.235-0.348,0.719-0.865,1.662-0.865c0.707,0,1.269,0.359,1.505,0.933h0.022c0.203-0.281,0.449-0.506,0.708-0.663 c0.303-0.179,0.64-0.27,1.044-0.27c1.056,0,1.853,0.742,1.853,2.381V37h-1.662v-2.988c0-0.797-0.258-1.257-0.809-1.257 c-0.393,0-0.674,0.269-0.786,0.595c-0.045,0.123-0.068,0.303-0.068,0.438V37h-1.662v-3.077c0-0.697-0.247-1.168-0.786-1.168 c-0.438,0-0.696,0.337-0.797,0.617c-0.056,0.135-0.067,0.292-0.067,0.427V37h-1.663V33.26z"/><path fill="#fff" d="M26.473,29.98c0,0.472-0.359,0.854-0.921,0.854c-0.539,0-0.898-0.382-0.887-0.854 c-0.011-0.494,0.348-0.864,0.899-0.864C26.114,29.116,26.461,29.486,26.473,29.98z M24.709,37v-5.493h1.707V37H24.709z"/><path fill="#fff" d="M27.788,33.26c0-0.685-0.022-1.268-0.045-1.752h1.482l0.079,0.753h0.034 c0.225-0.348,0.786-0.876,1.696-0.876c1.123,0,1.965,0.742,1.965,2.359V37h-1.707v-3.044c0-0.708-0.247-1.191-0.865-1.191 c-0.471,0-0.752,0.326-0.865,0.64c-0.045,0.102-0.067,0.27-0.067,0.427V37h-1.707V33.26z"/></svg>