<svg xmlns="http://www.w3.org/2000/svg" viewBox="0 0 48 48"><linearGradient id="kLQsPeDaES1VRVb9SCjOGa" x1="24" x2="24" y1="2.941" y2="60.095" gradientUnits="userSpaceOnUse"><stop offset="0" stop-color="#199ae0"/><stop offset="1" stop-color="#0782d8"/></linearGradient><path fill="url(#kLQsPeDaES1VRVb9SCjOGa)" d="M40,42H8c-1.105,0-2-0.895-2-2V8c0-1.105,0.895-2,2-2h32c1.105,0,2,0.895,2,2v32	C42,41.105,41.105,42,40,42z"/><linearGradient id="kLQsPeDaES1VRVb9SCjOGb" x1="6.706" x2="44.416" y1="6.706" y2="44.416" gradientUnits="userSpaceOnUse"><stop offset="0" stop-color="#4c4c4c"/><stop offset="1" stop-color="#343434"/></linearGradient><circle cx="9" cy="9" r="1" fill="url(#kLQsPeDaES1VRVb9SCjOGb)"/><linearGradient id="kLQsPeDaES1VRVb9SCjOGc" x1="21.706" x2="59.416" y1="-8.294" y2="29.416" gradientUnits="userSpaceOnUse"><stop offset="0" stop-color="#4c4c4c"/><stop offset="1" stop-color="#343434"/></linearGradient><circle cx="39" cy="9" r="1" fill="url(#kLQsPeDaES1VRVb9SCjOGc)"/><linearGradient id="kLQsPeDaES1VRVb9SCjOGd" x1="-8.044" x2="29.666" y1="21.456" y2="59.166" gradientUnits="userSpaceOnUse"><stop offset="0" stop-color="#4c4c4c"/><stop offset="1" stop-color="#343434"/></linearGradient><circle cx="9" cy="38.5" r="1" fill="url(#kLQsPeDaES1VRVb9SCjOGd)"/><linearGradient id="kLQsPeDaES1VRVb9SCjOGe" x1="6.956" x2="44.666" y1="6.456" y2="44.166" gradientUnits="userSpaceOnUse"><stop offset="0" stop-color="#4c4c4c"/><stop offset="1" stop-color="#343434"/></linearGradient><circle cx="39" cy="38.5" r="1" fill="url(#kLQsPeDaES1VRVb9SCjOGe)"/><radialGradient id="kLQsPeDaES1VRVb9SCjOGf" cx="24" cy="24" r="14.179" gradientUnits="userSpaceOnUse"><stop offset=".881"/><stop offset="1" stop-opacity="0"/></radialGradient><circle cx="24" cy="24" r="14" fill="url(#kLQsPeDaES1VRVb9SCjOGf)" opacity=".15"/><linearGradient id="kLQsPeDaES1VRVb9SCjOGg" x1="12.353" x2="40.746" y1="12.353" y2="40.746" gradientUnits="userSpaceOnUse"><stop offset="0" stop-color="#4c4c4c"/><stop offset="1" stop-color="#343434"/></linearGradient><circle cx="24" cy="24" r="13" fill="url(#kLQsPeDaES1VRVb9SCjOGg)"/><linearGradient id="kLQsPeDaES1VRVb9SCjOGh" x1="13.412" x2="36.237" y1="13.412" y2="36.237" gradientUnits="userSpaceOnUse"><stop offset="0" stop-color="#f9f9f9"/><stop offset="1" stop-color="#c2c8cc"/></linearGradient><circle cx="24" cy="24" r="11" fill="url(#kLQsPeDaES1VRVb9SCjOGh)"/><linearGradient id="kLQsPeDaES1VRVb9SCjOGi" x1="12.353" x2="40.746" y1="12.353" y2="40.746" gradientUnits="userSpaceOnUse"><stop offset="0" stop-color="#4c4c4c"/><stop offset="1" stop-color="#343434"/></linearGradient><circle cx="24" cy="24" r="5" fill="url(#kLQsPeDaES1VRVb9SCjOGi)"/></svg>