<svg xmlns="http://www.w3.org/2000/svg" xmlns:xlink="http://www.w3.org/1999/xlink" data-name="Слой 1" viewBox="0 0 48 48"><defs><linearGradient id="Xhz33GTwuj9xCo0~sQ69Ra" x1="22.553" x2="23.792" y1="13.13" y2="28.664" data-name="Новый образец градиентной зал 3" gradientUnits="userSpaceOnUse"><stop offset="0" stop-color="#32bdef"/><stop offset="1" stop-color="#1ea2e4"/></linearGradient><linearGradient id="Xhz33GTwuj9xCo0~sQ69Rb" x1="13.669" x2="14.277" y1="13.1" y2="20.723" xlink:href="#Xhz33GTwuj9xCo0~sQ69Ra"/><linearGradient id="Xhz33GTwuj9xCo0~sQ69Rc" x1="3" x2="46.46" y1="28.002" y2="28.002" data-name="Безымянный градиент 123" gradientUnits="userSpaceOnUse"><stop offset="0" stop-color="#f44f5a"/><stop offset=".443" stop-color="#ee3d4a"/><stop offset="1" stop-color="#e52030"/></linearGradient><linearGradient id="Xhz33GTwuj9xCo0~sQ69Rd" x1="24" x2="24" y1="-4630.951" y2="-4640.994" data-name="Безымянный градиент 12" gradientTransform="matrix(1 0 0 -1 0 -4598)" gradientUnits="userSpaceOnUse"><stop offset="0" stop-color="#2aa4f4"/><stop offset="1" stop-color="#007ad9"/></linearGradient></defs><path fill="url(#Xhz33GTwuj9xCo0~sQ69Ra)" d="M38,22l-7.55525-5.03684a4,4,0,0,0-3.135-.56546L12,20,9,28Z"/><path fill="#0370c8" d="M14.82994,21.80269a1,1,0,0,1,.7339-.681l12.20374-2.777a1.96,1.96,0,0,1,.458-.05371,1.99733,1.99733,0,0,1,1.11035.33593l2.549,1.6998a.5.5,0,0,1-.18668.90769l-16.07585,2.9662a1,1,0,0,1-1.13723-1.27748Z"/><polygon fill="url(#Xhz33GTwuj9xCo0~sQ69Rb)" points="12 20 8 16 12 15 20 18.5 12 20"/><path fill="url(#Xhz33GTwuj9xCo0~sQ69Rc)" d="M9.5778,27.022l36.26432-6.509a.52412.52412,0,0,1,.53348.7993L37.59188,34.97588,3,35.5l1.84933-4.62332A6.28943,6.28943,0,0,1,9.5778,27.022Z"/><path fill="url(#Xhz33GTwuj9xCo0~sQ69Rd)" d="M42,34a5.60654,5.60654,0,0,1-3-1,5.60654,5.60654,0,0,1-3,1,5.60654,5.60654,0,0,1-3-1,5.60654,5.60654,0,0,1-3,1,5.60654,5.60654,0,0,1-3-1,5.60654,5.60654,0,0,1-3,1,5.60654,5.60654,0,0,1-3-1,5.60654,5.60654,0,0,1-3,1,5.60654,5.60654,0,0,1-3-1,5.60654,5.60654,0,0,1-3,1,5.60654,5.60654,0,0,1-3-1,5.60654,5.60654,0,0,1-3,1,5.60654,5.60654,0,0,1-3-1v8a1.99945,1.99945,0,0,0,2,2H43a1.99945,1.99945,0,0,0,2-2V33A5.60654,5.60654,0,0,1,42,34Z"/><circle cx="25.5" cy="28.5" r="1.5" fill="#343434"/><circle cx="20.5" cy="29.5" r="1.5" fill="#343434"/><circle cx="30.5" cy="27.5" r="1.5" fill="#343434"/><circle cx="35.5" cy="26.5" r="1.5" fill="#343434"/></svg>