<svg xmlns="http://www.w3.org/2000/svg" viewBox="0 0 48 48"><linearGradient id="qby1tYd_ggSYoGXTQ5CT2a" x1="10.598" x2="13.402" y1="29.403" y2="42.597" gradientUnits="userSpaceOnUse"><stop offset="0" stop-color="#ffda1c"/><stop offset="1" stop-color="#feb705"/></linearGradient><path fill="url(#qby1tYd_ggSYoGXTQ5CT2a)" d="M8,42c-1.1,0-2-0.9-2-2v-8c0-1.1,0.9-2,2-2h8c1.1,0,2,0.9,2,2v8c0,1.1-0.9,2-2,2H8z"/><linearGradient id="qby1tYd_ggSYoGXTQ5CT2b" x1="22.598" x2="25.402" y1="29.403" y2="42.597" gradientUnits="userSpaceOnUse"><stop offset="0" stop-color="#2aa4f4"/><stop offset="1" stop-color="#007ad9"/></linearGradient><path fill="url(#qby1tYd_ggSYoGXTQ5CT2b)" d="M20,42c-1.1,0-2-0.9-2-2v-8c0-1.1,0.9-2,2-2h8c1.1,0,2,0.9,2,2v8c0,1.1-0.9,2-2,2H20z"/><linearGradient id="qby1tYd_ggSYoGXTQ5CT2c" x1="34.598" x2="37.402" y1="29.403" y2="42.597" gradientUnits="userSpaceOnUse"><stop offset="0" stop-color="#21ad64"/><stop offset="1" stop-color="#088242"/></linearGradient><path fill="url(#qby1tYd_ggSYoGXTQ5CT2c)" d="M32,42c-1.1,0-2-0.9-2-2v-8c0-1.1,0.9-2,2-2h8c1.1,0,2,0.9,2,2v8c0,1.1-0.9,2-2,2H32z"/><linearGradient id="qby1tYd_ggSYoGXTQ5CT2d" x1="10.598" x2="13.402" y1="17.403" y2="30.597" gradientUnits="userSpaceOnUse"><stop offset="0" stop-color="#21ad64"/><stop offset="1" stop-color="#088242"/></linearGradient><path fill="url(#qby1tYd_ggSYoGXTQ5CT2d)" d="M8,30c-1.1,0-2-0.9-2-2v-8c0-1.1,0.9-2,2-2h8c1.1,0,2,0.9,2,2v8c0,1.1-0.9,2-2,2H8z"/><linearGradient id="qby1tYd_ggSYoGXTQ5CT2e" x1="22.598" x2="25.402" y1="17.403" y2="30.597" gradientUnits="userSpaceOnUse"><stop offset="0" stop-color="#f45560"/><stop offset="1" stop-color="#cf1928"/></linearGradient><path fill="url(#qby1tYd_ggSYoGXTQ5CT2e)" d="M20,30c-1.1,0-2-0.9-2-2v-8c0-1.1,0.9-2,2-2h8c1.1,0,2,0.9,2,2v8c0,1.1-0.9,2-2,2H20z"/><linearGradient id="qby1tYd_ggSYoGXTQ5CT2f" x1="34.598" x2="37.402" y1="17.403" y2="30.597" gradientUnits="userSpaceOnUse"><stop offset="0" stop-color="#f9f9f9"/><stop offset=".168" stop-color="#f1f2f3"/><stop offset=".376" stop-color="#e5e7e9"/><stop offset=".607" stop-color="#dde0e2"/><stop offset="1" stop-color="#c2c8cc"/></linearGradient><path fill="url(#qby1tYd_ggSYoGXTQ5CT2f)" d="M32,30c-1.1,0-2-0.9-2-2v-8c0-1.1,0.9-2,2-2h8c1.1,0,2,0.9,2,2v8c0,1.1-0.9,2-2,2H32z"/><linearGradient id="qby1tYd_ggSYoGXTQ5CT2g" x1="10.598" x2="13.402" y1="5.403" y2="18.597" gradientUnits="userSpaceOnUse"><stop offset="0" stop-color="#2aa4f4"/><stop offset="1" stop-color="#007ad9"/></linearGradient><path fill="url(#qby1tYd_ggSYoGXTQ5CT2g)" d="M8,18c-1.1,0-2-0.9-2-2V8c0-1.1,0.9-2,2-2h8c1.1,0,2,0.9,2,2v8c0,1.1-0.9,2-2,2H8z"/><linearGradient id="qby1tYd_ggSYoGXTQ5CT2h" x1="22.598" x2="25.402" y1="5.403" y2="18.597" gradientUnits="userSpaceOnUse"><stop offset="0" stop-color="#f9f9f9"/><stop offset=".168" stop-color="#f1f2f3"/><stop offset=".376" stop-color="#e5e7e9"/><stop offset=".607" stop-color="#dde0e2"/><stop offset="1" stop-color="#c2c8cc"/></linearGradient><path fill="url(#qby1tYd_ggSYoGXTQ5CT2h)" d="M20,18c-1.1,0-2-0.9-2-2V8c0-1.1,0.9-2,2-2h8c1.1,0,2,0.9,2,2v8c0,1.1-0.9,2-2,2H20z"/><linearGradient id="qby1tYd_ggSYoGXTQ5CT2i" x1="34.598" x2="37.402" y1="5.403" y2="18.597" gradientUnits="userSpaceOnUse"><stop offset="0" stop-color="#ffda1c"/><stop offset="1" stop-color="#feb705"/></linearGradient><path fill="url(#qby1tYd_ggSYoGXTQ5CT2i)" d="M32,18c-1.1,0-2-0.9-2-2V8c0-1.1,0.9-2,2-2h8c1.1,0,2,0.9,2,2v8c0,1.1-0.9,2-2,2H32z"/><linearGradient id="qby1tYd_ggSYoGXTQ5CT2j" x1="5" x2="43" y1="24" y2="24" gradientUnits="userSpaceOnUse"><stop offset="0" stop-color="#41474a"/><stop offset="1" stop-color="#323538"/></linearGradient><path fill="url(#qby1tYd_ggSYoGXTQ5CT2j)" d="M43,8c0-1.7-1.3-3-3-3h-8c-0.784,0-1.474,0.285-2,0.75C29.474,5.285,28.784,5,28,5h-8 c-0.784,0-1.474,0.285-2,0.75C17.474,5.285,16.784,5,16,5H8C6.3,5,5,6.3,5,8v8c0,0.784,0.285,1.474,0.75,2 C5.285,18.526,5,19.216,5,20v8c0,0.784,0.285,1.474,0.75,2C5.285,30.526,5,31.216,5,32v8c0,1.7,1.3,3,3,3h8 c0.784,0,1.474-0.285,2-0.75c0.526,0.464,1.216,0.75,2,0.75h8c0.784,0,1.474-0.285,2-0.75c0.526,0.464,1.216,0.75,2,0.75h8 c1.7,0,3-1.3,3-3v-8c0-0.784-0.285-1.474-0.75-2c0.464-0.526,0.75-1.216,0.75-2v-8c0-0.784-0.285-1.474-0.75-2 c0.464-0.526,0.75-1.216,0.75-2V8z M32,7h8c0.6,0,1,0.4,1,1v8c0,0.6-0.4,1-1,1h-8c-0.6,0-1-0.4-1-1V8C31,7.4,31.4,7,32,7z M41,20v8 c0,0.6-0.4,1-1,1h-8c-0.6,0-1-0.4-1-1v-8c0-0.6,0.4-1,1-1h8C40.6,19,41,19.4,41,20z M7,28v-8c0-0.6,0.4-1,1-1h8c0.6,0,1,0.4,1,1v8 c0,0.6-0.4,1-1,1H8C7.4,29,7,28.6,7,28z M19,28v-8c0-0.6,0.4-1,1-1h8c0.6,0,1,0.4,1,1v8c0,0.6-0.4,1-1,1h-8C19.4,29,19,28.6,19,28z M20,7h8c0.6,0,1,0.4,1,1v8c0,0.6-0.4,1-1,1h-8c-0.6,0-1-0.4-1-1V8C19,7.4,19.4,7,20,7z M7,8c0-0.6,0.4-1,1-1h8c0.6,0,1,0.4,1,1v8 c0,0.6-0.4,1-1,1H8c-0.6,0-1-0.4-1-1V8z M16,41H8c-0.6,0-1-0.4-1-1v-8c0-0.6,0.4-1,1-1h8c0.6,0,1,0.4,1,1v8C17,40.6,16.6,41,16,41z M28,41h-8c-0.6,0-1-0.4-1-1v-8c0-0.6,0.4-1,1-1h8c0.6,0,1,0.4,1,1v8C29,40.6,28.6,41,28,41z M41,40c0,0.6-0.4,1-1,1h-8 c-0.6,0-1-0.4-1-1v-8c0-0.6,0.4-1,1-1h8c0.6,0,1,0.4,1,1V40z"/></svg>