<svg xmlns="http://www.w3.org/2000/svg" viewBox="0 0 48 48"><path fill="#cf1928" d="M45,41H3l9.107-10.018C12.676,30.357,13.482,30,14.327,30h19.346c0.845,0,1.651,0.357,2.22,0.982	L45,41z"/><circle cx="43" cy="9" r="2" fill="#e3a600"/><path fill="#edbe00" d="M45,41h-4V12c0-0.552,0.448-1,1-1h2c0.552,0,1,0.448,1,1V41z"/><circle cx="5" cy="9" r="2" fill="#e3a600"/><path fill="#edbe00" d="M7,41H3V12c0-0.552,0.448-1,1-1h2c0.552,0,1,0.448,1,1V41z"/><path fill="#edbe00" d="M8,14c-0.27,0-0.52-0.101-0.71-0.29C7.1,13.52,7,13.27,7,13c0-0.13,0.03-0.26,0.08-0.38 c0.05-0.13,0.12-0.23,0.21-0.33c0.37-0.37,1.04-0.37,1.42,0c0.09,0.1,0.16,0.21,0.21,0.33C8.98,12.74,9,12.87,9,13 c0,0.26-0.1,0.52-0.29,0.71C8.52,13.899,8.27,14,8,14z"/><path fill="#edbe00" d="M24.48,16.01c-0.01-0.55,0.42-1.02,0.97-1.03l0,0c0.56-0.02,1.02,0.42,1.03,0.971l0,0 c0.02,0.55-0.42,1.01-0.97,1.029l0,0c-0.01,0-0.02,0-0.03,0l0,0C24.94,16.979,24.5,16.55,24.48,16.01z M22.47,16.979 c-0.55-0.02-0.98-0.479-0.96-1.029l0,0c0.01-0.561,0.47-0.99,1.03-0.971l0,0l0,0l0,0c0.55,0.011,0.98,0.471,0.96,1.03l0,0 c-0.01,0.54-0.46,0.97-1,0.97l0,0C22.49,16.979,22.48,16.979,22.47,16.979z M27.46,15.89c-0.05-0.55,0.35-1.04,0.91-1.09l0,0 c0,0,0,0-0.01,0l0,0c0.56-0.05,1.04,0.35,1.09,0.9l0,0c0.05,0.55-0.35,1.04-0.9,1.09l0,0c-0.03,0-0.06,0.01-0.09,0.01l0,0 C27.94,16.8,27.51,16.399,27.46,15.89z M19.44,16.79L19.44,16.79c-0.55-0.05-0.96-0.54-0.91-1.09l0,0 c0.06-0.551,0.54-0.95,1.09-0.9l0,0c0.55,0.05,0.96,0.54,0.91,1.09l0,0c-0.05,0.51-0.49,0.91-1,0.91l0,0 C19.5,16.8,19.47,16.79,19.44,16.79z M30.42,15.58c-0.08-0.54,0.29-1.061,0.84-1.141l0,0c0.54-0.09,1.05,0.28,1.14,0.83l0,0 c0.09,0.54-0.28,1.061-0.83,1.141l0,0c-0.05,0.01-0.11,0.02-0.16,0.02l0,0C30.93,16.43,30.5,16.069,30.42,15.58z M16.42,16.41 c-0.55-0.091-0.92-0.601-0.83-1.141l0,0c0.08-0.55,0.6-0.92,1.14-0.83l0,0c0.55,0.08,0.92,0.601,0.83,1.141l0,0 c-0.08,0.489-0.5,0.84-0.98,0.84l0,0C16.52,16.42,16.47,16.42,16.42,16.41z M33.36,15.08c-0.12-0.54,0.21-1.07,0.75-1.2l0,0l0,0 l0,0c0.54-0.12,1.08,0.21,1.2,0.75l0,0c0.13,0.54-0.21,1.07-0.75,1.2l0,0c-0.07,0.02-0.15,0.02-0.22,0.02l0,0 C33.88,15.85,33.47,15.54,33.36,15.08z M13.42,15.83L13.42,15.83c-0.53-0.13-0.87-0.67-0.74-1.2l0,0c0.12-0.54,0.66-0.88,1.2-0.75 l0,0c0.53,0.12,0.87,0.66,0.74,1.2l0,0c-0.1,0.46-0.51,0.77-0.97,0.77l0,0C13.58,15.85,13.5,15.84,13.42,15.83z M36.26,14.37 c-0.17-0.521,0.12-1.09,0.65-1.261l0,0c0.52-0.159,1.08,0.131,1.25,0.65l0,0c0.17,0.53-0.12,1.09-0.64,1.26l0,0 c-0.11,0.03-0.21,0.05-0.31,0.05l0,0C36.79,15.069,36.39,14.8,36.26,14.37z M10.47,15.02L10.47,15.02 c-0.52-0.17-0.81-0.729-0.64-1.26l0,0c0.16-0.53,0.72-0.82,1.25-0.65l0,0l0,0l0,0c0.53,0.171,0.82,0.73,0.65,1.261l0,0 c-0.14,0.42-0.53,0.689-0.96,0.689l0,0C10.67,15.06,10.57,15.05,10.47,15.02z"/><path fill="#edbe00" d="M40,14c-0.27,0-0.52-0.101-0.71-0.29C39.1,13.52,39,13.27,39,13c0-0.13,0.03-0.26,0.08-0.38 c0.05-0.12,0.12-0.23,0.21-0.33c0.38-0.37,1.05-0.37,1.42,0c0.09,0.1,0.16,0.2,0.21,0.33C40.97,12.74,41,12.87,41,13 c0,0.27-0.1,0.52-0.29,0.71c-0.1,0.09-0.21,0.16-0.33,0.21S40.13,14,40,14z"/></svg>