<svg xmlns="http://www.w3.org/2000/svg" viewBox="0 0 48 48"><path fill="#184f85" d="M36,9H12v34c0,1.105,0.895,2,2,2h20c1.105,0,2-0.895,2-2V9z"/><path fill="#121212" d="M25,38V16c0-0.552-0.448-1-1-1l0,0c-0.552,0-1,0.448-1,1v22c0,0.552,0.448,1,1,1l0,0	C24.552,39,25,38.552,25,38z"/><path fill="#50e6ff" d="M36,9H12V6c0-1.105,0.895-2,2-2h20c1.105,0,2,0.895,2,2V9z"/><circle cx="20" cy="6.5" r=".75" fill="#0c63ad"/><path fill="#0c63ad" d="M27.5,5.75c-0.194,0-4.806,0-5,0c-0.414,0-0.75,0.336-0.75,0.75s0.336,0.75,0.75,0.75	c0.194,0,4.806,0,5,0c0.414,0,0.75-0.336,0.75-0.75S27.914,5.75,27.5,5.75z"/><path fill="#61e3a7" d="M25,17h17c0.552,0,1,0.448,1,1v18c0,0.552-0.448,1-1,1H25V17z"/><path fill="#33c481" d="M25,17v3.294C25.634,20.105,26.305,20,27,20c3.866,0,7,3.134,7,7s-3.134,7-7,7	c-0.695,0-1.366-0.105-2-0.294V37h13V17H25z"/><path fill="#21a366" d="M23,37h2V17h-2V37z"/><path fill="#59d19a" d="M23,21.26v11.48c0.604,0.422,1.277,0.751,2,0.966V20.294C24.277,20.509,23.604,20.838,23,21.26z"/></svg>