<svg xmlns="http://www.w3.org/2000/svg" viewBox="0 0 48 48"><radialGradient id="lPzbNg7ZM1EM1Fex8TcRoa" cx="23.709" cy="3074.26" r="13.71" gradientTransform="translate(0 -3053.67)" gradientUnits="userSpaceOnUse"><stop offset=".376" stop-color="#261103"/><stop offset=".68" stop-color="#431d06"/><stop offset="1" stop-color="#662c09"/></radialGradient><path fill="url(#lPzbNg7ZM1EM1Fex8TcRoa)" d="M23.955,8.185c-10.296,0-12.85,16.625-12.85,16.625c0,2.96,1.375,5.553,4.253,6.24 c2.466,0.589,5.569,1.135,8.597,1.135s6.131-0.546,8.596-1.134c2.879-0.687,4.253-3.281,4.253-6.24 C36.805,24.81,34.251,8.185,23.955,8.185z"/><linearGradient id="lPzbNg7ZM1EM1Fex8TcRob" x1="20.721" x2="25.005" y1="3082.863" y2="3097.601" gradientTransform="translate(0 -3053.67)" gradientUnits="userSpaceOnUse"><stop offset="0" stop-color="#33bef0"/><stop offset="1" stop-color="#0a85d9"/></linearGradient><path fill="url(#lPzbNg7ZM1EM1Fex8TcRob)" d="M23.955,29.756 c-8.837,0-16,4.921-16,10.286v1.143c0,1.105,0.895,2,2,2h28c1.105,0,2-0.895,2-2v-1.143C39.955,34.677,32.792,29.756,23.955,29.756 z"/><path fill="#d6a121" d="M28.955,30.22c0,1.897-2,4-5,4s-5-2.103-5-4c0-2.637,0-7.035,0-7.035h10 C28.955,23.185,28.955,27.583,28.955,30.22z"/><radialGradient id="lPzbNg7ZM1EM1Fex8TcRoc" cx="-2158.803" cy="3132.369" r="10.729" gradientTransform="matrix(-.9136 0 0 .9667 -1948.309 -3008.84)" gradientUnits="userSpaceOnUse"><stop offset="0" stop-color="#ffcf54"/><stop offset=".261" stop-color="#fdcb4d"/><stop offset=".639" stop-color="#f7c13a"/><stop offset="1" stop-color="#f0b421"/></radialGradient><path fill="url(#lPzbNg7ZM1EM1Fex8TcRoc)" d="M23.955,7.256c3.948,0,8,0.693,8,9.722 c0,0.723,0,5.736,0,6.508c0,3.225-4.899,7.699-8,7.699s-8-4.474-8-7.698c0-0.772,0-5.785,0-6.508 C15.955,8.185,20.007,7.256,23.955,7.256z"/><radialGradient id="lPzbNg7ZM1EM1Fex8TcRod" cx="16.839" cy="3058.329" r="32.342" gradientTransform="translate(0 -3053.67)" gradientUnits="userSpaceOnUse"><stop offset="0" stop-color="#c26715"/><stop offset=".508" stop-color="#b85515"/><stop offset="1" stop-color="#ad3f16"/></radialGradient><path fill="url(#lPzbNg7ZM1EM1Fex8TcRod)" d="M23.955,4.185c-5.188,0-6,3-6,3 c-2.109,0.311-7,1-7,17.478c0,3.801,1.903,5.197,2.6,5.603c-2.6-14.364,6.976-12.045,5.4-21.081 c4.046,11.813,16.293,0.054,15.871,20.734c1.206-0.917,2.129-2.757,2.129-5.256C36.955,10.857,31.354,4.185,23.955,4.185z"/><linearGradient id="lPzbNg7ZM1EM1Fex8TcRoe" x1="23.831" x2="24.765" y1="26.969" y2="43.638" gradientUnits="userSpaceOnUse"><stop offset="0" stop-color="#8795a1"/><stop offset="1" stop-color="#6d7882"/></linearGradient><path fill="url(#lPzbNg7ZM1EM1Fex8TcRoe)" d="M8.19,27.185h31.531 c1.192,0,2.119,1.036,1.988,2.221l-1.556,14c-0.113,1.013-0.969,1.779-1.988,1.779H9.745c-1.019,0-1.875-0.766-1.988-1.779 l-1.556-14C6.07,28.222,6.998,27.185,8.19,27.185z"/><path fill="none" stroke="#1d1d1b" stroke-width="2" d="M22.22,41c-0.342,0-0.683-0.13-0.944-0.391l-4.135-4.135 c-0.174-0.174-0.174-0.456,0-0.629l1.258-1.258c0.174-0.174,0.456-0.174,0.629,0l3.191,3.191l6.751-6.751 c0.174-0.174,0.456-0.174,0.629,0l1.258,1.258c0.174,0.174,0.174,0.456,0,0.629l-7.694,7.694C22.904,40.87,22.562,41,22.22,41z" opacity=".05"/><path fill="none" stroke="#000" d="M22.22,41c-0.342,0-0.683-0.13-0.944-0.391l-4.135-4.135 c-0.174-0.174-0.174-0.456,0-0.629l1.258-1.258c0.174-0.174,0.456-0.174,0.629,0l3.191,3.191l6.751-6.751 c0.174-0.174,0.456-0.174,0.629,0l1.258,1.258c0.174,0.174,0.174,0.456,0,0.629l-7.694,7.694C22.904,40.87,22.562,41,22.22,41z" opacity=".07"/><linearGradient id="lPzbNg7ZM1EM1Fex8TcRof" x1="23.66" x2="24.56" y1="30.546" y2="40.685" gradientUnits="userSpaceOnUse"><stop offset="0" stop-color="#9dffce"/><stop offset="1" stop-color="#50d18d"/></linearGradient><path fill="url(#lPzbNg7ZM1EM1Fex8TcRof)" d="M22.22,41 c-0.342,0-0.683-0.13-0.944-0.391l-4.135-4.135c-0.174-0.174-0.174-0.456,0-0.629l1.258-1.258c0.174-0.174,0.456-0.174,0.629,0 l3.191,3.191l6.751-6.751c0.174-0.174,0.456-0.174,0.629,0l1.258,1.258c0.174,0.174,0.174,0.456,0,0.629l-7.694,7.694 C22.904,40.87,22.562,41,22.22,41z"/></svg>