<svg xmlns="http://www.w3.org/2000/svg" viewBox="0 0 48 48"><linearGradient id="5qAaabKMlVQ~nwhC8~TP2a" x1="24" x2="24" y1="-6.647" y2="19.097" gradientUnits="userSpaceOnUse"><stop offset="0" stop-color="#f09701"/><stop offset="1" stop-color="#e36001"/></linearGradient><path fill="url(#5qAaabKMlVQ~nwhC8~TP2a)" d="M36.986,16.5c0.612-0.456,1.014-1.178,1.014-2c0-1.078-0.687-1.989-1.644-2.34	C36.752,11.718,37,11.14,37,10.5c0-1.231-0.892-2.249-2.063-2.456C34.976,7.868,35,7.687,35,7.5C35,6.119,33.881,5,32.5,5	c-0.566,0-1.082,0.195-1.501,0.512C30.999,5.508,31,5.504,31,5.5C31,4.119,29.881,3,28.5,3c-0.698,0-1.328,0.287-1.781,0.749	C26.244,2.719,25.209,2,24,2s-2.244,0.719-2.719,1.749C20.828,3.287,20.198,3,19.5,3C18.119,3,17,4.119,17,5.5	c0,0.004,0.001,0.008,0.001,0.012C16.582,5.195,16.066,5,15.5,5C14.119,5,13,6.119,13,7.5c0,0.187,0.024,0.368,0.063,0.544	C11.892,8.251,11,9.269,11,10.5c0,0.64,0.248,1.218,0.644,1.66C10.687,12.511,10,13.422,10,14.5c0,0.822,0.402,1.544,1.014,2	C10.402,16.956,10,17.678,10,18.5c0,1.381,1.119,2.5,2.5,2.5c0.004,0,0.008-0.001,0.012-0.001C12.195,21.418,12,21.934,12,22.5	c0,1.381,1.119,2.5,2.5,2.5s2.5-1.119,2.5-2.5h14c0,1.381,1.119,2.5,2.5,2.5s2.5-1.119,2.5-2.5c0-0.566-0.195-1.082-0.512-1.501	c0.004,0,0.008,0.001,0.012,0.001c1.381,0,2.5-1.119,2.5-2.5C38,17.678,37.598,16.956,36.986,16.5z"/><linearGradient id="5qAaabKMlVQ~nwhC8~TP2b" x1="13.898" x2="36.414" y1="33.931" y2="46.93" gradientUnits="userSpaceOnUse"><stop offset="0" stop-color="#dfe9f2"/><stop offset=".391" stop-color="#d6e0e9"/><stop offset="1" stop-color="#bfc8d1"/></linearGradient><path fill="url(#5qAaabKMlVQ~nwhC8~TP2b)" d="M40,40.86V42c0,1.1-0.9,2-2,2H10c-1.1,0-2-0.9-2-2v-1.14c0-2.78,1.92-5.44,5-7.36	c0.62-0.39,1.29-0.75,2-1.07c2.57-1.16,5.66-1.86,9-1.86s6.43,0.7,9,1.86c0.71,0.32,1.38,0.68,2,1.07C38.08,35.42,40,38.08,40,40.86	z"/><path fill="#d6a121" d="M29,32c0,1.897-2,4-5,4s-5-2.103-5-4c0-2.637,0-7.035,0-7.035h10C29,24.965,29,29.363,29,32z"/><linearGradient id="5qAaabKMlVQ~nwhC8~TP2c" x1="32.917" x2="34.251" y1="-956" y2="-956" gradientTransform="matrix(1 0 0 -1 0 -936)" gradientUnits="userSpaceOnUse"><stop offset="0" stop-color="#c48f0c"/><stop offset=".251" stop-color="#d19b16"/><stop offset=".619" stop-color="#dca51f"/><stop offset="1" stop-color="#e0a922"/></linearGradient><path fill="url(#5qAaabKMlVQ~nwhC8~TP2c)" d="M32.916,18h-0.527v4h0.703c0.515,0,0.954-0.312,1.041-0.74l0.344-1.703	C34.642,18.743,33.897,18,32.916,18z"/><linearGradient id="5qAaabKMlVQ~nwhC8~TP2d" x1="-2079.083" x2="-2077.749" y1="-956" y2="-956" gradientTransform="rotate(180 -1032 -468)" gradientUnits="userSpaceOnUse"><stop offset="0" stop-color="#c48f0c"/><stop offset=".251" stop-color="#d19b16"/><stop offset=".619" stop-color="#dca51f"/><stop offset="1" stop-color="#e0a922"/></linearGradient><path fill="url(#5qAaabKMlVQ~nwhC8~TP2d)" d="M15.084,18h0.527v4h-0.703c-0.515,0-0.954-0.312-1.041-0.74l-0.344-1.703	C13.358,18.743,14.103,18,15.084,18z"/><radialGradient id="5qAaabKMlVQ~nwhC8~TP2e" cx="122.31" cy="-1061.707" r="12.224" gradientTransform="matrix(.8816 0 0 -.8816 -83.829 -917.3)" gradientUnits="userSpaceOnUse"><stop offset="0" stop-color="#ffcf54"/><stop offset=".261" stop-color="#fdcb4d"/><stop offset=".639" stop-color="#f7c13a"/><stop offset="1" stop-color="#f0b421"/></radialGradient><path fill="url(#5qAaabKMlVQ~nwhC8~TP2e)" d="M24,6.4c-4.441,0-9,0.675-9,10.275c0,0.768,0,5.877,0,6.698C15,26.8,20.4,31,24,31	s9-4.2,9-7.627c0-0.821,0-5.929,0-6.698C33,7.075,28.441,6.4,24,6.4z"/><linearGradient id="5qAaabKMlVQ~nwhC8~TP2f" x1="20.84" x2="31.675" y1="21.351" y2="32.186" gradientUnits="userSpaceOnUse"><stop offset="0" stop-color="#f9f9f9"/><stop offset=".26" stop-color="#f0f1f2"/><stop offset=".678" stop-color="#d9dcdf"/><stop offset="1" stop-color="#c2c8cc"/></linearGradient><path fill="url(#5qAaabKMlVQ~nwhC8~TP2f)" d="M23.99,27.861c-2.009,0-4.019-0.76-5.552-2.279c-0.588-0.583-0.592-1.533-0.009-2.121	c0.583-0.589,1.533-0.594,2.122-0.01c1.936,1.921,4.962,1.913,6.889-0.012c0.586-0.586,1.535-0.586,2.121,0s0.586,1.535,0,2.121	C28.027,27.094,26.009,27.861,23.99,27.861z"/><linearGradient id="5qAaabKMlVQ~nwhC8~TP2g" x1="24" x2="24" y1="17.956" y2="23.487" gradientUnits="userSpaceOnUse"><stop offset="0" stop-color="#f44f5a"/><stop offset=".443" stop-color="#ee3d4a"/><stop offset="1" stop-color="#e52030"/></linearGradient><circle cx="24" cy="21" r="2" fill="url(#5qAaabKMlVQ~nwhC8~TP2g)"/><linearGradient id="5qAaabKMlVQ~nwhC8~TP2h" x1="31.456" x2="24.542" y1="35.002" y2="35.002" gradientUnits="userSpaceOnUse"><stop offset="0" stop-color="#f44f5a"/><stop offset=".32" stop-color="#ee3d4a"/><stop offset=".721" stop-color="#e52030"/><stop offset=".997" stop-color="#b31523"/></linearGradient><path fill="url(#5qAaabKMlVQ~nwhC8~TP2h)" d="M26.097,33.224l1.977-1.003c1.338-0.679,2.921,0.288,2.921,1.778v2.005	c0,1.49-1.587,2.457-2.921,1.778l-1.977-1.003C24.634,36.04,24.634,33.963,26.097,33.224z"/><linearGradient id="5qAaabKMlVQ~nwhC8~TP2i" x1="16.424" x2="23.565" y1="35.002" y2="35.002" gradientUnits="userSpaceOnUse"><stop offset="0" stop-color="#f44f5a"/><stop offset=".32" stop-color="#ee3d4a"/><stop offset=".721" stop-color="#e52030"/><stop offset=".997" stop-color="#b31523"/></linearGradient><path fill="url(#5qAaabKMlVQ~nwhC8~TP2i)" d="M21.897,33.224l-1.977-1.003C18.583,31.542,17,32.509,17,33.999v2.005	c0,1.49,1.587,2.457,2.921,1.778l1.977-1.003C23.359,36.04,23.359,33.963,21.897,33.224z"/><linearGradient id="5qAaabKMlVQ~nwhC8~TP2j" x1="21.5" x2="25.724" y1="32.51" y2="36.734" gradientUnits="userSpaceOnUse"><stop offset="0" stop-color="#f44f5a"/><stop offset=".443" stop-color="#ee3d4a"/><stop offset="1" stop-color="#e52030"/></linearGradient><ellipse cx="24" cy="35.01" fill="url(#5qAaabKMlVQ~nwhC8~TP2j)" rx="2" ry="1.989"/><linearGradient id="5qAaabKMlVQ~nwhC8~TP2k" x1="14" x2="14" y1="29.989" y2="44.665" gradientUnits="userSpaceOnUse"><stop offset="0" stop-color="#f44f5a"/><stop offset=".443" stop-color="#ee3d4a"/><stop offset="1" stop-color="#e52030"/></linearGradient><path fill="url(#5qAaabKMlVQ~nwhC8~TP2k)" d="M15,32.43V44h-2V33.5C13.62,33.11,14.29,32.75,15,32.43z"/><linearGradient id="5qAaabKMlVQ~nwhC8~TP2l" x1="34" x2="34" y1="29.989" y2="44.665" gradientUnits="userSpaceOnUse"><stop offset="0" stop-color="#f44f5a"/><stop offset=".443" stop-color="#ee3d4a"/><stop offset="1" stop-color="#e52030"/></linearGradient><path fill="url(#5qAaabKMlVQ~nwhC8~TP2l)" d="M35,33.5V44h-2V32.43C33.71,32.75,34.38,33.11,35,33.5z"/><linearGradient id="5qAaabKMlVQ~nwhC8~TP2m" x1="24" x2="24" y1="-6.647" y2="19.097" gradientUnits="userSpaceOnUse"><stop offset="0" stop-color="#f09701"/><stop offset="1" stop-color="#e36001"/></linearGradient><path fill="url(#5qAaabKMlVQ~nwhC8~TP2m)" d="M24,6L13,8v9c0,1.105,0.895,2,2,2s2-0.895,2-2c0-0.378-0.111-0.728-0.293-1.03	C16.803,15.985,16.899,16,17,16c1.105,0,2-0.895,2-2c0-0.089-0.015-0.173-0.026-0.258l0.03-0.017C19.299,13.895,19.636,14,20,14	c0.601,0,1.133-0.27,1.5-0.69C21.867,13.73,22.399,14,23,14c0.873,0,1.608-0.563,1.88-1.343C25.2,12.874,25.585,13,26,13	c0.398,0,0.768-0.12,1.079-0.32l0.057,0.031C27.423,13.463,28.147,14,29,14c0.101,0,0.197-0.015,0.293-0.03	C29.111,14.272,29,14.622,29,15c0,1.105,0.895,2,2,2c0,1.105,0.895,2,2,2s2-0.895,2-2V8L24,6z"/></svg>