<svg xmlns="http://www.w3.org/2000/svg" baseProfile="basic" viewBox="0 0 48 48"><polygon fill="#25a2e5" points="43,40 29,43 29,5 43,10"/><polygon fill="#25a2e5" points="5,36 5,14 26.989,5 27,13 13,15 13,32.5"/><polygon points="39.74,19.283 41.508,19.594 41.714,26.671 36.349,27.835" opacity=".05"/><polygon points="40.055,19.846 41.02,20.016 41.202,26.271 37.159,27.147" opacity=".07"/><polygon fill="#fff" points="40.69,25.87 37.97,26.46 40.52,20.03"/><polygon points="36.178,28.286 41.715,27.088 41.863,32.203 33.951,33.9" opacity=".05"/><polygon points="36.544,28.718 41.232,27.704 41.352,31.801 34.761,33.215" opacity=".07"/><polygon fill="#fff" points="40.84,31.4 35.57,32.53 36.91,29.15 40.75,28.32"/><polygon points="33.768,34.354 41.875,32.622 42.023,37.775 31.352,40.442" opacity=".05"/><polygon points="34.134,34.787 41.393,33.236 41.512,37.388 32.176,39.721" opacity=".07"/><polygon fill="#fff" points="41,37 33,39 34.5,35.22 40.91,33.85"/></svg>