<svg xmlns="http://www.w3.org/2000/svg" viewBox="0 0 48 48"><linearGradient id="19MjOokUIr~KulNhctUtJa" x1="8.955" x2="43.295" y1="7.613" y2="45.017" gradientUnits="userSpaceOnUse"><stop offset="0" stop-color="#fc7d5b"/><stop offset=".06" stop-color="#f8734f"/><stop offset=".18" stop-color="#f3653d"/><stop offset=".326" stop-color="#f05b31"/><stop offset=".523" stop-color="#ee552a"/><stop offset="1" stop-color="#ed5328"/></linearGradient><path fill="url(#19MjOokUIr~KulNhctUtJa)" d="M42,38c0,2.209-1.791,4-4,4H10c-2.209,0-4-1.791-4-4V10c0-2.209,1.791-4,4-4h28	c2.209,0,4,1.791,4,4V38z"/><path d="M24,37c-8.701,0-11-7.195-11-11V15c0-1.654,1.346-3,3-3s3,1.346,3,3v11c0,0.835,0.241,5,5,5	s5-4.165,5-5c0-0.668-0.241-4-5-4c-1.654,0-3-1.346-3-3s1.346-3,3-3c8.701,0,11,6.541,11,10C35,29.805,32.701,37,24,37z" opacity=".05"/><path d="M24,36.5c-8.306,0-10.5-6.868-10.5-10.5V15c0-1.379,1.121-2.5,2.5-2.5s2.5,1.121,2.5,2.5v11	c0,0.563,0.154,5.5,5.5,5.5s5.5-4.938,5.5-5.5c0-0.461-0.154-4.5-5.5-4.5c-1.379,0-2.5-1.121-2.5-2.5s1.121-2.5,2.5-2.5	c8.306,0,10.5,6.214,10.5,9.5C34.5,29.632,32.306,36.5,24,36.5z" opacity=".07"/><path fill="#fff" d="M24,36c-7.9,0-10-6.5-10-10V15c0-1.1,0.9-2,2-2s2,0.9,2,2v11c0,1,0.4,6,6,6s6-5,6-6c0-0.8-0.4-5-6-5	c-1.1,0-2-0.9-2-2s0.9-2,2-2c7.9,0,10,5.9,10,9C34,29.5,31.9,36,24,36z"/></svg>