<svg xmlns="http://www.w3.org/2000/svg" viewBox="0 0 48 48"><linearGradient id="aLQ_Zu~EdpNDD32A7PMzxa" x1="24.011" x2="24.011" y1="-180.358" y2="-154.217" gradientTransform="matrix(1 0 0 -1 0 -151.78)" gradientUnits="userSpaceOnUse"><stop offset="0" stop-color="#737b80"/><stop offset=".473" stop-color="#686f74"/><stop offset="1" stop-color="#575c61"/></linearGradient><path fill="url(#aLQ_Zu~EdpNDD32A7PMzxa)" d="M41.829,31.015L39.401,9.551C39.173,7.528,37.462,6,35.427,6H12.576	c-2.037,0-3.748,1.53-3.975,3.554l-2.408,21.46L24,31L41.829,31.015z"/><linearGradient id="aLQ_Zu~EdpNDD32A7PMzxb" x1="-2010" x2="-2010" y1="-181.224" y2="-198.524" gradientTransform="rotate(180 -993 -75.89)" gradientUnits="userSpaceOnUse"><stop offset="0" stop-color="#899198"/><stop offset="1" stop-color="#787e85"/></linearGradient><path fill="url(#aLQ_Zu~EdpNDD32A7PMzxb)" d="M9,42h30c1.65,0,3-1.35,3-3v-7c0-1.65-1.35-3-3-3H9c-1.65,0-3,1.35-3,3v7	C6,40.65,7.35,42,9,42z"/><linearGradient id="aLQ_Zu~EdpNDD32A7PMzxc" x1="37.773" x2="34.17" y1="-189.053" y2="-185.45" gradientTransform="matrix(1 0 0 -1 0 -151.78)" gradientUnits="userSpaceOnUse"><stop offset="0" stop-color="#fff"/><stop offset=".242" stop-color="#f2f2f2"/><stop offset="1" stop-color="#ccc"/></linearGradient><path fill="url(#aLQ_Zu~EdpNDD32A7PMzxc)" d="M38.5,35.5c0,1.38-1.12,2.5-2.5,2.5s-2.5-1.12-2.5-2.5S34.62,33,36,33S38.5,34.12,38.5,35.5z"/><linearGradient id="aLQ_Zu~EdpNDD32A7PMzxd" x1="34.94" x2="37.06" y1="-186.219" y2="-188.341" gradientTransform="matrix(1 0 0 -1 0 -151.78)" gradientUnits="userSpaceOnUse"><stop offset="0" stop-color="#21ad64"/><stop offset="1" stop-color="#088242"/></linearGradient><path fill="url(#aLQ_Zu~EdpNDD32A7PMzxd)" d="M37.5,35.5c0,0.828-0.672,1.5-1.5,1.5s-1.5-0.672-1.5-1.5S35.172,34,36,34	S37.5,34.672,37.5,35.5z"/><path d="M20.495,26.014c-1.336,0-2.592-0.52-3.535-1.463c-0.943-0.943-1.463-2.198-1.463-3.536	c0-1.337,0.52-2.592,1.463-3.536l0.707-0.707c0.933-0.934,2.181-1.449,3.513-1.449c0.236,0,0.472,0.017,0.705,0.049	c-0.214-1.542,0.297-3.115,1.399-4.217l0.707-0.708c0.943-0.943,2.199-1.463,3.536-1.463c1.336,0,2.592,0.52,3.535,1.463	c0.943,0.943,1.463,2.198,1.463,3.536c0,1.337-0.52,2.592-1.463,3.536l-0.708,0.708c-0.934,0.934-2.181,1.448-3.512,1.448	c-0.236,0-0.472-0.017-0.705-0.049c0.213,1.543-0.298,3.115-1.399,4.217l-0.707,0.708C23.087,25.495,21.831,26.014,20.495,26.014z M19.788,20.309c-0.188,0.188-0.292,0.44-0.292,0.707c0,0.268,0.104,0.519,0.292,0.707c0.188,0.188,0.439,0.292,0.707,0.292	s0.519-0.104,0.707-0.292l0.896-0.895c-0.336-0.089-0.643-0.266-0.896-0.518c-0.257-0.258-0.429-0.57-0.516-0.899L19.788,20.309z M26.671,13.426c0.336,0.089,0.644,0.266,0.896,0.519c0.258,0.256,0.43,0.567,0.518,0.896l0.149-0.149	c0.188-0.188,0.292-0.439,0.292-0.707s-0.104-0.519-0.292-0.707c-0.188-0.189-0.439-0.292-0.707-0.292s-0.519,0.104-0.707,0.292	L26.671,13.426z" opacity=".05"/><path d="M30.709,10.802c-0.849-0.849-1.979-1.316-3.182-1.316c-1.204,0-2.334,0.468-3.183,1.316l-0.707,0.708	c-1.119,1.118-1.561,2.777-1.15,4.33l0.049,0.185l-0.185-0.049c-0.382-0.101-0.775-0.152-1.171-0.152	c-1.197,0-2.32,0.462-3.159,1.302l-0.707,0.707c-1.755,1.755-1.755,4.61,0,6.364c0.849,0.849,1.979,1.316,3.182,1.316	s2.333-0.468,3.183-1.316l0.707-0.708c1.118-1.118,1.56-2.777,1.15-4.33l-0.049-0.185l0.185,0.049	c0.382,0.101,0.775,0.152,1.17,0.152c0,0,0,0,0.001,0c1.197,0,2.319-0.462,3.158-1.302l0.708-0.708	C32.464,15.412,32.464,12.557,30.709,10.802z M20.495,22.515c-0.401,0-0.777-0.156-1.061-0.438s-0.438-0.659-0.438-1.061	s0.156-0.778,0.438-1.061l2.12-2.119c-0.582,0.585-0.582,1.535,0.002,2.12c0.283,0.283,0.66,0.439,1.061,0.439	c0.398,0,0.773-0.155,1.056-0.435l-2.117,2.117C21.272,22.359,20.896,22.515,20.495,22.515z M28.587,15.045l-1.373,1.374	c0.584-0.586,0.584-1.536-0.001-2.12c-0.283-0.284-0.66-0.439-1.061-0.439c-0.401,0-0.777,0.156-1.061,0.439l-0.763,0.762	l2.137-2.137c0.283-0.283,0.659-0.438,1.061-0.438s0.778,0.156,1.061,0.438c0.283,0.283,0.438,0.66,0.438,1.061	C29.025,14.386,28.87,14.762,28.587,15.045z" opacity=".07"/><path fill="#737b80" d="M12,34h18c0.552,0,1,0.448,1,1v1c0,0.552-0.448,1-1,1H12c-0.552,0-1-0.448-1-1v-1	C11,34.448,11.448,34,12,34z"/><path fill="#fff" d="M21.91,19.601c0.391,0.391,1.023,0.391,1.414,0l3.536-3.536c0.391-0.391,0.391-1.024,0-1.414	c-0.391-0.39-1.023-0.391-1.414,0l-3.536,3.536C21.519,18.578,21.519,19.211,21.91,19.601z"/><path fill="#fff" d="M21.91,22.43c-0.78,0.78-2.048,0.78-2.828,0s-0.78-2.049,0-2.828l3.142-3.142	c-1.332-0.351-2.807-0.022-3.849,1.021l-0.707,0.707c-1.56,1.56-1.56,4.097,0,5.657s4.097,1.56,5.657,0l0.707-0.707	c1.042-1.042,1.372-2.517,1.021-3.849L21.91,22.43z"/><path fill="#fff" d="M30.355,11.156c-1.56-1.56-4.097-1.56-5.657,0l-0.707,0.707c-1.042,1.042-1.372,2.517-1.021,3.849	l3.142-3.142c0.78-0.78,2.048-0.78,2.828,0c0.78,0.78,0.78,2.049,0,2.828l-3.142,3.142c1.332,0.351,2.807,0.022,3.849-1.021	l0.707-0.707C31.915,15.253,31.915,12.716,30.355,11.156z"/></svg>