<svg xmlns="http://www.w3.org/2000/svg" viewBox="0 0 48 48"><linearGradient id="M80TSmNhM3X9bez7PGo9Qa" x1="8.531" x2="12.224" y1="15.96" y2="33.337" gradientUnits="userSpaceOnUse"><stop offset="0" stop-color="#f09801"/><stop offset="1" stop-color="#e36001"/></linearGradient><path fill="url(#M80TSmNhM3X9bez7PGo9Qa)" d="M12.5,16h-4C7.675,16,7,16.675,7,17.5V33c0,0.552,0.448,1,1,1h1c0.552,0,1-0.448,1-1v-6h2.5 c0.825,0,1.5-0.675,1.5-1.5v-8C14,16.675,13.325,16,12.5,16z M11,24h-1v-5h1V24z"/><linearGradient id="M80TSmNhM3X9bez7PGo9Qb" x1="35.055" x2="38.945" y1="15.849" y2="34.151" gradientUnits="userSpaceOnUse"><stop offset="0" stop-color="#f09801"/><stop offset="1" stop-color="#e36001"/></linearGradient><path fill="url(#M80TSmNhM3X9bez7PGo9Qb)" d="M39.5,16h-5c-0.825,0-1.5,0.675-1.5,1.5v15c0,0.825,0.675,1.5,1.5,1.5h5 c0.825,0,1.5-0.675,1.5-1.5v-8c0-0.825-0.675-1.5-1.5-1.5H39h-1c-0.552,0-1,0.448-1,1v1c0,0.552,0.448,1,1,1v5h-2V19h2v1 c0,0.552,0.448,1,1,1h1c0.552,0,1-0.448,1-1v-2.5C41,16.675,40.325,16,39.5,16z"/><linearGradient id="M80TSmNhM3X9bez7PGo9Qc" x1="17.081" x2="20.991" y1="15.748" y2="34.142" gradientUnits="userSpaceOnUse"><stop offset="0" stop-color="#f09801"/><stop offset="1" stop-color="#e36001"/></linearGradient><path fill="url(#M80TSmNhM3X9bez7PGo9Qc)" d="M22,16h-1c-0.552,0-1,0.448-1,1v14h-2V17c0-0.552-0.448-1-1-1h-1c-0.552,0-1,0.448-1,1v15.5 c0,0.825,0.675,1.5,1.5,1.5h5c0.825,0,1.5-0.675,1.5-1.5V17C23,16.448,22.552,16,22,16z"/><linearGradient id="M80TSmNhM3X9bez7PGo9Qd" x1="26.576" x2="30.424" y1="15.95" y2="34.05" gradientUnits="userSpaceOnUse"><stop offset="0" stop-color="#f09801"/><stop offset="1" stop-color="#e36001"/></linearGradient><path fill="url(#M80TSmNhM3X9bez7PGo9Qd)" d="M32,22v-4.5c0-0.825-0.675-1.5-1.5-1.5h-4c-0.825,0-1.5,0.675-1.5,1.5V23 c-0.552,0-1,0.448-1,1v1c0,0.552,0.448,1,1,1v6.5c0,0.825,0.675,1.5,1.5,1.5h4c0.825,0,1.5-0.675,1.5-1.5V26c0-1.105-0.895-2-2-2 C31.105,24,32,23.105,32,22z M29,31h-1v-5h1V31z M29,23h-1v-4h1V23z"/><linearGradient id="M80TSmNhM3X9bez7PGo9Qe" x1="20.134" x2="27.866" y1="6.811" y2="43.189" gradientUnits="userSpaceOnUse"><stop offset="0" stop-color="#f09801"/><stop offset="1" stop-color="#e36001"/></linearGradient><path fill="url(#M80TSmNhM3X9bez7PGo9Qe)" d="M47,19c0.552,0,1-0.448,1-1v-1c0-0.552-0.448-1-1-1h-1v-2.5c0-1.925-1.575-3.5-3.5-3.5h-37 C3.575,10,2,11.575,2,13.5V16H1c-0.552,0-1,0.448-1,1v1c0,0.552,0.448,1,1,1h1v12H1c-0.552,0-1,0.448-1,1v1c0,0.552,0.448,1,1,1h1 v2.5C2,38.425,3.575,40,5.5,40h37c1.925,0,3.5-1.575,3.5-3.5V34h1c0.552,0,1-0.448,1-1v-1c0-0.552-0.448-1-1-1h-1V19H47z M43,36.5 c0,0.276-0.224,0.5-0.5,0.5h-37C5.224,37,5,36.776,5,36.5v-23C5,13.224,5.224,13,5.5,13h37c0.276,0,0.5,0.224,0.5,0.5V36.5z"/></svg>