<svg xmlns="http://www.w3.org/2000/svg" viewBox="0 0 48 48"><linearGradient id="4gd1LCtGyzdM5CgR8vrrsa" x1="24.011" x2="24.011" y1="209.942" y2="190.072" gradientTransform="translate(0 -181.78)" gradientUnits="userSpaceOnUse"><stop offset="0" stop-color="#737b80"/><stop offset=".473" stop-color="#686f74"/><stop offset="1" stop-color="#575c61"/></linearGradient><path fill="url(#4gd1LCtGyzdM5CgR8vrrsa)" d="M41.829,30.015l-3.182-15.804C38.271,12.343,36.63,11,34.726,11H13.278	c-1.906,0-3.548,1.345-3.922,3.215L6.192,30.014L24,30L41.829,30.015z"/><linearGradient id="4gd1LCtGyzdM5CgR8vrrsb" x1="-1416" x2="-1416" y1="210.224" y2="227.524" gradientTransform="matrix(-1 0 0 1 -1392 -181.78)" gradientUnits="userSpaceOnUse"><stop offset="0" stop-color="#899198"/><stop offset="1" stop-color="#787e85"/></linearGradient><path fill="url(#4gd1LCtGyzdM5CgR8vrrsb)" d="M9,41h30c1.65,0,3-1.35,3-3v-7c0-1.65-1.35-3-3-3H9c-1.65,0-3,1.35-3,3v7	C6,39.65,7.35,41,9,41z"/><linearGradient id="4gd1LCtGyzdM5CgR8vrrsc" x1="37.773" x2="34.17" y1="218.053" y2="214.45" gradientTransform="translate(0 -181.78)" gradientUnits="userSpaceOnUse"><stop offset="0" stop-color="#fff"/><stop offset=".242" stop-color="#f2f2f2"/><stop offset="1" stop-color="#ccc"/></linearGradient><path fill="url(#4gd1LCtGyzdM5CgR8vrrsc)" d="M38.5,34.5c0,1.38-1.12,2.5-2.5,2.5s-2.5-1.12-2.5-2.5S34.62,32,36,32S38.5,33.12,38.5,34.5z"/><linearGradient id="4gd1LCtGyzdM5CgR8vrrsd" x1="34.94" x2="37.06" y1="215.22" y2="217.341" gradientTransform="translate(0 -181.78)" gradientUnits="userSpaceOnUse"><stop offset="0" stop-color="#21ad64"/><stop offset="1" stop-color="#088242"/></linearGradient><path fill="url(#4gd1LCtGyzdM5CgR8vrrsd)" d="M37.5,34.5c0,0.828-0.672,1.5-1.5,1.5s-1.5-0.672-1.5-1.5S35.172,33,36,33	S37.5,33.672,37.5,34.5z"/><path fill="#737b80" d="M11,33h18c0.552,0,1,0.448,1,1v1c0,0.552-0.448,1-1,1H11c-0.552,0-1-0.448-1-1v-1	C10,33.448,10.448,33,11,33z"/><linearGradient id="4gd1LCtGyzdM5CgR8vrrse" x1="28.536" x2="38.728" y1="42.41" y2="23.243" gradientTransform="matrix(1 0 0 -1 0 47.89)" gradientUnits="userSpaceOnUse"><stop offset="0" stop-color="#32bdef"/><stop offset="1" stop-color="#1ea2e4"/></linearGradient><path fill="url(#4gd1LCtGyzdM5CgR8vrrse)" d="M39.5,7c-0.246,0-0.489,0.017-0.728,0.043C37.307,5.192,35.044,4,32.5,4	c-3.365,0-6.239,2.08-7.421,5.021C22.239,9.237,20,11.604,20,14.5c0,3.038,2.462,5.5,5.5,5.5h14c3.59,0,6.5-2.91,6.5-6.5	S43.09,7,39.5,7z"/></svg>