<svg xmlns="http://www.w3.org/2000/svg" viewBox="0 0 48 48"><linearGradient id="4f8TBO~pkeeDQ9HoIfcLra" x1="7.922" x2="33.323" y1="5.525" y2="34.713" gradientUnits="userSpaceOnUse"><stop offset="0" stop-color="#bd4ff4"/><stop offset=".587" stop-color="#a235ec"/><stop offset="1" stop-color="#8c20e5"/></linearGradient><path fill="url(#4f8TBO~pkeeDQ9HoIfcLra)" d="M24.661,8.087l3.432-3.026c1.093-0.964,2.817-0.472,3.237,0.923l1.157,3.838	c0.153,0.507,0.674,0.807,1.189,0.684l4.477-1.066c1.508-0.359,2.833,1.059,2.373,2.539l-1.034,3.327	c-0.173,0.555,0.163,1.14,0.73,1.271l3.95,0.912c1.593,0.368,2.096,2.387,0.861,3.459l-2.645,2.297c-0.459,0.399-0.459,1.111,0,1.51	l2.645,2.297c1.234,1.072,0.731,3.091-0.861,3.459l-3.95,0.912c-0.567,0.131-0.903,0.716-0.73,1.271l1.034,3.327	c0.46,1.48-0.865,2.898-2.373,2.539l-4.477-1.066c-0.515-0.123-1.036,0.177-1.189,0.684l-1.157,3.838	c-0.421,1.395-2.144,1.886-3.237,0.923l-3.432-3.026c-0.378-0.333-0.945-0.333-1.323,0l-3.432,3.026	c-1.093,0.964-2.817,0.472-3.237-0.923l-1.157-3.838c-0.153-0.507-0.674-0.807-1.189-0.684L9.846,38.56	c-1.508,0.359-2.833-1.059-2.373-2.539l1.034-3.327c0.173-0.555-0.163-1.14-0.73-1.271l-3.95-0.912	c-1.593-0.368-2.096-2.387-0.861-3.459l2.645-2.297c0.459-0.399,0.459-1.111,0-1.51l-2.645-2.297	c-1.234-1.072-0.731-3.091,0.861-3.459l3.95-0.912c0.567-0.131,0.903-0.716,0.73-1.271l-1.034-3.327	c-0.46-1.48,0.865-2.898,2.373-2.539l4.477,1.066c0.515,0.123,1.036-0.177,1.189-0.684l1.157-3.838	c0.421-1.395,2.144-1.886,3.237-0.923l3.432,3.026C23.717,8.42,24.283,8.42,24.661,8.087z"/><path d="M39.694,19.519C39.433,19.188,39.044,19,38.629,19h-1.407c-0.523,0-0.99,0.308-1.22,0.763	C35.771,19.305,35.304,19,34.782,19h-1.851c-0.618,0-1.155,0.418-1.32,1.022C31.448,19.428,30.91,19,30.291,19h-1.66	c-0.414,0-0.8,0.187-1.061,0.512c-0.17,0.213-0.265,0.466-0.294,0.73c-0.239-0.231-0.498-0.44-0.79-0.611	C25.773,19.212,24.961,19,24.075,19c-0.917,0-1.753,0.221-2.486,0.655c-0.318,0.188-0.6,0.418-0.857,0.673	c-0.014-0.292-0.112-0.575-0.298-0.81C20.172,19.188,19.784,19,19.369,19h-1.407c-0.522,0-0.989,0.308-1.219,0.763	C16.513,19.306,16.044,19,15.522,19h-1.851c-0.618,0-1.155,0.418-1.32,1.022C12.188,19.428,11.65,19,11.031,19h-1.66	c-0.414,0-0.8,0.187-1.061,0.512c-0.27,0.337-0.371,0.773-0.277,1.197l1.592,7.2C9.768,28.552,10.318,29,10.963,29h1.935	c0.631,0,1.178-0.437,1.33-1.062l0.172-0.706l0.154,0.683C14.698,28.554,15.248,29,15.89,29h1.794c0.637,0,1.185-0.441,1.333-1.073	l0.507-2.168c0.091,0.287,0.197,0.567,0.338,0.831c0.405,0.759,0.982,1.359,1.715,1.783c0.722,0.416,1.53,0.627,2.4,0.627	c0.89,0,1.712-0.218,2.443-0.648c0.736-0.436,1.315-1.051,1.722-1.827c0.114-0.217,0.207-0.446,0.288-0.68l0.456,2.06	C29.026,28.55,29.576,29,30.223,29h1.936c0.631,0,1.178-0.437,1.33-1.062l0.172-0.706l0.154,0.683C33.958,28.554,34.508,29,35.15,29	h1.794c0.637,0,1.185-0.441,1.333-1.073l1.685-7.201C40.062,20.301,39.965,19.86,39.694,19.519z M24.265,24.732	c-0.044,0.114-0.101,0.203-0.247,0.276c-0.091,0-0.125-0.013-0.187-0.101c-0.086-0.124-0.189-0.381-0.189-0.9	c0-0.564,0.119-0.817,0.19-0.918c0.053-0.075,0.087-0.105,0.222-0.105c0.051,0,0.063,0,0.119,0.088	c0.089,0.14,0.195,0.421,0.195,0.968C24.369,24.316,24.333,24.556,24.265,24.732z" opacity=".05"/><path d="M15.89,28.5c-0.407,0-0.756-0.286-0.848-0.695l-0.623-2.759l-0.677,2.774	c-0.098,0.4-0.445,0.68-0.844,0.68h-1.935c-0.409,0-0.758-0.288-0.849-0.699l-1.592-7.2c-0.061-0.275,0.004-0.558,0.179-0.775	c0.166-0.207,0.41-0.325,0.67-0.325h1.66c0.434,0,0.805,0.335,0.863,0.778l0.318,2.416l0.615-2.516	c0.098-0.399,0.445-0.679,0.844-0.679h1.851c0.412,0,0.77,0.302,0.853,0.718l0.435,2.167l0.29-2.112	c0.062-0.44,0.432-0.772,0.862-0.772h1.407c0.262,0,0.508,0.12,0.674,0.329c0.174,0.221,0.238,0.506,0.173,0.782l-1.685,7.201	c-0.095,0.404-0.442,0.688-0.846,0.688H15.89z" opacity=".07"/><path fill="#fecd00" d="M17.684,28H15.89c-0.171,0-0.32-0.126-0.36-0.305l-0.96-4.253c-0.031-0.13-0.066-0.453-0.103-0.97	h-0.021c-0.052,0.457-0.102,0.781-0.15,0.97l-1.039,4.26C13.213,27.878,13.066,28,12.898,28h-1.935	c-0.172,0-0.321-0.127-0.361-0.307l-1.592-7.2C8.955,20.241,9.131,20,9.371,20h1.66c0.185,0,0.341,0.146,0.367,0.344l0.575,4.365	c0.01,0.059,0.026,0.232,0.047,0.519l0.031,0.463h0.031c0.007-0.097,0.028-0.262,0.062-0.494c0.034-0.233,0.067-0.406,0.098-0.522	l1.07-4.377C13.355,20.122,13.503,20,13.671,20h1.851c0.175,0,0.325,0.131,0.362,0.315l0.889,4.427l0.067,0.474l0.052,0.463h0.021	l0.016-0.195l0.067-0.776l0.6-4.367C17.622,20.145,17.778,20,17.962,20h1.407c0.242,0,0.419,0.245,0.359,0.498l-1.685,7.2	C18.002,27.876,17.854,28,17.684,28z"/><path d="M23.977,28.5c-0.781,0-1.505-0.188-2.15-0.561c-0.65-0.376-1.163-0.909-1.523-1.585	c-0.354-0.665-0.535-1.424-0.535-2.255c0-0.863,0.18-1.655,0.536-2.353c0.362-0.712,0.881-1.271,1.54-1.662	C22.5,19.696,23.25,19.5,24.075,19.5c0.796,0,1.523,0.189,2.159,0.563c0.642,0.376,1.144,0.92,1.492,1.615	c0.338,0.676,0.51,1.449,0.51,2.298c0,0.855-0.181,1.635-0.538,2.316c-0.363,0.694-0.879,1.242-1.533,1.629	C25.514,28.305,24.778,28.5,23.977,28.5z M24.055,22.484c-0.282,0-0.476,0.098-0.631,0.317c-0.187,0.265-0.281,0.671-0.281,1.206	c0,0.521,0.094,0.921,0.28,1.187c0.152,0.218,0.336,0.314,0.596,0.314c0.149,0,0.275-0.043,0.396-0.135	c0.13-0.1,0.237-0.256,0.317-0.462c0.091-0.236,0.137-0.53,0.137-0.872c0-0.536-0.092-0.951-0.273-1.236	C24.452,22.58,24.291,22.484,24.055,22.484z" opacity=".07"/><path fill="#fecd00" d="M27.737,23.975c0,0.777-0.16,1.472-0.481,2.085s-0.769,1.09-1.345,1.43	C25.336,27.83,24.691,28,23.977,28c-0.697,0-1.33-0.165-1.901-0.494c-0.571-0.329-1.014-0.791-1.332-1.387	c-0.318-0.595-0.476-1.268-0.476-2.02c0-0.787,0.16-1.495,0.481-2.125c0.321-0.629,0.77-1.115,1.35-1.459	C22.679,20.171,23.337,20,24.075,20c0.71,0,1.346,0.165,1.906,0.494c0.56,0.329,0.993,0.798,1.298,1.408	C27.585,22.511,27.737,23.202,27.737,23.975z M25.368,24.04c0-0.637-0.117-1.138-0.352-1.505c-0.234-0.367-0.555-0.551-0.962-0.551	c-0.445,0-0.791,0.177-1.039,0.529c-0.248,0.353-0.373,0.851-0.373,1.495c0,0.629,0.123,1.12,0.37,1.473s0.582,0.529,1.006,0.529	c0.259,0,0.491-0.079,0.698-0.237c0.207-0.159,0.367-0.385,0.481-0.68C25.312,24.797,25.368,24.447,25.368,24.04z"/><path d="M35.15,28.5c-0.407,0-0.756-0.286-0.848-0.695l-0.623-2.759l-0.677,2.774	c-0.098,0.4-0.445,0.68-0.844,0.68h-1.936c-0.41,0-0.758-0.288-0.849-0.701l-1.592-7.198c-0.061-0.275,0.004-0.558,0.179-0.775	c0.166-0.207,0.41-0.325,0.67-0.325h1.66c0.434,0,0.805,0.335,0.863,0.778l0.318,2.416l0.615-2.516	c0.098-0.399,0.445-0.679,0.844-0.679h1.851c0.411,0,0.769,0.302,0.853,0.717l0.435,2.168l0.29-2.112	c0.061-0.44,0.431-0.772,0.862-0.772h1.407c0.262,0,0.508,0.12,0.674,0.329c0.174,0.221,0.238,0.506,0.173,0.782l-1.685,7.201	c-0.095,0.404-0.442,0.688-0.846,0.688H35.15z" opacity=".07"/><path fill="#fecd00" d="M36.944,28H35.15c-0.171,0-0.32-0.126-0.36-0.305l-0.96-4.253c-0.031-0.13-0.066-0.453-0.103-0.97	h-0.021c-0.052,0.457-0.102,0.781-0.15,0.97l-1.039,4.26C32.474,27.878,32.326,28,32.158,28h-1.935	c-0.172,0-0.321-0.127-0.361-0.307l-1.592-7.2C28.215,20.241,28.392,20,28.631,20h1.66c0.185,0,0.341,0.146,0.367,0.344l0.575,4.365	c0.01,0.059,0.026,0.232,0.047,0.519l0.031,0.463h0.031c0.007-0.097,0.028-0.262,0.062-0.494c0.034-0.233,0.067-0.406,0.098-0.522	l1.07-4.377C32.616,20.122,32.763,20,32.931,20h1.851c0.175,0,0.325,0.131,0.362,0.315l0.889,4.427l0.067,0.474l0.052,0.463h0.021	l0.016-0.195l0.067-0.776l0.6-4.367C36.882,20.145,37.038,20,37.222,20h1.407c0.242,0,0.419,0.245,0.359,0.498l-1.685,7.2	C37.262,27.876,37.114,28,36.944,28z"/></svg>