<svg xmlns="http://www.w3.org/2000/svg" xmlns:xlink="http://www.w3.org/1999/xlink" data-name="Слой 1" viewBox="0 0 48 48"><defs><linearGradient id="29Npzc9hL1WPr5xCnd7FOb" x1="15.518" x2="31.518" y1="37.041" y2="11.764" data-name="Безымянный градиент 56" gradientUnits="userSpaceOnUse"><stop offset="0" stop-color="#42a3f2"/><stop offset="1" stop-color="#42a4eb"/></linearGradient><linearGradient id="29Npzc9hL1WPr5xCnd7FOa" x1="31.216" x2="22.709" y1="201.873" y2="210.888" data-name="Безымянный градиент 55" gradientTransform="matrix(1 0 0 -1 0 224)" gradientUnits="userSpaceOnUse"><stop offset="0" stop-color="#3079d6"/><stop offset="1" stop-color="#297cd2"/></linearGradient><linearGradient id="29Npzc9hL1WPr5xCnd7FOc" x1="17.999" x2="12.093" y1="203.86" y2="210.12" xlink:href="#29Npzc9hL1WPr5xCnd7FOa"/></defs><rect width="23.25" height="2" x="13" y="35" fill="#586169"/><path fill="#586169" d="M14,36a4,4,0,1,1-4-4,4.00032,4.00032,0,0,1,4,4"/><path fill="#999" d="M11.5,36A1.5,1.5,0,1,1,10,34.5,1.50012,1.50012,0,0,1,11.5,36"/><path fill="#586169" d="M26.5,36a2,2,0,1,1-2-2,2.00017,2.00017,0,0,1,2,2"/><path fill="#586169" d="M43,36a4,4,0,1,1-4-4,4.00032,4.00032,0,0,1,4,4"/><path fill="url(#29Npzc9hL1WPr5xCnd7FOb)" d="M46.38379,21.81268a2.91,2.91,0,0,0-1.89459-2.42749l-8.69495-3.13684L30.5943,11.49841A5.70283,5.70283,0,0,0,26.74847,10H12.76257a3.81421,3.81421,0,0,0-3.06665,1.55676L7.1535,14.99811,3.277,16.74652A3.89646,3.89646,0,0,0,1,20.30365V27.346a1.94092,1.94092,0,0,0,1.33209,1.85351,14.78924,14.78924,0,0,0,3.31873.794h.34985a3.99933,3.99933,0,0,1,7.99866,0H35.00067a3.99933,3.99933,0,0,1,7.99866,0h.45105a7.46,7.46,0,0,0,2.36035-.64606,1.94372,1.94372,0,0,0,1.17773-2.016Z"/><path fill="#999" d="M40.5,36A1.5,1.5,0,1,1,39,34.5,1.50012,1.50012,0,0,1,40.5,36"/><path fill="url(#29Npzc9hL1WPr5xCnd7FOa)" d="M20.98125,18.015V13a1.00294,1.00294,0,0,1,1-1H26.611a2,2,0,0,1,1.32818.50469l5.65585,5.0237A.842.842,0,0,1,33.03586,19H21.96621A.985.985,0,0,1,20.98125,18.015Z"/><path fill="url(#29Npzc9hL1WPr5xCnd7FOc)" d="M13.28037,12H18.015a.985.985,0,0,1,.985.985V18.015a.98785.98785,0,0,1-.985.985H9.2317A.99368.99368,0,0,1,8.419,17.43459l3.2256-4.58531A2,2,0,0,1,13.28037,12Z"/></svg>