<svg xmlns="http://www.w3.org/2000/svg" data-name="Слой 1" viewBox="0 0 48 48"><path fill="#37c6d0" d="M25.086,2.048A12.01244,12.01244,0,0,0,12.001,13.812a2.10253,2.10253,0,0,0,1.92,2.187A2.00059,2.00059,0,0,0,16,14.017a7.7645,7.7645,0,0,1,4.255-7.156A8.06535,8.06535,0,0,1,32,14v1a5.00054,5.00054,0,0,1-5,5H14a1.99945,1.99945,0,0,0-2,2V42a1.99945,1.99945,0,0,0,2,2H34a1.99945,1.99945,0,0,0,2-2V14.329A12.218,12.218,0,0,0,25.086,2.048Z"/><path d="M24,25.27478a1.00443,1.00443,0,0,1,.71243.295l4.50171,4.50171a.54267.54267,0,0,1-.38373.92639H26.01572L26,39a1,1,0,0,1-1,1H22.99915a1,1,0,0,1-1-1.00018l.01657-8.0019H19.16959a.54267.54267,0,0,1-.38373-.92639l4.50171-4.50171A1.00443,1.00443,0,0,1,24,25.27478m0-1a1.99442,1.99442,0,0,0-1.41953.58795l-4.50173,4.50171a1.54267,1.54267,0,0,0,1.09085,2.63348h1.844l-.01449,6.99982a1.99995,1.99995,0,0,0,2,2.00226H25a2.00228,2.00228,0,0,0,2-2l.01376-7.00208h1.81665a1.54267,1.54267,0,0,0,1.09085-2.63348l-4.50173-4.50171A1.99442,1.99442,0,0,0,24,24.27478Z" opacity=".05"/><path d="M24,25.27478a1.00443,1.00443,0,0,1,.71243.295l4.50171,4.50171a.54267.54267,0,0,1-.38373.92639H26.01572L26,39a1,1,0,0,1-1,1H22.99915a1,1,0,0,1-1-1.00018l.01657-8.0019H19.16959a.54267.54267,0,0,1-.38373-.92639l4.50171-4.50171A1.00443,1.00443,0,0,1,24,25.27478m0-.5a1.49783,1.49783,0,0,0-1.066.44147L18.43231,29.718a1.04269,1.04269,0,0,0,.73728,1.78h2.34509l-.01553,7.50086a1.5,1.5,0,0,0,1.5,1.50122H25A1.50172,1.50172,0,0,0,26.5,39l.01474-7.50208h2.31567a1.04269,1.04269,0,0,0,.73728-1.78L25.066,25.21625A1.49783,1.49783,0,0,0,24,24.77478Z" opacity=".07"/><path fill="#fff" d="M19.1696,30.99793h2.84612l-.01657,8.0019a1,1,0,0,0,1,1.00017H25a1,1,0,0,0,1-1l.01572-8.00207H28.8304a.54268.54268,0,0,0,.38373-.92641l-4.50169-4.50169a1.00754,1.00754,0,0,0-1.42488,0l-4.50169,4.50169A.54268.54268,0,0,0,19.1696,30.99793Z"/></svg>