<svg xmlns="http://www.w3.org/2000/svg" xmlns:xlink="http://www.w3.org/1999/xlink" data-name="Слой 1" viewBox="0 0 48 48"><defs><linearGradient id="~~9P87QKDmeYKN3OBIxhDa" x1="24" x2="24" y1="3.451" y2="15.046" data-name="Безымянный градиент 60" gradientUnits="userSpaceOnUse"><stop offset="0" stop-color="#8521b0"/><stop offset="1" stop-color="#64129a"/></linearGradient><linearGradient id="~~9P87QKDmeYKN3OBIxhDb" x1="22.601" x2="25.141" y1="9.389" y2="16.367" data-name="Безымянный градиент 72" gradientUnits="userSpaceOnUse"><stop offset="0" stop-color="#ac4ad5"/><stop offset="1" stop-color="#ae4cd5"/></linearGradient><linearGradient id="~~9P87QKDmeYKN3OBIxhDe" x1="24" x2="24" y1="8.685" y2="31.283" xlink:href="#~~9P87QKDmeYKN3OBIxhDa"/><linearGradient id="~~9P87QKDmeYKN3OBIxhDf" x1="20.018" x2="30.584" y1="22.558" y2="51.588" xlink:href="#~~9P87QKDmeYKN3OBIxhDb"/><linearGradient id="~~9P87QKDmeYKN3OBIxhDc" x1="20.829" x2="30.262" y1="24.787" y2="50.703" data-name="Безымянный градиент 73" gradientUnits="userSpaceOnUse"><stop offset="0" stop-color="#9332bf"/><stop offset="1" stop-color="#912fbd"/></linearGradient><linearGradient id="~~9P87QKDmeYKN3OBIxhDd" x1="20.906" x2="28.527" y1="24.999" y2="45.939" data-name="Безымянный градиент 187" gradientUnits="userSpaceOnUse"><stop offset="0" stop-color="#ffda1c"/><stop offset="1" stop-color="#feb705"/></linearGradient><linearGradient id="~~9P87QKDmeYKN3OBIxhDg" x1="33.953" x2="43.386" y1="22.381" y2="48.298" xlink:href="#~~9P87QKDmeYKN3OBIxhDc"/><linearGradient id="~~9P87QKDmeYKN3OBIxhDh" x1="34" x2="41.621" y1="22.51" y2="43.45" xlink:href="#~~9P87QKDmeYKN3OBIxhDd"/><linearGradient id="~~9P87QKDmeYKN3OBIxhDi" x1="7.704" x2="17.137" y1="27.192" y2="53.109" xlink:href="#~~9P87QKDmeYKN3OBIxhDc"/><linearGradient id="~~9P87QKDmeYKN3OBIxhDj" x1="7.812" x2="15.433" y1="27.488" y2="48.428" xlink:href="#~~9P87QKDmeYKN3OBIxhDd"/></defs><path fill="url(#~~9P87QKDmeYKN3OBIxhDa)" d="M24,13a.99943.99943,0,0,1-1-1V5a1,1,0,0,1,2,0v7A.99943.99943,0,0,1,24,13Z"/><path fill="url(#~~9P87QKDmeYKN3OBIxhDb)" d="M21,13.25h6a3.125,3.125,0,0,0-6,0Z"/><path fill="url(#~~9P87QKDmeYKN3OBIxhDe)" d="M42,28a.99943.99943,0,0,1-1-1V18a3.00328,3.00328,0,0,0-3-3H10a3.00328,3.00328,0,0,0-3,3v9a1,1,0,0,1-2,0V18a5.00588,5.00588,0,0,1,5-5H38a5.00588,5.00588,0,0,1,5,5v9A.99943.99943,0,0,1,42,28Z"/><rect width="44" height="15" x="2" y="26" fill="url(#~~9P87QKDmeYKN3OBIxhDf)" rx="2"/><rect width="12" height="11" x="18" y="28" fill="url(#~~9P87QKDmeYKN3OBIxhDc)" rx="1"/><path d="M27.5,30a.5.5,0,0,1,.5.5v6a.5.5,0,0,1-.5.5h-7a.5.5,0,0,1-.5-.5v-6a.5.5,0,0,1,.5-.5h7m0-1h-7A1.50172,1.50172,0,0,0,19,30.5v6A1.50172,1.50172,0,0,0,20.5,38h7A1.50172,1.50172,0,0,0,29,36.5v-6A1.50172,1.50172,0,0,0,27.5,29Z" opacity=".05"/><path d="M27.5,30a.5.5,0,0,1,.5.5v6a.5.5,0,0,1-.5.5h-7a.5.5,0,0,1-.5-.5v-6a.5.5,0,0,1,.5-.5h7m0-.5h-7a1.00115,1.00115,0,0,0-1,1v6a1.00115,1.00115,0,0,0,1,1h7a1.00115,1.00115,0,0,0,1-1v-6a1.00115,1.00115,0,0,0-1-1Z" opacity=".07"/><rect width="8" height="7" x="20" y="30" fill="url(#~~9P87QKDmeYKN3OBIxhDd)" rx=".5"/><rect width="12" height="11" x="32" y="28" fill="url(#~~9P87QKDmeYKN3OBIxhDg)" rx="1"/><path d="M41.5,30a.5.5,0,0,1,.5.5v6a.5.5,0,0,1-.5.5h-7a.5.5,0,0,1-.5-.5v-6a.5.5,0,0,1,.5-.5h7m0-1h-7A1.50172,1.50172,0,0,0,33,30.5v6A1.50172,1.50172,0,0,0,34.5,38h7A1.50172,1.50172,0,0,0,43,36.5v-6A1.50172,1.50172,0,0,0,41.5,29Z" opacity=".05"/><path d="M41.5,30a.5.5,0,0,1,.5.5v6a.5.5,0,0,1-.5.5h-7a.5.5,0,0,1-.5-.5v-6a.5.5,0,0,1,.5-.5h7m0-.5h-7a1.00115,1.00115,0,0,0-1,1v6a1.00115,1.00115,0,0,0,1,1h7a1.00115,1.00115,0,0,0,1-1v-6a1.00115,1.00115,0,0,0-1-1Z" opacity=".07"/><rect width="8" height="7" x="34" y="30" fill="url(#~~9P87QKDmeYKN3OBIxhDh)" rx=".5"/><rect width="12" height="11" x="4" y="28" fill="url(#~~9P87QKDmeYKN3OBIxhDi)" rx="1"/><g><path d="M13.5,30a.5.5,0,0,1,.5.5v6a.5.5,0,0,1-.5.5h-7a.5.5,0,0,1-.5-.5v-6a.5.5,0,0,1,.5-.5h7m0-1h-7A1.50172,1.50172,0,0,0,5,30.5v6A1.50172,1.50172,0,0,0,6.5,38h7A1.50172,1.50172,0,0,0,15,36.5v-6A1.50172,1.50172,0,0,0,13.5,29Z" opacity=".05"/><path d="M13.5,30a.5.5,0,0,1,.5.5v6a.5.5,0,0,1-.5.5h-7a.5.5,0,0,1-.5-.5v-6a.5.5,0,0,1,.5-.5h7m0-.5h-7a1.00115,1.00115,0,0,0-1,1v6a1.00115,1.00115,0,0,0,1,1h7a1.00115,1.00115,0,0,0,1-1v-6a1.00115,1.00115,0,0,0-1-1Z" opacity=".07"/><rect width="8" height="7" x="6" y="30" fill="url(#~~9P87QKDmeYKN3OBIxhDj)" rx=".5"/></g></svg>