<svg xmlns="http://www.w3.org/2000/svg" data-name="Слой 1" viewBox="0 0 48 48"><defs><linearGradient id="EKYTefu2L~5qvqEzxz~cqa" x1="12.517" x2="27.325" y1="-655.123" y2="-571.141" data-name="Безымянный градиент 28" gradientTransform="translate(0 614)" gradientUnits="userSpaceOnUse"><stop offset="0" stop-color="#fafafb"/><stop offset=".293" stop-color="#f6f7f8"/><stop offset=".566" stop-color="#ebecee"/><stop offset=".832" stop-color="#d8dcdf"/><stop offset="1" stop-color="#c8cdd1"/></linearGradient><linearGradient id="EKYTefu2L~5qvqEzxz~cqb" x1="28.719" x2="35.613" y1="-11.168" y2="-50.264" data-name="Безымянный градиент 27" gradientTransform="matrix(1 0 0 -1 0 -8)" gradientUnits="userSpaceOnUse"><stop offset="0" stop-color="#889097"/><stop offset=".679" stop-color="#5f6b74"/><stop offset="1" stop-color="#4c5963"/></linearGradient><linearGradient id="EKYTefu2L~5qvqEzxz~cqc" x1="31.189" x2="45.426" y1="-1545.604" y2="-1559.841" data-name="Безымянный градиент 74" gradientTransform="matrix(1 0 0 -1 0 -1514)" gradientUnits="userSpaceOnUse"><stop offset="0" stop-color="#889097"/><stop offset=".331" stop-color="#848c94"/><stop offset=".669" stop-color="#78828b"/><stop offset="1" stop-color="#64717c"/></linearGradient><linearGradient id="EKYTefu2L~5qvqEzxz~cqd" x1="41.484" x2="34.47" y1="-1555.899" y2="-1548.885" data-name="Безымянный градиент 69" gradientTransform="matrix(1 0 0 -1 0 -1514)" gradientUnits="userSpaceOnUse"><stop offset="0" stop-color="#fff"/><stop offset=".242" stop-color="#f2f2f2"/><stop offset="1" stop-color="#ccc"/></linearGradient><linearGradient id="EKYTefu2L~5qvqEzxz~cqe" x1="35.193" x2="40.117" y1="-1549.608" y2="-1554.532" data-name="Безымянный градиент 68" gradientTransform="matrix(1 0 0 -1 0 -1514)" gradientUnits="userSpaceOnUse"><stop offset="0" stop-color="#0d61a9"/><stop offset=".363" stop-color="#0e5fa4"/><stop offset=".78" stop-color="#135796"/><stop offset="1" stop-color="#16528c"/></linearGradient></defs><path fill="url(#EKYTefu2L~5qvqEzxz~cqa)" d="M44,24A20,20,0,1,1,24,4,20.00089,20.00089,0,0,1,44,24Z"/><path fill="url(#EKYTefu2L~5qvqEzxz~cqb)" d="M24,4V44A20,20,0,0,0,24,4Z"/><path fill="url(#EKYTefu2L~5qvqEzxz~cqc)" d="M47.715,36.083a3.07748,3.07748,0,0,1-2.839-4.915,9.97,9.97,0,0,0-4.038-2.338,3.076,3.076,0,0,1-5.678,0,9.97667,9.97667,0,0,0-4.038,2.338,3.07748,3.07748,0,0,1-2.839,4.915A10.06013,10.06013,0,0,0,28,38.415a9.9537,9.9537,0,0,0,.285,2.332,3.07748,3.07748,0,0,1,2.839,4.915A9.97007,9.97007,0,0,0,35.162,48a3.076,3.076,0,0,1,5.678,0,9.97658,9.97658,0,0,0,4.038-2.338,3.07748,3.07748,0,0,1,2.839-4.915A10.06,10.06,0,0,0,48,38.415,9.9537,9.9537,0,0,0,47.715,36.083Z"/><circle cx="38" cy="38.415" r="5" fill="url(#EKYTefu2L~5qvqEzxz~cqd)"/><circle cx="38" cy="38.415" r="3" fill="url(#EKYTefu2L~5qvqEzxz~cqe)"/><g><path d="M41.12,27.87l-.86-.25-.34.82a2.08,2.08,0,0,1-3.84,0l-.34-.82-.86.25a11.13643,11.13643,0,0,0-4.45,2.57l-.65.62.55.71a2.0845,2.0845,0,0,1-1.66,3.34,2.27439,2.27439,0,0,1-.26-.02l-.89-.11-.21.87A10.91628,10.91628,0,0,0,27,38.41a11.42077,11.42077,0,0,0,.31,2.57l.21.87.89-.11a2.46156,2.46156,0,0,1,.26-.02,2.08724,2.08724,0,0,1,1.8,1.04.90805.90805,0,0,1,.07.13995c.16-.05.32-.11.48-.17.15-.06.31-.12.46-.18a2.5895,2.5895,0,0,0-.14-.29,3.07868,3.07868,0,0,0-2.67-1.54,2.55751,2.55751,0,0,0-.38995.03,9.87521,9.87521,0,0,1,0-4.67,2.55751,2.55751,0,0,0,.38995.03,3.0747,3.0747,0,0,0,2.45-4.94,9.884,9.884,0,0,1,4.04-2.34,3.0788,3.0788,0,0,0,5.68006,0,9.4214,9.4214,0,0,1,2.29,1.02c.05-.17.1-.33.14-.5a4.60711,4.60711,0,0,0,.13-.5A9.99771,9.99771,0,0,0,41.12,27.87Z" opacity=".05"/><path d="M40.98,28.35l-.43-.13-.17.42a2.58256,2.58256,0,0,1-4.76,0l-.17-.42-.43.13a10.5433,10.5433,0,0,0-4.24,2.46l-.33.3.27.36a2.57955,2.57955,0,0,1-2.05,4.14c-.11,0-.22-.01-.32-.02l-.45-.06-.1.44a10.11374,10.11374,0,0,0,0,4.89l.1.44.45-.06c.11-.01.21-.02.32-.02a2.60761,2.60761,0,0,1,2.24,1.29,2.24717,2.24717,0,0,1,.11.22c.15-.06.31-.12.46-.18a2.5895,2.5895,0,0,0-.14-.29,3.07868,3.07868,0,0,0-2.67-1.54,2.55751,2.55751,0,0,0-.38995.03,9.87521,9.87521,0,0,1,0-4.67,2.55751,2.55751,0,0,0,.38995.03,3.0747,3.0747,0,0,0,2.45-4.94,9.884,9.884,0,0,1,4.04-2.34,3.0788,3.0788,0,0,0,5.68006,0,9.4214,9.4214,0,0,1,2.29,1.02c.05-.17.1-.33.14-.5A9.70665,9.70665,0,0,0,40.98,28.35Z" opacity=".07"/></g></svg>