<svg xmlns="http://www.w3.org/2000/svg" viewBox="0 0 48 48"><linearGradient id="We8~52TZQHWddWMk~Tq1Da" x1="24" x2="24" y1="6.121" y2="42.039" gradientUnits="userSpaceOnUse"><stop offset="0" stop-color="#889097"/><stop offset="1" stop-color="#64717c"/></linearGradient><path fill="url(#We8~52TZQHWddWMk~Tq1Da)" d="M40,42H8c-1.1,0-2-0.9-2-2V8c0-1.1,0.9-2,2-2h32c1.1,0,2,0.9,2,2v32C42,41.1,41.1,42,40,42z"/><path fill="#252525" d="M38,12H10c-0.552,0-1,0.448-1,1v25c0,0.552,0.448,1,1,1h28c0.552,0,1-0.448,1-1V13	C39,12.448,38.552,12,38,12z"/><circle cx="38" cy="9" r="1" fill="#fff"/><circle cx="34" cy="9" r="1" fill="#fff"/><linearGradient id="We8~52TZQHWddWMk~Tq1Db" x1="21.41" x2="33.919" y1="25.714" y2="38.595" gradientUnits="userSpaceOnUse"><stop offset="0" stop-color="#ae4cd5"/><stop offset="1" stop-color="#ac4ad5"/></linearGradient><path fill="url(#We8~52TZQHWddWMk~Tq1Db)" d="M33,39H21V26h14v11C35,38.105,34.105,39,33,39z"/><path fill="#50e6ff" d="M28,10h-9c-0.552,0-1-0.448-1-1V6h11v3C29,9.552,28.552,10,28,10z"/><linearGradient id="We8~52TZQHWddWMk~Tq1Dc" x1="13" x2="28" y1="31.5" y2="31.5" gradientUnits="userSpaceOnUse"><stop offset="0" stop-color="#c965eb"/><stop offset="1" stop-color="#c767e5"/></linearGradient><path fill="url(#We8~52TZQHWddWMk~Tq1Dc)" d="M19,26v-2h-6v13c0,1.105,0.895,2,2,2h11c1.105,0,2-0.895,2-2V26H19z"/><linearGradient id="We8~52TZQHWddWMk~Tq1Dd" x1="18" x2="18" y1="19.16" y2="24.203" gradientUnits="userSpaceOnUse"><stop offset="0" stop-color="#889097"/><stop offset="1" stop-color="#64717c"/></linearGradient><path fill="url(#We8~52TZQHWddWMk~Tq1Dd)" d="M19,24l0.894-1.789C19.964,22.072,20,21.919,20,21.764V20c0-0.552-0.448-1-1-1h-2 c-0.552,0-1,0.448-1,1v1.764c0,0.155,0.036,0.308,0.106,0.447L17,24H19z"/><path fill="#58646e" d="M19.198,12l-1.271,1.525C17.329,14.243,17,15.152,17,16.086V19h2v-2.914	c0-0.467,0.165-0.921,0.464-1.279L21.803,12H19.198z"/></svg>