<svg xmlns="http://www.w3.org/2000/svg" viewBox="0 0 48 48"><linearGradient id="ardn4qMWM6qJppYdTWAANa" x1="9.858" x2="38.142" y1="9.858" y2="38.142" gradientUnits="userSpaceOnUse"><stop offset="0" stop-color="#889097"/><stop offset="1" stop-color="#64717c"/></linearGradient><circle cx="24" cy="24" r="20" fill="url(#ardn4qMWM6qJppYdTWAANa)"/><radialGradient id="ardn4qMWM6qJppYdTWAANb" cx="24" cy="24" r="18.5" gradientUnits="userSpaceOnUse"><stop offset="0"/><stop offset="1" stop-opacity="0"/></radialGradient><circle cx="24" cy="24" r="18.5" fill="url(#ardn4qMWM6qJppYdTWAANb)"/><radialGradient id="ardn4qMWM6qJppYdTWAANc" cx="23.89" cy="7.394" r="37.883" gradientUnits="userSpaceOnUse"><stop offset="0" stop-color="#fafafb"/><stop offset="1" stop-color="#c8cdd1"/></radialGradient><circle cx="24" cy="24" r="17" fill="url(#ardn4qMWM6qJppYdTWAANc)"/><linearGradient id="ardn4qMWM6qJppYdTWAANd" x1="22.479" x2="25.719" y1="9.361" y2="40.548" gradientUnits="userSpaceOnUse"><stop offset="0" stop-color="#c8cdd1"/><stop offset="1" stop-color="#a6aaad"/></linearGradient><path fill="url(#ardn4qMWM6qJppYdTWAANd)" d="M25,10c0,0.552-0.448,1-1,1s-1-0.448-1-1c0-0.552,0.448-1,1-1S25,9.448,25,10z M24,37 c-0.552,0-1,0.448-1,1c0,0.552,0.448,1,1,1s1-0.448,1-1C25,37.448,24.552,37,24,37z M38,23c-0.552,0-1,0.448-1,1 c0,0.552,0.448,1,1,1s1-0.448,1-1C39,23.448,38.552,23,38,23z M10,23c-0.552,0-1,0.448-1,1c0,0.552,0.448,1,1,1s1-0.448,1-1 C11,23.448,10.552,23,10,23z"/><path fill="#d83b01" d="M24,34.75c-0.414,0-0.75-0.336-0.75-0.75V24c0-0.414,0.336-0.75,0.75-0.75s0.75,0.336,0.75,0.75v10	C24.75,34.414,24.414,34.75,24,34.75z"/><path fill="#45494d" d="M24,24.75c-0.192,0-0.384-0.073-0.53-0.22c-0.293-0.293-0.293-0.768,0-1.061l8.485-8.485	c0.293-0.293,0.768-0.293,1.061,0s0.293,0.768,0,1.061L24.53,24.53C24.384,24.677,24.192,24.75,24,24.75z"/><path fill="#45494d" d="M23.999,25.25c-0.181,0-0.365-0.039-0.54-0.123l-7.787-3.735c-0.623-0.299-0.885-1.045-0.586-1.668	c0.298-0.622,1.045-0.887,1.667-0.586l7.787,3.735c0.623,0.299,0.885,1.045,0.586,1.668C24.912,24.988,24.465,25.25,23.999,25.25z"/><circle cx="24" cy="24" r="2" fill="#1e2021"/></svg>