<svg xmlns="http://www.w3.org/2000/svg" viewBox="0 0 48 48"><path fill="#53616a" d="M7.895,25.805l3.017-4.086C11.136,21.416,10.907,21,10.517,21H4.483c-0.39,0-0.619,0.416-0.395,0.719	l3.017,4.086C7.297,26.065,7.703,26.065,7.895,25.805z"/><linearGradient id="aHMCARYmD1EskmJ4hHqYta" x1="33" x2="42" y1="10.5" y2="10.5" gradientUnits="userSpaceOnUse"><stop offset="0" stop-color="#ffcf47"/><stop offset=".261" stop-color="#ffcb3f"/><stop offset=".639" stop-color="#ffc123"/><stop offset="1" stop-color="#ffb400"/></linearGradient><circle cx="37.5" cy="10.5" r="4.5" fill="url(#aHMCARYmD1EskmJ4hHqYta)"/><linearGradient id="aHMCARYmD1EskmJ4hHqYtb" x1="22.35" x2="22.35" y1="17.187" y2="44.197" gradientUnits="userSpaceOnUse"><stop offset=".408" stop-color="#00b4f0"/><stop offset="1" stop-color="#0082db"/></linearGradient><path fill="url(#aHMCARYmD1EskmJ4hHqYtb)" d="M39.33,23.7l-6.62,12.14c-0.44,0.8-1.1,1.4-1.87,1.75c-0.57,0.28-1.2,0.42-1.83,0.41	c-0.48-0.01-0.96-0.1-1.43-0.28l-11.11-4.33C13.64,36.59,10.82,39.8,8,43c-1.03,0.92-2.44,0.75-3,0c-0.38-0.52-0.37-1.31,0-2	c3.2-4.95,5.41-8.9,8.61-13.85c0.66-0.89,1.79-1.3,2.86-1.04l7.52,1.79l2.29,0.54l0.03-0.05l5.63-9.34	c1.25-1.98,3.53-2.51,5.52-1.63C39.77,18.44,40.73,21.47,39.33,23.7z"/><path fill="none" stroke="#53616a" stroke-linecap="round" stroke-linejoin="round" stroke-miterlimit="10" stroke-width="3" d="M7.5,15.5c0,2.333,0,4.667,0,7"/></svg>