<svg xmlns="http://www.w3.org/2000/svg" xmlns:xlink="http://www.w3.org/1999/xlink" data-name="Слой 1" viewBox="0 0 48 48"><defs><linearGradient id="Xk_Cf3DXNmYhNWLSyfhbib" x1="24" x2="24" y1="35.716" y2="10.707" data-name="Безымянный градиент 143" gradientUnits="userSpaceOnUse"><stop offset="0" stop-color="#889097"/><stop offset="1" stop-color="#4c5963"/></linearGradient><linearGradient id="Xk_Cf3DXNmYhNWLSyfhbia" x1="24" x2="24" y1="15.799" y2="12.174" data-name="Безымянный градиент 125" gradientUnits="userSpaceOnUse"><stop offset="0" stop-color="#ffd869"/><stop offset="1" stop-color="#fec52b"/></linearGradient><linearGradient id="Xk_Cf3DXNmYhNWLSyfhbic" x1="11.1" x2="29.978" y1="-5.448" y2="46.42" data-name="Безымянный градиент 120" xlink:href="#Xk_Cf3DXNmYhNWLSyfhbia"/></defs><path fill="url(#Xk_Cf3DXNmYhNWLSyfhbib)" d="M25,22.142V10a1,1,0,0,0-2,0V23a.99943.99943,0,0,0,1,1,2,2,0,1,1-2,2,1,1,0,0,0-2,0,4,4,0,1,0,5-3.858Z"/><path fill="url(#Xk_Cf3DXNmYhNWLSyfhbia)" d="M19,9H29a0,0,0,0,1,0,0v3a2,2,0,0,1-2,2H21a2,2,0,0,1-2-2V9A0,0,0,0,1,19,9Z"/><path fill="url(#Xk_Cf3DXNmYhNWLSyfhbic)" d="M40.99707,42a1.99965,1.99965,0,0,1-1.98047-1.74414L35.24121,11H12.75879L8.9834,40.25586a1.99983,1.99983,0,1,1-3.9668-.51172l4-31A2.00015,2.00015,0,0,1,11,7H37a2.00015,2.00015,0,0,1,1.9834,1.74414l4,31a1.99941,1.99941,0,0,1-1.72754,2.23926A1.92892,1.92892,0,0,1,40.99707,42Z"/><rect width="10" height="1" x="19" y="11" opacity=".05"/><rect width="10" height=".5" x="19" y="11" opacity=".07"/></svg>