<svg xmlns="http://www.w3.org/2000/svg" viewBox="0 0 48 48"><linearGradient id="NqLdW8vbp9~b5_p0VgDaHa" x1="17.003" x2="37.984" y1="43.616" y2="4.156" gradientTransform="matrix(1 0 0 -1 0 48)" gradientUnits="userSpaceOnUse"><stop offset="0" stop-color="#0077d2"/><stop offset="1" stop-color="#0b59a2"/></linearGradient><path fill="url(#NqLdW8vbp9~b5_p0VgDaHa)" d="M42,10c-11.122,0-11.278-6-18-6s-6.878,6-18,6c-0.552,0-1,0.448-1,1c0,0,0,5.856,0,9	c0,1.378,0.178,2.712,0.493,4c2.936,12.007,18.08,19.907,18.08,19.907S23.784,44,24,44c0.203,0,0.427-0.093,0.427-0.093	s15.144-7.9,18.08-19.907C42.822,22.712,43,21.378,43,20c0-3.144,0-9,0-9C43,10.448,42.552,10,42,10z"/><circle cx="24" cy="17" r="5" opacity=".05"/><circle cx="24" cy="17" r="4.5" opacity=".07"/><linearGradient id="NqLdW8vbp9~b5_p0VgDaHb" x1="21.286" x2="26.867" y1="-359.714" y2="-354.133" gradientTransform="translate(0 374)" gradientUnits="userSpaceOnUse"><stop offset="0" stop-color="#75daff"/><stop offset="1" stop-color="#1ea2e4"/></linearGradient><circle cx="24" cy="17" r="4" fill="url(#NqLdW8vbp9~b5_p0VgDaHb)"/><path d="M17.875,33C16.841,33,16,32.159,16,31.125V30c0-4.411,3.589-8,8-8	s8,3.589,8,8v1.125C32,32.159,31.159,33,30.125,33H17.875z" opacity=".05"/><path d="M17.875,32.5c-0.758,0-1.375-0.617-1.375-1.375V30	c0-4.136,3.364-7.5,7.5-7.5s7.5,3.364,7.5,7.5v1.125c0,0.758-0.617,1.375-1.375,1.375H17.875z" opacity=".07"/><linearGradient id="NqLdW8vbp9~b5_p0VgDaHc" x1="24" x2="24" y1="-351.186" y2="-341.925" gradientTransform="translate(0 374)" gradientUnits="userSpaceOnUse"><stop offset="0" stop-color="#75daff"/><stop offset="1" stop-color="#1ea2e4"/></linearGradient><path fill="url(#NqLdW8vbp9~b5_p0VgDaHc)" d="M31,30c0-3.866-3.134-7-7-7s-7,3.134-7,7c0,0.605,0,1.125,0,1.125	C17,31.608,17.392,32,17.875,32h12.25C30.608,32,31,31.608,31,31.125C31,31.125,31,30.605,31,30z"/></svg>