<svg xmlns="http://www.w3.org/2000/svg" data-name="Слой 1" viewBox="0 0 48 48"><defs><linearGradient id="Nb7OBIfwkQbQRWJ9oW10Ka" x1="27.674" x2="-2.055" y1="33.5" y2="33.5" data-name="Безымянный градиент 129" gradientUnits="userSpaceOnUse"><stop offset="0" stop-color="#ffd869"/><stop offset="1" stop-color="#fec52b"/></linearGradient><linearGradient id="Nb7OBIfwkQbQRWJ9oW10Kb" x1="48.844" x2="5.414" y1="33.5" y2="33.5" data-name="Безымянный градиент 12" gradientUnits="userSpaceOnUse"><stop offset="0" stop-color="#2aa4f4"/><stop offset="1" stop-color="#007ad9"/></linearGradient></defs><path fill="url(#Nb7OBIfwkQbQRWJ9oW10Ka)" d="M3,24H45a0,0,0,0,1,0,0V41a2,2,0,0,1-2,2H5a2,2,0,0,1-2-2V24A0,0,0,0,1,3,24Z"/><path fill="url(#Nb7OBIfwkQbQRWJ9oW10Kb)" d="M14,28.5h0A4.5,4.5,0,0,0,18.5,33H28a2,2,0,0,1,2,2h0a2,2,0,0,1-2,2H26a3,3,0,0,0-3,3h0a3,3,0,0,0,3,3H43a2,2,0,0,0,2-2V24H18.5A4.5,4.5,0,0,0,14,28.5Z"/><path fill="#c2620e" d="M3,24H45l-7.99253-5.32835a4,4,0,0,0-2.2183-.6718l-9.96111-.00124a2,2,0,0,1-1.4137-.58552l-2.5229-2.522A4,4,0,0,0,18.7587,13.781L5.34757,11.41428A2,2,0,0,0,3,13.38384Z"/></svg>