<svg xmlns="http://www.w3.org/2000/svg" viewBox="0 0 48 48"><linearGradient id="h8BbNOxnvaIaYd6Kfyveja" x1="24" x2="24" y1="5.121" y2="41.039" gradientUnits="userSpaceOnUse"><stop offset="0" stop-color="#f44f5a"/><stop offset=".443" stop-color="#ee3d4a"/><stop offset="1" stop-color="#e52030"/></linearGradient><path fill="url(#h8BbNOxnvaIaYd6Kfyveja)" d="M42.342,13.699L25.789,5.422c-1.126-0.563-2.452-0.563-3.578,0L5.658,13.699	C4.642,14.207,4,15.246,4,16.382v22.146V39c0,1.105,0.895,2,2,2h36c1.105,0,2-0.895,2-2v-0.472V16.382	C44,15.246,43.358,14.207,42.342,13.699z"/><path d="M33,22h-6v-6c0-1.105-0.895-2-2-2h-2c-1.105,0-2,0.895-2,2v6h-6c-1.105,0-2,0.895-2,2v2	c0,1.105,0.895,2,2,2h6v6c0,1.105,0.895,2,2,2h2c1.105,0,2-0.895,2-2v-6h6c1.105,0,2-0.895,2-2v-2C35,22.895,34.105,22,33,22z" opacity=".05"/><path d="M33,22.5h-6.5V16c0-0.828-0.672-1.5-1.5-1.5h-2c-0.828,0-1.5,0.672-1.5,1.5v6.5H15	c-0.828,0-1.5,0.672-1.5,1.5v2c0,0.828,0.672,1.5,1.5,1.5h6.5V34c0,0.828,0.672,1.5,1.5,1.5h2c0.828,0,1.5-0.672,1.5-1.5v-6.5H33	c0.828,0,1.5-0.672,1.5-1.5v-2C34.5,23.172,33.828,22.5,33,22.5z" opacity=".07"/><path fill="#fff" d="M23,15h2c0.552,0,1,0.448,1,1v18c0,0.552-0.448,1-1,1h-2c-0.552,0-1-0.448-1-1V16	C22,15.448,22.448,15,23,15z"/><path fill="#fff" d="M34,24v2c0,0.552-0.448,1-1,1H15c-0.552,0-1-0.448-1-1v-2c0-0.552,0.448-1,1-1h18	C33.552,23,34,23.448,34,24z"/></svg>