<svg xmlns="http://www.w3.org/2000/svg" viewBox="0 0 48 48"><linearGradient id="Atf4l3Kj8QWhywn9wxiCha" x1="24" x2="24" y1="1.177" y2="43.964" gradientUnits="userSpaceOnUse"><stop offset="0" stop-color="#a34f27"/><stop offset=".587" stop-color="#8b3817"/><stop offset="1" stop-color="#802d10"/></linearGradient><path fill="url(#Atf4l3Kj8QWhywn9wxiCha)" d="M31.355,18.722h3.2c4.664,0,8.444,3.781,8.444,8.444v13.722C43,42.05,42.05,43,40.889,43	H7.111C5.95,43,5,42.05,5,40.889V7.111C5,5.95,5.95,5,7.111,5h5.513c5.055,0,9.7,2.779,12.091,7.233l2.007,3.739	C27.647,17.667,29.424,18.722,31.355,18.722z"/><linearGradient id="Atf4l3Kj8QWhywn9wxiChb" x1="24" x2="24" y1="43.685" y2="29.946" gradientUnits="userSpaceOnUse"><stop offset="0" stop-color="#f9f9f9"/><stop offset="1" stop-color="#c2c8cc"/></linearGradient><path fill="url(#Atf4l3Kj8QWhywn9wxiChb)" d="M41,32v8.1c0,0.495-0.425,0.9-0.944,0.9H7.944C7.425,41,7,40.595,7,40.1V32H41z"/><linearGradient id="Atf4l3Kj8QWhywn9wxiChc" x1="16.5" x2="16.5" y1="31.859" y2="39.521" gradientUnits="userSpaceOnUse"><stop offset=".002" stop-color="#3b3b3b"/><stop offset=".013" stop-color="#3c3c3c"/><stop offset=".562" stop-color="#585858"/><stop offset="1" stop-color="#636363"/></linearGradient><path fill="url(#Atf4l3Kj8QWhywn9wxiChc)" d="M18,32v5c0,0.55-0.45,1-1,1h-1c-0.55,0-1-0.45-1-1v-5H18z"/><linearGradient id="Atf4l3Kj8QWhywn9wxiChd" x1="21.5" x2="21.5" y1="31.859" y2="39.521" gradientUnits="userSpaceOnUse"><stop offset=".002" stop-color="#3b3b3b"/><stop offset=".013" stop-color="#3c3c3c"/><stop offset=".562" stop-color="#585858"/><stop offset="1" stop-color="#636363"/></linearGradient><path fill="url(#Atf4l3Kj8QWhywn9wxiChd)" d="M23,32v5c0,0.55-0.45,1-1,1h-1c-0.55,0-1-0.45-1-1v-5H23z"/><linearGradient id="Atf4l3Kj8QWhywn9wxiChe" x1="26.5" x2="26.5" y1="31.859" y2="39.521" gradientUnits="userSpaceOnUse"><stop offset=".002" stop-color="#3b3b3b"/><stop offset=".013" stop-color="#3c3c3c"/><stop offset=".562" stop-color="#585858"/><stop offset="1" stop-color="#636363"/></linearGradient><path fill="url(#Atf4l3Kj8QWhywn9wxiChe)" d="M28,32v5c0,0.55-0.45,1-1,1h-1c-0.55,0-1-0.45-1-1v-5H28z"/><linearGradient id="Atf4l3Kj8QWhywn9wxiChf" x1="32.5" x2="32.5" y1="31.859" y2="39.521" gradientUnits="userSpaceOnUse"><stop offset=".002" stop-color="#3b3b3b"/><stop offset=".013" stop-color="#3c3c3c"/><stop offset=".562" stop-color="#585858"/><stop offset="1" stop-color="#636363"/></linearGradient><path fill="url(#Atf4l3Kj8QWhywn9wxiChf)" d="M34,32v5c0,0.55-0.45,1-1,1h-1c-0.55,0-1-0.45-1-1v-5H34z"/><linearGradient id="Atf4l3Kj8QWhywn9wxiChg" x1="37.5" x2="37.5" y1="31.859" y2="39.521" gradientUnits="userSpaceOnUse"><stop offset=".002" stop-color="#3b3b3b"/><stop offset=".013" stop-color="#3c3c3c"/><stop offset=".562" stop-color="#585858"/><stop offset="1" stop-color="#636363"/></linearGradient><path fill="url(#Atf4l3Kj8QWhywn9wxiChg)" d="M39,32v5c0,0.55-0.45,1-1,1h-1c-0.55,0-1-0.45-1-1v-5H39z"/><linearGradient id="Atf4l3Kj8QWhywn9wxiChh" x1="10.5" x2="10.5" y1="31.859" y2="39.521" gradientUnits="userSpaceOnUse"><stop offset=".002" stop-color="#3b3b3b"/><stop offset=".013" stop-color="#3c3c3c"/><stop offset=".562" stop-color="#585858"/><stop offset="1" stop-color="#636363"/></linearGradient><path fill="url(#Atf4l3Kj8QWhywn9wxiChh)" d="M12,32v5c0,0.55-0.45,1-1,1h-1c-0.55,0-1-0.45-1-1v-5H12z"/></svg>