<svg xmlns="http://www.w3.org/2000/svg" xmlns:xlink="http://www.w3.org/1999/xlink" data-name="Слой 1" viewBox="0 0 48 48"><defs><linearGradient id="Lec5ovUHPwSOiIyg88bIGa" x1="2" x2="46" y1="14" y2="14" gradientUnits="userSpaceOnUse"><stop offset="0" stop-color="#3079d6"/><stop offset="1" stop-color="#297cd2"/></linearGradient><linearGradient id="Lec5ovUHPwSOiIyg88bIGb" x1="9.924" x2="38.044" y1="375.5" y2="375.5" gradientTransform="translate(0 -344)" gradientUnits="userSpaceOnUse"><stop offset="0" stop-color="#42a3f2"/><stop offset="1" stop-color="#42a4eb"/></linearGradient><linearGradient id="Lec5ovUHPwSOiIyg88bIGc" x1="19" x2="29" y1="-1436.509" y2="-1436.509" gradientTransform="matrix(1 0 0 -1 0 -1400)" xlink:href="#Lec5ovUHPwSOiIyg88bIGa"/><linearGradient id="Lec5ovUHPwSOiIyg88bIGd" x1="24" x2="24" y1="-1434.057" y2="-1420.037" gradientTransform="matrix(1 0 0 -1 0 -1400)" xlink:href="#Lec5ovUHPwSOiIyg88bIGa"/><linearGradient id="Lec5ovUHPwSOiIyg88bIGe" x1="9.924" x2="38.044" y1="373.5" y2="373.5" xlink:href="#Lec5ovUHPwSOiIyg88bIGb"/><linearGradient id="Lec5ovUHPwSOiIyg88bIGf" x1="9.924" x2="38.044" y1="-1429.5" y2="-1429.5" gradientTransform="matrix(1 0 0 -1 0 -1400)" xlink:href="#Lec5ovUHPwSOiIyg88bIGb"/></defs><path fill="#343434" d="M4,15.5H44a0,0,0,0,1,0,0V41a2,2,0,0,1-2,2H6a2,2,0,0,1-2-2V15.5A0,0,0,0,1,4,15.5Z"/><rect width="44" height="6" x="2" y="11" fill="url(#Lec5ovUHPwSOiIyg88bIGa)" rx="1"/><path fill="#64717c" d="M17,42.39436V39H12v3.39436A.61578.61578,0,0,0,12.625,43h3.75A.61578.61578,0,0,0,17,42.39436Z"/><path fill="#64717c" d="M36,42.39436V39H31v3.39436A.61578.61578,0,0,0,31.625,43h3.75A.61578.61578,0,0,0,36,42.39436Z"/><path fill="url(#Lec5ovUHPwSOiIyg88bIGb)" d="M34,30l-1.1458-5.16036A2.40514,2.40514,0,0,0,30.5262,23H17.4738a2.40635,2.40635,0,0,0-2.3286,1.83964L14,30l-1.28,1.74286A3.67073,3.67073,0,0,0,12,33.92857v4.85714A1.20687,1.20687,0,0,0,13.19941,40H34.8A1.20686,1.20686,0,0,0,36,38.7863V33.92857a3.67207,3.67207,0,0,0-.72-2.18571Z"/><circle cx="32.5" cy="34.5" r="1.5" fill="#fff"/><circle cx="15.5" cy="34.5" r="1.5" fill="#fff"/><path fill="url(#Lec5ovUHPwSOiIyg88bIGc)" d="M19,34.99446l.83167,2.26691a1.11644,1.11644,0,0,0,1.03166.76128h6.27334a1.11644,1.11644,0,0,0,1.03166-.76128L29,34.99446Z"/><path fill="url(#Lec5ovUHPwSOiIyg88bIGd)" d="M33,31l-.05429-.07827-.05784-.24946-1.32374-5.70818A1.19913,1.19913,0,0,0,30.41921,24H17.58079a1.19915,1.19915,0,0,0-1.14492.96409l-1.32315,5.70818-.05783.24946L15,31Z"/><path fill="url(#Lec5ovUHPwSOiIyg88bIGe)" d="M10.5,28H13a1,1,0,0,1,1,1v2H11a1,1,0,0,1-1-1V28.5A.5.5,0,0,1,10.5,28Z"/><path fill="url(#Lec5ovUHPwSOiIyg88bIGf)" d="M37,31H34V29a1,1,0,0,1,1-1h2.5a.5.5,0,0,1,.5.5V30A1,1,0,0,1,37,31Z"/><rect width="8" height="2" x="20" y="13" fill="#fff" rx="1"/><rect width="2" height="2" x="15" y="13" fill="#fff" rx="1"/><rect width="2" height="2" x="10" y="13" fill="#fff" rx="1"/><rect width="2" height="2" x="36" y="13" fill="#fff" rx="1"/><rect width="2" height="2" x="31" y="13" fill="#fff" rx="1"/></svg>