<svg xmlns="http://www.w3.org/2000/svg" viewBox="0 0 48 48"><linearGradient id="6gtds7OLEr5B4RIG9XAVma" x1="21.047" x2="26.919" y1="7.25" y2="40.552" gradientUnits="userSpaceOnUse"><stop offset="0" stop-color="#0066b4"/><stop offset=".995" stop-color="#003577"/></linearGradient><path fill="url(#6gtds7OLEr5B4RIG9XAVma)" d="M42,37c0,2.762-2.238,5-5,5H11c-2.761,0-5-2.238-5-5V11c0-2.762,2.239-5,5-5h26	c2.762,0,5,2.238,5,5V37z"/><path fill="#fff" d="M23,10v19.34c-1.84,0.26-3.52,0.64-5.03,1.1l1.28-16.82L23,10z"/><path fill="#fff" d="M29.08,29.02C28.73,29,28.37,29,28,29c-1.4,0-2.74,0.08-4,0.22V10l4,3.62L29.08,29.02z"/><path fill="#fff" d="M9,36c0,0,7-6,19-6c7,0,10,2,10,2S21,31,9,36z"/><path fill="#fff" d="M14,20.62l-1,11.74c1.12-0.55,2.44-1.11,3.94-1.6l1.04-13.62L14,20.62z M15.702,30.69l-0.392-3.07	l-0.88,3.518c-0.542,0.219-0.82,0.372-0.82,0.372l1.36-5.03l0.66-0.27l0.83,4.26C16.186,30.544,15.937,30.617,15.702,30.69z M16.865,25.162l-2.849,1.174l0.041-0.477l2.848-1.218L16.865,25.162z M15.7,24.61l-0.74,0.32l-0.48-4.21l0.65-0.51l0.254,3.27	l0.986-4.26l1.03-0.82L15.7,24.61z"/><path fill="#fff" d="M33.25,20.5l-3.99-3.22l0.83,11.78c1.52,0.09,2.81,0.27,3.9,0.49L33.25,20.5z M33.41,29	c-0.234-0.062-0.474-0.112-0.713-0.157L31.83,25.61l-0.404,3.045C30.997,28.608,30.7,28.59,30.7,28.59l0.64-4.09l0.87,0.27L33.41,29	z M31.11,19.37l0.67,0.48l1.13,3.63l-0.74-0.25l-0.73-2.62l-0.54,2.21l-0.57-0.19l-0.02-0.01L31.11,19.37z M30.171,23.11	l2.865,0.931l0.038,0.469l-2.866-0.874L30.171,23.11z"/></svg>