<svg xmlns="http://www.w3.org/2000/svg" viewBox="0 0 48 48"><linearGradient id="3JDbZYdHhTIAVu288hLxDa" x1="4" x2="44" y1="-178" y2="-178" gradientTransform="matrix(1 0 0 -1 0 -154)" gradientUnits="userSpaceOnUse"><stop offset="0" stop-color="#899198"/><stop offset="1" stop-color="#787e85"/></linearGradient><path fill="url(#3JDbZYdHhTIAVu288hLxDa)" d="M44,38.733V9.267C44,8.014,43.105,7,42,7H6C4.895,7,4,8.014,4,9.267v29.467	C4,39.986,4.895,41,6,41h36C43.105,41,44,39.986,44,38.733z"/><linearGradient id="3JDbZYdHhTIAVu288hLxDb" x1="13.608" x2="33.559" y1="-167.176" y2="-181.237" gradientTransform="matrix(1 0 0 -1 0 -154)" gradientUnits="userSpaceOnUse"><stop offset="0" stop-color="#4fe5ff"/><stop offset="1" stop-color="#2eb7ed"/></linearGradient><path fill="url(#3JDbZYdHhTIAVu288hLxDb)" d="M32.889,28H15.111C14.498,28,14,27.483,14,26.846V14.154C14,13.517,14.498,13,15.111,13	h17.778C33.502,13,34,13.517,34,14.154v12.692C34,27.483,33.502,28,32.889,28z"/><path fill="#586067" d="M8.5,14h1c0.828,0,1.5,0.672,1.5,1.5l0,0c0,0.828-0.672,1.5-1.5,1.5h-1C7.672,17,7,16.328,7,15.5l0,0	C7,14.672,7.672,14,8.5,14z"/><path fill="#586067" d="M8.5,19h1c0.828,0,1.5,0.672,1.5,1.5l0,0c0,0.828-0.672,1.5-1.5,1.5h-1C7.672,22,7,21.328,7,20.5l0,0	C7,19.672,7.672,19,8.5,19z"/><path fill="#586067" d="M8.5,24h1c0.828,0,1.5,0.672,1.5,1.5l0,0c0,0.828-0.672,1.5-1.5,1.5h-1C7.672,27,7,26.328,7,25.5l0,0	C7,24.672,7.672,24,8.5,24z"/><path fill="#586067" d="M38.5,14h1c0.828,0,1.5,0.672,1.5,1.5l0,0c0,0.828-0.672,1.5-1.5,1.5h-1c-0.828,0-1.5-0.672-1.5-1.5	l0,0C37,14.672,37.672,14,38.5,14z"/><path fill="#586067" d="M38.5,19h1c0.828,0,1.5,0.672,1.5,1.5l0,0c0,0.828-0.672,1.5-1.5,1.5h-1c-0.828,0-1.5-0.672-1.5-1.5	l0,0C37,19.672,37.672,19,38.5,19z"/><path fill="#586067" d="M38.5,24h1c0.828,0,1.5,0.672,1.5,1.5l0,0c0,0.828-0.672,1.5-1.5,1.5h-1c-0.828,0-1.5-0.672-1.5-1.5	l0,0C37,24.672,37.672,24,38.5,24z"/><linearGradient id="3JDbZYdHhTIAVu288hLxDc" x1="13.5" x2="13.5" y1="35.957" y2="33.979" gradientUnits="userSpaceOnUse"><stop offset="0" stop-color="#636363"/><stop offset=".998" stop-color="#3b3b3b"/></linearGradient><path fill="url(#3JDbZYdHhTIAVu288hLxDc)" d="M19,36H8c-0.552,0-1-0.448-1-1l0,0c0-0.552,0.448-1,1-1h11c0.552,0,1,0.448,1,1l0,0	C20,35.552,19.552,36,19,36z"/><radialGradient id="3JDbZYdHhTIAVu288hLxDd" cx="38" cy="37.968" r="11.564" gradientUnits="userSpaceOnUse"><stop offset="0"/><stop offset="1" stop-opacity="0"/></radialGradient><path fill="url(#3JDbZYdHhTIAVu288hLxDd)" d="M38,26c-6.617,0-12,5.383-12,12c0,1.038,0.146,2.039,0.395,3H42c1.105,0,2-1.014,2-2.267	v-11.11C42.233,26.597,40.187,26,38,26z"/><linearGradient id="3JDbZYdHhTIAVu288hLxDe" x1="28" x2="48" y1="104" y2="104" gradientTransform="translate(0 -66)" gradientUnits="userSpaceOnUse"><stop offset="0" stop-color="#21ad64"/><stop offset="1" stop-color="#088242"/></linearGradient><circle cx="38" cy="38" r="10" fill="url(#3JDbZYdHhTIAVu288hLxDe)"/><path fill="#fff" d="M36.646,42.354l-4-4c-0.195-0.195-0.195-0.512,0-0.707l0.707-0.707c0.195-0.195,0.512-0.195,0.707,0	L37,39.879l5.439-5.439c0.195-0.195,0.512-0.195,0.707,0l0.707,0.707c0.195,0.195,0.195,0.512,0,0.707l-6.5,6.5	C37.158,42.549,36.842,42.549,36.646,42.354z"/></svg>