<svg xmlns="http://www.w3.org/2000/svg" viewBox="0 0 48 48"><linearGradient id="9pxyzydnOtb75xs3WCJW9a" x1="132.171" x2="132.173" y1="113.578" y2="113.578" gradientTransform="rotate(99.317 119.134 11.947)" gradientUnits="userSpaceOnUse"><stop offset="0" stop-color="#ffc430"/><stop offset=".57" stop-color="#f8bd29"/><stop offset="1" stop-color="#f0b421"/></linearGradient><path fill="url(#9pxyzydnOtb75xs3WCJW9a)" d="M16.725,8.36c0.007,0.001,0.012,0.004,0.019,0.005l0.001-0.002L16.725,8.36z"/><linearGradient id="9pxyzydnOtb75xs3WCJW9b" x1="116.885" x2="142.841" y1="142.784" y2="169.739" gradientTransform="rotate(90 133.335 35.846)" gradientUnits="userSpaceOnUse"><stop offset="0" stop-color="#ffc430"/><stop offset=".41" stop-color="#fec130"/><stop offset=".72" stop-color="#fcb730"/><stop offset=".998" stop-color="#f7a72f"/><stop offset="1" stop-color="#f7a72f"/></linearGradient><path fill="url(#9pxyzydnOtb75xs3WCJW9b)" d="M27.098,35.738L29,23l13.357,0c1.308,0,2.499-0.941,2.63-2.242 C45.137,19.261,43.966,18,42.5,18c-0.237,0-35.468,0-35.468,0C5.732,19.461,5,21.347,5,23.314V34c0,3.314,2.686,6,6,6h11.153 C24.629,40,26.732,38.188,27.098,35.738z"/><circle cx="42.5" cy="20.5" r="1.5" fill="#fff0c9"/><g><linearGradient id="9pxyzydnOtb75xs3WCJW9c" x1="56.506" x2="64.953" y1="1163.334" y2="1155.004" gradientTransform="rotate(90 611.472 566.355)" gradientUnits="userSpaceOnUse"><stop offset=".282" stop-color="#ffc430"/><stop offset=".401" stop-color="#f8bd2d"/><stop offset=".574" stop-color="#e5aa23"/><stop offset=".78" stop-color="#c58a14"/><stop offset="1" stop-color="#9c6000"/></linearGradient><path fill="url(#9pxyzydnOtb75xs3WCJW9c)" d="M24,8.023c0-1.72-1.068-2.498-2.492-2.498L7.378,17.611C7.254,17.735,7.142,17.869,7.026,18 h14.706c-3.88-2.273-0.407-3.939-0.81-5.67C20.922,12.33,24,11.61,24,8.023z"/></g></svg>