<svg xmlns="http://www.w3.org/2000/svg" viewBox="0 0 48 48"><linearGradient id="XkKyFvvlIQWBsT2WtjbETa" x1="21.87" x2="22.189" y1="7.039" y2="20.671" gradientUnits="userSpaceOnUse"><stop offset=".056" stop-color="#d94a23"/><stop offset=".175" stop-color="#cf4621"/><stop offset=".38" stop-color="#b33d1d"/><stop offset=".646" stop-color="#862d16"/><stop offset=".96" stop-color="#48180c"/><stop offset="1" stop-color="#40150b"/></linearGradient><path fill="url(#XkKyFvvlIQWBsT2WtjbETa)" d="M40,17H4v-6.16C4,9.8,4.797,8.934,5.834,8.847l32-2.667C39,6.083,40,7.004,40,8.174V17z"/><linearGradient id="XkKyFvvlIQWBsT2WtjbETb" x1="19.79" x2="27.013" y1="6.703" y2="41.526" gradientUnits="userSpaceOnUse"><stop offset="0" stop-color="#fc7d5b"/><stop offset=".142" stop-color="#fa7753"/><stop offset="1" stop-color="#ed5328"/></linearGradient><path fill="url(#XkKyFvvlIQWBsT2WtjbETb)" d="M42,41H6c-1.105,0-2-0.895-2-2V11c0,1.105,0.895,2,2,2h36c1.105,0,2,0.895,2,2v24	C44,40.105,43.105,41,42,41z"/><radialGradient id="XkKyFvvlIQWBsT2WtjbETc" cx="38" cy="27" r="3" gradientUnits="userSpaceOnUse"><stop offset="0"/><stop offset="1" stop-opacity="0"/></radialGradient><circle cx="38" cy="27" r="3" fill="url(#XkKyFvvlIQWBsT2WtjbETc)" opacity=".3"/><path fill="#fff" d="M38,25c-1.105,0-2,0.895-2,2s0.895,2,2,2s2-0.895,2-2S39.105,25,38,25z"/></svg>