<svg xmlns="http://www.w3.org/2000/svg" viewBox="0 0 48 48"><path fill="#727d86" d="M23.531,45.212L23.531,45.212c-0.284-0.328-0.324-0.798-0.095-1.166C23.705,43.611,24,42.923,24,42 c0-0.5-0.4-1-0.8-1.5c-0.5-0.7-1.2-1.7-1.2-2.9c0-0.8,0.2-1.5,0.5-2.2c0.203-0.473,0.36-0.947,0.44-1.513 C23.012,33.385,23.42,33,23.927,33h0.001c0.62,0,1.077,0.563,0.978,1.176c-0.131,0.808-0.366,1.439-0.505,1.924 c-0.2,0.5-0.4,1-0.4,1.5c0,0.6,0.4,1.1,0.8,1.7C25.4,40,26,40.9,26,42c0,1.374-0.447,2.413-0.883,3.102 C24.762,45.663,23.965,45.714,23.531,45.212z"/><path fill="#ed489a" d="M26.278,34h-4.557c-0.349,0-0.591-0.349-0.468-0.676l1.125-3C22.452,30.129,22.638,30,22.847,30 h2.307c0.208,0,0.395,0.129,0.468,0.324l1.125,3C26.869,33.651,26.628,34,26.278,34z"/><linearGradient id="2SB8JyZBCdXZvafrd08sca" x1="7" x2="41" y1="15.857" y2="15.857" gradientUnits="userSpaceOnUse"><stop offset="0" stop-color="#ffadc8"/><stop offset=".121" stop-color="#fd9fc1"/><stop offset=".507" stop-color="#f877ae"/><stop offset=".814" stop-color="#f45ea2"/><stop offset="1" stop-color="#f3559e"/></linearGradient><path fill="url(#2SB8JyZBCdXZvafrd08sca)" d="M30.481,1C28.038,1,25.806,1.828,24,3.172C22.194,1.828,19.963,1,17.519,1 C11.675,1,7,5.655,7,11.345c0,7.635,9.947,16.15,15.66,19.048c0.844,0.428,1.828,0.428,2.67-0.003C30.974,27.5,41,19.071,41,11.345 C41,5.655,36.325,1,30.481,1z"/></svg>