<svg xmlns="http://www.w3.org/2000/svg" viewBox="0 0 48 48"><path fill="#fec62d" d="M9,5h30c1.657,0,3,1.343,3,3v29H6V8C6,6.343,7.343,5,9,5z"/><linearGradient id="iCFcIjmH0ZwZD3LzO_Njsa" x1="24" x2="24" y1="6.064" y2="40.107" gradientUnits="userSpaceOnUse"><stop offset="0" stop-color="#eba600"/><stop offset="1" stop-color="#c28200"/></linearGradient><path fill="url(#iCFcIjmH0ZwZD3LzO_Njsa)" d="M9,7h30c0.552,0,1,0.448,1,1v29H8V8C8,7.448,8.448,7,9,7z"/><linearGradient id="iCFcIjmH0ZwZD3LzO_Njsb" x1="24" x2="24" y1="358.929" y2="347.307" gradientTransform="matrix(1 0 0 -1 0 390)" gradientUnits="userSpaceOnUse"><stop offset="0" stop-color="#ffd869"/><stop offset="1" stop-color="#fec52b"/></linearGradient><path fill="url(#iCFcIjmH0ZwZD3LzO_Njsb)" d="M41,31H30.693c-0.904,0-1.649,0.624-1.918,1.487C28.142,34.522,26.244,36,24,36	s-4.142-1.478-4.775-3.513C18.956,31.624,18.211,31,17.307,31H7c-0.552,0-1,0.448-1,1v8c0,1.657,1.343,3,3,3h30c1.657,0,3-1.343,3-3	v-8C42,31.448,41.552,31,41,31z"/></svg>