<svg xmlns="http://www.w3.org/2000/svg" viewBox="0 0 48 48"><linearGradient id="848OQwfwvfjNvdjaWdtpRa" x1="9.899" x2="38.183" y1="-27.98" y2="-56.264" gradientTransform="matrix(1 0 0 -1 0 -18)" gradientUnits="userSpaceOnUse"><stop offset="0" stop-color="#ffc430"/><stop offset=".41" stop-color="#fec130"/><stop offset=".72" stop-color="#fcb730"/><stop offset=".998" stop-color="#f7a72f"/><stop offset="1" stop-color="#f7a72f"/></linearGradient><path fill="url(#848OQwfwvfjNvdjaWdtpRa)" d="M44.041,24.122c0,11.045-8.955,20-20,20s-20-8.955-20-20s8.955-20,20-20	S44.041,13.077,44.041,24.122z"/><path d="M22.5,38c-0.827,0-1.5-0.673-1.5-1.5V35h-4.979c-1.103,0-2-0.897-2-2V15c0-1.103,0.897-2,2-2H21v-1.5	c0-0.827,0.673-1.5,1.5-1.5h2c0.827,0,1.5,0.673,1.5,1.5v1.518c2.234,0.1,4.008,0.629,5.277,1.576	c1.506,1.124,2.269,2.768,2.269,4.887c0,1.176-0.307,2.233-0.913,3.145c-0.237,0.354-0.513,0.674-0.824,0.958	c0.422,0.301,0.793,0.664,1.108,1.084C33.635,25.618,34,26.781,34,28.121c0,2.231-0.74,3.962-2.198,5.145	C30.412,34.391,28.46,34.975,26,35v1.5c0,0.827-0.673,1.5-1.5,1.5H22.5z M21,30v-4h-0.979v4H21z M26,29.995	c0.519-0.03,2-0.236,2-1.604c0-1.562-0.673-2.365-2-2.391V29.995z M21,21v-3h-0.979v3H21z M26,20.955	c1.461-0.189,1.461-0.937,1.461-1.4c0-0.581-0.128-0.961-0.391-1.162c-0.165-0.125-0.479-0.274-1.07-0.348V20.955z" opacity=".05"/><path d="M22.5,37.5c-0.551,0-1-0.448-1-1v-2h-5.479c-0.827,0-1.5-0.673-1.5-1.5V15c0-0.827,0.673-1.5,1.5-1.5	H21.5v-2c0-0.552,0.449-1,1-1h2c0.551,0,1,0.448,1,1v2.003c2.361,0.038,4.203,0.54,5.478,1.491c1.372,1.024,2.068,2.534,2.068,4.486	c0,1.075-0.279,2.04-0.83,2.867c-0.344,0.514-0.772,0.943-1.282,1.288c0.628,0.321,1.158,0.766,1.582,1.331	c0.652,0.863,0.984,1.925,0.984,3.154c0,2.072-0.677,3.673-2.013,4.756c-1.305,1.057-3.161,1.603-5.518,1.623H25.5v2	c0,0.552-0.449,1-1,1H22.5z M25.844,30.5c0.108,0,2.656-0.024,2.656-2.109c0-1.841-0.891-2.867-2.507-2.891H25.5v5H25.844z M21.5,30.5v-5h-1.979v5H21.5z M21.5,21.5v-4h-1.979v4H21.5z M25.5,21.496c2.177-0.076,2.461-1.074,2.461-1.941	c0-0.748-0.192-1.258-0.588-1.56c-0.388-0.295-1.018-0.459-1.873-0.49V21.496z" opacity=".07"/><path fill="#fff" d="M32.116,25.267c-0.586-0.782-1.386-1.297-2.402-1.555c0.891-0.348,1.586-0.895,2.086-1.641	c0.496-0.746,0.746-1.61,0.746-2.59c0-1.793-0.621-3.156-1.867-4.086c-1.246-0.93-3.07-1.395-5.48-1.395H25v-2.5	c0-0.276-0.224-0.5-0.5-0.5h-2c-0.276,0-0.5,0.224-0.5,0.5V14h-5.979c-0.552,0-1,0.448-1,1v18c0,0.552,0.448,1,1,1H22v2.5	c0,0.276,0.224,0.5,0.5,0.5h2c0.276,0,0.5-0.224,0.5-0.5V34h0.965c2.254-0.02,3.988-0.524,5.207-1.512	C32.391,31.5,33,30.043,33,28.121C33,26.992,32.703,26.043,32.116,25.267z M25.199,17c1.129,0,1.954,0.2,2.477,0.598	c0.523,0.398,0.785,1.051,0.785,1.957c0,1.621-1.035,2.41-3.098,2.445H25v-5H25.199z M19.021,17H22v5h-2.979V17z M19.021,31v-6H22v6	H19.021z M25.844,31H25v-6h1c1.883,0.027,3,1.251,3,3.391S26.805,31,25.844,31z"/></svg>