<svg xmlns="http://www.w3.org/2000/svg" viewBox="0 0 48 48"><linearGradient id="t0g3~sAu7wmgFcD82SWsCa" x1="11.578" x2="4.67" y1="8" y2="8" gradientUnits="userSpaceOnUse"><stop offset="0" stop-color="#c26715"/><stop offset=".541" stop-color="#c16515"/><stop offset=".735" stop-color="#bd5e15"/><stop offset=".874" stop-color="#b75316"/><stop offset=".985" stop-color="#af4216"/><stop offset="1" stop-color="#ad3f16"/></linearGradient><path fill="url(#t0g3~sAu7wmgFcD82SWsCa)" d="M13,9H4C3.4,9,3,8.6,3,8s0.4-1,1-1h9c0.6,0,1,0.4,1,1S13.6,9,13,9z"/><path fill="#35c1f1" d="M40.68,36.609l-9.639-10.812c-0.751-0.843-1.693-1.493-2.747-1.896l-7.514-2.876l-4.228-4.553	l-2.648-9.507l-2.85,0.932l1.65,10.417l4.77,7.263L16.13,38h13.051l0.65-7.687l8.334,7.734L40.68,36.609z"/><linearGradient id="t0g3~sAu7wmgFcD82SWsCb" x1="23.841" x2="24.195" y1="37.99" y2="42.474" gradientUnits="userSpaceOnUse"><stop offset="0" stop-color="#889097"/><stop offset="1" stop-color="#64717c"/></linearGradient><path fill="url(#t0g3~sAu7wmgFcD82SWsCb)" d="M7,38h34c1.105,0,2,0.895,2,2v0c0,1.105-0.895,2-2,2H7c-1.105,0-2-0.895-2-2v0 C5,38.895,5.895,38,7,38z"/><path fill="#999" d="M1,5v5.5c0,0.315,0.148,0.611,0.4,0.8l1.953,1.464C4.031,13.274,5,12.789,5,11.941V5	c0-0.552-0.448-1-1-1H2C1.448,4,1,4.448,1,5z"/><linearGradient id="t0g3~sAu7wmgFcD82SWsCc" x1="27.925" x2="30.113" y1="9.193" y2="18.978" gradientUnits="userSpaceOnUse"><stop offset="0" stop-color="#ffcf54"/><stop offset=".261" stop-color="#fdcb4d"/><stop offset=".639" stop-color="#f7c13a"/><stop offset="1" stop-color="#f0b421"/></linearGradient><path fill="url(#t0g3~sAu7wmgFcD82SWsCc)" d="M24,14c0,2.76,2.238,5,4.998,5C31.764,19,34,16.76,34,14s-2.236-5-5.002-5	C26.238,9,24,11.24,24,14z"/><circle cx="12.5" cy="7.5" r="1.5" fill="#35c1f1"/><path fill="#35c1f1" d="M40.908,38C40.964,37.843,41,37.676,41,37.5c0-0.828-0.672-1.5-1.5-1.5S38,36.672,38,37.5	c0,0.176,0.036,0.343,0.092,0.5H40.908z"/></svg>