<svg xmlns="http://www.w3.org/2000/svg" viewBox="0 0 48 48"><linearGradient id="iRbEWKYpOFh6Tk05DX5t6a" x1="8.828" x2="39.797" y1="463.137" y2="494.092" gradientTransform="translate(0 -451.89)" gradientUnits="userSpaceOnUse"><stop offset="0" stop-color="#28afea"/><stop offset="1" stop-color="#047ed6"/></linearGradient><path fill="url(#iRbEWKYpOFh6Tk05DX5t6a)" d="M6,40V12h36v28c0,1.1-0.9,2-2,2H8C6.9,42,6,41.1,6,40z"/><path d="M37.646,26.491L31.581,20.2c-0.426-0.443-1.069-0.579-1.642-0.352 C29.369,20.078,29,20.625,29,21.24V23h-9.946v-1.759c0-0.615-0.369-1.162-0.94-1.392c-0.181-0.072-0.37-0.109-0.562-0.109 c-0.402,0-0.796,0.168-1.079,0.461l-6.065,6.291c-0.544,0.566-0.544,1.452,0,2.019l6.065,6.291 c0.426,0.443,1.069,0.579,1.642,0.352c0.57-0.229,0.939-0.776,0.939-1.392v-1.76H29v1.759c0,0.615,0.369,1.162,0.94,1.392 c0.181,0.072,0.37,0.109,0.562,0.109c0.402,0,0.796-0.168,1.079-0.461l6.065-6.291C38.19,27.943,38.19,27.058,37.646,26.491z" opacity=".05"/><path d="M37.286,26.838l-6.065-6.291c-0.285-0.296-0.718-0.385-1.095-0.234 C29.745,20.466,29.5,20.83,29.5,21.24v2.26H19v0.002h-0.446v-2.261c0-0.41-0.245-0.774-0.626-0.928 c-0.122-0.049-0.249-0.073-0.376-0.073c-0.266,0-0.525,0.107-0.719,0.308l-6.065,6.291c-0.357,0.372-0.357,0.953,0,1.325 l6.065,6.291c0.285,0.296,0.718,0.385,1.095,0.234c0.381-0.153,0.626-0.518,0.626-0.928v-2.26h10.5V31.5H29.5v2.261 c0,0.41,0.245,0.774,0.626,0.928c0.122,0.049,0.249,0.073,0.376,0.073c0.266,0,0.525-0.107,0.719-0.308l6.065-6.291 C37.644,27.791,37.644,27.21,37.286,26.838z" opacity=".07"/><path fill="#50e6ff" d="M36.926,27.185l-6.066-6.291C30.548,20.569,30,20.79,30,21.24V24H18.054v-2.759 c0-0.45-0.548-0.671-0.86-0.347l-6.066,6.292c-0.17,0.176-0.17,0.455,0,0.632l6.066,6.291c0.312,0.324,0.86,0.103,0.86-0.347v-2.76 H30v2.759c0,0.45,0.548,0.671,0.86,0.347l6.066-6.292C37.096,27.64,37.096,27.361,36.926,27.185z"/><linearGradient id="iRbEWKYpOFh6Tk05DX5t6b" x1="6.42" x2="41.198" y1="458.498" y2="465.57" gradientTransform="translate(0 -451.89)" gradientUnits="userSpaceOnUse"><stop offset="0" stop-color="#0077d2"/><stop offset="1" stop-color="#0b59a2"/></linearGradient><path fill="url(#iRbEWKYpOFh6Tk05DX5t6b)" d="M42,8v6H6V8c0-1.1,0.9-2,2-2h32C41.1,6,42,6.9,42,8z"/><path d="M35.5,12.5L35.5,12.5c-1.657,0-3-1.343-3-3V6h6v3.5 C38.5,11.157,37.157,12.5,35.5,12.5z" opacity=".05"/><path d="M35.5,11.75L35.5,11.75c-1.243,0-2.25-1.007-2.25-2.25V6h4.5v3.5 C37.75,10.743,36.743,11.75,35.5,11.75z" opacity=".07"/><path d="M12.5,12.5L12.5,12.5c-1.657,0-3-1.343-3-3V6h6v3.5 C15.5,11.157,14.157,12.5,12.5,12.5z" opacity=".05"/><path d="M12.5,11.75L12.5,11.75c-1.243,0-2.25-1.007-2.25-2.25V6h4.5v3.5 C14.75,10.743,13.743,11.75,12.5,11.75z" opacity=".07"/><path fill="#3ccbf4" d="M12.5,11L12.5,11c-0.828,0-1.5-0.672-1.5-1.5v-4C11,4.672,11.672,4,12.5,4l0,0 C13.328,4,14,4.672,14,5.5v4C14,10.328,13.328,11,12.5,11z"/><path fill="#3ccbf4" d="M35.5,11L35.5,11c-0.828,0-1.5-0.672-1.5-1.5v-4C34,4.672,34.672,4,35.5,4l0,0 C36.328,4,37,4.672,37,5.5v4C37,10.328,36.328,11,35.5,11z"/></svg>