<svg xmlns="http://www.w3.org/2000/svg" viewBox="0 0 48 48"><linearGradient id="8CFlf4ei0~muLBhC7J1yka" x1="26.206" x2="29.26" y1="40.054" y2="29.183" gradientUnits="userSpaceOnUse"><stop offset="0" stop-color="#0358a7"/><stop offset=".964" stop-color="#0358a7"/></linearGradient><path fill="url(#8CFlf4ei0~muLBhC7J1yka)" d="M19.216,32.504l10.418,10.347c0.522,0.519,1.373,0.48,1.847-0.083	c1.948-2.314,6.382-8.132,6.382-13.154l-15.989-4.2L19.216,32.504z"/><linearGradient id="8CFlf4ei0~muLBhC7J1ykb" x1="24.531" x2="28.179" y1="8.592" y2="17.983" gradientUnits="userSpaceOnUse"><stop offset="0" stop-color="#28a8ea"/><stop offset="1" stop-color="#28a8ea"/></linearGradient><path fill="url(#8CFlf4ei0~muLBhC7J1ykb)" d="M19.062,15.513L29.705,4.87c0.429-0.429,1.123-0.423,1.537,0.02	c1.601,1.712,5.237,6.149,6.66,12.434L19.524,22.14L19.062,15.513z"/><linearGradient id="8CFlf4ei0~muLBhC7J1ykc" x1="31.211" x2="30.745" y1="28.773" y2="41.812" gradientUnits="userSpaceOnUse"><stop offset="0" stop-color="#0f78d4"/><stop offset="1" stop-color="#0f78d4"/></linearGradient><path fill="url(#8CFlf4ei0~muLBhC7J1ykc)" d="M22.76,20.714l18.68-5.035c0.597-0.161,1.208,0.19,1.361,0.789	c0.342,1.347,0.841,3.927,0.841,7.521c0,3.597-0.516,6.178-0.87,7.524c-0.157,0.598-0.771,0.943-1.367,0.778L19.023,26.07	L22.76,20.714z"/><path d="M20.003,16h-0.937l0.15,16.504l1.4,1.39C21.417,33.635,22,32.891,22,32.003V17.996 C22,16.894,21.106,16,20.003,16z" opacity=".34"/><path d="M19.216,32.504l4.307,4.278C24.961,36.281,26,34.928,26,33.319V16.681C26,14.648,24.352,13,22.319,13	h-0.744l-2.513,2.513L19.216,32.504z" opacity=".05"/><path d="M19.216,32.504l3.472,3.448c1.496-0.23,2.646-1.512,2.646-3.073V16.454	c0-1.724-1.397-3.121-3.121-3.121h-0.971l-2.18,2.18L19.216,32.504z" opacity=".07"/><path d="M19.216,32.504L21.729,35h0.377c1.414,0,2.56-1.146,2.56-2.56V16.227c0-1.414-1.146-2.56-2.56-2.56	h-1.198l-1.846,1.846L19.216,32.504z" opacity=".09"/><linearGradient id="8CFlf4ei0~muLBhC7J1ykd" x1="4.628" x2="23.805" y1="14.628" y2="33.805" gradientUnits="userSpaceOnUse"><stop offset="0" stop-color="#1784d9"/><stop offset="1" stop-color="#0b65c9"/></linearGradient><path fill="url(#8CFlf4ei0~muLBhC7J1ykd)" d="M22,34H6c-1.105,0-2-0.895-2-2V16c0-1.105,0.895-2,2-2h16c1.105,0,2,0.895,2,2v16	C24,33.105,23.105,34,22,34z"/><path fill="#fff" d="M17.824,18.619c-0.475-0.258-1.068-0.082-1.326,0.392l-2.447,4.577l-2.549-4.577	c-0.258-0.475-0.852-0.65-1.326-0.392c-0.475,0.258-0.65,0.852-0.392,1.326l3.074,5.584v2.883c0,0.601,0.488,1.089,1.089,1.089	s1.089-0.488,1.089-1.089v-2.669l3.181-5.798C18.474,19.47,18.299,18.877,17.824,18.619z"/></svg>