<svg xmlns="http://www.w3.org/2000/svg" data-name="Слой 1" viewBox="0 0 48 48"><defs><linearGradient id="qBYHVvKXLed6o2RLMKCTZa" x1="14.01" x2="26.554" y1="-3.447" y2="31.017" data-name="Безымянный градиент 106" gradientUnits="userSpaceOnUse"><stop offset="0" stop-color="#626262"/><stop offset=".987" stop-color="#464646"/><stop offset=".998" stop-color="#454545"/></linearGradient><linearGradient id="qBYHVvKXLed6o2RLMKCTZb" x1="21.75" x2="21.75" y1="27.976" y2="33.124" data-name="Безымянный градиент 108" gradientUnits="userSpaceOnUse"><stop offset=".29" stop-color="#fec52b"/><stop offset=".706" stop-color="#f1b00e"/><stop offset=".987" stop-color="#eba600"/></linearGradient></defs><rect width="36" height="36" x="6" y="6" fill="url(#qBYHVvKXLed6o2RLMKCTZa)" rx="2"/><path fill="url(#qBYHVvKXLed6o2RLMKCTZb)" d="M22,31a2.00591,2.00591,0,0,0,2,2v3a5,5,0,0,1,0-10l.5.5v2L24,29A2.00587,2.00587,0,0,0,22,31Z"/><rect width="18" height="3" x="24" y="33" fill="#eba600"/><rect width="36" height="2" x="6" y="38" fill="#fec52b"/><path fill="#fec52b" d="M24,26v3a2,2,0,0,1,0,4H6v3H24a5,5,0,0,0,0-10Z"/></svg>