<svg xmlns="http://www.w3.org/2000/svg" data-name="Слой 1" viewBox="0 0 48 48"><defs><linearGradient id="Sk5PPIGYPU5gSftoh1YNXa" x1="15.478" x2="34.518" y1=".586" y2="52.898" gradientUnits="userSpaceOnUse"><stop offset=".002" stop-color="#427fdb"/><stop offset=".397" stop-color="#2668cb"/><stop offset=".763" stop-color="#1358bf"/><stop offset="1" stop-color="#0c52bb"/></linearGradient></defs><circle cx="24" cy="24" r="20" fill="url(#Sk5PPIGYPU5gSftoh1YNXa)"/><path fill="#fff" d="M15,27H11V24a1.00291,1.00291,0,0,1,1-1,1.00291,1.00291,0,0,0,1-1V10.74a.98686.98686,0,0,1,.71-.95L15,9.3999Z"/><path fill="#fff" d="M23,21v6H17V8.80005l.03-.01a1.12167,1.12167,0,0,1,1.35.6499Z"/><rect width="12" height="2" x="11" y="29" fill="#fff"/><path fill="#fff" d="M11,33H23v2a2.00591,2.00591,0,0,1-2,2H13a2.00591,2.00591,0,0,1-2-2Z"/><path fill="#fff" d="M30.97,8.79l.03.01V27H25V21L29.62,9.43994A1.12167,1.12167,0,0,1,30.97,8.79Z"/><path fill="#fff" d="M37,24v3H33V9.3999L34.29,9.79a.98686.98686,0,0,1,.71.95V22a1.00291,1.00291,0,0,0,1,1A1.00291,1.00291,0,0,1,37,24Z"/><rect width="12" height="2" x="25" y="29" fill="#fff"/><path fill="#fff" d="M25,33H37v2a2.00591,2.00591,0,0,1-2,2H27a2.00591,2.00591,0,0,1-2-2Z"/></svg>