<svg xmlns="http://www.w3.org/2000/svg" xmlns:xlink="http://www.w3.org/1999/xlink" data-name="Слой 1" viewBox="0 0 48 48"><defs><linearGradient id="6wSHtPKHCcVv4bCcNAlcHd" x1="24" x2="24" y1="-4632.961" y2="-4640.995" data-name="Безымянный градиент 152" gradientTransform="matrix(1 0 0 -1 0 -4598)" gradientUnits="userSpaceOnUse"><stop offset="0" stop-color="#2aa4f4"/><stop offset="1" stop-color="#007ad9"/></linearGradient><linearGradient id="6wSHtPKHCcVv4bCcNAlcHa" x1="10.122" x2="25.684" y1="7.628" y2="23.19" data-name="Безымянный градиент 107" gradientUnits="userSpaceOnUse"><stop offset="0" stop-color="#eba600"/><stop offset="1" stop-color="#c28200"/></linearGradient><linearGradient id="6wSHtPKHCcVv4bCcNAlcHb" x1="34" x2="43.39" y1="24.5" y2="24.5" data-name="Безымянный градиент 180" gradientUnits="userSpaceOnUse"><stop offset="0" stop-color="#92a3b0"/><stop offset=".015" stop-color="#a3b5c4"/><stop offset=".032" stop-color="#aec2d1"/><stop offset=".046" stop-color="#b2c6d6"/></linearGradient><linearGradient id="6wSHtPKHCcVv4bCcNAlcHf" x1="26.994" x2="36.383" y1="33.5" y2="33.5" xlink:href="#6wSHtPKHCcVv4bCcNAlcHb"/><linearGradient id="6wSHtPKHCcVv4bCcNAlcHg" x1="39.052" x2="46.641" xlink:href="#6wSHtPKHCcVv4bCcNAlcHb"/><linearGradient id="6wSHtPKHCcVv4bCcNAlcHh" x1="37.5" x2="37.5" y1="30.476" y2="39.146" data-name="Безымянный градиент 87" gradientUnits="userSpaceOnUse"><stop offset="0" stop-color="#c26715"/><stop offset=".346" stop-color="#be6015"/><stop offset=".686" stop-color="#b54e16"/><stop offset=".979" stop-color="#ad3f16"/></linearGradient><linearGradient id="6wSHtPKHCcVv4bCcNAlcHe" x1="5.122" x2="20.684" y1="12.628" y2="28.19" xlink:href="#6wSHtPKHCcVv4bCcNAlcHa"/><linearGradient id="6wSHtPKHCcVv4bCcNAlcHc" x1="15.553" x2="20.271" y1="25.153" y2="38.116" data-name="Безымянный градиент 19" gradientUnits="userSpaceOnUse"><stop offset="0" stop-color="#ffcf54"/><stop offset=".261" stop-color="#fdcb4d"/><stop offset=".639" stop-color="#f7c13a"/><stop offset="1" stop-color="#f0b421"/></linearGradient><linearGradient id="6wSHtPKHCcVv4bCcNAlcHi" x1="16.46" x2="21.747" y1="14.539" y2="29.063" xlink:href="#6wSHtPKHCcVv4bCcNAlcHc"/><linearGradient id="6wSHtPKHCcVv4bCcNAlcHj" x1="20.424" x2="26.778" y1=".7" y2="18.157" xlink:href="#6wSHtPKHCcVv4bCcNAlcHc"/><linearGradient id="6wSHtPKHCcVv4bCcNAlcHk" x1="6.781" x2="11.099" y1="29.654" y2="41.517" xlink:href="#6wSHtPKHCcVv4bCcNAlcHa"/><linearGradient id="6wSHtPKHCcVv4bCcNAlcHl" x1="28.505" x2="32.535" y1="6.511" y2="10.541" xlink:href="#6wSHtPKHCcVv4bCcNAlcHd"/></defs><rect width="5" height="2" x="35" y="19" fill="#64717c"/><rect width="5" height="2" x="35" y="14" fill="#64717c"/><rect width="5" height="2" x="35" y="24" fill="#64717c"/><rect width="5" height="2" x="35" y="29" fill="#64717c"/><path fill="url(#6wSHtPKHCcVv4bCcNAlcHa)" d="M26.99878,22.001a4.00767,4.00767,0,0,1-.74219-.06934l-16-3a4.00018,4.00018,0,0,1,1.47461-7.86328l16,3a4.00062,4.00062,0,0,1-.73242,7.93262Z"/><path fill="url(#6wSHtPKHCcVv4bCcNAlcHe)" d="M26.99878,32.001a4.00767,4.00767,0,0,1-.74219-.06934l-16-3a4.00018,4.00018,0,0,1,1.47461-7.86328l16,3a4.00062,4.00062,0,0,1-.73242,7.93262Z"/><rect width="2" height="27" x="34" y="11" fill="url(#6wSHtPKHCcVv4bCcNAlcHb)"/><rect width="2" height="7" x="26.994" y="30" fill="url(#6wSHtPKHCcVv4bCcNAlcHf)"/><rect width="2" height="27" x="39" y="11" fill="url(#6wSHtPKHCcVv4bCcNAlcHg)"/><path fill="url(#6wSHtPKHCcVv4bCcNAlcHh)" d="M33,33h9a1,1,0,0,1,1,1v3.5a0,0,0,0,1,0,0H32a0,0,0,0,1,0,0V34A1,1,0,0,1,33,33Z"/><path fill="url(#6wSHtPKHCcVv4bCcNAlcHd)" d="M42,36a5.60654,5.60654,0,0,1-3-1,5.60654,5.60654,0,0,1-3,1,5.60654,5.60654,0,0,1-3-1,5.60654,5.60654,0,0,1-3,1,5.60654,5.60654,0,0,1-3-1,5.60654,5.60654,0,0,1-3,1,5.60654,5.60654,0,0,1-3-1,5.60654,5.60654,0,0,1-3,1,5.60654,5.60654,0,0,1-3-1,5.60654,5.60654,0,0,1-3,1,5.60654,5.60654,0,0,1-3-1,5.60654,5.60654,0,0,1-3,1,5.60654,5.60654,0,0,1-3-1v6a1.99945,1.99945,0,0,0,2,2H43a1.99945,1.99945,0,0,0,2-2V35A5.60654,5.60654,0,0,1,42,36Z"/><path fill="url(#6wSHtPKHCcVv4bCcNAlcHc)" d="M9.00311,39.74023A4.00063,4.00063,0,0,1,7.426,32.0625L25.4187,24.32324a4,4,0,1,1,3.15039,7.35352L10.57635,39.416A3.99305,3.99305,0,0,1,9.00311,39.74023Z"/><path fill="url(#6wSHtPKHCcVv4bCcNAlcHi)" d="M10.99585,29.001a4.00081,4.00081,0,0,1-1.60547-7.666l16-7a4.00047,4.00047,0,1,1,3.207,7.33008l-16,7A4.00317,4.00317,0,0,1,10.99585,29.001Z"/><path fill="url(#6wSHtPKHCcVv4bCcNAlcHj)" d="M42,10H34.9939L33.44977,5.36755A2,2,0,0,0,31.55237,4H26.9939v.00433a3.992,3.992,0,0,0-1.60352.33063l-16,7a4.00047,4.00047,0,1,0,3.207,7.33008L27.83179,12H42a1,1,0,0,0,0-2Z"/><circle cx="9" cy="35.749" r="4" fill="url(#6wSHtPKHCcVv4bCcNAlcHk)"/><path d="M29.9939,6a2,2,0,1,1-2,2,2,2,0,0,1,2-2m0-1a3,3,0,1,0,3,3,3.00339,3.00339,0,0,0-3-3Z" opacity=".05"/><path d="M29.9939,6a2,2,0,1,1-2,2,2,2,0,0,1,2-2m0-.5a2.5,2.5,0,1,0,2.5,2.5,2.50282,2.50282,0,0,0-2.5-2.5Z" opacity=".07"/><circle cx="29.994" cy="8" r="2" fill="url(#6wSHtPKHCcVv4bCcNAlcHl)"/></svg>