<svg xmlns="http://www.w3.org/2000/svg" viewBox="0 0 48 48"><rect width="10.095" height="2" x="19.234" y="12.631" fill="#559ed6" transform="rotate(-19.982 24.285 13.633)"/><rect width="48" height="48" fill="none" transform="rotate(-90 24 24)"/><rect width="10.095" height="2" x="29.322" y="22.718" fill="#559ed6" transform="rotate(-70.02 34.368 23.718)"/><linearGradient id="uFjHEhjxl1EcRXw5~PK~Ya" x1="27.558" x2="12.007" y1="20.454" y2="36.005" gradientUnits="userSpaceOnUse"><stop offset="0" stop-color="#33bef0"/><stop offset="1" stop-color="#22a5e2"/></linearGradient><path fill="url(#uFjHEhjxl1EcRXw5~PK~Ya)" d="M20.197,14.141L7.451,18.834c-0.285,0.105-0.507,0.334-0.603,0.622l-1.62,4.86	c-0.136,0.408,0.004,0.858,0.349,1.116L9,28v5c0,0.552,0.448,1,1,1h4v4c0,0.552,0.448,1,1,1h5l3.534,3.534	c0.283,0.283,0.707,0.37,1.078,0.221l3.978-1.591c0.261-0.104,0.466-0.314,0.565-0.577l4.791-12.775	c0.138-0.368,0.047-0.783-0.232-1.061L21.247,14.37C20.971,14.096,20.562,14.007,20.197,14.141z"/><polygon fill="#559ed6" points="20,39 20.711,39.711 38.334,13.051 36.666,11.949 18.785,39"/><polygon fill="#559ed6" points="14,34 14,35.414 37.207,12.207 35.793,10.793 12.586,34"/><polygon fill="#559ed6" points="9,28 8.289,27.289 34.949,9.666 36.051,11.334 9,29.215"/><linearGradient id="uFjHEhjxl1EcRXw5~PK~Yb" x1="32.184" x2="42.097" y1="7.184" y2="17.097" gradientUnits="userSpaceOnUse"><stop offset="0" stop-color="#f0f0f0"/><stop offset="1" stop-color="#bbc1c4"/></linearGradient><circle cx="36.5" cy="11.5" r="6.5" fill="url(#uFjHEhjxl1EcRXw5~PK~Yb)"/><linearGradient id="uFjHEhjxl1EcRXw5~PK~Yc" x1="32.04" x2="42.285" y1="10.54" y2="20.785" gradientTransform="rotate(45.001 36.5 11.5)" gradientUnits="userSpaceOnUse"><stop offset="0" stop-color="#42a3f2"/><stop offset="1" stop-color="#42a4eb"/></linearGradient><polygon fill="url(#uFjHEhjxl1EcRXw5~PK~Yc)" points="27.308,11.5 36.5,20.692 40.743,16.45 31.55,7.257"/></svg>