<svg xmlns="http://www.w3.org/2000/svg" viewBox="0 0 48 48"><linearGradient id="GVkwLzLCXoIJNdTtO9g1Xa" x1="16.218" x2="32.356" y1="6.346" y2="42.957" gradientUnits="userSpaceOnUse"><stop offset="0" stop-color="#0d61a9"/><stop offset="1" stop-color="#16528c"/></linearGradient><circle cx="24" cy="24" r="20" fill="url(#GVkwLzLCXoIJNdTtO9g1Xa)"/><linearGradient id="GVkwLzLCXoIJNdTtO9g1Xb" x1="20.833" x2="36.756" y1="16.746" y2="53.222" gradientUnits="userSpaceOnUse"><stop offset="0" stop-color="#dfe9f2"/><stop offset=".998" stop-color="#9ea7b0"/></linearGradient><path fill="url(#GVkwLzLCXoIJNdTtO9g1Xb)" d="M17,5.3c-0.7,0.3-1.4,0.5-2,0.9V20H4.4c-0.1,0.7-0.2,1.3-0.3,2H17V5.3z M4.1,26	c0.1,0.7,0.2,1.3,0.3,2H15v13.8c0.6,0.3,1.3,0.6,2,0.9V26H4.1z M43.9,22c-0.1-0.7-0.2-1.3-0.3-2H23V4.1c-0.7,0-1.3,0.1-2,0.2V22	H43.9z M43.6,28c0.1-0.7,0.2-1.3,0.3-2H21v17.8c0.7,0.1,1.3,0.2,2,0.2V28H43.6z"/><linearGradient id="GVkwLzLCXoIJNdTtO9g1Xc" x1="16.063" x2="34.642" y1="8.867" y2="44.29" gradientUnits="userSpaceOnUse"><stop offset=".008" stop-color="#f44f5a"/><stop offset=".447" stop-color="#ee3d4a"/><stop offset="1" stop-color="#e52030"/></linearGradient><path fill="url(#GVkwLzLCXoIJNdTtO9g1Xc)" d="M43.9,26c0.1-0.7,0.1-1.3,0.1-2s0-1.3-0.1-2H21V4.2c-1.4,0.2-2.7,0.6-4,1V22H4.1	C4,22.7,4,23.3,4,24s0,1.3,0.1,2H17v16.7c1.3,0.5,2.6,0.8,4,1V26H43.9z"/></svg>