<svg xmlns="http://www.w3.org/2000/svg" viewBox="0 0 48 48"><linearGradient id="7hiRvP4QoDi3VIb8Qr8jha" x1="20.447" x2="31.814" y1=".201" y2="41.609" gradientUnits="userSpaceOnUse"><stop offset="0" stop-color="#33bef0"/><stop offset="1" stop-color="#0a85d9"/></linearGradient><path fill="url(#7hiRvP4QoDi3VIb8Qr8jha)" d="M12.122,5.109C12.057,4.517,12.52,4,13.116,4h21.768c0.596,0,1.059,0.517,0.994,1.109 l-4.637,33.168C31.103,39.265,30.258,40,29.26,40H18.74c-0.998,0-1.843-0.735-1.981-1.723L12.122,5.109z"/><linearGradient id="7hiRvP4QoDi3VIb8Qr8jhb" x1="42.427" x2="34.135" y1="22.59" y2="22.59" gradientUnits="userSpaceOnUse"><stop offset=".59" stop-color="#199ae0"/><stop offset="1" stop-color="#0782d8"/></linearGradient><path fill="url(#7hiRvP4QoDi3VIb8Qr8jhb)" d="M28,32.181V13h11c1.654,0,3,1.346,3,3v7.917c0,3.436-2.46,6.34-5.849,6.904L28,32.181z M30,15v14.819l5.822-0.97C38.243,28.446,40,26.372,40,23.917V16c0-0.551-0.449-1-1-1H30z"/><linearGradient id="7hiRvP4QoDi3VIb8Qr8jhc" x1="24" x2="24" y1="40" y2="44" gradientUnits="userSpaceOnUse"><stop offset="0" stop-color="#32bdef"/><stop offset="1" stop-color="#1ea2e4"/></linearGradient><path fill="url(#7hiRvP4QoDi3VIb8Qr8jhc)" d="M29,40H19c-3,0-5,1.239-5,4v0h20v0C34,41.239,32,40,29,40z"/><linearGradient id="7hiRvP4QoDi3VIb8Qr8jhd" x1="19.388" x2="31.793" y1="5.794" y2="39.164" gradientUnits="userSpaceOnUse"><stop offset="0" stop-color="#a34f27"/><stop offset=".587" stop-color="#8b3817"/><stop offset="1" stop-color="#802d10"/></linearGradient><path fill="url(#7hiRvP4QoDi3VIb8Qr8jhd)" d="M12.666,9l4.093,29.277C16.897,39.265,17.742,40,18.74,40h10.52 c0.998,0,1.843-0.735,1.981-1.723L35.334,9H12.666z"/></svg>