<svg xmlns="http://www.w3.org/2000/svg" viewBox="0 0 48 48"><path fill="#50e6ff" d="M28,43H11c-1.105,0-2-0.895-2-2V7c0-1.105,0.895-2,2-2h26c1.105,0,2,0.895,2,2v25L28,43z"/><linearGradient id="Qfgb93stMB03r3qdgjPv0a" x1="28.529" x2="33.6" y1="-255.472" y2="-250.4" gradientTransform="translate(0 288)" gradientUnits="userSpaceOnUse"><stop offset="0" stop-color="#3079d6"/><stop offset="1" stop-color="#297cd2"/></linearGradient><path fill="url(#Qfgb93stMB03r3qdgjPv0a)" d="M39,32h-9c-1.105,0-2,0.895-2,2v9L39,32z"/><path fill="#057093" d="M33,11H23c-0.552,0-1,0.448-1,1l0,0c0,0.552,0.448,1,1,1h10c0.552,0,1-0.448,1-1l0,0	C34,11.448,33.552,11,33,11z"/><path fill="#057093" d="M14,13h5c0.552,0,1-0.448,1-1v0c0-0.552-0.448-1-1-1h-5c-0.552,0-1,0.448-1,1v0	C13,12.552,13.448,13,14,13z"/><path fill="#057093" d="M14,17h5c0.552,0,1-0.448,1-1v0c0-0.552-0.448-1-1-1h-5c-0.552,0-1,0.448-1,1v0	C13,16.552,13.448,17,14,17z"/><path fill="#057093" d="M14,21h5c0.552,0,1-0.448,1-1v0c0-0.552-0.448-1-1-1h-5c-0.552,0-1,0.448-1,1v0	C13,20.552,13.448,21,14,21z"/><path fill="#057093" d="M14,25h5c0.552,0,1-0.448,1-1v0c0-0.552-0.448-1-1-1h-5c-0.552,0-1,0.448-1,1v0	C13,24.552,13.448,25,14,25z"/><path fill="#057093" d="M14,29h5c0.552,0,1-0.448,1-1v0c0-0.552-0.448-1-1-1h-5c-0.552,0-1,0.448-1,1v0	C13,28.552,13.448,29,14,29z"/><path fill="#057093" d="M23,29h9c0.552,0,1-0.448,1-1v0c0-0.552-0.448-1-1-1h-9c-0.552,0-1,0.448-1,1v0	C22,28.552,22.448,29,23,29z"/><path fill="#057093" d="M23,21h11c0.552,0,1-0.448,1-1v0c0-0.552-0.448-1-1-1H23c-0.552,0-1,0.448-1,1v0	C22,20.552,22.448,21,23,21z"/><path fill="#057093" d="M23,17h7c0.552,0,1-0.448,1-1v0c0-0.552-0.448-1-1-1h-7c-0.552,0-1,0.448-1,1v0	C22,16.552,22.448,17,23,17z"/><path fill="#057093" d="M23,25h7c0.552,0,1-0.448,1-1v0c0-0.552-0.448-1-1-1h-7c-0.552,0-1,0.448-1,1v0	C22,24.552,22.448,25,23,25z"/></svg>