<svg xmlns="http://www.w3.org/2000/svg" viewBox="0 0 48 48"><path fill="#50e6ff" d="M43,22H5v-6c0-2.209,1.791-4,4-4h30c2.209,0,4,1.791,4,4V22z"/><linearGradient id="4zK0PazGRcYFhvk31qg~La" x1="5" x2="43" y1="32" y2="32" gradientUnits="userSpaceOnUse"><stop offset="0" stop-color="#42a3f2"/><stop offset="1" stop-color="#42a4eb"/></linearGradient><path fill="url(#4zK0PazGRcYFhvk31qg~La)" d="M39,42H9c-2.209,0-4-1.791-4-4V22h38v16C43,40.209,41.209,42,39,42z"/><path fill="#fff" d="M32,30H16c-0.552,0-1-0.448-1-1V19c0-0.552,0.448-1,1-1h16c0.552,0,1,0.448,1,1v10	C33,29.552,32.552,30,32,30z"/><linearGradient id="4zK0PazGRcYFhvk31qg~Lb" x1="20" x2="28" y1="10" y2="10" gradientUnits="userSpaceOnUse"><stop offset="0" stop-color="#42a3f2"/><stop offset="1" stop-color="#42a4eb"/></linearGradient><rect width="8" height="4" x="20" y="8" fill="url(#4zK0PazGRcYFhvk31qg~Lb)"/><path fill="#35c1f1" d="M18,5v4c0,0.552,0.448,1,1,1h10c0.552,0,1-0.448,1-1V5c0-0.552-0.448-1-1-1H19	C18.448,4,18,4.448,18,5z"/></svg>