<svg xmlns="http://www.w3.org/2000/svg" viewBox="0 0 48 48"><linearGradient id="JwmLjEKKlYEvY~VxDYJ1ka" x1="24" x2="24" y1="3.914" y2="44.852" gradientUnits="userSpaceOnUse"><stop offset="0" stop-color="#2aa4f4"/><stop offset="1" stop-color="#007ad9"/></linearGradient><path fill="url(#JwmLjEKKlYEvY~VxDYJ1ka)" d="M21.025,5.23C21.009,5.173,21,5.074,21,5c0-0.552,0.448-1,1-1c0.235,0,0.4,0.088,0.464,0.113	C23.687,4.591,32.085,8.551,30.143,20c2.82-1.699,1.812-5,2.734-5c0.347,0,0.488,0.129,0.7,0.432C36.664,19.836,39,25.087,39,30	c0,8.284-6.716,15-15,15c-9.109,0-15-7.673-15-15C9,17.813,23.363,15.563,21.025,5.23z"/><linearGradient id="JwmLjEKKlYEvY~VxDYJ1kb" x1="24" x2="24" y1="21.522" y2="44.68" gradientUnits="userSpaceOnUse"><stop offset="0" stop-color="#a3ffff"/><stop offset=".223" stop-color="#9dfbff"/><stop offset=".53" stop-color="#8bf1ff"/><stop offset=".885" stop-color="#6ee0ff"/><stop offset="1" stop-color="#63daff"/></linearGradient><path fill="url(#JwmLjEKKlYEvY~VxDYJ1kb)" d="M23.619,21.214c0,0-0.252-0.214-0.619-0.214c-0.552,0-1,0.448-1,1c1,6-6,8-6,15	c0,4.418,3.582,8,8,8s8-3.582,8-8C32,31.3,26.979,23.691,23.619,21.214z"/></svg>