<svg xmlns="http://www.w3.org/2000/svg" data-name="Слой 1" viewBox="0 0 48 48"><defs><linearGradient id="BzfpvZ1zLWZBddzQYbw5ha" x1="14.229" x2="30.589" y1="-712.334" y2="-743.49" data-name="Безымянный градиент 74" gradientTransform="matrix(1 0 0 -1 0 -704)" gradientUnits="userSpaceOnUse"><stop offset="0" stop-color="#2aa4f4"/><stop offset="1" stop-color="#007ad9"/></linearGradient></defs><path fill="url(#BzfpvZ1zLWZBddzQYbw5ha)" d="M48,26A11.98419,11.98419,0,0,0,36.24,14.01,16.0056,16.0056,0,0,0,7.45,19.22,9.50212,9.50212,0,0,0,9.5,38h.524a10.48645,10.48645,0,0,0,17.622,2.12A5.9911,5.9911,0,0,0,37.7,37.866,11.98865,11.98865,0,0,0,48,26Z"/><path fill="#fff" d="M20.15818,29.45384a6.50065,6.50065,0,0,1-3.01351.62813,4.92755,4.92755,0,0,1-3.73886-1.47311A5.3674,5.3674,0,0,1,12,24.74288a5.62931,5.62931,0,0,1,1.58154-4.15761A5.41055,5.41055,0,0,1,17.57837,19a6.55025,6.55025,0,0,1,2.57981.44118v1.76474a4.60357,4.60357,0,0,0-2.39286-.64308A3.75554,3.75554,0,0,0,14.94248,21.677,4.09291,4.09291,0,0,0,13.862,24.65315,3.90318,3.90318,0,0,0,14.87144,27.476,3.51325,3.51325,0,0,0,17.526,28.5266a4.75289,4.75289,0,0,0,2.63215-.71786Z"/><path fill="#fff" d="M26.417,30.082a4.82272,4.82272,0,0,1-3.71269-1.503,5.52079,5.52079,0,0,1-1.39459-3.91084,5.849,5.849,0,0,1,1.42077-4.1277A4.99149,4.99149,0,0,1,26.589,19a4.71518,4.71518,0,0,1,3.63791,1.49554,5.53971,5.53971,0,0,1,1.37964,3.91085,5.86737,5.86737,0,0,1-1.41329,4.15012A4.90043,4.90043,0,0,1,26.417,30.082Zm.08225-9.51913a2.98335,2.98335,0,0,0-2.3966,1.09923,4.34876,4.34876,0,0,0-.9235,2.89387,4.39034,4.39034,0,0,0,.89732,2.87892,2.89337,2.89337,0,0,0,2.348,1.09174,3.03153,3.03153,0,0,0,2.43026-1.0394,4.33632,4.33632,0,0,0,.88985-2.90883,4.54627,4.54627,0,0,0-.86368-2.96865A2.91986,2.91986,0,0,0,26.49928,20.56284Z"/><path fill="#fff" d="M33.2018,33.86008h2.64961V35.0023H31.69255v-.47109a2.17321,2.17321,0,0,1,.162-.86056,2.84192,2.84192,0,0,1,.405-.68484,3.47892,3.47892,0,0,1,.53466-.5359q.28975-.23369.55086-.42062.2748-.19629.48231-.37513a2.71791,2.71791,0,0,0,.34771-.35519,1.33322,1.33322,0,0,0,.21187-.35769,1.07018,1.07018,0,0,0,.06979-.38572.77587.77587,0,0,0-.22682-.6057,1.00523,1.00523,0,0,0-.69294-.205,2.32956,2.32956,0,0,0-1.5429.64059v-1.212a3.31343,3.31343,0,0,1,1.83952-.52718,2.71949,2.71949,0,0,1,.85246.124,1.81176,1.81176,0,0,1,.6381.35519,1.51232,1.51232,0,0,1,.39881.56021,1.88022,1.88022,0,0,1,.13709.73468,2.07273,2.07273,0,0,1-.13211.76709,2.34218,2.34218,0,0,1-.35394.61068,3.1536,3.1536,0,0,1-.50724.5035q-.2879.229-.597.44243-.20937.14862-.4038.29413a4.07213,4.07213,0,0,0-.34272.28789,1.555,1.555,0,0,0-.23431.27667A.47636.47636,0,0,0,33.2018,33.86008Z"/></svg>