<svg xmlns="http://www.w3.org/2000/svg" viewBox="0 0 48 48"><path fill="#50e6ff" d="M4,40V13h40v27c0,1.1-0.9,2-2,2H6C4.9,42,4,41.1,4,40z"/><linearGradient id="c06PviXW5Rl~5h26cLEata" x1="4.614" x2="42.936" y1="-200.259" y2="-192.467" gradientTransform="translate(0 206)" gradientUnits="userSpaceOnUse"><stop offset="0" stop-color="#0077d2"/><stop offset="1" stop-color="#0b59a2"/></linearGradient><path fill="url(#c06PviXW5Rl~5h26cLEata)" d="M44,8v5H4V8c0-1.1,0.9-2,2-2h36C43.1,6,44,6.9,44,8z"/><linearGradient id="c06PviXW5Rl~5h26cLEatb" x1="6.751" x2="8.032" y1="-197.584" y2="-195.731" gradientTransform="translate(0 206)" gradientUnits="userSpaceOnUse"><stop offset="0" stop-color="#75daff"/><stop offset="1" stop-color="#49bef1"/></linearGradient><circle cx="7.5" cy="9.5" r="1.5" fill="url(#c06PviXW5Rl~5h26cLEatb)"/><linearGradient id="c06PviXW5Rl~5h26cLEatc" x1="11.751" x2="13.032" y1="-197.584" y2="-195.731" gradientTransform="translate(0 206)" gradientUnits="userSpaceOnUse"><stop offset="0" stop-color="#75daff"/><stop offset="1" stop-color="#49bef1"/></linearGradient><circle cx="12.5" cy="9.5" r="1.5" fill="url(#c06PviXW5Rl~5h26cLEatc)"/><linearGradient id="c06PviXW5Rl~5h26cLEatd" x1="16.751" x2="18.032" y1="-197.584" y2="-195.731" gradientTransform="translate(0 206)" gradientUnits="userSpaceOnUse"><stop offset="0" stop-color="#75daff"/><stop offset="1" stop-color="#49bef1"/></linearGradient><circle cx="17.5" cy="9.5" r="1.5" fill="url(#c06PviXW5Rl~5h26cLEatd)"/><radialGradient id="c06PviXW5Rl~5h26cLEate" cx="24.098" cy="27" r="10" gradientUnits="userSpaceOnUse"><stop offset=".078" stop-color="#fff"/><stop offset=".202" stop-color="#fff5a3"/><stop offset=".216" stop-color="#fff392"/><stop offset=".263" stop-color="#ffee5f"/><stop offset=".307" stop-color="#ffea37"/><stop offset=".347" stop-color="#ffe71a"/><stop offset=".382" stop-color="#ffe508"/><stop offset=".408" stop-color="#ffe402"/><stop offset=".545" stop-color="#fdde02"/><stop offset=".736" stop-color="#f9cc01"/><stop offset=".956" stop-color="#f2af00"/><stop offset="1" stop-color="#f0a800"/></radialGradient><circle cx="24.098" cy="27" r="10" fill="url(#c06PviXW5Rl~5h26cLEate)"/><radialGradient id="c06PviXW5Rl~5h26cLEatf" cx="22.753" cy="34.956" r="5.401" gradientUnits="userSpaceOnUse"><stop offset="0" stop-color="#6e757b"/><stop offset="1" stop-color="#4a4e52"/></radialGradient><path fill="url(#c06PviXW5Rl~5h26cLEatf)" d="M26.683,35.244h-5.366c0,0.376,0,1.073,0,1.073C21.317,37.82,22.498,39,24,39	s2.683-1.18,2.683-2.683C26.683,36.317,26.683,35.62,26.683,35.244z"/><path fill="#fefefe" d="M29.298,27.298C29.298,24.384,26.914,22,24,22s-5.298,2.384-5.298,5.298	c0,2.649,2.649,4.768,2.649,7.417v0.53h5.298v-0.53C26.649,32.065,29.298,29.946,29.298,27.298z"/></svg>