<svg xmlns="http://www.w3.org/2000/svg" viewBox="0 0 48 48"><path fill="#d35230" d="M31,36.5c0-4.218,2.751-7.887,6.556-9.148c0.845-0.28,1.444-1.03,1.444-1.92L39,17c-6-3-15,6-15,10	c0,1.401,0,12,0,12h7.344C31.126,38.202,31,37.367,31,36.5z"/><path fill="#d35230" d="M17,36.5c0-4.215-2.748-7.779-6.548-9.02C9.603,27.203,9,26.451,9,25.557L9,17c6-3,15,6,15,10	c0,1.401,0,12,0,12h-7.344C16.874,38.202,17,37.367,17,36.5z"/><path fill="#ccc" d="M11.22,7H19v5h-8.097c-2.944,0-5.573-1.841-6.579-4.608L2,1l5.315,4.556C8.402,6.488,9.787,7,11.22,7	z"/><path fill="#ff8f6b" d="M6,22H1c-0.552,0-1-0.448-1-1l0-1c0-1.657,1.343-3,3-3h6v2C9,20.657,7.657,22,6,22z"/><path fill="#ccc" d="M36.78,7H29v5h8.097c2.944,0,5.573-1.841,6.579-4.608L46,1l-5.315,4.556	C39.598,6.488,38.213,7,36.78,7z"/><path fill="#5c2415" d="M32,26h-1.5c-0.276,0-0.5-0.224-0.5-0.5v-0.023C30,24.109,31.109,23,32.477,23H32.5	c0.276,0,0.5,0.224,0.5,0.5V25C33,25.552,32.552,26,32,26z"/><path fill="#5c2415" d="M16,26h1.5c0.276,0,0.5-0.224,0.5-0.5v-0.023C18,24.109,16.891,23,15.523,23H15.5	c-0.276,0-0.5,0.224-0.5,0.5V25C15,25.552,15.448,26,16,26z"/><path fill="#ff8f6b" d="M42,22h5c0.552,0,1-0.448,1-1v-1c0-1.657-1.343-3-3-3h-6v2C39,20.657,40.343,22,42,22z"/><path fill="#ed6c47" d="M26,30c0-13,13-13,13-13c0-7-8-10-10-10c-1,0-3,0-5,0s-4,0-5,0C17,7,9,10,9,17c0,0,13,0,13,13	c0,8-7,9-7,9c0,5,6,6,6,6h3h3c0,0,6-1,6-6C33,39,26,38,26,30z"/><path fill="#5c2415" d="M20.333,42h1.333C21.851,42,22,41.851,22,41.667V41.42c0-0.784-0.636-1.42-1.42-1.42h-0.247	C20.149,40,20,40.149,20,40.333v1.333C20,41.851,20.149,42,20.333,42z"/><path fill="#5c2415" d="M27.667,42h-1.333C26.149,42,26,41.851,26,41.667V41.42c0-0.784,0.636-1.42,1.42-1.42h0.247	C27.851,40,28,40.149,28,40.333v1.333C28,41.851,27.851,42,27.667,42z"/></svg>