<svg xmlns="http://www.w3.org/2000/svg" viewBox="0 0 48 48"><linearGradient id="TZTDiIlIi4zIXLu8~gfDRa" x1="16.5" x2="16.5" y1="12" y2="6" gradientTransform="rotate(180 15.5 24.5)" gradientUnits="userSpaceOnUse"><stop offset="0" stop-color="#007ad9"/><stop offset="1" stop-color="#2aa4f4"/></linearGradient><path fill="url(#TZTDiIlIi4zIXLu8~gfDRa)" d="M26,41v-2c0-1.105-0.895-2-2-2H5c-1.105,0-2,0.895-2,2v2c0,1.105,0.895,2,2,2h19	C25.105,43,26,42.105,26,41z"/><linearGradient id="TZTDiIlIi4zIXLu8~gfDRb" x1="16.5" x2="16.5" y1="16" y2="22" gradientTransform="rotate(180 15.5 24.5)" gradientUnits="userSpaceOnUse"><stop offset="0" stop-color="#a3ffff"/><stop offset=".223" stop-color="#9dfbff"/><stop offset=".53" stop-color="#8bf1ff"/><stop offset=".885" stop-color="#6ee0ff"/><stop offset="1" stop-color="#63daff"/></linearGradient><path fill="url(#TZTDiIlIi4zIXLu8~gfDRb)" d="M3,29v2c0,1.105,0.895,2,2,2h19c1.105,0,2-0.895,2-2v-2c0-1.105-0.895-2-2-2H5	C3.895,27,3,27.895,3,29z"/><linearGradient id="TZTDiIlIi4zIXLu8~gfDRc" x1="16.5" x2="16.5" y1="26" y2="32" gradientTransform="rotate(180 15.5 24.5)" gradientUnits="userSpaceOnUse"><stop offset="0" stop-color="#a3ffff"/><stop offset=".223" stop-color="#9dfbff"/><stop offset=".53" stop-color="#8bf1ff"/><stop offset=".885" stop-color="#6ee0ff"/><stop offset="1" stop-color="#63daff"/></linearGradient><path fill="url(#TZTDiIlIi4zIXLu8~gfDRc)" d="M3,19v2c0,1.105,0.895,2,2,2h19c1.105,0,2-0.895,2-2v-2c0-1.105-0.895-2-2-2H5	C3.895,17,3,17.895,3,19z"/><linearGradient id="TZTDiIlIi4zIXLu8~gfDRd" x1="16.5" x2="16.5" y1="36" y2="42" gradientTransform="rotate(180 15.5 24.5)" gradientUnits="userSpaceOnUse"><stop offset="0" stop-color="#a3ffff"/><stop offset=".223" stop-color="#9dfbff"/><stop offset=".53" stop-color="#8bf1ff"/><stop offset=".885" stop-color="#6ee0ff"/><stop offset="1" stop-color="#63daff"/></linearGradient><path fill="url(#TZTDiIlIi4zIXLu8~gfDRd)" d="M3,9v2c0,1.105,0.895,2,2,2h19c1.105,0,2-0.895,2-2V9c0-1.105-0.895-2-2-2H5	C3.895,7,3,7.895,3,9z"/><linearGradient id="TZTDiIlIi4zIXLu8~gfDRe" x1="-351.896" x2="-351.896" y1="10.5" y2="3.5" gradientTransform="rotate(90 -173.698 219.198)" gradientUnits="userSpaceOnUse"><stop offset=".478" stop-color="#ad4bd5"/><stop offset=".758" stop-color="#9f3dc8"/><stop offset=".787" stop-color="#9a38c4"/><stop offset=".868" stop-color="#9533c0"/><stop offset="1" stop-color="#912fbd"/></linearGradient><path fill="url(#TZTDiIlIi4zIXLu8~gfDRe)" d="M35,42v-2c0-0.552,0.448-1,1-1h6l-1,4h-5C35.448,43,35,42.552,35,42z"/><linearGradient id="TZTDiIlIi4zIXLu8~gfDRf" x1="27.961" x2="41.224" y1="10.88" y2="11.066" gradientUnits="userSpaceOnUse"><stop offset=".478" stop-color="#ad4bd5"/><stop offset="1" stop-color="#912fbd"/></linearGradient><path fill="url(#TZTDiIlIi4zIXLu8~gfDRf)" d="M37,9V5.136c0-0.445-0.539-0.669-0.854-0.354l-5.51,5.511c-0.39,0.391-0.39,1.024,0,1.414	l5.51,5.511C36.461,17.533,37,17.309,37,16.864V13h5l-1-4H37z"/><linearGradient id="TZTDiIlIi4zIXLu8~gfDRg" x1="-165" x2="-161" y1="26" y2="26" gradientTransform="matrix(-1 0 0 1 -120 0)" gradientUnits="userSpaceOnUse"><stop offset="0" stop-color="#c965eb"/><stop offset="1" stop-color="#c767e5"/></linearGradient><path fill="url(#TZTDiIlIi4zIXLu8~gfDRg)" d="M45,14.5V33v4.5c0,2-1.5,3.5-4,5.5V33V9C43.5,11,45,12.5,45,14.5z"/></svg>