<svg xmlns="http://www.w3.org/2000/svg" viewBox="0 0 48 48"><radialGradient id="GxmNLzX9QzGCh9_A5fiBJa" cx="40.394" cy="-926.035" r="21.161" gradientTransform="matrix(1.0244 0 0 -1.0645 10.785 -954.487)" gradientUnits="userSpaceOnUse"><stop offset="0" stop-color="#bd8af5"/><stop offset=".137" stop-color="#b88bf5"/><stop offset=".309" stop-color="#a88ff3"/><stop offset=".499" stop-color="#8f96f2"/><stop offset=".702" stop-color="#6b9eef"/><stop offset=".913" stop-color="#3eaaec"/><stop offset="1" stop-color="#29afea"/></radialGradient><path fill="url(#GxmNLzX9QzGCh9_A5fiBJa)" d="M44,37H4c-1.105,0-2-0.895-2-2V10c0-1.105,0.895-2,2-2h40c1.105,0,2,0.895,2,2v25 C46,36.105,45.105,37,44,37z"/><path fill="#fff" d="M42,14h-2c-0.552,0-1-0.448-1-1v-2c0-0.552,0.448-1,1-1h2c0.552,0,1,0.448,1,1v2 C43,13.552,42.552,14,42,14z"/><path fill="#fff" d="M42,21h-2c-0.552,0-1-0.448-1-1v-2c0-0.552,0.448-1,1-1h2c0.552,0,1,0.448,1,1v2 C43,20.552,42.552,21,42,21z"/><path fill="#fff" d="M42,28h-2c-0.552,0-1-0.448-1-1v-2c0-0.552,0.448-1,1-1h2c0.552,0,1,0.448,1,1v2 C43,27.552,42.552,28,42,28z"/><path fill="#fff" d="M42,35h-2c-0.552,0-1-0.448-1-1v-2c0-0.552,0.448-1,1-1h2c0.552,0,1,0.448,1,1v2 C43,34.552,42.552,35,42,35z"/><path fill="#fff" d="M8,14H6c-0.552,0-1-0.448-1-1v-2c0-0.552,0.448-1,1-1h2c0.552,0,1,0.448,1,1v2 C9,13.552,8.552,14,8,14z"/><path fill="#fff" d="M8,21H6c-0.552,0-1-0.448-1-1v-2c0-0.552,0.448-1,1-1h2c0.552,0,1,0.448,1,1v2 C9,20.552,8.552,21,8,21z"/><path fill="#fff" d="M8,28H6c-0.552,0-1-0.448-1-1v-2c0-0.552,0.448-1,1-1h2c0.552,0,1,0.448,1,1v2 C9,27.552,8.552,28,8,28z"/><path fill="#fff" d="M8,35H6c-0.552,0-1-0.448-1-1v-2c0-0.552,0.448-1,1-1h2c0.552,0,1,0.448,1,1v2 C9,34.552,8.552,35,8,35z"/><linearGradient id="GxmNLzX9QzGCh9_A5fiBJb" x1="24" x2="24" y1="-1006.992" y2="-1011.008" gradientTransform="matrix(1 0 0 -1 0 -970)" gradientUnits="userSpaceOnUse"><stop offset="0" stop-color="#484b4f"/><stop offset=".23" stop-color="#656d75"/><stop offset=".367" stop-color="#727d86"/></linearGradient><path fill="url(#GxmNLzX9QzGCh9_A5fiBJb)" d="M37.5,39H30v-2H18v2h-7.5c-0.276,0-0.5,0.224-0.5,0.5v1c0,0.276,0.224,0.5,0.5,0.5h27 c0.276,0,0.5-0.224,0.5-0.5v-1C38,39.224,37.776,39,37.5,39z"/></svg>