<svg xmlns="http://www.w3.org/2000/svg" viewBox="0 0 48 48"><linearGradient id="1VJ9n9FszXiHCWmWQV9SNa" x1="24" x2="24" y1="41.25" y2="45.379" gradientUnits="userSpaceOnUse"><stop offset=".023" stop-color="#692a15"/><stop offset=".344" stop-color="#802d10"/><stop offset="1" stop-color="#8b3817"/></linearGradient><path fill="url(#1VJ9n9FszXiHCWmWQV9SNa)" d="M32,38v5c0,1.1-0.9,2-2,2H18c-1.1,0-2-0.9-2-2v-5H32z"/><linearGradient id="1VJ9n9FszXiHCWmWQV9SNb" x1="24" x2="24" y1="25.25" y2="40.853" gradientUnits="userSpaceOnUse"><stop offset="0" stop-color="#a34f27"/><stop offset=".587" stop-color="#8b3817"/><stop offset="1" stop-color="#802d10"/></linearGradient><path fill="url(#1VJ9n9FszXiHCWmWQV9SNb)" d="M42,25H6c-0.552,0-1,0.448-1,1v0c0,8.837,7.163,16,16,16h6c8.837,0,16-7.163,16-16v0	C43,25.448,42.552,25,42,25z"/><linearGradient id="1VJ9n9FszXiHCWmWQV9SNc" x1="24" x2="24" y1="21.75" y2="47.346" gradientUnits="userSpaceOnUse"><stop offset="0" stop-color="#a34f27"/><stop offset=".587" stop-color="#8b3817"/><stop offset="1" stop-color="#802d10"/></linearGradient><path fill="url(#1VJ9n9FszXiHCWmWQV9SNc)" d="M42,25H6c-0.552,0-1,0.448-1,1v0c0,8.837,7.163,16,16,16h6c8.837,0,16-7.163,16-16v0	C43,25.448,42.552,25,42,25z"/><linearGradient id="1VJ9n9FszXiHCWmWQV9SNd" x1="24" x2="24" y1="25.25" y2="40.853" gradientUnits="userSpaceOnUse"><stop offset="0" stop-color="#a34f27"/><stop offset=".587" stop-color="#8b3817"/><stop offset="1" stop-color="#802d10"/></linearGradient><path fill="url(#1VJ9n9FszXiHCWmWQV9SNd)" d="M42,25H6c-0.552,0-1,0.448-1,1v0c0,8.837,7.163,16,16,16h6c8.837,0,16-7.163,16-16v0	C43,25.448,42.552,25,42,25z"/><path fill="#185c37" d="M39,13c0,0-2.52,3.39-6.7,6.01C29.67,20.66,26.38,22,22.66,22C15.23,22,13,17.5,13,13	c0-1.51,0.25-3.03,0.87-4.37C15.09,5.98,17.73,4,22.66,4C33.06,4,39,13,39,13z"/><path fill="#107c42" d="M39,13H13c0-4.5,2.23-9,9.66-9C33.06,4,39,13,39,13z"/><radialGradient id="1VJ9n9FszXiHCWmWQV9SNe" cx="18.775" cy="21.36" r="13.735" gradientUnits="userSpaceOnUse"><stop offset=".841" stop-opacity=".2"/><stop offset="1" stop-opacity="0"/></radialGradient><path fill="url(#1VJ9n9FszXiHCWmWQV9SNe)" d="M32.3,19.01C29.67,20.66,26.38,22,22.66,22C15.23,22,13,17.5,13,13	c0-1.51,0.25-3.03,0.87-4.37c1.71-1.09,3.54-1.66,5.38-1.66c2.84,0,5.59,1.31,8.18,3.91C29.96,13.4,31.45,16.27,32.3,19.01z"/><path d="M32.31,25H31.3c0.14,2.93-0.3,5-0.3,5s-1.27,0.2-3.2,0.2c-3.77,0-10.08-0.75-14.51-5.18c-0.01-0.01-0.01-0.01-0.02-0.02 h-1.38c0.21,0.24,0.44,0.48,0.69,0.73c4.76,4.76,11.58,5.47,15.22,5.47c1.99,0,3.3-0.2,3.35-0.21l0.68-0.11l0.15-0.67 C32.02,30.02,32.45,27.92,32.31,25z" opacity=".05"/><path d="M31.77,25H31.3c0.14,2.93-0.3,5-0.3,5s-1.27,0.2-3.2,0.2c-3.77,0-10.08-0.75-14.51-5.18c-0.01-0.01-0.01-0.01-0.02-0.02 h-0.68c0.11,0.12,0.23,0.25,0.35,0.37c4.63,4.64,11.3,5.33,14.86,5.33c1.95,0,3.22-0.2,3.28-0.21l0.34-0.05l0.07-0.34 C31.5,30.06,31.93,27.96,31.77,25z" opacity=".07"/><path fill="#21a366" d="M31,30c0,0-11.01,1.72-17.71-4.98c-5.16-5.16-3.53-9.89-0.35-13.08c3.19-3.18,7.92-4.81,13.08,0.35	C33.24,19.51,31,30,31,30z"/><path fill="#33c481" d="M31,30L12.94,11.94c3.19-3.18,7.92-4.81,13.08,0.35C33.24,19.51,31,30,31,30z"/></svg>