<svg xmlns="http://www.w3.org/2000/svg" viewBox="0 0 48 48"><linearGradient id="ft0ixTVP8SwPOcddf1Oisa" x1="24.073" x2="44" y1="27" y2="27" gradientUnits="userSpaceOnUse"><stop offset="0" stop-color="#a3ffff"/><stop offset=".223" stop-color="#9dfbff"/><stop offset=".53" stop-color="#8bf1ff"/><stop offset=".885" stop-color="#6ee0ff"/><stop offset="1" stop-color="#63daff"/></linearGradient><path fill="url(#ft0ixTVP8SwPOcddf1Oisa)" d="M24.073,42V12C41.751,12,43.8,30.178,44,39.957C44.022,41.08,43.122,42,41.999,42L24.073,42z"/><linearGradient id="ft0ixTVP8SwPOcddf1Oisb" x1="44.146" x2="64.073" y1="27" y2="27" gradientTransform="matrix(-1 0 0 1 68.073 0)" gradientUnits="userSpaceOnUse"><stop offset="0" stop-color="#a3ffff"/><stop offset=".223" stop-color="#9dfbff"/><stop offset=".53" stop-color="#8bf1ff"/><stop offset=".885" stop-color="#6ee0ff"/><stop offset="1" stop-color="#63daff"/></linearGradient><path fill="url(#ft0ixTVP8SwPOcddf1Oisb)" d="M6.001,42C4.878,42,3.978,41.08,4,39.957C4.2,30.178,6.249,12,23.927,12v30L6.001,42z"/><radialGradient id="ft0ixTVP8SwPOcddf1Oisc" cx="19.074" cy="3.327" r="22.348" gradientUnits="userSpaceOnUse"><stop offset="0" stop-color="#c26715"/><stop offset=".508" stop-color="#b85515"/><stop offset="1" stop-color="#ad3f16"/></radialGradient><circle cx="24" cy="12" r="9" fill="url(#ft0ixTVP8SwPOcddf1Oisc)"/><linearGradient id="ft0ixTVP8SwPOcddf1Oisd" x1="24" x2="24" y1="3.094" y2="11.036" gradientTransform="translate(0 2)" gradientUnits="userSpaceOnUse"><stop offset="0" stop-color="#a3ffff"/><stop offset=".223" stop-color="#9dfbff"/><stop offset=".53" stop-color="#8bf1ff"/><stop offset=".885" stop-color="#6ee0ff"/><stop offset="1" stop-color="#63daff"/></linearGradient><path fill="url(#ft0ixTVP8SwPOcddf1Oisd)" d="M29,8c-0.394,0-0.759,0.118-1.069,0.315C27.605,6.434,25.974,5,24,5 s-3.605,1.434-3.931,3.315C19.759,8.118,19.394,8,19,8c-1.105,0-2,0.895-2,2c0,1.105,0.895,2,2,2c0.677,0,1.273-0.338,1.635-0.853 C21.345,12.259,22.583,13,24,13s2.655-0.741,3.365-1.853C27.727,11.662,28.323,12,29,12c1.105,0,2-0.895,2-2 C31,8.895,30.105,8,29,8z"/><linearGradient id="ft0ixTVP8SwPOcddf1Oise" x1="22" x2="26" y1="9" y2="9" gradientUnits="userSpaceOnUse"><stop offset="0" stop-color="#33bef0"/><stop offset="1" stop-color="#0a85d9"/></linearGradient><path fill="url(#ft0ixTVP8SwPOcddf1Oise)" d="M24,7c-1.105,0-2,0.895-2,2s0.895,2,2,2s2-0.895,2-2S25.105,7,24,7z"/><linearGradient id="ft0ixTVP8SwPOcddf1Oisf" x1="35.001" x2="37.528" y1="29" y2="29" gradientUnits="userSpaceOnUse"><stop offset="0" stop-color="#c48f0c"/><stop offset=".251" stop-color="#d19b16"/><stop offset=".619" stop-color="#dca51f"/><stop offset="1" stop-color="#e0a922"/></linearGradient><path fill="url(#ft0ixTVP8SwPOcddf1Oisf)" d="M34.999,26H34v6h1.333c0.975,0,1.808-0.469,1.972-1.11l0.653-2.555	C38.269,27.115,36.857,26,34.999,26z"/><linearGradient id="ft0ixTVP8SwPOcddf1Oisg" x1="-341" x2="-338.472" y1="29" y2="29" gradientTransform="matrix(-1 0 0 1 -328 0)" gradientUnits="userSpaceOnUse"><stop offset="0" stop-color="#c48f0c"/><stop offset=".251" stop-color="#d19b16"/><stop offset=".619" stop-color="#dca51f"/><stop offset="1" stop-color="#e0a922"/></linearGradient><path fill="url(#ft0ixTVP8SwPOcddf1Oisg)" d="M13.001,26H14v6h-1.333c-0.975,0-1.808-0.469-1.972-1.11l-0.653-2.555	C9.731,27.115,11.143,26,13.001,26z"/><radialGradient id="ft0ixTVP8SwPOcddf1Oish" cx="-529.379" cy="6.111" r="16.111" gradientTransform="matrix(-.8618 0 0 .8618 -432.229 22.19)" gradientUnits="userSpaceOnUse"><stop offset="0" stop-color="#ffcf54"/><stop offset=".261" stop-color="#fdcb4d"/><stop offset=".639" stop-color="#f7c13a"/><stop offset="1" stop-color="#f0b421"/></radialGradient><path fill="url(#ft0ixTVP8SwPOcddf1Oish)" d="M24,11.914c5.921,0,12,2.4,12,15.2c0,1.025,0,3.879,0,4.973C36,36.657,28.651,43,24,43	s-12-6.343-12-10.912c0-1.094,0-3.949,0-4.973C12,14.314,18.079,11.914,24,11.914z"/><radialGradient id="ft0ixTVP8SwPOcddf1Oisi" cx="15.79" cy="9.363" r="30.196" gradientUnits="userSpaceOnUse"><stop offset="0" stop-color="#c26715"/><stop offset=".508" stop-color="#b85515"/><stop offset="1" stop-color="#ad3f16"/></radialGradient><path fill="url(#ft0ixTVP8SwPOcddf1Oisi)" d="M24,9C12,9,9,16,9,20s3,9,3,9c0-10,5-5,5-14c5,13,19,5,19,14c0,0,3-5.156,3-9C39,16,36,9,24,9	z"/></svg>