<svg xmlns="http://www.w3.org/2000/svg" viewBox="0 0 48 48"><linearGradient id="NxCyHCEy011TIG7y71nDoa" x1="24" x2="24" y1="-6.353" y2="57.242" gradientUnits="userSpaceOnUse"><stop offset="0" stop-color="#4caf50"/><stop offset=".161" stop-color="#4aaf50"/><stop offset=".363" stop-color="#43ad50"/><stop offset=".552" stop-color="#38aa50"/><stop offset=".707" stop-color="#27a550"/><stop offset=".851" stop-color="#11a050"/><stop offset="1" stop-color="#0a9e50"/></linearGradient><path fill="url(#NxCyHCEy011TIG7y71nDoa)" d="M20,4c-1.75,0-6,1-6,5.5c0,4,6,5.5,6,8c0,1.5-1,2.5-3,2.5c-3,0-4.75-6-8-6s-5,2-5,4.5	C4,24,14,22,14,26c0,1-0.75,1.5-1.5,1.5c-1,0-1.5-0.5-3.5-0.5c-1.25,0-5,1.25-5,5.5S8.25,37,9,37c4,0,5-6,8-6c1.5,0,2,1,2,2	s-1,3-1,6s3,4,5,4c3,0,5-2,5-4.5s-3-4.25-3-5.5s1.5-2,2.5-2c3.5,0,3.75,8,11.5,8c3.75,0,5-2,5-4.5c0-3-3-5.5-7-6.5	c-3.068-0.767-7-0.5-7-3.5c0-2.5,1.5-3.5,3-3.5c1,0,2,0.5,3,0.5c2,0,5-2,5-5.5c0-4.5-3.25-6-5.5-6c-6.5,0-4,9-9,9	c-4,0-2.915-4.462-2.5-5.5c0.5-1.25,1-2.5,1-4.5C25,7.5,23.5,4,20,4z"/></svg>