<svg xmlns="http://www.w3.org/2000/svg" viewBox="0 0 48 48"><linearGradient id="FFTco~cyxQNoV1qCD~B1ia" x1="21.5" x2="21.5" y1=".559" y2="54.095" gradientUnits="userSpaceOnUse"><stop offset=".002" stop-color="#f44f78"/><stop offset=".397" stop-color="#e4305d"/><stop offset=".763" stop-color="#d81b4a"/><stop offset="1" stop-color="#d41343"/></linearGradient><path fill="url(#FFTco~cyxQNoV1qCD~B1ia)" d="M23.234,6.669C21.853,4.277,19,3.34,19,3.34s-0.614,2.94,0.766,5.331S24,12,24,12	S24.614,9.06,23.234,6.669z"/><linearGradient id="FFTco~cyxQNoV1qCD~B1ib" x1="26.501" x2="26.501" y1=".559" y2="54.095" gradientUnits="userSpaceOnUse"><stop offset=".002" stop-color="#f44f78"/><stop offset=".397" stop-color="#e4305d"/><stop offset=".763" stop-color="#d81b4a"/><stop offset="1" stop-color="#d41343"/></linearGradient><path fill="url(#FFTco~cyxQNoV1qCD~B1ib)" d="M24.767,6.669c1.381-2.391,4.234-3.329,4.234-3.329s0.614,2.94-0.766,5.331	C26.854,11.062,24.001,12,24.001,12S23.387,9.06,24.767,6.669z"/><linearGradient id="FFTco~cyxQNoV1qCD~B1ic" x1="24" x2="24" y1=".559" y2="54.095" gradientUnits="userSpaceOnUse"><stop offset=".002" stop-color="#f44f78"/><stop offset=".397" stop-color="#e4305d"/><stop offset=".763" stop-color="#d81b4a"/><stop offset="1" stop-color="#d41343"/></linearGradient><path fill="url(#FFTco~cyxQNoV1qCD~B1ic)" d="M26.002,7C26.002,4.239,24,2,24,2s-2.002,2.239-2.002,5S24,12,24,12S26.002,9.761,26.002,7z"/><linearGradient id="FFTco~cyxQNoV1qCD~B1id" x1="24" x2="24" y1=".559" y2="54.095" gradientUnits="userSpaceOnUse"><stop offset=".002" stop-color="#f44f78"/><stop offset=".397" stop-color="#e4305d"/><stop offset=".763" stop-color="#d81b4a"/><stop offset="1" stop-color="#d41343"/></linearGradient><circle cx="24" cy="26" r="18.999" fill="url(#FFTco~cyxQNoV1qCD~B1id)"/><linearGradient id="FFTco~cyxQNoV1qCD~B1ie" x1="24" x2="24" y1="52" y2="6.375" gradientUnits="userSpaceOnUse"><stop offset="0" stop-color="#ffda94"/><stop offset="1" stop-color="#fff0ce"/></linearGradient><circle cx="24" cy="26" r="17.003" fill="url(#FFTco~cyxQNoV1qCD~B1ie)"/><linearGradient id="FFTco~cyxQNoV1qCD~B1if" x1="16.002" x2="16.002" y1="-2.794" y2="54.451" gradientUnits="userSpaceOnUse"><stop offset="0" stop-color="#e83c67"/><stop offset=".423" stop-color="#c5214a"/><stop offset=".773" stop-color="#b01038"/><stop offset="1" stop-color="#a80a31"/></linearGradient><path fill="url(#FFTco~cyxQNoV1qCD~B1if)" d="M23.002,12.164c0-0.617-0.553-1.08-1.163-0.992C14.581,12.221,9.001,18.451,9.001,26 c0,7.549,5.58,13.779,12.837,14.827c0.61,0.088,1.163-0.375,1.163-0.992V12.164z"/><linearGradient id="FFTco~cyxQNoV1qCD~B1ig" x1="32" x2="32" y1="-2.794" y2="54.451" gradientUnits="userSpaceOnUse"><stop offset="0" stop-color="#e83c67"/><stop offset=".423" stop-color="#c5214a"/><stop offset=".773" stop-color="#b01038"/><stop offset="1" stop-color="#a80a31"/></linearGradient><path fill="url(#FFTco~cyxQNoV1qCD~B1ig)" d="M25.002,12.165v27.671c0,0.617,0.553,1.08,1.164,0.992c7.256-1.05,12.833-7.28,12.833-14.827 c0-7.547-5.578-13.777-12.833-14.827C25.555,11.085,25.002,11.548,25.002,12.165z"/><g><circle cx="28.002" cy="16" r="1" fill="#a80a31"/><circle cx="28.002" cy="20" r="1" fill="#a80a31"/><circle cx="28.002" cy="24" r="1" fill="#a80a31"/><circle cx="28.002" cy="28" r="1" fill="#a80a31"/><circle cx="28.002" cy="32" r="1" fill="#a80a31"/><circle cx="36.002" cy="24" r="1" fill="#a80a31"/><circle cx="36.002" cy="28" r="1" fill="#a80a31"/><circle cx="28.002" cy="36" r="1" fill="#a80a31"/><circle cx="32.002" cy="18" r="1" fill="#a80a31"/><circle cx="32.002" cy="22" r="1" fill="#a80a31"/><circle cx="32.002" cy="26" r="1" fill="#a80a31"/><circle cx="32.002" cy="30" r="1" fill="#a80a31"/><circle cx="32.002" cy="34" r="1" fill="#a80a31"/></g><g><circle cx="20.002" cy="16" r="1" fill="#a80a31"/><circle cx="20.002" cy="20" r="1" fill="#a80a31"/><circle cx="20.002" cy="24" r="1" fill="#a80a31"/><circle cx="20.002" cy="28" r="1" fill="#a80a31"/><circle cx="20.002" cy="32" r="1" fill="#a80a31"/><circle cx="12.002" cy="24" r="1" fill="#a80a31"/><circle cx="12.002" cy="28" r="1" fill="#a80a31"/><circle cx="20.002" cy="36" r="1" fill="#a80a31"/><circle cx="16.002" cy="18" r="1" fill="#a80a31"/><circle cx="16.002" cy="22" r="1" fill="#a80a31"/><circle cx="16.002" cy="26" r="1" fill="#a80a31"/><circle cx="16.002" cy="30" r="1" fill="#a80a31"/><circle cx="16.002" cy="34" r="1" fill="#a80a31"/></g></svg>