<svg xmlns="http://www.w3.org/2000/svg" data-name="Слой 1" viewBox="0 0 48 48"><defs><linearGradient id="qqbsMDkU8el6cJyRnTSSka" x1="20.581" x2="25.939" y1="-939.185" y2="-968.601" data-name="Безымянный градиент 121" gradientTransform="matrix(1 0 0 -1 0 -936)" gradientUnits="userSpaceOnUse"><stop offset="0" stop-color="#f44f5a"/><stop offset=".443" stop-color="#ee3d4a"/><stop offset="1" stop-color="#e52030"/></linearGradient><linearGradient id="qqbsMDkU8el6cJyRnTSSkb" x1="21.583" x2="26.119" y1="-948.132" y2="-972.9" data-name="Безымянный градиент 120" gradientTransform="matrix(1 0 0 -1 0 -936)" gradientUnits="userSpaceOnUse"><stop offset="0" stop-color="#fed100"/><stop offset="1" stop-color="#e36001"/></linearGradient></defs><path fill="#29aad6" d="M16.24138,33H39a2,2,0,0,1,2,2v6a2,2,0,0,1-2,2H16.24138a0,0,0,0,1,0,0V33A0,0,0,0,1,16.24138,33Z"/><rect width="24" height="10" x="8" y="33" fill="#35c1f1" rx="2"/><path fill="url(#qqbsMDkU8el6cJyRnTSSka)" d="M21.81862,3.90185A.73717.73717,0,0,1,22.53362,3a.8127.8127,0,0,1,.34015.08283c.89692.34992,7.05523,3.25071,5.63115,11.63782,2.068-1.245,1.32847-3.66234,2.00539-3.66234.25384,0,.35792.09467.51361.317C33.28654,14.60063,35,18.44722,35,22.04616a11,11,0,0,1-22,0C13,13.119,23.53292,11.47078,21.81862,3.90185Z"/><path fill="url(#qqbsMDkU8el6cJyRnTSSkb)" d="M23.71738,13.75287a.766.766,0,0,0-.45776-.1589.74025.74025,0,0,0-.74039.73957c.74039,4.43739-4.44231,5.91653-4.44231,11.09349a5.92308,5.92308,0,0,0,11.84616,0C29.92308,21.21108,26.20592,15.58446,23.71738,13.75287Z"/></svg>