<svg xmlns="http://www.w3.org/2000/svg" viewBox="0 0 48 48"><linearGradient id="m6ix5mc5wkG_NM05SlEOwa" x1="9.858" x2="38.142" y1="9.858" y2="38.142" gradientUnits="userSpaceOnUse"><stop offset="0" stop-color="#889097"/><stop offset="1" stop-color="#64717c"/></linearGradient><circle cx="24" cy="24" r="20" fill="url(#m6ix5mc5wkG_NM05SlEOwa)"/><radialGradient id="m6ix5mc5wkG_NM05SlEOwb" cx="24" cy="24" r="19" gradientUnits="userSpaceOnUse"><stop offset="0"/><stop offset="1" stop-opacity="0"/></radialGradient><circle cx="24" cy="24" r="19" fill="url(#m6ix5mc5wkG_NM05SlEOwb)"/><radialGradient id="m6ix5mc5wkG_NM05SlEOwc" cx="23.89" cy="7.394" r="37.883" gradientUnits="userSpaceOnUse"><stop offset="0" stop-color="#fafafb"/><stop offset="1" stop-color="#c8cdd1"/></radialGradient><circle cx="24" cy="24" r="17" fill="url(#m6ix5mc5wkG_NM05SlEOwc)"/><g><linearGradient id="m6ix5mc5wkG_NM05SlEOwd" x1="24" x2="24" y1="10.838" y2="37.843" gradientUnits="userSpaceOnUse"><stop offset="0" stop-color="#6d7479"/><stop offset=".32" stop-color="#565b60"/><stop offset=".752" stop-color="#3c3f43"/><stop offset="1" stop-color="#323538"/></linearGradient><circle cx="24" cy="14" r="3" fill="url(#m6ix5mc5wkG_NM05SlEOwd)"/><linearGradient id="m6ix5mc5wkG_NM05SlEOwe" x1="24" x2="24" y1="10.358" y2="38.952" gradientUnits="userSpaceOnUse"><stop offset="0" stop-color="#6d7479"/><stop offset=".32" stop-color="#565b60"/><stop offset=".752" stop-color="#3c3f43"/><stop offset="1" stop-color="#323538"/></linearGradient><path fill="url(#m6ix5mc5wkG_NM05SlEOwe)" d="M25,19h-2c-1.654,0-3,1.346-3,3v7c0,0.552,0.447,1,1,1v5.967C21,36.537,21.463,37,22.033,37 c0.544,0,0.995-0.422,1.031-0.965l0.438-6.57C23.52,29.204,23.737,29,24,29s0.48,0.204,0.498,0.466l0.438,6.57 C24.972,36.578,25.423,37,25.967,37C26.537,37,27,36.537,27,35.967V30c0.553,0,1-0.448,1-1v-7C28,20.346,26.654,19,25,19z"/></g></svg>