<svg xmlns="http://www.w3.org/2000/svg" viewBox="0 0 48 48"><linearGradient id="piNnZgCMH-8B01cPVjMVja" x1="24" x2="24" y1="29.348" y2="41.283" gradientUnits="userSpaceOnUse"><stop offset="0" stop-color="#6d6d6d"/><stop offset=".126" stop-color="#626262"/><stop offset=".886" stop-color="#464646"/><stop offset="1" stop-color="#454545"/></linearGradient><path fill="url(#piNnZgCMH-8B01cPVjMVja)" d="M7,32v11h34c-2.5-1-2.5-1.5-3-2s-1-2-5.5-4c0-2,0-4,0-4S24,34,22,34S18.5,32,7,32z"/><linearGradient id="piNnZgCMH-8B01cPVjMVjb" x1="24.353" x2="28.314" y1="37.103" y2="41.064" gradientUnits="userSpaceOnUse"><stop offset="0" stop-color="#5c65d6"/><stop offset=".999" stop-color="#464eb0"/></linearGradient><polygon fill="url(#piNnZgCMH-8B01cPVjMVjb)" points="24,42 29.5,37 23,37"/><linearGradient id="piNnZgCMH-8B01cPVjMVjc" x1="36.102" x2="16.276" y1="8.289" y2="43.376" gradientUnits="userSpaceOnUse"><stop offset="0" stop-color="#ffe1bb"/><stop offset="1" stop-color="#cc9271"/></linearGradient><path fill="url(#piNnZgCMH-8B01cPVjMVjc)" d="M19,15c0.5-1.5,4.5-8.5,11.5-8.5	S41,15,41,16s-0.5,7.5-1.5,10c0.19,1.277-1,3.364-3.5,5c-1,3-6,8-12,8s-8-8.5-9-9.5S13.5,27,14,25S16.5,16.5,19,15z"/><linearGradient id="piNnZgCMH-8B01cPVjMVjd" x1="28.833" x2="41.746" y1="24.104" y2="4.996" gradientUnits="userSpaceOnUse"><stop offset="0" stop-color="#5c2415"/><stop offset="1" stop-color="#662c09"/></linearGradient><path fill="url(#piNnZgCMH-8B01cPVjMVjd)" d="M28.442,6.707C29.442,5.707,30.5,4,32,4	s1,0.5,1.5,0.5S35,4,35.5,5s1.209,0.209,2,1c1,1,0.5,2.5,1,3s1-0.5,2.5,1s1,3,0.5,3.5C42,15,43,17,42,21s-2.5,5-2.5,5	c-0.5-2-2.5-1.5-4,0c2-3,4.5-6,4.5-9c0-2-0.5-4.5-1.5-6S34.163,5.723,28.442,6.707z"/><linearGradient id="piNnZgCMH-8B01cPVjMVje" x1="19.469" x2="29.578" y1="37.629" y2="19.759" gradientUnits="userSpaceOnUse"><stop offset="0" stop-color="#5c2415"/><stop offset="1" stop-color="#662c09"/></linearGradient><path fill="url(#piNnZgCMH-8B01cPVjMVje)" d="M35,28c-1.5,2.5-2,5-4.5,5S26,32,26,30.5	c0-1.118,0.596-0.979,1-3c0.5-2.5-2-5.5-4-6.5s-4.5-0.5-5.5,2.5s-3,1.5-3,0c-0.5,0.5-1.5,4-0.5,6S18,39,24,39s11-4.5,12-8	C34.5,31.5,34,30.5,35,28z M24.5,30c-1.5,2-3.939,0.921-6.5-1c-2-1.5,0.5-5,1-6c0.632-1.265,4.5,0.5,5.5,1.5S26.249,27.668,24.5,30z"/><path fill="#343434" d="M25.813,22.632c-0.247,0-0.482-0.094-0.667-0.278c-0.464-0.464-0.901-0.517-1.364-0.573	c-0.378-0.046-0.807-0.098-1.136-0.427l-1-1c-0.297-0.297-0.364-0.718-0.183-1.154C21.698,18.633,22.405,18,23,18	c0.276,0,0.5,0.224,0.5,0.5c0,0.274-0.22,0.496-0.494,0.5c-0.215,0.033-0.658,0.494-0.643,0.671l0.99,0.976	c0.081,0.081,0.262,0.106,0.55,0.142c0.524,0.063,1.242,0.15,1.95,0.858c-0.012-0.017,0.104-0.078,0.194-0.241	c0.067-0.123,0.158-0.375,0.005-0.682c-0.124-0.247-0.023-0.547,0.224-0.671c0.246-0.124,0.547-0.022,0.671,0.224	c0.427,0.854,0.073,1.734-0.476,2.13C26.263,22.557,26.034,22.632,25.813,22.632z"/><path fill="#343434" d="M20.5,13.5c0.5-1,1.5-1.5,2-1.5c1,0,2.5,1,3,1.5c0,0.5-0.5,1-0.5,1C24.5,14,22.5,11.5,20.5,13.5z"/><path fill="#343434" d="M28.5,16.5c0-0.5,0-1,0.5-1.5c1.5,0,5,1.5,5,5C33,18.5,31,16,28.5,16.5z"/><path fill="#343434" d="M32.5,21c-0.128,0-0.256-0.049-0.354-0.146C30.563,19.27,29.207,18.5,28,18.5	c-0.276,0-0.5-0.224-0.5-0.5s0.224-0.5,0.5-0.5c1.506,0,3.048,0.841,4.854,2.646c0.195,0.195,0.195,0.512,0,0.707	C32.756,20.951,32.628,21,32.5,21z"/><path fill="#343434" d="M24.5,16.5c-0.128,0-0.256-0.049-0.354-0.146c-0.394-0.394-2.206-1.307-3.488-0.879	c-0.265,0.087-0.545-0.056-0.632-0.316c-0.087-0.262,0.054-0.545,0.316-0.633c1.763-0.584,3.97,0.579,4.512,1.121	c0.195,0.195,0.195,0.512,0,0.707C24.756,16.451,24.628,16.5,24.5,16.5z"/><linearGradient id="piNnZgCMH-8B01cPVjMVjf" x1="13.25" x2="13.25" y1="34.174" y2="43.834" gradientUnits="userSpaceOnUse"><stop offset="0" stop-color="#3940a4"/><stop offset="1" stop-color="#293091"/></linearGradient><polygon fill="url(#piNnZgCMH-8B01cPVjMVjf)" points="9.5,43 11.5,39 17,39 17,43"/><linearGradient id="piNnZgCMH-8B01cPVjMVjg" x1="9.363" x2="13.572" y1="35.593" y2="39.802" gradientUnits="userSpaceOnUse"><stop offset="0" stop-color="#5c65d6"/><stop offset=".999" stop-color="#464eb0"/></linearGradient><path fill="url(#piNnZgCMH-8B01cPVjMVjg)" d="M13,35c-1,0.5-3,4-3,6c2-1.5,4.5-2,6-2.5	C15,35.5,13,35,13,35z"/><path fill="#343434" d="M36.602,29c-0.522-0.522-1.043-1.565,0-2.609c0.522-0.522,1.565-0.522,2.087,0	C38.168,26.391,36.081,26.391,36.602,29z"/><path fill="#ed6c47" d="M18.5,25c0-1,0-3.5,2.5-3s5,2.45,5,5c0,2-5.5,2-6,2S17,28,18.5,25z"/><path fill="#5c2415" d="M19,24c0.5,0.5,0.5,1.5,0,2c1,1,2,2,5,2c0.5,0,1.5-0.5,1.5-1S21,24,19,24z"/><linearGradient id="piNnZgCMH-8B01cPVjMVjh" x1="19.248" x2="26.178" y1="23.072" y2="27.034" gradientUnits="userSpaceOnUse"><stop offset="0" stop-color="#f9f9f9"/><stop offset=".26" stop-color="#f0f1f2"/><stop offset=".678" stop-color="#d9dcdf"/><stop offset="1" stop-color="#c2c8cc"/></linearGradient><path fill="url(#piNnZgCMH-8B01cPVjMVjh)" d="M20,23c2,0.5,5.5,2,5.5,4c-1.5-1-4-2-6.5-3	C19,24,19.515,22.879,20,23z"/><linearGradient id="piNnZgCMH-8B01cPVjMVji" x1="18.656" x2="24.314" y1="26.613" y2="28.423" gradientUnits="userSpaceOnUse"><stop offset="0" stop-color="#f9f9f9"/><stop offset=".26" stop-color="#f0f1f2"/><stop offset=".678" stop-color="#d9dcdf"/><stop offset="1" stop-color="#c2c8cc"/></linearGradient><path fill="url(#piNnZgCMH-8B01cPVjMVji)" d="M19,26c0.5,0.5,3,2,5,2	C22.5,28.5,18,28,19,26z"/><linearGradient id="piNnZgCMH-8B01cPVjMVjj" x1="12.959" x2="28.024" y1="32.732" y2="40.689" gradientUnits="userSpaceOnUse"><stop offset="0" stop-color="#ffe1bb"/><stop offset="1" stop-color="#cc9271"/></linearGradient><path fill="url(#piNnZgCMH-8B01cPVjMVjj)" d="M24,36.5c0,1.5,0.5,5,1,6.5h-9	c-1.5-1-2.5-3-3-6.5c-0.16-1.11-2.5-1.5-3-2.5s0.5-2,1.5-2.5c0-0.17,0.01-0.34,0.05-0.5c0.15-0.81,0.7-1.5,1.95-1.5	c0.16-0.31,0.36-0.53,0.58-0.68c0.5-0.32,1.08-0.32,1.42-0.32c0.5-1,1-1.5,2.5-1.5c2.5,0,4.5,5,5,6.5c1,0,2.5,0.5,2.5,1.5	S24.5,36,24,36.5z"/><path fill="#c79b78" d="M15,33.5c0,0-1.5-2-3.5-2c0-0.17,0.01-0.34,0.05-0.5C13.52,31.03,14.5,32.51,15,33.5z"/><path fill="#c79b78" d="M16.5,31.5c-0.5-1-2.5-2-3-2c0.16-0.31,0.36-0.53,0.58-0.68C15.01,29.38,16.09,30.27,16.5,31.5z"/><path fill="#c79b78" d="M15.5,28.5C16,28,16.5,28,17,28s1.5,1,1.5,2C18,29.5,17,28.5,15.5,28.5z"/><path fill="#c79b78" d="M25.5,35c0,1-1,1-1.5,1.5c0-0.5-0.5-2-1-3C24,33.5,25.5,34,25.5,35z"/></svg>