<svg xmlns="http://www.w3.org/2000/svg" viewBox="0 0 48 48"><path fill="#8f979e" d="M4,5c2,3,6,1,11.5,1c0,2.054-3.5,5-3.5,5S4,10,4,5z"/><path fill="#8f979e" d="M4,9c4,2,6-2,11.5-2c0,2.054-3.5,6-3.5,6S6,14,4,9z"/><linearGradient id="OagwQWxqpZhj6u97VU9IFa" x1="17.428" x2="23.182" y1="11.283" y2="43.484" gradientUnits="userSpaceOnUse"><stop offset="0" stop-color="#a1aab3"/><stop offset="1" stop-color="#8f979e"/></linearGradient><path fill="url(#OagwQWxqpZhj6u97VU9IFa)" d="M15,43h15c0,0,1-2,1-4c0-8-11-13-11-18c0-3,2-5.404,2-8.5H9C9,20,21,25,21,34	C21,40,15,43,15,43z"/><linearGradient id="OagwQWxqpZhj6u97VU9IFb" x1="13.727" x2="24.101" y1="6.259" y2="42.772" gradientUnits="userSpaceOnUse"><stop offset="0" stop-color="#a1aab3"/><stop offset="1" stop-color="#8f979e"/></linearGradient><circle cx="15.5" cy="12.5" r="6.5" fill="url(#OagwQWxqpZhj6u97VU9IFb)"/><path fill="#e36001" d="M26,25c-8.593,0-10-13-10-13h27C34,14,36.043,25,26,25z"/><path fill="#ff9701" d="M44,12H16c-1.105,0-2-0.895-2-2v0c0-1.105,0.895-2,2-2h22C43,8,44,12,44,12z"/><circle cx="16" cy="10" r="1" fill="#3e2723"/></svg>