<svg xmlns="http://www.w3.org/2000/svg" id="Layer_1" x="0" y="0" version="1.1" viewBox="0 0 48 48" xml:space="preserve"><linearGradient id="SVGID_1_" x1="3.529" x2="37.355" y1="9.11" y2="42.935" gradientUnits="userSpaceOnUse"><stop offset="0" stop-color="#33bef0"/><stop offset="1" stop-color="#0a85d9"/></linearGradient><path fill="url(#SVGID_1_)" d="M46,24c0,11-9,20-20,20c-3.8,0-7.3-1.1-10.3-2.9l-9.8,5c-1.1,0.6-2.3-0.6-1.8-1.7L8.7,34C7,31,6,27.6,6,24	C6,13,15,4,26,4S46,13,46,24z"/><path d="M15.5,21c-0.8,0-1.5-0.7-1.5-1.5v-1c0-0.8,0.7-1.5,1.5-1.5h21c0.8,0,1.5,0.7,1.5,1.5v1c0,0.8-0.7,1.5-1.5,1.5	H15.5z" opacity=".05"/><path d="M15.5,20.5c-0.6,0-1-0.4-1-1v-1c0-0.6,0.5-1,1-1h21c0.6,0,1,0.4,1,1v1c0,0.6-0.5,1-1,1H15.5z" opacity=".07"/><path fill="#fff" d="M37,18.5v1c0,0.3-0.2,0.5-0.5,0.5h-21c-0.3,0-0.5-0.2-0.5-0.5v-1c0-0.3,0.2-0.5,0.5-0.5h21	C36.8,18,37,18.2,37,18.5z"/><path d="M15.5,31c-0.8,0-1.5-0.7-1.5-1.5v-1c0-0.8,0.7-1.5,1.5-1.5h21c0.8,0,1.5,0.7,1.5,1.5v1c0,0.8-0.7,1.5-1.5,1.5	H15.5z" opacity=".05"/><path d="M15.5,30.5c-0.6,0-1-0.4-1-1v-1c0-0.6,0.5-1,1-1h21c0.6,0,1,0.4,1,1v1c0,0.6-0.5,1-1,1H15.5z" opacity=".07"/><path fill="#fff" d="M37,28.5v1c0,0.3-0.2,0.5-0.5,0.5h-21c-0.3,0-0.5-0.2-0.5-0.5v-1c0-0.3,0.2-0.5,0.5-0.5h21	C36.8,28,37,28.2,37,28.5z"/><path d="M15.5,26c-0.8,0-1.5-0.7-1.5-1.5v-1c0-0.8,0.7-1.5,1.5-1.5h18.9c0.8,0,1.5,0.7,1.5,1.5v1c0,0.8-0.7,1.5-1.5,1.5	H15.5z" opacity=".05"/><path d="M15.5,25.5c-0.6,0-1-0.4-1-1v-1c0-0.6,0.5-1,1-1h18.9c0.6,0,1,0.4,1,1v1c0,0.6-0.5,1-1,1H15.5z" opacity=".07"/><path fill="#fff" d="M35,23.5v1c0,0.3-0.2,0.5-0.5,0.5H15.5c-0.3,0-0.5-0.2-0.5-0.5v-1c0-0.3,0.2-0.5,0.5-0.5h18.9	C34.8,23,35,23.2,35,23.5z"/><path fill="#e52030" d="M44.9,42.7L5.3,3.1C5.1,3,4.9,3,4.7,3.1L3.1,4.7C3,4.9,3,5.1,3.1,5.3l39.6,39.6c0.1,0.1,0.4,0.1,0.5,0l1.6-1.6	C45,43.1,45,42.9,44.9,42.7z"/></svg>