<svg xmlns="http://www.w3.org/2000/svg" xmlns:xlink="http://www.w3.org/1999/xlink" data-name="Слой 1" viewBox="0 0 48 48"><defs><radialGradient id="vauV_o0Xybm1MYv7_3Glna" cx="6.065" cy="15.834" r="15.849" data-name="Безымянный градиент 276" gradientUnits="userSpaceOnUse"><stop offset="0" stop-color="#fed100"/><stop offset="1" stop-color="#e38101"/></radialGradient><radialGradient id="vauV_o0Xybm1MYv7_3Glnd" cx="25.803" cy="22.84" r="16.791" gradientTransform="matrix(-1.00386 0 0 1 47.07 0)" xlink:href="#vauV_o0Xybm1MYv7_3Glna"/><radialGradient id="vauV_o0Xybm1MYv7_3Glne" cx="34.24" cy="10.486" r="16.966" xlink:href="#vauV_o0Xybm1MYv7_3Glna"/><linearGradient id="vauV_o0Xybm1MYv7_3Glnb" x1="24" x2="24" y1="22.47" y2="1.342" data-name="Безымянный градиент 100" gradientTransform="translate(0 2)" gradientUnits="userSpaceOnUse"><stop offset="0" stop-color="#21ad64"/><stop offset="1" stop-color="#088242"/></linearGradient><linearGradient id="vauV_o0Xybm1MYv7_3Glnc" x1="14.483" x2="37.015" y1="-2.144" y2="59.761" gradientUnits="userSpaceOnUse"><stop offset="0" stop-color="#a34f27"/><stop offset=".587" stop-color="#8b3817"/><stop offset="1" stop-color="#802d10"/></linearGradient></defs><path fill="url(#vauV_o0Xybm1MYv7_3Glnb)" d="M46.00073,7.97569s-3.6438-2.98248-6.68152-2.9679c-.29895.00147-.56738.0257-.83288.052a1.968,1.968,0,0,0-1.45252.201c-.01269.00732-.02136.01947-.03381.027V5.0023H11v.28552c-.01245-.00756-.02112-.01971-.03381-.027a1.96776,1.96776,0,0,0-1.45252-.201c-.26562-.02631-.53406-.05054-.833-.052-3.03784-.01458-6.68151,2.9679-6.68151,2.9679A18.43865,18.43865,0,0,0,4.96826,9.91557c-1.8518,3.79352-1.95972,9.10889-1.95972,9.10889s5.13135-3.09607,7.32886-6.89679c.25464-.44049.4701-.85559.6626-1.255v.12964h.49219A27.5305,27.5305,0,0,0,10,19.02446a29.04442,29.04442,0,0,0,5.38892-4.36023,18.09558,18.09558,0,0,0,2.08471,4.34247,18.0783,18.0783,0,0,0,2.13172-4.33936A26.54447,26.54447,0,0,0,23.07886,17.715C23.01172,18.51573,23,19.02446,23,19.02446s.39233-.23859.99573-.65338c.60339.41479.99573.65338.99573.65338s-.01185-.50873-.07886-1.30951a26.55206,26.55206,0,0,0,3.47217-3.04614A18.10009,18.10009,0,0,0,30.4679,19.0067a18.073,18.073,0,0,0,2.13317-4.34412,29.043,29.043,0,0,0,5.39039,4.36188,27.5305,27.5305,0,0,0-1.49219-8.02216H37v-.12964c.1925.39942.408.81452.6626,1.255,2.19751,3.80072,7.32886,6.89679,7.32886,6.89679s-.10792-5.31537-1.95972-9.10889A18.4341,18.4341,0,0,0,46.00073,7.97569ZM23.49927,11.0023h.99292c-.18726.48743-.35327.98554-.49658,1.48694C23.85242,11.98784,23.68652,11.48973,23.49927,11.0023Z"/><path fill="url(#vauV_o0Xybm1MYv7_3Glnc)" d="M26,43.0023H22v-38h4Zm-13-38H9v38h4Zm26,0H35v38h4Z"/><path fill="url(#vauV_o0Xybm1MYv7_3Glna)" d="M9.22828,17.9119a7.28932,7.28932,0,0,1-4.0227,2.8404A7.28933,7.28933,0,0,1,5.79287,15.863a7.28938,7.28938,0,0,1,4.0227-2.8404A7.2894,7.2894,0,0,1,9.22828,17.9119Zm2.54344,5.97969a7.28934,7.28934,0,0,0,4.0227,2.84039,7.28933,7.28933,0,0,0-.58729-4.88928,7.28938,7.28938,0,0,0-4.0227-2.8404A7.28943,7.28943,0,0,0,11.77172,23.89159Zm0-11.97969a7.28932,7.28932,0,0,0,4.0227,2.8404A7.28933,7.28933,0,0,0,15.20713,9.863a7.28938,7.28938,0,0,0-4.0227-2.8404A7.2894,7.2894,0,0,0,11.77172,11.9119Z"/><path fill="url(#vauV_o0Xybm1MYv7_3Glnd)" d="M24.18707,18.0023a7.32,7.32,0,0,1,4.03823,2.8404,7.26358,7.26358,0,0,1,.58956,4.88928,7.31992,7.31992,0,0,1-4.03823-2.84039A7.26361,7.26361,0,0,1,24.18707,18.0023ZM22.81293,23.982a7.32,7.32,0,0,0-4.03823,2.8404,7.26361,7.26361,0,0,0-.58956,4.88929,7.32,7.32,0,0,0,4.03823-2.8404A7.26361,7.26361,0,0,0,22.81293,23.982Z"/><path fill="url(#vauV_o0Xybm1MYv7_3Glne)" d="M35.186,17.9119a7.28936,7.28936,0,0,1-4.0227,2.8404,7.28936,7.28936,0,0,1,.58728-4.88928,7.28943,7.28943,0,0,1,4.02271-2.8404A7.2894,7.2894,0,0,1,35.186,17.9119Zm2.54344,5.97969a7.28934,7.28934,0,0,0,4.0227,2.84039,7.28933,7.28933,0,0,0-.58729-4.88928,7.28938,7.28938,0,0,0-4.0227-2.8404A7.28936,7.28936,0,0,0,37.72943,23.89159Zm0-11.97969a7.28932,7.28932,0,0,0,4.0227,2.8404A7.28933,7.28933,0,0,0,41.16484,9.863a7.28938,7.28938,0,0,0-4.0227-2.8404A7.28933,7.28933,0,0,0,37.72943,11.9119Z"/></svg>