<svg xmlns="http://www.w3.org/2000/svg" viewBox="0 0 48 48"><linearGradient id="ItnxAk2BB1CY4FwNJuRwFa" x1="24" x2="24" y1="8.714" y2="14.358" gradientUnits="userSpaceOnUse"><stop offset="0" stop-color="#21ad64"/><stop offset="1" stop-color="#088242"/></linearGradient><path fill="url(#ItnxAk2BB1CY4FwNJuRwFa)" d="M24,6c-1.105,0-2,0.448-2,1l1,7h2l1-7C26,6.448,25.105,6,24,6z"/><radialGradient id="ItnxAk2BB1CY4FwNJuRwFb" cx="-4.333" cy="11.667" r="67.701" gradientUnits="userSpaceOnUse"><stop offset="0" stop-color="#f44f5a"/><stop offset=".443" stop-color="#ee3d4a"/><stop offset="1" stop-color="#e52030"/></radialGradient><path fill="url(#ItnxAk2BB1CY4FwNJuRwFb)" d="M32.312,12c-1.523,0-2.971,0.116-4.282,0.471c-2.643,0.714-5.417,0.714-8.061,0	C18.659,12.116,17.211,12,15.687,12C9.785,12,5,19.074,5,25c0,2.644,0,18,19,18s19-18,19-18C43,19.074,38.215,12,32.312,12z"/><path d="M37.57,13.95c-0.13-0.11-0.27-0.21-0.4-0.3c-0.14-0.1-0.28-0.19-0.42-0.27c-0.5,0.71-1.77,2.26-3.81,3.08 c1.61,2.9,0.9,6.31,0.9,6.31s-3.33,0.91-6.35-0.91C26.41,24.62,24,26,24,26s-2.35-1.54-3.45-4.16c-3.03,1.85-6.39,0.93-6.39,0.93 s-0.71-3.41,0.9-6.31c-2.04-0.82-3.31-2.37-3.81-3.08c-0.14,0.08-0.28,0.17-0.42,0.27c-0.13,0.09-0.27,0.19-0.4,0.3 c0.49,0.69,1.59,2.03,3.3,2.98c-1.18,2.92-0.58,5.9-0.55,6.04l0.13,0.6l0.59,0.16c0.04,0.02,0.98,0.27,2.31,0.27 c1.39,0,2.72-0.28,3.9-0.8c1.29,2.27,3.25,3.57,3.34,3.64l0.51,0.33l0.54-0.3c0.09-0.06,2.15-1.26,3.46-3.65 C29.12,23.73,30.43,24,31.8,24c1.33,0,2.26-0.25,2.3-0.27l0.59-0.16l0.13-0.6c0.03-0.14,0.63-3.12-0.55-6.04 C35.98,15.98,37.08,14.64,37.57,13.95z" opacity=".05"/><path d="M37.17,13.65c-0.14-0.1-0.28-0.19-0.42-0.27c-0.5,0.71-1.77,2.26-3.81,3.08c1.61,2.9,0.9,6.31,0.9,6.31 s-3.33,0.91-6.35-0.91C26.41,24.62,24,26,24,26s-2.35-1.54-3.45-4.16c-3.03,1.85-6.39,0.93-6.39,0.93s-0.71-3.41,0.9-6.31 c-2.04-0.82-3.31-2.37-3.81-3.08c-0.14,0.08-0.28,0.17-0.42,0.27c0.48,0.7,1.66,2.15,3.54,3.05c-1.36,2.91-0.73,6.03-0.7,6.17 l0.06,0.3l0.3,0.08c0.03,0.01,0.91,0.25,2.18,0.25c1.49,0,2.9-0.33,4.11-0.96c1.21,2.42,3.31,3.82,3.41,3.88l0.25,0.17l0.27-0.16 c0.1-0.05,2.28-1.32,3.48-3.87c1.5,0.77,3.02,0.94,4.07,0.94c1.26,0,2.14-0.24,2.17-0.25l0.3-0.08l0.06-0.3 c0.03-0.14,0.66-3.26-0.7-6.17C35.51,15.8,36.69,14.35,37.17,13.65z" opacity=".07"/><linearGradient id="ItnxAk2BB1CY4FwNJuRwFc" x1="24" x2="24" y1="14.5" y2="42.084" gradientUnits="userSpaceOnUse"><stop offset="0" stop-color="#21ad64"/><stop offset="1" stop-color="#088242"/></linearGradient><path fill="url(#ItnxAk2BB1CY4FwNJuRwFc)" d="M37,13c0,0-0.08,0.14-0.25,0.38c-0.5,0.71-1.77,2.26-3.81,3.08c1.61,2.9,0.9,6.31,0.9,6.31 s-3.33,0.91-6.35-0.91C26.41,24.62,24,26,24,26s-2.35-1.54-3.45-4.16c-3.03,1.85-6.39,0.93-6.39,0.93s-0.71-3.41,0.9-6.31 c-2.04-0.82-3.31-2.37-3.81-3.08C11.08,13.14,11,13,11,13s2.6-4,6.83-4C22.05,9,24,13,24,13s1.95-4,6.17-4C34.4,9,37,13,37,13z"/></svg>