<svg xmlns="http://www.w3.org/2000/svg" viewBox="0 0 48 48"><path fill="#50e6ff" d="M39,42H9c-1.657,0-3-1.343-3-3V9c0-1.657,1.343-3,3-3h30c1.657,0,3,1.343,3,3v30 C42,40.657,40.657,42,39,42z"/><linearGradient id="peckNXGVlQd6tzKO6aePja" x1="12.042" x2="17.779" y1="24.203" y2="41.265" gradientUnits="userSpaceOnUse"><stop offset="0" stop-color="#1fa3e5"/><stop offset="1" stop-color="#007ad9"/></linearGradient><path fill="url(#peckNXGVlQd6tzKO6aePja)" d="M21,42H9c-1.657,0-3-1.343-3-3V27c0-1.657,1.343-3,3-3h12c1.657,0,3,1.343,3,3v12 C24,40.657,22.657,42,21,42z"/><linearGradient id="peckNXGVlQd6tzKO6aePjb" x1="36.642" x2="30.652" y1="12.814" y2="14.774" gradientTransform="translate(.886 .367)" gradientUnits="userSpaceOnUse"><stop offset="0" stop-color="#ae4cd5"/><stop offset="1" stop-color="#ac4ad5"/></linearGradient><path fill="url(#peckNXGVlQd6tzKO6aePjb)" d="M38,18.401v-7.507C38,10.4,37.6,10,37.106,10h-7.507c-0.532,0-0.799,0.644-0.423,1.02 l7.804,7.804C37.356,19.2,38,18.934,38,18.401z"/><linearGradient id="peckNXGVlQd6tzKO6aePjc" x1="40.414" x2="35.713" y1="26.433" y2="27.971" gradientTransform="rotate(45.001 47.5 13.753)" gradientUnits="userSpaceOnUse"><stop offset="0" stop-color="#ae4cd5"/><stop offset="1" stop-color="#ac4ad5"/></linearGradient><path fill="url(#peckNXGVlQd6tzKO6aePjc)" d="M28.197,21.218l-1.414-1.414c-0.391-0.391-0.391-1.024,0-1.414l6.364-6.364 c0.391-0.391,1.024-0.391,1.414,0l1.414,1.414c0.391,0.391,0.391,1.024,0,1.414l-6.364,6.364 C29.22,21.608,28.587,21.608,28.197,21.218z"/></svg>