<svg xmlns="http://www.w3.org/2000/svg" viewBox="0 0 48 48"><radialGradient id="kWNqL3lykQiH_E35EyoEva" cx="14.961" cy="2.99" r="56.266" gradientUnits="userSpaceOnUse"><stop offset="0" stop-color="#ffcf54"/><stop offset=".261" stop-color="#fdcb4d"/><stop offset=".639" stop-color="#f7c13a"/><stop offset="1" stop-color="#f0b421"/></radialGradient><path fill="url(#kWNqL3lykQiH_E35EyoEva)" d="M31,39.4l2.6,0.5c2.9,0.6,5.6-1.5,5.8-4.4L40,29l2.9-1.2c1-0.4,1.4-1.6,0.8-2.6L40,19	c-0.6-7.6-4.9-15-16-15C13,4,7,11.4,7,20c0,3.7,1.3,7.9,3.3,10.6c1.8,2.5,2.7,5.5,2.7,8.5v2.8c0,1.105,0.895,2,2,2h14	c1.105,0,2-0.895,2-2V39.4z"/><linearGradient id="kWNqL3lykQiH_E35EyoEvb" x1="11.195" x2="16.436" y1="8.503" y2="28.821" gradientUnits="userSpaceOnUse"><stop offset="0" stop-color="#33bef0"/><stop offset="1" stop-color="#0a85d9"/></linearGradient><path fill="url(#kWNqL3lykQiH_E35EyoEvb)" d="M5,8h16c1.105,0,2,0.895,2,2v11c0,1.105-0.895,2-2,2h-3v3.999	c0,0.445-0.539,0.669-0.854,0.354L12.794,23H5c-1.105,0-2-0.895-2-2V10C3,8.895,3.895,8,5,8z"/><radialGradient id="kWNqL3lykQiH_E35EyoEvc" cx="13" cy="16" r="1.5" gradientUnits="userSpaceOnUse"><stop offset="0"/><stop offset="1" stop-opacity="0"/></radialGradient><circle cx="13" cy="16" r="1.5" fill="url(#kWNqL3lykQiH_E35EyoEvc)" opacity=".3"/><circle cx="13" cy="16" r="1" fill="#fff"/><radialGradient id="kWNqL3lykQiH_E35EyoEvd" cx="9" cy="16" r="1.5" gradientUnits="userSpaceOnUse"><stop offset="0"/><stop offset="1" stop-opacity="0"/></radialGradient><circle cx="9" cy="16" r="1.5" fill="url(#kWNqL3lykQiH_E35EyoEvd)" opacity=".3"/><circle cx="9" cy="16" r="1" fill="#fff"/><radialGradient id="kWNqL3lykQiH_E35EyoEve" cx="17" cy="16" r="1.5" gradientUnits="userSpaceOnUse"><stop offset="0"/><stop offset="1" stop-opacity="0"/></radialGradient><circle cx="17" cy="16" r="1.5" fill="url(#kWNqL3lykQiH_E35EyoEve)" opacity=".3"/><circle cx="17" cy="16" r="1" fill="#fff"/></svg>