<svg xmlns="http://www.w3.org/2000/svg" viewBox="0 0 48 48"><path fill="#586169" d="M24,8C15.163,8,8,15.163,8,24s7.163,16,16,16s16-7.163,16-16S32.837,8,24,8z M24,35	c-6.075,0-11-4.925-11-11c0-6.075,4.925-11,11-11s11,4.925,11,11C35,30.075,30.075,35,24,35z"/><linearGradient id="Jk199RaGUuDaaMaOOPsc3a" x1="21.02" x2="27.393" y1="3.83" y2="46.968" gradientUnits="userSpaceOnUse"><stop offset="0" stop-color="#889097"/><stop offset="1" stop-color="#64717c"/></linearGradient><path fill="url(#Jk199RaGUuDaaMaOOPsc3a)" d="M43.086,24c0-0.378,0.21-0.703,0.52-0.872c0.275-0.15,0.417-0.477,0.391-0.789 c-0.126-1.542-0.425-3.033-0.88-4.457c-0.096-0.3-0.352-0.546-0.665-0.578c-0.352-0.036-0.673-0.257-0.819-0.608 c-0.145-0.35-0.075-0.733,0.148-1.008c0.198-0.245,0.205-0.602,0.061-0.881c-0.711-1.377-1.575-2.66-2.573-3.829 c-0.205-0.241-0.534-0.284-0.842-0.211c-0.324,0.077-0.678-0.01-0.932-0.263c-0.254-0.254-0.34-0.607-0.263-0.932 c0.073-0.308,0.03-0.637-0.211-0.842c-1.169-0.998-2.451-1.862-3.829-2.573c-0.28-0.144-0.637-0.137-0.881,0.061 c-0.275,0.223-0.657,0.293-1.008,0.148c-0.351-0.145-0.572-0.466-0.608-0.819c-0.032-0.313-0.278-0.57-0.578-0.665 c-1.424-0.455-2.915-0.753-4.457-0.88c-0.312-0.026-0.639,0.116-0.789,0.391c-0.169,0.309-0.494,0.52-0.872,0.52 s-0.703-0.21-0.872-0.52c-0.15-0.275-0.477-0.417-0.789-0.391c-1.542,0.126-3.033,0.425-4.457,0.88 c-0.3,0.096-0.546,0.352-0.578,0.665c-0.036,0.352-0.257,0.673-0.608,0.819c-0.35,0.145-0.733,0.075-1.008-0.148 c-0.245-0.198-0.602-0.205-0.881-0.061c-1.377,0.711-2.66,1.575-3.829,2.573c-0.241,0.205-0.284,0.534-0.211,0.842 c0.077,0.324-0.01,0.678-0.263,0.932c-0.254,0.254-0.607,0.34-0.932,0.263c-0.308-0.073-0.637-0.03-0.842,0.211 c-0.998,1.169-1.862,2.451-2.573,3.829c-0.144,0.28-0.137,0.637,0.061,0.881c0.223,0.275,0.293,0.657,0.148,1.008 c-0.145,0.351-0.466,0.572-0.819,0.608c-0.313,0.032-0.57,0.278-0.665,0.578c-0.455,1.424-0.753,2.915-0.88,4.457 c-0.026,0.312,0.116,0.639,0.391,0.789c0.309,0.169,0.52,0.494,0.52,0.872s-0.21,0.703-0.52,0.872 c-0.275,0.15-0.417,0.477-0.391,0.789c0.126,1.542,0.425,3.033,0.88,4.457c0.096,0.3,0.352,0.546,0.665,0.578 c0.352,0.036,0.673,0.257,0.819,0.608c0.145,0.35,0.075,0.733-0.148,1.008c-0.198,0.245-0.205,0.602-0.061,0.881 c0.711,1.377,1.575,2.66,2.573,3.829c0.205,0.241,0.534,0.284,0.842,0.211c0.324-0.077,0.678,0.01,0.932,0.263 c0.254,0.254,0.34,0.607,0.263,0.932c-0.073,0.308-0.03,0.637,0.211,0.842c1.169,0.998,2.451,1.862,3.829,2.573 c0.28,0.144,0.637,0.137,0.881-0.061c0.275-0.223,0.657-0.293,1.008-0.148c0.351,0.145,0.572,0.466,0.608,0.819 c0.032,0.313,0.278,0.57,0.578,0.665c1.424,0.455,2.915,0.753,4.457,0.88c0.312,0.026,0.639-0.116,0.789-0.391 c0.169-0.309,0.494-0.52,0.872-0.52s0.703,0.21,0.872,0.52c0.15,0.275,0.477,0.417,0.789,0.391c1.542-0.126,3.033-0.425,4.457-0.88 c0.3-0.096,0.546-0.352,0.578-0.665c0.036-0.352,0.257-0.673,0.608-0.819c0.35-0.145,0.733-0.075,1.008,0.148 c0.245,0.198,0.602,0.205,0.881,0.061c1.377-0.711,2.66-1.575,3.829-2.573c0.241-0.205,0.284-0.534,0.211-0.842 c-0.077-0.324,0.01-0.678,0.263-0.932c0.254-0.254,0.607-0.34,0.932-0.263c0.308,0.073,0.637,0.03,0.842-0.211 c0.998-1.169,1.862-2.451,2.573-3.829c0.144-0.28,0.137-0.637-0.061-0.881c-0.223-0.275-0.293-0.657-0.148-1.008 c0.145-0.351,0.466-0.572,0.819-0.608c0.313-0.032,0.57-0.278,0.665-0.578c0.455-1.424,0.753-2.915,0.88-4.457 c0.026-0.312-0.116-0.639-0.391-0.789C43.297,24.703,43.086,24.378,43.086,24z M24,39c-8.284,0-15-6.716-15-15 c0-8.284,6.716-15,15-15s15,6.716,15,15C39,32.284,32.284,39,24,39z"/></svg>