<svg xmlns="http://www.w3.org/2000/svg" viewBox="0 0 48 48"><linearGradient id="czDBHo0Hn3a5U0z3GivbLa" x1="21.516" x2="44.886" y1="-324.362" y2="-289.384" gradientTransform="translate(0 342)" gradientUnits="userSpaceOnUse"><stop offset="0" stop-color="#28afea"/><stop offset="1" stop-color="#0b88da"/></linearGradient><path fill="url(#czDBHo0Hn3a5U0z3GivbLa)" d="M9,26l36-14.308v25.64L41.979,40H9V26z"/><linearGradient id="czDBHo0Hn3a5U0z3GivbLb" x1="1.408" x2="36.331" y1="-317.59" y2="-295.836" gradientTransform="translate(0 342)" gradientUnits="userSpaceOnUse"><stop offset="0" stop-color="#28afea"/><stop offset="1" stop-color="#0b88da"/></linearGradient><path fill="url(#czDBHo0Hn3a5U0z3GivbLb)" d="M3,11.692V38c0,1.105,0.895,2,2,2h38c0.491,0,0.935-0.184,1.283-0.478L3,11.692z"/><path d="M3,11h42v1.692l-17.32,13.45c-2.165,1.681-5.195,1.681-7.36,0L3,12.692V11	z" opacity=".05"/><path d="M3,10.5h42v1.692L26.966,25.304c-1.762,1.304-4.17,1.304-5.932,0L3,12.192	V10.5z" opacity=".07"/><path fill="#50e6ff" d="M5,8h38c1.105,0,2,0.895,2,2v1.692L26.252,24.466c-1.359,0.926-3.146,0.926-4.504,0L3,11.692V10	C3,8.895,3.895,8,5,8z"/><path fill="#199be2" d="M44.992,43.224l-1.768,1.768l2.935,2.935c0.098,0.098,0.256,0.098,0.354,0l1.414-1.414	c0.098-0.098,0.098-0.256,0-0.354L44.992,43.224z"/><radialGradient id="czDBHo0Hn3a5U0z3GivbLc" cx="37.012" cy="-440.952" r="9.802" gradientTransform="translate(0 478)" gradientUnits="userSpaceOnUse"><stop offset=".693" stop-color="#006185"/><stop offset=".921" stop-color="#35c1f1"/></radialGradient><polygon fill="url(#czDBHo0Hn3a5U0z3GivbLc)" points="42.8,41.033 41.033,42.8 43.224,44.992 44.992,43.224"/><radialGradient id="czDBHo0Hn3a5U0z3GivbLd" cx="37.021" cy="37.011" r="9.171" gradientUnits="userSpaceOnUse"><stop offset="0"/><stop offset="1" stop-opacity="0"/></radialGradient><path fill="url(#czDBHo0Hn3a5U0z3GivbLd)" d="M45,36.641v-5.634C43.174,28.576,40.267,27,37,27c-5.514,0-10,4.486-10,10	c0,1.045,0.161,2.053,0.46,3H43C44.105,40,45,36.641,45,36.641z"/><linearGradient id="czDBHo0Hn3a5U0z3GivbLe" x1="31.455" x2="42.669" y1="-446.545" y2="-435.331" gradientTransform="translate(0 478)" gradientUnits="userSpaceOnUse"><stop offset="0" stop-color="#a3ffff"/><stop offset=".223" stop-color="#9dfbff"/><stop offset=".53" stop-color="#8bf1ff"/><stop offset=".885" stop-color="#6ee0ff"/><stop offset="1" stop-color="#63daff"/></linearGradient><circle cx="37" cy="37" r="8" fill="url(#czDBHo0Hn3a5U0z3GivbLe)"/></svg>