<svg xmlns="http://www.w3.org/2000/svg" viewBox="0 0 48 48"><linearGradient id="c_8OAWRj8lutzTOYKwnhsa" x1="9.444" x2="37.136" y1="9.028" y2="37.511" gradientUnits="userSpaceOnUse"><stop offset="0" stop-color="#2b92f3"/><stop offset="1" stop-color="#1166d2"/></linearGradient><path fill="url(#c_8OAWRj8lutzTOYKwnhsa)" d="M44,24c0,11.044-8.956,20-20,20S4,35.044,4,24S12.956,4,24,4S44,12.956,44,24z"/><linearGradient id="c_8OAWRj8lutzTOYKwnhsb" x1="14.317" x2="36.734" y1="12.95" y2="38.532" gradientUnits="userSpaceOnUse"><stop offset="0" stop-color="#f6f6f6"/><stop offset=".228" stop-color="#edeeef"/><stop offset=".595" stop-color="#d6d9db"/><stop offset="1" stop-color="#b4bbc0"/></linearGradient><path fill="url(#c_8OAWRj8lutzTOYKwnhsb)" d="M24,8C15.146,8,8,15.146,8,24s7.146,16,16,16s16-7.146,16-16S32.854,8,24,8z"/><path fill="#0d3592" d="M24,4v20H4c0,11.044,8.956,20,20,20s20-8.956,20-20S35.044,4,24,4z"/><path fill="#1a62ca" d="M24,8v15.093C24,23.594,23.594,24,23.093,24H8c0,9.101,7.55,16.397,16.745,15.983	c8.158-0.367,14.871-7.081,15.238-15.238C40.397,15.55,33.101,8,24,8z"/></svg>