<svg xmlns="http://www.w3.org/2000/svg" viewBox="0 0 48 48"><linearGradient id="Ovu0OWluZoEXsTbtSvZRra" x1="366" x2="366" y1="491.013" y2="484.988" gradientTransform="rotate(180 195 263)" gradientUnits="userSpaceOnUse"><stop offset="0" stop-color="#a1aab3"/><stop offset="1" stop-color="#8f979e"/></linearGradient><path fill="url(#Ovu0OWluZoEXsTbtSvZRra)" d="M14,38v-3h20v3l13,0.335V40c0,0.552-0.448,1-1,1H2c-0.552,0-1-0.448-1-1v-1.419L14,38z"/><linearGradient id="Ovu0OWluZoEXsTbtSvZRrb" x1="8.364" x2="38.396" y1="518.692" y2="493.353" gradientTransform="matrix(1 0 0 -1 0 526)" gradientUnits="userSpaceOnUse"><stop offset="0" stop-color="#a1aab3"/><stop offset="1" stop-color="#8f979e"/></linearGradient><path fill="url(#Ovu0OWluZoEXsTbtSvZRrb)" d="M42,34H6c-1.105,0-2-0.895-2-2V9c0-1.105,0.895-2,2-2h36c1.105,0,2,0.895,2,2v23	C44,33.105,43.105,34,42,34z"/><radialGradient id="Ovu0OWluZoEXsTbtSvZRrc" cx="-14.047" cy="517.317" r="83.03" gradientTransform="matrix(.8095 0 0 -.7188 59.813 428.702)" gradientUnits="userSpaceOnUse"><stop offset=".323" stop-color="#23d9d6"/><stop offset=".427" stop-color="#23d4d7"/><stop offset=".542" stop-color="#21c7dc"/><stop offset=".664" stop-color="#1fb0e2"/><stop offset=".789" stop-color="#1c91ec"/><stop offset=".917" stop-color="#1969f8"/><stop offset=".944" stop-color="#1860fb"/></radialGradient><rect width="36" height="23" x="6" y="9" fill="url(#Ovu0OWluZoEXsTbtSvZRrc)"/><linearGradient id="Ovu0OWluZoEXsTbtSvZRrd" x1="24" x2="24" y1="492.011" y2="486.99" gradientTransform="matrix(1 0 0 -1 0 526)" gradientUnits="userSpaceOnUse"><stop offset="0" stop-color="#484b4f"/><stop offset=".028" stop-color="#565b61"/><stop offset=".066" stop-color="#626a72"/><stop offset=".114" stop-color="#6b757d"/><stop offset=".181" stop-color="#717b84"/><stop offset=".367" stop-color="#727d86"/></linearGradient><path fill="url(#Ovu0OWluZoEXsTbtSvZRrd)" d="M46.909,38.335l-2.867-3.584C43.663,34.276,43.088,34,42.481,34H5.519	c-0.608,0-1.182,0.276-1.562,0.751L1.09,38.335C0.876,38.603,1.067,39,1.41,39h14.966c0.382,0,0.73-0.217,0.898-0.56l0.431-0.88	c0.168-0.343,0.516-0.56,0.898-0.56h10.793c0.382,0,0.73,0.217,0.898,0.56l0.431,0.88c0.168,0.343,0.516,0.56,0.898,0.56H46.59	C46.933,39,47.124,38.603,46.909,38.335z"/><path d="M23.957,27.486c-2.049,0-3.737-0.635-5.018-1.887C17.652,24.341,17,22.689,17,20.689	c0-2.041,0.68-3.764,2.021-5.123c1.345-1.362,3.074-2.053,5.139-2.053c1.928,0,3.559,0.58,4.847,1.723	C30.33,16.412,31,17.954,31,19.823c0,1.385-0.377,2.554-1.122,3.473c-0.527,0.651-1.144,1.089-1.842,1.311	c0.066,0.146,0.103,0.308,0.103,0.478v0.746c0,0.483-0.289,0.91-0.736,1.088C26.455,27.295,25.295,27.486,23.957,27.486z M25.024,24.175c-0.112,0.086-0.231,0.163-0.355,0.231c0.201-0.013,0.396-0.033,0.584-0.06	C25.169,24.292,25.093,24.234,25.024,24.175z M24.065,19.301c-0.092,0-0.247,0-0.443,0.316c-0.226,0.36-0.34,0.841-0.34,1.429	c0,0.401,0.087,0.582,0.14,0.654c0.045,0.011,0.087,0.02,0.128,0.02c0.111,0,0.213-0.063,0.344-0.294	c0.224-0.396,0.337-0.968,0.337-1.697c0-0.245-0.037-0.376-0.059-0.424C24.17,19.305,24.115,19.301,24.065,19.301z M27.365,21.348	c0,0.042,0.001,0.083,0.003,0.122c0.004-0.007,0.008-0.014,0.012-0.021c0.215-0.382,0.324-0.919,0.324-1.597	c0-0.362-0.04-0.696-0.122-1.003C27.443,20.421,27.37,21.254,27.365,21.348z" opacity=".05"/><path d="M23.957,26.986c-1.914,0-3.484-0.587-4.668-1.745c-1.187-1.16-1.789-2.692-1.789-4.552	c0-1.905,0.631-3.51,1.877-4.771c1.248-1.263,2.857-1.904,4.783-1.904c1.802,0,3.321,0.538,4.515,1.597	c1.211,1.075,1.825,2.492,1.825,4.211c0,1.268-0.34,2.331-1.011,3.158c-0.695,0.859-1.565,1.295-2.584,1.295	c-0.868,0-1.496-0.281-1.85-0.813c-0.471,0.536-1.121,0.813-1.922,0.813c-0.805,0-1.464-0.308-1.96-0.916	c-0.471-0.577-0.71-1.346-0.71-2.285c0-1.198,0.31-2.215,0.92-3.025c0.643-0.852,1.503-1.284,2.558-1.284	c0.438,0,0.838,0.123,1.188,0.364c0.124-0.152,0.312-0.248,0.518-0.248h0.876c0.187,0,0.366,0.079,0.493,0.217	c0.127,0.139,0.19,0.326,0.174,0.514c-0.209,2.356-0.318,3.591-0.324,3.707c0,0.449,0.078,0.922,0.25,0.922	c0.168,0,0.424-0.057,0.7-0.549c0.257-0.458,0.388-1.077,0.388-1.841c0-1.133-0.35-2.027-1.07-2.735	c-0.722-0.709-1.714-1.054-3.032-1.054c-1.251,0-2.256,0.422-3.072,1.291c-0.825,0.878-1.226,1.953-1.226,3.284	c0,1.307,0.381,2.325,1.166,3.113c0.783,0.788,1.822,1.171,3.177,1.171c0.984,0,1.847-0.152,2.563-0.453l0.093-0.039l0.168-0.014	c0.368,0,0.668,0.299,0.668,0.667v0.746c0,0.277-0.166,0.522-0.421,0.624C26.329,26.807,25.232,26.986,23.957,26.986z M24.065,18.801c-0.225,0-0.56,0.057-0.868,0.551c-0.276,0.441-0.416,1.011-0.416,1.694c0,0.414,0.079,0.733,0.235,0.948	c0.127,0.174,0.271,0.249,0.48,0.249c0.237,0,0.545-0.065,0.832-0.572c0.266-0.472,0.401-1.126,0.401-1.943	c0-0.35-0.062-0.611-0.179-0.754C24.491,18.899,24.375,18.801,24.065,18.801z" opacity=".07"/><path fill="#fff" d="M25.223,22.211h-0.036c-0.35,1.044-1.034,1.566-2.054,1.566c-0.65,0-1.175-0.244-1.572-0.732	c-0.398-0.488-0.597-1.145-0.597-1.97c0-1.093,0.273-2,0.819-2.723c0.546-0.723,1.265-1.085,2.159-1.085	c0.34,0,0.643,0.093,0.91,0.28c0.267,0.187,0.439,0.411,0.517,0.673h0.022c0.013-0.119,0.042-0.349,0.089-0.689	c0.012-0.084,0.083-0.149,0.168-0.149h0.876c0.099,0,0.177,0.088,0.168,0.187c-0.217,2.44-0.326,3.683-0.326,3.73	c0,0.961,0.25,1.442,0.75,1.442c0.456,0,0.835-0.268,1.136-0.805c0.301-0.536,0.451-1.232,0.451-2.086	c0-1.262-0.406-2.292-1.219-3.091c-0.813-0.798-1.94-1.198-3.382-1.198c-1.384,0-2.529,0.483-3.437,1.449	c-0.908,0.966-1.362,2.175-1.362,3.627c0,1.432,0.437,2.587,1.311,3.466c0.874,0.879,2.051,1.318,3.532,1.318	c1.057,0,1.976-0.164,2.757-0.491c0.113-0.047,0.235,0.031,0.235,0.153v0.746c0,0.07-0.041,0.134-0.106,0.16	c-0.831,0.33-1.857,0.495-3.076,0.495c-1.787,0-3.226-0.534-4.318-1.602C18.546,23.816,18,22.418,18,20.689	c0-1.777,0.578-3.25,1.733-4.42c1.156-1.17,2.631-1.755,4.427-1.755c1.684,0,3.079,0.49,4.183,1.471	C29.448,16.966,30,18.245,30,19.823c0,1.156-0.3,2.104-0.899,2.844c-0.599,0.74-1.331,1.11-2.195,1.11	C25.789,23.777,25.228,23.255,25.223,22.211z M24.065,18.301c-0.534,0-0.965,0.262-1.292,0.786	c-0.328,0.524-0.492,1.177-0.492,1.959c0,0.524,0.11,0.938,0.331,1.241c0.221,0.303,0.516,0.455,0.884,0.455	c0.534,0,0.956-0.275,1.267-0.826c0.311-0.551,0.466-1.28,0.466-2.188C25.231,18.777,24.842,18.301,24.065,18.301z"/></svg>