<svg xmlns="http://www.w3.org/2000/svg" viewBox="0 0 48 48"><path fill="#5059c9" d="M8,6h32v36H8V6z"/><rect width="6" height="4" x="31" y="40" fill="#5059c9"/><path fill="#7b83eb" d="M40,4H8C6.895,4,6,4.895,6,6c0,1.105,0.895,2,2,2h32c1.105,0,2-0.895,2-2C42,4.895,41.105,4,40,4z"/><path fill="#7b83eb" d="M40,22H8c-1.105,0-2,0.895-2,2c0,1.105,0.895,2,2,2h32c1.105,0,2-0.895,2-2	C42,22.895,41.105,22,40,22z"/><path fill="#7b83eb" d="M30,40H8c-1.105,0-2,0.895-2,2c0,1.105,0.895,2,2,2h22c1.105,0,2-0.895,2-2	C32,40.895,31.105,40,30,40z"/><linearGradient id="H7ZjqJ1l8HiKXwasNok16a" x1="24" x2="24" y1="15.27" y2="31.453" gradientUnits="userSpaceOnUse"><stop offset=".414" stop-color="#333538"/><stop offset=".417" stop-color="#565b60"/><stop offset=".661" stop-color="#3a3d40"/><stop offset=".665" stop-color="#333538"/></linearGradient><path fill="url(#H7ZjqJ1l8HiKXwasNok16a)" d="M30,26c0,3.3-2.7,6-6,6s-6-2.7-6-6s6-10.5,6-10.5S30,22.7,30,26z"/><path fill="#f5be00" d="M32.78,37.804C32.687,37.336,32.276,37,31.8,37H22.2c-0.477,0-0.887,0.336-0.981,0.804l-1.2,6	C19.896,44.423,20.369,45,21,45H33c0.631,0,1.104-0.577,0.981-1.196L32.78,37.804z"/><linearGradient id="H7ZjqJ1l8HiKXwasNok16b" x1="20.001" x2="32.596" y1="40.833" y2="40.833" gradientUnits="userSpaceOnUse"><stop offset="0" stop-color="#fede00"/><stop offset="1" stop-color="#ffd000"/></linearGradient><path fill="url(#H7ZjqJ1l8HiKXwasNok16b)" d="M31.8,37H22.2c-0.477,0-0.887,0.336-0.981,0.804l-1.2,6c-0.066,0.328,0.043,0.637,0.248,0.862	l12.329-7.252C32.412,37.165,32.126,37,31.8,37z"/><path fill="#f5be00" d="M46.78,37.804C46.687,37.336,46.276,37,45.8,37H36.2c-0.477,0-0.887,0.336-0.981,0.804l-1.2,6	C33.896,44.423,34.369,45,35,45H47c0.631,0,1.104-0.577,0.981-1.196L46.78,37.804z"/><linearGradient id="H7ZjqJ1l8HiKXwasNok16c" x1="34.001" x2="46.596" y1="40.833" y2="40.833" gradientUnits="userSpaceOnUse"><stop offset="0" stop-color="#fede00"/><stop offset="1" stop-color="#ffd000"/></linearGradient><path fill="url(#H7ZjqJ1l8HiKXwasNok16c)" d="M45.8,37H36.2c-0.477,0-0.887,0.336-0.981,0.804l-1.2,6c-0.066,0.328,0.043,0.637,0.248,0.862	l12.329-7.252C46.412,37.165,46.126,37,45.8,37z"/><path fill="#f5be00" d="M39.78,29.804C39.687,29.336,39.276,29,38.8,29H29.2c-0.477,0-0.887,0.336-0.981,0.804l-1.2,6	C26.896,36.423,27.369,37,28,37H40c0.631,0,1.104-0.577,0.981-1.196L39.78,29.804z"/><linearGradient id="H7ZjqJ1l8HiKXwasNok16d" x1="27.001" x2="39.596" y1="32.833" y2="32.833" gradientUnits="userSpaceOnUse"><stop offset="0" stop-color="#fede00"/><stop offset="1" stop-color="#ffd000"/></linearGradient><path fill="url(#H7ZjqJ1l8HiKXwasNok16d)" d="M38.8,29H29.2c-0.477,0-0.887,0.336-0.981,0.804l-1.2,6c-0.066,0.328,0.043,0.637,0.248,0.862	l12.329-7.252C39.412,29.165,39.126,29,38.8,29z"/></svg>