<svg xmlns="http://www.w3.org/2000/svg" xmlns:xlink="http://www.w3.org/1999/xlink" data-name="Layer 1" viewBox="0 0 48 48"><defs><linearGradient id="Soaz_oDK7Ze63hvxdZrj1h" x1="15.143" x2="19.822" y1="2.834" y2="15.689" xlink:href="#Soaz_oDK7Ze63hvxdZrj1a"/><linearGradient id="Soaz_oDK7Ze63hvxdZrj1a" x1="11.5" x2="11.5" y1="45.984" y2="10.02" data-name="Безымянный градиент 36" gradientUnits="userSpaceOnUse"><stop offset="0" stop-color="#33c481"/><stop offset="1" stop-color="#21a366"/></linearGradient><linearGradient id="Soaz_oDK7Ze63hvxdZrj1d" x1="21.5" x2="21.5" y1="45.984" y2="10.02" xlink:href="#Soaz_oDK7Ze63hvxdZrj1a"/><linearGradient id="Soaz_oDK7Ze63hvxdZrj1e" x1="26.5" x2="26.5" y1="45.984" y2="10.02" xlink:href="#Soaz_oDK7Ze63hvxdZrj1a"/><linearGradient id="Soaz_oDK7Ze63hvxdZrj1f" x1="31.5" x2="31.5" y1="45.984" y2="10.02" xlink:href="#Soaz_oDK7Ze63hvxdZrj1a"/><linearGradient id="Soaz_oDK7Ze63hvxdZrj1g" x1="36.5" x2="36.5" y1="45.984" y2="10.02" xlink:href="#Soaz_oDK7Ze63hvxdZrj1a"/><linearGradient id="Soaz_oDK7Ze63hvxdZrj1c" x1="16.5" x2="16.5" y1="45.984" y2="10.02" xlink:href="#Soaz_oDK7Ze63hvxdZrj1a"/><linearGradient id="Soaz_oDK7Ze63hvxdZrj1i" x1="27.48" x2="31.685" y1="3.761" y2="15.314" xlink:href="#Soaz_oDK7Ze63hvxdZrj1a"/><linearGradient id="Soaz_oDK7Ze63hvxdZrj1b" x1="9.2" x2="14.076" y1="7.991" y2="21.388" data-name="Безымянный градиент 102" gradientUnits="userSpaceOnUse"><stop offset="0" stop-color="#9dffce"/><stop offset="1" stop-color="#50d18d"/></linearGradient><linearGradient id="Soaz_oDK7Ze63hvxdZrj1j" x1="33.571" x2="37.751" y1="9.008" y2="20.493" xlink:href="#Soaz_oDK7Ze63hvxdZrj1b"/><linearGradient id="Soaz_oDK7Ze63hvxdZrj1k" x1="21.759" x2="25.712" y1="9.526" y2="20.389" xlink:href="#Soaz_oDK7Ze63hvxdZrj1b"/><linearGradient id="Soaz_oDK7Ze63hvxdZrj1l" x1="15.353" x2="19.87" y1="13.411" y2="25.821" xlink:href="#Soaz_oDK7Ze63hvxdZrj1b"/><linearGradient id="Soaz_oDK7Ze63hvxdZrj1m" x1="27.366" x2="31.686" y1="13.447" y2="25.316" xlink:href="#Soaz_oDK7Ze63hvxdZrj1b"/></defs><path fill="url(#Soaz_oDK7Ze63hvxdZrj1a)" d="M10,17.01654h3a0,0,0,0,1,0,0v25.5a1.5,1.5,0,0,1-1.5,1.5h0a1.5,1.5,0,0,1-1.5-1.5v-25.5A0,0,0,0,1,10,17.01654Z"/><path fill="url(#Soaz_oDK7Ze63hvxdZrj1c)" d="M15,17.01654h3a0,0,0,0,1,0,0v25.5a1.5,1.5,0,0,1-1.5,1.5h0a1.5,1.5,0,0,1-1.5-1.5v-25.5A0,0,0,0,1,15,17.01654Z"/><path fill="url(#Soaz_oDK7Ze63hvxdZrj1d)" d="M20,17.01654h3a0,0,0,0,1,0,0v25.5a1.5,1.5,0,0,1-1.5,1.5h0a1.5,1.5,0,0,1-1.5-1.5v-25.5A0,0,0,0,1,20,17.01654Z"/><path fill="url(#Soaz_oDK7Ze63hvxdZrj1e)" d="M25,17.01654h3a0,0,0,0,1,0,0v25.5a1.5,1.5,0,0,1-1.5,1.5h0a1.5,1.5,0,0,1-1.5-1.5v-25.5A0,0,0,0,1,25,17.01654Z"/><path fill="url(#Soaz_oDK7Ze63hvxdZrj1f)" d="M30,17.01654h3a0,0,0,0,1,0,0v25.5a1.5,1.5,0,0,1-1.5,1.5h0a1.5,1.5,0,0,1-1.5-1.5v-25.5A0,0,0,0,1,30,17.01654Z"/><path fill="url(#Soaz_oDK7Ze63hvxdZrj1g)" d="M35,17.01654h3a0,0,0,0,1,0,0v25.5a1.5,1.5,0,0,1-1.5,1.5h0a1.5,1.5,0,0,1-1.5-1.5v-25.5A0,0,0,0,1,35,17.01654Z"/><path fill="url(#Soaz_oDK7Ze63hvxdZrj1h)" d="M22.60535,7.74451a2.99574,2.99574,0,0,0-4.75367-1.7793,2.9965,2.9965,0,0,0-5.184,2.033A2.99692,2.99692,0,0,0,14.998,13.50953a2.99853,2.99853,0,0,0,3.33532.001,2.99421,2.99421,0,0,0,3.132.12238,2.99906,2.99906,0,0,0,1.14-5.88837Z"/><path fill="url(#Soaz_oDK7Ze63hvxdZrj1i)" d="M35.33234,7.99817a2.9965,2.9965,0,0,0-5.184-2.033,2.99574,2.99574,0,0,0-4.75367,1.7793,2.99895,2.99895,0,0,0,1.14,5.88837,2.99421,2.99421,0,0,0,3.132-.12238,2.99853,2.99853,0,0,0,3.33532-.001,2.9972,2.9972,0,0,0,2.33033-5.51136Z"/><path fill="url(#Soaz_oDK7Ze63hvxdZrj1b)" d="M16.60535,12.74451a2.99574,2.99574,0,0,0-4.75367-1.7793,2.9965,2.9965,0,0,0-5.184,2.033A2.99692,2.99692,0,0,0,8.998,18.50953a2.99853,2.99853,0,0,0,3.33532.001,2.99421,2.99421,0,0,0,3.132.12238,2.99906,2.99906,0,0,0,1.14-5.88837Z"/><path fill="url(#Soaz_oDK7Ze63hvxdZrj1j)" d="M40.60535,12.74451a2.99574,2.99574,0,0,0-4.75367-1.7793,2.9965,2.9965,0,0,0-5.184,2.033A2.99692,2.99692,0,0,0,32.998,18.50953a2.99853,2.99853,0,0,0,3.33532.001,2.99421,2.99421,0,0,0,3.132.12238,2.99906,2.99906,0,0,0,1.14-5.88837Z"/><path fill="url(#Soaz_oDK7Ze63hvxdZrj1k)" d="M29.33234,12.99817a2.9965,2.9965,0,0,0-5.184-2.033,2.99574,2.99574,0,0,0-4.75367,1.7793,2.99895,2.99895,0,0,0,1.14,5.88837,2.99421,2.99421,0,0,0,3.132-.12238,2.99853,2.99853,0,0,0,3.33532-.001,2.9972,2.9972,0,0,0,2.33033-5.51136Z"/><path fill="url(#Soaz_oDK7Ze63hvxdZrj1l)" d="M22.60535,17.74451a2.99574,2.99574,0,0,0-4.75367-1.7793,2.9965,2.9965,0,0,0-5.184,2.033A2.99692,2.99692,0,0,0,14.998,23.50953a2.99853,2.99853,0,0,0,3.33532.001,2.99421,2.99421,0,0,0,3.132.12238,2.99906,2.99906,0,0,0,1.14-5.88837Z"/><path fill="url(#Soaz_oDK7Ze63hvxdZrj1m)" d="M34.60535,17.74451a2.99574,2.99574,0,0,0-4.75367-1.7793,2.9965,2.9965,0,0,0-5.184,2.033A2.99692,2.99692,0,0,0,26.998,23.50953a2.99853,2.99853,0,0,0,3.33532.001,2.99421,2.99421,0,0,0,3.132.12238,2.99906,2.99906,0,0,0,1.14-5.88837Z"/></svg>