<svg xmlns="http://www.w3.org/2000/svg" xmlns:xlink="http://www.w3.org/1999/xlink" width="48" height="48" viewBox="0 0 48 48"><linearGradient id="nS3ePx5E9zEd1A9rsv0yQa" x1="11.863" x2="34.635" y1="4.837" y2="40.792" gradientUnits="userSpaceOnUse"><stop offset="0" stop-color="#e2bf85"/><stop offset="1" stop-color="#caa36f"/></linearGradient><path fill="url(#nS3ePx5E9zEd1A9rsv0yQa)" d="M42,34c0,4.418-3.582,8-8,8H14c-4.418,0-8-3.582-8-8V14c0-4.418,3.582-8,8-8h20	c4.418,0,8,3.582,8,8V34z"/><path d="M39.765,21.993L39.765,21.993C39.276,21.172,37.903,21,36.837,21c-1.376,0-2.708,0.391-3.675,1.087	c-0.485,0.367-0.689,0.933-0.518,1.441c0.061,0.181,0.174,0.328,0.309,0.454c-1.316,0.396-2.682,0.692-4.03,0.971	c-1.302,0.271-2.84,0.403-4.7,0.403c-0.673,0-1.338-0.017-1.985-0.042c-2.313-0.087-4.237-0.38-6.22-0.944	c-0.429-0.132-0.858-0.257-1.286-0.383c-1.733-0.507-3.37-0.987-4.92-1.827c-0.506-0.278-1.18-0.141-1.538,0.303	c-0.207,0.254-0.302,0.575-0.268,0.901c0.034,0.325,0.192,0.618,0.447,0.825c1.922,1.556,4.025,2.4,6.251,3.293l0.206,0.083	c2.36,0.914,4.841,1.396,7.374,1.435c0.567,0.008,1.135,0.017,1.703,0.017c1.72,0,3.748-0.069,5.745-0.579	c2.009-0.52,4.258-1.11,6.297-2.373c-0.077,0.217-0.155,0.437-0.247,0.684c-0.165,0.414-0.131,0.841,0.093,1.171	c0.21,0.31,0.565,0.494,0.95,0.494c0.299,0,0.598-0.106,0.915-0.348C39.545,26.516,40.453,23.156,39.765,21.993z" opacity=".05"/><path d="M39.335,22.249c-0.388-0.651-1.731-0.749-2.498-0.749c-1.274,0-2.5,0.356-3.373,0.985	c-0.316,0.239-0.449,0.578-0.346,0.884c0.074,0.221,0.317,0.446,0.772,0.453l0.138-0.018c0.342-0.043,0.79-0.098,1.249-0.136	c-1.961,0.883-4.135,1.337-6.253,1.773c-1.336,0.278-2.907,0.414-4.802,0.414c-0.679,0-1.351-0.017-2.003-0.042	c-2.354-0.089-4.315-0.388-6.348-0.966c-0.427-0.131-0.854-0.256-1.28-0.381c-1.759-0.515-3.42-1.002-5.02-1.868	c-0.299-0.164-0.698-0.083-0.911,0.18c-0.122,0.15-0.179,0.34-0.158,0.533c0.02,0.193,0.114,0.366,0.265,0.489	c1.863,1.509,3.933,2.339,6.123,3.218l0.2,0.08c2.306,0.892,4.728,1.364,7.201,1.401c0.564,0.008,1.13,0.017,1.695,0.017	c1.689,0,3.678-0.067,5.62-0.563c2.175-0.563,4.641-1.201,6.763-2.705c0.374-0.263,0.506-0.757,0.314-1.175	c-0.092-0.198-0.243-0.347-0.423-0.445c0.663,0.012,0.843,0.118,0.849,0.101c0.073,0.211-0.016,0.929-0.864,3.204	c-0.14,0.353-0.034,0.593,0.042,0.706c0.119,0.175,0.314,0.275,0.536,0.275c0.189,0,0.384-0.072,0.588-0.227	C39.207,26.146,39.852,22.862,39.335,22.249z" opacity=".07"/><path d="M16.982,6v8c0,1.103,0.897,2,2,2h5.435l6.601-6.585V6H16.982z" opacity=".05"/><path d="M17.482,6v8c0,0.827,0.673,1.5,1.5,1.5h5.228l6.308-6.292V6H17.482z" opacity=".07"/><defs><path id="nS3ePx5E9zEd1A9rsv0yQb" d="M36.837,22c-1.003,0-2.194,0.253-3.071,0.884c-0.251,0.19-0.251,0.442,0.062,0.442 c1.003-0.126,3.26-0.442,3.699,0.126c0.376,0.505-0.439,2.654-0.815,3.665c-0.125,0.316,0.125,0.379,0.376,0.19 c1.692-1.454,2.132-4.424,1.818-4.803C38.718,22.19,37.84,22,36.837,22z"/></defs><clipPath id="nS3ePx5E9zEd1A9rsv0yQc"><use overflow="visible" xlink:href="#nS3ePx5E9zEd1A9rsv0yQb"/></clipPath><polygon fill="#343434" points="34.02,27.497 33.515,26.901 33.515,22 39.22,22 39.22,27.497" clip-path="url(#nS3ePx5E9zEd1A9rsv0yQc)"/><linearGradient id="nS3ePx5E9zEd1A9rsv0yQd" x1="11.567" x2="22.567" y1="10.732" y2="23.732" gradientUnits="userSpaceOnUse"><stop offset="0" stop-color="#4c4c4c"/><stop offset="1" stop-color="#343434"/></linearGradient><path fill="url(#nS3ePx5E9zEd1A9rsv0yQd)" d="M9.347,23.047c2.03,1.098,4.199,1.612,6.378,2.28c2.196,0.625,4.227,0.902,6.475,0.987	c2.243,0.085,4.713,0.079,6.926-0.382c2.204-0.455,4.427-0.912,6.471-1.854l0.035-0.016c0.227-0.104,0.494-0.005,0.598,0.221	c0.092,0.2,0.025,0.433-0.149,0.556c-1.998,1.417-4.256,2.023-6.6,2.63C27.141,28.068,24.708,28.036,22.3,28	c-2.431-0.037-4.795-0.503-7.028-1.367c-2.226-0.894-4.329-1.715-6.189-3.22c-0.097-0.079-0.112-0.221-0.033-0.318	c0.069-0.086,0.19-0.107,0.282-0.057L9.347,23.047z"/><linearGradient id="nS3ePx5E9zEd1A9rsv0yQe" x1="19.142" x2="29.767" y1="4.761" y2="16.636" gradientUnits="userSpaceOnUse"><stop offset="0" stop-color="#00b3ee"/><stop offset="1" stop-color="#0082d8"/></linearGradient><path fill="url(#nS3ePx5E9zEd1A9rsv0yQe)" d="M24.004,15h-5.021c-0.552,0-1-0.448-1-1V6h12.035v3L24.004,15z"/><linearGradient id="nS3ePx5E9zEd1A9rsv0yQf" x1="25.484" x2="29.734" y1="10.376" y2="14.876" gradientUnits="userSpaceOnUse"><stop offset="0" stop-color="#00b3ee"/><stop offset="1" stop-color="#0082d8"/></linearGradient><path fill="url(#nS3ePx5E9zEd1A9rsv0yQf)" d="M24.018,15v-4c0-1.105,0.895-2,2-2h4L24.018,15z"/></svg>