<svg xmlns="http://www.w3.org/2000/svg" viewBox="0 0 48 48"><linearGradient id="dZlEZzGl_rjNWVq5uqC-Ja" x1="7.76" x2="41.381" y1="18.759" y2="38.17" gradientUnits="userSpaceOnUse"><stop offset="0" stop-color="#a34f27"/><stop offset=".587" stop-color="#8b3817"/><stop offset="1" stop-color="#802d10"/></linearGradient><path fill="url(#dZlEZzGl_rjNWVq5uqC-Ja)" d="M6.518,30.973c0.313,0,0.602,0.151,0.843,0.411c0.368,0.395,0.969,0.457,1.367,0.091	c0.341-0.315,0.766-0.501,1.229-0.501c0.544,0,1.038,0.257,1.405,0.677c0.351,0.401,0.945,0.439,1.319,0.059	c0.449-0.458,1.036-0.736,1.68-0.736c0.864,0,1.623,0.498,2.086,1.261c0.292,0.481,0.938,0.616,1.381,0.262	c0.412-0.33,0.911-0.523,1.449-0.523c0.65,0,1.244,0.282,1.695,0.746c0.364,0.373,0.97,0.373,1.334,0	c0.453-0.464,1.046-0.746,1.695-0.746s1.244,0.282,1.695,0.746c0.364,0.373,0.97,0.373,1.334,0c0.453-0.464,1.046-0.746,1.695-0.746	c0.538,0,1.037,0.193,1.449,0.523c0.443,0.354,1.09,0.219,1.381-0.262c0.463-0.763,1.223-1.261,2.086-1.261	c0.645,0,1.231,0.278,1.68,0.736c0.373,0.381,0.968,0.342,1.319-0.059c0.367-0.42,0.861-0.677,1.405-0.677	c0.463,0,0.888,0.187,1.229,0.501c0.398,0.367,1,0.305,1.367-0.091c0.242-0.26,0.531-0.411,0.843-0.411	c0.148,0,0.288,0.044,0.423,0.107C41.968,30.716,42,30.347,42,29.973c0-4.08-3.643-7.632-9.041-9.532C30.687,19.646,27.731,19,24,19	s-6.771,0.75-8.959,1.441C9.643,22.34,6,25.893,6,29.973c0,0.374,0.032,0.743,0.092,1.107C6.23,31.017,6.37,30.973,6.518,30.973z"/></svg>