<svg xmlns="http://www.w3.org/2000/svg" viewBox="0 0 48 48"><linearGradient id="Pjg_2vIyo3bS_XJ8bFi6Aa" x1="16.343" x2="30.215" y1="86.969" y2="68.261" gradientTransform="rotate(180 24 59)" gradientUnits="userSpaceOnUse"><stop offset="0" stop-color="#005fcc"/><stop offset="1" stop-color="#065299"/></linearGradient><path fill="url(#Pjg_2vIyo3bS_XJ8bFi6Aa)" d="M40,44H8c0-8.837,7.163-16,16-16S40,35.163,40,44z"/><linearGradient id="Pjg_2vIyo3bS_XJ8bFi6Ab" x1="211.714" x2="224.35" y1="315.286" y2="302.651" gradientTransform="rotate(90 263 59)" gradientUnits="userSpaceOnUse"><stop offset="0" stop-color="#fede00"/><stop offset=".519" stop-color="#fecc00"/><stop offset="1" stop-color="#ffb700"/></linearGradient><path fill="url(#Pjg_2vIyo3bS_XJ8bFi6Ab)" d="M13,23c4.97,0,9-4.03,9-9s-4.03-9-9-9s-9,4.03-9,9S8.03,23,13,23z"/><circle cx="9" cy="13" r="2" fill="#fff"/><circle cx="9" cy="13" r="1" fill="#343434"/><circle cx="17" cy="13" r="2" fill="#fff"/><circle cx="17" cy="13" r="1" fill="#343434"/><path fill="#343434" d="M15.176,19.438c-0.194,0-0.387-0.068-0.544-0.206c-0.906-0.798-2.358-0.797-3.262,0	c-0.342,0.301-0.863,0.268-1.163-0.074c-0.301-0.342-0.268-0.862,0.074-1.163c1.506-1.327,3.933-1.328,5.442,0	c0.341,0.301,0.374,0.822,0.074,1.163C15.632,19.344,15.404,19.438,15.176,19.438z"/><linearGradient id="Pjg_2vIyo3bS_XJ8bFi6Ac" x1="211.714" x2="224.35" y1="293.286" y2="280.651" gradientTransform="rotate(90 263 59)" gradientUnits="userSpaceOnUse"><stop offset="0" stop-color="#fede00"/><stop offset=".519" stop-color="#fecc00"/><stop offset="1" stop-color="#ffb700"/></linearGradient><path fill="url(#Pjg_2vIyo3bS_XJ8bFi6Ac)" d="M35,23c4.97,0,9-4.03,9-9s-4.03-9-9-9s-9,4.03-9,9S30.03,23,35,23z"/><circle cx="31" cy="13" r="2" fill="#fff"/><circle cx="31" cy="13" r="1" fill="#343434"/><circle cx="39" cy="13" r="2" fill="#fff"/><circle cx="39" cy="13" r="1" fill="#343434"/><path fill="#343434" d="M32.824,17.562c0.194,0,0.387,0.068,0.544,0.206c0.906,0.798,2.358,0.797,3.262,0	c0.342-0.301,0.863-0.268,1.163,0.074c0.301,0.342,0.268,0.862-0.074,1.163c-1.506,1.327-3.933,1.328-5.442,0	c-0.341-0.301-0.374-0.822-0.074-1.163C32.368,17.656,32.596,17.562,32.824,17.562z"/><path fill="#cf2e2e" d="M24,44l1.797-0.685l4.327-11.911c0.063-0.174-0.007-0.374-0.175-0.466	c-0.185-0.102-0.417-0.034-0.519,0.151l-6.757,12.309c-0.034,0.062-0.068,0.136-0.093,0.205c-0.048,0.132-0.06,0.265-0.064,0.397H24	z"/><path fill="#ed5555" d="M24,41c1.657,0,3,1.343,3,3h-6C21,42.343,22.343,41,24,41z"/></svg>