<svg xmlns="http://www.w3.org/2000/svg" viewBox="0 0 48 48"><linearGradient id="cPjy6~15PzZyOukJg89sUa" x1="19.701" x2="24.152" y1="21.857" y2="41.887" gradientUnits="userSpaceOnUse"><stop offset="0" stop-color="#75daff"/><stop offset="1" stop-color="#1ea2e4"/></linearGradient><path fill="url(#cPjy6~15PzZyOukJg89sUa)" d="M24,30.571c-8.837,0-16,4.921-16,10.286V42c0,1.105,0.895,2,2,2h28c1.105,0,2-0.895,2-2	v-1.143C40,35.492,32.837,30.571,24,30.571z"/><path fill="#75daff" d="M24,41.702c0,0,6-4.502,6-9.302c0-0.303,0-0.657,0-1.032c-1.854-0.506-3.876-0.796-6-0.796	s-4.146,0.29-6,0.796c0,0.375,0,0.729,0,1.032C18,37.2,24,41.702,24,41.702z"/><path fill="#d6a121" d="M29,32c0,4-5,8-5,8s-5-4-5-8c0-2.637,0-9.035,0-9.035h10C29,22.965,29,29.363,29,32z"/><linearGradient id="cPjy6~15PzZyOukJg89sUb" x1="32.917" x2="34.251" y1="20" y2="20" gradientUnits="userSpaceOnUse"><stop offset="0" stop-color="#c48f0c"/><stop offset=".251" stop-color="#d19b16"/><stop offset=".619" stop-color="#dca51f"/><stop offset="1" stop-color="#e0a922"/></linearGradient><path fill="url(#cPjy6~15PzZyOukJg89sUb)" d="M32.916,18h-0.527v4h0.703c0.515,0,0.954-0.312,1.041-0.74l0.344-1.703	C34.642,18.743,33.897,18,32.916,18z"/><linearGradient id="cPjy6~15PzZyOukJg89sUc" x1="-479.083" x2="-477.749" y1="20" y2="20" gradientTransform="matrix(-1 0 0 1 -464 0)" gradientUnits="userSpaceOnUse"><stop offset="0" stop-color="#c48f0c"/><stop offset=".251" stop-color="#d19b16"/><stop offset=".619" stop-color="#dca51f"/><stop offset="1" stop-color="#e0a922"/></linearGradient><path fill="url(#cPjy6~15PzZyOukJg89sUc)" d="M15.084,18h0.527v4h-0.703c-0.515,0-0.954-0.312-1.041-0.74l-0.344-1.703	C13.358,18.743,14.103,18,15.084,18z"/><radialGradient id="cPjy6~15PzZyOukJg89sUd" cx="14.87" cy="26.849" r="12.224" gradientTransform="translate(10.89 -4.971) scale(.8816)" gradientUnits="userSpaceOnUse"><stop offset="0" stop-color="#ffcf54"/><stop offset=".261" stop-color="#fdcb4d"/><stop offset=".639" stop-color="#f7c13a"/><stop offset="1" stop-color="#f0b421"/></radialGradient><path fill="url(#cPjy6~15PzZyOukJg89sUd)" d="M24,6.4c-4.441,0-9,0.675-9,10.275c0,0.768,0,5.877,0,6.698C15,26.8,20.4,31,24,31	s9-4.2,9-7.627c0-0.821,0-5.929,0-6.698C33,7.075,28.441,6.4,24,6.4z"/><radialGradient id="cPjy6~15PzZyOukJg89sUe" cx="5.168" cy="22.22" r="25.269" gradientTransform="translate(10.89 -4.971) scale(.8816)" gradientUnits="userSpaceOnUse"><stop offset="0" stop-color="#c26715"/><stop offset=".508" stop-color="#b85515"/><stop offset="1" stop-color="#ad3f16"/></radialGradient><path fill="url(#cPjy6~15PzZyOukJg89sUe)" d="M14,16c0,1.654,0.265,1.876,1,6l2-8h14c0,0,2,6.968,2,8c0.601-3.01,1-4.555,1-6H14z"/><linearGradient id="cPjy6~15PzZyOukJg89sUf" x1="21.869" x2="30.756" y1="4.344" y2="43.323" gradientUnits="userSpaceOnUse"><stop offset="0" stop-color="#75daff"/><stop offset="1" stop-color="#1ea2e4"/></linearGradient><path fill="url(#cPjy6~15PzZyOukJg89sUf)" d="M34,16c0,0-5,0-10,0s-10,0-10,0c0-4,1-9,1-9s2.126-2,9-2c6.875,0,9,2,9,2S34,12,34,16z"/><g><path fill="#e52030" d="M23,8h2v6h-2V8z"/><path fill="#e52030" d="M21,10h6v2h-6V10z"/></g></svg>