<svg xmlns="http://www.w3.org/2000/svg" xmlns:xlink="http://www.w3.org/1999/xlink" data-name="Слой 1" viewBox="0 0 48 48"><defs><linearGradient id="BU~TdKHtnzL2nOuKRErSyg" x1="27.675" x2="43.964" y1="3.753" y2="48.506" xlink:href="#BU~TdKHtnzL2nOuKRErSyb"/><linearGradient id="BU~TdKHtnzL2nOuKRErSya" x1="14.085" x2="32.888" y1="11.758" y2="63.418" gradientUnits="userSpaceOnUse"><stop offset=".002" stop-color="#427fdb"/><stop offset=".397" stop-color="#2668cb"/><stop offset=".763" stop-color="#1358bf"/><stop offset="1" stop-color="#0c52bb"/></linearGradient><linearGradient id="BU~TdKHtnzL2nOuKRErSyb" x1="10.113" x2="25.728" y1="13.872" y2="56.774" data-name="Безымянный градиент 7" gradientUnits="userSpaceOnUse"><stop offset="0" stop-color="#33bef0"/><stop offset="1" stop-color="#22a5e2"/></linearGradient><linearGradient id="BU~TdKHtnzL2nOuKRErSyd" x1="33.112" x2="49.401" y1="6.692" y2="51.445" xlink:href="#BU~TdKHtnzL2nOuKRErSyb"/><linearGradient id="BU~TdKHtnzL2nOuKRErSye" x1="30.547" x2="46.339" y1="6.393" y2="49.779" xlink:href="#BU~TdKHtnzL2nOuKRErSyb"/><linearGradient id="BU~TdKHtnzL2nOuKRErSyf" x1="29.487" x2="45.776" y1="4.732" y2="49.486" xlink:href="#BU~TdKHtnzL2nOuKRErSyb"/><linearGradient id="BU~TdKHtnzL2nOuKRErSyc" x1="28.243" x2="47.551" y1="7.631" y2="60.681" xlink:href="#BU~TdKHtnzL2nOuKRErSya"/><linearGradient id="BU~TdKHtnzL2nOuKRErSyh" x1="25.276" x2="41.068" y1="3.911" y2="47.297" xlink:href="#BU~TdKHtnzL2nOuKRErSyb"/><linearGradient id="BU~TdKHtnzL2nOuKRErSyi" x1="25.979" x2="38.601" y1="10.448" y2="45.125" xlink:href="#BU~TdKHtnzL2nOuKRErSyb"/><linearGradient id="BU~TdKHtnzL2nOuKRErSyj" x1="24.575" x2="37.196" y1="10.59" y2="45.267" xlink:href="#BU~TdKHtnzL2nOuKRErSyb"/><linearGradient id="BU~TdKHtnzL2nOuKRErSyk" x1="23.171" x2="35.792" y1="10.731" y2="45.408" xlink:href="#BU~TdKHtnzL2nOuKRErSyb"/><linearGradient id="BU~TdKHtnzL2nOuKRErSyl" x1="21.766" x2="34.388" y1="10.873" y2="45.55" xlink:href="#BU~TdKHtnzL2nOuKRErSyb"/><linearGradient id="BU~TdKHtnzL2nOuKRErSym" x1="20.362" x2="32.983" y1="11.015" y2="45.691" xlink:href="#BU~TdKHtnzL2nOuKRErSyb"/></defs><circle cx="24" cy="39" r="3" fill="url(#BU~TdKHtnzL2nOuKRErSya)"/><path fill="url(#BU~TdKHtnzL2nOuKRErSyc)" d="M43,8H24V40H43a1.99945,1.99945,0,0,0,2-2V10A1.99945,1.99945,0,0,0,43,8Z"/><path fill="url(#BU~TdKHtnzL2nOuKRErSyb)" d="M24,8H5a1.99945,1.99945,0,0,0-2,2V38a1.99945,1.99945,0,0,0,2,2H24Z"/><path fill="url(#BU~TdKHtnzL2nOuKRErSyd)" d="M41.5,17h-10a.50018.50018,0,0,1-.5-.5v-1a.50018.50018,0,0,1,.5-.5h10a.50018.50018,0,0,1,.5.5v1A.50018.50018,0,0,1,41.5,17Z"/><path fill="url(#BU~TdKHtnzL2nOuKRErSye)" d="M39.5,21h-8a.50018.50018,0,0,1-.5-.5v-1a.50018.50018,0,0,1,.5-.5h8a.50018.50018,0,0,1,.5.5v1A.50018.50018,0,0,1,39.5,21Z"/><path fill="url(#BU~TdKHtnzL2nOuKRErSyf)" d="M41.5,25h-10a.50018.50018,0,0,1-.5-.5v-1a.50018.50018,0,0,1,.5-.5h10a.50018.50018,0,0,1,.5.5v1A.50018.50018,0,0,1,41.5,25Z"/><path fill="url(#BU~TdKHtnzL2nOuKRErSyg)" d="M41.5,29h-10a.50018.50018,0,0,1-.5-.5v-1a.50018.50018,0,0,1,.5-.5h10a.50018.50018,0,0,1,.5.5v1A.50018.50018,0,0,1,41.5,29Z"/><path fill="url(#BU~TdKHtnzL2nOuKRErSyh)" d="M39.5,33h-8a.50018.50018,0,0,1-.5-.5v-1a.50018.50018,0,0,1,.5-.5h8a.50018.50018,0,0,1,.5.5v1A.50018.50018,0,0,1,39.5,33Z"/><rect width="2" height="2" x="27" y="15" fill="url(#BU~TdKHtnzL2nOuKRErSyi)" rx=".5"/><rect width="2" height="2" x="27" y="19" fill="url(#BU~TdKHtnzL2nOuKRErSyj)" rx=".5"/><rect width="2" height="2" x="27" y="23" fill="url(#BU~TdKHtnzL2nOuKRErSyk)" rx=".5"/><rect width="2" height="2" x="27" y="27" fill="url(#BU~TdKHtnzL2nOuKRErSyl)" rx=".5"/><rect width="2" height="2" x="27" y="31" fill="url(#BU~TdKHtnzL2nOuKRErSym)" rx=".5"/><g><path fill="#0176d0" d="M18.23512,30a.64465.64465,0,0,1-.45742-.18988l-6.47085-6.47085a.64688.64688,0,0,1,.91483-.91483l6.47085,6.47085A.6473.6473,0,0,1,18.23512,30Z"/><path fill="#0176d0" d="M7.83319,18.00207l5.02308,5.07743L10.9885,24.94727,7.54378,21.50255a2.27334,2.27334,0,0,1,0-3.2153Z"/><path fill="#50e6ff" d="M9.65155,30a.65118.65118,0,0,1-.46094-1.11177l7.16756-7.16756a.65137.65137,0,0,1,.92118.92118L10.1125,29.80871A.65246.65246,0,0,1,9.65155,30Z"/><ellipse cx="17.839" cy="21.161" fill="#50e6ff" rx="3.45" ry="2.842" transform="rotate(-45.001 17.84 21.16)"/></g></svg>