<svg xmlns="http://www.w3.org/2000/svg" viewBox="0 0 48 48"><linearGradient id="lxITMYYPKXBjSoboRmeiIa" x1="35.822" x2="35.822" y1="2" y2="22.922" gradientUnits="userSpaceOnUse"><stop offset="0" stop-color="#636363"/><stop offset=".36" stop-color="#585858"/><stop offset=".987" stop-color="#3c3c3c"/><stop offset=".998" stop-color="#3b3b3b"/></linearGradient><circle cx="35.822" cy="13.241" r="8.167" fill="url(#lxITMYYPKXBjSoboRmeiIa)"/><linearGradient id="lxITMYYPKXBjSoboRmeiIb" x1="7.5" x2="7.5" y1="20.529" y2="42.532" gradientUnits="userSpaceOnUse"><stop offset="0" stop-color="#636363"/><stop offset=".36" stop-color="#585858"/><stop offset=".987" stop-color="#3c3c3c"/><stop offset=".998" stop-color="#3b3b3b"/></linearGradient><path fill="url(#lxITMYYPKXBjSoboRmeiIb)" d="M10,42c-0.552,0-1-0.448-1-1c0-2.379-1.324-4.386-2.604-6.326C5.164,32.805,4,31.041,4,29	c0-5.184,2.86-6.922,5.658-7.94c0.518-0.188,1.092,0.079,1.282,0.598c0.188,0.519-0.079,1.093-0.598,1.282	C7.592,23.94,6,25.252,6,29c0,1.44,1.003,2.961,2.066,4.572C9.441,35.657,11,38.021,11,41C11,41.552,10.552,42,10,42z"/><linearGradient id="lxITMYYPKXBjSoboRmeiIc" x1="7.997" x2="30.79" y1="17.742" y2="17.742" gradientUnits="userSpaceOnUse"><stop offset="0" stop-color="#f0f0f0"/><stop offset="1" stop-color="#bbc1c4"/></linearGradient><path fill="url(#lxITMYYPKXBjSoboRmeiIc)" d="M30.79,20.57c-0.79-0.11-1.81-0.08-2.98,0.04c-5.69,0.61-14.86,3.54-17.34,4.35	c-0.4,0.13-0.83-0.04-1.02-0.42c-0.21-0.4-0.5-1.06-0.85-2.08c-0.34-1.02-0.51-1.72-0.59-2.17c-0.07-0.41,0.16-0.81,0.56-0.95	c2.45-0.85,11.52-4.11,16.41-7.09c1-0.61,1.83-1.2,2.39-1.77L30.79,20.57z"/><path fill="#d43a02" d="M30.79,20.57c-0.79-0.11-1.81-0.08-2.98,0.04l-2.83-8.36c1-0.61,1.83-1.2,2.39-1.77L30.79,20.57z"/><linearGradient id="lxITMYYPKXBjSoboRmeiId" x1="27.171" x2="31.7" y1="8.201" y2="21.73" gradientUnits="userSpaceOnUse"><stop offset="0" stop-color="#889097"/><stop offset="1" stop-color="#64717c"/></linearGradient><path fill="url(#lxITMYYPKXBjSoboRmeiId)" d="M30.715,20.578L27.308,10.52c-0.06-0.177,0.035-0.369,0.212-0.429l0.471-0.16	c0.177-0.06,0.369,0.035,0.429,0.212l3.407,10.058c0.06,0.177-0.035,0.369-0.212,0.429l-0.471,0.16	C30.967,20.849,30.775,20.754,30.715,20.578z"/><linearGradient id="lxITMYYPKXBjSoboRmeiIe" x1="16" x2="16" y1="39.941" y2="27.744" gradientUnits="userSpaceOnUse"><stop offset="0" stop-color="#484b4f"/><stop offset=".23" stop-color="#656d75"/><stop offset=".367" stop-color="#727d86"/></linearGradient><path fill="url(#lxITMYYPKXBjSoboRmeiIe)" d="M18,44h-4V16c0-1.105,0.895-2,2-2h0c1.105,0,2,0.895,2,2V44z"/><linearGradient id="lxITMYYPKXBjSoboRmeiIf" x1="16" x2="16" y1="38.265" y2="45.69" gradientUnits="userSpaceOnUse"><stop offset="0" stop-color="#889097"/><stop offset="1" stop-color="#64717c"/></linearGradient><path fill="url(#lxITMYYPKXBjSoboRmeiIf)" d="M6,41.5L6,41.5C6,40.119,7.119,39,8.5,39h15c1.381,0,2.5,1.119,2.5,2.5v0	c0,1.381-1.119,2.5-2.5,2.5h-15C7.119,44,6,42.881,6,41.5z"/></svg>