<svg xmlns="http://www.w3.org/2000/svg" viewBox="0 0 48 48"><linearGradient id="9As1LHoGzwf8FaGB9rfCxa" x1="33" x2="33" y1="1.918" y2="26.918" gradientUnits="userSpaceOnUse"><stop offset="0" stop-color="#30dc80"/><stop offset="1" stop-color="#21ad64"/></linearGradient><path fill="url(#9As1LHoGzwf8FaGB9rfCxa)" d="M42,31V9c0-1.657-1.343-3-3-3H24v25H42z"/><linearGradient id="9As1LHoGzwf8FaGB9rfCxb" x1="33" x2="33" y1="30.234" y2="42.234" gradientUnits="userSpaceOnUse"><stop offset="0" stop-color="#fede00"/><stop offset="1" stop-color="#f5aa00"/></linearGradient><path fill="url(#9As1LHoGzwf8FaGB9rfCxb)" d="M24,30v12h15c1.657,0,3-1.343,3-3v-9H24z"/><linearGradient id="9As1LHoGzwf8FaGB9rfCxc" x1="7" x2="7" y1="2.216" y2="24.216" gradientTransform="rotate(180 11 24)" gradientUnits="userSpaceOnUse"><stop offset="0" stop-color="#e52030"/><stop offset="1" stop-color="#f4615a"/></linearGradient><path fill="url(#9As1LHoGzwf8FaGB9rfCxc)" d="M6,20v19c0,1.657,1.343,3,3,3h15V20H6z"/><linearGradient id="9As1LHoGzwf8FaGB9rfCxd" x1="7" x2="7" y1="25.473" y2="40.473" gradientTransform="rotate(180 11 24)" gradientUnits="userSpaceOnUse"><stop offset="0" stop-color="#912fbd"/><stop offset="1" stop-color="#c866e8"/></linearGradient><path fill="url(#9As1LHoGzwf8FaGB9rfCxd)" d="M24,21V6H9C7.343,6,6,7.343,6,9v12H24z"/></svg>