<svg xmlns="http://www.w3.org/2000/svg" viewBox="0 0 48 48"><linearGradient id="hbLutKXhWcayySgZMOoJVa" x1="13.02" x2="34.556" y1="7.644" y2="39.725" gradientUnits="userSpaceOnUse"><stop offset="0" stop-color="#8521b0"/><stop offset=".77" stop-color="#6c16a0"/><stop offset="1" stop-color="#64129a"/></linearGradient><path fill="url(#hbLutKXhWcayySgZMOoJVa)" d="M24,4C12.954,4,4,12.954,4,24s8.954,20,20,20s20-8.954,20-20S35.046,4,24,4z"/><path d="M31.264,29.235c-0.493-0.328-1.11-0.389-1.655-0.161c-3.472,1.447-6.276,1.091-7.896-1	c-1.692-2.183-1.686-5.789,0.014-8.039c1.641-2.173,4.448-2.605,7.903-1.216c0.541,0.218,1.157,0.154,1.644-0.175	c0.485-0.328,0.774-0.872,0.774-1.457l0.001-2.628c0-0.963-0.646-1.803-1.57-2.042c-6.453-1.676-11.908-0.016-14.964,4.555	c-2.987,4.471-2.902,10.704,0.204,14.822c2.097,2.779,5.263,4.215,9.066,4.215c1.807,0,3.757-0.324,5.805-0.982	c0.873-0.28,1.459-1.088,1.459-2.01v-2.419C32.048,30.109,31.755,29.562,31.264,29.235z" opacity=".05"/><path d="M30.986,29.651c-0.352-0.235-0.796-0.278-1.186-0.115c-3.701,1.542-6.713,1.131-8.484-1.155	c-1.821-2.35-1.816-6.229,0.01-8.647c1.037-1.372,3.52-3.378,8.489-1.378c0.392,0.156,0.83,0.109,1.178-0.125	c0.347-0.234,0.554-0.624,0.554-1.042l0.001-2.628c0-0.735-0.492-1.375-1.195-1.558c-6.24-1.617-11.493-0.033-14.423,4.349	c-2.874,4.299-2.795,10.29,0.188,14.243c1.997,2.647,5.026,4.015,8.676,4.015c1.753,0,3.649-0.316,5.644-0.957	c0.665-0.213,1.111-0.83,1.111-1.534v-2.419C31.548,30.277,31.338,29.886,30.986,29.651z" opacity=".07"/><path fill="#fff" d="M30.283,34.176C8.864,41.061,9.198,8.03,30.227,13.487c0.485,0.126,0.821,0.573,0.821,1.074 c0,0.736,0,1.81,0,2.629c0,0.538-0.546,0.904-1.046,0.703c-13.978-5.622-14.161,18.003-0.009,12.105 c0.501-0.209,1.055,0.159,1.055,0.701c0,0.766,0,1.744,0,2.42C31.047,33.597,30.739,34.03,30.283,34.176z"/></svg>