<svg xmlns="http://www.w3.org/2000/svg" viewBox="0 0 48 48"><path fill="#50e6ff" d="M21,23H8c-1.105,0-2-0.895-2-2V8c0-1.105,0.895-2,2-2h13c1.105,0,2,0.895,2,2v13	C23,22.105,22.105,23,21,23z"/><path fill="#057093" d="M6,8h11.5C17.776,8,18,8.224,18,8.5v1c0,0.276-0.224,0.5-0.5,0.5H6V8z"/><path fill="#057093" d="M6,13h11.5c0.276,0,0.5,0.224,0.5,0.5v1c0,0.276-0.224,0.5-0.5,0.5H6V13z"/><path fill="#50e6ff" d="M25,21.111V7.889C25,6.846,25.846,6,26.889,6h13.222C41.154,6,42,6.846,42,7.889v13.222	C42,22.154,41.154,23,40.111,23H26.889C25.846,23,25,22.154,25,21.111z"/><path fill="#057093" d="M42,10H30.5C30.224,10,30,9.776,30,9.5v-1C30,8.224,30.224,8,30.5,8H42V10z"/><path fill="#057093" d="M42,15H30.5c-0.276,0-0.5-0.224-0.5-0.5v-1c0-0.276,0.224-0.5,0.5-0.5H42V15z"/><path fill="#50e6ff" d="M23,27v13c0,1.105-0.895,2-2,2H8c-1.105,0-2-0.895-2-2V27c0-1.105,0.895-2,2-2h13	C22.105,25,23,25.895,23,27z"/><path fill="#057093" d="M6,38h11.5c0.276,0,0.5,0.224,0.5,0.5v1c0,0.276-0.224,0.5-0.5,0.5H6V38z"/><path fill="#057093" d="M6,33h11.5c0.276,0,0.5,0.224,0.5,0.5v1c0,0.276-0.224,0.5-0.5,0.5H6V33z"/><path fill="#50e6ff" d="M27,25h13c1.105,0,2,0.895,2,2v13c0,1.105-0.895,2-2,2H27c-1.105,0-2-0.895-2-2V27	C25,25.895,25.895,25,27,25z"/><path fill="#057093" d="M42,40H30.5c-0.276,0-0.5-0.224-0.5-0.5v-1c0-0.276,0.224-0.5,0.5-0.5H42V40z"/><path fill="#057093" d="M42,35H30.5c-0.276,0-0.5-0.224-0.5-0.5v-1c0-0.276,0.224-0.5,0.5-0.5H42V35z"/></svg>