<svg xmlns="http://www.w3.org/2000/svg" viewBox="0 0 48 48"><path fill="#abb4be" d="M6.5,22c-0.628,0-1.213-0.397-1.423-1.025l-2-6c-0.262-0.786,0.163-1.636,0.949-1.897	c0.787-0.264,1.635,0.164,1.897,0.948l2,6c0.262,0.786-0.163,1.636-0.949,1.897C6.817,21.976,6.657,22,6.5,22z"/><path fill="#abb4be" d="M41.5,22c-0.157,0-0.317-0.024-0.474-0.077c-0.786-0.262-1.211-1.111-0.949-1.897l2-6	c0.262-0.784,1.113-1.212,1.897-0.948c0.786,0.262,1.211,1.111,0.949,1.897l-2,6C42.713,21.603,42.128,22,41.5,22z"/><path fill="#abb4be" d="M6.5,22c-0.628,0-1.213-0.397-1.423-1.025l-2-6c-0.262-0.786,0.163-1.636,0.949-1.897	c0.787-0.264,1.635,0.164,1.897,0.948l2,6c0.262,0.786-0.163,1.636-0.949,1.897C6.817,21.976,6.657,22,6.5,22z"/><path fill="#abb4be" d="M41.5,22c-0.157,0-0.317-0.024-0.474-0.077c-0.786-0.262-1.211-1.111-0.949-1.897l2-6	c0.262-0.784,1.113-1.212,1.897-0.948c0.786,0.262,1.211,1.111,0.949,1.897l-2,6C42.713,21.603,42.128,22,41.5,22z"/><path fill="#abb4be" d="M20.41,35.41l-1.64,1.64l-0.76,0.76l-2.6,2.6C15.02,40.8,14.51,41,14,41s-1.02-0.2-1.41-0.59	c-0.79-0.78-0.79-2.04,0-2.82l1.82-1.82l0.36-0.36l2.82-2.82c0.78-0.79,2.04-0.79,2.82,0C21.2,33.37,21.2,34.63,20.41,35.41z"/><path fill="#abb4be" d="M35.4,40.42C35.01,40.81,34.5,41,33.99,41s-1.02-0.19-1.41-0.58l-2.6-2.6l-0.38-0.39l-0.38-0.37	l-1.64-1.65c-0.78-0.78-0.77-2.05,0.01-2.83c0.78-0.78,2.05-0.78,2.83,0.01l2.46,2.46l0.35,0.36l0.36,0.36l1.82,1.82	C36.19,38.37,36.19,39.64,35.4,40.42z"/><path fill="#abb4be" d="M26,36v5c0,1.1-0.9,2-2,2s-2-0.9-2-2v-5c0-1.1,0.9-2,2-2S26,34.9,26,36z"/><linearGradient id="QoChgXz6AJMBhHi0lZ5s4a" x1="5.188" x2="42.809" y1="26" y2="26" gradientUnits="userSpaceOnUse"><stop offset="0" stop-color="#0d61a9"/><stop offset="1" stop-color="#16528c"/></linearGradient><path fill="url(#QoChgXz6AJMBhHi0lZ5s4a)" d="M5.188,14l4.667,13.787C11.923,33.895,17.608,38,24,38h0c6.392,0,12.077-4.105,14.145-10.213	l4.664-13.776L5.188,14z"/><linearGradient id="QoChgXz6AJMBhHi0lZ5s4b" x1="24" x2="24" y1="-493.164" y2="-476.706" gradientTransform="matrix(1 0 0 -1 0 -472)" gradientUnits="userSpaceOnUse"><stop offset="0" stop-color="#199ae0"/><stop offset="1" stop-color="#0782d8"/></linearGradient><ellipse cx="24" cy="13" fill="url(#QoChgXz6AJMBhHi0lZ5s4b)" rx="19" ry="8"/><ellipse cx="24" cy="12.5" fill="#50e6ff" rx="17" ry="6.5"/><path d="M24,20c1.105,0,2,0.895,2,2v5c0,1.105-0.895,2-2,2c-1.105,0-2-0.895-2-2v-5C22,20.895,22.895,20,24,20 M24,19 c-1.654,0-3,1.346-3,3v5c0,1.654,1.346,3,3,3s3-1.346,3-3v-5C27,20.346,25.654,19,24,19L24,19z" opacity=".05"/><path d="M24,20c1.105,0,2,0.895,2,2v5c0,1.105-0.895,2-2,2c-1.105,0-2-0.895-2-2v-5C22,20.895,22.895,20,24,20 M24,19.5 c-1.378,0-2.5,1.122-2.5,2.5v5c0,1.378,1.122,2.5,2.5,2.5c1.379,0,2.5-1.122,2.5-2.5v-5C26.5,20.622,25.379,19.5,24,19.5L24,19.5z" opacity=".07"/><path fill="#abb4be" d="M24,20L24,20c-1.105,0-2,0.895-2,2v5c0,1.105,0.895,2,2,2h0c1.105,0,2-0.895,2-2v-5 C26,20.895,25.105,20,24,20z"/><g><path d="M15.31,35.19c-0.06-0.04-0.12-0.09-0.18-0.14l-0.36,0.36l-0.36,0.36c1.1,0.83,2.31,1.53,3.6,2.04l0.76-0.76 C17.53,36.59,16.37,35.96,15.31,35.19z M33.23,35.41l-0.35-0.36c-1.11,0.83-2.35,1.51-3.66,2.01l0.38,0.37l0.38,0.39 c1.29-0.52,2.5-1.21,3.61-2.05L33.23,35.41z M22,37.86v1.02c0.66,0.08,1.33,0.12,2,0.12s1.34-0.04,2-0.12v-1.02 C25.34,37.95,24.68,38,24,38S22.66,37.95,22,37.86z" opacity=".05"/><path d="M15.31,35.19c-0.06-0.04-0.12-0.09-0.18-0.14l-0.36,0.36c1.11,0.83,2.32,1.52,3.62,2.02l0.38-0.38 C17.53,36.59,16.37,35.96,15.31,35.19z M32.88,35.05c-1.11,0.83-2.35,1.51-3.66,2.01l0.38,0.37c1.3-0.5,2.52-1.18,3.63-2.02 L32.88,35.05z M22,37.86v0.51c0.66,0.09,1.32,0.13,2,0.13s1.34-0.04,2-0.13v-0.51C25.34,37.95,24.68,38,24,38 S22.66,37.95,22,37.86z" opacity=".07"/></g></svg>