<svg xmlns="http://www.w3.org/2000/svg" viewBox="0 0 48 48"><path fill="#64717c" d="M41,25h-3c-0.553,0-1-0.448-1-1s0.447-1,1-1h3c0.553,0,1,0.448,1,1S41.553,25,41,25z"/><path fill="#64717c" d="M41,16h-3c-0.553,0-1-0.448-1-1s0.447-1,1-1h3c0.553,0,1,0.448,1,1S41.553,16,41,16z"/><path fill="#64717c" d="M41,34h-3c-0.553,0-1-0.448-1-1s0.447-1,1-1h3c0.553,0,1,0.448,1,1S41.553,34,41,34z"/><path fill="#abb4be" d="M41,43h-3c-0.553,0-1-0.448-1-1s0.447-1,1-1h2V7h-2c-0.553,0-1-0.448-1-1s0.447-1,1-1h3	c0.553,0,1,0.448,1,1v36C42,42.552,41.553,43,41,43z"/><linearGradient id="Ekmq2euFBYjCDTjhfeA4fa" x1="15.709" x2="34.976" y1="9.07" y2="32.518" gradientUnits="userSpaceOnUse"><stop offset="0" stop-color="#32bdef"/><stop offset="1" stop-color="#1ea2e4"/></linearGradient><path fill="url(#Ekmq2euFBYjCDTjhfeA4fa)" d="M21.969,6.805C21.969,6.803,22,6.638,22,6.5C22,5.672,21.328,5,20.5,5	c-0.287,0-0.565,0.108-0.565,0.108C18.293,5.749,14.341,9.269,10.915,14h12.758C22.177,12.045,21.305,9.844,21.969,6.805z"/><path fill="#007ad9" d="M33,29c0-7.742-6.111-10.797-9.328-15H10.915C7.731,18.396,5,23.838,5,29c0,7.732,6.268,14,14,14	C27.502,43,33,35.839,33,29z"/></svg>