<svg xmlns="http://www.w3.org/2000/svg" viewBox="0 0 48 48"><linearGradient id="Kw4YQoTdvsxEhYG_xJlYZa" x1="20.375" x2="28.748" y1="-95.061" y2="-124.946" gradientTransform="matrix(1 0 0 -1 0 -84)" gradientUnits="userSpaceOnUse"><stop offset="0" stop-color="#32bdef"/><stop offset="1" stop-color="#1ea2e4"/></linearGradient><path fill="url(#Kw4YQoTdvsxEhYG_xJlYZa)" d="M43.125,9H4.875C3.287,9,2,10.287,2,11.875v24.25C2,37.713,3.287,39,4.875,39h38.25	C44.713,39,46,37.713,46,36.125v-24.25C46,10.287,44.713,9,43.125,9z"/><linearGradient id="Kw4YQoTdvsxEhYG_xJlYZb" x1="-188.609" x2="-186.699" y1="-237.814" y2="-242.441" gradientTransform="matrix(0 -1 -1 0 -232.5 -163.5)" gradientUnits="userSpaceOnUse"><stop offset="0" stop-color="#5bc8ef"/><stop offset="1" stop-color="#42befc"/></linearGradient><path fill="url(#Kw4YQoTdvsxEhYG_xJlYZb)" d="M11,24L11,24c0,0.552-0.448,1-1,1H6c-0.552,0-1-0.448-1-1l0,0c0-0.552,0.448-1,1-1h4	C10.552,23,11,23.448,11,24z"/><linearGradient id="Kw4YQoTdvsxEhYG_xJlYZc" x1="-188.609" x2="-186.699" y1="-245.814" y2="-250.441" gradientTransform="matrix(0 -1 -1 0 -232.5 -163.5)" gradientUnits="userSpaceOnUse"><stop offset="0" stop-color="#5bc8ef"/><stop offset="1" stop-color="#42befc"/></linearGradient><path fill="url(#Kw4YQoTdvsxEhYG_xJlYZc)" d="M19,24L19,24c0,0.552-0.448,1-1,1h-4c-0.552,0-1-0.448-1-1l0,0c0-0.552,0.448-1,1-1h4	C18.552,23,19,23.448,19,24z"/><linearGradient id="Kw4YQoTdvsxEhYG_xJlYZd" x1="-188.609" x2="-186.699" y1="-253.814" y2="-258.441" gradientTransform="matrix(0 -1 -1 0 -232.5 -163.5)" gradientUnits="userSpaceOnUse"><stop offset="0" stop-color="#5bc8ef"/><stop offset="1" stop-color="#42befc"/></linearGradient><path fill="url(#Kw4YQoTdvsxEhYG_xJlYZd)" d="M27,24L27,24c0,0.552-0.448,1-1,1h-4c-0.552,0-1-0.448-1-1l0,0c0-0.552,0.448-1,1-1h4	C26.552,23,27,23.448,27,24z"/><linearGradient id="Kw4YQoTdvsxEhYG_xJlYZe" x1="-188.609" x2="-186.699" y1="-261.814" y2="-266.441" gradientTransform="matrix(0 -1 -1 0 -232.5 -163.5)" gradientUnits="userSpaceOnUse"><stop offset="0" stop-color="#5bc8ef"/><stop offset="1" stop-color="#42befc"/></linearGradient><path fill="url(#Kw4YQoTdvsxEhYG_xJlYZe)" d="M35,24L35,24c0,0.552-0.448,1-1,1h-4c-0.552,0-1-0.448-1-1l0,0c0-0.552,0.448-1,1-1h4	C34.552,23,35,23.448,35,24z"/><linearGradient id="Kw4YQoTdvsxEhYG_xJlYZf" x1="-188.609" x2="-186.699" y1="-269.814" y2="-274.441" gradientTransform="matrix(0 -1 -1 0 -232.5 -163.5)" gradientUnits="userSpaceOnUse"><stop offset="0" stop-color="#5bc8ef"/><stop offset="1" stop-color="#42befc"/></linearGradient><path fill="url(#Kw4YQoTdvsxEhYG_xJlYZf)" d="M43,24L43,24c0,0.552-0.448,1-1,1h-4c-0.552,0-1-0.448-1-1l0,0c0-0.552,0.448-1,1-1h4	C42.552,23,43,23.448,43,24z"/><path fill="#bbd2de" d="M36.013,20h5.974C42.546,20,43,19.546,43,18.987v-4.974C43,13.454,42.546,13,41.987,13h-5.974	C35.454,13,35,13.454,35,14.013v4.974C35,19.546,35.454,20,36.013,20z"/><path fill="#0078d4" d="M13.5,31h-8C5.224,31,5,30.776,5,30.5v-1C5,29.224,5.224,29,5.5,29h8c0.276,0,0.5,0.224,0.5,0.5v1	C14,30.776,13.776,31,13.5,31z"/><path fill="#0078d4" d="M24.5,31h-8c-0.276,0-0.5-0.224-0.5-0.5v-1c0-0.276,0.224-0.5,0.5-0.5h8c0.276,0,0.5,0.224,0.5,0.5v1	C25,30.776,24.776,31,24.5,31z"/><path fill="#0078d4" d="M19.5,35h-14C5.224,35,5,34.776,5,34.5v-1C5,33.224,5.224,33,5.5,33h14c0.276,0,0.5,0.224,0.5,0.5v1	C20,34.776,19.776,35,19.5,35z"/><path d="M46,30.474C43.992,28.341,41.153,27,38,27c-6.065,0-11,4.935-11,11	c0,0.338,0.021,0.67,0.051,1h16.074C44.713,39,46,37.713,46,36.125V30.474z" opacity=".05"/><path d="M46,31.216c-1.927-2.269-4.796-3.716-8-3.716c-5.79,0-10.5,4.71-10.5,10.5	c0,0.338,0.019,0.671,0.051,1h15.574C44.713,39,46,37.713,46,36.125V31.216z" opacity=".07"/><linearGradient id="Kw4YQoTdvsxEhYG_xJlYZg" x1="31.032" x2="44.361" y1="31.032" y2="44.361" gradientUnits="userSpaceOnUse"><stop offset="0" stop-color="#bd4ff4"/><stop offset=".587" stop-color="#a235ec"/><stop offset="1" stop-color="#8c20e5"/></linearGradient><circle cx="38" cy="38" r="10" fill="url(#Kw4YQoTdvsxEhYG_xJlYZg)"/><path d="M37.672,31c-1.109,0-2.122,0.232-3.009,0.691c-0.499,0.257-0.81,0.768-0.81,1.333v1.61	c0,0.68,0.553,1.233,1.231,1.233c0.254,0,0.499-0.078,0.708-0.227c0.364-0.259,0.938-0.567,1.602-0.567	c0.251,0,0.251,0.071,0.251,0.141c0,0.293-0.151,0.467-0.708,0.954c-0.7,0.61-1.659,1.446-1.659,3.139	c0,0.343,0.057,0.737,0.151,1.057c0.112,0.38,0.371,0.617,0.658,0.752c-0.489,0.368-0.833,0.931-0.833,1.684	c0,1.429,1.208,2.199,2.345,2.199c1.154,0,2.322-0.756,2.322-2.199c0-0.837-0.42-1.44-0.993-1.8	c0.096-0.071,0.184-0.151,0.255-0.247c0.229-0.312,0.288-0.716,0.163-1.112c0-0.001-0.01-0.036-0.01-0.105	c0-0.271,0.194-0.479,0.818-1.007c0.84-0.712,1.991-1.687,1.991-3.664C42.146,32.481,40.432,31,37.672,31z" opacity=".05"/><path d="M37.6,44.5c-0.895,0-1.845-0.596-1.845-1.699c0-1.095,0.95-1.686,1.845-1.686	c0.905,0,1.822,0.579,1.822,1.686C39.422,43.968,38.478,44.5,37.6,44.5z" opacity=".07"/><path fill="#fff" d="M37.599,41.615c-0.626,0-1.344,0.394-1.344,1.185c0,0.792,0.691,1.2,1.344,1.2	c0.654,0,1.322-0.366,1.322-1.2C38.921,41.967,38.226,41.615,37.599,41.615z"/><path d="M36.629,40.754c-0.28,0-0.611-0.164-0.72-0.531c-0.082-0.276-0.131-0.619-0.131-0.915	c0-1.463,0.824-2.184,1.487-2.762c0.562-0.491,0.88-0.795,0.88-1.331c0-0.578-0.525-0.641-0.751-0.641	c-0.797,0-1.469,0.359-1.892,0.66c-0.124,0.088-0.269,0.134-0.418,0.134c-0.403,0-0.731-0.329-0.731-0.733v-1.61	c0-0.378,0.206-0.718,0.538-0.889c0.816-0.422,1.753-0.636,2.78-0.636c2.489,0,3.975,1.258,3.975,3.365	c0,1.744-1.006,2.598-1.814,3.282c-0.636,0.539-0.995,0.87-0.995,1.389c0,0.132,0.021,0.218,0.033,0.257	c0.104,0.329-0.012,0.559-0.09,0.665c-0.161,0.221-0.427,0.299-0.622,0.299L36.629,40.754z" opacity=".07"/><path fill="#fff" d="M37.672,32c-1.218,0-2.064,0.328-2.552,0.58c-0.167,0.086-0.267,0.256-0.267,0.444v1.61	c0,0.186,0.209,0.3,0.36,0.192c0.487-0.346,1.256-0.752,2.181-0.752c0.19,0,1.251,0.066,1.251,1.14c0,1.705-2.367,1.794-2.367,4.093	c0,0.289,0.054,0.583,0.111,0.774c0.052,0.175,0.237,0.172,0.241,0.172c0.001,0,1.528,0.003,1.528,0.003	c0,0,0.334,0.001,0.235-0.314c-0.036-0.113-0.056-0.251-0.056-0.406c0-1.746,2.81-1.948,2.81-4.671	C41.147,34.359,41.104,32,37.672,32z"/></svg>