<svg xmlns="http://www.w3.org/2000/svg" viewBox="0 0 48 48"><linearGradient id="JRPQ_irnpyzleIvPtedr0a" x1="28" x2="31" y1="18.053" y2="18.053" gradientUnits="userSpaceOnUse"><stop offset="0" stop-color="#a34f27"/><stop offset=".587" stop-color="#8b3817"/><stop offset="1" stop-color="#802d10"/></linearGradient><line x1="29" x2="30" y1="15.053" y2="21.053" fill="none" stroke="url(#JRPQ_irnpyzleIvPtedr0a)" stroke-linecap="round" stroke-linejoin="round" stroke-miterlimit="10" stroke-width="2"/><linearGradient id="JRPQ_irnpyzleIvPtedr0b" x1="36.863" x2="24.594" y1="21.217" y2="39.217" gradientUnits="userSpaceOnUse"><stop offset="0" stop-color="#f09801"/><stop offset="1" stop-color="#e36001"/></linearGradient><circle cx="30.5" cy="30.553" r="11.5" fill="url(#JRPQ_irnpyzleIvPtedr0b)"/><linearGradient id="JRPQ_irnpyzleIvPtedr0c" x1="13.412" x2="19.681" y1="10.739" y2="36.963" gradientUnits="userSpaceOnUse"><stop offset="0" stop-color="#ffda1c"/><stop offset="1" stop-color="#feb705"/></linearGradient><polygon fill="url(#JRPQ_irnpyzleIvPtedr0c)" points="7.745,38.053 24.255,38.053 25.684,11.053 6.316,11.053"/><linearGradient id="JRPQ_irnpyzleIvPtedr0d" x1="13.671" x2="20.363" y1="7.823" y2="40.207" gradientUnits="userSpaceOnUse"><stop offset="0" stop-color="#32bdef"/><stop offset="1" stop-color="#1ea2e4"/></linearGradient><path fill="url(#JRPQ_irnpyzleIvPtedr0d)" d="M24.361,36.053l-0.217,4.105c-0.056,1.062-0.939,1.895-2.008,1.895H9.864 c-1.07,0-1.952-0.833-2.008-1.895l-0.217-4.105H24.361z M25.578,13.053l0.421-6C26.029,6.48,25.571,6,24.995,6H7.005 C6.429,6,5.971,6.48,6.001,7.053l0.421,6H25.578z"/><circle cx="35" cy="31.053" r="1" fill="#e36001"/><circle cx="39" cy="31.053" r="1" fill="#e36001"/><circle cx="37" cy="34.053" r="1" fill="#e36001"/><linearGradient id="JRPQ_irnpyzleIvPtedr0e" x1="39.157" x2="34.673" y1="15.406" y2="20.929" gradientTransform="rotate(-12.916 30.003 21.999)" gradientUnits="userSpaceOnUse"><stop offset="0" stop-color="#21ad64"/><stop offset="1" stop-color="#088242"/></linearGradient><path fill="url(#JRPQ_irnpyzleIvPtedr0e)" d="M42,14.053c0,0-1.183,3.457-4.356,5.251c-3.173,1.794-7.644-0.2-7.644-0.2 s0.911-3.541,4.084-5.336S42,14.053,42,14.053z"/></svg>