<svg xmlns="http://www.w3.org/2000/svg" viewBox="0 0 48 48"><linearGradient id="mnOOysJIknkMeOEjPoqtya" x1="8.973" x2="21.027" y1="5.719" y2="24.281" gradientUnits="userSpaceOnUse"><stop offset="0" stop-color="#50e6ff"/><stop offset=".338" stop-color="#4adefc"/><stop offset=".864" stop-color="#3ac8f4"/><stop offset="1" stop-color="#35c1f1"/></linearGradient><rect width="16" height="16" x="7" y="7" fill="url(#mnOOysJIknkMeOEjPoqtya)"/><linearGradient id="mnOOysJIknkMeOEjPoqtyb" x1="26.973" x2="39.027" y1="5.719" y2="24.281" gradientUnits="userSpaceOnUse"><stop offset="0" stop-color="#50e6ff"/><stop offset=".338" stop-color="#4adefc"/><stop offset=".864" stop-color="#3ac8f4"/><stop offset="1" stop-color="#35c1f1"/></linearGradient><rect width="16" height="16" x="25" y="7" fill="url(#mnOOysJIknkMeOEjPoqtyb)"/><linearGradient id="mnOOysJIknkMeOEjPoqtyc" x1="8.973" x2="21.027" y1="23.719" y2="42.281" gradientUnits="userSpaceOnUse"><stop offset="0" stop-color="#50e6ff"/><stop offset=".338" stop-color="#4adefc"/><stop offset=".864" stop-color="#3ac8f4"/><stop offset="1" stop-color="#35c1f1"/></linearGradient><rect width="16" height="16" x="7" y="25" fill="url(#mnOOysJIknkMeOEjPoqtyc)"/><linearGradient id="mnOOysJIknkMeOEjPoqtyd" x1="26.973" x2="39.027" y1="23.719" y2="42.281" gradientUnits="userSpaceOnUse"><stop offset="0" stop-color="#50e6ff"/><stop offset=".338" stop-color="#4adefc"/><stop offset=".864" stop-color="#3ac8f4"/><stop offset="1" stop-color="#35c1f1"/></linearGradient><rect width="16" height="16" x="25" y="25" fill="url(#mnOOysJIknkMeOEjPoqtyd)"/><path fill="#199ae0" d="M40,8v32H8V8H40 M40,6H8C6.895,6,6,6.895,6,8v32c0,1.105,0.895,2,2,2h32c1.105,0,2-0.895,2-2V8	C42,6.895,41.105,6,40,6L40,6z"/><polygon fill="#199ae0" points="41,22 7,22 7,26 41,26 41,22"/><rect width="34" height="4" x="7" y="22" fill="#199be2" transform="rotate(90 24 24)"/></svg>