<svg xmlns="http://www.w3.org/2000/svg" viewBox="0 0 48 48"><path fill="#1b9de2" d="M40,43H8c-0.552,0-1-0.448-1-1v-3h34v3C41,42.552,40.552,43,40,43z"/><path fill="#0078d4" d="M41,39H7V7c0-1.105,0.895-2,2-2h30c1.105,0,2,0.895,2,2V39z"/><circle cx="31" cy="11" r="2" fill="#184f85"/><circle cx="17" cy="11" r="2" fill="#184f85"/><path d="M24,24c-4.962,0-9-4.038-9-9v-4c0-1.104,0.896-2,2-2s2,0.896,2,2v4c0,2.757,2.243,5,5,5s5-2.243,5-5	v-4c0-1.104,0.896-2,2-2s2,0.896,2,2v4C33,19.962,28.962,24,24,24z" opacity=".05"/><path d="M24,23c-4.687,0-8.5-3.813-8.5-8.5V11c0-0.828,0.672-1.5,1.5-1.5s1.5,0.672,1.5,1.5v3.5	c0,3.033,2.467,5.5,5.5,5.5s5.5-2.467,5.5-5.5V11c0-0.828,0.672-1.5,1.5-1.5s1.5,0.672,1.5,1.5v3.5C32.5,19.187,28.687,23,24,23z" opacity=".1"/><path fill="none" stroke="#fff" stroke-linecap="round" stroke-linejoin="round" stroke-miterlimit="10" stroke-width="2" d="M17,11	v3c0,3.866,3.134,7,7,7s7-3.134,7-7v-3"/></svg>