<svg xmlns="http://www.w3.org/2000/svg" viewBox="0 0 48 48"><linearGradient id="eK7jIg6n4iQOfxxlpadmna" x1="11.27" x2="36.73" y1="2493.259" y2="2518.72" gradientTransform="translate(0 -2484)" gradientUnits="userSpaceOnUse"><stop offset="0" stop-color="#d43a02"/><stop offset="1" stop-color="#b9360c"/></linearGradient><path fill="url(#eK7jIg6n4iQOfxxlpadmna)" d="M36.902,34.536c6.932-7.126,6.775-18.521-0.351-25.453S18.03,2.308,11.098,9.433	c-6.797,6.987-6.797,18.116,0,25.103c0.018,0.019,0.03,0.04,0.048,0.059l0.059,0.059c0.047,0.048,0.094,0.095,0.142,0.142	l11.239,11.239c0.781,0.781,2.047,0.781,2.828,0c0,0,0,0,0,0l11.239-11.239c0.048-0.047,0.095-0.094,0.142-0.142l0.059-0.059	C36.873,34.576,36.885,34.554,36.902,34.536z"/><path d="M23.558,29.648c0,1.337,1.616,2.006,2.561,1.061l7.295-7.295	c0.781-0.781,0.781-2.047,0-2.828l-7.295-7.295c-0.945-0.945-2.561-0.275-2.561,1.061V18h-8c-1.105,0-2,0.895-2,2l0,4	c0,1.105,0.895,2,2,2h8V29.648z" opacity=".05"/><path d="M24.058,29.518c0,0.939,1.135,1.408,1.798,0.745l7.13-7.129	c0.627-0.627,0.627-1.644,0-2.271l-7.13-7.129c-0.664-0.663-1.798-0.193-1.798,0.745V18.5h-8.5c-0.828,0-1.5,0.672-1.5,1.5l0,4	c0,0.828,0.672,1.5,1.5,1.5h8.5V29.518z" opacity=".07"/><path fill="#fff" d="M25.592,29.821l6.964-6.964c0.473-0.473,0.473-1.241,0-1.714l-6.964-6.964	c-0.381-0.382-1.034-0.112-1.034,0.428V19h-9c-0.552,0-1,0.448-1,1l0,4c0,0.552,0.448,1,1,1h9v4.393	C24.558,29.933,25.211,30.203,25.592,29.821z"/></svg>