<svg xmlns="http://www.w3.org/2000/svg" viewBox="0 0 48 48"><path fill="#1a9ba1" d="M10.16,11.2h6.971c0.552,0,1,0.448,1,1v15.246c0,3.346,1.8,5.246,4.891,5.246	c2.99,0,5.043-2.154,5.043-5.322V12.2c0-0.552,0.448-1,1-1h6.971c0.552,0,1,0.448,1,1v17.781c0,2.331,0.748,3.067,1.972,3.067	c0.162,0,0.489-0.037,0.822-0.081c0.533-0.071,1.007,0.341,1.007,0.879l0,4.514c0,0.475-0.33,0.887-0.795,0.982	c-1.019,0.206-2.238,0.346-3.209,0.346c-4.182,0-6.437-1.419-7.426-4.942l-0.126-0.381H28.8c-0.862,3.75-3.142,5.702-6.691,5.702	c-1.672,0-2.965-0.507-3.498-1.47H18.13V47c0,0.552-0.448,1-1,1h-6.97c-0.552,0-1-0.448-1-1V12.2C9.16,11.648,9.608,11.2,10.16,11.2	z"/></svg>