<svg xmlns="http://www.w3.org/2000/svg" viewBox="0 0 48 48"><path fill="#64717c" d="M8,8v30c0,1.105,0.895,2,2,2h30V10c0-1.105-0.895-2-2-2H8z M38,38H10V10h28V38z"/><linearGradient id="7X6IY2hb9oOaBXo_Vh_m_a" x1="5" x2="25" y1="25" y2="25" gradientUnits="userSpaceOnUse"><stop offset="0" stop-color="#0d61a9"/><stop offset="1" stop-color="#16528c"/></linearGradient><rect width="20" height="10" x="5" y="20" fill="url(#7X6IY2hb9oOaBXo_Vh_m_a)"/><path fill="#0078d4" d="M5,7v13h20V7c0-1.105-0.895-2-2-2H7C5.895,5,5,5.895,5,7z"/><rect width="2" height="2" x="12" y="8" fill="#005094"/><rect width="2" height="2" x="8" y="8" fill="#005094"/><rect width="2" height="2" x="12" y="16" fill="#005094"/><rect width="2" height="2" x="8" y="16" fill="#005094"/><rect width="2" height="2" x="12" y="12" fill="#005094"/><rect width="2" height="2" x="16" y="8" fill="#005094"/><rect width="2" height="2" x="16" y="16" fill="#005094"/><rect width="2" height="2" x="20" y="16" fill="#005094"/><rect width="2" height="2" x="16" y="12" fill="#005094"/><rect width="2" height="2" x="20" y="8" fill="#005094"/><rect width="2" height="2" x="20" y="12" fill="#005094"/><rect width="2" height="2" x="8" y="12" fill="#005094"/><g><rect width="2" height="2" x="16" y="22" fill="#004885"/><rect width="2" height="2" x="12" y="22" fill="#004885"/><rect width="2" height="2" x="8" y="22" fill="#004885"/><rect width="2" height="2" x="16" y="26" fill="#004885"/><rect width="2" height="2" x="20" y="22" fill="#004885"/><rect width="2" height="2" x="20" y="26" fill="#004885"/><rect width="2" height="2" x="12" y="26" fill="#004885"/><rect width="2" height="2" x="8" y="26" fill="#004885"/></g><rect width="20" height="10" x="23" y="33" fill="#0078d4"/><path fill="#199be2" d="M23,20v13h20V20c0-1.105-0.895-2-2-2H25C23.895,18,23,18.895,23,20z"/><g><rect width="2" height="2" x="34" y="21" fill="#0d62ab"/><rect width="2" height="2" x="30" y="21" fill="#0d62ab"/><rect width="2" height="2" x="26" y="21" fill="#0d62ab"/><rect width="2" height="2" x="38" y="21" fill="#0d62ab"/><rect width="2" height="2" x="34" y="29" fill="#0d62ab"/><rect width="2" height="2" x="30" y="29" fill="#0d62ab"/><rect width="2" height="2" x="26" y="29" fill="#0d62ab"/><rect width="2" height="2" x="34" y="25" fill="#0d62ab"/><rect width="2" height="2" x="30" y="25" fill="#0d62ab"/><rect width="2" height="2" x="38" y="29" fill="#0d62ab"/><rect width="2" height="2" x="38" y="25" fill="#0d62ab"/><rect width="2" height="2" x="26" y="25" fill="#0d62ab"/></g><g><rect width="2" height="2" x="34" y="35" fill="#005094"/><rect width="2" height="2" x="30" y="35" fill="#005094"/><rect width="2" height="2" x="26" y="35" fill="#005094"/><rect width="2" height="2" x="38" y="35" fill="#005094"/><rect width="2" height="2" x="34" y="39" fill="#005094"/><rect width="2" height="2" x="30" y="39" fill="#005094"/><rect width="2" height="2" x="38" y="39" fill="#005094"/><rect width="2" height="2" x="26" y="39" fill="#005094"/></g></svg>