<svg xmlns="http://www.w3.org/2000/svg" viewBox="0 0 48 48"><path fill="#50e6ff" d="M40,6H8C6.895,6,6,6.895,6,8v32c0,1.105,0.895,2,2,2h32c1.105,0,2-0.895,2-2V8	C42,6.895,41.105,6,40,6z"/><path fill="#057093" d="M15.176,28.059c0-5.118,3.212-8.529,10.035-15.353l5.118,5.118	C23.506,24.647,16.882,29.765,23.706,40C23.706,40,15.176,34.882,15.176,28.059z"/><path fill="#057093" d="M32,13v11.069c0,0.713-0.862,1.07-1.366,0.566L18.366,12.366C17.862,11.862,18.219,11,18.931,11H30	C31.105,11,32,11.895,32,13z"/></svg>