<svg xmlns="http://www.w3.org/2000/svg" id="Layer_1" x="0" y="0" version="1.1" viewBox="0 0 48 48" xml:space="preserve"><linearGradient id="SVGID_1_" x1="26" x2="26" y1="31.851" y2="38.298" gradientUnits="userSpaceOnUse"><stop offset="0" stop-color="#ffda1c"/><stop offset="1" stop-color="#feb705"/></linearGradient><path fill="url(#SVGID_1_)" d="M22,27v11c0,2.2,1.8,4,4,4s4-1.8,4-4V27H22z"/><path fill="#ccc" d="M30,22.5c0-0.3-0.2-0.6-0.4-0.8L27,20v-5c0-4-3.3-5-5-5H8v2h14c0.5,0,3,0.2,3,3v5l-2.6,1.7	c-0.3,0.2-0.4,0.5-0.4,0.8v2h8V22.5z"/><rect width="8" height="6" x="22" y="27" opacity=".05"/><rect width="8" height="5.5" x="22" y="27" opacity=".07"/><linearGradient id="SVGID_2_" x1="26" x2="26" y1="23.872" y2="32.179" gradientUnits="userSpaceOnUse"><stop offset="0" stop-color="#899198"/><stop offset="1" stop-color="#787e85"/></linearGradient><path fill="url(#SVGID_2_)" d="M29.8,24h-7.5c-0.2,0-0.3,0-0.4,0.1l-11.2,5.6c-0.3,0.2-0.6,0.5-0.6,0.9V31c0,0.6,0.4,1,1,1h30c0.6,0,1-0.4,1-1	v-0.4c0-0.4-0.2-0.7-0.6-0.9l-11.2-5.6C30.1,24,29.9,24,29.8,24z"/><linearGradient id="SVGID_3_" x1="5.447" x2="10.054" y1="11" y2="11" gradientUnits="userSpaceOnUse"><stop offset="0" stop-color="#899198"/><stop offset="1" stop-color="#787e85"/></linearGradient><path fill="url(#SVGID_3_)" d="M7,6h2c0.6,0,1,0.4,1,1v8c0,0.6-0.4,1-1,1H7c-0.6,0-1-0.4-1-1V7C6,6.4,6.4,6,7,6z"/></svg>