<svg xmlns="http://www.w3.org/2000/svg" data-name="Слой 1" viewBox="0 0 48 48"><defs><linearGradient id="idN8SkzH1RD9LBNoc_59xa" x1="15.478" x2="34.518" y1=".586" y2="52.898" gradientUnits="userSpaceOnUse"><stop offset=".002" stop-color="#427fdb"/><stop offset=".397" stop-color="#2668cb"/><stop offset=".763" stop-color="#1358bf"/><stop offset="1" stop-color="#0c52bb"/></linearGradient></defs><circle cx="24" cy="24" r="20" fill="url(#idN8SkzH1RD9LBNoc_59xa)"/><rect width="3.75" height="5" x="33.25" y="19" fill="#fff" rx="1"/><rect width="3.75" height="5" x="11" y="19" fill="#fff" rx="1"/><path fill="#fff" d="M33,11H15a2,2,0,0,0-2,2V28a11,11,0,0,0,22,0V13A2,2,0,0,0,33,11ZM32,25a1,1,0,0,1-1,1H17a1,1,0,0,1-1-1V18a1,1,0,0,1,1-1H31a1,1,0,0,1,1,1Z"/></svg>