<svg xmlns="http://www.w3.org/2000/svg" id="Layer_1" x="0" y="0" version="1.1" viewBox="0 0 48 48" xml:space="preserve"><linearGradient id="SVGID_1_" x1="21.516" x2="45.592" y1="1049.638" y2="1085.673" gradientTransform="translate(0 -1032)" gradientUnits="userSpaceOnUse"><stop offset="0" stop-color="#28afea"/><stop offset="1" stop-color="#0b88da"/></linearGradient><path fill="url(#SVGID_1_)" d="M9,26l36-14.3V38c0,1.1-0.9,2-2,2H9V26z"/><linearGradient id="SVGID_2_" x1="1.408" x2="36.331" y1="1056.41" y2="1078.164" gradientTransform="translate(0 -1032)" gradientUnits="userSpaceOnUse"><stop offset="0" stop-color="#28afea"/><stop offset="1" stop-color="#0b88da"/></linearGradient><path fill="url(#SVGID_2_)" d="M3,11.7V38c0,1.1,0.9,2,2,2h38c0.5,0,0.9-0.2,1.3-0.5L3,11.7z"/><path d="M3,11h42v1.7L27.7,26.1c-2.2,1.7-5.2,1.7-7.4,0L3,12.7V11z" opacity=".05"/><path d="M3,10.5h42v1.7L27,25.3c-1.8,1.3-4.2,1.3-5.9,0L3,12.2V10.5z" opacity=".07"/><path fill="#50e6ff" d="M5,8h38c1.1,0,2,0.9,2,2v1.7L26.3,24.5c-1.4,0.9-3.1,0.9-4.5,0L3,11.7V10C3,8.9,3.9,8,5,8z"/><path d="M42.3,28.4c-1-0.7-2-1.4-3.8-1.4s-2.8,0.7-3.8,1.4c-1.2,0.8-2.4,1.6-5.2,1.6c-0.8,0-1.5,0.7-1.5,1.5V36	c0,0.7,0.1,1.5,0.3,2.2c0.1,0.6,0.4,1.2,0.6,1.8H43c0.1,0,0.3,0,0.4,0c0.1,0,0.2,0,0.2-0.1c0,0,0.1,0,0.1,0c0.1,0,0.2-0.1,0.3-0.1	c0,0,0,0,0,0c0.6-0.3,1-1,1-1.7v-8.3C43.8,29.4,43.1,28.9,42.3,28.4z" opacity=".05"/><path d="M45,30.2c-1.3-0.3-2.2-0.9-3-1.4c-1-0.7-1.9-1.3-3.5-1.3s-2.6,0.6-3.5,1.3c-1.2,0.8-2.5,1.7-5.5,1.7	c-0.6,0-1,0.4-1,1V36c0,0.7,0.1,1.4,0.3,2.1c0.2,0.7,0.4,1.3,0.7,1.9H43c0.1,0,0.3,0,0.4,0c0.1,0,0.2,0,0.2-0.1c0,0,0.1,0,0.1,0	c0.1,0,0.2-0.1,0.3-0.1c0,0,0,0,0,0c0.6-0.3,1-1,1-1.7V30.2z" opacity=".07"/><linearGradient id="SVGID_3_" x1="34.791" x2="44.63" y1="1057.973" y2="1076.071" gradientTransform="translate(0 -1030)" gradientUnits="userSpaceOnUse"><stop offset="0" stop-color="#21ad64"/><stop offset="1" stop-color="#088242"/></linearGradient><path fill="url(#SVGID_3_)" d="M47.5,31c-5.6,0-5.6-3-9-3s-3.4,3-9,3c-0.3,0-0.5,0.2-0.5,0.5c0,0,0,2.9,0,4.5c0,0.7,0.1,1.4,0.2,2	c1.5,6,9,10,9,10s0.1,0,0.2,0c0.1,0,0.2,0,0.2,0s7.6-4,9-10c0.2-0.6,0.2-1.3,0.2-2c0-1.6,0-4.5,0-4.5C48,31.2,47.8,31,47.5,31z"/></svg>