<svg xmlns="http://www.w3.org/2000/svg" viewBox="0 0 48 48"><linearGradient id="OWc6FAgtobmLrczJOB653a" x1="24" x2="24" y1="8.979" y2="6.308" gradientUnits="userSpaceOnUse"><stop offset="0" stop-color="#b33f20"/><stop offset=".129" stop-color="#c74724"/><stop offset=".295" stop-color="#d94f29"/><stop offset=".469" stop-color="#e4532b"/><stop offset=".659" stop-color="#e8552c"/></linearGradient><path fill="url(#OWc6FAgtobmLrczJOB653a)" d="M28.5,6h-9C18.672,6,18,6.672,18,7.5V9h12V7.5C30,6.672,29.328,6,28.5,6z"/><radialGradient id="OWc6FAgtobmLrczJOB653b" cx="23.832" cy="5.992" r="45.74" gradientTransform="matrix(1 0 0 .8044 0 1.172)" gradientUnits="userSpaceOnUse"><stop offset="0" stop-color="#40150b"/><stop offset=".156" stop-color="#622110"/><stop offset=".417" stop-color="#953218"/><stop offset=".645" stop-color="#ba3f1e"/><stop offset=".828" stop-color="#d14722"/><stop offset=".944" stop-color="#d94a23"/></radialGradient><path fill="url(#OWc6FAgtobmLrczJOB653b)" d="M42,41H6c-1.1,0-2-0.9-2-2V13c0-2.2,1.8-4,4-4h32c2.2,0,4,1.8,4,4v26C44,40.1,43.1,41,42,41z"/><linearGradient id="OWc6FAgtobmLrczJOB653c" x1="24" x2="24" y1="9.028" y2="26.927" gradientUnits="userSpaceOnUse"><stop offset="0" stop-color="#fc7d5b"/><stop offset=".06" stop-color="#f8734f"/><stop offset=".18" stop-color="#f3653d"/><stop offset=".326" stop-color="#f05b31"/><stop offset=".523" stop-color="#ee552a"/><stop offset="1" stop-color="#ed5328"/></linearGradient><path fill="url(#OWc6FAgtobmLrczJOB653c)" d="M42.297,25.255L24,28L5.703,25.255C4.724,25.109,4,24.268,4,23.278V13c0-2.2,1.8-4,4-4h32	c2.2,0,4,1.8,4,4v10.278C44,24.268,43.276,25.109,42.297,25.255z"/><path d="M24,25c-4.418,0-8,3.582-8,8v1c0,1.105,0.895,2,2,2h12	c1.105,0,2-0.895,2-2v-1C32,28.582,28.418,25,24,25z" opacity=".05"/><path d="M24,25.5c-4.142,0-7.5,3.358-7.5,7.5v0.8c0,0.939,0.761,1.7,1.7,1.7h11.6	c0.939,0,1.7-0.761,1.7-1.7V33C31.5,28.858,28.142,25.5,24,25.5z" opacity=".07"/><radialGradient id="OWc6FAgtobmLrczJOB653d" cx="24" cy="-582" r="5" gradientTransform="matrix(1 0 0 -1 0 -562)" gradientUnits="userSpaceOnUse"><stop offset="0"/><stop offset="1" stop-opacity="0"/></radialGradient><circle cx="24" cy="20" r="5" fill="url(#OWc6FAgtobmLrczJOB653d)"/><path fill="#fff" d="M20,20c0-2.209,1.791-4,4-4s4,1.791,4,4s-1.791,4-4,4S20,22.209,20,20z M24,26c-3.866,0-7,3.134-7,7	v0.6c0,0.773,0.627,1.4,1.4,1.4h11.2c0.773,0,1.4-0.627,1.4-1.4V33C31,29.134,27.866,26,24,26z"/></svg>