<svg xmlns="http://www.w3.org/2000/svg" viewBox="0 0 48 48"><linearGradient id="mHH47kvRiQ6jI1alFbcHBa" x1="13.341" x2="33.72" y1="22.971" y2="40.166" gradientUnits="userSpaceOnUse"><stop offset="0" stop-color="#a1aab3"/><stop offset="1" stop-color="#8f979e"/></linearGradient><path fill="url(#mHH47kvRiQ6jI1alFbcHBa)" d="M41,35H7c-1.105,0-2-0.895-2-2v-3h38v3C43,34.105,42.105,35,41,35z"/><linearGradient id="mHH47kvRiQ6jI1alFbcHBb" x1="24" x2="24" y1="34.989" y2="40.01" gradientUnits="userSpaceOnUse"><stop offset="0" stop-color="#484b4f"/><stop offset=".037" stop-color="#4a4e52"/><stop offset=".388" stop-color="#5c6369"/><stop offset=".717" stop-color="#667077"/><stop offset="1" stop-color="#6a747c"/></linearGradient><polygon fill="url(#mHH47kvRiQ6jI1alFbcHBb)" points="29,40 19,40 20,35 28,35"/><linearGradient id="mHH47kvRiQ6jI1alFbcHBc" x1="24" x2="24" y1="39.996" y2="42.004" gradientUnits="userSpaceOnUse"><stop offset="0" stop-color="#a1aab3"/><stop offset="1" stop-color="#8f979e"/></linearGradient><path fill="url(#mHH47kvRiQ6jI1alFbcHBc)" d="M32.5,40h-17c-0.276,0-0.5,0.224-0.5,0.5v1c0,0.276,0.224,0.5,0.5,0.5h17	c0.276,0,0.5-0.224,0.5-0.5v-1C33,40.224,32.776,40,32.5,40z"/><circle cx="24" cy="33" r="1" fill="#64717c"/><radialGradient id="mHH47kvRiQ6jI1alFbcHBd" cx="42.958" cy="31.192" r="34.553" gradientUnits="userSpaceOnUse"><stop offset="0" stop-color="#9e6fd9"/><stop offset=".173" stop-color="#aa73c7"/><stop offset=".522" stop-color="#ca7f97"/><stop offset="1" stop-color="#fc914d"/></radialGradient><path fill="url(#mHH47kvRiQ6jI1alFbcHBd)" d="M41,7H7C5.895,7,5,7.895,5,9v22h38V9C43,7.895,42.105,7,41,7z"/><path d="M28.875,21.155c-0.128-0.267-0.368-0.462-0.655-0.535c-0.349-0.088-0.535-0.467-0.539-0.795	c-0.004-0.369,0.185-0.609,0.561-0.714c0.299-0.083,0.543-0.301,0.659-0.589c0.117-0.287,0.093-0.613-0.064-0.881	c-0.388-0.66-1.238-1.261-2.066-1.519c0.173-0.427,0.229-0.875,0.154-1.307c-0.087-0.501-0.55-0.855-1.043-0.828	c-0.758,0.044-1.596,0.435-2.135,0.996c-0.319,0.333-0.546,0.718-0.667,1.114c-0.196-0.047-0.411-0.078-0.646-0.078	c-1.416,0.001-3.409,1.235-3.409,3.974c0,2.292,2.001,5.006,3.682,5.006c0.008,0,0.016,0,0.023,0c0.482,0,0.806-0.146,1.043-0.253	c0.183-0.083,0.267-0.121,0.484-0.122c0.188,0.006,0.31,0.04,0.499,0.123C25,24.855,25.358,24.975,25.823,25	c1.242-0.009,2.02-1.196,2.393-1.766c0.312-0.475,0.446-0.735,0.671-1.234C29.008,21.73,29.003,21.421,28.875,21.155z" opacity=".05"/><path d="M28.425,21.372c-0.064-0.133-0.184-0.23-0.328-0.267c-0.621-0.157-0.91-0.771-0.916-1.274	c-0.003-0.283,0.081-0.967,0.927-1.202c0.149-0.041,0.271-0.15,0.33-0.294s0.046-0.307-0.032-0.44	c-0.42-0.717-1.589-1.396-2.416-1.405c0.373-0.492,0.534-1.061,0.443-1.588c-0.043-0.251-0.268-0.439-0.522-0.414	c-0.629,0.036-1.354,0.375-1.803,0.843c-0.403,0.421-0.626,0.934-0.631,1.423c-0.301-0.118-0.64-0.232-1.042-0.232	c-1.208,0.001-2.91,1.08-2.91,3.474c0,2.133,1.902,4.506,3.187,4.506c0.006,0,0.012,0,0.018,0c0.375,0,0.631-0.115,0.838-0.209	c0.203-0.092,0.364-0.164,0.686-0.166c0.335,0.016,0.492,0.072,0.705,0.166c0.211,0.093,0.473,0.209,0.846,0.209	c0.005,0,0.01,0,0.015,0c0.974-0.007,1.628-1.005,1.979-1.54c0.295-0.449,0.417-0.686,0.633-1.165	C28.491,21.66,28.489,21.506,28.425,21.372z" opacity=".07"/><path fill="#fff" d="M25.941,14.987c-0.52,0.03-1.116,0.32-1.471,0.689c-0.32,0.335-0.573,0.833-0.47,1.315	c0.565,0.015,1.132-0.282,1.471-0.657C25.788,15.982,26.028,15.491,25.941,14.987z M25.972,16.989c-0.815,0-1.156,0.501-1.721,0.501	c-0.581,0-1.112-0.47-1.815-0.47c-0.956,0-2.41,0.886-2.41,2.973c0,1.899,1.72,4.006,2.691,4.006	c0.59,0.006,0.733-0.371,1.534-0.375c0.801-0.006,0.974,0.38,1.565,0.375c0.665-0.005,1.185-0.735,1.565-1.315	c0.272-0.415,0.384-0.627,0.594-1.096c-1.565-0.397-1.877-2.921,0-3.443C27.62,17.543,26.587,16.989,25.972,16.989z"/></svg>