<svg xmlns="http://www.w3.org/2000/svg" viewBox="0 0 48 48"><path fill="#35c1f1" d="M25.527,41.753l6.438-6.438C30.458,32.454,27.459,29.5,24,29.5s-6.458,2.954-7.964,5.815 l6.438,6.438C23.316,42.596,24.684,42.596,25.527,41.753z"/><path fill="#199be2" d="M24,21.5c-5.66,0-10.659,3.777-13.749,8.03l5.785,5.785C17.542,32.454,20.541,30.5,24,30.5 s6.458,1.954,7.964,4.815l5.785-5.785C34.659,25.277,29.66,21.5,24,21.5z"/><path fill="#0078d4" d="M24,22.5c5.66,0,10.659,2.777,13.749,7.03l5.714-5.714C38.88,18.136,31.866,14.5,24,14.5 S9.12,18.136,4.537,23.816l5.714,5.714C13.341,25.277,18.34,22.5,24,22.5z"/></svg>