<svg xmlns="http://www.w3.org/2000/svg" viewBox="0 0 48 48"><linearGradient id="cYDnmSDMdUyrtnjE4Ypbta" x1="22.775" x2="24.813" y1="427.088" y2="452.869" gradientTransform="matrix(1 0 0 -1 0 456)" gradientUnits="userSpaceOnUse"><stop offset="0" stop-color="#2f87e4"/><stop offset=".312" stop-color="#5fb4ef"/><stop offset=".591" stop-color="#82d5f6"/><stop offset=".819" stop-color="#97eafb"/><stop offset=".967" stop-color="#9ff1fd"/></linearGradient><path fill="url(#cYDnmSDMdUyrtnjE4Ypbta)" d="M42.26,15.831c0.242,0.541,0.378,0.835,0.561,1.385c-4.21-0.597-10.108,1.614-12.515,4.59	c2.491-3.979,2.403-8.838-0.979-11.322c-3.74-2.758-9.958-2.33-14.098,2.638c-3.509,4.21-4.449,11.278-0.702,14.035	c3.656,2.688,9.418,2.238,15.018-4.407c0.028-0.028,0.049-0.056,0.077-0.084c-4.274,6.393-11.018,8.316-16.498,6.597	c-3.958-1.242-6.119-4.33-7.018-5.614c-0.653-0.934-1.27-2.021-1.782-3.193C5.986,11.102,14.162,4,24,4	C32.134,4,39.137,8.856,42.26,15.831z"/><linearGradient id="cYDnmSDMdUyrtnjE4Ypbtb" x1="8.886" x2="44.532" y1="416.098" y2="424.772" gradientTransform="matrix(1 0 0 -1 0 456)" gradientUnits="userSpaceOnUse"><stop offset=".052" stop-color="#2f87e4"/><stop offset=".236" stop-color="#338be5"/><stop offset=".439" stop-color="#3f99e9"/><stop offset=".651" stop-color="#53afef"/><stop offset=".868" stop-color="#6fcdf8"/><stop offset=".967" stop-color="#7edefd"/></linearGradient><path fill="url(#cYDnmSDMdUyrtnjE4Ypbtb)" d="M44,24c0,11.046-8.954,20-20,20c-6.954,0-13.081-3.551-16.66-8.934	c0.554,0.182,1.081,0.358,1.572,0.512c1.846,0.59,3.134,0.338,4.853,0.079c1.565-0.238,2.825-0.275,3.569-0.781	c-0.281,0.59-0.723,1.34-1.403,2.106c-1.01,1.122-2.091,1.762-2.807,2.106c2.379,0.723,6.421,1.572,11.228,0.702	c4.54-0.821,7.642-2.793,9.825-4.21c2.077-1.347,4.8-3.116,7.018-6.316c1.579-2.281,2.354-4.594,2.782-6.264	C43.996,23.294,44,23.706,44,24z"/><linearGradient id="cYDnmSDMdUyrtnjE4Ypbtc" x1="34.714" x2="34.622" y1="428.622" y2="424.825" gradientTransform="matrix(1 0 0 -1 0 456)" gradientUnits="userSpaceOnUse"><stop offset=".052" stop-color="#0053bf"/><stop offset=".774" stop-color="#2185e6"/></linearGradient><path fill="url(#cYDnmSDMdUyrtnjE4Ypbtc)" d="M35.193,30.182c-1.003,0.582-2.056,0.646-2.351,0.147c-0.288-0.506,0.294-1.382,1.298-1.965	c1.01-0.582,2.063-0.646,2.351-0.14C36.786,28.722,36.203,29.607,35.193,30.182z"/><linearGradient id="cYDnmSDMdUyrtnjE4Ypbtd" x1="24.692" x2="19.33" y1="427.443" y2="447.247" gradientTransform="matrix(1 0 0 -1 0 456)" gradientUnits="userSpaceOnUse"><stop offset=".034" stop-color="#5737bf"/><stop offset=".289" stop-color="#885ee4"/><stop offset=".542" stop-color="#6f4fda"/><stop offset=".749" stop-color="#4730cb"/></linearGradient><path fill="url(#cYDnmSDMdUyrtnjE4Ypbtd)" d="M30.305,21.806c0.59-1.025,1.063-2.508,1.063-3.771c0-3.874-3.144-7.018-7.018-7.018	s-7.018,3.144-7.018,7.018s3.144,7.018,7.018,7.018c2.056,0,3.909-0.884,5.193-2.302c-5.29,7.73-11.362,7.095-15.018,4.407	c-3.747-2.758-2.807-9.825,0.702-14.035c4.14-4.969,10.358-5.397,14.098-2.638C32.709,12.969,32.848,17.721,30.305,21.806z"/><linearGradient id="cYDnmSDMdUyrtnjE4Ypbte" x1="20.192" x2="27.469" y1="412.835" y2="452.136" gradientTransform="matrix(1 0 0 -1 0 456)" gradientUnits="userSpaceOnUse"><stop offset=".01" stop-color="#90f8ff"/><stop offset=".085" stop-color="#74e2f8"/><stop offset=".185" stop-color="#56c9f0"/><stop offset=".27" stop-color="#43baec"/><stop offset=".33" stop-color="#3cb5ea"/><stop offset=".461" stop-color="#52c6ef"/><stop offset=".732" stop-color="#89f2fd"/><stop offset=".766" stop-color="#90f8ff"/></linearGradient><path fill="url(#cYDnmSDMdUyrtnjE4Ypbte)" d="M42.656,16.778c-0.246-0.634-0.786-1.128-1.458-1.226c-0.004-0.001-0.008-0.001-0.012-0.002	c-4.21-0.597-7.894,2.428-10.302,5.403c-0.324,0.47-0.929,1.337-1.263,1.712c-4.274,6.393-11.018,8.316-16.498,6.597	c-3.958-1.242-6.119-4.33-7.018-5.614c-0.653-0.934-1.27-2.021-1.782-3.193C4.106,21.607,4,22.793,4,24	c0,4.091,1.228,7.894,3.34,11.066c0.554,0.182,1.079,0.362,1.572,0.512c2.994,0.914,6.293,0.475,8.421-0.702	c-0.281,0.59-0.723,1.34-1.403,2.106c-1.01,1.122-2.091,1.762-2.807,2.106c2.379,0.723,6.421,1.572,11.228,0.702	c4.54-0.821,7.642-2.793,9.825-4.21c2.077-1.347,4.8-3.116,7.018-6.316c1.579-2.281,2.563-4.486,2.779-6.162	c0.014-0.104-0.013-0.284-0.021-0.418C43.824,20.614,43.375,18.63,42.656,16.778z M35.193,30.182	c-1.003,0.582-2.056,0.646-2.351,0.147c-0.288-0.506,0.294-1.382,1.298-1.965c1.01-0.582,2.063-0.646,2.351-0.14	C36.786,28.722,36.203,29.607,35.193,30.182z"/></svg>