<svg xmlns="http://www.w3.org/2000/svg" viewBox="0 0 48 48"><linearGradient id="jMlwGrqAYV_ZEOEpDY5tTa" x1="17.889" x2="26.584" y1="4.028" y2="44.431" gradientUnits="userSpaceOnUse"><stop offset="0" stop-color="#32bdef"/><stop offset=".38" stop-color="#2fb9ed"/><stop offset=".787" stop-color="#25ace8"/><stop offset="1" stop-color="#1ea2e4"/></linearGradient><path fill="url(#jMlwGrqAYV_ZEOEpDY5tTa)" d="M27,12.598V5h-6v7.598c0,1.518-0.69,2.954-1.875,3.903l-0.497,0.398 c-1.659,1.328-2.624,3.338-2.625,5.463L16,43c0,1.105,0.895,2,2,2H30c1.105,0,2-0.896,2-2l-0.004-20.638 c0-2.125-0.966-4.135-2.625-5.463l-0.497-0.398C27.69,15.552,27,14.116,27,12.598z"/><linearGradient id="jMlwGrqAYV_ZEOEpDY5tTb" x1="23.865" x2="24.064" y1="3.003" y2="6.663" gradientUnits="userSpaceOnUse"><stop offset="0" stop-color="#f45560"/><stop offset="1" stop-color="#cf1928"/></linearGradient><path fill="url(#jMlwGrqAYV_ZEOEpDY5tTb)" d="M27,7h-6V4c0-0.552,0.448-1,1-1h4c0.552,0,1,0.448,1,1V7z"/><radialGradient id="jMlwGrqAYV_ZEOEpDY5tTc" cx="24" cy="32" r="12.985" gradientUnits="userSpaceOnUse"><stop offset="0" stop-color="#f9f9f9"/><stop offset=".375" stop-color="#f1f2f3"/><stop offset=".538" stop-color="#e5e7e9"/><stop offset=".719" stop-color="#dde0e2"/><stop offset="1" stop-color="#c2c8cc"/></radialGradient><path fill="url(#jMlwGrqAYV_ZEOEpDY5tTc)" d="M29,38H19c-0.552,0-1-0.448-1-1V27c0-0.552,0.448-1,1-1h10c0.552,0,1,0.448,1,1v10 C30,37.552,29.552,38,29,38z"/><linearGradient id="jMlwGrqAYV_ZEOEpDY5tTd" x1="23.602" x2="24.246" y1="25.345" y2="28.756" gradientUnits="userSpaceOnUse"><stop offset="0" stop-color="#f45560"/><stop offset="1" stop-color="#cf1928"/></linearGradient><path fill="url(#jMlwGrqAYV_ZEOEpDY5tTd)" d="M30,28H18v-1c0-0.552,0.448-1,1-1h10c0.552,0,1,0.448,1,1V28z"/><linearGradient id="jMlwGrqAYV_ZEOEpDY5tTe" x1="23.736" x2="24.38" y1="35.148" y2="38.559" gradientUnits="userSpaceOnUse"><stop offset="0" stop-color="#f45560"/><stop offset="1" stop-color="#cf1928"/></linearGradient><path fill="url(#jMlwGrqAYV_ZEOEpDY5tTe)" d="M30,37v-1H18v1c0,0.552,0.448,1,1,1h10C29.552,38,30,37.552,30,37z"/></svg>