<svg xmlns="http://www.w3.org/2000/svg" viewBox="0 0 48 48"><linearGradient id="YPB7b1Kfi8g9tm8XopQ8aa" x1="24" x2="24" y1="2" y2="45.499" gradientUnits="userSpaceOnUse"><stop offset="0" stop-color="#eba84b"/><stop offset="1" stop-color="#d97218"/></linearGradient><path fill="url(#YPB7b1Kfi8g9tm8XopQ8aa)" d="M38,24.5c0-3.165,0.799-6.993,3.927-9.686c0.624-0.537,0.883-1.385,0.622-2.166l-1.048-3.144	c-0.286-0.857-1.107-1.422-2.008-1.364c-2.759,0.177-8.579-0.037-11.965-5.248C27.165,2.333,26.536,2,25.869,2l-1.865,0h-0.009	l-1.865,0c-0.667,0-1.296,0.333-1.659,0.893C17.086,8.104,11.266,8.317,8.507,8.14C7.606,8.083,6.784,8.648,6.499,9.504	l-1.048,3.144c-0.26,0.781-0.002,1.629,0.622,2.166C9.201,17.507,10,21.335,10,24.5c0,3.547-0.987,6.915-3.822,9.534	c-0.665,0.614-0.871,1.58-0.466,2.389l1.743,3.486c0.326,0.651,0.975,1.079,1.703,1.103c2.735,0.093,8.106-0.006,13.716,4.106	c0.676,0.495,1.6,0.508,2.289,0.032c5.986-4.142,10.932-4.044,13.676-4.138c0.729-0.025,1.38-0.451,1.706-1.103l1.743-3.486	c0.405-0.81,0.199-1.775-0.466-2.389C38.987,31.415,38,28.047,38,24.5z"/><path fill="#e52030" d="M44.888,42.733L5.266,3.112c-0.149-0.149-0.39-0.149-0.539,0L3.112,4.728	c-0.149,0.149-0.149,0.39,0,0.539l39.622,39.622c0.149,0.149,0.39,0.149,0.539,0l1.616-1.616	C45.037,43.123,45.037,42.881,44.888,42.733z"/></svg>