<svg xmlns="http://www.w3.org/2000/svg" viewBox="0 0 48 48"><linearGradient id="8YDocZAMMMB05RkirgcFGa" x1="38.294" x2="31.292" y1="29.5" y2="29.5" gradientUnits="userSpaceOnUse"><stop offset="0" stop-color="#ffa1a6"/><stop offset=".187" stop-color="#fd909c"/><stop offset="1" stop-color="#f24472"/></linearGradient><path fill="url(#8YDocZAMMMB05RkirgcFGa)" d="M34,30h2l0,0c0,0.552,0.448,1,1,1l0,0c0.552,0,1-0.448,1-1v0c0-1.105-0.895-2-2-2h-1h-1V30z"/><linearGradient id="8YDocZAMMMB05RkirgcFGb" x1="33.294" x2="19.831" y1="37.5" y2="37.5" gradientUnits="userSpaceOnUse"><stop offset="0" stop-color="#889097"/><stop offset="1" stop-color="#4c5963"/></linearGradient><path fill="url(#8YDocZAMMMB05RkirgcFGb)" d="M26,36h-8v3h11v0C29,37.343,27.657,36,26,36z"/><linearGradient id="8YDocZAMMMB05RkirgcFGc" x1="15" x2="15" y1="49.235" y2="28.235" gradientUnits="userSpaceOnUse"><stop offset="0" stop-color="#889097"/><stop offset="1" stop-color="#4c5963"/></linearGradient><path fill="url(#8YDocZAMMMB05RkirgcFGc)" d="M23,45c-7.174,0-17,0-17-7c0-3.401,3.95-6.462,4.4-6.8c0.441-0.33,1.068-0.242,1.399,0.199	c0.332,0.441,0.243,1.068-0.198,1.4C10.599,33.554,8,35.958,8,38c0,4.624,6.793,5,15,5c0.552,0,1,0.447,1,1S23.552,45,23,45z"/><linearGradient id="8YDocZAMMMB05RkirgcFGd" x1="13.853" x2="26.91" y1="2.853" y2="15.91" gradientUnits="userSpaceOnUse"><stop offset="0" stop-color="#afb6bc"/><stop offset="1" stop-color="#9aa0a5"/></linearGradient><polygon fill="url(#8YDocZAMMMB05RkirgcFGd)" points="33,18 25,21 25,14 32,14"/><linearGradient id="8YDocZAMMMB05RkirgcFGe" x1="7.603" x2="20.66" y1="9.103" y2="22.16" gradientUnits="userSpaceOnUse"><stop offset="0" stop-color="#afb6bc"/><stop offset="1" stop-color="#9aa0a5"/></linearGradient><path fill="url(#8YDocZAMMMB05RkirgcFGe)" d="M9,30c0-11,9-16,16-16c2.5,0,7,0,7,0s2,2.25,2,4.25C27,21,32,39,18,39C18.75,31.25,9,30,9,30z"/><linearGradient id="8YDocZAMMMB05RkirgcFGf" x1="11.353" x2="24.41" y1="5.353" y2="18.41" gradientUnits="userSpaceOnUse"><stop offset="0" stop-color="#afb6bc"/><stop offset="1" stop-color="#9aa0a5"/></linearGradient><path fill="url(#8YDocZAMMMB05RkirgcFGf)" d="M28,24l1,4l5,2l1-2l-2.64-1.76c-0.23-0.153-0.386-0.395-0.432-0.668L31,20L28,24z"/><linearGradient id="8YDocZAMMMB05RkirgcFGg" x1="3.65" x2="16.02" y1="15.65" y2="28.02" gradientUnits="userSpaceOnUse"><stop offset="0" stop-color="#afb6bc"/><stop offset="1" stop-color="#9aa0a5"/></linearGradient><circle cx="18" cy="30" r="9" fill="url(#8YDocZAMMMB05RkirgcFGg)"/><linearGradient id="8YDocZAMMMB05RkirgcFGh" x1="31" x2="31" y1="4.118" y2="14.647" gradientUnits="userSpaceOnUse"><stop offset="0" stop-color="#889097"/><stop offset="1" stop-color="#4c5963"/></linearGradient><circle cx="31" cy="10" r="4" fill="url(#8YDocZAMMMB05RkirgcFGh)"/><path d="M30,19c-2.76,0-5-2.24-5-5c-0.17,0-0.33,0-0.5,0.01c-0.17,0-0.33,0.01-0.5,0.03c0.02,3.29,2.7,5.96,6,5.96 c0.65,0,1.28-0.03,1.9-0.1c0.15-0.2,0.31-0.39,0.48-0.56c0.22-0.23,0.45-0.43,0.7-0.6C32.11,18.91,31.08,19,30,19z" opacity=".05"/><path d="M30,19c-2.76,0-5-2.24-5-5c-0.17,0-0.33,0-0.5,0.01c0.01,3.03,2.47,5.49,5.5,5.49c0.82,0,1.62-0.05,2.38-0.16 c0.22-0.23,0.45-0.43,0.7-0.6C32.11,18.91,31.08,19,30,19z" opacity=".07"/><linearGradient id="8YDocZAMMMB05RkirgcFGi" x1="34" x2="34" y1=".294" y2="25.018" gradientUnits="userSpaceOnUse"><stop offset="0" stop-color="#afb6bc"/><stop offset="1" stop-color="#9aa0a5"/></linearGradient><path fill="url(#8YDocZAMMMB05RkirgcFGi)" d="M42,9H30c-2.761,0-5,2.239-5,5s2.239,5,5,5c8,0,13-5,13-9L42,9z"/><linearGradient id="8YDocZAMMMB05RkirgcFGj" x1="27" x2="27" y1=".294" y2="25.018" gradientUnits="userSpaceOnUse"><stop offset="0" stop-color="#afb6bc"/><stop offset="1" stop-color="#9aa0a5"/></linearGradient><path fill="url(#8YDocZAMMMB05RkirgcFGj)" d="M31,10c0-2.209-1.791-4-4-4s-4,1.791-4,4c0,2.209,1.791,4,4,4C27,11.791,28.791,10,31,10z"/><linearGradient id="8YDocZAMMMB05RkirgcFGk" x1="36" x2="36" y1="5.449" y2="9.854" gradientUnits="userSpaceOnUse"><stop offset="0" stop-color="#6d7479"/><stop offset=".425" stop-color="#565c60"/><stop offset="1" stop-color="#323538"/></linearGradient><circle cx="36" cy="12" r="1" fill="url(#8YDocZAMMMB05RkirgcFGk)"/><linearGradient id="8YDocZAMMMB05RkirgcFGl" x1="42" x2="42" y1="5.449" y2="9.854" gradientUnits="userSpaceOnUse"><stop offset="0" stop-color="#6d7479"/><stop offset=".425" stop-color="#565c60"/><stop offset="1" stop-color="#323538"/></linearGradient><circle cx="42" cy="10" r="1" fill="url(#8YDocZAMMMB05RkirgcFGl)"/><linearGradient id="8YDocZAMMMB05RkirgcFGm" x1="27" x2="27" y1="1.368" y2="18.442" gradientUnits="userSpaceOnUse"><stop offset="0" stop-color="#ffa1a6"/><stop offset=".187" stop-color="#fd909c"/><stop offset="1" stop-color="#f24472"/></linearGradient><circle cx="27" cy="10" r="2" fill="url(#8YDocZAMMMB05RkirgcFGm)"/></svg>