<svg xmlns="http://www.w3.org/2000/svg" viewBox="0 0 48 48"><linearGradient id="itQzEVgZWTxgiAPpblGeca" x1="19.903" x2="28.209" y1="6.408" y2="42.076" gradientUnits="userSpaceOnUse"><stop offset="0" stop-color="#0370c8"/><stop offset=".484" stop-color="#036fc5"/><stop offset=".775" stop-color="#036abd"/><stop offset="1" stop-color="#0362b0"/></linearGradient><path fill="url(#itQzEVgZWTxgiAPpblGeca)" d="M40,42H8c-1.1,0-2-0.9-2-2V8c0-1.1,0.9-2,2-2h32c1.1,0,2,0.9,2,2v32C42,41.1,41.1,42,40,42z"/><radialGradient id="itQzEVgZWTxgiAPpblGecb" cx="24" cy="20" r="9.5" gradientUnits="userSpaceOnUse"><stop offset="0"/><stop offset="1" stop-opacity="0"/></radialGradient><circle cx="24" cy="20" r="9.5" fill="url(#itQzEVgZWTxgiAPpblGecb)"/><linearGradient id="itQzEVgZWTxgiAPpblGecc" x1="18.573" x2="29.735" y1="13.573" y2="24.735" gradientUnits="userSpaceOnUse"><stop offset="0" stop-color="#75daff"/><stop offset="1" stop-color="#1ea2e4"/></linearGradient><circle cx="24" cy="19" r="8" fill="url(#itQzEVgZWTxgiAPpblGecc)"/><radialGradient id="itQzEVgZWTxgiAPpblGecd" cx="24" cy="44.164" r="16.199" gradientUnits="userSpaceOnUse"><stop offset="0"/><stop offset="1" stop-opacity="0"/></radialGradient><path fill="url(#itQzEVgZWTxgiAPpblGecd)" d="M8.138,42h31.724C38.876,34.11,32.158,28,24,28S9.124,34.11,8.138,42z"/><linearGradient id="itQzEVgZWTxgiAPpblGece" x1="16.414" x2="32.016" y1="32.441" y2="48.043" gradientUnits="userSpaceOnUse"><stop offset="0" stop-color="#75daff"/><stop offset="1" stop-color="#1ea2e4"/></linearGradient><path fill="url(#itQzEVgZWTxgiAPpblGece)" d="M10.159,42h27.682C36.868,35.218,31.051,30,24,30S11.132,35.218,10.159,42z"/></svg>