<svg xmlns="http://www.w3.org/2000/svg" viewBox="0 0 48 48"><linearGradient id="VhQcZoSg3VCwU6eEdy2MNa" x1="20.439" x2="27.561" y1="3.806" y2="44.194" gradientUnits="userSpaceOnUse"><stop offset="0" stop-color="#33bef0"/><stop offset="1" stop-color="#22a5e2"/></linearGradient><path fill="url(#VhQcZoSg3VCwU6eEdy2MNa)" d="M40.004,41.969L8.031,42c-1.099,0.001-1.999-0.897-2-1.996L6,8.031 c-0.001-1.099,0.897-1.999,1.996-2L39.969,6c1.099-0.001,1.999,0.897,2,1.996L42,39.969C42.001,41.068,41.103,41.968,40.004,41.969 z"/><linearGradient id="VhQcZoSg3VCwU6eEdy2MNb" x1="20.988" x2="27.012" y1="6.915" y2="41.085" gradientUnits="userSpaceOnUse"><stop offset="0" stop-color="#fafafb"/><stop offset=".293" stop-color="#f6f7f8"/><stop offset=".566" stop-color="#ebecee"/><stop offset=".832" stop-color="#d8dcdf"/><stop offset="1" stop-color="#c8cdd1"/></linearGradient><path fill="url(#VhQcZoSg3VCwU6eEdy2MNb)" d="M38.971,9L39,38.971L9.029,39L9,9.029L38.971,9"/><linearGradient id="VhQcZoSg3VCwU6eEdy2MNc" x1="23.474" x2="26.769" y1="14.019" y2="32.704" gradientUnits="userSpaceOnUse"><stop offset="0" stop-color="#a235d4"/><stop offset=".441" stop-color="#a033d1"/><stop offset=".702" stop-color="#982cc9"/><stop offset=".915" stop-color="#8b21bb"/><stop offset="1" stop-color="#831bb3"/></linearGradient><path fill="url(#VhQcZoSg3VCwU6eEdy2MNc)" d="M30,19h-4v13c0,0.552-0.448,1-1,1h-2c-0.552,0-1-0.448-1-1V19h-4c-0.552,0-1-0.448-1-1v-2 c0-0.552,0.448-1,1-1h12c0.552,0,1,0.448,1,1v2C31,18.552,30.552,19,30,19z"/><linearGradient id="VhQcZoSg3VCwU6eEdy2MNd" x1="6.823" x2="8.177" y1="36.663" y2="44.337" gradientUnits="userSpaceOnUse"><stop offset="0" stop-color="#3079d6"/><stop offset="1" stop-color="#297cd2"/></linearGradient><path fill="url(#VhQcZoSg3VCwU6eEdy2MNd)" d="M5,37h5c0.552,0,1,0.448,1,1v5c0,0.552-0.448,1-1,1H5c-0.552,0-1-0.448-1-1v-5 C4,37.448,4.448,37,5,37z"/><linearGradient id="VhQcZoSg3VCwU6eEdy2MNe" x1="39.828" x2="41.172" y1="36.689" y2="44.311" gradientUnits="userSpaceOnUse"><stop offset="0" stop-color="#3079d6"/><stop offset="1" stop-color="#297cd2"/></linearGradient><path fill="url(#VhQcZoSg3VCwU6eEdy2MNe)" d="M38.167,37h4.667C43.478,37,44,37.522,44,38.167v4.667C44,43.478,43.478,44,42.833,44h-4.667 C37.522,44,37,43.478,37,42.833v-4.667C37,37.522,37.522,37,38.167,37z"/><linearGradient id="VhQcZoSg3VCwU6eEdy2MNf" x1="6.823" x2="8.177" y1="3.663" y2="11.337" gradientUnits="userSpaceOnUse"><stop offset="0" stop-color="#3079d6"/><stop offset="1" stop-color="#297cd2"/></linearGradient><path fill="url(#VhQcZoSg3VCwU6eEdy2MNf)" d="M5,4h5c0.552,0,1,0.448,1,1v5c0,0.552-0.448,1-1,1H5c-0.552,0-1-0.448-1-1V5 C4,4.448,4.448,4,5,4z"/><linearGradient id="VhQcZoSg3VCwU6eEdy2MNg" x1="39.823" x2="41.177" y1="3.663" y2="11.337" gradientUnits="userSpaceOnUse"><stop offset="0" stop-color="#3079d6"/><stop offset="1" stop-color="#297cd2"/></linearGradient><path fill="url(#VhQcZoSg3VCwU6eEdy2MNg)" d="M38,4h5c0.552,0,1,0.448,1,1v5c0,0.552-0.448,1-1,1h-5c-0.552,0-1-0.448-1-1V5 C37,4.448,37.448,4,38,4z"/></svg>