<svg xmlns="http://www.w3.org/2000/svg" id="Layer_1" x="0" y="0" version="1.1" viewBox="0 0 48 48" xml:space="preserve"><path fill="#007ad9" d="M14,9h18c5.5,0,10,4.5,10,10v21c0,1.1-0.9,2-2,2H14V9z"/><linearGradient id="SVGID_1_" x1="7.205" x2="20.183" y1="107.03" y2="73.055" gradientTransform="matrix(1 0 0 -1 0 118)" gradientUnits="userSpaceOnUse"><stop offset="0" stop-color="#32bdef"/><stop offset="1" stop-color="#1ea2e4"/></linearGradient><path fill="url(#SVGID_1_)" d="M14,9C8.5,9,4,13.5,4,19v21c0,1.1,0.9,2,2,2h16c1.1,0,2-0.9,2-2V19C24,13.5,19.5,9,14,9z"/><path fill="#007ad9" d="M17,21h-7c-0.6,0-1-0.4-1-1l0,0c0-0.6,0.4-1,1-1h7c0.6,0,1,0.4,1,1l0,0C18,20.6,17.6,21,17,21z"/><path fill="#199be2" d="M44,42.2L42.2,44l3.9,3.9c0.1,0.1,0.3,0.1,0.4,0l1.4-1.4c0.1-0.1,0.1-0.3,0-0.4L44,42.2z"/><radialGradient id="SVGID_2_" cx="36.012" cy="81.952" r="9.802" gradientTransform="matrix(1 0 0 -1 0 118)" gradientUnits="userSpaceOnUse"><stop offset=".693" stop-color="#006185"/><stop offset=".921" stop-color="#35c1f1"/></radialGradient><polygon fill="url(#SVGID_2_)" points="41.8,40 40,41.8 42.2,44 44,42.2"/><path d="M36,27c-5,0-9,4-9,9c0,2.3,0.9,4.4,2.3,6H40c1.1,0,2-0.9,2-2V29.3C40.4,27.9,38.3,27,36,27z" opacity=".05"/><path d="M36,27.5c-4.7,0-8.5,3.8-8.5,8.5c0,2.3,1,4.5,2.5,6h10c1.1,0,2-0.9,2-2V30C40.5,28.5,38.3,27.5,36,27.5z" opacity=".07"/><linearGradient id="SVGID_3_" x1="30.455" x2="41.669" y1="87.545" y2="76.331" gradientTransform="matrix(1 0 0 -1 0 118)" gradientUnits="userSpaceOnUse"><stop offset="0" stop-color="#a3ffff"/><stop offset=".223" stop-color="#9dfbff"/><stop offset=".53" stop-color="#8bf1ff"/><stop offset=".885" stop-color="#6ee0ff"/><stop offset="1" stop-color="#63daff"/></linearGradient><circle cx="36" cy="36" r="8" fill="url(#SVGID_3_)"/></svg>