<svg xmlns="http://www.w3.org/2000/svg" viewBox="0 0 48 48"><path fill="#c22348" fill-rule="evenodd" d="M42,40V8c0-1.105-0.895-2-2-2H7.08C6.484,6,6,6.529,6,7.181V40 c0,1.105,0.895,2,2,2h32C41.105,42,42,41.105,42,40z" clip-rule="evenodd"/><polygon fill="#961130" points="36.773,42 37.917,42 37.783,41.752 19.3,9.407 16.333,14.45 32.077,42 33.237,42 33.087,41.752 17.489,14.457 19.288,11.4"/><polygon fill="#961130" points="11.954,21.894 6,32.014 6,33.944 11.962,23.852 22.85,42 23.988,42"/><path fill="#961130" d="M15.736,17.437L29.773,42h1.188L15.748,15.442l-2.162,3.678c-0.651,1.106-0.646,2.476,0.015,3.576 L25.183,42h1.184L14.458,22.181c-0.472-0.786-0.476-1.764-0.011-2.554L15.736,17.437z"/><path fill="#961130" d="M21.04,8.42L22.466,6h-1.16l-1.422,2.414L39.077,42H40c0.07,0,0.136-0.014,0.203-0.021L21.04,8.42z"/><polygon fill="#961130" points="42,32.85 26.657,6 25.474,6 41.57,34.115 42,34.835"/><polygon fill="#961130" points="42,36.881 24.351,6 23.199,6 41.574,38.152 42,38.842"/><g><path fill="#ffa566" fill-rule="evenodd" d="M42,33.859V7.08C42,6.484,41.516,6,40.92,6H26.081L42,33.859z" clip-rule="evenodd"/><path fill="#ffa566" fill-rule="evenodd" d="M30.349,42L15.743,16.439l-1.726,2.935 c-0.557,0.947-0.552,2.123,0.013,3.065L25.766,42H30.349z" clip-rule="evenodd"/><path fill="#ffa566" fill-rule="evenodd" d="M11.958,22.873L6,33v7.92C6,41.516,6.484,42,7.08,42h16.354 L11.958,22.873z" clip-rule="evenodd"/><polygon fill="#ffa566" fill-rule="evenodd" points="19.294,10.403 16.911,14.453 32.652,42 37.349,42" clip-rule="evenodd"/><path fill="#ffa566" fill-rule="evenodd" d="M23.777,6h-1.893l-1.422,2.417L39.652,42h1.268 c0.596,0,1.08-0.484,1.08-1.08v-3.03L23.777,6z" clip-rule="evenodd"/></g></svg>