<svg xmlns="http://www.w3.org/2000/svg" id="Layer_1" x="0" y="0" version="1.1" viewBox="0 0 48 48" xml:space="preserve"><path fill="#7b83eb" d="M30,10h6c1.1,0,2,0.9,2,2v5H28v-5C28,10.9,28.9,10,30,10z"/><path fill="#7b83eb" d="M12,10h6c1.1,0,2,0.9,2,2v5H10v-5C10,10.9,10.9,10,12,10z"/><rect width="10" height="2" x="28" y="15" opacity=".05"/><rect width="10" height="1.5" x="28" y="15.5" opacity=".07"/><rect width="10" height="2" x="10" y="15" opacity=".05"/><rect width="10" height="1.5" x="10" y="15.5" opacity=".07"/><linearGradient id="SVGID_1_" x1="4.526" x2="34.908" y1="10.089" y2="36.472" gradientUnits="userSpaceOnUse"><stop offset="0" stop-color="#5059c9"/><stop offset=".999" stop-color="#4750b3"/></linearGradient><path fill="url(#SVGID_1_)" d="M8,16h32c1.1,0,2,0.9,2,2v18c0,1.1-0.9,2-2,2H8c-1.1,0-2-0.9-2-2V18C6,16.9,6.9,16,8,16z"/></svg>