<svg xmlns="http://www.w3.org/2000/svg" viewBox="0 0 48 48"><path fill="#35c1f1" d="M34.764,4H13.236c-0.758,0-1.45,0.428-1.789,1.106L10,8h28l-1.447-2.894	C36.214,4.428,35.521,4,34.764,4z"/><path fill="#50e6ff" d="M38,8H10c-1.105,0-2,0.895-2,2v1h32v-1C40,8.895,39.105,8,38,8z"/><linearGradient id="PRD6BAhJCUgoCQFbrJdIZa" x1="16.313" x2="31.386" y1="8.394" y2="40.021" gradientUnits="userSpaceOnUse"><stop offset="0" stop-color="#2aa4f4"/><stop offset="1" stop-color="#007ad9"/></linearGradient><path fill="url(#PRD6BAhJCUgoCQFbrJdIZa)" d="M38.5,11h-29l1.627,30.108C11.184,42.169,12.061,43,13.124,43h21.752	c1.063,0,1.94-0.831,1.997-1.892L38.5,11z"/></svg>