<svg xmlns="http://www.w3.org/2000/svg" viewBox="0 0 48 48"><linearGradient id="5mUZ77YcSTxDocZc1Bruaa" x1="262.238" x2="262.24" y1="-1826.736" y2="-1826.736" gradientTransform="scale(1 -1) rotate(-9.317 11175.715 642.405)" gradientUnits="userSpaceOnUse"><stop offset="0" stop-color="#ffc430"/><stop offset=".57" stop-color="#f8bd29"/><stop offset="1" stop-color="#f0b421"/></linearGradient><path fill="url(#5mUZ77YcSTxDocZc1Bruaa)" d="M6.36,27.275c0.001-0.007,0.004-0.012,0.005-0.019l-0.002-0.001L6.36,27.275z"/><linearGradient id="5mUZ77YcSTxDocZc1Bruab" x1="4.284" x2="39" y1="22.5" y2="22.5" gradientUnits="userSpaceOnUse"><stop offset="0" stop-color="#1ea2e4"/><stop offset="1" stop-color="#007ad9"/></linearGradient><path fill="url(#5mUZ77YcSTxDocZc1Bruab)" d="M36.665,8.027C35.681,8.187,35,9.11,35,10.106l0,8.07l-1-0.091l0-13.443 c0-1.308-0.941-2.499-2.243-2.629C30.261,1.863,29,3.034,29,4.5v13.133l-1-0.091l0-13.9c0-1.308-0.941-2.499-2.243-2.629 C24.261,0.863,23,2.034,23,3.5v13.591L22,17l0-10.357c0-1.308-0.942-2.501-2.244-2.63C18.26,3.864,17,5.034,17,6.5 c0,0.122,0,8.489,0,16.564c-2.139,3.65-5.75-0.776-7.957-2.777C6.33,17.83,2.735,21.655,5,24l11.663,13.85 C16.881,38.108,17,38.435,17,38.774V42c0,1.105,0.895,2,2,2h18c1.105,0,2-0.895,2-2v-8v-1V10C39,8.785,37.918,7.824,36.665,8.027z"/></svg>