<svg xmlns="http://www.w3.org/2000/svg" viewBox="0 0 48 48"><radialGradient id="~r1AWORnyHzT5dYPWVWlHa" cx="182.069" cy="-179.065" r="76.761" gradientTransform="matrix(1 0 0 -1.0455 -129.191 -112.72)" gradientUnits="userSpaceOnUse"><stop offset=".323" stop-color="#23d9d6"/><stop offset=".427" stop-color="#23d4d7"/><stop offset=".542" stop-color="#21c7dc"/><stop offset=".664" stop-color="#1fb0e2"/><stop offset=".789" stop-color="#1c91ec"/><stop offset=".917" stop-color="#1969f8"/><stop offset=".944" stop-color="#1860fb"/></radialGradient><path fill="url(#~r1AWORnyHzT5dYPWVWlHa)" d="M3,10h40c1.105,0,2,0.895,2,2v27c0,1.105-0.895,2-2,2H3c-1.105,0-2-0.895-2-2V12	C1,10.895,1.895,10,3,10z"/><path fill="#f6f6f6" d="M24.715,33H7.051C6.47,33,6,32.553,6,32s0.47-1,1.051-1h17.664c0.581,0,1.051,0.447,1.051,1	S25.296,33,24.715,33z"/><path d="M45,12c0-1.105-0.895-2-2-2h-2.083L28.983,20.504l-2.267,2.265	l-3.406,1.004l-0.045,0.013l-0.087,0.035c-1.459,0.748-2.178,1.859-2.178,3.324v3.477c0,0.693,0.209,1.393,0.589,1.972	c0.248,0.353,0.547,0.65,0.874,0.87C23.019,33.818,23.677,34,24.379,34h3.477c1.465,0,2.576-0.719,3.303-2.136l0.021-0.042	l0.035-0.087l1.021-3.463l2.213-2.213L45,14.074V12z" opacity=".05"/><path d="M45,12c0-1.105-0.895-2-2-2h-1.326l-12.36,10.879l-2.334,2.333	l-3.528,1.04l-0.045,0.013l-0.042,0.021c-1.254,0.643-1.864,1.578-1.864,2.858v3.477c0,0.6,0.185,1.207,0.507,1.698	c0.204,0.291,0.458,0.543,0.735,0.73c0.461,0.292,1.027,0.45,1.636,0.45h3.477c1.28,0,2.215-0.61,2.858-1.864l0.021-0.042	l0.013-0.045l1.044-3.541l2.303-2.303L45,13.318V12z" opacity=".07"/><linearGradient id="~r1AWORnyHzT5dYPWVWlHb" x1="85.002" x2="90.797" y1="39.316" y2="39.316" gradientTransform="scale(-1 1) rotate(-45 10.84 175.038)" gradientUnits="userSpaceOnUse"><stop offset="0" stop-color="#a1a1a1"/><stop offset="1" stop-color="#b0b0b0"/></linearGradient><polygon fill="url(#~r1AWORnyHzT5dYPWVWlHb)" points="31.348,27.745 27.251,23.648 29.709,21.189 33.807,25.287"/><linearGradient id="~r1AWORnyHzT5dYPWVWlHc" x1="89.017" x2="88.32" y1="20.408" y2="32.873" gradientTransform="scale(-1 1) rotate(-45 10.84 175.038)" gradientUnits="userSpaceOnUse"><stop offset="0" stop-color="#4a4a4a"/><stop offset=".659" stop-color="#323232"/><stop offset="1" stop-color="#232323"/></linearGradient><path fill="url(#~r1AWORnyHzT5dYPWVWlHc)" d="M46.509,8.487L46.509,8.487c0.625,0.625,0.652,1.631,0.062,2.29l-12.764,14.51l-4.097-4.097	l14.51-12.764C44.878,7.835,45.883,7.862,46.509,8.487z"/><path fill="#f6f6f6" d="M30.268,31.408l1.08-3.663l-4.093-4.093l-3.663,1.08c-1.017,0.521-1.592,1.254-1.592,2.413v3.477	c0,0.733,0.317,1.363,0.673,1.738l-0.003,0.003c0.004,0.004,0.01,0.007,0.014,0.011c0.004,0.004,0.008,0.011,0.012,0.015	l0.003-0.003C23.072,32.739,23.646,33,24.379,33h3.477C29.014,33,29.747,32.425,30.268,31.408z"/></svg>