<svg xmlns="http://www.w3.org/2000/svg" xmlns:xlink="http://www.w3.org/1999/xlink" data-name="Слой 1" viewBox="0 0 48 48"><defs><linearGradient id="aWY_DM4wMlbgHhcY8VD9Ga" x1="-3.049" x2="49.733" y1="4.158" y2="56.94" data-name="Новый образец градиентной зал 5" gradientUnits="userSpaceOnUse"><stop offset="0" stop-color="#f9f9f9"/><stop offset=".26" stop-color="#f0f1f2"/><stop offset=".678" stop-color="#d9dcdf"/><stop offset="1" stop-color="#c2c8cc"/></linearGradient><linearGradient id="aWY_DM4wMlbgHhcY8VD9Gd" x1="35.196" x2="45.302" y1="15.5" y2="15.5" xlink:href="#aWY_DM4wMlbgHhcY8VD9Ga"/><linearGradient id="aWY_DM4wMlbgHhcY8VD9Gb" x1="36" x2="36" y1="2.5" y2="24.609" gradientUnits="userSpaceOnUse"><stop offset="0" stop-color="#ffcf7b"/><stop offset=".196" stop-color="#fecd76"/><stop offset=".439" stop-color="#fac666"/><stop offset=".709" stop-color="#f3bc4d"/><stop offset=".995" stop-color="#eaad2a"/><stop offset="1" stop-color="#eaad29"/></linearGradient><linearGradient id="aWY_DM4wMlbgHhcY8VD9Gc" x1="43" x2="43" y1="14.264" y2="9.687" data-name="Безымянный градиент 17" gradientUnits="userSpaceOnUse"><stop offset=".002" stop-color="#454545"/><stop offset=".013" stop-color="#464646"/><stop offset=".562" stop-color="#626262"/><stop offset="1" stop-color="#6d6d6d"/></linearGradient><linearGradient id="aWY_DM4wMlbgHhcY8VD9Ge" x1="32" x2="32" y1="2.5" y2="24.609" xlink:href="#aWY_DM4wMlbgHhcY8VD9Gb"/><linearGradient id="aWY_DM4wMlbgHhcY8VD9Gf" x1="34" x2="34" y1="18.666" y2="5.482" xlink:href="#aWY_DM4wMlbgHhcY8VD9Gc"/><linearGradient id="aWY_DM4wMlbgHhcY8VD9Gg" x1="24.5" x2="24.5" y1="9.283" y2="35.83" xlink:href="#aWY_DM4wMlbgHhcY8VD9Gb"/><linearGradient id="aWY_DM4wMlbgHhcY8VD9Gh" x1="38" x2="38" y1="14.264" y2="9.687" xlink:href="#aWY_DM4wMlbgHhcY8VD9Gc"/></defs><ellipse cx="11.5" cy="24" fill="#afb6bc" rx="7.5" ry="9"/><path fill="#afb6bc" d="M35,42V35l-4-1-3,.75L32,42v1a1,1,0,0,0,1,1h4A2,2,0,0,0,35,42Z"/><path fill="#afb6bc" d="M19,32l-6.01178-.85889L13,31H9V43a1,1,0,0,0,1,1h4a1.99582,1.99582,0,0,0-1.91736-1.9917l.3371-4.04517C14.62067,37.615,19,34.80786,19,32Z"/><path fill="url(#aWY_DM4wMlbgHhcY8VD9Ga)" d="M42,25c0-6.25-3-9-3-9H32l-5.62,3.21a5.62053,5.62053,0,0,1-1.03.47A6.06775,6.06775,0,0,1,23.41,20H12a6.00472,6.00472,0,0,0-6,6V43a1,1,0,0,0,1,1h4a1.99582,1.99582,0,0,0-1.91736-1.9917l.3371-4.04517A10.10264,10.10264,0,0,0,15.618,33.47974l9.48639,1.45947L29,42v1a1,1,0,0,0,1,1h4a2,2,0,0,0-2-2V36C35,36,42,31.25,42,25Z"/><path fill="url(#aWY_DM4wMlbgHhcY8VD9Gd)" d="M44,14a3.63545,3.63545,0,0,1-.13.99A3.99174,3.99174,0,0,1,40,18H37V13h6A1.00291,1.00291,0,0,1,44,14Z"/><path fill="url(#aWY_DM4wMlbgHhcY8VD9Gb)" d="M35,10h2a3,3,0,0,1,3,3v3a2,2,0,0,1-2,2H35a3,3,0,0,1-3-3V13A3,3,0,0,1,35,10Z"/><path fill="url(#aWY_DM4wMlbgHhcY8VD9Gc)" d="M44,14a3.63545,3.63545,0,0,1-.13.99A1.99343,1.99343,0,0,1,42,13h1A1.00291,1.00291,0,0,1,44,14Z"/><path fill="url(#aWY_DM4wMlbgHhcY8VD9Ge)" d="M36,12c0-2-.79086-6-3-6s-5,2-5,7c0,3.03757,1,8,5,11C33,17,36,17,36,12Z"/><path fill="url(#aWY_DM4wMlbgHhcY8VD9Gf)" d="M36,12a11.49272,11.49272,0,0,0-.199-2H35a3,3,0,0,0-3,3v2a2.99114,2.99114,0,0,0,2.198,2.87769C35.03381,16.067,36,14.83813,36,12Z"/><path fill="url(#aWY_DM4wMlbgHhcY8VD9Gg)" d="M28,24a12.94041,12.94041,0,0,1-2,7c0-3-5-4-5-8V20h2.41a6.06775,6.06775,0,0,0,1.94-.32007C26.14,20.6,28,21.83,28,24Z"/><circle cx="38" cy="13" r="1" fill="url(#aWY_DM4wMlbgHhcY8VD9Gh)"/></svg>