<svg xmlns="http://www.w3.org/2000/svg" viewBox="0 0 48 48"><linearGradient id="eggZ5dH_AKX9j3PT6aRpba" x1="24" x2="24" y1="455.264" y2="460.226" gradientTransform="translate(0 -418)" gradientUnits="userSpaceOnUse"><stop offset=".162" stop-color="#f45560"/><stop offset="1" stop-color="#cf1928"/></linearGradient><path fill="url(#eggZ5dH_AKX9j3PT6aRpba)" d="M8.904,41h30.192c2.294,0,4.294-1.561,4.851-3.787L44,37H4l0.053,0.213	C4.61,39.439,6.61,41,8.904,41z"/><linearGradient id="eggZ5dH_AKX9j3PT6aRpbb" x1="38.107" x2="45.388" y1="-43.663" y2="-43.663" gradientTransform="matrix(1 0 0 -1 0 -18)" gradientUnits="userSpaceOnUse"><stop offset="0" stop-color="#cf1928"/><stop offset="1" stop-color="#f45560"/></linearGradient><path fill="url(#eggZ5dH_AKX9j3PT6aRpbb)" d="M30,34.326V17h13c1.654,0,3,1.346,3,3v5.983c0,2.221-1.491,4.198-3.627,4.808L30,34.326z M32,19v12.674l9.824-2.807C43.105,28.501,44,27.315,44,25.983V20c0-0.551-0.448-1-1-1H32z"/><linearGradient id="eggZ5dH_AKX9j3PT6aRpbc" x1="21.729" x2="28.851" y1="-27.07" y2="-48.892" gradientTransform="matrix(1 0 0 -1 0 -18)" gradientUnits="userSpaceOnUse"><stop offset="0" stop-color="#f45560"/><stop offset=".897" stop-color="#cf1928"/></linearGradient><path fill="url(#eggZ5dH_AKX9j3PT6aRpbc)" d="M34,37H14c0,0-5-13-5-18c0-2.25,0-9,0-9c0-0.552,0.448-1,1-1h28c0.552,0,1,0.448,1,1 c0,0,0,6.75,0,9C39,24,34,37,34,37z"/><path fill="#cdd0d2" d="M19,6c-0.553,0-1-0.447-1-1V1c0-0.553,0.447-1,1-1s1,0.447,1,1v4C20,5.553,19.553,6,19,6z"/><path fill="#cdd0d2" d="M29,6c-0.553,0-1-0.447-1-1V1c0-0.553,0.447-1,1-1s1,0.447,1,1v4C30,5.553,29.553,6,29,6z"/><path fill="#cdd0d2" d="M24,8c-0.553,0-1-0.447-1-1V4c0-0.553,0.447-1,1-1s1,0.447,1,1v3C25,7.553,24.553,8,24,8z"/></svg>