<svg xmlns="http://www.w3.org/2000/svg" viewBox="0 0 48 48"><path fill="#586169" d="M44,36c0,3.313-2.687,6-6,6c-3.313,0-6-2.687-6-6s2.687-6,6-6C41.313,30,44,32.687,44,36"/><path fill="#999" d="M41,36c0,1.657-1.342,3-3,3s-3-1.342-3-3s1.342-3,3-3S41,34.342,41,36"/><path fill="#35c1f1" d="M38.502,27C34.359,27,31,30.582,31,35h13.975c0.577,0,1.034-0.546,0.952-1.156	C45.402,29.974,42.278,27,38.502,27z"/><path fill="#586169" d="M18,36c0,3.313-2.687,6-6,6s-6-2.687-6-6s2.687-6,6-6S18,32.687,18,36"/><path fill="#999" d="M15,36c0,1.657-1.342,3-3,3s-3-1.342-3-3s1.342-3,3-3S15,34.342,15,36"/><path fill="#b34a16" d="M19,22H9c-1.105,0-2-0.895-2-2v0c0-1.105,0.895-2,2-2h10c1.105,0,2,0.895,2,2v0	C21,21.105,20.105,22,19,22z"/><path fill="#35c1f1" d="M33.5,12h3.264C37.447,12,38,11.447,38,10.764V6.236C38,5.553,37.447,5,36.764,5H33.5	C31.567,5,30,6.567,30,8.5v0C30,10.433,31.567,12,33.5,12z"/><linearGradient id="TAne~B_yoORoj~F3SzNgMa" x1="2.089" x2="40" y1="23.5" y2="23.5" gradientUnits="userSpaceOnUse"><stop offset="0" stop-color="#2aa4f4"/><stop offset="1" stop-color="#007ad9"/></linearGradient><path fill="url(#TAne~B_yoORoj~F3SzNgMa)" d="M34,12h-2h-4v2h3.652l-3.13,18h-6.676L18,22H9c-3.578,1.789-6.355,5.978-6.902,11.135	C1.992,34.136,2.808,35,3.815,35H17h6h5h2h2l8-8C39.634,22.078,37,15,34,12z"/><path fill="#565b5e" d="M25,14h3v-2h-3c-0.552,0-1,0.448-1,1v0C24,13.552,24.448,14,25,14z"/></svg>