<svg xmlns="http://www.w3.org/2000/svg" baseProfile="basic" viewBox="0 0 48 48"><linearGradient id="Xfeb2ANkiLrn2PxL5jJHLa" x1="3.851" x2="34.471" y1="2.596" y2="33.216" gradientUnits="userSpaceOnUse"><stop offset="0" stop-color="#6d7479"/><stop offset="1" stop-color="#323538"/></linearGradient><path fill="url(#Xfeb2ANkiLrn2PxL5jJHLa)" d="M33.244,25l-9.121-12h1.18c0.84,0,1.631,0.392,2.139,1.061l7.059,9.287l7.059-9.287	C42.067,13.392,42.858,13,43.698,13h1.18l-9.121,12l9.547,12.56h-1.18c-0.84,0-1.631-0.392-2.139-1.061L34.5,26.652l-7.485,9.847	c-0.508,0.668-1.299,1.061-2.139,1.061h-1.18L33.244,25z M4,26v0.783c0,4.199,2.776,8.032,6.868,8.972	c4.439,1.02,8.49-1.247,10.228-4.842C21.366,30.355,21.928,30,22.547,30h1.028c-1.319,4.655-5.616,8.059-10.707,7.999	C6.777,37.927,2,32.694,2,26.142V26v-2l0-0.716c0-5.427,3.812-10.273,9.171-11.136C18.055,11.039,24,16.325,24,23v3H4z M4,24h18v-1	c0-5.648-5.202-10.08-11.076-8.768C6.804,15.153,4,19.002,4,23.71V24z"/></svg>