<svg xmlns="http://www.w3.org/2000/svg" viewBox="0 0 48 48"><linearGradient id="kCL2RmxHd092Ks3NE-0_Ja" x1="12.089" x2="33.615" y1="8.699" y2="36.357" gradientUnits="userSpaceOnUse"><stop offset="0" stop-color="#00b6ce"/><stop offset=".371" stop-color="#00b2cb"/><stop offset=".722" stop-color="#00a7c1"/><stop offset="1" stop-color="#0098b5"/></linearGradient><path fill="url(#kCL2RmxHd092Ks3NE-0_Ja)" d="M42.716,17C39.875,9.412,32.579,4,24,4c-6.753,0-12.711,3.356-16.332,8.481L14.595,17H42.716z M42.716,31h-28.11L7.67,35.522C11.291,40.645,17.249,44,24,44C32.579,44,39.875,38.588,42.716,31z"/><linearGradient id="kCL2RmxHd092Ks3NE-0_Jb" x1="20.654" x2="35.289" y1="10.047" y2="35.551" gradientUnits="userSpaceOnUse"><stop offset="0" stop-color="#ffd000"/><stop offset="1" stop-color="#ffc107"/></linearGradient><path fill="url(#kCL2RmxHd092Ks3NE-0_Jb)" d="M25.333,24.005L14.605,31h28.11C43.532,28.818,44,26.467,44,24s-0.468-4.818-1.284-7H14.595	L25.333,24.005z"/><linearGradient id="kCL2RmxHd092Ks3NE-0_Jc" x1="9.053" x2="18.935" y1="15.709" y2="34.615" gradientUnits="userSpaceOnUse"><stop offset="0" stop-color="#636363"/><stop offset=".998" stop-color="#3b3b3b"/></linearGradient><path fill="url(#kCL2RmxHd092Ks3NE-0_Jc)" d="M25.333,24.005L14.595,17l-6.927-4.519C5.365,15.739,4,19.707,4,24	c0,4.294,1.366,8.263,3.67,11.522L14.605,31L25.333,24.005z"/></svg>