<svg xmlns="http://www.w3.org/2000/svg" xmlns:xlink="http://www.w3.org/1999/xlink" data-name="Слой 1" viewBox="0 0 48 48"><defs><linearGradient id="YBdYXIUBZle5RDdSI813va" x1="10.806" x2="18.418" y1="-1.741" y2="65.365" data-name="Безымянный градиент 143" gradientUnits="userSpaceOnUse"><stop offset="0" stop-color="#889097"/><stop offset="1" stop-color="#4c5963"/></linearGradient><linearGradient id="YBdYXIUBZle5RDdSI813vb" x1="26.598" x2="34.21" y1="-3.575" y2="63.53" xlink:href="#YBdYXIUBZle5RDdSI813va"/></defs><path fill="#64717c" d="M22,44a.99974.99974,0,0,1-1-1V7a3,3,0,0,0-6,0,1,1,0,0,1-2,0A5,5,0,0,1,23,7V43A.99974.99974,0,0,1,22,44Z"/><path fill="#64717c" d="M38,44a.99974.99974,0,0,1-1-1V7a3,3,0,0,0-6,0,1,1,0,0,1-2,0A5,5,0,0,1,39,7V43A.99974.99974,0,0,1,38,44Z"/><path fill="url(#YBdYXIUBZle5RDdSI813va)" d="M14,6h0a4,4,0,0,1,4,4V43a1,1,0,0,1-1,1H11a1,1,0,0,1-1-1V10a4,4,0,0,1,4-4Z"/><path fill="url(#YBdYXIUBZle5RDdSI813vb)" d="M30,6h0a4,4,0,0,1,4,4V43a1,1,0,0,1-1,1H27a1,1,0,0,1-1-1V10a4,4,0,0,1,4-4Z"/><rect width="10" height="2" x="9" y="15" fill="#889097" rx="1"/><rect width="10" height="2" x="9" y="24" fill="#889097" rx="1"/><rect width="10" height="2" x="9" y="33" fill="#889097" rx="1"/><rect width="10" height="2" x="25" y="15" fill="#889097" rx="1"/><rect width="10" height="2" x="25" y="24" fill="#889097" rx="1"/><rect width="10" height="2" x="25" y="33" fill="#889097" rx="1"/></svg>