<svg xmlns="http://www.w3.org/2000/svg" xmlns:xlink="http://www.w3.org/1999/xlink" data-name="Layer 1" viewBox="0 0 48 48"><defs><linearGradient id="cbEfsca4n55kI5dthHiYFa" x1="7" x2="7" y1="34.676" y2="18.935" data-name="Безымянный градиент 138" gradientUnits="userSpaceOnUse"><stop offset="0" stop-color="#b55b0d"/><stop offset=".227" stop-color="#b85f10"/><stop offset=".456" stop-color="#c06b1a"/><stop offset=".685" stop-color="#ce7f2a"/><stop offset=".913" stop-color="#e29b41"/><stop offset="1" stop-color="#eba84b"/></linearGradient><linearGradient id="cbEfsca4n55kI5dthHiYFd" x1="40" x2="40" y1="34.676" y2="18.935" xlink:href="#cbEfsca4n55kI5dthHiYFa"/><linearGradient id="cbEfsca4n55kI5dthHiYFe" x1="24" x2="24" y1="41.559" y2="11.193" xlink:href="#cbEfsca4n55kI5dthHiYFa"/><linearGradient id="cbEfsca4n55kI5dthHiYFf" x1="24" x2="24" y1="41.029" y2="4.668" xlink:href="#cbEfsca4n55kI5dthHiYFa"/><linearGradient id="cbEfsca4n55kI5dthHiYFb" x1="18.5" x2="18.5" y1="22.132" y2="10.924" data-name="Безымянный градиент 9" gradientUnits="userSpaceOnUse"><stop offset=".002" stop-color="#454545"/><stop offset=".013" stop-color="#464646"/><stop offset=".874" stop-color="#626262"/><stop offset="1" stop-color="#6d6d6d"/></linearGradient><linearGradient id="cbEfsca4n55kI5dthHiYFg" x1="29.5" x2="29.5" y1="22.132" y2="10.924" xlink:href="#cbEfsca4n55kI5dthHiYFb"/><linearGradient id="cbEfsca4n55kI5dthHiYFc" x1="18" x2="18" y1="17.235" y2="22.882" data-name="Безымянный градиент 8" gradientUnits="userSpaceOnUse"><stop offset="0" stop-color="#f9f9f9"/><stop offset="1" stop-color="#c2c8cc"/></linearGradient><linearGradient id="cbEfsca4n55kI5dthHiYFh" x1="29" x2="29" y1="17.235" y2="22.882" xlink:href="#cbEfsca4n55kI5dthHiYFc"/><linearGradient id="cbEfsca4n55kI5dthHiYFi" x1="24" x2="24" y1="30.353" y2="18.614" xlink:href="#cbEfsca4n55kI5dthHiYFb"/></defs><path fill="url(#cbEfsca4n55kI5dthHiYFa)" d="M13,19l-3.09957.60269A11,11,0,0,0,1,30.40046v.00007a2.14271,2.14271,0,0,0,2.55168,2.10331L13,30.66667Z"/><path fill="url(#cbEfsca4n55kI5dthHiYFd)" d="M34,19l3.09957.60269A11,11,0,0,1,46,30.40046v.00007a2.14271,2.14271,0,0,1-2.55168,2.10331L34,30.66667Z"/><path fill="url(#cbEfsca4n55kI5dthHiYFe)" d="M39.93474,14.98369,24,11,8.06526,14.98369a4,4,0,0,0-2.86117,5.03L9.14482,33.14939A4,4,0,0,0,12.97612,36H35.02388a4,4,0,0,0,3.8313-2.85061l3.94073-13.13574A4,4,0,0,0,39.93474,14.98369Z"/><path fill="url(#cbEfsca4n55kI5dthHiYFf)" d="M27.91724,9H20.08276a6,6,0,0,0-5.91836,6.98639L17.30367,34.822A5,5,0,0,0,22.23564,39h3.52872a5,5,0,0,0,4.932-4.178l3.13927-18.8356A6,6,0,0,0,27.91724,9Z"/><circle cx="18.5" cy="20.5" r="2.5" fill="url(#cbEfsca4n55kI5dthHiYFb)"/><circle cx="29.5" cy="20.5" r="2.5" fill="url(#cbEfsca4n55kI5dthHiYFg)"/><circle cx="18" cy="20" r="1" fill="url(#cbEfsca4n55kI5dthHiYFc)"/><circle cx="29" cy="20" r="1" fill="url(#cbEfsca4n55kI5dthHiYFh)"/><circle cx="12" cy="26" r="2" fill="#f09ca2"/><circle cx="36" cy="26" r="2" fill="#f09ca2"/><path fill="url(#cbEfsca4n55kI5dthHiYFi)" d="M24,30a4.004,4.004,0,0,1-4-4,1,1,0,0,1,2,0,2,2,0,0,0,4,0,1,1,0,0,1,2,0A4.004,4.004,0,0,1,24,30Z"/></svg>