<svg xmlns="http://www.w3.org/2000/svg" viewBox="0 0 48 48"><linearGradient id="wWu6qhfvzwzKI1gR3Hjzsa" x1="11.27" x2="36.73" y1="2493.259" y2="2518.72" gradientTransform="translate(0 -2484)" gradientUnits="userSpaceOnUse"><stop offset="0" stop-color="#d43a02"/><stop offset="1" stop-color="#b9360c"/></linearGradient><path fill="url(#wWu6qhfvzwzKI1gR3Hjzsa)" d="M36.902,34.536c6.932-7.126,6.775-18.521-0.351-25.453S18.03,2.308,11.098,9.433	c-6.797,6.987-6.797,18.116,0,25.103c0.018,0.019,0.03,0.04,0.048,0.059l0.059,0.059c0.047,0.048,0.094,0.095,0.142,0.142	l11.239,11.239c0.781,0.781,2.047,0.781,2.828,0c0,0,0,0,0,0l11.239-11.239c0.048-0.047,0.095-0.094,0.142-0.142l0.059-0.059	C36.873,34.576,36.885,34.554,36.902,34.536z"/><radialGradient id="wWu6qhfvzwzKI1gR3Hjzsb" cx="24" cy="-40" r="9.5" gradientTransform="matrix(1 0 0 -1 0 -18)" gradientUnits="userSpaceOnUse"><stop offset=".177"/><stop offset="1" stop-opacity="0"/></radialGradient><circle cx="24" cy="22" r="9.5" fill="url(#wWu6qhfvzwzKI1gR3Hjzsb)"/><linearGradient id="wWu6qhfvzwzKI1gR3Hjzsc" x1="21.794" x2="28.294" y1="1167.851" y2="1180.075" gradientTransform="translate(0 -1150)" gradientUnits="userSpaceOnUse"><stop offset="0" stop-color="#32bdef"/><stop offset="1" stop-color="#1ea2e4"/></linearGradient><circle cx="24" cy="22" r="8" fill="url(#wWu6qhfvzwzKI1gR3Hjzsc)"/><radialGradient id="wWu6qhfvzwzKI1gR3Hjzsd" cx="1.757" cy="1148.578" r="13.089" gradientTransform="translate(17.747 -1146.392) scale(1.012)" gradientUnits="userSpaceOnUse"><stop offset="0" stop-color="#4b4b4b"/><stop offset=".531" stop-color="#393939"/><stop offset="1" stop-color="#252525"/></radialGradient><circle cx="24" cy="22" r="5.176" fill="url(#wWu6qhfvzwzKI1gR3Hjzsd)"/><circle cx="20.706" cy="19.176" r="2.118" fill="#fff"/></svg>