<svg xmlns="http://www.w3.org/2000/svg" viewBox="0 0 48 48"><linearGradient id="pFpM0E6IA5~4A3JuC9DAIa" x1="6.414" x2="41.774" y1="-441.552" y2="-467.378" gradientTransform="matrix(1 0 0 -1 0 -427.89)" gradientUnits="userSpaceOnUse"><stop offset="0" stop-color="#28afea"/><stop offset="1" stop-color="#047ed6"/></linearGradient><path fill="url(#pFpM0E6IA5~4A3JuC9DAIa)" d="M6,40V12h36v28c0,1.1-0.9,2-2,2H8C6.9,42,6,41.1,6,40z"/><g opacity=".05"><path d="M17.418,31.372c0.322-0.244,0.658-0.489,0.999-0.73c0.543-0.374,1.077-0.77,1.587-1.175 c0.546-0.436,1.037-0.923,1.461-1.449c0.438-0.548,0.792-1.16,1.054-1.822c0.272-0.689,0.411-1.476,0.411-2.336 c0-0.823-0.145-1.588-0.43-2.271c-0.293-0.699-0.725-1.305-1.283-1.8c-0.549-0.484-1.217-0.858-1.987-1.11 c-0.743-0.246-1.584-0.37-2.499-0.37c-1.94,0-3.711,0.51-5.263,1.515c-0.286,0.186-0.456,0.499-0.456,0.839v3.108 c0,0.392,0.23,0.749,0.583,0.909c0.354,0.161,0.774,0.104,1.073-0.155c1.066-0.927,2.178-1.397,3.302-1.397 c0.523,0,0.917,0.095,1.108,0.268c0.169,0.152,0.251,0.418,0.251,0.813c0,0.225-0.038,0.437-0.112,0.631 c-0.08,0.21-0.211,0.428-0.388,0.648c-0.205,0.254-0.464,0.517-0.768,0.78c-0.333,0.287-0.725,0.592-1.166,0.907 c-0.461,0.33-0.948,0.702-1.459,1.112c-0.547,0.439-1.06,0.953-1.522,1.527c-0.474,0.589-0.871,1.26-1.183,1.994 c-0.326,0.773-0.491,1.646-0.491,2.597v1.208c0,0.552,0.448,1,1,1h10.667c0.552,0,1-0.448,1-1v-2.93c0-0.552-0.448-1-1-1h-4.883 c0.123-0.102,0.253-0.204,0.391-0.308L17.418,31.372z"/><path d="M36.529,27.919c-0.25-0.731-0.611-1.372-1.076-1.906c-0.476-0.544-1.055-0.97-1.724-1.268 c-1.247-0.552-2.892-0.572-4.136-0.138c0.118-0.239,0.255-0.454,0.408-0.642c0.254-0.313,0.549-0.546,0.902-0.714 c0.346-0.165,0.746-0.249,1.19-0.249c0.781,0,1.511,0.189,2.164,0.562c0.309,0.177,0.691,0.177,1-0.004 c0.307-0.178,0.497-0.51,0.497-0.864v-2.952c0-0.402-0.239-0.764-0.609-0.92c-0.82-0.348-1.892-0.517-3.275-0.517 c-1.265,0-2.429,0.254-3.458,0.756c-1.028,0.501-1.914,1.218-2.634,2.13c-0.704,0.893-1.251,1.973-1.625,3.21 c-0.366,1.209-0.552,2.568-0.552,4.04c0,1.261,0.145,2.409,0.429,3.414c0.295,1.044,0.732,1.946,1.301,2.683 c0.587,0.76,1.317,1.35,2.17,1.752c0.843,0.397,1.801,0.599,2.848,0.599c0.936,0,1.814-0.171,2.614-0.509 c0.799-0.338,1.499-0.812,2.084-1.409c0.582-0.597,1.041-1.307,1.362-2.108c0.322-0.803,0.486-1.673,0.486-2.587 C36.896,29.424,36.772,28.631,36.529,27.919z M29.203,30.345c0-0.245,0.033-0.467,0.098-0.656c0.06-0.176,0.136-0.314,0.241-0.436 c0.094-0.108,0.198-0.187,0.33-0.247c0.127-0.059,0.28-0.088,0.455-0.088c0.471,0,1.114,0,1.114,1.583 c0,0.299-0.035,0.57-0.104,0.808c-0.063,0.211-0.146,0.386-0.25,0.518c-0.094,0.121-0.196,0.207-0.325,0.272 c-0.234,0.119-0.573,0.118-0.79-0.007c-0.14-0.079-0.259-0.188-0.366-0.334c-0.121-0.165-0.219-0.366-0.289-0.599 C29.241,30.915,29.203,30.641,29.203,30.345z"/></g><g opacity=".07"><path d="M17.116,30.974c0.326-0.247,0.667-0.496,1.017-0.743c0.538-0.371,1.059-0.757,1.56-1.155 c0.518-0.412,0.982-0.873,1.382-1.37c0.405-0.507,0.735-1.076,0.979-1.693c0.249-0.63,0.376-1.354,0.376-2.152 c0-0.756-0.131-1.455-0.391-2.078c-0.264-0.63-0.651-1.174-1.153-1.618c-0.496-0.438-1.106-0.779-1.813-1.011 c-0.692-0.229-1.48-0.345-2.343-0.345c-1.842,0-3.521,0.482-4.99,1.434c-0.143,0.093-0.229,0.25-0.229,0.42v3.108 c0,0.196,0.114,0.374,0.293,0.455c0.178,0.082,0.387,0.051,0.535-0.078c1.16-1.009,2.382-1.521,3.63-1.521 c0.667,0,1.152,0.134,1.443,0.396c0.28,0.253,0.416,0.641,0.416,1.184c0,0.287-0.049,0.559-0.146,0.81 c-0.1,0.26-0.257,0.523-0.465,0.783c-0.224,0.277-0.504,0.563-0.831,0.846c-0.34,0.293-0.743,0.607-1.201,0.935 c-0.454,0.325-0.934,0.691-1.437,1.096c-0.518,0.416-1.005,0.904-1.446,1.451c-0.444,0.553-0.818,1.184-1.111,1.875 c-0.3,0.711-0.452,1.52-0.452,2.402v1.208c0,0.276,0.224,0.5,0.5,0.5h10.667c0.276,0,0.5-0.224,0.5-0.5v-2.93 c0-0.276-0.224-0.5-0.5-0.5h-6.079c0.12-0.165,0.272-0.336,0.454-0.509C16.521,31.445,16.8,31.21,17.116,30.974z"/><path d="M36.056,28.08c-0.229-0.67-0.558-1.254-0.979-1.738c-0.427-0.488-0.948-0.872-1.549-1.14c-0.6-0.266-1.273-0.4-2.003-0.4 c-1.105,0-2.04,0.271-2.794,0.806c0.042-0.202,0.094-0.396,0.154-0.58c0.177-0.537,0.422-1.001,0.729-1.378 c0.302-0.37,0.652-0.647,1.074-0.849c0.413-0.197,0.887-0.298,1.406-0.298c0.869,0,1.681,0.211,2.414,0.628 c0.154,0.089,0.346,0.087,0.498-0.002c0.154-0.09,0.249-0.255,0.249-0.433v-2.952c0-0.201-0.12-0.382-0.305-0.46 c-0.756-0.32-1.764-0.477-3.08-0.477c-1.188,0-2.278,0.237-3.239,0.705c-0.959,0.468-1.787,1.138-2.46,1.99 c-0.666,0.844-1.184,1.868-1.539,3.045c-0.352,1.161-0.53,2.472-0.53,3.896c0,1.213,0.138,2.316,0.41,3.278 c0.277,0.982,0.687,1.828,1.215,2.513c0.539,0.697,1.208,1.237,1.987,1.605c0.775,0.365,1.661,0.551,2.635,0.551 c0.868,0,1.683-0.158,2.42-0.47c0.736-0.312,1.382-0.747,1.92-1.297c0.537-0.551,0.96-1.206,1.257-1.946 c0.299-0.743,0.45-1.551,0.45-2.4C36.396,29.48,36.282,28.741,36.056,28.08z M30.327,28.418c0.752,0,1.614,0.236,1.614,2.083 c0,0.345-0.042,0.665-0.125,0.949c-0.08,0.271-0.192,0.501-0.335,0.684c-0.139,0.178-0.299,0.312-0.491,0.409 c-0.365,0.188-0.886,0.201-1.266-0.017c-0.201-0.114-0.372-0.269-0.521-0.472c-0.155-0.211-0.278-0.463-0.365-0.749 c-0.09-0.293-0.135-0.616-0.135-0.961c0-0.302,0.042-0.576,0.124-0.817c0.08-0.235,0.189-0.432,0.336-0.601 c0.14-0.162,0.303-0.285,0.5-0.375C29.856,28.463,30.08,28.418,30.327,28.418z"/></g><linearGradient id="pFpM0E6IA5~4A3JuC9DAIb" x1="6.42" x2="41.198" y1="-434.498" y2="-441.57" gradientTransform="matrix(1 0 0 -1 0 -427.89)" gradientUnits="userSpaceOnUse"><stop offset="0" stop-color="#0077d2"/><stop offset="1" stop-color="#0b59a2"/></linearGradient><path fill="url(#pFpM0E6IA5~4A3JuC9DAIb)" d="M42,8v6H6V8c0-1.1,0.9-2,2-2h32C41.1,6,42,6.9,42,8z"/><path d="M35.5,12.5L35.5,12.5c-1.657,0-3-1.343-3-3V6h6v3.5 C38.5,11.157,37.157,12.5,35.5,12.5z" opacity=".05"/><path d="M35.5,11.75L35.5,11.75c-1.243,0-2.25-1.007-2.25-2.25V6h4.5v3.5 C37.75,10.743,36.743,11.75,35.5,11.75z" opacity=".07"/><path d="M12.5,12.5L12.5,12.5c-1.657,0-3-1.343-3-3V6h6v3.5 C15.5,11.157,14.157,12.5,12.5,12.5z" opacity=".05"/><path d="M12.5,11.75L12.5,11.75c-1.243,0-2.25-1.007-2.25-2.25V6h4.5v3.5 C14.75,10.743,13.743,11.75,12.5,11.75z" opacity=".07"/><path fill="#3ccbf4" d="M12.5,11L12.5,11c-0.828,0-1.5-0.672-1.5-1.5v-4C11,4.672,11.672,4,12.5,4l0,0 C13.328,4,14,4.672,14,5.5v4C14,10.328,13.328,11,12.5,11z"/><path fill="#3ccbf4" d="M35.5,11L35.5,11c-0.828,0-1.5-0.672-1.5-1.5v-4C34,4.672,34.672,4,35.5,4l0,0 C36.328,4,37,4.672,37,5.5v4C37,10.328,36.328,11,35.5,11z"/><path fill="#fff" d="M15.108,32.682h6.799v2.93H11.24v-1.208c0-0.819,0.138-1.556,0.413-2.208 c0.276-0.652,0.623-1.237,1.04-1.756c0.418-0.518,0.874-0.977,1.37-1.375c0.495-0.398,0.967-0.759,1.414-1.079 c0.47-0.336,0.882-0.656,1.236-0.962c0.354-0.306,0.651-0.609,0.895-0.911c0.242-0.302,0.423-0.607,0.542-0.917 s0.179-0.64,0.179-0.989c0-0.687-0.193-1.204-0.581-1.555s-0.98-0.525-1.778-0.525c-1.379,0-2.698,0.548-3.958,1.644v-3.108 c1.394-0.902,2.967-1.354,4.719-1.354c0.813,0,1.541,0.106,2.186,0.319c0.646,0.212,1.191,0.516,1.639,0.911 s0.788,0.874,1.023,1.437c0.234,0.563,0.352,1.191,0.352,1.885c0,0.737-0.113,1.394-0.341,1.968s-0.529,1.096-0.905,1.565 c-0.377,0.47-0.812,0.9-1.303,1.291c-0.492,0.392-1.003,0.771-1.532,1.136c-0.358,0.253-0.703,0.505-1.034,0.755 c-0.332,0.249-0.625,0.495-0.878,0.737c-0.254,0.242-0.455,0.479-0.604,0.71C15.184,32.253,15.108,32.473,15.108,32.682z"/><path fill="#fff" d="M35.896,30.277c0,0.79-0.139,1.528-0.414,2.214c-0.275,0.687-0.66,1.28-1.151,1.784 c-0.492,0.503-1.078,0.898-1.756,1.185c-0.679,0.287-1.42,0.431-2.226,0.431c-0.901,0-1.709-0.167-2.421-0.503 s-1.313-0.822-1.806-1.459c-0.492-0.638-0.868-1.419-1.129-2.343c-0.262-0.925-0.392-1.972-0.392-3.143 c0-1.379,0.169-2.629,0.509-3.751c0.339-1.122,0.823-2.082,1.453-2.88s1.393-1.414,2.287-1.851 c0.895-0.436,1.901-0.654,3.02-0.654c1.237,0,2.198,0.146,2.885,0.437v2.952c-0.813-0.462-1.7-0.693-2.661-0.693 c-0.597,0-1.138,0.115-1.622,0.347s-0.899,0.559-1.246,0.983c-0.347,0.426-0.619,0.938-0.816,1.538 c-0.198,0.6-0.304,1.269-0.319,2.007h0.067c0.761-1.051,1.882-1.576,3.366-1.576c0.663,0,1.263,0.119,1.8,0.357 c0.537,0.239,0.995,0.576,1.376,1.012c0.38,0.437,0.674,0.96,0.883,1.571S35.896,29.532,35.896,30.277z M32.441,30.501 c0-1.722-0.705-2.583-2.114-2.583c-0.32,0-0.611,0.06-0.872,0.179c-0.261,0.12-0.484,0.287-0.671,0.504 c-0.187,0.216-0.33,0.471-0.431,0.766s-0.15,0.62-0.15,0.979c0,0.396,0.052,0.764,0.156,1.106c0.104,0.344,0.252,0.644,0.441,0.9 c0.19,0.258,0.416,0.461,0.677,0.609c0.261,0.149,0.552,0.224,0.872,0.224s0.609-0.064,0.867-0.195 c0.257-0.131,0.477-0.313,0.659-0.548c0.183-0.235,0.322-0.519,0.42-0.85C32.393,31.26,32.441,30.896,32.441,30.501z"/></svg>