<svg xmlns="http://www.w3.org/2000/svg" viewBox="0 0 48 48"><radialGradient id="bq9wtnakIwek3AG6AQ9MMa" cx="203.96" cy="-488.581" r="86.245" gradientTransform="matrix(.8571 0 0 1.0782 -126.38 607.692)" gradientUnits="userSpaceOnUse"><stop offset=".323" stop-color="#23d9d6"/><stop offset=".427" stop-color="#23d4d7"/><stop offset=".542" stop-color="#21c7dc"/><stop offset=".664" stop-color="#1fb0e2"/><stop offset=".789" stop-color="#1c91ec"/><stop offset=".917" stop-color="#1969f8"/><stop offset=".944" stop-color="#1860fb"/></radialGradient><path fill="url(#bq9wtnakIwek3AG6AQ9MMa)" d="M8,6h32c1.105,0,2,0.895,2,2v32c0,1.105-0.895,2-2,2H8c-1.105,0-2-0.895-2-2V8	C6,6.895,6.895,6,8,6z"/><path fill="#184f85" d="M42,40v-4H6v4c0,1.105,0.895,2,2,2h32C41.105,42,42,41.105,42,40z"/><path d="M8.5,41C7.673,41,7,40.327,7,39.5v-1C7,37.673,7.673,37,8.5,37h1	c0.827,0,1.5,0.673,1.5,1.5v1c0,0.827-0.673,1.5-1.5,1.5H8.5z" opacity=".05"/><path d="M8.5,40.5c-0.551,0-1-0.449-1-1v-1c0-0.551,0.449-1,1-1h1	c0.551,0,1,0.449,1,1v1c0,0.551-0.449,1-1,1H8.5z" opacity=".07"/><path fill="#fff" d="M9.5,40h-1C8.224,40,8,39.776,8,39.5v-1C8,38.224,8.224,38,8.5,38h1c0.276,0,0.5,0.224,0.5,0.5v1	C10,39.776,9.776,40,9.5,40z"/><path d="M10.5,18C9.673,18,9,17.327,9,16.5v-3c0-0.827,0.673-1.5,1.5-1.5h3	c0.827,0,1.5,0.673,1.5,1.5v3c0,0.827-0.673,1.5-1.5,1.5H10.5z" opacity=".05"/><path d="M10.5,17.5c-0.551,0-1-0.449-1-1v-3c0-0.551,0.449-1,1-1h3	c0.551,0,1,0.449,1,1v3c0,0.551-0.449,1-1,1H10.5z" opacity=".07"/><path fill="#fff" d="M13.5,17h-3c-0.276,0-0.5-0.224-0.5-0.5v-3c0-0.276,0.224-0.5,0.5-0.5h3c0.276,0,0.5,0.224,0.5,0.5v3	C14,16.776,13.776,17,13.5,17z"/><path d="M10.5,26C9.673,26,9,25.327,9,24.5v-3c0-0.827,0.673-1.5,1.5-1.5h3	c0.827,0,1.5,0.673,1.5,1.5v3c0,0.827-0.673,1.5-1.5,1.5H10.5z" opacity=".05"/><path d="M10.5,25.5c-0.551,0-1-0.449-1-1v-3c0-0.551,0.449-1,1-1h3	c0.551,0,1,0.449,1,1v3c0,0.551-0.449,1-1,1H10.5z" opacity=".07"/><path fill="#fff" d="M13.5,25h-3c-0.276,0-0.5-0.224-0.5-0.5v-3c0-0.276,0.224-0.5,0.5-0.5h3c0.276,0,0.5,0.224,0.5,0.5v3	C14,24.776,13.776,25,13.5,25z"/><path fill="#e52030" d="M44.888,42.734L5.266,3.112c-0.149-0.149-0.39-0.149-0.539,0L3.112,4.728	c-0.149,0.149-0.149,0.39,0,0.539l39.622,39.622c0.149,0.149,0.39,0.149,0.539,0l1.616-1.616	C45.037,43.124,45.037,42.882,44.888,42.734z"/></svg>