<svg xmlns="http://www.w3.org/2000/svg" xmlns:xlink="http://www.w3.org/1999/xlink" data-name="Слой 1" viewBox="0 0 48 48"><defs><linearGradient id="Uuhz7gDFN2fI98RVpM7q4a" x1="20" x2="20" y1="-.016" y2="8.231" data-name="Безымянный градиент 129" gradientUnits="userSpaceOnUse"><stop offset="0" stop-color="#ffd869"/><stop offset="1" stop-color="#fec52b"/></linearGradient><linearGradient id="Uuhz7gDFN2fI98RVpM7q4b" x1="24" x2="24" y1="-.016" y2="8.231" xlink:href="#Uuhz7gDFN2fI98RVpM7q4a"/><linearGradient id="Uuhz7gDFN2fI98RVpM7q4c" x1="28" x2="28" y1="-.016" y2="8.231" xlink:href="#Uuhz7gDFN2fI98RVpM7q4a"/><linearGradient id="Uuhz7gDFN2fI98RVpM7q4d" x1="22" x2="22" y1="-4.024" y2="8.346" xlink:href="#Uuhz7gDFN2fI98RVpM7q4a"/><linearGradient id="Uuhz7gDFN2fI98RVpM7q4e" x1="26" x2="26" y1="-4.024" y2="8.346" xlink:href="#Uuhz7gDFN2fI98RVpM7q4a"/><linearGradient id="Uuhz7gDFN2fI98RVpM7q4f" x1="13.853" x2="27.762" y1="3.768" y2="41.984" xlink:href="#Uuhz7gDFN2fI98RVpM7q4a"/><linearGradient id="Uuhz7gDFN2fI98RVpM7q4g" x1="35.291" x2="49.156" y1="-2.516" y2="35.578" xlink:href="#Uuhz7gDFN2fI98RVpM7q4a"/><linearGradient id="Uuhz7gDFN2fI98RVpM7q4h" x1="-1.008" x2="13.29" y1="7.241" y2="46.525" xlink:href="#Uuhz7gDFN2fI98RVpM7q4a"/><linearGradient id="Uuhz7gDFN2fI98RVpM7q4i" x1="24" x2="24" y1="27.804" y2="5.772" data-name="Безымянный градиент 18" gradientUnits="userSpaceOnUse"><stop offset=".002" stop-color="#454545"/><stop offset=".013" stop-color="#464646"/><stop offset=".874" stop-color="#626262"/><stop offset="1" stop-color="#6d6d6d"/></linearGradient></defs><path fill="url(#Uuhz7gDFN2fI98RVpM7q4a)" d="M21,6h0a0,0,0,0,1,0,0V8a0,0,0,0,1,0,0H19a0,0,0,0,1,0,0V8A2,2,0,0,1,21,6Z"/><rect width="2" height="2" x="21" y="6" fill="#565b5e"/><rect width="2" height="2" x="23" y="6" fill="url(#Uuhz7gDFN2fI98RVpM7q4b)"/><rect width="2" height="2" x="25" y="6" fill="#565b5e"/><path fill="url(#Uuhz7gDFN2fI98RVpM7q4c)" d="M27,6h0a2,2,0,0,1,2,2V8a0,0,0,0,1,0,0H27a0,0,0,0,1,0,0V6A0,0,0,0,1,27,6Z"/><rect width="2" height="3" x="19" y="8" fill="#565b5e"/><rect width="2" height="3" x="21" y="8" fill="url(#Uuhz7gDFN2fI98RVpM7q4d)"/><rect width="2" height="3" x="23" y="8" fill="#565b5e"/><rect width="2" height="3" x="25" y="8" fill="url(#Uuhz7gDFN2fI98RVpM7q4e)"/><rect width="2" height="3" x="27" y="8" fill="#565b5e"/><path fill="#565b5e" d="M37,42h6a1.00036,1.00036,0,0,0,1-1V36H36v5A1.00036,1.00036,0,0,0,37,42Z"/><path fill="#565b5e" d="M12,41V36H4v5a1.00036,1.00036,0,0,0,1,1h6A1.00036,1.00036,0,0,0,12,41Z"/><path fill="url(#Uuhz7gDFN2fI98RVpM7q4f)" d="M41,22l-2.243-8.97A3.99937,3.99937,0,0,0,34.877,10H13.123a4.00137,4.00137,0,0,0-3.881,3.03L7,22,5.2,24.4A5.99878,5.99878,0,0,0,4,28v8a1.99945,1.99945,0,0,0,2,2H42a1.99945,1.99945,0,0,0,2-2V28a6.001,6.001,0,0,0-1.2-3.6Z"/><circle cx="38.5" cy="29.5" r="2.5" fill="#fff"/><circle cx="9.5" cy="29.5" r="2.5" fill="#fff"/><path fill="#565b5e" d="M15,30.01087l1.497,3.743a2.00042,2.00042,0,0,0,1.857,1.257H29.646a2.00042,2.00042,0,0,0,1.857-1.257L33,30.01087Z"/><path fill="url(#Uuhz7gDFN2fI98RVpM7q4g)" d="M45,23H41V21a1.99945,1.99945,0,0,1,2-2h3a1.00036,1.00036,0,0,1,1,1v1A1.99945,1.99945,0,0,1,45,23Z"/><path fill="url(#Uuhz7gDFN2fI98RVpM7q4h)" d="M3,23H7V21a1.99945,1.99945,0,0,0-2-2H2a1.00036,1.00036,0,0,0-1,1v1A1.99945,1.99945,0,0,0,3,23Z"/><path fill="url(#Uuhz7gDFN2fI98RVpM7q4i)" d="M39.25,23l-.092-.123-.098-.392-2.243-8.97A1.99718,1.99718,0,0,0,34.877,12H13.123a1.99718,1.99718,0,0,0-1.94,1.515l-2.242,8.97-.098.392L8.75,23Z"/></svg>