<svg xmlns="http://www.w3.org/2000/svg" viewBox="0 0 48 48"><linearGradient id="KUwd9pTxUU1ZD5aDgx6oda" x1="25" x2="42" y1="36" y2="36" gradientUnits="userSpaceOnUse"><stop offset="0" stop-color="#3079d6"/><stop offset="1" stop-color="#297cd2"/></linearGradient><path fill="url(#KUwd9pTxUU1ZD5aDgx6oda)" d="M41.5,37h-16c-0.276,0-0.5-0.224-0.5-0.5v-1c0-0.276,0.224-0.5,0.5-0.5h16	c0.276,0,0.5,0.224,0.5,0.5v1C42,36.776,41.776,37,41.5,37z"/><path fill="#199be2" d="M16,30h-4c0,0,0,12.049,0,12.5c0,0.828,0.672,1.5,1.5,1.5s1.5-0.672,1.5-1.5C15,42.049,16,30,16,30z"/><linearGradient id="KUwd9pTxUU1ZD5aDgx6odb" x1="26" x2="33" y1="7.5" y2="7.5" gradientUnits="userSpaceOnUse"><stop offset="0" stop-color="#ffcf54"/><stop offset=".261" stop-color="#fdcb4d"/><stop offset=".639" stop-color="#f7c13a"/><stop offset="1" stop-color="#f0b421"/></linearGradient><path fill="url(#KUwd9pTxUU1ZD5aDgx6odb)" d="M26,7.5c0,1.932,1.567,3.5,3.499,3.5C31.435,11,33,9.432,33,7.5S31.435,4,29.499,4	C27.567,4,26,5.568,26,7.5z"/><linearGradient id="KUwd9pTxUU1ZD5aDgx6odc" x1="36" x2="42" y1="32" y2="32" gradientUnits="userSpaceOnUse"><stop offset="0" stop-color="#ffcf54"/><stop offset=".261" stop-color="#fdcb4d"/><stop offset=".639" stop-color="#f7c13a"/><stop offset="1" stop-color="#f0b421"/></linearGradient><path fill="url(#KUwd9pTxUU1ZD5aDgx6odc)" d="M36,32c0,1.656,1.343,3,2.999,3C40.658,35,42,33.656,42,32c0-1.656-1.342-3-3.001-3	C37.343,29,36,30.344,36,32z"/><path fill="#35c1f1" d="M19,12.5c0,1.932,1.567,3.5,3.499,3.5C24.435,16,26,14.432,26,12.5S24.435,9,22.499,9	C20.567,9,19,10.568,19,12.5z"/><path fill="#35c1f1" d="M10.464,15.464c-1.952,1.952-1.953,5.118-0.001,7.07l7.071-7.071	C15.583,13.511,12.416,13.513,10.464,15.464z"/><path fill="#35c1f1" d="M31.5,20c-0.828,0-1.5,0.672-1.5,1.5s0.672,1.5,1.5,1.5s1.5-0.672,1.5-1.5S32.328,20,31.5,20z"/><path fill="#35c1f1" d="M33.5,24c-0.828,0-1.5,0.672-1.5,1.5s0.672,1.5,1.5,1.5s1.5-0.672,1.5-1.5S34.328,24,33.5,24z"/><path fill="#35c1f1" d="M24.5,23c-0.828,0-1.5,0.672-1.5,1.5s0.672,1.5,1.5,1.5c0.828,0,1.5-0.672,1.5-1.5S25.328,23,24.5,23	z"/><path fill="#35c1f1" d="M28.5,25c-0.828,0-1.5,0.672-1.5,1.5s0.672,1.5,1.5,1.5c0.828,0,1.5-0.672,1.5-1.5S29.328,25,28.5,25	z"/><path fill="#35c1f1" d="M21,28c-0.552,0-1,0.448-1,1s0.448,1,1,1c0.552,0,1-0.448,1-1S21.552,28,21,28z"/><path fill="#35c1f1" d="M8,28c-0.552,0-1,0.448-1,1s0.448,1,1,1s1-0.448,1-1S8.552,28,8,28z"/><path fill="#35c1f1" d="M26,17.268V12.5l-3.149,0.394l-2.1-3.426l-9.28,5.23l-2.397,3.539L7.062,28.67L8,30h13l0.947-1.311	l-3.499-9.963l4.087-2.274l0.291,1.909c0.104,0.682,0.552,1.262,1.185,1.535l6.789,2.928l1.426-2.656L26,17.268z"/><path fill="#35c1f1" d="M32,25.5V30h-3.164l1.096-3.084l-0.924-1.826l-3.902-1.951l-1.229,2.724l2.699,1.584L25.4,29.872	C25.133,30.38,25,30.94,25,31.5c0,0.896,0.342,1.791,1.025,2.475C26.836,34.786,28.014,35,28.604,35H33c1.105,0,2-0.895,2-2v-7.5H32	z"/></svg>