<svg xmlns="http://www.w3.org/2000/svg" viewBox="0 0 48 48"><linearGradient id="GpFx29fdoGZviPrySvJupa" x1="4.436" x2="44.861" y1="13.228" y2="52.036" gradientUnits="userSpaceOnUse"><stop offset="0" stop-color="#f52537"/><stop offset=".293" stop-color="#f32536"/><stop offset=".465" stop-color="#ea2434"/><stop offset=".605" stop-color="#dc2231"/><stop offset=".729" stop-color="#c8202c"/><stop offset=".841" stop-color="#ae1e25"/><stop offset=".944" stop-color="#8f1a1d"/><stop offset="1" stop-color="#7a1818"/></linearGradient><path fill="url(#GpFx29fdoGZviPrySvJupa)" d="M34.7,23.9c-0.6-0.2-1-0.3-0.7-1.1c0.7-1.7,0.8-3.2,0-4.3c-1.4-2-5.3-1.9-9.7-0.1	c0,0-1.4,0.6-1-0.5c0.7-2.2,0.6-4-0.5-5C20.4,10.5,14,13,8.5,18.4C4.4,22.5,2,26.8,2,30.5C2,37.7,11.2,42,20.3,42	C32.1,42,40,35.2,40,29.8C40,26.5,37.2,24.7,34.7,23.9"/><path d="M17.856,39.996c-6.825,0-12.35-3.477-12.851-8.088c-0.203-1.871,0.421-3.762,1.807-5.467	c2.341-2.882,6.524-4.877,11.189-5.336c0.689-0.067,1.384-0.101,2.064-0.101c6.924,0,12.318,3.401,12.828,8.088	c0.205,1.925-0.424,3.845-1.817,5.555c-2.308,2.83-6.486,4.792-11.18,5.248C19.218,39.962,18.531,39.996,17.856,39.996z" opacity=".05"/><path d="M17.856,39.496c-6.569,0-11.88-3.286-12.354-7.642c-0.188-1.735,0.398-3.498,1.697-5.097	c2.259-2.78,6.314-4.708,10.851-5.154c0.673-0.065,1.351-0.099,2.016-0.099c6.664,0,11.85,3.214,12.331,7.642	c0.19,1.789-0.4,3.581-1.708,5.185c-2.225,2.729-6.277,4.623-10.841,5.066C19.186,39.463,18.516,39.496,17.856,39.496L17.856,39.496	z" opacity=".07"/><path fill="#fff" d="M31.9,29.2c-0.5-4.6-6.6-7.8-13.8-7.1C11,22.8,5.5,27.2,6,31.8s6.7,7.8,13.8,7.1	C27,38.2,32.4,33.9,31.9,29.2z"/><linearGradient id="GpFx29fdoGZviPrySvJupb" x1="8.013" x2="25.715" y1="23.432" y2="36.794" gradientUnits="userSpaceOnUse"><stop offset="0" stop-color="#6e6e6e"/><stop offset=".999" stop-color="#4d4d4d"/></linearGradient><path fill="url(#GpFx29fdoGZviPrySvJupb)" d="M20.9,30.4c-0.3,0.5-0.9,0.8-1.4,0.6c-0.5-0.2-0.6-0.8-0.4-1.3c0.3-0.5,0.9-0.8,1.3-0.5	C21,29.3,21.1,29.8,20.9,30.4 M17.6,32.8c-0.7,1-2.3,1.5-3.5,1s-1.5-1.7-0.8-2.6c0.7-1,2.2-1.4,3.4-1C18,30.6,18.4,31.8,17.6,32.8 M20.5,25.2C17,24.3,13.1,26,11.6,29c-1.5,3.1-0.1,6.5,3.5,7.6c3.6,1.2,7.9-0.6,9.4-3.9C26,29.5,24.1,26.1,20.5,25.2"/><linearGradient id="GpFx29fdoGZviPrySvJupc" x1="32.89" x2="54.166" y1="1.14" y2="40.289" gradientUnits="userSpaceOnUse"><stop offset="0" stop-color="#fed100"/><stop offset=".03" stop-color="#fdce00"/><stop offset="1" stop-color="#e36001"/></linearGradient><path fill="url(#GpFx29fdoGZviPrySvJupc)" d="M45.372,21.781C45.812,20.554,46,19.322,46,18c0-6.6-5.4-12-12-12c-0.5,0-1,0-1.5,0.1 c-0.8,0-1.5,0.7-1.5,1.5s0.7,1.5,1.5,1.5h0.1c0.1,0,0.1,0,0.1,0C33.1,9,33.6,9,34,9c5,0,9,4,9,9c0,1-0.2,2-0.5,2.9 c-0.1,0.2-0.1,0.4-0.1,0.6c0,0.828,0.672,1.5,1.5,1.5c0.149,0,0.291-0.029,0.427-0.069c0.01-0.003,0.02-0.006,0.029-0.009 C44.873,22.755,45.269,22.323,45.372,21.781z"/><linearGradient id="GpFx29fdoGZviPrySvJupd" x1="29.366" x2="50.642" y1="3.056" y2="42.205" gradientUnits="userSpaceOnUse"><stop offset="0" stop-color="#fed100"/><stop offset=".03" stop-color="#fdce00"/><stop offset="1" stop-color="#e36001"/></linearGradient><path fill="url(#GpFx29fdoGZviPrySvJupd)" d="M34,12h-0.7c0,0,0,0-0.1,0c-0.7,0.1-1.3,0.7-1.3,1.5s0.7,1.5,1.5,1.5h0.5c1.7,0,3,1.3,3,3 c0,0.3-0.1,0.7-0.2,1c-0.1,0.2-0.1,0.3-0.1,0.5c0,0.8,0.7,1.5,1.5,1.5c0.6,0,1.1-0.4,1.4-0.9V20c0-0.1,0-0.1,0.1-0.2 c0.3-0.6,0.4-1.2,0.4-1.8C40,14.7,37.3,12,34,12z"/></svg>