<svg xmlns="http://www.w3.org/2000/svg" viewBox="0 0 48 48"><path fill="#61e3a7" d="M44,28v14h-8V27h7C43.552,27,44,27.448,44,28z"/><path fill="#33c481" d="M36,27v15h-8V27H36z"/><path fill="#21a366" d="M28,19v23h-8V19c0-0.552,0.448-1,1-1h6C27.552,18,28,18.448,28,19z"/><path fill="#107c42" d="M20,24v18h-8V25c0-0.552,0.448-1,1-1H20z"/><path fill="#185c37" d="M12,30v12H4V31c0-0.552,0.448-1,1-1H12z"/><path fill="#33c481" d="M4.607,17.963l12.02-8.733l2.209,3.04l-12.02,8.733c-0.447,0.325-1.073,0.226-1.397-0.221	L4.386,19.36C4.06,18.914,4.159,18.288,4.607,17.963z"/><path fill="#33c481" d="M19.799,16.06l1.063-6.709c0.086-0.545-0.286-1.058-0.831-1.144l-6.709-1.063	c-0.44-0.07-0.745,0.428-0.483,0.788l6.062,8.344C19.162,16.635,19.729,16.499,19.799,16.06z"/><path fill="#107c42" d="M36.665,20.562c0.894-0.144,1.341-0.613,1.341-1.407c0-0.643-0.447-1.168-1.341-1.575	c-0.386-0.167-0.846-0.36-1.369-0.561c-1.463-0.571-2.462-1.189-2.996-1.855c-0.451-0.561-0.711-1.226-0.782-1.995	c-0.101-1.102,0.245-2.241,0.983-3.032c0.698-0.75,1.63-1.185,2.796-1.306v-1.34C35.295,7.22,35.505,7,35.763,7h0.433	c0.258,0,0.468,0.22,0.468,0.491v1.3c1.153,0.057,2.051,0.235,2.693,0.533c0.165,0.077,0.261,0.256,0.261,0.446v1.536	c0,0.353-0.347,0.596-0.652,0.446c-0.704-0.344-1.471-0.564-2.302-0.658c-0.425-0.049-0.936-0.064-1.401,0.025	c-0.791,0.155-1.271,0.68-1.272,1.441c-0.001,0.676,0.428,1.223,1.304,1.693c0.482,0.262,0.951,0.443,1.369,0.571	c1.372,0.47,2.35,1.111,2.944,1.777c0.594,0.666,0.891,1.471,0.891,2.416c0,1.089-0.331,1.967-0.994,2.632	c-0.663,0.666-1.61,1.071-2.841,1.215v1.644c0,0.271-0.21,0.491-0.468,0.491h-0.433c-0.258,0-0.468-0.22-0.468-0.491v-1.585	c-1.166-0.006-2.257-0.261-3.275-0.765c-0.165-0.082-0.269-0.263-0.269-0.455v-1.509c0-0.366,0.366-0.622,0.677-0.457	c0.27,0.143,0.585,0.28,0.945,0.411c0.719,0.262,1.36,0.413,1.922,0.453C35.775,20.631,36.233,20.62,36.665,20.562z"/></svg>