<svg xmlns="http://www.w3.org/2000/svg" viewBox="0 0 48 48"><linearGradient id="aZdq~D2rFbuK72syQRS5ia" x1="9.858" x2="38.142" y1="380.142" y2="351.858" gradientTransform="matrix(1 0 0 -1 0 390)" gradientUnits="userSpaceOnUse"><stop offset="0" stop-color="#33bef0"/><stop offset="1" stop-color="#0a85d9"/></linearGradient><path fill="url(#aZdq~D2rFbuK72syQRS5ia)" d="M44,24c0,11.045-8.955,20-20,20S4,35.045,4,24S12.955,4,24,4S44,12.955,44,24z"/><path d="M19.143,25.556l6.944,6.944c1.27,1.27,2.915,0.75,2.915-1.208V28h12	c1.103,0,2-0.897,2-2v-4c0-1.103-0.897-2-2-2h-12v-3.292c0-1.583-1.582-2.54-2.915-1.207l-6.944,6.944	C18.286,23.302,18.286,24.698,19.143,25.556z" opacity=".05"/><path d="M19.496,25.201l6.944,6.944c0.859,0.858,2.062,0.441,2.062-0.854V27.5	h12.5c0.827,0,1.5-0.672,1.5-1.5v-4c0-0.828-0.673-1.5-1.5-1.5h-12.5v-3.791c0-1.107-1.172-1.744-2.062-0.854l-6.944,6.944	C18.834,23.461,18.834,24.539,19.496,25.201z" opacity=".07"/><path fill="#fff" d="M19.85,24.847l6.944,6.944c0.446,0.446,1.208,0.131,1.208-0.5V27h13c0.552,0,1-0.448,1-1v-4	c0-0.552-0.448-1-1-1h-13v-4.292c0-0.63-0.762-0.946-1.208-0.5l-6.944,6.944C19.382,23.62,19.382,24.38,19.85,24.847z"/></svg>