<svg xmlns="http://www.w3.org/2000/svg" data-name="Слой 1" viewBox="0 0 48 48"><defs><radialGradient id="sUhK8mfQ6pnI7LrbEsoKzb" cx="20.765" cy="537.768" r="14.019" data-name="Безымянный градиент 15" gradientTransform="matrix(1.00538 0 0 -1 -.129 572)" gradientUnits="userSpaceOnUse"><stop offset="0" stop-color="#6e757b"/><stop offset="1" stop-color="#4a4e52"/></radialGradient><linearGradient id="sUhK8mfQ6pnI7LrbEsoKza" x1="19.597" x2="33.706" y1="4.912" y2="43.675" data-name="Безымянный градиент 107" gradientUnits="userSpaceOnUse"><stop offset="0" stop-color="#9dffce"/><stop offset="1" stop-color="#50d18d"/></linearGradient></defs><path fill="url(#sUhK8mfQ6pnI7LrbEsoKza)" d="M38,16.92513a14.0002,14.0002,0,0,0-28,0C10,25.04813,17,30.5,17,35v.2524H31V35C31,30.5,38,25.04813,38,16.92513Z"/><path fill="#21a366" d="M31,23a7,7,0,0,1-14,0c0-4.97,7-11,7-11S31,18.03,31,23Z"/><rect width="2" height="10" x="23" y="25" fill="#21a366"/><path fill="#33c481" d="M17,23a6.91332,6.91332,0,0,0,7,7V12S17,18.03,17,23Z"/><path fill="url(#sUhK8mfQ6pnI7LrbEsoKzb)" d="M31,35H17v3.03743a7.0001,7.0001,0,0,0,14,0Z"/></svg>