<svg xmlns="http://www.w3.org/2000/svg" xmlns:xlink="http://www.w3.org/1999/xlink" data-name="Слой 1" viewBox="0 0 48 48"><defs><linearGradient id="fGqOcEoW~K1Z3ZCYJzFj7a" x1="35.825" x2="33.672" y1="16.897" y2="11.354" gradientTransform="rotate(20 34.922 14.543)" gradientUnits="userSpaceOnUse"><stop offset=".002" stop-color="#454545"/><stop offset=".013" stop-color="#464646"/><stop offset=".874" stop-color="#626262"/><stop offset="1" stop-color="#6d6d6d"/></linearGradient><linearGradient id="fGqOcEoW~K1Z3ZCYJzFj7b" x1="45.565" x2="26.947" y1="30.565" y2="11.947" xlink:href="#fGqOcEoW~K1Z3ZCYJzFj7a"/></defs><rect width="38" height="34" x="5" y="7" fill="#ff8f6b" rx="2"/><polygon fill="#ed6c47" points="15 10 18.5 14 22 15 24 19 30 22 32 18 26 17 23 13 20 13 15 10"/><path fill="#ed6c47" d="M9,28l7.66365-3.86706a.5.5,0,0,1,.56789.1449L19.5,27l4.82859-3.86287a.5.5,0,0,1,.38837-.10375L31,24l2,5-8-2.5-5.63136,3.75424a.5.5,0,0,1-.657-.09063L16,27Z"/><path fill="#ed6c47" d="M37,31l.97551,3.902a.50005.50005,0,0,0,.08507.17874L41,39l-1.5-5,.5-3Z"/><path fill="#ed6c47" d="M22,38l4.5-2.5.46838-3.27869A.5.5,0,0,1,27.186,31.876L33,28l2,3-5.5,2-1.39868,3.72981a.5.5,0,0,1-.386.31763Z"/><path fill="#889097" d="M35.606,17.42188a1.00028,1.00028,0,0,1-.93994-.65821L29.06006,1.3418A1.00016,1.00016,0,0,1,30.93994.6582l5.606,15.42188a1.00085,1.00085,0,0,1-.93994,1.3418Z"/><path fill="url(#fGqOcEoW~K1Z3ZCYJzFj7a)" d="M32.92182,12.54277h4a1,1,0,0,1,1,1v3a0,0,0,0,1,0,0h-6a0,0,0,0,1,0,0v-3a1,1,0,0,1,1-1Z" transform="rotate(-20 34.922 14.543)"/><circle cx="38" cy="23" r="9" fill="url(#fGqOcEoW~K1Z3ZCYJzFj7b)"/><path d="M29,23a8.99006,8.99006,0,0,1,3.28-6.95l-.52-1.42a.99765.99765,0,0,1,.6-1.28L33.3,13,31.12,7H30.05l1.97,5.41a1.94641,1.94641,0,0,0-1.13,1.03,1.98361,1.98361,0,0,0-.07,1.53l.29.79A9.99693,9.99693,0,0,0,43,31.66V30.48A8.99617,8.99617,0,0,1,29,23Zm9.62-9.98-.28-.78a1.99635,1.99635,0,0,0-2.56-1.2L34.31,7H33.25l1.93,5.32.94-.34a1.01619,1.01619,0,0,1,.34-.06.99757.99757,0,0,1,.94.66L37.92,14H38a8.94066,8.94066,0,0,1,5,1.52V14.35A9.89032,9.89032,0,0,0,38.62,13.02Z" opacity=".05"/><path d="M29,23a8.99006,8.99006,0,0,1,3.28-6.95l-.52-1.42a.99765.99765,0,0,1,.6-1.28L33.3,13,31.12,7h-.53L32.66,12.71l-.47.17a1.46616,1.46616,0,0,0-.85.77,1.48226,1.48226,0,0,0-.05,1.15l.4,1.1A9.50059,9.50059,0,0,0,43,31.08v-.6A8.99617,8.99617,0,0,1,29,23Zm9.27-9.5-.4-1.09a1.51181,1.51181,0,0,0-1.41-.99,1.44048,1.44048,0,0,0-.51.09l-.47.17L33.78,7h-.53l1.93,5.32.94-.34a1.01619,1.01619,0,0,1,.34-.06.99757.99757,0,0,1,.94.66L37.92,14H38a8.94066,8.94066,0,0,1,5,1.52v-.59A9.4471,9.4471,0,0,0,38.27,13.5Z" opacity=".07"/></svg>