<svg xmlns="http://www.w3.org/2000/svg" viewBox="0 0 48 48"><path fill="#641d8c" d="M42,16H6c-1.104,0-2-0.896-2-2s0.896-2,2-2h36c1.104,0,2,0.896,2,2S43.104,16,42,16z"/><path fill="#7d22b3" d="M34,44c-1.104,0-2-0.896-2-2V6c0-1.104,0.896-2,2-2s2,0.896,2,2v36C36,43.104,35.104,44,34,44z"/><path fill="#7d22b3" d="M14,44c-1.104,0-2-0.896-2-2V6c0-1.104,0.896-2,2-2s2,0.896,2,2v36C16,43.104,15.104,44,14,44z"/><path fill="#ac4ad5" d="M32,18c-0.512,0-1.023-0.195-1.414-0.586c-0.781-0.781-0.781-2.047,0-2.828l4-4	c0.781-0.781,2.047-0.781,2.828,0s0.781,2.047,0,2.828l-4,4C33.023,17.805,32.512,18,32,18z"/><path fill="#ac4ad5" d="M12,18c-0.512,0-1.023-0.195-1.414-0.586c-0.781-0.781-0.781-2.047,0-2.828l4-4	c0.781-0.781,2.047-0.781,2.828,0s0.781,2.047,0,2.828l-4,4C13.023,17.805,12.512,18,12,18z"/><linearGradient id="Az9amidTF~0VO464lYAoBa" x1="18.766" x2="31.075" y1="58.352" y2="72.005" gradientTransform="matrix(-1 0 0 1 60 -34)" gradientUnits="userSpaceOnUse"><stop offset="0" stop-color="#ffcf54"/><stop offset=".261" stop-color="#fdcb4d"/><stop offset=".639" stop-color="#f7c13a"/><stop offset="1" stop-color="#f0b421"/></linearGradient><path fill="url(#Az9amidTF~0VO464lYAoBa)" d="M36,20v3h-6.5c-1.381,0-2.5,1.119-2.5,2.5c0,0.64,0.248,1.218,0.644,1.66 C26.687,27.511,26,28.422,26,29.5c0,1.078,0.687,1.989,1.644,2.34C27.248,32.282,27,32.86,27,33.5 c0,1.002,0.593,1.859,1.443,2.258C28.17,36.1,28,36.528,28,37c0,1.105,0.895,2,2,2h8.963C42.849,39,46,35.849,46,31.963v-5.63 C41.112,21.445,39.576,20,36,20z"/><linearGradient id="Az9amidTF~0VO464lYAoBb" x1="36" x2="42.568" y1="21.5" y2="21.5" gradientUnits="userSpaceOnUse"><stop offset="0" stop-color="#9c6000"/><stop offset=".028" stop-color="#a96e0b"/><stop offset=".097" stop-color="#c38c21"/><stop offset=".174" stop-color="#d9a434"/><stop offset=".261" stop-color="#eab742"/><stop offset=".362" stop-color="#f6c44c"/><stop offset=".493" stop-color="#fdcc52"/><stop offset=".754" stop-color="#ffce54"/></linearGradient><path fill="url(#Az9amidTF~0VO464lYAoBb)" d="M36.701,20.022C36.471,20.012,36.246,20,36,20v3h6.568	C40.33,20.969,38.867,20.156,36.701,20.022z"/><linearGradient id="Az9amidTF~0VO464lYAoBc" x1="-5.234" x2="7.075" y1="24.352" y2="38.005" gradientTransform="translate(12)" gradientUnits="userSpaceOnUse"><stop offset="0" stop-color="#ffcf54"/><stop offset=".261" stop-color="#fdcb4d"/><stop offset=".639" stop-color="#f7c13a"/><stop offset="1" stop-color="#f0b421"/></linearGradient><path fill="url(#Az9amidTF~0VO464lYAoBc)" d="M22,29.5c0-1.078-0.687-1.989-1.644-2.34C20.752,26.718,21,26.14,21,25.5 c0-1.381-1.119-2.5-2.5-2.5H12v-3c-3.576,0-5.112,1.445-10,6.333v5.63C2,35.849,5.151,39,9.037,39H18c1.105,0,2-0.895,2-2 c0-0.472-0.17-0.9-0.443-1.242C20.407,35.359,21,34.502,21,33.5c0-0.64-0.248-1.218-0.644-1.66C21.313,31.489,22,30.578,22,29.5z"/><linearGradient id="Az9amidTF~0VO464lYAoBd" x1="60" x2="66.568" y1="21.5" y2="21.5" gradientTransform="matrix(-1 0 0 1 72 0)" gradientUnits="userSpaceOnUse"><stop offset="0" stop-color="#9c6000"/><stop offset=".028" stop-color="#a96e0b"/><stop offset=".097" stop-color="#c38c21"/><stop offset=".174" stop-color="#d9a434"/><stop offset=".261" stop-color="#eab742"/><stop offset=".362" stop-color="#f6c44c"/><stop offset=".493" stop-color="#fdcc52"/><stop offset=".754" stop-color="#ffce54"/></linearGradient><path fill="url(#Az9amidTF~0VO464lYAoBd)" d="M11.299,20.022C11.529,20.012,11.754,20,12,20v3H5.432	C7.67,20.969,9.133,20.156,11.299,20.022z"/></svg>