<svg xmlns="http://www.w3.org/2000/svg" viewBox="0 0 48 48"><linearGradient id="uP2dWoo1wIdm106lidf~da" x1="20.519" x2="27.2" y1="4.256" y2="42.148" gradientUnits="userSpaceOnUse"><stop offset="0" stop-color="#4c5963"/><stop offset=".255" stop-color="#505d67"/><stop offset=".516" stop-color="#5c6871"/><stop offset=".779" stop-color="#717b83"/><stop offset="1" stop-color="#889097"/></linearGradient><circle cx="24" cy="24" r="20" fill="url(#uP2dWoo1wIdm106lidf~da)"/><linearGradient id="uP2dWoo1wIdm106lidf~db" x1="21.237" x2="26.445" y1="8.331" y2="37.869" gradientUnits="userSpaceOnUse"><stop offset="0" stop-color="#889097"/><stop offset="1" stop-color="#3d474f"/></linearGradient><circle cx="24" cy="24" r="16" fill="url(#uP2dWoo1wIdm106lidf~db)"/><path fill="none" stroke="#1d1d1b" stroke-width="2" d="M29.933,34H19c-1.104,0-2-0.896-2-2V16c0-1.104,0.896-2,2-2 s2,0.896,2,2v14h8.933c1.104,0,2,0.896,2,2S31.037,34,29.933,34z" opacity=".05"/><path fill="none" stroke="#000" d="M29.933,34H19c-1.104,0-2-0.896-2-2V16c0-1.104,0.896-2,2-2s2,0.896,2,2v14h8.933 c1.104,0,2,0.896,2,2S31.037,34,29.933,34z" opacity=".07"/><g><path fill="#ccc" d="M29.933,34H19c-1.104,0-2-0.896-2-2V16c0-1.104,0.896-2,2-2s2,0.896,2,2v14h8.933 c1.104,0,2,0.896,2,2S31.037,34,29.933,34z"/></g></svg>