<svg xmlns="http://www.w3.org/2000/svg" viewBox="0 0 48 48"><linearGradient id="rheljtFpd5f6m2HvRDOmSa" x1="24" x2="24" y1="47.326" y2="33.688" gradientUnits="userSpaceOnUse"><stop offset="0" stop-color="#6d6d6d"/><stop offset=".126" stop-color="#626262"/><stop offset=".886" stop-color="#464646"/><stop offset="1" stop-color="#454545"/></linearGradient><path fill="url(#rheljtFpd5f6m2HvRDOmSa)" d="M30,36H18v7c0,1.105,0.895,2,2,2h8c1.105,0,2-0.895,2-2V36z"/><linearGradient id="rheljtFpd5f6m2HvRDOmSb" x1="15.857" x2="29.963" y1="-8.831" y2="29.926" gradientUnits="userSpaceOnUse"><stop offset="0" stop-color="#37c6d0"/><stop offset="1" stop-color="#1a9ba1"/></linearGradient><path fill="url(#rheljtFpd5f6m2HvRDOmSb)" d="M34,3H14c-0.552,0-1,0.448-1,1v13.64c0,3.383,0.572,6.741,1.692,9.933L18,37h12l3.252-9.106	C34.409,24.655,35,21.242,35,17.804V4C35,3.448,34.552,3,34,3z"/><path fill="#37c6d0" d="M34,3H14c-0.552,0-1,0.448-1,1v3h22V4C35,3.448,34.552,3,34,3z"/><path d="M27,14c1.105,0,2,0.895,2,2v6c0,1.105-0.895,2-2,2h-6c-1.105,0-2-0.895-2-2v-6c0-1.105,0.895-2,2-2H27 M27,13h-6 c-1.654,0-3,1.346-3,3v6c0,1.654,1.346,3,3,3h6c1.654,0,3-1.346,3-3v-6C30,14.346,28.654,13,27,13L27,13z" opacity=".05"/><path d="M27,14c1.105,0,2,0.895,2,2v6c0,1.105-0.895,2-2,2h-6c-1.105,0-2-0.895-2-2v-6c0-1.105,0.895-2,2-2H27 M27,13.5h-6 c-1.379,0-2.5,1.122-2.5,2.5v6c0,1.378,1.121,2.5,2.5,2.5h6c1.379,0,2.5-1.122,2.5-2.5v-6C29.5,14.622,28.379,13.5,27,13.5 L27,13.5z" opacity=".07"/><path fill="#37c6d0" d="M27,14h-6c-1.105,0-2,0.895-2,2v6c0,1.105,0.895,2,2,2h6c1.105,0,2-0.895,2-2v-6 C29,14.895,28.105,14,27,14z"/></svg>