<svg xmlns="http://www.w3.org/2000/svg" viewBox="0 0 48 48"><path fill="#33c481" d="M39,16.185l-7.168-7.168c0,0-22.646,18.343-24.456,20.154c-3.168,3.168-3.168,8.303,0,11.471	c3.168,3.167,8.303,3.167,11.471,0C20.657,38.83,39,16.185,39,16.185z"/><linearGradient id="hsVp6GdsjjK4pjJFEfq6za" x1="1.941" x2="35.946" y1="46.075" y2="12.07" gradientUnits="userSpaceOnUse"><stop offset="0" stop-color="#9dffce"/><stop offset="1" stop-color="#50d18d"/></linearGradient><path fill="url(#hsVp6GdsjjK4pjJFEfq6za)" d="M37.035,15.017l-4-4c0,0-25.573,22.79-26.638,23.855c-1.863,1.863-1.863,4.884,0,6.747	c1.863,1.863,4.884,1.863,6.747,0C14.21,40.554,37.035,15.017,37.035,15.017z"/><path fill="#21a366" d="M43.001,13.767c0.629-0.55,1.035-1.349,1.035-2.25c0-0.985-0.482-1.852-1.215-2.399	c0.135-0.342,0.215-0.711,0.215-1.101c0-1.657-1.343-3-3-3c-0.537,0-1.034,0.153-1.47,0.4c-0.532-0.839-1.463-1.4-2.53-1.4	c-0.772,0-1.468,0.3-2,0.779c-0.532-0.479-1.228-0.779-2-0.779c-1.131,0-2.104,0.634-2.616,1.558	c-0.545-0.35-1.189-0.558-1.884-0.558c-1.933,0-3.5,1.567-3.5,3.5c0,0.546,0.136,1.056,0.359,1.517	c-0.827,0.733-1.359,1.791-1.359,2.983c0,1.924,1.359,3.528,3.169,3.911c-0.099,0.348-0.169,0.709-0.169,1.089c0,2.209,1.791,4,4,4	c0.38,0,0.741-0.07,1.089-0.169c0.383,1.81,1.987,3.169,3.911,3.169c1.192,0,2.25-0.532,2.983-1.359	c0.461,0.223,0.971,0.359,1.517,0.359c1.933,0,3.5-1.567,3.5-3.5c0-0.695-0.209-1.34-0.558-1.884	c0.925-0.511,1.558-1.484,1.558-2.616C44.035,15.115,43.63,14.316,43.001,13.767z"/><path fill="#e52030" d="M44.888,42.733L5.266,3.112c-0.149-0.149-0.39-0.149-0.539,0L3.112,4.728	c-0.149,0.149-0.149,0.39,0,0.539l39.622,39.622c0.149,0.149,0.39,0.149,0.539,0l1.616-1.616	C45.037,43.123,45.037,42.881,44.888,42.733z"/></svg>