<svg xmlns="http://www.w3.org/2000/svg" data-name="Слой 1" viewBox="0 0 48 48"><defs><linearGradient id="HjbBCD2dHeU1a_no3TDxFb" x1="15.396" x2="28.593" y1="11.812" y2="48.071" data-name="Безымянный градиент 186" gradientUnits="userSpaceOnUse"><stop offset="0" stop-color="#ffcf54"/><stop offset=".261" stop-color="#fdcb4d"/><stop offset=".639" stop-color="#f7c13a"/><stop offset="1" stop-color="#f0b421"/></linearGradient><linearGradient id="HjbBCD2dHeU1a_no3TDxFc" x1="24" x2="24" y1="9.937" y2="20.114" data-name="Безымянный градиент 121" gradientUnits="userSpaceOnUse"><stop offset="0" stop-color="#f44f5a"/><stop offset=".443" stop-color="#ee3d4a"/><stop offset="1" stop-color="#e52030"/></linearGradient><radialGradient id="HjbBCD2dHeU1a_no3TDxFa" cx="24" cy="21.002" r="21.263" data-name="Безымянный градиент 291" gradientUnits="userSpaceOnUse"><stop offset="0" stop-color="#d4943b"/><stop offset="1" stop-color="#c2620e"/></radialGradient></defs><path fill="url(#HjbBCD2dHeU1a_no3TDxFa)" d="M40.14136,31.62065,25.9,21.03447l14.11341-9.671a1.99994,1.99994,0,0,0,.28369-3.064l-3.5943-3.59436a2,2,0,0,0-3.064.28369l-9.671,14.11347L13.38165,4.861a2,2,0,0,0-3.01928-.22107L7.63763,7.36461A2,2,0,0,0,7.8587,10.384L22.14331,21.0023,7.8587,31.62065a2,2,0,0,0-.22107,3.01929l2.72474,2.72467a1.99993,1.99993,0,0,0,3.01928-.22107L24,22.859,34.61835,37.14354a1.99993,1.99993,0,0,0,3.01928.22107l2.72467-2.72467A2,2,0,0,0,40.14136,31.62065Z"/><path fill="url(#HjbBCD2dHeU1a_no3TDxFb)" d="M31.74565,45.0023H16.25435A2,2,0,0,1,14.26859,42.764L17,20.0023H31L33.73141,42.764A2,2,0,0,1,31.74565,45.0023Z"/><path fill="url(#HjbBCD2dHeU1a_no3TDxFc)" d="M17,19.2523l5.4213-6.527a2.085,2.085,0,0,1,3.1574,0L31,19.2523Z"/><rect width="16" height="2" x="16" y="19.002" fill="#b31523" rx="1"/><path fill="#5c2415" d="M24,36.0023h0a3,3,0,0,1,3,3v6a0,0,0,0,1,0,0H21a0,0,0,0,1,0,0v-6A3,3,0,0,1,24,36.0023Z"/><path d="M27.68,13.68229l-.29.44-.3.42,3,3.62.42-.29.41-.28Zm5.06,12.44-.55-.42-.55-.4,1.12,9.33.6.81.59.81Zm-17.48,0-1.21,10.13.59-.81.6-.81,1.12-9.33-.55.4Zm5.17-11.78-.31-.42-2.86,3.45.4.3.4.3,2.68-3.22Z" opacity=".05"/><path d="M27.39,14.1223l-.3.42,3,3.62.42-.29Zm4.8,11.58-.55-.4,1.12,9.33.6.81Zm-17.55,9.74.6-.81,1.12-9.33-.55.4Zm5.79-21.1-2.77,3.33.4.3,2.68-3.22Z" opacity=".07"/><circle cx="24" cy="28.002" r="2" fill="#5c2415"/></svg>