<svg xmlns="http://www.w3.org/2000/svg" viewBox="0 0 48 48"><linearGradient id="Vv~KjtrRDN6x_vR9niMrea" x1="9" x2="39" y1="23.89" y2="23.89" gradientTransform="matrix(1 0 0 -1 0 47.89)" gradientUnits="userSpaceOnUse"><stop offset="0" stop-color="#fede00"/><stop offset="1" stop-color="#ffd000"/></linearGradient><path fill="url(#Vv~KjtrRDN6x_vR9niMrea)" d="M39,41c0,1.105-0.895,2-2,2H11c-1.105,0-2-0.895-2-2V7c0-1.105,0.895-2,2-2h26	c1.105,0,2,0.895,2,2V41z"/><linearGradient id="Vv~KjtrRDN6x_vR9niMreb" x1="21.001" x2="27" y1="22.39" y2="22.39" gradientTransform="matrix(1 0 0 -1 0 47.89)" gradientUnits="userSpaceOnUse"><stop offset="0" stop-color="#4b4b4b"/><stop offset="1" stop-color="#3b3b3b"/></linearGradient><path fill="url(#Vv~KjtrRDN6x_vR9niMreb)" d="M26.154,20.818C26.068,20.344,25.654,20,25.171,20h-2.342c-0.483,0-0.897,0.342-0.983,0.817	c-0.275,1.511-0.823,4.793-0.845,7.047c-0.015,1.508,1.047,2.88,2.538,3.102C25.4,31.243,27,29.808,27,28	C27,25.745,26.435,22.361,26.154,20.818z M24,29c-0.552,0-1-0.448-1-1s0.448-1,1-1s1,0.448,1,1S24.552,29,24,29z"/><path fill="#e97c01" d="M23.457,17h-0.913C22.243,17,22,16.757,22,16.457v-0.913c0-0.3,0.243-0.543,0.543-0.543h0.913	c0.3,0,0.543,0.243,0.543,0.543v0.913C24,16.757,23.757,17,23.457,17z"/><path fill="#e97c01" d="M25.457,19h-0.913C24.243,19,24,18.757,24,18.457v-0.913c0-0.3,0.243-0.543,0.543-0.543h0.913	c0.3,0,0.543,0.243,0.543,0.543v0.913C26,18.757,25.757,19,25.457,19z"/><path fill="#e97c01" d="M23.457,13h-0.913C22.243,13,22,12.757,22,12.457v-0.913c0-0.3,0.243-0.543,0.543-0.543h0.913	c0.3,0,0.543,0.243,0.543,0.543v0.913C24,12.757,23.757,13,23.457,13z"/><path fill="#e97c01" d="M25.457,15h-0.913C24.243,15,24,14.757,24,14.457v-0.913c0-0.3,0.243-0.543,0.543-0.543h0.913	c0.3,0,0.543,0.243,0.543,0.543v0.913C26,14.757,25.757,15,25.457,15z"/><path fill="#e97c01" d="M23.457,9h-0.913C22.243,9,22,8.757,22,8.457V7.543C22,7.243,22.243,7,22.543,7h0.913	C23.757,7,24,7.243,24,7.543v0.913C24,8.757,23.757,9,23.457,9z"/><path fill="#e97c01" d="M25.457,11h-0.913C24.243,11,24,10.757,24,10.457V9.543C24,9.243,24.243,9,24.543,9h0.913	C25.757,9,26,9.243,26,9.543v0.913C26,10.757,25.757,11,25.457,11z"/><path fill="#e97c01" d="M25.457,7h-0.913C24.243,7,24,6.757,24,6.457V5.543C24,5.243,24.243,5,24.543,5h0.913	C25.757,5,26,5.243,26,5.543v0.913C26,6.757,25.757,7,25.457,7z"/></svg>