<svg xmlns="http://www.w3.org/2000/svg" viewBox="0 0 48 48"><path fill="#5059c9" d="M24,10c-7.7,0-14,6.3-14,14s6.3,14,14,14s14-6.3,14-14S31.7,10,24,10L24,10z"/><path fill="#7b83eb" d="M24,14c-5.5,0-10,4.5-10,10s4.5,10,10,10s10-4.5,10-10S29.5,14,24,14L24,14z"/><linearGradient id="1w3mSTub786xVz~3E3epqa" x1="20.758" x2="27.366" y1="19.043" y2="29.146" gradientUnits="userSpaceOnUse"><stop offset="0" stop-color="#5961c3"/><stop offset="1" stop-color="#3a41ac"/></linearGradient><path fill="url(#1w3mSTub786xVz~3E3epqa)" d="M24,30c-3.3,0-6-2.7-6-6s2.7-6,6-6s6,2.7,6,6S27.3,30,24,30z"/></svg>