<svg xmlns="http://www.w3.org/2000/svg" viewBox="0 0 48 48"><linearGradient id="QUjlqAV3F~EeOo2CVWInza" x1="17.122" x2="36.237" y1="3.942" y2="42.492" gradientUnits="userSpaceOnUse"><stop offset="0" stop-color="#32bdef"/><stop offset="1" stop-color="#1ea2e4"/></linearGradient><path fill="url(#QUjlqAV3F~EeOo2CVWInza)" d="M23.828,6.172L6.2,23.8c-1.574,1.574-1.574,4.126,0,5.7l12.3,12.3	c1.574,1.574,4.126,1.574,5.7,0l17.628-17.628c0.75-0.75,1.172-1.768,1.172-2.828V9c0-2.2-1.8-4-4-4H26.657	C25.596,5,24.579,5.421,23.828,6.172z M37,13c-1.1,0-2-0.9-2-2s0.9-2,2-2s2,0.9,2,2S38.1,13,37,13"/></svg>