<svg xmlns="http://www.w3.org/2000/svg" viewBox="0 0 48 48"><linearGradient id="I7Sfzn_9LKyk34dmNTNu~a" x1="17.334" x2="29.492" y1="4.705" y2="32.953" gradientUnits="userSpaceOnUse"><stop offset="0" stop-color="#32bdef"/><stop offset="1" stop-color="#1ea2e4"/></linearGradient><path fill="url(#I7Sfzn_9LKyk34dmNTNu~a)" d="M31.19,22H27V6c0-0.552-0.448-1-1-1h-4c-0.552,0-1,0.448-1,1v16h-4.19	c-0.72,0-1.08,0.87-0.571,1.379l6.701,6.701c0.586,0.586,1.536,0.586,2.121,0l6.701-6.701C32.271,22.87,31.91,22,31.19,22z"/><linearGradient id="I7Sfzn_9LKyk34dmNTNu~b" x1="39.761" x2="43.605" y1="31.57" y2="42.462" gradientUnits="userSpaceOnUse"><stop offset="0" stop-color="#32bdef"/><stop offset="1" stop-color="#1ea2e4"/></linearGradient><path fill="url(#I7Sfzn_9LKyk34dmNTNu~b)" d="M39,33v10l4.828-4.828c0.75-0.75,1.172-1.768,1.172-2.828V33c0-0.552-0.448-1-1-1h-4	C39.448,32,39,32.448,39,33z"/><linearGradient id="I7Sfzn_9LKyk34dmNTNu~c" x1="9" x2="39" y1="40" y2="40" gradientUnits="userSpaceOnUse"><stop offset="0" stop-color="#0362b0"/><stop offset=".112" stop-color="#036abd"/><stop offset=".258" stop-color="#036fc5"/><stop offset=".5" stop-color="#0370c8"/><stop offset=".742" stop-color="#036fc5"/><stop offset=".888" stop-color="#036abd"/><stop offset="1" stop-color="#0362b0"/></linearGradient><rect width="30" height="6" x="9" y="37" fill="url(#I7Sfzn_9LKyk34dmNTNu~c)"/><linearGradient id="I7Sfzn_9LKyk34dmNTNu~d" x1="60.761" x2="64.605" y1="31.57" y2="42.462" gradientTransform="matrix(-1 0 0 1 69 0)" gradientUnits="userSpaceOnUse"><stop offset="0" stop-color="#32bdef"/><stop offset="1" stop-color="#1ea2e4"/></linearGradient><path fill="url(#I7Sfzn_9LKyk34dmNTNu~d)" d="M9,33v10l-4.828-4.828C3.421,37.421,3,36.404,3,35.343V33c0-0.552,0.448-1,1-1h4	C8.552,32,9,32.448,9,33z"/></svg>