<svg xmlns="http://www.w3.org/2000/svg" viewBox="0 0 48 48"><linearGradient id="tMYKFoTNZktQgNqIA6IbOa" x1="16.211" x2="35.661" y1="3.854" y2="35.835" gradientUnits="userSpaceOnUse"><stop offset=".008" stop-color="#f44f5a"/><stop offset=".447" stop-color="#ee3d4a"/><stop offset="1" stop-color="#e52030"/></linearGradient><path fill="url(#tMYKFoTNZktQgNqIA6IbOa)" d="M24,4C15.421,4,8.125,9.412,5.284,17h37.431C39.875,9.412,32.579,4,24,4z"/><linearGradient id="tMYKFoTNZktQgNqIA6IbOb" x1="18.465" x2="36.359" y1="12.934" y2="48.709" gradientUnits="userSpaceOnUse"><stop offset="0" stop-color="#dfe9f2"/><stop offset=".998" stop-color="#9ea7b0"/></linearGradient><path fill="url(#tMYKFoTNZktQgNqIA6IbOb)" d="M44,24c0-2.467-0.468-4.818-1.284-7H5.284C4.468,19.182,4,21.533,4,24s0.468,4.818,1.284,7	h37.431C43.532,28.818,44,26.467,44,24z"/><linearGradient id="tMYKFoTNZktQgNqIA6IbOc" x1="17.833" x2="32.162" y1="16.133" y2="50.714" gradientUnits="userSpaceOnUse"><stop offset="0" stop-color="#0d61a9"/><stop offset="1" stop-color="#16528c"/></linearGradient><path fill="url(#tMYKFoTNZktQgNqIA6IbOc)" d="M42.716,31H5.284C8.125,38.588,15.421,44,24,44S39.875,38.588,42.716,31z"/><path fill="#f0f4f7" d="M24,32.848c-3.121,0-5.66-2.539-5.66-5.66v-6.84h11.32v6.84C29.66,30.309,27.121,32.848,24,32.848z"/><path fill="#4fc3f7" d="M18.727,20.086L17.5,17.313l0.906-1.48l1.625,0.605l0.746,2.934	C20.777,19.371,19.621,19.672,18.727,20.086z"/><path fill="#115b9e" d="M22.91,19.023L22.668,16l-1.504-0.867l-1.137,1.305l0.75,2.93	C20.781,19.367,21.965,19.078,22.91,19.023z"/><path fill="#115b9e" d="M25.094,19.023L25.336,16l1.504-0.867l1.133,1.305l-0.75,2.93	C27.223,19.367,26.039,19.078,25.094,19.023z"/><path fill="#4fc3f7" d="M25.094,19.023L25.336,16l-1.332-1.098L22.668,16l0.242,3.023	C22.91,19.023,24.242,18.918,25.094,19.023z"/><path fill="#4fc3f7" d="M29.273,20.086l1.227-2.773l-0.906-1.48l-1.625,0.605l-0.746,2.934	C27.223,19.371,28.379,19.672,29.273,20.086z"/><path fill="#4fc3f7" d="M29.273,20.086l1.227-2.773l-0.906-1.48l-1.625,0.605l-0.746,2.934	C27.223,19.371,28.379,19.672,29.273,20.086z"/><path fill="#fff" d="M27.41,18.645c1,0.258,1.785,0.582,2.168,0.754l0.473-1.066c-1.086-0.508-2.121-0.773-2.352-0.828	L27.41,18.645z"/><path fill="#ee3d4a" d="M18.09,27.188c0,3.266,2.645,5.91,5.91,5.91s5.91-2.645,5.91-5.91v-7.09H18.09V27.188z M18.59,25.359v-2.472h2.054v-2.289h2.247v2.289h2.234v-2.289h2.246c0,0.544,0,2.289,0,2.289h2.039v2.472h-2.039 c0,0,0,2.457,0,2.457h1.999c-0.106,0.911-0.439,1.753-0.941,2.469h-1.059v1.128c-0.645,0.516-1.409,0.888-2.246,1.066v-2.194 h-2.234c0,0,0,1.917,0,2.198c-0.838-0.175-1.603-0.547-2.25-1.061v-1.137H19.57c-0.502-0.716-0.835-1.558-0.941-2.469h2.014v-2.457 H18.59z"/><rect width="2.234" height="2.457" x="22.891" y="25.359" fill="#ee3d4a"/><rect width="2.238" height="2.457" x="25.129" y="27.816" fill="#ee3d4a"/><rect width="2.238" height="2.457" x="20.645" y="27.816" fill="#ee3d4a"/><rect width="2.238" height="2.457" x="25.129" y="22.887" fill="#ee3d4a"/><rect width="2.238" height="2.457" x="20.645" y="22.887" fill="#ee3d4a"/><path fill="#ee3d4a" d="M22.727,16.746L22.668,16l-0.004-0.004c-0.285,0.016-1.262,0.094-2.633,0.441l0.188,0.739 C21.797,16.824,22.289,16.778,22.727,16.746z"/><path fill="#ee3d4a" d="M20.597,18.657c0.946-0.274,1.864-0.36,2.255-0.387l-0.063-0.762 c-0.914,0.047-2.105,0.324-2.383,0.395L20.597,18.657z"/><path fill="#ee3d4a" d="M29.973,18.508c-0.266-0.117-1.383-0.59-2.324-0.809l-0.188,0.739 c0.297,0.066,1.105,0.277,2.199,0.773L29.973,18.508z"/></svg>