<svg xmlns="http://www.w3.org/2000/svg" viewBox="0 0 48 48"><linearGradient id="SWI1MqA8dRjDplL~BxNoba" x1="242.498" x2="238.092" y1="-3.552" y2="-3.552" gradientTransform="scale(1 -1) rotate(-45 113.729 239.002)" gradientUnits="userSpaceOnUse"><stop offset=".365" stop-color="#199ae0"/><stop offset=".699" stop-color="#1898de"/><stop offset=".819" stop-color="#1691d8"/><stop offset=".905" stop-color="#1186cc"/><stop offset=".974" stop-color="#0a75bc"/><stop offset="1" stop-color="#076cb3"/></linearGradient><path fill="url(#SWI1MqA8dRjDplL~BxNoba)" d="M27.414,22l4.293-4.293l3.439,3.439C35.461,21.461,35.238,22,34.793,22L27.414,22z"/><linearGradient id="SWI1MqA8dRjDplL~BxNobb" x1="28.263" x2="41.389" y1="50.294" y2="-39.945" gradientUnits="userSpaceOnUse"><stop offset="0" stop-color="#32bdef"/><stop offset="1" stop-color="#1ea2e4"/></linearGradient><path fill="url(#SWI1MqA8dRjDplL~BxNobb)" d="M41.713,7.713c0.391,0.391,0.39,1.024,0,1.415L29.12,21.71C28.93,21.89,28.68,22,28.41,22H27 c-0.55,0-1-0.45-1-1v-7.79c0-0.45,0.54-0.67,0.85-0.36l2.74,2.74l9.293-9.293c0.391-0.391,1.024-0.391,1.414,0L41.713,7.713z"/><linearGradient id="SWI1MqA8dRjDplL~BxNobc" x1="242.498" x2="238.092" y1="-17.28" y2="-17.28" gradientTransform="scale(1 -1) rotate(-45 113.729 239.002)" gradientUnits="userSpaceOnUse"><stop offset=".365" stop-color="#199ae0"/><stop offset=".699" stop-color="#1898de"/><stop offset=".819" stop-color="#1691d8"/><stop offset=".905" stop-color="#1186cc"/><stop offset=".974" stop-color="#0a75bc"/><stop offset="1" stop-color="#076cb3"/></linearGradient><path fill="url(#SWI1MqA8dRjDplL~BxNobc)" d="M22,27.414l-4.293,4.293l3.439,3.439C21.461,35.461,22,35.238,22,34.793L22,27.414z"/><linearGradient id="SWI1MqA8dRjDplL~BxNobd" x1="8.74" x2="21.872" y1="70.175" y2="-20.105" gradientUnits="userSpaceOnUse"><stop offset="0" stop-color="#32bdef"/><stop offset="1" stop-color="#1ea2e4"/></linearGradient><path fill="url(#SWI1MqA8dRjDplL~BxNobd)" d="M22,27v1.41c0,0.27-0.11,0.52-0.29,0.71L9.127,41.712c-0.39,0.391-1.024,0.391-1.415,0 l-1.415-1.415c-0.391-0.391-0.391-1.024,0-1.414l9.293-9.293l-2.74-2.74C12.54,26.54,12.76,26,13.21,26H21C21.55,26,22,26.45,22,27 z"/></svg>