<svg xmlns="http://www.w3.org/2000/svg" viewBox="0 0 48 48"><linearGradient id="EwBywpzah1jQtYg7TqftUa" x1="24" x2="24" y1="-159.881" y2="-163.898" gradientTransform="matrix(1 0 0 -1 0 -155.89)" gradientUnits="userSpaceOnUse"><stop offset="0" stop-color="#484b4f"/><stop offset="1" stop-color="#5d646a"/></linearGradient><rect width="4" height="4" x="22" y="4" fill="url(#EwBywpzah1jQtYg7TqftUa)"/><linearGradient id="EwBywpzah1jQtYg7TqftUb" x1="385.765" x2="385.765" y1="5.396" y2="2.856" gradientTransform="scale(1 -1) rotate(-45 192.18 415.956)" gradientUnits="userSpaceOnUse"><stop offset="0" stop-color="#484b4f"/><stop offset="1" stop-color="#5d646a"/></linearGradient><polygon fill="url(#EwBywpzah1jQtYg7TqftUb)" points="38.211,14.289 35.711,11.789 37.5,10 40,12.5"/><linearGradient id="EwBywpzah1jQtYg7TqftUc" x1="23.109" x2="24.677" y1="-156.663" y2="-160.581" gradientTransform="matrix(1 0 0 -1 0 -155.89)" gradientUnits="userSpaceOnUse"><stop offset="0" stop-color="#8795a1"/><stop offset="1" stop-color="#6d7882"/></linearGradient><path fill="url(#EwBywpzah1jQtYg7TqftUc)" d="M27,5h-6c-0.552,0-1-0.448-1-1V2c0-0.552,0.448-1,1-1h6c0.552,0,1,0.448,1,1v2 C28,4.552,27.552,5,27,5z"/><linearGradient id="EwBywpzah1jQtYg7TqftUd" x1="38.649" x2="41.471" y1="-163.057" y2="-168.974" gradientTransform="matrix(1 0 0 -1 0 -155.89)" gradientUnits="userSpaceOnUse"><stop offset="0" stop-color="#8795a1"/><stop offset="1" stop-color="#6d7882"/></linearGradient><path fill="url(#EwBywpzah1jQtYg7TqftUd)" d="M40,12.718L37.282,10c-0.375-0.375-0.375-0.984,0-1.359l1.359-1.359 c0.375-0.375,0.984-0.375,1.359,0L42.718,10c0.375,0.375,0.375,0.984,0,1.359l-1.359,1.359C40.984,13.094,40.375,13.094,40,12.718z"/><linearGradient id="EwBywpzah1jQtYg7TqftUe" x1="10.565" x2="37.435" y1="-168.455" y2="-195.325" gradientTransform="matrix(1 0 0 -1 0 -155.89)" gradientUnits="userSpaceOnUse"><stop offset="0" stop-color="#889097"/><stop offset="1" stop-color="#64717c"/></linearGradient><circle cx="24" cy="26" r="19" fill="url(#EwBywpzah1jQtYg7TqftUe)"/><radialGradient id="EwBywpzah1jQtYg7TqftUf" cx="26.003" cy="-210.425" r="18.501" gradientTransform="matrix(.9459 0 0 -.9459 -.597 -173.041)" gradientUnits="userSpaceOnUse"><stop offset=".842" stop-opacity=".2"/><stop offset="1" stop-opacity="0"/></radialGradient><circle cx="24" cy="26" r="17.5" fill="url(#EwBywpzah1jQtYg7TqftUf)"/><radialGradient id="EwBywpzah1jQtYg7TqftUg" cx="26.077" cy="-196.451" r="37.883" gradientTransform="matrix(.9412 0 0 -.9412 -.646 -174.528)" gradientUnits="userSpaceOnUse"><stop offset="0" stop-color="#fafafb"/><stop offset="1" stop-color="#c8cdd1"/></radialGradient><circle cx="24" cy="26" r="16" fill="url(#EwBywpzah1jQtYg7TqftUg)"/><path fill="#45494d" d="M24.084,25.004c0.256,0,0.512,0.098,0.707,0.293l8.485,8.485c0.391,0.391,0.391,1.023,0,1.414 s-1.023,0.391-1.414,0l-8.485-8.485c-0.391-0.391-0.391-1.023,0-1.414C23.572,25.102,23.828,25.004,24.084,25.004z"/><circle cx="24" cy="26" r="2" fill="#1e2021"/><path fill="#a9b1bb" d="M24,22c-2.757,0-5-2.243-5-5s2.243-5,5-5s5,2.243,5,5S26.757,22,24,22z M24,14c-1.654,0-3,1.346-3,3 s1.346,3,3,3s3-1.346,3-3S25.654,14,24,14z"/><path fill="#45494d" d="M28,18h-4c-0.552,0-1-0.448-1-1v0c0-0.552,0.448-1,1-1h4c0.552,0,1,0.448,1,1v0 C29,17.552,28.552,18,28,18z"/><path fill="#a9b1bb" d="M37,27h-2c-0.552,0-1-0.448-1-1v0c0-0.552,0.448-1,1-1h2c0.552,0,1,0.448,1,1v0 C38,26.552,37.552,27,37,27z"/><path fill="#a9b1bb" d="M25,37v2c0,0.552-0.448,1-1,1h0c-0.552,0-1-0.448-1-1v-2c0-0.552,0.448-1,1-1h0 C24.552,36,25,36.448,25,37z"/><path fill="#a9b1bb" d="M13,27h-2c-0.552,0-1-0.448-1-1v0c0-0.552,0.448-1,1-1h2c0.552,0,1,0.448,1,1v0 C14,26.552,13.552,27,13,27z"/></svg>