<svg xmlns="http://www.w3.org/2000/svg" data-name="Слой 1" viewBox="0 0 48 48"><path fill="#0d62ab" d="M18,12a4,4,0,1,1,4-4,4.01176,4.01176,0,0,1-4,4"/><path fill="none" stroke="#35c1f1" stroke-linecap="round" stroke-linejoin="round" stroke-width="2" d="M32.71,5A15.57192,15.57192,0,0,1,33,8c0,.43-.02.87-.05,1.29A16.98421,16.98421,0,0,1,36,19V31.5a13.567,13.567,0,0,1-2,7.07v3.32A10.19135,10.19135,0,0,1,33.95,43"/><path fill="none" stroke="#199be2" stroke-linecap="round" stroke-linejoin="round" stroke-width="2" d="M28.62,5A11.91611,11.91611,0,0,1,29,8a11.49067,11.49067,0,0,1-.25,2.42A12.98256,12.98256,0,0,1,32,19V31.5a9.43975,9.43975,0,0,1-2,5.83v4.56A10.18234,10.18234,0,0,1,29.94,43"/><path fill="none" stroke="#0078d4" stroke-linecap="round" stroke-linejoin="round" stroke-width="2" d="M24.41,5a7.92355,7.92355,0,0,1-.28,6.61A9.01392,9.01392,0,0,1,28,19V31.5a5.50188,5.50188,0,0,1-2,4.24v6.15A5.80261,5.80261,0,0,1,25.9,43"/><path fill="#0d62ab" d="M20,14H16a5.00054,5.00054,0,0,0-5,5V31.5A1.50055,1.50055,0,0,0,12.5,33H13v8.894a2.07227,2.07227,0,0,0,1.665,2.078A2,2,0,0,0,17,42V32a1,1,0,0,1,2,0V42a2.00116,2.00116,0,0,0,2.335,1.973A2.07413,2.07413,0,0,0,23,41.894V33h.5A1.50055,1.50055,0,0,0,25,31.5V19A5.00054,5.00054,0,0,0,20,14Z"/></svg>