<svg xmlns="http://www.w3.org/2000/svg" viewBox="0 0 48 48"><linearGradient id="tdok_Ox0PFl4jOhwnrop3a" x1="14.003" x2="33.995" y1="6.686" y2="41.315" gradientUnits="userSpaceOnUse"><stop offset="0" stop-color="#21ad64"/><stop offset="1" stop-color="#088242"/></linearGradient><path fill="url(#tdok_Ox0PFl4jOhwnrop3a)" fill-rule="evenodd" d="M44,24c0,1.01-0.08,2-0.22,2.97L42,29l0.17,3.36 c-2.8,6.04-8.51,10.46-15.32,11.43L22,43l-4.36-0.04C9.72,40.3,4,32.8,4,24C4,12.98,12.98,4,24,4S44,12.98,44,24z" clip-rule="evenodd"/><path d="M43.9,25.93c-2.12-0.89-3.71-4.58-5.89-9.63c-0.61-1.41-1.24-2.87-1.96-4.45 c-0.48-1.08-1.56-1.77-2.75-1.77c-0.14,0-0.29,0.01-0.43,0.03l-3.06,0.47c-0.92,0.15-1.71,0.69-2.16,1.5 c-0.45,0.81-0.51,1.77-0.15,2.62c0.14,0.34,0.28,0.68,0.44,1.04c1.7,3.98,4.03,9.44,2.61,12.29c-0.45,0.9-1.29,1.5-2.56,1.81 c-0.38,0.1-0.75,0.15-1.1,0.15c-4.41,0-7.25-7.78-9.34-13.46c-0.16-0.46-0.32-0.9-0.48-1.33c-0.43-1.16-1.55-1.95-2.8-1.95 c-0.25,0-0.5,0.03-0.74,0.09l-4.09,1.02c-0.83,0.21-1.54,0.76-1.94,1.52c-0.39,0.76-0.45,1.65-0.15,2.44L16.4,42.5 c0.41,0.16,0.82,0.32,1.24,0.46L22,43l4.85,0.79c0.33-0.05,0.66-0.1,0.98-0.17c-0.01-0.1-0.04-0.2-0.09-0.29l-3.47-6.61 c0.72,0.09,1.42,0.13,2.1,0.13c4.8,0,8.3-2.11,9.57-5.63c1.54,1.31,3.48,2.03,5.74,2.12c0.17-0.32,0.34-0.65,0.49-0.98L42,29 l1.78-2.03C43.83,26.63,43.87,26.28,43.9,25.93z" opacity=".05"/><path d="M43.84,26.46c-2.38-0.9-4.02-4.7-6.29-9.96c-0.61-1.41-1.24-2.87-1.95-4.45 c-0.41-0.89-1.31-1.47-2.3-1.47c-0.12,0-0.24,0.01-0.36,0.03l-3.06,0.47c-0.76,0.12-1.42,0.57-1.79,1.25 c-0.38,0.67-0.43,1.47-0.13,2.18c0.14,0.33,0.28,0.68,0.44,1.03c1.74,4.08,4.12,9.66,2.6,12.71c-0.53,1.05-1.47,1.73-2.89,2.07 c-0.42,0.11-0.82,0.17-1.22,0.17c-4.75,0-7.67-7.97-9.81-13.79c-0.16-0.45-0.32-0.9-0.48-1.32c-0.36-0.98-1.29-1.63-2.33-1.63 c-0.21,0-0.41,0.02-0.61,0.08l-4.1,1.01c-0.69,0.18-1.28,0.64-1.61,1.27s-0.38,1.38-0.13,2.04l9.2,24.59 c0.2,0.08,0.41,0.15,0.62,0.22L22,43l4.85,0.79c0.17-0.03,0.33-0.05,0.49-0.08c-0.01-0.05-0.02-0.1-0.05-0.15l-3.92-7.48 c1.03,0.18,2.04,0.27,3,0.27c4.9,0,8.37-2.28,9.33-6.04c1.57,1.63,3.66,2.49,6.23,2.54c0.09-0.16,0.17-0.33,0.24-0.49L42,29 l1.78-2.03C43.8,26.8,43.83,26.63,43.84,26.46z" opacity=".07"/><path fill="#fff" fill-rule="evenodd" d="M43.78,26.97c-0.28,1.9-0.84,3.71-1.61,5.39 c-2.63-0.01-5.06-0.9-6.77-3.17c-0.65,5.33-6.09,7.75-12.96,6.2l4.41,8.4C25.92,43.93,24.97,44,24,44c-2.22,0-4.36-0.36-6.36-1.04 L8.29,17.97c-0.42-1.11,0.23-2.35,1.39-2.64l4.1-1.02c0.98-0.25,2,0.28,2.35,1.24c2.49,6.71,5.75,16.9,12.1,15.26 c6.95-1.71,2.56-10.87,0.19-16.49c-0.5-1.2,0.26-2.55,1.54-2.75l3.05-0.47c0.89-0.13,1.76,0.34,2.13,1.16 C38.71,20.12,40.48,25.85,43.78,26.97z" clip-rule="evenodd"/></svg>