<svg xmlns="http://www.w3.org/2000/svg" viewBox="0 0 48 48"><linearGradient id="C97zrsmBFg1Typ2hL_4u0a" x1="20.256" x2="25.919" y1="-294.91" y2="-333.946" gradientTransform="matrix(1 0 0 -1 0 -290)" gradientUnits="userSpaceOnUse"><stop offset="0" stop-color="#2aa4f4"/><stop offset=".595" stop-color="#0f80e3"/><stop offset="1" stop-color="#006dd9"/></linearGradient><path fill="url(#C97zrsmBFg1Typ2hL_4u0a)" d="M37,30.5c0,7.178-5.822,13-13,13s-13-5.822-13-13s13-26,13-26S37,23.322,37,30.5z"/><path d="M24,40c-1.103,0-2-0.897-2-2v-2.535l-2.196,1.267C19.501,36.907,19.155,37,18.805,37	c-0.714,0-1.378-0.384-1.733-1c-0.267-0.462-0.338-1.001-0.199-1.518s0.47-0.948,0.932-1.215l2.152-1.242l-2.167-1.215	c-0.466-0.262-0.802-0.688-0.948-1.202c-0.145-0.516-0.08-1.056,0.183-1.522c0.353-0.63,1.021-1.021,1.742-1.021	c0.344,0,0.683,0.089,0.981,0.258L22,28.586V26c0-1.103,0.897-2,2-2s2,0.897,2,2v2.535l2.196-1.267	c0.301-0.176,0.646-0.27,0.998-0.27c0.713,0,1.378,0.384,1.734,1.001c0.267,0.462,0.338,1.001,0.199,1.518s-0.47,0.948-0.932,1.215	l-2.152,1.242l2.167,1.215c0.466,0.262,0.802,0.688,0.948,1.202c0.145,0.516,0.08,1.056-0.183,1.522	c-0.353,0.629-1.021,1.021-1.744,1.021c-0.341,0-0.678-0.088-0.977-0.255L26,35.414V38C26,39.103,25.103,40,24,40z" opacity=".05"/><path d="M24,39.5c-0.827,0-1.5-0.673-1.5-1.5v-3.401l-2.946,1.7c-0.228,0.132-0.486,0.201-0.749,0.201	c-0.535,0-1.033-0.287-1.3-0.75c-0.414-0.716-0.168-1.636,0.549-2.049l2.913-1.683l-2.934-1.645	c-0.35-0.196-0.602-0.517-0.711-0.902c-0.108-0.386-0.06-0.791,0.137-1.141c0.265-0.473,0.766-0.767,1.307-0.767	c0.257,0,0.511,0.066,0.735,0.193l2.999,1.682V26c0-0.827,0.673-1.5,1.5-1.5s1.5,0.673,1.5,1.5v3.401l2.946-1.7	c0.226-0.132,0.485-0.202,0.748-0.202c0.535,0,1.033,0.287,1.301,0.751c0.414,0.716,0.168,1.636-0.549,2.049l-2.913,1.683	l2.934,1.645c0.35,0.196,0.602,0.517,0.711,0.902c0.108,0.386,0.06,0.791-0.137,1.141c-0.265,0.472-0.767,0.766-1.309,0.766	c-0.255,0-0.509-0.066-0.732-0.191l-3-1.683V38C25.5,38.827,24.827,39.5,24,39.5z" opacity=".07"/><path fill="#50e6ff" d="M29.723,34.063l-3.701-2.075l3.674-2.121c0.479-0.276,0.643-0.888,0.366-1.366	c-0.277-0.479-0.891-0.644-1.366-0.366L25,30.268V26c0-0.553-0.447-1-1-1s-1,0.447-1,1v4.293l-3.744-2.099	c-0.482-0.271-1.091-0.101-1.361,0.383c-0.271,0.481-0.099,1.092,0.383,1.361l3.701,2.075l-3.674,2.121	c-0.479,0.276-0.643,0.888-0.366,1.366c0.186,0.321,0.521,0.5,0.867,0.5c0.17,0,0.342-0.043,0.499-0.134L23,33.732V38	c0,0.553,0.447,1,1,1s1-0.447,1-1v-4.293l3.744,2.099c0.155,0.087,0.322,0.128,0.488,0.128c0.35,0,0.689-0.184,0.873-0.511	C30.376,34.942,30.204,34.332,29.723,34.063z"/></svg>