<svg xmlns="http://www.w3.org/2000/svg" viewBox="0 0 48 48"><linearGradient id="Oh06eVJFQi6JZUtIty8REa" x1="16" x2="19" y1="28.5" y2="28.5" gradientUnits="userSpaceOnUse"><stop offset="0" stop-color="#ffcf54"/><stop offset=".261" stop-color="#fdcb4d"/><stop offset=".639" stop-color="#f7c13a"/><stop offset="1" stop-color="#f0b421"/></linearGradient><path fill="url(#Oh06eVJFQi6JZUtIty8REa)" d="M17.5,34L17.5,34c-0.828,0-1.5-0.672-1.5-1.5V23h3v9.5C19,33.328,18.328,34,17.5,34z"/><linearGradient id="Oh06eVJFQi6JZUtIty8REb" x1="29" x2="32" y1="28.5" y2="28.5" gradientUnits="userSpaceOnUse"><stop offset="0" stop-color="#ffcf54"/><stop offset=".261" stop-color="#fdcb4d"/><stop offset=".639" stop-color="#f7c13a"/><stop offset="1" stop-color="#f0b421"/></linearGradient><path fill="url(#Oh06eVJFQi6JZUtIty8REb)" d="M30.5,34L30.5,34c-0.828,0-1.5-0.672-1.5-1.5V23h3v9.5C32,33.328,31.328,34,30.5,34z"/><linearGradient id="Oh06eVJFQi6JZUtIty8REc" x1="19" x2="23" y1="40.5" y2="40.5" gradientUnits="userSpaceOnUse"><stop offset="0" stop-color="#ffcf54"/><stop offset=".261" stop-color="#fdcb4d"/><stop offset=".639" stop-color="#f7c13a"/><stop offset="1" stop-color="#f0b421"/></linearGradient><path fill="url(#Oh06eVJFQi6JZUtIty8REc)" d="M21,46L21,46c-1.105,0-2-0.895-2-2v-9h4v9C23,45.105,22.105,46,21,46z"/><linearGradient id="Oh06eVJFQi6JZUtIty8REd" x1="25" x2="29" y1="40.5" y2="40.5" gradientUnits="userSpaceOnUse"><stop offset="0" stop-color="#ffcf54"/><stop offset=".261" stop-color="#fdcb4d"/><stop offset=".639" stop-color="#f7c13a"/><stop offset="1" stop-color="#f0b421"/></linearGradient><path fill="url(#Oh06eVJFQi6JZUtIty8REd)" d="M27,46L27,46c-1.105,0-2-0.895-2-2v-9h4v9C29,45.105,28.105,46,27,46z"/><path fill="#0d61a9" d="M19,29v9h4v-3c0-0.552,0.448-1,1-1c0.552,0,1,0.448,1,1v3h4v-9H19z"/><linearGradient id="Oh06eVJFQi6JZUtIty8REe" x1="16" x2="32" y1="22.5" y2="22.5" gradientUnits="userSpaceOnUse"><stop offset="0" stop-color="#32bdef"/><stop offset="1" stop-color="#1ea2e4"/></linearGradient><path fill="url(#Oh06eVJFQi6JZUtIty8REe)" d="M24,15L24,15c-4.418,0-8,3.582-8,8v1h3v6h10v-6h3v-1C32,18.582,28.418,15,24,15z"/><linearGradient id="Oh06eVJFQi6JZUtIty8REf" x1="22.137" x2="25.862" y1="1034.502" y2="1044.766" gradientTransform="translate(0 -1032.11)" gradientUnits="userSpaceOnUse"><stop offset="0" stop-color="#ffcf54"/><stop offset=".261" stop-color="#fdcb4d"/><stop offset=".639" stop-color="#f7c13a"/><stop offset="1" stop-color="#f0b421"/></linearGradient><path fill="url(#Oh06eVJFQi6JZUtIty8REf)" d="M24,13.05c-3.039,0-5.525-2.486-5.525-5.525S20.961,2,24,2s5.525,2.486,5.525,5.525	S27.039,13.05,24,13.05"/></svg>