<svg xmlns="http://www.w3.org/2000/svg" baseProfile="basic" viewBox="0 0 48 48"><linearGradient id="mj306nPyIawCR7dgDrvLUa" x1="24" x2="24" y1="5.023" y2="41.578" gradientUnits="userSpaceOnUse"><stop offset="0" stop-color="#4b4b4b"/><stop offset=".247" stop-color="#3e3e3e"/><stop offset=".686" stop-color="#2b2b2b"/><stop offset="1" stop-color="#252525"/></linearGradient><path fill="url(#mj306nPyIawCR7dgDrvLUa)" d="M37,42H11c-2.761,0-5-2.239-5-5V11c0-2.761,2.239-5,5-5h26c2.761,0,5,2.239,5,5v26	C42,39.761,39.761,42,37,42z"/><rect width="5.657" height="5.657" x="21.172" y="18.172" fill="#fff" transform="rotate(-45.001 24 21)"/><rect width="5.657" height="5.657" x="29.172" y="18.172" fill="#fff" transform="rotate(-45.001 32 21)"/><rect width="5.657" height="5.657" x="13.172" y="18.172" fill="#fff" transform="rotate(-45.001 16 21)"/><rect width="5.657" height="5.657" x="21.172" y="26.172" fill="#fff" transform="rotate(-45.001 24 29)"/></svg>