<svg xmlns="http://www.w3.org/2000/svg" viewBox="0 0 48 48"><linearGradient id="iKMgDUrstqeXJ6Bus45VRa" x1="6.414" x2="41.774" y1="-305.552" y2="-331.378" gradientTransform="matrix(1 0 0 -1 0 -291.89)" gradientUnits="userSpaceOnUse"><stop offset="0" stop-color="#28afea"/><stop offset="1" stop-color="#047ed6"/></linearGradient><path fill="url(#iKMgDUrstqeXJ6Bus45VRa)" d="M6,40V12h36v28c0,1.1-0.9,2-2,2H8C6.9,42,6,41.1,6,40z"/><path d="M30.284,23.381c-0.29-1.051-0.723-1.958-1.287-2.699 c-0.581-0.763-1.296-1.355-2.129-1.764c-1.54-0.752-3.732-0.807-5.457-0.133c-0.819,0.322-1.535,0.787-2.127,1.384 c-0.59,0.595-1.053,1.31-1.376,2.124c-0.322,0.808-0.485,1.707-0.485,2.673c0,0.842,0.136,1.63,0.405,2.342 c0.271,0.723,0.66,1.359,1.155,1.891c0.499,0.534,1.094,0.957,1.769,1.255c1.283,0.568,2.915,0.589,4.136,0.138 c-0.116,0.274-0.258,0.513-0.426,0.715c-0.497,0.6-1.158,0.879-2.081,0.879c-0.982,0-1.821-0.224-2.493-0.663 c-0.309-0.202-0.702-0.22-1.023-0.044c-0.324,0.175-0.525,0.512-0.525,0.88v2.907c0,0.396,0.234,0.755,0.597,0.916 c1.071,0.471,2.347,0.71,3.792,0.71c1.241,0,2.376-0.241,3.373-0.718c1.002-0.48,1.862-1.178,2.556-2.073 c0.677-0.874,1.196-1.946,1.542-3.189c0.336-1.203,0.507-2.579,0.507-4.088C30.706,25.551,30.564,24.394,30.284,23.381z M23.561,26.189c-0.128-0.056-0.231-0.132-0.321-0.236c-0.104-0.124-0.189-0.286-0.252-0.483c-0.072-0.223-0.108-0.494-0.108-0.806 c0-0.277,0.037-0.532,0.109-0.759c0.067-0.211,0.157-0.388,0.268-0.527c0.1-0.126,0.209-0.218,0.343-0.287 c0.115-0.06,0.237-0.088,0.383-0.088c0.147,0,0.271,0.031,0.389,0.099c0.144,0.082,0.259,0.188,0.363,0.333 c0.118,0.166,0.215,0.377,0.288,0.629c0.078,0.271,0.118,0.567,0.118,0.88c0,0.212-0.031,0.408-0.093,0.583 c-0.057,0.161-0.137,0.301-0.236,0.415c-0.095,0.109-0.202,0.19-0.333,0.254C24.229,26.313,23.844,26.311,23.561,26.189z" opacity=".05"/><path d="M29.802,23.514c-0.273-0.989-0.678-1.84-1.203-2.529 c-0.533-0.7-1.189-1.244-1.95-1.617c-1.484-0.725-3.516-0.717-5.054-0.117c-0.755,0.297-1.413,0.725-1.956,1.271 c-0.542,0.547-0.968,1.205-1.267,1.957c-0.298,0.749-0.45,1.587-0.45,2.488c0,0.78,0.125,1.51,0.373,2.166 c0.249,0.662,0.603,1.242,1.053,1.726c0.453,0.485,0.993,0.868,1.606,1.139c0.617,0.273,1.296,0.412,2.02,0.412 c1.077,0,1.981-0.269,2.702-0.801c-0.135,0.84-0.412,1.515-0.829,2.017c-0.591,0.714-1.397,1.061-2.466,1.061 c-1.082,0-2.013-0.251-2.768-0.745c-0.153-0.101-0.35-0.11-0.512-0.021c-0.162,0.087-0.262,0.256-0.262,0.439v2.907 c0,0.198,0.117,0.378,0.298,0.458c1.007,0.443,2.215,0.668,3.59,0.668c1.165,0,2.227-0.225,3.157-0.669 c0.932-0.446,1.731-1.096,2.376-1.929c0.637-0.822,1.127-1.838,1.456-3.018c0.324-1.16,0.488-2.489,0.488-3.953 C30.206,25.597,30.07,24.483,29.802,23.514z M25.639,24.943c0,0.27-0.041,0.521-0.122,0.75c-0.079,0.222-0.19,0.415-0.331,0.576 c-0.14,0.16-0.302,0.283-0.494,0.377c-0.393,0.188-0.934,0.172-1.331,0.002c-0.198-0.086-0.363-0.208-0.504-0.373 c-0.146-0.173-0.263-0.393-0.347-0.652c-0.088-0.272-0.132-0.595-0.132-0.959c0-0.328,0.044-0.635,0.133-0.911 c0.085-0.268,0.204-0.498,0.352-0.685c0.144-0.182,0.309-0.319,0.504-0.421c0.188-0.098,0.388-0.145,0.614-0.145 c0.235,0,0.443,0.054,0.637,0.164c0.206,0.117,0.376,0.272,0.522,0.477c0.152,0.212,0.274,0.476,0.362,0.781 C25.593,24.24,25.639,24.583,25.639,24.943z" opacity=".07"/><linearGradient id="iKMgDUrstqeXJ6Bus45VRb" x1="6.42" x2="41.198" y1="-298.498" y2="-305.57" gradientTransform="matrix(1 0 0 -1 0 -291.89)" gradientUnits="userSpaceOnUse"><stop offset="0" stop-color="#0077d2"/><stop offset="1" stop-color="#0b59a2"/></linearGradient><path fill="url(#iKMgDUrstqeXJ6Bus45VRb)" d="M42,8v6H6V8c0-1.1,0.9-2,2-2h32C41.1,6,42,6.9,42,8z"/><path d="M35.5,12.5L35.5,12.5c-1.657,0-3-1.343-3-3V6h6v3.5 C38.5,11.157,37.157,12.5,35.5,12.5z" opacity=".05"/><path d="M35.5,11.75L35.5,11.75c-1.243,0-2.25-1.007-2.25-2.25V6h4.5v3.5 C37.75,10.743,36.743,11.75,35.5,11.75z" opacity=".07"/><path d="M12.5,12.5L12.5,12.5c-1.657,0-3-1.343-3-3V6h6v3.5 C15.5,11.157,14.157,12.5,12.5,12.5z" opacity=".05"/><path d="M12.5,11.75L12.5,11.75c-1.243,0-2.25-1.007-2.25-2.25V6h4.5v3.5 C14.75,10.743,13.743,11.75,12.5,11.75z" opacity=".07"/><path fill="#3ccbf4" d="M12.5,11L12.5,11c-0.828,0-1.5-0.672-1.5-1.5v-4C11,4.672,11.672,4,12.5,4l0,0 C13.328,4,14,4.672,14,5.5v4C14,10.328,13.328,11,12.5,11z"/><path fill="#3ccbf4" d="M35.5,11L35.5,11c-0.828,0-1.5-0.672-1.5-1.5v-4C34,4.672,34.672,4,35.5,4l0,0 C36.328,4,37,4.672,37,5.5v4C37,10.328,36.328,11,35.5,11z"/><path fill="#fff" d="M29.706,26.822c0,1.424-0.156,2.696-0.47,3.818c-0.313,1.122-0.77,2.071-1.37,2.846 c-0.6,0.775-1.333,1.37-2.197,1.784c-0.865,0.413-1.845,0.62-2.941,0.62c-1.312,0-2.441-0.209-3.388-0.626v-2.907 c0.842,0.552,1.856,0.827,3.042,0.827c1.215,0,2.166-0.413,2.852-1.241c0.686-0.827,1.032-2.023,1.04-3.589l-0.067-0.022 c-0.708,1.051-1.785,1.576-3.231,1.576c-0.656,0-1.262-0.123-1.817-0.369c-0.556-0.245-1.037-0.587-1.443-1.022 c-0.406-0.437-0.723-0.956-0.95-1.561c-0.228-0.604-0.341-1.267-0.341-1.99c0-0.842,0.138-1.61,0.414-2.304 c0.275-0.693,0.661-1.289,1.157-1.789c0.496-0.499,1.09-0.885,1.784-1.157c0.693-0.271,1.461-0.408,2.303-0.408 c0.872,0,1.655,0.17,2.348,0.509c0.693,0.34,1.284,0.83,1.772,1.471c0.488,0.642,0.861,1.428,1.118,2.359 S29.706,25.637,29.706,26.822z M26.139,24.943c0-0.409-0.052-0.795-0.157-1.157c-0.104-0.361-0.25-0.673-0.436-0.934 s-0.414-0.468-0.682-0.62c-0.268-0.153-0.563-0.229-0.883-0.229c-0.306,0-0.587,0.067-0.844,0.201s-0.479,0.318-0.666,0.554 c-0.186,0.234-0.332,0.516-0.436,0.844s-0.156,0.683-0.156,1.063c0,0.418,0.052,0.788,0.156,1.112s0.252,0.599,0.442,0.822 s0.419,0.394,0.688,0.509c0.269,0.115,0.566,0.173,0.895,0.173c0.313,0,0.597-0.062,0.85-0.184 c0.253-0.123,0.471-0.289,0.654-0.498s0.325-0.455,0.425-0.738S26.139,25.271,26.139,24.943z"/></svg>