<svg xmlns="http://www.w3.org/2000/svg" viewBox="0 0 48 48"><linearGradient id="mJ1fXYCr4TAS4v84gjuWKa" x1="6.414" x2="41.774" y1="-169.552" y2="-195.378" gradientTransform="matrix(1 0 0 -1 0 -155.89)" gradientUnits="userSpaceOnUse"><stop offset="0" stop-color="#28afea"/><stop offset="1" stop-color="#047ed6"/></linearGradient><path fill="url(#mJ1fXYCr4TAS4v84gjuWKa)" d="M6,40V12h36v28c0,1.1-0.9,2-2,2H8C6.9,42,6,41.1,6,40z"/><path d="M29.46,28.632h-0.923v-9.108c0-0.552-0.448-1-1-1h-3.276 c-0.388,0-0.744,0.228-0.908,0.58c-0.355,0.768-0.795,1.587-1.307,2.436c-0.518,0.857-1.086,1.723-1.688,2.572 c-0.603,0.851-1.237,1.689-1.886,2.495c-0.649,0.807-1.286,1.56-1.891,2.236c-0.164,0.184-0.254,0.42-0.254,0.666v2.763 c0,0.552,0.448,1,1,1h5.989v2.287c0,0.552,0.448,1,1,1h3.221c0.552,0,1-0.448,1-1v-2.287h0.923c0.552,0,1-0.448,1-1v-2.64 C30.46,29.08,30.012,28.632,29.46,28.632z M23.316,27.55v1.082h-0.779C22.799,28.28,23.059,27.92,23.316,27.55z" opacity=".05"/><path d="M29.46,29.132h-1.423v-9.608c0-0.276-0.224-0.5-0.5-0.5h-3.276 c-0.194,0-0.372,0.113-0.454,0.29c-0.362,0.782-0.811,1.618-1.333,2.484c-0.529,0.877-1.104,1.752-1.708,2.603 c-0.608,0.858-1.249,1.706-1.904,2.52c-0.656,0.814-1.298,1.573-1.907,2.256c-0.082,0.092-0.127,0.21-0.127,0.333v2.763 c0,0.276,0.224,0.5,0.5,0.5h6.489v2.787c0,0.276,0.224,0.5,0.5,0.5h3.221c0.276,0,0.5-0.224,0.5-0.5v-2.787h1.423 c0.276,0,0.5-0.224,0.5-0.5v-2.64C29.96,29.355,29.736,29.132,29.46,29.132z M21.527,29.132c0.118-0.152,0.237-0.308,0.358-0.466 c0.347-0.457,0.689-0.928,1.029-1.415c0.313-0.449,0.613-0.904,0.901-1.366v3.247H21.527z" opacity=".07"/><linearGradient id="mJ1fXYCr4TAS4v84gjuWKb" x1="6.42" x2="41.198" y1="-162.498" y2="-169.57" gradientTransform="matrix(1 0 0 -1 0 -155.89)" gradientUnits="userSpaceOnUse"><stop offset="0" stop-color="#0077d2"/><stop offset="1" stop-color="#0b59a2"/></linearGradient><path fill="url(#mJ1fXYCr4TAS4v84gjuWKb)" d="M42,8v6H6V8c0-1.1,0.9-2,2-2h32C41.1,6,42,6.9,42,8z"/><path d="M35.5,12.5L35.5,12.5c-1.657,0-3-1.343-3-3V6h6v3.5 C38.5,11.157,37.157,12.5,35.5,12.5z" opacity=".05"/><path d="M35.5,11.75L35.5,11.75c-1.243,0-2.25-1.007-2.25-2.25V6h4.5v3.5 C37.75,10.743,36.743,11.75,35.5,11.75z" opacity=".07"/><path d="M12.5,12.5L12.5,12.5c-1.657,0-3-1.343-3-3V6h6v3.5 C15.5,11.157,14.157,12.5,12.5,12.5z" opacity=".05"/><path d="M12.5,11.75L12.5,11.75c-1.243,0-2.25-1.007-2.25-2.25V6h4.5v3.5 C14.75,10.743,13.743,11.75,12.5,11.75z" opacity=".07"/><path fill="#3ccbf4" d="M12.5,11L12.5,11c-0.828,0-1.5-0.672-1.5-1.5v-4C11,4.672,11.672,4,12.5,4l0,0 C13.328,4,14,4.672,14,5.5v4C14,10.328,13.328,11,12.5,11z"/><path fill="#3ccbf4" d="M35.5,11L35.5,11c-0.828,0-1.5-0.672-1.5-1.5v-4C34,4.672,34.672,4,35.5,4l0,0 C36.328,4,37,4.672,37,5.5v4C37,10.328,36.328,11,35.5,11z"/><path fill="#fff" d="M27.537,19.523v10.108h1.923v2.64h-1.923v3.287h-3.221v-3.287h-6.989v-2.763 c0.619-0.693,1.26-1.451,1.924-2.275c0.663-0.823,1.305-1.672,1.923-2.544c0.619-0.872,1.194-1.75,1.728-2.633 c0.533-0.884,0.986-1.728,1.359-2.533H27.537z M20.492,29.632h3.824V24.03c-0.261,0.484-0.544,0.975-0.85,1.47 c-0.307,0.496-0.627,0.984-0.962,1.465c-0.336,0.481-0.675,0.947-1.018,1.398S20.813,29.237,20.492,29.632z"/></svg>