<svg xmlns="http://www.w3.org/2000/svg" width="48" height="48" viewBox="0 0 48 48"><linearGradient id="Hbp6rXn6cXxJw7o16M2X3a" x1="14.648" x2="28.849" y1="17.692" y2="17.692" gradientTransform="rotate(45.001 13.9 24)" gradientUnits="userSpaceOnUse"><stop offset="0" stop-color="#ffcf54"/><stop offset=".261" stop-color="#fdcb4d"/><stop offset=".639" stop-color="#f7c13a"/><stop offset="1" stop-color="#f0b421"/></linearGradient><path fill="url(#Hbp6rXn6cXxJw7o16M2X3a)" d="M8.707,40.293L8.707,40.293c-2.95-2.95-2.733-7.794,0.468-10.469L36.284,7.059l5.657,5.657	L19.176,39.825C16.501,43.026,11.657,43.242,8.707,40.293z"/><linearGradient id="Hbp6rXn6cXxJw7o16M2X3b" x1="10.3" x2="10.039" y1="19.213" y2="29.721" gradientUnits="userSpaceOnUse"><stop offset="0" stop-color="#cf1928"/><stop offset=".304" stop-color="#cc1928"/><stop offset=".528" stop-color="#c31829"/><stop offset=".726" stop-color="#b3162b"/><stop offset=".908" stop-color="#9c142d"/><stop offset=".999" stop-color="#8e132e"/></linearGradient><path fill="url(#Hbp6rXn6cXxJw7o16M2X3b)" d="M11,29.485c-0.256,0-0.512-0.098-0.707-0.293c-2.729-2.729-2.729-7.17,0-9.899	c0.391-0.391,1.023-0.391,1.414,0c0.391,0.39,0.391,1.023,0,1.414c-1.949,1.95-1.949,5.122,0,7.071c0.391,0.391,0.391,1.024,0,1.414	C11.512,29.388,11.256,29.485,11,29.485z"/><path d="M30.422,26.433l-2.672-0.536l-0.777-3.878l-3.874-0.773l-0.532-2.667	L9.175,29.824c-0.455,0.38-0.842,0.807-1.176,1.263L17.914,41c0.456-0.334,0.882-0.721,1.262-1.175L30.422,26.433z M18.645,38.902	l-8.547-8.546l10.945-9.193l0.323,1.775l3.907,0.78l0.638,3.173l0.107,0.697l1.82,0.365L18.645,38.902z" opacity=".05"/><polygon points="39.682,15.406 40.327,14.637 34.363,8.673 33.594,9.318" opacity=".07"/><polygon points="39.359,15.79 40.651,14.253 34.747,8.35 33.21,9.641" opacity=".05"/><path d="M30.056,26.869l-2.73-0.548l-0.777-3.878l-3.874-0.773l-0.544-2.725	L9.175,29.824c-0.32,0.268-0.602,0.562-0.862,0.869l9.995,9.994c0.307-0.26,0.601-0.542,0.868-0.862L30.056,26.869z M18.675,39.64	l-9.315-9.314c0.045-0.04,0.091-0.08,0.138-0.119l11.871-9.97l0.386,1.934l0.053,0.346l3.892,0.777l0.707,3.522l0.054,0.352	l2.305,0.462l-9.972,11.875C18.754,39.55,18.715,39.596,18.675,39.64z" opacity=".07"/><linearGradient id="Hbp6rXn6cXxJw7o16M2X3c" x1="8.645" x2="29.689" y1="29.833" y2="29.833" gradientUnits="userSpaceOnUse"><stop offset="0" stop-color="#7819a2"/><stop offset="1" stop-color="#771aa9"/></linearGradient><path fill="url(#Hbp6rXn6cXxJw7o16M2X3c)" d="M26.9,26.746l-0.001-0.006l-0.776-3.871l-3.875-0.773l-0.001-0.006l-0.554-2.777L9.175,29.824	c-0.188,0.157-0.363,0.323-0.531,0.494l10.038,10.037c0.171-0.167,0.336-0.342,0.493-0.53l10.513-12.519L26.9,26.746z"/><linearGradient id="Hbp6rXn6cXxJw7o16M2X3d" x1="27" x2="27" y1="28.737" y2="42.737" gradientUnits="userSpaceOnUse"><stop offset="0" stop-color="#ffcf54"/><stop offset=".261" stop-color="#fdcb4d"/><stop offset=".639" stop-color="#f7c13a"/><stop offset="1" stop-color="#f0b421"/></linearGradient><path fill="url(#Hbp6rXn6cXxJw7o16M2X3d)" d="M27,43c-3.85,0-7-3.15-7-7c0-3.85,3.15-7,7-7s7,3.15,7,7C34,39.85,30.85,43,27,43z"/><radialGradient id="Hbp6rXn6cXxJw7o16M2X3e" cx="27" cy="36" r="7" gradientUnits="userSpaceOnUse"><stop offset="0"/><stop offset="1" stop-opacity="0"/></radialGradient><path fill="url(#Hbp6rXn6cXxJw7o16M2X3e)" d="M27,43c-3.85,0-7-3.15-7-7c0-3.85,3.15-7,7-7	s7,3.15,7,7C34,39.85,30.85,43,27,43z" opacity=".15"/><linearGradient id="Hbp6rXn6cXxJw7o16M2X3f" x1="27" x2="27" y1="32.504" y2="42.504" gradientUnits="userSpaceOnUse"><stop offset="0" stop-color="#cf1928"/><stop offset=".304" stop-color="#cc1928"/><stop offset=".528" stop-color="#c31829"/><stop offset=".726" stop-color="#b3162b"/><stop offset=".908" stop-color="#9c142d"/><stop offset=".999" stop-color="#8e132e"/></linearGradient><path fill="url(#Hbp6rXn6cXxJw7o16M2X3f)" d="M27,41c-2.75,0-5-2.25-5-5c0-2.75,2.25-5,5-5s5,2.25,5,5C32,38.75,29.75,41,27,41z"/><radialGradient id="Hbp6rXn6cXxJw7o16M2X3g" cx="28" cy="36" r="3" gradientUnits="userSpaceOnUse"><stop offset="0"/><stop offset="1" stop-opacity="0"/></radialGradient><path fill="url(#Hbp6rXn6cXxJw7o16M2X3g)" d="M28,39c-1.65,0-3-1.35-3-3c0-1.65,1.35-3,3-3	c1.65,0,3,1.35,3,3C31,37.65,29.65,39,28,39z" opacity=".15"/><linearGradient id="Hbp6rXn6cXxJw7o16M2X3h" x1="27" x2="27" y1="34.042" y2="38.042" gradientUnits="userSpaceOnUse"><stop offset="0" stop-color="#ffcf54"/><stop offset=".261" stop-color="#fdcb4d"/><stop offset=".639" stop-color="#f7c13a"/><stop offset="1" stop-color="#f0b421"/></linearGradient><path fill="url(#Hbp6rXn6cXxJw7o16M2X3h)" d="M27,38c-1.1,0-2-0.9-2-2c0-1.1,0.9-2,2-2s2,0.9,2,2C29,37.1,28.1,38,27,38z"/><linearGradient id="Hbp6rXn6cXxJw7o16M2X3i" x1="15.749" x2="27.749" y1="-2.308" y2="-2.308" gradientTransform="rotate(45.001 13.9 24)" gradientUnits="userSpaceOnUse"><stop offset="0" stop-color="#ffcf54"/><stop offset=".261" stop-color="#fdcb4d"/><stop offset=".639" stop-color="#f7c13a"/><stop offset="1" stop-color="#f0b421"/></linearGradient><path fill="url(#Hbp6rXn6cXxJw7o16M2X3i)" d="M40.173,15.191l-6.364-6.364c-0.586-0.586-0.586-1.536,0-2.121l0,0	c0.586-0.586,1.536-0.586,2.121,0l6.364,6.364c0.586,0.586,0.586,1.536,0,2.121l0,0C41.709,15.776,40.759,15.776,40.173,15.191z"/><radialGradient id="Hbp6rXn6cXxJw7o16M2X3j" cx="9.533" cy="39.467" r="2.467" fx="8.669" fy="40.29" gradientUnits="userSpaceOnUse"><stop offset="0"/><stop offset="1" stop-opacity="0"/></radialGradient><path fill="url(#Hbp6rXn6cXxJw7o16M2X3j)" d="M9,37c-0.739,0-1.409,0.281-1.934,0.728	c0.343,0.933,0.887,1.811,1.641,2.565v0c0.754,0.754,1.631,1.297,2.565,1.641C11.719,41.409,12,40.739,12,40C12,38.35,10.65,37,9,37	z" opacity=".15"/><linearGradient id="Hbp6rXn6cXxJw7o16M2X3k" x1="6" x2="10" y1="41" y2="41" gradientUnits="userSpaceOnUse"><stop offset="0" stop-color="#7819a2"/><stop offset="1" stop-color="#771aa9"/></linearGradient><circle cx="8" cy="41" r="2" fill="url(#Hbp6rXn6cXxJw7o16M2X3k)"/><linearGradient id="Hbp6rXn6cXxJw7o16M2X3l" x1="6" x2="8" y1="30" y2="30" gradientTransform="matrix(0 1 1 0 -14 12)" gradientUnits="userSpaceOnUse"><stop offset="0" stop-color="#ffcf54"/><stop offset=".261" stop-color="#fdcb4d"/><stop offset=".639" stop-color="#f7c13a"/><stop offset="1" stop-color="#f0b421"/></linearGradient><path fill="url(#Hbp6rXn6cXxJw7o16M2X3l)" d="M17,20c0.552,0,1-0.448,1-1s-0.448-1-1-1s-3,0.448-3,1S16.448,20,17,20z"/><linearGradient id="Hbp6rXn6cXxJw7o16M2X3m" x1="10" x2="10" y1="29.951" y2="25.408" gradientTransform="rotate(180 10.5 21.5)" gradientUnits="userSpaceOnUse"><stop offset="0" stop-color="#fdcb4d"/><stop offset=".403" stop-color="#f7c13a"/><stop offset=".884" stop-color="#f0b421"/></linearGradient><path fill="url(#Hbp6rXn6cXxJw7o16M2X3m)" d="M10,14c0-0.552,0.448-1,1-1s1,0.448,1,1s-0.448,3-1,3S10,14.552,10,14z"/><linearGradient id="Hbp6rXn6cXxJw7o16M2X3n" x1="17" x2="19" y1="25" y2="25" gradientTransform="rotate(90 15 16)" gradientUnits="userSpaceOnUse"><stop offset="0" stop-color="#ffcf54"/><stop offset=".261" stop-color="#fdcb4d"/><stop offset=".639" stop-color="#f7c13a"/><stop offset="1" stop-color="#f0b421"/></linearGradient><path fill="url(#Hbp6rXn6cXxJw7o16M2X3n)" d="M5,20c-0.552,0-1-0.448-1-1s0.448-1,1-1s3,0.448,3,1S5.552,20,5,20z"/></svg>