<svg xmlns="http://www.w3.org/2000/svg" viewBox="0 0 48 48"><linearGradient id="PmQDHROrc0bpHZC4huY23a" x1="8.663" x2="38.122" y1="8.059" y2="32.915" gradientUnits="userSpaceOnUse"><stop offset="0" stop-color="#a1aab3"/><stop offset="1" stop-color="#8f979e"/></linearGradient><path fill="url(#PmQDHROrc0bpHZC4huY23a)" d="M41,35H7c-1.105,0-2-0.895-2-2V9c0-1.105,0.895-2,2-2h34c1.105,0,2,0.895,2,2v24	C43,34.105,42.105,35,41,35z"/><linearGradient id="PmQDHROrc0bpHZC4huY23b" x1="22.095" x2="25.904" y1="9.102" y2="32.892" gradientUnits="userSpaceOnUse"><stop offset="0" stop-color="#0d61a9"/><stop offset="1" stop-color="#16528c"/></linearGradient><rect width="34" height="24" x="7" y="9" fill="url(#PmQDHROrc0bpHZC4huY23b)"/><linearGradient id="PmQDHROrc0bpHZC4huY23c" x1="24" x2="24" y1="34.992" y2="39.008" gradientUnits="userSpaceOnUse"><stop offset="0" stop-color="#484b4f"/><stop offset=".23" stop-color="#656d75"/><stop offset=".367" stop-color="#727d86"/></linearGradient><rect width="8" height="4" x="20" y="35" fill="url(#PmQDHROrc0bpHZC4huY23c)"/><linearGradient id="PmQDHROrc0bpHZC4huY23d" x1="24" x2="24" y1="37.992" y2="42.008" gradientUnits="userSpaceOnUse"><stop offset="0" stop-color="#a1aab3"/><stop offset="1" stop-color="#8f979e"/></linearGradient><path fill="url(#PmQDHROrc0bpHZC4huY23d)" d="M33,38H15c-0.552,0-1,0.448-1,1v2c0,0.552,0.448,1,1,1h18c0.552,0,1-0.448,1-1v-2	C34,38.448,33.552,38,33,38z"/><path fill="#121212" d="M35,21H13c-0.552,0-1,0.448-1,1v0c0,0.552,0.448,1,1,1h22c0.552,0,1-0.448,1-1v0	C36,21.448,35.552,21,35,21z"/><path fill="#35c1f1" d="M16,4.438V21h16V4.438C32,3.644,31.356,3,30.562,3H17.438C16.644,3,16,3.644,16,4.438z"/><rect width="16" height="2" x="16" y="21" fill="#199be2"/><linearGradient id="PmQDHROrc0bpHZC4huY23e" x1="47.383" x2="65.383" y1="26.309" y2="26.309" gradientTransform="rotate(-90 30.537 37.846)" gradientUnits="userSpaceOnUse"><stop offset="0" stop-color="#45494d"/><stop offset="1" stop-color="#6d7479"/></linearGradient><polygon fill="url(#PmQDHROrc0bpHZC4huY23e)" points="20,21 20,3 18,3 18,21"/><path fill="#a8e7ff" d="M24,5.5V21h-2V5.5C22,5.224,22.224,5,22.5,5h1C23.776,5,24,5.224,24,5.5z"/><rect width="2" height="2" x="18" y="21" fill="#2d3033"/><rect width="2" height="2" x="22" y="21" fill="#76cced"/></svg>