<svg xmlns="http://www.w3.org/2000/svg" xmlns:xlink="http://www.w3.org/1999/xlink" data-name="Слой 1" viewBox="0 0 48 48"><defs><linearGradient id="JSjfumRpmkV9bP76UvH5Oa" x1="7" x2="7" y1="-.935" y2="39.068" data-name="Безымянный градиент 134" gradientUnits="userSpaceOnUse"><stop offset="0" stop-color="#889097"/><stop offset="1" stop-color="#4c5963"/></linearGradient><linearGradient id="JSjfumRpmkV9bP76UvH5Ob" x1="18.616" x2="34.898" y1="11.081" y2="55.816" xlink:href="#JSjfumRpmkV9bP76UvH5Oa"/><linearGradient id="JSjfumRpmkV9bP76UvH5Oc" x1="24.044" x2="38.671" y1="11.571" y2="51.757" xlink:href="#JSjfumRpmkV9bP76UvH5Oa"/><linearGradient id="JSjfumRpmkV9bP76UvH5Od" x1="5.075" x2="21.759" y1="16.013" y2="61.854" xlink:href="#JSjfumRpmkV9bP76UvH5Oa"/><linearGradient id="JSjfumRpmkV9bP76UvH5Oe" x1="32.527" x2="32.527" y1="-1639.339" y2="-1656.628" gradientTransform="matrix(1 0 0 -1 0 -1632)" xlink:href="#JSjfumRpmkV9bP76UvH5Oa"/><linearGradient id="JSjfumRpmkV9bP76UvH5Of" x1="37.117" x2="41.096" y1="7.81" y2="34.093" xlink:href="#JSjfumRpmkV9bP76UvH5Oa"/></defs><path fill="url(#JSjfumRpmkV9bP76UvH5Oa)" d="M11,21A9,9,0,0,1,11,3a1,1,0,0,1,0,2,7,7,0,0,0,0,14,1,1,0,0,1,0,2Z"/><path fill="url(#JSjfumRpmkV9bP76UvH5Ob)" d="M32,16s-2,3-5,3c-4.00985,0-5.00491-2.00986-10.54071-2A8.49571,8.49571,0,0,0,8,25.5V27a28.04074,28.04074,0,0,0,13,5.75,21.16537,21.16537,0,0,0,3.25.25c.58.03,1.14,0,1.75,0a48.50031,48.50031,0,0,0,8.0721-.64493,3.44443,3.44443,0,0,0,2.92782-3.32242L37,29c0-5,2-7,2-7Z"/><path fill="url(#JSjfumRpmkV9bP76UvH5Oc)" d="M34.54858,39,35,32H29l2,8a2,2,0,0,0,2,2h2.54858a.98322.98322,0,0,0,.99762-.90178A2,2,0,0,0,34.54858,39Z"/><path fill="url(#JSjfumRpmkV9bP76UvH5Od)" d="M18,31A63.91432,63.91432,0,0,1,8,27c0,1.61093,0,5.34015-2.3401,6.70282a.99644.99644,0,0,0-.48858,1.07631c.55392,2.46236,1.28052,5.2025,1.62742,6.48439A.99765.99765,0,0,0,7.76341,42H11a.98323.98323,0,0,0,.99764-.90182A2.00006,2.00006,0,0,0,10,39V36S16,35,18,31Z"/><path fill="url(#JSjfumRpmkV9bP76UvH5Oe)" d="M34.88993,11C35.88993,11,31,16.5,31,16.5S28.88993,12,30.88993,8C31.88993,8,32.88993,11,34.88993,11Z"/><path fill="url(#JSjfumRpmkV9bP76UvH5Of)" d="M44,15c-1.5-3.5-3.95563-5-6-5a6.76393,6.76393,0,0,0-7,6.5A6.76393,6.76393,0,0,0,38,23c3.866,0,8-2.5,8-6C46,16.05762,44.85022,16.98389,44,15Z"/><path fill="#f7c13a" d="M41.92329,16.92329s-1.35792.305-2.00733-.3444-.3444-2.00733-.3444-2.00733,1.35791-.305,2.00733.3444S41.92329,16.92329,41.92329,16.92329Z"/></svg>