<svg xmlns="http://www.w3.org/2000/svg" viewBox="0 0 48 48"><linearGradient id="3JxxGBpItxL_sCprwP3RVa" x1="-10.397" x2="33.286" y1="12.103" y2="55.786" gradientUnits="userSpaceOnUse"><stop offset="0" stop-color="#37c6d0"/><stop offset="1" stop-color="#1a9ba1"/></linearGradient><ellipse cx="17" cy="39.5" fill="url(#3JxxGBpItxL_sCprwP3RVa)" rx="4" ry="3.5"/><linearGradient id="3JxxGBpItxL_sCprwP3RVb" x1="-3.462" x2="40.221" y1="5.168" y2="48.851" gradientUnits="userSpaceOnUse"><stop offset="0" stop-color="#37c6d0"/><stop offset="1" stop-color="#1a9ba1"/></linearGradient><path fill="url(#3JxxGBpItxL_sCprwP3RVb)" d="M41.837,36.205c-8.94,8.687-22.708,9.111-30.93,0.889s-7.798-21.991,0.889-30.93	c4.596-4.606,4.823,8.611,13.127,16.915C33.225,31.381,46.443,31.609,41.837,36.205z"/><radialGradient id="3JxxGBpItxL_sCprwP3RVc" cx="26.816" cy="21.184" r="21.441" gradientTransform="matrix(-.708 -.7062 .3856 -.3866 37.633 48.311)" gradientUnits="userSpaceOnUse"><stop offset="0" stop-color="#afdfef"/><stop offset="1" stop-color="#37c6d0"/></radialGradient><path fill="url(#3JxxGBpItxL_sCprwP3RVc)" d="M41.837,36.205c-4.596,4.606-15.051,1.616-23.354-6.687	c-8.303-8.303-11.293-18.758-6.687-23.354c4.596-4.606,15.051-1.616,23.354,6.687C43.453,21.154,46.443,31.609,41.837,36.205z"/></svg>