<svg xmlns="http://www.w3.org/2000/svg" viewBox="0 0 48 48"><radialGradient id="FEzrbYLwnV3dhhBMmMICPa" cx="23.754" cy="-1273.405" r="13.71" gradientTransform="matrix(1 0 0 -1 0 -1252)" gradientUnits="userSpaceOnUse"><stop offset=".376" stop-color="#261103"/><stop offset=".68" stop-color="#431d06"/><stop offset="1" stop-color="#662c09"/></radialGradient><path fill="url(#FEzrbYLwnV3dhhBMmMICPa)" d="M24,9C13.704,9,11.15,25.625,11.15,25.625c0,2.96,1.375,5.553,4.253,6.24 C18.216,32.569,21.101,32.949,24,33c2.899-0.051,5.783-0.431,8.596-1.134c2.879-0.687,4.253-3.281,4.253-6.24 C36.85,25.625,34.296,9,24,9z"/><linearGradient id="FEzrbYLwnV3dhhBMmMICPb" x1="14.786" x2="33.076" y1="891.187" y2="909.477" gradientTransform="translate(0 -860)" gradientUnits="userSpaceOnUse"><stop offset="0" stop-color="#8795a1"/><stop offset="1" stop-color="#6d7882"/></linearGradient><path fill="url(#FEzrbYLwnV3dhhBMmMICPb)" d="M24,30.571c-8.837,0-16,4.921-16,10.286V42c0,1.104,0.895,2,1.999,2c0,0,0.001,0,0.001,0h28 c1.104,0,2-0.895,2-1.999c0,0,0-0.001,0-0.001v-1.143C40,35.492,32.837,30.571,24,30.571z"/><path fill="#d6a121" d="M29,33c0,1.897-2.83,4-5,4s-5-2.103-5-4v-7.035h10V33z"/><radialGradient id="FEzrbYLwnV3dhhBMmMICPc" cx="-3482.613" cy="-1308.342" r="10.72" gradientTransform="matrix(-.9136 0 0 -.9667 -3157.715 -1244.74)" gradientUnits="userSpaceOnUse"><stop offset="0" stop-color="#ffcf54"/><stop offset=".261" stop-color="#fdcb4d"/><stop offset=".639" stop-color="#f7c13a"/><stop offset="1" stop-color="#f0b421"/></radialGradient><path fill="url(#FEzrbYLwnV3dhhBMmMICPc)" d="M24,8.071c3.948,0,8,0.693,8,9.722v6.508C32,27.526,27.101,32,24,32s-8-4.474-8-7.698v-6.508 C16,9,20.052,8.071,24,8.071z"/><radialGradient id="FEzrbYLwnV3dhhBMmMICPd" cx="16.884" cy="-1257.474" r="32.342" gradientTransform="matrix(1 0 0 -1 0 -1252)" gradientUnits="userSpaceOnUse"><stop offset="0" stop-color="#c26715"/><stop offset=".508" stop-color="#b85515"/><stop offset="1" stop-color="#ad3f16"/></radialGradient><path fill="url(#FEzrbYLwnV3dhhBMmMICPd)" d="M24,5c-5.188,0-6,3-6,3c-2.109,0.311-7,1-7,17.478c0,3.801,1.903,5.197,2.6,5.603 C11,16.717,20.576,19.036,19,10c4.046,11.813,16.293,0.054,15.871,20.734c1.479-1.332,2.264-3.27,2.129-5.256 C37,11.672,31.399,5,24,5z"/><path d="M27.724,44h7.671l4.447-4.448c-0.412-1.906-1.693-3.705-3.606-5.186 L28.1,42.503L27.724,44z" opacity=".05"/><path d="M36.619,34.691l-7.924,7.925l-0.2,0.367l0,0h-0.001L28.239,44h6.449 l4.987-4.988C39.223,37.439,38.154,35.954,36.619,34.691z" opacity=".07"/><path fill="#c94f60" d="M47.781,29.141l-1.922-1.921c-0.292-0.293-0.768-0.293-1.061,0l-0.904,0.905l2.981,2.981 l0.905-0.904C48.073,29.908,48.073,29.434,47.781,29.141"/><path fill="#f0f0f0" d="M29.003,43.016L28,47l3.985-1.003l0.418-3.456L29.003,43.016z"/><path fill="#edbe00" d="M44.333,33.648L31.985,45.996l-2.981-2.981l12.348-12.348L44.333,33.648z"/><linearGradient id="FEzrbYLwnV3dhhBMmMICPe" x1="44.112" x2="44.112" y1="-46.312" y2="-51.801" gradientTransform="matrix(1 0 0 -1 0 -18)" gradientUnits="userSpaceOnUse"><stop offset="0" stop-color="#dedede"/><stop offset="1" stop-color="#d6d6d6"/></linearGradient><path fill="url(#FEzrbYLwnV3dhhBMmMICPe)" d="M41.349,30.667l2.543-2.544l2.983,2.981l-2.543,2.544L41.349,30.667z"/><path fill="#787878" d="M28.508,44.985L28,47l2.014-0.508L28.508,44.985z"/></svg>