<svg xmlns="http://www.w3.org/2000/svg" viewBox="0 0 48 48"><path fill="#50e6ff" d="M4,38V15h40v23c0,1.1-0.9,2-2,2H6C4.9,40,4,39.1,4,38z"/><linearGradient id="wNVUUBEl8DG3VHvGBRCHna" x1="4.614" x2="42.936" y1="-198.259" y2="-190.467" gradientTransform="translate(0 206)" gradientUnits="userSpaceOnUse"><stop offset="0" stop-color="#0077d2"/><stop offset="1" stop-color="#0b59a2"/></linearGradient><path fill="url(#wNVUUBEl8DG3VHvGBRCHna)" d="M44,10v5H4v-5c0-1.1,0.9-2,2-2h36C43.1,8,44,8.9,44,10z"/><linearGradient id="wNVUUBEl8DG3VHvGBRCHnb" x1="6.751" x2="8.032" y1="-195.584" y2="-193.731" gradientTransform="translate(0 206)" gradientUnits="userSpaceOnUse"><stop offset="0" stop-color="#75daff"/><stop offset="1" stop-color="#49bef1"/></linearGradient><circle cx="7.5" cy="11.5" r="1.5" fill="url(#wNVUUBEl8DG3VHvGBRCHnb)"/><linearGradient id="wNVUUBEl8DG3VHvGBRCHnc" x1="11.751" x2="13.032" y1="-195.584" y2="-193.731" gradientTransform="translate(0 206)" gradientUnits="userSpaceOnUse"><stop offset="0" stop-color="#75daff"/><stop offset="1" stop-color="#49bef1"/></linearGradient><circle cx="12.5" cy="11.5" r="1.5" fill="url(#wNVUUBEl8DG3VHvGBRCHnc)"/><linearGradient id="wNVUUBEl8DG3VHvGBRCHnd" x1="16.751" x2="18.032" y1="-195.584" y2="-193.731" gradientTransform="translate(0 206)" gradientUnits="userSpaceOnUse"><stop offset="0" stop-color="#75daff"/><stop offset="1" stop-color="#49bef1"/></linearGradient><circle cx="17.5" cy="11.5" r="1.5" fill="url(#wNVUUBEl8DG3VHvGBRCHnd)"/><path d="M43.5,32c-1.926,0-3.546,1.093-4.5,1.925C38.046,33.093,36.426,32,34.5,32	c-1.474,0-2.858,0.595-3.9,1.674c-1.032,1.068-1.6,2.476-1.599,3.963c0,0.878,0.334,1.705,0.715,2.363H42c1.1,0,2-0.9,2-2v-5.976	C43.835,32.008,43.669,32,43.5,32z" opacity=".05"/><path d="M43.5,32.5c-2.053,0-3.768,1.399-4.5,2.102c-0.732-0.702-2.447-2.102-4.5-2.102	c-1.336,0-2.594,0.54-3.541,1.521c-0.94,0.974-1.459,2.258-1.458,3.615c0,0.882,0.399,1.73,0.803,2.363H42c1.1,0,2-0.9,2-2v-5.474	C43.836,32.509,43.669,32.5,43.5,32.5z" opacity=".07"/><linearGradient id="wNVUUBEl8DG3VHvGBRCHne" x1="35.502" x2="43.968" y1="98.041" y2="111.08" gradientTransform="translate(0 -66)" gradientUnits="userSpaceOnUse"><stop offset="0" stop-color="#f44f5a"/><stop offset=".443" stop-color="#ee3d4a"/><stop offset="1" stop-color="#e52030"/></linearGradient><path fill="url(#wNVUUBEl8DG3VHvGBRCHne)" d="M39,35.319c0,0,2.015-2.319,4.5-2.319s4.5,2.105,4.5,4.637c0,1.57-1.5,3.091-1.5,3.091	l-6.741,6.947c-0.419,0.432-1.099,0.432-1.518,0l-6.74-6.947c0,0-1.5-1.522-1.5-3.091C30,35.105,32.015,33,34.5,33	S39,35.319,39,35.319z"/></svg>