<svg xmlns="http://www.w3.org/2000/svg" viewBox="0 0 48 48"><linearGradient id="KDDiYn5xH8CQJ0gQlOkcqa" x1="6.995" x2="39.421" y1="3.514" y2="42.578" gradientUnits="userSpaceOnUse"><stop offset="0" stop-color="#5961c3"/><stop offset="1" stop-color="#3a41ac"/></linearGradient><path fill="url(#KDDiYn5xH8CQJ0gQlOkcqa)" d="M42,38c0,2.209-1.791,4-4,4H10c-2.209,0-4-1.791-4-4V10c0-2.209,1.791-4,4-4h28	c2.209,0,4,1.791,4,4V38z"/><circle cx="22.5" cy="15.5" r="3.5" opacity=".05"/><circle cx="22.5" cy="15.5" r="3" opacity=".07"/><circle cx="22.5" cy="15.5" r="2.5" fill="#fff"/><circle cx="30" cy="15" r="4" opacity=".05"/><circle cx="30" cy="15" r="3.5" opacity=".07"/><circle cx="30" cy="15" r="3" fill="#fff"/><path d="M24.5,37c-0.827,0-1.5-0.673-1.5-1.5V33h-3.5c-0.827,0-1.5-0.673-1.5-1.5V30h-4.5	c-0.827,0-1.5-0.673-1.5-1.5v-4.75c0-2.619,2.019-4.75,4.5-4.75c1.422,0,2.753,0.72,3.593,1.91C20.935,20.32,21.947,20,23,20	c1.412,0,2.772,0.602,3.717,1.626C27.582,21.216,28.536,21,29.5,21c0.172,0,0.346,0.008,0.521,0.021	C33.374,21.283,36,24.229,36,27.727V35.5c0,0.827-0.673,1.5-1.5,1.5H24.5z" opacity=".05"/><path d="M24.5,36.5c-0.551,0-1-0.448-1-1v-3h-4c-0.551,0-1-0.448-1-1v-2h-5c-0.551,0-1-0.448-1-1v-4.75	c0-2.344,1.794-4.25,4-4.25c1.451,0,2.763,0.839,3.463,2.151C20.787,20.912,21.858,20.5,23,20.5c1.413,0,2.748,0.661,3.592,1.752	c0.887-0.493,1.883-0.752,2.908-0.752c0.159,0,0.32,0.007,0.481,0.02c3.095,0.242,5.519,2.969,5.519,6.207V35.5c0,0.552-0.449,1-1,1	H24.5z" opacity=".07"/><path fill="#fff" d="M29.942,22.017c-1.297-0.102-2.507,0.249-3.494,0.908C25.756,21.78,24.48,21,23,21	c-1.313,0-2.469,0.617-3.198,1.556C19.334,21.073,18.04,20,16.5,20c-1.934,0-3.5,1.678-3.5,3.75v4.75c0,0.276,0.224,0.5,0.5,0.5H19	v2.5c0,0.276,0.224,0.5,0.5,0.5H24v3.5c0,0.276,0.224,0.5,0.5,0.5h10c0.276,0,0.5-0.224,0.5-0.5l0-7.774	C35,24.819,32.841,22.245,29.942,22.017z"/><circle cx="16" cy="16" r="3" opacity=".05"/><circle cx="16" cy="16" r="2.5" opacity=".07"/><circle cx="16" cy="16" r="2" fill="#fff"/></svg>