<svg xmlns="http://www.w3.org/2000/svg" viewBox="0 0 48 48"><linearGradient id="eA9PUwlwoX6S2L28efQYba" x1="6.414" x2="41.774" y1="-441.552" y2="-467.378" gradientTransform="matrix(1 0 0 -1 0 -427.89)" gradientUnits="userSpaceOnUse"><stop offset="0" stop-color="#28afea"/><stop offset="1" stop-color="#047ed6"/></linearGradient><path fill="url(#eA9PUwlwoX6S2L28efQYba)" d="M6,40V12h36v28c0,1.1-0.9,2-2,2H8C6.9,42,6,41.1,6,40z"/><g opacity=".05"><path d="M22.285,31.666h-4.883c0.123-0.103,0.254-0.206,0.391-0.309c0.324-0.244,0.661-0.49,1.001-0.731 c0.546-0.376,1.08-0.771,1.585-1.175c0.545-0.433,1.037-0.92,1.463-1.449c0.439-0.551,0.794-1.164,1.054-1.822 c0.273-0.69,0.412-1.477,0.412-2.336c0-0.822-0.145-1.586-0.43-2.27c-0.292-0.701-0.725-1.307-1.284-1.802 c-0.549-0.484-1.217-0.858-1.987-1.11c-0.743-0.246-1.584-0.37-2.499-0.37c-1.939,0-3.71,0.51-5.261,1.514 c-0.287,0.185-0.458,0.498-0.458,0.84v3.108c0,0.392,0.23,0.749,0.583,0.909c0.354,0.161,0.775,0.104,1.073-0.155 c1.066-0.927,2.178-1.397,3.303-1.397c0.522,0,0.916,0.095,1.106,0.267c0.17,0.154,0.253,0.421,0.253,0.813 c0,0.226-0.038,0.437-0.113,0.631c-0.08,0.209-0.211,0.429-0.388,0.649c-0.202,0.252-0.461,0.515-0.769,0.779 c-0.327,0.283-0.719,0.588-1.164,0.907c-0.461,0.33-0.948,0.701-1.46,1.112c-0.547,0.439-1.059,0.953-1.521,1.527 c-0.475,0.59-0.872,1.261-1.181,1.992c-0.328,0.772-0.494,1.646-0.494,2.599v1.208c0,0.552,0.448,1,1,1h10.668 c0.552,0,1-0.448,1-1v-2.93C23.285,32.114,22.837,31.666,22.285,31.666z"/><path d="M36.431,28.669h-0.924v-9.108c0-0.552-0.448-1-1-1H31.23c-0.388,0-0.744,0.228-0.908,0.58 c-0.356,0.771-0.796,1.59-1.306,2.436c-0.521,0.86-1.088,1.726-1.687,2.571c-0.611,0.86-1.247,1.7-1.889,2.496 c-0.635,0.788-1.271,1.541-1.89,2.236c-0.164,0.184-0.254,0.42-0.254,0.666v2.763c0,0.552,0.448,1,1,1h5.988v2.287 c0,0.552,0.448,1,1,1h3.221c0.552,0,1-0.448,1-1v-2.287h0.924c0.552,0,1-0.448,1-1v-2.64 C37.431,29.117,36.982,28.669,36.431,28.669z M30.286,27.587v1.082h-0.779C29.769,28.316,30.029,27.955,30.286,27.587z"/></g><g opacity=".07"><path d="M17.492,30.958c0.328-0.247,0.669-0.496,1.018-0.743c0.538-0.371,1.059-0.757,1.559-1.155 c0.517-0.41,0.981-0.871,1.383-1.37c0.407-0.51,0.737-1.079,0.979-1.693c0.25-0.632,0.377-1.355,0.377-2.152 c0-0.757-0.132-1.456-0.391-2.077c-0.263-0.629-0.65-1.174-1.154-1.619c-0.496-0.438-1.106-0.779-1.813-1.011 c-0.692-0.229-1.481-0.345-2.343-0.345c-1.841,0-3.521,0.482-4.99,1.434c-0.143,0.092-0.229,0.25-0.229,0.42v3.108 c0,0.196,0.114,0.374,0.293,0.455c0.178,0.082,0.387,0.051,0.535-0.078c1.16-1.009,2.382-1.521,3.631-1.521 c0.666,0,1.151,0.134,1.442,0.396c0.28,0.254,0.417,0.641,0.417,1.184c0,0.287-0.049,0.559-0.146,0.81 c-0.1,0.26-0.257,0.523-0.465,0.784c-0.223,0.277-0.503,0.562-0.831,0.845c-0.343,0.296-0.746,0.609-1.2,0.935 s-0.934,0.69-1.438,1.096c-0.521,0.419-1.007,0.907-1.445,1.451c-0.445,0.553-0.819,1.184-1.11,1.874 c-0.302,0.711-0.454,1.52-0.454,2.403v1.208c0,0.276,0.224,0.5,0.5,0.5h10.668c0.276,0,0.5-0.224,0.5-0.5v-2.93 c0-0.276-0.224-0.5-0.5-0.5h-6.079c0.12-0.165,0.271-0.335,0.452-0.509C16.901,31.427,17.182,31.191,17.492,30.958z"/><path d="M36.431,29.169h-1.424v-9.608c0-0.276-0.224-0.5-0.5-0.5H31.23c-0.194,0-0.372,0.113-0.454,0.29 c-0.364,0.787-0.813,1.623-1.332,2.484c-0.524,0.867-1.099,1.743-1.707,2.603c-0.619,0.871-1.261,1.719-1.906,2.52 c-0.644,0.8-1.285,1.559-1.906,2.256c-0.082,0.092-0.127,0.21-0.127,0.333v2.763c0,0.276,0.224,0.5,0.5,0.5h6.488v2.787 c0,0.276,0.224,0.5,0.5,0.5h3.221c0.276,0,0.5-0.224,0.5-0.5v-2.787h1.424c0.276,0,0.5-0.224,0.5-0.5v-2.64 C36.931,29.393,36.707,29.169,36.431,29.169z M28.497,29.169c0.118-0.152,0.237-0.308,0.358-0.466 c0.347-0.457,0.69-0.929,1.029-1.415c0.313-0.448,0.614-0.904,0.901-1.366v3.247H28.497z"/></g><linearGradient id="eA9PUwlwoX6S2L28efQYbb" x1="6.42" x2="41.198" y1="-434.498" y2="-441.57" gradientTransform="matrix(1 0 0 -1 0 -427.89)" gradientUnits="userSpaceOnUse"><stop offset="0" stop-color="#0077d2"/><stop offset="1" stop-color="#0b59a2"/></linearGradient><path fill="url(#eA9PUwlwoX6S2L28efQYbb)" d="M42,8v6H6V8c0-1.1,0.9-2,2-2h32C41.1,6,42,6.9,42,8z"/><path d="M35.5,12.5L35.5,12.5c-1.657,0-3-1.343-3-3V6h6v3.5 C38.5,11.157,37.157,12.5,35.5,12.5z" opacity=".05"/><path d="M35.5,11.75L35.5,11.75c-1.243,0-2.25-1.007-2.25-2.25V6h4.5v3.5 C37.75,10.743,36.743,11.75,35.5,11.75z" opacity=".07"/><path d="M12.5,12.5L12.5,12.5c-1.657,0-3-1.343-3-3V6h6v3.5 C15.5,11.157,14.157,12.5,12.5,12.5z" opacity=".05"/><path d="M12.5,11.75L12.5,11.75c-1.243,0-2.25-1.007-2.25-2.25V6h4.5v3.5 C14.75,10.743,13.743,11.75,12.5,11.75z" opacity=".07"/><path fill="#3ccbf4" d="M12.5,11L12.5,11c-0.828,0-1.5-0.672-1.5-1.5v-4C11,4.672,11.672,4,12.5,4l0,0 C13.328,4,14,4.672,14,5.5v4C14,10.328,13.328,11,12.5,11z"/><path fill="#3ccbf4" d="M35.5,11L35.5,11c-0.828,0-1.5-0.672-1.5-1.5v-4C34,4.672,34.672,4,35.5,4l0,0 C36.328,4,37,4.672,37,5.5v4C37,10.328,36.328,11,35.5,11z"/><path fill="#fff" d="M15.486,32.666h6.799v2.93H11.617v-1.208c0-0.819,0.138-1.556,0.414-2.208 c0.275-0.652,0.622-1.237,1.04-1.756c0.417-0.518,0.874-0.977,1.369-1.375c0.496-0.398,0.968-0.759,1.415-1.079 c0.47-0.336,0.881-0.656,1.235-0.962s0.652-0.609,0.895-0.911s0.423-0.607,0.542-0.917c0.12-0.31,0.18-0.64,0.18-0.989 c0-0.687-0.194-1.204-0.582-1.555s-0.98-0.525-1.777-0.525c-1.38,0-2.699,0.548-3.959,1.644v-3.108 c1.395-0.902,2.967-1.354,4.719-1.354c0.813,0,1.541,0.106,2.187,0.319c0.645,0.212,1.19,0.516,1.638,0.911 s0.789,0.874,1.023,1.437c0.235,0.563,0.353,1.191,0.353,1.885c0,0.737-0.114,1.394-0.342,1.968 c-0.227,0.574-0.529,1.096-0.905,1.565c-0.377,0.47-0.811,0.9-1.303,1.291c-0.492,0.392-1.003,0.771-1.532,1.136 c-0.357,0.253-0.702,0.505-1.034,0.755c-0.332,0.249-0.624,0.495-0.878,0.737c-0.253,0.242-0.454,0.479-0.604,0.71 C15.561,32.237,15.486,32.457,15.486,32.666z"/><path fill="#fff" d="M34.507,19.561v10.108h1.924v2.64h-1.924v3.287h-3.221v-3.287h-6.988v-2.763 c0.618-0.693,1.26-1.451,1.923-2.275c0.664-0.823,1.305-1.672,1.924-2.544c0.618-0.872,1.194-1.75,1.728-2.633 c0.533-0.884,0.985-1.728,1.358-2.533H34.507z M27.462,29.669h3.824v-5.602c-0.261,0.484-0.544,0.975-0.85,1.47 c-0.306,0.496-0.626,0.984-0.962,1.465c-0.335,0.481-0.675,0.947-1.018,1.398S27.782,29.274,27.462,29.669z"/></svg>