<svg xmlns="http://www.w3.org/2000/svg" viewBox="0 0 48 48"><linearGradient id="keig9XniC3Hl4nj0bxMdNa" x1="42.179" x2="24.179" y1="42.965" y2="20.88" gradientUnits="userSpaceOnUse"><stop offset="0" stop-color="#4b4b4b"/><stop offset=".531" stop-color="#393939"/><stop offset="1" stop-color="#252525"/></linearGradient><path fill="url(#keig9XniC3Hl4nj0bxMdNa)" d="M24,44.366c-0.709,0-1.419-0.26-1.972-0.781L8.601,30.946 c-0.575-0.541-0.905-1.305-0.905-2.095V12.469c0-0.779,0.323-1.536,0.886-2.076l6.997-6.707c0.539-0.516,1.246-0.8,1.991-0.8H30.43 c0.746,0,1.453,0.284,1.991,0.8l6.996,6.707c0.563,0.54,0.886,1.297,0.886,2.077v16.382c0,0.79-0.33,1.553-0.905,2.095 L25.972,43.586C25.419,44.106,24.71,44.366,24,44.366z"/><linearGradient id="keig9XniC3Hl4nj0bxMdNb" x1="33.466" x2="30.084" y1="14.069" y2="39.41" gradientUnits="userSpaceOnUse"><stop offset="0" stop-color="#484b4f"/><stop offset=".23" stop-color="#656d75"/><stop offset=".367" stop-color="#727d86"/></linearGradient><polygon fill="url(#keig9XniC3Hl4nj0bxMdNb)" points="30,15 30,26.416 26.916,29.316 31.281,33.349 36,28.908 36.001,15"/><linearGradient id="keig9XniC3Hl4nj0bxMdNc" x1="24.078" x2="23.918" y1="3.223" y2="21.223" gradientUnits="userSpaceOnUse"><stop offset="0" stop-color="#484b4f"/><stop offset=".23" stop-color="#656d75"/><stop offset=".367" stop-color="#727d86"/></linearGradient><path fill="url(#keig9XniC3Hl4nj0bxMdNc)" d="M36.104,12l-2.845-2.933L30.205,6H17.716l-2.976,3.067L11.896,12H21l6,0h0.001L36.104,12z"/><linearGradient id="keig9XniC3Hl4nj0bxMdNd" x1="26.916" x2="32.98" y1="23.183" y2="23.183" gradientUnits="userSpaceOnUse"><stop offset="0" stop-color="#a1aab3"/><stop offset="1" stop-color="#8f979e"/></linearGradient><polygon fill="url(#keig9XniC3Hl4nj0bxMdNd)" points="32.98,15 30,15 30,26.416 26.916,29.316 29.137,31.365 32.979,27.75"/><linearGradient id="keig9XniC3Hl4nj0bxMdNe" x1="8.895" x2="44.895" y1="4.751" y2="42.368" gradientUnits="userSpaceOnUse"><stop offset="0" stop-color="#4b4b4b"/><stop offset=".531" stop-color="#393939"/><stop offset="1" stop-color="#252525"/></linearGradient><path fill="url(#keig9XniC3Hl4nj0bxMdNe)" d="M24,45.251c-0.74,0-1.48-0.271-2.057-0.814l-14-13.179C7.344,30.695,7,29.898,7,29.075V11.993	c0-0.813,0.336-1.602,0.923-2.165l7.295-6.994C15.78,2.296,16.518,2,17.295,2h13.41c0.777,0,1.515,0.296,2.076,0.834l7.295,6.994	C40.663,10.391,41,11.18,41,11.993v17.082c0,0.824-0.344,1.62-0.943,2.184l-14,13.179C25.48,44.98,24.74,45.251,24,45.251z M17.295,4c-0.259,0-0.505,0.099-0.692,0.278l-7.295,6.993C9.112,11.459,9,11.722,9,11.993v17.082c0,0.274,0.115,0.54,0.314,0.728	l14,13.179c0.384,0.361,0.987,0.361,1.371,0l14-13.179c0.2-0.188,0.314-0.454,0.314-0.728V11.993c0-0.271-0.112-0.534-0.309-0.722	l-7.294-6.993C31.21,4.099,30.964,4,30.705,4H17.295z"/><linearGradient id="keig9XniC3Hl4nj0bxMdNf" x1="11.896" x2="36.104" y1="10.5" y2="10.5" gradientUnits="userSpaceOnUse"><stop offset="0" stop-color="#a1aab3"/><stop offset="1" stop-color="#8f979e"/></linearGradient><polygon fill="url(#keig9XniC3Hl4nj0bxMdNf)" points="14.741,9.067 11.896,12 21,12 27,12 36.104,12 33.259,9.067 33.193,9 14.806,9"/><path fill="#727d86" d="M24,9l-3,3v26.493l3,3.013l3-3.013V12h0.001L24,9z"/><linearGradient id="keig9XniC3Hl4nj0bxMdNg" x1="21.754" x2="43.285" y1="24.911" y2="28.187" gradientUnits="userSpaceOnUse"><stop offset="0" stop-color="#484b4f"/><stop offset=".23" stop-color="#656d75"/><stop offset=".367" stop-color="#727d86"/></linearGradient><polygon fill="url(#keig9XniC3Hl4nj0bxMdNg)" points="24,41.505 27,38.493 27,12 27.001,12 24,9 24,41.505"/><linearGradient id="keig9XniC3Hl4nj0bxMdNh" x1="36.264" x2="26.434" y1="28.706" y2="12.238" gradientUnits="userSpaceOnUse"><stop offset="0" stop-color="#737b80"/><stop offset=".473" stop-color="#686f74"/><stop offset="1" stop-color="#575c61"/></linearGradient><polygon fill="url(#keig9XniC3Hl4nj0bxMdNh)" points="32.98,15 30,15 30,26.416 32.979,27.75"/><linearGradient id="keig9XniC3Hl4nj0bxMdNi" x1="24.257" x2="52.001" y1="10.482" y2="10.567" gradientUnits="userSpaceOnUse"><stop offset="0" stop-color="#484b4f"/><stop offset=".23" stop-color="#656d75"/><stop offset=".367" stop-color="#727d86"/></linearGradient><polygon fill="url(#keig9XniC3Hl4nj0bxMdNi)" points="24,9 27,12 36.104,12 33.259,9.067 33.193,9"/><linearGradient id="keig9XniC3Hl4nj0bxMdNj" x1="48.416" x2="45.033" y1="14.069" y2="39.41" gradientTransform="matrix(-1 0 0 1 62.917 0)" gradientUnits="userSpaceOnUse"><stop offset="0" stop-color="#484b4f"/><stop offset=".23" stop-color="#656d75"/><stop offset=".367" stop-color="#727d86"/></linearGradient><polygon fill="url(#keig9XniC3Hl4nj0bxMdNj)" points="11.967,15 11.968,28.908 16.687,33.349 21.052,29.316 17.968,26.416 17.968,15"/><linearGradient id="keig9XniC3Hl4nj0bxMdNk" x1="41.866" x2="47.929" y1="23.183" y2="23.183" gradientTransform="matrix(-1 0 0 1 62.917 0)" gradientUnits="userSpaceOnUse"><stop offset="0" stop-color="#a1aab3"/><stop offset="1" stop-color="#8f979e"/></linearGradient><polygon fill="url(#keig9XniC3Hl4nj0bxMdNk)" points="14.989,15 17.968,15 17.968,26.416 21.052,29.316 18.831,31.365 14.99,27.75"/><linearGradient id="keig9XniC3Hl4nj0bxMdNl" x1="51.213" x2="41.383" y1="28.706" y2="12.238" gradientTransform="matrix(-1 0 0 1 62.917 0)" gradientUnits="userSpaceOnUse"><stop offset="0" stop-color="#737b80"/><stop offset=".473" stop-color="#686f74"/><stop offset="1" stop-color="#575c61"/></linearGradient><polygon fill="url(#keig9XniC3Hl4nj0bxMdNl)" points="14.989,15 17.968,15 17.968,26.416 14.99,27.75"/></svg>