<svg xmlns="http://www.w3.org/2000/svg" viewBox="0 0 48 48"><linearGradient id="D9oz0287u100v7z67aYEOa" x1="35.5" x2="35.5" y1="36.5" y2="43.5" gradientUnits="userSpaceOnUse"><stop offset=".502" stop-color="#4a4a4a"/><stop offset=".7" stop-color="#444"/><stop offset=".97" stop-color="#323232"/><stop offset="1" stop-color="#303030"/></linearGradient><path fill="url(#D9oz0287u100v7z67aYEOa)" d="M38,36c0-0.553-0.447-1-1-1h-3c-0.553,0-1,0.447-1,1v5c0,0.553,0.447,1,1,1h3 c0.553,0,1-0.447,1-1V36z"/><linearGradient id="D9oz0287u100v7z67aYEOb" x1="12.5" x2="12.5" y1="36.5" y2="43.5" gradientUnits="userSpaceOnUse"><stop offset=".502" stop-color="#4a4a4a"/><stop offset=".7" stop-color="#444"/><stop offset=".97" stop-color="#323232"/><stop offset="1" stop-color="#303030"/></linearGradient><path fill="url(#D9oz0287u100v7z67aYEOb)" d="M15,36c0-0.553-0.447-1-1-1h-3c-0.553,0-1,0.447-1,1v5c0,0.553,0.447,1,1,1h3 c0.553,0,1-0.447,1-1V36z"/><path fill="#0370c8" d="M38,28V9c0-1.657-1.343-3-3-3H13c-1.657,0-3,1.343-3,3v19H38z"/><linearGradient id="D9oz0287u100v7z67aYEOc" x1="33.176" x2="40.317" y1="18.5" y2="18.5" gradientUnits="userSpaceOnUse"><stop offset="0" stop-color="#0370c8"/><stop offset=".167" stop-color="#1780d4"/><stop offset=".561" stop-color="#42a4ed"/></linearGradient><path fill="url(#D9oz0287u100v7z67aYEOc)" d="M40,21c0,0.553-0.447,1-1,1h-4c-0.553,0-1-0.447-1-1v-5c0-0.553,0.447-1,1-1h4 c0.553,0,1,0.447,1,1V21z"/><linearGradient id="D9oz0287u100v7z67aYEOd" x1="33.176" x2="40.317" y1="18.5" y2="18.5" gradientTransform="matrix(-1 0 0 1 48 0)" gradientUnits="userSpaceOnUse"><stop offset="0" stop-color="#0370c8"/><stop offset=".167" stop-color="#1780d4"/><stop offset=".561" stop-color="#42a4ed"/></linearGradient><path fill="url(#D9oz0287u100v7z67aYEOd)" d="M8,16c0-0.553,0.447-1,1-1h4c0.553,0,1,0.447,1,1v5c0,0.553-0.447,1-1,1H9 c-0.553,0-1-0.447-1-1V16z"/><path fill="#42a4ed" d="M40,28c0-1.104-0.896-2-2-2H10c-1.104,0-2,0.896-2,2v8c0,1.104,0.896,2,2,2h28c1.104,0,2-0.896,2-2 V28z"/><path fill="#42a4ed" d="M35,28H13V13c0-1.104,0.896-2,2-2h18c1.104,0,2,0.896,2,2V28z"/><circle cx="12" cy="31" r="2" fill="#fff"/><circle cx="36" cy="31" r="2" fill="#fff"/><linearGradient id="D9oz0287u100v7z67aYEOe" x1="15" x2="33" y1="18" y2="18" gradientUnits="userSpaceOnUse"><stop offset="0" stop-color="#3079d6"/><stop offset="1" stop-color="#297cd2"/></linearGradient><path fill="url(#D9oz0287u100v7z67aYEOe)" d="M33,14c0-0.553-0.447-1-1-1H16c-0.552,0-1,0.447-1,1v8c0,0.553,0.448,1,1,1h16 c0.553,0,1-0.447,1-1V14z"/><linearGradient id="D9oz0287u100v7z67aYEOf" x1="16" x2="32" y1="32" y2="32" gradientUnits="userSpaceOnUse"><stop offset="0" stop-color="#3079d6"/><stop offset="1" stop-color="#297cd2"/></linearGradient><path fill="url(#D9oz0287u100v7z67aYEOf)" d="M17,28h14c0.552,0,1,0.448,1,1v6c0,0.552-0.448,1-1,1H17c-0.552,0-1-0.448-1-1v-6 C16,28.448,16.448,28,17,28z"/></svg>