<svg xmlns="http://www.w3.org/2000/svg" viewBox="0 0 48 48"><linearGradient id="9ReCjMZIenEW2eLYwLE1na" x1="15.497" x2="30.923" y1="6.411" y2="43.219" gradientUnits="userSpaceOnUse"><stop offset="0" stop-color="#eba84b"/><stop offset="1" stop-color="#d97218"/></linearGradient><path fill="url(#9ReCjMZIenEW2eLYwLE1na)" d="M40,42H8c-1.1,0-2-0.9-2-2v-4.708l2-6.253L6,11l31,1l5,1l-3,7l3,8.003V40	C42,41.1,41.1,42,40,42z"/><rect width="10" height="2" x="28" y="37" fill="#633412"/><polygon fill="#633412" points="38,32 36,30 34,32 35,32 35,35 37,35 37,32"/><polygon fill="#633412" points="32,32 30,30 28,32 29,32 29,35 31,35 31,32"/><path fill="#fabb62" d="M43,13L5,11V7c0-1.1,0.9-2,2-2l34,3c1.1,0,2,0.9,2,2V13z"/><polygon fill="#bd6920" points="40.023,22.73 39,20 36.245,26.09"/><polygon fill="#bd6920" points="8.829,34.704 8,29.039 6.987,32.205"/></svg>