<svg xmlns="http://www.w3.org/2000/svg" xmlns:xlink="http://www.w3.org/1999/xlink" data-name="Слой 1" viewBox="0 0 48 48"><defs><linearGradient id="uGNXeL1pFqCVz_XLY3yzPa" x1="3.571" x2="12.571" y1="27.056" y2="19.377" data-name="Безымянный градиент 121" gradientUnits="userSpaceOnUse"><stop offset="0" stop-color="#f44f5a"/><stop offset=".443" stop-color="#ee3d4a"/><stop offset="1" stop-color="#e52030"/></linearGradient><linearGradient id="uGNXeL1pFqCVz_XLY3yzPb" x1="20" x2="20" y1="43.866" y2="30.904" xlink:href="#uGNXeL1pFqCVz_XLY3yzPa"/><linearGradient id="uGNXeL1pFqCVz_XLY3yzPc" x1="40.379" x2="34.999" y1="41.447" y2="31.273" xlink:href="#uGNXeL1pFqCVz_XLY3yzPa"/></defs><path fill="#21a366" d="M32.001,27.0023a.99957.99957,0,0,1-.85059-.47265c-3.85156-6.20508-3.63769-13.209-1.26758-17.35938-4.12793.62891-9.498,3.08594-14.124,8.48242a.99938.99938,0,1,1-1.51758-1.30078C20.14941,9.45836,27.28906,7.0023,32,7.0023a.99991.99991,0,0,1,.707,1.707c-2.65527,2.65528-4.082,9.958.14258,16.76563A1,1,0,0,1,32.001,27.0023Z"/><path fill="#21a366" d="M20,27.0023a.99942.99942,0,0,1-1-1c0-5.89355,3.9248-15.665,12.64844-18.93652a1.00034,1.00034,0,0,1,.70312,1.873C24.52148,11.87437,21,20.68492,21,26.0023A.99942.99942,0,0,1,20,27.0023Z"/><path fill="#21a366" d="M44,19.0023s-5.68994.31-9-3-3-9-3-9,5.68994-.31,9,3S44,19.0023,44,19.0023Z"/><path fill="url(#uGNXeL1pFqCVz_XLY3yzPa)" d="M16.83008,20.83226l-.15015.15c-1.82995,1.85-8.77,8.93-11.67993,6.02s4.16992-9.85,6.02-11.68l.1499-.15a4.00227,4.00227,0,0,1,5.66016,5.66Z"/><path fill="url(#uGNXeL1pFqCVz_XLY3yzPb)" d="M24,29.0023v.47c-.01,2.97-.23,12.53-4,12.53s-3.99-9.56-4-12.53v-.47a4,4,0,0,1,8,0Z"/><path fill="url(#uGNXeL1pFqCVz_XLY3yzPc)" d="M40.25,40.22227c-3.06006,1.77-7.64-5.34-9.41992-8.32995-.2301-.39-.41016-.71-.54-.93006a3.99641,3.99641,0,0,1,6.91992-4c.12012.21.3.51.5.88C39.4,30.84227,43.33008,38.4423,40.25,40.22227Z"/><path fill="#33c481" d="M16.83008,20.83226l-.15015.15a5.96111,5.96111,0,0,1-5.65991-5.66l.1499-.15a4.00227,4.00227,0,0,1,5.66016,5.66Z"/><path fill="#33c481" d="M24,29.0023v.47a5.99367,5.99367,0,0,1-8,0v-.47a4,4,0,0,1,8,0Z"/><path fill="#33c481" d="M37.71,27.84227a5.99931,5.99931,0,0,1-5.71,4.16,6.44865,6.44865,0,0,1-1.16992-.11c-.2301-.39-.41016-.71-.54-.93006a3.99641,3.99641,0,0,1,6.91992-4C37.33008,27.17228,37.51,27.47227,37.71,27.84227Z"/><path fill="#33c481" d="M44,19.0023l-12-12s5.68994-.31,9,3S44,19.0023,44,19.0023Z"/></svg>