<svg xmlns="http://www.w3.org/2000/svg" viewBox="0 0 48 48"><path fill="#199be2" d="M35.983,32.448l-3.536,3.536l7.87,7.87c0.195,0.195,0.512,0.195,0.707,0l2.828-2.828	c0.195-0.195,0.195-0.512,0-0.707L35.983,32.448z"/><radialGradient id="Rf1ofBnEerZZE0gprohBga" cx="20.024" cy="-174.096" r="19.604" gradientTransform="matrix(1 0 0 -1 0 -154)" gradientUnits="userSpaceOnUse"><stop offset=".693" stop-color="#006185"/><stop offset=".921" stop-color="#35c1f1"/></radialGradient><polygon fill="url(#Rf1ofBnEerZZE0gprohBga)" points="31.601,28.065 28.065,31.601 32.448,35.983 35.983,32.448"/><linearGradient id="Rf1ofBnEerZZE0gprohBgb" x1="8.911" x2="31.339" y1="-162.911" y2="-185.339" gradientTransform="matrix(1 0 0 -1 0 -154)" gradientUnits="userSpaceOnUse"><stop offset="0" stop-color="#a3ffff"/><stop offset=".223" stop-color="#9dfbff"/><stop offset=".53" stop-color="#8bf1ff"/><stop offset=".885" stop-color="#6ee0ff"/><stop offset="1" stop-color="#63daff"/></linearGradient><circle cx="20" cy="20" r="16" fill="url(#Rf1ofBnEerZZE0gprohBgb)"/><linearGradient id="Rf1ofBnEerZZE0gprohBgc" x1="16.546" x2="24.826" y1="-165.951" y2="-178.702" gradientTransform="matrix(1 0 0 -1 0 -154)" gradientUnits="userSpaceOnUse"><stop offset="0" stop-color="#f44f5a"/><stop offset=".443" stop-color="#ee3d4a"/><stop offset="1" stop-color="#e52030"/></linearGradient><path fill="url(#Rf1ofBnEerZZE0gprohBgc)" d="M20,15.222c0,0,2.015-2.25,4.5-2.25s4.5,2.042,4.5,4.5c0,1.524-1.5,3-1.5,3l-6.741,6.741	c-0.419,0.419-1.099,0.419-1.518,0l-6.74-6.741c0,0-1.5-1.477-1.5-3c0-2.458,2.015-4.5,4.5-4.5S20,15.222,20,15.222z"/></svg>