<svg xmlns="http://www.w3.org/2000/svg" viewBox="0 0 48 48"><path fill="#52bf8d" d="M45,31H3c-0.552,0-1-0.448-1-1V10c0-0.552,0.448-1,1-1h42c0.552,0,1,0.448,1,1v20	C46,30.552,45.552,31,45,31z"/><path fill="#107c42" d="M7,9v22h34V9H7z M22,28c-4.418,0-8-3.582-8-8s3.582-8,8-8s8,3.582,8,8S26.418,28,22,28z M38.5,28	c-0.828,0-1.5-0.672-1.5-1.5s0.672-1.5,1.5-1.5s1.5,0.672,1.5,1.5S39.328,28,38.5,28z M34.5,28c-0.828,0-1.5-0.672-1.5-1.5	s0.672-1.5,1.5-1.5s1.5,0.672,1.5,1.5S35.328,28,34.5,28z"/><path fill="#59d19a" d="M46,34H2c-0.552,0-1-0.448-1-1V13c0-0.552,0.448-1,1-1h44c0.552,0,1,0.448,1,1v20	C47,33.552,46.552,34,46,34z"/><path fill="#21a366" d="M6,12v22h36V12H6z M22,31c-4.418,0-8-3.582-8-8s3.582-8,8-8s8,3.582,8,8S26.418,31,22,31z M39.5,31	c-0.828,0-1.5-0.672-1.5-1.5s0.672-1.5,1.5-1.5s1.5,0.672,1.5,1.5S40.328,31,39.5,31z M35.5,31c-0.828,0-1.5-0.672-1.5-1.5	s0.672-1.5,1.5-1.5s1.5,0.672,1.5,1.5S36.328,31,35.5,31z"/><path fill="#61e3a7" d="M47,39H1c-0.552,0-1-0.448-1-1V16c0-0.552,0.448-1,1-1h46c0.552,0,1,0.448,1,1v22 C48,38.552,47.552,39,47,39z"/><path fill="#33c481" d="M5,15v24h38V15H5z M20,35c-4.418,0-8-3.582-8-8s3.582-8,8-8s8,3.582,8,8S24.418,35,20,35z M40.5,36 c-0.828,0-1.5-0.672-1.5-1.5s0.672-1.5,1.5-1.5s1.5,0.672,1.5,1.5S41.328,36,40.5,36z M36.5,36c-0.828,0-1.5-0.672-1.5-1.5 s0.672-1.5,1.5-1.5s1.5,0.672,1.5,1.5S37.328,36,36.5,36z"/></svg>