<svg xmlns="http://www.w3.org/2000/svg" viewBox="0 0 48 48"><linearGradient id="wCfjpabF_diZJ20esrK2ia" x1="42.883" x2="7.051" y1="5.107" y2="40.939" gradientUnits="userSpaceOnUse"><stop offset="0" stop-color="#a1aab3"/><stop offset="1" stop-color="#8f979e"/></linearGradient><path fill="url(#wCfjpabF_diZJ20esrK2ia)" d="M44,10.44c0,1.72-0.67,3.34-1.89,4.56l-28,28l-2.12-2.12l1.78-1.78l0.39-0.39l0.39-0.39	l25.44-25.44c0.65-0.65,1.01-1.52,1.01-2.44c0-0.92-0.36-1.79-1.01-2.44c-1.34-1.34-3.53-1.34-4.88,0	c-0.76,0.76-0.79,1.38-0.84,2.41c-0.05,1.18-0.13,2.8-1.71,4.38s-3.2,1.66-4.38,1.71c-1.03,0.05-1.65,0.08-2.41,0.84	s-0.79,1.38-0.84,2.41c-0.05,1.18-0.13,2.8-1.71,4.38c-1.57,1.58-3.19,1.65-4.38,1.71c-1.03,0.05-1.65,0.08-2.4,0.83	c-0.76,0.76-0.79,1.38-0.84,2.41c-0.05,1.18-0.13,2.8-1.7,4.38c-1.37,1.37-2.78,1.6-3.91,1.68c-0.17,0.01-0.33,0.02-0.48,0.03	c-0.01,0-0.01,0-0.02,0c-0.18,0.01-0.34,0.01-0.5,0.03c-0.73,0.05-1.26,0.18-1.88,0.8l-2.12-2.12c0.86-0.86,1.73-1.27,2.53-1.47	c0.23-0.07,0.45-0.11,0.66-0.14c0.24-0.03,0.46-0.06,0.68-0.07c0.18-0.01,0.35-0.02,0.51-0.03c1.03-0.05,1.65-0.08,2.41-0.83	c0.75-0.76,0.78-1.38,0.83-2.41c0.05-1.18,0.13-2.8,1.71-4.38c1.57-1.57,3.2-1.65,4.38-1.71c1.03-0.05,1.65-0.08,2.4-0.83	c0.76-0.76,0.79-1.38,0.84-2.41c0.05-1.18,0.13-2.8,1.71-4.38c1.58-1.58,3.2-1.66,4.38-1.71c1.03-0.05,1.65-0.08,2.41-0.84	s0.79-1.38,0.84-2.41c0.05-1.18,0.13-2.8,1.71-4.38c2.51-2.51,6.61-2.51,9.12,0C43.33,7.1,44,8.72,44,10.44z"/><linearGradient id="wCfjpabF_diZJ20esrK2ib" x1="3.914" x2="8.575" y1="32.914" y2="37.575" gradientUnits="userSpaceOnUse"><stop offset="0" stop-color="#f44f5a"/><stop offset=".443" stop-color="#ee3d4a"/><stop offset="1" stop-color="#e52030"/></linearGradient><circle cx="6" cy="35" r="3" fill="url(#wCfjpabF_diZJ20esrK2ib)"/><linearGradient id="wCfjpabF_diZJ20esrK2ic" x1="10.457" x2="15.918" y1="39.456" y2="44.918" gradientUnits="userSpaceOnUse"><stop offset="0" stop-color="#f44f5a"/><stop offset=".443" stop-color="#ee3d4a"/><stop offset="1" stop-color="#e52030"/></linearGradient><circle cx="13" cy="42" r="3" fill="url(#wCfjpabF_diZJ20esrK2ic)"/><path d="M8.86,32.2c-0.22,0.01-0.44,0.04-0.68,0.07c-0.21,0.03-0.43,0.07-0.66,0.14C8.41,32.93,9,33.9,9,35 c0,0.07,0,0.13-0.01,0.2c0.16-0.02,0.32-0.02,0.5-0.03c0.01,0,0.01,0,0.02,0c0.15-0.01,0.31-0.02,0.48-0.03 C10,35.09,10,35.05,10,35C10,33.91,9.56,32.93,8.86,32.2z" opacity=".05"/><path d="M8.18,32.27c-0.21,0.03-0.43,0.07-0.66,0.14C8.41,32.93,9,33.9,9,35c0,0.07,0,0.13-0.01,0.2c0.16-0.02,0.32-0.02,0.5-0.03 C9.5,35.11,9.5,35.06,9.5,35C9.5,33.9,8.99,32.91,8.18,32.27z" opacity=".07"/><g><path d="M14.55,38.32l-0.39,0.39l-0.39,0.39c1.04,0.27,1.85,1.08,2.12,2.12l0.78-0.78C16.28,39.48,15.51,38.72,14.55,38.32z" opacity=".05"/><path d="M14.16,38.71l-0.39,0.39c1.04,0.27,1.85,1.08,2.12,2.12l0.4-0.4C15.94,39.83,15.15,39.05,14.16,38.71z" opacity=".07"/></g></svg>