<svg xmlns="http://www.w3.org/2000/svg" viewBox="0 0 48 48"><linearGradient id="U0YkCgMl~uhgbshcm8ONEa" x1="2.758" x2="24.515" y1="23.739" y2="34.617" gradientUnits="userSpaceOnUse"><stop offset="0" stop-color="#36b0ed"/><stop offset="1" stop-color="#1771d2"/></linearGradient><path fill="url(#U0YkCgMl~uhgbshcm8ONEa)" d="M32.69,26.3c-0.16,0.16-0.32,0.32-0.47,0.48c-0.18,0.18-0.36,0.36-0.53,0.55	c-0.17,0.17-0.33,0.34-0.5,0.52c-0.41,0.44-0.81,0.88-1.21,1.33c-1.66,1.88-3.23,3.83-4.72,5.85c-1.01,1.39-2.25,2.83-3.74,4.32	c-1.61,1.62-5.64,4.21-6.56,4.74c-2.71,1.58-6.93,1.12-9.55-1.5c-2.62-2.63-3.07-6.87-1.5-9.6c0.53-0.92,2.3-4.15,4.72-6.58	c1.48-1.49,2.92-2.73,4.3-3.75c1.92-1.43,3.79-2.93,5.58-4.52c0.46-0.41,0.92-0.82,1.37-1.25c0.17-0.15,0.34-0.31,0.51-0.48	c0.17-0.16,0.35-0.32,0.52-0.5c0.24-0.23,0.49-0.47,0.73-0.71L32.69,26.3z"/><path fill="#272727" d="M19.106,28.835L19.106,28.835c1.336,1.34,1.336,3.512,0,4.853l-4.03,4.044	c-1.336,1.34-3.5,1.34-4.836,0l0,0c-1.336-1.34-1.336-3.512,0-4.853l4.03-4.044C15.606,27.496,17.77,27.496,19.106,28.835z"/><linearGradient id="U0YkCgMl~uhgbshcm8ONEb" x1="13.269" x2="20.108" y1="31.262" y2="31.262" gradientUnits="userSpaceOnUse"><stop offset="0" stop-color="#d7e3ee"/><stop offset=".411" stop-color="#ccd8e3"/><stop offset=".958" stop-color="#b1bbc6"/></linearGradient><path fill="url(#U0YkCgMl~uhgbshcm8ONEb)" d="M19.106,28.835L19.106,28.835c1.336,1.34,1.336,3.512,0,4.853l0,0	c-1.336,1.34-3.5,1.34-4.836,0l0,0c-1.336-1.34-1.336-3.512,0-4.853l0,0C15.606,27.496,17.77,27.496,19.106,28.835z"/><path fill="#364852" d="M44.05,21.18c-0.96,1.73-2.56,3.02-4.45,3.58l-5.74,1.69c-0.54,0.16-1.09,0.27-1.64,0.33	c-0.41,0.06-0.81,0.08-1.22,0.08c-1.65,0-3.28-0.41-4.74-1.18c-0.29-0.16-0.57-0.33-0.85-0.51c-0.56-0.37-1.08-0.79-1.56-1.28	l-0.01-0.01c-2.12-2.12-3.16-5.04-2.93-7.97c0.05-0.69,0.18-1.39,0.38-2.08l1.52-5.21c0.66-2.22,2.28-4.01,4.43-4.87l0.51-0.21	C28.65,3.18,29.6,3,30.54,3c1.96,0,3.88,0.77,5.32,2.21l6.94,6.97C45.17,14.56,45.68,18.23,44.05,21.18z"/><circle cx="30.5" cy="9.5" r="3.5" fill="#b1bbc6"/><circle cx="38.5" cy="17.5" r="3.5" fill="#b1bbc6"/><circle cx="28.5" cy="19.5" r="3.5" fill="#b1bbc6"/><circle cx="38.5" cy="17.5" r="1.5" fill="#7f929e"/><circle cx="28.5" cy="19.5" r="1.5" fill="#7f929e"/><path fill="#7f929e" d="M31.56,8.44L31.56,8.44c0.586,0.586,0.586,1.536,0,2.12l0,0c-0.586,0.586-1.536,0.586-2.12,0l0,0	c-0.586-0.586-0.586-1.536,0-2.12l0,0C30.025,7.853,30.975,7.853,31.56,8.44z"/><path fill="#151515" d="M31,26.86c-1.65,0-3.28-0.41-4.74-1.18c-0.29-0.15-0.58-0.32-0.85-0.51	c-0.56-0.37-1.08-0.79-1.56-1.28l-0.01-0.01c-2.12-2.12-3.16-5.04-2.93-7.97c-0.17,0.18-0.35,0.34-0.52,0.5	c-0.17,0.17-0.34,0.33-0.51,0.48c0.05,2.85,1.17,5.62,3.25,7.7l0.07,0.07h0.01c2.09,2.07,4.86,3.2,7.79,3.2c0.06,0,0.13,0,0.19-0.01	c0.17-0.18,0.33-0.35,0.5-0.52c0.17-0.19,0.35-0.37,0.53-0.55C31.81,26.84,31.41,26.86,31,26.86z" opacity=".05"/><path fill="#151515" d="M30.5,6C32.433,6,34,7.567,34,9.5S32.433,13,30.5,13S27,11.433,27,9.5S28.567,6,30.5,6 M30.5,5 C28.019,5,26,7.019,26,9.5s2.019,4.5,4.5,4.5S35,11.981,35,9.5S32.981,5,30.5,5L30.5,5z" opacity=".05"/><path fill="#151515" d="M38.5,14c1.933,0,3.5,1.567,3.5,3.5S40.433,21,38.5,21S35,19.433,35,17.5S36.567,14,38.5,14 M38.5,13c-2.481,0-4.5,2.019-4.5,4.5s2.019,4.5,4.5,4.5s4.5-2.019,4.5-4.5S40.981,13,38.5,13L38.5,13z" opacity=".05"/><path fill="#151515" d="M28.5,16c1.933,0,3.5,1.567,3.5,3.5S30.433,23,28.5,23c-1.933,0-3.5-1.567-3.5-3.5 S26.567,16,28.5,16 M28.5,15c-2.481,0-4.5,2.019-4.5,4.5s2.019,4.5,4.5,4.5s4.5-2.019,4.5-4.5S30.981,15,28.5,15L28.5,15z" opacity=".05"/><path fill="#151515" d="M30.5,6C32.433,6,34,7.567,34,9.5S32.433,13,30.5,13S27,11.433,27,9.5S28.567,6,30.5,6 M30.5,5.5 c-2.206,0-4,1.794-4,4s1.794,4,4,4s4-1.794,4-4S32.706,5.5,30.5,5.5L30.5,5.5z" opacity=".07"/><path fill="#151515" d="M38.5,14c1.933,0,3.5,1.567,3.5,3.5S40.433,21,38.5,21S35,19.433,35,17.5S36.567,14,38.5,14 M38.5,13.5c-2.206,0-4,1.794-4,4s1.794,4,4,4s4-1.794,4-4S40.706,13.5,38.5,13.5L38.5,13.5z" opacity=".05"/><path fill="#151515" d="M28.5,16c1.933,0,3.5,1.567,3.5,3.5S30.433,23,28.5,23c-1.933,0-3.5-1.567-3.5-3.5 S26.567,16,28.5,16 M28.5,15.5c-2.206,0-4,1.794-4,4s1.794,4,4,4s4-1.794,4-4S30.706,15.5,28.5,15.5L28.5,15.5z" opacity=".05"/><path fill="#151515" d="M31,26.86c-1.65,0-3.28-0.41-4.74-1.18c-0.29-0.15-0.58-0.32-0.85-0.51	c-0.56-0.37-1.08-0.79-1.56-1.28l-0.01-0.01c-2.12-2.12-3.16-5.04-2.93-7.97c-0.17,0.18-0.35,0.34-0.52,0.5	c-0.09,2.89,1.01,5.73,3.1,7.83l0.03,0.03l0.01,0.01c2,1.99,4.65,3.08,7.47,3.08c0.23,0,0.46-0.01,0.69-0.03	c0.17-0.19,0.35-0.37,0.53-0.55C31.81,26.84,31.41,26.86,31,26.86z" opacity=".07"/></svg>