<svg xmlns="http://www.w3.org/2000/svg" viewBox="0 0 48 48"><linearGradient id="zOhsr7kcaTohNGj7rnB51a" x1="6.997" x2="40.749" y1="-568.492" y2="-603.247" gradientTransform="matrix(1 0 0 -1 0 -562)" gradientUnits="userSpaceOnUse"><stop offset="0" stop-color="#ffd869"/><stop offset="1" stop-color="#fec52b"/></linearGradient><path fill="url(#zOhsr7kcaTohNGj7rnB51a)" d="M40,42H8c-1.1,0-2-0.9-2-2V8c0-1.1,0.9-2,2-2h32c1.1,0,2,0.9,2,2v32C42,41.1,41.1,42,40,42z"/><path fill="#fff8e6" d="M19,6h10v5H19V6z"/><rect width="10" height="2" x="10" y="37" fill="#6b5f41"/><polygon fill="#6b5f41" points="20,32 18,30 16,32 17,32 17,35 19,35 19,32"/><radialGradient id="zOhsr7kcaTohNGj7rnB51b" cx="38.213" cy="38.383" r="12.234" gradientUnits="userSpaceOnUse"><stop offset="0"/><stop offset="1" stop-opacity="0"/></radialGradient><path fill="url(#zOhsr7kcaTohNGj7rnB51b)" d="M38,26c-6.617,0-12,5.383-12,12c0,1.404,0.255,2.747,0.7,4H40c1.1,0,2-0.9,2-2V26.7	C40.747,26.255,39.404,26,38,26z"/><polygon fill="#6b5f41" points="14,32 12,30 10,32 11,32 11,35 13,35 13,32"/><radialGradient id="zOhsr7kcaTohNGj7rnB51c" cx="37.948" cy="-592.185" r="17.827" gradientTransform="matrix(1 0 0 -1 0 -562)" gradientUnits="userSpaceOnUse"><stop offset="0" stop-color="#fafafb"/><stop offset="1" stop-color="#c8cdd1"/></radialGradient><circle cx="38" cy="38" r="8" fill="url(#zOhsr7kcaTohNGj7rnB51c)"/><linearGradient id="zOhsr7kcaTohNGj7rnB51d" x1="30.906" x2="45.181" y1="-592.906" y2="-607.181" gradientTransform="matrix(1 0 0 -1 0 -562)" gradientUnits="userSpaceOnUse"><stop offset="0" stop-color="#f44f5a"/><stop offset=".443" stop-color="#ee3d4a"/><stop offset="1" stop-color="#e52030"/></linearGradient><path fill="url(#zOhsr7kcaTohNGj7rnB51d)" d="M38,28c-5.522,0-10,4.478-10,10s4.478,10,10,10s10-4.478,10-10S43.522,28,38,28z M38,45 c-3.866,0-7-3.134-7-7s3.134-7,7-7s7,3.134,7,7S41.866,45,38,45z"/><linearGradient id="zOhsr7kcaTohNGj7rnB51e" x1="29.483" x2="46.613" y1="-590.984" y2="-608.113" gradientTransform="matrix(1 0 0 -1 -.146 -561.646)" gradientUnits="userSpaceOnUse"><stop offset="0" stop-color="#f44f5a"/><stop offset=".443" stop-color="#ee3d4a"/><stop offset="1" stop-color="#e52030"/></linearGradient><polygon fill="url(#zOhsr7kcaTohNGj7rnB51e)" points="32.686,45.436 30.564,43.314 43.314,30.564 45.436,32.686"/></svg>