<svg xmlns="http://www.w3.org/2000/svg" viewBox="0 0 48 48"><linearGradient id="zGeehAADMGAhKoroEZONka" x1="15.036" x2="33.807" y1="23.733" y2="23.733" gradientUnits="userSpaceOnUse"><stop offset="0" stop-color="#c965eb"/><stop offset="1" stop-color="#c767e5"/></linearGradient><path fill="url(#zGeehAADMGAhKoroEZONka)" d="M28.958,5.281L28,4h-9l-0.985,0.826l-2.979,19.906L16,26h8.5l-3.48,16.8l1.864,0.666	L33.807,21.59L33,20h-7.5L28.958,5.281z"/><linearGradient id="zGeehAADMGAhKoroEZONkb" x1="15" x2="34" y1="24" y2="24" gradientUnits="userSpaceOnUse"><stop offset="0" stop-color="#c965eb"/><stop offset="1" stop-color="#c767e5"/></linearGradient><path fill="url(#zGeehAADMGAhKoroEZONkb)" d="M28,4c-0.552,0-1,0.448-1,1s0.448,1,1,1s1-0.448,1-1S28.552,4,28,4z M19,4	c-0.552,0-1,0.448-1,1s0.448,1,1,1s1-0.448,1-1S19.552,4,19,4z M16,24c-0.552,0-1,0.448-1,1s0.448,1,1,1c0.552,0,1-0.448,1-1	S16.552,24,16,24z M32,21c0,0.552,0.448,1,1,1s1-0.448,1-1s-0.448-1-1-1S32,20.448,32,21z M22,42c-0.552,0-1,0.448-1,1s0.448,1,1,1	s1-0.448,1-1S22.552,42,22,42z"/></svg>