<svg xmlns="http://www.w3.org/2000/svg" viewBox="0 0 48 48"><path fill="#057093" d="M40,38.383L40,38.383c-0.276,0-0.5,0.224-0.5,0.5V41.5c0,0.276,0.224,0.5,0.5,0.5l0,0	c0.276,0,0.5-0.224,0.5-0.5v-2.617C40.5,38.607,40.276,38.383,40,38.383z"/><linearGradient id="gCmQ5A1OTQDP87I3HlWl3a" x1="38" x2="42" y1="9" y2="9" gradientTransform="matrix(1 0 0 -1 0 48)" gradientUnits="userSpaceOnUse"><stop offset="0" stop-color="#ffda1c"/><stop offset="1" stop-color="#feb705"/></linearGradient><path fill="url(#gCmQ5A1OTQDP87I3HlWl3a)" d="M38,38c0,0,0.766,3,2,3s2-3,2-3l-2-1L38,38z"/><path fill="#b31523" d="M43,27h-2v-9h2c0.552,0,1,0.448,1,1v7C44,26.552,43.552,27,43,27z"/><linearGradient id="gCmQ5A1OTQDP87I3HlWl3b" x1="40" x2="40" y1="33.898" y2="30.918" gradientTransform="matrix(1 0 0 -1 0 48)" gradientUnits="userSpaceOnUse"><stop offset="0" stop-color="#ffda1c"/><stop offset="1" stop-color="#feb705"/></linearGradient><path fill="url(#gCmQ5A1OTQDP87I3HlWl3b)" d="M41,17h-2v-2c0-0.552,0.448-1,1-1l0,0c0.552,0,1,0.448,1,1V17z"/><linearGradient id="gCmQ5A1OTQDP87I3HlWl3c" x1="40" x2="40" y1="2.901" y2="29.423" gradientTransform="matrix(1 0 0 -1 0 48)" gradientUnits="userSpaceOnUse"><stop offset="0" stop-color="#f44f5a"/><stop offset=".443" stop-color="#ee3d4a"/><stop offset="1" stop-color="#e52030"/></linearGradient><path fill="url(#gCmQ5A1OTQDP87I3HlWl3c)" d="M42,38h-4V17c0-0.552,0.448-1,1-1h2c0.552,0,1,0.448,1,1V38z"/><linearGradient id="gCmQ5A1OTQDP87I3HlWl3d" x1="40" x2="40" y1="18.55" y2="22.954" gradientTransform="matrix(1 0 0 -1 0 48)" gradientUnits="userSpaceOnUse"><stop offset="0" stop-color="#ffda1c"/><stop offset="1" stop-color="#feb705"/></linearGradient><rect width="4" height="2" x="38" y="26" fill="url(#gCmQ5A1OTQDP87I3HlWl3d)"/><path fill="#50e6ff" d="M36,16v25c0,1.105-0.895,2-2,2H9c-1.105,0-2-0.895-2-2V7c0-1.105,0.895-2,2-2h16L36,16z"/><linearGradient id="gCmQ5A1OTQDP87I3HlWl3e" x1="25.529" x2="30.6" y1="-804.529" y2="-809.6" gradientTransform="translate(0 820)" gradientUnits="userSpaceOnUse"><stop offset="0" stop-color="#3079d6"/><stop offset="1" stop-color="#297cd2"/></linearGradient><path fill="url(#gCmQ5A1OTQDP87I3HlWl3e)" d="M25,5v9c0,1.105,0.895,2,2,2h9L25,5z"/><path fill="#057093" d="M29.5,21h-16c-0.276,0-0.5-0.224-0.5-0.5v-1c0-0.276,0.224-0.5,0.5-0.5h16c0.276,0,0.5,0.224,0.5,0.5	v1C30,20.776,29.776,21,29.5,21z"/><path fill="#057093" d="M27.5,25h-14c-0.276,0-0.5-0.224-0.5-0.5v-1c0-0.276,0.224-0.5,0.5-0.5h14c0.276,0,0.5,0.224,0.5,0.5	v1C28,24.776,27.776,25,27.5,25z"/><path fill="#057093" d="M28.5,29h-15c-0.276,0-0.5-0.224-0.5-0.5v-1c0-0.276,0.224-0.5,0.5-0.5h15c0.276,0,0.5,0.224,0.5,0.5	v1C29,28.776,28.776,29,28.5,29z"/><path fill="#057093" d="M13.167,41c-0.191,0-0.377-0.098-0.479-0.276c-0.154-0.264-0.066-0.604,0.198-0.76	c0.014-0.008,0.546-0.327,1.198-0.921c-0.58-0.871-0.917-2.099-0.917-3.544c0-2.649,1.028-4.499,2.5-4.499	c1.435,0,1.944,1.699,1.944,3.154c0,2.12-0.973,3.773-1.979,4.914c0.254,0.169,0.544,0.264,0.868,0.264	c0.793,0,1.522-0.233,2.129-0.603c-0.326-0.591-0.463-1.326-0.463-2.007c0-1.223,0.562-2.945,1.81-2.945	c0.458,0,1.523,0.219,1.523,2.247c0,0.938-0.433,1.927-1.169,2.731c0.073,0.014,0.151,0.022,0.234,0.022	c0.599,0,0.901-0.323,1.382-0.893c0.498-0.592,1.119-1.329,2.332-1.329c0.307,0,0.556,0.249,0.556,0.556s-0.248,0.556-0.556,0.556	c-0.662,0-0.994,0.355-1.482,0.934c-0.484,0.574-1.086,1.288-2.232,1.288c-0.47,0-0.859-0.12-1.177-0.324	c-0.803,0.538-1.792,0.879-2.887,0.879c-0.621,0-1.183-0.203-1.66-0.574c-0.728,0.659-1.33,1.017-1.393,1.054	C13.359,40.976,13.262,41,13.167,41z M15.667,32.111c-0.671,0-1.389,1.362-1.389,3.388c0,0.99,0.206,1.986,0.609,2.715	c0.834-0.984,1.613-2.358,1.613-4.06C16.5,33.364,16.274,32.111,15.667,32.111z M19.977,34.889c-0.263,0-0.699,0.888-0.699,1.834	c0,0.256,0.026,0.819,0.229,1.291c0.554-0.596,0.882-1.317,0.882-1.989C20.389,35.684,20.349,34.889,19.977,34.889z"/></svg>