<svg xmlns="http://www.w3.org/2000/svg" xmlns:xlink="http://www.w3.org/1999/xlink" data-name="Слой 1" viewBox="0 0 48 48"><defs><linearGradient id="1ibljttGz~kf6RtIAEqJsa" x1="24" x2="24" y1="6.109" y2="20.992" data-name="Безымянный градиент 100" gradientUnits="userSpaceOnUse"><stop offset="0" stop-color="#21ad64"/><stop offset="1" stop-color="#088242"/></linearGradient><linearGradient id="1ibljttGz~kf6RtIAEqJsb" x1="24" x2="24" y1="14.848" y2="44.098" data-name="Безымянный градиент 107" gradientUnits="userSpaceOnUse"><stop offset="0" stop-color="#eba600"/><stop offset="1" stop-color="#c28200"/></linearGradient><linearGradient id="1ibljttGz~kf6RtIAEqJsd" x1="9" x2="9" y1="16.25" y2="30.24" xlink:href="#1ibljttGz~kf6RtIAEqJsa"/><linearGradient id="1ibljttGz~kf6RtIAEqJse" x1="39" x2="39" y1="16.25" y2="30.24" xlink:href="#1ibljttGz~kf6RtIAEqJsa"/><linearGradient id="1ibljttGz~kf6RtIAEqJsc" x1="24" x2="24" y1="20.525" y2="50.897" data-name="Безымянный градиент 19" gradientUnits="userSpaceOnUse"><stop offset="0" stop-color="#ffcf54"/><stop offset=".261" stop-color="#fdcb4d"/><stop offset=".639" stop-color="#f7c13a"/><stop offset="1" stop-color="#f0b421"/></linearGradient><linearGradient id="1ibljttGz~kf6RtIAEqJsf" x1="9" x2="9" y1="24.337" y2="64.819" xlink:href="#1ibljttGz~kf6RtIAEqJsb"/><linearGradient id="1ibljttGz~kf6RtIAEqJsg" x1="39" x2="39" y1="24.337" y2="64.819" xlink:href="#1ibljttGz~kf6RtIAEqJsb"/><linearGradient id="1ibljttGz~kf6RtIAEqJsh" x1="24" x2="24" y1="19.707" y2="26.142" xlink:href="#1ibljttGz~kf6RtIAEqJsc"/></defs><path fill="url(#1ibljttGz~kf6RtIAEqJsa)" d="M32,17c0-4.41828-4-8-8-10-4,2-8,5.58172-8,10a8,8,0,0,0,16,0Z"/><path fill="#33c481" d="M27,17A17.14651,17.14651,0,0,0,24,7a17.14651,17.14651,0,0,0-3,10c0,4.41828,1.34315,8,3,8S27,21.41828,27,17Z"/><rect width="16" height="11" x="16" y="16" fill="url(#1ibljttGz~kf6RtIAEqJsb)"/><path fill="#c28200" d="M24,18h0a2,2,0,0,1,2,2v6a0,0,0,0,1,0,0H22a0,0,0,0,1,0,0V20A2,2,0,0,1,24,18Z"/><path fill="#c28200" d="M18.5,18h0A1.5,1.5,0,0,1,20,19.5V26a0,0,0,0,1,0,0H17a0,0,0,0,1,0,0V19.5A1.5,1.5,0,0,1,18.5,18Z"/><path fill="#c28200" d="M29.5,18h0A1.5,1.5,0,0,1,31,19.5V26a0,0,0,0,1,0,0H28a0,0,0,0,1,0,0V19.5A1.5,1.5,0,0,1,29.5,18Z"/><path fill="url(#1ibljttGz~kf6RtIAEqJsd)" d="M13,22.5A8.74646,8.74646,0,0,0,9,16a8.74646,8.74646,0,0,0-4,6.5,4,4,0,0,0,8,0Z"/><path fill="#33c481" d="M11,22.5c0-2.20914-1-5.5-2-6.5-1,1-2,4.29086-2,6.5s.89543,4,2,4S11,24.70914,11,22.5Z"/><path fill="url(#1ibljttGz~kf6RtIAEqJse)" d="M43,22.5A8.74646,8.74646,0,0,0,39,16a8.74646,8.74646,0,0,0-4,6.5,4,4,0,0,0,8,0Z"/><path fill="#33c481" d="M41,22.5c0-2.20914-1-5.5-2-6.5-1,1-2,4.29086-2,6.5s.89543,4,2,4S41,24.70914,41,22.5Z"/><path fill="url(#1ibljttGz~kf6RtIAEqJsc)" d="M35,26,24.52623,23.073a1.99982,1.99982,0,0,0-1.05246,0L13,26l-1,8.5L13,43H35l1-8.5Z"/><rect width="8" height="21" x="5" y="22" fill="url(#1ibljttGz~kf6RtIAEqJsf)"/><rect width="8" height="21" x="35" y="22" fill="url(#1ibljttGz~kf6RtIAEqJsg)"/><path fill="#c28200" d="M24,29h0a6,6,0,0,1,6,6v8a0,0,0,0,1,0,0H18a0,0,0,0,1,0,0V35A6,6,0,0,1,24,29Z"/><path fill="#c28200" d="M9,36H9a1,1,0,0,1,1,1v2a0,0,0,0,1,0,0H8a0,0,0,0,1,0,0V37A1,1,0,0,1,9,36Z"/><path fill="#c28200" d="M9,30H9a1,1,0,0,1,1,1v2a0,0,0,0,1,0,0H8a0,0,0,0,1,0,0V31A1,1,0,0,1,9,30Z"/><path fill="#c28200" d="M9,24H9a1,1,0,0,1,1,1v2a0,0,0,0,1,0,0H8a0,0,0,0,1,0,0V25A1,1,0,0,1,9,24Z"/><path fill="#c28200" d="M7,27V24.5a.5.5,0,0,0-1,0V27Z"/><path fill="#c28200" d="M12,27V24.5a.5.5,0,0,0-1,0V27Z"/><path fill="#c28200" d="M39,36h0a1,1,0,0,1,1,1v2a0,0,0,0,1,0,0H38a0,0,0,0,1,0,0V37A1,1,0,0,1,39,36Z"/><path fill="#c28200" d="M39,30h0a1,1,0,0,1,1,1v2a0,0,0,0,1,0,0H38a0,0,0,0,1,0,0V31A1,1,0,0,1,39,30Z"/><path fill="#c28200" d="M39,24h0a1,1,0,0,1,1,1v2a0,0,0,0,1,0,0H38a0,0,0,0,1,0,0V25A1,1,0,0,1,39,24Z"/><path fill="#c28200" d="M37,27V24.5a.5.5,0,0,0-1,0V27Z"/><path fill="#c28200" d="M42,27V24.5a.5.5,0,0,0-1,0V27Z"/><polygon fill="url(#1ibljttGz~kf6RtIAEqJsh)" points="24 25 16 27 32 27 24 25"/><path d="M24.8,22.11A3.14631,3.14631,0,0,0,24,22a3.01137,3.01137,0,0,0-.79.11L16,24.13v1.03l7.47-2.09a2.04137,2.04137,0,0,1,1.06006,0L32,25.16V24.12Z" opacity=".05"/><path d="M24.66,22.59a2.46557,2.46557,0,0,0-1.31994,0L16,24.64v.52l7.47-2.09a2.04137,2.04137,0,0,1,1.06006,0L32,25.16v-.52Z" opacity=".07"/></svg>