<svg xmlns="http://www.w3.org/2000/svg" viewBox="0 0 48 48"><linearGradient id="ullRBSJyQmYR_BSiD1CgWa" x1="22.738" x2="29.192" y1="3.842" y2="40.443" gradientUnits="userSpaceOnUse"><stop offset="0" stop-color="#a235d4"/><stop offset=".441" stop-color="#a033d1"/><stop offset=".702" stop-color="#982cc9"/><stop offset=".915" stop-color="#8b21bb"/><stop offset="1" stop-color="#831bb3"/></linearGradient><path fill="url(#ullRBSJyQmYR_BSiD1CgWa)" d="M11,17H8c-0.552,0-1-0.448-1-1v-0.5C7,7.796,13.279,5,17.5,5H40c0.552,0,1,0.448,1,1v3	c0,0.552-0.448,1-1,1H17.5c-0.904,0.014-5.5,0.342-5.5,5.5V16C12,16.552,11.552,17,11,17z"/><linearGradient id="ullRBSJyQmYR_BSiD1CgWb" x1="17.931" x2="25.081" y1="3.262" y2="43.808" gradientUnits="userSpaceOnUse"><stop offset="0" stop-color="#a235d4"/><stop offset=".441" stop-color="#a033d1"/><stop offset=".702" stop-color="#982cc9"/><stop offset=".915" stop-color="#8b21bb"/><stop offset="1" stop-color="#831bb3"/></linearGradient><path fill="url(#ullRBSJyQmYR_BSiD1CgWb)" d="M28,26H15c-0.552,0-1-0.448-1-1v-3c0-0.552,0.448-1,1-1h13c0.552,0,1,0.448,1,1v3	C29,25.552,28.552,26,28,26z"/><linearGradient id="ullRBSJyQmYR_BSiD1CgWc" x1="14.436" x2="20.916" y1="5.668" y2="42.418" gradientUnits="userSpaceOnUse"><stop offset="0" stop-color="#a235d4"/><stop offset=".441" stop-color="#a033d1"/><stop offset=".702" stop-color="#982cc9"/><stop offset=".915" stop-color="#8b21bb"/><stop offset="1" stop-color="#831bb3"/></linearGradient><path fill="url(#ullRBSJyQmYR_BSiD1CgWc)" d="M10.118,43H8c-0.552,0-1-0.448-1-1v-4c0-0.552,0.448-1,1-1h2.118	c2.187,0,4.12-1.421,4.772-3.508l8.247-26.386l5.727,1.789l-8.247,26.387C19.182,39.874,14.929,43,10.118,43z"/></svg>