<svg xmlns="http://www.w3.org/2000/svg" viewBox="0 0 48 48"><linearGradient id="LtkZB6PdkxcQPgc109JHca" x1="21.283" x2="27.535" y1="7.686" y2="36.022" gradientUnits="userSpaceOnUse"><stop offset="0" stop-color="#a1aab3"/><stop offset="1" stop-color="#8f979e"/></linearGradient><path fill="url(#LtkZB6PdkxcQPgc109JHca)" d="M40,34H8c-1.105,0-2-0.895-2-2V8c0-1.105,0.895-2,2-2h32c1.105,0,2,0.895,2,2v24	C42,33.105,41.105,34,40,34z"/><radialGradient id="LtkZB6PdkxcQPgc109JHcb" cx="150.839" cy="103.685" r="86.04" gradientTransform="matrix(.8095 0 0 .7188 -76.381 -16.594)" gradientUnits="userSpaceOnUse"><stop offset=".323" stop-color="#23d9d6"/><stop offset=".427" stop-color="#23d4d7"/><stop offset=".542" stop-color="#21c7dc"/><stop offset=".664" stop-color="#1fb0e2"/><stop offset=".789" stop-color="#1c91ec"/><stop offset=".917" stop-color="#1969f8"/><stop offset=".944" stop-color="#1860fb"/></radialGradient><rect width="32" height="24" x="8" y="8" fill="url(#LtkZB6PdkxcQPgc109JHcb)"/><linearGradient id="LtkZB6PdkxcQPgc109JHcc" x1="24" x2="24" y1="33.924" y2="41.907" gradientUnits="userSpaceOnUse"><stop offset=".192" stop-color="#a1aab3"/><stop offset="1" stop-color="#767d84"/></linearGradient><path fill="url(#LtkZB6PdkxcQPgc109JHcc)" d="M41,34H7c-0.552,0-1,0.448-1,1v6c0,0.552,0.448,1,1,1h34c0.552,0,1-0.448,1-1v-6	C42,34.448,41.552,34,41,34z"/><path fill="#474d52" d="M27,39H9c-0.552,0-1-0.448-1-1l0,0c0-0.552,0.448-1,1-1h18c0.552,0,1,0.448,1,1l0,0	C28,38.552,27.552,39,27,39z"/><circle cx="39" cy="38" r="1" fill="#30dc80"/></svg>