<svg xmlns="http://www.w3.org/2000/svg" viewBox="0 0 48 48"><linearGradient id="093eXIR~x_bUnRZ2kU8kha" x1="52.208" x2="80.491" y1="729.793" y2="701.51" gradientTransform="scale(1 -1) rotate(-45 -847.664 396.964)" gradientUnits="userSpaceOnUse"><stop offset="0" stop-color="#33d7f0"/><stop offset="1" stop-color="#0083c4"/></linearGradient><path fill="url(#093eXIR~x_bUnRZ2kU8kha)" d="M38.142,38.142c-7.81,7.81-20.474,7.81-28.284,0s-7.81-20.474,0-28.284s20.474-7.81,28.284,0 S45.952,30.332,38.142,38.142z"/><path d="M20,24v8c0,1.105,0.895,2,2,2h4c1.105,0,2-0.895,2-2v-8h3.648 c1.336,0,2.006-1.616,1.061-2.561l-7.295-7.295c-0.781-0.781-2.047-0.781-2.828,0l-7.295,7.295C14.346,22.384,15.015,24,16.352,24 H20z" opacity=".05"/><path d="M20.5,23.5V32c0,0.828,0.672,1.5,1.5,1.5h4c0.828,0,1.5-0.672,1.5-1.5 v-8.5h4.021c0.938,0,1.408-1.134,0.745-1.798l-7.129-7.13c-0.627-0.627-1.644-0.627-2.271,0l-7.129,7.13 c-0.663,0.663-0.194,1.798,0.745,1.798H20.5z" opacity=".07"/><path fill="#fff" d="M16.607,23H21v9c0,0.552,0.448,1,1,1h4c0.552,0,1-0.448,1-1v-9h4.393c0.54,0,0.81-0.653,0.428-1.034 l-6.964-6.964c-0.473-0.473-1.241-0.473-1.714,0l-6.964,6.964C15.797,22.347,16.067,23,16.607,23z"/></svg>