<svg xmlns="http://www.w3.org/2000/svg" viewBox="0 0 48 48"><linearGradient id="G8tDX8sFQLnSoqjhQ9MhHa" x1="103.744" x2="103.746" y1="-429.381" y2="-429.381" gradientTransform="scale(1 -1) rotate(-9.317 2508.141 392.537)" gradientUnits="userSpaceOnUse"><stop offset="0" stop-color="#ffc430"/><stop offset=".57" stop-color="#f8bd29"/><stop offset="1" stop-color="#f0b421"/></linearGradient><path fill="url(#G8tDX8sFQLnSoqjhQ9MhHa)" d="M2.36,29.275c0.001-0.007,0.004-0.012,0.005-0.019l-0.002-0.001L2.36,29.275z"/><linearGradient id="G8tDX8sFQLnSoqjhQ9MhHb" x1="15.507" x2="31.159" y1="4.891" y2="45.26" gradientUnits="userSpaceOnUse"><stop offset="0" stop-color="#ffc430"/><stop offset=".41" stop-color="#fec130"/><stop offset=".72" stop-color="#fcb730"/><stop offset=".998" stop-color="#f7a72f"/><stop offset="1" stop-color="#f7a72f"/></linearGradient><path fill="url(#G8tDX8sFQLnSoqjhQ9MhHb)" d="M33,11c-1.105,0-2,0.895-2,2c0,0,0,5.824,0,8c-1,0-1-1-1-1h-5c0,0,0,1-1,1	c0-3.542,0-14.5,0-14.5C24,5.119,22.881,4,21.5,4S19,5.119,19,6.5v14l-1-0.25V9.643c0-1.308-0.941-2.499-2.242-2.63	C14.261,6.863,13,8.034,13,9.5c0,0.237,0,31.468,0,31.468c1.461,1.3,3.347,2.032,5.314,2.032H29c3.314,0,6-2.686,6-6V13	C35,11.895,34.105,11,33,11z"/><linearGradient id="G8tDX8sFQLnSoqjhQ9MhHc" x1="27.5" x2="27.5" y1="17.989" y2="32.213" gradientUnits="userSpaceOnUse"><stop offset="0" stop-color="#d6922d"/><stop offset=".447" stop-color="#dc9a2d" stop-opacity=".553"/><stop offset="1" stop-color="#eaab2e" stop-opacity="0"/></linearGradient><path fill="url(#G8tDX8sFQLnSoqjhQ9MhHc)" d="M31,21v11h-7V21c1,0,1-1,1-1h5C30,20,30,21,31,21z"/><radialGradient id="G8tDX8sFQLnSoqjhQ9MhHd" cx="15.489" cy="32.011" r="10.633" gradientUnits="userSpaceOnUse"><stop offset="0" stop-color="#d6922d"/><stop offset=".398" stop-color="#d9962d" stop-opacity=".602"/><stop offset=".81" stop-color="#e3a32e" stop-opacity=".19"/><stop offset="1" stop-color="#eaab2e" stop-opacity="0"/></radialGradient><polygon fill="url(#G8tDX8sFQLnSoqjhQ9MhHd)" points="26,29 26.25,43 18,43 12.25,32.5 16.25,28.5"/><linearGradient id="G8tDX8sFQLnSoqjhQ9MhHe" x1="17.505" x2="17.505" y1="25.391" y2="43.211" gradientUnits="userSpaceOnUse"><stop offset="0" stop-color="#ffc430"/><stop offset=".365" stop-color="#fdbe30"/><stop offset=".831" stop-color="#f9af2f"/><stop offset="1" stop-color="#f7a72f"/></linearGradient><path fill="url(#G8tDX8sFQLnSoqjhQ9MhHe)" d="M25.33,30.295c1.058-1.224,0.776-2.435-0.237-3.311L14.87,26.997	c-1.185,0.002-2.309,0.529-3.067,1.439l-1.673,2.007c-1.303,1.563-1.485,3.771-0.465,5.532c1.121,1.937,2.537,4.237,3.335,4.992	C17,44.75,23,40,18,35c-2-2,0-2,1-4C19.001,31.001,23.123,32.848,25.33,30.295z"/><linearGradient id="G8tDX8sFQLnSoqjhQ9MhHf" x1="27.5" x2="27.5" y1="18.739" y2="42.07" gradientUnits="userSpaceOnUse"><stop offset="0" stop-color="#ffc430"/><stop offset=".365" stop-color="#fdbe30"/><stop offset=".831" stop-color="#f9af2f"/><stop offset="1" stop-color="#f7a72f"/></linearGradient><path fill="url(#G8tDX8sFQLnSoqjhQ9MhHf)" d="M27.5,17c-1.38,0-2.5,1.12-2.5,2.5v7c0,1.38,1.12,2.5,2.5,2.5s2.5-1.12,2.5-2.5v-7	C30,18.12,28.88,17,27.5,17z"/><circle cx="27.5" cy="26.5" r="1.5" fill="#fff0c9"/></svg>