<svg xmlns="http://www.w3.org/2000/svg" viewBox="0 0 48 48"><linearGradient id="oDrRi5ZcEFi5On8gax-wKa" x1="26.962" x2="26.962" y1="6.75" y2="27.913" gradientUnits="userSpaceOnUse"><stop offset="0" stop-color="#f44f5a"/><stop offset=".443" stop-color="#ee3d4a"/><stop offset="1" stop-color="#e52030"/></linearGradient><path fill="url(#oDrRi5ZcEFi5On8gax-wKa)" d="M45,22.5c0,1.25-4,7.5-4,7.5H15c-1.75-2.75-6.75-13.75-6-18.5C9.6,7.72,31.52,5.71,37,9	C39.5,10.5,45,21.25,45,22.5z"/><path d="M29.71,25.29c-3.37-3.36-5.88-8.39-6.72-13.45l-0.28-1.69l-1.33,1.07c-1.97,1.57-3.3,3.78-3.73,6.13 c-2.61-1.53-5.05-2.87-6.83-2.87c-0.16,0-0.32,0.01-0.46,0.03c-0.33,0.05-0.73,0.27-1.17,0.62c0.03,0.17,0.07,0.36,0.11,0.54 c0.03,0.18,0.07,0.36,0.11,0.54c0.44-0.42,0.82-0.67,1.09-0.71c0.1-0.01,0.21-0.02,0.32-0.02c1.8,0,4.85,1.87,7.68,3.52 c0-2.25,1-5,3.5-7c1,6,4,11,7,14l-4,4h1.42l3.29-3.29l0.7-0.71L29.71,25.29z M14.34,28.85c0.08,0.16,0.17,0.31,0.24,0.45 c0.09,0.16,0.18,0.3,0.25,0.43c2.67-1.24,5.85-2.46,7.83-3.2L23.93,30H25l-1.75-4.75C21.08,26.04,17.37,27.44,14.34,28.85z" opacity=".05"/><path d="M29.35,25.65c-3.43-3.44-6-8.57-6.86-13.73l-0.14-0.84l-0.66,0.53c-2.08,1.66-3.4,4.06-3.65,6.54 c-2.68-1.57-5.43-3.17-7.22-3.17c-0.14,0-0.27,0.01-0.39,0.03c-0.3,0.04-0.69,0.27-1.13,0.66c0.03,0.18,0.07,0.36,0.11,0.54 c0.44-0.42,0.82-0.67,1.09-0.71c0.1-0.01,0.21-0.02,0.32-0.02c1.8,0,4.85,1.87,7.68,3.52c0-2.25,1-5,3.5-7c1,6,4,11,7,14l-4,4h0.7 l3.65-3.65L29.71,26L29.35,25.65z M14.34,28.85c0.08,0.16,0.17,0.31,0.24,0.45c2.91-1.36,6.44-2.7,8.37-3.41L24.47,30H25 l-1.75-4.75C21.08,26.04,17.37,27.44,14.34,28.85z" opacity=".07"/><path fill="#ae0f36" d="M45,22.5c0,1.25-4,7.5-4,7.5h-9c-0.5-7.75,0.5-15.25,1.5-18S36,8.5,37,9C39.5,10.5,45,21.25,45,22.5z"/><linearGradient id="oDrRi5ZcEFi5On8gax-wKb" x1="27.327" x2="27.327" y1="43.728" y2="21.402" gradientUnits="userSpaceOnUse"><stop offset="0" stop-color="#ffda94"/><stop offset="1" stop-color="#fff0ce"/></linearGradient><path fill="url(#oDrRi5ZcEFi5On8gax-wKb)" d="M44.79,32.83	c-0.2,0.63-0.43,1.21-0.69,1.72c-0.26,0.51-0.95,0.61-1.37,0.22C42.1,34.2,40.75,33,40,32.5c-1.17,0.89-2.4,1.67-3.65,2.36	C27.69,39.62,17.75,40,16,40c-2,0-7-0.75-7-2.5s3-3,5-3.5l-0.99-2.07l-0.93-1.95c3.3-1.89,9.67-4.23,13.42-5.48C29,26,34,29,34,29h6	c0,0,2.38-2.16,4.92-4.88c0.23-0.23,0.63-0.1,0.66,0.22C45.8,27.37,45.52,30.49,44.79,32.83z"/><linearGradient id="oDrRi5ZcEFi5On8gax-wKc" x1="28.435" x2="28.435" y1="28.565" y2="48.335" gradientUnits="userSpaceOnUse"><stop offset="0" stop-color="#ffcf7b"/><stop offset=".196" stop-color="#fecd76"/><stop offset=".439" stop-color="#fac666"/><stop offset=".709" stop-color="#f3bc4d"/><stop offset=".995" stop-color="#eaad2a"/><stop offset="1" stop-color="#eaad29"/></linearGradient><path fill="url(#oDrRi5ZcEFi5On8gax-wKc)" d="M44.79,32.83	c-0.2,0.63-0.43,1.21-0.69,1.72c-0.26,0.51-0.95,0.61-1.37,0.22C42.1,34.2,40.75,33,40,32.5c-1.17,0.89-2.4,1.67-3.65,2.36	L35.5,33.5L33,35.25l-4-6.75l-5.5,5l-1-5.5l-9.49,3.93l-0.93-1.95c3.3-1.89,9.67-4.23,13.42-5.48c1.081,0.463,2.18,0.884,3.5,1.5	c2.631,1.381,5,3,5,3h6l3.5-0.75c0.25,2-0.5,3.25-0.5,3.25L44.79,32.83z"/><path fill="#42a4ed" d="M29,26l-4,4l-1.75-4.75c-2.75,1-8,3-11.17,4.73c0,0,0.17,0.52,0.67,1.52	c-1.31,0.19-4.29,1.49-6.44,2.97C5.58,34.97,4.95,35.49,4.5,36C5,31.5,6.75,29,9,27c-2.75,0.25-5.5,0.75-8,2	c1.75-4,7.75-13.25,9.5-13.5s5,1.75,8,3.5c0-2.25,1-5,3.5-7C23,18,26,23,29,26z"/><path fill="#fff" d="M25.25,36.25c3,0.25,5.5-0.5,6.25-0.75c0.5-1,0.75-2.75,0.75-3.5C31,32.25,30.5,32.5,30,33.25	S27.25,35.5,25.25,36.25z"/><path fill="#343434" d="M22.769,36.779c-1.118,0-2.022-0.143-2.454-0.315c-0.257-0.103-0.381-0.394-0.278-0.649	s0.394-0.382,0.649-0.278c1.112,0.442,7.521,0.662,9.362-3.249c0.117-0.249,0.417-0.356,0.665-0.239	c0.25,0.117,0.357,0.415,0.239,0.665C29.431,35.947,25.475,36.779,22.769,36.779z"/><path fill="#343434" d="M28.5,33.75c-0.169,0-0.335-0.087-0.429-0.243c-0.143-0.236-0.065-0.544,0.172-0.686	c1.296-0.778,3.149-1.321,4.507-1.321c0.276,0,0.5,0.224,0.5,0.5s-0.224,0.5-0.5,0.5c-1.194,0-2.836,0.484-3.993,1.179	C28.677,33.728,28.588,33.75,28.5,33.75z"/><path fill="#343434" d="M42.5,33c-0.156,0-0.305-0.073-0.4-0.2c-0.771-1.027-1.303-1.828-1.574-2.642	c-0.06-0.18-0.013-0.378,0.121-0.512c0.509-0.51,1.55-1.304,2.63-1.844c0.154-0.078,0.34-0.067,0.486,0.021	C43.91,27.916,44,28.077,44,28.25c0,1.262-0.492,3.352-1.053,4.474c-0.077,0.155-0.229,0.259-0.402,0.274	C42.53,32.999,42.515,33,42.5,33z M41.587,30.136c0.177,0.413,0.442,0.849,0.789,1.345c0.237-0.691,0.451-1.559,0.557-2.336	C42.411,29.471,41.931,29.832,41.587,30.136z"/><path fill="#50e6ff" d="M5.5,26.5c3.25-1.75,8-2.25,9-2.25c-1.45,1.21-5.23,5.21-8.19,10.22C5.58,34.97,4.95,35.49,4.5,36	C5,31.5,6.75,29,9,27c-2.75,0.25-5.5,0.75-8,2c1.75-4,7.75-13.25,9.5-13.5s5,1.75,8,3.5c0-2.25,1-5,3.5-7c-2,4-1.75,7-1.5,10.5	c-2-1.25-7.5-3-8.75-2.5S6.25,25.25,5.5,26.5z"/><path fill="#343434" d="M17,27.5c-0.25,1.5,0.25,4.25,1.5,6s2.25,1.25,2,0s-0.25-2.75-0.25-3.25C19.5,29.5,17,27.5,17,27.5z"/><path fill="#343434" d="M25,29.75c0,0.75,0.25,2.5,1,3.5s1.5,1.018,1.5-0.75c0-2,0.25-4.25,1.5-7.25	C28,26.5,25.5,29,25,29.75z"/><path fill="#343434" d="M23,32.5c-0.076,0-0.152-0.018-0.224-0.053c-4.912-2.456-9.521-8.317-11.724-12.724	c-0.123-0.247-0.023-0.547,0.224-0.671c0.248-0.124,0.547-0.023,0.671,0.224c2.078,4.157,6.351,9.643,10.926,12.095	c5.587-6.675,10.277-11.347,14.334-14.276c0.224-0.162,0.536-0.112,0.698,0.112c0.162,0.224,0.111,0.537-0.112,0.698	c-4.05,2.925-8.764,7.641-14.409,14.415C23.286,32.438,23.145,32.5,23,32.5z"/><path fill="#343434" d="M23,36.75c-0.276,0-0.5-0.224-0.5-0.5s0.224-0.5,0.5-0.5c3.812,0,6.714-0.229,8.068-0.633	l0.069-0.341c0.194-0.938,0.362-1.749,0.362-2.526c0-0.276,0.224-0.5,0.5-0.5s0.5,0.224,0.5,0.5c0,0.88-0.178,1.736-0.383,2.729	l-0.127,0.619c-0.034,0.17-0.153,0.31-0.314,0.37C29.861,36.648,25.461,36.75,23,36.75z"/><path fill="#42a4ed" d="M40,29v7c-1.75-2.25-3.25-4-6-6c-0.5,1.75-1,3-1,3c-1.21-1.94-3.83-6.69-3.99-6.99L29,26L40,29z"/><path fill="#50e6ff" d="M33,33c-1.21-1.94-3.83-6.69-3.99-6.99L32,29L33,33z"/></svg>