<svg xmlns="http://www.w3.org/2000/svg" viewBox="0 0 48 48"><path fill="#50e6ff" d="M39,16v25c0,1.105-0.895,2-2,2H11c-1.105,0-2-0.895-2-2V7c0-1.105,0.895-2,2-2h17L39,16z"/><path d="M39,41V25c-3.991,0-7,1.72-7,4v4.04C31.668,33.013,31.334,33,31,33c-3.991,0-7,1.72-7,4v6h13	C38.105,43,39,42.105,39,41z" opacity=".05"/><path d="M39,41V25.5c-3.645,0-6.5,1.538-6.5,3.5v4.593C32.005,33.531,31.502,33.5,31,33.5	c-3.645,0-6.5,1.538-6.5,3.5v6H37C38.105,43,39,42.105,39,41z" opacity=".07"/><linearGradient id="fy~Wl28ySq6K4pkt5tgowa" x1="28.529" x2="33.6" y1="-190.529" y2="-195.6" gradientTransform="translate(0 206)" gradientUnits="userSpaceOnUse"><stop offset="0" stop-color="#3079d6"/><stop offset="1" stop-color="#297cd2"/></linearGradient><path fill="url(#fy~Wl28ySq6K4pkt5tgowa)" d="M28,5v9c0,1.105,0.895,2,2,2h9L28,5z"/><path fill="#0d61a9" d="M25.249,27.352c0-5.14-7.589-4.136-7.589-7.173c0-1.586,1.782-1.669,2.34-1.669	c1.34,0,2.632,0.359,3.618,0.822c0.311,0.146,0.668-0.07,0.668-0.413v-1.496c0-0.502-0.189-0.799-0.49-0.916	c-0.676-0.263-1.646-0.454-3.082-0.502v-1.646c0-0.197-0.16-0.357-0.357-0.357h-0.714c-0.197,0-0.357,0.16-0.357,0.357v1.673	c-2.226,0.218-4.534,1.474-4.534,4.397c0,5.328,7.589,4.272,7.589,7.078c0,0.882-0.563,1.642-2.34,1.642	c-1.786,0-3.426-0.623-4.334-1.088C15.36,27.903,15,28.129,15,28.472v1.703c0,0.327,0.197,0.617,0.497,0.745	c1.076,0.457,2.519,0.803,3.788,0.904v1.819c0,0.197,0.16,0.357,0.357,0.357h0.714c0.197,0,0.357-0.16,0.357-0.357v-1.815	C24.045,31.55,25.249,29.32,25.249,27.352z"/><linearGradient id="fy~Wl28ySq6K4pkt5tgowb" x1="38.712" x2="39.657" y1="38.108" y2="44.504" gradientUnits="userSpaceOnUse"><stop offset="0" stop-color="#fede00"/><stop offset="1" stop-color="#ffd000"/></linearGradient><path fill="url(#fy~Wl28ySq6K4pkt5tgowb)" d="M45,39H33c0,0.351,0,1.649,0,2c0,1.657,2.686,3,6,3s6-1.343,6-3C45,40.649,45,39.351,45,39z"/><linearGradient id="fy~Wl28ySq6K4pkt5tgowc" x1="38.712" x2="39.657" y1="36.108" y2="42.504" gradientUnits="userSpaceOnUse"><stop offset="0" stop-color="#e5a505"/><stop offset=".116" stop-color="#eaa804"/><stop offset=".595" stop-color="#f8b301"/><stop offset="1" stop-color="#fdb700"/></linearGradient><path fill="url(#fy~Wl28ySq6K4pkt5tgowc)" d="M45,37H33c0,0.351,0,1.649,0,2c0,1.657,2.686,3,6,3s6-1.343,6-3C45,38.649,45,37.351,45,37z"/><linearGradient id="fy~Wl28ySq6K4pkt5tgowd" x1="38.712" x2="39.657" y1="34.108" y2="40.504" gradientUnits="userSpaceOnUse"><stop offset="0" stop-color="#fede00"/><stop offset="1" stop-color="#ffd000"/></linearGradient><path fill="url(#fy~Wl28ySq6K4pkt5tgowd)" d="M45,35H33c0,0.351,0,1.649,0,2c0,1.657,2.686,3,6,3s6-1.343,6-3C45,36.649,45,35.351,45,35z"/><linearGradient id="fy~Wl28ySq6K4pkt5tgowe" x1="38.712" x2="39.657" y1="32.108" y2="38.504" gradientUnits="userSpaceOnUse"><stop offset="0" stop-color="#e5a505"/><stop offset=".116" stop-color="#eaa804"/><stop offset=".595" stop-color="#f8b301"/><stop offset="1" stop-color="#fdb700"/></linearGradient><path fill="url(#fy~Wl28ySq6K4pkt5tgowe)" d="M45,33H33c0,0.351,0,1.649,0,2c0,1.657,2.686,3,6,3s6-1.343,6-3C45,34.649,45,33.351,45,33z"/><linearGradient id="fy~Wl28ySq6K4pkt5tgowf" x1="38.712" x2="39.657" y1="30.108" y2="36.504" gradientUnits="userSpaceOnUse"><stop offset="0" stop-color="#fede00"/><stop offset="1" stop-color="#ffd000"/></linearGradient><path fill="url(#fy~Wl28ySq6K4pkt5tgowf)" d="M45,31H33c0,0.351,0,1.649,0,2c0,1.657,2.686,3,6,3s6-1.343,6-3C45,32.649,45,31.351,45,31z"/><linearGradient id="fy~Wl28ySq6K4pkt5tgowg" x1="38.712" x2="39.657" y1="28.108" y2="34.504" gradientUnits="userSpaceOnUse"><stop offset="0" stop-color="#e5a505"/><stop offset=".116" stop-color="#eaa804"/><stop offset=".595" stop-color="#f8b301"/><stop offset="1" stop-color="#fdb700"/></linearGradient><path fill="url(#fy~Wl28ySq6K4pkt5tgowg)" d="M45,29H33c0,0.351,0,1.649,0,2c0,1.657,2.686,3,6,3s6-1.343,6-3C45,30.649,45,29.351,45,29z"/><linearGradient id="fy~Wl28ySq6K4pkt5tgowh" x1="35.729" x2="42.342" y1="25.729" y2="32.342" gradientUnits="userSpaceOnUse"><stop offset="0" stop-color="#fede00"/><stop offset="1" stop-color="#ffd000"/></linearGradient><ellipse cx="39" cy="29" fill="url(#fy~Wl28ySq6K4pkt5tgowh)" rx="6" ry="3"/><ellipse cx="39" cy="29" fill="#ffc800" rx="4.5" ry="2"/><path d="M33,33.156c0,3.384,0,7.631,0,7.844c0,1.454,2.069,2.665,4.814,2.941C37.932,43.64,38,43.327,38,43	v-6C38,35.121,35.953,33.625,33,33.156z" opacity=".05"/><path d="M33,33.664c0,3.286,0,7.133,0,7.336c0,1.36,1.812,2.508,4.295,2.875	C37.424,43.596,37.5,43.304,37.5,43v-6C37.5,35.415,35.637,34.108,33,33.664z" opacity=".07"/><linearGradient id="fy~Wl28ySq6K4pkt5tgowi" x1="30.712" x2="31.657" y1="40.108" y2="46.504" gradientUnits="userSpaceOnUse"><stop offset="0" stop-color="#e5a505"/><stop offset=".116" stop-color="#eaa804"/><stop offset=".595" stop-color="#f8b301"/><stop offset="1" stop-color="#fdb700"/></linearGradient><path fill="url(#fy~Wl28ySq6K4pkt5tgowi)" d="M37,41H25c0,0.351,0,1.649,0,2c0,1.657,2.686,3,6,3s6-1.343,6-3C37,42.649,37,41.351,37,41z"/><linearGradient id="fy~Wl28ySq6K4pkt5tgowj" x1="30.712" x2="31.657" y1="38.108" y2="44.504" gradientUnits="userSpaceOnUse"><stop offset="0" stop-color="#fede00"/><stop offset="1" stop-color="#ffd000"/></linearGradient><path fill="url(#fy~Wl28ySq6K4pkt5tgowj)" d="M37,39H25c0,0.351,0,1.649,0,2c0,1.657,2.686,3,6,3s6-1.343,6-3C37,40.649,37,39.351,37,39z"/><linearGradient id="fy~Wl28ySq6K4pkt5tgowk" x1="30.712" x2="31.657" y1="36.108" y2="42.504" gradientUnits="userSpaceOnUse"><stop offset="0" stop-color="#e5a505"/><stop offset=".116" stop-color="#eaa804"/><stop offset=".595" stop-color="#f8b301"/><stop offset="1" stop-color="#fdb700"/></linearGradient><path fill="url(#fy~Wl28ySq6K4pkt5tgowk)" d="M37,37H25c0,0.351,0,1.649,0,2c0,1.657,2.686,3,6,3s6-1.343,6-3C37,38.649,37,37.351,37,37z"/><linearGradient id="fy~Wl28ySq6K4pkt5tgowl" x1="27.729" x2="34.342" y1="33.729" y2="40.342" gradientUnits="userSpaceOnUse"><stop offset="0" stop-color="#fede00"/><stop offset="1" stop-color="#ffd000"/></linearGradient><ellipse cx="31" cy="37" fill="url(#fy~Wl28ySq6K4pkt5tgowl)" rx="6" ry="3"/><ellipse cx="31" cy="37" fill="#ffc800" rx="4.5" ry="2"/></svg>