<svg xmlns="http://www.w3.org/2000/svg" viewBox="0 0 48 48"><linearGradient id="qKPywsEcHVwXygqtzzI3ta" x1="-260.715" x2="-226.017" y1="191.1" y2="209.912" gradientTransform="matrix(0 1 1 0 -169.777 279.777)" gradientUnits="userSpaceOnUse"><stop offset="0" stop-color="#dfe9f2"/><stop offset=".998" stop-color="#9ea7b0"/></linearGradient><path fill="url(#qKPywsEcHVwXygqtzzI3ta)" d="M24,44c2.467,0,4.818-0.468,7-1.284V5.284C28.818,4.468,26.467,4,24,4s-4.818,0.468-7,1.284	v37.431C19.182,43.532,21.533,44,24,44z"/><linearGradient id="qKPywsEcHVwXygqtzzI3tb" x1="-263.614" x2="-235.219" y1="180.035" y2="192.364" gradientTransform="matrix(0 1 1 0 -169.777 279.777)" gradientUnits="userSpaceOnUse"><stop offset="0" stop-color="#0d61a9"/><stop offset="1" stop-color="#16528c"/></linearGradient><path fill="url(#qKPywsEcHVwXygqtzzI3tb)" d="M17,42.716V5.284C9.412,8.125,4,15.421,4,24S9.412,39.875,17,42.716z"/><linearGradient id="qKPywsEcHVwXygqtzzI3tc" x1="-265.776" x2="-228.647" y1="200.834" y2="214.442" gradientTransform="matrix(0 1 1 0 -169.777 279.777)" gradientUnits="userSpaceOnUse"><stop offset=".008" stop-color="#f44f5a"/><stop offset=".447" stop-color="#ee3d4a"/><stop offset="1" stop-color="#e52030"/></linearGradient><path fill="url(#qKPywsEcHVwXygqtzzI3tc)" d="M44,24c0-8.579-5.412-15.875-13-18.716v37.431C38.588,39.875,44,32.579,44,24z"/></svg>