<svg xmlns="http://www.w3.org/2000/svg" viewBox="0 0 48 48"><linearGradient id="PfVJIkTbpk7Zis0lLbNnKa" x1="24" x2="24" y1="1.059" y2="64.146" gradientUnits="userSpaceOnUse"><stop offset="0" stop-color="#2aa4f4"/><stop offset="1" stop-color="#007ad9"/></linearGradient><path fill="url(#PfVJIkTbpk7Zis0lLbNnKa)" d="M40,42H8c-1.105,0-2-0.895-2-2V8c0-1.105,0.895-2,2-2h32c1.105,0,2,0.895,2,2v32	C42,41.105,41.105,42,40,42z"/><linearGradient id="PfVJIkTbpk7Zis0lLbNnKb" x1="-4.441" x2="61.387" y1="15.5" y2="15.5" gradientUnits="userSpaceOnUse"><stop offset=".002" stop-color="#427fdb"/><stop offset=".397" stop-color="#2668cb"/><stop offset=".763" stop-color="#1358bf"/><stop offset="1" stop-color="#0c52bb"/></linearGradient><path fill="url(#PfVJIkTbpk7Zis0lLbNnKb)" d="M39,23H9c-0.552,0-1-0.448-1-1V9c0-0.552,0.448-1,1-1h30c0.552,0,1,0.448,1,1v13	C40,22.552,39.552,23,39,23z"/><linearGradient id="PfVJIkTbpk7Zis0lLbNnKc" x1="-4.441" x2="61.387" y1="32.5" y2="32.5" gradientUnits="userSpaceOnUse"><stop offset=".002" stop-color="#427fdb"/><stop offset=".397" stop-color="#2668cb"/><stop offset=".763" stop-color="#1358bf"/><stop offset="1" stop-color="#0c52bb"/></linearGradient><path fill="url(#PfVJIkTbpk7Zis0lLbNnKc)" d="M39,40H9c-0.552,0-1-0.448-1-1V26c0-0.552,0.448-1,1-1h30c0.552,0,1,0.448,1,1v13	C40,39.552,39.552,40,39,40z"/><linearGradient id="PfVJIkTbpk7Zis0lLbNnKd" x1="23.5" x2="23.5" y1="11.177" y2="29.75" gradientUnits="userSpaceOnUse"><stop offset="0" stop-color="#f9f9f9"/><stop offset=".26" stop-color="#f0f1f2"/><stop offset=".678" stop-color="#d9dcdf"/><stop offset="1" stop-color="#c2c8cc"/></linearGradient><path fill="url(#PfVJIkTbpk7Zis0lLbNnKd)" d="M36,15c0-1.657-1.343-3-3-3c-0.816,0-1.553,0.328-2.094,0.856C30.62,11.79,29.657,11,28.5,11	c-0.899,0-1.681,0.479-2.121,1.191C25.831,11.472,24.974,11,24,11c-0.537,0-1.034,0.153-1.47,0.4C21.998,10.561,21.067,10,20,10	c-1.132,0-2.106,0.635-2.617,1.56C17.024,11.215,16.538,11,16,11c-1.105,0-2,0.895-2,2c-1.657,0-3,1.343-3,3s1.343,3,3,3	c0.162,0,0.317-0.023,0.472-0.048C14.926,19.585,15.663,20,16.5,20c0.59,0,1.126-0.213,1.554-0.555C18.256,20.334,19.049,21,20,21	s1.744-0.666,1.946-1.555C22.374,19.787,22.91,20,23.5,20s1.126-0.213,1.554-0.555C25.256,20.334,26.049,21,27,21	c0.749,0,1.394-0.417,1.737-1.027C28.824,19.985,28.91,20,29,20c0.238,0,0.461-0.051,0.673-0.128C30.223,20.555,31.055,21,32,21	c0.138,0,0.273-0.014,0.403-0.041C33.867,20.761,35,19.519,35,18c0-0.242-0.036-0.475-0.091-0.701C35.573,16.751,36,15.929,36,15z"/><path fill="#33c481" d="M38,33c0-0.873-0.563-1.608-1.343-1.88C36.874,30.8,37,30.415,37,30c0-1.105-0.895-2-2-2	c-0.415,0-0.8,0.126-1.12,0.343C33.608,27.563,32.873,27,32,27c-1.105,0-2,0.895-2,2c-1.105,0-2,0.895-2,2	c0,0.415,0.126,0.8,0.343,1.12C27.563,32.392,27,33.127,27,34c0,1.105,0.895,2,2,2c0.378,0,0.728-0.111,1.03-0.293	C30.015,35.803,30,35.899,30,36c0,1.105,0.895,2,2,2c0.873,0,1.608-0.563,1.88-1.343C34.2,36.874,34.585,37,35,37	c1.105,0,2-0.895,2-2c0-0.09-0.015-0.176-0.027-0.263C37.583,34.394,38,33.749,38,33z"/><linearGradient id="PfVJIkTbpk7Zis0lLbNnKe" x1="35" x2="35" y1=".941" y2="52.481" gradientUnits="userSpaceOnUse"><stop offset="0" stop-color="#d4943b"/><stop offset="1" stop-color="#c2620e"/><stop offset="1" stop-color="#c2620e"/></linearGradient><path fill="url(#PfVJIkTbpk7Zis0lLbNnKe)" d="M35,45L35,45c-0.552,0-1-0.448-1-1V4c0-0.552,0.448-1,1-1l0,0c0.552,0,1,0.448,1,1v40	C36,44.552,35.552,45,35,45z"/><linearGradient id="PfVJIkTbpk7Zis0lLbNnKf" x1="39" x2="39" y1=".941" y2="52.481" gradientUnits="userSpaceOnUse"><stop offset="0" stop-color="#d4943b"/><stop offset="1" stop-color="#c2620e"/><stop offset="1" stop-color="#c2620e"/></linearGradient><path fill="url(#PfVJIkTbpk7Zis0lLbNnKf)" d="M39,45L39,45c-0.552,0-1-0.448-1-1V4c0-0.552,0.448-1,1-1l0,0c0.552,0,1,0.448,1,1v40	C40,44.552,39.552,45,39,45z"/><linearGradient id="PfVJIkTbpk7Zis0lLbNnKg" x1="17" x2="17" y1="26.181" y2="34.278" gradientUnits="userSpaceOnUse"><stop offset="0" stop-color="#f44f5a"/><stop offset=".443" stop-color="#ee3d4a"/><stop offset="1" stop-color="#e52030"/></linearGradient><path fill="url(#PfVJIkTbpk7Zis0lLbNnKg)" d="M24,28.93v1.14c0,0.52-0.41,0.96-0.93,1L22,31.15l-6,0.42l-3,0.21l-1.93,0.14	C10.49,31.96,10,31.51,10,30.93v-2.86c0-0.58,0.49-1.03,1.07-0.99L13,27.22l6,0.42l3,0.21l1.07,0.08C23.59,27.97,24,28.41,24,28.93z"/><linearGradient id="PfVJIkTbpk7Zis0lLbNnKh" x1="17" x2="17" y1="32.005" y2="40.26" gradientUnits="userSpaceOnUse"><stop offset="0" stop-color="#f44f5a"/><stop offset=".443" stop-color="#ee3d4a"/><stop offset="1" stop-color="#e52030"/></linearGradient><path fill="url(#PfVJIkTbpk7Zis0lLbNnKh)" d="M24,34.07v2.86c0,0.58-0.49,1.03-1.07,0.99L22,37.85l-3-0.21l-6-0.42l-2.07-0.15	c-0.52-0.04-0.93-0.48-0.93-1v-1.14c0-0.52,0.41-0.96,0.93-1L13,33.78l3-0.21l6-0.42l0.93-0.07C23.51,33.04,24,33.49,24,34.07z"/><polygon fill="#eb6773" points="16,27.43 16,31.57 13,31.78 13,27.22"/><polygon fill="#eb6773" points="22,27.85 22,31.15 19,31.36 19,27.64"/><polygon fill="#eb6773" points="16,33.57 16,37.43 13,37.22 13,33.78"/><polygon fill="#eb6773" points="22,33.15 22,37.85 19,37.64 19,33.36"/></svg>