<svg xmlns="http://www.w3.org/2000/svg" viewBox="0 0 48 48"><path fill="#1b9de2" d="M36,9H12v34c0,1.105,0.895,2,2,2h20c1.105,0,2-0.895,2-2V9z"/><path d="M36,43V31H26c-1.103,0-2,0.897-2,2v12h4h6C35.105,45,36,44.105,36,43z" opacity=".05"/><path d="M27.5,44.5h7.811C35.73,44.133,36,43.601,36,43V31.5H26c-0.827,0-1.5,0.673-1.5,1.5v12h3V44.5z" opacity=".07"/><linearGradient id="VmG2X0vE~Pe0Xf5_OK2a9a" x1="12" x2="36" y1="6.5" y2="6.5" gradientUnits="userSpaceOnUse"><stop offset="0" stop-color="#464eb0"/><stop offset="1" stop-color="#343b9e"/></linearGradient><path fill="url(#VmG2X0vE~Pe0Xf5_OK2a9a)" d="M36,9H12V6c0-1.105,0.895-2,2-2h20c1.105,0,2,0.895,2,2V9z"/><circle cx="20" cy="6.5" r=".75" fill="#6d75cf"/><path fill="#6d75cf" d="M27.5,5.75c-0.194,0-4.806,0-5,0c-0.414,0-0.75,0.336-0.75,0.75s0.336,0.75,0.75,0.75	c0.194,0,4.806,0,5,0c0.414,0,0.75-0.336,0.75-0.75S27.914,5.75,27.5,5.75z"/><path fill="#353c9f" d="M35,14H13l-3,3v1c0,1.105,0.895,2,2,2h24c1.105,0,2-0.895,2-2v-1L35,14z"/><polygon fill="#6d75cf" points="36,9 12,9 10,17 38,17"/><path fill="#52bf8d" d="M27,48h-1c-0.552,0-1-0.448-1-1v-2.063h2V48z"/><rect width="19" height="12" x="27" y="32" fill="#33c481"/><path fill="#59d19a" d="M27,46h-1c-0.552,0-1-0.448-1-1v-2.207h2V46z"/><path fill="#61e3a7" d="M27,44h-1c-0.552,0-1-0.448-1-1V33c0-0.552,0.448-1,1-1h1V44z"/><rect width="19" height="2" x="27" y="44" fill="#21a366"/><rect width="19" height="2" x="27" y="46" fill="#107c42"/><circle cx="33" cy="38" r="4" fill="#61e3a7"/><circle cx="39" cy="41" r="1" fill="#61e3a7"/><circle cx="43" cy="41" r="1" fill="#61e3a7"/><path fill="#52bf8d" d="M47,48h-1v-3.063h2V47C48,47.552,47.552,48,47,48z"/><path fill="#59d19a" d="M47,46h-1v-3.207h2V45C48,45.552,47.552,46,47,46z"/><path fill="#61e3a7" d="M47,44h-1V32h1c0.552,0,1,0.448,1,1v10C48,43.552,47.552,44,47,44z"/></svg>