<svg xmlns="http://www.w3.org/2000/svg" viewBox="0 0 48 48"><radialGradient id="EcIxyHN9lS_fsa4caGvLoa" cx="23.957" cy="207.864" r="24.468" fx="23.994" fy="207.493" gradientTransform="translate(0 -202)" gradientUnits="userSpaceOnUse"><stop offset=".016" stop-color="#999"/><stop offset=".066" stop-color="#999"/><stop offset=".101" stop-color="#a7a7a7"/><stop offset=".164" stop-color="#b8b8b8"/><stop offset=".241" stop-color="#c3c3c3"/><stop offset=".349" stop-color="#cacaca"/><stop offset=".651" stop-color="#ccc"/><stop offset=".686" stop-color="#c3c3c3"/><stop offset=".801" stop-color="#acacac"/><stop offset=".908" stop-color="#9e9e9e"/><stop offset="1" stop-color="#999"/></radialGradient><polygon fill="url(#EcIxyHN9lS_fsa4caGvLoa)" points="40.779,20.583 24,7.276 7.221,20.583 5.979,19.016 24,4.724 42.021,19.016"/><linearGradient id="EcIxyHN9lS_fsa4caGvLob" x1="18.426" x2="29.574" y1="214.239" y2="248.761" gradientTransform="translate(0 -202)" gradientUnits="userSpaceOnUse"><stop offset="0" stop-color="#f44f5a"/><stop offset=".443" stop-color="#ee3d4a"/><stop offset="1" stop-color="#e52030"/></linearGradient><path fill="url(#EcIxyHN9lS_fsa4caGvLob)" d="M4,17h40c1.105,0,2,0.895,2,2v21c0,1.105-0.895,2-2,2H4c-1.105,0-2-0.895-2-2V19	C2,17.895,2.895,17,4,17z"/><linearGradient id="EcIxyHN9lS_fsa4caGvLoc" x1="-1914.614" x2="-1913.386" y1="209.903" y2="206.097" gradientTransform="matrix(-1 0 0 1 -1890 -202)" gradientUnits="userSpaceOnUse"><stop offset="0" stop-color="#4c5963"/><stop offset="1" stop-color="#889097"/></linearGradient><path fill="url(#EcIxyHN9lS_fsa4caGvLoc)" d="M24,4c1.1,0,2,0.9,2,2s-0.9,2-2,2s-2-0.9-2-2S22.9,4,24,4z"/><path d="M39.842,24.646H30.26v0.326l-0.251-0.096	c-0.325-0.123-0.68-0.216-1.057-0.275c-0.36-0.057-0.76-0.084-1.222-0.084c-0.486,0-0.955,0.054-1.395,0.158	c-0.479,0.115-0.912,0.302-1.291,0.555c-0.407,0.275-0.733,0.629-0.967,1.05c-0.04,0.072-0.057,0.157-0.091,0.233	c-0.14-0.211-0.287-0.417-0.464-0.605c-0.872-0.923-2.014-1.391-3.393-1.391c-1.447,0-2.637,0.485-3.533,1.443	c-0.883,0.939-1.33,2.164-1.33,3.639c0,0.478,0.07,0.919,0.171,1.342h-1.302v-6.295h-3.734v0.215	c-0.622-0.227-1.377-0.344-2.244-0.344c-1.484,0-2.72,0.486-3.674,1.445c-0.948,0.958-1.43,2.204-1.43,3.701	c0,1.422,0.437,2.591,1.297,3.473c0.87,0.893,2.05,1.346,3.506,1.346c1.008,0,1.86-0.161,2.545-0.471v0.337h6.586v-0.911	c0.825,0.68,1.83,1.046,3.018,1.046c1.409,0,2.58-0.479,3.48-1.424c0.096-0.101,0.166-0.219,0.252-0.327v0.932l0.545,0.279	c0.364,0.187,0.789,0.325,1.261,0.414c0.438,0.083,0.905,0.125,1.392,0.125c0.482,0,0.947-0.048,1.38-0.141	c0.49-0.104,0.931-0.28,1.311-0.526c0.242-0.157,0.448-0.352,0.634-0.567v1.099h9.582c1.504,0,2.74-0.455,3.674-1.352	c0.948-0.906,1.43-2.116,1.43-3.596C44.945,27.625,44.282,24.646,39.842,24.646z M9.555,30.627c-0.413,0.24-0.855,0.357-1.354,0.357	c-0.433,0-0.74-0.111-0.967-0.352c-0.241-0.255-0.354-0.603-0.354-1.094c0-0.518,0.121-0.883,0.381-1.148	c0.254-0.26,0.583-0.381,1.035-0.381c0.479,0,0.888,0.104,1.248,0.32l0.857,0.513v1.289L9.555,30.627z M20.687,30.705	c-0.162,0.198-0.35,0.279-0.648,0.279c-0.278,0-0.461-0.085-0.628-0.291c-0.211-0.263-0.317-0.661-0.317-1.186	c0-0.519,0.109-0.921,0.322-1.194c0.17-0.216,0.363-0.304,0.666-0.304c0.326,0,0.477,0.109,0.602,0.273	c0.199,0.261,0.305,0.694,0.305,1.256C20.988,30.058,20.884,30.462,20.687,30.705z M40.75,30.576	c-0.212,0.224-0.501,0.34-0.902,0.361v-2.875c0.418,0.021,0.723,0.131,0.93,0.336c0.233,0.232,0.342,0.558,0.342,1.023	C41.119,29.944,41.002,30.311,40.75,30.576z" opacity=".05"/><path d="M7.857,33.982c-1.316,0-2.375-0.401-3.147-1.194	c-0.767-0.786-1.155-1.838-1.155-3.124c0-1.361,0.433-2.488,1.285-3.35c0.856-0.861,1.973-1.297,3.318-1.297	c0.809,0,1.506,0.105,2.073,0.313l0.327,0.121v2.902L9.801,27.9c-0.44-0.264-0.933-0.392-1.505-0.392	c-0.587,0-1.043,0.174-1.393,0.531c-0.353,0.36-0.523,0.85-0.523,1.498c0,0.619,0.16,1.089,0.49,1.438	c0.323,0.342,0.759,0.508,1.33,0.508c0.589,0,1.114-0.14,1.605-0.426l0.752-0.438v2.768l-0.282,0.137	C9.646,33.828,8.833,33.982,7.857,33.982z" opacity=".07"/><path fill="#fff" d="M10.059,33.075c-0.563,0.271-1.295,0.408-2.201,0.408c-1.182,0-2.111-0.348-2.789-1.043	c-0.676-0.694-1.014-1.62-1.014-2.776c0-1.231,0.381-2.23,1.141-2.997c0.762-0.767,1.748-1.149,2.963-1.149	c0.752,0,1.385,0.095,1.9,0.284v1.671c-0.516-0.308-1.102-0.462-1.762-0.462c-0.723,0-1.307,0.228-1.75,0.682	c-0.445,0.455-0.666,1.071-0.666,1.848c0,0.745,0.209,1.339,0.627,1.781c0.42,0.442,0.984,0.663,1.693,0.663	c0.676,0,1.295-0.165,1.857-0.494L10.059,33.075L10.059,33.075z"/><polygon points="10.902,33.848 10.902,25.146 13.637,25.146 13.637,31.441 16.488,31.441 16.488,33.848" opacity=".07"/><path fill="#fff" d="M15.988,33.348h-4.586v-7.702h1.734v6.295h2.852C15.988,31.941,15.988,33.348,15.988,33.348z"/><path d="M20.006,33.982c-1.238,0-2.267-0.413-3.055-1.229	c-0.785-0.812-1.184-1.873-1.184-3.154c0-1.343,0.401-2.452,1.194-3.297c0.799-0.853,1.865-1.285,3.169-1.285	c1.235,0,2.255,0.415,3.029,1.234c0.767,0.815,1.154,1.889,1.154,3.191c0,1.336-0.401,2.437-1.191,3.271	C22.321,33.557,21.273,33.982,20.006,33.982z M20.082,27.51c-0.457,0-0.793,0.157-1.059,0.494c-0.285,0.365-0.43,0.871-0.43,1.504	c0,0.641,0.144,1.145,0.427,1.498c0.265,0.326,0.589,0.479,1.019,0.479c0.449,0,0.778-0.147,1.036-0.464	c0.273-0.339,0.413-0.837,0.413-1.481c0-0.681-0.137-1.206-0.407-1.56C20.836,27.659,20.519,27.51,20.082,27.51z" opacity=".07"/><path fill="#fff" d="M20.006,33.483c-1.102,0-2.002-0.359-2.695-1.077c-0.695-0.718-1.043-1.653-1.043-2.807	c0-1.218,0.354-2.202,1.059-2.954s1.641-1.128,2.805-1.128c1.098,0,1.986,0.36,2.666,1.079c0.678,0.721,1.018,1.669,1.018,2.848	c0,1.21-0.352,2.186-1.055,2.927C22.055,33.112,21.139,33.483,20.006,33.483z M20.082,27.01c-0.609,0-1.092,0.229-1.451,0.685	c-0.357,0.457-0.537,1.062-0.537,1.813c0,0.762,0.18,1.365,0.537,1.81c0.359,0.444,0.828,0.666,1.408,0.666	c0.598,0,1.072-0.216,1.424-0.647c0.35-0.432,0.525-1.03,0.525-1.797c0-0.798-0.17-1.419-0.51-1.863S20.672,27.01,20.082,27.01z"/><path d="M26.936,33.982c-0.455,0-0.892-0.039-1.298-0.116	c-0.427-0.08-0.806-0.204-1.127-0.368l-0.272-0.14v-3.096l0.821,0.688c0.269,0.226,0.551,0.389,0.863,0.501	c0.308,0.11,0.623,0.166,0.938,0.166c0.178,0,0.33-0.015,0.453-0.045c0.107-0.025,0.193-0.059,0.255-0.099	c0.043-0.026,0.07-0.052,0.085-0.077c0.012-0.103,0.002-0.135-0.022-0.168c-0.05-0.068-0.126-0.138-0.225-0.204	c-0.132-0.09-0.285-0.171-0.461-0.252c-0.195-0.088-0.409-0.182-0.642-0.277c-0.677-0.281-1.195-0.639-1.542-1.063	c-0.368-0.449-0.556-0.996-0.556-1.627c0-0.488,0.104-0.919,0.307-1.279c0.195-0.352,0.469-0.649,0.812-0.881	c0.327-0.219,0.706-0.381,1.128-0.482c0.399-0.096,0.829-0.145,1.277-0.145c0.435,0,0.809,0.025,1.145,0.078	c0.344,0.055,0.665,0.139,0.957,0.249l0.322,0.123v2.908l-0.786-0.548c-0.104-0.072-0.218-0.135-0.341-0.19	c-0.129-0.058-0.262-0.104-0.399-0.143c-0.139-0.039-0.278-0.067-0.414-0.086c-0.136-0.018-0.264-0.028-0.386-0.028	c-0.156,0-0.299,0.015-0.424,0.044c-0.136,0.031-0.215,0.068-0.257,0.095c-0.049,0.03-0.082,0.061-0.103,0.092l0.007,0.119	c0.034,0.052,0.091,0.106,0.167,0.161c0.107,0.079,0.235,0.151,0.384,0.225c0.169,0.083,0.361,0.17,0.575,0.257	c0.336,0.141,0.628,0.286,0.896,0.445c0.28,0.166,0.527,0.358,0.734,0.572c0.224,0.233,0.394,0.499,0.509,0.792	c0.115,0.289,0.175,0.627,0.175,1.001c0,0.514-0.104,0.959-0.308,1.325c-0.204,0.365-0.483,0.663-0.83,0.887	c-0.327,0.212-0.712,0.366-1.143,0.457C27.813,33.938,27.384,33.982,26.936,33.982z" opacity=".07"/><path fill="#fff" d="M24.738,33.053v-1.719c0.313,0.261,0.65,0.457,1.016,0.588c0.366,0.131,0.734,0.195,1.107,0.195	c0.217,0,0.408-0.02,0.57-0.059c0.164-0.039,0.299-0.094,0.408-0.164c0.109-0.069,0.191-0.152,0.246-0.247	c0.053-0.095,0.08-0.197,0.08-0.309c0-0.15-0.043-0.284-0.129-0.403c-0.086-0.117-0.203-0.227-0.352-0.327s-0.326-0.197-0.529-0.29	c-0.205-0.093-0.424-0.188-0.66-0.285c-0.602-0.25-1.051-0.557-1.346-0.918c-0.297-0.361-0.443-0.799-0.443-1.311	c0-0.401,0.08-0.746,0.242-1.034c0.16-0.288,0.379-0.525,0.656-0.712c0.277-0.186,0.6-0.322,0.965-0.41s0.752-0.132,1.16-0.132	c0.4,0,0.756,0.024,1.066,0.072c0.309,0.049,0.596,0.123,0.857,0.224v1.605c-0.129-0.09-0.27-0.168-0.422-0.236	s-0.309-0.124-0.471-0.169c-0.16-0.045-0.322-0.078-0.48-0.1c-0.16-0.021-0.311-0.032-0.453-0.032c-0.197,0-0.377,0.019-0.537,0.057	c-0.162,0.037-0.299,0.09-0.408,0.158c-0.111,0.068-0.197,0.149-0.258,0.244c-0.063,0.095-0.092,0.201-0.092,0.32	c0,0.129,0.033,0.244,0.102,0.346c0.068,0.103,0.164,0.199,0.291,0.29c0.125,0.092,0.277,0.181,0.455,0.269	c0.18,0.088,0.383,0.179,0.607,0.271c0.309,0.129,0.584,0.266,0.83,0.411c0.244,0.145,0.455,0.309,0.631,0.491	s0.311,0.392,0.402,0.626c0.094,0.234,0.141,0.507,0.141,0.819c0,0.43-0.082,0.79-0.244,1.082c-0.164,0.292-0.385,0.528-0.664,0.709	s-0.604,0.311-0.975,0.389c-0.371,0.079-0.762,0.119-1.174,0.119c-0.422,0-0.824-0.036-1.205-0.107	C25.348,33.303,25.018,33.196,24.738,33.053z"/><polygon points="30.76,33.848 30.76,25.146 36.201,25.146 36.201,27.559 33.494,27.559 33.494,28.271 36.014,28.271 36.014,30.68 33.494,30.68 33.494,31.441 36.379,31.441 36.379,33.848" opacity=".07"/><path fill="#fff" d="M35.879,33.348H31.26v-7.702h4.441v1.413h-2.707v1.713h2.52v1.407h-2.52v1.762h2.885	C35.879,31.941,35.879,33.348,35.879,33.348z"/><path d="M36.613,33.848v-8.701h3.229c3.805,0,4.604,2.313,4.604,4.254	c0,1.337-0.429,2.426-1.275,3.234c-0.838,0.805-1.958,1.213-3.328,1.213H36.613z M39.707,31.441c0.613,0,1.074-0.171,1.406-0.521	c0.341-0.359,0.506-0.849,0.506-1.498c0-0.6-0.16-1.05-0.489-1.378c-0.329-0.326-0.798-0.485-1.433-0.485h-0.35v3.883L39.707,31.441	L39.707,31.441z" opacity=".07"/><path fill="#fff" d="M37.113,33.348v-7.702h2.729c2.734,0,4.104,1.251,4.104,3.755c0,1.199-0.373,2.157-1.121,2.873	c-0.746,0.716-1.74,1.074-2.982,1.074C39.843,33.348,37.113,33.348,37.113,33.348z M38.848,27.059v4.882h0.859	c0.752,0,1.342-0.226,1.77-0.677s0.643-1.065,0.643-1.842c0-0.734-0.213-1.312-0.637-1.732s-1.02-0.631-1.785-0.631H38.848z"/></svg>