<svg xmlns="http://www.w3.org/2000/svg" data-name="Слой 1" viewBox="0 0 48 48"><defs><linearGradient id="GNl7C_gdb9tvv4VRQu~7Ja" x1="32.793" x2="39.266" y1="7.794" y2="14.266" data-name="Безымянный градиент 50" gradientUnits="userSpaceOnUse"><stop offset="0" stop-color="#ffcf54"/><stop offset=".261" stop-color="#fdcb4d"/><stop offset=".639" stop-color="#f7c13a"/><stop offset="1" stop-color="#f0b421"/></linearGradient><linearGradient id="GNl7C_gdb9tvv4VRQu~7Jb" x1="29.072" x2="37.269" y1="162.669" y2="179.998" data-name="Безымянный градиент 71" gradientTransform="translate(0 -138)" gradientUnits="userSpaceOnUse"><stop offset="0" stop-color="#c965eb"/><stop offset="1" stop-color="#c767e5"/></linearGradient><linearGradient id="GNl7C_gdb9tvv4VRQu~7Jc" x1="23" x2="41" y1="25" y2="25" data-name="Безымянный градиент 72" gradientUnits="userSpaceOnUse"><stop offset="0" stop-color="#ac4ad5"/><stop offset="1" stop-color="#ae4cd5"/></linearGradient></defs><path fill="url(#GNl7C_gdb9tvv4VRQu~7Ja)" d="M31,10.5A4.5,4.5,0,1,0,35.49775,6,4.49972,4.49972,0,0,0,31,10.5Z"/><path fill="#199be2" d="M15,38a1.99744,1.99744,0,1,1-2,1.99744A1.99947,1.99947,0,0,1,15,38Z"/><path fill="#35c1f1" d="M7,38a2,2,0,1,0,2,2A2.00073,2.00073,0,0,0,7,38Z"/><polygon fill="#199be2" points="13.015 40.254 11 20.5 16.513 22 17 39.997 13.015 40.254"/><path fill="#35c1f1" d="M9,27c-1.7207,0-.38965-2.8877-1.31885-4.48047a5.00042,5.00042,0,0,1,1.79932-6.83887l12-7a5.00047,5.00047,0,0,1,5.03906,8.63868L12,25.75A7.89542,7.89542,0,0,1,9,27Z"/><polygon fill="#35c1f1" points="4.997 39.812 7.009 19.685 13 22 8.927 40.545 4.997 39.812"/><polygon fill="#35c1f1" points="28.885 11.926 32 26 28 26 25 17 28.885 11.926"/><path fill="url(#GNl7C_gdb9tvv4VRQu~7Jb)" d="M40.06818,24.25,38.6109,40.2781A1.89334,1.89334,0,0,1,36.72534,42H27.27415a1.89332,1.89332,0,0,1-1.88556-1.722L23.93182,24.25Z"/><rect width="18" height="2" x="23" y="24" fill="url(#GNl7C_gdb9tvv4VRQu~7Jc)" rx="1"/></svg>