<svg xmlns="http://www.w3.org/2000/svg" viewBox="0 0 48 48"><linearGradient id="6LWkOa0QqkbU5iz9B6Wypa" x1="35" x2="35" y1="-283.31" y2="-269.248" gradientTransform="matrix(1 0 0 -1 0 -240)" gradientUnits="userSpaceOnUse"><stop offset="0" stop-color="#32bdef"/><stop offset="1" stop-color="#0c83bf"/></linearGradient><path fill="url(#6LWkOa0QqkbU5iz9B6Wypa)" d="M41.223,42.045l-3.04-1.427C37,40,36,39.074,36,37.732V24.5h-2v13.232 c0,1.342-1,2.268-2.183,2.887l-3.04,1.427C28.336,42.149,28,42.527,28,43c0,0.552,0.448,1,1,1h12c0.552,0,1-0.448,1-1 C42,42.527,41.664,42.149,41.223,42.045z"/><radialGradient id="6LWkOa0QqkbU5iz9B6Wypb" cx="35.014" cy="-254.265" r="12.148" gradientTransform="matrix(.9967 0 0 -1 .103 -240)" gradientUnits="userSpaceOnUse"><stop offset="0" stop-color="#32bdef"/><stop offset="1" stop-color="#1ea2e4"/></radialGradient><path fill="url(#6LWkOa0QqkbU5iz9B6Wypb)" d="M42.976,5.568C42.907,5.236,42.616,5,42.278,5H27.722c-0.339,0-0.629,0.236-0.699,0.568 c-0.308,1.476-1.138,5.538-1.634,8.749h19.221C44.114,11.105,43.284,7.043,42.976,5.568z"/><radialGradient id="6LWkOa0QqkbU5iz9B6Wypc" cx="35.083" cy="-254.372" r="12.987" gradientTransform="matrix(.9967 0 0 -1 .103 -240)" gradientUnits="userSpaceOnUse"><stop offset="0" stop-color="#de3a4d"/><stop offset=".185" stop-color="#d8374a"/><stop offset=".435" stop-color="#c73041"/><stop offset=".722" stop-color="#aa2333"/><stop offset="1" stop-color="#881421"/></radialGradient><path fill="url(#6LWkOa0QqkbU5iz9B6Wypc)" d="M35,26.5c5.523,0,10-3.851,10-8.6c0-0.78-0.159-2.09-0.39-3.583H25.39 C25.159,15.81,25,17.12,25,17.9C25,22.649,29.477,26.5,35,26.5z"/><linearGradient id="6LWkOa0QqkbU5iz9B6Wypd" x1="19.173" x2="19.173" y1="27.726" y2="59.659" gradientUnits="userSpaceOnUse"><stop offset="0" stop-color="#fed100"/><stop offset=".392" stop-color="#f4b400"/><stop offset="1" stop-color="#e38101"/></linearGradient><path fill="url(#6LWkOa0QqkbU5iz9B6Wypd)" d="M32.35,44H5V23h17.39c0.38,0,0.72,0.21,0.89,0.54l9.95,19C33.58,43.2,33.1,44,32.35,44z"/><linearGradient id="6LWkOa0QqkbU5iz9B6Wype" x1=".339" x2="13.409" y1="33.5" y2="33.5" gradientUnits="userSpaceOnUse"><stop offset="0" stop-color="#fed100"/><stop offset=".101" stop-color="#fbc900"/><stop offset="1" stop-color="#e38101"/></linearGradient><path fill="url(#6LWkOa0QqkbU5iz9B6Wype)" d="M14.5,44H5V23h0.09c1.08,1.98,7.97,15.11,10.29,19.54C15.73,43.21,15.25,44,14.5,44z"/><linearGradient id="6LWkOa0QqkbU5iz9B6Wypf" x1="-2.549" x2="13.011" y1="33.5" y2="33.5" gradientUnits="userSpaceOnUse"><stop offset="0" stop-color="#fed100"/><stop offset=".101" stop-color="#fbc900"/><stop offset="1" stop-color="#e38101"/></linearGradient><path fill="url(#6LWkOa0QqkbU5iz9B6Wypf)" d="M15.38,42.54C13.06,38.11,6.17,24.98,5.09,23H5c-0.552,0-2,5.201-2,11c0,5.799,1.448,10,2,10	h9.5C15.25,44,15.73,43.21,15.38,42.54z"/><g><radialGradient id="6LWkOa0QqkbU5iz9B6Wypg" cx="26.943" cy="-284.156" r="2.693" gradientTransform="matrix(.9625 0 0 -.9625 -6.9 -236.062)" gradientUnits="userSpaceOnUse"><stop offset=".313" stop-color="#c2620e" stop-opacity="0"/><stop offset="1" stop-color="#c2620e"/></radialGradient><path fill="url(#6LWkOa0QqkbU5iz9B6Wypg)" d="M18.5,35c-0.828,0-1.5,0.672-1.5,1.5s0.672,1.5,1.5,1.5s1.5-0.672,1.5-1.5S19.328,35,18.5,35 z"/><radialGradient id="6LWkOa0QqkbU5iz9B6Wyph" cx="21.748" cy="-273.766" r="2.693" gradientTransform="matrix(.9625 0 0 -.9625 -6.9 -236.062)" gradientUnits="userSpaceOnUse"><stop offset=".313" stop-color="#c2620e" stop-opacity="0"/><stop offset="1" stop-color="#c2620e"/></radialGradient><path fill="url(#6LWkOa0QqkbU5iz9B6Wyph)" d="M13.5,25c-0.828,0-1.5,0.672-1.5,1.5s0.672,1.5,1.5,1.5s1.5-0.672,1.5-1.5S14.328,25,13.5,25 z"/><radialGradient id="6LWkOa0QqkbU5iz9B6Wypi" cx="31.803" cy="-279.805" r="3.591" gradientTransform="matrix(.9625 0 0 -.9625 -6.9 -236.062)" gradientUnits="userSpaceOnUse"><stop offset=".313" stop-color="#c2620e" stop-opacity="0"/><stop offset="1" stop-color="#c2620e"/></radialGradient><path fill="url(#6LWkOa0QqkbU5iz9B6Wypi)" d="M23,30c-1.105,0-2,0.895-2,2c0,1.105,0.895,2,2,2s2-0.895,2-2C25,30.895,24.105,30,23,30z"/><radialGradient id="6LWkOa0QqkbU5iz9B6Wypj" cx="33.512" cy="-287.467" r="1.795" gradientTransform="matrix(.9625 0 0 -.9625 -6.9 -236.062)" gradientUnits="userSpaceOnUse"><stop offset=".313" stop-color="#c2620e" stop-opacity="0"/><stop offset="1" stop-color="#c2620e"/></radialGradient><path fill="url(#6LWkOa0QqkbU5iz9B6Wypj)" d="M25,39c-0.552,0-1,0.448-1,1s0.448,1,1,1s1-0.448,1-1S25.552,39,25,39z"/></g></svg>