<svg xmlns="http://www.w3.org/2000/svg" viewBox="0 0 48 48"><rect width="36" height="2" x="6" y="23" fill="#64717c" transform="rotate(-30 23.999 24)"/><rect width="36" height="2" x="6" y="23" fill="#64717c" transform="rotate(-150 24 24)"/><rect width="36" height="2" x="6" y="23" fill="#64717c" transform="rotate(90 24 24)"/><linearGradient id="EMBlygMqx8uBoSdeEpRKVa" x1="22.011" x2="26.212" y1="4.011" y2="8.213" gradientUnits="userSpaceOnUse"><stop offset="0" stop-color="#33bef0"/><stop offset="1" stop-color="#0a85d9"/></linearGradient><circle cx="24" cy="6" r="3" fill="url(#EMBlygMqx8uBoSdeEpRKVa)"/><linearGradient id="EMBlygMqx8uBoSdeEpRKVb" x1="6.011" x2="10.213" y1="13.011" y2="17.212" gradientUnits="userSpaceOnUse"><stop offset="0" stop-color="#33bef0"/><stop offset="1" stop-color="#0a85d9"/></linearGradient><circle cx="8" cy="15" r="3" fill="url(#EMBlygMqx8uBoSdeEpRKVb)"/><linearGradient id="EMBlygMqx8uBoSdeEpRKVc" x1="6.011" x2="10.213" y1="31.011" y2="35.212" gradientUnits="userSpaceOnUse"><stop offset="0" stop-color="#33bef0"/><stop offset="1" stop-color="#0a85d9"/></linearGradient><circle cx="8" cy="33" r="3" fill="url(#EMBlygMqx8uBoSdeEpRKVc)"/><linearGradient id="EMBlygMqx8uBoSdeEpRKVd" x1="38.011" x2="42.212" y1="13.011" y2="17.212" gradientUnits="userSpaceOnUse"><stop offset="0" stop-color="#33bef0"/><stop offset="1" stop-color="#0a85d9"/></linearGradient><circle cx="40" cy="15" r="3" fill="url(#EMBlygMqx8uBoSdeEpRKVd)"/><linearGradient id="EMBlygMqx8uBoSdeEpRKVe" x1="38.011" x2="42.212" y1="31.011" y2="35.212" gradientUnits="userSpaceOnUse"><stop offset="0" stop-color="#33bef0"/><stop offset="1" stop-color="#0a85d9"/></linearGradient><circle cx="40" cy="33" r="3" fill="url(#EMBlygMqx8uBoSdeEpRKVe)"/><linearGradient id="EMBlygMqx8uBoSdeEpRKVf" x1="22.011" x2="26.212" y1="40.011" y2="44.212" gradientUnits="userSpaceOnUse"><stop offset="0" stop-color="#33bef0"/><stop offset="1" stop-color="#0a85d9"/></linearGradient><circle cx="24" cy="42" r="3" fill="url(#EMBlygMqx8uBoSdeEpRKVf)"/><radialGradient id="EMBlygMqx8uBoSdeEpRKVg" cx="16.947" cy="15.416" r="22.172" gradientUnits="userSpaceOnUse"><stop offset="0" stop-color="#0370c8"/><stop offset=".484" stop-color="#036fc5"/><stop offset=".775" stop-color="#036abd"/><stop offset="1" stop-color="#0362b0"/></radialGradient><path fill="url(#EMBlygMqx8uBoSdeEpRKVg)" d="M35,24c0,6.075-4.925,11-11,11s-11-4.925-11-11s4.925-11,11-11S35,17.925,35,24z"/><radialGradient id="EMBlygMqx8uBoSdeEpRKVh" cx="24" cy="35.059" r="8.877" gradientUnits="userSpaceOnUse"><stop offset="0"/><stop offset="1" stop-opacity="0"/></radialGradient><path fill="url(#EMBlygMqx8uBoSdeEpRKVh)" d="M24,35c3.187,0,6.049-1.364,8.058-3.53C30.697,28.369,27.604,26.2,24,26.2	s-6.697,2.169-8.058,5.27C17.951,33.636,20.813,35,24,35z"/><radialGradient id="EMBlygMqx8uBoSdeEpRKVi" cx="24" cy="21.225" r="5.225" gradientTransform="translate(1.034 .689) scale(.9569)" gradientUnits="userSpaceOnUse"><stop offset="0"/><stop offset="1" stop-opacity="0"/></radialGradient><circle cx="24" cy="21" r="5" fill="url(#EMBlygMqx8uBoSdeEpRKVi)"/><linearGradient id="EMBlygMqx8uBoSdeEpRKVj" x1="21.286" x2="26.867" y1="18.286" y2="23.867" gradientUnits="userSpaceOnUse"><stop offset="0" stop-color="#75daff"/><stop offset="1" stop-color="#1ea2e4"/></linearGradient><circle cx="24" cy="21" r="4" fill="url(#EMBlygMqx8uBoSdeEpRKVj)"/><linearGradient id="EMBlygMqx8uBoSdeEpRKVk" x1="20.154" x2="27.788" y1="27.965" y2="35.6" gradientUnits="userSpaceOnUse"><stop offset="0" stop-color="#75daff"/><stop offset="1" stop-color="#1ea2e4"/></linearGradient><path fill="url(#EMBlygMqx8uBoSdeEpRKVk)" d="M24,35c2.758,0,5.273-1.023,7.204-2.7c-1.095-2.919-3.903-5-7.204-5s-6.109,2.081-7.204,5	C18.727,33.977,21.242,35,24,35z"/></svg>