<svg xmlns="http://www.w3.org/2000/svg" viewBox="0 0 48 48"><radialGradient id="tpS5gwBDl2bno9n1cXpZFa" cx="25.491" cy="23.95" r="19.234" gradientTransform="translate(-.022 -.01)" gradientUnits="userSpaceOnUse"><stop offset="0" stop-color="#ffcf54"/><stop offset=".261" stop-color="#fdcb4d"/><stop offset=".639" stop-color="#f7c13a"/><stop offset="1" stop-color="#f0b421"/></radialGradient><path fill="url(#tpS5gwBDl2bno9n1cXpZFa)" d="M31.015,39.36l2.6,0.497c2.901,0.597,5.599-1.505,5.796-4.406l0.594-6.501l2.899-1.203	c1-0.401,1.398-1.601,0.797-2.601l-3.706-6.196c-0.607-7.599-4.914-14.995-16.014-14.985c-11,0.011-16.993,7.416-16.985,16.016	c0.004,3.7,1.308,7.899,3.31,10.597c1.802,2.498,2.705,5.497,2.708,8.497l0.003,2.8c0.001,1.105,0.897,1.999,2.002,1.998l14-0.013	c1.105-0.001,1.999-0.897,1.998-2.002L31.015,39.36z"/><path fill="#ad3f16" d="M35.822,15.556c-0.715,0.092-1.449-0.243-1.833-0.906c-0.384-0.663-0.308-1.466,0.127-2.041	c-0.678-0.643-1.504-1.129-2.424-1.4c-0.278,0.667-0.935,1.136-1.702,1.137s-1.426-0.468-1.705-1.134	c-0.92,0.273-1.744,0.761-2.421,1.405c0.437,0.574,0.514,1.376,0.131,2.04c-0.383,0.664-1.116,1-1.831,0.91	c-0.107,0.45-0.17,0.917-0.169,1.4c0,0.483,0.064,0.95,0.172,1.399c0.715-0.092,1.449,0.243,1.833,0.906	c0.384,0.663,0.308,1.466-0.127,2.041c0.678,0.643,1.504,1.129,2.424,1.4c0.278-0.667,0.935-1.136,1.702-1.137	s1.426,0.467,1.705,1.134c0.92-0.273,1.744-0.761,2.421-1.405c-0.437-0.574-0.514-1.376-0.131-2.04c0.383-0.664,1.116-1,1.831-0.91	c0.107-0.45,0.17-0.917,0.169-1.4C35.993,16.473,35.93,16.006,35.822,15.556z M29.997,19.961c-1.657,0.002-3.001-1.34-3.003-2.997	c-0.002-1.657,1.34-3.001,2.997-3.003c1.657-0.002,3.001,1.34,3.003,2.997C32.995,18.615,31.653,19.959,29.997,19.961z"/><circle cx="29.994" cy="16.961" r="1.5" fill="#ad3f16"/><path fill="#ad3f16" d="M24.798,20.333c-0.835,0.107-1.691-0.283-2.138-1.058c-0.448-0.774-0.36-1.71,0.149-2.381	c-0.791-0.75-1.755-1.317-2.828-1.634c-0.324,0.778-1.091,1.326-1.986,1.327c-0.896,0.001-1.663-0.545-1.989-1.323	c-1.073,0.318-2.035,0.888-2.825,1.639c0.51,0.67,0.6,1.606,0.153,2.381c-0.446,0.775-1.302,1.167-2.136,1.062	c-0.125,0.525-0.198,1.07-0.198,1.633c0.001,0.563,0.075,1.108,0.201,1.632c0.835-0.107,1.691,0.283,2.138,1.058	c0.448,0.774,0.36,1.71-0.149,2.381c0.791,0.75,1.755,1.317,2.828,1.634c0.324-0.778,1.091-1.326,1.986-1.327	c0.896-0.001,1.663,0.545,1.989,1.323c1.073-0.318,2.035-0.888,2.825-1.639c-0.51-0.67-0.6-1.606-0.153-2.381	c0.446-0.775,1.302-1.167,2.136-1.062c0.125-0.525,0.198-1.07,0.198-1.633C24.998,21.403,24.924,20.858,24.798,20.333z M18.002,25.973c-2.209,0.002-4.002-1.787-4.004-3.996c-0.002-2.209,1.787-4.002,3.996-4.004s4.002,1.787,4.004,3.996	C22.001,24.178,20.211,25.97,18.002,25.973z"/><circle cx="17.999" cy="21.973" r="2" fill="#ad3f16"/></svg>