<svg xmlns="http://www.w3.org/2000/svg" xmlns:xlink="http://www.w3.org/1999/xlink" data-name="Слой 1" viewBox="0 0 48 48"><defs><linearGradient id="6xvrlbLgnYCnCCxAZHL2kb" x1="42.283" x2="22.024" y1="29.5" y2="29.5" data-name="Безымянный градиент 118" gradientUnits="userSpaceOnUse"><stop offset="0" stop-color="#32bdef"/><stop offset=".634" stop-color="#1ea2e4"/><stop offset=".976" stop-color="#2e7ad5"/></linearGradient><linearGradient id="6xvrlbLgnYCnCCxAZHL2ka" x1="25" x2="35" y1="13.5" y2="13.5" data-name="Безымянный градиент 69" gradientUnits="userSpaceOnUse"><stop offset="0" stop-color="#3079d6"/><stop offset="1" stop-color="#297cd2"/></linearGradient><linearGradient id="6xvrlbLgnYCnCCxAZHL2kc" x2="27" y1="36.5" y2="36.5" xlink:href="#6xvrlbLgnYCnCCxAZHL2ka"/><linearGradient id="6xvrlbLgnYCnCCxAZHL2kd" x1="33" x2="35" y1="36.5" y2="36.5" xlink:href="#6xvrlbLgnYCnCCxAZHL2ka"/><linearGradient id="6xvrlbLgnYCnCCxAZHL2ke" x1="28.293" x2="-2.818" y1="29.5" y2="29.5" data-name="Новый образец градиентной зал 3" gradientUnits="userSpaceOnUse"><stop offset="0" stop-color="#32bdef"/><stop offset="1" stop-color="#1ea2e4"/></linearGradient></defs><path fill="url(#6xvrlbLgnYCnCCxAZHL2kb)" d="M39,44H21a2,2,0,0,1-2-2V26a4,4,0,0,1,.48842-1.91541L25,15H35l5.51158,9.08459A4,4,0,0,1,41,26V42A2,2,0,0,1,39,44Z"/><path fill="url(#6xvrlbLgnYCnCCxAZHL2ka)" d="M30,5a5,5,0,0,0-5,5v4c0,4.41827,2.23859,8,5,8s5-3.58173,5-8V10A5,5,0,0,0,30,5Z"/><path fill="#005094" d="M30,7h0a3,3,0,0,1,3,3v3a3,3,0,0,1-3,3h0a3,3,0,0,1-3-3V10a3,3,0,0,1,3-3Z"/><path fill="url(#6xvrlbLgnYCnCCxAZHL2kc)" d="M26,29h0a1,1,0,0,1,1,1V44a0,0,0,0,1,0,0H25a0,0,0,0,1,0,0V30A1,1,0,0,1,26,29Z"/><path fill="url(#6xvrlbLgnYCnCCxAZHL2kd)" d="M34,29h0a1,1,0,0,1,1,1V44a0,0,0,0,1,0,0H33a0,0,0,0,1,0,0V30A1,1,0,0,1,34,29Z"/><path fill="url(#6xvrlbLgnYCnCCxAZHL2ke)" d="M26,44H8a2,2,0,0,1-2-2V26a4,4,0,0,1,.48842-1.91541L12,15H22l5.51158,9.08459A4,4,0,0,1,28,26V42A2,2,0,0,1,26,44Z"/><path fill="#199be2" d="M17,5a5,5,0,0,0-5,5v4c0,4.41827,2.23859,8,5,8s5-3.58173,5-8V10A5,5,0,0,0,17,5Z"/><path fill="#005094" d="M17,7h0a3,3,0,0,1,3,3v3a3,3,0,0,1-3,3h0a3,3,0,0,1-3-3V10a3,3,0,0,1,3-3Z"/><path fill="#199be2" d="M13,29h0a1,1,0,0,1,1,1V44a0,0,0,0,1,0,0H12a0,0,0,0,1,0,0V30A1,1,0,0,1,13,29Z"/><path fill="#199be2" d="M21,29h0a1,1,0,0,1,1,1V44a0,0,0,0,1,0,0H20a0,0,0,0,1,0,0V30A1,1,0,0,1,21,29Z"/><g><path d="M28.39,23.61,24.07,16.7l-.29.53-.28.52,4.01,6.33A4.02979,4.02979,0,0,1,28,26V42a2.00591,2.00591,0,0,1-2,2h2.23A2.98419,2.98419,0,0,0,29,42V26A4.99635,4.99635,0,0,0,28.39,23.61Z" opacity=".05"/><path d="M27.95,23.85l-4.17-6.62-.28.52,4.01,6.33A4.02979,4.02979,0,0,1,28,26V42a2.00591,2.00591,0,0,1-2,2h1.5a2.49068,2.49068,0,0,0,1-2V26A4.46459,4.46459,0,0,0,27.95,23.85Z" opacity=".07"/></g></svg>