<svg xmlns="http://www.w3.org/2000/svg" id="Layer_1" x="0" y="0" version="1.1" viewBox="0 0 48 48" xml:space="preserve"><path fill="#ccc" d="M34,23h2v22h-2V23z"/><path fill="#ccc" d="M29,43l2-9.1c0.1-1,0.9-1.9,2-1.9h4c1.1,0,1.9,0.8,2,1.9l2,8.9l0,0.2c0,1.1-0.9,2-2,2h-8C29.9,45,29,44.1,29,43	z M37,34.2l0-0.2h-4l-2,9h8L37,34.2z"/><linearGradient id="SVGID_1_" x1="32.5" x2="32.5" y1="2.936" y2="4.263" gradientUnits="userSpaceOnUse"><stop offset="0" stop-color="#f44f5a"/><stop offset=".443" stop-color="#ee3d4a"/><stop offset="1" stop-color="#e52030"/></linearGradient><path fill="url(#SVGID_1_)" d="M31,3h3c0.6,0,1,0.4,1,1v2h-5V4C30,3.4,30.4,3,31,3z"/><rect width="2" height="5" x="34" y="23" opacity=".05"/><rect width="2" height="4.5" x="34" y="23" opacity=".07"/><path fill="#50e6ff" d="M41.6,13H6v4.3c0,3.2,2.6,5.7,5.7,5.7H26c0.9,0,2.2,1.2,2.8,2.7c0.3,0.8,1.1,1.3,1.9,1.3h8.7c1,0,1.8-0.7,2-1.7	C42,20.9,41.9,14.1,41.6,13z"/><linearGradient id="SVGID_2_" x1="26" x2="41.597" y1="25" y2="25" gradientUnits="userSpaceOnUse"><stop offset="0" stop-color="#3079d6"/><stop offset="1" stop-color="#297cd2"/></linearGradient><path fill="url(#SVGID_2_)" d="M41.6,23H26c0.9,0,2.2,1.2,2.8,2.7c0.3,0.8,1.1,1.3,1.9,1.3h8.7c1,0,1.8-0.7,2-1.7C41.4,24.5,41.5,23.8,41.6,23	z"/><linearGradient id="SVGID_3_" x1="6" x2="41.606" y1="8.5" y2="8.5" gradientUnits="userSpaceOnUse"><stop offset="0" stop-color="#3079d6"/><stop offset="1" stop-color="#297cd2"/></linearGradient><path fill="url(#SVGID_3_)" d="M6,13h7.9v-0.1c-1.1-0.2-2-1.2-2-2.4c0-1.4,1.1-2.5,2.5-2.5H29c1.4,0,2.5,1.1,2.5,2.5S30.4,13,29,13h12.6	c-1.3-5.2-6-9-11.6-9h-15C8.9,4,6.4,7.7,6,13z"/><path fill="#2a7cd3" d="M41.8,15H37v2h4.8C41.8,16.3,41.8,15.6,41.8,15z"/><path fill="#2a7cd3" d="M41.8,19H37v2h4.7C41.8,20.3,41.8,19.7,41.8,19z"/></svg>