<svg xmlns="http://www.w3.org/2000/svg" xmlns:xlink="http://www.w3.org/1999/xlink" data-name="Слой 1" viewBox="0 0 48 48"><defs><linearGradient id="tRqF2vsLOoWYm0dL8dvzla" x1="6" x2="6" y1="43.913" y2="36.24" data-name="Безымянный градиент 19" gradientUnits="userSpaceOnUse"><stop offset="0" stop-color="#c26715"/><stop offset=".508" stop-color="#b85515"/><stop offset="1" stop-color="#ad3f16"/></linearGradient><linearGradient id="tRqF2vsLOoWYm0dL8dvzlb" x1="16" x2="16" y1="43.913" y2="36.24" xlink:href="#tRqF2vsLOoWYm0dL8dvzla"/><linearGradient id="tRqF2vsLOoWYm0dL8dvzlc" x1="33" x2="33" y1="1276.682" y2="1270.189" gradientTransform="translate(0 -1234)" xlink:href="#tRqF2vsLOoWYm0dL8dvzla"/><linearGradient id="tRqF2vsLOoWYm0dL8dvzld" x1="16.775" x2="39.631" y1="-12.274" y2="46.412" data-name="Безымянный градиент 112" gradientTransform="translate(-1)" gradientUnits="userSpaceOnUse"><stop offset="0" stop-color="#33c481"/><stop offset="1" stop-color="#21a366"/></linearGradient><linearGradient id="tRqF2vsLOoWYm0dL8dvzle" x1="11" x2="11" y1="33.576" y2="37.821" data-name="Безымянный градиент 10" gradientUnits="userSpaceOnUse"><stop offset="0" stop-color="#eba84b"/><stop offset=".252" stop-color="#e9a144"/><stop offset=".624" stop-color="#e28d31"/><stop offset="1" stop-color="#d97218"/></linearGradient></defs><path fill="url(#tRqF2vsLOoWYm0dL8dvzla)" d="M5,36H7a0,0,0,0,1,0,0v6.5a.5.5,0,0,1-.5.5h-1a.5.5,0,0,1-.5-.5V36A0,0,0,0,1,5,36Z"/><path fill="url(#tRqF2vsLOoWYm0dL8dvzlb)" d="M15,36h2a0,0,0,0,1,0,0v6.5a.5.5,0,0,1-.5.5h-1a.5.5,0,0,1-.5-.5V36A0,0,0,0,1,15,36Z"/><path fill="url(#tRqF2vsLOoWYm0dL8dvzlc)" d="M30,34h6v8a1.00036,1.00036,0,0,1-1,1H31a1.00036,1.00036,0,0,1-1-1Z"/><path fill="url(#tRqF2vsLOoWYm0dL8dvzld)" d="M44.25879,34.04742l-4.32825-8.09137a1.99356,1.99356,0,0,0,1.42133-2.88757L37.5697,15.79175a2.00313,2.00313,0,0,0,.914-2.68622L33.8833,3.78882a.98214.98214,0,0,0-1.7666,0l-4.6004,9.31671a2.00313,2.00313,0,0,0,.914,2.68622l-3.78217,7.27673a1.99356,1.99356,0,0,0,1.42133,2.88757l-4.32825,8.09137A1.99965,1.99965,0,0,0,23.47791,37H42.52209A1.99965,1.99965,0,0,0,44.25879,34.04742Z"/><rect width="16" height="2" x="3" y="35" fill="url(#tRqF2vsLOoWYm0dL8dvzle)" rx="1"/></svg>