<svg xmlns="http://www.w3.org/2000/svg" viewBox="0 0 48 48"><linearGradient id="d5THHyGijkgbdprIKAiUEa" x1="24" x2="24" y1="5.121" y2="41.039" gradientUnits="userSpaceOnUse"><stop offset="0" stop-color="#f44f5a"/><stop offset=".443" stop-color="#ee3d4a"/><stop offset="1" stop-color="#e52030"/></linearGradient><path fill="url(#d5THHyGijkgbdprIKAiUEa)" d="M42.342,13.699L25.789,5.422c-1.126-0.563-2.452-0.563-3.578,0L5.658,13.699	C4.642,14.207,4,15.246,4,16.382v22.146V39c0,1.105,0.895,2,2,2h36c1.105,0,2-0.895,2-2v-0.472V16.382	C44,15.246,43.358,14.207,42.342,13.699z"/><linearGradient id="d5THHyGijkgbdprIKAiUEb" x1="24" x2="24" y1="14.996" y2="17.669" gradientUnits="userSpaceOnUse"><stop offset="0" stop-color="#fede00"/><stop offset="1" stop-color="#ffd000"/></linearGradient><path fill="url(#d5THHyGijkgbdprIKAiUEb)" d="M25,17.667h-2V16c0-0.552,0.448-1,1-1h0c0.552,0,1,0.448,1,1V17.667z"/><path fill="#f5be00" d="M32,25c0-4.418-3.582-8-8-8s-8,3.582-8,8c0,0.208,0,6,0,6h16C32,31,32,25.208,32,25z"/><linearGradient id="d5THHyGijkgbdprIKAiUEc" x1="24" x2="24" y1="35.959" y2="33.929" gradientUnits="userSpaceOnUse"><stop offset=".486" stop-color="#fbc300"/><stop offset="1" stop-color="#dbaa00"/></linearGradient><path fill="url(#d5THHyGijkgbdprIKAiUEc)" d="M26,34c0,1.105-0.895,2-2,2s-2-0.895-2-2H26z"/><linearGradient id="d5THHyGijkgbdprIKAiUEd" x1="32.679" x2="37" y1="21.454" y2="21.454" gradientUnits="userSpaceOnUse"><stop offset="0" stop-color="#fede00"/><stop offset="1" stop-color="#ffd000"/></linearGradient><path fill="url(#d5THHyGijkgbdprIKAiUEd)" d="M36,26c-0.552,0-1-0.448-1-1c0-2.355-0.735-4.603-2.127-6.499	c-0.327-0.445-0.231-1.071,0.214-1.398c0.445-0.328,1.071-0.23,1.398,0.214C36.13,19.559,37,22.216,37,25C37,25.552,36.552,26,36,26	z"/><linearGradient id="d5THHyGijkgbdprIKAiUEe" x1="11" x2="15.321" y1="21.455" y2="21.455" gradientUnits="userSpaceOnUse"><stop offset="0" stop-color="#fede00"/><stop offset="1" stop-color="#ffd000"/></linearGradient><path fill="url(#d5THHyGijkgbdprIKAiUEe)" d="M12,26c-0.552,0-1-0.448-1-1c0-2.784,0.87-5.441,2.515-7.683	c0.327-0.444,0.953-0.542,1.398-0.214c0.445,0.327,0.541,0.953,0.214,1.398C13.735,20.397,13,22.645,13,25	C13,25.552,12.552,26,12,26z"/><linearGradient id="d5THHyGijkgbdprIKAiUEf" x1="24" x2="24" y1="30.995" y2="34.003" gradientUnits="userSpaceOnUse"><stop offset="0" stop-color="#fede00"/><stop offset="1" stop-color="#ffd000"/></linearGradient><path fill="url(#d5THHyGijkgbdprIKAiUEf)" d="M33.589,32.213L32,31H16l-1.589,1.213C14.168,32.396,14,32.672,14,33c0,0.552,0.448,1,1,1h18	c0.552,0,1-0.448,1-1C34,32.672,33.832,32.396,33.589,32.213z"/></svg>