<svg xmlns="http://www.w3.org/2000/svg" viewBox="0 0 48 48"><linearGradient id="b8zT~hax4mKhkErj~czfna" x1="8.663" x2="38.122" y1="-570.059" y2="-594.915" gradientTransform="matrix(1 0 0 -1 0 -562)" gradientUnits="userSpaceOnUse"><stop offset="0" stop-color="#a1aab3"/><stop offset="1" stop-color="#8f979e"/></linearGradient><path fill="url(#b8zT~hax4mKhkErj~czfna)" d="M41,35H7c-1.105,0-2-0.895-2-2V9c0-1.105,0.895-2,2-2h34c1.105,0,2,0.895,2,2v24	C43,34.105,42.105,35,41,35z"/><linearGradient id="b8zT~hax4mKhkErj~czfnb" x1="22.095" x2="25.904" y1="-571.102" y2="-594.892" gradientTransform="matrix(1 0 0 -1 0 -562)" gradientUnits="userSpaceOnUse"><stop offset="0" stop-color="#0d61a9"/><stop offset="1" stop-color="#16528c"/></linearGradient><rect width="34" height="24" x="7" y="9" fill="url(#b8zT~hax4mKhkErj~czfnb)"/><path fill="#121212" d="M35,21H13c-0.552,0-1,0.448-1,1l0,0c0,0.552,0.448,1,1,1h22c0.552,0,1-0.448,1-1l0,0	C36,21.448,35.552,21,35,21z"/><linearGradient id="b8zT~hax4mKhkErj~czfnc" x1="16.467" x2="31.744" y1="21.497" y2="6.22" gradientUnits="userSpaceOnUse"><stop offset="0" stop-color="#fede00"/><stop offset="1" stop-color="#ffd000"/></linearGradient><path fill="url(#b8zT~hax4mKhkErj~czfnc)" d="M32.485,21C34.056,19.098,35,16.659,35,14c0-6.075-4.925-11-11-11S13,7.925,13,14	c0,2.659,0.944,5.098,2.515,7H32.485z"/><path fill="#f5be00" d="M17.816,21h12.368c1.938-1.713,3.166-4.21,3.166-7c0-5.164-4.186-9.35-9.35-9.35	S14.65,8.836,14.65,14C14.65,16.79,15.878,19.287,17.816,21z"/><linearGradient id="b8zT~hax4mKhkErj~czfnd" x1="24" x2="24" y1="-596.992" y2="-601.008" gradientTransform="matrix(1 0 0 -1 0 -562)" gradientUnits="userSpaceOnUse"><stop offset="0" stop-color="#484b4f"/><stop offset=".23" stop-color="#656d75"/><stop offset=".367" stop-color="#727d86"/></linearGradient><rect width="8" height="4" x="20" y="35" fill="url(#b8zT~hax4mKhkErj~czfnd)"/><linearGradient id="b8zT~hax4mKhkErj~czfne" x1="24" x2="24" y1="-599.992" y2="-604.008" gradientTransform="matrix(1 0 0 -1 0 -562)" gradientUnits="userSpaceOnUse"><stop offset="0" stop-color="#a1aab3"/><stop offset="1" stop-color="#8f979e"/></linearGradient><path fill="url(#b8zT~hax4mKhkErj~czfne)" d="M33,38H15c-0.552,0-1,0.448-1,1v2c0,0.552,0.448,1,1,1h18c0.552,0,1-0.448,1-1v-2	C34,38.448,33.552,38,33,38z"/><path fill="#fee119" d="M26.887,15.844c0-2.828-4.174-2.275-4.174-3.946c0-0.872,0.981-0.918,1.287-0.918	c0.737,0,1.448,0.197,1.99,0.452c0.171,0.08,0.367-0.039,0.367-0.227v-0.823c0-0.276-0.104-0.439-0.27-0.504	c-0.372-0.144-0.905-0.25-1.695-0.276V8.696c0-0.109-0.088-0.196-0.196-0.196h-0.393c-0.109,0-0.196,0.088-0.196,0.196v0.92	c-1.225,0.119-2.495,0.81-2.495,2.418c0,2.931,4.174,2.35,4.174,3.893c0,0.485-0.31,0.903-1.287,0.903	c-0.982,0-1.885-0.343-2.384-0.598c-0.168-0.086-0.366,0.039-0.366,0.228v0.937c0,0.18,0.108,0.34,0.274,0.409	c0.592,0.251,1.386,0.442,2.084,0.497v1.001c0,0.109,0.088,0.196,0.196,0.196h0.393c0.109,0,0.196-0.088,0.196-0.196v-0.998	C26.225,18.153,26.887,16.926,26.887,15.844z"/><path fill="#e3a600" d="M15.515,21c0.629,0.762,1.363,1.431,2.173,2h12.625c0.81-0.569,1.544-1.238,2.173-2H15.515z"/><path fill="#c48c00" d="M21.493,23h5.013c1.382-0.384,2.632-1.076,3.677-2H17.816C18.861,21.924,20.111,22.616,21.493,23z"/></svg>