<svg xmlns="http://www.w3.org/2000/svg" viewBox="0 0 48 48"><path fill="#ccc" d="M35.287,22.613l-9.899-9.899l6.561-6.561c0.781-0.781,2.047-0.781,2.828,0l7.071,7.071 c0.781,0.781,0.781,2.047,0,2.828L35.287,22.613z"/><path fill="#666" d="M32.269,13.609l-1.414-1.414c-0.195-0.195-0.195-0.512,0-0.707l1.414-1.414 c0.195-0.195,0.512-0.195,0.707,0l1.414,1.414c0.195,0.195,0.195,0.512,0,0.707l-1.414,1.414 C32.781,13.805,32.465,13.805,32.269,13.609z"/><path fill="#666" d="M35.805,17.145l-1.414-1.414c-0.195-0.195-0.195-0.512,0-0.707l1.414-1.414 c0.195-0.195,0.512-0.195,0.707,0l1.414,1.414c0.195,0.195,0.195,0.512,0,0.707l-1.414,1.414C36.317,17.34,36,17.34,35.805,17.145z"/><linearGradient id="89EpWPl60pBkijPbyL7yDa" x1="35.272" x2="5.502" y1="12.266" y2="42.037" gradientTransform="translate(.342 .12)" gradientUnits="userSpaceOnUse"><stop offset="0" stop-color="#75daff"/><stop offset="1" stop-color="#1ea2e4"/></linearGradient><path fill="url(#89EpWPl60pBkijPbyL7yDa)" d="M8.495,39.505L8.495,39.505c-3.905-3.905-3.905-10.237,0-14.142l14.086-14.086 c0.422-0.422,1.105-0.422,1.527,0l12.615,12.615c0.422,0.422,0.422,1.105,0,1.527L22.638,39.505 C18.732,43.41,12.401,43.41,8.495,39.505z"/></svg>