<svg xmlns="http://www.w3.org/2000/svg" viewBox="0 0 48 48"><path fill="#35c1f1" d="M40,43H22V7h18c1.105,0,2,0.895,2,2v32C42,42.105,41.105,43,40,43z"/><path fill="#199be2" d="M14.447,3.224C14.306,3.153,14.153,3.118,14,3.118v36c0.153,0,0.306,0.035,0.447,0.106L22,43V7	L14.447,3.224z"/><path fill="#50e6ff" d="M13.553,3.224L7.106,6.447C6.428,6.786,6,7.479,6,8.236v33.146c0,0.743,0.782,1.227,1.447,0.894	l6.106-3.053c0.141-0.07,0.294-0.106,0.447-0.106v-36C13.847,3.118,13.694,3.153,13.553,3.224z"/><path fill="#199be2" d="M8.191,16.462l-0.382-0.924c-0.105-0.255,0.016-0.548,0.271-0.653l0.924-0.382 c0.255-0.105,0.548,0.016,0.653,0.271l0.382,0.924c0.105,0.255-0.016,0.548-0.271,0.653l-0.924,0.382 C8.589,16.839,8.296,16.717,8.191,16.462z"/><linearGradient id="~2qgGafh~TleKxskUr0mAa" x1="110.238" x2="112.239" y1="990.204" y2="990.204" gradientTransform="scale(1 -1) rotate(-45 -1165.466 579.028)" gradientUnits="userSpaceOnUse"><stop offset="0" stop-color="#ae4cd5"/><stop offset="1" stop-color="#ac4ad5"/></linearGradient><polygon fill="url(#~2qgGafh~TleKxskUr0mAa)" points="25.943,36.536 24.528,35.121 30.185,29.464 31.6,30.879"/><linearGradient id="~2qgGafh~TleKxskUr0mAb" x1="-1375.664" x2="-1373.662" y1="1772.751" y2="1772.751" gradientTransform="scale(-1 1) rotate(45 1398.67 2528.414)" gradientUnits="userSpaceOnUse"><stop offset="0" stop-color="#ae4cd5"/><stop offset="1" stop-color="#ac4ad5"/></linearGradient><polygon fill="url(#~2qgGafh~TleKxskUr0mAb)" points="24.528,30.879 25.943,29.464 31.6,35.121 30.185,36.536"/><path fill="#1a7ecf" d="M34.031,32.922l-0.357-0.933c-0.096-0.25,0.027-0.522,0.27-0.635	c0.738-0.343,1.417-0.817,1.996-1.393c0.19-0.189,0.488-0.211,0.69-0.034l0.751,0.658c0.214,0.187,0.237,0.522,0.037,0.725	c-0.781,0.795-1.708,1.441-2.72,1.899C34.439,33.325,34.132,33.187,34.031,32.922z"/><path fill="#1a7ecf" d="M39.254,26.952l-0.973-0.23c-0.262-0.062-0.417-0.317-0.374-0.582C37.969,25.764,38,25.383,38,25	c0.001-0.436-0.039-0.869-0.119-1.294c-0.049-0.263,0.1-0.52,0.359-0.588l0.967-0.251c0.275-0.072,0.566,0.098,0.621,0.378	c0.114,0.577,0.172,1.166,0.171,1.757c0,0.523-0.046,1.046-0.136,1.561C39.815,26.842,39.53,27.017,39.254,26.952z"/><path fill="#1a7ecf" d="M35.831,19.936c-0.594-0.566-1.285-1.026-2.033-1.354c-0.244-0.107-0.372-0.373-0.282-0.624	l0.338-0.944c0.096-0.268,0.399-0.412,0.661-0.301c1.022,0.435,1.963,1.061,2.762,1.838c0.204,0.198,0.188,0.534-0.021,0.726	l-0.739,0.677C36.32,20.134,36.025,20.12,35.831,19.936z"/><path fill="#1a7ecf" d="M30.354,18h-2.895c-0.276,0-0.5-0.224-0.5-0.5v-1c0-0.276,0.224-0.5,0.5-0.5h2.895	c0.276,0,0.5,0.224,0.5,0.5v1C30.854,17.776,30.63,18,30.354,18z"/><path fill="#1a7ecf" d="M22.564,18h-0.668c-0.069,0-0.136-0.014-0.199-0.041l-2.231-0.97	c-0.253-0.11-0.369-0.405-0.259-0.658l0.398-0.917c0.11-0.253,0.405-0.369,0.658-0.259L22.208,16h0.356c0.276,0,0.5,0.224,0.5,0.5v1	C23.064,17.776,22.841,18,22.564,18z"/><path fill="#235199" d="M22,15.91l-1.738-0.755c-0.253-0.11-0.548,0.006-0.658,0.259l-0.398,0.917	c-0.11,0.253,0.006,0.548,0.259,0.658l2.231,0.97C21.76,17.986,21.827,18,21.896,18H22V15.91z"/><path fill="#235199" d="M14.977,15.037l-0.792-0.345c-0.124-0.054-0.265-0.055-0.39-0.004l-0.799,0.33 c-0.255,0.105-0.548-0.016-0.653-0.271l-0.382-0.924c-0.105-0.255,0.016-0.548,0.271-0.653l1.582-0.653 c0.125-0.052,0.266-0.05,0.39,0.004l1.57,0.683c0.253,0.11,0.369,0.405,0.259,0.658l-0.398,0.917 C15.525,15.031,15.23,15.147,14.977,15.037z"/><path fill="#199be2" d="M14,12.481c-0.063,0.001-0.127,0.011-0.186,0.036l-1.582,0.653c-0.255,0.105-0.377,0.398-0.271,0.653	l0.382,0.924c0.105,0.255,0.398,0.377,0.653,0.271l0.799-0.33c0.066-0.027,0.136-0.038,0.206-0.036V12.481z"/></svg>