<svg xmlns="http://www.w3.org/2000/svg" viewBox="0 0 48 48"><linearGradient id="ytP12JyQGA~LmX13lYq6Ia" x1="4" x2="44" y1="24" y2="24" gradientUnits="userSpaceOnUse"><stop offset="0" stop-color="#32bdef"/><stop offset="1" stop-color="#1ea2e4"/></linearGradient><path fill="url(#ytP12JyQGA~LmX13lYq6Ia)" d="M42,7H6C4.895,7,4,7.895,4,9v30c0,1.105,0.895,2,2,2h36c1.105,0,2-0.895,2-2V9	C44,7.895,43.105,7,42,7z"/><path fill="#f0f0f0" d="M37,9H11c0,2.761-2.239,5-5,5v20c2.761,0,5,2.239,5,5h26c0-2.761,2.239-5,5-5V14	C39.239,14,37,11.761,37,9z M32,23H16c-0.552,0-1-0.448-1-1s0.448-1,1-1h16c0.552,0,1,0.448,1,1S32.552,23,32,23z M33,19H15	c-1.105,0-2-0.895-2-2c0-1.105,0.895-2,2-2h18c1.105,0,2,0.895,2,2C35,18.105,34.105,19,33,19z"/><linearGradient id="ytP12JyQGA~LmX13lYq6Ib" x1="24" x2="24" y1="537.567" y2="527.952" gradientTransform="matrix(1 0 0 -1 0 572)" gradientUnits="userSpaceOnUse"><stop offset="0" stop-color="#8c20e5"/><stop offset=".427" stop-color="#9e32eb"/><stop offset="1" stop-color="#bd4ff4"/></linearGradient><path fill="url(#ytP12JyQGA~LmX13lYq6Ib)" d="M26.223,43.916L24,42.433l-2.223,1.482C21.445,44.138,21,43.899,21,43.5v-9.066h6V43.5	C27,43.899,26.555,44.138,26.223,43.916z"/><linearGradient id="ytP12JyQGA~LmX13lYq6Ic" x1="21.458" x2="26.522" y1="543.417" y2="534.616" gradientTransform="matrix(1 0 0 -1 0 572)" gradientUnits="userSpaceOnUse"><stop offset="0" stop-color="#ffda1c"/><stop offset="1" stop-color="#feb705"/></linearGradient><path fill="url(#ytP12JyQGA~LmX13lYq6Ic)" d="M28.733,32.527l-0.35-0.21c-0.149-0.09-0.25-0.237-0.295-0.404	c-0.001-0.003-0.002-0.006-0.003-0.009c-0.047-0.169-0.033-0.349,0.053-0.502l0.198-0.357c0.203-0.365-0.057-0.814-0.474-0.821	l-0.412-0.007c-0.175-0.003-0.336-0.081-0.459-0.204c-0.001-0.002-0.002-0.003-0.004-0.004c-0.124-0.123-0.201-0.285-0.204-0.459	l-0.007-0.412c-0.007-0.417-0.456-0.676-0.821-0.474l-0.354,0.2c-0.154,0.085-0.333,0.099-0.502,0.053	c-0.003-0.001-0.006-0.002-0.01-0.003c-0.168-0.046-0.315-0.146-0.404-0.295l-0.21-0.35c-0.215-0.358-0.733-0.358-0.948,0	l-0.209,0.348c-0.09,0.15-0.239,0.252-0.407,0.298c-0.002,0.001-0.003,0.001-0.005,0.002c-0.171,0.047-0.352,0.033-0.506-0.053	l-0.355-0.197c-0.365-0.203-0.814,0.057-0.821,0.474l-0.008,0.411c-0.003,0.174-0.081,0.336-0.204,0.459	c-0.002,0.001-0.003,0.003-0.004,0.004c-0.123,0.124-0.285,0.201-0.459,0.204l-0.412,0.007c-0.417,0.007-0.676,0.456-0.474,0.821	l0.198,0.357c0.085,0.154,0.099,0.333,0.053,0.502c-0.001,0.003-0.002,0.007-0.003,0.009c-0.046,0.168-0.147,0.315-0.295,0.404	l-0.35,0.21c-0.358,0.215-0.358,0.733,0,0.948l0.35,0.21c0.149,0.09,0.25,0.237,0.295,0.404c0.001,0.003,0.002,0.006,0.003,0.009	c0.047,0.169,0.033,0.349-0.053,0.502l-0.198,0.357c-0.203,0.365,0.057,0.814,0.474,0.821l0.412,0.007	c0.175,0.003,0.336,0.081,0.459,0.204c0.001,0.001,0.002,0.002,0.004,0.004c0.124,0.123,0.201,0.285,0.204,0.459l0.007,0.412	c0.007,0.417,0.456,0.676,0.821,0.474l0.357-0.198c0.154-0.085,0.333-0.099,0.502-0.053c0.003,0.001,0.007,0.001,0.01,0.002	c0.168,0.046,0.315,0.146,0.404,0.295l0.21,0.35c0.215,0.358,0.733,0.358,0.948,0l0.21-0.35c0.09-0.149,0.237-0.25,0.404-0.295	c0.003-0.001,0.007-0.001,0.01-0.002c0.169-0.047,0.349-0.033,0.502,0.053l0.357,0.198c0.365,0.203,0.814-0.057,0.821-0.474	l0.007-0.412c0.003-0.175,0.081-0.336,0.204-0.459c0.002-0.001,0.003-0.002,0.004-0.004c0.123-0.124,0.285-0.201,0.459-0.204	l0.412-0.007c0.417-0.007,0.676-0.456,0.474-0.821l-0.198-0.357c-0.085-0.154-0.099-0.333-0.053-0.502	c0.001-0.003,0.001-0.006,0.002-0.009c0.046-0.168,0.146-0.315,0.295-0.404l0.35-0.21C29.091,33.259,29.091,32.742,28.733,32.527z"/></svg>