<svg xmlns="http://www.w3.org/2000/svg" data-name="Слой 1" viewBox="0 0 48 48"><defs><linearGradient id="R94Bxi8uuQZtHvMNMlG1Ga" x1="11.804" x2="29.608" y1="-22.237" y2="45.263" data-name="Безымянный градиент 199" gradientUnits="userSpaceOnUse"><stop offset="0" stop-color="#6d6d6d"/><stop offset=".126" stop-color="#626262"/><stop offset=".987" stop-color="#464646"/><stop offset=".998" stop-color="#454545"/></linearGradient></defs><rect width="36" height="36" x="6" y="6" fill="url(#R94Bxi8uuQZtHvMNMlG1Ga)" rx="2"/><path fill="#f7c13a" d="M22,27v1.5a.5.5,0,0,1-.5.5H17a8,8,0,0,1-8-8V19.5a.5.5,0,0,1,.5-.5h4.00612a.501.501,0,0,1,.49758.49688C14.05815,23.13441,14.70582,26,15.5,26c.73344,0,1.33761-2.43083,1.46835-5.65979a.50624.50624,0,0,1,.74437-.42711A7.99072,7.99072,0,0,1,22,27Z"/><path fill="#f7c13a" d="M39,19.5V21a8,8,0,0,1-8,8H26.5a.5.5,0,0,1-.5-.5V27a7.99072,7.99072,0,0,1,4.28728-7.0869.50624.50624,0,0,1,.74437.42711C31.16239,23.56917,31.76656,26,32.5,26c.79418,0,1.44185-2.86559,1.4963-6.50312A.501.501,0,0,1,34.49388,19H38.5A.5.5,0,0,1,39,19.5Z"/></svg>