<svg xmlns="http://www.w3.org/2000/svg" data-name="Слой 1" viewBox="0 0 48 48"><defs><linearGradient id="2GBzOcJLqqPrhwJ3d~GUWa" x1="24" x2="24" y1="-718.042" y2="-729.755" data-name="Безымянный градиент 52" gradientTransform="matrix(1 0 0 -1 0 -704)" gradientUnits="userSpaceOnUse"><stop offset="0" stop-color="#d43a02"/><stop offset="1" stop-color="#b9360c"/></linearGradient><linearGradient id="2GBzOcJLqqPrhwJ3d~GUWb" x1="24" x2="24" y1="-5200.902" y2="-5220.988" data-name="Безымянный градиент 12" gradientTransform="matrix(1 0 0 -1 0 -5178)" gradientUnits="userSpaceOnUse"><stop offset="0" stop-color="#2aa4f4"/><stop offset="1" stop-color="#007ad9"/></linearGradient></defs><path fill="#25a2e5" d="M25.5,11h-3V6.5A1.50055,1.50055,0,0,1,24,5h0a1.50055,1.50055,0,0,1,1.5,1.5Z"/><path fill="#35c1f1" d="M32,17H16V10.6A1.60058,1.60058,0,0,1,17.6,9H30.4A1.60058,1.60058,0,0,1,32,10.6Z"/><path fill="url(#2GBzOcJLqqPrhwJ3d~GUWa)" d="M31.5,26h-15A11.25,11.25,0,0,1,12,17l12-3,12,3A11.25,11.25,0,0,1,31.5,26Z"/><path fill="url(#2GBzOcJLqqPrhwJ3d~GUWb)" d="M42,24a5.60654,5.60654,0,0,1-3-1,5.60654,5.60654,0,0,1-3,1,5.60654,5.60654,0,0,1-3-1,5.60654,5.60654,0,0,1-3,1,5.60654,5.60654,0,0,1-3-1,5.60654,5.60654,0,0,1-3,1,5.60654,5.60654,0,0,1-3-1,5.60654,5.60654,0,0,1-3,1,5.60654,5.60654,0,0,1-3-1,5.60654,5.60654,0,0,1-3,1,5.60654,5.60654,0,0,1-3-1,5.60654,5.60654,0,0,1-3,1,5.60654,5.60654,0,0,1-3-1V41a1.99945,1.99945,0,0,0,2,2H43a1.99945,1.99945,0,0,0,2-2V23A5.60654,5.60654,0,0,1,42,24Z"/><g><path d="M25,28.02472a1,1,0,0,1,1,1.00018l-.01575,5.00189h2.84613a.54266.54266,0,0,1,.38373.9264L24.71246,39.4549a1.0076,1.0076,0,0,1-1.42492,0l-4.50165-4.50171a.54266.54266,0,0,1,.38373-.9264h2.81463l.0149-5.00207a1,1,0,0,1,1-1H25m0-1H22.99915a2.00229,2.00229,0,0,0-2,2l-.01191,4.00207H19.16962a1.54265,1.54265,0,0,0-1.09082,2.63349L22.58044,40.162a2.00754,2.00754,0,0,0,2.83912,0l4.50164-4.50171a1.54265,1.54265,0,0,0-1.09082-2.63349h-1.843L27,29.02808a1.9999,1.9999,0,0,0-2-2.00336Z" opacity=".05"/><path d="M25,28.02472a1,1,0,0,1,1,1.00018l-.01575,5.00189h2.84613a.54266.54266,0,0,1,.38373.9264L24.71246,39.4549a1.0076,1.0076,0,0,1-1.42492,0l-4.50165-4.50171a.54266.54266,0,0,1,.38373-.9264h2.81463l.0149-5.00207a1,1,0,0,1,1-1H25m0-.5H22.99915a1.50172,1.50172,0,0,0-1.5,1.5l-.01343,4.50207h-2.3161a1.04268,1.04268,0,0,0-.73731,1.78L22.934,39.80847a1.50763,1.50763,0,0,0,2.13208-.00006l4.50165-4.50165a1.04268,1.04268,0,0,0-.73731-1.78H26.48584L26.5,29.02649A1.5,1.5,0,0,0,25,27.52472Z" opacity=".07"/><path fill="#fff" d="M28.8304,34.0268H25.98428L26,29.0249a1,1,0,0,0-1-1.00017H22.99915a1,1,0,0,0-1,1l-.01487,5.00207H19.1696a.54267.54267,0,0,0-.38373.9264l4.50169,4.5017a1.00754,1.00754,0,0,0,1.42488,0l4.50169-4.5017A.54267.54267,0,0,0,28.8304,34.0268Z"/></g></svg>