<svg xmlns="http://www.w3.org/2000/svg" viewBox="0 0 48 48"><linearGradient id="vIfZ1zCpA~~fbpw5zBnKha" x1="-12.522" x2="26.001" y1="2.892" y2="41.415" gradientUnits="userSpaceOnUse"><stop offset="0" stop-color="#9332bf"/><stop offset="1" stop-color="#912fbd"/></linearGradient><path fill="url(#vIfZ1zCpA~~fbpw5zBnKha)" d="M7,7h4v34H7c-1.105,0-2-0.895-2-2V9C5,7.895,5.895,7,7,7z"/><linearGradient id="vIfZ1zCpA~~fbpw5zBnKhb" x1="-4.108" x2="34.415" y1="-5.522" y2="33.001" gradientUnits="userSpaceOnUse"><stop offset="0" stop-color="#8521b0"/><stop offset="1" stop-color="#64129a"/></linearGradient><path fill="url(#vIfZ1zCpA~~fbpw5zBnKhb)" d="M9,7h32c1.105,0,2,0.895,2,2v30c0,1.105-0.895,2-2,2H9V7z"/><path d="M26,11c7.176,0,13,5.824,13,13c0,7.176-5.824,13-13,13s-13-5.824-13-13C13,16.824,18.824,11,26,11 M26,25.5 c0.825,0,1.5-0.675,1.5-1.5c0-0.825-0.675-1.5-1.5-1.5s-1.5,0.675-1.5,1.5C24.5,24.825,25.175,25.5,26,25.5 M26,10 c-7.72,0-14,6.28-14,14s6.28,14,14,14s14-6.28,14-14S33.72,10,26,10L26,10z M26,24.5c-0.271,0-0.5-0.229-0.5-0.5 s0.229-0.5,0.5-0.5s0.5,0.229,0.5,0.5S26.271,24.5,26,24.5L26,24.5z" opacity=".05"/><path d="M26,11c7.176,0,13,5.824,13,13c0,7.176-5.824,13-13,13s-13-5.824-13-13C13,16.824,18.824,11,26,11 M26,25.5 c0.825,0,1.5-0.675,1.5-1.5c0-0.825-0.675-1.5-1.5-1.5s-1.5,0.675-1.5,1.5C24.5,24.825,25.175,25.5,26,25.5 M26,10.5 c-7.444,0-13.5,6.056-13.5,13.5S18.556,37.5,26,37.5S39.5,31.444,39.5,24S33.444,10.5,26,10.5L26,10.5z M26,25 c-0.551,0-1-0.449-1-1s0.449-1,1-1s1,0.449,1,1S26.551,25,26,25L26,25z" opacity=".07"/><linearGradient id="vIfZ1zCpA~~fbpw5zBnKhc" x1="13.402" x2="39.289" y1="11.402" y2="37.289" gradientUnits="userSpaceOnUse"><stop offset="0" stop-color="#c866e8"/><stop offset="1" stop-color="#ac4ad5"/></linearGradient><path fill="url(#vIfZ1zCpA~~fbpw5zBnKhc)" d="M26,11c-7.176,0-13,5.824-13,13c0,7.176,5.824,13,13,13s13-5.824,13-13 C39,16.824,33.176,11,26,11z M26,25.5c-0.825,0-1.5-0.675-1.5-1.5c0-0.825,0.675-1.5,1.5-1.5s1.5,0.675,1.5,1.5 C27.5,24.825,26.825,25.5,26,25.5z"/><linearGradient id="vIfZ1zCpA~~fbpw5zBnKhd" x1="21.986" x2="29.812" y1="19.986" y2="27.812" gradientUnits="userSpaceOnUse"><stop offset="0" stop-color="#9332bf"/><stop offset="1" stop-color="#912fbd"/></linearGradient><path fill="url(#vIfZ1zCpA~~fbpw5zBnKhd)" d="M26,20c-2.207,0-4,1.793-4,4s1.793,4,4,4s4-1.793,4-4S28.207,20,26,20z M26,25.5	c-0.825,0-1.5-0.675-1.5-1.5c0-0.825,0.675-1.5,1.5-1.5s1.5,0.675,1.5,1.5C27.5,24.825,26.825,25.5,26,25.5z"/><linearGradient id="vIfZ1zCpA~~fbpw5zBnKhe" x1="28" x2="48" y1="-626" y2="-626" gradientTransform="matrix(1 0 0 -1 0 -588)" gradientUnits="userSpaceOnUse"><stop offset="0" stop-color="#21ad64"/><stop offset="1" stop-color="#088242"/></linearGradient><circle cx="38" cy="38" r="10" fill="url(#vIfZ1zCpA~~fbpw5zBnKhe)"/><path fill="#fff" d="M38.5,43h-1c-0.276,0-0.5-0.224-0.5-0.5v-9c0-0.276,0.224-0.5,0.5-0.5h1c0.276,0,0.5,0.224,0.5,0.5v9	C39,42.776,38.776,43,38.5,43z"/><path fill="#fff" d="M33,38.5v-1c0-0.276,0.224-0.5,0.5-0.5h9c0.276,0,0.5,0.224,0.5,0.5v1c0,0.276-0.224,0.5-0.5,0.5h-9	C33.224,39,33,38.776,33,38.5z"/></svg>