<svg xmlns="http://www.w3.org/2000/svg" viewBox="0 0 48 48"><path fill="#ccc" d="M5,19h38v19H5V19z"/><path fill="#999" d="M5,38h38v2c0,1.105-0.895,2-2,2H7c-1.105,0-2-0.895-2-2V38z"/><linearGradient id="bOiyIPMOHf12GulfrOmMba" x1="27" x2="38" y1="-457.5" y2="-457.5" gradientTransform="matrix(1 0 0 -1 0 -426)" gradientUnits="userSpaceOnUse"><stop offset="0" stop-color="#3079d6"/><stop offset="1" stop-color="#297cd2"/></linearGradient><path fill="url(#bOiyIPMOHf12GulfrOmMba)" d="M27,25h11v13H27V25z"/><linearGradient id="bOiyIPMOHf12GulfrOmMbb" x1="10" x2="22" y1="-455.5" y2="-455.5" gradientTransform="matrix(1 0 0 -1 0 -426)" gradientUnits="userSpaceOnUse"><stop offset="0" stop-color="#3079d6"/><stop offset="1" stop-color="#297cd2"/></linearGradient><path fill="url(#bOiyIPMOHf12GulfrOmMbb)" d="M10,25h12v9H10V25z"/><path fill="#bf2336" d="M41,6H7C5.9,6,5,6.9,5,8v2h38V8C43,6.9,42.1,6,41,6z"/><path fill="#bf2336" d="M42,16H6l-3,3v1c0,1.105,0.895,2,2,2h38c1.105,0,2-0.895,2-2v-1L42,16z"/><polygon fill="#c94f60" points="43,10 5,10 3,19 45,19"/><linearGradient id="bOiyIPMOHf12GulfrOmMbc" x1="27" x2="38" y1="-466" y2="-466" gradientTransform="matrix(1 0 0 -1 0 -426)" gradientUnits="userSpaceOnUse"><stop offset="0" stop-color="#1d59b3"/><stop offset="1" stop-color="#195bbc"/></linearGradient><rect width="11" height="4" x="27" y="38" fill="url(#bOiyIPMOHf12GulfrOmMbc)"/><path d="M43,28.525C42.06,28.191,41.053,28,40,28c-4.962,0-9,4.037-9,9c0,1.8,0.536,3.526,1.527,5H43V28.525z" opacity=".05"/><path d="M43,29.057c-0.934-0.354-1.943-0.557-3-0.557c-4.687,0-8.5,3.813-8.5,8.5c0,1.817,0.581,3.55,1.643,5	H43V29.057z" opacity=".07"/><linearGradient id="bOiyIPMOHf12GulfrOmMbd" x1="34.344" x2="45.656" y1="-457.343" y2="-468.654" gradientTransform="matrix(1 0 0 -1 0 -426)" gradientUnits="userSpaceOnUse"><stop offset="0" stop-color="#ffd869"/><stop offset="1" stop-color="#fec52b"/></linearGradient><path fill="url(#bOiyIPMOHf12GulfrOmMbd)" d="M45.734,42.571C47.134,41.131,48,39.168,48,37c0-4.418-3.582-8-8-8s-8,3.582-8,8	c0,2.168,0.866,4.131,2.266,5.571c0.008,0.008,5.106,5.111,5.106,5.111c0.347,0.347,0.91,0.347,1.257,0	C40.629,47.682,45.726,42.58,45.734,42.571z"/><radialGradient id="bOiyIPMOHf12GulfrOmMbe" cx="40" cy="-463" r="3.5" gradientTransform="matrix(1 0 0 -1 0 -426)" gradientUnits="userSpaceOnUse"><stop offset=".177"/><stop offset="1" stop-opacity="0"/></radialGradient><circle cx="40" cy="37" r="3.5" fill="url(#bOiyIPMOHf12GulfrOmMbe)"/><circle cx="40" cy="37" r="3" fill="#f9f9f9"/></svg>