<svg xmlns="http://www.w3.org/2000/svg" xmlns:xlink="http://www.w3.org/1999/xlink" data-name="Слой 1" viewBox="0 0 48 48"><defs><linearGradient id="fzGulUcfMFUIJGp_lYhCFc" x1="8.911" x2="31.339" y1="-480.911" y2="-503.339" data-name="Безымянный градиент 156" gradientTransform="matrix(1 0 0 -1 0 -472)" gradientUnits="userSpaceOnUse"><stop offset="0" stop-color="#a3ffff"/><stop offset=".223" stop-color="#9dfbff"/><stop offset=".53" stop-color="#8bf1ff"/><stop offset=".885" stop-color="#6ee0ff"/><stop offset="1" stop-color="#63daff"/></linearGradient><linearGradient id="fzGulUcfMFUIJGp_lYhCFa" x1="12" x2="19" y1="16.133" y2="16.133" data-name="Безымянный градиент 158" gradientTransform="matrix(-1 0 0 1 40 0)" gradientUnits="userSpaceOnUse"><stop offset="0" stop-color="#3079d6"/><stop offset="1" stop-color="#297cd2"/></linearGradient><linearGradient id="fzGulUcfMFUIJGp_lYhCFd" x1="21" x2="28" y1="23.133" y2="23.133" xlink:href="#fzGulUcfMFUIJGp_lYhCFa"/><radialGradient id="fzGulUcfMFUIJGp_lYhCFb" cx="20.024" cy="-492.096" r="19.604" data-name="Безымянный градиент 157" gradientTransform="matrix(1 0 0 -1 0 -472)" gradientUnits="userSpaceOnUse"><stop offset=".693" stop-color="#006185"/><stop offset=".921" stop-color="#35c1f1"/></radialGradient></defs><path fill="#199be2" d="M35.983,32.448l-3.536,3.536,7.87,7.87a.50035.50035,0,0,0,.707,0l2.828-2.828a.50035.50035,0,0,0,0-.707Z"/><polygon fill="url(#fzGulUcfMFUIJGp_lYhCFb)" points="31.601 28.065 28.065 31.601 32.448 35.983 35.983 32.448 31.601 28.065"/><circle cx="20" cy="20" r="16" fill="url(#fzGulUcfMFUIJGp_lYhCFc)"/><path fill="url(#fzGulUcfMFUIJGp_lYhCFa)" d="M26.59956,19.86667a.46891.46891,0,0,1,.46679.47047A6.9373,6.9373,0,0,1,26.6,23.6,2.57191,2.57191,0,0,1,24.307,25a2.2862,2.2862,0,0,1-2.37362-2.33333,12.17241,12.17241,0,0,1,.3794-2.44462.46387.46387,0,0,1,.45334-.35538ZM26.75463,18a.46986.46986,0,0,0,.43661-.30094A11.63947,11.63947,0,0,0,28,13.8c0-3.57706-1.75-6.53333-3.73333-6.53333C22.4,7.26667,21,9.53885,21,12.4a12.81,12.81,0,0,0,1.26774,5.35644A.45929.45929,0,0,0,22.67854,18Z"/><path fill="url(#fzGulUcfMFUIJGp_lYhCFd)" d="M17.23393,26.86667a.46387.46387,0,0,1,.45334.35538,12.17241,12.17241,0,0,1,.3794,2.44462A2.2862,2.2862,0,0,1,15.69305,32,2.57191,2.57191,0,0,1,13.4,30.6a6.9373,6.9373,0,0,1-.46635-3.26286.46891.46891,0,0,1,.46679-.47047ZM17.32146,25a.45929.45929,0,0,0,.4108-.24356A12.81,12.81,0,0,0,19,19.4c0-2.86115-1.4-5.13333-3.26667-5.13333C13.75,14.26667,12,17.22294,12,20.8a11.63947,11.63947,0,0,0,.80876,3.89906A.46986.46986,0,0,0,13.24537,25Z"/></svg>