<svg xmlns="http://www.w3.org/2000/svg" viewBox="0 0 48 48"><circle cx="24" cy="24" r="18" fill="#ffd6da"/><rect width="4" height="34" x="22" y="7" fill="#ff919c" transform="rotate(45.001 24 24)"/><path fill="#cf1928" d="M24,4C12.955,4,4,12.955,4,24s8.955,20,20,20s20-8.955,20-20C44,12.955,35.045,4,24,4z M24,40	c-8.836,0-16-7.164-16-16S15.164,8,24,8s16,7.164,16,16S32.836,40,24,40z"/><path fill="#0d61a9" d="M30.823,28.357c0-6.682-9.866-5.377-9.866-9.325c0-2.061,2.317-2.17,3.042-2.17	c1.741,0,3.422,0.467,4.704,1.068c0.404,0.189,0.868-0.091,0.868-0.537v-1.945c0-0.652-0.245-1.039-0.637-1.191	c-0.879-0.342-2.14-0.591-4.006-0.653v-2.14c0-0.256-0.208-0.464-0.464-0.464h-0.929c-0.256,0-0.464,0.208-0.464,0.464v2.174	c-2.894,0.283-5.894,1.916-5.894,5.716c0,6.927,9.865,5.553,9.865,9.201c0,1.147-0.732,2.135-3.042,2.135	c-2.321,0-4.454-0.81-5.635-1.414c-0.397-0.203-0.865,0.091-0.865,0.538v2.213c0,0.425,0.256,0.802,0.646,0.968	c1.399,0.594,3.275,1.044,4.925,1.175v2.365c0,0.256,0.208,0.464,0.464,0.464h0.929c0.256,0,0.464-0.208,0.464-0.464v-2.36	C29.258,33.814,30.823,30.916,30.823,28.357z"/></svg>