<svg xmlns="http://www.w3.org/2000/svg" viewBox="0 0 48 48"><linearGradient id="yi_09HNnx1qr66ExEYAABa" x1="23.758" x2="24.156" y1="8.838" y2="37.888" gradientUnits="userSpaceOnUse"><stop offset="0" stop-color="#889097"/><stop offset="1" stop-color="#64717c"/></linearGradient><path fill="url(#yi_09HNnx1qr66ExEYAABa)" d="M43,11h-9.679c-0.696,0-1.343-0.362-1.706-0.956L29.6,6.751C29.22,6.276,28.645,6,28.037,6 h-8.074C19.355,6,18.78,6.276,18.4,6.751l-2.016,3.293C16.02,10.638,15.374,11,14.678,11H5c-1.105,0-2,0.895-2,2v27 c0,1.105,0.895,2,2,2h38c1.105,0,2-0.895,2-2V13C45,11.895,44.105,11,43,11z"/><g opacity=".05"><circle cx="30" cy="22" r="3"/><circle cx="18" cy="22" r="3"/><path d="M34.914,28.086c-0.766-0.766-2.063-0.766-2.828,0c-2.007,2.007-4.954,3.158-8.086,3.158s-6.079-1.151-8.086-3.158 c-0.766-0.766-2.063-0.766-2.828,0c-0.377,0.377-0.585,0.88-0.585,1.414s0.208,1.037,0.585,1.414 c2.778,2.778,6.756,4.371,10.914,4.371s8.136-1.593,10.914-4.371c0.377-0.377,0.585-0.88,0.585-1.414S35.291,28.463,34.914,28.086 z"/></g><g opacity=".05"><circle cx="30" cy="22" r="2.5"/><circle cx="18" cy="22" r="2.5"/><path d="M34.561,28.439c-0.566-0.566-1.555-0.566-2.121,0c-2.101,2.101-5.177,3.305-8.439,3.305s-6.339-1.204-8.439-3.305 c-0.566-0.566-1.555-0.566-2.121,0c-0.585,0.585-0.585,1.536,0,2.121c2.685,2.685,6.534,4.225,10.561,4.225 s7.876-1.54,10.561-4.225C35.146,29.976,35.146,29.024,34.561,28.439z"/></g><path fill="#fff" d="M16,22c0-1.105,0.895-2,2-2s2,0.895,2,2c0,1.104-0.895,2-2,2S16,23.104,16,22z M30,24 c1.105,0,2-0.896,2-2c0-1.105-0.895-2-2-2s-2,0.895-2,2C28,23.104,28.895,24,30,24z M34.207,28.793 c-0.391-0.391-1.023-0.391-1.414,0c-4.602,4.602-12.984,4.602-17.586,0c-0.391-0.391-1.023-0.391-1.414,0s-0.391,1.023,0,1.414 c2.719,2.719,6.463,4.078,10.207,4.078s7.488-1.359,10.207-4.078C34.598,29.816,34.598,29.184,34.207,28.793z"/></svg>