<svg xmlns="http://www.w3.org/2000/svg" viewBox="0 0 48 48"><linearGradient id="F9ODmQtKXtSwTZMKfZ6C5a" x1="23.909" x2="24.093" y1="256.514" y2="292.199" gradientTransform="matrix(1 0 0 -1 0 298.11)" gradientUnits="userSpaceOnUse"><stop offset="0" stop-color="#9c55d4"/><stop offset=".002" stop-color="#9c55d4"/><stop offset=".003" stop-color="#9c55d4"/><stop offset=".111" stop-color="#9753d1"/><stop offset=".242" stop-color="#884ec8"/><stop offset=".383" stop-color="#7046ba"/><stop offset=".521" stop-color="#513ca7"/><stop offset=".672" stop-color="#3c359a"/><stop offset=".756" stop-color="#2e3192"/><stop offset="1" stop-color="#2e3192"/></linearGradient><path fill="url(#F9ODmQtKXtSwTZMKfZ6C5a)" d="M35,42H13c-3.866,0-7-3.134-7-7V13c0-3.866,3.134-7,7-7h22c3.866,0,7,3.134,7,7v22	C42,38.866,38.866,42,35,42z"/><path fill="#fdfcef" d="M14.192,22.478c0-0.814-0.654-1.469-1.455-1.469h-0.721v2.925h0.721 C13.537,23.934,14.192,23.278,14.192,22.478 M17.474,28.308h-2.648l-2.102-2.918h-0.707v2.911H9.682v-8.747h3.343 c1.928,0,3.501,1.311,3.501,2.923c0,0.984-0.603,1.862-1.521,2.4L17.474,28.308"/><path fill="#fdfcef" d="M20.105,23.003c-0.616,0-1.141,0.838-1.141,1.875c0,1.038,0.524,1.876,1.141,1.876 c0.631,0,1.154-0.839,1.154-1.876S20.736,23.003,20.105,23.003 M23.698,24.878c0,1.981-1.611,3.568-3.593,3.568 c-1.981,0-3.58-1.586-3.58-3.568c0-1.98,1.6-3.567,3.58-3.567C22.087,21.31,23.698,22.898,23.698,24.878"/><path fill="#fdfcef" d="M29.175,21.455l-2.689,2.688v-2.697h-2.333v6.854h2.333V25.52l2.807,2.781h2.937l-3.567-3.567 l2.954-2.953v4.068c0,1.351,0.812,2.597,2.858,2.597c0.971,0,1.862-0.551,2.295-1.049l1.049,0.905h0.498v-6.845h-2.333v3.567v0.866 c-0.263,0.459-0.629,0.747-1.195,0.747c-0.574,0-0.838-0.34-0.838-1.429v-0.288v-3.463L29.175,21.455L29.175,21.455z"/></svg>