<svg xmlns="http://www.w3.org/2000/svg" viewBox="0 0 48 48"><path fill="#d7dfe2" d="M42,33H8c-1.105,0-2,0.895-2,2v6c0,1.104,0.895,2,2,2h10h24c1.105,0,2-0.896,2-2v-6 C44,33.895,43.105,33,42,33z"/><path fill="#184686" d="M24,33v10H13.428L16,33H24z"/><path fill="#3ccbf4" d="M36,43V33h6c1.105,0,2,0.895,2,2v6c0,1.105-0.895,2-2,2H36z"/><path fill="#0a68b6" d="M34,33v10h-8V33H34z"/><polygon points="13.213,33 13.213,42.96 30.112,33" opacity=".05"/><polygon points="13.213,33 13.213,43 14.13,43 31.096,33" opacity=".05"/><path fill="#d7dfe2" d="M41.36,23.469L38.313,18.3c-0.561-0.952-1.787-1.268-2.739-0.708L6.284,34.856 C6.18,34.917,6.088,34.989,6,35.064v3.249l2.623,4.45C8.674,42.85,8.735,42.925,8.796,43h3.365l28.492-16.792 C41.604,25.647,41.921,24.421,41.36,23.469z"/><path fill="#23b368" d="M28.683,21.655l5.078,8.615l-6.892,4.062l-5.078-8.615L28.683,21.655z"/><polygon points="22.449,25.329 12.439,42.836 16.974,40.163 27.707,22.23" opacity=".05"/><path fill="#30dc80" d="M35.483,29.254l-5.078-8.615l5.169-3.047c0.952-0.561,2.178-0.244,2.739,0.707l3.047,5.169 c0.561,0.952,0.244,2.178-0.707,2.739L35.483,29.254z"/><polygon points="22.449,25.329 12.439,42.836 16.073,40.694 26.807,22.76" opacity=".05"/><path fill="#0a8645" d="M20.068,26.732l5.078,8.615l-10.616,6.254l-1.353-10.807L20.068,26.732z"/><path fill="#d7dfe2" d="M30.944,10.978l-5.149-3.08c-0.948-0.567-2.176-0.258-2.743,0.69L6,37.1v3.195 c0.09,0.078,0.185,0.153,0.29,0.216L10.452,43h3.657c0.023-0.034,0.052-0.063,0.074-0.099l17.451-29.18 C32.201,12.773,31.892,11.545,30.944,10.978z"/><path fill="#f8be00" d="M18.945,15.454l8.582,5.133l-4.106,6.866l-8.582-5.133L18.945,15.454z"/><path fill="#ff8f3b" d="M13.813,24.037l8.582,5.133l-6.525,10.9l-6.163-9.167L13.813,24.037z"/><path d="M13.787,43h0.322h2.111c0.48-0.532,0.78-1.229,0.78-2V18.707 l-3.213,5.372V43z" opacity=".05"/><path d="M13.787,43h0.322h1.376c0.613-0.456,1.015-1.179,1.015-2V19.543 l-2.713,4.536V43z" opacity=".05"/><path fill="#fede00" d="M28.554,18.87l-8.582-5.133l3.08-5.149c0.567-0.948,1.795-1.257,2.743-0.69l5.149,3.08 c0.948,0.567,1.257,1.795,0.69,2.743L28.554,18.87z"/><linearGradient id="WJgT0UDrRusGzzjKW0VD~a" x1="11" x2="11" y1="24" y2="45.872" gradientUnits="userSpaceOnUse"><stop offset="0" stop-color="#c8cdd1"/><stop offset="1" stop-color="#b3b3b3"/></linearGradient><path fill="url(#WJgT0UDrRusGzzjKW0VD~a)" d="M14,43H8c-1.105,0-2-0.895-2-2V7c0-1.105,0.895-2,2-2h6c1.105,0,2,0.895,2,2v34 C16,42.105,15.105,43,14,43z"/><path fill="#ff8db6" d="M16,13H6V7c0-1.105,0.895-2,2-2h6c1.105,0,2,0.895,2,2V13z"/><path fill="#f95568" d="M6,15h10v8H6V15z"/><path fill="#ce0d24" d="M6,25h10v8H6V25z"/><path fill="#455a64" d="M11,37c-0.552,0-1,0.448-1,1s0.448,1,1,1s1-0.448,1-1S11.552,37,11,37z"/></svg>