<svg xmlns="http://www.w3.org/2000/svg" viewBox="0 0 48 48"><linearGradient id="in1UIHSdQC_ki_aW55SLra" x1="32.5" x2="32.5" y1="4.133" y2="26.221" gradientUnits="userSpaceOnUse"><stop offset="0" stop-color="#0471c7"/><stop offset="1" stop-color="#0968b5"/></linearGradient><path fill="url(#in1UIHSdQC_ki_aW55SLra)" d="M44,4H21c-0.552,0-1,0.448-1,1v14c0,0.552,0.448,1,1,1h6v4.874	c0,0.415,0.502,0.623,0.796,0.33L33,20h11c0.552,0,1-0.448,1-1V5C45,4.448,44.552,4,44,4z"/><linearGradient id="in1UIHSdQC_ki_aW55SLrb" x1="11.091" x2="20.16" y1="16.09" y2="25.16" gradientUnits="userSpaceOnUse"><stop offset="0" stop-color="#32bdef"/><stop offset="1" stop-color="#1ea2e4"/></linearGradient><circle cx="15.5" cy="20.5" r="6.5" fill="url(#in1UIHSdQC_ki_aW55SLrb)"/><linearGradient id="in1UIHSdQC_ki_aW55SLrc" x1="7.772" x2="23.178" y1="32.098" y2="47.504" gradientUnits="userSpaceOnUse"><stop offset="0" stop-color="#32bdef"/><stop offset="1" stop-color="#1ea2e4"/></linearGradient><path fill="url(#in1UIHSdQC_ki_aW55SLrc)" d="M27,40.5c0-6.423-5.266-11.616-11.715-11.498C8.954,29.118,4,34.549,4,40.881L4,43.5	c0,0.552,0.448,1,1,1h21c0.552,0,1-0.448,1-1V40.5z"/></svg>