<svg xmlns="http://www.w3.org/2000/svg" viewBox="0 0 48 48"><circle cx="24" cy="24" r="20" fill="#c9d4e0"/><circle cx="24" cy="24" r="17" fill="#b2bbc7"/><path d="M41.286,34.026l-2.922-4.651c-0.205-0.423-0.828-1.139-1.864-1.139c-1.046,0-1.66,0.716-1.812,1.043	l-9.191,14.644C32.251,43.423,38.06,39.576,41.286,34.026z" opacity=".05"/><path d="M40.997,34.502l-3.083-4.909c-0.154-0.318-0.626-0.856-1.414-0.856s-1.26,0.538-1.388,0.809	l-9.003,14.341C32.41,43.226,37.822,39.631,40.997,34.502z" opacity=".07"/><linearGradient id="9ixLETb0~c3qH1v_yKYBma" x1="-145.721" x2="43.567" y1="-125.593" y2="-342.692" gradientTransform="matrix(1 0 0 -1 0 -290)" gradientUnits="userSpaceOnUse"><stop offset="0" stop-color="#ffda1c"/><stop offset="1" stop-color="#feb705"/></linearGradient><path fill="url(#9ixLETb0~c3qH1v_yKYBma)" d="M47.8,46.273L37.464,29.812c0,0-0.278-0.575-0.964-0.575s-0.964,0.575-0.964,0.575	L25.2,46.273c0,0-0.2,0.269-0.2,0.632C25,47.51,25.49,48,26.095,48h20.81C47.51,48,48,47.51,48,46.905	C48,46.542,47.8,46.273,47.8,46.273z"/><radialGradient id="9ixLETb0~c3qH1v_yKYBmb" cx="33.03" cy="-323.926" r="13.354" gradientTransform="matrix(1 0 0 -1 0 -290)" gradientUnits="userSpaceOnUse"><stop offset="0" stop-color="#4b4b4b"/><stop offset=".531" stop-color="#393939"/><stop offset="1" stop-color="#252525"/></radialGradient><path fill="url(#9ixLETb0~c3qH1v_yKYBmb)" d="M36.508,46c-0.437,0-0.798-0.133-1.082-0.398C35.142,45.337,35,45.017,35,44.639	c0-0.394,0.143-0.716,0.431-0.967c0.287-0.251,0.646-0.377,1.078-0.377c0.437,0,0.795,0.127,1.074,0.381	C37.861,43.93,38,44.251,38,44.639c0,0.394-0.138,0.718-0.414,0.975C37.31,45.871,36.951,46,36.508,46z M37.835,34.488l-0.287,7.27	c-0.009,0.222-0.192,0.398-0.414,0.398h-1.301c-0.223,0-0.405-0.176-0.414-0.399l-0.272-7.27c-0.009-0.235,0.179-0.43,0.414-0.43	h1.861C37.657,34.057,37.845,34.253,37.835,34.488z"/><path fill="#c9d4e0" d="M30.671,33.574h-12.44v-3.428h4.072V17.894l-4.184,0.904v-3.512l8.504-1.712v16.572h4.048V33.574z"/></svg>