<svg xmlns="http://www.w3.org/2000/svg" viewBox="0 0 48 48"><linearGradient id="hfKXkbqna8MdQfFQjwgvwa" x1="24" x2="24" y1="43.978" y2="3.691" gradientUnits="userSpaceOnUse"><stop offset="0" stop-color="#b31523"/><stop offset=".492" stop-color="#e52030"/><stop offset="1" stop-color="#ee3d4a"/></linearGradient><path fill="url(#hfKXkbqna8MdQfFQjwgvwa)" d="M24,6C14.052,6,6,14.052,6,24s8.052,18,18,18s18-8.052,18-18S33.948,6,24,6z M24,37.5	c-4.737,0-9-6.206-9-13.5s4.263-13.5,9-13.5s9,6.206,9,13.5S28.737,37.5,24,37.5z"/><linearGradient id="hfKXkbqna8MdQfFQjwgvwb" x1="30.794" x2="30.794" y1="5.435" y2="55.952" gradientUnits="userSpaceOnUse"><stop offset="0" stop-color="#b31523"/><stop offset=".492" stop-color="#e52030"/><stop offset="1" stop-color="#ee3d4a"/></linearGradient><path fill="url(#hfKXkbqna8MdQfFQjwgvwb)" d="M35.308,10c-1.936-1.326-4.207-2.2-6.571-2.2c-3.553,0-6.772,1.782-9.149,4.571	C20.916,11.193,22.429,10.5,24,10.5c4.737,0,9,6.206,9,13.5s-4.263,13.5-9,13.5c-1.571,0-3.084-0.693-4.413-1.871	c2.378,2.789,5.596,4.571,9.149,4.571c2.363,0,4.635-0.875,6.57-2.2C39.387,34.702,42,29.661,42,24	C42,18.34,39.387,13.299,35.308,10z"/></svg>