<svg xmlns="http://www.w3.org/2000/svg" viewBox="0 0 48 48"><linearGradient id="0s3BWf2LNVvAYiLpxvdP1a" x1="24" x2="24" y1="45.37" y2="40.072" gradientUnits="userSpaceOnUse"><stop offset="0" stop-color="#737b80"/><stop offset="1" stop-color="#575c61"/></linearGradient><path fill="url(#0s3BWf2LNVvAYiLpxvdP1a)" d="M19,44c0,0.553,0.448,1,1,1h8c0.553,0,1-0.447,1-1v-5H19V44z"/><path fill="#ccc" d="M16,3h16c0.552,0,1,0.448,1,1v14H15V4C15,3.448,15.448,3,16,3z"/><linearGradient id="0s3BWf2LNVvAYiLpxvdP1b" x1="24" x2="24" y1="17.945" y2="42.499" gradientUnits="userSpaceOnUse"><stop offset="0" stop-color="#899198"/><stop offset="1" stop-color="#787e85"/></linearGradient><path fill="url(#0s3BWf2LNVvAYiLpxvdP1b)" d="M36,21c0-1.656-1.344-3-3-3H15c-1.657,0-3,1.344-3,3v12c0,4,3,7,7,7h10c3,0,7-3,7-7V21z"/><path fill="#666" d="M17.5,9h4C21.776,9,22,9.224,22,9.5v3c0,0.276-0.224,0.5-0.5,0.5h-4c-0.276,0-0.5-0.224-0.5-0.5v-3	C17,9.224,17.224,9,17.5,9z"/><path fill="#666" d="M26.5,9h4C30.776,9,31,9.224,31,9.5v3c0,0.276-0.224,0.5-0.5,0.5h-4c-0.276,0-0.5-0.224-0.5-0.5v-3	C26,9.224,26.224,9,26.5,9z"/><linearGradient id="0s3BWf2LNVvAYiLpxvdP1c" x1="30.929" x2="45.071" y1="30.929" y2="45.071" gradientUnits="userSpaceOnUse"><stop offset="0" stop-color="#f44f5a"/><stop offset=".443" stop-color="#ee3d4a"/><stop offset="1" stop-color="#e52030"/></linearGradient><path fill="url(#0s3BWf2LNVvAYiLpxvdP1c)" d="M48,38c0,5.522-4.478,10-10,10s-10-4.478-10-10s4.478-10,10-10S48,32.478,48,38z"/><path fill="#fff" d="M41.536,33.757l0.707,0.707c0.195,0.195,0.195,0.512,0,0.707l-7.071,7.071	c-0.195,0.195-0.512,0.195-0.707,0l-0.707-0.707c-0.195-0.195-0.195-0.512,0-0.707l7.071-7.071	C41.024,33.562,41.34,33.562,41.536,33.757z"/><path fill="#fff" d="M42.243,41.536l-0.707,0.707c-0.195,0.195-0.512,0.195-0.707,0l-7.071-7.071	c-0.195-0.195-0.195-0.512,0-0.707l0.707-0.707c0.195-0.195,0.512-0.195,0.707,0l7.071,7.071	C42.438,41.024,42.438,41.34,42.243,41.536z"/></svg>