<svg xmlns="http://www.w3.org/2000/svg" viewBox="0 0 48 48"><path fill="#0078d4" d="M18,14v10h-3V14c0-0.55,0.45-1,1-1h1C17.55,13,18,13.45,18,14z"/><path fill="#0078d4" d="M13,4v20h-3V4c0-0.55,0.45-1,1-1h1C12.55,3,13,3.45,13,4z"/><path fill="#0078d4" d="M8,11v13H5V11c0-0.55,0.45-1,1-1h1C7.55,10,8,10.45,8,11z"/><path fill="#0078d4" d="M3,18v6H0v-6c0-0.55,0.45-1,1-1h1C2.55,17,3,17.45,3,18z"/><path fill="#0078d4" d="M30,34V24h3v10c0,0.55-0.45,1-1,1h-1C30.45,35,30,34.55,30,34z"/><path fill="#0078d4" d="M35,44V24h3v20c0,0.55-0.45,1-1,1h-1C35.45,45,35,44.55,35,44z"/><path fill="#0078d4" d="M40,37V24h3v13c0,0.55-0.45,1-1,1h-1C40.45,38,40,37.55,40,37z"/><path fill="#0078d4" d="M45,30v-6h3v6c0,0.55-0.45,1-1,1h-1C45.45,31,45,30.55,45,30z"/><path fill="#0078d4" d="M25,27v-3h3v3c0,0.55-0.45,1-1,1h-1C25.45,28,25,27.55,25,27z"/><path fill="#0078d4" d="M23,21v3h-3v-3c0-0.55,0.45-1,1-1h1C22.55,20,23,20.45,23,21z"/></svg>