<svg xmlns="http://www.w3.org/2000/svg" viewBox="0 0 48 48"><linearGradient id="eb84PAtiIDWgi66Kt1_GYa" x1="19.108" x2="33.416" y1="11.224" y2="48.589" gradientUnits="userSpaceOnUse"><stop offset="0" stop-color="#0d61a9"/><stop offset="1" stop-color="#16528c"/></linearGradient><circle cx="24" cy="24" r="20" fill="url(#eb84PAtiIDWgi66Kt1_GYa)"/><linearGradient id="eb84PAtiIDWgi66Kt1_GYb" x1="16.301" x2="30.604" y1="5.27" y2="40.106" gradientUnits="userSpaceOnUse"><stop offset=".008" stop-color="#f44f5a"/><stop offset=".447" stop-color="#ee3d4a"/><stop offset="1" stop-color="#e52030"/></linearGradient><path fill="url(#eb84PAtiIDWgi66Kt1_GYb)" d="M43.248,18.623c-0.679-2.436-1.807-4.678-3.29-6.644L5.59,31.822	c0.983,2.311,2.393,4.394,4.125,6.162L43.248,18.623z"/><linearGradient id="eb84PAtiIDWgi66Kt1_GYc" x1="14.793" x2="36.024" y1="10.009" y2="41.85" gradientUnits="userSpaceOnUse"><stop offset="0" stop-color="#ffd000"/><stop offset="1" stop-color="#ffc107"/></linearGradient><path fill="url(#eb84PAtiIDWgi66Kt1_GYc)" d="M13.009,9.891l1.352,4.14l4.354,0.006l-3.519,2.565l1.34,4.143l-3.527-2.554l-3.527,2.554	l1.339-4.143l-3.518-2.565l4.354-0.006L13.009,9.891z M9.026,37.226c0.457,0.517,0.94,1.007,1.447,1.474l33.034-19.071	c-0.151-0.677-0.338-1.339-0.556-1.989L9.026,37.226z M40.561,12.787c-0.378-0.557-0.786-1.092-1.217-1.607L5.237,30.871	c0.232,0.634,0.495,1.253,0.788,1.855L40.561,12.787z"/><polygon fill="#fdd835" points="1.967,32.759 1.718,32.902 1.967,33.334"/></svg>