<svg xmlns="http://www.w3.org/2000/svg" viewBox="0 0 48 48"><path fill="#fece49" d="M41,40H7V10c0-1.105,0.895-2,2-2h30c1.105,0,2,0.895,2,2V40z"/><path fill="#f5be00" d="M40,43H8c-0.552,0-1-0.448-1-1v-3h34v3C41,42.552,40.552,43,40,43z"/><circle cx="31" cy="12" r="2" fill="#c48c00"/><circle cx="17" cy="12" r="2" fill="#c48c00"/><path fill="#bd370a" d="M31,13c-0.552,0-1-0.447-1-1V8c0-3.309-2.691-6-6-6s-6,2.691-6,6v4c0,0.553-0.448,1-1,1 s-1-0.447-1-1V8c0-4.411,3.589-8,8-8s8,3.589,8,8v4C32,12.553,31.552,13,31,13z"/><linearGradient id="XIShK8SamCAAtRg2P7pl2a" x1="18.341" x2="29.659" y1="-37.386" y2="-48.704" gradientTransform="matrix(1 0 0 -1 0 -18)" gradientUnits="userSpaceOnUse"><stop offset="0" stop-color="#21ad64"/><stop offset="1" stop-color="#088242"/></linearGradient><path fill="url(#XIShK8SamCAAtRg2P7pl2a)" d="M29.7,30.613c1.392-1.445,2.252-3.414,2.252-5.588C31.953,20.593,28.392,17,24,17	s-7.953,3.593-7.953,8.024c0,2.174,0.86,4.143,2.252,5.588c0.008,0.008,5.075,5.126,5.075,5.126c0.345,0.348,0.904,0.348,1.25,0	C24.625,35.739,29.693,30.621,29.7,30.613z"/><circle cx="24" cy="24.953" r="2.953" fill="#f9f9f9"/></svg>