<svg xmlns="http://www.w3.org/2000/svg" viewBox="0 0 48 48"><linearGradient id="BE8hOnXJJcCe4c1coMVgNa" x1="31.338" x2="41.841" y1="20.5" y2="20.5" gradientUnits="userSpaceOnUse"><stop offset="0" stop-color="#16528c"/><stop offset=".369" stop-color="#1361a8"/><stop offset=".756" stop-color="#106dbf"/><stop offset="1" stop-color="#0f72c7"/></linearGradient><path fill="url(#BE8hOnXJJcCe4c1coMVgNa)" d="M41.046,26.622l-2.637-9.864C38.298,16.312,37.898,16,37.438,16H31v-2h6.438 c1.376,0,2.576,0.937,2.91,2.272l2.637,9.865c0.067,0.268-0.096,0.539-0.364,0.606l-0.969,0.243 C41.384,27.053,41.113,26.89,41.046,26.622z"/><linearGradient id="BE8hOnXJJcCe4c1coMVgNb" x1="22.5" x2="22.5" y1="13" y2="17" gradientUnits="userSpaceOnUse"><stop offset="0" stop-color="#0f72c7"/><stop offset=".244" stop-color="#106dbf"/><stop offset=".63" stop-color="#1361a8"/><stop offset="1" stop-color="#16528c"/></linearGradient><path fill="url(#BE8hOnXJJcCe4c1coMVgNb)" d="M31,17H14c-0.552,0-1-0.448-1-1v-2.153C13,13.379,13.379,13,13.847,13h17.306 C31.621,13,32,13.379,32,13.847V16C32,16.552,31.552,17,31,17z"/><linearGradient id="BE8hOnXJJcCe4c1coMVgNc" x1="19.5" x2="22.673" y1="4.002" y2="13.354" gradientUnits="userSpaceOnUse"><stop offset="0" stop-color="#32bdef"/><stop offset="1" stop-color="#1ea2e4"/></linearGradient><path fill="url(#BE8hOnXJJcCe4c1coMVgNc)" d="M12.153,6.014c-0.802-0.121-1.407,0.713-1.043,1.437L14,13h17V9.854 c0-0.492-0.358-0.911-0.844-0.988L12.153,6.014z"/><linearGradient id="BE8hOnXJJcCe4c1coMVgNd" x1="17.732" x2="22.972" y1="16.725" y2="32.169" gradientUnits="userSpaceOnUse"><stop offset="0" stop-color="#32bdef"/><stop offset="1" stop-color="#1ea2e4"/></linearGradient><path fill="url(#BE8hOnXJJcCe4c1coMVgNd)" d="M6.641,31C8.446,24.721,14,17,14,17h17c0,0,5.728,7.274,7.443,14H6.641z"/><linearGradient id="BE8hOnXJJcCe4c1coMVgNe" x1="20.807" x2="24.53" y1="28.499" y2="41.736" gradientUnits="userSpaceOnUse"><stop offset="0" stop-color="#a34f27"/><stop offset=".587" stop-color="#8b3817"/><stop offset="1" stop-color="#802d10"/></linearGradient><path fill="url(#BE8hOnXJJcCe4c1coMVgNe)" d="M6,35c0,3.93,2.74,6.144,4.631,7.204C11.59,42.741,12.695,43,13.812,43h17.375 c1.117,0,2.222-0.259,3.181-0.796C36.26,41.144,39,38.93,39,35c0-1.654-0.329-3.349-0.835-5H6.953C6.374,31.72,6,33.435,6,35z"/></svg>