<svg xmlns="http://www.w3.org/2000/svg" viewBox="0 0 48 48"><path fill="#184686" d="M32.572,41.906L6.344,35.228c-1.609-0.41-2.582-2.047-2.172-3.656L10.85,5.344 c0.41-1.609,2.047-2.582,3.656-2.172l26.228,6.927c1.609,0.41,2.582,2.047,2.172,3.656l-6.678,25.979 C35.819,41.344,34.182,42.316,32.572,41.906z"/><linearGradient id="dXQ99ReNDPaDje4K6R19Aa" x1="26.5" x2="26.5" y1="7.734" y2="38.063" gradientUnits="userSpaceOnUse"><stop offset="0" stop-color="#1ea2e4"/><stop offset="1" stop-color="#007ad9"/></linearGradient><path fill="url(#dXQ99ReNDPaDje4K6R19Aa)" d="M40,43H13c-1.657,0-3-1.343-3-3V13c0-1.657,1.343-3,3-3h27c1.657,0,3,1.343,3,3v27 C43,41.657,41.657,43,40,43z"/><circle cx="38.5" cy="14.5" r="1.5" fill="#184686"/></svg>