<svg xmlns="http://www.w3.org/2000/svg" data-name="Слой 1" viewBox="0 0 48 48"><defs><linearGradient id="5kYWLn~sN9Nz2m67mrDkNa" x1="6" x2="42" y1="29.5" y2="29.5" data-name="Безымянный градиент 14" gradientUnits="userSpaceOnUse"><stop offset="0" stop-color="#42a3f2"/><stop offset="1" stop-color="#42a4eb"/></linearGradient><linearGradient id="5kYWLn~sN9Nz2m67mrDkNb" x1="30.896" x2="23.17" y1="12.046" y2="3.992" data-name="Безымянный градиент 7" gradientUnits="userSpaceOnUse"><stop offset="0" stop-color="#e5a505"/><stop offset=".01" stop-color="#e9a804"/><stop offset=".06" stop-color="#f4b102"/><stop offset=".129" stop-color="#fbb600"/><stop offset=".323" stop-color="#fdb700"/></linearGradient><linearGradient id="5kYWLn~sN9Nz2m67mrDkNc" x1="-194.911" x2="-189.233" y1="-1136.768" y2="-1145.023" data-name="Безымянный градиент 15" gradientTransform="rotate(-90 488 -672)" gradientUnits="userSpaceOnUse"><stop offset="0" stop-color="#fede00"/><stop offset="1" stop-color="#ffd000"/></linearGradient><linearGradient id="5kYWLn~sN9Nz2m67mrDkNd" x1="18.452" x2="33.813" y1="16.756" y2="58.961" gradientUnits="userSpaceOnUse"><stop offset="0" stop-color="#a34f27"/><stop offset=".587" stop-color="#8b3817"/><stop offset="1" stop-color="#802d10"/></linearGradient></defs><rect width="36" height="29" x="6" y="15" fill="url(#5kYWLn~sN9Nz2m67mrDkNa)" rx="2"/><path fill="url(#5kYWLn~sN9Nz2m67mrDkNb)" d="M34,7.39V8.61a.94635.94635,0,0,1-.28.67L33.28,9.72a.9468.9468,0,0,1-.67.28H21V6h4a1,1,0,0,0,2,0h2a1,1,0,0,0,2,0h1.61a.9467.9467,0,0,1,.67.28l.43994.44A.94644.94644,0,0,1,34,7.39Z"/><path fill="url(#5kYWLn~sN9Nz2m67mrDkNc)" d="M14,8a5,5,0,1,0,5-5A5.00022,5.00022,0,0,0,14,8Zm4,0a1,1,0,1,1-1-1A.99994.99994,0,0,1,18,8Z"/><g opacity=".05"><path d="M24,17a5.00588,5.00588,0,0,1,5,5v3a.99974.99974,0,0,1-1,1H20a.99974.99974,0,0,1-1-1V22a5.00588,5.00588,0,0,1,5-5m-3,7h6V22a3,3,0,0,0-6,0v2m3-8a6.0068,6.0068,0,0,0-6,6v3a2.00228,2.00228,0,0,0,2,2h8a2.00228,2.00228,0,0,0,2-2V22a6.0068,6.0068,0,0,0-6-6Zm-2,7V22a2,2,0,0,1,4,0v1Z"/><path d="M37,22a2,2,0,0,1,2,2V40a2,2,0,0,1-2,2H11a2,2,0,0,1-2-2V24a2,2,0,0,1,2-2H37m0-1H11a3.00337,3.00337,0,0,0-3,3V40a3.00337,3.00337,0,0,0,3,3H37a3.00337,3.00337,0,0,0,3-3V24a3.00337,3.00337,0,0,0-3-3Z"/><path d="M17,22V42H14V22h3m1-1H13V43h5V21Z"/><path d="M34,22V42H31V22h3m1-1H30V43h5V21Z"/></g><g opacity=".07"><path d="M24,17a5.00588,5.00588,0,0,1,5,5v3a.99974.99974,0,0,1-1,1H20a.99974.99974,0,0,1-1-1V22a5.00588,5.00588,0,0,1,5-5m-3,7h6V22a3,3,0,0,0-6,0v2m3-7.5A5.50623,5.50623,0,0,0,18.5,22v3A1.50171,1.50171,0,0,0,20,26.5h8A1.50171,1.50171,0,0,0,29.5,25V22A5.50623,5.50623,0,0,0,24,16.5Zm-2.5,7V22a2.5,2.5,0,0,1,5,0v1.5Z"/><path d="M37,22a2,2,0,0,1,2,2V40a2,2,0,0,1-2,2H11a2,2,0,0,1-2-2V24a2,2,0,0,1,2-2H37m0-.5H11A2.50285,2.50285,0,0,0,8.5,24V40A2.50285,2.50285,0,0,0,11,42.5H37A2.50285,2.50285,0,0,0,39.5,40V24A2.50285,2.50285,0,0,0,37,21.5Z"/><path d="M17,22V42H14V22h3m.5-.5h-4v21h4v-21Z"/><path d="M34,22V42H31V22h3m.5-.5h-4v21h4v-21Z"/></g><path fill="#5c2415" d="M28,26H20a.99974.99974,0,0,1-1-1V22a5,5,0,0,1,10,0v3A.99974.99974,0,0,1,28,26Zm-7-2h6V22a3,3,0,0,0-6,0Z"/><rect width="30" height="20" x="9" y="22" fill="url(#5kYWLn~sN9Nz2m67mrDkNd)" rx="2"/><rect width="3" height="20" x="14" y="22" fill="#5c2415"/><rect width="3" height="20" x="31" y="22" fill="#5c2415"/></svg>