<svg xmlns="http://www.w3.org/2000/svg" viewBox="0 0 48 48"><linearGradient id="Vu_GRSQehebzWlrz8WIYha" x1="5.72" x2="38.394" y1="15.664" y2="48.338" gradientUnits="userSpaceOnUse"><stop offset="0" stop-color="#ffcf7b"/><stop offset=".196" stop-color="#fecd76"/><stop offset=".439" stop-color="#fac666"/><stop offset=".709" stop-color="#f3bc4d"/><stop offset=".995" stop-color="#eaad2a"/><stop offset="1" stop-color="#eaad29"/></linearGradient><path fill="url(#Vu_GRSQehebzWlrz8WIYha)" d="M5.113,41.663L18.27,8c12.297,0.946,19.865,12.297,22.703,21.757L6.331,42.928	C5.54,43.248,4.763,42.441,5.113,41.663z"/><path d="M38.1,30.62c-2.56-8.54-9.35-18.81-20.06-19.63c-0.3-0.02-0.59-0.09-0.86-0.2L17,11.26l-0.19,0.47 c0.37,0.14,0.75,0.23,1.15,0.26c10.21,0.78,16.71,10.68,19.18,18.92c0.03,0.09,0.06,0.18,0.1,0.27L37.7,31l0.48-0.18 C38.14,30.76,38.12,30.69,38.1,30.62z" opacity=".05"/><path d="M38.1,30.62c-2.56-8.54-9.35-18.81-20.06-19.63c-0.3-0.02-0.59-0.09-0.86-0.2L17,11.26c0.31,0.13,0.65,0.2,1,0.23 c10.46,0.8,17.1,10.88,19.62,19.27c0.02,0.08,0.05,0.16,0.08,0.24l0.48-0.18C38.14,30.76,38.12,30.69,38.1,30.62z" opacity=".07"/><linearGradient id="Vu_GRSQehebzWlrz8WIYhb" x1="11.586" x2="51.5" y1="-2.29" y2="37.623" gradientUnits="userSpaceOnUse"><stop offset="0" stop-color="#eba84b"/><stop offset=".255" stop-color="#e8a044"/><stop offset=".641" stop-color="#e18b30"/><stop offset="1" stop-color="#d97218"/></linearGradient><path fill="url(#Vu_GRSQehebzWlrz8WIYhb)" d="M41.962,32.58c-0.04,0.02-0.09,0.04-0.13,0.05c-0.28,0.09-0.57,0.13-0.86,0.13	c-1.29,0-2.48-0.84-2.87-2.14c-2.56-8.54-9.35-18.81-20.06-19.63c-1.65-0.13-2.89-1.57-2.76-3.22c0.02-0.25,0.07-0.5,0.15-0.73	c0.42-1.27,1.68-2.14,3.07-2.03c13.73,1.06,22.24,13.53,25.34,23.88C44.312,30.44,43.472,32.06,41.962,32.58z"/><linearGradient id="Vu_GRSQehebzWlrz8WIYhc" x1="10.412" x2="50.325" y1="-1.116" y2="38.798" gradientUnits="userSpaceOnUse"><stop offset="0" stop-color="#d4943b"/><stop offset="1" stop-color="#c2620e"/><stop offset="1" stop-color="#c2620e"/></linearGradient><path fill="url(#Vu_GRSQehebzWlrz8WIYhc)" d="M42.002,32c0,0.2-0.01,0.39-0.04,0.58c-0.04,0.02-0.09,0.04-0.13,0.05	c-0.28,0.09-0.57,0.13-0.86,0.13c-1.29,0-2.48-0.84-2.87-2.14c-2.56-8.54-9.35-18.81-20.06-19.63c-1.65-0.13-2.89-1.57-2.76-3.22	c0.02-0.25,0.07-0.5,0.15-0.73c0.19-0.03,0.38-0.04,0.57-0.04c1.645,0,3.089,0.805,3.996,2.032c0.272,0.368,0.749,0.501,1.174,0.33	C21.738,9.132,22.356,9,23.002,9c2.76,0,5,2,5,3.998c0,0.019-0.002-0.497-0.005,0c-0.003,0.56,0.453,1.001,1.013,1.002	c0.317,0.001,0.651,0.034,1.015,0.115c1.927,0.429,3.464,1.983,3.872,3.914c0.073,0.345,0.103,0.661,0.104,0.963	c0.001,0.56,0.44,1.015,0.999,1.013c0.793-0.003-0.023-0.006,0-0.006c2.001,0,4.001,2.24,4.001,5c0,0.486-0.076,0.95-0.21,1.391	c-0.143,0.47,0.054,0.961,0.491,1.184C40.895,28.4,42.002,30.067,42.002,32z"/><linearGradient id="Vu_GRSQehebzWlrz8WIYhd" x1="7.724" x2="39.572" y1="14.631" y2="46.478" gradientUnits="userSpaceOnUse"><stop offset="0" stop-color="#d4943b"/><stop offset="1" stop-color="#c2620e"/><stop offset="1" stop-color="#c2620e"/></linearGradient><path fill="url(#Vu_GRSQehebzWlrz8WIYhd)" d="M33.003,30c-0.362,0-0.711-0.197-0.889-0.54c-2.985-5.768-7.805-10.587-13.572-13.572	c-0.49-0.254-0.682-0.856-0.428-1.348c0.253-0.488,0.854-0.684,1.348-0.428c6.22,3.219,11.209,8.208,14.428,14.428	c0.254,0.491,0.063,1.094-0.428,1.348C33.314,29.964,33.157,30,33.003,30z M27.463,31.888c0.49-0.255,0.681-0.859,0.427-1.349	c-2.334-4.487-5.939-8.093-10.427-10.427c-0.491-0.255-1.094-0.063-1.349,0.427c-0.254,0.489-0.063,1.094,0.427,1.349	c4.12,2.143,7.431,5.453,9.573,9.573C26.293,31.804,26.641,32,27.003,32C27.158,32,27.315,31.964,27.463,31.888z M21.468,33.885	c0.489-0.258,0.677-0.862,0.419-1.351c-1.449-2.751-3.668-4.97-6.419-6.419c-0.487-0.257-1.094-0.07-1.351,0.419	c-0.258,0.488-0.07,1.093,0.419,1.351c2.392,1.26,4.321,3.189,5.581,5.581C20.296,33.806,20.643,34,21.003,34	C21.16,34,21.319,33.963,21.468,33.885z M16.477,36.88c0.486-0.263,0.667-0.87,0.404-1.355c-1.012-1.87-2.534-3.393-4.404-4.404	c-0.486-0.261-1.093-0.081-1.355,0.404s-0.082,1.093,0.404,1.355c1.526,0.825,2.771,2.069,3.596,3.596	C15.304,36.811,15.647,37,16.003,37C16.163,37,16.326,36.961,16.477,36.88z"/></svg>