<svg xmlns="http://www.w3.org/2000/svg" viewBox="0 0 48 48"><linearGradient id="MF6tQ20ojHK6scQyObYOja" x1="21.516" x2="45.592" y1="372.362" y2="336.327" gradientTransform="matrix(1 0 0 -1 0 390)" gradientUnits="userSpaceOnUse"><stop offset="0" stop-color="#28afea"/><stop offset="1" stop-color="#0b88da"/></linearGradient><path fill="url(#MF6tQ20ojHK6scQyObYOja)" d="M9,26l36-14.308V38c0,1.105-0.895,2-2,2H9V26z"/><linearGradient id="MF6tQ20ojHK6scQyObYOjb" x1="1.408" x2="36.331" y1="365.59" y2="343.836" gradientTransform="matrix(1 0 0 -1 0 390)" gradientUnits="userSpaceOnUse"><stop offset="0" stop-color="#28afea"/><stop offset="1" stop-color="#0b88da"/></linearGradient><path fill="url(#MF6tQ20ojHK6scQyObYOjb)" d="M3,11.692V38c0,1.105,0.895,2,2,2h38c0.491,0,0.935-0.184,1.283-0.478L3,11.692z"/><path d="M3,11h42v1.692l-17.32,13.45c-2.165,1.681-5.195,1.681-7.36,0L3,12.692V11	z" opacity=".05"/><path d="M3,10.5h42v1.692L26.966,25.304c-1.762,1.304-4.17,1.304-5.932,0L3,12.192	V10.5z" opacity=".07"/><path fill="#50e6ff" d="M5,8h38c1.105,0,2,0.895,2,2v1.692L26.252,24.466c-1.359,0.926-3.146,0.926-4.504,0L3,11.692V10	C3,8.895,3.895,8,5,8z"/><radialGradient id="MF6tQ20ojHK6scQyObYOjc" cx="38.003" cy="38.311" r="12.101" gradientUnits="userSpaceOnUse"><stop offset=".348"/><stop offset=".936" stop-opacity=".098"/><stop offset="1" stop-opacity="0"/></radialGradient><path fill="url(#MF6tQ20ojHK6scQyObYOjc)" d="M45,28.619c-1.955-1.461-4.372-2.337-7-2.337	c-6.472,0-11.718,5.246-11.718,11.718c0,0.683,0.071,1.349,0.183,2H45V28.619z" opacity=".3"/><linearGradient id="MF6tQ20ojHK6scQyObYOjd" x1="28" x2="48" y1="352" y2="352" gradientTransform="matrix(1 0 0 -1 0 390)" gradientUnits="userSpaceOnUse"><stop offset="0" stop-color="#f44f5a"/><stop offset=".443" stop-color="#ee3d4a"/><stop offset="1" stop-color="#e52030"/></linearGradient><circle cx="38" cy="38" r="10" fill="url(#MF6tQ20ojHK6scQyObYOjd)"/><path fill="#fff" d="M38.008,44c-0.439,0-0.802-0.147-1.087-0.441s-0.428-0.65-0.428-1.068	c0-0.436,0.144-0.794,0.433-1.073C37.213,41.139,37.575,41,38.008,41c0.439,0,0.799,0.141,1.079,0.423	c0.28,0.282,0.42,0.638,0.42,1.068c0,0.436-0.139,0.797-0.416,1.081S38.453,44,38.008,44z"/><path fill="#fff" d="M39.342,32.425l-0.289,7.182C39.044,39.827,38.86,40,38.637,40H37.33	c-0.224,0-0.407-0.174-0.416-0.394l-0.273-7.181C36.632,32.193,36.821,32,37.057,32h1.87C39.162,32,39.351,32.193,39.342,32.425z"/></svg>