<svg xmlns="http://www.w3.org/2000/svg" viewBox="0 0 48 48"><path fill="#b31523" d="M22,28c-0.552,0-1-0.448-1-1v-8c0-0.552,0.448-1,1-1s1,0.448,1,1v8C23,27.552,22.552,28,22,28z"/><path fill="#586169" d="M7,44H5c-0.552,0-1-0.448-1-1v-9.259c0-1.591,0.632-3.118,1.758-4.243l6.315-6.314l2.828,2.828	l-6.255,6.255C8.232,32.681,8,33.242,8,33.827V43C8,43.552,7.552,44,7,44z"/><path fill="#cf1928" d="M23.979,16.678l8.343,8.343L21.601,35.742C21.388,35.955,21.145,36,20.979,36	s-0.409-0.045-0.622-0.258l-3.891-3.891c-2.115-2.115-2.115-5.544,0-7.659L23.979,16.678 M21.979,9.021L8.429,22.571	c-1.906,1.906-1.906,4.996,0,6.901l9.099,9.099C18.481,39.524,19.73,40,20.979,40c1.249,0,2.498-0.476,3.451-1.429l13.549-13.549	L21.979,9.021L21.979,9.021z"/><path fill="#999" d="M31.936,13.936l-2.828-2.828l5.503-5.504C35.638,4.577,37.031,4,38.483,4H43c0.552,0,1,0.448,1,1v2	c0,0.552-0.448,1-1,1h-4.515c-0.393,0-0.769,0.156-1.047,0.434L31.936,13.936z"/><path fill="#d9414f" d="M21.657,7h5.686c1.061,0,2.078,0.421,2.828,1.172l8.657,8.657c0.75,0.75,1.172,1.768,1.172,2.828	v5.686c0,1.061-0.421,2.078-1.172,2.828l-2.103,2.103c-0.953,0.953-2.498,0.953-3.451,0l-16.55-16.549	c-0.953-0.953-0.953-2.498,0-3.451l2.104-2.104C19.579,7.421,20.596,7,21.657,7z"/></svg>