<svg xmlns="http://www.w3.org/2000/svg" id="Layer_1" x="0" y="0" version="1.1" viewBox="0 0 48 48" xml:space="preserve"><linearGradient id="SVGID_1_" x1="-53.969" x2="-25.89" y1="-228.031" y2="-256.11" gradientTransform="rotate(90 -141 -77)" gradientUnits="userSpaceOnUse"><stop offset="0" stop-color="#fede00"/><stop offset=".519" stop-color="#fecc00"/><stop offset="1" stop-color="#ffb700"/></linearGradient><path fill="url(#SVGID_1_)" d="M24,44c11,0,20-9,20-20S35,4,24,4S4,13,4,24S13,44,24,44z"/><path fill="#fafafa" d="M37,18l-11,4c0,0,2.7,4.5,7.1,2.4C36.2,22.9,37,18,37,18z"/><path fill="#fafafa" d="M11,18l11,4c0,0-2.7,4.5-7.1,2.4C11.8,22.9,11,18,11,18z"/><path fill="#343434" d="M44,23.4V4.6c0-0.8-0.8-1.3-1.5-0.9l-7.6,4.6l6.6,8.1L44,23.4z"/><path fill="#343434" d="M4,23.4V4.6c0-0.8,0.8-1.3,1.5-0.9l7.6,4.6l-6.6,8.1L4,23.4z"/><path fill="#343434" d="M43,17.7l-6.7-9.4C32.9,5.6,28.6,4,24,4s-8.9,1.6-12.3,4.3L5,17.7c-0.7,2-1,4.1-1,6.3c0,0.7,0,1.3,0.1,2	L19,28l5,2l5-2l14.9-2c0.1-0.7,0.1-1.3,0.1-2C44,21.8,43.6,19.7,43,17.7z"/><path fill="#fafafa" d="M37,18l-11,4c0,0,2.7,4.5,7.1,2.4C36.2,22.9,37,18,37,18z"/><path fill="#fafafa" d="M11,18l11,4c0,0-2.7,4.5-7.1,2.4C11.8,22.9,11,18,11,18z"/><path fill="#343434" d="M31.8,36.7c0.4-0.4,0.3-1-0.1-1.4c-2.1-1.9-4.8-2.9-7.7-2.9s-5.5,1-7.7,2.9c-0.4,0.4-0.5,1-0.1,1.4	c0.4,0.4,1,0.5,1.4,0.1c1.8-1.5,4-2.4,6.3-2.4s4.6,0.9,6.3,2.4c0.2,0.2,0.4,0.3,0.7,0.3C31.3,37,31.6,36.9,31.8,36.7z"/><circle cx="17" cy="21" r="2" fill="#343434"/><circle cx="31" cy="21" r="2" fill="#343434"/></svg>