<svg xmlns="http://www.w3.org/2000/svg" viewBox="0 0 48 48"><path fill="#64717c" d="M28,21c-0.552,0-1,0.448-1,1v20c0,0.552,0.448,1,1,1s1-0.448,1-1V22C29,21.448,28.552,21,28,21z"/><path fill="#64717c" d="M39,4c-0.552,0-1,0.448-1,1v18c0,0.552,0.448,1,1,1s1-0.448,1-1V5C40,4.448,39.552,4,39,4z"/><path fill="#64717c" d="M16,7c-0.552,0-1,0.448-1,1v15c0,0.552,0.448,1,1,1s1-0.448,1-1V8C17,7.448,16.552,7,16,7z"/><path fill="#64717c" d="M9,27c-0.552,0-1,0.448-1,1v15c0,0.552,0.448,1,1,1s1-0.448,1-1V28C10,27.448,9.552,27,9,27z"/><path fill="#33c481" d="M36,7h6c1.1,0,2,0.9,2,2v10c0,1.1-0.9,2-2,2h-6c-1.1,0-2-0.9-2-2V9C34,7.9,34.9,7,36,7z"/><path fill="#33c481" d="M13,10h6c1.1,0,2,0.9,2,2v7c0,1.1-0.9,2-2,2h-6c-1.1,0-2-0.9-2-2v-7C11,10.9,11.9,10,13,10z"/><path fill="#cf1928" d="M6,30h6c1.1,0,2,0.9,2,2v7c0,1.1-0.9,2-2,2H6c-1.1,0-2-0.9-2-2v-7C4,30.9,4.9,30,6,30z"/><path fill="#cf1928" d="M25,24h6c1.1,0,2,0.9,2,2v12c0,1.1-0.9,2-2,2h-6c-1.1,0-2-0.9-2-2V26C23,24.9,23.9,24,25,24z"/></svg>