<svg xmlns="http://www.w3.org/2000/svg" viewBox="0 0 48 48"><path fill="#5059c9" d="M6,13.5C6,9.358,9.358,6,13.5,6h21c4.142,0,7.5,3.358,7.5,7.5v21c0,4.142-3.358,7.5-7.5,7.5h-21 C9.358,42,6,38.642,6,34.5V13.5z"/><path fill-rule="evenodd" d="M24,37.95c-1.379,0-2.5-1.121-2.5-2.5s1.121-2.5,2.5-2.5 c3.711,0,6.261-0.903,7.373-2.612c0.384-0.592,0.536-1.189,0.597-1.587c0.031-0.211,0.04-0.384,0.041-0.496l-0.003-0.111 c-0.121-1.327,0.884-2.545,2.243-2.68c0.084-0.009,0.168-0.014,0.252-0.014c1.14,0,2.131,0.774,2.415,1.863l0.045,0.045l0.03,0.237 v0.207l0.009,0.095c0.006,0.107,0.009,0.236,0.008,0.393c-0.003,0.394-0.035,0.798-0.097,1.203 c-0.132,0.884-0.473,2.222-1.349,3.569C34.116,35.292,30.935,37.95,24,37.95z M21,28.95c-1.379,0-2.5-1.121-2.5-2.5 s1.121-2.5,2.5-2.5h2.134L20.81,13.492c-0.299-1.346,0.553-2.684,1.898-2.983c0.178-0.04,0.36-0.06,0.543-0.06 c1.161,0,2.187,0.824,2.439,1.958l3,13.5c0.166,0.745-0.013,1.513-0.491,2.107c-0.476,0.594-1.187,0.935-1.949,0.935H21z M34.5,23.7c-1.379,0-2.5-1.121-2.5-2.5v-4.5c0-1.379,1.121-2.5,2.5-2.5s2.5,1.121,2.5,2.5v4.5C37,22.579,35.879,23.7,34.5,23.7z M13.5,23.7c-1.379,0-2.5-1.121-2.5-2.5v-4.5c0-1.379,1.121-2.5,2.5-2.5s2.5,1.121,2.5,2.5v4.5C16,22.579,14.879,23.7,13.5,23.7z" clip-rule="evenodd" opacity=".05"/><path fill-rule="evenodd" d="M24,37.45c-1.103,0-2-0.897-2-2s0.897-2,2-2 c3.889,0,6.583-0.982,7.792-2.84c0.434-0.667,0.604-1.339,0.672-1.785c0.036-0.241,0.046-0.438,0.047-0.566l-0.003-0.127 c-0.099-1.089,0.706-2.062,1.793-2.171c0.067-0.007,0.135-0.011,0.202-0.011c0.967,0,1.779,0.683,1.96,1.615l0.03,0.03v0.207 l0.01,0.132c0.005,0.09,0.008,0.208,0.007,0.353c-0.003,0.367-0.033,0.748-0.091,1.132c-0.125,0.837-0.448,2.101-1.273,3.371 C33.765,34.916,30.709,37.45,24,37.45z M21,28.45c-1.103,0-2-0.897-2-2s0.897-2,2-2h2.757l-2.459-11.066 c-0.239-1.077,0.442-2.147,1.519-2.386c0.143-0.032,0.289-0.048,0.435-0.048c0.929,0,1.749,0.659,1.951,1.567l3,13.5 c0.133,0.595-0.01,1.21-0.393,1.686c-0.381,0.476-0.949,0.748-1.56,0.748H21z M34.5,23.2c-1.103,0-2-0.897-2-2v-4.5 c0-1.103,0.897-2,2-2s2,0.897,2,2v4.5C36.5,22.303,35.603,23.2,34.5,23.2z M13.5,23.2c-1.103,0-2-0.897-2-2v-4.5 c0-1.103,0.897-2,2-2s2,0.897,2,2v4.5C15.5,22.303,14.603,23.2,13.5,23.2z" clip-rule="evenodd" opacity=".07"/><path fill="#f9f9f9" fill-rule="evenodd" d="M22.925,11.486c0.809-0.18,1.61,0.33,1.79,1.139l3,13.5 c0.099,0.444-0.01,0.909-0.294,1.264c-0.285,0.355-0.715,0.561-1.17,0.561H21c-0.828,0-1.5-0.672-1.5-1.5s0.672-1.5,1.5-1.5h3.38 l-2.594-11.675C21.606,12.467,22.116,11.666,22.925,11.486z M15,16.7c0-0.828-0.672-1.5-1.5-1.5S12,15.872,12,16.7v4.5 c0,0.828,0.672,1.5,1.5,1.5s1.5-0.672,1.5-1.5V16.7z M36,16.7c0-0.828-0.672-1.5-1.5-1.5S33,15.872,33,16.7v4.5 c0,0.828,0.672,1.5,1.5,1.5s1.5-0.672,1.5-1.5V16.7z M35.993,27.801c-0.082-0.824-0.817-1.426-1.642-1.343 c-0.82,0.082-1.419,0.809-1.345,1.628l0.001,0.024c0.002,0.028,0.003,0.08,0.003,0.152c-0.001,0.145-0.012,0.366-0.052,0.638 c-0.082,0.547-0.282,1.267-0.747,1.983c-0.87,1.338-2.945,3.068-8.211,3.068c-0.828,0-1.5,0.672-1.5,1.5s0.672,1.5,1.5,1.5 c5.984,0,9.159-2.021,10.726-4.432c0.754-1.159,1.069-2.313,1.199-3.173c0.065-0.431,0.083-0.796,0.085-1.061 c0.001-0.133-0.002-0.242-0.006-0.324c-0.002-0.041-0.004-0.075-0.006-0.101l-0.003-0.034l-0.001-0.013l-0.001-0.005l0-0.002 C35.993,27.802,35.993,27.801,35.993,27.801z" clip-rule="evenodd"/></svg>