<svg xmlns="http://www.w3.org/2000/svg" viewBox="0 0 48 48"><linearGradient id="KW4RdAj16nGGGUzGJDwzSa" x1="24.271" x2="26.691" y1="20.273" y2="22.693" gradientUnits="userSpaceOnUse"><stop offset="0" stop-color="#ffd869"/><stop offset="1" stop-color="#fec52b"/></linearGradient><path fill="url(#KW4RdAj16nGGGUzGJDwzSa)" d="M43.778,5.602c0.307-0.393,0.295-0.953-0.066-1.314c-0.363-0.364-0.931-0.374-1.323-0.06	L8.349,36.809c-0.042,0.039-0.086,0.082-0.125,0.125c-0.75,0.818-0.693,2.091,0.125,2.84c0.818,0.75,2.09,0.693,2.839-0.125	L43.376,6.038l0.336-0.335c0.015-0.015,0.02-0.034,0.033-0.05l0.041-0.043L43.778,5.602z"/><linearGradient id="KW4RdAj16nGGGUzGJDwzSb" x1="18.259" x2="10.732" y1="39.72" y2="32.193" gradientUnits="userSpaceOnUse"><stop offset=".002" stop-color="#3b3b3b"/><stop offset=".013" stop-color="#3c3c3c"/><stop offset=".875" stop-color="#585858"/><stop offset="1" stop-color="#636363"/></linearGradient><path fill="url(#KW4RdAj16nGGGUzGJDwzSb)" d="M19.163,26.396l-9.924,9.517c-1.401,0.913-3.301-0.018-3.631,0.313	c-0.646,0.647-1.157,3.917,0.546,5.617c1.703,1.705,4.97,1.196,5.616,0.551c0.257-0.262-0.83-2.211,0.299-3.649l9.516-9.926	L19.163,26.396z"/></svg>