<svg xmlns="http://www.w3.org/2000/svg" viewBox="0 0 48 48"><linearGradient id="oIuA1TCrvTmkCTEfeQBHla" x1="12.958" x2="32.958" y1="3.524" y2="32.205" gradientUnits="userSpaceOnUse"><stop offset="0" stop-color="#5c65d6"/><stop offset=".999" stop-color="#464eb0"/></linearGradient><path fill="url(#oIuA1TCrvTmkCTEfeQBHla)" d="M45,31.838V10c0-0.552-0.448-1-1-1H13.573L13,9.938l1.718,1.771 C14.899,11.896,15,12.145,15,12.405v2.972c0,0.115,0.02,0.229,0.059,0.337l0.483,1.348L16,17.531V18l-1,1l-0.953-1.375 c-0.085-0.123-0.198-0.226-0.328-0.3l-0.725-0.411c-0.073-0.041-0.14-0.091-0.2-0.149L12,16v-1l-0.906,0.34 c-0.062,0.023-0.122,0.053-0.179,0.088L10,16H9l-2.352-0.235c-0.098-0.01-0.194-0.034-0.285-0.072l-1.274-0.531 c-0.059-0.025-0.115-0.055-0.168-0.09l-0.874-0.58c-0.118-0.078-0.217-0.18-0.293-0.299L3,13H2v3.586 c0,0.265,0.105,0.52,0.293,0.707l0.511,0.511c0.128,0.128,0.219,0.289,0.263,0.465L4,22v1l0.673,2.054 c0.051,0.154,0.138,0.294,0.254,0.407L6,26.5l-0.53,0.331C5.178,27.014,5,27.334,5,27.679V29h1v1l-0.579,0.412 C5.157,30.6,5,30.903,5,31.227v0.359c0,0.265,0.105,0.52,0.293,0.707h0c0.391,0.391,1.024,0.391,1.414,0h0 C6.895,32.105,7.149,32,7.414,32H7.75c0.315,0,0.611,0.148,0.8,0.4l0.15,0.2C8.889,32.852,9.185,33,9.5,33h0.258 c0.31,0,0.603,0.144,0.792,0.39l0.793,1.03c0.091,0.118,0.154,0.254,0.185,0.399L12,37v1l0.625,0.625l1.647,0.335 c0.13,0.026,0.263,0.027,0.393,0.001l1.928-0.381c0.261-0.052,0.491-0.205,0.638-0.426l0.473-0.709 C17.889,37.167,18.201,37,18.535,37h1.229c0.155,0,0.308,0.036,0.447,0.106l1.494,0.747c0.191,0.096,0.408,0.127,0.619,0.091 l1.331-0.232L24.375,37l0.761,0.677c0.23,0.204,0.54,0.291,0.843,0.237l0.777-0.141c0.219-0.04,0.418-0.151,0.567-0.317L28.625,36 l0.546,0.546c0.277,0.277,0.689,0.367,1.056,0.23l4.604-1.713C34.943,35.021,35.061,35,35.18,35h9.433 c0.683,0,1.165-0.669,0.949-1.316l-0.51-1.53C45.017,32.052,45,31.945,45,31.838z"/><linearGradient id="oIuA1TCrvTmkCTEfeQBHlb" x1="5.922" x2="25.922" y1="8.43" y2="37.111" gradientUnits="userSpaceOnUse"><stop offset="0" stop-color="#5c65d6"/><stop offset=".999" stop-color="#464eb0"/></linearGradient><path fill="url(#oIuA1TCrvTmkCTEfeQBHlb)" d="M6.923,10.865l1.459-0.608c0.374-0.156,0.805-0.071,1.092,0.216L10,11l-0.311,0.83 c-0.042,0.112-0.064,0.231-0.064,0.351v1.194L8.75,14l-1.167-0.424c-0.137-0.05-0.262-0.129-0.365-0.233L6.765,12.89 c-0.092-0.092-0.166-0.202-0.216-0.322l-0.164-0.394C6.172,11.663,6.413,11.078,6.923,10.865z"/></svg>