<svg xmlns="http://www.w3.org/2000/svg" viewBox="0 0 48 48"><rect width="28" height="12" x="10" y="31" fill="#0078d4"/><path fill="#199be2" d="M14,9h20V7c0-1.104-0.896-2-2-2H16c-1.104,0-2,0.896-2,2V9z"/><path fill="#199be2" d="M10,11v20h28V11H10z"/><rect width="4" height="4" x="14" y="35" fill="#005094"/><rect width="6" height="8" x="21" y="35" fill="#005094"/><rect width="4" height="4" x="14" y="23" fill="#0d62ab"/><rect width="4" height="4" x="22" y="23" fill="#0d62ab"/><rect width="4" height="4" x="14" y="15" fill="#0d62ab"/><rect width="4" height="4" x="22" y="15" fill="#0d62ab"/><rect width="4" height="4" x="30" y="15" fill="#0d62ab"/><path fill="#35c1f1" d="M38,11H10c-0.553,0-1-0.448-1-1s0.447-1,1-1h28c0.553,0,1,0.448,1,1S38.553,11,38,11z"/><linearGradient id="_2L4k3bEVCF_OtUOwQZXoa" x1="32.909" x2="35.636" y1="36.118" y2="45.499" gradientUnits="userSpaceOnUse"><stop offset="0" stop-color="#8795a1"/><stop offset="1" stop-color="#6d7882"/></linearGradient><path fill="url(#_2L4k3bEVCF_OtUOwQZXoa)" d="M35,36.429c-5.523,0-10,3.254-10,6.607V44c0,0.552,0.448,1,1,1h18c0.552,0,1-0.448,1-1 v-0.964C45,39.683,40.523,36.429,35,36.429z"/><path fill="#fff" d="M38,36.848C38,41.595,35,44,35,44s-3-2.405-3-7.152c0-1.582,0-2.448,0-2.448h6 C38,34.4,38,35.265,38,36.848z"/><path fill="#d32f2f" d="M33.8,39.8l0.6,0.6l-0.468,2.428C34.512,43.604,35,44,35,44s0.488-0.396,1.068-1.172L35.6,40.4 l0.6-0.6L35,39L33.8,39.8z"/><path fill="#d6a121" d="M38,36.6c0,1.138-1.2,2.4-3,2.4s-3-1.262-3-2.4c0-1.582,0-4.221,0-4.221h6 C38,32.379,38,35.018,38,36.6z"/><linearGradient id="_2L4k3bEVCF_OtUOwQZXob" x1="39.756" x2="40.804" y1="31.5" y2="31.5" gradientUnits="userSpaceOnUse"><stop offset="0" stop-color="#c48f0c"/><stop offset=".251" stop-color="#d19b16"/><stop offset=".619" stop-color="#dca51f"/><stop offset="1" stop-color="#e0a922"/></linearGradient><path fill="url(#_2L4k3bEVCF_OtUOwQZXob)" d="M40.095,30h-0.754v3h0.855c0.294,0,0.545-0.234,0.595-0.555l0.197-1.277 C41.081,30.557,40.655,30,40.095,30z"/><linearGradient id="_2L4k3bEVCF_OtUOwQZXoc" x1="-1068.733" x2="-1067.685" y1="31.5" y2="31.5" gradientTransform="matrix(-1 0 0 1 -1038.49 0)" gradientUnits="userSpaceOnUse"><stop offset="0" stop-color="#c48f0c"/><stop offset=".251" stop-color="#d19b16"/><stop offset=".619" stop-color="#dca51f"/><stop offset="1" stop-color="#e0a922"/></linearGradient><path fill="url(#_2L4k3bEVCF_OtUOwQZXoc)" d="M29.905,30h0.754v3h-0.855c-0.294,0-0.545-0.234-0.595-0.555l-0.197-1.277 C28.919,30.557,29.345,30,29.905,30z"/><radialGradient id="_2L4k3bEVCF_OtUOwQZXod" cx="44.202" cy="19.67" r="7.438" gradientTransform="matrix(.805 0 0 .805 -.581 14.333)" gradientUnits="userSpaceOnUse"><stop offset="0" stop-color="#ffcf54"/><stop offset=".261" stop-color="#fdcb4d"/><stop offset=".639" stop-color="#f7c13a"/><stop offset="1" stop-color="#f0b421"/></radialGradient><path fill="url(#_2L4k3bEVCF_OtUOwQZXod)" d="M35,23.333c-2.467,0-5,0.375-5,5.708c0,0.427,0,3.265,0,3.721C30,34.667,33,37,35,37 s5-2.333,5-4.237c0-0.456,0-3.294,0-3.721C40,23.708,37.467,23.333,35,23.333z"/><radialGradient id="_2L4k3bEVCF_OtUOwQZXoe" cx="37.826" cy="11.304" r="19.47" gradientTransform="matrix(.805 0 0 .8669 -.581 12.974)" gradientUnits="userSpaceOnUse"><stop offset="0" stop-color="#c26715"/><stop offset=".508" stop-color="#b85515"/><stop offset="1" stop-color="#ad3f16"/></radialGradient><path fill="url(#_2L4k3bEVCF_OtUOwQZXoe)" d="M35,22c-2.387,0-3,1-3,1c-1.429,0-3,0.945-3,4c0,1.113,0.286,2.692,1,5 c0.341-4.406,1.048-6.587,2.143-6.587C32.935,25.413,33.646,26,35,26s2.362-0.587,2.857-0.587C39.732,25.413,40,31.305,40,32 c0.714-2.308,1-4.027,1-5C41,23.92,38.881,22,35,22z"/><radialGradient id="_2L4k3bEVCF_OtUOwQZXof" cx="46.669" cy="12.316" r="21.61" gradientTransform="matrix(.7698 0 0 .805 -1.849 14.333)" gradientUnits="userSpaceOnUse"><stop offset="0" stop-color="#c26715"/><stop offset=".508" stop-color="#b85515"/><stop offset="1" stop-color="#ad3f16"/></radialGradient><path fill="url(#_2L4k3bEVCF_OtUOwQZXof)" d="M35,22c-2.602,0-3,1-3,1c-0.026,0.724,0.143,1.286,0.143,1.286S32.589,26,35.301,26 C36.939,26,39,24.728,39,22C39,22,38.711,22,35,22z"/></svg>