<svg xmlns="http://www.w3.org/2000/svg" viewBox="0 0 48 48"><linearGradient id="vC4lQq2vZ6HBwfu4wlUoOa" x1="24" x2="24" y1="39.92" y2="19.584" gradientUnits="userSpaceOnUse"><stop offset="0" stop-color="#3940a4"/><stop offset="1" stop-color="#293091"/></linearGradient><path fill="url(#vC4lQq2vZ6HBwfu4wlUoOa)" d="M14.99,19.727h18.02V40H14.99V19.727z"/><linearGradient id="vC4lQq2vZ6HBwfu4wlUoOb" x1="15.5" x2="15.5" y1="5.201" y2="41.906" gradientUnits="userSpaceOnUse"><stop offset="0" stop-color="#7b83eb"/><stop offset="1" stop-color="#5961c3"/></linearGradient><path fill="url(#vC4lQq2vZ6HBwfu4wlUoOb)" d="M23.648,5.063c-0.169,0.063-4.19,1.591-8.264,4.773C9.899,14.122,7,19.365,7,25	c0,3.025,0.812,5.988,2.354,8.604L7.09,38.586c-0.211,0.463-0.04,1.01,0.396,1.271c0.187,0.112,4.121,2.44,9.266,3.015	C17.946,43.006,19,42.086,19,40.884v-7.227c-0.691-0.691-2.32-2.32-2.828-2.828c-1.562-1.562-1.562-4.095,0-5.657	c1.562-1.562,4.095-1.562,5.657,0c0.381,0.381,1.394,1.394,2.172,2.172V5C23.881,5,23.762,5.021,23.648,5.063z"/><linearGradient id="vC4lQq2vZ6HBwfu4wlUoOc" x1="21.671" x2="39.544" y1="6.587" y2="39.478" gradientUnits="userSpaceOnUse"><stop offset="0" stop-color="#7b83eb"/><stop offset="1" stop-color="#5961c3"/></linearGradient><path fill="url(#vC4lQq2vZ6HBwfu4wlUoOc)" d="M26.012,25.332c1.532-1.532,4.051-1.758,5.661-0.308c1.717,1.546,1.769,4.192,0.156,5.805	c-0.508,0.508-2.137,2.137-2.828,2.828v7.227c0,1.202,1.054,2.122,2.249,1.988c5.145-0.575,9.079-2.903,9.266-3.015	c0.436-0.262,0.606-0.809,0.396-1.271l-2.264-4.981C40.187,30.988,41,28.025,41,25c0-5.635-2.899-10.878-8.385-15.163	c-4.073-3.183-8.095-4.71-8.264-4.773C24.238,5.021,24.119,5,24,5v22.343l0,0L26.012,25.332z"/><linearGradient id="vC4lQq2vZ6HBwfu4wlUoOd" x1="32.5" x2="32.5" y1="5" y2="43.088" gradientUnits="userSpaceOnUse"><stop offset="0" stop-color="#5c65d6"/><stop offset=".999" stop-color="#464eb0"/></linearGradient><path fill="url(#vC4lQq2vZ6HBwfu4wlUoOd)" d="M26.012,25.332c1.532-1.532,4.051-1.758,5.661-0.308c1.717,1.546,1.769,4.192,0.156,5.805	c-0.508,0.508-2.137,2.137-2.828,2.828v7.227c0,1.202,1.054,2.122,2.249,1.988c5.145-0.575,9.079-2.903,9.266-3.015	c0.436-0.262,0.606-0.809,0.396-1.271l-2.264-4.981C40.187,30.988,41,28.025,41,25c0-5.635-2.899-10.878-8.385-15.163	c-4.073-3.183-8.095-4.71-8.264-4.773C24.238,5.021,24.119,5,24,5v22.343l0,0L26.012,25.332z"/><path fill="#3940a4" d="M24,16v2c0.552,0,1-0.448,1-1S24.552,16,24,16z"/><path fill="#5961c3" d="M24,18v-2c-0.552,0-1,0.448-1,1S23.448,18,24,18z"/><circle cx="28" cy="17" r="1" fill="#3940a4"/><circle cx="32" cy="17" r="1" fill="#3940a4"/><circle cx="36" cy="17" r="1" fill="#3940a4"/><circle cx="12" cy="17" r="1" fill="#5961c3"/><circle cx="20" cy="17" r="1" fill="#5961c3"/><circle cx="16" cy="17" r="1" fill="#5961c3"/></svg>