<svg xmlns="http://www.w3.org/2000/svg" viewBox="0 0 48 48"><rect width="2" height="29.213" x="10" y="8.383" fill="#d3d1d1"/><rect width="2" height="23" x="32" y="15" fill="#d3d1d1"/><rect width="2" height="20" x="21" y="10" fill="#d3d1d1"/><linearGradient id="ez8VpKS2zwefDgTwlhPzDa" x1="21.602" x2="31.091" y1="-.672" y2="18.95" gradientUnits="userSpaceOnUse"><stop offset="0" stop-color="#ffcf54"/><stop offset=".261" stop-color="#fdcb4d"/><stop offset=".639" stop-color="#f7c13a"/><stop offset="1" stop-color="#f0b421"/></linearGradient><path fill="url(#ez8VpKS2zwefDgTwlhPzDa)" d="M38,2l-4,2h-2H22h-8.5C12.672,4,12,4.672,12,5.5S12.672,7,13.5,7h-2 C10.672,7,10,7.672,10,8.5s0.672,1.5,1.5,1.5h8.691l-4.877,2.095c-0.761,0.327-1.113,1.209-0.786,1.97 c0.327,0.761,1.209,1.113,1.97,0.786L23.136,12h9.035l-2.631,2.631c-0.704,0.704-0.876,1.839-0.294,2.647 c0.742,1.03,2.188,1.116,3.047,0.257l4.573-4.435C37.591,12.397,38,11.43,38,10.42V10l4-2L38,2z"/><circle cx="31" cy="16" r="1" fill="#ffde87"/><linearGradient id="ez8VpKS2zwefDgTwlhPzDb" x1="12" x2="22.303" y1="9.497" y2="9.497" gradientUnits="userSpaceOnUse"><stop offset="0" stop-color="#f0b421" stop-opacity="0"/><stop offset=".512" stop-color="#e9ab12" stop-opacity=".512"/><stop offset="1" stop-color="#e09f00"/></linearGradient><polygon fill="url(#ez8VpKS2zwefDgTwlhPzDb)" points="22.303,8.995 20.181,10 12,10"/><linearGradient id="ez8VpKS2zwefDgTwlhPzDc" x1="12" x2="19.525" y1="6.011" y2="6.011" gradientUnits="userSpaceOnUse"><stop offset="0" stop-color="#f0b421" stop-opacity="0"/><stop offset=".512" stop-color="#e9ab12" stop-opacity=".512"/><stop offset="1" stop-color="#e09f00"/></linearGradient><path fill="url(#ez8VpKS2zwefDgTwlhPzDc)" d="M13.5,7H22l-9.915-1.979C12.034,5.172,12,5.332,12,5.5C12,6.328,12.672,7,13.5,7z"/><circle cx="22" cy="32" r="3" fill="#586169"/><path fill="#586169" d="M16.5,42c-0.269,0-0.536-0.072-0.771-0.214l-5-3c-0.711-0.426-0.941-1.348-0.515-2.058 s1.35-0.941,2.058-0.515l4.408,2.645l12.846-4.281c0.481-0.161,1.014-0.066,1.412,0.252l5,4c0.646,0.518,0.751,1.461,0.233,2.108 c-0.517,0.646-1.459,0.753-2.108,0.233l-4.362-3.49l-12.726,4.242C16.819,41.975,16.659,42,16.5,42z"/><path fill="#586169" d="M27.679,44.815l-1.673-8.861l-5.761,1.812l1.399,7.419C21.732,45.658,22.145,46,22.626,46h4.07 C27.323,46,27.795,45.43,27.679,44.815z"/></svg>