<svg xmlns="http://www.w3.org/2000/svg" viewBox="0 0 48 48"><linearGradient id="oT1K~VNT4keBpeqfrIacPa" x1="29.03" x2="29.03" y1=".191" y2="28.174" gradientUnits="userSpaceOnUse"><stop offset="0" stop-color="#dfe9f2"/><stop offset=".391" stop-color="#d6e0e9"/><stop offset="1" stop-color="#bfc8d1"/></linearGradient><ellipse cx="29.03" cy="14" fill="url(#oT1K~VNT4keBpeqfrIacPa)" rx="4" ry="10"/><linearGradient id="oT1K~VNT4keBpeqfrIacPb" x1="5.677" x2="30.632" y1="32" y2="32" gradientUnits="userSpaceOnUse"><stop offset="0" stop-color="#dfe9f2"/><stop offset=".391" stop-color="#d6e0e9"/><stop offset="1" stop-color="#bfc8d1"/></linearGradient><ellipse cx="17.03" cy="32" fill="url(#oT1K~VNT4keBpeqfrIacPb)" rx="9" ry="4"/><linearGradient id="oT1K~VNT4keBpeqfrIacPc" x1="20.247" x2="2.997" y1="9.864" y2="27.114" gradientUnits="userSpaceOnUse"><stop offset="0" stop-color="#dfe9f2"/><stop offset=".391" stop-color="#d6e0e9"/><stop offset="1" stop-color="#bfc8d1"/></linearGradient><path fill="url(#oT1K~VNT4keBpeqfrIacPc)" d="M14.23,21.21c-3.91,3.91-8.27,5.88-9.74,4.41l-0.04-0.04c-1.4-1.5,0.57-5.82,4.45-9.7	c3.87-3.87,8.19-5.85,9.69-4.43c0.02,0.01,0.03,0.02,0.04,0.03C20.1,12.95,18.13,17.31,14.23,21.21z"/><path fill="#bfc8d1" d="M33.03,14c0,5.52-1.79,10-4,10V4C31.24,4,33.03,8.48,33.03,14z"/><path fill="#bfc8d1" d="M14.23,21.21c-3.91,3.91-8.27,5.88-9.74,4.41l-0.04-0.04l14.14-14.13c0.02,0.01,0.03,0.02,0.04,0.03	C20.1,12.95,18.13,17.31,14.23,21.21z"/><linearGradient id="oT1K~VNT4keBpeqfrIacPd" x1="44.16" x2="26.91" y1="27.757" y2="45.007" gradientUnits="userSpaceOnUse"><stop offset="0" stop-color="#dfe9f2"/><stop offset=".391" stop-color="#d6e0e9"/><stop offset="1" stop-color="#bfc8d1"/></linearGradient><path fill="url(#oT1K~VNT4keBpeqfrIacPd)" d="M38.143,39.103c-3.91,3.91-8.27,5.88-9.74,4.41l-0.04-0.04c-1.4-1.5,0.57-5.82,4.45-9.7	c3.87-3.87,8.19-5.85,9.69-4.43c0.02,0.01,0.03,0.02,0.04,0.03C44.013,30.843,42.043,35.203,38.143,39.103z"/><path fill="#bfc8d1" d="M38.143,39.103c-3.91,3.91-8.27,5.88-9.74,4.41l-0.04-0.04l14.14-14.13	c0.02,0.01,0.03,0.02,0.04,0.03C44.013,30.843,42.043,35.203,38.143,39.103z"/><path fill="#bfc8d1" d="M26.03,32c0,2.21-4.03,4-9,4s-9-1.79-9-4H26.03z"/></svg>