<svg xmlns="http://www.w3.org/2000/svg" viewBox="0 0 48 48"><linearGradient id="Zy1174uv8VCoW97f9Q~FIa" x1="19.596" x2="27.596" y1="39" y2="39" gradientTransform="rotate(-90 24 24)" gradientUnits="userSpaceOnUse"><stop offset="0" stop-color="#7819a2"/><stop offset="1" stop-color="#771aa9"/></linearGradient><path fill="url(#Zy1174uv8VCoW97f9Q~FIa)" d="M43,24.406c0,2.207-1.791,3.998-4,3.998c-2.21,0-4-1.791-4-3.998c0-2.211,1.79-4.002,4-4.002	C41.209,20.404,43,22.195,43,24.406z"/><linearGradient id="Zy1174uv8VCoW97f9Q~FIb" x1="36" x2="42" y1="23.404" y2="23.404" gradientTransform="rotate(-90 24 24)" gradientUnits="userSpaceOnUse"><stop offset="0" stop-color="#912fbd"/><stop offset="1" stop-color="#9332bf"/></linearGradient><path fill="url(#Zy1174uv8VCoW97f9Q~FIb)" d="M20.404,9c0,1.657,1.343,3,3,3s3-1.343,3-3s-1.343-3-3-3S20.404,7.343,20.404,9z"/><linearGradient id="Zy1174uv8VCoW97f9Q~FIc" x1="31.516" x2="37.516" y1="12.498" y2="12.498" gradientTransform="rotate(-90 24 24)" gradientUnits="userSpaceOnUse"><stop offset="0" stop-color="#912fbd"/><stop offset="1" stop-color="#9332bf"/></linearGradient><path fill="url(#Zy1174uv8VCoW97f9Q~FIc)" d="M15.498,13.482c0,1.659-1.344,3.002-3,3.002s-3-1.343-3-3.002c0-1.654,1.344-2.998,3-2.998	S15.498,11.828,15.498,13.482z"/><linearGradient id="Zy1174uv8VCoW97f9Q~FId" x1="20.596" x2="26.596" y1="8" y2="8" gradientTransform="rotate(-90 24 24)" gradientUnits="userSpaceOnUse"><stop offset="0" stop-color="#ae4cd5"/><stop offset="1" stop-color="#ac4ad5"/></linearGradient><path fill="url(#Zy1174uv8VCoW97f9Q~FId)" d="M11,24.406c0,1.654-1.344,2.998-3.002,2.998C6.343,27.404,5,26.061,5,24.406	c0-1.66,1.343-3.002,2.998-3.002C9.656,21.404,11,22.746,11,24.406z"/><linearGradient id="Zy1174uv8VCoW97f9Q~FIe" x1="6" x2="10" y1="22.893" y2="22.893" gradientTransform="rotate(-90 24 24)" gradientUnits="userSpaceOnUse"><stop offset="0" stop-color="#c965eb"/><stop offset="1" stop-color="#c767e5"/></linearGradient><circle cx="22.893" cy="40" r="2" fill="url(#Zy1174uv8VCoW97f9Q~FIe)"/><linearGradient id="Zy1174uv8VCoW97f9Q~FIf" x1="11.176" x2="14.176" y1="34.309" y2="34.309" gradientTransform="rotate(-90 24 24)" gradientUnits="userSpaceOnUse"><stop offset="0" stop-color="#c965eb"/><stop offset="1" stop-color="#c767e5"/></linearGradient><path fill="url(#Zy1174uv8VCoW97f9Q~FIf)" d="M35.809,35.322c0,0.828-0.67,1.502-1.5,1.502c-0.824,0-1.5-0.674-1.5-1.502	c0-0.828,0.676-1.498,1.5-1.498C35.139,33.824,35.809,34.494,35.809,35.322z"/><linearGradient id="Zy1174uv8VCoW97f9Q~FIg" x1="10.177" x2="15.177" y1="12.498" y2="12.498" gradientTransform="rotate(-90 24 24)" gradientUnits="userSpaceOnUse"><stop offset="0" stop-color="#ae4cd5"/><stop offset="1" stop-color="#ac4ad5"/></linearGradient><circle cx="12.498" cy="35.323" r="2.5" fill="url(#Zy1174uv8VCoW97f9Q~FIg)"/><linearGradient id="Zy1174uv8VCoW97f9Q~FIh" x1="31.016" x2="38.016" y1="34.309" y2="34.309" gradientTransform="rotate(-90 24 24)" gradientUnits="userSpaceOnUse"><stop offset="0" stop-color="#912fbd"/><stop offset="1" stop-color="#9332bf"/></linearGradient><path fill="url(#Zy1174uv8VCoW97f9Q~FIh)" d="M37.809,13.482c0,1.935-1.565,3.502-3.5,3.502c-1.932,0-3.5-1.567-3.5-3.502	c0-1.93,1.568-3.498,3.5-3.498C36.243,9.984,37.809,11.553,37.809,13.482z"/></svg>