<svg xmlns="http://www.w3.org/2000/svg" viewBox="0 0 48 48"><path fill="#195bbc" d="M21,16H4c-1.105,0-2,0.895-2,2v12c0,1.105,0.895,2,2,2h17c1.105,0,2-0.895,2-2V18	C23,16.895,22.105,16,21,16z"/><path fill="#195bbc" d="M44,16H27c-1.105,0-2,0.895-2,2v12c0,1.105,0.895,2,2,2h17c1.105,0,2-0.895,2-2V18	C46,16.895,45.105,16,44,16z"/><path fill="#35c1f1" d="M24,11c-0.552,0-1-0.447-1-1V5c0-0.553,0.448-1,1-1s1,0.447,1,1v5C25,10.553,24.552,11,24,11z"/><path fill="#35c1f1" d="M24,44c-0.552,0-1-0.447-1-1v-5c0-0.553,0.448-1,1-1s1,0.447,1,1v5C25,43.553,24.552,44,24,44z"/><path fill="#35c1f1" d="M17.001,12.876c-0.346,0-0.682-0.179-0.867-0.5l-2.5-4.33C13.358,7.567,13.521,6.956,14,6.68	c0.478-0.276,1.089-0.113,1.366,0.366l2.5,4.33c0.276,0.479,0.112,1.09-0.366,1.366C17.343,12.833,17.17,12.876,17.001,12.876z"/><path fill="#35c1f1" d="M33.501,41.454c-0.346,0-0.682-0.179-0.867-0.5l-2.5-4.33c-0.276-0.479-0.112-1.09,0.366-1.366	c0.477-0.277,1.089-0.112,1.366,0.366l2.5,4.33c0.276,0.479,0.112,1.09-0.366,1.366C33.843,41.411,33.67,41.454,33.501,41.454z"/><path fill="#35c1f1" d="M30.999,12.876c-0.169,0-0.341-0.043-0.499-0.134c-0.479-0.276-0.642-0.888-0.366-1.366l2.5-4.33	C32.91,6.568,33.52,6.403,34,6.68c0.479,0.276,0.642,0.888,0.366,1.366l-2.5,4.33C31.681,12.696,31.345,12.876,30.999,12.876z"/><path fill="#35c1f1" d="M14.499,41.454c-0.169,0-0.341-0.043-0.499-0.134c-0.479-0.276-0.642-0.888-0.366-1.366l2.5-4.33	c0.276-0.478,0.885-0.644,1.366-0.366c0.479,0.276,0.642,0.888,0.366,1.366l-2.5,4.33C15.181,41.274,14.845,41.454,14.499,41.454z"/></svg>