<svg xmlns="http://www.w3.org/2000/svg" viewBox="0 0 48 48"><path fill="#107c42" d="M35.127,11.924c0.714-0.153,1.433-0.501,2.093-1.16c0.787-0.787,0.525-1.397-0.223-1.81	c1.097-0.51,1.814-1.287,1.814-2.168C38.811,5.247,36.672,4,34.033,4c-2.639,0-4.779,1.247-4.779,2.785	c0,0.894,0.736,1.682,1.861,2.191c-0.093,0.062-0.189,0.124-0.261,0.196c-0.439,0.439-0.439,1.152,0,1.591	c0.195,0.195,0.533,0.436,0.967,0.656c-0.057,0.047-0.118,0.086-0.171,0.14c-0.879,0.879-0.879,2.304,0,3.183	c0.879,0.879,2.304,0.879,3.183,0C35.599,13.976,35.696,12.797,35.127,11.924z"/><path fill="#107c42" d="M36.076,12.873c0.153-0.714,0.501-1.433,1.16-2.093c0.787-0.787,1.397-0.525,1.81,0.223	c0.51-1.097,1.287-1.814,2.168-1.814c1.538,0,2.785,2.139,2.785,4.779c0,2.639-1.247,4.779-2.785,4.779	c-0.894,0-1.682-0.736-2.191-1.861c-0.062,0.093-0.124,0.189-0.196,0.261c-0.439,0.439-1.152,0.439-1.591,0	c-0.195-0.195-0.436-0.533-0.656-0.967c-0.047,0.057-0.086,0.118-0.14,0.171c-0.879,0.879-2.304,0.879-3.183,0	c-0.879-0.879-0.879-2.304,0-3.183C34.024,12.402,35.204,12.304,36.076,12.873z"/><linearGradient id="8iERzXWox_LHAGpsu0Iq_a" x1="43.658" x2="21.51" y1="4.325" y2="26.473" gradientUnits="userSpaceOnUse"><stop offset="0" stop-color="#21ad64"/><stop offset="1" stop-color="#088242"/></linearGradient><path fill="url(#8iERzXWox_LHAGpsu0Iq_a)" d="M43.585,10.764c0.879-0.879,0.166-3.016-1.591-4.774s-3.895-2.47-4.774-1.591	C36.668,4.951,36.745,6,37.314,7.14c-0.665-0.101-1.275,0.03-1.686,0.441c-0.583,0.583-0.612,1.563-0.188,2.542	c-0.512,0.043-1.012,0.25-1.404,0.641c-0.588,0.588-0.773,1.417-0.575,2.166l-1.812,1.812l1.591,1.591l1.812-1.812	c0.749,0.198,1.579,0.013,2.166-0.575c0.391-0.391,0.598-0.892,0.641-1.404c0.979,0.424,1.959,0.395,2.542-0.188	c0.411-0.411,0.542-1.021,0.441-1.686C41.983,11.238,43.033,11.316,43.585,10.764z"/><linearGradient id="8iERzXWox_LHAGpsu0Iq_b" x1="3.51" x2="35.095" y1="13.656" y2="45.24" gradientUnits="userSpaceOnUse"><stop offset="0" stop-color="#f09701"/><stop offset="1" stop-color="#e36001"/></linearGradient><path fill="url(#8iERzXWox_LHAGpsu0Iq_b)" d="M33.854,28.452c-0.462,0.462-0.947,0.915-1.464,1.353c-0.541,0.493-1.13,0.971-1.735,1.448	c-4.488,3.501-10.201,6.556-15.054,8.816c-0.748,0.35-1.48,0.684-2.188,0.995c-2.992,1.337-5.466,2.3-6.819,2.809	c-0.668,0.255-1.448,0.064-1.997-0.485c-0.549-0.549-0.74-1.329-0.485-1.997c0.223-0.589,0.525-1.384,0.915-2.347	c0.271-0.684,0.581-1.44,0.931-2.252c1.607-3.803,4.002-8.983,6.907-13.781c0.398-0.668,0.804-1.313,1.225-1.957	c1.679-2.586,3.509-4.989,5.443-6.923c0.064-0.064,0.119-0.119,0.191-0.175c0.549-0.517,1.194-0.955,1.894-1.289	c3.469-1.703,8.395-1.154,11.625,2.077C37.196,18.697,37.132,25.174,33.854,28.452z"/><path fill="#c2620e" d="M32.39,29.805c-0.541,0.493-1.13,0.971-1.735,1.448l-4.575-4.575c-0.438-0.438-0.438-1.154,0-1.591 c0.438-0.438,1.154-0.438,1.591,0L32.39,29.805z"/><path fill="#c2620e" d="M15.601,40.069c-0.748,0.35-1.48,0.684-2.188,0.995l-2.451-2.451c-0.438-0.438-0.438-1.154,0-1.591 c0.438-0.438,1.154-0.438,1.591,0L15.601,40.069z"/><path fill="#c2620e" d="M7.779,40.204c-0.438,0.438-1.154,0.438-1.591,0l-1.162-1.162c0.271-0.684,0.581-1.44,0.931-2.252 l1.822,1.822C8.217,39.051,8.217,39.767,7.779,40.204z"/><path fill="#c2620e" d="M25.285,17.925c-0.438,0.438-1.154,0.438-1.591,0l-3.97-3.97c0.549-0.517,1.194-0.955,1.894-1.289 l3.668,3.668C25.722,16.771,25.722,17.487,25.285,17.925z"/><path fill="#c2620e" d="M19.715,28.269c-0.438,0.438-1.154,0.438-1.591,0l-5.259-5.259c0.398-0.668,0.804-1.313,1.225-1.957 l5.626,5.626C20.152,27.115,20.152,27.831,19.715,28.269z"/><path fill="#c2620e" d="M16.532,34.634l-3.183-3.183c-0.439-0.439-0.439-1.152,0-1.591s1.152-0.439,1.591,0l3.183,3.183 c0.439,0.439,0.439,1.152,0,1.591C17.684,35.074,16.971,35.074,16.532,34.634z"/></svg>