<svg xmlns="http://www.w3.org/2000/svg" viewBox="0 0 48 48"><path fill="#50e6ff" d="M39,20H9V5c0-1.105,0.895-2,2-2h26c1.105,0,2,0.895,2,2V20z"/><path fill="#50e6ff" d="M37,45H11c-1.105,0-2-0.895-2-2V22h30v21C39,44.105,38.105,45,37,45z"/><path fill="#35c1f1" d="M9,20h30v2H9V20z"/><linearGradient id="quNh82gvan8d5sBC__rm2a" x1="13" x2="15" y1="12.5" y2="12.5" gradientUnits="userSpaceOnUse"><stop offset="0" stop-color="#3079d6"/><stop offset="1" stop-color="#297cd2"/></linearGradient><path fill="url(#quNh82gvan8d5sBC__rm2a)" d="M13.5,9h1C14.776,9,15,9.224,15,9.5v6c0,0.276-0.224,0.5-0.5,0.5h-1	c-0.276,0-0.5-0.224-0.5-0.5v-6C13,9.224,13.224,9,13.5,9z"/><linearGradient id="quNh82gvan8d5sBC__rm2b" x1="13" x2="15" y1="31.5" y2="31.5" gradientUnits="userSpaceOnUse"><stop offset="0" stop-color="#3079d6"/><stop offset="1" stop-color="#297cd2"/></linearGradient><path fill="url(#quNh82gvan8d5sBC__rm2b)" d="M13.5,26h1c0.276,0,0.5,0.224,0.5,0.5v10c0,0.276-0.224,0.5-0.5,0.5h-1	c-0.276,0-0.5-0.224-0.5-0.5v-10C13,26.224,13.224,26,13.5,26z"/></svg>