<svg xmlns="http://www.w3.org/2000/svg" viewBox="0 0 48 48"><path fill="#50e6ff" d="M39,7v34c0,1.105-0.895,2-2,2H11c-1.105,0-2-0.895-2-2V7c0-1.105,0.895-2,2-2h26	C38.105,5,39,5.895,39,7z"/><linearGradient id="s8PWXouI90jUNxs1ECG96a" x1="35" x2="43" y1="-62.154" y2="-62.154" gradientTransform="matrix(1 0 0 -1 0 -18)" gradientUnits="userSpaceOnUse"><stop offset="0" stop-color="#1d59b3"/><stop offset="1" stop-color="#195bbc"/></linearGradient><path fill="url(#s8PWXouI90jUNxs1ECG96a)" d="M42.276,47.947L39,46.308l-3.276,1.638C35.391,48.113,35,47.871,35,47.499v-7.191h8v7.191	C43,47.871,42.609,48.113,42.276,47.947z"/><path fill="#d35230" d="M39.816,29.213l0.872,0.489l0.999,0.012c0.581,0.007,1.117,0.316,1.413,0.816l0.51,0.859l0.859,0.51	c0.5,0.297,0.809,0.832,0.816,1.413l0.012,0.999l0.489,0.872c0.284,0.507,0.284,1.125,0,1.632l-0.489,0.872l-0.012,0.999	c-0.007,0.581-0.316,1.117-0.816,1.413l-0.859,0.51L43.1,41.47c-0.297,0.5-0.832,0.809-1.413,0.816l-0.999,0.012l-0.872,0.489	c-0.507,0.284-1.125,0.284-1.632,0l-0.872-0.489l-0.999-0.012c-0.581-0.007-1.117-0.316-1.413-0.816l-0.51-0.859l-0.859-0.51	c-0.5-0.297-0.809-0.832-0.816-1.413l-0.012-0.999l-0.489-0.872c-0.284-0.507-0.284-1.125,0-1.632l0.489-0.872l0.012-0.999	c0.007-0.581,0.316-1.117,0.816-1.413l0.859-0.51l0.51-0.859c0.297-0.5,0.832-0.809,1.413-0.816l0.999-0.012l0.872-0.489	C38.691,28.929,39.309,28.929,39.816,29.213z"/><circle cx="39" cy="36" r="5.353" fill="#ff8f6b"/><path fill="#057093" d="M34.5,14h-21c-0.276,0-0.5-0.224-0.5-0.5v-2c0-0.276,0.224-0.5,0.5-0.5h21c0.276,0,0.5,0.224,0.5,0.5	v2C35,13.776,34.776,14,34.5,14z"/><path fill="#057093" d="M34.5,21h-21c-0.276,0-0.5-0.224-0.5-0.5v-1c0-0.276,0.224-0.5,0.5-0.5h21c0.276,0,0.5,0.224,0.5,0.5	v1C35,20.776,34.776,21,34.5,21z"/><path fill="#057093" d="M23.5,37h-10c-0.276,0-0.5-0.224-0.5-0.5v-1c0-0.276,0.224-0.5,0.5-0.5h10c0.276,0,0.5,0.224,0.5,0.5	v1C24,36.776,23.776,37,23.5,37z"/><path fill="#057093" d="M34.5,25h-21c-0.276,0-0.5-0.224-0.5-0.5v-1c0-0.276,0.224-0.5,0.5-0.5h21c0.276,0,0.5,0.224,0.5,0.5	v1C35,24.776,34.776,25,34.5,25z"/><path fill="#057093" d="M34.5,29h-21c-0.276,0-0.5-0.224-0.5-0.5v-1c0-0.276,0.224-0.5,0.5-0.5h21c0.276,0,0.5,0.224,0.5,0.5	v1C35,28.776,34.776,29,34.5,29z"/></svg>