<svg xmlns="http://www.w3.org/2000/svg" viewBox="0 0 48 48"><rect width="2" height="9" x="31.84" y="22" fill="#64717c"/><linearGradient id="920KvangfnGjh~n_EXldba" x1="33" x2="33" y1="5.188" y2="22.403" gradientUnits="userSpaceOnUse"><stop offset="0" stop-color="#0370c8"/><stop offset=".484" stop-color="#036fc5"/><stop offset=".775" stop-color="#036abd"/><stop offset="1" stop-color="#0362b0"/></linearGradient><path fill="url(#920KvangfnGjh~n_EXldba)" d="M23,23h20c1.105,0,2-0.895,2-2V7c0-1.105-0.895-2-2-2H23c-1.105,0-2,0.895-2,2v14	C21,22.105,21.895,23,23,23z"/><linearGradient id="920KvangfnGjh~n_EXldbb" x1="11.314" x2="14.685" y1="-39.355" y2="-48.644" gradientTransform="matrix(1 0 0 -1 0 -18)" gradientUnits="userSpaceOnUse"><stop offset="0" stop-color="#32bdef"/><stop offset="1" stop-color="#1ea2e4"/></linearGradient><path fill="url(#920KvangfnGjh~n_EXldbb)" d="M13,31c-2.75,0-5-2.25-5-5s2.25-5,5-5s5,2.25,5,5S15.75,31,13,31"/><linearGradient id="920KvangfnGjh~n_EXldbc" x1="19.241" x2="20.709" y1="30.511" y2="43.922" gradientUnits="userSpaceOnUse"><stop offset="0" stop-color="#32bdef"/><stop offset="1" stop-color="#1ea2e4"/></linearGradient><path fill="url(#920KvangfnGjh~n_EXldbc)" d="M34.005,29.27c-0.858-0.507-1.972-0.233-2.61,0.532L27.063,35H9c-2.209,0-4,1.791-4,4v5h15v-4	c0-0.552,0.448-1,1-1h6.999c0.594,0,1.157-0.264,1.537-0.72l5-6C35.314,31.347,35.098,29.916,34.005,29.27z"/><path fill="#fff" d="M33.007,20c-0.378,0-0.69-0.115-0.936-0.344c-0.246-0.229-0.369-0.506-0.369-0.833 c0-0.34,0.124-0.619,0.372-0.836c0.248-0.217,0.559-0.326,0.932-0.326c0.378,0,0.688,0.11,0.928,0.329 c0.241,0.22,0.361,0.497,0.361,0.833c0,0.34-0.119,0.621-0.358,0.843C33.701,19.888,33.39,20,33.007,20z M34.117,8.429 l-0.241,7.593c-0.007,0.224-0.191,0.402-0.415,0.402h-0.949c-0.225,0-0.408-0.178-0.415-0.403l-0.228-7.593 C31.861,8.193,32.048,8,32.283,8h1.418C33.936,8,34.124,8.194,34.117,8.429z"/></svg>