<svg xmlns="http://www.w3.org/2000/svg" viewBox="0 0 48 48"><path fill="#199be2" d="M24,5C13.507,5,5,13.507,5,24c0,10.493,8.507,19,19,19s19-8.507,19-19C43,13.507,34.493,5,24,5z M24,39c-8.284,0-15-6.716-15-15S15.716,9,24,9s15,6.716,15,15S32.284,39,24,39z"/><path fill="#35c1f1" d="M25,12h-2c-0.552,0-1-0.448-1-1V3c0-0.552,0.448-1,1-1h2c0.552,0,1,0.448,1,1v8	C26,11.552,25.552,12,25,12z"/><path fill="#35c1f1" d="M25,46h-2c-0.552,0-1-0.448-1-1v-8c0-0.552,0.448-1,1-1h2c0.552,0,1,0.448,1,1v8	C26,45.552,25.552,46,25,46z"/><path fill="#35c1f1" d="M36,25v-2c0-0.552,0.448-1,1-1h8c0.552,0,1,0.448,1,1v2c0,0.552-0.448,1-1,1h-8	C36.448,26,36,25.552,36,25z"/><path fill="#35c1f1" d="M2,25v-2c0-0.552,0.448-1,1-1h8c0.552,0,1,0.448,1,1v2c0,0.552-0.448,1-1,1H3C2.448,26,2,25.552,2,25	z"/></svg>