<svg xmlns="http://www.w3.org/2000/svg" data-name="Слой 1" viewBox="0 0 48 48"><defs><linearGradient id="TL55cVquZRt8KJkhbmJ8Ka" x1="15.478" x2="34.518" y1=".586" y2="52.898" gradientUnits="userSpaceOnUse"><stop offset=".002" stop-color="#427fdb"/><stop offset=".397" stop-color="#2668cb"/><stop offset=".763" stop-color="#1358bf"/><stop offset="1" stop-color="#0c52bb"/></linearGradient></defs><circle cx="24" cy="24" r="20" fill="url(#TL55cVquZRt8KJkhbmJ8Ka)"/><path fill="#fff" d="M24,39c-3.94824,0-10-4.502-10-8.39355V21h1v9.60645C15,33.96289,20.52783,38,24,38s9-4.03711,9-7.39355V21h1v9.60645C34,34.49805,27.94824,39,24,39Z"/><path fill="#fff" d="M13,31h1.5V21H13a4,4,0,0,0-4,4v2A4,4,0,0,0,13,31Z"/><path fill="#fff" d="M33.5,31H35a4,4,0,0,0,4-4V25a4,4,0,0,0-4-4H33.5Z"/><path fill="#fff" d="M34,22a.99974.99974,0,0,1-1-1V20a9,9,0,0,0-18,0v1a1,1,0,0,1-2,0V20a11,11,0,0,1,22,0v1A.99974.99974,0,0,1,34,22Z"/></svg>