<svg xmlns="http://www.w3.org/2000/svg" viewBox="0 0 48 48"><linearGradient id="L_1j9hlH9eta32SiaTL9Ea" x1="23.765" x2="24.026" y1="3.363" y2="6.286" gradientUnits="userSpaceOnUse"><stop offset="0" stop-color="#ffda1c"/><stop offset=".334" stop-color="#ffd318"/><stop offset=".811" stop-color="#fec00b"/><stop offset="1" stop-color="#feb705"/></linearGradient><path fill="url(#L_1j9hlH9eta32SiaTL9Ea)" d="M21.003,6h5.993C26.1,4.439,24.808,4,24,4S21.9,4.439,21.003,6z"/><radialGradient id="L_1j9hlH9eta32SiaTL9Eb" cx="23.975" cy="9.918" r="6.708" gradientTransform="matrix(1.3333 0 0 1 -8 0)" gradientUnits="userSpaceOnUse"><stop offset="0" stop-color="#6e6e6e"/><stop offset=".999" stop-color="#4d4d4d"/></radialGradient><path fill="url(#L_1j9hlH9eta32SiaTL9Eb)" d="M26.997,6h-5.993c-0.044,0.076-0.091,0.141-0.133,0.222C20.356,7.228,20,8.654,20,10.667 C20,16.189,24,24,24,24s4-7.811,4-13.333c0-2.013-0.356-3.438-0.871-4.444C27.087,6.141,27.04,6.076,26.997,6z"/><linearGradient id="L_1j9hlH9eta32SiaTL9Ec" x1="22.705" x2="24.114" y1="31.584" y2="46.185" gradientUnits="userSpaceOnUse"><stop offset="0" stop-color="#ffda1c"/><stop offset=".256" stop-color="#ffc615"/><stop offset=".735" stop-color="#fea609"/><stop offset="1" stop-color="#fe9a05"/></linearGradient><path fill="url(#L_1j9hlH9eta32SiaTL9Ec)" d="M30,45H18c0,0,2-2,2-4c0-1,0-1,0-1s1-2.083,1-4s0-3,0-3h6c0,0,0,1,0,3s1,4,1,4s0,0,0,1 C28,43,30,45,30,45z"/><linearGradient id="L_1j9hlH9eta32SiaTL9Ed" x1="24" x2="24" y1="45" y2="47" gradientUnits="userSpaceOnUse"><stop offset="0" stop-color="#ffda1c"/><stop offset=".334" stop-color="#ffd318"/><stop offset=".811" stop-color="#fec00b"/><stop offset="1" stop-color="#feb705"/></linearGradient><path fill="url(#L_1j9hlH9eta32SiaTL9Ed)" d="M32.5,47h-17c-0.276,0-0.5-0.224-0.5-0.5l0,0c0-0.828,0.672-1.5,1.5-1.5h15 c0.828,0,1.5,0.672,1.5,1.5l0,0C33,46.776,32.776,47,32.5,47z"/><linearGradient id="L_1j9hlH9eta32SiaTL9Ee" x1="24" x2="24" y1="40" y2="42" gradientUnits="userSpaceOnUse"><stop offset="0" stop-color="#ffda1c"/><stop offset=".334" stop-color="#ffd318"/><stop offset=".811" stop-color="#fec00b"/><stop offset="1" stop-color="#feb705"/></linearGradient><path fill="url(#L_1j9hlH9eta32SiaTL9Ee)" d="M29,42H19c-0.552,0-1-0.448-1-1l0,0c0-0.552,0.448-1,1-1h10c0.552,0,1,0.448,1,1l0,0 C30,41.552,29.552,42,29,42z"/><linearGradient id="L_1j9hlH9eta32SiaTL9Ef" x1="23.732" x2="24.17" y1="-.578" y2="3.636" gradientUnits="userSpaceOnUse"><stop offset="0" stop-color="#ffda1c"/><stop offset=".334" stop-color="#ffd318"/><stop offset=".811" stop-color="#fec00b"/><stop offset="1" stop-color="#feb705"/></linearGradient><circle cx="24" cy="2" r="2" fill="url(#L_1j9hlH9eta32SiaTL9Ef)"/><linearGradient id="L_1j9hlH9eta32SiaTL9Eg" x1="22.895" x2="24.874" y1="15.192" y2="36.331" gradientUnits="userSpaceOnUse"><stop offset="0" stop-color="#21a366"/><stop offset="1" stop-color="#107c42"/></linearGradient><circle cx="24" cy="27" r="10" fill="url(#L_1j9hlH9eta32SiaTL9Eg)"/><linearGradient id="L_1j9hlH9eta32SiaTL9Eh" x1="21.857" x2="25.649" y1="16.14" y2="35.358" gradientUnits="userSpaceOnUse"><stop offset="0" stop-color="#ffdfb3"/><stop offset="1" stop-color="#ffc999"/></linearGradient><circle cx="24" cy="27" r="7" fill="url(#L_1j9hlH9eta32SiaTL9Eh)"/></svg>