<svg xmlns="http://www.w3.org/2000/svg" viewBox="0 0 48 48"><linearGradient id="55ORrkLj~MwNHL9LFFiuJa" x1="12.111" x2="30.933" y1="-10.664" y2="41.048" gradientUnits="userSpaceOnUse"><stop offset="0" stop-color="#faf8e5"/><stop offset="1" stop-color="#faeeac"/></linearGradient><circle cx="24" cy="22" r="20" fill="url(#55ORrkLj~MwNHL9LFFiuJa)"/><linearGradient id="55ORrkLj~MwNHL9LFFiuJb" x1="10.742" x2="30.128" y1="-11.426" y2="41.838" gradientUnits="userSpaceOnUse"><stop offset="0" stop-color="#faf8e5"/><stop offset="1" stop-color="#faeeac"/></linearGradient><rect width="34" height="34" x="7" y="8" fill="url(#55ORrkLj~MwNHL9LFFiuJb)"/><linearGradient id="55ORrkLj~MwNHL9LFFiuJc" x1="1.212" x2="43.029" y1="2.212" y2="44.029" gradientUnits="userSpaceOnUse"><stop offset="0" stop-color="#eba600"/><stop offset="1" stop-color="#c28200"/></linearGradient><path fill="url(#55ORrkLj~MwNHL9LFFiuJc)" d="M42,43H6V7h36V43z M8,41h32V9H8V41z"/><linearGradient id="55ORrkLj~MwNHL9LFFiuJd" x1="21.455" x2="34.495" y1="5.507" y2="41.335" gradientUnits="userSpaceOnUse"><stop offset="0" stop-color="#eba600"/><stop offset="1" stop-color="#c28200"/></linearGradient><path fill="url(#55ORrkLj~MwNHL9LFFiuJd)" d="M20.5,12.5c0,1.932,1.566,3.5,3.498,3.5c1.936,0,3.502-1.568,3.502-3.5S25.935,9,23.998,9	C22.066,9,20.5,10.568,20.5,12.5z"/><path fill="#af7314" d="M39.25,11.25c0-0.828-0.672-1.5-1.5-1.5c-0.342,0-0.654,0.119-0.907,0.312l-0.003-0.004L26,18l2,3.5	l10.78-9.164C39.068,12.063,39.25,11.678,39.25,11.25z"/><path fill="#af7314" d="M11.157,10.062C10.904,9.869,10.592,9.75,10.25,9.75c-0.828,0-1.5,0.672-1.5,1.5	c0,0.428,0.182,0.813,0.47,1.086L20,21.5l2-3.5l-10.84-7.941L11.157,10.062z"/><path fill="#af7314" d="M20,27.4l1,12.1c0,0.828,0.672,1.5,1.5,1.5s1.5-0.672,1.5-1.5V29L20,27.4z"/><linearGradient id="55ORrkLj~MwNHL9LFFiuJe" x1="-2.13" x2="44.783" y1="-4.13" y2="42.783" gradientUnits="userSpaceOnUse"><stop offset="0" stop-color="#ffd869"/><stop offset="1" stop-color="#fec52b"/></linearGradient><path fill="url(#55ORrkLj~MwNHL9LFFiuJe)" d="M24,43C12.421,43,3,33.58,3,22S12.421,1,24,1s21,9.42,21,21S35.579,43,24,43z M24,3	C13.523,3,5,11.523,5,22s8.523,19,19,19s19-8.523,19-19S34.477,3,24,3z"/><path fill="#af7314" d="M24,29v10.5c0,0.828,0.672,1.5,1.5,1.5s1.5-0.672,1.5-1.5l1-12.1L24,29z"/><linearGradient id="55ORrkLj~MwNHL9LFFiuJf" x1="18.606" x2="32.081" y1="5.312" y2="42.335" gradientUnits="userSpaceOnUse"><stop offset="0" stop-color="#eba600"/><stop offset="1" stop-color="#c28200"/></linearGradient><path fill="url(#55ORrkLj~MwNHL9LFFiuJf)" d="M38.5,18H24H9.5C8.672,18,8,18.672,8,19.5S8.672,21,9.5,21L20,21.5v5.9l-5.709,8.962	l0.004,0.003C14.112,36.613,14,36.918,14,37.25c0,0.828,0.672,1.5,1.5,1.5c0.481,0,0.905-0.231,1.18-0.583l0.005,0.004L24,29	l7.316,9.17l0.005-0.004c0.274,0.353,0.698,0.583,1.18,0.583c0.828,0,1.5-0.672,1.5-1.5c0-0.332-0.112-0.637-0.295-0.885	l0.004-0.003L28,27.4v-5.9L38.5,21c0.828,0,1.5-0.672,1.5-1.5S39.328,18,38.5,18z"/><path d="M24,29l-3.5,4.39l0.12,1.46L24,30.6l3.38,4.25l0.12-1.46L24,29z M27.37,17l-0.69,0.5L26,18h6.12l0.59-0.5L33.3,17H27.37z M20.63,17H14.7l0.59,0.5l0.59,0.5H22l-0.68-0.5L20.63,17z" opacity=".05"/><path d="M24,29l-3.5,4.39l0.06,0.73L24,29.8l3.44,4.32l0.06-0.73L24,29z M26.68,17.5L26,18h6.12l0.59-0.5H26.68z M15.29,17.5 l0.59,0.5H22l-0.68-0.5H15.29z" opacity=".07"/></svg>