<svg xmlns="http://www.w3.org/2000/svg" viewBox="0 0 48 48"><linearGradient id="mOIwaF_CtO3FxTL4uXI5Wa" x1="50.993" x2="50.995" y1="47.071" y2="47.071" gradientTransform="rotate(9.32 126.646 -222.427)" gradientUnits="userSpaceOnUse"><stop offset="0" stop-color="#ffc430"/><stop offset=".57" stop-color="#f8bd29"/><stop offset="1" stop-color="#f0b421"/></linearGradient><path fill="url(#mOIwaF_CtO3FxTL4uXI5Wa)" d="M8.36,31.275c0.001-0.007,0.004-0.012,0.005-0.019l-0.002-0.001L8.36,31.275z"/><linearGradient id="mOIwaF_CtO3FxTL4uXI5Wb" x1="46.648" x2="72.604" y1="75.022" y2="101.977" gradientTransform="translate(-27.252 -53.418)" gradientUnits="userSpaceOnUse"><stop offset="0" stop-color="#ffc430"/><stop offset=".41" stop-color="#fec130"/><stop offset=".72" stop-color="#fcb730"/><stop offset=".998" stop-color="#f7a72f"/><stop offset="1" stop-color="#f7a72f"/></linearGradient><path fill="url(#mOIwaF_CtO3FxTL4uXI5Wb)" d="M35.738,20.902L23,19l0-13.357c0-1.308-0.941-2.499-2.242-2.63C19.261,2.863,18,4.034,18,5.5 c0,0.237,0,35.468,0,35.468C19.461,42.268,21.347,43,23.314,43H34c3.314,0,6-2.686,6-6V25.847 C40,23.371,38.188,21.268,35.738,20.902z"/><circle cx="20.5" cy="5.5" r="1.5" fill="#fff0c9"/><linearGradient id="mOIwaF_CtO3FxTL4uXI5Wc" x1="-13.731" x2="-5.284" y1="1095.572" y2="1087.241" gradientTransform="translate(25.121 -1062.064)" gradientUnits="userSpaceOnUse"><stop offset=".282" stop-color="#ffc430"/><stop offset=".401" stop-color="#f8bd2d"/><stop offset=".574" stop-color="#e5aa23"/><stop offset=".78" stop-color="#c58a14"/><stop offset="1" stop-color="#9c6000"/></linearGradient><path fill="url(#mOIwaF_CtO3FxTL4uXI5Wc)" d="M8.023,24c-1.72,0-2.498,1.068-2.498,2.492l12.085,14.129 c0.124,0.124,0.259,0.236,0.389,0.352V26.268c-2.273,3.88-3.939,0.407-5.67,0.81C12.33,27.078,11.61,24,8.023,24z"/><path fill="#199be2" d="M27,14c-0.81,0-2.704-0.622-6.492-1.939C16.719,13.378,14.82,14,14,14c-1.654,0-3-1.346-3-3	s1.346-3,3-3c0.814,0,2.712,0.623,6.508,1.943C24.303,8.623,26.196,8,27,8c1.654,0,3,1.346,3,3S28.654,14,27,14z M23.577,11.002	c1.592,0.537,3.026,0.989,3.425,0.998C27.551,12,28,11.552,28,11s-0.449-1-1-1C26.604,10.01,25.167,10.465,23.577,11.002z M13.999,10C13.449,10,13,10.448,13,11c0,0.551,0.448,1,1,1c0.403-0.008,1.839-0.459,3.439-0.998	C15.84,10.462,14.399,10.009,13.999,10z"/></svg>