<svg xmlns="http://www.w3.org/2000/svg" xmlns:xlink="http://www.w3.org/1999/xlink" data-name="Слой 1" viewBox="0 0 48 48"><defs><linearGradient id="PGvPIoqrapIBcttmQu3mLm" x1="37.278" x2="30.746" y1="314.51" y2="314.51" xlink:href="#PGvPIoqrapIBcttmQu3mLa"/><linearGradient id="PGvPIoqrapIBcttmQu3mLd" x1="19.327" x2="31.237" y1="12.278" y2="45.001" data-name="Безымянный градиент 101" gradientUnits="userSpaceOnUse"><stop offset="0" stop-color="#21ad64"/><stop offset="1" stop-color="#088242"/></linearGradient><linearGradient id="PGvPIoqrapIBcttmQu3mLe" x1="16.582" x2="19.029" y1="324.446" y2="318.67" xlink:href="#PGvPIoqrapIBcttmQu3mLa"/><linearGradient id="PGvPIoqrapIBcttmQu3mLf" x1="19.494" x2="16.28" y1="319.517" y2="313.892" xlink:href="#PGvPIoqrapIBcttmQu3mLa"/><linearGradient id="PGvPIoqrapIBcttmQu3mLg" x1="17.286" x2="10.754" y1="314.51" y2="314.51" xlink:href="#PGvPIoqrapIBcttmQu3mLa"/><linearGradient id="PGvPIoqrapIBcttmQu3mLh" x1="11.705" x2="8.452" y1="314.023" y2="319.534" xlink:href="#PGvPIoqrapIBcttmQu3mLa"/><linearGradient id="PGvPIoqrapIBcttmQu3mLi" x1="8.472" x2="11.534" y1="318.429" y2="323.787" xlink:href="#PGvPIoqrapIBcttmQu3mLa"/><linearGradient id="PGvPIoqrapIBcttmQu3mLb" x1="12.13" x2="15.417" y1="320.883" y2="317.596" data-name="Безымянный градиент 256" gradientTransform="matrix(1 0 0 -1 0 340.005)" gradientUnits="userSpaceOnUse"><stop offset="0" stop-color="#fed100"/><stop offset="1" stop-color="#e36001"/></linearGradient><linearGradient id="PGvPIoqrapIBcttmQu3mLj" x1="30.979" x2="37.059" y1="323.508" y2="323.508" xlink:href="#PGvPIoqrapIBcttmQu3mLa"/><linearGradient id="PGvPIoqrapIBcttmQu3mLk" x1="36.573" x2="39.021" y1="324.446" y2="318.67" xlink:href="#PGvPIoqrapIBcttmQu3mLa"/><linearGradient id="PGvPIoqrapIBcttmQu3mLl" x1="39.486" x2="36.272" y1="319.517" y2="313.892" xlink:href="#PGvPIoqrapIBcttmQu3mLa"/><linearGradient id="PGvPIoqrapIBcttmQu3mLa" x1="10.987" x2="17.067" y1="323.508" y2="323.508" data-name="Безымянный градиент 257" gradientTransform="matrix(1 0 0 -1 0 340.005)" gradientUnits="userSpaceOnUse"><stop offset="0" stop-color="#f44f5a"/><stop offset=".443" stop-color="#ee3d4a"/><stop offset="1" stop-color="#e52030"/></linearGradient><linearGradient id="PGvPIoqrapIBcttmQu3mLn" x1="31.697" x2="28.444" y1="314.023" y2="319.534" xlink:href="#PGvPIoqrapIBcttmQu3mLa"/><linearGradient id="PGvPIoqrapIBcttmQu3mLo" x1="28.464" x2="31.526" y1="318.429" y2="323.787" xlink:href="#PGvPIoqrapIBcttmQu3mLa"/><linearGradient id="PGvPIoqrapIBcttmQu3mLp" x1="32.122" x2="35.409" y1="320.883" y2="317.596" xlink:href="#PGvPIoqrapIBcttmQu3mLb"/><linearGradient id="PGvPIoqrapIBcttmQu3mLc" x1="20.986" x2="27.061" y1="332.503" y2="332.503" data-name="Безымянный градиент 12" gradientTransform="matrix(1 0 0 -1 0 340.005)" gradientUnits="userSpaceOnUse"><stop offset="0" stop-color="#2aa4f4"/><stop offset="1" stop-color="#007ad9"/></linearGradient><linearGradient id="PGvPIoqrapIBcttmQu3mLq" x1="26.575" x2="29.022" y1="333.441" y2="327.666" xlink:href="#PGvPIoqrapIBcttmQu3mLc"/><linearGradient id="PGvPIoqrapIBcttmQu3mLr" x1="29.487" x2="26.273" y1="328.511" y2="322.887" xlink:href="#PGvPIoqrapIBcttmQu3mLc"/><linearGradient id="PGvPIoqrapIBcttmQu3mLs" x1="27.279" x2="20.752" y1="323.506" y2="323.506" xlink:href="#PGvPIoqrapIBcttmQu3mLc"/><linearGradient id="PGvPIoqrapIBcttmQu3mLt" x1="21.704" x2="18.451" y1="323.018" y2="328.528" xlink:href="#PGvPIoqrapIBcttmQu3mLc"/><linearGradient id="PGvPIoqrapIBcttmQu3mLu" x1="18.472" x2="21.533" y1="327.425" y2="332.782" xlink:href="#PGvPIoqrapIBcttmQu3mLc"/><linearGradient id="PGvPIoqrapIBcttmQu3mLv" x1="22.127" x2="25.412" y1="329.878" y2="326.592" xlink:href="#PGvPIoqrapIBcttmQu3mLb"/></defs><path fill="#107c42" d="M36,16.99772H12l6.56877,26.52453A2,2,0,0,0,20.5,45.0023h6.93449a2,2,0,0,0,1.93123-1.48Z"/><path fill="url(#PGvPIoqrapIBcttmQu3mLd)" d="M30,16.99772H18l3.70634,26.3087a2,2,0,0,0,1.97674,1.69588h.56833a2,2,0,0,0,1.97674-1.69588Z"/><path fill="url(#PGvPIoqrapIBcttmQu3mLa)" d="M14.004,11.99772a3.15674,3.15674,0,0,0-3.16423,3.1492c0,1.73925,3.16423,5.8485,3.16423,5.8485s3.16423-4.10925,3.16423-5.8485A3.15674,3.15674,0,0,0,14.004,11.99772Z"/><path fill="url(#PGvPIoqrapIBcttmQu3mLe)" d="M21.83368,16.49657a3.17239,3.17239,0,0,0-4.32234-1.1526c-1.5134.86963-3.50732,5.65145-3.50732,5.65145s5.15769.67258,6.6711-.19705A3.14109,3.14109,0,0,0,21.83368,16.49657Z"/><path fill="url(#PGvPIoqrapIBcttmQu3mLf)" d="M21.83368,25.49427a3.141,3.141,0,0,0-1.15811-4.3018c-1.51386-.86963-6.67155-.19705-6.67155-.19705s1.99346,4.78183,3.50687,5.65146A3.17292,3.17292,0,0,0,21.83368,25.49427Z"/><path fill="url(#PGvPIoqrapIBcttmQu3mLg)" d="M14.004,29.99312a3.15673,3.15673,0,0,0,3.16423-3.14919c0-1.73926-3.16423-5.84851-3.16423-5.84851s-3.16423,4.10925-3.16423,5.84851A3.15673,3.15673,0,0,0,14.004,29.99312Z"/><path fill="url(#PGvPIoqrapIBcttmQu3mLh)" d="M6.17436,25.49427a3.17239,3.17239,0,0,0,4.32234,1.15261c1.51385-.86963,3.50732-5.65146,3.50732-5.65146s-5.1577-.67258-6.6711.19705A3.14109,3.14109,0,0,0,6.17436,25.49427Z"/><path fill="url(#PGvPIoqrapIBcttmQu3mLi)" d="M10.49715,15.344a3.1529,3.1529,0,1,0-3.16423,5.4544c1.5134.86963,6.6711.19705,6.6711.19705S11.3881,17.59384,10.91844,15.671A2.265,2.265,0,0,0,10.49715,15.344Z"/><path fill="url(#PGvPIoqrapIBcttmQu3mLb)" d="M14.004,18.99772a1.99772,1.99772,0,1,0,2.00724,1.9977A2.0027,2.0027,0,0,0,14.004,18.99772Z"/><g><path fill="url(#PGvPIoqrapIBcttmQu3mLj)" d="M33.99587,11.99772a3.15674,3.15674,0,0,0-3.16423,3.1492c0,1.73925,3.16423,5.8485,3.16423,5.8485s3.16423-4.10925,3.16423-5.8485A3.15674,3.15674,0,0,0,33.99587,11.99772Z"/><path fill="url(#PGvPIoqrapIBcttmQu3mLk)" d="M41.82553,16.49657a3.17239,3.17239,0,0,0-4.32234-1.1526c-1.51341.86963-3.50732,5.65145-3.50732,5.65145s5.15769.67258,6.6711-.19705A3.1411,3.1411,0,0,0,41.82553,16.49657Z"/><path fill="url(#PGvPIoqrapIBcttmQu3mLl)" d="M41.82553,25.49427a3.141,3.141,0,0,0-1.15811-4.3018c-1.51386-.86963-6.67155-.19705-6.67155-.19705s1.99346,4.78183,3.50687,5.65146A3.17292,3.17292,0,0,0,41.82553,25.49427Z"/><path fill="url(#PGvPIoqrapIBcttmQu3mLm)" d="M33.99587,29.99312a3.15673,3.15673,0,0,0,3.16423-3.14919c0-1.73926-3.16423-5.84851-3.16423-5.84851s-3.16423,4.10925-3.16423,5.84851A3.15673,3.15673,0,0,0,33.99587,29.99312Z"/><path fill="url(#PGvPIoqrapIBcttmQu3mLn)" d="M26.1662,25.49427a3.17239,3.17239,0,0,0,4.32234,1.15261c1.51386-.86963,3.50733-5.65146,3.50733-5.65146s-5.1577-.67258-6.67111.19705A3.1411,3.1411,0,0,0,26.1662,25.49427Z"/><path fill="url(#PGvPIoqrapIBcttmQu3mLo)" d="M30.489,15.344a3.1529,3.1529,0,1,0-3.16424,5.4544c1.51341.86963,6.67111.19705,6.67111.19705S31.38,17.59384,30.91029,15.671A2.265,2.265,0,0,0,30.489,15.344Z"/><path fill="url(#PGvPIoqrapIBcttmQu3mLp)" d="M33.99587,18.99772a1.99772,1.99772,0,1,0,2.00723,1.9977A2.0027,2.0027,0,0,0,33.99587,18.99772Z"/></g><g><path fill="url(#PGvPIoqrapIBcttmQu3mLc)" d="M24.00007,3.00233a3.15551,3.15551,0,0,0-3.16179,3.14919C20.83828,7.89078,24.00007,12,24.00007,12s3.16179-4.10925,3.16179-5.84851A3.15551,3.15551,0,0,0,24.00007,3.00233Z"/><path fill="url(#PGvPIoqrapIBcttmQu3mLq)" d="M31.82368,7.50118a3.16859,3.16859,0,0,0-4.319-1.15261C25.99245,7.2182,24.00007,12,24.00007,12s5.15371.67257,6.66595-.19705A3.14241,3.14241,0,0,0,31.82368,7.50118Z"/><path fill="url(#PGvPIoqrapIBcttmQu3mLr)" d="M31.82368,16.49888a3.14226,3.14226,0,0,0-1.15721-4.3018c-1.51269-.86963-6.6664-.197-6.6664-.197s1.99192,4.78182,3.50416,5.65145A3.16912,3.16912,0,0,0,31.82368,16.49888Z"/><path fill="url(#PGvPIoqrapIBcttmQu3mLs)" d="M24.00007,20.99772a3.1555,3.1555,0,0,0,3.16179-3.14919c0-1.73926-3.16179-5.8485-3.16179-5.8485s-3.16179,4.10924-3.16179,5.8485A3.1555,3.1555,0,0,0,24.00007,20.99772Z"/><path fill="url(#PGvPIoqrapIBcttmQu3mLt)" d="M16.17645,16.49888a3.16861,3.16861,0,0,0,4.319,1.1526C22.00814,16.78185,24.00007,12,24.00007,12s-5.15371-.67258-6.666.197A3.14241,3.14241,0,0,0,16.17645,16.49888Z"/><path fill="url(#PGvPIoqrapIBcttmQu3mLu)" d="M20.49591,6.34857A3.15229,3.15229,0,1,0,17.33412,11.803c1.51224.86962,6.666.19705,6.666.19705s-2.6139-3.40158-3.08319-5.32439A2.26325,2.26325,0,0,0,20.49591,6.34857Z"/><path fill="url(#PGvPIoqrapIBcttmQu3mLv)" d="M24.00007,10.00233A1.99771,1.99771,0,1,0,26.00576,12,2.00193,2.00193,0,0,0,24.00007,10.00233Z"/></g><g><path d="M30.83008,26.84227a2.736,2.736,0,0,1,.07983-.53,2.01619,2.01619,0,0,1-.41992.33,3.15243,3.15243,0,1,1-3.16992-5.45,2.70653,2.70653,0,0,1,.51-.2,2.16562,2.16562,0,0,1-.51-.19,3.21838,3.21838,0,0,1-.96008-.87,3.13758,3.13758,0,0,1-4.72,0,3.21838,3.21838,0,0,1-.96008.87,2.16562,2.16562,0,0,1-.51.19,2.70653,2.70653,0,0,1,.51.2,3.15243,3.15243,0,1,1-3.16992,5.45,2.01619,2.01619,0,0,1-.41992-.33,2.736,2.736,0,0,1,.07983.53,3.14062,3.14062,0,0,1-2.01,2.93l.12012.49005.12988.49a4.1862,4.1862,0,0,0,2.61011-2.82,4.30555,4.30555,0,0,0,1.07007.14,4.1906,4.1906,0,0,0,3.60986-2.08,4.10738,4.10738,0,0,0,.42-3.14,4.33678,4.33678,0,0,0-.46009-1.08,4.01834,4.01834,0,0,0,2.68018,0,4.33678,4.33678,0,0,0-.46009,1.08,4.10738,4.10738,0,0,0,.42,3.14,4.1906,4.1906,0,0,0,3.60986,2.08,4.30555,4.30555,0,0,0,1.07007-.14,4.12821,4.12821,0,0,0,2.59009,2.8l.11987-.48.12012-.49A3.14584,3.14584,0,0,1,30.83008,26.84227Z" opacity=".05"/><path d="M30.83008,26.84227a2.736,2.736,0,0,1,.07983-.53,2.01619,2.01619,0,0,1-.41992.33,3.15243,3.15243,0,1,1-3.16992-5.45,2.70653,2.70653,0,0,1,.51-.2,2.16562,2.16562,0,0,1-.51-.19,3.21838,3.21838,0,0,1-.96008-.87,3.13758,3.13758,0,0,1-4.72,0,3.21838,3.21838,0,0,1-.96008.87,2.16562,2.16562,0,0,1-.51.19,2.70653,2.70653,0,0,1,.51.2,3.15243,3.15243,0,1,1-3.16992,5.45,2.01619,2.01619,0,0,1-.41992-.33,2.736,2.736,0,0,1,.07983.53,3.14062,3.14062,0,0,1-2.01,2.93l.12012.49005a3.6393,3.6393,0,0,0,2.36-2.99,3.80074,3.80074,0,0,0,1.45008.30005,3.68649,3.68649,0,0,0,3.17993-1.83,3.668,3.668,0,0,0-.98-4.75,3.94267,3.94267,0,0,0,.38989-.34,3.59121,3.59121,0,0,0,4.64014,0,3.94267,3.94267,0,0,0,.38989.34,3.668,3.668,0,0,0-.98,4.75,3.68649,3.68649,0,0,0,3.17993,1.83A3.80074,3.80074,0,0,0,30.36,27.27226a3.66784,3.66784,0,0,0,2.33,2.98l.12012-.49A3.14584,3.14584,0,0,1,30.83008,26.84227Z" opacity=".07"/></g></svg>