<svg xmlns="http://www.w3.org/2000/svg" viewBox="0 0 48 48"><linearGradient id="fB9mg3VFeZ0glwaTC2Siba" x1="5.887" x2="1.008" y1="29" y2="29" gradientUnits="userSpaceOnUse"><stop offset="0" stop-color="#c48f0c"/><stop offset=".251" stop-color="#d19b16"/><stop offset=".619" stop-color="#dca51f"/><stop offset="1" stop-color="#e0a922"/></linearGradient><path fill="url(#fB9mg3VFeZ0glwaTC2Siba)" d="M7,33H6.123c-1.835,0-3.435-1.249-3.881-3.03l0,0C1.611,27.446,3.521,25,6.123,25H7V33z"/><linearGradient id="fB9mg3VFeZ0glwaTC2Sibb" x1="41.894" x2="46.773" y1="29" y2="29" gradientUnits="userSpaceOnUse"><stop offset="0" stop-color="#c48f0c"/><stop offset=".251" stop-color="#d19b16"/><stop offset=".672" stop-color="#dca51f"/><stop offset="1" stop-color="#e0a922"/></linearGradient><path fill="url(#fB9mg3VFeZ0glwaTC2Sibb)" d="M41,33h0.877c1.835,0,3.435-1.249,3.881-3.03v0c0.631-2.525-1.278-4.97-3.881-4.97H41V33z"/><radialGradient id="fB9mg3VFeZ0glwaTC2Sibc" cx="24" cy="27" r="18" gradientUnits="userSpaceOnUse"><stop offset="0" stop-color="#ffcf54"/><stop offset=".261" stop-color="#fdcb4d"/><stop offset=".639" stop-color="#f7c13a"/><stop offset="1" stop-color="#f0b421"/></radialGradient><path fill="url(#fB9mg3VFeZ0glwaTC2Sibc)" d="M42,28c0,9.941-8.059,17-18,17S6,37.941,6,28S14.059,9,24,9S42,18.059,42,28z"/><radialGradient id="fB9mg3VFeZ0glwaTC2Sibd" cx="136.1" cy="-544.169" r="32.832" gradientTransform="matrix(.8617 0 0 -.8816 -94.708 -470.406)" gradientUnits="userSpaceOnUse"><stop offset="0" stop-color="#c26715"/><stop offset=".508" stop-color="#b85515"/><stop offset="1" stop-color="#ad3f16"/></radialGradient><path fill="url(#fB9mg3VFeZ0glwaTC2Sibd)" d="M23.063,6c-4.652-0.91-6.132,6,0,6C25.741,12,31,10.365,31,6C31,6,28.173,7,23.063,6z"/><linearGradient id="fB9mg3VFeZ0glwaTC2Sibe" x1="30" x2="30" y1="-448.963" y2="-451.281" gradientTransform="matrix(1 0 0 -1 0 -426)" gradientUnits="userSpaceOnUse"><stop offset="0" stop-color="#c48f0c"/><stop offset=".251" stop-color="#d19b16"/><stop offset=".619" stop-color="#dca51f"/><stop offset="1" stop-color="#e0a922"/></linearGradient><path fill="url(#fB9mg3VFeZ0glwaTC2Sibe)" d="M30,24.575c1.4,0,2.742,0.238,4,0.659C33.165,23.897,31.692,23,30,23s-3.165,0.897-4,2.234 C27.258,24.813,28.6,24.575,30,24.575z"/><linearGradient id="fB9mg3VFeZ0glwaTC2Sibf" x1="18" x2="18" y1="-448.963" y2="-451.281" gradientTransform="matrix(1 0 0 -1 0 -426)" gradientUnits="userSpaceOnUse"><stop offset="0" stop-color="#c48f0c"/><stop offset=".251" stop-color="#d19b16"/><stop offset=".619" stop-color="#dca51f"/><stop offset="1" stop-color="#e0a922"/></linearGradient><path fill="url(#fB9mg3VFeZ0glwaTC2Sibf)" d="M18,24.575c1.4,0,2.742,0.238,4,0.659C21.165,23.897,19.692,23,18,23s-3.165,0.897-4,2.234 C15.258,24.813,16.6,24.575,18,24.575z"/><path fill="#105ca0" d="M31,12h7v2l-4.2,4H38v2h-7v-2l4.157-4H31L31,12z"/><path fill="#105ca0" d="M40,4h8v2l-5.542,6H48v2h-8v-2l5.292-6H40V4z"/><ellipse cx="24" cy="34.5" fill="#2b1d1d" rx="2" ry="2.5"/></svg>