<svg xmlns="http://www.w3.org/2000/svg" baseProfile="basic" viewBox="0 0 48 48"><linearGradient id="0LqNr1PGiGRwckLPYvdeda" x1="6.005" x2="26.292" y1="13.969" y2="13.969" gradientUnits="userSpaceOnUse"><stop offset="0" stop-color="#fa67a6"/><stop offset=".245" stop-color="#fa6ca8"/><stop offset=".541" stop-color="#fa7bae"/><stop offset=".861" stop-color="#fa93b8"/><stop offset="1" stop-color="#faa0bd"/></linearGradient><path fill="url(#0LqNr1PGiGRwckLPYvdeda)" d="M20.105,4.969h-7.914c-0.8,0-1.54,0.425-1.944,1.116l-3.937,6.75	c-0.409,0.701-0.409,1.567,0,2.267l3.937,6.75c0.403,0.691,1.143,1.116,1.944,1.116h7.914c0.8,0,1.54-0.425,1.944-1.116l3.937-6.75	c0.409-0.701,0.409-1.567,0-2.267l-3.937-6.75C21.646,5.394,20.906,4.969,20.105,4.969z"/><linearGradient id="0LqNr1PGiGRwckLPYvdedb" x1="-7.815" x2="12.359" y1="24.734" y2="24.734" gradientTransform="translate(31.552 .101) scale(.9662)" gradientUnits="userSpaceOnUse"><stop offset="0" stop-color="#faa0bd"/><stop offset=".139" stop-color="#fa93b8"/><stop offset=".459" stop-color="#fa7bae"/><stop offset=".755" stop-color="#fa6ca8"/><stop offset="1" stop-color="#fa67a6"/></linearGradient><path fill="url(#0LqNr1PGiGRwckLPYvdedb)" d="M37.465,15h-7.437c-0.815,0-1.566,0.44-1.963,1.151l-3.778,6.75	c-0.382,0.683-0.382,1.515,0,2.198l3.778,6.75C28.463,32.56,29.214,33,30.028,33h7.437c0.815,0,1.566-0.44,1.963-1.151l3.778-6.75	c0.382-0.683,0.382-1.515,0-2.198l-3.778-6.75C39.031,15.44,38.28,15,37.465,15z"/><linearGradient id="0LqNr1PGiGRwckLPYvdedc" x1="-104.466" x2="-88.822" y1="44.572" y2="28.928" gradientTransform="translate(102.108 1.333) scale(.8889)" gradientUnits="userSpaceOnUse"><stop offset="0" stop-color="#fa67a6"/><stop offset=".245" stop-color="#fa6ca8"/><stop offset=".541" stop-color="#fa7bae"/><stop offset=".861" stop-color="#fa93b8"/><stop offset="1" stop-color="#faa0bd"/></linearGradient><path fill="url(#0LqNr1PGiGRwckLPYvdedc)" d="M20.176,25h-7.948c-0.799,0-1.539,0.424-1.942,1.114l-3.949,6.75 c-0.411,0.702-0.411,1.57,0,2.272l3.949,6.75C10.69,42.576,11.429,43,12.228,43h7.948c0.799,0,1.539-0.424,1.942-1.114l3.949-6.75 c0.411-0.702,0.411-1.57,0-2.272l-3.949-6.75C21.715,25.424,20.976,25,20.176,25z"/><linearGradient id="0LqNr1PGiGRwckLPYvdedd" x1="16.21" x2="21.835" y1="14.531" y2="14.531" gradientUnits="userSpaceOnUse"><stop offset="0" stop-color="#424ebd"/><stop offset="1" stop-color="#6673cf"/></linearGradient><circle cx="19.022" cy="14.531" r="2.813" fill="url(#0LqNr1PGiGRwckLPYvdedd)"/><path d="M19.022,11.719c1.553,0,2.813,1.259,2.813,2.813s-1.259,2.813-2.813,2.813s-2.813-1.259-2.813-2.813 S17.469,11.719,19.022,11.719 M19.022,10.594c-2.171,0-3.938,1.766-3.938,3.938s1.766,3.938,3.938,3.938s3.938-1.766,3.938-3.938 S21.194,10.594,19.022,10.594L19.022,10.594z" opacity=".05"/><path d="M19.022,11.719c1.553,0,2.813,1.259,2.813,2.813s-1.259,2.813-2.813,2.813s-2.813-1.259-2.813-2.813 S17.469,11.719,19.022,11.719 M19.022,11.156c-1.861,0-3.375,1.514-3.375,3.375s1.514,3.375,3.375,3.375s3.375-1.514,3.375-3.375 S20.883,11.156,19.022,11.156L19.022,11.156z" opacity=".07"/><linearGradient id="0LqNr1PGiGRwckLPYvdede" x1="28.738" x2="34.363" y1="22.315" y2="22.315" gradientUnits="userSpaceOnUse"><stop offset="0" stop-color="#424ebd"/><stop offset="1" stop-color="#6673cf"/></linearGradient><circle cx="31.55" cy="22.315" r="2.813" fill="url(#0LqNr1PGiGRwckLPYvdede)"/><path d="M31.55,19.502c1.553,0,2.813,1.259,2.813,2.813s-1.259,2.813-2.813,2.813s-2.813-1.259-2.813-2.813 S29.997,19.502,31.55,19.502 M31.55,18.377c-2.171,0-3.938,1.766-3.938,3.938s1.766,3.938,3.938,3.938s3.938-1.766,3.938-3.938 S33.721,18.377,31.55,18.377L31.55,18.377z" opacity=".05"/><path d="M31.55,19.502c1.553,0,2.813,1.259,2.813,2.813s-1.259,2.813-2.813,2.813s-2.813-1.259-2.813-2.813 S29.997,19.502,31.55,19.502 M31.55,18.94c-1.861,0-3.375,1.514-3.375,3.375s1.514,3.375,3.375,3.375s3.375-1.514,3.375-3.375 S33.411,18.94,31.55,18.94L31.55,18.94z" opacity=".07"/><circle cx="10.585" cy="13.969" r="2.25" fill="#f8c23b"/><circle cx="13.96" cy="19.594" r="1.125" fill="#f8c23b"/><circle cx="16.21" cy="8.344" r="1.125" fill="#f8c23b"/><circle cx="38.3" cy="25.69" r="1.688" fill="#f8c23b"/><circle cx="37.738" cy="19.502" r="1.125" fill="#f8c23b"/><circle cx="32.675" cy="29.065" r="1.688" fill="#f8c23b"/><g><linearGradient id="0LqNr1PGiGRwckLPYvdedf" x1="13.985" x2="19.611" y1="31.188" y2="31.188" gradientUnits="userSpaceOnUse"><stop offset="0" stop-color="#424ebd"/><stop offset="1" stop-color="#6673cf"/></linearGradient><circle cx="16.798" cy="31.188" r="2.813" fill="url(#0LqNr1PGiGRwckLPYvdedf)"/><path d="M16.8,28.375c0.578,0,1.161,0.177,1.663,0.546c1.252,0.919,1.521,2.68,0.602,3.932C18.514,33.603,17.66,34,16.796,34 c-0.578,0-1.161-0.177-1.663-0.546c-1.252-0.919-1.521-2.68-0.602-3.932C15.082,28.773,15.936,28.375,16.8,28.375 M16.801,27.25 L16.801,27.25c-1.25,0-2.437,0.601-3.176,1.607c-1.285,1.75-0.907,4.219,0.843,5.504c0.681,0.5,1.486,0.764,2.328,0.764 c1.25,0,2.437-0.601,3.176-1.607c1.285-1.75,0.907-4.219-0.843-5.504C18.448,27.514,17.643,27.25,16.801,27.25L16.801,27.25z" opacity=".05"/><path d="M16.8,28.375c0.578,0,1.161,0.177,1.663,0.546c1.252,0.919,1.521,2.68,0.602,3.932C18.514,33.603,17.66,34,16.796,34 c-0.578,0-1.161-0.177-1.663-0.546c-1.252-0.919-1.521-2.68-0.602-3.932C15.082,28.773,15.936,28.375,16.8,28.375 M16.801,27.813 L16.801,27.813c-1.071,0-2.089,0.515-2.723,1.377c-1.102,1.5-0.778,3.616,0.722,4.718c0.583,0.428,1.273,0.655,1.996,0.655 c1.071,0,2.089-0.515,2.722-1.377c1.102-1.5,0.778-3.616-0.722-4.718C18.212,28.039,17.522,27.813,16.801,27.813L16.801,27.813z" opacity=".07"/></g><circle cx="13.985" cy="38.5" r="2.25" fill="#f8c23b"/><circle cx="20.736" cy="37.375" r="1.125" fill="#f8c23b"/><circle cx="10.61" cy="32.875" r="1.125" fill="#f8c23b"/></svg>