<svg xmlns="http://www.w3.org/2000/svg" viewBox="0 0 48 48"><linearGradient id="cpFC9koB~FTq_sAG5TkCEa" x1="4.253" x2="16.647" y1="-27.283" y2="-40.045" gradientTransform="matrix(1 0 0 -1 0 -18)" gradientUnits="userSpaceOnUse"><stop offset="0" stop-color="#ffd869"/><stop offset="1" stop-color="#fec52b"/></linearGradient><path fill="url(#cpFC9koB~FTq_sAG5TkCEa)" d="M17,22H4V9.722C4,9.325,4.325,9,4.722,9h11.556C16.675,9,17,9.325,17,9.722V22z"/><path fill="#fff8e6" d="M8.694,9h3.611v1.806H8.694V9z"/><path fill="#586169" d="M44,36c0,3.313-2.687,6-6,6s-6-2.687-6-6s2.687-6,6-6S44,32.687,44,36"/><path fill="#999" d="M41,36c0,1.657-1.342,3-3,3s-3-1.342-3-3s1.342-3,3-3S41,34.342,41,36"/><path fill="#35c1f1" d="M38.502,27C34.359,27,31,30.582,31,35h13.975c0.577,0,1.034-0.546,0.952-1.156	C45.402,29.974,42.278,27,38.502,27z"/><path fill="#586169" d="M18,36c0,3.313-2.687,6-6,6s-6-2.687-6-6s2.687-6,6-6S18,32.687,18,36"/><path fill="#999" d="M15,36c0,1.657-1.342,3-3,3s-3-1.342-3-3s1.342-3,3-3S15,34.342,15,36"/><path fill="#35c1f1" d="M33.5,12h3.264C37.447,12,38,11.447,38,10.764V6.236C38,5.553,37.447,5,36.764,5H33.5	C31.567,5,30,6.567,30,8.5l0,0C30,10.433,31.567,12,33.5,12z"/><linearGradient id="cpFC9koB~FTq_sAG5TkCEb" x1="2.089" x2="40" y1="-41.5" y2="-41.5" gradientTransform="matrix(1 0 0 -1 0 -18)" gradientUnits="userSpaceOnUse"><stop offset="0" stop-color="#2aa4f4"/><stop offset="1" stop-color="#007ad9"/></linearGradient><path fill="url(#cpFC9koB~FTq_sAG5TkCEb)" d="M34,12h-2h-4v2h3.652l-3.058,17.586C28.552,31.825,28.345,32,28.101,32h-5.912	c-0.207,0-0.392-0.127-0.467-0.321l-3.476-9.038C18.098,22.255,17.727,22,17.313,22H9c-3.578,1.789-6.355,5.978-6.902,11.135	C1.992,34.136,2.808,35,3.815,35H30h2l8-8C39.634,22.078,37,15,34,12z"/><path fill="#565b5e" d="M25,14h3v-2h-3c-0.552,0-1,0.448-1,1l0,0C24,13.552,24.448,14,25,14z"/><path fill="#0078d4" d="M3.5,24h15.271l-0.524-1.36c-0.149-0.386-0.52-0.64-0.933-0.64H3.5C3.224,22,3,22.224,3,22.5v1	C3,23.776,3.224,24,3.5,24z"/></svg>