<svg xmlns="http://www.w3.org/2000/svg" viewBox="0 0 48 48"><linearGradient id="u3fhyvXZBKoI3n6Qe7nkJa" x1="16.576" x2="31.172" y1="-565.068" y2="-606.224" gradientTransform="matrix(1 0 0 -1 0 -562)" gradientUnits="userSpaceOnUse"><stop offset="0" stop-color="#889097"/><stop offset=".679" stop-color="#5f6b74"/><stop offset="1" stop-color="#4c5963"/></linearGradient><path fill="url(#u3fhyvXZBKoI3n6Qe7nkJa)" d="M35,4H13c-2.209,0-4,1.791-4,4v32c0,2.209,1.791,4,4,4h22c2.209,0,4-1.791,4-4V8 C39,5.791,37.209,4,35,4z"/><linearGradient id="u3fhyvXZBKoI3n6Qe7nkJb" x1="18.516" x2="29.298" y1="-568.038" y2="-598.438" gradientTransform="matrix(1 0 0 -1 0 -562)" gradientUnits="userSpaceOnUse"><stop offset="0" stop-color="#fafafb"/><stop offset=".293" stop-color="#f6f7f8"/><stop offset=".566" stop-color="#ebecee"/><stop offset=".832" stop-color="#d8dcdf"/><stop offset="1" stop-color="#c8cdd1"/></linearGradient><path fill="url(#u3fhyvXZBKoI3n6Qe7nkJb)" d="M32.8,7H15.2C13.433,7,12,8.298,12,9.9v23.2c0,1.602,1.433,2.9,3.2,2.9h17.6 c1.767,0,3.2-1.298,3.2-2.9V9.9C36,8.298,34.567,7,32.8,7z"/><linearGradient id="u3fhyvXZBKoI3n6Qe7nkJc" x1="24" x2="24" y1="37.563" y2="41.402" gradientUnits="userSpaceOnUse"><stop offset="0" stop-color="#c3cdd9"/><stop offset="1" stop-color="#9fa7b0"/></linearGradient><circle cx="24" cy="40" r="2" fill="url(#u3fhyvXZBKoI3n6Qe7nkJc)"/><linearGradient id="u3fhyvXZBKoI3n6Qe7nkJd" x1="16.5" x2="16.5" y1="38.782" y2="40.701" gradientUnits="userSpaceOnUse"><stop offset="0" stop-color="#c3cdd9"/><stop offset="1" stop-color="#9fa7b0"/></linearGradient><path fill="url(#u3fhyvXZBKoI3n6Qe7nkJd)" d="M15,41h3c0.552,0,1-0.448,1-1l0,0c0-0.552-0.448-1-1-1h-3c-0.552,0-1,0.448-1,1l0,0 C14,40.552,14.448,41,15,41z"/><linearGradient id="u3fhyvXZBKoI3n6Qe7nkJe" x1="31.5" x2="31.5" y1="38.782" y2="40.701" gradientUnits="userSpaceOnUse"><stop offset="0" stop-color="#c3cdd9"/><stop offset="1" stop-color="#9fa7b0"/></linearGradient><path fill="url(#u3fhyvXZBKoI3n6Qe7nkJe)" d="M30,41h3c0.552,0,1-0.448,1-1l0,0c0-0.552-0.448-1-1-1h-3c-0.552,0-1,0.448-1,1l0,0 C29,40.552,29.448,41,30,41z"/><path fill="#a9b1bb" d="M32.5,16h-17c-0.276,0-0.5-0.224-0.5-0.5v-1c0-0.276,0.224-0.5,0.5-0.5h17 c0.276,0,0.5,0.224,0.5,0.5v1C33,15.776,32.776,16,32.5,16z"/><path fill="#a9b1bb" d="M30.5,20h-15c-0.276,0-0.5-0.224-0.5-0.5v-1c0-0.276,0.224-0.5,0.5-0.5h15 c0.276,0,0.5,0.224,0.5,0.5v1C31,19.776,30.776,20,30.5,20z"/><path fill="#a9b1bb" d="M32.5,24h-17c-0.276,0-0.5-0.224-0.5-0.5v-1c0-0.276,0.224-0.5,0.5-0.5h17 c0.276,0,0.5,0.224,0.5,0.5v1C33,23.776,32.776,24,32.5,24z"/><path fill="#a9b1bb" d="M30.5,28h-15c-0.276,0-0.5-0.224-0.5-0.5v-1c0-0.276,0.224-0.5,0.5-0.5h15 c0.276,0,0.5,0.224,0.5,0.5v1C31,27.776,30.776,28,30.5,28z"/></svg>