<svg xmlns="http://www.w3.org/2000/svg" viewBox="0 0 48 48"><linearGradient id="2P59edCMFhug332pDytmKa" x1="4.998" x2="29" y1="31.002" y2="31.002" gradientUnits="userSpaceOnUse"><stop offset="0" stop-color="#fed100"/><stop offset="1" stop-color="#e36001"/></linearGradient><path fill="url(#2P59edCMFhug332pDytmKa)" d="M6.052,42.003c-0.891,0.028-1.399-1.05-0.784-1.694C8.046,37.402,9.994,32.335,11,29 c1.445-4.797,4-9,12-9l3.5,1.5L28,25c0,0,1,1,1,4.375C29,38.318,19.153,41.591,6.052,42.003z"/><linearGradient id="2P59edCMFhug332pDytmKb" x1="32.327" x2="40.418" y1="7.582" y2="15.673" gradientUnits="userSpaceOnUse"><stop offset="0" stop-color="#f44f5a"/><stop offset=".443" stop-color="#ee3d4a"/><stop offset="1" stop-color="#e52030"/></linearGradient><polygon fill="url(#2P59edCMFhug332pDytmKb)" points="34.909,5 30.34,10.76 37.24,17.66 43,13.091"/><polygon points="38.43,16.72 37.64,17.35 30.65,10.36 31.28,9.57" opacity=".05"/><path d="M31.59,9.18l-0.31,0.39l-0.63,0.79l-0.31,0.4l6.9,6.9l0.4-0.31l0.79-0.63l0.39-0.31L31.59,9.18z" opacity=".05"/><linearGradient id="2P59edCMFhug332pDytmKc" x1="26.467" x2="33.534" y1="14.467" y2="21.534" gradientUnits="userSpaceOnUse"><stop offset="0" stop-color="#c3cdd9"/><stop offset="1" stop-color="#9fa7b0"/></linearGradient><polygon fill="url(#2P59edCMFhug332pDytmKc)" points="38.034,17.034 28,25 23,20 30.967,9.967"/></svg>