<svg xmlns="http://www.w3.org/2000/svg" viewBox="0 0 48 48"><linearGradient id="cJc7Et~SkTLIf5bCTmkcGa" x1="14" x2="14" y1="5.332" y2="12.764" gradientUnits="userSpaceOnUse"><stop offset="0" stop-color="#32bdef"/><stop offset="1" stop-color="#1ea2e4"/></linearGradient><path fill="url(#cJc7Et~SkTLIf5bCTmkcGa)" d="M14,3L14,3c-1.105,0-2,0.895-2,2v12h4V5C16,3.895,15.105,3,14,3z"/><linearGradient id="cJc7Et~SkTLIf5bCTmkcGb" x1="24.357" x2="24.574" y1="14.102" y2="43.101" gradientUnits="userSpaceOnUse"><stop offset="0" stop-color="#32bdef"/><stop offset="1" stop-color="#1ea2e4"/></linearGradient><path fill="url(#cJc7Et~SkTLIf5bCTmkcGb)" d="M24.5,9L24.5,9C16.492,9,10,15.492,10,23.5V43c0,1.105,0.895,2,2,2h25c1.105,0,2-0.895,2-2 V23.5C39,15.492,32.508,9,24.5,9z"/><linearGradient id="cJc7Et~SkTLIf5bCTmkcGc" x1="14" x2="35" y1="23.5" y2="23.5" gradientUnits="userSpaceOnUse"><stop offset="0" stop-color="#737b80"/><stop offset=".473" stop-color="#686f74"/><stop offset="1" stop-color="#575c61"/></linearGradient><circle cx="24.5" cy="23.5" r="10.5" fill="url(#cJc7Et~SkTLIf5bCTmkcGc)"/><path fill="#46494c" d="M31.5,25h-14c-0.828,0-1.5-0.672-1.5-1.5v0c0-0.828,0.672-1.5,1.5-1.5h14c0.828,0,1.5,0.672,1.5,1.5 v0C33,24.328,32.328,25,31.5,25z"/><path fill="#46494c" d="M28.5,20h-8c-0.828,0-1.5-0.672-1.5-1.5v0c0-0.828,0.672-1.5,1.5-1.5h8c0.828,0,1.5,0.672,1.5,1.5v0 C30,19.328,29.328,20,28.5,20z"/><path fill="#46494c" d="M28.5,30h-8c-0.828,0-1.5-0.672-1.5-1.5v0c0-0.828,0.672-1.5,1.5-1.5h8c0.828,0,1.5,0.672,1.5,1.5v0 C30,29.328,29.328,30,28.5,30z"/><linearGradient id="cJc7Et~SkTLIf5bCTmkcGd" x1="19" x2="30" y1="40.5" y2="40.5" gradientUnits="userSpaceOnUse"><stop offset="0" stop-color="#3079d6"/><stop offset="1" stop-color="#297cd2"/></linearGradient><path fill="url(#cJc7Et~SkTLIf5bCTmkcGd)" d="M28.5,42h-8c-0.828,0-1.5-0.672-1.5-1.5l0,0c0-0.828,0.672-1.5,1.5-1.5h8 c0.828,0,1.5,0.672,1.5,1.5l0,0C30,41.328,29.328,42,28.5,42z"/><linearGradient id="cJc7Et~SkTLIf5bCTmkcGe" x1="12" x2="17" y1="40.5" y2="40.5" gradientUnits="userSpaceOnUse"><stop offset="0" stop-color="#f44f5a"/><stop offset=".443" stop-color="#ee3d4a"/><stop offset=".731" stop-color="#e92e3d"/><stop offset="1" stop-color="#e52030"/></linearGradient><circle cx="14.5" cy="40.5" r="2.5" fill="url(#cJc7Et~SkTLIf5bCTmkcGe)"/><linearGradient id="cJc7Et~SkTLIf5bCTmkcGf" x1="32" x2="37" y1="40.5" y2="40.5" gradientUnits="userSpaceOnUse"><stop offset="0" stop-color="#ffd000"/><stop offset="1" stop-color="#fede00"/></linearGradient><circle cx="34.5" cy="40.5" r="2.5" fill="url(#cJc7Et~SkTLIf5bCTmkcGf)"/></svg>