<svg xmlns="http://www.w3.org/2000/svg" data-name="Слой 1" viewBox="0 0 48 48"><defs><linearGradient id="GVI8P_9~K4ZhiUNZiTzrXa" x1="11.274" x2="36.726" y1="-1293.271" y2="-1318.724" data-name="Безымянный градиент 124" gradientTransform="matrix(1 0 0 -1 0 -1284)" gradientUnits="userSpaceOnUse"><stop offset="0" stop-color="#d43a02"/><stop offset="1" stop-color="#b9360c"/></linearGradient></defs><path fill="url(#GVI8P_9~K4ZhiUNZiTzrXa)" d="M36.902,34.536a18,18,0,1,0-25.804,0c.018.019.03.04.048.059l.059.059c.047.048.094.095.142.142L22.586,46.035a1.99959,1.99959,0,0,0,2.828,0L36.653,34.796c.048-.047.095-.094.142-.142l.059-.059C36.873,34.576,36.885,34.554,36.902,34.536Z"/><path d="M25.40533,13l5.68934,17H28.10553l-.91486-2.83337H20.80322L19.89307,30H16.90533L22.572,13h2.83331m-3.692,11.33331h4.5625L23.98865,17.25l-2.27533,7.08331M26.12518,12H21.85126l-.22791.68378-5.66668,17L15.51791,31h5.10425l.223-.69415.68717-2.13922h4.93042l.69116,2.14062L27.37759,31h5.10627L32.043,29.68262l-5.68933-17L26.12518,12ZM23.08487,23.33331l.90625-2.82123.911,2.82123Z" opacity=".05"/><path d="M25.40533,13l5.68934,17H28.10553l-.91486-2.83337H20.80322L19.89307,30H16.90533L22.572,13h2.83331m-3.692,11.33331h4.5625L23.98865,17.25l-2.27533,7.08331M25.76526,12.5H22.21164l-.11395.34192-5.66669,17L16.21161,30.5h4.046l.11148-.34711.79865-2.48626h5.65893l.803,2.487.11182.34637h4.0477l-.22043-.65869-5.68933-17L25.76526,12.5ZM22.39911,23.83331,23.9899,18.881,25.589,23.83331Z" opacity=".07"/><path fill="#fff" d="M28.10553,30h2.98914L25.40533,13H22.572L16.90533,30h2.98774l.91015-2.83337h6.38745Zm-6.39221-5.66669L23.98865,17.25l2.28717,7.08331Z"/></svg>