<svg xmlns="http://www.w3.org/2000/svg" viewBox="0 0 48 48"><path fill="#7f929e" d="M29.299,4.539l3.402-3.402c0.626-0.626,1.642-0.626,2.268,0l0,0c0.626,0.626,0.626,1.642,0,2.268	l-3.402,3.402L29.299,4.539z"/><path fill="#7f929e" d="M32.701,9.074l3.958-3.958c0.626-0.626,1.642-0.626,2.268,0l0,0c0.626,0.626,0.626,1.642,0,2.268	l-3.958,3.958L32.701,9.074z"/><path fill="#7f929e" d="M37.238,12.477l3.402-3.402c0.626-0.626,1.642-0.626,2.268,0v0c0.626,0.626,0.626,1.642,0,2.268	l-3.402,3.402L37.238,12.477z"/><path fill="#7f929e" d="M40.64,17.012l3.958-3.958c0.626-0.626,1.642-0.626,2.268,0l0,0c0.626,0.626,0.626,1.642,0,2.268	l-3.958,3.958L40.64,17.012z"/><linearGradient id="dKMfbARCPgWFMObvYQcvMa" x1="31.682" x2="21.693" y1="47.483" y2="33.736" gradientUnits="userSpaceOnUse"><stop offset=".374" stop-color="#101334"/><stop offset=".663" stop-color="#12173d"/><stop offset="1" stop-color="#171e4d"/></linearGradient><path fill="url(#dKMfbARCPgWFMObvYQcvMa)" d="M25.063,6.544l-9.401,10.969c-0.348,0.407-0.622,0.872-0.809,1.374	c-0.697,1.855-2.692,6.744-5.411,9.466c-1.001,0.968-2.241,1.653-3.593,1.985c-1.483,0.495-2.811,1.367-3.856,2.53	c-2.891,3.756-2.618,9.057,0.644,12.496c3.443,3.255,8.74,3.525,12.496,0.638c1.162-1.045,2.034-2.373,2.53-3.856	c0.332-1.351,1.017-2.588,1.985-3.587c2.71-2.465,5.921-4.315,9.413-5.424c0.552-0.184,1.064-0.474,1.505-0.854l10.893-9.337	L25.063,6.544z"/><path fill="#b1bbc6" d="M41.458,22.945l1.484-1.274c1.427-1.222,1.593-3.37,0.37-4.797c-0.057-0.067-0.117-0.131-0.178-0.193	L31.319,4.868c-1.328-1.329-3.482-1.329-4.811-0.001c-0.062,0.062-0.121,0.126-0.178,0.193l-1.267,1.484L41.458,22.945z"/><circle cx="17.381" cy="30.621" r="2.268" fill="#8d96d2"/><path fill="#8d96d2" d="M26.453,15.878c-3.132,0-5.67,2.539-5.67,5.67c0,3.132,2.539,5.67,5.67,5.67	c3.13-0.004,5.667-2.54,5.67-5.67C32.123,18.417,29.585,15.878,26.453,15.878z M26.453,24.951c-1.879,0-3.402-1.523-3.402-3.402	s1.523-3.402,3.402-3.402c0.524,0,1.015,0.128,1.458,0.34l-2.26,2.26c-0.213,0.213-0.332,0.501-0.332,0.802	c0,0.626,0.508,1.134,1.134,1.134c0.301,0,0.589-0.12,0.802-0.332l2.26-2.26c0.212,0.443,0.34,0.934,0.34,1.458	C29.855,23.428,28.332,24.951,26.453,24.951z"/><path fill="#151515" d="M17.381,28.353c1.253,0,2.268,1.015,2.268,2.268c0,1.253-1.015,2.268-2.268,2.268 c-1.253,0-2.268-1.015-2.268-2.268C15.112,29.369,16.128,28.353,17.381,28.353 M17.381,27.353c-1.802,0-3.268,1.466-3.268,3.268 c0,1.802,1.466,3.268,3.268,3.268s3.268-1.466,3.268-3.268C20.649,28.819,19.183,27.353,17.381,27.353L17.381,27.353z" opacity=".05"/><path fill="#151515" d="M17.381,28.353c1.253,0,2.268,1.015,2.268,2.268c0,1.253-1.015,2.268-2.268,2.268 c-1.253,0-2.268-1.015-2.268-2.268C15.112,29.369,16.128,28.353,17.381,28.353 M17.381,27.853c-1.526,0-2.768,1.242-2.768,2.768 c0,1.526,1.242,2.768,2.768,2.768s2.768-1.242,2.768-2.768C20.149,29.095,18.907,27.853,17.381,27.853L17.381,27.853z" opacity=".05"/><path fill="#151515" d="M26.453,15.878c3.132,0,5.67,2.539,5.67,5.67c-0.004,3.13-2.54,5.667-5.67,5.67 c-3.132,0-5.67-2.539-5.67-5.67C20.783,18.417,23.321,15.878,26.453,15.878 M26.453,24.951c1.879,0,3.402-1.523,3.402-3.402 c0-0.524-0.128-1.015-0.34-1.458l-2.26,2.26c-0.213,0.213-0.501,0.332-0.802,0.332c-0.626,0-1.134-0.508-1.134-1.134 c0-0.301,0.12-0.589,0.332-0.802l2.26-2.26c-0.444-0.212-0.934-0.34-1.458-0.34c-1.879,0-3.402,1.523-3.402,3.402 S24.574,24.951,26.453,24.951 M26.453,15.378c-3.402,0-6.17,2.768-6.17,6.17c0,3.402,2.768,6.17,6.17,6.17 c3.399-0.004,6.166-2.772,6.17-6.17C32.623,18.146,29.855,15.378,26.453,15.378L26.453,15.378z M26.453,24.451 c-1.6,0-2.902-1.302-2.902-2.902s1.302-2.902,2.902-2.902c0.18,0,0.359,0.018,0.538,0.054l-1.693,1.693 c-0.309,0.309-0.478,0.719-0.478,1.155c0,0.901,0.733,1.634,1.634,1.634c0.437,0,0.847-0.17,1.156-0.479l1.693-1.693 c0.036,0.178,0.054,0.358,0.054,0.538C29.355,23.149,28.053,24.451,26.453,24.451L26.453,24.451z" opacity=".05"/><path fill="#151515" d="M26.453,15.878c3.132,0,5.67,2.539,5.67,5.67c-0.004,3.13-2.54,5.667-5.67,5.67 c-3.132,0-5.67-2.539-5.67-5.67C20.783,18.417,23.321,15.878,26.453,15.878 M26.453,24.951c1.879,0,3.402-1.523,3.402-3.402 c0-0.524-0.128-1.015-0.34-1.458l-2.26,2.26c-0.213,0.213-0.501,0.332-0.802,0.332c-0.626,0-1.134-0.508-1.134-1.134 c0-0.301,0.12-0.589,0.332-0.802l2.26-2.26c-0.444-0.212-0.934-0.34-1.458-0.34c-1.879,0-3.402,1.523-3.402,3.402 S24.574,24.951,26.453,24.951 M26.453,14.878c-3.678,0-6.67,2.992-6.67,6.67c0,3.678,2.992,6.67,6.67,6.67 c3.674-0.004,6.666-2.996,6.67-6.669C33.123,17.871,30.131,14.878,26.453,14.878L26.453,14.878z M26.453,23.951 c-1.325,0-2.402-1.078-2.402-2.402c0-1.071,0.704-1.98,1.674-2.289l-0.78,0.78c-0.403,0.403-0.625,0.939-0.625,1.508 c0,1.177,0.957,2.134,2.134,2.135c0.57,0,1.106-0.222,1.509-0.625l0.78-0.78C28.433,23.247,27.524,23.951,26.453,23.951 L26.453,23.951z" opacity=".05"/></svg>