<svg xmlns="http://www.w3.org/2000/svg" viewBox="0 0 48 48"><linearGradient id="fuUQkPB1Dt~XkJFsByHana" x1="24" x2="24" y1="654.016" y2="645.747" gradientTransform="matrix(1 0 0 -1 0 660.724)" gradientUnits="userSpaceOnUse"><stop offset="0" stop-color="#eba600"/><stop offset="1" stop-color="#c28200"/></linearGradient><path fill="url(#fuUQkPB1Dt~XkJFsByHana)" d="M24.414,10.414l-2.536-2.536C21.316,7.316,20.553,7,19.757,7H5C3.895,7,3,7.895,3,9v30 c0,1.105,0.895,2,2,2h38c1.105,0,2-0.895,2-2V13c0-1.105-0.895-2-2-2H25.828C25.298,11,24.789,10.789,24.414,10.414z"/><linearGradient id="fuUQkPB1Dt~XkJFsByHanb" x1="24" x2="24" y1="649.87" y2="619.741" gradientTransform="matrix(1 0 0 -1 0 660.724)" gradientUnits="userSpaceOnUse"><stop offset="0" stop-color="#ffd869"/><stop offset="1" stop-color="#fec52b"/></linearGradient><path fill="url(#fuUQkPB1Dt~XkJFsByHanb)" d="M21.586,14.414l3.268-3.268C24.947,11.053,25.074,11,25.207,11H43c1.105,0,2,0.895,2,2v26 c0,1.105-0.895,2-2,2H5c-1.105,0-2-0.895-2-2V15.5C3,15.224,3.224,15,3.5,15h16.672C20.702,15,21.211,14.789,21.586,14.414z"/><linearGradient id="fuUQkPB1Dt~XkJFsByHanc" x1="18.183" x2="29.104" y1="564.06" y2="584.6" gradientTransform="translate(0 -545.276)" gradientUnits="userSpaceOnUse"><stop offset="0" stop-color="#f44f5a"/><stop offset=".5" stop-color="#ee3d4a"/><stop offset=".788" stop-color="#ed3b48"/><stop offset=".892" stop-color="#eb3442"/><stop offset=".966" stop-color="#e82938"/><stop offset="1" stop-color="#e52030"/></linearGradient><path fill="url(#fuUQkPB1Dt~XkJFsByHanc)" d="M21.669,17.583c-0.059-0.431,0.395-0.741,0.76-0.504C24.022,18.112,27,20.605,27,25 c0.798-0.462,1.17-1.798,1.343-2.608c0.095-0.445,0.681-0.54,0.918-0.15C30.668,24.561,32,28.187,32,30.317 C32.001,34.561,28.419,38,24,38c-4.859,0-8-3.93-8-7.683C16,24.428,22.443,23.225,21.669,17.583z"/><linearGradient id="fuUQkPB1Dt~XkJFsByHand" x1="21.126" x2="25.815" y1="567.048" y2="583.4" gradientTransform="translate(0 -545.276)" gradientUnits="userSpaceOnUse"><stop offset="0" stop-color="#fed100"/><stop offset=".198" stop-color="#fdcd00"/><stop offset=".384" stop-color="#fac200"/><stop offset=".566" stop-color="#f6af00"/><stop offset=".746" stop-color="#ef9401"/><stop offset=".921" stop-color="#e77201"/><stop offset="1" stop-color="#e36001"/></linearGradient><path fill="url(#fuUQkPB1Dt~XkJFsByHand)" d="M23.535,24.121c-0.332-0.288-0.831-0.028-0.816,0.415c0.108,3.111-2.72,4.311-2.72,7.449 C20,34.203,21.791,36,24,36s4-1.797,4-4.015C28,28.465,25.108,25.482,23.535,24.121z"/></svg>