<svg xmlns="http://www.w3.org/2000/svg" viewBox="0 0 48 48"><path fill="#50e6ff" d="M39,7v34c0,1.105-0.895,2-2,2H11c-1.105,0-2-0.895-2-2V7c0-1.105,0.895-2,2-2h26	C38.105,5,39,5.895,39,7z"/><path fill="#057093" d="M24,25H14c-0.552,0-1,0.448-1,1l0,0c0,0.552,0.448,1,1,1h10c0.552,0,1-0.448,1-1l0,0	C25,25.448,24.552,25,24,25z"/><path fill="#057093" d="M24,21H14c-0.552,0-1,0.448-1,1l0,0c0,0.552,0.448,1,1,1h10c0.552,0,1-0.448,1-1l0,0	C25,21.448,24.552,21,24,21z"/><circle cx="34" cy="22" r="1" fill="#057093"/><path fill="#057093" d="M24,17H14c-0.552,0-1,0.448-1,1l0,0c0,0.552,0.448,1,1,1h10c0.552,0,1-0.448,1-1l0,0	C25,17.448,24.552,17,24,17z"/><circle cx="34" cy="18" r="1" fill="#057093"/><path fill="#057093" d="M24,13H14c-0.552,0-1,0.448-1,1l0,0c0,0.552,0.448,1,1,1h10c0.552,0,1-0.448,1-1l0,0	C25,13.448,24.552,13,24,13z"/><circle cx="34" cy="14" r="1" fill="#057093"/><circle cx="34" cy="26" r="1" fill="#057093"/><path fill="#057093" d="M24,29H14c-0.552,0-1,0.448-1,1l0,0c0,0.552,0.448,1,1,1h10c0.552,0,1-0.448,1-1l0,0	C25,29.448,24.552,29,24,29z"/><circle cx="34" cy="30" r="1" fill="#057093"/><path fill="#057093" d="M24,33H14c-0.552,0-1,0.448-1,1l0,0c0,0.552,0.448,1,1,1h10c0.552,0,1-0.448,1-1l0,0	C25,33.448,24.552,33,24,33z"/><circle cx="34" cy="34" r="1" fill="#057093"/><path fill="#35c1f1" d="M29,36L29,36c-0.552,0-1-0.448-1-1V13c0-0.552,0.448-1,1-1h0c0.552,0,1,0.448,1,1v22	C30,35.552,29.552,36,29,36z"/></svg>