<svg xmlns="http://www.w3.org/2000/svg" xmlns:xlink="http://www.w3.org/1999/xlink" data-name="Слой 1" viewBox="0 0 48 48"><defs><linearGradient id="9qeVFAF8hATSFak~MRQ7Va" x1="41.457" x2="31.962" y1="2.543" y2="12.038" data-name="Безымянный градиент 14" gradientUnits="userSpaceOnUse"><stop offset=".087" stop-color="#dfe9f2"/><stop offset=".291" stop-color="#d6e0e9"/><stop offset=".662" stop-color="#bfc8d1"/><stop offset=".741" stop-color="#889097"/></linearGradient><linearGradient id="9qeVFAF8hATSFak~MRQ7Vb" x1="37.368" x2="20.195" y1="6.632" y2="23.805" xlink:href="#9qeVFAF8hATSFak~MRQ7Va"/><linearGradient id="9qeVFAF8hATSFak~MRQ7Vc" x1="9.546" x2="20.95" y1="10.014" y2="41.347" data-name="Безымянный градиент 121" gradientUnits="userSpaceOnUse"><stop offset="0" stop-color="#f44f5a"/><stop offset=".443" stop-color="#ee3d4a"/><stop offset="1" stop-color="#e52030"/></linearGradient></defs><path fill="#64717c" d="M12.30859,44.8457A6.91911,6.91911,0,0,1,7.293,42.707a4.72791,4.72791,0,0,1-1.231-4.34375A8.03552,8.03552,0,0,1,8.293,34.293.99989.99989,0,0,1,9.707,35.707a5.99928,5.99928,0,0,0-1.67871,3.02051A2.78944,2.78944,0,0,0,8.707,41.293c3.96143,3.96094,10.11768-.53418,14.58594-5,6.75635-6.75684,12.03271-5.60059,13.98584-4.793C39.46973,32.4082,41,34.25781,41,36a1,1,0,0,1-2,0c0-.79687-.93018-2.00684-2.48682-2.65234-1.58349-.6543-5.9038-1.543-11.80615,4.35937C19.34863,43.06543,15.30957,44.8457,12.30859,44.8457Z"/><polygon fill="url(#9qeVFAF8hATSFak~MRQ7Va)" points="34.832 10.582 33.418 9.168 38.043 4.543 40 4 39.457 5.957 34.832 10.582"/><path fill="url(#9qeVFAF8hATSFak~MRQ7Vb)" d="M21.41406,25.41406l-2.82812-2.82812L33.87883,7.293a1,1,0,0,1,1.41421,0L36.707,8.707a1,1,0,0,1,0,1.41421Z"/><path fill="#64717c" d="M21.00368,18.46079h5.07107a1,1,0,0,1,1,1v3a0,0,0,0,1,0,0H20.00368a0,0,0,0,1,0,0v-3a1,1,0,0,1,1-1Z" transform="rotate(45 23.54 20.46)"/><path fill="url(#9qeVFAF8hATSFak~MRQ7Vc)" d="M25.33563,23.33557l-4.67126-4.6712a2.2686,2.2686,0,0,0-3.77246.937l-.82227,2.67224L8.17139,30.17188a3.99992,3.99992,0,1,0,5.65722,5.65625l7.89777-7.89777,2.67224-.82227A2.26867,2.26867,0,0,0,25.33563,23.33557Z"/></svg>