<svg xmlns="http://www.w3.org/2000/svg" viewBox="0 0 48 48"><path fill="#abb4be" d="M39.977,26c-0.01,0-0.019,0-0.029,0c-0.552-0.016-0.987-0.477-0.971-1.028	c0.004-0.162,0.007-0.324,0.007-0.487C38.984,16.222,32.262,9.5,24,9.5S9.016,16.222,9.016,24.484c0,0.163,0.003,0.325,0.007,0.487	C9.039,25.523,8.604,25.983,8.052,26c-0.531-0.023-1.012-0.419-1.028-0.972c-0.005-0.18-0.008-0.361-0.008-0.544	C7.016,15.119,14.635,7.5,24,7.5s16.984,7.619,16.984,16.984c0,0.183-0.003,0.362-0.008,0.544C40.96,25.57,40.516,26,39.977,26z"/><path fill="#abb4be" d="M42.5,10h-38c-0.552,0-1-0.447-1-1s0.448-1,1-1h38c0.552,0,1,0.447,1,1S43.052,10,42.5,10z"/><linearGradient id="IBqfH405Uec5KDomrvYkva" x1="22.585" x2="25.248" y1="-375.721" y2="-385.659" gradientTransform="matrix(1 0 0 -1 0 -372)" gradientUnits="userSpaceOnUse"><stop offset="0" stop-color="#2aa4f4"/><stop offset="1" stop-color="#007ad9"/></linearGradient><path fill="url(#IBqfH405Uec5KDomrvYkva)" d="M27,14h-6c-1.1,0-2-0.9-2-2V6c0-1.1,0.9-2,2-2h6c1.1,0,2,0.9,2,2v6C29,13.1,28.1,14,27,14z"/><linearGradient id="IBqfH405Uec5KDomrvYkvb" x1="38.586" x2="41.248" y1="-396.721" y2="-406.659" gradientTransform="matrix(1 0 0 -1 0 -372)" gradientUnits="userSpaceOnUse"><stop offset="0" stop-color="#2aa4f4"/><stop offset="1" stop-color="#007ad9"/></linearGradient><path fill="url(#IBqfH405Uec5KDomrvYkvb)" d="M43,35h-6c-1.1,0-2-0.9-2-2v-6c0-1.1,0.9-2,2-2h6c1.1,0,2,0.9,2,2v6C45,34.1,44.1,35,43,35z"/><linearGradient id="IBqfH405Uec5KDomrvYkvc" x1="6.585" x2="9.248" y1="-396.721" y2="-406.659" gradientTransform="matrix(1 0 0 -1 0 -372)" gradientUnits="userSpaceOnUse"><stop offset="0" stop-color="#2aa4f4"/><stop offset="1" stop-color="#007ad9"/></linearGradient><path fill="url(#IBqfH405Uec5KDomrvYkvc)" d="M11,35H5c-1.1,0-2-0.9-2-2v-6c0-1.1,0.9-2,2-2h6c1.1,0,2,0.9,2,2v6C13,34.1,12.1,35,11,35z"/><linearGradient id="IBqfH405Uec5KDomrvYkvd" x1="42.011" x2="46.212" y1="-379.011" y2="-383.212" gradientTransform="matrix(1 0 0 -1 0 -372)" gradientUnits="userSpaceOnUse"><stop offset="0" stop-color="#33bef0"/><stop offset="1" stop-color="#0a85d9"/></linearGradient><circle cx="44" cy="9" r="3" fill="url(#IBqfH405Uec5KDomrvYkvd)"/><linearGradient id="IBqfH405Uec5KDomrvYkve" x1="2.011" x2="6.212" y1="-379.011" y2="-383.212" gradientTransform="matrix(1 0 0 -1 0 -372)" gradientUnits="userSpaceOnUse"><stop offset="0" stop-color="#33bef0"/><stop offset="1" stop-color="#0a85d9"/></linearGradient><circle cx="4" cy="9" r="3" fill="url(#IBqfH405Uec5KDomrvYkve)"/><linearGradient id="IBqfH405Uec5KDomrvYkvf" x1="59.986" x2="23.831" y1="28.25" y2="28.25" gradientTransform="matrix(-1 0 0 1 55.5 0)" gradientUnits="userSpaceOnUse"><stop offset="0" stop-color="#e36001"/><stop offset="1" stop-color="#fed100"/></linearGradient><path fill="url(#IBqfH405Uec5KDomrvYkvf)" d="M27,38.5h-6c0-4.038-3.575-6.889-3.608-6.913c-0.386-0.293-0.509-0.821-0.29-1.253	l6.006-11.788C23.28,18.211,23.624,18,24,18l0,0c0.376,0,0.721,0.211,0.891,0.547l6,11.788c0.221,0.433,0.098,0.962-0.292,1.254	C30.569,31.611,27,34.462,27,38.5z"/><linearGradient id="IBqfH405Uec5KDomrvYkvg" x1="24" x2="24" y1="33" y2="1.553" gradientUnits="userSpaceOnUse"><stop offset="0" stop-color="#c18310"/><stop offset="1" stop-color="#eba601"/></linearGradient><path fill="url(#IBqfH405Uec5KDomrvYkvg)" d="M25,29.277V19c0-0.552-0.448-1-1-1s-1,0.448-1,1v10.277c-0.595,0.346-1,0.984-1,1.723	c0,1.105,0.895,2,2,2s2-0.895,2-2C26,30.262,25.595,29.624,25,29.277z"/><path d="M20.835,37C20.939,37.478,21,37.979,21,38.5h6c0-0.521,0.061-1.022,0.165-1.5H20.835z" opacity=".05"/><path d="M20.918,37.5c0.048,0.325,0.082,0.656,0.082,1h6c0-0.344,0.034-0.675,0.082-1H20.918z" opacity=".05"/><linearGradient id="IBqfH405Uec5KDomrvYkvh" x1="20.358" x2="27.642" y1="38.075" y2="45.358" gradientUnits="userSpaceOnUse"><stop offset="0" stop-color="#f44f5a"/><stop offset=".443" stop-color="#ee3d4a"/><stop offset="1" stop-color="#e52030"/></linearGradient><path fill="url(#IBqfH405Uec5KDomrvYkvh)" d="M27.153,38h-6.306c-0.489,0-0.906,0.353-0.986,0.836L19,44h10l-0.861-5.164	C28.059,38.353,27.642,38,27.153,38z"/></svg>