<svg xmlns="http://www.w3.org/2000/svg" xmlns:xlink="http://www.w3.org/1999/xlink" data-name="Слой 1" viewBox="0 0 48 48"><defs><radialGradient id="viOMa4avxjPKcrAES2GIYc" cx="18.921" cy="-29.405" r="13.71" data-name="Безымянный градиент 95" gradientTransform="matrix(.92308 0 0 -1 6.308 -8)" gradientUnits="userSpaceOnUse"><stop offset=".376" stop-color="#261103"/><stop offset=".68" stop-color="#431d06"/><stop offset="1" stop-color="#662c09"/></radialGradient><radialGradient id="viOMa4avxjPKcrAES2GIYe" cx="141.92" cy="-133.17" r="12.224" data-name="Безымянный градиент 9" gradientTransform="matrix(.8816 0 0 -.8816 -101.116 -98.702)" gradientUnits="userSpaceOnUse"><stop offset="0" stop-color="#ffcf54"/><stop offset=".261" stop-color="#fdcb4d"/><stop offset=".639" stop-color="#f7c13a"/><stop offset="1" stop-color="#f0b421"/></radialGradient><radialGradient id="viOMa4avxjPKcrAES2GIYa" cx="13.444" cy="30.806" r="7.946" data-name="Безымянный градиент 7" gradientUnits="userSpaceOnUse"><stop offset="0" stop-color="#c26715"/><stop offset=".508" stop-color="#b85515"/><stop offset="1" stop-color="#ad3f16"/></radialGradient><radialGradient id="viOMa4avxjPKcrAES2GIYf" cx="27.373" cy="30.462" r="13.873" xlink:href="#viOMa4avxjPKcrAES2GIYa"/><linearGradient id="viOMa4avxjPKcrAES2GIYd" x1="20.766" x2="25.05" y1="-38.008" y2="-52.746" data-name="Безымянный градиент 11" gradientTransform="matrix(1 0 0 -1 0 -8)" gradientUnits="userSpaceOnUse"><stop offset="0" stop-color="#0370c8"/><stop offset=".484" stop-color="#036fc5"/><stop offset=".775" stop-color="#036abd"/><stop offset="1" stop-color="#0362b0"/></linearGradient><linearGradient id="viOMa4avxjPKcrAES2GIYg" x1="22.551" x2="24.865" y1="-38.369" y2="-51.763" data-name="Безымянный градиент 20" gradientTransform="matrix(1 0 0 -1 0 -8)" gradientUnits="userSpaceOnUse"><stop offset="0" stop-color="#fede00"/><stop offset="1" stop-color="#ffd000"/></linearGradient><linearGradient id="viOMa4avxjPKcrAES2GIYb" x1="14.553" x2="15.401" y1="-44.985" y2="-47.859" data-name="Безымянный градиент 8" gradientTransform="matrix(1 0 0 -1 0 -8)" gradientUnits="userSpaceOnUse"><stop offset="0" stop-color="#4b4b4b"/><stop offset="1" stop-color="#3b3b3b"/></linearGradient><linearGradient id="viOMa4avxjPKcrAES2GIYh" x1="32.553" x2="33.401" y1="-44.985" y2="-47.859" xlink:href="#viOMa4avxjPKcrAES2GIYb"/></defs><path fill="url(#viOMa4avxjPKcrAES2GIYc)" d="M24,9C14.496,9,12.13846,25.625,12.13846,25.625c0,2.96,1.26923,5.553,3.92585,6.24A32.69908,32.69908,0,0,0,24,33a32.73507,32.73507,0,0,0,7.93477-1.134c2.65754-.687,3.92584-3.281,3.92584-6.24C35.86154,25.625,33.504,9,24,9Z"/><path fill="url(#viOMa4avxjPKcrAES2GIYd)" d="M24,30.571c-8.837,0-16,4.921-16,10.286V42a1.99945,1.99945,0,0,0,2,2H38a1.99945,1.99945,0,0,0,2-2V40.857C40,35.492,32.837,30.571,24,30.571Z"/><path fill="#d6a121" d="M29,32c0,1.897-2,4-5,4s-5-2.103-5-4V24.965H29Z"/><path fill="url(#viOMa4avxjPKcrAES2GIYe)" d="M24,6.4c-4.441,0-9,.675-9,10.275v6.698C15,26.8,20.4,31,24,31s9-4.2,9-7.627V16.675C33,7.075,28.441,6.4,24,6.4Z"/><path fill="url(#viOMa4avxjPKcrAES2GIYa)" d="M15,16h3.38a22.36757,22.36757,0,0,1-1.44,2c-1.86,2.44-3.83,5.33-2.54,13.08-.64-.4-2.4-1.8-2.4-5.6C12,22,13,18,15,16Z"/><path fill="url(#viOMa4avxjPKcrAES2GIYf)" d="M36,25.48a6.69536,6.69536,0,0,1-1.97,5.25c.15-8.09-1.48-11.22-3.76-12.73-1.62-1.08-3.57-1.34-5.42-2H33C35,18,36,21,36,25.48Z"/><path fill="#ff832b" d="M36,16.5v1a.49514.49514,0,0,1-.5.5h-23a.30783.30783,0,0,1-.1-.01.503.503,0,0,1-.4-.49v-1a.49511.49511,0,0,1,.5-.5h23A.49511.49511,0,0,1,36,16.5Z"/><path fill="#fc6900" d="M34,15V14a8.99944,8.99944,0,0,0-9-9H23a8.99944,8.99944,0,0,0-9,9v1a1.00036,1.00036,0,0,1-1,1H35A1.00036,1.00036,0,0,1,34,15Z"/><path fill="#fc720f" d="M23,4h2a1.00036,1.00036,0,0,1,1,1V16H22V5A1.00036,1.00036,0,0,1,23,4Z"/><path fill="url(#viOMa4avxjPKcrAES2GIYg)" d="M31,31.674V40H17V31.674a18.35625,18.35625,0,0,0-4,1.841V44H35V33.515A18.35625,18.35625,0,0,0,31,31.674Z"/><rect width="4" height="3" x="13" y="37" fill="url(#viOMa4avxjPKcrAES2GIYb)"/><rect width="4" height="3" x="31" y="37" fill="url(#viOMa4avxjPKcrAES2GIYh)"/></svg>