<svg xmlns="http://www.w3.org/2000/svg" viewBox="0 0 48 48"><path fill="#50e6ff" d="M39,41c0,1.105-0.895,2-2,2H11c-1.105,0-2-0.895-2-2V7c0-1.105,0.895-2,2-2h26c1.105,0,2,0.895,2,2	V41z"/><path fill="#057093" d="M33.5,15h-19c-0.276,0-0.5-0.224-0.5-0.5v-1c0-0.276,0.224-0.5,0.5-0.5h19 c0.276,0,0.5,0.224,0.5,0.5v1C34,14.776,33.776,15,33.5,15z"/><path fill="#057093" d="M33.5,19h-19c-0.276,0-0.5-0.224-0.5-0.5v-1c0-0.276,0.224-0.5,0.5-0.5h19 c0.276,0,0.5,0.224,0.5,0.5v1C34,18.776,33.776,19,33.5,19z"/><path fill="#057093" d="M33.5,23h-19c-0.276,0-0.5-0.224-0.5-0.5v-1c0-0.276,0.224-0.5,0.5-0.5h19 c0.276,0,0.5,0.224,0.5,0.5v1C34,22.776,33.776,23,33.5,23z"/><path fill="#057093" d="M33.5,27h-19c-0.276,0-0.5-0.224-0.5-0.5v-1c0-0.276,0.224-0.5,0.5-0.5h19 c0.276,0,0.5,0.224,0.5,0.5v1C34,26.776,33.776,27,33.5,27z"/><path fill="#057093" d="M33.5,31h-19c-0.276,0-0.5-0.224-0.5-0.5v-1c0-0.276,0.224-0.5,0.5-0.5h19 c0.276,0,0.5,0.224,0.5,0.5v1C34,30.776,33.776,31,33.5,31z"/><path fill="#057093" d="M33.5,35h-19c-0.276,0-0.5-0.224-0.5-0.5v-1c0-0.276,0.224-0.5,0.5-0.5h19 c0.276,0,0.5,0.224,0.5,0.5v1C34,34.776,33.776,35,33.5,35z"/></svg>