<svg xmlns="http://www.w3.org/2000/svg" viewBox="0 0 48 48"><linearGradient id="QcwI-1CWN8D_uDeoy7Viha" x1="25.608" x2="25.608" y1="-.154" y2="9.947" gradientTransform="rotate(30 24 23.999)" gradientUnits="userSpaceOnUse"><stop offset="0" stop-color="#6d6d6d"/><stop offset=".126" stop-color="#626262"/><stop offset=".886" stop-color="#464646"/><stop offset="1" stop-color="#454545"/></linearGradient><path fill="url(#QcwI-1CWN8D_uDeoy7Viha)" d="M37.929,3.091L37.929,3.091c-1.435-0.828-3.27-0.337-4.098,1.098l-3.5,6.062l5.196,3	l3.5-6.062C39.855,5.754,39.363,3.919,37.929,3.091z"/><path fill="#50e6ff" d="M35.59,27.14l-2.5,4.33l-10.161-2.399L15.77,21.47l2.5-4.33c0.55-0.95,1.77-1.28,2.73-0.73l13.86,8	C35.81,24.96,36.14,26.19,35.59,27.14z"/><path fill="#50e6ff" d="M30.759,25.509c-0.277,0.479-0.887,0.643-1.366,0.366l-6.928-4c-0.479-0.277-0.643-0.887-0.366-1.366	l2.5-4.33c0.277-0.479,0.887-0.643,1.366-0.366l6.928,4c0.479,0.276,0.643,0.887,0.366,1.366L30.759,25.509z"/><path fill="#35c1f1" d="M27.696,16.813l3.464,2l-5.5,9.526l-3.464-2L27.696,16.813z"/><linearGradient id="QcwI-1CWN8D_uDeoy7Vihb" x1="20.151" x2="30.339" y1="11.428" y2="11.428" gradientTransform="rotate(30 24 23.999)" gradientUnits="userSpaceOnUse"><stop offset="0" stop-color="#6d6d6d"/><stop offset=".126" stop-color="#626262"/><stop offset=".886" stop-color="#464646"/><stop offset="1" stop-color="#454545"/></linearGradient><path fill="url(#QcwI-1CWN8D_uDeoy7Vihb)" d="M37.759,13.385	c0.276-0.478,0.112-1.09-0.366-1.366l-6.928-4c-0.478-0.276-1.09-0.112-1.366,0.366l-3.5,6.062c-0.276,0.478-0.112,1.09,0.366,1.366	l6.928,4c0.478,0.276,1.09,0.112,1.366-0.366L37.759,13.385z"/><path fill="#35c1f1" d="M33.09,31.47L27.59,41c-0.55,0.96-1.78,1.28-2.73,0.73l-13.86-8c-0.96-0.55-1.28-1.77-0.73-2.73	l5.5-9.53L33.09,31.47z"/><path fill="#42a4ed" d="M21.429,31.67L21.429,31.67c-0.957-0.552-1.284-1.775-0.732-2.732l2-3.464l3.464,2l-2,3.464	C23.608,31.894,22.385,32.222,21.429,31.67z"/><path fill="#3079d6" d="M6.999,31c-0.169,0-0.34-0.043-0.496-0.133c-0.479-0.274-0.646-0.886-0.37-1.364l9.75-17	c0.274-0.479,0.887-0.646,1.364-0.37c0.479,0.274,0.646,0.886,0.37,1.364l-9.75,17C7.683,30.819,7.346,31,6.999,31z"/><path fill="#3079d6" d="M5.999,25c-0.164,0-0.331-0.04-0.484-0.126c-0.483-0.269-0.657-0.877-0.389-1.359l5-9	c0.269-0.482,0.878-0.659,1.359-0.389c0.483,0.269,0.657,0.877,0.389,1.359l-5,9C6.691,24.814,6.351,25,5.999,25z"/><path fill="#3079d6" d="M30.03,45c-0.168,0-0.338-0.042-0.494-0.131c-0.479-0.273-0.647-0.885-0.374-1.364l9.701-17.028	c0.273-0.479,0.884-0.647,1.364-0.374c0.479,0.273,0.647,0.885,0.374,1.364L30.9,44.495C30.716,44.818,30.378,45,30.03,45z"/><path fill="#3079d6" d="M35.774,42.983c-0.163,0-0.329-0.04-0.482-0.124c-0.483-0.268-0.659-0.876-0.393-1.359l4.975-9.015	c0.267-0.483,0.874-0.658,1.359-0.393c0.483,0.268,0.659,0.876,0.393,1.359l-4.975,9.015C36.469,42.797,36.127,42.983,35.774,42.983	z"/></svg>