<svg xmlns="http://www.w3.org/2000/svg" viewBox="0 0 48 48"><linearGradient id="Y_eNm0vN_9fzsHv80tehLa" x1="20.375" x2="28.748" y1="-466.939" y2="-437.054" gradientTransform="translate(0 478)" gradientUnits="userSpaceOnUse"><stop offset="0" stop-color="#32bdef"/><stop offset="1" stop-color="#1ea2e4"/></linearGradient><path fill="url(#Y_eNm0vN_9fzsHv80tehLa)" d="M43.125,9H4.875C3.287,9,2,10.287,2,11.875v24.25C2,37.713,3.287,39,4.875,39h38.25	C44.713,39,46,37.713,46,36.125v-24.25C46,10.287,44.713,9,43.125,9z"/><linearGradient id="Y_eNm0vN_9fzsHv80tehLb" x1="285.391" x2="287.301" y1="-188.186" y2="-183.559" gradientTransform="rotate(-90 252 58.5)" gradientUnits="userSpaceOnUse"><stop offset="0" stop-color="#5bc8ef"/><stop offset="1" stop-color="#42befc"/></linearGradient><path fill="url(#Y_eNm0vN_9fzsHv80tehLb)" d="M11,24L11,24c0,0.552-0.448,1-1,1H6c-0.552,0-1-0.448-1-1l0,0c0-0.552,0.448-1,1-1h4	C10.552,23,11,23.448,11,24z"/><linearGradient id="Y_eNm0vN_9fzsHv80tehLc" x1="285.391" x2="287.301" y1="-180.186" y2="-175.559" gradientTransform="rotate(-90 252 58.5)" gradientUnits="userSpaceOnUse"><stop offset="0" stop-color="#5bc8ef"/><stop offset="1" stop-color="#42befc"/></linearGradient><path fill="url(#Y_eNm0vN_9fzsHv80tehLc)" d="M19,24L19,24c0,0.552-0.448,1-1,1h-4c-0.552,0-1-0.448-1-1l0,0c0-0.552,0.448-1,1-1h4	C18.552,23,19,23.448,19,24z"/><linearGradient id="Y_eNm0vN_9fzsHv80tehLd" x1="285.391" x2="287.301" y1="-172.186" y2="-167.559" gradientTransform="rotate(-90 252 58.5)" gradientUnits="userSpaceOnUse"><stop offset="0" stop-color="#5bc8ef"/><stop offset="1" stop-color="#42befc"/></linearGradient><path fill="url(#Y_eNm0vN_9fzsHv80tehLd)" d="M27,24L27,24c0,0.552-0.448,1-1,1h-4c-0.552,0-1-0.448-1-1l0,0c0-0.552,0.448-1,1-1h4	C26.552,23,27,23.448,27,24z"/><linearGradient id="Y_eNm0vN_9fzsHv80tehLe" x1="285.391" x2="287.301" y1="-164.186" y2="-159.559" gradientTransform="rotate(-90 252 58.5)" gradientUnits="userSpaceOnUse"><stop offset="0" stop-color="#5bc8ef"/><stop offset="1" stop-color="#42befc"/></linearGradient><path fill="url(#Y_eNm0vN_9fzsHv80tehLe)" d="M35,24L35,24c0,0.552-0.448,1-1,1h-4c-0.552,0-1-0.448-1-1l0,0c0-0.552,0.448-1,1-1h4	C34.552,23,35,23.448,35,24z"/><linearGradient id="Y_eNm0vN_9fzsHv80tehLf" x1="285.391" x2="287.301" y1="-156.186" y2="-151.559" gradientTransform="rotate(-90 252 58.5)" gradientUnits="userSpaceOnUse"><stop offset="0" stop-color="#5bc8ef"/><stop offset="1" stop-color="#42befc"/></linearGradient><path fill="url(#Y_eNm0vN_9fzsHv80tehLf)" d="M43,24L43,24c0,0.552-0.448,1-1,1h-4c-0.552,0-1-0.448-1-1l0,0c0-0.552,0.448-1,1-1h4	C42.552,23,43,23.448,43,24z"/><path fill="#bbd2de" d="M36.013,20h5.974C42.546,20,43,19.546,43,18.987v-4.974C43,13.454,42.546,13,41.987,13h-5.974	C35.454,13,35,13.454,35,14.013v4.974C35,19.546,35.454,20,36.013,20z"/><path fill="#0078d4" d="M13.5,31h-8C5.224,31,5,30.776,5,30.5v-1C5,29.224,5.224,29,5.5,29h8c0.276,0,0.5,0.224,0.5,0.5v1	C14,30.776,13.776,31,13.5,31z"/><path fill="#0078d4" d="M24.5,31h-8c-0.276,0-0.5-0.224-0.5-0.5v-1c0-0.276,0.224-0.5,0.5-0.5h8c0.276,0,0.5,0.224,0.5,0.5v1	C25,30.776,24.776,31,24.5,31z"/><path fill="#0078d4" d="M19.5,35h-14C5.224,35,5,34.776,5,34.5v-1C5,33.224,5.224,33,5.5,33h14c0.276,0,0.5,0.224,0.5,0.5v1	C20,34.776,19.776,35,19.5,35z"/><path d="M46,30.474C43.992,28.341,41.153,27,38,27c-6.065,0-11,4.935-11,11c0,0.338,0.021,0.67,0.051,1	h16.074C44.713,39,46,37.713,46,36.125V30.474z" opacity=".05"/><path d="M46,31.216c-1.927-2.269-4.796-3.716-8-3.716c-5.79,0-10.5,4.71-10.5,10.5	c0,0.338,0.019,0.671,0.051,1h15.574C44.713,39,46,37.713,46,36.125V31.216z" opacity=".07"/><linearGradient id="Y_eNm0vN_9fzsHv80tehLg" x1="28" x2="48" y1="-56" y2="-56" gradientTransform="matrix(1 0 0 -1 0 -18)" gradientUnits="userSpaceOnUse"><stop offset="0" stop-color="#0176d0"/><stop offset="1" stop-color="#16538c"/></linearGradient><circle cx="38" cy="38" r="10" fill="url(#Y_eNm0vN_9fzsHv80tehLg)"/><path d="M39,45c-2.09,0-3.955-0.88-5.116-2.414c-0.435-0.547-0.766-1.188-0.983-1.903h-0.045	c-0.724,0-1.313-0.589-1.313-1.313v-0.63c0-0.267,0.079-0.519,0.22-0.729c-0.14-0.211-0.219-0.462-0.219-0.728v-0.63	c0-0.724,0.589-1.313,1.313-1.313h0.129c0.28-0.776,0.686-1.475,1.209-2.078c1.234-1.388,2.952-2.149,4.842-2.149	c1.208,0,2.162,0.266,2.749,0.488c0.619,0.236,0.967,0.903,0.81,1.552l-0.342,1.389c-0.121,0.502-0.518,0.877-1.008,0.98	c0.388,0.229,0.648,0.65,0.648,1.132v0.631c0,0.267-0.079,0.518-0.219,0.729c0.14,0.211,0.218,0.462,0.218,0.728v0.63	c0,0.482-0.261,0.904-0.65,1.133c0.568,0.06,1.032,0.471,1.154,1.039l0.287,1.329c0.132,0.607-0.172,1.218-0.739,1.483	C41.08,44.765,40.006,45,39,45z M38.434,40.684c0.303,0.109,0.622,0.141,0.886,0.141c0.295,0,0.648-0.052,0.98-0.141H38.434z M40.071,35.342c-0.251-0.06-0.54-0.104-0.839-0.104c-0.263,0-0.497,0.034-0.704,0.104H40.071z" opacity=".05"/><path d="M39,44.5c-1.933,0-3.651-0.808-4.717-2.216c-0.472-0.594-0.809-1.302-1-2.102h-0.428	c-0.448,0-0.813-0.364-0.813-0.813v-0.63c0-0.319,0.185-0.596,0.454-0.729c-0.268-0.134-0.452-0.41-0.452-0.729v-0.63	c0-0.448,0.364-0.813,0.813-0.813h0.491c0.258-0.854,0.669-1.609,1.226-2.251c1.135-1.276,2.719-1.977,4.464-1.977	c1.132,0,2.023,0.248,2.572,0.456c0.384,0.146,0.599,0.562,0.501,0.966l-0.341,1.388c-0.089,0.369-0.418,0.629-0.799,0.629	c-0.092,0-0.183-0.016-0.271-0.046c-0.351-0.123-0.887-0.269-1.467-0.269c-0.769,0-1.371,0.26-1.791,0.771	c-0.082,0.094-0.157,0.206-0.226,0.333h3.366c0.448,0,0.813,0.364,0.813,0.813v0.631c0,0.318-0.185,0.596-0.453,0.729	c0.268,0.133,0.452,0.409,0.452,0.728v0.63c0,0.448-0.364,0.813-0.813,0.813h-3.433c0.076,0.158,0.164,0.293,0.263,0.405	c0.54,0.607,1.335,0.735,1.908,0.735c0.459,0,1.017-0.104,1.49-0.277c0.095-0.034,0.191-0.051,0.289-0.051	c0.395,0,0.728,0.268,0.81,0.651l0.287,1.33c0.082,0.378-0.107,0.759-0.462,0.925C40.933,44.281,39.936,44.5,39,44.5z" opacity=".07"/><path fill="#ffe357" d="M41.707,43.083c0.033,0.15-0.045,0.301-0.185,0.366C40.908,43.74,39.995,44,39.001,44	c-1.733,0-3.327-0.707-4.318-2.017c-0.477-0.601-0.832-1.362-0.991-2.3h-0.836c-0.173,0-0.313-0.139-0.313-0.313v-0.63	c0-0.173,0.139-0.313,0.313-0.313h0.66c0-0.088,0-0.195,0-0.301c0-0.177,0.018-0.355,0.018-0.531h-0.677	c-0.173,0-0.313-0.139-0.313-0.313v-0.63c0-0.173,0.139-0.313,0.313-0.313h0.873c0.23-0.955,0.655-1.77,1.221-2.423	c1.007-1.133,2.423-1.804,4.086-1.804c0.941,0,1.775,0.188,2.395,0.424c0.151,0.057,0.23,0.223,0.192,0.38l-0.341,1.386	c-0.045,0.187-0.239,0.292-0.421,0.229c-0.442-0.155-1.02-0.296-1.63-0.296c-0.849,0-1.627,0.282-2.177,0.955	c-0.248,0.282-0.441,0.69-0.566,1.149h4.093c0.173,0,0.313,0.139,0.313,0.313v0.63c0,0.173-0.139,0.313-0.313,0.313h-4.358	c-0.018,0.177-0.018,0.371-0.018,0.549c0,0.107,0,0.177,0,0.282h4.376c0.173,0,0.313,0.139,0.313,0.313v0.63	c0,0.173-0.139,0.313-0.313,0.313h-4.128c0.124,0.53,0.318,0.938,0.585,1.238c0.566,0.637,1.397,0.902,2.282,0.902	c0.612,0,1.233-0.15,1.662-0.307c0.189-0.069,0.396,0.038,0.438,0.234L41.707,43.083z"/></svg>