<svg xmlns="http://www.w3.org/2000/svg" viewBox="0 0 48 48"><path fill="#199be2" d="M39,17.657V41c0,1.105-0.895,2-2,2H11c-1.105,0-2-0.895-2-2V7c0-1.105,0.895-2,2-2h15.343	c1.061,0,2.078,0.421,2.828,1.172l8.657,8.657C38.579,15.579,39,16.596,39,17.657z"/><path d="M17,38h14c1.105,0,2-0.895,2-2V26c0-1.105-0.895-2-2-2H17c-1.105,0-2,0.895-2,2v10	C15,37.105,15.895,38,17,38z" opacity=".05"/><path d="M17,37.5h14c0.828,0,1.5-0.672,1.5-1.5V26c0-0.828-0.672-1.5-1.5-1.5H17c-0.828,0-1.5,0.672-1.5,1.5	v10C15.5,36.828,16.172,37.5,17,37.5z" opacity=".07"/><path fill="#edbe00" d="M31,37H17c-0.552,0-1-0.448-1-1V26c0-0.552,0.448-1,1-1h14c0.552,0,1,0.448,1,1v10	C32,36.552,31.552,37,31,37z"/><path fill="#e3a600" d="M22,37h-2v-2h-4v-2h4c1.103,0,2,0.897,2,2V37z"/><path fill="#e3a600" d="M32,31v-2h-3c-0.552,0-1-0.448-1-1v-3h-2v12h2v-1c0-0.552,0.448-1,1-1h3v-2h-3c-0.552,0-1-0.448-1-1	v0c0-0.552,0.448-1,1-1H32z"/></svg>