<svg xmlns="http://www.w3.org/2000/svg" viewBox="0 0 48 48"><linearGradient id="wqFiShJWanQg85H~XfSOpa" x1="19.882" x2="35.996" y1="26.768" y2="42.882" gradientUnits="userSpaceOnUse"><stop offset="0" stop-color="#0d61a9"/><stop offset="1" stop-color="#16528c"/></linearGradient><path fill="url(#wqFiShJWanQg85H~XfSOpa)" d="M28,26c-7.732,0-14,4.556-14,9.25v1.25c0,0.828,0.672,1.5,1.5,1.5h25	c0.828,0,1.5-0.672,1.5-1.5v-1.25C42,30.556,35.732,26,28,26z"/><path fill="#c7941a" d="M32.5,28.4c0,1.707-2.547,3.6-4.5,3.6s-4.5-1.892-4.5-3.6c0-2.374,0-6.332,0-6.332h9	C32.5,22.068,32.5,26.026,32.5,28.4z"/><linearGradient id="wqFiShJWanQg85H~XfSOpb" x1="35.917" x2="37.251" y1="19" y2="19" gradientUnits="userSpaceOnUse"><stop offset="0" stop-color="#c48f0c"/><stop offset=".251" stop-color="#d19b16"/><stop offset=".619" stop-color="#dca51f"/><stop offset="1" stop-color="#e0a922"/></linearGradient><path fill="url(#wqFiShJWanQg85H~XfSOpb)" d="M35.916,17h-0.527v4h0.703c0.515,0,0.954-0.312,1.041-0.74l0.344-1.703	C37.642,17.743,36.897,17,35.916,17z"/><linearGradient id="wqFiShJWanQg85H~XfSOpc" x1="-484.083" x2="-482.749" y1="19" y2="19" gradientTransform="matrix(-1 0 0 1 -464 0)" gradientUnits="userSpaceOnUse"><stop offset="0" stop-color="#c48f0c"/><stop offset=".251" stop-color="#d19b16"/><stop offset=".619" stop-color="#dca51f"/><stop offset="1" stop-color="#e0a922"/></linearGradient><path fill="url(#wqFiShJWanQg85H~XfSOpc)" d="M20.084,17h0.527v4h-0.703c-0.515,0-0.954-0.312-1.041-0.74l-0.344-1.703	C18.358,17.743,19.103,17,20.084,17z"/><radialGradient id="wqFiShJWanQg85H~XfSOpd" cx="19.407" cy="42.122" r="10.866" gradientTransform="translate(10.89 -21.07) scale(.8816)" gradientUnits="userSpaceOnUse"><stop offset="0" stop-color="#ffcf54"/><stop offset=".261" stop-color="#fdcb4d"/><stop offset=".639" stop-color="#f7c13a"/><stop offset="1" stop-color="#f0b421"/></radialGradient><path fill="url(#wqFiShJWanQg85H~XfSOpd)" d="M28,5.133c-3.948,0-8,0.6-8,9.133c0,0.683,0,5.224,0,5.954c0,3.046,4.8,6.78,8,6.78	s8-3.733,8-6.78c0-0.73,0-5.271,0-5.954C36,5.733,31.948,5.133,28,5.133z"/><radialGradient id="wqFiShJWanQg85H~XfSOpe" cx="10.675" cy="29.663" r="26.716" gradientTransform="translate(10.89 -21.07) scale(.8816)" gradientUnits="userSpaceOnUse"><stop offset="0" stop-color="#b05c0f"/><stop offset=".599" stop-color="#a94a12"/><stop offset="1" stop-color="#a33b15"/></radialGradient><path fill="url(#wqFiShJWanQg85H~XfSOpe)" d="M28,4c-3,0-5,2-5,2c-1.593,0.235-4,1-4,5c0,1.488,0.339,3.288,1,7	c0.491-5.891,1.924-9.091,3.5-9.091c1.14,0,2.045,0.9,4.5,0.9c2.072,0,2.587-0.9,4.5-0.9c2.7,0,3.5,8.162,3.5,9.091	c0.541-2.709,1-5.7,1-7C37,7.913,33.588,4,28,4z"/><radialGradient id="wqFiShJWanQg85H~XfSOpf" cx="13.765" cy="31.78" r="31.147" gradientTransform="matrix(.8431 0 0 .8816 14.736 -21.07)" gradientUnits="userSpaceOnUse"><stop offset="0" stop-color="#b05c0f"/><stop offset=".599" stop-color="#a94a12"/><stop offset="1" stop-color="#a33b15"/></radialGradient><path fill="url(#wqFiShJWanQg85H~XfSOpf)" d="M28.316,4C24,4,23,6,23,6c-0.037,1.014,1.208,1.818,1.208,1.818s0.666,1.432,4.463,1.432	c2.293,0,5.578-1.43,5.578-5.25C34.25,4,33.512,4,28.316,4z"/><linearGradient id="wqFiShJWanQg85H~XfSOpg" x1="11.882" x2="27.996" y1="30.768" y2="46.882" gradientUnits="userSpaceOnUse"><stop offset="0" stop-color="#33bef0"/><stop offset="1" stop-color="#0a85d9"/></linearGradient><path fill="url(#wqFiShJWanQg85H~XfSOpg)" d="M20,30c-7.732,0-14,4.556-14,9.25v1.25C6,41.328,6.672,42,7.5,42h25	c0.828,0,1.5-0.672,1.5-1.5v-1.25C34,34.556,27.732,30,20,30z"/><path fill="#d6a121" d="M24.5,32.4c0,1.707-2.547,3.6-4.5,3.6s-4.5-1.892-4.5-3.6c0-2.374,0-6.332,0-6.332h9	C24.5,26.068,24.5,30.026,24.5,32.4z"/><linearGradient id="wqFiShJWanQg85H~XfSOph" x1="27.917" x2="29.251" y1="23" y2="23" gradientUnits="userSpaceOnUse"><stop offset="0" stop-color="#c48f0c"/><stop offset=".251" stop-color="#d19b16"/><stop offset=".619" stop-color="#dca51f"/><stop offset="1" stop-color="#e0a922"/></linearGradient><path fill="url(#wqFiShJWanQg85H~XfSOph)" d="M27.916,21h-0.527v4h0.703c0.515,0,0.954-0.312,1.041-0.74l0.344-1.703	C29.642,21.743,28.897,21,27.916,21z"/><linearGradient id="wqFiShJWanQg85H~XfSOpi" x1="-476.083" x2="-474.749" y1="23" y2="23" gradientTransform="matrix(-1 0 0 1 -464 0)" gradientUnits="userSpaceOnUse"><stop offset="0" stop-color="#c48f0c"/><stop offset=".251" stop-color="#d19b16"/><stop offset=".619" stop-color="#dca51f"/><stop offset="1" stop-color="#e0a922"/></linearGradient><path fill="url(#wqFiShJWanQg85H~XfSOpi)" d="M12.084,21h0.527v4h-0.703c-0.515,0-0.954-0.312-1.041-0.74l-0.344-1.703	C10.358,21.743,11.103,21,12.084,21z"/><radialGradient id="wqFiShJWanQg85H~XfSOpj" cx="10.333" cy="46.659" r="10.866" gradientTransform="translate(10.89 -21.07) scale(.8816)" gradientUnits="userSpaceOnUse"><stop offset="0" stop-color="#ffcf54"/><stop offset=".261" stop-color="#fdcb4d"/><stop offset=".639" stop-color="#f7c13a"/><stop offset="1" stop-color="#f0b421"/></radialGradient><path fill="url(#wqFiShJWanQg85H~XfSOpj)" d="M20,9.133c-3.948,0-8,0.6-8,9.133c0,0.683,0,5.224,0,5.954c0,3.046,4.8,6.78,8,6.78	s8-3.733,8-6.78c0-0.73,0-5.271,0-5.954C28,9.733,23.948,9.133,20,9.133z"/><radialGradient id="wqFiShJWanQg85H~XfSOpk" cx="1.601" cy="34.2" r="26.716" gradientTransform="translate(10.89 -21.07) scale(.8816)" gradientUnits="userSpaceOnUse"><stop offset="0" stop-color="#c26715"/><stop offset=".508" stop-color="#b85515"/><stop offset="1" stop-color="#ad3f16"/></radialGradient><path fill="url(#wqFiShJWanQg85H~XfSOpk)" d="M20,8c-3,0-5,2-5,2c-1.593,0.235-4,1-4,5c0,1.488,0.339,3.288,1,7	c0.491-5.891,1.924-9.091,3.5-9.091c1.14,0,2.045,0.9,4.5,0.9c2.072,0,2.587-0.9,4.5-0.9c2.7,0,3.5,8.162,3.5,9.091	c0.541-2.709,1-5.7,1-7C29,11.913,25.588,8,20,8z"/><radialGradient id="wqFiShJWanQg85H~XfSOpl" cx="4.277" cy="36.317" r="31.147" gradientTransform="matrix(.8431 0 0 .8816 14.736 -21.07)" gradientUnits="userSpaceOnUse"><stop offset="0" stop-color="#c26715"/><stop offset=".508" stop-color="#b85515"/><stop offset="1" stop-color="#ad3f16"/></radialGradient><path fill="url(#wqFiShJWanQg85H~XfSOpl)" d="M20.316,8C16,8,15,10,15,10c-0.037,1.014,1.208,1.818,1.208,1.818s0.666,1.432,4.463,1.432	c2.293,0,5.578-1.43,5.578-5.25C26.25,8,25.512,8,20.316,8z"/><linearGradient id="wqFiShJWanQg85H~XfSOpm" x1="28" x2="48" y1="38" y2="38" gradientUnits="userSpaceOnUse"><stop offset="0" stop-color="#21ad64"/><stop offset="1" stop-color="#088242"/></linearGradient><circle cx="38" cy="38" r="10" fill="url(#wqFiShJWanQg85H~XfSOpm)"/><path fill="#fff" d="M38.5,43h-1c-0.276,0-0.5-0.224-0.5-0.5v-9c0-0.276,0.224-0.5,0.5-0.5h1c0.276,0,0.5,0.224,0.5,0.5v9	C39,42.776,38.776,43,38.5,43z"/><path fill="#fff" d="M33,38.5v-1c0-0.276,0.224-0.5,0.5-0.5h9c0.276,0,0.5,0.224,0.5,0.5v1c0,0.276-0.224,0.5-0.5,0.5h-9	C33.224,39,33,38.776,33,38.5z"/></svg>