<svg xmlns="http://www.w3.org/2000/svg" baseProfile="basic" viewBox="0 0 48 48"><path fill="#cad2d9" d="M38,14c-3.143,0-24.857,0-28,0C4.477,14,0,18.477,0,24c0,5.523,4.477,10,10,10c3.143,0,24.857,0,28,0	c5.523,0,10-4.477,10-10C48,18.477,43.523,14,38,14z"/><linearGradient id="-mn9ZmIpniXuAs2Qypkdta" x1="24" x2="24" y1="27.97" y2="22.149" gradientUnits="userSpaceOnUse"><stop offset="0" stop-color="#6d7479"/><stop offset="1" stop-color="#323538"/></linearGradient><path fill="url(#-mn9ZmIpniXuAs2Qypkdta)" d="M38,20c-1.255,0-26.745,0-28,0c-2.209,0-4,1.791-4,4c0,2.209,1.791,4,4,4 c1.255,0,26.745,0,28,0c2.209,0,4-1.791,4-4C42,21.791,40.209,20,38,20z"/><path d="M38,20c2.209,0,4,1.791,4,4c0,2.209-1.791,4-4,4c-1.255,0-26.745,0-28,0c-2.209,0-4-1.791-4-4c0-2.209,1.791-4,4-4 C11.255,20,36.745,20,38,20 M38,19H10c-2.757,0-5,2.243-5,5s2.243,5,5,5h28c2.757,0,5-2.243,5-5S40.757,19,38,19L38,19z" opacity=".05"/><path d="M38,20c2.209,0,4,1.791,4,4c0,2.209-1.791,4-4,4c-1.255,0-26.745,0-28,0c-2.209,0-4-1.791-4-4c0-2.209,1.791-4,4-4 C11.255,20,36.745,20,38,20 M38,19.5H10c-2.481,0-4.5,2.019-4.5,4.5s2.019,4.5,4.5,4.5h28c2.481,0,4.5-2.019,4.5-4.5 S40.481,19.5,38,19.5L38,19.5z" opacity=".07"/><linearGradient id="-mn9ZmIpniXuAs2Qypkdtb" x1="23.927" x2="24.067" y1="19.857" y2="21.091" gradientUnits="userSpaceOnUse"><stop offset="0" stop-color="#e36001"/><stop offset="1" stop-color="#fed100"/></linearGradient><rect width="2" height="1" x="23" y="20" fill="url(#-mn9ZmIpniXuAs2Qypkdtb)"/><linearGradient id="-mn9ZmIpniXuAs2Qypkdtc" x1="27.927" x2="28.067" y1="19.857" y2="21.091" gradientUnits="userSpaceOnUse"><stop offset="0" stop-color="#e36001"/><stop offset="1" stop-color="#fed100"/></linearGradient><rect width="2" height="1" x="27" y="20" fill="url(#-mn9ZmIpniXuAs2Qypkdtc)"/><linearGradient id="-mn9ZmIpniXuAs2Qypkdtd" x1="31.927" x2="32.067" y1="19.857" y2="21.091" gradientUnits="userSpaceOnUse"><stop offset="0" stop-color="#e36001"/><stop offset="1" stop-color="#fed100"/></linearGradient><rect width="2" height="1" x="31" y="20" fill="url(#-mn9ZmIpniXuAs2Qypkdtd)"/><linearGradient id="-mn9ZmIpniXuAs2Qypkdte" x1="35.927" x2="36.067" y1="19.857" y2="21.091" gradientUnits="userSpaceOnUse"><stop offset="0" stop-color="#e36001"/><stop offset="1" stop-color="#fed100"/></linearGradient><rect width="2" height="1" x="35" y="20" fill="url(#-mn9ZmIpniXuAs2Qypkdte)"/><linearGradient id="-mn9ZmIpniXuAs2Qypkdtf" x1="19.927" x2="20.067" y1="19.857" y2="21.091" gradientUnits="userSpaceOnUse"><stop offset="0" stop-color="#e36001"/><stop offset="1" stop-color="#fed100"/></linearGradient><rect width="2" height="1" x="19" y="20" fill="url(#-mn9ZmIpniXuAs2Qypkdtf)"/><linearGradient id="-mn9ZmIpniXuAs2Qypkdtg" x1="15.927" x2="16.067" y1="19.857" y2="21.091" gradientUnits="userSpaceOnUse"><stop offset="0" stop-color="#e36001"/><stop offset="1" stop-color="#fed100"/></linearGradient><rect width="2" height="1" x="15" y="20" fill="url(#-mn9ZmIpniXuAs2Qypkdtg)"/><linearGradient id="-mn9ZmIpniXuAs2Qypkdth" x1="11.927" x2="12.067" y1="19.857" y2="21.091" gradientUnits="userSpaceOnUse"><stop offset="0" stop-color="#e36001"/><stop offset="1" stop-color="#fed100"/></linearGradient><rect width="2" height="1" x="11" y="20" fill="url(#-mn9ZmIpniXuAs2Qypkdth)"/><linearGradient id="-mn9ZmIpniXuAs2Qypkdti" x1="23.927" x2="24.067" y1="12.857" y2="14.091" gradientTransform="rotate(180 24 20.5)" gradientUnits="userSpaceOnUse"><stop offset="0" stop-color="#e36001"/><stop offset="1" stop-color="#fed100"/></linearGradient><polygon fill="url(#-mn9ZmIpniXuAs2Qypkdti)" points="23,27 25,27 25,28 23,28"/><linearGradient id="-mn9ZmIpniXuAs2Qypkdtj" x1="27.927" x2="28.067" y1="12.857" y2="14.091" gradientTransform="rotate(180 24 20.5)" gradientUnits="userSpaceOnUse"><stop offset="0" stop-color="#e36001"/><stop offset="1" stop-color="#fed100"/></linearGradient><polygon fill="url(#-mn9ZmIpniXuAs2Qypkdtj)" points="19,27 21,27 21,28 19,28"/><linearGradient id="-mn9ZmIpniXuAs2Qypkdtk" x1="31.927" x2="32.067" y1="12.857" y2="14.091" gradientTransform="rotate(180 24 20.5)" gradientUnits="userSpaceOnUse"><stop offset="0" stop-color="#e36001"/><stop offset="1" stop-color="#fed100"/></linearGradient><polygon fill="url(#-mn9ZmIpniXuAs2Qypkdtk)" points="15,27 17,27 17,28 15,28"/><linearGradient id="-mn9ZmIpniXuAs2Qypkdtl" x1="35.927" x2="36.067" y1="12.857" y2="14.091" gradientTransform="rotate(180 24 20.5)" gradientUnits="userSpaceOnUse"><stop offset="0" stop-color="#e36001"/><stop offset="1" stop-color="#fed100"/></linearGradient><polygon fill="url(#-mn9ZmIpniXuAs2Qypkdtl)" points="11,27 13,27 13,28 11,28"/><linearGradient id="-mn9ZmIpniXuAs2Qypkdtm" x1="19.927" x2="20.067" y1="12.857" y2="14.091" gradientTransform="rotate(180 24 20.5)" gradientUnits="userSpaceOnUse"><stop offset="0" stop-color="#e36001"/><stop offset="1" stop-color="#fed100"/></linearGradient><polygon fill="url(#-mn9ZmIpniXuAs2Qypkdtm)" points="27,27 29,27 29,28 27,28"/><linearGradient id="-mn9ZmIpniXuAs2Qypkdtn" x1="15.927" x2="16.067" y1="12.857" y2="14.091" gradientTransform="rotate(180 24 20.5)" gradientUnits="userSpaceOnUse"><stop offset="0" stop-color="#e36001"/><stop offset="1" stop-color="#fed100"/></linearGradient><polygon fill="url(#-mn9ZmIpniXuAs2Qypkdtn)" points="31,27 33,27 33,28 31,28"/><linearGradient id="-mn9ZmIpniXuAs2Qypkdto" x1="11.927" x2="12.067" y1="12.857" y2="14.091" gradientTransform="rotate(180 24 20.5)" gradientUnits="userSpaceOnUse"><stop offset="0" stop-color="#e36001"/><stop offset="1" stop-color="#fed100"/></linearGradient><polygon fill="url(#-mn9ZmIpniXuAs2Qypkdto)" points="35,27 37,27 37,28 35,28"/></svg>