<svg xmlns="http://www.w3.org/2000/svg" xmlns:xlink="http://www.w3.org/1999/xlink" data-name="Слой 1" viewBox="0 0 48 48"><defs><linearGradient id="NQGAPbRjvqK4D8_AskwFwa" x1="28.431" x2="38.115" y1=".709" y2="27.316" data-name="Безымянный градиент 40" gradientUnits="userSpaceOnUse"><stop offset="0" stop-color="#50e6ff"/><stop offset="1" stop-color="#35c1f1"/></linearGradient><linearGradient id="NQGAPbRjvqK4D8_AskwFwb" x1="7.818" x2="18.16" y1="15.015" y2="43.43" xlink:href="#NQGAPbRjvqK4D8_AskwFwa"/></defs><path fill="url(#NQGAPbRjvqK4D8_AskwFwa)" d="M42,7.26875v17.4825A1.2684,1.2684,0,0,1,40.72,26H27.28A1.2684,1.2684,0,0,1,26,24.75125V7.26875A1.26838,1.26838,0,0,1,27.28,6.02H40.72A1.26838,1.26838,0,0,1,42,7.26875Z"/><rect width="12" height="2" x="28" y="9" fill="#057093" rx="1"/><rect width="12" height="2" x="28" y="13" fill="#057093" rx="1"/><rect width="12" height="2" x="28" y="17" fill="#057093" rx="1"/><rect width="12" height="2" x="28" y="21" fill="#057093" rx="1"/><path fill="#50e6ff" d="M32,15.25v17.5A1.269,1.269,0,0,1,30.72,34H17.28A1.269,1.269,0,0,1,16,32.75V15.25A1.269,1.269,0,0,1,17.28,14H30.72A1.269,1.269,0,0,1,32,15.25Z"/><path fill="#42a4ed" d="M22,23.25v17.5A1.269,1.269,0,0,1,20.72,42H7.28A1.269,1.269,0,0,1,6,40.75V23.25A1.269,1.269,0,0,1,7.28,22H20.72A1.269,1.269,0,0,1,22,23.25Z"/><rect width="16" height="20" x="6" y="22" fill="url(#NQGAPbRjvqK4D8_AskwFwb)" rx="1"/><g><rect width="12" height="2" x="8" y="25" fill="#057093" rx="1"/><rect width="12" height="2" x="8" y="29" fill="#057093" rx="1"/><rect width="12" height="2" x="8" y="33" fill="#057093" rx="1"/><rect width="12" height="2" x="8" y="37" fill="#057093" rx="1"/></g><g><path d="M21,21H16v1h5a1.003,1.003,0,0,1,1,1V34h1V23A2.00587,2.00587,0,0,0,21,21Z" opacity=".05"/><path d="M21,21.5H16V22h5a1.003,1.003,0,0,1,1,1V34h.5V23A1.498,1.498,0,0,0,21,21.5Z" opacity=".07"/></g><g><path d="M31,13H26v1h5a1.003,1.003,0,0,1,1,1V26h1V15A2.00587,2.00587,0,0,0,31,13Z" opacity=".05"/><path d="M31,13.5H26V14h5a1.003,1.003,0,0,1,1,1V26h.5V15A1.498,1.498,0,0,0,31,13.5Z" opacity=".07"/></g></svg>