<svg xmlns="http://www.w3.org/2000/svg" viewBox="0 0 48 48"><path fill="#199be2" d="M21,23h-4v2h4c0.552,0,1-0.448,1-1C22,23.448,21.552,23,21,23z"/><path fill="#199be2" d="M21,19h-4v2h4c0.552,0,1-0.448,1-1C22,19.448,21.552,19,21,19z"/><path fill="#199be2" d="M21,15h-4v2h4c0.552,0,1-0.448,1-1C22,15.448,21.552,15,21,15z"/><path fill="#199be2" d="M21,11h-4v2h4c0.552,0,1-0.448,1-1C22,11.448,21.552,11,21,11z"/><path fill="#199be2" d="M21,7h-4v2h4c0.552,0,1-0.448,1-1C22,7.448,21.552,7,21,7z"/><path fill="#35c1f1" d="M21,26.947V5c0-0.552-0.448-1-1-1h-6c-0.552,0-1,0.448-1,1v21.947C10.039,28.421,8,31.469,8,35	c0,4.971,4.029,9,9,9s9-4.029,9-9C26,31.468,23.961,28.42,21,26.947z"/><linearGradient id="pR_Lqq1SSmkKOH~cjVFq8a" x1="11" x2="23" y1="35" y2="35" gradientUnits="userSpaceOnUse"><stop offset="0" stop-color="#1d59b3"/><stop offset="1" stop-color="#195bbc"/></linearGradient><circle cx="17" cy="35" r="6" fill="url(#pR_Lqq1SSmkKOH~cjVFq8a)"/><linearGradient id="pR_Lqq1SSmkKOH~cjVFq8b" x1="16" x2="18" y1="23" y2="23" gradientUnits="userSpaceOnUse"><stop offset="0" stop-color="#1d59b3"/><stop offset="1" stop-color="#195bbc"/></linearGradient><rect width="2" height="16" x="16" y="15" fill="url(#pR_Lqq1SSmkKOH~cjVFq8b)"/><rect width="2" height="8" x="16" y="7" fill="#1b9de2"/><linearGradient id="pR_Lqq1SSmkKOH~cjVFq8c" x1="38.138" x2="39.443" y1="5.103" y2="14.103" gradientUnits="userSpaceOnUse"><stop offset="0" stop-color="#2aa4f4"/><stop offset=".595" stop-color="#0f80e3"/><stop offset="1" stop-color="#006dd9"/></linearGradient><path fill="url(#pR_Lqq1SSmkKOH~cjVFq8c)" d="M42,11c0,1.657-1.343,3-3,3s-3-1.343-3-3c0-1.363,2.03-4.706,2.75-5.85	c0.117-0.185,0.383-0.185,0.499,0C39.97,6.294,42,9.637,42,11z"/><linearGradient id="pR_Lqq1SSmkKOH~cjVFq8d" x1="32.138" x2="33.443" y1="19.103" y2="28.103" gradientUnits="userSpaceOnUse"><stop offset="0" stop-color="#2aa4f4"/><stop offset=".595" stop-color="#0f80e3"/><stop offset="1" stop-color="#006dd9"/></linearGradient><path fill="url(#pR_Lqq1SSmkKOH~cjVFq8d)" d="M36,25c0,1.657-1.343,3-3,3c-1.657,0-3-1.343-3-3c0-1.363,2.03-4.706,2.75-5.85	c0.117-0.185,0.383-0.185,0.499,0C33.97,20.294,36,23.637,36,25z"/><linearGradient id="pR_Lqq1SSmkKOH~cjVFq8e" x1="38.138" x2="39.443" y1="33.103" y2="42.103" gradientUnits="userSpaceOnUse"><stop offset="0" stop-color="#2aa4f4"/><stop offset=".595" stop-color="#0f80e3"/><stop offset="1" stop-color="#006dd9"/></linearGradient><path fill="url(#pR_Lqq1SSmkKOH~cjVFq8e)" d="M42,39c0,1.657-1.343,3-3,3s-3-1.343-3-3c0-1.363,2.03-4.706,2.75-5.85	c0.117-0.185,0.383-0.185,0.499,0C39.97,34.294,42,37.637,42,39z"/></svg>