<svg xmlns="http://www.w3.org/2000/svg" viewBox="0 0 48 48"><linearGradient id="jlgVFtXTO8ndiwu4KVDMBa" x1="8.663" x2="38.122" y1="-434.059" y2="-458.915" gradientTransform="matrix(1 0 0 -1 0 -426)" gradientUnits="userSpaceOnUse"><stop offset="0" stop-color="#a1aab3"/><stop offset="1" stop-color="#8f979e"/></linearGradient><path fill="url(#jlgVFtXTO8ndiwu4KVDMBa)" d="M41,35H7c-1.105,0-2-0.895-2-2V9c0-1.105,0.895-2,2-2h34c1.105,0,2,0.895,2,2v24 C43,34.105,42.105,35,41,35z"/><radialGradient id="jlgVFtXTO8ndiwu4KVDMBb" cx="128.292" cy="-597.184" r="86.245" gradientTransform="matrix(.8095 0 0 -.7188 -56.77 -370.322)" gradientUnits="userSpaceOnUse"><stop offset=".323" stop-color="#23d9d6"/><stop offset=".427" stop-color="#23d4d7"/><stop offset=".542" stop-color="#21c7dc"/><stop offset=".664" stop-color="#1fb0e2"/><stop offset=".789" stop-color="#1c91ec"/><stop offset=".917" stop-color="#1969f8"/><stop offset=".944" stop-color="#1860fb"/></radialGradient><rect width="34" height="24" x="7" y="9" fill="url(#jlgVFtXTO8ndiwu4KVDMBb)"/><linearGradient id="jlgVFtXTO8ndiwu4KVDMBc" x1="24" x2="24" y1="-460.985" y2="-468.014" gradientTransform="matrix(1 0 0 -1 0 -426)" gradientUnits="userSpaceOnUse"><stop offset="0" stop-color="#484b4f"/><stop offset=".23" stop-color="#656d75"/><stop offset=".367" stop-color="#727d86"/></linearGradient><path fill="url(#jlgVFtXTO8ndiwu4KVDMBc)" d="M33,38h-5v-3h-8v3h-5c-0.552,0-1,0.448-1,1v2c0,0.552,0.448,1,1,1h18c0.552,0,1-0.448,1-1v-2 C34,38.448,33.552,38,33,38z"/><linearGradient id="jlgVFtXTO8ndiwu4KVDMBd" x1="5" x2="43" y1="9" y2="9" gradientUnits="userSpaceOnUse"><stop offset="0" stop-color="#464eb0"/><stop offset="1" stop-color="#343b9e"/></linearGradient><path fill="url(#jlgVFtXTO8ndiwu4KVDMBd)" d="M43,8v4H5V8c0-1.1,0.9-2,2-2h34C42.1,6,43,6.9,43,8z"/><path fill="#353c9f" d="M42,16H6l-3,3v1c0,1.105,0.895,2,2,2h38c1.105,0,2-0.895,2-2v-1L42,16z"/><polygon fill="#6d75cf" points="43,10 5,10 3,19 45,19"/><g opacity=".05"><path d="M33,18c-1.654,0-3,1.346-3,3v14h11c1.105,0,2-0.895,2-2V22c1.105,0,2-0.895,2-2v-1l-0.195-0.876 C44.547,18.051,44.281,18,44,18H33z"/><path d="M34,41v-2c0-0.552-0.448-1-1-1h-3v4h3C33.552,42,34,41.552,34,41z"/></g><g opacity=".07"><path d="M33,18.5c-1.379,0-2.5,1.121-2.5,2.5v14H41c1.105,0,2-0.895,2-2V22c1.105,0,2-0.895,2-2v-1l-0.07-0.317 C44.642,18.567,44.329,18.5,44,18.5H33z"/><path d="M34,41v-2c0-0.552-0.448-1-1-1h-2.5v4H33C33.552,42,34,41.552,34,41z"/></g><path fill="#184f85" d="M46,41H31v2c0,1.105,0.895,2,2,2h11c1.105,0,2-0.895,2-2V41z"/><rect width="15" height="4" x="31" y="37" fill="#0078d4"/><rect width="15" height="8" x="31" y="29" fill="#1b9de2"/><rect width="15" height="7" x="31" y="22" fill="#35c1f1"/><path fill="#50e6ff" d="M46,22H31v-1c0-1.105,0.895-2,2-2h11c1.105,0,2,0.895,2,2V22z"/><circle cx="35.5" cy="20.5" r=".5" fill="#0c63ad"/><path fill="#0c63ad" d="M40.5,20c-0.129,0-2.871,0-3,0c-0.276,0-0.5,0.224-0.5,0.5s0.224,0.5,0.5,0.5c0.129,0,2.871,0,3,0	c0.276,0,0.5-0.224,0.5-0.5S40.776,20,40.5,20z"/></svg>