<svg xmlns="http://www.w3.org/2000/svg" id="Layer_1" x="0" y="0" version="1.1" viewBox="0 0 48 48" xml:space="preserve"><linearGradient id="SVGID_1_" x1="39.001" x2="41.528" y1="-183.5" y2="-183.5" gradientTransform="matrix(1 0 0 -1 0 -154)" gradientUnits="userSpaceOnUse"><stop offset="0" stop-color="#c48f0c"/><stop offset=".251" stop-color="#d19b16"/><stop offset=".619" stop-color="#dca51f"/><stop offset="1" stop-color="#e0a922"/></linearGradient><path fill="url(#SVGID_1_)" d="M39,25h-1v9h1.3c1,0,1.8-0.7,2-1.7l0.7-3.8C42.3,26.7,40.9,25,39,25z"/><linearGradient id="SVGID_2_" x1="-1595" x2="-1592.472" y1="-183.5" y2="-183.5" gradientTransform="rotate(180 -793 -77)" gradientUnits="userSpaceOnUse"><stop offset="0" stop-color="#c48f0c"/><stop offset=".251" stop-color="#d19b16"/><stop offset=".619" stop-color="#dca51f"/><stop offset="1" stop-color="#e0a922"/></linearGradient><path fill="url(#SVGID_2_)" d="M9,25h1v9H8.7c-1,0-1.8-0.7-2-1.7L6,28.5C5.7,26.7,7.1,25,9,25z"/><radialGradient id="SVGID_3_" cx="24" cy="-179.5" r="17.396" gradientTransform="matrix(1 0 0 -1 0 -154)" gradientUnits="userSpaceOnUse"><stop offset="0" stop-color="#ffcf54"/><stop offset=".261" stop-color="#fdcb4d"/><stop offset=".639" stop-color="#f7c13a"/><stop offset="1" stop-color="#f0b421"/></radialGradient><path fill="url(#SVGID_3_)" d="M24,6C16.6,6,9,9,9,25c0,1.3,0,5.9,0,7.3C9,38,18,45,24,45s15-7,15-12.7c0-1.4,0-6,0-7.3C39,9,31.4,6,24,6z"/><radialGradient id="SVGID_4_" cx="9.386" cy="-159.933" r="42.765" gradientTransform="matrix(1 0 0 -1 0 -154)" gradientUnits="userSpaceOnUse"><stop offset="0" stop-color="#c26715"/><stop offset=".508" stop-color="#b85515"/><stop offset="1" stop-color="#ad3f16"/></radialGradient><path fill="url(#SVGID_4_)" d="M24,4c-8,0-10,3-10,3c-3.2,0.5-7,4.6-7,10c0,3,0.7,4.4,2,12c1-12,2-16,4-16c3,0,3,2,11.8,2c5,0,7.2-2,9.2-2	c5,0,5,14.1,5,16c0.8-7.4,1-9.4,1-12C40,10.7,35.4,4,24,4z"/><path fill="#d35230" d="M30.6,38.5l-1,1.8c-0.3,0.5-0.9,0.7-1.4,0.4l-10.5-5.7c-0.5-0.3-0.7-0.9-0.4-1.4l1-1.8	c0.3-0.5,0.9-0.7,1.4-0.4l10.5,5.7C30.7,37.4,30.9,38,30.6,38.5z"/><radialGradient id="SVGID_5_" cx="20.832" cy="-163.178" r="53.981" gradientTransform="matrix(1 0 0 -1 0 -154)" gradientUnits="userSpaceOnUse"><stop offset="0" stop-color="#c26715"/><stop offset=".508" stop-color="#b85515"/><stop offset="1" stop-color="#ad3f16"/></radialGradient><path fill="url(#SVGID_5_)" d="M24,3c-8,0-10,4-10,4c-0.1,2.1,1,4,1,4s1.5,3,9.8,3c5,0,12.2-3,12.2-11C37,3,35.4,3,24,3z"/><polygon points="18.9,35.5 25.1,38.9 29.1,36.5 22.9,33.1" opacity=".05"/><polygon points="19.4,35.8 24.5,38.6 28.6,36.2 23.5,33.4" opacity=".07"/><path fill="#ed6c47" d="M18.4,40.4l-1-1.7c-0.3-0.5-0.1-1.1,0.4-1.4l10.4-6c0.5-0.3,1.1-0.1,1.4,0.4l1,1.7c0.3,0.5,0.1,1.1-0.4,1.4	l-10.4,6C19.3,41,18.7,40.8,18.4,40.4z"/></svg>