<svg xmlns="http://www.w3.org/2000/svg" viewBox="0 0 48 48"><path fill="#199be2" d="M17.106,42.994c-3.103,0-6.207-1.182-8.568-3.547c-4.702-4.71-4.439-12.667,0.267-17.373	L22.931,7.948c1.664-1.664,3.846-2.783,6.195-2.929c2.699-0.168,5.265,0.806,7.156,2.699c1.893,1.892,2.867,4.458,2.699,7.156	c-0.146,2.348-1.266,4.531-2.929,6.195L22.18,34.941c-1.118,1.118-2.569,1.895-4.143,2.033c-1.94,0.17-3.792-0.508-5.147-1.864	c-1.356-1.355-2.034-3.207-1.864-5.147c0.138-1.574,0.915-3.026,2.033-4.143l9.669-9.668c0.195-0.195,0.512-0.195,0.707,0	l1.414,1.414c0.195,0.195,0.195,0.512,0,0.707l-9.748,9.748c-0.517,0.517-0.913,1.165-1.042,1.885	c-0.208,1.156,0.151,2.282,0.953,3.084c1.303,1.303,3.573,1.305,4.879,0l14.271-14.271C35.347,17.531,36,15.955,36,14.278	s-0.653-3.254-1.839-4.439S31.398,8,29.722,8s-3.253,0.653-4.439,1.839L10.667,24.454c-3.55,3.551-3.55,9.328,0,12.879	c3.552,3.55,9.329,3.549,12.879,0l14.176-14.176c0.195-0.195,0.512-0.195,0.707,0l1.414,1.414c0.195,0.195,0.195,0.512,0,0.707	L25.667,39.454C23.308,41.814,20.207,42.994,17.106,42.994z"/></svg>