<svg xmlns="http://www.w3.org/2000/svg" viewBox="0 0 48 48"><linearGradient id="czOzkdYl1m_hHJASj0_93a" x1="14.85" x2="30.567" y1="47.719" y2="8.684" gradientTransform="matrix(1 0 0 -1 0 50)" gradientUnits="userSpaceOnUse"><stop offset="0" stop-color="#fcfcfc"/><stop offset=".95" stop-color="#c3c9cd"/></linearGradient><path fill="url(#czOzkdYl1m_hHJASj0_93a)" d="M48,24c0-6.55-5.24-11.87-11.76-11.99C33.36,7.78,28.51,5,23,5C15.46,5,9.15,10.21,7.45,17.22	C3.18,18.16,0,21.96,0,26.5c0,4.994,3.848,9.075,8.742,9.462C10.068,38.929,13.04,41,16.5,41c3.445,0,6.405-2.053,7.74-5h1.443	c1.124,2.363,3.527,4,6.317,4c2.817,0,5.239-1.668,6.35-4.067C43.984,34.95,48,29.927,48,24z"/><path d="M37,24.38V30c0,0.91-0.11,1.83-0.34,2.74c-0.69,2.8-2.36,5.25-4.25,7.24	C32.28,40,32.14,40,32,40c-0.09,0-0.18,0-0.27-0.01c-2.67-0.1-4.96-1.71-6.05-3.99h-1.44c-1.24,2.72-3.85,4.68-6.96,4.96	C17.06,40.99,16.83,41,16.6,41c-2.27-2.15-4.44-4.95-5.26-8.26C11.11,31.83,11,30.91,11,30v-5.62c0-0.9,0.73-1.63,1.63-1.63	c3.65,0,5.27-1.09,6.69-2.05C20.56,19.86,21.84,19,24,19s3.44,0.86,4.68,1.7c1.42,0.96,3.04,2.05,6.69,2.05	C36.27,22.75,37,23.48,37,24.38z" opacity=".05"/><path d="M36.5,24.38V30c0,0.86-0.11,1.75-0.33,2.62	c-0.71,2.88-2.49,5.37-4.44,7.37c-2.67-0.1-4.96-1.71-6.05-3.99h-1.44c-1.24,2.72-3.85,4.68-6.96,4.96	c-2.33-2.14-4.62-4.97-5.45-8.34c-0.22-0.87-0.33-1.76-0.33-2.62v-5.62c0-0.63,0.51-1.13,1.13-1.13c3.8,0,5.49-1.14,6.97-2.14	c1.23-0.83,2.39-1.61,4.4-1.61s3.17,0.78,4.4,1.61c1.48,1,3.17,2.14,6.97,2.14C35.99,23.25,36.5,23.75,36.5,24.38z" opacity=".07"/><linearGradient id="czOzkdYl1m_hHJASj0_93b" x1="21.786" x2="34.116" y1="25.592" y2="2.913" gradientTransform="matrix(1 0 0 -1 0 50)" gradientUnits="userSpaceOnUse"><stop offset="0" stop-color="#21ad64"/><stop offset="1" stop-color="#088242"/></linearGradient><path fill="url(#czOzkdYl1m_hHJASj0_93b)" d="M35.368,23.75C28.344,23.75,28.245,20,24,20s-4.344,3.75-11.368,3.75	c-0.349,0-0.632,0.28-0.632,0.625c0,0,0,3.66,0,5.625c0,0.861,0.112,1.695,0.311,2.5c1.854,7.504,11.419,12.442,11.419,12.442	S23.863,45,24,45c0.128,0,0.27-0.058,0.27-0.058s9.565-4.937,11.419-12.442C35.888,31.695,36,30.861,36,30c0-1.965,0-5.625,0-5.625	C36,24.03,35.717,23.75,35.368,23.75z"/></svg>