<svg xmlns="http://www.w3.org/2000/svg" viewBox="0 0 48 48"><radialGradient id="ceAToJ2B3REDb2C521FQRa" cx="24.13" cy="14.261" r="21.929" gradientUnits="userSpaceOnUse"><stop offset="0" stop-color="#ffcf54"/><stop offset=".261" stop-color="#fdcb4d"/><stop offset=".639" stop-color="#f7c13a"/><stop offset="1" stop-color="#f0b421"/></radialGradient><ellipse cx="24" cy="20" fill="url(#ceAToJ2B3REDb2C521FQRa)" rx="19" ry="13"/><radialGradient id="ceAToJ2B3REDb2C521FQRb" cx="22.378" cy="17.519" r="29.004" gradientUnits="userSpaceOnUse"><stop offset="0" stop-color="#6d6d6d"/><stop offset=".126" stop-color="#626262"/><stop offset=".886" stop-color="#464646"/><stop offset="1" stop-color="#454545"/></radialGradient><path fill="url(#ceAToJ2B3REDb2C521FQRb)" d="M45.379,27.074l-3.409-1.804	c0.771-1.195,1.433-2.497,1.966-3.919c0.193-0.518-0.068-1.094-0.585-1.288c-0.519-0.191-1.095,0.067-1.288,0.585	C39.318,27.969,32.903,32,24,32S8.682,27.969,5.937,20.648c-0.194-0.518-0.771-0.775-1.288-0.585	c-0.517,0.194-0.778,0.771-0.585,1.288c0.533,1.422,1.196,2.724,1.966,3.919l-3.409,1.804c-0.511,0.209-0.756,0.793-0.547,1.305	C2.232,28.766,2.606,29,3,29c0.126,0,0.255-0.023,0.379-0.074l3.859-1.988c1.118,1.37,2.418,2.546,3.881,3.529l-3.826,3.826	c-0.391,0.391-0.391,1.023,0,1.414C7.488,35.902,7.744,36,8,36s0.512-0.098,0.707-0.293l4.18-4.18	c1.313,0.683,2.735,1.231,4.259,1.633l-2.071,5.459c-0.21,0.511,0.033,1.096,0.544,1.306C15.744,39.976,15.873,40,16,40	c0.393,0,0.766-0.233,0.925-0.619l2.21-5.795c1.231,0.216,2.523,0.342,3.866,0.385V40c0,0.553,0.447,1,1,1s1-0.447,1-1v-6.029	c1.343-0.043,2.634-0.169,3.866-0.385l2.21,5.795C31.234,39.767,31.607,40,32,40c0.127,0,0.256-0.024,0.381-0.075	c0.511-0.21,0.754-0.795,0.544-1.306l-2.071-5.459c1.524-0.403,2.946-0.95,4.259-1.633l4.18,4.18C39.488,35.902,39.744,36,40,36	s0.512-0.098,0.707-0.293c0.391-0.391,0.391-1.023,0-1.414l-3.826-3.826c1.463-0.982,2.764-2.159,3.882-3.529l3.859,1.988	C44.745,28.977,44.873,29,45,29c0.394,0,0.768-0.234,0.926-0.621C46.135,27.867,45.89,27.283,45.379,27.074z"/></svg>