<svg xmlns="http://www.w3.org/2000/svg" data-name="Layer 1" viewBox="0 0 48 48"><defs><linearGradient id="rLpSE6~AaDan99nwg1Igva" x1="3.283" x2="50.856" y1="3.283" y2="50.856" gradientUnits="userSpaceOnUse"><stop offset=".002" stop-color="#427fdb"/><stop offset=".397" stop-color="#2668cb"/><stop offset=".763" stop-color="#1358bf"/><stop offset="1" stop-color="#0c52bb"/></linearGradient><linearGradient id="rLpSE6~AaDan99nwg1Igvb" x1="24" x2="24" y1="6.348" y2="29.986" data-name="Безымянный градиент 160" gradientUnits="userSpaceOnUse"><stop offset="0" stop-color="#f09701"/><stop offset="1" stop-color="#e36001"/></linearGradient></defs><circle cx="24" cy="24" r="20" fill="url(#rLpSE6~AaDan99nwg1Igva)"/><path d="M24,9a10.98488,10.98488,0,0,1,10.43994,7.52686,1.49992,1.49992,0,1,1-2.84668.94628,8.00389,8.00389,0,0,0-15.18652,0,1.49992,1.49992,0,1,1-2.84668-.94628A10.98488,10.98488,0,0,1,24,9m0-1a11.9836,11.9836,0,0,0-11.38885,8.2113,2.49992,2.49992,0,1,0,4.74457,1.57718,7.00389,7.00389,0,0,1,13.28862.00019,2.49992,2.49992,0,0,0,4.74458-1.57715A11.98366,11.98366,0,0,0,24,8Z" opacity=".05"/><path d="M24,9a10.98488,10.98488,0,0,1,10.43994,7.52686,1.49992,1.49992,0,1,1-2.84668.94628,8.00389,8.00389,0,0,0-15.18652,0,1.49992,1.49992,0,1,1-2.84668-.94628A10.98488,10.98488,0,0,1,24,9m0-.5a11.48427,11.48427,0,0,0-10.91439,7.86909,1.99992,1.99992,0,1,0,3.79562,1.26172,7.50389,7.50389,0,0,1,14.23757.0001,1.99992,1.99992,0,0,0,3.79563-1.26172A11.48432,11.48432,0,0,0,24,8.5Z" opacity=".07"/><path fill="url(#rLpSE6~AaDan99nwg1Igvb)" d="M33.0166,18.50049a1.5,1.5,0,0,1-1.42334-1.02735,8.00389,8.00389,0,0,0-15.18652,0,1.49992,1.49992,0,1,1-2.84668-.94628,11.00366,11.00366,0,0,1,20.87988,0,1.50147,1.50147,0,0,1-1.42334,1.97363Z"/><g><path d="M18.813,37.49316c-.4751.00293-.94824.00489-1.42188-.01464h-.00439a1.11187,1.11187,0,0,1-1.05713-.92774L12.75732,23.52246a2.83041,2.83041,0,0,1-.0581-.55566l-.01465-.3291.13232-.15137a1.11152,1.11152,0,0,1,.92823-.47559l.2622-.00488c.56495-.00684,1.13135-.01318,1.69532.01367a1.1753,1.1753,0,0,1,1.08154,1.03418c.44336,1.79639,1.604,7.11865,2.26416,10.24219.72656-3.023,2.01221-8.0708,2.61182-10.30322a1.26485,1.26485,0,0,1,1.24121-.981c.25683-.00488.6206-.00781.98633-.00879l.39843-.00049c.33252,0,.63282.00147.81348.00342a1.35181,1.35181,0,0,1,1.38623.99756c.439,1.59668,1.83008,7.13965,2.61572,10.313.99561-5.19483,1.67823-8.18848,2.06641-9.89209l.1084-.47608a1.26038,1.26038,0,0,1,1.30859-.94043l.376-.00342c.46875-.00634.93847-.01074,1.40625.01368a.95111.95111,0,0,1,.7666.43847,1.04171,1.04171,0,0,1,.10059.95459l-3.5337,13.06836a1.24714,1.24714,0,0,1-1.20117.99951c-.38281.01221-.76953.01563-1.15722.01563h-.00684l-.3042-.00049-.34668-.00146-.939-.00147a1.15019,1.15019,0,0,1-1.22852-.91846c-.57715-2.1123-1.80664-6.99267-2.49219-9.959-.69092,2.92041-1.89453,7.752-2.48291,9.94092-.11474.62158-.751,1.00342-1.61572.938-.21729-.00342-.44678-.00391-.67969-.002Zm.64844-1.00293c.17089,0,.3413.001.5122.00391.23682.02.5669-.01318.59375-.16113.895-3.335,2.83789-11.26465,2.97852-12.15869l.18457-1.1709c-.30713.00146-.60059.0039-.81934.0083a.27918.27918,0,0,0-.27636.20117c-.89844,3.35107-2.96436,11.564-3.1167,12.54l-.11524.7373ZM17.41016,36.479c.4248.01758.83593.01709,1.24023.01514l-.12012-.73828c-.11328-.69629-2.05908-9.79541-2.72558-12.50537-.02393-.14014-.08594-.23-.13965-.23145-.55274-.02636-1.1001-.01953-1.646-.01318l-.30468.00342-.01368.00635a1.46426,1.46426,0,0,0,.02735.26806L17.30322,36.3252c.01905.09423.05957.1538.10645.1538Zm15.147-13.47119c-.15039,0-.28809.064-.29981.1333l-.11425.50537c-.43994,1.93116-1.25928,5.5254-2.48682,12.124l-.13477.72412c.31788-.001.63575-.00488.95362-.01514a.26944.26944,0,0,0,.25146-.2207l3.56055-13.1626a5.25394,5.25394,0,0,0-1.31543-.09228l-.39941.0039ZM27.71289,36.49219l.97656.00049c.04444,0,.08936.00048.13379.00048l-.14844-.71191C28.582,35.333,26.13135,25.48682,25.51709,23.25a.38012.38012,0,0,0-.3999-.24463c-.16944-.002-.42774-.00293-.7168-.00342l.13623,1.19336c.11426.9961,2.0874,8.97461,2.95606,12.16309A.19148.19148,0,0,0,27.71289,36.49219Z" opacity=".05"/><path d="M19.02881,37.26367l-.00342-.022c-.0415.00049-.08252.00049-.124.001-.502.0039-1.001.00683-1.5-.01368h-.00293a.865.865,0,0,1-.82324-.72509L12.998,23.45654a2.60071,2.60071,0,0,1-.04932-.49707l-.00928-.2334.06592-.07568a.89713.89713,0,0,1,.72217-.39062l.28271-.00391c.54883-.00732,1.11768-.01318,1.68067.01367a.93122.93122,0,0,1,.84619.82276c.54,2.1914,1.93066,8.63476,2.49512,11.35351.626-2.69971,2.18945-8.856,2.86963-11.38818a1.01673,1.01673,0,0,1,.99951-.7959c.59619-.01123,1.75439-.01172,2.19531-.00586a1.10819,1.10819,0,0,1,1.14551.80469c.49853,1.81347,2.21386,8.6709,2.8916,11.42675,1.11133-5.88916,1.86279-9.186,2.27832-11.00732l.1084-.47656a.98017.98017,0,0,1,1.05664-.74561l.38672-.00342c.45312-.00683.9248-.01123,1.39013.01368a.7046.7046,0,0,1,.5708.32617.78917.78917,0,0,1,.07715.72461L31.45947,36.41406a1.00407,1.00407,0,0,1-.96435.81494c-.6001.01954-1.20459.01661-1.80908.01368-.314-.002-.62989-.00293-.94141-.00147a.9032.9032,0,0,1-.981-.71c-.6582-2.41113-2.14892-8.35547-2.73486-11.03125-.602,2.62549-2.061,8.50781-2.72852,10.98975-.11425.62011-.77246.80127-1.355.75341-.29687-.00488-.604-.0039-.91308-.00146Zm.43262-.52344c.16943,0,.33837.001.50781.00391.14306.01123.769.03809.84424-.36523.82129-3.0586,2.82715-11.19825,2.97949-12.166l.23-1.46045c-.40723.001-.82715.00342-1.1167.00928a.525.525,0,0,0-.51709.40576c-.82861,3.08838-2.95166,11.48193-3.11816,12.54688l-.16065,1.02685C19.22754,36.74072,19.34424,36.74023,19.46143,36.74023ZM17.41064,36.729c.50391.02051.99561.01856,1.48731.01368l.0459-.00049-.16651-1.02637c-.11377-.69824-2.0625-9.812-2.73-12.52539-.03466-.21582-.17187-.416-.375-.42139-.55127-.02539-1.11279-.02-1.65625-.01318l-.3042.00342c-.09814-.00782-.16894.0459-.26464.14746l.00146.0376a2.12619,2.12619,0,0,0,.03467.39257L17.062,36.3916a.37936.37936,0,0,0,.34766.3374Zm11.81006.01563c.42139.00049.8418-.00147,1.26221-.01563a.5172.5172,0,0,0,.48926-.42529l3.55615-13.14209a.313.313,0,0,0-.021-.29248.211.211,0,0,0-.17334-.10156c-.45459-.02393-.91845-.01856-1.36474-.01367l-.39844.0039c-.24121.00537-.521.10938-.56006.34229l-.11133.49072c-.44043,1.93311-1.26074,5.53076-2.48925,12.13428Zm-1.1499-.00391c.35889.00049.7085.00293,1.06006.00391L28.91992,35.73c-.09326-.44873-2.54687-10.30762-3.16211-12.5459a.63094.63094,0,0,0-.65234-.42871c-.21582-.002-.585-.00488-.98535-.00293l.16845,1.47119c.12159,1.06543,2.17872,9.32325,2.96289,12.2002a.42788.42788,0,0,0,.47657.31787C27.84375,36.74072,27.958,36.74072,28.0708,36.74072Z" opacity=".07"/><path fill="#fff" d="M13.194,22.81423a.65874.65874,0,0,1,.51548-.305c.65616-.00629,1.31424-.02072,1.96992.00962a.68051.68051,0,0,1,.61088.61185c.64507,2.62324,2.61308,11.80318,2.73351,12.54509.16573-1.0589,2.27873-9.42223,3.11941-12.55323a.77214.77214,0,0,1,.75828-.61086C23.5,22.5,24.653,22.50032,25.094,22.50591a.8702.8702,0,0,1,.90521.61184c.62726,2.2831,3.079,12.14614,3.16516,12.56142C30.5,28.5,31.34284,24.91714,31.76439,23.05842a.75285.75285,0,0,1,.8051-.55067c.59063-.00333,1.18225-.02023,1.7719.00974a.513.513,0,0,1,.4282.70965Q32.992,29.78655,31.21815,36.34882a.76555.76555,0,0,1-.727.63014c-.91536.02987-1.83258.00722-2.74794.012a.66325.66325,0,0,1-.73283-.501c-.81941-3.00715-2.84717-11.1614-2.9705-12.2382-.15079.95878-2.1477,9.074-2.98066,12.17316-.09394.502-.66772.60221-1.09456.56944-.85127-.01542-1.70254.01976-2.55286-.01542a.61637.61637,0,0,1-.59111-.52125q-1.79214-6.5334-3.58142-13.06776a3.4521,3.4521,0,0,1-.04528-.57571h0"/></g></svg>