<svg xmlns="http://www.w3.org/2000/svg" id="Layer_1" x="0" y="0" version="1.1" viewBox="0 0 48 48" xml:space="preserve"><linearGradient id="SVGID_1_" x1="14.242" x2="30.172" y1="-434.358" y2="-464.695" gradientTransform="matrix(1 0 0 -1 0 -426)" gradientUnits="userSpaceOnUse"><stop offset="0" stop-color="#2aa4f4"/><stop offset="1" stop-color="#007ad9"/></linearGradient><path fill="url(#SVGID_1_)" d="M48,26c0,6.6-5.4,12-12,12c-1.8,0-24.7,0-26.5,0C4.3,38,0,33.8,0,28.5c0-4.5,3.2-8.3,7.4-9.3	C9.1,12.2,15.5,7,23,7c5.5,0,10.4,2.8,13.2,7C42.8,14.1,48,19.5,48,26z"/><path d="M36.2,14c-2.6-3.9-6.9-6.5-11.9-6.9c-0.1,0.2-0.3,0.4-0.3,0.6c-0.1,0.6,0,1.1,0.4,1.5l4.4,4.4v4	c0,0.9,0.7,1.6,1.6,1.6h3.9l4.4,4.4c0.3,0.3,0.7,0.5,1.2,0.5c0.7,0,1.3-0.4,1.6-1.1l2.1-6.2C41.6,15.1,39,14.1,36.2,14z" opacity=".05"/><path d="M36.2,14c-2.5-3.7-6.6-6.3-11.2-6.9c-0.2,0.2-0.4,0.4-0.5,0.7c-0.1,0.4,0,0.8,0.3,1.1l4.5,4.5v4.2	c0,0.6,0.5,1.1,1.1,1.1h4.2l4.5,4.5c0.2,0.2,0.5,0.3,0.8,0.3c0.5,0,0.9-0.3,1.1-0.8l2.2-6.3C41.2,14.9,38.8,14.1,36.2,14z" opacity=".07"/><path fill="#ccc" d="M47.2,0L25.4,7.5c-0.5,0.2-0.6,0.7-0.2,1.1l14.3,14.3c0.3,0.3,0.9,0.2,1.1-0.2L48,0.8C48.1,0.3,47.7-0.1,47.2,0	z"/><path fill="#999" d="M32.3,15.7l7.1,7.1c0.3,0.3,0.9,0.2,1.1-0.2L48,0.8c0.1-0.2,0-0.5-0.2-0.6L32.3,15.7z"/><path fill="#64717c" d="M45,3L29.8,13.2v4.4c0,0.3,0.3,0.6,0.6,0.6h4.4L45,3z"/></svg>