<svg xmlns="http://www.w3.org/2000/svg" viewBox="0 0 48 48"><radialGradient id="H82rF4rmlQxeWDdCPYx1va" cx="24" cy="24" r="20" gradientUnits="userSpaceOnUse"><stop offset="0" stop-color="#f45560"/><stop offset=".074" stop-color="#f1505c"/><stop offset="1" stop-color="#cf1928"/></radialGradient><path fill="url(#H82rF4rmlQxeWDdCPYx1va)" d="M44,24c0,11.046-8.954,20-20,20S4,35.046,4,24S12.954,4,24,4S44,12.954,44,24z"/><radialGradient id="H82rF4rmlQxeWDdCPYx1vb" cx="24.001" cy="24" r="19.487" gradientUnits="userSpaceOnUse"><stop offset="0" stop-color="#fafafb"/><stop offset=".475" stop-color="#f8f8f9"/><stop offset=".675" stop-color="#f1f2f3"/><stop offset=".823" stop-color="#e4e7e9"/><stop offset=".944" stop-color="#d3d7da"/><stop offset="1" stop-color="#c8cdd1"/></radialGradient><path fill="url(#H82rF4rmlQxeWDdCPYx1vb)" d="M20.011,10.585V4.4C21.3,4.139,22.634,4,24,4c1.37,0,2.707,0.139,4,0.402v6.186 C26.732,10.21,25.391,10,24,10C22.613,10,21.276,10.209,20.011,10.585z M33.613,34.159l5.344,3.085 c1.766-1.992,3.141-4.332,4.003-6.914l-5.353-3.09C36.969,29.933,35.557,32.32,33.613,34.159z M37.608,20.759l5.353-3.09 c-0.862-2.582-2.237-4.921-4.003-6.914l-5.344,3.085C35.557,15.68,36.969,18.067,37.608,20.759z M14.391,13.837l-5.345-3.086 c-1.766,1.992-3.142,4.331-4.005,6.913l5.352,3.09C11.034,18.062,12.446,15.676,14.391,13.837z M24,38 c-1.387,0-2.724-0.209-3.989-0.585V43.6C21.3,43.861,22.634,44,24,44c1.37,0,2.707-0.139,4-0.402v-6.186 C26.732,37.79,25.391,38,24,38z M10.394,27.247l-5.352,3.09c0.863,2.581,2.238,4.921,4.005,6.913l5.345-3.086 C12.446,32.324,11.034,29.938,10.394,27.247z"/><radialGradient id="H82rF4rmlQxeWDdCPYx1vc" cx="24" cy="24" r="11.819" gradientUnits="userSpaceOnUse"><stop offset="0" stop-color="#fafafb"/><stop offset=".517" stop-color="#f8f8f9"/><stop offset=".703" stop-color="#f1f2f4"/><stop offset=".836" stop-color="#e6e8ea"/><stop offset=".942" stop-color="#d5d9dc"/><stop offset="1" stop-color="#c8cdd1"/></radialGradient><path fill="url(#H82rF4rmlQxeWDdCPYx1vc)" d="M12.181,22c0.307-1.819,1.02-3.498,2.049-4.942l1.433,1.433 c-0.696,1.049-1.201,2.234-1.461,3.509H12.181z M15.663,29.509c-0.696-1.049-1.201-2.234-1.461-3.509h-2.021 c0.307,1.819,1.02,3.498,2.049,4.942L15.663,29.509z M18.491,15.663c1.049-0.695,2.234-1.201,3.509-1.461v-2.021 c-1.819,0.307-3.498,1.02-4.942,2.049L18.491,15.663z M26,14.202c1.275,0.26,2.46,0.766,3.509,1.461l1.433-1.433 C29.498,13.2,27.819,12.488,26,12.181V14.202z M22,33.798c-1.275-0.26-2.46-0.766-3.509-1.461l-1.433,1.433 c1.444,1.029,3.123,1.742,4.942,2.049V33.798z M33.798,26c-0.26,1.275-0.765,2.46-1.461,3.509l1.433,1.433 c1.029-1.444,1.742-3.123,2.049-4.942H33.798z M32.337,18.491c0.696,1.049,1.201,2.234,1.461,3.509h2.021 c-0.307-1.819-1.02-3.498-2.049-4.942L32.337,18.491z M29.509,32.337c-1.049,0.695-2.234,1.201-3.509,1.461v2.021 c1.819-0.307,3.498-1.02,4.942-2.049L29.509,32.337z"/></svg>