<svg xmlns="http://www.w3.org/2000/svg" viewBox="0 0 48 48"><path fill="#50e6ff" d="M39,16v25c0,1.105-0.895,2-2,2H11c-1.105,0-2-0.895-2-2V7c0-1.105,0.895-2,2-2h17L39,16z"/><linearGradient id="M5ind8xCDBHic7sZoveB7a" x1="28.529" x2="33.6" y1="374.529" y2="379.6" gradientTransform="matrix(1 0 0 -1 0 390)" gradientUnits="userSpaceOnUse"><stop offset="0" stop-color="#3079d6"/><stop offset="1" stop-color="#297cd2"/></linearGradient><path fill="url(#M5ind8xCDBHic7sZoveB7a)" d="M28,5v9c0,1.105,0.895,2,2,2h9L28,5z"/><polygon fill="#0d62ab" points="27,31.414 21,25.414 15.707,30.707 14.293,29.293 21,22.586 27,28.586 32.293,23.293 33.707,24.707"/><circle cx="33" cy="24" r="2" fill="#199be2"/><circle cx="27" cy="30" r="2" fill="#199be2"/><circle cx="21" cy="24" r="2" fill="#199be2"/><circle cx="15" cy="30" r="2" fill="#199be2"/><path d="M32,43h7V29h-4c-1.657,0-3,1.343-3,3V43z" opacity=".05"/><path d="M33,43h6V30h-4c-1.105,0-2,0.895-2,2V43z" opacity=".07"/><linearGradient id="M5ind8xCDBHic7sZoveB7b" x1="34.72" x2="46.748" y1="31.116" y2="47.173" gradientUnits="userSpaceOnUse"><stop offset="0" stop-color="#a8e1f3"/><stop offset=".754" stop-color="#5ebcd9"/><stop offset="1" stop-color="#45b0d0"/></linearGradient><path fill="url(#M5ind8xCDBHic7sZoveB7b)" d="M46,48H35c-0.552,0-1-0.448-1-1V32c0-0.552,0.448-1,1-1h12c0.552,0,1,0.448,1,1v14	C48,47.105,47.105,48,46,48z"/><linearGradient id="M5ind8xCDBHic7sZoveB7c" x1="39" x2="39" y1="45.171" y2="48.006" gradientUnits="userSpaceOnUse"><stop offset="0" stop-color="#0176d0"/><stop offset="1" stop-color="#16538c"/></linearGradient><path fill="url(#M5ind8xCDBHic7sZoveB7c)" d="M44,46L44,46c0-0.552-0.448-1-1-1H33c-0.552,0-1,0.448-1,1v0c0,1.105,0.895,2,2,2h12h0	C44.895,48,44,47.105,44,46z"/></svg>