<svg xmlns="http://www.w3.org/2000/svg" viewBox="0 0 48 48"><linearGradient id="gvxskOxAq35e~rEib~Bj_a" x1="18.588" x2="25.725" y1="45.694" y2="5.215" gradientTransform="matrix(1 0 0 -1 0 50)" gradientUnits="userSpaceOnUse"><stop offset="0" stop-color="#33c481"/><stop offset="1" stop-color="#21a366"/></linearGradient><path fill="url(#gvxskOxAq35e~rEib~Bj_a)" d="M30,44H7c-1.104,0-2-0.896-2-2V12c0-0.79,0.466-1.507,1.188-1.827l13.5-6 c0.462-0.207,0.985-0.229,1.465-0.063l14.5,5c0.576,0.198,1.03,0.649,1.233,1.225l6,17c0.229,0.646,0.11,1.363-0.313,1.901l-11,14 C31.193,43.718,30.613,44,30,44z M9,40h20.028l9.72-12.371l-5.313-15.053L20.593,8.147L9,13.3V40z"/><linearGradient id="gvxskOxAq35e~rEib~Bj_b" x1="6.479" x2="7.522" y1="10.955" y2="5.038" gradientTransform="matrix(1 0 0 -1 0 50)" gradientUnits="userSpaceOnUse"><stop offset="0" stop-color="#ffd747"/><stop offset=".482" stop-color="#ffd645"/><stop offset="1" stop-color="#f5bc00"/></linearGradient><circle cx="7" cy="42" r="3" fill="url(#gvxskOxAq35e~rEib~Bj_b)"/><linearGradient id="gvxskOxAq35e~rEib~Bj_c" x1="6.479" x2="7.522" y1="40.955" y2="35.038" gradientTransform="matrix(1 0 0 -1 0 50)" gradientUnits="userSpaceOnUse"><stop offset="0" stop-color="#ffd747"/><stop offset=".482" stop-color="#ffd645"/><stop offset="1" stop-color="#f5bc00"/></linearGradient><circle cx="7" cy="12" r="3" fill="url(#gvxskOxAq35e~rEib~Bj_c)"/><linearGradient id="gvxskOxAq35e~rEib~Bj_d" x1="19.979" x2="21.022" y1="46.955" y2="41.038" gradientTransform="matrix(1 0 0 -1 0 50)" gradientUnits="userSpaceOnUse"><stop offset="0" stop-color="#ffd747"/><stop offset=".482" stop-color="#ffd645"/><stop offset="1" stop-color="#f5bc00"/></linearGradient><circle cx="20.5" cy="6" r="3" fill="url(#gvxskOxAq35e~rEib~Bj_d)"/><linearGradient id="gvxskOxAq35e~rEib~Bj_e" x1="34.479" x2="35.522" y1="41.955" y2="36.038" gradientTransform="matrix(1 0 0 -1 0 50)" gradientUnits="userSpaceOnUse"><stop offset="0" stop-color="#ffd747"/><stop offset=".482" stop-color="#ffd645"/><stop offset="1" stop-color="#f5bc00"/></linearGradient><circle cx="35" cy="11" r="3" fill="url(#gvxskOxAq35e~rEib~Bj_e)"/><linearGradient id="gvxskOxAq35e~rEib~Bj_f" x1="40.479" x2="41.522" y1="24.955" y2="19.038" gradientTransform="matrix(1 0 0 -1 0 50)" gradientUnits="userSpaceOnUse"><stop offset="0" stop-color="#ffd747"/><stop offset=".482" stop-color="#ffd645"/><stop offset="1" stop-color="#f5bc00"/></linearGradient><circle cx="41" cy="28" r="3" fill="url(#gvxskOxAq35e~rEib~Bj_f)"/><linearGradient id="gvxskOxAq35e~rEib~Bj_g" x1="29.479" x2="30.522" y1="10.955" y2="5.038" gradientTransform="matrix(1 0 0 -1 0 50)" gradientUnits="userSpaceOnUse"><stop offset="0" stop-color="#ffd747"/><stop offset=".482" stop-color="#ffd645"/><stop offset="1" stop-color="#f5bc00"/></linearGradient><circle cx="30" cy="42" r="3" fill="url(#gvxskOxAq35e~rEib~Bj_g)"/></svg>