<svg xmlns="http://www.w3.org/2000/svg" viewBox="0 0 48 48"><path fill="#5059c9" d="M6,13.5C6,9.358,9.358,6,13.5,6h21c4.142,0,7.5,3.358,7.5,7.5v21c0,4.142-3.358,7.5-7.5,7.5h-21 C9.358,42,6,38.642,6,34.5V13.5z"/><polygon points="11.764,32.212 20.218,27.762 11.764,23.312 13.525,18.068 26.5,24.896 26.5,30.627 13.525,37.455" opacity=".05"/><polygon points="12.373,32.456 21.291,27.762 12.373,23.068 13.812,18.784 26,25.198 26,30.325 13.812,36.739" opacity=".07"/><path fill="#f9f9f9" d="M22.365,27.762l-9.382-4.938L14.1,19.5l11.4,6v4.524l-11.4,6L12.982,32.7L22.365,27.762z"/></svg>