<svg xmlns="http://www.w3.org/2000/svg" viewBox="0 0 48 48"><path fill="#50e6ff" d="M39,16v25c0,1.105-0.895,2-2,2H11c-1.105,0-2-0.895-2-2V7c0-1.105,0.895-2,2-2h17L39,16z"/><linearGradient id="hHJl49dU9jqMenFYwE0YAa" x1="28.529" x2="33.6" y1="374.529" y2="379.6" gradientTransform="matrix(1 0 0 -1 0 390)" gradientUnits="userSpaceOnUse"><stop offset="0" stop-color="#3079d6"/><stop offset="1" stop-color="#297cd2"/></linearGradient><path fill="url(#hHJl49dU9jqMenFYwE0YAa)" d="M28,5v9c0,1.105,0.895,2,2,2h9L28,5z"/><polygon fill="#0d62ab" points="27,31.414 21,25.414 15.707,30.707 14.293,29.293 21,22.586 27,28.586 32.293,23.293 33.707,24.707"/><circle cx="33" cy="24" r="2" fill="#199be2"/><circle cx="27" cy="30" r="2" fill="#199be2"/><circle cx="21" cy="24" r="2" fill="#199be2"/><circle cx="15" cy="30" r="2" fill="#199be2"/><radialGradient id="hHJl49dU9jqMenFYwE0YAb" cx="38.003" cy="38.011" r="11.764" gradientUnits="userSpaceOnUse"><stop offset=".348"/><stop offset=".936" stop-opacity=".098"/><stop offset="1" stop-opacity="0"/></radialGradient><path fill="url(#hHJl49dU9jqMenFYwE0YAb)" d="M38,26c-6.627,0-12,5.373-12,12c0,1.787,0.401,3.476,1.102,5H37	c1.105,0,2-0.895,2-2V26.05C38.669,26.023,38.338,26,38,26z" opacity=".3"/><linearGradient id="hHJl49dU9jqMenFYwE0YAc" x1="28" x2="48" y1="38" y2="38" gradientUnits="userSpaceOnUse"><stop offset="0" stop-color="#21ad64"/><stop offset="1" stop-color="#088242"/></linearGradient><circle cx="38" cy="38" r="10" fill="url(#hHJl49dU9jqMenFYwE0YAc)"/><path fill="#fff" d="M38.5,43h-1c-0.276,0-0.5-0.224-0.5-0.5v-9c0-0.276,0.224-0.5,0.5-0.5h1c0.276,0,0.5,0.224,0.5,0.5v9	C39,42.776,38.776,43,38.5,43z"/><path fill="#fff" d="M33,38.5v-1c0-0.276,0.224-0.5,0.5-0.5h9c0.276,0,0.5,0.224,0.5,0.5v1c0,0.276-0.224,0.5-0.5,0.5h-9	C33.224,39,33,38.776,33,38.5z"/></svg>