<svg xmlns="http://www.w3.org/2000/svg" viewBox="0 0 48 48"><linearGradient id="5vrRseHLQs7NtrGDf~srGa" x1="4.315" x2="10.315" y1="45.941" y2="45.941" gradientTransform="rotate(45.001 21.354 46.379)" gradientUnits="userSpaceOnUse"><stop offset="0" stop-color="#3079d6"/><stop offset="1" stop-color="#297cd2"/></linearGradient><path fill="url(#5vrRseHLQs7NtrGDf~srGa)" d="M6.08,41.799L6.08,41.799c-1.172-1.172-1.172-3.071,0-4.243l9.192-9.192l4.243,4.243 l-9.192,9.192C9.151,42.971,7.251,42.971,6.08,41.799z"/><path fill="#2c7bd3" d="M38.46,9.54C35.533,6.612,31.641,5,27.5,5s-8.033,1.612-10.96,4.54C13.612,12.467,12,16.359,12,20.5 s1.612,8.033,4.54,10.96C19.467,34.388,23.359,36,27.5,36s8.033-1.612,10.96-4.54C41.388,28.533,43,24.641,43,20.5 S41.388,12.467,38.46,9.54z M14,20.5c0-3.606,1.404-6.996,3.954-9.546S23.894,7,27.5,7c3.27,0,6.355,1.165,8.804,3.281 L17.281,29.304C15.165,26.855,14,23.77,14,20.5z M37.046,30.046C34.496,32.596,31.106,34,27.5,34c-3.27,0-6.355-1.165-8.804-3.281 l19.023-19.023C39.835,14.145,41,17.23,41,20.5C41,24.106,39.596,27.496,37.046,30.046z"/><linearGradient id="5vrRseHLQs7NtrGDf~srGb" x1="17" x2="35.091" y1="21.954" y2="21.954" gradientUnits="userSpaceOnUse"><stop offset="0" stop-color="#f44f5a"/><stop offset=".443" stop-color="#ee3d4a"/><stop offset=".731" stop-color="#e92e3d"/><stop offset="1" stop-color="#e52030"/></linearGradient><path fill="url(#5vrRseHLQs7NtrGDf~srGb)" d="M20.26,12.909c-0.06,0.058-0.125,0.107-0.184,0.167c-4.101,4.1-4.101,10.749,0,14.849 c4.101,4.1,10.749,4.1,14.849,0c0.059-0.059,0.109-0.124,0.167-0.184L20.26,12.909z"/><linearGradient id="5vrRseHLQs7NtrGDf~srGc" x1="35.297" x2="22.697" y1="22.114" y2="9.514" gradientTransform="translate(1.786 .447)" gradientUnits="userSpaceOnUse"><stop offset="0" stop-color="#edbe00"/><stop offset="1" stop-color="#fede00"/></linearGradient><path fill="url(#5vrRseHLQs7NtrGDf~srGc)" d="M35.017,27.822c4.002-4.108,3.975-10.679-0.093-14.747s-10.639-4.095-14.747-0.093 L35.017,27.822z"/></svg>