<svg xmlns="http://www.w3.org/2000/svg" viewBox="0 0 48 48"><path fill="#ccc" d="M42,38H6V15h36V38z"/><path fill="#999" d="M6,38h36v2c0,1.105-0.895,2-2,2H8c-1.105,0-2-0.895-2-2V38z"/><linearGradient id="3eU32cbb9jLcQ4yOcMXRga" x1="21.583" x2="27.356" y1="7.189" y2="28.071" gradientUnits="userSpaceOnUse"><stop offset="0" stop-color="#d43a02"/><stop offset="1" stop-color="#b9360c"/></linearGradient><path fill="url(#3eU32cbb9jLcQ4yOcMXRga)" d="M43,25H32.041c-0.653,0-1.264-0.318-1.638-0.853l-5.349-7.642	c-0.512-0.731-1.595-0.731-2.107,0l-5.349,7.642C17.223,24.682,16.611,25,15.959,25H5c-0.552,0-1-0.448-1-1V8c0-1.105,0.895-2,2-2	h36c1.105,0,2,0.895,2,2v16C44,24.552,43.552,25,43,25z"/><path fill="#de490d" d="M21,28h6c0.552,0,1,0.448,1,1v13h-8V29C20,28.448,20.448,28,21,28z"/><path fill="#199be2" d="M33,28h3c0.552,0,1,0.448,1,1v5c0,0.552-0.448,1-1,1h-3c-0.552,0-1-0.448-1-1v-5	C32,28.448,32.448,28,33,28z"/><path fill="#199be2" d="M12,28h3c0.552,0,1,0.448,1,1v5c0,0.552-0.448,1-1,1h-3c-0.552,0-1-0.448-1-1v-5	C11,28.448,11.448,28,12,28z"/><linearGradient id="3eU32cbb9jLcQ4yOcMXRgb" x1="19.948" x2="24.787" y1="8.863" y2="28.133" gradientUnits="userSpaceOnUse"><stop offset="0" stop-color="#b83200"/><stop offset="1" stop-color="#ab320b"/></linearGradient><path fill="url(#3eU32cbb9jLcQ4yOcMXRgb)" d="M26.303,15.191c-1.121-1.594-3.484-1.594-4.606,0L14.796,25h1.163	c0.653,0,1.264-0.318,1.638-0.853l5.349-7.642c0.512-0.731,1.595-0.731,2.107,0l5.349,7.642C30.777,24.682,31.389,25,32.041,25	h1.163L26.303,15.191z"/></svg>