<svg xmlns="http://www.w3.org/2000/svg" viewBox="0 0 48 48"><linearGradient id="DOX8IWbn1CmmYIpcU70hTa" x1="19.768" x2="29.836" y1="8.957" y2="45.521" gradientUnits="userSpaceOnUse"><stop offset="0" stop-color="#a34f27"/><stop offset=".587" stop-color="#8b3817"/><stop offset="1" stop-color="#802d10"/></linearGradient><path fill="url(#DOX8IWbn1CmmYIpcU70hTa)" d="M39.663,10H8.326C8.326,10,4,18.276,4,24c0,11.045,8.955,20,20,20s20-8.955,20-20	C44,18.475,39.663,10,39.663,10z"/><ellipse cx="24" cy="11" fill="#732f17" rx="16" ry="5"/><radialGradient id="DOX8IWbn1CmmYIpcU70hTb" cx="23.97" cy="15.614" r="20.66" gradientTransform="matrix(1 0 0 .3499 0 10.152)" gradientUnits="userSpaceOnUse"><stop offset=".743" stop-color="#c0c4bb"/><stop offset=".77" stop-color="#d3deeb"/></radialGradient><path fill="url(#DOX8IWbn1CmmYIpcU70hTb)" d="M24,8c-7.732,0-14,1.343-14,3c0,0.873,1.743,1.657,4.519,2.205	c0.44,0.087,1.448,6.382,1.803,6.382c0.337,0,1.109-5.788,1.598-5.758C19.71,13.937,22.396,14,24,14c7.732,0,14-1.343,14-3	S31.732,8,24,8z"/><path fill="#0078d4" d="M42.976,1.422l-0.445-1.183c-0.071-0.19-0.283-0.286-0.474-0.215l-3.931,1.475	c-2.106,0.789-3.867,2.306-4.95,4.257l-4.676,8.083c0.856-0.062,1.674-0.141,2.446-0.236l3.969-6.861	c0.861-1.551,2.251-2.748,3.913-3.37l3.932-1.475C42.952,1.824,43.048,1.612,42.976,1.422z"/></svg>