<svg xmlns="http://www.w3.org/2000/svg" viewBox="0 0 48 48"><path fill="#b0bec5" d="M37,32V8h-5V6h5.789c0.48,0,1.122,0.529,1.211,1v26L37,32z"/><path fill="#586169" d="M38,43c-2.757,0-5-2.243-5-5s2.243-5,5-5s5,2.243,5,5S40.757,43,38,43z M38,35c-1.654,0-3,1.346-3,3	s1.346,3,3,3s3-1.346,3-3S39.654,35,38,35z"/><path fill="#21a366" d="M17,38h-2c0-2.757-2.243-5-5-5s-5,2.243-5,5H3c0-3.859,3.141-7,7-7S17,34.141,17,38z"/><path fill="#586169" d="M10,43c-2.757,0-5-2.243-5-5s2.243-5,5-5s5,2.243,5,5S12.757,43,10,43z M10,35c-1.654,0-3,1.346-3,3	s1.346,3,3,3s3-1.346,3-3S11.654,35,10,35z"/><path fill="#107c41" d="M38,28l-0.276-4.162L27.815,36h-9.458c-1.203,0-2.362,0.358-3.348,1H10c-0.552,0-1,0.448-1,1	s0.448,1,1,1h18.335c0.643,0,1.246-0.309,1.622-0.83L31.521,36h-0.002L38,28z"/><path fill="#565b5e" d="M31,8h4V6h-4c-0.552,0-1,0.448-1,1v0C30,7.552,30.448,8,31,8z"/><path fill="#565b5e" d="M45,6h-4v2h4c0.552,0,1-0.448,1-1v0C46,6.448,45.552,6,45,6z"/><path fill="#21a366" d="M39,23h-2v15c0,0.552,0.448,1,1,1l0,0c0.552,0,1-0.448,1-1V23z"/><rect width="6" height="2" x="35" y="6" fill="#b0bec5"/></svg>