<svg xmlns="http://www.w3.org/2000/svg" viewBox="0 0 48 48"><linearGradient id="xqD_RtBaTLaVURO7qAxEfa" x1="24" x2="24" y1="4.147" y2="12.179" gradientUnits="userSpaceOnUse"><stop offset="0" stop-color="#21ad64"/><stop offset=".33" stop-color="#159954"/><stop offset=".713" stop-color="#0b8847"/><stop offset="1" stop-color="#088242"/></linearGradient><path fill="url(#xqD_RtBaTLaVURO7qAxEfa)" d="M24,4c-4,0-4,2-8,2c0,3,2,2,2,6h12c0-4,2-3,2-6C28,6,28,4,24,4z"/><linearGradient id="xqD_RtBaTLaVURO7qAxEfb" x1="8.397" x2="35.767" y1="13.26" y2="40.63" gradientUnits="userSpaceOnUse"><stop offset="0" stop-color="#21ad64"/><stop offset="1" stop-color="#088242"/></linearGradient><path fill="url(#xqD_RtBaTLaVURO7qAxEfb)" d="M41,31c0,9.389-7.611,10-17,10S7,40.389,7,31s7.611-20,17-20S41,21.611,41,31z"/><line x1="18" x2="30" y1="12" y2="12" fill="none" stroke="#8f979e" stroke-linecap="round" stroke-linejoin="round" stroke-miterlimit="10" stroke-width="2"/><path fill="#fff" d="M29,30.193c0-4.897-7.229-3.94-7.229-6.833c0-1.51,1.698-1.59,2.229-1.59	c1.276,0,2.508,0.342,3.447,0.783c0.296,0.139,0.636-0.067,0.636-0.393v-1.425c0-0.478-0.18-0.761-0.467-0.873	c-0.644-0.25-1.568-0.433-2.935-0.478v-1.568c0-0.188-0.152-0.34-0.34-0.34h-0.68c-0.188,0-0.34,0.152-0.34,0.34v1.593	C21.199,19.615,19,20.812,19,23.596c0,5.076,7.229,4.069,7.229,6.742c0,0.84-0.537,1.564-2.229,1.564	c-1.701,0-3.264-0.594-4.129-1.036c-0.291-0.149-0.634,0.067-0.634,0.394v1.622c0,0.311,0.187,0.588,0.474,0.709	c1.025,0.435,2.4,0.765,3.609,0.861v1.733c0,0.188,0.152,0.34,0.34,0.34h0.68c0.188,0,0.34-0.152,0.34-0.34v-1.729	C27.853,34.192,29,32.068,29,30.193z"/></svg>