<svg xmlns="http://www.w3.org/2000/svg" viewBox="0 0 48 48"><linearGradient id="~P5eEhm3hNvuOz3M4CHa_a" x1="18.66" x2="27.29" y1="7.308" y2="38.05" gradientUnits="userSpaceOnUse"><stop offset="0" stop-color="#21ad64"/><stop offset="1" stop-color="#088242"/></linearGradient><path fill="url(#~P5eEhm3hNvuOz3M4CHa_a)" d="M13,23l-1-1v-7.789c0-0.79,0.234-1.562,0.672-2.219L16,7h16l3.328,4.992 C35.766,12.649,36,13.421,36,14.211V22l-1,1H13z M13,29l-1,1v9h24v-9l-1-1H13z"/><linearGradient id="~P5eEhm3hNvuOz3M4CHa_b" x1="24" x2="24" y1="5" y2="7" gradientUnits="userSpaceOnUse"><stop offset="0" stop-color="#ccc"/><stop offset="1" stop-color="#868d93"/></linearGradient><path fill="url(#~P5eEhm3hNvuOz3M4CHa_b)" d="M33,6L33,6c0-0.552-0.448-1-1-1H16c-0.552,0-1,0.448-1,1l0,0c0,0.552,0.448,1,1,1h16 C32.552,7,33,6.552,33,6z"/><linearGradient id="~P5eEhm3hNvuOz3M4CHa_c" x1="24" x2="24" y1="43" y2="41" gradientUnits="userSpaceOnUse"><stop offset="0" stop-color="#ccc"/><stop offset="1" stop-color="#868d93"/></linearGradient><path fill="url(#~P5eEhm3hNvuOz3M4CHa_c)" d="M34,42L34,42c0-0.552-0.498-1-1.111-1H15.111C14.498,41,14,41.448,14,42l0,0 c0,0.552,0.498,1,1.111,1h17.778C33.502,43,34,42.552,34,42z"/><linearGradient id="~P5eEhm3hNvuOz3M4CHa_d" x1="24" x2="24" y1="41" y2="39" gradientUnits="userSpaceOnUse"><stop offset="0" stop-color="#ccc"/><stop offset="1" stop-color="#868d93"/></linearGradient><path fill="url(#~P5eEhm3hNvuOz3M4CHa_d)" d="M34,41H14c-1.105,0-2-0.895-2-2v0h24v0C36,40.105,35.105,41,34,41z"/><path fill="#1d1d1b" d="M36,21h-4.524C29.812,18.519,27,17,24,17s-5.813,1.519-7.476,4H12v10h4.524 C18.187,33.481,21,35,24,35s5.812-1.519,7.476-4H36V21z M30.345,29l-0.289,0.499C28.805,31.658,26.485,33,24,33 s-4.805-1.342-6.056-3.501L17.655,29H13v-6h4.655l0.289-0.499C19.195,20.342,21.515,19,24,19s4.805,1.342,6.056,3.501L30.345,23H35 v6H30.345z" opacity=".07"/><path d="M36,21.5h-4.796c-1.549-2.475-4.283-4-7.204-4s-5.655,1.525-7.204,4H12v9h4.796 c1.549,2.475,4.283,4,7.204,4s5.655-1.525,7.204-4H36V21.5z M30.633,29.5l-0.145,0.25c-1.34,2.313-3.826,3.75-6.489,3.75 s-5.149-1.437-6.489-3.75l-0.145-0.25H12.5v-7h4.867l0.145-0.25c1.34-2.313,3.826-3.75,6.489-3.75s5.149,1.437,6.489,3.75 l0.145,0.25H35.5v7H30.633z" opacity=".05"/><linearGradient id="~P5eEhm3hNvuOz3M4CHa_e" x1="22.015" x2="25.655" y1="18.279" y2="32.437" gradientUnits="userSpaceOnUse"><stop offset="0" stop-color="#ffdfb3"/><stop offset="1" stop-color="#ffc999"/></linearGradient><path fill="url(#~P5eEhm3hNvuOz3M4CHa_e)" d="M36,22h-5.079c-1.384-2.389-3.962-4-6.921-4s-5.538,1.611-6.921,4H12v8h5.079 c1.384,2.389,3.961,4,6.921,4s5.537-1.611,6.921-4H36V22z"/></svg>