<svg xmlns="http://www.w3.org/2000/svg" viewBox="0 0 48 48"><path fill="#1783bd" d="M41,6v36c0,1.105-0.895,2-2,2h-5V4h5C40.105,4,41,4.895,41,6z"/><linearGradient id="jKnlIHW2KCBnxjscZHarca" x1="-2487.143" x2="-2487.143" y1="-1383.695" y2="-1386.837" gradientTransform="matrix(0 -1 -1 0 -1348.723 -2463.143)" gradientUnits="userSpaceOnUse"><stop offset=".441" stop-color="#999998"/><stop offset=".653" stop-color="#c1c1c0"/><stop offset=".88" stop-color="#e5e5e5"/><stop offset="1" stop-color="#f3f3f3"/></linearGradient><path fill="url(#jKnlIHW2KCBnxjscZHarca)" d="M39,6v36c0,1.105-0.895,2-2,2h-6V4h6C38.105,4,39,4.895,39,6z"/><linearGradient id="jKnlIHW2KCBnxjscZHarcb" x1="3.638" x2="15.691" y1="-3084.572" y2="-3117.405" gradientTransform="matrix(1 0 0 -1 0 -3076)" gradientUnits="userSpaceOnUse"><stop offset="0" stop-color="#0176d0"/><stop offset="1" stop-color="#16538c"/></linearGradient><path fill="url(#jKnlIHW2KCBnxjscZHarcb)" d="M7,6v36c0,1.105,0.895,2,2,2h2V4H9C7.895,4,7,4.895,7,6z"/><linearGradient id="jKnlIHW2KCBnxjscZHarcc" x1="16.78" x2="31.215" y1="-3081.154" y2="-3120.475" gradientTransform="matrix(1 0 0 -1 0 -3076)" gradientUnits="userSpaceOnUse"><stop offset="0" stop-color="#33bef0"/><stop offset="1" stop-color="#22a5e2"/></linearGradient><path fill="url(#jKnlIHW2KCBnxjscZHarcc)" d="M35,4H11v40h24c1.105,0,2-0.895,2-2V6C37,4.895,36.105,4,35,4z"/><path fill="#f9f9f9" d="M29.76,31H27v-6.5c0-0.276-0.224-0.5-0.5-0.5h-6c-0.276,0-0.5,0.224-0.5,0.5V31h-2.761 c-0.45,0-0.671,0.548-0.347,0.86l6.291,6.066c0.176,0.17,0.455,0.17,0.632,0l6.291-6.066C30.431,31.548,30.21,31,29.76,31z"/><path fill="#f9f9f9" d="M26.5,18h-6c-0.276,0-0.5,0.224-0.5,0.5v3c0,0.276,0.224,0.5,0.5,0.5h6c0.276,0,0.5-0.224,0.5-0.5 v-3C27,18.224,26.776,18,26.5,18z"/><path fill="#f9f9f9" d="M26.5,12h-6c-0.276,0-0.5,0.224-0.5,0.5v3c0,0.276,0.224,0.5,0.5,0.5h6c0.276,0,0.5-0.224,0.5-0.5 v-3C27,12.224,26.776,12,26.5,12z"/></svg>