<svg xmlns="http://www.w3.org/2000/svg" viewBox="0 0 48 48"><linearGradient id="kcBglfOnJULGB_mCTzH8va" x1="24" x2="24" y1="35" y2="45" gradientUnits="userSpaceOnUse"><stop offset="0" stop-color="#d160f6"/><stop offset="1" stop-color="#9014b8"/></linearGradient><path fill="url(#kcBglfOnJULGB_mCTzH8va)" d="M28,45h-8c-2.2,0-4-1.8-4-4v-6h16v6C32,43.2,30.2,45,28,45z"/><linearGradient id="kcBglfOnJULGB_mCTzH8vb" x1="6" x2="42" y1="22" y2="22" gradientUnits="userSpaceOnUse"><stop offset="0" stop-color="#d160f6"/><stop offset="1" stop-color="#c545ed"/></linearGradient><path fill="url(#kcBglfOnJULGB_mCTzH8vb)" d="M42,22.133C42,13.28,33.953,4,24,4S6,13.28,6,22.133c0,4.299,1.908,7.684,5,10.037v2.647 c0,1.2,0.975,2.182,2.167,2.182H18v1c0,1.1,0.9,2,2,2h8c1.1,0,2-0.9,2-2v-1h4.833C36.025,37,37,36.018,37,34.818v-2.647 C40.092,29.817,42,26.432,42,22.133z"/><path fill="#fff" d="M20.25,38h1.5c0.138,0,0.25,0.112,0.25,0.25v1.5c0,0.138-0.112,0.25-0.25,0.25h-1.5 C20.112,40,20,39.888,20,39.75v-1.5C20,38.112,20.112,38,20.25,38z M26.25,38h1.5c0.138,0,0.25,0.112,0.25,0.25v1.5 c0,0.138-0.112,0.25-0.25,0.25h-1.5C26.112,40,26,39.888,26,39.75v-1.5C26,38.112,26.112,38,26.25,38z M23.25,38h1.5 c0.138,0,0.25,0.112,0.25,0.25v1.5c0,0.138-0.112,0.25-0.25,0.25h-1.5C23.112,40,23,39.888,23,39.75v-1.5 C23,38.112,23.112,38,23.25,38z"/><path fill="#fff" d="M20.25,41h1.5c0.138,0,0.25,0.112,0.25,0.25v1.5c0,0.138-0.112,0.25-0.25,0.25h-1.5 C20.112,43,20,42.888,20,42.75v-1.5C20,41.112,20.112,41,20.25,41z"/><path fill="#fff" d="M26.25,41h1.5c0.138,0,0.25,0.112,0.25,0.25v1.5c0,0.138-0.112,0.25-0.25,0.25h-1.5 C26.112,43,26,42.888,26,42.75v-1.5C26,41.112,26.112,41,26.25,41z"/><path fill="#fff" d="M23.25,41h1.5c0.138,0,0.25,0.112,0.25,0.25v1.5c0,0.138-0.112,0.25-0.25,0.25h-1.5 C23.112,43,23,42.888,23,42.75v-1.5C23,41.112,23.112,41,23.25,41z"/><g><radialGradient id="kcBglfOnJULGB_mCTzH8vc" cx="377.929" cy="-116.938" r="2.063" gradientTransform="translate(-977.81 339.333) scale(2.6667)" gradientUnits="userSpaceOnUse"><stop offset="0"/><stop offset="1" stop-opacity="0"/></radialGradient><circle cx="30" cy="27.5" r="5.5" fill="url(#kcBglfOnJULGB_mCTzH8vc)" opacity=".3"/><radialGradient id="kcBglfOnJULGB_mCTzH8vd" cx="373.429" cy="-116.938" r="2.063" gradientTransform="translate(-977.81 339.333) scale(2.6667)" gradientUnits="userSpaceOnUse"><stop offset="0"/><stop offset="1" stop-opacity="0"/></radialGradient><circle cx="18" cy="27.5" r="5.5" fill="url(#kcBglfOnJULGB_mCTzH8vd)" opacity=".3"/></g><g><path d="M25.8,37c-0.53,0-1.237-0.139-1.848-0.729C23.44,36.745,22.834,37,22.2,37c-1.041,0-2.2-0.904-2.2-2.2 c0-1.982,2.04-5.428,3.804-5.78L24,28.98l0.196,0.039C25.96,29.372,28,32.818,28,34.8C28,36.075,27.075,37,25.8,37z M23.987,34.657l0.391,0.574C24.726,35.741,25.205,36,25.8,36c0.729,0,1.2-0.471,1.2-1.2c0-1.648-1.822-4.564-3-4.8h0 c-1.177,0.235-3,3.151-3,4.8c0,0.788,0.781,1.2,1.2,1.2c0.633,0,1.093-0.43,1.367-0.79L23.987,34.657z" opacity=".05"/><path d="M25.8,36.5c-0.572,0-1.293-0.193-1.834-0.987C23.542,36.069,22.945,36.5,22.2,36.5c-0.71,0-1.7-0.647-1.7-1.7 c0-1.751,1.9-4.99,3.402-5.29L24,29.49l0.098,0.02c1.501,0.3,3.402,3.539,3.402,5.29C27.5,35.801,26.801,36.5,25.8,36.5z M24.043,32.988l0.431,1.294c0.364,1.092,0.931,1.218,1.326,1.218c0.445,0,0.7-0.255,0.7-0.7c0-1.395-1.621-3.941-2.5-4.28 c-0.879,0.339-2.5,2.885-2.5,4.28c0,0.428,0.492,0.7,0.7,0.7c0.813,0,1.285-1.118,1.335-1.246L24.043,32.988z" opacity=".07"/></g><g><linearGradient id="kcBglfOnJULGB_mCTzH8ve" x1="14" x2="34" y1="29.5" y2="29.5" gradientUnits="userSpaceOnUse"><stop offset="0" stop-color="#5e5e5e"/><stop offset="1" stop-color="#545454"/></linearGradient><path fill="url(#kcBglfOnJULGB_mCTzH8ve)" d="M24,30c-1.2,0.24-3,3.24-3,4.8c0,0.72,0.72,1.2,1.2,1.2c0.96,0,1.56-0.96,1.8-1.56 c0.24,0.72,0.72,1.56,1.8,1.56c0.72,0,1.2-0.48,1.2-1.2C27,33.24,25.2,30.24,24,30z M30,23c-2.209,0-4,1.791-4,4s1.791,4,4,4 s4-1.791,4-4S32.209,23,30,23z M18,23c-2.209,0-4,1.791-4,4s1.791,4,4,4s4-1.791,4-4S20.209,23,18,23z"/></g></svg>