<svg xmlns="http://www.w3.org/2000/svg" viewBox="0 0 48 48"><rect width="12" height="2" x="26" y="6" fill="#58646e"/><linearGradient id="sdnX1VRf3OmBiqvSv37LTa" x1="20.5" x2="20.5" y1="6" y2="17.2" gradientUnits="userSpaceOnUse"><stop offset="0" stop-color="#889097"/><stop offset="1" stop-color="#64717c"/></linearGradient><path fill="url(#sdnX1VRf3OmBiqvSv37LTa)" d="M27,9c0.542,0,1,0.458,1,1v4.171l-14.042-0.134l2.483-4.515C16.57,9.284,16.823,9,17.3,9H27 M27,6h-9.7c-1.5,0-2.8,0.8-3.5,2.1l-3.3,6L10,17l21,0.2V10C31,7.8,29.2,6,27,6L27,6z"/><linearGradient id="sdnX1VRf3OmBiqvSv37LTb" x1="18" x2="18" y1="14.206" y2="39.918" gradientUnits="userSpaceOnUse"><stop offset="0" stop-color="#889097"/><stop offset="1" stop-color="#64717c"/></linearGradient><path fill="url(#sdnX1VRf3OmBiqvSv37LTb)" d="M33,40H3c-1.1,0-2-0.9-2-2V16c0-1.1,0.9-2,2-2h30c1.1,0,2,0.9,2,2v22C35,39.1,34.1,40,33,40z"/><linearGradient id="sdnX1VRf3OmBiqvSv37LTc" x1="35.521" x2="43.429" y1="27" y2="27" gradientUnits="userSpaceOnUse"><stop offset="0" stop-color="#889097"/><stop offset="1" stop-color="#64717c"/></linearGradient><path fill="url(#sdnX1VRf3OmBiqvSv37LTc)" d="M39,33l4.414,4.414C43.789,37.789,44.298,38,44.828,38H46V16h-1.172 c-0.53,0-1.039,0.211-1.414,0.586L39,21V33z"/><linearGradient id="sdnX1VRf3OmBiqvSv37LTd" x1="45.5" x2="45.5" y1="15.83" y2="38.197" gradientUnits="userSpaceOnUse"><stop offset="0" stop-color="#889097"/><stop offset="1" stop-color="#64717c"/></linearGradient><path fill="url(#sdnX1VRf3OmBiqvSv37LTd)" d="M45,38h1c0.552,0,1-0.448,1-1V17c0-0.552-0.448-1-1-1h-1c-0.552,0-1,0.448-1,1v20 C44,37.552,44.448,38,45,38z"/><rect width="4" height="12" x="35" y="21" fill="#58646e"/><linearGradient id="sdnX1VRf3OmBiqvSv37LTe" x1="38.333" x2="38.333" y1="5.056" y2="9.037" gradientUnits="userSpaceOnUse"><stop offset="0" stop-color="#889097"/><stop offset="1" stop-color="#64717c"/></linearGradient><path fill="url(#sdnX1VRf3OmBiqvSv37LTe)" d="M39,9h-2.667c-0.4,0-0.667-0.267-0.667-0.667V5.667c0-0.4,0.267-0.667,0.667-0.667H39 c1.133,0,2,0.867,2,2l0,0C41,8.133,40.133,9,39,9z"/><linearGradient id="sdnX1VRf3OmBiqvSv37LTf" x1="16" x2="16" y1="13.963" y2="40.055" gradientUnits="userSpaceOnUse"><stop offset="0" stop-color="#9ea7b0"/><stop offset="1" stop-color="#6f7d8a"/></linearGradient><path fill="url(#sdnX1VRf3OmBiqvSv37LTf)" d="M23,36H9c-2.209,0-4-1.791-4-4V22c0-2.209,1.791-4,4-4h14c2.209,0,4,1.791,4,4v10 C27,34.209,25.209,36,23,36z"/><radialGradient id="sdnX1VRf3OmBiqvSv37LTg" cx="28.239" cy="31.852" r="10.473" gradientUnits="userSpaceOnUse"><stop offset="0" stop-color="#bd8af5"/><stop offset=".137" stop-color="#b88bf5"/><stop offset=".309" stop-color="#a88ff3"/><stop offset=".499" stop-color="#8f96f2"/><stop offset=".702" stop-color="#6b9eef"/><stop offset=".913" stop-color="#3eaaec"/><stop offset="1" stop-color="#29afea"/></radialGradient><path fill="url(#sdnX1VRf3OmBiqvSv37LTg)" d="M23,20H9c-1.105,0-2,0.895-2,2v9c0,1.657,1.343,3,3,3h12.548C23.902,34,25,32.902,25,31.548	V22C25,20.895,24.105,20,23,20z"/><path fill="#436dcd" d="M25,31.488l-5.38-5.38c-0.578-0.578-1.511-0.59-2.104-0.028L13,30.357V34h10c1.105,0,2-0.895,2-2	V31.488z"/><linearGradient id="sdnX1VRf3OmBiqvSv37LTh" x1="15" x2="15" y1="24.16" y2="34.171" gradientUnits="userSpaceOnUse"><stop offset="0" stop-color="#124787"/><stop offset=".923" stop-color="#173b75"/><stop offset="1" stop-color="#173a73"/></linearGradient><path fill="url(#sdnX1VRf3OmBiqvSv37LTh)" d="M23,34l-9.279-9.279c-0.705-0.705-1.843-0.72-2.567-0.035L7,28.622V32c0,1.105,0.895,2,2,2H23	z"/><circle cx="21" cy="23" r="1" fill="#fff"/></svg>