<svg xmlns="http://www.w3.org/2000/svg" data-name="Слой 1" viewBox="0 0 48 48"><defs><linearGradient id="mtu76gEyKgwr10Lvr4LLia" x1="24" x2="24" y1="-9.118" y2="52.471" gradientUnits="userSpaceOnUse"><stop offset="0" stop-color="#ffcf7b"/><stop offset=".196" stop-color="#fecd76"/><stop offset=".439" stop-color="#fac666"/><stop offset=".709" stop-color="#f3bc4d"/><stop offset=".995" stop-color="#eaad2a"/><stop offset="1" stop-color="#eaad29"/></linearGradient><linearGradient id="mtu76gEyKgwr10Lvr4LLib" x1="24" x2="24" y1="-5.059" y2="17.984" gradientUnits="userSpaceOnUse"><stop offset="0" stop-color="#d4943b"/><stop offset="1" stop-color="#c2620e"/></linearGradient><linearGradient id="mtu76gEyKgwr10Lvr4LLic" x1="24" x2="24" y1="23.412" y2="57.824" data-name="Безымянный градиент 75" gradientUnits="userSpaceOnUse"><stop offset="0" stop-color="#f9f9f9"/><stop offset="1" stop-color="#c2c8cc"/></linearGradient><linearGradient id="mtu76gEyKgwr10Lvr4LLid" x1="25" x2="27" y1="28" y2="28" data-name="Безымянный градиент 5" gradientUnits="userSpaceOnUse"><stop offset="0" stop-color="#4c4c4c"/><stop offset="1" stop-color="#343434"/></linearGradient></defs><path fill="url(#mtu76gEyKgwr10Lvr4LLia)" d="M40,43H8a1.99945,1.99945,0,0,1-2-2V20L24,3,42,20V41A1.99945,1.99945,0,0,1,40,43Z"/><path fill="url(#mtu76gEyKgwr10Lvr4LLib)" d="M44.495,19.507,25.326,2.503a1.99929,1.99929,0,0,0-2.652,0L3.505,19.507a.99869.99869,0,0,0-.064,1.43l1.636,1.745a.9995.9995,0,0,0,1.39.067L24,7.428,41.533,22.75a1.0005,1.0005,0,0,0,1.39-.067l1.636-1.745A.99983.99983,0,0,0,44.495,19.507Z"/><g opacity=".05"><path d="M28.5,27l3.25671,1.52567a.584.584,0,0,1,0,.94866L28.5,31V27m-1-1.57275v7.1455l1.42419-.6672,3.25672-1.52567a1.57185,1.57185,0,0,0-.00006-2.75979l-3.25666-1.52564L27.5,25.42725Z"/><path d="M26.5,18A1.5,1.5,0,0,1,28,19.5V25H21V21.5a1.49544,1.49544,0,0,1,2.05774-1.39026,1.488,1.488,0,0,1,2-1A1.496,1.496,0,0,1,26.5,18m0-1a2.49656,2.49656,0,0,0-1.99335,1H24.5a2.49656,2.49656,0,0,0-1.99335,1H22.5A2.50284,2.50284,0,0,0,20,21.5V26h9V19.5A2.50284,2.50284,0,0,0,26.5,17Z"/><path d="M23.99908,22.00244A4.54053,4.54053,0,0,1,28.5,25.96613l1.17,9.4c.1.8.27,1.82391.33,2.63391H18c.32-2.59,1.15-9.20392,1.49-11.91388a4.6027,4.6027,0,0,1,3.53-3.98,4.71951,4.71951,0,0,1,.97906-.10364m.00007-1h-.00007a5.73316,5.73316,0,0,0-1.18634.12537,5.58232,5.58232,0,0,0-4.31512,4.8349l-.05231.41687C18.079,29.3,17.31219,35.41177,17.00757,37.87738L16.86884,39H31.07678l-.07953-1.07388c-.0429-.57968-.13476-1.23249-.22357-1.86377-.04034-.28684-.07953-.56519-.11145-.82035l-1.16992-9.39938a5.551,5.551,0,0,0-5.49316-4.84018Z"/><path d="M26,27a1,1,0,1,1-1,1,1,1,0,0,1,1-1m0-1a2,2,0,1,0,2,2,2.00228,2.00228,0,0,0-2-2Z"/></g><g opacity=".07"><path d="M28.5,27l3.25671,1.52567a.584.584,0,0,1,0,.94866L28.5,31V27m-.5-.78638v5.57276l.7121-.33359,3.25671-1.52567a1.07468,1.07468,0,0,0,0-1.85424L28.7121,26.54721,28,26.21362Z"/><path d="M26.5,18A1.5,1.5,0,0,1,28,19.5V25H21V21.5a1.49544,1.49544,0,0,1,2.05774-1.39026,1.488,1.488,0,0,1,2-1A1.496,1.496,0,0,1,26.5,18m0-.5a1.9983,1.9983,0,0,0-1.736,1.01794A1.95358,1.95358,0,0,0,24.5,18.5a1.9983,1.9983,0,0,0-1.736,1.01794A1.95358,1.95358,0,0,0,22.5,19.5a2.00228,2.00228,0,0,0-2,2v4h8v-6a2.00228,2.00228,0,0,0-2-2Z"/><path d="M23.99908,22.00244A4.54053,4.54053,0,0,1,28.5,25.96613l1.17,9.4c.1.8.27,1.82391.33,2.63391H18c.32-2.59,1.15-9.20392,1.49-11.91388a4.6027,4.6027,0,0,1,3.53-3.98,4.71951,4.71951,0,0,1,.97906-.10364m.00007-.5h0a5.235,5.235,0,0,0-1.08277.1145,5.08258,5.08258,0,0,0-3.92254,4.40747l-.05237.41739c-.3664,2.92017-1.13306,9.0315-1.43769,11.49689L17.43445,38.5H30.53839l-.03973-.537c-.04175-.56323-.13239-1.20776-.2201-1.831-.04071-.28949-.08026-.57044-.11242-.82794l-1.17-9.39969a5.04949,5.04949,0,0,0-4.997-4.40192Z"/><path d="M26,27a1,1,0,1,1-1,1,1,1,0,0,1,1-1m0-.5A1.5,1.5,0,1,0,27.5,28,1.50172,1.50172,0,0,0,26,26.5Z"/></g><path fill="#bd8215" d="M28.5,27v4l3.25673-1.52566a.58408.58408,0,0,0,0-.94868Z"/><path fill="#b31523" d="M26.5,18a1.496,1.496,0,0,0-1.44226,1.10974,1.488,1.488,0,0,0-2,1A1.49544,1.49544,0,0,0,21,21.5V25h7V19.5A1.5,1.5,0,0,0,26.5,18Z"/><path fill="url(#mtu76gEyKgwr10Lvr4LLic)" d="M30,38H18c.32-2.59,1.15-9.20392,1.49-11.91388a4.6027,4.6027,0,0,1,3.53-3.98,4.54394,4.54394,0,0,1,5.48,3.86005l1.17,9.4C29.77,36.16608,29.94,37.19,30,38Z"/><circle cx="26" cy="28" r="1" fill="url(#mtu76gEyKgwr10Lvr4LLid)"/><g><path d="M41.53,22.75,24,7.43,6.47,22.75a.98744.98744,0,0,1-.47.23v1a1.94356,1.94356,0,0,0,1.13-.48L24,8.76,40.87,23.5a1.94356,1.94356,0,0,0,1.13.48v-1A.98744.98744,0,0,1,41.53,22.75Z" opacity=".05"/><path d="M41.53,22.75,24,7.43,6.47,22.75a.98744.98744,0,0,1-.47.23v.51a1.47631,1.47631,0,0,0,.8-.37L24,8.09,41.2,23.13a1.5363,1.5363,0,0,0,.8.36v-.51A.98744.98744,0,0,1,41.53,22.75Z" opacity=".07"/></g></svg>