<svg xmlns="http://www.w3.org/2000/svg" viewBox="0 0 48 48"><linearGradient id="eoEjreh6~807Ho4GQcTuba" x1="24" x2="24" y1="39.883" y2="11.055" gradientUnits="userSpaceOnUse"><stop offset="0" stop-color="#45494d"/><stop offset="1" stop-color="#6d7479"/></linearGradient><path fill="url(#eoEjreh6~807Ho4GQcTuba)" d="M42,35c0,0-3,8-18,8S6,35,6,35s5.576-2,18-2S42,35,42,35z"/><linearGradient id="eoEjreh6~807Ho4GQcTubb" x1="6" x2="42" y1="33" y2="33" gradientUnits="userSpaceOnUse"><stop offset="0" stop-color="#fede00"/><stop offset="1" stop-color="#ffd000"/></linearGradient><rect width="36" height="4" x="6" y="31" fill="url(#eoEjreh6~807Ho4GQcTubb)"/><linearGradient id="eoEjreh6~807Ho4GQcTubc" x1="24" x2="24" y1="36.235" y2="28.84" gradientUnits="userSpaceOnUse"><stop offset=".002" stop-color="#427fdb"/><stop offset=".397" stop-color="#2668cb"/><stop offset=".763" stop-color="#1358bf"/><stop offset="1" stop-color="#0c52bb"/></linearGradient><rect width="36" height="4" x="6" y="28" fill="url(#eoEjreh6~807Ho4GQcTubc)"/><linearGradient id="eoEjreh6~807Ho4GQcTubd" x1="24" x2="24" y1="7.392" y2="27.599" gradientUnits="userSpaceOnUse"><stop offset="0" stop-color="#2aa4f4"/><stop offset="1" stop-color="#007ad9"/></linearGradient><path fill="url(#eoEjreh6~807Ho4GQcTubd)" d="M46.141,18.476C42.296,14.095,28.028,6,24,6S5.796,14.095,1.859,18.476	c-2.472,2.571-1.831,4.667-1.648,5.238C1,26,6,28,6,28h36c0,0,5-2,5.789-4.286C47.972,23.143,48.613,21.048,46.141,18.476z"/><linearGradient id="eoEjreh6~807Ho4GQcTube" x1="24.134" x2="24.134" y1="19" y2="24.1" gradientUnits="userSpaceOnUse"><stop offset="0" stop-color="#fede00"/><stop offset="1" stop-color="#ffd000"/></linearGradient><path fill="url(#eoEjreh6~807Ho4GQcTube)" d="M25.431,22.7L25.431,22.7c0,0.808-0.612,1.412-1.425,1.4c-0.774-0.012-1.375-0.695-1.375-1.47	V22.6c-1.271-0.848-2.902-1.767-6.475-1.723c-0.543,0.007-0.72-0.723-0.228-0.952C16.944,19.451,18.249,19,19.531,19	c2.6,0,4.5,2,4.5,2s1.9-2,4.5-2c1.376,0,2.778,0.519,3.822,1.029c0.47,0.229,0.302,0.939-0.221,0.946	C28.039,21.024,26.658,21.824,25.431,22.7z"/></svg>