<svg xmlns="http://www.w3.org/2000/svg" baseProfile="basic" viewBox="0 0 48 48"><linearGradient id="eBdfLkTgzx_XFwieiPZNra" x1="21.59" x2="26.012" y1="8.016" y2="40.86" gradientUnits="userSpaceOnUse"><stop offset="0" stop-color="#32bdef"/><stop offset="1" stop-color="#1ea2e4"/></linearGradient><path fill="url(#eBdfLkTgzx_XFwieiPZNra)" d="M35,40H13c-1.105,0-2-0.895-2-2V10c0-1.105,0.895-2,2-2h18.172	c0.53,0,1.039,0.211,1.414,0.586l3.828,3.828C36.789,12.789,37,13.298,37,13.828V38C37,39.105,36.105,40,35,40z"/><linearGradient id="eBdfLkTgzx_XFwieiPZNrb" x1="21.193" x2="26.812" y1="14.389" y2="36.633" gradientUnits="userSpaceOnUse"><stop offset="0" stop-color="#ffcf7b"/><stop offset=".195" stop-color="#fecd76"/><stop offset=".439" stop-color="#fac666"/><stop offset=".71" stop-color="#f3bc4d"/><stop offset=".997" stop-color="#eaad29"/><stop offset="1" stop-color="#eaad29"/></linearGradient><path fill="url(#eBdfLkTgzx_XFwieiPZNrb)" d="M31,36H17c-1.105,0-2-0.895-2-2V17c0-1.105,0.895-2,2-2h14c1.105,0,2,0.895,2,2v17	C33,35.105,32.105,36,31,36z"/><path fill="#de8d37" d="M29,21v-6h-2v6h-2v-6h-2v6h-1c-0.552,0-1-0.449-1-1v-5h-2v5c0,1.654,1.346,3,3,3h11v-2H29z"/><path fill="#de8d37" d="M20,26c0-1.103-0.897-2-2-2h-3v2h3v10h2v-5h3v5h2v-5h2v5h2v-5h4v-2H20V26z"/></svg>