<svg xmlns="http://www.w3.org/2000/svg" id="Layer_1" x="0" y="0" version="1.1" viewBox="0 0 48 48" xml:space="preserve"><path fill="#50e6ff" d="M37,5H11C9.9,5,9,5.9,9,7v34c0,1.1,0.9,2,2,2h26c1.1,0,2-0.9,2-2V7C39,5.9,38.1,5,37,5z"/><path fill="#35c1f1" d="M19,17.5h-5c-0.6,0-1-0.4-1-1v-5c0-0.6,0.4-1,1-1h5c0.6,0,1,0.4,1,1v5C20,17.1,19.6,17.5,19,17.5z M15,15.5 h3v-3h-3V15.5z"/><path fill="#35c1f1" d="M24,17.5h-5c-0.6,0-1-0.4-1-1v-5c0-0.6,0.4-1,1-1h5c0.6,0,1,0.4,1,1v5C25,17.1,24.6,17.5,24,17.5z M20,15.5 h3v-3h-3V15.5z"/><path fill="#35c1f1" d="M29,17.5h-5c-0.6,0-1-0.4-1-1v-5c0-0.6,0.4-1,1-1h5c0.6,0,1,0.4,1,1v5C30,17.1,29.6,17.5,29,17.5z M25,15.5 h3v-3h-3V15.5z"/><path fill="#35c1f1" d="M34,17.5h-5c-0.6,0-1-0.4-1-1v-5c0-0.6,0.4-1,1-1h5c0.6,0,1,0.4,1,1v5C35,17.1,34.6,17.5,34,17.5z M30,15.5 h3v-3h-3V15.5z"/><path fill="#35c1f1" d="M19,22.5h-5c-0.6,0-1-0.4-1-1v-5c0-0.6,0.4-1,1-1h5c0.6,0,1,0.4,1,1v5C20,22.1,19.6,22.5,19,22.5z M15,20.5 h3v-3h-3V20.5z"/><path fill="#35c1f1" d="M24,22.5h-5c-0.6,0-1-0.4-1-1v-5c0-0.6,0.4-1,1-1h5c0.6,0,1,0.4,1,1v5C25,22.1,24.6,22.5,24,22.5z M20,20.5 h3v-3h-3V20.5z"/><path fill="#35c1f1" d="M29,22.5h-5c-0.6,0-1-0.4-1-1v-5c0-0.6,0.4-1,1-1h5c0.6,0,1,0.4,1,1v5C30,22.1,29.6,22.5,29,22.5z M25,20.5 h3v-3h-3V20.5z"/><path fill="#35c1f1" d="M34,22.5h-5c-0.6,0-1-0.4-1-1v-5c0-0.6,0.4-1,1-1h5c0.6,0,1,0.4,1,1v5C35,22.1,34.6,22.5,34,22.5z M30,20.5 h3v-3h-3V20.5z"/><g><path fill="#35c1f1" d="M19,27.5h-5c-0.6,0-1-0.4-1-1v-5c0-0.6,0.4-1,1-1h5c0.6,0,1,0.4,1,1v5C20,27.1,19.6,27.5,19,27.5z M15,25.5 h3v-3h-3V25.5z"/><path fill="#35c1f1" d="M24,27.5h-5c-0.6,0-1-0.4-1-1v-5c0-0.6,0.4-1,1-1h5c0.6,0,1,0.4,1,1v5C25,27.1,24.6,27.5,24,27.5z M20,25.5 h3v-3h-3V25.5z"/><path fill="#35c1f1" d="M29,27.5h-5c-0.6,0-1-0.4-1-1v-5c0-0.6,0.4-1,1-1h5c0.6,0,1,0.4,1,1v5C30,27.1,29.6,27.5,29,27.5z M25,25.5 h3v-3h-3V25.5z"/><path fill="#35c1f1" d="M34,27.5h-5c-0.6,0-1-0.4-1-1v-5c0-0.6,0.4-1,1-1h5c0.6,0,1,0.4,1,1v5C35,27.1,34.6,27.5,34,27.5z M30,25.5 h3v-3h-3V25.5z"/></g><g><path fill="#35c1f1" d="M19,32.5h-5c-0.6,0-1-0.4-1-1v-5c0-0.6,0.4-1,1-1h5c0.6,0,1,0.4,1,1v5C20,32.1,19.6,32.5,19,32.5z M15,30.5 h3v-3h-3V30.5z"/><path fill="#35c1f1" d="M24,32.5h-5c-0.6,0-1-0.4-1-1v-5c0-0.6,0.4-1,1-1h5c0.6,0,1,0.4,1,1v5C25,32.1,24.6,32.5,24,32.5z M20,30.5 h3v-3h-3V30.5z"/><path fill="#35c1f1" d="M29,32.5h-5c-0.6,0-1-0.4-1-1v-5c0-0.6,0.4-1,1-1h5c0.6,0,1,0.4,1,1v5C30,32.1,29.6,32.5,29,32.5z M25,30.5 h3v-3h-3V30.5z"/><path fill="#35c1f1" d="M34,32.5h-5c-0.6,0-1-0.4-1-1v-5c0-0.6,0.4-1,1-1h5c0.6,0,1,0.4,1,1v5C35,32.1,34.6,32.5,34,32.5z M30,30.5 h3v-3h-3V30.5z"/></g><g><path fill="#35c1f1" d="M19,37.5h-5c-0.6,0-1-0.4-1-1v-5c0-0.6,0.4-1,1-1h5c0.6,0,1,0.4,1,1v5C20,37.1,19.6,37.5,19,37.5z M15,35.5 h3v-3h-3V35.5z"/><path fill="#35c1f1" d="M24,37.5h-5c-0.6,0-1-0.4-1-1v-5c0-0.6,0.4-1,1-1h5c0.6,0,1,0.4,1,1v5C25,37.1,24.6,37.5,24,37.5z M20,35.5 h3v-3h-3V35.5z"/><path fill="#35c1f1" d="M29,37.5h-5c-0.6,0-1-0.4-1-1v-5c0-0.6,0.4-1,1-1h5c0.6,0,1,0.4,1,1v5C30,37.1,29.6,37.5,29,37.5z M25,35.5 h3v-3h-3V35.5z"/><path fill="#35c1f1" d="M34,37.5h-5c-0.6,0-1-0.4-1-1v-5c0-0.6,0.4-1,1-1h5c0.6,0,1,0.4,1,1v5C35,37.1,34.6,37.5,34,37.5z M30,35.5 h3v-3h-3V35.5z"/></g></svg>