<svg xmlns="http://www.w3.org/2000/svg" xmlns:xlink="http://www.w3.org/1999/xlink" data-name="Слой 1" viewBox="0 0 48 48"><defs><linearGradient id="rvq_DI9m6fMIEngGmIY1Ha" x1="19.43" x2="26.544" y1="-.503" y2="19.04" data-name="Безымянный градиент 100" gradientUnits="userSpaceOnUse"><stop offset="0" stop-color="#21ad64"/><stop offset="1" stop-color="#088242"/></linearGradient><linearGradient id="rvq_DI9m6fMIEngGmIY1Hb" x1="24" x2="24" y1="11.891" y2="38.68" data-name="Безымянный градиент 107" gradientUnits="userSpaceOnUse"><stop offset="0" stop-color="#eba600"/><stop offset="1" stop-color="#c28200"/></linearGradient><linearGradient id="rvq_DI9m6fMIEngGmIY1Hc" x1="18.117" x2="29.967" y1="21.087" y2="53.645" data-name="Безымянный градиент 9" gradientUnits="userSpaceOnUse"><stop offset="0" stop-color="#ffcf54"/><stop offset=".261" stop-color="#fdcb4d"/><stop offset=".639" stop-color="#f7c13a"/><stop offset="1" stop-color="#f0b421"/></linearGradient><linearGradient id="rvq_DI9m6fMIEngGmIY1Hd" x1="24" x2="24" y1="10.196" y2="38.03" xlink:href="#rvq_DI9m6fMIEngGmIY1Ha"/></defs><path fill="url(#rvq_DI9m6fMIEngGmIY1Ha)" d="M32,12c0-4.41828-4-8-8-10-4,2-8,5.58172-8,10a8,8,0,0,0,16,0Z"/><rect width="16" height="16" x="16" y="12" fill="url(#rvq_DI9m6fMIEngGmIY1Hb)"/><polygon fill="url(#rvq_DI9m6fMIEngGmIY1Hc)" points="39 30.5 24 22 9 30.5 9 44 39 44 39 30.5"/><path fill="url(#rvq_DI9m6fMIEngGmIY1Hd)" d="M39.074,31.62645,24,23.14746l-15.074,8.479a.5.5,0,0,1-.68092-.19067l-.49023-.87158a.5.5,0,0,1,.19066-.68091l15.56419-8.755a1,1,0,0,1,.98054,0l15.56419,8.755a.5.5,0,0,1,.19066.68091l-.49023.87158A.5.5,0,0,1,39.074,31.62645Z"/><path fill="#c28200" d="M24,32h0a4,4,0,0,1,4,4v8a0,0,0,0,1,0,0H20a0,0,0,0,1,0,0V36A4,4,0,0,1,24,32Z"/><path fill="#c28200" d="M14,34h0a1,1,0,0,1,1,1v4a0,0,0,0,1,0,0H13a0,0,0,0,1,0,0V35A1,1,0,0,1,14,34Z"/><path fill="#c28200" d="M34,34h0a1,1,0,0,1,1,1v4a0,0,0,0,1,0,0H33a0,0,0,0,1,0,0V35A1,1,0,0,1,34,34Z"/><path fill="#c28200" d="M24,14h0a1,1,0,0,1,1,1v4a0,0,0,0,1,0,0H23a0,0,0,0,1,0,0V15A1,1,0,0,1,24,14Z"/><path fill="#c28200" d="M28,14h0a1,1,0,0,1,1,1v4a0,0,0,0,1,0,0H27a0,0,0,0,1,0,0V15A1,1,0,0,1,28,14Z"/><path fill="#c28200" d="M20,14h0a1,1,0,0,1,1,1v4a0,0,0,0,1,0,0H19a0,0,0,0,1,0,0V15A1,1,0,0,1,20,14Z"/><path d="M24,23.15,9,31.59v1.06a1.49957,1.49957,0,0,0,.42-.15L24,24.29,38.58,32.5a1.49957,1.49957,0,0,0,.42.15V31.59Z" opacity=".05"/><path d="M24,23.15,9,31.59v.54a.50972.50972,0,0,0,.17-.07L24,23.72l14.83,8.34a.50972.50972,0,0,0,.17.07v-.54Z" opacity=".07"/></svg>