<svg xmlns="http://www.w3.org/2000/svg" viewBox="0 0 48 48"><linearGradient id="syR_uMKsR596_fk2MNDsAa" x1="4.215" x2="7.629" y1="8.215" y2="11.629" gradientUnits="userSpaceOnUse"><stop offset="0" stop-color="#1d59b3"/><stop offset="1" stop-color="#195bbc"/></linearGradient><path fill="url(#syR_uMKsR596_fk2MNDsAa)" d="M7,12H5c-0.552,0-1-0.448-1-1V9c0-0.552,0.448-1,1-1h2c0.552,0,1,0.448,1,1v2	C8,11.552,7.552,12,7,12z"/><linearGradient id="syR_uMKsR596_fk2MNDsAb" x1="18.134" x2="36.048" y1=".633" y2="18.548" gradientUnits="userSpaceOnUse"><stop offset=".003" stop-color="#42a3f2"/><stop offset="1" stop-color="#42a4eb"/></linearGradient><path fill="url(#syR_uMKsR596_fk2MNDsAb)" d="M43,12H12c-0.552,0-1-0.448-1-1V9c0-0.552,0.448-1,1-1h31c0.552,0,1,0.448,1,1v2	C44,11.552,43.552,12,43,12z"/><linearGradient id="syR_uMKsR596_fk2MNDsAc" x1="4.215" x2="7.629" y1="15.215" y2="18.629" gradientUnits="userSpaceOnUse"><stop offset="0" stop-color="#1d59b3"/><stop offset="1" stop-color="#195bbc"/></linearGradient><path fill="url(#syR_uMKsR596_fk2MNDsAc)" d="M7,19H5c-0.552,0-1-0.448-1-1v-2c0-0.552,0.448-1,1-1h2c0.552,0,1,0.448,1,1v2	C8,18.552,7.552,19,7,19z"/><linearGradient id="syR_uMKsR596_fk2MNDsAd" x1="16.702" x2="31.616" y1="9.202" y2="24.116" gradientUnits="userSpaceOnUse"><stop offset=".003" stop-color="#42a3f2"/><stop offset="1" stop-color="#42a4eb"/></linearGradient><path fill="url(#syR_uMKsR596_fk2MNDsAd)" d="M37,19H12c-0.552,0-1-0.448-1-1v-2c0-0.552,0.448-1,1-1h25c0.552,0,1,0.448,1,1v2	C38,18.552,37.552,19,37,19z"/><linearGradient id="syR_uMKsR596_fk2MNDsAe" x1="4.215" x2="7.629" y1="22.215" y2="25.629" gradientUnits="userSpaceOnUse"><stop offset="0" stop-color="#1d59b3"/><stop offset="1" stop-color="#195bbc"/></linearGradient><path fill="url(#syR_uMKsR596_fk2MNDsAe)" d="M7,26H5c-0.552,0-1-0.448-1-1v-2c0-0.552,0.448-1,1-1h2c0.552,0,1,0.448,1,1v2	C8,25.552,7.552,26,7,26z"/><linearGradient id="syR_uMKsR596_fk2MNDsAf" x1="15.271" x2="27.185" y1="17.771" y2="29.685" gradientUnits="userSpaceOnUse"><stop offset=".003" stop-color="#42a3f2"/><stop offset="1" stop-color="#42a4eb"/></linearGradient><path fill="url(#syR_uMKsR596_fk2MNDsAf)" d="M31,26H12c-0.552,0-1-0.448-1-1v-2c0-0.552,0.448-1,1-1h19c0.552,0,1,0.448,1,1v2	C32,25.552,31.552,26,31,26z"/><linearGradient id="syR_uMKsR596_fk2MNDsAg" x1="4.215" x2="7.629" y1="29.215" y2="32.629" gradientUnits="userSpaceOnUse"><stop offset="0" stop-color="#1d59b3"/><stop offset="1" stop-color="#195bbc"/></linearGradient><path fill="url(#syR_uMKsR596_fk2MNDsAg)" d="M7,33H5c-0.552,0-1-0.448-1-1v-2c0-0.552,0.448-1,1-1h2c0.552,0,1,0.448,1,1v2	C8,32.552,7.552,33,7,33z"/><linearGradient id="syR_uMKsR596_fk2MNDsAh" x1="13.839" x2="22.753" y1="26.339" y2="35.253" gradientUnits="userSpaceOnUse"><stop offset=".003" stop-color="#42a3f2"/><stop offset="1" stop-color="#42a4eb"/></linearGradient><path fill="url(#syR_uMKsR596_fk2MNDsAh)" d="M25,33H12c-0.552,0-1-0.448-1-1v-2c0-0.552,0.448-1,1-1h13c0.552,0,1,0.448,1,1v2	C26,32.552,25.552,33,25,33z"/><linearGradient id="syR_uMKsR596_fk2MNDsAi" x1="4.215" x2="7.629" y1="36.215" y2="39.629" gradientUnits="userSpaceOnUse"><stop offset="0" stop-color="#1d59b3"/><stop offset="1" stop-color="#195bbc"/></linearGradient><path fill="url(#syR_uMKsR596_fk2MNDsAi)" d="M7,40H5c-0.552,0-1-0.448-1-1v-2c0-0.552,0.448-1,1-1h2c0.552,0,1,0.448,1,1v2	C8,39.552,7.552,40,7,40z"/><linearGradient id="syR_uMKsR596_fk2MNDsAj" x1="12.408" x2="18.322" y1="34.908" y2="40.822" gradientUnits="userSpaceOnUse"><stop offset=".003" stop-color="#42a3f2"/><stop offset="1" stop-color="#42a4eb"/></linearGradient><path fill="url(#syR_uMKsR596_fk2MNDsAj)" d="M19,40h-7c-0.552,0-1-0.448-1-1v-2c0-0.552,0.448-1,1-1h7c0.552,0,1,0.448,1,1v2	C20,39.552,19.552,40,19,40z"/></svg>