<svg xmlns="http://www.w3.org/2000/svg" viewBox="0 0 48 48"><linearGradient id="AmMwYzlJbuOCVFltpp_XLa" x1="8.663" x2="38.122" y1="8.059" y2="32.915" gradientUnits="userSpaceOnUse"><stop offset="0" stop-color="#a1aab3"/><stop offset="1" stop-color="#8f979e"/></linearGradient><path fill="url(#AmMwYzlJbuOCVFltpp_XLa)" d="M41,35H7c-1.105,0-2-0.895-2-2V9c0-1.105,0.895-2,2-2h34c1.105,0,2,0.895,2,2v24	C43,34.105,42.105,35,41,35z"/><linearGradient id="AmMwYzlJbuOCVFltpp_XLb" x1="22.095" x2="25.904" y1="9.102" y2="32.892" gradientUnits="userSpaceOnUse"><stop offset="0" stop-color="#0d61a9"/><stop offset="1" stop-color="#16528c"/></linearGradient><rect width="34" height="24" x="7" y="9" fill="url(#AmMwYzlJbuOCVFltpp_XLb)"/><linearGradient id="AmMwYzlJbuOCVFltpp_XLc" x1="24" x2="24" y1="34.992" y2="39.008" gradientUnits="userSpaceOnUse"><stop offset="0" stop-color="#484b4f"/><stop offset=".23" stop-color="#656d75"/><stop offset=".367" stop-color="#727d86"/></linearGradient><rect width="8" height="4" x="20" y="35" fill="url(#AmMwYzlJbuOCVFltpp_XLc)"/><linearGradient id="AmMwYzlJbuOCVFltpp_XLd" x1="24" x2="24" y1="37.992" y2="42.008" gradientUnits="userSpaceOnUse"><stop offset="0" stop-color="#a1aab3"/><stop offset="1" stop-color="#8f979e"/></linearGradient><path fill="url(#AmMwYzlJbuOCVFltpp_XLd)" d="M33,38H15c-0.552,0-1,0.448-1,1v2c0,0.552,0.448,1,1,1h18c0.552,0,1-0.448,1-1v-2	C34,38.448,33.552,38,33,38z"/><path fill="#121212" d="M35,21H13c-0.552,0-1,0.448-1,1v0c0,0.552,0.448,1,1,1h22c0.552,0,1-0.448,1-1v0	C36,21.448,35.552,21,35,21z"/><path fill="#61e3a7" d="M14,21V4c0-0.552,0.448-1,1-1h18c0.552,0,1,0.448,1,1v17H14z"/><path fill="#33c481" d="M14,21h3.294C17.105,20.366,17,19.695,17,19c0-3.866,3.134-7,7-7s7,3.134,7,7	c0,0.695-0.105,1.366-0.294,2H34V8H14V21z"/><path fill="#21a366" d="M34,23v-2H14v2H34z"/><path fill="#59d19a" d="M18.26,23h11.48c0.422-0.604,0.751-1.277,0.966-2H17.294C17.509,21.723,17.838,22.396,18.26,23z"/></svg>