<svg xmlns="http://www.w3.org/2000/svg" viewBox="0 0 48 48"><linearGradient id="_6Dg60S4aLTMSz540MYGva" x1="18.881" x2="25.206" y1="5.325" y2="35.082" gradientUnits="userSpaceOnUse"><stop offset="0" stop-color="#4caf50"/><stop offset=".486" stop-color="#4aae50"/><stop offset=".661" stop-color="#43a94e"/><stop offset=".786" stop-color="#38a14c"/><stop offset=".887" stop-color="#279648"/><stop offset=".972" stop-color="#184"/><stop offset="1" stop-color="#088242"/></linearGradient><path fill="url(#_6Dg60S4aLTMSz540MYGva)" d="M11,7h10l-1,4h3l-2,5h4l2-5h3l1-4h10l-6,26H3L11,7z"/><linearGradient id="_6Dg60S4aLTMSz540MYGvb" x1="19.618" x2="28.191" y1="4.223" y2="44.555" gradientUnits="userSpaceOnUse"><stop offset="0" stop-color="#41474a"/><stop offset="1" stop-color="#323538"/></linearGradient><path fill="url(#_6Dg60S4aLTMSz540MYGvb)" d="M40.123,6h-9.072c-0.464,0-0.867,0.319-0.973,0.77l-1,4.23h-2.115 c-0.45,0-0.845,0.301-0.964,0.735l-0.307,1.119l-4.608-6.436C20.896,6.156,20.594,6,20.271,6h-8.91 c-0.435,0-0.82,0.281-0.953,0.696L2.185,32.423c-0.113,0.355-0.02,0.743,0.242,1.008l7.895,7.976 C10.697,41.786,11.208,42,11.742,42h8.597c0.46,0,0.861-0.314,0.971-0.76l1.335-5.412l0.456,0.508 C23.481,36.759,24.022,37,24.59,37h1.728l3.504,4.269C30.202,41.732,30.769,42,31.368,42h8.737c0.476,0,0.885-0.335,0.98-0.801 l4.782-23.544c0.086-0.425,0.032-0.867-0.155-1.259L41.026,6.57C40.86,6.222,40.509,6,40.123,6z M31.333,8h8.133l-1.808,8h-3.754 l1.086-4.402c0.029-0.146-0.009-0.299-0.104-0.415C34.792,11.067,34.649,11,34.5,11h-3.908L31.333,8z M27.5,11.916V12h6.39 l-1.012,4h-6.581l1.087-3.66L27.5,11.916z M18.887,11h-7.715l0.938-3h7.688L18.887,11z M12.334,33.042H4.369L4.328,33H4.297 l3.125-10h1.915L7.52,29.362c-0.043,0.151-0.014,0.313,0.081,0.438C7.695,29.927,7.843,30,8,30h5.217L12.334,33.042z M9.52,26 h4.858l-0.871,3H8.663L9.52,26z M25.094,33l2.628-11h-2.094h-1.121l-1.352,5H17.4l1.354-5h-3.215l-0.871,3H9.806l0.675-2.362 c0.043-0.151,0.014-0.313-0.081-0.438C10.305,22.073,10.157,22,10,22H7.734l3.125-10h7.725H19h2.292l-1.354,5H25h1h11.432 l-3.615,16H25.094z"/><linearGradient id="_6Dg60S4aLTMSz540MYGvc" x1="19.456" x2="20.957" y1="26.581" y2="33.642" gradientUnits="userSpaceOnUse"><stop offset="0" stop-color="#c26715"/><stop offset="0" stop-color="#db8437"/><stop offset="1" stop-color="#cc6b2d"/></linearGradient><path fill="url(#_6Dg60S4aLTMSz540MYGvc)" d="M18.841,40l-6.507-7H4.328l6.854,7H18.841z M38.801,40l-4.985-7h-8.722l5.67,7H38.801z M23.036,33H23l1.117-4.676L23.084,27h-5.6l6.587,8.001h0.607L23.036,33z"/></svg>