<svg xmlns="http://www.w3.org/2000/svg" viewBox="0 0 48 48"><path fill="#b31523" d="M30,35c0.07,2.544,1.063,5.063,3,7s4.456,2.93,7,3L30,35z"/><path fill="#b31523" d="M18,35c-0.07,2.544-1.063,5.063-3,7s-4.456,2.93-7,3L18,35z"/><path fill="#b31523" d="M17,33c-1.96,1.855-4.594,3-7.5,3S3.96,34.855,2,33H17z"/><path fill="#d9414f" d="M35,27c2.544-0.07,5.063-1.063,7-3s2.93-4.456,3-7L35,27z"/><path fill="#b31523" d="M46,33c-1.96,1.855-4.594,3-7.5,3s-5.54-1.145-7.5-3H46z"/><path fill="#b31523" d="M29,22.972l2-5.758C30.618,16.495,29.871,16,29,16s-1.618,0.495-2,1.214L29,22.972z"/><path fill="#b31523" d="M19,22.972l-2-5.758C17.382,16.495,18.129,16,19,16s1.618,0.495,2,1.214L19,22.972z"/><path fill="#d9414f" d="M39,11c3.226,3.226,6,6,6,6s-6.425,0.877-9.651-2.349c-3.226-3.226-2.191-9.493-2.191-9.493	S35.774,7.774,39,11z"/><path fill="#eb6773" d="M42.651,7.349C45.877,10.575,45,17,45,17s-2.774-2.774-6-6s-5.842-5.842-5.842-5.842	S39.425,4.123,42.651,7.349z"/><path fill="#d9414f" d="M13,27c-2.544-0.07-5.063-1.063-7-3s-2.93-4.456-3-7L13,27z"/><path fill="#d9414f" d="M9,11c-3.226,3.226-6,6-6,6s6.425,0.877,9.651-2.349s2.191-9.493,2.191-9.493S12.226,7.774,9,11z"/><path fill="#eb6773" d="M5.349,7.349C2.123,10.575,3,17,3,17s2.774-2.774,6-6s5.842-5.842,5.842-5.842	S8.575,4.123,5.349,7.349z"/><linearGradient id="_gRVesrzu0Autqp4WeFora" x1="21.232" x2="25.928" y1="20.228" y2="37.971" gradientUnits="userSpaceOnUse"><stop offset="0" stop-color="#f44f5a"/><stop offset=".443" stop-color="#ee3d4a"/><stop offset="1" stop-color="#e52030"/></linearGradient><path fill="url(#_gRVesrzu0Autqp4WeFora)" d="M24,38c-5.807,0-10.931-2.895-14.032-7.313C11.67,24.528,17.3,20,24,20	s12.33,4.528,14.032,10.687C34.931,35.105,29.807,38,24,38z"/></svg>