<svg xmlns="http://www.w3.org/2000/svg" viewBox="0 0 48 48"><path fill="#1a9ba1" d="M7.92,6.873c0,0-0.318,3.733,1.138,6.658s5.465,8.941,7.045,7.932	c-0.744-0.986-0.245-2.096,0.315-2.637c0.363-0.351,2.067-1.961,3.219-3.049c0.64-0.604,0.791-1.563,0.368-2.335l-4.077-7.438	c-0.442-0.807-1.391-1.19-2.269-0.917L7.92,6.873z"/><path fill="#1a9ba1" d="M41.127,40.08c0,0-3.733,0.318-6.658-1.138c-2.925-1.456-8.941-5.465-7.932-7.045	c0.986,0.744,2.096,0.245,2.637-0.315c0.351-0.363,1.961-2.067,3.049-3.219c0.604-0.64,1.563-0.791,2.335-0.368l7.438,4.077	c0.807,0.442,1.19,1.391,0.917,2.269L41.127,40.08z"/><path fill="#37c6d0" d="M20.986,27.014c5.916,5.916,12.803,10.252,20.142,13.065l-1.07,1.848	c-0.524,0.905-1.633,1.313-2.605,0.927c-7.092-2.819-13.741-7.089-19.48-12.827S7.964,17.639,5.145,10.547	C4.759,9.576,5.167,8.467,6.072,7.943l1.848-1.07C10.734,14.211,15.07,21.099,20.986,27.014z"/><path fill="#0078d4" d="M36.246,10.754c2.527,2.527,3.612,5.949,3.26,9.246h2.508c0.539,0,0.979-0.435,0.985-0.974	c0.045-3.861-1.397-7.736-4.343-10.681c-2.946-2.946-6.82-4.388-10.681-4.343C27.435,4.007,27,4.447,27,4.986v2.508	C30.297,7.141,33.719,8.226,36.246,10.754z"/><path fill="#199be2" d="M33.676,13.324c1.818,1.818,2.532,4.317,2.159,6.676h3.672c0.352-3.297-0.733-6.719-3.26-9.246	C33.719,8.226,30.297,7.141,27,7.494v3.672C29.359,10.792,31.858,11.506,33.676,13.324z"/><path fill="#35c1f1" d="M33.676,13.324c-1.818-1.818-4.317-2.532-6.676-2.159v3.717c1.403-0.435,2.995-0.099,4.106,1.012	c1.111,1.111,1.447,2.702,1.012,4.106h3.717C36.208,17.641,35.494,15.142,33.676,13.324z"/><path fill="#50e6ff" d="M27.981,20h4.136c0.435-1.403,0.099-2.995-1.012-4.106c-1.111-1.111-2.702-1.447-4.106-1.012v4.136	C27,19.561,27.439,20,27.981,20z"/></svg>