<svg xmlns="http://www.w3.org/2000/svg" viewBox="0 0 48 48"><linearGradient id="hSZWZbQ9u5UE_H6C6PR0za" x1="20.637" x2="40.22" y1="18.39" y2="45.812" gradientUnits="userSpaceOnUse"><stop offset="0" stop-color="#436dcd"/><stop offset="1" stop-color="#14427f"/></linearGradient><path fill="url(#hSZWZbQ9u5UE_H6C6PR0za)" d="M44,42H11c-1.105,0-2-0.895-2-2V16c0-1.105,0.895-2,2-2h33c1.105,0,2,0.895,2,2v24 C46,41.105,45.105,42,44,42z"/><radialGradient id="hSZWZbQ9u5UE_H6C6PR0zb" cx="33.404" cy="35.17" r="16.125" gradientTransform="matrix(1.0278 0 0 1 -.056 0)" gradientUnits="userSpaceOnUse"><stop offset="0" stop-color="#bd8af5"/><stop offset=".137" stop-color="#b88bf5"/><stop offset=".309" stop-color="#a88ff3"/><stop offset=".499" stop-color="#8f96f2"/><stop offset=".702" stop-color="#6b9eef"/><stop offset=".913" stop-color="#3eaaec"/><stop offset="1" stop-color="#29afea"/></radialGradient><path fill="url(#hSZWZbQ9u5UE_H6C6PR0zb)" d="M37,35H4c-1.105,0-2-0.895-2-2V9c0-1.105,0.895-2,2-2h33c1.105,0,2,0.895,2,2v24 C39,34.105,38.105,35,37,35z"/><path fill="#fff" d="M24.25,12h-1.5C22.336,12,22,11.664,22,11.25v-1.5C22,9.336,22.336,9,22.75,9h1.5 C24.664,9,25,9.336,25,9.75v1.5C25,11.664,24.664,12,24.25,12z"/><path fill="#fff" d="M30.25,12h-1.5C28.336,12,28,11.664,28,11.25v-1.5C28,9.336,28.336,9,28.75,9h1.5 C30.664,9,31,9.336,31,9.75v1.5C31,11.664,30.664,12,30.25,12z"/><path fill="#fff" d="M36.25,12h-1.5C34.336,12,34,11.664,34,11.25v-1.5C34,9.336,34.336,9,34.75,9h1.5 C36.664,9,37,9.336,37,9.75v1.5C37,11.664,36.664,12,36.25,12z"/><path fill="#fff" d="M12.25,12h-1.5C10.336,12,10,11.664,10,11.25v-1.5C10,9.336,10.336,9,10.75,9h1.5 C12.664,9,13,9.336,13,9.75v1.5C13,11.664,12.664,12,12.25,12z"/><path fill="#fff" d="M18.25,12h-1.5C16.336,12,16,11.664,16,11.25v-1.5C16,9.336,16.336,9,16.75,9h1.5 C18.664,9,19,9.336,19,9.75v1.5C19,11.664,18.664,12,18.25,12z"/><path fill="#fff" d="M6.25,12h-1.5C4.336,12,4,11.664,4,11.25v-1.5C4,9.336,4.336,9,4.75,9h1.5C6.664,9,7,9.336,7,9.75 v1.5C7,11.664,6.664,12,6.25,12z"/><path fill="#fff" d="M24.25,33h-1.5C22.336,33,22,32.664,22,32.25v-1.5c0-0.414,0.336-0.75,0.75-0.75h1.5 c0.414,0,0.75,0.336,0.75,0.75v1.5C25,32.664,24.664,33,24.25,33z"/><path fill="#fff" d="M30.25,33h-1.5C28.336,33,28,32.664,28,32.25v-1.5c0-0.414,0.336-0.75,0.75-0.75h1.5 c0.414,0,0.75,0.336,0.75,0.75v1.5C31,32.664,30.664,33,30.25,33z"/><path fill="#fff" d="M36.25,33h-1.5C34.336,33,34,32.664,34,32.25v-1.5c0-0.414,0.336-0.75,0.75-0.75h1.5 c0.414,0,0.75,0.336,0.75,0.75v1.5C37,32.664,36.664,33,36.25,33z"/><path fill="#fff" d="M12.25,33h-1.5C10.336,33,10,32.664,10,32.25v-1.5c0-0.414,0.336-0.75,0.75-0.75h1.5 c0.414,0,0.75,0.336,0.75,0.75v1.5C13,32.664,12.664,33,12.25,33z"/><path fill="#fff" d="M18.25,33h-1.5C16.336,33,16,32.664,16,32.25v-1.5c0-0.414,0.336-0.75,0.75-0.75h1.5 c0.414,0,0.75,0.336,0.75,0.75v1.5C19,32.664,18.664,33,18.25,33z"/><path fill="#fff" d="M6.25,33h-1.5C4.336,33,4,32.664,4,32.25v-1.5C4,30.336,4.336,30,4.75,30h1.5 C6.664,30,7,30.336,7,30.75v1.5C7,32.664,6.664,33,6.25,33z"/><path d="M25.281,19.854l-6.874-4.325c-0.494-0.31-1.113-0.325-1.613-0.043 C16.297,15.761,16,16.259,16,16.819v8.647c0,0.561,0.297,1.06,0.795,1.334C17.031,26.932,17.297,27,17.564,27 c0.3,0,0.592-0.084,0.844-0.244l6.874-4.324C25.731,22.148,26,21.667,26,21.142C26,20.617,25.73,20.136,25.281,19.854z" opacity=".05"/><path d="M25.015,20.278l-6.873-4.325c-0.335-0.21-0.76-0.224-1.106-0.029 C16.7,16.109,16.5,16.444,16.5,16.819v8.647c0,0.376,0.201,0.711,0.537,0.896c0.165,0.091,0.346,0.137,0.528,0.137 c0.201,0,0.402-0.056,0.578-0.167l6.873-4.324c0.304-0.191,0.484-0.516,0.484-0.866C25.5,20.791,25.318,20.468,25.015,20.278z" opacity=".07"/><path fill="#fff" d="M17,25.467V16.82c0-0.425,0.502-0.678,0.876-0.442l6.873,4.324c0.335,0.21,0.335,0.674,0,0.885 l-6.873,4.324C17.502,26.146,17,25.892,17,25.467z"/></svg>