<svg xmlns="http://www.w3.org/2000/svg" viewBox="0 0 48 48"><linearGradient id="McOMTfiYL3bOztJQDCSGka" x1="24" x2="24" y1="1.993" y2="7.005" gradientUnits="userSpaceOnUse"><stop offset="0" stop-color="#fede00"/><stop offset="1" stop-color="#ffd000"/></linearGradient><path fill="url(#McOMTfiYL3bOztJQDCSGka)" d="M27,7h-6V5c0-1.657,1.343-3,3-3h0c1.657,0,3,1.343,3,3V7z"/><path fill="#f5be00" d="M39,21c0-8.284-6.716-15-15-15S9,12.716,9,21c0,0.39,0,13,0,13h30C39,34,39,21.39,39,21z"/><linearGradient id="McOMTfiYL3bOztJQDCSGkb" x1="24" x2="24" y1="33.993" y2="39.005" gradientUnits="userSpaceOnUse"><stop offset="0" stop-color="#fede00"/><stop offset="1" stop-color="#ffd000"/></linearGradient><path fill="url(#McOMTfiYL3bOztJQDCSGkb)" d="M39,34H9l-3.875,1.55C4.445,35.822,4,36.48,4,37.211v0C4,38.199,4.801,39,5.789,39h36.422	C43.199,39,44,38.199,44,37.211v0c0-0.731-0.445-1.389-1.125-1.661L39,34z"/><linearGradient id="McOMTfiYL3bOztJQDCSGkc" x1="24" x2="24" y1="42.919" y2="38.859" gradientUnits="userSpaceOnUse"><stop offset=".486" stop-color="#fbc300"/><stop offset="1" stop-color="#dbaa00"/></linearGradient><path fill="url(#McOMTfiYL3bOztJQDCSGkc)" d="M28,39c0,2.209-1.791,4-4,4s-4-1.791-4-4H28z"/></svg>