<svg xmlns="http://www.w3.org/2000/svg" data-name="Слой 1" viewBox="0 0 48 48"><defs><linearGradient id="F4FRe309HtEIS5BYGlrMwa" x1="5.667" x2="43" y1="22.808" y2="22.808" data-name="Новый образец градиентной зал 3" gradientUnits="userSpaceOnUse"><stop offset="0" stop-color="#32bdef"/><stop offset="1" stop-color="#1ea2e4"/></linearGradient><linearGradient id="F4FRe309HtEIS5BYGlrMwb" x1="8.989" x2="24" y1="34" y2="34" data-name="Безымянный градиент 5" gradientUnits="userSpaceOnUse"><stop offset="0" stop-color="#3079d6"/><stop offset="1" stop-color="#297cd2"/></linearGradient></defs><path fill="url(#F4FRe309HtEIS5BYGlrMwa)" d="M23.68272,4.05382,6.41738,17.8661a2,2,0,0,0-.42583,2.65427L20,42H42a1,1,0,0,0,1-1V19.89813a2,2,0,0,0-.67127-1.49482L26.26084,4.12074A2,2,0,0,0,23.68272,4.05382Z"/><path fill="#50e6ff" d="M23.69938,4.04049,5.75061,18.39951A2,2,0,0,0,5,19.96125V41a1,1,0,0,0,1,1H27a1,1,0,0,0,1-1V19L25.307,4.63707A1,1,0,0,0,23.69938,4.04049Z"/><path fill="url(#F4FRe309HtEIS5BYGlrMwb)" d="M10.98913,26H22a2,2,0,0,1,2,2V42a0,0,0,0,1,0,0H8.98913a0,0,0,0,1,0,0V28A2,2,0,0,1,10.98913,26Z"/></svg>