<svg xmlns="http://www.w3.org/2000/svg" id="Layer_1" x="0" y="0" version="1.1" viewBox="0 0 48 48" xml:space="preserve"><linearGradient id="SVGID_1_" x1="21.516" x2="45.592" y1="1049.638" y2="1085.673" gradientTransform="translate(0 -1032)" gradientUnits="userSpaceOnUse"><stop offset="0" stop-color="#28afea"/><stop offset="1" stop-color="#0b88da"/></linearGradient><path fill="url(#SVGID_1_)" d="M9,26l36-14.3V38c0,1.1-0.9,2-2,2H9V26z"/><linearGradient id="SVGID_2_" x1="1.408" x2="36.331" y1="1056.41" y2="1078.164" gradientTransform="translate(0 -1032)" gradientUnits="userSpaceOnUse"><stop offset="0" stop-color="#28afea"/><stop offset="1" stop-color="#0b88da"/></linearGradient><path fill="url(#SVGID_2_)" d="M3,11.7V38c0,1.1,0.9,2,2,2h38c0.5,0,0.9-0.2,1.3-0.5L3,11.7z"/><path d="M3,11h42v1.7L27.7,26.1c-2.2,1.7-5.2,1.7-7.4,0L3,12.7V11z" opacity=".05"/><path d="M3,10.5h42v1.7L27,25.3c-1.8,1.3-4.2,1.3-5.9,0L3,12.2V10.5z" opacity=".07"/><path fill="#50e6ff" d="M5,8h38c1.1,0,2,0.9,2,2v1.7L26.3,24.5c-1.4,0.9-3.1,0.9-4.5,0L3,11.7V10C3,8.9,3.9,8,5,8z"/><path d="M39.3,30.1C39,29.5,38.4,29,37.5,29c-1,0-1.6,0.7-1.7,1l-6.3,10H43c0.8,0,1.5-0.5,1.8-1.2L39.3,30.1z" opacity=".05"/><path d="M38.8,30.3c-0.1-0.3-0.6-0.8-1.3-0.8s-1.2,0.5-1.3,0.8L30,40h13c0.6,0,1.2-0.3,1.5-0.7L38.8,30.3z" opacity=".07"/><linearGradient id="SVGID_3_" x1="-128.064" x2="43.918" y1="-930.06" y2="-1127.309" gradientTransform="matrix(1 0 0 -1 0 -1076)" gradientUnits="userSpaceOnUse"><stop offset="0" stop-color="#ffda1c"/><stop offset="1" stop-color="#feb705"/></linearGradient><path fill="url(#SVGID_3_)" d="M47.8,45.4l-9.4-14.9c0,0-0.3-0.5-0.9-0.5s-0.9,0.5-0.9,0.5l-9.4,14.9c0,0-0.2,0.2-0.2,0.6c0,0.5,0.4,1,1,1h19	c0.6,0,1-0.4,1-1C48,45.7,47.8,45.4,47.8,45.4z"/><radialGradient id="SVGID_4_" cx="34.889" cy="-1102.54" r="10.021" gradientTransform="matrix(1 0 0 -1.0323 0 -1103.26)" gradientUnits="userSpaceOnUse"><stop offset="0" stop-color="#4b4b4b"/><stop offset=".531" stop-color="#393939"/><stop offset="1" stop-color="#252525"/></radialGradient><path fill="url(#SVGID_4_)" d="M37.5,45c-0.3,0-0.6-0.1-0.8-0.3s-0.3-0.4-0.3-0.7c0-0.3,0.1-0.5,0.3-0.7c0.2-0.2,0.5-0.3,0.8-0.3	c0.3,0,0.6,0.1,0.8,0.3c0.2,0.2,0.3,0.4,0.3,0.7c0,0.3-0.1,0.5-0.3,0.7C38.1,44.9,37.8,45,37.5,45z M38.6,35.4l-0.2,6.3	c0,0.2-0.2,0.3-0.3,0.3h-1.1c-0.2,0-0.3-0.2-0.3-0.3l-0.2-6.3c0-0.2,0.2-0.4,0.3-0.4h1.6C38.5,35,38.6,35.2,38.6,35.4z"/></svg>