<svg xmlns="http://www.w3.org/2000/svg" viewBox="0 0 48 48"><linearGradient id="UypVFBXA5pgitXS5g~~jxa" x1="23.969" x2="23.969" y1="41.001" y2="7.89" gradientTransform="matrix(1 0 0 -1 0 47.89)" gradientUnits="userSpaceOnUse"><stop offset=".088" stop-color="#33c4a2"/><stop offset=".979" stop-color="#2eb182"/></linearGradient><path fill="url(#UypVFBXA5pgitXS5g~~jxa)" d="M38,17c5-10-5-7-5-7c-11-7-19,0-19,0c-10-1-4,7-4,7c-6,8-5,23-5,23h38C43,26,38,17,38,17z"/><ellipse cx="19" cy="20.5" fill="#fff" rx="4" ry="4.5"/><ellipse cx="29" cy="20.5" fill="#fff" rx="4" ry="4.5"/><linearGradient id="UypVFBXA5pgitXS5g~~jxb" x1="19" x2="19" y1="29.873" y2="24.884" gradientTransform="matrix(1 0 0 -1 0 47.89)" gradientUnits="userSpaceOnUse"><stop offset=".088" stop-color="#33c4a2"/><stop offset=".979" stop-color="#2eb182"/></linearGradient><ellipse cx="19" cy="20.5" fill="url(#UypVFBXA5pgitXS5g~~jxb)" rx="2" ry="2.5"/><linearGradient id="UypVFBXA5pgitXS5g~~jxc" x1="29" x2="29" y1="29.873" y2="24.884" gradientTransform="matrix(1 0 0 -1 0 47.89)" gradientUnits="userSpaceOnUse"><stop offset=".088" stop-color="#33c4a2"/><stop offset=".979" stop-color="#2eb182"/></linearGradient><ellipse cx="29" cy="20.5" fill="url(#UypVFBXA5pgitXS5g~~jxc)" rx="2" ry="2.5"/><linearGradient id="UypVFBXA5pgitXS5g~~jxd" x1="28" x2="30" y1="27.39" y2="27.39" gradientTransform="matrix(1 0 0 -1 0 47.89)" gradientUnits="userSpaceOnUse"><stop offset=".824" stop-color="#135d36"/><stop offset=".931" stop-color="#125933"/><stop offset="1" stop-color="#11522f"/></linearGradient><ellipse cx="29" cy="20.5" fill="url(#UypVFBXA5pgitXS5g~~jxd)" rx="1" ry="1.5"/><linearGradient id="UypVFBXA5pgitXS5g~~jxe" x1="18" x2="20" y1="27.39" y2="27.39" gradientTransform="matrix(1 0 0 -1 0 47.89)" gradientUnits="userSpaceOnUse"><stop offset=".824" stop-color="#135d36"/><stop offset=".931" stop-color="#125933"/><stop offset="1" stop-color="#11522f"/></linearGradient><ellipse cx="19" cy="20.5" fill="url(#UypVFBXA5pgitXS5g~~jxe)" rx="1" ry="1.5"/><circle cx="18" cy="19" r="1" fill="#fff"/><circle cx="28" cy="19" r="1" fill="#fff"/><path fill="#fff" d="M17,29c0,0,1-4,3-2c0.53,0.53,0,3,0,3L17,29z"/><linearGradient id="UypVFBXA5pgitXS5g~~jxf" x1="24" x2="24" y1="24.833" y2="7.871" gradientTransform="matrix(1 0 0 -1 0 47.89)" gradientUnits="userSpaceOnUse"><stop offset="0" stop-color="#7dffce"/><stop offset="1" stop-color="#50c08d"/></linearGradient><path fill="url(#UypVFBXA5pgitXS5g~~jxf)" d="M38,32c0.763-2.288-1.38-3.991-2.441-4.672C36.602,27.687,38,27,38,27c-3-2-3-4-3-4s0,4-3,6	c-0.658,0.439-2,1-2,1H18c0,0-1.342-0.561-2-1c-3-2-3-6-3-6s0,2-3,4c0,0,1.398,0.687,2.441,0.328C11.38,28.009,9.237,29.712,10,32	c0,0,1-2,3-2c0,0-3,2-3,5c0,0,2-2,3-2c0,0-3.88,2.336-2.743,7H23h2h12.743C38.88,35.336,34,33,34,33c1,0,4,2,4,2c0-3-3-5-3-5	C37,30,38,32,38,32z"/><linearGradient id="UypVFBXA5pgitXS5g~~jxg" x1="12" x2="36" y1="20.89" y2="20.89" gradientTransform="matrix(1 0 0 -1 0 47.89)" gradientUnits="userSpaceOnUse"><stop offset=".824" stop-color="#135d36"/><stop offset=".931" stop-color="#125933"/><stop offset="1" stop-color="#11522f"/></linearGradient><path fill="url(#UypVFBXA5pgitXS5g~~jxg)" d="M13,23c0.42,2.505,1.993,4.524,4.019,5.463c1.036,0.437,2.077,0.68,3.232,0.593L24,29.001	l3.748,0.053c1.155,0.088,2.195-0.157,3.231-0.593C33.005,27.521,34.577,25.505,35,23c0.448,2.516-0.872,5.388-3.272,6.829	c-1.168,0.739-2.633,1.107-3.98,1.117L24,30.999l-3.748-0.055c-1.347-0.009-2.811-0.38-3.979-1.117	C13.875,28.385,12.555,25.516,13,23z"/></svg>