<svg xmlns="http://www.w3.org/2000/svg" viewBox="0 0 48 48"><linearGradient id="UZPO4RrivNaMKjWKqqCtra" x1="24" x2="24" y1="10.091" y2="26.675" gradientUnits="userSpaceOnUse"><stop offset="0" stop-color="#c965eb"/><stop offset="1" stop-color="#c767e5"/></linearGradient><path fill="url(#UZPO4RrivNaMKjWKqqCtra)" d="M36.73,12.27C33.47,9.02,28.97,7,24,7C14.06,7,6,15.06,6,25v6h2h32h2v-6	C42,20.03,39.98,15.53,36.73,12.27z"/><linearGradient id="UZPO4RrivNaMKjWKqqCtrb" x1="24" x2="24" y1="11.421" y2="27.32" gradientUnits="userSpaceOnUse"><stop offset="0" stop-color="#ae4cd5"/><stop offset="1" stop-color="#ac4ad5"/></linearGradient><path fill="url(#UZPO4RrivNaMKjWKqqCtrb)" d="M24,11c-7.72,0-14,6.28-14,14v6h2h24h2v-6C38,17.28,31.72,11,24,11z"/><linearGradient id="UZPO4RrivNaMKjWKqqCtrc" x1="24" x2="24" y1="15.511" y2="29.576" gradientUnits="userSpaceOnUse"><stop offset="0" stop-color="#912fbd"/><stop offset="1" stop-color="#9332bf"/></linearGradient><path fill="url(#UZPO4RrivNaMKjWKqqCtrc)" d="M24,15c-5.51,0-10,4.49-10,10v6h2h16h2v-6C34,19.49,29.51,15,24,15z"/><linearGradient id="UZPO4RrivNaMKjWKqqCtrd" x1="24" x2="24" y1="17.557" y2="31.672" gradientUnits="userSpaceOnUse"><stop offset="0" stop-color="#8521b0"/><stop offset="1" stop-color="#64129a"/></linearGradient><path fill="url(#UZPO4RrivNaMKjWKqqCtrd)" d="M30,25v6H18v-6c0-3.31,2.69-6,6-6S30,21.69,30,25z"/><linearGradient id="UZPO4RrivNaMKjWKqqCtre" x1="24" x2="24" y1="25.441" y2="38.328" gradientUnits="userSpaceOnUse"><stop offset="0" stop-color="#eba84b"/><stop offset="1" stop-color="#d97218"/></linearGradient><path fill="url(#UZPO4RrivNaMKjWKqqCtre)" d="M45,33H3l1.772-4.43C4.908,28.23,5.29,28,5.721,28h36.558c0.43,0,0.813,0.23,0.949,0.57L45,33	z"/><linearGradient id="UZPO4RrivNaMKjWKqqCtrf" x1="24" x2="24" y1="32.147" y2="44.505" gradientUnits="userSpaceOnUse"><stop offset="0" stop-color="#c26715"/><stop offset="0" stop-color="#c26715"/><stop offset=".51" stop-color="#b85515"/><stop offset="1" stop-color="#ad3f16"/></linearGradient><path fill="url(#UZPO4RrivNaMKjWKqqCtrf)" d="M43,40H5c-1.105,0-2-0.895-2-2v-5h42v5C45,39.105,44.105,40,43,40z"/></svg>