<svg xmlns="http://www.w3.org/2000/svg" viewBox="0 0 48 48"><linearGradient id="WDdcQEh9I4kP2LjS7EaVVa" x1="9.117" x2="9.117" y1="19.181" y2="13.399" gradientUnits="userSpaceOnUse"><stop offset=".365" stop-color="#199ae0"/><stop offset=".699" stop-color="#1898de"/><stop offset=".819" stop-color="#1691d8"/><stop offset=".905" stop-color="#1186cc"/><stop offset=".974" stop-color="#0a75bc"/><stop offset="1" stop-color="#076cb3"/></linearGradient><path fill="url(#WDdcQEh9I4kP2LjS7EaVVa)" d="M13,12.866c-2.349-0.311-8.014-1.038-7.758-0.782l6.746,6.746	C12.361,19.203,13,18.938,13,18.41V12.866z"/><linearGradient id="WDdcQEh9I4kP2LjS7EaVVb" x1="6.658" x2="35.408" y1="38.735" y2="9.985" gradientUnits="userSpaceOnUse"><stop offset="0" stop-color="#32bdef"/><stop offset="1" stop-color="#1ea2e4"/></linearGradient><path fill="url(#WDdcQEh9I4kP2LjS7EaVVb)" d="M13,9V4.59c0-0.528-0.639-0.793-1.013-0.419L5.218,10.94c-0.309,0.309-0.309,0.811,0,1.12	l1.698,1.698C7.078,13.919,7.289,14,7.5,14l0,0H27c6.075,0,11,4.925,11,11v0c0,6.075-4.925,11-11,11H9c-0.552,0-1,0.448-1,1v3	c0,0.552,0.448,1,1,1h18c8.837,0,16-7.163,16-16v0c0-8.837-7.163-16-16-16H13z"/></svg>