<svg xmlns="http://www.w3.org/2000/svg" viewBox="0 0 48 48"><linearGradient id="7nZofGXVZ1MZ70O1PT5bIa" x1="6.304" x2="12.236" y1="6.304" y2="12.236" gradientUnits="userSpaceOnUse"><stop offset="0" stop-color="#f0f0f0"/><stop offset="1" stop-color="#bbc1c4"/></linearGradient><path fill="url(#7nZofGXVZ1MZ70O1PT5bIa)" d="M9,5C6.791,5,5,6.791,5,9s1.791,4,4,4s4-1.791,4-4S11.209,5,9,5z"/><path fill="#fabb62" d="M12.908,25c0,0,1.602,5.117-1.215,7.938l4.373,4.371c2.817-2.817,7.876-1.27,7.876-1.27L12.908,25z"/><linearGradient id="7nZofGXVZ1MZ70O1PT5bIb" x1="7.742" x2="36.234" y1="41.256" y2="12.764" gradientUnits="userSpaceOnUse"><stop offset="0" stop-color="#eba84b"/><stop offset="1" stop-color="#d97218"/></linearGradient><path fill="url(#7nZofGXVZ1MZ70O1PT5bIb)" d="M23,29.567l-3.567-3.569L6.59,37.414c-0.787,0.789-0.787,2.065,0,2.854l2.141,2.14	c0.787,0.79,2.065,0.79,2.853,0L23,29.567z"/><linearGradient id="7nZofGXVZ1MZ70O1PT5bIc" x1="23.358" x2="32.193" y1="6.61" y2="35.931" gradientUnits="userSpaceOnUse"><stop offset="0" stop-color="#199ae0"/><stop offset="1" stop-color="#0782d8"/></linearGradient><path fill="url(#7nZofGXVZ1MZ70O1PT5bIc)" d="M23.942,36.039c4.817,2.386,9.381,0.076,13.622-4.158c6.243-6.231,7.772-14.811,1.059-21.513	c-6.713-6.7-15.308-5.175-21.551,1.058c-4.241,4.231-6.429,8.808-4.165,13.573L23.942,36.039z"/></svg>