<svg xmlns="http://www.w3.org/2000/svg" viewBox="0 0 48 48"><path fill="none" stroke="#abb4be" stroke-linecap="round" stroke-linejoin="round" stroke-miterlimit="10" stroke-width="2" d="M8.024,30.5c-0.005-0.171-0.008-0.343-0.008-0.516C8.016,21.156,15.172,14,24,14s15.984,7.156,15.984,15.984	c0,0.173-0.003,0.344-0.008,0.516"/><line x1="4.5" x2="42.5" y1="14.5" y2="14.5" fill="none" stroke="#abb4be" stroke-linecap="round" stroke-linejoin="round" stroke-miterlimit="10" stroke-width="2"/><linearGradient id="MNu5PfTV2~JuITH2LlROva" x1="22.585" x2="25.248" y1="-180.779" y2="-170.841" gradientTransform="translate(0 190)" gradientUnits="userSpaceOnUse"><stop offset="0" stop-color="#2aa4f4"/><stop offset="1" stop-color="#007ad9"/></linearGradient><path fill="url(#MNu5PfTV2~JuITH2LlROva)" d="M27,19.5h-6c-1.1,0-2-0.9-2-2v-6c0-1.1,0.9-2,2-2h6c1.1,0,2,0.9,2,2v6	C29,18.6,28.1,19.5,27,19.5z"/><linearGradient id="MNu5PfTV2~JuITH2LlROvb" x1="38.586" x2="41.248" y1="-159.779" y2="-149.841" gradientTransform="translate(0 190)" gradientUnits="userSpaceOnUse"><stop offset="0" stop-color="#2aa4f4"/><stop offset="1" stop-color="#007ad9"/></linearGradient><path fill="url(#MNu5PfTV2~JuITH2LlROvb)" d="M43,40.5h-6c-1.1,0-2-0.9-2-2v-6c0-1.1,0.9-2,2-2h6c1.1,0,2,0.9,2,2v6	C45,39.6,44.1,40.5,43,40.5z"/><linearGradient id="MNu5PfTV2~JuITH2LlROvc" x1="6.585" x2="9.248" y1="-159.779" y2="-149.841" gradientTransform="translate(0 190)" gradientUnits="userSpaceOnUse"><stop offset="0" stop-color="#2aa4f4"/><stop offset="1" stop-color="#007ad9"/></linearGradient><path fill="url(#MNu5PfTV2~JuITH2LlROvc)" d="M11,40.5H5c-1.1,0-2-0.9-2-2v-6c0-1.1,0.9-2,2-2h6c1.1,0,2,0.9,2,2v6	C13,39.6,12.1,40.5,11,40.5z"/><linearGradient id="MNu5PfTV2~JuITH2LlROvd" x1="42.011" x2="46.212" y1="-177.489" y2="-173.288" gradientTransform="translate(0 190)" gradientUnits="userSpaceOnUse"><stop offset="0" stop-color="#33bef0"/><stop offset="1" stop-color="#0a85d9"/></linearGradient><circle cx="44" cy="14.5" r="3" fill="url(#MNu5PfTV2~JuITH2LlROvd)"/><linearGradient id="MNu5PfTV2~JuITH2LlROve" x1="2.011" x2="6.212" y1="-177.489" y2="-173.288" gradientTransform="translate(0 190)" gradientUnits="userSpaceOnUse"><stop offset="0" stop-color="#33bef0"/><stop offset="1" stop-color="#0a85d9"/></linearGradient><circle cx="4" cy="14.5" r="3" fill="url(#MNu5PfTV2~JuITH2LlROve)"/></svg>