<svg xmlns="http://www.w3.org/2000/svg" viewBox="0 0 48 48"><path fill="#cdd2d6" d="M32,18.25c0-3.976-3.582-8.25-8-8.25s-8,4.274-8,8.25S19.582,31,24,31S32,22.226,32,18.25z"/><path fill="#ed3675" d="M24,24H8.429C7.639,24,7,24.587,7,25.313v18.375C7,44.413,7.639,45,8.429,45H24V24z"/><linearGradient id="GXizp_2OkaHniHAU_3vcIa" x1="32.5" x2="32.5" y1="46.477" y2="20.948" gradientUnits="userSpaceOnUse"><stop offset="0" stop-color="#bd1949"/><stop offset=".108" stop-color="#c31a4b"/><stop offset=".38" stop-color="#ca1b4d"/><stop offset="1" stop-color="#cc1b4e"/></linearGradient><path fill="url(#GXizp_2OkaHniHAU_3vcIa)" d="M24,24l15.571,0C40.361,24,41,24.587,41,25.313v18.375C41,44.413,40.361,45,39.571,45L24,45	V24z"/><path fill="#ed3675" d="M22,44c0,1.105,0.895,2,2,2v-4C22.895,42,22,42.895,22,44z"/><linearGradient id="GXizp_2OkaHniHAU_3vcIb" x1="25" x2="25" y1="46.618" y2="18.657" gradientUnits="userSpaceOnUse"><stop offset="0" stop-color="#bd1949"/><stop offset=".108" stop-color="#c31a4b"/><stop offset=".38" stop-color="#ca1b4d"/><stop offset="1" stop-color="#cc1b4e"/></linearGradient><path fill="url(#GXizp_2OkaHniHAU_3vcIb)" d="M26,44c0-1.105-0.895-2-2-2v4C25.105,46,26,45.105,26,44z"/><linearGradient id="GXizp_2OkaHniHAU_3vcIc" x1="7.5" x2="7.5" y1="38.882" y2="26.157" gradientUnits="userSpaceOnUse"><stop offset=".002" stop-color="#454545"/><stop offset=".013" stop-color="#464646"/><stop offset=".875" stop-color="#626262"/><stop offset="1" stop-color="#6d6d6d"/></linearGradient><path fill="url(#GXizp_2OkaHniHAU_3vcIc)" d="M7.5,37H6c-0.552,0-1-0.448-1-1v-3c0-0.552,0.448-1,1-1h1.5c1.381,0,2.5,1.119,2.5,2.5v0	C10,35.881,8.881,37,7.5,37z"/><linearGradient id="GXizp_2OkaHniHAU_3vcId" x1="40.5" x2="40.5" y1="38.882" y2="26.157" gradientUnits="userSpaceOnUse"><stop offset=".002" stop-color="#454545"/><stop offset=".013" stop-color="#464646"/><stop offset=".875" stop-color="#626262"/><stop offset="1" stop-color="#6d6d6d"/></linearGradient><path fill="url(#GXizp_2OkaHniHAU_3vcId)" d="M42,37h-1.5c-1.381,0-2.5-1.119-2.5-2.5v0c0-1.381,1.119-2.5,2.5-2.5H42c0.552,0,1,0.448,1,1	v3C43,36.552,42.552,37,42,37z"/><ellipse cx="18" cy="9" fill="#cdd2d6" rx="2" ry="4"/><ellipse cx="30" cy="9" fill="#cdd2d6" rx="2" ry="4"/><rect width="2" height="4" x="18" y="9" fill="#cdd2d6"/><rect width="2" height="4" x="28" y="9" fill="#cdd2d6"/><linearGradient id="GXizp_2OkaHniHAU_3vcIe" x1="22.25" x2="25.75" y1="7.5" y2="7.5" gradientUnits="userSpaceOnUse"><stop offset=".002" stop-color="#454545"/><stop offset=".013" stop-color="#464646"/><stop offset=".875" stop-color="#626262"/><stop offset="1" stop-color="#6d6d6d"/></linearGradient><path fill="url(#GXizp_2OkaHniHAU_3vcIe)" d="M23.49,2.504l-1.213,8.067C22.087,11.838,22.911,13,24,13h0c1.089,0,1.913-1.162,1.723-2.429	L24.51,2.504C24.408,1.832,23.592,1.832,23.49,2.504z"/><linearGradient id="GXizp_2OkaHniHAU_3vcIf" x1="28.5" x2="28.5" y1="13.235" y2="21.492" gradientUnits="userSpaceOnUse"><stop offset="0" stop-color="#4c4c4c"/><stop offset="1" stop-color="#343434"/></linearGradient><circle cx="28.5" cy="20.5" r="1.5" fill="url(#GXizp_2OkaHniHAU_3vcIf)"/><linearGradient id="GXizp_2OkaHniHAU_3vcIg" x1="19.5" x2="19.5" y1="13.235" y2="21.492" gradientUnits="userSpaceOnUse"><stop offset="0" stop-color="#4c4c4c"/><stop offset="1" stop-color="#343434"/></linearGradient><circle cx="19.5" cy="20.5" r="1.5" fill="url(#GXizp_2OkaHniHAU_3vcIg)"/><path fill="#ed3675" d="M29,13c0-1.726-2.239-4-5-4s-5,2.274-5,4s2.239,2,5,2S29,14.726,29,13z"/><path fill="#ed3675" d="M19,13c0,0.75,0,3,0,3s1.25-1,5-1C24,13,19,13,19,13z"/></svg>