<svg xmlns="http://www.w3.org/2000/svg" data-name="Слой 1" viewBox="0 0 48 48"><defs><linearGradient id="5JwgfWXk95puqQvi4wwzAa" x1="24" x2="24" y1="43.125" y2="18.016" data-name="Безымянный градиент 216" gradientUnits="userSpaceOnUse"><stop offset="0" stop-color="#b9360c"/><stop offset=".537" stop-color="#b5350c"/><stop offset=".999" stop-color="#ab320b"/></linearGradient></defs><path fill="url(#5JwgfWXk95puqQvi4wwzAa)" d="M45,18.0023v23a2.00591,2.00591,0,0,1-2,2H5a1.99946,1.99946,0,0,1-2-2v-23H15v7a9,9,0,0,0,18,0v-7Z"/><path fill="#d43a02" d="M3,17.0023H14a1,1,0,0,1,1,1v1H3Z"/><path fill="#d43a02" d="M45,17.0023v2H33v-1a1,1,0,0,1,1-1Z"/><circle cx="24" cy="37" r="1" fill="#d43a02"/><circle cx="30" cy="37" r="1" fill="#d43a02"/><circle cx="33" cy="34" r="1" fill="#d43a02"/><circle cx="36" cy="31" r="1" fill="#d43a02"/><circle cx="36" cy="37" r="1" fill="#d43a02"/><circle cx="39" cy="28" r="1" fill="#d43a02"/><circle cx="39" cy="34" r="1" fill="#d43a02"/><circle cx="42" cy="31" r="1" fill="#d43a02"/><circle cx="42" cy="37" r="1" fill="#d43a02"/><circle cx="18" cy="37" r="1" fill="#d43a02"/><circle cx="6" cy="31" r="1" fill="#d43a02"/><circle cx="6" cy="37" r="1" fill="#d43a02"/><circle cx="9" cy="28" r="1" fill="#d43a02"/><circle cx="9" cy="34" r="1" fill="#d43a02"/><circle cx="12" cy="31" r="1" fill="#d43a02"/><circle cx="36" cy="25.002" r="1" fill="#d43a02"/><circle cx="42" cy="25.002" r="1" fill="#d43a02"/><circle cx="6" cy="25.002" r="1" fill="#d43a02"/><circle cx="12" cy="25.002" r="1" fill="#d43a02"/><circle cx="12" cy="37" r="1" fill="#d43a02"/><circle cx="39" cy="22.002" r="1" fill="#d43a02"/><circle cx="9" cy="22.002" r="1" fill="#d43a02"/><circle cx="15" cy="34" r="1" fill="#d43a02"/><circle cx="21" cy="40" r="1" fill="#d43a02"/><circle cx="27" cy="40" r="1" fill="#d43a02"/><circle cx="33" cy="40" r="1" fill="#d43a02"/><circle cx="39" cy="40" r="1" fill="#d43a02"/><circle cx="9" cy="40" r="1" fill="#d43a02"/><circle cx="15" cy="40" r="1" fill="#d43a02"/></svg>