<svg xmlns="http://www.w3.org/2000/svg" viewBox="0 0 48 48"><path fill="#50e6ff" d="M6,40c0,1.105,0.895,2,2,2h24c1.105,0,2-0.895,2-2V8c0-1.105-0.895-2-2-2H8C6.895,6,6,6.895,6,8V40z"/><linearGradient id="J6zW4TenAwylOipHo6BOqa" x1="28" x2="42" y1="24" y2="24" gradientTransform="matrix(-1 0 0 1 70 0)" gradientUnits="userSpaceOnUse"><stop offset="0" stop-color="#1951a8"/><stop offset=".175" stop-color="#1955b0"/><stop offset=".505" stop-color="#195ab9"/><stop offset="1" stop-color="#195bbc"/></linearGradient><path fill="url(#J6zW4TenAwylOipHo6BOqa)" d="M28,42h12c1.105,0,2-0.895,2-2V8c0-1.105-0.895-2-2-2H28V42z"/><linearGradient id="J6zW4TenAwylOipHo6BOqb" x1="30.298" x2="33.154" y1="8.298" y2="11.154" gradientUnits="userSpaceOnUse"><stop offset="0" stop-color="#ffc430"/><stop offset=".41" stop-color="#fec130"/><stop offset=".72" stop-color="#fcb730"/><stop offset=".998" stop-color="#f7a72f"/><stop offset="1" stop-color="#f7a72f"/></linearGradient><path fill="url(#J6zW4TenAwylOipHo6BOqb)" d="M32,8c-1.105,0-2,0.895-2,2s0.895,2,2,2s2-0.895,2-2S33.105,8,32,8z"/><linearGradient id="J6zW4TenAwylOipHo6BOqc" x1="36.282" x2="39.131" y1="8.282" y2="11.131" gradientUnits="userSpaceOnUse"><stop offset="0" stop-color="#9dffce"/><stop offset="1" stop-color="#50d18d"/></linearGradient><path fill="url(#J6zW4TenAwylOipHo6BOqc)" d="M38,8c-1.105,0-2,0.895-2,2s0.895,2,2,2s2-0.895,2-2S39.105,8,38,8z"/><linearGradient id="J6zW4TenAwylOipHo6BOqd" x1="30" x2="40" y1="15" y2="15" gradientUnits="userSpaceOnUse"><stop offset="0" stop-color="#7dd8f3"/><stop offset="1" stop-color="#45b0d0"/></linearGradient><path fill="url(#J6zW4TenAwylOipHo6BOqd)" d="M39.5,16h-9c-0.276,0-0.5-0.224-0.5-0.5v-1c0-0.276,0.224-0.5,0.5-0.5h9	c0.276,0,0.5,0.224,0.5,0.5v1C40,15.776,39.776,16,39.5,16z"/></svg>