<svg xmlns="http://www.w3.org/2000/svg" viewBox="0 0 48 48"><linearGradient id="HyaT1GNqSg4Ophg4HoEtLa" x1="24" x2="24" y1="20.667" y2="30.42" gradientUnits="userSpaceOnUse"><stop offset="0" stop-color="#fed100"/><stop offset="1" stop-color="#e38101"/></linearGradient><path fill="url(#HyaT1GNqSg4Ophg4HoEtLa)" d="M32.019,21c-0.975-0.002-1.914,0.135-2.793,0.388c-2.851,0.823-7.599,0.823-10.451,0	c-0.879-0.254-1.818-0.39-2.793-0.388c-4.781,0.009-8.831,3.502-8.977,7.75C6.849,33.282,10.936,37,16,37	c3.488,0,6.506-1.767,8-4.346C25.494,35.233,28.512,37,32,37c5.064,0,9.151-3.718,8.996-8.25C40.85,24.502,36.8,21.009,32.019,21z"/><linearGradient id="HyaT1GNqSg4Ophg4HoEtLb" x1="8" x2="41" y1="11" y2="11" gradientUnits="userSpaceOnUse"><stop offset="0" stop-color="#d4943b"/><stop offset="1" stop-color="#c2620e"/><stop offset="1" stop-color="#c2620e"/></linearGradient><path fill="url(#HyaT1GNqSg4Ophg4HoEtLb)" d="M40,12H9c-0.552,0-1-0.448-1-1s0.448-1,1-1h31c0.552,0,1,0.448,1,1S40.552,12,40,12z"/><linearGradient id="HyaT1GNqSg4Ophg4HoEtLc" x1="8" x2="41" y1="6.5" y2="6.5" gradientUnits="userSpaceOnUse"><stop offset="0" stop-color="#d4943b"/><stop offset="1" stop-color="#c2620e"/><stop offset="1" stop-color="#c2620e"/></linearGradient><path fill="url(#HyaT1GNqSg4Ophg4HoEtLc)" d="M8.999,9C8.49,9,8.055,8.613,8.005,8.096c-0.053-0.55,0.349-1.039,0.899-1.091l31-3	c0.551-0.055,1.039,0.35,1.091,0.899c0.053,0.55-0.349,1.039-0.899,1.091l-31,3C9.063,8.999,9.031,9,8.999,9z"/><linearGradient id="HyaT1GNqSg4Ophg4HoEtLd" x1="15" x2="15" y1="10.063" y2="34.26" gradientUnits="userSpaceOnUse"><stop offset="0" stop-color="#fed100"/><stop offset="1" stop-color="#e38101"/></linearGradient><path fill="url(#HyaT1GNqSg4Ophg4HoEtLd)" d="M16,28c-0.552,0-1-0.448-1-1c0-0.823-0.304-1.185-0.765-1.732	C13.685,24.614,13,23.8,13,22.248c0-1.553,0.685-2.367,1.235-3.021C14.696,18.68,15,18.318,15,17.495	c0-0.822-0.304-1.184-0.765-1.73C13.685,15.111,13,14.298,13,12.745c0-1.552,0.685-2.364,1.235-3.017C14.696,9.182,15,8.821,15,8	c0-0.552,0.448-1,1-1s1,0.448,1,1c0,1.552-0.685,2.364-1.235,3.017C15.304,11.563,15,11.924,15,12.745	c0,0.823,0.304,1.184,0.765,1.731C16.315,15.129,17,15.942,17,17.495c0,1.553-0.685,2.367-1.235,3.021	C15.304,21.063,15,21.424,15,22.248s0.304,1.185,0.765,1.732C16.315,24.633,17,25.447,17,27C17,27.552,16.552,28,16,28z"/><linearGradient id="HyaT1GNqSg4Ophg4HoEtLe" x1="13" x2="13" y1="-.375" y2="27.783" gradientUnits="userSpaceOnUse"><stop offset="0" stop-color="#fed100"/><stop offset="1" stop-color="#e38101"/></linearGradient><path fill="url(#HyaT1GNqSg4Ophg4HoEtLe)" d="M14,28c-0.552,0-1-0.448-1-1c0-0.823-0.304-1.185-0.765-1.732	C11.685,24.614,11,23.8,11,22.248c0-1.553,0.685-2.367,1.235-3.021C12.696,18.68,13,18.318,13,17.495	c0-0.822-0.304-1.184-0.765-1.73C11.685,15.111,11,14.298,11,12.745c0-1.552,0.685-2.364,1.235-3.017C12.696,9.182,13,8.821,13,8	c0-0.552,0.448-1,1-1s1,0.448,1,1c0,1.552-0.685,2.364-1.235,3.017C13.304,11.563,13,11.924,13,12.745	c0,0.823,0.304,1.184,0.765,1.731C14.315,15.129,15,15.942,15,17.495c0,1.553-0.685,2.367-1.235,3.021	C13.304,21.063,13,21.424,13,22.248s0.304,1.185,0.765,1.732C14.315,24.633,15,25.447,15,27C15,27.552,14.552,28,14,28z"/><linearGradient id="HyaT1GNqSg4Ophg4HoEtLf" x1="11" x2="11" y1="10.063" y2="34.26" gradientUnits="userSpaceOnUse"><stop offset="0" stop-color="#fed100"/><stop offset="1" stop-color="#e38101"/></linearGradient><path fill="url(#HyaT1GNqSg4Ophg4HoEtLf)" d="M12,28c-0.552,0-1-0.448-1-1c0-0.823-0.304-1.185-0.765-1.732C9.685,24.614,9,23.8,9,22.248	c0-1.553,0.685-2.367,1.235-3.021C10.696,18.68,11,18.318,11,17.495c0-0.822-0.304-1.184-0.765-1.73C9.685,15.111,9,14.298,9,12.745	c0-1.552,0.685-2.364,1.235-3.017C10.696,9.182,11,8.821,11,8c0-0.552,0.448-1,1-1s1,0.448,1,1c0,1.552-0.685,2.364-1.235,3.017	C11.304,11.563,11,11.924,11,12.745c0,0.823,0.304,1.184,0.765,1.731C12.315,15.129,13,15.942,13,17.495	c0,1.553-0.685,2.367-1.235,3.021C11.304,21.063,11,21.424,11,22.248s0.304,1.185,0.765,1.732C12.315,24.633,13,25.447,13,27	C13,27.552,12.552,28,12,28z"/><linearGradient id="HyaT1GNqSg4Ophg4HoEtLg" x1="24" x2="24" y1="40.542" y2="47.21" gradientUnits="userSpaceOnUse"><stop offset=".018" stop-color="#005ab3"/><stop offset=".349" stop-color="#007ad9"/><stop offset="1" stop-color="#2aa4f4"/></linearGradient><path fill="url(#HyaT1GNqSg4Ophg4HoEtLg)" d="M32,38v5c0,1.1-0.9,2-2,2H18c-1.1,0-2-0.9-2-2v-5H32z"/><linearGradient id="HyaT1GNqSg4Ophg4HoEtLh" x1="24" x2="24" y1="18.417" y2="49.355" gradientUnits="userSpaceOnUse"><stop offset="0" stop-color="#2aa4f4"/><stop offset="1" stop-color="#007ad9"/></linearGradient><path fill="url(#HyaT1GNqSg4Ophg4HoEtLh)" d="M42,25H6c-0.552,0-1,0.448-1,1v0c0,8.837,7.163,16,16,16h6c8.837,0,16-7.163,16-16v0	C43,25.448,42.552,25,42,25z"/><linearGradient id="HyaT1GNqSg4Ophg4HoEtLi" x1="24" x2="24" y1="18.417" y2="49.355" gradientUnits="userSpaceOnUse"><stop offset="0" stop-color="#2aa4f4"/><stop offset="1" stop-color="#007ad9"/></linearGradient><path fill="url(#HyaT1GNqSg4Ophg4HoEtLi)" d="M42,25H6c-0.552,0-1,0.448-1,1v0c0,8.837,7.163,16,16,16h6c8.837,0,16-7.163,16-16v0	C43,25.448,42.552,25,42,25z"/><linearGradient id="HyaT1GNqSg4Ophg4HoEtLj" x1="18.5" x2="18.5" y1="32.132" y2="20.924" gradientUnits="userSpaceOnUse"><stop offset=".002" stop-color="#454545"/><stop offset=".013" stop-color="#464646"/><stop offset=".875" stop-color="#626262"/><stop offset="1" stop-color="#6d6d6d"/></linearGradient><circle cx="18.5" cy="30.5" r="2.5" fill="url(#HyaT1GNqSg4Ophg4HoEtLj)"/><linearGradient id="HyaT1GNqSg4Ophg4HoEtLk" x1="29.5" x2="29.5" y1="32.132" y2="20.924" gradientUnits="userSpaceOnUse"><stop offset=".002" stop-color="#454545"/><stop offset=".013" stop-color="#464646"/><stop offset=".875" stop-color="#626262"/><stop offset="1" stop-color="#6d6d6d"/></linearGradient><circle cx="29.5" cy="30.5" r="2.5" fill="url(#HyaT1GNqSg4Ophg4HoEtLk)"/><linearGradient id="HyaT1GNqSg4Ophg4HoEtLl" x1="18" x2="18" y1="27.235" y2="32.882" gradientUnits="userSpaceOnUse"><stop offset="0" stop-color="#f9f9f9"/><stop offset="1" stop-color="#c2c8cc"/></linearGradient><circle cx="18" cy="30" r="1" fill="url(#HyaT1GNqSg4Ophg4HoEtLl)"/><linearGradient id="HyaT1GNqSg4Ophg4HoEtLm" x1="29" x2="29" y1="27.235" y2="32.882" gradientUnits="userSpaceOnUse"><stop offset="0" stop-color="#f9f9f9"/><stop offset="1" stop-color="#c2c8cc"/></linearGradient><circle cx="29" cy="30" r="1" fill="url(#HyaT1GNqSg4Ophg4HoEtLm)"/><circle cx="14" cy="36" r="2" fill="#f09ca2"/><circle cx="34" cy="36" r="2" fill="#f09ca2"/><linearGradient id="HyaT1GNqSg4Ophg4HoEtLn" x1="24" x2="24" y1="40.353" y2="28.614" gradientUnits="userSpaceOnUse"><stop offset=".002" stop-color="#454545"/><stop offset=".013" stop-color="#464646"/><stop offset=".875" stop-color="#626262"/><stop offset="1" stop-color="#6d6d6d"/></linearGradient><path fill="url(#HyaT1GNqSg4Ophg4HoEtLn)" d="M24,40c-2.206,0-4-1.794-4-4c0-0.553,0.447-1,1-1s1,0.447,1,1c0,1.103,0.897,2,2,2 s2-0.897,2-2c0-0.553,0.447-1,1-1s1,0.447,1,1C28,38.206,26.206,40,24,40z"/></svg>