<svg xmlns="http://www.w3.org/2000/svg" viewBox="0 0 48 48"><rect width="6" height="33.121" x="15" y="8.94" fill="#f0b400" transform="rotate(-28.887 18 25.499)"/><path fill="#5c6369" d="M32.5,40.5h-17c0-4.694,3.806-8.5,8.5-8.5S32.5,35.806,32.5,40.5z"/><circle cx="24" cy="38.818" r="1.727" fill="#0dad57"/><path fill="#f0b400" d="M41,36H7c-1.105,0-2,0.895-2,2v6h38v-6C43,36.895,42.105,36,41,36z"/><rect width="22" height="4" x="10" y="9" fill="#f0b400"/><path fill="#f0b400" d="M42,17h-6.692c-0.226,0-0.444-0.076-0.621-0.217l-6.308-5C28.14,11.594,28,11.306,28,11	s0.14-0.594,0.379-0.783l6.308-5C34.863,5.076,35.082,5,35.308,5H42c0.553,0,1,0.447,1,1s-0.447,1-1,1h-6.344l-5.047,4l5.047,4H42	c0.553,0,1,0.447,1,1S42.553,17,42,17z"/><path fill="#727d86" d="M10,6c-2.762,0-5,2.238-5,5s2.238,5,5,5s5-2.238,5-5S12.762,6,10,6z"/><path fill="#727d86" d="M32,16h-2c-1.105,0-2-0.895-2-2V8c0-1.105,0.895-2,2-2h2c0.552,0,1,0.448,1,1v8	C33,15.552,32.552,16,32,16z"/><circle cx="10" cy="11" r="2" fill="#f0b400"/><circle cx="24" cy="40" r="2" fill="#727d86"/></svg>