<svg xmlns="http://www.w3.org/2000/svg" viewBox="0 0 48 48"><linearGradient id="Sl7OV3QKSfpbxtgCXh8N_a" x1="42.231" x2="38.637" y1="27.5" y2="27.5" gradientUnits="userSpaceOnUse"><stop offset="0" stop-color="#0f5695"/><stop offset=".963" stop-color="#134575"/></linearGradient><path fill="url(#Sl7OV3QKSfpbxtgCXh8N_a)" d="M38.999,23H38v9h1.333c0.975,0,1.808-0.703,1.972-1.664l0.653-3.832	C42.269,24.672,40.857,23,38.999,23z"/><linearGradient id="Sl7OV3QKSfpbxtgCXh8N_b" x1="5.952" x2="9.065" y1="27.5" y2="27.5" gradientUnits="userSpaceOnUse"><stop offset="0" stop-color="#0f5695"/><stop offset="1" stop-color="#134575"/></linearGradient><path fill="url(#Sl7OV3QKSfpbxtgCXh8N_b)" d="M9.001,23H10v9H8.667c-0.975,0-1.808-0.703-1.972-1.664l-0.653-3.832	C5.731,24.672,7.143,23,9.001,23z"/><radialGradient id="Sl7OV3QKSfpbxtgCXh8N_c" cx="24.687" cy="23.28" r="19.745" gradientUnits="userSpaceOnUse"><stop offset="0" stop-color="#0370c8"/><stop offset=".484" stop-color="#036fc5"/><stop offset=".775" stop-color="#036abd"/><stop offset="1" stop-color="#0362b0"/></radialGradient><path fill="url(#Sl7OV3QKSfpbxtgCXh8N_c)" d="M24,4C16.598,4,9,7,9,21c0,1.281,0,8.92,0,10.288C9,37,18,44,24,44s15-7,15-12.712	c0-1.368,0-9.007,0-10.288C39,7,31.402,4,24,4z"/><radialGradient id="Sl7OV3QKSfpbxtgCXh8N_d" cx="24" cy="24" r="3" gradientUnits="userSpaceOnUse"><stop offset="0"/><stop offset="1" stop-opacity="0"/></radialGradient><circle cx="24" cy="24" r="3" fill="url(#Sl7OV3QKSfpbxtgCXh8N_d)" opacity=".3"/><circle cx="24" cy="24" r="2" fill="#fff"/><radialGradient id="Sl7OV3QKSfpbxtgCXh8N_e" cx="31" cy="24" r="3" gradientUnits="userSpaceOnUse"><stop offset="0"/><stop offset="1" stop-opacity="0"/></radialGradient><circle cx="31" cy="24" r="3" fill="url(#Sl7OV3QKSfpbxtgCXh8N_e)" opacity=".3"/><circle cx="31" cy="24" r="2" fill="#fff"/><radialGradient id="Sl7OV3QKSfpbxtgCXh8N_f" cx="17" cy="24" r="3" gradientUnits="userSpaceOnUse"><stop offset="0"/><stop offset="1" stop-opacity="0"/></radialGradient><circle cx="17" cy="24" r="3" fill="url(#Sl7OV3QKSfpbxtgCXh8N_f)" opacity=".3"/><circle cx="17" cy="24" r="2" fill="#fff"/></svg>