<svg xmlns="http://www.w3.org/2000/svg" viewBox="0 0 48 48"><linearGradient id="g5LaOH~NL~EUE2I20gQHca" x1="24" x2="24" y1="6.059" y2="27.535" gradientUnits="userSpaceOnUse"><stop offset="0" stop-color="#3079d6"/><stop offset=".764" stop-color="#297cd2"/><stop offset=".992" stop-color="#3366b7"/></linearGradient><path fill="url(#g5LaOH~NL~EUE2I20gQHca)" d="M39,34h-4V21c0-6.065-4.935-11-11-11s-11,4.935-11,11v13H9V21c0-8.271,6.729-15,15-15	s15,6.729,15,15V34z"/><linearGradient id="g5LaOH~NL~EUE2I20gQHcb" x1="10.5" x2="10.5" y1="25.471" y2="46.005" gradientUnits="userSpaceOnUse"><stop offset=".011" stop-color="#42a3f2"/><stop offset="1" stop-color="#42a4eb"/></linearGradient><path fill="url(#g5LaOH~NL~EUE2I20gQHcb)" d="M17,27v15c0,1.1-0.9,2-2,2h-2v-0.01c-5.02-0.26-9-4.41-9-9.49c0-5.08,3.98-9.23,9-9.49V25h2	C16.1,25,17,25.9,17,27z"/><linearGradient id="g5LaOH~NL~EUE2I20gQHcc" x1="37.5" x2="37.5" y1="25.471" y2="46.005" gradientUnits="userSpaceOnUse"><stop offset=".011" stop-color="#42a3f2"/><stop offset="1" stop-color="#42a4eb"/></linearGradient><path fill="url(#g5LaOH~NL~EUE2I20gQHcc)" d="M44,34.5c0,5.08-3.98,9.23-9,9.49V44h-2c-1.1,0-2-0.9-2-2V27c0-1.1,0.9-2,2-2h2v0.01	C40.02,25.27,44,29.42,44,34.5z"/><linearGradient id="g5LaOH~NL~EUE2I20gQHcd" x1="15.5" x2="15.5" y1="26.294" y2="44.137" gradientUnits="userSpaceOnUse"><stop offset="0" stop-color="#3079d6"/><stop offset="1" stop-color="#297cd2"/></linearGradient><path fill="url(#g5LaOH~NL~EUE2I20gQHcd)" d="M17,27v15c0,1.1-0.9,2-2,2h-1V25h1C16.1,25,17,25.9,17,27z"/><linearGradient id="g5LaOH~NL~EUE2I20gQHce" x1="32.5" x2="32.5" y1="26.294" y2="44.137" gradientUnits="userSpaceOnUse"><stop offset="0" stop-color="#3079d6"/><stop offset="1" stop-color="#297cd2"/></linearGradient><path fill="url(#g5LaOH~NL~EUE2I20gQHce)" d="M34,25v19h-1c-1.1,0-2-0.9-2-2V27c0-1.1,0.9-2,2-2H34z"/></svg>