<svg xmlns="http://www.w3.org/2000/svg" viewBox="0 0 48 48"><linearGradient id="7vlyeG1r4Uh0DSAZGICTKa" x1="31" x2="41" y1="-728" y2="-728" gradientTransform="matrix(1 0 0 -1 0 -704)" gradientUnits="userSpaceOnUse"><stop offset="0" stop-color="#ffcf54"/><stop offset=".261" stop-color="#fdcb4d"/><stop offset=".639" stop-color="#f7c13a"/><stop offset="1" stop-color="#f0b421"/></linearGradient><path fill="url(#7vlyeG1r4Uh0DSAZGICTKa)" d="M31,24c0,2.76,2.238,5,4.997,5C38.764,29,41,26.76,41,24s-2.236-5-5.002-5	C33.238,19,31,21.24,31,24z"/><linearGradient id="7vlyeG1r4Uh0DSAZGICTKb" x1="11.519" x2="29.902" y1="23.019" y2="41.402" gradientUnits="userSpaceOnUse"><stop offset="0" stop-color="#ffcf54"/><stop offset=".261" stop-color="#fdcb4d"/><stop offset=".639" stop-color="#f7c13a"/><stop offset="1" stop-color="#f0b421"/></linearGradient><polygon fill="url(#7vlyeG1r4Uh0DSAZGICTKb)" points="12,33 25,25 30,35 12,35"/><linearGradient id="7vlyeG1r4Uh0DSAZGICTKc" x1="14.223" x2="36.282" y1="18.223" y2="40.283" gradientUnits="userSpaceOnUse"><stop offset="0" stop-color="#ffcf54"/><stop offset=".261" stop-color="#fdcb4d"/><stop offset=".639" stop-color="#f7c13a"/><stop offset="1" stop-color="#f0b421"/></linearGradient><path fill="url(#7vlyeG1r4Uh0DSAZGICTKc)" d="M21,30c0,2.76,2.238,5,4.997,5C28.764,35,31,32.76,31,30s-2.236-5-5.002-5	C23.238,25,21,27.24,21,30z"/><linearGradient id="7vlyeG1r4Uh0DSAZGICTKd" x1="9.723" x2="31.782" y1="22.723" y2="44.783" gradientUnits="userSpaceOnUse"><stop offset="0" stop-color="#ffcf54"/><stop offset=".261" stop-color="#fdcb4d"/><stop offset=".639" stop-color="#f7c13a"/><stop offset="1" stop-color="#f0b421"/></linearGradient><path fill="url(#7vlyeG1r4Uh0DSAZGICTKd)" d="M8,23c0,1.104,0.895,2,1.999,2C11.106,25,12,24.104,12,23s-0.894-2-2.001-2	C8.895,21,8,21.896,8,23z"/><linearGradient id="7vlyeG1r4Uh0DSAZGICTKe" x1="13.58" x2="35.64" y1="18.865" y2="40.925" gradientUnits="userSpaceOnUse"><stop offset="0" stop-color="#ffcf54"/><stop offset=".261" stop-color="#fdcb4d"/><stop offset=".639" stop-color="#f7c13a"/><stop offset="1" stop-color="#f0b421"/></linearGradient><path fill="url(#7vlyeG1r4Uh0DSAZGICTKe)" d="M9.257,21.144l10.486-3.7c0.761-0.269,1.61-0.053,2.15,0.546l7.709,8.544L22,27l-2-4	l-9.533,1.944L9.257,21.144z"/><linearGradient id="7vlyeG1r4Uh0DSAZGICTKf" x1="24" x2="24" y1="-5209.946" y2="-5220.994" gradientTransform="matrix(1 0 0 -1 0 -5178)" gradientUnits="userSpaceOnUse"><stop offset="0" stop-color="#2aa4f4"/><stop offset="1" stop-color="#007ad9"/></linearGradient><path fill="url(#7vlyeG1r4Uh0DSAZGICTKf)" d="M42,33c-1.657,0-3-1-3-1s-1.343,1-3,1s-3-1-3-1s-1.343,1-3,1s-3-1-3-1s-1.343,1-3,1s-3-1-3-1	s-1.343,1-3,1s-3-1-3-1s-1.343,1-3,1s-3-1-3-1s-1.343,1-3,1s-3-1-3-1v9c0,1.105,0.895,2,2,2h38c1.105,0,2-0.895,2-2v-9	C45,32,43.657,33,42,33z"/></svg>