<svg xmlns="http://www.w3.org/2000/svg" viewBox="0 0 48 48"><path fill="#666" d="M19,7h-4.131c-0.554,0-1.084,0.23-1.462,0.635L0,22v6l14-15h5c0.552,0,1-0.448,1-1V8	C20,7.448,19.552,7,19,7z"/><path fill="#666" d="M33.131,7H29c-0.552,0-1,0.448-1,1v4c0,0.552,0.448,1,1,1h5l14,15v-6L34.593,7.635	C34.215,7.23,33.685,7,33.131,7z"/><path fill="#999" d="M48,22H0v6h1c1.105,0,2,0.895,2,2v5c0,2.761,2.239,5,5,5h8c2.761,0,5-2.239,5-5l0-6.83	c0-1.624,1.216-3.081,2.839-3.166C25.569,24.914,27,26.29,27,28v7c0,2.761,2.239,5,5,5h8c2.761,0,5-2.239,5-5v-5	c0-1.105,0.895-2,2-2h1V22z"/><path fill="#d9414f" d="M18,25H6c-0.552,0-1,0.448-1,1v9c0,1.657,1.343,3,3,3h8c1.657,0,3-1.343,3-3v-9	C19,25.448,18.552,25,18,25z"/><linearGradient id="tvr0xqEPrPYfFRQwSXgG9a" x1="29" x2="43" y1="31.5" y2="31.5" gradientUnits="userSpaceOnUse"><stop offset="0" stop-color="#3079d6"/><stop offset="1" stop-color="#297cd2"/></linearGradient><path fill="url(#tvr0xqEPrPYfFRQwSXgG9a)" d="M42,25H30c-0.552,0-1,0.448-1,1v9c0,1.657,1.343,3,3,3h8c1.657,0,3-1.343,3-3v-9	C43,25.448,42.552,25,42,25z"/></svg>