<svg xmlns="http://www.w3.org/2000/svg" viewBox="0 0 48 48"><radialGradient id="prkW1H3mQ7W4HejM3Bxrka" cx="50.884" cy="37.696" r="26.626" gradientUnits="userSpaceOnUse"><stop offset="0" stop-color="#bd8af5"/><stop offset=".137" stop-color="#b88bf5"/><stop offset=".309" stop-color="#a88ff3"/><stop offset=".499" stop-color="#8f96f2"/><stop offset=".702" stop-color="#6b9eef"/><stop offset=".913" stop-color="#3eaaec"/><stop offset="1" stop-color="#29afea"/></radialGradient><path fill="url(#prkW1H3mQ7W4HejM3Bxrka)" d="M43,8H5c-1.105,0-2,0.895-2,2v29c0,1.105,0.895,2,2,2h14l3.29,3.29 c0.944,0.944,2.476,0.944,3.42,0L29,41h14c1.105,0,2-0.895,2-2V10C45,8.895,44.105,8,43,8z"/><path fill="#fff" d="M41,16h-2c-0.552,0-1-0.448-1-1v-2c0-0.552,0.448-1,1-1h2c0.552,0,1,0.448,1,1v2	C42,15.552,41.552,16,41,16z"/><path fill="#fff" d="M41,23h-2c-0.552,0-1-0.448-1-1v-2c0-0.552,0.448-1,1-1h2c0.552,0,1,0.448,1,1v2	C42,22.552,41.552,23,41,23z"/><path fill="#fff" d="M41,30h-2c-0.552,0-1-0.448-1-1v-2c0-0.552,0.448-1,1-1h2c0.552,0,1,0.448,1,1v2	C42,29.552,41.552,30,41,30z"/><path fill="#fff" d="M41,37h-2c-0.552,0-1-0.448-1-1v-2c0-0.552,0.448-1,1-1h2c0.552,0,1,0.448,1,1v2	C42,36.552,41.552,37,41,37z"/><path fill="#fff" d="M9,16H7c-0.552,0-1-0.448-1-1v-2c0-0.552,0.448-1,1-1h2c0.552,0,1,0.448,1,1v2	C10,15.552,9.552,16,9,16z"/><path fill="#fff" d="M9,23H7c-0.552,0-1-0.448-1-1v-2c0-0.552,0.448-1,1-1h2c0.552,0,1,0.448,1,1v2	C10,22.552,9.552,23,9,23z"/><path fill="#fff" d="M9,30H7c-0.552,0-1-0.448-1-1v-2c0-0.552,0.448-1,1-1h2c0.552,0,1,0.448,1,1v2	C10,29.552,9.552,30,9,30z"/><path fill="#fff" d="M9,37H7c-0.552,0-1-0.448-1-1v-2c0-0.552,0.448-1,1-1h2c0.552,0,1,0.448,1,1v2	C10,36.552,9.552,37,9,37z"/></svg>