<svg xmlns="http://www.w3.org/2000/svg" viewBox="0 0 48 48"><linearGradient id="sE4SaOn_ccZeJO08IfQ0ma" x1="37" x2="43" y1="25" y2="25" gradientUnits="userSpaceOnUse"><stop offset="0" stop-color="#ffcf54"/><stop offset=".261" stop-color="#fdcb4d"/><stop offset=".639" stop-color="#f7c13a"/><stop offset="1" stop-color="#f0b421"/></linearGradient><circle cx="40" cy="25" r="3" fill="url(#sE4SaOn_ccZeJO08IfQ0ma)"/><path fill="#35c1f1" d="M36.64,23.16L36.5,23C34,21,34,10,34,10h-2v17.5c0,2.49,2.01,4.5,4.5,4.5c2.36,0,4.29-1.8,4.48-4.11	L36.64,23.16z"/><linearGradient id="sE4SaOn_ccZeJO08IfQ0mb" x1="25" x2="38" y1="9.25" y2="9.25" gradientUnits="userSpaceOnUse"><stop offset="0" stop-color="#f44f5a"/><stop offset=".443" stop-color="#ee3d4a"/><stop offset="1" stop-color="#e52030"/></linearGradient><path fill="url(#sE4SaOn_ccZeJO08IfQ0mb)" d="M25,11.5l12.582-1.505c0.576-0.096,0.548-0.933-0.032-0.991L25,7V11.5z"/><circle cx="22" cy="9" r="4" fill="#cdd2d6"/><linearGradient id="sE4SaOn_ccZeJO08IfQ0mc" x1="22" x2="24" y1="8" y2="8" gradientUnits="userSpaceOnUse"><stop offset=".002" stop-color="#454545"/><stop offset=".013" stop-color="#464646"/><stop offset=".562" stop-color="#626262"/><stop offset="1" stop-color="#6d6d6d"/></linearGradient><circle cx="23" cy="8" r="1" fill="url(#sE4SaOn_ccZeJO08IfQ0mc)"/><path fill="#cdd2d6" d="M28.968,25c-0.317-5.633-3.288-8.403-5.706-10.649C21.179,12.414,20,11.209,20,9h2V5l-6-1v5	c0,0.488,0.041,0.95,0.104,1.396c0.008,0.055,0.021,0.106,0.031,0.161C17.068,16.386,23,18.735,23,21.5c0,3-3.75,3.5-5,3.5h-0.659	c-6.958,0-11.789,6.928-9.383,13.457l1.801,4.889C9.904,43.739,10.278,44,10.697,44H13c8.837,0,16-7.163,16-16v-3H28.968z"/><linearGradient id="sE4SaOn_ccZeJO08IfQ0md" x1="12.815" x2="-.709" y1="41.907" y2="28.383" gradientUnits="userSpaceOnUse"><stop offset=".002" stop-color="#454545"/><stop offset=".013" stop-color="#464646"/><stop offset=".562" stop-color="#626262"/><stop offset="1" stop-color="#6d6d6d"/></linearGradient><path fill="url(#sE4SaOn_ccZeJO08IfQ0md)" d="M17.3,38.99c-3.69,2.09-8.57,2.53-11.17,3.02c-0.69,0.13-1.27-0.45-1.14-1.14	c0.49-2.6,0.93-7.48,3.02-11.17C8,29.8,8,29.9,8,30c0,4.97,4.03,9,9,9C17.1,39,17.2,39,17.3,38.99z"/><linearGradient id="sE4SaOn_ccZeJO08IfQ0me" x1="10.114" x2="25.615" y1="25.227" y2="40.728" gradientUnits="userSpaceOnUse"><stop offset="0" stop-color="#f9f9f9"/><stop offset="1" stop-color="#c2c8cc"/></linearGradient><path fill="url(#sE4SaOn_ccZeJO08IfQ0me)" d="M19.65,37.25c-0.69,0.69-1.48,1.26-2.35,1.74C17.2,39,17.1,39,17,39c-4.97,0-9-4.03-9-9	c0-0.1,0-0.2,0.01-0.3c0.48-0.87,1.05-1.66,1.74-2.35c3.76-3.76,8.77-4.33,11.5-1.6C23.98,28.48,23.41,33.49,19.65,37.25z"/><path d="M21.96,25.04c-0.27-0.27-0.56-0.51-0.87-0.72c-0.18,0.08-0.36,0.16-0.55,0.23c-0.21,0.08-0.43,0.15-0.65,0.2 c0.49,0.26,0.95,0.59,1.36,1c2.73,2.73,2.16,7.74-1.6,11.5c-0.69,0.69-1.48,1.26-2.35,1.74c-2.55,1.44-5.67,2.1-8.21,2.53 l0.17,0.47l0.18,0.49c2.6-0.45,5.72-1.12,8.35-2.62c0.99-0.55,1.83-1.17,2.57-1.9C24.43,33.89,25.13,28.22,21.96,25.04z" opacity=".05"/><path d="M21.6,25.4c-0.32-0.32-0.68-0.61-1.06-0.85c-0.21,0.08-0.43,0.15-0.65,0.2c0.49,0.26,0.95,0.59,1.36,1 c2.73,2.73,2.16,7.74-1.6,11.5c-0.69,0.69-1.48,1.26-2.35,1.74c-2.55,1.44-5.67,2.1-8.21,2.53l0.17,0.47 c2.58-0.43,5.69-1.09,8.29-2.56C18.5,38.9,19.3,38.3,20,37.6C23.87,33.73,24.58,28.37,21.6,25.4z" opacity=".07"/></svg>