<svg xmlns="http://www.w3.org/2000/svg" viewBox="0 0 48 48"><linearGradient id="35_RTdmcbzOMUf6Ho_qmfa" x1="11.705" x2="19.39" y1="7.811" y2="43.002" gradientUnits="userSpaceOnUse"><stop offset="0" stop-color="#32bdef"/><stop offset="1" stop-color="#1ea2e4"/></linearGradient><path fill="url(#35_RTdmcbzOMUf6Ho_qmfa)" d="M16.104,8.026c-0.455-0.117-0.93,0.097-1.142,0.517c-1.03,2.041-4.007,8.137-4.902,11.625 c-0.85,3.307-0.856,8.23,1.458,10.857c1.44,2.326,0.634,5.24,0.634,5.24l-0.194,0.75c-0.204,0.791-0.869,1.378-1.686,1.461 l-3.851,0.54c-0.238,0.039-0.423,0.236-0.423,0.484c0,0.223,0.149,0.406,0.351,0.47c0,0,11.105,3.03,11.15,3.03 c0.276,0,0.5-0.224,0.5-0.5c0-0.153-0.072-0.284-0.18-0.376l0.003-0.005c0,0-1.879-1.55-3.172-2.498 c-0.657-0.481-0.948-1.317-0.745-2.106l0.192-0.747c0,0,0.759-3.01,3.062-4.277c3.315-1.168,5.711-5.49,6.531-8.815 c0.862-3.495,1.255-10.251,1.346-12.537c0.019-0.471-0.293-0.889-0.75-1.007L16.104,8.026z"/><linearGradient id="35_RTdmcbzOMUf6Ho_qmfb" x1="26.637" x2="40.795" y1="6.039" y2="41.5" gradientUnits="userSpaceOnUse"><stop offset="0" stop-color="#32bdef"/><stop offset="1" stop-color="#1ea2e4"/></linearGradient><path fill="url(#35_RTdmcbzOMUf6Ho_qmfb)" d="M44,37.486c0-0.251-0.188-0.45-0.43-0.486l-4.523-0.938 c-0.785-0.163-1.397-0.779-1.555-1.565l-0.261-1.3c0,0-0.643-2.821,0.838-4.984c2.338-2.41,2.553-7.127,1.885-10.334 c-0.699-3.361-3.265-9.248-4.172-11.275c-0.192-0.429-0.655-0.664-1.115-0.568L26.8,7.675c-0.461,0.096-0.793,0.497-0.796,0.968 c-0.016,2.221,0.069,8.618,0.736,11.986c0.637,3.218,2.735,7.456,5.855,8.728c2.158,1.312,2.746,4.234,2.746,4.234l0.25,1.238 c0.165,0.817-0.193,1.65-0.899,2.092l-3.398,2.127C31.121,39.127,31,39.298,31,39.5c0,0.276,0.224,0.5,0.5,0.5 c0.034,0,0.098-0.01,0.098-0.01l11.986-2.022C43.819,37.928,44,37.732,44,37.486z"/><linearGradient id="35_RTdmcbzOMUf6Ho_qmfc" x1="33.239" x2="33.29" y1="15.46" y2="30.682" gradientUnits="userSpaceOnUse"><stop offset="0" stop-color="#f09801"/><stop offset="1" stop-color="#e36001"/></linearGradient><path fill="url(#35_RTdmcbzOMUf6Ho_qmfc)" d="M39.459,16.002L26.212,16c0.103,1.704,0.278,3.371,0.527,4.629 c0.819,4.139,4.048,9.99,8.77,9.007c4.72-0.981,5.306-7.629,4.446-11.757C39.837,17.313,39.664,16.674,39.459,16.002z"/><linearGradient id="35_RTdmcbzOMUf6Ho_qmfd" x1="17.068" x2="16.967" y1="17.49" y2="32.962" gradientUnits="userSpaceOnUse"><stop offset="0" stop-color="#f09801"/><stop offset="1" stop-color="#e36001"/></linearGradient><path fill="url(#35_RTdmcbzOMUf6Ho_qmfd)" d="M10.747,18.002c-0.282,0.777-0.519,1.516-0.686,2.166 c-1.096,4.259-0.809,11.218,4.061,12.469c4.869,1.254,8.517-4.688,9.57-8.961c0.373-1.514,0.683-3.565,0.861-5.674H10.747z"/><circle cx="20" cy="21" r="1" fill="#ffa000"/><circle cx="13" cy="24" r="1" fill="#ffa000"/><circle cx="14.5" cy="20.5" r=".5" fill="#ffa000"/><circle cx="20.5" cy="24.5" r=".5" fill="#ffa000"/><circle cx="17.5" cy="25.5" r=".5" fill="#ffa000"/><circle cx="29.5" cy="18.5" r=".5" fill="#ffa000"/><circle cx="37.5" cy="20.5" r=".5" fill="#ffa000"/><circle cx="30.5" cy="21.5" r=".5" fill="#ffa000"/><circle cx="36.5" cy="24.5" r=".5" fill="#ffa000"/><circle cx="15" cy="29" r="1" fill="#ffa000"/><circle cx="34" cy="19" r="1" fill="#ffa000"/><circle cx="32" cy="25" r="1" fill="#ffa000"/></svg>