<svg xmlns="http://www.w3.org/2000/svg" viewBox="0 0 48 48"><path fill="#107c42" d="M6.974,27.83c-0.503,0-0.937-0.378-0.993-0.89c-0.061-0.549,0.335-1.043,0.884-1.104l8.688-0.965	l7.764-6.794c0.09-0.079,0.194-0.142,0.307-0.184l7.798-2.924l7.847-7.847c0.391-0.391,1.023-0.391,1.414,0	c0.391,0.391,0.391,1.023,0,1.414l-8,8c-0.101,0.101-0.223,0.179-0.355,0.229l-7.83,2.936l-7.863,6.881	c-0.153,0.134-0.345,0.219-0.548,0.241l-9,1C7.048,27.828,7.01,27.83,6.974,27.83z"/><path fill="#61e3a7" d="M43.975,19.83v24h-8v-24c0-0.552,0.448-1,1-1h6C43.527,18.83,43.975,19.278,43.975,19.83z"/><path fill="#33c481" d="M35.975,25.83v18h-8v-17c0-0.552,0.448-1,1-1H35.975z"/><path fill="#21a366" d="M27.975,29.83v14h-8v-13c0-0.552,0.448-1,1-1H27.975z"/><path fill="#107c42" d="M19.975,33.83v10h-8v-9c0-0.552,0.448-1,1-1H19.975z"/><path fill="#185c37" d="M11.975,37.83v6h-8v-5c0-0.552,0.448-1,1-1H11.975z"/><circle cx="31.975" cy="15.83" r="2" fill="#33c481"/><circle cx="23.975" cy="18.83" r="2" fill="#33c481"/><circle cx="15.975" cy="25.83" r="2" fill="#33c481"/><circle cx="6.975" cy="26.83" r="2" fill="#33c481"/><path fill="#33c481" d="M40.989,11.746l0.856-5.135c0.064-0.383-0.268-0.715-0.651-0.651l-5.135,0.856	c-0.454,0.076-0.632,0.633-0.307,0.958l4.279,4.279C40.356,12.378,40.913,12.2,40.989,11.746z"/><linearGradient id="oOAV5HsfO5ngtx_3bqVs2a" x1="4" x2="18" y1="12" y2="12" gradientUnits="userSpaceOnUse"><stop offset="0" stop-color="#fede00"/><stop offset="1" stop-color="#ffd000"/></linearGradient><circle cx="11" cy="12" r="7" fill="url(#oOAV5HsfO5ngtx_3bqVs2a)"/><circle cx="11" cy="12" r="5" fill="#f5be00"/><path fill="#fee119" d="M12.917,14.787H9.184v-1.029h1.222v-3.675l-1.255,0.272V9.301l2.551-0.514v4.971h1.214V14.787z"/></svg>