<svg xmlns="http://www.w3.org/2000/svg" viewBox="0 0 48 48"><linearGradient id="QzDfWHZxsDlR9iiDmjsHta" x1="24" x2="24" y1="-1.336" y2="58.63" gradientUnits="userSpaceOnUse"><stop offset="0" stop-color="#f44f5a"/><stop offset=".443" stop-color="#ee3d4a"/><stop offset="1" stop-color="#e52030"/></linearGradient><path fill="url(#QzDfWHZxsDlR9iiDmjsHta)" d="M34.414,20.431l-4.828-4.828C29.211,15.227,29,14.719,29,14.188V4.017H19v10.172	c0,0.53-0.211,1.039-0.586,1.414l-4.828,4.828C13.211,20.806,13,21.315,13,21.845v21.172c0,1.105,0.895,2,2,2h18	c1.105,0,2-0.895,2-2V21.845C35,21.315,34.789,20.806,34.414,20.431z"/><path fill="#b31523" d="M29,2.017H19c-0.552,0-1,0.448-1,1v2c0,0.552,0.448,1,1,1h10c0.552,0,1-0.448,1-1v-2	C30,2.464,29.552,2.017,29,2.017z"/><circle cx="24" cy="10.017" r="2" fill="#b31523"/><rect width="10" height="2" x="19" y="9.017" fill="#b31523"/><path fill="#b31523" d="M27.482,22.017h-6.964c-0.572,0-1.069,0.39-1.165,0.93c-0.164,0.919-0.786,1.688-1.624,2.011	c-0.506,0.195-0.798,0.702-0.716,1.219l1.732,10.87c0.089,0.558,0.59,0.97,1.179,0.97h8.151c0.589,0,1.09-0.412,1.179-0.97	l1.732-10.87c0.082-0.516-0.21-1.024-0.716-1.219c-0.838-0.323-1.459-1.093-1.624-2.011C28.55,22.406,28.054,22.017,27.482,22.017z"/></svg>