<svg xmlns="http://www.w3.org/2000/svg" xmlns:xlink="http://www.w3.org/1999/xlink" data-name="Layer 1" viewBox="0 0 48 48"><defs><linearGradient id="VkzxCQiHqnJvDij~b4EvMc" x1="24" x2="24" y1="-283.98" y2="-266.172" data-name="Безымянный градиент 103" gradientTransform="matrix(1 0 0 -1 0 -240)" gradientUnits="userSpaceOnUse"><stop offset="0" stop-color="#21ad64"/><stop offset="1" stop-color="#088242"/></linearGradient><linearGradient id="VkzxCQiHqnJvDij~b4EvMd" x1="19.771" x2="26.096" y1="-242.731" y2="-268.557" data-name="Безымянный градиент 102" gradientTransform="matrix(1 0 0 -1 0 -240)" gradientUnits="userSpaceOnUse"><stop offset="0" stop-color="#9dffce"/><stop offset="1" stop-color="#50d18d"/></linearGradient><linearGradient id="VkzxCQiHqnJvDij~b4EvMa" x1="18.5" x2="18.5" y1="16.132" y2="4.924" data-name="Безымянный градиент 9" gradientUnits="userSpaceOnUse"><stop offset=".002" stop-color="#454545"/><stop offset=".013" stop-color="#464646"/><stop offset=".874" stop-color="#626262"/><stop offset="1" stop-color="#6d6d6d"/></linearGradient><linearGradient id="VkzxCQiHqnJvDij~b4EvMe" x1="29.5" x2="29.5" y1="16.132" y2="4.924" xlink:href="#VkzxCQiHqnJvDij~b4EvMa"/><linearGradient id="VkzxCQiHqnJvDij~b4EvMb" x1="18" x2="18" y1="11.235" y2="16.882" data-name="Безымянный градиент 8" gradientUnits="userSpaceOnUse"><stop offset="0" stop-color="#f9f9f9"/><stop offset="1" stop-color="#c2c8cc"/></linearGradient><linearGradient id="VkzxCQiHqnJvDij~b4EvMf" x1="29" x2="29" y1="11.235" y2="16.882" xlink:href="#VkzxCQiHqnJvDij~b4EvMb"/><linearGradient id="VkzxCQiHqnJvDij~b4EvMg" x1="24" x2="24" y1="24.353" y2="12.614" xlink:href="#VkzxCQiHqnJvDij~b4EvMa"/></defs><path fill="url(#VkzxCQiHqnJvDij~b4EvMc)" d="M13.565,24.87a40.92,40.92,0,0,1,5.377,17.252A1.99562,1.99562,0,0,0,20.932,44h6.12a2.00236,2.00236,0,0,0,1.993-1.91c.525-10.811,5.389-15.481,5.389-15.481ZM25,38a90.363,90.363,0,0,0-2.739-11.391L27,26S25,33,25,38Z"/><path fill="url(#VkzxCQiHqnJvDij~b4EvMd)" d="M37.816,11.184A8.98727,8.98727,0,0,0,23.555,5.846,8.98946,8.98946,0,0,0,8.003,11.945a8.9907,8.9907,0,0,0,6.991,16.534A8.996,8.996,0,0,0,25,28.482a8.98277,8.98277,0,0,0,9.396.367,8.99712,8.99712,0,0,0,3.42-17.665Z"/><circle cx="18.5" cy="14.5" r="2.5" fill="url(#VkzxCQiHqnJvDij~b4EvMa)"/><circle cx="29.5" cy="14.5" r="2.5" fill="url(#VkzxCQiHqnJvDij~b4EvMe)"/><circle cx="18" cy="14" r="1" fill="url(#VkzxCQiHqnJvDij~b4EvMb)"/><circle cx="29" cy="14" r="1" fill="url(#VkzxCQiHqnJvDij~b4EvMf)"/><circle cx="14" cy="20" r="2" fill="#eb6773"/><circle cx="34" cy="20" r="2" fill="#eb6773"/><path fill="url(#VkzxCQiHqnJvDij~b4EvMg)" d="M24,24a4.004,4.004,0,0,1-4-4,1,1,0,0,1,2,0,2,2,0,0,0,4,0,1,1,0,0,1,2,0A4.004,4.004,0,0,1,24,24Z"/></svg>