<svg xmlns="http://www.w3.org/2000/svg" viewBox="0 0 48 48"><path fill="#50e6ff" d="M39,16v25c0,1.105-0.895,2-2,2H11c-1.105,0-2-0.895-2-2V7c0-1.105,0.895-2,2-2h17L39,16z"/><linearGradient id="Qh0P3kkppURJtUypm8~x6a" x1="28.529" x2="33.6" y1="102.528" y2="107.6" gradientTransform="matrix(1 0 0 -1 0 118)" gradientUnits="userSpaceOnUse"><stop offset="0" stop-color="#3079d6"/><stop offset="1" stop-color="#297cd2"/></linearGradient><path fill="url(#Qh0P3kkppURJtUypm8~x6a)" d="M28,5v9c0,1.105,0.895,2,2,2h9L28,5z"/><linearGradient id="Qh0P3kkppURJtUypm8~x6b" x1="15" x2="30.551" y1="90" y2="90" gradientTransform="matrix(1 0 0 -1 0 118)" gradientUnits="userSpaceOnUse"><stop offset="0" stop-color="#42a3f2"/><stop offset="1" stop-color="#42a4eb"/></linearGradient><path fill="url(#Qh0P3kkppURJtUypm8~x6b)" d="M24,19c-4.949,0-9,4.051-9,9s4.051,9,9,9c2.6,0,4.949-1.1,6.551-2.849L24,28V19z"/><linearGradient id="Qh0P3kkppURJtUypm8~x6c" x1="24" x2="33" y1="94.5" y2="94.5" gradientTransform="matrix(1 0 0 -1 0 118)" gradientUnits="userSpaceOnUse"><stop offset="0" stop-color="#3079d6"/><stop offset="1" stop-color="#297cd2"/></linearGradient><path fill="url(#Qh0P3kkppURJtUypm8~x6c)" d="M33,28c0-4.949-4.051-9-9-9v9H33z"/><linearGradient id="Qh0P3kkppURJtUypm8~x6d" x1="24" x2="33" y1="86.925" y2="86.925" gradientTransform="matrix(1 0 0 -1 0 118)" gradientUnits="userSpaceOnUse"><stop offset="0" stop-color="#1d59b3"/><stop offset="1" stop-color="#195bbc"/></linearGradient><path fill="url(#Qh0P3kkppURJtUypm8~x6d)" d="M24,28l6.551,6.151C32.051,32.551,33,30.4,33,28H24z"/><radialGradient id="Qh0P3kkppURJtUypm8~x6e" cx="38.003" cy="38.011" r="11.764" gradientUnits="userSpaceOnUse"><stop offset=".348"/><stop offset=".936" stop-opacity=".098"/><stop offset="1" stop-opacity="0"/></radialGradient><path fill="url(#Qh0P3kkppURJtUypm8~x6e)" d="M38,26c-6.627,0-12,5.373-12,12c0,1.787,0.401,3.476,1.102,5H37	c1.105,0,2-0.895,2-2V26.05C38.669,26.023,38.338,26,38,26z" opacity=".3"/><linearGradient id="Qh0P3kkppURJtUypm8~x6f" x1="30.929" x2="45.071" y1="30.929" y2="45.071" gradientUnits="userSpaceOnUse"><stop offset="0" stop-color="#f44f5a"/><stop offset=".443" stop-color="#ee3d4a"/><stop offset="1" stop-color="#e52030"/></linearGradient><path fill="url(#Qh0P3kkppURJtUypm8~x6f)" d="M48,38c0,5.522-4.478,10-10,10s-10-4.478-10-10s4.478-10,10-10S48,32.478,48,38z"/><path fill="#fff" d="M41.536,33.757l0.707,0.707c0.195,0.195,0.195,0.512,0,0.707l-7.071,7.071	c-0.195,0.195-0.512,0.195-0.707,0l-0.707-0.707c-0.195-0.195-0.195-0.512,0-0.707l7.071-7.071	C41.024,33.562,41.34,33.562,41.536,33.757z"/><path fill="#fff" d="M42.243,41.536l-0.707,0.707c-0.195,0.195-0.512,0.195-0.707,0l-7.071-7.071	c-0.195-0.195-0.195-0.512,0-0.707l0.707-0.707c0.195-0.195,0.512-0.195,0.707,0l7.071,7.071	C42.438,41.024,42.438,41.34,42.243,41.536z"/></svg>