<svg xmlns="http://www.w3.org/2000/svg" viewBox="0 0 48 48"><radialGradient id="e0d29DoB~20GvNC3~nLY7a" cx="19.565" cy="12.451" r="3.729" gradientUnits="userSpaceOnUse"><stop offset="0" stop-color="#dfe9f2"/><stop offset=".391" stop-color="#d6e0e9"/><stop offset="1" stop-color="#bfc8d1"/></radialGradient><path fill="url(#e0d29DoB~20GvNC3~nLY7a)" d="M17.5,15H16v-5h1.5c1.381,0,2.5,1.119,2.5,2.5v0C20,13.881,18.881,15,17.5,15z"/><radialGradient id="e0d29DoB~20GvNC3~nLY7b" cx="31.065" cy="12.451" r="3.729" gradientTransform="rotate(180 29.75 12.5)" gradientUnits="userSpaceOnUse"><stop offset="0" stop-color="#dfe9f2"/><stop offset=".391" stop-color="#d6e0e9"/><stop offset="1" stop-color="#bfc8d1"/></radialGradient><path fill="url(#e0d29DoB~20GvNC3~nLY7b)" d="M30.5,10H32v5h-1.5c-1.381,0-2.5-1.119-2.5-2.5v0C28,11.119,29.119,10,30.5,10z"/><linearGradient id="e0d29DoB~20GvNC3~nLY7c" x1="14.623" x2="36.688" y1="-6.485" y2="54.137" gradientUnits="userSpaceOnUse"><stop offset="0" stop-color="#6d6d6d"/><stop offset=".126" stop-color="#626262"/><stop offset=".886" stop-color="#464646"/><stop offset="1" stop-color="#454545"/></linearGradient><path fill="url(#e0d29DoB~20GvNC3~nLY7c)" d="M35.509,3.023C32.909,3.271,31,5.603,31,8.215V15h2c1.105,0,2-0.895,2-2V9	c0-1.215,1.083-2.176,2.336-1.973C38.319,7.187,39,8.111,39,9.107v16.787c0,2.089-1.065,4.063-2.864,5.122	C32.837,32.959,29.06,34,25.19,34H24h-1.19c-3.87,0-7.647-1.041-10.946-2.983C10.065,29.957,9,27.983,9,25.894V9.107	c0-0.996,0.681-1.92,1.664-2.08C11.917,6.824,13,7.785,13,9v4c0,1.105,0.895,2,2,2h2V8.215c0-2.611-1.909-4.943-4.509-5.191	C9.509,2.739,7,5.077,7,8v22h0.05C7.565,37.263,13.606,43,21,43h3h3c7.394,0,13.435-5.737,13.95-13H41V8	C41,5.077,38.491,2.739,35.509,3.023z"/><path d="M24,37c1.105,0,2,0.895,2,2s-0.895,2-2,2s-2-0.895-2-2S22.895,37,24,37 M24,36c-1.654,0-3,1.346-3,3s1.346,3,3,3 s3-1.346,3-3S25.654,36,24,36L24,36z" opacity=".05"/><path d="M24,37c1.105,0,2,0.895,2,2s-0.895,2-2,2s-2-0.895-2-2S22.895,37,24,37 M24,36.5c-1.379,0-2.5,1.122-2.5,2.5 s1.121,2.5,2.5,2.5s2.5-1.122,2.5-2.5S25.379,36.5,24,36.5L24,36.5z" opacity=".07"/><linearGradient id="e0d29DoB~20GvNC3~nLY7d" x1="21.514" x2="26.605" y1="36.514" y2="41.605" gradientUnits="userSpaceOnUse"><stop offset="0" stop-color="#dfe9f2"/><stop offset=".391" stop-color="#d6e0e9"/><stop offset="1" stop-color="#bfc8d1"/></linearGradient><circle cx="24" cy="39" r="2" fill="url(#e0d29DoB~20GvNC3~nLY7d)"/></svg>