<svg xmlns="http://www.w3.org/2000/svg" viewBox="0 0 48 48"><linearGradient id="NklDyKHZDmwfCjgY89Csba" x1="12" x2="12" y1="20.573" y2="5.729" gradientTransform="matrix(1 0 0 -1 0 48)" gradientUnits="userSpaceOnUse"><stop offset="0" stop-color="#e5a505"/><stop offset=".01" stop-color="#e9a804"/><stop offset=".06" stop-color="#f4b102"/><stop offset=".129" stop-color="#fbb600"/><stop offset=".323" stop-color="#fdb700"/></linearGradient><path fill="url(#NklDyKHZDmwfCjgY89Csba)" d="M14,31c0,0.74,0.4,1.38,1,1.73v2.54c-0.6,0.35-1,0.99-1,1.73s0.4,1.38,1,1.73v1.13	c0,0.58-0.2,1.14-0.57,1.55L13.05,43H11l-1.42-1.58C9.21,41,9,40.43,9,39.83V26.22h6v3.05C14.4,29.62,14,30.26,14,31z"/><linearGradient id="NklDyKHZDmwfCjgY89Csbb" x1="5.99" x2="17.396" y1="40.934" y2="19.484" gradientTransform="matrix(1 0 0 -1 0 48)" gradientUnits="userSpaceOnUse"><stop offset="0" stop-color="#fede00"/><stop offset=".639" stop-color="#ffd500"/><stop offset="1" stop-color="#ffd000"/></linearGradient><path fill="url(#NklDyKHZDmwfCjgY89Csbb)" d="M12,4L12,4C5.942,4,0.997,8.941,1,15c0.001,1.102,0,8.63,0,8.63C1,25.491,2.508,27,4.369,27	h15.246C21.477,27,23,25.477,23,23.615c0,0-0.001-7.513,0-8.615C23.003,8.941,18.058,4,12,4z M12,9c1.933,0,3.5,1.567,3.5,3.5	S13.933,16,12,16s-3.5-1.567-3.5-3.5S10.067,9,12,9z"/><path fill="#abb4be" d="M46,23H27c-0.552,0-1-0.448-1-1V12c0-0.552,0.448-1,1-1h19c0.552,0,1,0.448,1,1v10	C47,22.552,46.552,23,46,23z"/><linearGradient id="NklDyKHZDmwfCjgY89Csbc" x1="32.968" x2="40.032" y1="37.642" y2="24.358" gradientTransform="matrix(1 0 0 -1 0 48)" gradientUnits="userSpaceOnUse"><stop offset="0" stop-color="#fcfcfc"/><stop offset=".495" stop-color="#f4f4f4"/><stop offset=".946" stop-color="#e8e8e8"/><stop offset="1" stop-color="#e8e8e8"/></linearGradient><polygon fill="url(#NklDyKHZDmwfCjgY89Csbc)" points="28,21 28,13 45,13 45,21"/><path fill="#abb4be" d="M46,39H27c-0.552,0-1-0.448-1-1V28c0-0.552,0.448-1,1-1h19c0.552,0,1,0.448,1,1v10	C47,38.552,46.552,39,46,39z"/><linearGradient id="NklDyKHZDmwfCjgY89Csbd" x1="32.968" x2="40.032" y1="21.642" y2="8.358" gradientTransform="matrix(1 0 0 -1 0 48)" gradientUnits="userSpaceOnUse"><stop offset="0" stop-color="#fcfcfc"/><stop offset=".495" stop-color="#f4f4f4"/><stop offset=".946" stop-color="#e8e8e8"/><stop offset="1" stop-color="#e8e8e8"/></linearGradient><polygon fill="url(#NklDyKHZDmwfCjgY89Csbd)" points="28,37 28,29 45,29 45,37"/></svg>