<svg xmlns="http://www.w3.org/2000/svg" viewBox="0 0 48 48"><linearGradient id="ddymdwtkj2oWzUhDLdCR6a" x1="24" x2="24" y1="44" y2="4" gradientUnits="userSpaceOnUse"><stop offset="0" stop-color="#ccc"/><stop offset="1" stop-color="#f2f2f2"/></linearGradient><circle cx="24" cy="24" r="20" fill="url(#ddymdwtkj2oWzUhDLdCR6a)"/><path fill="none" stroke="#1d1d1b" stroke-width="2" d="M41,24c0-2.742-2.208-4.963-4.943-4.994 c1.911-1.956,1.902-5.088-0.036-7.027c-1.939-1.939-5.071-1.948-7.027-0.036C28.963,9.208,26.742,7,24,7s-4.963,2.208-4.994,4.943 c-1.956-1.911-5.088-1.902-7.027,0.036c-1.939,1.939-1.948,5.071-0.036,7.027C9.208,19.037,7,21.258,7,24s2.208,4.963,4.943,4.994 c-1.911,1.956-1.902,5.088,0.036,7.027c1.939,1.939,5.071,1.948,7.027,0.036C19.037,38.792,21.258,41,24,41 s4.963-2.208,4.994-4.943c1.956,1.911,5.088,1.902,7.027-0.036c1.939-1.939,1.948-5.071,0.036-7.027 C38.792,28.963,41,26.742,41,24z" opacity=".05"/><path fill="none" stroke="#000" d="M41,24c0-2.742-2.208-4.963-4.943-4.994 c1.911-1.956,1.902-5.088-0.036-7.027c-1.939-1.939-5.071-1.948-7.027-0.036C28.963,9.208,26.742,7,24,7s-4.963,2.208-4.994,4.943 c-1.956-1.911-5.088-1.902-7.027,0.036c-1.939,1.939-1.948,5.071-0.036,7.027C9.208,19.037,7,21.258,7,24s2.208,4.963,4.943,4.994 c-1.911,1.956-1.902,5.088,0.036,7.027c1.939,1.939,5.071,1.948,7.027,0.036C19.037,38.792,21.258,41,24,41 s4.963-2.208,4.994-4.943c1.956,1.911,5.088,1.902,7.027-0.036c1.939-1.939,1.948-5.071,0.036-7.027 C38.792,28.963,41,26.742,41,24z" opacity=".07"/><path fill="none" d="M25.044,23.568c-0.111-0.094-0.232-0.17-0.336-0.275s-0.181-0.225-0.275-0.336 C24.287,22.969,24.148,23,24,23s-0.287-0.031-0.432-0.044c-0.094,0.111-0.17,0.232-0.275,0.336s-0.225,0.181-0.336,0.275 C22.969,23.713,23,23.852,23,24s-0.031,0.287-0.044,0.432c0.111,0.094,0.232,0.17,0.336,0.275s0.181,0.225,0.275,0.336 C23.713,25.031,23.852,25,24,25s0.287,0.031,0.432,0.044c0.094-0.111,0.17-0.232,0.275-0.336s0.225-0.181,0.336-0.275 C25.031,24.287,25,24.148,25,24S25.031,23.713,25.044,23.568z"/><path fill="#fde40d" d="M24.432,22.956c-0.156-0.186-0.307-0.373-0.432-0.574c-0.125,0.201-0.276,0.388-0.432,0.574 C23.713,22.969,23.852,23,24,23S24.287,22.969,24.432,22.956z"/><linearGradient id="ddymdwtkj2oWzUhDLdCR6b" x1="24" x2="24" y1="17.132" y2="7" gradientUnits="userSpaceOnUse"><stop offset="0" stop-color="#fec12b"/><stop offset="1" stop-color="#fa9a33"/></linearGradient><path fill="url(#ddymdwtkj2oWzUhDLdCR6b)" d="M23.293,16.222c0.279,0.279,0.508,0.589,0.707,0.911c0.199-0.322,0.428-0.631,0.707-0.911 l4.243-4.243c0.014-0.014,0.031-0.023,0.044-0.036C28.963,9.208,26.742,7,24,7s-4.963,2.208-4.994,4.943 c0.014,0.014,0.031,0.022,0.044,0.036L23.293,16.222z"/><path fill="#9698d1" d="M23.568,25.044c0.156,0.186,0.307,0.373,0.432,0.574c0.125-0.201,0.276-0.388,0.432-0.574 C24.287,25.031,24.148,25,24,25S23.713,25.031,23.568,25.044z"/><linearGradient id="ddymdwtkj2oWzUhDLdCR6c" x1="24" x2="24" y1="30.868" y2="41" gradientUnits="userSpaceOnUse"><stop offset="0" stop-color="#8aa1d3"/><stop offset="1" stop-color="#69b4de"/></linearGradient><path fill="url(#ddymdwtkj2oWzUhDLdCR6c)" d="M24.707,31.778c-0.279-0.279-0.508-0.588-0.707-0.911c-0.199,0.322-0.428,0.631-0.707,0.911 l-4.243,4.243c-0.014,0.014-0.031,0.023-0.044,0.036C19.037,38.792,21.258,41,24,41s4.963-2.208,4.994-4.943 c-0.014-0.014-0.031-0.022-0.044-0.036L24.707,31.778z"/><linearGradient id="ddymdwtkj2oWzUhDLdCR6d" x1="41" x2="30.868" y1="24" y2="24" gradientUnits="userSpaceOnUse"><stop offset="0" stop-color="#99ce66"/><stop offset="1" stop-color="#c2d94b"/></linearGradient><path fill="url(#ddymdwtkj2oWzUhDLdCR6d)" d="M41,24c0-2.742-2.208-4.963-4.943-4.994c-0.014,0.014-0.022,0.031-0.036,0.044l-4.243,4.243 c-0.279,0.279-0.588,0.508-0.911,0.707c0.322,0.199,0.631,0.428,0.911,0.707l4.243,4.243c0.014,0.014,0.023,0.031,0.036,0.045 C38.792,28.963,41,26.742,41,24z"/><path fill="#6bc97f" d="M25,24c0,0.148,0.031,0.287,0.044,0.432c0.186-0.156,0.373-0.307,0.574-0.432 c-0.201-0.125-0.388-0.276-0.574-0.432C25.031,23.713,25,23.852,25,24z"/><path fill="#fa6978" d="M22.956,23.568c-0.186,0.156-0.373,0.307-0.574,0.432c0.201,0.125,0.388,0.276,0.574,0.432 C22.969,24.287,23,24.148,23,24S22.969,23.713,22.956,23.568z"/><linearGradient id="ddymdwtkj2oWzUhDLdCR6e" x1="17.132" x2="7" y1="24" y2="24" gradientUnits="userSpaceOnUse"><stop offset="0" stop-color="#e37c8d"/><stop offset="1" stop-color="#c882b8"/></linearGradient><path fill="url(#ddymdwtkj2oWzUhDLdCR6e)" d="M16.222,24.707c0.279-0.279,0.588-0.508,0.911-0.707c-0.322-0.199-0.631-0.428-0.911-0.707 l-4.243-4.243c-0.014-0.014-0.023-0.031-0.036-0.044C9.208,19.037,7,21.258,7,24s2.208,4.963,4.943,4.994 c0.014-0.014,0.023-0.031,0.036-0.045L16.222,24.707z"/><linearGradient id="ddymdwtkj2oWzUhDLdCR6f" x1="28.856" x2="36.021" y1="28.856" y2="36.021" gradientUnits="userSpaceOnUse"><stop offset="0" stop-color="#70c0bf"/><stop offset="1" stop-color="#6bc184"/></linearGradient><path fill="url(#ddymdwtkj2oWzUhDLdCR6f)" d="M30,29c-0.395,0-0.775-0.057-1.144-0.144C28.943,29.225,29,29.605,29,30v6 c0,0.02-0.005,0.038-0.006,0.057c1.956,1.911,5.088,1.902,7.027-0.036c1.939-1.939,1.948-5.071,0.036-7.027 C36.038,28.995,36.02,29,36,29H30z"/><path fill="#6cc0ee" d="M24.432,25.044c0.242,0.021,0.481,0.046,0.712,0.1c-0.054-0.231-0.079-0.47-0.1-0.712 c-0.111,0.094-0.232,0.17-0.336,0.275S24.526,24.932,24.432,25.044z"/><linearGradient id="ddymdwtkj2oWzUhDLdCR6g" x1="24.226" x2="29.259" y1="25.14" y2="35.934" gradientUnits="userSpaceOnUse"><stop offset="0" stop-color="#3d6aae"/><stop offset="1" stop-color="#31818a"/></linearGradient><path fill="url(#ddymdwtkj2oWzUhDLdCR6g)" d="M29,30c0-0.395-0.057-0.775-0.144-1.144c-1.839-0.432-3.28-1.873-3.712-3.712 c-0.231-0.054-0.47-0.079-0.712-0.1c-0.156,0.186-0.307,0.373-0.432,0.574c0.995,1.606,0.995,3.644,0,5.25 c0.199,0.322,0.428,0.631,0.707,0.911l4.243,4.243c0.014,0.014,0.031,0.023,0.044,0.036C28.995,36.038,29,36.02,29,36V30z"/><linearGradient id="ddymdwtkj2oWzUhDLdCR6h" x1="25.026" x2="36.079" y1="24.474" y2="28.94" gradientUnits="userSpaceOnUse"><stop offset="0" stop-color="#2b8e71"/><stop offset="1" stop-color="#459b36"/></linearGradient><path fill="url(#ddymdwtkj2oWzUhDLdCR6h)" d="M31.778,24.707c-0.279-0.279-0.588-0.508-0.911-0.707c-1.606,0.995-3.644,0.995-5.25,0 c-0.201,0.125-0.388,0.276-0.574,0.432c0.021,0.242,0.046,0.481,0.1,0.712c1.839,0.432,3.28,1.873,3.712,3.712 C29.225,28.943,29.605,29,30,29h6c0.02,0,0.038-0.005,0.057-0.006c-0.014-0.014-0.023-0.031-0.036-0.045L31.778,24.707z"/><path fill="#0c4324" d="M28.856,28.856c-0.432-1.839-1.873-3.28-3.712-3.712C25.576,26.983,27.017,28.424,28.856,28.856z"/><linearGradient id="ddymdwtkj2oWzUhDLdCR6i" x1="11.979" x2="19.144" y1="11.979" y2="19.144" gradientUnits="userSpaceOnUse"><stop offset="0" stop-color="#e95865"/><stop offset="1" stop-color="#f68357"/></linearGradient><path fill="url(#ddymdwtkj2oWzUhDLdCR6i)" d="M18,19c0.395,0,0.775,0.057,1.144,0.144C19.057,18.775,19,18.395,19,18v-6 c0-0.02,0.005-0.038,0.006-0.057c-1.956-1.911-5.088-1.902-7.027,0.036c-1.939,1.939-1.948,5.071-0.036,7.027 C11.962,19.005,11.98,19,12,19H18z"/><path fill="#ff9945" d="M23.568,22.956c-0.242-0.021-0.481-0.046-0.712-0.1c0.054,0.231,0.079,0.47,0.1,0.712 c0.111-0.094,0.232-0.17,0.336-0.275S23.474,23.068,23.568,22.956z"/><linearGradient id="ddymdwtkj2oWzUhDLdCR6j" x1="19.021" x2="23.675" y1="12.668" y2="22.649" gradientUnits="userSpaceOnUse"><stop offset="0" stop-color="#ee3902"/><stop offset="1" stop-color="#f77600"/></linearGradient><path fill="url(#ddymdwtkj2oWzUhDLdCR6j)" d="M19,18c0,0.395,0.057,0.775,0.144,1.144c1.839,0.432,3.28,1.873,3.712,3.712 c0.231,0.054,0.47,0.079,0.712,0.1c0.156-0.186,0.307-0.373,0.432-0.574c-0.995-1.606-0.995-3.644,0-5.25 c-0.199-0.322-0.428-0.631-0.707-0.911l-4.243-4.243c-0.014-0.014-0.031-0.023-0.044-0.036C19.005,11.962,19,11.98,19,12V18z"/><linearGradient id="ddymdwtkj2oWzUhDLdCR6k" x1="11.921" x2="22.974" y1="19.06" y2="23.526" gradientUnits="userSpaceOnUse"><stop offset="0" stop-color="#bd1016"/><stop offset="1" stop-color="#df2006"/></linearGradient><path fill="url(#ddymdwtkj2oWzUhDLdCR6k)" d="M16.222,23.293c0.279,0.279,0.588,0.508,0.911,0.707c1.606-0.995,3.644-0.995,5.25,0 c0.201-0.125,0.388-0.276,0.574-0.432c-0.021-0.242-0.046-0.481-0.1-0.712c-1.839-0.432-3.28-1.873-3.712-3.712 C18.775,19.057,18.395,19,18,19h-6c-0.02,0-0.038,0.005-0.057,0.006c0.014,0.014,0.022,0.031,0.036,0.044L16.222,23.293z"/><path fill="#aa0201" d="M19.144,19.144c0.432,1.839,1.873,3.28,3.712,3.712C22.424,21.017,20.983,19.576,19.144,19.144z"/><linearGradient id="ddymdwtkj2oWzUhDLdCR6l" x1="11.979" x2="19.144" y1="36.021" y2="28.856" gradientUnits="userSpaceOnUse"><stop offset="0" stop-color="#8e88b6"/><stop offset="1" stop-color="#b68ec2"/></linearGradient><path fill="url(#ddymdwtkj2oWzUhDLdCR6l)" d="M19,30c0-0.395,0.057-0.775,0.144-1.144C18.775,28.943,18.395,29,18,29h-6 c-0.02,0-0.038-0.005-0.057-0.006c-1.911,1.956-1.902,5.088,0.036,7.027c1.939,1.939,5.071,1.948,7.027,0.036 C19.005,36.038,19,36.02,19,36V30z"/><path fill="#dd98c5" d="M22.956,24.432c-0.021,0.242-0.046,0.481-0.1,0.712c0.231-0.054,0.47-0.079,0.712-0.1 c-0.094-0.111-0.17-0.232-0.275-0.336S23.068,24.526,22.956,24.432z"/><linearGradient id="ddymdwtkj2oWzUhDLdCR6m" x1="18.741" x2="23.774" y1="35.934" y2="25.14" gradientUnits="userSpaceOnUse"><stop offset="0" stop-color="#5162a8"/><stop offset="1" stop-color="#775093"/></linearGradient><path fill="url(#ddymdwtkj2oWzUhDLdCR6m)" d="M23.293,31.778c0.279-0.279,0.508-0.588,0.707-0.911c-0.995-1.606-0.995-3.644,0-5.25 c-0.125-0.201-0.276-0.388-0.432-0.574c-0.242,0.021-0.481,0.046-0.712,0.1c-0.432,1.839-1.873,3.28-3.712,3.712 C19.057,29.225,19,29.605,19,30v6c0,0.02,0.005,0.038,0.006,0.057c0.014-0.014,0.031-0.022,0.044-0.036L23.293,31.778z"/><linearGradient id="ddymdwtkj2oWzUhDLdCR6n" x1="11.921" x2="22.974" y1="28.94" y2="24.474" gradientUnits="userSpaceOnUse"><stop offset="0" stop-color="#834479"/><stop offset="1" stop-color="#bf3451"/></linearGradient><path fill="url(#ddymdwtkj2oWzUhDLdCR6n)" d="M18,29c0.395,0,0.775-0.057,1.144-0.144c0.432-1.839,1.873-3.28,3.712-3.712 c0.054-0.231,0.079-0.47,0.1-0.712c-0.186-0.156-0.373-0.307-0.574-0.432c-1.606,0.995-3.644,0.995-5.25,0 c-0.322,0.199-0.631,0.428-0.911,0.707l-4.243,4.243c-0.014,0.014-0.023,0.031-0.036,0.045C11.962,28.995,11.98,29,12,29H18z"/><path d="M19.144,28.856c1.839-0.432,3.28-1.873,3.712-3.712C21.017,25.576,19.576,27.017,19.144,28.856z"/><path fill="#242261" d="M24,30.868c0.995-1.606,0.995-3.644,0-5.25C23.005,27.224,23.005,29.262,24,30.868z"/><path fill="#4c1334" d="M17.132,24c1.606,0.995,3.644,0.995,5.25,0C20.776,23.005,18.738,23.005,17.132,24z"/><path fill="#cbe34d" d="M25.044,23.568c0.021-0.242,0.046-0.481,0.1-0.712c-0.231,0.054-0.47,0.079-0.712,0.1 c0.094,0.111,0.17,0.232,0.275,0.336S24.932,23.474,25.044,23.568z"/><linearGradient id="ddymdwtkj2oWzUhDLdCR6o" x1="28.856" x2="36.021" y1="19.144" y2="11.979" gradientUnits="userSpaceOnUse"><stop offset="0" stop-color="#e2e131"/><stop offset="1" stop-color="#fce51d"/></linearGradient><path fill="url(#ddymdwtkj2oWzUhDLdCR6o)" d="M29,18c0,0.395-0.057,0.775-0.144,1.144C29.225,19.057,29.605,19,30,19h6 c0.02,0,0.038,0.005,0.057,0.006c1.911-1.956,1.902-5.088-0.036-7.027c-1.939-1.939-5.071-1.948-7.027-0.036 C28.995,11.962,29,11.98,29,12V18z"/><linearGradient id="ddymdwtkj2oWzUhDLdCR6p" x1="24.226" x2="29.259" y1="22.86" y2="12.066" gradientUnits="userSpaceOnUse"><stop offset="0" stop-color="#cbc205"/><stop offset="1" stop-color="#ec9c09"/></linearGradient><path fill="url(#ddymdwtkj2oWzUhDLdCR6p)" d="M24.707,16.222c-0.279,0.279-0.508,0.589-0.707,0.911c0.995,1.606,0.995,3.644,0,5.25 c0.125,0.201,0.276,0.388,0.432,0.574c0.242-0.021,0.481-0.046,0.712-0.1c0.432-1.839,1.873-3.28,3.712-3.712 C28.943,18.775,29,18.395,29,18v-6c0-0.02-0.005-0.038-0.006-0.057c-0.014,0.014-0.031,0.022-0.044,0.036L24.707,16.222z"/><linearGradient id="ddymdwtkj2oWzUhDLdCR6q" x1="25.558" x2="35.779" y1="23.311" y2="19.181" gradientUnits="userSpaceOnUse"><stop offset="0" stop-color="#52aa22"/><stop offset="1" stop-color="#a4bc0e"/></linearGradient><path fill="url(#ddymdwtkj2oWzUhDLdCR6q)" d="M30,19c-0.395,0-0.775,0.057-1.144,0.144c-0.432,1.839-1.873,3.28-3.712,3.712 c-0.054,0.231-0.079,0.47-0.1,0.712c0.186,0.156,0.373,0.307,0.574,0.432c1.606-0.995,3.644-0.995,5.25,0 c0.322-0.199,0.631-0.428,0.911-0.707l4.243-4.243c0.014-0.014,0.023-0.031,0.036-0.044C36.038,19.005,36.02,19,36,19H30z"/><path fill="#4f8000" d="M28.856,19.144c-1.839,0.432-3.28,1.873-3.712,3.712C26.983,22.424,28.424,20.983,28.856,19.144z"/><path fill="#034c05" d="M25.618,24c1.606,0.995,3.644,0.995,5.25,0C29.262,23.005,27.224,23.005,25.618,24z"/><path fill="#a54e01" d="M24,17.132c-0.995,1.606-0.995,3.644,0,5.25C24.995,20.776,24.995,18.738,24,17.132z"/></svg>