<svg xmlns="http://www.w3.org/2000/svg" xmlns:xlink="http://www.w3.org/1999/xlink" data-name="Слой 1" viewBox="0 0 48 48"><defs><linearGradient id="VKHZ3CPcXT8yeDx8~BMf_a" x1="41.522" x2="35.563" y1="21" y2="21" data-name="Безымянный градиент 17" gradientUnits="userSpaceOnUse"><stop offset="0" stop-color="#a1aab3"/><stop offset="1" stop-color="#8f979e"/></linearGradient><linearGradient id="VKHZ3CPcXT8yeDx8~BMf_c" x1="24" x2="24" y1="2.033" y2="10.362" xlink:href="#VKHZ3CPcXT8yeDx8~BMf_a"/><linearGradient id="VKHZ3CPcXT8yeDx8~BMf_b" x1="9.459" x2="15.403" y1="21" y2="21" data-name="Безымянный градиент 18" gradientUnits="userSpaceOnUse"><stop offset=".503" stop-color="#a1aab3"/><stop offset=".658" stop-color="#9ea7af"/><stop offset=".796" stop-color="#949da5"/><stop offset=".928" stop-color="#848c92"/><stop offset="1" stop-color="#787f85"/></linearGradient><linearGradient id="VKHZ3CPcXT8yeDx8~BMf_d" x1="28.459" x2="34.403" gradientTransform="matrix(1 0 0 -1 0 42)" xlink:href="#VKHZ3CPcXT8yeDx8~BMf_b"/><linearGradient id="VKHZ3CPcXT8yeDx8~BMf_e" x1="6.94" x2="13.21" y1="21" y2="21" xlink:href="#VKHZ3CPcXT8yeDx8~BMf_a"/><linearGradient id="VKHZ3CPcXT8yeDx8~BMf_f" x1="21.21" x2="29.465" y1="32.297" y2="54.978" xlink:href="#VKHZ3CPcXT8yeDx8~BMf_a"/><linearGradient id="VKHZ3CPcXT8yeDx8~BMf_g" x1="24" x2="24" y1="44.978" y2="29.536" xlink:href="#VKHZ3CPcXT8yeDx8~BMf_b"/><linearGradient id="VKHZ3CPcXT8yeDx8~BMf_h" x1="20.001" x2="29.491" y1="8.836" y2="34.91" xlink:href="#VKHZ3CPcXT8yeDx8~BMf_a"/></defs><rect width="4" height="2" x="34" y="20" fill="#64717c" transform="rotate(180 36 21)"/><circle cx="39" cy="21" r="2" fill="url(#VKHZ3CPcXT8yeDx8~BMf_a)"/><rect width="4" height="2" x="22" y="6" fill="#64717c" transform="rotate(90 24 7)"/><circle cx="24" cy="4" r="2" fill="url(#VKHZ3CPcXT8yeDx8~BMf_c)"/><rect width="4" height="2" x="10" y="20" fill="#64717c"/><path fill="url(#VKHZ3CPcXT8yeDx8~BMf_b)" d="M14,18h2a0,0,0,0,1,0,0v6a0,0,0,0,1,0,0H14a1,1,0,0,1-1-1V19A1,1,0,0,1,14,18Z"/><path fill="url(#VKHZ3CPcXT8yeDx8~BMf_d)" d="M33,18h2a0,0,0,0,1,0,0v6a0,0,0,0,1,0,0H33a1,1,0,0,1-1-1V19A1,1,0,0,1,33,18Z" transform="rotate(180 33.5 21)"/><circle cx="9" cy="21" r="2" fill="url(#VKHZ3CPcXT8yeDx8~BMf_e)"/><path fill="url(#VKHZ3CPcXT8yeDx8~BMf_f)" d="M40.28235,36.78878,24.01087,31.99966,7.718,36.789A1,1,0,0,0,7,37.74836V42a2,2,0,0,0,2,2H39a2,2,0,0,0,2-2V37.74809A1,1,0,0,0,40.28235,36.78878Z"/><path fill="url(#VKHZ3CPcXT8yeDx8~BMf_g)" d="M19,28.5H29a0,0,0,0,1,0,0V34a2,2,0,0,1-2,2H21a2,2,0,0,1-2-2V28.5A0,0,0,0,1,19,28.5Z"/><path fill="#64717c" d="M18,39H30a1,1,0,0,1,1,1v4a0,0,0,0,1,0,0H17a0,0,0,0,1,0,0V40A1,1,0,0,1,18,39Z"/><path fill="url(#VKHZ3CPcXT8yeDx8~BMf_h)" d="M22,8h4a7,7,0,0,1,7,7V25a5,5,0,0,1-5,5H20a5,5,0,0,1-5-5V15A7,7,0,0,1,22,8Z"/><rect width="14" height="7.25" x="17" y="17" fill="#64717c" rx="2"/><rect width="3" height="3" x="19" y="19" fill="#50e6ff"/><rect width="3" height="3" x="26" y="19" fill="#50e6ff"/></svg>