<svg xmlns="http://www.w3.org/2000/svg" viewBox="0 0 48 48"><linearGradient id="0WwS5RktIzTBopb4NZ3-9a" x1="15.666" x2="48.02" y1="15.443" y2="47.797" gradientUnits="userSpaceOnUse"><stop offset="0" stop-color="#dfe9f2"/><stop offset=".998" stop-color="#9ea7b0"/></linearGradient><path fill="url(#0WwS5RktIzTBopb4NZ3-9a)" d="M44.223,24c0-2.467-0.468-4.818-1.284-7H5.507c-0.816,2.182-1.284,4.533-1.284,7	s0.468,4.818,1.284,7h37.431C43.755,28.818,44.223,26.467,44.223,24z"/><linearGradient id="0WwS5RktIzTBopb4NZ3-9b" x1="19.859" x2="32.434" y1="19.011" y2="53.56" gradientUnits="userSpaceOnUse"><stop offset="0" stop-color="#0d61a9"/><stop offset="1" stop-color="#16528c"/></linearGradient><path fill="url(#0WwS5RktIzTBopb4NZ3-9b)" d="M42.939,31H5.507	c2.841,7.588,10.137,13,18.716,13S40.098,38.588,42.939,31z"/><linearGradient id="0WwS5RktIzTBopb4NZ3-9c" x1="14.52" x2="42.482" y1="-18.976" y2="8.986" gradientTransform="translate(0 25)" gradientUnits="userSpaceOnUse"><stop offset=".008" stop-color="#f44f5a"/><stop offset=".447" stop-color="#ee3d4a"/><stop offset="1" stop-color="#e52030"/></linearGradient><path fill="url(#0WwS5RktIzTBopb4NZ3-9c)" d="M24.223,4C15.644,4,8.348,9.412,5.507,17	h37.431C40.098,9.412,32.802,4,24.223,4z"/><path fill="#263238" d="M24,29c-2.758,0-5.001-2.243-5.001-4.999C18.999,21.243,21.242,19,24,19s5.001,2.243,5.001,5.001 C29.001,26.757,26.758,29,24,29z M24,19.258c-2.615,0-4.743,2.128-4.743,4.744s2.128,4.742,4.743,4.742s4.743-2.127,4.743-4.743 S26.615,19.258,24,19.258z"/><path fill="#90a4ae" d="M27.072,26.072l-0.214-0.143c0.385-0.571,0.589-1.237,0.589-1.927c0-1.903-1.547-3.45-3.447-3.45 s-3.447,1.547-3.447,3.45c0,0.665,0.188,1.309,0.546,1.864l-0.216,0.138c-0.385-0.596-0.589-1.289-0.589-2.003 c0-2.044,1.663-3.706,3.705-3.706s3.705,1.662,3.705,3.706C27.705,24.743,27.487,25.459,27.072,26.072z"/><path fill="#263238" d="M24,28.165c-2.297,0-4.165-1.868-4.165-4.163c0-2.297,1.868-4.165,4.165-4.165 s4.165,1.868,4.165,4.165C28.165,26.296,26.297,28.165,24,28.165z M24,19.964c-2.226,0-4.037,1.811-4.037,4.037 s1.811,4.036,4.037,4.036s4.037-1.81,4.037-4.036S26.226,19.964,24,19.964z"/><path fill="#263238" d="M24,27.087c-1.702,0-3.086-1.383-3.086-3.086c0-1.703,1.385-3.086,3.086-3.086 s3.086,1.385,3.086,3.086S25.702,27.087,24,27.087z M24,21.042c-1.631,0-2.958,1.327-2.958,2.959c0,1.631,1.327,2.958,2.958,2.958 s2.958-1.327,2.958-2.958C26.958,22.37,25.631,21.042,24,21.042z"/><polygon fill="#fdd835" points="24,22.908 24.252,23.654 25.041,23.664 24.408,24.135 24.643,24.887 24,24.432 23.357,24.887 23.592,24.135 22.959,23.664 23.748,23.654"/><path fill="#263238" d="M24.76,25.049L24,24.512l-0.76,0.537l0.277-0.89l-0.748-0.556l0.933-0.013L24,22.707l0.299,0.882 l0.933,0.013l-0.748,0.556L24.76,25.049z M24,24.354l0.526,0.371l-0.191-0.614l0.515-0.385l-0.643-0.008L24,23.108l-0.206,0.611 l-0.643,0.008l0.515,0.385l-0.191,0.614L24,24.354z"/><path fill="#43a047" d="M23.405,21.735c0,0-0.651,0.197-0.836,0.569c0.012-0.278,0.301-0.743,0.301-0.743 s-0.464,0.359-0.546,0.952c-0.058,0.116-0.174,0.255-0.174,0.255l-0.012-0.417l0.348-0.685c0,0-0.429,0.441-0.464,0.651 c-0.035,0.21-0.104,0.406-0.104,0.406l-0.174-0.417c0,0,0.023,0.371-0.046,0.604c-0.07,0.233-0.023,0.581-0.023,0.581l-0.371-0.371 l0.29,0.558l0.197,0.475l-0.325-0.104c0,0,0.162,0.243,0.29,0.417c0.128,0.174,0.51,0.708,0.51,0.708s-0.301-0.174-0.604-0.535 c0.046,0.406,0.29,0.674,0.429,0.72c0.139,0.046,0.708,0.336,0.708,0.336s-0.569-0.023-0.79-0.139 c0.325,0.359,0.662,0.383,0.848,0.394c0.185,0.012,0.708,0.151,0.859,0.197c0.151,0.046,0.51,0.104,0.51,0.104l0.487,0.29 l0.243-0.128l-0.674-0.336c0,0-0.429,0.046-0.616-0.139c-0.187-0.185-0.29-0.209-0.29-0.209s-0.383-0.499-0.546-0.627 c0,0,0.139,0.417,0.325,0.639c-0.394-0.232-0.499-0.558-0.499-0.558l-0.035-0.627c0,0-0.162-0.371-0.336-0.499 c0.128-0.22,0.104-0.499,0.093-0.651c-0.162,0.313-0.29,0.499-0.29,0.499l-0.023,0.616c0,0-0.116-0.72-0.023-0.882 s0.79-0.824,0.79-0.824s-0.383,0.012-0.535,0.22c0.093-0.325,0.523-0.371,0.523-0.371l0.336-0.359l-0.336,0.232 c0,0-0.371,0.081-0.535,0.267c0.406-0.417,0.475-0.383,0.475-0.383L23.405,21.735z"/><path fill="#43a047" d="M23.125,26.377l1.01-0.325l0.232,0.07l0.232-0.104c0,0,0.255-0.697,0.766-0.755 c0.139-0.267,0.278-0.232,0.278-0.232s-0.093-0.546,0.081-0.824c0.104,0.151,0.139,0.185,0.139,0.185l0.174-0.128 c0,0-0.383-0.499-0.348-0.836c0.093-0.035,0.243,0.104,0.243,0.104l-0.012-0.383c0,0-0.546-0.139-0.651-0.383 c0.139-0.07,0.255-0.012,0.255-0.012l-0.046-0.359c0,0-0.743-0.035-0.975-0.359c0.209-0.046,0.348-0.035,0.348-0.035l-0.197-0.383 l0.546,0.185l-0.162-0.336c0,0,0.487,0.197,0.452,0.523c0.128-0.151,0.081-0.128,0.081-0.128s0.267,0.197,0.359,0.569 c0.104-0.255,0.104-0.441,0.104-0.441l0.174,0.51l0.104-0.151c0,0,0.151,0.487-0.046,0.848c0.185-0.139,0.185-0.139,0.185-0.139 s0,0.29-0.023,0.394c0.151-0.139,0.243-0.255,0.243-0.255s0.035,0.824-0.406,1.114c0.035,0.185,0.012,0.301,0.012,0.301 l0.29-0.162l-0.278,0.558l0.348-0.151c0,0-0.348,0.616-0.766,0.581c-0.07,0.104-0.29,0.278-0.29,0.278l0.523,0.035 c0,0-0.313,0.29-0.604,0.22c-0.174,0.197-0.313,0.267-0.743,0.197c-0.429-0.07-1.3,0.313-1.3,0.313L23.125,26.377z"/></svg>