<svg xmlns="http://www.w3.org/2000/svg" viewBox="0 0 48 48"><linearGradient id="F3KJNSwfnIyF~hoYYBmYXa" x1="21.811" x2="28.414" y1="43.988" y2="6.544" gradientUnits="userSpaceOnUse"><stop offset="0" stop-color="#007ad9"/><stop offset="1" stop-color="#2aa4f4"/></linearGradient><path fill="url(#F3KJNSwfnIyF~hoYYBmYXa)" d="M17,7L3,24v15c0,1,1,2,2,2h29h1.5H43c1.105,0,2-1,2-2V24L31,7H17z"/><polygon points="3,23 16,23 16,7 18,7 18,23 30,23 30,7 32,7 32,23 45,23 45,25 32,25 32,41 30,41 30,25 18,25 18,41 16,41 16,25 3,25" opacity=".05"/><polygon points="17.5,7 17.5,23.5 30.5,23.5 30.5,7 31.5,7 31.5,23.5 45,23.5 45,24.5 31.5,24.5 31.5,41 30.5,41 30.5,24.5 17.5,24.5 17.5,41 16.5,41 16.5,24.5 3,24.5 3,23.5 16.5,23.5 16.5,7" opacity=".05"/><linearGradient id="F3KJNSwfnIyF~hoYYBmYXb" x1="8.39" x2="11.665" y1="6.371" y2="24.941" gradientUnits="userSpaceOnUse"><stop offset="0" stop-color="#a3ffff"/><stop offset=".223" stop-color="#9dfbff"/><stop offset=".53" stop-color="#8bf1ff"/><stop offset=".885" stop-color="#6ee0ff"/><stop offset="1" stop-color="#63daff"/></linearGradient><path fill="url(#F3KJNSwfnIyF~hoYYBmYXb)" d="M17,24V7H5C3.895,7,3,7.895,3,9v15H17z"/><linearGradient id="F3KJNSwfnIyF~hoYYBmYXc" x1="22.335" x2="25.665" y1="23.059" y2="41.941" gradientUnits="userSpaceOnUse"><stop offset="0" stop-color="#a3ffff"/><stop offset=".223" stop-color="#9dfbff"/><stop offset=".53" stop-color="#8bf1ff"/><stop offset=".885" stop-color="#6ee0ff"/><stop offset="1" stop-color="#63daff"/></linearGradient><rect width="14" height="17" x="17" y="24" fill="url(#F3KJNSwfnIyF~hoYYBmYXc)"/><linearGradient id="F3KJNSwfnIyF~hoYYBmYXd" x1="36.179" x2="39.509" y1="6.087" y2="24.968" gradientUnits="userSpaceOnUse"><stop offset="0" stop-color="#a3ffff"/><stop offset=".223" stop-color="#9dfbff"/><stop offset=".53" stop-color="#8bf1ff"/><stop offset=".885" stop-color="#6ee0ff"/><stop offset="1" stop-color="#63daff"/></linearGradient><path fill="url(#F3KJNSwfnIyF~hoYYBmYXd)" d="M45,24V9c0-1.105-0.895-2-2-2H31v17H45z"/></svg>