<svg xmlns="http://www.w3.org/2000/svg" viewBox="0 0 48 48"><linearGradient id="6PMYR3ybpgoOl4M0RD9hua" x1="18.088" x2="29.169" y1="-566.844" y2="-602.746" gradientTransform="matrix(1 0 0 -1 0 -562)" gradientUnits="userSpaceOnUse"><stop offset="0" stop-color="#33bef0"/><stop offset="1" stop-color="#0a85d9"/></linearGradient><path fill="url(#6PMYR3ybpgoOl4M0RD9hua)" d="M12.5,6h3C15.776,6,16,6.224,16,6.5v35c0,0.276-0.224,0.5-0.5,0.5h-3	c-0.276,0-0.5-0.224-0.5-0.5v-35C12,6.224,12.224,6,12.5,6z M18.5,42h1c0.276,0,0.5-0.224,0.5-0.5v-35C20,6.224,19.776,6,19.5,6h-1	C18.224,6,18,6.224,18,6.5v35C18,41.776,18.224,42,18.5,42z M6.5,42h3c0.276,0,0.5-0.224,0.5-0.5v-35C10,6.224,9.776,6,9.5,6h-3	C6.224,6,6,6.224,6,6.5v35C6,41.776,6.224,42,6.5,42z M22.5,42h7c0.276,0,0.5-0.224,0.5-0.5v-35C30,6.224,29.776,6,29.5,6h-7	C22.224,6,22,6.224,22,6.5v35C22,41.776,22.224,42,22.5,42z M38,6.5v35c0,0.276,0.224,0.5,0.5,0.5h3c0.276,0,0.5-0.224,0.5-0.5v-35	C42,6.224,41.776,6,41.5,6h-3C38.224,6,38,6.224,38,6.5z M32.5,42h3c0.276,0,0.5-0.224,0.5-0.5v-35C36,6.224,35.776,6,35.5,6h-3	C32.224,6,32,6.224,32,6.5v35C32,41.776,32.224,42,32.5,42z"/><g opacity=".05"><path d="M38.5,42h3c0.276,0,0.5-0.224,0.5-0.5V27.764C40.758,27.277,39.412,27,38,27v14.5C38,41.776,38.224,42,38.5,42z"/><path d="M32,28.792V41.5c0,0.276,0.224,0.5,0.5,0.5h3c0.276,0,0.5-0.224,0.5-0.5V27.191C34.547,27.46,33.194,28.012,32,28.792z"/><path d="M27,38c0,1.412,0.277,2.758,0.764,4H29.5c0.276,0,0.5-0.224,0.5-0.5V30.474C28.146,32.443,27,35.088,27,38z"/></g><g opacity=".07"><path d="M38.5,42h3c0.276,0,0.5-0.224,0.5-0.5V28.296c-1.234-0.51-2.584-0.796-4-0.796v14C38,41.776,38.224,42,38.5,42z"/><path d="M27.5,38c0,1.416,0.285,2.766,0.796,4H29.5c0.276,0,0.5-0.224,0.5-0.5V31.216C28.444,33.047,27.5,35.414,27.5,38z"/><path d="M32,29.395V41.5c0,0.276,0.224,0.5,0.5,0.5h3c0.276,0,0.5-0.224,0.5-0.5V27.696C34.535,27.98,33.18,28.57,32,29.395z"/></g><linearGradient id="6PMYR3ybpgoOl4M0RD9hub" x1="27.766" x2="43.124" y1="27.766" y2="43.124" gradientUnits="userSpaceOnUse"><stop offset="0" stop-color="#05acb3"/><stop offset="1" stop-color="#038387"/></linearGradient><path fill="url(#6PMYR3ybpgoOl4M0RD9hub)" d="M48,38c0,5.522-4.478,10-10,10s-10-4.478-10-10s4.478-10,10-10S48,32.478,48,38z"/><path d="M38.01,44.537c-1.727,0-3.36-0.633-4.603-1.781c-2.416-2.237-2.83-5.982-1.026-8.709l-0.279-0.279	c-0.385-0.385-0.498-0.958-0.29-1.46c0.207-0.502,0.692-0.826,1.236-0.826h3.034c0.816,0,1.481,0.665,1.481,1.481v3.034	c0,0.739-0.602,1.34-1.342,1.34c-0.346,0-0.674-0.133-0.925-0.374c-0.123,0.401-0.157,0.827-0.098,1.245	c0.114,0.8,0.556,1.496,1.244,1.958c0.457,0.308,0.998,0.47,1.564,0.47s1.107-0.162,1.564-0.47c0.696-0.468,1.143-1.172,1.257-1.982	c0.114-0.803-0.117-1.618-0.634-2.234c-0.46-0.55-0.43-1.343,0.071-1.844l0.857-0.857c0.254-0.254,0.605-0.399,0.966-0.399	c0.387,0,0.755,0.165,1.009,0.454c2.407,2.735,2.188,6.977-0.489,9.455C41.367,43.905,39.734,44.537,38.01,44.537z" opacity=".05"/><path d="M38.009,44.037c-1.6,0-3.113-0.586-4.262-1.648c-2.363-2.188-2.644-5.861-0.715-8.396l-0.577-0.578	c-0.241-0.241-0.313-0.6-0.182-0.915c0.13-0.314,0.434-0.518,0.774-0.518h3.034c0.541,0,0.981,0.44,0.981,0.981v3.034	c0,0.463-0.378,0.84-0.842,0.84c-0.222,0-0.432-0.088-0.591-0.247l-0.495-0.495c-0.384,0.653-0.54,1.425-0.432,2.184	c0.135,0.942,0.652,1.76,1.46,2.303c0.539,0.362,1.177,0.555,1.844,0.555s1.305-0.192,1.844-0.555	c0.814-0.548,1.338-1.374,1.473-2.327c0.134-0.943-0.138-1.9-0.745-2.626c-0.293-0.35-0.275-0.853,0.041-1.169l0.857-0.857	c0.161-0.161,0.384-0.253,0.612-0.253c0.243,0,0.475,0.104,0.634,0.284c2.229,2.534,2.025,6.462-0.454,8.758	C41.121,43.452,39.608,44.037,38.009,44.037L38.009,44.037z" opacity=".07"/><path fill="#fff" d="M42.35,33.964c-0.134-0.153-0.375-0.153-0.519-0.009l-0.857,0.857	c-0.136,0.136-0.134,0.348-0.011,0.495c1.425,1.703,1.148,4.357-0.833,5.689c-1.268,0.853-2.978,0.853-4.246,0	c-1.979-1.331-2.237-3.971-0.815-5.673l0.914,0.914c0.214,0.214,0.579,0.062,0.579-0.24v-3.034c0-0.266-0.216-0.482-0.482-0.482	h-3.034c-0.302,0-0.453,0.365-0.24,0.579l0.898,0.898c-2.061,2.322-1.949,5.907,0.38,8.063c2.182,2.02,5.66,2.021,7.843,0.001	C44.253,39.873,44.393,36.287,42.35,33.964z"/></svg>