<svg xmlns="http://www.w3.org/2000/svg" viewBox="0 0 48 48"><radialGradient id="oav3xUBDdpLanaKzOEK7qa" cx="15.536" cy="35.138" r="19.566" gradientTransform="scale(1 -1) rotate(-45 -41.923 8.694)" gradientUnits="userSpaceOnUse"><stop offset=".805" stop-color="#9a9a9a"/><stop offset=".864" stop-color="#929292"/><stop offset=".953" stop-color="#7e7e7e"/><stop offset="1" stop-color="#707070"/></radialGradient><path fill="url(#oav3xUBDdpLanaKzOEK7qa)" d="M21.538,32.219V12h5v17.925C25.181,30.985,23.451,31.852,21.538,32.219z"/><path fill="#61e3a7" d="M45,42H3c-0.552,0-1-0.448-1-1V21c0-0.552,0.448-1,1-1h42c0.552,0,1,0.448,1,1v20	C46,41.552,45.552,42,45,42z"/><path fill="#33c481" d="M7,20v22h34V20H7z M20,39c-4.418,0-8-3.582-8-8s3.582-8,8-8s8,3.582,8,8S24.418,39,20,39z M38.5,39	c-0.828,0-1.5-0.672-1.5-1.5s0.672-1.5,1.5-1.5s1.5,0.672,1.5,1.5S39.328,39,38.5,39z M34.5,39c-0.828,0-1.5-0.672-1.5-1.5	s0.672-1.5,1.5-1.5s1.5,0.672,1.5,1.5S35.328,39,34.5,39z"/><path fill="#088242" d="M24,24L24,24c-0.552,0-1-0.448-1-1v-3h2v3C25,23.552,24.552,24,24,24z"/><path fill="#088242" d="M24,30L24,30c-0.552,0-1-0.448-1-1v-2c0-0.552,0.448-1,1-1h0c0.552,0,1,0.448,1,1v2	C25,29.552,24.552,30,24,30z"/><path fill="#088242" d="M24,36L24,36c-0.552,0-1-0.448-1-1v-2c0-0.552,0.448-1,1-1h0c0.552,0,1,0.448,1,1v2	C25,35.552,24.552,36,24,36z"/><path fill="#088242" d="M25,42h-2v-3c0-0.552,0.448-1,1-1h0c0.552,0,1,0.448,1,1V42z"/><linearGradient id="oav3xUBDdpLanaKzOEK7qb" x1="8.662" x2="16.869" y1="38.498" y2="46.705" gradientTransform="scale(1 -1) rotate(-45 -41.923 8.694)" gradientUnits="userSpaceOnUse"><stop offset="0" stop-color="#199ae0"/><stop offset="1" stop-color="#0782d8"/></linearGradient><path fill="url(#oav3xUBDdpLanaKzOEK7qb)" d="M26.538,12V5c0-1.28-0.488-2.559-1.464-3.536c-1.953-1.953-5.118-1.953-7.071,0	s-1.953,5.118,0,7.071C18.979,9.512,20.258,10,21.538,10v2H26.538z M23.659,7.121c-1.172,1.172-3.071,1.172-4.243,0	s-1.172-3.071,0-4.243s3.071-1.172,4.243,0S24.831,5.95,23.659,7.121z"/><linearGradient id="oav3xUBDdpLanaKzOEK7qc" x1="18.345" x2="29.413" y1="41.589" y2="52.657" gradientTransform="scale(1 -1) rotate(-45 -41.923 8.694)" gradientUnits="userSpaceOnUse"><stop offset="0" stop-color="#32bdef"/><stop offset="1" stop-color="#1ea2e4"/></linearGradient><path fill="url(#oav3xUBDdpLanaKzOEK7qc)" d="M38.155,14.197c1.953-1.953,1.953-5.118,0-7.071s-5.118-1.953-7.071,0l-4.95,4.95l3.536,3.536	l1.414-1.414C33.037,16.149,36.202,16.149,38.155,14.197z M36.741,12.782c-1.172,1.172-3.071,1.172-4.243,0	c-1.172-1.172-1.172-3.071,0-4.243c1.172-1.172,3.071-1.172,4.243,0S37.912,11.611,36.741,12.782z"/><linearGradient id="oav3xUBDdpLanaKzOEK7qd" x1="23.387" x2="23.387" y1="17.037" y2="42.203" gradientTransform="scale(1 -1) rotate(-45 -41.923 8.694)" gradientUnits="userSpaceOnUse"><stop offset="0" stop-color="#c9c9c9"/><stop offset="1" stop-color="#b3b3b3"/></linearGradient><path fill="url(#oav3xUBDdpLanaKzOEK7qd)" d="M10.578,34.703l-0.194-0.194c-1.846-1.846-1.846-4.838,0-6.684l15.75-15.75l3.536,3.536	L10.578,34.703z"/><circle cx="24.026" cy="17.745" r=".907" fill="#fff"/><path fill="#e6e6e6" d="M9.401,33.051l9.662-9.662l1.414,1.414l-9.899,9.899l-0.194-0.194	C9.952,34.077,9.631,33.579,9.401,33.051z"/></svg>