<svg xmlns="http://www.w3.org/2000/svg" viewBox="0 0 48 48"><linearGradient id="FCFeM1SIG8QWSPauSnMhpa" x1="10.634" x2="32.821" y1="47.402" y2="5.149" gradientTransform="matrix(1 0 0 -1 0 47.89)" gradientUnits="userSpaceOnUse"><stop offset="0" stop-color="#fcfcfc"/><stop offset=".95" stop-color="#c3c9cd"/></linearGradient><path fill="url(#FCFeM1SIG8QWSPauSnMhpa)" d="M48,25c0-6.55-5.24-11.87-11.76-11.99C33.36,8.78,28.51,6,23,6C15.46,6,9.15,11.21,7.45,18.22	C3.18,19.16,0,22.96,0,27.5C0,32.75,4.25,37,9.5,37h0.524c1.686,3.544,5.29,6,9.476,6c3.288,0,6.221-1.514,8.146-3.88	C28.74,40.276,30.284,41,32,41c2.662,0,4.915-1.735,5.7-4.134C43.522,36.039,48,31.051,48,25z"/><path d="M46.62,30.57c-0.08,0.16-0.16,0.31-0.25,0.45	c-1.8,3.11-4.97,5.32-8.67,5.85c-0.63,1.93-2.22,3.43-4.2,3.94c-0.17,0.04-0.33,0.08-0.5,0.11V32.5c0-2.26,5.59-2.5,8-2.5	C42.38,30,44.81,30.08,46.62,30.57z" opacity=".05"/><path d="M46.37,31.02c-1.8,3.11-4.97,5.32-8.67,5.85	c-0.63,1.93-2.22,3.43-4.2,3.94V32.5c0-1.94,6.73-2,7.5-2C41.48,30.5,44.33,30.52,46.37,31.02z" opacity=".07"/><linearGradient id="FCFeM1SIG8QWSPauSnMhpb" x1="34" x2="48" y1="706.312" y2="706.312" gradientTransform="translate(0 -661.78)" gradientUnits="userSpaceOnUse"><stop offset="0" stop-color="#11408a"/><stop offset="1" stop-color="#103f8f"/></linearGradient><path fill="url(#FCFeM1SIG8QWSPauSnMhpb)" d="M48,41.063H34c0,0,0,4.75,0,5.088c0,1.022,3.134,1.85,7,1.85s7-0.828,7-1.85	C48,45.813,48,41.063,48,41.063z"/><linearGradient id="FCFeM1SIG8QWSPauSnMhpc" x1="34" x2="48" y1="702.124" y2="702.124" gradientTransform="translate(0 -661.78)" gradientUnits="userSpaceOnUse"><stop offset="0" stop-color="#1d59b3"/><stop offset="1" stop-color="#195bbc"/></linearGradient><path fill="url(#FCFeM1SIG8QWSPauSnMhpc)" d="M48,36.688H34c0,0,0,5.007,0,5.362c0,1.077,3.134,1.95,7,1.95s7-0.873,7-1.95	C48,41.695,48,36.688,48,36.688z"/><linearGradient id="FCFeM1SIG8QWSPauSnMhpd" x1="34" x2="48" y1="697.53" y2="697.53" gradientTransform="translate(0 -661.78)" gradientUnits="userSpaceOnUse"><stop offset="0" stop-color="#3079d6"/><stop offset="1" stop-color="#297cd2"/></linearGradient><path fill="url(#FCFeM1SIG8QWSPauSnMhpd)" d="M48,32.5H34c0,0,0,4.473,0,4.828C34,38.251,37.134,39,41,39s7-0.749,7-1.672	C48,36.973,48,32.5,48,32.5z"/><linearGradient id="FCFeM1SIG8QWSPauSnMhpe" x1="34" x2="48" y1="694.28" y2="694.28" gradientTransform="translate(0 -661.78)" gradientUnits="userSpaceOnUse"><stop offset="0" stop-color="#42a3f2"/><stop offset="1" stop-color="#42a4eb"/></linearGradient><ellipse cx="41" cy="32.5" fill="url(#FCFeM1SIG8QWSPauSnMhpe)" rx="7" ry="1.5"/></svg>