<svg xmlns="http://www.w3.org/2000/svg" baseProfile="basic" viewBox="0 0 48 48"><linearGradient id="k1T9yck-nDiFhWU5_A6loa" x1="5.015" x2="15.295" y1="26.538" y2="36.819" gradientUnits="userSpaceOnUse"><stop offset="0" stop-color="#00bffe"/><stop offset="1" stop-color="#1d55c4"/></linearGradient><path fill="url(#k1T9yck-nDiFhWU5_A6loa)" d="M9.738,22.524C4.912,22.524,1,26.436,1,31.262S4.912,40,9.738,40s8.738-3.912,8.738-8.738	S14.564,22.524,9.738,22.524z"/><linearGradient id="k1T9yck-nDiFhWU5_A6lob" x1="5.83" x2="15.049" y1="27.668" y2="36.887" gradientUnits="userSpaceOnUse"><stop offset="0" stop-color="#84e1fe"/><stop offset="1" stop-color="#167cf7"/></linearGradient><path fill="url(#k1T9yck-nDiFhWU5_A6lob)" d="M8.302,23.401	c1.273-0.159,1.687,0.446,1.687,1.273c0,0.828,0.796,0,1.146-0.509c0.152-0.222,0.196-0.844,0.197-1.476	c-0.518-0.097-1.047-0.165-1.593-0.165c-1.753,0-3.383,0.522-4.751,1.411c-0.138,0.692-0.455,1.67-1.173,1.949	c-1.146,0.446-1.369,1.56-1.432,2.737C2.318,29.798,2,31.103,2.7,31.167c0.7,0.064,0.191,0.891,0.955,0.987	c0.764,0.096,1.114,1.56,1.591,1.973c0.477,0.414-0.923,1.082-0.159,1.369c0.764,0.286,0.446,2.132,1.655,2.26	c0.983,0.103,0.728,1.411,0.597,1.903c0.53,0.151,1.078,0.255,1.644,0.303c0.193-0.272,0.567-0.718,1.006-0.806	c0.637-0.127,0.159-0.7,0.923-0.668c0.764,0.032,0.891-0.159,0.923-0.637c0.032-0.477,0.637-0.764,0.891-1.082	c0.255-0.318-0.159-0.668-1.751-1.019c-1.591-0.35-0.541-0.859-1.337-1.018c-0.796-0.159-1.146-0.605-1.528-1.082	C7.729,33.172,7.092,34,6.774,33.267c-0.318-0.732-1.4,0.255-1.623,0.191c-0.223-0.064-0.573-0.7-0.382-1.178	c0.191-0.477-0.541-0.573-0.414-1.082c0.127-0.509-0.509,0.064-0.891-0.223c-0.382-0.286-0.541-1.941,0.35-1.973	c0.891-0.032,1.464,1.369,1.655,0.477c0.191-0.891,1.496-2.101,2.61-2.005c1.114,0.096,0.191-0.859,1.019-1.178	c0.828-0.318-0.382-1.337-0.923-1.369c-0.541-0.032-0.955,0.923-1.241,1.369c-0.286,0.446-0.127-0.541-0.446-0.987	c-0.318-0.446-0.255-0.318,0.255-0.668c0.509-0.35,1.56,0.064,1.941,0.064s0.541-0.796-0.096-0.891	C7.952,23.719,7.029,23.56,8.302,23.401z"/><path d="M9.002,22.554C9.002,22.555,9.001,22.556,9,22.557l0,8.888C9,33.408,10.592,35,12.555,35h5.072	c0.539-1.135,0.849-2.399,0.849-3.738C18.476,26.193,14.16,22.132,9.002,22.554z" opacity=".05"/><path d="M10,22.537v8.796C10,32.806,11.194,34,12.667,34h5.366c0.284-0.862,0.444-1.781,0.444-2.738	C18.476,26.524,14.704,22.677,10,22.537z" opacity=".07"/><linearGradient id="k1T9yck-nDiFhWU5_A6loc" x1="14.806" x2="41.108" y1="38.444" y2="16.252" gradientTransform="matrix(1 0 0 -1 0 47.89)" gradientUnits="userSpaceOnUse"><stop offset="0" stop-color="#c3cdd9"/><stop offset="1" stop-color="#9fa7b0"/></linearGradient><path fill="url(#k1T9yck-nDiFhWU5_A6loc)" d="M44,33H13c-1.105,0-2-0.895-2-2V11	c0-1.105,0.895-2,2-2h31c1.105,0,2,0.895,2,2v20C46,32.105,45.105,33,44,33z"/><radialGradient id="k1T9yck-nDiFhWU5_A6lod" cx="137.453" cy="-177.092" r="71.953" gradientTransform="matrix(.8095 0 0 -.7188 -61.722 -74.682)" gradientUnits="userSpaceOnUse"><stop offset=".323" stop-color="#23d9d6"/><stop offset=".427" stop-color="#23d4d7"/><stop offset=".542" stop-color="#21c7dc"/><stop offset=".664" stop-color="#1fb0e2"/><stop offset=".789" stop-color="#1c91ec"/><stop offset=".917" stop-color="#1969f8"/><stop offset=".944" stop-color="#1860fb"/></radialGradient><rect width="31" height="20" x="13" y="11" fill="url(#k1T9yck-nDiFhWU5_A6lod)"/><path d="M34.337,27H22.663C22.297,27,22,26.703,22,26.337V14.663C22,14.297,22.297,14,22.663,14h11.674	C34.703,14,35,14.297,35,14.663v11.674C35,26.703,34.703,27,34.337,27z" opacity=".05"/><path d="M34.22,26.511H22.78c-0.161,0-0.291-0.13-0.291-0.291V14.78c0-0.161,0.13-0.291,0.291-0.291h11.44	c0.161,0,0.291,0.13,0.291,0.291v11.44C34.511,26.38,34.38,26.511,34.22,26.511z" opacity=".07"/><linearGradient id="k1T9yck-nDiFhWU5_A6loe" x1="28.5" x2="28.5" y1="14.905" y2="7.876" gradientTransform="matrix(1 0 0 -1 0 47.89)" gradientUnits="userSpaceOnUse"><stop offset="0" stop-color="#484b4f"/><stop offset=".23" stop-color="#656d75"/><stop offset=".367" stop-color="#727d86"/></linearGradient><path fill="url(#k1T9yck-nDiFhWU5_A6loe)" d="M36,36h-4v-3h-7v3h-4c-0.552,0-1,0.448-1,1	v2c0,0.552,0.448,1,1,1h15c0.552,0,1-0.448,1-1v-2C37,36.448,36.552,36,36,36z"/><rect width="5" height="5" x="23" y="15" fill="#fff"/><rect width="5" height="5" x="29" y="15" fill="#fff"/><rect width="5" height="5" x="23" y="21" fill="#fff"/><rect width="5" height="5" x="29" y="21" fill="#fff"/></svg>