<svg xmlns="http://www.w3.org/2000/svg" data-name="Слой 1" viewBox="0 0 48 48"><defs><linearGradient id="0hUXynralbRFDS~TRl7Cfa" x1="10.531" x2="27.482" y1="4.992" y2="51.563" data-name="Безымянный градиент 138" gradientUnits="userSpaceOnUse"><stop offset="0" stop-color="#6d6d6d"/><stop offset=".126" stop-color="#626262"/><stop offset=".987" stop-color="#464646"/><stop offset=".998" stop-color="#454545"/></linearGradient><linearGradient id="0hUXynralbRFDS~TRl7Cfb" x1="18.357" x2="24.573" y1="-1524.995" y2="-1560.249" data-name="Безымянный градиент 134" gradientTransform="matrix(1 0 0 -1 0 -1516)" gradientUnits="userSpaceOnUse"><stop offset="0" stop-color="#ffda1c"/><stop offset="1" stop-color="#feb705"/></linearGradient><radialGradient id="0hUXynralbRFDS~TRl7Cfc" cx="16.304" cy="21.674" r="24.895" data-name="Безымянный градиент 133" gradientUnits="userSpaceOnUse"><stop offset="0" stop-color="#4b4b4b"/><stop offset=".531" stop-color="#393939"/><stop offset="1" stop-color="#252525"/></radialGradient></defs><path fill="url(#0hUXynralbRFDS~TRl7Cfa)" d="M24.00043,4A1.96747,1.96747,0,0,0,22.2731,5.00878L1.82176,41.00568A2.00136,2.00136,0,0,0,3.54909,44H44.45078a2.001,2.001,0,0,0,1.72733-2.99432L25.72776,5.00878A1.96745,1.96745,0,0,0,24.00043,4Z"/><polygon fill="url(#0hUXynralbRFDS~TRl7Cfb)" points="5 41 24.001 8 43 41 5 41"/><path fill="url(#0hUXynralbRFDS~TRl7Cfc)" d="M32.08887,31.12109l-2.337.60523L25.97034,29.5l3.78149-2.22632,2.337.60523a.96742.96742,0,0,0,.251.03222.99977.99977,0,0,0,.25-1.96777l-1.76953-.459.458-1.76954a1.00014,1.00014,0,1,0-1.93652-.501l-.605,2.3374L25,27.75122V23.41406l1.707-1.707A.99989.99989,0,0,0,25.293,20.293L24,21.58594l-1.293-1.293A.99989.99989,0,0,0,21.293,21.707L23,23.41406v4.33716l-3.73682-2.2-.605-2.3374a1.00014,1.00014,0,1,0-1.93652.501l.458,1.76954-1.76953.459a.99977.99977,0,0,0,.25,1.96777.96742.96742,0,0,0,.251-.03222l2.337-.60523L22.02966,29.5l-3.78149,2.22632-2.337-.60523a.99967.99967,0,1,0-.501,1.93555l1.76953.459-.458,1.76953a.99986.99986,0,0,0,.71777,1.21875.97017.97017,0,0,0,.251.03222,1.00019,1.00019,0,0,0,.96777-.75l.605-2.3374L23,31.24878v4.33716l-1.707,1.707A.99989.99989,0,0,0,22.707,38.707L24,37.41406l1.293,1.293A.99989.99989,0,1,0,26.707,37.293L25,35.58594V31.24878l3.73682,2.19995.605,2.3374a1.00019,1.00019,0,0,0,.96777.75.97017.97017,0,0,0,.251-.03222.99986.99986,0,0,0,.71777-1.21875l-.458-1.76953,1.76953-.459a.99967.99967,0,1,0-.501-1.93555Z"/></svg>