<svg xmlns="http://www.w3.org/2000/svg" data-name="Слой 1" viewBox="0 0 48 48"><defs><linearGradient id="EnFIwBz1Idp8ESEfo3WDZa" x1="16.116" x2="33.73" y1="2.34" y2="50.734" data-name="Безымянный градиент 141" gradientUnits="userSpaceOnUse"><stop offset="0" stop-color="#fafafb"/><stop offset=".293" stop-color="#f6f7f8"/><stop offset=".566" stop-color="#ebecee"/><stop offset=".832" stop-color="#d8dcdf"/><stop offset="1" stop-color="#c8cdd1"/></linearGradient><linearGradient id="EnFIwBz1Idp8ESEfo3WDZc" x1="15.478" x2="34.518" y1=".586" y2="52.898" data-name="Безымянный градиент 121" gradientUnits="userSpaceOnUse"><stop offset="0" stop-color="#f44f5a"/><stop offset=".443" stop-color="#ee3d4a"/><stop offset="1" stop-color="#e52030"/></linearGradient><radialGradient id="EnFIwBz1Idp8ESEfo3WDZb" cx="16.076" cy="3.88" r="44.414" data-name="Безымянный градиент 165" gradientUnits="userSpaceOnUse"><stop offset="0" stop-color="#6d6d6d"/><stop offset=".146" stop-color="#626262"/><stop offset=".987" stop-color="#464646"/><stop offset=".998" stop-color="#454545"/></radialGradient></defs><path fill="url(#EnFIwBz1Idp8ESEfo3WDZa)" d="M42.5,24a18.35816,18.35816,0,0,1-4.4,11.97,17.85165,17.85165,0,0,1-2.13,2.13A18.4951,18.4951,0,0,1,9.9,12.03,17.86155,17.86155,0,0,1,12.03,9.8999,18.49521,18.49521,0,0,1,42.5,24Z"/><path fill="#f09ca2" d="M38.1,35.97a17.85165,17.85165,0,0,1-2.13,2.13L9.9,12.03A17.86155,17.86155,0,0,1,12.03,9.8999Z"/><path fill="url(#EnFIwBz1Idp8ESEfo3WDZb)" d="M35,15H31.37006L25,9.54V4.52c-.33-.01-.66-.02-1-.02s-.67.01-1,.03V9.54L16.62994,15H13a1,1,0,0,0-1,1v2a1,1,0,0,0,1,1H35a1,1,0,0,0,1-1V16A1,1,0,0,0,35,15ZM19.70447,15,24,11.32007,28.29553,15ZM22,25a2,2,0,1,0-2-2A2.00006,2.00006,0,0,0,22,25Zm4.25,10.25L26,34l-1.5,2,1.661,2.5459a1.00163,1.00163,0,0,0,.84.4541,1.00013,1.00013,0,0,0,.837-1.54492Zm1.672-7.01294a1.00315,1.00315,0,0,0-.357-.437L25.702,26.5249A2.99252,2.99252,0,0,0,24.006,26h-.659a1.99494,1.99494,0,0,0-1.544.729l-1.291,1.5669-1.894.77905a1.00044,1.00044,0,0,0,.762,1.8501l2.125-.875a1.00078,1.00078,0,0,0,.391-.28906l.448-.54395L23,32.25l-1.056,2.158-.018.025a.982.982,0,0,0-.152.347l-.745,2.979a.99975.99975,0,0,0,.728,1.21192,1.07411,1.07411,0,0,0,.244.029.99988.99988,0,0,0,.969-.75806L23.5,35.5l2.156-2.55493a1.49467,1.49467,0,0,0,.308-1.27l-.667-3.003.895.61291.886,2.104A.99979.99979,0,0,0,28,32a.98864.98864,0,0,0,.388-.0791.99909.99909,0,0,0,.534-1.30884Z"/><path fill="url(#EnFIwBz1Idp8ESEfo3WDZc)" d="M24,4A20,20,0,1,0,44,24,20,20,0,0,0,24,4Zm0,37A17,17,0,1,1,41,24,16.99994,16.99994,0,0,1,24,41Z"/></svg>