<svg xmlns="http://www.w3.org/2000/svg" viewBox="0 0 48 48"><path fill="#bfc8d1" d="M30,3c-0.552,0-1,0.448-1,1v3c0,0.552-0.448,1-1,1h0c-0.552,0-1-0.448-1-1V4c0-0.552-0.448-1-1-1	s-1,0.448-1,1v3c0,0.552-0.448,1-1,1h0c-0.552,0-1-0.448-1-1V4c0-0.552-0.448-1-1-1s-1,0.448-1,1v3c0,0.552-0.448,1-1,1h0	c-0.552,0-1-0.448-1-1V4c0-0.552-0.448-1-1-1s-1,0.448-1,1v4v6v5h14v-5V8V4C31,3.448,30.552,3,30,3z"/><linearGradient id="NSwjZo9hPcRlatKWN8dP7a" x1="18.865" x2="31.326" y1="9.404" y2="43.642" gradientUnits="userSpaceOnUse"><stop offset="0" stop-color="#32bdef"/><stop offset="1" stop-color="#1ea2e4"/></linearGradient><path fill="url(#NSwjZo9hPcRlatKWN8dP7a)" d="M30,11H18c-1.105,0-2,0.895-2,2v10c0,1.477,0.809,2.752,2,3.445l0,12.303	c0,3.285,2.532,6.15,5.815,6.249C27.213,45.099,30,42.375,30,39V26.445c1.191-0.693,2-1.968,2-3.445V13C32,11.895,31.105,11,30,11z"/><path d="M24,27c1.105,0,2,0.895,2,2v6c0,1.105-0.895,2-2,2s-2-0.895-2-2v-6C22,27.895,22.895,27,24,27 M24,26 c-1.654,0-3,1.346-3,3v6c0,1.654,1.346,3,3,3s3-1.346,3-3v-6C27,27.346,25.654,26,24,26L24,26z" opacity=".05"/><path d="M24,27c1.105,0,2,0.895,2,2v6c0,1.105-0.895,2-2,2s-2-0.895-2-2v-6C22,27.895,22.895,27,24,27 M24,26.5 c-1.379,0-2.5,1.121-2.5,2.5v6c0,1.379,1.121,2.5,2.5,2.5s2.5-1.121,2.5-2.5v-6C26.5,27.621,25.379,26.5,24,26.5L24,26.5z" opacity=".07"/><linearGradient id="NSwjZo9hPcRlatKWN8dP7b" x1="22.135" x2="26.486" y1="26.876" y2="38.831" gradientUnits="userSpaceOnUse"><stop offset="0" stop-color="#dfe9f2"/><stop offset=".391" stop-color="#d6e0e9"/><stop offset="1" stop-color="#bfc8d1"/></linearGradient><path fill="url(#NSwjZo9hPcRlatKWN8dP7b)" d="M24,27L24,27c-1.105,0-2,0.895-2,2v6 c0,1.105,0.895,2,2,2h0c1.105,0,2-0.895,2-2v-6C26,27.895,25.105,27,24,27z"/><path fill="#bfc8d1" d="M25,30h-2v4c0,0.552,0.448,1,1,1h0c0.552,0,1-0.448,1-1V30z"/><circle cx="24" cy="30" r="1" fill="#42a4ed"/><path fill="#3079d6" d="M18,11l1.406,2.109C19.777,13.666,20.402,14,21.07,14h5.859c0.669,0,1.293-0.334,1.664-0.891L30,11	H18z"/></svg>