<svg xmlns="http://www.w3.org/2000/svg" viewBox="0 0 48 48"><linearGradient id="w5qGVsxMOlfUBE4A1UIDUa" x1="23" x2="23" y1="4.043" y2="8.159" gradientUnits="userSpaceOnUse"><stop offset="0" stop-color="#636363"/><stop offset="1" stop-color="#444"/></linearGradient><path fill="url(#w5qGVsxMOlfUBE4A1UIDUa)" d="M24,8c-1.105,0-2-0.895-2-2s0.895-2,2-2V8z"/><linearGradient id="w5qGVsxMOlfUBE4A1UIDUb" x1="26.007" x2="24.017" y1="6" y2="6" gradientUnits="userSpaceOnUse"><stop offset="0" stop-color="#4c4c4c"/><stop offset="1" stop-color="#444"/></linearGradient><path fill="url(#w5qGVsxMOlfUBE4A1UIDUb)" d="M24,4c1.105,0,2,0.895,2,2s-0.895,2-2,2V4z"/><linearGradient id="w5qGVsxMOlfUBE4A1UIDUc" x1="18.5" x2="18.5" y1="5.929" y2="39.182" gradientUnits="userSpaceOnUse"><stop offset="0" stop-color="#636363"/><stop offset="1" stop-color="#444"/></linearGradient><path fill="url(#w5qGVsxMOlfUBE4A1UIDUc)" d="M20,6c-0.552,0-1,0.448-1,1c0,0.805,2,8.241,2,11.51C21,29,13,39,13,39h11V6H20z"/><linearGradient id="w5qGVsxMOlfUBE4A1UIDUd" x1="35.228" x2="26.637" y1="22.5" y2="22.5" gradientUnits="userSpaceOnUse"><stop offset="0" stop-color="#4c4c4c"/><stop offset="1" stop-color="#444"/></linearGradient><path fill="url(#w5qGVsxMOlfUBE4A1UIDUd)" d="M28,6c0.552,0,1,0.448,1,1c0,0.805-2,8.241-2,11.51C27,29,35,39,35,39H24V6H28z"/><linearGradient id="w5qGVsxMOlfUBE4A1UIDUe" x1="24" x2="24" y1="39" y2="41.995" gradientUnits="userSpaceOnUse"><stop offset="0" stop-color="#eba600"/><stop offset="1" stop-color="#c28200"/></linearGradient><path fill="url(#w5qGVsxMOlfUBE4A1UIDUe)" d="M35.5,39h-23c-0.828,0-1.5,0.672-1.5,1.5c0,0.828,0.672,1.5,1.5,1.5h23	c0.828,0,1.5-0.672,1.5-1.5C37,39.672,36.328,39,35.5,39z"/></svg>