<svg xmlns="http://www.w3.org/2000/svg" viewBox="0 0 48 48"><linearGradient id="pY0QrjkxZ3AgFPoZ7Vofta" x1="6.627" x2="43.393" y1="6.386" y2="43.663" gradientUnits="userSpaceOnUse"><stop offset="0" stop-color="#33bef0"/><stop offset="1" stop-color="#0a85d9"/></linearGradient><path fill="url(#pY0QrjkxZ3AgFPoZ7Vofta)" d="M40,6H8C6.895,6,6,6.895,6,8v32c0,1.105,0.895,2,2,2h32c1.105,0,2-0.895,2-2V8	C42,6.895,41.105,6,40,6z"/><ellipse cx="24" cy="24" opacity=".05" rx="11.5" ry="9.5"/><ellipse cx="24" cy="24" opacity=".07" rx="11" ry="9"/><radialGradient id="pY0QrjkxZ3AgFPoZ7Voftb" cx="20.924" cy="-464.332" r="10.612" gradientTransform="matrix(1.05 0 0 1.0625 2.1 514.688)" gradientUnits="userSpaceOnUse"><stop offset=".55" stop-color="#e4e4e6"/><stop offset=".73" stop-color="#e1e2e4"/><stop offset=".854" stop-color="#d8dadc"/><stop offset=".961" stop-color="#c9cdcf"/><stop offset="1" stop-color="#c1c6c9"/></radialGradient><ellipse cx="24" cy="24" fill="url(#pY0QrjkxZ3AgFPoZ7Voftb)" rx="10.5" ry="8.5"/><linearGradient id="pY0QrjkxZ3AgFPoZ7Voftc" x1="19.544" x2="28.582" y1="-459.956" y2="-450.918" gradientTransform="translate(0 478)" gradientUnits="userSpaceOnUse"><stop offset="0" stop-color="#32bdef"/><stop offset="1" stop-color="#1ea2e4"/></linearGradient><circle cx="24" cy="22.5" r="7" fill="url(#pY0QrjkxZ3AgFPoZ7Voftc)"/><radialGradient id="pY0QrjkxZ3AgFPoZ7Voftd" cx="21.643" cy="-461.352" r="10.382" gradientTransform="translate(0 478)" gradientUnits="userSpaceOnUse"><stop offset="0" stop-color="#4b4b4b"/><stop offset=".531" stop-color="#393939"/><stop offset="1" stop-color="#252525"/></radialGradient><circle cx="24" cy="22.5" r="4" fill="url(#pY0QrjkxZ3AgFPoZ7Voftd)"/><circle cx="26" cy="19.5" r="1" fill="#fff"/></svg>