<svg xmlns="http://www.w3.org/2000/svg" viewBox="0 0 48 48"><path fill="#b30b00" d="M38,42H10c-2.209,0-4-1.791-4-4V10c0-2.209,1.791-4,4-4h28c2.209,0,4,1.791,4,4v28	C42,40.209,40.209,42,38,42z"/><path fill="#fff" d="M35.241,26.799c-1.692-1.757-6.314-1.041-7.42-0.911c-1.627-1.562-2.734-3.45-3.124-4.101	c0.586-1.757,0.976-3.515,1.041-5.402c0-1.627-0.651-3.385-2.473-3.385c-0.651,0-1.237,0.391-1.562,0.911	c-0.781,1.367-0.456,4.101,0.781,6.899c-0.716,2.018-1.367,3.97-3.189,7.42c-1.888,0.781-5.858,2.604-6.183,4.556	c-0.13,0.586,0.065,1.172,0.521,1.627C14.088,34.805,14.673,35,15.259,35c2.408,0,4.751-3.32,6.379-6.118	c1.367-0.456,3.515-1.107,5.663-1.497c2.538,2.213,4.751,2.538,5.923,2.538c1.562,0,2.148-0.651,2.343-1.237	C35.892,28.036,35.697,27.32,35.241,26.799z M33.614,27.905c-0.065,0.456-0.651,0.911-1.692,0.651	c-1.237-0.325-2.343-0.911-3.32-1.692c0.846-0.13,2.734-0.325,4.101-0.065C33.224,26.929,33.744,27.254,33.614,27.905z M22.744,14.497c0.13-0.195,0.325-0.325,0.521-0.325c0.586,0,0.716,0.716,0.716,1.302c-0.065,1.367-0.325,2.734-0.781,4.036	C22.224,16.905,22.419,15.083,22.744,14.497z M22.614,27.124c0.521-1.041,1.237-2.864,1.497-3.645	c0.586,0.976,1.562,2.148,2.083,2.669C26.194,26.213,24.176,26.604,22.614,27.124z M18.774,29.728	c-1.497,2.473-3.059,4.036-3.905,4.036c-0.13,0-0.26-0.065-0.391-0.13c-0.195-0.13-0.26-0.325-0.195-0.586	C14.478,32.136,16.17,30.899,18.774,29.728z"/></svg>