<svg xmlns="http://www.w3.org/2000/svg" viewBox="0 0 48 48"><radialGradient id="B-CJKz2VZmxGHKsW1k8Rka" cx="18.708" cy="6.236" r="34.62" gradientUnits="userSpaceOnUse"><stop offset="0" stop-color="#f7f7f7"/><stop offset=".358" stop-color="#f3f3f3"/><stop offset=".751" stop-color="#e5e5e5"/><stop offset="1" stop-color="#d9d9d9"/></radialGradient><path fill="url(#B-CJKz2VZmxGHKsW1k8Rka)" d="M41,26.5C41,38.374,33.389,45,24,45S7,38.374,7,26.5S14.611,2,24,2S41,14.626,41,26.5z"/><path fill="#586169" d="M23.705,27.92h-3.441v-0.802l1.58-2.009c0.201-0.278,0.348-0.522,0.443-0.732 c0.095-0.21,0.142-0.411,0.142-0.604c0-0.259-0.045-0.463-0.134-0.61c-0.09-0.147-0.219-0.221-0.387-0.221 c-0.184,0-0.331,0.086-0.439,0.257c-0.108,0.171-0.162,0.412-0.162,0.722h-1.139c0-0.358,0.074-0.686,0.223-0.983 c0.148-0.297,0.357-0.527,0.626-0.692S21.589,22,21.928,22c0.521,0,0.926,0.144,1.213,0.431c0.287,0.287,0.431,0.696,0.431,1.225 c0,0.329-0.08,0.662-0.239,1.001c-0.159,0.338-0.447,0.755-0.864,1.249l-0.75,1.071h1.985V27.92z"/><path fill="#586169" d="M24.535,25.048l0.289-2.968h2.828v0.971h-1.897l-0.104,1.251c0.219-0.147,0.445-0.221,0.678-0.221 c0.481,0,0.852,0.171,1.113,0.513c0.261,0.342,0.391,0.826,0.391,1.452c0,0.586-0.155,1.057-0.465,1.416 C27.057,27.821,26.642,28,26.124,28c-0.307,0-0.592-0.073-0.854-0.219c-0.262-0.146-0.469-0.348-0.62-0.608 c-0.151-0.259-0.228-0.553-0.231-0.882h1.123c0.019,0.243,0.079,0.432,0.18,0.566s0.233,0.201,0.393,0.201 c0.187,0,0.332-0.09,0.433-0.271c0.102-0.18,0.152-0.45,0.152-0.808c0-0.337-0.061-0.591-0.182-0.762s-0.292-0.257-0.511-0.257 c-0.214,0-0.38,0.074-0.497,0.221l-0.072,0.1L24.535,25.048z"/><polygon fill="#586169" points="26,38 21,38 23.5,35"/><path fill="#586169" d="M24,33c-0.4,0-0.6-0.002-0.999-0.012c-0.015-1.211-0.023-1.817-0.038-3.028 C23.375,29.983,23.582,29.991,24,30C24,31.2,24,31.8,24,33z M21.963,30.907c-0.403-0.031-0.603-0.05-1.001-0.095 c0.019,0.829,0.028,1.244,0.047,2.073c0.397,0.032,0.596,0.044,0.994,0.065C21.987,32.133,21.979,31.724,21.963,30.907z M19.972,30.685c-0.394-0.057-0.59-0.089-0.979-0.159c0.017,0.856,0.025,1.284,0.042,2.14c0.393,0.057,0.59,0.082,0.985,0.126 C20,31.949,19.991,31.528,19.972,30.685z M18.025,30.334c-0.385-0.083-0.577-0.128-0.958-0.225 c0.007,0.882,0.011,1.322,0.018,2.204c0.387,0.085,0.581,0.124,0.971,0.194C18.043,31.638,18.037,31.203,18.025,30.334z M16.118,28.735c-0.374-0.115-0.56-0.175-0.93-0.302c-0.008,1.351-0.012,2.027-0.019,3.378c0.379,0.116,0.57,0.17,0.954,0.27 C16.12,30.743,16.119,30.074,16.118,28.735z M8.882,25.522C8.529,25.318,8.353,25.214,8,25c0,1.2,0,1.8,0,3 c0.333,0.273,0.501,0.404,0.841,0.655C8.858,27.402,8.866,26.775,8.882,25.522z M14.253,29.234 c-0.369-0.137-0.553-0.209-0.919-0.359c-0.016,0.908-0.024,1.362-0.041,2.269c0.37,0.151,0.557,0.222,0.932,0.355 C14.236,30.594,14.241,30.14,14.253,29.234z M12.424,28.483c-0.362-0.164-0.542-0.249-0.901-0.427 c-0.022,0.897-0.033,1.346-0.055,2.243c0.36,0.188,0.541,0.278,0.906,0.447C12.394,29.84,12.404,29.387,12.424,28.483z M10.63,27.594c-0.355-0.192-0.532-0.291-0.884-0.496c-0.018,0.863-0.027,1.294-0.045,2.157c0.347,0.229,0.522,0.339,0.876,0.547 C10.598,28.919,10.608,28.477,10.63,27.594z"/><linearGradient id="B-CJKz2VZmxGHKsW1k8Rkb" x1="7.022" x2="40.977" y1="30.275" y2="30.275" gradientUnits="userSpaceOnUse"><stop offset="0" stop-color="#e6e6e6"/><stop offset=".584" stop-color="#bfbfbf"/></linearGradient><path fill="url(#B-CJKz2VZmxGHKsW1k8Rkb)" d="M7.022,27.054 c0.005,0.247,0.018,0.489,0.03,0.731C9.77,30.482,15.259,33.497,24,33.497s14.23-3.015,16.948-5.712 c0.012-0.242,0.025-0.484,0.03-0.731c-2.457,2.694-7.923,5.943-16.978,5.943S9.479,29.748,7.022,27.054z"/><path fill="#ededed" d="M7.052,27.774c0.011,0.234,0.011,0.477,0.029,0.706c2.884,2.649,8.322,5.51,16.92,5.51 s14.036-2.86,16.92-5.51c0.017-0.23,0.017-0.472,0.029-0.706C38.265,30.436,32.851,33.49,24,33.49S9.735,30.436,7.052,27.774z"/></svg>