<svg xmlns="http://www.w3.org/2000/svg" viewBox="0 0 48 48"><linearGradient id="oYxLsdnq4z88FekyUUJ26a" x1="13.341" x2="33.72" y1="639.029" y2="621.834" gradientTransform="matrix(1 0 0 -1 0 662)" gradientUnits="userSpaceOnUse"><stop offset="0" stop-color="#a1aab3"/><stop offset="1" stop-color="#8f979e"/></linearGradient><path fill="url(#oYxLsdnq4z88FekyUUJ26a)" d="M41,35H7c-1.105,0-2-0.895-2-2v-3h38v3C43,34.105,42.105,35,41,35z"/><linearGradient id="oYxLsdnq4z88FekyUUJ26b" x1="24" x2="24" y1="627.011" y2="621.99" gradientTransform="matrix(1 0 0 -1 0 662)" gradientUnits="userSpaceOnUse"><stop offset="0" stop-color="#484b4f"/><stop offset=".037" stop-color="#4a4e52"/><stop offset=".388" stop-color="#5c6369"/><stop offset=".717" stop-color="#667077"/><stop offset="1" stop-color="#6a747c"/></linearGradient><polygon fill="url(#oYxLsdnq4z88FekyUUJ26b)" points="29,40 19,40 20,35 28,35"/><linearGradient id="oYxLsdnq4z88FekyUUJ26c" x1="24" x2="24" y1="622.004" y2="619.996" gradientTransform="matrix(1 0 0 -1 0 662)" gradientUnits="userSpaceOnUse"><stop offset="0" stop-color="#a1aab3"/><stop offset="1" stop-color="#8f979e"/></linearGradient><path fill="url(#oYxLsdnq4z88FekyUUJ26c)" d="M32.5,40h-17c-0.276,0-0.5,0.224-0.5,0.5v1c0,0.276,0.224,0.5,0.5,0.5h17	c0.276,0,0.5-0.224,0.5-0.5v-1C33,40.224,32.776,40,32.5,40z"/><circle cx="24" cy="33" r="1" fill="#64717c"/><radialGradient id="oYxLsdnq4z88FekyUUJ26d" cx="42.958" cy="630.808" r="34.553" gradientTransform="matrix(1 0 0 -1 0 662)" gradientUnits="userSpaceOnUse"><stop offset="0" stop-color="#9e6fd9"/><stop offset=".173" stop-color="#aa73c7"/><stop offset=".522" stop-color="#ca7f97"/><stop offset="1" stop-color="#fc914d"/></radialGradient><path fill="url(#oYxLsdnq4z88FekyUUJ26d)" d="M41,7H7C5.895,7,5,7.895,5,9v22h38V9C43,7.895,42.105,7,41,7z"/></svg>