<svg xmlns="http://www.w3.org/2000/svg" viewBox="0 0 48 48"><circle cx="39.5" cy="29.5" r="2.5" fill="#c98e00"/><polygon fill="#c98e00" points="26.211,39.683 40.68,31.693 38.54,27.191 26,33"/><linearGradient id="00nthYwDiWsq1SuI1UHGda" x1="3" x2="45" y1="1537" y2="1537" gradientTransform="translate(0 -1506)" gradientUnits="userSpaceOnUse"><stop offset="0" stop-color="#ffcf54"/><stop offset=".261" stop-color="#fdcb4d"/><stop offset=".639" stop-color="#f7c13a"/><stop offset="1" stop-color="#f0b421"/></linearGradient><path fill="url(#00nthYwDiWsq1SuI1UHGda)" d="M45,30.5c0-1.381-1.119-2.5-2.5-2.5c-0.34,0-0.664,0.069-0.959,0.192l-0.001-0.001	l-0.011,0.005c-0.002,0.001-0.004,0.002-0.006,0.003L29,34l-1.5-1c1.381,0,2.5-1.119,2.5-2.5c0-0.93-0.514-1.732-1.267-2.163	l0.004-0.016l-13.651-6.866h-0.025C14.431,21.169,13.737,21,13,21c-0.718,0-1.397,0.157-2.015,0.43h-0.022L3,25v13l8.09-3.718	l15.911,6.508h0.001C27.309,40.924,27.645,41,28,41c0.435,0,0.838-0.121,1.195-0.317l0.017-0.001l14.469-7.989l-0.001-0.002	C44.462,32.269,45,31.452,45,30.5z"/><circle cx="27.5" cy="30.5" r="1.5" fill="#ffde87"/><linearGradient id="00nthYwDiWsq1SuI1UHGdb" x1="22.337" x2="24.123" y1="1540.368" y2="1537.288" gradientTransform="translate(0 -1506)" gradientUnits="userSpaceOnUse"><stop offset="0" stop-color="#f0b421" stop-opacity="0"/><stop offset=".512" stop-color="#e9ab12" stop-opacity=".512"/><stop offset="1" stop-color="#e09f00"/></linearGradient><path fill="url(#00nthYwDiWsq1SuI1UHGdb)" d="M29,34l-1.489-0.998c-1.255-0.06-2.242-0.468-10.511-3.513V33l11.551,4.734	C28.551,37.734,27.733,35.451,29,34z"/><linearGradient id="00nthYwDiWsq1SuI1UHGdc" x1="28" x2="28" y1="-1.128" y2="11.516" gradientUnits="userSpaceOnUse"><stop offset="0" stop-color="#fafafb"/><stop offset="1" stop-color="#c8cdd1"/></linearGradient><path fill="url(#00nthYwDiWsq1SuI1UHGdc)" d="M28,15c-0.553,0-1-0.448-1-1V2c0-0.552,0.447-1,1-1s1,0.448,1,1v12C29,14.552,28.553,15,28,15	z"/><linearGradient id="00nthYwDiWsq1SuI1UHGdd" x1="24" x2="24" y1="-1.128" y2="11.516" gradientUnits="userSpaceOnUse"><stop offset="0" stop-color="#fafafb"/><stop offset="1" stop-color="#c8cdd1"/></linearGradient><path fill="url(#00nthYwDiWsq1SuI1UHGdd)" d="M24,16c-0.553,0-1-0.448-1-1V5c0-0.552,0.447-1,1-1s1,0.448,1,1v10C25,15.552,24.553,16,24,16	z"/><linearGradient id="00nthYwDiWsq1SuI1UHGde" x1="36" x2="36" y1="-1.128" y2="11.516" gradientUnits="userSpaceOnUse"><stop offset="0" stop-color="#fafafb"/><stop offset="1" stop-color="#c8cdd1"/></linearGradient><path fill="url(#00nthYwDiWsq1SuI1UHGde)" d="M35,12V2c0-0.552,0.447-1,1-1s1,0.448,1,1v10c0,0.552-0.447,1-1,1S35,12.552,35,12z"/><linearGradient id="00nthYwDiWsq1SuI1UHGdf" x1="32" x2="32" y1="-1.128" y2="11.516" gradientUnits="userSpaceOnUse"><stop offset="0" stop-color="#fafafb"/><stop offset="1" stop-color="#c8cdd1"/></linearGradient><path fill="url(#00nthYwDiWsq1SuI1UHGdf)" d="M31,8V1c0-0.552,0.447-1,1-1s1,0.448,1,1v7c0,0.552-0.447,1-1,1S31,8.552,31,8z"/><linearGradient id="00nthYwDiWsq1SuI1UHGdg" x1="40" x2="40" y1="-1.128" y2="11.516" gradientUnits="userSpaceOnUse"><stop offset="0" stop-color="#fafafb"/><stop offset="1" stop-color="#c8cdd1"/></linearGradient><path fill="url(#00nthYwDiWsq1SuI1UHGdg)" d="M39,15V5c0-0.552,0.447-1,1-1s1,0.448,1,1v10c0,0.552-0.447,1-1,1S39,15.552,39,15z"/><linearGradient id="00nthYwDiWsq1SuI1UHGdh" x1="25.816" x2="38.315" y1="653.184" y2="640.685" gradientTransform="matrix(1 0 0 -1 0 662)" gradientUnits="userSpaceOnUse"><stop offset="0" stop-color="#fede00"/><stop offset="1" stop-color="#ffd000"/></linearGradient><circle cx="31.979" cy="14.979" r="8.979" fill="url(#00nthYwDiWsq1SuI1UHGdh)"/><circle cx="31.964" cy="14.995" r="6.995" fill="#f5be00"/><path fill="#fee119" d="M35.067,18.872c0.025,0.116-0.035,0.232-0.143,0.283c-0.474,0.224-1.177,0.424-1.945,0.424	c-1.337,0-2.565-0.546-3.33-1.556c-0.368-0.463-0.642-1.05-0.764-1.774h-0.645c-0.133,0-0.241-0.108-0.241-0.241v-0.486	c0-0.133,0.108-0.241,0.241-0.241h0.509c0-0.068,0-0.15,0-0.232c0-0.137,0.014-0.273,0.014-0.41h-0.522	c-0.133,0-0.241-0.108-0.241-0.241v-0.486c0-0.133,0.108-0.241,0.241-0.241h0.673c0.178-0.737,0.505-1.365,0.942-1.869	c0.777-0.874,1.869-1.391,3.151-1.391c0.726,0,1.369,0.145,1.847,0.327c0.117,0.044,0.178,0.172,0.148,0.293L34.741,12.1	c-0.035,0.145-0.185,0.226-0.325,0.177c-0.341-0.119-0.787-0.228-1.257-0.228c-0.654,0-1.255,0.218-1.679,0.737	c-0.191,0.218-0.34,0.532-0.437,0.886H34.2c0.133,0,0.241,0.108,0.241,0.241V14.4c0,0.133-0.108,0.241-0.241,0.241h-3.361	c-0.014,0.137-0.014,0.286-0.014,0.423c0,0.082,0,0.137,0,0.218h3.375c0.133,0,0.241,0.108,0.241,0.241v0.486	c0,0.133-0.108,0.241-0.241,0.241h-3.184c0.095,0.409,0.246,0.723,0.451,0.955c0.437,0.491,1.078,0.696,1.76,0.696	c0.472,0,0.951-0.115,1.282-0.237c0.146-0.053,0.305,0.029,0.338,0.181L35.067,18.872z"/></svg>