<svg xmlns="http://www.w3.org/2000/svg" viewBox="0 0 48 48"><rect width="21.19" height="2.001" x="2.405" y="30.5" fill="#abb4be" transform="rotate(-19.27 13 31.496)"/><rect width="2.001" height="21.19" x="33" y="23.905" fill="#abb4be" transform="rotate(-56.453 34.002 34.502)"/><circle cx="6.5" cy="33.5" r="4.5" fill="#35c1f1"/><circle cx="40.5" cy="38.5" r="5.5" fill="#35c1f1"/><circle cx="23" cy="27" r="6" fill="#35c1f1"/><path d="M23,21c-1.331,0-2.558,0.436-3.551,1.17	c1.427,1.428,2.844,2.847,2.844,2.847c0.391,0.391,1.024,0.391,1.414,0c0,0,1.418-1.419,2.844-2.847C25.558,21.436,24.331,21,23,21z" opacity=".05"/><path d="M23,21c-1.148,0-2.217,0.328-3.127,0.889	c1.266,1.267,2.459,2.461,2.459,2.461c0.369,0.369,0.967,0.369,1.336,0c0,0,1.193-1.194,2.459-2.461C25.217,21.328,24.148,21,23,21z" opacity=".07"/><linearGradient id="95rVx16snak7WhXlDrYWTa" x1="17.344" x2="28.656" y1="40.547" y2="29.235" gradientTransform="matrix(1 0 0 -1 0 47.89)" gradientUnits="userSpaceOnUse"><stop offset="0" stop-color="#d43a02"/><stop offset="1" stop-color="#b9360c"/></linearGradient><path fill="url(#95rVx16snak7WhXlDrYWTa)" d="M28.734,18.571C30.134,17.131,31,15.168,31,13c0-4.418-3.582-8-8-8s-8,3.582-8,8	c0,2.168,0.866,4.131,2.266,5.571c0.008,0.008,5.106,5.111,5.106,5.111c0.347,0.347,0.91,0.347,1.257,0	C23.629,23.682,28.726,18.58,28.734,18.571z"/><radialGradient id="95rVx16snak7WhXlDrYWTb" cx="23" cy="34.89" r="3.5" gradientTransform="matrix(1 0 0 -1 0 47.89)" gradientUnits="userSpaceOnUse"><stop offset=".177"/><stop offset="1" stop-opacity="0"/></radialGradient><circle cx="23" cy="13" r="3.5" fill="url(#95rVx16snak7WhXlDrYWTb)"/><circle cx="23" cy="13" r="3" fill="#f9f9f9"/></svg>