<svg xmlns="http://www.w3.org/2000/svg" viewBox="0 0 48 48"><linearGradient id="fR6bJdcENKYLs4bBGrQNma" x1="24" x2="24" y1="1086.939" y2="1124.939" gradientTransform="translate(0 -1082)" gradientUnits="userSpaceOnUse"><stop offset="0" stop-color="#f0f0f0"/><stop offset="1" stop-color="#bbc1c4"/></linearGradient><path fill="url(#fR6bJdcENKYLs4bBGrQNma)" d="M40,43H8c-1.105,0-2-0.895-2-2V15L24,5l18,10v26C42,42.105,41.105,43,40,43z"/><linearGradient id="fR6bJdcENKYLs4bBGrQNmb" x1="21.115" x2="26.639" y1="1094.115" y2="1099.639" gradientTransform="translate(0 -1082)" gradientUnits="userSpaceOnUse"><stop offset="0" stop-color="#33bef0"/><stop offset="1" stop-color="#0a85d9"/></linearGradient><path fill="url(#fR6bJdcENKYLs4bBGrQNmb)" d="M22,12h4c0.552,0,1,0.448,1,1v4c0,0.552-0.448,1-1,1h-4c-0.552,0-1-0.448-1-1v-4	C21,12.448,21.448,12,22,12z"/><linearGradient id="fR6bJdcENKYLs4bBGrQNmc" x1="24" x2="24" y1="347.419" y2="367.055" gradientTransform="matrix(1 0 0 -1 0 390)" gradientUnits="userSpaceOnUse"><stop offset="0" stop-color="#393c40"/><stop offset=".102" stop-color="#35383c"/><stop offset=".471" stop-color="#2d3033"/><stop offset="1" stop-color="#2b2e30"/></linearGradient><rect width="30" height="20" x="9" y="23" fill="url(#fR6bJdcENKYLs4bBGrQNmc)"/><path fill="#64717c" d="M39,23H9v-1c0-0.552,0.448-1,1-1h28c0.552,0,1,0.448,1,1V23z"/><linearGradient id="fR6bJdcENKYLs4bBGrQNmd" x1="23.999" x2="23.999" y1="1085.049" y2="1098.827" gradientTransform="translate(0 -1082)" gradientUnits="userSpaceOnUse"><stop offset="0" stop-color="#d43a02"/><stop offset="1" stop-color="#b9360c"/></linearGradient><path fill="url(#fR6bJdcENKYLs4bBGrQNmd)" d="M41.654,17.096L24,7.288L6.346,17.096c-0.483,0.268-1.092,0.094-1.36-0.388l-0.972-1.749	c-0.268-0.483-0.094-1.092,0.388-1.36l18.14-10.078c0.906-0.503,2.008-0.503,2.914,0l18.14,10.078	c0.483,0.268,0.657,0.877,0.388,1.36l-0.972,1.749C42.746,17.191,42.137,17.365,41.654,17.096z"/></svg>