<svg xmlns="http://www.w3.org/2000/svg" viewBox="0 0 48 48"><path fill="#199ae0" d="M22.487,3.63L6.377,19.809C5.572,20.617,6.142,22,7.281,22h33.439c1.139,0,1.709-1.383,0.904-2.191 L25.513,3.63C24.678,2.79,23.322,2.79,22.487,3.63z"/><path fill="#199ae0" d="M25.513,45.37l16.11-16.179C42.428,28.383,41.858,27,40.719,27H7.281 c-1.139,0-1.709,1.383-0.904,2.191l16.11,16.179C23.322,46.21,24.678,46.21,25.513,45.37z"/><linearGradient id="SpWNEio0ajw5VRaOG8wqea" x1="15" x2="15" y1="46" y2="27" gradientUnits="userSpaceOnUse"><stop offset="0" stop-color="#1ea2e4"/><stop offset="1" stop-color="#32bdef"/></linearGradient><path fill="url(#SpWNEio0ajw5VRaOG8wqea)" d="M24,27H7.281c-1.139,0-1.709,1.383-0.904,2.191l16.11,16.179C22.904,45.79,23.452,46,24,46 V27z"/><linearGradient id="SpWNEio0ajw5VRaOG8wqeb" x1="15" x2="15" y1="22" y2="3" gradientUnits="userSpaceOnUse"><stop offset="0" stop-color="#1ea2e4"/><stop offset="1" stop-color="#32bdef"/></linearGradient><path fill="url(#SpWNEio0ajw5VRaOG8wqeb)" d="M24,3c-0.548,0-1.096,0.21-1.513,0.63L6.377,19.809C5.572,20.617,6.142,22,7.281,22H24V3z"/></svg>