<svg xmlns="http://www.w3.org/2000/svg" viewBox="0 0 48 48"><path fill="#33c481" d="M27.578,20.542c0,0-2.315-5.633,2.315-10.272s10.914-2.982,10.914-2.982L27.578,20.542z"/><path fill="#21a366" d="M40.807,7.288L27.581,20.543l-5.066,5.066l0.01,2.818l5.794-5.794	c2.035-2.035,4.765,0.335,9.512-4.412C42.134,13.919,40.807,7.288,40.807,7.288z"/><path fill="#21a366" d="M20.428,7.074c2.862,2.856,3.562,6.28,3.571,8.922c0.008,2.472,0,7.004,0,7.004L6.369,3.247	C6.369,3.247,14.889,1.546,20.428,7.074z"/><path fill="#33c481" d="M6.369,3.247c0,0-2.124,8.074,3.834,14.032c5.267,5.267,11.796,3.023,11.796,7.389V33h2V22.49	c0-1.063-0.423-2.082-1.175-2.832L6.369,3.247z"/><linearGradient id="EtEwV7YyMgDklFtYZBuCMa" x1="24" x2="24" y1="41.75" y2="45.438" gradientUnits="userSpaceOnUse"><stop offset=".018" stop-color="#005ab3"/><stop offset=".497" stop-color="#007ad9"/><stop offset="1" stop-color="#2aa4f4"/></linearGradient><path fill="url(#EtEwV7YyMgDklFtYZBuCMa)" d="M32,38v5c0,1.1-0.9,2-2,2H18c-1.1,0-2-0.9-2-2v-5H32z"/><linearGradient id="EtEwV7YyMgDklFtYZBuCMb" x1="24" x2="24" y1="25.25" y2="40.853" gradientUnits="userSpaceOnUse"><stop offset="0" stop-color="#2aa4f4"/><stop offset="1" stop-color="#007ad9"/></linearGradient><path fill="url(#EtEwV7YyMgDklFtYZBuCMb)" d="M42,25H6c-0.552,0-1,0.448-1,1v0c0,8.837,7.163,16,16,16h6c8.837,0,16-7.163,16-16v0	C43,25.448,42.552,25,42,25z"/><linearGradient id="EtEwV7YyMgDklFtYZBuCMc" x1="24" x2="24" y1="25.25" y2="40.853" gradientUnits="userSpaceOnUse"><stop offset="0" stop-color="#2aa4f4"/><stop offset="1" stop-color="#007ad9"/></linearGradient><path fill="url(#EtEwV7YyMgDklFtYZBuCMc)" d="M42,25H6c-0.552,0-1,0.448-1,1v0c0,8.837,7.163,16,16,16h6c8.837,0,16-7.163,16-16v0	C43,25.448,42.552,25,42,25z"/></svg>