<svg xmlns="http://www.w3.org/2000/svg" viewBox="0 0 48 48"><linearGradient id="3gsiW_rR2sk0F0aNA0kRaa" x1="4" x2="44.001" y1="9.5" y2="9.5" gradientUnits="userSpaceOnUse"><stop offset="0" stop-color="#7b83eb"/><stop offset="1" stop-color="#5961c3"/></linearGradient><path fill="url(#3gsiW_rR2sk0F0aNA0kRaa)" d="M43.346,12.062l-19-7c-0.222-0.082-0.468-0.082-0.691,0l-19,7	C4.2,12.23,3.931,12.698,4.016,13.176C4.101,13.652,4.516,14,5,14h38c0.484,0,0.899-0.348,0.985-0.824	C44.07,12.699,43.801,12.23,43.346,12.062z"/><circle cx="24" cy="10" r="2" fill="#5961c3"/><linearGradient id="3gsiW_rR2sk0F0aNA0kRab" x1="10" x2="38" y1="24" y2="24" gradientUnits="userSpaceOnUse"><stop offset="0" stop-color="#3940a4"/><stop offset="1" stop-color="#293091"/></linearGradient><rect width="28" height="20" x="10" y="14" fill="url(#3gsiW_rR2sk0F0aNA0kRab)"/><rect width="4" height="16" x="27" y="16" fill="#4951b5"/><rect width="4" height="16" x="37" y="16" fill="#4951b5"/><rect width="4" height="16" x="17" y="16" fill="#4951b5"/><rect width="4" height="16" x="7" y="16" fill="#4951b5"/><path fill="#5a63d2" d="M31,32h-4c-0.552,0-1,0.448-1,1v1h6v-1C32,32.448,31.552,32,31,32z"/><path d="M41,33.308V24h-3c-1.994,0-3.004,0.529-3.514,1.033C32.765,25.255,31,26.66,31,30	c0,0.775,0.123,1.699,0.375,2.817c-0.307,0.427-0.435,0.961-0.352,1.503l0.197,1.278c0.092,0.591,0.478,1.076,0.998,1.287	c0.272,0.742,0.806,1.491,1.537,2.166c-0.827,0.252-1.597,0.574-2.304,0.948h3.655L41,33.308z" opacity=".05"/><path d="M41,33.308V24.5h-3c-2.088,0-2.94,0.609-3.274,1.011C33.118,25.634,31.5,26.861,31.5,30	c0,0.791,0.137,1.756,0.417,2.944c-0.32,0.335-0.474,0.813-0.399,1.3l0.197,1.278c0.077,0.498,0.441,0.877,0.897,0.96	c0.246,0.866,0.911,1.768,1.888,2.55v0.331c-0.66,0.168-1.285,0.385-1.877,0.637h3.122L41,33.308z" opacity=".07"/><path fill="#5a63d2" d="M41,32h-4c-0.552,0-1,0.448-1,1v1h6v-1C42,32.448,41.552,32,41,32z"/><path fill="#5a63d2" d="M21,32h-4c-0.552,0-1,0.448-1,1v1h6v-1C22,32.448,21.552,32,21,32z"/><path fill="#5a63d2" d="M11,32H7c-0.552,0-1,0.448-1,1v1h6v-1C12,32.448,11.552,32,11,32z"/><path fill="#5a63d2" d="M32,14h-6v1c0,0.552,0.448,1,1,1h4c0.552,0,1-0.448,1-1V14z"/><path fill="#5a63d2" d="M42,14h-6v1c0,0.552,0.448,1,1,1h4c0.552,0,1-0.448,1-1V14z"/><path fill="#5a63d2" d="M38.499,37H2c-0.552,0-1,0.448-1,1v2h37.499V37z"/><path fill="#5a63d2" d="M22,14h-6v1c0,0.552,0.448,1,1,1h4c0.552,0,1-0.448,1-1V14z"/><path fill="#5a63d2" d="M12,14H6v1c0,0.552,0.448,1,1,1h4c0.552,0,1-0.448,1-1V14z"/><linearGradient id="3gsiW_rR2sk0F0aNA0kRac" x1="3" x2="38.499" y1="35.5" y2="35.5" gradientUnits="userSpaceOnUse"><stop offset="0" stop-color="#7b83eb"/><stop offset="1" stop-color="#5961c3"/></linearGradient><path fill="url(#3gsiW_rR2sk0F0aNA0kRac)" d="M38.499,34H4c-0.552,0-1,0.448-1,1v2h35.499V34z"/><linearGradient id="3gsiW_rR2sk0F0aNA0kRad" x1="35.909" x2="38.636" y1="-601.118" y2="-610.499" gradientTransform="matrix(1 0 0 -1 0 -562)" gradientUnits="userSpaceOnUse"><stop offset="0" stop-color="#8795a1"/><stop offset="1" stop-color="#6d7882"/></linearGradient><path fill="url(#3gsiW_rR2sk0F0aNA0kRad)" d="M38,39.429c-5.523,0-10,3.254-10,6.607V47c0,0.552,0.448,1,1,1h18c0.552,0,1-0.448,1-1 v-0.964C48,42.683,43.523,39.429,38,39.429z"/><path fill="#fff" d="M41,39.848C41,44.595,38,47,38,47s-3-2.405-3-7.152c0-1.582,0-2.448,0-2.448h6 C41,37.4,41,38.265,41,39.848z"/><path fill="#d32f2f" d="M36.8,42.8l0.6,0.6l-0.468,2.428C37.512,46.604,38,47,38,47s0.488-0.396,1.068-1.172L38.6,43.4 l0.6-0.6L38,42L36.8,42.8z"/><path fill="#d6a121" d="M41,39.6c0,1.138-1.2,2.4-3,2.4s-3-1.262-3-2.4c0-1.582,0-4.221,0-4.221h6 C41,35.379,41,38.018,41,39.6z"/><linearGradient id="3gsiW_rR2sk0F0aNA0kRae" x1="42.756" x2="43.804" y1="-596.5" y2="-596.5" gradientTransform="matrix(1 0 0 -1 0 -562)" gradientUnits="userSpaceOnUse"><stop offset="0" stop-color="#c48f0c"/><stop offset=".251" stop-color="#d19b16"/><stop offset=".619" stop-color="#dca51f"/><stop offset="1" stop-color="#e0a922"/></linearGradient><path fill="url(#3gsiW_rR2sk0F0aNA0kRae)" d="M43.095,33h-0.754v3h0.855c0.294,0,0.545-0.234,0.595-0.555l0.197-1.277 C44.081,33.557,43.655,33,43.095,33z"/><linearGradient id="3gsiW_rR2sk0F0aNA0kRaf" x1="-1547.733" x2="-1546.685" y1="-596.5" y2="-596.5" gradientTransform="rotate(180 -757.245 -281)" gradientUnits="userSpaceOnUse"><stop offset="0" stop-color="#c48f0c"/><stop offset=".251" stop-color="#d19b16"/><stop offset=".619" stop-color="#dca51f"/><stop offset="1" stop-color="#e0a922"/></linearGradient><path fill="url(#3gsiW_rR2sk0F0aNA0kRaf)" d="M32.905,33h0.754v3h-0.855c-0.294,0-0.545-0.234-0.595-0.555l-0.197-1.277 C31.919,33.557,32.345,33,32.905,33z"/><radialGradient id="3gsiW_rR2sk0F0aNA0kRag" cx="105.578" cy="-758.368" r="7.438" gradientTransform="matrix(.805 0 0 -.805 -46.99 -577.32)" gradientUnits="userSpaceOnUse"><stop offset="0" stop-color="#ffcf54"/><stop offset=".261" stop-color="#fdcb4d"/><stop offset=".639" stop-color="#f7c13a"/><stop offset="1" stop-color="#f0b421"/></radialGradient><path fill="url(#3gsiW_rR2sk0F0aNA0kRag)" d="M38,26.333c-2.467,0-5,0.375-5,5.708c0,0.427,0,3.265,0,3.721C33,37.667,36,40,38,40 s5-2.333,5-4.237c0-0.456,0-3.294,0-3.721C43,26.708,40.467,26.333,38,26.333z"/><radialGradient id="3gsiW_rR2sk0F0aNA0kRah" cx="99.201" cy="-686.394" r="19.47" gradientTransform="matrix(.805 0 0 -.8669 -46.99 -569.261)" gradientUnits="userSpaceOnUse"><stop offset="0" stop-color="#c26715"/><stop offset=".508" stop-color="#b85515"/><stop offset="1" stop-color="#ad3f16"/></radialGradient><path fill="url(#3gsiW_rR2sk0F0aNA0kRah)" d="M38,25c-2.387,0-3,1-3,1c-1.429,0-3,0.945-3,4c0,1.113,0.286,2.692,1,5 c0.341-4.406,1.048-6.587,2.143-6.587C35.935,28.413,36.646,29,38,29s2.362-0.587,2.857-0.587C42.732,28.413,43,34.305,43,35 c0.714-2.308,1-4.027,1-5C44,26.92,41.881,25,38,25z"/><radialGradient id="3gsiW_rR2sk0F0aNA0kRai" cx="121.741" cy="-751.019" r="21.61" gradientTransform="matrix(.7698 0 0 -.805 -56.638 -577.32)" gradientUnits="userSpaceOnUse"><stop offset="0" stop-color="#c26715"/><stop offset=".508" stop-color="#b85515"/><stop offset="1" stop-color="#ad3f16"/></radialGradient><path fill="url(#3gsiW_rR2sk0F0aNA0kRai)" d="M38,25c-2.602,0-3,1-3,1c-0.026,0.724,0.143,1.286,0.143,1.286S35.589,29,38.301,29 C39.939,29,42,27.728,42,25C42,25,41.711,25,38,25z"/></svg>