<svg xmlns="http://www.w3.org/2000/svg" id="Layer_1" x="0" y="0" version="1.1" viewBox="0 0 48 48" xml:space="preserve"><path fill="#184f85" d="M46,22H2c-1.1,0-2-0.9-2-2v-6c0-1.1,0.9-2,2-2h44c1.1,0,2,0.9,2,2v6C48,21.1,47.1,22,46,22z"/><path d="M23,20c-1.1,0-2-0.9-2-2v-2c0-1.1,0.9-2,2-2h2c1.1,0,2,0.9,2,2v2c0,1.1-0.9,2-2,2H23z" opacity=".05"/><path d="M23,19.5c-0.8,0-1.5-0.7-1.5-1.5v-2c0-0.8,0.7-1.5,1.5-1.5h2c0.8,0,1.5,0.7,1.5,1.5v2c0,0.8-0.7,1.5-1.5,1.5 H23z" opacity=".07"/><path fill="#fff" d="M25,19h-2c-0.6,0-1-0.4-1-1v-2c0-0.6,0.4-1,1-1h2c0.6,0,1,0.4,1,1v2C26,18.6,25.6,19,25,19z"/><path d="M32,20c-1.1,0-2-0.9-2-2v-2c0-1.1,0.9-2,2-2h2c1.1,0,2,0.9,2,2v2c0,1.1-0.9,2-2,2H32z" opacity=".05"/><path d="M32,19.5c-0.8,0-1.5-0.7-1.5-1.5v-2c0-0.8,0.7-1.5,1.5-1.5h2c0.8,0,1.5,0.7,1.5,1.5v2c0,0.8-0.7,1.5-1.5,1.5 H32z" opacity=".07"/><path fill="#fff" d="M34,19h-2c-0.6,0-1-0.4-1-1v-2c0-0.6,0.4-1,1-1h2c0.6,0,1,0.4,1,1v2C35,18.6,34.6,19,34,19z"/><path d="M41,20c-1.1,0-2-0.9-2-2v-2c0-1.1,0.9-2,2-2h2c1.1,0,2,0.9,2,2v2c0,1.1-0.9,2-2,2H41z" opacity=".05"/><path d="M41,19.5c-0.8,0-1.5-0.7-1.5-1.5v-2c0-0.8,0.7-1.5,1.5-1.5h2c0.8,0,1.5,0.7,1.5,1.5v2c0,0.8-0.7,1.5-1.5,1.5 H41z" opacity=".07"/><path fill="#fff" d="M43,19h-2c-0.6,0-1-0.4-1-1v-2c0-0.6,0.4-1,1-1h2c0.6,0,1,0.4,1,1v2C44,18.6,43.6,19,43,19z"/><g><path d="M5,20c-1.1,0-2-0.9-2-2v-2c0-1.1,0.9-2,2-2h2c1.1,0,2,0.9,2,2v2c0,1.1-0.9,2-2,2H5z" opacity=".05"/><path d="M5,19.5c-0.8,0-1.5-0.7-1.5-1.5v-2c0-0.8,0.7-1.5,1.5-1.5h2c0.8,0,1.5,0.7,1.5,1.5v2c0,0.8-0.7,1.5-1.5,1.5H5 z" opacity=".07"/><path fill="#fff" d="M7,19H5c-0.6,0-1-0.4-1-1v-2c0-0.6,0.4-1,1-1h2c0.6,0,1,0.4,1,1v2C8,18.6,7.6,19,7,19z"/></g><g><path d="M14,20c-1.1,0-2-0.9-2-2v-2c0-1.1,0.9-2,2-2h2c1.1,0,2,0.9,2,2v2c0,1.1-0.9,2-2,2H14z" opacity=".05"/><path d="M14,19.5c-0.8,0-1.5-0.7-1.5-1.5v-2c0-0.8,0.7-1.5,1.5-1.5h2c0.8,0,1.5,0.7,1.5,1.5v2c0,0.8-0.7,1.5-1.5,1.5 H14z" opacity=".07"/><path fill="#fff" d="M16,19h-2c-0.6,0-1-0.4-1-1v-2c0-0.6,0.4-1,1-1h2c0.6,0,1,0.4,1,1v2C17,18.6,16.6,19,16,19z"/></g><path fill="#35c1f1" d="M25,17.9v15c0,0.4,0.5,0.7,0.9,0.4l3.5-2.9l2.3,5.3c0.1,0.3,0.4,0.4,0.7,0.3l0.9-0.4l-7.9-18.1	C25.1,17.5,25,17.7,25,17.9z"/><linearGradient id="SVGID_1_" x1="28.62" x2="35.567" y1="-579.527" y2="-595.575" gradientTransform="matrix(1 0 0 -1 0 -562)" gradientUnits="userSpaceOnUse"><stop offset="0" stop-color="#46dff9"/><stop offset="1" stop-color="#07d6f9"/></linearGradient><path fill="url(#SVGID_1_)" d="M34.4,34.5l-2.3-5.2l4-0.4c0.4,0,0.6-0.6,0.3-0.9L25.9,17.5c-0.2-0.2-0.4-0.2-0.6-0.1l7.9,18.1l0.9-0.4	C34.4,35.1,34.5,34.8,34.4,34.5z"/><path fill="#199be2" d="M34.4,34.5l-2.3-5.2l4-0.4c0.4,0,0.6-0.6,0.3-0.9L25.9,17.5c-0.2-0.2-0.4-0.2-0.6-0.1l7.9,18.1l0.9-0.4	C34.4,35.1,34.5,34.8,34.4,34.5z"/></svg>