<svg xmlns="http://www.w3.org/2000/svg" viewBox="0 0 48 48"><linearGradient id="sVefm_M2EVmqdxukO5~3pa" x1="-1585.798" x2="-1610.051" y1="655.206" y2="614.302" gradientTransform="rotate(180 -786 331)" gradientUnits="userSpaceOnUse"><stop offset="0" stop-color="#33bef0"/><stop offset="1" stop-color="#0a85d9"/></linearGradient><path fill="url(#sVefm_M2EVmqdxukO5~3pa)" d="M24,4c11.046,0,20,8.954,20,20c0,3.637-0.986,7.037-2.682,9.975l4.564,10.384	c0.506,1.151-0.711,2.3-1.831,1.73l-9.754-4.967C31.286,42.937,27.771,44,24,44C12.954,44,4,35.046,4,24S12.954,4,24,4z"/><path d="M15,35c-1.103,0-2-0.897-2-2V23c0-1.103,0.897-2,2-2h1c0-4.411,3.589-8,8-8s8,3.589,8,8h1	c1.103,0,2,0.897,2,2v10c0,1.103-0.897,2-2,2H15z M28,21c0-2.206-1.794-4-4-4s-4,1.794-4,4H28z" opacity=".05"/><path d="M15,34.5c-0.827,0-1.5-0.673-1.5-1.5V23c0-0.827,0.673-1.5,1.5-1.5h1.5V21c0-4.136,3.364-7.5,7.5-7.5	s7.5,3.364,7.5,7.5v0.5H33c0.827,0,1.5,0.673,1.5,1.5v10c0,0.827-0.673,1.5-1.5,1.5H15z M28.5,21.5V21c0-2.481-2.019-4.5-4.5-4.5	s-4.5,2.019-4.5,4.5v0.5H28.5z" opacity=".07"/><path fill="#c48c00" d="M33,34H15c-0.552,0-1-0.448-1-1v-2h20v2C34,33.552,33.552,34,33,34z"/><rect width="20" height="3" x="14" y="28" fill="#e3a600"/><rect width="20" height="3" x="14" y="25" fill="#edbe00"/><path fill="#fad500" d="M34,25H14v-2c0-0.552,0.448-1,1-1h18c0.552,0,1,0.448,1,1V25z"/><linearGradient id="sVefm_M2EVmqdxukO5~3pb" x1="24" x2="24" y1="21.808" y2="5.085" gradientUnits="userSpaceOnUse"><stop offset="0" stop-color="#92a3b0"/><stop offset=".015" stop-color="#a3b5c4"/><stop offset=".032" stop-color="#aec2d1"/><stop offset=".046" stop-color="#b2c6d6"/></linearGradient><path fill="url(#sVefm_M2EVmqdxukO5~3pb)" d="M19,22v-1c0-2.757,2.243-5,5-5s5,2.243,5,5v1h2v-1c0-3.859-3.14-7-7-7s-7,3.141-7,7v1H19z"/><linearGradient id="sVefm_M2EVmqdxukO5~3pc" x1="24" x2="24" y1="32.185" y2="24.951" gradientUnits="userSpaceOnUse"><stop offset="0" stop-color="#4b4b4b"/><stop offset="1" stop-color="#3b3b3b"/></linearGradient><path fill="url(#sVefm_M2EVmqdxukO5~3pc)" d="M26,27c0-1.105-0.895-2-2-2s-2,0.895-2,2c0,0.839,0.518,1.555,1.25,1.852V31 c0,0.414,0.336,0.75,0.75,0.75s0.75-0.336,0.75-0.75v-2.148C25.482,28.555,26,27.839,26,27z"/></svg>