<svg xmlns="http://www.w3.org/2000/svg" data-name="Слой 1" viewBox="0 0 48 48"><defs><linearGradient id="Q6ctRYAojCYnTAs0gewf7a" x1="19.053" x2="38.547" y1="1.383" y2="54.942" data-name="Безымянный градиент 124" gradientUnits="userSpaceOnUse"><stop offset="0" stop-color="#0176d0"/><stop offset="1" stop-color="#16538c"/></linearGradient><linearGradient id="Q6ctRYAojCYnTAs0gewf7b" x1="13.231" x2="22.048" y1="21.617" y2="45.841" data-name="Безымянный градиент 123" gradientUnits="userSpaceOnUse"><stop offset="0" stop-color="#2aa4f4"/><stop offset="1" stop-color="#007ad9"/></linearGradient></defs><path fill="url(#Q6ctRYAojCYnTAs0gewf7a)" d="M33,20V40h8V20A12.99962,12.99962,0,0,0,28,7H8v8H28A5.00054,5.00054,0,0,1,33,20Z"/><rect width="12" height="4" x="31" y="38" fill="#103f8f" rx="1"/><rect width="12" height="4" x="31" y="23" fill="#103f8f" rx="1"/><rect width="4" height="12" x="6" y="5" fill="#103f8f" rx="1"/><rect width="4" height="12" x="21" y="5" fill="#103f8f" rx="1"/><path fill="url(#Q6ctRYAojCYnTAs0gewf7b)" d="M16,23H8v8h8c1,0,1,.531,1,1v8h8V32C25,25.443,19.479,23,16,23Z"/><rect width="12" height="4" x="15" y="38" fill="#095fac" rx="1"/><rect width="4" height="12" x="6" y="21" fill="#095fac" rx="1"/></svg>