<svg xmlns="http://www.w3.org/2000/svg" viewBox="0 0 48 48"><linearGradient id="L48HxUnGdqyhakooji47_a" x1="22.104" x2="26.42" y1="24.25" y2="48.727" gradientUnits="userSpaceOnUse"><stop offset="0" stop-color="#889097"/><stop offset="1" stop-color="#4c5963"/></linearGradient><ellipse cx="24" cy="35" fill="url(#L48HxUnGdqyhakooji47_a)" rx="20" ry="9"/><linearGradient id="L48HxUnGdqyhakooji47_b" x1="24.491" x2="25.665" y1="15.616" y2="27.492" gradientUnits="userSpaceOnUse"><stop offset="0" stop-color="#a1aab3"/><stop offset="1" stop-color="#8f979e"/></linearGradient><path fill="url(#L48HxUnGdqyhakooji47_b)" d="M39.01,23.44c-0.53,2.99-7.22,4.31-14.94,2.95c-7.73-1.36-13.56-4.89-13.04-7.88	c0.32-1.79,2.84-2.98,6.47-3.37c0.31-0.02,0.63-0.05,0.95-0.07c0.38-0.02,0.77-0.04,1.18-0.04c1.95-0.03,4.1,0.13,6.35,0.53	c0.55,0.1,1.09,0.21,1.62,0.33c0.45,0.09,0.89,0.2,1.31,0.32c0.37,0.09,0.72,0.19,1.07,0.3C35.62,18.19,39.44,20.99,39.01,23.44z"/><linearGradient id="L48HxUnGdqyhakooji47_c" x1="26.685" x2="23.815" y1="5.927" y2="19.427" gradientUnits="userSpaceOnUse"><stop offset="0" stop-color="#889097"/><stop offset="1" stop-color="#4c5963"/></linearGradient><ellipse cx="25.5" cy="11.5" fill="url(#L48HxUnGdqyhakooji47_c)" rx="9.5" ry="4.5"/><path d="M28.91,16.21c-0.42-0.12-0.86-0.23-1.31-0.32C26.92,15.96,26.22,16,25.5,16c-2.21,0-4.25-0.36-5.87-0.97 c-0.41,0-0.8,0.02-1.18,0.04c-0.32,0.02-0.64,0.05-0.95,0.07c1.9,1.16,4.73,1.86,8,1.86c1.62,0,3.14-0.17,4.48-0.49 C29.63,16.4,29.28,16.3,28.91,16.21z" opacity=".05"/><path d="M27.6,15.89C26.92,15.96,26.22,16,25.5,16c-2.21,0-4.25-0.36-5.87-0.97c-0.41,0-0.8,0.02-1.18,0.04 c1.79,0.89,4.27,1.43,7.05,1.43c1.2,0,2.35-0.1,3.41-0.29C28.49,16.09,28.05,15.98,27.6,15.89z" opacity=".07"/><g><path d="M33.75,27.15c-0.47-0.12-0.95-0.23-1.44-0.33c-0.75,0.07-1.54,0.11-2.37,0.11c-1.82,0-3.81-0.18-5.87-0.54 c-0.59-0.1-1.17-0.22-1.74-0.35c-0.58,0.01-1.15,0.05-1.71,0.09c-0.45,0.03-0.89,0.07-1.32,0.12c1.48,0.47,3.04,0.85,4.6,1.12 c2.07,0.37,4.1,0.56,6.04,0.56c1.86,0,3.51-0.17,4.91-0.48C34.49,27.34,34.13,27.24,33.75,27.15z" opacity=".05"/><path d="M32.31,26.82c-0.75,0.07-1.54,0.11-2.37,0.11c-1.82,0-3.81-0.18-5.87-0.54c-0.59-0.1-1.17-0.22-1.74-0.35 c-0.58,0.01-1.15,0.05-1.71,0.09c1.07,0.29,2.19,0.54,3.36,0.75c2.05,0.36,4.05,0.55,5.96,0.55c1.4,0,2.67-0.1,3.81-0.28 C33.28,27.03,32.8,26.92,32.31,26.82z" opacity=".07"/></g></svg>