<svg xmlns="http://www.w3.org/2000/svg" viewBox="0 0 48 48"><path fill="#64717c" d="M41,42H7c-0.553,0-1-0.447-1-1V7c0-0.553,0.447-1,1-1s1,0.447,1,1v33h33c0.553,0,1,0.447,1,1	S41.553,42,41,42z"/><linearGradient id="bIWVMGjOUpn4lWcEw6_8Ja" x1="12.675" x2="13.337" y1="29.075" y2="32.998" gradientUnits="userSpaceOnUse"><stop offset="0" stop-color="#33bef0"/><stop offset="1" stop-color="#0a85d9"/></linearGradient><circle cx="13" cy="31" r="2" fill="url(#bIWVMGjOUpn4lWcEw6_8Ja)"/><linearGradient id="bIWVMGjOUpn4lWcEw6_8Jb" x1="19.675" x2="20.337" y1="32.075" y2="35.998" gradientUnits="userSpaceOnUse"><stop offset="0" stop-color="#33bef0"/><stop offset="1" stop-color="#0a85d9"/></linearGradient><circle cx="20" cy="34" r="2" fill="url(#bIWVMGjOUpn4lWcEw6_8Jb)"/><linearGradient id="bIWVMGjOUpn4lWcEw6_8Jc" x1="18.675" x2="19.337" y1="22.075" y2="25.997" gradientUnits="userSpaceOnUse"><stop offset="0" stop-color="#33bef0"/><stop offset="1" stop-color="#0a85d9"/></linearGradient><circle cx="19" cy="24" r="2" fill="url(#bIWVMGjOUpn4lWcEw6_8Jc)"/><linearGradient id="bIWVMGjOUpn4lWcEw6_8Jd" x1="24.675" x2="25.337" y1="27.075" y2="30.997" gradientUnits="userSpaceOnUse"><stop offset="0" stop-color="#33bef0"/><stop offset="1" stop-color="#0a85d9"/></linearGradient><circle cx="25" cy="29" r="2" fill="url(#bIWVMGjOUpn4lWcEw6_8Jd)"/><linearGradient id="bIWVMGjOUpn4lWcEw6_8Je" x1="32.675" x2="33.337" y1="25.075" y2="28.997" gradientUnits="userSpaceOnUse"><stop offset="0" stop-color="#33bef0"/><stop offset="1" stop-color="#0a85d9"/></linearGradient><circle cx="33" cy="27" r="2" fill="url(#bIWVMGjOUpn4lWcEw6_8Je)"/><linearGradient id="bIWVMGjOUpn4lWcEw6_8Jf" x1="26.675" x2="27.337" y1="19.075" y2="22.997" gradientUnits="userSpaceOnUse"><stop offset="0" stop-color="#33bef0"/><stop offset="1" stop-color="#0a85d9"/></linearGradient><circle cx="27" cy="21" r="2" fill="url(#bIWVMGjOUpn4lWcEw6_8Jf)"/><linearGradient id="bIWVMGjOUpn4lWcEw6_8Jg" x1="35.675" x2="36.337" y1="18.075" y2="21.997" gradientUnits="userSpaceOnUse"><stop offset="0" stop-color="#33bef0"/><stop offset="1" stop-color="#0a85d9"/></linearGradient><circle cx="36" cy="20" r="2" fill="url(#bIWVMGjOUpn4lWcEw6_8Jg)"/><linearGradient id="bIWVMGjOUpn4lWcEw6_8Jh" x1="29.675" x2="30.337" y1="12.075" y2="15.998" gradientUnits="userSpaceOnUse"><stop offset="0" stop-color="#33bef0"/><stop offset="1" stop-color="#0a85d9"/></linearGradient><circle cx="30" cy="14" r="2" fill="url(#bIWVMGjOUpn4lWcEw6_8Jh)"/><linearGradient id="bIWVMGjOUpn4lWcEw6_8Ji" x1="37.675" x2="38.337" y1="10.075" y2="13.998" gradientUnits="userSpaceOnUse"><stop offset="0" stop-color="#33bef0"/><stop offset="1" stop-color="#0a85d9"/></linearGradient><circle cx="38" cy="12" r="2" fill="url(#bIWVMGjOUpn4lWcEw6_8Ji)"/></svg>