<svg xmlns="http://www.w3.org/2000/svg" id="Layer_1" x="0" y="0" version="1.1" viewBox="0 0 48 48" xml:space="preserve"><linearGradient id="SVGID_1_" x1="21.516" x2="45.592" y1="1049.638" y2="1085.673" gradientTransform="translate(0 -1032)" gradientUnits="userSpaceOnUse"><stop offset="0" stop-color="#5059c9"/><stop offset=".999" stop-color="#4750b3"/></linearGradient><path fill="url(#SVGID_1_)" d="M9,26l36-14.3V38c0,1.1-0.9,2-2,2H9V26z"/><linearGradient id="SVGID_2_" x1="1.408" x2="36.331" y1="1056.41" y2="1078.164" gradientTransform="translate(0 -1032)" gradientUnits="userSpaceOnUse"><stop offset="0" stop-color="#5961c3"/><stop offset="1" stop-color="#3a41ac"/></linearGradient><path fill="url(#SVGID_2_)" d="M3,11.7V38c0,1.1,0.9,2,2,2h38c0.5,0,0.9-0.2,1.3-0.5L3,11.7z"/><path d="M3,11h42v1.7L27.7,26.1c-2.2,1.7-5.2,1.7-7.4,0L3,12.7V11z" opacity=".05"/><path d="M3,10.5h42v1.7L27,25.3c-1.8,1.3-4.2,1.3-5.9,0L3,12.2V10.5z" opacity=".07"/><path fill="#7b83eb" d="M5,8h38c1.1,0,2,0.9,2,2v1.7L26.3,24.5c-1.4,0.9-3.1,0.9-4.5,0L3,11.7V10C3,8.9,3.9,8,5,8z"/><path d="M37,31c-4.3,0-8.4,1.7-11.4,4.8c-0.4,0.4-0.6,0.9-0.6,1.4c0,0.5,0.2,1,0.6,1.3l1.5,1.5H43c1.1,0,2-0.9,2-2	v-4.9C42.6,31.7,39.9,31,37,31z" opacity=".05"/><path d="M37,31.5c-4.2,0-8.1,1.6-11.1,4.6c-0.3,0.3-0.4,0.7-0.4,1.1c0,0.4,0.2,0.7,0.4,1l1.8,1.8l0,0H43	c1.1,0,2-0.9,2-2v-4.3C42.6,32.3,39.9,31.5,37,31.5z" opacity=".07"/><path fill="#0078d4" d="M47.7,37.8l-1.8,1.8L37,37.1l-8.9,2.5l-1.8-1.8c-0.4-0.4-0.4-1,0-1.3C29,33.7,32.8,32,37,32s8,1.7,10.7,4.5	C48.1,36.8,48.1,37.4,47.7,37.8z"/><path fill="#199be2" d="M45.9,39.6l-2.6,2.6L37,41.1l-6.3,1.1l-2.6-2.6c2.1-2.6,5.3-4.2,8.9-4.2S43.8,37,45.9,39.6z"/><path fill="#35c1f1" d="M43.3,42.2l-2.7,2.6h-7.3l-2.6-2.6c1.4-1.9,3.7-3.2,6.3-3.2C39.6,39,41.9,40.3,43.3,42.2z"/><path fill="#50e6ff" d="M40.6,44.8l-3,2.9c-0.4,0.4-1,0.4-1.3,0l-3-2.9c0.7-1.3,2.1-2.2,3.6-2.2S40,43.5,40.6,44.8z"/></svg>