<svg xmlns="http://www.w3.org/2000/svg" viewBox="0 0 48 48"><linearGradient id="eonenMtP3YCfQYobEV1Zja" x1="10.183" x2="36.857" y1="4.879" y2="41.792" gradientUnits="userSpaceOnUse"><stop offset="0" stop-color="#899198"/><stop offset="1" stop-color="#787e85"/></linearGradient><path fill="url(#eonenMtP3YCfQYobEV1Zja)" d="M37,4H11C9.895,4,9,4.895,9,6v36c0,1.105,0.895,2,2,2h26c1.105,0,2-0.895,2-2V6	C39,4.895,38.105,4,37,4z"/><linearGradient id="eonenMtP3YCfQYobEV1Zjb" x1="15.332" x2="34.537" y1="7.485" y2="16.381" gradientUnits="userSpaceOnUse"><stop offset="0" stop-color="#4fe5ff"/><stop offset="1" stop-color="#2eb7ed"/></linearGradient><path fill="url(#eonenMtP3YCfQYobEV1Zjb)" d="M34,15H14c-0.552,0-1-0.448-1-1V9c0-0.552,0.448-1,1-1h20c0.552,0,1,0.448,1,1v5	C35,14.552,34.552,15,34,15z"/><path fill="#cad2d9" d="M26,24h-4c-0.552,0-1-0.448-1-1v-4c0-0.552,0.448-1,1-1h4c0.552,0,1,0.448,1,1v4	C27,23.552,26.552,24,26,24z"/><path fill="#cad2d9" d="M18,24h-4c-0.552,0-1-0.448-1-1v-4c0-0.552,0.448-1,1-1h4c0.552,0,1,0.448,1,1v4	C19,23.552,18.552,24,18,24z"/><path fill="#cad2d9" d="M26,32h-4c-0.552,0-1-0.448-1-1v-4c0-0.552,0.448-1,1-1h4c0.552,0,1,0.448,1,1v4	C27,31.552,26.552,32,26,32z"/><path fill="#cad2d9" d="M18,32h-4c-0.552,0-1-0.448-1-1v-4c0-0.552,0.448-1,1-1h4c0.552,0,1,0.448,1,1v4	C19,31.552,18.552,32,18,32z"/><path fill="#cad2d9" d="M26,40h-4c-0.552,0-1-0.448-1-1v-4c0-0.552,0.448-1,1-1h4c0.552,0,1,0.448,1,1v4	C27,39.552,26.552,40,26,40z"/><path fill="#cad2d9" d="M18,40h-4c-0.552,0-1-0.448-1-1v-4c0-0.552,0.448-1,1-1h4c0.552,0,1,0.448,1,1v4	C19,39.552,18.552,40,18,40z"/><path fill="#cad2d9" d="M34,24h-4c-0.552,0-1-0.448-1-1v-4c0-0.552,0.448-1,1-1h4c0.552,0,1,0.448,1,1v4	C35,23.552,34.552,24,34,24z"/><linearGradient id="eonenMtP3YCfQYobEV1Zjc" x1="32" x2="32" y1="26.551" y2="39.643" gradientUnits="userSpaceOnUse"><stop offset="0" stop-color="#11498a"/><stop offset="1" stop-color="#0f417a"/></linearGradient><path fill="url(#eonenMtP3YCfQYobEV1Zjc)" d="M34,40h-4c-0.552,0-1-0.448-1-1V27c0-0.552,0.448-1,1-1h4c0.552,0,1,0.448,1,1v12	C35,39.552,34.552,40,34,40z"/><linearGradient id="eonenMtP3YCfQYobEV1Zjd" x1="30.929" x2="45.071" y1="30.929" y2="45.071" gradientUnits="userSpaceOnUse"><stop offset="0" stop-color="#21ad64"/><stop offset="1" stop-color="#088242"/></linearGradient><path fill="url(#eonenMtP3YCfQYobEV1Zjd)" d="M48,38c0,5.522-4.478,10-10,10s-10-4.478-10-10s4.478-10,10-10S48,32.478,48,38z"/><path d="M38.836,36.193c-0.428-0.167-1.32-0.513-1.416-0.736c0.033-0.028,0.21-0.108,0.579-0.108	c0.646,0,1.369,0.165,1.982,0.452c0.41,0.192,0.882,0.163,1.264-0.08c0.378-0.24,0.604-0.651,0.604-1.1v-0.995	c0-0.729-0.36-1.306-0.963-1.541c-0.396-0.154-0.862-0.264-1.412-0.33v-0.166c0-0.683-0.555-1.237-1.237-1.237h-0.475	c-0.682,0-1.237,0.555-1.237,1.237v0.276c-1.858,0.493-3.015,1.897-3.015,3.759c0,2.749,2.27,3.59,3.772,4.146	c0.465,0.172,1.167,0.432,1.301,0.555c-0.001,0.001-0.136,0.097-0.583,0.097c-1.141,0-2.145-0.47-2.428-0.614	c-0.408-0.207-0.882-0.189-1.272,0.05c-0.392,0.24-0.625,0.657-0.625,1.116v1.132c0,0.617,0.369,1.173,0.939,1.415	c0.561,0.239,1.235,0.434,1.911,0.557v0.334c0,0.683,0.555,1.237,1.237,1.237h0.475c0.682,0,1.237-0.555,1.237-1.237v-0.363	c2.075-0.537,3.015-2.224,3.015-3.819C42.49,37.611,40.292,36.758,38.836,36.193z" opacity=".05"/><path d="M38.656,36.659c-1.065-0.414-1.712-0.701-1.712-1.2c0-0.405,0.355-0.61,1.056-0.61	c0.982,0,1.796,0.312,2.194,0.5c0.254,0.118,0.547,0.101,0.784-0.05c0.233-0.147,0.372-0.401,0.372-0.678v-0.995	c0-0.743-0.451-1-0.645-1.075c-0.456-0.178-1.025-0.29-1.73-0.342v-0.62c0-0.406-0.331-0.737-0.737-0.737h-0.475	c-0.407,0-0.737,0.331-0.737,0.737v0.678c-1.53,0.287-3.015,1.289-3.015,3.357c0,2.401,1.992,3.139,3.446,3.678	c0.995,0.368,1.6,0.621,1.6,1.028c0,0.162,0,0.592-1.056,0.592c-1.253,0-2.348-0.512-2.655-0.669	c-0.251-0.13-0.544-0.118-0.784,0.031c-0.242,0.147-0.386,0.405-0.386,0.689v1.132c0,0.416,0.25,0.791,0.635,0.955	c0.642,0.273,1.443,0.485,2.214,0.59v0.761c0,0.406,0.331,0.737,0.737,0.737h0.475c0.407,0,0.737-0.331,0.737-0.737v-0.767	c2.215-0.377,3.015-2.038,3.015-3.416C41.99,37.954,40.062,37.205,38.656,36.659z" opacity=".07"/><path fill="#fff" d="M41.49,40.228c0-3.418-5.046-2.75-5.046-4.769c0-1.054,1.185-1.11,1.556-1.11	c0.891,0,1.75,0.239,2.406,0.546c0.207,0.097,0.444-0.046,0.444-0.275v-0.995c0-0.334-0.126-0.531-0.326-0.609	c-0.449-0.175-1.095-0.302-2.049-0.334v-1.095c0-0.131-0.106-0.237-0.237-0.237h-0.475c-0.131,0-0.237,0.106-0.237,0.237v1.112	c-1.48,0.145-3.015,0.98-3.015,2.924c0,3.543,5.045,2.84,5.045,4.706c0,0.586-0.375,1.092-1.556,1.092	c-1.187,0-2.278-0.414-2.882-0.723c-0.203-0.104-0.443,0.047-0.443,0.275v1.132c0,0.217,0.131,0.41,0.331,0.495	c0.715,0.304,1.675,0.534,2.519,0.601v1.209c0,0.131,0.106,0.237,0.237,0.237h0.475c0.131,0,0.237-0.106,0.237-0.237v-1.207	C40.689,43.02,41.49,41.537,41.49,40.228z"/></svg>