<svg xmlns="http://www.w3.org/2000/svg" xmlns:xlink="http://www.w3.org/1999/xlink" data-name="Слой 1" viewBox="0 0 48 48"><defs><linearGradient id="3ODTT58c_31fDYwUwQBs~c" x1="24" x2="24" y1="47.886" y2="30.85" data-name="Безымянный градиент 147" gradientUnits="userSpaceOnUse"><stop offset="0" stop-color="#dfe9f2"/><stop offset=".391" stop-color="#d6e0e9"/><stop offset="1" stop-color="#bfc8d1"/></linearGradient><linearGradient id="3ODTT58c_31fDYwUwQBs~a" x1="22.651" x2="25.348" y1="-360.284" y2="-367.715" data-name="Безымянный градиент 13" gradientTransform="matrix(1 0 0 -1 0 -356)" gradientUnits="userSpaceOnUse"><stop offset="0" stop-color="#ffcf54"/><stop offset=".261" stop-color="#fdcb4d"/><stop offset=".639" stop-color="#f7c13a"/><stop offset="1" stop-color="#f0b421"/></linearGradient><linearGradient id="3ODTT58c_31fDYwUwQBs~d" x1="30.5" x2="30.5" y1="32.552" y2="24.143" xlink:href="#3ODTT58c_31fDYwUwQBs~a"/><linearGradient id="3ODTT58c_31fDYwUwQBs~b" x1="23" x2="23" y1="12.326" y2="24.967" gradientUnits="userSpaceOnUse"><stop offset=".002" stop-color="#427fdb"/><stop offset=".397" stop-color="#2668cb"/><stop offset=".763" stop-color="#1358bf"/><stop offset="1" stop-color="#0c52bb"/></linearGradient><linearGradient id="3ODTT58c_31fDYwUwQBs~e" x1="24" x2="24" y1="7.435" y2="35.772" xlink:href="#3ODTT58c_31fDYwUwQBs~b"/><linearGradient id="3ODTT58c_31fDYwUwQBs~f" x1="15" x2="15" y1="13.304" y2="24.411" xlink:href="#3ODTT58c_31fDYwUwQBs~c"/><linearGradient id="3ODTT58c_31fDYwUwQBs~g" x1="14.5" x2="14.5" y1="23.063" y2="31.162" xlink:href="#3ODTT58c_31fDYwUwQBs~a"/><linearGradient id="3ODTT58c_31fDYwUwQBs~h" x1="23.25" x2="23.25" y1="3.261" y2="6.898" xlink:href="#3ODTT58c_31fDYwUwQBs~b"/><linearGradient id="3ODTT58c_31fDYwUwQBs~i" x1="24" x2="24" y1="12.293" y2="18.413" xlink:href="#3ODTT58c_31fDYwUwQBs~b"/></defs><path fill="url(#3ODTT58c_31fDYwUwQBs~c)" d="M29,27l-.53,9-.12,2-.23,4-.06,1.06a1.0052,1.0052,0,0,1-1,.94H20.94a.99831.99831,0,0,1-1-.94L19.88,42l-.23-4-.12-2L19,27Z"/><path fill="#e52030" d="M28.12,42l-.06,1.06a1.0052,1.0052,0,0,1-1,.94H20.94a.99831.99831,0,0,1-1-.94L19.88,42Z"/><polygon fill="#64717c" points="28.47 36 28.35 38 19.65 38 19.53 36 28.47 36"/><path fill="url(#3ODTT58c_31fDYwUwQBs~a)" d="M24,12a4,4,0,1,1,4-4,4.01176,4.01176,0,0,1-4,4"/><path fill="url(#3ODTT58c_31fDYwUwQBs~d)" d="M32,21v8.5a1.5,1.5,0,0,1-3,0V21Z"/><path fill="url(#3ODTT58c_31fDYwUwQBs~b)" d="M32,20.67V28H29V23l-10-.25L15.75,27.5,14,25.25,16.25,20c1.45-2.9,2.38-5.12,4.76-5.79a4.84916,4.84916,0,0,1,.99-.18c.21-.02.44-.03.67-.03h2.66c.22,0,.45.01.67.03a6.42378,6.42378,0,0,1,.99.19A6.65359,6.65359,0,0,1,32,20.67Z"/><path fill="url(#3ODTT58c_31fDYwUwQBs~e)" d="M28.94,33H19.06a1.06779,1.06779,0,0,1-1.04-1.29L19,26V18a3.98393,3.98393,0,0,1,3.01-3.87A3.584,3.584,0,0,1,23,14h2a3.584,3.584,0,0,1,.99.13A3.98393,3.98393,0,0,1,29,18v8l.34,2,.64,3.71A1.06779,1.06779,0,0,1,28.94,33Z"/><rect width="10" height="2" x="19" y="24" fill="#343434"/><polygon fill="url(#3ODTT58c_31fDYwUwQBs~f)" points="16 15 16 24.5 14 24.5 14 16.5 16 15"/><path fill="#64717c" d="M15,22a1,1,0,0,1,1,1V43.5a.49514.49514,0,0,1-.5.5h-.7a1.83186,1.83186,0,0,1-1.82-2.03L14,33V23a1,1,0,0,1,1-1Z"/><ellipse cx="14.5" cy="27" fill="url(#3ODTT58c_31fDYwUwQBs~g)" rx="1.5" ry="2"/><circle cx="27.5" cy="41.5" r="1.5" fill="#343434"/><circle cx="20.5" cy="41.5" r="1.5" fill="#343434"/><path fill="#42a4ed" d="M26.99,14.22a2.90071,2.90071,0,0,1-.04.29,2.9925,2.9925,0,0,1-5.9,0,1.54737,1.54737,0,0,1-.04-.3,4.84916,4.84916,0,0,1,.99-.18c.21-.02.44-.03.67-.03h2.66c.22,0,.45.01.67.03A6.42378,6.42378,0,0,1,26.99,14.22Z"/><path fill="#dd2c00" d="M24.25,2.5c-1.75-.25-4,.25-5,2A2.98288,2.98288,0,0,0,20,8l7.75-1.5C28.25,5,27.26081,2.93012,24.25,2.5Z"/><path fill="url(#3ODTT58c_31fDYwUwQBs~h)" d="M24.5,5a1.21591,1.21591,0,0,1-.11.5,1.18118,1.18118,0,0,1-.64.64,1.19146,1.19146,0,0,1-1,0,1.18118,1.18118,0,0,1-.64-.64,1.19146,1.19146,0,0,1,0-1,1.18079,1.18079,0,0,1,.64-.64,1.19146,1.19146,0,0,1,1,0,1.18079,1.18079,0,0,1,.64.64A1.2157,1.2157,0,0,1,24.5,5Z"/><path fill="#fff" d="M24.5,5a1.2157,1.2157,0,0,0-.11-.5h-.64V3.86a1.19146,1.19146,0,0,0-1,0V4.5h-.64a1.19146,1.19146,0,0,0,0,1h.64v.64a1.19146,1.19146,0,0,0,1,0V5.5h.64A1.21591,1.21591,0,0,0,24.5,5Z"/><circle cx="20" cy="8" r="1" fill="#343434"/><polygon fill="#343434" points="19.5 8.75 18.5 18 21.5 18 20.5 8.75 19.5 8.75"/><path fill="url(#3ODTT58c_31fDYwUwQBs~i)" d="M25,14a1,1,0,0,1-2,0Z"/></svg>