<svg xmlns="http://www.w3.org/2000/svg" viewBox="0 0 48 48"><polygon fill="#e8457c" points="15.449,5.439 12,7.159 12,24 41,24 41.989,22.292"/><path fill="#e8457c" d="M43,24h-4c0-1.105,0.895-2,2-2S43,22.895,43,24z"/><circle cx="14.159" cy="7.159" r="2.159" fill="#e8457c"/><polygon fill="#bc1948" points="15.449,42.561 12,40.841 12,24 41,24 41.989,25.708"/><path fill="#bc1948" d="M43,24h-4c0,1.105,0.895,2,2,2S43,25.105,43,24z"/><circle cx="14.159" cy="40.841" r="2.159" fill="#bc1948"/><polygon fill="#8c193f" points="6.997,13.254 5,14.25 5,24 20,24 20.679,23.264"/><path fill="#8c193f" d="M21,24h-2c0-0.552,0.448-1,1-1S21,23.448,21,24z"/><circle cx="6.25" cy="14.25" r="1.25" fill="#8c193f"/><polygon fill="#8c193f" points="6.997,34.746 5,33.75 5,24 20,24 20.679,24.736"/><path fill="#8c193f" d="M21,24h-2c0,0.552,0.448,1,1,1S21,24.552,21,24z"/><circle cx="6.25" cy="33.75" r="1.25" fill="#8c193f"/></svg>