<svg xmlns="http://www.w3.org/2000/svg" viewBox="0 0 48 48"><linearGradient id="IJ8vmgCyRkut4QWI9hCBva" x1="24" x2="34" y1="40.407" y2="40.407" gradientUnits="userSpaceOnUse"><stop offset="0" stop-color="#3079d6"/><stop offset="1" stop-color="#297cd2"/></linearGradient><path fill="url(#IJ8vmgCyRkut4QWI9hCBva)" d="M24,42l8.804,1.761C33.423,43.885,34,43.411,34,42.78v-1.51c0-0.758-0.428-1.45-1.106-1.789	L28,37.034L24,42z"/><linearGradient id="IJ8vmgCyRkut4QWI9hCBvb" x1="28" x2="46" y1="24.941" y2="24.941" gradientUnits="userSpaceOnUse"><stop offset="0" stop-color="#3079d6"/><stop offset="1" stop-color="#297cd2"/></linearGradient><path fill="url(#IJ8vmgCyRkut4QWI9hCBvb)" d="M28,29l16.89,1.877c0.592,0.066,1.11-0.398,1.11-0.994V28.3c0-0.79-0.465-1.507-1.188-1.828	L28,19V29z"/><linearGradient id="IJ8vmgCyRkut4QWI9hCBvc" x1="14" x2="24" y1="40.407" y2="40.407" gradientUnits="userSpaceOnUse"><stop offset="0" stop-color="#3079d6"/><stop offset="1" stop-color="#297cd2"/></linearGradient><path fill="url(#IJ8vmgCyRkut4QWI9hCBvc)" d="M20,37.034l-4.894,2.447C14.428,39.82,14,40.513,14,41.27v1.51	c0,0.631,0.577,1.104,1.196,0.981L24,42L20,37.034z"/><linearGradient id="IJ8vmgCyRkut4QWI9hCBvd" x1="2" x2="20" y1="24.941" y2="24.941" gradientUnits="userSpaceOnUse"><stop offset="0" stop-color="#3079d6"/><stop offset="1" stop-color="#297cd2"/></linearGradient><path fill="url(#IJ8vmgCyRkut4QWI9hCBvd)" d="M20,19L3.188,26.472C2.465,26.793,2,27.509,2,28.3v1.583c0,0.596,0.518,1.06,1.11,0.994L20,29	V19z"/><linearGradient id="IJ8vmgCyRkut4QWI9hCBve" x1="20" x2="28" y1="23" y2="23" gradientUnits="userSpaceOnUse"><stop offset="0" stop-color="#42a3f2"/><stop offset="1" stop-color="#42a4eb"/></linearGradient><rect width="8" height="34" x="20" y="6" fill="url(#IJ8vmgCyRkut4QWI9hCBve)"/><linearGradient id="IJ8vmgCyRkut4QWI9hCBvf" x1="20" x2="28" y1="6" y2="6" gradientUnits="userSpaceOnUse"><stop offset="0" stop-color="#42a3f2"/><stop offset="1" stop-color="#42a4eb"/></linearGradient><circle cx="24" cy="6" r="4" fill="url(#IJ8vmgCyRkut4QWI9hCBvf)"/><linearGradient id="IJ8vmgCyRkut4QWI9hCBvg" x1="20" x2="28" y1="40" y2="40" gradientUnits="userSpaceOnUse"><stop offset="0" stop-color="#42a3f2"/><stop offset="1" stop-color="#42a4eb"/></linearGradient><circle cx="24" cy="40" r="4" fill="url(#IJ8vmgCyRkut4QWI9hCBvg)"/></svg>