<svg xmlns="http://www.w3.org/2000/svg" viewBox="0 0 48 48"><linearGradient id="IImKg~zhyy01_0NN5Q3nua" x1="24" x2="24" y1="3.745" y2="28.133" gradientUnits="userSpaceOnUse"><stop offset="0" stop-color="#32bdef"/><stop offset="1" stop-color="#1ea2e4"/></linearGradient><path fill="url(#IImKg~zhyy01_0NN5Q3nua)" d="M29.762,10.14l-4.701-4.701c-0.585-0.586-1.535-0.586-2.121,0l-4.701,4.701 c-0.509,0.509-0.149,1.379,0.571,1.379H22v16c0,0.552,0.448,1,1,1h2c0.552,0,1-0.448,1-1v-16h3.19 C29.91,11.519,30.271,10.649,29.762,10.14z"/><linearGradient id="IImKg~zhyy01_0NN5Q3nub" x1="9.659" x2="9.659" y1="3.37" y2="27.758" gradientUnits="userSpaceOnUse"><stop offset="0" stop-color="#32bdef"/><stop offset="1" stop-color="#1ea2e4"/></linearGradient><path fill="url(#IImKg~zhyy01_0NN5Q3nub)" d="M3.306,21.339v-6.648c-0.001-0.828,0.671-1.5,1.5-1.5l6.648,0c0.72,0,1.08,0.87,0.571,1.379 l-2.256,2.256l5.364,5.364c0.562,0.562,0.878,1.325,0.878,2.121v5.657c0.001,0.552-0.447,1-1,1h-2c-0.552,0.001-1-0.447-1-1v-5.242 l-5.071-5.071l-2.256,2.256C4.176,22.419,3.306,22.059,3.306,21.339z"/><linearGradient id="IImKg~zhyy01_0NN5Q3nuc" x1="38.341" x2="38.341" y1="3.37" y2="27.758" gradientUnits="userSpaceOnUse"><stop offset="0" stop-color="#32bdef"/><stop offset="1" stop-color="#1ea2e4"/></linearGradient><path fill="url(#IImKg~zhyy01_0NN5Q3nuc)" d="M44.694,21.339v-6.648c0.001-0.828-0.671-1.5-1.5-1.5l-6.648,0 c-0.72,0-1.08,0.87-0.571,1.379l2.256,2.256l-5.364,5.364c-0.562,0.562-0.878,1.325-0.878,2.121v5.657c-0.001,0.552,0.447,1,1,1h2 c0.552,0.001,1-0.447,1-1v-5.242l5.071-5.071l2.256,2.256C43.824,22.419,44.694,22.059,44.694,21.339z"/><linearGradient id="IImKg~zhyy01_0NN5Q3nud" x1="39.25" x2="44.171" y1="614.623" y2="628.567" gradientTransform="translate(0 -586)" gradientUnits="userSpaceOnUse"><stop offset="0" stop-color="#32bdef"/><stop offset="1" stop-color="#1ea2e4"/></linearGradient><path fill="url(#IImKg~zhyy01_0NN5Q3nud)" d="M39,30v13l4.828-4.828c0.75-0.75,1.172-1.768,1.172-2.828V30c0-0.552-0.448-1-1-1h-4 C39.448,29,39,29.448,39,30z"/><linearGradient id="IImKg~zhyy01_0NN5Q3nue" x1="9" x2="39" y1="626" y2="626" gradientTransform="translate(0 -586)" gradientUnits="userSpaceOnUse"><stop offset="0" stop-color="#0362b0"/><stop offset=".112" stop-color="#036abd"/><stop offset=".258" stop-color="#036fc5"/><stop offset=".5" stop-color="#0370c8"/><stop offset=".742" stop-color="#036fc5"/><stop offset=".888" stop-color="#036abd"/><stop offset="1" stop-color="#0362b0"/></linearGradient><rect width="30" height="6" x="9" y="37" fill="url(#IImKg~zhyy01_0NN5Q3nue)"/><linearGradient id="IImKg~zhyy01_0NN5Q3nuf" x1="-999.75" x2="-994.829" y1="614.623" y2="628.567" gradientTransform="matrix(-1 0 0 1 -991 -586)" gradientUnits="userSpaceOnUse"><stop offset="0" stop-color="#32bdef"/><stop offset="1" stop-color="#1ea2e4"/></linearGradient><path fill="url(#IImKg~zhyy01_0NN5Q3nuf)" d="M9,30v13l-4.828-4.828C3.421,37.421,3,36.404,3,35.343V30c0-0.552,0.448-1,1-1h4 C8.552,29,9,29.448,9,30z"/></svg>