<svg xmlns="http://www.w3.org/2000/svg" viewBox="0 0 48 48"><linearGradient id="Kdj8VaNbJV8ptMS6OBIaia" x1=".468" x2="39.203" y1=".468" y2="39.203" gradientUnits="userSpaceOnUse"><stop offset="0" stop-color="#fcfcfc"/><stop offset=".95" stop-color="#c3c9cd"/></linearGradient><circle cx="24" cy="24" r="20" fill="url(#Kdj8VaNbJV8ptMS6OBIaia)"/><linearGradient id="Kdj8VaNbJV8ptMS6OBIaib" x1="15.191" x2="34.809" y1="-175" y2="-175" gradientTransform="matrix(1 0 0 -1 0 -154)" gradientUnits="userSpaceOnUse"><stop offset="0" stop-color="#737b80"/><stop offset=".473" stop-color="#686f74"/><stop offset="1" stop-color="#575c61"/></linearGradient><path fill="url(#Kdj8VaNbJV8ptMS6OBIaib)" d="M22.265,27.75l-6.823-6.823c-0.333-0.333-0.333-0.873,0-1.206l1.206-1.206	c0.333-0.333,0.873-0.333,1.206,0l5.014,5.014l9.279-9.279c0.333-0.333,0.873-0.333,1.206,0l1.206,1.206	c0.333,0.333,0.333,0.873,0,1.206L23.471,27.75C23.138,28.083,22.597,28.083,22.265,27.75z"/><linearGradient id="Kdj8VaNbJV8ptMS6OBIaic" x1="18.504" x2="29.496" y1="27.003" y2="37.996" gradientUnits="userSpaceOnUse"><stop offset="0" stop-color="#737b80"/><stop offset=".473" stop-color="#686f74"/><stop offset="1" stop-color="#575c61"/></linearGradient><path fill="url(#Kdj8VaNbJV8ptMS6OBIaic)" d="M33.134,33.999H14.866c-0.478,0-0.866-0.388-0.866-0.866v-1.267	C14,31.388,14.388,31,14.866,31h18.268C33.612,31,34,31.388,34,31.866v1.267C34,33.612,33.612,33.999,33.134,33.999z"/></svg>