<svg xmlns="http://www.w3.org/2000/svg" viewBox="0 0 48 48"><linearGradient id="s_qxBuErxQ8XqU_CG3zz7a" x1="9.406" x2="10.15" y1="35.018" y2="42.085" gradientUnits="userSpaceOnUse"><stop offset="0" stop-color="#199ae0"/><stop offset="1" stop-color="#0782d8"/></linearGradient><path fill="url(#s_qxBuErxQ8XqU_CG3zz7a)" d="M10,35.286c-4.418,0-8,2.46-8,5.143V41c0,0.552,0.448,1,1,1h14c0.552,0,1-0.448,1-1v-0.571	C18,37.746,14.418,35.286,10,35.286z"/><linearGradient id="s_qxBuErxQ8XqU_CG3zz7b" x1="37.406" x2="38.15" y1="35.018" y2="42.085" gradientUnits="userSpaceOnUse"><stop offset="0" stop-color="#0d61a9"/><stop offset="1" stop-color="#16528c"/></linearGradient><path fill="url(#s_qxBuErxQ8XqU_CG3zz7b)" d="M38,35.286c-4.418,0-8,2.46-8,5.143V41c0,0.552,0.448,1,1,1h14c0.552,0,1-0.448,1-1v-0.571	C46,37.746,42.418,35.286,38,35.286z"/><path fill="#d6a121" d="M40,36.4c0,0.759-1.132,1.6-2,1.6s-2-0.841-2-1.6c0-1.055,0-2.814,0-2.814h4	C40,33.586,40,35.345,40,36.4z"/><linearGradient id="s_qxBuErxQ8XqU_CG3zz7c" x1="41.94" x2="42.97" y1="30.75" y2="30.75" gradientUnits="userSpaceOnUse"><stop offset="0" stop-color="#c48f0c"/><stop offset=".251" stop-color="#d19b16"/><stop offset=".619" stop-color="#dca51f"/><stop offset="1" stop-color="#e0a922"/></linearGradient><path fill="url(#s_qxBuErxQ8XqU_CG3zz7c)" d="M42.208,29.5h-0.264V32h0.352c0.257,0,0.477-0.195,0.52-0.462l0.172-1.064	C43.071,29.964,42.698,29.5,42.208,29.5z"/><radialGradient id="s_qxBuErxQ8XqU_CG3zz7d" cx="127.612" cy="124.277" r="6.112" gradientTransform="translate(-62.006 -67.359) scale(.7837)" gradientUnits="userSpaceOnUse"><stop offset="0" stop-color="#ffcf54"/><stop offset=".261" stop-color="#fdcb4d"/><stop offset=".639" stop-color="#f7c13a"/><stop offset="1" stop-color="#f0b421"/></radialGradient><path fill="url(#s_qxBuErxQ8XqU_CG3zz7d)" d="M38,24.567c-1.974,0-4,0.3-4,4.567c0,0.342,0,2.612,0,2.977c0,1.523,2.4,3.39,4,3.39	s4-1.867,4-3.39c0-0.365,0-2.635,0-2.977C42,24.867,39.974,24.567,38,24.567z"/><radialGradient id="s_qxBuErxQ8XqU_CG3zz7e" cx="53.288" cy="78.077" r="15.002" gradientTransform="translate(-13.257 -45.216) scale(.8816)" gradientUnits="userSpaceOnUse"><stop offset="0" stop-color="#c26715"/><stop offset=".508" stop-color="#b85515"/><stop offset="1" stop-color="#ad3f16"/></radialGradient><path fill="url(#s_qxBuErxQ8XqU_CG3zz7e)" d="M38,23c-2.177,0-2.5,0.818-2.5,0.818C34.615,23.949,33,24.499,33,27c0,0.827,0.407,2.89,1,4	c0.273-3.273,0.624-5,1.5-5c0.633,0,1.136-1,2.5-1c1.151,0,1.437,1,2.5,1c1.5,0,1.5,4.484,1.5,5c0.644-1.153,1-3.278,1-4	C43,24.477,41.105,23,38,23z"/><path d="M32.722,42C32.894,41.705,33,41.366,33,41v-0.571c0-1.125-0.479-2.187-1.289-3.105	C30.642,38.208,30,39.297,30,40.429V41c0,0.552,0.448,1,1,1H32.722z" opacity=".05"/><radialGradient id="s_qxBuErxQ8XqU_CG3zz7f" cx="64.451" cy="79.286" r="19.272" gradientTransform="matrix(.8431 0 0 .8816 -17.262 -45.216)" gradientUnits="userSpaceOnUse"><stop offset="0" stop-color="#c26715"/><stop offset=".508" stop-color="#b85515"/><stop offset="1" stop-color="#ad3f16"/></radialGradient><path fill="url(#s_qxBuErxQ8XqU_CG3zz7f)" d="M37,23c-1.996,0-2,2-2,2c-0.024,0.676,0.469,1,3,1c1.528,0,4-0.454,4-3C42,23,40.464,23,37,23	z"/><path d="M32.11,42c0.24-0.266,0.39-0.614,0.39-1v-0.571c0-1.005-0.427-1.956-1.155-2.784	C30.496,38.465,30,39.431,30,40.429V41c0,0.552,0.448,1,1,1H32.11z" opacity=".07"/><path d="M15.278,42C15.106,41.705,15,41.366,15,41v-0.571c0-1.125,0.479-2.187,1.289-3.105	C17.358,38.208,18,39.297,18,40.429V41c0,0.552-0.448,1-1,1H15.278z" opacity=".05"/><path d="M15.89,42c-0.24-0.266-0.39-0.614-0.39-1v-0.571c0-1.005,0.427-1.956,1.155-2.784	C17.504,38.465,18,39.431,18,40.429V41c0,0.552-0.448,1-1,1H15.89z" opacity=".07"/><path fill="#64717c" d="M9.012,20L9,12.027c0-0.534,0.207-1.037,0.585-1.415c0.378-0.378,0.88-0.587,1.414-0.587L36.971,10	h0.004c1.102,0,1.999,0.897,2,1.999L38.987,20h2l-0.012-8.003C40.973,9.789,39.182,8,36.974,8c-0.001,0-0.003,0-0.004,0	L10.997,8.025C8.787,8.027,6.998,9.82,7,12.03L7.011,20H9.012z"/><linearGradient id="s_qxBuErxQ8XqU_CG3zz7g" x1="23.406" x2="24.15" y1="13.018" y2="20.085" gradientUnits="userSpaceOnUse"><stop offset="0" stop-color="#0370c8"/><stop offset=".484" stop-color="#036fc5"/><stop offset=".775" stop-color="#036abd"/><stop offset="1" stop-color="#0362b0"/></linearGradient><path fill="url(#s_qxBuErxQ8XqU_CG3zz7g)" d="M24,13.286c-4.418,0-8,2.46-8,5.143V19c0,0.552,0.448,1,1,1h14c0.552,0,1-0.448,1-1v-0.571	C32,15.746,28.418,13.286,24,13.286z"/><path fill="#d6a121" d="M26,14.4c0,0.759-1.132,1.6-2,1.6s-2-0.841-2-1.6c0-1.055,0-2.814,0-2.814h4	C26,11.586,26,13.345,26,14.4z"/><linearGradient id="s_qxBuErxQ8XqU_CG3zz7h" x1="27.94" x2="28.97" y1="8.75" y2="8.75" gradientUnits="userSpaceOnUse"><stop offset="0" stop-color="#c48f0c"/><stop offset=".251" stop-color="#d19b16"/><stop offset=".619" stop-color="#dca51f"/><stop offset="1" stop-color="#e0a922"/></linearGradient><path fill="url(#s_qxBuErxQ8XqU_CG3zz7h)" d="M28.208,7.5h-0.264V10h0.352c0.257,0,0.477-0.195,0.52-0.462l0.172-1.064	C29.071,7.964,28.698,7.5,28.208,7.5z"/><linearGradient id="s_qxBuErxQ8XqU_CG3zz7i" x1="20.072" x2="19.026" y1="8.75" y2="8.75" gradientUnits="userSpaceOnUse"><stop offset="0" stop-color="#c48f0c"/><stop offset=".251" stop-color="#d19b16"/><stop offset=".619" stop-color="#dca51f"/><stop offset="1" stop-color="#e0a922"/></linearGradient><path fill="url(#s_qxBuErxQ8XqU_CG3zz7i)" d="M19.792,7.5h0.264V10h-0.352c-0.257,0-0.477-0.195-0.52-0.462l-0.172-1.064	C18.929,7.964,19.302,7.5,19.792,7.5z"/><radialGradient id="s_qxBuErxQ8XqU_CG3zz7j" cx="109.748" cy="96.204" r="6.112" gradientTransform="translate(-62.006 -67.359) scale(.7837)" gradientUnits="userSpaceOnUse"><stop offset="0" stop-color="#ffcf54"/><stop offset=".261" stop-color="#fdcb4d"/><stop offset=".639" stop-color="#f7c13a"/><stop offset="1" stop-color="#f0b421"/></radialGradient><path fill="url(#s_qxBuErxQ8XqU_CG3zz7j)" d="M24,2.567c-1.974,0-4,0.3-4,4.567c0,0.342,0,2.612,0,2.977c0,1.523,2.4,3.39,4,3.39	s4-1.867,4-3.39c0-0.365,0-2.635,0-2.977C28,2.867,25.974,2.567,24,2.567z"/><radialGradient id="s_qxBuErxQ8XqU_CG3zz7k" cx="37.408" cy="53.123" r="15.002" gradientTransform="translate(-13.257 -45.216) scale(.8816)" gradientUnits="userSpaceOnUse"><stop offset="0" stop-color="#c26715"/><stop offset=".508" stop-color="#b85515"/><stop offset="1" stop-color="#ad3f16"/></radialGradient><path fill="url(#s_qxBuErxQ8XqU_CG3zz7k)" d="M24,1c-2.177,0-2.5,0.818-2.5,0.818C20.615,1.949,19,2.499,19,5c0,0.827,0.407,2.89,1,4	c0.273-3.273,0.624-5,1.5-5c0.633,0,1.136-1,2.5-1c1.151,0,1.437,1,2.5,1C28,4,28,8.484,28,9c0.644-1.153,1-3.278,1-4	C29,2.477,27.105,1,24,1z"/><radialGradient id="s_qxBuErxQ8XqU_CG3zz7l" cx="47.847" cy="54.333" r="19.272" gradientTransform="matrix(.8431 0 0 .8816 -17.262 -45.216)" gradientUnits="userSpaceOnUse"><stop offset="0" stop-color="#c26715"/><stop offset=".508" stop-color="#b85515"/><stop offset="1" stop-color="#ad3f16"/></radialGradient><path fill="url(#s_qxBuErxQ8XqU_CG3zz7l)" d="M23,1c-1.996,0-2,2-2,2c-0.024,0.676,0.469,1,3,1c1.528,0,4-0.454,4-3C28,1,26.464,1,23,1z"/><linearGradient id="s_qxBuErxQ8XqU_CG3zz7m" x1="20.072" x2="19.026" y1="30.75" y2="30.75" gradientUnits="userSpaceOnUse"><stop offset="0" stop-color="#c48f0c"/><stop offset=".251" stop-color="#d19b16"/><stop offset=".619" stop-color="#dca51f"/><stop offset="1" stop-color="#e0a922"/></linearGradient><path fill="url(#s_qxBuErxQ8XqU_CG3zz7m)" d="M19.792,29.5h0.264V32h-0.352c-0.257,0-0.477-0.195-0.52-0.462l-0.172-1.064	C18.929,29.964,19.302,29.5,19.792,29.5z"/><linearGradient id="s_qxBuErxQ8XqU_CG3zz7n" x1="34.072" x2="33.026" y1="30.75" y2="30.75" gradientUnits="userSpaceOnUse"><stop offset="0" stop-color="#c48f0c"/><stop offset=".251" stop-color="#d19b16"/><stop offset=".619" stop-color="#dca51f"/><stop offset="1" stop-color="#e0a922"/></linearGradient><path fill="url(#s_qxBuErxQ8XqU_CG3zz7n)" d="M33.792,29.5h0.264V32h-0.352c-0.257,0-0.477-0.195-0.52-0.462l-0.172-1.064	C32.929,29.964,33.302,29.5,33.792,29.5z"/><path fill="#d6a121" d="M12,36.4c0,0.759-1.132,1.6-2,1.6s-2-0.841-2-1.6c0-1.055,0-2.814,0-2.814h4	C12,33.586,12,35.345,12,36.4z"/><linearGradient id="s_qxBuErxQ8XqU_CG3zz7o" x1="13.94" x2="14.97" y1="30.75" y2="30.75" gradientUnits="userSpaceOnUse"><stop offset="0" stop-color="#c48f0c"/><stop offset=".251" stop-color="#d19b16"/><stop offset=".619" stop-color="#dca51f"/><stop offset="1" stop-color="#e0a922"/></linearGradient><path fill="url(#s_qxBuErxQ8XqU_CG3zz7o)" d="M14.208,29.5h-0.264V32h0.352c0.257,0,0.477-0.195,0.52-0.462l0.172-1.064	C15.071,29.964,14.698,29.5,14.208,29.5z"/><linearGradient id="s_qxBuErxQ8XqU_CG3zz7p" x1="6.072" x2="5.027" y1="30.75" y2="30.75" gradientUnits="userSpaceOnUse"><stop offset="0" stop-color="#c48f0c"/><stop offset=".251" stop-color="#d19b16"/><stop offset=".619" stop-color="#dca51f"/><stop offset="1" stop-color="#e0a922"/></linearGradient><path fill="url(#s_qxBuErxQ8XqU_CG3zz7p)" d="M5.792,29.5h0.264V32H5.704c-0.257,0-0.477-0.195-0.52-0.462l-0.172-1.064	C4.929,29.964,5.302,29.5,5.792,29.5z"/><radialGradient id="s_qxBuErxQ8XqU_CG3zz7q" cx="91.883" cy="124.277" r="6.112" gradientTransform="translate(-62.006 -67.359) scale(.7837)" gradientUnits="userSpaceOnUse"><stop offset="0" stop-color="#ffcf54"/><stop offset=".261" stop-color="#fdcb4d"/><stop offset=".639" stop-color="#f7c13a"/><stop offset="1" stop-color="#f0b421"/></radialGradient><path fill="url(#s_qxBuErxQ8XqU_CG3zz7q)" d="M10,24.567c-1.974,0-4,0.3-4,4.567c0,0.342,0,2.612,0,2.977c0,1.523,2.4,3.39,4,3.39	s4-1.867,4-3.39c0-0.365,0-2.635,0-2.977C14,24.867,11.974,24.567,10,24.567z"/><radialGradient id="s_qxBuErxQ8XqU_CG3zz7r" cx="21.528" cy="78.077" r="15.002" gradientTransform="translate(-13.257 -45.216) scale(.8816)" gradientUnits="userSpaceOnUse"><stop offset="0" stop-color="#c26715"/><stop offset=".508" stop-color="#b85515"/><stop offset="1" stop-color="#ad3f16"/></radialGradient><path fill="url(#s_qxBuErxQ8XqU_CG3zz7r)" d="M10,23c-2.177,0-2.5,0.818-2.5,0.818C6.615,23.949,5,24.499,5,27c0,0.827,0.407,2.89,1,4	c0.273-3.273,0.624-5,1.5-5c0.633,0,1.136-1,2.5-1c1.151,0,1.437,1,2.5,1c1.5,0,1.5,4.484,1.5,5c0.644-1.153,1-3.278,1-4	C15,24.477,13.105,23,10,23z"/><radialGradient id="s_qxBuErxQ8XqU_CG3zz7s" cx="31.242" cy="79.286" r="19.272" gradientTransform="matrix(.8431 0 0 .8816 -17.262 -45.216)" gradientUnits="userSpaceOnUse"><stop offset="0" stop-color="#c26715"/><stop offset=".508" stop-color="#b85515"/><stop offset="1" stop-color="#ad3f16"/></radialGradient><path fill="url(#s_qxBuErxQ8XqU_CG3zz7s)" d="M9,23c-1.996,0-2,2-2,2c-0.024,0.676,0.469,1,3,1c1.528,0,4-0.454,4-3C14,23,12.464,23,9,23z"/><linearGradient id="s_qxBuErxQ8XqU_CG3zz7t" x1="23.406" x2="24.15" y1="35.018" y2="42.085" gradientUnits="userSpaceOnUse"><stop offset="0" stop-color="#32bdef"/><stop offset="1" stop-color="#1ea2e4"/></linearGradient><path fill="url(#s_qxBuErxQ8XqU_CG3zz7t)" d="M24,35.286c-4.418,0-8,2.46-8,5.143V41c0,0.552,0.448,1,1,1h14c0.552,0,1-0.448,1-1v-0.571	C32,37.746,28.418,35.286,24,35.286z"/><path fill="#d6a121" d="M26,36.4c0,0.759-1.132,1.6-2,1.6s-2-0.841-2-1.6c0-1.055,0-2.814,0-2.814h4	C26,33.586,26,35.345,26,36.4z"/><linearGradient id="s_qxBuErxQ8XqU_CG3zz7u" x1="27.94" x2="28.97" y1="30.75" y2="30.75" gradientUnits="userSpaceOnUse"><stop offset="0" stop-color="#c48f0c"/><stop offset=".251" stop-color="#d19b16"/><stop offset=".619" stop-color="#dca51f"/><stop offset="1" stop-color="#e0a922"/></linearGradient><path fill="url(#s_qxBuErxQ8XqU_CG3zz7u)" d="M28.208,29.5h-0.264V32h0.352c0.257,0,0.477-0.195,0.52-0.462l0.172-1.064	C29.071,29.964,28.698,29.5,28.208,29.5z"/><radialGradient id="s_qxBuErxQ8XqU_CG3zz7v" cx="109.748" cy="124.277" r="6.112" gradientTransform="translate(-62.006 -67.359) scale(.7837)" gradientUnits="userSpaceOnUse"><stop offset="0" stop-color="#ffcf54"/><stop offset=".261" stop-color="#fdcb4d"/><stop offset=".639" stop-color="#f7c13a"/><stop offset="1" stop-color="#f0b421"/></radialGradient><path fill="url(#s_qxBuErxQ8XqU_CG3zz7v)" d="M24,24.567c-1.974,0-4,0.3-4,4.567c0,0.342,0,2.612,0,2.977c0,1.523,2.4,3.39,4,3.39	s4-1.867,4-3.39c0-0.365,0-2.635,0-2.977C28,24.867,25.974,24.567,24,24.567z"/><radialGradient id="s_qxBuErxQ8XqU_CG3zz7w" cx="37.408" cy="78.077" r="15.002" gradientTransform="translate(-13.257 -45.216) scale(.8816)" gradientUnits="userSpaceOnUse"><stop offset="0" stop-color="#c26715"/><stop offset=".508" stop-color="#b85515"/><stop offset="1" stop-color="#ad3f16"/></radialGradient><path fill="url(#s_qxBuErxQ8XqU_CG3zz7w)" d="M24,23c-2.177,0-2.5,0.818-2.5,0.818C20.615,23.949,19,24.499,19,27c0,0.827,0.407,2.89,1,4	c0.273-3.273,0.624-5,1.5-5c0.633,0,1.136-1,2.5-1c1.151,0,1.437,1,2.5,1c1.5,0,1.5,4.484,1.5,5c0.644-1.153,1-3.278,1-4	C29,24.477,27.105,23,24,23z"/><radialGradient id="s_qxBuErxQ8XqU_CG3zz7x" cx="47.847" cy="79.286" r="19.272" gradientTransform="matrix(.8431 0 0 .8816 -17.262 -45.216)" gradientUnits="userSpaceOnUse"><stop offset="0" stop-color="#c26715"/><stop offset=".508" stop-color="#b85515"/><stop offset="1" stop-color="#ad3f16"/></radialGradient><path fill="url(#s_qxBuErxQ8XqU_CG3zz7x)" d="M23,23c-1.996,0-2,2-2,2c-0.024,0.676,0.469,1,3,1c1.528,0,4-0.454,4-3	C28,23,26.464,23,23,23z"/></svg>