<svg xmlns="http://www.w3.org/2000/svg" viewBox="0 0 48 48"><path fill="#50e6ff" d="M38,8H10c-3.3,0-6,2.7-6,6v20c0,3.3,2.7,6,6,6h28c3.3,0,6-2.7,6-6V14C44,10.7,41.3,8,38,8z"/><linearGradient id="KVBppIYDb8x2cr0FMxM~0a" x1="-2824.896" x2="-2824.896" y1="-1448" y2="-1452" gradientTransform="rotate(180 -1408.698 -708.5)" gradientUnits="userSpaceOnUse"><stop offset=".478" stop-color="#199ae0"/><stop offset=".868" stop-color="#1186cc"/><stop offset="1" stop-color="#076cb3"/></linearGradient><path fill="url(#KVBppIYDb8x2cr0FMxM~0a)" d="M6.5,31h2C8.776,31,9,31.224,9,31.5V35H6v-3.5C6,31.224,6.224,31,6.5,31z"/><linearGradient id="KVBppIYDb8x2cr0FMxM~0b" x1="-933.895" x2="-933.895" y1="-1448" y2="-1452" gradientTransform="matrix(1 0 0 -1 974.395 -1417)" gradientUnits="userSpaceOnUse"><stop offset=".478" stop-color="#199ae0"/><stop offset=".868" stop-color="#1186cc"/><stop offset="1" stop-color="#076cb3"/></linearGradient><path fill="url(#KVBppIYDb8x2cr0FMxM~0b)" d="M41.5,31h-2c-0.276,0-0.5,0.224-0.5,0.5V35h3v-3.5C42,31.224,41.776,31,41.5,31z"/><linearGradient id="KVBppIYDb8x2cr0FMxM~0c" x1="-2824.896" x2="-2824.896" y1="3" y2="-1" gradientTransform="matrix(-1 0 0 1 -2817.396 14)" gradientUnits="userSpaceOnUse"><stop offset=".478" stop-color="#199ae0"/><stop offset=".868" stop-color="#1186cc"/><stop offset="1" stop-color="#076cb3"/></linearGradient><path fill="url(#KVBppIYDb8x2cr0FMxM~0c)" d="M6.5,17h2C8.776,17,9,16.776,9,16.5V13H6v3.5C6,16.776,6.224,17,6.5,17z"/><linearGradient id="KVBppIYDb8x2cr0FMxM~0d" x1="-933.895" x2="-933.895" y1="3" y2="-1" gradientTransform="translate(974.395 14)" gradientUnits="userSpaceOnUse"><stop offset=".478" stop-color="#199ae0"/><stop offset=".868" stop-color="#1186cc"/><stop offset="1" stop-color="#076cb3"/></linearGradient><path fill="url(#KVBppIYDb8x2cr0FMxM~0d)" d="M41.5,17h-2c-0.276,0-0.5-0.224-0.5-0.5V13h3v3.5C42,16.776,41.776,17,41.5,17z"/><linearGradient id="KVBppIYDb8x2cr0FMxM~0e" x1="8.337" x2="9.991" y1="28.633" y2="38.013" gradientUnits="userSpaceOnUse"><stop offset="0" stop-color="#32bdef"/><stop offset=".661" stop-color="#25abe8"/><stop offset="1" stop-color="#1ea2e4"/></linearGradient><path fill="url(#KVBppIYDb8x2cr0FMxM~0e)" d="M12.5,35H6c1.5,1.875,2.625,3,4.125,3H12.5c0.276,0,0.5-0.224,0.5-0.5v-2	C13,35.224,12.776,35,12.5,35z"/><linearGradient id="KVBppIYDb8x2cr0FMxM~0f" x1="37.34" x2="38.722" y1="29.692" y2="37.53" gradientUnits="userSpaceOnUse"><stop offset="0" stop-color="#32bdef"/><stop offset=".661" stop-color="#25abe8"/><stop offset="1" stop-color="#1ea2e4"/></linearGradient><path fill="url(#KVBppIYDb8x2cr0FMxM~0f)" d="M35,35.5v2c0,0.276,0.224,0.5,0.5,0.5h2.375c1.5,0,2.625-1.125,4.125-3h-6.5	C35.224,35,35,35.224,35,35.5z"/><linearGradient id="KVBppIYDb8x2cr0FMxM~0g" x1="8.365" x2="9.747" y1="5.29" y2="13.128" gradientUnits="userSpaceOnUse"><stop offset="0" stop-color="#32bdef"/><stop offset=".661" stop-color="#25abe8"/><stop offset="1" stop-color="#1ea2e4"/></linearGradient><path fill="url(#KVBppIYDb8x2cr0FMxM~0g)" d="M13,12.5v-2c0-0.276-0.224-0.5-0.5-0.5h-2.375C8.625,10,7.5,11.125,6,13h6.5	C12.776,13,13,12.776,13,12.5z"/><linearGradient id="KVBppIYDb8x2cr0FMxM~0h" x1="36.916" x2="38.57" y1="3.788" y2="13.168" gradientUnits="userSpaceOnUse"><stop offset="0" stop-color="#32bdef"/><stop offset=".661" stop-color="#25abe8"/><stop offset="1" stop-color="#1ea2e4"/></linearGradient><path fill="url(#KVBppIYDb8x2cr0FMxM~0h)" d="M35.5,13H42c-1.5-1.875-2.625-3-4.125-3H35.5c-0.276,0-0.5,0.224-0.5,0.5v2	C35,12.776,35.224,13,35.5,13z"/><linearGradient id="KVBppIYDb8x2cr0FMxM~0i" x1="8.365" x2="9.747" y1="5.29" y2="13.128" gradientUnits="userSpaceOnUse"><stop offset="0" stop-color="#32bdef"/><stop offset=".661" stop-color="#25abe8"/><stop offset="1" stop-color="#1ea2e4"/></linearGradient><path fill="url(#KVBppIYDb8x2cr0FMxM~0i)" d="M13,12.5v-2c0-0.276-0.224-0.5-0.5-0.5h-2.375C8.625,10,7.5,11.125,6,13h6.5	C12.776,13,13,12.776,13,12.5z"/></svg>