<svg xmlns="http://www.w3.org/2000/svg" viewBox="0 0 48 48"><linearGradient id="f8OEaiMEopXqgWlfdsL2xa" x1="9.364" x2="33.781" y1="-27.523" y2="18.399" gradientTransform="translate(0 24)" gradientUnits="userSpaceOnUse"><stop offset="0" stop-color="#8795a1"/><stop offset="1" stop-color="#6d7882"/></linearGradient><path fill="url(#f8OEaiMEopXqgWlfdsL2xa)" d="M38.303,43H9.697C8.172,43,7,41.813,7,40.269V7.731C7,6.188,8.172,5,9.697,5h28.49	C39.828,5,41,6.188,41,7.731V40.15C41,41.813,39.828,43,38.303,43z"/><linearGradient id="f8OEaiMEopXqgWlfdsL2xb" x1="22.449" x2="25.35" y1="-14.917" y2="-9.46" gradientTransform="translate(0 24)" gradientUnits="userSpaceOnUse"><stop offset="0" stop-color="#fcfcfc"/><stop offset=".495" stop-color="#f4f4f4"/><stop offset=".946" stop-color="#e8e8e8"/><stop offset="1" stop-color="#e8e8e8"/></linearGradient><path fill="url(#f8OEaiMEopXqgWlfdsL2xb)" d="M26.66,15h-5.32C20.6,15,20,14.475,20,13.828v-3.655C20,9.525,20.6,9,21.34,9h5.32	C27.4,9,28,9.525,28,10.172v3.655C28,14.475,27.4,15,26.66,15z"/><linearGradient id="f8OEaiMEopXqgWlfdsL2xc" x1="12.449" x2="15.35" y1="-14.917" y2="-9.46" gradientTransform="translate(0 24)" gradientUnits="userSpaceOnUse"><stop offset="0" stop-color="#fcfcfc"/><stop offset=".495" stop-color="#f4f4f4"/><stop offset=".946" stop-color="#e8e8e8"/><stop offset="1" stop-color="#e8e8e8"/></linearGradient><path fill="url(#f8OEaiMEopXqgWlfdsL2xc)" d="M16.66,15h-5.32C10.6,15,10,14.475,10,13.828v-3.655C10,9.525,10.6,9,11.34,9h5.32	C17.4,9,18,9.525,18,10.172v3.655C18,14.475,17.4,15,16.66,15z"/><linearGradient id="f8OEaiMEopXqgWlfdsL2xd" x1="32.449" x2="35.35" y1="-14.917" y2="-9.46" gradientTransform="translate(0 24)" gradientUnits="userSpaceOnUse"><stop offset="0" stop-color="#fcfcfc"/><stop offset=".495" stop-color="#f4f4f4"/><stop offset=".946" stop-color="#e8e8e8"/><stop offset="1" stop-color="#e8e8e8"/></linearGradient><path fill="url(#f8OEaiMEopXqgWlfdsL2xd)" d="M36.66,15h-5.32C30.6,15,30,14.475,30,13.828v-3.655C30,9.525,30.6,9,31.34,9h5.32	C37.4,9,38,9.525,38,10.172v3.655C38,14.475,37.4,15,36.66,15z"/><linearGradient id="f8OEaiMEopXqgWlfdsL2xe" x1="22.449" x2="25.35" y1="-6.917" y2="-1.46" gradientTransform="translate(0 24)" gradientUnits="userSpaceOnUse"><stop offset="0" stop-color="#fcfcfc"/><stop offset=".495" stop-color="#f4f4f4"/><stop offset=".946" stop-color="#e8e8e8"/><stop offset="1" stop-color="#e8e8e8"/></linearGradient><path fill="url(#f8OEaiMEopXqgWlfdsL2xe)" d="M26.66,23h-5.32C20.6,23,20,22.475,20,21.828v-3.655C20,17.525,20.6,17,21.34,17h5.32	C27.4,17,28,17.525,28,18.172v3.655C28,22.475,27.4,23,26.66,23z"/><linearGradient id="f8OEaiMEopXqgWlfdsL2xf" x1="12.449" x2="15.35" y1="-6.917" y2="-1.46" gradientTransform="translate(0 24)" gradientUnits="userSpaceOnUse"><stop offset="0" stop-color="#fcfcfc"/><stop offset=".495" stop-color="#f4f4f4"/><stop offset=".946" stop-color="#e8e8e8"/><stop offset="1" stop-color="#e8e8e8"/></linearGradient><path fill="url(#f8OEaiMEopXqgWlfdsL2xf)" d="M16.66,23h-5.32C10.6,23,10,22.475,10,21.828v-3.655C10,17.525,10.6,17,11.34,17h5.32	C17.4,17,18,17.525,18,18.172v3.655C18,22.475,17.4,23,16.66,23z"/><linearGradient id="f8OEaiMEopXqgWlfdsL2xg" x1="32.449" x2="35.35" y1="-6.917" y2="-1.46" gradientTransform="translate(0 24)" gradientUnits="userSpaceOnUse"><stop offset="0" stop-color="#fcfcfc"/><stop offset=".495" stop-color="#f4f4f4"/><stop offset=".946" stop-color="#e8e8e8"/><stop offset="1" stop-color="#e8e8e8"/></linearGradient><path fill="url(#f8OEaiMEopXqgWlfdsL2xg)" d="M36.66,23h-5.32C30.6,23,30,22.475,30,21.828v-3.655C30,17.525,30.6,17,31.34,17h5.32	C37.4,17,38,17.525,38,18.172v3.655C38,22.475,37.4,23,36.66,23z"/><linearGradient id="f8OEaiMEopXqgWlfdsL2xh" x1="22.449" x2="25.35" y1="1.083" y2="6.54" gradientTransform="translate(0 24)" gradientUnits="userSpaceOnUse"><stop offset="0" stop-color="#fcfcfc"/><stop offset=".495" stop-color="#f4f4f4"/><stop offset=".946" stop-color="#e8e8e8"/><stop offset="1" stop-color="#e8e8e8"/></linearGradient><path fill="url(#f8OEaiMEopXqgWlfdsL2xh)" d="M26.66,31h-5.32C20.6,31,20,30.475,20,29.828v-3.655C20,25.525,20.6,25,21.34,25h5.32	C27.4,25,28,25.525,28,26.172v3.655C28,30.475,27.4,31,26.66,31z"/><linearGradient id="f8OEaiMEopXqgWlfdsL2xi" x1="12.449" x2="15.35" y1="1.083" y2="6.54" gradientTransform="translate(0 24)" gradientUnits="userSpaceOnUse"><stop offset="0" stop-color="#fcfcfc"/><stop offset=".495" stop-color="#f4f4f4"/><stop offset=".946" stop-color="#e8e8e8"/><stop offset="1" stop-color="#e8e8e8"/></linearGradient><path fill="url(#f8OEaiMEopXqgWlfdsL2xi)" d="M16.66,31h-5.32C10.6,31,10,30.475,10,29.828v-3.655C10,25.525,10.6,25,11.34,25h5.32	C17.4,25,18,25.525,18,26.172v3.655C18,30.475,17.4,31,16.66,31z"/><linearGradient id="f8OEaiMEopXqgWlfdsL2xj" x1="32.449" x2="35.35" y1="1.083" y2="6.54" gradientTransform="translate(0 24)" gradientUnits="userSpaceOnUse"><stop offset="0" stop-color="#fcfcfc"/><stop offset=".495" stop-color="#f4f4f4"/><stop offset=".946" stop-color="#e8e8e8"/><stop offset="1" stop-color="#e8e8e8"/></linearGradient><path fill="url(#f8OEaiMEopXqgWlfdsL2xj)" d="M36.66,31h-5.32C30.6,31,30,30.475,30,29.828v-3.655C30,25.525,30.6,25,31.34,25h5.32	C37.4,25,38,25.525,38,26.172v3.655C38,30.475,37.4,31,36.66,31z"/><linearGradient id="f8OEaiMEopXqgWlfdsL2xk" x1="22.449" x2="25.35" y1="9.083" y2="14.54" gradientTransform="translate(0 24)" gradientUnits="userSpaceOnUse"><stop offset="0" stop-color="#fcfcfc"/><stop offset=".495" stop-color="#f4f4f4"/><stop offset=".946" stop-color="#e8e8e8"/><stop offset="1" stop-color="#e8e8e8"/></linearGradient><path fill="url(#f8OEaiMEopXqgWlfdsL2xk)" d="M26.66,39h-5.32C20.6,39,20,38.475,20,37.828v-3.655C20,33.525,20.6,33,21.34,33h5.32	C27.4,33,28,33.525,28,34.172v3.655C28,38.475,27.4,39,26.66,39z"/><linearGradient id="f8OEaiMEopXqgWlfdsL2xl" x1="12.449" x2="15.35" y1="9.083" y2="14.54" gradientTransform="translate(0 24)" gradientUnits="userSpaceOnUse"><stop offset="0" stop-color="#bec5c8"/><stop offset=".968" stop-color="#b9c1c4"/></linearGradient><path fill="url(#f8OEaiMEopXqgWlfdsL2xl)" d="M16.66,39h-5.32C10.6,39,10,38.475,10,37.828v-3.655C10,33.525,10.6,33,11.34,33h5.32	C17.4,33,18,33.525,18,34.172v3.655C18,38.475,17.4,39,16.66,39z"/><linearGradient id="f8OEaiMEopXqgWlfdsL2xm" x1="32.449" x2="35.35" y1="9.083" y2="14.54" gradientTransform="translate(0 24)" gradientUnits="userSpaceOnUse"><stop offset="0" stop-color="#bec5c8"/><stop offset=".968" stop-color="#b9c1c4"/></linearGradient><path fill="url(#f8OEaiMEopXqgWlfdsL2xm)" d="M36.66,39h-5.32C30.6,39,30,38.475,30,37.828v-3.655C30,33.525,30.6,33,31.34,33h5.32	C37.4,33,38,33.525,38,34.172v3.655C38,38.475,37.4,39,36.66,39z"/></svg>