<svg xmlns="http://www.w3.org/2000/svg" viewBox="0 0 48 48"><linearGradient id="OtuUA_gipPKk2Njp2Tfn7a" x1="4.689" x2="8.042" y1="15.007" y2="34.023" gradientUnits="userSpaceOnUse"><stop offset="0" stop-color="#f9f9f9"/><stop offset=".808" stop-color="#c2c8cc"/></linearGradient><path fill="url(#OtuUA_gipPKk2Njp2Tfn7a)" d="M5.085,20.78C5.085,20.78,6,23,6,26s-0.915,5.22-0.915,5.22S9,30,9,26	S5.085,20.78,5.085,20.78z"/><linearGradient id="OtuUA_gipPKk2Njp2Tfn7b" x1="7.564" x2="9.619" y1="19.628" y2="31.28" gradientUnits="userSpaceOnUse"><stop offset="0" stop-color="#6d6d6d"/><stop offset=".125" stop-color="#626262"/><stop offset=".987" stop-color="#464646"/><stop offset=".998" stop-color="#454545"/></linearGradient><path fill="url(#OtuUA_gipPKk2Njp2Tfn7b)" d="M5.716,20.049l-0.002,0.003	C5.649,20.021,5.578,20,5.5,20C5.224,20,5,20.224,5,20.5c0,0.117,0.043,0.221,0.111,0.305c0.023,0.028,0.169,0.165,0.292,0.271	C6.068,21.652,8,23.468,8,26c0,2.532-1.932,4.348-2.597,4.924c-0.123,0.106-0.269,0.243-0.292,0.271C5.043,31.279,5,31.383,5,31.5	C5,31.776,5.224,32,5.5,32c0.078,0,0.149-0.021,0.214-0.052l0.002,0.003C6.491,31.624,8.838,30.48,11,29.506L13,28v-4l-1-1.063	C9.616,21.901,6.613,20.427,5.716,20.049z"/><linearGradient id="OtuUA_gipPKk2Njp2Tfn7c" x1="30.38" x2="31.643" y1="39.286" y2="46.446" gradientUnits="userSpaceOnUse"><stop offset=".002" stop-color="#454545"/><stop offset=".013" stop-color="#464646"/><stop offset=".875" stop-color="#626262"/><stop offset="1" stop-color="#6d6d6d"/></linearGradient><path fill="url(#OtuUA_gipPKk2Njp2Tfn7c)" d="M32,39l-2.625,2.716	c-0.232,0.174-0.38,0.44-0.397,0.73c-0.051,0.825-0.239,2.62-0.924,3.881c-0.217,0.399,0.227,0.831,0.627,0.616	C30.515,45.962,33.307,43.158,34,39H32z"/><linearGradient id="OtuUA_gipPKk2Njp2Tfn7d" x1="12.572" x2="24.147" y1="-17.607" y2="48.038" gradientUnits="userSpaceOnUse"><stop offset="0" stop-color="#f9f9f9"/><stop offset="1" stop-color="#c2c8cc"/></linearGradient><path fill="url(#OtuUA_gipPKk2Njp2Tfn7d)" d="M31,12	C23.266,1.365,10.857,0.077,1.005,0.004C0.448-0.001,0,0.453,0,1.01v0c0,0.546,0.43,0.992,0.975,1.004	C3.611,2.072,10.948,2.379,15,4c0,0,9,5,9,11c0,5-7,7-7,21c0,6,0,10.596,0,10.596C17,47.372,17.628,48,18.404,48	c0.385,0,0.751-0.155,1.016-0.435C20.497,46.425,24,42,25,40h3c0,0,8-3,8-10C36,15,31,12,31,12z"/><linearGradient id="OtuUA_gipPKk2Njp2Tfn7e" x1="42.301" x2="44.016" y1="21.742" y2="31.468" gradientUnits="userSpaceOnUse"><stop offset="0" stop-color="#f9f9f9"/><stop offset="1" stop-color="#c2c8cc"/></linearGradient><path fill="url(#OtuUA_gipPKk2Njp2Tfn7e)" d="M42.5,25.611	C40.885,24.595,41,22.5,41,22.5h-3c1.961,3.906,3,9.5,3,9.5c0-0.5,0.495-1.283,2.125-1.5c1.875-0.25,4.006-0.506,4.069-0.519	C47.653,29.891,48,29.486,48,29l0,0c0-0.388-0.219-0.738-0.57-0.903C46.221,27.53,43.435,26.199,42.5,25.611z"/><linearGradient id="OtuUA_gipPKk2Njp2Tfn7f" x1="30.622" x2="35.468" y1="12.067" y2="39.546" gradientUnits="userSpaceOnUse"><stop offset="0" stop-color="#6d6d6d"/><stop offset=".125" stop-color="#626262"/><stop offset=".987" stop-color="#464646"/><stop offset=".998" stop-color="#454545"/></linearGradient><path fill="url(#OtuUA_gipPKk2Njp2Tfn7f)" d="M31,12c0,0,2,3,2,7s-1.342,7.054-2,11	c-1,6-3,10-3,10h1h3.25c4.025,0,8.75-3.5,8.75-8c0-2,0-6-1.5-11C37.683,14.942,31,12,31,12z"/><linearGradient id="OtuUA_gipPKk2Njp2Tfn7g" x1="16.732" x2="22.949" y1="3.695" y2="38.951" gradientUnits="userSpaceOnUse"><stop offset="0" stop-color="#ffeb3b"/><stop offset="1" stop-color="#fbc02d"/></linearGradient><path fill="url(#OtuUA_gipPKk2Njp2Tfn7g)" d="M30,25c0-4,0-9-3-13	c-4.327-5.769-12-8-12-8s5,4,5,10c0,2.366-3.724,5.362-5.301,9.954c-0.556-0.125-1.552-0.519-2.699-1.017c0,0,0,0.063,0,2.063	c0,3-1,4.507-1,4.507c1.14-0.514,2.227-0.979,3.006-1.253C14.07,36.08,17,40,17,40c1.08-0.978,2.602-6,4-6c0,0,1,1,3,1	c4.625,0,4.5-3,7-5C31,30,30,25.669,30,25z"/><linearGradient id="OtuUA_gipPKk2Njp2Tfn7h" x1="43.267" x2="43.961" y1="24.99" y2="28.927" gradientUnits="userSpaceOnUse"><stop offset="0" stop-color="#ffcf54"/><stop offset="1" stop-color="#f0b421"/></linearGradient><path fill="url(#OtuUA_gipPKk2Njp2Tfn7h)" d="M43,28.5c0,0.276,0.224,0.5,0.5,0.5	c0.247,0,0.469-0.181,0.492-0.427c0.134-1.392,0.951-0.695,0.977-1.659c-1.002-0.494-1.984-0.998-2.469-1.303	c-0.189-0.119-0.35-0.255-0.494-0.398C42.037,27.125,43,27.387,43,28.125V28.5z"/><linearGradient id="OtuUA_gipPKk2Njp2Tfn7i" x1="39.239" x2="39.761" y1="21.023" y2="23.977" gradientUnits="userSpaceOnUse"><stop offset="0" stop-color="#4c4c4c"/><stop offset="1" stop-color="#343434"/></linearGradient><circle cx="39.5" cy="22.5" r="1.5" fill="url(#OtuUA_gipPKk2Njp2Tfn7i)"/><linearGradient id="OtuUA_gipPKk2Njp2Tfn7j" x1="17.784" x2="24.365" y1="9.65" y2="46.971" gradientUnits="userSpaceOnUse"><stop offset="0" stop-color="#6d6d6d"/><stop offset=".125" stop-color="#626262"/><stop offset=".987" stop-color="#464646"/><stop offset=".998" stop-color="#454545"/></linearGradient><path fill="url(#OtuUA_gipPKk2Njp2Tfn7j)" d="M21,28c0-6,5-9,5-13	c0-2.875-4.214-5.914-4.25-5.935C21.673,9.02,21.591,9,21.511,9c-0.327,0.001-0.63,0.336-0.464,0.7	c0.336,0.74,1.453,3.175,1.453,4.3c0,4-6.5,8-6.5,16c0,5,1,6,1,10c0,0,0,1,0,3v3.596C17,47.372,17.628,48,18.404,48	c0.385,0,0.751-0.155,1.016-0.435C19.692,47.277,22,44,22,40C22,37,21,35,21,28z"/><linearGradient id="OtuUA_gipPKk2Njp2Tfn7k" x1="46.375" x2="46.581" y1="28.918" y2="30.089" gradientUnits="userSpaceOnUse"><stop offset="0" stop-color="#6d6d6d"/><stop offset=".125" stop-color="#626262"/><stop offset=".987" stop-color="#464646"/><stop offset=".998" stop-color="#454545"/></linearGradient><path fill="url(#OtuUA_gipPKk2Njp2Tfn7k)" d="M45,30.257	c1.189-0.151,2.152-0.268,2.194-0.276C47.654,29.891,48,29.486,48,29h-2c-0.552,0-1,0.448-1,1V30.257z"/><path d="M31,30.5c-0.077,0-0.153-0.018-0.224-0.053	c-4.026-2.013-5.276-6.072-5.276-7.322c0-1.447,1.178-2.625,2.625-2.625c2.282,0,5.765,3.302,7.122,5.07	c0.256,0.333,0.323,0.768,0.18,1.164c-0.139,0.38-0.454,0.659-0.844,0.746c-1.236,0.276-2.676,1.205-3.104,2.661	c-0.042,0.142-0.145,0.258-0.28,0.317C31.136,30.486,31.068,30.5,31,30.5z" opacity=".07"/><path d="M31,31c-0.154,0-0.31-0.037-0.447-0.105	C26.316,28.776,25,24.458,25,23.125C25,21.402,26.402,20,28.125,20c2.601,0,6.252,3.616,7.519,5.266	c0.36,0.469,0.455,1.082,0.253,1.639c-0.197,0.542-0.647,0.939-1.205,1.063c-1.093,0.244-2.362,1.054-2.732,2.314	c-0.084,0.285-0.288,0.517-0.561,0.635C31.273,30.972,31.139,31,31,31z M31,30v0.5V30C31,30,31,30,31,30z" opacity=".05"/><linearGradient id="OtuUA_gipPKk2Njp2Tfn7l" x1="28.828" x2="35.647" y1="20.843" y2="59.513" gradientUnits="userSpaceOnUse"><stop offset="0" stop-color="#ffeb3b"/><stop offset="1" stop-color="#fbc02d"/></linearGradient><path fill="url(#OtuUA_gipPKk2Njp2Tfn7l)" d="M33,26l-0.508-2.586	C31.043,22.137,29.344,21,28.125,21h0C26.951,21,26,21.951,26,23.125C26,24,27,28,31,30C32,27,33,26,33,26z"/><linearGradient id="OtuUA_gipPKk2Njp2Tfn7m" x1="32.179" x2="35.715" y1="23.47" y2="43.523" gradientUnits="userSpaceOnUse"><stop offset="0" stop-color="#6d6d6d"/><stop offset=".236" stop-color="#626262"/><stop offset=".987" stop-color="#464646"/><stop offset=".998" stop-color="#454545"/></linearGradient><path fill="url(#OtuUA_gipPKk2Njp2Tfn7m)" d="M34.851,25.875	c-0.526-0.685-1.387-1.604-2.358-2.461c-0.45,2.14-1.095,4.2-1.492,6.586c0.496-1.685,2.128-2.708,3.475-3.008	C34.969,26.882,35.159,26.276,34.851,25.875z"/></svg>