<svg xmlns="http://www.w3.org/2000/svg" viewBox="0 0 48 48"><linearGradient id="LU86RimpUfLC0NmE_BftSa" x1="9.858" x2="38.387" y1="-27.858" y2="-56.387" gradientTransform="matrix(1 0 0 -1 0 -18)" gradientUnits="userSpaceOnUse"><stop offset="0" stop-color="#00bffe"/><stop offset="1" stop-color="#1d55c4"/></linearGradient><path fill="url(#LU86RimpUfLC0NmE_BftSa)" d="M44,24c0,11.045-8.955,20-20,20S4,35.045,4,24S12.955,4,24,4S44,12.955,44,24z"/><linearGradient id="LU86RimpUfLC0NmE_BftSb" x1="5.465" x2="28.635" y1="9.038" y2="48.549" gradientUnits="userSpaceOnUse"><stop offset="0" stop-color="#84e1fe"/><stop offset="1" stop-color="#167cf7"/></linearGradient><path fill="url(#LU86RimpUfLC0NmE_BftSb)" d="M4.771,18.553l0.103-0.064c0.158-0.079,0.362-0.057,0.498,0.068l1.324,0.973	c0.215,0.124,0.486-0.011,0.509-0.26l1.29-6.55c0.023-0.215,0.181-0.385,0.373-0.453l1.154-0.385	c0.17-0.057,0.305-0.192,0.362-0.351l1.024-3.06C8.252,11.033,5.906,14.537,4.771,18.553z"/><linearGradient id="LU86RimpUfLC0NmE_BftSc" x1="13.932" x2="37.102" y1="4.072" y2="43.583" gradientUnits="userSpaceOnUse"><stop offset="0" stop-color="#84e1fe"/><stop offset="1" stop-color="#167cf7"/></linearGradient><path fill="url(#LU86RimpUfLC0NmE_BftSc)" d="M23.029,17.596c0,0-0.793-1.803-1.057-2.404c-0.025-0.057-0.062-0.141-0.204-0.141	c-0.248,0-0.46,0-0.566,0c-0.424,0-0.446,0.337-0.424,0.424c0.072,0.3,0.265,0.712,0.257,0.99c-0.002,0.072-0.04,0.216-0.069,0.283	c-0.017,0.038-0.076,0.103-0.094,0.141c-0.033,0.067-0.094,0.208-0.094,0.283c0,0.317,0,0.872,0,1.131	c0,0.141,0.141,0.141,0.141,0.141s0.707,0,0.848,0s0.283-0.088,0.283-0.088s0.755-0.442,0.896-0.531	c0.07-0.044,0.092-0.102,0.094-0.148C23.044,17.631,23.029,17.596,23.029,17.596z"/><linearGradient id="LU86RimpUfLC0NmE_BftSd" x1="13.494" x2="36.664" y1="4.33" y2="43.84" gradientUnits="userSpaceOnUse"><stop offset="0" stop-color="#84e1fe"/><stop offset="1" stop-color="#167cf7"/></linearGradient><path fill="url(#LU86RimpUfLC0NmE_BftSd)" d="M12.905,11.227c-0.057,0.192-0.057,0.385-0.023,0.577c0.011,0.068,0.407,1.934,0.407,1.934	c0.068,0.204,0.339,0.249,0.475,0.079l1.199-1.968c0.102-0.124,0.249-0.192,0.407-0.192h1.448c0.192,0,0.464-0.091,0.566-0.249	l3.349-4.231c0.079-0.113,0.045-0.271-0.079-0.328c-0.373-0.181-1.233-0.486-1.708-0.713C18.754,6.057,18.585,6,18.517,6	c-0.102,0-0.271,0.079-0.43,0.136c-0.26,0.113-0.52,0.215-0.52,0.215c-0.113,0.045-0.249,0.045-0.362,0l-0.894-0.328	C16.277,6.011,16.231,6,16.198,6h-0.871c-0.521,0.251-1.028,0.523-1.522,0.817L12.905,11.227z"/><linearGradient id="LU86RimpUfLC0NmE_BftSe" x1="16.478" x2="39.648" y1="2.58" y2="42.09" gradientUnits="userSpaceOnUse"><stop offset="0" stop-color="#84e1fe"/><stop offset="1" stop-color="#167cf7"/></linearGradient><path fill="url(#LU86RimpUfLC0NmE_BftSe)" d="M34.883,7.234L34.4,8.217c-0.068,0.158-0.057,0.328,0.011,0.475l1.018,1.267	c0.136,0.283,0.023,0.634-0.271,0.769l-1.041,0.52c-0.113,0.057-0.204,0.147-0.26,0.26c0,0-0.249,0.837-0.441,1.391	c-0.091,0.26-0.147,0.453-0.192,0.453s-0.238-0.238-0.407-0.419c-0.396-0.441-0.928-1.063-0.95-1.097	c-0.113-0.113-0.26-0.181-0.419-0.181h-2.444c-0.147,0-0.294,0.057-0.396,0.158l-3.134,2.579c-0.226,0.215-0.226,0.577-0.011,0.792	l1.256,1.98c0.113,0.158,0.328,0.192,0.487,0.09l1.335-0.962c0.102-0.068,0.17-0.181,0.204-0.305l0.351-1.923	c0,0,0.023-0.147,0.17-0.147h0.701c0.204,0,0.294,0.091,0.294,0.091l1.686,1.572c0.204,0.215,0.192,0.554-0.011,0.769l-3.213,3.077	c-0.102,0.102-0.305,0.136-0.453,0.147c0,0-0.407,0-0.554,0c-0.158,0-0.226-0.136-0.226-0.136l-0.271-0.453	c0,0-0.045-0.091-0.181-0.181c-0.079-0.057-0.464-0.26-0.6-0.351c-0.045-0.023-0.091-0.011-0.113,0.023	c-0.181,0.249-0.815,1.211-1.018,1.482c-0.023,0.045-0.102,0.091-0.136,0.113c-0.294,0.124-0.656,0.271-0.792,0.328	c-0.045,0.011-0.113,0.034-0.158,0.034c-0.611,0.068-1.957,0.226-2.251,0.26c-0.057,0.011-0.057,0.079-0.057,0.079s0,0.373,0,0.441	c0,0.057,0.045,0.079,0.045,0.079s0.781,0.407,1.052,0.543c0.023,0.011,0.034,0.023,0.034,0.045c0,0.023-0.011,0.057-0.023,0.068	c-0.136,0.271-0.679,0.882-0.679,0.882c-0.113,0.102-0.283,0.136-0.43,0.136h-1.697c-0.317,0-0.566,0.283-0.566,0.566	c0,0.588,0.453,1.72,0.645,2.274c0.113,0.305,0.317,0.554,0.622,0.554h1.165c0.147,0,0.283-0.057,0.396-0.17l1.55-1.935	c0.079-0.057,0.192-0.147,0.271-0.204c0,0,2.059-0.826,2.704-1.075c0.011-0.011,0.023-0.011,0.034-0.011	c0.011,0,0.034,0.011,0.045,0.034c0.17,0.283,0.362,0.611,0.453,0.747c0.023,0.045,0.034,0.045,0.034,0.17v0.679	c0,0.068-0.034,0.102-0.034,0.102l-0.464,0.464c0,0-0.034,0.023-0.034,0.045c0,0.011,0.011,0.023,0.057,0.023h1.459	c0.079,0,0.147-0.068,0.147-0.147c0,0,0-1.222,0-1.403c0-0.192,0.147-0.294,0.147-0.294s0.272-0.317,0.339-0.396	c0.079-0.068,0.102,0.023,0.102,0.023l0.52,1.595c0.011,0.034,0.045,0.068,0.079,0.079c0,0,0.882,0.475,0.984,0.532	c0.023,0.011,0.034,0.011,0.045,0.011c0.034,0,0.045-0.034,0.045-0.057c0-0.011,0-0.023,0-0.023s0-0.882,0-1.052	c0-0.17,0.079-0.238,0.181-0.283c0.204-0.079,0.554-0.204,0.747-0.294c0.057-0.023,0.215-0.057,0.249-0.249	c0.079-0.362,0.238-1.278,0.339-1.81c0.011-0.091,0.102-0.249,0.192-0.305c0.204-0.124,0.554-0.339,0.747-0.43	c0.158-0.079,0.283,0.068,0.283,0.068s0.475,0.826,0.566,0.973c0.034,0.045,0.068,0.068,0.102,0.068	c0.057,0,0.102-0.045,0.124-0.068c0.192-0.192,0.634-0.769,0.86-1.018c0.034-0.034,0.079-0.045,0.113-0.045s0.068,0.023,0.079,0.045	c0.294,0.577,0.86,1.686,1.052,2.082c0.023,0.045,0.023,0.068,0.023,0.091c-0.011,0.045-0.068,0.045-0.102,0.045h-1.177	c-0.181,0-0.362,0.057-0.509,0.158l-2.591,1.731c0,0-0.147,0.091-0.147,0.238v0.701c0,0.136,0.147,0.249,0.147,0.249l0.283,0.215	c0,0,0.136,0.102,0.272,0.102c0.147,0,1.957-0.136,1.957-0.136c0.023,0,0.034-0.011,0.057-0.023c0,0,1.527-0.871,1.674-0.95	c0.136-0.079,0.136,0.068,0.136,0.068v1.38c0,0.057-0.023,0.102-0.068,0.124l-2.172,1.222c-0.011,0-0.034,0.011-0.057,0.011	l-5.057,0.566h-0.283l-2.41-0.996c0,0-0.136-0.057-0.136-0.192v-1.007c0-0.091-0.113-0.068-0.147-0.057	c-0.498,0.305-1.437,0.95-1.652,1.086c-0.023,0.023-0.057,0.034-0.091,0.034h-1.471c-0.023,0-0.045,0-0.057,0.011l-3.484,1.38	c-0.158,0.068-0.294,0.181-0.362,0.339l-1.708,3.439c-0.057,0.09-0.079,0.192-0.079,0.294c0,0.068,0.011,0.136,0.023,0.192	l0.803,3.269c0.068,0.238,0.238,0.43,0.464,0.509l2.364,0.713c0.147,0.045,0.305,0.045,0.441,0l2.41-1.063	c0.17-0.057,0.351-0.034,0.498,0.057c0,0,0.475,0.464,0.634,0.622c0.147,0.136,0.283,0.204,0.283,0.204s0.905,0.249,0.973,0.283	c0.147,0.068,0.158,0.147,0.158,0.215v1.833c0,0.091,0.034,0.181,0.102,0.249c0.204,0.204,0.747,0.656,0.973,0.894	c0.079,0.079,0.079,0.204,0,0.271c0,0-0.464,0.713-0.554,0.849c-0.091,0.147-0.124,0.147,0.034,0.283	c0.203,0.194,0.672,0.723,1.116,1.237c2.519-0.526,4.862-1.528,6.935-2.905l0.298-1.398c0-0.023,0.023-0.045,0.034-0.068	l1.505-1.425c0.124-0.147,1.278-0.735,1.867-1.369c0.701-0.792,1.131-1.686,1.256-2.048c0.034-0.091,0-0.102-0.091-0.045	c-0.464,0.283-1.968,1.097-2.444,1.097c-0.419,0-0.475-0.26-0.566-0.453c0-0.011-0.577-2.127-0.984-3.643	c-0.26-0.928-0.43-1.527-0.43-1.561c0-0.057,0.407-0.792,0.566-1.086c0.023-0.045,0.045-0.045,0.068-0.045	c0.034,0.011,0.057,0.034,0.068,0.045c0.566,1.516,1.618,4.197,1.618,4.197c0.091,0.192,0.226,0.283,0.373,0.283	c0.566,0,3.711-2.297,4.797-3.247c0.07-0.063,0.129-0.118,0.181-0.172c0.078-0.262,0.137-0.531,0.205-0.797	c-0.084-0.228-0.273-0.31-0.386-0.31h-1.55c-0.192,0-0.351-0.091-0.453-0.249c0,0-0.962-1.165-0.962-1.312	c0-0.136,0.848-0.701,0.996-0.701c0.136,0,0.984,0.701,1.267,0.701c0.177,0,0.977-0.284,1.542-0.49C43.925,25.73,44,24.875,44,24	C44,16.972,40.366,10.801,34.883,7.234z"/><linearGradient id="LU86RimpUfLC0NmE_BftSf" x1="12.384" x2="35.554" y1="4.981" y2="44.491" gradientUnits="userSpaceOnUse"><stop offset="0" stop-color="#84e1fe"/><stop offset="1" stop-color="#167cf7"/></linearGradient><path fill="url(#LU86RimpUfLC0NmE_BftSf)" d="M19.749,16.209c0.111-0.026,0.351-0.045,0.455,0c0.045,0.019,0.114,0.098,0.131,0.144	c0.075,0.205-0.037,0.658-0.123,0.86c-0.025,0.059-0.107,0.164-0.16,0.204c-0.226,0.174-0.768,0.459-1.06,0.463	c-0.078,0.001-0.227-0.062-0.299-0.094c-0.045-0.02-0.135-0.078-0.156-0.121c-0.033-0.067-0.023-0.224,0-0.294	c0.105-0.326,0.614-0.861,0.908-1.058C19.512,16.268,19.671,16.227,19.749,16.209z"/></svg>