<svg xmlns="http://www.w3.org/2000/svg" viewBox="0 0 48 48"><path fill="#199be2" d="M35.983,32.448l-3.536,3.536l7.87,7.87c0.195,0.195,0.512,0.195,0.707,0l2.828-2.828	c0.195-0.195,0.195-0.512,0-0.707L35.983,32.448z"/><radialGradient id="7I9ckTYFrcoF5VYjRG_OGa" cx="20.024" cy="20.096" r="19.604" gradientUnits="userSpaceOnUse"><stop offset=".693" stop-color="#006185"/><stop offset=".921" stop-color="#35c1f1"/></radialGradient><polygon fill="url(#7I9ckTYFrcoF5VYjRG_OGa)" points="31.601,28.065 28.065,31.601 32.448,35.983 35.983,32.448"/><linearGradient id="7I9ckTYFrcoF5VYjRG_OGb" x1="8.911" x2="31.339" y1="8.911" y2="31.339" gradientUnits="userSpaceOnUse"><stop offset="0" stop-color="#a3ffff"/><stop offset=".223" stop-color="#9dfbff"/><stop offset=".53" stop-color="#8bf1ff"/><stop offset=".885" stop-color="#6ee0ff"/><stop offset="1" stop-color="#63daff"/></linearGradient><circle cx="20" cy="20" r="16" fill="url(#7I9ckTYFrcoF5VYjRG_OGb)"/><path fill="#0d61a9" d="M26.298,24.022c0-6.168-9.107-4.964-9.107-8.608c0-1.903,2.139-2.003,2.808-2.003	c1.607,0,3.159,0.431,4.342,0.986c0.373,0.175,0.801-0.084,0.801-0.495v-1.795c0-0.602-0.227-0.959-0.588-1.1	c-0.811-0.315-1.976-0.545-3.698-0.602V8.429C20.857,8.192,20.665,8,20.428,8h-0.857c-0.237,0-0.429,0.192-0.429,0.429v2.007	c-2.671,0.261-5.441,1.769-5.441,5.276c0,6.394,9.106,5.126,9.106,8.494c0,1.059-0.676,1.971-2.808,1.971	c-2.143,0-4.111-0.748-5.201-1.306C14.432,24.683,14,24.955,14,25.367v2.043c0,0.392,0.236,0.74,0.597,0.894	c1.291,0.549,3.023,0.964,4.546,1.085v2.183c0,0.237,0.192,0.429,0.429,0.429h0.857c0.237,0,0.429-0.192,0.429-0.429v-2.178	C24.853,29.059,26.298,26.384,26.298,24.022z"/></svg>