<svg xmlns="http://www.w3.org/2000/svg" viewBox="0 0 48 48"><linearGradient id="rd36FHlNiH0HCM2F33aeba" x1="24" x2="24" y1="-78.751" y2="-78.941" gradientUnits="userSpaceOnUse"><stop offset="0" stop-color="#3079d6"/><stop offset="1" stop-color="#297cd2"/></linearGradient><polygon fill="url(#rd36FHlNiH0HCM2F33aeba)" points="27,44 21,44 23,16 25,16"/><path fill="#35c1f1" d="M25.051,3h-2.102c-0.532,0-0.971,0.416-0.999,0.947L21,22h6L26.05,3.947	C26.022,3.416,25.583,3,25.051,3z"/><path fill="#35c1f1" d="M7.02,30.59l1.051,1.821c0.266,0.461,0.846,0.632,1.32,0.391L25.5,24.598l-3-5.196L7.341,29.251	C6.895,29.541,6.754,30.129,7.02,30.59z"/><path fill="#35c1f1" d="M39.929,32.41l1.051-1.821c0.266-0.461,0.125-1.049-0.321-1.339L25.5,19.402l-3,5.196l16.109,8.203	C39.083,33.043,39.663,32.871,39.929,32.41z"/><path fill="#50e6ff" d="M28,22c0,2.209-1.791,4-4,4s-4-1.791-4-4s1.791-4,4-4S28,19.791,28,22z"/><path fill="#35c1f1" d="M26,22c0,1.104-0.896,2-2,2s-2-0.896-2-2s0.896-2,2-2S26,20.896,26,22z"/><path fill="#35c1f1" d="M28,44h-8v-3c0-0.552,0.448-1,1-1h6c0.552,0,1,0.448,1,1V44z"/></svg>