<svg xmlns="http://www.w3.org/2000/svg" data-name="Слой 1" viewBox="0 0 48 48"><defs><linearGradient id="7JUGy1yZGcezf7Bit5cIza" x1="24" x2="24" y1="-1232.937" y2="-1232.794" data-name="Безымянный градиент 130" gradientTransform="matrix(1 0 0 -1 0 -1284)" gradientUnits="userSpaceOnUse"><stop offset="0" stop-color="#3079d6"/><stop offset="1" stop-color="#297cd2"/></linearGradient><linearGradient id="7JUGy1yZGcezf7Bit5cIzb" x1="24" x2="24" y1="-5794.971" y2="-5800.996" data-name="Безымянный градиент 123" gradientTransform="matrix(1 0 0 -1 0 -5758)" gradientUnits="userSpaceOnUse"><stop offset="0" stop-color="#2aa4f4"/><stop offset="1" stop-color="#007ad9"/></linearGradient></defs><polygon fill="url(#7JUGy1yZGcezf7Bit5cIza)" points="27 37 24 41 21 37 23 20 25 20 27 37"/><path fill="#35c1f1" d="M25.051,2H22.949a1,1,0,0,0-.999.947L21,21h6L26.05,2.947A1,1,0,0,0,25.051,2Z"/><path fill="#35c1f1" d="M7.02,29.59l1.051,1.821a1.00015,1.00015,0,0,0,1.32.391L25.5,23.598l-3-5.196L7.341,28.251A1.00038,1.00038,0,0,0,7.02,29.59Z"/><path fill="#35c1f1" d="M39.929,31.41l1.051-1.821a1.00038,1.00038,0,0,0-.321-1.339L25.5,18.402l-3,5.196,16.109,8.203A.9992.9992,0,0,0,39.929,31.41Z"/><path fill="#50e6ff" d="M28,21a4,4,0,1,1-4-4A4.00018,4.00018,0,0,1,28,21Z"/><path fill="#35c1f1" d="M26,21a2,2,0,1,1-2-2A2.00073,2.00073,0,0,1,26,21Z"/><path fill="url(#7JUGy1yZGcezf7Bit5cIzb)" d="M42,38a5.60654,5.60654,0,0,1-3-1,5.60654,5.60654,0,0,1-3,1,5.60654,5.60654,0,0,1-3-1,5.60654,5.60654,0,0,1-3,1,5.60654,5.60654,0,0,1-3-1,5.60654,5.60654,0,0,1-3,1,5.60654,5.60654,0,0,1-3-1,5.60654,5.60654,0,0,1-3,1,5.60654,5.60654,0,0,1-3-1,5.60654,5.60654,0,0,1-3,1,5.60654,5.60654,0,0,1-3-1,5.60654,5.60654,0,0,1-3,1,5.60654,5.60654,0,0,1-3-1v4a1.99945,1.99945,0,0,0,2,2H43a1.99945,1.99945,0,0,0,2-2V37A5.60654,5.60654,0,0,1,42,38Z"/></svg>