<svg xmlns="http://www.w3.org/2000/svg" viewBox="0 0 48 48"><linearGradient id="P~btow4ArF887tlB6cc7Ia" x1="-104.314" x2="-96.314" y1="-122.207" y2="-122.207" gradientTransform="rotate(-90 23.792 -111.887)" gradientUnits="userSpaceOnUse"><stop offset="0" stop-color="#7819a2"/><stop offset="1" stop-color="#771aa9"/></linearGradient><path fill="url(#P~btow4ArF887tlB6cc7Ia)" d="M10.645,9.39c1.561-1.561,4.094-1.56,5.655,0.002c1.563,1.563,1.563,4.095,0.002,5.655 c-1.564,1.563-4.096,1.564-5.658,0.001C9.081,13.488,9.081,10.954,10.645,9.39z"/><linearGradient id="P~btow4ArF887tlB6cc7Ib" x1="-125.237" x2="-119.234" y1="-122.073" y2="-122.073" gradientTransform="rotate(-90 23.792 -111.887)" gradientUnits="userSpaceOnUse"><stop offset="0" stop-color="#912fbd"/><stop offset="1" stop-color="#9332bf"/></linearGradient><path fill="url(#P~btow4ArF887tlB6cc7Ib)" d="M10.606,34.141c-0.001,1.657,1.341,3.001,2.998,3.002s3.001-1.341,3.002-2.998 c0-0.001,0-0.002,0-0.003c0.001-1.657-1.341-3.001-2.998-3.002c-1.657-0.001-3.001,1.341-3.002,2.998 C10.606,34.139,10.606,34.14,10.606,34.141z"/><linearGradient id="P~btow4ArF887tlB6cc7Ic" x1="-129.778" x2="-123.778" y1="-111.191" y2="-111.191" gradientTransform="rotate(-90 23.792 -111.887)" gradientUnits="userSpaceOnUse"><stop offset="0" stop-color="#912fbd"/><stop offset="1" stop-color="#9332bf"/></linearGradient><path fill="url(#P~btow4ArF887tlB6cc7Ic)" d="M21.488,38.683c0,1.657,1.343,3,3,3s3-1.343,3-3c0-1.657-1.343-3-3-3 S21.488,37.026,21.488,38.683z"/><linearGradient id="P~btow4ArF887tlB6cc7Id" x1="-125.236" x2="-119.235" y1="-100.287" y2="-100.287" gradientTransform="rotate(-90 23.792 -111.887)" gradientUnits="userSpaceOnUse"><stop offset="0" stop-color="#ae4cd5"/><stop offset="1" stop-color="#ac4ad5"/></linearGradient><path fill="url(#P~btow4ArF887tlB6cc7Id)" d="M33.271,32.018c1.17-1.17,3.07-1.17,4.243,0.003c1.17,1.17,1.17,3.07,0,4.24 c-1.174,1.174-3.072,1.173-4.243,0.002C32.099,35.092,32.098,33.192,33.271,32.018z"/><linearGradient id="P~btow4ArF887tlB6cc7Ie" x1="-102.677" x2="-98.679" y1="-99.79" y2="-99.79" gradientTransform="rotate(-90 23.792 -111.887)" gradientUnits="userSpaceOnUse"><stop offset="0" stop-color="#c965eb"/><stop offset="1" stop-color="#c767e5"/></linearGradient><path fill="url(#P~btow4ArF887tlB6cc7Ie)" d="M34.475,11.169c0.778-0.779,2.048-0.781,2.829,0s0.778,2.049,0,2.828 c-0.782,0.781-2.047,0.781-2.829,0C33.694,13.216,33.692,11.95,34.475,11.169z"/><linearGradient id="P~btow4ArF887tlB6cc7If" x1="-97.411" x2="-94.412" y1="-111.171" y2="-111.171" gradientTransform="rotate(-90 23.792 -111.887)" gradientUnits="userSpaceOnUse"><stop offset="0" stop-color="#c965eb"/><stop offset="1" stop-color="#c767e5"/></linearGradient><path fill="url(#P~btow4ArF887tlB6cc7If)" d="M23.448,6.758c0.586-0.586,1.535-0.589,2.123-0.002c0.582,0.583,0.584,1.537-0.002,2.123 S24.032,9.46,23.45,8.877C22.862,8.29,22.862,7.342,23.448,6.758z"/><linearGradient id="P~btow4ArF887tlB6cc7Ig" x1="-113.834" x2="-108.834" y1="-95.747" y2="-95.747" gradientTransform="rotate(-90 23.792 -111.887)" gradientUnits="userSpaceOnUse"><stop offset="0" stop-color="#ae4cd5"/><stop offset="1" stop-color="#ac4ad5"/></linearGradient><circle cx="39.932" cy="23.239" r="2.5" fill="url(#P~btow4ArF887tlB6cc7Ig)"/><linearGradient id="P~btow4ArF887tlB6cc7Ih" x1="-114.853" x2="-107.854" y1="-126.612" y2="-126.612" gradientTransform="rotate(-90 23.792 -111.887)" gradientUnits="userSpaceOnUse"><stop offset="0" stop-color="#912fbd"/><stop offset="1" stop-color="#9332bf"/></linearGradient><path fill="url(#P~btow4ArF887tlB6cc7Ih)" d="M6.591,20.786c1.369-1.368,3.583-1.369,4.951-0.001c1.365,1.365,1.367,3.583-0.002,4.951 C10.177,27.1,7.958,27.1,6.593,25.734C5.224,24.367,5.227,22.15,6.591,20.786z"/></svg>