<svg xmlns="http://www.w3.org/2000/svg" viewBox="0 0 48 48"><path fill="#e92d3b" d="M44,39H4c-2.209,0-4-1.791-4-4V13c0-2.209,1.791-4,4-4h40c2.209,0,4,1.791,4,4v22	C48,37.209,46.209,39,44,39z"/><path d="M5,36c-1.654,0-3-1.346-3-3V15c0-1.654,1.346-3,3-3h18c1.654,0,3,1.346,3,3v18c0,1.654-1.346,3-3,3H5	z" opacity=".05"/><path d="M5,35.5c-1.378,0-2.5-1.122-2.5-2.5V15c0-1.378,1.122-2.5,2.5-2.5h18c1.378,0,2.5,1.122,2.5,2.5v18	c0,1.378-1.122,2.5-2.5,2.5H5z" opacity=".07"/><path fill="#f9f9f9" d="M23,35H5c-1.105,0-2-0.895-2-2V15c0-1.105,0.895-2,2-2h18c1.105,0,2,0.895,2,2v18	C25,34.105,24.105,35,23,35z"/></svg>