<svg xmlns="http://www.w3.org/2000/svg" viewBox="0 0 48 48"><linearGradient id="ZnMc62ZjicCIU0aMO6Mfwa" x1="31.606" x2="40" y1="13.46" y2="13.46" gradientUnits="userSpaceOnUse"><stop offset="0" stop-color="#787e85"/><stop offset=".056" stop-color="#7a8087"/><stop offset=".542" stop-color="#858d94"/><stop offset="1" stop-color="#899198"/></linearGradient><path fill="url(#ZnMc62ZjicCIU0aMO6Mfwa)" d="M32.394,17.919l-0.787-1.838l5.539-2.374C37.664,13.484,38,12.976,38,12.411 C38,11.633,37.367,11,36.59,11H32V9h4.59C38.47,9,40,10.53,40,12.411c0,1.366-0.812,2.597-2.067,3.135L32.394,17.919z"/><linearGradient id="ZnMc62ZjicCIU0aMO6Mfwb" x1="23.164" x2="25.586" y1="6.766" y2="29.171" gradientUnits="userSpaceOnUse"><stop offset="0" stop-color="#ccc"/><stop offset=".219" stop-color="#c7c8c8"/><stop offset=".478" stop-color="#b9bbbc"/><stop offset=".755" stop-color="#a1a5a9"/><stop offset="1" stop-color="#868d93"/></linearGradient><rect width="18" height="15" x="15" y="7" fill="url(#ZnMc62ZjicCIU0aMO6Mfwb)"/><linearGradient id="ZnMc62ZjicCIU0aMO6Mfwc" x1="24.902" x2="26.992" y1="3.454" y2="12.352" gradientUnits="userSpaceOnUse"><stop offset="0" stop-color="#899198"/><stop offset="1" stop-color="#787e85"/></linearGradient><path fill="url(#ZnMc62ZjicCIU0aMO6Mfwc)" d="M37,5H14c-0.552,0-1,0.448-1,1v0c0,0.552,0.448,1,1,1h23c0.552,0,1-0.448,1-1v0 C38,5.448,37.552,5,37,5z"/><linearGradient id="ZnMc62ZjicCIU0aMO6Mfwd" x1="23.356" x2="25.311" y1="18.553" y2="27.519" gradientUnits="userSpaceOnUse"><stop offset="0" stop-color="#899198"/><stop offset="1" stop-color="#787e85"/></linearGradient><path fill="url(#ZnMc62ZjicCIU0aMO6Mfwd)" d="M37.476,21H10.524c-0.552,0-0.728,0.711-0.234,0.947l1.589,0.76 C12.283,22.9,12.725,23,13.173,23h21.655c0.448,0,0.89-0.1,1.294-0.293l1.589-0.76C38.204,21.711,38.028,21,37.476,21z"/><linearGradient id="ZnMc62ZjicCIU0aMO6Mfwe" x1="23.846" x2="24.149" y1="2.958" y2="6.97" gradientUnits="userSpaceOnUse"><stop offset="0" stop-color="#ccc"/><stop offset=".227" stop-color="#c8c8c8"/><stop offset=".476" stop-color="#babcbe"/><stop offset=".735" stop-color="#a5a8ac"/><stop offset=".999" stop-color="#868d93"/><stop offset="1" stop-color="#868d93"/></linearGradient><path fill="url(#ZnMc62ZjicCIU0aMO6Mfwe)" d="M15,5h18l-4.464-1.785C28.182,3.073,27.804,3,27.422,3h-6.845 c-0.382,0-0.76,0.073-1.114,0.215L15,5z"/><linearGradient id="ZnMc62ZjicCIU0aMO6Mfwf" x1="23.997" x2="24.401" y1="35.952" y2="42.424" gradientUnits="userSpaceOnUse"><stop offset="0" stop-color="#fff0ce"/><stop offset="1" stop-color="#ffda94"/></linearGradient><polygon fill="url(#ZnMc62ZjicCIU0aMO6Mfwf)" points="32.257,43 33.157,36 14.843,36 15.743,43"/><linearGradient id="ZnMc62ZjicCIU0aMO6Mfwg" x1="23.942" x2="24.649" y1="28.433" y2="35.309" gradientUnits="userSpaceOnUse"><stop offset="0" stop-color="#a34f27"/><stop offset=".587" stop-color="#8b3817"/><stop offset="1" stop-color="#802d10"/></linearGradient><polygon fill="url(#ZnMc62ZjicCIU0aMO6Mfwg)" points="33.157,36 34.056,29 13.944,29 14.843,36"/><linearGradient id="ZnMc62ZjicCIU0aMO6Mfwh" x1="23.849" x2="26.681" y1="22.304" y2="43.439" gradientUnits="userSpaceOnUse"><stop offset="0" stop-color="#32bdef"/><stop offset="1" stop-color="#1ea2e4"/></linearGradient><path fill="url(#ZnMc62ZjicCIU0aMO6Mfwh)" d="M13.944,29l-0.771-6h21.655l-0.771,6H13.944z M15.743,43l0.145,1.127 C15.952,44.626,16.377,45,16.88,45H31.12c0.503,0,0.928-0.374,0.992-0.873L32.257,43H15.743z"/></svg>