<svg xmlns="http://www.w3.org/2000/svg" data-name="Слой 1" viewBox="0 0 48 48"><defs><linearGradient id="8t4D1IysdIbAybTZcBAEja" x1="32.488" x2="36.78" y1="3.91" y2="15.701" data-name="Безымянный градиент 147" gradientUnits="userSpaceOnUse"><stop offset="0" stop-color="#dfe9f2"/><stop offset=".391" stop-color="#d6e0e9"/><stop offset="1" stop-color="#bfc8d1"/></linearGradient></defs><path fill="#64717c" d="M32,24V43H5a2.00591,2.00591,0,0,1-2-2V30.84a3.87822,3.87822,0,0,1,.34-1.61l3.11-7.12,2.63-6.02a1.01049,1.01049,0,0,1,1.84,0l.42.97a.50024.50024,0,0,0,.92-.01l3.88-9.12a1.99986,1.99986,0,0,1,3.62-.13l4.2,8.22a1.00534,1.00534,0,0,0,.58.49005l2.89.97a3.96831,3.96831,0,0,1,2.31,2Z"/><path fill="#50e6ff" d="M31.04,22.08,29,24l-2.58579-2.58579a2,2,0,0,0-2.82842,0l-3.32,3.32a2,2,0,0,1-2.6636.14752L15.20987,22.9679a2,2,0,0,0-2.44939-.03826l-1.51,1.1325a2,2,0,0,1-2.46268-.049L6.45,22.11l2.63-6.02a1.01049,1.01049,0,0,1,1.84,0l.42.97a.50024.50024,0,0,0,.92-.01l3.88-9.12a1.99986,1.99986,0,0,1,3.62-.13l4.2,8.22a1.00534,1.00534,0,0,0,.58.49005l2.89.97a3.96831,3.96831,0,0,1,2.31,2Z"/><path fill="#889097" d="M45,34.24V41a2.00591,2.00591,0,0,1-2,2H17L27.2,26.2l5.09-8.38a1.99492,1.99492,0,0,1,3.42,0L40.8,26.2l3.62,5.96A4.00328,4.00328,0,0,1,45,34.24Z"/><path fill="#50e6ff" d="M40.8,26.2l-1.38578,1.38578a2,2,0,0,1-2.82842,0l-1.17158-1.17158a2,2,0,0,0-2.82842,0l-1.17158,1.17158a2,2,0,0,1-2.82842,0L27.2,26.2l5.09-8.38a1.99492,1.99492,0,0,1,3.42,0Z"/><path d="M30.17,20.34l-.26-.53-3.56,5.87-10.2,16.8-.32.52H17L27.2,26.2l3.24-5.33Z" opacity=".05"/><path d="M30.17,20.34l-3.4,5.6-10.2,16.8-.16.26H17L27.2,26.2l3.24-5.33Z" opacity=".07"/><path fill="url(#8t4D1IysdIbAybTZcBAEja)" d="M40,9.20958a2.76945,2.76945,0,0,0-2.35714-2.75023V6.43507A2.12168,2.12168,0,0,0,37.25,6.40319a1.4586,1.4586,0,0,0-.26716.016A3.40651,3.40651,0,0,0,34.225,5a3.44214,3.44214,0,0,0-3.3,2.54327A2.23965,2.23965,0,0,0,31.2,12h6.05a1.17125,1.17125,0,0,0,.2357-.016l.00125-.00827A2.76522,2.76522,0,0,0,40,9.20958Z"/></svg>