<svg xmlns="http://www.w3.org/2000/svg" viewBox="0 0 48 48"><radialGradient id="zC~RzLglxkjVPGj4sOrjza" cx="24.209" cy="18.594" r="19.891" gradientTransform="matrix(1 0 0 -1 0 48)" gradientUnits="userSpaceOnUse"><stop offset=".874" stop-color="#92a3b0"/><stop offset=".904" stop-color="#a1b3c2"/><stop offset=".933" stop-color="#b2c6d6"/></radialGradient><path fill="url(#zC~RzLglxkjVPGj4sOrjza)" d="M36.35,10h-4.3C30.58,7.04,27.53,5,24,5s-6.59,2.04-8.06,5c-0.46,0.92-0.77,1.93-0.88,3	C15.02,13.33,15,13.66,15,14v6h-4v-6c0-0.34,0.01-0.67,0.05-1c0.07-1.04,0.27-2.04,0.58-3C13.31,4.78,18.21,1,24,1	S34.66,4.78,36.35,10z"/><circle cx="24" cy="28" r="16" fill="#e3a600"/><circle cx="24" cy="28" r="12" fill="#edbe00"/><linearGradient id="zC~RzLglxkjVPGj4sOrjzb" x1="24" x2="24" y1="-339.627" y2="-347.845" gradientTransform="translate(0 374)" gradientUnits="userSpaceOnUse"><stop offset="0" stop-color="#4b4b4b"/><stop offset="1" stop-color="#3b3b3b"/></linearGradient><path fill="url(#zC~RzLglxkjVPGj4sOrjzb)" d="M27,28c0-1.657-1.343-3-3-3s-3,1.343-3,3c0,1.304,0.837,2.403,2,2.816V34c0,0.552,0.448,1,1,1	s1-0.448,1-1v-3.184C26.163,30.403,27,29.304,27,28z"/></svg>