<svg xmlns="http://www.w3.org/2000/svg" viewBox="0 0 48 48"><path fill="#586169" d="M36.523,43H17.477c-0.707,0-1.191-0.715-0.928-1.371L18,38h18l1.451,3.629 C37.714,42.285,37.23,43,36.523,43z"/><linearGradient id="mzvegdh~ldTT09YYLz2U2a" x1="8.067" x2="24.165" y1="2.836" y2="36.122" gradientUnits="userSpaceOnUse"><stop offset="0" stop-color="#f44f5a"/><stop offset=".4" stop-color="#ee3d4a"/><stop offset="1" stop-color="#ba1035"/></linearGradient><path fill="url(#mzvegdh~ldTT09YYLz2U2a)" d="M21.937,20.75c0-3-1.937-4.75-5.049-5.394c2.002-1.337,3.985-3.776,2.736-7.106 C18.717,5.527,14.639,3.5,7.687,4.144C6.552,4.249,6.005,5.271,6.172,6.528c0,0,2.802,20.669,9.169,28.903l5.655,1.021L20,30 C19,26.426,21.937,23.75,21.937,20.75z"/><linearGradient id="mzvegdh~ldTT09YYLz2U2b" x1="28.165" x2="28.787" y1="18.106" y2="45.255" gradientUnits="userSpaceOnUse"><stop offset="0" stop-color="#f44f5a"/><stop offset=".4" stop-color="#ee3d4a"/><stop offset="1" stop-color="#ba1035"/></linearGradient><path fill="url(#mzvegdh~ldTT09YYLz2U2b)" d="M36.937,27.188C34.957,26.906,33.11,27.78,32,30c-1,2-3,2-5,2h-2c-0.552,0-1-0.448-1-1 c0-0.552,0.448-1,1-1h2.5c1.381,0,2.5-1.119,2.5-2.5v0c0-1.381-1.119-2.5-2.5-2.5H25c-2.846,0-5.661,0.552-9,5c-1.87,2.491-1,9,2,9 l18.385,0c1.52,0,5.385-1.273,5.615-5C42.289,29.309,39.331,27.528,36.937,27.188z"/></svg>