<svg xmlns="http://www.w3.org/2000/svg" viewBox="0 0 48 48"><path fill="#eb6773" d="M13.212,12.698c-0.525,0-1.058-0.114-1.573-0.349C10.036,11.622,9,9.915,9,8c0-0.553,0.448-1,1-1	s1,0.447,1,1c0,1.375,0.79,2.222,1.466,2.528c0.382,0.173,1.134,0.369,1.875-0.281c0.416-0.365,1.047-0.322,1.411,0.095	c0.364,0.415,0.322,1.047-0.094,1.411C14.945,12.377,14.089,12.698,13.212,12.698z"/><path fill="#eb6773" d="M27,10c-2.281,0-5-1.041-5-6c0-0.553,0.448-1,1-1s1,0.447,1,1c0,3.516,1.442,4,3,4	c0.552,0,1,0.447,1,1S27.552,10,27,10z"/><path fill="#eb6773" d="M9,27c-2.281,0-5-1.041-5-6c0-0.553,0.448-1,1-1s1,0.447,1,1c0,3.516,1.442,4,3,4	c0.552,0,1,0.447,1,1S9.552,27,9,27z"/><path fill="#eb6773" d="M33,37c-0.552,0-1-0.447-1-1s0.448-1,1-1c1.369,0,3-0.521,3-3c0-0.553,0.448-1,1-1s1,0.447,1,1	C38,35.687,35.417,37,33,37z"/><path fill="#eb6773" d="M40,19c-0.552,0-1-0.447-1-1s0.448-1,1-1c2.708,0,3-2.797,3-4c0-0.553,0.448-1,1-1s1,0.447,1,1	C45,15.768,43.69,19,40,19z"/><path fill="#b31523" d="M22.5,17c-0.646,0-1.241-0.419-1.436-1.069c-0.238-0.793,0.212-1.629,1.005-1.867	C25.817,12.938,26,10.577,26,6.5C26,5.672,26.671,5,27.5,5S29,5.672,29,6.5c0,3.839,0,8.616-6.069,10.437	C22.787,16.979,22.642,17,22.5,17z"/><path fill="#b31523" d="M21.5,17c-5.084,0-8.5-3.416-8.5-8.5C13,7.672,13.671,7,14.5,7S16,7.672,16,8.5	c0,3.444,2.056,5.5,5.5,5.5c0.829,0,1.5,0.672,1.5,1.5S22.329,17,21.5,17z"/><path fill="#b31523" d="M36.5,25c-4.556,0-7.5-3.337-7.5-8.5c0-0.828,0.671-1.5,1.5-1.5s1.5,0.672,1.5,1.5	c0,1.653,0.438,5.5,4.5,5.5c0.829,0,1.5,0.672,1.5,1.5S37.329,25,36.5,25z"/><path fill="#b31523" d="M12.501,31c-0.55,0-1.08-0.304-1.343-0.829c-0.37-0.741-0.07-1.642,0.671-2.013	C15,26.573,15,24.445,15,21.5c0-0.828,0.671-1.5,1.5-1.5s1.5,0.672,1.5,1.5c0,3.086,0,6.927-4.829,9.342	C12.956,30.949,12.727,31,12.501,31z"/><path fill="#b31523" d="M26.469,40.737c-1.336,0-2.646-0.313-3.725-0.941c-0.715-0.418-0.957-1.336-0.54-2.052	c0.417-0.715,1.335-0.959,2.052-0.54c1.299,0.758,3.367,0.703,4.812-0.125C30.35,36.342,31,35.138,31,33.5	c0-0.828,0.671-1.5,1.5-1.5s1.5,0.672,1.5,1.5c0,2.712-1.221,4.906-3.438,6.181C29.336,40.384,27.889,40.737,26.469,40.737z"/><linearGradient id="CsBwYMBhedb7E~lnyx3oma" x1="20.737" x2="20.737" y1="4.471" y2="43.929" gradientUnits="userSpaceOnUse"><stop offset="0" stop-color="#f44f5a"/><stop offset=".443" stop-color="#ee3d4a"/><stop offset="1" stop-color="#e52030"/></linearGradient><path fill="url(#CsBwYMBhedb7E~lnyx3oma)" d="M18.99,44l-4.028,0c-0.478,0-0.683-0.611-0.299-0.896c9.357-6.937,10.901-16.398,4.577-28.154	c-0.52-0.97-0.16-2.19,0.81-2.71c0.98-0.53,2.19-0.16,2.71,0.81c6.413,11.909,5.528,22.484-2.36,30.377	C20.029,43.798,19.515,44,18.99,44z"/><linearGradient id="CsBwYMBhedb7E~lnyx3omb" x1="17" x2="17" y1="4.471" y2="43.929" gradientUnits="userSpaceOnUse"><stop offset="0" stop-color="#f44f5a"/><stop offset=".443" stop-color="#ee3d4a"/><stop offset="1" stop-color="#e52030"/></linearGradient><path fill="url(#CsBwYMBhedb7E~lnyx3omb)" d="M19.749,35.816c-2.352,0-4.566-0.673-6.487-2.004C9.967,31.529,8,27.581,8,23.25	c0-1.104,0.896-2,2-2s2,0.896,2,2c0,3.02,1.323,5.739,3.54,7.275c2.151,1.489,4.834,1.7,7.758,0.602	c1.033-0.387,2.188,0.138,2.575,1.171c0.388,1.034-0.136,2.187-1.17,2.575C23.021,35.503,21.353,35.816,19.749,35.816z"/><linearGradient id="CsBwYMBhedb7E~lnyx3omc" x1="32" x2="32" y1="4.471" y2="43.929" gradientUnits="userSpaceOnUse"><stop offset="0" stop-color="#f44f5a"/><stop offset=".443" stop-color="#ee3d4a"/><stop offset="1" stop-color="#e52030"/></linearGradient><path fill="url(#CsBwYMBhedb7E~lnyx3omc)" d="M29.251,28.566c-1.604,0-3.272-0.313-4.954-0.943c-1.034-0.389-1.559-1.541-1.17-2.575	c0.387-1.034,1.538-1.556,2.575-1.171c2.925,1.098,5.607,0.887,7.758-0.602C35.677,21.739,37,19.02,37,16c0-1.104,0.896-2,2-2	s2,0.896,2,2c0,4.331-1.967,8.279-5.262,10.563C33.818,27.894,31.603,28.566,29.251,28.566z"/></svg>