<svg xmlns="http://www.w3.org/2000/svg" viewBox="0 0 48 48"><radialGradient id="5Y6sei1Qun9wQvxFoazUTa" cx="111.841" cy="425.305" r="25.29" gradientTransform="scale(-1 1) rotate(-45 -440.598 388.526)" gradientUnits="userSpaceOnUse"><stop offset=".752" stop-color="#076cb3"/><stop offset=".825" stop-color="#138cd2"/><stop offset=".865" stop-color="#1898de"/><stop offset="1" stop-color="#199ae0"/></radialGradient><path fill="url(#5Y6sei1Qun9wQvxFoazUTa)" d="M35.067,8.135L40,14.174v-9.54c0-0.528-0.639-0.792-1.013-0.419L35.067,8.135z"/><linearGradient id="5Y6sei1Qun9wQvxFoazUTb" x1="38.076" x2="42.341" y1="4.582" y2="28.768" gradientUnits="userSpaceOnUse"><stop offset="0" stop-color="#32bdef"/><stop offset="1" stop-color="#1ea2e4"/></linearGradient><path fill="url(#5Y6sei1Qun9wQvxFoazUTb)" d="M43,25h-3c-0.553,0-1-0.448-1-1s0.447-1,1-1h3c0.553,0,1,0.448,1,1S43.553,25,43,25z"/><linearGradient id="5Y6sei1Qun9wQvxFoazUTc" x1="36.578" x2="41.539" y1="3.989" y2="32.128" gradientUnits="userSpaceOnUse"><stop offset="0" stop-color="#32bdef"/><stop offset="1" stop-color="#1ea2e4"/></linearGradient><path fill="url(#5Y6sei1Qun9wQvxFoazUTc)" d="M42.351,29.92c-0.087,0-0.174-0.012-0.262-0.035l-2.89-0.78 c-0.533-0.144-0.849-0.693-0.705-1.226c0.145-0.534,0.692-0.849,1.227-0.705l2.89,0.78c0.533,0.144,0.849,0.693,0.705,1.226 C43.194,29.626,42.791,29.92,42.351,29.92z"/><linearGradient id="5Y6sei1Qun9wQvxFoazUTd" x1="34.031" x2="39.627" y1="3.69" y2="35.426" gradientUnits="userSpaceOnUse"><stop offset="0" stop-color="#32bdef"/><stop offset="1" stop-color="#1ea2e4"/></linearGradient><path fill="url(#5Y6sei1Qun9wQvxFoazUTd)" d="M40.449,34.5c-0.17,0-0.343-0.043-0.5-0.135l-2.59-1.5c-0.479-0.277-0.642-0.889-0.364-1.366 c0.276-0.479,0.89-0.642,1.366-0.364l2.59,1.5c0.479,0.277,0.642,0.889,0.364,1.366C41.13,34.321,40.794,34.5,40.449,34.5z"/><linearGradient id="5Y6sei1Qun9wQvxFoazUTe" x1="30.589" x2="36.807" y1="3.562" y2="38.824" gradientUnits="userSpaceOnUse"><stop offset="0" stop-color="#32bdef"/><stop offset="1" stop-color="#1ea2e4"/></linearGradient><path fill="url(#5Y6sei1Qun9wQvxFoazUTe)" d="M37.43,38.43c-0.256,0-0.512-0.098-0.707-0.293l-2.109-2.11 c-0.391-0.391-0.391-1.024,0-1.414c0.391-0.391,1.023-0.391,1.414,0l2.109,2.11c0.391,0.391,0.391,1.024,0,1.414 C37.941,38.333,37.686,38.43,37.43,38.43z"/><linearGradient id="5Y6sei1Qun9wQvxFoazUTf" x1="19.482" x2="26.572" y1="4.623" y2="44.836" gradientUnits="userSpaceOnUse"><stop offset="0" stop-color="#32bdef"/><stop offset="1" stop-color="#1ea2e4"/></linearGradient><path fill="url(#5Y6sei1Qun9wQvxFoazUTf)" d="M24,4C12.972,4,4,12.972,4,24s8.972,20,20,20c3.648,0,7.065-0.992,10.012-2.708 c0.469-0.273,0.615-0.886,0.343-1.357l-1.492-2.584c-0.271-0.469-0.874-0.652-1.342-0.379C29.309,38.261,26.74,39,24,39 c-8.271,0-15-6.729-15-15S15.729,9,24,9c2.909,0,5.612,0.851,7.91,2.293l-2.695,2.695C28.842,14.361,29.106,15,29.635,15l9.573,0 C39.645,15,40,14.645,40,14.208v-2.157C36.349,7.175,30.546,4,24,4z"/></svg>