<svg xmlns="http://www.w3.org/2000/svg" xmlns:xlink="http://www.w3.org/1999/xlink" data-name="Слой 1" viewBox="0 0 48 48"><defs><linearGradient id="3dTjfo_X6V5auP_mfFuCmb" x1="24" x2="24" y1="24.957" y2="33.637" data-name="Безымянный градиент 17" gradientUnits="userSpaceOnUse"><stop offset="0" stop-color="#a1aab3"/><stop offset="1" stop-color="#8f979e"/></linearGradient><linearGradient id="3dTjfo_X6V5auP_mfFuCma" x1="6.106" x2="10.499" y1="27.106" y2="31.499" data-name="Новый образец градиентной зал 3" gradientUnits="userSpaceOnUse"><stop offset="0" stop-color="#32bdef"/><stop offset="1" stop-color="#1ea2e4"/></linearGradient><linearGradient id="3dTjfo_X6V5auP_mfFuCmc" x1="38.418" x2="42.071" y1="27.418" y2="31.071" xlink:href="#3dTjfo_X6V5auP_mfFuCma"/><linearGradient id="3dTjfo_X6V5auP_mfFuCmd" x1="10.029" x2="22.345" y1="10.539" y2="44.377" xlink:href="#3dTjfo_X6V5auP_mfFuCmb"/><linearGradient id="3dTjfo_X6V5auP_mfFuCme" x1="23.563" x2="37.658" y1="6.171" y2="44.896" xlink:href="#3dTjfo_X6V5auP_mfFuCmb"/><linearGradient id="3dTjfo_X6V5auP_mfFuCmg" x1="21.163" x2="28.079" y1="7.207" y2="26.206" xlink:href="#3dTjfo_X6V5auP_mfFuCmb"/><radialGradient id="3dTjfo_X6V5auP_mfFuCmf" cx="24" cy="15.174" r="7.331" gradientUnits="userSpaceOnUse"><stop offset=".841" stop-opacity=".2"/><stop offset="1" stop-opacity="0"/></radialGradient></defs><path fill="#64717c" d="M10.999,43a.99991.99991,0,0,1-.90918-1.41357l10-22a.99972.99972,0,1,1,1.82032.82714l-10,22A.99892.99892,0,0,1,10.999,43Z"/><path fill="#64717c" d="M37.001,43a.99892.99892,0,0,1-.91114-.58643l-10-22a.99972.99972,0,1,1,1.82032-.82714l10,22A.99991.99991,0,0,1,37.001,43Z"/><rect width="32" height="2" x="8" y="28" fill="#64717c"/><rect width="4" height="6" x="22" y="26" fill="url(#3dTjfo_X6V5auP_mfFuCmb)" rx="1"/><circle cx="8" cy="29" r="2" fill="url(#3dTjfo_X6V5auP_mfFuCma)"/><circle cx="40" cy="29" r="2" fill="url(#3dTjfo_X6V5auP_mfFuCmc)"/><path fill="url(#3dTjfo_X6V5auP_mfFuCmd)" d="M11.66,33.65868,19,18l3.48913,1.16033L13,40l-1.84526-.75636.32049-4.86749A2.00009,2.00009,0,0,1,11.66,33.65868Z"/><path fill="url(#3dTjfo_X6V5auP_mfFuCme)" d="M36.34,33.65868,29,18l-3.50272,1.12364L35,40l1.84526-.75636-.32049-4.86749A2.00009,2.00009,0,0,0,36.34,33.65868Z"/><path fill="#64717c" d="M24,4h0a2,2,0,0,1,2,2v5a0,0,0,0,1,0,0H22a0,0,0,0,1,0,0V6A2,2,0,0,1,24,4Z"/><path fill="url(#3dTjfo_X6V5auP_mfFuCmf)" d="M11.66,33.65868,19,18l3.48913,1.16033L13,40l-1.84526-.75636.32049-4.86749A2.00009,2.00009,0,0,1,11.66,33.65868Zm24.68,0L29,18l-3.50272,1.12364L35,40l1.84526-.75636-.32049-4.86749A2.00009,2.00009,0,0,0,36.34,33.65868ZM26,11H22V6a2,2,0,0,1,2-2h0a2,2,0,0,1,2,2Z"/><path fill="url(#3dTjfo_X6V5auP_mfFuCmg)" d="M24,9a6,6,0,1,0,6,6A6,6,0,0,0,24,9Zm0,9a3,3,0,1,1,3-3A3,3,0,0,1,24,18Z"/></svg>