<svg xmlns="http://www.w3.org/2000/svg" viewBox="0 0 48 48"><linearGradient id="zbC39eNqZ4Ox3cuI_GoP5a" x1="-393.969" x2="-365.89" y1="-160.031" y2="-188.11" gradientTransform="rotate(90 -277 127)" gradientUnits="userSpaceOnUse"><stop offset="0" stop-color="#fede00"/><stop offset=".519" stop-color="#fecc00"/><stop offset="1" stop-color="#ffb700"/></linearGradient><path fill="url(#zbC39eNqZ4Ox3cuI_GoP5a)" d="M24,44c11.045,0,20-8.955,20-20S35.045,4,24,4S4,12.955,4,24S12.955,44,24,44z"/><path fill="#343434" d="M16.5,26c-1.778,0-3.438-0.957-4.33-2.498c-0.277-0.478-0.114-1.09,0.364-1.367 c0.477-0.275,1.09-0.113,1.366,0.364c0.536,0.926,1.532,1.5,2.6,1.5s2.063-0.575,2.6-1.501c0.276-0.478,0.889-0.642,1.366-0.364 c0.479,0.277,0.642,0.889,0.364,1.367C19.938,25.042,18.278,26,16.5,26z"/><path fill="#343434" d="M31.5,26c-1.778,0-3.438-0.957-4.33-2.498c-0.277-0.478-0.114-1.09,0.364-1.367 c0.477-0.275,1.089-0.113,1.366,0.364c0.536,0.926,1.532,1.5,2.6,1.5s2.063-0.575,2.6-1.501c0.276-0.478,0.889-0.642,1.366-0.364 c0.479,0.277,0.642,0.889,0.364,1.367C34.938,25.042,33.278,26,31.5,26z"/><path fill="#c767e5" d="M46,10.5c0,0.276-0.224,0.5-0.5,0.5H41c-0.375,0-0.718-0.209-0.89-0.542 c-0.171-0.333-0.142-0.734,0.076-1.039L44.057,4H41.5C41.224,4,41,3.776,41,3.5v-1C41,2.224,41.224,2,41.5,2H46 c0.375,0,0.718,0.209,0.89,0.542c0.171,0.333,0.142,0.734-0.076,1.039L42.943,9H45.5C45.776,9,46,9.224,46,9.5V10.5z"/><path fill="#343434" d="M26,37h-4c-0.552,0-1-0.448-1-1v0c0-1.657,1.343-3,3-3h0c1.657,0,3,1.343,3,3v0	C27,36.552,26.552,37,26,37z"/><path fill="#c767e5" d="M38,14.5c0,0.276-0.224,0.5-0.5,0.5H34c-0.375,0-0.718-0.209-0.89-0.542 c-0.171-0.333-0.142-0.734,0.076-1.039l2.87-4.019H34.5c-0.276,0-0.5-0.224-0.5-0.5v-1c0-0.276,0.224-0.5,0.5-0.5H38 c0.375,0,0.718,0.209,0.89,0.542c0.171,0.333,0.142,0.734-0.076,1.039L35.943,13H37.5c0.276,0,0.5,0.224,0.5,0.5V14.5z"/></svg>