<svg xmlns="http://www.w3.org/2000/svg" viewBox="0 0 48 48"><linearGradient id="jD_dWfP5uldwI31czSmYSa" x1="44.125" x2="35.747" y1="4.181" y2="13.398" gradientUnits="userSpaceOnUse"><stop offset="0" stop-color="#ffd869"/><stop offset="1" stop-color="#fec52b"/></linearGradient><path fill="url(#jD_dWfP5uldwI31czSmYSa)" d="M44.627,5.681c-0.331-0.331-0.829-0.994-1.326-1.326c-0.497-0.497-1.326-0.497-1.823,0.166	c0,0-6.78,6.637-8.789,8.815c0.771,0.853,1.008,2.603,1.798,2.15c1.985-1.919,9.066-8.02,10.141-8.48	C45.124,6.675,45.124,6.178,44.627,5.681z"/><linearGradient id="jD_dWfP5uldwI31czSmYSb" x1="38.948" x2="29.238" y1="-1.572" y2="9.109" gradientTransform="rotate(-5.126 32.056 3.17)" gradientUnits="userSpaceOnUse"><stop offset="0" stop-color="#ffd869"/><stop offset="1" stop-color="#fec52b"/></linearGradient><path fill="url(#jD_dWfP5uldwI31czSmYSb)" d="M30.756,9.16c1.073-1.109,3.828-4.172,5.627-5.227c0.652-0.382,0.925-1.032,0.12-1.53	c-0.41-0.343-1.028-0.859-1.438-1.202s-1.354-0.258-1.869,0.358c-0.014-0.157-3.463,4.253-4.59,5.836	C29.184,7.825,29.508,8.314,30.756,9.16z"/><linearGradient id="jD_dWfP5uldwI31czSmYSc" x1="12.244" x2="38.16" y1="13.831" y2="39.746" gradientUnits="userSpaceOnUse"><stop offset="0" stop-color="#a34f27"/><stop offset=".587" stop-color="#8b3817"/><stop offset="1" stop-color="#802d10"/></linearGradient><path fill="url(#jD_dWfP5uldwI31czSmYSc)" d="M29.019,11.914c3.893,0,6.437,1.177,6.437,1.177s-4.473-4.68-6.004-6.213	C28.322,5.744,26.049,5,23.455,5C13.503,5,6,20.663,6,26.568c0,4.057,1.127,6.183,2.858,8.016c2.379,2.647,8.19,6.271,8.19,6.271	s-2.873-5.556-2.089-10.149C16.068,24.224,19.824,11.914,29.019,11.914z"/><linearGradient id="jD_dWfP5uldwI31czSmYSd" x1="18.869" x2="36.306" y1="16.485" y2="42.124" gradientUnits="userSpaceOnUse"><stop offset="0" stop-color="#f05964"/><stop offset="1" stop-color="#d4414c"/></linearGradient><path fill="url(#jD_dWfP5uldwI31czSmYSd)" d="M38.343,23.342C39.787,27.463,42,29.775,42,33.757C42,37.856,37.102,43,26.559,43	c-7.334,0-13.127-1.769-13.127-10.593c0-5.826,6.297-21.186,16.878-21.186C38.79,11.221,36.977,19.443,38.343,23.342z"/><path fill="#f09ca2" d="M36.564,24.213c1.269,3.997,2.961,6.334,2.961,9.412c0,3.506-3.814,7.404-12.831,7.404	c-6.273,0-10.799-1.842-10.799-9.389c0-4.983,6.254-18.119,14.007-18.119C37.155,13.521,35.295,20.216,36.564,24.213z"/><linearGradient id="jD_dWfP5uldwI31czSmYSe" x1="19.968" x2="34.647" y1="18.237" y2="40.769" gradientUnits="userSpaceOnUse"><stop offset="0" stop-color="#f05964"/><stop offset="1" stop-color="#d4414c"/></linearGradient><path fill="url(#jD_dWfP5uldwI31czSmYSe)" d="M33.388,34.879c-1.062,0.667-10.483,0.73-10.483-0.669c0-1.399,5.786,0.21,7.567-1.624	c1.78-1.938,0.167-8.014,0.779-8.171C32.348,24.134,35.159,33.879,33.388,34.879z"/></svg>