<svg xmlns="http://www.w3.org/2000/svg" viewBox="0 0 48 48"><path fill="#50e6ff" d="M39,16v25c0,1.105-0.895,2-2,2H11c-1.105,0-2-0.895-2-2V7c0-1.105,0.895-2,2-2h17L39,16z"/><linearGradient id="ZsyZnu~7BkaId6KglH5sNa" x1="28.529" x2="33.6" y1="15.472" y2="10.4" gradientUnits="userSpaceOnUse"><stop offset="0" stop-color="#3079d6"/><stop offset="1" stop-color="#297cd2"/></linearGradient><path fill="url(#ZsyZnu~7BkaId6KglH5sNa)" d="M28,5v9c0,1.105,0.895,2,2,2h9L28,5z"/><radialGradient id="ZsyZnu~7BkaId6KglH5sNb" cx="36.108" cy="36.04" r="10.085" gradientUnits="userSpaceOnUse"><stop offset=".354" stop-color="#006185"/><stop offset=".538" stop-color="#1a8dad"/><stop offset=".826" stop-color="#41cde8"/><stop offset=".962" stop-color="#50e6ff"/></radialGradient><path fill="url(#ZsyZnu~7BkaId6KglH5sNb)" d="M36,26c-5.523,0-10,4.477-10,10c0,2.727,1.094,5.196,2.864,7H37c1.105,0,2-0.895,2-2V26.459	C38.053,26.162,37.045,26,36,26z"/><path fill="#199be2" d="M43.992,42.224l-1.768,1.768l3.935,3.935c0.098,0.098,0.256,0.098,0.354,0l1.414-1.414	c0.098-0.098,0.098-0.256,0-0.354L43.992,42.224z"/><radialGradient id="ZsyZnu~7BkaId6KglH5sNc" cx="36.012" cy="36.048" r="9.802" gradientUnits="userSpaceOnUse"><stop offset=".693" stop-color="#006185"/><stop offset=".921" stop-color="#35c1f1"/></radialGradient><polygon fill="url(#ZsyZnu~7BkaId6KglH5sNc)" points="41.8,40.033 40.033,41.8 42.224,43.992 43.992,42.224"/><linearGradient id="ZsyZnu~7BkaId6KglH5sNd" x1="30.455" x2="41.669" y1="30.455" y2="41.669" gradientUnits="userSpaceOnUse"><stop offset="0" stop-color="#a3ffff"/><stop offset=".223" stop-color="#9dfbff"/><stop offset=".53" stop-color="#8bf1ff"/><stop offset=".885" stop-color="#6ee0ff"/><stop offset="1" stop-color="#63daff"/></linearGradient><circle cx="36" cy="36" r="8" fill="url(#ZsyZnu~7BkaId6KglH5sNd)"/></svg>