<svg xmlns="http://www.w3.org/2000/svg" viewBox="0 0 48 48"><path fill="#5c6369" d="M12,32H8c-1.105,0-2-0.895-2-2V18c0-1.105,0.895-2,2-2h4V32z"/><polygon fill="#727d86" points="21,42 12,32 12,16 21,6"/><linearGradient id="Ib3Hji~Ko7tJd9FQJJJWEa" x1="12.403" x2="28.927" y1="11.868" y2="32.757" gradientUnits="userSpaceOnUse"><stop offset="0" stop-color="#a1aab3"/><stop offset="1" stop-color="#8f979e"/></linearGradient><path fill="url(#Ib3Hji~Ko7tJd9FQJJJWEa)" d="M22,5L22,5c-0.552,0-1,0.448-1,1v36c0,0.552,0.448,1,1,1h0c0.552,0,1-0.448,1-1V6	C23,5.448,22.552,5,22,5z"/><linearGradient id="Ib3Hji~Ko7tJd9FQJJJWEb" x1="29.067" x2="37.498" y1="17.067" y2="25.498" gradientUnits="userSpaceOnUse"><stop offset="0" stop-color="#f44f5a"/><stop offset=".443" stop-color="#ee3d4a"/><stop offset="1" stop-color="#e52030"/></linearGradient><path fill="url(#Ib3Hji~Ko7tJd9FQJJJWEb)" d="M43.756,19.116c0.326-0.326,0.326-0.854,0-1.18l-1.692-1.692c-0.326-0.326-0.854-0.326-1.18,0	L36,21.128l-4.884-4.884c-0.326-0.326-0.854-0.326-1.18,0l-1.692,1.692c-0.326,0.326-0.326,0.854,0,1.18L33.128,24l-4.884,4.884	c-0.326,0.326-0.326,0.854,0,1.18l1.692,1.692c0.326,0.326,0.854,0.326,1.18,0L43.756,19.116z"/><linearGradient id="Ib3Hji~Ko7tJd9FQJJJWEc" x1="37.42" x2="42.95" y1="25.42" y2="30.95" gradientUnits="userSpaceOnUse"><stop offset="0" stop-color="#a8142e"/><stop offset=".179" stop-color="#ba1632"/><stop offset=".243" stop-color="#c21734"/></linearGradient><path fill="url(#Ib3Hji~Ko7tJd9FQJJJWEc)" d="M36,26.872l4.884,4.884c0.326,0.326,0.854,0.326,1.18,0l1.692-1.692	c0.326-0.326,0.326-0.854,0-1.18L38.872,24L36,26.872z"/></svg>