<svg xmlns="http://www.w3.org/2000/svg" viewBox="0 0 48 48"><linearGradient id="kTIr_wLQ~lfLqeOf_js4la" x1="5" x2="38" y1="31" y2="31" gradientUnits="userSpaceOnUse"><stop offset="0" stop-color="#42a3f2"/><stop offset="1" stop-color="#42a4eb"/></linearGradient><path fill="url(#kTIr_wLQ~lfLqeOf_js4la)" d="M38,33H6c-0.552,0-1-0.448-1-1v-2c0-0.552,0.448-1,1-1h32V33z"/><linearGradient id="kTIr_wLQ~lfLqeOf_js4lb" x1="5" x2="38" y1="39" y2="39" gradientUnits="userSpaceOnUse"><stop offset="0" stop-color="#42a3f2"/><stop offset="1" stop-color="#42a4eb"/></linearGradient><path fill="url(#kTIr_wLQ~lfLqeOf_js4lb)" d="M38,41H6c-0.552,0-1-0.448-1-1v-2c0-0.552,0.448-1,1-1h32V41z"/><linearGradient id="kTIr_wLQ~lfLqeOf_js4lc" x1="5" x2="38" y1="23" y2="23" gradientUnits="userSpaceOnUse"><stop offset="0" stop-color="#42a3f2"/><stop offset="1" stop-color="#42a4eb"/></linearGradient><path fill="url(#kTIr_wLQ~lfLqeOf_js4lc)" d="M38,25H6c-0.552,0-1-0.448-1-1v-2c0-0.552,0.448-1,1-1h32V25z"/><linearGradient id="kTIr_wLQ~lfLqeOf_js4ld" x1="5" x2="38" y1="15" y2="15" gradientUnits="userSpaceOnUse"><stop offset="0" stop-color="#42a3f2"/><stop offset="1" stop-color="#42a4eb"/></linearGradient><path fill="url(#kTIr_wLQ~lfLqeOf_js4ld)" d="M38,17H6c-0.552,0-1-0.448-1-1v-2c0-0.552,0.448-1,1-1h32V17z"/><linearGradient id="kTIr_wLQ~lfLqeOf_js4le" x1="33.5" x2="33.5" y1="17" y2="69.594" gradientUnits="userSpaceOnUse"><stop offset="0" stop-color="#ed3675"/><stop offset="1" stop-color="#ca1b4d"/></linearGradient><path fill="url(#kTIr_wLQ~lfLqeOf_js4le)" d="M33.5,31c-4.141,0-7.5,3.359-7.5,7.5s3.359,7.5,7.5,7.5s7.5-3.358,7.5-7.5S37.641,31,33.5,31z"/><linearGradient id="kTIr_wLQ~lfLqeOf_js4lf" x1="39.5" x2="47" y1="11.5" y2="11.5" gradientUnits="userSpaceOnUse"><stop offset="0" stop-color="#bd1949"/><stop offset=".108" stop-color="#c31a4b"/><stop offset=".38" stop-color="#ca1b4d"/><stop offset="1" stop-color="#cc1b4e"/></linearGradient><path fill="url(#kTIr_wLQ~lfLqeOf_js4lf)" d="M45.5,8h-6v1v5v1h6c0.828,0,1.5-0.672,1.5-1.5v-1v-2v-1C47,8.672,46.328,8,45.5,8z"/><linearGradient id="kTIr_wLQ~lfLqeOf_js4lg" x1="38.5" x2="38.5" y1="17" y2="69.594" gradientUnits="userSpaceOnUse"><stop offset="0" stop-color="#ed3675"/><stop offset="1" stop-color="#ca1b4d"/></linearGradient><path fill="url(#kTIr_wLQ~lfLqeOf_js4lg)" d="M41,8h-2.333C37.193,8,36,9.18,36,10.637V38.5h5V8z"/><linearGradient id="kTIr_wLQ~lfLqeOf_js4lh" x1="3.182" x2="17.419" y1="-716.782" y2="-731.019" gradientTransform="matrix(1 0 0 -1 0 -714)" gradientUnits="userSpaceOnUse"><stop offset="0" stop-color="#889097"/><stop offset=".331" stop-color="#848c94"/><stop offset=".669" stop-color="#78828b"/><stop offset="1" stop-color="#64717c"/></linearGradient><path fill="url(#kTIr_wLQ~lfLqeOf_js4lh)" d="M19.7,7.3c-1.2,0.2-2.4-0.4-3.1-1.5c-0.6-1.1-0.5-2.4,0.2-3.4c-1.1-1.1-2.5-1.9-4-2.3	C12.3,1.2,11.2,2,10,2S7.6,1.1,7.2,0c-1.5,0.5-2.9,1.3-4,2.3c0.7,1,0.9,2.3,0.2,3.4C2.8,6.8,1.5,7.4,0.3,7.2C0.1,8,0,8.8,0,9.6	s0.1,1.6,0.3,2.3c1.2-0.2,2.4,0.4,3.1,1.5c0.6,1.1,0.5,2.4-0.2,3.4c1.1,1.1,2.5,1.9,4,2.3c0.5-1.1,1.6-1.9,2.8-1.9s2.4,0.8,2.8,1.9	c1.5-0.5,2.9-1.3,4-2.3c-0.7-1-0.9-2.3-0.2-3.4c0.6-1.1,1.9-1.7,3.1-1.5c0.2-0.7,0.3-1.5,0.3-2.3S19.9,8,19.7,7.3z"/><linearGradient id="kTIr_wLQ~lfLqeOf_js4li" x1="13.476" x2="6.463" y1="-727.077" y2="-720.063" gradientTransform="matrix(1 0 0 -1 0 -714)" gradientUnits="userSpaceOnUse"><stop offset="0" stop-color="#fff"/><stop offset=".242" stop-color="#f2f2f2"/><stop offset="1" stop-color="#ccc"/></linearGradient><circle cx="10" cy="9.6" r="5" fill="url(#kTIr_wLQ~lfLqeOf_js4li)"/><linearGradient id="kTIr_wLQ~lfLqeOf_js4lj" x1="7.186" x2="12.11" y1="-720.785" y2="-725.71" gradientTransform="matrix(1 0 0 -1 0 -714)" gradientUnits="userSpaceOnUse"><stop offset="0" stop-color="#0d61a9"/><stop offset=".363" stop-color="#0e5fa4"/><stop offset=".78" stop-color="#135796"/><stop offset="1" stop-color="#16528c"/></linearGradient><circle cx="10" cy="9.6" r="3" fill="url(#kTIr_wLQ~lfLqeOf_js4lj)"/></svg>