<svg xmlns="http://www.w3.org/2000/svg" viewBox="0 0 48 48"><path fill="#64717c" d="M10.026,38.001L9.999,10.026l27.975-0.027l0.027,27.975L10.026,38.001z M12.001,12.024l0.023,23.975	l23.975-0.023l-0.023-23.975L12.001,12.024z"/><path fill="#35c1f1" d="M16.004,41.969L8.031,42c-1.099,0.001-1.999-0.897-2-1.996L6,32.031	c-0.001-1.099,0.897-1.999,1.996-2L15.969,30c1.099-0.001,1.999,0.897,2,1.996L18,39.969C18.001,41.068,17.103,41.968,16.004,41.969	z"/><linearGradient id="iZ9QBuOI77qUbMbJZqSZ5a" x1="34.165" x2="37.734" y1="30.035" y2="41.636" gradientUnits="userSpaceOnUse"><stop offset="0" stop-color="#0370c8"/><stop offset=".484" stop-color="#036fc5"/><stop offset=".775" stop-color="#036abd"/><stop offset="1" stop-color="#0362b0"/></linearGradient><path fill="url(#iZ9QBuOI77qUbMbJZqSZ5a)" d="M40.004,41.969L32.031,42c-1.099,0.001-1.999-0.897-2-1.996L30,32.031	c-0.001-1.099,0.897-1.999,1.996-2L39.969,30c1.099-0.001,1.999,0.897,2,1.996L42,39.969C42.001,41.068,41.103,41.968,40.004,41.969	z"/><linearGradient id="iZ9QBuOI77qUbMbJZqSZ5b" x1="10.165" x2="13.734" y1="6.035" y2="17.636" gradientUnits="userSpaceOnUse"><stop offset="0" stop-color="#0370c8"/><stop offset=".484" stop-color="#036fc5"/><stop offset=".775" stop-color="#036abd"/><stop offset="1" stop-color="#0362b0"/></linearGradient><path fill="url(#iZ9QBuOI77qUbMbJZqSZ5b)" d="M16.004,17.969L8.031,18c-1.099,0.001-1.999-0.897-2-1.996L6,8.031	c-0.001-1.099,0.897-1.999,1.996-2L15.969,6c1.099-0.001,1.999,0.897,2,1.996L18,15.969C18.001,17.068,17.103,17.968,16.004,17.969z"/><linearGradient id="iZ9QBuOI77qUbMbJZqSZ5c" x1="34.165" x2="37.734" y1="6.035" y2="17.636" gradientUnits="userSpaceOnUse"><stop offset="0" stop-color="#0370c8"/><stop offset=".484" stop-color="#036fc5"/><stop offset=".775" stop-color="#036abd"/><stop offset="1" stop-color="#0362b0"/></linearGradient><path fill="url(#iZ9QBuOI77qUbMbJZqSZ5c)" d="M40.004,17.969L32.031,18c-1.099,0.001-1.999-0.897-2-1.996L30,8.031	c-0.001-1.099,0.897-1.999,1.996-2L39.969,6c1.099-0.001,1.999,0.897,2,1.996L42,15.969C42.001,17.068,41.103,17.968,40.004,17.969z"/></svg>