<svg xmlns="http://www.w3.org/2000/svg" viewBox="0 0 48 48"><path fill="#999" d="M24,6C14.059,6,6,14.059,6,24c0,9.941,8.059,18,18,18s18-8.059,18-18C42,14.059,33.941,6,24,6z M32.045,31.67l-4.467-6.15l-3.236,2.352l4.439,6.11c0.617,0.849,0.224,2.054-0.774,2.38C26.745,36.775,25.4,37,24,37	s-2.745-0.225-4.007-0.637c-0.998-0.326-1.391-1.531-0.774-2.38l4.439-6.11l-3.236-2.352l-4.452,6.128	c-0.616,0.848-1.887,0.848-2.503,0c-1.817-2.501-2.423-5.391-2.455-7.6c-0.015-1.066,1.005-1.838,2.019-1.509l7.18,2.332	l1.236-3.805l-7.176-2.331c-1.002-0.325-1.389-1.538-0.768-2.388c1.59-2.177,3.839-3.837,6.455-4.691	c1.003-0.328,2.04,0.41,2.04,1.466v7.544h4v-7.544c0-1.056,1.036-1.794,2.04-1.466c2.617,0.855,4.866,2.515,6.455,4.691	c0.621,0.851,0.234,2.063-0.768,2.388l-7.176,2.331l1.236,3.805l7.177-2.331c0.999-0.325,2.026,0.425,2.024,1.475	c-0.005,2.915-1.002,5.647-2.425,7.624C33.942,32.504,32.671,32.531,32.045,31.67z"/><path fill="#586169" d="M24,4C12.955,4,4,12.955,4,24s8.955,20,20,20s20-8.955,20-20S35.045,4,24,4z M24,40	c-8.836,0-16-7.164-16-16S15.164,8,24,8s16,7.164,16,16S32.836,40,24,40z"/><path fill="#999" d="M24,19c-2.761,0-5,2.239-5,5s2.239,5,5,5s5-2.239,5-5S26.761,19,24,19z"/><path fill="#586169" d="M24,22c-1.104,0-2,0.896-2,2s0.896,2,2,2s2-0.896,2-2S25.104,22,24,22z"/></svg>