<svg xmlns="http://www.w3.org/2000/svg" viewBox="0 0 48 48"><linearGradient id="oXG54HQD~61oYKfhMPHiga" x1="8.424" x2="9.576" y1="5.733" y2="12.267" gradientUnits="userSpaceOnUse"><stop offset="0" stop-color="#3079d6"/><stop offset="1" stop-color="#297cd2"/></linearGradient><path fill="url(#oXG54HQD~61oYKfhMPHiga)" d="M7,6h4c0.552,0,1,0.448,1,1v4c0,0.552-0.448,1-1,1H7c-0.552,0-1-0.448-1-1V7 C6,6.448,6.448,6,7,6z"/><linearGradient id="oXG54HQD~61oYKfhMPHigb" x1="8.424" x2="9.576" y1="15.733" y2="22.267" gradientUnits="userSpaceOnUse"><stop offset="0" stop-color="#3079d6"/><stop offset="1" stop-color="#297cd2"/></linearGradient><path fill="url(#oXG54HQD~61oYKfhMPHigb)" d="M7,16h4c0.552,0,1,0.448,1,1v4c0,0.552-0.448,1-1,1H7c-0.552,0-1-0.448-1-1v-4 C6,16.448,6.448,16,7,16z"/><linearGradient id="oXG54HQD~61oYKfhMPHigc" x1="8.424" x2="9.576" y1="25.733" y2="32.267" gradientUnits="userSpaceOnUse"><stop offset="0" stop-color="#3079d6"/><stop offset="1" stop-color="#297cd2"/></linearGradient><path fill="url(#oXG54HQD~61oYKfhMPHigc)" d="M7,26h4c0.552,0,1,0.448,1,1v4c0,0.552-0.448,1-1,1H7c-0.552,0-1-0.448-1-1v-4 C6,26.448,6.448,26,7,26z"/><linearGradient id="oXG54HQD~61oYKfhMPHigd" x1="8.424" x2="9.576" y1="35.733" y2="42.267" gradientUnits="userSpaceOnUse"><stop offset="0" stop-color="#3079d6"/><stop offset="1" stop-color="#297cd2"/></linearGradient><path fill="url(#oXG54HQD~61oYKfhMPHigd)" d="M7,36h4c0.552,0,1,0.448,1,1v4c0,0.552-0.448,1-1,1H7c-0.552,0-1-0.448-1-1v-4 C6,36.448,6.448,36,7,36z"/><linearGradient id="oXG54HQD~61oYKfhMPHige" x1="29" x2="29" y1="17" y2="21" gradientUnits="userSpaceOnUse"><stop offset="0" stop-color="#28afea"/><stop offset="1" stop-color="#0b88da"/></linearGradient><path fill="url(#oXG54HQD~61oYKfhMPHige)" d="M17,17h24c0.552,0,1,0.448,1,1v2c0,0.552-0.448,1-1,1H17c-0.552,0-1-0.448-1-1v-2 C16,17.448,16.448,17,17,17z"/><linearGradient id="oXG54HQD~61oYKfhMPHigf" x1="29" x2="29" y1="27" y2="31" gradientUnits="userSpaceOnUse"><stop offset="0" stop-color="#28afea"/><stop offset="1" stop-color="#0b88da"/></linearGradient><path fill="url(#oXG54HQD~61oYKfhMPHigf)" d="M17,27h24c0.552,0,1,0.448,1,1v2c0,0.552-0.448,1-1,1H17c-0.552,0-1-0.448-1-1v-2 C16,27.448,16.448,27,17,27z"/><linearGradient id="oXG54HQD~61oYKfhMPHigg" x1="29" x2="29" y1="37" y2="41" gradientUnits="userSpaceOnUse"><stop offset="0" stop-color="#28afea"/><stop offset="1" stop-color="#0b88da"/></linearGradient><path fill="url(#oXG54HQD~61oYKfhMPHigg)" d="M17,37h24c0.552,0,1,0.448,1,1v2c0,0.552-0.448,1-1,1H17c-0.552,0-1-0.448-1-1v-2 C16,37.448,16.448,37,17,37z"/><linearGradient id="oXG54HQD~61oYKfhMPHigh" x1="29" x2="29" y1="7" y2="11" gradientUnits="userSpaceOnUse"><stop offset="0" stop-color="#28afea"/><stop offset="1" stop-color="#0b88da"/></linearGradient><path fill="url(#oXG54HQD~61oYKfhMPHigh)" d="M17,7h24c0.552,0,1,0.448,1,1v2c0,0.552-0.448,1-1,1H17c-0.552,0-1-0.448-1-1V8 C16,7.448,16.448,7,17,7z"/></svg>