<svg xmlns="http://www.w3.org/2000/svg" viewBox="0 0 48 48"><linearGradient id="p0Us0r~OPNEB0QkgKa5hka" x1="14.008" x2="33.477" y1="42.682" y2="6.067" gradientTransform="matrix(1 0 0 -1 0 47.89)" gradientUnits="userSpaceOnUse"><stop offset="0" stop-color="#7179d1"/><stop offset="1" stop-color="#5057b6"/></linearGradient><path fill="url(#p0Us0r~OPNEB0QkgKa5hka)" d="M4,24C4,12.955,12.955,4,24,4s20,8.955,20,20s-8.955,20-20,20S4,35.045,4,24z"/><linearGradient id="p0Us0r~OPNEB0QkgKa5hkb" x1="14.904" x2="33.096" y1="668.673" y2="702.888" gradientTransform="translate(0 -661.78)" gradientUnits="userSpaceOnUse"><stop offset="0" stop-color="#5961c3"/><stop offset=".002" stop-color="#5961c3"/><stop offset="1" stop-color="#424ab2"/></linearGradient><path fill="url(#p0Us0r~OPNEB0QkgKa5hkb)" d="M41,24c0-3.239-0.673-6.291-1.839-9h2.682c-0.348-0.689-0.725-1.36-1.148-2h-2.512	C35.138,7.584,29.921,4,24,4S12.862,7.584,9.817,13H7.305c-0.423,0.64-0.8,1.311-1.148,2h2.682C7.673,17.709,7,20.761,7,24	s0.673,6.291,1.839,9H6.157c0.348,0.689,0.725,1.36,1.148,2h2.512c3.045,5.416,8.262,9,14.183,9s11.138-3.584,14.183-9h2.512	c0.423-0.64,0.8-1.311,1.148-2h-2.682C40.327,30.291,41,27.239,41,24z M39,24c0,3.28-0.747,6.349-2.029,9h-5.793	C31.721,30.167,32,27.053,32,24s-0.279-6.167-0.822-9h5.793C38.253,17.651,39,20.72,39,24z M24,42c-1.69,0-3.491-2.637-4.674-7	h9.349C27.491,39.363,25.69,42,24,42z M18.848,33C18.321,30.413,18,27.371,18,24s0.321-6.413,0.848-9h10.304	C29.679,17.587,30,20.629,30,24s-0.321,6.413-0.848,9H18.848z M24,6c1.69,0,3.491,2.637,4.674,7h-9.349C20.509,8.637,22.31,6,24,6z M35.847,13h-5.111c-0.626-2.499-1.479-4.684-2.552-6.273C31.263,7.803,33.929,10.032,35.847,13z M19.816,6.727	c-1.073,1.59-1.926,3.774-2.552,6.273h-5.111C14.071,10.032,16.737,7.803,19.816,6.727z M9,24c0-3.28,0.747-6.349,2.029-9h5.793	C16.279,17.833,16,20.947,16,24s0.279,6.167,0.822,9h-5.793C9.747,30.349,9,27.28,9,24z M12.153,35h5.111	c0.626,2.499,1.479,4.684,2.552,6.273C16.737,40.197,14.071,37.968,12.153,35z M28.184,41.273c1.073-1.59,1.926-3.774,2.552-6.273	h5.111C33.929,37.968,31.263,40.197,28.184,41.273z"/><path d="M11.5,29.1c-0.827,0-1.5-0.673-1.5-1.5v-7.2c0-0.827,0.673-1.5,1.5-1.5	h2.695c5.051,0,5.805,3.131,5.805,4.997c0,1.572-0.557,2.855-1.653,3.813c-1.059,0.922-2.455,1.39-4.151,1.39H11.5z M14.038,25.602	c0.617,0,1.069-0.145,1.381-0.443c0.302-0.29,0.442-0.684,0.442-1.239c0-0.497-0.132-0.847-0.415-1.102	c-0.305-0.274-0.78-0.414-1.415-0.415v3.198h0.007V25.602z" opacity=".05"/><path d="M11.5,28.6c-0.552,0-1-0.449-1-1v-7.2c0-0.551,0.448-1,1-1h2.695	c4.385,0,5.305,2.445,5.305,4.497c0,1.421-0.499,2.578-1.482,3.437c-0.964,0.84-2.25,1.267-3.822,1.267H11.5V28.6z M14.038,26.102	c0.753,0,1.317-0.19,1.727-0.582c0.401-0.386,0.597-0.909,0.597-1.6c0-0.639-0.189-1.121-0.58-1.473	c-0.4-0.36-0.991-0.543-1.756-0.543h-0.494v4.198H14.038z" opacity=".07"/><path fill="#fff" d="M11,27.6v-7.2c0-0.276,0.224-0.5,0.5-0.5h2.695c3.203,0,4.805,1.333,4.805,3.997	c0,1.277-0.438,2.297-1.312,3.06c-0.874,0.762-2.039,1.144-3.493,1.144H11.5C11.224,28.1,11,27.876,11,27.6z M13.032,21.404v5.198	h1.006c0.88,0,1.571-0.24,2.073-0.721c0.5-0.48,0.751-1.134,0.751-1.961c0-0.781-0.248-1.396-0.745-1.844	c-0.497-0.448-1.195-0.672-2.091-0.672C14.026,21.404,13.032,21.404,13.032,21.404z"/><path d="M27.236,29.1c-0.485,0-0.942-0.236-1.223-0.631l-2.122-2.983V27.6	c0,0.827-0.673,1.5-1.5,1.5H21.5c-0.827,0-1.5-0.673-1.5-1.5v-7.2c0-0.827,0.673-1.5,1.5-1.5h1.399c0.487,0,0.945,0.237,1.225,0.635	l1.985,2.808V20.4c0-0.827,0.673-1.5,1.5-1.5H28.5c0.827,0,1.5,0.673,1.5,1.5v7.2c0,0.827-0.673,1.5-1.5,1.5	C28.5,29.1,27.236,29.1,27.236,29.1z" opacity=".05"/><path d="M27.236,28.6c-0.323,0-0.628-0.157-0.814-0.42l-3.03-4.259v3.68	c0,0.551-0.448,1-1,1H21.5c-0.552,0-1-0.449-1-1v-7.2c0-0.551,0.448-1,1-1h1.399c0.324,0,0.63,0.158,0.816,0.423l2.894,4.094V20.4	c0-0.551,0.448-1,1-1H28.5c0.552,0,1,0.449,1,1v7.2c0,0.551-0.448,1-1,1C28.5,28.6,27.236,28.6,27.236,28.6z" opacity=".07"/><path fill="#fff" d="M28.5,28.1h-1.263c-0.162,0-0.314-0.078-0.407-0.21l-3.516-4.942	c-0.215-0.301-0.364-0.528-0.446-0.681h-0.025c0.033,0.29,0.05,0.732,0.05,1.327V27.6c0,0.276-0.224,0.5-0.5,0.5H21.5	c-0.276,0-0.5-0.224-0.5-0.5v-7.2c0-0.276,0.224-0.5,0.5-0.5h1.399c0.162,0,0.315,0.079,0.408,0.211l3.379,4.781	c0.162,0.225,0.31,0.448,0.447,0.669h0.024c-0.033-0.19-0.049-0.566-0.049-1.126V20.4c0-0.276,0.224-0.5,0.5-0.5H28.5	c0.276,0,0.5,0.224,0.5,0.5v7.2C29,27.876,28.776,28.1,28.5,28.1z"/><path d="M33.511,29.24c-0.963-0.003-1.808-0.134-2.504-0.388	c-0.58-0.21-0.971-0.777-0.971-1.41v-1.138c0-0.717,0.583-1.3,1.3-1.3c0.157,0,0.312,0.028,0.456,0.083	c-0.896-0.51-1.771-1.354-1.792-2.878c-0.043-1.615,1.1-2.909,2.911-3.288c0.522-0.11,1.075-0.166,1.642-0.166	c0.682,0,1.359,0.084,1.96,0.243c0.649,0.172,1.104,0.77,1.104,1.454v1.034c0,0.717-0.583,1.3-1.3,1.3	c-0.139,0-0.276-0.022-0.408-0.066c1.429,0.727,2.14,1.774,2.092,3.108c0.03,0.8-0.267,1.585-0.835,2.174	c-1.08,1.12-2.79,1.24-3.476,1.24L33.511,29.24z M32.105,25.257c0.315,0.232,0.786,0.505,1.271,0.529	c-0.08-0.031-0.152-0.059-0.203-0.078c-0.201-0.077-0.396-0.153-0.572-0.237c-0.166-0.066-0.34-0.143-0.518-0.23	C32.092,25.247,32.099,25.252,32.105,25.257z M34.821,22.246c0.118,0.048,0.229,0.095,0.334,0.145	c0.158,0.06,0.311,0.122,0.456,0.188C35.345,22.414,35.069,22.299,34.821,22.246z" opacity=".05"/><path d="M33.518,28.74c-0.906-0.003-1.698-0.124-2.34-0.357	c-0.384-0.139-0.642-0.518-0.642-0.94v-1.138c0-0.441,0.358-0.8,0.8-0.8c0.171,0,0.335,0.054,0.475,0.156	c0.39,0.286,0.989,0.627,1.634,0.627c0.286-0.003,0.965-0.043,0.983-0.358c-0.04-0.267-0.451-0.45-1.075-0.688	c-0.188-0.072-0.372-0.143-0.536-0.221c-1.053-0.426-2.294-1.144-2.316-2.818c-0.036-1.366,0.95-2.464,2.514-2.792	c0.489-0.103,1.007-0.155,1.539-0.155c0.638,0,1.271,0.078,1.832,0.227c0.431,0.114,0.731,0.513,0.731,0.97v1.034	c0,0.441-0.358,0.8-0.8,0.8c-0.149,0-0.296-0.042-0.424-0.122c-0.462-0.288-0.942-0.449-1.354-0.452	c-0.15,0.001-0.946,0.027-0.967,0.361c0.031,0.206,0.37,0.361,0.923,0.581c0.154,0.062,0.307,0.122,0.444,0.188	c0.623,0.234,2.632,0.995,2.561,2.969c0.025,0.698-0.215,1.348-0.694,1.845c-0.947,0.981-2.495,1.087-3.116,1.087L33.518,28.74z" opacity=".07"/><path fill="#fff" d="M31.348,27.913c-0.193-0.07-0.312-0.265-0.312-0.471v-1.138c0-0.247,0.279-0.386,0.478-0.24	c0.588,0.432,1.261,0.724,1.93,0.724c0.607-0.006,1.441-0.126,1.482-0.829c-0.103-0.872-1.194-1.057-1.896-1.39	c-1.194-0.485-2.013-1.113-2.03-2.373c-0.033-1.259,0.961-2.054,2.116-2.296c0.993-0.209,2.156-0.195,3.14,0.065	c0.216,0.057,0.359,0.263,0.359,0.487v1.034c0,0.236-0.258,0.379-0.458,0.254c-0.507-0.317-1.079-0.523-1.615-0.528	c-0.587,0.006-1.427,0.141-1.469,0.83c0.088,0.77,1.021,0.952,1.652,1.252c1.148,0.435,2.325,1.134,2.275,2.499	c0.065,1.88-1.894,2.492-3.469,2.448C32.799,28.238,32.012,28.155,31.348,27.913z"/></svg>