<svg xmlns="http://www.w3.org/2000/svg" data-name="Слой 1" viewBox="0 0 48 48"><defs><linearGradient id="xI4a_aUiRF~xTlXn7CnPta" x1="11.574" x2="23.13" y1="12.17" y2="43.921" data-name="Безымянный градиент 121" gradientUnits="userSpaceOnUse"><stop offset="0" stop-color="#f44f5a"/><stop offset=".443" stop-color="#ee3d4a"/><stop offset="1" stop-color="#e52030"/></linearGradient><linearGradient id="xI4a_aUiRF~xTlXn7CnPtb" x1="18" x2="18" y1="9.22" y2="15.158" data-name="Безымянный градиент 147" gradientUnits="userSpaceOnUse"><stop offset="0" stop-color="#dfe9f2"/><stop offset=".391" stop-color="#d6e0e9"/><stop offset="1" stop-color="#bfc8d1"/></linearGradient><radialGradient id="xI4a_aUiRF~xTlXn7CnPtc" cx="31.533" cy="5.529" r="21.097" data-name="Безымянный градиент 297" gradientUnits="userSpaceOnUse"><stop offset="0" stop-color="#2aa4f4"/><stop offset=".595" stop-color="#0f80e3"/><stop offset="1" stop-color="#006dd9"/></radialGradient></defs><rect width="2" height="5" x="17" y="7.002" fill="#64717c"/><path fill="url(#xI4a_aUiRF~xTlXn7CnPta)" d="M13,14.0023H23a4,4,0,0,1,4,4v24a2,2,0,0,1-2,2H11a2,2,0,0,1-2-2v-24A4,4,0,0,1,13,14.0023Z"/><rect width="14" height="3" x="11" y="11.002" fill="url(#xI4a_aUiRF~xTlXn7CnPtb)" rx="1.5"/><path fill="#889097" d="M18,3.0023h0a3,3,0,0,1,3,3v2a1,1,0,0,1-1,1H16a1,1,0,0,1-1-1v-2a3,3,0,0,1,3-3Z"/><path fill="url(#xI4a_aUiRF~xTlXn7CnPtc)" d="M24,7.0023a1,1,0,1,1,1-1A1,1,0,0,1,24,7.0023Zm5-1a1,1,0,1,0-1,1A1,1,0,0,0,29,6.0023Zm4,0a1,1,0,1,0-1,1A1,1,0,0,0,33,6.0023Zm4,0a1,1,0,1,0-1,1A1,1,0,0,0,37,6.0023Zm4,0a1,1,0,1,0-1,1A1,1,0,0,0,41,6.0023Zm-10,3a1,1,0,1,0-1,1A1,1,0,0,0,31,9.0023Zm4,0a1,1,0,1,0-1,1A1,1,0,0,0,35,9.0023Zm4,0a1,1,0,1,0-1,1A1,1,0,0,0,39,9.0023Zm4,0a1,1,0,1,0-1,1A1,1,0,0,0,43,9.0023Zm-6,3a1,1,0,1,0-1,1A1,1,0,0,0,37,12.0023Zm4,0a1,1,0,1,0-1,1A1,1,0,0,0,41,12.0023Z"/><path d="M18,22.0023a6,6,0,1,1-6,6,6.00657,6.00657,0,0,1,6-6m-3.43323,8.01917L20.01929,24.569A3.95554,3.95554,0,0,0,18,24.0023a4.00428,4.00428,0,0,0-4,4,3.95532,3.95532,0,0,0,.56677,2.01917M18,32.0023a4.00427,4.00427,0,0,0,4-4,3.95528,3.95528,0,0,0-.56677-2.01916l-5.45252,5.45245A3.95554,3.95554,0,0,0,18,32.0023m0-11a7,7,0,1,0,7,7,7.00791,7.00791,0,0,0-7-7Zm-2.99512,7.16681Q14.99995,28.086,15,28.0023a3.00342,3.00342,0,0,1,3-3q.08368,0,.16687.00495l-3.162,3.16186Zm2.82825,2.82825,3.162-3.16187q.00493.08313.00488.16681a3.00342,3.00342,0,0,1-3,3q-.08368,0-.16687-.00494Z" opacity=".05"/><path d="M18,22.0023a6,6,0,1,1-6,6,6.00657,6.00657,0,0,1,6-6m-3.43323,8.01917L20.01929,24.569A3.95554,3.95554,0,0,0,18,24.0023a4.00428,4.00428,0,0,0-4,4,3.95532,3.95532,0,0,0,.56677,2.01917M18,32.0023a4.00427,4.00427,0,0,0,4-4,3.95528,3.95528,0,0,0-.56677-2.01916l-5.45252,5.45245A3.95554,3.95554,0,0,0,18,32.0023m0-10.5a6.5,6.5,0,1,0,6.5,6.5,6.50737,6.50737,0,0,0-6.5-6.5Zm-3.2887,7.66748A3.3372,3.3372,0,0,1,14.5,28.0023a3.504,3.504,0,0,1,3.5-3.5,3.3359,3.3359,0,0,1,1.1676.21131l-4.4563,4.45617ZM16.8324,31.291l4.4563-4.45618A3.33724,3.33724,0,0,1,21.5,28.0023a3.504,3.504,0,0,1-3.5,3.5,3.33612,3.33612,0,0,1-1.1676-.2113Z" opacity=".07"/><path fill="#fff" d="M18,22.0023a6,6,0,1,0,6,6A6.00657,6.00657,0,0,0,18,22.0023Zm0,2a3.95554,3.95554,0,0,1,2.01929.56671l-5.45252,5.45246A3.95532,3.95532,0,0,1,14,28.0023,4.00428,4.00428,0,0,1,18,24.0023Zm0,8a3.95554,3.95554,0,0,1-2.01929-.56671l5.45252-5.45245A3.95528,3.95528,0,0,1,22,28.0023,4.00427,4.00427,0,0,1,18,32.0023Z"/></svg>