<svg xmlns="http://www.w3.org/2000/svg" viewBox="0 0 48 48"><linearGradient id="68eYG415keavd_aTvnRz0a" x1="-2.608" x2="30.711" y1="13.246" y2="46.564" gradientUnits="userSpaceOnUse"><stop offset="0" stop-color="#737be6"/><stop offset="1" stop-color="#4750b3"/></linearGradient><path fill="url(#68eYG415keavd_aTvnRz0a)" d="M11,27.5v1c0,0.276,0.224,0.5,0.5,0.5h1c0.276,0,0.5-0.224,0.5-0.5V27h-1.5 C11.224,27,11,27.224,11,27.5z"/><linearGradient id="68eYG415keavd_aTvnRz0b" x1="-5.181" x2="28.137" y1="15.819" y2="49.137" gradientUnits="userSpaceOnUse"><stop offset="0" stop-color="#737be6"/><stop offset="1" stop-color="#4750b3"/></linearGradient><path fill="url(#68eYG415keavd_aTvnRz0b)" d="M11.5,34h1c0.276,0,0.5-0.224,0.5-0.5v-1c0-0.276-0.224-0.5-0.5-0.5h-1 c-0.276,0-0.5,0.224-0.5,0.5v1C11,33.776,11.224,34,11.5,34z"/><linearGradient id="68eYG415keavd_aTvnRz0c" x1="3.819" x2="37.137" y1="6.819" y2="40.137" gradientUnits="userSpaceOnUse"><stop offset="0" stop-color="#737be6"/><stop offset="1" stop-color="#4750b3"/></linearGradient><path fill="url(#68eYG415keavd_aTvnRz0c)" d="M24.5,29h1c0.276,0,0.5-0.224,0.5-0.5v-1c0-0.276-0.224-0.5-0.5-0.5h-1 c-0.276,0-0.5,0.224-0.5,0.5v1C24,28.776,24.224,29,24.5,29z"/><linearGradient id="68eYG415keavd_aTvnRz0d" x1="9.496" x2="42.814" y1="1.142" y2="34.461" gradientUnits="userSpaceOnUse"><stop offset="0" stop-color="#737be6"/><stop offset="1" stop-color="#4750b3"/></linearGradient><path fill="url(#68eYG415keavd_aTvnRz0d)" d="M37,34h1.5c0.276,0,0.5-0.224,0.5-0.5V30h2.5c0.276,0,0.5-0.224,0.5-0.5v-1 c0-0.276-0.224-0.5-0.5-0.5H37v1.5V34z"/><linearGradient id="68eYG415keavd_aTvnRz0e" x1="18.319" x2="51.637" y1="-7.681" y2="25.637" gradientUnits="userSpaceOnUse"><stop offset="0" stop-color="#737be6"/><stop offset="1" stop-color="#4750b3"/></linearGradient><path fill="url(#68eYG415keavd_aTvnRz0e)" d="M41.5,14h-1c-0.276,0-0.5,0.224-0.5,0.5v1c0,0.276,0.224,0.5,0.5,0.5h1 c0.276,0,0.5-0.224,0.5-0.5v-1C42,14.224,41.776,14,41.5,14z"/><linearGradient id="68eYG415keavd_aTvnRz0f" x1="4.569" x2="37.887" y1="6.069" y2="39.387" gradientUnits="userSpaceOnUse"><stop offset="0" stop-color="#737be6"/><stop offset="1" stop-color="#4750b3"/></linearGradient><path fill="url(#68eYG415keavd_aTvnRz0f)" d="M41.5,9H39V6.5C39,6.224,38.776,6,38.5,6h-1C37.224,6,37,6.224,37,6.5V9h-3V6.5 C34,6.224,33.776,6,33.5,6h-1C32.224,6,32,6.224,32,6.5V9h-3V6.5C29,6.224,28.776,6,28.5,6h-1C27.224,6,27,6.224,27,6.5V12h-3V6.5 C24,6.224,23.776,6,23.5,6h-1C22.224,6,22,6.224,22,6.5V12h-3.5c-0.276,0-0.5,0.224-0.5,0.5V14h-1.5c-0.276,0-0.5,0.224-0.5,0.5V19 h-5v1.5c0,0.276,0.224,0.5,0.5,0.5H16v4h-2.5c-0.276,0-0.5,0.224-0.5,0.5V27h4.5c0.276,0,0.5-0.224,0.5-0.5V24h11v10h3v1.5 c0,0.276,0.224,0.5,0.5,0.5H35v4h-6v-6h-3v3h-4.5c-0.276,0-0.5,0.224-0.5,0.5V40h-3v-2.5c0-0.276-0.224-0.5-0.5-0.5h-3 c-0.276,0-0.5,0.224-0.5,0.5V40H8V19h3v-8H8V6.5C8,6.224,7.776,6,7.5,6h-1C6.224,6,6,6.224,6,6.5v35C6,41.776,6.224,42,6.5,42h35 c0.276,0,0.5-0.224,0.5-0.5v-1c0-0.276-0.224-0.5-0.5-0.5H37v-6h-3v-6h3v-2h-5v-2v-2H18v-6h3.5c0.276,0,0.5-0.224,0.5-0.5V14h5v3 h-2.5c-0.276,0-0.5,0.224-0.5,0.5v1c0,0.276,0.224,0.5,0.5,0.5h4c0.276,0,0.5-0.224,0.5-0.5V16h3.5h4c0.276,0,0.5-0.224,0.5-0.5V11 h4.5c0.276,0,0.5-0.224,0.5-0.5v-1C42,9.224,41.776,9,41.5,9z M29,11h3v3h-3V11z"/><linearGradient id="68eYG415keavd_aTvnRz0g" x1="10.319" x2="43.637" y1=".319" y2="33.637" gradientUnits="userSpaceOnUse"><stop offset="0" stop-color="#737be6"/><stop offset="1" stop-color="#4750b3"/></linearGradient><path fill="url(#68eYG415keavd_aTvnRz0g)" d="M16.5,8h1C17.776,8,18,7.776,18,7.5v-1C18,6.224,17.776,6,17.5,6h-1 C16.224,6,16,6.224,16,6.5v1C16,7.776,16.224,8,16.5,8z"/><linearGradient id="68eYG415keavd_aTvnRz0h" x1="13.246" x2="46.564" y1="-2.608" y2="30.711" gradientUnits="userSpaceOnUse"><stop offset="0" stop-color="#737be6"/><stop offset="1" stop-color="#4750b3"/></linearGradient><path fill="url(#68eYG415keavd_aTvnRz0h)" d="M42,21.5v-1c0-0.276-0.224-0.5-0.5-0.5H39v-1.5c0-0.276-0.224-0.5-0.5-0.5h-1 c-0.276,0-0.5,0.224-0.5,0.5V20h-4.5c-0.276,0-0.5,0.224-0.5,0.5V22h9.5C41.776,22,42,21.776,42,21.5z"/><linearGradient id="68eYG415keavd_aTvnRz0i" x1="12.496" x2="45.814" y1="-1.858" y2="31.461" gradientUnits="userSpaceOnUse"><stop offset="0" stop-color="#737be6"/><stop offset="1" stop-color="#4750b3"/></linearGradient><path fill="url(#68eYG415keavd_aTvnRz0i)" d="M42,25.5v-1c0-0.276-0.224-0.5-0.5-0.5h-4c-0.276,0-0.5,0.224-0.5,0.5V26h4.5 C41.776,26,42,25.776,42,25.5z"/><linearGradient id="68eYG415keavd_aTvnRz0j" x1="6.996" x2="40.314" y1="3.642" y2="36.961" gradientUnits="userSpaceOnUse"><stop offset="0" stop-color="#737be6"/><stop offset="1" stop-color="#4750b3"/></linearGradient><path fill="url(#68eYG415keavd_aTvnRz0j)" d="M13,10.5v-4C13,6.224,12.776,6,12.5,6h-1C11.224,6,11,6.224,11,6.5V11h1.5 C12.776,11,13,10.776,13,10.5z"/><linearGradient id="68eYG415keavd_aTvnRz0k" x1="1.319" x2="34.637" y1="9.319" y2="42.637" gradientUnits="userSpaceOnUse"><stop offset="0" stop-color="#737be6"/><stop offset="1" stop-color="#4750b3"/></linearGradient><path fill="url(#68eYG415keavd_aTvnRz0k)" d="M25.5,32h-1c-0.276,0-0.5,0.224-0.5,0.5v1c0,0.276,0.224,0.5,0.5,0.5H26v-1.5 C26,32.224,25.776,32,25.5,32z"/><linearGradient id="68eYG415keavd_aTvnRz0l" x1="-1.181" x2="32.137" y1="11.819" y2="45.137" gradientUnits="userSpaceOnUse"><stop offset="0" stop-color="#737be6"/><stop offset="1" stop-color="#4750b3"/></linearGradient><path fill="url(#68eYG415keavd_aTvnRz0l)" d="M16.5,34H19h1.5c0.276,0,0.5-0.224,0.5-0.5v-4c0-0.276-0.224-0.5-0.5-0.5h-1 c-0.276,0-0.5,0.224-0.5,0.5V32h-2.5c-0.276,0-0.5,0.224-0.5,0.5v1C16,33.776,16.224,34,16.5,34z"/><linearGradient id="68eYG415keavd_aTvnRz0m" x1="8.319" x2="41.637" y1="2.319" y2="35.637" gradientUnits="userSpaceOnUse"><stop offset="0" stop-color="#737be6"/><stop offset="1" stop-color="#4750b3"/></linearGradient><path fill="url(#68eYG415keavd_aTvnRz0m)" d="M41.5,34h-1c-0.276,0-0.5,0.224-0.5,0.5v1c0,0.276,0.224,0.5,0.5,0.5h1 c0.276,0,0.5-0.224,0.5-0.5v-1C42,34.224,41.776,34,41.5,34z"/></svg>