<svg xmlns="http://www.w3.org/2000/svg" viewBox="0 0 48 48"><linearGradient id="_tQ0Rd2cChhOQ4EFrQlKka" x1="20.453" x2="27.547" y1="3.887" y2="44.113" gradientUnits="userSpaceOnUse"><stop offset="0" stop-color="#33bef0"/><stop offset="1" stop-color="#22a5e2"/></linearGradient><path fill="url(#_tQ0Rd2cChhOQ4EFrQlKka)" d="M39,6H9c-3.314,0-6,2.686-6,6v24c0,3.314,2.686,6,6,6h30c3.314,0,6-2.686,6-6V12 C45,8.686,42.314,6,39,6L39,6z"/><linearGradient id="_tQ0Rd2cChhOQ4EFrQlKkb" x1="21.148" x2="26.852" y1="7.827" y2="40.173" gradientUnits="userSpaceOnUse"><stop offset="0" stop-color="#fafafb"/><stop offset=".293" stop-color="#f6f7f8"/><stop offset=".566" stop-color="#ebecee"/><stop offset=".832" stop-color="#d8dcdf"/><stop offset="1" stop-color="#c8cdd1"/></linearGradient><path fill="url(#_tQ0Rd2cChhOQ4EFrQlKkb)" d="M39,10c1.103,0,2,0.897,2,2v24c0,1.103-0.897,2-2,2H9c-1.103,0-2-0.897-2-2V12 c0-1.103,0.897-2,2-2H39"/></svg>