<svg xmlns="http://www.w3.org/2000/svg" viewBox="0 0 48 48"><linearGradient id="0Q~8Iqck6tOmgO59s1fpla" x1="6.426" x2="41.822" y1="6.426" y2="41.822" gradientTransform="translate(-.022 .12)" gradientUnits="userSpaceOnUse"><stop offset="0" stop-color="#199ae0"/><stop offset="1" stop-color="#0782d8"/></linearGradient><path fill="url(#0Q~8Iqck6tOmgO59s1fpla)" d="M41.364,4.157c-0.375-0.155-0.804-0.069-1.09,0.218L4.309,40.41	c-0.286,0.286-0.371,0.716-0.216,1.09c0.155,0.373,0.52,0.617,0.924,0.616l36-0.035c0.552-0.001,1-0.449,0.999-1.001l-0.035-36	C41.982,4.676,41.738,4.312,41.364,4.157z"/><path fill="#33d7f0" d="M35.01,34.087c-0.552,0.001-1,0.449-0.999,1.001l0.007,7l7-0.007c0.552-0.001,1-0.449,0.999-1.001	l-0.007-7L35.01,34.087z"/><path fill="#33d7f0" d="M9.159,35.551L4.309,40.41c-0.286,0.286-0.371,0.716-0.216,1.09c0.155,0.373,0.52,0.617,0.924,0.616	l7-0.007C12.015,39.518,10.912,37.191,9.159,35.551z"/></svg>