<svg xmlns="http://www.w3.org/2000/svg" viewBox="0 0 48 48"><linearGradient id="wmm8XNWWbT4rz9ptTjDnga" x1="24" x2="24" y1="1.141" y2="26.194" gradientUnits="userSpaceOnUse"><stop offset="0" stop-color="#889097"/><stop offset="1" stop-color="#4c5963"/></linearGradient><path fill="url(#wmm8XNWWbT4rz9ptTjDnga)" d="M41,27H7c0,0,0.52-2.27,1.14-5c0.28-1.22,0.58-2.54,0.86-3.78C9.1,17.8,9.19,17.39,9.28,17	c0.08-0.35,0.16-0.68,0.23-1c0.35-1.54,0.62-2.7,0.68-3c1.06-5,4.25-7,6.81-7c2.75,0,3.81,1,7,1s4.25-1,7-1c2.56,0,5.75,2,6.81,7	c0.06,0.29,0.32,1.46,0.67,3c0.07,0.32,0.15,0.65,0.23,1c0.1,0.4,0.19,0.83,0.29,1.26c0.28,1.23,0.58,2.53,0.86,3.74	C40.48,24.72,41,27,41,27z"/><linearGradient id="wmm8XNWWbT4rz9ptTjDngb" x1="24" x2="24" y1="46.999" y2="35.453" gradientUnits="userSpaceOnUse"><stop offset="0" stop-color="#6d7479"/><stop offset="1" stop-color="#45494d"/></linearGradient><path fill="url(#wmm8XNWWbT4rz9ptTjDngb)" d="M39.583,32.999h-12.75h-1.417h-2.833h-1.417H8.417C7.634,32.999,7,33.639,7,34.428l0,1.122	c0,3.731,3.401,7.062,7.083,7.416c3.765,0.362,7.757-2.188,8.417-5.716c0.142-0.762,0.731-1.25,1.5-1.25h0	c0.769,0,1.358,0.488,1.5,1.25c0.659,3.528,4.652,6.079,8.417,5.716C37.599,42.612,41,39.28,41,35.549v-1.122	C41,33.639,40.366,32.999,39.583,32.999z"/><linearGradient id="wmm8XNWWbT4rz9ptTjDngc" x1="24.5" x2="24.5" y1="18.913" y2="33.533" gradientUnits="userSpaceOnUse"><stop offset="0" stop-color="#dfe9f2"/><stop offset=".391" stop-color="#d6e0e9"/><stop offset="1" stop-color="#bfc8d1"/></linearGradient><rect width="5" height="5" x="22" y="17" fill="url(#wmm8XNWWbT4rz9ptTjDngc)"/><linearGradient id="wmm8XNWWbT4rz9ptTjDngd" x1="34.5" x2="34.5" y1="18.913" y2="33.533" gradientUnits="userSpaceOnUse"><stop offset="0" stop-color="#dfe9f2"/><stop offset=".391" stop-color="#d6e0e9"/><stop offset="1" stop-color="#bfc8d1"/></linearGradient><rect width="5" height="5" x="32" y="17" fill="url(#wmm8XNWWbT4rz9ptTjDngd)"/><rect width="5" height="5" x="27" y="17" fill="#343434"/><path fill="#343434" d="M39.86,22H37v-5h1.71c0.1,0.4,0.19,0.83,0.29,1.26C39.28,19.49,39.58,20.79,39.86,22z"/><rect width="5" height="5" x="17" y="17" fill="#343434"/><linearGradient id="wmm8XNWWbT4rz9ptTjDnge" x1="14.5" x2="14.5" y1="18.913" y2="33.533" gradientUnits="userSpaceOnUse"><stop offset="0" stop-color="#dfe9f2"/><stop offset=".391" stop-color="#d6e0e9"/><stop offset="1" stop-color="#bfc8d1"/></linearGradient><rect width="5" height="5" x="12" y="17" fill="url(#wmm8XNWWbT4rz9ptTjDnge)"/><path fill="#343434" d="M12,17v5H8.14c0.28-1.22,0.58-2.54,0.86-3.78C9.1,17.8,9.19,17.39,9.28,17H12z"/><linearGradient id="wmm8XNWWbT4rz9ptTjDngf" x1="19.5" x2="19.5" y1="18.913" y2="33.533" gradientUnits="userSpaceOnUse"><stop offset="0" stop-color="#dfe9f2"/><stop offset=".391" stop-color="#d6e0e9"/><stop offset="1" stop-color="#bfc8d1"/></linearGradient><rect width="5" height="5" x="17" y="22" fill="url(#wmm8XNWWbT4rz9ptTjDngf)"/><linearGradient id="wmm8XNWWbT4rz9ptTjDngg" x1="29.5" x2="29.5" y1="18.913" y2="33.533" gradientUnits="userSpaceOnUse"><stop offset="0" stop-color="#dfe9f2"/><stop offset=".391" stop-color="#d6e0e9"/><stop offset="1" stop-color="#bfc8d1"/></linearGradient><rect width="5" height="5" x="27" y="22" fill="url(#wmm8XNWWbT4rz9ptTjDngg)"/><linearGradient id="wmm8XNWWbT4rz9ptTjDngh" x1="39" x2="39" y1="18.913" y2="33.533" gradientUnits="userSpaceOnUse"><stop offset="0" stop-color="#dfe9f2"/><stop offset=".391" stop-color="#d6e0e9"/><stop offset="1" stop-color="#bfc8d1"/></linearGradient><path fill="url(#wmm8XNWWbT4rz9ptTjDngh)" d="M41,27h-4v-5h2.86C40.48,24.72,41,27,41,27z"/><rect width="5" height="5" x="22" y="22" fill="#343434"/><rect width="5" height="5" x="32" y="22" fill="#343434"/><rect width="5" height="5" x="12" y="22" fill="#343434"/><linearGradient id="wmm8XNWWbT4rz9ptTjDngi" x1="9.5" x2="9.5" y1="18.913" y2="33.533" gradientUnits="userSpaceOnUse"><stop offset="0" stop-color="#dfe9f2"/><stop offset=".391" stop-color="#d6e0e9"/><stop offset="1" stop-color="#bfc8d1"/></linearGradient><path fill="url(#wmm8XNWWbT4rz9ptTjDngi)" d="M12,22v5H7c0,0,0.52-2.27,1.14-5H12z"/><linearGradient id="wmm8XNWWbT4rz9ptTjDngj" x1="24" x2="24" y1="19.728" y2="31.688" gradientUnits="userSpaceOnUse"><stop offset="0" stop-color="#889097"/><stop offset="1" stop-color="#4c5963"/></linearGradient><path fill="url(#wmm8XNWWbT4rz9ptTjDngj)" d="M41,23L5.422,26l0,0.008C4.078,26.05,3,27.146,3,28.5C3,29.881,4.119,31,5.5,31H41	c2.209,0,4-1.791,4-4C45,24.791,43.209,23,41,23z"/><path d="M40,22.58c-0.04-0.16-0.08-0.32-0.12-0.49L7.5,24.82C7.46,25,7.42,25.17,7.38,25.33c-0.04,0.19-0.08,0.36-0.11,0.51 l32.84-2.76C40.07,22.92,40.03,22.75,40,22.58z" opacity=".05"/><path d="M40,22.58L7.38,25.33c-0.04,0.19-0.08,0.36-0.11,0.51l32.84-2.76C40.07,22.92,40.03,22.75,40,22.58z" opacity=".07"/></svg>