<svg xmlns="http://www.w3.org/2000/svg" viewBox="0 0 48 48"><radialGradient id="rm7HZJrrdpB~i6ZboJea~a" cx="43.956" cy="-194.256" r="46.071" gradientTransform="matrix(1 0 0 -1 0 -154)" gradientUnits="userSpaceOnUse"><stop offset="0" stop-color="#9e6fd9"/><stop offset=".173" stop-color="#aa73c7"/><stop offset=".522" stop-color="#ca7f97"/><stop offset="1" stop-color="#fc914d"/></radialGradient><path fill="url(#rm7HZJrrdpB~i6ZboJea~a)" d="M42,8H6c-1.105,0-2,0.895-2,2v28c0,1.105,0.895,2,2,2h36c1.105,0,2-0.895,2-2V10	C44,8.895,43.105,8,42,8z"/><path d="M9,39c-1.103,0-2-0.897-2-2v-5c0-1.103,0.897-2,2-2h30c1.103,0,2,0.897,2,2v5c0,1.103-0.897,2-2,2H9z" opacity=".05"/><path d="M9,38.5c-0.827,0-1.5-0.673-1.5-1.5v-5c0-0.827,0.673-1.5,1.5-1.5h30c0.827,0,1.5,0.673,1.5,1.5v5	c0,0.827-0.673,1.5-1.5,1.5H9z" opacity=".07"/><path fill="#fff" d="M39,38H9c-0.552,0-1-0.448-1-1v-5c0-0.552,0.448-1,1-1h30c0.552,0,1,0.448,1,1v5	C40,37.552,39.552,38,39,38z"/><linearGradient id="rm7HZJrrdpB~i6ZboJea~b" x1="11.5" x2="11.5" y1="31.383" y2="35.903" gradientUnits="userSpaceOnUse"><stop offset="0" stop-color="#28afea"/><stop offset="1" stop-color="#0b88da"/></linearGradient><path fill="url(#rm7HZJrrdpB~i6ZboJea~b)" d="M12.5,36h-2c-0.276,0-0.5-0.224-0.5-0.5v-2c0-0.276,0.224-0.5,0.5-0.5h2	c0.276,0,0.5,0.224,0.5,0.5v2C13,35.776,12.776,36,12.5,36z"/><linearGradient id="rm7HZJrrdpB~i6ZboJea~c" x1="16.5" x2="16.5" y1="31.383" y2="35.903" gradientUnits="userSpaceOnUse"><stop offset="0" stop-color="#28afea"/><stop offset="1" stop-color="#0b88da"/></linearGradient><path fill="url(#rm7HZJrrdpB~i6ZboJea~c)" d="M17.5,35h-2c-0.276,0-0.5-0.224-0.5-0.5v-2c0-0.276,0.224-0.5,0.5-0.5h2	c0.276,0,0.5,0.224,0.5,0.5v2C18,34.776,17.776,35,17.5,35z"/><linearGradient id="rm7HZJrrdpB~i6ZboJea~d" x1="21.5" x2="21.5" y1="31.383" y2="35.903" gradientUnits="userSpaceOnUse"><stop offset="0" stop-color="#28afea"/><stop offset="1" stop-color="#0b88da"/></linearGradient><path fill="url(#rm7HZJrrdpB~i6ZboJea~d)" d="M22.5,36h-2c-0.276,0-0.5-0.224-0.5-0.5v-2c0-0.276,0.224-0.5,0.5-0.5h2	c0.276,0,0.5,0.224,0.5,0.5v2C23,35.776,22.776,36,22.5,36z"/><linearGradient id="rm7HZJrrdpB~i6ZboJea~e" x1="26.5" x2="26.5" y1="31.383" y2="35.903" gradientUnits="userSpaceOnUse"><stop offset="0" stop-color="#28afea"/><stop offset="1" stop-color="#0b88da"/></linearGradient><path fill="url(#rm7HZJrrdpB~i6ZboJea~e)" d="M27.5,36h-2c-0.276,0-0.5-0.224-0.5-0.5v-2c0-0.276,0.224-0.5,0.5-0.5h2	c0.276,0,0.5,0.224,0.5,0.5v2C28,35.776,27.776,36,27.5,36z"/><linearGradient id="rm7HZJrrdpB~i6ZboJea~f" x1="31.5" x2="31.5" y1="31.383" y2="35.903" gradientUnits="userSpaceOnUse"><stop offset="0" stop-color="#28afea"/><stop offset="1" stop-color="#0b88da"/></linearGradient><path fill="url(#rm7HZJrrdpB~i6ZboJea~f)" d="M32.5,36h-2c-0.276,0-0.5-0.224-0.5-0.5v-2c0-0.276,0.224-0.5,0.5-0.5h2	c0.276,0,0.5,0.224,0.5,0.5v2C33,35.776,32.776,36,32.5,36z"/><linearGradient id="rm7HZJrrdpB~i6ZboJea~g" x1="36.5" x2="36.5" y1="31.383" y2="35.903" gradientUnits="userSpaceOnUse"><stop offset="0" stop-color="#28afea"/><stop offset="1" stop-color="#0b88da"/></linearGradient><path fill="url(#rm7HZJrrdpB~i6ZboJea~g)" d="M37.5,36h-2c-0.276,0-0.5-0.224-0.5-0.5v-2c0-0.276,0.224-0.5,0.5-0.5h2	c0.276,0,0.5,0.224,0.5,0.5v2C38,35.776,37.776,36,37.5,36z"/></svg>