<svg xmlns="http://www.w3.org/2000/svg" data-name="Слой 1" viewBox="0 0 48 48"><defs><linearGradient id="NXYEmKMrF2jK8cKOS78A8a" x1="41.901" x2="11.444" y1="24.648" y2="26.474" data-name="Безымянный градиент 57" gradientUnits="userSpaceOnUse"><stop offset=".863" stop-color="#c93702"/><stop offset=".895" stop-color="#ba3202"/><stop offset=".957" stop-color="#922704"/><stop offset=".98" stop-color="#822204"/></linearGradient></defs><path fill="url(#NXYEmKMrF2jK8cKOS78A8a)" d="M45,14V38a2.00591,2.00591,0,0,1-2,2H12V16l17-6v6l1-.37V21l2-1v5.5l1.5-.75V32L36,21l-2,1,1-6-2,1V14.5L40,11l1,1,2-1,.19.75L44,15Z"/><path fill="#a60f0f" d="M30,10v4H28V11.41L12.33,16.94A.96085.96085,0,0,1,12,17a.99858.99858,0,0,1-.33-1.94l17-6A.98968.98968,0,0,1,30,10Z"/><path fill="#d43a02" d="M14,40H5.11a1.99842,1.99842,0,0,1-1.99-2.11L4.45,14l.2-3.71L4.67,10l.26-4.71L6,7,8,6,9,9l1-1,.67,2L11,11l1.35-.67.01.18L12.55,14Z"/><polygon fill="#a8a8a8" points="13.667 34 13.444 30 3.556 30 3.333 34 13.667 34"/><polygon fill="#a8a8a8" points="4.111 20 3.889 24 13.111 24 12.889 20 4.111 20"/><polygon fill="#a8a8a8" points="12.56 14 4.44 14 4.65 10.29 4.67 10 10.67 10 11 11 12.35 10.33 12.36 10.51 12.56 14"/><rect width="2" height="2" x="40" y="20" fill="#343434"/><rect width="2" height="2" x="24" y="20" fill="#343434"/><rect width="2" height="2" x="20" y="20" fill="#343434"/><rect width="2" height="2" x="16" y="20" fill="#343434"/><rect width="2" height="2" x="40" y="26" fill="#343434"/><rect width="2" height="2" x="36" y="26" fill="#343434"/><rect width="2" height="2" x="28" y="26" fill="#343434"/><rect width="2" height="2" x="24" y="26" fill="#343434"/><rect width="2" height="2" x="20" y="26" fill="#343434"/><rect width="2" height="2" x="16" y="26" fill="#343434"/><rect width="2" height="2" x="40" y="32" fill="#343434"/><rect width="2" height="2" x="36" y="32" fill="#343434"/><rect width="2" height="2" x="28" y="32" fill="#343434"/><rect width="2" height="2" x="24" y="32" fill="#343434"/><rect width="2" height="2" x="20" y="32" fill="#343434"/><rect width="2" height="2" x="16" y="32" fill="#343434"/><path fill="#a60f0f" d="M28,11h2a0,0,0,0,1,0,0v5a1,1,0,0,1-1,1h0a1,1,0,0,1-1-1V11a0,0,0,0,1,0,0Z"/></svg>