<svg xmlns="http://www.w3.org/2000/svg" viewBox="0 0 48 48"><linearGradient id="qbzrvrKVD4N6P9oevbgOHa" x1="-.876" x2="23.827" y1="3.224" y2="27.927" gradientUnits="userSpaceOnUse"><stop offset=".002" stop-color="#427fdb"/><stop offset=".397" stop-color="#2668cb"/><stop offset=".763" stop-color="#1358bf"/><stop offset="1" stop-color="#0c52bb"/></linearGradient><path fill="url(#qbzrvrKVD4N6P9oevbgOHa)" d="M24,42H10c-2.209,0-4-1.791-4-4V24c0-9.941,8.059-18,18-18h0c9.941,0,18,8.059,18,18v0	C42,33.941,33.941,42,24,42z"/><path d="M28.5,13c3.03,0,5.5,2.47,5.5,5.5c0,1.32-0.59,2.54-0.66,2.67c-0.263,0.525-0.792,0.828-1.341,0.828 c-0.225,0-0.454-0.051-0.669-0.158c-0.74-0.37-1.04-1.27-0.67-2.01C30.75,19.64,31,19.02,31,18.5c0-1.38-1.12-2.5-2.5-2.5 S26,17.12,26,18.5V23h2.5c0.83,0,1.5,0.67,1.5,1.5c0,0.83-0.67,1.5-1.5,1.5H26v4c0,3.86-3.14,7-7,7s-7-3.14-7-7s3.14-7,7-7h2v3h-2 c-2.21,0-4,1.79-4,4c0,2.21,1.79,4,4,4s4-1.79,4-4V18.5C23,15.47,25.47,13,28.5,13 M28.5,12c-3.584,0-6.5,2.916-6.5,6.5V22h-1h-2 c-4.411,0-8,3.589-8,8s3.589,8,8,8s8-3.589,8-8v-3h1.5c1.379,0,2.5-1.122,2.5-2.5S29.879,22,28.5,22H27v-3.5 c0-0.827,0.673-1.5,1.5-1.5s1.5,0.673,1.5,1.5c0,0.264-0.145,0.694-0.244,0.902c-0.607,1.213-0.106,2.717,1.126,3.333 c0.345,0.173,0.731,0.264,1.116,0.264c0.953,0,1.81-0.529,2.236-1.381c0,0,0,0,0,0c0,0,0.766-1.448,0.766-3.117 C35,14.916,32.084,12,28.5,12L28.5,12z M19,33c-1.654,0-3-1.346-3-3s1.346-3,3-3h2h1v3C22,31.654,20.654,33,19,33L19,33z" opacity=".05"/><path d="M28.5,13c3.03,0,5.5,2.47,5.5,5.5c0,1.32-0.59,2.54-0.66,2.67c-0.263,0.525-0.792,0.828-1.341,0.828 c-0.225,0-0.454-0.051-0.669-0.158c-0.74-0.37-1.04-1.27-0.67-2.01C30.75,19.64,31,19.02,31,18.5c0-1.38-1.12-2.5-2.5-2.5 S26,17.12,26,18.5V23h2.5c0.83,0,1.5,0.67,1.5,1.5c0,0.83-0.67,1.5-1.5,1.5H26v4c0,3.86-3.14,7-7,7s-7-3.14-7-7s3.14-7,7-7h2v3h-2 c-2.21,0-4,1.79-4,4c0,2.21,1.79,4,4,4s4-1.79,4-4V18.5C23,15.47,25.47,13,28.5,13 M28.5,12.5c-3.308,0-6,2.692-6,6V30 c0,1.93-1.57,3.5-3.5,3.5s-3.5-1.57-3.5-3.5s1.57-3.5,3.5-3.5h2h0.5V26v-3v-0.5H21h-2c-4.136,0-7.5,3.365-7.5,7.5 s3.364,7.5,7.5,7.5s7.5-3.365,7.5-7.5v-3.5h2c1.103,0,2-0.897,2-2s-0.897-2-2-2h-2v-4c0-1.103,0.897-2,2-2s2,0.897,2,2 c0,0.364-0.179,0.878-0.292,1.116c-0.488,0.976-0.087,2.179,0.898,2.671c0.28,0.14,0.581,0.211,0.892,0.211 c0.762,0,1.448-0.423,1.788-1.105c0,0,0.713-1.367,0.713-2.894C34.5,15.192,31.808,12.5,28.5,12.5L28.5,12.5z" opacity=".07"/><path fill="#fff" d="M28.5,13c-3.03,0-5.5,2.47-5.5,5.5V30c0,2.21-1.79,4-4,4s-4-1.79-4-4c0-2.21,1.79-4,4-4h2v-3h-2 c-3.86,0-7,3.14-7,7s3.14,7,7,7s7-3.14,7-7v-4h2.5c0.83,0,1.5-0.67,1.5-1.5c0-0.83-0.67-1.5-1.5-1.5H26v-4.5 c0-1.38,1.12-2.5,2.5-2.5s2.5,1.12,2.5,2.5c0,0.52-0.25,1.14-0.34,1.33c-0.37,0.74-0.07,1.64,0.67,2.01s1.64,0.07,2.01-0.67 C33.41,21.04,34,19.82,34,18.5C34,15.47,31.53,13,28.5,13z"/></svg>