<svg xmlns="http://www.w3.org/2000/svg" viewBox="0 0 48 48"><linearGradient id="thOtO9fb4ymXhNTYyZNvVa" x1="33" x2="42" y1="10.5" y2="10.5" gradientUnits="userSpaceOnUse"><stop offset="0" stop-color="#ffcf47"/><stop offset=".261" stop-color="#ffcb3f"/><stop offset=".639" stop-color="#ffc123"/><stop offset="1" stop-color="#ffb400"/></linearGradient><circle cx="37.5" cy="10.5" r="4.5" fill="url(#thOtO9fb4ymXhNTYyZNvVa)"/><linearGradient id="thOtO9fb4ymXhNTYyZNvVb" x1="22.35" x2="22.35" y1="17.187" y2="44.197" gradientUnits="userSpaceOnUse"><stop offset=".408" stop-color="#00b4f0"/><stop offset="1" stop-color="#0082db"/></linearGradient><path fill="url(#thOtO9fb4ymXhNTYyZNvVb)" d="M39.33,23.7l-6.62,12.14c-0.44,0.8-1.1,1.4-1.87,1.75c-0.57,0.28-1.2,0.42-1.83,0.41	c-0.48-0.01-0.96-0.1-1.43-0.28l-11.11-4.33C13.64,36.59,10.82,39.8,8,43c-1.03,0.92-2.44,0.75-3,0c-0.38-0.52-0.37-1.31,0-2	c3.2-4.95,5.41-8.9,8.61-13.85c0.66-0.89,1.79-1.3,2.86-1.04l7.52,1.79l2.29,0.54l0.03-0.05l5.63-9.34	c1.25-1.98,3.53-2.51,5.52-1.63C39.77,18.44,40.73,21.47,39.33,23.7z"/><path fill="#53616a" d="M34,44h-2c-1-2-1.99-4-2.99-6c-1.67-3.36-3.34-6.73-5.02-10.1l2.29,0.54l0.03-0.05	c1.51,3.07,3.02,6.13,4.53,9.2C31.89,39.73,32.95,41.86,34,44z"/><path fill="#53616a" d="M38.981,18.679c0.275,0.478,0.502,0.989,0.668,1.53c0.002,0.007,0.003,0.014,0.005,0.021L46,16v-2	L38.981,18.679z"/><linearGradient id="thOtO9fb4ymXhNTYyZNvVc" x1="18" x2="18" y1="3.275" y2="23.055" gradientUnits="userSpaceOnUse"><stop offset="0" stop-color="#f29100"/><stop offset="1" stop-color="#e84e1b"/></linearGradient><path fill="url(#thOtO9fb4ymXhNTYyZNvVc)" d="M25.071,5.929C23.183,4.04,20.671,3,18,3s-5.183,1.04-7.071,2.929	c-3.899,3.899-3.899,10.243,0,14.142C12.817,21.96,15.329,23,18,23s5.183-1.04,7.071-2.929C28.971,16.172,28.971,9.828,25.071,5.929	z M22.704,6.539L18,11.243l-4.704-4.704C14.655,5.545,16.284,5,18,5S21.345,5.545,22.704,6.539z M11.835,7.906l4.751,4.751	l-5.046,5.046C9.407,14.777,9.501,10.725,11.835,7.906z M12.905,19.167L18,14.071l5.095,5.096C21.664,20.353,19.882,21,18,21	S14.336,20.353,12.905,19.167z M24.46,17.703l-5.046-5.046l4.751-4.751C26.499,10.725,26.593,14.777,24.46,17.703z"/></svg>