<svg xmlns="http://www.w3.org/2000/svg" xmlns:xlink="http://www.w3.org/1999/xlink" data-name="Слой 1" viewBox="0 0 48 48"><defs><linearGradient id="wRey0IhO4Xm54PMT8xSJEh" x1="15.834" x2="26.491" y1="25.633" y2="36.29" data-name="Безымянный градиент 39" xlink:href="#wRey0IhO4Xm54PMT8xSJEc"/><linearGradient id="wRey0IhO4Xm54PMT8xSJEa" x1="28.339" x2="36.9" y1="337.069" y2="320.412" data-name="Безымянный градиент 4" gradientTransform="matrix(1 0 0 -1 .174 339.925)" gradientUnits="userSpaceOnUse"><stop offset="0" stop-color="#42a3f2"/><stop offset="1" stop-color="#42a4eb"/></linearGradient><linearGradient id="wRey0IhO4Xm54PMT8xSJEe" x1="-2228.572" x2="-2220.01" y1="338.131" y2="321.474" gradientTransform="rotate(-179.945 -1104.615 169.946)" xlink:href="#wRey0IhO4Xm54PMT8xSJEa"/><linearGradient id="wRey0IhO4Xm54PMT8xSJEf" x1="-2226.254" x2="-2226.254" y1="321.058" y2="334.3" gradientTransform="rotate(180 -1104.269 170)" xlink:href="#wRey0IhO4Xm54PMT8xSJEb"/><linearGradient id="wRey0IhO4Xm54PMT8xSJEg" x1="24" x2="24" y1="321.058" y2="334.3" gradientTransform="matrix(1 0 0 -1 0 340)" xlink:href="#wRey0IhO4Xm54PMT8xSJEa"/><linearGradient id="wRey0IhO4Xm54PMT8xSJEc" x1="33" x2="39" y1="316" y2="316" data-name="Безымянный градиент 2" gradientTransform="matrix(1 0 0 -1 0 340)" gradientUnits="userSpaceOnUse"><stop offset="0" stop-color="#ffcf54"/><stop offset=".261" stop-color="#fdcb4d"/><stop offset=".639" stop-color="#f7c13a"/><stop offset="1" stop-color="#f0b421"/></linearGradient><linearGradient id="wRey0IhO4Xm54PMT8xSJEb" x1="30.284" x2="30.284" y1="321.058" y2="334.3" data-name="Безымянный градиент 9" gradientTransform="matrix(1 0 0 -1 0 340)" gradientUnits="userSpaceOnUse"><stop offset="0" stop-color="#3079d6"/><stop offset="1" stop-color="#297cd2"/></linearGradient><linearGradient id="wRey0IhO4Xm54PMT8xSJEi" x1="24.021" x2="24.021" y1="42.587" y2="24.239" data-name="Безымянный градиент 137" gradientUnits="userSpaceOnUse"><stop offset="0" stop-color="#ffda94"/><stop offset="1" stop-color="#fff0ce"/></linearGradient><linearGradient id="wRey0IhO4Xm54PMT8xSJEd" x1="5.236" x2="42.847" y1="33.82" y2="33.82" data-name="Безымянный градиент 37" gradientUnits="userSpaceOnUse"><stop offset="0" stop-color="#d97218"/><stop offset=".56" stop-color="#c46716"/><stop offset="1" stop-color="#ba6215"/></linearGradient><linearGradient id="wRey0IhO4Xm54PMT8xSJEj" x1="-3.932" x2="42.758" y1="39" y2="39" xlink:href="#wRey0IhO4Xm54PMT8xSJEd"/><linearGradient id="wRey0IhO4Xm54PMT8xSJEk" x1="2.196" x2="41.794" y1="38" y2="38" xlink:href="#wRey0IhO4Xm54PMT8xSJEd"/><linearGradient id="wRey0IhO4Xm54PMT8xSJEl" x1="5.196" x2="44.794" y1="40.5" y2="40.5" xlink:href="#wRey0IhO4Xm54PMT8xSJEd"/><linearGradient id="wRey0IhO4Xm54PMT8xSJEm" x1="20.02" x2="27" y1="33" y2="33" xlink:href="#wRey0IhO4Xm54PMT8xSJEb"/></defs><path fill="#64717c" d="M23,12h2a0,0,0,0,1,0,0V42a1,1,0,0,1-1,1h0a1,1,0,0,1-1-1V12A0,0,0,0,1,23,12Z"/><path fill="#d6a121" d="M25.87189,31.77942,18.963,26.65192l-.08142-.06055a1.51449,1.51449,0,0,0-2.028.21259L11.30811,33.028a1.0031,1.0031,0,0,0,1.38378,1.444L18.082,30.0661l6.04614,4.15448a1.50023,1.50023,0,0,0,1.74372-2.44116Z"/><path fill="url(#wRey0IhO4Xm54PMT8xSJEa)" d="M41,16.96964,36.75,17S29.1,5,23.98385,5C38.45,5,41,16.96964,41,16.96964Z"/><path fill="url(#wRey0IhO4Xm54PMT8xSJEb)" d="M37,17a6.362,6.362,0,0,1-4.06251,2A5.89948,5.89948,0,0,1,29,17S21.75669,5,24,5C32.93749,5,37,14.52941,37,17Z"/><path fill="url(#wRey0IhO4Xm54PMT8xSJEe)" d="M7,16.96964,11.25,17S18.9,5,24.01615,5C9.55,5,7,16.96964,7,16.96964Z"/><path fill="url(#wRey0IhO4Xm54PMT8xSJEf)" d="M11,17a6.362,6.362,0,0,0,4.0625,2A5.89948,5.89948,0,0,0,19,17S26.24331,5,24,5C15.0625,5,11,14.52941,11,17Z"/><path fill="url(#wRey0IhO4Xm54PMT8xSJEg)" d="M29,17a8.73261,8.73261,0,0,1-5,2,8.73261,8.73261,0,0,1-5-2C19,5.47059,24,5,24,5S29,5.47059,29,17Z"/><path fill="url(#wRey0IhO4Xm54PMT8xSJEc)" d="M33,24a3,3,0,1,0,2.9985-3A2.99981,2.99981,0,0,0,33,24Z"/><path fill="url(#wRey0IhO4Xm54PMT8xSJEh)" d="M34,29.62A3.37583,3.37583,0,0,1,30.62,33c-.11,0-.22-.02-.33-.03L28,35H10.07a1.0703,1.0703,0,0,1-.15-2.13l10.1-1.34L24,31l4.17-3.68a3.33718,3.33718,0,0,1,2.45-1.07A3.3737,3.3737,0,0,1,34,29.62Z"/><g><path fill="url(#wRey0IhO4Xm54PMT8xSJEi)" d="M27.49316,38H8.5a1.5,1.5,0,0,1,0-3H27l11.65234-8.31787a1.49986,1.49986,0,1,1,1.7793,2.415L28.38281,37.70752A1.49948,1.49948,0,0,1,27.49316,38Z"/><path fill="url(#wRey0IhO4Xm54PMT8xSJEd)" d="M27.99316,40H7a1,1,0,0,1,0-2H27.65625L41.43652,27.84375a1,1,0,0,1,1.21094,1.5918L28.59863,39.7959A1.00006,1.00006,0,0,1,27.99316,40Z"/><path fill="url(#wRey0IhO4Xm54PMT8xSJEj)" d="M42,40H27.49316a1,1,0,0,1,0-2H42a1,1,0,0,1,0,2Z"/><path fill="url(#wRey0IhO4Xm54PMT8xSJEk)" d="M38,43a.99974.99974,0,0,1-1-1V38.65918l-1.91211-4.249a1.00009,1.00009,0,0,1,1.82422-.82032l2,4.44434A1.00513,1.00513,0,0,1,39,38.44434V42A.99974.99974,0,0,1,38,43Z"/><path fill="url(#wRey0IhO4Xm54PMT8xSJEl)" d="M11,43a.99974.99974,0,0,1-1-1V39a1,1,0,0,1,2,0v3A.99974.99974,0,0,1,11,43Z"/></g><polygon fill="url(#wRey0IhO4Xm54PMT8xSJEm)" points="27 35 23 35 20.02 31.53 24 31 27 35"/><path fill="#ffcf54" d="M25,28a1,1,0,1,0,1,1A1.00036,1.00036,0,0,0,25,28Z"/><path fill="#ffcf54" d="M24.262,29.67456l3.15619,3.84051a1,1,0,0,0,1.37667.20769l4.03493-2.89486a1.22316,1.22316,0,0,0,.20958-1.80079h0a1.22316,1.22316,0,0,0-1.78543-.05945L28.5,31.5l-2.71058-3.11365Z"/></svg>