<svg xmlns="http://www.w3.org/2000/svg" viewBox="0 0 48 48"><path fill="#e8457c" d="M41,24V8c0-1.105-0.895-2-2-2H12c-1.105,0-2,0.895-2,2v16H41z"/><path fill="#8c193f" d="M41,24v16c0,1.105-0.895,2-2,2H12c-1.105,0-2-0.895-2-2V24H41z"/><path fill="#bc1948" d="M41,24H10V11h32.001c1.286,0,2.238,1.196,1.949,2.45L41,24z"/><path fill="#e8457c" d="M41,24H10v13h32.001c1.286,0,2.238-1.196,1.949-2.45L41,24z"/><path d="M21.33,13H10v24h11.33c2.033,0,3.681-1.648,3.681-3.681V16.681 C25.011,14.648,23.363,13,21.33,13z" opacity=".05"/><path d="M21.224,36H10V13.333h11.224c1.724,0,3.121,1.397,3.121,3.121v16.425 C24.344,34.603,22.947,36,21.224,36z" opacity=".07"/><path d="M21.117,35H10V13.667h11.117c1.414,0,2.56,1.146,2.56,2.56V32.44 C23.678,33.854,22.531,35,21.117,35z" opacity=".09"/><linearGradient id="iRik~_HRmqYaCo4pLX42da" x1="3.541" x2="22.421" y1="511.47" y2="492.59" gradientTransform="matrix(1 0 0 -1 0 526)" gradientUnits="userSpaceOnUse"><stop offset="0" stop-color="#c32050"/><stop offset=".5" stop-color="#bc1948"/><stop offset="1" stop-color="#9c1942"/></linearGradient><path fill="url(#iRik~_HRmqYaCo4pLX42da)" d="M21.011,34h-16c-1.105,0-2-0.895-2-2V16c0-1.105,0.895-2,2-2h16c1.105,0,2,0.895,2,2v16 C23.011,33.105,22.116,34,21.011,34z"/><path fill="#fff" d="M8.802,18.569h3.477c1.58-0.115,3.146,0.365,4.389,1.346c1.044,1.029,1.586,2.463,1.486,3.925 c0.021,1.019-0.233,2.024-0.735,2.911c-0.488,0.837-1.21,1.514-2.078,1.946c-0.971,0.475-2.042,0.71-3.122,0.686H8.802V18.569z M12.234,27.642c0.687,0.018,1.368-0.136,1.98-0.449c0.548-0.291,0.993-0.744,1.275-1.297c0.308-0.627,0.459-1.319,0.441-2.017 c0.064-0.97-0.278-1.923-0.943-2.632c-0.749-0.657-1.729-0.988-2.723-0.92h-1.35v7.315H12.234z"/></svg>