<svg xmlns="http://www.w3.org/2000/svg" width="48" height="48" viewBox="0 0 48 48"><linearGradient id="4qgQZHLJNTeSYW0~W~5wHa" x1="1" x2="47" y1="22.492" y2="22.492" gradientUnits="userSpaceOnUse"><stop offset="0" stop-color="#32bdef"/><stop offset="1" stop-color="#1ea2e4"/></linearGradient><path fill="url(#4qgQZHLJNTeSYW0~W~5wHa)" d="M24,33.036c6.37,0,12.268,1.464,17.105,3.948L47,15c-6.218-4.336-14.966-7.009-23-7	c-8.034-0.009-16.782,2.664-23,7l5.895,21.984C11.732,34.5,17.63,33.036,24,33.036z"/><linearGradient id="4qgQZHLJNTeSYW0~W~5wHb" x1="10" x2="40.16" y1="25.088" y2="25.088" gradientUnits="userSpaceOnUse"><stop offset="0" stop-color="#50e6ff"/><stop offset="1" stop-color="#35c1f1"/></linearGradient><path fill="url(#4qgQZHLJNTeSYW0~W~5wHb)" d="M24.16,14c-2.711,0-5.262,0.77-7.5,2.041C14.699,14.927,12.339,14.155,10,14v17	c1.804,0.241,3.819,0.952,5.252,2.85c0.016,0.045,0.028,0.094,0.041,0.143c2.755-0.615,5.674-0.956,8.707-0.956	c4.931,0,9.571,0.885,13.663,2.433c0.106,0.04,0.208,0.085,0.314,0.126c0.463,0.18,0.927,0.361,1.375,0.558	c0.019,0.008,0.039,0.015,0.058,0.023c0.469-1.597,0.75-3.282,0.75-5.044C40.16,21.695,32.997,14,24.16,14z"/><linearGradient id="4qgQZHLJNTeSYW0~W~5wHc" x1="10" x2="17.771" y1="32.013" y2="32.013" gradientUnits="userSpaceOnUse"><stop offset="0" stop-color="#636363"/><stop offset=".998" stop-color="#3b3b3b"/></linearGradient><path fill="url(#4qgQZHLJNTeSYW0~W~5wHc)" d="M15.797,40.255L12.208,25H10v-2h3c0.464,0,0.867,0.319,0.973,0.771l3.771,16.026	C17.871,40.335,17.538,40.873,17,41h0C16.463,41.127,15.924,40.793,15.797,40.255z"/><linearGradient id="4qgQZHLJNTeSYW0~W~5wHd" x1="24" x2="31.771" y1="32.013" y2="32.013" gradientUnits="userSpaceOnUse"><stop offset="0" stop-color="#636363"/><stop offset=".998" stop-color="#3b3b3b"/></linearGradient><path fill="url(#4qgQZHLJNTeSYW0~W~5wHd)" d="M29.797,40.255L26.208,25H24v-2h3c0.464,0,0.867,0.319,0.974,0.771l3.771,16.026	C31.871,40.335,31.538,40.873,31,41h0C30.463,41.127,29.924,40.793,29.797,40.255z"/><radialGradient id="4qgQZHLJNTeSYW0~W~5wHe" cx="30.354" cy="38.521" r="2.036" gradientUnits="userSpaceOnUse"><stop offset="0"/><stop offset="1" stop-opacity="0"/></radialGradient><path fill="url(#4qgQZHLJNTeSYW0~W~5wHe)" d="M30.855,36.015c-0.701,0.026-1.353,0.234-1.919,0.579	l0.861,3.661C29.924,40.793,30.463,41.127,31,41c0.538-0.127,0.871-0.665,0.744-1.203L30.855,36.015z" opacity=".15"/><linearGradient id="4qgQZHLJNTeSYW0~W~5wHf" x1="28.16" x2="33.16" y1="40.544" y2="40.544" gradientUnits="userSpaceOnUse"><stop offset="0" stop-color="#636363"/><stop offset=".998" stop-color="#3b3b3b"/></linearGradient><circle cx="30.66" cy="40.544" r="2.5" fill="url(#4qgQZHLJNTeSYW0~W~5wHf)"/><radialGradient id="4qgQZHLJNTeSYW0~W~5wHg" cx="16.306" cy="38.513" r="2.057" gradientUnits="userSpaceOnUse"><stop offset="0"/><stop offset="1" stop-opacity="0"/></radialGradient><path fill="url(#4qgQZHLJNTeSYW0~W~5wHg)" d="M14.841,36.193l0.956,4.063	C15.924,40.793,16.463,41.127,17,41c0.538-0.127,0.871-0.665,0.744-1.203l-0.869-3.693C16.593,36.04,16.301,36,16,36	C15.595,36,15.211,36.079,14.841,36.193z" opacity=".15"/><linearGradient id="4qgQZHLJNTeSYW0~W~5wHh" x1="14.16" x2="19.16" y1="40.544" y2="40.544" gradientUnits="userSpaceOnUse"><stop offset="0" stop-color="#636363"/><stop offset=".998" stop-color="#3b3b3b"/></linearGradient><circle cx="16.66" cy="40.544" r="2.5" fill="url(#4qgQZHLJNTeSYW0~W~5wHh)"/><path d="M10.001,13.5c0,0-0.001,0-0.001,0C9.963,13.5,9.976,13.5,10.001,13.5z" opacity=".07"/><rect width="1" height="2" x="10.5" y="23" opacity=".07"/><rect width="1" height="2" x="24.5" y="23" opacity=".07"/><rect width="2" height="2" x="10" y="23" opacity=".05"/><rect width="2" height="2" x="24" y="23" opacity=".07"/><linearGradient id="4qgQZHLJNTeSYW0~W~5wHi" x1="9" x2="11" y1="22.5" y2="22.5" gradientUnits="userSpaceOnUse"><stop offset="0" stop-color="#636363"/><stop offset=".998" stop-color="#3b3b3b"/></linearGradient><path fill="url(#4qgQZHLJNTeSYW0~W~5wHi)" d="M10,14L10,14c0.552,0,1,0.448,1,1v15c0,0.552-0.448,1-1,1h0c-0.552,0-1-0.448-1-1V15	C9,14.448,9.448,14,10,14z"/><linearGradient id="4qgQZHLJNTeSYW0~W~5wHj" x1="23" x2="25" y1="22.5" y2="22.5" gradientUnits="userSpaceOnUse"><stop offset="0" stop-color="#636363"/><stop offset=".998" stop-color="#3b3b3b"/></linearGradient><path fill="url(#4qgQZHLJNTeSYW0~W~5wHj)" d="M24,14L24,14c0.552,0,1,0.448,1,1v15c0,0.552-0.448,1-1,1h0c-0.552,0-1-0.448-1-1V15	C23,14.448,23.448,14,24,14z"/></svg>