<svg xmlns="http://www.w3.org/2000/svg" viewBox="0 0 48 48"><linearGradient id="ZF7KHQonM6uh309PGwkaJa" x1="24" x2="24" y1="20.927" y2="35.992" gradientUnits="userSpaceOnUse"><stop offset="0" stop-color="#2aa4f4"/><stop offset="1" stop-color="#007ad9"/></linearGradient><path fill="url(#ZF7KHQonM6uh309PGwkaJa)" d="M42,22c-1.657,0-3-1-3-1s-1.343,1-3,1s-3-1-3-1s-1.343,1-3,1s-3-1-3-1s-1.343,1-3,1s-3-1-3-1	s-1.343,1-3,1s-3-1-3-1s-1.343,1-3,1s-3-1-3-1s-1.343,1-3,1s-3-1-3-1v15h42V21C45,21,43.657,22,42,22z"/><path fill="#c4401c" d="M24,3h14c1.105,0,2,0.895,2,2v32H22V5C22,3.895,22.895,3,24,3z"/><rect width="2" height="2" x="34" y="32" fill="#ff8f6b"/><rect width="2" height="2" x="30" y="32" fill="#ff8f6b"/><rect width="2" height="2" x="26" y="32" fill="#ff8f6b"/><rect width="2" height="2" x="34" y="28" fill="#ff8f6b"/><rect width="2" height="2" x="30" y="28" fill="#ff8f6b"/><rect width="2" height="2" x="26" y="28" fill="#ff8f6b"/><rect width="2" height="2" x="34" y="24" fill="#ff8f6b"/><rect width="2" height="2" x="30" y="24" fill="#ff8f6b"/><rect width="2" height="2" x="26" y="24" fill="#ff8f6b"/><rect width="2" height="2" x="34" y="20" fill="#ff8f6b"/><rect width="2" height="2" x="30" y="20" fill="#ff8f6b"/><rect width="2" height="2" x="26" y="20" fill="#ff8f6b"/><rect width="2" height="2" x="34" y="16" fill="#ff8f6b"/><rect width="2" height="2" x="30" y="16" fill="#ff8f6b"/><rect width="2" height="2" x="26" y="16" fill="#ff8f6b"/><rect width="2" height="2" x="34" y="12" fill="#ff8f6b"/><rect width="2" height="2" x="30" y="12" fill="#ff8f6b"/><rect width="2" height="2" x="26" y="12" fill="#ff8f6b"/><rect width="2" height="2" x="34" y="8" fill="#ff8f6b"/><rect width="2" height="2" x="30" y="8" fill="#ff8f6b"/><rect width="2" height="2" x="26" y="8" fill="#ff8f6b"/><path d="M22,10v24h6V14c0-2.209-1.791-4-4-4H22z" opacity=".05"/><path d="M22,11v23h5V14c0-1.657-1.343-3-3-3H22z" opacity=".07"/><linearGradient id="ZF7KHQonM6uh309PGwkaJb" x1="17" x2="17" y1="12.213" y2="34.98" gradientUnits="userSpaceOnUse"><stop offset="0" stop-color="#ffcf54"/><stop offset=".261" stop-color="#fdcb4d"/><stop offset=".639" stop-color="#f7c13a"/><stop offset="1" stop-color="#f0b421"/></linearGradient><path fill="url(#ZF7KHQonM6uh309PGwkaJb)" d="M24,12H10c-1.105,0-2,0.895-2,2v21h18V14C26,12.895,25.105,12,24,12z"/><path fill="#c28200" d="M22,16v2h-2v-2H22z M20,22h2v-2h-2V22z M20,26h2v-2h-2V26z M16,18h2v-2h-2V18z M16,22h2v-2h-2V22z M16,26h2v-2h-2V26z M12,18h2v-2h-2V18z M12,22h2v-2h-2V22z M12,26h2v-2h-2V26z M20,30h2v-2h-2V30z M16,30h2v-2h-2V30z M12,30h2v-2	h-2V30z"/><linearGradient id="ZF7KHQonM6uh309PGwkaJc" x1="24" x2="24" y1="30.947" y2="41.994" gradientUnits="userSpaceOnUse"><stop offset="0" stop-color="#2aa4f4"/><stop offset="1" stop-color="#007ad9"/></linearGradient><path fill="url(#ZF7KHQonM6uh309PGwkaJc)" d="M42,32c-1.657,0-3-1-3-1s-1.343,1-3,1s-3-1-3-1s-1.343,1-3,1s-3-1-3-1s-1.343,1-3,1s-3-1-3-1	s-1.343,1-3,1s-3-1-3-1s-1.343,1-3,1s-3-1-3-1s-1.343,1-3,1s-3-1-3-1v7c0,2.209,1.791,4,4,4h34c2.209,0,4-1.791,4-4v-7	C45,31,43.657,32,42,32z"/></svg>