<svg xmlns="http://www.w3.org/2000/svg" xmlns:xlink="http://www.w3.org/1999/xlink" data-name="Слой 1" viewBox="0 0 48 48"><defs><linearGradient id="rmWu1YtHjx_VUayveeT4_b" x1="12.327" x2="34.963" y1="-8.072" y2="54.121" data-name="Безымянный градиент 147" gradientUnits="userSpaceOnUse"><stop offset="0" stop-color="#dfe9f2"/><stop offset=".391" stop-color="#d6e0e9"/><stop offset="1" stop-color="#bfc8d1"/></linearGradient><linearGradient id="rmWu1YtHjx_VUayveeT4_a" x1="19.404" x2="34.342" y1="5.263" y2="66.173" data-name="Безымянный градиент 292" gradientUnits="userSpaceOnUse"><stop offset="0" stop-color="#6d6d6d"/><stop offset=".126" stop-color="#626262"/><stop offset=".987" stop-color="#464646"/><stop offset=".998" stop-color="#454545"/></linearGradient><linearGradient id="rmWu1YtHjx_VUayveeT4_c" x1="33.215" x2="48.32" y1="1.872" y2="63.464" xlink:href="#rmWu1YtHjx_VUayveeT4_a"/><linearGradient id="rmWu1YtHjx_VUayveeT4_d" x1="5.491" x2="20.596" y1="8.235" y2="69.827" xlink:href="#rmWu1YtHjx_VUayveeT4_a"/></defs><path fill="url(#rmWu1YtHjx_VUayveeT4_b)" d="M27,4.0023H21a2,2,0,0,0-2,2V41.99766a2,2,0,0,0,2,2h6a2,2,0,0,0,2-2V6.0023A2,2,0,0,0,27,4.0023Zm-15,0H8a2,2,0,0,0-2,2V41.99766a2,2,0,0,0,2,2h4a2,2,0,0,0,2-2V6.0023A2,2,0,0,0,12,4.0023Zm28,0H36a2,2,0,0,0-2,2V41.99766a2,2,0,0,0,2,2h4a2,2,0,0,0,2-2V6.0023A2,2,0,0,0,40,4.0023Z"/><path fill="url(#rmWu1YtHjx_VUayveeT4_a)" d="M28.73,5.0023H24a1.00291,1.00291,0,0,0-1,1v1a1.00291,1.00291,0,0,0,1,1h5v-2A1.9943,1.9943,0,0,0,28.73,5.0023Zm-4.73,7H19v3h5a1.00291,1.00291,0,0,0,1-1v-1A1.00291,1.00291,0,0,0,24,12.0023Zm0,7a1.00291,1.00291,0,0,0-1,1v1a1.00291,1.00291,0,0,0,1,1h5v-3Zm0,7H19v3h5a1.00291,1.00291,0,0,0,1-1v-1A1.00291,1.00291,0,0,0,24,26.0023Zm0,7a1.00291,1.00291,0,0,0-1,1v1a1.00291,1.00291,0,0,0,1,1h5v-3Zm0,7H19v2a1.99444,1.99444,0,0,0,.27,1H24a1.00291,1.00291,0,0,0,1-1v-1A1.00291,1.00291,0,0,0,24,40.0023Z"/><path fill="url(#rmWu1YtHjx_VUayveeT4_c)" d="M41.73,5.0023H37.5a.49511.49511,0,0,0-.5.5v1a.49514.49514,0,0,0,.5.5H42v-1A1.9943,1.9943,0,0,0,41.73,5.0023Zm-4.23,12a.49511.49511,0,0,0-.5.5v1a.49514.49514,0,0,0,.5.5H42v-2Zm0-6H34v2h3.5a.49514.49514,0,0,0,.5-.5v-1A.49511.49511,0,0,0,37.5,11.0023Zm0,12H34v2h3.5a.49514.49514,0,0,0,.5-.5v-1A.49511.49511,0,0,0,37.5,23.0023Zm0,6a.49511.49511,0,0,0-.5.5v1a.49514.49514,0,0,0,.5.5H42v-2Zm0,6H34v2h3.5a.49514.49514,0,0,0,.5-.5v-1A.49511.49511,0,0,0,37.5,35.0023Zm0,6a.49511.49511,0,0,0-.5.5v1a.49514.49514,0,0,0,.5.5h4.23a1.99444,1.99444,0,0,0,.27-1v-1Z"/><path fill="url(#rmWu1YtHjx_VUayveeT4_d)" d="M10.5,5.0023H6.27a1.9943,1.9943,0,0,0-.27,1v1h4.5a.49514.49514,0,0,0,.5-.5v-1A.49511.49511,0,0,0,10.5,5.0023Zm0,12H6v2h4.5a.49514.49514,0,0,0,.5-.5v-1A.49511.49511,0,0,0,10.5,17.0023Zm0-6a.49511.49511,0,0,0-.5.5v1a.49514.49514,0,0,0,.5.5H14v-2Zm0,12a.49511.49511,0,0,0-.5.5v1a.49514.49514,0,0,0,.5.5H14v-2Zm0,6H6v2h4.5a.49514.49514,0,0,0,.5-.5v-1A.49511.49511,0,0,0,10.5,29.0023Zm0,6a.49511.49511,0,0,0-.5.5v1a.49514.49514,0,0,0,.5.5H14v-2Zm0,6H6v1a1.99444,1.99444,0,0,0,.27,1H10.5a.49514.49514,0,0,0,.5-.5v-1A.49511.49511,0,0,0,10.5,41.0023Z"/></svg>