<svg xmlns="http://www.w3.org/2000/svg" viewBox="0 0 48 48"><linearGradient id="kIgD1eUur3J9P4_oqFnTEa" x1="41.618" x2="27.334" y1="40.634" y2="26.351" gradientUnits="userSpaceOnUse"><stop offset="0" stop-color="#889097"/><stop offset=".331" stop-color="#848c94"/><stop offset=".669" stop-color="#78828b"/><stop offset="1" stop-color="#64717c"/></linearGradient><path fill="url(#kIgD1eUur3J9P4_oqFnTEa)" d="M41,41.017c-0.256,0-0.512-0.098-0.707-0.293l-22-22c-0.391-0.391-0.391-1.023,0-1.414	s1.023-0.391,1.414,0l22,22c0.391,0.391,0.391,1.023,0,1.414C41.512,40.919,41.256,41.017,41,41.017z"/><linearGradient id="kIgD1eUur3J9P4_oqFnTEb" x1="44.448" x2="21.021" y1="2.552" y2="25.979" gradientUnits="userSpaceOnUse"><stop offset="0" stop-color="#c2c8cc"/><stop offset=".369" stop-color="#dde0e2"/><stop offset=".749" stop-color="#f1f2f3"/><stop offset="1" stop-color="#f9f9f9"/></linearGradient><polygon fill="url(#kIgD1eUur3J9P4_oqFnTEb)" points="31.414,18.414 28.586,15.586 37.586,6.586 40.414,9.414"/><linearGradient id="kIgD1eUur3J9P4_oqFnTEc" x1="42.448" x2="19.021" y1=".552" y2="23.979" gradientUnits="userSpaceOnUse"><stop offset="0" stop-color="#c2c8cc"/><stop offset=".369" stop-color="#dde0e2"/><stop offset=".749" stop-color="#f1f2f3"/><stop offset="1" stop-color="#f9f9f9"/></linearGradient><circle cx="36.5" cy="6.5" r="3.5" fill="url(#kIgD1eUur3J9P4_oqFnTEc)"/><linearGradient id="kIgD1eUur3J9P4_oqFnTEd" x1="46.448" x2="23.021" y1="4.552" y2="27.979" gradientUnits="userSpaceOnUse"><stop offset="0" stop-color="#c2c8cc"/><stop offset=".369" stop-color="#dde0e2"/><stop offset=".749" stop-color="#f1f2f3"/><stop offset="1" stop-color="#f9f9f9"/></linearGradient><circle cx="40.5" cy="10.5" r="3.5" fill="url(#kIgD1eUur3J9P4_oqFnTEd)"/><linearGradient id="kIgD1eUur3J9P4_oqFnTEe" x1="6.553" x2="30.017" y1="8.14" y2="31.604" gradientUnits="userSpaceOnUse"><stop offset="0" stop-color="#f44f5a"/><stop offset=".443" stop-color="#ee3d4a"/><stop offset="1" stop-color="#e52030"/></linearGradient><path fill="url(#kIgD1eUur3J9P4_oqFnTEe)" d="M33.672,13.688l-0.343-0.343c-1.416-1.416-3.535-1.853-5.393-1.107	C21.239,14.927,5.757,21.259,4,23.017c-2.761,2.761,17.239,22.761,20,20c1.757-1.757,8.09-17.239,10.779-23.936	C35.525,17.223,35.087,15.104,33.672,13.688z"/><ellipse cx="14" cy="33.017" fill="#f09ca2" rx="7.071" ry="14.142" transform="rotate(-45.001 14 33.017)"/><linearGradient id="kIgD1eUur3J9P4_oqFnTEf" x1="6.544" x2="16.42" y1="27.561" y2="37.437" gradientUnits="userSpaceOnUse"><stop offset="0" stop-color="#f44f5a"/><stop offset=".443" stop-color="#ee3d4a"/><stop offset="1" stop-color="#e52030"/></linearGradient><path fill="url(#kIgD1eUur3J9P4_oqFnTEf)" d="M16.5,37.517c1.105-1.105,0.433-3.567-1.5-5.5s-4.395-2.605-5.5-1.5	c-1.105,1.105-0.433,3.567,1.5,5.5C12.933,37.95,15.395,38.621,16.5,37.517z"/><linearGradient id="kIgD1eUur3J9P4_oqFnTEg" x1="16.868" x2="7.506" y1="37.884" y2="28.523" gradientUnits="userSpaceOnUse"><stop offset="0" stop-color="#c2c8cc"/><stop offset=".369" stop-color="#dde0e2"/><stop offset=".749" stop-color="#f1f2f3"/><stop offset="1" stop-color="#f9f9f9"/></linearGradient><path fill="url(#kIgD1eUur3J9P4_oqFnTEg)" d="M14.75,35.767c0.552-0.552,0.216-1.784-0.75-2.75s-2.198-1.302-2.75-0.75	s-0.216,1.784,0.75,2.75S14.198,36.319,14.75,35.767z"/><linearGradient id="kIgD1eUur3J9P4_oqFnTEh" x1="4.176" x2="20.681" y1="3.193" y2="19.697" gradientUnits="userSpaceOnUse"><stop offset="0" stop-color="#889097"/><stop offset=".331" stop-color="#848c94"/><stop offset=".669" stop-color="#78828b"/><stop offset="1" stop-color="#64717c"/></linearGradient><path fill="url(#kIgD1eUur3J9P4_oqFnTEh)" d="M19,19.017c-0.256,0-0.512-0.098-0.707-0.293l-10-10c-0.391-0.391-0.391-1.023,0-1.414	s1.023-0.391,1.414,0l10,10c0.391,0.391,0.391,1.023,0,1.414C19.512,18.919,19.256,19.017,19,19.017z"/><linearGradient id="kIgD1eUur3J9P4_oqFnTEi" x1="3.221" x2="23.749" y1="2.237" y2="22.765" gradientUnits="userSpaceOnUse"><stop offset="0" stop-color="#c2c8cc"/><stop offset=".369" stop-color="#dde0e2"/><stop offset=".749" stop-color="#f1f2f3"/><stop offset="1" stop-color="#f9f9f9"/></linearGradient><path fill="url(#kIgD1eUur3J9P4_oqFnTEi)" d="M10.028,4.923L4,3.017l1.906,6.028C6.005,9.357,6.249,9.6,6.565,9.689	c0.939,0.265,2.942,0.682,3.866-0.242c0.924-0.924,0.507-2.927,0.242-3.866C10.584,5.265,10.34,5.022,10.028,4.923z"/></svg>