<svg xmlns="http://www.w3.org/2000/svg" viewBox="0 0 48 48"><linearGradient id="ZqAhq4bAgjkXSq~5yJs1xa" x1="24" x2="24" y1="45.062" y2="40.393" gradientUnits="userSpaceOnUse"><stop offset="0" stop-color="#199ae0"/><stop offset="1" stop-color="#0782d8"/></linearGradient><path fill="url(#ZqAhq4bAgjkXSq~5yJs1xa)" d="M19,44c0,0.553,0.448,1,1,1h8c0.553,0,1-0.447,1-1v-5H19V44z"/><path fill="#ccc" d="M16,3h16c0.552,0,1,0.448,1,1v14H15V4C15,3.448,15.448,3,16,3z"/><linearGradient id="ZqAhq4bAgjkXSq~5yJs1xb" x1="22.435" x2="26.619" y1="18.708" y2="41.45" gradientUnits="userSpaceOnUse"><stop offset="0" stop-color="#75daff"/><stop offset="1" stop-color="#1ea2e4"/></linearGradient><path fill="url(#ZqAhq4bAgjkXSq~5yJs1xb)" d="M36,21c0-1.656-1.344-3-3-3H15c-1.657,0-3,1.344-3,3v12c0,4,3,7,7,7h10c3,0,7-3,7-7V21z"/><path fill="#666" d="M17.5,9h4C21.776,9,22,9.224,22,9.5v3c0,0.276-0.224,0.5-0.5,0.5h-4c-0.276,0-0.5-0.224-0.5-0.5v-3	C17,9.224,17.224,9,17.5,9z"/><path fill="#666" d="M26.5,9h4C30.776,9,31,9.224,31,9.5v3c0,0.276-0.224,0.5-0.5,0.5h-4c-0.276,0-0.5-0.224-0.5-0.5v-3	C26,9.224,26.224,9,26.5,9z"/></svg>