<svg xmlns="http://www.w3.org/2000/svg" id="Layer_1" x="0" y="0" version="1.1" viewBox="0 0 48 48" xml:space="preserve"><linearGradient id="SVGID_1_" x1="12.686" x2="35.58" y1="113.408" y2="76.159" gradientTransform="matrix(1 0 0 -1 0 118)" gradientUnits="userSpaceOnUse"><stop offset="0" stop-color="#33bef0"/><stop offset="1" stop-color="#0a85d9"/></linearGradient><path fill="url(#SVGID_1_)" d="M42,8H6c-1.1,0-2,0.9-2,2v26c0,1.1,0.9,2,2,2h8v8c0,0.9,1.1,1.3,1.7,0.7l8.7-8.7H42c1.1,0,2-0.9,2-2V10	C44,8.9,43.1,8,42,8z"/><radialGradient id="SVGID_2_" cx="37.383" cy="37.617" r="11.533" gradientUnits="userSpaceOnUse"><stop offset="0"/><stop offset=".979" stop-opacity="0"/></radialGradient><path fill="url(#SVGID_2_)" d="M44,36v-8.4c-1.8-1-3.8-1.6-6-1.6c-6.6,0-12,5.4-12,12h16C43.1,38,44,37.1,44,36z"/><linearGradient id="SVGID_3_" x1="30.929" x2="45.071" y1="87.071" y2="72.929" gradientTransform="matrix(1 0 0 -1 0 118)" gradientUnits="userSpaceOnUse"><stop offset="0" stop-color="#f44f5a"/><stop offset=".443" stop-color="#ee3d4a"/><stop offset="1" stop-color="#e52030"/></linearGradient><path fill="url(#SVGID_3_)" d="M48,38c0,5.5-4.5,10-10,10s-10-4.5-10-10s4.5-10,10-10S48,32.5,48,38z"/><path fill="#fff" d="M41.5,33.8l0.7,0.7c0.2,0.2,0.2,0.5,0,0.7l-7.1,7.1c-0.2,0.2-0.5,0.2-0.7,0l-0.7-0.7c-0.2-0.2-0.2-0.5,0-0.7	l7.1-7.1C41,33.6,41.3,33.6,41.5,33.8z"/><path fill="#fff" d="M42.2,41.5l-0.7,0.7c-0.2,0.2-0.5,0.2-0.7,0l-7.1-7.1c-0.2-0.2-0.2-0.5,0-0.7l0.7-0.7c0.2-0.2,0.5-0.2,0.7,0	l7.1,7.1C42.4,41,42.4,41.3,42.2,41.5z"/></svg>