<svg xmlns="http://www.w3.org/2000/svg" viewBox="0 0 48 48"><linearGradient id="V_tCk~rEs~GEYinORbCtla" x1="157.668" x2="165.719" y1="-1800.776" y2="-1829.51" gradientTransform="matrix(1 0 0 -1 -137.638 -1790.945)" gradientUnits="userSpaceOnUse"><stop offset="0" stop-color="#75daff"/><stop offset="1" stop-color="#1ea2e4"/></linearGradient><path fill="url(#V_tCk~rEs~GEYinORbCtla)" d="M43.125,9H4.875C3.287,9,2,10.287,2,11.875v24.25C2,37.713,3.287,39,4.875,39h38.25 C44.713,39,46,37.713,46,36.125v-24.25C46,10.287,44.713,9,43.125,9z"/><path fill="#1d59b3" d="M18.442,32.235v-3.331c1.209,0.74,2.496,1.11,3.862,1.11c1.028,0,1.832-0.245,2.412-0.734 c0.58-0.49,0.87-1.154,0.87-1.993c0-1.752-1.238-2.628-3.714-2.628c-0.913,0-1.966,0.07-3.158,0.21L19.38,15h9.364v3.183h-6.391 l-0.247,3.541c0.633-0.049,1.18-0.074,1.641-0.074c1.818,0,3.24,0.477,4.269,1.431c1.028,0.954,1.542,2.237,1.542,3.849 c0,1.785-0.613,3.243-1.838,4.374C26.494,32.434,24.833,33,22.735,33C21.033,33,19.602,32.745,18.442,32.235z"/></svg>