<svg xmlns="http://www.w3.org/2000/svg" viewBox="0 0 48 48"><linearGradient id="dujqO1jX3LKxlx4ZF~MG3a" x1="24" x2="24" y1="-14" y2="24.339" gradientUnits="userSpaceOnUse"><stop offset="0" stop-color="#f44f5a"/><stop offset=".443" stop-color="#ee3d4a"/><stop offset="1" stop-color="#e52030"/></linearGradient><path fill="url(#dujqO1jX3LKxlx4ZF~MG3a)" d="M7,5h34c1.105,0,2,0.895,2,2v34c0,1.105-0.895,2-2,2H7c-1.105,0-2-0.895-2-2V7	C5,5.895,5.895,5,7,5z"/><linearGradient id="dujqO1jX3LKxlx4ZF~MG3b" x1="19.998" x2="33.576" y1="1.306" y2="78.309" gradientUnits="userSpaceOnUse"><stop offset="0" stop-color="#fafafb"/><stop offset="1" stop-color="#c8cdd1"/></linearGradient><path fill="url(#dujqO1jX3LKxlx4ZF~MG3b)" d="M7,40V8c0-0.552,0.448-1,1-1h32c0.552,0,1,0.448,1,1v32c0,0.552-0.448,1-1,1H8	C7.448,41,7,40.552,7,40z"/><linearGradient id="dujqO1jX3LKxlx4ZF~MG3c" x1="24" x2="24" y1="-14" y2="24.339" gradientUnits="userSpaceOnUse"><stop offset="0" stop-color="#f44f5a"/><stop offset=".443" stop-color="#ee3d4a"/><stop offset="1" stop-color="#e52030"/></linearGradient><circle cx="24" cy="24" r="11" fill="url(#dujqO1jX3LKxlx4ZF~MG3c)"/></svg>