<svg xmlns="http://www.w3.org/2000/svg" id="Layer_1" x="0" y="0" version="1.1" viewBox="0 0 48 48" xml:space="preserve"><linearGradient id="SVGID_1_" x1="13.069" x2="31.926" y1="244.001" y2="216.725" gradientTransform="matrix(1 0 0 -1 0 254)" gradientUnits="userSpaceOnUse"><stop offset="0" stop-color="#7dd8f3"/><stop offset="1" stop-color="#45b0d0"/></linearGradient><path fill="url(#SVGID_1_)" d="M4,38V13h40v25c0,1.1-0.9,2-2,2H6C4.9,40,4,39.1,4,38z"/><linearGradient id="SVGID_2_" x1="4.808" x2="42.75" y1="247.22" y2="239.505" gradientTransform="matrix(1 0 0 -1 0 254)" gradientUnits="userSpaceOnUse"><stop offset="0" stop-color="#0077d2"/><stop offset="1" stop-color="#0b59a2"/></linearGradient><path fill="url(#SVGID_2_)" d="M44,10v3H4v-3c0-1.1,0.9-2,2-2h36C43.1,8,44,8.9,44,10z"/><path d="M30.1,19.4l-0.3-0.3h-4l1.3,1.6c0.4,0.4,0.7,0.9,0.9,1.4h-2.9L24.1,24l-1-1.9h-3.1c0.3-0.5,0.6-0.9,0.9-1.4	l1.3-1.6h-4l-0.3,0.3c-1.7,2-2.6,4.4-2.6,7.2c0,2.8,0.9,5.2,2.6,7.1l0.3,0.3h4l-1.4-1.6c-0.2-0.2-0.4-0.5-0.6-0.8h2.6l1.1-1.9	l1.1,1.9h2.7c-0.2,0.3-0.4,0.5-0.6,0.7l-1.4,1.6h4l0.3-0.3c1.7-1.9,2.6-4.3,2.6-7.1C32.7,23.8,31.8,21.4,30.1,19.4z M19.5,30	c-0.4-1.1-0.7-2.2-0.7-3.5c0-1.2,0.2-2.3,0.6-3.3l2.3,3.6L19.5,30z M26.3,26.8l2.3-3.5c0.4,1,0.5,2.1,0.5,3.2c0,1.3-0.2,2.5-0.7,3.6	L26.3,26.8z" opacity=".05"/><path d="M18.4,33.4l-0.1-0.2c-1.6-1.8-2.4-4.1-2.4-6.7c0-2.7,0.8-5,2.4-6.8l0.1-0.2h2.7l-0.7,0.8	c-1.4,1.8-2.2,3.8-2.2,6.2c0,2.3,0.7,4.4,2.1,6.1l0.7,0.8H18.4z" opacity=".07"/><path fill="#fff" d="M20.1,32.9h-1.4c-1.5-1.7-2.3-3.9-2.3-6.4c0-2.5,0.8-4.7,2.3-6.5h1.4c-1.5,1.9-2.3,4-2.3,6.5	C17.8,29,18.6,31.1,20.1,32.9z"/><polygon points="25.3,31.1 24,28.7 22.6,31.1 19.4,31.1 22.3,26.9 19.6,22.6 22.8,22.6 24.1,25 25.5,22.6 28.5,22.6 25.7,26.9 28.5,31.1" opacity=".07"/><path fill="#fff" d="M27.6,23.1l-2.5,3.8l2.5,3.7h-2l-1.3-2.3c-0.1-0.1-0.2-0.3-0.3-0.5h0c0,0-0.1,0.2-0.3,0.5l-1.3,2.3h-2l2.5-3.7	l-2.4-3.8h2l1.3,2.4c0.1,0.2,0.2,0.4,0.3,0.6h0l1.7-3H27.6z"/><path d="M26.8,33.4l0.7-0.8c1.4-1.7,2.2-3.8,2.2-6.1c0-2.3-0.7-4.4-2.2-6.2l-0.7-0.8h2.7l0.1,0.2	c1.6,1.9,2.4,4.2,2.4,6.8c0,2.6-0.8,4.9-2.5,6.7l-0.1,0.2H26.8z" opacity=".07"/><path fill="#fff" d="M29.3,32.9h-1.4c1.5-1.8,2.3-4,2.3-6.4c0-2.5-0.8-4.6-2.3-6.5h1.5c1.5,1.8,2.3,4,2.3,6.5	C31.7,29.1,30.9,31.2,29.3,32.9z"/></svg>