<svg xmlns="http://www.w3.org/2000/svg" viewBox="0 0 48 48"><radialGradient id="UHQzhLKhlKWSDxUQoGKWFa" cx="23.754" cy="-175.405" r="13.71" gradientTransform="matrix(1 0 0 -1 0 -154)" gradientUnits="userSpaceOnUse"><stop offset=".376" stop-color="#261103"/><stop offset=".68" stop-color="#431d06"/><stop offset="1" stop-color="#662c09"/></radialGradient><path fill="url(#UHQzhLKhlKWSDxUQoGKWFa)" d="M24,9C13.704,9,11.15,25.625,11.15,25.625c0,2.96,1.375,5.553,4.253,6.24	C17.869,32.454,20.972,33,24,33s6.131-0.546,8.596-1.134c2.879-0.687,4.253-3.281,4.253-6.24C36.85,25.625,34.296,9,24,9z"/><linearGradient id="UHQzhLKhlKWSDxUQoGKWFb" x1="14.786" x2="33.076" y1="31.187" y2="49.477" gradientUnits="userSpaceOnUse"><stop offset="0" stop-color="#33bef0"/><stop offset="1" stop-color="#0a85d9"/></linearGradient><path fill="url(#UHQzhLKhlKWSDxUQoGKWFb)" d="M24,30.571c-8.837,0-16,4.921-16,10.286V42c0,1.105,0.895,2,2,2h28c1.105,0,2-0.895,2-2	v-1.143C40,35.492,32.837,30.571,24,30.571z"/><path fill="#d6a121" d="M29,33c0,1.897-2.83,4-5,4s-5-2.103-5-4c0-2.637,0-7.035,0-7.035h10C29,25.965,29,30.363,29,33z"/><radialGradient id="UHQzhLKhlKWSDxUQoGKWFc" cx="536.87" cy="-176.619" r="10.72" gradientTransform="matrix(-.9136 0 0 -.9667 514.484 -150.702)" gradientUnits="userSpaceOnUse"><stop offset="0" stop-color="#ffcf54"/><stop offset=".261" stop-color="#fdcb4d"/><stop offset=".639" stop-color="#f7c13a"/><stop offset="1" stop-color="#f0b421"/></radialGradient><path fill="url(#UHQzhLKhlKWSDxUQoGKWFc)" d="M24,8.071c3.948,0,8,0.693,8,9.722c0,0.723,0,5.736,0,6.508C32,27.526,27.101,32,24,32	s-8-4.474-8-7.698c0-0.772,0-5.785,0-6.508C16,9,20.052,8.071,24,8.071z"/><radialGradient id="UHQzhLKhlKWSDxUQoGKWFd" cx="16.884" cy="-159.474" r="32.342" gradientTransform="matrix(1 0 0 -1 0 -154)" gradientUnits="userSpaceOnUse"><stop offset="0" stop-color="#c26715"/><stop offset=".508" stop-color="#b85515"/><stop offset="1" stop-color="#ad3f16"/></radialGradient><path fill="url(#UHQzhLKhlKWSDxUQoGKWFd)" d="M24,5c-5.188,0-6,3-6,3c-2.109,0.311-7,1-7,17.478c0,3.801,1.903,5.197,2.6,5.603	C11,16.717,20.576,19.036,19,10c4.046,11.813,16.293,0.054,15.871,20.734C36.077,29.817,37,27.977,37,25.478	C37,11.672,31.399,5,24,5z"/><linearGradient id="UHQzhLKhlKWSDxUQoGKWFe" x1="35.476" x2="47.906" y1="34.56" y2="46.99" gradientUnits="userSpaceOnUse"><stop offset="0" stop-color="#fed100"/><stop offset="1" stop-color="#e36001"/></linearGradient><path fill="url(#UHQzhLKhlKWSDxUQoGKWFe)" d="M36.558,48c-1.551,0-3.103-0.591-4.284-1.773c-2.351-2.355-2.219-6.333,0.134-8.686	l7.063-7.063c0.832-0.832,1.923-1.391,3.097-1.464c1.349-0.084,2.632,0.403,3.578,1.349c0.947,0.946,1.433,2.229,1.349,3.578	c-0.073,1.174-0.633,2.265-1.464,3.097l-6.936,6.936c-0.559,0.559-1.285,0.947-2.071,1.016c-0.97,0.085-1.896-0.254-2.573-0.932	c-0.678-0.677-1.017-1.603-0.932-2.573c0.069-0.787,0.458-1.513,1.016-2.071l4.834-4.834c0.097-0.097,0.256-0.097,0.354,0	l0.707,0.707c0.097,0.097,0.097,0.256,0,0.354l-4.874,4.874c-0.258,0.258-0.457,0.583-0.521,0.943	c-0.104,0.578,0.076,1.141,0.476,1.542c0.652,0.652,1.786,0.653,2.439,0l7.135-7.135c0.592-0.594,0.919-1.382,0.919-2.22	c0-0.839-0.326-1.627-0.919-2.219c-0.593-0.592-1.381-0.919-2.219-0.919c-0.838,0-1.626,0.326-2.219,0.919l-7.308,7.307	c-1.775,1.775-1.775,4.664,0,6.439c1.776,1.775,4.664,1.774,6.439,0l7.088-7.088c0.097-0.097,0.256-0.097,0.354,0l0.707,0.707	c0.097,0.097,0.097,0.256,0,0.354l-7.088,7.088C39.659,47.41,38.109,48,36.558,48z"/></svg>