<svg xmlns="http://www.w3.org/2000/svg" data-name="Слой 1" viewBox="0 0 48 48"><defs><linearGradient id="oqfwpqDMdXfRGmmKtXU4Za" x1="16.359" x2="30.138" y1="7.587" y2="45.442" data-name="Безымянный градиент 73" gradientUnits="userSpaceOnUse"><stop offset="0" stop-color="#9332bf"/><stop offset="1" stop-color="#912fbd"/></linearGradient></defs><path fill="url(#oqfwpqDMdXfRGmmKtXU4Za)" d="M5,38a1,1,0,1,1,1-1A1,1,0,0,1,5,38Zm1-6a1,1,0,1,0-1,1A1,1,0,0,0,6,32Zm0-5a1,1,0,1,0-1,1A1,1,0,0,0,6,27Zm5,0a1,1,0,1,0-1,1A1,1,0,0,0,11,27Zm5,0a1,1,0,1,0-1,1A1,1,0,0,0,16,27ZM6,22a1,1,0,1,0-1,1A1,1,0,0,0,6,22Zm0-5a1,1,0,1,0-1,1A1,1,0,0,0,6,17Zm5-5a1,1,0,1,0-1,1A1,1,0,0,0,11,12Zm5,0a1,1,0,1,0-1,1A1,1,0,0,0,16,12Zm5,25a1,1,0,1,0-1,1A1,1,0,0,0,21,37Zm7,.5A1.5,1.5,0,1,0,26.5,39,1.5,1.5,0,0,0,28,37.5Zm0-5A1.5,1.5,0,1,0,26.5,34,1.5,1.5,0,0,0,28,32.5Zm0-5A1.5,1.5,0,1,0,26.5,29,1.5,1.5,0,0,0,28,27.5Zm5,0A1.5,1.5,0,1,0,31.5,29,1.5,1.5,0,0,0,33,27.5Zm5,0A1.5,1.5,0,1,0,36.5,29,1.5,1.5,0,0,0,38,27.5Zm-5-16A1.5,1.5,0,1,0,31.5,13,1.5,1.5,0,0,0,33,11.5Zm5,0A1.5,1.5,0,1,0,36.5,13,1.5,1.5,0,0,0,38,11.5Zm-10,11A1.5,1.5,0,1,0,26.5,24,1.5,1.5,0,0,0,28,22.5Zm0-5A1.5,1.5,0,1,0,26.5,19,1.5,1.5,0,0,0,28,17.5Zm15,20A1.5,1.5,0,1,0,41.5,39,1.5,1.5,0,0,0,43,37.5Zm0-5A1.5,1.5,0,1,0,41.5,34,1.5,1.5,0,0,0,43,32.5Zm0-5A1.5,1.5,0,1,0,41.5,29,1.5,1.5,0,0,0,43,27.5Zm0-5A1.5,1.5,0,1,0,41.5,24,1.5,1.5,0,0,0,43,22.5Zm0-5A1.5,1.5,0,1,0,41.5,19,1.5,1.5,0,0,0,43,17.5ZM21,32a1,1,0,1,0-1,1A1,1,0,0,0,21,32Zm0-5a1,1,0,1,0-1,1A1,1,0,0,0,21,27Zm0-5a1,1,0,1,0-1,1A1,1,0,0,0,21,22Zm0-5a1,1,0,1,0-1,1A1,1,0,0,0,21,17Z"/></svg>