<svg xmlns="http://www.w3.org/2000/svg" viewBox="0 0 48 48"><linearGradient id="8~f4llyLjWlx5cwblPwVsa" x1="9.271" x2="14.729" y1="41.474" y2="10.526" gradientTransform="matrix(1 0 0 -1 0 50)" gradientUnits="userSpaceOnUse"><stop offset="0" stop-color="#a235d4"/><stop offset=".441" stop-color="#a033d1"/><stop offset=".702" stop-color="#982cc9"/><stop offset=".915" stop-color="#8b21bb"/><stop offset="1" stop-color="#831bb3"/></linearGradient><path fill="url(#8~f4llyLjWlx5cwblPwVsa)" d="M23,38h-4.001C18.447,38,18,37.552,18,37V26H6L5.999,37c0,0.552-0.448,1-1,1H1 c-0.552,0-1-0.448-1-1V11c0-0.552,0.448-1,1-1h3.999c0.552,0,1,0.448,1,1L6,21h12V11c0-0.552,0.447-1,0.999-1H23 c0.552,0,1,0.448,1,1v26C24,37.552,23.552,38,23,38z"/><linearGradient id="8~f4llyLjWlx5cwblPwVsb" x1="35.498" x2="40.666" y1="40.176" y2="10.868" gradientTransform="matrix(1 0 0 -1 0 50)" gradientUnits="userSpaceOnUse"><stop offset="0" stop-color="#a235d4"/><stop offset=".441" stop-color="#a033d1"/><stop offset=".702" stop-color="#982cc9"/><stop offset=".915" stop-color="#8b21bb"/><stop offset="1" stop-color="#831bb3"/></linearGradient><path fill="url(#8~f4llyLjWlx5cwblPwVsb)" d="M36,33h11c0.552,0,1,0.448,1,1v3c0,0.552-0.448,1-1,1H30c-0.552,0-1-0.448-1-1v-1.111 c0-1.433,0.245-2.72,0.735-3.86s1.106-2.163,1.849-3.069c0.742-0.906,1.553-1.707,2.435-2.404c0.88-0.697,1.719-1.326,2.514-1.886 c0.836-0.587,1.567-1.147,2.196-1.681c0.63-0.534,1.16-1.065,1.59-1.593s0.752-1.062,0.964-1.603s0.317-1.117,0.317-1.73 c0-1.199-0.344-2.104-1.033-2.717s-1.742-0.919-3.16-0.919c-2.17,0-4.549,0.857-6.62,2.383C30.46,17.05,30,16.808,30,16.403v-3.834 c0-0.353,0.18-0.687,0.485-0.864c2.399-1.396,5.359-2.205,8.273-2.205c1.444,0,2.74,0.186,3.886,0.557 c1.146,0.372,2.116,0.903,2.912,1.593c0.795,0.691,1.4,1.528,1.818,2.511C47.79,15.146,48,16.244,48,17.456 c0,1.29-0.203,2.437-0.607,3.44c-0.404,1.004-0.94,1.916-1.609,2.737c-0.67,0.821-1.441,1.574-2.316,2.258 c-0.874,0.684-1.782,1.346-2.723,1.984c-0.636,0.443-1.249,0.883-1.838,1.32c-0.59,0.437-1.11,0.867-1.56,1.29 c-0.451,0.424-0.809,0.837-1.073,1.241C36.008,32.129,36,32.635,36,33z"/></svg>