<svg xmlns="http://www.w3.org/2000/svg" xmlns:xlink="http://www.w3.org/1999/xlink" data-name="Слой 1" viewBox="0 0 48 48"><defs><linearGradient id="HYsGJOf~gFMp2Wtg7gnENb" x1="19.766" x2="24.05" y1="-502.008" y2="-516.746" data-name="Безымянный градиент 70" gradientTransform="matrix(1 0 0 -1 0 -472)" gradientUnits="userSpaceOnUse"><stop offset="0" stop-color="#6d6d6d"/><stop offset=".126" stop-color="#626262"/><stop offset=".987" stop-color="#464646"/><stop offset=".998" stop-color="#454545"/></linearGradient><linearGradient id="HYsGJOf~gFMp2Wtg7gnENa" x1="31.917" x2="33.251" y1="-492" y2="-492" data-name="Безымянный градиент 103" gradientTransform="matrix(1 0 0 -1 0 -472)" gradientUnits="userSpaceOnUse"><stop offset="0" stop-color="#c48f0c"/><stop offset=".251" stop-color="#d19b16"/><stop offset=".619" stop-color="#dca51f"/><stop offset="1" stop-color="#e0a922"/></linearGradient><linearGradient id="HYsGJOf~gFMp2Wtg7gnENc" x1="-670.083" x2="-668.749" gradientTransform="rotate(180 -328 -236)" xlink:href="#HYsGJOf~gFMp2Wtg7gnENa"/><linearGradient id="HYsGJOf~gFMp2Wtg7gnENe" x1="23" x2="23" y1="26.179" y2="18.392" xlink:href="#HYsGJOf~gFMp2Wtg7gnENb"/><linearGradient id="HYsGJOf~gFMp2Wtg7gnENf" x1="23" x2="23" y1="2.261" y2="16.519" data-name="Безымянный градиент 171" xlink:href="#HYsGJOf~gFMp2Wtg7gnENb"/><linearGradient id="HYsGJOf~gFMp2Wtg7gnENg" x1="38" x2="38" y1="-498.091" y2="-503.052" data-name="Безымянный градиент 174" gradientTransform="matrix(1 0 0 -1 0 -472)" gradientUnits="userSpaceOnUse"><stop offset="0" stop-color="#21ad64"/><stop offset=".33" stop-color="#159954"/><stop offset=".713" stop-color="#0b8847"/><stop offset="1" stop-color="#088242"/></linearGradient><linearGradient id="HYsGJOf~gFMp2Wtg7gnENh" x1="28.822" x2="44.922" y1="-503.682" y2="-519.782" data-name="Безымянный градиент 173" gradientTransform="matrix(1 0 0 -1 0 -472)" gradientUnits="userSpaceOnUse"><stop offset="0" stop-color="#21ad64"/><stop offset="1" stop-color="#088242"/></linearGradient><radialGradient id="HYsGJOf~gFMp2Wtg7gnENd" cx="26.628" cy="-497.25" r="12.224" data-name="Безымянный градиент 99" gradientTransform="matrix(.8816 0 0 -.8816 -.475 -419.675)" gradientUnits="userSpaceOnUse"><stop offset="0" stop-color="#ffcf54"/><stop offset=".261" stop-color="#fdcb4d"/><stop offset=".639" stop-color="#f7c13a"/><stop offset="1" stop-color="#f0b421"/></radialGradient></defs><path fill="url(#HYsGJOf~gFMp2Wtg7gnENb)" d="M23,30.571c-8.837,0-16,4.921-16,10.286V42a1.99945,1.99945,0,0,0,2,2H37a1.99945,1.99945,0,0,0,2-2V40.857C39,35.492,31.837,30.571,23,30.571Z"/><path fill="#d6a121" d="M28,32c0,1.897-2,4-5,4s-5-2.103-5-4V24.965H28Z"/><path fill="url(#HYsGJOf~gFMp2Wtg7gnENa)" d="M31.916,18h-.527v4h.703a1.0205,1.0205,0,0,0,1.041-.74l.344-1.703A1.42438,1.42438,0,0,0,31.916,18Z"/><path fill="url(#HYsGJOf~gFMp2Wtg7gnENc)" d="M14.084,18h.527v4h-.703a1.0205,1.0205,0,0,1-1.041-.74l-.344-1.703A1.42438,1.42438,0,0,1,14.084,18Z"/><path fill="url(#HYsGJOf~gFMp2Wtg7gnENd)" d="M23,6.4c-4.441,0-9,.675-9,10.275v6.698C14,26.8,19.4,31,23,31s9-4.2,9-7.627V16.675C32,7.075,27.441,6.4,23,6.4Z"/><path fill="url(#HYsGJOf~gFMp2Wtg7gnENe)" d="M23,16H14v5s1,2,4.5,2C21,23,22,21,23,21s2,2,4.5,2C31,23,32,21,32,21V16Z"/><path fill="url(#HYsGJOf~gFMp2Wtg7gnENf)" d="M23,6c-5,0-9,2.5-9,9a3.0971,3.0971,0,0,0,2,1H30a3.0971,3.0971,0,0,0,2-1C32,8.5,28,6,23,6Z"/><rect width="20" height="3" x="13" y="15" fill="#626262" rx="1"/><ellipse cx="19" cy="20" fill="#343434" rx="2" ry="1"/><ellipse cx="27" cy="20" fill="#343434" rx="2" ry="1"/><path fill="url(#HYsGJOf~gFMp2Wtg7gnENg)" d="M38,26c-2.35294,0-2.64706,1-5,1,0,1.76471,1.47059,1.58824,1.47059,3.94118h7.05882C41.52941,28.58824,43,28.76471,43,27,40.64706,27,40.35294,26,38,26Z"/><path fill="url(#HYsGJOf~gFMp2Wtg7gnENh)" d="M48,42.11765C48,47.64059,43.52294,48,38,48s-10-.35941-10-5.88235,4.47706-11.76471,10-11.76471S48,36.59471,48,42.11765Z"/><path fill="#8f979e" d="M41.5,32h-7a1,1,0,0,1,0-2h7a1,1,0,0,1,0,2Z"/><path fill="#fff" d="M40.94118,41.64294c0-2.88059-4.25236-2.31765-4.25236-4.01941,0-.88824.99883-.93529,1.31118-.93529a4.89872,4.89872,0,0,1,2.02765.46058.25962.25962,0,0,0,.37411-.23117v-.83824a.4911.4911,0,0,0-.2747-.51353,5.32,5.32,0,0,0-1.72647-.28117v-.92236a.19984.19984,0,0,0-.2-.2h-.4a.19984.19984,0,0,0-.2.2v.93706a2.49827,2.49827,0,0,0-2.54177,2.46294c0,2.98589,4.25236,2.39353,4.25236,3.96589,0,.49411-.31589.92-1.31118.92a5.60641,5.60641,0,0,1-2.42882-.60942.25737.25737,0,0,0-.37294.23177v.95412a.45231.45231,0,0,0,.27882.417A7.28555,7.28555,0,0,0,37.6,44.14824v1.01941a.19983.19983,0,0,0,.2.2h.4a.19983.19983,0,0,0,.2-.2V44.15059A2.48307,2.48307,0,0,0,40.94118,41.64294Z"/></svg>