<svg xmlns="http://www.w3.org/2000/svg" id="Layer_1" x="0" y="0" version="1.1" viewBox="0 0 48 48" xml:space="preserve"><path fill="#e3a600" d="M44,23H4V12h40V23z"/><path fill="#edbe00" d="M44,34H4V23h40V34z"/><linearGradient id="SVGID_1_" x1="20" x2="28" y1="28.5" y2="28.5" gradientUnits="userSpaceOnUse"><stop offset="0" stop-color="#4b4b4b"/><stop offset="1" stop-color="#3b3b3b"/></linearGradient><path fill="url(#SVGID_1_)" d="M27,29.5h-6c-0.6,0-1-0.4-1-1s0.4-1,1-1h6c0.6,0,1,0.4,1,1S27.6,29.5,27,29.5z"/><linearGradient id="SVGID_2_" x1="20" x2="28" y1="17.5" y2="17.5" gradientUnits="userSpaceOnUse"><stop offset="0" stop-color="#4b4b4b"/><stop offset="1" stop-color="#3b3b3b"/></linearGradient><path fill="url(#SVGID_2_)" d="M27,18.5h-6c-0.6,0-1-0.4-1-1s0.4-1,1-1h6c0.6,0,1,0.4,1,1S27.6,18.5,27,18.5z"/><path fill="#edbe00" d="M45,12H3c-0.6,0-1-0.4-1-1V8c0-0.6,0.4-1,1-1h42c0.6,0,1,0.4,1,1v3C46,11.6,45.6,12,45,12z"/><path fill="#c48c00" d="M4,34v2v4c0,0.6,0.4,1,1,1h4c0.6,0,1-0.4,1-1v-2.4c0-0.9,0.7-1.6,1.6-1.6h24.8c0.9,0,1.6,0.7,1.6,1.6V40	c0,0.6,0.4,1,1,1h4c0.6,0,1-0.4,1-1v-4v-2H4z"/></svg>