<svg xmlns="http://www.w3.org/2000/svg" xmlns:xlink="http://www.w3.org/1999/xlink" data-name="Слой 1" viewBox="0 0 48 48"><defs><linearGradient id="YqS0SPMyv9B1QQLTt8WD4a" x1="11.621" x2="34.699" y1="53.748" y2="-9.658" data-name="Безымянный градиент 132" gradientUnits="userSpaceOnUse"><stop offset=".002" stop-color="#454545"/><stop offset=".013" stop-color="#464646"/><stop offset=".874" stop-color="#626262"/><stop offset="1" stop-color="#6d6d6d"/></linearGradient><linearGradient id="YqS0SPMyv9B1QQLTt8WD4b" x1="15.57" x2="35.569" y1="47.898" y2="-7.049" xlink:href="#YqS0SPMyv9B1QQLTt8WD4a"/><linearGradient id="YqS0SPMyv9B1QQLTt8WD4c" x1="22.391" x2="43.52" y1="-6.863" y2="51.189" data-name="Безымянный градиент 134" gradientUnits="userSpaceOnUse"><stop offset="0" stop-color="#ffda1c"/><stop offset="1" stop-color="#feb705"/></linearGradient><linearGradient id="YqS0SPMyv9B1QQLTt8WD4d" x1="9.653" x2="25.426" y1="46.69" y2="3.355" xlink:href="#YqS0SPMyv9B1QQLTt8WD4a"/><linearGradient id="YqS0SPMyv9B1QQLTt8WD4e" x1="18.108" x2="38.907" y1=".399" y2="57.542" data-name="Безымянный градиент 143" gradientUnits="userSpaceOnUse"><stop offset="0" stop-color="#889097"/><stop offset="1" stop-color="#4c5963"/></linearGradient><linearGradient id="YqS0SPMyv9B1QQLTt8WD4f" x1="25.8" x2="49.546" y1="52.71" y2="-12.533" xlink:href="#YqS0SPMyv9B1QQLTt8WD4a"/></defs><rect width="12" height="2" x="23" y="5" fill="url(#YqS0SPMyv9B1QQLTt8WD4a)"/><rect width="2" height="10" x="28" y="6" fill="url(#YqS0SPMyv9B1QQLTt8WD4b)"/><path fill="url(#YqS0SPMyv9B1QQLTt8WD4c)" d="M24,19H34V37H24ZM18,4h5a1.00036,1.00036,0,0,1,1,1V7a1.00036,1.00036,0,0,1-1,1H18a1.00036,1.00036,0,0,1-1-1V5A1.00036,1.00036,0,0,1,18,4ZM40,4H35a1.00036,1.00036,0,0,0-1,1V7a1.00036,1.00036,0,0,0,1,1h5a1.00036,1.00036,0,0,0,1-1V5A1.00036,1.00036,0,0,0,40,4Z"/><path fill="url(#YqS0SPMyv9B1QQLTt8WD4d)" d="M24,40H22a5.00588,5.00588,0,0,1-5-5V23a2,2,0,0,0-4,0v8a4,4,0,0,1-8,0V25a1,1,0,0,1,2,0v6a2,2,0,0,0,4,0V23a4,4,0,0,1,8,0V35a3.00328,3.00328,0,0,0,3,3h2a1,1,0,0,1,0,2Z"/><path fill="url(#YqS0SPMyv9B1QQLTt8WD4e)" d="M23,43H35V38a2,2,0,0,0-2-2H25a2,2,0,0,0-2,2ZM33,21H25a2,2,0,0,1-2-2V18a2,2,0,0,1,2-2h8a2,2,0,0,1,2,2v1A2,2,0,0,1,33,21Z"/><path fill="url(#YqS0SPMyv9B1QQLTt8WD4f)" d="M39.91724,45H18.08276A1.08276,1.08276,0,0,1,17,43.91724h0a1.08275,1.08275,0,0,1,.90476-1.068L23,42H35l5.09524.84921A1.08275,1.08275,0,0,1,41,43.91724h0A1.08276,1.08276,0,0,1,39.91724,45Z"/></svg>