<svg xmlns="http://www.w3.org/2000/svg" xmlns:xlink="http://www.w3.org/1999/xlink" data-name="Слой 1" viewBox="0 0 48 48"><defs><linearGradient id="y09_67WCTDj3NEfmNOo3Jd" x1="24" x2="24" y1="42.988" y2="13.592" data-name="Безымянный градиент 18" gradientUnits="userSpaceOnUse"><stop offset=".002" stop-color="#454545"/><stop offset=".013" stop-color="#464646"/><stop offset=".874" stop-color="#626262"/><stop offset="1" stop-color="#6d6d6d"/></linearGradient><linearGradient id="y09_67WCTDj3NEfmNOo3Je" x1="24" x2="24" y1="42.988" y2="13.589" data-name="Безымянный градиент 128" gradientUnits="userSpaceOnUse"><stop offset="0" stop-color="#fed100"/><stop offset="1" stop-color="#e38101"/></linearGradient><linearGradient id="y09_67WCTDj3NEfmNOo3Ja" x1="24" x2="24" y1="30.674" y2="3.736" data-name="Безымянный градиент 68" gradientUnits="userSpaceOnUse"><stop offset="0" stop-color="#484b4f"/><stop offset=".32" stop-color="#656d75"/><stop offset=".605" stop-color="#727d86"/></linearGradient><linearGradient id="y09_67WCTDj3NEfmNOo3Jf" x1="24" x2="24" y1="19.391" y2="8.754" xlink:href="#y09_67WCTDj3NEfmNOo3Ja"/><linearGradient id="y09_67WCTDj3NEfmNOo3Jb" x1="34" x2="34" y1="40.391" y2="23.565" data-name="Безымянный градиент 43" gradientUnits="userSpaceOnUse"><stop offset="0" stop-color="#199ae0"/><stop offset="1" stop-color="#0782d8"/></linearGradient><linearGradient id="y09_67WCTDj3NEfmNOo3Jc" x1="46.913" x2="27.323" y1="23.503" y2="23.503" data-name="Безымянный градиент 42" gradientUnits="userSpaceOnUse"><stop offset="0" stop-color="#32bdef"/><stop offset="1" stop-color="#1ea2e4"/></linearGradient><linearGradient id="y09_67WCTDj3NEfmNOo3Jg" x1="14" x2="14" y1="40.391" y2="23.565" xlink:href="#y09_67WCTDj3NEfmNOo3Jb"/><linearGradient id="y09_67WCTDj3NEfmNOo3Jh" x1="1.391" x2="21.096" y1="23.503" y2="23.503" xlink:href="#y09_67WCTDj3NEfmNOo3Jc"/><linearGradient id="y09_67WCTDj3NEfmNOo3Ji" x1="20.732" x2="20.732" y1="15.152" y2="7.912" gradientTransform="rotate(60 20.732 13.54)" xlink:href="#y09_67WCTDj3NEfmNOo3Jd"/><linearGradient id="y09_67WCTDj3NEfmNOo3Jj" x1="27.268" x2="27.268" y1="15.152" y2="7.912" gradientTransform="rotate(30 27.268 13.54)" xlink:href="#y09_67WCTDj3NEfmNOo3Jd"/></defs><path fill="url(#y09_67WCTDj3NEfmNOo3Jd)" d="M31,30.463C31,38.49158,27.866,45,24,45s-7-6.50842-7-14.537c0-7.2685,7-12.46028,7-12.46028S31,23.1945,31,30.463Z"/><path fill="url(#y09_67WCTDj3NEfmNOo3Je)" d="M30.73,28H17.27C18.54,22.05,24,18,24,18S29.46,22.05,30.73,28ZM24,45a4.6608,4.6608,0,0,0,3.54-2H20.46A4.6608,4.6608,0,0,0,24,45Zm-6.25-8a19.92828,19.92828,0,0,0,.97,3H29.28a19.92828,19.92828,0,0,0,.97-3Zm-.74-6a26.51376,26.51376,0,0,0,.2,3H30.79a26.51376,26.51376,0,0,0,.2-3Z"/><circle cx="24" cy="21.003" r="6" fill="url(#y09_67WCTDj3NEfmNOo3Ja)"/><ellipse cx="24" cy="14.003" fill="url(#y09_67WCTDj3NEfmNOo3Jf)" rx="4" ry="3"/><path fill="url(#y09_67WCTDj3NEfmNOo3Jb)" d="M41,26.00272a3.69414,3.69414,0,0,1-4,4c-3.5,0-10-4-10-9,0,0,1,1,8.5,1C40,22.00272,41,23.51772,41,26.00272Z"/><path fill="url(#y09_67WCTDj3NEfmNOo3Jc)" d="M27.98954,20.00272a.98216.98216,0,0,0-.98475.887c-.22476,3.052,8.49132,6.113,13.32839,6.113a6.6573,6.6573,0,0,0,6.66658-6h0a.97741.97741,0,0,0-.95236-1Z"/><path fill="url(#y09_67WCTDj3NEfmNOo3Jg)" d="M7,26.00272a3.69414,3.69414,0,0,0,4,4c3.5,0,10-4,10-9,0,0-1,1-8.5,1C8,22.00272,7,23.51772,7,26.00272Z"/><path fill="url(#y09_67WCTDj3NEfmNOo3Jh)" d="M20.01046,20.00272a.98216.98216,0,0,1,.98475.887c.22476,3.052-8.49036,6.113-13.32839,6.113a6.6573,6.6573,0,0,1-6.66658-6h0a.97741.97741,0,0,1,.95236-1Z"/><path fill="#edbe00" d="M19.5,8.00272h9l.49957-4.71489A.31633.31633,0,0,0,28.5,3.00272l-2.5,1.5L24.41608,1.28008a.4499.4499,0,0,0-.831,0L22,4.50272l-2.5-1.5a.31623.31623,0,0,0-.49941.28511Z"/><path fill="#e3a600" d="M28.78353,9.00272h-9.5657a.2588.2588,0,0,1-.21647-.28608V7.30672a.25879.25879,0,0,1,.21647-.28607h9.5657A.25879.25879,0,0,1,29,7.30672V8.71664A.2588.2588,0,0,1,28.78353,9.00272Z"/><ellipse cx="20.732" cy="13.541" fill="url(#y09_67WCTDj3NEfmNOo3Ji)" rx="1.66" ry="1.106" transform="rotate(-60 20.732 13.54)"/><ellipse cx="27.268" cy="13.541" fill="url(#y09_67WCTDj3NEfmNOo3Jj)" rx="1.106" ry="1.66" transform="rotate(-30 27.268 13.54)"/></svg>