<svg xmlns="http://www.w3.org/2000/svg" viewBox="0 0 48 48"><path fill="#50e6ff" d="M37,5c0,0.552-0.448,1-1,1s-1-0.448-1-1h-2c0,0.552-0.448,1-1,1s-1-0.448-1-1h-2c0,0.552-0.448,1-1,1	s-1-0.448-1-1h-2c0,0.552-0.448,1-1,1s-1-0.448-1-1h-2c0,0.552-0.448,1-1,1s-1-0.448-1-1h-2c0,0.552-0.448,1-1,1s-1-0.448-1-1h-2	c0,0.552-0.448,1-1,1s-1-0.448-1-1h-1C9.448,5,9,5.448,9,6v35c0,1.105,0.895,2,2,2h26c1.105,0,2-0.895,2-2V6c0-0.552-0.448-1-1-1H37	z"/><path fill="#057093" d="M34.5,13h-21c-0.276,0-0.5-0.224-0.5-0.5v-2c0-0.276,0.224-0.5,0.5-0.5h21c0.276,0,0.5,0.224,0.5,0.5	v2C35,12.776,34.776,13,34.5,13z"/><path fill="#057093" d="M34.5,20h-2c-0.276,0-0.5-0.224-0.5-0.5v-1c0-0.276,0.224-0.5,0.5-0.5h2c0.276,0,0.5,0.224,0.5,0.5v1	C35,19.776,34.776,20,34.5,20z"/><path fill="#057093" d="M26.5,20h-13c-0.276,0-0.5-0.224-0.5-0.5v-1c0-0.276,0.224-0.5,0.5-0.5h13c0.276,0,0.5,0.224,0.5,0.5	v1C27,19.776,26.776,20,26.5,20z"/><path fill="#057093" d="M34.5,24h-2c-0.276,0-0.5-0.224-0.5-0.5v-1c0-0.276,0.224-0.5,0.5-0.5h2c0.276,0,0.5,0.224,0.5,0.5v1	C35,23.776,34.776,24,34.5,24z"/><path fill="#057093" d="M23.5,24h-10c-0.276,0-0.5-0.224-0.5-0.5v-1c0-0.276,0.224-0.5,0.5-0.5h10c0.276,0,0.5,0.224,0.5,0.5	v1C24,23.776,23.776,24,23.5,24z"/><path fill="#057093" d="M34.5,28h-2c-0.276,0-0.5-0.224-0.5-0.5v-1c0-0.276,0.224-0.5,0.5-0.5h2c0.276,0,0.5,0.224,0.5,0.5v1	C35,27.776,34.776,28,34.5,28z"/><path fill="#057093" d="M26.5,28h-13c-0.276,0-0.5-0.224-0.5-0.5v-1c0-0.276,0.224-0.5,0.5-0.5h13c0.276,0,0.5,0.224,0.5,0.5	v1C27,27.776,26.776,28,26.5,28z"/><path fill="#057093" d="M34.5,32h-2c-0.276,0-0.5-0.224-0.5-0.5v-1c0-0.276,0.224-0.5,0.5-0.5h2c0.276,0,0.5,0.224,0.5,0.5v1	C35,31.776,34.776,32,34.5,32z"/><path fill="#057093" d="M23.5,32h-10c-0.276,0-0.5-0.224-0.5-0.5v-1c0-0.276,0.224-0.5,0.5-0.5h10c0.276,0,0.5,0.224,0.5,0.5	v1C24,31.776,23.776,32,23.5,32z"/><path fill="#057093" d="M34.5,38h-4c-0.276,0-0.5-0.224-0.5-0.5v-1c0-0.276,0.224-0.5,0.5-0.5h4c0.276,0,0.5,0.224,0.5,0.5v1	C35,37.776,34.776,38,34.5,38z"/><path fill="#057093" d="M26.5,38h-9c-0.276,0-0.5-0.224-0.5-0.5v-1c0-0.276,0.224-0.5,0.5-0.5h9c0.276,0,0.5,0.224,0.5,0.5v1	C27,37.776,26.776,38,26.5,38z"/><radialGradient id="Iwsmh2ogsFyQOtFWXQJS7a" cx="37.691" cy="37.904" r="11.977" gradientUnits="userSpaceOnUse"><stop offset="0"/><stop offset=".979" stop-opacity="0"/></radialGradient><path fill="url(#Iwsmh2ogsFyQOtFWXQJS7a)" d="M38,26c-6.617,0-12,5.383-12,12c0,1.786,0.403,3.476,1.105,5H37c1.105,0,2-0.895,2-2V26.051	C38.669,26.023,38.338,26,38,26z"/><linearGradient id="Iwsmh2ogsFyQOtFWXQJS7b" x1="28" x2="48" y1="-464" y2="-464" gradientTransform="matrix(1 0 0 -1 0 -426)" gradientUnits="userSpaceOnUse"><stop offset="0" stop-color="#f44f5a"/><stop offset=".443" stop-color="#ee3d4a"/><stop offset="1" stop-color="#e52030"/></linearGradient><circle cx="38" cy="38" r="10" fill="url(#Iwsmh2ogsFyQOtFWXQJS7b)"/><path fill="#fff" d="M33,38.5v-1c0-0.276,0.224-0.5,0.5-0.5h9c0.276,0,0.5,0.224,0.5,0.5v1c0,0.276-0.224,0.5-0.5,0.5h-9	C33.224,39,33,38.776,33,38.5z"/></svg>