<svg xmlns="http://www.w3.org/2000/svg" viewBox="0 0 48 48"><linearGradient id="H1_g7o1dssQuWKrB2hdEMa" x1="14.242" x2="30.172" y1="8.358" y2="38.695" gradientUnits="userSpaceOnUse"><stop offset="0" stop-color="#2aa4f4"/><stop offset="1" stop-color="#007ad9"/></linearGradient><path fill="url(#H1_g7o1dssQuWKrB2hdEMa)" d="M48,26c0,6.63-5.37,12-12,12c-1.8,0-24.66,0-26.5,0C4.25,38,0,33.75,0,28.5	c0-4.54,3.18-8.34,7.45-9.28C9.15,12.21,15.46,7,23,7c5.51,0,10.36,2.78,13.24,7.01C42.76,14.13,48,19.45,48,26z"/><path d="M31,20h-2c-1.879,0-3.619,0.873-4.772,2.396c-0.229,0.303-0.267,0.709-0.098,1.049	S24.646,24,25.025,24h-2.051c0.379,0,0.727-0.215,0.896-0.555s0.131-0.746-0.098-1.049C22.619,20.873,20.879,20,19,20h-2	c-3.309,0-6,2.691-6,6s2.691,6,6,6h2c1.879,0,3.619-0.873,4.772-2.396c0.229-0.303,0.267-0.709,0.098-1.049S23.354,28,22.975,28	h2.051c-0.379,0-0.727,0.215-0.896,0.555s-0.131,0.746,0.098,1.049C25.381,31.127,27.121,32,29,32h2c3.309,0,6-2.691,6-6	S34.309,20,31,20z M17,28c-1.103,0-2-0.897-2-2s0.897-2,2-2h3c-1.103,0-2,0.897-2,2s0.897,2,2,2H17z M30,26c0-1.103-0.897-2-2-2h3	c1.103,0,2,0.897,2,2s-0.897,2-2,2h-3C29.103,28,30,27.103,30,26z" opacity=".05"/><path d="M17,28.5h6.98l-0.607,0.802C22.315,30.699,20.721,31.5,19,31.5h-2c-3.033,0-5.5-2.468-5.5-5.5	s2.467-5.5,5.5-5.5h2c1.721,0,3.315,0.801,4.373,2.198L23.98,23.5H17c-1.378,0-2.5,1.121-2.5,2.5S15.622,28.5,17,28.5z M31,20.5h-2	c-1.721,0-3.315,0.801-4.373,2.198L24.02,23.5H31c1.378,0,2.5,1.121,2.5,2.5s-1.122,2.5-2.5,2.5h-6.98l0.607,0.802	C25.685,30.699,27.279,31.5,29,31.5h2c3.033,0,5.5-2.468,5.5-5.5S34.033,20.5,31,20.5z M18.5,26c0,0.827,0.673,1.5,1.5,1.5h8	c0.827,0,1.5-0.673,1.5-1.5s-0.673-1.5-1.5-1.5h-8C19.173,24.5,18.5,25.173,18.5,26z" opacity=".07"/><path fill="#fff" d="M17,29c-1.654,0-3-1.346-3-3s1.346-3,3-3h5.974c-0.914-1.207-2.348-2-3.974-2h-2	c-2.757,0-5,2.243-5,5s2.243,5,5,5h2c1.627,0,3.061-0.793,3.974-2H17z"/><path fill="#fff" d="M31,21h-2c-1.627,0-3.061,0.793-3.974,2H31c1.654,0,3,1.346,3,3s-1.346,3-3,3h-5.974	c0.914,1.207,2.348,2,3.974,2h2c2.757,0,5-2.243,5-5S33.757,21,31,21z"/><path fill="#fff" d="M28,27h-8c-0.552,0-1-0.447-1-1s0.448-1,1-1h8c0.552,0,1,0.447,1,1S28.552,27,28,27z"/></svg>