<svg xmlns="http://www.w3.org/2000/svg" viewBox="0 0 48 48"><linearGradient id="~NdXUVO9PpUUbD8WM23xya" x1="6.414" x2="33.377" y1="465.552" y2="485.245" gradientTransform="translate(0 -451.89)" gradientUnits="userSpaceOnUse"><stop offset="0" stop-color="#28afea"/><stop offset="1" stop-color="#047ed6"/></linearGradient><path fill="url(#~NdXUVO9PpUUbD8WM23xya)" d="M6,40V12h36v28c0,1.1-0.9,2-2,2H8C6.9,42,6,41.1,6,40z"/><linearGradient id="~NdXUVO9PpUUbD8WM23xyb" x1="6.42" x2="41.198" y1="458.498" y2="465.57" gradientTransform="translate(0 -451.89)" gradientUnits="userSpaceOnUse"><stop offset="0" stop-color="#0077d2"/><stop offset="1" stop-color="#0b59a2"/></linearGradient><path fill="url(#~NdXUVO9PpUUbD8WM23xyb)" d="M42,8v6H6V8c0-1.1,0.9-2,2-2h32C41.1,6,42,6.9,42,8z"/><path d="M35.5,12.5L35.5,12.5c-1.657,0-3-1.343-3-3V6h6v3.5 C38.5,11.157,37.157,12.5,35.5,12.5z" opacity=".05"/><path d="M35.5,11.75L35.5,11.75c-1.243,0-2.25-1.007-2.25-2.25V6h4.5v3.5 C37.75,10.743,36.743,11.75,35.5,11.75z" opacity=".07"/><path d="M12.5,12.5L12.5,12.5c-1.657,0-3-1.343-3-3V6h6v3.5 C15.5,11.157,14.157,12.5,12.5,12.5z" opacity=".05"/><path d="M12.5,11.75L12.5,11.75c-1.243,0-2.25-1.007-2.25-2.25V6h4.5v3.5 C14.75,10.743,13.743,11.75,12.5,11.75z" opacity=".07"/><path fill="#3ccbf4" d="M12.5,11L12.5,11c-0.828,0-1.5-0.672-1.5-1.5v-4C11,4.672,11.672,4,12.5,4l0,0 C13.328,4,14,4.672,14,5.5v4C14,10.328,13.328,11,12.5,11z"/><path fill="#fff" d="M38,19.5v3c0,0.276-0.224,0.5-0.5,0.5h-3c-0.276,0-0.5-0.224-0.5-0.5v-3c0-0.276,0.224-0.5,0.5-0.5 h3C37.776,19,38,19.224,38,19.5z M30,19.5v3c0,0.276-0.224,0.5-0.5,0.5h-3c-0.276,0-0.5-0.224-0.5-0.5v-3 c0-0.276,0.224-0.5,0.5-0.5h3C29.776,19,30,19.224,30,19.5z M22,19.5v3c0,0.276-0.224,0.5-0.5,0.5h-3c-0.276,0-0.5-0.224-0.5-0.5 v-3c0-0.276,0.224-0.5,0.5-0.5h3C21.776,19,22,19.224,22,19.5z"/><path fill="#fff" d="M38,26.5v3c0,0.276-0.224,0.5-0.5,0.5h-3c-0.276,0-0.5-0.224-0.5-0.5v-3c0-0.276,0.224-0.5,0.5-0.5 h3C37.776,26,38,26.224,38,26.5z M30,26.5v3c0,0.276-0.224,0.5-0.5,0.5h-3c-0.276,0-0.5-0.224-0.5-0.5v-3 c0-0.276,0.224-0.5,0.5-0.5h3C29.776,26,30,26.224,30,26.5z M22,26.5v3c0,0.276-0.224,0.5-0.5,0.5h-3c-0.276,0-0.5-0.224-0.5-0.5 v-3c0-0.276,0.224-0.5,0.5-0.5h3C21.776,26,22,26.224,22,26.5z M14,26.5v3c0,0.276-0.224,0.5-0.5,0.5h-3 c-0.276,0-0.5-0.224-0.5-0.5v-3c0-0.276,0.224-0.5,0.5-0.5h3C13.776,26,14,26.224,14,26.5z"/><path fill="#fff" d="M22,33.5v3c0,0.276-0.224,0.5-0.5,0.5h-3c-0.276,0-0.5-0.224-0.5-0.5v-3c0-0.276,0.224-0.5,0.5-0.5 h3C21.776,33,22,33.224,22,33.5z"/><path fill="#fff" d="M14,33.5v3c0,0.276-0.224,0.5-0.5,0.5h-3c-0.276,0-0.5-0.224-0.5-0.5v-3c0-0.276,0.224-0.5,0.5-0.5 h3C13.776,33,14,33.224,14,33.5z"/><path fill="#3ccbf4" d="M35.5,11L35.5,11c-0.828,0-1.5-0.672-1.5-1.5v-4C34,4.672,34.672,4,35.5,4l0,0 C36.328,4,37,4.672,37,5.5v4C37,10.328,36.328,11,35.5,11z"/><path d="M37.5,31C31.159,31,26,35.037,26,40c0,0.688,0.108,1.356,0.296,2H40 c1.1,0,2-0.9,2-2v-8.281C40.617,31.257,39.096,31,37.5,31z" opacity=".05"/><path d="M37.5,31.5c-6.065,0-11,3.813-11,8.5c0,0.69,0.119,1.357,0.32,2H40 c1.1,0,2-0.9,2-2v-7.748C40.624,31.773,39.104,31.5,37.5,31.5z" opacity=".07"/><radialGradient id="~NdXUVO9PpUUbD8WM23xyc" cx="13.337" cy="858.829" r="9.987" gradientTransform="matrix(1.1156 0 0 1.0625 22.69 -875.015)" gradientUnits="userSpaceOnUse"><stop offset=".55" stop-color="#e4e4e6"/><stop offset=".73" stop-color="#e1e2e4"/><stop offset=".854" stop-color="#d8dadc"/><stop offset=".961" stop-color="#c9cdcf"/><stop offset="1" stop-color="#c1c6c9"/></radialGradient><ellipse cx="37.5" cy="40" fill="url(#~NdXUVO9PpUUbD8WM23xyc)" rx="10.5" ry="8"/><linearGradient id="~NdXUVO9PpUUbD8WM23xyd" x1="33.334" x2="41.784" y1="912.269" y2="920.719" gradientTransform="translate(0 -877.89)" gradientUnits="userSpaceOnUse"><stop offset="0" stop-color="#32bdef"/><stop offset="1" stop-color="#1ea2e4"/></linearGradient><circle cx="37.5" cy="38.545" r="6.545" fill="url(#~NdXUVO9PpUUbD8WM23xyd)"/><radialGradient id="~NdXUVO9PpUUbD8WM23xye" cx="35.411" cy="911.248" r="9.202" gradientTransform="translate(0 -877.89)" gradientUnits="userSpaceOnUse"><stop offset="0" stop-color="#4b4b4b"/><stop offset=".531" stop-color="#393939"/><stop offset="1" stop-color="#252525"/></radialGradient><circle cx="37.5" cy="38.545" r="3.545" fill="url(#~NdXUVO9PpUUbD8WM23xye)"/><circle cx="36" cy="36" r="1.091" fill="#fff"/></svg>