<svg xmlns="http://www.w3.org/2000/svg" viewBox="0 0 48 48"><path fill="#abb4be" d="M37.001,40c-0.367,0-0.72-0.202-0.896-0.553l-10-20c-0.247-0.494-0.047-1.095,0.447-1.342	c0.494-0.248,1.094-0.047,1.342,0.447l10,20c0.247,0.494,0.047,1.095-0.447,1.342C37.304,39.966,37.151,40,37.001,40z"/><path fill="#abb4be" d="M9.999,42c-0.138,0-0.278-0.029-0.413-0.09c-0.503-0.229-0.725-0.821-0.496-1.324l10-22	c0.228-0.502,0.816-0.727,1.324-0.497c0.503,0.229,0.725,0.821,0.496,1.324l-10,22C10.743,41.782,10.38,42,9.999,42z"/><path fill="#cf1928" d="M42,11c0,9.94-8.06,18-18,18S6,20.94,6,11H42z"/><path fill="#d9414f" d="M43,12L43,12c0-0.552-0.448-1-1-1H6c-0.552,0-1,0.448-1,1v0c0,0.552,0.448,1,1,1h36	C42.552,13,43,12.552,43,12z"/><path fill="#586169" d="M40,39c0,1.657-1.343,3-3,3s-3-1.343-3-3s1.343-3,3-3S40,37.343,40,39"/><path fill="#999" d="M38,39c0,0.552-0.448,1-1,1s-1-0.448-1-1s0.448-1,1-1S38,38.448,38,39"/><path fill="#abb4be" d="M34,35H14c-0.553,0-1-0.448-1-1s0.447-1,1-1h20c0.553,0,1,0.448,1,1S34.553,35,34,35z"/><path fill="#cf1928" d="M24,9c-0.553,0-1-0.448-1-1V6c0-0.552,0.447-1,1-1s1,0.448,1,1v2C25,8.552,24.553,9,24,9z"/><path fill="#cf1928" d="M12,9c-0.553,0-1-0.448-1-1V6c0-0.552,0.447-1,1-1s1,0.448,1,1v2C13,8.552,12.553,9,12,9z"/><path fill="#cf1928" d="M36,9c-0.553,0-1-0.448-1-1V6c0-0.552,0.447-1,1-1s1,0.448,1,1v2C37,8.552,36.553,9,36,9z"/><path fill="#cf1928" d="M30,9c-0.553,0-1-0.448-1-1V4c0-0.552,0.447-1,1-1s1,0.448,1,1v4C31,8.552,30.553,9,30,9z"/><path fill="#cf1928" d="M18,9c-0.553,0-1-0.448-1-1V4c0-0.552,0.447-1,1-1s1,0.448,1,1v4C19,8.552,18.553,9,18,9z"/></svg>