<svg xmlns="http://www.w3.org/2000/svg" viewBox="0 0 48 48"><path fill="#199be2" d="M35.983,32.448l-3.536,3.536l7.87,7.87c0.195,0.195,0.512,0.195,0.707,0l2.828-2.828	c0.195-0.195,0.195-0.512,0-0.707L35.983,32.448z"/><radialGradient id="rCwCm1N2kogDqnHn6I5JUa" cx="20.024" cy="-133.904" r="19.604" gradientTransform="translate(0 154)" gradientUnits="userSpaceOnUse"><stop offset=".693" stop-color="#006185"/><stop offset=".921" stop-color="#35c1f1"/></radialGradient><polygon fill="url(#rCwCm1N2kogDqnHn6I5JUa)" points="31.601,28.065 28.065,31.601 32.448,35.983 35.983,32.448"/><linearGradient id="rCwCm1N2kogDqnHn6I5JUb" x1="8.911" x2="31.339" y1="-145.089" y2="-122.661" gradientTransform="translate(0 154)" gradientUnits="userSpaceOnUse"><stop offset="0" stop-color="#a3ffff"/><stop offset=".223" stop-color="#9dfbff"/><stop offset=".53" stop-color="#8bf1ff"/><stop offset=".885" stop-color="#6ee0ff"/><stop offset="1" stop-color="#63daff"/></linearGradient><circle cx="20" cy="20" r="16" fill="url(#rCwCm1N2kogDqnHn6I5JUb)"/><circle cx="13.5" cy="16.5" r="2.5" fill="#1b9de2"/><circle cx="26.5" cy="16.5" r="2.5" fill="#1b9de2"/><path fill="#1b9de2" d="M25,27H15c-0.552,0-1-0.448-1-1v0c0-0.552,0.448-1,1-1h10c0.552,0,1,0.448,1,1v0	C26,26.552,25.552,27,25,27z"/></svg>