<svg xmlns="http://www.w3.org/2000/svg" viewBox="0 0 48 48"><linearGradient id="K7Dwfu_jDqs4LZlosttXSa" x1="34.125" x2="13.875" y1="41.538" y2="6.462" gradientUnits="userSpaceOnUse"><stop offset="0" stop-color="#007ad9"/><stop offset="1" stop-color="#2aa4f4"/></linearGradient><path fill="url(#K7Dwfu_jDqs4LZlosttXSa)" d="M31.057,43H16.943c-0.53,0-1.039-0.211-1.414-0.586l-9.943-9.943	C5.211,32.096,5,31.587,5,31.057V16.943c0-0.53,0.211-1.039,0.586-1.414l9.943-9.943C15.904,5.211,16.413,5,16.943,5h14.113	c0.53,0,1.039,0.211,1.414,0.586l9.943,9.943C42.789,15.904,43,16.413,43,16.943v14.113c0,0.53-0.211,1.039-0.586,1.414	l-9.943,9.943C32.096,42.789,31.587,43,31.057,43z"/></svg>