<svg xmlns="http://www.w3.org/2000/svg" xmlns:xlink="http://www.w3.org/1999/xlink" data-name="Слой 1" viewBox="0 0 48 48"><defs><linearGradient id="RchTpohZn9UiSZSMeqKO5b" x1="6" x2="6" y1="3.717" y2="26.602" data-name="Безымянный градиент 121" xlink:href="#RchTpohZn9UiSZSMeqKO5a"/><linearGradient id="RchTpohZn9UiSZSMeqKO5c" x1="42" x2="42" y1="3.717" y2="26.602" data-name="Безымянный градиент 121" xlink:href="#RchTpohZn9UiSZSMeqKO5a"/><linearGradient id="RchTpohZn9UiSZSMeqKO5d" x1="8.5" x2="8.5" y1="3.717" y2="26.602" data-name="Безымянный градиент 121" xlink:href="#RchTpohZn9UiSZSMeqKO5a"/><linearGradient id="RchTpohZn9UiSZSMeqKO5e" x1="6.5" x2="6.5" y1="3.717" y2="26.602" data-name="Безымянный градиент 121" xlink:href="#RchTpohZn9UiSZSMeqKO5a"/><linearGradient id="RchTpohZn9UiSZSMeqKO5f" x1="39.5" x2="39.5" y1="3.717" y2="26.602" data-name="Безымянный градиент 121" xlink:href="#RchTpohZn9UiSZSMeqKO5a"/><linearGradient id="RchTpohZn9UiSZSMeqKO5g" x1="41.5" x2="41.5" y1="3.717" y2="26.602" data-name="Безымянный градиент 121" xlink:href="#RchTpohZn9UiSZSMeqKO5a"/><radialGradient id="RchTpohZn9UiSZSMeqKO5a" cx="18.815" cy="6.272" r="34.069" data-name="Безымянный градиент 61" gradientUnits="userSpaceOnUse"><stop offset="0" stop-color="#f44f5a"/><stop offset=".443" stop-color="#ee3d4a"/><stop offset="1" stop-color="#e52030"/></radialGradient></defs><path fill="url(#RchTpohZn9UiSZSMeqKO5a)" d="M24,6H24a11.8375,11.8375,0,0,0-11.67105,9.85936L9,35.5H39L35.67108,15.85936A11.8375,11.8375,0,0,0,24,6Z"/><path fill="#b31523" d="M21,32h6a2,2,0,0,1,2,2v1.5a0,0,0,0,1,0,0H19a0,0,0,0,1,0,0V34A2,2,0,0,1,21,32Z"/><circle cx="24" cy="25" r="3" fill="#b31523"/><path fill="#64717c" d="M10,35H38a4,4,0,0,1,4,4v2a2,2,0,0,1-2,2H8a2,2,0,0,1-2-2V39A4,4,0,0,1,10,35Z"/><rect width="8" height="2" x="2" y="14" fill="url(#RchTpohZn9UiSZSMeqKO5b)" rx="1"/><rect width="8" height="2" x="38" y="14" fill="url(#RchTpohZn9UiSZSMeqKO5c)" rx="1"/><path fill="url(#RchTpohZn9UiSZSMeqKO5d)" d="M10,10a.996.996,0,0,1-.31641-.05176l-3-1a.99964.99964,0,1,1,.63282-1.89648l3,1A.99977.99977,0,0,1,10,10Z"/><path fill="url(#RchTpohZn9UiSZSMeqKO5e)" d="M5,23a.99977.99977,0,0,1-.31641-1.94824l3-1a.99964.99964,0,1,1,.63282,1.89648l-3,1A.996.996,0,0,1,5,23Z"/><path fill="url(#RchTpohZn9UiSZSMeqKO5f)" d="M38,10a.99977.99977,0,0,1-.31641-1.94824l3-1a.99964.99964,0,1,1,.63282,1.89648l-3,1A.996.996,0,0,1,38,10Z"/><path fill="url(#RchTpohZn9UiSZSMeqKO5g)" d="M43,23a.996.996,0,0,1-.31641-.05176l-3-1a.99964.99964,0,1,1,.63282-1.89648l3,1A.99977.99977,0,0,1,43,23Z"/><g><path d="M38.84,34.58l-.08-.52A4.76715,4.76715,0,0,0,38,34H10a4.76715,4.76715,0,0,0-.76.06l-.08.52-.09.53A4.08017,4.08017,0,0,1,10,35H38a4.08017,4.08017,0,0,1,.93.11Z" opacity=".05"/><path d="M38.84,34.58A4.6036,4.6036,0,0,0,38,34.5H10a4.6036,4.6036,0,0,0-.84.08l-.09.53A4.08017,4.08017,0,0,1,10,35H38a4.08017,4.08017,0,0,1,.93.11Z" opacity=".07"/></g></svg>