<svg xmlns="http://www.w3.org/2000/svg" viewBox="0 0 48 48"><linearGradient id="oaBTo5Iy1SUDmsEwlEmHya" x1="42.231" x2="38.637" y1="27.5" y2="27.5" gradientUnits="userSpaceOnUse"><stop offset="0" stop-color="#0f5695"/><stop offset=".963" stop-color="#134575"/></linearGradient><path fill="url(#oaBTo5Iy1SUDmsEwlEmHya)" d="M38.999,23H38v9h1.333c0.975,0,1.808-0.703,1.972-1.664l0.653-3.832	C42.269,24.672,40.857,23,38.999,23z"/><linearGradient id="oaBTo5Iy1SUDmsEwlEmHyb" x1="5.952" x2="9.065" y1="27.5" y2="27.5" gradientUnits="userSpaceOnUse"><stop offset="0" stop-color="#0f5695"/><stop offset="1" stop-color="#134575"/></linearGradient><path fill="url(#oaBTo5Iy1SUDmsEwlEmHyb)" d="M9.001,23H10v9H8.667c-0.975,0-1.808-0.703-1.972-1.664l-0.653-3.832	C5.731,24.672,7.143,23,9.001,23z"/><radialGradient id="oaBTo5Iy1SUDmsEwlEmHyc" cx="24.687" cy="23.28" r="19.745" gradientUnits="userSpaceOnUse"><stop offset="0" stop-color="#0370c8"/><stop offset=".484" stop-color="#036fc5"/><stop offset=".775" stop-color="#036abd"/><stop offset="1" stop-color="#0362b0"/></radialGradient><path fill="url(#oaBTo5Iy1SUDmsEwlEmHyc)" d="M24,4C16.598,4,9,7,9,21c0,1.281,0,8.92,0,10.288C9,37,18,44,24,44s15-7,15-12.712	c0-1.368,0-9.007,0-10.288C39,7,31.402,4,24,4z"/><path d="M30.172,17.172L22,25.344l-3.172-3.172c-0.781-0.781-2.047-0.781-2.828,0l-1.414,1.414	c-0.781,0.781-0.781,2.047,0,2.828l6,6c0.781,0.781,2.047,0.781,2.828,0l11-11c0.781-0.781,0.781-2.047,0-2.828L33,17.172	C32.219,16.391,30.953,16.391,30.172,17.172z" opacity=".05"/><path d="M20.939,32.061l-6-6c-0.586-0.586-0.586-1.536,0-2.121l1.414-1.414c0.586-0.586,1.536-0.586,2.121,0	L22,26.051l8.525-8.525c0.586-0.586,1.536-0.586,2.121,0l1.414,1.414c0.586,0.586,0.586,1.536,0,2.121l-11,11	C22.475,32.646,21.525,32.646,20.939,32.061z" opacity=".07"/><path fill="#fff" d="M21.293,31.707l-6-6c-0.391-0.391-0.391-1.024,0-1.414l1.414-1.414c0.391-0.391,1.024-0.391,1.414,0	L22,26.758l8.879-8.879c0.391-0.391,1.024-0.391,1.414,0l1.414,1.414c0.391,0.391,0.391,1.024,0,1.414l-11,11	C22.317,32.098,21.683,32.098,21.293,31.707z"/></svg>