<svg xmlns="http://www.w3.org/2000/svg" viewBox="0 0 48 48"><linearGradient id="2NRe0_1LAUL1x8X0EEQTXa" x1="16.05" x2="28.975" y1="20.385" y2="33.31" gradientUnits="userSpaceOnUse"><stop offset="0" stop-color="#6d6d6d"/><stop offset=".126" stop-color="#626262"/><stop offset=".886" stop-color="#464646"/><stop offset="1" stop-color="#454545"/></linearGradient><path fill="url(#2NRe0_1LAUL1x8X0EEQTXa)" d="M44,12c-4,1-7,3-9,5c-0.3,0.3-0.63,0.63-1,1.01c-0.45,0.44-0.96,0.95-1.5,1.5	c-5.13,5.12-13.59,13.58-17,17h-0.01C14.55,37.45,14,38,14,38h-0.01l-8.63,6.79c-0.39,0.31-0.96,0.28-1.32-0.08l-0.75-0.75	c-0.36-0.36-0.39-0.93-0.08-1.32L10,34.01V34c0,0,0.55-0.55,1.49-1.49h0.01c3.41-3.42,11.87-11.88,17-17	c0.54-0.55,1.05-1.06,1.5-1.5c0.37-0.38,0.7-0.71,1-1.01c2-2,4-5,5-9L44,12z"/><linearGradient id="2NRe0_1LAUL1x8X0EEQTXb" x1="35.261" x2="50.034" y1="3.261" y2="18.034" gradientUnits="userSpaceOnUse"><stop offset="0" stop-color="#6d6d6d"/><stop offset=".126" stop-color="#626262"/><stop offset=".886" stop-color="#464646"/><stop offset="1" stop-color="#454545"/></linearGradient><path fill="url(#2NRe0_1LAUL1x8X0EEQTXb)" d="M44,13c-0.256,0-0.512-0.098-0.707-0.293l-8-8c-0.391-0.391-0.391-1.023,0-1.414	s1.023-0.391,1.414,0l8,8c0.391,0.391,0.391,1.023,0,1.414C44.512,12.902,44.256,13,44,13z"/><linearGradient id="2NRe0_1LAUL1x8X0EEQTXc" x1="18.416" x2="28.15" y1="21.916" y2="31.65" gradientUnits="userSpaceOnUse"><stop offset="0" stop-color="#ffd869"/><stop offset="1" stop-color="#fec52b"/></linearGradient><path fill="url(#2NRe0_1LAUL1x8X0EEQTXc)" d="M31.25,22.25L31.25,22.25c-0.414-0.414-1.086-0.414-1.5,0l-11,11	c-0.414,0.414-0.414,1.086,0,1.5l0,0c0.414,0.414,1.086,0.414,1.5,0l11-11C31.664,23.336,31.664,22.664,31.25,22.25z"/><linearGradient id="2NRe0_1LAUL1x8X0EEQTXd" x1="8.911" x2="18.645" y1="31.421" y2="41.155" gradientUnits="userSpaceOnUse"><stop offset="0" stop-color="#ffd869"/><stop offset="1" stop-color="#fec52b"/></linearGradient><path fill="url(#2NRe0_1LAUL1x8X0EEQTXd)" d="M15.49,36.51C14.55,37.45,14,38,14,38h-0.01L10,34.01V34c0,0,0.55-0.55,1.49-1.49h0.01	L15.49,36.51z"/><linearGradient id="2NRe0_1LAUL1x8X0EEQTXe" x1="27.411" x2="37.145" y1="12.921" y2="22.655" gradientUnits="userSpaceOnUse"><stop offset="0" stop-color="#ffd869"/><stop offset="1" stop-color="#fec52b"/></linearGradient><path fill="url(#2NRe0_1LAUL1x8X0EEQTXe)" d="M34,18.01c-0.45,0.44-0.96,0.95-1.5,1.5l-4-4c0.54-0.55,1.05-1.06,1.5-1.5L34,18.01z"/><linearGradient id="2NRe0_1LAUL1x8X0EEQTXf" x1="14.166" x2="23.9" y1="26.166" y2="35.9" gradientUnits="userSpaceOnUse"><stop offset="0" stop-color="#ffd869"/><stop offset="1" stop-color="#fec52b"/></linearGradient><path fill="url(#2NRe0_1LAUL1x8X0EEQTXf)" d="M20,32c0.391-0.391-0.902-2.317-1.293-2.707c-0.391-0.391-1.024-0.391-1.414,0	c-0.391,0.391-0.391,1.024,0,1.414C17.683,31.098,19.609,32.391,20,32z"/><linearGradient id="2NRe0_1LAUL1x8X0EEQTXg" x1="17.166" x2="26.9" y1="23.166" y2="32.9" gradientUnits="userSpaceOnUse"><stop offset="0" stop-color="#ffd869"/><stop offset="1" stop-color="#fec52b"/></linearGradient><path fill="url(#2NRe0_1LAUL1x8X0EEQTXg)" d="M23,29c0.391-0.391-0.902-2.317-1.293-2.707c-0.391-0.391-1.024-0.391-1.414,0	c-0.391,0.391-0.391,1.024,0,1.414C20.683,28.098,22.609,29.391,23,29z"/><linearGradient id="2NRe0_1LAUL1x8X0EEQTXh" x1="20.166" x2="29.9" y1="20.166" y2="29.9" gradientUnits="userSpaceOnUse"><stop offset="0" stop-color="#ffd869"/><stop offset="1" stop-color="#fec52b"/></linearGradient><path fill="url(#2NRe0_1LAUL1x8X0EEQTXh)" d="M26,26c0.391-0.391-0.902-2.317-1.293-2.707c-0.391-0.391-1.024-0.391-1.414,0	c-0.391,0.391-0.391,1.024,0,1.414C23.683,25.098,25.609,26.391,26,26z"/><linearGradient id="2NRe0_1LAUL1x8X0EEQTXi" x1="23.166" x2="32.9" y1="17.166" y2="26.9" gradientUnits="userSpaceOnUse"><stop offset="0" stop-color="#ffd869"/><stop offset="1" stop-color="#fec52b"/></linearGradient><path fill="url(#2NRe0_1LAUL1x8X0EEQTXi)" d="M29,23c0.391-0.391-0.902-2.317-1.293-2.707c-0.391-0.391-1.024-0.391-1.414,0	c-0.391,0.391-0.391,1.024,0,1.414C26.683,22.098,28.609,23.391,29,23z"/></svg>