<svg xmlns="http://www.w3.org/2000/svg" id="Layer_1" x="0" y="0" version="1.1" viewBox="0 0 48 48" xml:space="preserve"><linearGradient id="SVGID_1_" x1="3.917" x2="41.356" y1="5.136" y2="28.185" gradientUnits="userSpaceOnUse"><stop offset="0" stop-color="#fede00"/><stop offset=".519" stop-color="#fecc00"/><stop offset="1" stop-color="#ffb700"/></linearGradient><path fill="url(#SVGID_1_)" d="M41,29H6.9c-1,0-1.9-0.8-1.9-1.9V7.9C5,6.9,5.9,6,6.9,6h34.2c1,0,1.9,0.8,1.9,1.9v19.3C42.9,28.2,42.1,29,41,29	z"/><path fill="#e7a200" d="M13.4,34.6h-2.6V42H8.8v-7.4H6.2v-1.7h7.2V34.6z"/><path fill="#e7a200" d="M22.3,42h-2.4l-1.4-2.3c-0.1-0.2-0.2-0.3-0.3-0.5c-0.1-0.1-0.2-0.3-0.3-0.4c-0.1-0.1-0.2-0.2-0.3-0.2 c-0.1-0.1-0.2-0.1-0.4-0.1h-0.6V42h-2.1v-9.1h3.3c2.2,0,3.3,0.8,3.3,2.5c0,0.3,0,0.6-0.1,0.9c-0.1,0.3-0.2,0.5-0.4,0.7 s-0.4,0.4-0.6,0.6s-0.5,0.3-0.8,0.4v0c0.1,0,0.3,0.1,0.4,0.2c0.1,0.1,0.3,0.2,0.4,0.3s0.2,0.3,0.3,0.4c0.1,0.1,0.2,0.3,0.3,0.4 L22.3,42z M16.7,34.4V37h0.9c0.4,0,0.8-0.1,1.1-0.4c0.3-0.3,0.4-0.6,0.4-1c0-0.8-0.5-1.2-1.4-1.2H16.7z"/><path fill="#e7a200" d="M25.2,42h-2.1v-9.1h2.1V42z"/><path fill="#e7a200" d="M35.3,42H33l-0.6-2h-3.2l-0.6,2h-2.2l3.3-9.1H32L35.3,42z M31.9,38.4l-1-3.1c-0.1-0.2-0.1-0.5-0.2-0.8h-0.1 c0,0.3-0.1,0.5-0.2,0.8l-1,3.1H31.9z"/><path fill="#e7a200" d="M41.8,42h-5.4v-9.1h2.1v7.4h3.4V42z"/><path d="M21,6v9.5h-2.8c-0.6,0-1.1,0.4-1.4,0.9c-0.2,0.6-0.1,1.2,0.3,1.6l5.5,5.6c0.4,0.4,0.9,0.6,1.4,0.6	c0.5,0,1-0.2,1.4-0.6l5.5-5.6c0.4-0.4,0.5-1.1,0.3-1.6c-0.2-0.6-0.8-0.9-1.4-0.9H27V6H21z" opacity=".05"/><path d="M21.5,6v10h-3.3c-0.4,0-0.8,0.2-0.9,0.6c-0.2,0.4-0.1,0.8,0.2,1.1l5.5,5.6c0.3,0.3,0.7,0.4,1.1,0.4	s0.8-0.2,1.1-0.4l5.5-5.6c0.3-0.3,0.4-0.7,0.2-1.1c-0.2-0.4-0.5-0.6-0.9-0.6h-3.3V6H21.5z" opacity=".07"/><path fill="#fff" d="M29.8,16.5H26V6H22v10.5h-3.8c-0.4,0-0.7,0.5-0.4,0.9l5,5.2l0.4,0.4c0.4,0.4,1,0.4,1.4,0l5.5-5.6	C30.5,17.1,30.3,16.5,29.8,16.5z"/></svg>