<svg xmlns="http://www.w3.org/2000/svg" viewBox="0 0 48 48"><path fill="#c767e5" d="M41,8c-1.658,0-3,1.342-3,3s1.342,3,3,3s3-1.343,3-3S42.658,8,41,8L41,8z"/><path fill="#c767e5" d="M8,15c-2.21,0-4,1.79-4,4s1.79,4,4,4s4-1.79,4-4S10.21,15,8,15L8,15z"/><path fill="#c767e5" d="M41,21c-1.658,0-3,1.343-3,3s1.342,3,3,3s3-1.343,3-3S42.658,21,41,21L41,21z"/><path fill="#c767e5" d="M9.459,19c-0.387-1.231-0.543-2.563-0.415-3.949c0.421-4.536,4.029-8.259,8.532-8.942	C23.734,5.175,29,10.323,29,19c0,12.601-7.167,19.413-13.975,23.041c-1.113,0.593-0.401,2.271,0.793,1.867	c8.373-2.833,17.824-9.475,18.172-25.016c0.189-8.428-6.302-15.747-14.73-15.89C10.855,2.86,4,9.628,4,18	c0,0.338,0.029,0.668,0.05,1H9.459z"/></svg>