<svg xmlns="http://www.w3.org/2000/svg" viewBox="0 0 48 48"><radialGradient id="bpsm8OOAwMsmbqD4I6Jw2a" cx="14.961" cy="2.99" r="56.266" gradientUnits="userSpaceOnUse"><stop offset="0" stop-color="#ffcf54"/><stop offset=".261" stop-color="#fdcb4d"/><stop offset=".639" stop-color="#f7c13a"/><stop offset="1" stop-color="#f0b421"/></radialGradient><path fill="url(#bpsm8OOAwMsmbqD4I6Jw2a)" d="M31,39.4l2.6,0.5c2.9,0.6,5.6-1.5,5.8-4.4L40,29l2.9-1.2c1-0.4,1.4-1.6,0.8-2.6L40,19	c-0.6-7.6-4.9-15-16-15C13,4,7,11.4,7,20c0,3.7,1.3,7.9,3.3,10.6c1.8,2.5,2.7,5.5,2.7,8.5v2.8c0,1.105,0.895,2,2,2h14	c1.105,0,2-0.895,2-2V39.4z"/><linearGradient id="bpsm8OOAwMsmbqD4I6Jw2b" x1="4" x2="24" y1="382" y2="382" gradientTransform="matrix(1 0 0 -1 0 390)" gradientUnits="userSpaceOnUse"><stop offset="0" stop-color="#42a3f2"/><stop offset="1" stop-color="#42a4eb"/></linearGradient><path fill="url(#bpsm8OOAwMsmbqD4I6Jw2b)" d="M23,9H5C4.448,9,4,8.552,4,8l0,0c0-0.552,0.448-1,1-1h18c0.552,0,1,0.448,1,1l0,0	C24,8.552,23.552,9,23,9z"/><linearGradient id="bpsm8OOAwMsmbqD4I6Jw2c" x1="5.796" x2="22.91" y1="376.75" y2="376.75" gradientTransform="matrix(1 0 0 -1 0 390)" gradientUnits="userSpaceOnUse"><stop offset="0" stop-color="#3079d6"/><stop offset="1" stop-color="#297cd2"/></linearGradient><polygon fill="url(#bpsm8OOAwMsmbqD4I6Jw2c)" points="16,17.5 12,17.5 5.5,9 22.5,9"/><linearGradient id="bpsm8OOAwMsmbqD4I6Jw2d" x1="12" x2="16" y1="368.25" y2="368.25" gradientTransform="matrix(1 0 0 -1 0 390)" gradientUnits="userSpaceOnUse"><stop offset="0" stop-color="#1d59b3"/><stop offset="1" stop-color="#195bbc"/></linearGradient><path fill="url(#bpsm8OOAwMsmbqD4I6Jw2d)" d="M16,17.5h-4v8c0,0.372,0.391,0.614,0.724,0.447l2.724-1.362	C15.786,24.416,16,24.069,16,23.691V17.5z"/></svg>