<svg xmlns="http://www.w3.org/2000/svg" viewBox="0 0 48 48"><linearGradient id="wvoQIUGdACA-N4IItCrH8a" x1="16.978" x2="32.785" y1="4.707" y2="48.136" gradientUnits="userSpaceOnUse"><stop offset="0" stop-color="#21ad64"/><stop offset="1" stop-color="#088242"/></linearGradient><circle cx="24" cy="24" r="19" fill="url(#wvoQIUGdACA-N4IItCrH8a)"/><linearGradient id="wvoQIUGdACA-N4IItCrH8b" x1="27.345" x2="34.489" y1="6.865" y2="41.023" gradientUnits="userSpaceOnUse"><stop offset="0" stop-color="#faf8e5"/><stop offset="1" stop-color="#faeeac"/></linearGradient><path fill="url(#wvoQIUGdACA-N4IItCrH8b)" d="M24,6.949c9.417,0,17.051,7.634,17.051,17.051S33.417,41.051,24,41.051"/><linearGradient id="wvoQIUGdACA-N4IItCrH8c" x1="31.551" x2="31.551" y1="3.518" y2="46.508" gradientUnits="userSpaceOnUse"><stop offset="0" stop-color="#f44f5a"/><stop offset=".443" stop-color="#ee3d4a"/><stop offset="1" stop-color="#e52030"/></linearGradient><path fill="url(#wvoQIUGdACA-N4IItCrH8c)" d="M24,8.897c8.341,0,15.103,6.762,15.103,15.103S32.341,39.103,24,39.103"/><path fill="#107c42" d="M24,43c-8.341,0-15.103-8.507-15.103-19S15.659,5,24,5"/><linearGradient id="wvoQIUGdACA-N4IItCrH8d" x1="14.882" x2="29.874" y1="6.414" y2="47.604" gradientUnits="userSpaceOnUse"><stop offset="0" stop-color="#21ad64"/><stop offset="1" stop-color="#088242"/></linearGradient><path fill="url(#wvoQIUGdACA-N4IItCrH8d)" d="M24,43c-5.65,0-10.231-8.507-10.231-19S18.35,5,24,5"/><path fill="#107c42" d="M24,43c-2.422,0-4.385-8.507-4.385-19S21.578,5,24,5V43z"/><path fill="#3e2723" d="M32.155,22.223c1.247-1.67,1.812-1.875,1.812-1.875s1.073-0.391,1.464,0.683 c0.391,1.073-0.683,1.464-0.683,1.464S34.184,22.7,32.155,22.223z"/><path fill="#3e2723" d="M32.155,25.777c2.029-0.477,2.593-0.272,2.593-0.272s1.073,0.391,0.683,1.464 c-0.391,1.073-1.464,0.683-1.464,0.683S33.402,27.447,32.155,25.777z"/><path fill="#3e2723" d="M30.645,29.359c2.04,0.425,2.465,0.85,2.465,0.85s0.808,0.808,0,1.615c-0.808,0.808-1.615,0-1.615,0 S31.069,31.399,30.645,29.359z"/><path fill="#3e2723" d="M27.726,31.844c1.67,1.247,1.875,1.812,1.875,1.812s0.391,1.073-0.683,1.464 s-1.464-0.683-1.464-0.683S27.249,33.872,27.726,31.844z"/><path fill="#3e2723" d="M30.645,18.641c0.425-2.04,0.85-2.465,0.85-2.465s0.808-0.808,1.615,0c0.808,0.808,0,1.615,0,1.615 S32.685,18.216,30.645,18.641z"/><path fill="#3e2723" d="M27.726,16.156c-0.477-2.029-0.272-2.593-0.272-2.593s0.391-1.073,1.464-0.683 c1.073,0.391,0.683,1.464,0.683,1.464S29.396,14.909,27.726,16.156z"/><path d="M25.296,42.935V5.065C24.866,5.036,24.438,5,24,5v38C24.438,43,24.866,42.964,25.296,42.935z" opacity=".05"/><path d="M24.648,42.967V5.033C24.431,5.025,24.219,5,24,5v38C24.219,43,24.431,42.975,24.648,42.967z" opacity=".07"/></svg>