<svg xmlns="http://www.w3.org/2000/svg" width="48" height="48" viewBox="0 0 48 48"><linearGradient id="0vbqL~ZtGuv_RgWu6KLhOa" x1="13" x2="33" y1="6" y2="6" gradientUnits="userSpaceOnUse"><stop offset="0" stop-color="#889097"/><stop offset="1" stop-color="#64717c"/></linearGradient><path fill="url(#0vbqL~ZtGuv_RgWu6KLhOa)" d="M33,11H13l1-1c0.542-1.084,0.906-2.248,1.077-3.448l0.378-3.753 C15.558,1.778,16.418,1,17.445,1h11.11c1.027,0,1.887,0.778,1.99,1.799l0.378,3.754C31.094,7.752,31.458,8.916,32,10L33,11z"/><linearGradient id="0vbqL~ZtGuv_RgWu6KLhOb" x1="13" x2="33" y1="42" y2="42" gradientUnits="userSpaceOnUse"><stop offset="0" stop-color="#889097"/><stop offset="1" stop-color="#64717c"/></linearGradient><path fill="url(#0vbqL~ZtGuv_RgWu6KLhOb)" d="M32,38c-0.542,1.084-0.906,2.248-1.077,3.447l-0.378,3.754 C30.442,46.222,29.582,47,28.555,47h-11.11c-1.027,0-1.887-0.778-1.99-1.799l-0.378-3.753C14.906,40.248,14.542,39.084,14,38l-1-1 h20L32,38z"/><linearGradient id="0vbqL~ZtGuv_RgWu6KLhOc" x1="36" x2="36" y1="14.376" y2="23.114" gradientUnits="userSpaceOnUse"><stop offset="0" stop-color="#889097"/><stop offset="1" stop-color="#64717c"/></linearGradient><path fill="url(#0vbqL~ZtGuv_RgWu6KLhOc)" d="M37,22h-3v-6h3c0.552,0,1,0.448,1,1v4C38,21.552,37.552,22,37,22z"/><path d="M32,10c-0.32-0.641-0.57-1.312-0.763-2H14.763 C14.57,8.688,14.32,9.359,14,10l-1,1h20L32,10z" opacity=".05"/><path d="M32,10c-0.163-0.326-0.304-0.661-0.434-1H14.434 c-0.13,0.339-0.272,0.674-0.434,1l-1,1h20L32,10z" opacity=".07"/><path d="M14,38c0.32,0.641,0.57,1.312,0.763,2h16.473 c0.193-0.688,0.443-1.359,0.763-2l1-1H13L14,38z" opacity=".05"/><path d="M14,38c0.163,0.326,0.304,0.661,0.434,1h17.131 c0.13-0.339,0.272-0.674,0.434-1l1-1H13L14,38z" opacity=".07"/><linearGradient id="0vbqL~ZtGuv_RgWu6KLhOd" x1="102.126" x2="151.128" y1="126.951" y2="126.951" gradientTransform="matrix(.5306 0 0 -.7188 -44.188 115.252)" gradientUnits="userSpaceOnUse"><stop offset="0" stop-color="#0f6fb7"/><stop offset="1" stop-color="#16528c"/></linearGradient><path fill="url(#0vbqL~ZtGuv_RgWu6KLhOd)" d="M14.58,10H31.42C33.95,10,36,12.05,36,14.58V33.42C36,35.95,33.95,38,31.42,38H14.58 C12.05,38,10,35.95,10,33.42V14.58C10,12.05,12.05,10,14.58,10z"/><radialGradient id="0vbqL~ZtGuv_RgWu6KLhOe" cx="27.447" cy="32.447" r="3.553" gradientTransform="matrix(1 0 0 -1 0 50)" gradientUnits="userSpaceOnUse"><stop offset="0"/><stop offset="1" stop-opacity="0"/></radialGradient><circle cx="27.447" cy="17.553" r="3.553" fill="url(#0vbqL~ZtGuv_RgWu6KLhOe)" opacity=".15"/><radialGradient id="0vbqL~ZtGuv_RgWu6KLhOf" cx="25.189" cy="35.276" r="5.891" gradientTransform="matrix(1 0 0 -1 0 50)" gradientUnits="userSpaceOnUse"><stop offset="0" stop-color="#c9b0f7"/><stop offset="1" stop-color="#986ee0"/></radialGradient><circle cx="26.895" cy="17.105" r="3" fill="url(#0vbqL~ZtGuv_RgWu6KLhOf)"/><radialGradient id="0vbqL~ZtGuv_RgWu6KLhOg" cx="23.342" cy="25.447" r="3.553" gradientTransform="matrix(1 0 0 -1 0 50)" gradientUnits="userSpaceOnUse"><stop offset="0"/><stop offset="1" stop-opacity="0"/></radialGradient><circle cx="23.342" cy="24.553" r="3.553" fill="url(#0vbqL~ZtGuv_RgWu6KLhOg)" opacity=".15"/><radialGradient id="0vbqL~ZtGuv_RgWu6KLhOh" cx="21.189" cy="28.276" r="5.891" gradientTransform="matrix(1 0 0 -1 0 50)" gradientUnits="userSpaceOnUse"><stop offset="0" stop-color="#fee100"/><stop offset="1" stop-color="#f7a511"/></radialGradient><circle cx="22.895" cy="24.105" r="3" fill="url(#0vbqL~ZtGuv_RgWu6KLhOh)"/><radialGradient id="0vbqL~ZtGuv_RgWu6KLhOi" cx="19.342" cy="32.447" r="3.553" gradientTransform="matrix(1 0 0 -1 0 50)" gradientUnits="userSpaceOnUse"><stop offset="0"/><stop offset="1" stop-opacity="0"/></radialGradient><circle cx="19.342" cy="17.553" r="3.553" fill="url(#0vbqL~ZtGuv_RgWu6KLhOi)" opacity=".15"/><radialGradient id="0vbqL~ZtGuv_RgWu6KLhOj" cx="17.189" cy="35.276" r="5.891" gradientTransform="matrix(1 0 0 -1 0 50)" gradientUnits="userSpaceOnUse"><stop offset="0" stop-color="#a6ff6e"/><stop offset="1" stop-color="#29cd2f"/></radialGradient><circle cx="18.895" cy="17.105" r="3" fill="url(#0vbqL~ZtGuv_RgWu6KLhOj)"/><radialGradient id="0vbqL~ZtGuv_RgWu6KLhOk" cx="15.447" cy="25.342" r="3.553" gradientTransform="matrix(1 0 0 -1 0 50)" gradientUnits="userSpaceOnUse"><stop offset="0"/><stop offset="1" stop-opacity="0"/></radialGradient><circle cx="15.447" cy="24.658" r="3.553" fill="url(#0vbqL~ZtGuv_RgWu6KLhOk)" opacity=".15"/><radialGradient id="0vbqL~ZtGuv_RgWu6KLhOl" cx="13.189" cy="28.276" r="5.891" gradientTransform="matrix(1 0 0 -1 0 50)" gradientUnits="userSpaceOnUse"><stop offset="0" stop-color="#23d4d7"/><stop offset="1" stop-color="#1c91ec"/></radialGradient><circle cx="14.895" cy="24.105" r="3" fill="url(#0vbqL~ZtGuv_RgWu6KLhOl)"/><radialGradient id="0vbqL~ZtGuv_RgWu6KLhOm" cx="19.447" cy="18.447" r="3.553" gradientTransform="matrix(1 0 0 -1 0 50)" gradientUnits="userSpaceOnUse"><stop offset="0"/><stop offset="1" stop-opacity="0"/></radialGradient><circle cx="19.447" cy="31.553" r="3.553" fill="url(#0vbqL~ZtGuv_RgWu6KLhOm)" opacity=".15"/><radialGradient id="0vbqL~ZtGuv_RgWu6KLhOn" cx="17.189" cy="21.276" r="5.891" gradientTransform="matrix(1 0 0 -1 0 50)" gradientUnits="userSpaceOnUse"><stop offset="0" stop-color="#a6ff6e"/><stop offset="1" stop-color="#29cd2f"/></radialGradient><circle cx="18.895" cy="31.105" r="3" fill="url(#0vbqL~ZtGuv_RgWu6KLhOn)"/><radialGradient id="0vbqL~ZtGuv_RgWu6KLhOo" cx="27.447" cy="18.447" r="3.553" gradientTransform="matrix(1 0 0 -1 0 50)" gradientUnits="userSpaceOnUse"><stop offset="0"/><stop offset="1" stop-opacity="0"/></radialGradient><circle cx="27.447" cy="31.553" r="3.553" fill="url(#0vbqL~ZtGuv_RgWu6KLhOo)" opacity=".15"/><radialGradient id="0vbqL~ZtGuv_RgWu6KLhOp" cx="25.189" cy="21.276" r="5.891" gradientTransform="matrix(1 0 0 -1 0 50)" gradientUnits="userSpaceOnUse"><stop offset="0" stop-color="#e85182"/><stop offset="1" stop-color="#d03767"/></radialGradient><circle cx="26.895" cy="31.105" r="3" fill="url(#0vbqL~ZtGuv_RgWu6KLhOp)"/><radialGradient id="0vbqL~ZtGuv_RgWu6KLhOq" cx="31.447" cy="25.447" r="3.553" gradientTransform="matrix(1 0 0 -1 0 50)" gradientUnits="userSpaceOnUse"><stop offset="0"/><stop offset="1" stop-opacity="0"/></radialGradient><circle cx="31.447" cy="24.553" r="3.553" fill="url(#0vbqL~ZtGuv_RgWu6KLhOq)" opacity=".15"/><radialGradient id="0vbqL~ZtGuv_RgWu6KLhOr" cx="29.189" cy="28.276" r="5.891" gradientTransform="matrix(1 0 0 -1 0 50)" gradientUnits="userSpaceOnUse"><stop offset="0" stop-color="#a6ff6e"/><stop offset="1" stop-color="#29cd2f"/></radialGradient><circle cx="30.895" cy="24.105" r="3" fill="url(#0vbqL~ZtGuv_RgWu6KLhOr)"/></svg>