<svg xmlns="http://www.w3.org/2000/svg" viewBox="0 0 48 48"><linearGradient id="wzvNzGZUC8GQ_NybdX9MEa" x1="25.8" x2="48.158" y1="-438.25" y2="-461.271" gradientTransform="matrix(1 0 0 -1 0 -426)" gradientUnits="userSpaceOnUse"><stop offset="0" stop-color="#eba600"/><stop offset="1" stop-color="#c28200"/></linearGradient><path fill="url(#wzvNzGZUC8GQ_NybdX9MEa)" d="M42,41H31V7h12c0.552,0,1,0.448,1,1v31C44,40.105,43.105,41,42,41z"/><linearGradient id="wzvNzGZUC8GQ_NybdX9MEb" x1="3.684" x2="33.398" y1="-434.15" y2="-464.746" gradientTransform="matrix(1 0 0 -1 0 -426)" gradientUnits="userSpaceOnUse"><stop offset="0" stop-color="#ffd869"/><stop offset="1" stop-color="#fec52b"/></linearGradient><path fill="url(#wzvNzGZUC8GQ_NybdX9MEb)" d="M31,41H6c-1.105,0-2-0.895-2-2V8c0-0.552,0.448-1,1-1h28v32C33,40.105,32.105,41,31,41z"/><linearGradient id="wzvNzGZUC8GQ_NybdX9MEc" x1="17.154" x2="17.154" y1="-438.74" y2="-407.029" gradientTransform="matrix(1 0 0 -1 0 -426)" gradientUnits="userSpaceOnUse"><stop offset="0" stop-color="#eba600"/><stop offset="1" stop-color="#c28200"/></linearGradient><path fill="url(#wzvNzGZUC8GQ_NybdX9MEc)" d="M33,7H4.618C4.239,7,3.893,7.214,3.724,7.553l-2.362,4.724C1.196,12.609,1.437,13,1.809,13	h27.573c0.379,0,0.725-0.214,0.894-0.553L33,7z"/><linearGradient id="wzvNzGZUC8GQ_NybdX9MEd" x1="39.846" x2="39.846" y1="-438.729" y2="-434.572" gradientTransform="matrix(1 0 0 -1 0 -426)" gradientUnits="userSpaceOnUse"><stop offset="0" stop-color="#ffd869"/><stop offset="1" stop-color="#fec52b"/></linearGradient><path fill="url(#wzvNzGZUC8GQ_NybdX9MEd)" d="M33,7h10.382c0.379,0,0.725,0.214,0.894,0.553l2.362,4.724C46.804,12.609,46.563,13,46.191,13	h-9.573c-0.379,0-0.725-0.214-0.894-0.553L33,7z"/></svg>