<svg xmlns="http://www.w3.org/2000/svg" data-name="Слой 1" viewBox="0 0 48 48"><defs><linearGradient id="5qZ1E5pbr4H2sQROd0Lr4a" x1="19.687" x2="27.977" y1="1.973" y2="24.749" data-name="Безымянный градиент 73" gradientUnits="userSpaceOnUse"><stop offset="0" stop-color="#9332bf"/><stop offset="1" stop-color="#912fbd"/></linearGradient><linearGradient id="5qZ1E5pbr4H2sQROd0Lr4b" x1="20.39" x2="26.276" y1="8.55" y2="24.723" data-name="Безымянный градиент 60" gradientUnits="userSpaceOnUse"><stop offset="0" stop-color="#8521b0"/><stop offset="1" stop-color="#64129a"/></linearGradient><linearGradient id="5qZ1E5pbr4H2sQROd0Lr4c" x1="19.617" x2="28.549" y1="18.499" y2="43.041" data-name="Безымянный градиент 72" gradientUnits="userSpaceOnUse"><stop offset="0" stop-color="#ac4ad5"/><stop offset="1" stop-color="#ae4cd5"/></linearGradient><linearGradient id="5qZ1E5pbr4H2sQROd0Lr4d" x1="24" x2="24" y1="43.087" y2="24.1" data-name="Безымянный градиент 187" gradientUnits="userSpaceOnUse"><stop offset="0" stop-color="#ffda1c"/><stop offset="1" stop-color="#feb705"/></linearGradient></defs><path fill="url(#5qZ1E5pbr4H2sQROd0Lr4a)" d="M35,22H13a3.00328,3.00328,0,0,1-3-3V9a5.00588,5.00588,0,0,1,5-5H33a5.00588,5.00588,0,0,1,5,5V19A3.00328,3.00328,0,0,1,35,22ZM15,6a3.00328,3.00328,0,0,0-3,3V19a1.001,1.001,0,0,0,1,1H35a1.001,1.001,0,0,0,1-1V9a3.00328,3.00328,0,0,0-3-3Z"/><path fill="url(#5qZ1E5pbr4H2sQROd0Lr4b)" d="M22,9h4a6,6,0,0,1,6,6v8a0,0,0,0,1,0,0H16a0,0,0,0,1,0,0V15A6,6,0,0,1,22,9Z"/><path fill="url(#5qZ1E5pbr4H2sQROd0Lr4c)" d="M24,15c-8,0-13,5-13,13v8h1.74457a13.16711,13.16711,0,0,0,6.55182,3.45593,20.60393,20.60393,0,0,0,9.40722,0A13.16711,13.16711,0,0,0,35.25543,36H37V28C37,20,32,15,24,15Z"/><path fill="url(#5qZ1E5pbr4H2sQROd0Lr4d)" d="M37,36c0,3.392-3.43906,6.304-8.29639,7.456a20.605,20.605,0,0,1-9.40722,0C14.43906,42.304,11,39.392,11,36c0-3.808,4.31367-6.992,10.11636-7.792a1.35011,1.35011,0,0,1,.35453-.048c.11823-.016.23638-.032.36636-.048a20.93578,20.93578,0,0,1,4.3255,0c.13.01592.24813.03194.36636.048a1.35011,1.35011,0,0,1,.35453.048C32.68633,29.008,37,32.192,37,36Z"/></svg>