<svg xmlns="http://www.w3.org/2000/svg" viewBox="0 0 48 48"><linearGradient id="pV4ZTDjtYmTY7cXNfVvWwa" x1="14.118" x2="18.141" y1="-158.216" y2="-181.033" gradientTransform="matrix(1 0 0 -1 0 -136)" gradientUnits="userSpaceOnUse"><stop offset="0" stop-color="#0176d3"/><stop offset=".998" stop-color="#185899"/></linearGradient><path fill="url(#pV4ZTDjtYmTY7cXNfVvWwa)" d="M25,23L4,24c0,11.045,8.955,20,20,20L25,23z"/><linearGradient id="pV4ZTDjtYmTY7cXNfVvWwb" x1="-2551.859" x2="-2555.882" y1="692.967" y2="715.784" gradientTransform="matrix(-1 0 0 1 -2522 -690)" gradientUnits="userSpaceOnUse"><stop offset="0" stop-color="#4fe2ff"/><stop offset=".998" stop-color="#27aded"/></linearGradient><path fill="url(#pV4ZTDjtYmTY7cXNfVvWwb)" d="M23,25l21-1c0-11.045-8.955-20-20-20 L23,25z"/><linearGradient id="pV4ZTDjtYmTY7cXNfVvWwc" x1="12.538" x2="16.012" y1="695.709" y2="715.409" gradientTransform="translate(0 -690)" gradientUnits="userSpaceOnUse"><stop offset="0" stop-color="#20a3e7"/><stop offset=".998" stop-color="#1287d9"/></linearGradient><path fill="url(#pV4ZTDjtYmTY7cXNfVvWwc)" d="M24,24H4C4,12.955,12.955,4,24,4V24z"/><linearGradient id="pV4ZTDjtYmTY7cXNfVvWwd" x1="-2513.988" x2="-2517.462" y1="-140.591" y2="-160.291" gradientTransform="rotate(180 -1241 -59)" gradientUnits="userSpaceOnUse"><stop offset="0" stop-color="#1795e0"/><stop offset=".998" stop-color="#218cd0"/></linearGradient><path fill="url(#pV4ZTDjtYmTY7cXNfVvWwd)" d="M24,24h20c0,11.045-8.955,20-20,20V24z"/><g><path d="M37.259,10.74c0.805,0.806,0.997,1.984,0.487,3.003l-6.852,13.704 c-0.741,1.482-1.965,2.706-3.447,3.447l-13.704,6.852c-1.02,0.51-2.198,0.317-3.003-0.487c-0.805-0.806-0.997-1.984-0.487-3.003 l6.852-13.704c0.741-1.482,1.965-2.707,3.447-3.447l13.704-6.852c0.379-0.189,0.78-0.282,1.176-0.282 C36.101,9.971,36.753,10.235,37.259,10.74z" opacity=".05"/><path d="M36.906,11.094c0.65,0.651,0.805,1.603,0.394,2.426l-6.852,13.704 c-0.693,1.386-1.838,2.531-3.224,3.224L13.52,37.299c-0.823,0.412-1.775,0.256-2.426-0.394c-0.65-0.651-0.805-1.603-0.394-2.426 l6.852-13.704c0.693-1.386,1.838-2.531,3.224-3.224L34.48,10.7c0.306-0.153,0.63-0.228,0.95-0.228 C35.97,10.473,36.497,10.686,36.906,11.094z" opacity=".05"/><linearGradient id="pV4ZTDjtYmTY7cXNfVvWwe" x1="22.113" x2="25.887" y1="36.704" y2="15.296" gradientTransform="matrix(1 0 0 -1 0 50)" gradientUnits="userSpaceOnUse"><stop offset=".002" stop-color="#cdeffd"/><stop offset="1" stop-color="#c1d8ef"/></linearGradient><path fill="url(#pV4ZTDjtYmTY7cXNfVvWwe)" d="M27,30l-13.704,6.852 c-1.376,0.688-2.836-0.772-2.148-2.148L18,21c0.649-1.298,1.702-2.351,3-3l13.704-6.852c1.376-0.688,2.836,0.772,2.148,2.148L30,27 C29.351,28.298,28.298,29.351,27,30z"/></g><g><path d="M35.432,38.028c-0.396,0-0.796-0.092-1.176-0.282l-13.704-6.852 c-1.482-0.741-2.707-1.965-3.447-3.447l-6.852-13.704c-0.509-1.019-0.318-2.197,0.487-3.003c0.805-0.804,1.983-0.998,3.003-0.487 l13.704,6.852c1.482,0.741,2.707,1.965,3.447,3.447l6.852,13.704c0.509,1.019,0.318,2.197-0.487,3.003 C36.753,37.765,36.101,38.028,35.432,38.028z" opacity=".05"/><path d="M35.43,37.527c-0.319,0-0.644-0.075-0.95-0.228l-13.704-6.852 c-1.386-0.693-2.531-1.838-3.224-3.224L10.701,13.52c-0.411-0.823-0.257-1.775,0.394-2.426c0.651-0.65,1.603-0.805,2.426-0.394 l13.704,6.852c1.386,0.693,2.531,1.838,3.224,3.224l6.852,13.704c0.411,0.823,0.257,1.775-0.394,2.426 C36.497,37.314,35.97,37.527,35.43,37.527z" opacity=".05"/><linearGradient id="pV4ZTDjtYmTY7cXNfVvWwf" x1="21.424" x2="26.576" y1="40.612" y2="11.388" gradientTransform="matrix(1 0 0 -1 0 50)" gradientUnits="userSpaceOnUse"><stop offset="0" stop-color="#fff"/><stop offset=".998" stop-color="#dedcdd"/></linearGradient><path fill="url(#pV4ZTDjtYmTY7cXNfVvWwf)" d="M27,18l-13.704-6.852 c-1.376-0.688-2.836,0.772-2.148,2.148L18,27c0.649,1.298,1.702,2.351,3,3l13.704,6.852c1.376,0.688,2.836-0.772,2.148-2.148L30,21 C29.351,19.702,28.298,18.649,27,18z"/></g><linearGradient id="pV4ZTDjtYmTY7cXNfVvWwg" x1="23.479" x2="24.521" y1="28.955" y2="23.045" gradientTransform="matrix(1 0 0 -1 0 50)" gradientUnits="userSpaceOnUse"><stop offset="0" stop-color="#28a7e1"/><stop offset=".998" stop-color="#156fbb"/></linearGradient><circle cx="24" cy="24" r="3" fill="url(#pV4ZTDjtYmTY7cXNfVvWwg)"/></svg>