<svg xmlns="http://www.w3.org/2000/svg" viewBox="0 0 48 48"><path fill="#195bbc" d="M42,28H6c-1.105,0-2,0.895-2,2v12c0,1.105,0.895,2,2,2h36c1.105,0,2-0.895,2-2V30	C44,28.895,43.105,28,42,28z"/><linearGradient id="NWwqOUXhGoz6v~LwxqaQ3a" x1="24" x2="24" y1="19.934" y2="4.8" gradientUnits="userSpaceOnUse"><stop offset="0" stop-color="#42a3f2"/><stop offset="1" stop-color="#42a4eb"/></linearGradient><path fill="url(#NWwqOUXhGoz6v~LwxqaQ3a)" d="M14,20h18c1.105,0,2-0.895,2-2V6c0-1.105-0.895-2-2-2H16c-1.105,0-2,0.895-2,2V20z"/><linearGradient id="NWwqOUXhGoz6v~LwxqaQ3b" x1="15" x2="15" y1="31.938" y2="17.75" gradientUnits="userSpaceOnUse"><stop offset="0" stop-color="#42a3f2"/><stop offset="1" stop-color="#42a4eb"/></linearGradient><path fill="url(#NWwqOUXhGoz6v~LwxqaQ3b)" d="M16,17h-2v14.5c0,0.276,0.224,0.5,0.5,0.5h1c0.276,0,0.5-0.224,0.5-0.5V17z"/></svg>