<svg xmlns="http://www.w3.org/2000/svg" viewBox="0 0 48 48"><path fill="#37c6d0" d="M41.998,24V8c0-1.105-0.895-2-2-2h-27c-1.105,0-2,0.895-2,2v16H41.998z"/><path fill="#036c70" d="M41.998,24v16c0,1.105-0.895,2-2,2h-27c-1.105,0-2-0.895-2-2V24H41.998z"/><path d="M22.328,13h-11.33v24h11.33c2.033,0,3.681-1.648,3.681-3.681V16.681 C26.009,14.648,24.361,13,22.328,13z" opacity=".05"/><path d="M22.222,36H10.998V13.333h11.224c1.724,0,3.121,1.397,3.121,3.121v16.425 C25.342,34.603,23.945,36,22.222,36z" opacity=".07"/><path d="M22.115,35H10.998V13.667h11.117c1.414,0,2.56,1.146,2.56,2.56V32.44 C24.676,33.854,23.529,35,22.115,35z" opacity=".09"/><circle cx="33.5" cy="14.5" r="5.5" fill="#1a9ba1"/><circle cx="33.5" cy="14.5" r="2.5" fill="#036c70"/><linearGradient id="GWSqEqVhb5BQeBfkbkKLla" x1="7.472" x2="20.524" y1="210.699" y2="233.304" gradientTransform="translate(0 -198)" gradientUnits="userSpaceOnUse"><stop offset="0" stop-color="#058f92"/><stop offset=".5" stop-color="#038489"/><stop offset="1" stop-color="#026d71"/></linearGradient><path fill="url(#GWSqEqVhb5BQeBfkbkKLla)" d="M5.664,14h16.671C23.254,14,24,14.746,24,15.664v16.671C24,33.254,23.254,34,22.336,34H5.664 C4.746,34.009,4,33.263,4,32.345v-16.68C4,14.746,4.746,14,5.664,14z"/><path fill="#fff" d="M17.379,20.348h-4.693v2.956h4.375v1.755h-4.375v4.366h-2.119V18.584h6.821L17.379,20.348z"/><rect width="9" height="9" x="29" y="28" fill="#1a9ba1"/></svg>