<svg xmlns="http://www.w3.org/2000/svg" viewBox="0 0 48 48"><path fill="#199be2" d="M43,24c0-10.493-8.507-19-19-19S5,13.507,5,24s8.507,19,19,19S43,34.493,43,24z M39,24	c0,8.284-6.716,15-15,15S9,32.284,9,24S15.716,9,24,9S39,15.716,39,24z"/><path fill="#35c1f1" d="M26,3v8c0,0.552-0.448,1-1,1h-2c-0.552,0-1-0.448-1-1V3c0-0.552,0.448-1,1-1h2	C25.552,2,26,2.448,26,3z"/><path fill="#35c1f1" d="M37,22h8c0.552,0,1,0.448,1,1v2c0,0.552-0.448,1-1,1h-8c-0.552,0-1-0.448-1-1v-2	C36,22.448,36.448,22,37,22z"/><path fill="#35c1f1" d="M3,22h8c0.552,0,1,0.448,1,1v2c0,0.552-0.448,1-1,1H3c-0.552,0-1-0.448-1-1v-2	C2,22.448,2.448,22,3,22z"/><path d="M19.722,42.498l-2.286-5.027C19.421,38.441,21.642,39,24,39s4.579-0.559,6.564-1.528l-2.286,5.027	C26.901,42.816,25.473,43,24,43C22.527,43,21.099,42.816,19.722,42.498z" opacity=".05"/><path d="M20.335,42.639l-2.196-4.829C19.94,38.576,21.92,39,24,39s4.06-0.424,5.861-1.19l-2.196,4.829	C26.478,42.871,25.255,43,24,43S21.522,42.871,20.335,42.639z" opacity=".07"/><linearGradient id="3pOp~H3QjJ2R1A_V8xtYBa" x1="18.317" x2="30.828" y1="24.905" y2="42.139" gradientUnits="userSpaceOnUse"><stop offset="0" stop-color="#f44f5a"/><stop offset=".443" stop-color="#ee3d4a"/><stop offset="1" stop-color="#e52030"/></linearGradient><path fill="url(#3pOp~H3QjJ2R1A_V8xtYBa)" d="M33,29.471c0-0.585-0.474-1.059-1.059-1.059c-0.103,0-0.201,0.02-0.296,0.047L24,30.529	l-7.645-2.071c-0.095-0.028-0.193-0.047-0.296-0.047c-0.585,0-1.059,0.474-1.059,1.059c0,0.147,0.03,0.286,0.084,0.413l7.96,17.504	C23.212,47.749,23.575,48,24,48s0.788-0.251,0.957-0.612l7.96-17.504C32.97,29.757,33,29.617,33,29.471z"/></svg>