<svg xmlns="http://www.w3.org/2000/svg" viewBox="0 0 48 48"><linearGradient id="uWOieToNaDwJMlR4yOod9a" x1="4" x2="44" y1="24" y2="24" gradientUnits="userSpaceOnUse"><stop offset="0" stop-color="#fede00"/><stop offset="1" stop-color="#ffd000"/></linearGradient><path fill="url(#uWOieToNaDwJMlR4yOod9a)" d="M44,24c0,11.044-8.956,20-20,20S4,35.044,4,24S12.956,4,24,4S44,12.956,44,24z"/><path d="M26.74,37c-0.351,0-0.692-0.124-0.961-0.349L15.54,28.12C15.197,27.836,15,27.416,15,26.969V24.5	c0-0.827,0.673-1.5,1.5-1.5h4c0.822,0,1.843-0.341,2.571-1H16.5c-0.827,0-1.5-0.673-1.5-1.5v-2c0-0.827,0.673-1.5,1.5-1.5	c-0.827,0-1.5-0.673-1.5-1.5v-2c0-0.827,0.673-1.5,1.5-1.5h15c0.827,0,1.5,0.673,1.5,1.5v2c0,0.827-0.673,1.5-1.5,1.5l0,0	c0.827,0,1.5,0.673,1.5,1.5v2c0,0.827-0.673,1.5-1.5,1.5h-2.777c-0.833,3.044-3.394,4.951-5.916,5.67l8.015,6.679	c0.491,0.407,0.668,1.06,0.451,1.661C31.055,36.611,30.501,37,29.862,37H26.74z" opacity=".05"/><path d="M26.74,36.5c-0.234,0-0.462-0.083-0.641-0.232L15.86,27.736c-0.229-0.189-0.36-0.47-0.36-0.768V24.5	c0-0.552,0.449-1,1-1h4c1.324,0,2.899-0.736,3.609-2H16.5c-0.551,0-1-0.448-1-1v-2c0-0.552,0.449-1,1-1h6.755	c-0.839-0.683-1.928-1-2.755-1h-4c-0.551,0-1-0.448-1-1v-2c0-0.552,0.449-1,1-1h15c0.551,0,1,0.448,1,1v2c0,0.552-0.449,1-1,1	h-3.944c0.184,0.32,0.343,0.654,0.476,1H31.5c0.551,0,1,0.448,1,1v2c0,0.552-0.449,1-1,1h-3.169c-0.72,3.31-3.69,5.437-6.625,5.903	l8.796,7.329c0.327,0.271,0.445,0.707,0.3,1.107c-0.145,0.401-0.514,0.66-0.94,0.66H26.74z" opacity=".07"/><path fill="#fff" d="M32,15.5v-2c0-0.276-0.224-0.5-0.5-0.5h-15c-0.276,0-0.5,0.224-0.5,0.5v2c0,0.276,0.224,0.5,0.5,0.5	h4c1.325,0,3.004,0.688,3.889,2H16.5c-0.276,0-0.5,0.224-0.5,0.5v2c0,0.276,0.224,0.5,0.5,0.5h8.358c-0.563,1.961-2.729,3-4.358,3	h-4c-0.276,0-0.5,0.224-0.5,0.5v2.469c0,0.148,0.066,0.289,0.18,0.384l10.24,8.531C26.51,35.959,26.623,36,26.74,36h3.122	c0.468,0,0.679-0.585,0.32-0.884L20.441,27H20.5c3.323,0,6.855-2.373,7.415-6H31.5c0.276,0,0.5-0.224,0.5-0.5v-2	c0-0.276-0.224-0.5-0.5-0.5h-3.822c-0.239-0.734-0.599-1.406-1.057-2H31.5C31.776,16,32,15.776,32,15.5z"/></svg>