<svg xmlns="http://www.w3.org/2000/svg" viewBox="0 0 48 48"><linearGradient id="dLsVwPGhVZffxVcLKIjBoa" x1="21.565" x2="31.427" y1="12.153" y2="22.014" gradientUnits="userSpaceOnUse"><stop offset="0" stop-color="#6d6d6d"/><stop offset=".126" stop-color="#626262"/><stop offset=".886" stop-color="#464646"/><stop offset="1" stop-color="#454545"/></linearGradient><path fill="url(#dLsVwPGhVZffxVcLKIjBoa)" d="M43.705,6.881l-2.586-2.586c-0.391-0.391-1.024-0.391-1.414,0L13.707,30.293	c-0.391,0.391-0.391,1.024,0,1.414l2.586,2.586c0.391,0.391,1.024,0.391,1.414,0L43.705,8.295	C44.096,7.904,44.096,7.271,43.705,6.881z"/><linearGradient id="dLsVwPGhVZffxVcLKIjBob" x1="26.076" x2="31.732" y1="15.076" y2="20.732" gradientUnits="userSpaceOnUse"><stop offset="0" stop-color="#ffd869"/><stop offset="1" stop-color="#fec52b"/></linearGradient><path fill="url(#dLsVwPGhVZffxVcLKIjBob)" d="M41.199,12.301L41.199,12.301c-0.414-0.414-1.086-0.414-1.5,0L23.301,28.699	c-0.414,0.414-0.414,1.086,0,1.5l0,0c0.414,0.414,1.086,0.414,1.5,0l16.397-16.397C41.613,13.387,41.613,12.716,41.199,12.301z"/><linearGradient id="dLsVwPGhVZffxVcLKIjBoc" x1="3.902" x2="13.763" y1="29.816" y2="39.677" gradientUnits="userSpaceOnUse"><stop offset="0" stop-color="#ffd869"/><stop offset="1" stop-color="#fec52b"/></linearGradient><path fill="url(#dLsVwPGhVZffxVcLKIjBoc)" d="M18.499,33.501l-4-4L4.294,39.706c-0.391,0.391-0.391,1.024,0,1.414l2.586,2.586	c0.391,0.391,1.024,0.391,1.414,0L18.499,33.501z"/><linearGradient id="dLsVwPGhVZffxVcLKIjBod" x1="3.336" x2="8.059" y1="35.338" y2="40.061" gradientUnits="userSpaceOnUse"><stop offset="0" stop-color="#6d6d6d"/><stop offset=".126" stop-color="#626262"/><stop offset=".886" stop-color="#464646"/><stop offset="1" stop-color="#454545"/></linearGradient><circle cx="7.999" cy="40.001" r="1.5" fill="url(#dLsVwPGhVZffxVcLKIjBod)"/><linearGradient id="dLsVwPGhVZffxVcLKIjBoe" x1="19.076" x2="24.732" y1="22.076" y2="27.732" gradientUnits="userSpaceOnUse"><stop offset="0" stop-color="#ffd869"/><stop offset="1" stop-color="#fec52b"/></linearGradient><path fill="url(#dLsVwPGhVZffxVcLKIjBoe)" d="M24.5,27.5c0.586-0.586-0.354-2.475-0.939-3.061c-0.586-0.586-1.536-0.586-2.121,0	c-0.586,0.586-0.586,1.536,0,2.121C22.025,27.146,23.914,28.086,24.5,27.5z"/><linearGradient id="dLsVwPGhVZffxVcLKIjBof" x1="22.576" x2="28.232" y1="18.576" y2="24.232" gradientUnits="userSpaceOnUse"><stop offset="0" stop-color="#ffd869"/><stop offset="1" stop-color="#fec52b"/></linearGradient><path fill="url(#dLsVwPGhVZffxVcLKIjBof)" d="M28,24c0.586-0.586-0.354-2.475-0.939-3.061c-0.586-0.586-1.536-0.586-2.121,0	c-0.586,0.586-0.586,1.536,0,2.121C25.525,23.646,27.414,24.586,28,24z"/><linearGradient id="dLsVwPGhVZffxVcLKIjBog" x1="26.076" x2="31.732" y1="15.076" y2="20.732" gradientUnits="userSpaceOnUse"><stop offset="0" stop-color="#ffd869"/><stop offset="1" stop-color="#fec52b"/></linearGradient><path fill="url(#dLsVwPGhVZffxVcLKIjBog)" d="M31.5,20.5c0.586-0.586-0.354-2.475-0.939-3.061c-0.586-0.586-1.536-0.586-2.121,0	c-0.586,0.586-0.586,1.536,0,2.121C29.025,20.146,30.914,21.086,31.5,20.5z"/><linearGradient id="dLsVwPGhVZffxVcLKIjBoh" x1="29.576" x2="35.232" y1="11.576" y2="17.232" gradientUnits="userSpaceOnUse"><stop offset="0" stop-color="#ffd869"/><stop offset="1" stop-color="#fec52b"/></linearGradient><path fill="url(#dLsVwPGhVZffxVcLKIjBoh)" d="M35,17c0.586-0.586-0.354-2.475-0.939-3.061c-0.586-0.586-1.536-0.586-2.121,0	c-0.586,0.586-0.586,1.536,0,2.121C32.525,16.646,34.414,17.586,35,17z"/><linearGradient id="dLsVwPGhVZffxVcLKIjBoi" x1="33.076" x2="38.732" y1="8.076" y2="13.732" gradientUnits="userSpaceOnUse"><stop offset="0" stop-color="#ffd869"/><stop offset="1" stop-color="#fec52b"/></linearGradient><path fill="url(#dLsVwPGhVZffxVcLKIjBoi)" d="M38.5,13.5c0.586-0.586-0.354-2.475-0.939-3.061c-0.586-0.586-1.536-0.586-2.121,0	c-0.586,0.586-0.586,1.536,0,2.121C36.025,13.146,37.914,14.086,38.5,13.5z"/></svg>