<svg xmlns="http://www.w3.org/2000/svg" viewBox="0 0 48 48"><path fill="#4d5155" d="M41,43H7c-1.657,0-3-1.343-3-3v0c0-1.657,1.343-3,3-3h34c1.657,0,3,1.343,3,3v0	C44,41.657,42.657,43,41,43z"/><linearGradient id="~99ZYfY~XNc4qj~qSYh4Qa" x1="21.046" x2="32.107" y1="5.331" y2="41.441" gradientUnits="userSpaceOnUse"><stop offset="0" stop-color="#ffc430"/><stop offset=".52" stop-color="#fbb730"/><stop offset="1" stop-color="#f7a72f"/></linearGradient><path fill="url(#~99ZYfY~XNc4qj~qSYh4Qa)" d="M9.86,15.522l-0.445,4.254L14,28V18h18l5.995-3.199L37,5H19.667L9.86,15.522z"/><linearGradient id="~99ZYfY~XNc4qj~qSYh4Qb" x1="9.631" x2="22.921" y1="7" y2="50.388" gradientUnits="userSpaceOnUse"><stop offset="0" stop-color="#ffc430"/><stop offset=".52" stop-color="#fbb730"/><stop offset="1" stop-color="#f7a72f"/></linearGradient><path fill="url(#~99ZYfY~XNc4qj~qSYh4Qb)" d="M13,14c-2.209,0-4,1.791-4,4s1.791,4,4,4s4-1.791,4-4S15.209,14,13,14z"/><linearGradient id="~99ZYfY~XNc4qj~qSYh4Qc" x1="28.788" x2="45.401" y1="1.25" y2="55.485" gradientUnits="userSpaceOnUse"><stop offset="0" stop-color="#ffc430"/><stop offset=".52" stop-color="#fbb730"/><stop offset="1" stop-color="#f7a72f"/></linearGradient><path fill="url(#~99ZYfY~XNc4qj~qSYh4Qc)" d="M33,10c-2.761,0-5,2.239-5,5s2.239,5,5,5s5-2.239,5-5S35.761,10,33,10z"/><path fill="#35c1f1" d="M32,18H16c-1.105,0-2,0.895-2,2v23h20V20C34,18.895,33.105,18,32,18z"/><linearGradient id="~99ZYfY~XNc4qj~qSYh4Qd" x1="25.542" x2="36.341" y1="5.653" y2="37.978" gradientUnits="userSpaceOnUse"><stop offset="0" stop-color="#ffc430"/><stop offset=".52" stop-color="#fbb730"/><stop offset="1" stop-color="#f7a72f"/></linearGradient><polygon fill="url(#~99ZYfY~XNc4qj~qSYh4Qd)" points="29.28,13.525 24.314,26.443 31.501,29.887 37.538,17.097"/><linearGradient id="~99ZYfY~XNc4qj~qSYh4Qe" x1="20.271" x2="32.881" y1="4.667" y2="42.734" gradientUnits="userSpaceOnUse"><stop offset="0" stop-color="#ffc430"/><stop offset=".52" stop-color="#fbb730"/><stop offset="1" stop-color="#f7a72f"/></linearGradient><path fill="url(#~99ZYfY~XNc4qj~qSYh4Qe)" d="M28,24c-2.209,0-4,1.791-4,4s1.791,4,4,4s4-1.791,4-4S30.209,24,28,24z"/><circle cx="28" cy="28" r="2" fill="#fff0c9"/></svg>