<svg xmlns="http://www.w3.org/2000/svg" viewBox="0 0 48 48"><linearGradient id="Ti7DJZhdb1lFZrp6aT0mha" x1="24.01" x2="24.01" y1="1391.868" y2="1419.883" gradientTransform="translate(0 -1370)" gradientUnits="userSpaceOnUse"><stop offset="0" stop-color="#21ad64"/><stop offset="1" stop-color="#088242"/></linearGradient><path fill="url(#Ti7DJZhdb1lFZrp6aT0mha)" d="M43.61,20.26L43.2,23l-0.06,0.4l-2.35,15.73C40.62,40.21,39.7,41,38.61,41H9.39	c-1.09,0-2.01-0.79-2.18-1.87L4.88,23.4L4.82,23l-0.41-2.74C4.31,19.59,4.82,19,5.5,19h37.02C43.2,19,43.71,19.59,43.61,20.26z"/><linearGradient id="Ti7DJZhdb1lFZrp6aT0mhb" x1="23.572" x2="9.353" y1="-297.797" y2="-311.153" gradientTransform="matrix(1 0 0 -1 0 -290)" gradientUnits="userSpaceOnUse"><stop offset="0" stop-color="#575c61"/><stop offset=".155" stop-color="#737b80"/><stop offset=".507" stop-color="#70787d"/><stop offset=".75" stop-color="#686f74"/><stop offset=".961" stop-color="#5a6065"/><stop offset="1" stop-color="#575c61"/></linearGradient><path fill="url(#Ti7DJZhdb1lFZrp6aT0mhb)" d="M25.4,5.6c-0.8-0.8-2-0.8-2.8,0l-13,13c-0.8,0.8-0.8,2,0,2.8C10,21.8,10.5,22,11,22	s1-0.2,1.4-0.6l13-13C26.2,7.6,26.2,6.4,25.4,5.6z"/><linearGradient id="Ti7DJZhdb1lFZrp6aT0mhc" x1="22" x2="39.5" y1="-303.75" y2="-303.75" gradientTransform="matrix(1 0 0 -1 0 -290)" gradientUnits="userSpaceOnUse"><stop offset="0" stop-color="#737b80"/><stop offset="1" stop-color="#575c61"/></linearGradient><path fill="url(#Ti7DJZhdb1lFZrp6aT0mhc)" d="M38.9,19.1L25.4,5.6c-0.8-0.8-2-0.8-2.8,0s-0.8,2,0,2.8l13.5,13.5c0.4,0.4,0.9,0.6,1.4,0.6	s1-0.2,1.4-0.6C39.7,21.1,39.7,19.9,38.9,19.1z"/><path fill="#0e0500" d="M36.1,21.9c0.4,0.4,0.9,0.6,1.4,0.6s1-0.2,1.4-0.6	c0.8-0.8,0.8-2,0-2.8L37.8,18h-5.6L36.1,21.9z" opacity=".05"/><path fill="#0e0500" d="M11,22c0.5,0,1-0.2,1.4-0.6l3.4-3.4h-5.6l-0.6,0.6	c-0.8,0.8-0.8,2,0,2.8C10,21.8,10.5,22,11,22z" opacity=".05"/><path d="M11,22c0.5,0,1-0.2,1.4-0.6l2.9-2.9H9.7l-0.1,0.1c-0.8,0.8-0.8,2,0,2.8	C10,21.8,10.5,22,11,22z" opacity=".07"/><path d="M36.1,21.9c0.4,0.4,0.9,0.6,1.4,0.6s1-0.2,1.4-0.6c0.8-0.8,0.8-2,0-2.8	l-0.6-0.6h-5.6L36.1,21.9z" opacity=".07"/><path fill="#33c481" d="M43.61,20.26c0.1-0.67-0.41-1.26-1.09-1.26H5.5c-0.68,0-1.19,0.59-1.09,1.26L4.82,23H43.2	L43.61,20.26z"/><path fill="#107c42" d="M20.5,39L20.5,39c-0.828,0-1.5-0.672-1.5-1.5v-11c0-0.828,0.672-1.5,1.5-1.5l0,0	c0.828,0,1.5,0.672,1.5,1.5v11C22,38.328,21.328,39,20.5,39z"/><path fill="#107c42" d="M13.5,39L13.5,39c-0.828,0-1.5-0.672-1.5-1.5v-11c0-0.828,0.672-1.5,1.5-1.5l0,0	c0.828,0,1.5,0.672,1.5,1.5v11C15,38.328,14.328,39,13.5,39z"/><path fill="#107c42" d="M27.5,39L27.5,39c-0.828,0-1.5-0.672-1.5-1.5v-11c0-0.828,0.672-1.5,1.5-1.5l0,0	c0.828,0,1.5,0.672,1.5,1.5v11C29,38.328,28.328,39,27.5,39z"/><path fill="#107c42" d="M34.5,39L34.5,39c-0.828,0-1.5-0.672-1.5-1.5v-11c0-0.828,0.672-1.5,1.5-1.5l0,0	c0.828,0,1.5,0.672,1.5,1.5v11C36,38.328,35.328,39,34.5,39z"/><path d="M28.312,33C27.037,33,26,34.02,26,35.272V41h12.61c1.09,0,2.01-0.79,2.18-1.87L41.706,33H28.312z" opacity=".05"/><path d="M28.312,33.5c-0.999,0-1.812,0.795-1.812,1.772V41h12.11c1.09,0,2.01-0.79,2.18-1.87l0.841-5.63	H28.312z" opacity=".07"/><linearGradient id="Ti7DJZhdb1lFZrp6aT0mhd" x1="35.795" x2="39.733" y1="-324.915" y2="-338.969" gradientTransform="matrix(1 0 0 -1 0 -290)" gradientUnits="userSpaceOnUse"><stop offset="0" stop-color="#32bdef"/><stop offset="1" stop-color="#1ea2e4"/></linearGradient><path fill="url(#Ti7DJZhdb1lFZrp6aT0mhd)" d="M46.687,48H28.312C27.587,48,27,47.43,27,46.727V35.273C27,34.57,27.587,34,28.312,34h18.375	C47.413,34,48,34.57,48,35.273v11.455C48,47.43,47.413,48,46.687,48z"/><linearGradient id="Ti7DJZhdb1lFZrp6aT0mhe" x1="27" x2="48" y1="-327.5" y2="-327.5" gradientTransform="matrix(1 0 0 -1 0 -290)" gradientUnits="userSpaceOnUse"><stop offset="0" stop-color="#323538"/><stop offset="1" stop-color="#6d7479"/></linearGradient><rect width="21" height="3" x="27" y="36" fill="url(#Ti7DJZhdb1lFZrp6aT0mhe)"/></svg>