<svg xmlns="http://www.w3.org/2000/svg" viewBox="0 0 48 48"><linearGradient id="lKIIrtdIKXeJk33DgOmCya" x1="9.009" x2="38.092" y1="519.64" y2="480.734" gradientTransform="matrix(1 0 0 -1 0 526)" gradientUnits="userSpaceOnUse"><stop offset="0" stop-color="#ffda1c"/><stop offset="1" stop-color="#feb705"/></linearGradient><path fill="url(#lKIIrtdIKXeJk33DgOmCya)" d="M24.913,5.186l5.478,12.288l13.378,1.413c0.861,0.091,1.207,1.158,0.564,1.737l-9.993,9.005	l2.791,13.161c0.18,0.847-0.728,1.506-1.478,1.074L24,37.141l-11.653,6.722c-0.75,0.432-1.657-0.227-1.478-1.074l2.791-13.161	l-9.993-9.005c-0.643-0.579-0.296-1.646,0.564-1.737l13.378-1.413l5.478-12.288C23.439,4.395,24.561,4.395,24.913,5.186z"/><path fill="#e92d3b" d="M23.545,20h0.909C24.756,20,25,20.244,25,20.545v10.909C25,31.756,24.756,32,24.455,32h-0.909	C23.244,32,23,31.756,23,31.455V20.545C23,20.244,23.244,20,23.545,20z"/><path fill="#e92d3b" d="M30,25.545v0.909C30,26.756,29.756,27,29.455,27H18.545C18.244,27,18,26.756,18,26.455v-0.909	C18,25.244,18.244,25,18.545,25h10.909C29.756,25,30,25.244,30,25.545z"/></svg>