<svg xmlns="http://www.w3.org/2000/svg" viewBox="0 0 48 48"><linearGradient id="MkxhRFxN2UoQcDnniFMPLa" x1="6.582" x2="37.089" y1="6.652" y2="37.16" gradientUnits="userSpaceOnUse"><stop offset="0" stop-color="#fc6b44"/><stop offset=".018" stop-color="#fa6a43"/><stop offset=".42" stop-color="#dc5029"/><stop offset=".761" stop-color="#c94019"/><stop offset="1" stop-color="#c23a13"/></linearGradient><path fill="url(#MkxhRFxN2UoQcDnniFMPLa)" d="M2.363,22.586L22.515,2.433c0.781-0.781,2.047-0.781,2.828,0l20.153,20.152	c0.781,0.781,0.781,2.047,0,2.828L25.344,45.567c-0.781,0.781-2.047,0.781-2.828,0L2.363,25.415	C1.581,24.634,1.581,23.367,2.363,22.586z"/><linearGradient id="MkxhRFxN2UoQcDnniFMPLb" x1="9.043" x2="34.898" y1="9.043" y2="34.898" gradientUnits="userSpaceOnUse"><stop offset="0" stop-color="#4b4b4b"/><stop offset=".531" stop-color="#393939"/><stop offset="1" stop-color="#252525"/></linearGradient><path fill="url(#MkxhRFxN2UoQcDnniFMPLb)" d="M23.646,43.846L4.154,24.354c-0.195-0.195-0.195-0.512,0-0.707L23.646,4.154	c0.195-0.195,0.512-0.195,0.707,0l19.493,19.493c0.195,0.195,0.195,0.512,0,0.707L24.354,43.846	C24.158,44.042,23.842,44.042,23.646,43.846z M6.7,24L24,41.3L41.3,24L24,6.7L6.7,24z"/><linearGradient id="MkxhRFxN2UoQcDnniFMPLc" x1="10.42" x2="26.803" y1="18.985" y2="35.367" gradientUnits="userSpaceOnUse"><stop offset="0" stop-color="#4b4b4b"/><stop offset=".531" stop-color="#393939"/><stop offset="1" stop-color="#252525"/></linearGradient><path fill="url(#MkxhRFxN2UoQcDnniFMPLc)" d="M20.061,27.307H18.17l-0.548-1.713h-2.739l-0.542,1.713h-1.88l2.804-7.702h2.057 L20.061,27.307z M17.225,24.262l-0.827-2.59c-0.061-0.193-0.104-0.424-0.129-0.692h-0.043c-0.018,0.226-0.063,0.449-0.134,0.671 l-0.838,2.611H17.225z"/><linearGradient id="MkxhRFxN2UoQcDnniFMPLd" x1="14.703" x2="31.086" y1="14.701" y2="31.084" gradientUnits="userSpaceOnUse"><stop offset="0" stop-color="#4b4b4b"/><stop offset=".531" stop-color="#393939"/><stop offset="1" stop-color="#252525"/></linearGradient><path fill="url(#MkxhRFxN2UoQcDnniFMPLd)" d="M21.022,27.307v-7.702h2.729c2.736,0,4.104,1.251,4.104,3.755 c0,1.199-0.373,2.157-1.12,2.873c-0.746,0.716-1.741,1.074-2.983,1.074H21.022z M22.757,21.018v4.882h0.859 c0.752,0,1.342-0.226,1.77-0.677c0.428-0.451,0.642-1.065,0.642-1.842c0-0.734-0.212-1.312-0.637-1.732 c-0.424-0.421-1.02-0.631-1.786-0.631H22.757z"/><linearGradient id="MkxhRFxN2UoQcDnniFMPLe" x1="18.629" x2="35.012" y1="10.775" y2="27.158" gradientUnits="userSpaceOnUse"><stop offset="0" stop-color="#4b4b4b"/><stop offset=".531" stop-color="#393939"/><stop offset="1" stop-color="#252525"/></linearGradient><path fill="url(#MkxhRFxN2UoQcDnniFMPLe)" d="M35.594,27.307h-1.993l-1.198-1.982c-0.089-0.15-0.175-0.284-0.258-0.402 s-0.166-0.22-0.25-0.304c-0.084-0.084-0.172-0.148-0.264-0.193c-0.091-0.045-0.19-0.067-0.298-0.067h-0.467v2.949h-1.735v-7.702 h2.75c1.869,0,2.804,0.698,2.804,2.095c0,0.269-0.041,0.517-0.124,0.744c-0.083,0.228-0.199,0.432-0.349,0.615 c-0.15,0.182-0.332,0.34-0.545,0.473c-0.213,0.132-0.451,0.236-0.712,0.311v0.021c0.115,0.036,0.226,0.095,0.333,0.175 c0.107,0.081,0.211,0.175,0.312,0.282s0.196,0.223,0.287,0.347c0.092,0.123,0.175,0.244,0.25,0.362L35.594,27.307z M30.867,20.904 v2.143h0.752c0.373,0,0.671-0.107,0.897-0.322c0.229-0.218,0.344-0.488,0.344-0.811c0-0.673-0.403-1.01-1.208-1.01H30.867z"/></svg>