<svg xmlns="http://www.w3.org/2000/svg" viewBox="0 0 48 48"><path fill="#c767e5" d="M43.051,10.636c0.173,0,0.345,0.047,0.498,0.142C43.829,10.951,44,11.256,44,11.585v6.171	l-1.896-2.48l-2.136-3.214l2.66-1.327C42.762,10.669,42.905,10.636,43.051,10.636z"/><path fill="#50e6ff" d="M22.782,4.505l20.714,20.714c0.673,0.673,0.673,1.764,0,2.437l-15.84,15.84	c-0.673,0.673-1.764,0.673-2.437,0L4.505,22.782c-0.673-0.673-0.673-1.764,0-2.437l15.84-15.84	C21.018,3.832,22.109,3.832,22.782,4.505z"/><linearGradient id="OfFdpkAQByIBzCJHXlwnGa" x1="38.437" x2="49.396" y1="-23.343" y2="-23.343" gradientTransform="rotate(-45.001 92 24.001)" gradientUnits="userSpaceOnUse"><stop offset="0" stop-color="#3079d6"/><stop offset="1" stop-color="#297cd2"/></linearGradient><path fill="url(#OfFdpkAQByIBzCJHXlwnGa)" d="M25.007,17.868l-2.476,2.476l7.655,7.655c0.168,0.168,0.168,0.441,0,0.609l-1.593,1.593 c-0.168,0.168-0.441,0.168-0.609,0l-7.655-7.655l-2.462,2.462c-0.168,0.168-0.441,0.168-0.609,0l-1.179-1.179 c-0.168-0.168-0.168-0.441,0-0.609l7.14-7.14c0.168-0.168,0.441-0.168,0.609,0l1.179,1.179 C25.176,17.427,25.176,17.699,25.007,17.868z"/><path fill="#c767e5" d="M43,18.771c-0.421,0-0.812-0.268-0.95-0.688c-1.897-5.79-6.493-10.347-12.293-12.188	c-0.526-0.167-0.817-0.729-0.65-1.256c0.167-0.526,0.732-0.817,1.256-0.65c6.412,2.036,11.491,7.072,13.588,13.472	c0.172,0.525-0.114,1.09-0.639,1.262C43.208,18.755,43.103,18.771,43,18.771z"/><path fill="#c767e5" d="M4.949,37.364c-0.173,0-0.345-0.047-0.498-0.142C4.171,37.049,4,36.744,4,36.415v-6.171l1.896,2.48	l2.136,3.214l-2.66,1.327C5.238,37.331,5.095,37.364,4.949,37.364z"/><path fill="#c767e5" d="M17.941,44.06c-0.101,0-0.203-0.015-0.303-0.047C11.226,41.977,6.146,36.94,4.05,30.541	c-0.172-0.525,0.114-1.09,0.639-1.262c0.525-0.176,1.09,0.114,1.262,0.639c1.897,5.79,6.493,10.347,12.293,12.188	c0.526,0.167,0.817,0.729,0.65,1.256C18.758,43.788,18.365,44.06,17.941,44.06z"/></svg>