<svg xmlns="http://www.w3.org/2000/svg" viewBox="0 0 48 48"><linearGradient id="nIWOB2YaPTSJ04Tal0Y9Oa" x1="6.414" x2="35.315" y1="465.552" y2="486.661" gradientTransform="translate(0 -451.89)" gradientUnits="userSpaceOnUse"><stop offset="0" stop-color="#28afea"/><stop offset="1" stop-color="#047ed6"/></linearGradient><path fill="url(#nIWOB2YaPTSJ04Tal0Y9Oa)" d="M6,40V12h36v28c0,1.1-0.9,2-2,2H8C6.9,42,6,41.1,6,40z"/><path fill="#fff" d="M23.647,18.603l-2.121,4.756l-5.178,0.547c-0.333,0.035-0.467,0.448-0.219,0.673l3.868,3.486 l-1.08,5.095c-0.069,0.328,0.282,0.583,0.572,0.415L24,30.972l4.511,2.602c0.29,0.167,0.641-0.088,0.572-0.415l-1.08-5.095 l3.868-3.486c0.249-0.224,0.115-0.637-0.219-0.673l-5.178-0.547l-2.121-4.756C24.217,18.297,23.783,18.297,23.647,18.603z"/><linearGradient id="nIWOB2YaPTSJ04Tal0Y9Ob" x1="6.42" x2="41.198" y1="458.498" y2="465.57" gradientTransform="translate(0 -451.89)" gradientUnits="userSpaceOnUse"><stop offset="0" stop-color="#0077d2"/><stop offset="1" stop-color="#0b59a2"/></linearGradient><path fill="url(#nIWOB2YaPTSJ04Tal0Y9Ob)" d="M42,8v6H6V8c0-1.1,0.9-2,2-2h32C41.1,6,42,6.9,42,8z"/><path d="M35.5,12.5L35.5,12.5c-1.657,0-3-1.343-3-3V6h6v3.5 C38.5,11.157,37.157,12.5,35.5,12.5z" opacity=".05"/><path d="M35.5,11.75L35.5,11.75c-1.243,0-2.25-1.007-2.25-2.25V6h4.5v3.5 C37.75,10.743,36.743,11.75,35.5,11.75z" opacity=".07"/><path d="M12.5,12.5L12.5,12.5c-1.657,0-3-1.343-3-3V6h6v3.5 C15.5,11.157,14.157,12.5,12.5,12.5z" opacity=".05"/><path d="M12.5,11.75L12.5,11.75c-1.243,0-2.25-1.007-2.25-2.25V6h4.5v3.5 C14.75,10.743,13.743,11.75,12.5,11.75z" opacity=".07"/><path fill="#3ccbf4" d="M12.5,11L12.5,11c-0.828,0-1.5-0.672-1.5-1.5v-4C11,4.672,11.672,4,12.5,4l0,0 C13.328,4,14,4.672,14,5.5v4C14,10.328,13.328,11,12.5,11z"/><path fill="#3ccbf4" d="M35.5,11L35.5,11c-0.828,0-1.5-0.672-1.5-1.5v-4C34,4.672,34.672,4,35.5,4l0,0 C36.328,4,37,4.672,37,5.5v4C37,10.328,36.328,11,35.5,11z"/><radialGradient id="nIWOB2YaPTSJ04Tal0Y9Oc" cx="37.592" cy="37.688" r="11.234" gradientUnits="userSpaceOnUse"><stop offset=".847"/><stop offset="1" stop-opacity="0"/></radialGradient><path fill="url(#nIWOB2YaPTSJ04Tal0Y9Oc)" d="M40.222,42c0.981-0.003,1.775-0.797,1.778-1.778 V26.786C40.699,26.29,39.297,26,37.822,26C31.293,26,26,31.293,26,37.822c0,1.475,0.29,2.877,0.786,4.178H40.222z" opacity=".2"/><linearGradient id="nIWOB2YaPTSJ04Tal0Y9Od" x1="30.929" x2="45.071" y1="210.819" y2="224.961" gradientTransform="translate(0 -179.89)" gradientUnits="userSpaceOnUse"><stop offset="0" stop-color="#889097"/><stop offset="1" stop-color="#64717c"/></linearGradient><circle cx="38" cy="38" r="10" fill="url(#nIWOB2YaPTSJ04Tal0Y9Od)"/><radialGradient id="nIWOB2YaPTSJ04Tal0Y9Oe" cx="37.948" cy="210.076" r="17.828" gradientTransform="translate(0 -179.89)" gradientUnits="userSpaceOnUse"><stop offset="0" stop-color="#fafafb"/><stop offset="1" stop-color="#c8cdd1"/></radialGradient><circle cx="38" cy="38" r="8" fill="url(#nIWOB2YaPTSJ04Tal0Y9Oe)"/><path fill="#d83b01" d="M40.9,43.7c-0.2,0.1-0.4,0-0.5-0.2l-2.7-5.3c-0.1-0.2,0-0.4,0.2-0.5s0.4,0,0.5,0.2l2.7,5.3 C41.2,43.3,41.1,43.6,40.9,43.7z"/><path fill="#45494d" d="M38,38.4c-0.1,0-0.2,0-0.3-0.1s-0.1-0.4,0-0.5l4.2-4.2c0.1-0.1,0.4-0.1,0.5,0s0.1,0.4,0,0.5 l-4.2,4.2C38.2,38.3,38.1,38.4,38,38.4z"/><path fill="#45494d" d="M38,38.6c-0.1,0-0.2,0-0.3-0.1l-3.9-1.9c-0.3-0.1-0.4-0.5-0.3-0.8c0.1-0.3,0.5-0.4,0.8-0.3 l3.9,1.9c0.3,0.1,0.4,0.5,0.3,0.8C38.5,38.5,38.2,38.6,38,38.6z"/><circle cx="38" cy="38" r="1" fill="#1e2021"/></svg>