<svg xmlns="http://www.w3.org/2000/svg" viewBox="0 0 48 48"><linearGradient id="RIUoQas0JnwflGgsdLIEka" x1="37.522" x2="30.224" y1="20.522" y2="13.224" gradientUnits="userSpaceOnUse"><stop offset=".002" stop-color="#3b3b3b"/><stop offset=".013" stop-color="#3c3c3c"/><stop offset=".875" stop-color="#585858"/><stop offset="1" stop-color="#636363"/></linearGradient><path fill="url(#RIUoQas0JnwflGgsdLIEka)" d="M24.998,25.002c-0.512,0-1.023-0.195-1.414-0.586c-0.781-0.781-0.781-2.047,0-2.828	L38.588,6.584c0.781-0.781,2.047-0.781,2.828,0c0.781,0.781,0.781,2.047,0,2.828L26.412,24.416	C26.021,24.807,25.51,25.002,24.998,25.002z"/><linearGradient id="RIUoQas0JnwflGgsdLIEkb" x1="8.216" x2="33.651" y1="16.219" y2="41.655" gradientUnits="userSpaceOnUse"><stop offset="0" stop-color="#eba84b"/><stop offset="1" stop-color="#d97218"/></linearGradient><path fill="url(#RIUoQas0JnwflGgsdLIEkb)" d="M28.408,22.412l-4.895,17.735l-0.8,3.45c-0.09,0.39-0.58,0.53-0.87,0.25l-2.26-2.26	l-13.17-13.17l-2.26-2.26c-0.28-0.29-0.14-0.78,0.25-0.87l3.45-0.8l17.735-4.895L28.408,22.412z"/><linearGradient id="RIUoQas0JnwflGgsdLIEkc" x1="30.596" x2="51.434" y1="-1.534" y2="19.305" gradientUnits="userSpaceOnUse"><stop offset="0" stop-color="#eba84b"/><stop offset="1" stop-color="#d97218"/></linearGradient><path fill="url(#RIUoQas0JnwflGgsdLIEkc)" d="M43.696,6.692c0.429,0.429,0.389,1.137-0.087,1.514l-4.299,3.413	c-0.187,0.078-0.402,0.035-0.545-0.108l-2.277-2.277c-0.143-0.143-0.186-0.358-0.108-0.545l3.413-4.299	c0.378-0.475,1.085-0.516,1.514-0.087L43.696,6.692z"/><linearGradient id="RIUoQas0JnwflGgsdLIEkd" x1="6.976" x2="36.117" y1="11.98" y2="41.121" gradientUnits="userSpaceOnUse"><stop offset="0" stop-color="#c26715"/><stop offset=".346" stop-color="#be6015"/><stop offset=".686" stop-color="#b54e16"/><stop offset=".979" stop-color="#ad3f16"/></linearGradient><path fill="url(#RIUoQas0JnwflGgsdLIEkd)" d="M23.559,24.441c-0.568-0.568-1.472-0.574-2.061-0.04c-0.589-0.533-1.493-0.528-2.061,0.04	c-0.568,0.568-0.573,1.472-0.04,2.061c-0.533,0.589-0.528,1.493,0.04,2.061c0.568,0.568,1.472,0.573,2.061,0.04	c0.589,0.533,1.493,0.528,2.061-0.04c0.568-0.568,0.573-1.472,0.04-2.061C24.132,25.913,24.127,25.009,23.559,24.441z"/><linearGradient id="RIUoQas0JnwflGgsdLIEke" x1="23.346" x2="15.801" y1="28.35" y2="20.805" gradientUnits="userSpaceOnUse"><stop offset=".002" stop-color="#3b3b3b"/><stop offset=".013" stop-color="#3c3c3c"/><stop offset=".875" stop-color="#585858"/><stop offset="1" stop-color="#636363"/></linearGradient><circle cx="21.498" cy="26.502" r="1.5" fill="url(#RIUoQas0JnwflGgsdLIEke)"/><linearGradient id="RIUoQas0JnwflGgsdLIEkf" x1="18.846" x2="11.301" y1="32.85" y2="25.305" gradientUnits="userSpaceOnUse"><stop offset=".002" stop-color="#3b3b3b"/><stop offset=".013" stop-color="#3c3c3c"/><stop offset=".875" stop-color="#585858"/><stop offset="1" stop-color="#636363"/></linearGradient><path fill="url(#RIUoQas0JnwflGgsdLIEkf)" d="M17.998,33.002c-0.256,0-0.512-0.098-0.707-0.293l-2-2c-0.391-0.391-0.391-1.023,0-1.414	s1.023-0.391,1.414,0l2,2c0.391,0.391,0.391,1.023,0,1.414C18.51,32.904,18.254,33.002,17.998,33.002z"/><linearGradient id="RIUoQas0JnwflGgsdLIEkg" x1="-.181" x2="28.959" y1="19.138" y2="48.278" gradientUnits="userSpaceOnUse"><stop offset="0" stop-color="#c26715"/><stop offset=".346" stop-color="#be6015"/><stop offset=".686" stop-color="#b54e16"/><stop offset=".979" stop-color="#ad3f16"/></linearGradient><path fill="url(#RIUoQas0JnwflGgsdLIEkg)" d="M23.513,40.147l-0.8,3.45c-0.09,0.39-0.58,0.53-0.87,0.25l-2.26-2.26	c0.62-0.96,1.7-1.59,2.92-1.59C22.853,39.997,23.193,40.047,23.513,40.147z"/><linearGradient id="RIUoQas0JnwflGgsdLIEkh" x1="-.181" x2="28.959" y1="19.138" y2="48.278" gradientUnits="userSpaceOnUse"><stop offset="0" stop-color="#c26715"/><stop offset=".346" stop-color="#be6015"/><stop offset=".686" stop-color="#b54e16"/><stop offset=".979" stop-color="#ad3f16"/></linearGradient><path fill="url(#RIUoQas0JnwflGgsdLIEkh)" d="M8.003,25.497c0,1.22-0.63,2.3-1.59,2.92l-2.26-2.26c-0.28-0.29-0.14-0.78,0.25-0.87l3.45-0.8	C7.953,24.807,8.003,25.147,8.003,25.497z"/></svg>