<svg xmlns="http://www.w3.org/2000/svg" xmlns:xlink="http://www.w3.org/1999/xlink" data-name="Слой 1" viewBox="0 0 48 48"><defs><linearGradient id="T7UBp3X2Zw~_vNwb48Q3Jd" x1="20.766" x2="25.05" y1="-1894.008" y2="-1908.746" data-name="Безымянный градиент 186" gradientTransform="matrix(1 0 0 -1 0 -1864)" gradientUnits="userSpaceOnUse"><stop offset="0" stop-color="#0370c8"/><stop offset=".484" stop-color="#036fc5"/><stop offset=".775" stop-color="#036abd"/><stop offset="1" stop-color="#0362b0"/></linearGradient><linearGradient id="T7UBp3X2Zw~_vNwb48Q3Ja" x1="32.917" x2="34.251" y1="-1884" y2="-1884" data-name="Безымянный градиент 185" gradientTransform="matrix(1 0 0 -1 0 -1864)" gradientUnits="userSpaceOnUse"><stop offset="0" stop-color="#c48f0c"/><stop offset=".251" stop-color="#d19b16"/><stop offset=".619" stop-color="#dca51f"/><stop offset="1" stop-color="#e0a922"/></linearGradient><linearGradient id="T7UBp3X2Zw~_vNwb48Q3Je" x1="-2951.083" x2="-2949.749" gradientTransform="rotate(180 -1468 -932)" xlink:href="#T7UBp3X2Zw~_vNwb48Q3Ja"/><linearGradient id="T7UBp3X2Zw~_vNwb48Q3Jg" x1="22.551" x2="24.865" y1="-1894.369" y2="-1907.763" data-name="Безымянный градиент 181" gradientTransform="matrix(1 0 0 -1 0 -1864)" gradientUnits="userSpaceOnUse"><stop offset="0" stop-color="#fede00"/><stop offset="1" stop-color="#ffd000"/></linearGradient><linearGradient id="T7UBp3X2Zw~_vNwb48Q3Jb" x1="14.553" x2="15.401" y1="-1900.985" y2="-1903.859" data-name="Безымянный градиент 182" gradientTransform="matrix(1 0 0 -1 0 -1864)" gradientUnits="userSpaceOnUse"><stop offset="0" stop-color="#4b4b4b"/><stop offset="1" stop-color="#3b3b3b"/></linearGradient><linearGradient id="T7UBp3X2Zw~_vNwb48Q3Jh" x1="32.553" x2="33.401" y1="-1900.985" y2="-1903.859" xlink:href="#T7UBp3X2Zw~_vNwb48Q3Jb"/><radialGradient id="T7UBp3X2Zw~_vNwb48Q3Jf" cx="180.867" cy="-2113.801" r="12.224" data-name="Безымянный градиент 184" gradientTransform="matrix(.8816 0 0 -.8816 -135.452 -1844.827)" gradientUnits="userSpaceOnUse"><stop offset="0" stop-color="#ffcf54"/><stop offset=".261" stop-color="#fdcb4d"/><stop offset=".639" stop-color="#f7c13a"/><stop offset="1" stop-color="#f0b421"/></radialGradient><radialGradient id="T7UBp3X2Zw~_vNwb48Q3Jc" cx="171.164" cy="-2109.172" r="25.269" data-name="Безымянный градиент 183" gradientTransform="matrix(.8816 0 0 -.8816 -135.452 -1844.827)" gradientUnits="userSpaceOnUse"><stop offset="0" stop-color="#c26715"/><stop offset=".508" stop-color="#b85515"/><stop offset="1" stop-color="#ad3f16"/></radialGradient><radialGradient id="T7UBp3X2Zw~_vNwb48Q3Ji" cx="23.457" cy="23.75" r="10.363" xlink:href="#T7UBp3X2Zw~_vNwb48Q3Jc"/></defs><path fill="url(#T7UBp3X2Zw~_vNwb48Q3Jd)" d="M24,30.571c-8.837,0-16,4.921-16,10.286V42a1.99945,1.99945,0,0,0,2,2H38a1.99945,1.99945,0,0,0,2-2V40.857C40,35.492,32.837,30.571,24,30.571Z"/><path fill="#d6a121" d="M29,32c0,1.897-2,4-5,4s-5-2.103-5-4V24.965H29Z"/><path fill="url(#T7UBp3X2Zw~_vNwb48Q3Ja)" d="M32.916,18h-.527v4h.703a1.0205,1.0205,0,0,0,1.041-.74l.344-1.703A1.42438,1.42438,0,0,0,32.916,18Z"/><path fill="url(#T7UBp3X2Zw~_vNwb48Q3Je)" d="M15.084,18h.527v4h-.703a1.0205,1.0205,0,0,1-1.041-.74l-.344-1.703A1.42438,1.42438,0,0,1,15.084,18Z"/><path fill="url(#T7UBp3X2Zw~_vNwb48Q3Jf)" d="M24,6.4c-4.441,0-9,.675-9,10.275v6.698C15,26.8,20.4,31,24,31s9-4.2,9-7.627V16.675C33,7.075,28.441,6.4,24,6.4Z"/><path fill="url(#T7UBp3X2Zw~_vNwb48Q3Jc)" d="M14,14a48.4504,48.4504,0,0,0,1,8l2-8H31s2,6.968,2,8a52.70874,52.70874,0,0,0,1-8Z"/><path fill="#ff832b" d="M35.5,18h-23a.50018.50018,0,0,1-.5-.5v-1a.50018.50018,0,0,1,.5-.5h23a.50018.50018,0,0,1,.5.5v1A.50018.50018,0,0,1,35.5,18Z"/><path fill="#fc6900" d="M34,15V14a8.99944,8.99944,0,0,0-9-9H23a8.99944,8.99944,0,0,0-9,9v1a1.00036,1.00036,0,0,1-1,1H35A1.00036,1.00036,0,0,1,34,15Z"/><path fill="#fc720f" d="M23,4h2a1.00036,1.00036,0,0,1,1,1V16H22V5A1.00036,1.00036,0,0,1,23,4Z"/><path fill="url(#T7UBp3X2Zw~_vNwb48Q3Jg)" d="M31,31.674V40H17V31.674a18.35625,18.35625,0,0,0-4,1.841V44H35V33.515A18.35625,18.35625,0,0,0,31,31.674Z"/><rect width="4" height="3" x="13" y="37" fill="url(#T7UBp3X2Zw~_vNwb48Q3Jb)"/><rect width="4" height="3" x="31" y="37" fill="url(#T7UBp3X2Zw~_vNwb48Q3Jh)"/><path fill="url(#T7UBp3X2Zw~_vNwb48Q3Ji)" d="M24,23c-3.88,0-4.94,1.88-8.64,1.99C16.62,28,20.96,31,24,31s7.38-3,8.64-6.01C28.94,24.88,27.88,23,24,23Zm2.5,6C25,29,25,27.5,24,27.5S23,29,21.5,29a1.47062,1.47062,0,0,1-1-2.5A4.305,4.305,0,0,1,24,25a4.305,4.305,0,0,1,3.5,1.5A1.47062,1.47062,0,0,1,26.5,29Z"/></svg>