<svg xmlns="http://www.w3.org/2000/svg" viewBox="0 0 48 48"><linearGradient id="YlyDJu8kObnh27gN3xY8Fa" x1="4" x2="35" y1="20.935" y2="20.935" gradientUnits="userSpaceOnUse"><stop offset="0" stop-color="#199ae0"/><stop offset="1" stop-color="#0782d8"/></linearGradient><path fill="url(#YlyDJu8kObnh27gN3xY8Fa)" d="M35,30.338V9.897H4v20.441c0,0.899,0.698,1.635,1.55,1.635h27.9	C34.302,31.973,35,31.237,35,30.338z"/><path d="M14.55,15C13.144,15,12,16.147,12,17.559v14.414h21.45c0.852,0,1.55-0.736,1.55-1.635V15H14.55z" opacity=".05"/><path d="M14.55,15.5c-1.13,0-2.05,0.924-2.05,2.059v14.414h20.95c0.852,0,1.55-0.736,1.55-1.635V15.5H14.55z" opacity=".07"/><linearGradient id="YlyDJu8kObnh27gN3xY8Fb" x1="2.192" x2="34.765" y1="8.095" y2="8.095" gradientUnits="userSpaceOnUse"><stop offset="0" stop-color="#004c87"/><stop offset="1" stop-color="#003a70"/></linearGradient><path fill="url(#YlyDJu8kObnh27gN3xY8Fb)" d="M4,7.559v2.63h31v-2.63C35,6.701,34.302,6,33.45,6H5.55C4.697,6,4,6.701,4,7.559z"/><path fill="#50e6ff" d="M44,40.338V19.897H13v20.441c0,0.899,0.698,1.635,1.55,1.635h27.9C43.302,41.973,44,41.237,44,40.338	z"/><linearGradient id="YlyDJu8kObnh27gN3xY8Fc" x1="20.128" x2="55.617" y1="18.095" y2="18.095" gradientUnits="userSpaceOnUse"><stop offset="0" stop-color="#2aa4f4"/><stop offset="1" stop-color="#007ad9"/></linearGradient><path fill="url(#YlyDJu8kObnh27gN3xY8Fc)" d="M13,17.559v2.63h31v-2.63C44,16.701,43.302,16,42.45,16h-27.9C13.697,16,13,16.701,13,17.559z"/></svg>