<svg xmlns="http://www.w3.org/2000/svg" baseProfile="basic" viewBox="0 0 48 48"><linearGradient id="yZpzkaXULxi6GJ7IghbrJa" x1="24" x2="24" y1="57.314" y2="2.533" gradientUnits="userSpaceOnUse"><stop offset="0" stop-color="#3079d6"/><stop offset="1" stop-color="#297cd2"/></linearGradient><circle cx="24" cy="24" r="20" fill="url(#yZpzkaXULxi6GJ7IghbrJa)"/><linearGradient id="yZpzkaXULxi6GJ7IghbrJb" x1="24" x2="24" y1="-6.334" y2="52.748" gradientUnits="userSpaceOnUse"><stop offset="0" stop-color="#fed100"/><stop offset=".033" stop-color="#fcca00"/><stop offset=".221" stop-color="#f3a400"/><stop offset=".408" stop-color="#ec8601"/><stop offset=".592" stop-color="#e77101"/><stop offset=".771" stop-color="#e46401"/><stop offset=".941" stop-color="#e36001"/></linearGradient><circle cx="24" cy="24" r="18" fill="url(#yZpzkaXULxi6GJ7IghbrJb)"/><linearGradient id="yZpzkaXULxi6GJ7IghbrJc" x1="18.345" x2="18.345" y1="2.124" y2="55.652" gradientUnits="userSpaceOnUse"><stop offset="0" stop-color="#3079d6"/><stop offset="1" stop-color="#297cd2"/></linearGradient><path fill="url(#yZpzkaXULxi6GJ7IghbrJc)" d="M29.69,31.95c0,4.35-3.09,7.98-7.19,8.82	l-0.55,0.1C13.53,39.87,7,32.7,7,24c0-9.39,7.61-17,17-17c0.17,0,0.35,0,0.52,0.01c-3.5,1.23-6.02,4.56-6.02,8.49	c0,1.49,0.36,2.9,1.01,4.14c0.86,1.66,2.3,2.94,3.97,3.78l1.22,0.61c1.67,0.84,3.12,2.12,3.98,3.78	C29.32,29.05,29.69,30.46,29.69,31.95z"/><path fill="#fff" d="M38.458,27.528c-0.776-0.927-2.018-1.829-2.809-3.135c-0.111-0.184-0.053-0.407,0.135-0.507 C36.799,23.342,36.978,23.441,38,23c-1-1-2.037-1.36-3.681-1.774c-0.322-0.067-0.507-0.337-0.561-0.634 c-0.088-0.323-0.275-0.87-0.471-1.307c-1.421-2.871-3.192-6.625-6.786-6.907c-0.237-0.003-0.463-0.099-0.62-0.257 c-0.453-0.432-1.087-0.967-1.67-1.055c-0.115,0.011-0.057-0.028-0.146,0.054c-0.233,0.273-0.186,0.283-0.026,0.63 c0.216,0.369,0.628,0.791,1.033,1.208c0.411,0.531,0.126,1.308,0.396,1.904c0.111,0.423,0.344,0.923,0.603,1.229 c0.125,0.161,0.163,0.365,0.124,0.55c-0.288,1.377-0.491,2.862-0.212,4.241c0.006,0.147,0.15,0.202,0.256,0.149 c0.033-0.026,0.032-0.008,0.16-0.233C26.556,20.448,27.675,18.307,28,19c0.473,1.538,1.13,4.53,2.522,5.455 c0.059,0.025,0.013,0.122-0.045,0.089c-1.454-0.751-2.631-2.682-2.978-3.984c-0.27,0.023-0.512,0.242-0.648,0.493 c-0.205,0.719-1.26,0.756-1.449-0.013c-0.076-0.298-0.138-0.6-0.167-0.905c-0.111-1.11-0.041-2.753,0.211-3.582 c-0.704-0.76-1.098-2.227-1.005-2.995c-0.413-0.418-0.847-0.829-1.17-1.344c-0.608-0.774-0.076-2.132,0.967-2.083 c0.924,0.077,1.672,0.707,2.33,1.301c0.729-0.065,2.173,0.444,2.982,0.991c1.834,1.191,2.799,3.236,3.847,5.078 c0.409,0.836,1.142,2.25,1.123,2.924c1.866,0.578,3.975,1.277,5.039,3.046c0.019,0.035,0.001,0.08-0.038,0.091 c0,0-2.9,0.91-2.9,0.91l1.921,3C38.575,27.522,38.495,27.584,38.458,27.528L38.458,27.528z"/><path fill="#fff" d="M27.046,13.688l0.833,1.189C27.879,14.878,28.83,13.53,27.046,13.688z"/><path fill="#fff" d="M9.762,20.071c0.776,0.927,2.018,1.829,2.809,3.135c0.111,0.184,0.053,0.407-0.135,0.507 c-1.015,0.543-1.193,0.444-2.215,0.886c1,1,2.037,1.36,3.681,1.774c0.322,0.067,0.507,0.337,0.561,0.634 c0.088,0.323,0.275,0.87,0.471,1.307c1.421,2.871,3.192,6.625,6.786,6.907c0.237,0.003,0.463,0.099,0.62,0.257 c0.453,0.432,1.087,0.967,1.67,1.055c0.115-0.011,0.057,0.028,0.146-0.054c0.233-0.273,0.186-0.283,0.026-0.63 c-0.216-0.369-0.628-0.791-1.033-1.208c-0.411-0.531-0.126-1.308-0.396-1.904c-0.111-0.423-0.344-0.923-0.603-1.229 c-0.125-0.161-0.163-0.365-0.124-0.55c0.288-1.377,0.491-2.862,0.212-4.241c-0.006-0.147-0.15-0.202-0.256-0.149 c-0.033,0.026-0.032,0.008-0.16,0.233c-0.158,0.348-1.277,2.49-1.602,1.796c-0.473-1.538-1.13-4.53-2.522-5.455 c-0.059-0.025-0.013-0.122,0.045-0.089c1.454,0.751,2.631,2.682,2.978,3.984c0.27-0.023,0.512-0.242,0.648-0.493 c0.205-0.719,1.26-0.756,1.449,0.013c0.076,0.298,0.138,0.6,0.167,0.905c0.111,1.11,0.041,2.753-0.211,3.582 c0.704,0.76,1.098,2.227,1.005,2.995c0.413,0.418,0.847,0.829,1.17,1.344c0.608,0.774,0.076,2.132-0.967,2.083 c-0.924-0.077-1.672-0.707-2.33-1.301c-0.729,0.065-2.173-0.444-2.982-0.991c-1.834-1.191-2.799-3.236-3.847-5.078 c-0.409-0.836-1.142-2.25-1.123-2.924c-1.866-0.578-3.975-1.277-5.039-3.046c-0.019-0.035-0.001-0.08,0.038-0.091 c0,0,2.9-0.91,2.9-0.91l-1.921-3C9.645,20.077,9.725,20.016,9.762,20.071L9.762,20.071z"/><path fill="#fff" d="M21.174,33.911l-0.833-1.189C20.342,32.722,19.39,34.07,21.174,33.911z"/><g><path fill="#fff" d="M20.307,41.678l-0.181-0.984l2.284-0.419c3.922-0.803,6.776-4.305,6.776-8.325 c0-1.379-0.319-2.693-0.949-3.907c-0.768-1.48-2.067-2.713-3.759-3.564l-1.219-0.613c-1.881-0.945-3.333-2.328-4.197-3.996 C18.367,18.529,18,17.019,18,15.5c0-4.493,3.19-8.407,7.586-9.308l0.2,0.98C21.854,7.978,19,11.479,19,15.5 c0,1.379,0.319,2.693,0.95,3.907c0.768,1.481,2.067,2.713,3.759,3.564l1.219,0.613c1.881,0.945,3.332,2.328,4.197,3.996 c0.694,1.339,1.062,2.849,1.062,4.368c0,4.493-3.19,8.407-7.586,9.308L20.307,41.678z"/></g><path fill="#fff" d="M24,8c8.822,0,16,7.178,16,16s-7.178,16-16,16S8,32.822,8,24S15.178,8,24,8 M24,6	C14.059,6,6,14.059,6,24s8.059,18,18,18s18-8.059,18-18S33.941,6,24,6L24,6z"/></svg>