<svg xmlns="http://www.w3.org/2000/svg" id="Layer_1" x="0" y="0" version="1.1" viewBox="0 0 48 48" xml:space="preserve"><linearGradient id="SVGID_1_" x1="3.422" x2="36.741" y1="6.807" y2="34.764" gradientUnits="userSpaceOnUse"><stop offset="0" stop-color="#0077d2"/><stop offset="1" stop-color="#0b59a2"/></linearGradient><path fill="url(#SVGID_1_)" d="M37.3,8.9c0.1-1.1-7-2.4-10.6-0.2c-3.2,2-4.6,10.9-3,11.4c1.6,0.5,3.3-6.3,5.9-7.9C32.4,10.4,37.3,10,37.3,8.9z M17.6,4.9c-0.9-0.6-5.6,4.8-5.5,9.1c0.1,3.8,7.1,9.5,8.4,8.3c1.2-1.2-3.8-6-3.9-9.1C16.4,9.9,18.5,5.5,17.6,4.9z M30.4,43.1	c0.9,0.6,5.6-4.8,5.5-9.1c-0.1-3.8-7.1-9.5-8.4-8.3c-1.2,1.2,3.8,6,3.9,9.1C31.6,38.1,29.5,42.5,30.4,43.1z M43.8,28	c1-0.5-1.4-7.2-5.1-9.3c-3.3-1.8-11.7,1.4-11.3,3.1c0.4,1.6,7.1-0.2,9.8,1.2C40,24.5,42.8,28.5,43.8,28z M4.2,20.1	c-1,0.5,1.4,7.2,5.1,9.3c3.3,1.8,11.7-1.4,11.3-3.1c-0.4-1.6-7.1,0.2-9.8-1.2C8,23.6,5.2,19.6,4.2,20.1z M10.6,39.2	c-0.1,1.1,7,2.4,10.6,0.2c3.2-2,4.6-10.9,3-11.4c-1.6-0.5-3.3,6.3-5.9,7.9C15.5,37.7,10.7,38.1,10.6,39.2z"/></svg>