<svg xmlns="http://www.w3.org/2000/svg" viewBox="0 0 48 48"><linearGradient id="H88WwzcoeqALyi7BoblZEa" x1="17.5" x2="17.5" y1="1.196" y2="10.403" gradientUnits="userSpaceOnUse"><stop offset="0" stop-color="#6d6d6d"/><stop offset=".126" stop-color="#626262"/><stop offset=".886" stop-color="#464646"/><stop offset="1" stop-color="#454545"/></linearGradient><path fill="url(#H88WwzcoeqALyi7BoblZEa)" d="M14,12l1.408-6.689c0.263-1.248,1.779-1.743,2.727-0.889L21,7l-5,5H14z"/><linearGradient id="H88WwzcoeqALyi7BoblZEb" x1="28.5" x2="28.5" y1="1.196" y2="10.403" gradientUnits="userSpaceOnUse"><stop offset="0" stop-color="#6d6d6d"/><stop offset=".126" stop-color="#626262"/><stop offset=".886" stop-color="#464646"/><stop offset="1" stop-color="#454545"/></linearGradient><path fill="url(#H88WwzcoeqALyi7BoblZEb)" d="M32,12l-1.408-6.689c-0.263-1.248-1.779-1.743-2.727-0.889L25,7l5,5H32z"/><linearGradient id="H88WwzcoeqALyi7BoblZEc" x1="35" x2="35" y1="8.63" y2="60.243" gradientUnits="userSpaceOnUse"><stop offset="0" stop-color="#dfe9f2"/><stop offset=".391" stop-color="#d6e0e9"/><stop offset="1" stop-color="#bfc8d1"/></linearGradient><path fill="url(#H88WwzcoeqALyi7BoblZEc)" d="M41,13v9c0,0.73-0.13,1.43-0.37,2.07c-0.65,1.78-2.13,3.17-3.97,3.69	C36.13,27.92,35.58,28,35,28h-6v-7h5c0.55,0,1-0.45,1-1v-6.83c0-1.62,1.22-3.08,2.84-3.17C39.57,9.91,41,11.29,41,13z"/><circle cx="38" cy="15.25" r="1.75" fill="#64717c"/><circle cx="38" cy="11.5" r=".5" fill="#64717c"/><circle cx="36.5" cy="12.5" r=".5" fill="#64717c"/><circle cx="39.5" cy="12.5" r=".5" fill="#64717c"/><linearGradient id="H88WwzcoeqALyi7BoblZEd" x1="23" x2="23" y1="8.63" y2="60.243" gradientUnits="userSpaceOnUse"><stop offset="0" stop-color="#dfe9f2"/><stop offset=".391" stop-color="#d6e0e9"/><stop offset="1" stop-color="#bfc8d1"/></linearGradient><path fill="url(#H88WwzcoeqALyi7BoblZEd)" d="M36,33.2C36,25.744,30.18,17,23,17s-13,8.744-13,16.2S15.82,44,23,44S36,40.656,36,33.2z"/><linearGradient id="H88WwzcoeqALyi7BoblZEe" x1="12.492" x2="12.492" y1="25.261" y2="43.892" gradientUnits="userSpaceOnUse"><stop offset="0" stop-color="#dfe9f2"/><stop offset=".391" stop-color="#d6e0e9"/><stop offset="1" stop-color="#bfc8d1"/></linearGradient><path fill="url(#H88WwzcoeqALyi7BoblZEe)" d="M14.701,28.718c1.505-1.505,1.736-3.714,0.515-4.935s-3.43-0.99-4.935,0.515	c-1.505,1.505-1.736,3.714-0.515,4.935S13.196,30.223,14.701,28.718z"/><linearGradient id="H88WwzcoeqALyi7BoblZEf" x1="38.5" x2="38.5" y1="18.609" y2="32.174" gradientUnits="userSpaceOnUse"><stop offset="0" stop-color="#eba84b"/><stop offset=".255" stop-color="#e8a044"/><stop offset=".641" stop-color="#e18b30"/><stop offset="1" stop-color="#d97218"/></linearGradient><path fill="url(#H88WwzcoeqALyi7BoblZEf)" d="M41,20.16V22c0,0.73-0.13,1.43-0.37,2.07c-0.65,1.78-2.13,3.17-3.97,3.69	C36.25,26.97,36,26.02,36,25c0-2.42,1.38-4.44,3.21-4.9C39.46,20.03,39.73,20,40,20C40.35,20,40.68,20.06,41,20.16z"/><linearGradient id="H88WwzcoeqALyi7BoblZEg" x1="40" x2="40" y1="19.391" y2="25.157" gradientUnits="userSpaceOnUse"><stop offset="0" stop-color="#6d6d6d"/><stop offset=".126" stop-color="#626262"/><stop offset=".886" stop-color="#464646"/><stop offset="1" stop-color="#454545"/></linearGradient><path fill="url(#H88WwzcoeqALyi7BoblZEg)" d="M41,18.25V22c0,0.73-0.13,1.43-0.37,2.07C39.66,23.5,39,22.45,39,21.25	c0-0.4,0.07-0.79,0.21-1.15C39.53,19.26,40.18,18.6,41,18.25z"/><linearGradient id="H88WwzcoeqALyi7BoblZEh" x1="31" x2="31" y1="32.109" y2="58.573" gradientUnits="userSpaceOnUse"><stop offset="0" stop-color="#dfe9f2"/><stop offset=".391" stop-color="#d6e0e9"/><stop offset="1" stop-color="#bfc8d1"/></linearGradient><path fill="url(#H88WwzcoeqALyi7BoblZEh)" d="M37,37.5V39c0,1.62-0.77,3.06-1.97,3.98C34.19,43.62,33.14,44,32,44h-6c-0.55,0-1-0.45-1-1	c0-1.14,0.64-2.11,1.57-2.62C26.21,39.51,26,38.53,26,37.5c0-3.59,2.46-6.5,5.5-6.5c1.97,0,3.69,1.22,4.66,3.05	c0.18,0.33,0.33,0.68,0.45,1.05C36.86,35.84,37,36.65,37,37.5z"/><linearGradient id="H88WwzcoeqALyi7BoblZEi" x1="34" x2="34" y1="32.956" y2="45.022" gradientUnits="userSpaceOnUse"><stop offset="0" stop-color="#eba84b"/><stop offset=".255" stop-color="#e8a044"/><stop offset=".641" stop-color="#e18b30"/><stop offset="1" stop-color="#d97218"/></linearGradient><path fill="url(#H88WwzcoeqALyi7BoblZEi)" d="M37,37.5V39c0,1.62-0.77,3.06-1.97,3.98C32.76,42.74,31,40.83,31,38.5	c0-2.49,2.01-4.5,4.5-4.5c0.22,0,0.44,0.02,0.66,0.05c0.18,0.33,0.33,0.68,0.45,1.05C36.86,35.84,37,36.65,37,37.5z"/><linearGradient id="H88WwzcoeqALyi7BoblZEj" x1="15" x2="15" y1="32.109" y2="58.573" gradientUnits="userSpaceOnUse"><stop offset="0" stop-color="#dfe9f2"/><stop offset=".391" stop-color="#d6e0e9"/><stop offset="1" stop-color="#bfc8d1"/></linearGradient><path fill="url(#H88WwzcoeqALyi7BoblZEj)" d="M21,43c0,0.55-0.45,1-1,1h-6c-2.43,0-4.45-1.73-4.9-4.02C9.03,39.66,9,39.33,9,39v-1.5	c0-1.71,0.56-3.26,1.47-4.42c0.02-0.03,0.04-0.05,0.06-0.08c1-1.23,2.41-2,3.97-2c3.04,0,5.5,2.91,5.5,6.5	c0,1.03-0.21,2.01-0.57,2.88C20.36,40.89,21,41.86,21,43z"/><linearGradient id="H88WwzcoeqALyi7BoblZEk" x1="11.5" x2="11.5" y1="32.956" y2="45.022" gradientUnits="userSpaceOnUse"><stop offset="0" stop-color="#eba84b"/><stop offset=".255" stop-color="#e8a044"/><stop offset=".641" stop-color="#e18b30"/><stop offset="1" stop-color="#d97218"/></linearGradient><path fill="url(#H88WwzcoeqALyi7BoblZEk)" d="M14,36.5c0,1.93-2.01,3.5-4.5,3.5c-0.13,0-0.27,0-0.4-0.02C9.03,39.66,9,39.33,9,39v-1.5	c0-1.71,0.56-3.26,1.47-4.42C12.49,33.43,14,34.83,14,36.5z"/><linearGradient id="H88WwzcoeqALyi7BoblZEl" x1="35.5" x2="35.5" y1="33.136" y2="40.044" gradientUnits="userSpaceOnUse"><stop offset="0" stop-color="#6d6d6d"/><stop offset=".126" stop-color="#626262"/><stop offset=".886" stop-color="#464646"/><stop offset="1" stop-color="#454545"/></linearGradient><path fill="url(#H88WwzcoeqALyi7BoblZEl)" d="M37,37.5v1.23C36.71,38.9,36.36,39,36,39c-1.1,0-2-0.9-2-2c0-1.1,0.9-2,2-2	c0.21,0,0.42,0.03,0.61,0.1C36.86,35.84,37,36.65,37,37.5z"/><linearGradient id="H88WwzcoeqALyi7BoblZEm" x1="14.25" x2="31.75" y1="17" y2="17" gradientUnits="userSpaceOnUse"><stop offset="0" stop-color="#f44f5a"/><stop offset=".443" stop-color="#ee3d4a"/><stop offset="1" stop-color="#e52030"/></linearGradient><path fill="url(#H88WwzcoeqALyi7BoblZEm)" d="M31.75,18c0-4.418-3.918-9-8.75-9s-8.75,4.582-8.75,9s3.918,7,8.75,7S31.75,22.418,31.75,18z"/><radialGradient id="H88WwzcoeqALyi7BoblZEn" cx="18.391" cy="7.391" r="21.862" gradientUnits="userSpaceOnUse"><stop offset="0" stop-color="#dfe9f2"/><stop offset=".391" stop-color="#d6e0e9"/><stop offset="1" stop-color="#bfc8d1"/></radialGradient><path fill="url(#H88WwzcoeqALyi7BoblZEn)" d="M33,16c0,4.69-4.48,7-10,7s-10-2.31-10-7c0-3.48,2.47-7.3,6-9.04C20.22,6.35,21.58,6,23,6	s2.78,0.35,4,0.96C30.53,8.7,33,12.52,33,16z"/><linearGradient id="H88WwzcoeqALyi7BoblZEo" x1="20.351" x2="24.359" y1="23.351" y2="27.359" gradientUnits="userSpaceOnUse"><stop offset="0" stop-color="#ffd869"/><stop offset="1" stop-color="#fec52b"/></linearGradient><circle cx="23" cy="26" r="2" fill="url(#H88WwzcoeqALyi7BoblZEo)"/><path fill="#889097" d="M25.5,18c-1.299,0-1.637-0.392-2.053-1.224c-0.009-0.018-0.025-0.029-0.036-0.046	c-0.019-0.029-0.038-0.055-0.062-0.079c-0.025-0.025-0.052-0.044-0.081-0.063c-0.016-0.011-0.027-0.026-0.045-0.035	c-0.011-0.005-0.022-0.004-0.033-0.009c-0.033-0.014-0.067-0.021-0.103-0.028c-0.029-0.005-0.057-0.011-0.086-0.011	c-0.033,0-0.065,0.006-0.098,0.013c-0.032,0.006-0.062,0.013-0.091,0.025c-0.012,0.005-0.025,0.004-0.037,0.01	c-0.019,0.01-0.032,0.027-0.049,0.039c-0.027,0.018-0.051,0.035-0.074,0.058c-0.026,0.025-0.046,0.053-0.065,0.082	c-0.011,0.016-0.026,0.027-0.035,0.045C22.137,17.608,21.799,18,20.5,18c-0.276,0-0.5,0.224-0.5,0.5s0.224,0.5,0.5,0.5	c1.299,0,1.995-0.372,2.5-1.037C23.505,18.628,24.201,19,25.5,19c0.276,0,0.5-0.224,0.5-0.5S25.776,18,25.5,18z"/><path fill="#64717c" d="M24,16.062c0-0.414-0.448-0.562-1-0.562s-1,0.148-1,0.562S22.448,17,23,17S24,16.477,24,16.062z"/><path fill="#343434" d="M20.5,15c-0.151,0-0.302-0.069-0.4-0.2c-0.523-0.698-1.676-0.698-2.199,0	c-0.166,0.223-0.479,0.266-0.7,0.1c-0.221-0.166-0.266-0.479-0.101-0.7c0.453-0.604,1.146-0.95,1.9-0.95s1.447,0.346,1.9,0.95	c0.165,0.221,0.12,0.534-0.101,0.7C20.71,14.967,20.604,15,20.5,15z"/><path fill="#343434" d="M28.5,15c-0.151,0-0.302-0.069-0.4-0.2c-0.523-0.698-1.676-0.698-2.199,0	c-0.167,0.223-0.48,0.266-0.7,0.1c-0.221-0.166-0.266-0.479-0.101-0.7c0.453-0.604,1.146-0.95,1.9-0.95s1.447,0.346,1.9,0.95	c0.165,0.221,0.12,0.534-0.101,0.7C28.71,14.967,28.604,15,28.5,15z"/><radialGradient id="H88WwzcoeqALyi7BoblZEp" cx="19.304" cy="4.848" r="10.969" gradientUnits="userSpaceOnUse"><stop offset="0" stop-color="#eba84b"/><stop offset=".255" stop-color="#e8a044"/><stop offset=".641" stop-color="#e18b30"/><stop offset="1" stop-color="#d97218"/></radialGradient><path fill="url(#H88WwzcoeqALyi7BoblZEp)" d="M27,6.96V7c0,2.21-1.79,4-4,4s-4-1.79-4-4V6.96C20.22,6.35,21.58,6,23,6S25.78,6.35,27,6.96z"/><path fill="#eba600" d="M23.5,27h-1c-0.276,0-0.5-0.224-0.5-0.5s0.224-0.5,0.5-0.5h1c0.276,0,0.5,0.224,0.5,0.5	S23.776,27,23.5,27z"/><g opacity=".05"><path d="M35.99,32.86c0-0.28-0.02-0.56-0.04-0.84C34.76,30.73,33.19,30,31.5,30c-3.58,0-6.5,3.36-6.5,7.5 c0,0.86,0.13,1.7,0.37,2.5C24.51,40.75,24,41.84,24,43c0,0.35,0.09,0.68,0.25,0.96c0.19-0.01,0.39-0.02,0.58-0.04 c0.22-0.01,0.44-0.04,0.66-0.07C25.2,43.68,25,43.36,25,43c0-1.14,0.64-2.11,1.57-2.62C26.21,39.51,26,38.53,26,37.5 c0-3.59,2.46-6.5,5.5-6.5c1.85,0,3.49,1.08,4.48,2.74C36,33.56,36,33.38,36,33.2C36,33.09,36,32.97,35.99,32.86z"/><path d="M20.63,40c0.24-0.8,0.37-1.64,0.37-2.5c0-4.05-2.8-7.36-6.28-7.49C14.65,30,14.57,30,14.5,30c-0.29,0-0.57,0.02-0.85,0.07 c-0.51,0.07-1.01,0.22-1.48,0.43c-0.31,0.13-0.6,0.3-0.89,0.49c-0.45,0.29-0.87,0.64-1.23,1.05c-0.03,0.27-0.04,0.55-0.04,0.82 C10,32.97,10,33.09,10,33.2c0,0.19,0,0.38,0.02,0.56c0.13-0.24,0.28-0.47,0.45-0.68c0.02-0.03,0.04-0.05,0.06-0.08 c1-1.23,2.41-2,3.97-2c3.04,0,5.5,2.91,5.5,6.5c0,1.03-0.21,2.01-0.57,2.88C20.36,40.89,21,41.86,21,43c0,0.36-0.2,0.68-0.49,0.85 c0.22,0.03,0.44,0.06,0.66,0.07c0.19,0.02,0.39,0.03,0.58,0.04C21.91,43.68,22,43.35,22,43C22,41.84,21.49,40.75,20.63,40z"/><path d="M15.92,23.08c-0.52-0.52-1.19-0.87-1.93-1.01c-0.12,0.15-0.24,0.3-0.35,0.46c-0.11,0.15-0.22,0.31-0.33,0.47 c0.73,0.02,1.4,0.28,1.91,0.78c1.22,1.22,0.99,3.43-0.52,4.94c-0.85,0.85-1.94,1.3-2.94,1.3c-0.48,0-0.95-0.11-1.36-0.33 c-0.04,0.17-0.07,0.34-0.11,0.51c-0.03,0.17-0.06,0.34-0.08,0.51c0.33,0.14,0.69,0.24,1.07,0.28c0.16,0.02,0.32,0.03,0.48,0.03 c0.2,0,0.4-0.01,0.6-0.05c0.49-0.05,0.97-0.2,1.43-0.41c0.32-0.15,0.63-0.33,0.93-0.55c0.24-0.17,0.47-0.36,0.69-0.58 C17.3,27.53,17.53,24.68,15.92,23.08z"/></g><g opacity=".07"><path d="M35.99,32.86c-1.13-1.5-2.75-2.36-4.49-2.36c-3.31,0-6,3.14-6,7c0,0.92,0.15,1.82,0.46,2.68 c-0.91,0.65-1.46,1.7-1.46,2.82c0,0.35,0.12,0.67,0.33,0.92c0.22-0.01,0.44-0.04,0.66-0.07C25.2,43.68,25,43.36,25,43 c0-1.14,0.64-2.11,1.57-2.62C26.21,39.51,26,38.53,26,37.5c0-3.59,2.46-6.5,5.5-6.5c1.85,0,3.49,1.08,4.48,2.74 C36,33.56,36,33.38,36,33.2C36,33.09,36,32.97,35.99,32.86z"/><path d="M20.04,40.18c0.31-0.86,0.46-1.76,0.46-2.68c0-3.86-2.69-7-6-7c-0.24,0-0.48,0.02-0.71,0.06 c-0.49,0.06-0.97,0.2-1.43,0.41c-0.84,0.37-1.6,0.95-2.22,1.71v0.01l-0.03,0.04c-0.02,0.02-0.04,0.04-0.06,0.07 c-0.02,0.02-0.03,0.04-0.04,0.06C10,32.97,10,33.09,10,33.2c0,0.19,0,0.38,0.02,0.56c0.13-0.24,0.28-0.47,0.45-0.68 c0.02-0.03,0.04-0.05,0.06-0.08c1-1.23,2.41-2,3.97-2c3.04,0,5.5,2.91,5.5,6.5c0,1.03-0.21,2.01-0.57,2.88 C20.36,40.89,21,41.86,21,43c0,0.36-0.2,0.68-0.49,0.85c0.22,0.03,0.44,0.06,0.66,0.07c0.21-0.25,0.33-0.57,0.33-0.92 C21.5,41.88,20.95,40.83,20.04,40.18z"/><path d="M15.57,23.43c-0.51-0.51-1.18-0.82-1.93-0.9c-0.11,0.15-0.22,0.31-0.33,0.47c0.73,0.02,1.4,0.28,1.91,0.78 c1.22,1.22,0.99,3.43-0.52,4.94c-0.85,0.85-1.94,1.3-2.94,1.3c-0.48,0-0.95-0.11-1.36-0.33c-0.04,0.17-0.07,0.34-0.11,0.51 c0.44,0.21,0.94,0.32,1.47,0.32c0.14,0,0.28-0.01,0.41-0.02c0.51-0.05,1.01-0.2,1.48-0.43c0.51-0.24,0.98-0.58,1.4-1 C16.75,27.37,16.98,24.84,15.57,23.43z"/></g></svg>