<svg xmlns="http://www.w3.org/2000/svg" id="Layer_1" x="0" y="0" version="1.1" viewBox="0 0 48 48" xml:space="preserve"><path fill="#50e6ff" d="M40,6H8C6.9,6,6,6.9,6,8v32c0,1.1,0.9,2,2,2h32c1.1,0,2-0.9,2-2V8C42,6.9,41.1,6,40,6z"/><path fill="#0d61a9" d="M10.2,24.4l5.5,5.5c0.2,0.2,0.6,0.2,0.8,0l1.2-1.2c0.2-0.2,0.2-0.6,0-0.8l-5.5-5.5c-0.2-0.2-0.6-0.2-0.8,0 l-1.2,1.2C9.9,23.8,9.9,24.2,10.2,24.4z"/><path fill="#0d61a9" d="M12.2,25.6l5.5-5.5c0.2-0.2,0.2-0.6,0-0.8L16.5,18c-0.2-0.2-0.6-0.2-0.8,0l-5.5,5.5c-0.2,0.2-0.2,0.6,0,0.8 l1.2,1.2C11.6,25.8,11.9,25.8,12.2,25.6z"/><path fill="#0d61a9" d="M37.8,24.4L32.3,30c-0.2,0.2-0.6,0.2-0.8,0l-1.2-1.2c-0.2-0.2-0.2-0.6,0-0.8l5.5-5.5c0.2-0.2,0.6-0.2,0.8,0 l1.2,1.2C38.1,23.8,38.1,24.2,37.8,24.4z"/><path fill="#0d61a9" d="M35.8,25.6L30.3,20c-0.2-0.2-0.2-0.6,0-0.8l1.2-1.2c0.2-0.2,0.6-0.2,0.8,0l5.5,5.5c0.2,0.2,0.2,0.6,0,0.8 l-1.2,1.2C36.4,25.8,36.1,25.8,35.8,25.6z"/><path fill="#0d61a9" d="M27.2,14.1h-2.1c-0.3,0-0.5,0.2-0.6,0.4l-4.1,18.9c-0.1,0.3,0.2,0.5,0.4,0.5h2.1c0.3,0,0.5-0.2,0.6-0.4 l4.1-18.9C27.6,14.3,27.4,14.1,27.2,14.1z"/></svg>