<svg xmlns="http://www.w3.org/2000/svg" viewBox="0 0 48 48"><linearGradient id="8w3zyjUYoBlD6bnQXehxUa" x1="19.845" x2="30.316" y1=".14" y2="44.203" gradientUnits="userSpaceOnUse"><stop offset="0" stop-color="#32bdef"/><stop offset="1" stop-color="#1ea2e4"/></linearGradient><path fill="url(#8w3zyjUYoBlD6bnQXehxUa)" d="M35,15V5c0-0.552-0.448-1-1-1H14c-0.552,0-1,0.448-1,1v10c0,5.738,4.394,10.444,10,10.95 v11.788c0,1.339-0.888,2.517-2.176,2.885l-3.997,1.142C16.337,41.904,16,42.351,16,42.86v0c0,0.63,0.51,1.14,1.14,1.14H23h2h5.86 c0.63,0,1.14-0.51,1.14-1.14v0c0-0.509-0.337-0.956-0.827-1.096l-3.997-1.142C25.888,40.254,25,39.077,25,37.737V25.95 C30.606,25.444,35,20.738,35,15z"/><radialGradient id="8w3zyjUYoBlD6bnQXehxUb" cx="23.191" cy="11.83" r="16.25" fx="23.488" fy="12.495" gradientUnits="userSpaceOnUse"><stop offset="0" stop-color="#de3a4d"/><stop offset=".185" stop-color="#d8374a"/><stop offset=".435" stop-color="#c73041"/><stop offset=".722" stop-color="#aa2333"/><stop offset="1" stop-color="#881421"/></radialGradient><path fill="url(#8w3zyjUYoBlD6bnQXehxUb)" d="M13,11v4c0,6.075,4.925,11,11,11s11-4.925,11-11v-4H13z"/></svg>