<svg xmlns="http://www.w3.org/2000/svg" viewBox="0 0 48 48"><linearGradient id="TzJtPfCH6JIqzBSo5mfWAa" x1="288.64" x2="307.222" y1="-307.439" y2="-343.592" gradientTransform="matrix(1 0 0 -1 -273.638 -300.945)" gradientUnits="userSpaceOnUse"><stop offset="0" stop-color="#75daff"/><stop offset="1" stop-color="#1ea2e4"/></linearGradient><path fill="url(#TzJtPfCH6JIqzBSo5mfWAa)" d="M44,24c0,11.045-8.955,20-20,20S4,35.045,4,24S12.955,4,24,4S44,12.955,44,24z"/><path fill="#1d59b3" d="M27.841,15v11.347H30v2.962h-2.159V33h-3.615v-3.69h-7.845v-3.1 c0.694-0.778,1.414-1.63,2.159-2.554c0.744-0.925,1.464-1.877,2.159-2.856c0.694-0.979,1.341-1.964,1.939-2.956 c0.597-0.991,1.107-1.939,1.525-2.843H27.841z M19.933,26.347h4.293v-6.289c-0.293,0.544-0.611,1.094-0.954,1.65 c-0.343,0.557-0.703,1.105-1.079,1.645c-0.377,0.539-0.757,1.062-1.142,1.569C20.665,25.429,20.293,25.904,19.933,26.347z"/></svg>