<svg xmlns="http://www.w3.org/2000/svg" viewBox="0 0 48 48"><linearGradient id="iWbAHSsXG6Fhvm6wIdaNda" x1="9.516" x2="37.516" y1="6.717" y2="40.129" gradientUnits="userSpaceOnUse"><stop offset="0" stop-color="#f44f5a"/><stop offset=".443" stop-color="#ee3d4a"/><stop offset="1" stop-color="#e52030"/></linearGradient><path fill="url(#iWbAHSsXG6Fhvm6wIdaNda)" d="M9,8l1-1h27.897L39,8c3,8,3,24,0,32l-1,1H10l-1-1C6,32,6,16,9,8z"/><path fill="#f09ca2" d="M39,8H9V6c0-1.105,0.895-2,2-2h26c1.105,0,2,0.895,2,2V8z"/><path fill="#f09ca2" d="M37,44H11c-1.105,0-2-0.895-2-2v-2h30v2C39,43.105,38.105,44,37,44z"/><linearGradient id="iWbAHSsXG6Fhvm6wIdaNdb" x1="35.176" x2="10.293" y1="25" y2="25" gradientUnits="userSpaceOnUse"><stop offset="0" stop-color="#f09701"/><stop offset="1" stop-color="#e36001"/></linearGradient><path fill="url(#iWbAHSsXG6Fhvm6wIdaNdb)" d="M27,29c3.502,0,6.478-2.25,7.562-5.383C35.006,22.335,34.011,21,32.653,21H19	C19,25.418,22.582,29,27,29z"/><linearGradient id="iWbAHSsXG6Fhvm6wIdaNdc" x1="22.166" x2="22.166" y1="19.412" y2="34.434" gradientUnits="userSpaceOnUse"><stop offset="0" stop-color="#fed100"/><stop offset="1" stop-color="#e38101"/></linearGradient><path fill="url(#iWbAHSsXG6Fhvm6wIdaNdc)" d="M29,21h-1.25H15.347c-1.357,0-2.353,1.335-1.909,2.617C14.522,26.75,17.498,29,21,29	c3.436,0,6.357-2.17,7.49-5.211c0.003,0,0.006,0.001,0.01,0.001C29.268,22.022,30.25,21,31,21H29z"/><path d="M32.653,21c1.357,0,2.353,1.335,1.909,2.617C33.478,26.75,30.502,29,27,29c-1.072,0-2.093-0.214-3.027-0.597 C23.051,28.775,22.055,29,21,29c-3.502,0-6.478-2.25-7.562-5.383C12.994,22.335,13.989,21,15.347,21H19h8.75H29h2H32.653 M32.653,20H31h-2h-1.25H19h-3.653c-0.974,0-1.895,0.476-2.462,1.272c-0.563,0.79-0.706,1.764-0.392,2.672 C13.746,27.566,17.165,30,21,30c0.993,0,1.99-0.177,2.971-0.527C24.946,29.823,25.963,30,27,30c3.835,0,7.254-2.434,8.507-6.056 c0.314-0.908,0.171-1.882-0.392-2.672C34.548,20.476,33.628,20,32.653,20L32.653,20z" opacity=".05"/><path d="M32.653,21c1.357,0,2.353,1.335,1.909,2.617C33.478,26.75,30.502,29,27,29c-1.072,0-2.093-0.214-3.027-0.597 C23.051,28.775,22.055,29,21,29c-3.502,0-6.478-2.25-7.562-5.383C12.994,22.335,13.989,21,15.347,21H19h8.75H29h2H32.653 M32.653,20.5H31h-2h-1.25H19h-3.653c-0.813,0-1.581,0.397-2.055,1.062c-0.468,0.657-0.587,1.466-0.326,2.219 C14.149,27.202,17.378,29.5,21,29.5c0.992,0,1.99-0.188,2.971-0.56c0.972,0.372,1.989,0.56,3.029,0.56 c3.622,0,6.851-2.298,8.035-5.719c0.261-0.753,0.142-1.562-0.326-2.219C34.235,20.897,33.466,20.5,32.653,20.5L32.653,20.5z" opacity=".07"/><g><circle cx="21" cy="26" r="1" fill="#e38101"/><circle cx="17" cy="24" r="1" fill="#e38101"/></g></svg>