<svg xmlns="http://www.w3.org/2000/svg" viewBox="0 0 48 48"><path fill="#edbe00" d="M23.536,23.129L7.81,32.175C7.331,32.426,7,32.922,7,33.5V42c0,0.552,0.448,1,1,1 c0.183,0,0.346-0.063,0.494-0.149L24,33.568V23C23.829,23,23.676,23.054,23.536,23.129z"/><path fill="#e3a600" d="M24.464,23.129l15.726,9.046C40.669,32.426,41,32.922,41,33.5V42c0,0.552-0.448,1-1,1 c-0.183,0-0.346-0.063-0.494-0.149L24,33.568V23C24.171,23,24.324,23.054,24.464,23.129z"/><path fill="#edbe00" d="M23.536,7.129L7.81,16.175C7.331,16.426,7,16.922,7,17.5V26c0,0.552,0.448,1,1,1 c0.183,0,0.346-0.063,0.494-0.149L24,17.568V7C23.829,7,23.676,7.054,23.536,7.129z"/><path fill="#e3a600" d="M24.464,7.129l15.726,9.046C40.669,16.426,41,16.922,41,17.5V26c0,0.552-0.448,1-1,1 c-0.183,0-0.346-0.063-0.494-0.149L24,17.568V7C24.171,7,24.324,7.054,24.464,7.129z"/></svg>