<svg xmlns="http://www.w3.org/2000/svg" width="48" height="48" viewBox="0 0 48 48"><path d="M16,8.5c1.218,0,2.385,0.288,3.47,0.856l1.034,0.542l1.152-0.187C22.525,9.569,23.292,9.5,24,9.5 c7.995,0,14.5,6.505,14.5,14.5c0,0.708-0.069,1.475-0.21,2.344l-0.188,1.152l0.542,1.034C39.212,29.615,39.5,30.782,39.5,32 c0,4.136-3.365,7.5-7.5,7.5c-1.218,0-2.385-0.288-3.47-0.856l-1.034-0.542l-1.152,0.187C25.475,38.431,24.708,38.5,24,38.5 c-7.995,0-14.5-6.505-14.5-14.5c0-0.708,0.069-1.475,0.21-2.344l0.188-1.152L9.356,19.47C8.788,18.385,8.5,17.218,8.5,16 C8.5,11.864,11.865,8.5,16,8.5 M16,5C9.925,5,5,9.925,5,16c0,1.839,0.457,3.57,1.256,5.094C6.101,22.042,6,23.008,6,24 c0,9.941,8.059,18,18,18c0.992,0,1.958-0.101,2.906-0.256C28.43,42.543,30.161,43,32,43c6.075,0,11-4.925,11-11 c0-1.839-0.457-3.57-1.256-5.094C41.899,25.958,42,24.992,42,24c0-9.941-8.059-18-18-18c-0.992,0-1.958,0.101-2.906,0.256 C19.57,5.457,17.839,5,16,5L16,5z" opacity=".07"/><path d="M28.673,21.79l-7.423-1.946c-0.099-0.065-0.262-0.383-0.262-0.605v-0.123	c0-0.82,0.205-1.055,1.043-1.199c0.638-0.109,2.131-0.127,2.658-0.026c1.14,0.219,1.749,0.577,2.388,1.441l0.313,0.346	c0.497,0.664,1.301,1.045,2.205,1.045c0.741,0,1.513-0.256,2.116-0.704c1.397-1.036,1.358-3.067,0.445-4.313	C30.56,13.524,27.304,12,24.238,12h-1.919c-4.233,0-7.946,3.433-7.946,7.346v0.123c0,2.828,2.072,5.512,4.824,6.244l7.253,1.895	c0.315,0.083,0.535,0.369,0.535,0.695v0.245c0,0.653-0.508,1.35-1.207,1.656c-0.411,0.18-1.093,0.288-1.825,0.288	c-0.801,0-1.393-0.121-1.68-0.234c-0.468-0.184-1.276-0.811-1.72-1.329l-1.108-1.338c-0.532-0.621-1.298-0.963-2.157-0.963	c-0.771,0-1.551,0.29-2.14,0.795c-1.333,1.142-1.174,3.422-0.153,4.613l0.882,1.048c1.623,1.624,3.613,2.138,5.369,2.592	c0.575,0.148,1.396,0.224,2.441,0.224c1.117,0,2.384-0.093,3.149-0.23c4.087-0.736,6.832-3.598,6.832-7.121v-0.245	C33.669,25.25,31.616,22.572,28.673,21.79z" opacity=".05"/><path d="M28.546,22.273l-7.47-1.965c-0.28-0.074-0.588-0.634-0.588-1.07v-0.123	c0-1.064,0.382-1.507,1.459-1.692c0.688-0.118,2.249-0.137,2.837-0.024c1.265,0.243,1.979,0.667,2.667,1.6l0.339,0.379	c0.408,0.544,1.049,0.845,1.805,0.844c0.637,0,1.3-0.221,1.818-0.605c1.159-0.859,1.111-2.564,0.34-3.617	c-1.509-2.062-4.599-3.501-7.515-3.501h-1.919c-3.967,0-7.446,3.199-7.446,6.846v0.123c0,2.609,1.912,5.084,4.451,5.76l7.255,1.895	c0.533,0.142,0.906,0.626,0.906,1.179v0.245c0,0.856-0.619,1.726-1.507,2.114c-0.478,0.209-1.216,0.33-2.025,0.33	c-0.739,0-1.436-0.1-1.862-0.269c-0.614-0.242-1.479-0.958-1.923-1.476l-1.102-1.332c-0.437-0.508-1.067-0.789-1.778-0.789	c-0.653,0-1.314,0.246-1.814,0.675c-1.101,0.943-0.95,2.914-0.096,3.913l0.853,1.015c1.414,1.415,3.093,1.932,5.141,2.461	c0.665,0.172,1.627,0.208,2.316,0.208c1.091,0,2.321-0.089,3.062-0.223c3.195-0.576,6.42-2.848,6.42-6.628v-0.245	C33.169,25.476,31.269,22.997,28.546,22.273z" opacity=".07"/><path d="M16,9c1.136,0,2.226,0.269,3.238,0.799l1.182,0.619l1.317-0.214C22.578,10.067,23.319,10,24,10c7.72,0,14,6.28,14,14 c0,0.681-0.067,1.422-0.204,2.264l-0.214,1.317l0.619,1.182C38.731,29.774,39,30.864,39,32c0,3.86-3.14,7-7,7 c-1.136,0-2.226-0.269-3.238-0.799l-1.182-0.619l-1.317,0.214C25.422,37.933,24.681,38,24,38c-7.72,0-14-6.28-14-14 c0-0.681,0.067-1.422,0.204-2.264l0.214-1.317l-0.619-1.182C9.269,18.226,9,17.136,9,16C9,12.14,12.14,9,16,9 M16,5 C9.925,5,5,9.925,5,16c0,1.839,0.457,3.57,1.256,5.094C6.101,22.042,6,23.008,6,24c0,9.941,8.059,18,18,18 c0.992,0,1.958-0.101,2.906-0.256C28.43,42.543,30.161,43,32,43c6.075,0,11-4.925,11-11c0-1.839-0.457-3.57-1.256-5.094 C41.899,25.958,42,24.992,42,24c0-9.941-8.059-18-18-18c-0.992,0-1.958,0.101-2.906,0.256C19.57,5.457,17.839,5,16,5L16,5z" opacity=".05"/><linearGradient id="jw5V2mfN8uv2_RQGZfZ21a" x1="15.668" x2="35.168" y1="10.755" y2="41.755" gradientUnits="userSpaceOnUse"><stop offset="0" stop-color="#00b3ee"/><stop offset="1" stop-color="#0082d8"/></linearGradient><path fill="url(#jw5V2mfN8uv2_RQGZfZ21a)" d="M16,8c1.3,0,2.545,0.307,3.702,0.913l0.886,0.464l0.988-0.161C22.472,9.071,23.265,9,24,9	c8.271,0,15,6.729,15,15c0,0.735-0.071,1.528-0.217,2.424l-0.161,0.988l0.464,0.886C39.693,29.455,40,30.7,40,32	c0,4.411-3.589,8-8,8c-1.3,0-2.545-0.307-3.702-0.913l-0.886-0.464l-0.988,0.161C25.528,38.929,24.735,39,24,39	c-8.271,0-15-6.729-15-15c0-0.735,0.071-1.528,0.217-2.424l0.161-0.988l-0.464-0.886C8.307,18.545,8,17.3,8,16	C8,11.589,11.589,8,16,8 M16,5C9.925,5,5,9.925,5,16c0,1.839,0.457,3.57,1.256,5.094C6.101,22.042,6,23.008,6,24	c0,9.941,8.059,18,18,18c0.992,0,1.958-0.101,2.906-0.256C28.43,42.543,30.161,43,32,43c6.075,0,11-4.925,11-11	c0-1.839-0.457-3.57-1.256-5.094C41.899,25.958,42,24.992,42,24c0-9.941-8.059-18-18-18c-0.992,0-1.958,0.101-2.906,0.256	C19.57,5.457,17.839,5,16,5L16,5z"/><linearGradient id="jw5V2mfN8uv2_RQGZfZ21b" x1="15.414" x2="34.914" y1="10.915" y2="41.915" gradientUnits="userSpaceOnUse"><stop offset="0" stop-color="#00b3ee"/><stop offset="1" stop-color="#0082d8"/></linearGradient><path fill="url(#jw5V2mfN8uv2_RQGZfZ21b)" d="M26.66,34.683c-1.157,0.208-3.915,0.345-5.163,0.023c-1.865-0.482-3.541-0.96-4.912-2.33 l-0.823-0.982c-0.718-0.839-0.802-2.494,0.037-3.212c0.839-0.719,2.169-0.779,2.887,0.059l1.097,1.325 c0.491,0.574,1.422,1.345,2.125,1.622c0.997,0.393,3.116,0.439,4.272-0.069c1.009-0.442,1.805-1.471,1.805-2.572v-0.245 c0-0.779-0.525-1.462-1.278-1.662l-7.257-1.895c-2.315-0.616-4.077-2.88-4.077-5.276v-0.123c0-3.499,3.447-6.346,6.946-6.346h1.919 c2.558,0,5.601,1.232,7.112,3.296c0.65,0.888,0.649,2.264-0.234,2.919s-2.266,0.742-2.924-0.137l-0.366-0.411 c-0.775-1.058-1.642-1.509-2.947-1.759c-0.734-0.141-2.28-0.104-3.016,0.023c-1.326,0.228-1.874,0.891-1.874,2.185v0.123 c0,0.585,0.395,1.404,0.96,1.554l7.471,1.965c2.503,0.666,4.25,2.955,4.25,5.545v0.245C32.669,31.854,29.914,34.097,26.66,34.683z"/></svg>