<svg xmlns="http://www.w3.org/2000/svg" data-name="Слой 1" viewBox="0 0 48 48"><defs><linearGradient id="0UrQb9A8E85OyKUVZAALVa" x1="20.592" x2="40.092" y1="-3.222" y2="50.354" data-name="Безымянный градиент 16" gradientUnits="userSpaceOnUse"><stop offset="0" stop-color="#6d6d6d"/><stop offset=".126" stop-color="#626262"/><stop offset=".987" stop-color="#464646"/><stop offset=".998" stop-color="#454545"/></linearGradient><linearGradient id="0UrQb9A8E85OyKUVZAALVb" x1="24" x2="32" y1="-598" y2="-598" data-name="Безымянный градиент 50" gradientTransform="matrix(1 0 0 -1 0 -588)" gradientUnits="userSpaceOnUse"><stop offset="0" stop-color="#ffcf54"/><stop offset=".261" stop-color="#fdcb4d"/><stop offset=".639" stop-color="#f7c13a"/><stop offset="1" stop-color="#f0b421"/></linearGradient></defs><path fill="url(#0UrQb9A8E85OyKUVZAALVa)" d="M42,6.05128V41.94872A1.93174,1.93174,0,0,1,40.23077,44H20.76923A1.93174,1.93174,0,0,1,19,41.94872V6.05128A1.9317,1.9317,0,0,1,20.76923,4H40.23077A1.9317,1.9317,0,0,1,42,6.05128Z"/><path fill="#199be2" d="M2.5,31.96772a1.5,1.5,0,1,0,1.5,1.5A1.50055,1.50055,0,0,0,2.5,31.96772Z"/><path fill="#199be2" d="M19.9981,28.17572,13.9824,25.949l-3.5603,4.56749L2.22975,31.99213,2.5,34.96772l8.2603.03185a1.8978,1.8978,0,0,0,1.22645-.4161Z"/><circle cx="33.5" cy="24.5" r="1.5" fill="#199be2"/><path fill="#199be2" d="M33.5,26H27.5848a1.89912,1.89912,0,0,1-1.37085-.58425l-4.8849-5.0882,3.64378-3.32212,3.523,5.48907,5.202.51844Z"/><path fill="url(#0UrQb9A8E85OyKUVZAALVb)" d="M24,10a4,4,0,1,0,3.998-4A3.99975,3.99975,0,0,0,24,10Z"/><path fill="#35c1f1" d="M18,18a4,4,0,1,0,3.998-4A3.99975,3.99975,0,0,0,18,18Z"/><path fill="#35c1f1" d="M13,26.25a4,4,0,1,0,3.998-4A3.99975,3.99975,0,0,0,13,26.25Z"/><path fill="#35c1f1" d="M20.5,41A1.5,1.5,0,1,0,22,42.5,1.50055,1.50055,0,0,0,20.5,41Z"/><path fill="#35c1f1" d="M25.42627,20.06536,18.8334,15.3613,13.69712,23.993l1.32839,5.73679L19,33.5v9l2.97142.29268,1.71-10.09253A1.90448,1.90448,0,0,0,23.5,32l-2-5Z"/><path fill="#35c1f1" d="M7.5,19A1.5,1.5,0,1,0,9,20.5,1.50055,1.50055,0,0,0,7.5,19Z"/><path fill="#35c1f1" d="M22,14H13.6191a1.89762,1.89762,0,0,0-1.158.39425l-5.96578,4.9923L8.2415,21.804l5.598-3.81871,7.33685.4161Z"/><path fill="#fff" d="M39.11926,33.68433,35.6311,30.19611a.3696.3696,0,0,0-.63092.26135v2.54248H29a1,1,0,0,0,0,2h6.00018v2.5426a.36958.36958,0,0,0,.63092.26129l3.48816-3.48816A.44646.44646,0,0,0,39.11926,33.68433Z"/></svg>