<svg xmlns="http://www.w3.org/2000/svg" viewBox="0 0 48 48"><path fill="#50e6ff" d="M39,16v25c0,1.105-0.895,2-2,2H11c-1.105,0-2-0.895-2-2V7c0-1.105,0.895-2,2-2h17L39,16z"/><linearGradient id="8wwD2Hqfe05t7Sb2GQ5BNa" x1="28.529" x2="33.6" y1="-3905.471" y2="-3900.4" gradientTransform="matrix(1 0 0 -1 0 -3890)" gradientUnits="userSpaceOnUse"><stop offset="0" stop-color="#3079d6"/><stop offset="1" stop-color="#297cd2"/></linearGradient><path fill="url(#8wwD2Hqfe05t7Sb2GQ5BNa)" d="M28,5v9c0,1.105,0.895,2,2,2h9L28,5z"/><path fill="#ad3f16" d="M41.147,46.827l-11.39-12.656l1.414-1.414l12.656,11.39c0.808,0.727,0.841,1.983,0.072,2.752l0,0 C43.131,47.668,41.875,47.635,41.147,46.827z"/><rect width="12.036" height="7.57" x="21.453" y="26.712" fill="#751b0b" transform="rotate(-45.001 27.471 30.498)"/><path fill="#d6742d" d="M27.28,36.021l-5.355-5.355c-0.384-0.384-0.384-1.006,0-1.39l4.309-4.309 c0.384-0.384,1.006-0.384,1.39,0l5.355,5.355c0.384,0.384,0.384,1.006,0,1.39l-4.309,4.309 C28.286,36.405,27.664,36.405,27.28,36.021z"/><path fill="#d6742d" d="M34.381,28.896l-5.331-5.331c-0.391-0.391-0.391-1.024,0-1.414l0,0c0.391-0.391,1.024-0.391,1.414,0 l5.331,5.331c0.391,0.391,0.391,1.024,0,1.414v0C35.405,29.286,34.771,29.286,34.381,28.896z"/><path fill="#d6742d" d="M24.481,38.795l-5.331-5.331c-0.391-0.391-0.391-1.024,0-1.414l0,0c0.391-0.391,1.024-0.391,1.414,0 l5.331,5.331c0.391,0.391,0.391,1.024,0,1.414h0C25.505,39.186,24.872,39.186,24.481,38.795z"/></svg>