<svg xmlns="http://www.w3.org/2000/svg" viewBox="0 0 48 48"><linearGradient id="jW9ZcNJPPQf_7wKPdpdiia" x1="5.191" x2="39.659" y1="-1.544" y2="45.265" gradientUnits="userSpaceOnUse"><stop offset="0" stop-color="#f0f0f0"/><stop offset="1" stop-color="#bbc1c4"/></linearGradient><path fill="url(#jW9ZcNJPPQf_7wKPdpdiia)" d="M9,4h30c1.105,0,2,0.895,2,2v36c0,1.105-0.895,2-2,2H9c-1.105,0-2-0.895-2-2V6	C7,4.895,7.895,4,9,4z"/><linearGradient id="jW9ZcNJPPQf_7wKPdpdiib" x1="10.594" x2="36.721" y1="7.58" y2="39.581" gradientUnits="userSpaceOnUse"><stop offset="0" stop-color="#33bef0"/><stop offset="1" stop-color="#0a85d9"/></linearGradient><path fill="url(#jW9ZcNJPPQf_7wKPdpdiib)" d="M37,20v20H25V20H37z M23,20H11v20h12V20z M23,8H11v10h12V8z M25,8v10h12V8H25z"/></svg>