<svg xmlns="http://www.w3.org/2000/svg" viewBox="0 0 48 48"><linearGradient id="EPj~HkpRkIkI4JqTgGv51a" x1="7.101" x2="42.532" y1="7.101" y2="42.532" gradientUnits="userSpaceOnUse"><stop offset="0" stop-color="#33bef0"/><stop offset="1" stop-color="#22a5e2"/></linearGradient><path fill="url(#EPj~HkpRkIkI4JqTgGv51a)" d="M40,6H8C6.895,6,6,6.895,6,8v32c0,1.105,0.895,2,2,2h32c1.105,0,2-0.895,2-2V8	C42,6.895,41.105,6,40,6z"/><path d="M37,38.909H11c-1.054,0-1.909-0.855-1.909-1.909V11c0-1.054,0.855-1.909,1.909-1.909h26 c1.054,0,1.909,0.855,1.909,1.909v26C38.909,38.054,38.054,38.909,37,38.909z" opacity=".018"/><path d="M37,38.818H11c-1.004,0-1.818-0.814-1.818-1.818V11c0-1.004,0.814-1.818,1.818-1.818h26 c1.004,0,1.818,0.814,1.818,1.818v26C38.818,38.004,38.004,38.818,37,38.818z" opacity=".036"/><path d="M37,38.727H11c-0.954,0-1.727-0.773-1.727-1.727V11c0-0.954,0.773-1.727,1.727-1.727h26 c0.954,0,1.727,0.773,1.727,1.727v26C38.727,37.954,37.954,38.727,37,38.727z" opacity=".054"/><path d="M37,38.636H11c-0.904,0-1.636-0.733-1.636-1.636V11c0-0.904,0.733-1.636,1.636-1.636h26 c0.904,0,1.636,0.733,1.636,1.636v26C38.636,37.904,37.904,38.636,37,38.636z" opacity=".073"/><path d="M37,38.545H11c-0.854,0-1.545-0.692-1.545-1.545V11c0-0.854,0.692-1.545,1.545-1.545h26 c0.854,0,1.545,0.692,1.545,1.545v26C38.545,37.854,37.854,38.545,37,38.545z" opacity=".091"/><path d="M37,38.455H11c-0.803,0-1.455-0.651-1.455-1.455V11c0-0.803,0.651-1.455,1.455-1.455h26 c0.803,0,1.455,0.651,1.455,1.455v26C38.455,37.803,37.803,38.455,37,38.455z" opacity=".109"/><path d="M37,38.364H11c-0.753,0-1.364-0.611-1.364-1.364V11c0-0.753,0.611-1.364,1.364-1.364h26 c0.753,0,1.364,0.611,1.364,1.364v26C38.364,37.753,37.753,38.364,37,38.364z" opacity=".127"/><path d="M37,38.273H11c-0.703,0-1.273-0.57-1.273-1.273V11c0-0.703,0.57-1.273,1.273-1.273h26 c0.703,0,1.273,0.57,1.273,1.273v26C38.273,37.703,37.703,38.273,37,38.273z" opacity=".145"/><path d="M37,38.182H11c-0.653,0-1.182-0.529-1.182-1.182V11c0-0.653,0.529-1.182,1.182-1.182h26 c0.653,0,1.182,0.529,1.182,1.182v26C38.182,37.653,37.653,38.182,37,38.182z" opacity=".164"/><path d="M37,38.091H11c-0.602,0-1.091-0.488-1.091-1.091V11c0-0.602,0.488-1.091,1.091-1.091h26 c0.602,0,1.091,0.488,1.091,1.091v26C38.091,37.602,37.602,38.091,37,38.091z" opacity=".182"/><path d="M37,38H11c-0.552,0-1-0.448-1-1V11c0-0.552,0.448-1,1-1h26c0.552,0,1,0.448,1,1v26 C38,37.552,37.552,38,37,38z" opacity=".2"/><radialGradient id="EPj~HkpRkIkI4JqTgGv51b" cx="16.793" cy="14.201" r="25.579" gradientTransform="translate(-1.846 -1.846) scale(1.0769)" gradientUnits="userSpaceOnUse"><stop offset="0" stop-color="#fafafb"/><stop offset=".293" stop-color="#f6f7f8"/><stop offset=".566" stop-color="#ebecee"/><stop offset=".832" stop-color="#d8dcdf"/><stop offset="1" stop-color="#c8cdd1"/></radialGradient><path fill="url(#EPj~HkpRkIkI4JqTgGv51b)" d="M37,38H11c-0.552,0-1-0.448-1-1V11c0-0.552,0.448-1,1-1h26c0.552,0,1,0.448,1,1v26	C38,37.552,37.552,38,37,38z"/><path fill="#16528c" d="M21.293,32.707l-8-8c-0.391-0.391-0.391-1.024,0-1.414l1.414-1.414c0.391-0.391,1.024-0.391,1.414,0	L22,27.758l10.879-10.879c0.391-0.391,1.024-0.391,1.414,0l1.414,1.414c0.391,0.391,0.391,1.024,0,1.414l-13,13	C22.317,33.098,21.683,33.098,21.293,32.707z"/></svg>