<svg xmlns="http://www.w3.org/2000/svg" data-name="Слой 1" viewBox="0 0 48 48"><defs><linearGradient id="IET_Df~eOPVYaApQhPftNa" x1="8.011" x2="43.275" y1="8.013" y2="43.277" gradientUnits="userSpaceOnUse"><stop offset="0" stop-color="#a8e2f7"/><stop offset="1" stop-color="#47c1ff"/></linearGradient></defs><path fill="url(#IET_Df~eOPVYaApQhPftNa)" d="M41.293,18.70939,38.5,21.5023,21.41528,4.41765a1.99989,1.99989,0,0,0-2.82837,0L4.41528,18.58922a2.00009,2.00009,0,0,0,0,2.82843L21.5,38.5023l-2.793,2.79291a1,1,0,0,0,.70715,1.70709H41a2.00006,2.00006,0,0,0,2-2V19.41649A1,1,0,0,0,41.293,18.70939Z"/><path fill="#0370c8" d="M21.28154,27.80137a6.09351,6.09351,0,0,1-2.82476.58878,4.61891,4.61891,0,0,1-3.50468-1.38084,5.03124,5.03124,0,0,1-1.31775-3.62383,5.27672,5.27672,0,0,1,1.48247-3.8972,5.07171,5.07171,0,0,1,3.7465-1.486,6.13992,6.13992,0,0,1,2.41822.41355v1.65421a4.31521,4.31521,0,0,0-2.243-.6028,3.52035,3.52035,0,0,0-2.646,1.04439,3.83655,3.83655,0,0,0-1.01285,2.78972,3.6587,3.6587,0,0,0,.94626,2.646,3.2932,3.2932,0,0,0,2.48832.98481,4.45524,4.45524,0,0,0,2.46729-.6729Z"/><path fill="#0370c8" d="M27.14836,28.39015a4.52062,4.52062,0,0,1-3.48014-1.40888A5.175,5.175,0,0,1,22.361,23.31539a5.48263,5.48263,0,0,1,1.33178-3.86916,4.67885,4.67885,0,0,1,3.61682-1.44393,4.41987,4.41987,0,0,1,3.41,1.40187,5.19273,5.19273,0,0,1,1.29322,3.66589,5.49989,5.49989,0,0,1-1.32477,3.89019A4.59348,4.59348,0,0,1,27.14836,28.39015Zm.07711-8.92289a2.7965,2.7965,0,0,0-2.2465,1.03037,4.07642,4.07642,0,0,0-.86565,2.71262,4.11528,4.11528,0,0,0,.84112,2.69859,2.71212,2.71212,0,0,0,2.20093,1.02337,2.84166,2.84166,0,0,0,2.278-.9743,4.06469,4.06469,0,0,0,.83411-2.72664,4.26157,4.26157,0,0,0-.80958-2.78271A2.737,2.737,0,0,0,27.22547,19.46726Z"/><path fill="#0370c8" d="M33.50818,31.93162h2.48364V33.0023H32.09346v-.44159a2.03711,2.03711,0,0,1,.15187-.80666,2.66386,2.66386,0,0,1,.37967-.64194,3.261,3.261,0,0,1,.50117-.50233q.2716-.219.51635-.39428.2576-.184.45211-.35163a2.54809,2.54809,0,0,0,.32593-.333,1.2496,1.2496,0,0,0,.1986-.33528,1.00313,1.00313,0,0,0,.06542-.36156.72725.72725,0,0,0-.21262-.56776.94226.94226,0,0,0-.64953-.19217,2.18364,2.18364,0,0,0-1.44626.60046V27.53852a3.10591,3.10591,0,0,1,1.7243-.49416,2.54908,2.54908,0,0,1,.79906.11624,1.69786,1.69786,0,0,1,.59813.33294,1.41773,1.41773,0,0,1,.37384.52512A1.76251,1.76251,0,0,1,36,28.70733a1.94311,1.94311,0,0,1-.12383.719,2.19587,2.19587,0,0,1-.33178.57243,2.95637,2.95637,0,0,1-.47546.472q-.26987.21467-.55958.41472-.19627.1393-.37851.2757a3.82086,3.82086,0,0,0-.32126.26986,1.45753,1.45753,0,0,0-.21963.25935A.44648.44648,0,0,0,33.50818,31.93162Z"/></svg>