<svg xmlns="http://www.w3.org/2000/svg" xmlns:xlink="http://www.w3.org/1999/xlink" data-name="Слой 1" viewBox="0 0 48 48"><defs><linearGradient id="F_l9NqYSaDzvyZnH6X~PUa" x1="12" x2="38.375" y1="19.063" y2="19.063" data-name="Безымянный градиент 69" gradientUnits="userSpaceOnUse"><stop offset="0" stop-color="#3079d6"/><stop offset="1" stop-color="#297cd2"/></linearGradient><linearGradient id="F_l9NqYSaDzvyZnH6X~PUb" x1="3.978" x2="39.992" y1="26.015" y2="26.015" xlink:href="#F_l9NqYSaDzvyZnH6X~PUa"/><linearGradient id="F_l9NqYSaDzvyZnH6X~PUc" x1="29.5" x2="33.5" y1="32" y2="32" data-name="Безымянный градиент 147" gradientUnits="userSpaceOnUse"><stop offset="0" stop-color="#dfe9f2"/><stop offset=".391" stop-color="#d6e0e9"/><stop offset="1" stop-color="#bfc8d1"/></linearGradient></defs><path fill="#586169" d="M32,40a1.91758,1.91758,0,0,1-2-1.5.5.5,0,0,1,1,0,1.16337,1.16337,0,0,0,1,.5.93956.93956,0,0,0,1-1,.91419.91419,0,0,0-.26758-.72461,1.72589,1.72589,0,0,0-1.17285-.2793.48491.48491,0,0,1-.39062-.123A.50084.50084,0,0,1,31,36.5v-2a.5.5,0,0,1,1,0v1.49512a2.35953,2.35953,0,0,1,1.3916.52832A1.882,1.882,0,0,1,34,38,1.9362,1.9362,0,0,1,32,40Z"/><path fill="#50e6ff" d="M9.5,31a.5.5,0,0,1-.31738-.88672C9.44043,29.90137,35.00879,8.89063,38.1709,6.124a4.31546,4.31546,0,0,1,4.45117-.917C43.707,5.69922,45,7.0166,45,10.5c0,3.74609-2.93945,6.0752-6.05176,8.542C35.53223,21.74805,32,24.54785,32,29.5a.5.5,0,0,1-1,0c0-5.43652,3.89258-8.52051,7.32715-11.24219C41.24414,15.94629,44,13.7627,44,10.5c0-2.335-.61914-3.85059-1.791-4.38281A3.37283,3.37283,0,0,0,38.8291,6.876C35.65625,9.65332,10.0752,30.67383,9.81738,30.88672A.498.498,0,0,1,9.5,31Z"/><path fill="#999" d="M5.5,36a.49971.49971,0,0,1-.5-.5v-3a.49971.49971,0,0,1,.5-.5h2a.5.5,0,0,1,0,1H6v2.5A.49971.49971,0,0,1,5.5,36Z"/><circle cx="9.5" cy="32.5" r="2.5" fill="#586169"/><path fill="url(#F_l9NqYSaDzvyZnH6X~PUa)" d="M16.625,31.125a.49842.49842,0,0,1-.35352-.14648l-4.125-4.125a.5.5,0,0,1,.707-.707l4.125,4.125a.5.5,0,0,1-.35352.85352ZM28.35352,20.35352a.49983.49983,0,0,0,0-.707l-3.5-3.5a.5.5,0,0,0-.707.707l3.5,3.5a.49984.49984,0,0,0,.707,0Zm9.875-10.125a.49983.49983,0,0,0,0-.707l-2.375-2.375a.5.5,0,0,0-.707.707l2.375,2.375a.49984.49984,0,0,0,.707,0Z"/><path fill="url(#F_l9NqYSaDzvyZnH6X~PUb)" d="M4.43933,41.43933,39.14645,8.14645a.5001.5001,0,0,1,.7071.7071L6.56067,43.56067a1.50033,1.50033,0,0,1-2.16544-2.07721C4.40833,41.46982,4.42587,41.45239,4.43933,41.43933Z"/><ellipse cx="31.5" cy="32" fill="url(#F_l9NqYSaDzvyZnH6X~PUc)" rx="2" ry="3"/><path fill="#999" d="M9.5,33.5a1,1,0,1,1,1-1A1.00137,1.00137,0,0,1,9.5,33.5Z"/><path fill="#e52030" d="M33.5,32h-4c0-1.66.9-3,2-3S33.5,30.34,33.5,32Z"/></svg>