<svg xmlns="http://www.w3.org/2000/svg" viewBox="0 0 48 48"><linearGradient id="d3UvqeXPkpRUzPdLvMTkOa" x1="23.857" x2="24.107" y1="5.54" y2="22.076" gradientUnits="userSpaceOnUse"><stop offset="0" stop-color="#afb076"/><stop offset="1" stop-color="#8c8b5e"/></linearGradient><path fill="url(#d3UvqeXPkpRUzPdLvMTkOa)" d="M43,20.833H5V9.222C5,6.891,6.891,5,9.222,5h29.556C41.11,5,43,6.891,43,9.222V20.833z"/><linearGradient id="d3UvqeXPkpRUzPdLvMTkOb" x1="21.469" x2="21.97" y1="17.291" y2="24.932" gradientUnits="userSpaceOnUse"><stop offset="0" stop-color="#737953"/><stop offset="1" stop-color="#5f6344"/></linearGradient><path fill="url(#d3UvqeXPkpRUzPdLvMTkOb)" d="M15.556,38.778L5,26.565v-9.289c1.319-0.665,3.167-1.193,5.278-0.665	c4.222,1.056,3.167,1.056,8.444,2.111c5.278,1.056,10.556-3.167,13.722-3.167c3.167,0,6.333,5.278,6.333,5.278	S15.556,41.111,15.556,38.778z"/><path fill="#485343" d="M43,20.749v4.307L6.677,37.666L5,29.088v-2.523c1.267,0.38,3.578,0.559,6.333-1.509	c4.222-3.167,9.5-3.167,11.611-3.167C25.024,21.889,30.449,20.453,43,20.749z"/><linearGradient id="d3UvqeXPkpRUzPdLvMTkOc" x1="24" x2="24" y1="25.921" y2="41.142" gradientUnits="userSpaceOnUse"><stop offset="0" stop-color="#8a472a"/><stop offset="1" stop-color="#753823"/></linearGradient><path fill="url(#d3UvqeXPkpRUzPdLvMTkOc)" d="M43,25.056v13.722C43,41.111,41.111,43,38.778,43H9.222C6.889,43,5,41.111,5,38.778v-9.69	c0.813,0.591,1.984,1.246,3.167,1.246c2.111,0,6.333-3.167,11.611-3.167s14.778-2.111,17.944-2.111H43z"/><path fill="#3e2723" d="M41.058,42.324C40.393,42.757,39.612,43,38.778,43H9.222c-0.179,0-0.348-0.011-0.517-0.032	c1.077-1.509,2.164-3.378,2.628-5.246c1.056-4.222,6.333-6.333,6.333-10.556s-1.056-5.278,0-10.556s4.222-6.333,6.333-6.333	c3.167,0,7.389,3.167,7.389,9.5s0,8.444,4.222,11.611C38.25,33.373,40.066,38.651,41.058,42.324z"/><path fill="#ffa726" d="M27.103,26.857l-0.001,0c0,0,0.001-0.001,0.001-0.001c-0.291-0.929-0.987-2.545-0.378-4.096	l-5.009,1.893l0.187,1.49c0,0-0.002,0.051-0.003,0.126c0.051,0.781-0.322,1.533-1,1.939c-1.783,1.068-2.963,2.96-2.963,2.96	s-1.832,2.582,1.6,3.666c3.434,1.084,5.393,0.891,6.29,0.336C27.838,33.929,27.654,28.61,27.103,26.857z"/><path fill="#ffa726" d="M27.167,17.667c-0.267-3.155-1.939-4.943-4.951-4.943c-1.894,0-2.99,0.963-3.361,2.336	c-0.358,1.33-0.133,3.143-0.133,3.663c0,1.056-0.085,2.391,0.74,4.289c0,0,1.071,2.117,2.555,2.116c2.511,0,3.806-0.81,4.491-1.807	C27.311,22.155,27.343,19.751,27.167,17.667z"/><path d="M20.857,22.696c-0.248-0.106,0.211-0.252,0.357-0.243c0.146,0.01,0.291,0.136,0.437,0.136	s0.321-0.214,0.515-0.185s0.796,0.214,1.283,0.115c0.233-0.048-0.437,0.277-1.06,0.241c-0.622-0.036-0.534,0.072-0.748,0.052	C21.428,22.794,21.01,22.761,20.857,22.696z" opacity=".07"/><path d="M20.857,21.092c0,0,0.052,0.448,0.585,0.413c0.533-0.035,0.361-0.377,0.929-0.206	c0.568,0.171,0.67-0.138,0.67-0.138s-0.193,0.578-1.331,0.583C20.883,21.747,20.857,21.092,20.857,21.092z" opacity=".07"/><path d="M22.14,18.385c-0.004-0.495-0.036-1.476,1.356-1.424c1.392,0.052,1.251,0.472,2.012,0.452	c1.198-0.032,0.197,0.972-0.271,0.736c-0.597-0.301-0.54-0.62-1.407-0.581c-0.877,0.039-1.252,0.726-1.265,1.088	C22.552,19.018,22.143,18.734,22.14,18.385z" opacity=".07"/><path d="M20.031,17.597c0.698-0.06,1.001,0.362,1.098,0.589c0.097,0.227,0.272-0.01,0.088-0.295	s-0.47-1.085-1.672-0.47c-0.547,0.28-0.427,0.626-0.379,0.862c0.049,0.236-0.079,0.028,0.167-0.345	C19.477,17.722,19.777,17.619,20.031,17.597z" opacity=".07"/><path d="M26.61,23.14c-0.02,0.06-0.06,0.12-0.1,0.18c-0.69,1-1.98,1.81-4.49,1.81	c-0.08,0-0.16-0.01-0.24-0.02l0.06,0.5l0.06,0.51c0.04,0.01,0.08,0.01,0.12,0.01c1.95,0,3.46-0.46,4.52-1.38	c-0.03-0.2-0.05-0.42-0.05-0.63C26.48,23.8,26.52,23.47,26.61,23.14z" opacity=".05"/><path d="M26.51,23.32c-0.69,1-1.98,1.81-4.49,1.81c-0.08,0-0.16-0.01-0.24-0.02l0.06,0.5	c0.06,0.02,0.12,0.02,0.18,0.02c2.01,0,3.51-0.5,4.47-1.51c-0.01-0.32,0.03-0.65,0.12-0.98C26.59,23.2,26.55,23.26,26.51,23.32z" opacity=".07"/></svg>