<svg xmlns="http://www.w3.org/2000/svg" viewBox="0 0 48 48"><linearGradient id="RxyzP6_fOi6xY_90d_lUVa" x1="24" x2="24" y1="59.176" y2="26.071" gradientUnits="userSpaceOnUse"><stop offset="0" stop-color="#899198"/><stop offset="1" stop-color="#787e85"/></linearGradient><path fill="url(#RxyzP6_fOi6xY_90d_lUVa)" d="M6,33v5c0,1.657,1.338,3,2.99,3h30.02c1.651,0,2.99-1.343,2.99-3v-5H6z"/><linearGradient id="RxyzP6_fOi6xY_90d_lUVb" x1="24" x2="24" y1="10.118" y2="43.55" gradientUnits="userSpaceOnUse"><stop offset="0" stop-color="#c3cdd9"/><stop offset="1" stop-color="#9fa7b0"/></linearGradient><path fill="url(#RxyzP6_fOi6xY_90d_lUVb)" d="M42,33c-0.125,1.657-1.461,3-3.109,3H8.985C7.336,36,6,34.657,6,33V10	c0-1.657,1.336-3,2.985-3H38.89c1.648,0,2.984,1.343,3.109,3L42,33L42,33z"/><path fill="#575c61" d="M24.226,26.829h-2.406l-0.697-2.181h-3.486l-0.69,2.181h-2.393l3.568-9.803h2.618L24.226,26.829z M20.616,22.953l-1.053-3.295c-0.077-0.246-0.132-0.54-0.164-0.882h-0.055c-0.022,0.287-0.08,0.572-0.171,0.854l-1.066,3.322 H20.616z"/><path fill="#575c61" d="M27.397,26.829h-2.16V16.466h2.16V26.829z"/><path fill="#575c61" d="M33.447,26.747C33.128,26.916,32.647,27,32.005,27c-1.522,0-2.283-0.791-2.283-2.372v-3.206h-1.135 v-1.593h1.135v-1.511l2.153-0.615v2.126h1.572v1.593h-1.572v2.83c0,0.729,0.289,1.094,0.868,1.094c0.228,0,0.463-0.066,0.704-0.198 V26.747z"/></svg>