<svg xmlns="http://www.w3.org/2000/svg" viewBox="0 0 48 48"><path fill="#50e6ff" d="M37,16v25c0,1.105-0.895,2-2,2H9c-1.105,0-2-0.895-2-2V7c0-1.105,0.895-2,2-2h17L37,16z"/><linearGradient id="6xQ02nTUjOE~bIh0wVi60a" x1="26.529" x2="31.6" y1="238.529" y2="243.6" gradientTransform="matrix(1 0 0 -1 0 254)" gradientUnits="userSpaceOnUse"><stop offset="0" stop-color="#3079d6"/><stop offset="1" stop-color="#297cd2"/></linearGradient><path fill="url(#6xQ02nTUjOE~bIh0wVi60a)" d="M26,5v9c0,1.105,0.895,2,2,2h9L26,5z"/><path fill="#057093" d="M30.5,21h-17c-0.276,0-0.5-0.224-0.5-0.5v-1c0-0.276,0.224-0.5,0.5-0.5h17c0.276,0,0.5,0.224,0.5,0.5	v1C31,20.776,30.776,21,30.5,21z"/><path fill="#057093" d="M28.5,25h-15c-0.276,0-0.5-0.224-0.5-0.5v-1c0-0.276,0.224-0.5,0.5-0.5h15c0.276,0,0.5,0.224,0.5,0.5	v1C29,24.776,28.776,25,28.5,25z"/><path fill="#057093" d="M30.5,29h-17c-0.276,0-0.5-0.224-0.5-0.5v-1c0-0.276,0.224-0.5,0.5-0.5h17c0.276,0,0.5,0.224,0.5,0.5	v1C31,28.776,30.776,29,30.5,29z"/><path fill="#057093" d="M28.5,33h-15c-0.276,0-0.5-0.224-0.5-0.5v-1c0-0.276,0.224-0.5,0.5-0.5h15c0.276,0,0.5,0.224,0.5,0.5	v1C29,32.776,28.776,33,28.5,33z"/><linearGradient id="6xQ02nTUjOE~bIh0wVi60b" x1="27" x2="32" y1="6" y2="6" gradientTransform="matrix(1 0 0 -1 0 48)" gradientUnits="userSpaceOnUse"><stop offset="0" stop-color="#3079d6"/><stop offset="1" stop-color="#297cd2"/></linearGradient><path fill="url(#6xQ02nTUjOE~bIh0wVi60b)" d="M31,46h-3c-0.552,0-1-0.448-1-1v-6c0-0.552,0.448-1,1-1h3c0.552,0,1,0.448,1,1v6	C32,45.552,31.552,46,31,46z"/><linearGradient id="6xQ02nTUjOE~bIh0wVi60c" x1="34" x2="39" y1="9" y2="9" gradientTransform="matrix(1 0 0 -1 0 48)" gradientUnits="userSpaceOnUse"><stop offset="0" stop-color="#3079d6"/><stop offset="1" stop-color="#297cd2"/></linearGradient><path fill="url(#6xQ02nTUjOE~bIh0wVi60c)" d="M38,46h-3c-0.552,0-1-0.448-1-1V33c0-0.552,0.448-1,1-1h3c0.552,0,1,0.448,1,1v12	C39,45.552,38.552,46,38,46z"/><linearGradient id="6xQ02nTUjOE~bIh0wVi60d" x1="41" x2="46" y1="7.5" y2="7.5" gradientTransform="matrix(1 0 0 -1 0 48)" gradientUnits="userSpaceOnUse"><stop offset="0" stop-color="#3079d6"/><stop offset="1" stop-color="#297cd2"/></linearGradient><path fill="url(#6xQ02nTUjOE~bIh0wVi60d)" d="M45,46h-3c-0.552,0-1-0.448-1-1v-9c0-0.552,0.448-1,1-1h3c0.552,0,1,0.448,1,1v9	C46,45.552,45.552,46,45,46z"/></svg>