<svg xmlns="http://www.w3.org/2000/svg" viewBox="0 0 48 48"><path fill="#50e6ff" d="M5.905,9h36.19C43.147,9,44,9.868,44,10.939v28.121C44,40.132,43.147,41,42.095,41H5.905 C4.853,41,4,40.132,4,39.061V10.939C4,9.868,4.853,9,5.905,9z"/><path fill="#8af2ff" d="M40,13c0-0.552-0.448-1-1-1H9c-0.552,0-1,0.448-1,1v24c0,0.552,0.448,1,1,1h30c0.552,0,1-0.448,1-1 C40,37,40,13.07,40,13z M20,22h8v6h-8V22z M18,28h-8v-6h8V28z M28,20h-8v-6h8V20z M30,14h8v6h-8V14z M30,22h8v6h-8V22z M18,14v6h-8 v-6H18z M10,36v-6h8v6H10z M20,30h8v6h-8V30z M30,36v-6h8v6H30z"/><path fill="#0d62ab" d="M44,34h-3.59l-3.2-20.157C37.133,13.357,36.714,13,36.222,13s-0.911,0.357-0.988,0.843L32.035,34 h-1.661l-2.061-10.198C28.219,23.336,27.81,23,27.333,23s-0.886,0.336-0.98,0.802L24.293,34h-1.668l-3.194-19.164 C19.351,14.354,18.933,14,18.444,14s-0.906,0.354-0.986,0.836L14.264,34h-1.643l-2.08-12.169C10.459,21.352,10.043,21,9.556,21 s-0.904,0.352-0.986,0.831L6.49,34H4v2h3.333c0.487,0,0.904-0.352,0.986-0.831l1.236-7.234l1.236,7.234 C10.874,35.648,11.291,36,11.778,36h3.333c0.489,0,0.906-0.354,0.986-0.836l2.347-14.081l2.347,14.081 C20.872,35.646,21.289,36,21.778,36h3.333c0.476,0,0.886-0.336,0.98-0.802l1.242-6.148l1.242,6.148 C28.67,35.664,29.08,36,29.556,36h3.333c0.492,0,0.911-0.357,0.988-0.843l2.346-14.778l2.346,14.778 C38.645,35.643,39.064,36,39.556,36H44V34z"/></svg>