<svg xmlns="http://www.w3.org/2000/svg" baseProfile="basic" viewBox="0 0 48 48"><path fill="#999" d="M31.5,44h-15c-0.276,0-0.5-0.224-0.5-0.5v-1c0-0.276,0.224-0.5,0.5-0.5h15c0.276,0,0.5,0.224,0.5,0.5	v1C32,43.776,31.776,44,31.5,44z"/><linearGradient id="45voe84ZaDmxJ9WnSHTTza" x1="21.198" x2="27.548" y1="7.13" y2="38.565" gradientUnits="userSpaceOnUse"><stop offset="0" stop-color="#889097"/><stop offset="1" stop-color="#64717c"/></linearGradient><path fill="url(#45voe84ZaDmxJ9WnSHTTza)" d="M47,36H1c-0.552,0-1-0.448-1-1V7c0-0.552,0.448-1,1-1h46c0.552,0,1,0.448,1,1v28	C48,35.552,47.552,36,47,36z"/><path fill="#cad2d9" d="M29,18H19c-1.105,0-2,0.895-2,2v24h14V20C31,18.895,30.105,18,29,18z M26,28c0,1.105-0.895,2-2,2	s-2-0.895-2-2c0-0.366,0-3.634,0-4c0-1.105,0.895-2,2-2s2,0.895,2,2C26,24.366,26,27.634,26,28z"/><linearGradient id="45voe84ZaDmxJ9WnSHTTzb" x1="6" x2="6" y1="12" y2="10" gradientUnits="userSpaceOnUse"><stop offset="0" stop-color="#4c4c4c"/><stop offset="1" stop-color="#343434"/></linearGradient><circle cx="6" cy="11" r="1" fill="url(#45voe84ZaDmxJ9WnSHTTzb)"/><linearGradient id="45voe84ZaDmxJ9WnSHTTzc" x1="9" x2="9" y1="14" y2="12" gradientUnits="userSpaceOnUse"><stop offset="0" stop-color="#4c4c4c"/><stop offset="1" stop-color="#343434"/></linearGradient><circle cx="9" cy="13" r="1" fill="url(#45voe84ZaDmxJ9WnSHTTzc)"/><linearGradient id="45voe84ZaDmxJ9WnSHTTzd" x1="12" x2="12" y1="12" y2="10" gradientUnits="userSpaceOnUse"><stop offset="0" stop-color="#4c4c4c"/><stop offset="1" stop-color="#343434"/></linearGradient><circle cx="12" cy="11" r="1" fill="url(#45voe84ZaDmxJ9WnSHTTzd)"/><linearGradient id="45voe84ZaDmxJ9WnSHTTze" x1="18" x2="18" y1="12" y2="10" gradientUnits="userSpaceOnUse"><stop offset="0" stop-color="#4c4c4c"/><stop offset="1" stop-color="#343434"/></linearGradient><circle cx="18" cy="11" r="1" fill="url(#45voe84ZaDmxJ9WnSHTTze)"/><linearGradient id="45voe84ZaDmxJ9WnSHTTzf" x1="21" x2="21" y1="14" y2="12" gradientUnits="userSpaceOnUse"><stop offset="0" stop-color="#4c4c4c"/><stop offset="1" stop-color="#343434"/></linearGradient><circle cx="21" cy="13" r="1" fill="url(#45voe84ZaDmxJ9WnSHTTzf)"/><linearGradient id="45voe84ZaDmxJ9WnSHTTzg" x1="24" x2="24" y1="12" y2="10" gradientUnits="userSpaceOnUse"><stop offset="0" stop-color="#4c4c4c"/><stop offset="1" stop-color="#343434"/></linearGradient><circle cx="24" cy="11" r="1" fill="url(#45voe84ZaDmxJ9WnSHTTzg)"/><linearGradient id="45voe84ZaDmxJ9WnSHTTzh" x1="15" x2="15" y1="14" y2="12" gradientUnits="userSpaceOnUse"><stop offset="0" stop-color="#4c4c4c"/><stop offset="1" stop-color="#343434"/></linearGradient><circle cx="15" cy="13" r="1" fill="url(#45voe84ZaDmxJ9WnSHTTzh)"/><linearGradient id="45voe84ZaDmxJ9WnSHTTzi" x1="27" x2="27" y1="14" y2="12" gradientUnits="userSpaceOnUse"><stop offset="0" stop-color="#4c4c4c"/><stop offset="1" stop-color="#343434"/></linearGradient><circle cx="27" cy="13" r="1" fill="url(#45voe84ZaDmxJ9WnSHTTzi)"/><linearGradient id="45voe84ZaDmxJ9WnSHTTzj" x1="30" x2="30" y1="12" y2="10" gradientUnits="userSpaceOnUse"><stop offset="0" stop-color="#4c4c4c"/><stop offset="1" stop-color="#343434"/></linearGradient><circle cx="30" cy="11" r="1" fill="url(#45voe84ZaDmxJ9WnSHTTzj)"/><linearGradient id="45voe84ZaDmxJ9WnSHTTzk" x1="36" x2="36" y1="12" y2="10" gradientUnits="userSpaceOnUse"><stop offset="0" stop-color="#4c4c4c"/><stop offset="1" stop-color="#343434"/></linearGradient><circle cx="36" cy="11" r="1" fill="url(#45voe84ZaDmxJ9WnSHTTzk)"/><linearGradient id="45voe84ZaDmxJ9WnSHTTzl" x1="39" x2="39" y1="14" y2="12" gradientUnits="userSpaceOnUse"><stop offset="0" stop-color="#4c4c4c"/><stop offset="1" stop-color="#343434"/></linearGradient><circle cx="39" cy="13" r="1" fill="url(#45voe84ZaDmxJ9WnSHTTzl)"/><linearGradient id="45voe84ZaDmxJ9WnSHTTzm" x1="42" x2="42" y1="12" y2="10" gradientUnits="userSpaceOnUse"><stop offset="0" stop-color="#4c4c4c"/><stop offset="1" stop-color="#343434"/></linearGradient><circle cx="42" cy="11" r="1" fill="url(#45voe84ZaDmxJ9WnSHTTzm)"/><linearGradient id="45voe84ZaDmxJ9WnSHTTzn" x1="6" x2="6" y1="16" y2="14" gradientUnits="userSpaceOnUse"><stop offset="0" stop-color="#4c4c4c"/><stop offset="1" stop-color="#343434"/></linearGradient><circle cx="6" cy="15" r="1" fill="url(#45voe84ZaDmxJ9WnSHTTzn)"/><linearGradient id="45voe84ZaDmxJ9WnSHTTzo" x1="12" x2="12" y1="16" y2="14" gradientUnits="userSpaceOnUse"><stop offset="0" stop-color="#4c4c4c"/><stop offset="1" stop-color="#343434"/></linearGradient><circle cx="12" cy="15" r="1" fill="url(#45voe84ZaDmxJ9WnSHTTzo)"/><linearGradient id="45voe84ZaDmxJ9WnSHTTzp" x1="18" x2="18" y1="16" y2="14" gradientUnits="userSpaceOnUse"><stop offset="0" stop-color="#4c4c4c"/><stop offset="1" stop-color="#343434"/></linearGradient><circle cx="18" cy="15" r="1" fill="url(#45voe84ZaDmxJ9WnSHTTzp)"/><linearGradient id="45voe84ZaDmxJ9WnSHTTzq" x1="24" x2="24" y1="16" y2="14" gradientUnits="userSpaceOnUse"><stop offset="0" stop-color="#4c4c4c"/><stop offset="1" stop-color="#343434"/></linearGradient><circle cx="24" cy="15" r="1" fill="url(#45voe84ZaDmxJ9WnSHTTzq)"/><linearGradient id="45voe84ZaDmxJ9WnSHTTzr" x1="30" x2="30" y1="16" y2="14" gradientUnits="userSpaceOnUse"><stop offset="0" stop-color="#4c4c4c"/><stop offset="1" stop-color="#343434"/></linearGradient><circle cx="30" cy="15" r="1" fill="url(#45voe84ZaDmxJ9WnSHTTzr)"/><linearGradient id="45voe84ZaDmxJ9WnSHTTzs" x1="36" x2="36" y1="16" y2="14" gradientUnits="userSpaceOnUse"><stop offset="0" stop-color="#4c4c4c"/><stop offset="1" stop-color="#343434"/></linearGradient><circle cx="36" cy="15" r="1" fill="url(#45voe84ZaDmxJ9WnSHTTzs)"/><linearGradient id="45voe84ZaDmxJ9WnSHTTzt" x1="42" x2="42" y1="16" y2="14" gradientUnits="userSpaceOnUse"><stop offset="0" stop-color="#4c4c4c"/><stop offset="1" stop-color="#343434"/></linearGradient><circle cx="42" cy="15" r="1" fill="url(#45voe84ZaDmxJ9WnSHTTzt)"/><linearGradient id="45voe84ZaDmxJ9WnSHTTzu" x1="33" x2="33" y1="14" y2="12" gradientUnits="userSpaceOnUse"><stop offset="0" stop-color="#4c4c4c"/><stop offset="1" stop-color="#343434"/></linearGradient><circle cx="33" cy="13" r="1" fill="url(#45voe84ZaDmxJ9WnSHTTzu)"/><linearGradient id="45voe84ZaDmxJ9WnSHTTzv" x1="8" x2="8" y1="28" y2="26" gradientUnits="userSpaceOnUse"><stop offset="0" stop-color="#4c4c4c"/><stop offset="1" stop-color="#343434"/></linearGradient><circle cx="8" cy="27" r="1" fill="url(#45voe84ZaDmxJ9WnSHTTzv)"/><linearGradient id="45voe84ZaDmxJ9WnSHTTzw" x1="11" x2="11" y1="30" y2="28" gradientUnits="userSpaceOnUse"><stop offset="0" stop-color="#4c4c4c"/><stop offset="1" stop-color="#343434"/></linearGradient><circle cx="11" cy="29" r="1" fill="url(#45voe84ZaDmxJ9WnSHTTzw)"/><linearGradient id="45voe84ZaDmxJ9WnSHTTzx" x1="5" x2="5" y1="30" y2="28" gradientUnits="userSpaceOnUse"><stop offset="0" stop-color="#4c4c4c"/><stop offset="1" stop-color="#343434"/></linearGradient><circle cx="5" cy="29" r="1" fill="url(#45voe84ZaDmxJ9WnSHTTzx)"/><linearGradient id="45voe84ZaDmxJ9WnSHTTzy" x1="14" x2="14" y1="28" y2="26" gradientUnits="userSpaceOnUse"><stop offset="0" stop-color="#4c4c4c"/><stop offset="1" stop-color="#343434"/></linearGradient><circle cx="14" cy="27" r="1" fill="url(#45voe84ZaDmxJ9WnSHTTzy)"/><linearGradient id="45voe84ZaDmxJ9WnSHTTzz" x1="34" x2="34" y1="28" y2="26" gradientUnits="userSpaceOnUse"><stop offset="0" stop-color="#4c4c4c"/><stop offset="1" stop-color="#343434"/></linearGradient><circle cx="34" cy="27" r="1" fill="url(#45voe84ZaDmxJ9WnSHTTzz)"/><linearGradient id="45voe84ZaDmxJ9WnSHTTzA" x1="37" x2="37" y1="30" y2="28" gradientUnits="userSpaceOnUse"><stop offset="0" stop-color="#4c4c4c"/><stop offset="1" stop-color="#343434"/></linearGradient><circle cx="37" cy="29" r="1" fill="url(#45voe84ZaDmxJ9WnSHTTzA)"/><linearGradient id="45voe84ZaDmxJ9WnSHTTzB" x1="43" x2="43" y1="30" y2="28" gradientUnits="userSpaceOnUse"><stop offset="0" stop-color="#4c4c4c"/><stop offset="1" stop-color="#343434"/></linearGradient><circle cx="43" cy="29" r="1" fill="url(#45voe84ZaDmxJ9WnSHTTzB)"/><linearGradient id="45voe84ZaDmxJ9WnSHTTzC" x1="40" x2="40" y1="28" y2="26" gradientUnits="userSpaceOnUse"><stop offset="0" stop-color="#4c4c4c"/><stop offset="1" stop-color="#343434"/></linearGradient><circle cx="40" cy="27" r="1" fill="url(#45voe84ZaDmxJ9WnSHTTzC)"/><linearGradient id="45voe84ZaDmxJ9WnSHTTzD" x1="8" x2="8" y1="32" y2="30" gradientUnits="userSpaceOnUse"><stop offset="0" stop-color="#4c4c4c"/><stop offset="1" stop-color="#343434"/></linearGradient><circle cx="8" cy="31" r="1" fill="url(#45voe84ZaDmxJ9WnSHTTzD)"/><linearGradient id="45voe84ZaDmxJ9WnSHTTzE" x1="14" x2="14" y1="32" y2="30" gradientUnits="userSpaceOnUse"><stop offset="0" stop-color="#4c4c4c"/><stop offset="1" stop-color="#343434"/></linearGradient><circle cx="14" cy="31" r="1" fill="url(#45voe84ZaDmxJ9WnSHTTzE)"/><linearGradient id="45voe84ZaDmxJ9WnSHTTzF" x1="34" x2="34" y1="32" y2="30" gradientUnits="userSpaceOnUse"><stop offset="0" stop-color="#4c4c4c"/><stop offset="1" stop-color="#343434"/></linearGradient><circle cx="34" cy="31" r="1" fill="url(#45voe84ZaDmxJ9WnSHTTzF)"/><linearGradient id="45voe84ZaDmxJ9WnSHTTzG" x1="40" x2="40" y1="32" y2="30" gradientUnits="userSpaceOnUse"><stop offset="0" stop-color="#4c4c4c"/><stop offset="1" stop-color="#343434"/></linearGradient><circle cx="40" cy="31" r="1" fill="url(#45voe84ZaDmxJ9WnSHTTzG)"/></svg>