<svg xmlns="http://www.w3.org/2000/svg" width="48" height="48" viewBox="0 0 48 48"><linearGradient id="7IUfTsAxSw70eNnMyZY6La" x1="10" x2="38" y1="31" y2="31" gradientUnits="userSpaceOnUse"><stop offset="0" stop-color="#ffd747"/><stop offset=".482" stop-color="#ffd645"/><stop offset=".655" stop-color="#fed43e"/><stop offset=".779" stop-color="#fccf33"/><stop offset=".879" stop-color="#fac922"/><stop offset=".964" stop-color="#f7c10c"/><stop offset="1" stop-color="#f5bc00"/></linearGradient><circle cx="24" cy="31" r="14" fill="url(#7IUfTsAxSw70eNnMyZY6La)"/><path d="M24.583,33H37.88L38,31.989L37,18l-13.981-1L22,17.17v13.247C22,31.843,23.157,33,24.583,33z" opacity=".05"/><path d="M25.479,32H38l-1-14l-14-1v12.521C23,30.89,24.11,32,25.479,32z" opacity=".07"/><linearGradient id="7IUfTsAxSw70eNnMyZY6Lb" x1="21.192" x2="35.638" y1="-6.414" y2="19.588" gradientUnits="userSpaceOnUse"><stop offset="0" stop-color="#fed100"/><stop offset="1" stop-color="#e36001"/></linearGradient><path fill="url(#7IUfTsAxSw70eNnMyZY6Lb)" d="M24,18h14V5c0-1.105-0.895-2-2-2H26c-1.105,0-2,0.895-2,2V18z"/><linearGradient id="7IUfTsAxSw70eNnMyZY6Lc" x1="36.231" x2="25.105" y1="17.878" y2="30.898" gradientUnits="userSpaceOnUse"><stop offset="0" stop-color="#e5a505"/><stop offset=".118" stop-color="#eaa904"/><stop offset=".595" stop-color="#f8b301"/><stop offset="1" stop-color="#fdb700"/></linearGradient><path fill="url(#7IUfTsAxSw70eNnMyZY6Lc)" d="M26,31h12V17H24v12C24,30.105,24.895,31,26,31z"/></svg>