<svg xmlns="http://www.w3.org/2000/svg" viewBox="0 0 48 48"><linearGradient id="6S~wZuJfHLvfbVeNzwei8a" x1="10" x2="38" y1="39.5" y2="39.5" gradientUnits="userSpaceOnUse"><stop offset="0" stop-color="#33bef0"/><stop offset="1" stop-color="#22a5e2"/></linearGradient><ellipse cx="24" cy="39.5" fill="url(#6S~wZuJfHLvfbVeNzwei8a)" rx="14" ry="4.5"/><linearGradient id="6S~wZuJfHLvfbVeNzwei8b" x1="13.395" x2="34.605" y1="8.392" y2="29.602" gradientUnits="userSpaceOnUse"><stop offset="0" stop-color="#d43a02"/><stop offset="1" stop-color="#b9360c"/></linearGradient><path fill="url(#6S~wZuJfHLvfbVeNzwei8b)" d="M34.752,29.446C37.377,26.745,39,23.064,39,19c0-8.284-6.716-15-15-15S9,10.716,9,19	c0,4.064,1.623,7.745,4.248,10.446c0.015,0.015,9.573,9.582,9.573,9.582c0.651,0.651,1.706,0.651,2.357,0	C25.178,39.029,34.737,29.462,34.752,29.446z"/><radialGradient id="6S~wZuJfHLvfbVeNzwei8c" cx="24" cy="19" r="7" gradientUnits="userSpaceOnUse"><stop offset=".177"/><stop offset="1" stop-opacity="0"/></radialGradient><circle cx="24" cy="19" r="7" fill="url(#6S~wZuJfHLvfbVeNzwei8c)"/><circle cx="24" cy="19" r="6" fill="#f9f9f9"/></svg>