<svg xmlns="http://www.w3.org/2000/svg" viewBox="0 0 48 48"><linearGradient id="PkZkVokqAtxvkUPG9iYSLa" x1="23.33" x2="25.773" y1="10.132" y2="38.679" gradientUnits="userSpaceOnUse"><stop offset="0" stop-color="#e36001"/><stop offset="1" stop-color="#f09801"/></linearGradient><polygon fill="url(#PkZkVokqAtxvkUPG9iYSLa)" points="9.149,18 11,38 37,38 38.857,18"/><linearGradient id="PkZkVokqAtxvkUPG9iYSLb" x1="23.932" x2="26.086" y1="3.674" y2="42.454" gradientUnits="userSpaceOnUse"><stop offset="0" stop-color="#32bdef"/><stop offset="1" stop-color="#1ea2e4"/></linearGradient><path fill="url(#PkZkVokqAtxvkUPG9iYSLb)" d="M11,38h26v5c0,0.552-0.448,1-1,1H12c-0.552,0-1-0.448-1-1V38z M38.857,18l1.142-12.915 C40.049,4.502,39.589,4,39.003,4H9.008C8.422,4,7.961,4.502,8.011,5.085L9.149,18H38.857z"/><linearGradient id="PkZkVokqAtxvkUPG9iYSLc" x1="29.13" x2="30.276" y1="13.239" y2="21.531" gradientUnits="userSpaceOnUse"><stop offset="0" stop-color="#e36001"/><stop offset="1" stop-color="#f09801"/></linearGradient><path fill="url(#PkZkVokqAtxvkUPG9iYSLc)" d="M26,18v3c0,0.552,0.448,1,1,1h6c0.552,0,1-0.448,1-1v-3H26z"/><linearGradient id="PkZkVokqAtxvkUPG9iYSLd" x1="19.258" x2="18.853" y1="21.208" y2="16.203" gradientUnits="userSpaceOnUse"><stop offset="0" stop-color="#f09801"/><stop offset="1" stop-color="#e36001"/></linearGradient><path fill="url(#PkZkVokqAtxvkUPG9iYSLd)" d="M18.293,22.707C18.488,22.902,18.744,23,19,23s0.512-0.098,0.707-0.293l4-4 C23.902,18.512,24,18.256,24,18H14c0,0.256,0.098,0.512,0.293,0.707L18.293,22.707z"/><linearGradient id="PkZkVokqAtxvkUPG9iYSLe" x1="15.325" x2="21.847" y1="14.189" y2="20.408" gradientUnits="userSpaceOnUse"><stop offset="0" stop-color="#a8e2f7"/><stop offset="1" stop-color="#47c1ff"/></linearGradient><path fill="url(#PkZkVokqAtxvkUPG9iYSLe)" d="M23.707,17.293l-4-4c-0.391-0.391-1.023-0.391-1.414,0l-4,4C14.098,17.488,14,17.744,14,18 h10C24,17.744,23.902,17.488,23.707,17.293z"/><linearGradient id="PkZkVokqAtxvkUPG9iYSLf" x1="29.782" x2="30.44" y1="13.836" y2="21.825" gradientUnits="userSpaceOnUse"><stop offset="0" stop-color="#a8e2f7"/><stop offset="1" stop-color="#47c1ff"/></linearGradient><path fill="url(#PkZkVokqAtxvkUPG9iYSLf)" d="M34,18v-3c0-0.552-0.448-1-1-1h-6c-0.552,0-1,0.448-1,1v3H34z"/></svg>