<svg xmlns="http://www.w3.org/2000/svg" viewBox="0 0 48 48"><circle cx="33" cy="17" r="3" fill="#bd8215"/><path fill="#bd8215" d="M5.5,23c-0.384,0-0.768-0.146-1.061-0.439l-2-2c-0.586-0.586-0.586-1.535,0-2.121	s1.535-0.586,2.121,0l2,2c0.586,0.586,0.586,1.535,0,2.121C6.268,22.854,5.884,23,5.5,23z"/><linearGradient id="PxS0Pgfx4XlFsUYpbHydRa" x1="13.023" x2="13.023" y1="1.68" y2="40.172" gradientUnits="userSpaceOnUse"><stop offset="0" stop-color="#ffcf7b"/><stop offset=".196" stop-color="#fecd76"/><stop offset=".439" stop-color="#fac666"/><stop offset=".709" stop-color="#f3bc4d"/><stop offset=".995" stop-color="#eaad2a"/><stop offset="1" stop-color="#eaad29"/></linearGradient><ellipse cx="13.023" cy="27" fill="url(#PxS0Pgfx4XlFsUYpbHydRa)" rx="12.023" ry="12"/><linearGradient id="PxS0Pgfx4XlFsUYpbHydRb" x1="37.591" x2="37.591" y1="1.68" y2="40.172" gradientUnits="userSpaceOnUse"><stop offset="0" stop-color="#ffcf7b"/><stop offset=".196" stop-color="#fecd76"/><stop offset=".439" stop-color="#fac666"/><stop offset=".709" stop-color="#f3bc4d"/><stop offset=".995" stop-color="#eaad2a"/><stop offset="1" stop-color="#eaad29"/></linearGradient><path fill="url(#PxS0Pgfx4XlFsUYpbHydRb)" d="M47,25.435c0-2.272-1.933-3.716-4.182-5.478c-2.313-1.813-4.182-3.913-7.318-3.913	c-4.619,0-7.318,3.737-7.318,8.348s2.699,8.348,7.318,8.348S47,30.045,47,25.435z"/><linearGradient id="PxS0Pgfx4XlFsUYpbHydRc" x1="28.079" x2="28.079" y1="1.68" y2="40.172" gradientUnits="userSpaceOnUse"><stop offset="0" stop-color="#ffcf7b"/><stop offset=".196" stop-color="#fecd76"/><stop offset=".439" stop-color="#fac666"/><stop offset=".709" stop-color="#f3bc4d"/><stop offset=".995" stop-color="#eaad2a"/><stop offset="1" stop-color="#eaad29"/></linearGradient><path fill="url(#PxS0Pgfx4XlFsUYpbHydRc)" d="M15.636,37.957C16.943,38.478,19.818,39,21.909,39s14.636,0,19.864-8.348	S35.5,16.043,35.5,16.043c-5.227,0-7.318,1.043-10.455,1.043S20.864,15,13.023,15C13.023,18.652,15.636,37.957,15.636,37.957z"/><linearGradient id="PxS0Pgfx4XlFsUYpbHydRd" x1="30" x2="30" y1="2.235" y2="39.123" gradientUnits="userSpaceOnUse"><stop offset="0" stop-color="#ffcf7b"/><stop offset=".196" stop-color="#fecd76"/><stop offset=".439" stop-color="#fac666"/><stop offset=".709" stop-color="#f3bc4d"/><stop offset=".995" stop-color="#eaad2a"/><stop offset="1" stop-color="#eaad29"/></linearGradient><circle cx="30" cy="17" r="3" fill="url(#PxS0Pgfx4XlFsUYpbHydRd)"/><linearGradient id="PxS0Pgfx4XlFsUYpbHydRe" x1="40" x2="40" y1="23" y2="25" gradientUnits="userSpaceOnUse"><stop offset="0" stop-color="#4c4c4c"/><stop offset="1" stop-color="#343434"/></linearGradient><circle cx="40" cy="24" r="1" fill="url(#PxS0Pgfx4XlFsUYpbHydRe)"/><linearGradient id="PxS0Pgfx4XlFsUYpbHydRf" x1="24" x2="24" y1="23.947" y2="39" gradientUnits="userSpaceOnUse"><stop offset="0" stop-color="#ffda94"/><stop offset="1" stop-color="#fff0ce"/></linearGradient><path fill="url(#PxS0Pgfx4XlFsUYpbHydRf)" d="M41.049,28.554c-5.575,7.31-17.14,7.315-19.14,7.315c-1.557,0-3.546-0.29-5.002-0.653	c-1.22,0.416-2.523,0.653-3.885,0.653c-6.107,0-11.139-4.549-11.909-10.435C1.047,25.948,1,26.468,1,27c0,6.627,5.383,12,12.023,12	c1.361,0,2.665-0.236,3.885-0.653C18.363,38.71,20.352,39,21.909,39c2,0,13.565-0.006,19.14-7.315	C44.243,30.499,47,28.352,47,25.435c0-0.538-0.116-1.028-0.311-1.488C45.885,26.034,43.61,27.604,41.049,28.554z"/><linearGradient id="PxS0Pgfx4XlFsUYpbHydRg" x1="33.5" x2="33.5" y1="3.235" y2="40.123" gradientUnits="userSpaceOnUse"><stop offset="0" stop-color="#ffcf7b"/><stop offset=".196" stop-color="#fecd76"/><stop offset=".439" stop-color="#fac666"/><stop offset=".709" stop-color="#f3bc4d"/><stop offset=".995" stop-color="#eaad2a"/><stop offset="1" stop-color="#eaad29"/></linearGradient><path fill="url(#PxS0Pgfx4XlFsUYpbHydRg)" d="M38,37h-1l-2.75-4L28,35l7.155,3.578C35.711,38.855,36.323,39,36.944,39H38	c0.552,0,1-0.448,1-1C39,37.448,38.552,37,38,37z"/><linearGradient id="PxS0Pgfx4XlFsUYpbHydRh" x1="6" x2="6" y1="3.235" y2="40.123" gradientUnits="userSpaceOnUse"><stop offset="0" stop-color="#ffcf7b"/><stop offset=".196" stop-color="#fecd76"/><stop offset=".439" stop-color="#fac666"/><stop offset=".709" stop-color="#f3bc4d"/><stop offset=".995" stop-color="#eaad2a"/><stop offset="1" stop-color="#eaad29"/></linearGradient><path fill="url(#PxS0Pgfx4XlFsUYpbHydRh)" d="M8,33l-4-3v7v0c0,1.105,0.895,2,2,2h1c0.552,0,1-0.448,1-1l0,0c0-0.552-0.448-1-1-1l0,0L8,33z"/></svg>