<svg xmlns="http://www.w3.org/2000/svg" viewBox="0 0 48 48"><linearGradient id="MCQ_eP0I7W0wRSXuHe8Dna" x1="42.594" x2="36.949" y1="10.5" y2="10.5" gradientUnits="userSpaceOnUse"><stop offset="0" stop-color="#f44f5a"/><stop offset=".443" stop-color="#ee3d4a"/><stop offset="1" stop-color="#e52030"/></linearGradient><path fill="url(#MCQ_eP0I7W0wRSXuHe8Dna)" d="M43,7c0,0-4,3-4,10L26,4h17V7z"/><linearGradient id="MCQ_eP0I7W0wRSXuHe8Dnb" x1="39.001" x2="41.528" y1="28.5" y2="28.5" gradientUnits="userSpaceOnUse"><stop offset="0" stop-color="#c48f0c"/><stop offset=".251" stop-color="#d19b16"/><stop offset=".619" stop-color="#dca51f"/><stop offset="1" stop-color="#e0a922"/></linearGradient><path fill="url(#MCQ_eP0I7W0wRSXuHe8Dnb)" d="M38.999,24H38v9h1.333c0.975,0,1.808-0.703,1.972-1.664l0.653-3.832	C42.269,25.672,40.857,24,38.999,24z"/><linearGradient id="MCQ_eP0I7W0wRSXuHe8Dnc" x1="-64.999" x2="-62.472" y1="28.5" y2="28.5" gradientTransform="matrix(-1 0 0 1 -56 0)" gradientUnits="userSpaceOnUse"><stop offset="0" stop-color="#c48f0c"/><stop offset=".251" stop-color="#d19b16"/><stop offset=".619" stop-color="#dca51f"/><stop offset="1" stop-color="#e0a922"/></linearGradient><path fill="url(#MCQ_eP0I7W0wRSXuHe8Dnc)" d="M9.001,24H10v9H8.667c-0.975,0-1.808-0.703-1.972-1.664l-0.653-3.832	C5.731,25.672,7.143,24,9.001,24z"/><radialGradient id="MCQ_eP0I7W0wRSXuHe8Dnd" cx="24" cy="25.5" r="17.396" gradientUnits="userSpaceOnUse"><stop offset="0" stop-color="#ffcf54"/><stop offset=".46" stop-color="#f9c43f"/><stop offset="1" stop-color="#f0b421"/></radialGradient><path fill="url(#MCQ_eP0I7W0wRSXuHe8Dnd)" d="M24,6C16.598,6,9,9,9,25c0,1.281,0,5.92,0,7.288C9,38,18,45,24,45s15-7,15-12.712	c0-1.368,0-6.007,0-7.288C39,9,31.402,6,24,6z"/><linearGradient id="MCQ_eP0I7W0wRSXuHe8Dne" x1="24" x2="24" y1="4.053" y2="18.986" gradientUnits="userSpaceOnUse"><stop offset="0" stop-color="#f44f5a"/><stop offset=".443" stop-color="#ee3d4a"/><stop offset="1" stop-color="#e52030"/></linearGradient><path fill="url(#MCQ_eP0I7W0wRSXuHe8Dne)" d="M26,4h-4C14.82,4,9,9.82,9,17v0h30v0C39,9.82,33.18,4,26,4z"/><linearGradient id="MCQ_eP0I7W0wRSXuHe8Dnf" x1="40.186" x2="46.282" y1="3.186" y2="9.282" gradientUnits="userSpaceOnUse"><stop offset="0" stop-color="#a3ffff"/><stop offset=".223" stop-color="#9dfbff"/><stop offset=".53" stop-color="#8bf1ff"/><stop offset=".885" stop-color="#6ee0ff"/><stop offset="1" stop-color="#63daff"/></linearGradient><circle cx="43" cy="6" r="4" fill="url(#MCQ_eP0I7W0wRSXuHe8Dnf)"/><linearGradient id="MCQ_eP0I7W0wRSXuHe8Dng" x1="24" x2="24" y1="27.077" y2="45.62" gradientUnits="userSpaceOnUse"><stop offset="0" stop-color="#dfe9f2"/><stop offset=".391" stop-color="#d6e0e9"/><stop offset="1" stop-color="#bfc8d1"/></linearGradient><path fill="url(#MCQ_eP0I7W0wRSXuHe8Dng)" d="M39,16c0,0,0,17-7,17c-3,0-3-2-5-2c0,0-1,1-3,1s-3-1-3-1c-2,0-2,2-5,2c-7,0-7-13-7-13H8	c0,0-1,12.55-1,16c0,6,5,10,17,10s17-4,17-10C41,31,39,16,39,16z"/><linearGradient id="MCQ_eP0I7W0wRSXuHe8Dnh" x1="14.632" x2="34.924" y1="9.632" y2="29.924" gradientUnits="userSpaceOnUse"><stop offset="0" stop-color="#a3ffff"/><stop offset=".223" stop-color="#9dfbff"/><stop offset=".53" stop-color="#8bf1ff"/><stop offset=".885" stop-color="#6ee0ff"/><stop offset="1" stop-color="#63daff"/></linearGradient><path fill="url(#MCQ_eP0I7W0wRSXuHe8Dnh)" d="M39,22H9c-1.105,0-2-0.895-2-2v-2c0-1.105,0.895-2,2-2h30c1.105,0,2,0.895,2,2v2	C41,21.105,40.105,22,39,22z"/><linearGradient id="MCQ_eP0I7W0wRSXuHe8Dni" x1="27.538" x2="29.559" y1="25.538" y2="27.559" gradientUnits="userSpaceOnUse"><stop offset="0" stop-color="#4b4b4b"/><stop offset="1" stop-color="#3b3b3b"/></linearGradient><circle cx="28.5" cy="26.5" r="1.5" fill="url(#MCQ_eP0I7W0wRSXuHe8Dni)"/><linearGradient id="MCQ_eP0I7W0wRSXuHe8Dnj" x1="18.538" x2="20.559" y1="25.538" y2="27.559" gradientUnits="userSpaceOnUse"><stop offset="0" stop-color="#4b4b4b"/><stop offset="1" stop-color="#3b3b3b"/></linearGradient><circle cx="19.5" cy="26.5" r="1.5" fill="url(#MCQ_eP0I7W0wRSXuHe8Dnj)"/></svg>