<svg xmlns="http://www.w3.org/2000/svg" data-name="Слой 1" viewBox="0 0 48 48"><defs><linearGradient id="O0QR01Dk7FnNNlsVk9LgLa" x1="14.765" x2="31.7" y1="-1.372" y2="45.157" data-name="Безымянный градиент 120" gradientUnits="userSpaceOnUse"><stop offset="0" stop-color="#ffd869"/><stop offset="1" stop-color="#fec52b"/></linearGradient></defs><rect width="8.485" height="11.314" x="10.757" y="10.343" fill="#bd8215" transform="rotate(-45 15 16)"/><path fill="url(#O0QR01Dk7FnNNlsVk9LgLa)" d="M37,5H25.65686a3.99984,3.99984,0,0,0-2.82843,1.17157L10.17157,18.82843A4,4,0,0,0,9,21.65686V41a2.00708,2.00708,0,0,0,1.9,2H37a1.99943,1.99943,0,0,0,1.81-1.15A2.033,2.033,0,0,0,39,41V7A2.00587,2.00587,0,0,0,37,5Zm0,5.16345A.8365.8365,0,0,1,36.16351,11H22.84729a.83653.83653,0,0,1-.59149-1.428l2.0343-2.03442A1.8351,1.8351,0,0,1,25.58777,7H36.16351A.83649.83649,0,0,1,37,7.83649ZM9.18767,15.62466l5.437-5.437a1.28152,1.28152,0,0,0,0-1.81232h0a1.28152,1.28152,0,0,0-1.81232,0l-5.437,5.437a1.28152,1.28152,0,0,0,0,1.81232h0A1.28152,1.28152,0,0,0,9.18767,15.62466Z"/><path fill="#21a366" d="M28.97425,33.43779c-3.76316,3.76316-7.77662,3.1304-10.64538.26164L31.96248,20.06582C31.96315,20.06582,32.73741,29.67463,28.97425,33.43779Z"/><path fill="#33c481" d="M31.96315,20.06582,18.32887,33.69943c-2.86809-2.86809-3.50085-6.88221.26165-10.64537C22.35368,19.29156,31.96315,20.06582,31.96315,20.06582Z"/><g><path d="M29.89555,20c1.25028,0,2.06758.0658,2.06758.0658l-.00061.00061c.00129.00695.77356,9.60955-2.98828,13.37133A7.8176,7.8176,0,0,1,23.4695,36.0575a7.32345,7.32345,0,0,1-5.14064-2.3581c-2.86811-2.8681-3.50086-6.8822.26166-10.64538C21.25671,20.38831,26.8568,20,29.89555,20m0-1c-3.23594,0-9.09944.43481-12.01208,3.34686-3.79976,3.80042-3.9,8.42139-.26172,12.05963a8.26525,8.26525,0,0,0,5.84775,2.651,8.87368,8.87368,0,0,0,6.21185-2.91266c4.13152-4.13141,3.28177-14.16645,3.26468-14.25928l-.01913-.10407-.0405-.09777C32.60318,19,32.24248,19,29.89555,19Z" opacity=".05"/><path d="M29.89555,20c1.25028,0,2.06758.0658,2.06758.0658l-.00061.00061c.00129.00695.77356,9.60955-2.98828,13.37133A7.8176,7.8176,0,0,1,23.4695,36.0575a7.32345,7.32345,0,0,1-5.14064-2.3581c-2.86811-2.8681-3.50086-6.8822.26166-10.64538C21.25671,20.38831,26.8568,20,29.89555,20m0-.5c-3.1586,0-8.87333.41577-11.65855,3.20044-3.58167,3.58227-3.68192,7.93231-.2617,11.35254a7.778,7.778,0,0,0,5.4942,2.50452,8.2793,8.2793,0,0,0,5.85829-2.76618c3.97722-3.97717,3.1431-13.725,3.12648-13.81537l-.00957-.052-.02023-.04889c-.13468-.32513-.15538-.37506-2.52892-.37506Z" opacity=".07"/></g></svg>