<svg xmlns="http://www.w3.org/2000/svg" viewBox="0 0 48 48"><linearGradient id="8yuTS1j~NTJMYTVyoWG7wa" x1="41.263" x2="39.159" y1="6.036" y2="14.642" gradientUnits="userSpaceOnUse"><stop offset="0" stop-color="#08bbff"/><stop offset=".236" stop-color="#07b6fd"/><stop offset=".505" stop-color="#06a8f7"/><stop offset=".79" stop-color="#0392ed"/><stop offset="1" stop-color="#007ce4"/></linearGradient><path fill="url(#8yuTS1j~NTJMYTVyoWG7wa)" d="M44.59,12.514L40,17.104l-5.45-4.92l5.04-4.76c0.79-0.74,2.01-0.72,2.78,0.05l2.22,2.22	C45.37,10.474,45.37,11.734,44.59,12.514z"/><linearGradient id="8yuTS1j~NTJMYTVyoWG7wb" x1="16.275" x2="34.259" y1="10.781" y2="52.164" gradientUnits="userSpaceOnUse"><stop offset="0" stop-color="#08bbff"/><stop offset=".225" stop-color="#06aaf8"/><stop offset=".726" stop-color="#0289e9"/><stop offset="1" stop-color="#007ce4"/></linearGradient><path fill="url(#8yuTS1j~NTJMYTVyoWG7wb)" d="M41.71,32.164c-5.27,5.14-13.74,5.29-19.19,0.42l-9.75,9.75c-1.53,1.53-4.01,1.53-5.54,0	l-4.46-4.46c-1.53-1.53-1.53-4.01,0-5.54l8.023-8.023c0.391-0.391,1.024-0.391,1.414,0l3.066,3.066c0.391,0.391,1.024,0.391,1.414,0	l1.086-1.086c0.391-0.391,0.391-1.024,0-1.414l-3.066-3.066c-0.391-0.391-0.391-1.024,0-1.414l6.663-6.663	c0.01-0.02,0.02-0.03,0.05-0.05c0.2-0.23,0.41-0.46,0.64-0.68c5.43-5.3,14.23-5.3,19.65,0C47.14,18.294,47.14,26.874,41.71,32.164z"/><linearGradient id="8yuTS1j~NTJMYTVyoWG7wc" x1="28.909" x2="38.548" y1="17.532" y2="33.876" gradientUnits="userSpaceOnUse"><stop offset="0" stop-color="#00e7ff"/><stop offset="1" stop-color="#00b8ff"/></linearGradient><ellipse cx="31.888" cy="22.583" fill="url(#8yuTS1j~NTJMYTVyoWG7wc)" rx="9.719" ry="9.479"/><linearGradient id="8yuTS1j~NTJMYTVyoWG7wd" x1="-9.172" x2="-6.829" y1="14.851" y2="1.564" gradientTransform="matrix(.5 0 0 .5 15 4)" gradientUnits="userSpaceOnUse"><stop offset="0" stop-color="#00b8ff"/><stop offset="1" stop-color="#00e7ff"/></linearGradient><path fill="url(#8yuTS1j~NTJMYTVyoWG7wd)" d="M11.293,11.397L7.707,7.811c-0.391-0.391-0.391-1.024,0-1.414l1.586-1.586	c0.391-0.391,1.024-0.391,1.414,0l3.586,3.586c0.391,0.391,0.391,1.024,0,1.414l-1.586,1.586	C12.317,11.788,11.683,11.788,11.293,11.397z"/><linearGradient id="8yuTS1j~NTJMYTVyoWG7we" x1="-8.389" x2="-2.871" y1="2.561" y2="-1.302" gradientTransform="scale(.5) rotate(-45 41.652 -9.213)" gradientUnits="userSpaceOnUse"><stop offset="0" stop-color="#00b8ff"/><stop offset="1" stop-color="#00e7ff"/></linearGradient><path fill="url(#8yuTS1j~NTJMYTVyoWG7we)" d="M10,18.104H5c-0.552,0-1-0.448-1-1v-2c0-0.552,0.448-1,1-1h5c0.552,0,1,0.448,1,1v2	C11,17.656,10.552,18.104,10,18.104z"/></svg>