<svg xmlns="http://www.w3.org/2000/svg" viewBox="0 0 48 48"><linearGradient id="Q0CE8nxEKsnyK7aoCMU9Da" x1="25.304" x2="48.646" y1="485.74" y2="509.774" gradientTransform="translate(0 -474)" gradientUnits="userSpaceOnUse"><stop offset="0" stop-color="#eba600"/><stop offset="1" stop-color="#c28200"/></linearGradient><path fill="url(#Q0CE8nxEKsnyK7aoCMU9Da)" d="M42,42H31V6h12c0.552,0,1,0.448,1,1v33C44,41.105,43.105,42,42,42z"/><linearGradient id="Q0CE8nxEKsnyK7aoCMU9Db" x1="3.189" x2="33.886" y1="481.64" y2="513.249" gradientTransform="translate(0 -474)" gradientUnits="userSpaceOnUse"><stop offset="0" stop-color="#ffd869"/><stop offset="1" stop-color="#fec52b"/></linearGradient><path fill="url(#Q0CE8nxEKsnyK7aoCMU9Db)" d="M31,42H6c-1.105,0-2-0.895-2-2V7c0-0.552,0.448-1,1-1h28v34C33,41.105,32.105,42,31,42z"/><linearGradient id="Q0CE8nxEKsnyK7aoCMU9Dc" x1="17.154" x2="17.154" y1="485.74" y2="454.029" gradientTransform="translate(0 -474)" gradientUnits="userSpaceOnUse"><stop offset="0" stop-color="#eba600"/><stop offset="1" stop-color="#c28200"/></linearGradient><path fill="url(#Q0CE8nxEKsnyK7aoCMU9Dc)" d="M33,6H4.618C4.239,6,3.893,6.214,3.724,6.553l-2.362,4.724C1.196,11.609,1.437,12,1.809,12 h27.573c0.379,0,0.725-0.214,0.894-0.553L33,6z"/><linearGradient id="Q0CE8nxEKsnyK7aoCMU9Dd" x1="39.846" x2="39.846" y1="485.729" y2="481.572" gradientTransform="translate(0 -474)" gradientUnits="userSpaceOnUse"><stop offset="0" stop-color="#ffd869"/><stop offset="1" stop-color="#fec52b"/></linearGradient><path fill="url(#Q0CE8nxEKsnyK7aoCMU9Dd)" d="M33,6h10.382c0.379,0,0.725,0.214,0.894,0.553l2.362,4.724 C46.804,11.609,46.563,12,46.191,12h-9.573c-0.379,0-0.725-0.214-0.894-0.553L33,6z"/><path d="M44,40V29.229c-0.894-0.586-1.86-1.056-2.879-1.357l-0.86-0.254l-0.346,0.828	c-0.324,0.775-1.076,1.276-1.916,1.276s-1.592-0.501-1.916-1.276l-0.346-0.828l-0.861,0.254c-1.65,0.489-3.187,1.379-4.442,2.572	l-0.649,0.617l0.542,0.713c0.508,0.668,0.564,1.569,0.145,2.296c-0.369,0.641-1.059,1.038-1.801,1.038	c-0.087,0-0.174-0.006-0.26-0.017l-0.891-0.113l-0.208,0.873C27.104,36.716,27,37.578,27,38.415c0,0.839,0.105,1.702,0.313,2.566	l0.209,0.871l0.889-0.113c0.087-0.011,0.174-0.017,0.261-0.017c0.369,0,0.725,0.099,1.036,0.277H31h11C43.105,42,44,41.105,44,40z" opacity=".05"/><path d="M44,40V29.826c-0.926-0.648-1.944-1.158-3.021-1.476l-0.43-0.127l-0.173,0.414	c-0.402,0.962-1.335,1.584-2.377,1.584c-1.042,0-1.976-0.622-2.377-1.584l-0.173-0.414l-0.431,0.127	c-1.574,0.467-3.041,1.315-4.24,2.455l-0.325,0.309l0.271,0.356c0.63,0.829,0.701,1.947,0.18,2.849	c-0.458,0.795-1.314,1.288-2.234,1.288c-0.108,0-0.216-0.007-0.323-0.021l-0.445-0.057l-0.104,0.437	C27.6,36.795,27.5,37.618,27.5,38.415c0,0.8,0.101,1.624,0.299,2.449l0.105,0.436l0.445-0.057c0.108-0.014,0.216-0.021,0.324-0.021	c0.7,0,1.361,0.289,1.84,0.777H31h11C43.105,42,44,41.105,44,40z" opacity=".07"/><linearGradient id="Q0CE8nxEKsnyK7aoCMU9De" x1="31.189" x2="45.426" y1="1537.604" y2="1551.841" gradientTransform="translate(0 -1506)" gradientUnits="userSpaceOnUse"><stop offset="0" stop-color="#889097"/><stop offset=".331" stop-color="#848c94"/><stop offset=".669" stop-color="#78828b"/><stop offset="1" stop-color="#64717c"/></linearGradient><path fill="url(#Q0CE8nxEKsnyK7aoCMU9De)" d="M47.715,36.083c-1.192,0.152-2.415-0.407-3.054-1.514c-0.638-1.106-0.512-2.444,0.215-3.401	c-1.129-1.072-2.505-1.885-4.038-2.338c-0.464,1.111-1.56,1.892-2.839,1.892s-2.375-0.782-2.839-1.892	c-1.533,0.454-2.908,1.265-4.038,2.338c0.727,0.957,0.854,2.295,0.215,3.401c-0.638,1.106-1.861,1.665-3.054,1.514	C28.105,36.832,28,37.61,28,38.415s0.105,1.583,0.285,2.332c1.192-0.152,2.415,0.408,3.054,1.514	c0.638,1.106,0.512,2.444-0.215,3.401c1.129,1.072,2.505,1.885,4.038,2.338c0.464-1.111,1.56-1.892,2.839-1.892	S40.376,46.89,40.84,48c1.533-0.454,2.908-1.265,4.038-2.338c-0.727-0.957-0.855-2.295-0.215-3.401	c0.638-1.106,1.861-1.665,3.054-1.514C47.895,39.998,48,39.22,48,38.415S47.895,36.832,47.715,36.083z"/><linearGradient id="Q0CE8nxEKsnyK7aoCMU9Df" x1="41.484" x2="34.47" y1="1547.899" y2="1540.885" gradientTransform="translate(0 -1506)" gradientUnits="userSpaceOnUse"><stop offset="0" stop-color="#fff"/><stop offset=".242" stop-color="#f2f2f2"/><stop offset="1" stop-color="#ccc"/></linearGradient><circle cx="38" cy="38.415" r="5" fill="url(#Q0CE8nxEKsnyK7aoCMU9Df)"/><linearGradient id="Q0CE8nxEKsnyK7aoCMU9Dg" x1="35.193" x2="40.117" y1="1541.608" y2="1546.532" gradientTransform="translate(0 -1506)" gradientUnits="userSpaceOnUse"><stop offset="0" stop-color="#0d61a9"/><stop offset=".363" stop-color="#0e5fa4"/><stop offset=".78" stop-color="#135796"/><stop offset="1" stop-color="#16528c"/></linearGradient><circle cx="38" cy="38.415" r="3" fill="url(#Q0CE8nxEKsnyK7aoCMU9Dg)"/></svg>