<svg xmlns="http://www.w3.org/2000/svg" viewBox="0 0 48 48"><linearGradient id="9nr6~2Ge~beVC6_VieoTFa" x1="7.808" x2="26.192" y1="7.808" y2="26.192" gradientUnits="userSpaceOnUse"><stop offset="0" stop-color="#21ad64"/><stop offset="1" stop-color="#088242"/></linearGradient><path fill="url(#9nr6~2Ge~beVC6_VieoTFa)" d="M30,17c0,7.179-5.821,13-13,13S4,24.179,4,17S9.821,4,17,4S30,9.821,30,17z"/><path d="M15.52,13.522c0-0.577,0.498-0.869,1.48-0.869c1.352,0,2.47,0.43,3.016,0.686	c0.339,0.159,1.534,0.381,1.534-0.964v-1.362c0-0.997-0.602-1.339-0.86-1.44c-0.629-0.244-1.415-0.399-2.39-0.468V8.225	c0-0.538-0.437-0.975-0.975-0.975h-0.65c-0.538,0-0.975,0.437-0.975,0.975v0.957c-2.091,0.382-4.126,1.742-4.126,4.566	c0,5.651,6.906,5.164,6.906,6.441c0,0.231,0,0.845-1.48,0.845c-1.718,0-3.227-0.703-3.648-0.919	c-0.332-0.17-1.552-0.294-1.552,0.955v1.549c0,0.556,0.333,1.057,0.848,1.276c0.872,0.37,1.996,0.666,3.052,0.808v1.072	c0,0.538,0.437,0.975,0.975,0.975h0.65c0.538,0,0.975-0.437,0.975-0.975v-1.078c3.032-0.504,4.126-2.769,4.126-4.647	C22.426,14.531,15.52,15.407,15.52,13.522z" opacity=".05"/><path d="M15.195,13.522c0-1.01,1.06-1.194,1.805-1.194c1.285,0,2.433,0.378,3.154,0.717	c0.311,0.146,1.071,0.159,1.071-0.67v-1.361c0-0.727-0.387-1.033-0.653-1.137c-0.622-0.242-1.456-0.406-2.597-0.462V8.225	c0-0.359-0.291-0.65-0.65-0.65h-0.65c-0.359,0-0.65,0.291-0.65,0.65v1.24c-2.058,0.29-4.126,1.542-4.126,4.284	c0,5.25,6.906,4.526,6.906,6.441c0,0.517-0.256,1.17-1.805,1.17c-1.672,0-3.172-0.635-3.796-0.954	c-0.305-0.156-1.079-0.115-1.079,0.666v1.549c0,0.427,0.256,0.809,0.65,0.977c0.925,0.393,2.144,0.698,3.25,0.815v1.364	c0,0.359,0.291,0.65,0.65,0.65h0.65c0.359,0,0.65-0.291,0.65-0.65V24.41c3.031-0.379,4.126-2.526,4.126-4.36	C22.101,14.952,15.195,15.847,15.195,13.522z" opacity=".07"/><path fill="#fff" d="M21.776,20.05c0-4.678-6.906-3.764-6.906-6.528c0-1.443,1.622-1.519,2.129-1.519	c1.219,0,2.395,0.327,3.293,0.748c0.283,0.133,0.607-0.064,0.607-0.376v-1.361c0-0.456-0.172-0.727-0.446-0.834	c-0.615-0.239-1.498-0.414-2.804-0.457V8.225c0-0.18-0.146-0.325-0.325-0.325h-0.65c-0.179,0-0.325,0.145-0.325,0.325v1.522	c-2.026,0.198-4.126,1.341-4.126,4.001c0,4.849,6.906,3.887,6.906,6.441c0,0.803-0.513,1.495-2.129,1.495	c-1.625,0-3.118-0.567-3.944-0.99c-0.278-0.142-0.606,0.064-0.606,0.376v1.549c0,0.297,0.179,0.561,0.453,0.678	c0.979,0.416,2.292,0.731,3.447,0.823v1.655c0,0.179,0.146,0.325,0.325,0.325h0.65c0.179,0,0.325-0.146,0.325-0.325v-1.652	C20.681,23.87,21.776,21.841,21.776,20.05z"/><radialGradient id="9nr6~2Ge~beVC6_VieoTFb" cx="31.003" cy="31.05" r="15.056" gradientUnits="userSpaceOnUse"><stop offset="0"/><stop offset="1" stop-opacity="0"/></radialGradient><path fill="url(#9nr6~2Ge~beVC6_VieoTFb)" d="M16.053,29.952C16.367,29.975,16.68,30,17,30c7.179,0,13-5.821,13-13	c0-0.32-0.025-0.633-0.048-0.947C22.507,16.569,16.569,22.507,16.053,29.952z"/><linearGradient id="9nr6~2Ge~beVC6_VieoTFc" x1="25.151" x2="37.23" y1="19.621" y2="43.121" gradientUnits="userSpaceOnUse"><stop offset="0" stop-color="#0176d0"/><stop offset="1" stop-color="#16538c"/></linearGradient><path fill="url(#9nr6~2Ge~beVC6_VieoTFc)" d="M44,31c0,7.179-5.821,13-13,13s-13-5.821-13-13s5.821-13,13-13S44,23.821,44,31z"/><path d="M35.873,36.911l-0.347-1.604c-0.064-0.294-0.251-0.545-0.514-0.689	c-0.267-0.146-0.584-0.17-0.872-0.064c-0.563,0.206-1.227,0.329-1.775,0.329c-0.679,0-1.622-0.15-2.258-0.866	c-0.103-0.117-0.196-0.253-0.276-0.409h4.052c0.566,0,1.026-0.46,1.026-1.026v-0.759c0-0.371-0.197-0.696-0.493-0.876	c0.296-0.181,0.493-0.506,0.493-0.877v-0.758c0-0.566-0.46-1.026-1.026-1.026h-3.965c0.07-0.121,0.146-0.229,0.227-0.322	c0.493-0.604,1.204-0.91,2.114-0.91c0.689,0,1.33,0.174,1.746,0.32c0.275,0.096,0.581,0.072,0.838-0.066	c0.257-0.139,0.445-0.383,0.515-0.668l0.409-1.667c0.126-0.511-0.146-1.035-0.631-1.219c-0.663-0.252-1.74-0.553-3.112-0.553	c-2.112,0-4.029,0.848-5.407,2.395c-0.666,0.77-1.16,1.674-1.472,2.69h-0.554c-0.566,0-1.026,0.461-1.026,1.026v0.758	c0,0.371,0.197,0.696,0.493,0.877c-0.296,0.18-0.493,0.506-0.493,0.876v0.759c0,0.566,0.46,1.026,1.026,1.026h0.477	c0.233,0.953,0.639,1.798,1.203,2.509c1.29,1.706,3.373,2.684,5.711,2.684c1.132,0,2.338-0.264,3.31-0.724	C35.736,37.867,35.975,37.388,35.873,36.911z" opacity=".05"/><path d="M35.556,36.979l-0.347-1.603c-0.044-0.202-0.172-0.375-0.353-0.474	c-0.184-0.101-0.404-0.117-0.604-0.044c-0.597,0.219-1.303,0.349-1.887,0.349c-0.745,0-1.784-0.169-2.502-0.976	c-0.218-0.246-0.388-0.559-0.518-0.949h4.537c0.387,0,0.701-0.315,0.701-0.701v-0.759c0-0.387-0.315-0.701-0.701-0.701h-4.938	v-0.016c0-0.108,0-0.222,0.003-0.335h4.935c0.387,0,0.701-0.315,0.701-0.701v-0.758c0-0.387-0.315-0.701-0.701-0.701h-4.476	c0.131-0.343,0.297-0.636,0.487-0.852c0.557-0.683,1.353-1.03,2.365-1.03c0.735,0,1.414,0.184,1.854,0.338	c0.19,0.067,0.399,0.05,0.575-0.045c0.177-0.096,0.306-0.263,0.354-0.46l0.409-1.667c0.086-0.352-0.099-0.712-0.431-0.838	c-0.901-0.343-1.965-0.531-2.996-0.531c-2.017,0-3.849,0.809-5.161,2.283c-0.686,0.793-1.181,1.735-1.475,2.803h-0.797	c-0.387,0-0.701,0.315-0.701,0.701v0.758c0,0.387,0.315,0.701,0.701,0.701h0.479c-0.005,0.104-0.01,0.209-0.01,0.314v0.037h-0.468	c-0.387,0-0.701,0.315-0.701,0.701v0.759c0,0.387,0.315,0.701,0.701,0.701h0.737c0.209,1.01,0.614,1.898,1.202,2.637	c1.229,1.624,3.216,2.555,5.452,2.555c1.085,0,2.241-0.253,3.171-0.693C35.46,37.637,35.626,37.307,35.556,36.979z M34.726,26.484	L34.726,26.484L34.726,26.484L34.726,26.484z" opacity=".07"/><path fill="#ffe357" d="M35.237,37.047c0.039,0.181-0.055,0.362-0.222,0.441c-0.739,0.35-1.837,0.662-3.033,0.662 c-2.085,0-4.001-0.851-5.193-2.426c-0.574-0.723-1-1.638-1.192-2.766h-1.006c-0.208,0-0.376-0.168-0.376-0.376v-0.758 c0-0.208,0.168-0.376,0.376-0.376h0.794c0-0.106,0-0.234,0-0.362c0-0.213,0.022-0.426,0.022-0.639h-0.815 c-0.208,0-0.376-0.168-0.376-0.376v-0.758c0-0.208,0.168-0.376,0.376-0.376h1.05c0.277-1.149,0.787-2.128,1.468-2.915 c1.212-1.362,2.915-2.17,4.915-2.17c1.132,0,2.134,0.226,2.88,0.51c0.182,0.069,0.277,0.268,0.231,0.457l-0.41,1.667 c-0.055,0.225-0.288,0.352-0.506,0.276c-0.532-0.186-1.227-0.356-1.961-0.356c-1.021,0-1.957,0.34-2.618,1.149 c-0.298,0.34-0.531,0.83-0.681,1.383h4.923c0.208,0,0.376,0.168,0.376,0.376v0.758c0,0.208-0.168,0.376-0.376,0.376h-5.242 c-0.022,0.213-0.022,0.447-0.022,0.66c0,0.128,0,0.213,0,0.34h5.263c0.208,0,0.376,0.168,0.376,0.376v0.758 c0,0.208-0.168,0.376-0.376,0.376h-4.965c0.149,0.638,0.383,1.128,0.703,1.489c0.681,0.766,1.681,1.085,2.745,1.085 c0.736,0,1.483-0.18,1.999-0.369c0.227-0.083,0.476,0.045,0.527,0.282L35.237,37.047z"/><path fill="#64717c" d="M39,17c-0.552,0-1-0.447-1-1v-3c0-1.654-1.346-3-3-3h-3c-0.552,0-1-0.447-1-1s0.448-1,1-1h3	c2.757,0,5,2.243,5,5v3C40,16.553,39.552,17,39,17z"/><path fill="#64717c" d="M16,40h-3c-2.757,0-5-2.243-5-5v-3c0-0.553,0.448-1,1-1s1,0.447,1,1v3c0,1.654,1.346,3,3,3h3	c0.552,0,1,0.447,1,1S16.552,40,16,40z"/></svg>