<svg xmlns="http://www.w3.org/2000/svg" viewBox="0 0 48 48"><path fill="#fff" d="M43.945,24c0,11.053-8.963,20-20,20c-11.053,0-20-8.964-20-20c0-11.053,8.964-20,20-20 S43.945,12.947,43.945,24"/><path fill="#185c37" d="M25.95,12.644c-0.168-0.033-1.011-0.168-2.005-0.168c-0.994,0-1.837,0.135-2.005,0.168 c-0.101,0.017-0.135-0.085-0.068-0.135c0.068-0.05,2.073-1.584,2.073-1.584s2.005,1.533,2.072,1.584 C26.085,12.559,26.051,12.66,25.95,12.644 M22.479,22.551c0,0-0.1,0.033-0.135,0.135c0.421,0.32,0.708,1.061,1.585,1.061 c0.876,0,1.162-0.741,1.584-1.061c-0.034-0.101-0.135-0.135-0.135-0.135s-0.556,0.135-1.449,0.135 C23.035,22.686,22.479,22.551,22.479,22.551 M23.928,21.321c-0.236,0-0.304-0.084-0.456-0.084c-0.152,0-0.471,0.135-0.538,0.235 c0,0.051,0.033,0.101,0.067,0.152c0.354,0.051,0.523,0.253,0.927,0.253c0.404,0,0.573-0.202,0.926-0.253 c0.051-0.05,0.068-0.1,0.068-0.152c-0.068-0.117-0.371-0.235-0.539-0.235C24.232,21.22,24.18,21.321,23.928,21.321 M43.911,25.095 c-0.034,0.471-0.067,0.961-0.118,1.415c-2.258,0.371-3.067-1.635-5.392-1.55c0.135,0.489,0.253,0.994,0.337,1.5 c1.921,0,2.679,1.785,4.82,1.516c-0.118,0.539-0.253,1.079-0.405,1.618c-1.685,0.168-2.275-1.5-4.229-1.466 c0.016,0.287,0.016,0.556,0.016,0.843c0,0.152,0,0.321-0.016,0.472c1.668-0.016,2.206,1.516,3.791,1.449 c-0.203,0.539-0.421,1.062-0.657,1.584c-1.146-0.067-1.534-1.516-3.252-1.398c-0.05,0.371-0.118,0.742-0.203,1.112 c1.5-0.101,1.82,1.28,2.899,1.382c-0.27,0.506-0.573,0.994-0.876,1.466c-0.641-0.337-1.197-1.364-2.393-1.432 c0.118-0.387,0.235-0.775,0.32-1.162c-1.079,0-2.292-0.421-3.319-1.348c0.337-1.904-2.612-3.825-2.612-5.222 c0-1.5,0.758-2.343,0.758-4.381c0-1.516-0.741-3.152-1.836-4.263c-0.22-0.218-0.439-0.387-0.691-0.556 c1.011,1.264,1.802,2.747,1.802,4.482c0,1.921-0.893,2.932-0.893,4.701c0,1.77,2.595,3.303,2.595,5.123 c0,0.724-0.235,1.415-0.977,2.796c1.163,1.163,2.679,1.786,3.656,1.786c0.321,0,0.489-0.101,0.607-0.337 c0.101-0.219,0.185-0.438,0.27-0.657c1.044,0.033,1.532,0.994,2.105,1.382c-0.32,0.421-0.656,0.843-1.011,1.247 c-0.387-0.438-0.91-1.163-1.685-1.365c-0.135,0.27-0.286,0.523-0.438,0.792c0.658,0.185,1.112,0.843,1.466,1.28 c-0.371,0.387-0.775,0.758-1.18,1.129c-0.252-0.388-0.656-0.894-1.095-1.18c-0.169,0.22-0.338,0.438-0.506,0.657 c0.388,0.253,0.708,0.725,0.927,1.095c-0.472,0.387-0.961,0.741-1.466,1.078c-0.253-2.038-3.016-3.42-2.275-5.779 c-0.253,0.421-0.539,0.944-0.539,1.568c0,1.701,1.82,3.066,1.955,4.751c-0.37,0.22-0.758,0.438-1.162,0.641 c-0.068-1.871-1.988-3.909-1.988-5.426c0-1.702,2.241-3.42,2.241-5.442c0-2.022-2.579-3.42-2.579-5.19 c0-1.769,1.095-2.78,1.095-5.055c0-1.668-0.792-3.336-2.005-4.414c-0.22-0.185-0.421-0.337-0.691-0.471 c1.146,1.381,1.82,2.628,1.82,4.532c0,2.14-1.264,3.319-1.264,5.408c0,2.089,2.528,3.252,2.528,5.19 c0,1.937-2.359,3.589-2.359,5.593c0,1.82,2.073,3.64,2.106,5.796c-0.455,0.203-0.909,0.388-1.382,0.539 c0.27-2.173-2.072-4.431-2.072-6.217c0-1.938,2.443-3.622,2.443-5.712c0-2.089-2.477-3.067-2.477-5.223 c0-2.157,1.534-3.353,1.534-5.729c0-1.853-0.909-3.522-2.258-4.549c-0.034-0.017-0.05-0.05-0.084-0.067 c-0.118-0.101-0.236,0.017-0.135,0.135c0.943,1.179,1.449,2.375,1.449,4.145c0,2.173-1.752,3.943-1.752,6.049 c0,2.493,2.358,3.201,2.358,5.24c0,2.038-2.528,3.673-2.528,5.846c0,2.005,2.393,4.246,1.971,6.555 c-0.471,0.117-0.96,0.235-1.449,0.32c0.455-2.882-1.887-4.97-1.887-6.858c0-2.038,2.611-3.875,2.611-5.863 c0-1.888-1.87-2.494-2.123-4.432c-0.033-0.269-0.253-0.455-0.539-0.404c-0.387,0.067-0.876,0.32-1.634,0.32 c-0.776,0-1.247-0.253-1.635-0.32c-0.286-0.051-0.505,0.152-0.539,0.404c-0.252,1.938-2.123,2.544-2.123,4.432 c0,2.005,2.612,3.825,2.612,5.863c0,1.888-2.343,3.96-1.887,6.858c-0.489-0.085-0.977-0.203-1.45-0.32 c-0.405-2.325,1.971-4.55,1.971-6.555c0-2.173-2.528-3.808-2.528-5.846c0-2.039,2.359-2.747,2.359-5.24 c0-2.106-1.752-3.876-1.752-6.049c0-1.77,0.505-2.965,1.449-4.145c0.085-0.118-0.017-0.22-0.135-0.135 c-0.033,0.017-0.05,0.05-0.085,0.067c-1.331,1.028-2.258,2.696-2.258,4.549c0,2.376,1.533,3.573,1.533,5.729 c0,2.156-2.476,3.134-2.476,5.223c0,2.09,2.443,3.774,2.443,5.712c0,1.786-2.342,4.028-2.073,6.217 c-0.471-0.168-0.926-0.337-1.381-0.539c0.033-2.156,2.105-3.976,2.105-5.796c0-2.005-2.358-3.639-2.358-5.593 c0-1.955,2.527-3.101,2.527-5.19c0-2.089-1.264-3.269-1.264-5.408c0-1.904,0.674-3.152,1.82-4.532 c-0.253,0.135-0.472,0.286-0.691,0.471c-1.213,1.079-2.005,2.764-2.005,4.414c0,2.274,1.095,3.286,1.095,5.055 c0,1.77-2.578,3.167-2.578,5.19c0,2.022,2.241,3.724,2.241,5.442c0,1.534-1.921,3.573-1.988,5.426 c-0.388-0.203-0.776-0.405-1.162-0.641c0.152-1.702,1.971-3.049,1.971-4.751c0-0.624-0.286-1.147-0.539-1.568 c0.741,2.359-2.022,3.758-2.275,5.779c-0.506-0.337-0.994-0.691-1.466-1.078c0.22-0.371,0.556-0.843,0.927-1.095 c-0.168-0.22-0.354-0.421-0.506-0.658c-0.455,0.27-0.843,0.775-1.095,1.18c-0.404-0.354-0.808-0.742-1.179-1.129 c0.354-0.438,0.809-1.112,1.466-1.28c-0.152-0.253-0.304-0.523-0.439-0.792c-0.775,0.202-1.297,0.927-1.684,1.365 c-0.354-0.405-0.691-0.809-1.012-1.247c0.59-0.388,1.062-1.332,2.123-1.382c0.084,0.22,0.186,0.438,0.27,0.657 c0.118,0.252,0.286,0.337,0.607,0.337c0.976,0,2.493-0.64,3.656-1.786c-0.758-1.381-0.977-2.072-0.977-2.796 c0-1.82,2.595-3.353,2.595-5.123c0-1.769-0.893-2.78-0.893-4.701c0-1.735,0.775-3.218,1.802-4.482 c-0.252,0.152-0.471,0.338-0.691,0.556c-1.111,1.112-1.837,2.764-1.837,4.263c0,2.038,0.759,2.864,0.759,4.381 c0,1.397-2.949,3.319-2.612,5.222c-1.028,0.944-2.258,1.348-3.336,1.348c0.1,0.388,0.202,0.775,0.32,1.162 c-1.213,0.068-1.77,1.095-2.392,1.432c-0.32-0.471-0.606-0.96-0.876-1.466c1.079-0.118,1.399-1.5,2.898-1.382 c-0.084-0.37-0.152-0.741-0.202-1.112C7.4,30.96,7.012,32.425,5.883,32.475c-0.236-0.522-0.455-1.044-0.658-1.584 C6.809,30.96,7.349,29.426,9,29.443c0-0.152,0-0.303,0-0.472c0-0.286,0.017-0.555,0.017-0.843c-1.955-0.05-2.544,1.635-4.229,1.466 c-0.152-0.523-0.286-1.062-0.405-1.618c2.123,0.27,2.899-1.532,4.819-1.516c0.085-0.506,0.203-1.011,0.338-1.5 c-2.326-0.101-3.134,1.921-5.392,1.55c-0.068-0.471-0.101-0.944-0.135-1.415c2.628,0.286,3.622-1.87,6.015-1.6 c0.219-0.573,0.489-1.129,0.792-1.668c-2.999-0.523-4.028,1.988-6.824,1.6C4.231,12.644,13.077,4,23.928,4 c10.868,0,19.696,8.643,20,19.444c-2.797,0.388-3.825-2.123-6.824-1.6c0.303,0.539,0.556,1.095,0.792,1.668 C40.288,23.225,41.266,25.398,43.911,25.095 M15.335,16.705c-1.466-0.607-3.252-0.456-4.785,0.522 c-0.236-1.415-1.011-2.679-2.106-3.437c-0.152-0.101-0.303,0-0.303,0.168c0.236,2.999-1.517,5.594-3.673,7.886 c2.224,0.674,4.111-2.19,6.975-1.196C12.504,19.114,13.818,17.765,15.335,16.705 M23.928,14.901c-1.854,0-3.421,1.044-3.825,2.409 c-0.034,0.101,0.017,0.168,0.135,0.118c0.337-0.152,0.707-0.22,1.129-0.22c0.758,0,1.432,0.286,1.819,0.759 c0.169,0.573,0.186,1.415-0.017,1.887c-0.303-0.068-0.421-0.303-0.724-0.303c-0.303,0-0.539,0.219-1.061,0.219 c-0.523,0-0.573-0.252-0.911-0.252c-0.405,0-0.471,0.404-0.471,0.876c0,2.072,1.904,4.92,3.926,4.92 c2.022,0,3.925-2.848,3.925-4.92c0-0.472-0.101-0.859-0.505-0.91c-0.203,0.151-0.405,0.286-0.876,0.286 c-0.523,0-0.657-0.219-0.961-0.219c-0.371,0-0.338,0.775-0.775,0.826c-0.286-0.691-0.303-1.601-0.067-2.393 c0.388-0.489,1.061-0.759,1.82-0.759c0.405,0,0.791,0.068,1.129,0.22c0.118,0.05,0.168-0.017,0.135-0.118 C27.349,15.946,25.782,14.901,23.928,14.901 M26.894,17.867c-0.456,0-0.961,0.135-1.298,0.505 c-0.033,0.101-0.033,0.253,0.018,0.338c0.808-0.27,1.516-0.286,1.87,0.101c0.185-0.169,0.235-0.321,0.235-0.489 C27.719,18.052,27.432,17.867,26.894,17.867 M20.39,18.811c0.387-0.388,1.213-0.371,2.055-0.068 c0.033-0.421-0.724-0.893-1.482-0.893c-0.556,0-0.826,0.185-0.826,0.455C20.154,18.49,20.204,18.642,20.39,18.811 M33.195,11.801 c-1.466,0.101-2.746,0.606-3.775,1.449c0.439-1.247,0.995-2.325,1.703-3.37c-1.871,0.203-3.421,0.877-4.567,2.056l-0.893-2.342 l1.971-1.752l-2.646-0.185l-1.061-2.461l-1.062,2.461L20.22,7.841l1.971,1.752l-0.893,2.342c-1.146-1.162-2.696-1.853-4.566-2.056 c0.708,1.045,1.264,2.141,1.702,3.37c-1.028-0.843-2.309-1.347-3.774-1.449c0.876,1.129,1.652,2.342,2.241,3.64 c0.067,0.152,0.202,0.202,0.353,0.118c2.006-0.994,4.264-1.568,6.673-1.568c2.393,0,4.651,0.556,6.672,1.568 c0.152,0.084,0.286,0.033,0.353-0.118C31.526,14.144,32.319,12.93,33.195,11.801 M36.397,20.647 c2.881-0.994,4.769,1.853,6.992,1.196c-2.156-2.291-3.909-4.887-3.673-7.886c0.017-0.168-0.152-0.27-0.286-0.168 c-1.095,0.758-1.87,2.022-2.106,3.437c-1.516-0.977-3.302-1.112-4.785-0.522C34.054,17.765,35.351,19.114,36.397,20.647"/></svg>