<svg xmlns="http://www.w3.org/2000/svg" viewBox="0 0 48 48"><linearGradient id="2CxaB8eTE6d8hgx1psDrEa" x1="13.5" x2="13.5" y1="-5.977" y2="29.651" gradientUnits="userSpaceOnUse"><stop offset="0" stop-color="#889097"/><stop offset="1" stop-color="#4c5963"/></linearGradient><path fill="url(#2CxaB8eTE6d8hgx1psDrEa)" d="M14.5,21C11.091,21,5,17.825,5,11.5c0-3.484,1.907-6.458,5.101-7.954	c3.632-1.7,7.985-1.01,11.359,1.802c0.637,0.53,0.723,1.476,0.192,2.113c-0.531,0.636-1.478,0.723-2.112,0.192	c-2.952-2.46-6.153-2.332-8.167-1.39C9.261,7.252,8,9.21,8,11.5c0,4.501,4.71,6.5,6.5,6.5c0.828,0,1.5,0.671,1.5,1.5	S15.328,21,14.5,21z"/><linearGradient id="2CxaB8eTE6d8hgx1psDrEb" x1="24" x2="24" y1="3.909" y2="53.564" gradientUnits="userSpaceOnUse"><stop offset="0" stop-color="#889097"/><stop offset="1" stop-color="#4c5963"/></linearGradient><path fill="url(#2CxaB8eTE6d8hgx1psDrEb)" d="M32.366,27.25C33.28,26.088,33,24.258,33,21.5C33,15,29,11,24,11s-12,6-12,15	c0,0.808,0,1.841,0,3v2v12c0,1.105,0.895,2,2,2s2-0.895,2-2v-4c0-3,1-9,5-9c3,0,4,3,4,4v9c0,1.105,0.895,2,2,2s2-0.895,2-2V32.5	c0-0.828,0.672-1.5,1.5-1.5s1.5,0.672,1.5,1.5V43c0,1.105,0.895,2,2,2s2-0.895,2-2V32v-2v-2.75H32.366z"/><linearGradient id="2CxaB8eTE6d8hgx1psDrEc" x1="38.379" x2="38.379" y1="210.599" y2="194.941" gradientTransform="matrix(1 0 0 -1 0 224)" gradientUnits="userSpaceOnUse"><stop offset="0" stop-color="#889097"/><stop offset="1" stop-color="#4c5963"/></linearGradient><path fill="url(#2CxaB8eTE6d8hgx1psDrEc)" d="M36,17c-1,0,4.004,4.698,4.004,4.698S42,18,40,14C39,14,38,17,36,17z"/><linearGradient id="2CxaB8eTE6d8hgx1psDrEd" x1="28.621" x2="28.621" y1="210.599" y2="194.941" gradientTransform="matrix(1 0 0 -1 0 224)" gradientUnits="userSpaceOnUse"><stop offset="0" stop-color="#889097"/><stop offset="1" stop-color="#4c5963"/></linearGradient><path fill="url(#2CxaB8eTE6d8hgx1psDrEd)" d="M31,17c1,0-4.004,4.698-4.004,4.698S25,18,27,14C28,14,29,17,31,17z"/><linearGradient id="2CxaB8eTE6d8hgx1psDrEe" x1="33.5" x2="33.5" y1="208.935" y2="172.365" gradientTransform="matrix(1 0 0 -1 0 224)" gradientUnits="userSpaceOnUse"><stop offset="0" stop-color="#889097"/><stop offset="1" stop-color="#4c5963"/></linearGradient><ellipse cx="33.5" cy="22.5" fill="url(#2CxaB8eTE6d8hgx1psDrEe)" rx="7.5" ry="6.5"/><path fill="#f7c13a" d="M29,21l3,1c0,0.49-0.587,1-1.325,1C29.928,23,29,22.5,29,21.373V21z"/><path fill="#f7c13a" d="M38,21l-3,1c0,0.49,0.586,1,1.325,1C37.072,23,38,22.5,38,21.373V21z"/><g opacity=".05"><path d="M33.5,29c-4.14,0-7.5-2.91-7.5-6.5c0-0.78,0.17-1.53,0.46-2.22c-0.4-1.44-0.7-3.8,0.54-6.28c0.82,0,1.64,2.02,3.02,2.74 c0.59-0.27,1.22-0.47,1.89-0.59c-0.08-0.16-0.16-0.32-0.23-0.47c-0.09-0.15-0.17-0.3-0.26-0.44c-0.44,0.09-0.87,0.22-1.29,0.38 c-0.37-0.3-0.72-0.74-1.04-1.13C28.48,13.72,27.89,13,27,13h-0.62l-0.27,0.55c-1.28,2.55-1.12,4.98-0.7,6.67 C25.14,20.96,25,21.73,25,22.5c0,4.14,3.81,7.5,8.5,7.5c0.87,0,1.71-0.12,2.5-0.34v-1.04C35.22,28.87,34.38,29,33.5,29z"/></g><g opacity=".07"><path d="M33.5,29c-4.14,0-7.5-2.91-7.5-6.5c0-0.78,0.17-1.53,0.46-2.22c-0.4-1.44-0.7-3.8,0.54-6.28c0.82,0,1.64,2.02,3.02,2.74 c0.59-0.27,1.22-0.47,1.89-0.59c-0.08-0.16-0.16-0.32-0.23-0.47c-0.56,0.11-1.1,0.28-1.63,0.5c-0.5-0.33-0.95-0.88-1.35-1.38 c-0.56-0.7-1.05-1.3-1.7-1.3h-0.31l-0.14,0.28c-1.24,2.49-1.04,4.86-0.62,6.47c-0.28,0.73-0.43,1.49-0.43,2.25c0,3.86,3.59,7,8,7 c0.87,0,1.72-0.12,2.5-0.35v-0.53C35.22,28.87,34.38,29,33.5,29z"/></g></svg>