<svg xmlns="http://www.w3.org/2000/svg" viewBox="0 0 48 48"><linearGradient id="j5lrfy1mloLY_qXAOtFgaa" x1="24" x2="24" y1="10.985" y2="49.991" gradientUnits="userSpaceOnUse"><stop offset="0" stop-color="#21ad64"/><stop offset="1" stop-color="#088242"/></linearGradient><path fill="url(#j5lrfy1mloLY_qXAOtFgaa)" d="M11,16h26c4.418,0,8,3.582,8,8v6c0,4.418-3.582,8-8,8H11c-4.418,0-8-3.582-8-8v-6	C3,19.582,6.582,16,11,16z"/><linearGradient id="j5lrfy1mloLY_qXAOtFgab" x1="24" x2="24" y1="9.5" y2="37.437" gradientUnits="userSpaceOnUse"><stop offset="0" stop-color="#9dffce"/><stop offset="1" stop-color="#50d18d"/></linearGradient><path fill="url(#j5lrfy1mloLY_qXAOtFgab)" d="M42.18,17.91C42.12,17.9,42.06,17.9,42,17.9c-3.31,0-6,2.68-6,6c0,0.03,0,0.07,0.01,0.1	C36,24,36,24,36,24c-3.31,0-6,2.69-6,6c-3.31,0-6,2.69-6,6c0-3.31-2.69-6-6-6c0-3.31-2.69-6-6-6c0,0,0,0-0.01,0	C12,23.97,12,23.93,12,23.9c0-3.32-2.69-6-6-6c-0.06,0-0.12,0-0.18,0.01C7.21,16.72,9.02,16,11,16h26	C38.98,16,40.79,16.72,42.18,17.91z"/><path fill="#33c481" d="M24,30c-0.553,0-1-0.448-1-1V19c0-0.552,0.447-1,1-1s1,0.448,1,1v10C25,29.552,24.553,30,24,30z"/><path fill="#33c481" d="M15,23c-0.553,0-1-0.448-1-1c0-0.55,0.444-0.997,0.994-1C15.466,20.992,17,20.825,17,19	c0-0.552,0.447-1,1-1s1,0.448,1,1C19,21.935,16.607,23,15,23z"/><path fill="#33c481" d="M33,23c-1.607,0-4-1.065-4-4c0-0.552,0.447-1,1-1s1,0.448,1,1c0,1.827,1.536,1.993,2.008,2	c0.549,0.009,0.992,0.458,0.988,1.008C33.991,22.557,33.549,23,33,23z"/><path fill="#107c42" d="M6,26c-0.553,0-1-0.448-1-1s0.447-1,1-1c0.953,0,2-1.047,2-2c0-0.552,0.447-1,1-1s1,0.448,1,1	C10,24.056,8.056,26,6,26z"/><path fill="#107c42" d="M10,36c-0.553,0-1-0.448-1-1s0.447-1,1-1c1.227,0,3-2.137,3-6c0-0.552,0.447-1,1-1s1,0.448,1,1	C15,32.486,12.804,36,10,36z"/><path fill="#107c42" d="M42,26c-2.056,0-4-1.944-4-4c0-0.552,0.447-1,1-1s1,0.448,1,1c0,0.953,1.047,2,2,2	c0.553,0,1,0.448,1,1S42.553,26,42,26z"/><path fill="#107c42" d="M38,36c-2.804,0-5-3.514-5-8c0-0.552,0.447-1,1-1s1,0.448,1,1c0,3.863,1.773,6,3,6	c0.553,0,1,0.448,1,1S38.553,36,38,36z"/></svg>