<svg xmlns="http://www.w3.org/2000/svg" viewBox="0 0 48 48"><circle cx="24" cy="24" r="20" fill="#0078d4"/><circle cx="24" cy="24" r="17" fill="#199be2"/><circle cx="24" cy="14" r="5" opacity=".05"/><circle cx="24" cy="14" r="4.5" opacity=".07"/><circle cx="24" cy="14" r="4" fill="#50e6ff"/><path d="M26.5,38c-1.378,0-2.5-1.122-2.5-2.5c0,1.378-1.122,2.5-2.5,2.5S19,36.878,19,35.5V24h-3.5	c-1.378,0-2.5-1.122-2.5-2.5s1.122-2.5,2.5-2.5h17c1.378,0,2.5,1.122,2.5,2.5S33.878,24,32.5,24H29v11.5	C29,36.878,27.878,38,26.5,38z" opacity=".05"/><path d="M26.5,37.5c-1.103,0-2-0.897-2-2V30c0-0.276-0.224-0.5-0.5-0.5s-0.5,0.224-0.5,0.5v5.5	c0,1.103-0.897,2-2,2s-2-0.897-2-2v-12h-4c-1.103,0-2-0.897-2-2s0.897-2,2-2h17c1.103,0,2,0.897,2,2s-0.897,2-2,2h-4v12	C28.5,36.603,27.603,37.5,26.5,37.5z" opacity=".07"/><path fill="#50e6ff" d="M32.5,20h-0.803H29h-6h-4h-3.5c-0.828,0-1.5,0.672-1.5,1.5s0.672,1.5,1.5,1.5H19h1v12.5	c0,0.828,0.672,1.5,1.5,1.5s1.5-0.672,1.5-1.5V30c0-0.552,0.448-1,1-1s1,0.448,1,1v5.5c0,0.828,0.672,1.5,1.5,1.5s1.5-0.672,1.5-1.5	V23h1h3.5c0.828,0,1.5-0.672,1.5-1.5S33.328,20,32.5,20z"/></svg>