<svg xmlns="http://www.w3.org/2000/svg" viewBox="0 0 48 48"><linearGradient id="xNhbNAC5tUvvnK~xzBqLQa" x1="14.786" x2="33.076" y1="31.187" y2="49.477" gradientUnits="userSpaceOnUse"><stop offset="0" stop-color="#33bef0"/><stop offset="1" stop-color="#0a85d9"/></linearGradient><path fill="url(#xNhbNAC5tUvvnK~xzBqLQa)" d="M24,30.571c-8.837,0-16,4.921-16,10.286V42c0,1.105,0.895,2,2,2h28c1.105,0,2-0.895,2-2	v-1.143C40,35.492,32.837,30.571,24,30.571z"/><path fill="#d6a121" d="M29,33c0,1.897-2.83,4-5,4s-5-2.103-5-4c0-2.637,0-7.035,0-7.035h10C29,25.965,29,30.363,29,33z"/><linearGradient id="xNhbNAC5tUvvnK~xzBqLQb" x1="32.917" x2="34.251" y1="20" y2="20" gradientUnits="userSpaceOnUse"><stop offset="0" stop-color="#c48f0c"/><stop offset=".251" stop-color="#d19b16"/><stop offset=".619" stop-color="#dca51f"/><stop offset="1" stop-color="#e0a922"/></linearGradient><path fill="url(#xNhbNAC5tUvvnK~xzBqLQb)" d="M32.916,18h-0.527v4h0.703c0.515,0,0.954-0.312,1.041-0.74l0.344-1.703	C34.642,18.743,33.897,18,32.916,18z"/><linearGradient id="xNhbNAC5tUvvnK~xzBqLQc" x1="-207.083" x2="-205.749" y1="20" y2="20" gradientTransform="matrix(-1 0 0 1 -192 0)" gradientUnits="userSpaceOnUse"><stop offset="0" stop-color="#c48f0c"/><stop offset=".251" stop-color="#d19b16"/><stop offset=".619" stop-color="#dca51f"/><stop offset="1" stop-color="#e0a922"/></linearGradient><path fill="url(#xNhbNAC5tUvvnK~xzBqLQc)" d="M15.084,18h0.527v4h-0.703c-0.515,0-0.954-0.312-1.041-0.74l-0.344-1.703	C13.358,18.743,14.103,18,15.084,18z"/><radialGradient id="xNhbNAC5tUvvnK~xzBqLQd" cx="-3.389" cy="45.109" r="12.224" gradientTransform="translate(26.988 -21.07) scale(.8816)" gradientUnits="userSpaceOnUse"><stop offset="0" stop-color="#ffcf54"/><stop offset=".261" stop-color="#fdcb4d"/><stop offset=".639" stop-color="#f7c13a"/><stop offset="1" stop-color="#f0b421"/></radialGradient><path fill="url(#xNhbNAC5tUvvnK~xzBqLQd)" d="M24,6.4c-4.441,0-9,0.675-9,10.275c0,0.768,0,5.877,0,6.698C15,26.8,20.4,31,24,31	s9-4.2,9-7.627c0-0.821,0-5.929,0-6.698C33,7.075,28.441,6.4,24,6.4z"/><radialGradient id="xNhbNAC5tUvvnK~xzBqLQe" cx="-13.091" cy="31.456" r="28.915" gradientTransform="translate(26.988 -21.07) scale(.8816)" gradientUnits="userSpaceOnUse"><stop offset="0" stop-color="#c26715"/><stop offset=".508" stop-color="#b85515"/><stop offset="1" stop-color="#ad3f16"/></radialGradient><path fill="url(#xNhbNAC5tUvvnK~xzBqLQe)" d="M24,5.545c-4.354,0-5,1.636-5,1.636c-1.77,0.261-5,2.854-5,5.818c0,1.654,0.265,2.876,1,7	c0.545-6.545,2.249-9,4-9c1.267,0,2.273,1,5,1c2.303,0,2.875-1,5-1c3,0,4,7.968,4,9c0.601-3.01,1-5.555,1-7	C34,9.57,30.209,5.545,24,5.545z"/><radialGradient id="xNhbNAC5tUvvnK~xzBqLQf" cx="-16.015" cy="33.392" r="33.398" gradientTransform="matrix(.8431 0 0 .8816 36.069 -21.07)" gradientUnits="userSpaceOnUse"><stop offset="0" stop-color="#c26715"/><stop offset=".508" stop-color="#b85515"/><stop offset="1" stop-color="#ad3f16"/></radialGradient><path fill="url(#xNhbNAC5tUvvnK~xzBqLQf)" d="M24.219,5c-4.164,0-5.216,2.182-5.216,2.182c-0.042,1.159,0.522,2.182,0.522,2.182	S20.285,11,24.625,11C27.245,11,31,9.365,31,5C31,5,30.157,5,24.219,5z"/><linearGradient id="xNhbNAC5tUvvnK~xzBqLQg" x1="30.963" x2="44.994" y1="30.963" y2="44.994" gradientUnits="userSpaceOnUse"><stop offset="0" stop-color="#f44f5a"/><stop offset=".443" stop-color="#ee3d4a"/><stop offset="1" stop-color="#e52030"/></linearGradient><circle cx="38" cy="38" r="10" fill="url(#xNhbNAC5tUvvnK~xzBqLQg)"/><linearGradient id="xNhbNAC5tUvvnK~xzBqLQh" x1="32.37" x2="43.595" y1="32.37" y2="43.595" gradientUnits="userSpaceOnUse"><stop offset="0" stop-color="#fafafb"/><stop offset="1" stop-color="#c8cdd1"/></linearGradient><circle cx="38" cy="38" r="8" fill="url(#xNhbNAC5tUvvnK~xzBqLQh)"/><linearGradient id="xNhbNAC5tUvvnK~xzBqLQi" x1="33.778" x2="42.196" y1="33.778" y2="42.196" gradientUnits="userSpaceOnUse"><stop offset="0" stop-color="#f44f5a"/><stop offset=".443" stop-color="#ee3d4a"/><stop offset="1" stop-color="#e52030"/></linearGradient><circle cx="38" cy="38" r="6" fill="url(#xNhbNAC5tUvvnK~xzBqLQi)"/><linearGradient id="xNhbNAC5tUvvnK~xzBqLQj" x1="35.185" x2="40.797" y1="35.185" y2="40.797" gradientUnits="userSpaceOnUse"><stop offset="0" stop-color="#fafafb"/><stop offset="1" stop-color="#c8cdd1"/></linearGradient><circle cx="38" cy="38" r="4" fill="url(#xNhbNAC5tUvvnK~xzBqLQj)"/><linearGradient id="xNhbNAC5tUvvnK~xzBqLQk" x1="36.593" x2="39.399" y1="36.593" y2="39.399" gradientUnits="userSpaceOnUse"><stop offset="0" stop-color="#f44f5a"/><stop offset=".443" stop-color="#ee3d4a"/><stop offset="1" stop-color="#e52030"/></linearGradient><circle cx="38" cy="38" r="2" fill="url(#xNhbNAC5tUvvnK~xzBqLQk)"/><path fill="#edbe00" d="M39,38c-0.256,0-0.512-0.098-0.707-0.293c-0.391-0.391-0.391-1.023,0-1.414l7-7	c0.391-0.391,1.023-0.391,1.414,0s0.391,1.023,0,1.414l-7,7C39.512,37.902,39.256,38,39,38z"/></svg>