<svg xmlns="http://www.w3.org/2000/svg" viewBox="0 0 48 48"><linearGradient id="1C4jnjHloRAo2bRSv65Ywa" x1="9.858" x2="38.142" y1="9.858" y2="38.142" gradientUnits="userSpaceOnUse"><stop offset="0" stop-color="#889097"/><stop offset="1" stop-color="#64717c"/></linearGradient><circle cx="24" cy="24" r="20" fill="url(#1C4jnjHloRAo2bRSv65Ywa)"/><radialGradient id="1C4jnjHloRAo2bRSv65Ywb" cx="24" cy="24" r="19" gradientUnits="userSpaceOnUse"><stop offset="0"/><stop offset="1" stop-opacity="0"/></radialGradient><circle cx="24" cy="24" r="19" fill="url(#1C4jnjHloRAo2bRSv65Ywb)"/><radialGradient id="1C4jnjHloRAo2bRSv65Ywc" cx="23.89" cy="7.394" r="37.883" gradientUnits="userSpaceOnUse"><stop offset="0" stop-color="#fafafb"/><stop offset="1" stop-color="#c8cdd1"/></radialGradient><circle cx="24" cy="24" r="17" fill="url(#1C4jnjHloRAo2bRSv65Ywc)"/><linearGradient id="1C4jnjHloRAo2bRSv65Ywd" x1="24" x2="24" y1="11.361" y2="37.583" gradientUnits="userSpaceOnUse"><stop offset="0" stop-color="#6d7479"/><stop offset=".32" stop-color="#565b60"/><stop offset=".752" stop-color="#3c3f43"/><stop offset="1" stop-color="#323538"/></linearGradient><path fill="url(#1C4jnjHloRAo2bRSv65Ywd)" d="M30.626,28.314c0-6.489-9.58-5.222-9.58-9.056c0-2.002,2.25-2.107,2.954-2.107	c1.691,0,3.323,0.454,4.567,1.037c0.392,0.185,0.843-0.087,0.843-0.52v-1.889c0-0.633-0.238-1.009-0.619-1.157	c-0.853-0.332-2.079-0.574-3.89-0.634v-2.078c0-0.249-0.202-0.451-0.451-0.451h-0.902c-0.249,0-0.451,0.202-0.451,0.451v2.112	c-2.81,0.275-5.724,1.86-5.724,5.551c0,6.727,9.58,5.393,9.58,8.935c0,1.114-0.711,2.073-2.954,2.073	c-2.254,0-4.326-0.786-5.472-1.373c-0.386-0.197-0.84,0.088-0.84,0.521v2.15c0,0.412,0.248,0.779,0.628,0.94	c1.358,0.577,3.18,1.014,4.783,1.142v2.297c0,0.249,0.202,0.451,0.451,0.451h0.902c0.249,0,0.451-0.202,0.451-0.451v-2.291	C29.107,33.613,30.626,30.799,30.626,28.314z"/></svg>