<svg xmlns="http://www.w3.org/2000/svg" viewBox="0 0 48 48"><linearGradient id="DV62HSDVbJ7Syrsw~BZqma" x1="21" x2="21" y1="23.977" y2="16.977" gradientTransform="matrix(1 0 0 -1 0 50)" gradientUnits="userSpaceOnUse"><stop offset=".519" stop-color="#c1c6c9"/><stop offset=".613" stop-color="#c9cdcf"/><stop offset=".69" stop-color="#d8dadc"/><stop offset=".841" stop-color="#e1e2e4"/><stop offset="1" stop-color="#e4e4e6"/></linearGradient><path fill="url(#DV62HSDVbJ7Syrsw~BZqma)" d="M21,46L21,46c-7.18,0-13-5.82-13-13v-7.118h26V33C34,40.18,28.18,46,21,46z"/><linearGradient id="DV62HSDVbJ7Syrsw~BZqmb" x1="21" x2="21" y1="7.567" y2="22.237" gradientTransform="matrix(1 0 0 -1 0 50)" gradientUnits="userSpaceOnUse"><stop offset="0" stop-color="#4b4b4b"/><stop offset=".793" stop-color="#393939"/><stop offset=".806" stop-color="#373737"/><stop offset=".908" stop-color="#2a2a2a"/><stop offset="1" stop-color="#252525"/></linearGradient><path fill="url(#DV62HSDVbJ7Syrsw~BZqmb)" d="M21,44c-6.065,0-11-4.935-11-11v-5.117h22V33C32,39.065,27.065,44,21,44z"/><radialGradient id="DV62HSDVbJ7Syrsw~BZqmc" cx="-1131.793" cy="1363.182" r="9.765" fx="-1131.799" fy="1361.363" gradientTransform="matrix(-1 -.0053 -.004 .7576 -1105.114 -1021.997)" gradientUnits="userSpaceOnUse"><stop offset=".703" stop-color="#c1c6c9"/><stop offset=".797" stop-color="#c9cdcf"/><stop offset=".886" stop-color="#d8dadc"/><stop offset=".948" stop-color="#e1e2e4"/><stop offset="1" stop-color="#e4e4e6"/></radialGradient><path fill="url(#DV62HSDVbJ7Syrsw~BZqmc)" d="M40.254,5.77c-1.853-0.5-7.471-1.65-20.226-1.761C18.915,3.999,18,4.897,18,6.01V14h6v-2.253	c0-1.389,1.381-2.369,2.682-1.884c3.989,1.49,8.716,4.065,12.742,6.959C40.084,17.297,41,16.824,41,16.01V6.737	C41,6.282,40.694,5.888,40.254,5.77z"/><circle cx="36.5" cy="9.5" r="1.5" fill="#ccc"/><circle cx="21" cy="36.5" r="6.5" opacity=".05"/><circle cx="21" cy="36.5" r="6" opacity=".07"/><linearGradient id="DV62HSDVbJ7Syrsw~BZqmd" x1="19.483" x2="23.952" y1="16.352" y2="7.948" gradientTransform="matrix(1 0 0 -1 0 50)" gradientUnits="userSpaceOnUse"><stop offset="0" stop-color="#32bdef"/><stop offset="1" stop-color="#1ea2e4"/></linearGradient><circle cx="21" cy="36.5" r="5.5" fill="url(#DV62HSDVbJ7Syrsw~BZqmd)"/><radialGradient id="DV62HSDVbJ7Syrsw~BZqme" cx="17.974" cy="17.578" r="8.956" gradientTransform="matrix(1 0 0 -1 0 50)" gradientUnits="userSpaceOnUse"><stop offset="0" stop-color="#4b4b4b"/><stop offset=".531" stop-color="#393939"/><stop offset="1" stop-color="#252525"/></radialGradient><circle cx="21" cy="36.5" r="3.5" fill="url(#DV62HSDVbJ7Syrsw~BZqme)"/><linearGradient id="DV62HSDVbJ7Syrsw~BZqmf" x1="21" x2="21" y1="37.306" y2="12.052" gradientTransform="matrix(1 0 0 -1 0 50)" gradientUnits="userSpaceOnUse"><stop offset=".55" stop-color="#e4e4e6"/><stop offset=".73" stop-color="#e1e2e4"/><stop offset=".854" stop-color="#d8dadc"/><stop offset=".961" stop-color="#c9cdcf"/><stop offset="1" stop-color="#c1c6c9"/></linearGradient><path fill="url(#DV62HSDVbJ7Syrsw~BZqmf)" d="M34,29H8c-0.552,0-1-0.448-1-1v-4.192c0-1.809,0.451-3.603,1.395-5.224	c0.025-0.042,0.05-0.085,0.075-0.127C10.838,14.459,15.739,12,21,12l0,0c5.261,0,10.162,2.459,12.53,6.457	c0.025,0.043,0.05,0.085,0.075,0.127C34.549,20.205,35,21.999,35,23.808V28C35,28.552,34.552,29,34,29z"/><circle cx="18.5" cy="34.5" r="1.5" fill="#fff"/></svg>