<svg xmlns="http://www.w3.org/2000/svg" viewBox="0 0 48 48"><linearGradient id="59HpbJ6OS0OCjrPAC9j9ea" x1="10.303" x2="44.516" y1="6.49" y2="43.171" gradientUnits="userSpaceOnUse"><stop offset="0" stop-color="#fede00"/><stop offset=".519" stop-color="#fecc00"/><stop offset="1" stop-color="#ffb700"/></linearGradient><path fill="url(#59HpbJ6OS0OCjrPAC9j9ea)" d="M23.775,3.938c15.983,11.323,17.032,23.859,11.414,29.297	c-4.364,4.224-12.664,3.341-21.242-1.62L12.461,33.1c0.617,0.849,1.291,1.673,2.062,2.443c7.276,7.276,18.466,7.882,24.995,1.354	s6.234-18.044-1.354-24.995C32.615,6.82,26.628,4.885,23.775,3.938z"/><linearGradient id="59HpbJ6OS0OCjrPAC9j9eb" x1="8.441" x2="42.654" y1="8.226" y2="44.907" gradientUnits="userSpaceOnUse"><stop offset="0" stop-color="#fede00"/><stop offset=".519" stop-color="#fecc00"/><stop offset="1" stop-color="#ffb700"/></linearGradient><path fill="url(#59HpbJ6OS0OCjrPAC9j9eb)" d="M27.238,13.629l-14.02,14.02l-6.26-6.26	l9.777-9.777c3.314,0,5.172,0,8.485,0L27.238,13.629z"/><path d="M39.518,36.898c0.51-0.51,0.963-1.059,1.389-1.625l-4.194-3.962	c-0.431,0.711-0.939,1.358-1.523,1.924c-1.456,1.409-3.356,2.238-5.552,2.548l4.371,4.627C36.039,39.66,37.919,38.496,39.518,36.898	z" opacity=".05"/><path d="M34.5,40.203c1.841-0.752,3.551-1.839,5.018-3.306c0.389-0.389,0.75-0.797,1.09-1.22l-4.17-3.939	c-0.369,0.543-0.783,1.046-1.248,1.496c-1.322,1.28-3.01,2.084-4.953,2.455L34.5,40.203z" opacity=".07"/><linearGradient id="59HpbJ6OS0OCjrPAC9j9ec" x1="9.207" x2="43.42" y1="7.512" y2="44.193" gradientUnits="userSpaceOnUse"><stop offset="0" stop-color="#fede00"/><stop offset=".519" stop-color="#fecc00"/><stop offset="1" stop-color="#ffb700"/></linearGradient><path fill="url(#59HpbJ6OS0OCjrPAC9j9ec)" d="M42.614,43.024L42.614,43.024	c-1.349,1.349-3.548,1.309-4.847-0.088L17.675,21.661l3.576-3.576l21.275,20.093C43.923,39.476,43.963,41.675,42.614,43.024z"/><linearGradient id="59HpbJ6OS0OCjrPAC9j9ed" x1="-4.697" x2="29.515" y1="20.481" y2="57.161" gradientUnits="userSpaceOnUse"><stop offset="0" stop-color="#fede00"/><stop offset=".519" stop-color="#fecc00"/><stop offset="1" stop-color="#ffb700"/></linearGradient><polygon fill="url(#59HpbJ6OS0OCjrPAC9j9ed)" points="16.252,34.005 7.709,42.548 5.361,40.201 13.904,31.658"/><linearGradient id="59HpbJ6OS0OCjrPAC9j9ee" x1="-7.495" x2="26.717" y1="23.09" y2="59.771" gradientUnits="userSpaceOnUse"><stop offset="0" stop-color="#fede00"/><stop offset=".519" stop-color="#fecc00"/><stop offset="1" stop-color="#ffb700"/></linearGradient><path fill="url(#59HpbJ6OS0OCjrPAC9j9ee)" d="M11.814,36.095	c1.141,1.141,0.402,3.729-1.65,5.781c-2.052,2.052-4.64,2.79-5.781,1.65s-0.402-3.729,1.65-5.781	C8.085,35.693,10.674,34.954,11.814,36.095z"/><linearGradient id="59HpbJ6OS0OCjrPAC9j9ef" x1="-3.837" x2="30.376" y1="19.678" y2="56.359" gradientUnits="userSpaceOnUse"><stop offset="0" stop-color="#fede00"/><stop offset=".519" stop-color="#fecc00"/><stop offset="1" stop-color="#ffb700"/></linearGradient><path fill="url(#59HpbJ6OS0OCjrPAC9j9ef)" d="M13.712,38.343	c-0.703,0.703-2.202,0.346-3.346-0.799c-1.145-1.145-1.503-2.643-0.799-3.346c0.703-0.703,2.202-0.346,3.346,0.799	C14.057,36.142,14.415,37.64,13.712,38.343z"/></svg>