<svg xmlns="http://www.w3.org/2000/svg" xmlns:xlink="http://www.w3.org/1999/xlink" data-name="Слой 1" viewBox="0 0 48 48"><defs><linearGradient id="bsKRXLKHrnJ57spMEXOVRa" x1="24" x2="24" y1=".924" y2="19.344" data-name="Безымянный градиент 100" gradientUnits="userSpaceOnUse"><stop offset="0" stop-color="#21ad64"/><stop offset="1" stop-color="#088242"/></linearGradient><linearGradient id="bsKRXLKHrnJ57spMEXOVRb" x1="24" x2="24" y1="10.891" y2="37.68" data-name="Безымянный градиент 107" gradientUnits="userSpaceOnUse"><stop offset="0" stop-color="#eba600"/><stop offset="1" stop-color="#c28200"/></linearGradient><linearGradient id="bsKRXLKHrnJ57spMEXOVRc" x1="18.143" x2="29.679" y1="21.158" y2="52.853" data-name="Безымянный градиент 19" gradientUnits="userSpaceOnUse"><stop offset="0" stop-color="#ffcf54"/><stop offset=".261" stop-color="#fdcb4d"/><stop offset=".639" stop-color="#f7c13a"/><stop offset="1" stop-color="#f0b421"/></linearGradient><linearGradient id="bsKRXLKHrnJ57spMEXOVRd" x1="24" x2="24" y1="10.196" y2="38.03" xlink:href="#bsKRXLKHrnJ57spMEXOVRa"/></defs><path fill="url(#bsKRXLKHrnJ57spMEXOVRa)" d="M17,11l7,1,7-1L24.84366,1.46138a1,1,0,0,0-1.68732,0Z"/><path fill="url(#bsKRXLKHrnJ57spMEXOVRb)" d="M17,11V27H31V11Zm6,14H19V15a2,2,0,0,1,4,0Zm6,0H25V15a2,2,0,0,1,4,0Z"/><polygon fill="url(#bsKRXLKHrnJ57spMEXOVRc)" points="37 30.5 24 22 11 30.5 11 44 37 44 37 30.5"/><path fill="url(#bsKRXLKHrnJ57spMEXOVRd)" d="M37.074,31.62645,24,23.14746l-13.074,8.479a.5.5,0,0,1-.68092-.19067l-.49023-.87158a.5.5,0,0,1,.19066-.68091l13.56419-8.755a1,1,0,0,1,.98054,0l13.56419,8.755a.5.5,0,0,1,.19066.68091l-.49023.87158A.5.5,0,0,1,37.074,31.62645Z"/><path fill="#c28200" d="M24,32h0a4,4,0,0,1,4,4v8a0,0,0,0,1,0,0H20a0,0,0,0,1,0,0V36a4,4,0,0,1,4-4Z"/><path d="M24,23.15,11,31.59v1.06a1.49957,1.49957,0,0,0,.42-.15L24,24.29,36.58,32.5a1.49957,1.49957,0,0,0,.42.15V31.59Z" opacity=".05"/><path d="M24,23.15,11,31.59v.54a.50972.50972,0,0,0,.17-.07L24,23.72l12.83,8.34a.50972.50972,0,0,0,.17.07v-.54Z" opacity=".07"/></svg>