<svg xmlns="http://www.w3.org/2000/svg" viewBox="0 0 48 48"><linearGradient id="HqbYY9zclGgJ2xSY2tSKJa" x1="1.835" x2="40.345" y1="6.846" y2="45.357" gradientUnits="userSpaceOnUse"><stop offset="0" stop-color="#0077d2"/><stop offset="1" stop-color="#0b59a2"/></linearGradient><path fill="url(#HqbYY9zclGgJ2xSY2tSKJa)" d="M40,43H8c-1.105,0-2-0.895-2-2V17.023c0-0.642,0.308-1.245,0.829-1.621l16-11.556	c0.699-0.505,1.643-0.505,2.342,0l16,11.556C41.692,15.777,42,16.38,42,17.023V41C42,42.105,41.105,43,40,43z"/><path d="M12.94,23C11.87,23,11,22.112,11,21.02v-2.04c0-1.092,0.87-1.98,1.94-1.98H35.06	c1.07,0,1.94,0.888,1.94,1.98v2.04c0,1.092-0.87,1.98-1.94,1.98H12.94z" opacity=".05"/><path d="M12.94,22.5c-0.794,0-1.44-0.664-1.44-1.48v-2.04c0-0.816,0.646-1.48,1.44-1.48H35.06	c0.794,0,1.44,0.664,1.44,1.48v2.04c0,0.816-0.646,1.48-1.44,1.48H12.94z" opacity=".07"/><path fill="#fff" d="M35.059,22H12.941C12.423,22,12,21.559,12,21.02v-2.04c0-0.539,0.423-0.98,0.941-0.98h22.118	C35.577,18,36,18.441,36,18.98v2.04C36,21.559,35.577,22,35.059,22z"/><path d="M12.94,31C11.87,31,11,30.112,11,29.02v-2.04c0-1.092,0.87-1.98,1.94-1.98H35.06	c1.07,0,1.94,0.888,1.94,1.98v2.04c0,1.092-0.87,1.98-1.94,1.98H12.94z" opacity=".05"/><path d="M12.94,30.5c-0.794,0-1.44-0.664-1.44-1.48v-2.04c0-0.816,0.646-1.48,1.44-1.48H35.06	c0.794,0,1.44,0.664,1.44,1.48v2.04c0,0.816-0.646,1.48-1.44,1.48H12.94z" opacity=".07"/><path fill="#fff" d="M35.059,30H12.941C12.423,30,12,29.559,12,29.02v-2.04c0-0.539,0.423-0.98,0.941-0.98h22.118	C35.577,26,36,26.441,36,26.98v2.04C36,29.559,35.577,30,35.059,30z"/><path d="M12.94,39C11.87,39,11,38.112,11,37.02v-2.04c0-1.092,0.87-1.98,1.94-1.98H35.06	c1.07,0,1.94,0.888,1.94,1.98v2.04c0,1.092-0.87,1.98-1.94,1.98H12.94z" opacity=".05"/><path d="M12.94,38.5c-0.794,0-1.44-0.664-1.44-1.48v-2.04c0-0.816,0.646-1.48,1.44-1.48H35.06	c0.794,0,1.44,0.664,1.44,1.48v2.04c0,0.816-0.646,1.48-1.44,1.48H12.94z" opacity=".07"/><path fill="#fff" d="M35.059,38H12.941C12.423,38,12,37.559,12,37.02v-2.04c0-0.539,0.423-0.98,0.941-0.98h22.118	C35.577,34,36,34.441,36,34.98v2.04C36,37.559,35.577,38,35.059,38z"/></svg>