<svg xmlns="http://www.w3.org/2000/svg" id="Layer_1" x="0" y="0" version="1.1" viewBox="0 0 48 48" xml:space="preserve"><linearGradient id="SVGID_1_" x1="39.003" x2="33.13" y1="21.793" y2="12.303" gradientUnits="userSpaceOnUse"><stop offset="0" stop-color="#f44f5a"/><stop offset=".443" stop-color="#ee3d4a"/><stop offset="1" stop-color="#e52030"/></linearGradient><path fill="url(#SVGID_1_)" d="M32.4,10.8c2.4-0.1,4.8,1.1,6.1,3.4c1.3,2.3,1.1,4.9-0.2,7c-2.4,0.1-4.8-1.1-6.1-3.4	C30.9,15.5,31.1,12.8,32.4,10.8z"/><linearGradient id="SVGID_2_" x1="27.022" x2="29.83" y1="21.52" y2="12.754" gradientUnits="userSpaceOnUse"><stop offset="0" stop-color="#f44f5a"/><stop offset=".443" stop-color="#ee3d4a"/><stop offset="1" stop-color="#e52030"/></linearGradient><path fill="url(#SVGID_2_)" d="M31.8,10.8c-2.4-0.1-4.8,1.1-6.1,3.4c-1.3,2.3-1.1,4.9,0.2,7c2.4,0.1,4.8-1.1,6.1-3.4	C33.2,15.5,33.1,12.8,31.8,10.8z"/><linearGradient id="SVGID_3_" x1="32" x2="32" y1="-2.106" y2="10.149" gradientUnits="userSpaceOnUse"><stop offset="0" stop-color="#f44f5a"/><stop offset=".443" stop-color="#ee3d4a"/><stop offset="1" stop-color="#e52030"/></linearGradient><ellipse cx="32" cy="6" fill="url(#SVGID_3_)" rx="3.6" ry="6"/><path d="M35.6,6.1c-1.4,0.5-2.7,1.4-3.5,2.5c-0.9-1.1-2.3-2-3.7-2.5c0,2.2,1.1,4.2,2.8,5.4c0,0,0,0,0,0c0,0,0,0,0,0	c0.3,0.2,0.5,0.4,0.8,0.5c0.3-0.2,0.7-0.4,1-0.6c0,0,0,0,0,0c0,0,0,0,0,0C34.6,10.1,35.6,8.2,35.6,6.1z" opacity=".05"/><path fill="#21a366" d="M5,22.3c1.4,3.9,9.8,14.6,13,9.7C22,26,7.9,21.5,5,22.3z"/><path fill="#33c481" d="M18,33c-0.6,0-1-0.4-1-1v-8c0-5.2,2-9.9,5.4-12.8c0.4-0.4,1.1-0.3,1.4,0.1c0.4,0.4,0.3,1.1-0.1,1.4	c-3,2.5-4.6,6.6-4.6,11.3v8C19,32.6,18.6,33,18,33z"/><linearGradient id="SVGID_4_" x1="8.628" x2="27.372" y1="-603.372" y2="-603.372" gradientTransform="matrix(1 0 0 -1 0 -562)" gradientUnits="userSpaceOnUse"><stop offset="0" stop-color="#b9360c"/><stop offset=".537" stop-color="#b5350c"/><stop offset=".999" stop-color="#ab320b"/></linearGradient><path fill="url(#SVGID_4_)" d="M24.1,48H10.9c-0.9,0-0.6-0.7-0.8-1.5L8.6,34.7h18.7l-1.6,11.7C25.7,47.3,24.9,48,24.1,48z"/><path fill="#d43a02" d="M7.7,34.7v-1.8c0-0.5,0.4-0.9,0.9-0.9h18.7c0.5,0,0.9,0.4,0.9,0.9v1.8c0,0.5-0.4,0.9-0.9,0.9H8.6	C8.1,35.5,7.7,35.1,7.7,34.7z"/><path d="M38.5,14.1c-1.3-2.3-3.7-3.5-6.1-3.4c-0.1,0.2-0.2,0.4-0.3,0.6c-0.1-0.2-0.2-0.4-0.3-0.6	c-2.4-0.1-4.8,1.1-6.1,3.4c-0.4,0.7-0.7,1.5-0.8,2.3c0.2,0,0.4,0,0.6,0c2.2,0,5.1-1.2,6.6-3.1c1.5,1.9,4.4,3.1,6.6,3.1	c0.2,0,0.4,0,0.7,0C39.2,15.6,38.9,14.9,38.5,14.1z" opacity=".05"/><path d="M32.1,9.4c-0.7-1.2-2.1-2.3-3.7-2.9c0.2,2.3,1.6,4.3,3.6,5.4c2-1,3.4-3,3.6-5.3C34.1,7.2,32.7,8.2,32.1,9.4z" opacity=".07"/><path d="M38.5,14.1c-1.3-2.3-3.7-3.5-6.1-3.4c-0.1,0.2-0.2,0.4-0.3,0.6c-0.1-0.2-0.2-0.4-0.3-0.6	c-2.4-0.1-4.8,1.1-6.1,3.4c-0.3,0.6-0.6,1.1-0.7,1.7c0.2,0,0.4,0.1,0.5,0.1c2.2,0,5.4-1.4,6.6-3.5c1.1,2.1,4.3,3.5,6.6,3.5	c0.2,0,0.4,0,0.6-0.1C39.1,15.3,38.9,14.7,38.5,14.1z" opacity=".07"/><linearGradient id="SVGID_5_" x1="45.851" x2="32.532" y1="10.942" y2="10.942" gradientUnits="userSpaceOnUse"><stop offset="0" stop-color="#f44f5a"/><stop offset=".443" stop-color="#ee3d4a"/><stop offset="1" stop-color="#e52030"/></linearGradient><path fill="url(#SVGID_5_)" d="M43.1,10.9c0,2.5-2,4.5-4.5,4.5c-2.5,0-6.5-2-6.5-4.5s4-4.5,6.5-4.5C41.1,6.4,43.1,8.5,43.1,10.9z"/><linearGradient id="SVGID_6_" x1="20.617" x2="33.128" y1="10.942" y2="10.942" gradientUnits="userSpaceOnUse"><stop offset="0" stop-color="#f44f5a"/><stop offset=".443" stop-color="#ee3d4a"/><stop offset="1" stop-color="#e52030"/></linearGradient><path fill="url(#SVGID_6_)" d="M21,10.9c0,2.5,2,4.5,4.5,4.5s6.5-2,6.5-4.5s-4-4.5-6.5-4.5S21,8.5,21,10.9z"/><circle cx="32" cy="11" r="2" fill="#b31523"/></svg>