<svg xmlns="http://www.w3.org/2000/svg" viewBox="0 0 48 48"><linearGradient id="2YXN09wo3FdqPYXlEPPv1a" x1="15.941" x2="35.261" y1="-12.617" y2="-42.37" gradientTransform="matrix(1 0 0 -1 0 -8)" gradientUnits="userSpaceOnUse"><stop offset="0" stop-color="#f44f5a"/><stop offset=".443" stop-color="#ee3d4a"/><stop offset="1" stop-color="#e52030"/></linearGradient><path fill="url(#2YXN09wo3FdqPYXlEPPv1a)" d="M24,12.25c0,0,4.701-5.25,10.5-5.25S45,11.765,45,17.5c0,3.555-3.501,6.999-3.501,6.999	l-15.728,15.73c-0.978,0.978-2.565,0.978-3.543,0L6.501,24.499c0,0-3.501-3.446-3.501-6.999C3,11.765,7.701,7,13.5,7	S24,12.25,24,12.25z"/><path fill="#fff" d="M25,16h5c0.552,0,1,0.448,1,1v2c0,0.552-0.448,1-1,1h-5V16z"/><circle cx="22" cy="29" r="4" fill="#fff"/><path fill="#fff" d="M24,16h2v13h-3V17C23,16.448,23.448,16,24,16z"/><path d="M30,16c0.552,0,1,0.448,1,1v2c0,0.552-0.448,1-1,1h-4v9c0,2.209-1.791,4-4,4s-4-1.791-4-4c0-2.209,1.791-4,4-4 c0.347,0,0.679,0.058,1,0.141V17c0-0.552,0.448-1,1-1h1h1H30 M30,15h-4h-1h-1c-1.103,0-2,0.897-2,2v7c-2.757,0-5,2.243-5,5 s2.243,5,5,5s5-2.243,5-5v-8h3c1.103,0,2-0.897,2-2v-2C32,15.897,31.103,15,30,15L30,15z" opacity=".05"/><path d="M30,16c0.552,0,1,0.448,1,1v2c0,0.552-0.448,1-1,1h-4v9c0,2.209-1.791,4-4,4s-4-1.791-4-4c0-2.209,1.791-4,4-4 c0.347,0,0.679,0.058,1,0.141V17c0-0.552,0.448-1,1-1h1h1H30 M30,15.5h-4h-1h-1c-0.827,0-1.5,0.673-1.5,1.5v7.533 C22.329,24.511,22.164,24.5,22,24.5c-2.481,0-4.5,2.019-4.5,4.5s2.019,4.5,4.5,4.5s4.5-2.019,4.5-4.5v-8.5H30 c0.827,0,1.5-0.673,1.5-1.5v-2C31.5,16.173,30.827,15.5,30,15.5L30,15.5z" opacity=".07"/></svg>