<svg xmlns="http://www.w3.org/2000/svg" viewBox="0 0 48 48"><linearGradient id="sAt4sabVQ65hXw_rPayKua" x1="42.213" x2="16.119" y1="17.574" y2="7.216" gradientUnits="userSpaceOnUse"><stop offset="0" stop-color="#3079d6"/><stop offset="1" stop-color="#297cd2"/></linearGradient><path fill="url(#sAt4sabVQ65hXw_rPayKua)" d="M44,10v8H19V8h23C43.1,8,44,8.9,44,10z"/><path fill="#35c1f1" d="M38.161,15c-0.718,0-1.38-0.385-1.736-1.008l-2.848-4.985C33.22,8.385,32.557,8,31.839,8H20v7H38.161	z"/><path fill="#50e6ff" d="M24.424,13.992l-2.848-4.985C21.22,8.385,20.557,8,19.839,8H6c-1.105,0-2,0.895-2,2v28	c0,1.1,0.9,2,2,2h36c1.1,0,2-0.9,2-2V17c0-1.105-0.895-2-2-2H26.161C25.443,15,24.78,14.615,24.424,13.992z"/><radialGradient id="sAt4sabVQ65hXw_rPayKub" cx="37.681" cy="37.723" r="11.989" gradientUnits="userSpaceOnUse"><stop offset="0"/><stop offset=".979" stop-opacity="0"/></radialGradient><path fill="url(#sAt4sabVQ65hXw_rPayKub)" d="M38,26c-6.617,0-12,5.383-12,12c0,0.681,0.058,1.349,0.168,2H42c1.1,0,2-0.9,2-2V27.611	C42.234,26.587,40.184,26,38,26z"/><linearGradient id="sAt4sabVQ65hXw_rPayKuc" x1="28" x2="48" y1="-32" y2="-32" gradientTransform="translate(0 70)" gradientUnits="userSpaceOnUse"><stop offset="0" stop-color="#f44f5a"/><stop offset=".443" stop-color="#ee3d4a"/><stop offset="1" stop-color="#e52030"/></linearGradient><circle cx="38" cy="38" r="10" fill="url(#sAt4sabVQ65hXw_rPayKuc)"/><path fill="#fff" d="M41.536,33.757l0.707,0.707c0.195,0.195,0.195,0.512,0,0.707l-7.071,7.071	c-0.195,0.195-0.512,0.195-0.707,0l-0.707-0.707c-0.195-0.195-0.195-0.512,0-0.707l7.071-7.071	C41.024,33.562,41.34,33.562,41.536,33.757z"/><path fill="#fff" d="M42.243,41.536l-0.707,0.707c-0.195,0.195-0.512,0.195-0.707,0l-7.071-7.071	c-0.195-0.195-0.195-0.512,0-0.707l0.707-0.707c0.195-0.195,0.512-0.195,0.707,0l7.071,7.071	C42.438,41.024,42.438,41.34,42.243,41.536z"/></svg>