<svg xmlns="http://www.w3.org/2000/svg" viewBox="0 0 48 48"><linearGradient id="neWh_vRuogN2YpsZ_Gur0a" x1=".337" x2="58.343" y1=".337" y2="58.343" gradientUnits="userSpaceOnUse"><stop offset="0" stop-color="#889097"/><stop offset="1" stop-color="#4c5963"/></linearGradient><path fill="url(#neWh_vRuogN2YpsZ_Gur0a)" d="M42,39H6c-1.105,0-2-0.895-2-2V11c0-1.105,0.895-2,2-2h36c1.105,0,2,0.895,2,2v26	C44,38.105,43.105,39,42,39z"/><linearGradient id="neWh_vRuogN2YpsZ_Gur0b" x1="13" x2="13" y1="-4.391" y2="24.676" gradientUnits="userSpaceOnUse"><stop offset="0" stop-color="#f44f5a"/><stop offset=".443" stop-color="#ee3d4a"/><stop offset="1" stop-color="#e52030"/></linearGradient><path fill="url(#neWh_vRuogN2YpsZ_Gur0b)" d="M6,11h14v14H6V11z"/><linearGradient id="neWh_vRuogN2YpsZ_Gur0c" x1="25" x2="25" y1="-2.826" y2="34.377" gradientUnits="userSpaceOnUse"><stop offset="0" stop-color="#ffd869"/><stop offset="1" stop-color="#fec52b"/></linearGradient><path fill="url(#neWh_vRuogN2YpsZ_Gur0c)" d="M21,11h8v7h-8V11z"/><linearGradient id="neWh_vRuogN2YpsZ_Gur0d" x1="25" x2="25" y1="13.902" y2="43.007" gradientUnits="userSpaceOnUse"><stop offset=".002" stop-color="#427fdb"/><stop offset=".397" stop-color="#2668cb"/><stop offset=".763" stop-color="#1358bf"/><stop offset="1" stop-color="#0c52bb"/></linearGradient><path fill="url(#neWh_vRuogN2YpsZ_Gur0d)" d="M21,26h8v11h-8V26z"/><linearGradient id="neWh_vRuogN2YpsZ_Gur0e" x1="13" x2="13" y1="7.152" y2="48.479" gradientUnits="userSpaceOnUse"><stop offset="0" stop-color="#f9f9f9"/><stop offset=".26" stop-color="#f0f1f2"/><stop offset=".678" stop-color="#d9dcdf"/><stop offset="1" stop-color="#c2c8cc"/></linearGradient><path fill="url(#neWh_vRuogN2YpsZ_Gur0e)" d="M6,26h14v11H6V26z"/><linearGradient id="neWh_vRuogN2YpsZ_Gur0f" x1="25" x2="25" y1="7.152" y2="48.479" gradientUnits="userSpaceOnUse"><stop offset="0" stop-color="#f9f9f9"/><stop offset=".26" stop-color="#f0f1f2"/><stop offset=".678" stop-color="#d9dcdf"/><stop offset="1" stop-color="#c2c8cc"/></linearGradient><path fill="url(#neWh_vRuogN2YpsZ_Gur0f)" d="M21,19h8v6h-8V19z"/><linearGradient id="neWh_vRuogN2YpsZ_Gur0g" x1="33.5" x2="33.5" y1="7.152" y2="48.479" gradientUnits="userSpaceOnUse"><stop offset="0" stop-color="#f9f9f9"/><stop offset=".26" stop-color="#f0f1f2"/><stop offset=".678" stop-color="#d9dcdf"/><stop offset="1" stop-color="#c2c8cc"/></linearGradient><path fill="url(#neWh_vRuogN2YpsZ_Gur0g)" d="M30,11h7v7h-7V11z"/><linearGradient id="neWh_vRuogN2YpsZ_Gur0h" x1="40" x2="40" y1="7.152" y2="48.479" gradientUnits="userSpaceOnUse"><stop offset="0" stop-color="#f9f9f9"/><stop offset=".26" stop-color="#f0f1f2"/><stop offset=".678" stop-color="#d9dcdf"/><stop offset="1" stop-color="#c2c8cc"/></linearGradient><path fill="url(#neWh_vRuogN2YpsZ_Gur0h)" d="M38,16h4v7h-4V16z"/><linearGradient id="neWh_vRuogN2YpsZ_Gur0i" x1="40" x2="40" y1="-4.391" y2="24.676" gradientUnits="userSpaceOnUse"><stop offset="0" stop-color="#f44f5a"/><stop offset=".443" stop-color="#ee3d4a"/><stop offset="1" stop-color="#e52030"/></linearGradient><path fill="url(#neWh_vRuogN2YpsZ_Gur0i)" d="M38,11h4v4h-4V11z"/><linearGradient id="neWh_vRuogN2YpsZ_Gur0j" x1="36" x2="36" y1="-2.826" y2="34.377" gradientUnits="userSpaceOnUse"><stop offset="0" stop-color="#ffd869"/><stop offset="1" stop-color="#fec52b"/></linearGradient><path fill="url(#neWh_vRuogN2YpsZ_Gur0j)" d="M30,24h12v13H30V24z"/><linearGradient id="neWh_vRuogN2YpsZ_Gur0k" x1="33.5" x2="33.5" y1="13.902" y2="43.007" gradientUnits="userSpaceOnUse"><stop offset=".002" stop-color="#427fdb"/><stop offset=".397" stop-color="#2668cb"/><stop offset=".763" stop-color="#1358bf"/><stop offset="1" stop-color="#0c52bb"/></linearGradient><path fill="url(#neWh_vRuogN2YpsZ_Gur0k)" d="M30,19h7v4h-7V19z"/></svg>