<svg xmlns="http://www.w3.org/2000/svg" viewBox="0 0 48 48"><linearGradient id="Y_THGB_5f_tYMM1ftIDvza" x1="16.86" x2="29.576" y1="660.467" y2="620.454" gradientTransform="matrix(1 0 0 -1 0 662)" gradientUnits="userSpaceOnUse"><stop offset="0" stop-color="#c77740"/><stop offset="1" stop-color="#b0622b"/></linearGradient><path fill="url(#Y_THGB_5f_tYMM1ftIDvza)" d="M38,4H26c0,1.105-0.895,2-2,2s-2-0.895-2-2H10C8.895,4,8,4.895,8,6v36c0,1.105,0.895,2,2,2 h28c1.105,0,2-0.895,2-2V6C40,4.895,39.105,4,38,4z"/><linearGradient id="Y_THGB_5f_tYMM1ftIDvzb" x1="24" x2="24" y1="625.034" y2="621.107" gradientTransform="matrix(1 0 0 -1 0 662)" gradientUnits="userSpaceOnUse"><stop offset=".442" stop-color="#878786"/><stop offset=".594" stop-color="#9f9f9e"/><stop offset=".859" stop-color="#c3c3c3"/><stop offset="1" stop-color="#d1d1d1"/></linearGradient><path fill="url(#Y_THGB_5f_tYMM1ftIDvzb)" d="M37,42H11c-0.552,0-1-0.448-1-1v-9h28v9C38,41.552,37.552,42,37,42z"/><path fill="#f3f3f3" d="M37,40H11c-0.552,0-1-0.448-1-1V7c0-0.552,0.448-1,1-1h26c0.552,0,1,0.448,1,1v32 C38,39.552,37.552,40,37,40z"/><linearGradient id="Y_THGB_5f_tYMM1ftIDvzc" x1="-794.93" x2="-793.046" y1="324.928" y2="317.091" gradientTransform="matrix(-1 0 0 1 -770 -315)" gradientUnits="userSpaceOnUse"><stop offset="0" stop-color="#c3cdd9"/><stop offset="1" stop-color="#9fa7b0"/></linearGradient><path fill="url(#Y_THGB_5f_tYMM1ftIDvzc)" d="M31,8V4h-4.184C26.403,2.837,25.304,2,24,2s-2.403,0.837-2.816,2H17v4c0,0.552,0.448,1,1,1 h12C30.552,9,31,8.552,31,8z M24,4c0.552,0,1,0.448,1,1s-0.448,1-1,1s-1-0.448-1-1S23.448,4,24,4z"/><path d="M21,13c-1.65,0-3,1.35-3,3v28h20c1.105,0,2-0.895,2-2V13H21z" opacity=".05"/><path d="M40,13.5V42c0,1.105-0.895,2-2,2H18.5V16c0-1.381,1.119-2.5,2.5-2.5H40z" opacity=".05"/><path fill="#50e6ff" d="M42,46H21c-1.105,0-2-0.895-2-2V16c0-1.105,0.895-2,2-2h21c1.105,0,2,0.895,2,2v28 C44,45.105,43.105,46,42,46z"/><path fill="#057093" d="M38.5,25h-14c-0.276,0-0.5-0.224-0.5-0.5v-1c0-0.276,0.224-0.5,0.5-0.5h14 c0.276,0,0.5,0.224,0.5,0.5v1C39,24.776,38.776,25,38.5,25z"/><path fill="#057093" d="M36.5,29h-12c-0.276,0-0.5-0.224-0.5-0.5v-1c0-0.276,0.224-0.5,0.5-0.5h12 c0.276,0,0.5,0.224,0.5,0.5v1C37,28.776,36.776,29,36.5,29z"/><path fill="#057093" d="M38.5,33h-14c-0.276,0-0.5-0.224-0.5-0.5v-1c0-0.276,0.224-0.5,0.5-0.5h14 c0.276,0,0.5,0.224,0.5,0.5v1C39,32.776,38.776,33,38.5,33z"/><path fill="#057093" d="M36.5,37h-12c-0.276,0-0.5-0.224-0.5-0.5v-1c0-0.276,0.224-0.5,0.5-0.5h12 c0.276,0,0.5,0.224,0.5,0.5v1C37,36.776,36.776,37,36.5,37z"/></svg>