<svg xmlns="http://www.w3.org/2000/svg" viewBox="0 0 48 48"><linearGradient id="iLHjJ~8O50kNRdSLCDooaa" x1="9.858" x2="38.387" y1="-27.858" y2="-56.387" gradientTransform="matrix(1 0 0 -1 0 -18)" gradientUnits="userSpaceOnUse"><stop offset="0" stop-color="#00bffe"/><stop offset="1" stop-color="#1d55c4"/></linearGradient><path fill="url(#iLHjJ~8O50kNRdSLCDooaa)" d="M44,24c0,11.045-8.955,20-20,20S4,35.045,4,24S12.955,4,24,4S44,12.955,44,24z"/><linearGradient id="iLHjJ~8O50kNRdSLCDooab" x1="5.531" x2="26.452" y1="-32.318" y2="-53.24" gradientTransform="matrix(1 0 0 -1 0 -18)" gradientUnits="userSpaceOnUse"><stop offset="0" stop-color="#84e1fe"/><stop offset="1" stop-color="#167cf7"/></linearGradient><path fill="url(#iLHjJ~8O50kNRdSLCDooab)" d="M23.77,34.508c0.23,0.683,0,1.596-0.229,2.055c-0.225,0.684-0.454,1.597-0.913,2.051	c-0.454,0.459-0.913,0.689-1.367,0.917c-0.684,0.454-1.142,1.367-1.826,2.055c0,0.225-0.913,1.386-1.142,1.386	c-0.085,0.045-0.166,0.086-0.248,0.127c-1.348-0.42-2.628-0.988-3.837-1.669c-0.008-0.024-0.017-0.047-0.026-0.072	c0-0.229-0.225-1.6-0.225-1.826c-0.229-0.687-0.459-1.6-0.687-2.284c-0.454-1.142-1.367-2.284-1.367-3.651	c0-1.143,0.225-2.28-0.459-3.197c-0.913-1.142-2.739-1.142-3.652-1.826c-1.372-0.913-2.739-2.28-3.423-3.652	c-0.163-0.27-0.273-0.521-0.363-0.768C4.007,24.101,4,24.052,4,24c0-5.356,2.118-10.21,5.548-13.8	c1.876-1.517,5.535-2.215,7.756-1.545c0.684,0.225,3.145,1.697,3.145,2.381c0,0.229,0,0.229-0.229,0.459	c-0.225,0.229-0.455,0.229-0.684,0.229c-0.684,0-2.839-0.497-3.069-0.727c-1.372-0.458-3.423,2.51-3.651,3.423	c-0.229,0.687-0.229,2.284,0.913,2.513c0.684,0,3.814-2.656,4.273-2.885c1.826-0.225,3.237,1.34,3.696,2.941	c0.684,1.826-3.175,3.591-4.547,4.05c-0.454,0.229-0.683-0.229-1.142,0c-1.138,0.454-1.811,1.474-1.947,2.839	c-0.115,1.155-0.229,2.281-0.454,3.423c-0.229,0-0.698-0.003-0.698-0.232v-0.454c0-0.689-0.229-1.601-0.913-1.83	c-0.229-0.224-0.552,0.136-0.781,0.136c-0.684,0-1.367-0.687-2.051-0.229c-0.459,0.454-0.913,1.142-0.913,1.826	c0,0.23,0,0.459,0.225,0.684c0.459,0.229,0.913-0.225,1.372,0c0.454,0,0.454,0.459,0.454,0.687c0.459,0.684,0.913,1.597,1.6,1.826	h4.564c0.684,0.229,1.826,0.454,2.284,0.913c0.224,0.454,0.224,0.913,0.454,1.367c1.142,1.142,2.509,1.142,3.88,1.6	C23.541,33.824,23.771,34.049,23.77,34.508z"/><radialGradient id="iLHjJ~8O50kNRdSLCDooac" cx="24.755" cy="24" r="15.983" gradientUnits="userSpaceOnUse"><stop offset="0" stop-color="#eba84b"/><stop offset=".472" stop-color="#eaa649"/><stop offset=".667" stop-color="#e89f42"/><stop offset=".81" stop-color="#e49337"/><stop offset=".927" stop-color="#de8126"/><stop offset="1" stop-color="#d97218"/></radialGradient><path fill="url(#iLHjJ~8O50kNRdSLCDooac)" d="M24,7v34c9.388,0,17-7.612,17-17S33.388,7,24,7z"/><radialGradient id="iLHjJ~8O50kNRdSLCDooad" cx="24.138" cy="24.192" r="11.724" gradientTransform="matrix(1 0 0 1.009 0 -.218)" gradientUnits="userSpaceOnUse"><stop offset="0" stop-color="#f44f5a"/><stop offset=".444" stop-color="#f34d58"/><stop offset=".659" stop-color="#f14551"/><stop offset=".826" stop-color="#ed3846"/><stop offset=".966" stop-color="#e72635"/><stop offset="1" stop-color="#e52030"/></radialGradient><path fill="url(#iLHjJ~8O50kNRdSLCDooad)" d="M24,13v22c6.075,0,11-4.925,11-11C35,17.925,30.075,13,24,13z"/><radialGradient id="iLHjJ~8O50kNRdSLCDooae" cx="23.808" cy="24" r="6.048" gradientUnits="userSpaceOnUse"><stop offset="0" stop-color="#fede00"/><stop offset=".338" stop-color="#fed500"/><stop offset=".889" stop-color="#ffbd00"/><stop offset="1" stop-color="#ffb700"/></radialGradient><path fill="url(#iLHjJ~8O50kNRdSLCDooae)" d="M24,18v12c3.313,0,6-2.687,6-6C30,20.686,27.313,18,24,18z"/></svg>