<svg xmlns="http://www.w3.org/2000/svg" viewBox="0 0 48 48"><path fill="#1b9de2" d="M36,9H12v34c0,1.105,0.895,2,2,2h20c1.105,0,2-0.895,2-2V9z"/><path d="M34,45c1.105,0,2-0.895,2-2V30.33l-7.166,0.598C27.789,31.014,27,31.904,27,33v12H34z" opacity=".05"/><path d="M34,45c1.105,0,2-0.895,2-2V30.832l-7.125,0.594C28.104,31.489,27.5,32.146,27.5,33v12H34z" opacity=".07"/><linearGradient id="hn3s_lmV3twcT6eKqQ~Hxa" x1="12" x2="36" y1="6.5" y2="6.5" gradientUnits="userSpaceOnUse"><stop offset="0" stop-color="#464eb0"/><stop offset="1" stop-color="#343b9e"/></linearGradient><path fill="url(#hn3s_lmV3twcT6eKqQ~Hxa)" d="M36,9H12V6c0-1.105,0.895-2,2-2h20c1.105,0,2,0.895,2,2V9z"/><circle cx="20" cy="6.5" r=".75" fill="#6d75cf"/><path fill="#6d75cf" d="M27.5,5.75c-0.194,0-4.806,0-5,0c-0.414,0-0.75,0.336-0.75,0.75s0.336,0.75,0.75,0.75	c0.194,0,4.806,0,5,0c0.414,0,0.75-0.336,0.75-0.75S27.914,5.75,27.5,5.75z"/><path fill="#353c9f" d="M35,14H13l-3,3v1c0,1.105,0.895,2,2,2h24c1.105,0,2-0.895,2-2v-1L35,14z"/><polygon fill="#6d75cf" points="36,9 12,9 10,17 38,17"/><linearGradient id="hn3s_lmV3twcT6eKqQ~Hxb" x1="36.935" x2="37.095" y1="-185.019" y2="-191.835" gradientTransform="matrix(1 0 0 -1 0 -154)" gradientUnits="userSpaceOnUse"><stop offset=".056" stop-color="#d94a23"/><stop offset=".175" stop-color="#cf4621"/><stop offset=".38" stop-color="#b33d1d"/><stop offset=".646" stop-color="#862d16"/><stop offset=".96" stop-color="#48180c"/><stop offset="1" stop-color="#40150b"/></linearGradient><path fill="url(#hn3s_lmV3twcT6eKqQ~Hxb)" d="M46,36H28v-3.08c0-0.52,0.399-0.953,0.917-0.996l16-1.333C45.5,30.542,46,31.002,46,31.587V36	z"/><linearGradient id="hn3s_lmV3twcT6eKqQ~Hxc" x1="35.895" x2="39.507" y1="-184.851" y2="-202.263" gradientTransform="matrix(1 0 0 -1 0 -154)" gradientUnits="userSpaceOnUse"><stop offset="0" stop-color="#fc7d5b"/><stop offset=".142" stop-color="#fa7753"/><stop offset="1" stop-color="#ed5328"/></linearGradient><path fill="url(#hn3s_lmV3twcT6eKqQ~Hxc)" d="M47,48H29c-0.552,0-1-0.447-1-1V33c0,0.552,0.448,1,1,1h18c0.552,0,1,0.448,1,1v12	C48,47.553,47.552,48,47,48z"/><radialGradient id="hn3s_lmV3twcT6eKqQ~Hxd" cx="45" cy="-195" r="1.5" gradientTransform="matrix(1 0 0 -1 0 -154)" gradientUnits="userSpaceOnUse"><stop offset="0"/><stop offset="1" stop-opacity="0"/></radialGradient><circle cx="45" cy="41" r="1.5" fill="url(#hn3s_lmV3twcT6eKqQ~Hxd)" opacity=".3"/><path fill="#fff" d="M45,40c-0.553,0-1,0.448-1,1c0,0.553,0.447,1,1,1c0.552,0,1-0.447,1-1C46,40.448,45.552,40,45,40z"/></svg>