<svg xmlns="http://www.w3.org/2000/svg" viewBox="0 0 48 48"><linearGradient id="s4n9Dqe5tVrQP7i2qdAVva" x1="15.505" x2="31.761" y1="6.063" y2="47.084" gradientUnits="userSpaceOnUse"><stop offset="0" stop-color="#d67526"/><stop offset=".147" stop-color="#c86b1f"/><stop offset=".447" stop-color="#b35b13"/><stop offset=".736" stop-color="#a5510c"/><stop offset="1" stop-color="#a14e0a"/></linearGradient><path fill="url(#s4n9Dqe5tVrQP7i2qdAVva)" d="M30,6c0,10.4,0,17.6,0,28l11,5V16C41,16,35.9,6,30,6L30,6z M18,6C12.1,6,7,16,7,16v23l11-5	C18,23.6,18,16.4,18,6L18,6z"/><linearGradient id="s4n9Dqe5tVrQP7i2qdAVvb" x1="28.959" x2="41.788" y1="-.484" y2="34.495" gradientUnits="userSpaceOnUse"><stop offset="0" stop-color="#ff9d47"/><stop offset="1" stop-color="#cc6c17"/></linearGradient><path fill="url(#s4n9Dqe5tVrQP7i2qdAVvb)" d="M36,23.1l-1-0.4V10.9c0.3,0.4,0.7,0.7,1,1.1V23.1z"/><linearGradient id="s4n9Dqe5tVrQP7i2qdAVvc" x1="30.682" x2="43.511" y1="-1.116" y2="33.863" gradientUnits="userSpaceOnUse"><stop offset="0" stop-color="#ff9d47"/><stop offset="1" stop-color="#cc6c17"/></linearGradient><path fill="url(#s4n9Dqe5tVrQP7i2qdAVvc)" d="M38,24l1,0.4v-8c-0.3-0.5-0.6-1-1-1.7V24z"/><linearGradient id="s4n9Dqe5tVrQP7i2qdAVvd" x1="24.966" x2="37.796" y1=".981" y2="35.959" gradientUnits="userSpaceOnUse"><stop offset="0" stop-color="#ff9d47"/><stop offset="1" stop-color="#cc6c17"/></linearGradient><polygon fill="url(#s4n9Dqe5tVrQP7i2qdAVvd)" points="36,34.5 36,25.3 35,24.9 35,34.1"/><linearGradient id="s4n9Dqe5tVrQP7i2qdAVve" x1="27.01" x2="39.839" y1=".231" y2="35.21" gradientUnits="userSpaceOnUse"><stop offset="0" stop-color="#ff9d47"/><stop offset="1" stop-color="#cc6c17"/></linearGradient><path fill="url(#s4n9Dqe5tVrQP7i2qdAVve)" d="M33,21.8V9.1c-0.3-0.2-0.7-0.4-1-0.6v12.8L33,21.8z"/><linearGradient id="s4n9Dqe5tVrQP7i2qdAVvf" x1="27.174" x2="40.004" y1=".171" y2="35.15" gradientUnits="userSpaceOnUse"><stop offset="0" stop-color="#ff9d47"/><stop offset="1" stop-color="#cc6c17"/></linearGradient><polygon fill="url(#s4n9Dqe5tVrQP7i2qdAVvf)" points="38,26.2 38,35.4 39,35.9 39,26.7"/><linearGradient id="s4n9Dqe5tVrQP7i2qdAVvg" x1="22.742" x2="35.572" y1="1.796" y2="36.775" gradientUnits="userSpaceOnUse"><stop offset="0" stop-color="#ff9d47"/><stop offset="1" stop-color="#cc6c17"/></linearGradient><polygon fill="url(#s4n9Dqe5tVrQP7i2qdAVvg)" points="33,24 32,23.6 32,32.8 33,33.3"/><linearGradient id="s4n9Dqe5tVrQP7i2qdAVvh" x1="8.783" x2="21.613" y1="6.916" y2="41.895" gradientUnits="userSpaceOnUse"><stop offset="0" stop-color="#ff9d47"/><stop offset="1" stop-color="#cc6c17"/></linearGradient><path fill="url(#s4n9Dqe5tVrQP7i2qdAVvh)" d="M12,12.1v11.1l1-0.4V10.9C12.7,11.3,12.3,11.7,12,12.1z"/><linearGradient id="s4n9Dqe5tVrQP7i2qdAVvi" x1="12.042" x2="24.871" y1="5.721" y2="40.7" gradientUnits="userSpaceOnUse"><stop offset="0" stop-color="#ff9d47"/><stop offset="1" stop-color="#cc6c17"/></linearGradient><path fill="url(#s4n9Dqe5tVrQP7i2qdAVvi)" d="M15,21.8l1-0.4V8.5c-0.3,0.2-0.7,0.4-1,0.6V21.8z"/><linearGradient id="s4n9Dqe5tVrQP7i2qdAVvj" x1="4.693" x2="17.523" y1="8.416" y2="43.395" gradientUnits="userSpaceOnUse"><stop offset="0" stop-color="#ff9d47"/><stop offset="1" stop-color="#cc6c17"/></linearGradient><polygon fill="url(#s4n9Dqe5tVrQP7i2qdAVvj)" points="13,34.1 13,24.9 12,25.3 12,34.5"/><linearGradient id="s4n9Dqe5tVrQP7i2qdAVvk" x1="1.629" x2="14.459" y1="9.54" y2="44.519" gradientUnits="userSpaceOnUse"><stop offset="0" stop-color="#ff9d47"/><stop offset="1" stop-color="#cc6c17"/></linearGradient><polygon fill="url(#s4n9Dqe5tVrQP7i2qdAVvk)" points="10,26.2 9,26.6 9,35.8 10,35.3"/><linearGradient id="s4n9Dqe5tVrQP7i2qdAVvl" x1="7.774" x2="20.604" y1="7.286" y2="42.265" gradientUnits="userSpaceOnUse"><stop offset="0" stop-color="#ff9d47"/><stop offset="1" stop-color="#cc6c17"/></linearGradient><polygon fill="url(#s4n9Dqe5tVrQP7i2qdAVvl)" points="15,24 15,33.2 16,32.7 16,23.5"/><linearGradient id="s4n9Dqe5tVrQP7i2qdAVvm" x1="5.298" x2="18.128" y1="8.195" y2="43.173" gradientUnits="userSpaceOnUse"><stop offset="0" stop-color="#ff9d47"/><stop offset="1" stop-color="#cc6c17"/></linearGradient><path fill="url(#s4n9Dqe5tVrQP7i2qdAVvm)" d="M10,24v-9.2c-0.4,0.6-0.7,1.2-1,1.7v8L10,24z"/><linearGradient id="s4n9Dqe5tVrQP7i2qdAVvn" x1="41.53" x2="45.551" y1="14.919" y2="41.153" gradientUnits="userSpaceOnUse"><stop offset="0" stop-color="#a1aab3"/><stop offset="1" stop-color="#8f979e"/></linearGradient><path fill="url(#s4n9Dqe5tVrQP7i2qdAVvn)" d="M46,15h-5v25.5c0,0.276,0.224,0.5,0.5,0.5h4c0.276,0,0.5-0.224,0.5-0.5V15z"/><path fill="#b2bbc7" d="M40,13.8c0,0.7,0.5,1.2,1.2,1.2h4.6c0.7,0,1.2-0.5,1.2-1.2V13h-7V13.8z"/><linearGradient id="s4n9Dqe5tVrQP7i2qdAVvo" x1="40.95" x2="44.779" y1="7.418" y2="12.046" gradientUnits="userSpaceOnUse"><stop offset="0" stop-color="#fede00"/><stop offset=".519" stop-color="#fecc00"/><stop offset="1" stop-color="#ffb700"/></linearGradient><circle cx="43.5" cy="10.5" r="2.5" fill="url(#s4n9Dqe5tVrQP7i2qdAVvo)"/><linearGradient id="s4n9Dqe5tVrQP7i2qdAVvp" x1="2.53" x2="6.551" y1="14.919" y2="41.153" gradientUnits="userSpaceOnUse"><stop offset="0" stop-color="#a1aab3"/><stop offset="1" stop-color="#8f979e"/></linearGradient><path fill="url(#s4n9Dqe5tVrQP7i2qdAVvp)" d="M7,15H2v25.5C2,40.776,2.224,41,2.5,41h4C6.776,41,7,40.776,7,40.5V15z"/><path fill="#b2bbc7" d="M1,13.8C1,14.5,1.5,15,2.2,15h4.6C7.5,15,8,14.5,8,13.8V13H1V13.8z"/><linearGradient id="s4n9Dqe5tVrQP7i2qdAVvq" x1="1.95" x2="5.779" y1="7.418" y2="12.046" gradientUnits="userSpaceOnUse"><stop offset="0" stop-color="#fede00"/><stop offset=".519" stop-color="#fecc00"/><stop offset="1" stop-color="#ffb700"/></linearGradient><circle cx="4.5" cy="10.5" r="2.5" fill="url(#s4n9Dqe5tVrQP7i2qdAVvq)"/></svg>