<svg xmlns="http://www.w3.org/2000/svg" viewBox="0 0 48 48"><linearGradient id="6_lp_DDQtxlVHTcKFTOmua" x1="6.997" x2="40.749" y1="-568.492" y2="-603.247" gradientTransform="matrix(1 0 0 -1 0 -562)" gradientUnits="userSpaceOnUse"><stop offset="0" stop-color="#ffd869"/><stop offset="1" stop-color="#fec52b"/></linearGradient><path fill="url(#6_lp_DDQtxlVHTcKFTOmua)" d="M40,42H8c-1.1,0-2-0.9-2-2V8c0-1.1,0.9-2,2-2h32c1.1,0,2,0.9,2,2v32C42,41.1,41.1,42,40,42z"/><path fill="#fff8e6" d="M19,6h10v5H19V6z"/><rect width="10" height="2" x="10" y="37" fill="#6b5f41"/><polygon fill="#6b5f41" points="20,32 18,30 16,32 17,32 17,35 19,35 19,32"/><polygon fill="#6b5f41" points="14,32 12,30 10,32 11,32 11,35 13,35 13,32"/><radialGradient id="6_lp_DDQtxlVHTcKFTOmub" cx="38.255" cy="38.298" r="12.362" gradientUnits="userSpaceOnUse"><stop offset="0"/><stop offset="1" stop-opacity="0"/></radialGradient><path fill="url(#6_lp_DDQtxlVHTcKFTOmub)" d="M38,26c-6.617,0-12,5.383-12,12c0,1.404,0.255,2.747,0.7,4H40c1.1,0,2-0.9,2-2V26.7	C40.747,26.255,39.404,26,38,26z"/><linearGradient id="6_lp_DDQtxlVHTcKFTOmuc" x1="30.929" x2="45.071" y1="-592.929" y2="-607.071" gradientTransform="matrix(1 0 0 -1 0 -562)" gradientUnits="userSpaceOnUse"><stop offset="0" stop-color="#21ad64"/><stop offset="1" stop-color="#088242"/></linearGradient><path fill="url(#6_lp_DDQtxlVHTcKFTOmuc)" d="M48,38c0,5.522-4.478,10-10,10s-10-4.478-10-10s4.478-10,10-10S48,32.478,48,38z"/><path fill="#fff" d="M36.646,42.354l-4-4c-0.195-0.195-0.195-0.512,0-0.707l0.707-0.707c0.195-0.195,0.512-0.195,0.707,0	L37,39.879l5.439-5.439c0.195-0.195,0.512-0.195,0.707,0l0.707,0.707c0.195,0.195,0.195,0.512,0,0.707l-6.5,6.5	C37.158,42.549,36.842,42.549,36.646,42.354z"/></svg>