<svg xmlns="http://www.w3.org/2000/svg" viewBox="0 0 48 48"><linearGradient id="~P6dtUhdyvAsfgqkdcSY9a" x1="16.758" x2="30.883" y1="3.118" y2="17.242" gradientUnits="userSpaceOnUse"><stop offset="0" stop-color="#f44f5a"/><stop offset=".443" stop-color="#ee3d4a"/><stop offset="1" stop-color="#e52030"/></linearGradient><path fill="url(#~P6dtUhdyvAsfgqkdcSY9a)" d="M24,4l-1,1v19h2.414L38.14,11.274V9.86C34.52,6.24,29.52,4,24,4z"/><linearGradient id="~P6dtUhdyvAsfgqkdcSY9b" x1="161.843" x2="195.542" y1="220.535" y2="254.235" gradientTransform="rotate(45.001 364.001 -44.004)" gradientUnits="userSpaceOnUse"><stop offset="0" stop-color="#fed100"/><stop offset="1" stop-color="#e36001"/></linearGradient><path fill="url(#~P6dtUhdyvAsfgqkdcSY9b)" d="M38.142,9.858L24,24l1,1l17.997,0l1-1C43.997,18.881,42.045,13.761,38.142,9.858z"/><linearGradient id="~P6dtUhdyvAsfgqkdcSY9c" x1="429.07" x2="439.777" y1="278.93" y2="289.637" gradientTransform="rotate(90 364 -44)" gradientUnits="userSpaceOnUse"><stop offset="0" stop-color="#ffd747"/><stop offset=".482" stop-color="#ffd645"/><stop offset="1" stop-color="#f5bc00"/></linearGradient><path fill="url(#~P6dtUhdyvAsfgqkdcSY9c)" d="M44,24H24v1.414L36.726,38.14h1.414C41.76,34.52,44,29.52,44,24z"/><linearGradient id="~P6dtUhdyvAsfgqkdcSY9d" x1="649.57" x2="660.277" y1="131.263" y2="141.97" gradientTransform="rotate(134.999 364.002 -44)" gradientUnits="userSpaceOnUse"><stop offset="0" stop-color="#33c481"/><stop offset="1" stop-color="#21a366"/></linearGradient><path fill="url(#~P6dtUhdyvAsfgqkdcSY9d)" d="M38.142,38.142L24,24l-1,1l0,17.997l1,1C29.119,43.997,34.239,42.045,38.142,38.142z"/><linearGradient id="~P6dtUhdyvAsfgqkdcSY9e" x1="701.07" x2="711.777" y1="-129.07" y2="-118.363" gradientTransform="rotate(180 364 -44)" gradientUnits="userSpaceOnUse"><stop offset="0" stop-color="#28afea"/><stop offset="1" stop-color="#0b88da"/></linearGradient><path fill="url(#~P6dtUhdyvAsfgqkdcSY9e)" d="M24,44V24h-1.414L9.86,36.726v1.414C13.48,41.76,18.48,44,24,44z"/><linearGradient id="~P6dtUhdyvAsfgqkdcSY9f" x1="551.871" x2="562.578" y1="-351.102" y2="-340.394" gradientTransform="rotate(-134.999 364.002 -44)" gradientUnits="userSpaceOnUse"><stop offset=".002" stop-color="#427fdb"/><stop offset=".397" stop-color="#2668cb"/><stop offset=".763" stop-color="#1358bf"/><stop offset="1" stop-color="#0c52bb"/></linearGradient><path fill="url(#~P6dtUhdyvAsfgqkdcSY9f)" d="M9.858,38.142L24,24l-1-1L5.003,23l-1,1C4.003,29.119,5.955,34.239,9.858,38.142z"/><linearGradient id="~P6dtUhdyvAsfgqkdcSY9g" x1="293.07" x2="303.777" y1="-401.07" y2="-390.363" gradientTransform="rotate(-90 364 -44)" gradientUnits="userSpaceOnUse"><stop offset="0" stop-color="#a235d4"/><stop offset=".441" stop-color="#a033d1"/><stop offset=".702" stop-color="#982cc9"/><stop offset=".915" stop-color="#8b21bb"/><stop offset="1" stop-color="#831bb3"/></linearGradient><path fill="url(#~P6dtUhdyvAsfgqkdcSY9g)" d="M4,24h20v-1.414L11.274,9.86H9.86C6.24,13.48,4,18.48,4,24z"/><linearGradient id="~P6dtUhdyvAsfgqkdcSY9h" x1="72.57" x2="99.915" y1="-253.403" y2="-226.058" gradientTransform="rotate(-45.001 364.002 -43.996)" gradientUnits="userSpaceOnUse"><stop offset="0" stop-color="#e83c67"/><stop offset=".423" stop-color="#c5214a"/><stop offset=".773" stop-color="#b01038"/><stop offset="1" stop-color="#a80a31"/></linearGradient><path fill="url(#~P6dtUhdyvAsfgqkdcSY9h)" d="M9.858,9.858L24,24V4.003C18.881,4.003,13.761,5.955,9.858,9.858z"/><linearGradient id="~P6dtUhdyvAsfgqkdcSY9i" x1="22.263" x2="25.737" y1="-304.15" y2="-323.85" gradientTransform="matrix(1 0 0 -1 0 -290)" gradientUnits="userSpaceOnUse"><stop offset="0" stop-color="#fafafb"/><stop offset=".293" stop-color="#f6f7f8"/><stop offset=".566" stop-color="#ebecee"/><stop offset=".832" stop-color="#d8dcdf"/><stop offset="1" stop-color="#c8cdd1"/></linearGradient><path fill="url(#~P6dtUhdyvAsfgqkdcSY9i)" d="M34,24c0,5.522-4.478,10-10,10s-10-4.478-10-10s4.478-10,10-10S34,18.478,34,24z"/></svg>