<svg xmlns="http://www.w3.org/2000/svg" viewBox="0 0 48 48"><linearGradient id="~JTksEcMvCaurUDgew8TZa" x1="16.232" x2="32.252" y1="2.658" y2="46.673" gradientUnits="userSpaceOnUse"><stop offset="0" stop-color="#8795a1"/><stop offset="1" stop-color="#6d7882"/></linearGradient><path fill="url(#~JTksEcMvCaurUDgew8TZa)" d="M35,28.93V19.07c0-0.669,0.334-1.293,0.891-1.664l1.219-0.813	C37.666,16.223,38,15.598,38,14.93V6c0-1.105-0.895-2-2-2H12c-1.105,0-2,0.895-2,2v8.93c0,0.669,0.334,1.293,0.891,1.664	l1.219,0.813C12.666,17.777,13,18.402,13,19.07v9.859c0,0.669-0.334,1.293-0.891,1.664l-1.219,0.813	C10.334,31.777,10,32.402,10,33.07V42c0,1.105,0.895,2,2,2h24c1.105,0,2-0.895,2-2v-8.93c0-0.669-0.334-1.293-0.891-1.664	l-1.219-0.813C35.334,30.223,35,29.598,35,28.93z"/><path fill="#fdd835" d="M24.5,15h-1c-0.276,0-0.5-0.224-0.5-0.5v-4c0-0.276,0.224-0.5,0.5-0.5h1c0.276,0,0.5,0.224,0.5,0.5v4	C25,14.776,24.776,15,24.5,15z"/><path fill="#fdd835" d="M24.5,38h-1c-0.276,0-0.5-0.224-0.5-0.5v-4c0-0.276,0.224-0.5,0.5-0.5h1c0.276,0,0.5,0.224,0.5,0.5v4	C25,37.776,24.776,38,24.5,38z"/><path fill="#fdd835" d="M24.5,8h-1C23.224,8,23,7.776,23,7.5V4h2v3.5C25,7.776,24.776,8,24.5,8z"/><path fill="#fdd835" d="M25,44h-2v-3.5c0-0.276,0.224-0.5,0.5-0.5h1c0.276,0,0.5,0.224,0.5,0.5V44z"/><linearGradient id="~JTksEcMvCaurUDgew8TZb" x1="16.956" x2="38.415" y1="16.956" y2="38.415" gradientUnits="userSpaceOnUse"><stop offset="0" stop-color="#f9f9f9"/><stop offset=".26" stop-color="#f0f1f2"/><stop offset=".678" stop-color="#d9dcdf"/><stop offset="1" stop-color="#c2c8cc"/></linearGradient><path fill="url(#~JTksEcMvCaurUDgew8TZb)" d="M17.5,31h-2c-0.276,0-0.5-0.224-0.5-0.5v-13c0-0.276,0.224-0.5,0.5-0.5h2	c0.276,0,0.5,0.224,0.5,0.5v13C18,30.776,17.776,31,17.5,31z M23,30.5v-13c0-0.276-0.224-0.5-0.5-0.5h-2c-0.276,0-0.5,0.224-0.5,0.5	v13c0,0.276,0.224,0.5,0.5,0.5h2C22.776,31,23,30.776,23,30.5z M28,30.5v-13c0-0.276-0.224-0.5-0.5-0.5h-2	c-0.276,0-0.5,0.224-0.5,0.5v13c0,0.276,0.224,0.5,0.5,0.5h2C27.776,31,28,30.776,28,30.5z M33,30.5v-13c0-0.276-0.224-0.5-0.5-0.5	h-2c-0.276,0-0.5,0.224-0.5,0.5v13c0,0.276,0.224,0.5,0.5,0.5h2C32.776,31,33,30.776,33,30.5z"/><path fill="#fdd835" d="M37.2,23.588l3.936-3.471C41.484,19.84,42,20.086,42,20.529v6.943c0,0.442-0.516,0.688-0.864,0.412	L37.2,24.412C36.933,24.201,36.933,23.799,37.2,23.588z"/><path fill="#fdd835" d="M10.8,24.412l-3.936,3.471C6.516,28.16,6,27.914,6,27.471v-6.943c0-0.442,0.516-0.688,0.864-0.412	l3.936,3.471C11.067,23.799,11.067,24.201,10.8,24.412z"/></svg>