<svg xmlns="http://www.w3.org/2000/svg" viewBox="0 0 48 48"><linearGradient id="fMwa9P3eZFX7heR9zG8f6a" x1="7.427" x2="18.096" y1="3324.417" y2="3335.087" gradientTransform="translate(0 -3296)" gradientUnits="userSpaceOnUse"><stop offset="0" stop-color="#fed100"/><stop offset="1" stop-color="#e36001"/></linearGradient><path fill="url(#fMwa9P3eZFX7heR9zG8f6a)" d="M13.51,28c-3.59,0-6.5,2.91-6.5,6.5s2.91,6.5,6.5,6.5s6.5-2.91,6.5-6.5	C20.01,30.91,17.099,28,13.51,28z"/><linearGradient id="fMwa9P3eZFX7heR9zG8f6b" x1="6.711" x2="18.628" y1="7.206" y2="19.123" gradientUnits="userSpaceOnUse"><stop offset="0" stop-color="#42a3f2"/><stop offset="1" stop-color="#42a4eb"/></linearGradient><path fill="url(#fMwa9P3eZFX7heR9zG8f6b)" d="M19.304,15.875l-2.988-1.88l2.996-1.897c0.7-0.443,0.908-1.37,0.465-2.07	c-0.443-0.7-1.37-0.908-2.07-0.465l-2.702,1.711V7.5c0-0.828-0.672-1.5-1.5-1.5s-1.5,0.672-1.5,1.5v3.784L9.303,9.585	c-0.701-0.441-1.627-0.23-2.068,0.471v0c-0.441,0.701-0.23,1.627,0.471,2.068l2.988,1.88l-2.997,1.897	c-0.7,0.443-0.908,1.37-0.465,2.07c0.443,0.7,1.37,0.908,2.07,0.465l2.702-1.711V20.5c0,0.828,0.672,1.5,1.5,1.5s1.5-0.672,1.5-1.5	v-3.784l2.701,1.699c0.701,0.441,1.627,0.23,2.068-0.471C20.216,17.243,20.005,16.317,19.304,15.875z"/><linearGradient id="fMwa9P3eZFX7heR9zG8f6c" x1="250.175" x2="254.901" y1="375.143" y2="375.143" gradientTransform="rotate(119.967 248.883 133.055)" gradientUnits="userSpaceOnUse"><stop offset="0" stop-color="#4caf50"/><stop offset=".489" stop-color="#4aaf50"/><stop offset=".665" stop-color="#43ad50"/><stop offset=".79" stop-color="#38aa50"/><stop offset=".892" stop-color="#27a550"/><stop offset=".978" stop-color="#11a050"/><stop offset="1" stop-color="#0a9e50"/></linearGradient><path fill="url(#fMwa9P3eZFX7heR9zG8f6c)" d="M40.167,17.496c0.686-1.172,0.278-2.67-0.913-3.346C38.064,13.474,34.01,14,34.01,14	s1.57,3.719,2.76,4.395C37.96,19.071,39.481,18.668,40.167,17.496z"/><linearGradient id="fMwa9P3eZFX7heR9zG8f6d" x1="255.025" x2="256.957" y1="374.417" y2="378.975" gradientTransform="rotate(119.967 248.883 133.055)" gradientUnits="userSpaceOnUse"><stop offset="0" stop-color="#4caf50"/><stop offset=".489" stop-color="#4aaf50"/><stop offset=".665" stop-color="#43ad50"/><stop offset=".79" stop-color="#38aa50"/><stop offset=".892" stop-color="#27a550"/><stop offset=".978" stop-color="#11a050"/><stop offset="1" stop-color="#0a9e50"/></linearGradient><path fill="url(#fMwa9P3eZFX7heR9zG8f6d)" d="M34.014,21c1.374-0.001,2.487-1.098,2.486-2.451c0,0,0,0,0,0C36.499,17.196,34.01,14,34.01,14	s-2.485,3.198-2.485,4.551C31.526,19.904,32.64,21.001,34.014,21z"/><linearGradient id="fMwa9P3eZFX7heR9zG8f6e" x1="257.76" x2="255.252" y1="377.576" y2="381.964" gradientTransform="rotate(119.967 248.883 133.055)" gradientUnits="userSpaceOnUse"><stop offset="0" stop-color="#4caf50"/><stop offset=".489" stop-color="#4aaf50"/><stop offset=".665" stop-color="#43ad50"/><stop offset=".79" stop-color="#38aa50"/><stop offset=".892" stop-color="#27a550"/><stop offset=".978" stop-color="#11a050"/><stop offset="1" stop-color="#0a9e50"/></linearGradient><path fill="url(#fMwa9P3eZFX7heR9zG8f6e)" d="M27.857,17.504c0.688,1.171,2.209,1.572,3.399,0.895c0,0,0,0,0,0	C32.445,17.721,34.01,14,34.01,14s-4.055-0.521-5.244,0.156C27.576,14.834,27.169,16.332,27.857,17.504z"/><linearGradient id="fMwa9P3eZFX7heR9zG8f6f" x1="256.336" x2="251.259" y1="382.224" y2="382.224" gradientTransform="rotate(119.967 248.883 133.055)" gradientUnits="userSpaceOnUse"><stop offset="0" stop-color="#4caf50"/><stop offset=".489" stop-color="#4aaf50"/><stop offset=".665" stop-color="#43ad50"/><stop offset=".79" stop-color="#38aa50"/><stop offset=".892" stop-color="#27a550"/><stop offset=".978" stop-color="#11a050"/><stop offset="1" stop-color="#0a9e50"/></linearGradient><path fill="url(#fMwa9P3eZFX7heR9zG8f6f)" d="M27.852,10.504c-0.686,1.172-0.278,2.67,0.913,3.346C29.955,14.526,34.01,14,34.01,14	s-1.57-3.719-2.76-4.395C30.06,8.929,28.539,9.332,27.852,10.504C27.852,10.504,27.852,10.504,27.852,10.504z"/><linearGradient id="fMwa9P3eZFX7heR9zG8f6g" x1="251.624" x2="249.058" y1="383.153" y2="378.805" gradientTransform="rotate(119.967 248.883 133.055)" gradientUnits="userSpaceOnUse"><stop offset="0" stop-color="#4caf50"/><stop offset=".489" stop-color="#4aaf50"/><stop offset=".665" stop-color="#43ad50"/><stop offset=".79" stop-color="#38aa50"/><stop offset=".892" stop-color="#27a550"/><stop offset=".978" stop-color="#11a050"/><stop offset="1" stop-color="#0a9e50"/></linearGradient><path fill="url(#fMwa9P3eZFX7heR9zG8f6g)" d="M34.005,7c-1.374,0.001-2.487,1.098-2.486,2.451c0,0,0,0,0,0C31.52,10.805,34.01,14,34.01,14	s2.485-3.198,2.485-4.551C36.494,8.096,35.379,6.999,34.005,7z"/><linearGradient id="fMwa9P3eZFX7heR9zG8f6h" x1="248.332" x2="250.72" y1="379.808" y2="375.628" gradientTransform="rotate(119.967 248.883 133.055)" gradientUnits="userSpaceOnUse"><stop offset="0" stop-color="#4caf50"/><stop offset=".489" stop-color="#4aaf50"/><stop offset=".665" stop-color="#43ad50"/><stop offset=".79" stop-color="#38aa50"/><stop offset=".892" stop-color="#27a550"/><stop offset=".978" stop-color="#11a050"/><stop offset="1" stop-color="#0a9e50"/></linearGradient><path fill="url(#fMwa9P3eZFX7heR9zG8f6h)" d="M39.254,13.844c1.189-0.679,1.594-2.178,0.905-3.348c-0.688-1.169-2.207-1.569-3.395-0.894	C35.575,10.279,34.01,14,34.01,14s3.355-0.433,4.855-0.001C39,13.963,39.131,13.91,39.254,13.844z"/><linearGradient id="fMwa9P3eZFX7heR9zG8f6i" x1="32.584" x2="36.624" y1="12.574" y2="16.614" gradientUnits="userSpaceOnUse"><stop offset="0" stop-color="#fed100"/><stop offset="1" stop-color="#e36001"/></linearGradient><path fill="url(#fMwa9P3eZFX7heR9zG8f6i)" d="M36.01,14c0-1.105-0.895-2-2-2s-2,0.895-2,2s0.895,2,2,2C35.114,16,36.01,15.104,36.01,14z"/><linearGradient id="fMwa9P3eZFX7heR9zG8f6j" x1="25.01" x2="42.01" y1="33.5" y2="33.5" gradientUnits="userSpaceOnUse"><stop offset="0" stop-color="#f44f5a"/><stop offset=".443" stop-color="#ee3d4a"/><stop offset="1" stop-color="#e52030"/></linearGradient><polygon fill="url(#fMwa9P3eZFX7heR9zG8f6j)" points="40.01,36 42.01,34 39.01,33 40.01,31 36.01,33 37.01,28 35.01,29 33.5,26 32.01,29 30.01,28 31.01,33 27.01,31 28.01,33 25.01,34 27.01,36 26.01,37 30,38 30.01,40 33.01,39 32.01,41 35.01,41 34.01,39 37.01,40 37,38 41.01,37"/></svg>