<svg xmlns="http://www.w3.org/2000/svg" viewBox="0 0 48 48"><linearGradient id="4xjRTVGDSlBG4tVKciEGKa" x1="445.855" x2="455.277" y1="1433.215" y2="1423.924" gradientTransform="rotate(24.439 3486.769 -280.77)" gradientUnits="userSpaceOnUse"><stop offset=".282" stop-color="#ffc430"/><stop offset=".401" stop-color="#f8bd2d"/><stop offset=".574" stop-color="#e5aa23"/><stop offset=".78" stop-color="#c58a14"/><stop offset="1" stop-color="#9c6000"/></linearGradient><path fill="url(#4xjRTVGDSlBG4tVKciEGKa)" d="M9.69,12.217c-1.511-0.687-2.621-0.059-3.19,1.193l5.407,17.339c0,0,2.33-1.935,2.399-1.78 l6.17-8.392c-3.546,2.501-6.549-3.598-8.232-3.935C12.244,16.64,12.84,13.648,9.69,12.217z"/><path fill="#199be2" d="M25.586,8.414c-0.256,0-0.512-0.098-0.707-0.293c-0.391-0.391-0.391-1.023,0-1.414l1.414-1.414	c0.391-0.391,1.023-0.391,1.414,0s0.391,1.023,0,1.414l-1.414,1.414C26.098,8.316,25.842,8.414,25.586,8.414z M12.414,8.414	c-0.256,0-0.512-0.098-0.707-0.293l-1.414-1.414c-0.391-0.391-0.391-1.023,0-1.414s1.023-0.391,1.414,0l1.414,1.414	c0.391,0.391,0.391,1.023,0,1.414C12.926,8.316,12.67,8.414,12.414,8.414z M19,6c-0.552,0-1-0.447-1-1V3c0-0.553,0.448-1,1-1	s1,0.447,1,1v2C20,5.553,19.552,6,19,6z"/><linearGradient id="4xjRTVGDSlBG4tVKciEGKb" x1="57.167" x2="64.814" y1="-78.404" y2="-56.519" gradientTransform="rotate(-45.001 162 21.502)" gradientUnits="userSpaceOnUse"><stop offset="0" stop-color="#ffc430"/><stop offset=".41" stop-color="#fec130"/><stop offset=".72" stop-color="#fcb730"/><stop offset=".998" stop-color="#f7a72f"/><stop offset="1" stop-color="#f7a72f"/></linearGradient><path fill="url(#4xjRTVGDSlBG4tVKciEGKb)" d="M38.829,27.224c-0.499-0.499-0.38-2.523-1.071-3.214c-0.778-0.778-2.505-1.077-2.857-1.429	c-0.352-0.352-0.628-2.057-1.429-2.857c-0.885-0.885-2.508-1.079-2.857-1.429c-0.349-0.349-0.525-1.954-1.429-2.857	c-0.986-0.986-2.585-0.986-3.572,0L11.707,29.344c0.114,1.973,0.939,3.843,2.344,5.247l7.633,7.633c2.367,2.367,6.205,2.367,8.572,0	L40.972,31.51c0.838-0.838,0.606-2.251-0.183-3.04C39.79,27.471,39.248,27.643,38.829,27.224z"/><linearGradient id="4xjRTVGDSlBG4tVKciEGKc" x1="592.731" x2="592.733" y1="361.874" y2="361.874" gradientTransform="rotate(54.318 639.755 -377.53)" gradientUnits="userSpaceOnUse"><stop offset="0" stop-color="#ffc430"/><stop offset=".57" stop-color="#f8bd29"/><stop offset="1" stop-color="#f0b421"/></linearGradient><path fill="url(#4xjRTVGDSlBG4tVKciEGKc)" d="M11.745,15.534c0.006-0.004,0.011-0.006,0.017-0.01l0-0.002L11.745,15.534z"/><linearGradient id="4xjRTVGDSlBG4tVKciEGKd" x1="72.525" x2="84.052" y1="-78.936" y2="-66.966" gradientTransform="rotate(-45.001 162 21.502)" gradientUnits="userSpaceOnUse"><stop offset="0" stop-color="#ffc430"/><stop offset=".41" stop-color="#fec130"/><stop offset=".72" stop-color="#fcb730"/><stop offset=".998" stop-color="#f7a72f"/><stop offset="1" stop-color="#f7a72f"/></linearGradient><path fill="url(#4xjRTVGDSlBG4tVKciEGKd)" d="M35.614,5.437c-0.587,0.587-13.929,13.929-13.929,13.929l3.572,3.572	c0,0,13.342-13.342,13.929-13.929c0.986-0.986,0.986-2.585,0-3.572C38.199,4.451,36.6,4.451,35.614,5.437z"/><circle cx="37.4" cy="7.223" r="1.515" fill="#fff0c9"/></svg>