<svg xmlns="http://www.w3.org/2000/svg" viewBox="0 0 48 48"><linearGradient id="cwxrwGknx5pO3xOFedWxoa" x1="4" x2="44" y1="36" y2="36" gradientUnits="userSpaceOnUse"><stop offset=".2" stop-color="#195bbc"/><stop offset=".26" stop-color="#154d9e"/><stop offset=".74" stop-color="#154d9e"/><stop offset=".8" stop-color="#195bbc"/></linearGradient><path fill="url(#cwxrwGknx5pO3xOFedWxoa)" d="M42,28H6c-1.105,0-2,0.895-2,2v12c0,1.105,0.895,2,2,2h36c1.105,0,2-0.895,2-2V30	C44,28.895,43.105,28,42,28z"/><linearGradient id="cwxrwGknx5pO3xOFedWxob" x1="24" x2="24" y1="19.934" y2="4.8" gradientUnits="userSpaceOnUse"><stop offset="0" stop-color="#42a3f2"/><stop offset="1" stop-color="#42a4eb"/></linearGradient><path fill="url(#cwxrwGknx5pO3xOFedWxob)" d="M16,20h16c1.105,0,2-0.895,2-2V6c0-1.105-0.895-2-2-2H16c-1.105,0-2,0.895-2,2v12	C14,19.105,14.895,20,16,20z"/><rect width="20" height="16" x="14" y="28" fill="#35c1f1"/></svg>