<svg xmlns="http://www.w3.org/2000/svg" xmlns:xlink="http://www.w3.org/1999/xlink" data-name="Слой 1" viewBox="0 0 48 48"><defs><linearGradient id="bl7f5y005zLaAvfRqlrFob" x1="28.529" x2="33.6" y1="556.528" y2="561.6" data-name="Безымянный градиент 15" gradientTransform="matrix(1 0 0 -1 0 572)" gradientUnits="userSpaceOnUse"><stop offset="0" stop-color="#3079d6"/><stop offset="1" stop-color="#297cd2"/></linearGradient><linearGradient id="bl7f5y005zLaAvfRqlrFod" x1="26.071" x2="45.646" y1="23.072" y2="42.647" data-name="Безымянный градиент 4" gradientUnits="userSpaceOnUse"><stop offset="0" stop-color="#a3ffff"/><stop offset=".223" stop-color="#9dfbff"/><stop offset=".53" stop-color="#8bf1ff"/><stop offset=".885" stop-color="#6ee0ff"/><stop offset="1" stop-color="#63daff"/></linearGradient><linearGradient id="bl7f5y005zLaAvfRqlrFoa" x1="20.272" x2="35.149" y1="27.5" y2="27.5" data-name="Безымянный градиент 30" gradientUnits="userSpaceOnUse"><stop offset="0" stop-color="#3b8fbf"/><stop offset="1" stop-color="#057093"/></linearGradient><linearGradient id="bl7f5y005zLaAvfRqlrFoe" x1="20.272" x2="35.149" y1="33.5" y2="33.5" xlink:href="#bl7f5y005zLaAvfRqlrFoa"/><radialGradient id="bl7f5y005zLaAvfRqlrFoc" cx="33.522" cy="541.246" r="9.842" data-name="Безымянный градиент 16" gradientTransform="matrix(1 0 0 -1 0 572)" gradientUnits="userSpaceOnUse"><stop offset=".693" stop-color="#006185"/><stop offset=".921" stop-color="#35c1f1"/></radialGradient></defs><path fill="#50e6ff" d="M39,16V41a2.00591,2.00591,0,0,1-2,2H11a2.00591,2.00591,0,0,1-2-2V7a1.99946,1.99946,0,0,1,2-2H28Z"/><path fill="url(#bl7f5y005zLaAvfRqlrFob)" d="M28,5v9a1.99945,1.99945,0,0,0,2,2h9Z"/><path fill="#199be2" d="M41.13761,36.36239l-1.77522,1.77522L45.151,43.9262a.25089.25089,0,0,0,.35544,0l1.41977-1.41977a.25089.25089,0,0,0,0-.35544Z"/><path fill="#057093" d="M13.5,21H33a0,0,0,0,1,0,0v2a0,0,0,0,1,0,0H13.5a.5.5,0,0,1-.5-.5v-1A.5.5,0,0,1,13.5,21Z"/><rect width="22" height="2" x="13" y="26" fill="#057093" rx=".5"/><rect width="22" height="2" x="13" y="31" fill="#057093" rx=".5"/><polygon fill="url(#bl7f5y005zLaAvfRqlrFoc)" points="39.774 35 38 36.774 40.2 38.975 41.975 37.2 39.774 35"/><path fill="url(#bl7f5y005zLaAvfRqlrFod)" d="M32.9995,21.001A8.9995,8.9995,0,1,1,24.93532,34c-.16036-.32272.49579-.8252.37446-1.16847-.115-.32525-1.00946-.49032-1.08686-.83152a9.07892,9.07892,0,0,1,.00022-4c.07745-.34118.988-.53346,1.10295-.8587.12252-.34652-.548-.82483-.38574-1.15039A8.99959,8.99959,0,0,1,32.9995,21.001Z"/><rect width="11.016" height="2" x="12.984" y="16" fill="#057093" rx=".5"/><rect width="11.016" height="2" x="12.984" y="11" fill="#057093" rx=".5"/><path d="M33,20a10,10,0,0,0,0,20,9.86851,9.86851,0,0,0,5.29-1.52l.71.71V37.77l-.59-.59A8.99714,8.99714,0,1,1,39,23.3V22.01A9.93425,9.93425,0,0,0,33,20Z" opacity=".05"/><path d="M33,21a8.95511,8.95511,0,0,1,6,2.3v-.66a9.50341,9.50341,0,1,0-.65,15.2l.65.65v-.72l-.59-.59A8.99583,8.99583,0,1,1,33,21Z" opacity=".07"/><path fill="url(#bl7f5y005zLaAvfRqlrFoa)" d="M36,26.5v2a.5.5,0,0,1-.5.5H24.06a8.68662,8.68662,0,0,1,.88-3H35.5A.5.5,0,0,1,36,26.5Z"/><path fill="url(#bl7f5y005zLaAvfRqlrFoe)" d="M36,32.5v2a.5.5,0,0,1-.5.5H25.52a9.05619,9.05619,0,0,1-1.3-3H35.5A.5.5,0,0,1,36,32.5Z"/></svg>