<svg xmlns="http://www.w3.org/2000/svg" viewBox="0 0 48 48"><path fill="#09914a" d="M11.457,27.813L9.24,33.21c-0.146,0.355-0.575,0.494-0.902,0.293l-4.967-3.061 c-0.399-0.246-0.293-0.825,0.181-0.978l7.185-2.336C11.209,26.974,11.635,27.38,11.457,27.813z"/><path fill="none" stroke="#09914a" stroke-linecap="round" stroke-linejoin="round" stroke-miterlimit="10" stroke-width="2" d="M8.007,30.269C6.725,27.793,6,24.981,6,22c0-9.941,8.059-18,18-18s18,8.059,18,18c0,3.919-1.252,7.545-3.379,10.501"/><radialGradient id="kSOnPez7sX2aept53U48ma" cx="23.789" cy="-1394.339" r="11.736" gradientTransform="matrix(1 0 0 -1 0 -1369.89)" gradientUnits="userSpaceOnUse"><stop offset=".376" stop-color="#261103"/><stop offset=".68" stop-color="#431d06"/><stop offset="1" stop-color="#662c09"/></radialGradient><path fill="url(#kSOnPez7sX2aept53U48ma)" d="M24,13.83c-8.814,0-11,14.232-11,14.232c0,2.534,1.177,4.754,3.641,5.342 c2.11,0.504,4.766,0.971,7.359,0.971s5.248-0.467,7.359-0.971C33.823,32.816,35,30.595,35,28.062C35,28.062,32.814,13.83,24,13.83z"/><linearGradient id="kSOnPez7sX2aept53U48mb" x1="21.113" x2="24.911" y1="-1401.446" y2="-1414.51" gradientTransform="matrix(1 0 0 -1 0 -1369.89)" gradientUnits="userSpaceOnUse"><stop offset="0" stop-color="#33bef0"/><stop offset="1" stop-color="#0a85d9"/></linearGradient><path fill="url(#kSOnPez7sX2aept53U48mb)" d="M24,32c-7.732,0-14,4.556-14,9.25v1c0,0.966,0.784,1.75,1.75,1.75h24.5 c0.966,0,1.75-0.784,1.75-1.75v-1C38,36.556,31.732,32,24,32z"/><path fill="#d6a121" d="M28,34.628c0,1.518-1.6,3.2-4,3.2s-4-1.682-4-3.2C20,32.518,20,29,20,29h8 C28,29,28,32.518,28,34.628z"/><radialGradient id="kSOnPez7sX2aept53U48mc" cx="-37.045" cy="-1426.05" r="9.38" gradientTransform="matrix(-.9136 0 0 -.9667 -9.845 -1355.032)" gradientUnits="userSpaceOnUse"><stop offset="0" stop-color="#ffcf54"/><stop offset=".261" stop-color="#fdcb4d"/><stop offset=".639" stop-color="#f7c13a"/><stop offset="1" stop-color="#f0b421"/></radialGradient><path fill="url(#kSOnPez7sX2aept53U48mc)" d="M24,13.062c3.454,0,7,0.606,7,8.507c0,0.632,0,5.019,0,5.695C31,30.085,26.713,34,24,34 s-7-3.915-7-6.736c0-0.675,0-5.062,0-5.695C17,13.875,20.546,13.062,24,13.062z"/><radialGradient id="kSOnPez7sX2aept53U48md" cx="17.979" cy="-1380.31" r="28.154" gradientTransform="matrix(1 0 0 -1 0 -1369.89)" gradientUnits="userSpaceOnUse"><stop offset="0" stop-color="#c26715"/><stop offset=".508" stop-color="#b85515"/><stop offset="1" stop-color="#ad3f16"/></radialGradient><path fill="url(#kSOnPez7sX2aept53U48md)" d="M24,10c-4.54,0-5,3-5,3c-1.846,0.272-6,0.207-6,15c0,3.533,1.613,4.625,2.731,5.088 C12.662,21.544,21.379,22.906,20,15c3.54,10.336,15.558,3.338,12.269,18.088C33.985,32.362,35,30.186,35,28 C35,15.92,30.474,10,24,10z"/></svg>