<svg xmlns="http://www.w3.org/2000/svg" id="Layer_1" x="0" y="0" version="1.1" viewBox="0 0 48 48" xml:space="preserve"><linearGradient id="SVGID_1_" x1="21.516" x2="45.592" y1="1049.638" y2="1085.673" gradientTransform="translate(0 -1032)" gradientUnits="userSpaceOnUse"><stop offset="0" stop-color="#28afea"/><stop offset="1" stop-color="#0b88da"/></linearGradient><path fill="url(#SVGID_1_)" d="M9,26l36-14.3V38c0,1.1-0.9,2-2,2H9V26z"/><linearGradient id="SVGID_2_" x1="1.408" x2="36.331" y1="1056.41" y2="1078.164" gradientTransform="translate(0 -1032)" gradientUnits="userSpaceOnUse"><stop offset="0" stop-color="#28afea"/><stop offset="1" stop-color="#0b88da"/></linearGradient><path fill="url(#SVGID_2_)" d="M3,11.7V38c0,1.1,0.9,2,2,2h38c0.5,0,0.9-0.2,1.3-0.5L3,11.7z"/><path d="M44.5,30c-2.3,0-4.2,1.7-4.5,4l-3.8,2c-0.8-0.6-1.7-0.9-2.7-0.9C31,35,29,37,29,39.5c0,0.2,0,0.3,0.1,0.5h8.9	c0-0.2,0.1-0.3,0.1-0.5l3.4-1.7c0.8,0.8,1.9,1.2,3.1,1.2c0.1,0,0.2,0,0.2,0c0.2-0.3,0.3-0.6,0.3-1v-7.9C44.8,30,44.7,30,44.5,30z" opacity=".05"/><path d="M44.5,30.5c-2.1,0-3.9,1.7-4,3.8l-4.4,2.2c-0.7-0.7-1.7-1-2.7-1c-2.2,0-4,1.8-4,4c0,0.2,0,0.3,0.1,0.5h7.9	c0-0.2,0.1-0.3,0.1-0.5c0-0.1,0-0.2,0-0.3l4-2.1c0.8,0.9,1.8,1.4,3,1.4c0.2,0,0.3,0,0.4,0c0-0.1,0.1-0.3,0.1-0.5v-7.4	C44.8,30.5,44.7,30.5,44.5,30.5z" opacity=".07"/><path d="M3,11h42v1.7L27.7,26.1c-2.2,1.7-5.2,1.7-7.4,0L3,12.7V11z" opacity=".05"/><path d="M3,10.5h42v1.7L27,25.3c-1.8,1.3-4.2,1.3-5.9,0L3,12.2V10.5z" opacity=".07"/><path fill="#50e6ff" d="M5,8h38c1.1,0,2,0.9,2,2v1.7L26.3,24.5c-1.4,0.9-3.1,0.9-4.5,0L3,11.7V10C3,8.9,3.9,8,5,8z"/><linearGradient id="SVGID_3_" x1="30" x2="48" y1="39.5" y2="39.5" gradientUnits="userSpaceOnUse"><stop offset="0" stop-color="#c965eb"/><stop offset="1" stop-color="#c767e5"/></linearGradient><path fill="url(#SVGID_3_)" d="M44.5,41c-1.2,0-2.2,0.6-2.8,1.5L36.9,40c0-0.2,0.1-0.4,0.1-0.5c0-0.2,0-0.4-0.1-0.6l4.7-2.4	c0.6,0.9,1.7,1.5,2.9,1.5c1.9,0,3.5-1.6,3.5-3.5S46.4,31,44.5,31S41,32.6,41,34.5c0,0,0,0.1,0,0.1l-5,2.5c-0.6-0.7-1.5-1.1-2.6-1.1	c-1.9,0-3.5,1.6-3.5,3.5s1.6,3.5,3.5,3.5c1,0,1.9-0.5,2.6-1.2l4.9,2.5c0,0,0,0.1,0,0.1c0,1.9,1.6,3.5,3.5,3.5s3.5-1.6,3.5-3.5	S46.4,41,44.5,41z"/></svg>