<svg xmlns="http://www.w3.org/2000/svg" viewBox="0 0 48 48"><linearGradient id="8A6aVUkxid3tco6vYMZw5a" x1="-121.969" x2="-93.89" y1="383.969" y2="355.89" gradientTransform="rotate(90 131 263)" gradientUnits="userSpaceOnUse"><stop offset="0" stop-color="#f44f5a"/><stop offset=".443" stop-color="#ee3d4a"/><stop offset="1" stop-color="#e52030"/></linearGradient><path fill="url(#8A6aVUkxid3tco6vYMZw5a)" d="M24,44c11.045,0,20-8.955,20-20S35.045,4,24,4S4,12.955,4,24S12.955,44,24,44z"/><path fill="#343434" d="M31,35.652c-0.235,0-0.47-0.082-0.66-0.25C28.58,33.853,26.329,33,24,33s-4.58,0.853-6.339,2.402	c-0.415,0.365-1.047,0.325-1.411-0.09c-0.365-0.414-0.325-1.046,0.09-1.411C18.464,32.03,21.185,31,24,31s5.536,1.03,7.661,2.901	c0.415,0.365,0.455,0.997,0.09,1.411C31.553,35.537,31.277,35.652,31,35.652z"/><path fill="#fff" d="M13.449,19.675c-0.204,0.262-0.389,0.543-0.526,0.862c-0.876,2.028,0.059,4.382,2.087,5.258	c2.028,0.876,4.382-0.059,5.258-2.087c0.138-0.319,0.216-0.646,0.267-0.974L13.449,19.675z"/><path fill="#343434" d="M15.41,20.522c-0.275,0.203-0.506,0.472-0.651,0.808c-0.438,1.014,0.029,2.191,1.043,2.629	c1.014,0.438,2.191-0.029,2.629-1.043c0.145-0.336,0.182-0.689,0.142-1.028L15.41,20.522z"/><line x1="13.319" x2="20.663" y1="19.619" y2="22.79" fill="none" stroke="#801017" stroke-linecap="round" stroke-linejoin="round" stroke-miterlimit="10" stroke-width="2"/><path fill="#fff" d="M34.808,19.675c0.204,0.262,0.389,0.543,0.526,0.862c0.876,2.028-0.059,4.382-2.087,5.258	c-2.028,0.876-4.382-0.059-5.258-2.087c-0.138-0.319-0.216-0.646-0.267-0.974L34.808,19.675z"/><path fill="#343434" d="M32.847,20.522c0.275,0.203,0.506,0.472,0.651,0.808c0.438,1.014-0.029,2.191-1.043,2.629	c-1.014,0.438-2.191-0.029-2.629-1.043c-0.145-0.336-0.182-0.689-0.142-1.028L32.847,20.522z"/><line x1="34.938" x2="27.594" y1="19.619" y2="22.79" fill="none" stroke="#801017" stroke-linecap="round" stroke-linejoin="round" stroke-miterlimit="10" stroke-width="2"/></svg>