<svg xmlns="http://www.w3.org/2000/svg" viewBox="0 0 48 48"><linearGradient id="exY1_T1a7KcK~V9LKSRcfa" x1="13.92" x2="43.619" y1="3.42" y2="33.119" gradientUnits="userSpaceOnUse"><stop offset=".112" stop-color="#ffc768"/><stop offset=".369" stop-color="#ff9c39"/></linearGradient><polygon fill="url(#exY1_T1a7KcK~V9LKSRcfa)" points="3,6 24,42 45,6"/><linearGradient id="exY1_T1a7KcK~V9LKSRcfb" x1="22.252" x2="37.102" y1="11.752" y2="26.602" gradientUnits="userSpaceOnUse"><stop offset=".061" stop-color="#ff9936"/><stop offset=".711" stop-color="#ff6a2c"/></linearGradient><polygon fill="url(#exY1_T1a7KcK~V9LKSRcfb)" points="24,6 24,42 45,6"/><linearGradient id="exY1_T1a7KcK~V9LKSRcfc" x1="18.75" x2="29.25" y1="14.25" y2="24.75" gradientUnits="userSpaceOnUse"><stop offset=".114" stop-color="#ffb14d"/><stop offset=".772" stop-color="#ff742f"/></linearGradient><polygon fill="url(#exY1_T1a7KcK~V9LKSRcfc)" points="24,9 16,22 32,22"/><linearGradient id="exY1_T1a7KcK~V9LKSRcfd" x1="16.437" x2="32.143" y1="29.75" y2="32.806" gradientUnits="userSpaceOnUse"><stop offset=".061" stop-color="#ff8931"/><stop offset=".947" stop-color="#ff3c15"/></linearGradient><polygon fill="url(#exY1_T1a7KcK~V9LKSRcfd)" points="15.999,22 23.999,42 31.999,22"/><linearGradient id="exY1_T1a7KcK~V9LKSRcfe" x1="33.685" x2="41.567" y1="13.071" y2="19.958" gradientUnits="userSpaceOnUse"><stop offset="0" stop-color="#ff5926"/><stop offset="1" stop-color="#ff4522"/></linearGradient><polygon fill="url(#exY1_T1a7KcK~V9LKSRcfe)" points="37,8 32,22 39.881,14.776 42.467,10.343"/><linearGradient id="exY1_T1a7KcK~V9LKSRcff" x1="22.774" x2="42.933" y1="41.179" y2="6.338" gradientUnits="userSpaceOnUse"><stop offset="0" stop-color="#a32a15"/><stop offset=".934" stop-color="#a03325"/></linearGradient><polygon fill="url(#exY1_T1a7KcK~V9LKSRcff)" points="31.999,22 23.999,42 45,6"/><linearGradient id="exY1_T1a7KcK~V9LKSRcfg" x1="8.045" x2="15.835" y1="9.948" y2="17.357" gradientUnits="userSpaceOnUse"><stop offset="0" stop-color="#ffc658"/><stop offset=".812" stop-color="#ffa336"/></linearGradient><polygon fill="url(#exY1_T1a7KcK~V9LKSRcfg)" points="5.533,10.343 8.119,14.777 16,22 11,8"/><linearGradient id="exY1_T1a7KcK~V9LKSRcfh" x1="5.581" x2="24.392" y1="7.14" y2="40.07" gradientUnits="userSpaceOnUse"><stop offset=".114" stop-color="#e48c2c"/><stop offset=".772" stop-color="#ae431a"/></linearGradient><polygon fill="url(#exY1_T1a7KcK~V9LKSRcfh)" points="24,42 16,22 3,6"/><linearGradient id="exY1_T1a7KcK~V9LKSRcfi" x1="3" x2="45" y1="7.5" y2="7.5" gradientUnits="userSpaceOnUse"><stop offset=".407" stop-color="#ff903e"/><stop offset=".642" stop-color="#e26017"/></linearGradient><polygon fill="url(#exY1_T1a7KcK~V9LKSRcfi)" points="3,6 24,9 45,6"/><polygon fill="#d87a26" points="24,6 31.132,7.981 45,6"/><linearGradient id="exY1_T1a7KcK~V9LKSRcfj" x1="24" x2="45.001" y1="6.99" y2="6.99" gradientUnits="userSpaceOnUse"><stop offset="0" stop-color="#bc5a1f"/><stop offset=".928" stop-color="#aa3918"/></linearGradient><polygon fill="url(#exY1_T1a7KcK~V9LKSRcfj)" points="24,6 31.132,7.981 45,6"/><linearGradient id="exY1_T1a7KcK~V9LKSRcfk" x1="3" x2="24" y1="6.99" y2="6.99" gradientUnits="userSpaceOnUse"><stop offset=".002" stop-color="#efa431"/><stop offset="1" stop-color="#d07124"/></linearGradient><polygon fill="url(#exY1_T1a7KcK~V9LKSRcfk)" points="3,6 16.868,7.981 24,6"/><linearGradient id="exY1_T1a7KcK~V9LKSRcfl" x1="31.132" x2="45" y1="8.379" y2="8.379" gradientUnits="userSpaceOnUse"><stop offset="0" stop-color="#ff7545"/><stop offset=".812" stop-color="#ff4522"/></linearGradient><polygon fill="url(#exY1_T1a7KcK~V9LKSRcfl)" points="31.132,7.981 41.133,10.759 45,6"/><linearGradient id="exY1_T1a7KcK~V9LKSRcfm" x1="3" x2="16.868" y1="8.379" y2="8.379" gradientUnits="userSpaceOnUse"><stop offset="0" stop-color="#ffc658"/><stop offset=".812" stop-color="#ffc04e"/></linearGradient><polygon fill="url(#exY1_T1a7KcK~V9LKSRcfm)" points="3,6 6.866,10.759 16.868,7.981"/></svg>