<svg xmlns="http://www.w3.org/2000/svg" viewBox="0 0 48 48"><linearGradient id="FO6AJKui5SSsrm0ob~pDDa" x1="118.584" x2="123.921" y1="102.503" y2="65.814" gradientTransform="matrix(0 1 1 0 -70 -98.343)" gradientUnits="userSpaceOnUse"><stop offset="0" stop-color="#ae4cd5"/><stop offset="1" stop-color="#ac4ad5"/></linearGradient><path fill="url(#FO6AJKui5SSsrm0ob~pDDa)" d="M12,9h4v27c0,0.552-0.448,1-1,1h-2c-0.552,0-1-0.448-1-1V9z"/><linearGradient id="FO6AJKui5SSsrm0ob~pDDb" x1="6" x2="42" y1="41" y2="41" gradientUnits="userSpaceOnUse"><stop offset="0" stop-color="#ae4cd5"/><stop offset="1" stop-color="#ac4ad5"/></linearGradient><path fill="url(#FO6AJKui5SSsrm0ob~pDDb)" d="M42,40v2c0,0.55-0.45,1-1,1H7c-0.55,0-1-0.45-1-1v-2c0-0.55,0.45-1,1-1h34	C41.55,39,42,39.45,42,40z"/><linearGradient id="FO6AJKui5SSsrm0ob~pDDc" x1="109.252" x2="109.252" y1="76.189" y2="81.732" gradientTransform="matrix(0 1 1 0 -70 -98.343)" gradientUnits="userSpaceOnUse"><stop offset=".273" stop-color="#912fbd"/><stop offset=".588" stop-color="#8f2ebb"/><stop offset=".758" stop-color="#892bb3"/><stop offset=".894" stop-color="#7e26a5"/><stop offset="1" stop-color="#701f94"/></linearGradient><path fill="url(#FO6AJKui5SSsrm0ob~pDDc)" d="M12.743,6.819V15H6.629c-0.559,0-0.841-0.726-0.445-1.151L12.743,6.819z"/><linearGradient id="FO6AJKui5SSsrm0ob~pDDd" x1="14.247" x2="21.065" y1="29.926" y2="-16.957" gradientUnits="userSpaceOnUse"><stop offset="0" stop-color="#ae4cd5"/><stop offset="1" stop-color="#ac4ad5"/></linearGradient><path fill="url(#FO6AJKui5SSsrm0ob~pDDd)" d="M21.815,13.849l-6.926-7.425C14.4,5.9,13.6,5.9,13.111,6.424L12,7.616V15h9.371	C21.93,15,22.211,14.274,21.815,13.849z"/><linearGradient id="FO6AJKui5SSsrm0ob~pDDe" x1="118.584" x2="123.921" y1="122.503" y2="85.814" gradientTransform="matrix(0 1 1 0 -70 -98.343)" gradientUnits="userSpaceOnUse"><stop offset="0" stop-color="#ae4cd5"/><stop offset="1" stop-color="#ac4ad5"/></linearGradient><path fill="url(#FO6AJKui5SSsrm0ob~pDDe)" d="M32,9h4v27c0,0.552-0.448,1-1,1h-2c-0.552,0-1-0.448-1-1V9z"/><linearGradient id="FO6AJKui5SSsrm0ob~pDDf" x1="109.252" x2="109.252" y1="96.189" y2="101.732" gradientTransform="matrix(0 1 1 0 -70 -98.343)" gradientUnits="userSpaceOnUse"><stop offset=".273" stop-color="#912fbd"/><stop offset=".588" stop-color="#8f2ebb"/><stop offset=".758" stop-color="#892bb3"/><stop offset=".894" stop-color="#7e26a5"/><stop offset="1" stop-color="#701f94"/></linearGradient><path fill="url(#FO6AJKui5SSsrm0ob~pDDf)" d="M32.743,6.819V15h-6.114c-0.559,0-0.841-0.726-0.445-1.151L32.743,6.819z"/><linearGradient id="FO6AJKui5SSsrm0ob~pDDg" x1="34.247" x2="41.065" y1="29.926" y2="-16.957" gradientUnits="userSpaceOnUse"><stop offset="0" stop-color="#ae4cd5"/><stop offset="1" stop-color="#ac4ad5"/></linearGradient><path fill="url(#FO6AJKui5SSsrm0ob~pDDg)" d="M41.815,13.849l-6.926-7.425C34.4,5.9,33.6,5.9,33.111,6.424L32,7.616V15h9.371	C41.93,15,42.211,14.274,41.815,13.849z"/></svg>