<svg xmlns="http://www.w3.org/2000/svg" viewBox="0 0 48 48"><linearGradient id="IJsMgLoyOL2Cr5afe5K0na" x1="39.011" x2="39.011" y1="4.682" y2="42.845" gradientUnits="userSpaceOnUse"><stop offset="0" stop-color="#889097"/><stop offset="1" stop-color="#64717c"/></linearGradient><path fill="url(#IJsMgLoyOL2Cr5afe5K0na)" d="M43,23h-2h-5v2c4,0,5,3,5,6v0.888c0,0.997-0.679,1.922-1.662,2.084	c-1.117,0.184-2.102-0.564-2.301-1.589C36.993,32.157,36.785,32,36.555,32h-3.027c-0.287,0-0.529,0.242-0.504,0.528	c0.29,3.316,3.29,5.867,6.766,5.421C42.814,37.561,45,34.84,45,31.791V23H43z"/><linearGradient id="IJsMgLoyOL2Cr5afe5K0nb" x1="10.5" x2="10.5" y1="-3.296" y2="36.075" gradientUnits="userSpaceOnUse"><stop offset="0" stop-color="#889097"/><stop offset="1" stop-color="#64717c"/></linearGradient><path fill="url(#IJsMgLoyOL2Cr5afe5K0nb)" d="M15,33v10c0,0.15-0.03,0.28-0.09,0.41C14.75,43.76,14.4,44,14,44H7c-0.55,0-1-0.45-1-1V33H15z"/><linearGradient id="IJsMgLoyOL2Cr5afe5K0nc" x1="25.5" x2="25.5" y1="-3.296" y2="36.075" gradientUnits="userSpaceOnUse"><stop offset="0" stop-color="#889097"/><stop offset="1" stop-color="#64717c"/></linearGradient><path fill="url(#IJsMgLoyOL2Cr5afe5K0nc)" d="M30,33v10c0,0.15-0.03,0.28-0.09,0.41C29.75,43.76,29.4,44,29,44h-7c-0.55,0-1-0.45-1-1V33H30	z"/><linearGradient id="IJsMgLoyOL2Cr5afe5K0nd" x1="18" x2="18" y1="-3.296" y2="36.075" gradientUnits="userSpaceOnUse"><stop offset="0" stop-color="#889097"/><stop offset="1" stop-color="#64717c"/></linearGradient><path fill="url(#IJsMgLoyOL2Cr5afe5K0nd)" d="M30,21.75V19c0-7.18-5.82-13-13-13C9.268,6,3,12,3,20c0,7,3,13,3,13h9c0,0.552,1.343,1,3,1	s3-0.448,3-1h9l3-9L30,21.75z"/><linearGradient id="IJsMgLoyOL2Cr5afe5K0ne" x1="35.5" x2="35.5" y1="4.682" y2="42.845" gradientUnits="userSpaceOnUse"><stop offset="0" stop-color="#889097"/><stop offset="1" stop-color="#64717c"/></linearGradient><path fill="url(#IJsMgLoyOL2Cr5afe5K0ne)" d="M33,5L33,5c6.627,0,12,5.373,12,12v8h-9c-5.523,0-10-4.477-10-10v-3C26,8.134,29.134,5,33,5z"/><linearGradient id="IJsMgLoyOL2Cr5afe5K0nf" x1="38" x2="40" y1="17" y2="17" gradientUnits="userSpaceOnUse"><stop offset=".002" stop-color="#454545"/><stop offset=".013" stop-color="#464646"/><stop offset=".875" stop-color="#626262"/><stop offset="1" stop-color="#6d6d6d"/></linearGradient><circle cx="39" cy="17" r="1" fill="url(#IJsMgLoyOL2Cr5afe5K0nf)"/><linearGradient id="IJsMgLoyOL2Cr5afe5K0ng" x1="25.5" x2="25.5" y1="3.182" y2="32.978" gradientUnits="userSpaceOnUse"><stop offset="0" stop-color="#a1aab3"/><stop offset="1" stop-color="#8f979e"/></linearGradient><path fill="url(#IJsMgLoyOL2Cr5afe5K0ng)" d="M32,12c0-4-2.91-7-6.5-7S19,8,19,14c0,5,3,9,8,11C27,25,27,25,32,12z"/><linearGradient id="IJsMgLoyOL2Cr5afe5K0nh" x1="12.955" x2="12.955" y1="39.795" y2="46.364" gradientUnits="userSpaceOnUse"><stop offset="0" stop-color="#f9f9f9"/><stop offset="1" stop-color="#c2c8cc"/></linearGradient><path fill="url(#IJsMgLoyOL2Cr5afe5K0nh)" d="M14.91,43.41C14.75,43.76,14.4,44,14,44h-3c0-1.1,0.9-2,2-2C13.89,42,14.66,42.59,14.91,43.41	z"/><linearGradient id="IJsMgLoyOL2Cr5afe5K0ni" x1="9" x2="9" y1="39.795" y2="46.364" gradientUnits="userSpaceOnUse"><stop offset="0" stop-color="#f9f9f9"/><stop offset="1" stop-color="#c2c8cc"/></linearGradient><path fill="url(#IJsMgLoyOL2Cr5afe5K0ni)" d="M11,44H7c0-1.1,0.9-2,2-2S11,42.9,11,44z"/><linearGradient id="IJsMgLoyOL2Cr5afe5K0nj" x1="27.955" x2="27.955" y1="39.795" y2="46.364" gradientUnits="userSpaceOnUse"><stop offset="0" stop-color="#f9f9f9"/><stop offset="1" stop-color="#c2c8cc"/></linearGradient><path fill="url(#IJsMgLoyOL2Cr5afe5K0nj)" d="M29.91,43.41C29.75,43.76,29.4,44,29,44h-3c0-1.1,0.9-2,2-2	C28.89,42,29.66,42.59,29.91,43.41z"/><linearGradient id="IJsMgLoyOL2Cr5afe5K0nk" x1="24" x2="24" y1="39.795" y2="46.364" gradientUnits="userSpaceOnUse"><stop offset="0" stop-color="#f9f9f9"/><stop offset="1" stop-color="#c2c8cc"/></linearGradient><path fill="url(#IJsMgLoyOL2Cr5afe5K0nk)" d="M26,44h-4c0-1.1,0.9-2,2-2S26,42.9,26,44z"/></svg>