<svg xmlns="http://www.w3.org/2000/svg" viewBox="0 0 48 48"><path fill="#ffc430" d="M32.997,26c-1,0-1.863-0.749-1.983-1.767l-2-17c-0.129-1.097,0.655-2.091,1.753-2.22	c1.093-0.137,2.09,0.656,2.22,1.753l2,17c0.129,1.097-0.655,2.091-1.753,2.22C33.154,25.996,33.075,26,32.997,26z"/><path fill="#ffc430" d="M29.502,26.001c-0.937,0-1.834-0.528-2.262-1.431l-9-19c-0.591-1.248-0.059-2.738,1.189-3.33	c1.249-0.589,2.739-0.058,3.33,1.189l9,19c0.591,1.248,0.059,2.738-1.189,3.33C30.225,25.923,29.86,26.001,29.502,26.001z"/><path fill="#ffc430" d="M27.5,27c-0.64,0-1.279-0.244-1.768-0.732l-8.782-8.782l-9.736-5.842	c-1.184-0.71-1.568-2.246-0.857-3.43c0.711-1.185,2.249-1.567,3.43-0.857l10,6c0.176,0.105,0.337,0.231,0.481,0.376l9,9	c0.977,0.977,0.977,2.559,0,3.535C28.779,26.756,28.14,27,27.5,27z"/><path fill="#ffc430" d="M8.5,30.185c-0.64,0-1.279-0.244-1.768-0.732c-0.977-0.977-0.977-2.559,0-3.535l5.185-5.185	C12.386,20.264,13.021,20,13.685,20h13.824c1.381,0,2.5,1.119,2.5,2.5s-1.119,2.5-2.5,2.5H14.72l-4.452,4.452	C9.779,29.94,9.14,30.185,8.5,30.185z"/><linearGradient id="u7hskp9K64coGBecwOKARa" x1="19.056" x2="19.056" y1="19.83" y2="42.016" gradientUnits="userSpaceOnUse"><stop offset="0" stop-color="#ffc430"/><stop offset=".41" stop-color="#fec130"/><stop offset=".72" stop-color="#fcb730"/><stop offset=".998" stop-color="#f7a72f"/><stop offset="1" stop-color="#f7a72f"/></linearGradient><path fill="url(#u7hskp9K64coGBecwOKARa)" d="M32.113,42H14.378c-0.809,0-1.583-0.327-2.148-0.906l-5.946-6.098	c-0.382-0.392-0.378-1.018,0.009-1.405l0.384-0.384c2.104-2.104,5.513-2.108,7.622-0.011L16.113,35h16V42z"/><linearGradient id="u7hskp9K64coGBecwOKARb" x1="30" x2="30" y1="19.947" y2="42.482" gradientUnits="userSpaceOnUse"><stop offset="0" stop-color="#ffc430"/><stop offset=".41" stop-color="#fec130"/><stop offset=".72" stop-color="#fcb730"/><stop offset=".998" stop-color="#f7a72f"/><stop offset="1" stop-color="#f7a72f"/></linearGradient><path fill="url(#u7hskp9K64coGBecwOKARb)" d="M37.447,26.894L34,20H16v5l2.785,0c2.611,0,4.943,1.909,5.191,4.509	C24.261,32.491,21.923,35,19,35h-2v7h25c1.105,0,2-0.895,2-2V30c0-1.105-0.895-2-2-2h-2.764C38.479,28,37.786,27.572,37.447,26.894z"/></svg>