<svg xmlns="http://www.w3.org/2000/svg" viewBox="0 0 48 48"><linearGradient id="d9f_BCiJWnazPHXekRvzha" x1="14.188" x2="34.451" y1="4.91" y2="44.334" gradientTransform="translate(-.022 -.14)" gradientUnits="userSpaceOnUse"><stop offset="0" stop-color="#0d61a9"/><stop offset="1" stop-color="#16528c"/></linearGradient><path fill="url(#d9f_BCiJWnazPHXekRvzha)" d="M35.018,41.825l-22,0.021c-3.866,0.004-7.003-3.127-7.007-6.993l-0.021-22	C5.986,8.987,9.117,5.85,12.983,5.847l22-0.021c3.866-0.004,7.003,3.127,7.007,6.993l0.021,22	C42.015,38.685,38.884,41.822,35.018,41.825z"/><linearGradient id="d9f_BCiJWnazPHXekRvzhb" x1="-359" x2="-351" y1="-229.472" y2="-229.472" gradientTransform="translate(389.237 268.957)" gradientUnits="userSpaceOnUse"><stop offset=".266" stop-color="#199ae0"/><stop offset=".582" stop-color="#1898de"/><stop offset=".745" stop-color="#1590d6"/><stop offset=".873" stop-color="#1083c9"/><stop offset=".982" stop-color="#0870b7"/><stop offset="1" stop-color="#076cb3"/></linearGradient><path fill="url(#d9f_BCiJWnazPHXekRvzhb)" d="M38.014,37.823l-7,0.007c-0.552,0.001-1,0.449-0.999,1.001l0.003,3l8-0.008L38.014,37.823z"/><linearGradient id="d9f_BCiJWnazPHXekRvzhc" x1="37.831" x2="42.034" y1="29.855" y2="41.764" gradientTransform="translate(-.022 -.14)" gradientUnits="userSpaceOnUse"><stop offset="0" stop-color="#32bdef"/><stop offset="1" stop-color="#1ea2e4"/></linearGradient><path fill="url(#d9f_BCiJWnazPHXekRvzhc)" d="M38.007,30.823l0.011,11l3.411-3.417c0.375-0.375,0.585-0.884,0.584-1.415l-0.007-7.172	l-3,0.003C38.454,29.822,38.007,30.27,38.007,30.823z"/><linearGradient id="d9f_BCiJWnazPHXekRvzhd" x1="-335" x2="-327" y1="882.528" y2="882.528" gradientTransform="rotate(180 -158.297 445.27)" gradientUnits="userSpaceOnUse"><stop offset=".266" stop-color="#199ae0"/><stop offset=".582" stop-color="#1898de"/><stop offset=".745" stop-color="#1590d6"/><stop offset=".873" stop-color="#1083c9"/><stop offset=".982" stop-color="#0870b7"/><stop offset="1" stop-color="#076cb3"/></linearGradient><path fill="url(#d9f_BCiJWnazPHXekRvzhd)" d="M9.987,9.849l7-0.007c0.552-0.001,1-0.449,0.999-1.001l-0.003-3l-8,0.008L9.987,9.849z"/><linearGradient id="d9f_BCiJWnazPHXekRvzhe" x1="61.832" x2="66.035" y1="1141.855" y2="1153.764" gradientTransform="rotate(180 36.268 579.912)" gradientUnits="userSpaceOnUse"><stop offset="0" stop-color="#32bdef"/><stop offset="1" stop-color="#1ea2e4"/></linearGradient><path fill="url(#d9f_BCiJWnazPHXekRvzhe)" d="M9.994,16.849l-0.011-11L6.572,9.267c-0.375,0.375-0.585,0.884-0.584,1.415l0.007,7.172	l3-0.003C9.547,17.85,9.994,17.402,9.994,16.849z"/><linearGradient id="d9f_BCiJWnazPHXekRvzhf" x1="-359" x2="-351" y1="-229.472" y2="-229.472" gradientTransform="matrix(-1 .00096 .00096 1 -340.763 269.659)" gradientUnits="userSpaceOnUse"><stop offset=".266" stop-color="#199ae0"/><stop offset=".582" stop-color="#1898de"/><stop offset=".745" stop-color="#1590d6"/><stop offset=".873" stop-color="#1083c9"/><stop offset=".982" stop-color="#0870b7"/><stop offset="1" stop-color="#076cb3"/></linearGradient><path fill="url(#d9f_BCiJWnazPHXekRvzhf)" d="M10.014,37.849l7-0.007c0.552-0.001,1,0.447,1.001,0.999l0.003,3l-8,0.008L10.014,37.849z"/><linearGradient id="d9f_BCiJWnazPHXekRvzhg" x1="37.832" x2="42.035" y1="29.855" y2="41.764" gradientTransform="matrix(-1 .00096 .00096 1 47.978 -.187)" gradientUnits="userSpaceOnUse"><stop offset="0" stop-color="#32bdef"/><stop offset="1" stop-color="#1ea2e4"/></linearGradient><path fill="url(#d9f_BCiJWnazPHXekRvzhg)" d="M10.007,30.849l0.011,11L6.6,38.439c-0.375-0.375-0.587-0.883-0.587-1.414l-0.007-7.172	l3-0.003C9.558,29.85,10.007,30.297,10.007,30.849z"/><linearGradient id="d9f_BCiJWnazPHXekRvzhh" x1="-335" x2="-327" y1="882.528" y2="882.528" gradientTransform="matrix(1 -.00096 -.00096 -1 365.834 890.036)" gradientUnits="userSpaceOnUse"><stop offset=".266" stop-color="#199ae0"/><stop offset=".582" stop-color="#1898de"/><stop offset=".745" stop-color="#1590d6"/><stop offset=".873" stop-color="#1083c9"/><stop offset=".982" stop-color="#0870b7"/><stop offset="1" stop-color="#076cb3"/></linearGradient><path fill="url(#d9f_BCiJWnazPHXekRvzhh)" d="M37.987,9.823l-7,0.007c-0.552,0.001-1-0.447-1.001-0.999l-0.003-3l8-0.008L37.987,9.823z"/><linearGradient id="d9f_BCiJWnazPHXekRvzhi" x1="61.831" x2="66.034" y1="1141.855" y2="1153.764" gradientTransform="matrix(1 -.00096 -.00096 -1 -22.907 1159.882)" gradientUnits="userSpaceOnUse"><stop offset="0" stop-color="#32bdef"/><stop offset="1" stop-color="#1ea2e4"/></linearGradient><path fill="url(#d9f_BCiJWnazPHXekRvzhi)" d="M37.994,16.823l-0.011-11l3.417,3.411c0.375,0.375,0.587,0.883,0.587,1.414l0.007,7.172	l-3,0.003C38.442,17.822,37.994,17.375,37.994,16.823z"/><path fill="#9dffce" d="M24.012,36.836c-0.552,0-0.999-0.447-1-0.999l-0.022-24c-0.001-0.552,0.447-1,0.999-1.001h0.001	c0.552,0,0.999,0.447,1,0.999l0.022,24C25.013,36.387,24.564,36.835,24.012,36.836L24.012,36.836z"/><path fill="#9dffce" d="M32.006,30.828c-0.552,0-0.999-0.447-1-0.999l-0.012-12c-0.001-0.552,0.446-1,0.999-1.001h0.001	c0.552,0,0.999,0.447,1,0.999l0.012,12C33.007,30.379,32.56,30.828,32.006,30.828L32.006,30.828z"/><path fill="#9dffce" d="M36.003,27.824c-0.552,0-0.999-0.447-1-0.999l-0.006-6c-0.001-0.552,0.446-1,0.999-1.001h0.001	c0.552,0,0.999,0.447,1,0.999l0.006,6C37.004,27.375,36.557,27.824,36.003,27.824L36.003,27.824z"/><path fill="#9dffce" d="M28.001,25.832c-0.552,0-0.999-0.447-1-0.999l-0.002-2c-0.001-0.552,0.446-1,0.999-1.001h0.001	c0.552,0,0.999,0.447,1,0.999l0.002,2C29.002,25.383,28.555,25.832,28.001,25.832L28.001,25.832z"/><path fill="#9dffce" d="M16.006,30.844c-0.552,0-0.999-0.447-1-0.999l-0.011-12c-0.001-0.552,0.447-1,0.999-1.001h0.001	c0.552,0,0.999,0.447,1,0.999l0.011,12C17.007,30.395,16.559,30.843,16.006,30.844L16.006,30.844z"/><path fill="#9dffce" d="M20.003,27.84c-0.552,0-0.999-0.447-1-0.999l-0.006-6c-0.001-0.552,0.446-1,0.999-1.001h0.001	c0.552,0,0.999,0.447,1,0.999l0.006,6C21.004,27.391,20.557,27.839,20.003,27.84L20.003,27.84z"/><path fill="#9dffce" d="M12.001,25.848c-0.552,0-0.999-0.447-1-0.999l-0.002-2c-0.001-0.552,0.446-1,0.999-1.001h0.001	c0.552,0,0.999,0.447,1,0.999l0.002,2C13.002,25.399,12.555,25.847,12.001,25.848L12.001,25.848z"/></svg>