<svg xmlns="http://www.w3.org/2000/svg" viewBox="0 0 48 48"><path fill="#bfc8d1" d="M44,9.5v2c0,0.28-0.22,0.5-0.5,0.5h-39C4.22,12,4,11.78,4,11.5v-2C4,9.22,4.22,9,4.5,9h39	C43.78,9,44,9.22,44,9.5z"/><path fill="#bfc8d1" d="M44,16.5v2c0,0.28-0.22,0.5-0.5,0.5h-39C4.22,19,4,18.78,4,18.5v-2C4,16.22,4.22,16,4.5,16h39	C43.78,16,44,16.22,44,16.5z"/><path fill="#bfc8d1" d="M44,23.5v2c0,0.28-0.22,0.5-0.5,0.5h-39C4.22,26,4,25.78,4,25.5v-2C4,23.22,4.22,23,4.5,23h39	C43.78,23,44,23.22,44,23.5z"/><path fill="#bfc8d1" d="M44,30.5v2c0,0.28-0.22,0.5-0.5,0.5h-39C4.22,33,4,32.78,4,32.5v-2C4,30.22,4.22,30,4.5,30h39	C43.78,30,44,30.22,44,30.5z"/><path fill="#bfc8d1" d="M44,37.5v2c0,0.28-0.22,0.5-0.5,0.5h-39C4.22,40,4,39.78,4,39.5v-2C4,37.22,4.22,37,4.5,37h39	C43.78,37,44,37.22,44,37.5z"/><linearGradient id="p2SudjGGucEQdgEUwt8oFa" x1="13.961" x2="30.831" y1="1.039" y2="47.388" gradientUnits="userSpaceOnUse"><stop offset=".002" stop-color="#427fdb"/><stop offset=".397" stop-color="#2668cb"/><stop offset=".763" stop-color="#1358bf"/><stop offset="1" stop-color="#0c52bb"/></linearGradient><path fill="url(#p2SudjGGucEQdgEUwt8oFa)" d="M24,17.389c0,0.822-0.134,1.573-0.406,2.251c-0.27,0.677-0.645,1.262-1.125,1.753	c-0.479,0.491-1.049,0.871-1.707,1.143c-0.66,0.27-1.373,0.404-2.143,0.404c-0.822,0-1.578-0.159-2.268-0.479	c-0.689-0.32-1.282-0.795-1.782-1.428c-0.499-0.632-0.885-1.419-1.159-2.36C13.137,17.734,13,16.643,13,15.403	c0-1.516,0.18-2.861,0.541-4.033c0.362-1.172,0.859-2.155,1.491-2.947s1.375-1.394,2.228-1.805C18.113,6.206,19.035,6,20.025,6	c0.616,0,1.178,0.042,1.684,0.126c0.508,0.084,0.912,0.198,1.217,0.343v2.387c-0.388-0.198-0.803-0.365-1.246-0.502	c-0.441-0.137-0.947-0.206-1.519-0.206c-0.641,0-1.231,0.13-1.771,0.388c-0.541,0.259-1.007,0.638-1.399,1.137	c-0.392,0.499-0.702,1.115-0.925,1.851c-0.225,0.734-0.341,1.582-0.349,2.542h0.069c0.35-0.541,0.824-0.968,1.422-1.28	c0.597-0.312,1.3-0.468,2.107-0.468c0.715,0,1.361,0.115,1.936,0.347c0.574,0.233,1.065,0.569,1.474,1.006	c0.407,0.438,0.721,0.972,0.942,1.6C23.89,15.899,24,16.605,24,17.389z M21.327,17.607c0-0.472-0.054-0.902-0.166-1.291	c-0.11-0.388-0.278-0.722-0.502-1c-0.225-0.277-0.506-0.493-0.845-0.645s-0.737-0.229-1.194-0.229c-0.456,0-0.858,0.083-1.205,0.246	c-0.346,0.164-0.638,0.38-0.874,0.646c-0.236,0.267-0.413,0.571-0.531,0.913c-0.118,0.343-0.178,0.693-0.178,1.052	c0,0.388,0.056,0.786,0.166,1.194c0.111,0.407,0.281,0.778,0.509,1.113c0.228,0.335,0.52,0.612,0.874,0.829s0.775,0.326,1.262,0.326	c0.434,0,0.818-0.08,1.153-0.24c0.335-0.16,0.616-0.381,0.84-0.662c0.225-0.282,0.396-0.616,0.514-1S21.327,18.056,21.327,17.607z"/><linearGradient id="p2SudjGGucEQdgEUwt8oFb" x1="7.087" x2="24.17" y1="3.694" y2="50.627" gradientUnits="userSpaceOnUse"><stop offset=".002" stop-color="#427fdb"/><stop offset=".397" stop-color="#2668cb"/><stop offset=".763" stop-color="#1358bf"/><stop offset="1" stop-color="#0c52bb"/></linearGradient><path fill="url(#p2SudjGGucEQdgEUwt8oFb)" d="M13.027,38.145c0-0.474,0.059-0.934,0.179-1.377c0.117-0.444,0.296-0.854,0.533-1.229	c0.237-0.375,0.536-0.712,0.896-1.01c0.359-0.299,0.78-0.54,1.263-0.723c-0.712-0.398-1.279-0.909-1.699-1.533	c-0.421-0.623-0.631-1.314-0.631-2.073c0-0.604,0.124-1.163,0.372-1.676c0.25-0.511,0.593-0.956,1.034-1.331	s0.959-0.668,1.556-0.878C17.124,26.106,17.774,26,18.479,26c0.712,0,1.368,0.108,1.968,0.322c0.601,0.214,1.121,0.509,1.561,0.884	s0.783,0.819,1.028,1.332c0.244,0.513,0.367,1.068,0.367,1.663c0,0.758-0.21,1.449-0.631,2.073	c-0.421,0.623-0.979,1.134-1.676,1.533c0.474,0.183,0.893,0.423,1.257,0.717c0.363,0.295,0.667,0.63,0.912,1.004	c0.244,0.375,0.428,0.785,0.551,1.229C23.939,37.2,24,37.662,24,38.145c0,0.719-0.135,1.377-0.402,1.974	c-0.267,0.596-0.642,1.107-1.125,1.531c-0.481,0.425-1.059,0.757-1.733,0.994C20.066,42.881,19.325,43,18.513,43	c-0.803,0-1.541-0.119-2.21-0.356c-0.669-0.237-1.246-0.569-1.733-0.994c-0.485-0.424-0.864-0.935-1.136-1.531	C13.163,39.522,13.027,38.863,13.027,38.145z M15.621,37.914c0,0.468,0.068,0.888,0.206,1.263c0.138,0.375,0.333,0.693,0.585,0.953	c0.254,0.26,0.558,0.459,0.914,0.597c0.356,0.138,0.751,0.206,1.188,0.206c0.42,0,0.807-0.07,1.159-0.211s0.656-0.345,0.912-0.609	c0.256-0.263,0.458-0.581,0.603-0.952c0.146-0.371,0.218-0.787,0.218-1.246c0-0.42-0.068-0.817-0.206-1.188	c-0.138-0.371-0.333-0.694-0.586-0.969c-0.252-0.275-0.556-0.494-0.912-0.654c-0.356-0.161-0.751-0.241-1.188-0.241	c-0.413,0-0.798,0.075-1.154,0.224c-0.356,0.15-0.663,0.36-0.919,0.631c-0.256,0.273-0.457,0.596-0.603,0.971	C15.694,37.062,15.621,37.471,15.621,37.914z M16.183,30.478c0,0.344,0.061,0.663,0.184,0.957c0.121,0.296,0.286,0.551,0.494,0.769	c0.206,0.218,0.449,0.389,0.728,0.511c0.28,0.123,0.579,0.184,0.901,0.184c0.322,0,0.622-0.064,0.901-0.19	c0.28-0.127,0.524-0.299,0.735-0.517c0.21-0.218,0.376-0.474,0.499-0.769c0.123-0.295,0.183-0.609,0.183-0.946	c0-0.345-0.059-0.667-0.177-0.965c-0.119-0.297-0.281-0.554-0.488-0.769c-0.206-0.214-0.451-0.382-0.735-0.504	c-0.282-0.123-0.589-0.184-0.918-0.184c-0.345,0-0.659,0.064-0.941,0.19c-0.284,0.127-0.526,0.301-0.729,0.522	c-0.203,0.222-0.36,0.48-0.47,0.774C16.239,29.837,16.183,30.148,16.183,30.478z"/></svg>