<svg xmlns="http://www.w3.org/2000/svg" viewBox="0 0 48 48"><path fill="#199be2" d="M19,23h-4v2h4c0.552,0,1-0.448,1-1S19.552,23,19,23z"/><path fill="#199be2" d="M19,19h-4v2h4c0.552,0,1-0.448,1-1S19.552,19,19,19z"/><path fill="#199be2" d="M19,15h-4v2h4c0.552,0,1-0.448,1-1S19.552,15,19,15z"/><path fill="#199be2" d="M19,11h-4v2h4c0.552,0,1-0.448,1-1S19.552,11,19,11z"/><path fill="#199be2" d="M19,7h-4v2h4c0.552,0,1-0.448,1-1S19.552,7,19,7z"/><path fill="#35c1f1" d="M19,26.947V5c0-0.552-0.448-1-1-1h-6c-0.552,0-1,0.448-1,1v21.947C8.039,28.421,6,31.469,6,35	c0,4.971,4.029,9,9,9s9-4.029,9-9C24,31.468,21.961,28.42,19,26.947z"/><circle cx="15" cy="35" r="6" fill="#af2031"/><rect width="2" height="12" x="14" y="19" fill="#af2031"/><rect width="2" height="12" x="14" y="7" fill="#1b9de2"/><linearGradient id="xC4Eex4ZyJYlUl~i7F4Uma" x1="36" x2="36" y1="-126.478" y2="-166.511" gradientTransform="matrix(-1 0 0 1 72 171.647)" gradientUnits="userSpaceOnUse"><stop offset="0" stop-color="#0858a1"/><stop offset="1" stop-color="#0078d3"/></linearGradient><path fill="url(#xC4Eex4ZyJYlUl~i7F4Uma)" d="M41.393,37H38V6c0-0.552-0.448-1-1-1h-2c-0.552,0-1,0.448-1,1v31h-3.393	c-0.54,0-0.81,0.653-0.428,1.034l4.964,4.964c0.473,0.473,1.241,0.473,1.714,0l4.964-4.964C42.203,37.653,41.933,37,41.393,37z"/></svg>