<svg xmlns="http://www.w3.org/2000/svg" id="Layer_1" x="0" y="0" version="1.1" viewBox="0 0 48 48" xml:space="preserve"><path fill="#37c6d0" d="M15,23H6v-8c0-0.6,0.4-1,1-1h7c0.6,0,1,0.4,1,1V23z"/><path fill="#37c6d0" d="M15,41H7c-0.6,0-1-0.4-1-1v-8h9V41z"/><path fill="#37c6d0" d="M32,41h-8v-9h8c0.6,0,1,0.4,1,1v7C33,40.6,32.6,41,32,41z"/><rect width="9" height="9" x="6" y="23" fill="#1a9ba1"/><rect width="9" height="9" x="15" y="32" fill="#1a9ba1"/><path fill="#37c6d0" d="M24,32h-9v-9h8c0.6,0,1,0.4,1,1V32z"/><path fill="#37c6d0" d="M41,15h-7c-0.6,0-1-0.4-1-1V7c0-0.6,0.4-1,1-1h7c0.6,0,1,0.4,1,1v7C42,14.6,41.6,15,41,15z"/><path fill="#37c6d0" d="M22.8,19.2l-4.9-4.9c-0.4-0.4-0.4-1,0-1.4l4.9-4.9c0.4-0.4,1-0.4,1.4,0l4.9,4.9c0.4,0.4,0.4,1,0,1.4l-4.9,4.9	C23.8,19.5,23.2,19.5,22.8,19.2z"/><path fill="#37c6d0" d="M41.1,26.8l-6.7,2c-0.5,0.2-1.1-0.1-1.2-0.7l-2-6.7c-0.2-0.5,0.1-1.1,0.7-1.2l6.7-2c0.5-0.2,1.1,0.1,1.2,0.7	l2,6.7C42,26.1,41.7,26.7,41.1,26.8z"/></svg>