<svg xmlns="http://www.w3.org/2000/svg" viewBox="0 0 48 48"><path fill="#0884db" d="M23.4,10.8l-5.3-4c-0.5-0.4-0.5-1.2,0-1.6l5.3-4C24.1,0.7,25,1.2,25,2v8C25,10.8,24.1,11.3,23.4,10.8z"/><path fill="#0884db" d="M17.4,10.8l-5.3-4c-0.5-0.4-0.5-1.2,0-1.6l5.3-4C18.1,0.7,19,1.2,19,2v8C19,10.8,18.1,11.3,17.4,10.8z"/><path fill="#0368ba" d="M25.1,44C13.6,44.6,4,35.4,4,24c0-4.4,1.5-8.6,4.1-12.1c0.3-0.4,1-0.5,1.4-0.1l1.5,1.3c0.4,0.4,0.4,1,0.1,1.4	C8.5,17.9,7.5,22.5,8.3,27c1.4,7.7,8.1,13.1,16,13c9.2-0.2,16.6-8.2,15.6-17.7l4.1,2.8C43.4,35.2,35.2,43.4,25.1,44z"/><path fill="#0884db" d="M24,44c0,0,16-3,16-20c0-8.8-7.2-16-16-16h-3.2V4H24c11,0,20,9,20,20S35,44,24,44z"/><path fill="#50e6ff" d="M20.8,17.1v13.6h-2.9V20.4c-0.2,0.1-0.4,0.3-0.6,0.4c-0.2,0.1-0.5,0.2-0.7,0.3c-0.2,0.1-0.5,0.2-0.8,0.3 c-0.3,0.1-0.5,0.1-0.8,0.2v-2.5c0.8-0.2,1.5-0.5,2.2-0.9c0.7-0.3,1.3-0.7,1.8-1.1H20.8z"/><path fill="#50e6ff" d="M24.6,30.3v-2.5c0.9,0.6,1.9,0.8,2.9,0.8c0.8,0,1.4-0.2,1.8-0.6c0.4-0.4,0.7-0.9,0.7-1.5c0-1.3-0.9-2-2.8-2 c-0.7,0-1.5,0.1-2.4,0.2l0.5-7.4h7v2.4h-4.8l-0.2,2.7c0.5,0,0.9-0.1,1.2-0.1c1.4,0,2.4,0.4,3.2,1.1c0.8,0.7,1.2,1.7,1.2,2.9 c0,1.3-0.5,2.4-1.4,3.3c-0.9,0.9-2.2,1.3-3.7,1.3C26.5,30.9,25.4,30.7,24.6,30.3z"/></svg>