<svg xmlns="http://www.w3.org/2000/svg" viewBox="0 0 48 48"><linearGradient id="RY0SNzXQDtn_orGdj3DW~a" x1="26.479" x2="31.352" y1="18.734" y2="23.607" gradientUnits="userSpaceOnUse"><stop offset="0" stop-color="#ffcf54"/><stop offset=".261" stop-color="#fdcb4d"/><stop offset=".639" stop-color="#f7c13a"/><stop offset="1" stop-color="#f0b421"/></linearGradient><path fill="url(#RY0SNzXQDtn_orGdj3DW~a)" d="M24,18v1.83c1.655,0.919,4,2.761,4,5.853v0.439C28,26.607,28.358,27,28.8,27H32v-9H24z"/><linearGradient id="RY0SNzXQDtn_orGdj3DW~b" x1="6" x2="6" y1="26.995" y2="40.976" gradientUnits="userSpaceOnUse"><stop offset="0" stop-color="#33bef0"/><stop offset="1" stop-color="#0a85d9"/></linearGradient><path fill="url(#RY0SNzXQDtn_orGdj3DW~b)" d="M6.5,42h-1C5.224,42,5,41.776,5,41.5v-12C5,29.224,5.224,29,5.5,29h1	C6.776,29,7,29.224,7,29.5v12C7,41.776,6.776,42,6.5,42z"/><linearGradient id="RY0SNzXQDtn_orGdj3DW~c" x1="10.5" x2="10.5" y1="26.995" y2="40.976" gradientUnits="userSpaceOnUse"><stop offset="0" stop-color="#33bef0"/><stop offset="1" stop-color="#0a85d9"/></linearGradient><path fill="url(#RY0SNzXQDtn_orGdj3DW~c)" d="M11.5,42h-2C9.224,42,9,41.776,9,41.5v-12C9,29.224,9.224,29,9.5,29h2	c0.276,0,0.5,0.224,0.5,0.5v12C12,41.776,11.776,42,11.5,42z"/><linearGradient id="RY0SNzXQDtn_orGdj3DW~d" x1="15" x2="15" y1="26.995" y2="40.976" gradientUnits="userSpaceOnUse"><stop offset="0" stop-color="#33bef0"/><stop offset="1" stop-color="#0a85d9"/></linearGradient><path fill="url(#RY0SNzXQDtn_orGdj3DW~d)" d="M15.5,42h-1c-0.276,0-0.5-0.224-0.5-0.5v-12c0-0.276,0.224-0.5,0.5-0.5h1	c0.276,0,0.5,0.224,0.5,0.5v12C16,41.776,15.776,42,15.5,42z"/><linearGradient id="RY0SNzXQDtn_orGdj3DW~e" x1="20" x2="20" y1="26.995" y2="40.976" gradientUnits="userSpaceOnUse"><stop offset="0" stop-color="#33bef0"/><stop offset="1" stop-color="#0a85d9"/></linearGradient><path fill="url(#RY0SNzXQDtn_orGdj3DW~e)" d="M21.5,42h-3c-0.276,0-0.5-0.224-0.5-0.5v-12c0-0.276,0.224-0.5,0.5-0.5h3	c0.276,0,0.5,0.224,0.5,0.5v12C22,41.776,21.776,42,21.5,42z"/><linearGradient id="RY0SNzXQDtn_orGdj3DW~f" x1="32" x2="32" y1="39.17" y2="21.38" gradientUnits="userSpaceOnUse"><stop offset=".503" stop-color="#a1aab3"/><stop offset=".658" stop-color="#9ea7af"/><stop offset=".796" stop-color="#949da5"/><stop offset=".928" stop-color="#848c92"/><stop offset="1" stop-color="#787f85"/></linearGradient><path fill="url(#RY0SNzXQDtn_orGdj3DW~f)" d="M30,17v16c0,1.105-0.895,2-2,2h-2c-1.105,0-2,0.895-2,2v3c0,1.105,0.895,2,2,2h4h5	c2.761,0,5-2.239,5-5v-2V17H30z"/><linearGradient id="RY0SNzXQDtn_orGdj3DW~g" x1="16" x2="44" y1="13.5" y2="13.5" gradientUnits="userSpaceOnUse"><stop offset="0" stop-color="#a1aab3"/><stop offset="1" stop-color="#8f979e"/></linearGradient><path fill="url(#RY0SNzXQDtn_orGdj3DW~g)" d="M36.5,21H16V6h20.5c4.142,0,7.5,3.358,7.5,7.5v0C44,17.642,40.642,21,36.5,21z"/><linearGradient id="RY0SNzXQDtn_orGdj3DW~h" x1="16" x2="16" y1="23.213" y2="7.667" gradientUnits="userSpaceOnUse"><stop offset="0" stop-color="#636363"/><stop offset=".36" stop-color="#585858"/><stop offset=".987" stop-color="#3c3c3c"/><stop offset=".998" stop-color="#3b3b3b"/></linearGradient><path fill="url(#RY0SNzXQDtn_orGdj3DW~h)" d="M16,21L16,21c-1.105,0-2-0.895-2-2V8c0-1.105,0.895-2,2-2h0c1.105,0,2,0.895,2,2v11	C18,20.105,17.105,21,16,21z"/></svg>