<svg xmlns="http://www.w3.org/2000/svg" viewBox="0 0 48 48"><linearGradient id="3BNspjHhipkJkAtAsYkRCa" x1="15.002" x2="33.584" y1="6.33" y2="42.484" gradientTransform="translate(-.022 .186)" gradientUnits="userSpaceOnUse"><stop offset="0" stop-color="#889097"/><stop offset="1" stop-color="#64717c"/></linearGradient><circle cx="24" cy="24" r="20" fill="url(#3BNspjHhipkJkAtAsYkRCa)"/><radialGradient id="3BNspjHhipkJkAtAsYkRCb" cx="24" cy="24" r="19" gradientUnits="userSpaceOnUse"><stop offset="0"/><stop offset="1" stop-opacity="0"/></radialGradient><circle cx="24" cy="24" r="19" fill="url(#3BNspjHhipkJkAtAsYkRCb)"/><radialGradient id="3BNspjHhipkJkAtAsYkRCc" cx="23.883" cy="6.418" r="40.112" gradientUnits="userSpaceOnUse"><stop offset="0" stop-color="#fafafb"/><stop offset="1" stop-color="#c8cdd1"/></radialGradient><circle cx="24" cy="24" r="18" fill="url(#3BNspjHhipkJkAtAsYkRCc)"/><circle cx="24" cy="24" r="6" fill="#c7d3de"/><circle cx="24" cy="24" r="2" fill="#45494d"/><line x1="17.5" x2="33" y1="30.5" y2="15" fill="none" stroke="#45494d" stroke-linecap="round" stroke-miterlimit="10" stroke-width="1.5"/><path fill="#45494d" d="M31.768,17h1.848c0.352,0,0.659-0.24,0.745-0.582l0.616-2.464c0.141-0.562-0.369-1.072-0.931-0.931	l-2.464,0.616C31.24,13.725,31,14.032,31,14.384v1.848C31,16.656,31.344,17,31.768,17z"/><path fill="none" stroke="#45494d" stroke-linecap="round" stroke-miterlimit="10" stroke-width="1.5" d="M16,30c1.105,0,2,0.895,2,2"/><circle cx="24" cy="9" r="1" fill="#abb4be"/><circle cx="39" cy="24" r="1" fill="#abb4be"/><circle cx="9" cy="24" r="1" fill="#abb4be"/><circle cx="13.393" cy="34.607" r="1" fill="#abb4be"/><circle cx="34.607" cy="34.607" r="1" fill="#abb4be"/><circle cx="13.393" cy="13.393" r="1" fill="#abb4be"/><circle cx="18.26" cy="10.142" r="1" fill="#abb4be"/><circle cx="37.858" cy="18.26" r="1" fill="#abb4be"/><circle cx="10.142" cy="29.74" r="1" fill="#abb4be"/><circle cx="29.74" cy="10.142" r="1" fill="#abb4be"/><circle cx="37.858" cy="29.74" r="1" fill="#abb4be"/><circle cx="10.142" cy="18.26" r="1" fill="#abb4be"/></svg>