<svg xmlns="http://www.w3.org/2000/svg" viewBox="0 0 48 48"><radialGradient id="_jedGVYduu0DW9EvDzhTFa" cx="13.66" cy="11.191" r="3.162" fx="10.811" fy="11.394" gradientUnits="userSpaceOnUse"><stop offset=".264" stop-color="#3a41ac"/><stop offset="1" stop-color="#5961c3"/></radialGradient><path fill="url(#_jedGVYduu0DW9EvDzhTFa)" d="M18,9h-7v4h7c0.552,0,1-0.448,1-1v-2C19,9.448,18.552,9,18,9z"/><linearGradient id="_jedGVYduu0DW9EvDzhTFb" x1="3" x2="43.953" y1="24.5" y2="24.5" gradientUnits="userSpaceOnUse"><stop offset="0" stop-color="#7b83eb"/><stop offset="1" stop-color="#5961c3"/></linearGradient><path fill="url(#_jedGVYduu0DW9EvDzhTFb)" d="M42.948,37h-2.007c-0.507,0-0.932,0.385-0.988,0.889C39.545,41.578,36.578,42,35.25,42 C32.907,42,31,39.972,31,37.479V36v-2v-5.749C31,22.047,26.065,17,20,17c-2.657,0-5.097,0.969-7,2.579V4c0-0.552-0.448-1-1-1h-2 C9.448,3,9,3.448,9,4v5H4c-0.552,0-1,0.448-1,1v2c0,0.552,0.448,1,1,1h5v15.251v7.721V40c0,0.552,0.448,1,1,1h2 c0.552,0,1-0.448,1-1v-4.028v-7.721C13,24.253,16.14,21,20,21s7,3.253,7,7.251V34v2v1.479C27,42.178,30.701,46,35.25,46 c4.867,0,8.249-3.128,8.699-7.896C44.005,37.515,43.54,37,42.948,37z"/></svg>