<svg xmlns="http://www.w3.org/2000/svg" viewBox="0 0 48 48"><linearGradient id="_iJivM5BA8s3iJWz-eYFta" x1="24" x2="24" y1="2.73" y2="34.486" gradientUnits="userSpaceOnUse"><stop offset="0" stop-color="#32bdef"/><stop offset="1" stop-color="#1ea2e4"/></linearGradient><path fill="url(#_iJivM5BA8s3iJWz-eYFta)" d="M40,42H8c-1.105,0-2-0.895-2-2V8c0-1.105,0.895-2,2-2h32c1.105,0,2,0.895,2,2v32	C42,41.105,41.105,42,40,42z"/><linearGradient id="_iJivM5BA8s3iJWz-eYFtb" x1="6.13" x2="41.477" y1="39.951" y2="32.763" gradientUnits="userSpaceOnUse"><stop offset="0" stop-color="#0077d2"/><stop offset="1" stop-color="#0b59a2"/></linearGradient><path fill="url(#_iJivM5BA8s3iJWz-eYFtb)" d="M40,42H8c-1.105,0-2-0.895-2-2v-9h36v9C42,41.105,41.105,42,40,42z"/><linearGradient id="_iJivM5BA8s3iJWz-eYFtc" x1="15.387" x2="16.344" y1="32.835" y2="38.555" gradientUnits="userSpaceOnUse"><stop offset="0" stop-color="#f0f0f0"/><stop offset="1" stop-color="#bbc1c4"/></linearGradient><path fill="url(#_iJivM5BA8s3iJWz-eYFtc)" d="M20.5,38h-9c-0.828,0-1.5-0.672-1.5-1.5l0,0c0-0.828,0.672-1.5,1.5-1.5h9	c0.828,0,1.5,0.672,1.5,1.5l0,0C22,37.328,21.328,38,20.5,38z"/><linearGradient id="_iJivM5BA8s3iJWz-eYFtd" x1="31.387" x2="32.344" y1="32.835" y2="38.555" gradientUnits="userSpaceOnUse"><stop offset="0" stop-color="#f0f0f0"/><stop offset="1" stop-color="#bbc1c4"/></linearGradient><path fill="url(#_iJivM5BA8s3iJWz-eYFtd)" d="M36.5,38h-9c-0.828,0-1.5-0.672-1.5-1.5l0,0c0-0.828,0.672-1.5,1.5-1.5h9	c0.828,0,1.5,0.672,1.5,1.5l0,0C38,37.328,37.328,38,36.5,38z"/><rect width="36" height="1" x="6" y="30" opacity=".05"/><rect width="36" height=".5" x="6" y="30.5" opacity=".07"/></svg>