<svg xmlns="http://www.w3.org/2000/svg" viewBox="0 0 48 48"><linearGradient id="_~exm6Poe2aSVEIUrcMgda" x1="6" x2="42" y1="36.5" y2="36.5" gradientUnits="userSpaceOnUse"><stop offset="0" stop-color="#0077d2"/><stop offset="1" stop-color="#0b59a2"/></linearGradient><path fill="url(#_~exm6Poe2aSVEIUrcMgda)" d="M6,34v3c0,1.105,0.895,2,2,2h6.172c0.53,0,1.039-0.211,1.414-0.586l0.828-0.828	C16.789,37.211,17.298,37,17.828,37h12.343c0.53,0,1.039,0.211,1.414,0.586l0.828,0.828C32.789,38.789,33.298,39,33.828,39H40	c1.105,0,2-0.895,2-2v-3H6z"/><linearGradient id="_~exm6Poe2aSVEIUrcMgdb" x1="2" x2="46" y1="23" y2="23" gradientUnits="userSpaceOnUse"><stop offset="0" stop-color="#28afea"/><stop offset="1" stop-color="#047ed6"/></linearGradient><path fill="url(#_~exm6Poe2aSVEIUrcMgdb)" d="M43,35H5c-1.657,0-3-1.343-3-3V14c0-1.657,1.343-3,3-3h38c1.657,0,3,1.343,3,3v18	C46,33.657,44.657,35,43,35z"/><rect width="2" height="2" x="22" y="19" fill="#e53935"/><path fill="#343434" d="M43,33H5c-0.552,0-1-0.448-1-1V14c0-0.552,0.448-1,1-1h38c0.552,0,1,0.448,1,1v18	C44,32.552,43.552,33,43,33z"/><rect width="2" height="2" x="22" y="25" fill="#e53935"/><path fill="#e53935" d="M33,28h-6V18h6V28z M29,26h2v-6h-2V26z"/><polygon fill="#e53935" points="17,18 17,22 15,22 15,18 13,18 13,24 15,24 17,24 17,28 19,28 19,18"/><path fill="#e53935" d="M41,28h-6V18h6V28z M37,26h2v-6h-2V26z"/></svg>