<svg xmlns="http://www.w3.org/2000/svg" xmlns:xlink="http://www.w3.org/1999/xlink" viewBox="0 0 48 48"><defs><linearGradient id="YusqkAeOSUlbua4awrgMAb" x1="24" x2="24" y1="654.753" y2="631.081" gradientTransform="matrix(1 0 0 -1 0 662)" gradientUnits="userSpaceOnUse"><stop offset="0" stop-color="#dae0e8"/><stop offset=".359" stop-color="#d7dde6"/><stop offset=".621" stop-color="#ced5df"/><stop offset=".85" stop-color="#bec7d2"/><stop offset="1" stop-color="#afbac7"/></linearGradient><linearGradient id="YusqkAeOSUlbua4awrgMAc" x1="24" x2="24" y1="631.917" y2="613.608" gradientTransform="matrix(1 0 0 -1 0 662)" gradientUnits="userSpaceOnUse"><stop offset="0" stop-color="#636363"/><stop offset="1" stop-color="#444"/></linearGradient><linearGradient id="YusqkAeOSUlbua4awrgMAa" x1="24" x2="24" y1="23.555" y2="17.226" gradientUnits="userSpaceOnUse"><stop offset="0" stop-color="#947947"/><stop offset=".12" stop-color="#9f824b"/><stop offset=".698" stop-color="#d0ac5d"/><stop offset=".984" stop-color="#e3bc64"/></linearGradient><linearGradient id="YusqkAeOSUlbua4awrgMAd" x1="6" x2="6" y1="19.818" y2="3.648" gradientUnits="userSpaceOnUse"><stop offset="0" stop-color="#947947"/><stop offset=".097" stop-color="#9f824b"/><stop offset=".561" stop-color="#d0ac5d"/><stop offset=".791" stop-color="#e3bc64"/></linearGradient><linearGradient id="YusqkAeOSUlbua4awrgMAe" y1="19.193" y2="14.162" xlink:href="#YusqkAeOSUlbua4awrgMAa"/><linearGradient id="YusqkAeOSUlbua4awrgMAf" x1="19" x2="19" y1="15.952" y2="8.708" gradientUnits="userSpaceOnUse"><stop offset="0" stop-color="#e3bc64"/><stop offset="1" stop-color="#e3bc64"/></linearGradient><linearGradient id="YusqkAeOSUlbua4awrgMAg" x1="35" x2="35" y1="628.333" y2="623.993" gradientTransform="matrix(1 0 0 -1 0 662)" gradientUnits="userSpaceOnUse"><stop offset="0" stop-color="#75ff8a"/><stop offset="1" stop-color="#1ee446"/></linearGradient></defs><g data-name="Слой 2"><path fill="url(#YusqkAeOSUlbua4awrgMAb)" d="M10.764,6H37.235a2,2,0,0,1,1.984,1.751L42,32H6L8.78,7.751A2,2,0,0,1,10.764,6Z"/><path fill="url(#YusqkAeOSUlbua4awrgMAc)" d="M40,30H8a2,2,0,0,0-2,2v8a2,2,0,0,0,2,2H40a2,2,0,0,0,2-2V32A2,2,0,0,0,40,30Z"/><path fill="url(#YusqkAeOSUlbua4awrgMAa)" d="M12,18H36a0,0,0,0,1,0,0v4a1,1,0,0,1-1,1H13a1,1,0,0,1-1-1V18A0,0,0,0,1,12,18Z"/><path fill="url(#YusqkAeOSUlbua4awrgMAd)" d="M8.824,13A6.47,6.47,0,0,1,8,12.941v-.66H5.828a6.015,6.015,0,0,0-3.634,0L0,12.51v2.021H.005C.032,15.9,1.808,17,4,17a5.637,5.637,0,0,0,2.34-.481A5.943,5.943,0,0,1,8.824,16H12V13Z"/><path fill="url(#YusqkAeOSUlbua4awrgMAe)" d="M10,15H38a0,0,0,0,1,0,0v2a1,1,0,0,1-1,1H11a1,1,0,0,1-1-1V15A0,0,0,0,1,10,15Z"/><path fill="url(#YusqkAeOSUlbua4awrgMAf)" d="M37.99,14.859l-.867-5A1,1,0,0,0,36.133,9H11.867a1,1,0,0,0-.99.859L10.714,11H8.824a5.943,5.943,0,0,1-2.484-.519A5.637,5.637,0,0,0,4,10c-2.209,0-4,1.119-4,2.5S1.791,15,4,15a5.657,5.657,0,0,0,2.34-.48A5.928,5.928,0,0,1,8.824,14h1.315l-.122.859A1,1,0,0,0,11.006,16H37A1,1,0,0,0,37.99,14.859Z"/><path style="isolation:isolate" d="M35,34a2,2,0,1,1-2,2,2,2,0,0,1,2-2m0-1a3,3,0,1,0,3,3,3,3,0,0,0-3-3Z" opacity=".05"/><path style="isolation:isolate" d="M35,34a2,2,0,1,1-2,2,2,2,0,0,1,2-2m0-.5A2.5,2.5,0,1,0,37.5,36,2.5,2.5,0,0,0,35,33.5Z" opacity=".07"/><circle cx="35" cy="36" r="2" fill="url(#YusqkAeOSUlbua4awrgMAg)"/></g></svg>