<svg xmlns="http://www.w3.org/2000/svg" viewBox="0 0 48 48"><linearGradient id="8aKDYgpUnjFwMY467AEbua" x1="13.302" x2="53.378" y1="36.699" y2="-3.378" gradientTransform="matrix(1 0 0 -1 0 50)" gradientUnits="userSpaceOnUse"><stop offset="0" stop-color="#dfe9f2"/><stop offset=".998" stop-color="#9ea7b0"/></linearGradient><path fill="url(#8aKDYgpUnjFwMY467AEbua)" d="M44,24c0-11.045-8.955-20-20-20S4,12.955,4,24s8.955,20,20,20S44,35.045,44,24z"/><linearGradient id="8aKDYgpUnjFwMY467AEbub" x1="12.874" x2="39.814" y1="11.699" y2="41.485" gradientUnits="userSpaceOnUse"><stop offset="0" stop-color="#0d61a9"/><stop offset="1" stop-color="#16528c"/></linearGradient><path fill="url(#8aKDYgpUnjFwMY467AEbub)" d="M8.972,10.833C12.638,6.653,18.004,4,24,4s11.362,2.653,15.028,6.833L24,20.439L8.972,10.833z M24,27.561L8.972,37.167C12.638,41.347,18.004,44,24,44s11.362-2.653,15.028-6.833L24,27.561z M42.268,32.117	C43.373,29.635,44,26.893,44,24s-0.627-5.635-1.732-8.117L29.57,24L42.268,32.117z M5.732,15.883C4.627,18.365,4,21.107,4,24	s0.627,5.635,1.732,8.117L18.43,24L5.732,15.883z"/></svg>