<svg xmlns="http://www.w3.org/2000/svg" viewBox="0 0 48 48"><linearGradient id="XgkDpubhWSEWSAQlZ36QJa" x1="16.037" x2="31.123" y1="7.198" y2="43.196" gradientUnits="userSpaceOnUse"><stop offset="0" stop-color="#eba84b"/><stop offset="1" stop-color="#d97218"/></linearGradient><path fill="url(#XgkDpubhWSEWSAQlZ36QJa)" d="M40,42H8c-1.1,0-2-0.9-2-2V12h36v28C42,41.1,41.1,42,40,42z"/><rect width="10" height="2" x="28" y="37" fill="#633412"/><polygon fill="#633412" points="38,32 36,30 34,32 35,32 35,35 37,35 37,32"/><polygon fill="#633412" points="32,32 30,30 28,32 29,32 29,35 31,35 31,32"/><path fill="#fabb62" d="M43,12H5V8c0-1.1,0.9-2,2-2h34c1.1,0,2,0.9,2,2V12z"/></svg>