<svg xmlns="http://www.w3.org/2000/svg" viewBox="0 0 48 48"><linearGradient id="~6VgviRo56gqnD6W0rZaha" x1="16.86" x2="29.576" y1="660.467" y2="620.454" gradientTransform="matrix(1 0 0 -1 0 662)" gradientUnits="userSpaceOnUse"><stop offset="0" stop-color="#c77740"/><stop offset="1" stop-color="#b0622b"/></linearGradient><path fill="url(#~6VgviRo56gqnD6W0rZaha)" d="M38,4H26c0,1.105-0.895,2-2,2s-2-0.895-2-2H10C8.895,4,8,4.895,8,6v36c0,1.105,0.895,2,2,2h28	c1.105,0,2-0.895,2-2V6C40,4.895,39.105,4,38,4z"/><linearGradient id="~6VgviRo56gqnD6W0rZahb" x1="24" x2="24" y1="625.034" y2="621.107" gradientTransform="matrix(1 0 0 -1 0 662)" gradientUnits="userSpaceOnUse"><stop offset=".442" stop-color="#878786"/><stop offset=".594" stop-color="#9f9f9e"/><stop offset=".859" stop-color="#c3c3c3"/><stop offset="1" stop-color="#d1d1d1"/></linearGradient><path fill="url(#~6VgviRo56gqnD6W0rZahb)" d="M37,42H11c-0.552,0-1-0.448-1-1v-9h28v9C38,41.552,37.552,42,37,42z"/><path fill="#f3f3f3" d="M37,40H11c-0.552,0-1-0.448-1-1V7c0-0.552,0.448-1,1-1h26c0.552,0,1,0.448,1,1v32	C38,39.552,37.552,40,37,40z"/><linearGradient id="~6VgviRo56gqnD6W0rZahc" x1="637.07" x2="638.954" y1="860.928" y2="853.091" gradientTransform="matrix(-1 0 0 1 662 -851)" gradientUnits="userSpaceOnUse"><stop offset="0" stop-color="#c3cdd9"/><stop offset="1" stop-color="#9fa7b0"/></linearGradient><path fill="url(#~6VgviRo56gqnD6W0rZahc)" d="M31,8V4h-4.184C26.403,2.837,25.304,2,24,2s-2.403,0.837-2.816,2H17v4c0,0.552,0.448,1,1,1h12	C30.552,9,31,8.552,31,8z M24,4c0.552,0,1,0.448,1,1s-0.448,1-1,1s-1-0.448-1-1S23.448,4,24,4z"/><linearGradient id="~6VgviRo56gqnD6W0rZahd" x1="14.697" x2="17.835" y1="15.5" y2="15.5" gradientUnits="userSpaceOnUse"><stop offset="0" stop-color="#3079d6"/><stop offset="1" stop-color="#297cd2"/></linearGradient><path fill="url(#~6VgviRo56gqnD6W0rZahd)" d="M17.835,18h-3.11v-0.857h1.018V14.08l-1.046,0.226v-0.878L16.823,13v4.143h1.012V18z"/><linearGradient id="~6VgviRo56gqnD6W0rZahe" x1="14.5" x2="17.786" y1="23.5" y2="23.5" gradientUnits="userSpaceOnUse"><stop offset="0" stop-color="#3079d6"/><stop offset="1" stop-color="#297cd2"/></linearGradient><path fill="url(#~6VgviRo56gqnD6W0rZahe)" d="M15.742,25.081v0.021h1.996V26H14.5v-0.844l1.409-1.348c0.283-0.272,0.483-0.5,0.598-0.684	c0.115-0.184,0.173-0.378,0.173-0.581c0-0.453-0.243-0.679-0.73-0.679c-0.423,0-0.828,0.168-1.214,0.504v-0.953	C15.164,21.138,15.647,21,16.184,21c0.503,0,0.895,0.126,1.178,0.379c0.282,0.252,0.424,0.594,0.424,1.024	c0,0.574-0.344,1.167-1.032,1.78L15.742,25.081z"/><linearGradient id="~6VgviRo56gqnD6W0rZahf" x1="14.527" x2="17.884" y1="31.5" y2="31.5" gradientUnits="userSpaceOnUse"><stop offset="0" stop-color="#3079d6"/><stop offset="1" stop-color="#297cd2"/></linearGradient><path fill="url(#~6VgviRo56gqnD6W0rZahf)" d="M14.527,33.959v-1.01c0.353,0.257,0.764,0.386,1.234,0.386c0.296,0,0.527-0.064,0.692-0.191	c0.165-0.127,0.248-0.305,0.248-0.532c0-0.235-0.102-0.416-0.307-0.543c-0.204-0.127-0.485-0.191-0.843-0.191h-0.474v-0.889h0.437	c0.685,0,1.028-0.228,1.028-0.683c0-0.428-0.263-0.643-0.79-0.643c-0.353,0-0.695,0.114-1.028,0.342v-0.947	c0.37-0.186,0.801-0.279,1.293-0.279c0.538,0,0.958,0.121,1.258,0.364s0.45,0.557,0.45,0.944c0,0.688-0.349,1.119-1.047,1.293v0.018	c0.372,0.046,0.666,0.182,0.881,0.406c0.215,0.224,0.323,0.499,0.323,0.824c0,0.492-0.18,0.881-0.54,1.168	c-0.36,0.286-0.857,0.43-1.491,0.43C15.31,34.223,14.868,34.135,14.527,33.959z"/><linearGradient id="~6VgviRo56gqnD6W0rZahg" x1="20" x2="34" y1="16" y2="16" gradientUnits="userSpaceOnUse"><stop offset="0" stop-color="#42a3f2"/><stop offset="1" stop-color="#42a4eb"/></linearGradient><path fill="url(#~6VgviRo56gqnD6W0rZahg)" d="M33.5,17h-13c-0.276,0-0.5-0.224-0.5-0.5v-1c0-0.276,0.224-0.5,0.5-0.5h13	c0.276,0,0.5,0.224,0.5,0.5v1C34,16.776,33.776,17,33.5,17z"/><linearGradient id="~6VgviRo56gqnD6W0rZahh" x1="20" x2="34" y1="24" y2="24" gradientUnits="userSpaceOnUse"><stop offset="0" stop-color="#42a3f2"/><stop offset="1" stop-color="#42a4eb"/></linearGradient><path fill="url(#~6VgviRo56gqnD6W0rZahh)" d="M33.5,25h-13c-0.276,0-0.5-0.224-0.5-0.5v-1c0-0.276,0.224-0.5,0.5-0.5h13	c0.276,0,0.5,0.224,0.5,0.5v1C34,24.776,33.776,25,33.5,25z"/><linearGradient id="~6VgviRo56gqnD6W0rZahi" x1="20" x2="34" y1="32" y2="32" gradientUnits="userSpaceOnUse"><stop offset="0" stop-color="#42a3f2"/><stop offset="1" stop-color="#42a4eb"/></linearGradient><path fill="url(#~6VgviRo56gqnD6W0rZahi)" d="M33.5,33h-13c-0.276,0-0.5-0.224-0.5-0.5v-1c0-0.276,0.224-0.5,0.5-0.5h13	c0.276,0,0.5,0.224,0.5,0.5v1C34,32.776,33.776,33,33.5,33z"/></svg>