<svg xmlns="http://www.w3.org/2000/svg" data-name="Слой 1" viewBox="0 0 48 48"><defs><linearGradient id="cNUBcf2Yja6AWpoEXuDwna" x1="12.886" x2="30.092" y1="-1.132" y2="46.14" data-name="Безымянный градиент 143" gradientUnits="userSpaceOnUse"><stop offset="0" stop-color="#889097"/><stop offset="1" stop-color="#4c5963"/></linearGradient><linearGradient id="cNUBcf2Yja6AWpoEXuDwnb" x1="19.888" x2="29.218" y1="13.567" y2="39.203" data-name="Безымянный градиент 11" gradientUnits="userSpaceOnUse"><stop offset="0" stop-color="#a1aab3"/><stop offset="1" stop-color="#8f979e"/></linearGradient></defs><path fill="#64717c" d="M28.5,2h0A1.5,1.5,0,0,1,30,3.5V16a0,0,0,0,1,0,0H27a0,0,0,0,1,0,0V3.5A1.5,1.5,0,0,1,28.5,2Z"/><path fill="#8f979e" d="M26,14h5a1,1,0,0,1,1,1v4a0,0,0,0,1,0,0H25a0,0,0,0,1,0,0V15A1,1,0,0,1,26,14Z"/><path fill="#8f979e" d="M17,14h3a1,1,0,0,1,1,1v5a0,0,0,0,1,0,0H16a0,0,0,0,1,0,0V15A1,1,0,0,1,17,14Z"/><path fill="#e52030" d="M13,21h3a0,0,0,0,1,0,0v3a0,0,0,0,1,0,0H13a1,1,0,0,1-1-1V22A1,1,0,0,1,13,21Z"/><path fill="#8f979e" d="M13,26h3a0,0,0,0,1,0,0v6a0,0,0,0,1,0,0H13a1,1,0,0,1-1-1V27A1,1,0,0,1,13,26Z"/><path fill="url(#cNUBcf2Yja6AWpoEXuDwna)" d="M34,19.341a1.98874,1.98874,0,0,0-1.30675-1.87668,26.53752,26.53752,0,0,0-17.3865,0A1.98874,1.98874,0,0,0,14,19.341V30a63.15252,63.15252,0,0,0,1.1442,12.84617A3.98619,3.98619,0,0,0,19.05433,46h10.0324a4.00791,4.00791,0,0,0,3.94085-3.31214A72.45683,72.45683,0,0,0,34,30Z"/><path d="M24,18c4.43964,0,6.68924,1.095,7.559,1.66457A.98581.98581,0,0,1,32,20.4951V28a8,8,0,0,1-16,0V20.4951a.98581.98581,0,0,1,.441-.83053C17.31076,19.095,19.56036,18,24,18m0-1c-4.62469,0-7.06427,1.14528-8.10687,1.828A1.98282,1.98282,0,0,0,15,20.4951V28a9,9,0,0,0,18,0V20.4951a1.9828,1.9828,0,0,0-.89316-1.66714C31.06427,18.14528,28.62469,17,24,17Z" opacity=".05"/><path d="M24,18c4.43964,0,6.68924,1.095,7.559,1.66457A.98581.98581,0,0,1,32,20.4951V28a8,8,0,0,1-16,0V20.4951a.98581.98581,0,0,1,.441-.83053C17.31076,19.095,19.56036,18,24,18m0-.5c-4.49493,0-6.837,1.09409-7.83295,1.74627A1.48432,1.48432,0,0,0,15.5,20.4951V28a8.5,8.5,0,0,0,17,0V20.4951a1.48432,1.48432,0,0,0-.667-1.24883C30.837,18.59409,28.49493,17.5,24,17.5Z" opacity=".07"/><path fill="url(#cNUBcf2Yja6AWpoEXuDwnb)" d="M24,36h0a8,8,0,0,1-8-8V20.4951a.98582.98582,0,0,1,.441-.83053C17.31076,19.095,19.56036,18,24,18s6.68924,1.095,7.559,1.66457A.98582.98582,0,0,1,32,20.4951V28A8,8,0,0,1,24,36Z"/><rect width="12" height="2" x="18" y="21" fill="#64717c" rx="1"/><rect width="12" height="2" x="18" y="25" fill="#64717c" rx="1"/><rect width="10" height="2" x="19" y="29" fill="#64717c" rx="1"/><rect width="6" height="2" x="21" y="41" fill="#343434" rx="1"/></svg>