<svg xmlns="http://www.w3.org/2000/svg" xmlns:xlink="http://www.w3.org/1999/xlink" data-name="Слой 1" viewBox="0 0 48 48"><defs><linearGradient id="2ar6kk7tr09ZDuFDqySH_b" x1="3.503" x2="25" y1="13.379" y2="13.379" data-name="Безымянный градиент 130" gradientUnits="userSpaceOnUse"><stop offset="0" stop-color="#42a3f2"/><stop offset="1" stop-color="#42a4eb"/></linearGradient><linearGradient id="2ar6kk7tr09ZDuFDqySH_c" x1="17" x2="45" y1="27" y2="27" data-name="Безымянный градиент 127" gradientUnits="userSpaceOnUse"><stop offset="0" stop-color="#1d59b3"/><stop offset="1" stop-color="#195bbc"/></linearGradient><linearGradient id="2ar6kk7tr09ZDuFDqySH_a" x1="10.064" x2="19.79" y1="-949.554" y2="-949.554" data-name="Безымянный градиент 122" gradientTransform="matrix(1 0 0 -1 0 -936)" gradientUnits="userSpaceOnUse"><stop offset="0" stop-color="#11408a"/><stop offset="1" stop-color="#103f8f"/></linearGradient><linearGradient id="2ar6kk7tr09ZDuFDqySH_d" x1="9" x2="21" y1="-949.5" y2="-949.5" xlink:href="#2ar6kk7tr09ZDuFDqySH_a"/><linearGradient id="2ar6kk7tr09ZDuFDqySH_e" x1="14" x2="16" y1="-944" y2="-944" xlink:href="#2ar6kk7tr09ZDuFDqySH_a"/></defs><path fill="url(#2ar6kk7tr09ZDuFDqySH_b)" d="M15,3a10.02223,10.02223,0,0,0-2.97.45c-.31006.09-.62006.21-.92.33-.3.13-.59.28-.88.43h-.01A10.00527,10.00527,0,0,0,5,13a10.21144,10.21144,0,0,0,.19,1.94c.04.16.07.32.11.47a.29192.29192,0,0,0,.02.09c.07.28.16.55.25.82.08.23.16.45.26.67.08984.20215.18573.39886.28637.593-.1123-.20984-.18621-.35761-.16638-.313a.14951.14951,0,0,0-.03.07L3.57,22.68a.76575.76575,0,0,0,1.05.99l4.72-2.4C9,21,9,21,8.88,20.9a9.81049,9.81049,0,0,0,3.62,1.78,2.61268,2.61268,0,0,0,.38.09,1.64122,1.64122,0,0,0,.32.06,4.8474,4.8474,0,0,0,.55.09c.16.02.32.04.49.05.25.02.5.03.76.03a10.00471,10.00471,0,0,0,8.79-5.22v-.01c.15-.29.3-.58.43-.88.12006-.3.24005-.61.33-.92A10.00337,10.00337,0,0,0,15,3ZM6.19781,17.73328c.10077.18542.205.36877.32221.54669C6.41412,18.1192,6.2981,17.91626,6.19781,17.73328Z"/><path fill="url(#2ar6kk7tr09ZDuFDqySH_c)" d="M35.375,32.77149V31.018c1.93089-1.33951,3.5-3.27987,3.5-5.00048v-1.197h.08048a.8926.8926,0,0,0,.91089-.64512l.301-1.48467a1.16673,1.16673,0,0,0-.9698-1.30338A28.47727,28.47727,0,0,0,39.75,16.97345a6.19705,6.19705,0,0,0-3.03-4.8799A5.33508,5.33508,0,0,0,37.125,10H31.19162c-2.869,0-4.04591,1.17642-4.41821,1.67788a.92576.92576,0,0,0-.14841.22348c-1.54877.22752-4.375,2.4881-4.375,5.07209a23.73072,23.73072,0,0,0,.57,4.40878,1.1706,1.1706,0,0,0-.98737,1.30849l.301,1.48467a.8926.8926,0,0,0,.91089.64512H23.125v1.197c0,1.72061,1.56911,3.661,3.5,5.00048v1.75354C21.03758,34.01038,17,37.50783,17,41.25994v.99647A1.74634,1.74634,0,0,0,18.75,44h24.5A1.74634,1.74634,0,0,0,45,42.25641v-.99647C45,37.50783,40.96242,34.01038,35.375,32.77149Z"/><path fill="#fff" d="M27.984,23h6v2h-6Z"/><path fill="#fff" d="M28.093,27l2.891-9,2.906,9H36L31.984,15h-2l-4,12Z"/><g><path fill="url(#2ar6kk7tr09ZDuFDqySH_a)" d="M10.064,17.223A24.98066,24.98066,0,0,0,18,8.108L19.79,9a25.75338,25.75338,0,0,1-8.509,10Z"/><path fill="url(#2ar6kk7tr09ZDuFDqySH_d)" d="M19,19a22.58047,22.58047,0,0,1-7.769-6.998L13,11c2.333,3.833,6.981,6.26,6.981,6.26ZM9,8H21v2H9Z"/><path fill="url(#2ar6kk7tr09ZDuFDqySH_e)" d="M14,6h2v4H14Z"/></g></svg>