<svg xmlns="http://www.w3.org/2000/svg" viewBox="0 0 48 48"><linearGradient id="Lt3ygQHa0CnfT4ZMuDKRga" x1="8.47" x2="39.481" y1="19.534" y2="37.438" gradientUnits="userSpaceOnUse"><stop offset="0" stop-color="#a34f27"/><stop offset=".587" stop-color="#8b3817"/><stop offset="1" stop-color="#802d10"/></linearGradient><path fill="url(#Lt3ygQHa0CnfT4ZMuDKRga)" d="M32.5,27c-2.761,0-4.814-0.528-5.777-1.683C26.25,24.75,26,24.25,26,24v-1h-4v1	c0,0.25-0.25,0.75-0.723,1.317C20.314,26.472,18.261,27,15.5,27h-5c-0.276,0-0.5,0.224-0.5,0.5v2c0,0.276,0.224,0.5,0.5,0.5h6	c3.555,0,6.008-0.61,7.5-1.846C25.492,29.39,27.945,30,31.5,30h6c0.276,0,0.5-0.224,0.5-0.5v-2c0-0.276-0.224-0.5-0.5-0.5H32.5z"/></svg>