<svg xmlns="http://www.w3.org/2000/svg" viewBox="0 0 48 48"><path fill="#185abd" d="M24,23V10c0-1.105,0.895-2,2-2h10c1.105,0,2,0.895,2,2v13H24z"/><linearGradient id="7dt80yFl6BDPms5ir4iAMa" x1="17" x2="17" y1="4.333" y2="40.088" gradientUnits="userSpaceOnUse"><stop offset="0" stop-color="#4191fd"/><stop offset="1" stop-color="#55acfd"/></linearGradient><path fill="url(#7dt80yFl6BDPms5ir4iAMa)" d="M24,25v13c0,1.105-0.895,2-2,2H12c-1.105,0-2-0.895-2-2V25H24z"/><path fill="#185abd" d="M18.414,30H24v-8h14v8h5.586c0.891,0,1.337,1.077,0.707,1.707L32.772,43.228	c-0.979,0.979-2.565,0.979-3.544,0L17.707,31.707C17.077,31.077,17.523,30,18.414,30z"/><linearGradient id="7dt80yFl6BDPms5ir4iAMb" x1="17" x2="17" y1="4.333" y2="40.088" gradientUnits="userSpaceOnUse"><stop offset="0" stop-color="#4191fd"/><stop offset="1" stop-color="#55acfd"/></linearGradient><path fill="url(#7dt80yFl6BDPms5ir4iAMb)" d="M29.586,18H24v8H10v-8H4.414c-0.891,0-1.337-1.077-0.707-1.707L15.228,4.772	c0.979-0.979,2.565-0.979,3.544,0l11.521,11.521C30.923,16.923,30.477,18,29.586,18z"/></svg>