<svg xmlns="http://www.w3.org/2000/svg" viewBox="0 0 48 48"><circle cx="24" cy="24" r="17" fill="#e8457c"/><circle cx="19.886" cy="16.579" r="4.5" fill="#fff"/><path d="M19.884,12.077c0.411,0,0.828,0.057,1.242,0.175c2.389,0.685,3.77,3.177,3.085,5.566 c-0.566,1.974-2.367,3.261-4.324,3.261c-0.411,0-0.828-0.057-1.242-0.175c-2.389-0.685-3.77-3.177-3.085-5.566 C16.127,13.364,17.928,12.078,19.884,12.077 M19.884,11.577L19.884,11.577c-2.217,0-4.193,1.49-4.804,3.623 c-0.76,2.65,0.778,5.425,3.428,6.184c0.451,0.129,0.915,0.195,1.38,0.195c2.217,0,4.193-1.49,4.804-3.623 c0.76-2.65-0.778-5.425-3.428-6.184C20.814,11.643,20.349,11.577,19.884,11.577L19.884,11.577z" opacity=".07"/><path d="M19.884,12.077c0.411,0,0.828,0.057,1.242,0.175c2.389,0.685,3.77,3.177,3.085,5.566 c-0.566,1.974-2.367,3.261-4.324,3.261c-0.411,0-0.828-0.057-1.242-0.175c-2.389-0.685-3.77-3.177-3.085-5.566 C16.127,13.364,17.928,12.078,19.884,12.077 M19.884,11.077L19.884,11.077c-2.439,0-4.612,1.639-5.285,3.985 c-0.836,2.915,0.856,5.967,3.771,6.803c0.496,0.142,1.006,0.214,1.518,0.214c2.439,0,4.612-1.639,5.285-3.985 c0.836-2.915-0.856-5.967-3.771-6.803C20.907,11.15,20.396,11.077,19.884,11.077L19.884,11.077z" opacity=".05"/><circle cx="24" cy="24" r="2" fill="#fff"/><path d="M23.999,21.999c0.183,0,0.368,0.025,0.553,0.078c1.062,0.305,1.676,1.412,1.371,2.474 c-0.252,0.878-1.052,1.449-1.921,1.449c-0.183,0-0.368-0.025-0.553-0.078c-1.062-0.305-1.676-1.412-1.371-2.474 C22.329,22.571,23.129,21.999,23.999,21.999 M23.999,21.499L23.999,21.499c-1.108,0-2.096,0.745-2.402,1.812 c-0.38,1.325,0.389,2.712,1.714,3.092c0.225,0.065,0.458,0.097,0.69,0.097c1.108,0,2.096-0.745,2.402-1.811 c0.38-1.325-0.389-2.712-1.714-3.092C24.464,21.532,24.231,21.499,23.999,21.499L23.999,21.499z" opacity=".07"/><path d="M23.999,21.999c0.183,0,0.368,0.025,0.553,0.078c1.062,0.305,1.676,1.412,1.371,2.474 c-0.252,0.878-1.052,1.449-1.921,1.449c-0.183,0-0.368-0.025-0.553-0.078c-1.062-0.305-1.676-1.412-1.371-2.474 C22.329,22.571,23.129,21.999,23.999,21.999 M23.999,20.999L23.999,20.999c-1.33,0-2.515,0.894-2.882,2.174 c-0.456,1.59,0.467,3.255,2.057,3.711c0.27,0.078,0.549,0.117,0.828,0.117c1.33,0,2.515-0.894,2.882-2.174 c0.456-1.59-0.467-3.255-2.057-3.711C24.557,21.039,24.278,20.999,23.999,20.999L23.999,20.999z" opacity=".05"/><circle cx="31.421" cy="19.886" r="4.5" fill="#fff"/><path d="M31.419,15.385c0.411,0,0.828,0.057,1.242,0.175c2.389,0.685,3.77,3.177,3.085,5.566 c-0.566,1.974-2.367,3.261-4.324,3.261c-0.411,0-0.828-0.057-1.242-0.175c-2.389-0.685-3.77-3.177-3.085-5.566 C27.662,16.671,29.463,15.385,31.419,15.385 M31.419,14.885L31.419,14.885c-2.217,0-4.193,1.49-4.804,3.623 c-0.76,2.65,0.778,5.425,3.428,6.184c0.451,0.129,0.915,0.195,1.38,0.195c2.217,0,4.193-1.49,4.804-3.623 c0.76-2.65-0.778-5.425-3.428-6.184C32.349,14.951,31.884,14.885,31.419,14.885L31.419,14.885z" opacity=".07"/><path d="M31.419,15.385c0.411,0,0.828,0.057,1.242,0.175c2.389,0.685,3.77,3.177,3.085,5.566 c-0.566,1.974-2.367,3.261-4.324,3.261c-0.411,0-0.828-0.057-1.242-0.175c-2.389-0.685-3.77-3.177-3.085-5.566 C27.662,16.671,29.463,15.385,31.419,15.385 M31.419,14.385L31.419,14.385c-2.439,0-4.612,1.639-5.285,3.985 c-0.836,2.915,0.856,5.967,3.771,6.803c0.496,0.142,1.006,0.214,1.518,0.214c2.439,0,4.612-1.639,5.285-3.985 c0.836-2.915-0.856-5.967-3.771-6.803C32.442,14.457,31.931,14.385,31.419,14.385L31.419,14.385z" opacity=".05"/><circle cx="16.579" cy="28.114" r="4.5" fill="#fff"/><path d="M16.577,23.613c0.411,0,0.828,0.057,1.242,0.175c2.389,0.685,3.77,3.177,3.085,5.566 c-0.566,1.974-2.367,3.261-4.324,3.261c-0.411,0-0.828-0.057-1.242-0.175c-2.389-0.685-3.77-3.177-3.085-5.566 C12.819,24.899,14.62,23.613,16.577,23.613 M16.577,23.113L16.577,23.113c-2.217,0-4.193,1.49-4.804,3.623 c-0.76,2.65,0.778,5.425,3.428,6.184c0.451,0.129,0.915,0.195,1.38,0.195c2.217,0,4.193-1.49,4.804-3.623 c0.76-2.65-0.778-5.425-3.428-6.184C17.506,23.178,17.042,23.113,16.577,23.113L16.577,23.113z" opacity=".07"/><path d="M16.577,23.613c0.411,0,0.828,0.057,1.242,0.175c2.389,0.685,3.77,3.177,3.085,5.566 c-0.566,1.974-2.367,3.261-4.324,3.261c-0.411,0-0.828-0.057-1.242-0.175c-2.389-0.685-3.77-3.177-3.085-5.566 C12.819,24.899,14.62,23.613,16.577,23.613 M16.577,22.613L16.577,22.613c-2.439,0-4.612,1.639-5.285,3.985 c-0.836,2.915,0.856,5.967,3.771,6.803c0.496,0.142,1.006,0.214,1.518,0.214c2.439,0,4.612-1.639,5.285-3.985 c0.836-2.915-0.856-5.967-3.771-6.803C17.599,22.685,17.088,22.613,16.577,22.613L16.577,22.613z" opacity=".05"/><circle cx="28.114" cy="31.421" r="4.5" fill="#fff"/><path d="M28.112,26.92c0.411,0,0.828,0.057,1.242,0.175c2.389,0.685,3.77,3.177,3.085,5.566 c-0.566,1.974-2.367,3.261-4.324,3.261c-0.411,0-0.828-0.057-1.242-0.175c-2.389-0.685-3.77-3.177-3.085-5.566 C24.354,28.207,26.155,26.92,28.112,26.92 M28.112,26.42L28.112,26.42c-2.217,0-4.193,1.49-4.804,3.623 c-0.76,2.65,0.778,5.425,3.428,6.184c0.451,0.129,0.915,0.195,1.38,0.195c2.217,0,4.193-1.49,4.804-3.623 c0.76-2.65-0.778-5.425-3.428-6.184C29.041,26.486,28.577,26.42,28.112,26.42L28.112,26.42z" opacity=".07"/><path d="M28.112,26.92c0.411,0,0.828,0.057,1.242,0.175c2.389,0.685,3.77,3.177,3.085,5.566 c-0.566,1.974-2.367,3.261-4.324,3.261c-0.411,0-0.828-0.057-1.242-0.175c-2.389-0.685-3.77-3.177-3.085-5.566 C24.354,28.207,26.155,26.92,28.112,26.92 M28.112,25.92L28.112,25.92c-2.439,0-4.612,1.639-5.285,3.985 c-0.836,2.915,0.856,5.967,3.771,6.803c0.496,0.142,1.006,0.214,1.518,0.214c2.439,0,4.612-1.639,5.285-3.985 c0.836-2.915-0.856-5.967-3.771-6.803C29.134,25.992,28.623,25.92,28.112,25.92L28.112,25.92z" opacity=".05"/><linearGradient id="c_BGtWOzzOuYe1JMnHsJfa" x1="3.789" x2="17.697" y1="33.231" y2="42.038" gradientTransform="rotate(13.002 23.995 24.994)" gradientUnits="userSpaceOnUse"><stop offset="0" stop-color="#4c4c4c"/><stop offset="1" stop-color="#343434"/></linearGradient><path fill="url(#c_BGtWOzzOuYe1JMnHsJfa)" d="M14.036,40.173l-4.804-1.109c-3.771-0.871-6.116-4.624-5.246-8.395l1.109-4.804 C5.666,31.754,8.993,37.079,14.036,40.173z"/><linearGradient id="c_BGtWOzzOuYe1JMnHsJfb" x1="7.03" x2="13.302" y1="9.008" y2="12.979" gradientTransform="rotate(13.002 23.995 24.994)" gradientUnits="userSpaceOnUse"><stop offset="0" stop-color="#4c4c4c"/><stop offset="1" stop-color="#343434"/></linearGradient><path fill="url(#c_BGtWOzzOuYe1JMnHsJfb)" d="M17.331,3.987l4.804,1.109c-5.889,0.57-11.214,3.897-14.308,8.941l1.109-4.804 C9.806,5.462,13.56,3.116,17.331,3.987z"/><linearGradient id="c_BGtWOzzOuYe1JMnHsJfc" x1="29.853" x2="43.761" y1="6.013" y2="14.82" gradientTransform="rotate(13.002 23.995 24.994)" gradientUnits="userSpaceOnUse"><stop offset="0" stop-color="#4c4c4c"/><stop offset="1" stop-color="#343434"/></linearGradient><path fill="url(#c_BGtWOzzOuYe1JMnHsJfc)" d="M44.013,17.331l-1.109,4.804c-0.57-5.889-3.897-11.214-8.941-14.308l4.804,1.109 C42.538,9.806,44.884,13.56,44.013,17.331z"/><linearGradient id="c_BGtWOzzOuYe1JMnHsJfd" x1="34.248" x2="40.52" y1="35.072" y2="39.043" gradientTransform="rotate(13.002 23.995 24.994)" gradientUnits="userSpaceOnUse"><stop offset="0" stop-color="#4c4c4c"/><stop offset="1" stop-color="#343434"/></linearGradient><path fill="url(#c_BGtWOzzOuYe1JMnHsJfd)" d="M40.173,33.964l-1.109,4.804c-0.871,3.771-4.624,6.116-8.395,5.246l-4.804-1.109 C31.754,42.334,37.079,39.007,40.173,33.964z"/></svg>