<svg xmlns="http://www.w3.org/2000/svg" viewBox="0 0 48 48"><linearGradient id="evqJO4L45bit39EQ~lFoTa" x1="17.846" x2="28.913" y1="-2.509" y2="12.214" gradientUnits="userSpaceOnUse"><stop offset="0" stop-color="#c26715"/><stop offset=".508" stop-color="#b85515"/><stop offset="1" stop-color="#ad3f16"/></linearGradient><path fill="url(#evqJO4L45bit39EQ~lFoTa)" d="M43.684,4.085C32.748,7.02,15.668,8.026,4,8V5c11.836,0,27.672,0.027,39.508-1.919 C43.766,3.039,44,3.236,44,3.498V3.67C44,3.864,43.872,4.035,43.684,4.085z"/><linearGradient id="evqJO4L45bit39EQ~lFoTb" x1="20.887" x2="27.003" y1="6.691" y2="14.829" gradientUnits="userSpaceOnUse"><stop offset="0" stop-color="#ffcf54"/><stop offset=".261" stop-color="#fdcb4d"/><stop offset=".639" stop-color="#f7c13a"/><stop offset="1" stop-color="#f0b421"/></linearGradient><path fill="url(#evqJO4L45bit39EQ~lFoTb)" d="M25,18h-2V4c0-0.552,0.448-1,1-1h0c0.552,0,1,0.448,1,1V18z"/><linearGradient id="evqJO4L45bit39EQ~lFoTc" x1="17.28" x2="30.653" y1="21.06" y2="38.852" gradientUnits="userSpaceOnUse"><stop offset="0" stop-color="#737b80"/><stop offset=".473" stop-color="#686f74"/><stop offset="1" stop-color="#575c61"/></linearGradient><path fill="url(#evqJO4L45bit39EQ~lFoTc)" d="M37.756,27.445c-0.362-1.963-1.128-3.782-2.217-5.366c-0.584,0.066-1.191-0.116-1.64-0.564 L32.485,20.1c-0.448-0.448-0.63-1.055-0.564-1.64c-1.584-1.089-3.403-1.855-5.366-2.217C26.188,16.701,25.632,17,25,17h-2 c-0.632,0-1.188-0.299-1.555-0.756c-1.963,0.362-3.782,1.128-5.366,2.217c0.066,0.584-0.116,1.191-0.564,1.64l-1.414,1.414 c-0.448,0.448-1.055,0.63-1.64,0.564c-1.089,1.584-1.855,3.403-2.217,5.366C10.701,27.812,11,28.368,11,29v2 c0,0.632-0.299,1.188-0.756,1.555c0.362,1.963,1.128,3.782,2.217,5.366c0.584-0.066,1.191,0.116,1.64,0.564l1.414,1.414 c0.448,0.448,0.63,1.055,0.564,1.64c1.584,1.089,3.403,1.855,5.366,2.217C21.812,43.299,22.368,43,23,43h2 c0.632,0,1.188,0.299,1.555,0.756c1.963-0.362,3.782-1.128,5.366-2.217c-0.066-0.584,0.116-1.191,0.564-1.64l1.414-1.414 c0.448-0.448,1.055-0.63,1.64-0.564c1.089-1.584,1.855-3.403,2.217-5.366C37.299,32.188,37,31.632,37,31v-2 C37,28.368,37.299,27.812,37.756,27.445z M24,37c-3.866,0-7-3.134-7-7c0-3.866,3.134-7,7-7s7,3.134,7,7C31,33.866,27.866,37,24,37z"/><linearGradient id="evqJO4L45bit39EQ~lFoTd" x1="22.367" x2="25.617" y1="17.827" y2="22.151" gradientUnits="userSpaceOnUse"><stop offset="0" stop-color="#ffcf54"/><stop offset=".261" stop-color="#fdcb4d"/><stop offset=".639" stop-color="#f7c13a"/><stop offset="1" stop-color="#f0b421"/></linearGradient><path fill="url(#evqJO4L45bit39EQ~lFoTd)" d="M24,24L24,24c-0.552,0-1-0.448-1-1v-6c0-0.552,0.448-1,1-1h0c0.552,0,1,0.448,1,1v6 C25,23.552,24.552,24,24,24z"/></svg>