<svg xmlns="http://www.w3.org/2000/svg" viewBox="0 0 48 48"><linearGradient id="I7hPQ7vz6NmPUxclpieKCa" x1="6.414" x2="41.774" y1="2835.552" y2="2861.378" gradientTransform="translate(0 -2821.89)" gradientUnits="userSpaceOnUse"><stop offset="0" stop-color="#a8e2f7"/><stop offset="1" stop-color="#47c1ff"/></linearGradient><path fill="url(#I7hPQ7vz6NmPUxclpieKCa)" d="M6,40V12h36v28c-0.003,1.103-0.897,1.997-2,2H8C6.897,41.997,6.003,41.103,6,40z"/><linearGradient id="I7hPQ7vz6NmPUxclpieKCb" x1="6.42" x2="41.198" y1="2828.498" y2="2835.57" gradientTransform="translate(0 -2821.89)" gradientUnits="userSpaceOnUse"><stop offset="0" stop-color="#0077d2"/><stop offset="1" stop-color="#0b59a2"/></linearGradient><path fill="url(#I7hPQ7vz6NmPUxclpieKCb)" d="M42,8v6H6V8c0.003-1.103,0.897-1.997,2-2h32C41.103,6.003,41.997,6.897,42,8z"/><path d="M35.5,12.5L35.5,12.5c-1.657,0-3-1.343-3-3c0,0,0,0,0,0V6h6v3.5 C38.5,11.157,37.157,12.5,35.5,12.5C35.5,12.5,35.5,12.5,35.5,12.5z" opacity=".05"/><path d="M35.5,11.75L35.5,11.75c-1.242,0-2.25-1.007-2.25-2.249 c0,0,0-0.001,0-0.001V6h4.5v3.5C37.75,10.742,36.743,11.75,35.5,11.75C35.501,11.75,35.5,11.75,35.5,11.75z" opacity=".07"/><path d="M12.5,12.5L12.5,12.5c-1.657,0-3-1.343-3-3c0,0,0,0,0,0V6h6v3.5 C15.5,11.157,14.157,12.5,12.5,12.5C12.5,12.5,12.5,12.5,12.5,12.5z" opacity=".05"/><path d="M12.5,11.75L12.5,11.75c-1.242,0-2.25-1.007-2.25-2.249 c0,0,0-0.001,0-0.001V6h4.5v3.5C14.75,10.742,13.743,11.75,12.5,11.75C12.501,11.75,12.5,11.75,12.5,11.75z" opacity=".07"/><path fill="#3ccbf4" d="M12.5,11L12.5,11c-0.828,0-1.5-0.672-1.5-1.5v-4C11,4.672,11.672,4,12.5,4l0,0 C13.328,4,14,4.672,14,5.5v4C14,10.328,13.328,11,12.5,11z"/><path fill="#e52030" d="M34.5,19h3c0.276,0,0.5,0.224,0.5,0.5v3c0,0.276-0.224,0.5-0.5,0.5h-3c-0.276,0-0.5-0.224-0.5-0.5 v-3C34,19.224,34.224,19,34.5,19z"/><path fill="#fff" d="M34.5,33h3c0.276,0,0.5,0.224,0.5,0.5v3c0,0.276-0.224,0.5-0.5,0.5h-3c-0.276,0-0.5-0.224-0.5-0.5 v-3C34,33.224,34.224,33,34.5,33z"/><path fill="#e52030" d="M26.5,19h3c0.276,0,0.5,0.224,0.5,0.5v3c0,0.276-0.224,0.5-0.5,0.5h-3c-0.276,0-0.5-0.224-0.5-0.5 v-3C26,19.224,26.224,19,26.5,19z"/><path fill="#e52030" d="M18.5,19h3c0.276,0,0.5,0.224,0.5,0.5v3c0,0.276-0.224,0.5-0.5,0.5h-3c-0.276,0-0.5-0.224-0.5-0.5 v-3C18,19.224,18.224,19,18.5,19z"/><path fill="#e52030" d="M10.5,19h3c0.276,0,0.5,0.224,0.5,0.5v3c0,0.276-0.224,0.5-0.5,0.5h-3c-0.276,0-0.5-0.224-0.5-0.5 v-3C10,19.224,10.224,19,10.5,19z"/><path fill="#fff" d="M26.5,26h3c0.276,0,0.5,0.224,0.5,0.5v3c0,0.276-0.224,0.5-0.5,0.5h-3c-0.276,0-0.5-0.224-0.5-0.5 v-3C26,26.224,26.224,26,26.5,26z"/><path fill="#fff" d="M26.5,33h3c0.276,0,0.5,0.224,0.5,0.5v3c0,0.276-0.224,0.5-0.5,0.5h-3c-0.276,0-0.5-0.224-0.5-0.5 v-3C26,33.224,26.224,33,26.5,33z"/><path fill="#fff" d="M34.5,26h3c0.276,0,0.5,0.224,0.5,0.5v3c0,0.276-0.224,0.5-0.5,0.5h-3c-0.276,0-0.5-0.224-0.5-0.5 v-3C34,26.224,34.224,26,34.5,26z"/><path fill="#fff" d="M18.5,26h3c0.276,0,0.5,0.224,0.5,0.5v3c0,0.276-0.224,0.5-0.5,0.5h-3c-0.276,0-0.5-0.224-0.5-0.5 v-3C18,26.224,18.224,26,18.5,26z"/><path fill="#fff" d="M10.5,26h3c0.276,0,0.5,0.224,0.5,0.5v3c0,0.276-0.224,0.5-0.5,0.5h-3c-0.276,0-0.5-0.224-0.5-0.5 v-3C10,26.224,10.224,26,10.5,26z"/><path fill="#fff" d="M18.5,33h3c0.276,0,0.5,0.224,0.5,0.5v3c0,0.276-0.224,0.5-0.5,0.5h-3c-0.276,0-0.5-0.224-0.5-0.5 v-3C18,33.224,18.224,33,18.5,33z"/><path fill="#fff" d="M10.5,33h3c0.276,0,0.5,0.224,0.5,0.5v3c0,0.276-0.224,0.5-0.5,0.5h-3c-0.276,0-0.5-0.224-0.5-0.5 v-3C10,33.224,10.224,33,10.5,33z"/><path fill="#3ccbf4" d="M35.5,11L35.5,11c-0.828,0-1.5-0.672-1.5-1.5v-4C34,4.672,34.672,4,35.5,4l0,0 C36.328,4,37,4.672,37,5.5v4C37,10.328,36.328,11,35.5,11z"/><radialGradient id="I7hPQ7vz6NmPUxclpieKCc" cx="37.592" cy="37.688" r="11.234" gradientUnits="userSpaceOnUse"><stop offset=".847"/><stop offset="1" stop-opacity="0"/></radialGradient><path fill="url(#I7hPQ7vz6NmPUxclpieKCc)" d="M40.222,42c0.981-0.003,1.775-0.797,1.778-1.778 V26.786C40.699,26.29,39.297,26,37.822,26C31.293,26,26,31.293,26,37.822c0,1.475,0.29,2.877,0.786,4.178H40.222z" opacity=".2"/><linearGradient id="I7hPQ7vz6NmPUxclpieKCd" x1="30.929" x2="45.071" y1="210.819" y2="224.961" gradientTransform="translate(0 -179.89)" gradientUnits="userSpaceOnUse"><stop offset="0" stop-color="#889097"/><stop offset="1" stop-color="#64717c"/></linearGradient><circle cx="38" cy="38" r="10" fill="url(#I7hPQ7vz6NmPUxclpieKCd)"/><radialGradient id="I7hPQ7vz6NmPUxclpieKCe" cx="37.948" cy="210.076" r="17.828" gradientTransform="translate(0 -179.89)" gradientUnits="userSpaceOnUse"><stop offset="0" stop-color="#fafafb"/><stop offset="1" stop-color="#c8cdd1"/></radialGradient><circle cx="38" cy="38" r="8" fill="url(#I7hPQ7vz6NmPUxclpieKCe)"/><path fill="#d83b01" d="M40.9,43.7c-0.2,0.1-0.4,0-0.5-0.2l-2.7-5.3c-0.1-0.2,0-0.4,0.2-0.5s0.4,0,0.5,0.2l2.7,5.3 C41.2,43.3,41.1,43.6,40.9,43.7z"/><path fill="#45494d" d="M38,38.4c-0.1,0-0.2,0-0.3-0.1s-0.1-0.4,0-0.5l4.2-4.2c0.1-0.1,0.4-0.1,0.5,0s0.1,0.4,0,0.5 l-4.2,4.2C38.2,38.3,38.1,38.4,38,38.4z"/><path fill="#45494d" d="M38,38.6c-0.1,0-0.2,0-0.3-0.1l-3.9-1.9c-0.3-0.1-0.4-0.5-0.3-0.8c0.1-0.3,0.5-0.4,0.8-0.3 l3.9,1.9c0.3,0.1,0.4,0.5,0.3,0.8C38.5,38.5,38.2,38.6,38,38.6z"/><circle cx="38" cy="38" r="1" fill="#1e2021"/></svg>