<svg xmlns="http://www.w3.org/2000/svg" viewBox="0 0 48 48"><rect width="29" height="32" x="18" y="8" fill="#76b900"/><path d="M44.85,27.52c-0.49-0.49-1.55-1.08-3.22-2c-0.9-0.5-1.91-1.06-2.25-1.33 c-0.19-0.15-0.41-0.22-0.63-0.22c-0.23,0-0.47,0.08-0.65,0.24c-6.07,5.22-11.24,8.46-18.29,8.46c-0.49,0-1.06-0.04-1.69-0.11 c-0.04-0.01-0.08-0.01-0.12-0.01v4.44c0.6,0.06,1.26,0.1,1.95,0.1c7.02,0,19.4-3.54,24.83-8.09c0.22-0.18,0.35-0.45,0.36-0.73 C45.15,27.99,45.05,27.72,44.85,27.52z M28.26,20.85c-0.13-0.17-3.31-4.24-8.69-4.24c-0.07,0-0.17-0.01-0.28-0.01 c-0.45,0-0.9,0.04-1.29,0.07v4.48c2.26,0.3,2.79,1.19,4.3,3.74l0.28,0.47c0.15,0.25,0.4,0.43,0.69,0.48 c0.06,0.01,0.11,0.01,0.17,0.01c0.23,0,0.46-0.08,0.64-0.23l4.03-3.39C28.52,21.88,28.59,21.28,28.26,20.85z M37.41,20.71 c-0.28-0.37-7.16-9.22-17.94-9.22c-0.22,0-0.44,0-0.66,0.01L18,11.55v4.3h0.04l0.29-0.01c0.17-0.01,0.34-0.02,0.51-0.02 c0.16,0,0.28-0.01,0.41-0.01c5.63,0,9.77,4.14,11.12,5.69c-1.39,1.73-5.7,6.58-10.07,6.58c-0.68,0-1.37-0.11-1.99-0.31 c-0.1-0.03-0.21-0.05-0.31-0.05v4.23c0.74,0.11,1.47,0.17,2.18,0.17c8.76,0,16.87-9.75,17.21-10.17 C37.69,21.6,37.7,21.08,37.41,20.71z" opacity=".05"/><path d="M44.49,27.88c-0.47-0.48-1.75-1.18-3.1-1.93c-0.96-0.52-1.95-1.07-2.33-1.37 c-0.09-0.07-0.2-0.11-0.31-0.11c-0.12,0-0.23,0.04-0.33,0.12c-4.82,4.15-10.63,8.58-18.61,8.58c-0.51,0-1.1-0.04-1.75-0.12H18v3.44 c0.6,0.07,1.25,0.1,1.95,0.1c6.94,0,19.15-3.48,24.51-7.98c0.11-0.09,0.17-0.22,0.18-0.36S44.59,27.98,44.49,27.88z M27.87,21.16 c-0.13-0.17-3.16-4.05-8.3-4.05c-0.08,0-0.18-0.01-0.28-0.01c-0.45,0-0.9,0.04-1.29,0.08v3.47c2.55,0.32,3.15,1.32,4.73,3.98 l0.28,0.48c0.08,0.12,0.2,0.21,0.35,0.23c0.02,0.01,0.05,0.01,0.08,0.01c0.12,0,0.23-0.04,0.32-0.12l4.03-3.39 C28,21.67,28.03,21.37,27.87,21.16z M37.02,21.02c-0.28-0.37-7.02-9.03-17.55-9.03c-0.21,0-0.43,0-0.65,0.01L18,12.05v3.3 c0.01,0,0.01,0,0.02,0l0.28-0.01c0.18-0.01,0.36-0.02,0.54-0.02c0.15,0,0.28-0.01,0.41-0.01c6.28,0,10.73,4.92,11.77,6.18 c-1.08,1.38-5.82,7.09-10.72,7.09c-0.74,0-1.48-0.12-2.14-0.34c-0.05-0.01-0.11-0.02-0.16-0.02v3.21c0.74,0.12,1.48,0.19,2.18,0.19 c8.53,0,16.49-9.58,16.83-9.98C37.15,21.46,37.16,21.2,37.02,21.02z" opacity=".07"/><path fill="#fff" d="M18,17.68c0.52-0.05,1.05-0.09,1.57-0.07c4.95,0,7.9,3.85,7.9,3.85l-4.03,3.39 c-1.8-3.02-2.43-4.35-5.44-4.71V17.68z M18,28.72c0.73,0.24,1.52,0.36,2.3,0.36c5.88,0,11.35-7.6,11.35-7.6s-5.07-6.91-12.81-6.66 c-0.28,0-0.56,0.02-0.84,0.03v-2.3l0.84-0.05c10.76-0.37,17.78,8.82,17.78,8.82s-8.05,9.8-16.44,9.8c-0.73,0-1.47-0.07-2.18-0.19 V28.72z M19.95,36.09c-0.66,0-1.32-0.03-1.95-0.1v-2.44c0.59,0.07,1.22,0.12,1.81,0.12c7.82,0,13.47-3.99,18.94-8.7 c0.91,0.73,4.62,2.49,5.39,3.26C38.94,32.59,26.82,36.09,19.95,36.09z"/><path fill="#76b900" d="M18,28.717v2.232c-7.219-1.29-9.225-8.806-9.225-8.806s3.47-3.836,9.225-4.464v2.441h-0.017 c-3.017-0.366-5.388,2.459-5.388,2.459S13.937,27.339,18,28.717"/><path fill="#76b900" d="M5.183,21.829c0,0,4.272-6.313,12.834-6.975v-2.302c-9.486,0.767-17.682,8.789-17.682,8.789 S4.974,34.768,18,35.989v-2.441C8.444,32.361,5.183,21.829,5.183,21.829z"/></svg>