<svg xmlns="http://www.w3.org/2000/svg" viewBox="0 0 48 48"><radialGradient id="nMKuv8Gn2IMX7kuo_8fbNa" cx="8" cy="8.333" r="37.005" gradientUnits="userSpaceOnUse"><stop offset="0" stop-color="#d6e0e9"/><stop offset=".69" stop-color="#c0c9d2"/><stop offset="1" stop-color="#b1b9c2"/></radialGradient><path fill="url(#nMKuv8Gn2IMX7kuo_8fbNa)" d="M28,22.406C28,13.846,22.627,4,16,4S4,13.846,4,22.406S9.373,35,16,35S28,30.967,28,22.406z"/><radialGradient id="nMKuv8Gn2IMX7kuo_8fbNb" cx="24.313" cy="32.375" r="12.851" gradientUnits="userSpaceOnUse"><stop offset=".841" stop-opacity=".1"/><stop offset="1" stop-opacity="0"/></radialGradient><path fill="url(#nMKuv8Gn2IMX7kuo_8fbNb)" d="M28,22.406C28,13.846,22.627,4,16,4S4,13.846,4,22.406S9.373,35,16,35S28,30.967,28,22.406z"/><radialGradient id="nMKuv8Gn2IMX7kuo_8fbNc" cx="26.583" cy="26.083" r="27.417" gradientUnits="userSpaceOnUse"><stop offset="0" stop-color="#dfe9f2"/><stop offset=".391" stop-color="#d6e0e9"/><stop offset="1" stop-color="#bfc8d1"/></radialGradient><path fill="url(#nMKuv8Gn2IMX7kuo_8fbNc)" d="M25.594,45C34.154,45,44,39.627,44,33s-9.846-12-18.406-12S13,26.373,13,33	S17.033,45,25.594,45z"/></svg>