<svg xmlns="http://www.w3.org/2000/svg" data-name="Слой 1" viewBox="0 0 48 48"><defs><linearGradient id="RIa6NJPYPTHX77N4U1f8Ka" x1="16.67" x2="36.964" y1="6.361" y2="62.118" gradientUnits="userSpaceOnUse"><stop offset="0" stop-color="#a34f27"/><stop offset=".587" stop-color="#8b3817"/><stop offset="1" stop-color="#802d10"/></linearGradient></defs><path fill="none" stroke="#5c2415" stroke-linecap="round" stroke-linejoin="round" stroke-width="3" d="M24,7.5h0A5.5,5.5,0,0,1,29.5,13v6a0,0,0,0,1,0,0h-11a0,0,0,0,1,0,0V13A5.5,5.5,0,0,1,24,7.5Z"/><rect width="38" height="27" x="5" y="13" fill="url(#RIa6NJPYPTHX77N4U1f8Ka)" rx="2.615"/><rect width="4" height="27" x="10" y="13" fill="#5c2415"/><rect width="4" height="27" x="34" y="13" fill="#5c2415"/><path fill="#e52030" d="M44.88812,42.74982,5.26577,3.12829a.38084.38084,0,0,0-.539,0l-1.615,1.616a.38084.38084,0,0,0,0,.539L42.73411,44.9048a.38086.38086,0,0,0,.539,0l1.616-1.616A.38175.38175,0,0,0,44.88812,42.74982Z"/></svg>