<svg xmlns="http://www.w3.org/2000/svg" data-name="Слой 1" viewBox="0 0 48 48"><defs><linearGradient id="oz6c9fYLUKeX~IOUX7kMla" x1="13.443" x2="33.799" y1="-5.005" y2="50.924" data-name="Безымянный градиент 23" gradientUnits="userSpaceOnUse"><stop offset="0" stop-color="#ffa1a6"/><stop offset="1" stop-color="#f24472"/></linearGradient><linearGradient id="oz6c9fYLUKeX~IOUX7kMlb" x1="23.5" x2="23.5" y1="8.837" y2="32.418" data-name="Безымянный градиент 24" gradientUnits="userSpaceOnUse"><stop offset="0" stop-color="#ff6181"/><stop offset="1" stop-color="#c41f40"/></linearGradient></defs><path fill="url(#oz6c9fYLUKeX~IOUX7kMla)" d="M38,43H18a11,11,0,0,1,0-22H30a5,5,0,0,0,0-10H10a3,3,0,0,1,0-6H30a11,11,0,0,1,0,22H18a5,5,0,0,0,0,10H38a3,3,0,0,1,0,6Z"/><rect width="13" height="8" x="17" y="20" fill="url(#oz6c9fYLUKeX~IOUX7kMlb)" rx="2"/></svg>