<svg xmlns="http://www.w3.org/2000/svg" viewBox="0 0 48 48"><linearGradient id="YYWHIfdkCAKISOwKkxKUoa" x1="33" x2="42" y1="10.5" y2="10.5" gradientUnits="userSpaceOnUse"><stop offset="0" stop-color="#ffcf47"/><stop offset=".261" stop-color="#ffcb3f"/><stop offset=".639" stop-color="#ffc123"/><stop offset="1" stop-color="#ffb400"/></linearGradient><circle cx="37.5" cy="10.5" r="4.5" fill="url(#YYWHIfdkCAKISOwKkxKUoa)"/><linearGradient id="YYWHIfdkCAKISOwKkxKUob" x1="22.35" x2="22.35" y1="17.187" y2="44.197" gradientUnits="userSpaceOnUse"><stop offset=".408" stop-color="#00b4f0"/><stop offset="1" stop-color="#0082db"/></linearGradient><path fill="url(#YYWHIfdkCAKISOwKkxKUob)" d="M39.33,23.7l-6.62,12.14c-0.44,0.8-1.1,1.4-1.87,1.75c-0.57,0.28-1.2,0.42-1.83,0.41	c-0.48-0.01-0.96-0.1-1.43-0.28l-11.11-4.33C13.64,36.59,10.82,39.8,8,43c-1.03,0.92-2.44,0.75-3,0c-0.38-0.52-0.37-1.31,0-2	c3.2-4.95,5.41-8.9,8.61-13.85c0.66-0.89,1.79-1.3,2.86-1.04l7.52,1.79l2.29,0.54l0.03-0.05l5.63-9.34	c1.25-1.98,3.53-2.51,5.52-1.63C39.77,18.44,40.73,21.47,39.33,23.7z"/><path fill="#ccd8dc" d="M19,5c-5,0-8,2-10,5l5,7c0,0,1.375-1,5-1s5,1,5,1l5-7C27,7,24,5,19,5z"/><path fill="#ccd8dc" d="M19,5c-5,0-8,2-10,5l5,7c0,0,1.375-1,5-1s5,1,5,1l5-7C27,7,24,5,19,5z"/><path fill="#849eff" d="M16,19c-0.254,0-0.509-0.096-0.703-0.289c-0.393-0.389-0.396-1.022-0.008-1.415	c0.465-0.469,0.704-0.912,0.711-1.314c0.006-0.318-0.129-0.569-0.368-0.986c-0.288-0.503-0.647-1.13-0.632-2.014	c0.017-0.934,0.45-1.838,1.289-2.686c0.388-0.392,1.022-0.396,1.414-0.007c0.393,0.389,0.396,1.022,0.008,1.415	c-0.465,0.469-0.704,0.912-0.711,1.314c-0.006,0.317,0.129,0.568,0.367,0.984c0.289,0.504,0.648,1.131,0.633,2.016	c-0.017,0.934-0.45,1.838-1.289,2.686C16.516,18.901,16.258,19,16,19z"/><path fill="#849eff" d="M21,19c-0.254,0-0.509-0.096-0.703-0.289c-0.393-0.389-0.396-1.022-0.008-1.415	c0.465-0.469,0.704-0.912,0.711-1.314c0.006-0.318-0.129-0.569-0.368-0.986c-0.288-0.503-0.647-1.13-0.632-2.014	c0.017-0.934,0.45-1.838,1.289-2.686c0.388-0.392,1.022-0.396,1.414-0.007c0.393,0.389,0.396,1.022,0.008,1.415	c-0.465,0.469-0.704,0.912-0.711,1.314c-0.006,0.317,0.129,0.568,0.367,0.984c0.289,0.504,0.648,1.131,0.633,2.016	c-0.017,0.934-0.45,1.838-1.289,2.686C21.516,18.901,21.258,19,21,19z"/></svg>