<svg xmlns="http://www.w3.org/2000/svg" viewBox="0 0 48 48"><path fill="#1b9de2" d="M36,9H12v34c0,1.105,0.895,2,2,2h20c1.105,0,2-0.895,2-2V9z"/><path d="M34,45c1.105,0,2-0.895,2-2v-8h-4c0-2.206,1.794-4,4-4v-4c-4.411,0-8,3.589-8,8h-1	c-1.103,0-2,0.897-2,2v8H34z" opacity=".05"/><linearGradient id="wXmTA1rI6a3_KCx9q1MJja" x1="12" x2="36" y1="6.5" y2="6.5" gradientUnits="userSpaceOnUse"><stop offset="0" stop-color="#464eb0"/><stop offset="1" stop-color="#343b9e"/></linearGradient><path fill="url(#wXmTA1rI6a3_KCx9q1MJja)" d="M36,9H12V6c0-1.105,0.895-2,2-2h20c1.105,0,2,0.895,2,2V9z"/><circle cx="20" cy="6.5" r=".75" fill="#6d75cf"/><path fill="#6d75cf" d="M27.5,5.75c-0.194,0-4.806,0-5,0c-0.414,0-0.75,0.336-0.75,0.75s0.336,0.75,0.75,0.75	c0.194,0,4.806,0,5,0c0.414,0,0.75-0.336,0.75-0.75S27.914,5.75,27.5,5.75z"/><path fill="#353c9f" d="M35,14H13l-3,3v1c0,1.105,0.895,2,2,2h24c1.105,0,2-0.895,2-2v-1L35,14z"/><polygon fill="#6d75cf" points="36,9 12,9 10,17 38,17"/><path fill="#c48c00" d="M45,48H27c-0.552,0-1-0.448-1-1v-2h20v2C46,47.552,45.552,48,45,48z"/><path d="M34,45c1.105,0,2-0.895,2-2v-7.5h-4.5V35c0-2.481,2.019-4.5,4.5-4.5v-3c-4.136,0-7.5,3.364-7.5,7.5	v0.5H27c-0.827,0-1.5,0.673-1.5,1.5v8H34z" opacity=".07"/><rect width="20" height="3" x="26" y="42" fill="#e3a600"/><rect width="20" height="3" x="26" y="39" fill="#edbe00"/><path fill="#fad500" d="M46,39H26v-2c0-0.552,0.448-1,1-1h18c0.552,0,1,0.448,1,1V39z"/><linearGradient id="wXmTA1rI6a3_KCx9q1MJjb" x1="36" x2="36" y1="35.809" y2="19.085" gradientUnits="userSpaceOnUse"><stop offset="0" stop-color="#92a3b0"/><stop offset=".015" stop-color="#a3b5c4"/><stop offset=".032" stop-color="#aec2d1"/><stop offset=".046" stop-color="#b2c6d6"/></linearGradient><path fill="url(#wXmTA1rI6a3_KCx9q1MJjb)" d="M31,36v-1c0-2.757,2.243-5,5-5s5,2.243,5,5v1h2v-1c0-3.859-3.14-7-7-7s-7,3.141-7,7v1H31z"/><linearGradient id="wXmTA1rI6a3_KCx9q1MJjc" x1="36" x2="36" y1="46.185" y2="38.951" gradientUnits="userSpaceOnUse"><stop offset="0" stop-color="#4b4b4b"/><stop offset="1" stop-color="#3b3b3b"/></linearGradient><path fill="url(#wXmTA1rI6a3_KCx9q1MJjc)" d="M38,41c0-1.105-0.895-2-2-2s-2,0.895-2,2c0,0.839,0.518,1.555,1.25,1.852V45	c0,0.414,0.336,0.75,0.75,0.75s0.75-0.336,0.75-0.75v-2.148C37.482,42.555,38,41.839,38,41z"/></svg>