<svg xmlns="http://www.w3.org/2000/svg" viewBox="0 0 48 48"><linearGradient id="yOxj0n6upzgou9XdilaG_a" x1="9.858" x2="38.142" y1="-163.858" y2="-192.142" gradientTransform="matrix(1 0 0 -1 0 -154)" gradientUnits="userSpaceOnUse"><stop offset="0" stop-color="#33bef0"/><stop offset="1" stop-color="#0a85d9"/></linearGradient><path fill="url(#yOxj0n6upzgou9XdilaG_a)" d="M44,24c0,11.045-8.955,20-20,20S4,35.045,4,24S12.955,4,24,4S44,12.955,44,24z"/><path d="M13,20c-1.103,0-2-0.897-2-2v-2c0-1.103,0.897-2,2-2h22c1.103,0,2,0.897,2,2v2c0,1.103-0.897,2-2,2	H13z" opacity=".05"/><path d="M13,19.5c-0.827,0-1.5-0.673-1.5-1.5v-2c0-0.827,0.673-1.5,1.5-1.5h22c0.827,0,1.5,0.673,1.5,1.5v2	c0,0.827-0.673,1.5-1.5,1.5H13z" opacity=".07"/><path fill="#fff" d="M35,19H13c-0.552,0-1-0.448-1-1v-2c0-0.552,0.448-1,1-1h22c0.552,0,1,0.448,1,1v2	C36,18.552,35.552,19,35,19z"/><path d="M15,27c-1.103,0-2-0.897-2-2v-2c0-1.103,0.897-2,2-2h18c1.103,0,2,0.897,2,2v2c0,1.103-0.897,2-2,2	H15z" opacity=".05"/><path d="M15,26.5c-0.827,0-1.5-0.673-1.5-1.5v-2c0-0.827,0.673-1.5,1.5-1.5h18c0.827,0,1.5,0.673,1.5,1.5v2	c0,0.827-0.673,1.5-1.5,1.5H15z" opacity=".07"/><path fill="#fff" d="M33,26H15c-0.552,0-1-0.448-1-1v-2c0-0.552,0.448-1,1-1h18c0.552,0,1,0.448,1,1v2	C34,25.552,33.552,26,33,26z"/><path d="M17,34c-1.103,0-2-0.897-2-2v-2c0-1.103,0.897-2,2-2h14c1.103,0,2,0.897,2,2v2c0,1.103-0.897,2-2,2	H17z" opacity=".05"/><path d="M17,33.5c-0.827,0-1.5-0.673-1.5-1.5v-2c0-0.827,0.673-1.5,1.5-1.5h14c0.827,0,1.5,0.673,1.5,1.5v2	c0,0.827-0.673,1.5-1.5,1.5H17z" opacity=".07"/><path fill="#fff" d="M31,33H17c-0.552,0-1-0.448-1-1v-2c0-0.552,0.448-1,1-1h14c0.552,0,1,0.448,1,1v2	C32,32.552,31.552,33,31,33z"/></svg>