<svg xmlns="http://www.w3.org/2000/svg" viewBox="0 0 48 48"><linearGradient id="4P1mLdSCPST01y7DaCoFPa" x1="17.786" x2="33.066" y1="4.58" y2="40.115" gradientUnits="userSpaceOnUse"><stop offset="0" stop-color="#ffd869"/><stop offset="1" stop-color="#fec52b"/></linearGradient><path fill="url(#4P1mLdSCPST01y7DaCoFPa)" d="M24,5C15.304,5,10.736,7.172,8.934,8.315C8.352,8.684,8,9.319,8,10.009V27c0,6,10.1,16,16,16	s16-10,16-16V10.009c0-0.689-0.352-1.324-0.934-1.694C37.264,7.172,32.696,5,24,5z"/><path fill="#b31523" d="M45,20c0,3.046-1.74,4.352-2.569,4.802C42.161,24.948,42,25.231,42,25.537v2.847	c0,0.348,0.344,0.593,0.67,0.473C43.554,28.532,45,27.471,45,24C45,20.2,45,20,45,20z"/><path fill="#d9414f" d="M45,24c0,0,0-4-5-4v-4c5,0,5,4,5,4V24z"/><path fill="#b31523" d="M3,24c0,3.471,1.446,4.532,2.33,4.857C5.656,28.977,6,28.732,6,28.384v-2.847	c0-0.306-0.161-0.589-0.431-0.735C4.74,24.352,3,23.046,3,20C3,20,3,20.2,3,24z"/><path fill="#d9414f" d="M3,20c0,0,0-4,5-4v4c-5,0-5,4-5,4V20z"/><path fill="#c28200" d="M34.859,21c-0.446-1.722-1.997-3-3.859-3s-3.413,1.278-3.859,3H34.859z"/><path fill="#c28200" d="M14.997,27.5c1.041,4.019,4.659,7,9.003,7s7.963-2.981,9.003-7c0,0-3.003,1.5-9.003,1.5	S14.997,27.5,14.997,27.5z"/><path fill="#c28200" d="M20.859,21c-0.446-1.722-1.997-3-3.859-3s-3.413,1.278-3.859,3H20.859z"/></svg>