<svg xmlns="http://www.w3.org/2000/svg" viewBox="0 0 48 48"><radialGradient id="_xNXOelz0avywiTS5Bd3Na" cx="24" cy="24" r="14.237" gradientTransform="translate(-1.044 -1.044) scale(1.0435)" gradientUnits="userSpaceOnUse"><stop offset="0" stop-color="#f47400"/><stop offset="1" stop-color="#fcd400"/></radialGradient><path fill="url(#_xNXOelz0avywiTS5Bd3Na)" d="M36,36c-5.263,0-8.914-3.549-12-7.465C20.914,32.451,17.263,36,12,36C5.832,36,0,30.168,0,24 s5.832-12,12-12c5.263,0,8.914,3.549,12,7.465C27.086,15.549,30.737,12,36,12c6.168,0,12,5.832,12,12S42.168,36,36,36z M27.393,24 c2.662,3.544,5.299,6.545,8.607,6.545c3.464,0,6.545-3.66,6.545-6.545S39.464,17.455,36,17.455 C32.692,17.455,30.056,20.456,27.393,24z M12,17.455c-3.464,0-6.545,3.66-6.545,6.545S8.536,30.545,12,30.545 c3.308,0,5.944-3.001,8.607-6.545C17.944,20.456,15.308,17.455,12,17.455z"/><path fill="#fcd400" d="M36,30.545C27.993,30.545,24,12,12,12c0,1.778,0,3.613,0,5.455C20.159,17.455,24,36,36,36 c0.08,0,0.159-0.012,0.239-0.014c-0.13-1.814-0.191-3.628-0.217-5.443C36.015,30.544,36.008,30.545,36,30.545z"/></svg>