<svg xmlns="http://www.w3.org/2000/svg" viewBox="0 0 48 48"><path fill="#3949ab" d="M38.778,5H9.222C6.891,5,5,6.891,5,9.222v1.351l1.021,7.403L5,22.923v6.091l8.732,5.794l25.196-1.704	L43,21.952V9.222C43,6.891,41.11,5,38.778,5z"/><path fill="#ffecb3" d="M43,21.952v6.017l-5.278,10.809H15.556L5,31.568v-2.554c0.792-0.528,1.583-0.792,3.167-0.792	c3.167,0,6.597,4.982,9.637,3.019c3.029-1.963,4.085-3.019,9.363-3.019s6.333-2.111,9.5-2.111	C39.094,26.111,41.522,24.253,43,21.952z"/><path fill="#283593" d="M14.5,36.667H6.056L5,33.764v-2.196c2.037,0.369,6.544,1.267,8.729,2.47	C16.611,35.611,14.5,36.667,14.5,36.667z"/><path fill="#1a237e" d="M43,27.969v2.396L28.842,40.901c0,0-22.57,1.237-23.295-0.042C5.198,40.244,5,39.535,5,38.778v-5.014	c1.056,0.792,2.111,1.319,4.222,0.792c4.222-1.056,9.5,0,11.611-1.056s3.167-2.111,6.333-1.056c3.167,1.056,5.278-3.167,8.444-3.167	C39.538,29.278,41.712,28.697,43,27.969z"/><circle cx="20.833" cy="8.167" r="1.056" fill="#ffe082"/><circle cx="15.556" cy="12.389" r="2.111" fill="#ffd54f"/><circle cx="30.861" cy="8.694" r="1.583" fill="#ffe082"/><circle cx="35.083" cy="16.083" r="1.583" fill="#ffe082"/><circle cx="37.722" cy="10.278" r="3.167" fill="#ffecb3"/><path fill="#7986cb" d="M30.333,19.778c0,0,1.056-5.278-4.222-5.278s-5.278,4.222-5.278,6.333s2.111,5.278,6.333,5.278	s6.291-4.56,8.444-5.278v2.111c-1.056-1.056,4.222,5.382,4.222,0C39.833,19.778,36.667,16.611,30.333,19.778z"/><path fill="#f9a825" d="M39.823,10.404c-0.021,0.496-0.232,0.982-0.612,1.362c-0.823,0.834-2.153,0.834-2.977,0	c-0.834-0.823-0.834-2.153,0-2.977c0.38-0.38,0.866-0.591,1.362-0.612c-0.253,0.274-0.401,0.644-0.401,1.045	c0,0.876,0.707,1.583,1.583,1.583C39.179,10.806,39.548,10.658,39.823,10.404z"/><path fill="#5c6bc0" d="M32.444,17.667c0,3.167-2.554,3.779-4.222,2.111c-1.056-1.056-1.056-3.167-4.222-3.167	S16.611,24,9.222,24C7.481,24,6.087,23.546,5,22.923v-12.35c4.001,5.341,5.869,6.038,8.444,6.038c3.167,0,6.333-6.333,11.611-6.333	S32.444,14.5,32.444,17.667z"/><path fill="#283593" d="M43,30.365v4.212L12.273,43H9.222c-1.573,0-2.945-0.866-3.673-2.143l12.118-4.191	c0,0,8.444,0,12.667-1.056c4.222-1.056,2.111-3.167,6.333-4.222C38.398,30.956,40.973,30.502,43,30.365z"/><circle cx="11.333" cy="24" r="2.111" fill="#ffd54f"/><path fill="#1a237e" d="M43,34.577v4.201C43,41.111,41.111,43,38.778,43H25.71l-3.821-2.649	c5.331-1.172,12.139-3.768,14.25-4.824C37.522,34.83,40.519,34.629,43,34.577z"/><circle cx="8.167" cy="18.722" r="1.056" fill="#ffd54f"/><circle cx="20.306" cy="18.194" r="1.583" fill="#ffe082"/><circle cx="36.139" cy="23.472" r="3.694" fill="#7986cb"/><circle cx="21.889" cy="27.167" r="3.167" fill="#ffecb3"/><path fill="#212121" d="M25.71,43H12.273c0.074-0.296,0.116-0.633,0.116-1.056c0-2.111-2.111-2.111-2.111-4.222	c0-2.111,2.111-3.167,2.111-4.222s-1.056-3.167-1.056-4.222c0-1.056,1.056-4.222,1.056-6.333V14.5	c0.048-0.894,0.176-2.129,0.528-3.563C13.154,9.97,13.646,7.963,14,8c0.47,0.049,0.03,3.624,1,9	c0.199,1.105,0.237,1.059,0.556,2.778c0.659,3.551,1.056,3.875,1.056,6.333c0,2.111,1.056,4.222,1.056,4.222	s0.617-0.828,1.341-1.729c0.404-0.502,1.216-0.169,1.138,0.47c-0.25,2.05-0.201,4.83,1.744,5.48	c3.167,1.056,1.056,4.222,1.056,4.222S27.325,39.654,25.71,43z"/></svg>