<svg xmlns="http://www.w3.org/2000/svg" xmlns:xlink="http://www.w3.org/1999/xlink" data-name="Слой 1" viewBox="0 0 48 48"><defs><linearGradient id="hJBcjnTnQr~an55MasfK_a" x1="-1.5" x2="11.218" y1="24.978" y2="24.978" data-name="Безымянный градиент 123" gradientUnits="userSpaceOnUse"><stop offset="0" stop-color="#f44f5a"/><stop offset=".443" stop-color="#ee3d4a"/><stop offset="1" stop-color="#e52030"/></linearGradient><linearGradient id="hJBcjnTnQr~an55MasfK_b" x1="14.566" x2="27.252" y1="7.281" y2="19.967" xlink:href="#hJBcjnTnQr~an55MasfK_a"/><linearGradient id="hJBcjnTnQr~an55MasfK_c" x1="12.748" x2="19.982" y1="35.575" y2="28.341" xlink:href="#hJBcjnTnQr~an55MasfK_a"/><linearGradient id="hJBcjnTnQr~an55MasfK_d" x1="29" x2="29" y1="42.978" y2="33.52" xlink:href="#hJBcjnTnQr~an55MasfK_a"/><linearGradient id="hJBcjnTnQr~an55MasfK_e" x1="-4.761" x2="50.257" y1="25" y2="25" data-name="Безымянный градиент 147" gradientUnits="userSpaceOnUse"><stop offset="0" stop-color="#dfe9f2"/><stop offset=".391" stop-color="#d6e0e9"/><stop offset="1" stop-color="#bfc8d1"/></linearGradient><linearGradient id="hJBcjnTnQr~an55MasfK_f" x1="20.804" x2="33.66" y1="31.147" y2="31.147" xlink:href="#hJBcjnTnQr~an55MasfK_a"/></defs><path fill="url(#hJBcjnTnQr~an55MasfK_a)" d="M9.25,26.77048V23.22459L2.70714,17.274A1.01122,1.01122,0,0,0,1,17.93089v4.28243a1.70044,1.70044,0,0,0,.83366,1.43927C2.38248,23.99308,3,24.48567,3,24.97827s-.61756.98518-1.16635,1.32567A1.70046,1.70046,0,0,0,1,27.74322v4.28242a1.01122,1.01122,0,0,0,1.7071.65692Z"/><path fill="url(#hJBcjnTnQr~an55MasfK_b)" d="M17,10.04566v5.0391a.99242.99242,0,0,0,.8466.987C19.02055,16.24182,21,16.81547,21,18.75h7c0-5.394-4.4-9.248-9.898-9.70454A1.01087,1.01087,0,0,0,17,10.04566Z"/><path fill="url(#hJBcjnTnQr~an55MasfK_c)" d="M11.39255,30.92108l6.10382,4.66763a2,2,0,0,0,2.56635-.11441l4.76475-4.36769-9-5L11.41183,29.318A1,1,0,0,0,11.39255,30.92108Z"/><path fill="url(#hJBcjnTnQr~an55MasfK_d)" d="M26,34v7s6-2,6-7Z"/><path fill="url(#hJBcjnTnQr~an55MasfK_e)" d="M7.75,23a25.80545,25.80545,0,0,0,4.40625-1.28082,26.656,26.656,0,0,0,4.40625-2.04163c2.9375-1.70386,5.875-4.36969,8.8125-5.25134a10.13224,10.13224,0,0,1,4.40625-.35217,15.78375,15.78375,0,0,1,4.40625,1.20355,18.28148,18.28148,0,0,1,4.40625,2.744A21.68373,21.68373,0,0,1,43,23a3.69712,3.69712,0,0,1,0,4,21.68373,21.68373,0,0,1-4.40625,4.97845,18.28148,18.28148,0,0,1-4.40625,2.744A15.78375,15.78375,0,0,1,29.78125,35.926a10.13224,10.13224,0,0,1-4.40625-.35217c-2.9375-.88165-5.875-3.54748-8.8125-5.25134a26.656,26.656,0,0,0-4.40625-2.04163A25.80545,25.80545,0,0,0,7.75,27a2.03107,2.03107,0,0,1,0-4Z"/><path fill="#bfc8d1" d="M48,25c0-.9837-4.68629-6-8-6s-4,2.68629-4,6,.68629,6,4,6S48,28.31371,48,25Z"/><circle cx="40" cy="24" r="1" fill="#343434"/><path fill="url(#hJBcjnTnQr~an55MasfK_f)" d="M27.1842,33.27732l6.0216-2.012A1.16263,1.16263,0,0,0,34,30.16264h0A1.16264,1.16264,0,0,0,32.83736,29H27a1,1,0,0,0-1,1v2.29443A1,1,0,0,0,27.1842,33.27732Z"/></svg>