<svg xmlns="http://www.w3.org/2000/svg" data-name="Слой 1" viewBox="0 0 48 48"><polygon fill="#199be2" points="41 42 7 42 7 18.001 24 12 41 18.001 41 42"/><path fill="#e52030" d="M20.05,3l.9,2.1,2.3.2-1.8,1.5.5,2.2-1.9-1.2L18.15,9l.5-2.2-1.8-1.5,2.3-.2Zm-7.4,3.5-.8,1.9-2.1.2,1.6,1.3-.5,2.1,1.8-1.1,1.8,1.1-.5-2.1,1.6-1.3-2.1-.2Zm16.2-1.4,2.3.2-1.8,1.5.5,2.2-1.9-1.2L26.05,9l.5-2.2-1.8-1.5,2.3-.2.9-2.1Zm5.7,3.3-2.1.2,1.6,1.3-.5,2.1,1.8-1.1,1.8,1.1-.5-2.1,1.6-1.3-2.1-.2-.8-1.9Z"/><path fill="#51bbf5" d="M41,19.00146a.99618.99618,0,0,1-.333-.05761L24,13.06055,7.333,18.94385a.99995.99995,0,0,1-.666-1.88574l17-6.001a.99916.99916,0,0,1,.666,0l17,6.001A1.00028,1.00028,0,0,1,41,19.00146Z"/><rect width="34" height="12" x="7" y="30" fill="#0078d4"/><rect width="6" height="8.999" x="21" y="33" fill="#005094"/><rect width="6" height="6" x="21" y="21" fill="#005094"/><rect width="6" height="6" x="31" y="21" fill="#005094"/><rect width="6" height="6" x="31" y="33" fill="#005094"/><rect width="6" height="6" x="11" y="21" fill="#005094"/><rect width="6" height="6" x="11" y="33" fill="#005094"/></svg>