<svg xmlns="http://www.w3.org/2000/svg" viewBox="0 0 48 48"><linearGradient id="S4dvpl71OlbNKNQzJmSaha" x1="14.243" x2="30.173" y1="500.358" y2="530.694" gradientTransform="translate(0 -492)" gradientUnits="userSpaceOnUse"><stop offset="0" stop-color="#2aa4f4"/><stop offset="1" stop-color="#007ad9"/></linearGradient><path fill="url(#S4dvpl71OlbNKNQzJmSaha)" d="M48,26c0.002,6.626-5.368,11.998-11.993,12c-0.002,0-0.004,0-0.007,0H9.5	c-5.248-0.001-9.501-4.256-9.5-9.504c0.001-4.456,3.099-8.313,7.45-9.276C9.541,10.631,18.198,5.363,26.787,7.454	c3.855,0.938,7.223,3.275,9.453,6.556C42.773,14.132,48.004,19.466,48,26z"/><polygon fill="#cc1b4e" points="47,33 34,36 34,32 47,29"/><path fill="#ed3675" d="M44.5,40c-1.933,0-3.5,1.567-3.5,3.5s1.567,3.5,3.5,3.5s3.5-1.567,3.5-3.5S46.433,40,44.5,40z"/><path fill="#ed3675" d="M31.5,41c-1.933,0-3.5,1.567-3.5,3.5s1.567,3.5,3.5,3.5s3.5-1.567,3.5-3.5S33.433,41,31.5,41z"/><path fill="#ed3675" d="M47.622,27.718c-0.236-0.19-0.551-0.259-0.847-0.192l-13,3C33.321,30.63,33,31.034,33,31.5V44 c0,0.553,0.447,1,1,1s1-0.447,1-1V33.296l11-2.538V43c0,0.553,0.447,1,1,1s1-0.447,1-1V28.5C48,28.195,47.861,27.907,47.622,27.718 z"/><g><path d="M47,26.5c-0.15,0-0.3,0.02-0.44,0.05l-13.01,3C32.64,29.76,32,30.56,32,31.5V38h1v-6.5c0-0.47,0.32-0.87,0.78-0.97l13-3 c0.07-0.02,0.14-0.03,0.22-0.03c0.22,0,0.44,0.07,0.62,0.22c0.09,0.07,0.16,0.15,0.22,0.25c0.03-0.21,0.06-0.42,0.09-0.64 c0.02-0.19,0.04-0.39,0.04-0.58C47.68,26.59,47.34,26.5,47,26.5z M35,38h1v-1.44l8.33-1.92c0.22-0.21,0.43-0.43,0.63-0.66 c0.19-0.2,0.37-0.41,0.53-0.63L35,35.77V38z" opacity=".05"/><path d="M47,27c-0.11,0-0.23,0.01-0.33,0.04l-13.01,3c-0.68,0.16-1.16,0.76-1.16,1.46V38H33v-6.5c0-0.47,0.32-0.87,0.78-0.97l13-3 c0.07-0.02,0.14-0.03,0.22-0.03c0.22,0,0.44,0.07,0.62,0.22c0.09,0.07,0.16,0.15,0.22,0.25c0.03-0.21,0.06-0.42,0.09-0.64 C47.67,27.12,47.34,27,47,27z M35,38h0.5v-1.83l9.46-2.19c0.19-0.2,0.37-0.41,0.53-0.63L35,35.77V38z" opacity=".07"/></g></svg>