<svg xmlns="http://www.w3.org/2000/svg" viewBox="0 0 48 48"><path fill="#61e3a7" d="M44,7v35h-8V7c0-0.552,0.448-1,1-1h6C43.552,6,44,6.448,44,7z"/><path fill="#33c481" d="M36,13v29h-8V14c0-0.552,0.448-1,1-1H36z"/><path fill="#21a366" d="M28,17v25h-8V18c0-0.552,0.448-1,1-1H28z"/><path fill="#107c42" d="M20,21v21h-8V22c0-0.552,0.448-1,1-1H20z"/><path fill="#185c37" d="M12,25v17H4V26c0-0.552,0.448-1,1-1H12z"/><radialGradient id="6xjs7M28ojIY8mmqz53ema" cx="38.319" cy="38.468" r="12.213" gradientUnits="userSpaceOnUse"><stop offset="0"/><stop offset=".979" stop-opacity="0"/></radialGradient><path fill="url(#6xjs7M28ojIY8mmqz53ema)" d="M44,42V27.623C42.233,26.597,40.187,26,38,26c-6.617,0-12,5.383-12,12	c0,1.404,0.255,2.747,0.7,4H28h8H44z"/><linearGradient id="6xjs7M28ojIY8mmqz53emb" x1="33.501" x2="42.792" y1="97.247" y2="115.324" gradientTransform="translate(0 -68)" gradientUnits="userSpaceOnUse"><stop offset="0" stop-color="#fed100"/><stop offset="1" stop-color="#e36001"/></linearGradient><path fill="url(#6xjs7M28ojIY8mmqz53emb)" d="M48,38c0,5.522-4.478,10-10,10s-10-4.478-10-10s4.478-10,10-10S48,32.478,48,38z"/><path d="M38.97,46c-0.35,0-0.666-0.145-0.893-0.378C37.852,45.855,37.535,46,37.186,46h-0.494	c-0.688,0-1.247-0.561-1.247-1.25v-0.135h-0.171c-0.971,0-1.76-0.794-1.76-1.77v-9.68c0-0.976,0.789-1.77,1.76-1.77h0.17V31.25	c0-0.689,0.56-1.25,1.247-1.25h0.494c0.35,0,0.666,0.145,0.893,0.378C38.304,30.145,38.619,30,38.969,30h0.493	c0.688,0,1.247,0.561,1.247,1.25v0.435c0.484,0.142,0.905,0.335,1.256,0.578c0.935,0.646,1.428,1.601,1.428,2.762	c0.001,0.815-0.291,1.602-0.822,2.212c-0.049,0.057-0.099,0.111-0.15,0.165c0.151,0.115,0.294,0.242,0.427,0.38	c0.654,0.684,0.986,1.52,0.986,2.485c0,1.334-0.488,2.415-1.45,3.214c-0.473,0.392-1.033,0.684-1.672,0.872v0.397	c0,0.689-0.56,1.25-1.247,1.25H38.97z M38.361,40.753c0.331,0,0.578-0.061,0.717-0.176c0.064-0.054,0.129-0.126,0.129-0.342	c0-0.176-0.05-0.229-0.105-0.273c-0.134-0.107-0.392-0.166-0.725-0.166H38.01v0.957H38.361z M38.104,35.918	c0.269,0,0.461-0.048,0.571-0.141c0.03-0.026,0.09-0.077,0.09-0.283c-0.004-0.087-0.129-0.227-0.757-0.235v0.659H38.104z" opacity=".05"/><path d="M38.97,45.5c-0.411,0-0.746-0.337-0.746-0.75v-0.635h-0.292v0.635c0,0.413-0.335,0.75-0.746,0.75	h-0.494c-0.412,0-0.747-0.337-0.747-0.75v-0.635h-0.671c-0.694,0-1.26-0.569-1.26-1.27v-9.68c0-0.7,0.565-1.27,1.26-1.27h0.67V31.25	c0-0.413,0.335-0.75,0.747-0.75h0.494c0.412,0,0.747,0.337,0.747,0.75v0.646h0.291V31.25c0-0.413,0.335-0.75,0.746-0.75h0.493	c0.412,0,0.747,0.337,0.747,0.75v0.822c0.587,0.13,1.081,0.331,1.472,0.602c0.805,0.557,1.212,1.348,1.212,2.351	c0.001,0.694-0.247,1.364-0.699,1.884c-0.183,0.211-0.387,0.397-0.611,0.559c0.342,0.17,0.644,0.391,0.904,0.661	c0.563,0.587,0.847,1.306,0.847,2.139c0,1.178-0.427,2.13-1.27,2.829c-0.505,0.418-1.126,0.71-1.853,0.869v0.785	c0,0.413-0.335,0.75-0.747,0.75H38.97z M38.361,41.253c0.455,0,0.804-0.098,1.036-0.291c0.211-0.176,0.31-0.406,0.31-0.727	c0-0.294-0.094-0.506-0.294-0.665c-0.229-0.182-0.578-0.274-1.036-0.274H37.51v1.957H38.361z M38.104,36.418	c0.396,0,0.688-0.085,0.895-0.26c0.114-0.098,0.267-0.273,0.267-0.664c0-0.238,0-0.735-1.322-0.736h-0.435v1.66H38.104z" opacity=".07"/><path fill="#fff" d="M42.833,40.267c0-0.704-0.236-1.301-0.707-1.792c-0.471-0.49-1.101-0.785-1.888-0.884V37.56	c0.644-0.182,1.17-0.508,1.579-0.981c0.375-0.432,0.576-0.98,0.576-1.555c0-0.834-0.333-1.48-0.997-1.939	c-0.435-0.301-1.006-0.493-1.687-0.597V31.25c0-0.138-0.111-0.25-0.247-0.25h-0.494c-0.135,0.001-0.246,0.112-0.246,0.251v1.155	c-0.061-0.002-0.114-0.008-0.176-0.008h-1.115V31.25c0-0.138-0.111-0.25-0.247-0.25h-0.494c-0.136,0-0.247,0.112-0.247,0.25v1.146	h-1.17c-0.419,0-0.76,0.345-0.76,0.769v9.68c0,0.425,0.34,0.769,0.76,0.769h1.171v1.135c0,0.138,0.111,0.25,0.247,0.25h0.494	c0.136,0,0.247-0.112,0.247-0.25v-1.135h1.291v1.135c0,0.138,0.111,0.25,0.247,0.25h0.494c0.136,0,0.247-0.112,0.247-0.25v-1.202	c0.82-0.118,1.499-0.395,2.033-0.837C42.47,42.109,42.833,41.294,42.833,40.267z M39.766,35.494c0,0.444-0.147,0.792-0.444,1.045	c-0.297,0.252-0.702,0.379-1.218,0.379h-1.096v-2.66h0.934C39.159,34.259,39.766,34.67,39.766,35.494z M39.717,41.347	c-0.327,0.272-0.779,0.406-1.356,0.406H37.01v-2.957h1.367c0.576,0,1.026,0.128,1.347,0.383c0.322,0.256,0.483,0.608,0.483,1.056	C40.207,40.705,40.043,41.075,39.717,41.347z"/></svg>