<svg xmlns="http://www.w3.org/2000/svg" xmlns:xlink="http://www.w3.org/1999/xlink" data-name="Слой 1" viewBox="0 0 48 48"><defs><linearGradient id="YBe3_eRW_A9Zb4KUAY_ona" x1="12.784" x2="19.271" y1="28.194" y2="34.681" data-name="Безымянный градиент 102" gradientUnits="userSpaceOnUse"><stop offset="0" stop-color="#f5b967"/><stop offset="1" stop-color="#eba84b"/></linearGradient><linearGradient id="YBe3_eRW_A9Zb4KUAY_onb" x1="12.929" x2="19.416" y1="28.049" y2="34.536" xlink:href="#YBe3_eRW_A9Zb4KUAY_ona"/><linearGradient id="YBe3_eRW_A9Zb4KUAY_onc" x1="21.517" x2="27.049" y1="17.897" y2="23.429" data-name="Безымянный градиент 17" gradientUnits="userSpaceOnUse"><stop offset="0" stop-color="#a1aab3"/><stop offset="1" stop-color="#8f979e"/></linearGradient><linearGradient id="YBe3_eRW_A9Zb4KUAY_ond" x1="34.348" x2="42.272" y1="4.641" y2="12.565" data-name="Безымянный градиент 112" gradientUnits="userSpaceOnUse"><stop offset="0" stop-color="#33c481"/><stop offset="1" stop-color="#21a366"/></linearGradient></defs><path fill="#64717c" d="M9,45a.99676.99676,0,0,1-.707-.293l-5-5A.99989.99989,0,0,1,4.707,38.293l5,5A1,1,0,0,1,9,45Z"/><polygon fill="#64717c" points="4 39 9.25 36 12 38.75 9 44 4 39"/><path fill="url(#YBe3_eRW_A9Zb4KUAY_ona)" d="M24.41,26.41l-12,12A1.994,1.994,0,1,1,9.59,35.59l12-12Z"/><path fill="#64717c" d="M39.41,11.41l-15,15L21.59,23.59l15-15A1.994,1.994,0,0,1,39.41,11.41Z"/><rect width="2.97" height="13.011" x="28.265" y="21.245" fill="#64717c" rx=".99" transform="rotate(-45 29.75 27.75)"/><rect width="2.97" height="10.041" x="23.315" y="26.78" fill="#64717c" rx=".99" transform="rotate(-45 24.8 31.8)"/><path fill="#64717c" d="M27.9,16.5a.98995.98995,0,0,1-1.4,1.4l-4.2-4.2a.98995.98995,0,0,1,1.4-1.4Z"/><rect width="3.96" height="3.96" x="18.42" y="22.42" fill="#64717c" rx=".99" transform="rotate(-45 20.4 24.4)"/><rect width="3.818" height="3.96" x="24.441" y="15.62" fill="#64717c" rx=".99" transform="rotate(-45 26.35 17.6)"/><path fill="url(#YBe3_eRW_A9Zb4KUAY_onb)" d="M21.62,30.62l-4.5,4.5a2.99364,2.99364,0,0,1-4.24,0,2.9997,2.9997,0,0,1,0-4.24l4.5-4.5,1.12.12,3,3Z"/><path fill="#64717c" d="M30.7,27.2l-1.4-1.4,1.4-1.4a.9412.9412,0,0,0,0-1.4l-1.4-1.4,1.4-1.4,1.4,1.4a2.8028,2.8028,0,0,1,0,4.2Z"/><path fill="url(#YBe3_eRW_A9Zb4KUAY_onc)" d="M32.12,20.12l-10.5,10.5-4.24-4.24,10.5-10.5a2.99813,2.99813,0,1,1,4.24,4.24Z"/><path fill="url(#YBe3_eRW_A9Zb4KUAY_ond)" d="M44.707,3.293a.99962.99962,0,0,0-1.41406,0L42.26544,4.3205a3.03817,3.03817,0,0,1-1.68231.84429A9.2222,9.2222,0,0,0,35.5,7.5a10.12389,10.12389,0,0,0-2.09937,4.29968l-1.78015.89008a.5.5,0,0,0-.12994.80078l3.01892,3.01892a.5.5,0,0,0,.80078-.12994l.89008-1.78015A10.12389,10.12389,0,0,0,40.5,12.5a9.2222,9.2222,0,0,0,2.33521-5.08313,3.03778,3.03778,0,0,1,.84429-1.68231L44.707,4.707A.99962.99962,0,0,0,44.707,3.293Z"/><path fill="#107c42" d="M41.15,11.73a5.89,5.89,0,0,1-.65.77,4.555,4.555,0,0,1-.79.63L34.87,8.29a4.555,4.555,0,0,1,.63-.79,5.89,5.89,0,0,1,.77-.65Z"/></svg>