<svg xmlns="http://www.w3.org/2000/svg" viewBox="0 0 48 48"><linearGradient id="nMtD5ZB8cUA2rwqnYWicEa" x1="21.339" x2="26.281" y1="12.035" y2="37.794" gradientUnits="userSpaceOnUse"><stop offset="0" stop-color="#42a3f2"/><stop offset="1" stop-color="#42a4eb"/></linearGradient><path fill="url(#nMtD5ZB8cUA2rwqnYWicEa)" d="M4.941,38c-1.342,0-2.523-0.884-2.886-2.176C1.537,33.983,1,30.7,1,25	s0.537-8.983,1.054-10.824C2.418,12.884,3.599,12,4.941,12l37.413,0c1.137,0,2.193,0.631,2.684,1.657C45.904,15.47,47,18.957,47,25	s-1.096,9.53-1.963,11.343C44.547,37.369,43.491,38,42.354,38L4.941,38z"/><linearGradient id="nMtD5ZB8cUA2rwqnYWicEb" x1="18.122" x2="21.997" y1="14.678" y2="36.259" gradientUnits="userSpaceOnUse"><stop offset="0" stop-color="#3079d6"/><stop offset="1" stop-color="#297cd2"/></linearGradient><path fill="url(#nMtD5ZB8cUA2rwqnYWicEb)" d="M33,25c0,5.045-1,9-1,9l-3.652-2.922C27.496,30.397,27,29.365,27,28.274v-6.549	c0-1.091,0.496-2.122,1.348-2.804L32,16C32,16,33,19.955,33,25z M10.948,18.948L8,16c0,0-1,3.062-1,8.996C7,30.93,8,34,8,34	l2.948-2.948C11.622,30.378,12,29.465,12,28.513v-7.026C12,20.535,11.622,19.622,10.948,18.948z M13.516,34.052L11.568,36h15.98	l-2.544-2.151C24.356,33.301,23.534,33,22.686,33h-6.63C15.103,33,14.19,33.378,13.516,34.052z M25.004,16.151L27.548,14h-15.98	l1.948,1.948C14.19,16.622,15.103,17,16.055,17h6.63C23.534,17,24.356,16.699,25.004,16.151z"/><linearGradient id="nMtD5ZB8cUA2rwqnYWicEc" x1="28" x2="32" y1="10" y2="10" gradientUnits="userSpaceOnUse"><stop offset="0" stop-color="#3079d6"/><stop offset="1" stop-color="#297cd2"/></linearGradient><path fill="url(#nMtD5ZB8cUA2rwqnYWicEc)" d="M28.5,8h0.882c0.379,0,0.725,0.214,0.894,0.553L32,12h-4V8.5C28,8.224,28.224,8,28.5,8z"/><linearGradient id="nMtD5ZB8cUA2rwqnYWicEd" x1="28" x2="32" y1="40" y2="40" gradientTransform="matrix(1 0 0 -1 0 80)" gradientUnits="userSpaceOnUse"><stop offset="0" stop-color="#3079d6"/><stop offset="1" stop-color="#297cd2"/></linearGradient><path fill="url(#nMtD5ZB8cUA2rwqnYWicEd)" d="M28,41.5V38h4l-1.724,3.447C30.107,41.786,29.761,42,29.382,42H28.5	C28.224,42,28,41.776,28,41.5z"/></svg>