<svg xmlns="http://www.w3.org/2000/svg" viewBox="0 0 48 48"><linearGradient id="nIO1IsIai0u1Eyex5iApYa" x1="21" x2="21" y1="17" y2="21" gradientUnits="userSpaceOnUse"><stop offset="0" stop-color="#889097"/><stop offset="1" stop-color="#4c5963"/></linearGradient><path fill="url(#nIO1IsIai0u1Eyex5iApYa)" d="M7,17h28c0.552,0,1,0.448,1,1v2c0,0.552-0.448,1-1,1H7c-0.552,0-1-0.448-1-1v-2 C6,17.448,6.448,17,7,17z"/><linearGradient id="nIO1IsIai0u1Eyex5iApYb" x1="24" x2="24" y1="27" y2="31" gradientUnits="userSpaceOnUse"><stop offset="0" stop-color="#889097"/><stop offset="1" stop-color="#4c5963"/></linearGradient><path fill="url(#nIO1IsIai0u1Eyex5iApYb)" d="M7,27h34c0.552,0,1,0.448,1,1v2c0,0.552-0.448,1-1,1H7c-0.552,0-1-0.448-1-1v-2 C6,27.448,6.448,27,7,27z"/><linearGradient id="nIO1IsIai0u1Eyex5iApYc" x1="21" x2="21" y1="37" y2="41" gradientUnits="userSpaceOnUse"><stop offset="0" stop-color="#889097"/><stop offset="1" stop-color="#4c5963"/></linearGradient><path fill="url(#nIO1IsIai0u1Eyex5iApYc)" d="M7,37h28c0.552,0,1,0.448,1,1v2c0,0.552-0.448,1-1,1H7c-0.552,0-1-0.448-1-1v-2 C6,37.448,6.448,37,7,37z"/><linearGradient id="nIO1IsIai0u1Eyex5iApYd" x1="24" x2="24" y1="7" y2="11" gradientUnits="userSpaceOnUse"><stop offset="0" stop-color="#889097"/><stop offset="1" stop-color="#4c5963"/></linearGradient><path fill="url(#nIO1IsIai0u1Eyex5iApYd)" d="M7,7h34c0.552,0,1,0.448,1,1v2c0,0.552-0.448,1-1,1H7c-0.552,0-1-0.448-1-1V8 C6,7.448,6.448,7,7,7z"/></svg>