<svg xmlns="http://www.w3.org/2000/svg" viewBox="0 0 48 48"><linearGradient id="pAdtDbiul4O4GOdnhWOeXa" x1="31" x2="31" y1="14.029" y2="50.637" gradientUnits="userSpaceOnUse"><stop offset="0" stop-color="#eba84b"/><stop offset=".255" stop-color="#e8a044"/><stop offset=".641" stop-color="#e18b30"/><stop offset="1" stop-color="#d97218"/></linearGradient><path fill="url(#pAdtDbiul4O4GOdnhWOeXa)" d="M44,13.999c0,1.1-0.9,2-2,2v24c0,1.11-0.9,2-2,2H18v-34h11.5v0.01	C39.17,8.089,44,10.749,44,13.999z"/><linearGradient id="pAdtDbiul4O4GOdnhWOeXb" x1="31" x2="31" y1="7.72" y2="18.441" gradientUnits="userSpaceOnUse"><stop offset="0" stop-color="#c26715"/><stop offset="0" stop-color="#c26715"/><stop offset=".51" stop-color="#b85515"/><stop offset="1" stop-color="#ad3f16"/></linearGradient><path fill="url(#pAdtDbiul4O4GOdnhWOeXb)" d="M44,13.999c0,1.1-0.9,2-2,2H18v-8h11.5v0.01C39.17,8.089,44,10.749,44,13.999z"/><linearGradient id="pAdtDbiul4O4GOdnhWOeXc" x1="19" x2="19" y1="5.911" y2="49.676" gradientUnits="userSpaceOnUse"><stop offset="0" stop-color="#fff0ce"/><stop offset="1" stop-color="#ffda94"/></linearGradient><path fill="url(#pAdtDbiul4O4GOdnhWOeXc)" d="M19,7.999c-10,0-15,2.686-15,6c0,1.105,0.895,2,2,2V40c0,1.105,0.895,2,2,2h22	c1.105,0,2-0.895,2-2V15.999c1.105,0,2-0.895,2-2C34,10.685,29,7.999,19,7.999z"/><linearGradient id="pAdtDbiul4O4GOdnhWOeXd" x1="13.5" x2="13.5" y1="25.132" y2="13.924" gradientUnits="userSpaceOnUse"><stop offset=".002" stop-color="#454545"/><stop offset=".013" stop-color="#464646"/><stop offset=".875" stop-color="#626262"/><stop offset="1" stop-color="#6d6d6d"/></linearGradient><circle cx="13.5" cy="23.499" r="2.5" fill="url(#pAdtDbiul4O4GOdnhWOeXd)"/><linearGradient id="pAdtDbiul4O4GOdnhWOeXe" x1="24.5" x2="24.5" y1="25.132" y2="13.924" gradientUnits="userSpaceOnUse"><stop offset=".002" stop-color="#454545"/><stop offset=".013" stop-color="#464646"/><stop offset=".875" stop-color="#626262"/><stop offset="1" stop-color="#6d6d6d"/></linearGradient><circle cx="24.5" cy="23.499" r="2.5" fill="url(#pAdtDbiul4O4GOdnhWOeXe)"/><linearGradient id="pAdtDbiul4O4GOdnhWOeXf" x1="13" x2="13" y1="20.235" y2="25.882" gradientUnits="userSpaceOnUse"><stop offset="0" stop-color="#f9f9f9"/><stop offset="1" stop-color="#c2c8cc"/></linearGradient><circle cx="13" cy="22.999" r="1" fill="url(#pAdtDbiul4O4GOdnhWOeXf)"/><linearGradient id="pAdtDbiul4O4GOdnhWOeXg" x1="24" x2="24" y1="20.235" y2="25.882" gradientUnits="userSpaceOnUse"><stop offset="0" stop-color="#f9f9f9"/><stop offset="1" stop-color="#c2c8cc"/></linearGradient><circle cx="24" cy="22.999" r="1" fill="url(#pAdtDbiul4O4GOdnhWOeXg)"/><circle cx="10" cy="29.999" r="2" fill="#eb6773"/><circle cx="28" cy="29.999" r="2" fill="#eb6773"/><linearGradient id="pAdtDbiul4O4GOdnhWOeXh" x1="19" x2="19" y1="33.352" y2="21.613" gradientUnits="userSpaceOnUse"><stop offset=".002" stop-color="#454545"/><stop offset=".013" stop-color="#464646"/><stop offset=".875" stop-color="#626262"/><stop offset="1" stop-color="#6d6d6d"/></linearGradient><path fill="url(#pAdtDbiul4O4GOdnhWOeXh)" d="M19,32.999c-2.206,0-4-1.794-4-4c0-0.553,0.447-1,1-1s1,0.447,1,1c0,1.103,0.897,2,2,2	s2-0.897,2-2c0-0.553,0.447-1,1-1s1,0.447,1,1C23,31.205,21.206,32.999,19,32.999z"/></svg>