<svg xmlns="http://www.w3.org/2000/svg" xmlns:xlink="http://www.w3.org/1999/xlink" data-name="Layer 1" viewBox="0 0 48 48"><defs><linearGradient id="UkaZnZwYzlt8UCXoujbcXa" x1="30.292" x2="47.38" y1="12.601" y2="29.688" data-name="Безымянный градиент 142" gradientUnits="userSpaceOnUse"><stop offset="0" stop-color="#fed100"/><stop offset=".477" stop-color="#f2ad00"/><stop offset="1" stop-color="#e38101"/></linearGradient><linearGradient id="UkaZnZwYzlt8UCXoujbcXb" x1="28.524" x2="5.464" y1="19.478" y2="42.538" gradientUnits="userSpaceOnUse"><stop offset="0" stop-color="#a34f27"/><stop offset=".587" stop-color="#8b3817"/><stop offset="1" stop-color="#802d10"/></linearGradient><linearGradient id="UkaZnZwYzlt8UCXoujbcXc" x1="30.447" x2="47.535" y1="12.446" y2="29.533" xlink:href="#UkaZnZwYzlt8UCXoujbcXa"/><linearGradient id="UkaZnZwYzlt8UCXoujbcXd" x1="28.721" x2="36.914" y1="29.719" y2="37.913" xlink:href="#UkaZnZwYzlt8UCXoujbcXa"/></defs><path fill="url(#UkaZnZwYzlt8UCXoujbcXa)" d="M39.50184,9.5h-5.5v22a1.5,1.5,0,0,0,1.5,1.5h0a1.5,1.5,0,0,0,1.5-1.5V25a1,1,0,0,1,1-1h0a1,1,0,0,1,1,1v3a2,2,0,0,0,2,2h0a2,2,0,0,0,2-2V9.5Z"/><path fill="url(#UkaZnZwYzlt8UCXoujbcXb)" d="M31.908,18.17413,30.86787,17.134l-1.04853-1.04846L5.04487,38.79633l.01648.01965c-.06531.05487-.136.09985-.19745.16131a2.942,2.942,0,0,0,4.16058,4.16065c.06171-.06171.10694-.13263.162-.19824l.01068.009Z"/><ellipse cx="32.989" cy="15.013" fill="#f09801" rx="10.607" ry="7" transform="rotate(-45 32.989 15.013)"/><path fill="url(#UkaZnZwYzlt8UCXoujbcXc)" d="M27.50184,25a1.49514,1.49514,0,0,1-1.06055-.43945l-3-3a1.49984,1.49984,0,0,1,2.1211-2.1211l3,3A1.5,1.5,0,0,1,27.50184,25Zm7.06055-1.43945a1.49947,1.49947,0,0,0,0-2.1211l-8-8a1.49984,1.49984,0,0,0-2.1211,2.1211l8,8a1.49947,1.49947,0,0,0,2.1211,0Zm7-7a1.49947,1.49947,0,0,0,0-2.1211l-8-8a1.49984,1.49984,0,0,0-2.1211,2.1211l8,8a1.49947,1.49947,0,0,0,2.1211,0Zm1-6a1.49947,1.49947,0,0,0,0-2.1211l-3-3a1.49984,1.49984,0,1,0-2.1211,2.1211l3,3a1.49947,1.49947,0,0,0,2.1211,0ZM39.01258,21.01074a1.49944,1.49944,0,0,0,0-2.12109L29.11219,8.98926a1.49984,1.49984,0,0,0-2.12109,2.12109l9.90039,9.90039a1.49943,1.49943,0,0,0,2.12109,0Z"/><circle cx="35.502" cy="36.5" r="1.5" fill="url(#UkaZnZwYzlt8UCXoujbcXd)"/></svg>