<svg xmlns="http://www.w3.org/2000/svg" viewBox="0 0 48 48"><linearGradient id="D1qtcLwUAKUFxFyET_MjMa" x1="24" x2="24" y1="24.891" y2="49.022" gradientUnits="userSpaceOnUse"><stop offset="0" stop-color="#889097"/><stop offset="1" stop-color="#4c5963"/></linearGradient><path fill="url(#D1qtcLwUAKUFxFyET_MjMa)" d="M33.581,33.5C30.982,32.564,27.644,32,24,32s-6.982,0.564-9.581,1.5H9v5	c0,3.59,6.716,6.5,15,6.5c8.284,0,15-2.91,15-6.5v-5H33.581z"/><linearGradient id="D1qtcLwUAKUFxFyET_MjMb" x1="24" x2="24" y1="36.239" y2="5.376" gradientUnits="userSpaceOnUse"><stop offset="0" stop-color="#4c5963"/><stop offset="1" stop-color="#889097"/></linearGradient><ellipse cx="24" cy="15.5" fill="url(#D1qtcLwUAKUFxFyET_MjMb)" rx="15" ry="12.5"/><path d="M24,5c7.18,0,13,4.701,13,10.5S31.18,26,24,26s-13-4.701-13-10.5S16.82,5,24,5 M24,4c-7.72,0-14,5.159-14,11.5 S16.28,27,24,27s14-5.159,14-11.5S31.72,4,24,4L24,4z" opacity=".05"/><path d="M24,5c7.18,0,13,4.701,13,10.5S31.18,26,24,26s-13-4.701-13-10.5S16.82,5,24,5 M24,4.5c-7.444,0-13.5,4.935-13.5,11 s6.056,11,13.5,11s13.5-4.935,13.5-11S31.444,4.5,24,4.5L24,4.5z" opacity=".07"/><linearGradient id="D1qtcLwUAKUFxFyET_MjMc" x1="13.88" x2="39.911" y1="5.38" y2="31.411" gradientUnits="userSpaceOnUse"><stop offset="0" stop-color="#84e1fe"/><stop offset="1" stop-color="#167cf7"/></linearGradient><ellipse cx="24" cy="15.5" fill="url(#D1qtcLwUAKUFxFyET_MjMc)" rx="13" ry="10.5"/><ellipse cx="24" cy="33.5" fill="#889097" rx="15" ry="6.5"/><g><path d="M24,29c7.18,0,13,2.015,13,4.5S31.18,38,24,38s-13-2.015-13-4.5S16.82,29,24,29 M24,28c-6.957,0-14,1.889-14,5.5 S17.043,39,24,39s14-1.889,14-5.5S30.957,28,24,28L24,28z" opacity=".05"/><path d="M24,29c7.18,0,13,2.015,13,4.5S31.18,38,24,38s-13-2.015-13-4.5S16.82,29,24,29 M24,28.5c-6.544,0-13.5,1.752-13.5,5 s6.956,5,13.5,5s13.5-1.752,13.5-5S30.544,28.5,24,28.5L24,28.5z" opacity=".07"/><linearGradient id="D1qtcLwUAKUFxFyET_MjMd" x1="11" x2="37" y1="33.5" y2="33.5" gradientUnits="userSpaceOnUse"><stop offset="0" stop-color="#ff8f6b"/><stop offset="1" stop-color="#ed6c47"/></linearGradient><ellipse cx="24" cy="33.5" fill="url(#D1qtcLwUAKUFxFyET_MjMd)" rx="13" ry="4.5"/></g></svg>