<svg xmlns="http://www.w3.org/2000/svg" viewBox="0 0 48 48"><linearGradient id="edxcSyqspnPaVpds_Hrhqa" x1="9.823" x2="36.377" y1="6.052" y2="39.669" gradientUnits="userSpaceOnUse"><stop offset="0" stop-color="#a3ffff"/><stop offset=".223" stop-color="#9dfbff"/><stop offset=".53" stop-color="#8bf1ff"/><stop offset=".885" stop-color="#6ee0ff"/><stop offset="1" stop-color="#63daff"/></linearGradient><circle cx="24" cy="24" r="20" fill="url(#edxcSyqspnPaVpds_Hrhqa)"/><path d="M22.491,31.69c-0.868,0-1.684-0.338-2.298-0.952l-6.083-6.084c-0.614-0.613-0.952-1.429-0.952-2.297	s0.338-1.685,0.952-2.298c0.613-0.614,1.429-0.953,2.298-0.953c0.869,0,1.685,0.338,2.299,0.954l3.784,3.785l7.241-7.241	c0.613-0.614,1.43-0.952,2.298-0.952s1.685,0.338,2.298,0.952c0.614,0.613,0.952,1.429,0.952,2.297c0,0.868-0.338,1.684-0.952,2.299	l-9.539,9.539C24.175,31.352,23.359,31.69,22.491,31.69z" opacity=".05"/><path d="M22.491,31.19c-0.734,0-1.425-0.286-1.945-0.805L14.463,24.3c-0.52-0.519-0.806-1.209-0.806-1.944	c0-0.735,0.286-1.425,0.806-1.945c0.519-0.52,1.209-0.806,1.945-0.806c0.735,0,1.426,0.287,1.945,0.807l4.138,4.139l7.594-7.594	c0.519-0.52,1.209-0.806,1.945-0.806c0.735,0,1.425,0.286,1.944,0.806c0.52,0.519,0.806,1.209,0.806,1.944	c0,0.735-0.286,1.425-0.806,1.945l-9.539,9.539C23.916,30.904,23.225,31.19,22.491,31.19z" opacity=".07"/><path fill="#fff" d="M33.621,17.31c-0.878-0.879-2.304-0.879-3.182,0l-7.948,7.948l-4.492-4.493	c-0.878-0.879-2.304-0.879-3.182,0c-0.879,0.879-0.879,2.304,0,3.182l6.083,6.084c0.439,0.439,1.015,0.659,1.591,0.659	c0.576,0,1.152-0.22,1.591-0.659l9.539-9.539C34.5,19.613,34.5,18.188,33.621,17.31z"/></svg>