<svg xmlns="http://www.w3.org/2000/svg" viewBox="0 0 48 48"><path fill="#52bf8d" d="M41,35H28V22h13c0.6,0,1,0.4,1,1v11C42,34.6,41.6,35,41,35z"/><rect width="11" height="13" x="28" y="22" fill="#107c42"/><path fill="#59d19a" d="M41,33H28V20h13c0.6,0,1,0.4,1,1v11C42,32.6,41.6,33,41,33z"/><rect width="11" height="13" x="28" y="20" fill="#21a366"/><linearGradient id="~i0c3iYJWb5~0HOI7sdpza" x1="27" x2="27" y1="46.383" y2="34.255" gradientTransform="matrix(1 0 0 -1 0 50)" gradientUnits="userSpaceOnUse"><stop offset="0" stop-color="#199ae0"/><stop offset="1" stop-color="#0782d8"/></linearGradient><path fill="url(#~i0c3iYJWb5~0HOI7sdpza)" d="M16,20.5V5c0-0.6,0.4-1,1-1h1c0,0.6,0.4,1,1,1s1-0.4,1-1h2c0,0.6,0.4,1,1,1s1-0.4,1-1h2c0,0.6,0.4,1,1,1	s1-0.4,1-1h2c0,0.6,0.4,1,1,1s1-0.4,1-1h2c0,0.6,0.4,1,1,1s1-0.4,1-1h1c0.6,0,1,0.4,1,1v15.5H16z"/><path fill="#61e3a7" d="M41,31H28V18h13c0.6,0,1,0.4,1,1v11C42,30.6,41.6,31,41,31z"/><rect width="11" height="13" x="28" y="18" fill="#33c481"/><circle cx="28.5" cy="24.5" r="4.5" fill="#61e3a7"/><circle cx="36" cy="28" r="1" fill="#61e3a7"/><linearGradient id="~i0c3iYJWb5~0HOI7sdpzb" x1="18" x2="18" y1="36.614" y2="8.785" gradientTransform="matrix(1 0 0 -1 0 50)" gradientUnits="userSpaceOnUse"><stop offset="0" stop-color="#7dd8f3"/><stop offset="1" stop-color="#45b0d0"/></linearGradient><path fill="url(#~i0c3iYJWb5~0HOI7sdpzb)" d="M30,13H8c-1.1,0-2,0.9-2,2v28c0,0.6,0.4,1,1,1h1c0-0.6,0.4-1,1-1s1,0.5,1,1h2c0-0.6,0.4-1,1-1s1,0.5,1,1h2	c0-0.6,0.4-1,1-1s1,0.5,1,1h2c0-0.6,0.4-1,1-1s1,0.5,1,1h2c0-0.6,0.4-1,1-1s1,0.5,1,1h1c0.6,0,1-0.4,1-1V16h2V13z"/><linearGradient id="~i0c3iYJWb5~0HOI7sdpzc" x1="30" x2="30" y1="27.769" y2="35.113" gradientTransform="matrix(1 0 0 -1 0 50)" gradientUnits="userSpaceOnUse"><stop offset="0" stop-color="#0176d0"/><stop offset="1" stop-color="#16538c"/></linearGradient><path fill="url(#~i0c3iYJWb5~0HOI7sdpzc)" d="M32,18h-4v-3c0-1.1,0.9-2,2-2l0,0c1.1,0,2,0.9,2,2V18z"/><path fill="#057093" d="M24.5,20h-15C9.2,20,9,19.8,9,19.5v-1C9,18.2,9.2,18,9.5,18h15c0.3,0,0.5,0.2,0.5,0.5v1	C25,19.8,24.8,20,24.5,20z"/><path fill="#057093" d="M24.5,27h-1c-0.3,0-0.5-0.2-0.5-0.5v-1c0-0.3,0.2-0.5,0.5-0.5h1c0.3,0,0.5,0.2,0.5,0.5v1	C25,26.8,24.8,27,24.5,27z"/><path fill="#057093" d="M16.5,27h-7C9.2,27,9,26.8,9,26.5v-1C9,25.2,9.2,25,9.5,25h7c0.3,0,0.5,0.2,0.5,0.5v1C17,26.8,16.8,27,16.5,27z"/><path fill="#057093" d="M24.5,31h-1c-0.3,0-0.5-0.2-0.5-0.5v-1c0-0.3,0.2-0.5,0.5-0.5h1c0.3,0,0.5,0.2,0.5,0.5v1	C25,30.8,24.8,31,24.5,31z"/><path fill="#057093" d="M13.5,31h-4C9.2,31,9,30.8,9,30.5v-1C9,29.2,9.2,29,9.5,29h4c0.3,0,0.5,0.2,0.5,0.5v1C14,30.8,13.8,31,13.5,31z"/><path fill="#057093" d="M24.5,35h-1c-0.3,0-0.5-0.2-0.5-0.5v-1c0-0.3,0.2-0.5,0.5-0.5h1c0.3,0,0.5,0.2,0.5,0.5v1	C25,34.8,24.8,35,24.5,35z"/><path fill="#057093" d="M16.5,35h-7C9.2,35,9,34.8,9,34.5v-1C9,33.2,9.2,33,9.5,33h7c0.3,0,0.5,0.2,0.5,0.5v1C17,34.8,16.8,35,16.5,35z"/><rect width="1" height="17" x="28" y="18" opacity=".05"/><rect width=".5" height="17" x="28" y="18" opacity=".07"/></svg>