<svg xmlns="http://www.w3.org/2000/svg" viewBox="0 0 48 48"><path fill="#ed6c47" d="M40,42H8c-1.105,0-2-0.895-2-2V26h36v14C42,41.105,41.105,42,40,42z"/><linearGradient id="0ubD_yzaTT3jKXwozHou5a" x1="408.763" x2="403.819" y1="60.115" y2="58.498" gradientTransform="matrix(1 0 0 -1 -393.153 76.742)" gradientUnits="userSpaceOnUse"><stop offset="0" stop-color="#ae4cd5"/><stop offset="1" stop-color="#ac4ad5"/></linearGradient><path fill="url(#0ubD_yzaTT3jKXwozHou5a)" d="M16,20.934v-6.196C16,14.33,15.67,14,15.262,14H9.066c-0.439,0-0.659,0.532-0.349,0.842	l6.441,6.441C15.468,21.593,16,21.374,16,20.934z"/><linearGradient id="0ubD_yzaTT3jKXwozHou5b" x1="268.182" x2="264.302" y1="190.023" y2="188.754" gradientTransform="scale(1 -1) rotate(-45 -113.708 393.706)" gradientUnits="userSpaceOnUse"><stop offset="0" stop-color="#ae4cd5"/><stop offset="1" stop-color="#ac4ad5"/></linearGradient><path fill="url(#0ubD_yzaTT3jKXwozHou5b)" d="M7.909,23.259l-1.167-1.167	c-0.323-0.323-0.323-0.845,0-1.167l5.253-5.253c0.323-0.323,0.845-0.323,1.167,0l1.167,1.167c0.323,0.323,0.323,0.845,0,1.167	l-5.253,5.253C8.753,23.581,8.231,23.581,7.909,23.259z"/><linearGradient id="0ubD_yzaTT3jKXwozHou5c" x1="5.758" x2="40.194" y1="15.468" y2="35.349" gradientUnits="userSpaceOnUse"><stop offset="0" stop-color="#ffcf54"/><stop offset=".261" stop-color="#fdcb4d"/><stop offset=".639" stop-color="#f7c13a"/><stop offset="1" stop-color="#f0b421"/></linearGradient><path fill="url(#0ubD_yzaTT3jKXwozHou5c)" d="M41,27H7c-0.552,0-1-0.447-1-1s0.448-1,1-1	h34c0.552,0,1,0.447,1,1S41.552,27,41,27z"/><linearGradient id="0ubD_yzaTT3jKXwozHou5d" x1="8.518" x2="44.026" y1="8.19" y2="28.691" gradientUnits="userSpaceOnUse"><stop offset="0" stop-color="#ffcf54"/><stop offset=".261" stop-color="#fdcb4d"/><stop offset=".639" stop-color="#f7c13a"/><stop offset="1" stop-color="#f0b421"/></linearGradient><path fill="url(#0ubD_yzaTT3jKXwozHou5d)" d="M41,25	c-13.746,0-20.522-3.809-25.895-14.553c-0.247-0.494-0.047-1.095,0.447-1.342c0.496-0.246,1.095-0.047,1.342,0.447	C21.921,19.606,28.004,23,41,23c0.552,0,1,0.447,1,1S41.552,25,41,25z"/><path fill="#ff8f6b" d="M15,32H8c-1.105,0-2-0.895-2-2v0c0-1.105,0.895-2,2-2h7c1.105,0,2,0.895,2,2v0	C17,31.105,16.105,32,15,32z"/><path fill="#ff8f6b" d="M27,32h-7c-1.105,0-2-0.895-2-2v0c0-1.105,0.895-2,2-2h7c1.105,0,2,0.895,2,2v0	C29,31.105,28.105,32,27,32z"/><path fill="#ff8f6b" d="M39,32h-7c-1.105,0-2-0.895-2-2v0c0-1.105,0.895-2,2-2h7c1.105,0,2,0.895,2,2v0	C41,31.105,40.105,32,39,32z"/><path fill="#ff8f6b" d="M15,42H8c-1.105,0-2-0.895-2-2v0c0-1.105,0.895-2,2-2h7c1.105,0,2,0.895,2,2v0	C17,41.105,16.105,42,15,42z"/><path fill="#ff8f6b" d="M27,42h-7c-1.105,0-2-0.895-2-2v0c0-1.105,0.895-2,2-2h7c1.105,0,2,0.895,2,2v0	C29,41.105,28.105,42,27,42z"/><path fill="#ff8f6b" d="M39,42h-7c-1.105,0-2-0.895-2-2v0c0-1.105,0.895-2,2-2h7c1.105,0,2,0.895,2,2v0	C41,41.105,40.105,42,39,42z"/><path fill="#ff8f6b" d="M21,37h-7c-1.105,0-2-0.895-2-2v0c0-1.105,0.895-2,2-2h7c1.105,0,2,0.895,2,2v0	C23,36.105,22.105,37,21,37z"/><path fill="#ff8f6b" d="M9,37H6v-4h3c1.105,0,2,0.895,2,2v0C11,36.105,10.105,37,9,37z"/><path fill="#ff8f6b" d="M33,37h-7c-1.105,0-2-0.895-2-2v0c0-1.105,0.895-2,2-2h7c1.105,0,2,0.895,2,2v0	C35,36.105,34.105,37,33,37z"/><path fill="#ff8f6b" d="M42,37h-4c-1.105,0-2-0.895-2-2v0c0-1.105,0.895-2,2-2h4V37z"/></svg>