<svg xmlns="http://www.w3.org/2000/svg" viewBox="0 0 48 48"><radialGradient id="tWPyB8jmePAokSvMTPhupa" cx="24.136" cy="23.864" r="26.064" gradientUnits="userSpaceOnUse"><stop offset="0" stop-color="#fed100"/><stop offset="1" stop-color="#e36001"/></radialGradient><path fill="url(#tWPyB8jmePAokSvMTPhupa)" d="M42.418,5.582c-3.73-3.73-13.192-0.316-18.069,4.562c-2.31,2.31-3.321,4.677-3.349,6.925 C20.969,19.568,22.036,22.036,24,24s4.432,3.031,6.932,2.999c2.248-0.028,4.615-1.039,6.925-3.349 C42.734,18.773,46.148,9.312,42.418,5.582z"/><radialGradient id="tWPyB8jmePAokSvMTPhupb" cx="41.136" cy="23.864" r="26.064" gradientTransform="matrix(-1 0 0 1 65 0)" gradientUnits="userSpaceOnUse"><stop offset="0" stop-color="#fed100"/><stop offset="1" stop-color="#e36001"/></radialGradient><path fill="url(#tWPyB8jmePAokSvMTPhupb)" d="M5.582,5.582c3.73-3.73,13.192-0.316,18.069,4.562c2.31,2.31,3.321,4.677,3.349,6.925 C27.031,19.568,25.964,22.036,24,24s-4.432,3.031-6.932,2.999c-2.248-0.028-4.615-1.039-6.925-3.349 C5.266,18.773,1.852,9.312,5.582,5.582z"/><radialGradient id="tWPyB8jmePAokSvMTPhupc" cx="41.136" cy="6.864" r="26.064" gradientTransform="rotate(180 32.5 15.5)" gradientUnits="userSpaceOnUse"><stop offset="0" stop-color="#fed100"/><stop offset="1" stop-color="#e36001"/></radialGradient><path fill="url(#tWPyB8jmePAokSvMTPhupc)" d="M5.582,42.418c3.73,3.73,13.192,0.316,18.069-4.562c2.31-2.31,3.321-4.677,3.349-6.925 C27.031,28.432,25.964,25.964,24,24s-4.432-3.031-6.932-2.999c-2.248,0.028-4.615,1.039-6.925,3.349 C5.266,29.227,1.852,38.688,5.582,42.418z"/><radialGradient id="tWPyB8jmePAokSvMTPhupd" cx="24.136" cy="6.864" r="26.064" gradientTransform="matrix(1 0 0 -1 0 31)" gradientUnits="userSpaceOnUse"><stop offset="0" stop-color="#fed100"/><stop offset="1" stop-color="#e36001"/></radialGradient><path fill="url(#tWPyB8jmePAokSvMTPhupd)" d="M42.418,42.418c-3.73,3.73-13.192,0.316-18.069-4.562c-2.31-2.31-3.321-4.677-3.349-6.925 C20.969,28.432,22.036,25.964,24,24s4.432-3.031,6.932-2.999c2.248,0.028,4.615,1.039,6.925,3.349 C42.734,29.227,46.148,38.688,42.418,42.418z"/><radialGradient id="tWPyB8jmePAokSvMTPhupe" cx="24" cy="23.917" r="12.44" gradientUnits="userSpaceOnUse"><stop offset="0" stop-color="#f44f5a"/><stop offset=".443" stop-color="#ee3d4a"/><stop offset="1" stop-color="#e52030"/></radialGradient><path fill="url(#tWPyB8jmePAokSvMTPhupe)" d="M24,24c1.964-1.964,3.031-4.432,2.999-6.932C26.973,14.942,26.052,12.71,24,10.52 c-2.052,2.19-2.973,4.422-2.999,6.548C20.969,19.568,22.036,22.036,24,24z"/><radialGradient id="tWPyB8jmePAokSvMTPhupf" cx="24" cy="23.917" r="12.44" gradientUnits="userSpaceOnUse"><stop offset="0" stop-color="#f44f5a"/><stop offset=".443" stop-color="#ee3d4a"/><stop offset="1" stop-color="#e52030"/></radialGradient><path fill="url(#tWPyB8jmePAokSvMTPhupf)" d="M24,24c-1.964-1.964-4.432-3.031-6.932-2.999C14.942,21.027,12.71,21.948,10.52,24 c2.19,2.052,4.422,2.973,6.548,2.999C19.567,27.031,22.036,25.964,24,24z"/><radialGradient id="tWPyB8jmePAokSvMTPhupg" cx="24" cy="23.917" r="12.44" gradientUnits="userSpaceOnUse"><stop offset="0" stop-color="#f44f5a"/><stop offset=".443" stop-color="#ee3d4a"/><stop offset="1" stop-color="#e52030"/></radialGradient><path fill="url(#tWPyB8jmePAokSvMTPhupg)" d="M24,24c1.964,1.964,4.432,3.031,6.932,2.999c2.126-0.027,4.358-0.947,6.548-2.999 c-2.19-2.052-4.422-2.973-6.548-2.999C28.432,20.969,25.964,22.036,24,24z"/><radialGradient id="tWPyB8jmePAokSvMTPhuph" cx="24" cy="23.917" r="12.44" gradientUnits="userSpaceOnUse"><stop offset="0" stop-color="#f44f5a"/><stop offset=".443" stop-color="#ee3d4a"/><stop offset="1" stop-color="#e52030"/></radialGradient><path fill="url(#tWPyB8jmePAokSvMTPhuph)" d="M24,24c-1.964,1.964-3.031,4.432-2.999,6.932c0.027,2.126,0.947,4.358,2.999,6.548 c2.052-2.19,2.973-4.422,2.999-6.548C27.031,28.432,25.964,25.964,24,24z"/></svg>