<svg xmlns="http://www.w3.org/2000/svg" viewBox="0 0 48 48"><linearGradient id="BhL_67F~A~yBpt~84usxRa" x1="24" x2="24" y1="2.826" y2="27.479" gradientUnits="userSpaceOnUse"><stop offset="0" stop-color="#ffd869"/><stop offset="1" stop-color="#fec52b"/></linearGradient><path fill="url(#BhL_67F~A~yBpt~84usxRa)" d="M24,29C13.523,29,5,22.944,5,15.5S13.523,2,24,2s19,6.056,19,13.5S34.477,29,24,29z M24,5	C15.178,5,8,9.71,8,15.5S15.178,26,24,26s16-4.71,16-10.5S32.822,5,24,5z"/><linearGradient id="BhL_67F~A~yBpt~84usxRb" x1="36.136" x2="38.101" y1="1045.5" y2="1045.5" gradientTransform="translate(0 -1018)" gradientUnits="userSpaceOnUse"><stop offset="0" stop-color="#c48f0c"/><stop offset=".251" stop-color="#d19b16"/><stop offset=".619" stop-color="#dca51f"/><stop offset="1" stop-color="#e0a922"/></linearGradient><path fill="url(#BhL_67F~A~yBpt~84usxRb)" d="M36.135,24h-0.778v7h1.011c0.778,0,1.4-0.544,1.556-1.322l0.544-2.956	C38.702,25.322,37.613,24,36.135,24z"/><linearGradient id="BhL_67F~A~yBpt~84usxRc" x1="-2993.865" x2="-2991.899" y1="1045.5" y2="1045.5" gradientTransform="matrix(-1 0 0 1 -2982 -1018)" gradientUnits="userSpaceOnUse"><stop offset="0" stop-color="#c48f0c"/><stop offset=".251" stop-color="#d19b16"/><stop offset=".619" stop-color="#dca51f"/><stop offset="1" stop-color="#e0a922"/></linearGradient><path fill="url(#BhL_67F~A~yBpt~84usxRc)" d="M11.865,24h0.778v7h-1.011c-0.778,0-1.4-0.544-1.556-1.322l-0.544-2.956	C9.298,25.322,10.387,24,11.865,24z"/><radialGradient id="BhL_67F~A~yBpt~84usxRd" cx="23.804" cy="29.13" r="13.309" gradientUnits="userSpaceOnUse"><stop offset="0" stop-color="#ffcf54"/><stop offset=".261" stop-color="#fdcb4d"/><stop offset=".639" stop-color="#f7c13a"/><stop offset="1" stop-color="#f0b421"/></radialGradient><path fill="url(#BhL_67F~A~yBpt~84usxRd)" d="M36,26.1v5.81C36,36.44,28.8,42,24,42s-12-5.56-12-10.09V26.1c0-1.17,0.05-2.24,0.15-3.24	c0.23-2.39,0.73-2.56,1.42-4.11C15.76,13.88,19.92,13,24,13s8.24,0.88,10.43,5.75c0.69,1.55,1.19,1.72,1.42,4.11	C35.95,23.86,36,24.93,36,26.1z"/><path fill="#d59f1a" d="M22,33h4c0.552,0,1,0.448,1,1l0,0c0,0.552-0.448,1-1,1h-4c-0.552,0-1-0.448-1-1l0,0	C21,33.448,21.448,33,22,33z"/><linearGradient id="BhL_67F~A~yBpt~84usxRe" x1="16.908" x2="31.865" y1="8.687" y2="49.781" gradientUnits="userSpaceOnUse"><stop offset="0" stop-color="#dfe9f2"/><stop offset=".391" stop-color="#d6e0e9"/><stop offset="1" stop-color="#bfc8d1"/></linearGradient><path fill="url(#BhL_67F~A~yBpt~84usxRe)" d="M36,22.83V33c0,6.63-5.37,12-12,12s-12-5.37-12-12V22.83c0.05,0.01,0.1,0.02,0.15,0.03	c0.23-2.39,0.73-4.31,1.42-5.86H14v9c0,5.52,4.48,10,10,10s10-4.48,10-10v-9h0.43c0.69,1.55,1.19,3.47,1.42,5.86	C35.9,22.85,35.95,22.84,36,22.83z"/><linearGradient id="BhL_67F~A~yBpt~84usxRf" x1="19.426" x2="36.288" y1="9.264" y2="55.593" gradientUnits="userSpaceOnUse"><stop offset="0" stop-color="#dfe9f2"/><stop offset=".391" stop-color="#d6e0e9"/><stop offset="1" stop-color="#bfc8d1"/></linearGradient><path fill="url(#BhL_67F~A~yBpt~84usxRf)" d="M35.85,22.86C35.25,22.95,34.63,23,34,23c-4.45,0-8.27-2.4-10-5.85C22.27,20.6,18.45,23,14,23	c-0.63,0-1.25-0.05-1.85-0.14c0.23-2.39,0.73-4.31,1.42-5.86c2.19-4.87,6.35-6,10.43-6s8.24,1.13,10.43,6	C35.12,18.55,35.62,20.47,35.85,22.86z"/><linearGradient id="BhL_67F~A~yBpt~84usxRg" x1="13.808" x2="29.044" y1="9.649" y2="51.51" gradientUnits="userSpaceOnUse"><stop offset="0" stop-color="#dfe9f2"/><stop offset=".391" stop-color="#d6e0e9"/><stop offset="1" stop-color="#bfc8d1"/></linearGradient><path fill="url(#BhL_67F~A~yBpt~84usxRg)" d="M24,43c-4.963,0-9-0.977-9-5.25S19.037,30,24,30s9,3.477,9,7.75S28.963,43,24,43z M24,33	c-3.309,0-6,2.131-6,4.75S20.691,40,24,40s6,0.369,6-2.25S27.309,33,24,33z"/></svg>