<svg xmlns="http://www.w3.org/2000/svg" viewBox="0 0 48 48"><path fill="#edbe00" d="M19.959,12H16.5c-0.276,0-0.5-0.224-0.5-0.5v-1c0-0.276,0.224-0.5,0.5-0.5h2.545l2.199-2.542 l1.512,1.309L19.959,12z"/><path fill="#edbe00" d="M31.5,12h-3.459l-2.797-3.234l1.512-1.309L28.955,10H31.5c0.276,0,0.5,0.224,0.5,0.5v1 C32,11.776,31.776,12,31.5,12z"/><linearGradient id="7QbiPRqJ1uauE0Jlgc1s1a" x1="10.382" x2="36.359" y1="13.86" y2="44.472" gradientUnits="userSpaceOnUse"><stop offset="0" stop-color="#f44f5a"/><stop offset=".443" stop-color="#ee3d4a"/><stop offset="1" stop-color="#e52030"/></linearGradient><path fill="url(#7QbiPRqJ1uauE0Jlgc1s1a)" d="M40,20.167l0-3.331C40,15.27,38.73,14,37.164,14H10.836C9.27,14,8,15.27,8,16.836l0,3.355	c0,1.732-0.891,3.34-2.36,4.258c-3.259,2.037-5.195,5.925-4.263,10.153C2.348,39.005,6.467,42,10.974,42h26.052	c4.508,0,8.627-2.995,9.597-7.397c0.93-4.22-0.996-8.1-4.242-10.141C40.901,23.533,40,21.914,40,20.167z"/><linearGradient id="7QbiPRqJ1uauE0Jlgc1s1b" x1="24" x2="24" y1="11.367" y2="24.869" gradientUnits="userSpaceOnUse"><stop offset="0" stop-color="#fede00"/><stop offset=".727" stop-color="#fecc00"/><stop offset=".874" stop-color="#ffb700"/></linearGradient><path fill="url(#7QbiPRqJ1uauE0Jlgc1s1b)" d="M8.25,19.227l0.03-0.02c0.156-2.963,2.594-5.332,5.595-5.207h2.262h16.516h1.472	c3-0.125,5.438,2.242,5.595,5.204l0.03,0.023c0,1.93,0.798,3.797,2.25,5.036V19.5c0-4.342-3.533-7.875-7.875-7.5h-20.25	C9.533,11.625,6,15.158,6,19.5v4.763C7.452,23.024,8.25,21.156,8.25,19.227z"/><circle cx="22" cy="8" r="2" fill="#fad500"/><circle cx="22" cy="8" r="2" fill="#fad500"/><circle cx="26" cy="8" r="2" fill="#fad500"/><circle cx="26" cy="8" r="2" fill="#fad500"/></svg>