<svg xmlns="http://www.w3.org/2000/svg" xmlns:xlink="http://www.w3.org/1999/xlink" data-name="Слой 1" viewBox="0 0 48 48"><defs><linearGradient id="em1V5Bk2VvRR2MZfyzQ4Ga" x1="25.339" x2="33.9" y1="337.069" y2="320.412" data-name="Безымянный градиент 4" gradientTransform="matrix(1 0 0 -1 .174 339.925)" gradientUnits="userSpaceOnUse"><stop offset="0" stop-color="#42a3f2"/><stop offset="1" stop-color="#42a4eb"/></linearGradient><linearGradient id="em1V5Bk2VvRR2MZfyzQ4Gb" x1="27.284" x2="27.284" y1="321.058" y2="334.3" data-name="Безымянный градиент 9" gradientTransform="matrix(1 0 0 -1 0 340)" gradientUnits="userSpaceOnUse"><stop offset="0" stop-color="#3079d6"/><stop offset="1" stop-color="#297cd2"/></linearGradient><linearGradient id="em1V5Bk2VvRR2MZfyzQ4Gd" x1="-2109.572" x2="-2101.01" y1="338.072" y2="321.415" gradientTransform="rotate(-179.945 -1046.615 169.946)" xlink:href="#em1V5Bk2VvRR2MZfyzQ4Ga"/><linearGradient id="em1V5Bk2VvRR2MZfyzQ4Ge" x1="-2107.254" x2="-2107.254" y1="321.058" y2="334.3" gradientTransform="rotate(180 -1046.269 170)" xlink:href="#em1V5Bk2VvRR2MZfyzQ4Gb"/><linearGradient id="em1V5Bk2VvRR2MZfyzQ4Gf" x1="21" x2="21" y1="321.058" y2="334.3" gradientTransform="matrix(1 0 0 -1 0 340)" xlink:href="#em1V5Bk2VvRR2MZfyzQ4Ga"/><linearGradient id="em1V5Bk2VvRR2MZfyzQ4Gg" x1="25.021" x2="25.021" y1="42.587" y2="24.239" data-name="Безымянный градиент 137" gradientUnits="userSpaceOnUse"><stop offset="0" stop-color="#ffda94"/><stop offset="1" stop-color="#fff0ce"/></linearGradient><linearGradient id="em1V5Bk2VvRR2MZfyzQ4Gc" x1="6.236" x2="43.847" y1="33.82" y2="33.82" data-name="Безымянный градиент 37" gradientUnits="userSpaceOnUse"><stop offset="0" stop-color="#d97218"/><stop offset=".56" stop-color="#c46716"/><stop offset="1" stop-color="#ba6215"/></linearGradient><linearGradient id="em1V5Bk2VvRR2MZfyzQ4Gh" x1="-2.932" x2="43.758" y1="39" y2="39" xlink:href="#em1V5Bk2VvRR2MZfyzQ4Gc"/><linearGradient id="em1V5Bk2VvRR2MZfyzQ4Gi" x1="3.196" x2="42.794" y1="38" y2="38" xlink:href="#em1V5Bk2VvRR2MZfyzQ4Gc"/><linearGradient id="em1V5Bk2VvRR2MZfyzQ4Gj" x1="6.196" x2="45.794" y1="40.5" y2="40.5" xlink:href="#em1V5Bk2VvRR2MZfyzQ4Gc"/></defs><path fill="#64717c" d="M20,12h2a0,0,0,0,1,0,0V42a1,1,0,0,1-1,1h0a1,1,0,0,1-1-1V12A0,0,0,0,1,20,12Z"/><path fill="url(#em1V5Bk2VvRR2MZfyzQ4Ga)" d="M38,16.96964,33.75,17S26.1,5,20.98385,5C35.45,5,38,16.96964,38,16.96964Z"/><path fill="url(#em1V5Bk2VvRR2MZfyzQ4Gb)" d="M34,17a6.362,6.362,0,0,1-4.0625,2A5.89948,5.89948,0,0,1,26,17S18.75669,5,21,5C29.9375,5,34,14.52941,34,17Z"/><path fill="url(#em1V5Bk2VvRR2MZfyzQ4Gd)" d="M4,16.96964,8.25,17S15.9,5,21.01615,5C6.55,5,4,16.96964,4,16.96964Z"/><path fill="url(#em1V5Bk2VvRR2MZfyzQ4Ge)" d="M8,17a6.362,6.362,0,0,0,4.06249,2A5.89949,5.89949,0,0,0,16,17S23.24331,5,21,5C12.06249,5,8,14.52941,8,17Z"/><path fill="url(#em1V5Bk2VvRR2MZfyzQ4Gf)" d="M26,17a8.73261,8.73261,0,0,1-5,2,8.73261,8.73261,0,0,1-5-2C16,5.47059,21,5,21,5S26,5.47059,26,17Z"/><g><path fill="url(#em1V5Bk2VvRR2MZfyzQ4Gg)" d="M28.49316,38H9.5a1.5,1.5,0,0,1,0-3H28l11.65234-8.31787a1.49986,1.49986,0,1,1,1.7793,2.415L29.38281,37.70752A1.49948,1.49948,0,0,1,28.49316,38Z"/><path fill="url(#em1V5Bk2VvRR2MZfyzQ4Gc)" d="M28.99316,40H8a1,1,0,0,1,0-2H28.65625L42.43652,27.84375a1,1,0,0,1,1.21094,1.5918L29.59863,39.7959A1.00006,1.00006,0,0,1,28.99316,40Z"/><path fill="url(#em1V5Bk2VvRR2MZfyzQ4Gh)" d="M43,40H28.49316a1,1,0,0,1,0-2H43a1,1,0,0,1,0,2Z"/><path fill="url(#em1V5Bk2VvRR2MZfyzQ4Gi)" d="M39,43a.99974.99974,0,0,1-1-1V38.65918l-1.91211-4.249a1.00009,1.00009,0,1,1,1.82422-.82032l2,4.44434A1.00513,1.00513,0,0,1,40,38.44434V42A.99974.99974,0,0,1,39,43Z"/><path fill="url(#em1V5Bk2VvRR2MZfyzQ4Gj)" d="M12,43a.99974.99974,0,0,1-1-1V39a1,1,0,0,1,2,0v3A.99974.99974,0,0,1,12,43Z"/></g></svg>