<svg xmlns="http://www.w3.org/2000/svg" viewBox="0 0 48 48"><linearGradient id="w2vn5uG5zwUnjCn7_kSbKa" x1="19.89" x2="28.438" y1="20.957" y2="44.291" gradientUnits="userSpaceOnUse"><stop offset="0" stop-color="#d43a02"/><stop offset="1" stop-color="#b9360c"/></linearGradient><path fill="url(#w2vn5uG5zwUnjCn7_kSbKa)" d="M41,42H7c-1.1,0-2-0.9-2-2V24h38v16C43,41.1,42.1,42,41,42z"/><linearGradient id="w2vn5uG5zwUnjCn7_kSbKb" x1="14.326" x2="33.71" y1="5.619" y2="25.003" gradientUnits="userSpaceOnUse"><stop offset="0" stop-color="#c965eb"/><stop offset="1" stop-color="#c767e5"/></linearGradient><path fill="url(#w2vn5uG5zwUnjCn7_kSbKb)" d="M25,11h-2c-0.552,0-1,0.448-1,1v7h4v-7C26,11.448,25.552,11,25,11z"/><linearGradient id="w2vn5uG5zwUnjCn7_kSbKc" x1="16.167" x2="31.863" y1="-.212" y2="15.484" gradientUnits="userSpaceOnUse"><stop offset="0" stop-color="#f44f5a"/><stop offset=".443" stop-color="#ee3d4a"/><stop offset="1" stop-color="#e52030"/></linearGradient><path fill="url(#w2vn5uG5zwUnjCn7_kSbKc)" d="M27,8c0,1.657-1.343,3-3,3s-3-1.343-3-3s3-5,3-5S27,6.343,27,8z"/><linearGradient id="w2vn5uG5zwUnjCn7_kSbKd" x1="20.083" x2="27.931" y1="5.394" y2="13.242" gradientUnits="userSpaceOnUse"><stop offset="0" stop-color="#fede00"/><stop offset=".519" stop-color="#fecc00"/><stop offset="1" stop-color="#ffb700"/></linearGradient><path fill="url(#w2vn5uG5zwUnjCn7_kSbKd)" d="M25.5,9.5c0,0.828-0.672,1.5-1.5,1.5s-1.5-0.672-1.5-1.5S24,7,24,7S25.5,8.672,25.5,9.5z"/><linearGradient id="w2vn5uG5zwUnjCn7_kSbKe" x1="24.326" x2="43.71" y1="5.619" y2="25.003" gradientUnits="userSpaceOnUse"><stop offset="0" stop-color="#c965eb"/><stop offset="1" stop-color="#c767e5"/></linearGradient><path fill="url(#w2vn5uG5zwUnjCn7_kSbKe)" d="M35,11h-2c-0.552,0-1,0.448-1,1v7h4v-7C36,11.448,35.552,11,35,11z"/><linearGradient id="w2vn5uG5zwUnjCn7_kSbKf" x1="26.167" x2="41.863" y1="-.212" y2="15.484" gradientUnits="userSpaceOnUse"><stop offset="0" stop-color="#f44f5a"/><stop offset=".443" stop-color="#ee3d4a"/><stop offset="1" stop-color="#e52030"/></linearGradient><path fill="url(#w2vn5uG5zwUnjCn7_kSbKf)" d="M37,8c0,1.657-1.343,3-3,3s-3-1.343-3-3s3-5,3-5S37,6.343,37,8z"/><linearGradient id="w2vn5uG5zwUnjCn7_kSbKg" x1="30.083" x2="37.931" y1="5.394" y2="13.242" gradientUnits="userSpaceOnUse"><stop offset="0" stop-color="#fede00"/><stop offset=".519" stop-color="#fecc00"/><stop offset="1" stop-color="#ffb700"/></linearGradient><path fill="url(#w2vn5uG5zwUnjCn7_kSbKg)" d="M35.5,9.5c0,0.828-0.672,1.5-1.5,1.5s-1.5-0.672-1.5-1.5S34,7,34,7S35.5,8.672,35.5,9.5z"/><linearGradient id="w2vn5uG5zwUnjCn7_kSbKh" x1="4.326" x2="23.71" y1="5.619" y2="25.003" gradientUnits="userSpaceOnUse"><stop offset="0" stop-color="#c965eb"/><stop offset="1" stop-color="#c767e5"/></linearGradient><path fill="url(#w2vn5uG5zwUnjCn7_kSbKh)" d="M15,11h-2c-0.552,0-1,0.448-1,1v7h4v-7C16,11.448,15.552,11,15,11z"/><linearGradient id="w2vn5uG5zwUnjCn7_kSbKi" x1="6.167" x2="21.863" y1="-.212" y2="15.484" gradientUnits="userSpaceOnUse"><stop offset="0" stop-color="#f44f5a"/><stop offset=".443" stop-color="#ee3d4a"/><stop offset="1" stop-color="#e52030"/></linearGradient><path fill="url(#w2vn5uG5zwUnjCn7_kSbKi)" d="M17,8c0,1.657-1.343,3-3,3s-3-1.343-3-3s3-5,3-5S17,6.343,17,8z"/><linearGradient id="w2vn5uG5zwUnjCn7_kSbKj" x1="10.083" x2="17.931" y1="5.394" y2="13.242" gradientUnits="userSpaceOnUse"><stop offset="0" stop-color="#fede00"/><stop offset=".519" stop-color="#fecc00"/><stop offset="1" stop-color="#ffb700"/></linearGradient><path fill="url(#w2vn5uG5zwUnjCn7_kSbKj)" d="M15.5,9.5c0,0.828-0.672,1.5-1.5,1.5s-1.5-0.672-1.5-1.5S14,7,14,7S15.5,8.672,15.5,9.5z"/><path fill="#faa0bd" d="M43,24c0-2.761-2.239-5-5-5H10c-2.761,0-5,2.239-5,5v2c0,0.552,0.448,1,1,1h24c0.552,0,1,0.448,1,1	l0,5.893c0,0.996,0.681,1.92,1.664,2.08C33.917,36.176,35,35.215,35,34v-7c0-0.552,0.448-1,1-1s1,0.448,1,1v3c0,0.552,0.448,1,1,1	s1-0.448,1-1v-2c0-0.552,0.448-1,1-1h2c0.552,0,1-0.448,1-1V24z"/></svg>