<svg xmlns="http://www.w3.org/2000/svg" viewBox="0 0 48 48"><linearGradient id="Nt76igkuiREiRU5IB1Yipa" x1="6" x2="6" y1="3.984" y2="35.913" gradientUnits="userSpaceOnUse"><stop offset="0" stop-color="#c26715"/><stop offset=".346" stop-color="#be6015"/><stop offset=".686" stop-color="#b54e16"/><stop offset=".979" stop-color="#ad3f16"/></linearGradient><path fill="url(#Nt76igkuiREiRU5IB1Yipa)" d="M6,25c-0.553,0-1-0.447-1-1V11c0-0.553,0.447-1,1-1s1,0.447,1,1v13C7,24.553,6.553,25,6,25z"/><linearGradient id="Nt76igkuiREiRU5IB1Yipb" x1="42" x2="42" y1="3.984" y2="35.913" gradientUnits="userSpaceOnUse"><stop offset="0" stop-color="#c26715"/><stop offset=".346" stop-color="#be6015"/><stop offset=".686" stop-color="#b54e16"/><stop offset=".979" stop-color="#ad3f16"/></linearGradient><path fill="url(#Nt76igkuiREiRU5IB1Yipb)" d="M42,25c-0.553,0-1-0.447-1-1V11c0-0.553,0.447-1,1-1s1,0.447,1,1v13	C43,24.553,42.553,25,42,25z"/><linearGradient id="Nt76igkuiREiRU5IB1Yipc" x1="24" x2="24" y1="3.984" y2="35.913" gradientUnits="userSpaceOnUse"><stop offset="0" stop-color="#c26715"/><stop offset=".346" stop-color="#be6015"/><stop offset=".686" stop-color="#b54e16"/><stop offset=".979" stop-color="#ad3f16"/></linearGradient><path fill="url(#Nt76igkuiREiRU5IB1Yipc)" d="M13.5,27c-0.01,0-0.02,0-0.03,0c-0.367-0.012-0.699-0.224-0.864-0.553l-7.5-15	c-0.247-0.494-0.047-1.095,0.447-1.342c0.493-0.245,1.094-0.047,1.342,0.447l6.668,13.337l6.571-11.39	c0.182-0.313,0.549-0.503,0.881-0.5c0.362,0.006,0.694,0.207,0.866,0.526l6.103,11.333l6.129-11.819	c0.166-0.321,0.492-0.527,0.854-0.539c0.37-0.021,0.7,0.171,0.889,0.479l7,11.5c0.287,0.472,0.138,1.087-0.335,1.374	c-0.471,0.288-1.087,0.137-1.374-0.335l-6.076-9.981L28.888,26.46c-0.171,0.329-0.509,0.537-0.88,0.54	c-0.403,0.015-0.712-0.2-0.889-0.526l-6.149-11.42L14.366,26.5C14.187,26.81,13.856,27,13.5,27z"/><linearGradient id="Nt76igkuiREiRU5IB1Yipd" x1="24" x2="24" y1="-5096.961" y2="-5104.995" gradientTransform="matrix(1 0 0 -1 0 -5062)" gradientUnits="userSpaceOnUse"><stop offset="0" stop-color="#2aa4f4"/><stop offset="1" stop-color="#007ad9"/></linearGradient><path fill="url(#Nt76igkuiREiRU5IB1Yipd)" d="M42,36c-1.657,0-3-1-3-1s-1.343,1-3,1s-3-1-3-1s-1.343,1-3,1s-3-1-3-1s-1.343,1-3,1s-3-1-3-1	s-1.343,1-3,1s-3-1-3-1s-1.343,1-3,1s-3-1-3-1s-1.343,1-3,1s-3-1-3-1v6c0,1.105,0.895,2,2,2h38c1.105,0,2-0.895,2-2v-6	C45,35,43.657,36,42,36z"/><linearGradient id="Nt76igkuiREiRU5IB1Yipe" x1="3.447" x2="46.611" y1="5.136" y2="30.056" gradientUnits="userSpaceOnUse"><stop offset="0" stop-color="#a34f27"/><stop offset=".587" stop-color="#8b3817"/><stop offset="1" stop-color="#802d10"/></linearGradient><path fill="url(#Nt76igkuiREiRU5IB1Yipe)" d="M24,14.007c-6.585,0-13.169-1.015-20.274-3.045c-0.531-0.152-0.839-0.706-0.688-1.236	c0.152-0.532,0.71-0.832,1.236-0.688c13.826,3.951,25.625,3.951,39.451,0c0.528-0.144,1.084,0.155,1.236,0.688	c0.151,0.53-0.156,1.084-0.688,1.236C37.169,12.992,30.585,14.007,24,14.007z M44.274,24.962c0.531-0.152,0.839-0.706,0.688-1.236	c-0.152-0.532-0.708-0.832-1.236-0.688c-13.826,3.951-25.625,3.951-39.451,0c-0.526-0.146-1.084,0.155-1.236,0.688	c-0.151,0.53,0.156,1.084,0.688,1.236c7.105,2.03,13.689,3.045,20.274,3.045S37.169,26.992,44.274,24.962z"/></svg>