<svg xmlns="http://www.w3.org/2000/svg" viewBox="0 0 48 48"><linearGradient id="J3M4sklGURZnB5Gd0bP1pa" x1="42.213" x2="16.119" y1="17.574" y2="7.216" gradientUnits="userSpaceOnUse"><stop offset="0" stop-color="#3079d6"/><stop offset="1" stop-color="#297cd2"/></linearGradient><path fill="url(#J3M4sklGURZnB5Gd0bP1pa)" d="M44,10v8H19V8h23C43.1,8,44,8.9,44,10z"/><path fill="#35c1f1" d="M38.161,15c-0.718,0-1.38-0.385-1.736-1.008l-2.848-4.985C33.22,8.385,32.557,8,31.839,8H20v7H38.161	z"/><path fill="#50e6ff" d="M24.424,13.992l-2.848-4.985C21.22,8.385,20.557,8,19.839,8H6c-1.105,0-2,0.895-2,2v28	c0,1.1,0.9,2,2,2h36c1.1,0,2-0.9,2-2V17c0-1.105-0.895-2-2-2H26.161C25.443,15,24.78,14.615,24.424,13.992z"/><radialGradient id="J3M4sklGURZnB5Gd0bP1pb" cx="37.681" cy="37.723" r="11.426" gradientUnits="userSpaceOnUse"><stop offset="0"/><stop offset=".979" stop-opacity="0"/></radialGradient><path fill="url(#J3M4sklGURZnB5Gd0bP1pb)" d="M38,26c-6.617,0-12,5.383-12,12c0,0.681,0.058,1.349,0.168,2H42c1.1,0,2-0.9,2-2V27.611	C42.234,26.587,40.184,26,38,26z"/><linearGradient id="J3M4sklGURZnB5Gd0bP1pc" x1="28" x2="48" y1="-946" y2="-946" gradientTransform="matrix(1 0 0 -1 0 -908)" gradientUnits="userSpaceOnUse"><stop offset="0" stop-color="#21ad64"/><stop offset="1" stop-color="#088242"/></linearGradient><circle cx="38" cy="38" r="10" fill="url(#J3M4sklGURZnB5Gd0bP1pc)"/><path fill="#fff" d="M38.5,43h-1c-0.276,0-0.5-0.224-0.5-0.5v-9c0-0.276,0.224-0.5,0.5-0.5h1c0.276,0,0.5,0.224,0.5,0.5v9	C39,42.776,38.776,43,38.5,43z"/><path fill="#fff" d="M33,38.5v-1c0-0.276,0.224-0.5,0.5-0.5h9c0.276,0,0.5,0.224,0.5,0.5v1c0,0.276-0.224,0.5-0.5,0.5h-9	C33.224,39,33,38.776,33,38.5z"/></svg>