<svg xmlns="http://www.w3.org/2000/svg" viewBox="0 0 48 48"><linearGradient id="uSja4tWeb03AP2myAtqP0a" x1="21.351" x2="21.351" y1="6.001" y2="41.981" gradientUnits="userSpaceOnUse"><stop offset="0" stop-color="#f44f5a"/><stop offset=".443" stop-color="#ee3d4a"/><stop offset="1" stop-color="#e52030"/></linearGradient><path fill="url(#uSja4tWeb03AP2myAtqP0a)" d="M36.701,26.48l-1.141-0.327L23.6,23.761c-0.935-0.187-1.608-1.008-1.608-1.962l0.007-13.797	c0.001-1.105-0.895-2.001-2-2.001H8c-1.105,0-2,0.895-2,2v17.086l9.892,13.45l16.531,3.306c0.53,0.105,1.31,0.145,1.177,0.137	L36.701,26.48z"/><linearGradient id="uSja4tWeb03AP2myAtqP0b" x1="14" x2="14" y1="9" y2="13" gradientUnits="userSpaceOnUse"><stop offset="0" stop-color="#dfe9f2"/><stop offset=".391" stop-color="#d6e0e9"/><stop offset="1" stop-color="#bfc8d1"/></linearGradient><path fill="url(#uSja4tWeb03AP2myAtqP0b)" d="M6,9h16v4H6V9z"/><linearGradient id="uSja4tWeb03AP2myAtqP0c" x1="11" x2="11" y1="25.087" y2="55.027" gradientUnits="userSpaceOnUse"><stop offset="0" stop-color="#fed100"/><stop offset="1" stop-color="#e36001"/></linearGradient><path fill="url(#uSja4tWeb03AP2myAtqP0c)" d="M6,25.087v4.911c0,3.813,2.684,7.097,6.423,7.845l3.469,0.694C15.959,38.033,16,37.521,16,37	C16,30.842,14.264,25.775,6,25.087z"/><linearGradient id="uSja4tWeb03AP2myAtqP0d" x1="36.991" x2="36.991" y1="26.479" y2="56.344" gradientUnits="userSpaceOnUse"><stop offset="0" stop-color="#fed100"/><stop offset="1" stop-color="#e36001"/></linearGradient><path fill="url(#uSja4tWeb03AP2myAtqP0d)" d="M41.99,34.026c0-0.108-0.007-0.214-0.011-0.321c-0.005-0.145-0.011-0.289-0.023-0.432	c-0.011-0.117-0.026-0.232-0.043-0.348c-0.017-0.129-0.036-0.258-0.06-0.386c-0.023-0.124-0.051-0.247-0.079-0.369	c-0.026-0.113-0.056-0.227-0.087-0.339c-0.037-0.131-0.078-0.261-0.121-0.389c-0.033-0.097-0.068-0.192-0.104-0.287	c-0.053-0.139-0.108-0.276-0.169-0.411c-0.033-0.076-0.07-0.15-0.106-0.225c-0.072-0.149-0.282-0.532-0.31-0.578	c-0.927-1.567-2.38-2.816-4.176-3.462c-2.858,2.193-4.709,5.635-4.709,9.517c0,2.182,0.59,4.221,1.607,5.982	C33.732,41.987,33.867,42,34,42c3.735-0.001,7.076-2.63,7.836-6.433c0.053-0.259,0.09-0.518,0.115-0.774	c0.009-0.09,0.01-0.177,0.016-0.266C41.979,34.359,41.989,34.192,41.99,34.026z"/><linearGradient id="uSja4tWeb03AP2myAtqP0e" x1="14" x2="14" y1="6" y2="14.645" gradientUnits="userSpaceOnUse"><stop offset="0" stop-color="#fed100"/><stop offset="1" stop-color="#e36001"/></linearGradient><path fill="url(#uSja4tWeb03AP2myAtqP0e)" d="M8,6h12c1.105,0,2,0.895,2,2v1H6V8C6,6.895,6.895,6,8,6z"/></svg>