<svg xmlns="http://www.w3.org/2000/svg" viewBox="0 0 48 48"><path fill="#1a9ba1" d="M45.431,14.456c0,0-2.204-2.614-5.031-3.563c-2.827-0.948-9.297-2.244-9.666-0.573	c1.117,0.156,1.511,1.195,1.499,1.905c-0.008,0.461-0.068,2.6-0.11,4.046c-0.023,0.802,0.499,1.519,1.269,1.744l7.432,2.169	c0.806,0.235,1.666-0.13,2.056-0.873L45.431,14.456z"/><path fill="#1a9ba1" d="M2.569,14.456c0,0,2.204-2.614,5.031-3.563c2.827-0.948,9.297-2.244,9.666-0.573	c-1.117,0.156-1.511,1.195-1.499,1.905c0.008,0.461,0.068,2.6,0.11,4.046c0.023,0.802-0.499,1.519-1.269,1.744l-7.432,2.169	c-0.806,0.235-1.666-0.13-2.056-0.873L2.569,14.456z"/><path fill="#37c6d0" d="M24,9.889c-7.636,0-14.88,1.647-21.431,4.567l-0.502-1.883c-0.246-0.922,0.207-1.901,1.083-2.279	C9.546,7.535,16.592,6,24,6s14.454,1.535,20.851,4.293c0.876,0.378,1.329,1.357,1.083,2.279l-0.502,1.883	C38.88,11.535,31.636,9.889,24,9.889z"/><circle cx="24" cy="28" r="3" fill="#1b9de2"/><circle cx="24" cy="38" r="3" fill="#1b9de2"/><circle cx="34" cy="28" r="3" fill="#1b9de2"/><circle cx="34" cy="38" r="3" fill="#1b9de2"/><circle cx="14" cy="28" r="3" fill="#1b9de2"/><circle cx="14" cy="38" r="3" fill="#1b9de2"/></svg>