<svg xmlns="http://www.w3.org/2000/svg" viewBox="0 0 48 48"><linearGradient id="PCmjBwRU6AYZ1c2gi54vGa" x1="30.053" x2="37.992" y1="9.053" y2="16.992" gradientUnits="userSpaceOnUse"><stop offset="0" stop-color="#199ae0"/><stop offset="1" stop-color="#0782d8"/></linearGradient><path fill="url(#PCmjBwRU6AYZ1c2gi54vGa)" d="M34,7c-0.586,0-0.656-0.933-1.203-0.806c-2.775,0.644-4.959,2.828-5.603,5.603	C27.067,12.344,28,12.414,28,13c0,0.339-0.978,1.172-0.934,1.499c0.094,0.707,0.287,1.383,0.563,2.013	C27.785,16.866,28.794,16.677,29,17c0.13,0.204-0.557,0.931-0.408,1.121c0.375,0.479,0.808,0.912,1.287,1.287	C30.121,19.598,31.735,18.841,32,19c0.272,0.163-0.804,1.242-0.512,1.371c0.657,0.288,1.364,0.485,2.104,0.575	C33.89,20.982,35.693,20,36,20c0.586,0-0.344,0.933,0.203,0.806c2.775-0.644,4.959-2.828,5.603-5.603C41.933,14.656,41,15.586,41,15	c0-0.339,0.978-2.172,0.934-2.499c-0.094-0.707-0.287-1.383-0.563-2.013C41.252,10.217,40.149,11.254,40,11	c-0.169-0.286,0.612-1.861,0.408-2.121C40.032,8.4,39.6,7.968,39.121,7.592C38.894,7.414,37.247,8.151,37,8	c-0.287-0.176,0.822-1.234,0.512-1.371c-0.63-0.277-1.306-0.469-2.013-0.563C35.172,6.022,34.339,7,34,7z"/><linearGradient id="PCmjBwRU6AYZ1c2gi54vGb" x1="30.053" x2="37.992" y1="30.053" y2="37.992" gradientUnits="userSpaceOnUse"><stop offset="0" stop-color="#199ae0"/><stop offset="1" stop-color="#0782d8"/></linearGradient><circle cx="34.5" cy="34.5" r="7.5" fill="url(#PCmjBwRU6AYZ1c2gi54vGb)"/><linearGradient id="PCmjBwRU6AYZ1c2gi54vGc" x1="7.27" x2="18.276" y1="7.272" y2="18.278" gradientUnits="userSpaceOnUse"><stop offset="0" stop-color="#21ad64"/><stop offset="1" stop-color="#088242"/></linearGradient><path fill="url(#PCmjBwRU6AYZ1c2gi54vGc)" d="M13.5,6.002c-4.143,0-7.5,3.357-7.5,7.5c0,4.142,3.357,7.5,7.5,7.5s7.5-3.358,7.5-7.5	C21,9.359,17.643,6.002,13.5,6.002L13.5,6.002z"/><linearGradient id="PCmjBwRU6AYZ1c2gi54vGd" x1="6.872" x2="18.543" y1="27.872" y2="39.543" gradientUnits="userSpaceOnUse"><stop offset="0" stop-color="#21ad64"/><stop offset="1" stop-color="#088242"/></linearGradient><circle cx="13.5" cy="34.5" r="7.5" fill="url(#PCmjBwRU6AYZ1c2gi54vGd)"/><linearGradient id="PCmjBwRU6AYZ1c2gi54vGe" x1="31.666" x2="29.151" y1="35.908" y2="33.393" gradientUnits="userSpaceOnUse"><stop offset="0" stop-color="#c3c9cd"/><stop offset="1" stop-color="#fcfcfc"/></linearGradient><circle cx="30.258" cy="34.5" r="1.5" fill="url(#PCmjBwRU6AYZ1c2gi54vGe)"/><linearGradient id="PCmjBwRU6AYZ1c2gi54vGf" x1="35.964" x2="33.454" y1="40.206" y2="37.696" gradientUnits="userSpaceOnUse"><stop offset="0" stop-color="#c3c9cd"/><stop offset="1" stop-color="#fcfcfc"/></linearGradient><circle cx="34.5" cy="38.742" r="1.5" fill="url(#PCmjBwRU6AYZ1c2gi54vGf)"/><linearGradient id="PCmjBwRU6AYZ1c2gi54vGg" x1="36.26" x2="33.866" y1="32.017" y2="29.623" gradientUnits="userSpaceOnUse"><stop offset="0" stop-color="#c3c9cd"/><stop offset="1" stop-color="#fcfcfc"/></linearGradient><circle cx="34.5" cy="30.257" r="1.5" fill="url(#PCmjBwRU6AYZ1c2gi54vGg)"/><linearGradient id="PCmjBwRU6AYZ1c2gi54vGh" x1="40.259" x2="37.759" y1="36.017" y2="33.517" gradientUnits="userSpaceOnUse"><stop offset="0" stop-color="#c3c9cd"/><stop offset="1" stop-color="#fcfcfc"/></linearGradient><circle cx="38.742" cy="34.5" r="1.5" fill="url(#PCmjBwRU6AYZ1c2gi54vGh)"/><linearGradient id="PCmjBwRU6AYZ1c2gi54vGi" x1="9.983" x2="19.194" y1="9.985" y2="19.196" gradientUnits="userSpaceOnUse"><stop offset="0" stop-color="#fed100"/><stop offset="1" stop-color="#e36001"/></linearGradient><path fill="url(#PCmjBwRU6AYZ1c2gi54vGi)" d="M13.5,10.002c1.93,0,3.5,1.57,3.5,3.5s-1.57,3.5-3.5,3.5s-3.5-1.57-3.5-3.5	S11.57,10.002,13.5,10.002"/><linearGradient id="PCmjBwRU6AYZ1c2gi54vGj" x1="37.337" x2="31.497" y1="24.869" y2="10.794" gradientUnits="userSpaceOnUse"><stop offset="0" stop-color="#c3c9cd"/><stop offset="1" stop-color="#fcfcfc"/></linearGradient><path fill="url(#PCmjBwRU6AYZ1c2gi54vGj)" d="M34.5,6c-0.586,0-1.154,0.074-1.701,0.201l-5.598,5.598C27.074,12.346,27,12.914,27,13.5	c0,0.339,0.03,0.67,0.074,0.997l8.424-8.424C35.17,6.03,34.839,6,34.5,6z"/><linearGradient id="PCmjBwRU6AYZ1c2gi54vGk" x1="40.546" x2="34.705" y1="23.537" y2="9.463" gradientUnits="userSpaceOnUse"><stop offset="0" stop-color="#c3c9cd"/><stop offset="1" stop-color="#fcfcfc"/></linearGradient><path fill="url(#PCmjBwRU6AYZ1c2gi54vGk)" d="M42,13.5c0-0.339-0.03-0.67-0.074-0.998l-8.424,8.424C33.83,20.97,34.161,21,34.5,21	c0.586,0,1.154-0.074,1.701-0.201l5.598-5.598C41.926,14.654,42,14.086,42,13.5z"/><linearGradient id="PCmjBwRU6AYZ1c2gi54vGl" x1="39.389" x2="33.549" y1="24.017" y2="9.943" gradientUnits="userSpaceOnUse"><stop offset="0" stop-color="#c3c9cd"/><stop offset="1" stop-color="#fcfcfc"/></linearGradient><path fill="url(#PCmjBwRU6AYZ1c2gi54vGl)" d="M29.883,19.402c0.491,0.385,1.029,0.711,1.607,0.965l9.877-9.877	c-0.254-0.578-0.58-1.116-0.965-1.607L29.883,19.402z"/><linearGradient id="PCmjBwRU6AYZ1c2gi54vGm" x1="38.494" x2="32.653" y1="24.389" y2="10.315" gradientUnits="userSpaceOnUse"><stop offset="0" stop-color="#c3c9cd"/><stop offset="1" stop-color="#fcfcfc"/></linearGradient><path fill="url(#PCmjBwRU6AYZ1c2gi54vGm)" d="M27.633,16.51c0.254,0.578,0.58,1.116,0.965,1.607L39.117,7.598	c-0.491-0.385-1.029-0.711-1.607-0.965L27.633,16.51z"/></svg>