<svg xmlns="http://www.w3.org/2000/svg" xmlns:xlink="http://www.w3.org/1999/xlink" data-name="Layer 1" viewBox="0 0 48 48"><defs><linearGradient id="e0Lr_XBim6jJtswWrtLjLa" x1="30.5" x2="30.5" y1="-4.679" y2="28.65" gradientUnits="userSpaceOnUse"><stop offset="0" stop-color="#fed100"/><stop offset="1" stop-color="#e38101"/></linearGradient><linearGradient id="e0Lr_XBim6jJtswWrtLjLb" x1="20.5" x2="20.5" y1="2.886" y2="34.846" data-name="Безымянный градиент 144" xlink:href="#e0Lr_XBim6jJtswWrtLjLa"/><linearGradient id="e0Lr_XBim6jJtswWrtLjLc" x1="24" x2="24" y1="40.162" y2="44.224" gradientUnits="userSpaceOnUse"><stop offset=".023" stop-color="#692a15"/><stop offset=".344" stop-color="#802d10"/><stop offset="1" stop-color="#8b3817"/></linearGradient><linearGradient id="e0Lr_XBim6jJtswWrtLjLd" x1="24" x2="24" y1="21.426" y2="44.684" gradientUnits="userSpaceOnUse"><stop offset="0" stop-color="#a34f27"/><stop offset=".587" stop-color="#8b3817"/><stop offset="1" stop-color="#802d10"/></linearGradient></defs><path fill="url(#e0Lr_XBim6jJtswWrtLjLa)" d="M28.827,10.77915,17.25,25h26.5L32.17305,10.77915A2.18582,2.18582,0,0,0,28.827,10.77915Z"/><path fill="url(#e0Lr_XBim6jJtswWrtLjLb)" d="M19.01546,8.64441,4.25,25h32.5L21.98454,8.64441A2,2,0,0,0,19.01546,8.64441Z"/><path fill="url(#e0Lr_XBim6jJtswWrtLjLc)" d="M15,38H33a0,0,0,0,1,0,0v4a2,2,0,0,1-2,2H17a2,2,0,0,1-2-2V38A0,0,0,0,1,15,38Z"/><path fill="url(#e0Lr_XBim6jJtswWrtLjLd)" d="M5,23H43a1,1,0,0,1,1,1v0A17,17,0,0,1,27,41H21A17,17,0,0,1,4,24v0A1,1,0,0,1,5,23Z"/></svg>