<svg xmlns="http://www.w3.org/2000/svg" viewBox="0 0 48 48"><linearGradient id="QrQimNvAkrIyz8D7iWza5a" x1="24" x2="24" y1="-2.192" y2="17.176" gradientUnits="userSpaceOnUse"><stop offset="0" stop-color="#fed100"/><stop offset="1" stop-color="#e36001"/></linearGradient><path fill="url(#QrQimNvAkrIyz8D7iWza5a)" d="M24,4c-4,0-4,2-8,2c0,3,2,2,2,6h12c0-4,2-3,2-6C28,6,28,4,24,4z"/><linearGradient id="QrQimNvAkrIyz8D7iWza5b" x1="11.739" x2="41.376" y1="16.602" y2="46.239" gradientUnits="userSpaceOnUse"><stop offset="0" stop-color="#fed100"/><stop offset="1" stop-color="#e36001"/></linearGradient><path fill="url(#QrQimNvAkrIyz8D7iWza5b)" d="M41,31c0,9.389-7.611,10-17,10S7,40.389,7,31s7.611-20,17-20S41,21.611,41,31z"/><line x1="18" x2="30" y1="12" y2="12" fill="none" stroke="#8f979e" stroke-linecap="round" stroke-linejoin="round" stroke-width="2"/><path d="M24.766,37.101c-0.51,0-0.954-0.29-1.176-0.713c-0.221,0.423-0.665,0.713-1.175,0.713h-0.649	c-0.73,0-1.325-0.595-1.325-1.325V35.3h-0.542c-1.103,0-2-0.897-2-2V20.716c0-1.103,0.897-2,2-2h0.541v-0.49	c0-0.73,0.595-1.325,1.325-1.325h0.649c0.511,0,0.954,0.29,1.176,0.714c0.221-0.422,0.661-0.712,1.168-0.715h0.655	c0.73,0,1.325,0.595,1.325,1.325v0.791c0.697,0.178,1.296,0.436,1.784,0.769c1.161,0.792,1.749,1.918,1.749,3.348	c0.001,0.99-0.356,1.943-1.008,2.682c-0.137,0.157-0.284,0.306-0.439,0.444c0.296,0.189,0.568,0.411,0.813,0.661	c0.807,0.832,1.215,1.85,1.215,3.027c0,1.644-0.605,2.973-1.801,3.951c-0.641,0.524-1.416,0.905-2.311,1.136v0.742	c0,0.73-0.595,1.325-1.325,1.325H24.766z M23.964,30.879c0.512,0,0.909-0.104,1.151-0.302c0.197-0.163,0.278-0.358,0.279-0.674	c0-0.338-0.122-0.481-0.254-0.585c-0.236-0.186-0.637-0.284-1.156-0.284h-0.8v1.845H23.964z M23.627,24.594	c0.426,0,0.758-0.09,0.96-0.259c0.117-0.1,0.227-0.24,0.227-0.593c0-0.212,0-0.605-1.4-0.606h-0.229v1.458H23.627z" opacity=".05"/><path d="M24.766,36.601c-0.455,0-0.825-0.37-0.825-0.825V34.8h-0.7v0.976c0,0.455-0.37,0.825-0.825,0.825	h-0.649c-0.455,0-0.825-0.37-0.825-0.825V34.8h-1.042c-0.827,0-1.5-0.673-1.5-1.5V20.716c0-0.827,0.673-1.5,1.5-1.5h1.041v-0.99	c0-0.455,0.37-0.825,0.825-0.825h0.649c0.455,0,0.825,0.37,0.825,0.825v0.99h0.7v-0.99c0-0.453,0.368-0.823,0.821-0.826h0.652	c0.455,0,0.825,0.37,0.825,0.825v1.19c0.807,0.162,1.479,0.425,2.003,0.782c1.016,0.693,1.53,1.681,1.53,2.935	c0.001,0.868-0.313,1.704-0.883,2.352c-0.29,0.332-0.623,0.615-0.996,0.849c0.533,0.224,0.996,0.536,1.387,0.937	c0.712,0.734,1.072,1.635,1.072,2.678c0,1.486-0.544,2.686-1.617,3.564c-0.672,0.55-1.509,0.927-2.494,1.124v1.141	c0,0.455-0.37,0.825-0.825,0.825H24.766z M23.964,31.379c0.637,0,1.131-0.14,1.468-0.415c0.314-0.259,0.462-0.596,0.463-1.06	c0-0.429-0.142-0.74-0.444-0.979c-0.331-0.26-0.824-0.392-1.466-0.392h-1.3v2.845H23.964z M23.627,25.094	c0.553,0,0.984-0.127,1.281-0.376c0.276-0.233,0.405-0.544,0.405-0.976c0-0.331,0-1.105-1.9-1.106h-0.729v2.458H23.627z" opacity=".07"/><path fill="#fff" d="M29.851,29.946c0-0.915-0.311-1.691-0.931-2.329c-0.62-0.637-1.449-1.021-2.486-1.149v-0.04	c0.848-0.236,1.54-0.661,2.079-1.275c0.494-0.562,0.759-1.274,0.758-2.022c0-1.084-0.438-1.924-1.312-2.521	c-0.573-0.391-1.325-0.641-2.221-0.776v-1.61c0-0.18-0.146-0.325-0.325-0.325h-0.65c-0.178,0.001-0.324,0.146-0.324,0.326v1.501	c-0.08-0.002-0.15-0.011-0.232-0.011H22.74v-1.49c0-0.18-0.146-0.325-0.325-0.325h-0.65c-0.179,0-0.325,0.145-0.325,0.325v1.49	h-1.541c-0.552,0-1,0.448-1,1v12.584c0,0.552,0.448,1,1,1h1.542v1.476c0,0.179,0.146,0.325,0.325,0.325h0.65	c0.179,0,0.325-0.146,0.325-0.325v-1.476h1.7v1.476c0,0.179,0.146,0.325,0.325,0.325h0.65c0.179,0,0.325-0.146,0.325-0.325v-1.563	c1.08-0.153,1.974-0.513,2.677-1.088C29.373,32.341,29.851,31.283,29.851,29.946z M25.814,23.743c0,0.577-0.194,1.029-0.584,1.358	c-0.391,0.328-0.924,0.493-1.603,0.493h-1.443v-3.458h1.23C25.015,22.136,25.814,22.671,25.814,23.743z M25.748,31.35	c-0.431,0.353-1.026,0.528-1.785,0.528h-1.779v-3.844h1.8c0.759,0,1.351,0.166,1.774,0.498c0.424,0.333,0.636,0.79,0.636,1.373	C26.393,30.516,26.178,30.998,25.748,31.35z"/></svg>