<svg xmlns="http://www.w3.org/2000/svg" id="Layer_1" x="0" y="0" version="1.1" viewBox="0 0 48 48" xml:space="preserve"><linearGradient id="SVGID_1_" x1="21.516" x2="45.592" y1="1049.638" y2="1085.673" gradientTransform="translate(0 -1032)" gradientUnits="userSpaceOnUse"><stop offset="0" stop-color="#5059c9"/><stop offset=".999" stop-color="#4750b3"/></linearGradient><path fill="url(#SVGID_1_)" d="M9,26l36-14.3V38c0,1.1-0.9,2-2,2H9V26z"/><linearGradient id="SVGID_2_" x1="1.408" x2="36.331" y1="1056.41" y2="1078.164" gradientTransform="translate(0 -1032)" gradientUnits="userSpaceOnUse"><stop offset="0" stop-color="#5961c3"/><stop offset="1" stop-color="#3a41ac"/></linearGradient><path fill="url(#SVGID_2_)" d="M3,11.7V38c0,1.1,0.9,2,2,2h38c0.5,0,0.9-0.2,1.3-0.5L3,11.7z"/><path d="M3,11h42v1.7L27.7,26.1c-2.2,1.7-5.2,1.7-7.4,0L3,12.7V11z" opacity=".05"/><path d="M3,10.5h42v1.7L27,25.3c-1.8,1.3-4.2,1.3-5.9,0L3,12.2V10.5z" opacity=".07"/><path fill="#7b83eb" d="M5,8h38c1.1,0,2,0.9,2,2v1.7L26.3,24.5c-1.4,0.9-3.1,0.9-4.5,0L3,11.7V10C3,8.9,3.9,8,5,8z"/><path d="M43,8H25.3C25.1,8.3,25,8.6,25,9v10c0,1.1,0.9,2,2,2h18V10C45,8.9,44.1,8,43,8z" opacity=".05"/><path d="M43,8H25.9c-0.2,0.3-0.4,0.6-0.4,1v10c0,0.8,0.7,1.5,1.5,1.5h18V10C45,8.9,44.1,8,43,8z" opacity=".07"/><path fill="#c48c00" d="M45,20H27c-0.6,0-1-0.4-1-1v-2h20v2C46,19.6,45.6,20,45,20z"/><rect width="20" height="3" x="26" y="14" fill="#e3a600"/><rect width="20" height="3" x="26" y="11" fill="#edbe00"/><path fill="#fad500" d="M46,11H26V9c0-0.6,0.4-1,1-1h18c0.6,0,1,0.4,1,1V11z"/><linearGradient id="SVGID_3_" x1="36" x2="36" y1="507.815" y2="515.049" gradientTransform="matrix(1 0 0 -1 0 526)" gradientUnits="userSpaceOnUse"><stop offset="0" stop-color="#4b4b4b"/><stop offset="1" stop-color="#3b3b3b"/></linearGradient><path fill="url(#SVGID_3_)" d="M38,13c0-1.1-0.9-2-2-2s-2,0.9-2,2c0,0.8,0.5,1.6,1.3,1.9V17c0,0.4,0.3,0.8,0.8,0.8s0.8-0.3,0.8-0.8v-2.1	C37.5,14.6,38,13.8,38,13z"/><linearGradient id="SVGID_4_" x1="36" x2="36" y1="518.191" y2="534.915" gradientTransform="matrix(1 0 0 -1 0 526)" gradientUnits="userSpaceOnUse"><stop offset="0" stop-color="#92a3b0"/><stop offset=".015" stop-color="#a3b5c4"/><stop offset=".032" stop-color="#aec2d1"/><stop offset=".046" stop-color="#b2c6d6"/></linearGradient><path fill="url(#SVGID_4_)" d="M31,8V7c0-2.8,2.2-5,5-5s5,2.2,5,5v1h2V7c0-3.9-3.1-7-7-7s-7,3.1-7,7v1H31z"/></svg>