<svg xmlns="http://www.w3.org/2000/svg" viewBox="0 0 48 48"><linearGradient id="SLNCJz5rZFJT_E_eQ4Ogma" x1="16.758" x2="30.883" y1="3.118" y2="17.242" gradientUnits="userSpaceOnUse"><stop offset="0" stop-color="#f77b83"/><stop offset=".443" stop-color="#f26e77"/><stop offset="1" stop-color="#ec5864"/></linearGradient><path fill="url(#SLNCJz5rZFJT_E_eQ4Ogma)" d="M24,4l-1,1v19h2.414L38.14,11.274V9.86C34.52,6.24,29.52,4,24,4z"/><linearGradient id="SLNCJz5rZFJT_E_eQ4Ogmb" x1="-169.907" x2="-136.208" y1="-36.381" y2="-2.681" gradientTransform="rotate(45.001 -111.998 228.002)" gradientUnits="userSpaceOnUse"><stop offset="0" stop-color="#fedd40"/><stop offset="1" stop-color="#ea8841"/></linearGradient><path fill="url(#SLNCJz5rZFJT_E_eQ4Ogmb)" d="M38.142,9.858L24,24l1,1l17.997,0l1-1C43.997,18.881,42.045,13.761,38.142,9.858z"/><linearGradient id="SLNCJz5rZFJT_E_eQ4Ogmc" x1="-318.93" x2="-308.223" y1="74.93" y2="85.637" gradientTransform="rotate(90 -112 228)" gradientUnits="userSpaceOnUse"><stop offset="0" stop-color="#ffe175"/><stop offset=".482" stop-color="#ffe074"/><stop offset="1" stop-color="#f8cd40"/></linearGradient><path fill="url(#SLNCJz5rZFJT_E_eQ4Ogmc)" d="M44,24H24v1.414L36.726,38.14h1.414C41.76,34.52,44,29.52,44,24z"/><linearGradient id="SLNCJz5rZFJT_E_eQ4Ogmd" x1="-355.346" x2="-344.639" y1="259.013" y2="269.72" gradientTransform="rotate(134.999 -112 228.001)" gradientUnits="userSpaceOnUse"><stop offset="0" stop-color="#66d3a1"/><stop offset="1" stop-color="#59ba8c"/></linearGradient><path fill="url(#SLNCJz5rZFJT_E_eQ4Ogmd)" d="M38.142,38.142L24,24l-1,1l0,17.997l1,1C29.119,43.997,34.239,42.045,38.142,38.142z"/><linearGradient id="SLNCJz5rZFJT_E_eQ4Ogme" x1="-250.93" x2="-240.223" y1="414.93" y2="425.637" gradientTransform="rotate(180 -112 228)" gradientUnits="userSpaceOnUse"><stop offset="0" stop-color="#5ec3ef"/><stop offset="1" stop-color="#48a6e3"/></linearGradient><path fill="url(#SLNCJz5rZFJT_E_eQ4Ogme)" d="M24,44V24h-1.414L9.86,36.726v1.414C13.48,41.76,18.48,44,24,44z"/><linearGradient id="SLNCJz5rZFJT_E_eQ4Ogmf" x1="-68.379" x2="-57.672" y1="449.814" y2="460.521" gradientTransform="rotate(-134.999 -112.001 228)" gradientUnits="userSpaceOnUse"><stop offset="0" stop-color="#719fe4"/><stop offset=".002" stop-color="#719fe4"/><stop offset=".397" stop-color="#5c8ed8"/><stop offset=".763" stop-color="#4e82cf"/><stop offset="1" stop-color="#497dcc"/></linearGradient><path fill="url(#SLNCJz5rZFJT_E_eQ4Ogmf)" d="M9.858,38.142L24,24l-1-1L5.003,23l-1,1C4.003,29.119,5.955,34.239,9.858,38.142z"/><linearGradient id="SLNCJz5rZFJT_E_eQ4Ogmg" x1="89.07" x2="99.777" y1="346.93" y2="357.637" gradientTransform="rotate(-90 -112 228)" gradientUnits="userSpaceOnUse"><stop offset="0" stop-color="#b968df"/><stop offset=".441" stop-color="#b866dd"/><stop offset=".702" stop-color="#b261d7"/><stop offset=".915" stop-color="#a859cc"/><stop offset="1" stop-color="#a254c6"/></linearGradient><path fill="url(#SLNCJz5rZFJT_E_eQ4Ogmg)" d="M4,24h20v-1.414L11.274,9.86H9.86C6.24,13.48,4,18.48,4,24z"/><linearGradient id="SLNCJz5rZFJT_E_eQ4Ogmh" x1="125.486" x2="152.831" y1="162.847" y2="190.191" gradientTransform="rotate(-45.001 -112.003 228)" gradientUnits="userSpaceOnUse"><stop offset="0" stop-color="#ee6d8d"/><stop offset=".423" stop-color="#d45977"/><stop offset=".773" stop-color="#c44c6a"/><stop offset="1" stop-color="#be4765"/></linearGradient><path fill="url(#SLNCJz5rZFJT_E_eQ4Ogmh)" d="M9.858,9.858L24,24V4.003C18.881,4.003,13.761,5.955,9.858,9.858z"/></svg>