<svg xmlns="http://www.w3.org/2000/svg" viewBox="0 0 48 48"><linearGradient id="xdAcGcUxW96_uI7e_IJI~a" x1="37.207" x2="32.825" y1="17.407" y2="10.642" gradientUnits="userSpaceOnUse"><stop offset=".002" stop-color="#454545"/><stop offset=".013" stop-color="#464646"/><stop offset=".562" stop-color="#626262"/><stop offset="1" stop-color="#6d6d6d"/></linearGradient><path fill="url(#xdAcGcUxW96_uI7e_IJI~a)" d="M37,17.375c-0.121,0-0.24-0.059-0.313-0.167l-4-6c-0.114-0.172-0.067-0.405,0.105-0.52	c0.17-0.113,0.405-0.068,0.52,0.104l4,6c0.114,0.172,0.067,0.405-0.104,0.52C37.145,17.354,37.072,17.375,37,17.375z"/><linearGradient id="xdAcGcUxW96_uI7e_IJI~b" x1="23.794" x2="3.535" y1="18.873" y2="18.873" gradientUnits="userSpaceOnUse"><stop offset=".002" stop-color="#454545"/><stop offset=".013" stop-color="#464646"/><stop offset=".562" stop-color="#626262"/><stop offset="1" stop-color="#6d6d6d"/></linearGradient><path fill="url(#xdAcGcUxW96_uI7e_IJI~b)" d="M22.44,18.36l-5.75,4.25C16.34,22.87,15.92,23,15.5,23c-0.39,0-0.77-0.11-1.11-0.34	l-4.38-2.92l2.5-3.13l2.93,1.95l4.62-3.42c0.89-0.66,2.14-0.47,2.8,0.42C23.51,16.45,23.33,17.7,22.44,18.36z"/><linearGradient id="xdAcGcUxW96_uI7e_IJI~c" x1="24.941" x2="42.503" y1="18.875" y2="18.875" gradientUnits="userSpaceOnUse"><stop offset=".002" stop-color="#454545"/><stop offset=".013" stop-color="#464646"/><stop offset=".562" stop-color="#626262"/><stop offset="1" stop-color="#6d6d6d"/></linearGradient><path fill="url(#xdAcGcUxW96_uI7e_IJI~c)" d="M37.99,19.74l-4.38,2.92C33.27,22.89,32.89,23,32.5,23c-0.42,0-0.84-0.13-1.19-0.39	l-5.75-4.25c-0.89-0.66-1.07-1.91-0.42-2.8c0.66-0.89,1.91-1.07,2.8-0.42l4.62,3.42l2.93-1.95L37.99,19.74z"/><linearGradient id="xdAcGcUxW96_uI7e_IJI~d" x1="22.651" x2="25.348" y1="451.716" y2="444.285" gradientTransform="matrix(1 0 0 -1 0 456)" gradientUnits="userSpaceOnUse"><stop offset="0" stop-color="#ffcf54"/><stop offset=".261" stop-color="#fdcb4d"/><stop offset=".639" stop-color="#f7c13a"/><stop offset="1" stop-color="#f0b421"/></linearGradient><path fill="url(#xdAcGcUxW96_uI7e_IJI~d)" d="M24,12c-2.2,0-4-1.8-4-4s1.8-4,4-4s4,1.8,4,4S26.2,12,24,12"/><linearGradient id="xdAcGcUxW96_uI7e_IJI~e" x1="24" x2="24" y1="43.441" y2="-2.639" gradientUnits="userSpaceOnUse"><stop offset=".002" stop-color="#454545"/><stop offset=".013" stop-color="#464646"/><stop offset=".562" stop-color="#626262"/><stop offset="1" stop-color="#6d6d6d"/></linearGradient><path fill="url(#xdAcGcUxW96_uI7e_IJI~e)" d="M19,27v3v2v10c0,1.105,0.895,2,2,2s2-0.895,2-2V32c0-0.552,0.448-1,1-1s1,0.448,1,1v10	c0,1.105,0.895,2,2,2s2-0.895,2-2V32v-2v-3H19z"/><linearGradient id="xdAcGcUxW96_uI7e_IJI~f" x1="24" x2="24" y1="43.441" y2="-2.639" gradientUnits="userSpaceOnUse"><stop offset=".002" stop-color="#454545"/><stop offset=".013" stop-color="#464646"/><stop offset=".562" stop-color="#626262"/><stop offset="1" stop-color="#6d6d6d"/></linearGradient><path fill="url(#xdAcGcUxW96_uI7e_IJI~f)" d="M29,18v11H19V18c0-1.87,1.29-3.45,3.03-3.88C22.34,14.04,22.67,14,23,14h2	c0.33,0,0.66,0.04,0.97,0.12C27.71,14.55,29,16.13,29,18z"/><linearGradient id="xdAcGcUxW96_uI7e_IJI~g" x1="24" x2="24" y1="24" y2="12.12" gradientUnits="userSpaceOnUse"><stop offset="0" stop-color="#f9f9f9"/><stop offset="1" stop-color="#c2c8cc"/></linearGradient><path fill="url(#xdAcGcUxW96_uI7e_IJI~g)" d="M25.97,14.12L24,22l-1.97-7.88C22.34,14.04,22.67,14,23,14h2	C25.33,14,25.66,14.04,25.97,14.12z"/><linearGradient id="xdAcGcUxW96_uI7e_IJI~h" x1="24.011" x2="22.079" y1="14.243" y2="14.243" gradientUnits="userSpaceOnUse"><stop offset=".002" stop-color="#454545"/><stop offset=".013" stop-color="#464646"/><stop offset=".562" stop-color="#626262"/><stop offset="1" stop-color="#6d6d6d"/></linearGradient><path fill="url(#xdAcGcUxW96_uI7e_IJI~h)" d="M23.719,13.798l-0.492-0.251c-0.333-0.17-0.727,0.072-0.727,0.445v0.502	c0,0.373,0.395,0.615,0.727,0.445l0.492-0.251C24.083,14.503,24.083,13.983,23.719,13.798z"/><linearGradient id="xdAcGcUxW96_uI7e_IJI~i" x1="23.903" x2="25.508" y1="14.243" y2="14.243" gradientUnits="userSpaceOnUse"><stop offset=".002" stop-color="#454545"/><stop offset=".013" stop-color="#464646"/><stop offset=".562" stop-color="#626262"/><stop offset="1" stop-color="#6d6d6d"/></linearGradient><path fill="url(#xdAcGcUxW96_uI7e_IJI~i)" d="M24.273,13.798l0.492-0.251c0.333-0.17,0.727,0.072,0.727,0.445v0.502	c0,0.373-0.395,0.615-0.727,0.445l-0.492-0.251C23.909,14.503,23.909,13.983,24.273,13.798z"/><linearGradient id="xdAcGcUxW96_uI7e_IJI~j" x1="23.999" x2="23.999" y1="15.178" y2="13.303" gradientUnits="userSpaceOnUse"><stop offset=".002" stop-color="#454545"/><stop offset=".013" stop-color="#464646"/><stop offset=".562" stop-color="#626262"/><stop offset="1" stop-color="#6d6d6d"/></linearGradient><circle cx="23.999" cy="14.25" r=".499" fill="url(#xdAcGcUxW96_uI7e_IJI~j)"/><linearGradient id="xdAcGcUxW96_uI7e_IJI~k" x1="35.49" x2="39.001" y1="17.869" y2="17.869" gradientUnits="userSpaceOnUse"><stop offset="0" stop-color="#ffcf54"/><stop offset=".261" stop-color="#fdcb4d"/><stop offset=".639" stop-color="#f7c13a"/><stop offset="1" stop-color="#f0b421"/></linearGradient><path fill="url(#xdAcGcUxW96_uI7e_IJI~k)" d="M38.11,19.66l-0.12,0.08l-2.5-3.13l0.4-0.27c0.92-0.62,2.16-0.37,2.77,0.55	C39.28,17.81,39.03,19.05,38.11,19.66z"/><linearGradient id="xdAcGcUxW96_uI7e_IJI~l" x1="8.999" x2="12.51" y1="17.869" y2="17.869" gradientUnits="userSpaceOnUse"><stop offset="0" stop-color="#ffcf54"/><stop offset=".261" stop-color="#fdcb4d"/><stop offset=".639" stop-color="#f7c13a"/><stop offset="1" stop-color="#f0b421"/></linearGradient><path fill="url(#xdAcGcUxW96_uI7e_IJI~l)" d="M12.51,16.61l-2.5,3.13l-0.12-0.08c-0.92-0.61-1.17-1.85-0.55-2.77	c0.61-0.92,1.85-1.17,2.77-0.55L12.51,16.61z"/></svg>