<svg xmlns="http://www.w3.org/2000/svg" viewBox="0 0 48 48"><linearGradient id="y0aBfOn3MdV6skddFx4a4a" x1="16.142" x2="29.425" y1="12.436" y2="48.932" gradientUnits="userSpaceOnUse"><stop offset="0" stop-color="#ffc430"/><stop offset=".41" stop-color="#fec130"/><stop offset=".72" stop-color="#fcb730"/><stop offset=".998" stop-color="#f7a72f"/><stop offset="1" stop-color="#f7a72f"/></linearGradient><path fill="url(#y0aBfOn3MdV6skddFx4a4a)" d="M24,14L24,14c-6.075,0-11,4.925-11,11v20h22V25C35,18.925,30.075,14,24,14z"/><linearGradient id="y0aBfOn3MdV6skddFx4a4b" x1="17.457" x2="32.681" y1="-.447" y2="41.382" gradientUnits="userSpaceOnUse"><stop offset=".002" stop-color="#f44f78"/><stop offset=".397" stop-color="#e4305d"/><stop offset=".763" stop-color="#d81b4a"/><stop offset="1" stop-color="#d41343"/></linearGradient><path fill="url(#y0aBfOn3MdV6skddFx4a4b)" d="M30,3H18c-1.105,0-2,0.895-2,2v24	c0,4.418,3.582,8,8,8h0c4.418,0,8-3.582,8-8V5C32,3.895,31.105,3,30,3z"/><radialGradient id="y0aBfOn3MdV6skddFx4a4c" cx="34" cy="10" r="7.093" gradientUnits="userSpaceOnUse"><stop offset="0" stop-color="#f9f9f9"/><stop offset=".411" stop-color="#f7f7f7"/><stop offset=".622" stop-color="#eff0f1"/><stop offset=".788" stop-color="#e2e4e6"/><stop offset=".928" stop-color="#cfd3d7"/><stop offset="1" stop-color="#c2c8cc"/></radialGradient><circle cx="34" cy="10" r="6" fill="url(#y0aBfOn3MdV6skddFx4a4c)"/><path fill="#e52030" d="M34.5,6h-1C33.224,6,33,6.224,33,6.5v7c0,0.276,0.224,0.5,0.5,0.5h1c0.276,0,0.5-0.224,0.5-0.5v-7	C35,6.224,34.776,6,34.5,6z"/><path fill="#e52030" d="M38,10.5v-1C38,9.224,37.776,9,37.5,9h-7C30.224,9,30,9.224,30,9.5v1c0,0.276,0.224,0.5,0.5,0.5h7	C37.776,11,38,10.776,38,10.5z"/></svg>