<svg xmlns="http://www.w3.org/2000/svg" data-name="Слой 1" viewBox="0 0 48 48"><defs><linearGradient id="x9Zcb3D7BpZFRQK6HYOUYb" x1="16.779" x2="26.889" y1="6.566" y2="34.343" data-name="Безымянный градиент 120" gradientUnits="userSpaceOnUse"><stop offset="0" stop-color="#ffd869"/><stop offset="1" stop-color="#fec52b"/></linearGradient><linearGradient id="x9Zcb3D7BpZFRQK6HYOUYc" x1="18.45" x2="32.204" y1="13.751" y2="51.542" data-name="Безымянный градиент 86" gradientUnits="userSpaceOnUse"><stop offset="0" stop-color="#eba600"/><stop offset="1" stop-color="#c28200"/></linearGradient><radialGradient id="x9Zcb3D7BpZFRQK6HYOUYa" cx="23.853" cy="27.946" r="18.902" data-name="Безымянный градиент 164" gradientTransform="matrix(1 0 0 1.0092 0 -.257)" gradientUnits="userSpaceOnUse"><stop offset=".934" stop-opacity=".2"/><stop offset="1" stop-opacity="0"/></radialGradient></defs><path fill="#50e6ff" d="M45,27.8999H38.37a14.37017,14.37017,0,0,0-28.74,0H3A20.515,20.515,0,0,1,3.86,22.01a21.01665,21.01665,0,0,1,40.28,0A20.515,20.515,0,0,1,45,27.8999Z"/><path fill="#42a4ed" d="M46,24v7a2.00591,2.00591,0,0,1-2,2H40.5V22H44a.61462.61462,0,0,1,.14.01A1.99863,1.99863,0,0,1,46,24Z"/><path fill="#42a4ed" d="M7.5,22V33H4a2.00591,2.00591,0,0,1-2-2V24a1.99863,1.99863,0,0,1,1.86-1.99A.61462.61462,0,0,1,4,22Z"/><path fill="url(#x9Zcb3D7BpZFRQK6HYOUYa)" d="M43,27.8999V28a18.79463,18.79463,0,0,1-.67,5H40.5V27.8999H38.37a14.37017,14.37017,0,0,0-28.74,0H7.5V33H5.67A18.79463,18.79463,0,0,1,5,28v-.1001A18.62158,18.62158,0,0,1,5.98,22a18.98927,18.98927,0,0,1,36.04,0A18.62158,18.62158,0,0,1,43,27.8999Z"/><path fill="url(#x9Zcb3D7BpZFRQK6HYOUYb)" d="M24,10A18.00016,18.00016,0,0,0,6,28H42A18.00016,18.00016,0,0,0,24,10Z"/><path fill="#64717c" d="M31.1,38.9H16.9A9.89951,9.89951,0,0,1,7,29H7a9.89951,9.89951,0,0,1,9.9-9.9H31.1A9.89951,9.89951,0,0,1,41,29h0A9.89951,9.89951,0,0,1,31.1,38.9Z"/><path fill="url(#x9Zcb3D7BpZFRQK6HYOUYc)" d="M31.05,40H16.95A10.96221,10.96221,0,0,1,6,29.05v-.1A10.96221,10.96221,0,0,1,16.95,18h14.1A10.96221,10.96221,0,0,1,42,28.95v.101A10.962,10.962,0,0,1,31.05,40ZM16.95,20A8.9602,8.9602,0,0,0,8,28.95v.101A8.96,8.96,0,0,0,16.95,38h14.1A8.95955,8.95955,0,0,0,40,29.05v-.1A8.9602,8.9602,0,0,0,31.05,20Z"/><path fill="#50e6ff" d="M20.999,30a1.00123,1.00123,0,0,1-.97558-.7832A2.93855,2.93855,0,0,0,17,27a2.93855,2.93855,0,0,0-3.02344,2.2168,1.00034,1.00034,0,0,1-1.95312-.4336A4.92892,4.92892,0,0,1,17,25a4.92892,4.92892,0,0,1,4.97656,3.7832,1.00132,1.00132,0,0,1-.75976,1.19336A1.03891,1.03891,0,0,1,20.999,30Z"/><path fill="#50e6ff" d="M34.999,30a1.00123,1.00123,0,0,1-.97558-.7832A2.93855,2.93855,0,0,0,31,27a2.93855,2.93855,0,0,0-3.02344,2.2168,1.00034,1.00034,0,0,1-1.95312-.4336A4.92892,4.92892,0,0,1,31,25a4.92892,4.92892,0,0,1,4.97656,3.7832,1.00132,1.00132,0,0,1-.75976,1.19336A1.03891,1.03891,0,0,1,34.999,30Z"/></svg>