<svg xmlns="http://www.w3.org/2000/svg" viewBox="0 0 48 48"><linearGradient id="7_Iw8kVqmrFYi566pK9_Na" x1="6" x2="36" y1="21.5" y2="21.5" gradientUnits="userSpaceOnUse"><stop offset="0" stop-color="#42a3f2"/><stop offset="1" stop-color="#42a4eb"/></linearGradient><path fill="url(#7_Iw8kVqmrFYi566pK9_Na)" d="M33.755,6H8C6.895,6,6,6.895,6,8v29h30V8.245C36,7.005,34.995,6,33.755,6z"/><linearGradient id="7_Iw8kVqmrFYi566pK9_Nb" x1="24" x2="36" y1="21" y2="21" gradientUnits="userSpaceOnUse"><stop offset="0" stop-color="#1951a8"/><stop offset=".175" stop-color="#1955b0"/><stop offset=".505" stop-color="#195ab9"/><stop offset="1" stop-color="#195bbc"/></linearGradient><path fill="url(#7_Iw8kVqmrFYi566pK9_Nb)" d="M24,6h10c1.105,0,2,0.895,2,2v28H24V6z"/><path fill="#184f85" d="M6,36h34c1.105,0,2,0.895,2,2v2c0,1.105-0.895,2-2,2H8c-1.105,0-2-0.895-2-2V36z"/><path d="M9.5,12C8.673,12,8,11.327,8,10.5v-1C8,8.673,8.673,8,9.5,8h11C21.327,8,22,8.673,22,9.5v1	c0,0.827-0.673,1.5-1.5,1.5H9.5z" opacity=".05"/><path d="M9.5,11.5c-0.551,0-1-0.449-1-1v-1c0-0.551,0.449-1,1-1h11c0.551,0,1,0.449,1,1v1	c0,0.551-0.449,1-1,1H9.5z" opacity=".07"/><path fill="#fff" d="M9.5,9h11C20.776,9,21,9.224,21,9.5v1c0,0.276-0.224,0.5-0.5,0.5h-11C9.224,11,9,10.776,9,10.5v-1	C9,9.224,9.224,9,9.5,9z"/><path d="M9.5,17C8.673,17,8,16.327,8,15.5v-1C8,13.673,8.673,13,9.5,13h11c0.827,0,1.5,0.673,1.5,1.5v1	c0,0.827-0.673,1.5-1.5,1.5H9.5z" opacity=".05"/><path d="M9.5,16.5c-0.551,0-1-0.449-1-1v-1c0-0.551,0.449-1,1-1h11c0.551,0,1,0.449,1,1v1	c0,0.551-0.449,1-1,1H9.5z" opacity=".07"/><path fill="#fff" d="M9.5,14h11c0.276,0,0.5,0.224,0.5,0.5v1c0,0.276-0.224,0.5-0.5,0.5h-11C9.224,16,9,15.776,9,15.5v-1	C9,14.224,9.224,14,9.5,14z"/><path d="M26.5,34c-0.827,0-1.5-0.673-1.5-1.5v-1c0-0.827,0.673-1.5,1.5-1.5h7c0.827,0,1.5,0.673,1.5,1.5v1	c0,0.827-0.673,1.5-1.5,1.5H26.5z" opacity=".05"/><path d="M26.5,33.5c-0.551,0-1-0.449-1-1v-1c0-0.551,0.449-1,1-1h7c0.551,0,1,0.449,1,1v1	c0,0.551-0.449,1-1,1H26.5z" opacity=".07"/><path fill="#fff" d="M26.5,31h7c0.276,0,0.5,0.224,0.5,0.5v1c0,0.276-0.224,0.5-0.5,0.5h-7c-0.276,0-0.5-0.224-0.5-0.5v-1	C26,31.224,26.224,31,26.5,31z"/><path d="M9.5,41C8.673,41,8,40.327,8,39.5v-1C8,37.673,8.673,37,9.5,37h1	c0.827,0,1.5,0.673,1.5,1.5v1c0,0.827-0.673,1.5-1.5,1.5H9.5z" opacity=".05"/><path d="M9.5,40.5c-0.551,0-1-0.449-1-1v-1c0-0.551,0.449-1,1-1h1	c0.551,0,1,0.449,1,1v1c0,0.551-0.449,1-1,1H9.5z" opacity=".07"/><path fill="#fff" d="M10.5,40h-1C9.224,40,9,39.776,9,39.5v-1C9,38.224,9.224,38,9.5,38h1c0.276,0,0.5,0.224,0.5,0.5v1	C11,39.776,10.776,40,10.5,40z"/></svg>