<svg xmlns="http://www.w3.org/2000/svg" viewBox="0 0 48 48"><radialGradient id="drU_Aae9qftpd83RFlhBPa" cx="14.961" cy="2.99" r="56.266" gradientUnits="userSpaceOnUse"><stop offset="0" stop-color="#ffcf54"/><stop offset=".261" stop-color="#fdcb4d"/><stop offset=".639" stop-color="#f7c13a"/><stop offset="1" stop-color="#f0b421"/></radialGradient><path fill="url(#drU_Aae9qftpd83RFlhBPa)" d="M31,39.4l2.6,0.5c2.9,0.6,5.6-1.5,5.8-4.4L40,29l2.9-1.2c1-0.4,1.4-1.6,0.8-2.6L40,19	c-0.6-7.6-4.9-15-16-15C13,4,7,11.4,7,20c0,3.7,1.3,7.9,3.3,10.6c1.8,2.5,2.7,5.5,2.7,8.5v2.8c0,1.105,0.895,2,2,2h14	c1.105,0,2-0.895,2-2V39.4z"/><linearGradient id="drU_Aae9qftpd83RFlhBPb" x1="21.403" x2="24.673" y1="3.48" y2="22.888" gradientUnits="userSpaceOnUse"><stop offset="0" stop-color="#26abe7"/><stop offset="1" stop-color="#086dbf"/></linearGradient><path fill="url(#drU_Aae9qftpd83RFlhBPb)" d="M24,3h-2c-0.552,0-1,0.448-1,1v18h4V4C25,3.448,24.552,3,24,3z"/><linearGradient id="drU_Aae9qftpd83RFlhBPc" x1="30.172" x2="32.164" y1="24.495" y2="36.32" gradientUnits="userSpaceOnUse"><stop offset="0" stop-color="#26abe7"/><stop offset="1" stop-color="#086dbf"/></linearGradient><path fill="url(#drU_Aae9qftpd83RFlhBPc)" d="M40,35h-9.91c-2.288,0-4.344-1.271-5.367-3.317l-2.618-5.235l1.789-0.895l2.618,5.236	C27.194,32.153,28.565,33,30.09,33H40V35z"/><circle cx="23" cy="24" r="6" fill="#0b5ca8"/><circle cx="23" cy="24" r="3" fill="#45d7f9"/><linearGradient id="drU_Aae9qftpd83RFlhBPd" x1="39.048" x2="40.934" y1="32.297" y2="35.671" gradientUnits="userSpaceOnUse"><stop offset="0" stop-color="#3079d6"/><stop offset="1" stop-color="#297cd2"/></linearGradient><circle cx="40" cy="34" r="2" fill="url(#drU_Aae9qftpd83RFlhBPd)"/></svg>