<svg xmlns="http://www.w3.org/2000/svg" viewBox="0 0 48 48"><linearGradient id="9KmXn~adNniqVXylZmmLCa" x1="22.883" x2="38.996" y1="-1260.658" y2="-1276.772" gradientTransform="matrix(1 0 0 -1 0 -1237.89)" gradientUnits="userSpaceOnUse"><stop offset="0" stop-color="#0d61a9"/><stop offset="1" stop-color="#16528c"/></linearGradient><path fill="url(#9KmXn~adNniqVXylZmmLCa)" d="M31,22c-7.732,0-14,4.556-14,9.25v1.25c0,0.828,0.672,1.5,1.5,1.5h25 c0.828,0,1.5-0.672,1.5-1.5v-1.25C45,26.556,38.732,22,31,22z"/><path fill="#c7941a" d="M35.5,24.4c0,1.707-2.547,3.6-4.5,3.6s-4.5-1.892-4.5-3.6c0-2.374,0-6.332,0-6.332h9 C35.5,18.068,35.5,22.026,35.5,24.4z"/><linearGradient id="9KmXn~adNniqVXylZmmLCb" x1="38.917" x2="40.251" y1="-1252.89" y2="-1252.89" gradientTransform="matrix(1 0 0 -1 0 -1237.89)" gradientUnits="userSpaceOnUse"><stop offset="0" stop-color="#c48f0c"/><stop offset=".251" stop-color="#d19b16"/><stop offset=".619" stop-color="#dca51f"/><stop offset="1" stop-color="#e0a922"/></linearGradient><path fill="url(#9KmXn~adNniqVXylZmmLCb)" d="M38.916,13h-0.527v4h0.703c0.515,0,0.954-0.312,1.041-0.74l0.344-1.703 C40.642,13.743,39.897,13,38.916,13z"/><linearGradient id="9KmXn~adNniqVXylZmmLCc" x1="-421.083" x2="-419.749" y1="-1252.89" y2="-1252.89" gradientTransform="rotate(180 -199 -618.945)" gradientUnits="userSpaceOnUse"><stop offset="0" stop-color="#c48f0c"/><stop offset=".251" stop-color="#d19b16"/><stop offset=".619" stop-color="#dca51f"/><stop offset="1" stop-color="#e0a922"/></linearGradient><path fill="url(#9KmXn~adNniqVXylZmmLCc)" d="M23.084,13h0.527v4h-0.703c-0.515,0-0.954-0.312-1.041-0.74l-0.344-1.703 C21.358,13.743,22.103,13,23.084,13z"/><radialGradient id="9KmXn~adNniqVXylZmmLCd" cx="18.379" cy="-1415.135" r="10.866" gradientTransform="matrix(.8816 0 0 -.8816 14.797 -1235.517)" gradientUnits="userSpaceOnUse"><stop offset="0" stop-color="#ffcf54"/><stop offset=".261" stop-color="#fdcb4d"/><stop offset=".639" stop-color="#f7c13a"/><stop offset="1" stop-color="#f0b421"/></radialGradient><path fill="url(#9KmXn~adNniqVXylZmmLCd)" d="M31,1.133c-3.948,0-8,0.6-8,9.133c0,0.683,0,5.224,0,5.954c0,3.046,4.8,6.78,8,6.78 s8-3.733,8-6.78c0-0.73,0-5.271,0-5.954C39,1.733,34.948,1.133,31,1.133z"/><radialGradient id="9KmXn~adNniqVXylZmmLCe" cx="9.646" cy="-1402.674" r="26.716" gradientTransform="matrix(.8816 0 0 -.8816 14.797 -1235.517)" gradientUnits="userSpaceOnUse"><stop offset="0" stop-color="#b05c0f"/><stop offset=".599" stop-color="#a94a12"/><stop offset="1" stop-color="#a33b15"/></radialGradient><path fill="url(#9KmXn~adNniqVXylZmmLCe)" d="M31,0c-3,0-5,2-5,2c-1.593,0.235-4,1-4,5c0,1.488,0.339,3.288,1,7 c0.491-5.891,1.924-9.091,3.5-9.091c1.14,0,2.045,0.9,4.5,0.9c2.072,0,2.587-0.9,4.5-0.9c2.7,0,3.5,8.162,3.5,9.091 c0.541-2.709,1-5.7,1-7C40,3.913,36.588,0,31,0z"/><radialGradient id="9KmXn~adNniqVXylZmmLCf" cx="11.182" cy="-1404.791" r="31.147" gradientTransform="matrix(.8431 0 0 -.8816 19.914 -1235.517)" gradientUnits="userSpaceOnUse"><stop offset="0" stop-color="#b05c0f"/><stop offset=".599" stop-color="#a94a12"/><stop offset="1" stop-color="#a33b15"/></radialGradient><path fill="url(#9KmXn~adNniqVXylZmmLCf)" d="M31.316,0C27,0,26,2,26,2c-0.037,1.014,1.208,1.818,1.208,1.818s0.666,1.432,4.463,1.432 c2.293,0,5.578-1.43,5.578-5.25C37.25,0,36.512,0,31.316,0z"/><g><radialGradient id="9KmXn~adNniqVXylZmmLCg" cx="16.789" cy="-1256.339" r="11.736" gradientTransform="matrix(1 0 0 -1 0 -1237.89)" gradientUnits="userSpaceOnUse"><stop offset=".376" stop-color="#261103"/><stop offset=".68" stop-color="#431d06"/><stop offset="1" stop-color="#662c09"/></radialGradient><path fill="url(#9KmXn~adNniqVXylZmmLCg)" d="M17,7.83c-8.814,0-11,14.232-11,14.232c0,2.534,1.177,4.754,3.641,5.342 c2.11,0.504,4.766,0.971,7.359,0.971s5.248-0.467,7.359-0.971C26.823,26.816,28,24.595,28,22.062C28,22.062,25.814,7.83,17,7.83z"/><linearGradient id="9KmXn~adNniqVXylZmmLCh" x1="14.113" x2="17.911" y1="-1263.446" y2="-1276.51" gradientTransform="matrix(1 0 0 -1 0 -1237.89)" gradientUnits="userSpaceOnUse"><stop offset="0" stop-color="#33bef0"/><stop offset="1" stop-color="#0a85d9"/></linearGradient><path fill="url(#9KmXn~adNniqVXylZmmLCh)" d="M17,26c-7.732,0-14,4.556-14,9.25v1C3,37.216,3.784,38,4.75,38h24.5 c0.966,0,1.75-0.784,1.75-1.75v-1C31,30.556,24.732,26,17,26z"/><path fill="#d6a121" d="M21,28.8c0,1.518-1.6,3.2-4,3.2s-4-1.682-4-3.2c0-2.11,0-4.628,0-4.628h8 C21,24.172,21,26.69,21,28.8z"/><radialGradient id="9KmXn~adNniqVXylZmmLCi" cx="255.478" cy="-1285.57" r="9.38" gradientTransform="matrix(-.9136 0 0 -.9667 250.405 -1225.23)" gradientUnits="userSpaceOnUse"><stop offset="0" stop-color="#ffcf54"/><stop offset=".261" stop-color="#fdcb4d"/><stop offset=".639" stop-color="#f7c13a"/><stop offset="1" stop-color="#f0b421"/></radialGradient><path fill="url(#9KmXn~adNniqVXylZmmLCi)" d="M17,7.062c3.454,0,7,0.606,7,8.507c0,0.632,0,5.019,0,5.695C24,24.085,19.713,28,17,28 s-7-3.915-7-6.736c0-0.675,0-5.062,0-5.695C10,7.875,13.546,7.062,17,7.062z"/><radialGradient id="9KmXn~adNniqVXylZmmLCj" cx="10.979" cy="-1242.31" r="28.154" gradientTransform="matrix(1 0 0 -1 0 -1237.89)" gradientUnits="userSpaceOnUse"><stop offset="0" stop-color="#c26715"/><stop offset=".508" stop-color="#b85515"/><stop offset="1" stop-color="#ad3f16"/></radialGradient><path fill="url(#9KmXn~adNniqVXylZmmLCj)" d="M17,4c-4.54,0-5,3-5,3c-1.846,0.272-6,0.207-6,15c0,3.533,1.613,4.625,2.731,5.088 C5.662,15.544,14.379,16.906,13,9c3.54,10.336,15.558,3.338,12.269,18.088C26.985,26.362,28,24.186,28,22C28,9.92,23.474,4,17,4z"/></g><g><linearGradient id="9KmXn~adNniqVXylZmmLCk" x1="34.09" x2="44.027" y1="-1269.059" y2="-1286.42" gradientTransform="matrix(1 0 0 -1 0 -1237.89)" gradientUnits="userSpaceOnUse"><stop offset="0" stop-color="#21ad64"/><stop offset="1" stop-color="#088242"/></linearGradient><circle cx="38" cy="38" r="10" fill="url(#9KmXn~adNniqVXylZmmLCk)"/><path fill="#fff" d="M38.5,43h-1c-0.276,0-0.5-0.224-0.5-0.5v-9c0-0.276,0.224-0.5,0.5-0.5h1c0.276,0,0.5,0.224,0.5,0.5 v9C39,42.776,38.776,43,38.5,43z"/><path fill="#fff" d="M33,38.5v-1c0-0.276,0.224-0.5,0.5-0.5h9c0.276,0,0.5,0.224,0.5,0.5v1c0,0.276-0.224,0.5-0.5,0.5 h-9C33.224,39,33,38.776,33,38.5z"/></g></svg>