<svg xmlns="http://www.w3.org/2000/svg" viewBox="0 0 48 48"><path fill="#0078d4" d="M45,19.017h2l0,0v19c0,0.552-0.448,1-1,1l0,0c-0.552,0-1-0.448-1-1V19.017L45,19.017z"/><path fill="#0078d4" d="M5.987,37.387l0.007-0.001L5.25,20.267H3.744L3,37.386l0.013,0.001C3.009,37.431,3,37.472,3,37.517	c0,0.828,0.672,1.5,1.5,1.5s1.5-0.672,1.5-1.5C6,37.472,5.991,37.43,5.987,37.387z"/><path fill="#199be2" d="M43,22.002h4V10.013h-0.421c-1.965,0-3.579,1.984-3.579,4.399V22.002z"/><linearGradient id="ykjGufubMqvClQ68XgLbxa" x1="12.609" x2="42.986" y1="378.374" y2="347.998" gradientTransform="matrix(1 0 0 -1 0 390)" gradientUnits="userSpaceOnUse"><stop offset="0" stop-color="#a8e2f7"/><stop offset="1" stop-color="#47c1ff"/></linearGradient><path fill="url(#ykjGufubMqvClQ68XgLbxa)" d="M41,24.517c0,8.56-6.94,15.5-15.5,15.5S10,33.077,10,24.517s6.94-15.5,15.5-15.5	C34.06,9.017,41,15.956,41,24.517z"/><linearGradient id="ykjGufubMqvClQ68XgLbxb" x1="13.73" x2="41.465" y1="377.253" y2="349.518" gradientTransform="matrix(1 0 0 -1 0 390)" gradientUnits="userSpaceOnUse"><stop offset="0" stop-color="#32bdef"/><stop offset="1" stop-color="#1ea2e4"/></linearGradient><path fill="url(#ykjGufubMqvClQ68XgLbxb)" d="M36,24.517c0,5.799-4.701,10.5-10.5,10.5S15,30.316,15,24.517s4.701-10.5,10.5-10.5	C31.299,14.017,36,18.718,36,24.517z"/><path fill="#199be2" d="M7.5,10.017c-0.276,0-0.5,0.224-0.5,0.5v6.5c0,0.552-0.448,1-1,1l0,0c-0.552,0-1-0.448-1-1v-6.5	c0-0.276-0.224-0.5-0.5-0.5S4,10.24,4,10.517v6.5c0,0.552-0.448,1-1,1l0,0c-0.552,0-1-0.448-1-1v-6.5c0-0.276-0.224-0.5-0.5-0.5	S1,10.24,1,10.517v8.5c0,1.657,1.343,3,3,3h1c1.657,0,3-1.343,3-3v-8.5C8,10.24,7.776,10.017,7.5,10.017L7.5,10.017z"/></svg>