<svg xmlns="http://www.w3.org/2000/svg" viewBox="0 0 48 48"><linearGradient id="hVThDrI4UYO3cpviGEAL9a" x1="13.961" x2="33.983" y1="45.296" y2="6.812" gradientTransform="matrix(1 0 0 -1 0 50)" gradientUnits="userSpaceOnUse"><stop offset="0" stop-color="#f44f5a"/><stop offset=".443" stop-color="#ee3d4a"/><stop offset="1" stop-color="#e52030"/></linearGradient><path fill="url(#hVThDrI4UYO3cpviGEAL9a)" d="M24,4C12.954,4,4,12.954,4,24s8.954,20,20,20s20-8.954,20-20S35.046,4,24,4z"/><path fill="#fff" d="M24,32c-1.654,0-3-1.346-3-3V19c0-0.552-0.449-1-1-1s-1,0.448-1,1v6c0,1.654-1.346,3-3,3h-5v-2h5	c0.551,0,1-0.448,1-1v-6c0-1.654,1.346-3,3-3s3,1.346,3,3v10c0,0.552,0.449,1,1,1s1-0.448,1-1v-6c0-1.654,1.346-3,3-3s3,1.346,3,3v2	c0,0.552,0.449,1,1,1h5v2h-5c-1.654,0-3-1.346-3-3v-2c0-0.552-0.449-1-1-1s-1,0.448-1,1v6C27,30.654,25.654,32,24,32z"/></svg>