<svg xmlns="http://www.w3.org/2000/svg" viewBox="0 0 48 48"><path fill="#edbe00" d="M43,36H29V14h10.559c0.86,0,1.625,0.551,1.897,1.368L45,26v8C45,35.105,44.105,36,43,36"/><path fill="#586169" d="M42,36c0,2.761-2.238,5-5,5s-5-2.239-5-5s2.238-5,5-5S42,33.239,42,36"/><path fill="#999" d="M39,36c0,1.105-0.895,2-2,2s-2-0.895-2-2s0.895-2,2-2S39,34.895,39,36"/><path fill="#ad8b00" d="M41,25h-7c-0.552,0-1-0.448-1-1v-7c0-0.552,0.448-1,1-1h5c0.432,0,0.813,0.275,0.949,0.684l2,6	C41.982,22.786,42,22.893,42,23v1C42,24.552,41.552,25,41,25"/><linearGradient id="4vcoRe9Sn7NzXg3kWGbb_a" x1="-11.117" x2="16.369" y1="1.798" y2="29.283" gradientUnits="userSpaceOnUse"><stop offset="0" stop-color="#fafafb"/><stop offset="1" stop-color="#c8cdd1"/></linearGradient><path fill="url(#4vcoRe9Sn7NzXg3kWGbb_a)" d="M13,7H5C3.895,7,3,7.895,3,9v25c0,1.105,0.895,2,2,2h8V7z"/><linearGradient id="4vcoRe9Sn7NzXg3kWGbb_b" x1="12.127" x2="28.356" y1="8.62" y2="33.461" gradientUnits="userSpaceOnUse"><stop offset="0" stop-color="#21ad64"/><stop offset="1" stop-color="#088242"/></linearGradient><path fill="url(#4vcoRe9Sn7NzXg3kWGbb_b)" d="M27,7H13v29h16V9C29,7.895,28.105,7,27,7z"/><path fill="#586169" d="M18,36c0,2.761-2.239,5-5,5s-5-2.239-5-5s2.239-5,5-5S18,33.239,18,36"/><path fill="#999" d="M15,36c0,1.105-0.895,2-2,2s-2-0.895-2-2s0.895-2,2-2S15,34.895,15,36"/><path d="M19.72,26.917c-0.408,0-0.791-0.159-1.079-0.448l-4.194-4.194C14.159,21.987,14,21.604,14,21.196	c0-0.407,0.159-0.79,0.448-1.078l0.741-0.741c0.287-0.288,0.67-0.447,1.078-0.447c0.408,0,0.791,0.159,1.079,0.449l2.375,2.375	l4.999-4.999c0.287-0.288,0.67-0.447,1.078-0.447s0.791,0.159,1.079,0.448l0.741,0.741c0.288,0.287,0.447,0.67,0.447,1.078	s-0.159,0.791-0.448,1.079l-6.817,6.817C20.511,26.758,20.127,26.917,19.72,26.917z" opacity=".05"/><path d="M19.72,26.417c-0.274,0-0.531-0.107-0.725-0.301L14.8,21.921c-0.194-0.194-0.3-0.451-0.3-0.725	s0.107-0.531,0.301-0.724l0.741-0.741c0.193-0.194,0.451-0.3,0.725-0.3s0.531,0.107,0.725,0.301l2.729,2.729l5.352-5.352	c0.193-0.194,0.451-0.3,0.724-0.3c0.274,0,0.531,0.107,0.725,0.301l0.741,0.741c0.193,0.193,0.3,0.45,0.3,0.724	s-0.107,0.531-0.301,0.725l-6.817,6.817C20.251,26.31,19.994,26.417,19.72,26.417z" opacity=".07"/><path fill="#fff" d="M19.349,25.763l-4.196-4.196c-0.205-0.205-0.205-0.537,0-0.742l0.742-0.742	c0.205-0.205,0.537-0.205,0.742,0l3.083,3.083l5.705-5.705c0.205-0.205,0.537-0.205,0.742,0l0.742,0.742	c0.205,0.205,0.205,0.537,0,0.742l-6.818,6.818C19.886,25.968,19.554,25.968,19.349,25.763z"/></svg>