<svg xmlns="http://www.w3.org/2000/svg" xmlns:xlink="http://www.w3.org/1999/xlink" data-name="Слой 1" viewBox="0 0 48 48"><defs><linearGradient id="zZG9NDMrs8uioUhEAaXKNb" x1="6" x2="40" y1="23" y2="23" data-name="Безымянный градиент 155" gradientUnits="userSpaceOnUse"><stop offset="0" stop-color="#3079d6"/><stop offset="1" stop-color="#297cd2"/></linearGradient><linearGradient id="zZG9NDMrs8uioUhEAaXKNc" x1="33.012" x2="41.524" y1="314.994" y2="292.819" data-name="Безымянный градиент 28" gradientTransform="matrix(1 0 0 -1 0 340)" gradientUnits="userSpaceOnUse"><stop offset="0" stop-color="#ffd747"/><stop offset=".482" stop-color="#ffd645"/><stop offset="1" stop-color="#f5bc00"/></linearGradient><linearGradient id="zZG9NDMrs8uioUhEAaXKNa" x1="37.447" x2="39.755" y1="306.568" y2="304.26" data-name="Безымянный градиент 27" gradientTransform="matrix(1 0 0 -1 0 340)" gradientUnits="userSpaceOnUse"><stop offset="0" stop-color="#c77740"/><stop offset="1" stop-color="#b0622b"/></linearGradient><linearGradient id="zZG9NDMrs8uioUhEAaXKNd" x1="39.448" x2="40.76" y1="308.568" y2="307.256" xlink:href="#zZG9NDMrs8uioUhEAaXKNa"/><linearGradient id="zZG9NDMrs8uioUhEAaXKNe" x1="41.448" x2="43.756" y1="310.569" y2="308.261" xlink:href="#zZG9NDMrs8uioUhEAaXKNa"/><linearGradient id="zZG9NDMrs8uioUhEAaXKNf" x1="33.447" x2="35.755" y1="302.568" y2="300.26" xlink:href="#zZG9NDMrs8uioUhEAaXKNa"/><linearGradient id="zZG9NDMrs8uioUhEAaXKNg" x1="35.447" x2="36.76" y1="304.568" y2="303.255" xlink:href="#zZG9NDMrs8uioUhEAaXKNa"/><linearGradient id="zZG9NDMrs8uioUhEAaXKNh" x1="29.446" x2="31.754" y1="298.567" y2="296.259" xlink:href="#zZG9NDMrs8uioUhEAaXKNa"/><linearGradient id="zZG9NDMrs8uioUhEAaXKNi" x1="31.447" x2="32.759" y1="300.567" y2="299.255" xlink:href="#zZG9NDMrs8uioUhEAaXKNa"/></defs><rect width="34" height="34" x="6" y="6" fill="url(#zZG9NDMrs8uioUhEAaXKNb)" rx="2"/><path fill="#50e6ff" d="M40,13V12H34V6H33v6H27V6H26v6H20V6H19v6H13V6H12v6H6v1h6v6H6v1h6v6H6v1h6v6H6v1h6v6h1V34h6v6h1V34h6v6h1V34h6v6h1V34h6V33H34V27h6V26H34V20h6V19H34V13ZM19,33H13V27h6Zm0-7H13V20h6Zm0-7H13V13h6Zm7,14H20V27h6Zm0-7H20V20h6Zm0-7H20V13h6Zm7,14H27V27h6Zm0-7H27V20h6Zm0-7H27V13h6Z"/><path fill="url(#zZG9NDMrs8uioUhEAaXKNc)" d="M47.71121,33.40943,33.40943,47.71121a.99906.99906,0,0,1-1.40518,0l-3.71546-3.71546a.99906.99906,0,0,1,0-1.40518L42.59057,28.28879a.99906.99906,0,0,1,1.40518,0l3.71547,3.71546A.99907.99907,0,0,1,47.71121,33.40943Z"/><path fill="url(#zZG9NDMrs8uioUhEAaXKNa)" d="M39.93024,35.5597l-.35.355a.24758.24758,0,0,1-.355,0l-2.13026-2.13027L37.8,33.07939l2.13026,2.13026A.24171.24171,0,0,1,39.93024,35.5597Z"/><path fill="url(#zZG9NDMrs8uioUhEAaXKNd)" d="M39.80023,31.07914l1.13514,1.13514a.2417.2417,0,0,1,0,.35l-.35.355a.24757.24757,0,0,1-.355,0l-1.13514-1.13515Z"/><path fill="url(#zZG9NDMrs8uioUhEAaXKNe)" d="M43.93074,31.5592l-.35.355a.24758.24758,0,0,1-.355,0L41.09539,29.784l.70509-.70508,2.13026,2.13026A.24169.24169,0,0,1,43.93074,31.5592Z"/><path fill="url(#zZG9NDMrs8uioUhEAaXKNf)" d="M35.92974,39.5602l-.35.355a.24758.24758,0,0,1-.35505,0L33.09439,37.785l.70509-.70508,2.13026,2.13026A.24171.24171,0,0,1,35.92974,39.5602Z"/><path fill="url(#zZG9NDMrs8uioUhEAaXKNg)" d="M36.93487,36.56482l-.35.35505a.24757.24757,0,0,1-.355,0l-1.13514-1.13515.70509-.70508,1.13514,1.13514A.2417.2417,0,0,1,36.93487,36.56482Z"/><path fill="url(#zZG9NDMrs8uioUhEAaXKNh)" d="M31.92924,43.5607l-.35.355a.24758.24758,0,0,1-.355,0l-2.13026-2.13027.70509-.70508,2.13026,2.13026A.24169.24169,0,0,1,31.92924,43.5607Z"/><path fill="url(#zZG9NDMrs8uioUhEAaXKNi)" d="M32.93437,40.56532l-.35005.355a.24757.24757,0,0,1-.355,0l-1.13514-1.13515.70509-.70508,1.13514,1.13514A.2417.2417,0,0,1,32.93437,40.56532Z"/><g><path d="M29.46,40h1.42L40,30.88V29.47Z" opacity=".05"/><path d="M30.18,40h.7L40,30.88v-.71Z" opacity=".07"/></g></svg>