<svg xmlns="http://www.w3.org/2000/svg" viewBox="0 0 48 48"><linearGradient id="6Dok_4HoqFOKpjEDOg8Lja" x1="20.157" x2="27.843" y1="5.921" y2="42.078" gradientUnits="userSpaceOnUse"><stop offset="0" stop-color="#889097"/><stop offset="1" stop-color="#4c5963"/></linearGradient><path fill="url(#6Dok_4HoqFOKpjEDOg8Lja)" d="M40,18H30V8c0-1.105-0.895-2-2-2h-8c-1.105,0-2,0.895-2,2v10H8c-1.105,0-2,0.895-2,2v8 c0,1.105,0.895,2,2,2h10v10c0,1.105,0.895,2,2,2h8c1.105,0,2-0.895,2-2V30h10c1.105,0,2-0.895,2-2v-8C42,18.895,41.105,18,40,18z"/></svg>