<svg xmlns="http://www.w3.org/2000/svg" viewBox="0 0 48 48"><path fill="#16538c" d="M24,11c-0.552,0-1-0.448-1-1V7c0-0.552,0.448-1,1-1s1,0.448,1,1v3C25,10.552,24.552,11,24,11z"/><path fill="#16538c" d="M30.5,44c-0.618,0-1.196-0.385-1.414-1L24,28.623L18.914,43c-0.276,0.781-1.136,1.189-1.914,0.914	c-0.781-0.276-1.19-1.133-0.914-1.914l6.5-18.375c0.212-0.6,0.778-1,1.414-1s1.202,0.4,1.414,1L31.914,42	c0.276,0.781-0.133,1.638-0.914,1.914C30.835,43.973,30.666,44,30.5,44z"/><linearGradient id="VK8MyJdNIbrfjgJbki84na" x1="14.747" x2="34.165" y1="42.902" y2="6.382" gradientTransform="matrix(1 0 0 -1 0 48)" gradientUnits="userSpaceOnUse"><stop offset="0" stop-color="#0077d2"/><stop offset="1" stop-color="#0b59a2"/></linearGradient><path fill="url(#VK8MyJdNIbrfjgJbki84na)" d="M42,8H6C5.448,8,5,8.45,5,9.004v26.991C5,36.55,5.448,37,6,37h36c0.552,0,1-0.45,1-1.004	V9.004C43,8.45,42.552,8,42,8z"/><path fill="#fff" d="M36,32H12c-0.552,0-1-0.448-1-1s0.448-1,1-1h24c0.552,0,1,0.448,1,1S36.552,32,36,32z"/><path fill="#199be2" d="M18,21h-4c-0.552,0-1,0.448-1,1v5c0,0.552,0.448,1,1,1h4c0.552,0,1-0.448,1-1v-5	C19,21.448,18.552,21,18,21z"/><path fill="#50e6ff" d="M34,13h-4c-0.552,0-1,0.448-1,1v13c0,0.552,0.448,1,1,1h4c0.552,0,1-0.448,1-1V14	C35,13.448,34.552,13,34,13z"/><path fill="#35c1f1" d="M26,17h-4c-0.552,0-1,0.448-1,1v9c0,0.552,0.448,1,1,1h4c0.552,0,1-0.448,1-1v-9	C27,17.448,26.552,17,26,17z"/></svg>