<svg xmlns="http://www.w3.org/2000/svg" viewBox="0 0 48 48"><linearGradient id="Yp7HF~uZDBMOVXVEQbT0da" x1="6.913" x2="39.466" y1="6.566" y2="43.46" gradientUnits="userSpaceOnUse"><stop offset="0" stop-color="#33c481"/><stop offset="1" stop-color="#21a366"/></linearGradient><path fill="url(#Yp7HF~uZDBMOVXVEQbT0da)" d="M43.667,22.774l-16.51-16.51c-1.777-1.777-4.685-1.777-6.463,0L4.333,22.626	c-1.777,1.777-1.777,4.685,0,6.463l9.681,9.68C15.791,40.546,17.116,42,19.629,42h8.891c2.513,0,3.838-1.454,5.616-3.232	l9.531-9.531C45.444,27.46,45.444,24.552,43.667,22.774z"/><path d="M23.518,38.994c-0.537,0-1.152-0.255-1.532-0.635l-1.607-1.607c-0.578-0.578-0.578-1.519,0-2.097	l2.519-2.519c0.28-0.28,0.652-0.434,1.049-0.434c0.396,0,0.769,0.154,1.048,0.434l2.496,2.496c0.28,0.28,0.434,0.652,0.434,1.048	c0,0.396-0.154,0.769-0.434,1.049l-1.63,1.63c-0.374,0.374-1.004,0.635-1.532,0.635H23.518z" opacity=".05"/><path d="M23.518,38.494c-0.4,0-0.896-0.206-1.179-0.489l-1.607-1.607c-0.383-0.383-0.383-1.007,0-1.39	l2.519-2.519c0.186-0.186,0.432-0.288,0.695-0.288c0.263,0,0.509,0.102,0.695,0.288l2.496,2.496	c0.186,0.186,0.288,0.432,0.288,0.695c0,0.263-0.102,0.51-0.288,0.695l-1.63,1.63c-0.283,0.283-0.779,0.489-1.178,0.489H23.518z" opacity=".07"/><path fill="#fff" d="M22.693,37.652c0.188,0.188,0.559,0.342,0.825,0.342h0.811c0.266,0,0.637-0.154,0.825-0.342	l1.63-1.63c0.188-0.188,0.188-0.495,0-0.683l-2.496-2.496c-0.188-0.188-0.495-0.188-0.683,0l-2.519,2.519	c-0.188,0.188-0.188,0.495,0,0.683L22.693,37.652z"/><path d="M13.765,29.241c-0.537,0-1.152-0.255-1.532-0.635l-1.607-1.607c-0.28-0.28-0.434-0.652-0.434-1.048	c0-0.396,0.154-0.769,0.434-1.049l12.301-12.3c0.281-0.28,0.653-0.434,1.049-0.434c0.396,0,0.769,0.154,1.048,0.434l2.496,2.496	c0.577,0.577,0.578,1.517,0.001,2.095L16.108,28.606c-0.374,0.374-1.004,0.635-1.532,0.635H13.765z" opacity=".05"/><path d="M13.765,28.741c-0.4,0-0.896-0.206-1.179-0.489l-1.607-1.607c-0.186-0.186-0.288-0.432-0.288-0.695	c0-0.263,0.102-0.51,0.288-0.695l12.301-12.3c0.186-0.186,0.433-0.288,0.695-0.288s0.509,0.102,0.695,0.288l2.496,2.496	c0.382,0.382,0.383,1.005,0.001,1.389L15.754,28.252c-0.283,0.283-0.779,0.489-1.178,0.489H13.765z" opacity=".07"/><path fill="#fff" d="M26.813,15.805l-2.496-2.496c-0.188-0.188-0.495-0.188-0.683,0l-12.301,12.3	c-0.188,0.188-0.188,0.495,0,0.683l1.607,1.607c0.188,0.188,0.559,0.342,0.825,0.342h0.811c0.266,0,0.637-0.154,0.825-0.342	l11.412-11.411C27,16.3,27,15.992,26.813,15.805z"/><path d="M18.625,34.101c-0.537,0-1.152-0.255-1.532-0.635l-1.607-1.607c-0.578-0.578-0.578-1.518-0.001-2.096	l7.389-7.389c0.28-0.28,0.652-0.434,1.049-0.434c0.396,0,0.769,0.154,1.048,0.434l2.496,2.496c0.28,0.279,0.434,0.651,0.434,1.048	s-0.154,0.77-0.435,1.049l-6.499,6.499c-0.373,0.374-1.002,0.634-1.531,0.634H18.625z" opacity=".05"/><path d="M18.625,33.601c-0.4,0-0.896-0.206-1.179-0.489l-1.607-1.607c-0.383-0.383-0.383-1.006,0-1.39	l7.389-7.388c0.186-0.186,0.432-0.288,0.695-0.288c0.263,0,0.509,0.102,0.695,0.288l2.496,2.496	c0.186,0.185,0.288,0.432,0.288,0.695s-0.102,0.51-0.288,0.695l-6.5,6.5c-0.282,0.282-0.777,0.488-1.177,0.488H18.625z" opacity=".07"/><path fill="#fff" d="M26.76,25.577l-2.496-2.496c-0.188-0.188-0.495-0.188-0.683,0l-7.388,7.388	c-0.188,0.188-0.188,0.495,0,0.683l1.607,1.607c0.188,0.188,0.559,0.342,0.825,0.342h0.811c0.266,0,0.637-0.154,0.824-0.341l6.5-6.5	C26.948,26.072,26.948,25.765,26.76,25.577z"/></svg>