<svg xmlns="http://www.w3.org/2000/svg" viewBox="0 0 48 48"><polygon fill="#199be2" points="29.827,23.301 27.348,24.679 22,15 23.557,11.795"/><path fill="#199be2" d="M28.5,22.5c-0.828,0-1.5,0.672-1.5,1.5s0.672,1.5,1.5,1.5S30,24.828,30,24S29.328,22.5,28.5,22.5z"/><linearGradient id="dDRDYp9OdM4eTyKg0sPrja" x1="19.548" x2="30.801" y1="16.475" y2="47.392" gradientUnits="userSpaceOnUse"><stop offset="0" stop-color="#a34f27"/><stop offset=".587" stop-color="#8b3817"/><stop offset="1" stop-color="#802d10"/></linearGradient><path fill="url(#dDRDYp9OdM4eTyKg0sPrja)" d="M32.506,42.782L12.42,37.134c-3.221-0.887-5.116-4.223-4.229-7.451l1.977-7.197	c0.295-1.076,1.404-1.709,2.478-1.413l27.863,7.79c1.074,0.296,1.705,1.407,1.409,2.483l-1.977,7.197	C39.057,41.771,35.727,43.669,32.506,42.782z"/><path fill="#5c2415" d="M30.294,33.383l-10.512-2.992c-1.611-0.444-2.558-2.112-2.115-3.726l1.069-3.897l16.345,4.598	l-1.069,3.897C33.57,32.878,31.905,33.827,30.294,33.383z"/><path fill="#35c1f1" d="M20.5,35c-0.828,0-1.5,0.672-1.5,1.5s0.672,1.5,1.5,1.5s1.5-0.672,1.5-1.5S21.328,35,20.5,35z"/><path fill="#35c1f1" d="M7.5,5C6.672,5,6,5.672,6,6.5S6.672,8,7.5,8S9,7.328,9,6.5S8.328,5,7.5,5z"/><linearGradient id="dDRDYp9OdM4eTyKg0sPrjb" x1="20" x2="27" y1="-825.5" y2="-825.5" gradientTransform="matrix(1 0 0 -1 0 -820)" gradientUnits="userSpaceOnUse"><stop offset="0" stop-color="#ffcf54"/><stop offset=".261" stop-color="#fdcb4d"/><stop offset=".639" stop-color="#f7c13a"/><stop offset="1" stop-color="#f0b421"/></linearGradient><path fill="url(#dDRDYp9OdM4eTyKg0sPrjb)" d="M20,5.5C20,7.432,21.566,9,23.498,9C25.435,9,27,7.432,27,5.5S25.435,2,23.498,2	C21.566,2,20,3.568,20,5.5z"/><path fill="#35c1f1" d="M19.563,35.329L25.75,29.5l-5.505-5.323l5.737-3.032l3.797,7.443	c0.422,0.828,0.219,1.837-0.491,2.437l-7.96,6.726L19.563,35.329z"/><path fill="#35c1f1" d="M6.334,7.443L8.57,5.46L13,10h7.498L18,15l-6.411-1.832c-0.384-0.11-0.726-0.331-0.982-0.637	L6.334,7.443z"/><polygon fill="#35c1f1" points="17.202,14.673 19.036,22 25.93,20.801 23.905,12.702"/><path fill="#35c1f1" d="M19,21.5c0,1.932,1.566,3.5,3.498,3.5C24.435,25,26,23.432,26,21.5S24.435,18,22.498,18	C20.566,18,19,19.568,19,21.5z"/><path fill="#35c1f1" d="M17,13.5c0,1.932,1.566,3.5,3.498,3.5C22.435,17,24,15.432,24,13.5S22.435,10,20.498,10	C18.566,10,17,11.568,17,13.5z"/></svg>