<svg xmlns="http://www.w3.org/2000/svg" viewBox="0 0 48 48"><rect width="17.464" height="3" x="23.768" y="20.5" fill="#64717c" transform="rotate(-13.245 32.5 21.996)"/><path fill="#64717c" d="M12.191,41.911l-2.383-1.822l13-17c0.279-0.365,0.71-0.582,1.169-0.589	c0.462,0.004,0.896,0.197,1.186,0.554l13,16l-2.328,1.893l-11.8-14.523L12.191,41.911z"/><path fill="#64717c" d="M24,25.5c-0.264,0-0.527-0.069-0.761-0.207l-17-10l1.521-2.586l15.245,8.968L26.54,6.656l2.92,0.688	l-4,17c-0.109,0.464-0.432,0.849-0.87,1.035C24.401,25.46,24.2,25.5,24,25.5z"/><linearGradient id="jdDuLIYTLqlzOsNGHQwrDa" x1="18.573" x2="29.735" y1="18.573" y2="29.735" gradientUnits="userSpaceOnUse"><stop offset="0" stop-color="#32bdef"/><stop offset="1" stop-color="#1ea2e4"/></linearGradient><circle cx="24" cy="24" r="8" fill="url(#jdDuLIYTLqlzOsNGHQwrDa)"/><linearGradient id="jdDuLIYTLqlzOsNGHQwrDb" x1="24.608" x2="31.584" y1="3.608" y2="10.584" gradientUnits="userSpaceOnUse"><stop offset="0" stop-color="#0d61a9"/><stop offset="1" stop-color="#16528c"/></linearGradient><circle cx="28" cy="7" r="5" fill="url(#jdDuLIYTLqlzOsNGHQwrDb)"/><linearGradient id="jdDuLIYTLqlzOsNGHQwrDc" x1="37.608" x2="44.584" y1="16.608" y2="23.584" gradientUnits="userSpaceOnUse"><stop offset="0" stop-color="#0d61a9"/><stop offset="1" stop-color="#16528c"/></linearGradient><circle cx="41" cy="20" r="5" fill="url(#jdDuLIYTLqlzOsNGHQwrDc)"/><linearGradient id="jdDuLIYTLqlzOsNGHQwrDd" x1="33.608" x2="40.584" y1="36.608" y2="43.584" gradientUnits="userSpaceOnUse"><stop offset="0" stop-color="#0d61a9"/><stop offset="1" stop-color="#16528c"/></linearGradient><circle cx="37" cy="40" r="5" fill="url(#jdDuLIYTLqlzOsNGHQwrDd)"/><linearGradient id="jdDuLIYTLqlzOsNGHQwrDe" x1="7.608" x2="14.584" y1="37.608" y2="44.584" gradientUnits="userSpaceOnUse"><stop offset="0" stop-color="#0d61a9"/><stop offset="1" stop-color="#16528c"/></linearGradient><circle cx="11" cy="41" r="5" fill="url(#jdDuLIYTLqlzOsNGHQwrDe)"/><linearGradient id="jdDuLIYTLqlzOsNGHQwrDf" x1="3.608" x2="10.584" y1="10.608" y2="17.584" gradientUnits="userSpaceOnUse"><stop offset="0" stop-color="#0d61a9"/><stop offset="1" stop-color="#16528c"/></linearGradient><circle cx="7" cy="14" r="5" fill="url(#jdDuLIYTLqlzOsNGHQwrDf)"/></svg>