<svg xmlns="http://www.w3.org/2000/svg" viewBox="0 0 48 48"><linearGradient id="3O8oSVXkabqQPGxHfdtLQa" x1="24" x2="24" y1="253.706" y2="248.705" gradientTransform="matrix(1 0 0 -1 0 254)" gradientUnits="userSpaceOnUse"><stop offset="0" stop-color="#d4943b"/><stop offset="1" stop-color="#c2620e"/><stop offset="1" stop-color="#c2620e"/></linearGradient><path fill="url(#3O8oSVXkabqQPGxHfdtLQa)" d="M26,7h-4c-0.552,0-1-0.448-1-1V2c0-0.552,0.448-1,1-1h4c0.552,0,1,0.448,1,1v4 C27,6.552,26.552,7,26,7z"/><linearGradient id="3O8oSVXkabqQPGxHfdtLQb" x1="24" x2="24" y1="251.267" y2="222.943" gradientTransform="matrix(1 0 0 -1 0 254)" gradientUnits="userSpaceOnUse"><stop offset="0" stop-color="#32bdef"/><stop offset="1" stop-color="#1ea2e4"/></linearGradient><path fill="url(#3O8oSVXkabqQPGxHfdtLQb)" d="M37.3,28c-0.95-1.56-2.23-2.91-3.77-4c-0.016-0.011-0.032-0.023-0.048-0.034 c-3.367-2.399-5.497-6.162-5.492-10.297L28,5c0-0.55-0.45-1-1-1h-6c-0.55,0-1,0.45-1,1v8.671c0,4.129-2.127,7.89-5.493,10.281 c-0.022,0.016-0.045,0.032-0.067,0.048c-1.54,1.1-2.81,2.46-3.74,4C9.61,29.79,9,31.83,9,34c0,5.29,3.42,9.83,8.64,11.87 c0.24,0.09,0.49,0.13,0.74,0.13h11.24c0.25,0,0.5-0.04,0.74-0.13C35.58,43.83,39,39.29,39,34C39,31.83,38.38,29.79,37.3,28z"/><linearGradient id="3O8oSVXkabqQPGxHfdtLQc" x1="24" x2="24" y1="46" y2="24" gradientUnits="userSpaceOnUse"><stop offset=".065" stop-color="#0d7044"/><stop offset=".506" stop-color="#11945a"/></linearGradient><path fill="url(#3O8oSVXkabqQPGxHfdtLQc)" d="M39,34c0,5.29-3.42,9.83-8.64,11.87C30.12,45.96,29.87,46,29.62,46H18.38 c-0.25,0-0.5-0.04-0.74-0.13C12.42,43.83,9,39.29,9,34c0-2.17,0.61-4.21,1.7-6c0.93-1.54,2.2-2.9,3.74-4h19.09 c1.54,1.09,2.82,2.44,3.77,4C38.38,29.79,39,31.83,39,34z"/><path d="M22,44c-1.103,0-2-0.897-2-2v-0.277l-0.734-0.243 c-1.381-0.472-2.227-1.849-2.014-3.276l0.08-0.573C16.46,36.397,16,34.974,16,33.5c0-4.136,3.589-7.5,8-7.5s8,3.364,8,7.5 c0,1.474-0.46,2.897-1.332,4.13l0.082,0.579c0.211,1.423-0.633,2.798-2.007,3.268L28,41.723V42c0,1.103-0.897,2-2,2H22z M26.43,35.59c-0.229,0-0.427,0.196-0.43,0.271c0,0.551,0.184,1.14,0.7,1.14c0.206,0,0.3,0,0.3-0.57 C27,36.177,26.944,35.59,26.43,35.59z M21.57,35.59c-0.515,0-0.57,0.587-0.57,0.84C21,37,21.094,37,21.3,37 c0.517,0,0.7-0.589,0.7-1.14C21.997,35.786,21.799,35.59,21.57,35.59z" opacity=".05"/><path d="M22,43.5c-0.827,0-1.5-0.673-1.5-1.5v-0.639l-1.077-0.356 c-1.149-0.393-1.854-1.539-1.677-2.729l0.109-0.777C16.968,36.314,16.5,34.937,16.5,33.5c0-3.859,3.364-7,7.5-7s7.5,3.141,7.5,7 c0,1.437-0.468,2.814-1.355,3.999l0.11,0.78c0.176,1.187-0.528,2.333-1.674,2.725L27.5,41.361V42c0,0.827-0.673,1.5-1.5,1.5H22z M24,38.92c0.195,0,0.323,0.088,0.411,0.201c-0.038-0.127-0.083-0.234-0.123-0.316c-0.111-0.215-0.19-0.368-0.288-0.495 c-0.096,0.124-0.171,0.268-0.259,0.439c-0.057,0.115-0.11,0.239-0.151,0.371C23.678,39.007,23.805,38.92,24,38.92z M26.43,35.09 c-0.469,0-0.93,0.382-0.93,0.771c0,0.996,0.471,1.64,1.2,1.64c0.387,0,0.8-0.083,0.8-1.07C27.5,35.616,27.08,35.09,26.43,35.09z M21.57,35.09c-0.65,0-1.07,0.526-1.07,1.34c0,0.987,0.413,1.07,0.8,1.07c0.729,0,1.2-0.644,1.2-1.64 C22.5,35.472,22.039,35.09,21.57,35.09z" opacity=".07"/><path fill="#fff" d="M29.62,37.36C30.48,36.28,31,34.95,31,33.5c0-3.59-3.13-6.5-7-6.5s-7,2.91-7,6.5 c0,1.45,0.52,2.78,1.38,3.86l-0.14,0.99c-0.14,0.95,0.43,1.87,1.34,2.18L21,41v1c0,0.55,0.45,1,1,1h4c0.55,0,1-0.45,1-1v-1 l1.42-0.47c0.91-0.31,1.48-1.23,1.34-2.18L29.62,37.36z M21.3,38c-0.87,0-1.3-0.54-1.3-1.57c0-1.17,0.71-1.84,1.57-1.84 c0.71,0,1.43,0.57,1.43,1.27C23,37.27,22.2,38,21.3,38z M24.58,40.25c-0.39,0-0.48-0.83-0.58-0.83s-0.19,0.83-0.58,0.83 c-0.36,0-0.46-0.46-0.4-0.83c0.03-0.31,0.13-0.6,0.24-0.83c0.14-0.27,0.26-0.52,0.48-0.74c0.08-0.07,0.17-0.1,0.26-0.1 s0.18,0.03,0.26,0.1c0.22,0.22,0.34,0.47,0.48,0.74c0.11,0.23,0.21,0.52,0.24,0.83C25.04,39.79,24.94,40.25,24.58,40.25z M26.7,38 c-0.9,0-1.7-0.73-1.7-2.14c0-0.7,0.72-1.27,1.43-1.27c0.86,0,1.57,0.67,1.57,1.84C28,37.46,27.57,38,26.7,38z"/><linearGradient id="3O8oSVXkabqQPGxHfdtLQd" x1="23" x2="23" y1="16" y2="14" gradientUnits="userSpaceOnUse"><stop offset=".065" stop-color="#0d7044"/><stop offset=".506" stop-color="#11945a"/></linearGradient><circle cx="23" cy="15" r="1" fill="url(#3O8oSVXkabqQPGxHfdtLQd)"/><linearGradient id="3O8oSVXkabqQPGxHfdtLQe" x1="25" x2="25" y1="21" y2="19" gradientUnits="userSpaceOnUse"><stop offset=".065" stop-color="#0d7044"/><stop offset=".506" stop-color="#11945a"/></linearGradient><circle cx="25" cy="20" r="1" fill="url(#3O8oSVXkabqQPGxHfdtLQe)"/><path fill="#1783bd" d="M28,6l-8,0c-0.552,0-1-0.448-1-1v0c0-0.552,0.448-1,1-1l8,0c0.552,0,1,0.448,1,1v0 C29,5.552,28.552,6,28,6z"/></svg>