<svg xmlns="http://www.w3.org/2000/svg" xmlns:xlink="http://www.w3.org/1999/xlink" data-name="Слой 1" viewBox="0 0 48 48"><defs><linearGradient id="w0x~vJcQqKN6QTjwr28oXa" x1="8.326" x2="18.302" y1="28.4" y2="55.81" data-name="Безымянный градиент 8" gradientUnits="userSpaceOnUse"><stop offset="0" stop-color="#dfe9f2"/><stop offset=".391" stop-color="#d6e0e9"/><stop offset="1" stop-color="#bfc8d1"/></linearGradient><linearGradient id="w0x~vJcQqKN6QTjwr28oXb" x1="9.316" x2="9.316" y1="28.316" y2="22.051" data-name="Безымянный градиент 23" gradientUnits="userSpaceOnUse"><stop offset="0" stop-color="#d43a02"/><stop offset="1" stop-color="#b9360c"/></linearGradient><linearGradient id="w0x~vJcQqKN6QTjwr28oXd" x1="33.583" x2="44.485" y1="22.863" y2="52.818" xlink:href="#w0x~vJcQqKN6QTjwr28oXa"/><linearGradient id="w0x~vJcQqKN6QTjwr28oXe" x1="15.816" x2="15.816" y1="28.316" y2="22.051" gradientTransform="matrix(-1 0 0 1 54.5 0)" xlink:href="#w0x~vJcQqKN6QTjwr28oXb"/><linearGradient id="w0x~vJcQqKN6QTjwr28oXf" x1="16.728" x2="29.375" y1="11.019" y2="45.768" data-name="Безымянный градиент 26" gradientUnits="userSpaceOnUse"><stop offset="0" stop-color="#fcfcfc"/><stop offset=".495" stop-color="#f4f4f4"/><stop offset=".946" stop-color="#e8e8e8"/><stop offset="1" stop-color="#e8e8e8"/></linearGradient><linearGradient id="w0x~vJcQqKN6QTjwr28oXc" x1="24" x2="24" y1="1.283" y2="11.577" data-name="Безымянный градиент 70" gradientUnits="userSpaceOnUse"><stop offset="0" stop-color="#6d6d6d"/><stop offset=".126" stop-color="#626262"/><stop offset=".987" stop-color="#464646"/><stop offset=".998" stop-color="#454545"/></linearGradient><linearGradient id="w0x~vJcQqKN6QTjwr28oXg" x1="24" x2="24" y1="1.283" y2="11.577" gradientTransform="rotate(-90 24 7)" xlink:href="#w0x~vJcQqKN6QTjwr28oXc"/><linearGradient id="w0x~vJcQqKN6QTjwr28oXh" x1="24" x2="24" y1="20.578" y2="11" xlink:href="#w0x~vJcQqKN6QTjwr28oXb"/><linearGradient id="w0x~vJcQqKN6QTjwr28oXi" x1="15" x2="33" y1="41.5" y2="41.5" data-name="Безымянный градиент 27" gradientUnits="userSpaceOnUse"><stop offset="0" stop-color="#c8d3de"/><stop offset="1" stop-color="#c8d3de"/></linearGradient><linearGradient id="w0x~vJcQqKN6QTjwr28oXj" x1="18.018" x2="31.227" y1="18.066" y2="54.356" data-name="Безымянный градиент 21" gradientUnits="userSpaceOnUse"><stop offset="0" stop-color="#33bef0"/><stop offset="1" stop-color="#0a85d9"/></linearGradient></defs><polygon fill="url(#w0x~vJcQqKN6QTjwr28oXa)" points="16 23 16 43 4 43 4 27 16 23"/><path fill="url(#w0x~vJcQqKN6QTjwr28oXb)" d="M2.65824,27.97449l-.31643-.94883a.5.5,0,0,1,.3162-.63253l13.02558-4.34186.63282,1.89746L3.29067,28.29064A.5.5,0,0,1,2.65824,27.97449Z"/><polygon fill="url(#w0x~vJcQqKN6QTjwr28oXd)" points="44 27 44 43 32 43 32 23 44 27"/><path fill="url(#w0x~vJcQqKN6QTjwr28oXe)" d="M44.70933,28.29064,31.68359,23.94873l.63282-1.89746L45.342,26.39313a.5.5,0,0,1,.3162.63253l-.31643.94883A.5.5,0,0,1,44.70933,28.29064Z"/><path d="M4,28.05v1.06l12-4V24.06Z" opacity=".05"/><path d="M4,28.05v.53l12-4v-.52Z" opacity=".07"/><path d="M32,24.06v1.05l12,4V28.05Z" opacity=".05"/><path d="M32,24.06v.52l12,4v-.53Z" opacity=".07"/><polygon fill="url(#w0x~vJcQqKN6QTjwr28oXf)" points="33 19 33 43 15 43 15 19 24 12 33 19"/><path fill="url(#w0x~vJcQqKN6QTjwr28oXc)" d="M24,4h0a1,1,0,0,1,1,1v7a0,0,0,0,1,0,0H23a0,0,0,0,1,0,0V5A1,1,0,0,1,24,4Z"/><rect width="2" height="6" x="23" y="4" fill="url(#w0x~vJcQqKN6QTjwr28oXg)" rx="1" transform="rotate(90 24 7)"/><path fill="url(#w0x~vJcQqKN6QTjwr28oXh)" d="M32.98468,20.46851,24,13.28076l-8.98468,7.18775a.5.5,0,0,1-.70269-.078l-.62507-.78084a.5.5,0,0,1,.078-.7029L23.3753,11.219a1,1,0,0,1,1.2494,0l9.60975,7.68781a.5.5,0,0,1,.078.7029l-.62507.78084A.5.5,0,0,1,32.98468,20.46851Z"/><path d="M32.98,20.47,24,13.28l-8.98,7.19c-.01,0-.01.01-.02.01v1.07a1.45737,1.45737,0,0,0,.64-.3L24,14.56l8.36,6.69a1.45737,1.45737,0,0,0,.64.3V20.48C32.99,20.48,32.99,20.47,32.98,20.47Z" opacity=".05"/><path d="M32.98,20.47,24,13.28l-8.98,7.19c-.01,0-.01.01-.02.01v.55a.86656.86656,0,0,0,.33-.17L24,13.92l8.67,6.94a.86656.86656,0,0,0,.33.17v-.55C32.99,20.48,32.99,20.47,32.98,20.47Z" opacity=".07"/><rect width="18" height="3" x="15" y="40" fill="url(#w0x~vJcQqKN6QTjwr28oXi)"/><path fill="url(#w0x~vJcQqKN6QTjwr28oXj)" d="M24,25a3,3,0,1,1,3-3A3,3,0,0,1,24,25ZM11,31H8a1,1,0,0,0-1,1v5a1,1,0,0,0,1,1h3a1,1,0,0,0,1-1V32A1,1,0,0,0,11,31Zm29,0H37a1,1,0,0,0-1,1v5a1,1,0,0,0,1,1h3a1,1,0,0,0,1-1V32A1,1,0,0,0,40,31Z"/><path fill="#de490d" d="M24,31h0a4,4,0,0,1,4,4v8a0,0,0,0,1,0,0H20a0,0,0,0,1,0,0V35a4,4,0,0,1,4-4Z"/></svg>