<svg xmlns="http://www.w3.org/2000/svg" viewBox="0 0 48 48"><linearGradient id="hy_5VMCtP_xSDKYBOl_NFa" x1="11.896" x2="36.901" y1="8.887" y2="40.109" gradientUnits="userSpaceOnUse"><stop offset=".008" stop-color="#f44f5a"/><stop offset=".447" stop-color="#ee3d4a"/><stop offset="1" stop-color="#e52030"/></linearGradient><circle cx="24" cy="24" r="20" fill="url(#hy_5VMCtP_xSDKYBOl_NFa)"/><path fill="#f0f4f7" d="M21.789,23.188l-0.008-2.73l1.609,2.199l2.594-0.848l-1.598,2.211L26,26.223l-2.598-0.836	l-1.594,2.215l-0.012-2.73l-2.598-0.832L21.789,23.188z"/><path fill="#f0f4f7" d="M18.473,31.086c-3.898,0-7.063-3.16-7.063-7.059s3.16-7.059,7.063-7.059	c0.633,0,1.242,0.09,1.828,0.246c-1.219-0.75-2.648-1.191-4.184-1.191c-4.418,0-8,3.582-8,8s3.582,8,8,8	c1.535,0,2.965-0.438,4.184-1.188C19.715,30.996,19.105,31.086,18.473,31.086z"/></svg>