<svg xmlns="http://www.w3.org/2000/svg" viewBox="0 0 48 48"><linearGradient id="gdLL2FB7VtbBMLliRKBSLa" x1="33.27" x2="44.385" y1="37.39" y2="37.39" gradientTransform="matrix(1 0 0 -1 0 47.89)" gradientUnits="userSpaceOnUse"><stop offset=".128" stop-color="#c9cdcf"/><stop offset=".141" stop-color="#cbced0"/><stop offset=".331" stop-color="#e1e2e4"/><stop offset=".859" stop-color="#e4e4e6"/></linearGradient><path fill="url(#gdLL2FB7VtbBMLliRKBSLa)" d="M43.742,7.82l-4.371-1.749c-0.509-0.203-1.095,0.044-1.3,0.557s0.045,1.095,0.558,1.3	L41.307,9H32v6h12c0.552,0,1-0.448,1-1c0-0.346,0-4.101,0-4.323C45,8.854,44.506,8.125,43.742,7.82z"/><path fill="#0078d4" d="M35,42H8c-1.104,0-2-0.896-2-2s0.896-2,2-2h27c2.757,0,5-2.243,5-5s-2.243-5-5-5H13	c-4.962,0-9-4.037-9-9s4.038-9,9-9h6c1.104,0,2,0.896,2,2s-0.896,2-2,2h-6c-2.757,0-5,2.243-5,5s2.243,5,5,5h22c4.962,0,9,4.037,9,9	S39.962,42,35,42z"/><linearGradient id="gdLL2FB7VtbBMLliRKBSLb" x1="29.028" x2="32.016" y1="42.352" y2="30.365" gradientTransform="matrix(1 0 0 -1 0 47.89)" gradientUnits="userSpaceOnUse"><stop offset="0" stop-color="#2aa4f4"/><stop offset="1" stop-color="#007ad9"/></linearGradient><path fill="url(#gdLL2FB7VtbBMLliRKBSLb)" d="M40,4h-1.7c-1.752,0-3.417,0.766-4.558,2.097l0,0C33.251,6.67,32.533,7,31.778,7h-8.122	c-1.061,0-2.079,0.422-2.829,1.172L19,10v4l1.827,1.828c0.75,0.75,1.768,1.172,2.829,1.172H34c0.552,0,1-0.448,1-1V8.105	c0-0.26,0.093-0.511,0.262-0.708l0,0C36.022,6.51,37.131,6,38.299,6H40c0.553,0,1-0.448,1-1S40.553,4,40,4z"/></svg>