<svg xmlns="http://www.w3.org/2000/svg" viewBox="0 0 48 48"><linearGradient id="aKPqW1NSGY8G58tFmtzrza" x1="20.375" x2="28.748" y1="514.939" y2="485.054" gradientTransform="matrix(1 0 0 -1 0 526)" gradientUnits="userSpaceOnUse"><stop offset="0" stop-color="#32bdef"/><stop offset="1" stop-color="#1ea2e4"/></linearGradient><path fill="url(#aKPqW1NSGY8G58tFmtzrza)" d="M43.125,9H4.875C3.287,9,2,10.287,2,11.875v24.25C2,37.713,3.287,39,4.875,39h38.25	C44.713,39,46,37.713,46,36.125v-24.25C46,10.287,44.713,9,43.125,9z"/><linearGradient id="aKPqW1NSGY8G58tFmtzrzb" x1="283.391" x2="285.301" y1="168.186" y2="163.559" gradientTransform="matrix(0 -1 -1 0 173.5 308.5)" gradientUnits="userSpaceOnUse"><stop offset="0" stop-color="#5bc8ef"/><stop offset="1" stop-color="#42befc"/></linearGradient><path fill="url(#aKPqW1NSGY8G58tFmtzrzb)" d="M11,24L11,24c0,0.552-0.448,1-1,1H6c-0.552,0-1-0.448-1-1l0,0c0-0.552,0.448-1,1-1h4 C10.552,23,11,23.448,11,24z"/><linearGradient id="aKPqW1NSGY8G58tFmtzrzc" x1="283.391" x2="285.301" y1="160.186" y2="155.559" gradientTransform="matrix(0 -1 -1 0 173.5 308.5)" gradientUnits="userSpaceOnUse"><stop offset="0" stop-color="#5bc8ef"/><stop offset="1" stop-color="#42befc"/></linearGradient><path fill="url(#aKPqW1NSGY8G58tFmtzrzc)" d="M19,24L19,24c0,0.552-0.448,1-1,1h-4c-0.552,0-1-0.448-1-1l0,0c0-0.552,0.448-1,1-1h4 C18.552,23,19,23.448,19,24z"/><linearGradient id="aKPqW1NSGY8G58tFmtzrzd" x1="283.391" x2="285.301" y1="152.186" y2="147.559" gradientTransform="matrix(0 -1 -1 0 173.5 308.5)" gradientUnits="userSpaceOnUse"><stop offset="0" stop-color="#5bc8ef"/><stop offset="1" stop-color="#42befc"/></linearGradient><path fill="url(#aKPqW1NSGY8G58tFmtzrzd)" d="M27,24L27,24c0,0.552-0.448,1-1,1h-4c-0.552,0-1-0.448-1-1l0,0c0-0.552,0.448-1,1-1h4 C26.552,23,27,23.448,27,24z"/><linearGradient id="aKPqW1NSGY8G58tFmtzrze" x1="283.391" x2="285.301" y1="144.186" y2="139.559" gradientTransform="matrix(0 -1 -1 0 173.5 308.5)" gradientUnits="userSpaceOnUse"><stop offset="0" stop-color="#5bc8ef"/><stop offset="1" stop-color="#42befc"/></linearGradient><path fill="url(#aKPqW1NSGY8G58tFmtzrze)" d="M35,24L35,24c0,0.552-0.448,1-1,1h-4c-0.552,0-1-0.448-1-1l0,0c0-0.552,0.448-1,1-1h4 C34.552,23,35,23.448,35,24z"/><linearGradient id="aKPqW1NSGY8G58tFmtzrzf" x1="283.391" x2="285.301" y1="136.186" y2="131.559" gradientTransform="matrix(0 -1 -1 0 173.5 308.5)" gradientUnits="userSpaceOnUse"><stop offset="0" stop-color="#5bc8ef"/><stop offset="1" stop-color="#42befc"/></linearGradient><path fill="url(#aKPqW1NSGY8G58tFmtzrzf)" d="M43,24L43,24c0,0.552-0.448,1-1,1h-4c-0.552,0-1-0.448-1-1l0,0c0-0.552,0.448-1,1-1h4 C42.552,23,43,23.448,43,24z"/><path fill="#bbd2de" d="M36.013,20h5.974C42.546,20,43,19.546,43,18.987v-4.974C43,13.454,42.546,13,41.987,13h-5.974	C35.454,13,35,13.454,35,14.013v4.974C35,19.546,35.454,20,36.013,20z"/><path fill="#0078d4" d="M13.5,31h-8C5.224,31,5,30.776,5,30.5v-1C5,29.224,5.224,29,5.5,29h8c0.276,0,0.5,0.224,0.5,0.5v1	C14,30.776,13.776,31,13.5,31z"/><path fill="#0078d4" d="M24.5,31h-8c-0.276,0-0.5-0.224-0.5-0.5v-1c0-0.276,0.224-0.5,0.5-0.5h8c0.276,0,0.5,0.224,0.5,0.5v1	C25,30.776,24.776,31,24.5,31z"/><path fill="#0078d4" d="M19.5,35h-14C5.224,35,5,34.776,5,34.5v-1C5,33.224,5.224,33,5.5,33h14c0.276,0,0.5,0.224,0.5,0.5v1	C20,34.776,19.776,35,19.5,35z"/></svg>