<svg xmlns="http://www.w3.org/2000/svg" viewBox="0 0 48 48"><linearGradient id="98_SinsqCvC8CHLAo8qlYa" x1="-2.382" x2="50.954" y1="33" y2="33" gradientUnits="userSpaceOnUse"><stop offset="0" stop-color="#d43a02"/><stop offset="1" stop-color="#b9360c"/></linearGradient><path fill="url(#98_SinsqCvC8CHLAo8qlYa)" d="M11,41c-1.105,0-2-0.895-2-2V25h32v14c0,1.105-0.895,2-2,2H11z"/><linearGradient id="98_SinsqCvC8CHLAo8qlYb" x1="9" x2="41" y1="31" y2="31" gradientUnits="userSpaceOnUse"><stop offset="0" stop-color="#f44f5a"/><stop offset=".567" stop-color="#ee3d4a"/><stop offset=".596" stop-color="#eb3442"/><stop offset=".66" stop-color="#e82938"/><stop offset=".75" stop-color="#e62232"/><stop offset="1" stop-color="#e52030"/></linearGradient><polygon fill="url(#98_SinsqCvC8CHLAo8qlYb)" points="9,24 9,38 23,38 24,38 41,38 41,30 41,26 41,24"/><polygon fill="#fad500" points="9,20 9,35 13,35 17,37 21,35 23,35 24,35 41,35 41,27 41,23 41,20"/><linearGradient id="98_SinsqCvC8CHLAo8qlYc" x1="25" x2="25" y1="17" y2="32" gradientUnits="userSpaceOnUse"><stop offset="0" stop-color="#c8cdd1"/><stop offset="1" stop-color="#fafafb"/></linearGradient><path fill="url(#98_SinsqCvC8CHLAo8qlYc)" d="M31,24h10v-7H9v15h11h4h17v-6H27.555C28.248,24.809,29.523,24,31,24z"/><linearGradient id="98_SinsqCvC8CHLAo8qlYd" x1="9" x2="41" y1="23.5" y2="23.5" gradientUnits="userSpaceOnUse"><stop offset="0" stop-color="#33c481"/><stop offset=".22" stop-color="#27ac6c"/><stop offset=".521" stop-color="#1b9255"/><stop offset=".791" stop-color="#138247"/><stop offset="1" stop-color="#107c42"/></linearGradient><path fill="url(#98_SinsqCvC8CHLAo8qlYd)" d="M9,17v4v8c0,0,1.567,1,3.5,1s3.5-1,3.5-1s1.567,1,3.5,1c1.598,0,2.931-0.676,3.35-0.913	C23.395,29.648,24.155,30,25,30s1.605-0.352,2.15-0.913C27.569,29.324,28.902,30,30.5,30c1.933,0,3.5-1,3.5-1s1.567,1,3.5,1	s3.5-1,3.5-1v-8v-4H9z"/><linearGradient id="98_SinsqCvC8CHLAo8qlYe" x1="2.162" x2="49.753" y1="21" y2="21" gradientUnits="userSpaceOnUse"><stop offset="0" stop-color="#d43a02"/><stop offset="1" stop-color="#b9360c"/></linearGradient><polygon fill="url(#98_SinsqCvC8CHLAo8qlYe)" points="14,15 9,15 9,27 14,27 24,27 41,27 41,19 41,15"/><linearGradient id="98_SinsqCvC8CHLAo8qlYf" x1="25" x2="25" y1="7" y2="24" gradientUnits="userSpaceOnUse"><stop offset="0" stop-color="#eba84b"/><stop offset="1" stop-color="#d97218"/></linearGradient><path fill="url(#98_SinsqCvC8CHLAo8qlYf)" d="M39,7H11C9.895,7,9,7.895,9,9v15h12h3h17v-8v-1V9C41,7.895,40.105,7,39,7z"/><circle cx="13" cy="20" r="1" fill="#f5b967"/><circle cx="19" cy="20" r="1" fill="#f5b967"/><circle cx="25" cy="20" r="1" fill="#f5b967"/><circle cx="31" cy="20" r="1" fill="#f5b967"/><circle cx="37" cy="20" r="1" fill="#f5b967"/><circle cx="34" cy="10" r="1" fill="#f5b967"/><circle cx="28" cy="10" r="1" fill="#f5b967"/><circle cx="22" cy="10" r="1" fill="#f5b967"/><circle cx="16" cy="10" r="1" fill="#f5b967"/></svg>