<svg xmlns="http://www.w3.org/2000/svg" viewBox="0 0 48 48"><linearGradient id="bhDvmaH~2kjfRzl_whoYXa" x1="21.154" x2="37.584" y1="-1.294" y2="43.847" gradientUnits="userSpaceOnUse"><stop offset="0" stop-color="#ffda1c"/><stop offset="1" stop-color="#feb705"/></linearGradient><path fill="url(#bhDvmaH~2kjfRzl_whoYXa)" d="M40,26c-1.105,0-2,0.895-2,2v7.172l-5.016-5.016C32.987,30.103,33,30.053,33,30v-4.5 c0-0.276-0.224-0.5-0.5-0.5h-3c-0.276,0-0.5,0.224-0.5,0.5V27c0,1.105-0.895,2-2,2h-1.5c-0.276,0-0.5,0.224-0.5,0.5v3 c0,0.276,0.224,0.5,0.5,0.5H30c0.053,0,0.103-0.013,0.156-0.016L35.172,38H28c-1.105,0-2,0.895-2,2c0,1.105,0.895,2,2,2h12 c1.105,0,2-0.895,2-2V28C42,26.895,41.105,26,40,26z"/><linearGradient id="bhDvmaH~2kjfRzl_whoYXb" x1="27.649" x2="44.238" y1="-2.957" y2="42.619" gradientUnits="userSpaceOnUse"><stop offset="0" stop-color="#ffda1c"/><stop offset="1" stop-color="#feb705"/></linearGradient><path fill="url(#bhDvmaH~2kjfRzl_whoYXb)" d="M40,6H28c-1.105,0-2,0.895-2,2c0,1.105,0.895,2,2,2h7.172l-5.016,5.016 C30.103,15.013,30.053,15,30,15h-4.5c-0.276,0-0.5,0.224-0.5,0.5v3c0,0.276,0.224,0.5,0.5,0.5H27c1.105,0,2,0.895,2,2v1.5 c0,0.276,0.224,0.5,0.5,0.5h3c0.276,0,0.5-0.224,0.5-0.5V18c0-0.053-0.013-0.103-0.016-0.156L38,12.828V20c0,1.105,0.895,2,2,2 s2-0.895,2-2V8C42,6.895,41.105,6,40,6z"/><linearGradient id="bhDvmaH~2kjfRzl_whoYXc" x1="9.7" x2="26.13" y1="2.187" y2="47.328" gradientUnits="userSpaceOnUse"><stop offset="0" stop-color="#ffda1c"/><stop offset="1" stop-color="#feb705"/></linearGradient><path fill="url(#bhDvmaH~2kjfRzl_whoYXc)" d="M22.5,15H18c-0.053,0-0.103,0.013-0.156,0.016L12.828,10H20c1.105,0,2-0.895,2-2 c0-1.105-0.895-2-2-2H8C6.895,6,6,6.895,6,8v12c0,1.105,0.895,2,2,2s2-0.895,2-2v-7.172l5.016,5.016C15.013,17.897,15,17.947,15,18 v4.5c0,0.276,0.224,0.5,0.5,0.5h3c0.276,0,0.5-0.224,0.5-0.5V21c0-1.105,0.895-2,2-2h1.5c0.276,0,0.5-0.224,0.5-0.5v-3 C23,15.224,22.776,15,22.5,15z"/></svg>