<svg xmlns="http://www.w3.org/2000/svg" viewBox="0 0 48 48"><circle cx="39.5" cy="31.5" r="2.5" fill="#c98e00"/><polygon fill="#c98e00" points="26.211,41.683 40.68,33.693 38.54,29.191 26,35"/><linearGradient id="xlj3_bd2KBJhaZqZBVyqoa" x1="3" x2="45" y1="1771" y2="1771" gradientTransform="translate(0 -1738)" gradientUnits="userSpaceOnUse"><stop offset="0" stop-color="#ffcf54"/><stop offset=".261" stop-color="#fdcb4d"/><stop offset=".639" stop-color="#f7c13a"/><stop offset="1" stop-color="#f0b421"/></linearGradient><path fill="url(#xlj3_bd2KBJhaZqZBVyqoa)" d="M45,32.5c0-1.381-1.119-2.5-2.5-2.5c-0.34,0-0.664,0.069-0.959,0.192l-0.001-0.001	l-0.011,0.005c-0.002,0.001-0.004,0.002-0.006,0.003L29,36l-1.5-1c1.381,0,2.5-1.119,2.5-2.5c0-0.93-0.514-1.732-1.267-2.163	l0.004-0.016l-13.651-6.866h-0.025C14.431,23.169,13.737,23,13,23c-0.718,0-1.397,0.157-2.015,0.43h-0.022L3,27v13l8.09-3.718	l15.911,6.508h0.001C27.309,42.924,27.645,43,28,43c0.435,0,0.838-0.121,1.195-0.317l0.017-0.001l14.469-7.989l-0.001-0.002	C44.462,34.269,45,33.452,45,32.5z"/><circle cx="27.5" cy="32.5" r="1.5" fill="#ffde87"/><linearGradient id="xlj3_bd2KBJhaZqZBVyqob" x1="22.337" x2="24.123" y1="1774.368" y2="1771.288" gradientTransform="translate(0 -1738)" gradientUnits="userSpaceOnUse"><stop offset="0" stop-color="#f0b421" stop-opacity="0"/><stop offset=".512" stop-color="#e9ab12" stop-opacity=".512"/><stop offset="1" stop-color="#e09f00"/></linearGradient><path fill="url(#xlj3_bd2KBJhaZqZBVyqob)" d="M29,36l-1.489-0.998c-1.255-0.06-2.242-0.468-10.511-3.513V35l11.551,4.734	C28.551,39.734,27.733,37.451,29,36z"/><linearGradient id="xlj3_bd2KBJhaZqZBVyqoc" x1="31" x2="31" y1="-767.868" y2="-758.9" gradientTransform="matrix(1 0 0 -1 0 -760)" gradientUnits="userSpaceOnUse"><stop offset="0" stop-color="#92a3b0"/><stop offset=".029" stop-color="#a3b5c4"/><stop offset=".057" stop-color="#aec2d1"/><stop offset=".085" stop-color="#b2c6d6"/></linearGradient><path fill="url(#xlj3_bd2KBJhaZqZBVyqoc)" d="M24,7v2h2V7c0-2.749,2.289-5,5-5l0,0c2.711,0,5,2.251,5,5v2h2V7c0-3.971-3.043-7-6.959-7l0,0	C27.125,0,24,3.029,24,7z"/><path fill="#c48c00" d="M40,24H22c-1.105,0-2-0.895-2-2v-2h22v2C42,23.105,41.105,24,40,24z"/><rect width="22" height="4" x="20" y="12" fill="#edbe00"/><rect width="22" height="4" x="20" y="16" fill="#e3a600"/><path fill="#fad500" d="M42,12H20v-2c0-1.105,0.895-2,2-2h18c1.105,0,2,0.895,2,2V12z"/><linearGradient id="xlj3_bd2KBJhaZqZBVyqod" x1="31" x2="31" y1="1757.058" y2="1751.291" gradientTransform="translate(0 -1738)" gradientUnits="userSpaceOnUse"><stop offset="0" stop-color="#4b4b4b"/><stop offset="1" stop-color="#3b3b3b"/></linearGradient><path fill="url(#xlj3_bd2KBJhaZqZBVyqod)" d="M33,15c0-1.105-0.895-2-2-2s-2,0.895-2,2c0,0.738,0.405,1.376,1,1.723V18c0,0.552,0.448,1,1,1	s1-0.448,1-1v-1.277C32.595,16.376,33,15.738,33,15z"/></svg>