<svg xmlns="http://www.w3.org/2000/svg" viewBox="0 0 48 48"><linearGradient id="xX5S1NvBj7sKGNG7y59wxa" x1="13.379" x2="34.831" y1="47.107" y2="6.761" gradientTransform="matrix(1 0 0 -1 0 50)" gradientUnits="userSpaceOnUse"><stop offset="0" stop-color="#0d61a9"/><stop offset="1" stop-color="#16528c"/></linearGradient><path fill="url(#xX5S1NvBj7sKGNG7y59wxa)" d="M34,6v38H16V4h16C33.1,4,34,4.89,34,6z"/><radialGradient id="xX5S1NvBj7sKGNG7y59wxb" cx="17.716" cy="4.706" r="40.568" gradientTransform="matrix(1 0 0 -1 0 50)" gradientUnits="userSpaceOnUse"><stop offset="0" stop-color="#4b4b4b"/><stop offset=".531" stop-color="#393939"/><stop offset="1" stop-color="#252525"/></radialGradient><polygon fill="url(#xX5S1NvBj7sKGNG7y59wxb)" points="32,6 32,44 16,44 15,6"/><linearGradient id="xX5S1NvBj7sKGNG7y59wxc" x1="5.983" x2="26.408" y1="2895.229" y2="2933.642" gradientTransform="translate(0 -2890)" gradientUnits="userSpaceOnUse"><stop offset="0" stop-color="#2aa4f4"/><stop offset="1" stop-color="#007ad9"/></linearGradient><path fill="url(#xX5S1NvBj7sKGNG7y59wxc)" d="M8,42.248V5.752c0-0.505,0.371-0.931,0.868-0.998l13-1.745C22.467,2.929,23,3.398,23,4.007	v39.986c0,0.609-0.533,1.078-1.132,0.998l-13-1.745C8.371,43.179,8,42.753,8,42.248z"/><radialGradient id="xX5S1NvBj7sKGNG7y59wxd" cx="18.5" cy="2914" r="2" gradientTransform="translate(0 -2890)" gradientUnits="userSpaceOnUse"><stop offset="0"/><stop offset="1" stop-opacity="0"/></radialGradient><path fill="url(#xX5S1NvBj7sKGNG7y59wxd)" d="M20.5,24c0,1.1-0.9,2-2,2s-2-0.9-2-2s0.9-2,2-2S20.5,22.9,20.5,24z"/><linearGradient id="xX5S1NvBj7sKGNG7y59wxe" x1="18.055" x2="19.459" y1="2912.317" y2="2916.053" gradientTransform="translate(0 -2890)" gradientUnits="userSpaceOnUse"><stop offset="0" stop-color="#0077d2"/><stop offset="1" stop-color="#0b59a2"/></linearGradient><path fill="url(#xX5S1NvBj7sKGNG7y59wxe)" d="M20,23.5c0,0.825-0.675,1.5-1.5,1.5S17,24.325,17,23.5s0.675-1.5,1.5-1.5S20,22.675,20,23.5z"/><linearGradient id="xX5S1NvBj7sKGNG7y59wxf" x1="35.566" x2="43.413" y1="44.019" y2="29.259" gradientTransform="matrix(1 0 0 -1 0 50)" gradientUnits="userSpaceOnUse"><stop offset="0" stop-color="#4c4c4c"/><stop offset="1" stop-color="#343434"/></linearGradient><path fill="url(#xX5S1NvBj7sKGNG7y59wxf)" d="M41,15c0,0.552-0.448,1-1,1h-3c-0.552,0-1-0.448-1-1V8c0-0.552,0.448-1,1-1h3	c0.552,0,1,0.448,1,1V15z"/><linearGradient id="xX5S1NvBj7sKGNG7y59wxg" x1="37.815" x2="40.239" y1="41.788" y2="37.23" gradientTransform="matrix(1 0 0 -1 0 50)" gradientUnits="userSpaceOnUse"><stop offset=".037" stop-color="#21cc72"/><stop offset=".666" stop-color="#0f9750"/><stop offset="1" stop-color="#088242"/></linearGradient><path fill="url(#xX5S1NvBj7sKGNG7y59wxg)" d="M38.5,8C37.672,8,37,8.672,37,9.5s0.672,1.5,1.5,1.5S40,10.328,40,9.5S39.328,8,38.5,8z"/><path d="M34,27.75V44h-5.22C27.65,42.27,27,40.22,27,38	C27,33.34,29.9,29.35,34,27.75z" opacity=".05"/><path d="M34,28.3V44h-4.61c-1.19-1.7-1.89-3.77-1.89-6	C27.5,33.63,30.19,29.87,34,28.3z" opacity=".07"/><linearGradient id="xX5S1NvBj7sKGNG7y59wxh" x1="30.929" x2="45.071" y1="1768.929" y2="1783.071" gradientTransform="translate(0 -1738)" gradientUnits="userSpaceOnUse"><stop offset="0" stop-color="#21ad64"/><stop offset="1" stop-color="#088242"/></linearGradient><path fill="url(#xX5S1NvBj7sKGNG7y59wxh)" d="M48,38c0,5.522-4.478,10-10,10s-10-4.478-10-10s4.478-10,10-10S48,32.478,48,38z"/><path fill="#fff" d="M36.646,42.354l-4-4c-0.195-0.195-0.195-0.512,0-0.707l0.707-0.707c0.195-0.195,0.512-0.195,0.707,0	L37,39.879l5.439-5.439c0.195-0.195,0.512-0.195,0.707,0l0.707,0.707c0.195,0.195,0.195,0.512,0,0.707l-6.5,6.5	C37.158,42.549,36.842,42.549,36.646,42.354z"/></svg>