<svg xmlns="http://www.w3.org/2000/svg" xmlns:xlink="http://www.w3.org/1999/xlink" data-name="Слой 1" viewBox="0 0 48 48"><defs><linearGradient id="IiAHMiWUloHB4gG2dAl5wa" x1="34.779" x2="12.987" y1="17.657" y2="39.449" data-name="Безымянный градиент 120" gradientUnits="userSpaceOnUse"><stop offset="0" stop-color="#ffd869"/><stop offset="1" stop-color="#fec52b"/></linearGradient><linearGradient id="IiAHMiWUloHB4gG2dAl5wb" x1="35.207" x2="29.793" y1="24.793" y2="30.207" xlink:href="#IiAHMiWUloHB4gG2dAl5wa"/><linearGradient id="IiAHMiWUloHB4gG2dAl5wc" x1="23.707" x2="14.293" y1="14.293" y2="23.707" xlink:href="#IiAHMiWUloHB4gG2dAl5wa"/></defs><path fill="url(#IiAHMiWUloHB4gG2dAl5wa)" d="M34.43506,12.43665a2.02449,2.02449,0,0,0-2.863-.01984L10.95874,32.74615a6.75653,6.75653,0,0,0-1.21259,1.64063A6.54023,6.54023,0,0,0,9.19958,39H22.16589L34.7887,14.79437A2.02863,2.02863,0,0,0,34.43506,12.43665Z"/><path fill="#889097" d="M7,34s3.25-4,10-4c7,0,10,4,10,4L17,43Z"/><path fill="#64717c" d="M17,43H5a2,2,0,0,1-2-2V35a1,1,0,0,1,1-1H7l9.14692,6.40285A2,2,0,0,1,17,42.04131Z"/><path fill="#64717c" d="M43,43H17v-.95869a2,2,0,0,1,.85308-1.63846L27,34H44a1,1,0,0,1,1,1v6A2,2,0,0,1,43,43Z"/><path fill="#bfc8d1" d="M34.76689,4,27.20023,14.58394a1.01041,1.01041,0,0,0,.24687,1.40745l5.40127,3.78921a1.0104,1.0104,0,0,0,1.40744-.24688L45.01689,4Z"/><path fill="url(#IiAHMiWUloHB4gG2dAl5wb)" d="M32.001,32a.99833.99833,0,0,1-.99121-1.1416l1-7a1.0003,1.0003,0,1,1,1.98046.2832l-1,7A.99985.99985,0,0,1,32.001,32Z"/><path fill="url(#IiAHMiWUloHB4gG2dAl5wc)" d="M14.001,23a1,1,0,0,1-.51563-1.85742l10-6a1,1,0,0,1,1.0293,1.71484l-10,6A.99631.99631,0,0,1,14.001,23Z"/></svg>