<svg xmlns="http://www.w3.org/2000/svg" viewBox="0 0 48 48"><linearGradient id="HhcGVMFVLUoanYEWcs7s5a" x1="23.476" x2="23.476" y1="6.038" y2="41.925" gradientTransform="translate(.5 .12)" gradientUnits="userSpaceOnUse"><stop offset="0" stop-color="#0568ba"/><stop offset="1" stop-color="#0b59a2"/></linearGradient><path fill="url(#HhcGVMFVLUoanYEWcs7s5a)" d="M40.004,41.969L8.031,42c-1.099,0.001-1.999-0.897-2-1.996L6,8.031	c-0.001-1.099,0.897-1.999,1.996-2L39.969,6c1.099-0.001,1.999,0.897,2,1.996L42,39.969C42.001,41.068,41.103,41.968,40.004,41.969z"/><path fill="#50e6ff" d="M38.5,37h-29C9.224,37,9,36.776,9,36.5v-25C9,11.224,9.224,11,9.5,11h29c0.276,0,0.5,0.224,0.5,0.5	v25C39,36.776,38.776,37,38.5,37z"/><linearGradient id="HhcGVMFVLUoanYEWcs7s5b" x1="-290.984" x2="39.813" y1="390.261" y2="10.863" gradientUnits="userSpaceOnUse"><stop offset="0" stop-color="#42a3f2"/><stop offset="1" stop-color="#42a4eb"/></linearGradient><rect width="24" height="10" x="12" y="24" fill="url(#HhcGVMFVLUoanYEWcs7s5b)"/><linearGradient id="HhcGVMFVLUoanYEWcs7s5c" x1="-161.667" x2="26.495" y1="223.49" y2="7.684" gradientUnits="userSpaceOnUse"><stop offset="0" stop-color="#42a3f2"/><stop offset="1" stop-color="#42a4eb"/></linearGradient><rect width="11" height="8" x="12" y="14" fill="url(#HhcGVMFVLUoanYEWcs7s5c)"/><linearGradient id="HhcGVMFVLUoanYEWcs7s5d" x1="-148.667" x2="39.495" y1="223.49" y2="7.684" gradientUnits="userSpaceOnUse"><stop offset="0" stop-color="#42a3f2"/><stop offset="1" stop-color="#42a4eb"/></linearGradient><rect width="11" height="8" x="25" y="14" fill="url(#HhcGVMFVLUoanYEWcs7s5d)"/></svg>