<svg xmlns="http://www.w3.org/2000/svg" viewBox="0 0 48 48"><path fill="#666" d="M39.179,9.498c-5.082-5.072-13.313-5.064-18.385,0.018C18.951,11.363,10.649,19.68,8.806,21.527	c-5.072,5.082,13.331,23.449,18.402,18.367c1.844-1.847,10.145-10.164,11.988-12.012C44.269,22.801,44.261,14.57,39.179,9.498z"/><circle cx="18.007" cy="30.711" r="13" fill="#ccc"/><linearGradient id="01synpRA1erzvRS6lgCW2a" x1="10.998" x2="25.199" y1="23.998" y2="38.2" gradientTransform="translate(-.022 -.272)" gradientUnits="userSpaceOnUse"><stop offset="0" stop-color="#32bdef"/><stop offset="1" stop-color="#1ea2e4"/></linearGradient><circle cx="18.007" cy="30.711" r="11" fill="url(#01synpRA1erzvRS6lgCW2a)"/><radialGradient id="01synpRA1erzvRS6lgCW2b" cx="14.706" cy="26.021" r="12.076" gradientTransform="translate(-.022 -.272)" gradientUnits="userSpaceOnUse"><stop offset="0" stop-color="#4b4b4b"/><stop offset=".531" stop-color="#393939"/><stop offset="1" stop-color="#252525"/></radialGradient><circle cx="18.007" cy="30.711" r="6" fill="url(#01synpRA1erzvRS6lgCW2b)"/><circle cx="14.504" cy="27.214" r="1.5" fill="#fff"/><ellipse cx="26.988" cy="11.202" fill="#999" rx="3" ry="2.5"/><path fill="#ccc" d="M26.988,11.702c-0.552,0-0.999-0.447-1-0.999l-0.01-10c-0.001-0.552,0.446-1,0.999-1.001h0.001	c0.552,0,0.999,0.447,1,0.999l0.01,10C27.989,11.253,27.542,11.702,26.988,11.702L26.988,11.702z"/></svg>