<svg xmlns="http://www.w3.org/2000/svg" viewBox="0 0 48 48"><linearGradient id="co~rf3zbpIgqTc_L8lO68a" x1="16.037" x2="31.123" y1="-161.198" y2="-197.196" gradientTransform="matrix(1 0 0 -1 0 -154)" gradientUnits="userSpaceOnUse"><stop offset="0" stop-color="#eba84b"/><stop offset="1" stop-color="#d97218"/></linearGradient><path fill="url(#co~rf3zbpIgqTc_L8lO68a)" d="M40,42H8c-1.1,0-2-0.9-2-2V12h36v28C42,41.1,41.1,42,40,42z"/><rect width="10" height="2" x="28" y="37" fill="#633412"/><polygon fill="#633412" points="38,32 36,30 34,32 35,32 35,35 37,35 37,32"/><polygon fill="#633412" points="32,32 30,30 28,32 29,32 29,35 31,35 31,32"/><linearGradient id="co~rf3zbpIgqTc_L8lO68b" x1="21.435" x2="24.994" y1="6.529" y2="39.888" gradientUnits="userSpaceOnUse"><stop offset="0" stop-color="#33bef0"/><stop offset="1" stop-color="#0a85d9"/></linearGradient><path fill="url(#co~rf3zbpIgqTc_L8lO68b)" d="M41.21,6H6.869C5.817,6,4.945,6.809,4.874,7.859C4.435,14.341,3,35.631,3,37	c0,1.479,1.145,2,2,2c3,0,8-2.147,8-6c0-5,2.902-9,6-9c0,2.761,2.686,5,6,5c4.777,0,4.389-4,8-4c2.34,0,2.044,2,7,2	c2.761,0,5-1.343,5-3L43.198,7.779C43.085,6.766,42.229,6,41.21,6z"/><linearGradient id="co~rf3zbpIgqTc_L8lO68c" x1="19.315" x2="25.244" y1="17.98" y2="16.921" gradientUnits="userSpaceOnUse"><stop offset="0" stop-color="#0a85d9"/><stop offset=".722" stop-color="#0a85d9" stop-opacity="0"/></linearGradient><path fill="url(#co~rf3zbpIgqTc_L8lO68c)" d="M19,6v18c0,2.761,2.686,5,6,5V6H19z"/><linearGradient id="co~rf3zbpIgqTc_L8lO68d" x1="33.032" x2="39.033" y1="16.924" y2="15.852" gradientUnits="userSpaceOnUse"><stop offset="0" stop-color="#0a85d9"/><stop offset=".722" stop-color="#0a85d9" stop-opacity="0"/></linearGradient><path fill="url(#co~rf3zbpIgqTc_L8lO68d)" d="M39,26.967V6h-7l1,19C35.169,25,35.081,26.715,39,26.967z"/></svg>