<svg xmlns="http://www.w3.org/2000/svg" viewBox="0 0 48 48"><path fill="#727d86" d="M23.581,11.701L17,7V5c0-0.552-0.448-1-1-1h-5c-0.552,0-1,0.448-1,1v2l-6.581,4.701	C3.156,11.889,3,12.192,3,12.515V14c0,0.552,0.448,1,1,1h19c0.552,0,1-0.448,1-1v-1.485C24,12.192,23.844,11.889,23.581,11.701z"/><path fill="#35c1f1" d="M22,44H4c-1.105,0-2-0.895-2-2V26h22v16C24,43.105,23.105,44,22,44z"/><linearGradient id="jtU~Pllhb2DIH28_lJDSca" x1="5" x2="11" y1="22" y2="22" gradientUnits="userSpaceOnUse"><stop offset="0" stop-color="#3079d6"/><stop offset="1" stop-color="#297cd2"/></linearGradient><path fill="url(#jtU~Pllhb2DIH28_lJDSca)" d="M11,23H5v-1c0-0.552,0.448-1,1-1h4c0.552,0,1,0.448,1,1V23z"/><linearGradient id="jtU~Pllhb2DIH28_lJDScb" x1="15" x2="21" y1="22" y2="22" gradientUnits="userSpaceOnUse"><stop offset="0" stop-color="#3079d6"/><stop offset="1" stop-color="#297cd2"/></linearGradient><path fill="url(#jtU~Pllhb2DIH28_lJDScb)" d="M21,23h-6v-1c0-0.552,0.448-1,1-1h4c0.552,0,1,0.448,1,1V23z"/><linearGradient id="jtU~Pllhb2DIH28_lJDScc" x1="13.5" x2="13.5" y1="12.468" y2="15.788" gradientUnits="userSpaceOnUse"><stop offset="0" stop-color="#a1aab3"/><stop offset="1" stop-color="#8f979e"/></linearGradient><path fill="url(#jtU~Pllhb2DIH28_lJDScc)" d="M3,13h21v1.5c0,0.276-0.224,0.5-0.5,0.5h-20C3.224,15,3,14.776,3,14.5V13z"/><path fill="#50e6ff" d="M24,27H2v-3c0-1.105,0.895-2,2-2h18c1.105,0,2,0.895,2,2V27z"/><circle cx="4.5" cy="24.5" r=".5" fill="#fff"/><circle cx="6.5" cy="24.5" r=".5" fill="#fff"/><circle cx="8.5" cy="24.5" r=".5" fill="#fff"/><circle cx="10.5" cy="24.5" r=".5" fill="#fff"/><circle cx="21.5" cy="24.5" r=".5" fill="#fff"/><linearGradient id="jtU~Pllhb2DIH28_lJDScd" x1="13" x2="13" y1="85.991" y2="86.079" gradientUnits="userSpaceOnUse"><stop offset="0" stop-color="#3079d6"/><stop offset="1" stop-color="#297cd2"/></linearGradient><path fill="url(#jtU~Pllhb2DIH28_lJDScd)" d="M21,42H5c-0.552,0-1-0.448-1-1V30c0-0.552,0.448-1,1-1h16c0.552,0,1,0.448,1,1v11	C22,41.552,21.552,42,21,42z"/><path fill="#fec730" d="M46,28H24v-4c0-1.105,0.895-2,2-2h18c1.105,0,2,0.895,2,2V28z"/><path fill="#edbe00" d="M36,44H26c-1.105,0-2-0.895-2-2V28h12V44z"/><path fill="#e3a600" d="M44,44h-9V28h11v14C46,43.105,45.105,44,44,44z"/><linearGradient id="jtU~Pllhb2DIH28_lJDSce" x1="36.5" x2="36.5" y1="32.596" y2="38.106" gradientUnits="userSpaceOnUse"><stop offset="0" stop-color="#4b4b4b"/><stop offset="1" stop-color="#3b3b3b"/></linearGradient><rect width="1" height="5" x="36" y="33" fill="url(#jtU~Pllhb2DIH28_lJDSce)"/><linearGradient id="jtU~Pllhb2DIH28_lJDScf" x1="33.5" x2="33.5" y1="32.596" y2="38.106" gradientUnits="userSpaceOnUse"><stop offset="0" stop-color="#4b4b4b"/><stop offset="1" stop-color="#3b3b3b"/></linearGradient><rect width="1" height="5" x="33" y="33" fill="url(#jtU~Pllhb2DIH28_lJDScf)"/><g><linearGradient id="jtU~Pllhb2DIH28_lJDScg" x1="34.5" x2="34.5" y1="22.096" y2="27.606" gradientTransform="rotate(90 34.5 25.5)" gradientUnits="userSpaceOnUse"><stop offset="0" stop-color="#4b4b4b"/><stop offset="1" stop-color="#3b3b3b"/></linearGradient><rect width="5" height="1" x="32.5" y="25" fill="url(#jtU~Pllhb2DIH28_lJDScg)"/></g></svg>