<svg xmlns="http://www.w3.org/2000/svg" viewBox="0 0 48 48"><linearGradient id="Ngk0Uw_8f1AGQbLikAOkQa" x1="30.249" x2="25.842" y1="5.965" y2="5.965" gradientUnits="userSpaceOnUse"><stop offset=".365" stop-color="#199ae0"/><stop offset=".699" stop-color="#1898de"/><stop offset=".819" stop-color="#1691d8"/><stop offset=".905" stop-color="#1186cc"/><stop offset=".974" stop-color="#0a75bc"/><stop offset="1" stop-color="#076cb3"/></linearGradient><path fill="url(#Ngk0Uw_8f1AGQbLikAOkQa)" d="M25,2.929V9h4.864c0.445,0,0.669-0.539,0.354-0.854L25,2.929z"/><linearGradient id="Ngk0Uw_8f1AGQbLikAOkQb" x1="30.249" x2="25.842" y1="42.035" y2="42.035" gradientUnits="userSpaceOnUse"><stop offset=".365" stop-color="#199ae0"/><stop offset=".699" stop-color="#1898de"/><stop offset=".819" stop-color="#1691d8"/><stop offset=".905" stop-color="#1186cc"/><stop offset=".974" stop-color="#0a75bc"/><stop offset="1" stop-color="#076cb3"/></linearGradient><path fill="url(#Ngk0Uw_8f1AGQbLikAOkQb)" d="M25,45.071V39h4.864c0.445,0,0.669,0.539,0.354,0.854L25,45.071z"/><linearGradient id="Ngk0Uw_8f1AGQbLikAOkQc" x1="42.035" x2="42.035" y1="30.214" y2="25.804" gradientUnits="userSpaceOnUse"><stop offset=".365" stop-color="#199ae0"/><stop offset=".699" stop-color="#1898de"/><stop offset=".819" stop-color="#1691d8"/><stop offset=".905" stop-color="#1186cc"/><stop offset=".974" stop-color="#0a75bc"/><stop offset="1" stop-color="#076cb3"/></linearGradient><path fill="url(#Ngk0Uw_8f1AGQbLikAOkQc)" d="M45.071,25H39v4.864c0,0.445,0.539,0.669,0.854,0.354L45.071,25z"/><linearGradient id="Ngk0Uw_8f1AGQbLikAOkQd" x1="5.965" x2="5.965" y1="30.214" y2="25.804" gradientUnits="userSpaceOnUse"><stop offset=".365" stop-color="#199ae0"/><stop offset=".699" stop-color="#1898de"/><stop offset=".819" stop-color="#1691d8"/><stop offset=".905" stop-color="#1186cc"/><stop offset=".974" stop-color="#0a75bc"/><stop offset="1" stop-color="#076cb3"/></linearGradient><path fill="url(#Ngk0Uw_8f1AGQbLikAOkQd)" d="M2.929,25H9v4.864c0,0.445-0.539,0.669-0.854,0.354L2.929,25z"/><linearGradient id="Ngk0Uw_8f1AGQbLikAOkQe" x1="11.195" x2="43.065" y1="-64.031" y2="155.069" gradientUnits="userSpaceOnUse"><stop offset="0" stop-color="#32bdef"/><stop offset="1" stop-color="#1ea2e4"/></linearGradient><path fill="url(#Ngk0Uw_8f1AGQbLikAOkQe)" d="M45.364,23.293l-5.51-5.51C39.539,17.468,39,17.691,39,18.136V22H26V4.343 c0-0.265-0.105-0.52-0.293-0.707l-1-1c-0.391-0.391-1.024-0.391-1.414,0l-5.51,5.51C17.468,8.461,17.691,9,18.136,9H22v13H9 v-3.864c0-0.445-0.539-0.669-0.854-0.354l-5.51,5.51c-0.391,0.391-0.391,1.024,0,1.414l1,1C3.824,25.895,4.078,26,4.343,26H22v13 h-3.864c-0.445,0-0.669,0.539-0.354,0.854l5.51,5.51c0.391,0.391,1.024,0.391,1.414,0l1-1C25.895,44.176,26,43.922,26,43.657V26 h17.657c0.265,0,0.52-0.105,0.707-0.293l1-1C45.754,24.317,45.754,23.683,45.364,23.293z"/></svg>