<svg xmlns="http://www.w3.org/2000/svg" viewBox="0 0 48 48"><linearGradient id="UqmNxp5aZ3INEwttRgPkya" x1="28.851" x2="41.611" y1="16.554" y2="36.713" gradientUnits="userSpaceOnUse"><stop offset="0" stop-color="#2aa4f4"/><stop offset="1" stop-color="#007ad9"/></linearGradient><path fill="url(#UqmNxp5aZ3INEwttRgPkya)" d="M43,36H29V16h10.559c0.86,0,1.625,0.551,1.897,1.368L45,28v6C45,35.105,44.105,36,43,36"/><path fill="#586169" d="M42,36c0,2.761-2.238,5-5,5s-5-2.239-5-5s2.238-5,5-5S42,33.239,42,36"/><path fill="#999" d="M39,36c0,1.105-0.895,2-2,2s-2-0.895-2-2s0.895-2,2-2S39,34.895,39,36"/><linearGradient id="UqmNxp5aZ3INEwttRgPkyb" x1="35.646" x2="38.244" y1="18.878" y2="28.157" gradientUnits="userSpaceOnUse"><stop offset="0" stop-color="#0d61a9"/><stop offset="1" stop-color="#16528c"/></linearGradient><path fill="url(#UqmNxp5aZ3INEwttRgPkyb)" d="M41,27h-7c-0.552,0-1-0.448-1-1v-7c0-0.552,0.448-1,1-1h5c0.432,0,0.813,0.275,0.949,0.684	l2,6C41.982,24.786,42,24.893,42,25v1C42,26.552,41.552,27,41,27z"/><path fill="#35c1f1" d="M42.894,10.447l-6.05-3.025C36.289,7.145,35.677,7,35.056,7H5C3.895,7,3,7.895,3,9v25	c0,1.105,0.895,2,2,2h24V18c0-1.105,0.895-2,2-2h11c1.105,0,2-0.895,2-2v-1.764C44,11.479,43.572,10.786,42.894,10.447z"/><path fill="#586169" d="M18,36c0,2.761-2.239,5-5,5s-5-2.239-5-5s2.239-5,5-5S18,33.239,18,36"/><path fill="#999" d="M15,36c0,1.105-0.895,2-2,2s-2-0.895-2-2s0.895-2,2-2S15,34.895,15,36"/><path fill="#0e88e2" d="M21,25H9c-0.552,0-1-0.448-1-1v-7c0-0.552,0.448-1,1-1h12c0.552,0,1,0.448,1,1v7	C22,24.552,21.552,25,21,25z"/><path fill="#0e88e2" d="M35,9h-5c-0.552,0-1,0.448-1,1v3c0,0.552,0.448,1,1,1h5c0.552,0,1-0.448,1-1v-3	C36,9.448,35.552,9,35,9z"/></svg>