<svg xmlns="http://www.w3.org/2000/svg" viewBox="0 0 48 48"><linearGradient id="8TXYqHi1x~eBQWg20aVrxa" x1="34" x2="34" y1="44.187" y2="40.057" gradientUnits="userSpaceOnUse"><stop offset="0" stop-color="#c9c9c9"/><stop offset="1" stop-color="#b3b3b3"/></linearGradient><polygon fill="url(#8TXYqHi1x~eBQWg20aVrxa)" points="35,38 31,38 33,44 37,44"/><linearGradient id="8TXYqHi1x~eBQWg20aVrxb" x1="14" x2="14" y1="44.067" y2="40.069" gradientUnits="userSpaceOnUse"><stop offset="0" stop-color="#c9c9c9"/><stop offset="1" stop-color="#b3b3b3"/></linearGradient><polygon fill="url(#8TXYqHi1x~eBQWg20aVrxb)" points="11,44 15,44 17,38 13,38"/><path fill="#33c481" d="M38.803,8.316c-0.722-1.562-2.101-2.696-3.782-3.111C32.794,4.655,29.074,4,24,4	s-8.794,0.655-11.021,1.205c-1.681,0.415-3.06,1.549-3.782,3.111C7.738,11.471,6,15.834,6,18.709c0,2.826,1.064,9.872,1.699,15.012	C8,36.16,10.08,38,12.538,38h22.923c2.458,0,4.539-1.84,4.84-4.279C40.936,28.58,42,21.535,42,18.709	C42,15.834,40.262,11.471,38.803,8.316z"/><path fill="#107c42" d="M24,15.308c-3.756,0-9.009,0.546-11.398,1.003c-1.268,0.242-2.321-0.969-1.903-2.192	c0.49-1.433,1.071-3.016,1.641-4.486c0.189-0.487,0.591-0.851,1.095-0.989C15.094,8.189,19.162,7.231,24,7.231	c4.755,0,8.819,0.943,10.519,1.403c0.5,0.135,0.904,0.495,1.095,0.976c0.59,1.481,1.182,3.069,1.678,4.501	c0.423,1.223-0.63,2.441-1.901,2.199C33.001,15.852,27.751,15.308,24,15.308z"/><radialGradient id="8TXYqHi1x~eBQWg20aVrxc" cx="24" cy="23" r="4" gradientUnits="userSpaceOnUse"><stop offset=".486"/><stop offset="1" stop-opacity="0"/></radialGradient><circle cx="24" cy="23" r="4" fill="url(#8TXYqHi1x~eBQWg20aVrxc)" opacity=".15"/><circle cx="24" cy="23" r="3" fill="#fff"/></svg>