<svg xmlns="http://www.w3.org/2000/svg" viewBox="0 0 48 48"><linearGradient id="sP5DPuQkfZ6b0Clvzumona" x1="24" x2="24" y1="43.98" y2="26.172" gradientUnits="userSpaceOnUse"><stop offset="0" stop-color="#21ad64"/><stop offset="1" stop-color="#088242"/></linearGradient><path fill="url(#sP5DPuQkfZ6b0Clvzumona)" d="M13.565,24.87c0,0,4.795,7.673,5.377,17.252C19.006,43.176,19.876,44,20.932,44h6.12	c1.067,0,1.941-0.845,1.993-1.91c0.525-10.811,5.389-15.481,5.389-15.481L13.565,24.87z M25,38c-1-6-2.739-11.391-2.739-11.391	L27,26C27,26,25,33,25,38z"/><linearGradient id="sP5DPuQkfZ6b0Clvzumonb" x1="19.771" x2="26.096" y1="2.731" y2="28.557" gradientUnits="userSpaceOnUse"><stop offset="0" stop-color="#9dffce"/><stop offset="1" stop-color="#50d18d"/></linearGradient><path fill="url(#sP5DPuQkfZ6b0Clvzumonb)" d="M37.816,11.184C36.976,7.084,33.348,4,29,4c-2.049,0-3.932,0.693-5.445,1.846	C21.913,4.098,19.587,3,17,3c-4.952,0-8.967,4-8.997,8.945C5.041,13.418,3,16.467,3,20c0,4.971,4.029,9,9,9	c1.051,0,2.056-0.19,2.994-0.521C16.426,29.439,18.147,30,20,30c1.851,0,3.57-0.56,5-1.518C26.43,29.44,28.149,30,30,30	c1.598,0,3.095-0.421,4.396-1.151C34.917,28.943,35.452,29,36,29c4.971,0,9-4.029,9-9C45,15.652,41.916,12.024,37.816,11.184z"/></svg>