<svg xmlns="http://www.w3.org/2000/svg" viewBox="0 0 48 48"><path fill="#ccc" d="M34.094,45H13.906c-2.172,0-3.947-1.733-3.999-3.905L9.122,8.119C9.055,5.312,11.312,3,14.12,3h19.76	c2.808,0,5.065,2.312,4.999,5.119l-0.785,32.976C38.041,43.267,36.266,45,34.094,45z"/><path fill="#999" d="M23.87,23c-5.012-0.031-14.306-0.089-14.628-9.901l-0.083-1.755C9,7.988,9,7.986,9,7.88	c-0.025-1.313,0.522-2.588,1.543-3.532C11.452,3.486,12.696,3,14.02,3h19.96c1.323,0,2.567,0.486,3.501,1.37	c0.996,0.922,1.544,2.196,1.518,3.567C39,7.986,39,7.988,38.841,11.344l-0.084,1.783c-0.321,9.784-9.615,9.842-14.608,9.873H24.14	H23.87z"/><path fill="#999" d="M15.842,42h16.315c1.952,0,3.384-1.834,2.91-3.728l-1.128-4.511C32.8,29.2,28.702,26,24,26l0,0	c-4.702,0-8.8,3.2-9.94,7.761l-1.128,4.511C12.459,40.166,13.891,42,15.842,42z"/><linearGradient id="J_A91k6u0shtNbvd3menga" x1="18.585" x2="32.984" y1="49.239" y2="22.159" gradientTransform="matrix(1 0 0 -1 0 50)" gradientUnits="userSpaceOnUse"><stop offset="0" stop-color="#4b4b4b"/><stop offset=".793" stop-color="#393939"/><stop offset=".806" stop-color="#373737"/><stop offset=".908" stop-color="#2a2a2a"/><stop offset="1" stop-color="#252525"/></linearGradient><path fill="url(#J_A91k6u0shtNbvd3menga)" d="M35.42,6.55C35.04,6.19,34.53,6,33.98,6H24h-9.98c-0.55,0-1.06,0.19-1.44,0.55	C12.19,6.91,11.99,7.37,12,7.88c0,0.06,0.23,4.89,0.24,5.12c0.21,6.38,5.18,6.96,11.63,7H24h0.13c6.45-0.04,11.42-0.62,11.63-7	C35.77,12.77,36,7.94,36,7.88C36.01,7.37,35.81,6.91,35.42,6.55z"/><linearGradient id="J_A91k6u0shtNbvd3mengb" x1="21.18" x2="26.986" y1="42.304" y2="31.385" gradientTransform="matrix(1 0 0 -1 0 50)" gradientUnits="userSpaceOnUse"><stop offset="0" stop-color="#32bdef"/><stop offset="1" stop-color="#1ea2e4"/></linearGradient><circle cx="24" cy="13" r="5" fill="url(#J_A91k6u0shtNbvd3mengb)"/><radialGradient id="J_A91k6u0shtNbvd3mengc" cx="21.993" cy="40.125" r="7.033" gradientTransform="matrix(1 0 0 -1 0 50)" gradientUnits="userSpaceOnUse"><stop offset="0" stop-color="#4b4b4b"/><stop offset=".531" stop-color="#393939"/><stop offset="1" stop-color="#252525"/></radialGradient><circle cx="24" cy="13" r="3" fill="url(#J_A91k6u0shtNbvd3mengc)"/><circle cx="22" cy="11" r="1.5" fill="#fff"/><polyline fill="none" stroke="#666" stroke-linecap="round" stroke-linejoin="round" stroke-miterlimit="10" stroke-width="2" points="17,36 24,38 31,36"/><polyline fill="none" stroke="#666" stroke-linecap="round" stroke-linejoin="round" stroke-miterlimit="10" stroke-width="2" points="19,31.571 24,33 29,31.571"/></svg>