<svg xmlns="http://www.w3.org/2000/svg" viewBox="0 0 48 48"><linearGradient id="ffOS3eU_O6Axc2VxJHC6za" x1="39.001" x2="41.528" y1="230.5" y2="230.5" gradientTransform="translate(0 -218)" gradientUnits="userSpaceOnUse"><stop offset="0" stop-color="#c48f0c"/><stop offset=".251" stop-color="#d19b16"/><stop offset=".619" stop-color="#dca51f"/><stop offset="1" stop-color="#e0a922"/></linearGradient><path fill="url(#ffOS3eU_O6Axc2VxJHC6za)" d="M39,8h-1v9h1.3c1,0,1.8-0.7,2-1.7l0.7-3.8C42.3,9.7,40.9,8,39,8z"/><linearGradient id="ffOS3eU_O6Axc2VxJHC6zb" x1="-2075" x2="-2072.472" y1="230.5" y2="230.5" gradientTransform="matrix(-1 0 0 1 -2066 -218)" gradientUnits="userSpaceOnUse"><stop offset="0" stop-color="#c48f0c"/><stop offset=".251" stop-color="#d19b16"/><stop offset=".619" stop-color="#dca51f"/><stop offset="1" stop-color="#e0a922"/></linearGradient><path fill="url(#ffOS3eU_O6Axc2VxJHC6zb)" d="M9,8h1v9H8.7c-1,0-1.8-0.7-2-1.7L6,11.5	C5.7,9.7,7.1,8,9,8z"/><radialGradient id="ffOS3eU_O6Axc2VxJHC6zc" cx="24.391" cy="9.359" r="13.365" gradientUnits="userSpaceOnUse"><stop offset="0" stop-color="#ffcf54"/><stop offset=".261" stop-color="#fdcb4d"/><stop offset=".639" stop-color="#f7c13a"/><stop offset="1" stop-color="#f0b421"/></radialGradient><path fill="url(#ffOS3eU_O6Axc2VxJHC6zc)" d="M39,8v7.3C39,21,30,28,24,28S9,21,9,15.3V8	c0-1.06,0.03-2.06,0.1-3h29.8C38.97,5.94,39,6.94,39,8z"/><circle cx="30.5" cy="9.5" r="1.5" fill="#3b3b3b"/><circle cx="17.5" cy="9.5" r="1.5" fill="#3b3b3b"/><path fill="#d59f1a" d="M28,18h-8c-0.6,0-1,0.4-1,1s0.4,1,1,1h8c0.6,0,1-0.4,1-1S28.6,18,28,18z"/><radialGradient id="ffOS3eU_O6Axc2VxJHC6zd" cx="24.13" cy="22.522" r="15.997" gradientUnits="userSpaceOnUse"><stop offset="0" stop-color="#c26715"/><stop offset=".346" stop-color="#be6015"/><stop offset=".686" stop-color="#b54e16"/><stop offset=".979" stop-color="#ad3f16"/></radialGradient><path fill="url(#ffOS3eU_O6Axc2VxJHC6zd)" d="M32.49,18.146l0.006-0.015l-5.34-3.759	c-0.022-0.016-0.043-0.032-0.066-0.046l-0.047-0.033l-0.003,0.006C26.736,14.113,26.382,14,26,14c-1.105,0-2,0.895-2,2	c0-1.105-0.895-2-2-2c-0.382,0-0.736,0.113-1.04,0.299l-0.003-0.006l-0.047,0.033c-0.023,0.015-0.044,0.031-0.066,0.046l-5.34,3.759	l0.006,0.015C15.211,18.319,15,18.629,15,19v10c0,4.971,4.029,9,9,9s9-4.029,9-9V19C33,18.629,32.789,18.319,32.49,18.146z M29.265,24.205C29.107,24.68,28.663,25,28.162,25C27.52,25,27,24.48,27,23.838V23c0-0.552-0.448-1-1-1h-4c-0.552,0-1,0.448-1,1	v0.838C21,24.48,20.48,25,19.838,25c-0.5,0-0.944-0.32-1.103-0.795l-1.517-4.552l5.1-1.653h3.365l5.1,1.653L29.265,24.205z"/></svg>