<svg xmlns="http://www.w3.org/2000/svg" viewBox="0 0 48 48"><path fill="#61e3a7" d="M39.367,40.97L3.658,27.973c-0.519-0.189-0.787-0.763-0.598-1.282L9.217,9.777	C9.406,9.258,9.98,8.99,10.499,9.179l35.708,12.997c0.519,0.189,0.787,0.763,0.598,1.282l-6.156,16.914	C40.459,40.891,39.886,41.159,39.367,40.97z"/><path fill="#107c42" d="M14.257,10.547l-6.84,18.794l28.191,10.261l6.84-18.794L14.257,10.547z M18.78,30.284	c-3.633-1.322-5.506-5.339-4.184-8.972s5.339-5.506,8.972-4.184s5.506,5.339,4.184,8.972S22.413,31.606,18.78,30.284z M34.285,35.928c-0.778-0.283-1.18-1.144-0.897-1.923c0.283-0.778,1.144-1.18,1.923-0.897c0.778,0.283,1.18,1.144,0.897,1.923	C35.924,35.81,35.063,36.211,34.285,35.928z M30.526,34.56c-0.778-0.283-1.18-1.144-0.897-1.923c0.283-0.778,1.144-1.18,1.923-0.897	c0.778,0.283,1.18,1.144,0.897,1.923C32.165,34.441,31.304,34.843,30.526,34.56z"/><path d="M45.51,21.922L10.499,9.179C9.98,8.99,9.406,9.258,9.217,9.777	L3.061,26.691c-0.189,0.519,0.079,1.093,0.598,1.282l5.244,1.909l32.173,5.673l0.001,0.001c0.116,0.021,0.234,0.03,0.351,0.03	c0.384,0,0.757-0.119,1.085-0.333l1.256-3.45L45.51,21.922z" opacity=".05"/><linearGradient id="K9ld6xeOM3S2N~dQ7Pv_Ka" x1="24.022" x2="24.022" y1="-597.203" y2="-578.676" gradientTransform="matrix(1 0 0 -1 0 -562)" gradientUnits="userSpaceOnUse"><stop offset="0"/><stop offset=".188" stop-color="#040405"/><stop offset=".397" stop-color="#111212"/><stop offset=".615" stop-color="#262828"/><stop offset=".838" stop-color="#444647"/><stop offset="1" stop-color="#5e6162"/></linearGradient><path fill="url(#K9ld6xeOM3S2N~dQ7Pv_Ka)" d="M9.217,9.777L3.061,26.691	c-0.032,0.088-0.043,0.178-0.049,0.267c-0.003,0.068-0.006,0.137,0.004,0.203c0.003,0.024,0.009,0.047,0.014,0.071	c0.081,0.349,0.344,0.643,0.713,0.741l5.344,1.434l32.076,5.656l0.001,0.001c0.122,0.021,0.244,0.025,0.362,0.013	c0.387-0.04,0.734-0.255,0.935-0.57l0.915-3.352l1.658-9.405L10.499,9.179C9.98,8.99,9.406,9.258,9.217,9.777z" opacity=".07"/><path fill="#61e3a7" d="M41.249,34.57L3.827,27.972c-0.544-0.096-0.907-0.615-0.811-1.158L6.141,9.087	C6.237,8.543,6.756,8.18,7.299,8.276l37.423,6.599c0.544,0.096,0.907,0.615,0.811,1.158L42.407,33.76	C42.312,34.303,41.793,34.666,41.249,34.57z"/><path fill="#21a366" d="M11.239,8.97L7.766,28.666l29.544,5.209l3.473-19.696L11.239,8.97z M19.12,27.622	c-3.807-0.671-6.349-4.302-5.678-8.109c0.671-3.807,4.302-6.349,8.109-5.678c3.807,0.671,6.349,4.302,5.678,8.109	S22.927,28.293,19.12,27.622z M35.369,30.487c-0.816-0.144-1.361-0.922-1.217-1.738s0.922-1.361,1.738-1.217	c0.816,0.144,1.361,0.922,1.217,1.738C36.963,30.086,36.185,30.631,35.369,30.487z M31.43,29.793	c-0.816-0.144-1.361-0.922-1.217-1.738c0.144-0.816,0.922-1.361,1.738-1.217s1.361,0.922,1.217,1.738	C33.024,29.392,32.246,29.937,31.43,29.793z"/><path d="M42,29c0.517,0,0.984-0.202,1.339-0.526L44,24.729v-9.982L7.299,8.276	C6.756,8.18,6.237,8.543,6.141,9.087L3.015,26.813c-0.096,0.544,0.267,1.063,0.811,1.158L9.658,29H42z" opacity=".05"/><linearGradient id="K9ld6xeOM3S2N~dQ7Pv_Kb" x1="23.272" x2="23.272" y1="-590.651" y2="-567.335" gradientTransform="matrix(1 0 0 -1 0 -562)" gradientUnits="userSpaceOnUse"><stop offset="0"/><stop offset=".188" stop-color="#040405"/><stop offset=".397" stop-color="#111212"/><stop offset=".615" stop-color="#262828"/><stop offset=".838" stop-color="#444647"/><stop offset="1" stop-color="#5e6162"/></linearGradient><path fill="url(#K9ld6xeOM3S2N~dQ7Pv_Kb)" d="M6.141,9.087L3.072,26.49	c-0.021,0.12-0.055,0.561,0.002,0.66c0.017,0.096,0.056,0.186,0.101,0.271c0.026,0.049,0.055,0.095,0.088,0.138	c0.049,0.062,0.104,0.117,0.168,0.165c0.029,0.022,0.059,0.042,0.091,0.061c0.03,0.038,0.194,0.095,0.233,0.123	c0.01,0.008,0.039,0.018,0.05,0.025c0.045,0.028,0.249,0.074,0.303,0.086c0.035,0.008,0.159,0.037,0.196,0.037L9.328,28.5h31.971	c0.258,0,1.193-0.101,1.371-0.263c0.276,0,0.635-0.987,0.635-1.264l0.196-2.256V14.659L7.299,8.276	C6.756,8.18,6.237,8.543,6.141,9.087z" opacity=".07"/><path fill="#61e3a7" d="M42,28H4c-0.552,0-1-0.448-1-1V9c0-0.552,0.448-1,1-1h38c0.552,0,1,0.448,1,1v18	C43,27.552,42.552,28,42,28z"/><path fill="#33c481" d="M8,8v20h30V8H8z M19,25c-3.866,0-7-3.134-7-7s3.134-7,7-7s7,3.134,7,7S22.866,25,19,25z M35.5,25	c-0.828,0-1.5-0.672-1.5-1.5s0.672-1.5,1.5-1.5s1.5,0.672,1.5,1.5S36.328,25,35.5,25z M31.5,25c-0.828,0-1.5-0.672-1.5-1.5	s0.672-1.5,1.5-1.5s1.5,0.672,1.5,1.5S32.328,25,31.5,25z"/><path d="M21.5,26c-2.82,0-4.019-0.816-5.177-1.606C15.317,23.708,14.278,23,12.5,23s-2.817,0.708-3.823,1.394	C7.519,25.184,6.32,26,3.5,26c-0.176,0-0.343,0.036-0.5,0.092V27c0,0.013,0.007,0.025,0.008,0.038c0,0.049,0.01,0.095,0.017,0.143	c0.004,0.022,0.01,0.042,0.016,0.064c0.072,0.322,0.284,0.607,0.617,0.728l18.879,6.871c0.063-0.202,0.137-0.4,0.187-0.607	C22.907,33.493,23,32.74,23,32v-4.5C23,26.673,22.327,26,21.5,26z" opacity=".05"/><path d="M21.5,26.5c-2.975,0-4.294-0.899-5.459-1.693C15.055,24.135,14.124,23.5,12.5,23.5	s-2.555,0.635-3.541,1.307C7.794,25.601,6.475,26.5,3.5,26.5c-0.186,0-0.351,0.065-0.5,0.154V27c0,0.013,0.007,0.025,0.008,0.038	c0,0.049,0.01,0.095,0.017,0.143c0.004,0.022,0.01,0.042,0.016,0.064c0.072,0.322,0.284,0.607,0.617,0.728l18.409,6.7	c0.057-0.185,0.125-0.366,0.172-0.555C22.412,33.413,22.5,32.7,22.5,32v-4.5C22.5,26.948,22.051,26.5,21.5,26.5z" opacity=".07"/><linearGradient id="K9ld6xeOM3S2N~dQ7Pv_Kc" x1="10.289" x2="17.164" y1="-586.284" y2="-605.419" gradientTransform="matrix(1 0 0 -1 0 -562)" gradientUnits="userSpaceOnUse"><stop offset="0" stop-color="#ffda1c"/><stop offset="1" stop-color="#feb705"/></linearGradient><path fill="url(#K9ld6xeOM3S2N~dQ7Pv_Kc)" d="M21.5,27c-5.561,0-5.639-3-9-3s-3.439,3-9,3C3.224,27,3,27.224,3,27.5c0,0,0,2.928,0,4.5	c0,0.689,0.089,1.356,0.247,2c1.467,6.004,9.04,9.953,9.04,9.953l0.002-0.004C12.353,43.98,12.424,44,12.5,44	s0.147-0.02,0.212-0.051l0.002,0.004c0,0,7.572-3.95,9.04-9.953C21.911,33.356,22,32.689,22,32c0-1.572,0-4.5,0-4.5	C22,27.224,21.776,27,21.5,27z"/><linearGradient id="K9ld6xeOM3S2N~dQ7Pv_Kd" x1="12.5" x2="12.5" y1="26" y2="42.901" gradientUnits="userSpaceOnUse"><stop offset="0" stop-color="#ebc70f"/><stop offset="1" stop-color="#e3a405"/></linearGradient><path fill="url(#K9ld6xeOM3S2N~dQ7Pv_Kd)" d="M12.5,26c0.821,0,1.223,0.252,2.133,0.872c1.128,0.769,2.613,1.781,5.367,2.056V32	c0,0.498-0.064,1.011-0.189,1.524c-0.991,4.052-5.537,7.164-7.311,8.244c-1.777-1.082-6.32-4.193-7.31-8.243	C5.064,33.011,5,32.498,5,32v-3.072c2.754-0.275,4.239-1.287,5.367-2.056C11.277,26.252,11.679,26,12.5,26"/></svg>