<svg xmlns="http://www.w3.org/2000/svg" viewBox="0 0 48 48"><path fill="#21a366" d="M12,42c-0.246,0-0.492-0.09-0.686-0.272c-0.402-0.378-0.421-1.011-0.043-1.414l28.235-30	c0.38-0.402,1.012-0.421,1.414-0.042s0.421,1.011,0.043,1.414l-28.235,30C12.531,41.895,12.266,42,12,42z"/><circle cx="24" cy="24" r="1" fill="#64717c"/><circle cx="20" cy="24" r="1" fill="#64717c"/><circle cx="16" cy="24" r="1" fill="#64717c"/><circle cx="12" cy="24" r="1" fill="#64717c"/><circle cx="8" cy="24" r="1" fill="#64717c"/><circle cx="4" cy="24" r="1" fill="#64717c"/><circle cx="44" cy="24" r="1" fill="#64717c"/><circle cx="40" cy="24" r="1" fill="#64717c"/><circle cx="36" cy="24" r="1" fill="#64717c"/><circle cx="32" cy="24" r="1" fill="#64717c"/><circle cx="28" cy="24" r="1" fill="#64717c"/><linearGradient id="HDVOd5Y9vxVrYN9mwb1w1a" x1="35.757" x2="44.243" y1="6.757" y2="15.243" gradientUnits="userSpaceOnUse"><stop offset="0" stop-color="#f44f5a"/><stop offset=".443" stop-color="#ee3d4a"/><stop offset="1" stop-color="#e52030"/></linearGradient><path fill="url(#HDVOd5Y9vxVrYN9mwb1w1a)" d="M46,11c0,3.313-2.687,6-6,6s-6-2.687-6-6s2.687-6,6-6S46,7.687,46,11z"/><path fill="#fff" d="M42.417,8.1L42.9,8.583c0.133,0.133,0.133,0.35,0,0.483L38.067,13.9c-0.133,0.133-0.35,0.133-0.483,0	L37.1,13.417c-0.133-0.133-0.133-0.35,0-0.483L41.933,8.1C42.067,7.967,42.283,7.967,42.417,8.1z"/><path fill="#fff" d="M42.9,13.417L42.417,13.9c-0.133,0.133-0.35,0.133-0.483,0L37.1,9.067	c-0.133-0.133-0.133-0.35,0-0.483L37.583,8.1c0.133-0.133,0.35-0.133,0.483,0l4.833,4.833C43.033,13.067,43.033,13.283,42.9,13.417z"/></svg>