<svg xmlns="http://www.w3.org/2000/svg" xmlns:xlink="http://www.w3.org/1999/xlink" data-name="Слой 1" viewBox="0 0 48 48"><defs><linearGradient id="jhanIuiGCXKnuiCwfxgn9f" x1="40.5" x2="40.5" y1="4.119" y2="20.816" xlink:href="#jhanIuiGCXKnuiCwfxgn9b"/><linearGradient id="jhanIuiGCXKnuiCwfxgn9a" x1="34.344" x2="38" y1="39.433" y2="39.433" data-name="Безымянный градиент 132" gradientUnits="userSpaceOnUse"><stop offset=".002" stop-color="#454545"/><stop offset=".013" stop-color="#464646"/><stop offset=".874" stop-color="#626262"/><stop offset="1" stop-color="#6d6d6d"/></linearGradient><linearGradient id="jhanIuiGCXKnuiCwfxgn9d" x1="13" x2="15.692" y1="44" y2="44" xlink:href="#jhanIuiGCXKnuiCwfxgn9a"/><linearGradient id="jhanIuiGCXKnuiCwfxgn9b" x1="13.375" x2="26.498" y1="8.222" y2="44.28" data-name="Безымянный градиент 106" gradientUnits="userSpaceOnUse"><stop offset="0" stop-color="#c26715"/><stop offset=".51" stop-color="#b85515"/><stop offset="1" stop-color="#ad3f16"/></linearGradient><linearGradient id="jhanIuiGCXKnuiCwfxgn9e" x1="33.02" x2="33.02" y1="21.907" y2="2.608" xlink:href="#jhanIuiGCXKnuiCwfxgn9a"/><linearGradient id="jhanIuiGCXKnuiCwfxgn9c" x1="15.756" x2="-1.416" y1="26" y2="26" xlink:href="#jhanIuiGCXKnuiCwfxgn9a"/><linearGradient id="jhanIuiGCXKnuiCwfxgn9g" x1="40.243" x2="40.243" y1="21.905" y2="2.487" xlink:href="#jhanIuiGCXKnuiCwfxgn9a"/><linearGradient id="jhanIuiGCXKnuiCwfxgn9h" x1="6.346" x2="6.346" y1="45.043" y2="39.907" xlink:href="#jhanIuiGCXKnuiCwfxgn9a"/><linearGradient id="jhanIuiGCXKnuiCwfxgn9i" x1="28.346" x2="28.346" y1="45.043" y2="39.907" xlink:href="#jhanIuiGCXKnuiCwfxgn9a"/><linearGradient id="jhanIuiGCXKnuiCwfxgn9j" x1="22.891" x2="29.913" y1="6" y2="6" data-name="Безымянный градиент 225" gradientUnits="userSpaceOnUse"><stop offset="0" stop-color="#f0b421"/><stop offset=".361" stop-color="#f7c13a"/><stop offset=".739" stop-color="#fdcb4d"/><stop offset="1" stop-color="#ffcf54"/></linearGradient><radialGradient id="jhanIuiGCXKnuiCwfxgn9k" cx="26.613" cy="4.215" r="4.985" data-name="Безымянный градиент 156" gradientUnits="userSpaceOnUse"><stop offset="0" stop-color="#c26715"/><stop offset=".508" stop-color="#b85515"/><stop offset="1" stop-color="#ad3f16"/></radialGradient></defs><path fill="#802d10" d="M36,38l-.25-3.5L31,30.25,34,28l3.83205,5.74808A1,1,0,0,1,38,34.30278V39.75Z"/><path fill="url(#jhanIuiGCXKnuiCwfxgn9a)" d="M38,39.75l-1.6627,1.03919a.5.5,0,0,1-.61856-.07045l-1.22821-1.22821a.5.5,0,0,1,.13-.80077L36,38Z"/><path fill="url(#jhanIuiGCXKnuiCwfxgn9c)" d="M14,19H6a4,4,0,0,0-4,4v4c0,3,2,6,4,6V24.8747a3,3,0,0,1,2.50681-2.95918L14,21Z"/><path fill="url(#jhanIuiGCXKnuiCwfxgn9d)" d="M15.191,45H13.5a.5.5,0,0,1-.5-.5V43h2l.6382,1.27639A.5.5,0,0,1,15.191,45Z"/><path fill="#802d10" d="M12,31c0,2-3,4-3,4l4,8h2l-2-6s7-2,7-7C20,24.5,12,31,12,31Z"/><path fill="url(#jhanIuiGCXKnuiCwfxgn9b)" d="M34.95782,11.46936l-.30316-.6615L30.8,14.09082l-3.25714,2.7273C26.15253,18.21509,23.26685,19,21.30054,19h-.06891a7.38174,7.38174,0,0,1-2.34436-.38232l-.94586-.31678a7.56744,7.56744,0,0,0-2.40326-.39184h-.00006A8.55857,8.55857,0,0,0,7,26.488,17.30135,17.30135,0,0,0,8,31a4.54831,4.54831,0,0,1-2.43213,3.88013A.95712.95712,0,0,0,5,35.78125V43H7l1-5s6.93121-2.604,7.88489-7H27.76L26.5,41.5,27,43h2l-.5-1.5,3.01221-10.75781a6.53869,6.53869,0,0,0,4.71014-6.16443L37.947,17.94739Z"/><path fill="url(#jhanIuiGCXKnuiCwfxgn9e)" d="M33.142,9.8711c-.735.857-2.09945,2.40613-3.4062,3.88473-.72135.817-1.80965,2.05354-2.45389,2.78582A2.12374,2.12374,0,0,0,26.75,17.94838v2.05037a2.24954,2.24954,0,0,0,1.83234,2.24443,2.19031,2.19031,0,0,0,2.57207-2.12891V17.95582a1.10132,1.10132,0,0,0,2.2022,0V16.06717a.826.826,0,0,0,1.65165,0V11.89234l.03145-.02.33146-.28726L39.2897,8.01641C36.88763,7.07466,35.0637,7.63439,33.142,9.8711Z"/><path fill="url(#jhanIuiGCXKnuiCwfxgn9f)" d="M45.44084,15.54l-4.79625-4.60444a.91343.91343,0,0,0-.2763-.18256L37,9.5V7c-1.30952.54545-2,2.18182-2,3.81818,0,4.29545,0,5.72726,1.83333,7.15908a2.71292,2.71292,0,0,0,1.85568.47727,4.558,4.558,0,0,0,2.17709-.47727l3.01438.67868a1.7228,1.7228,0,0,0,1.87012-.84341v0A1.877,1.877,0,0,0,45.44084,15.54Z"/><path fill="url(#jhanIuiGCXKnuiCwfxgn9g)" d="M39.10862,7.952A7.484,7.484,0,0,1,43.5,11.90909c-1.9.54546-5.42857-.81818-6.51429-2.45454C36.98571,8.14561,39.10862,7.952,39.10862,7.952Z"/><path fill="#5c2415" d="M39.3335,14C38.3635,14,38,12.75,38,12.75h1.3335a.62629.62629,0,1,1,0,1.25Z"/><path fill="url(#jhanIuiGCXKnuiCwfxgn9h)" d="M7.191,45H5.5a.5.5,0,0,1-.5-.5V43H7l.6382,1.27639A.5.5,0,0,1,7.191,45Z"/><path fill="url(#jhanIuiGCXKnuiCwfxgn9i)" d="M29.191,45H27.5a.5.5,0,0,1-.5-.5V43h2l.6382,1.27639A.5.5,0,0,1,29.191,45Z"/><path fill="url(#jhanIuiGCXKnuiCwfxgn9j)" d="M29,6a2.99606,2.99606,0,0,1-3,3,2.90374,2.90374,0,0,1-1.14-.23,2.99434,2.99434,0,0,1,.83-5.75A1.56291,1.56291,0,0,1,26,3a2.96775,2.96775,0,0,1,2.82,2A2.772,2.772,0,0,1,29,6Z"/><path fill="#33c481" d="M27,13a3,3,0,1,1-2.9985-3A2.99981,2.99981,0,0,1,27,13Z"/><path fill="#33c481" d="M24,18a3,3,0,1,1-2.9985-3A2.99981,2.99981,0,0,1,24,18Z"/><path fill="#33c481" d="M21,28a1,1,0,1,1-.9995-1A.99994.99994,0,0,1,21,28Z"/><path fill="#33c481" d="M32,18a1,1,0,1,1-.9995-1A.99994.99994,0,0,1,32,18Z"/><path fill="#33c481" d="M18.52571,19.69691,21.5,23.5l-2.22416,3.81058,1.60993,1.15364L24.166,24.41376a1,1,0,0,0,.17887-.92276l-1.38839-4.52361Z"/><polygon fill="#33c481" points="21.446 11.426 18.526 16.302 23.693 19.322 26.55 14.581 21.446 11.426"/><polygon fill="#33c481" points="26.828 11.995 28.361 15.259 31.429 17.096 30.557 18.897 27 17 24.546 14.019 26.828 11.995"/><path fill="url(#jhanIuiGCXKnuiCwfxgn9k)" d="M28.82,5H26.78078a1,1,0,0,0-.97015.75746L25.19,8.24a.94787.94787,0,0,1-.33.53.98558.98558,0,0,1-.64.23H22.28a.99262.99262,0,0,1-.96-1.28C21.84,6.03,23.09,3.22,25.69,3.02A1.56291,1.56291,0,0,1,26,3,2.96775,2.96775,0,0,1,28.82,5Z"/></svg>