<svg xmlns="http://www.w3.org/2000/svg" viewBox="0 0 48 48"><circle cx="44" cy="17" r="2" fill="#ed6c47"/><circle cx="38.5" cy="13.5" r="1.5" fill="#ff8f6b"/><circle cx="42" cy="9" r="1" fill="#ff8f6b"/><circle cx="40" cy="31" r="5" fill="#d35230"/><circle cx="38" cy="28" r="5" fill="#d35230"/><circle cx="27" cy="28" r="6" fill="#d35230"/><circle cx="32" cy="23" r="6" fill="#d35230"/><circle cx="33" cy="32" r="6" fill="#d35230"/><linearGradient id="FCOj5OZw8iX65LC8ihUasa" x1="62.907" x2="35.6" y1="92" y2="92" gradientTransform="rotate(180 33.5 59)" gradientUnits="userSpaceOnUse"><stop offset="0" stop-color="#8521b0"/><stop offset="1" stop-color="#64129a"/></linearGradient><path fill="url(#FCOj5OZw8iX65LC8ihUasa)" d="M29,11H6c-1.105,0-2,0.895-2,2v26c0,1.105,0.895,2,2,2h18c3.866,0,7-3.134,7-7V13	C31,11.895,30.105,11,29,11z"/><linearGradient id="FCOj5OZw8iX65LC8ihUasb" x1="59.917" x2="35.644" y1="92" y2="92" gradientTransform="rotate(180 33.5 59)" gradientUnits="userSpaceOnUse"><stop offset="0" stop-color="#a235d4"/><stop offset=".441" stop-color="#a033d1"/><stop offset=".702" stop-color="#982cc9"/><stop offset=".915" stop-color="#8b21bb"/><stop offset="1" stop-color="#831bb3"/></linearGradient><path fill="url(#FCOj5OZw8iX65LC8ihUasb)" d="M31,14H7v24h17c3.866,0,7-3.134,7-7V14z"/><linearGradient id="FCOj5OZw8iX65LC8ihUasc" x1="36.159" x2="47.268" y1="98.5" y2="98.5" gradientTransform="rotate(180 33.5 59)" gradientUnits="userSpaceOnUse"><stop offset="0" stop-color="#c965eb"/><stop offset="1" stop-color="#c767e5"/></linearGradient><path fill="url(#FCOj5OZw8iX65LC8ihUasc)" d="M24,27h-2c-1.105,0-2-0.895-2-2V7c0-1.105,0.895-2,2-2h2c3.866,0,7,3.134,7,7v22	C31,30.134,27.866,27,24,27z"/></svg>