<svg xmlns="http://www.w3.org/2000/svg" data-name="Слой 1" viewBox="0 0 48 48"><defs><linearGradient id="uhgKuVgfUY6rDIlC44MVta" x1="10.225" x2="32.464" y1="-8.351" y2="52.75" data-name="Безымянный градиент 58" gradientUnits="userSpaceOnUse"><stop offset="0" stop-color="#427fdb"/><stop offset=".485" stop-color="#2668cb"/><stop offset=".67" stop-color="#1358bf"/><stop offset=".842" stop-color="#0c52bb"/></linearGradient><linearGradient id="uhgKuVgfUY6rDIlC44MVtb" x1="29.45" x2="44.762" y1="-385.45" y2="-400.762" data-name="Безымянный градиент 75" gradientTransform="matrix(1 0 0 -1 0 -356)" gradientUnits="userSpaceOnUse"><stop offset="0" stop-color="#fede00"/><stop offset="1" stop-color="#ffd000"/></linearGradient></defs><rect width="32" height="38" x="6" y="5" fill="url(#uhgKuVgfUY6rDIlC44MVta)" rx="2"/><path d="M21.58356,11a10.0514,10.0514,0,0,1,6.677,2.00467,6.9937,6.9937,0,0,1,2.37088,5.64886A7.80418,7.80418,0,0,1,28.15582,24.616a9.39979,9.39979,0,0,1-6.69433,2.31827H18.13141V35a1,1,0,0,1-1,1H15a1,1,0,0,1-1-1V12a1,1,0,0,1,1-1h6.58356M18.13141,23.55209h2.685a5.93925,5.93925,0,0,0,4.062-1.23755,4.41664,4.41664,0,0,0,1.39485-3.48632q0-4.41029-5.12585-4.41132h-3.016v9.13519M21.58356,10H15a2.00226,2.00226,0,0,0-2,2V35a2.00226,2.00226,0,0,0,2,2h2.13141a2.00226,2.00226,0,0,0,2-2V27.93427h2.33008a10.40264,10.40264,0,0,0,7.37791-2.58838,8.80224,8.80224,0,0,0,2.792-6.69236,7.97905,7.97905,0,0,0-2.72493-6.41223A11.04818,11.04818,0,0,0,21.58356,10Zm-2.45215,5.4169h2.016c3.65689,0,4.12585,1.82306,4.12585,3.41132a3.43921,3.43921,0,0,1-1.05857,2.73834,5.02807,5.02807,0,0,1-3.39824.98553h-1.685V15.4169Z" opacity=".05"/><path d="M21.58356,11a10.0514,10.0514,0,0,1,6.677,2.00467,6.9937,6.9937,0,0,1,2.37088,5.64886A7.80418,7.80418,0,0,1,28.15582,24.616a9.39979,9.39979,0,0,1-6.69433,2.31827H18.13141V35a1,1,0,0,1-1,1H15a1,1,0,0,1-1-1V12a1,1,0,0,1,1-1h6.58356M18.13141,23.55209h2.685a5.93925,5.93925,0,0,0,4.062-1.23755,4.41664,4.41664,0,0,0,1.39485-3.48632q0-4.41029-5.12585-4.41132h-3.016v9.13519M21.58356,10.5H15A1.50171,1.50171,0,0,0,13.5,12V35A1.50171,1.50171,0,0,0,15,36.5h2.13141a1.50171,1.50171,0,0,0,1.5-1.5V27.43427h2.83008a9.92167,9.92167,0,0,0,7.03613-2.45334,8.32023,8.32023,0,0,0,2.63379-6.3274,7.50128,7.50128,0,0,0-2.5479-6.03054,10.57073,10.57073,0,0,0-7-2.123Zm-2.95215,4.4169h2.516c3.156,0,4.62585,1.24286,4.62585,3.91132a3.90893,3.90893,0,0,1-1.22671,3.11233,5.49523,5.49523,0,0,1-3.7301,1.11154h-2.185V14.9169Z" opacity=".07"/><path fill="#fff" d="M18.13141,26.93425V35a1,1,0,0,1-1,1H15a1,1,0,0,1-1-1V12a1,1,0,0,1,1-1h6.58355a10.05143,10.05143,0,0,1,6.677,2.00467,6.99377,6.99377,0,0,1,2.37088,5.64886A7.80414,7.80414,0,0,1,28.15583,24.616a9.39971,9.39971,0,0,1-6.69434,2.31826Zm0-12.51736v9.1352h2.685a5.9394,5.9394,0,0,0,4.062-1.23753,4.41675,4.41675,0,0,0,1.39485-3.48634q0-4.41029-5.12585-4.41133Z"/><circle cx="37" cy="37" r="11" fill="url(#uhgKuVgfUY6rDIlC44MVtb)"/><circle cx="37" cy="37" r="8.8" fill="#f5be00"/><path fill="#fee119" d="M34.544,41.054v-1.64a3.57513,3.57513,0,0,0,1.901.547,1.78342,1.78342,0,0,0,1.187-.361,1.218,1.218,0,0,0,.428-.981q0-1.2945-1.828-1.294a11.4269,11.4269,0,0,0-1.439.109V32.57h4.822v1.567H36.433V35.88q.3825-.036.723-.036a2.97163,2.97163,0,0,1,2.101.704,2.462,2.462,0,0,1,.759,1.895,2.79562,2.79562,0,0,1-.905,2.152,3.47521,3.47521,0,0,1-2.454.835A5.24945,5.24945,0,0,1,34.544,41.054Z"/></svg>