<svg xmlns="http://www.w3.org/2000/svg" data-name="Layer 1" viewBox="0 0 48 48"><defs><linearGradient id="3yTrOWfcefzUrllht9RJLa" x1="15.5" x2="15.5" y1=".882" y2="33.766" data-name="Безымянный градиент 141" gradientUnits="userSpaceOnUse"><stop offset="0" stop-color="#fed100"/><stop offset="1" stop-color="#e38101"/></linearGradient><linearGradient id="3yTrOWfcefzUrllht9RJLb" x1="9" x2="9" y1="18.265" y2="52.577" data-name="Безымянный градиент 19" gradientUnits="userSpaceOnUse"><stop offset="0" stop-color="#fed100"/><stop offset=".387" stop-color="#fdcf00"/><stop offset=".574" stop-color="#fbc700"/><stop offset=".718" stop-color="#f6ba00"/><stop offset=".84" stop-color="#f0a801"/><stop offset=".947" stop-color="#e89001"/><stop offset="1" stop-color="#e38101"/></linearGradient><linearGradient id="3yTrOWfcefzUrllht9RJLc" x1="39.375" x2="39.375" y1="8.741" y2="52.411" data-name="Новый образец градиентной зал 2" gradientUnits="userSpaceOnUse"><stop offset="0" stop-color="#2aa4f4"/><stop offset="1" stop-color="#007ad9"/></linearGradient><linearGradient id="3yTrOWfcefzUrllht9RJLd" x1="22.939" x2="37.864" y1="3.339" y2="42.329" data-name="Новый образец градиентной зал 3" gradientUnits="userSpaceOnUse"><stop offset="0" stop-color="#32bdef"/><stop offset="1" stop-color="#1ea2e4"/></linearGradient><linearGradient id="3yTrOWfcefzUrllht9RJLe" x1="30.565" x2="30.565" y1="4.588" y2="19.122" gradientUnits="userSpaceOnUse"><stop offset="0" stop-color="#a8e2f7"/><stop offset="1" stop-color="#47c1ff"/></linearGradient><radialGradient id="3yTrOWfcefzUrllht9RJLf" cx="-265.821" cy="212.613" r="16.789" gradientTransform="matrix(0 -1 .95258 0 -185.994 -233.559)" gradientUnits="userSpaceOnUse"><stop offset="0" stop-color="#dfe9f2"/><stop offset=".391" stop-color="#d6e0e9"/><stop offset="1" stop-color="#bfc8d1"/></radialGradient></defs><rect width="23" height="23" x="4" y="21" fill="url(#3yTrOWfcefzUrllht9RJLa)" rx="1"/><rect width="10" height="23" x="4" y="21" fill="url(#3yTrOWfcefzUrllht9RJLb)" rx="1"/><path fill="url(#3yTrOWfcefzUrllht9RJLc)" d="M44,12.55V42.02a2.00591,2.00591,0,0,1-2,2H35L34.75,12l2-1.6L41,7l2.71,4.52a2.05727,2.05727,0,0,1,.21.48A2.032,2.032,0,0,1,44,12.55Z"/><path fill="url(#3yTrOWfcefzUrllht9RJLd)" d="M41,4V7l-2.72,4.53a2.14073,2.14073,0,0,0-.2.47,2.032,2.032,0,0,0-.08.55V42a2.00591,2.00591,0,0,1-2,2H22a2.00591,2.00591,0,0,1-2-2V12.7a1.85046,1.85046,0,0,1,.13-.7,1.76868,1.76868,0,0,1,.31-.55L24,7V4a1.003,1.003,0,0,1,1-1H40A1.003,1.003,0,0,1,41,4Z"/><path fill="url(#3yTrOWfcefzUrllht9RJLe)" d="M41,7l-2.72,4.53a2.14073,2.14073,0,0,0-.2.47H20.13a1.76868,1.76868,0,0,1,.31-.55L24,7Z"/><path d="M20,26.1v1.03c3.39.92,6,6.36,6,11.14A7.99975,7.99975,0,0,1,24.03,44h1.3A9.539,9.539,0,0,0,27,38.27C27,32.91,24.07,26.96,20,26.1Z" opacity=".05"/><g opacity=".07"><path d="M20,26.62v.51c3.39.92,6,6.36,6,11.14A7.99975,7.99975,0,0,1,24.03,44h.7a8.741,8.741,0,0,0,1.77-5.73C26.5,33.27,23.73,27.51,20,26.62Z"/></g><path fill="url(#3yTrOWfcefzUrllht9RJLf)" d="M26,38.27143C26,33.02929,22.866,27,19,27s-7,6.02929-7,11.27143,3.134,7.712,7,7.712S26,43.51356,26,38.27143Z"/></svg>