<svg xmlns="http://www.w3.org/2000/svg" viewBox="0 0 48 48"><linearGradient id="8coUqovO~scbnBiY0E1dya" x1="12.687" x2="35.51" y1="-140.686" y2="-163.51" gradientTransform="matrix(1 0 0 -1 0 -124)" gradientUnits="userSpaceOnUse"><stop offset="0" stop-color="#00bffe"/><stop offset="1" stop-color="#1d55c4"/></linearGradient><path fill="url(#8coUqovO~scbnBiY0E1dya)" d="M40,28c0,8.836-7.164,16-16,16S8,36.836,8,28s7.164-16,16-16S40,19.164,40,28z"/><linearGradient id="8coUqovO~scbnBiY0E1dyb" x1="12.963" x2="35.7" y1="-140.544" y2="-163.28" gradientTransform="matrix(1 0 0 -1 0 -124)" gradientUnits="userSpaceOnUse"><stop offset="0" stop-color="#84e1fe"/><stop offset="1" stop-color="#167cf7"/></linearGradient><path fill="url(#8coUqovO~scbnBiY0E1dyb)" d="M23.816,36.406c0.184,0.546,0,1.277-0.183,1.644c-0.18,0.547-0.363,1.278-0.73,1.641	c-0.363,0.367-0.73,0.551-1.094,0.734c-0.547,0.363-0.914,1.094-1.461,1.644c0,0.18-0.73,1.109-0.914,1.109	c-0.068,0.036-0.133,0.069-0.198,0.102c-1.078-0.336-2.102-0.79-3.07-1.335c-0.006-0.019-0.014-0.038-0.021-0.058	c0-0.183-0.18-1.28-0.18-1.461c-0.183-0.55-0.367-1.28-0.55-1.827c-0.363-0.914-1.094-1.827-1.094-2.921	c0-0.914,0.18-1.824-0.367-2.558c-0.73-0.914-2.191-0.914-2.922-1.461c-1.098-0.73-2.191-1.824-2.738-2.922	c-0.13-0.216-0.218-0.417-0.29-0.614C8.006,28.081,8,28.042,8,28c0-4.285,1.694-8.168,4.438-11.04	c1.501-1.214,4.428-1.772,6.205-1.236c0.547,0.18,2.516,1.358,2.516,1.905c0,0.183,0,0.183-0.183,0.367	c-0.18,0.183-0.364,0.183-0.547,0.183c-0.547,0-2.271-0.398-2.455-0.582c-1.098-0.366-2.738,2.008-2.921,2.738	c-0.183,0.55-0.183,1.827,0.73,2.01c0.547,0,3.051-2.125,3.418-2.308c1.461-0.18,2.59,1.072,2.957,2.353	c0.547,1.461-2.54,2.873-3.638,3.24c-0.363,0.183-0.546-0.183-0.914,0c-0.91,0.363-1.449,1.179-1.558,2.271	c-0.092,0.924-0.183,1.825-0.363,2.738c-0.183,0-0.558-0.002-0.558-0.186v-0.363c0-0.551-0.183-1.281-0.73-1.464	c-0.183-0.179-0.442,0.109-0.625,0.109c-0.547,0-1.094-0.55-1.641-0.183c-0.367,0.363-0.73,0.914-0.73,1.461	c0,0.184,0,0.367,0.18,0.547c0.367,0.183,0.73-0.18,1.098,0c0.363,0,0.363,0.367,0.363,0.55c0.367,0.547,0.73,1.278,1.28,1.461	h3.651c0.547,0.183,1.461,0.363,1.827,0.73c0.179,0.363,0.179,0.73,0.363,1.094c0.914,0.914,2.007,0.914,3.104,1.28	C23.633,35.859,23.817,36.039,23.816,36.406z M34.019,15.536c-0.081,0.024-0.162,0.046-0.241,0.08	c-0.547,0.183-1.975,2.82-2.341,3.366c-0.183,0.183-0.363,0.547-0.183,0.73c0,0.183,0.183,0.183,0.367,0.183	c0.363,0.183,0.413,0.259,0.779,0.439c0.183,0,0.363,0.183,0.183,0.367c0,0,0,0.183-0.183,0.183	c-0.914,0.914-1.827,1.644-2.738,2.554c-0.184,0.185-0.306,0.552-0.306,0.731c0,0.183,0.122,0.183,0.122,0.367	s-0.183,0.183-0.367,0.363c-0.363,0.183-0.73,0.367-0.914,0.55c-0.18,0.363,0,0.914-0.18,1.278	c-0.184,0.914-0.734,1.644-1.098,2.558c-0.367,0.547-0.694,1.094-1.062,1.644c0,0.73-0.183,1.278,0.183,1.824	c0.914,1.28,2.742,0.055,4.02,0.602c0.363,0.183,0.676,0.217,0.914,0.547c0.454,0.63,0.509,1.956,0.693,2.506	c0.18,0.73,0.363,1.461,0.73,2.191c0.182,0.906,0.54,1.81,0.725,2.534C37.277,38.243,40,33.442,40,28	C40,22.959,37.663,18.469,34.019,15.536z M27.686,16.286c0.544-0.35,0.908-1.046,1.09-1.569c0.178-0.35,0.726-1.046,0.544-1.569	c-0.142-0.272-0.718-0.435-1.138-0.577C26.846,12.21,25.45,12,24,12c-0.368,0-0.729,0.03-1.09,0.055	c-0.305,0.106-0.567,0.285-0.666,0.571c-0.182,0.871,0.544,0.696,1.269,0.871c0,0,0.182,1.394,0.182,1.569	c0.182,0.871-0.364,1.394-0.364,2.262c0,0.525,0,1.396,0.364,1.744h0.182c0.182,0,0.361-0.175,0.726-0.346	c0.544-0.35,1.09-0.871,1.634-1.222C26.779,17.158,27.322,16.633,27.686,16.286z"/><path fill="#cf1928" d="M24,10C23.448,10.001,23,9.554,23,9.002C23,9.001,23,9.001,23,9V2c0-0.552,0.448-1,1-1s1,0.448,1,1v7	c0.001,0.552-0.446,0.999-0.998,1C24.001,10,24,10,24,10z"/><path fill="#cf1928" d="M18,10C17.448,10.001,17,9.554,17,9.002C17,9.001,17,9.001,17,9V5c0-0.552,0.448-1,1-1s1,0.448,1,1v4	c0.001,0.552-0.446,0.999-0.998,1C18.001,10,18,10,18,10z"/><path fill="#cf1928" d="M30,10C29.448,10.001,29,9.554,29,9.002C29,9.001,29,9.001,29,9V5c0-0.552,0.448-1,1-1s1,0.448,1,1v4	c0.001,0.552-0.446,0.999-0.998,1C30.001,10,30,10,30,10z"/></svg>