<svg xmlns="http://www.w3.org/2000/svg" viewBox="0 0 48 48"><linearGradient id="~8wtjDsiUQh2HKrcHK~qOa" x1="9.858" x2="38.142" y1="9.858" y2="38.142" gradientUnits="userSpaceOnUse"><stop offset="0" stop-color="#a84fcf"/><stop offset="1" stop-color="#7615b5"/></linearGradient><path fill="url(#~8wtjDsiUQh2HKrcHK~qOa)" d="M44,24c0,11.045-8.955,20-20,20S4,35.045,4,24S12.955,4,24,4S44,12.955,44,24z"/><path d="M20.998,37c-0.657,0-1.319-0.215-1.872-0.657c-1.294-1.035-1.503-2.923-0.469-4.217L25.158,24	l-6.501-8.126c-1.035-1.294-0.825-3.182,0.469-4.217c1.295-1.035,3.182-0.824,4.217,0.469l8,10c0.876,1.096,0.876,2.652,0,3.748	l-8,10C22.75,36.615,21.878,37,20.998,37z" opacity=".05"/><path d="M20.998,36.5c-0.548,0-1.099-0.179-1.56-0.548c-1.078-0.863-1.253-2.436-0.39-3.514L25.799,24	l-6.751-8.438c-0.863-1.078-0.688-2.651,0.39-3.514c1.079-0.863,2.651-0.687,3.514,0.39l8,10c0.73,0.913,0.73,2.21,0,3.124l-8,10	C22.458,36.179,21.732,36.5,20.998,36.5z" opacity=".07"/><path fill="#fff" d="M20.999,36c-0.438,0-0.879-0.143-1.248-0.438c-0.862-0.69-1.002-1.948-0.312-2.811l7-8.75l-7-8.75	c-0.69-0.863-0.55-2.121,0.312-2.811c0.863-0.691,2.121-0.55,2.811,0.312l8,10c0.584,0.73,0.584,1.769,0,2.499l-8,10	C22.167,35.743,21.585,36,20.999,36z"/></svg>