<svg xmlns="http://www.w3.org/2000/svg" viewBox="0 0 48 48"><linearGradient id="ii45GaRXaFKETVn3wAbLRa" x1="24" x2="24" y1="-160.708" y2="-168.977" gradientTransform="matrix(1 0 0 -1 0 -154)" gradientUnits="userSpaceOnUse"><stop offset="0" stop-color="#eba600"/><stop offset="1" stop-color="#c28200"/></linearGradient><path fill="url(#ii45GaRXaFKETVn3wAbLRa)" d="M24.414,10.414l-2.536-2.536C21.316,7.316,20.553,7,19.757,7H5C3.895,7,3,7.895,3,9v30	c0,1.105,0.895,2,2,2h38c1.105,0,2-0.895,2-2V13c0-1.105-0.895-2-2-2H25.828C25.298,11,24.789,10.789,24.414,10.414z"/><linearGradient id="ii45GaRXaFKETVn3wAbLRb" x1="24" x2="24" y1="-164.854" y2="-194.983" gradientTransform="matrix(1 0 0 -1 0 -154)" gradientUnits="userSpaceOnUse"><stop offset="0" stop-color="#ffd869"/><stop offset="1" stop-color="#fec52b"/></linearGradient><path fill="url(#ii45GaRXaFKETVn3wAbLRb)" d="M21.586,14.414l3.268-3.268C24.947,11.053,25.074,11,25.207,11H43c1.105,0,2,0.895,2,2v26	c0,1.105-0.895,2-2,2H5c-1.105,0-2-0.895-2-2V15.5C3,15.224,3.224,15,3.5,15h16.672C20.702,15,21.211,14.789,21.586,14.414z"/><linearGradient id="ii45GaRXaFKETVn3wAbLRc" x1="8.015" x2="17.888" y1="27.754" y2="27.754" gradientUnits="userSpaceOnUse"><stop offset="0" stop-color="#912fbd"/><stop offset="1" stop-color="#9332bf"/></linearGradient><path fill="url(#ii45GaRXaFKETVn3wAbLRc)" d="M17.888,24.253l-1.852,7.002h-1.748l-1.162-4.492c-0.061-0.234-0.1-0.496-0.111-0.786h-0.02 c-0.029,0.319-0.072,0.581-0.127,0.786l-1.191,4.492H9.854l-1.84-7.002h1.723l0.986,4.663c0.043,0.198,0.074,0.466,0.094,0.801 h0.029c0.012-0.251,0.061-0.524,0.141-0.82l1.27-4.644h1.689l1.148,4.702c0.041,0.173,0.08,0.423,0.111,0.752h0.02 c0.014-0.257,0.047-0.518,0.104-0.781l0.967-4.673H17.888z"/><linearGradient id="ii45GaRXaFKETVn3wAbLRd" x1="19.064" x2="28.936" y1="27.754" y2="27.754" gradientUnits="userSpaceOnUse"><stop offset="0" stop-color="#912fbd"/><stop offset="1" stop-color="#9332bf"/></linearGradient><path fill="url(#ii45GaRXaFKETVn3wAbLRd)" d="M28.937,24.253l-1.852,7.002h-1.748l-1.162-4.492c-0.061-0.234-0.1-0.496-0.111-0.786h-0.02 c-0.029,0.319-0.072,0.581-0.127,0.786l-1.191,4.492h-1.822l-1.84-7.002h1.723l0.986,4.663c0.043,0.198,0.074,0.466,0.094,0.801 h0.029c0.012-0.251,0.061-0.524,0.141-0.82l1.27-4.644h1.689l1.148,4.702c0.041,0.173,0.08,0.423,0.111,0.752h0.02 c0.014-0.257,0.047-0.518,0.104-0.781l0.967-4.673H28.937z"/><linearGradient id="ii45GaRXaFKETVn3wAbLRe" x1="30.112" x2="39.985" y1="27.754" y2="27.754" gradientUnits="userSpaceOnUse"><stop offset="0" stop-color="#912fbd"/><stop offset="1" stop-color="#9332bf"/></linearGradient><path fill="url(#ii45GaRXaFKETVn3wAbLRe)" d="M39.985,24.253l-1.852,7.002h-1.748l-1.162-4.492c-0.061-0.234-0.1-0.496-0.111-0.786h-0.02 c-0.029,0.319-0.072,0.581-0.127,0.786l-1.191,4.492h-1.822l-1.84-7.002h1.723l0.986,4.663c0.043,0.198,0.074,0.466,0.094,0.801 h0.029c0.012-0.251,0.061-0.524,0.141-0.82l1.27-4.644h1.689l1.148,4.702c0.041,0.173,0.08,0.423,0.111,0.752h0.02 c0.014-0.257,0.047-0.518,0.104-0.781l0.967-4.673H39.985z"/></svg>