<svg xmlns="http://www.w3.org/2000/svg" viewBox="0 0 48 48"><linearGradient id="kL4tWCbQ8KMhNhVLpE2I8a" x1="2" x2="44" y1="14" y2="14" gradientUnits="userSpaceOnUse"><stop offset="0" stop-color="#1d59b3"/><stop offset="1" stop-color="#195bbc"/></linearGradient><path fill="url(#kL4tWCbQ8KMhNhVLpE2I8a)" d="M43,16H3c-0.552,0-1-0.448-1-1v-2c0-0.552,0.448-1,1-1h40c0.552,0,1,0.448,1,1v2	C44,15.552,43.552,16,43,16z"/><linearGradient id="kL4tWCbQ8KMhNhVLpE2I8b" x1="2" x2="44" y1="34" y2="34" gradientUnits="userSpaceOnUse"><stop offset="0" stop-color="#1d59b3"/><stop offset="1" stop-color="#195bbc"/></linearGradient><path fill="url(#kL4tWCbQ8KMhNhVLpE2I8b)" d="M43,36H3c-0.552,0-1-0.448-1-1v-2c0-0.552,0.448-1,1-1h40c0.552,0,1,0.448,1,1v2	C44,35.552,43.552,36,43,36z"/><linearGradient id="kL4tWCbQ8KMhNhVLpE2I8c" x1="28.003" x2="28.003" y1="20.467" y2="20.439" gradientTransform="rotate(-90 28 24.002)" gradientUnits="userSpaceOnUse"><stop offset="0" stop-color="#3079d6"/><stop offset="1" stop-color="#297cd2"/></linearGradient><path fill="url(#kL4tWCbQ8KMhNhVLpE2I8c)" d="M38,43V5l1.789,0.894C41.144,6.572,42,7.957,42,9.472v29.056c0,1.515-0.856,2.9-2.211,3.578	L38,43z"/><linearGradient id="kL4tWCbQ8KMhNhVLpE2I8d" x1="28.003" x2="28.003" y1="16.467" y2="16.439" gradientTransform="rotate(-90 28 24.002)" gradientUnits="userSpaceOnUse"><stop offset="0" stop-color="#42a3f2"/><stop offset="1" stop-color="#42a4eb"/></linearGradient><path fill="url(#kL4tWCbQ8KMhNhVLpE2I8d)" d="M34,38.528V9.472c0-1.515,0.856-2.9,2.211-3.578L38,5v38l-1.789-0.894	C34.856,41.428,34,40.043,34,38.528z"/><linearGradient id="kL4tWCbQ8KMhNhVLpE2I8e" x1="28.003" x2="28.003" y1="10.467" y2="10.44" gradientTransform="rotate(-90 28 24.002)" gradientUnits="userSpaceOnUse"><stop offset="0" stop-color="#3079d6"/><stop offset="1" stop-color="#297cd2"/></linearGradient><path fill="url(#kL4tWCbQ8KMhNhVLpE2I8e)" d="M28,43V5l1.789,0.894C31.144,6.572,32,7.957,32,9.472v29.056c0,1.515-0.856,2.9-2.211,3.578	L28,43z"/><linearGradient id="kL4tWCbQ8KMhNhVLpE2I8f" x1="28.003" x2="28.003" y1="6.467" y2="6.439" gradientTransform="rotate(-90 28 24.002)" gradientUnits="userSpaceOnUse"><stop offset="0" stop-color="#42a3f2"/><stop offset="1" stop-color="#42a4eb"/></linearGradient><path fill="url(#kL4tWCbQ8KMhNhVLpE2I8f)" d="M24,38.528V9.472c0-1.515,0.856-2.9,2.211-3.578L28,5v38l-1.789-0.894	C24.856,41.428,24,40.043,24,38.528z"/><linearGradient id="kL4tWCbQ8KMhNhVLpE2I8g" x1="28.003" x2="28.003" y1=".467" y2=".44" gradientTransform="rotate(-90 28 24.002)" gradientUnits="userSpaceOnUse"><stop offset="0" stop-color="#3079d6"/><stop offset="1" stop-color="#297cd2"/></linearGradient><path fill="url(#kL4tWCbQ8KMhNhVLpE2I8g)" d="M18,43V5l1.789,0.894C21.144,6.572,22,7.957,22,9.472v29.056c0,1.515-0.856,2.9-2.211,3.578	L18,43z"/><linearGradient id="kL4tWCbQ8KMhNhVLpE2I8h" x1="28.003" x2="28.003" y1="-3.533" y2="-3.561" gradientTransform="rotate(-90 28 24.002)" gradientUnits="userSpaceOnUse"><stop offset="0" stop-color="#42a3f2"/><stop offset="1" stop-color="#42a4eb"/></linearGradient><path fill="url(#kL4tWCbQ8KMhNhVLpE2I8h)" d="M14,38.528V9.472c0-1.515,0.856-2.9,2.211-3.578L18,5v38l-1.789-0.894	C14.856,41.428,14,40.043,14,38.528z"/><linearGradient id="kL4tWCbQ8KMhNhVLpE2I8i" x1="28.003" x2="28.003" y1="-9.533" y2="-9.56" gradientTransform="rotate(-90 28 24.002)" gradientUnits="userSpaceOnUse"><stop offset="0" stop-color="#3079d6"/><stop offset="1" stop-color="#297cd2"/></linearGradient><path fill="url(#kL4tWCbQ8KMhNhVLpE2I8i)" d="M8,43V5l1.789,0.894C11.144,6.572,12,7.957,12,9.472v29.056c0,1.515-0.856,2.9-2.211,3.578	L8,43z"/><linearGradient id="kL4tWCbQ8KMhNhVLpE2I8j" x1="28.003" x2="28.003" y1="-13.533" y2="-13.56" gradientTransform="rotate(-90 28 24.002)" gradientUnits="userSpaceOnUse"><stop offset="0" stop-color="#42a3f2"/><stop offset="1" stop-color="#42a4eb"/></linearGradient><path fill="url(#kL4tWCbQ8KMhNhVLpE2I8j)" d="M4,38.528V9.472c0-1.515,0.856-2.9,2.211-3.578L8,5v38l-1.789-0.894	C4.856,41.428,4,40.043,4,38.528z"/></svg>