<svg xmlns="http://www.w3.org/2000/svg" viewBox="0 0 48 48"><linearGradient id="MrdcPypitvSzXBpX1YEtVa" x1="37.75" x2="28.352" y1="41" y2="41" gradientUnits="userSpaceOnUse"><stop offset="0" stop-color="#d4943b"/><stop offset="1" stop-color="#c2620e"/><stop offset="1" stop-color="#c2620e"/></linearGradient><path fill="url(#MrdcPypitvSzXBpX1YEtVa)" d="M33.616,39.882L24,39v4h10.999c0.683,0,1.165-0.669,0.949-1.316l0,0	C35.608,40.665,34.687,39.953,33.616,39.882z"/><linearGradient id="MrdcPypitvSzXBpX1YEtVb" x1="16.002" x2="16.002" y1=".118" y2="14.152" gradientUnits="userSpaceOnUse"><stop offset="0" stop-color="#d4943b"/><stop offset="1" stop-color="#c2620e"/><stop offset="1" stop-color="#c2620e"/></linearGradient><path fill="url(#MrdcPypitvSzXBpX1YEtVb)" d="M22.95,26.53c1.86,1.71,3.03,4.16,3.05,6.89c0.04,5.07-4.11,9.41-9.18,9.57	C11.42,43.17,7,38.86,7,33.5c0-2.53,0.99-4.84,2.61-6.54h0.01c0.695-0.736,1.507-1.365,2.405-1.841	c1.207-0.641,2.036-1.889,1.976-3.255c-0.01-0.218-0.03-0.436-0.061-0.654c-0.09-0.55-0.26-1.07-0.52-1.55	c-0.69-1.3-1.93-2.27-3.4-2.56c-1.597-0.318-3.105,0.128-4.209,1.047c-0.442,0.367-0.821,0.159-0.807-0.415	C5.12,12.947,8.205,8.713,12.87,7.43c0.94-0.26,1.88-0.4,2.79-0.42C21.9,6.82,27,11.8,27,18C27,21.44,25.42,24.51,22.95,26.53z"/><linearGradient id="MrdcPypitvSzXBpX1YEtVc" x1="24" x2="24" y1="8.647" y2="42.966" gradientUnits="userSpaceOnUse"><stop offset="0" stop-color="#d4943b"/><stop offset="1" stop-color="#c2620e"/><stop offset="1" stop-color="#c2620e"/></linearGradient><path fill="url(#MrdcPypitvSzXBpX1YEtVc)" d="M34,33c0,5.44-4.34,9.86-9.75,10H24c-5.52,0-10-4.48-10-10c0-5.52,4.48-10,10-10	c1.9,0,3.68,0.53,5.19,1.46c1.19,0.72,2.22,1.68,3.01,2.82c0.12,0.17,0.24,0.35,0.34,0.53c0.73,1.18,1.21,2.52,1.38,3.96	C33.97,32.17,34,32.58,34,33z"/><linearGradient id="MrdcPypitvSzXBpX1YEtVd" x1="30.5" x2="30.5" y1="8.647" y2="42.966" gradientUnits="userSpaceOnUse"><stop offset="0" stop-color="#d4943b"/><stop offset="1" stop-color="#c2620e"/><stop offset="1" stop-color="#c2620e"/></linearGradient><path fill="url(#MrdcPypitvSzXBpX1YEtVd)" d="M37,17.5v10l-4-0.18l-0.8-0.04l-4.18-0.19L26,27l-2-4c2,0,5,0,5-3v-2.5H37z"/><linearGradient id="MrdcPypitvSzXBpX1YEtVe" x1="32.5" x2="32.5" y1="8.647" y2="42.966" gradientUnits="userSpaceOnUse"><stop offset="0" stop-color="#d4943b"/><stop offset="1" stop-color="#c2620e"/><stop offset="1" stop-color="#c2620e"/></linearGradient><path fill="url(#MrdcPypitvSzXBpX1YEtVe)" d="M37,27.5c0,1.99-1.29,3.68-3.08,4.27C33.47,31.92,33,32,32.5,32c-0.89,0-1.71-0.25-2.41-0.7	C28.83,30.5,28,29.1,28,27.5c0-0.14,0.01-0.27,0.02-0.41c0.09-1.01,0.51-1.93,1.17-2.63c0.82-0.9,2-1.46,3.31-1.46	c0.53,0,1.03,0.09,1.5,0.26C35.75,23.87,37,25.54,37,27.5z"/><linearGradient id="MrdcPypitvSzXBpX1YEtVf" x1="30.625" x2="30.625" y1="16.588" y2="46.647" gradientUnits="userSpaceOnUse"><stop offset="0" stop-color="#ffda94"/><stop offset="1" stop-color="#fff0ce"/></linearGradient><path fill="url(#MrdcPypitvSzXBpX1YEtVf)" d="M37,17.5v10c0,1.99-1.29,3.68-3.08,4.27C33.97,32.17,34,32.58,34,33c0,5.44-4.34,9.86-9.75,10	c3.57-1.85,6-5.58,6-9.88c0-0.62-0.05-1.23-0.16-1.82c-0.026-0.171-0.056-0.341-0.09-0.509c-0.197-0.957,0.344-1.899,1.256-2.247	c0.465-0.177,0.932-0.416,1.284-0.734c0.17-0.15,0.33-0.31,0.46-0.49c0.63-0.77,1-1.75,1-2.82v-7H37z"/><linearGradient id="MrdcPypitvSzXBpX1YEtVg" x1="36" x2="36" y1="7.647" y2="41.966" gradientUnits="userSpaceOnUse"><stop offset="0" stop-color="#d4943b"/><stop offset="1" stop-color="#c2620e"/><stop offset="1" stop-color="#c2620e"/></linearGradient><path fill="url(#MrdcPypitvSzXBpX1YEtVg)" d="M39,33c-0.552,0-1-0.447-1-1c0-0.394-0.222-0.863-0.396-1.161l-2.67-0.891	c-0.193-0.063-0.361-0.186-0.483-0.349l-2.25-3c-0.332-0.441-0.242-1.068,0.2-1.399c0.443-0.331,1.07-0.241,1.4,0.2l2.063,2.75	l2.704,0.901c0.193,0.063,0.361,0.186,0.483,0.349C39.147,29.529,40,30.704,40,32C40,32.553,39.552,33,39,33z"/><linearGradient id="MrdcPypitvSzXBpX1YEtVh" x1="11.002" x2="11.002" y1="22.118" y2="3.871" gradientUnits="userSpaceOnUse"><stop offset="0" stop-color="#ffda94"/><stop offset="1" stop-color="#fff0ce"/></linearGradient><path fill="url(#MrdcPypitvSzXBpX1YEtVh)" d="M17,12c0,3.08-1.39,5.83-3.58,7.66c-0.69-1.3-1.93-2.27-3.4-2.56	c-1.597-0.318-3.105,0.128-4.209,1.047c-0.442,0.367-0.821,0.159-0.807-0.415C5.12,12.947,8.205,8.713,12.87,7.43	c0.94-0.26,1.88-0.4,2.79-0.42C16.51,8.48,17,10.18,17,12z"/><linearGradient id="MrdcPypitvSzXBpX1YEtVi" x1="31" x2="31" y1="4.529" y2="12.883" gradientUnits="userSpaceOnUse"><stop offset="0" stop-color="#d4943b"/><stop offset="1" stop-color="#c2620e"/><stop offset="1" stop-color="#c2620e"/></linearGradient><path fill="url(#MrdcPypitvSzXBpX1YEtVi)" d="M31,7c0,0-2,2-2,5v3h4v-3C33,9,31,7,31,7z"/><linearGradient id="MrdcPypitvSzXBpX1YEtVj" x1="35.515" x2="35.515" y1="7.353" y2="24.476" gradientUnits="userSpaceOnUse"><stop offset="0" stop-color="#d4943b"/><stop offset="1" stop-color="#c2620e"/><stop offset="1" stop-color="#c2620e"/></linearGradient><path fill="url(#MrdcPypitvSzXBpX1YEtVj)" d="M38.467,20.225l-6.222,0.509C30.497,20.877,29,19.498,29,17.744V15c0-1.657,1.343-3,3-3h2.82	c0.77,0,1.524,0.222,2.171,0.641l4.593,2.969c0.352,0.234,0.518,0.665,0.415,1.075l-0.171,0.684	C41.436,18.942,40.084,20.091,38.467,20.225z"/><circle cx="36" cy="16" r="1" fill="#5c2415"/></svg>