<svg xmlns="http://www.w3.org/2000/svg" viewBox="0 0 48 48"><path fill="#0a8645" d="M25.632,12.081C15.513,11.079,7.079,19.513,8.081,29.632c0.741,7.488,6.798,13.545,14.287,14.287 c10.119,1.002,18.553-7.432,17.551-17.551C39.178,18.879,33.121,12.822,25.632,12.081z"/><path fill="#149752" d="M35.888,38.674l-0.635-0.475c-0.355-0.266-0.843-0.267-1.199,0.001l-2.069,1.55l-2.068-1.55 c-0.355-0.268-0.844-0.268-1.2,0l-2.067,1.55l-2.065-1.55c-0.355-0.268-0.845-0.266-1.201,0l-2.06,1.549L19.259,38.2 c-0.355-0.268-0.845-0.268-1.2,0l-2.065,1.55L13.93,38.2c-0.356-0.267-0.845-0.269-1.201,0l-0.622,0.467 c1.179,1.312,2.566,2.429,4.112,3.297c0.132-0.031,0.261-0.079,0.374-0.164l2.065-1.55l2.066,1.55c0.178,0.134,0.389,0.2,0.6,0.2 c0.211,0,0.423-0.067,0.601-0.2l2.06-1.549L26.05,41.8c0.355,0.268,0.844,0.268,1.2,0l2.067-1.55l2.068,1.55 c0.115,0.087,0.246,0.135,0.381,0.166C33.32,41.1,34.709,39.987,35.888,38.674z"/><path fill="#149752" d="M15.393,16.8c0.356,0.268,0.845,0.268,1.201,0l2.065-1.55l2.066,1.55 c0.178,0.134,0.389,0.2,0.6,0.2c0.211,0,0.423-0.067,0.601-0.2l2.06-1.549L26.05,16.8c0.355,0.268,0.844,0.268,1.2,0l2.067-1.55 l2.068,1.55c0.355,0.268,0.844,0.268,1.199,0l1.547-1.159c-0.54-0.444-1.11-0.85-1.705-1.222l-0.442,0.331l-2.068-1.55 c-0.355-0.268-0.844-0.268-1.2,0l-2.067,1.55l-2.065-1.55c-0.355-0.268-0.845-0.266-1.201,0l-2.06,1.549L19.259,13.2 c-0.355-0.268-0.845-0.268-1.2,0l-2.065,1.55l-0.439-0.33c-0.595,0.371-1.165,0.777-1.704,1.221L15.393,16.8z"/><path fill="#149752" d="M37.327,34.751l-2.074-1.552c-0.355-0.266-0.843-0.267-1.199,0.001l-2.069,1.55l-2.068-1.55 c-0.355-0.268-0.844-0.268-1.2,0l-2.067,1.55l-2.065-1.55c-0.355-0.268-0.845-0.266-1.201,0l-2.06,1.549L19.259,33.2 c-0.355-0.268-0.845-0.268-1.2,0l-2.065,1.55L13.93,33.2c-0.356-0.267-0.845-0.269-1.201,0l-2.065,1.55L8.97,33.478 c0.457,1.247,1.069,2.421,1.81,3.504c0.171-0.02,0.339-0.073,0.484-0.182l2.066-1.55l2.063,1.55c0.356,0.268,0.845,0.268,1.201,0 l2.065-1.55l2.066,1.55c0.178,0.134,0.389,0.2,0.6,0.2c0.211,0,0.423-0.067,0.601-0.2l2.06-1.549L26.05,36.8 c0.355,0.268,0.844,0.268,1.2,0l2.067-1.55l2.068,1.55c0.355,0.268,0.844,0.268,1.199,0l2.069-1.551l2.073,1.552 c0.148,0.11,0.319,0.164,0.493,0.182c0.739-1.086,1.359-2.257,1.816-3.512L37.327,34.751z"/><path fill="#149752" d="M39.989,28.017c-0.205,0.002-0.411,0.049-0.588,0.182l-2.074,1.552l-2.074-1.552 c-0.355-0.266-0.843-0.267-1.199,0.001l-2.069,1.55l-2.068-1.55c-0.355-0.268-0.844-0.268-1.2,0l-2.067,1.55l-2.065-1.55 c-0.355-0.268-0.845-0.266-1.201,0l-2.06,1.549L19.259,28.2c-0.355-0.268-0.845-0.268-1.2,0l-2.065,1.55L13.93,28.2 c-0.356-0.267-0.845-0.269-1.201,0l-2.065,1.55L8.601,28.2c-0.177-0.132-0.383-0.18-0.588-0.182c0,0.533,0.014,1.07,0.068,1.614 c0.025,0.257,0.072,0.508,0.11,0.762l1.871,1.405c0.355,0.268,0.845,0.268,1.201,0l2.066-1.55l2.063,1.55 c0.356,0.268,0.845,0.268,1.201,0l2.065-1.55l2.066,1.55c0.178,0.134,0.389,0.2,0.6,0.2c0.211,0,0.423-0.067,0.601-0.2l2.06-1.549 L26.05,31.8c0.355,0.268,0.844,0.268,1.2,0l2.067-1.55l2.068,1.55c0.355,0.268,0.844,0.268,1.199,0l2.069-1.551l2.073,1.552 c0.355,0.266,0.843,0.266,1.198,0l1.88-1.407C39.923,29.618,39.988,28.826,39.989,28.017z"/><path fill="#149752" d="M31.986,19.75l-2.068-1.55c-0.355-0.268-0.844-0.268-1.2,0l-2.067,1.55l-2.065-1.55 c-0.355-0.268-0.845-0.266-1.201,0l-2.06,1.549L19.259,18.2c-0.355-0.268-0.845-0.268-1.2,0l-2.065,1.55L13.93,18.2 c-0.356-0.267-0.845-0.269-1.201,0l-2.065,1.55l-0.249-0.187c-0.356,0.572-0.668,1.171-0.95,1.788l0.598,0.449 c0.355,0.268,0.845,0.268,1.201,0l2.066-1.55l2.063,1.55c0.356,0.268,0.845,0.268,1.201,0l2.065-1.55l2.066,1.55 c0.178,0.134,0.389,0.2,0.6,0.2c0.211,0,0.423-0.067,0.601-0.2l2.06-1.549L26.05,21.8c0.355,0.268,0.844,0.268,1.2,0l2.067-1.55 l2.068,1.55c0.355,0.268,0.844,0.268,1.199,0l2.069-1.551l2.073,1.552c0.355,0.266,0.843,0.266,1.198,0l0.613-0.459 c-0.284-0.615-0.606-1.207-0.963-1.777l-0.249,0.187l-2.074-1.552c-0.355-0.266-0.843-0.267-1.199,0.001L31.986,19.75z"/><path fill="#149752" d="M37.327,24.751l-2.074-1.552c-0.355-0.266-0.843-0.267-1.199,0.001l-2.069,1.55l-2.068-1.55 c-0.355-0.268-0.844-0.268-1.2,0l-2.067,1.55l-2.065-1.55c-0.355-0.268-0.845-0.266-1.201,0l-2.06,1.549L19.259,23.2 c-0.355-0.268-0.845-0.268-1.2,0l-2.065,1.55L13.93,23.2c-0.356-0.267-0.845-0.269-1.201,0l-2.065,1.55l-1.935-1.454 c-0.213,0.691-0.383,1.398-0.501,2.126l1.835,1.378c0.355,0.268,0.845,0.268,1.201,0l2.066-1.55l2.063,1.55 c0.356,0.268,0.845,0.268,1.201,0l2.065-1.55l2.066,1.55c0.178,0.134,0.389,0.2,0.6,0.2c0.211,0,0.423-0.067,0.601-0.2l2.06-1.549 L26.05,26.8c0.355,0.268,0.844,0.268,1.2,0l2.067-1.55l2.068,1.55c0.355,0.268,0.844,0.268,1.199,0l2.069-1.551l2.073,1.552 c0.355,0.266,0.843,0.266,1.198,0l1.855-1.388c-0.118-0.726-0.283-1.435-0.497-2.126L37.327,24.751z"/><linearGradient id="O~j7ddEEhphj2yZchyNuAa" x1="12.97" x2="13.839" y1="-2026.982" y2="-2037.678" gradientTransform="matrix(1 0 0 -1 0 -2020.001)" gradientUnits="userSpaceOnUse"><stop offset="0" stop-color="#21ad64"/><stop offset="1" stop-color="#088242"/></linearGradient><path fill="url(#O~j7ddEEhphj2yZchyNuAa)" d="M14.265,6.038c-4.743-0.47-8.697,3.484-8.227,8.227c0.348,3.51,3.187,6.349,6.697,6.697 c4.743,0.47,8.697-3.484,8.227-8.227C20.614,9.225,17.775,6.386,14.265,6.038z"/><linearGradient id="O~j7ddEEhphj2yZchyNuAb" x1="13.111" x2="13.749" y1="-2028.72" y2="-2036.565" gradientTransform="matrix(1 0 0 -1 0 -2020.001)" gradientUnits="userSpaceOnUse"><stop offset="0" stop-color="#dedede"/><stop offset="1" stop-color="#d6d6d6"/></linearGradient><path fill="url(#O~j7ddEEhphj2yZchyNuAb)" d="M14.061,8.028c-3.479-0.344-6.378,2.555-6.033,6.033c0.255,2.574,2.337,4.656,4.911,4.911 c3.479,0.344,6.378-2.555,6.033-6.033C18.717,10.365,16.635,8.283,14.061,8.028z"/><linearGradient id="O~j7ddEEhphj2yZchyNuAc" x1="33.97" x2="34.84" y1="-2026.982" y2="-2037.678" gradientTransform="matrix(1 0 0 -1 0 -2020.001)" gradientUnits="userSpaceOnUse"><stop offset="0" stop-color="#21ad64"/><stop offset="1" stop-color="#088242"/></linearGradient><path fill="url(#O~j7ddEEhphj2yZchyNuAc)" d="M35.265,6.038c-4.743-0.47-8.697,3.484-8.227,8.227c0.348,3.51,3.187,6.349,6.697,6.697 c4.743,0.47,8.697-3.484,8.227-8.227C41.614,9.225,38.775,6.386,35.265,6.038z"/><linearGradient id="O~j7ddEEhphj2yZchyNuAd" x1="34.111" x2="34.749" y1="-2028.72" y2="-2036.565" gradientTransform="matrix(1 0 0 -1 0 -2020.001)" gradientUnits="userSpaceOnUse"><stop offset="0" stop-color="#dedede"/><stop offset="1" stop-color="#d6d6d6"/></linearGradient><path fill="url(#O~j7ddEEhphj2yZchyNuAd)" d="M35.061,8.028c-3.479-0.344-6.378,2.555-6.033,6.033c0.255,2.574,2.337,4.656,4.911,4.911 c3.479,0.344,6.378-2.555,6.033-6.033C39.717,10.365,37.635,8.283,35.061,8.028z"/><linearGradient id="O~j7ddEEhphj2yZchyNuAe" x1="13.729" x2="14.368" y1="11.325" y2="15.275" gradientUnits="userSpaceOnUse"><stop offset="0" stop-color="#4b4b4b"/><stop offset=".531" stop-color="#393939"/><stop offset="1" stop-color="#252525"/></linearGradient><circle cx="14" cy="13" r="2" fill="url(#O~j7ddEEhphj2yZchyNuAe)"/><linearGradient id="O~j7ddEEhphj2yZchyNuAf" x1="33.729" x2="34.368" y1="11.325" y2="15.275" gradientUnits="userSpaceOnUse"><stop offset="0" stop-color="#4b4b4b"/><stop offset=".531" stop-color="#393939"/><stop offset="1" stop-color="#252525"/></linearGradient><circle cx="34" cy="13" r="2" fill="url(#O~j7ddEEhphj2yZchyNuAf)"/><linearGradient id="O~j7ddEEhphj2yZchyNuAg" x1="24" x2="24" y1="25.468" y2="36.773" gradientUnits="userSpaceOnUse"><stop offset="0" stop-color="#4b4b4b"/><stop offset=".531" stop-color="#393939"/><stop offset="1" stop-color="#252525"/></linearGradient><path fill="url(#O~j7ddEEhphj2yZchyNuAg)" d="M24,39c-6.065,0-11-4.935-11-11c0-0.553,0.448-1,1-1s1,0.447,1,1c0,4.963,4.038,9,9,9 s9-4.037,9-9c0-0.553,0.448-1,1-1s1,0.447,1,1C35,34.065,30.065,39,24,39z"/></svg>