<svg xmlns="http://www.w3.org/2000/svg" viewBox="0 0 48 48"><linearGradient id="oTAslo7V2ecbL6YKZKYXsa" x1="9.823" x2="36.377" y1="6.052" y2="39.669" gradientUnits="userSpaceOnUse"><stop offset="0" stop-color="#fed100"/><stop offset="1" stop-color="#e36001"/></linearGradient><circle cx="24" cy="24" r="20" fill="url(#oTAslo7V2ecbL6YKZKYXsa)"/><path d="M28.979,38c-0.784,0-1.517-0.302-2.065-0.85L24,34.235l-2.915,2.915	c-0.523,0.524-1.328,0.85-2.1,0.85c-0.83,0-1.536-0.286-2.1-0.85c-1.136-1.276-1.127-3.072,0-4.2l2.527-2.528	c-0.817-0.308-1.634-0.712-2.438-1.207c-0.672-0.403-1.146-1.053-1.331-1.827c-0.182-0.764-0.058-1.557,0.348-2.232	c0.534-0.89,1.477-1.421,2.522-1.421c0.542,0,1.075,0.148,1.542,0.429c1.173,0.728,2.534,1.111,3.942,1.111s2.767-0.381,3.93-1.103	c0.478-0.287,1.013-0.437,1.555-0.437c1.045,0,1.988,0.531,2.522,1.421c0.406,0.675,0.529,1.468,0.348,2.232	c-0.184,0.774-0.66,1.425-1.34,1.833c-0.727,0.485-1.552,0.901-2.412,1.217l2.511,2.511c1.137,1.275,1.128,3.072,0,4.2	C30.493,37.705,29.742,38,28.979,38z M24,25c-4.206,0-7.5-3.294-7.5-7.5S19.794,10,24,10s7.5,3.294,7.5,7.5S28.206,25,24,25z M24,15.714c-1.035,0-1.786,0.751-1.786,1.786s0.751,1.786,1.786,1.786s1.786-0.751,1.786-1.786S25.035,15.714,24,15.714z" opacity=".05"/><path d="M18.986,37.5c-0.692,0-1.28-0.237-1.747-0.704c-0.946-1.063-0.937-2.556,0-3.493l3.096-3.096	c-1.035-0.313-2.073-0.788-3.097-1.417c-0.559-0.335-0.954-0.875-1.106-1.517c-0.151-0.635-0.048-1.295,0.29-1.859	c0.443-0.738,1.226-1.179,2.094-1.179c0.451,0,0.896,0.124,1.285,0.357c1.249,0.775,2.698,1.182,4.2,1.182s2.951-0.407,4.193-1.178	c0.396-0.238,0.84-0.361,1.292-0.361c0.868,0,1.651,0.441,2.094,1.179c0.338,0.563,0.441,1.224,0.29,1.859	c-0.153,0.642-0.547,1.182-1.111,1.52c-0.931,0.621-1.986,1.108-3.083,1.424l3.086,3.086c0.946,1.063,0.938,2.555,0,3.493	c-0.517,0.461-1.143,0.704-1.781,0.704c-0.65,0-1.258-0.25-1.711-0.704L24,33.528l-3.268,3.268	C20.299,37.23,19.629,37.5,18.986,37.5z M24,24.5c-3.925,0-7-3.075-7-7s3.075-7,7-7s7,3.075,7,7S27.925,24.5,24,24.5z M24,15.214	c-1.303,0-2.286,0.982-2.286,2.286s0.982,2.286,2.286,2.286s2.286-0.982,2.286-2.286S25.303,15.214,24,15.214z" opacity=".07"/><path fill="#fff" d="M26.693,29.943c1.393-0.279,2.693-0.836,3.807-1.579c0.929-0.557,1.207-1.764,0.65-2.693	s-1.764-1.207-2.693-0.65c-2.693,1.671-6.221,1.671-8.914,0c-0.929-0.557-2.136-0.279-2.693,0.65	c-0.557,0.929-0.279,2.136,0.65,2.693c1.207,0.743,2.507,1.3,3.807,1.579l-3.714,3.714c-0.743,0.743-0.743,1.95,0,2.786	C17.964,36.814,18.429,37,18.986,37c0.464,0,1.021-0.186,1.393-0.557L24,32.821l3.621,3.621c0.743,0.743,1.95,0.743,2.786,0	c0.743-0.743,0.743-1.95,0-2.786L26.693,29.943z M24,11c-3.621,0-6.5,2.879-6.5,6.5S20.379,24,24,24s6.5-2.879,6.5-6.5	S27.621,11,24,11z M24,20.286c-1.579,0-2.786-1.207-2.786-2.786s1.207-2.786,2.786-2.786c1.579,0,2.786,1.207,2.786,2.786	S25.579,20.286,24,20.286z"/></svg>