<svg xmlns="http://www.w3.org/2000/svg" viewBox="0 0 48 48"><polygon fill="#4ddb63" points="25,38 9,41 3,21 9,21 6,10 41,4 39,21 45,21 43,36 25,44"/><path fill="#fff" d="M12.058,16.157l1.623,6.319h2.125l0.967-3.367l0.984,3.367h2.159l1.967-7.048l-2,0.143l-1.107,4.281 l-1.037-4.128l-1.842,0.132l-0.972,3.961l-0.946-3.825L12.058,16.157z M22.401,15.391v7.292l5.406,0.259v-1.951l-3.437-0.052 v-0.898h3.04v-2.107l-2.988,0.104v-0.864l3.385-0.189V15L22.401,15.391z M33.629,18.864c0.49-0.018,0.944-0.233,1.264-0.556 c0.347-0.35,0.561-0.834,0.561-1.364c0-1.283-1.033-2.315-2.288-2.315c-0.071,0-0.134,0-0.205,0.009l-4.327,0.359v7.949h5.013 c2.142-0.958,2.117-2.693,1.273-3.544C34.591,19.07,34.128,18.864,33.629,18.864z M30.762,16.657l1.416-0.063h0.036 c0.347,0,0.632,0.287,0.632,0.637c0,0.359-0.285,0.646-0.641,0.646h-1.442V16.657z M32.427,21.179h-1.665v-1.184l1.647-0.063 c0.009,0,0.009,0,0.018,0c0.338,0,0.623,0.278,0.623,0.628C33.05,20.901,32.774,21.179,32.427,21.179z M9.246,24.076v2.13h2.487 v6.385l2.365-0.131v-6.121h2.21v-2.13L9.246,24.076z M33.08,31.351v-6.797l1.952,0.01l2.186,3.389v-3.309h2.054l-0.156,6.42 l-1.743,0.105l-2.162-3.216v3.338L33.08,31.351z M28.885,24.364c-1.983,0-3.589,1.66-3.589,3.723c0,2.055,1.606,3.723,3.589,3.723 c1.974,0,3.58-1.669,3.58-3.723C32.465,26.024,30.859,24.364,28.885,24.364z M28.93,29.89c-0.861,0-1.561-0.79-1.561-1.758 c0-0.978,0.7-1.767,1.561-1.767c0.861,0,1.561,0.79,1.561,1.767C30.491,29.101,29.791,29.89,28.93,29.89z M20.559,24.157 c-2.261,0-4.1,1.821-4.1,4.073c0,2.243,1.839,4.073,4.1,4.073s4.091-1.83,4.091-4.073C24.65,25.979,22.82,24.157,20.559,24.157z M20.667,30.213c-0.969,0-1.75-0.879-1.75-1.956c0-1.068,0.781-1.947,1.75-1.947s1.75,0.879,1.75,1.947 C22.416,29.334,21.636,30.213,20.667,30.213z"/><path d="M33.166,14.629c1.255,0,2.288,1.032,2.288,2.315c0,0.529-0.214,1.014-0.561,1.364 c-0.321,0.323-0.775,0.538-1.264,0.556c0.499,0,0.962,0.206,1.291,0.538c0.844,0.851,0.869,2.586-1.273,3.544h-5.013v-7.949 l4.327-0.359C33.033,14.629,33.095,14.629,33.166,14.629 M30.762,17.877h1.442c0.356,0,0.641-0.287,0.641-0.646 c0-0.35-0.285-0.637-0.632-0.637h-0.036l-1.416,0.063V17.877 M30.762,21.179h1.665c0.347,0,0.623-0.278,0.623-0.619 c0-0.35-0.285-0.628-0.623-0.628c-0.009,0-0.009,0-0.018,0l-1.647,0.063V21.179 M27.807,15v1.985l-3.385,0.189v0.864l2.988-0.104 v2.107h-3.04v0.898l3.437,0.052v1.951l-5.406-0.259v-7.292L27.807,15 M21.882,15.428l-1.967,7.048h-2.159l-0.984-3.367 l-0.967,3.367h-2.125l-1.623-6.319l1.921-0.165l0.946,3.825l0.972-3.961l1.842-0.132l1.037,4.128l1.107-4.281L21.882,15.428 M9.246,24.076l7.062,0.134v2.13h-2.21v6.121l-2.365,0.131v-6.385H9.246V24.076 M20.559,24.157c2.261,0,4.091,1.821,4.091,4.073 c0,2.243-1.83,4.073-4.091,4.073c-2.261,0-4.1-1.83-4.1-4.073C16.459,25.979,18.298,24.157,20.559,24.157 M20.667,30.213 c0.969,0,1.75-0.879,1.75-1.956c0-1.068-0.781-1.947-1.75-1.947c-0.969,0-1.75,0.879-1.75,1.947 C18.917,29.334,19.698,30.213,20.667,30.213 M28.885,24.364c1.974,0,3.58,1.66,3.58,3.723c0,2.055-1.606,3.723-3.58,3.723 c-1.983,0-3.589-1.669-3.589-3.723C25.296,26.024,26.902,24.364,28.885,24.364 M28.93,29.89c0.861,0,1.561-0.79,1.561-1.758 c0-0.978-0.7-1.767-1.561-1.767c-0.861,0-1.561,0.79-1.561,1.767C27.369,29.101,28.069,29.89,28.93,29.89 M33.08,24.554l1.952,0.01 l2.186,3.389v-3.309h2.054l-0.156,6.42l-1.743,0.105l-2.162-3.216v3.338l-2.131,0.061V24.554 M33.166,13.629 c-0.115,0-0.215,0.002-0.33,0.017l-4.03,0.333v-0.055l-1.072,0.078l-5.131,0.371l-0.793,0.057l-2,0.143l-0.717,0.051l-0.18,0.696 l-0.125,0.483l-0.081-0.323l-0.204-0.814l-0.837,0.06l-1.842,0.132l-0.726,0.052l-0.173,0.707l-0.004,0.017l-0.176-0.712 l-0.851,0.073l-1.921,0.165l-1.177,0.101l0.294,1.144l1.623,6.319l0.107,0.418l-3.555-0.067l-1.019-0.019v1.019v2.13v1h1h1.487 v5.385v1.057l1.055-0.058l2.365-0.131l0.945-0.052V32.46v-5.121h0.44c-0.052,0.289-0.079,0.587-0.079,0.891 c0,2.797,2.288,5.073,5.1,5.073c1.928,0,3.61-1.074,4.474-2.653c0.819,1.299,2.24,2.159,3.852,2.159 c1.242,0,2.369-0.512,3.195-1.343v0.912l1.029-0.029l2.131-0.061l0.971-0.028V31.29v-0.058l0.332,0.494l0.319,0.475l0.571-0.034 l1.743-0.105l0.917-0.055l0.022-0.919l0.156-6.42l0.025-1.024h-1.025h-2.054h-1v0.914l-0.346-0.536l-0.294-0.455l-0.542-0.003 l-0.406-0.002c1.295-0.769,1.668-1.767,1.774-2.334c0.16-0.858-0.08-1.737-0.644-2.388c0.449-0.529,0.693-1.194,0.693-1.896 C36.455,15.116,34.979,13.629,33.166,13.629L33.166,13.629z M20.762,23.161l0.116-0.417l0.523-1.874v1.812v0.543 C21.192,23.192,20.979,23.17,20.762,23.161L20.762,23.161z M16.633,23.215l0.133-0.463l0.014-0.05l0.016,0.055l0.136,0.464 L16.633,23.215L16.633,23.215z M17.308,23.476h0.449h1.023c-0.54,0.201-1.036,0.489-1.472,0.849v-0.116V23.476L17.308,23.476z M24.948,25.662c-0.493-0.833-1.218-1.515-2.087-1.956l3.912,0.188C26.018,24.299,25.385,24.913,24.948,25.662L24.948,25.662z M31.087,23.946h0.994v0.608v0.152C31.785,24.409,31.451,24.153,31.087,23.946L31.087,23.946z M20.667,29.213 c-0.406,0-0.75-0.438-0.75-0.956c0-0.513,0.343-0.947,0.75-0.947s0.75,0.434,0.75,0.947C21.416,28.776,21.073,29.213,20.667,29.213 L20.667,29.213z M28.93,28.89c-0.304,0-0.561-0.347-0.561-0.758c0-0.416,0.257-0.767,0.561-0.767c0.304,0,0.561,0.351,0.561,0.767 C29.491,28.543,29.234,28.89,28.93,28.89L28.93,28.89z" opacity=".05"/><path d="M33.166,14.629c1.255,0,2.288,1.032,2.288,2.315c0,0.529-0.214,1.014-0.561,1.364 c-0.321,0.323-0.775,0.538-1.264,0.556c0.499,0,0.962,0.206,1.291,0.538c0.844,0.851,0.869,2.586-1.273,3.544h-5.013v-7.949 l4.327-0.359C33.033,14.629,33.095,14.629,33.166,14.629 M30.762,17.877h1.442c0.356,0,0.641-0.287,0.641-0.646 c0-0.35-0.285-0.637-0.632-0.637h-0.036l-1.416,0.063V17.877 M30.762,21.179h1.665c0.347,0,0.623-0.278,0.623-0.619 c0-0.35-0.285-0.628-0.623-0.628c-0.009,0-0.009,0-0.018,0l-1.647,0.063V21.179 M27.807,15v1.985l-3.385,0.189v0.864l2.988-0.104 v2.107h-3.04v0.898l3.437,0.052v1.951l-5.406-0.259v-7.292L27.807,15 M21.882,15.428l-1.967,7.048h-2.159l-0.984-3.367 l-0.967,3.367h-2.125l-1.623-6.319l1.921-0.165l0.946,3.825l0.972-3.961l1.842-0.132l1.037,4.128l1.107-4.281L21.882,15.428 M9.246,24.076l7.062,0.134v2.13h-2.21v6.121l-2.365,0.131v-6.385H9.246V24.076 M20.559,24.157c2.261,0,4.091,1.821,4.091,4.073 c0,2.243-1.83,4.073-4.091,4.073c-2.261,0-4.1-1.83-4.1-4.073C16.459,25.979,18.298,24.157,20.559,24.157 M20.667,30.213 c0.969,0,1.75-0.879,1.75-1.956c0-1.068-0.781-1.947-1.75-1.947c-0.969,0-1.75,0.879-1.75,1.947 C18.917,29.334,19.698,30.213,20.667,30.213 M28.885,24.364c1.974,0,3.58,1.66,3.58,3.723c0,2.055-1.606,3.723-3.58,3.723 c-1.983,0-3.589-1.669-3.589-3.723C25.296,26.024,26.902,24.364,28.885,24.364 M28.93,29.89c0.861,0,1.561-0.79,1.561-1.758 c0-0.978-0.7-1.767-1.561-1.767c-0.861,0-1.561,0.79-1.561,1.767C27.369,29.101,28.069,29.89,28.93,29.89 M33.08,24.554l1.952,0.01 l2.186,3.389v-3.309h2.054l-0.156,6.42l-1.743,0.105l-2.162-3.216v3.338l-2.131,0.061V24.554 M33.166,14.129 c-0.093,0-0.174,0.001-0.267,0.013l-4.306,0.357l-0.286,0.024v-0.06l-0.536,0.039l-5.217,0.378l0,0l-0.708,0.05l-2,0.143 l-0.359,0.026l-0.09,0.348l-0.616,2.382l-0.559-2.226l-0.102-0.407l-0.418,0.03l-1.842,0.132l-0.363,0.026l-0.087,0.354 l-0.488,1.989l-0.458-1.854l-0.103-0.415l-0.426,0.037l-1.921,0.165l-0.588,0.051l0.147,0.572l1.623,6.319l0.096,0.376h0.388h2.125 h0.377l0.104-0.362l0.491-1.709l0.5,1.711l0.105,0.36h0.375h2.159h0.38l0.102-0.366l1.505-5.392v5.465v0.477l0.476,0.023 l5.406,0.259l0.524,0.025v-0.021h0.327h5.013h0.107l0.097-0.044c1.154-0.516,1.887-1.321,2.063-2.266 c0.142-0.76-0.097-1.54-0.639-2.086c-0.073-0.074-0.151-0.142-0.233-0.205c0.072-0.057,0.142-0.119,0.207-0.185 c0.455-0.459,0.706-1.068,0.706-1.716C35.955,15.392,34.704,14.129,33.166,14.129L33.166,14.129z M31.262,17.135l0.938-0.042 c0.085,0,0.146,0.063,0.146,0.137c0,0.083-0.061,0.146-0.141,0.146h-0.942V17.135L31.262,17.135z M27.909,17.48l0.225-0.013v3.028 l-0.225-0.003v-0.452v-2.107V17.48L27.909,17.48z M31.262,20.476l1.166-0.044c0.058,0,0.122,0.052,0.122,0.128 c0,0.067-0.054,0.119-0.123,0.119h-1.165V20.476L31.262,20.476z M8.746,23.566v0.51v2.13v0.5h0.5h1.987v5.885v0.528l0.528-0.029 l2.365-0.131l0.472-0.026V32.46v-5.621h1.579c-0.141,0.439-0.218,0.906-0.218,1.391c0,2.522,2.064,4.573,4.6,4.573 c2.126,0,3.919-1.447,4.439-3.404c0.536,1.688,2.076,2.911,3.887,2.911c1.632,0,3.043-0.997,3.695-2.434v1.475v0.515l0.514-0.015 l2.131-0.061l0.486-0.014V31.29v-1.698l1.247,1.855l0.16,0.237l0.285-0.017l1.743-0.105l0.459-0.028l0.011-0.459l0.156-6.42 l0.012-0.512h-0.512h-2.054h-0.5v0.5v1.612l-1.266-1.963l-0.147-0.228l-0.271-0.001l-1.952-0.01l-0.503-0.003v0.503v1.744 c-0.652-1.437-2.063-2.434-3.695-2.434c-1.861,0-3.435,1.291-3.928,3.051c-0.569-1.882-2.325-3.257-4.397-3.257 c-1.547,0-2.917,0.763-3.752,1.93v-1.378v-0.491l-0.491-0.009l-7.062-0.134L8.746,23.566L8.746,23.566z M20.667,29.713 c-0.689,0-1.25-0.653-1.25-1.456c0-0.798,0.561-1.447,1.25-1.447s1.25,0.649,1.25,1.447C21.916,29.06,21.356,29.713,20.667,29.713 L20.667,29.713z M28.93,29.39c-0.585,0-1.061-0.565-1.061-1.258c0-0.699,0.476-1.267,1.061-1.267s1.061,0.569,1.061,1.267 C29.991,28.826,29.515,29.39,28.93,29.39L28.93,29.39z" opacity=".07"/></svg>