<svg xmlns="http://www.w3.org/2000/svg" viewBox="0 0 48 48"><radialGradient id="gJsRU1gTgHqzRO6Vf2I~6a" cx="10.062" cy="9.438" r="40.916" gradientUnits="userSpaceOnUse"><stop offset="0" stop-color="#6fcefc"/><stop offset="1" stop-color="#167cf7"/></radialGradient><path fill="url(#gJsRU1gTgHqzRO6Vf2I~6a)" d="M44,24c0,11.045-8.955,20-20,20S4,35.045,4,24S12.955,4,24,4S44,12.955,44,24z"/><radialGradient id="gJsRU1gTgHqzRO6Vf2I~6b" cx="10.696" cy="8.05" r="40.918" gradientUnits="userSpaceOnUse"><stop offset=".001" stop-color="#54c0f5"/><stop offset=".998" stop-color="#0b69db"/></radialGradient><path fill="url(#gJsRU1gTgHqzRO6Vf2I~6b)" d="M41,24c0-2.465-0.399-4.818-1.096-7h2.811c-0.256-0.685-0.546-1.353-0.873-2h-2.682	C36.355,8.485,30.621,4,24,4S11.645,8.485,8.839,15H6.157c-0.327,0.647-0.616,1.315-0.873,2h2.811C7.399,19.182,7,21.535,7,24	s0.399,4.818,1.096,7H5.285c0.256,0.685,0.546,1.353,0.873,2h2.682c2.806,6.515,8.54,11,15.161,11s12.355-4.485,15.161-11h2.682	c0.327-0.647,0.616-1.315,0.873-2h-2.811C40.601,28.818,41,26.465,41,24z M39,24c0,2.481-0.421,4.847-1.181,7H31.51	c0.323-2.266,0.49-4.65,0.49-7s-0.166-4.734-0.49-7h6.309C38.579,19.153,39,21.519,39,24z M24,42c-1.936,0-4.021-3.445-5.152-9	h10.304C28.021,38.555,25.936,42,24,42z M18.5,31c-0.315-2.113-0.5-4.461-0.5-7s0.185-4.887,0.5-7H29.5c0.315,2.113,0.5,4.461,0.5,7	s-0.185,4.887-0.5,7H18.5z M24,6c1.936,0,4.021,3.445,5.152,9H18.848C19.979,9.445,22.064,6,24,6z M36.97,15h-5.792	c-0.639-3.33-1.643-6.272-2.994-8.273C31.922,8.033,35.054,11.038,36.97,15z M19.816,6.727c-1.35,2.002-2.355,4.943-2.994,8.273	H11.03C12.946,11.038,16.078,8.033,19.816,6.727z M9,24c0-2.481,0.421-4.847,1.181-7h6.309C16.166,19.266,16,21.65,16,24	s0.166,4.734,0.49,7h-6.309C9.421,28.847,9,26.481,9,24z M11.03,33h5.792c0.639,3.33,1.643,6.272,2.994,8.273	C16.078,39.967,12.946,36.962,11.03,33z M28.184,41.273c1.35-2.002,2.355-4.943,2.994-8.273h5.792	C35.054,36.962,31.922,39.967,28.184,41.273z"/></svg>