<svg xmlns="http://www.w3.org/2000/svg" viewBox="0 0 48 48"><linearGradient id="uhJKu8hZPNFcuuAwNx4sRa" x1="12.686" x2="35.58" y1="385.408" y2="348.159" gradientTransform="matrix(1 0 0 -1 0 390)" gradientUnits="userSpaceOnUse"><stop offset="0" stop-color="#33bef0"/><stop offset="1" stop-color="#0a85d9"/></linearGradient><path fill="url(#uhJKu8hZPNFcuuAwNx4sRa)" d="M42,8H6c-1.105,0-2,0.895-2,2v26c0,1.105,0.895,2,2,2h8v7.998	c0,0.891,1.077,1.337,1.707,0.707L24.412,38H42c1.105,0,2-0.895,2-2V10C44,8.895,43.105,8,42,8z"/><path d="M15.559,32.011c-0.862,0-1.564-0.7-1.564-1.561c0-0.656,0.41-1.243,1.021-1.46	c1.553-0.554,3.84-2.514,3.975-5.688c-0.367,0.11-0.859,0.206-1.497,0.206c-2.166,0-4.503-1.733-4.503-4.533	c0-2.445,1.872-4.975,5.004-4.975c2.893,0,6.005,2.207,6.005,7.053c0,6.672-4.917,9.658-7.849,10.843	C15.963,31.972,15.763,32.011,15.559,32.011z" opacity=".05"/><path d="M15.559,31.511c-0.587,0-1.064-0.476-1.064-1.061c0-0.445,0.276-0.842,0.688-0.989	c1.733-0.618,4.313-2.846,4.313-6.453c0-0.198-0.012-0.335-0.024-0.427c-0.003,0.001-0.005,0.002-0.008,0.003	c-0.353,0.159-0.943,0.423-1.971,0.423c-1.925,0-4.003-1.542-4.003-4.033c0-2.2,1.685-4.475,4.504-4.475	c2.651,0,5.505,2.051,5.505,6.553c0,6.379-4.722,9.241-7.536,10.379C15.833,31.485,15.697,31.511,15.559,31.511z" opacity=".07"/><path fill="#fff" d="M14.994,30.451L14.994,30.451c0-0.23,0.14-0.441,0.356-0.519c1.832-0.653,4.644-3.055,4.644-6.924	c0-0.665-0.114-1.001-0.37-1.001c-0.301,0-0.778,0.501-2.132,0.501c-1.646,0-3.504-1.312-3.504-3.533	c0-1.944,1.458-3.975,4.004-3.975c2.07,0,5.005,1.543,5.005,6.053c0,6.246-4.703,8.896-7.224,9.916	C15.403,31.119,14.994,30.852,14.994,30.451z"/><path d="M26.571,32.011c-0.862,0-1.564-0.7-1.564-1.561c0-0.656,0.41-1.243,1.021-1.46	c1.553-0.554,3.84-2.514,3.975-5.688c-0.367,0.11-0.859,0.206-1.497,0.206c-2.166,0-4.503-1.733-4.503-4.533	c0-2.445,1.872-4.975,5.004-4.975c2.893,0,6.005,2.207,6.005,7.053c0,6.672-4.917,9.658-7.849,10.843	C26.976,31.972,26.775,32.011,26.571,32.011z" opacity=".05"/><path d="M26.571,31.511c-0.587,0-1.064-0.476-1.064-1.061c0-0.445,0.276-0.842,0.688-0.989	c1.733-0.618,4.313-2.846,4.313-6.453c0-0.198-0.012-0.335-0.024-0.427c-0.003,0.001-0.005,0.002-0.008,0.003	c-0.353,0.159-0.943,0.423-1.971,0.423c-1.925,0-4.003-1.542-4.003-4.033c0-2.2,1.685-4.475,4.504-4.475	c2.651,0,5.505,2.051,5.505,6.553c0,6.379-4.722,9.241-7.536,10.379C26.846,31.485,26.71,31.511,26.571,31.511z" opacity=".07"/><path fill="#fff" d="M26.007,30.451L26.007,30.451c0-0.23,0.14-0.441,0.356-0.519c1.832-0.653,4.644-3.055,4.644-6.924	c0-0.665-0.114-1.001-0.37-1.001c-0.301,0-0.778,0.501-2.132,0.501c-1.646,0-3.504-1.312-3.504-3.533	c0-1.944,1.458-3.975,4.004-3.975c2.07,0,5.005,1.543,5.005,6.053c0,6.246-4.703,8.896-7.224,9.916	C26.416,31.119,26.007,30.852,26.007,30.451z"/></svg>