<svg xmlns="http://www.w3.org/2000/svg" viewBox="0 0 48 48"><linearGradient id="pOpX13m6JPDo0STKYFJSha" x1="18.921" x2="25.143" y1="5.715" y2="26.715" gradientUnits="userSpaceOnUse"><stop offset="0" stop-color="#0078d3"/><stop offset="1" stop-color="#0858a1"/></linearGradient><path fill="url(#pOpX13m6JPDo0STKYFJSha)" d="M43,29.452H5V16.554c0-0.686,0.352-1.325,0.932-1.691l16.466-10.4	c0.979-0.618,2.225-0.618,3.204,0l16.466,10.4C42.648,15.23,43,15.868,43,16.554V29.452z"/><linearGradient id="pOpX13m6JPDo0STKYFJShb" x1="24" x2="24" y1="13.416" y2="27.233" gradientUnits="userSpaceOnUse"><stop offset="0" stop-color="#fff"/><stop offset=".24" stop-color="#f8f8f7"/><stop offset="1" stop-color="#e3e3e1"/></linearGradient><path fill="url(#pOpX13m6JPDo0STKYFJShb)" d="M37,32H11V14c0-0.552,0.448-1,1-1h24c0.552,0,1,0.448,1,1V32z"/><linearGradient id="pOpX13m6JPDo0STKYFJShc" x1="25.886" x2="37.997" y1="27.936" y2="45.269" gradientUnits="userSpaceOnUse"><stop offset="0" stop-color="#3ccbf4"/><stop offset="1" stop-color="#1fa0e5"/></linearGradient><path fill="url(#pOpX13m6JPDo0STKYFJShc)" d="M43,17v21.256C43,39.219,42.206,40,41.226,40H9.56l4.803-6.327L43,17z"/><linearGradient id="pOpX13m6JPDo0STKYFJShd" x1="3.074" x2="39.962" y1="27.236" y2="45.125" gradientUnits="userSpaceOnUse"><stop offset="0" stop-color="#28afea"/><stop offset="1" stop-color="#0b88da"/></linearGradient><path fill="url(#pOpX13m6JPDo0STKYFJShd)" d="M5,17v21.256C5,39.219,5.794,40,6.774,40h34.453c0.56,0,1.053-0.26,1.378-0.658L5,17z"/><linearGradient id="pOpX13m6JPDo0STKYFJShe" x1="24" x2="24" y1="15.85" y2="26.095" gradientUnits="userSpaceOnUse"><stop offset="0" stop-color="#21ad64"/><stop offset="1" stop-color="#088242"/></linearGradient><path fill="url(#pOpX13m6JPDo0STKYFJShe)" d="M28.5,20H25v-3.5c0-0.276-0.224-0.5-0.5-0.5h-1c-0.276,0-0.5,0.224-0.5,0.5V20h-3.5	c-0.276,0-0.5,0.224-0.5,0.5v1c0,0.276,0.224,0.5,0.5,0.5H23v3.5c0,0.276,0.224,0.5,0.5,0.5h1c0.276,0,0.5-0.224,0.5-0.5V22h3.5	c0.276,0,0.5-0.224,0.5-0.5v-1C29,20.224,28.776,20,28.5,20z"/></svg>