<svg xmlns="http://www.w3.org/2000/svg" viewBox="0 0 48 48"><linearGradient id="qxrctWRa3gULwG9lVnc2ia" x1="24.262" x2="29.722" y1="17.152" y2="52.051" gradientUnits="userSpaceOnUse"><stop offset="0" stop-color="#21ad64"/><stop offset="1" stop-color="#088242"/></linearGradient><path fill="url(#qxrctWRa3gULwG9lVnc2ia)" d="M44,24H28.356l0.008,0.005L8.676,36.842C12.345,41.215,17.845,44,24,44	C35.046,44,44,35.046,44,24z"/><linearGradient id="qxrctWRa3gULwG9lVnc2ib" x1="29.16" x2="44.719" y1="21.008" y2="52.723" gradientUnits="userSpaceOnUse"><stop offset="0" stop-color="#00b6ce"/><stop offset=".371" stop-color="#00b2cb"/><stop offset=".722" stop-color="#00a7c1"/><stop offset="1" stop-color="#0098b5"/></linearGradient><path fill="url(#qxrctWRa3gULwG9lVnc2ib)" d="M44,24c0-11.046-8.954-20-20-20c-6.156,0-11.657,2.786-15.326,7.161L28.356,24H44z"/><linearGradient id="qxrctWRa3gULwG9lVnc2ic" x1="10.368" x2="24.768" y1="19.335" y2="38.988" gradientUnits="userSpaceOnUse"><stop offset="0" stop-color="#dfe9f2"/><stop offset=".998" stop-color="#9ea7b0"/></linearGradient><path fill="url(#qxrctWRa3gULwG9lVnc2ic)" d="M28.356,24L8.674,11.161C5.76,14.635,4,19.11,4,24c0,4.891,1.761,9.367,4.676,12.842	l19.688-12.836L28.356,24z"/><linearGradient id="qxrctWRa3gULwG9lVnc2id" x1="10.979" x2="15.392" y1="21.112" y2="29.534" gradientUnits="userSpaceOnUse"><stop offset=".008" stop-color="#f44f5a"/><stop offset=".447" stop-color="#ee3d4a"/><stop offset="1" stop-color="#e52030"/></linearGradient><path fill="url(#qxrctWRa3gULwG9lVnc2id)" d="M13.816,24.137L16.754,22h-3.633L12,18.547L10.879,22H7.246l2.937,2.137l-1.12,3.453	L12,25.453l2.938,2.137L13.816,24.137z"/></svg>