<svg xmlns="http://www.w3.org/2000/svg" viewBox="0 0 48 48"><path fill="#0d62ab" d="M7,7H6C5.447,7,5,6.552,5,6s0.447-1,1-1h1c0.553,0,1,0.448,1,1S7.553,7,7,7z"/><path fill="#0d62ab" d="M32.715,7h-2.143c-0.553,0-1-0.448-1-1s0.447-1,1-1h2.143c0.553,0,1,0.448,1,1S33.268,7,32.715,7z M26.286,7h-2.143c-0.553,0-1-0.448-1-1s0.447-1,1-1h2.143c0.553,0,1,0.448,1,1S26.839,7,26.286,7z M19.857,7h-2.143 c-0.553,0-1-0.448-1-1s0.447-1,1-1h2.143c0.553,0,1,0.448,1,1S20.41,7,19.857,7z M13.429,7h-2.143c-0.553,0-1-0.448-1-1 s0.447-1,1-1h2.143c0.553,0,1,0.448,1,1S13.981,7,13.429,7z"/><path fill="#0d62ab" d="M38,7h-1c-0.553,0-1-0.448-1-1s0.447-1,1-1h1c0.553,0,1,0.448,1,1S38.553,7,38,7z"/><path fill="#0078d4" d="M11,13h-1c-0.553,0-1-0.448-1-1s0.447-1,1-1h1c0.553,0,1,0.448,1,1S11.553,13,11,13z"/><path fill="#0078d4" d="M36.715,13h-2.143c-0.553,0-1-0.448-1-1s0.447-1,1-1h2.143c0.553,0,1,0.448,1,1S37.268,13,36.715,13 z M30.286,13h-2.143c-0.553,0-1-0.448-1-1s0.447-1,1-1h2.143c0.553,0,1,0.448,1,1S30.839,13,30.286,13z M23.857,13h-2.143 c-0.553,0-1-0.448-1-1s0.447-1,1-1h2.143c0.553,0,1,0.448,1,1S24.41,13,23.857,13z M17.429,13h-2.143c-0.553,0-1-0.448-1-1 s0.447-1,1-1h2.143c0.553,0,1,0.448,1,1S17.981,13,17.429,13z"/><path fill="#0078d4" d="M42,13h-1c-0.553,0-1-0.448-1-1s0.447-1,1-1h1c0.553,0,1,0.448,1,1S42.553,13,42,13z"/><path fill="#199be2" d="M7,19H6c-0.553,0-1-0.448-1-1s0.447-1,1-1h1c0.553,0,1,0.448,1,1S7.553,19,7,19z"/><path fill="#199be2" d="M32.715,19h-2.143c-0.553,0-1-0.448-1-1s0.447-1,1-1h2.143c0.553,0,1,0.448,1,1S33.268,19,32.715,19 z M26.286,19h-2.143c-0.553,0-1-0.448-1-1s0.447-1,1-1h2.143c0.553,0,1,0.448,1,1S26.839,19,26.286,19z M19.857,19h-2.143 c-0.553,0-1-0.448-1-1s0.447-1,1-1h2.143c0.553,0,1,0.448,1,1S20.41,19,19.857,19z M13.429,19h-2.143c-0.553,0-1-0.448-1-1 s0.447-1,1-1h2.143c0.553,0,1,0.448,1,1S13.981,19,13.429,19z"/><path fill="#199be2" d="M38,19h-1c-0.553,0-1-0.448-1-1s0.447-1,1-1h1c0.553,0,1,0.448,1,1S38.553,19,38,19z"/><g><path fill="#35c1f1" d="M11,25h-1c-0.553,0-1-0.448-1-1s0.447-1,1-1h1c0.553,0,1,0.448,1,1S11.553,25,11,25z"/><path fill="#35c1f1" d="M36.715,25h-2.143c-0.553,0-1-0.448-1-1s0.447-1,1-1h2.143c0.553,0,1,0.448,1,1S37.268,25,36.715,25 z M30.286,25h-2.143c-0.553,0-1-0.448-1-1s0.447-1,1-1h2.143c0.553,0,1,0.448,1,1S30.839,25,30.286,25z M23.857,25h-2.143 c-0.553,0-1-0.448-1-1s0.447-1,1-1h2.143c0.553,0,1,0.448,1,1S24.41,25,23.857,25z M17.429,25h-2.143c-0.553,0-1-0.448-1-1 s0.447-1,1-1h2.143c0.553,0,1,0.448,1,1S17.981,25,17.429,25z"/><path fill="#35c1f1" d="M42,25h-1c-0.553,0-1-0.448-1-1s0.447-1,1-1h1c0.553,0,1,0.448,1,1S42.553,25,42,25z"/></g><g><path fill="#50e6ff" d="M7,31H6c-0.553,0-1-0.448-1-1s0.447-1,1-1h1c0.553,0,1,0.448,1,1S7.553,31,7,31z"/><path fill="#50e6ff" d="M32.715,31h-2.143c-0.553,0-1-0.448-1-1s0.447-1,1-1h2.143c0.553,0,1,0.448,1,1S33.268,31,32.715,31 z M26.286,31h-2.143c-0.553,0-1-0.448-1-1s0.447-1,1-1h2.143c0.553,0,1,0.448,1,1S26.839,31,26.286,31z M19.857,31h-2.143 c-0.553,0-1-0.448-1-1s0.447-1,1-1h2.143c0.553,0,1,0.448,1,1S20.41,31,19.857,31z M13.429,31h-2.143c-0.553,0-1-0.448-1-1 s0.447-1,1-1h2.143c0.553,0,1,0.448,1,1S13.981,31,13.429,31z"/><path fill="#50e6ff" d="M38,31h-1c-0.553,0-1-0.448-1-1s0.447-1,1-1h1c0.553,0,1,0.448,1,1S38.553,31,38,31z"/></g><g><path fill="#199be2" d="M7,43H6c-0.553,0-1-0.448-1-1s0.447-1,1-1h1c0.553,0,1,0.448,1,1S7.553,43,7,43z"/><path fill="#199be2" d="M32.715,43h-2.143c-0.553,0-1-0.448-1-1s0.447-1,1-1h2.143c0.553,0,1,0.448,1,1S33.268,43,32.715,43 z M26.286,43h-2.143c-0.553,0-1-0.448-1-1s0.447-1,1-1h2.143c0.553,0,1,0.448,1,1S26.839,43,26.286,43z M19.857,43h-2.143 c-0.553,0-1-0.448-1-1s0.447-1,1-1h2.143c0.553,0,1,0.448,1,1S20.41,43,19.857,43z M13.429,43h-2.143c-0.553,0-1-0.448-1-1 s0.447-1,1-1h2.143c0.553,0,1,0.448,1,1S13.981,43,13.429,43z"/><path fill="#199be2" d="M38,43h-1c-0.553,0-1-0.448-1-1s0.447-1,1-1h1c0.553,0,1,0.448,1,1S38.553,43,38,43z"/></g><g><path fill="#35c1f1" d="M11,37h-1c-0.553,0-1-0.448-1-1s0.447-1,1-1h1c0.553,0,1,0.448,1,1S11.553,37,11,37z"/><path fill="#35c1f1" d="M36.715,37h-2.143c-0.553,0-1-0.448-1-1s0.447-1,1-1h2.143c0.553,0,1,0.448,1,1S37.268,37,36.715,37 z M30.286,37h-2.143c-0.553,0-1-0.448-1-1s0.447-1,1-1h2.143c0.553,0,1,0.448,1,1S30.839,37,30.286,37z M23.857,37h-2.143 c-0.553,0-1-0.448-1-1s0.447-1,1-1h2.143c0.553,0,1,0.448,1,1S24.41,37,23.857,37z M17.429,37h-2.143c-0.553,0-1-0.448-1-1 s0.447-1,1-1h2.143c0.553,0,1,0.448,1,1S17.981,37,17.429,37z"/><path fill="#35c1f1" d="M42,37h-1c-0.553,0-1-0.448-1-1s0.447-1,1-1h1c0.553,0,1,0.448,1,1S42.553,37,42,37z"/></g></svg>