<svg xmlns="http://www.w3.org/2000/svg" viewBox="0 0 48 48"><linearGradient id="bi8QqW4BVScGaVDofHi3Ma" x1="21.482" x2="32.007" y1="12.633" y2="72.323" gradientUnits="userSpaceOnUse"><stop offset="0" stop-color="#eaeaeb"/><stop offset="1" stop-color="#a3a7ab"/></linearGradient><path fill="url(#bi8QqW4BVScGaVDofHi3Ma)" d="M45.4,15.87l-0.36,1.08c-0.01,0.03-0.03,0.07-0.05,0.1l-3.89,6.81 c-0.05,0.09-0.08,0.19-0.07,0.3l0.72,11.1c0.01,0.18-0.08,0.36-0.23,0.47l-6.29,4.13c-0.13,0.09-0.3,0.11-0.45,0.06l-3.49-1.19 c-0.17-0.06-0.35-0.02-0.49,0.09l-3.65,2.89c-0.09,0.07-0.19,0.1-0.29,0.11l-14.7,1.17c-0.04,0-0.07,0-0.11-0.01 c-0.04,0-0.09-0.01-0.13-0.03l-1.51-0.75c-0.13-0.06-0.25-0.13-0.36-0.22c-0.01,0.01-0.01,0-0.01,0c-0.11-0.08-0.21-0.17-0.31-0.27 L6.12,38.1c-0.11-0.09-0.21-0.18-0.31-0.26l-3.6-2.56c-0.1-0.07-0.16-0.17-0.19-0.28C1.98,34.87,2,34.72,2.07,34.59l2.74-4.23 c0.07-0.13,0.17-0.24,0.3-0.32c0.09-0.07,0.2-0.11,0.31-0.14L12,28.5c0.35-0.09-0.3-0.7-0.5-1l-4.39-1.37 c-0.06-0.08-0.09-0.19-0.09-0.29v-7.29c0-0.36,0.1-0.71,0.29-1.03l2.7-4.5c0.01-0.01,0.01-0.03,0.02-0.04l0.95-1.9 c0.03-0.05,0.06-0.1,0.1-0.14l1.5-1.5C12.86,9.16,13.25,9,13.65,9h3.14c0.15,0,0.29-0.06,0.39-0.17l4.98-5.4 C22.64,2.91,23.45,2.85,24,3.3l6.65,5.4c0.12,0.1,0.22,0.22,0.28,0.36c0.06,0.13,0.09,0.27,0.09,0.42L30,12.5 c0,0.19,0.82,1.42,1,1.5h3.494l5.476-0.99C40,13,40.04,13,40.07,13h1.78c0.11,0,0.22,0.03,0.31,0.1l3.04,2.17 C45.39,15.41,45.47,15.65,45.4,15.87z"/><linearGradient id="bi8QqW4BVScGaVDofHi3Mb" x1="22.422" x2="36.696" y1="21.438" y2="102.391" gradientUnits="userSpaceOnUse"><stop offset="0" stop-color="#939ca3"/><stop offset="1" stop-color="#4a5761"/></linearGradient><path fill="url(#bi8QqW4BVScGaVDofHi3Mb)" d="M38.82,33.77L35,40l-6.55,4.81c-0.14,0.1-0.29,0.16-0.45,0.18c-0.17,0.03-0.34,0.01-0.5-0.06 l-4.002-1.716c-0.326-0.14-0.684-0.191-1.036-0.146l-7.012,0.876c-0.296,0.037-0.597,0.007-0.881-0.087L12,43l3-3l1-3.748 l5.046-3.832L37,29.6L38.82,33.77z"/><linearGradient id="bi8QqW4BVScGaVDofHi3Mc" x1="20.412" x2="39.806" y1="25.702" y2="135.69" gradientUnits="userSpaceOnUse"><stop offset="0" stop-color="#939ca3"/><stop offset="1" stop-color="#4a5761"/></linearGradient><path fill="url(#bi8QqW4BVScGaVDofHi3Mc)" d="M31,9.48V12l-7,3l-4,1l-2,2l-2,1l-2.883,1.922c-0.078,0.052-0.162,0.092-0.251,0.121 l-2.689,0.856c-0.206,0.065-0.385,0.196-0.51,0.371L7,26v-7.446c0-0.362,0.099-0.718,0.285-1.029L10,13l1-2h3.858 c0.095,0,0.189,0.007,0.283,0.02L22,12l5.577-0.929c0.279-0.047,0.545-0.152,0.781-0.309L30.91,9.06C30.97,9.19,31,9.33,31,9.48z"/><linearGradient id="bi8QqW4BVScGaVDofHi3Md" x1="3.108" x2="14.612" y1="-18.689" y2="46.554" gradientUnits="userSpaceOnUse"><stop offset="0" stop-color="#eaeaeb"/><stop offset="1" stop-color="#9197a1"/></linearGradient><path fill="url(#bi8QqW4BVScGaVDofHi3Md)" d="M23.13,35l-5.88,3.85c-0.15,0.1-0.27,0.23-0.35,0.39l-0.73,1.46 c-0.1,0.2-0.25,0.35-0.45,0.45l-3.67,1.83L12.02,43l-0.1-0.05l-1.51-0.75l-0.1-0.05c-0.09-0.05-0.18-0.1-0.26-0.17 c-0.01,0.01-0.01,0-0.01,0c-0.09-0.06-0.18-0.14-0.25-0.21l-0.06-0.06L6.12,38.1c-0.07-0.07-0.14-0.13-0.21-0.19l-0.1-0.07 l-3.6-2.56c-0.1-0.07-0.16-0.17-0.19-0.28h5.33c0.44,0,0.86-0.14,1.2-0.4l3.47-2.6h5l3-1L23.13,35z"/><linearGradient id="bi8QqW4BVScGaVDofHi3Me" x1="11.092" x2="30.295" y1="-11.501" y2="97.407" gradientUnits="userSpaceOnUse"><stop offset="0" stop-color="#959fa6"/><stop offset="1" stop-color="#4c5963"/></linearGradient><path fill="url(#bi8QqW4BVScGaVDofHi3Me)" d="M14.889,15.861L11,11l6.823,2.924c0.117,0.05,0.223,0.122,0.313,0.212L20,16l-2,2l-2,1 l-0.944-2.831C15.019,16.057,14.962,15.953,14.889,15.861z"/><linearGradient id="bi8QqW4BVScGaVDofHi3Mf" x1="28.321" x2="46.9" y1="-19.07" y2="86.298" gradientUnits="userSpaceOnUse"><stop offset="0" stop-color="#eaeaeb"/><stop offset="1" stop-color="#9197a1"/></linearGradient><path fill="url(#bi8QqW4BVScGaVDofHi3Mf)" d="M38.817,33.774L35,40l7.554-1.888c0.283-0.071,0.521-0.262,0.652-0.523l0.655-1.309 c0.091-0.182,0.124-0.387,0.096-0.589l-0.922-6.453c-0.023-0.158-0.064-0.312-0.123-0.46L41,24L38.817,33.774z M42,13l3.406,1.486 c0.587,0.261,0.779,1,0.394,1.514L45,17L42,13z M30.677,40c-0.409,0-0.776,0.249-0.928,0.628L28,44.99 c0.16-0.02,0.31-0.08,0.45-0.18L35,40H30.677z"/><linearGradient id="bi8QqW4BVScGaVDofHi3Mg" x1="48.721" x2="62.862" y1="81.93" y2="162.126" gradientUnits="userSpaceOnUse"><stop offset="0" stop-color="#889097"/><stop offset="1" stop-color="#4c5963"/></linearGradient><path fill="url(#bi8QqW4BVScGaVDofHi3Mg)" d="M41,24l-4,5.6l1.817,4.174L41,24z"/><linearGradient id="bi8QqW4BVScGaVDofHi3Mh" x1="13.738" x2="23.863" y1="-12.183" y2="45.234" gradientUnits="userSpaceOnUse"><stop offset="0" stop-color="#eaeaeb"/><stop offset="1" stop-color="#9197a1"/></linearGradient><path fill="url(#bi8QqW4BVScGaVDofHi3Mh)" d="M25,26.5l6.372,9.752L35,32l-10-9l-9-1l-4.778,0.956c-0.146,0.029-0.284,0.091-0.404,0.181 L7,26l1.832,2.748C8.942,28.912,9,29.105,9,29.303V32h3l6-4l1-2l1.95-0.999L25,26.5z"/><linearGradient id="bi8QqW4BVScGaVDofHi3Mi" x1="7.905" x2="26.525" y1="-73.683" y2="31.913" gradientUnits="userSpaceOnUse"><stop offset="0" stop-color="#fafafb"/><stop offset=".293" stop-color="#f6f7f8"/><stop offset=".566" stop-color="#ebecee"/><stop offset=".832" stop-color="#d8dcdf"/><stop offset="1" stop-color="#c8cdd1"/></linearGradient><path fill="url(#bi8QqW4BVScGaVDofHi3Mi)" d="M16,19v3l9,1L16,19z M5.4,29.9c-0.11,0.03-0.22,0.07-0.31,0.14L9,32v-3L5.4,29.9z M42,13h-2 l-0.818,2.663c-0.096,0.289-0.426,0.425-0.698,0.289L31,12l-2,6l-4,5l10,9l1-1l5-7l4-7L42,13z M17,9l-2,2l7,1L17,9z M25,26.5L22,27 l-2,4l6.32,8.58c0.36,0.49,1.06,0.55,1.5,0.13l3.55-3.46L25,26.5z"/><linearGradient id="bi8QqW4BVScGaVDofHi3Mj" x1="1.171" x2="55.823" y1="-7.318" y2="44.547" gradientUnits="userSpaceOnUse"><stop offset="0" stop-color="#f9f9f9"/><stop offset=".266" stop-color="#f5f5f6"/><stop offset=".54" stop-color="#e9eaec"/><stop offset=".816" stop-color="#d4d8db"/><stop offset="1" stop-color="#c2c8cc"/></linearGradient><path fill="url(#bi8QqW4BVScGaVDofHi3Mj)" d="M15,11h-4l1.707-1.707C12.895,9.105,13.149,9,13.414,9H17L15,11z M24.147,14.937 c-0.098,0.042-0.199,0.076-0.303,0.102L20,16l9,2l2-6L24.147,14.937z"/><linearGradient id="bi8QqW4BVScGaVDofHi3Mk" x1="9.007" x2="36.68" y1="-4.105" y2="65.973" gradientUnits="userSpaceOnUse"><stop offset="0" stop-color="#f9f9f9"/><stop offset=".233" stop-color="#f5f5f6"/><stop offset=".472" stop-color="#e9eaec"/><stop offset=".714" stop-color="#d4d8db"/><stop offset=".875" stop-color="#c2c8cc"/></linearGradient><path fill="url(#bi8QqW4BVScGaVDofHi3Mk)" d="M20,20.778V16l-1.885,1.885c-0.076,0.076-0.164,0.139-0.26,0.187L16,19l9,4l4-5 l-2.592,1.404c-0.27,0.146-0.561,0.25-0.863,0.308L20,20.778 M23.493,25.001h-2.302c-0.159,0-0.315,0.038-0.456,0.11l-1.443,0.739 c-0.19,0.097-0.343,0.252-0.438,0.443l-0.735,1.469c-0.078,0.156-0.195,0.288-0.34,0.385L12,32h4.675 c0.215,0,0.429-0.035,0.632-0.103L20,31l1.772-3.545c0.143-0.286,0.414-0.487,0.73-0.539L25,26.5l-0.665-1.038 C24.151,25.175,23.834,25.001,23.493,25.001z"/></svg>