<svg xmlns="http://www.w3.org/2000/svg" viewBox="0 0 48 48"><linearGradient id="IQbPCcZyONPGY94RS2t9Ia" x1="5.326" x2="38.082" y1="5.344" y2="38.099" gradientUnits="userSpaceOnUse"><stop offset="0" stop-color="#889097"/><stop offset=".331" stop-color="#848c94"/><stop offset=".669" stop-color="#78828b"/><stop offset="1" stop-color="#64717c"/></linearGradient><path fill="url(#IQbPCcZyONPGY94RS2t9Ia)" d="M43.407,19.243c-2.389-0.029-4.702-1.274-5.983-3.493c-1.233-2.136-1.208-4.649-0.162-6.693 c-2.125-1.887-4.642-3.339-7.43-4.188C28.577,6.756,26.435,8,24,8s-4.577-1.244-5.831-3.131c-2.788,0.849-5.305,2.301-7.43,4.188 c1.046,2.044,1.071,4.557-0.162,6.693c-1.281,2.219-3.594,3.464-5.983,3.493C4.22,20.77,4,22.358,4,24 c0,1.284,0.133,2.535,0.364,3.752c2.469-0.051,4.891,1.208,6.213,3.498c1.368,2.37,1.187,5.204-0.22,7.345 c2.082,1.947,4.573,3.456,7.34,4.375C18.827,40.624,21.221,39,24,39s5.173,1.624,6.303,3.971c2.767-0.919,5.258-2.428,7.34-4.375 c-1.407-2.141-1.588-4.975-0.22-7.345c1.322-2.29,3.743-3.549,6.213-3.498C43.867,26.535,44,25.284,44,24 C44,22.358,43.78,20.77,43.407,19.243z"/><path d="M32.352,22.44l-11.436-7.624c-0.577-0.385-1.314-0.421-1.925-0.093C18.38,15.05,18,15.683,18,16.376	v15.248c0,0.693,0.38,1.327,0.991,1.654c0.278,0.149,0.581,0.222,0.884,0.222c0.364,0,0.726-0.106,1.04-0.315l11.436-7.624	c0.523-0.349,0.835-0.932,0.835-1.56C33.187,23.372,32.874,22.789,32.352,22.44z" opacity=".05"/><path d="M20.681,15.237l10.79,7.194c0.689,0.495,1.153,0.938,1.153,1.513c0,0.575-0.224,0.976-0.715,1.334	c-0.371,0.27-11.045,7.364-11.045,7.364c-0.901,0.604-2.364,0.476-2.364-1.499V16.744C18.5,14.739,20.084,14.839,20.681,15.237z" opacity=".07"/><path fill="#fff" d="M19,31.568V16.433c0-0.743,0.828-1.187,1.447-0.774l11.352,7.568c0.553,0.368,0.553,1.18,0,1.549	l-11.352,7.568C19.828,32.755,19,32.312,19,31.568z"/></svg>