<svg xmlns="http://www.w3.org/2000/svg" viewBox="0 0 48 48"><radialGradient id="KHJ5KYlRukZCWvYLFBQOma" cx="41.617" cy="-50.809" r="25.17" gradientTransform="matrix(1 0 0 -1 0 -18)" gradientUnits="userSpaceOnUse"><stop offset="0" stop-color="#bd8af5"/><stop offset=".137" stop-color="#b88bf5"/><stop offset=".309" stop-color="#a88ff3"/><stop offset=".499" stop-color="#8f96f2"/><stop offset=".702" stop-color="#6b9eef"/><stop offset=".913" stop-color="#3eaaec"/><stop offset="1" stop-color="#29afea"/></radialGradient><path fill="url(#KHJ5KYlRukZCWvYLFBQOma)" d="M43,6H5C3.895,6,3,6.895,3,8v30c0,1.105,0.895,2,2,2h38c1.105,0,2-0.895,2-2V8	C45,6.895,44.105,6,43,6z"/><circle cx="35.5" cy="15.5" r="3.5" fill="#fff8de"/><path fill="#436dcd" d="M35.065,24.065c-1.149-1.149-3.005-1.174-4.185-0.057L21,33.368V42h22c1.105,0,2-0.895,2-2v-6	L35.065,24.065z"/><linearGradient id="KHJ5KYlRukZCWvYLFBQOmb" x1="21" x2="21" y1="-35.219" y2="-82.36" gradientTransform="matrix(1 0 0 -1 0 -18)" gradientUnits="userSpaceOnUse"><stop offset="0" stop-color="#124787"/><stop offset=".923" stop-color="#173b75"/><stop offset="1" stop-color="#173a73"/></linearGradient><path fill="url(#KHJ5KYlRukZCWvYLFBQOmb)" d="M39,42L17.065,20.065c-1.149-1.149-3.005-1.174-4.185-0.057L3,29.368V40c0,1.105,0.895,2,2,2	H39z"/></svg>