<svg xmlns="http://www.w3.org/2000/svg" xmlns:xlink="http://www.w3.org/1999/xlink" data-name="Слой 1" viewBox="0 0 48 48"><defs><linearGradient id="~pQzFMhzfwh6WaF6S4iIoa" x1="3" x2="45" y1="84.505" y2="84.505" data-name="Безымянный градиент 14" gradientTransform="matrix(1 0 0 -1 0 108)" gradientUnits="userSpaceOnUse"><stop offset="0" stop-color="#42a3f2"/><stop offset="1" stop-color="#42a4eb"/></linearGradient><linearGradient id="~pQzFMhzfwh6WaF6S4iIob" x1="15" x2="33" y1="75.505" y2="75.505" data-name="Безымянный градиент 5" gradientTransform="matrix(1 0 0 -1 0 108)" gradientUnits="userSpaceOnUse"><stop offset="0" stop-color="#3079d6"/><stop offset="1" stop-color="#297cd2"/></linearGradient><linearGradient id="~pQzFMhzfwh6WaF6S4iIod" x1="42" x2="48" y1="89.005" y2="89.005" xlink:href="#~pQzFMhzfwh6WaF6S4iIoa"/><linearGradient id="~pQzFMhzfwh6WaF6S4iIoe" x1="0" x2="6" y1="89.005" y2="89.005" xlink:href="#~pQzFMhzfwh6WaF6S4iIoa"/><linearGradient id="~pQzFMhzfwh6WaF6S4iIof" x1="7.75" x2="40.25" y1="92.505" y2="92.505" xlink:href="#~pQzFMhzfwh6WaF6S4iIob"/><linearGradient id="~pQzFMhzfwh6WaF6S4iIoc" x1="15.5" x2="15.5" y1="11.234" y2="19.709" data-name="Безымянный градиент 2" gradientUnits="userSpaceOnUse"><stop offset="0" stop-color="#ffcf54"/><stop offset=".261" stop-color="#fdcb4d"/><stop offset=".639" stop-color="#f7c13a"/><stop offset="1" stop-color="#f0b421"/></linearGradient><linearGradient id="~pQzFMhzfwh6WaF6S4iIog" x1="32.5" x2="32.5" y1="11.234" y2="19.709" xlink:href="#~pQzFMhzfwh6WaF6S4iIoc"/></defs><path fill="#565b5e" d="M38,42.99457h6a1.00037,1.00037,0,0,0,1-1v-5H37v5A1.00037,1.00037,0,0,0,38,42.99457Z"/><path fill="#565b5e" d="M11,41.99457v-5H3v5a1.00037,1.00037,0,0,0,1,1h6A1.00037,1.00037,0,0,0,11,41.99457Z"/><path fill="url(#~pQzFMhzfwh6WaF6S4iIoa)" d="M42,19.99457l-2.243-8.97a3.99936,3.99936,0,0,0-3.88-3.03H12.123a4.00137,4.00137,0,0,0-3.881,3.03L6,19.99457l-1.8,2.4a5.99879,5.99879,0,0,0-1.2,3.6v11a1.99946,1.99946,0,0,0,2,2H43a1.99946,1.99946,0,0,0,2-2v-11a6.001,6.001,0,0,0-1.2-3.6Z"/><circle cx="38.5" cy="27.495" r="2.5" fill="#fff"/><circle cx="9.5" cy="27.495" r="2.5" fill="#fff"/><path fill="url(#~pQzFMhzfwh6WaF6S4iIob)" d="M15,29.99457l1.497,3.743a2.00044,2.00044,0,0,0,1.857,1.257H29.646a2.00044,2.00044,0,0,0,1.857-1.257L33,29.99457Z"/><path fill="url(#~pQzFMhzfwh6WaF6S4iIod)" d="M46,20.99457H42v-2a1.99945,1.99945,0,0,1,2-2h3a1.00036,1.00036,0,0,1,1,1v1A1.99946,1.99946,0,0,1,46,20.99457Z"/><path fill="url(#~pQzFMhzfwh6WaF6S4iIoe)" d="M2,20.99457H6v-2a1.99945,1.99945,0,0,0-2-2H1a1.00036,1.00036,0,0,0-1,1v1A1.99946,1.99946,0,0,0,2,20.99457Z"/><path fill="url(#~pQzFMhzfwh6WaF6S4iIof)" d="M40.25,20.99457l-.092-.123-.098-.392-2.243-8.97a1.99718,1.99718,0,0,0-1.94-1.515H12.123a1.99718,1.99718,0,0,0-1.94,1.515l-2.242,8.97-.098.392-.093.123Z"/><path fill="url(#~pQzFMhzfwh6WaF6S4iIoc)" d="M15.5,12A3.5,3.5,0,1,1,12,15.5,3.50072,3.50072,0,0,1,15.5,12"/><path fill="url(#~pQzFMhzfwh6WaF6S4iIog)" d="M32.5,12A3.5,3.5,0,1,1,29,15.5,3.50072,3.50072,0,0,1,32.5,12"/><path fill="#f09801" d="M24,12a2.5,2.5,0,1,1-2.5,2.5A2.50051,2.50051,0,0,1,24,12"/></svg>