<svg xmlns="http://www.w3.org/2000/svg" xmlns:xlink="http://www.w3.org/1999/xlink" data-name="Layer 1" viewBox="0 0 48 48"><defs><linearGradient id="ITQkThChwQw7TjYb0dWa1i" x1="31" x2="31" y1="15.473" y2="21.258" xlink:href="#ITQkThChwQw7TjYb0dWa1c"/><linearGradient id="ITQkThChwQw7TjYb0dWa1a" x1="33" x2="33" y1="8.43" y2="52.592" gradientUnits="userSpaceOnUse"><stop offset="0" stop-color="#fed100"/><stop offset="1" stop-color="#e38101"/></linearGradient><linearGradient id="ITQkThChwQw7TjYb0dWa1g" x1="33" x2="33" y1="5.201" y2="39.201" xlink:href="#ITQkThChwQw7TjYb0dWa1a"/><linearGradient id="ITQkThChwQw7TjYb0dWa1b" x1="29" x2="29" y1="4.908" y2="25.724" data-name="Безымянный градиент 96" gradientUnits="userSpaceOnUse"><stop offset="0" stop-color="#21ad64"/><stop offset="1" stop-color="#088242"/></linearGradient><linearGradient id="ITQkThChwQw7TjYb0dWa1c" x1="29" x2="29" y1="4.908" y2="25.724" gradientUnits="userSpaceOnUse"><stop offset="0" stop-color="#9631cc"/><stop offset="1" stop-color="#7717a2"/></linearGradient><linearGradient id="ITQkThChwQw7TjYb0dWa1h" x1="31" x2="31" y1="5.658" y2="14.822" xlink:href="#ITQkThChwQw7TjYb0dWa1b"/><linearGradient id="ITQkThChwQw7TjYb0dWa1d" x1="31" x2="31" y1="4.908" y2="25.724" data-name="Новый образец градиентной зал 5" gradientUnits="userSpaceOnUse"><stop offset="0" stop-color="#f9f9f9"/><stop offset=".26" stop-color="#f0f1f2"/><stop offset=".678" stop-color="#d9dcdf"/><stop offset="1" stop-color="#c2c8cc"/></linearGradient><linearGradient id="ITQkThChwQw7TjYb0dWa1f" x1="15" x2="15" y1="-13.94" y2="83.368" xlink:href="#ITQkThChwQw7TjYb0dWa1a"/><linearGradient id="ITQkThChwQw7TjYb0dWa1j" x1="35" x2="35" y1="6.473" y2="20.195" xlink:href="#ITQkThChwQw7TjYb0dWa1d"/><linearGradient id="ITQkThChwQw7TjYb0dWa1e" x1="35" x2="35" y1="4.908" y2="25.724" gradientUnits="userSpaceOnUse"><stop offset="0" stop-color="#f09701"/><stop offset="1" stop-color="#e36001"/></linearGradient><linearGradient id="ITQkThChwQw7TjYb0dWa1k" x1="37" x2="37" y1="6.832" y2="14.334" xlink:href="#ITQkThChwQw7TjYb0dWa1e"/><linearGradient id="ITQkThChwQw7TjYb0dWa1l" x1="37" x2="37" y1="4.908" y2="25.724" xlink:href="#ITQkThChwQw7TjYb0dWa1e"/><linearGradient id="ITQkThChwQw7TjYb0dWa1m" x1="33" x2="33" y1="4.908" y2="25.724" xlink:href="#ITQkThChwQw7TjYb0dWa1b"/><linearGradient id="ITQkThChwQw7TjYb0dWa1n" x1="33" x2="33" y1="4.908" y2="25.724" xlink:href="#ITQkThChwQw7TjYb0dWa1d"/><linearGradient id="ITQkThChwQw7TjYb0dWa1o" x1="33" x2="33" y1="4.908" y2="25.724" xlink:href="#ITQkThChwQw7TjYb0dWa1c"/></defs><path fill="url(#ITQkThChwQw7TjYb0dWa1a)" d="M26,19.01654H40a0,0,0,0,1,0,0V42.14988a1.86667,1.86667,0,0,1-1.86667,1.86667H27.86667A1.86667,1.86667,0,0,1,26,42.14988V19.01654a0,0,0,0,1,0,0Z"/><polygon fill="#fed100" points="40 19.017 26 19.017 26 28.017 40 41.017 40 19.017"/><rect width="14" height="39" x="8" y="5.017" fill="url(#ITQkThChwQw7TjYb0dWa1f)" rx="2"/><ellipse cx="33" cy="19.517" fill="url(#ITQkThChwQw7TjYb0dWa1g)" rx="7" ry="8.5"/><polygon fill="#fed100" points="22 8.017 8 22.017 8 28.017 22 41.017 22 8.017"/><path fill="url(#ITQkThChwQw7TjYb0dWa1b)" d="M30,10.01654v14.7a7.30575,7.30575,0,0,1-2-5.2v-10.5Z"/><path fill="url(#ITQkThChwQw7TjYb0dWa1c)" d="M30,16.01654v8.7a7.30575,7.30575,0,0,1-2-5.2v-4.5l1.05.52Z"/><path fill="url(#ITQkThChwQw7TjYb0dWa1h)" d="M32,9.01654v16.87a4.54707,4.54707,0,0,1-2-1.17v-16.7Z"/><path fill="url(#ITQkThChwQw7TjYb0dWa1d)" d="M32,14.01654v11.87a4.54707,4.54707,0,0,1-2-1.17v-11.7l1.04.52Z"/><path fill="url(#ITQkThChwQw7TjYb0dWa1i)" d="M32,18.01654v7.87a4.54707,4.54707,0,0,1-2-1.17v-7.7Z"/><path fill="url(#ITQkThChwQw7TjYb0dWa1j)" d="M36,8.01654v11.7a4.54707,4.54707,0,0,1-2,1.17v-11.87l.96-.48Z"/><path fill="url(#ITQkThChwQw7TjYb0dWa1e)" d="M36,17.01654v7.7a4.54707,4.54707,0,0,1-2,1.17v-7.87Z"/><path fill="url(#ITQkThChwQw7TjYb0dWa1k)" d="M38,9.01654v10.5a7.30575,7.30575,0,0,1-2,5.2v-14.7Z"/><path fill="url(#ITQkThChwQw7TjYb0dWa1l)" d="M38,15.01654v4.5a7.30575,7.30575,0,0,1-2,5.2v-8.7l.95-.48Z"/><path fill="url(#ITQkThChwQw7TjYb0dWa1m)" d="M34,7.01654v18.87a3.91115,3.91115,0,0,1-2,0v-17.87Z"/><path fill="url(#ITQkThChwQw7TjYb0dWa1n)" d="M34,12.01654v13.87a3.91115,3.91115,0,0,1-2,0v-14.87Z"/><path fill="url(#ITQkThChwQw7TjYb0dWa1o)" d="M34,19.01654v6.87a3.91115,3.91115,0,0,1-2,0v-5.87Z"/></svg>