<svg xmlns="http://www.w3.org/2000/svg" xmlns:xlink="http://www.w3.org/1999/xlink" data-name="Слой 1" viewBox="0 0 48 48"><defs><linearGradient id="X7MkMcBRh0LJVyhCjVqpxa" x1="-13.584" x2="88.842" y1="-75.277" y2="206.137" data-name="Безымянный градиент 14" gradientUnits="userSpaceOnUse"><stop offset="0" stop-color="#42a3f2"/><stop offset="1" stop-color="#42a4eb"/></linearGradient><linearGradient id="X7MkMcBRh0LJVyhCjVqpxc" x1=".992" x2="15.29" y1="6.832" y2="46.116" xlink:href="#X7MkMcBRh0LJVyhCjVqpxa"/><linearGradient id="X7MkMcBRh0LJVyhCjVqpxd" x1="36.992" x2="51.29" y1="6.832" y2="46.116" gradientTransform="matrix(-1 0 0 1 84 0)" xlink:href="#X7MkMcBRh0LJVyhCjVqpxa"/><linearGradient id="X7MkMcBRh0LJVyhCjVqpxb" x1="11.25" x2="36.75" y1="14.591" y2="14.591" data-name="Безымянный градиент 5" gradientUnits="userSpaceOnUse"><stop offset="0" stop-color="#3079d6"/><stop offset="1" stop-color="#297cd2"/></linearGradient><linearGradient id="X7MkMcBRh0LJVyhCjVqpxe" x1="17" x2="31" y1="34.591" y2="34.591" gradientTransform="matrix(1 0 0 -1 0 65.182)" xlink:href="#X7MkMcBRh0LJVyhCjVqpxb"/></defs><path fill="#565b5e" d="M8,36.59091h8a0,0,0,0,1,0,0v6a1,1,0,0,1-1,1H9a1,1,0,0,1-1-1v-6A0,0,0,0,1,8,36.59091Z"/><path fill="#565b5e" d="M32,36.59091h8a0,0,0,0,1,0,0v6a1,1,0,0,1-1,1H33a1,1,0,0,1-1-1v-6A0,0,0,0,1,32,36.59091Z"/><path fill="url(#X7MkMcBRh0LJVyhCjVqpxa)" d="M38,39.59091H10a2,2,0,0,1-2-2V23.08333a4,4,0,0,1,.11943-.97014L11.62127,8.10584a2,2,0,0,1,1.94028-1.51493h20.8769a2,2,0,0,1,1.94028,1.51493l3.50184,14.00735A4,4,0,0,1,40,23.08333V37.59091A2,2,0,0,1,38,39.59091Z"/><path fill="url(#X7MkMcBRh0LJVyhCjVqpxc)" d="M5,22.59091H9v-2a1.99945,1.99945,0,0,0-2-2H4a1.00036,1.00036,0,0,0-1,1v1A1.99945,1.99945,0,0,0,5,22.59091Z"/><path fill="url(#X7MkMcBRh0LJVyhCjVqpxd)" d="M43,22.59091H39v-2a1.99945,1.99945,0,0,1,2-2h3a1.00036,1.00036,0,0,1,1,1v1A1.99945,1.99945,0,0,1,43,22.59091Z"/><path fill="url(#X7MkMcBRh0LJVyhCjVqpxb)" d="M33.20324,8.59091H14.79676a1,1,0,0,0-.97474.77662L11.25,20.59091h25.5L34.178,9.36753A1,1,0,0,0,33.20324,8.59091Z"/><path fill="url(#X7MkMcBRh0LJVyhCjVqpxe)" d="M28.30575,33.59091h-8.6115a2,2,0,0,1-1.97278-1.6712L17,27.59091H31l-.72147,4.3288A2,2,0,0,1,28.30575,33.59091Z"/><circle cx="12.5" cy="27.091" r="2.5" fill="#fff"/><circle cx="35.5" cy="27.091" r="2.5" fill="#fff"/></svg>