<svg xmlns="http://www.w3.org/2000/svg" viewBox="0 0 48 48"><linearGradient id="61Jl_9ewMsREF4MAs3XeFa" x1="24" x2="24" y1="4.049" y2="42.608" gradientUnits="userSpaceOnUse"><stop offset="0" stop-color="#c26715"/><stop offset=".508" stop-color="#b85515"/><stop offset="1" stop-color="#ad3f16"/></linearGradient><path fill="url(#61Jl_9ewMsREF4MAs3XeFa)" d="M42,17.394c0-0.871-0.435-1.684-1.16-2.168L25.613,5.075c-0.977-0.651-2.249-0.651-3.226,0	L7.16,15.226C6.435,15.71,6,16.523,6,17.394c0,1.229,0.855,2.254,2,2.528V39c0,1.657,1.343,3,3,3h26c1.657,0,3-1.343,3-3V19.922	C41.145,19.648,42,18.623,42,17.394z"/><path fill="#fff" d="M29,40H19c-0.552,0-1-0.448-1-1V26c0-3.314,2.686-6,6-6l0,0c3.314,0,6,2.686,6,6v13	C30,39.552,29.552,40,29,40z"/><linearGradient id="61Jl_9ewMsREF4MAs3XeFb" x1="24" x2="24" y1="22.752" y2="38.58" gradientUnits="userSpaceOnUse"><stop offset="0" stop-color="#f44f5a"/><stop offset=".443" stop-color="#ee3d4a"/><stop offset="1" stop-color="#e52030"/></linearGradient><path fill="url(#61Jl_9ewMsREF4MAs3XeFb)" d="M24,22L24,22c-2.209,0-4,1.791-4,4v12h8V26C28,23.791,26.209,22,24,22z"/><path fill="#fff" d="M24,6c-0.552,0-1,0.448-1,1s0.448,1,1,1s1-0.448,1-1S24.552,6,24,6z"/><path fill="#f4ff32" d="M27,8c-0.552,0-1,0.448-1,1s0.448,1,1,1s1-0.448,1-1S27.552,8,27,8z"/><path fill="#fff" d="M30,10c-0.552,0-1,0.448-1,1s0.448,1,1,1s1-0.448,1-1S30.552,10,30,10z"/><path fill="#f4ff32" d="M33,12c-0.552,0-1,0.448-1,1s0.448,1,1,1s1-0.448,1-1S33.552,12,33,12z"/><path fill="#fff" d="M36,14c-0.552,0-1,0.448-1,1s0.448,1,1,1s1-0.448,1-1S36.552,14,36,14z"/><path fill="#f4ff32" d="M39,16c-0.552,0-1,0.448-1,1s0.448,1,1,1s1-0.448,1-1S39.552,16,39,16z"/><path fill="#fff" d="M37,22c-0.552,0-1,0.448-1,1s0.448,1,1,1s1-0.448,1-1S37.552,22,37,22z"/><path fill="#f4ff32" d="M37,26c-0.552,0-1,0.448-1,1s0.448,1,1,1s1-0.448,1-1S37.552,26,37,26z"/><path fill="#fff" d="M37,30c-0.552,0-1,0.448-1,1s0.448,1,1,1s1-0.448,1-1S37.552,30,37,30z"/><path fill="#f4ff32" d="M37,34c-0.552,0-1,0.448-1,1s0.448,1,1,1s1-0.448,1-1S37.552,34,37,34z"/><path fill="#fff" d="M37,38c-0.552,0-1,0.448-1,1s0.448,1,1,1s1-0.448,1-1S37.552,38,37,38z"/><circle cx="33" cy="39" r="1" fill="#f4ff32"/><circle cx="15" cy="39" r="1" fill="#f4ff32"/><path fill="#fff" d="M11,22c-0.552,0-1,0.448-1,1s0.448,1,1,1s1-0.448,1-1S11.552,22,11,22z"/><circle cx="11" cy="27" r="1" fill="#f4ff32"/><circle cx="12" cy="19" r="1" fill="#f4ff32"/><circle cx="36" cy="19" r="1" fill="#f4ff32"/><path fill="#fff" d="M11,30c-0.552,0-1,0.448-1,1s0.448,1,1,1s1-0.448,1-1S11.552,30,11,30z"/><path fill="#f4ff32" d="M11,34c-0.552,0-1,0.448-1,1s0.448,1,1,1s1-0.448,1-1S11.552,34,11,34z"/><path fill="#fff" d="M11,38c-0.552,0-1,0.448-1,1s0.448,1,1,1s1-0.448,1-1S11.552,38,11,38z"/><path fill="#f4ff32" d="M21,8c-0.552,0-1,0.448-1,1s0.448,1,1,1s1-0.448,1-1S21.552,8,21,8z"/><path fill="#fff" d="M18,10c-0.552,0-1,0.448-1,1s0.448,1,1,1s1-0.448,1-1S18.552,10,18,10z"/><path fill="#f4ff32" d="M15,12c-0.552,0-1,0.448-1,1s0.448,1,1,1s1-0.448,1-1S15.552,12,15,12z"/><path fill="#fff" d="M12,14c-0.552,0-1,0.448-1,1s0.448,1,1,1s1-0.448,1-1S12.552,14,12,14z"/><circle cx="9" cy="17" r="1" fill="#f4ff32"/><circle cx="24" cy="15" r="2" fill="#fff"/></svg>