<svg xmlns="http://www.w3.org/2000/svg" id="Layer_1" x="0" y="0" version="1.1" viewBox="0 0 48 48" xml:space="preserve"><linearGradient id="SVGID_1_" x1="1.298" x2="43.51" y1="8.575" y2="37.256" gradientUnits="userSpaceOnUse"><stop offset="0" stop-color="#7dd8f3"/><stop offset="1" stop-color="#45b0d0"/></linearGradient><path fill="url(#SVGID_1_)" d="M44.1,39H3.9C1.7,39,0,37.3,0,35.2V12.8C0,10.7,1.7,9,3.9,9h40.3c2.1,0,3.9,1.7,3.9,3.8v22.4	C48,37.3,46.3,39,44.1,39z"/><path fill="#0f94bf" d="M22.4,33c-0.5-0.2-2.9-0.6-3.4-4c-2.4,1.1-4.6,0.8-5.6,0.6c1.3,1.9,3.6,3.5,7.9,3.5C21.7,33,22,33,22.4,33z"/><path fill="#0f94bf" d="M18.8,29c-1.4,0.5-3.8,0.6-5.3,0.6c0.3,0.4,0.6,0.8,1,1.1c1.2,0,2.9-0.1,4.8-0.6c0.3-0.1,0.4-0.5,0.3-0.8	C19.4,29,19.1,28.9,18.8,29z M21.3,27.2c-0.6,0-1.2,0.5-1.2,1.2c0,0.6,0.5,1.2,1.2,1.2s1.2-0.5,1.2-1.2C22.5,27.7,22,27.2,21.3,27.2	L21.3,27.2z"/><path fill="#0f94bf" d="M21.3,27.8c-0.3,0-0.6,0.3-0.6,0.6c0,0.3,0.3,0.6,0.6,0.6s0.6-0.3,0.6-0.6C21.9,28,21.6,27.8,21.3,27.8z M22.4,33c-0.5-0.2-2.9-0.6-3.4-4c-2.4,1.1-4.6,0.8-5.6,0.6c1.3,1.9,3.6,3.5,7.9,3.5C21.7,33,22,33,22.4,33z"/><path fill="#0f94bf" d="M18.8,29c-1.4,0.5-3.8,0.6-5.3,0.6c0.3,0.4,0.6,0.8,1,1.1c1.2,0,2.9-0.1,4.8-0.6c0.3-0.1,0.4-0.5,0.3-0.8	C19.4,29,19.1,28.9,18.8,29z M21.3,27.2c-0.6,0-1.2,0.5-1.2,1.2c0,0.6,0.5,1.2,1.2,1.2s1.2-0.5,1.2-1.2C22.5,27.7,22,27.2,21.3,27.2	L21.3,27.2z"/><path fill="#0f94bf" d="M21.3,27.8c-0.3,0-0.6,0.3-0.6,0.6c0,0.3,0.3,0.6,0.6,0.6s0.6-0.3,0.6-0.6C21.9,28,21.6,27.8,21.3,27.8z"/><path fill="#0f94bf" d="M12.3,27c0.7,2.6,2.7,6,9.1,6c6.1,0,9.3-3.3,10.9-6H12.3z"/><path fill="#0f94bf" d="M36,21c-0.9,0-1.6,0.3-2,0.6c0-1.1-0.2-2.3-1.6-3.6c-1.1,1-1.4,1.9-1.4,2.8c0,0.9,0.5,1.8,1,2.3 c0,0-0.7,0.9-3,0.9v-3h-3v-6h-3v3h-6v3h-3v3c-1.2,0-2,0-2,0s-0.1,0.8,0.1,1.9c0.6-0.1,1-0.4,1.4-0.9c0.5,0.6,1,1,2,1s1.5-0.4,2-1 c0.5,0.6,1,1,2,1s1.5-0.4,2-1c0.5,0.6,1,1,2,1s1.5-0.4,2-1c0.5,0.6,1,1,2,1s1.5-0.4,2-1c0.5,0.6,1,1,2,1c0.6,0,1.1-0.2,1.4-0.4 c0.3-0.7,0.5-1.3,0.6-1.6c0.2,0,0.4,0,0.7,0c1.2,0,3.2-0.1,3.8-2.6C37.3,21.1,36.6,21,36,21z"/><path fill="#0f94bf" d="M33.5,27H36v-1.1c-0.2,0-0.3,0.1-0.5,0.1c-1,0-1.5-0.4-2-1c-0.2,0.2-0.4,0.4-0.6,0.6c-0.2,0.4-0.4,0.9-0.7,1.4	H33.5z"/></svg>