<svg xmlns="http://www.w3.org/2000/svg" viewBox="0 0 48 48"><linearGradient id="_ZJXps6EwJMM2RLUi8VeGa" x1="24" x2="24" y1="3.991" y2="8.008" gradientUnits="userSpaceOnUse"><stop offset="0" stop-color="#484b4f"/><stop offset="1" stop-color="#5d646a"/></linearGradient><rect width="4" height="4" x="22" y="4" fill="url(#_ZJXps6EwJMM2RLUi8VeGa)"/><linearGradient id="_ZJXps6EwJMM2RLUi8VeGb" x1="43.243" x2="43.243" y1="9.591" y2="12.131" gradientTransform="rotate(45.001 39 5)" gradientUnits="userSpaceOnUse"><stop offset="0" stop-color="#484b4f"/><stop offset="1" stop-color="#5d646a"/></linearGradient><polygon fill="url(#_ZJXps6EwJMM2RLUi8VeGb)" points="38.211,14.289 35.711,11.789 37.5,10 40,12.5"/><linearGradient id="_ZJXps6EwJMM2RLUi8VeGc" x1="23.109" x2="24.677" y1=".773" y2="4.691" gradientUnits="userSpaceOnUse"><stop offset="0" stop-color="#8795a1"/><stop offset="1" stop-color="#6d7882"/></linearGradient><path fill="url(#_ZJXps6EwJMM2RLUi8VeGc)" d="M27,5h-6c-0.552,0-1-0.448-1-1V2c0-0.552,0.448-1,1-1h6c0.552,0,1,0.448,1,1v2	C28,4.552,27.552,5,27,5z"/><linearGradient id="_ZJXps6EwJMM2RLUi8VeGd" x1="38.649" x2="41.471" y1="7.167" y2="13.084" gradientUnits="userSpaceOnUse"><stop offset="0" stop-color="#8795a1"/><stop offset="1" stop-color="#6d7882"/></linearGradient><path fill="url(#_ZJXps6EwJMM2RLUi8VeGd)" d="M40,12.718L37.282,10c-0.375-0.375-0.375-0.984,0-1.359l1.359-1.359	c0.375-0.375,0.984-0.375,1.359,0L42.718,10c0.375,0.375,0.375,0.984,0,1.359l-1.359,1.359C40.984,13.094,40.375,13.094,40,12.718z"/><linearGradient id="_ZJXps6EwJMM2RLUi8VeGe" x1="10.565" x2="37.435" y1="12.565" y2="39.435" gradientUnits="userSpaceOnUse"><stop offset="0" stop-color="#889097"/><stop offset="1" stop-color="#64717c"/></linearGradient><circle cx="24" cy="26" r="19" fill="url(#_ZJXps6EwJMM2RLUi8VeGe)"/><radialGradient id="_ZJXps6EwJMM2RLUi8VeGf" cx="24" cy="26" r="18.5" gradientTransform="translate(1.297 1.405) scale(.9459)" gradientUnits="userSpaceOnUse"><stop offset=".842" stop-opacity=".2"/><stop offset="1" stop-opacity="0"/></radialGradient><circle cx="24" cy="26" r="17.5" fill="url(#_ZJXps6EwJMM2RLUi8VeGf)"/><radialGradient id="_ZJXps6EwJMM2RLUi8VeGg" cx="23.89" cy="9.394" r="37.883" gradientTransform="translate(1.412 1.53) scale(.9412)" gradientUnits="userSpaceOnUse"><stop offset="0" stop-color="#fafafb"/><stop offset="1" stop-color="#c8cdd1"/></radialGradient><circle cx="24" cy="26" r="16" fill="url(#_ZJXps6EwJMM2RLUi8VeGg)"/><path fill="#45494d" d="M24,27c-0.256,0-0.512-0.098-0.707-0.293l-8.485-8.485c-0.391-0.391-0.391-1.023,0-1.414	s1.023-0.391,1.414,0l8.485,8.485c0.391,0.391,0.391,1.023,0,1.414C24.512,26.902,24.256,27,24,27z"/><circle cx="24" cy="26" r="2" fill="#1e2021"/></svg>