<svg xmlns="http://www.w3.org/2000/svg" viewBox="0 0 48 48"><path fill="#787e85" d="M35,42H8c-1.104,0-2-0.896-2-2s0.896-2,2-2h27c2.757,0,5-2.243,5-5s-2.243-5-5-5H13	c-4.962,0-9-4.037-9-9s4.038-9,9-9h3c1.104,0,2,0.896,2,2s-0.896,2-2,2h-3c-2.757,0-5,2.243-5,5s2.243,5,5,5h22c4.962,0,9,4.037,9,9	S39.962,42,35,42z"/><path fill="#edbe00" d="M44,14h-7v-4h7c1.104,0,2,0.896,2,2l0,0C46,13.104,45.104,14,44,14z"/><linearGradient id="SBWnnTyDCSoAj4oHQbqAia" x1="24.597" x2="27.036" y1="7.6" y2="17.812" gradientUnits="userSpaceOnUse"><stop offset="0" stop-color="#899198"/><stop offset="1" stop-color="#787e85"/></linearGradient><path fill="url(#SBWnnTyDCSoAj4oHQbqAia)" d="M21.155,7.422L16,10v4l5.155,2.578C21.711,16.855,22.323,17,22.944,17H33c1.105,0,2-0.895,2-2	V9c0-1.105-0.895-2-2-2H22.944C22.323,7,21.711,7.145,21.155,7.422z"/><rect width="2" height="4" x="35" y="10" fill="#e3a600"/><rect width="2" height="4" x="41" y="10" fill="#e3a600"/></svg>