<svg xmlns="http://www.w3.org/2000/svg" viewBox="0 0 48 48"><linearGradient id="0B2Pl1zXuzDm_8BG_4suUa" x1="24" x2="24" y1="3.5" y2="26.897" gradientUnits="userSpaceOnUse"><stop offset="0" stop-color="#f44f5a"/><stop offset=".443" stop-color="#ee3d4a"/><stop offset="1" stop-color="#e52030"/></linearGradient><path fill="url(#0B2Pl1zXuzDm_8BG_4suUa)" d="M10,26c-0.067-0.081-3-2.456-3-6c0-4.191,5.878-16,17.093-16C35.187,4,41,15.84,41,20	c0,3.799-2.837,5.815-3,6h-2c0,0,1.625-10-12-10S12,26,12,26H10z"/><linearGradient id="0B2Pl1zXuzDm_8BG_4suUb" x1="10.981" x2="6.106" y1="29.498" y2="29.498" gradientUnits="userSpaceOnUse"><stop offset="0" stop-color="#c48f0c"/><stop offset=".251" stop-color="#d19b16"/><stop offset=".619" stop-color="#dca51f"/><stop offset="1" stop-color="#e0a922"/></linearGradient><path fill="url(#0B2Pl1zXuzDm_8BG_4suUb)" d="M11.421,35c-0.088,0-0.179-0.001-0.273-0.003L11,34.996c-2.528,0-5-3.581-5-7	c0-2.626,1.509-4,3-4c1.18,0,3.053,0.576,4.449,2.199l0.271,0.317l-0.746,8.231l-0.687,0.18C12.05,34.986,11.762,35,11.421,35z"/><linearGradient id="0B2Pl1zXuzDm_8BG_4suUc" x1="36.85" x2="41.82" y1="29.498" y2="29.498" gradientUnits="userSpaceOnUse"><stop offset="0" stop-color="#c48f0c"/><stop offset=".251" stop-color="#d19b16"/><stop offset=".619" stop-color="#dca51f"/><stop offset="1" stop-color="#e0a922"/></linearGradient><path fill="url(#0B2Pl1zXuzDm_8BG_4suUc)" d="M35.712,34.924l-0.687-0.18l-0.746-8.231l0.271-0.317c1.396-1.623,3.27-2.199,4.449-2.199	c1.491,0,3,1.374,3,4c0,3.419-2.472,7-5,7l-0.147,0.001C36.758,34.999,36.667,35,36.579,35C36.238,35,35.95,34.986,35.712,34.924z"/><path fill="#fff" d="M24,7c-2.761,0-5,2.239-5,5s2.239,5,5,5s5-2.239,5-5S26.761,7,24,7z"/><path fill="#f44336" d="M21.425,12.933c0,0-1.388-0.7-1.425-0.8c-0.036-0.101,2.338-4.1,2.338-4.1L23.982,9.6L25.699,8	L28,12.133L26.575,13l-1.132-3.333l-1.388,1.567l-1.535-1.6L21.425,12.933z"/><radialGradient id="0B2Pl1zXuzDm_8BG_4suUd" cx="24" cy="30" r="13.509" gradientUnits="userSpaceOnUse"><stop offset="0" stop-color="#ffcf54"/><stop offset=".261" stop-color="#fdcb4d"/><stop offset=".639" stop-color="#f7c13a"/><stop offset="1" stop-color="#f0b421"/></radialGradient><path fill="url(#0B2Pl1zXuzDm_8BG_4suUd)" d="M24,44c-2.726,0-4.058-0.804-5.346-1.581c-0.344-0.207-0.698-0.422-1.098-0.63	c-0.215-0.113-0.475-0.229-0.763-0.356C14.729,40.509,11,38.432,11,33c0-1.112,0.169-2.447,0.419-3.94C11.593,28.02,12,26.434,12,26	c0-0.717-0.493-3.789-1-5l0,0c0,0,3.417-5,13-5s12,5,12,5h1c-0.507,1.211-1,4.283-1,5c0,0.434,0.406,2.02,0.58,3.06	C36.83,30.553,37,31.888,37,33c0,5.432-3.73,7.509-5.796,8.433c-0.287,0.129-0.547,0.244-0.762,0.356	c-0.399,0.208-0.755,0.423-1.099,0.631C28.057,43.196,26.725,44,24,44z"/><ellipse cx="29" cy="26.5" fill="#fff" rx="2" ry="2.5"/><ellipse cx="19" cy="26.5" fill="#fff" rx="2" ry="2.5"/><ellipse cx="28.5" cy="27" fill="#35c1f1" rx="1.5" ry="2"/><ellipse cx="19.5" cy="27" fill="#35c1f1" rx="1.5" ry="2"/><linearGradient id="0B2Pl1zXuzDm_8BG_4suUe" x1="28" x2="28" y1="26.007" y2="29.158" gradientUnits="userSpaceOnUse"><stop offset="0" stop-color="#6d7479"/><stop offset="1" stop-color="#323538"/></linearGradient><ellipse cx="28" cy="27.5" fill="url(#0B2Pl1zXuzDm_8BG_4suUe)" rx="1" ry="1.5"/><linearGradient id="0B2Pl1zXuzDm_8BG_4suUf" x1="20" x2="20" y1="26.032" y2="29.042" gradientUnits="userSpaceOnUse"><stop offset="0" stop-color="#6d7479"/><stop offset="1" stop-color="#323538"/></linearGradient><ellipse cx="20" cy="27.5" fill="url(#0B2Pl1zXuzDm_8BG_4suUf)" rx="1" ry="1.5"/><linearGradient id="0B2Pl1zXuzDm_8BG_4suUg" x1="29.5" x2="29.5" y1="19.411" y2="23.929" gradientUnits="userSpaceOnUse"><stop offset="0" stop-color="#6d7479"/><stop offset="1" stop-color="#323538"/></linearGradient><path fill="url(#0B2Pl1zXuzDm_8BG_4suUg)" d="M33,23c0,0-1.3-1.021-2.934-1.021S26,24,26,24s1.23-3.977,3.92-3.977S33,23,33,23z"/><linearGradient id="0B2Pl1zXuzDm_8BG_4suUh" x1="29.5" x2="29.5" y1="19.411" y2="23.929" gradientTransform="matrix(-1 0 0 1 48 0)" gradientUnits="userSpaceOnUse"><stop offset="0" stop-color="#6d7479"/><stop offset="1" stop-color="#323538"/></linearGradient><path fill="url(#0B2Pl1zXuzDm_8BG_4suUh)" d="M18.08,20.023C20.77,20.023,22,24,22,24s-2.432-2.021-4.066-2.021S15,23,15,23	S15.39,20.023,18.08,20.023z"/><linearGradient id="0B2Pl1zXuzDm_8BG_4suUi" x1="23.998" x2="23.998" y1="26.994" y2="38.644" gradientUnits="userSpaceOnUse"><stop offset="0" stop-color="#6d7479"/><stop offset="1" stop-color="#323538"/></linearGradient><path fill="url(#0B2Pl1zXuzDm_8BG_4suUi)" d="M33.999,33.436c0,1.296-1.073,2.301-1.888,2.301c-0.252,1.565-1.245,2.23-2.247,2.23	s-1.528-0.353-1.528-0.353s-1.016,1.352-2.338,1.352c-1.166,0-2.021-0.592-2.021-0.592S23.205,39,22.111,39	c-1.407,0-2.331-1.296-2.447-1.409c-0.067,0.031-0.583,0.38-1.47,0.38c-2.051,0-2.265-2.208-2.265-2.208s-1.931-0.116-1.931-2.395	c0-1.934,0.605-2.369,0.605-2.369s0.346,1.416,4.246,2.099c0.471,1.929,2.596,3.386,5.149,3.386c2.551,0,4.674-1.453,5.148-3.38	c2.079-0.355,3.475-1.005,4.269-2.081C33.417,31.023,33.999,31.492,33.999,33.436z"/><radialGradient id="0B2Pl1zXuzDm_8BG_4suUj" cx="23.947" cy="27.581" r="8.89" gradientUnits="userSpaceOnUse"><stop offset="0" stop-color="#ffe299"/><stop offset=".213" stop-color="#ffe092"/><stop offset=".522" stop-color="#ffda7f"/><stop offset=".889" stop-color="#ffd05f"/><stop offset="1" stop-color="#ffcd54"/></radialGradient><path fill="url(#0B2Pl1zXuzDm_8BG_4suUj)" d="M24,37c-3.309,0-6-2.243-6-5s2.691-5,6-5s6,2.243,6,5S27.309,37,24,37z"/><path fill="#943921" d="M37,22c0,0-0.119,9.03-0.052,9.886C35.702,28.862,34,28,34,28v-6H37z M11,22	c0,0,0.119,9.03,0.052,9.886C12.298,28.862,14,28,14,28v-6H11z"/><path fill="#ff757e" d="M10,20c0,1.824,1,3,1,3c1.5,2.313,3,0,3,0c0.044-0.04,3.146-4,10-4s9.956,3.96,10,4	c0,0,1.5,2.313,3,0c0,0,1-1.176,1-3c0-0.939-2.992-7-14-7S10,19.061,10,20z"/></svg>