<svg xmlns="http://www.w3.org/2000/svg" data-name="Layer 1" viewBox="0 0 48 48"><defs><linearGradient id="mue4oMCcc9IEaDqmcgEwib" x1="32" x2="32" y1="14" y2="21.749" data-name="Новый образец градиентной зал 5" gradientUnits="userSpaceOnUse"><stop offset="0" stop-color="#f9f9f9"/><stop offset=".26" stop-color="#f0f1f2"/><stop offset=".678" stop-color="#d9dcdf"/><stop offset="1" stop-color="#c2c8cc"/></linearGradient><linearGradient id="mue4oMCcc9IEaDqmcgEwic" x1="32" x2="32" y1="8.309" y2="16.651" data-name="Новый образец градиентной зал 3" gradientUnits="userSpaceOnUse"><stop offset="0" stop-color="#32bdef"/><stop offset="1" stop-color="#1ea2e4"/></linearGradient><linearGradient id="mue4oMCcc9IEaDqmcgEwid" x1="32" x2="32" y1="5.013" y2="13.601" gradientUnits="userSpaceOnUse"><stop offset=".002" stop-color="#427fdb"/><stop offset=".397" stop-color="#2668cb"/><stop offset=".763" stop-color="#1358bf"/><stop offset="1" stop-color="#0c52bb"/></linearGradient><linearGradient id="mue4oMCcc9IEaDqmcgEwie" x1="24.01" x2="24.01" y1="13.206" y2="57.543" gradientUnits="userSpaceOnUse"><stop offset="0" stop-color="#e83c67"/><stop offset=".423" stop-color="#c5214a"/><stop offset=".773" stop-color="#b01038"/><stop offset="1" stop-color="#a80a31"/></linearGradient><radialGradient id="mue4oMCcc9IEaDqmcgEwia" cx="17.986" cy="21.303" r="27.458" gradientTransform="matrix(.95311 0 0 .97429 -7.362 .873)" gradientUnits="userSpaceOnUse"><stop offset="0" stop-color="#f09701"/><stop offset="1" stop-color="#e36001"/></radialGradient></defs><ellipse cx="18" cy="20.474" fill="url(#mue4oMCcc9IEaDqmcgEwia)" rx="9" ry="8.474"/><path fill="#21a366" d="M13.72505,15c2.925,0,4.275-3,4.275-3H9S10.8,15,13.72505,15Z"/><path fill="#33c481" d="M18.00009,12a4.774,4.774,0,0,0-4.275-3C10.575,9,9,12,9,12Z"/><path fill="url(#mue4oMCcc9IEaDqmcgEwib)" d="M38.18,16.5c-.11-.28-.23-.56-.36-.83L37.49,15l-.24-.49L36.51,13H27.49l-.74,1.51-.24.49-.33.67c-.13.27-.25.55-.36.83A11.695,11.695,0,0,0,25,20.8v.7H39v-.7A11.695,11.695,0,0,0,38.18,16.5Z"/><polygon fill="url(#mue4oMCcc9IEaDqmcgEwic)" points="37.49 15 26.51 15 26.75 14.51 27.49 13 29.2 9.5 34.8 9.5 36.51 13 37.25 14.51 37.49 15"/><rect width="8" height="3" x="28" y="7" fill="url(#mue4oMCcc9IEaDqmcgEwid)" rx="1.5"/><path fill="url(#mue4oMCcc9IEaDqmcgEwie)" d="M43.61,21.26,43.2,24l-.06.4L40.79,40.13A2.2042,2.2042,0,0,1,38.61,42H9.39a2.2042,2.2042,0,0,1-2.18-1.87L4.88,24.4,4.82,24l-.41-2.74A1.09257,1.09257,0,0,1,5.5,20H42.52A1.09257,1.09257,0,0,1,43.61,21.26Z"/><path fill="#f44f78" d="M43.61,21.26,43.2,24H4.82l-.41-2.74A1.09257,1.09257,0,0,1,5.5,20H42.52A1.09257,1.09257,0,0,1,43.61,21.26Z"/><g><path d="M23.99964,26.62745a1.12237,1.12237,0,0,1,.79334.327l5.021,4.994a.60527.60527,0,0,1-.427,1.035H26v6.25a.75027.75027,0,0,1-.75.75h-2.5a.75027.75027,0,0,1-.75-.75v-6.25H18.613a.6053.6053,0,0,1-.427-1.035l5.021-4.994a1.12008,1.12008,0,0,1,.79266-.327m0-1a2.11,2.11,0,0,0-1.49811.61829l-5.02075,4.99371a1.60529,1.60529,0,0,0,1.1322,2.744H21v5.25a1.752,1.752,0,0,0,1.75,1.75h2.5a1.752,1.752,0,0,0,1.75-1.75v-5.25h2.387a1.6053,1.6053,0,0,0,1.13135-2.74493l-5.02014-4.993a2.11272,2.11272,0,0,0-1.49854-.618Z" opacity=".05"/><path d="M23.99964,26.62745a1.12237,1.12237,0,0,1,.79334.327l5.021,4.994a.60527.60527,0,0,1-.427,1.035H26v6.25a.75027.75027,0,0,1-.75.75h-2.5a.75027.75027,0,0,1-.75-.75v-6.25H18.613a.6053.6053,0,0,1-.427-1.035l5.021-4.994a1.12008,1.12008,0,0,1,.79266-.327m0-.5a1.61309,1.61309,0,0,0-1.14538.47266l-5.02088,4.99383a1.10531,1.10531,0,0,0,.7796,1.88953H21.5v5.75a1.25139,1.25139,0,0,0,1.25,1.25h2.5a1.25139,1.25139,0,0,0,1.25-1.25v-5.75h2.887a1.10525,1.10525,0,0,0,.77917-1.88995L25.14558,26.6a1.61576,1.61576,0,0,0-1.14594-.47254Z" opacity=".07"/><path fill="#fed100" d="M18.613,32.98346H22v6.25a.75027.75027,0,0,0,.75.75h2.5a.75027.75027,0,0,0,.75-.75v-6.25h3.387a.60526.60526,0,0,0,.427-1.035l-5.021-4.994a1.125,1.125,0,0,0-1.586,0l-5.021,4.994A.60526.60526,0,0,0,18.613,32.98346Z"/></g></svg>