<svg xmlns="http://www.w3.org/2000/svg" viewBox="0 0 48 48"><linearGradient id="GCuhvvsiCpsXRMDoPez4Wa" x1="40" x2="42" y1="17" y2="17" gradientUnits="userSpaceOnUse"><stop offset="0" stop-color="#3079d6"/><stop offset="1" stop-color="#297cd2"/></linearGradient><rect width="2" height="12" x="40" y="11" fill="url(#GCuhvvsiCpsXRMDoPez4Wa)"/><linearGradient id="GCuhvvsiCpsXRMDoPez4Wb" x1="6" x2="8" y1="17" y2="17" gradientUnits="userSpaceOnUse"><stop offset="0" stop-color="#3079d6"/><stop offset="1" stop-color="#297cd2"/></linearGradient><rect width="2" height="12" x="6" y="11" fill="url(#GCuhvvsiCpsXRMDoPez4Wb)"/><linearGradient id="GCuhvvsiCpsXRMDoPez4Wc" x1="10" x2="12" y1="35" y2="35" gradientUnits="userSpaceOnUse"><stop offset="0" stop-color="#3079d6"/><stop offset="1" stop-color="#297cd2"/></linearGradient><path fill="url(#GCuhvvsiCpsXRMDoPez4Wc)" d="M11,42c-0.553,0-1-0.447-1-1V29c0-0.553,0.447-1,1-1s1,0.447,1,1v12	C12,41.553,11.553,42,11,42z"/><linearGradient id="GCuhvvsiCpsXRMDoPez4Wd" x1="12" x2="24" y1="23" y2="23" gradientUnits="userSpaceOnUse"><stop offset="0" stop-color="#3079d6"/><stop offset="1" stop-color="#297cd2"/></linearGradient><line x1="23" x2="13" y1="23" y2="23" fill="none" stroke="url(#GCuhvvsiCpsXRMDoPez4Wd)" stroke-linecap="round" stroke-miterlimit="10" stroke-width="2"/><linearGradient id="GCuhvvsiCpsXRMDoPez4We" x1="9" x2="13" y1="41" y2="41" gradientUnits="userSpaceOnUse"><stop offset="0" stop-color="#3079d6"/><stop offset="1" stop-color="#297cd2"/></linearGradient><path fill="url(#GCuhvvsiCpsXRMDoPez4We)" d="M12,42h-2c-0.553,0-1-0.447-1-1s0.447-1,1-1h2c0.553,0,1,0.447,1,1S12.553,42,12,42z"/><path fill="#cf1928" d="M39,6l0,3.357c0,1.308,0.941,2.499,2.242,2.63C42.739,12.137,44,10.966,44,9.5V7c0-0.552-0.448-1-1-1	H39z"/><path fill="#d9414f" d="M34,6v3.5c0,1.381,1.119,2.5,2.5,2.5S39,10.881,39,9.5V6H34z"/><path fill="#cf1928" d="M29,6v3.5c0,1.381,1.119,2.5,2.5,2.5S34,10.881,34,9.5V6H29z"/><path fill="#d9414f" d="M24,6v3.5c0,1.381,1.119,2.5,2.5,2.5S29,10.881,29,9.5V6H24z"/><path fill="#cf1928" d="M19,6v3.5c0,1.381,1.119,2.5,2.5,2.5S24,10.881,24,9.5V6H19z"/><path fill="#d9414f" d="M14,6v3.5c0,1.381,1.119,2.5,2.5,2.5S19,10.881,19,9.5V6H14z"/><path fill="#cf1928" d="M9,6v3.5c0,1.381,1.119,2.5,2.5,2.5S14,10.881,14,9.5V6H9z"/><path fill="#d9414f" d="M4,7l0,2.357c0,1.308,0.941,2.499,2.242,2.63C7.739,12.137,9,10.966,9,9.5V6H5C4.448,6,4,6.448,4,7z"/><linearGradient id="GCuhvvsiCpsXRMDoPez4Wf" x1="0" x2="42" y1="30" y2="30" gradientUnits="userSpaceOnUse"><stop offset="0" stop-color="#42a3f2"/><stop offset="1" stop-color="#42a4eb"/></linearGradient><path fill="url(#GCuhvvsiCpsXRMDoPez4Wf)" d="M1,23c-0.553,0-1,0.447-1,1s0.447,1,1,1h4c0.552,0,1,0.448,1,1v9c0,1.105,0.895,2,2,2h32	c1.105,0,2-0.895,2-2V23H1z"/><path fill="#586169" d="M37,37c0,2.761-2.239,5-5,5s-5-2.239-5-5s2.239-5,5-5S37,34.239,37,37"/><path fill="#999" d="M34,37c0,1.105-0.895,2-2,2s-2-0.895-2-2s0.895-2,2-2S34,35.895,34,37"/></svg>