<svg xmlns="http://www.w3.org/2000/svg" viewBox="0 0 48 48"><path fill="#50e6ff" d="M4,38V15h40v23c0,1.1-0.9,2-2,2H6C4.9,40,4,39.1,4,38z"/><linearGradient id="8HN1q9QfLuv~X5GNuaHOxa" x1="4.614" x2="42.936" y1="-198.259" y2="-190.467" gradientTransform="translate(0 206)" gradientUnits="userSpaceOnUse"><stop offset="0" stop-color="#0077d2"/><stop offset="1" stop-color="#0b59a2"/></linearGradient><path fill="url(#8HN1q9QfLuv~X5GNuaHOxa)" d="M44,10v5H4v-5c0-1.1,0.9-2,2-2h36C43.1,8,44,8.9,44,10z"/><linearGradient id="8HN1q9QfLuv~X5GNuaHOxb" x1="6.751" x2="8.032" y1="-195.584" y2="-193.731" gradientTransform="translate(0 206)" gradientUnits="userSpaceOnUse"><stop offset="0" stop-color="#75daff"/><stop offset="1" stop-color="#49bef1"/></linearGradient><circle cx="7.5" cy="11.5" r="1.5" fill="url(#8HN1q9QfLuv~X5GNuaHOxb)"/><linearGradient id="8HN1q9QfLuv~X5GNuaHOxc" x1="11.751" x2="13.032" y1="-195.584" y2="-193.731" gradientTransform="translate(0 206)" gradientUnits="userSpaceOnUse"><stop offset="0" stop-color="#75daff"/><stop offset="1" stop-color="#49bef1"/></linearGradient><circle cx="12.5" cy="11.5" r="1.5" fill="url(#8HN1q9QfLuv~X5GNuaHOxc)"/><linearGradient id="8HN1q9QfLuv~X5GNuaHOxd" x1="16.751" x2="18.032" y1="-195.584" y2="-193.731" gradientTransform="translate(0 206)" gradientUnits="userSpaceOnUse"><stop offset="0" stop-color="#75daff"/><stop offset="1" stop-color="#49bef1"/></linearGradient><circle cx="17.5" cy="11.5" r="1.5" fill="url(#8HN1q9QfLuv~X5GNuaHOxd)"/><radialGradient id="8HN1q9QfLuv~X5GNuaHOxe" cx="38.638" cy="38.489" r="12.383" gradientUnits="userSpaceOnUse"><stop offset="0"/><stop offset="1" stop-opacity="0"/></radialGradient><path fill="url(#8HN1q9QfLuv~X5GNuaHOxe)" d="M38,26c-6.617,0-12,5.383-12,12c0,0.683,0.071,1.348,0.181,2H42c1.1,0,2-0.9,2-2V27.623	C42.233,26.597,40.187,26,38,26z"/><linearGradient id="8HN1q9QfLuv~X5GNuaHOxf" x1="28.232" x2="42.912" y1="25.089" y2="44.493" gradientUnits="userSpaceOnUse"><stop offset="0" stop-color="#fcfcfc"/><stop offset=".95" stop-color="#c3c9cd"/></linearGradient><circle cx="38" cy="38" r="10" fill="url(#8HN1q9QfLuv~X5GNuaHOxf)"/><linearGradient id="8HN1q9QfLuv~X5GNuaHOxg" x1="37.251" x2="38.532" y1="36.916" y2="38.769" gradientUnits="userSpaceOnUse"><stop offset="0" stop-color="#737b80"/><stop offset=".473" stop-color="#686f74"/><stop offset="1" stop-color="#575c61"/></linearGradient><circle cx="38" cy="38" r="1.5" fill="url(#8HN1q9QfLuv~X5GNuaHOxg)"/><linearGradient id="8HN1q9QfLuv~X5GNuaHOxh" x1="31.251" x2="32.532" y1="36.916" y2="38.769" gradientUnits="userSpaceOnUse"><stop offset="0" stop-color="#737b80"/><stop offset=".473" stop-color="#686f74"/><stop offset="1" stop-color="#575c61"/></linearGradient><circle cx="32" cy="38" r="1.5" fill="url(#8HN1q9QfLuv~X5GNuaHOxh)"/><linearGradient id="8HN1q9QfLuv~X5GNuaHOxi" x1="43.251" x2="44.532" y1="36.916" y2="38.769" gradientUnits="userSpaceOnUse"><stop offset="0" stop-color="#737b80"/><stop offset=".473" stop-color="#686f74"/><stop offset="1" stop-color="#575c61"/></linearGradient><circle cx="44" cy="38" r="1.5" fill="url(#8HN1q9QfLuv~X5GNuaHOxi)"/></svg>