<svg xmlns="http://www.w3.org/2000/svg" viewBox="0 0 48 48"><linearGradient id="U3SLg~fgRXfIikUHe2NIoa" x1="5" x2="43" y1="13" y2="13" gradientUnits="userSpaceOnUse"><stop offset="0" stop-color="#ae4cd5"/><stop offset="1" stop-color="#ac4ad5"/></linearGradient><path fill="url(#U3SLg~fgRXfIikUHe2NIoa)" d="M29.377,5H18.623c-4.585,0-8.69,2.844-10.3,7.138L5,21h38l-3.323-8.862	C38.067,7.844,33.962,5,29.377,5z"/><linearGradient id="U3SLg~fgRXfIikUHe2NIob" x1="13.5" x2="13.5" y1="43" y2="21.075" gradientUnits="userSpaceOnUse"><stop offset=".273" stop-color="#912fbd"/><stop offset=".588" stop-color="#8f2ebb"/><stop offset=".758" stop-color="#892bb3"/><stop offset=".894" stop-color="#7e26a5"/><stop offset="1" stop-color="#701f94"/></linearGradient><path fill="url(#U3SLg~fgRXfIikUHe2NIob)" d="M5,40.5V41v1c0,0.552,0.448,1,1,1s1-0.448,1-1v-1h3v1c0,0.552,0.448,1,1,1s1-0.448,1-1v-1h3 v1c0,0.552,0.448,1,1,1s1-0.448,1-1v-1h3v1c0,0.552,0.448,1,1,1s1-0.448,1-1v-1v-0.5V21H5V40.5z"/><linearGradient id="U3SLg~fgRXfIikUHe2NIoc" x1="34.5" x2="34.5" y1="43" y2="21.075" gradientUnits="userSpaceOnUse"><stop offset=".273" stop-color="#912fbd"/><stop offset=".588" stop-color="#8f2ebb"/><stop offset=".758" stop-color="#892bb3"/><stop offset=".894" stop-color="#7e26a5"/><stop offset="1" stop-color="#701f94"/></linearGradient><path fill="url(#U3SLg~fgRXfIikUHe2NIoc)" d="M26,21v19.5V41v1c0,0.552,0.448,1,1,1s1-0.448,1-1v-1h3v1c0,0.552,0.448,1,1,1s1-0.448,1-1 v-1h3v1c0,0.552,0.448,1,1,1s1-0.448,1-1v-1h3v1c0,0.552,0.448,1,1,1s1-0.448,1-1v-1v-0.5V21H26z"/><linearGradient id="U3SLg~fgRXfIikUHe2NIod" x1="13.5" x2="13.5" y1="32.5" y2="36.486" gradientUnits="userSpaceOnUse"><stop offset="0" stop-color="#fede00"/><stop offset="1" stop-color="#ffd000"/></linearGradient><rect width="17" height="4" x="5" y="32.5" fill="url(#U3SLg~fgRXfIikUHe2NIod)"/><linearGradient id="U3SLg~fgRXfIikUHe2NIoe" x1="34.5" x2="34.5" y1="33" y2="36.986" gradientUnits="userSpaceOnUse"><stop offset="0" stop-color="#fede00"/><stop offset="1" stop-color="#ffd000"/></linearGradient><rect width="17" height="4" x="26" y="33" fill="url(#U3SLg~fgRXfIikUHe2NIoe)"/><linearGradient id="U3SLg~fgRXfIikUHe2NIof" x1="13.5" x2="13.5" y1="25" y2="28.986" gradientUnits="userSpaceOnUse"><stop offset="0" stop-color="#fede00"/><stop offset="1" stop-color="#ffd000"/></linearGradient><rect width="17" height="4" x="5" y="25" fill="url(#U3SLg~fgRXfIikUHe2NIof)"/><linearGradient id="U3SLg~fgRXfIikUHe2NIog" x1="34.5" x2="34.5" y1="25" y2="28.986" gradientUnits="userSpaceOnUse"><stop offset="0" stop-color="#fede00"/><stop offset="1" stop-color="#ffd000"/></linearGradient><rect width="17" height="4" x="26" y="25" fill="url(#U3SLg~fgRXfIikUHe2NIog)"/><g><linearGradient id="U3SLg~fgRXfIikUHe2NIoh" x1="12" x2="12" y1="6.026" y2="21" gradientUnits="userSpaceOnUse"><stop offset="0" stop-color="#fede00"/><stop offset="1" stop-color="#ffd000"/></linearGradient><path fill="url(#U3SLg~fgRXfIikUHe2NIoh)" d="M10,9.172V21h4V6.025C12.445,6.747,11.071,7.82,10,9.172z"/><linearGradient id="U3SLg~fgRXfIikUHe2NIoi" x1="36" x2="36" y1="6.026" y2="21" gradientUnits="userSpaceOnUse"><stop offset="0" stop-color="#fede00"/><stop offset="1" stop-color="#ffd000"/></linearGradient><path fill="url(#U3SLg~fgRXfIikUHe2NIoi)" d="M34,6.025V21h4V9.172C36.929,7.82,35.555,6.747,34,6.025z"/><linearGradient id="U3SLg~fgRXfIikUHe2NIoj" x1="20" x2="20" y1="5" y2="21" gradientUnits="userSpaceOnUse"><stop offset="0" stop-color="#fede00"/><stop offset="1" stop-color="#ffd000"/></linearGradient><path fill="url(#U3SLg~fgRXfIikUHe2NIoj)" d="M18.623,5C18.414,5,18.207,5.012,18,5.024V21h4V5H18.623z"/><linearGradient id="U3SLg~fgRXfIikUHe2NIok" x1="28" x2="28" y1="5" y2="21" gradientUnits="userSpaceOnUse"><stop offset="0" stop-color="#fede00"/><stop offset="1" stop-color="#ffd000"/></linearGradient><path fill="url(#U3SLg~fgRXfIikUHe2NIok)" d="M29.377,5H26v16h4V5.024C29.793,5.012,29.586,5,29.377,5z"/></g></svg>