<svg xmlns="http://www.w3.org/2000/svg" xmlns:xlink="http://www.w3.org/1999/xlink" data-name="Слой 1" viewBox="0 0 48 48"><defs><linearGradient id="B75qRI5BjMj1TX_P480vua" x1="9.392" x2="22.641" y1=".847" y2="37.249" data-name="Безымянный градиент 2" gradientUnits="userSpaceOnUse"><stop offset="0" stop-color="#ffcf54"/><stop offset=".261" stop-color="#fdcb4d"/><stop offset=".639" stop-color="#f7c13a"/><stop offset="1" stop-color="#f0b421"/></linearGradient><linearGradient id="B75qRI5BjMj1TX_P480vub" x1="28.854" x2="41.977" y1="12.366" y2="48.422" xlink:href="#B75qRI5BjMj1TX_P480vua"/></defs><path fill="url(#B75qRI5BjMj1TX_P480vua)" d="M17.21318,6.75786a2.24912,2.24912,0,0,0,1.26723,3.12859A2.78731,2.78731,0,0,0,21.783,8.243a2.24911,2.24911,0,0,0-1.26723-3.12859A2.78732,2.78732,0,0,0,17.21318,6.75786ZM14.585,8.99908a1.45687,1.45687,0,0,0,1.41271-1.54734,1.54363,1.54363,0,0,0-1.58362-1.44833l-.00277.00009a1.45687,1.45687,0,0,0-1.41271,1.54733,1.54366,1.54366,0,0,0,1.58362,1.44834Zm-2.71222-.54354a1.5299,1.5299,0,0,0-1.66743-.92248,1.0311,1.0311,0,0,0-.58586,1.50927,1.5299,1.5299,0,0,0,1.66743.92248A1.0311,1.0311,0,0,0,11.87282,8.45554ZM8.82147,11.40419a.82988.82988,0,0,0,.18027-1.32652,1.37757,1.37757,0,0,0-1.58025-.476l-.00062.0003a.82987.82987,0,0,0-.18026,1.32651,1.37758,1.37758,0,0,0,1.58025.476Zm-1.706,1.054a1.30633,1.30633,0,0,0-1.58679-.299c-.41155.29874-.36837.91694.09644,1.38079l.00178.00177a1.30633,1.30633,0,0,0,1.58679.299c.41154-.29874.36837-.91694-.09644-1.38079ZM13.99916,11c3.997,0,6,1.5,6,4,0,3-4,4-4,7s2.997,3,2.997,6a3.943,3.943,0,0,1-3.997,4c-6,0-8.003-8-8.003-12C6.99617,15,10.49617,11,13.99916,11Z"/><path fill="url(#B75qRI5BjMj1TX_P480vub)" d="M27.48041,16.11445A2.24912,2.24912,0,0,0,26.21318,19.243a2.78732,2.78732,0,0,0,3.30258,1.64341A2.24911,2.24911,0,0,0,30.783,17.75786,2.78731,2.78731,0,0,0,27.48041,16.11445Zm5.93349,3.88472a1.54366,1.54366,0,0,0,1.58362-1.44834,1.45686,1.45686,0,0,0-1.41271-1.54733l-.00277-.00009a1.54364,1.54364,0,0,0-1.58362,1.44833,1.45688,1.45688,0,0,0,1.41271,1.54734Zm3.29531.96564a1.52989,1.52989,0,0,0,1.66743-.92248,1.0311,1.0311,0,0,0-.58585-1.50927,1.52989,1.52989,0,0,0-1.66743.92248A1.0311,1.0311,0,0,0,36.70921,20.96481Zm2.46611,1.43968a1.37756,1.37756,0,0,0,1.58024-.47605.82986.82986,0,0,0-.18026-1.32651l-.00062-.0003a1.37755,1.37755,0,0,0-1.58024.476.82987.82987,0,0,0,.18026,1.32652ZM40.87894,23.46c-.46481.46385-.508,1.08205-.09644,1.38079a1.30633,1.30633,0,0,0,1.58679-.299l.00177-.00177c.46481-.46385.508-1.08205.09644-1.38079a1.30633,1.30633,0,0,0-1.58679.299ZM41,31c0,4-2.003,12-8.003,12A3.943,3.943,0,0,1,29,39c0-3,2.997-3,2.997-6s-4-4-4-7c0-2.5,2.003-4,6-4C37.5,22,41,26,41,31Z"/></svg>