<svg xmlns="http://www.w3.org/2000/svg" xmlns:xlink="http://www.w3.org/1999/xlink" data-name="Слой 1" viewBox="0 0 48 48"><defs><linearGradient id="Ud4eaUwpEOeI5tWdZiSPra" x1="6.006" x2="37.855" y1="-27.965" y2="59.538" data-name="Безымянный градиент 115" gradientUnits="userSpaceOnUse"><stop offset="0" stop-color="#eba84b"/><stop offset=".255" stop-color="#e8a044"/><stop offset=".641" stop-color="#e18b30"/><stop offset="1" stop-color="#d97218"/></linearGradient><linearGradient id="Ud4eaUwpEOeI5tWdZiSPrc" x1="1.825" x2="31.713" y1="-22.809" y2="59.306" xlink:href="#Ud4eaUwpEOeI5tWdZiSPra"/><linearGradient id="Ud4eaUwpEOeI5tWdZiSPrb" x1="12" x2="22" y1="20.5" y2="20.5" data-name="Безымянный градиент 102" gradientUnits="userSpaceOnUse"><stop offset="0" stop-color="#f5b967"/><stop offset="1" stop-color="#eba84b"/></linearGradient><linearGradient id="Ud4eaUwpEOeI5tWdZiSPrd" x1="5.349" x2="41.644" y1="-32.128" y2="67.592" xlink:href="#Ud4eaUwpEOeI5tWdZiSPra"/><linearGradient id="Ud4eaUwpEOeI5tWdZiSPre" x1="8.619" x2="39.913" y1="-26.521" y2="59.458" xlink:href="#Ud4eaUwpEOeI5tWdZiSPra"/><linearGradient id="Ud4eaUwpEOeI5tWdZiSPrf" x1="18.5" x2="22.5" y1="6.75" y2="6.75" xlink:href="#Ud4eaUwpEOeI5tWdZiSPrb"/></defs><path fill="url(#Ud4eaUwpEOeI5tWdZiSPra)" d="M41,46.5a.49511.49511,0,0,1-.5.5H31.14a4.00309,4.00309,0,0,1-3.33-1.78L21,35l2-5,7.5,14.07007A1.99385,1.99385,0,0,0,32.05,45.11l1.95.21008L40.5,46A.49511.49511,0,0,1,41,46.5Z"/><circle cx="16.5" cy="4.5" r="1.5" fill="#5c2415"/><circle cx="24.5" cy="4.5" r="1.5" fill="#5c2415"/><path fill="url(#Ud4eaUwpEOeI5tWdZiSPrc)" d="M24,31.14719V10H17a26.30882,26.30882,0,0,0-3,12.17865v.8689A25.82344,25.82344,0,0,0,16,33a12.17394,12.17394,0,0,0-1,4c0,2.8392,2.5191,4.67081,3.9812,5.4947A1.99137,1.99137,0,0,1,20,44.23535V45H19a2,2,0,0,0-2,2h3.30576a2,2,0,0,0,1.97274-1.67114l.61615-3.69666a.9855.9855,0,0,0-.35992-.94177A3.96748,3.96748,0,0,1,21,37.49921a5.24127,5.24127,0,0,1,1.77771-3.47465A4.056,4.056,0,0,0,24,31.14719Z"/><path fill="url(#Ud4eaUwpEOeI5tWdZiSPrb)" d="M19.66407,13.02739A2.07443,2.07443,0,0,0,18,15.107v1.47879a1,1,0,0,1-.29289.7071l-5.12132,5.12132A2,2,0,0,0,12,23.82843V26a2,2,0,0,0,2,2V24l7.2-5.4A2,2,0,0,0,22,17V15A2.00133,2.00133,0,0,0,19.66407,13.02739Z"/><rect width="7" height="1" x="17" y="9" fill="url(#Ud4eaUwpEOeI5tWdZiSPrd)"/><path fill="url(#Ud4eaUwpEOeI5tWdZiSPre)" d="M17,9,15.93253,7.78a2.52807,2.52807,0,0,1-.44274-2.46514l.75588-2.15966A3.03179,3.03179,0,0,1,19.0311,1h2.9378a3.03179,3.03179,0,0,1,2.78543,2.15523l.75588,2.15966A2.52807,2.52807,0,0,1,25.06747,7.78L24,9Z"/><circle cx="18" cy="4" r="1" fill="#5c2415"/><circle cx="23" cy="4" r="1" fill="#5c2415"/><path fill="url(#Ud4eaUwpEOeI5tWdZiSPrf)" d="M22.5,7.1875A2.2707,2.2707,0,0,0,20.5,5a2.2707,2.2707,0,0,0-2,2.1875c0,.9665.89543,1.3125,2,1.3125S22.5,8.154,22.5,7.1875Z"/><ellipse cx="20.5" cy="5.75" fill="#c2620e" rx="1" ry=".75"/><path fill="#5c2415" d="M41,46.5a.49511.49511,0,0,1-.5.5H34V45.32007L40.5,46A.49511.49511,0,0,1,41,46.5Z"/><path fill="#c2620e" d="M21,21h3a0,0,0,0,1,0,0v2a0,0,0,0,1,0,0H21a1,1,0,0,1-1-1v0A1,1,0,0,1,21,21Z"/><path fill="#c2620e" d="M21,25h3a0,0,0,0,1,0,0v2a0,0,0,0,1,0,0H21a1,1,0,0,1-1-1v0A1,1,0,0,1,21,25Z"/><path fill="#c2620e" d="M21,29h3a0,0,0,0,1,0,0v2a0,0,0,0,1,0,0H21a1,1,0,0,1-1-1v0A1,1,0,0,1,21,29Z"/></svg>