<svg xmlns="http://www.w3.org/2000/svg" data-name="Слой 1" viewBox="0 0 48 48"><defs><linearGradient id="jwZW5prkGLT1yhtqerIvWa" x1="10.531" x2="27.482" y1="4.992" y2="51.563" data-name="Безымянный градиент 138" gradientUnits="userSpaceOnUse"><stop offset="0" stop-color="#6d6d6d"/><stop offset=".126" stop-color="#626262"/><stop offset=".987" stop-color="#464646"/><stop offset=".998" stop-color="#454545"/></linearGradient><linearGradient id="jwZW5prkGLT1yhtqerIvWb" x1="18.357" x2="24.573" y1="-2568.995" y2="-2604.249" data-name="Безымянный градиент 134" gradientTransform="matrix(1 0 0 -1 0 -2560)" gradientUnits="userSpaceOnUse"><stop offset="0" stop-color="#ffda1c"/><stop offset="1" stop-color="#feb705"/></linearGradient><radialGradient id="jwZW5prkGLT1yhtqerIvWc" cx="18.391" cy="21.478" r="18.351" data-name="Безымянный градиент 133" gradientUnits="userSpaceOnUse"><stop offset="0" stop-color="#4b4b4b"/><stop offset=".531" stop-color="#393939"/><stop offset="1" stop-color="#252525"/></radialGradient></defs><path fill="url(#jwZW5prkGLT1yhtqerIvWa)" d="M24.00043,4A1.96747,1.96747,0,0,0,22.2731,5.00878L1.82176,41.00568A2.00136,2.00136,0,0,0,3.54909,44H44.45078a2.001,2.001,0,0,0,1.72733-2.99432L25.72776,5.00878A1.96745,1.96745,0,0,0,24.00043,4Z"/><polygon fill="url(#jwZW5prkGLT1yhtqerIvWb)" points="5 41 24.001 8 43 41 5 41"/><path fill="url(#jwZW5prkGLT1yhtqerIvWc)" d="M27,30.002V19.5A2.50263,2.50263,0,0,0,24.5,17h-1A2.50263,2.50263,0,0,0,21,19.5V30.002a5,5,0,1,0,6,0ZM23.5,18h1A1.50164,1.50164,0,0,1,26,19.5V26H22V19.5A1.50164,1.50164,0,0,1,23.5,18Z"/></svg>