<svg xmlns="http://www.w3.org/2000/svg" viewBox="0 0 48 48"><path fill="#1a9ba1" d="M12.133,18.381H7.696c-0.552,0-1-0.448-1-1V12.2c0-0.552,0.448-1,1-1h33.93c0.552,0,1,0.448,1,1	v5.181c0,0.552-0.448,1-1,1h-5.027v11.874c0,2.386,0.867,3.051,2.34,3.051c0.261,0,0.591-0.022,0.916-0.058	c0.536-0.059,1.002,0.365,1.002,0.904v4.545c0,0.485-0.345,0.896-0.822,0.985C39.042,39.869,37.665,40,36.522,40	c-6.616,0-8.592-1.949-8.592-7.976V18.381h-7.155v20.363c0,0.552-0.448,1-1,1h-6.642c-0.552,0-1-0.448-1-1V18.381z"/></svg>