<svg xmlns="http://www.w3.org/2000/svg" data-name="Слой 1" viewBox="0 0 48 48"><defs><linearGradient id="tg~zthNOTsEkEk4Vz~oGVa" x1="30.642" x2="41.886" y1="19.667" y2="50.559" data-name="Безымянный градиент 2" gradientUnits="userSpaceOnUse"><stop offset="0" stop-color="#fed100"/><stop offset="1" stop-color="#e36001"/></linearGradient><linearGradient id="tg~zthNOTsEkEk4Vz~oGVb" x1="29" x2="40.75" y1="30.75" y2="30.75" data-name="Безымянный градиент 129" gradientUnits="userSpaceOnUse"><stop offset="0" stop-color="#ffd869"/><stop offset="1" stop-color="#fec52b"/></linearGradient><linearGradient id="tg~zthNOTsEkEk4Vz~oGVc" x1="11.381" x2="42.231" y1="32.642" y2="1.792" data-name="Безымянный градиент 177" gradientUnits="userSpaceOnUse"><stop offset=".002" stop-color="#454545"/><stop offset=".013" stop-color="#464646"/><stop offset=".874" stop-color="#626262"/><stop offset="1" stop-color="#6d6d6d"/></linearGradient><linearGradient id="tg~zthNOTsEkEk4Vz~oGVd" x1="9.255" x2="20.917" y1="12.716" y2="44.758" data-name="Безымянный градиент 121" gradientUnits="userSpaceOnUse"><stop offset="0" stop-color="#f44f5a"/><stop offset=".443" stop-color="#ee3d4a"/><stop offset="1" stop-color="#e52030"/></linearGradient></defs><path fill="url(#tg~zthNOTsEkEk4Vz~oGVa)" d="M33.62115,19.79567,32.5,24l-2.91837-1.65637a.5.5,0,0,0-.74641.45444L29,27H25.20711a.5.5,0,0,0-.35356.85355L28,31l-2.14645,2.14645A.5.5,0,0,0,26.20711,34H30v5.95969a.5.5,0,0,0,.81235.39043L35,37l2.07125,3.45209A.5.5,0,0,0,38,40.19484V36l4.59979,1.53326a.5.5,0,0,0,.572-.75492L40,32.1l3.87127-2.40019a.5.5,0,0,0-.18127-.91815L39,28l1.56671-3.91678a.5.5,0,0,0-.64993-.64993L36,25l-1.41319-5.20648A.5.5,0,0,0,33.62115,19.79567Z"/><path fill="url(#tg~zthNOTsEkEk4Vz~oGVb)" d="M34,24.5,35,28l2.5-1.5-.75,2.75,4,.75L37,31.5l2.5,3.25-4-1.25L33,37l-.5-3.5L29,33l3-2-3-3,3.75.5Z"/><path fill="url(#tg~zthNOTsEkEk4Vz~oGVc)" d="M34,32c-6.44824,0-10-2.48584-10-7,0-3.08936,1.7627-5.25342,3.4668-7.3457C29.28418,15.42334,31,13.31641,31,10c0-1.55664-1.28613-6-7-6-5.30859,0-8,3.36426-8,10a1,1,0,0,1-2,0C14,6.26172,17.55176,2,24,2c6.55664,0,9,4.90723,9,8,0,4.02783-2.11621,6.62549-3.98242,8.917C27.39844,20.90527,26,22.62207,26,25c0,3.31787,2.69141,5,8,5a1,1,0,0,1,0,2Z"/><rect width="10" height="31" x="10" y="13" fill="url(#tg~zthNOTsEkEk4Vz~oGVd)" rx="1"/></svg>