<svg xmlns="http://www.w3.org/2000/svg" data-name="Слой 1" viewBox="0 0 48 48"><defs><linearGradient id="WTH7qEFMJaJWPiY5J83Voa" x1="13.15" x2="37.411" y1="22.288" y2="56.038" data-name="Безымянный градиент 239" gradientUnits="userSpaceOnUse"><stop offset="0" stop-color="#00bffe"/><stop offset="1" stop-color="#1d55c4"/></linearGradient><linearGradient id="WTH7qEFMJaJWPiY5J83Vob" x1="15.802" x2="43.193" y1="22.608" y2="68.195" data-name="Безымянный градиент 238" gradientUnits="userSpaceOnUse"><stop offset="0" stop-color="#84e1fe"/><stop offset="1" stop-color="#167cf7"/></linearGradient></defs><path fill="url(#WTH7qEFMJaJWPiY5J83Voa)" d="M44.09,39c0,.36-.01.73-.03,1.09l-.03.42c-.02.31995-.05.65-.1001.97a.17007.17007,0,0,1-.01.07,7.79853,7.79853,0,0,1-.1499.97,2.25152,2.25152,0,0,1-.06006.36.502.502,0,0,1-.02.12H4.48988A20.23636,20.23636,0,0,1,4.09,39.16V39c0-.55.0199-1.1.06983-1.64.01-.12.02-.23.03-.34.03-.33.07007-.65.12012-.98a2.03051,2.03051,0,0,1,.05993-.34c.03-.25.08-.49.13-.73.12-.59.27-1.18.43994-1.74.06006-.2.12012-.39.19006-.58a19.47779,19.47779,0,0,1,.84-2.12c.1001-.21.2-.42.32007-.63.15991-.34.35-.66.54-.99.14991-.27.32-.53.49-.79a18.06784,18.06784,0,0,1,1.67993-2.23q.31494-.36007.63-.69a19.86087,19.86087,0,0,1,13.07044-6.12176l.01953-.00824c.23-.01.46-.03.68-.05.23-.00995.46-.02.69006-.02q.49476,0,.99.03a2.96362,2.96362,0,0,1,.41993.03c.6455.04315,1.27929.12774,1.90674.23156.02758.00477.0548.01063.08251.01545a19.75821,19.75821,0,0,1,9.12073,4.113c.29.23.55994.47.84.71A19.14764,19.14764,0,0,1,40.33,27.34c.02991.05.06995.09.09986.14q.25506.375.51.75a.67246.67246,0,0,0,.07007.11c.14.23.29.47.41992.71.23.38.43005.77.63013,1.17.15991.33.30993.66.46,1,.16992.4.32006.81.47,1.22.10009.29.18994.58.28.88,0,.00995.01.02.01.03.09.32.17993.63.25.95.03.12.06005.23.08.34q.07489.315.12.63a3.54715,3.54715,0,0,1,.09009.47c.0299.18.05993.36.07995.55.02991.18.05994.37.08.56.01.14.02.27.03.41.03.23.04.47.05.71C44.08,38.31,44.09,38.65,44.09,39Z"/><path fill="#42a4ed" d="M4.50086,12.22021a1.00018,1.00018,0,0,1-.5791-1.81591,34.94444,34.94444,0,0,1,40.15137-.12354,1,1,0,1,1-1.14649,1.63867,32.94483,32.94483,0,0,0-37.84863.1167A.99387.99387,0,0,1,4.50086,12.22021Z"/><path fill="url(#WTH7qEFMJaJWPiY5J83Vob)" d="M21.77992,31.99c-.45-1.6-1.87012-3.17-3.68995-2.94-.46008.23-3.59008,2.88-4.27,2.88-1.15015-.23-1.15015-1.82-.92-2.51.23-.91,2.27991-3.88,3.65-3.42a10.12266,10.12266,0,0,0,3.06994.72.84514.84514,0,0,0,.69007-.23c.23-.23.23-.23.23-.45,0-.69-2.47-2.16-3.15-2.39a9.84159,9.84159,0,0,0-7.76,1.55q-.31512.33-.63.69c-.30005.35-.6.71-.88,1.09C7.84,27.35,7.58,27.73,7.32,28.12c-.17.26-.34009.52-.49.79-.19006.33-.38012.65-.54.99-.12012.21-.22.42-.32007.63a19.47779,19.47779,0,0,0-.84,2.12c-.06994.19-.13.38-.19006.58-.16992.56-.31995,1.15-.43994,1.74-.05.24-.1.48-.13.73a2.03051,2.03051,0,0,0-.05993.34c-.05.33-.09009.65-.12012.98-.01.11-.02.22-.03.34C4.10987,37.9,4.09,38.45,4.09,39v.16a3.76952,3.76952,0,0,0,.36988.76,9.67834,9.67834,0,0,0,2.64,3.08h3.36c-.02-.04-.05-.07-.06995-.11,0-.23,0-.69-.45007-.69-.46-.22-.91992.23-1.37988,0A.83891.83891,0,0,1,8.34,41.52a2.8036,2.8036,0,0,1,.90992-1.83c.68994-.46,1.37.23,2.05.23.23,0,.54992-.36.78-.14.68995.23.91993,1.15.91993,1.83v.46c0,.23.47.23.68994.23.23-1.14.34009-2.27.46008-3.42a3.17279,3.17279,0,0,1,1.94995-2.84c.45008-.23.68006.23,1.14,0C18.60987,35.58,22.46986,33.81,21.77992,31.99Zm22.28,5.98c-.01-.24-.02-.48-.05-.71-.01-.14-.02-.27-.03-.41-.02-.19-.05-.38-.08-.56-.02-.19-.05-.37-.07995-.55a3.54715,3.54715,0,0,0-.09009-.47q-.045-.31494-.12-.63c-.0199-.11-.04992-.22-.08-.34-.07007-.32-.16-.63-.25-.95,0-.01-.01-.02-.01-.03-.09009-.30005-.17994-.59-.28-.88-.14991-.41-.3-.82-.47-1.22-.15-.34-.30005-.67-.46-1-.20008-.4-.40015-.79-.63013-1.17-.12988-.24-.27991-.48-.41992-.71a.67246.67246,0,0,1-.07007-.11q-.25488-.375-.51-.75c-.02991-.05-.06995-.09-.09986-.14a20.6555,20.6555,0,0,0-2.10009-2.46q-.375-.39-.78-.75c-.28-.24-.54993-.48-.84-.71-.1.03-.20007.06-.29992.1-.68006.23-2.47,3.53-2.93006,4.21-.23.23-.45007.68-.23.91,0,.23.23.23.46.23.46009.23.52.32.9801.55.23,0,.45.23.23.46a.22525.22525,0,0,1-.23.23c-1.14013,1.14-2.29,2.05-3.43017,3.19a1.58635,1.58635,0,0,0-.37988.91c0,.23.1499.23.1499.46s-.22.23-.45.46a5.43337,5.43337,0,0,0-1.14991.68c-.22009.46,0,1.15-.22009,1.6a20.00454,20.00454,0,0,1-1.37,3.2c-.46.68-.87,1.37-1.33008,2.05,0,.12,0,.23-.00989.34H43.67982a.14231.14231,0,0,0,.02-.06.1266.1266,0,0,1,.01-.06,2.25152,2.25152,0,0,0,.06006-.36,7.79853,7.79853,0,0,0,.1499-.97.17007.17007,0,0,0,.01-.07c.05-.32.08008-.65.1001-.97l.03-.42c.02-.36.03-.73.03-1.09C44.09,38.65,44.08,38.31,44.06,37.97ZM30.73988,20.44c-.15992-.3-.73-.5-1.22-.66l-.09009-.03c-.03992-.01-.08-.03-.11987-.04l-.36011-.09a2.28387,2.28387,0,0,0-.28-.07c-.38989-.09-.77991-.17-1.17993-.24a18.97584,18.97584,0,0,0-1.99-.25,2.96362,2.96362,0,0,0-.41993-.03Q24.58486,19,24.09,19c-.2301,0-.46008.01-.69006.02-.22009.02-.45007.04-.68.05-.01,0-.01,0-.02.00995a1.219,1.219,0,0,0-.80994.7c-.2301,1.09.68006.87,1.59,1.09,0,0,.22,1.74.22,1.96.23,1.09-.44995,1.74005-.44995,2.83,0,.66,0,1.75.44995,2.18h.23c.23,0,.45007-.22.91015-.43.67994-.44,1.35987-1.09,2.03992-1.53a12.57159,12.57159,0,0,0,1.80994-1.52A3.98586,3.98586,0,0,0,30.06,22.4C30.27992,21.96,30.95985,21.09,30.73988,20.44Z"/><path fill="#cf1928" d="M23.99989,17a.99909.99909,0,0,1-1-1V9a1,1,0,0,1,2,0v7A.99909.99909,0,0,1,23.99989,17Z"/><path fill="#cf1928" d="M17.99989,17a.99909.99909,0,0,1-1-1V12a1,1,0,0,1,2,0v4A.99909.99909,0,0,1,17.99989,17Z"/><path fill="#cf1928" d="M29.99989,17a.99909.99909,0,0,1-1-1V12a1,1,0,0,1,2,0v4A.99909.99909,0,0,1,29.99989,17Z"/></svg>