<svg xmlns="http://www.w3.org/2000/svg" viewBox="0 0 48 48"><path fill="#199be2" d="M36,17v25c0,1.105-0.895,2-2,2H10c-1.105,0-2-0.895-2-2V10c0-1.105,0.895-2,2-2h17L36,17z"/><path d="M10,8h26v34H13.681C11.648,42,10,40.352,10,38.319V8z" opacity=".05"/><path d="M11,8h19.941C33.735,8,36,10.265,36,13.059V41H13.839	C12.271,41,11,39.729,11,38.161V8z" opacity=".07"/><path fill="#50e6ff" d="M40,6v32c0,1.105-0.895,2-2,2H14c-1.105,0-2-0.895-2-2V6c0-1.105,0.895-2,2-2h24	C39.105,4,40,4.895,40,6z"/><path fill="#057093" d="M31,16H19c-0.552,0-1,0.448-1,1l0,0c0,0.552,0.448,1,1,1h12c0.552,0,1-0.448,1-1l0,0	C32,16.448,31.552,16,31,16z"/><path fill="#057093" d="M34,12H19c-0.552,0-1,0.448-1,1l0,0c0,0.552,0.448,1,1,1h15c0.552,0,1-0.448,1-1l0,0	C35,12.448,34.552,12,34,12z"/><path fill="#057093" d="M34,20H19c-0.552,0-1,0.448-1,1l0,0c0,0.552,0.448,1,1,1h15c0.552,0,1-0.448,1-1l0,0	C35,20.448,34.552,20,34,20z"/><path fill="#057093" d="M31,24H19c-0.552,0-1,0.448-1,1l0,0c0,0.552,0.448,1,1,1h12c0.552,0,1-0.448,1-1l0,0	C32,24.448,31.552,24,31,24z"/><path fill="#057093" d="M34,28H19c-0.552,0-1,0.448-1,1l0,0c0,0.552,0.448,1,1,1h15c0.552,0,1-0.448,1-1l0,0	C35,28.448,34.552,28,34,28z"/><path fill="#057093" d="M31,32H19c-0.552,0-1,0.448-1,1l0,0c0,0.552,0.448,1,1,1h12c0.552,0,1-0.448,1-1l0,0	C32,32.448,31.552,32,31,32z"/></svg>