<svg xmlns="http://www.w3.org/2000/svg" viewBox="0 0 48 48"><linearGradient id="JEDpcVptOxjzJCU~BuE8Fa" x1="6.76" x2="19.639" y1="-1290" y2="-1311.231" gradientTransform="matrix(1.0244 0 0 -1.0645 9.126 -1365.323)" gradientUnits="userSpaceOnUse"><stop offset="0" stop-color="#f44f5a"/><stop offset=".443" stop-color="#ee3d4a"/><stop offset="1" stop-color="#e52030"/></linearGradient><path fill="url(#JEDpcVptOxjzJCU~BuE8Fa)" d="M44,36H4c-1.105,0-2-0.895-2-2V9c0-1.105,0.895-2,2-2h40c1.105,0,2,0.895,2,2v25 C46,35.105,45.105,36,44,36z"/><path fill="#fff" d="M42,13h-2c-0.552,0-1-0.448-1-1v-2c0-0.552,0.448-1,1-1h2c0.552,0,1,0.448,1,1v2 C43,12.552,42.552,13,42,13z"/><path fill="#fff" d="M42,20h-2c-0.552,0-1-0.448-1-1v-2c0-0.552,0.448-1,1-1h2c0.552,0,1,0.448,1,1v2 C43,19.552,42.552,20,42,20z"/><path fill="#fff" d="M42,27h-2c-0.552,0-1-0.448-1-1v-2c0-0.552,0.448-1,1-1h2c0.552,0,1,0.448,1,1v2 C43,26.552,42.552,27,42,27z"/><path fill="#fff" d="M42,34h-2c-0.552,0-1-0.448-1-1v-2c0-0.552,0.448-1,1-1h2c0.552,0,1,0.448,1,1v2 C43,33.552,42.552,34,42,34z"/><path fill="#fff" d="M8,13H6c-0.552,0-1-0.448-1-1v-2c0-0.552,0.448-1,1-1h2c0.552,0,1,0.448,1,1v2 C9,12.552,8.552,13,8,13z"/><path fill="#fff" d="M8,20H6c-0.552,0-1-0.448-1-1v-2c0-0.552,0.448-1,1-1h2c0.552,0,1,0.448,1,1v2 C9,19.552,8.552,20,8,20z"/><path fill="#fff" d="M8,27H6c-0.552,0-1-0.448-1-1v-2c0-0.552,0.448-1,1-1h2c0.552,0,1,0.448,1,1v2 C9,26.552,8.552,27,8,27z"/><path fill="#fff" d="M8,34H6c-0.552,0-1-0.448-1-1v-2c0-0.552,0.448-1,1-1h2c0.552,0,1,0.448,1,1v2 C9,33.552,8.552,34,8,34z"/><linearGradient id="JEDpcVptOxjzJCU~BuE8Fb" x1="24" x2="24" y1="-1403.992" y2="-1408.008" gradientTransform="matrix(1 0 0 -1 0 -1368)" gradientUnits="userSpaceOnUse"><stop offset="0" stop-color="#484b4f"/><stop offset=".23" stop-color="#656d75"/><stop offset=".367" stop-color="#727d86"/></linearGradient><path fill="url(#JEDpcVptOxjzJCU~BuE8Fb)" d="M37.5,38H30v-2H18v2h-7.5c-0.276,0-0.5,0.224-0.5,0.5v1c0,0.276,0.224,0.5,0.5,0.5h27 c0.276,0,0.5-0.224,0.5-0.5v-1C38,38.224,37.776,38,37.5,38z"/><path d="M31.778,25.536L28.243,22l3.536-3.536c0.781-0.781,0.781-2.047,0-2.828 l-1.414-1.414c-0.781-0.781-2.047-0.781-2.828,0L24,17.757l-3.536-3.536c-0.781-0.781-2.047-0.781-2.828,0l-1.414,1.414 c-0.781,0.781-0.781,2.047,0,2.828l3.536,3.536l-3.536,3.536c-0.781,0.781-0.781,2.047,0,2.828l1.414,1.414 c0.781,0.781,2.047,0.781,2.828,0L24,26.241l3.536,3.536c0.781,0.781,2.047,0.781,2.828,0l1.414-1.414 C32.559,27.583,32.559,26.317,31.778,25.536z" opacity=".05"/><path d="M31.425,25.889L27.536,22l3.889-3.889c0.586-0.586,0.586-1.536,0-2.121 l-1.414-1.414c-0.586-0.586-1.536-0.586-2.121,0L24,18.464l-3.889-3.889c-0.586-0.586-1.536-0.586-2.121,0l-1.414,1.414 c-0.586,0.586-0.586,1.536,0,2.121L20.464,22l-3.889,3.889c-0.586,0.586-0.586,1.536,0,2.121l1.414,1.414 c0.586,0.586,1.536,0.586,2.121,0L24,25.536l3.889,3.889c0.586,0.586,1.536,0.586,2.121,0l1.414-1.414 C32.011,27.425,32.011,26.475,31.425,25.889z" opacity=".07"/><path fill="#fff" d="M29.657,14.929l1.414,1.414c0.391,0.391,0.391,1.024,0,1.414L19.757,29.071 c-0.391,0.391-1.024,0.391-1.414,0l-1.414-1.414c-0.391-0.391-0.391-1.024,0-1.414l11.314-11.314 C28.633,14.538,29.267,14.538,29.657,14.929z"/><path fill="#fff" d="M31.071,27.657l-1.414,1.414c-0.391,0.391-1.024,0.391-1.414,0L16.929,17.757 c-0.391-0.391-0.391-1.024,0-1.414l1.414-1.414c0.391-0.391,1.024-0.391,1.414,0l11.314,11.314 C31.462,26.633,31.462,27.267,31.071,27.657z"/></svg>