<svg xmlns="http://www.w3.org/2000/svg" xmlns:xlink="http://www.w3.org/1999/xlink" data-name="Слой 1" viewBox="0 0 48 48"><defs><linearGradient id="T0UJFamfypRxNjDAGD4NNb" x1="24" x2="24" y1="22.609" y2="52.421" data-name="Безымянный градиент 179" gradientUnits="userSpaceOnUse"><stop offset="0" stop-color="#d43a02"/><stop offset="1" stop-color="#ed6c47"/></linearGradient><linearGradient id="T0UJFamfypRxNjDAGD4NNa" x1="19.097" x2="19.097" y1="41.706" y2="20.632" data-name="Безымянный градиент 17" gradientUnits="userSpaceOnUse"><stop offset="0" stop-color="#a1aab3"/><stop offset="1" stop-color="#8f979e"/></linearGradient><linearGradient id="T0UJFamfypRxNjDAGD4NNc" x1="28.903" x2="28.903" y1="41.706" y2="20.631" xlink:href="#T0UJFamfypRxNjDAGD4NNa"/></defs><path fill="#ed6c47" d="M42,8V40a1.94068,1.94068,0,0,1-.51,1.32007A1.96152,1.96152,0,0,1,40,42H8a1.96152,1.96152,0,0,1-1.49-.67993A1.94068,1.94068,0,0,1,6,40V8A2.00583,2.00583,0,0,1,8,6H40A2.00583,2.00583,0,0,1,42,8Z"/><path fill="#ff8f6b" d="M14,41a.99974.99974,0,0,1-1-1V18c0-3.99023,2.57959-7,6-7a1,1,0,0,1,0,2c-2.31787,0-4,2.10254-4,5V40A.99974.99974,0,0,1,14,41Z"/><path fill="#ff8f6b" d="M34,41a.99974.99974,0,0,1-1-1V16a5.00588,5.00588,0,0,0-5-5,1,1,0,0,1,0-2,7.00818,7.00818,0,0,1,7,7V40A.99974.99974,0,0,1,34,41Z"/><path fill="#ff8f6b" d="M34.65,6H30.8A12.00741,12.00741,0,0,1,38,17V39H10V17A12.00741,12.00741,0,0,1,17.2,6H13.35A13.987,13.987,0,0,0,8,17V40a1.00291,1.00291,0,0,0,1,1H39a1.00291,1.00291,0,0,0,1-1V17A13.987,13.987,0,0,0,34.65,6Z"/><path fill="url(#T0UJFamfypRxNjDAGD4NNb)" d="M41.49,41.32007A1.96152,1.96152,0,0,1,40,42H8a1.96152,1.96152,0,0,1-1.49-.67993L18,26l6-2,6,2Z"/><path fill="#692212" d="M29.36257,31H18.63743a1,1,0,0,1-.94869-1.31623l.33334-1A1,1,0,0,1,18.97076,28H29.02924a1,1,0,0,1,.94868.68377l.33334,1A1,1,0,0,1,29.36257,31Z"/><path fill="#692212" d="M31.11257,37H16.88743a1,1,0,0,1-.94869-1.31623l.33334-1A1,1,0,0,1,17.22076,34H30.77924a1,1,0,0,1,.94868.68377l.33334,1A1,1,0,0,1,31.11257,37Z"/><path fill="#692212" d="M33.86,42H14.14a.92748.92748,0,0,1,.05-.32007l.33-1A1.01348,1.01348,0,0,1,15.47,40H32.53a1.01348,1.01348,0,0,1,.95.67993l.33,1A.92748.92748,0,0,1,33.86,42Z"/><path fill="url(#T0UJFamfypRxNjDAGD4NNa)" d="M21.98,25.22,18.7,40l-.45,2H16.19l.45-2,3.38-15.22a1.00436,1.00436,0,1,1,1.96.43994Z"/><path fill="url(#T0UJFamfypRxNjDAGD4NNc)" d="M31.81,42H29.75l-.45-2L26.02,25.22A1.00436,1.00436,0,1,1,27.98,24.78L31.36,40Z"/><path fill="#692212" d="M20,16h8a2,2,0,0,1,2,2v8a0,0,0,0,1,0,0H18a0,0,0,0,1,0,0V18A2,2,0,0,1,20,16Z"/></svg>