<svg xmlns="http://www.w3.org/2000/svg" viewBox="0 0 48 48"><path fill="#33c481" d="M14.381,10.284c-3.692-3.685-1.988-8.788-1.988-8.788l11.361,11.339	C23.753,12.835,18.073,13.969,14.381,10.284z"/><path fill="#21a366" d="M12.393,1.496c0,0,4.828-1.984,8.805,1.984s2.556,9.355,2.556,9.355L12.393,1.496z"/><path fill="#c28200" d="M24,13c-0.553,0-1-0.447-1-1c0-6.341,3.158-9.572,3.293-9.707c0.391-0.391,1.023-0.391,1.414,0	s0.391,1.023,0,1.414C27.684,3.731,25,6.533,25,12C25,12.553,24.553,13,24,13z"/><linearGradient id="zSw5cGIkCXhKobyHbjEb2a" x1="18.987" x2="30.041" y1="7.957" y2="41.949" gradientUnits="userSpaceOnUse"><stop offset="0" stop-color="#f44f5a"/><stop offset=".443" stop-color="#ee3d4a"/><stop offset="1" stop-color="#e52030"/></linearGradient><path fill="url(#zSw5cGIkCXhKobyHbjEb2a)" d="M32,9c-4,0-6,2.466-8,2.466S20,9,16,9C9,9,4,16,4,23c0,9,7,20,15.5,20	c1.249,0,3.5-0.76,4.5-0.76S27.251,43,28.5,43C37,43,44,32,44,23C44,16,39,9,32,9z"/><linearGradient id="zSw5cGIkCXhKobyHbjEb2b" x1="42.132" x2="23.939" y1="26" y2="26" gradientUnits="userSpaceOnUse"><stop offset="0" stop-color="#ffd869"/><stop offset="1" stop-color="#fec52b"/></linearGradient><path fill="url(#zSw5cGIkCXhKobyHbjEb2b)" d="M32,11c-1.862,0-3.184,0.675-4.463,1.328c-0.667,0.341-1.348,0.688-2.074,0.908	C24.604,13.496,24,14.261,24,15.158v23.333c0,0.947,0.66,1.764,1.588,1.956c0.277,0.057,0.566,0.123,0.869,0.191	C27.172,40.799,28.064,41,28.5,41c3.247,0,6.644-2.114,9.319-5.8C40.437,31.593,42,27.032,42,23C42,15.822,36.829,11,32,11z"/><linearGradient id="zSw5cGIkCXhKobyHbjEb2c" x1="28.5" x2="28.5" y1="23.786" y2="29.181" gradientUnits="userSpaceOnUse"><stop offset="0" stop-color="#d43a02"/><stop offset="1" stop-color="#b9360c"/></linearGradient><ellipse cx="28.5" cy="26.5" fill="url(#zSw5cGIkCXhKobyHbjEb2c)" rx="1.5" ry="2.5"/></svg>