<svg xmlns="http://www.w3.org/2000/svg" viewBox="0 0 48 48"><linearGradient id="SrU1HZ4KX3SMLejMP83NPa" x1="46.644" x2="34.177" y1="33" y2="33" gradientUnits="userSpaceOnUse"><stop offset="0" stop-color="#32bdef"/><stop offset="1" stop-color="#1ea2e4"/></linearGradient><path fill="url(#SrU1HZ4KX3SMLejMP83NPa)" d="M34,24h9c1.105,0,2,0.895,2,2v14c0,1.105-0.895,2-2,2h-9c-1.105,0-2-0.895-2-2V26	C32,24.895,32.895,24,34,24z"/><linearGradient id="SrU1HZ4KX3SMLejMP83NPb" x1="37.644" x2="25.177" y1="15" y2="15" gradientUnits="userSpaceOnUse"><stop offset="0" stop-color="#32bdef"/><stop offset="1" stop-color="#1ea2e4"/></linearGradient><path fill="url(#SrU1HZ4KX3SMLejMP83NPb)" d="M25,6h9c1.105,0,2,0.895,2,2v14c0,1.105-0.895,2-2,2h-9c-1.105,0-2-0.895-2-2V8	C23,6.895,23.895,6,25,6z"/><linearGradient id="SrU1HZ4KX3SMLejMP83NPc" x1="6.588" x2="38.492" y1="15" y2="15" gradientUnits="userSpaceOnUse"><stop offset="0" stop-color="#a8e2f7"/><stop offset="1" stop-color="#47c1ff"/></linearGradient><path fill="url(#SrU1HZ4KX3SMLejMP83NPc)" d="M14,6h14c1.105,0,2,0.895,2,2v14c0,1.105-0.895,2-2,2H14c-1.105,0-2-0.895-2-2V8	C12,6.895,12.895,6,14,6z"/><circle cx="15" cy="18" r="1" fill="#fff"/><circle cx="34" cy="9" r="1" fill="#35c1f1"/><circle cx="32" cy="13" r="1" fill="#35c1f1"/><circle cx="42" cy="39" r="1" fill="#35c1f1"/><circle cx="43" cy="29" r="1" fill="#35c1f1"/><circle cx="18" cy="21.034" r="1" fill="#fff"/><linearGradient id="SrU1HZ4KX3SMLejMP83NPd" x1="28.644" x2="16.177" y1="33" y2="33" gradientUnits="userSpaceOnUse"><stop offset="0" stop-color="#32bdef"/><stop offset="1" stop-color="#1ea2e4"/></linearGradient><path fill="url(#SrU1HZ4KX3SMLejMP83NPd)" d="M16,24h9c1.105,0,2,0.895,2,2v14c0,1.105-0.895,2-2,2h-9c-1.105,0-2-0.895-2-2V26	C14,24.895,14.895,24,16,24z"/><linearGradient id="SrU1HZ4KX3SMLejMP83NPe" x1="-2.588" x2="33.117" y1="33" y2="33" gradientUnits="userSpaceOnUse"><stop offset="0" stop-color="#a8e2f7"/><stop offset="1" stop-color="#47c1ff"/></linearGradient><path fill="url(#SrU1HZ4KX3SMLejMP83NPe)" d="M5,24h14c1.105,0,2,0.895,2,2v14c0,1.105-0.895,2-2,2H5c-1.105,0-2-0.895-2-2V26	C3,24.895,3.895,24,5,24z"/><linearGradient id="SrU1HZ4KX3SMLejMP83NPf" x1="19.118" x2="41.472" y1="33" y2="33" gradientUnits="userSpaceOnUse"><stop offset="0" stop-color="#a8e2f7"/><stop offset="1" stop-color="#47c1ff"/></linearGradient><path fill="url(#SrU1HZ4KX3SMLejMP83NPf)" d="M23,24h14c1.105,0,2,0.895,2,2v14c0,1.105-0.895,2-2,2H23c-1.105,0-2-0.895-2-2V26	C21,24.895,21.895,24,23,24z"/><circle cx="18" cy="28" r="1" fill="#fff"/><circle cx="25" cy="38" r="1" fill="#fff"/><circle cx="15" cy="34" r="1" fill="#fff"/></svg>