<svg xmlns="http://www.w3.org/2000/svg" data-name="Слой 1" viewBox="0 0 48 48"><defs><linearGradient id="skTQEk_fwszeIaW6moE0Wa" x1="41.91" x2="33.973" y1="195" y2="195" data-name="Безымянный градиент 85" gradientTransform="matrix(1 0 0 -1 0 224)" gradientUnits="userSpaceOnUse"><stop offset="0" stop-color="#0d61a9"/><stop offset=".482" stop-color="#0d60a7"/><stop offset=".711" stop-color="#0f5c9f"/><stop offset=".886" stop-color="#125592"/><stop offset="1" stop-color="#154e85"/></linearGradient><linearGradient id="skTQEk_fwszeIaW6moE0Wb" x1="37.83" x2="33.961" y1="195" y2="195" data-name="Безымянный градиент 84" gradientTransform="matrix(1 0 0 -1 0 224)" gradientUnits="userSpaceOnUse"><stop offset=".365" stop-color="#32bdef"/><stop offset=".49" stop-color="#2fb7e9"/><stop offset=".66" stop-color="#26a5d7"/><stop offset=".854" stop-color="#1789bb"/><stop offset="1" stop-color="#096fa1"/></linearGradient></defs><path fill="url(#skTQEk_fwszeIaW6moE0Wa)" d="M34,15h6a1.99945,1.99945,0,0,1,2,2V43H34Z"/><path fill="url(#skTQEk_fwszeIaW6moE0Wb)" d="M34,39h4V35H34Zm0-16h4V19H34Zm0,8h4V27H34Z"/><rect width="28" height="12" x="6" y="31" fill="#0078d4"/><path fill="#199be2" d="M10,9H30V7a2.00073,2.00073,0,0,0-2-2H12a2.00073,2.00073,0,0,0-2,2Z"/><path fill="#199be2" d="M6,11V31H34V11Z"/><rect width="4" height="4" x="10" y="35" fill="#005094"/><rect width="4" height="4" x="26" y="35" fill="#005094"/><rect width="6" height="8" x="17" y="35" fill="#005094"/><rect width="4" height="4" x="10" y="23" fill="#0d62ab"/><rect width="4" height="4" x="18" y="23" fill="#0d62ab"/><rect width="4" height="4" x="26" y="23" fill="#0d62ab"/><rect width="4" height="4" x="10" y="15" fill="#0d62ab"/><rect width="4" height="4" x="18" y="15" fill="#0d62ab"/><rect width="4" height="4" x="26" y="15" fill="#0d62ab"/><path fill="#35c1f1" d="M34,11H6A1,1,0,0,1,6,9H34a1,1,0,0,1,0,2Z"/><path fill="#21a366" d="M44.33066,44.33066c-4.80417,4.814-14.244,3.59561-15.76948,3.35789-.14855-.01977-.21789-.02968-.21789-.02968L29,45,46,29l1.65887-.65671s.00991.06934.02974.21789C47.92633,30.08665,49.14468,39.52649,44.33066,44.33066Z"/><path fill="#33c481" d="M47.65887,28.34329,28.34329,47.65887s-1.92166-10.74743,3.3282-15.98738C36.9115,26.42163,47.65887,28.34329,47.65887,28.34329Z"/><path d="M30.96,30.97C27.71,34.21,27,39.26,26.99,43H28c.02-3.56.68-8.34,3.67-11.33C34.39,28.95,38.59,28.16,42,28.02v-.99C38.4,27.16,33.91,28.01,30.96,30.97Z" opacity=".05"/><path d="M31.32,31.32C28.19,34.44,27.5,39.36,27.49,43H28c.02-3.56.68-8.34,3.67-11.33C34.39,28.95,38.59,28.16,42,28.02v-.5C38.5,27.66,34.16,28.47,31.32,31.32Z" opacity=".07"/></svg>