<svg xmlns="http://www.w3.org/2000/svg" viewBox="0 0 48 48"><linearGradient id="ye06HXCamwhO6HpU2oVk8a" x1="59.529" x2="-2.496" y1="34.5" y2="34.5" gradientUnits="userSpaceOnUse"><stop offset="0" stop-color="#a34f27"/><stop offset=".587" stop-color="#8b3817"/><stop offset="1" stop-color="#802d10"/></linearGradient><path fill="url(#ye06HXCamwhO6HpU2oVk8a)" d="M42.714,36.875C43.843,36.288,45,35.688,45,34.5s-1.157-1.788-2.286-2.375	C38.143,29.75,34.714,25,26.143,25C18.884,25,13,29.253,13,34.5S18.884,44,26.143,44C34.714,44,38.143,39.25,42.714,36.875z"/><linearGradient id="ye06HXCamwhO6HpU2oVk8b" x1="48.412" x2="10.592" y1="-4.412" y2="33.408" gradientUnits="userSpaceOnUse"><stop offset="0" stop-color="#eba84b"/><stop offset="1" stop-color="#d97218"/></linearGradient><path fill="url(#ye06HXCamwhO6HpU2oVk8b)" d="M39.508,4.492c-0.829-0.829-2.057-0.441-3.255-0.062c-4.851,1.534-10.563,0.611-16.549,6.597	c-5.069,5.069-6.208,12.149-2.544,15.813s10.744,2.525,15.813-2.544c5.986-5.986,5.063-11.698,6.597-16.549	C39.949,6.549,40.337,5.321,39.508,4.492z"/><radialGradient id="ye06HXCamwhO6HpU2oVk8c" cx="11.618" cy="26.559" r="15.538" gradientTransform="matrix(.0019 -1 .7609 .0014 -8.614 38.138)" gradientUnits="userSpaceOnUse"><stop offset=".841" stop-opacity=".2"/><stop offset="1" stop-opacity="0"/></radialGradient><path fill="url(#ye06HXCamwhO6HpU2oVk8c)" d="M42.714,32.125c-3.502-1.82-6.343-5.027-11.331-6.43c0.545-0.43,1.08-0.889,1.59-1.399	c5.986-5.986,5.063-11.698,6.597-16.549c0.379-1.198,0.767-2.426-0.062-3.255c-0.829-0.829-2.057-0.441-3.255-0.062	c-4.851,1.534-10.563,0.611-16.549,6.597c-5.069,5.069-6.208,12.149-2.544,15.813c0.153,0.153,0.32,0.285,0.484,0.421	C14.806,29.003,13,31.597,13,34.5c0,5.247,5.884,9.5,13.143,9.5c8.571,0,12-4.75,16.571-7.125C43.843,36.288,45,35.688,45,34.5	S43.843,32.712,42.714,32.125z"/><linearGradient id="ye06HXCamwhO6HpU2oVk8d" x1="12.5" x2="12.5" y1="4.059" y2="49.329" gradientUnits="userSpaceOnUse"><stop offset="0" stop-color="#ffcf7b"/><stop offset=".196" stop-color="#fecd76"/><stop offset=".439" stop-color="#fac666"/><stop offset=".709" stop-color="#f3bc4d"/><stop offset=".995" stop-color="#eaad2a"/><stop offset="1" stop-color="#eaad29"/></linearGradient><path fill="url(#ye06HXCamwhO6HpU2oVk8d)" d="M14.875,10.286C14.288,9.157,13.688,8,12.5,8s-1.788,1.157-2.375,2.286	C7.75,14.857,3,18.286,3,26.857C3,34.116,7.253,40,12.5,40S22,34.116,22,26.857C22,18.286,17.25,14.857,14.875,10.286z"/></svg>