<svg xmlns="http://www.w3.org/2000/svg" xmlns:xlink="http://www.w3.org/1999/xlink" data-name="Слой 1" viewBox="0 0 48 48"><defs><linearGradient id="0KR05WVmjoBW99n2FJ1t6b" x1="21" x2="21" y1="42.505" y2="25.966" data-name="Безымянный градиент 11" gradientUnits="userSpaceOnUse"><stop offset=".859" stop-color="#d97218"/><stop offset=".904" stop-color="#c46716"/><stop offset="1" stop-color="#ba6215"/></linearGradient><linearGradient id="0KR05WVmjoBW99n2FJ1t6a" x1="11.183" x2="20.574" y1="12" y2="12" data-name="Безымянный градиент 2" gradientUnits="userSpaceOnUse"><stop offset="0" stop-color="#ffcf54"/><stop offset=".261" stop-color="#fdcb4d"/><stop offset=".639" stop-color="#f7c13a"/><stop offset="1" stop-color="#f0b421"/></linearGradient><linearGradient id="0KR05WVmjoBW99n2FJ1t6c" x1="32.183" x2="41.574" xlink:href="#0KR05WVmjoBW99n2FJ1t6a"/><linearGradient id="0KR05WVmjoBW99n2FJ1t6d" x1="21" x2="21" y1="19.777" y2="27.195" data-name="Безымянный градиент 10" gradientUnits="userSpaceOnUse"><stop offset="0" stop-color="#eba84b"/><stop offset=".252" stop-color="#e9a144"/><stop offset=".624" stop-color="#e28d31"/><stop offset="1" stop-color="#d97218"/></linearGradient><linearGradient id="0KR05WVmjoBW99n2FJ1t6e" x1="40.239" x2="45.739" y1="330.761" y2="325.261" gradientTransform="matrix(1 0 0 -1 -6 340)" xlink:href="#0KR05WVmjoBW99n2FJ1t6a"/><linearGradient id="0KR05WVmjoBW99n2FJ1t6f" x1="12.331" x2="26.862" y1="23.426" y2="63.349" gradientUnits="userSpaceOnUse"><stop offset="0" stop-color="#a34f27"/><stop offset=".587" stop-color="#8b3817"/><stop offset="1" stop-color="#802d10"/></linearGradient></defs><path fill="url(#0KR05WVmjoBW99n2FJ1t6b)" d="M6,24H36a0,0,0,0,1,0,0V42a2,2,0,0,1-2,2H8a2,2,0,0,1-2-2V24A0,0,0,0,1,6,24Z"/><path fill="url(#0KR05WVmjoBW99n2FJ1t6a)" d="M16,16a4,4,0,1,1,4-4,3.99941,3.99941,0,0,1-4,4"/><path fill="url(#0KR05WVmjoBW99n2FJ1t6c)" d="M37,16a4,4,0,1,1,4-4,3.99941,3.99941,0,0,1-4,4"/><path fill="#199be2" d="M9,23.0625a7.37076,7.37076,0,0,1,14,0V24.75H9Z"/><rect width="34" height="4" x="4" y="22" fill="url(#0KR05WVmjoBW99n2FJ1t6d)" rx="2"/><path fill="url(#0KR05WVmjoBW99n2FJ1t6e)" d="M37,16a4,4,0,1,1,4-4,4.01176,4.01176,0,0,1-4,4"/><path fill="#35c1f1" d="M33,28h3V42.5A1.50055,1.50055,0,0,1,34.5,44h0A1.50055,1.50055,0,0,1,33,42.5Z"/><path fill="#35c1f1" d="M38,28h3V42.5A1.50055,1.50055,0,0,1,39.5,44h0A1.50055,1.50055,0,0,1,38,42.5Z"/><path fill="#35c1f1" d="M25.271,28.64l5.955-8.507A5.00031,5.00031,0,0,1,35.322,18H38a5.00054,5.00054,0,0,1,5,5v9.5a1.49636,1.49636,0,0,1-2.908.5H38a1,1,0,0,0-2,0H33V24.666a.57889.57889,0,0,0-1.053-.332L27.729,30.36a1.5,1.5,0,0,1-2.458-1.72Z"/><path d="M33,42.5V24.67a.57343.57343,0,0,0-.58-.58.55248.55248,0,0,0-.47.24l-4.22,6.03A1.49142,1.49142,0,0,1,26.5,31a1.49974,1.49974,0,0,1-1.23-2.36L29.92,22H28.7l-4.25,6.07a2.50045,2.50045,0,0,0,.62,3.48,2.49811,2.49811,0,0,0,3.48-.62L32,26V42.5a2.50311,2.50311,0,0,0,.5,1.5H34a2.45726,2.45726,0,0,0,.28-.02A1.489,1.489,0,0,1,33,42.5Z" opacity=".05"/><path d="M33,42.5V24.67a.57343.57343,0,0,0-.58-.58.55248.55248,0,0,0-.47.24l-4.22,6.03A1.49142,1.49142,0,0,1,26.5,31a1.49974,1.49974,0,0,1-1.23-2.36L29.92,22h-.61l-4.45,6.35a1.99458,1.99458,0,0,0-.33,1.5A2.02394,2.02394,0,0,0,25.35,31.14a2.0587,2.0587,0,0,0,1.15.36,2.02366,2.02366,0,0,0,1.64-.85l4.22-6.03a.06047.06047,0,0,1,.06-.03.07413.07413,0,0,1,.08.08V42.5a1.9756,1.9756,0,0,0,.69,1.5H34a2.45726,2.45726,0,0,0,.28-.02A1.489,1.489,0,0,1,33,42.5Z" opacity=".07"/><path fill="#343434" d="M21.25,40.5h-6v-8a1.50164,1.50164,0,0,1,1.5-1.5h3a1.50164,1.50164,0,0,1,1.5,1.5Zm-5-1h4v-7a.50065.50065,0,0,0-.5-.5h-3a.50065.50065,0,0,0-.5.5Z"/><rect width="16" height="10" x="10" y="34" fill="url(#0KR05WVmjoBW99n2FJ1t6f)" rx="1"/></svg>