<svg xmlns="http://www.w3.org/2000/svg" viewBox="0 0 48 48"><linearGradient id="qBH9qt1mG7LbCFyESNT_za" x1="15.595" x2="35.333" y1="-592.867" y2="-623.264" gradientTransform="matrix(1 0 0 -1 0 -588)" gradientUnits="userSpaceOnUse"><stop offset="0" stop-color="#f44f5a"/><stop offset=".443" stop-color="#ee3d4a"/><stop offset="1" stop-color="#e52030"/></linearGradient><path fill="url(#qBH9qt1mG7LbCFyESNT_za)" d="M24,12.25c0,0,4.701-5.25,10.5-5.25S45,11.765,45,17.5c0,9.869-15.466,21.138-19.853,24.135	c-0.695,0.475-1.599,0.475-2.294,0C18.466,38.638,3,27.369,3,17.5C3,11.765,7.701,7,13.5,7S24,12.25,24,12.25z"/><path d="M25.893,15c0.078,0,0.158,0.02,0.232,0.064c0.725,0.433,1.241,1.04,1.444,1.613C28.356,17.165,29,18.091,29,19.156 C29,20.727,28.356,22,27.162,22S25,20.727,25,19.156c0-0.989,0.084-1.859,0.444-2.369v-1.36C25.444,15.179,25.66,15,25.893,15 M22.107,15c0.232,0,0.448,0.179,0.448,0.428v1.36c0.36,0.51,0.444,1.38,0.444,2.369C23,20.727,22.032,22,20.838,22 S19,20.727,19,19.156c0-1.065,0.644-1.991,1.431-2.479c0.203-0.573,0.719-1.18,1.444-1.613C21.949,15.02,22.029,15,22.107,15 M31,20.5c0.075,0,0.15,0.029,0.197,0.087c0.525,0.651,0.714,1.46,0.776,1.993C32.595,23.126,33,24.005,33,25 c0,1.657-1.119,3-2.5,3c-1,0-0.872-0.866-1.5-1.5c-0.715-0.721-1-0.75-1-1.5c0-0.5,0.5-1,1-1.5 c0.425-0.425,0.494-1.206,1.118-1.432c0.108-0.469,0.309-1.015,0.685-1.481C30.85,20.529,30.925,20.5,31,20.5 M17,20.5 c0.075,0,0.15,0.029,0.197,0.087c0.376,0.466,0.577,1.012,0.685,1.481c0.624,0.226,0.693,1.007,1.118,1.432c0.5,0.5,1,1,1,1.5 c0,0.75-0.285,0.779-1,1.5c-0.628,0.634-0.5,1.5-1.5,1.5c-1.381,0-2.5-1.343-2.5-3c0-0.995,0.405-1.874,1.027-2.42 c0.062-0.533,0.251-1.342,0.776-1.993C16.85,20.529,16.925,20.5,17,20.5 M24.24,25c1.326,0,2.4,1.06,2.4,2.368 c0,0,0,1.421,0.96,1.895c1.325,0,2.4,1.06,2.4,2.368S28.925,34,27.6,34c-1.724,0-2.288-0.762-3.08-0.918 c-0.096-0.014-0.193-0.03-0.28-0.03c-0.96,0-1.56,0.947-3.6,0.947C19.182,34,18,32.834,18,31.395s1.182-2.605,2.64-2.605 c0.48,0,1.2-0.592,1.2-1.421C21.84,26.06,22.915,25,24.24,25 M25.893,14c-0.799,0-1.448,0.64-1.448,1.428v1.087 C24.057,17.273,24,18.264,24,19.156C24,21.276,25.419,23,27.162,23c0.439,0,0.84-0.103,1.195-0.296 c-0.024,0.039-0.046,0.071-0.064,0.089C27.687,23.399,27,24.086,27,25c0,0.165,0.012,0.313,0.034,0.449 C26.419,24.575,25.396,24,24.24,24c-1.875,0-3.4,1.511-3.4,3.368c0,0.214-0.171,0.377-0.257,0.422 c-0.493,0.008-0.963,0.113-1.39,0.297c0.097-0.152,0.171-0.299,0.231-0.42c0.093-0.188,0.174-0.35,0.286-0.463 c0.153-0.155,0.285-0.274,0.397-0.376C20.546,26.429,21,26.016,21,25c0-0.914-0.687-1.601-1.293-2.207 c-0.018-0.018-0.04-0.05-0.064-0.089C19.997,22.897,20.399,23,20.838,23C22.581,23,24,21.276,24,19.156 c0-0.892-0.057-1.883-0.444-2.641v-1.087c0-0.787-0.65-1.428-1.448-1.428c-0.262,0-0.52,0.071-0.745,0.206 c-0.779,0.465-1.396,1.112-1.736,1.81C18.616,16.763,18,17.939,18,19.156c0,0.322,0.022,0.629,0.065,0.919 c-0.029-0.039-0.059-0.078-0.09-0.116C17.74,19.667,17.385,19.5,17,19.5c-0.384,0-0.74,0.167-0.976,0.459 c-0.564,0.699-0.821,1.5-0.937,2.142C14.392,22.854,14,23.889,14,25c0,2.206,1.57,4,3.5,4c0.168,0,0.321-0.015,0.461-0.043 C17.364,29.599,17,30.456,17,31.395C17,33.383,18.633,35,20.64,35c1.435,0,2.29-0.405,2.914-0.701 c0.332-0.157,0.528-0.247,0.686-0.247c0.032,0.002,0.073,0.01,0.114,0.016c0.11,0.022,0.286,0.113,0.51,0.228 C25.442,34.593,26.233,35,27.6,35c1.875,0,3.4-1.511,3.4-3.368c0-1.747-1.349-3.188-3.07-3.353 c-0.197-0.215-0.286-0.676-0.29-0.918c0-0.312-0.043-0.614-0.125-0.901c0.119,0.134,0.249,0.252,0.377,0.369 c0.112,0.102,0.244,0.221,0.397,0.376c0.112,0.113,0.193,0.275,0.286,0.462C28.808,28.133,29.239,29,30.5,29 c1.93,0,3.5-1.794,3.5-4c0-1.111-0.392-2.146-1.087-2.899c-0.116-0.642-0.374-1.443-0.937-2.142C31.74,19.667,31.385,19.5,31,19.5 c-0.384,0-0.74,0.167-0.976,0.459c-0.031,0.038-0.061,0.077-0.09,0.116C29.978,19.785,30,19.478,30,19.156 c0-1.218-0.616-2.393-1.626-3.14c-0.34-0.698-0.957-1.344-1.736-1.81C26.412,14.071,26.155,14,25.893,14L25.893,14z" opacity=".05"/><path d="M25.893,15c0.078,0,0.158,0.02,0.232,0.064c0.725,0.433,1.241,1.04,1.444,1.613C28.356,17.165,29,18.091,29,19.156 C29,20.727,28.356,22,27.162,22S25,20.727,25,19.156c0-0.989,0.084-1.859,0.444-2.369v-1.36C25.444,15.179,25.66,15,25.893,15 M22.107,15c0.232,0,0.448,0.179,0.448,0.428v1.36c0.36,0.51,0.444,1.38,0.444,2.369C23,20.727,22.032,22,20.838,22 S19,20.727,19,19.156c0-1.065,0.644-1.991,1.431-2.479c0.203-0.573,0.719-1.18,1.444-1.613C21.949,15.02,22.029,15,22.107,15 M31,20.5c0.075,0,0.15,0.029,0.197,0.087c0.525,0.651,0.714,1.46,0.776,1.993C32.595,23.126,33,24.005,33,25 c0,1.657-1.119,3-2.5,3c-1,0-0.872-0.866-1.5-1.5c-0.715-0.721-1-0.75-1-1.5c0-0.5,0.5-1,1-1.5 c0.425-0.425,0.494-1.206,1.118-1.432c0.108-0.469,0.309-1.015,0.685-1.481C30.85,20.529,30.925,20.5,31,20.5 M17,20.5 c0.075,0,0.15,0.029,0.197,0.087c0.376,0.466,0.577,1.012,0.685,1.481c0.624,0.226,0.693,1.007,1.118,1.432c0.5,0.5,1,1,1,1.5 c0,0.75-0.285,0.779-1,1.5c-0.628,0.634-0.5,1.5-1.5,1.5c-1.381,0-2.5-1.343-2.5-3c0-0.995,0.405-1.874,1.027-2.42 c0.062-0.533,0.251-1.342,0.776-1.993C16.85,20.529,16.925,20.5,17,20.5 M24.24,25c1.326,0,2.4,1.06,2.4,2.368 c0,0,0,1.421,0.96,1.895c1.325,0,2.4,1.06,2.4,2.368S28.925,34,27.6,34c-1.724,0-2.288-0.762-3.08-0.918 c-0.096-0.014-0.193-0.03-0.28-0.03c-0.96,0-1.56,0.947-3.6,0.947C19.182,34,18,32.834,18,31.395s1.182-2.605,2.64-2.605 c0.48,0,1.2-0.592,1.2-1.421C21.84,26.06,22.915,25,24.24,25 M25.893,14.5c-0.523,0-0.948,0.416-0.948,0.928v1.214 c-0.389,0.669-0.444,1.64-0.444,2.514c0,1.844,1.194,3.344,2.662,3.344c1.398,0,2.338-1.344,2.338-3.344 c0-1.099-0.58-2.161-1.524-2.81c-0.283-0.653-0.855-1.269-1.594-1.711C26.233,14.547,26.064,14.5,25.893,14.5L25.893,14.5z M22.107,14.5c-0.172,0-0.341,0.047-0.489,0.135c-0.74,0.442-1.312,1.058-1.594,1.711c-0.944,0.649-1.524,1.711-1.524,2.81 c0,2,0.94,3.344,2.338,3.344c1.468,0,2.662-1.5,2.662-3.344c0-0.874-0.055-1.845-0.444-2.514v-1.214 C23.056,14.916,22.63,14.5,22.107,14.5L22.107,14.5z M31,20c-0.233,0-0.446,0.1-0.586,0.273c-0.323,0.401-0.566,0.887-0.723,1.448 c-0.388,0.239-0.584,0.625-0.747,0.945c-0.096,0.19-0.188,0.37-0.297,0.48C28.083,23.71,27.5,24.293,27.5,25 c0,0.795,0.306,1.073,0.729,1.458c0.117,0.107,0.255,0.232,0.416,0.394c0.169,0.17,0.271,0.375,0.379,0.592 C29.245,27.89,29.549,28.5,30.5,28.5c1.654,0,3-1.57,3-3.5c0-1.038-0.382-1.997-1.055-2.664c-0.082-0.531-0.296-1.367-0.858-2.063 C31.446,20.1,31.233,20,31,20L31,20z M17,20c-0.233,0-0.446,0.1-0.586,0.273c-0.562,0.696-0.776,1.532-0.858,2.063 C14.882,23.003,14.5,23.962,14.5,25c0,1.93,1.346,3.5,3,3.5c0.951,0,1.255-0.61,1.476-1.056c0.108-0.217,0.21-0.422,0.379-0.592 c0.161-0.162,0.299-0.287,0.416-0.394C20.194,26.073,20.5,25.795,20.5,25c0-0.707-0.583-1.29-1.146-1.854 c-0.11-0.11-0.201-0.289-0.297-0.48c-0.163-0.321-0.358-0.707-0.747-0.945c-0.157-0.561-0.4-1.048-0.723-1.448 C17.446,20.1,17.233,20,17,20L17,20z M24.24,24.5c-1.599,0-2.9,1.287-2.9,2.868c0,0.554-0.498,0.921-0.7,0.921 c-1.731,0-3.14,1.393-3.14,3.105c0,1.712,1.409,3.105,3.14,3.105c1.322,0,2.119-0.377,2.7-0.653 c0.361-0.171,0.622-0.295,0.9-0.295c0.059,0,0.124,0.012,0.188,0.021c0.201,0.039,0.406,0.144,0.664,0.277 c0.532,0.274,1.261,0.648,2.507,0.648c1.599,0,2.9-1.287,2.9-2.868c0-1.536-1.228-2.795-2.764-2.865 c-0.572-0.373-0.596-1.389-0.596-1.4C27.14,25.787,25.839,24.5,24.24,24.5L24.24,24.5z" opacity=".07"/><linearGradient id="qBH9qt1mG7LbCFyESNT_zb" x1="24" x2="24" y1="6" y2="44.838" gradientUnits="userSpaceOnUse"><stop offset="0" stop-color="#ffcf54"/><stop offset=".261" stop-color="#fdcb4d"/><stop offset=".639" stop-color="#f7c13a"/><stop offset="1" stop-color="#f0b421"/></linearGradient><path fill="url(#qBH9qt1mG7LbCFyESNT_zb)" d="M23,19.156C23,20.727,22.032,22,20.838,22C19.644,22,19,20.727,19,19.156 c0-1.065,0.644-1.991,1.431-2.479c0.203-0.573,0.719-1.18,1.444-1.613c0.295-0.176,0.681,0.031,0.681,0.363v1.36 C22.916,17.297,23,18.167,23,19.156z M27.569,16.677c-0.203-0.573-0.719-1.18-1.444-1.613c-0.295-0.176-0.681,0.031-0.681,0.363 v1.36c-0.36,0.51-0.444,1.38-0.444,2.369C25,20.727,25.968,22,27.162,22C28.356,22,29,20.727,29,19.156 C29,18.091,28.356,17.165,27.569,16.677z M27.6,29.263c-0.96-0.474-0.96-1.895-0.96-1.895c0-1.308-1.075-2.368-2.4-2.368 c-1.325,0-2.4,1.06-2.4,2.368c0,0.829-0.72,1.421-1.2,1.421c-1.458,0-2.64,1.166-2.64,2.605C18,32.834,19.182,34,20.64,34 c2.04,0,2.64-0.947,3.6-0.947c0.088,0,0.184,0.015,0.28,0.03C25.312,33.238,25.876,34,27.6,34c1.325,0,2.4-1.06,2.4-2.368 C30,30.324,28.925,29.263,27.6,29.263z M19,23.5c-0.425-0.425-0.494-1.206-1.118-1.432c-0.108-0.469-0.309-1.015-0.685-1.481 c-0.094-0.116-0.301-0.116-0.394,0c-0.525,0.651-0.714,1.46-0.776,1.993C15.405,23.126,15,24.005,15,25c0,1.657,1.119,3,2.5,3 c1,0,0.872-0.866,1.5-1.5c0.715-0.721,1-0.75,1-1.5C20,24.5,19.5,24,19,23.5z M31.973,22.58c-0.062-0.533-0.251-1.342-0.776-1.993 c-0.094-0.116-0.301-0.116-0.394,0c-0.376,0.466-0.577,1.012-0.685,1.481C29.494,22.294,29.425,23.075,29,23.5c-0.5,0.5-1,1-1,1.5 c0,0.75,0.285,0.779,1,1.5c0.628,0.634,0.5,1.5,1.5,1.5c1.381,0,2.5-1.343,2.5-3C33,24.005,32.595,23.126,31.973,22.58z"/></svg>