<svg xmlns="http://www.w3.org/2000/svg" viewBox="0 0 48 48"><polygon fill="#0e6f38" points="44.584,13.091 34,19 34,24 46,24 46,14"/><linearGradient id="eZSX6JF6VB3E4h5QjkqGPa" x1="16.243" x2="19.966" y1="10.958" y2="38.592" gradientUnits="userSpaceOnUse"><stop offset="0" stop-color="#21ad64"/><stop offset="1" stop-color="#149753"/></linearGradient><path fill="url(#eZSX6JF6VB3E4h5QjkqGPa)" d="M32,38H4c-1.105,0-2-0.895-2-2V12c0-1.105,0.895-2,2-2h28c1.105,0,2,0.895,2,2v24	C34,37.105,33.105,38,32,38z"/><circle cx="45" cy="14" r="1" fill="#0e6f38"/><polygon fill="#0e6f38" points="44.584,34.909 34,29 34,24 46,24 46,34"/><circle cx="45" cy="34" r="1" fill="#0e6f38"/></svg>