<svg xmlns="http://www.w3.org/2000/svg" viewBox="0 0 48 48"><linearGradient id="mbeHUQygFC2OBWR_cZ1tNa" x1="24" x2="24" y1="6.332" y2="69.955" gradientUnits="userSpaceOnUse"><stop offset="0" stop-color="#c26715"/><stop offset="0" stop-color="#c26715"/><stop offset=".51" stop-color="#b85515"/><stop offset="1" stop-color="#ad3f16"/></linearGradient><path fill="url(#mbeHUQygFC2OBWR_cZ1tNa)" d="M5,27.376C5,38.107,13.507,42,24,42s19-3.893,19-14.624S34.493,7,24,7S5,16.645,5,27.376z"/><linearGradient id="mbeHUQygFC2OBWR_cZ1tNb" x1="8.765" x2="39.235" y1="24.5" y2="24.5" gradientUnits="userSpaceOnUse"><stop offset="0" stop-color="#ffda94"/><stop offset="1" stop-color="#fff0ce"/></linearGradient><path fill="url(#mbeHUQygFC2OBWR_cZ1tNb)" d="M38.385,30.804c0.635,0.095,1.022,0.772,0.774,1.365C37.264,36.705,32.19,39,24,39	s-13.264-2.295-15.159-6.831c-0.248-0.593,0.139-1.27,0.774-1.365c7.144-1.071,11.333-6.449,8.482-10.622	c-0.991-1.45-2.645-2.244-4.4-2.176c-0.807,0.031-1.527,0.183-2.161,0.405c-0.439,0.154-0.826-0.359-0.574-0.749	C13.911,13.104,18.757,10,24,10s10.089,3.104,13.039,7.662c0.253,0.391-0.135,0.903-0.574,0.749	c-0.634-0.222-1.355-0.374-2.161-0.405c-1.755-0.067-3.409,0.726-4.4,2.176C27.052,24.355,31.242,29.733,38.385,30.804z"/><path fill="#5c2415" d="M33.667,24h-2C31.299,24,31,23.701,31,23.333v-0.031C31,21.479,32.479,20,34.303,20h0.031	C34.701,20,35,20.299,35,20.667v2C35,23.403,34.403,24,33.667,24z"/><path fill="#5c2415" d="M14.333,24h2C16.701,24,17,23.701,17,23.333v-0.031C17,21.479,15.521,20,13.697,20h-0.031	C13.299,20,13,20.299,13,20.667v2C13,23.403,13.597,24,14.333,24z"/><path fill="#5c2415" d="M24,33c0,0-4-0.25-6-1c0.5,4,6,4,6,4s5.5,0,6-4C28,32.75,24,33,24,33z"/><linearGradient id="mbeHUQygFC2OBWR_cZ1tNc" x1="20.5" x2="20.5" y1="21.103" y2="40.989" gradientUnits="userSpaceOnUse"><stop offset="0" stop-color="#a34f27"/><stop offset=".587" stop-color="#8b3817"/><stop offset="1" stop-color="#802d10"/></linearGradient><path fill="url(#mbeHUQygFC2OBWR_cZ1tNc)" d="M23,34c-4.414,0-5.633-1.218-6.707-2.293c-0.391-0.391-0.391-1.023,0-1.414	s1.023-0.391,1.414,0c0.861,0.861,1.612,1.612,4.679,1.698l0.72-1.438c0.248-0.494,0.847-0.692,1.342-0.447	c0.494,0.247,0.694,0.848,0.447,1.342l-1,2C23.725,33.786,23.379,34,23,34z"/><linearGradient id="mbeHUQygFC2OBWR_cZ1tNd" x1="27.5" x2="27.5" y1="21.103" y2="40.989" gradientUnits="userSpaceOnUse"><stop offset="0" stop-color="#a34f27"/><stop offset=".587" stop-color="#8b3817"/><stop offset="1" stop-color="#802d10"/></linearGradient><path fill="url(#mbeHUQygFC2OBWR_cZ1tNd)" d="M25,34c-0.379,0-0.725-0.214-0.895-0.553l-1-2c-0.247-0.494-0.047-1.095,0.447-1.342	c0.494-0.245,1.094-0.047,1.342,0.447l0.72,1.438c3.066-0.086,3.817-0.837,4.679-1.698c0.391-0.391,1.023-0.391,1.414,0	s0.391,1.023,0,1.414C30.633,32.782,29.414,34,25,34z"/><path fill="#5c2415" d="M24,23L24,23c-2.209,0-4,1.791-4,4v1.75c0,1.105,0.895,2,2,2h4c1.105,0,2-0.895,2-2V27	C28,24.791,26.209,23,24,23z"/></svg>