<svg xmlns="http://www.w3.org/2000/svg" viewBox="0 0 48 48"><linearGradient id="Ohy3VSnBrM2Kp9br3yJbAa" x1="9.858" x2="38.142" y1="516.142" y2="487.858" gradientTransform="matrix(1 0 0 -1 0 526)" gradientUnits="userSpaceOnUse"><stop offset="0" stop-color="#75daff"/><stop offset="1" stop-color="#1ea2e4"/></linearGradient><path fill="url(#Ohy3VSnBrM2Kp9br3yJbAa)" d="M44,24c0,11.045-8.955,20-20,20S4,35.045,4,24S12.955,4,24,4S44,12.955,44,24z"/><radialGradient id="Ohy3VSnBrM2Kp9br3yJbAb" cx="24" cy="502" r="18.5" gradientTransform="matrix(1 0 0 -1 0 526)" gradientUnits="userSpaceOnUse"><stop offset="0"/><stop offset="1" stop-opacity="0"/></radialGradient><circle cx="24" cy="24" r="18.5" fill="url(#Ohy3VSnBrM2Kp9br3yJbAb)"/><radialGradient id="Ohy3VSnBrM2Kp9br3yJbAc" cx="23.89" cy="518.606" r="37.883" gradientTransform="matrix(1 0 0 -1 0 526)" gradientUnits="userSpaceOnUse"><stop offset="0" stop-color="#fafafb"/><stop offset="1" stop-color="#c8cdd1"/></radialGradient><circle cx="24" cy="24" r="17" fill="url(#Ohy3VSnBrM2Kp9br3yJbAc)"/><polygon fill="#b2bbc7" points="33.899,33.899 25.414,22.586 14.101,14.101 22.586,25.414"/><polygon fill="#b2bbc7" points="37.999,24 24,22 10.001,24 24,26"/><polygon fill="#b2bbc7" points="33.899,14.101 22.586,22.586 14.101,33.899 25.414,25.415"/><path fill="#f25022" d="M19.757,24h8.485l-3.666-13.441c-0.161-0.588-0.993-0.588-1.154,0L19.757,24z"/><path fill="#00a4ef" d="M28.243,24h-8.485l3.666,13.441c0.161,0.588,0.993,0.588,1.154,0L28.243,24z"/><path fill="#fff" d="M25.061,22.939c0.586,0.586,0.586,1.535,0,2.121c-0.586,0.586-1.535,0.586-2.121,0 c-0.586-0.586-0.585-1.536,0-2.121C23.526,22.353,24.474,22.353,25.061,22.939"/></svg>