<svg xmlns="http://www.w3.org/2000/svg" viewBox="0 0 48 48"><linearGradient id="yMhTYC0Px3m_cl8gaabRha" x1="19" x2="19" y1="11.942" y2="39.149" gradientUnits="userSpaceOnUse"><stop offset="0" stop-color="#636363"/><stop offset="1" stop-color="#444"/></linearGradient><path fill="url(#yMhTYC0Px3m_cl8gaabRha)" d="M20,12c-0.552,0-1,0.448-1,1c0,0.191,0.083,0.384,0.1,0.42c0.507,1.427,2.9,4.951,2.9,8.09	C22,32,14,39,14,39h10V12H20z"/><linearGradient id="yMhTYC0Px3m_cl8gaabRhb" x1="33.983" x2="25.403" y1="25.5" y2="25.5" gradientUnits="userSpaceOnUse"><stop offset="0" stop-color="#4c4c4c"/><stop offset="1" stop-color="#444"/></linearGradient><path fill="url(#yMhTYC0Px3m_cl8gaabRhb)" d="M28,12c0.552,0,1,0.448,1,1c0,0.191-0.083,0.384-0.1,0.42c-0.507,1.427-2.9,4.951-2.9,8.09	C26,32,34,39,34,39H24V12H28z"/><linearGradient id="yMhTYC0Px3m_cl8gaabRhc" x1="24" x2="24" y1="39" y2="41.995" gradientUnits="userSpaceOnUse"><stop offset="0" stop-color="#eba600"/><stop offset="1" stop-color="#c28200"/></linearGradient><path fill="url(#yMhTYC0Px3m_cl8gaabRhc)" d="M34.5,39h-21c-0.828,0-1.5,0.672-1.5,1.5c0,0.828,0.672,1.5,1.5,1.5h21	c0.828,0,1.5-0.672,1.5-1.5C36,39.672,35.328,39,34.5,39z"/></svg>