<svg xmlns="http://www.w3.org/2000/svg" id="Layer_1" x="0" y="0" version="1.1" viewBox="0 0 48 48" xml:space="preserve"><linearGradient id="SVGID_1_" x1="-121.969" x2="-93.89" y1="-704.031" y2="-732.11" gradientTransform="rotate(90 -413 -281)" gradientUnits="userSpaceOnUse"><stop offset="0" stop-color="#fede00"/><stop offset=".519" stop-color="#fecc00"/><stop offset="1" stop-color="#ffb700"/></linearGradient><path fill="url(#SVGID_1_)" d="M24,44c11,0,20-9,20-20S35,4,24,4S4,13,4,24S13,44,24,44z"/><path fill="#343434" d="M20,20c-0.3,0-0.7-0.2-0.9-0.5c-0.5-0.9-1.5-1.5-2.6-1.5s-2.1,0.6-2.6,1.5c-0.3,0.5-0.9,0.6-1.4,0.4 c-0.5-0.3-0.6-0.9-0.4-1.4c0.9-1.5,2.6-2.5,4.3-2.5s3.4,1,4.3,2.5c0.3,0.5,0.1,1.1-0.4,1.4C20.3,20,20.1,20,20,20z"/><path fill="#343434" d="M35,20c-0.3,0-0.7-0.2-0.9-0.5c-0.5-0.9-1.5-1.5-2.6-1.5s-2.1,0.6-2.6,1.5c-0.3,0.5-0.9,0.6-1.4,0.4 c-0.5-0.3-0.6-0.9-0.4-1.4c0.9-1.5,2.6-2.5,4.3-2.5s3.4,1,4.3,2.5c0.3,0.5,0.1,1.1-0.4,1.4C35.3,20,35.1,20,35,20z"/><radialGradient id="SVGID_2_" cx="11.5" cy="29.5" r="5.682" gradientUnits="userSpaceOnUse"><stop offset="0" stop-color="#f34b56"/><stop offset="1" stop-color="#fed300" stop-opacity="0"/></radialGradient><circle cx="11.5" cy="29.5" r="4.5" fill="url(#SVGID_2_)"/><path fill="#343434" d="M31.8,29.7c0.4,0.4,0.3,1-0.1,1.4C29.5,33,26.8,34,24,34s-5.5-1-7.7-2.9c-0.4-0.4-0.5-1-0.1-1.4	c0.4-0.4,1-0.5,1.4-0.1c1.8,1.5,4,2.4,6.3,2.4s4.6-0.9,6.3-2.4c0.2-0.2,0.4-0.3,0.7-0.3C31.3,29.3,31.6,29.5,31.8,29.7z"/><radialGradient id="SVGID_3_" cx="36.5" cy="29.5" r="5.682" gradientUnits="userSpaceOnUse"><stop offset="0" stop-color="#f34b56"/><stop offset="1" stop-color="#fed400" stop-opacity="0"/></radialGradient><circle cx="36.5" cy="29.5" r="4.5" fill="url(#SVGID_3_)"/><path fill="#343434" d="M15.4,34c-0.3,0-0.5-0.1-0.7-0.3c-0.4-0.4-0.4-1,0-1.4c0.6-0.6,1-1.4,1-2.3c0-0.9-0.3-1.7-0.9-2.3 c-0.4-0.4-0.4-1,0-1.4s1-0.4,1.4,0c1,1,1.5,2.3,1.5,3.7c0,1.4-0.5,2.7-1.5,3.7C15.9,33.9,15.6,34,15.4,34z"/><path fill="#343434" d="M32.6,34c-0.3,0-0.5-0.1-0.7-0.3c-1-1-1.5-2.3-1.5-3.7c0-1.4,0.5-2.7,1.5-3.7c0.4-0.4,1-0.4,1.4,0 s0.4,1,0,1.4c-0.6,0.6-0.9,1.4-0.9,2.3c0,0.9,0.3,1.7,1,2.3c0.4,0.4,0.4,1,0,1.4C33.1,33.9,32.9,34,32.6,34z"/></svg>