<svg xmlns="http://www.w3.org/2000/svg" data-name="Слой 1" viewBox="0 0 48 48"><defs><linearGradient id="Rag9H5uR~2itogifahBWha" x1="24" x2="24" y1="40.804" y2="28.395" data-name="Безымянный градиент 11" gradientUnits="userSpaceOnUse"><stop offset=".859" stop-color="#d97218"/><stop offset=".904" stop-color="#c46716"/><stop offset="1" stop-color="#ba6215"/></linearGradient><linearGradient id="Rag9H5uR~2itogifahBWhb" x1="12.978" x2="24.717" y1="11" y2="11" data-name="Безымянный градиент 2" gradientUnits="userSpaceOnUse"><stop offset="0" stop-color="#ffcf54"/><stop offset=".261" stop-color="#fdcb4d"/><stop offset=".639" stop-color="#f7c13a"/><stop offset="1" stop-color="#f0b421"/></linearGradient><linearGradient id="Rag9H5uR~2itogifahBWhc" x1="24" x2="24" y1="21.777" y2="29.195" data-name="Безымянный градиент 10" gradientUnits="userSpaceOnUse"><stop offset="0" stop-color="#eba84b"/><stop offset=".252" stop-color="#e9a144"/><stop offset=".624" stop-color="#e28d31"/><stop offset="1" stop-color="#d97218"/></linearGradient></defs><path fill="url(#Rag9H5uR~2itogifahBWha)" d="M7,26H41a0,0,0,0,1,0,0V40a2,2,0,0,1-2,2H9a2,2,0,0,1-2-2V26A0,0,0,0,1,7,26Z"/><path fill="#64717c" d="M35.00456,21h0a.99444.99444,0,0,1-.99437-1.00549V19.994a.99444.99444,0,0,1,.98382-.98333h0a.99444.99444,0,0,1,1.005.99438v.00051A.99444.99444,0,0,1,35.00456,21Z"/><path fill="#bfc8d1" d="M37.956,25H32.043A1.043,1.043,0,0,1,31,23.957a3.9995,3.9995,0,1,1,7.999,0A1.043,1.043,0,0,1,37.956,25Z"/><path fill="url(#Rag9H5uR~2itogifahBWhb)" d="M19,16a5,5,0,1,1,5-5,4.99926,4.99926,0,0,1-5,5"/><path fill="#35c1f1" d="M10,24a9.39149,9.39149,0,0,1,9-6,9.39149,9.39149,0,0,1,9,6v2H10Z"/><rect width="38" height="4" x="5" y="24" fill="url(#Rag9H5uR~2itogifahBWhc)" rx="2"/></svg>