<svg xmlns="http://www.w3.org/2000/svg" viewBox="0 0 48 48"><linearGradient id="0D7oIjvPRLoW95YxYUItIa" x1="5.435" x2="41.676" y1="5.435" y2="41.676" gradientUnits="userSpaceOnUse"><stop offset="0" stop-color="#ed6c47"/><stop offset="1" stop-color="#d43a02"/></linearGradient><circle cx="24" cy="24" r="20" fill="url(#0D7oIjvPRLoW95YxYUItIa)"/><path d="M24,6c-1,3,2,5.5,2,8.5c0,1,0,2.5,0.5,4c0-2,0-7,2.5-9.5c-1,4.5,3,8,3,11.5c0,2.5-1,4.5-2,6c0,0,5-1,6.5-1.5 c-0.5,1.5-2,4-3,5c-2,0-19,0-19,0c-1-1-2.5-3.5-3-5c2.5,0.5,6.5,1.5,6.5,1.5c-1.5-1-2.5-2.5-2.5-4.5c0-3,2.5-7.5,2.5-9 c0-0.5,0-1-0.5-2c1.5,0.5,2.5,2.5,2.5,5.5c1-1,1.5-3,1.5-6.5C21.5,7,24,6,24,6 M34,32v3H14v-3H34 M29.91,37 c-0.47,2.84-2.94,5-5.91,5s-5.44-2.16-5.91-5H29.91 M25.63,4.271l-2.002,0.801C23.501,5.123,20.5,6.365,20.5,10 c0,1.044-0.045,1.951-0.136,2.727c-0.543-1.359-1.416-2.299-2.547-2.676l-2.29-0.763l1.08,2.159C17,12.236,17,12.556,17,13 c0,0.439-0.461,1.659-0.867,2.735C15.405,17.662,14.5,20.06,14.5,22c0,1.007,0.213,1.94,0.628,2.778 c-1.142-0.267-2.405-0.553-3.432-0.758l-1.69-0.338l0.545,1.635c0.552,1.657,2.128,4.277,3.242,5.391L14.086,31H14h-1v1v3v1h1 h2.911l0.193,1.163C17.663,40.545,20.564,43,24,43s6.337-2.455,6.897-5.837L31.089,36H34h1v-1v-3v-1h-1h-0.086l0.293-0.293 c1.114-1.114,2.689-3.734,3.242-5.391l0.632-1.897l-1.897,0.632c-0.802,0.267-2.709,0.696-4.23,1.021 C32.656,23.559,33,22.049,33,20.5c0-1.705-0.793-3.349-1.559-4.939c-0.967-2.007-1.968-4.081-1.465-6.344l0.745-3.352 l-2.428,2.428c-0.917,0.917-1.533,2.092-1.946,3.337c-0.175-0.424-0.368-0.839-0.56-1.25c-0.686-1.471-1.279-2.741-0.838-4.064 L25.63,4.271L25.63,4.271z" opacity=".05"/><path d="M24,6c-1,3,2,5.5,2,8.5c0,1,0,2.5,0.5,4c0-2,0-7,2.5-9.5c-1,4.5,3,8,3,11.5c0,2.5-1,4.5-2,6c0,0,5-1,6.5-1.5 c-0.5,1.5-2,4-3,5c-2,0-19,0-19,0c-1-1-2.5-3.5-3-5c2.5,0.5,6.5,1.5,6.5,1.5c-1.5-1-2.5-2.5-2.5-4.5c0-3,2.5-7.5,2.5-9 c0-0.5,0-1-0.5-2c1.5,0.5,2.5,2.5,2.5,5.5c1-1,1.5-3,1.5-6.5C21.5,7,24,6,24,6 M34,32v3H14v-3H34 M29.91,37 c-0.47,2.84-2.94,5-5.91,5s-5.44-2.16-5.91-5H29.91 M24.815,5.135l-1.001,0.4C23.699,5.582,21,6.699,21,10 c0,2.16-0.198,3.774-0.603,4.879c-0.307-2.285-1.283-3.868-2.739-4.354l-1.145-0.382l0.54,1.08C17.5,12.118,17.5,12.527,17.5,13 c0,0.53-0.437,1.687-0.899,2.912C15.888,17.801,15,20.151,15,22c0,1.346,0.414,2.547,1.213,3.549 c-1.378-0.331-3.232-0.763-4.615-1.04l-0.845-0.169l0.272,0.817c0.523,1.571,2.069,4.144,3.121,5.195l0.146,0.146H14.5h19h0.207 l0.146-0.146c1.051-1.051,2.597-3.625,3.121-5.195l0.316-0.949l-0.949,0.316c-1.02,0.34-3.754,0.928-5.312,1.253 c0.988-1.758,1.47-3.495,1.47-5.279c0-1.591-0.733-3.112-1.509-4.722c-1.004-2.083-2.043-4.238-1.502-6.67l0.372-1.676 l-1.214,1.214c-1.247,1.246-1.906,3.027-2.255,4.786c-0.197-0.997-0.633-1.931-1.058-2.841c-0.701-1.502-1.363-2.921-0.859-4.433 L24.815,5.135L24.815,5.135z M34.5,31.5H34H14h-0.5V32v3v0.5H14h20h0.5V35v-3V31.5L34.5,31.5z M30.5,36.5h-0.59H18.09H17.5 l0.096,0.582c0.52,3.14,3.213,5.418,6.403,5.418s5.884-2.279,6.403-5.418L30.5,36.5L30.5,36.5z" opacity=".07"/><path fill="#fff" d="M29.91,37c-0.47,2.84-2.94,5-5.91,5s-5.44-2.16-5.91-5H29.91z M34,32H14v3h20V32z M33.5,30 c1-1,2.5-3.5,3-5C35,25.5,30,26.5,30,26.5c1-1.5,2-3.5,2-6c0-3.5-4-7-3-11.5c-2.5,2.5-2.5,7.5-2.5,9.5c-0.5-1.5-0.5-3-0.5-4 c0-3-3-5.5-2-8.5c0,0-2.5,1-2.5,4c0,3.5-0.5,5.5-1.5,6.5c0-3-1-5-2.5-5.5c0.5,1,0.5,1.5,0.5,2c0,1.5-2.5,6-2.5,9c0,2,1,3.5,2.5,4.5 c0,0-4-1-6.5-1.5c0.5,1.5,2,4,3,5C14.5,30,31.5,30,33.5,30z"/></svg>