<svg xmlns="http://www.w3.org/2000/svg" viewBox="0 0 48 48"><path fill="#e756f7" d="M7.386,2.278L8.22,4.78l2.502,0.834c0.371,0.124,0.371,0.648,0,0.771L8.22,7.22L7.386,9.722	c-0.124,0.371-0.648,0.371-0.771,0L5.78,7.22L3.278,6.386c-0.371-0.124-0.371-0.648,0-0.771L5.78,4.78l0.834-2.502	C6.738,1.907,7.262,1.907,7.386,2.278z"/><linearGradient id="KGgl1pDa7y3hEZwVv_X76a" x1="10.557" x2="35.573" y1="12.557" y2="37.573" gradientUnits="userSpaceOnUse"><stop offset="0" stop-color="#63d6ff"/><stop offset="1" stop-color="#0a85d9"/></linearGradient><circle cx="23" cy="25" r="18" fill="url(#KGgl1pDa7y3hEZwVv_X76a)"/><linearGradient id="KGgl1pDa7y3hEZwVv_X76b" x1="31.141" x2="43.211" y1="5.298" y2="17.368" gradientTransform="matrix(.8474 -.1201 -.1201 .8474 7.45 5.64)" gradientUnits="userSpaceOnUse"><stop offset="0" stop-color="#5ccbf2"/><stop offset="1" stop-color="#1ea2e4"/></linearGradient><path fill="url(#KGgl1pDa7y3hEZwVv_X76b)" d="M39.402,17.598l-9-9l4.305-4.305c0.391-0.391,1.024-0.391,1.414,0l7.586,7.586	c0.391,0.391,0.391,1.024,0,1.414L39.402,17.598z"/><linearGradient id="KGgl1pDa7y3hEZwVv_X76c" x1="35.556" x2="40.446" y1="7.558" y2="12.447" gradientUnits="userSpaceOnUse"><stop offset="0" stop-color="#ada311"/><stop offset=".999" stop-color="#918215"/></linearGradient><path fill="url(#KGgl1pDa7y3hEZwVv_X76c)" d="M37.879,13.707l-3.586-3.586c-0.391-0.391-0.391-1.024,0-1.414l3.12-3.12l5,5l-3.12,3.12	C38.902,14.098,38.269,14.098,37.879,13.707z"/><linearGradient id="KGgl1pDa7y3hEZwVv_X76d" x1="38.52" x2="43.398" y1="4.693" y2="9.571" gradientUnits="userSpaceOnUse"><stop offset="0" stop-color="#eba600"/><stop offset="1" stop-color="#c28200"/></linearGradient><path fill="url(#KGgl1pDa7y3hEZwVv_X76d)" d="M40.121,4.293l3.586,3.586c0.391,0.391,0.391,1.024,0,1.414l-1.294,1.294l-5-5l1.294-1.294	C39.098,3.902,39.731,3.902,40.121,4.293z"/><linearGradient id="KGgl1pDa7y3hEZwVv_X76e" x1="15.74" x2="39.511" y1="7.74" y2="31.511" gradientUnits="userSpaceOnUse"><stop offset="0" stop-color="#d160f6"/><stop offset="1" stop-color="#c545ed"/></linearGradient><path fill="url(#KGgl1pDa7y3hEZwVv_X76e)" d="M21.289,10.209l0.626,1.877l1.877,0.626c0.278,0.093,0.278,0.486,0,0.579l-1.877,0.626	l-0.626,1.877c-0.093,0.278-0.486,0.278-0.579,0l-0.626-1.877l-1.877-0.626c-0.278-0.093-0.278-0.486,0-0.579l1.877-0.626	l0.626-1.877C20.803,9.93,21.197,9.93,21.289,10.209z"/><linearGradient id="KGgl1pDa7y3hEZwVv_X76f" x1="15.166" x2="34.146" y1="17.267" y2="36.246" gradientTransform="rotate(45.001 23 25)" gradientUnits="userSpaceOnUse"><stop offset="0" stop-color="#d160f6"/><stop offset="1" stop-color="#c545ed"/></linearGradient><path fill="url(#KGgl1pDa7y3hEZwVv_X76f)" d="M34.314,36.314c2.58-2.58,4.095-5.822,4.544-9.18C38.858,8,11,30,11.686,13.686	c-6.248,6.248-6.248,16.379,0,22.627S28.065,42.562,34.314,36.314z"/><linearGradient id="KGgl1pDa7y3hEZwVv_X76g" x1="15.166" x2="34.146" y1="17.267" y2="36.246" gradientTransform="rotate(45.001 23 25)" gradientUnits="userSpaceOnUse"><stop offset="0" stop-color="#d160f6"/><stop offset="1" stop-color="#9014b8"/></linearGradient><path fill="url(#KGgl1pDa7y3hEZwVv_X76g)" d="M34.314,36.314c2.58-2.58,4.095-5.822,4.544-9.18C38,33,33.988,24.425,29,23	c-7-2-20,5-17.314-9.314c-6.248,6.248-6.248,16.379,0,22.627S28.065,42.562,34.314,36.314z"/></svg>