<svg xmlns="http://www.w3.org/2000/svg" viewBox="0 0 48 48"><linearGradient id="ZQ6WFBUnonnzDP9vAacMLa" x1="18.5" x2="18.5" y1="20" y2="42.788" gradientUnits="userSpaceOnUse"><stop offset=".004" stop-color="#6d7882"/><stop offset="1" stop-color="#5a6269"/></linearGradient><path fill="url(#ZQ6WFBUnonnzDP9vAacMLa)" d="M28,42H9c-2.2,0-4-1.8-4-4V24c0-2.2,1.8-4,4-4h19c2.2,0,4,1.8,4,4v14C32,40.2,30.2,42,28,42z"/><linearGradient id="ZQ6WFBUnonnzDP9vAacMLb" x1="35.453" x2="39.703" y1="21.302" y2="41.08" gradientUnits="userSpaceOnUse"><stop offset=".004" stop-color="#6d7882"/><stop offset="1" stop-color="#5a6269"/></linearGradient><polygon fill="url(#ZQ6WFBUnonnzDP9vAacMLb)" points="34,36 40,41 40,21 34,26"/><path fill="#45494d" d="M32,26h2v10h-2V26z"/><path fill="#0076d7" d="M25,4c-4.418,0-8,3.582-8,8s3.582,8,8,8s8-3.582,8-8S29.418,4,25,4z"/><path fill="#0076d7" d="M11,8c-3.314,0-6,2.686-6,6s2.686,6,6,6s6-2.686,6-6S14.314,8,11,8z"/><circle cx="25" cy="12" r="2" fill="#32bdef"/><circle cx="11" cy="14" r="2" fill="#32bdef"/><circle cx="26" cy="26" r="2" fill="#eef2f3"/><rect width="3" height="20" x="40" y="21" fill="#7c8994"/></svg>