<svg xmlns="http://www.w3.org/2000/svg" viewBox="0 0 48 48"><linearGradient id="dmP_6f0knzmKe_U4ac6g-a" x1="41.136" x2="43.101" y1="247.5" y2="247.5" gradientTransform="translate(0 -218)" gradientUnits="userSpaceOnUse"><stop offset="0" stop-color="#c48f0c"/><stop offset=".251" stop-color="#d19b16"/><stop offset=".619" stop-color="#dca51f"/><stop offset="1" stop-color="#e0a922"/></linearGradient><path fill="url(#dmP_6f0knzmKe_U4ac6g-a)" d="M41.135,26h-0.778v7h1.011c0.778,0,1.4-0.544,1.556-1.322l0.544-2.956	C43.702,27.322,42.613,26,41.135,26z"/><linearGradient id="dmP_6f0knzmKe_U4ac6g-b" x1="11.993" x2="13.959" y1="247.5" y2="247.5" gradientTransform="matrix(-1 0 0 1 28.857 -218)" gradientUnits="userSpaceOnUse"><stop offset="0" stop-color="#c48f0c"/><stop offset=".251" stop-color="#d19b16"/><stop offset=".619" stop-color="#dca51f"/><stop offset="1" stop-color="#e0a922"/></linearGradient><path fill="url(#dmP_6f0knzmKe_U4ac6g-b)" d="M16.865,26h0.778v7h-1.011	c-0.778,0-1.4-0.544-1.556-1.322l-0.544-2.956C14.298,27.322,15.387,26,16.865,26z"/><radialGradient id="dmP_6f0knzmKe_U4ac6g-c" cx="29.011" cy="244.386" r="13.93" gradientTransform="matrix(.9991 0 0 1 .016 -218)" gradientUnits="userSpaceOnUse"><stop offset="0" stop-color="#ffcf54"/><stop offset=".261" stop-color="#fdcb4d"/><stop offset=".639" stop-color="#f7c13a"/><stop offset="1" stop-color="#f0b421"/></radialGradient><path fill="url(#dmP_6f0knzmKe_U4ac6g-c)" d="M29,10.771c-5.92,0-12,2.402-12,15.214	c0,1.041,0,4.724,0,5.845C17,36.395,24.2,42,29,42s12-5.605,12-10.169c0-1.121,0-4.804,0-5.845C41,13.173,34.92,10.771,29,10.771z"/><radialGradient id="dmP_6f0knzmKe_U4ac6g-d" cx="17.367" cy="228.544" r="34.16" gradientTransform="matrix(1 0 0 1.0015 0 -218.347)" gradientUnits="userSpaceOnUse"><stop offset="0" stop-color="#c26715"/><stop offset=".508" stop-color="#b85515"/><stop offset="1" stop-color="#ad3f16"/></radialGradient><path fill="url(#dmP_6f0knzmKe_U4ac6g-d)" d="M29.041,9c-6.39,0-7.988,2.4-7.988,2.4	c-2.556,0.4-5.591,3.68-5.591,8c0,2.4,0.5,3.52,1.539,9.6c0.799-9.6,1.652-13,3.25-13c2.496,0,2.75,2,9.25,2c4,0,5.902-2,7.5-2	c3.994,0,4,11.48,4,13c0.639-5.92,0.821-7.52,0.821-9.6C41.821,14.36,38.147,9,29.041,9z"/><path fill="#343434" d="M27.5,10.5c-0.256,0-0.512-0.098-0.707-0.293l-2.5-2.5c-0.391-0.391-0.391-1.023,0-1.414	s1.023-0.391,1.414,0l2.5,2.5c0.391,0.391,0.391,1.023,0,1.414C28.012,10.402,27.756,10.5,27.5,10.5z"/><path fill="#343434" d="M16.5,21.5c-0.256,0-0.512-0.098-0.707-0.293l-2.5-2.5c-0.391-0.391-0.391-1.023,0-1.414	s1.023-0.391,1.414,0l2.5,2.5c0.391,0.391,0.391,1.023,0,1.414C17.012,21.402,16.756,21.5,16.5,21.5z"/><linearGradient id="dmP_6f0knzmKe_U4ac6g-e" x1="11.466" x2="18.462" y1="13.468" y2="20.465" gradientUnits="userSpaceOnUse"><stop offset="0" stop-color="#5c65d6"/><stop offset=".367" stop-color="#5c65d6"/><stop offset=".422" stop-color="#5861cf"/><stop offset=".592" stop-color="#4e56be"/><stop offset=".776" stop-color="#4850b3"/><stop offset=".999" stop-color="#464eb0"/></linearGradient><path fill="url(#dmP_6f0knzmKe_U4ac6g-e)" d="M25.531,5.682l0.007-0.007	c0.254-0.254,0.254-0.671,0-0.925c-0.15-0.15-0.319-0.28-0.495-0.384c-0.176-0.104-0.358-0.189-0.553-0.247	c-0.879-0.28-1.888-0.065-2.585,0.632L2.749,23.906C2.247,24.408,2,25.065,2,25.723c0,0.658,0.247,1.315,0.749,1.817	c0.254,0.254,0.671,0.254,0.925,0l8.471-8.471c0.983,0.306,2.031,0.469,3.112,0.469C21.188,19.537,26,14.726,26,8.794	C26,7.713,25.837,6.665,25.531,5.682z"/><path fill="#343434" d="M26.5,14.5c-0.256,0-0.512-0.098-0.707-0.293l-2.5-2.5c-0.391-0.391-0.391-1.023,0-1.414	s1.023-0.391,1.414,0l2.5,2.5c0.391,0.391,0.391,1.023,0,1.414C27.012,14.402,26.756,14.5,26.5,14.5z"/><path fill="#343434" d="M20.5,20.5c-0.256,0-0.512-0.098-0.707-0.293l-2.5-2.5c-0.391-0.391-0.391-1.023,0-1.414	s1.023-0.391,1.414,0l2.5,2.5c0.391,0.391,0.391,1.023,0,1.414C21.012,20.402,20.756,20.5,20.5,20.5z"/><path fill="#343434" d="M24.125,18.125c-0.256,0-0.512-0.098-0.707-0.293l-2.125-2.125c-0.391-0.391-0.391-1.023,0-1.414	s1.023-0.391,1.414,0l2.125,2.125c0.391,0.391,0.391,1.023,0,1.414C24.637,18.027,24.381,18.125,24.125,18.125z"/></svg>