<svg xmlns="http://www.w3.org/2000/svg" viewBox="0 0 48 48"><path fill="#50e6ff" d="M4,38V15h40v23c0,1.1-0.9,2-2,2H6C4.9,40,4,39.1,4,38z"/><linearGradient id="X7yaSYKMFzhirWJP~LfFwa" x1="4.614" x2="42.936" y1="110.259" y2="102.467" gradientTransform="matrix(1 0 0 -1 0 118)" gradientUnits="userSpaceOnUse"><stop offset="0" stop-color="#0077d2"/><stop offset="1" stop-color="#0b59a2"/></linearGradient><path fill="url(#X7yaSYKMFzhirWJP~LfFwa)" d="M44,10v5H4v-5c0-1.1,0.9-2,2-2h36C43.1,8,44,8.9,44,10z"/><linearGradient id="X7yaSYKMFzhirWJP~LfFwb" x1="16" x2="42" y1="106.5" y2="106.5" gradientTransform="matrix(1 0 0 -1 0 118)" gradientUnits="userSpaceOnUse"><stop offset="0" stop-color="#7dd8f3"/><stop offset="1" stop-color="#45b0d0"/></linearGradient><path fill="url(#X7yaSYKMFzhirWJP~LfFwb)" d="M16.5,13h25c0.276,0,0.5-0.224,0.5-0.5v-2c0-0.276-0.224-0.5-0.5-0.5h-25	c-0.276,0-0.5,0.224-0.5,0.5v2C16,12.776,16.224,13,16.5,13z"/><linearGradient id="X7yaSYKMFzhirWJP~LfFwc" x1="6.751" x2="8.032" y1="107.584" y2="105.731" gradientTransform="matrix(1 0 0 -1 0 118)" gradientUnits="userSpaceOnUse"><stop offset="0" stop-color="#75daff"/><stop offset="1" stop-color="#49bef1"/></linearGradient><circle cx="7.5" cy="11.5" r="1.5" fill="url(#X7yaSYKMFzhirWJP~LfFwc)"/><linearGradient id="X7yaSYKMFzhirWJP~LfFwd" x1="11.751" x2="13.032" y1="107.584" y2="105.731" gradientTransform="matrix(1 0 0 -1 0 118)" gradientUnits="userSpaceOnUse"><stop offset="0" stop-color="#75daff"/><stop offset="1" stop-color="#49bef1"/></linearGradient><circle cx="12.5" cy="11.5" r="1.5" fill="url(#X7yaSYKMFzhirWJP~LfFwd)"/><circle cx="15" cy="24" r="2" fill="#057093"/><path fill="#057093" d="M15,27c-1.657,0-3,1.343-3,3v2.4c0,0.331,0.269,0.6,0.6,0.6h4.8c0.331,0,0.6-0.269,0.6-0.6V30	C18,28.343,16.657,27,15,27z"/><path fill="#057093" d="M35,27H23c-0.552,0-1,0.448-1,1l0,0c0,0.552,0.448,1,1,1h12c0.552,0,1-0.448,1-1l0,0	C36,27.448,35.552,27,35,27z"/><path fill="#057093" d="M31,31h-8c-0.552,0-1,0.448-1,1l0,0c0,0.552,0.448,1,1,1h8c0.552,0,1-0.448,1-1l0,0	C32,31.448,31.552,31,31,31z"/><path fill="#057093" d="M35,23H23c-0.552,0-1,0.448-1,1l0,0c0,0.552,0.448,1,1,1h12c0.552,0,1-0.448,1-1l0,0	C36,23.448,35.552,23,35,23z"/></svg>