<svg xmlns="http://www.w3.org/2000/svg" viewBox="0 0 48 48"><linearGradient id="luIH9ELLoNyyw84FoYM3ja" x1="16.197" x2="38.605" y1="47.133" y2="4.988" gradientTransform="matrix(1 0 0 -1 0 50)" gradientUnits="userSpaceOnUse"><stop offset="0" stop-color="#21ad64"/><stop offset="1" stop-color="#088242"/></linearGradient><path fill="url(#luIH9ELLoNyyw84FoYM3ja)" d="M42,10c-11.122,0-11.278-6-18-6s-6.878,6-18,6c-0.552,0-1,0.448-1,1c0,0,0,5.856,0,9	c0,1.378,0.178,2.712,0.493,4c2.936,12.007,18.08,19.907,18.08,19.907S23.784,44,24,44c0.203,0,0.427-0.093,0.427-0.093	s15.144-7.9,18.08-19.907C42.822,22.712,43,21.378,43,20c0-3.144,0-9,0-9C43,10.448,42.552,10,42,10z"/><path d="M18.268,27.992c-0.651,0-1.22-0.424-1.413-1.054l-0.427-1.392H14.16	l-0.422,1.388c-0.189,0.632-0.758,1.058-1.414,1.058h-1.537c-0.476,0-0.926-0.233-1.202-0.625c-0.283-0.399-0.355-0.914-0.192-1.377	l3.489-9.991c0.21-0.598,0.77-0.999,1.394-0.999h2.143c0.632,0,1.194,0.406,1.398,1.012l3.409,9.991	c0.157,0.461,0.082,0.974-0.2,1.369c-0.277,0.389-0.726,0.62-1.199,0.62C19.827,27.992,18.268,27.992,18.268,27.992z" opacity=".05"/><path d="M18.268,27.492c-0.431,0-0.807-0.282-0.936-0.701l-0.534-1.744H13.79	l-0.529,1.742c-0.126,0.42-0.502,0.703-0.936,0.703h-1.537c-0.313,0-0.61-0.154-0.794-0.414c-0.189-0.267-0.238-0.611-0.129-0.922	l3.489-9.992c0.14-0.397,0.51-0.664,0.922-0.664h2.143c0.417,0,0.789,0.27,0.925,0.672l3.409,9.992	c0.105,0.31,0.056,0.652-0.134,0.918c-0.184,0.257-0.479,0.41-0.792,0.41H18.268z M15.948,22.146l-0.671-2.188l-0.674,2.188H15.948z" opacity=".07"/><path fill="#fff" d="M19.827,26.993h-1.559c-0.209,0-0.393-0.141-0.457-0.348l-0.643-2.098h-3.75l-0.636,2.096	c-0.063,0.208-0.248,0.349-0.457,0.349h-1.538c-0.333,0-0.565-0.345-0.451-0.671l3.489-9.993c0.07-0.197,0.25-0.328,0.451-0.328	h2.142c0.203,0,0.384,0.133,0.452,0.332l3.409,9.993C20.39,26.651,20.159,26.993,19.827,26.993z M16.624,22.646l-1.132-3.695	c-0.083-0.276-0.142-0.605-0.176-0.989h-0.059c-0.025,0.322-0.086,0.642-0.184,0.959l-1.147,3.725H16.624z"/><path d="M22.762,27.992c-0.803,0-1.455-0.673-1.455-1.5V16.5	c0-0.827,0.652-1.5,1.455-1.5h4.859c0.803,0,1.455,0.673,1.455,1.5v1.016c0,0.827-0.652,1.5-1.455,1.5H25.56v0.445h1.816	c0.803,0,1.455,0.673,1.455,1.5v1.009c0,0.827-0.652,1.5-1.455,1.5H25.56v0.515h2.292c0.803,0,1.455,0.673,1.455,1.5v1.008	c0,0.827-0.652,1.5-1.455,1.5L22.762,27.992L22.762,27.992z" opacity=".05"/><path d="M22.762,27.492c-0.526,0-0.955-0.448-0.955-1V16.5	c0-0.552,0.429-1,0.955-1h4.859c0.526,0,0.955,0.448,0.955,1v1.016c0,0.552-0.429,1-0.955,1H25.06v1.445h2.316	c0.526,0,0.955,0.448,0.955,1v1.009c0,0.552-0.429,1-0.955,1H25.06v1.515h2.792c0.526,0,0.955,0.448,0.955,1v1.008	c0,0.552-0.429,1-0.955,1L22.762,27.492L22.762,27.492z" opacity=".07"/><path fill="#fff" d="M27.852,26.993h-5.09c-0.251,0-0.455-0.224-0.455-0.5V16.5c0-0.276,0.204-0.5,0.455-0.5h4.859	c0.251,0,0.455,0.224,0.455,0.5v1.016c0,0.276-0.204,0.5-0.455,0.5H24.56v2.445h2.817c0.251,0,0.455,0.224,0.455,0.5v1.009	c0,0.276-0.204,0.5-0.455,0.5H24.56v2.514h3.292c0.251,0,0.455,0.224,0.455,0.5v1.009C28.307,26.769,28.103,26.993,27.852,26.993z"/><path d="M33.237,28c-0.602,0-1.212-0.058-1.767-0.168	c-0.445-0.086-0.859-0.211-1.229-0.37C29.7,27.23,29.35,26.69,29.35,26.087v-1.442c0-0.715,0.583-1.296,1.299-1.296	c0.263,0,0.518,0.078,0.734,0.227c0.515,0.347,0.978,0.441,1.13,0.473c0.233,0.048,0.446,0.07,0.653,0.07	c0.188,0,0.361-0.019,0.519-0.056c0.087-0.021,0.146-0.046,0.184-0.065c-0.033-0.016-0.093-0.072-0.208-0.157	c-0.312-0.217-0.747-0.405-1.208-0.605l-0.178-0.078c-0.946-0.411-1.677-0.938-2.168-1.566c-0.53-0.676-0.8-1.492-0.8-2.426	c-0.054-1.926,1.218-3.481,3.24-3.951c0.603-0.141,1.242-0.213,1.9-0.213c0.824,0,1.642,0.118,2.362,0.341	c0.616,0.188,1.047,0.779,1.047,1.436v1.015c0,0.823-0.67,1.493-1.493,1.493c-0.206,0-0.406-0.041-0.596-0.122	c-0.406-0.173-0.881-0.271-1.336-0.273c-0.319,0-0.547,0.057-0.656,0.106c0.124,0.103,0.385,0.247,0.51,0.316	c0.209,0.108,0.426,0.207,0.65,0.308c0.471,0.213,0.956,0.433,1.362,0.699c1.304,0.777,2.041,2.068,2.006,3.532	c0.064,1.949-1.26,3.555-3.293,3.967C34.488,27.936,33.871,28,33.237,28z" opacity=".05"/><path d="M33.237,27.5c-0.568,0-1.146-0.055-1.67-0.158	c-0.412-0.08-0.792-0.194-1.128-0.339c-0.356-0.153-0.588-0.513-0.588-0.916v-1.442c0-0.438,0.358-0.796,0.799-0.796	c0.162,0,0.318,0.048,0.453,0.14c0.601,0.405,1.137,0.514,1.313,0.55c0.269,0.055,0.514,0.08,0.751,0.08	c0.227,0,0.439-0.023,0.634-0.069c0.219-0.052,0.587-0.188,0.586-0.506c0-0.181-0.071-0.344-0.431-0.606	c-0.359-0.25-0.818-0.45-1.304-0.661L32.475,22.7c-0.869-0.378-1.534-0.854-1.975-1.417c-0.46-0.586-0.693-1.299-0.693-2.117	c-0.047-1.686,1.073-3.051,2.854-3.464c0.566-0.133,1.169-0.2,1.787-0.2c0.776,0,1.542,0.11,2.215,0.318	c0.408,0.125,0.694,0.52,0.694,0.958v1.015c0,0.548-0.445,0.993-0.993,0.993c-0.138,0-0.271-0.027-0.399-0.082	c-0.466-0.198-1.009-0.31-1.528-0.313c-0.276,0-1.189,0.043-1.211,0.595c0.008,0.293,0.314,0.486,0.817,0.766	c0.23,0.119,0.456,0.222,0.688,0.326c0.453,0.205,0.921,0.417,1.293,0.661c1.174,0.7,1.812,1.807,1.78,3.103	c0.057,1.74-1.078,3.121-2.893,3.488C34.416,27.439,33.833,27.5,33.237,27.5z" opacity=".07"/><path fill="#fff" d="M30.637,26.544c-0.179-0.077-0.286-0.262-0.286-0.457v-1.443c0-0.242,0.271-0.377,0.471-0.242	c0.71,0.48,1.335,0.593,1.517,0.63c0.531,0.109,1.087,0.119,1.577,0.003c0.505-0.12,0.971-0.433,0.971-0.993	c0-0.455-0.281-0.749-0.636-1.008c-0.457-0.32-1.024-0.552-1.575-0.793c-0.796-0.346-1.391-0.769-1.781-1.268	c-0.392-0.499-0.587-1.102-0.587-1.809c-0.044-1.576,1.068-2.652,2.467-2.976c1.185-0.278,2.579-0.25,3.741,0.108	c0.207,0.064,0.342,0.265,0.342,0.481v1.014c0,0.36-0.365,0.592-0.696,0.451c-0.545-0.233-1.151-0.35-1.722-0.354	c-0.709,0.001-1.68,0.215-1.714,1.075c0.016,0.654,0.599,0.959,1.123,1.249c0.57,0.292,1.373,0.597,1.902,0.942	c0.964,0.576,1.583,1.473,1.554,2.672c0.052,1.629-1.04,2.716-2.493,3.01c-0.98,0.222-2.168,0.208-3.15,0.015	C31.282,26.777,30.941,26.675,30.637,26.544z"/></svg>