<svg xmlns="http://www.w3.org/2000/svg" viewBox="0 0 48 48"><linearGradient id="~HMLjhbfZdJs2NMcJR5fva" x1="18.654" x2="24.452" y1="3.748" y2="43.118" gradientUnits="userSpaceOnUse"><stop offset="0" stop-color="#33bef0"/><stop offset="1" stop-color="#0a85d9"/></linearGradient><path fill="url(#~HMLjhbfZdJs2NMcJR5fva)" d="M24.012,44c-1.294,0-2.36-0.392-3.2-1.176c-0.84-0.784-1.261-1.733-1.261-2.848 c0-1.164,0.425-2.117,1.272-2.861C21.673,36.372,22.736,36,24.012,36c1.294,0,2.351,0.375,3.177,1.128 c0.822,0.751,1.235,1.701,1.235,2.848c0,1.164-0.409,2.126-1.224,2.885C26.384,43.62,25.321,44,24.012,44z"/><linearGradient id="~HMLjhbfZdJs2NMcJR5fvb" x1="22.143" x2="28.615" y1="3.944" y2="42.776" gradientUnits="userSpaceOnUse"><stop offset="0" stop-color="#33bef0"/><stop offset="1" stop-color="#0a85d9"/></linearGradient><path fill="url(#~HMLjhbfZdJs2NMcJR5fvb)" d="M28.663,5.039l-1.027,26C27.615,31.576,27.174,32,26.637,32h-5.331 c-0.538,0-0.979-0.425-0.999-0.963l-0.973-26C19.313,4.471,19.767,4,20.334,4h7.331C28.232,4,28.686,4.472,28.663,5.039z"/></svg>