<svg xmlns="http://www.w3.org/2000/svg" data-name="Слой 1" viewBox="0 0 48 48"><defs><linearGradient id="4MjYuIugqfNKroHO7rVhxa" x1="10.53" x2="27.494" y1="4.988" y2="51.598" data-name="Безымянный градиент 138" gradientUnits="userSpaceOnUse"><stop offset="0" stop-color="#6d6d6d"/><stop offset=".126" stop-color="#626262"/><stop offset=".987" stop-color="#464646"/><stop offset=".998" stop-color="#454545"/></linearGradient><linearGradient id="4MjYuIugqfNKroHO7rVhxb" x1="18.357" x2="24.573" y1="-1408.995" y2="-1444.249" data-name="Безымянный градиент 134" gradientTransform="matrix(1 0 0 -1 0 -1400)" gradientUnits="userSpaceOnUse"><stop offset="0" stop-color="#ffda1c"/><stop offset="1" stop-color="#feb705"/></linearGradient><radialGradient id="4MjYuIugqfNKroHO7rVhxc" cx="16.663" cy="23.228" r="21.602" data-name="Безымянный градиент 133" gradientUnits="userSpaceOnUse"><stop offset="0" stop-color="#4b4b4b"/><stop offset=".531" stop-color="#393939"/><stop offset="1" stop-color="#252525"/></radialGradient></defs><path fill="url(#4MjYuIugqfNKroHO7rVhxa)" d="M24.00044,4a1.97913,1.97913,0,0,0-1.736,1.00878l-20.554,35.9969A2.00136,2.00136,0,0,0,3.44644,44h41.107a2.001,2.001,0,0,0,1.736-2.99432l-20.553-35.9969A1.97916,1.97916,0,0,0,24.00044,4Z"/><polygon fill="url(#4MjYuIugqfNKroHO7rVhxb)" points="5 41 24.001 8 43 41 5 41"/><path fill="url(#4MjYuIugqfNKroHO7rVhxc)" d="M26,25a3,3,0,1,1,3-3A3,3,0,0,1,26,25Zm7.77942,11.02814.00018-.00208L27.9339,35.032A2.45445,2.45445,0,0,1,25.499,37a2.50621,2.50621,0,0,1-1.11621-.26367l-4.001-2A2.48674,2.48674,0,0,1,19,32.5l1-6v6a1.49951,1.49951,0,0,0,.8291,1.3418l4,2a1.50018,1.50018,0,0,0,1.3418-2.6836L23,31.57324V26.5a1.50872,1.50872,0,0,0-.03046-.30231,3.48092,3.48092,0,0,0-6.83093-.62054l-.01514-.002-2.949,8.83075.01214.01673A3.46353,3.46353,0,0,0,13,35.5,3.5,3.5,0,0,0,16.5,39h17a1.499,1.499,0,0,0,.27942-2.97186Z"/></svg>