<svg xmlns="http://www.w3.org/2000/svg" viewBox="0 0 48 48"><circle cx="12.5" cy="42.5" r="1.5" fill="#199be2"/><path fill="#199be2" d="M13.223,25l0.183,7.256l-2.372,9.924l2.895,0.778L17.468,34l1.557-7.851L13.223,25z"/><path fill="#c26715" d="M35.999,44c-0.48,0-0.904-0.347-0.985-0.836l-3-18c-0.091-0.544,0.277-1.06,0.822-1.15	c0.545-0.096,1.06,0.277,1.15,0.822l3,18c0.091,0.544-0.277,1.06-0.822,1.15C36.108,43.996,36.054,44,35.999,44z"/><circle cx="22" cy="14" r="4" fill="#35c1f1"/><circle cx="17" cy="24" r="4" fill="#35c1f1"/><circle cx="26.5" cy="42.5" r="1.5" fill="#35c1f1"/><circle cx="33.5" cy="24.5" r="1.5" fill="#35c1f1"/><path fill="#35c1f1" d="M27.919,42.021l-3.188-10.144l-3.126-7.294c0,0-0.145-3.113,2.848-6.363l2.998,3.747l5.181,3.747	l1.825-2.281l-4.888-4.432l-4.178-7.116l-5.848-1.019C14.655,14.486,13,20.998,13,24l1.126,2.761l6.293,6.596l4.768,9.854	L27.919,42.021z"/><linearGradient id="sXg60KByCzKhH~2FKv5vva" x1="27" x2="35" y1="8" y2="8" gradientUnits="userSpaceOnUse"><stop offset="0" stop-color="#ffcf54"/><stop offset=".261" stop-color="#fdcb4d"/><stop offset=".639" stop-color="#f7c13a"/><stop offset="1" stop-color="#f0b421"/></linearGradient><path fill="url(#sXg60KByCzKhH~2FKv5vva)" d="M27,8c0,2.208,1.79,4,3.998,4C33.211,12,35,10.208,35,8s-1.789-4-4.002-4	C28.79,4,27,5.792,27,8z"/></svg>