<svg xmlns="http://www.w3.org/2000/svg" viewBox="0 0 48 48"><linearGradient id="Ig9oDBxOrlS0gtAIHCTPsa" x1="13" x2="13" y1="39.074" y2="24.639" gradientTransform="matrix(1 0 0 -1 0 48)" gradientUnits="userSpaceOnUse"><stop offset="0" stop-color="#32bdef"/><stop offset="1" stop-color="#1ea2e4"/></linearGradient><path fill="url(#Ig9oDBxOrlS0gtAIHCTPsa)" d="M4.588,33C3.159,33,2,31.841,2,30.412L22.17,10.28c0.505-0.505,1.168-0.758,1.83-0.758V33	H4.588z"/><linearGradient id="Ig9oDBxOrlS0gtAIHCTPsb" x1="35" x2="35" y1="39.074" y2="24.639" gradientTransform="matrix(1 0 0 -1 0 48)" gradientUnits="userSpaceOnUse"><stop offset=".365" stop-color="#199ae0"/><stop offset=".699" stop-color="#1898de"/><stop offset=".819" stop-color="#1691d8"/><stop offset=".905" stop-color="#1186cc"/><stop offset=".974" stop-color="#0a75bc"/><stop offset="1" stop-color="#076cb3"/></linearGradient><path fill="url(#Ig9oDBxOrlS0gtAIHCTPsb)" d="M46,30.412C46,31.841,44.841,33,43.412,33H24V9.522c0.662,0,1.325,0.253,1.83,0.758L46,30.412	z"/><path fill="#199ae0" d="M46,30.412C46,31.841,44.841,33,43.412,33H24V9.522c0.662,0,1.325,0.253,1.83,0.758L46,30.412z"/></svg>