<svg xmlns="http://www.w3.org/2000/svg" xmlns:xlink="http://www.w3.org/1999/xlink" data-name="Слой 1" viewBox="0 0 48 48"><defs><linearGradient id="HtisEYQFI_xH7lo5_zngia" x1="18.781" x2="12.926" y1="25.363" y2="35.935" data-name="Безымянный градиент 18" gradientTransform="rotate(10.068 13.411 34.622)" gradientUnits="userSpaceOnUse"><stop offset=".002" stop-color="#454545"/><stop offset=".013" stop-color="#464646"/><stop offset=".874" stop-color="#626262"/><stop offset="1" stop-color="#6d6d6d"/></linearGradient><linearGradient id="HtisEYQFI_xH7lo5_zngib" x1="32" x2="40" y1="563" y2="563" data-name="Безымянный градиент 2" gradientTransform="matrix(1 0 0 -1 0 572)" gradientUnits="userSpaceOnUse"><stop offset="0" stop-color="#ffcf54"/><stop offset=".261" stop-color="#fdcb4d"/><stop offset=".639" stop-color="#f7c13a"/><stop offset="1" stop-color="#f0b421"/></linearGradient><linearGradient id="HtisEYQFI_xH7lo5_zngic" x1=".323" x2="10.497" y1="31.681" y2="37.453" data-name="Безымянный градиент 123" gradientTransform="rotate(14.117 12.072 35.139)" gradientUnits="userSpaceOnUse"><stop offset="0" stop-color="#f44f5a"/><stop offset=".443" stop-color="#ee3d4a"/><stop offset="1" stop-color="#e52030"/></linearGradient><linearGradient id="HtisEYQFI_xH7lo5_zngid" x1="8.968" x2="8.968" y1="44.064" y2="38.584" xlink:href="#HtisEYQFI_xH7lo5_zngia"/></defs><polygon fill="url(#HtisEYQFI_xH7lo5_zngia)" points="7.586 42.568 6.062 41.272 20.977 25.204 22.5 26.5 7.586 42.568"/><path fill="#199be2" d="M24.5,41A1.5,1.5,0,1,0,26,42.5,1.50055,1.50055,0,0,0,24.5,41Z"/><polygon fill="#199be2" points="33.978 28.645 27.693 26.449 26.792 33.223 23.129 41.892 25.72 43.373 30.74 34.971 33.978 28.645"/><circle cx="43.5" cy="25.5" r="1.5" fill="#199be2"/><path fill="#199be2" d="M42.951,26.896l-6.054-2.301a2.00994,2.00994,0,0,1-.67-.423l-3.288-3.139,1.74-4.64,3.544,4.951,5.889,2.786Z"/><path fill="url(#HtisEYQFI_xH7lo5_zngib)" d="M32,9a4,4,0,1,0,3.998-4A3.99975,3.99975,0,0,0,32,9Z"/><path fill="#35c1f1" d="M29,18a4,4,0,1,0,3.998-4A3.99975,3.99975,0,0,0,29,18Z"/><path fill="#35c1f1" d="M27,27a4,4,0,1,0,3.998-4A3.99975,3.99975,0,0,0,27,27Z"/><path fill="#35c1f1" d="M39.5,41A1.5,1.5,0,1,0,41,42.5,1.50055,1.50055,0,0,0,39.5,41Z"/><path fill="#35c1f1" d="M21.5,24A1.5,1.5,0,1,0,23,25.5,1.50055,1.50055,0,0,0,21.5,24Z"/><path fill="#35c1f1" d="M36.87391,19.00179l-7.926-1.078L27.036,26.518l1.583,3.695,5.554,4.698,3.942,8.164,2.806-1.044-2.535-8.874a1.986,1.986,0,0,0-.216-.493l-3.194-5.232Z"/><path fill="#35c1f1" d="M30.333,15.01863,20.49361,24.398l1.83766,2.3506L31.48,19.203Z"/><path fill="url(#HtisEYQFI_xH7lo5_zngic)" d="M7.24824,43,2.64841,38.71a2,2,0,0,1-.10508-2.81964l5.78767-6.266a2,2,0,0,1,2.83326-.10559L15.75,33.79564Z"/><path fill="url(#HtisEYQFI_xH7lo5_zngid)" d="M7.76243,41.02288A1.5,1.5,0,1,0,8.97712,42.762,1.50054,1.50054,0,0,0,7.76243,41.02288Z"/></svg>