<svg xmlns="http://www.w3.org/2000/svg" viewBox="0 0 48 48"><linearGradient id="17FBmpZU7zE7VpFf5k98ua" x1="19.202" x2="35.958" y1="10.817" y2="56.855" gradientUnits="userSpaceOnUse"><stop offset="0" stop-color="#7dd8f3"/><stop offset="1" stop-color="#45b0d0"/></linearGradient><path fill="url(#17FBmpZU7zE7VpFf5k98ua)" d="M33,39H5c-1.105,0-2-0.895-2-2V21C3,14.373,8.373,9,15,9h28c1.105,0,2,0.895,2,2v16	C45,33.627,39.627,39,33,39z"/><path fill="#fff" d="M37.5,30.975h-1.296c-0.276,0-0.5-0.224-0.5-0.5v-8.528c0-0.74,0.045-1.645,0.136-2.715h-0.039 c-0.143,0.61-0.27,1.047-0.379,1.314l-4.039,10.114c-0.076,0.19-0.26,0.315-0.464,0.315H30c-0.204,0-0.387-0.124-0.464-0.313 l-4.047-10.038c-0.117-0.305-0.24-0.768-0.37-1.391H25.08c0.052,0.557,0.078,1.469,0.078,2.734v8.508c0,0.276-0.224,0.5-0.5,0.5 h-1.14c-0.276,0-0.5-0.224-0.5-0.5v-12.95c0-0.276,0.224-0.5,0.5-0.5h2.419c0.205,0,0.39,0.125,0.465,0.316l3.543,8.974 c0.279,0.714,0.461,1.245,0.545,1.595h0.048c0.24-0.732,0.434-1.277,0.584-1.634l3.609-8.939c0.076-0.189,0.26-0.313,0.464-0.313 H37.5c0.276,0,0.5,0.224,0.5,0.5v12.95C38,30.751,37.776,30.975,37.5,30.975z"/><path fill="#fff" d="M20.497,30.948h-1.578c-0.181,0-0.348-0.098-0.436-0.256l-2.717-4.861 c-0.084-0.156-0.178-0.376-0.282-0.662h-0.039c-0.058,0.143-0.156,0.363-0.292,0.662l-2.803,4.867 c-0.089,0.155-0.254,0.25-0.433,0.25h-1.58c-0.397,0-0.636-0.44-0.419-0.773l4.068-6.241l-3.743-6.177 c-0.202-0.333,0.038-0.759,0.428-0.759h1.644c0.184,0,0.354,0.102,0.441,0.264l2.378,4.444c0.162,0.311,0.308,0.623,0.438,0.934 H15.6c0.188-0.409,0.35-0.733,0.486-0.973l2.474-4.414c0.088-0.158,0.255-0.256,0.436-0.256h1.415c0.392,0,0.632,0.431,0.425,0.764 l-3.825,6.153l3.91,6.269C21.129,30.517,20.889,30.948,20.497,30.948z"/></svg>