<svg xmlns="http://www.w3.org/2000/svg" viewBox="0 0 48 48"><radialGradient id="cgu3er~siUc7hjzfogmV3a" cx="10.062" cy="-27.438" r="40.916" gradientTransform="matrix(1 0 0 -1 0 -18)" gradientUnits="userSpaceOnUse"><stop offset="0" stop-color="#6fcefc"/><stop offset="1" stop-color="#167cf7"/></radialGradient><path fill="url(#cgu3er~siUc7hjzfogmV3a)" d="M44,24c0,11.045-8.955,20-20,20S4,35.045,4,24S12.955,4,24,4S44,12.955,44,24z"/><radialGradient id="cgu3er~siUc7hjzfogmV3b" cx="10.696" cy="-26.05" r="40.918" gradientTransform="matrix(1 0 0 -1 0 -18)" gradientUnits="userSpaceOnUse"><stop offset=".001" stop-color="#54c0f5"/><stop offset=".998" stop-color="#0b69db"/></radialGradient><path fill="url(#cgu3er~siUc7hjzfogmV3b)" d="M41,24c0-2.465-0.399-4.818-1.096-7h2.811c-0.256-0.685-0.546-1.353-0.873-2H39.16	C36.355,8.485,30.621,4,24,4S11.645,8.485,8.839,15H6.157c-0.327,0.647-0.616,1.315-0.873,2h2.811C7.399,19.182,7,21.535,7,24	s0.399,4.818,1.096,7H5.285c0.256,0.685,0.546,1.353,0.873,2H8.84c2.806,6.515,8.54,11,15.161,11s12.355-4.485,15.161-11h2.682	c0.327-0.647,0.616-1.315,0.873-2h-2.811C40.601,28.818,41,26.465,41,24z M39,24c0,2.481-0.421,4.847-1.181,7H31.51	c0.323-2.266,0.49-4.65,0.49-7s-0.166-4.734-0.49-7h6.309C38.579,19.153,39,21.519,39,24z M24,42c-1.936,0-4.021-3.445-5.152-9	h10.304C28.021,38.555,25.936,42,24,42z M18.5,31c-0.315-2.113-0.5-4.461-0.5-7s0.185-4.887,0.5-7h11c0.315,2.113,0.5,4.461,0.5,7	s-0.185,4.887-0.5,7H18.5z M24,6c1.936,0,4.021,3.445,5.152,9H18.848C19.979,9.445,22.064,6,24,6z M36.97,15h-5.792	c-0.639-3.33-1.643-6.272-2.994-8.273C31.922,8.033,35.054,11.038,36.97,15z M19.816,6.727c-1.35,2.002-2.355,4.943-2.994,8.273	H11.03C12.946,11.038,16.078,8.033,19.816,6.727z M9,24c0-2.481,0.421-4.847,1.181-7h6.309C16.166,19.266,16,21.65,16,24	s0.166,4.734,0.49,7h-6.309C9.421,28.847,9,26.481,9,24z M11.03,33h5.792c0.639,3.33,1.643,6.272,2.994,8.273	C16.078,39.967,12.946,36.962,11.03,33z M28.184,41.273c1.35-2.002,2.355-4.943,2.994-8.273h5.792	C35.054,36.962,31.922,39.967,28.184,41.273z"/><path d="M30.5,8v10.398c0,0.451,0.293,0.833,0.73,0.95c0.087,0.022,0.175,0.034,0.261,0.034	c0.344,0,0.665-0.181,0.845-0.493l1.953-3.39h7.794c-1.795-3.81-4.741-6.967-8.409-9H32C31.173,6.5,30.5,7.173,30.5,8z" opacity=".07"/><path d="M17,14.5H6.398c-1.401,2.589-2.223,5.528-2.355,8.645C4.304,23.363,4.635,23.5,5,23.5h9.711	l1.953,3.389c0.18,0.313,0.501,0.494,0.846,0.494c0.086,0,0.173-0.012,0.261-0.034c0.437-0.117,0.73-0.499,0.73-0.95V16	C18.5,15.173,17.827,14.5,17,14.5z" opacity=".07"/><path d="M30,8v10.398c0,0.681,0.442,1.257,1.101,1.433c0.132,0.035,0.264,0.053,0.394,0.053	c0.52,0,1.003-0.273,1.275-0.745L34.578,16h7.746c-1.916-4.38-5.358-7.927-9.651-10H32C30.897,6,30,6.897,30,8z" opacity=".05"/><path d="M38,22H26c-1.103,0-2,0.897-2,2v10.398c0,0.681,0.442,1.257,1.101,1.433	c0.132,0.035,0.264,0.053,0.394,0.053c0.52,0,1.003-0.273,1.275-0.745L28.578,32H38c1.103,0,2-0.897,2-2v-6	C40,22.897,39.103,22,38,22z" opacity=".05"/><path d="M17,14H6.698c-1.663,2.87-2.637,6.185-2.684,9.729C4.306,23.897,4.64,24,5,24h9.422l1.809,3.139	c0.271,0.472,0.755,0.745,1.275,0.745c0.13,0,0.262-0.018,0.394-0.053C18.558,27.655,19,27.079,19,26.398V16	C19,14.897,18.103,14,17,14z" opacity=".05"/><linearGradient id="cgu3er~siUc7hjzfogmV3c" x1="8.916" x2="16.671" y1="626.093" y2="636.912" gradientTransform="translate(0 -610)" gradientUnits="userSpaceOnUse"><stop offset="0" stop-color="#f44f5a"/><stop offset=".443" stop-color="#ee3d4a"/><stop offset="1" stop-color="#e52030"/></linearGradient><path fill="url(#cgu3er~siUc7hjzfogmV3c)" d="M5,15h12c0.552,0,1,0.448,1,1v10.398c0,0.495-0.656,0.67-0.903,0.242L15,23H5	c-0.552,0-1-0.448-1-1v-6C4,15.448,4.448,15,5,15z"/><linearGradient id="cgu3er~siUc7hjzfogmV3d" x1="35.373" x2="40.872" y1="618.276" y2="628.449" gradientTransform="translate(0 -610)" gradientUnits="userSpaceOnUse"><stop offset="0" stop-color="#ffda1c"/><stop offset="1" stop-color="#feb705"/></linearGradient><path fill="url(#cgu3er~siUc7hjzfogmV3d)" d="M44,7H32c-0.552,0-1,0.448-1,1v10.398c0,0.495,0.656,0.67,0.903,0.242L34,15h10	c0.552,0,1-0.448,1-1V8C45,7.448,44.552,7,44,7z"/><path fill="#ff8f6b" d="M38,23H26c-0.552,0-1,0.448-1,1v10.398c0,0.495,0.656,0.67,0.903,0.242L28,31h10c0.552,0,1-0.448,1-1	v-6C39,23.448,38.552,23,38,23z"/><path d="M38,22.5H26c-0.827,0-1.5,0.673-1.5,1.5v10.398c0,0.451,0.293,0.833,0.73,0.95	c0.087,0.022,0.175,0.034,0.261,0.034c0.344,0,0.665-0.181,0.845-0.493l1.953-3.39H38c0.827,0,1.5-0.673,1.5-1.5v-6	C39.5,23.173,38.827,22.5,38,22.5z" opacity=".07"/></svg>