<svg xmlns="http://www.w3.org/2000/svg" viewBox="0 0 48 48"><linearGradient id="rCFCDliNbdI7hA20WCM_ya" x1="24" x2="24" y1="3" y2="37" gradientUnits="userSpaceOnUse"><stop offset="0" stop-color="#5ccbf2"/><stop offset="1" stop-color="#1ea2e4"/></linearGradient><circle cx="24" cy="20" r="17" fill="url(#rCFCDliNbdI7hA20WCM_ya)"/><polygon fill="#edbe00" points="35,38 33.624,34 14.374,34 13,38"/><path fill="#e3a600" d="M37,42l-0.811-3.243C36.078,38.312,35.678,38,35.219,38H12.781c-0.459,0-0.859,0.312-0.97,0.757 L11,42H37z"/><path fill="#edbe00" d="M38.689,44.757l-0.5-2C38.078,42.312,37.678,42,37.219,42H10.781c-0.459,0-0.859,0.312-0.97,0.757 l-0.5,2C9.153,45.389,9.63,46,10.281,46h27.438C38.37,46,38.847,45.389,38.689,44.757z"/></svg>