<svg xmlns="http://www.w3.org/2000/svg" viewBox="0 0 48 48"><path fill="#edbe00" d="M36,6H12c-3.314,0-6,2.686-6,6v24c0,3.314,2.686,6,6,6h24c3.314,0,6-2.686,6-6V12	C42,8.686,39.314,6,36,6z"/><path fill="#c48c00" d="M36,40H12c-2.209,0-4-1.791-4-4V12c0-2.209,1.791-4,4-4h24c2.209,0,4,1.791,4,4v24	C40,38.209,38.209,40,36,40z"/><path fill="#fff" d="M20.503,18.163h-3.565c-0.276,0-0.5,0.224-0.5,0.5v3.159c0,0.276,0.224,0.5,0.5,0.5h3.195 c0.276,0,0.5,0.224,0.5,0.5v2.096c0,0.276-0.224,0.5-0.5,0.5h-3.195c-0.276,0-0.5,0.224-0.5,0.5V31.5c0,0.276-0.224,0.5-0.5,0.5 h-1.915c-0.276,0-0.5-0.224-0.5-0.5V15.555c0-0.276,0.224-0.5,0.5-0.5h6.48c0.276,0,0.5,0.224,0.5,0.5v2.108 C21.003,17.939,20.779,18.163,20.503,18.163z"/><path fill="#fff" d="M35.503,32h-1.518c-0.276,0-0.5-0.224-0.5-0.5v-5.615c0-1.556-0.438-2.335-1.312-2.335 c-0.415,0-0.755,0.234-1.015,0.701c-0.261,0.468-0.392,1.05-0.392,1.748V31.5c0,0.276-0.224,0.5-0.5,0.5H28.74 c-0.276,0-0.5-0.224-0.5-0.5v-5.677c0-1.515-0.429-2.272-1.288-2.272c-0.431,0-0.776,0.223-1.035,0.67 c-0.259,0.447-0.388,1.054-0.388,1.822V31.5c0,0.276-0.224,0.5-0.5,0.5h-1.527c-0.276,0-0.5-0.224-0.5-0.5v-9.721 c0-0.276,0.224-0.5,0.5-0.5h1.527c0.276,0,0.5,0.224,0.5,0.5v1.175h0.032c0.26-0.572,0.627-1.038,1.099-1.398 c0.472-0.359,0.987-0.539,1.547-0.539c0.873,0,1.539,0.38,1.996,1.14c0.195,0.325,0.63,0.351,0.855,0.047 c0.584-0.791,1.343-1.187,2.274-1.187c1.78,0,2.67,1.438,2.67,4.314V31.5C36.003,31.776,35.779,32,35.503,32z"/></svg>