<svg xmlns="http://www.w3.org/2000/svg" data-name="Слой 1" viewBox="0 0 48 48"><defs><linearGradient id="D32mwzSC9r1hVcmbe4VYta" x1="24" x2="24" y1="441.216" y2="416.1" data-name="Безымянный градиент 58" gradientTransform="matrix(1 0 0 -1 0 456)" gradientUnits="userSpaceOnUse"><stop offset=".9" stop-color="#6d7882"/><stop offset=".917" stop-color="#45494d"/></linearGradient><linearGradient id="D32mwzSC9r1hVcmbe4VYtb" x1="37.325" x2="38.813" y1="434.675" y2="433.187" data-name="Безымянный градиент 57" gradientTransform="matrix(1 0 0 -1 0 456)" gradientUnits="userSpaceOnUse"><stop offset="0" stop-color="#32bdef"/><stop offset="1" stop-color="#1ea2e4"/></linearGradient><linearGradient id="D32mwzSC9r1hVcmbe4VYtc" x1="-128.064" x2="43.918" y1="-1255.06" y2="-1452.309" data-name="Безымянный градиент 8" gradientTransform="matrix(1 0 0 -1 0 -1402)" gradientUnits="userSpaceOnUse"><stop offset="0" stop-color="#ffda1c"/><stop offset="1" stop-color="#feb705"/></linearGradient><radialGradient id="D32mwzSC9r1hVcmbe4VYtd" cx="34.889" cy="-1407.577" r="10.021" data-name="Безымянный градиент 9" gradientTransform="matrix(1 0 0 -1.0323 0 -1419.149)" gradientUnits="userSpaceOnUse"><stop offset="0" stop-color="#4b4b4b"/><stop offset=".531" stop-color="#393939"/><stop offset="1" stop-color="#252525"/></radialGradient></defs><path fill="url(#D32mwzSC9r1hVcmbe4VYta)" d="M42,40H6a2.00588,2.00588,0,0,1-2-2V17a2.00588,2.00588,0,0,1,2-2H42a2.00588,2.00588,0,0,1,2,2V38A2.00588,2.00588,0,0,1,42,40Z"/><path fill="#0076d7" d="M40,15H8V11a1.00036,1.00036,0,0,1,1-1H39a1.00036,1.00036,0,0,1,1,1Z"/><path fill="#50e6ff" d="M13,5H35a1.99945,1.99945,0,0,1,2,2v8H11V7A1.99945,1.99945,0,0,1,13,5Z"/><circle cx="37.958" cy="22.024" r="2" fill="#eef2f3"/><path fill="#252525" d="M36.5,33H9.5A1.50055,1.50055,0,0,1,8,31.5H8A1.50055,1.50055,0,0,1,9.5,30h27A1.50055,1.50055,0,0,1,38,31.5h0A1.50055,1.50055,0,0,1,36.5,33Z"/><path fill="#50e6ff" d="M35,43H13a1.99945,1.99945,0,0,1-2-2V32H37v9A1.99945,1.99945,0,0,1,35,43Z"/><rect width="26" height="2" x="11" y="30" fill="#199ae0"/><circle cx="38" cy="22" r="1" fill="url(#D32mwzSC9r1hVcmbe4VYtb)"/><path fill="url(#D32mwzSC9r1hVcmbe4VYtc)" d="M47.817,44.435,38.38,29.521a1.00369,1.00369,0,0,0-1.76,0L27.183,44.435a1.04634,1.04634,0,0,0-.183.573A.99612.99612,0,0,0,28,46H47a.99548.99548,0,0,0,1-.992A1.04634,1.04634,0,0,0,47.817,44.435Z"/><path fill="url(#D32mwzSC9r1hVcmbe4VYtd)" d="M37.506,44a1.12675,1.12675,0,0,1-.8-.294.93778.93778,0,0,1-.315-.712.90778.90778,0,0,1,.318-.715A1.16521,1.16521,0,0,1,37.506,42a1.13277,1.13277,0,0,1,.794.282.922.922,0,0,1,.309.712.94235.94235,0,0,1-.306.721A1.12312,1.12312,0,0,1,37.506,44Zm1.112-9.628-.241,6.284a.3516.3516,0,0,1-.346.344H36.942a.352.352,0,0,1-.347-.345l-.228-6.284A.35414.35414,0,0,1,36.714,34h1.558A.35238.35238,0,0,1,38.618,34.372Z"/><g><path d="M39.24,29.02a1.99414,1.99414,0,0,0-3.48,0L26.91,43H28.09l8.53-13.48a1.00465,1.00465,0,0,1,1.76,0l5.59,8.83A1.98042,1.98042,0,0,0,44,38V36.54Z" opacity=".05"/><path d="M38.81,29.27a1.49939,1.49939,0,0,0-2.62,0L27.5,43h.59l8.53-13.48a1.00465,1.00465,0,0,1,1.76,0l5.59,8.83A1.98042,1.98042,0,0,0,44,38v-.53Z" opacity=".07"/></g></svg>