<svg xmlns="http://www.w3.org/2000/svg" viewBox="0 0 48 48"><linearGradient id="vlonqu6167b7JNFEWmjf1a" x1="12.078" x2="27.508" y1="7.971" y2="32.134" gradientUnits="userSpaceOnUse"><stop offset="0" stop-color="#21ad64"/><stop offset="1" stop-color="#088242"/></linearGradient><path fill="url(#vlonqu6167b7JNFEWmjf1a)" d="M24,4C12.954,4,4,12.954,4,24c0,3.111,0.731,6.043,1.998,8.669L32.669,5.998	C30.043,4.731,27.111,4,24,4z"/><linearGradient id="vlonqu6167b7JNFEWmjf1b" x1="21.844" x2="37.099" y1="17.811" y2="42.084" gradientUnits="userSpaceOnUse"><stop offset=".008" stop-color="#f44f5a"/><stop offset=".447" stop-color="#ee3d4a"/><stop offset="1" stop-color="#e52030"/></linearGradient><path fill="url(#vlonqu6167b7JNFEWmjf1b)" d="M44,24c0-3.111-0.731-6.043-1.998-8.669L15.331,42.002C17.957,43.269,20.889,44,24,44	C35.046,44,44,35.046,44,24z"/><linearGradient id="vlonqu6167b7JNFEWmjf1c" x1="16.47" x2="30.571" y1="6.309" y2="39.437" gradientUnits="userSpaceOnUse"><stop offset="0" stop-color="#ffd000"/><stop offset="1" stop-color="#ffc107"/></linearGradient><path fill="url(#vlonqu6167b7JNFEWmjf1c)" d="M32.669,5.998L5.998,32.669c1.965,4.072,5.261,7.368,9.333,9.333l26.671-26.671	C40.037,11.259,36.741,7.963,32.669,5.998z"/></svg>