<svg xmlns="http://www.w3.org/2000/svg" viewBox="0 0 48 48"><linearGradient id="HVOmj9aliCWRlE9TroRIta" x1="29.013" x2="42.057" y1="279.809" y2="300.418" gradientTransform="translate(0 -264)" gradientUnits="userSpaceOnUse"><stop offset="0" stop-color="#42a3f2"/><stop offset="1" stop-color="#42a4eb"/></linearGradient><path fill="url(#HVOmj9aliCWRlE9TroRIta)" d="M43,36H29V17c0-1.657,1.343-3,3-3h7.559c0.861,0,1.625,0.551,1.897,1.367L45,26v8	C45,35.105,44.105,36,43,36"/><linearGradient id="HVOmj9aliCWRlE9TroRItb" x1="11.314" x2="21.215" y1="288.126" y2="303.28" gradientTransform="translate(0 -264)" gradientUnits="userSpaceOnUse"><stop offset="0" stop-color="#3079d6"/><stop offset="1" stop-color="#297cd2"/></linearGradient><path fill="url(#HVOmj9aliCWRlE9TroRItb)" d="M29,36H5c-1.105,0-2-0.895-2-2v-4c0-1.105,0.895-2,2-2h24V36z"/><path fill="#586169" d="M42,36c0,2.761-2.238,5-5,5s-5-2.239-5-5s2.238-5,5-5S42,33.239,42,36"/><path fill="#586169" d="M18,36c0,2.761-2.239,5-5,5s-5-2.239-5-5s2.239-5,5-5S18,33.239,18,36"/><path fill="#999" d="M39,36c0,1.105-0.895,2-2,2s-2-0.895-2-2s0.895-2,2-2S39,34.895,39,36"/><path fill="#999" d="M15,36c0,1.105-0.895,2-2,2s-2-0.895-2-2s0.895-2,2-2S15,34.895,15,36"/><linearGradient id="HVOmj9aliCWRlE9TroRItc" x1="41.544" x2="33.868" y1="289.845" y2="281.71" gradientTransform="translate(0 -264)" gradientUnits="userSpaceOnUse"><stop offset="0" stop-color="#3079d6"/><stop offset="1" stop-color="#297cd2"/></linearGradient><path fill="url(#HVOmj9aliCWRlE9TroRItc)" d="M41,25h-7c-0.552,0-1-0.448-1-1v-7c0-0.552,0.448-1,1-1h5c0.432,0,0.813,0.275,0.949,0.684	l2,6C41.982,22.786,42,22.893,42,23v1C42,24.552,41.552,25,41,25z"/><linearGradient id="HVOmj9aliCWRlE9TroRItd" x1="8.427" x2="22.925" y1="5.802" y2="28.707" gradientUnits="userSpaceOnUse"><stop offset="0" stop-color="#42a3f2"/><stop offset="1" stop-color="#42a4eb"/></linearGradient><path fill="url(#HVOmj9aliCWRlE9TroRItd)" d="M17,28h8v-3.758c0-0.809-0.245-1.599-0.704-2.266L14.894,8.3C14.334,7.486,13.41,7,12.422,7H6	C5.448,7,5,7.448,5,8l0,1c0,0.552,0.448,1,1,1h6l5,13V28z"/><linearGradient id="HVOmj9aliCWRlE9TroRIte" x1="2.858" x2="10.381" y1="12.053" y2="23.567" gradientUnits="userSpaceOnUse"><stop offset="0" stop-color="#3079d6"/><stop offset="1" stop-color="#297cd2"/></linearGradient><path fill="url(#HVOmj9aliCWRlE9TroRIte)" d="M7.007,24.999c-0.94,0-1.853-0.325-2.578-0.935c-0.754-0.634-1.241-1.512-1.385-2.47	C2.998,21.284,3.226,21,3.54,21h1.013c0.226,0,0.439,0.148,0.481,0.371c0.085,0.451,0.322,0.861,0.68,1.161	c0.454,0.382,1.029,0.537,1.628,0.439c0.743-0.121,1.386-0.687,1.582-1.413c0.272-1.011-0.229-2.022-1.161-2.408	C6.692,18.707,6,17.636,6,16.42V10h2v6.42c0,0.397,0.212,0.752,0.528,0.883c1.748,0.723,2.738,2.537,2.409,4.414	c-0.284,1.612-1.608,2.937-3.221,3.221C7.48,24.979,7.242,24.999,7.007,24.999z"/></svg>