<svg xmlns="http://www.w3.org/2000/svg" viewBox="0 0 48 48"><linearGradient id="WRAQc0HwtU8Wm7pFSlUUla" x1="10" x2="33" y1="13" y2="13" gradientUnits="userSpaceOnUse"><stop offset="0" stop-color="#199ae0"/><stop offset="1" stop-color="#0782d8"/></linearGradient><path fill="url(#WRAQc0HwtU8Wm7pFSlUUla)" d="M33,9H15l-4.545,4.15C10.165,13.415,10,13.789,10,14.181V17l23-4V9z"/><linearGradient id="WRAQc0HwtU8Wm7pFSlUUlb" x1="25.63" x2="34.992" y1="8.637" y2="39.786" gradientUnits="userSpaceOnUse"><stop offset="0" stop-color="#199ae0"/><stop offset="1" stop-color="#0782d8"/></linearGradient><path fill="url(#WRAQc0HwtU8Wm7pFSlUUlb)" d="M36,43H25l3-2.702V13l5-4l4.625,3.7C37.862,12.89,38,13.177,38,13.481V41	C38,42.105,37.105,43,36,43z"/><path fill="#35c1f1" d="M26,43H12c-1.105,0-2-0.895-2-2V14c0-0.552,0.448-1,1-1h17v28C28,42.105,27.105,43,26,43z"/><linearGradient id="WRAQc0HwtU8Wm7pFSlUUlc" x1="15" x2="18.6" y1="7" y2="7" gradientUnits="userSpaceOnUse"><stop offset=".522" stop-color="#50e6ff"/><stop offset=".686" stop-color="#4de2fe"/><stop offset=".834" stop-color="#45d7f9"/><stop offset=".975" stop-color="#38c5f3"/><stop offset="1" stop-color="#35c1f1"/></linearGradient><path fill="url(#WRAQc0HwtU8Wm7pFSlUUlc)" d="M18.6,9H15V7c0-1.105,0.895-2,2-2h1.6V9z"/><linearGradient id="WRAQc0HwtU8Wm7pFSlUUld" x1="18.6" x2="22.2" y1="7" y2="7" gradientUnits="userSpaceOnUse"><stop offset=".522" stop-color="#50e6ff"/><stop offset=".686" stop-color="#4de2fe"/><stop offset=".834" stop-color="#45d7f9"/><stop offset=".975" stop-color="#38c5f3"/><stop offset="1" stop-color="#35c1f1"/></linearGradient><rect width="3.6" height="4" x="18.6" y="5" fill="url(#WRAQc0HwtU8Wm7pFSlUUld)"/><linearGradient id="WRAQc0HwtU8Wm7pFSlUUle" x1="22.2" x2="25.8" y1="7" y2="7" gradientUnits="userSpaceOnUse"><stop offset=".522" stop-color="#50e6ff"/><stop offset=".686" stop-color="#4de2fe"/><stop offset=".834" stop-color="#45d7f9"/><stop offset=".975" stop-color="#38c5f3"/><stop offset="1" stop-color="#35c1f1"/></linearGradient><rect width="3.6" height="4" x="22.2" y="5" fill="url(#WRAQc0HwtU8Wm7pFSlUUle)"/><radialGradient id="WRAQc0HwtU8Wm7pFSlUUlf" cx="30.168" cy="7.883" r="3.2" gradientTransform="matrix(1 0 0 1.4228 0 -3.333)" gradientUnits="userSpaceOnUse"><stop offset=".793" stop-color="#50e6ff"/><stop offset=".909" stop-color="#50e6ff"/><stop offset=".915" stop-color="#50e6ff"/></radialGradient><path fill="url(#WRAQc0HwtU8Wm7pFSlUUlf)" d="M33,9h-3.6V5H31c1.105,0,2,0.895,2,2V9z"/><linearGradient id="WRAQc0HwtU8Wm7pFSlUUlg" x1="25.8" x2="29.4" y1="7" y2="7" gradientUnits="userSpaceOnUse"><stop offset=".522" stop-color="#50e6ff"/><stop offset=".686" stop-color="#4de2fe"/><stop offset=".834" stop-color="#45d7f9"/><stop offset=".975" stop-color="#38c5f3"/><stop offset="1" stop-color="#35c1f1"/></linearGradient><rect width="3.6" height="4" x="25.8" y="5" fill="url(#WRAQc0HwtU8Wm7pFSlUUlg)"/></svg>