<svg xmlns="http://www.w3.org/2000/svg" viewBox="0 0 48 48"><linearGradient id="GH_Up02xy_MG1Q5ppe75Ya" x1="6.677" x2="16.518" y1="14.5" y2="14.5" gradientUnits="userSpaceOnUse"><stop offset="0" stop-color="#edbe00"/><stop offset="1" stop-color="#e3a600"/></linearGradient><path fill="url(#GH_Up02xy_MG1Q5ppe75Ya)" d="M3.872,10.738L13,8v13H5.82c-0.477,0-0.887-0.336-0.981-0.804l-1.661-8.304 C3.077,11.387,3.378,10.887,3.872,10.738z"/><path fill="#ee3c49" d="M4.667,10.5l-0.795,0.238c-0.494,0.148-0.794,0.648-0.693,1.154l1.661,8.304 C4.933,20.664,5.343,21,5.82,21h0.958L4.667,10.5z"/><linearGradient id="GH_Up02xy_MG1Q5ppe75Yb" x1="34.425" x2="44.266" y1="14.5" y2="14.5" gradientTransform="matrix(-1 0 0 1 76 0)" gradientUnits="userSpaceOnUse"><stop offset="0" stop-color="#edbe00"/><stop offset="1" stop-color="#e3a600"/></linearGradient><path fill="url(#GH_Up02xy_MG1Q5ppe75Yb)" d="M44.128,10.738L35,8v13h7.18c0.477,0,0.887-0.336,0.981-0.804l1.661-8.304 C44.923,11.387,44.622,10.887,44.128,10.738z"/><path fill="#ee3c49" d="M43.333,10.5l0.795,0.238c0.494,0.148,0.794,0.648,0.693,1.154l-1.661,8.304 C43.067,20.664,42.657,21,42.18,21h-0.958L43.333,10.5z"/><linearGradient id="GH_Up02xy_MG1Q5ppe75Yc" x1="24" x2="24" y1="35.737" y2="11.737" gradientUnits="userSpaceOnUse"><stop offset="0" stop-color="#ffd000"/><stop offset="1" stop-color="#fede00"/></linearGradient><path fill="url(#GH_Up02xy_MG1Q5ppe75Yc)" d="M36,37.069v-17.25L35,8l-3.447-0.94c-4.945-1.349-10.161-1.349-15.107,0L13,8l-1,12.106 l0.003,16.99c0,0.492,0.362,0.911,0.849,0.982c4.01,0.587,4.897,4.313,5.093,6.042C18.002,44.625,18.429,45,18.937,45h10.092 c0.499,0,0.926-0.364,0.988-0.859c0.269-2.135,1.42-5.612,5.109-6.087C35.623,37.99,36,37.571,36,37.069z"/><path fill="#fede00" d="M24,37L24,37c-3.314,0-6,2.686-6,6v1c0,0.552,0.448,1,1,1h10c0.552,0,1-0.448,1-1v-1 C30,39.686,27.314,37,24,37z"/><path fill="#ee3c49" d="M24,39c2.206,0,4,1.794,4,4h-8C20,40.794,21.794,39,24,39 M24,37c-3.314,0-6,2.686-6,6v1 c0,0.552,0.448,1,1,1h10c0.552,0,1-0.448,1-1v-1C30,39.686,27.314,37,24,37L24,37z"/><linearGradient id="GH_Up02xy_MG1Q5ppe75Yd" x1="18" x2="30" y1="9.5" y2="9.5" gradientTransform="matrix(1 0 0 1.1429 0 -.857)" gradientUnits="userSpaceOnUse"><stop offset="0" stop-color="#f44f5a"/><stop offset=".443" stop-color="#ee3d4a"/><stop offset="1" stop-color="#e52030"/></linearGradient><ellipse cx="24" cy="10" fill="url(#GH_Up02xy_MG1Q5ppe75Yd)" rx="6" ry="4"/><linearGradient id="GH_Up02xy_MG1Q5ppe75Ye" x1="18" x2="30" y1="11.25" y2="11.25" gradientTransform="matrix(.6667 0 0 .5714 8 3.571)" gradientUnits="userSpaceOnUse"><stop offset="0" stop-color="#edbe00"/><stop offset="1" stop-color="#ffd000"/></linearGradient><ellipse cx="24" cy="10" fill="url(#GH_Up02xy_MG1Q5ppe75Ye)" rx="4" ry="2"/><path fill="#ee3c49" d="M12,36v1.088c0,0.492,0.36,0.901,0.846,0.981c2.67,0.439,4.775,2.928,5.108,6.059 C18.007,44.627,18.438,45,18.94,45H20C20,40.029,16.418,36,12,36z"/><path fill="#ee3c49" d="M36,36v1.088c0,0.492-0.36,0.901-0.846,0.981c-2.67,0.439-4.775,2.928-5.108,6.059 C29.993,44.627,29.562,45,29.06,45H28C28,40.029,31.582,36,36,36z"/></svg>