<svg xmlns="http://www.w3.org/2000/svg" viewBox="0 0 48 48"><linearGradient id="FlnHLF5EBCjq9i8W8pquxa" x1="18.199" x2="28.027" y1="21.848" y2="48.85" gradientUnits="userSpaceOnUse"><stop offset="0" stop-color="#ffc430"/><stop offset=".41" stop-color="#fec130"/><stop offset=".72" stop-color="#fcb730"/><stop offset=".998" stop-color="#f7a72f"/><stop offset="1" stop-color="#f7a72f"/></linearGradient><path fill="url(#FlnHLF5EBCjq9i8W8pquxa)" d="M24,23L24,23c-4.412,0-7.988,3.576-7.988,7.988V46h15.976V30.988	C31.988,26.576,28.412,23,24,23z"/><linearGradient id="FlnHLF5EBCjq9i8W8pquxb" x1="19.007" x2="30.618" y1="12.435" y2="44.337" gradientUnits="userSpaceOnUse"><stop offset=".002" stop-color="#f44f78"/><stop offset=".397" stop-color="#e4305d"/><stop offset=".763" stop-color="#d81b4a"/><stop offset="1" stop-color="#d41343"/></linearGradient><path fill="url(#FlnHLF5EBCjq9i8W8pquxb)" d="M28.548,15.048h-9.095C18.65,15.048,18,15.698,18,16.5V35c0,3.314,2.686,6,6,6h0	c3.314,0,6-2.686,6-6V16.5C30,15.698,29.35,15.048,28.548,15.048z"/><path fill="#343434" d="M23,11h2v15h-2V11z"/><linearGradient id="FlnHLF5EBCjq9i8W8pquxc" x1="24" x2="24" y1="-3.152" y2="40.425" gradientUnits="userSpaceOnUse"><stop offset="0" stop-color="#e83c67"/><stop offset=".423" stop-color="#c5214a"/><stop offset=".773" stop-color="#b01038"/><stop offset="1" stop-color="#a80a31"/></linearGradient><path fill="url(#FlnHLF5EBCjq9i8W8pquxc)" d="M26.5,29h-5c-0.304,0-0.538-0.269-0.495-0.571l0.712-4.449C21.879,22.844,22.852,22,24,22h0	c1.148,0,2.121,0.844,2.283,1.98l0.712,4.449C27.038,28.731,26.804,29,26.5,29z"/><linearGradient id="FlnHLF5EBCjq9i8W8pquxd" x1="18.544" x2="28.731" y1="6.5" y2="6.5" gradientUnits="userSpaceOnUse"><stop offset="0" stop-color="#6d6d6d"/><stop offset=".126" stop-color="#626262"/><stop offset=".886" stop-color="#464646"/><stop offset="1" stop-color="#454545"/></linearGradient><path fill="url(#FlnHLF5EBCjq9i8W8pquxd)" d="M28,11h-8c-0.552,0-1-0.448-1-1V2h10v8C29,10.552,28.552,11,28,11z"/><path d="M27.98,28.29l-0.71-4.47c-0.12-0.85-0.58-1.62-1.27-2.14v-6.63h-1v7.19c0.67,0.32,1.17,0.96,1.28,1.74l0.71,4.45 C27.04,28.73,26.8,29,26.5,29h-5c-0.3,0-0.54-0.27-0.49-0.57l0.71-4.45c0.11-0.78,0.61-1.42,1.28-1.74v-7.19h-1v6.63 c-0.69,0.52-1.15,1.29-1.27,2.16l-0.71,4.43c-0.07,0.45,0.06,0.88,0.35,1.21C20.65,29.81,21.06,30,21.5,30h5 c0.44,0,0.85-0.19,1.13-0.52C27.92,29.15,28.05,28.72,27.98,28.29z" opacity=".05"/><path d="M26.78,23.9c-0.12-0.8-0.59-1.52-1.28-1.96v-6.89H25v7.19c0.67,0.32,1.17,0.96,1.28,1.74l0.71,4.45 C27.04,28.73,26.8,29,26.5,29h-5c-0.3,0-0.54-0.27-0.49-0.57l0.71-4.45c0.11-0.78,0.61-1.42,1.28-1.74v-7.19h-0.5v6.89 c-0.69,0.44-1.16,1.16-1.28,1.97l-0.71,4.44c-0.04,0.3,0.04,0.59,0.23,0.81c0.19,0.21,0.47,0.34,0.76,0.34h5 c0.29,0,0.57-0.13,0.76-0.34c0.19-0.22,0.27-0.51,0.23-0.8L26.78,23.9z" opacity=".07"/></svg>