<svg xmlns="http://www.w3.org/2000/svg" viewBox="0 0 48 48"><linearGradient id="uM01k1hZnN~qQmq7gqN9Ea" x1="24" x2="24" y1="11.12" y2="45.203" gradientUnits="userSpaceOnUse"><stop offset="0" stop-color="#3ccbf4"/><stop offset="1" stop-color="#1fa0e5"/></linearGradient><path fill="url(#uM01k1hZnN~qQmq7gqN9Ea)" d="M35.133,46H12.867c-1.051,0-1.923-0.814-1.995-1.862L9.074,19.069 C9.034,18.491,9.492,18,10.071,18h27.857c0.579,0,1.037,0.491,0.998,1.069l-1.798,25.069C37.056,45.186,36.184,46,35.133,46z"/><path fill="#199be2" d="M40.5,23c-0.829,0-1.5-0.672-1.5-1.5v-1.761C39,11.612,32.388,5,24.261,5h-0.522 C15.612,5,9,11.612,9,19.739V21.5C9,22.328,8.329,23,7.5,23S6,22.328,6,21.5v-1.761C6,9.958,13.958,2,23.739,2h0.522 C34.042,2,42,9.958,42,19.739V21.5C42,22.328,41.329,23,40.5,23z"/><path fill="#5fe1ff" d="M38,24H10c-0.552,0-1-0.448-1-1v-4c0-0.552,0.448-1,1-1h28c0.552,0,1,0.448,1,1v4 C39,23.552,38.552,24,38,24z"/><linearGradient id="uM01k1hZnN~qQmq7gqN9Eb" x1="24" x2="24" y1="22.883" y2="37.028" gradientUnits="userSpaceOnUse"><stop offset="0" stop-color="#fede00"/><stop offset="1" stop-color="#f5aa00"/></linearGradient><path fill="url(#uM01k1hZnN~qQmq7gqN9Eb)" d="M35,18c-5.032,2.915-3,17-7,17s-2-11-5-11s-2,4-5,4s-2-8-5-10H35z"/><path fill="#e52030" d="M44.888,42.734L5.266,3.112c-0.149-0.149-0.39-0.149-0.539,0L3.112,4.728 c-0.149,0.149-0.149,0.39,0,0.539l39.622,39.622c0.149,0.149,0.39,0.149,0.539,0l1.616-1.616 C45.037,43.124,45.037,42.882,44.888,42.734z"/></svg>