<svg xmlns="http://www.w3.org/2000/svg" viewBox="0 0 48 48"><rect width="12" height="3" x="22" y="8" fill="#e3a600"/><rect width="3" height="8" x="41" y="17" fill="#e3a600"/><path fill="#fad500" d="M38,11H17.786c-0.762,0-1.496,0.29-2.052,0.811L10.2,17H9c-1.105,0-2,0.895-2,2v14	c0,1.105,0.895,2,2,2h1.2l3.914,4.078C14.68,39.667,15.462,40,16.279,40H31.72c0.817,0,1.598-0.333,2.164-0.922l6.28-6.542	C40.701,31.977,41,31.233,41,30.458V14C41,12.343,39.657,11,38,11z"/><linearGradient id="Gzl9d6nJdhMefiLa91YUpa" x1="20" x2="30" y1="-315" y2="-315" gradientTransform="matrix(1 0 0 -1 0 -290)" gradientUnits="userSpaceOnUse"><stop offset="0" stop-color="#4b4b4b"/><stop offset="1" stop-color="#3b3b3b"/></linearGradient><polygon fill="url(#Gzl9d6nJdhMefiLa91YUpa)" points="25,34 25,27 20,27 25,16 25,23 30,23"/><path fill="#fad500" d="M34,8H22c-1.105,0-2-0.895-2-2s0.895-2,2-2h12c1.105,0,2,0.895,2,2S35.105,8,34,8z"/><path fill="#fad500" d="M44,27V15c0-1.105,0.895-2,2-2s2,0.895,2,2v12c0,1.105-0.895,2-2,2S44,28.105,44,27z"/><rect width="3" height="8" x="4" y="22" fill="#e3a600"/><path fill="#fad500" d="M4,20v12c0,1.105-0.895,2-2,2s-2-0.895-2-2V20c0-1.105,0.895-2,2-2S4,18.895,4,20z"/></svg>