<svg xmlns="http://www.w3.org/2000/svg" viewBox="0 0 48 48"><path fill="#185abd" d="M24.485,19.829l-9.872-9.872l3.058-3.058C18.373,6.198,17.876,5,16.886,5H6.224	C4.996,5,4,5.996,4,7.224v10.661c0,0.991,1.198,1.487,1.899,0.786l3.058-3.058l9.872,9.871c0.75,0.75,1.172,1.768,1.172,2.828V31h8	v-2.686C28,25.131,26.736,22.079,24.485,19.829z"/><linearGradient id="AZBpu3HOcSoR6LV4C7YJga" x1="15.456" x2="45.218" y1="37.284" y2="7.521" gradientUnits="userSpaceOnUse"><stop offset="0" stop-color="#4191fd"/><stop offset="1" stop-color="#55acfd"/></linearGradient><path fill="url(#AZBpu3HOcSoR6LV4C7YJga)" d="M41.776,5H31.114c-0.991,0-1.487,1.198-0.786,1.899l3.058,3.058l-9.872,9.872	C21.264,22.079,20,25.131,20,28.314V41c0,1.105,0.895,2,2,2h4c1.105,0,2-0.895,2-2V28.314c0-1.061,0.421-2.078,1.172-2.828	l9.872-9.871l3.058,3.058C42.802,19.373,44,18.876,44,17.886V7.224C44,5.996,43.004,5,41.776,5z"/></svg>