<svg xmlns="http://www.w3.org/2000/svg" viewBox="0 0 48 48"><path fill="#107c42" d="M22.206,12H5.995c-0.738,0-1.219,0.782-0.888,1.447l1.293,2.603C9.427,22.148,15.619,26,22.391,26	h0.87c1.251,0,2.428-0.593,3.179-1.6l4.163-5.588c0.717-0.962,0.434-2.34-0.604-2.936l-5.822-3.349	C23.577,12.182,22.897,12,22.206,12z"/><linearGradient id="8u4NtQJwhvakjJ~LWZX2Ea" x1="45.388" x2="36.643" y1="16.646" y2="12.351" gradientUnits="userSpaceOnUse"><stop offset="0" stop-color="#ffcf54"/><stop offset=".261" stop-color="#fdcb4d"/><stop offset=".639" stop-color="#f7c13a"/><stop offset="1" stop-color="#f0b421"/></linearGradient><path fill="url(#8u4NtQJwhvakjJ~LWZX2Ea)" d="M43.999,17c-0.15,0-0.303-0.034-0.446-0.105l-8-4c-0.494-0.247-0.694-0.848-0.447-1.342	s0.847-0.695,1.342-0.447l8,4c0.494,0.247,0.694,0.848,0.447,1.342C44.719,16.798,44.366,17,43.999,17z"/><linearGradient id="8u4NtQJwhvakjJ~LWZX2Eb" x1="4.402" x2="40.071" y1="3.813" y2="39.482" gradientUnits="userSpaceOnUse"><stop offset="0" stop-color="#21ad64"/><stop offset="1" stop-color="#088242"/></linearGradient><path fill="url(#8u4NtQJwhvakjJ~LWZX2Eb)" d="M37.954,9.844c-0.273-1.957-1.89-3.551-3.849-3.804c-2.308-0.299-4.308,1.141-4.907,3.194	c-0.008,0.011-0.013,0.017-0.021,0.029L20.4,33.31L16.339,44.1c-0.148,0.393,0.219,0.784,0.618,0.655	C19.01,44.089,23.904,41.741,27,34c0.038-0.09,0.102-0.196,0.153-0.293c5.145-1.115,9.114-5.39,9.757-10.697	c0.06-0.49,0.09-1,0.09-1.51c0-1.867-0.411-3.639-1.147-5.231c-0.373-0.805-0.116-1.762,0.561-2.335	C37.538,12.98,38.183,11.484,37.954,9.844z"/><linearGradient id="8u4NtQJwhvakjJ~LWZX2Ec" x1="34.293" x2="35.707" y1="10.293" y2="11.707" gradientUnits="userSpaceOnUse"><stop offset="0" stop-color="#4c4c4c"/><stop offset="1" stop-color="#343434"/></linearGradient><circle cx="35" cy="11" r="1" fill="url(#8u4NtQJwhvakjJ~LWZX2Ec)"/><linearGradient id="8u4NtQJwhvakjJ~LWZX2Ed" x1="2.918" x2="38.587" y1="5.298" y2="40.967" gradientUnits="userSpaceOnUse"><stop offset="0" stop-color="#21ad64"/><stop offset="1" stop-color="#088242"/></linearGradient><path fill="url(#8u4NtQJwhvakjJ~LWZX2Ed)" d="M20.206,14H3.995c-0.738,0-1.219,0.782-0.888,1.447l1.293,2.603	C7.427,24.148,13.619,28,20.391,28h0.87c1.251,0,2.428-0.593,3.179-1.6l4.163-5.588c0.717-0.962,0.434-2.34-0.604-2.936	l-5.822-3.349C21.577,14.182,20.897,14,20.206,14z"/></svg>