<svg xmlns="http://www.w3.org/2000/svg" viewBox="0 0 48 48"><path fill="#199be2" d="M17,12h25c1.105,0,2,0.895,2,2v24c0,1.105-0.895,2-2,2H10c-1.105,0-2-0.895-2-2V21L17,12z"/><path d="M8,38V12h34v22.319C42,36.352,40.352,38,38.319,38H8z" opacity=".05"/><path d="M8,37V17.059C8,14.265,10.265,12,13.059,12H41v22.161	C41,35.729,39.729,37,38.161,37H8z" opacity=".07"/><path fill="#50e6ff" d="M14,8h24c1.105,0,2,0.895,2,2v24c0,1.105-0.895,2-2,2H6c-1.105,0-2-0.895-2-2V18L14,8z"/><linearGradient id="MVJz4afmzhzAZkSOjTEHHa" x1="30.534" x2="35.09" y1="376.534" y2="381.09" gradientTransform="matrix(0 -1 -1 0 390 48)" gradientUnits="userSpaceOnUse"><stop offset="0" stop-color="#3079d6"/><stop offset="1" stop-color="#297cd2"/></linearGradient><path fill="url(#MVJz4afmzhzAZkSOjTEHHa)" d="M4,18h8c1.105,0,2-0.895,2-2V8L4,18z"/></svg>