<svg xmlns="http://www.w3.org/2000/svg" baseProfile="basic" viewBox="0 0 48 48"><path fill="#092347" d="M21.662,3.637L7.614,11.79c-1.447,0.844-2.335,2.394-2.334,4.069v16.29	c0,1.676,0.892,3.226,2.341,4.069l14.041,8.153c1.448,0.84,3.235,0.84,4.683,0l14.048-8.145c1.444-0.846,2.329-2.395,2.326-4.069	V15.851c0-1.681-0.891-3.224-2.334-4.069L26.338,3.63c-1.448-0.84-3.235-0.84-4.683,0L21.662,3.637z"/><radialGradient id="l9w5rzlV2ty5gfiU_uUMNa" cx="316.122" cy="855.218" r="23.624" gradientTransform="matrix(1 0 0 -.4453 -292 410.747)" gradientUnits="userSpaceOnUse"><stop offset="0" stop-color="#233062"/><stop offset=".58" stop-color="#293b63"/><stop offset="1" stop-color="#304665"/></radialGradient><path fill="url(#l9w5rzlV2ty5gfiU_uUMNa)" d="M13.479,33.945l-2.119-1.228c-0.998-0.591-0.998-1.535-0.008-2.111	l10.801-6.31c1.134-0.585,2.481-0.585,3.616,0l10.878,6.31c0.998,0.591,0.998,1.528,0.008,2.103l-10.801,6.31	c-0.998,0.583-2.61,0.583-3.608,0l-8.767-5.082"/><linearGradient id="l9w5rzlV2ty5gfiU_uUMNb" x1="312.405" x2="319.62" y1="852.178" y2="864.723" gradientTransform="matrix(1 0 0 -1 -292 885.11)" gradientUnits="userSpaceOnUse"><stop offset="0" stop-color="#1f4772"/><stop offset="1" stop-color="#222d6f"/></linearGradient><path fill="url(#l9w5rzlV2ty5gfiU_uUMNb)" d="M36.647,25.616c0.998,0.591,1.006,1.528,0.015,2.103l-2.495,1.457	L13.846,29.16l-2.486-1.441c-0.998-0.583-0.998-1.52-0.008-2.103l10.801-6.31c1.134-0.586,2.482-0.586,3.616,0L36.647,25.616z"/><linearGradient id="l9w5rzlV2ty5gfiU_uUMNc" x1="305.848" x2="326.156" y1="869.325" y2="857.547" gradientTransform="matrix(1 0 0 -1 -292 885.11)" gradientUnits="userSpaceOnUse"><stop offset="0" stop-color="#00a9ff" stop-opacity=".73"/><stop offset=".493" stop-color="#1464a3" stop-opacity=".725"/><stop offset=".98" stop-color="#6c92f8" stop-opacity=".72"/><stop offset="1" stop-color="#6c91f8" stop-opacity=".72"/></linearGradient><path fill="url(#l9w5rzlV2ty5gfiU_uUMNc)" d="M36.647,20.626c0.998,0.583,0.998,1.52,0.008,2.103L34.17,24.18	l-20.329-0.012l-2.481-1.439c-0.998-0.583-0.998-1.52-0.008-2.103l10.801-6.318c0.998-0.583,2.61-0.583,3.608,0L36.647,20.626z"/><linearGradient id="l9w5rzlV2ty5gfiU_uUMNd" x1="302.581" x2="329.353" y1="870.667" y2="871.097" gradientTransform="scale(1 -1) rotate(-.922 -54792.998 18559.317)" gradientUnits="userSpaceOnUse"><stop offset="0" stop-color="#0379d6"/><stop offset=".98" stop-color="#41e9d2"/></linearGradient><path fill="url(#l9w5rzlV2ty5gfiU_uUMNd)" d="M36.663,15.832c0.988,0.607,0.973,1.536-0.026,2.103l-2.356,1.326	l-20.32-0.163l-2.608-1.57c-0.988-0.599-0.973-1.536,0.026-2.111L22.28,9.282c1.007-0.567,2.619-0.541,3.615,0.058L36.663,15.832z"/><linearGradient id="l9w5rzlV2ty5gfiU_uUMNe" x1="21.455" x2="26.545" y1="19.741" y2="28.591" gradientUnits="userSpaceOnUse"><stop offset="0" stop-color="#1574b9"/><stop offset="1" stop-color="#3e61b4"/></linearGradient><path fill="url(#l9w5rzlV2ty5gfiU_uUMNe)" d="M34.17,24.18l-4.275,2.497l-11.747-0.01L13.84,24.17l4.33-2.54l3.96,2.38	c0.99,0.6,2.6,0.63,3.61,0.06l4.18-2.35L34.17,24.18z"/><linearGradient id="l9w5rzlV2ty5gfiU_uUMNf" x1="24.005" x2="24.005" y1="34.475" y2="26.638" gradientUnits="userSpaceOnUse"><stop offset="0" stop-color="#2f4e85"/><stop offset="1" stop-color="#323984"/></linearGradient><path fill="url(#l9w5rzlV2ty5gfiU_uUMNf)" d="M34.17,29.18l-8.32,4.86c-0.99,0.58-2.61,0.58-3.61,0l-8.4-4.87l4.33-2.54l11.75,0.09	L34.17,29.18z"/><path fill="#2b73c2" d="M29.88,26.68l-4.03,2.36c-0.99,0.58-2.61,0.58-3.61,0l-4.12-2.39l4.03-2.35	c0.1-0.05,0.2-0.1,0.3-0.14l3.05,0.02c0.09,0.03,0.18,0.07,0.27,0.12L29.88,26.68z"/><linearGradient id="l9w5rzlV2ty5gfiU_uUMNg" x1="13.932" x2="34.302" y1="19.173" y2="19.173" gradientUnits="userSpaceOnUse"><stop offset="0" stop-color="#0a96f2"/><stop offset="1" stop-color="#43e6e1"/></linearGradient><path fill="url(#l9w5rzlV2ty5gfiU_uUMNg)" d="M34.28,19.26l-8.54,4.81c-1.01,0.57-2.62,0.54-3.61-0.06l-8.17-4.91l8.19-4.79	c1-0.59,2.61-0.59,3.61,0L34.28,19.26z"/></svg>