<svg xmlns="http://www.w3.org/2000/svg" viewBox="0 0 48 48"><linearGradient id="STNXKX7nnS2OeAX9kind3a" x1="13.48" x2="31.634" y1="242.407" y2="216.147" gradientTransform="matrix(1 0 0 -1 0 254)" gradientUnits="userSpaceOnUse"><stop offset="0" stop-color="#7dd8f3"/><stop offset="1" stop-color="#45b0d0"/></linearGradient><path fill="url(#STNXKX7nnS2OeAX9kind3a)" d="M4,38V15h40v23c0,1.1-0.9,2-2,2H6C4.9,40,4,39.1,4,38z"/><linearGradient id="STNXKX7nnS2OeAX9kind3b" x1="4.614" x2="42.936" y1="246.259" y2="238.467" gradientTransform="matrix(1 0 0 -1 0 254)" gradientUnits="userSpaceOnUse"><stop offset="0" stop-color="#0077d2"/><stop offset="1" stop-color="#0b59a2"/></linearGradient><path fill="url(#STNXKX7nnS2OeAX9kind3b)" d="M44,10v5H4v-5c0-1.1,0.9-2,2-2h36C43.1,8,44,8.9,44,10z"/><linearGradient id="STNXKX7nnS2OeAX9kind3c" x1="16" x2="42" y1="242.5" y2="242.5" gradientTransform="matrix(1 0 0 -1 0 254)" gradientUnits="userSpaceOnUse"><stop offset="0" stop-color="#7dd8f3"/><stop offset="1" stop-color="#45b0d0"/></linearGradient><path fill="url(#STNXKX7nnS2OeAX9kind3c)" d="M16.5,13h25c0.276,0,0.5-0.224,0.5-0.5v-2c0-0.276-0.224-0.5-0.5-0.5h-25	c-0.276,0-0.5,0.224-0.5,0.5v2C16,12.776,16.224,13,16.5,13z"/><linearGradient id="STNXKX7nnS2OeAX9kind3d" x1="6.751" x2="8.032" y1="243.584" y2="241.731" gradientTransform="matrix(1 0 0 -1 0 254)" gradientUnits="userSpaceOnUse"><stop offset="0" stop-color="#75daff"/><stop offset="1" stop-color="#49bef1"/></linearGradient><circle cx="7.5" cy="11.5" r="1.5" fill="url(#STNXKX7nnS2OeAX9kind3d)"/><linearGradient id="STNXKX7nnS2OeAX9kind3e" x1="11.751" x2="13.032" y1="243.584" y2="241.731" gradientTransform="matrix(1 0 0 -1 0 254)" gradientUnits="userSpaceOnUse"><stop offset="0" stop-color="#75daff"/><stop offset="1" stop-color="#49bef1"/></linearGradient><circle cx="12.5" cy="11.5" r="1.5" fill="url(#STNXKX7nnS2OeAX9kind3e)"/><path fill="#199be2" d="M44.992,43.224l-1.768,1.768l2.935,2.935c0.098,0.098,0.256,0.098,0.354,0l1.414-1.414	c0.098-0.098,0.098-0.256,0-0.354L44.992,43.224z"/><radialGradient id="STNXKX7nnS2OeAX9kind3f" cx="37.012" cy="694.952" r="9.802" gradientTransform="matrix(1 0 0 -1 0 732)" gradientUnits="userSpaceOnUse"><stop offset=".693" stop-color="#006185"/><stop offset=".921" stop-color="#35c1f1"/></radialGradient><polygon fill="url(#STNXKX7nnS2OeAX9kind3f)" points="42.8,41.033 41.033,42.8 43.224,44.992 44.992,43.224"/><path fill="#184f85" d="M12.958,28.851c0-3.408-5.031-2.742-5.031-4.756c0-1.051,1.182-1.107,1.551-1.107 c0.888,0,1.745,0.239,2.399,0.545c0.206,0.098,0.443-0.045,0.443-0.273v-0.991c0-0.332-0.125-0.529-0.325-0.608 c-0.448-0.174-1.091-0.302-2.043-0.333v-1.091C9.953,20.106,9.847,20,9.716,20H9.242c-0.131,0-0.237,0.106-0.237,0.237v1.109 C7.529,21.49,6,22.323,6,24.26c0,3.533,5.031,2.831,5.031,4.692c0,0.585-0.374,1.089-1.551,1.089c-1.184,0-2.272-0.413-2.873-0.722 c-0.203-0.103-0.441,0.046-0.441,0.274v1.129c0,0.216,0.131,0.409,0.33,0.494c0.713,0.303,1.67,0.532,2.511,0.599v1.205 c0,0.131,0.106,0.237,0.237,0.237h0.473c0.131,0,0.237-0.106,0.237-0.237v-1.204C12.161,31.634,12.958,30.156,12.958,28.851z"/><path d="M17.02,26C15.906,26,15,25.094,15,23.981v-0.962C15,21.906,15.906,21,17.02,21H40.98 c1.113,0,2.02,0.906,2.02,2.019v0.962C43,25.094,42.094,26,40.98,26H17.02z" opacity=".05"/><path d="M17.02,25.5c-0.838,0-1.52-0.682-1.52-1.519v-0.962c0-0.837,0.682-1.519,1.52-1.519H40.98 c0.838,0,1.52,0.682,1.52,1.519v0.962c0,0.837-0.682,1.519-1.52,1.519H17.02z" opacity=".07"/><path fill="#fff" d="M40.981,25H17.019C16.456,25,16,24.544,16,23.981v-0.962C16,22.456,16.456,22,17.019,22h23.962 C41.544,22,42,22.456,42,23.019v0.962C42,24.544,41.544,25,40.981,25z"/><path d="M17.02,32C15.906,32,15,31.094,15,29.981v-0.962C15,27.906,15.906,27,17.02,27H40.98 c1.113,0,2.02,0.906,2.02,2.019v0.962C43,31.094,42.094,32,40.98,32H17.02z" opacity=".05"/><path d="M17.02,31.5c-0.838,0-1.52-0.682-1.52-1.519v-0.962c0-0.837,0.682-1.519,1.52-1.519H40.98 c0.838,0,1.52,0.682,1.52,1.519v0.962c0,0.837-0.682,1.519-1.52,1.519H17.02z" opacity=".07"/><path fill="#fff" d="M40.981,31H17.019C16.456,31,16,30.544,16,29.981v-0.962C16,28.456,16.456,28,17.019,28h23.962 C41.544,28,42,28.456,42,29.019v0.962C42,30.544,41.544,31,40.981,31z"/><radialGradient id="STNXKX7nnS2OeAX9kind3g" cx="37.096" cy="37.138" r="9.48" gradientUnits="userSpaceOnUse"><stop offset="0"/><stop offset="1" stop-opacity="0"/></radialGradient><path fill="url(#STNXKX7nnS2OeAX9kind3g)" d="M37,27c-5.514,0-10,4.486-10,10c0,1.045,0.163,2.052,0.461,3H42c1.1,0,2-0.9,2-2v-8.129	C42.195,28.098,39.724,27,37,27z"/><linearGradient id="STNXKX7nnS2OeAX9kind3h" x1="31.455" x2="42.669" y1="700.545" y2="689.331" gradientTransform="matrix(1 0 0 -1 0 732)" gradientUnits="userSpaceOnUse"><stop offset="0" stop-color="#a3ffff"/><stop offset=".223" stop-color="#9dfbff"/><stop offset=".53" stop-color="#8bf1ff"/><stop offset=".885" stop-color="#6ee0ff"/><stop offset="1" stop-color="#63daff"/></linearGradient><circle cx="37" cy="37" r="8" fill="url(#STNXKX7nnS2OeAX9kind3h)"/></svg>