<svg xmlns="http://www.w3.org/2000/svg" data-name="Слой 1" viewBox="0 0 48 48"><defs><linearGradient id="m~yMNZKNx4VwXxE8rdZDCa" x1="24" x2="24" y1="209.216" y2="184.1" data-name="Безымянный градиент 58" gradientTransform="matrix(1 0 0 -1 0 224)" gradientUnits="userSpaceOnUse"><stop offset=".9" stop-color="#6d7882"/><stop offset=".917" stop-color="#45494d"/></linearGradient><linearGradient id="m~yMNZKNx4VwXxE8rdZDCb" x1="37.325" x2="38.813" y1="202.674" y2="201.186" data-name="Безымянный градиент 57" gradientTransform="matrix(1 0 0 -1 0 224)" gradientUnits="userSpaceOnUse"><stop offset="0" stop-color="#32bdef"/><stop offset="1" stop-color="#1ea2e4"/></linearGradient></defs><path fill="url(#m~yMNZKNx4VwXxE8rdZDCa)" d="M42,40H6a2.00588,2.00588,0,0,1-2-2V17a2.00588,2.00588,0,0,1,2-2H42a2.00588,2.00588,0,0,1,2,2V38A2.00588,2.00588,0,0,1,42,40Z"/><path fill="#252525" d="M38.5,33H9.5A1.50055,1.50055,0,0,1,8,31.5H8A1.50055,1.50055,0,0,1,9.5,30h29A1.50055,1.50055,0,0,1,40,31.5h0A1.50055,1.50055,0,0,1,38.5,33Z"/><path fill="#0076d7" d="M40,15H8V11a1.00036,1.00036,0,0,1,1-1H39a1.00036,1.00036,0,0,1,1,1Z"/><rect width="2" height="13" x="11" y="30" fill="#50e6ff"/><rect width="2" height="13" x="35" y="30" fill="#50e6ff"/><rect width="2" height="15" x="31" y="30" fill="#50e6ff"/><rect width="2" height="13" x="27" y="30" fill="#50e6ff"/><rect width="2" height="15" x="23" y="30" fill="#50e6ff"/><rect width="2" height="13" x="19" y="30" fill="#50e6ff"/><rect width="2" height="15" x="15" y="30" fill="#50e6ff"/><path fill="#50e6ff" d="M13,5H35a1.99945,1.99945,0,0,1,2,2v8H11V7A1.99945,1.99945,0,0,1,13,5Z"/><rect width="2" height="2" x="11" y="30" fill="#199ae0"/><rect width="2" height="2" x="15" y="30" fill="#199ae0"/><rect width="2" height="2" x="19" y="30" fill="#199ae0"/><rect width="2" height="2" x="23" y="30" fill="#199ae0"/><rect width="2" height="2" x="27" y="30" fill="#199ae0"/><rect width="2" height="2" x="31" y="30" fill="#199ae0"/><rect width="2" height="2" x="35" y="30" fill="#199ae0"/><circle cx="37.958" cy="22.024" r="2" fill="#eef2f3"/><circle cx="38" cy="22" r="1" fill="url(#m~yMNZKNx4VwXxE8rdZDCb)"/></svg>