<svg xmlns="http://www.w3.org/2000/svg" viewBox="0 0 48 48"><linearGradient id="AhMJx~Xvp3IVGDL9AtNB0a" x1="5.662" x2="41.927" y1="-608.546" y2="-601.172" gradientTransform="translate(0 614)" gradientUnits="userSpaceOnUse"><stop offset="0" stop-color="#464eb0"/><stop offset="1" stop-color="#343b9e"/></linearGradient><path fill="url(#AhMJx~Xvp3IVGDL9AtNB0a)" d="M43,8v4H5V8c0-1.1,0.9-2,2-2h34C42.1,6,43,6.9,43,8z"/><circle cx="36" cy="9" r="1" fill="#6d75cf"/><circle cx="40" cy="9" r="1" fill="#6d75cf"/><path fill="#50e6ff" d="M5,19h38v20H5V19z"/><path d="M43,40v-1V28.645c-0.605-0.311-1.229-0.582-1.879-0.774l-0.861-0.254l-0.344,0.827	c-0.325,0.776-1.077,1.277-1.917,1.277s-1.592-0.501-1.917-1.276l-0.345-0.828l-0.86,0.254c-1.65,0.489-3.187,1.378-4.443,2.572	l-0.649,0.615l0.541,0.715c0.508,0.668,0.564,1.569,0.145,2.296c-0.368,0.641-1.059,1.038-1.801,1.038	c-0.087,0-0.173-0.006-0.26-0.017l-0.892-0.113l-0.207,0.874C27.104,36.718,27,37.58,27,38.415c0,0.838,0.105,1.7,0.312,2.564	l0.209,0.873l0.891-0.113c0.086-0.011,0.173-0.017,0.26-0.017c0.369,0,0.726,0.099,1.036,0.277H41C42.105,42,43,41.105,43,40z" opacity=".05"/><path fill="#35c1f1" d="M5,39h38v1c0,1.105-0.895,2-2,2H7c-1.105,0-2-0.895-2-2V39z"/><path fill="#353c9f" d="M42,18H6l-3,3v1c0,1.105,0.895,2,2,2h38c1.105,0,2-0.895,2-2v-1L42,18z"/><polygon fill="#6d75cf" points="43,12 5,12 3,21 45,21"/><path d="M43,40v-1v-9.796c-0.645-0.352-1.319-0.646-2.021-0.853l-0.431-0.127l-0.172,0.414	c-0.402,0.962-1.335,1.584-2.378,1.584c-1.042,0-1.976-0.622-2.378-1.584l-0.173-0.414l-0.43,0.127	c-1.575,0.467-3.041,1.315-4.241,2.455l-0.324,0.308l0.271,0.357c0.63,0.829,0.7,1.947,0.18,2.849	c-0.458,0.795-1.314,1.288-2.234,1.288c-0.107,0-0.215-0.007-0.323-0.021L27.9,35.53l-0.104,0.438	C27.6,36.797,27.5,37.621,27.5,38.415c0,0.798,0.101,1.622,0.299,2.448l0.104,0.437l0.445-0.057	c0.107-0.014,0.216-0.021,0.323-0.021c0.7,0,1.361,0.289,1.84,0.777H41C42.105,42,43,41.105,43,40z" opacity=".07"/><linearGradient id="AhMJx~Xvp3IVGDL9AtNB0b" x1="31.189" x2="45.426" y1="1537.604" y2="1551.841" gradientTransform="translate(0 -1506)" gradientUnits="userSpaceOnUse"><stop offset="0" stop-color="#889097"/><stop offset=".331" stop-color="#848c94"/><stop offset=".669" stop-color="#78828b"/><stop offset="1" stop-color="#64717c"/></linearGradient><path fill="url(#AhMJx~Xvp3IVGDL9AtNB0b)" d="M47.715,36.083c-1.192,0.152-2.415-0.407-3.054-1.514c-0.638-1.106-0.512-2.444,0.215-3.401	c-1.129-1.072-2.505-1.885-4.038-2.338c-0.464,1.111-1.56,1.892-2.839,1.892s-2.375-0.782-2.839-1.892	c-1.533,0.454-2.908,1.265-4.038,2.338c0.727,0.957,0.854,2.295,0.215,3.401c-0.638,1.106-1.861,1.665-3.054,1.514	C28.105,36.832,28,37.61,28,38.415s0.105,1.583,0.285,2.332c1.192-0.152,2.415,0.408,3.054,1.514	c0.638,1.106,0.512,2.444-0.215,3.401c1.129,1.072,2.505,1.885,4.038,2.338c0.464-1.111,1.56-1.892,2.839-1.892	S40.376,46.89,40.84,48c1.533-0.454,2.908-1.265,4.038-2.338c-0.727-0.957-0.855-2.295-0.215-3.401	c0.638-1.106,1.861-1.665,3.054-1.514C47.895,39.998,48,39.22,48,38.415S47.895,36.832,47.715,36.083z"/><linearGradient id="AhMJx~Xvp3IVGDL9AtNB0c" x1="41.484" x2="34.47" y1="1547.899" y2="1540.885" gradientTransform="translate(0 -1506)" gradientUnits="userSpaceOnUse"><stop offset="0" stop-color="#fff"/><stop offset=".242" stop-color="#f2f2f2"/><stop offset="1" stop-color="#ccc"/></linearGradient><circle cx="38" cy="38.415" r="5" fill="url(#AhMJx~Xvp3IVGDL9AtNB0c)"/><linearGradient id="AhMJx~Xvp3IVGDL9AtNB0d" x1="35.193" x2="40.117" y1="1541.608" y2="1546.532" gradientTransform="translate(0 -1506)" gradientUnits="userSpaceOnUse"><stop offset="0" stop-color="#0d61a9"/><stop offset=".363" stop-color="#0e5fa4"/><stop offset=".78" stop-color="#135796"/><stop offset="1" stop-color="#16528c"/></linearGradient><circle cx="38" cy="38.415" r="3" fill="url(#AhMJx~Xvp3IVGDL9AtNB0d)"/></svg>