<svg xmlns="http://www.w3.org/2000/svg" viewBox="0 0 48 48"><linearGradient id="dZ7E_tlChrBqz5BlSMC-5a" x1="28.5" x2="28.5" y1="22.25" y2="42.073" gradientUnits="userSpaceOnUse"><stop offset="0" stop-color="#dfe9f2"/><stop offset=".391" stop-color="#d6e0e9"/><stop offset="1" stop-color="#bfc8d1"/></linearGradient><path fill="url(#dZ7E_tlChrBqz5BlSMC-5a)" d="M37.75,34h-18.5c-0.553,0-1-0.448-1-1s0.447-1,1-1h18.5c0.553,0,1,0.448,1,1	S38.303,34,37.75,34z"/><linearGradient id="dZ7E_tlChrBqz5BlSMC-5b" x1="14" x2="14" y1="22.25" y2="42.073" gradientUnits="userSpaceOnUse"><stop offset="0" stop-color="#dfe9f2"/><stop offset=".391" stop-color="#d6e0e9"/><stop offset="1" stop-color="#bfc8d1"/></linearGradient><path fill="url(#dZ7E_tlChrBqz5BlSMC-5b)" d="M14,43c-0.553,0-1-0.448-1-1V25	c0-0.552,0.447-1,1-1s1,0.448,1,1v17C15,42.552,14.553,43,14,43z"/><linearGradient id="dZ7E_tlChrBqz5BlSMC-5c" x1="43" x2="43" y1="22.25" y2="42.073" gradientUnits="userSpaceOnUse"><stop offset="0" stop-color="#dfe9f2"/><stop offset=".391" stop-color="#d6e0e9"/><stop offset="1" stop-color="#bfc8d1"/></linearGradient><path fill="url(#dZ7E_tlChrBqz5BlSMC-5c)" d="M43,43c-0.553,0-1-0.448-1-1V25	c0-0.552,0.447-1,1-1s1,0.448,1,1v17C44,42.552,43.553,43,43,43z"/><linearGradient id="dZ7E_tlChrBqz5BlSMC-5d" x1="28.5" x2="28.5" y1="22.25" y2="42.073" gradientUnits="userSpaceOnUse"><stop offset="0" stop-color="#dfe9f2"/><stop offset=".391" stop-color="#d6e0e9"/><stop offset="1" stop-color="#bfc8d1"/></linearGradient><path fill="url(#dZ7E_tlChrBqz5BlSMC-5d)" d="M43,39c-0.25,0-0.501-0.093-0.694-0.281	L28.5,25.39L14.694,38.719c-0.396,0.384-1.029,0.373-1.414-0.024c-0.383-0.397-0.372-1.031,0.025-1.414l14.5-14	c0.387-0.374,1.002-0.374,1.389,0l14.5,14c0.397,0.383,0.408,1.017,0.025,1.414C43.523,38.898,43.262,39,43,39z"/><linearGradient id="dZ7E_tlChrBqz5BlSMC-5e" x1="6.5" x2="6.5" y1="14.457" y2="30.25" gradientUnits="userSpaceOnUse"><stop offset="0" stop-color="#c26715"/><stop offset=".346" stop-color="#be6015"/><stop offset=".686" stop-color="#b54e16"/><stop offset=".979" stop-color="#ad3f16"/></linearGradient><path fill="url(#dZ7E_tlChrBqz5BlSMC-5e)" d="M8,19H5c-1.657,0-3,1.343-3,3v3	c0,0.552,0.448,1,1,1h7c0.552,0,1-0.448,1-1v-3C11,20.343,9.657,19,8,19z"/><linearGradient id="dZ7E_tlChrBqz5BlSMC-5f" x1="28.5" x2="28.5" y1="14.457" y2="30.25" gradientUnits="userSpaceOnUse"><stop offset="0" stop-color="#c26715"/><stop offset=".346" stop-color="#be6015"/><stop offset=".686" stop-color="#b54e16"/><stop offset=".979" stop-color="#ad3f16"/></linearGradient><path fill="url(#dZ7E_tlChrBqz5BlSMC-5f)" d="M43,19H14c-1.657,0-3,1.343-3,3v3	c0,0.552,0.448,1,1,1h33c0.552,0,1-0.448,1-1v-3C46,20.343,44.657,19,43,19z"/><path d="M32.53,26.5L32.01,26h-2.88l0.52,0.5l0.52,0.5h2.88L32.53,26.5z M24.47,26.5L23.95,27h2.88l0.52-0.5l0.52-0.5h-2.88 L24.47,26.5z M42,26v1h2v-1H42z M13,26v1h2v-1H13z" opacity=".05"/><path d="M32.01,26h-2.88l0.52,0.5h2.88L32.01,26z M24.47,26.5h2.88l0.52-0.5h-2.88L24.47,26.5z M42,26v0.5h2V26H42z M13,26v0.5h2 V26H13z" opacity=".07"/></svg>