<svg xmlns="http://www.w3.org/2000/svg" viewBox="0 0 48 48"><rect width="10" height="21" x="19" y="22" fill="#bd8215"/><linearGradient id="1OF1KU9E0_FneQ769DzLJa" x1="17" x2="17" y1="9.109" y2="55.675" gradientUnits="userSpaceOnUse"><stop offset="0" stop-color="#eba600"/><stop offset="1" stop-color="#c28200"/></linearGradient><path fill="url(#1OF1KU9E0_FneQ769DzLJa)" d="M17,5c-2,3-4,17-4,23v15h8V28C21,22,19.25,8,17,5z"/><linearGradient id="1OF1KU9E0_FneQ769DzLJb" x1="9.5" x2="9.5" y1="8.391" y2="28.003" gradientUnits="userSpaceOnUse"><stop offset="0" stop-color="#ffcf7b"/><stop offset=".196" stop-color="#fecd76"/><stop offset=".439" stop-color="#fac666"/><stop offset=".709" stop-color="#f3bc4d"/><stop offset=".995" stop-color="#eaad2a"/><stop offset="1" stop-color="#eaad29"/></linearGradient><path fill="url(#1OF1KU9E0_FneQ769DzLJb)" d="M9.5,8C7.75,11,6,25,6,31v12h7V31C13,25,11.469,11,9.5,8z"/><linearGradient id="1OF1KU9E0_FneQ769DzLJc" x1="31" x2="31" y1="9.109" y2="55.675" gradientUnits="userSpaceOnUse"><stop offset="0" stop-color="#eba600"/><stop offset="1" stop-color="#c28200"/></linearGradient><path fill="url(#1OF1KU9E0_FneQ769DzLJc)" d="M31,5c-2.25,3-4,17-4,23v15h8V28C35,22,33,8,31,5z"/><linearGradient id="1OF1KU9E0_FneQ769DzLJd" x1="38.5" x2="38.5" y1="8.391" y2="28.003" gradientUnits="userSpaceOnUse"><stop offset="0" stop-color="#ffcf7b"/><stop offset=".196" stop-color="#fecd76"/><stop offset=".439" stop-color="#fac666"/><stop offset=".709" stop-color="#f3bc4d"/><stop offset=".995" stop-color="#eaad2a"/><stop offset="1" stop-color="#eaad29"/></linearGradient><path fill="url(#1OF1KU9E0_FneQ769DzLJd)" d="M38.5,8C36.531,11,35,25,35,31v12h7V31C42,25,40.25,11,38.5,8z"/><linearGradient id="1OF1KU9E0_FneQ769DzLJe" x1="9.5" x2="9.5" y1="7.429" y2="11.748" gradientUnits="userSpaceOnUse"><stop offset="0" stop-color="#f5b967"/><stop offset="1" stop-color="#eba84b"/></linearGradient><circle cx="9.5" cy="7" r="1" fill="url(#1OF1KU9E0_FneQ769DzLJe)"/><linearGradient id="1OF1KU9E0_FneQ769DzLJf" x1="38.5" x2="38.5" y1="7.429" y2="11.748" gradientUnits="userSpaceOnUse"><stop offset="0" stop-color="#f5b967"/><stop offset="1" stop-color="#eba84b"/></linearGradient><circle cx="38.5" cy="7" r="1" fill="url(#1OF1KU9E0_FneQ769DzLJf)"/><linearGradient id="1OF1KU9E0_FneQ769DzLJg" x1="17" x2="17" y1="2.587" y2="5.653" gradientUnits="userSpaceOnUse"><stop offset="0" stop-color="#eba600"/><stop offset="1" stop-color="#c28200"/></linearGradient><circle cx="17" cy="4" r="1" fill="url(#1OF1KU9E0_FneQ769DzLJg)"/><linearGradient id="1OF1KU9E0_FneQ769DzLJh" x1="31" x2="31" y1="2.587" y2="5.653" gradientUnits="userSpaceOnUse"><stop offset="0" stop-color="#eba600"/><stop offset="1" stop-color="#c28200"/></linearGradient><circle cx="31" cy="4" r="1" fill="url(#1OF1KU9E0_FneQ769DzLJh)"/><linearGradient id="1OF1KU9E0_FneQ769DzLJi" x1="13" x2="13" y1="29.913" y2="49.77" gradientUnits="userSpaceOnUse"><stop offset="0" stop-color="#ffcf7b"/><stop offset=".196" stop-color="#fecd76"/><stop offset=".439" stop-color="#fac666"/><stop offset=".709" stop-color="#f3bc4d"/><stop offset=".995" stop-color="#eaad2a"/><stop offset="1" stop-color="#eaad29"/></linearGradient><path fill="url(#1OF1KU9E0_FneQ769DzLJi)" d="M12.999,34C9,36.769,9,43,9,43h7.998C16.998,43,17.198,36.769,12.999,34z"/><linearGradient id="1OF1KU9E0_FneQ769DzLJj" x1="35" x2="35" y1="29.913" y2="49.77" gradientUnits="userSpaceOnUse"><stop offset="0" stop-color="#ffcf7b"/><stop offset=".196" stop-color="#fecd76"/><stop offset=".439" stop-color="#fac666"/><stop offset=".709" stop-color="#f3bc4d"/><stop offset=".995" stop-color="#eaad2a"/><stop offset="1" stop-color="#eaad29"/></linearGradient><path fill="url(#1OF1KU9E0_FneQ769DzLJj)" d="M34.999,34C31,36.769,31,43,31,43h7.998C38.998,43,39.198,36.769,34.999,34z"/><linearGradient id="1OF1KU9E0_FneQ769DzLJk" x1="24" x2="24" y1="22.103" y2="34.419" gradientUnits="userSpaceOnUse"><stop offset="0" stop-color="#ffcf7b"/><stop offset=".196" stop-color="#fecd76"/><stop offset=".439" stop-color="#fac666"/><stop offset=".709" stop-color="#f3bc4d"/><stop offset=".995" stop-color="#eaad2a"/><stop offset="1" stop-color="#eaad29"/></linearGradient><path fill="url(#1OF1KU9E0_FneQ769DzLJk)" d="M20,39.444c0-5.333,1.75-17.778,4-20.444c2,2.667,4,15.111,4,20.444	C28,41.408,26.209,43,24,43S20,41.408,20,39.444z"/><linearGradient id="1OF1KU9E0_FneQ769DzLJl" x1="24" x2="24" y1="17.114" y2="23.131" gradientUnits="userSpaceOnUse"><stop offset="0" stop-color="#f5b967"/><stop offset="1" stop-color="#eba84b"/></linearGradient><circle cx="24" cy="18" r="1" fill="url(#1OF1KU9E0_FneQ769DzLJl)"/><linearGradient id="1OF1KU9E0_FneQ769DzLJm" x1="24.001" x2="24.001" y1="29.913" y2="49.77" gradientUnits="userSpaceOnUse"><stop offset="0" stop-color="#ffcf7b"/><stop offset=".196" stop-color="#fecd76"/><stop offset=".439" stop-color="#fac666"/><stop offset=".709" stop-color="#f3bc4d"/><stop offset=".995" stop-color="#eaad2a"/><stop offset="1" stop-color="#eaad29"/></linearGradient><path fill="url(#1OF1KU9E0_FneQ769DzLJm)" d="M24,30c-5,4-5,13-5,13h10C29,43,29.25,34,24,30z"/><path fill="#bd8215" d="M13,38L13,38c-1.105,0-2,0.895-2,2v3h4v-3C15,38.895,14.105,38,13,38z"/><path fill="#bd8215" d="M35,38L35,38c-1.105,0-2,0.895-2,2v3h4v-3C37,38.895,36.105,38,35,38z"/><path fill="#bd8215" d="M24,36L24,36c-1.105,0-2,0.895-2,2v5h4v-5C26,36.895,25.105,36,24,36z"/><g opacity=".05"><path d="M13.55,33.17l-0.56-0.38l-0.56,0.39C8.05,36.21,8,42.72,8,43h1c0,0,0-6.23,4-9c4.2,2.77,4,9,4,9h1v-0.16 C18,41.7,17.78,35.96,13.55,33.17z"/><path d="M35.55,33.17l-0.56-0.38l-0.56,0.39c-4.08,2.82-4.4,8.67-4.43,9.68V43h1c0,0,0-6.23,4-9c4.2,2.77,4,9,4,9h1 C40.01,42.41,40.04,36.13,35.55,33.17z"/><path d="M28.76,35.36c-0.38-3.96-1.28-9.55-2.42-13.36H25.3c1.11,3.58,2.07,9.22,2.48,13.58C29.09,39.29,29,43,29,43h1v-0.14 C30,42.07,29.94,38.76,28.76,35.36z M21.56,22c-1.23,4.02-2.08,9.98-2.39,13.89c-1.02,3.2-1.15,6.22-1.17,6.95V43h1 c0,0,0.01-3.38,1.15-6.91C20.5,31.67,21.41,25.72,22.6,22H21.56z"/></g><g opacity=".07"><path d="M13.27,33.58l-0.28-0.18l-0.28,0.19C8.55,36.47,8.5,42.73,8.5,43H9c0,0,0-6.23,4-9c4.2,2.77,4,9,4,9h0.5 C17.51,42.5,17.57,36.41,13.27,33.58z"/><path d="M35.27,33.58l-0.28-0.18l-0.28,0.19c-4.16,2.88-4.21,9.14-4.21,9.41H31c0,0,0-6.23,4-9c4.2,2.77,4,9,4,9h0.5 C39.51,42.5,39.57,36.41,35.27,33.58z"/><path d="M28.27,35.47c-0.38-3.89-1.3-9.67-2.45-13.47H25.3c1.11,3.58,2.07,9.22,2.48,13.58C29.09,39.29,29,43,29,43h0.5 C29.5,42.74,29.56,39.15,28.27,35.47z M19.66,35.99c-1.14,3.55-1.16,6.87-1.16,7.01H19c0,0,0.01-3.38,1.15-6.91 C20.5,31.67,21.41,25.72,22.6,22h-0.53C20.83,25.96,19.97,32.05,19.66,35.99z"/></g></svg>