<svg xmlns="http://www.w3.org/2000/svg" viewBox="0 0 48 48"><linearGradient id="J5SS40eL1QAl4ydFFsFIza" x1="11.947" x2="31.475" y1="9.997" y2="34.82" gradientUnits="userSpaceOnUse"><stop offset="0" stop-color="#f44f5a"/><stop offset=".443" stop-color="#ee3d4a"/><stop offset="1" stop-color="#e52030"/></linearGradient><path fill="url(#J5SS40eL1QAl4ydFFsFIza)" d="M22.963,11.037C15.804,11.037,10,16.841,10,24s5.804,12.963,12.963,12.963	S35.926,31.159,35.926,24S30.122,11.037,22.963,11.037z"/><linearGradient id="J5SS40eL1QAl4ydFFsFIzb" x1="30.358" x2="44.426" y1="7.649" y2="43.148" gradientUnits="userSpaceOnUse"><stop offset="0" stop-color="#f44f5a"/><stop offset=".443" stop-color="#ee3d4a"/><stop offset="1" stop-color="#e52030"/></linearGradient><path fill="url(#J5SS40eL1QAl4ydFFsFIzb)" d="M41.111,24c0,6.127-3.042,11.538-7.693,14.823c-0.286,0.202-0.367,0.586-0.175,0.879	l1.419,2.167c0.2,0.306,0.62,0.394,0.92,0.184C41.272,38.07,45,31.474,45,24c0-7.474-3.727-14.07-9.418-18.054	c-0.3-0.21-0.72-0.122-0.92,0.184l-1.419,2.167c-0.192,0.293-0.11,0.677,0.175,0.879C38.069,12.462,41.111,17.873,41.111,24z"/></svg>