<svg xmlns="http://www.w3.org/2000/svg" id="Layer_1" x="0" y="0" version="1.1" viewBox="0 0 48 48" xml:space="preserve"><path fill="#0078d4" d="M22,34h4v6h-4V34z"/><path fill="#199be2" d="M34,43H14c-0.6,0-1-0.4-1-1v-0.3c0-0.4,0.3-0.8,0.7-0.9L22,38h4l8.3,2.8c0.4,0.1,0.7,0.5,0.7,0.9V42	C35,42.6,34.6,43,34,43z"/><path fill="#199be2" d="M24,5C15.2,5,8,12.2,8,21s7.2,16,16,16s16-7.2,16-16S32.8,5,24,5z"/><path fill="#50e6ff" d="M8,21c0,8.8,7.2,16,16,16s16-7.2,16-16S32.8,5,24,5S8,12.2,8,21z M11,21c0-7.2,5.8-13,13-13s13,5.8,13,13	s-5.8,13-13,13S11,28.2,11,21z"/><path fill="#50e6ff" d="M24,21l-0.9-4.4l-2.4-0.1l2.1-1.2l-0.3-1.5l-3.8,0.4l3.5-1.8L21.9,11l-3.4,0.3l3.2-1.5L21,7h6l-0.5,2.5l-3,0.6	l2.7,0.5l-0.3,1.5l-2.6,0.8l2.3,0.5L25.3,15l-1.8,0.8l1.5,0.5L24,21z M24,21l3.8,2.5l1.7-1.8l-0.7,2.5l1.4,0.9l2.6-3.6l-1.5,4.3	l1.2,0.8l2.1-2.4l-1,3.1l2.4,1.5L31.8,33l-1.4-2.1l1.8-2.4l-2.4,1.4L29,28.6l1.8-2.3l-2.5,1.2l-0.9-1.3l0.8-1.7L26.6,25L24,21z M24,21l-3.6,2.8l0.8,1.9l-1.8-1.1l-1.2,1l2.5,3.6l-3.6-2.8L16,27.3l1.3,2.6L15,28.1l-2.2,1.8l-2.7-5.3l2.5-0.7l1.7,2.2l-0.6-2.5	l1.5-0.3l1.7,1.9L16.5,23l1.5-0.5l1.5,1.2l-0.2-1.5L24,21z"/><path d="M8.9,15.7c0.9,1,2.2,2.1,4.4,3c1.3,0.6,2.7,0.9,3.9,0.9c1.9,0,3.3-0.8,3.9-2.3c0.7-1.8,0.1-3.8-1.4-4.8	c0-2.4-1.1-3.4-2-4.1c-0.5-0.4-0.9-0.8-1.2-1.4C12.9,8.8,10.2,11.9,8.9,15.7z" opacity=".05"/><path d="M9.1,15.2c0.9,1,2.1,2.1,4.4,3.1c1.3,0.5,2.6,0.8,3.7,0.8c0,0,0,0,0,0c1.7,0,2.9-0.7,3.4-2	c0.7-1.7,0-3.5-1.4-4.4c0.1-2.4-0.9-3.3-1.8-4c-0.5-0.4-1-0.9-1.3-1.6C12.9,8.9,10.4,11.8,9.1,15.2z" opacity=".07"/><path fill="#103f8f" d="M24,18c-1.7,0-3,1.3-3,3s1.3,3,3,3s3-1.3,3-3S25.7,18,24,18z"/><radialGradient id="SVGID_1_" cx="10.816" cy="6.072" r="13.55" gradientUnits="userSpaceOnUse"><stop offset="0" stop-color="#a34f27"/><stop offset=".587" stop-color="#8b3817"/><stop offset="1" stop-color="#802d10"/></radialGradient><path fill="url(#SVGID_1_)" d="M15.2,5.6c-2.6,1.3-0.8,3.6-2.9,4.1c-2.5-0.6-5.4-0.8-7.9,2.9c4.7-0.9,3.6,2.9,9.2,5.2c2.4,1,5.6,1.4,6.5-0.9	c0.6-1.5,0-3.2-1.5-3.9C18.9,8.4,15.4,9.8,15.2,5.6z"/><path fill="#6b2610" d="M20.2,14.6c-0.3-0.7-0.8-1.3-1.5-1.6c-2.5,0.6-6.6-1-6.6-1S15,15.9,20.2,14.6z"/></svg>