<svg xmlns="http://www.w3.org/2000/svg" viewBox="0 0 48 48"><linearGradient id="x0p0svIFmN~bPBcvMJezma" x1="40.432" x2="14.279" y1="28" y2="28" gradientUnits="userSpaceOnUse"><stop offset="0" stop-color="#fed100"/><stop offset="1" stop-color="#e36001"/></linearGradient><path fill="url(#x0p0svIFmN~bPBcvMJezma)" d="M39,21v14h-7V21H39 M39,18h-7c-1.657,0-3,1.343-3,3v14c0,1.657,1.343,3,3,3h7 c1.657,0,3-1.343,3-3V21C42,19.343,40.657,18,39,18L39,18z"/><linearGradient id="x0p0svIFmN~bPBcvMJezmb" x1="19.58" x2="21.42" y1="41.013" y2="19.987" gradientUnits="userSpaceOnUse"><stop offset="0" stop-color="#f09801"/><stop offset="1" stop-color="#e36001"/></linearGradient><path fill="url(#x0p0svIFmN~bPBcvMJezmb)" d="M8,21h25v19H8V21z"/><path fill="#ffa000" d="M13,24c-1.105,0-2,0.895-2,2s0.895,2,2,2s2-0.895,2-2S14.105,24,13,24z"/><path fill="#ffa000" d="M13.5,34c-0.828,0-1.5,0.672-1.5,1.5s0.672,1.5,1.5,1.5s1.5-0.672,1.5-1.5S14.328,34,13.5,34z"/><path fill="#ffa000" d="M28.5,28c-0.828,0-1.5,0.672-1.5,1.5s0.672,1.5,1.5,1.5s1.5-0.672,1.5-1.5S29.328,28,28.5,28z"/><path fill="#ffc769" d="M19,29c-0.552,0-1,0.448-1,1s0.448,1,1,1s1-0.448,1-1S19.552,29,19,29z"/><path fill="#ffc769" d="M24,34c-0.552,0-1,0.448-1,1s0.448,1,1,1s1-0.448,1-1S24.552,34,24,34z"/><linearGradient id="x0p0svIFmN~bPBcvMJezmc" x1="16.944" x2="22.04" y1="-13.104" y2="45.146" gradientUnits="userSpaceOnUse"><stop offset="0" stop-color="#fede00"/><stop offset=".72" stop-color="#ffd500"/><stop offset="1" stop-color="#ffd000"/></linearGradient><path fill="url(#x0p0svIFmN~bPBcvMJezmc)" d="M8,40v2c0,1.104,0.896,2,2,2h21c1.104,0,2-0.896,2-2v-2H8z M8,13h25v8H8V13z"/><radialGradient id="x0p0svIFmN~bPBcvMJezmd" cx="21.107" cy="16.331" r="15.486" gradientUnits="userSpaceOnUse"><stop offset="0" stop-color="#fafafb"/><stop offset=".293" stop-color="#f6f7f8"/><stop offset=".566" stop-color="#ebecee"/><stop offset=".832" stop-color="#d8dcdf"/><stop offset="1" stop-color="#c8cdd1"/></radialGradient><path fill="url(#x0p0svIFmN~bPBcvMJezmd)" d="M34.912,9.264c-0.226-0.95-0.952-1.746-1.87-2.077c-0.83-0.3-1.612-0.216-2.276,0.084 C30.268,5.947,28.999,5,27.5,5c-0.659,0-1.268,0.193-1.794,0.509C25.115,4.04,23.681,3,22,3c-1.119,0-2.129,0.462-2.855,1.203 C18.247,2.874,16.725,2,15,2c-2.761,0-5,2.239-5,5c0,0.065,0.017,0.125,0.019,0.19C9.295,6.927,8.466,6.882,7.544,7.417 C6.771,7.864,6.179,8.628,6.039,9.51C5.799,11.023,6.694,12.352,8,12.816V13h5.006c0.563,1.179,2.106,2,3.5,2s2.937-0.821,3.5-2 h0.607C21.379,13,22,13.621,22,14.388V17.5c0,0.828,0.672,1.5,1.5,1.5s1.5-0.672,1.5-1.5v6c0,0.828,0.672,1.5,1.5,1.5 s1.5-0.672,1.5-1.5V13h5v-0.184C34.376,12.327,35.296,10.878,34.912,9.264z"/></svg>