<svg xmlns="http://www.w3.org/2000/svg" viewBox="0 0 48 48"><path fill="#d9414f" d="M16,33h-2v-6h4v4C18,32.105,17.105,33,16,33z"/><path fill="#0078d4" d="M16,28h-6v12c0,1.657,1.343,3,3,3h2c0.552,0,1-0.448,1-1V28z"/><path fill="#0078d4" d="M42,18c1.657,0,3,1.343,3,3s-1.343,3-3,3V18z"/><path fill="#35c1f1" d="M39,3c0,0-4,11-23,11v14c19,0,23,11,23,11V3z"/><path fill="#50e6ff" d="M40,3h-1v36h1c1.105,0,2-0.895,2-2V5C42,3.895,41.105,3,40,3z"/><path fill="#1b9de2" d="M10,14c-3.866,0-7,3.134-7,7c0,3.866,3.134,7,7,7h6V14H10z"/><linearGradient id="vWEK1Ow0AMaA4DNPmQZgUa" x1="30.929" x2="45.071" y1="30.929" y2="45.071" gradientUnits="userSpaceOnUse"><stop offset="0" stop-color="#f44f5a"/><stop offset=".443" stop-color="#ee3d4a"/><stop offset="1" stop-color="#e52030"/></linearGradient><path fill="url(#vWEK1Ow0AMaA4DNPmQZgUa)" d="M48,38c0,5.522-4.478,10-10,10s-10-4.478-10-10s4.478-10,10-10S48,32.478,48,38z"/><path fill="#fff" d="M41.536,33.757l0.707,0.707c0.195,0.195,0.195,0.512,0,0.707l-7.071,7.071	c-0.195,0.195-0.512,0.195-0.707,0l-0.707-0.707c-0.195-0.195-0.195-0.512,0-0.707l7.071-7.071	C41.024,33.562,41.34,33.562,41.536,33.757z"/><path fill="#fff" d="M42.243,41.536l-0.707,0.707c-0.195,0.195-0.512,0.195-0.707,0l-7.071-7.071	c-0.195-0.195-0.195-0.512,0-0.707l0.707-0.707c0.195-0.195,0.512-0.195,0.707,0l7.071,7.071	C42.438,41.024,42.438,41.34,42.243,41.536z"/></svg>