<svg xmlns="http://www.w3.org/2000/svg" viewBox="0 0 48 48"><linearGradient id="~ZXaoHgPlQGuB0UnCLQHPa" x1="15.996" x2="15.996" y1="22" y2="42.78" gradientUnits="userSpaceOnUse"><stop offset="0" stop-color="#889097"/><stop offset="1" stop-color="#64717c"/></linearGradient><path fill="url(#~ZXaoHgPlQGuB0UnCLQHPa)" d="M25.414,31.757l-9.172-9.172c-0.781-0.781-2.047-0.781-2.828,0c0,0-2.914,2.914-5.414,5.414	c-1.85,1.85-2.009,10.152-2.008,13.021c0,0.549,0.438,0.99,0.987,0.994C9.836,42.035,18.078,41.922,20,40	c2.5-2.5,5.414-5.414,5.414-5.414C26.195,33.805,26.195,32.538,25.414,31.757z"/><linearGradient id="~ZXaoHgPlQGuB0UnCLQHPb" x1="26" x2="26" y1="20.571" y2="23.578" gradientTransform="rotate(45.001 241.251 111.157) scale(1 9.2499)" gradientUnits="userSpaceOnUse"><stop offset="0" stop-color="#ffd869"/><stop offset="1" stop-color="#fec52b"/></linearGradient><path fill="url(#~ZXaoHgPlQGuB0UnCLQHPb)" d="M13.414,34.586L13.414,34.586c-0.552-0.552-0.552-1.448,0-2L32,14l2,2L15.414,34.586	C14.862,35.138,13.966,35.138,13.414,34.586z"/><linearGradient id="~ZXaoHgPlQGuB0UnCLQHPc" x1="44.364" x2="37.293" y1="3.636" y2="10.707" gradientTransform="rotate(180 38.414 9.586)" gradientUnits="userSpaceOnUse"><stop offset="0" stop-color="#ffd869"/><stop offset="1" stop-color="#fec52b"/></linearGradient><path fill="url(#~ZXaoHgPlQGuB0UnCLQHPc)" d="M36,16.998c-1.28,0-2.561-0.487-3.536-1.462c-1.949-1.95-1.949-5.122,0-7.071l2.829-2.828	c0.391-0.391,1.023-0.391,1.414,0s0.391,1.024,0,1.414l-2.829,2.828c-1.169,1.17-1.169,3.073,0,4.243	c1.169,1.169,3.073,1.168,4.243,0l2.828-2.829c0.391-0.391,1.023-0.391,1.414,0c0.391,0.39,0.391,1.023,0,1.414l-2.828,2.829	C38.561,16.51,37.28,16.998,36,16.998z"/><linearGradient id="~ZXaoHgPlQGuB0UnCLQHPd" x1="39" x2="39" y1="4.073" y2="14.597" gradientUnits="userSpaceOnUse"><stop offset="0" stop-color="#889097"/><stop offset="1" stop-color="#64717c"/></linearGradient><path fill="url(#~ZXaoHgPlQGuB0UnCLQHPd)" d="M41.763,13.712l-7.475-7.475c-0.384-0.384-0.384-1.006,0-1.39l0.559-0.559	c0.384-0.384,1.006-0.384,1.39,0l7.475,7.475c0.384,0.384,0.384,1.006,0,1.39l-0.559,0.559	C42.769,14.096,42.147,14.096,41.763,13.712z"/></svg>