<svg xmlns="http://www.w3.org/2000/svg" viewBox="0 0 48 48"><linearGradient id="sdXXJm9o5Hnd0bCAVIqiBa" x1="5.733" x2="5.733" y1="-586.877" y2="-569" gradientTransform="matrix(1 0 0 -1 0 -562)" gradientUnits="userSpaceOnUse"><stop offset="0" stop-color="#92a3b0"/><stop offset=".015" stop-color="#a3b5c4"/><stop offset=".032" stop-color="#aec2d1"/><stop offset=".046" stop-color="#b2c6d6"/></linearGradient><path fill="url(#sdXXJm9o5Hnd0bCAVIqiBa)" d="M9.466,24.877c-0.465,0-0.881-0.326-0.979-0.798L5.712,10.597C5.521,9.671,4.698,9,3.753,9H2	C1.448,9,1,8.552,1,8s0.448-1,1-1h1.753c1.889,0,3.537,1.343,3.918,3.193l2.775,13.482c0.111,0.541-0.237,1.07-0.778,1.181	C9.601,24.871,9.533,24.877,9.466,24.877z"/><circle cx="37" cy="41" r="3" fill="#5c5f61"/><circle cx="37" cy="41" r="1" opacity=".15"/><circle cx="15" cy="41" r="3" fill="#5c5f61"/><circle cx="15" cy="41" r="1" opacity=".15"/><linearGradient id="sdXXJm9o5Hnd0bCAVIqiBb" x1="25.5" x2="25.5" y1="-601" y2="-593" gradientTransform="matrix(1 0 0 -1 0 -562)" gradientUnits="userSpaceOnUse"><stop offset="0" stop-color="#92a3b0"/><stop offset=".015" stop-color="#a3b5c4"/><stop offset=".032" stop-color="#aec2d1"/><stop offset=".046" stop-color="#b2c6d6"/></linearGradient><path fill="url(#sdXXJm9o5Hnd0bCAVIqiBb)" d="M41,39H13c-2.206,0-4-1.794-4-4s1.794-4,4-4h25c0.552,0,1,0.448,1,1c0,0.552-0.448,1-1,1H13	c-1.103,0-2,0.897-2,2s0.897,2,2,2h28c0.552,0,1,0.448,1,1S41.552,39,41,39z"/><linearGradient id="sdXXJm9o5Hnd0bCAVIqiBc" x1=".756" x2="3.384" y1="-568.756" y2="-571.384" gradientTransform="matrix(1 0 0 -1 0 -562)" gradientUnits="userSpaceOnUse"><stop offset="0" stop-color="#199ae0"/><stop offset="1" stop-color="#0782d8"/></linearGradient><path fill="url(#sdXXJm9o5Hnd0bCAVIqiBc)" d="M4,8c0,1.104-0.896,2-2,2S0,9.104,0,8s0.896-2,2-2S4,6.896,4,8z"/><linearGradient id="sdXXJm9o5Hnd0bCAVIqiBd" x1="6.773" x2="44.342" y1="-586.53" y2="-586.53" gradientTransform="matrix(1 0 0 -1 0 -562)" gradientUnits="userSpaceOnUse"><stop offset="0" stop-color="#3079d6"/><stop offset="1" stop-color="#297cd2"/></linearGradient><path fill="url(#sdXXJm9o5Hnd0bCAVIqiBd)" d="M9.69,31.374C9.87,32.318,10.695,33,11.655,33h28.651c0.978,0,1.812-0.707,1.973-1.671	l2.063-12.379L6.773,16.06L9.69,31.374z"/><linearGradient id="sdXXJm9o5Hnd0bCAVIqiBe" x1="6" x2="44.834" y1="-577.475" y2="-577.475" gradientTransform="matrix(1 0 0 -1 0 -562)" gradientUnits="userSpaceOnUse"><stop offset="0" stop-color="#42a3f2"/><stop offset="1" stop-color="#42a4eb"/></linearGradient><path fill="url(#sdXXJm9o5Hnd0bCAVIqiBe)" d="M43.911,14.916L6,12l0.773,4.06l37.568,2.89l0.479-2.872	C44.917,15.499,44.496,14.961,43.911,14.916z"/><path d="M26,31c-0.464,0-0.898-0.185-1.224-0.52l-4.493-4.631C20.152,25.716,19,24.497,19,23.092	C19,20.836,20.794,19,23,19c1.259,0,2.331,0.649,3,1.184C26.669,19.649,27.741,19,29,19c2.206,0,4,1.836,4,4.092	c0,1.407-1.155,2.627-1.287,2.762l-4.49,4.628C26.898,30.815,26.464,31,26,31z" opacity=".05"/><path d="M26,30.5c-0.327,0-0.635-0.131-0.865-0.368l-4.493-4.631c-0.044-0.045-1.142-1.173-1.142-2.409	c0-1.98,1.57-3.592,3.5-3.592c1.325,0,2.443,0.833,3,1.34c0.557-0.507,1.675-1.34,3-1.34c1.93,0,3.5,1.611,3.5,3.592	c0,1.237-1.098,2.364-1.145,2.412l-4.491,4.629C26.635,30.369,26.327,30.5,26,30.5z" opacity=".07"/><linearGradient id="sdXXJm9o5Hnd0bCAVIqiBf" x1="23.668" x2="29.312" y1="-581.361" y2="-590.053" gradientTransform="matrix(1 0 0 -1 0 -562)" gradientUnits="userSpaceOnUse"><stop offset="0" stop-color="#f44f5a"/><stop offset=".443" stop-color="#ee3d4a"/><stop offset="1" stop-color="#e52030"/></linearGradient><path fill="url(#sdXXJm9o5Hnd0bCAVIqiBf)" d="M26,21.546c0,0,1.343-1.546,3-1.546s3,1.403,3,3.092c0,1.047-1,2.061-1,2.061l-4.494,4.632	c-0.279,0.288-0.733,0.288-1.012,0L21,25.152c0,0-1-1.015-1-2.061C20,21.403,21.343,20,23,20S26,21.546,26,21.546z"/></svg>