<svg xmlns="http://www.w3.org/2000/svg" viewBox="0 0 48 48"><path fill="#e3a600" d="M24,43H8c-1.105,0-2-0.895-2-2V25h18V43z"/><path fill="#c48c00" d="M40,43H24V25h18v16C42,42.105,41.105,43,40,43z"/><polygon fill="#e8a300" points="42,26 24,26 24,6.209 42,19.614"/><polygon fill="#fec730" points="6,26 24,26 24,7 6,20.699"/><path fill="#633412" d="M12.5,14h5c0.552,0,1,0.448,1,1l0,0c0,0.552-0.448,1-1,1h-5c-0.552,0-1-0.448-1-1l0,0	C11.5,14.448,11.948,14,12.5,14z"/><path fill="#633412" d="M30.5,14h5c0.552,0,1,0.448,1,1l0,0c0,0.552-0.448,1-1,1h-5c-0.552,0-1-0.448-1-1l0,0	C29.5,14.448,29.948,14,30.5,14z"/><path d="M24,4c-0.474,0-0.948,0.168-1.326,0.503l-5.359,4.811L6,20v5.39L24,9.428	L42,25.39V20L30.685,9.314l-5.359-4.811C24.948,4.168,24.474,4,24,4z" opacity=".05"/><path d="M24,3c-0.474,0-0.948,0.167-1.326,0.5l-5.359,4.784L6,18.909v5.359	L24,8.397l18,15.871v-5.359L30.685,8.284L25.326,3.5C24.948,3.167,24.474,3,24,3z" opacity=".07"/><linearGradient id="jL9KFFz6A25e1tfmx4qOqa" x1="3.17" x2="44.83" y1="12.499" y2="12.499" gradientUnits="userSpaceOnUse"><stop offset="0" stop-color="#d43a02"/><stop offset="1" stop-color="#b9360c"/></linearGradient><path fill="url(#jL9KFFz6A25e1tfmx4qOqa)" d="M44.495,19.507L25.326,2.503C24.948,2.168,24.474,2,24,2s-0.948,0.168-1.326,0.503	L3.505,19.507c-0.42,0.374-0.449,1.02-0.064,1.43l1.636,1.745c0.369,0.394,0.984,0.424,1.39,0.067L24,7.428L41.533,22.75	c0.405,0.356,1.021,0.327,1.39-0.067l1.636-1.745C44.944,20.527,44.915,19.881,44.495,19.507z"/><path fill="#633412" d="M12.5,29h5c0.552,0,1,0.448,1,1l0,0c0,0.552-0.448,1-1,1h-5c-0.552,0-1-0.448-1-1l0,0	C11.5,29.448,11.948,29,12.5,29z"/><path fill="#633412" d="M30.5,29h5c0.552,0,1,0.448,1,1l0,0c0,0.552-0.448,1-1,1h-5c-0.552,0-1-0.448-1-1l0,0	C29.5,29.448,29.948,29,30.5,29z"/></svg>