<svg xmlns="http://www.w3.org/2000/svg" viewBox="0 0 48 48"><linearGradient id="xP4jJhqxADelRGhxck3nNa" x1="14" x2="34" y1="41.5" y2="41.5" gradientUnits="userSpaceOnUse"><stop offset="0" stop-color="#4b4b4b"/><stop offset="1" stop-color="#3b3b3b"/></linearGradient><path fill="url(#xP4jJhqxADelRGhxck3nNa)" d="M14,37v5.143C14,44.273,18.477,46,24,46s10-1.727,10-3.857V37H14z"/><linearGradient id="xP4jJhqxADelRGhxck3nNb" x1="28.418" x2="19.414" y1="35.303" y2="18.724" gradientUnits="userSpaceOnUse"><stop offset="0" stop-color="#455a64"/><stop offset="1" stop-color="#889097"/></linearGradient><path fill="url(#xP4jJhqxADelRGhxck3nNb)" d="M11,19v16c0,2.209,5.82,4,13,4s13-1.791,13-4V19H11z"/><linearGradient id="xP4jJhqxADelRGhxck3nNc" x1="25.121" x2="6.867" y1="19.345" y2="13.734" gradientUnits="userSpaceOnUse"><stop offset="0" stop-color="#455a64"/><stop offset="1" stop-color="#889097"/></linearGradient><ellipse cx="24" cy="19" fill="url(#xP4jJhqxADelRGhxck3nNc)" rx="13" ry="4"/><linearGradient id="xP4jJhqxADelRGhxck3nNd" x1="13" x2="35" y1="17.5" y2="17.5" gradientUnits="userSpaceOnUse"><stop offset="0" stop-color="#4b4b4b"/><stop offset="1" stop-color="#3b3b3b"/></linearGradient><path fill="url(#xP4jJhqxADelRGhxck3nNd)" d="M13,14v4c0,1.657,4.925,3,11,3s11-1.343,11-3v-4H13z"/><linearGradient id="xP4jJhqxADelRGhxck3nNe" x1="30.766" x2="14.332" y1="17.011" y2="1.996" gradientUnits="userSpaceOnUse"><stop offset="0" stop-color="#455a64"/><stop offset="1" stop-color="#889097"/></linearGradient><path fill="url(#xP4jJhqxADelRGhxck3nNe)" d="M11,7v7c0,2.209,5.82,4,13,4s13-1.791,13-4V7H11z"/><linearGradient id="xP4jJhqxADelRGhxck3nNf" x1="16.664" x2="31.742" y1="1.298" y2="13.017" gradientUnits="userSpaceOnUse"><stop offset="0" stop-color="#4b4b4b"/><stop offset="1" stop-color="#3b3b3b"/></linearGradient><ellipse cx="24" cy="7" fill="url(#xP4jJhqxADelRGhxck3nNf)" rx="13" ry="4"/><radialGradient id="xP4jJhqxADelRGhxck3nNg" cx="18.088" cy="4.311" r="13.937" gradientTransform="matrix(.7692 0 0 .5243 5.538 2.56)" gradientUnits="userSpaceOnUse"><stop offset="0" stop-color="#bd8af5"/><stop offset=".137" stop-color="#b88bf5"/><stop offset=".309" stop-color="#a88ff3"/><stop offset=".499" stop-color="#8f96f2"/><stop offset=".702" stop-color="#6b9eef"/><stop offset=".913" stop-color="#3eaaec"/><stop offset="1" stop-color="#29afea"/></radialGradient><ellipse cx="24" cy="7.5" fill="url(#xP4jJhqxADelRGhxck3nNg)" rx="10" ry="2.5"/><linearGradient id="xP4jJhqxADelRGhxck3nNh" x1="22.762" x2="24.094" y1="28.329" y2="33.149" gradientUnits="userSpaceOnUse"><stop offset="0" stop-color="#4b4b4b"/><stop offset="1" stop-color="#3b3b3b"/></linearGradient><path fill="url(#xP4jJhqxADelRGhxck3nNh)" d="M23.5,36L23.5,36c-1.381,0-2.5-1.119-2.5-2.5v-5c0-1.381,1.119-2.5,2.5-2.5h0 c1.381,0,2.5,1.119,2.5,2.5v5C26,34.881,24.881,36,23.5,36z"/></svg>