<svg xmlns="http://www.w3.org/2000/svg" xmlns:xlink="http://www.w3.org/1999/xlink" data-name="Слой 1" viewBox="0 0 48 48"><defs><linearGradient id="IMMLJvOTGP_qr0iYEsaMUb" x1="26.306" x2="29.142" y1="43.835" y2="32.193" data-name="Безымянный градиент 123" gradientUnits="userSpaceOnUse"><stop offset="0" stop-color="#f44f5a"/><stop offset=".443" stop-color="#ee3d4a"/><stop offset="1" stop-color="#e52030"/></linearGradient><linearGradient id="IMMLJvOTGP_qr0iYEsaMUa" x1="29" x2="29" y1="2.283" y2="22.033" data-name="Безымянный градиент 102" gradientUnits="userSpaceOnUse"><stop offset="0" stop-color="#f5b967"/><stop offset="1" stop-color="#eba84b"/></linearGradient><linearGradient id="IMMLJvOTGP_qr0iYEsaMUc" x1="11.696" x2="14.924" y1="12.364" y2="24.739" xlink:href="#IMMLJvOTGP_qr0iYEsaMUa"/><linearGradient id="IMMLJvOTGP_qr0iYEsaMUd" x1="14.41" x2="17.247" y1="40.936" y2="29.294" xlink:href="#IMMLJvOTGP_qr0iYEsaMUb"/><linearGradient id="IMMLJvOTGP_qr0iYEsaMUe" x1="-4.685" x2="8.28" y1="24.978" y2="24.978" xlink:href="#IMMLJvOTGP_qr0iYEsaMUb"/><linearGradient id="IMMLJvOTGP_qr0iYEsaMUf" x1="26.201" x2="26.201" y1="11.674" y2="46.605" data-name="Безымянный градиент 112" gradientUnits="userSpaceOnUse"><stop offset="0" stop-color="#33c481"/><stop offset="1" stop-color="#21a366"/></linearGradient></defs><path fill="#b31523" d="M28.37839,36.36029,31,32h3l-.35559,7.61417a.5.5,0,0,1-.75514.30731L28.4816,37.1166A.5.5,0,0,1,28.37839,36.36029Z"/><path fill="url(#IMMLJvOTGP_qr0iYEsaMUb)" d="M25.12839,36.36029,28.98318,32h3l-1.58877,7.61417a.5.5,0,0,1-.75514.30731L25.2316,37.1166A.5.5,0,0,1,25.12839,36.36029Z"/><ellipse cx="29" cy="18.5" fill="url(#IMMLJvOTGP_qr0iYEsaMUa)" rx="9" ry="9.5"/><path fill="url(#IMMLJvOTGP_qr0iYEsaMUc)" d="M18,20c0-1-1.79086-3-4-3s-4,2.66813-4,5,1.79086,3.44444,4,3.44444S18,24,18,20Z"/><path fill="#d97218" d="M22.55469,8.168A1,1,0,1,0,21.44531,9.832C24,11.53516,24,14.3877,24,18a1,1,0,0,0,2,0C26,14.125,26,10.46484,22.55469,8.168Z"/><path fill="#d97218" d="M27.3999,6.2002a.999.999,0,0,0-.1997,1.39941c2.6621,3.5498.85644,10.06152.83789,10.12695a.99992.99992,0,0,0,1.92334.54785c.0874-.30468,2.09912-7.52734-1.16163-11.874A1.00021,1.00021,0,0,0,27.3999,6.2002Z"/><path fill="#d97218" d="M17.65137,12.22461l-.13672-.082a1,1,0,0,0-1.0293,1.71484l.14209.085C17.88867,14.69434,20,15.95215,20,19a1,1,0,0,0,2,0A7.65165,7.65165,0,0,0,17.65137,12.22461Z"/><path fill="#d97218" d="M40.99658,9.917A.9871.9871,0,0,0,39.917,9.00391a.99942.99942,0,0,0-.91357,1.0791c.227,2.72558-.91651,5.85156-2.60352,7.11719a.9999.9999,0,1,0,1.2002,1.5996C39.81982,17.13574,41.27979,13.31641,40.99658,9.917Z"/><path fill="#d97218" d="M34.89453,6.55273a1.00012,1.00012,0,1,0-1.78906.89454c1.75732,3.51464.68457,8.13086-.85791,9.89453a.9997.9997,0,1,0,1.50488,1.3164C35.67188,16.46484,37.13672,11.03711,34.89453,6.55273Z"/><path fill="url(#IMMLJvOTGP_qr0iYEsaMUd)" d="M12,36.08746v-4.581a.90219.90219,0,0,1,.76964-.89722c1.06723-.15465,2.86672-.67615,2.86672-2.43481H22c0,4.90364-4,8.40727-8.99822,8.8223A.919.919,0,0,1,12,36.08746Z"/><path fill="url(#IMMLJvOTGP_qr0iYEsaMUe)" d="M9,26.75V23.20411L2.70714,17.274A1.01122,1.01122,0,0,0,1,17.93089v4.28243a1.70044,1.70044,0,0,0,.83366,1.43927C2.38248,23.99308,3,24.48567,3,24.97827s-.61756.98518-1.16635,1.32567A1.70046,1.70046,0,0,0,1,27.74322v4.28242a1.01122,1.01122,0,0,0,1.7071.65692Z"/><path fill="url(#IMMLJvOTGP_qr0iYEsaMUf)" d="M46,27.55005a18.653,18.653,0,0,1-6.5,4.2,37.29325,37.29325,0,0,1-7.21,1.95,20.2306,20.2306,0,0,1-7.48-.1499,23.53687,23.53687,0,0,1-3.19-.88013c-1.62-.56994-3.24-1.26-4.87-1.86987-3.25-1.23-6.5-2.18-9.75-3.74L6.54,26.84a1.98731,1.98731,0,0,1-.93-2.67A2.04262,2.04262,0,0,1,7,23.09c1.62-.34,3.25-.77991,4.88-1.28992.37-.11011.74-.23,1.12-.3501a37.03062,37.03062,0,0,0,3.75-1.37c2.39-1.02991,4.68-2.2699,7.14-3.11A18.15151,18.15151,0,0,1,29,16.03c.59-.02,1.19-.01,1.78.02A27.84559,27.84559,0,0,1,42.18,19.71a12.24818,12.24818,0,0,1,3.91,2.93994A3.6273,3.6273,0,0,1,46,27.55005Z"/><circle cx="40" cy="24" r="1" fill="#343434"/><path fill="#21a366" d="M29.1842,31.23259l6.0216-2.012A1.16263,1.16263,0,0,0,36,28.11791h0a1.16264,1.16264,0,0,0-1.16264-1.16264H29a1,1,0,0,0-1,1V30.2497A1,1,0,0,0,29.1842,31.23259Z"/><path fill="#21a366" d="M29,16.03V23a2,2,0,0,1-4,0,1,1,0,0,0-2,0v1a2.01477,2.01477,0,0,1-2,2,2.00591,2.00591,0,0,1-2-2V23a1,1,0,0,0-2,0,2.01477,2.01477,0,0,1-2,2,2.00591,2.00591,0,0,1-2-2V21.45a37.03062,37.03062,0,0,0,3.75-1.37c2.39-1.02991,4.68-2.2699,7.14-3.11A18.15151,18.15151,0,0,1,29,16.03Z"/></svg>