<svg xmlns="http://www.w3.org/2000/svg" xmlns:xlink="http://www.w3.org/1999/xlink" data-name="Слой 1" viewBox="0 0 48 48"><defs><linearGradient id="yGLoBVPbsO_w6BiVZOXwPa" x1="7.364" x2="13.716" y1="7.364" y2="13.716" data-name="Безымянный градиент 4" gradientUnits="userSpaceOnUse"><stop offset="0" stop-color="#889097"/><stop offset="1" stop-color="#64717c"/></linearGradient><linearGradient id="yGLoBVPbsO_w6BiVZOXwPc" x1="41.386" x2="34.614" y1="6.614" y2="13.386" xlink:href="#yGLoBVPbsO_w6BiVZOXwPa"/><linearGradient id="yGLoBVPbsO_w6BiVZOXwPb" x1="24" x2="24" y1="26.018" y2="34.964" data-name="Безымянный градиент 5" gradientUnits="userSpaceOnUse"><stop offset="0" stop-color="#4c4c4c"/><stop offset="1" stop-color="#343434"/></linearGradient><linearGradient id="yGLoBVPbsO_w6BiVZOXwPd" x1="15.977" x2="15.977" y1="10.136" y2="32.722" gradientTransform="rotate(45 15.977 26.023)" xlink:href="#yGLoBVPbsO_w6BiVZOXwPa"/><linearGradient id="yGLoBVPbsO_w6BiVZOXwPe" x1="32.023" x2="32.023" y1="10.136" y2="32.722" gradientTransform="rotate(45 32.023 26.023)" xlink:href="#yGLoBVPbsO_w6BiVZOXwPa"/><linearGradient id="yGLoBVPbsO_w6BiVZOXwPf" x1="31" x2="31" y1="22.009" y2="26.482" xlink:href="#yGLoBVPbsO_w6BiVZOXwPb"/><linearGradient id="yGLoBVPbsO_w6BiVZOXwPg" x1="17" x2="17" y1="22.009" y2="26.482" xlink:href="#yGLoBVPbsO_w6BiVZOXwPb"/><linearGradient id="yGLoBVPbsO_w6BiVZOXwPh" x1="33.119" x2="35.593" y1="-1087.69" y2="-1094.487" data-name="Безымянный градиент 123" gradientTransform="matrix(1 0 0 -1 0 -1052)" gradientUnits="userSpaceOnUse"><stop offset="0" stop-color="#f44f5a"/><stop offset=".443" stop-color="#ee3d4a"/><stop offset="1" stop-color="#e52030"/></linearGradient></defs><circle cx="12" cy="12" r="5" fill="url(#yGLoBVPbsO_w6BiVZOXwPa)"/><circle cx="36" cy="12" r="5" fill="url(#yGLoBVPbsO_w6BiVZOXwPc)"/><path fill="#cdd2d6" d="M42,30.5769C42,20.423,33.9411,9,24,9S6,20.423,6,30.5769c0,3.82417,2.96617,7.20274,7.51508,9.27294,2.21441,1.00777,4.47113,1.944,6.59279,3.13475a7.96709,7.96709,0,0,0,7.78426,0c2.12166-1.19072,4.37838-2.127,6.59279-3.13475C39.03383,37.77964,42,34.40107,42,30.5769Z"/><path fill="url(#yGLoBVPbsO_w6BiVZOXwPb)" d="M21,31.333C21,32.23318,22.8,34,24,34s3-1.60014,3-2.667C27,30.00735,25.65684,30,24,30S21,30.00735,21,31.333Z"/><ellipse cx="15.977" cy="26.023" fill="url(#yGLoBVPbsO_w6BiVZOXwPd)" rx="6.894" ry="5" transform="rotate(-45 15.977 26.023)"/><ellipse cx="32.023" cy="26.023" fill="url(#yGLoBVPbsO_w6BiVZOXwPe)" rx="5" ry="6.894" transform="rotate(-45 32.023 26.023)"/><path fill="url(#yGLoBVPbsO_w6BiVZOXwPf)" d="M31,24a2,2,0,0,0-2,2h4A2,2,0,0,0,31,24Z"/><path fill="url(#yGLoBVPbsO_w6BiVZOXwPg)" d="M17,24a2,2,0,0,0-2,2h4A2,2,0,0,0,17,24Z"/><path fill="url(#yGLoBVPbsO_w6BiVZOXwPh)" d="M34,37.05026A3.08134,3.08134,0,0,1,36,36a2.06029,2.06029,0,0,1,2,2.10053c0,1.97429-2.9459,4.22865-3.78152,4.8282a.3705.3705,0,0,1-.437,0C32.9459,42.32918,30,40.07482,30,38.10053A2.06029,2.06029,0,0,1,32,36,3.08134,3.08134,0,0,1,34,37.05026Z"/><path d="M36,35a3.50467,3.50467,0,0,0-2,.71A3.50467,3.50467,0,0,0,32,35a3.057,3.057,0,0,0-3,3.1,5.52239,5.52239,0,0,0,1.71,3.45c.15-.07.31-.14.46-.21.16-.08.33-.15.49-.23A4.88761,4.88761,0,0,1,30,38.1,2.0611,2.0611,0,0,1,32,36a3.0961,3.0961,0,0,1,2,1.05A3.0961,3.0961,0,0,1,36,36a2.03537,2.03537,0,0,1,1.97,1.76A3.64754,3.64754,0,0,0,38.41,37.4a3.23027,3.23027,0,0,0,.4-.35A3.00239,3.00239,0,0,0,36,35Z" opacity=".05"/><path d="M36,35.5a3.22215,3.22215,0,0,0-2,.85,3.22215,3.22215,0,0,0-2-.85,2.5557,2.5557,0,0,0-2.5,2.6,5.196,5.196,0,0,0,1.67,3.24c.16-.08.33-.15.49-.23A4.88761,4.88761,0,0,1,30,38.1,2.0611,2.0611,0,0,1,32,36a3.0961,3.0961,0,0,1,2,1.05A3.0961,3.0961,0,0,1,36,36a2.03537,2.03537,0,0,1,1.97,1.76A3.64754,3.64754,0,0,0,38.41,37.4,2.53034,2.53034,0,0,0,36,35.5Z" opacity=".07"/><path fill="#343434" d="M25.54871,39.44788A1.70573,1.70573,0,0,0,26.5,38c0-1.252-1.12109-2-3-2a.5.5,0,0,0,0,1c.60156,0,2,.09766,2,1,0,.55371-1.09375,1-2,1a.5.5,0,0,0,0,1c.60156,0,2,.09766,2,1s-1.39844,1-2,1a.5.5,0,0,0,0,1c1.87891,0,3-.748,3-2A1.71831,1.71831,0,0,0,25.54871,39.44788Z"/></svg>