<svg xmlns="http://www.w3.org/2000/svg" viewBox="0 0 48 48"><linearGradient id="4SZycE1EPntPg_vaQEuHCa" x1="24" x2="24" y1="10.282" y2="42.282" gradientUnits="userSpaceOnUse"><stop offset="0" stop-color="#fba62d"/><stop offset=".174" stop-color="#fc8e2c"/><stop offset=".548" stop-color="#fe602a"/><stop offset=".835" stop-color="#ff4329"/><stop offset="1" stop-color="#ff3829"/></linearGradient><path fill="url(#4SZycE1EPntPg_vaQEuHCa)" d="M40,42H8c-1.1,0-2-0.9-2-2V8c0-1.1,0.9-2,2-2h32c1.1,0,2,0.9,2,2v32C42,41.1,41.1,42,40,42z"/><linearGradient id="4SZycE1EPntPg_vaQEuHCb" x1="5.712" x2="26.001" y1="6.137" y2="26.426" gradientUnits="userSpaceOnUse"><stop offset="0" stop-color="#faa53d"/><stop offset=".438" stop-color="#e17a2f"/><stop offset=".795" stop-color="#d15d26"/><stop offset="1" stop-color="#cb5223"/></linearGradient><path fill="url(#4SZycE1EPntPg_vaQEuHCb)" d="M30,30c8.847-8.848-3.981-19-3.981-19l-5.005-5H8C6.9,6,6,6.9,6,8v13.967l4,4	C10,25.967,21.153,38.848,30,30z"/><path fill="#fff" d="M26.019,11c11.429,7.698,7.732,16.187,7.732,16.187s3.25,3.634,1.936,6.813	c0,0-1.34-2.226-3.588-2.226c-2.166,0-3.44,2.226-7.8,2.226C14.591,34,10,25.967,10,25.967c8.747,5.7,14.719,1.663,14.719,1.663	C20.778,25.364,12,14,12,14c7.299,6.155,11,8,11,8c-1.882-1.542-8-9-8-9c4.224,4.238,13.307,10.378,13.307,10.378	C30.691,16.834,26.019,11,26.019,11z"/></svg>