<svg xmlns="http://www.w3.org/2000/svg" viewBox="0 0 48 48"><linearGradient id="gkwaoLk_wj1JBOikx5FZba" x1="39.085" x2="24.799" y1="11.698" y2="11.698" gradientUnits="userSpaceOnUse"><stop offset="0" stop-color="#007ccf"/><stop offset=".317" stop-color="#0074c7"/><stop offset=".818" stop-color="#005eb0"/><stop offset="1" stop-color="#0055a6"/></linearGradient><path fill="url(#gkwaoLk_wj1JBOikx5FZba)" d="M40.78,18.536l0.465-0.236c0.948-0.482,1.369-1.629,0.928-2.597	C38.082,6.708,27.876,1.909,18.167,4.869C11.784,6.816,7.084,11.666,5.074,17.531l5.702,1.87c1.421-4.074,4.699-7.438,9.141-8.793	c6.843-2.087,14.227,1.254,18.311,7.265C38.794,18.705,39.883,18.992,40.78,18.536z"/><linearGradient id="gkwaoLk_wj1JBOikx5FZbb" x1="6.574" x2="22.747" y1="36.301" y2="36.301" gradientUnits="userSpaceOnUse"><stop offset="0" stop-color="#007ccf"/><stop offset=".317" stop-color="#0074c7"/><stop offset=".818" stop-color="#005eb0"/><stop offset="1" stop-color="#0055a6"/></linearGradient><path fill="url(#gkwaoLk_wj1JBOikx5FZbb)" d="M7.22,29.464L6.754,29.7c-0.948,0.482-1.369,1.629-0.928,2.597	c4.091,8.994,14.298,13.794,24.006,10.833c6.383-1.947,11.083-6.797,13.093-12.662l-5.702-1.87	c-1.421,4.074-4.699,7.438-9.141,8.793c-6.843,2.087-14.227-1.254-18.311-7.265C9.206,29.295,8.117,29.008,7.22,29.464z"/><linearGradient id="gkwaoLk_wj1JBOikx5FZbc" x1="12.228" x2="35.56" y1="41.214" y2="7.097" gradientTransform="rotate(45.001 24 24)" gradientUnits="userSpaceOnUse"><stop offset="0" stop-color="#32bdef"/><stop offset="1" stop-color="#1ea2e4"/></linearGradient><path fill="url(#gkwaoLk_wj1JBOikx5FZbc)" d="M14.101,14.1c-1.417,1.417-2.524,3.141-3.231,5.057l2.645,0.863	c0.745,0.243,0.824,1.266,0.126,1.621l-7.015,3.566c-0.615,0.313-1.367,0.067-1.679-0.548l-3.566-7.015	c-0.355-0.699,0.312-1.477,1.056-1.235L5.169,17.3C7.926,9.554,15.308,4,24,4c5.523,0,10.522,2.238,14.142,5.858	C38.142,9.858,24,4.201,14.101,14.1z M46.621,30.356l-3.566-7.015c-0.313-0.615-1.065-0.86-1.679-0.548l-7.015,3.566	c-0.699,0.355-0.619,1.377,0.126,1.621l2.645,0.863c-0.707,1.916-1.814,3.64-3.231,5.057C24,43.799,9.858,38.142,9.858,38.142	C13.478,41.762,18.477,44,23.999,44c8.692,0,16.074-5.554,18.831-13.3l2.734,0.891C46.309,31.835,46.976,31.055,46.621,30.356z"/></svg>