<svg xmlns="http://www.w3.org/2000/svg" viewBox="0 0 48 48"><radialGradient id="tz3moJ16_MBujyUroNV5va" cx="10.489" cy="15.527" r="3.818" gradientUnits="userSpaceOnUse"><stop offset="0" stop-color="#dfe9f2"/><stop offset=".391" stop-color="#d6e0e9"/><stop offset="1" stop-color="#bfc8d1"/></radialGradient><circle cx="12" cy="17" r="2" fill="url(#tz3moJ16_MBujyUroNV5va)"/><radialGradient id="tz3moJ16_MBujyUroNV5vb" cx="10.832" cy="6.772" r="5.044" gradientUnits="userSpaceOnUse"><stop offset="0" stop-color="#dfe9f2"/><stop offset=".391" stop-color="#d6e0e9"/><stop offset="1" stop-color="#bfc8d1"/></radialGradient><path fill="url(#tz3moJ16_MBujyUroNV5vb)" d="M12.979,6.979c-1.105-0.001-2,0.894-2.001,1.999c-0.001,1.105,0.894,2,1.999,2.001	c0.001,0,0.001,0,0.002,0c1.105,0.001,2-0.894,2.001-1.999c0.001-1.105-0.894-2-1.999-2.001C12.981,6.979,12.98,6.979,12.979,6.979z"/><radialGradient id="tz3moJ16_MBujyUroNV5vc" cx="17.924" cy="3.739" r="5.332" gradientUnits="userSpaceOnUse"><stop offset="0" stop-color="#dfe9f2"/><stop offset=".391" stop-color="#d6e0e9"/><stop offset="1" stop-color="#bfc8d1"/></radialGradient><circle cx="20" cy="5.75" r="2" fill="url(#tz3moJ16_MBujyUroNV5vc)"/><radialGradient id="tz3moJ16_MBujyUroNV5vd" cx="21.201" cy="5.5" r="5.332" gradientUnits="userSpaceOnUse"><stop offset="0" stop-color="#dfe9f2"/><stop offset=".391" stop-color="#d6e0e9"/><stop offset="1" stop-color="#bfc8d1"/></radialGradient><path fill="url(#tz3moJ16_MBujyUroNV5vd)" d="M23.5,5.75c-1.105,0-2,0.895-2,2s0.895,2,2,2s2-0.895,2-2S24.605,5.75,23.5,5.75z"/><radialGradient id="tz3moJ16_MBujyUroNV5ve" cx="23.5" cy="8.924" r="5.189" gradientUnits="userSpaceOnUse"><stop offset="0" stop-color="#dfe9f2"/><stop offset=".391" stop-color="#d6e0e9"/><stop offset="1" stop-color="#bfc8d1"/></radialGradient><circle cx="25.811" cy="11.028" r="2" fill="url(#tz3moJ16_MBujyUroNV5ve)"/><radialGradient id="tz3moJ16_MBujyUroNV5vf" cx="23.696" cy="24.723" r="6.449" gradientUnits="userSpaceOnUse"><stop offset="0" stop-color="#dfe9f2"/><stop offset=".391" stop-color="#d6e0e9"/><stop offset="1" stop-color="#bfc8d1"/></radialGradient><circle cx="26" cy="27.028" r="2" fill="url(#tz3moJ16_MBujyUroNV5vf)"/><radialGradient id="tz3moJ16_MBujyUroNV5vg" cx="23.647" cy="17.044" r="5.987" gradientUnits="userSpaceOnUse"><stop offset="0" stop-color="#dfe9f2"/><stop offset=".391" stop-color="#d6e0e9"/><stop offset="1" stop-color="#bfc8d1"/></radialGradient><circle cx="26" cy="19.028" r="2" fill="url(#tz3moJ16_MBujyUroNV5vg)"/><radialGradient id="tz3moJ16_MBujyUroNV5vh" cx="23.94" cy="29.027" r="6.316" gradientUnits="userSpaceOnUse"><stop offset="0" stop-color="#dfe9f2"/><stop offset=".391" stop-color="#d6e0e9"/><stop offset="1" stop-color="#bfc8d1"/></radialGradient><path fill="url(#tz3moJ16_MBujyUroNV5vh)" d="M26,29.028c-1.105-0.001-2.001,0.893-2.002,1.998c-0.001,1.105,0.893,2.001,1.998,2.002	c0.001,0,0.003,0,0.004,0c1.105,0.001,2.001-0.893,2.002-1.998c0.001-1.105-0.893-2.001-1.998-2.002	C26.003,29.028,26.001,29.028,26,29.028z"/><radialGradient id="tz3moJ16_MBujyUroNV5vi" cx="24.429" cy="32.842" r="6.16" gradientUnits="userSpaceOnUse"><stop offset="0" stop-color="#dfe9f2"/><stop offset=".391" stop-color="#d6e0e9"/><stop offset="1" stop-color="#bfc8d1"/></radialGradient><circle cx="26.816" cy="34.956" r="2" fill="url(#tz3moJ16_MBujyUroNV5vi)"/><radialGradient id="tz3moJ16_MBujyUroNV5vj" cx="35.141" cy="34.995" r="6.326" gradientUnits="userSpaceOnUse"><stop offset="0" stop-color="#dfe9f2"/><stop offset=".391" stop-color="#d6e0e9"/><stop offset="1" stop-color="#bfc8d1"/></radialGradient><circle cx="37.27" cy="37.219" r="2" fill="url(#tz3moJ16_MBujyUroNV5vj)"/><radialGradient id="tz3moJ16_MBujyUroNV5vk" cx="37.734" cy="28.049" r="6.449" gradientUnits="userSpaceOnUse"><stop offset="0" stop-color="#dfe9f2"/><stop offset=".391" stop-color="#d6e0e9"/><stop offset="1" stop-color="#bfc8d1"/></radialGradient><circle cx="40" cy="29.994" r="2" fill="url(#tz3moJ16_MBujyUroNV5vk)"/><radialGradient id="tz3moJ16_MBujyUroNV5vl" cx="37.734" cy="23.94" r="6.705" gradientUnits="userSpaceOnUse"><stop offset="0" stop-color="#dfe9f2"/><stop offset=".391" stop-color="#d6e0e9"/><stop offset="1" stop-color="#bfc8d1"/></radialGradient><circle cx="40" cy="25.994" r="2" fill="url(#tz3moJ16_MBujyUroNV5vl)"/><radialGradient id="tz3moJ16_MBujyUroNV5vm" cx="37.783" cy="20.027" r="6.42" gradientUnits="userSpaceOnUse"><stop offset="0" stop-color="#dfe9f2"/><stop offset=".391" stop-color="#d6e0e9"/><stop offset="1" stop-color="#bfc8d1"/></radialGradient><circle cx="40" cy="21.994" r="2" fill="url(#tz3moJ16_MBujyUroNV5vm)"/><radialGradient id="tz3moJ16_MBujyUroNV5vn" cx="37.929" cy="16.065" r="6.068" gradientUnits="userSpaceOnUse"><stop offset="0" stop-color="#ffd869"/><stop offset="1" stop-color="#fec52b"/></radialGradient><circle cx="40" cy="17.994" r="2" fill="url(#tz3moJ16_MBujyUroNV5vn)"/><radialGradient id="tz3moJ16_MBujyUroNV5vo" cx="37.587" cy="11.908" r="6.613" gradientUnits="userSpaceOnUse"><stop offset="0" stop-color="#dfe9f2"/><stop offset=".391" stop-color="#d6e0e9"/><stop offset="1" stop-color="#bfc8d1"/></radialGradient><circle cx="40" cy="13.994" r="2" fill="url(#tz3moJ16_MBujyUroNV5vo)"/><radialGradient id="tz3moJ16_MBujyUroNV5vp" cx="37.831" cy="7.946" r="6.862" gradientUnits="userSpaceOnUse"><stop offset="0" stop-color="#dfe9f2"/><stop offset=".391" stop-color="#d6e0e9"/><stop offset="1" stop-color="#bfc8d1"/></radialGradient><circle cx="40" cy="9.994" r="2" fill="url(#tz3moJ16_MBujyUroNV5vp)"/><radialGradient id="tz3moJ16_MBujyUroNV5vq" cx="31.326" cy="36.364" r="5.947" gradientUnits="userSpaceOnUse"><stop offset="0" stop-color="#dfe9f2"/><stop offset=".391" stop-color="#d6e0e9"/><stop offset="1" stop-color="#bfc8d1"/></radialGradient><path fill="url(#tz3moJ16_MBujyUroNV5vq)" d="M33.545,36.643c-1.105,0-2,0.895-2,2s0.895,2,2,2s2-0.895,2-2S34.65,36.643,33.545,36.643z"/><radialGradient id="tz3moJ16_MBujyUroNV5vr" cx="9.902" cy="11.027" r="4.451" gradientUnits="userSpaceOnUse"><stop offset="0" stop-color="#ffd869"/><stop offset="1" stop-color="#fec52b"/></radialGradient><circle cx="12" cy="13" r="2" fill="url(#tz3moJ16_MBujyUroNV5vr)"/><radialGradient id="tz3moJ16_MBujyUroNV5vs" cx="13.962" cy="4.13" r="5.403" gradientUnits="userSpaceOnUse"><stop offset="0" stop-color="#ffd869"/><stop offset="1" stop-color="#fec52b"/></radialGradient><circle cx="16" cy="6.223" r="2" fill="url(#tz3moJ16_MBujyUroNV5vs)"/><radialGradient id="tz3moJ16_MBujyUroNV5vt" cx="23.647" cy="13.179" r="5.35" gradientUnits="userSpaceOnUse"><stop offset="0" stop-color="#ffd869"/><stop offset="1" stop-color="#fec52b"/></radialGradient><circle cx="26" cy="15.028" r="2" fill="url(#tz3moJ16_MBujyUroNV5vt)"/><radialGradient id="tz3moJ16_MBujyUroNV5vu" cx="37.44" cy="32.06" r="6.173" gradientUnits="userSpaceOnUse"><stop offset="0" stop-color="#ffd869"/><stop offset="1" stop-color="#fec52b"/></radialGradient><circle cx="39.62" cy="33.994" r="2" fill="url(#tz3moJ16_MBujyUroNV5vu)"/><radialGradient id="tz3moJ16_MBujyUroNV5vv" cx="27.413" cy="35.484" r="6.032" gradientUnits="userSpaceOnUse"><stop offset="0" stop-color="#ffd869"/><stop offset="1" stop-color="#fec52b"/></radialGradient><circle cx="29.632" cy="37.789" r="2" fill="url(#tz3moJ16_MBujyUroNV5vv)"/><radialGradient id="tz3moJ16_MBujyUroNV5vw" cx="23.794" cy="21.201" r="5.58" gradientUnits="userSpaceOnUse"><stop offset="0" stop-color="#ffd869"/><stop offset="1" stop-color="#fec52b"/></radialGradient><circle cx="26" cy="23.028" r="2" fill="url(#tz3moJ16_MBujyUroNV5vw)"/><linearGradient id="tz3moJ16_MBujyUroNV5vx" x1="5.519" x2="18.352" y1="9.194" y2="44.453" gradientUnits="userSpaceOnUse"><stop offset="0" stop-color="#dfe9f2"/><stop offset=".391" stop-color="#d6e0e9"/><stop offset="1" stop-color="#bfc8d1"/></linearGradient><path fill="url(#tz3moJ16_MBujyUroNV5vx)" d="M20,24h-5v-4c0-0.552-0.448-1-1-1h-4c-0.552,0-1,0.448-1,1v4H4c-0.552,0-1,0.448-1,1v4	c0,0.552,0.448,1,1,1h5v11c0,0.552,0.448,1,1,1h4c0.552,0,1-0.448,1-1V30h5c0.552,0,1-0.448,1-1v-4C21,24.448,20.552,24,20,24z"/><linearGradient id="tz3moJ16_MBujyUroNV5vy" x1="12" x2="12" y1="21.804" y2="57.302" gradientUnits="userSpaceOnUse"><stop offset="0" stop-color="#dfe9f2"/><stop offset="1" stop-color="#d6e0e9"/></linearGradient><path fill="url(#tz3moJ16_MBujyUroNV5vy)" d="M11,39.5V28H5.5C5.224,28,5,27.776,5,27.5v-1C5,26.224,5.224,26,5.5,26H11v-4.5	c0-0.276,0.224-0.5,0.5-0.5h1c0.276,0,0.5,0.224,0.5,0.5V26h5.5c0.276,0,0.5,0.224,0.5,0.5v1c0,0.276-0.224,0.5-0.5,0.5H13v11.5	c0,0.276-0.224,0.5-0.5,0.5h-1C11.224,40,11,39.776,11,39.5z"/></svg>