<svg xmlns="http://www.w3.org/2000/svg" data-name="Слой 1" viewBox="0 0 48 48"><defs><linearGradient id="c9R81mWDGIkb8RjLCSMnza" x1="6.13" x2="42.834" y1="6.13" y2="42.834" data-name="Безымянный градиент 90" gradientTransform="rotate(-180 24 24)" gradientUnits="userSpaceOnUse"><stop offset="0" stop-color="#0176d0"/><stop offset="1" stop-color="#16538c"/></linearGradient></defs><rect width="36" height="36" x="6" y="6" fill="url(#c9R81mWDGIkb8RjLCSMnza)" rx="2" transform="rotate(180 24 24)"/><path style="isolation:isolate" d="M32.46405,33.094l-.533-2.468a1.6022,1.6022,0,0,0-.791-1.061,1.62314,1.62314,0,0,0-1.342-.099,8.418,8.418,0,0,1-2.731.507,4.56556,4.56556,0,0,1-3.474-1.333,3.07794,3.07794,0,0,1-.425-.629h6.233a1.58036,1.58036,0,0,0,1.579-1.579V25.265a1.57764,1.57764,0,0,0-.759-1.348,1.57932,1.57932,0,0,0,.759-1.349V21.401a1.58036,1.58036,0,0,0-1.579-1.579h-6.101a3.10424,3.10424,0,0,1,.35-.495,3.97688,3.97688,0,0,1,3.252-1.4,8.36683,8.36683,0,0,1,2.687.492,1.59665,1.59665,0,0,0,2.081-1.13l.63-2.564a1.59614,1.59614,0,0,0-.971-1.876,13.54244,13.54244,0,0,0-4.787-.85,10.969,10.969,0,0,0-8.318,3.685,11.39455,11.39455,0,0,0-2.265,4.139h-.852a1.58036,1.58036,0,0,0-1.579,1.579v1.167a1.58059,1.58059,0,0,0,.759,1.349,1.57764,1.57764,0,0,0-.759,1.348v1.167a1.58036,1.58036,0,0,0,1.579,1.579h.733a9.92182,9.92182,0,0,0,1.851,3.859A10.8339,10.8339,0,0,0,26.47805,36a12.31136,12.31136,0,0,0,5.093-1.114A1.60546,1.60546,0,0,0,32.46405,33.094Z" opacity=".05"/><path style="isolation:isolate" d="M31.97605,33.198l-.534-2.466a1.09431,1.09431,0,0,0-.543-.729,1.12168,1.12168,0,0,0-.929-.068,8.92408,8.92408,0,0,1-2.903.538,5.05517,5.05517,0,0,1-3.849-1.501,4.10542,4.10542,0,0,1-.797-1.46h6.98a1.08017,1.08017,0,0,0,1.079-1.079V25.266a1.08017,1.08017,0,0,0-1.079-1.079h-7.597v-.024c0-.166,0-.341.004-.515h7.593a1.08017,1.08017,0,0,0,1.079-1.079V21.402a1.08017,1.08017,0,0,0-1.079-1.079h-6.887a4.34062,4.34062,0,0,1,.749-1.311,4.45027,4.45027,0,0,1,3.639-1.584,8.87469,8.87469,0,0,1,2.853.52,1.09721,1.09721,0,0,0,1.43-.778l.63-2.564a1.09584,1.09584,0,0,0-.663-1.29,13.28345,13.28345,0,0,0-4.609-.817,10.46719,10.46719,0,0,0-7.939,3.512,10.96752,10.96752,0,0,0-2.269,4.312h-1.227a1.08018,1.08018,0,0,0-1.079,1.079v1.167a1.08018,1.08018,0,0,0,1.079,1.079h.736c-.008.161-.016.322-.016.482v.057h-.721a1.08017,1.08017,0,0,0-1.079,1.079v1.167a1.08017,1.08017,0,0,0,1.079,1.079h1.134a9.57359,9.57359,0,0,0,1.849,4.058,10.33893,10.33893,0,0,0,8.388,3.931,11.80493,11.80493,0,0,0,4.879-1.066A1.11172,1.11172,0,0,0,31.97605,33.198Zm-1.277-16.146Z" opacity=".07"/><path fill="#ffe357" d="M31.48605,33.303a.60978.60978,0,0,1-.342.679A11.29787,11.29787,0,0,1,26.47705,35a9.85409,9.85409,0,0,1-7.989-3.732,9.22659,9.22659,0,0,1-1.833-4.256h-1.548a.57871.57871,0,0,1-.579-.579V25.266a.57871.57871,0,0,1,.579-.579h1.221v-.556c0-.328.033-.655.033-.982h-1.254a.57871.57871,0,0,1-.579-.579V21.403a.57871.57871,0,0,1,.579-.579h1.615a10.56336,10.56336,0,0,1,2.259-4.485A9.91152,9.91152,0,0,1,26.54305,13a12.65745,12.65745,0,0,1,4.431.785.59451.59451,0,0,1,.355.703l-.63,2.564a.59715.59715,0,0,1-.779.425,9.3081,9.3081,0,0,0-3.018-.548,4.98868,4.98868,0,0,0-4.027,1.768,5.40643,5.40643,0,0,0-1.048,2.128h7.573a.57871.57871,0,0,1,.579.579v1.167a.57871.57871,0,0,1-.579.579h-8.064c-.033.328-.033.688-.033,1.015v.524h8.097a.57871.57871,0,0,1,.579.579v1.167a.57871.57871,0,0,1-.579.579h-7.638a5.14383,5.14383,0,0,0,1.081,2.291,5.4793,5.4793,0,0,0,4.222,1.67,9.39661,9.39661,0,0,0,3.075-.568.60659.60659,0,0,1,.811.433Z"/></svg>