<svg xmlns="http://www.w3.org/2000/svg" viewBox="0 0 48 48"><path fill="#6ad7fc" d="M36,14.217V8H12v6.217c0,4.574,3.113,8.562,7.551,9.671L20,24l-0.449,0.112 C15.113,25.222,12,29.209,12,33.783V40h24v-6.217c0-4.574-3.113-8.562-7.551-9.671L28,24l0.449-0.112 C32.887,22.778,36,18.791,36,14.217z"/><linearGradient id="oXK7C7B~oYU5EXBi6qCgCa" x1="11" x2="37" y1="-709.39" y2="-709.39" gradientTransform="matrix(1 0 0 -1 0 -699.89)" gradientUnits="userSpaceOnUse"><stop offset="0" stop-color="#3079d6"/><stop offset="1" stop-color="#297cd2"/></linearGradient><path fill="url(#oXK7C7B~oYU5EXBi6qCgCa)" d="M36,11H12c-0.552,0-1-0.448-1-1V8h26v2C37,10.552,36.552,11,36,11z"/><linearGradient id="oXK7C7B~oYU5EXBi6qCgCb" x1="9" x2="39" y1="-706.39" y2="-706.39" gradientTransform="matrix(1 0 0 -1 0 -699.89)" gradientUnits="userSpaceOnUse"><stop offset="0" stop-color="#42a3f2"/><stop offset="1" stop-color="#42a4eb"/></linearGradient><path fill="url(#oXK7C7B~oYU5EXBi6qCgCb)" d="M38,8H10C9.448,8,9,7.552,9,7V6c0-0.552,0.448-1,1-1h28c0.552,0,1,0.448,1,1v1 C39,7.552,38.552,8,38,8z"/><linearGradient id="oXK7C7B~oYU5EXBi6qCgCc" x1="-603" x2="-577" y1="864.39" y2="864.39" gradientTransform="matrix(-1 0 0 1 -566 -825.89)" gradientUnits="userSpaceOnUse"><stop offset="0" stop-color="#3079d6"/><stop offset="1" stop-color="#297cd2"/></linearGradient><path fill="url(#oXK7C7B~oYU5EXBi6qCgCc)" d="M12,37h24c0.552,0,1,0.448,1,1v2H11v-2C11,37.448,11.448,37,12,37z"/><linearGradient id="oXK7C7B~oYU5EXBi6qCgCd" x1="-605" x2="-575" y1="867.39" y2="867.39" gradientTransform="matrix(-1 0 0 1 -566 -825.89)" gradientUnits="userSpaceOnUse"><stop offset="0" stop-color="#42a3f2"/><stop offset="1" stop-color="#42a4eb"/></linearGradient><path fill="url(#oXK7C7B~oYU5EXBi6qCgCd)" d="M10,40h28c0.552,0,1,0.448,1,1v1c0,0.552-0.448,1-1,1H10c-0.552,0-1-0.448-1-1v-1 C9,40.448,9.448,40,10,40z"/></svg>