<svg xmlns="http://www.w3.org/2000/svg" viewBox="0 0 48 48"><linearGradient id="ig9q7fVuhV8khG~ZGqdc1a" x1="40.088" x2="-3.015" y1="40.088" y2="-3.015" gradientUnits="userSpaceOnUse"><stop offset=".002" stop-color="#454545"/><stop offset=".013" stop-color="#464646"/><stop offset=".875" stop-color="#626262"/><stop offset="1" stop-color="#6d6d6d"/></linearGradient><circle cx="24" cy="24" r="20" fill="url(#ig9q7fVuhV8khG~ZGqdc1a)"/><path fill="#fff" d="M16.328,34.999h-1.13v-2.037h-2.072v2.037H12v-5.002h1.126v1.995h2.072v-1.995h1.13V34.999z"/><path fill="#fff" d="M22.372,34.999h-1.228l-0.356-1.112h-1.779l-0.352,1.112h-1.221l1.821-5.002h1.336L22.372,34.999z M20.53,33.022l-0.537-1.682c-0.04-0.125-0.068-0.275-0.084-0.449h-0.028c-0.012,0.146-0.041,0.291-0.087,0.436l-0.544,1.695H20.53 z"/><path fill="#fff" d="M26.479,34.999H23.5v-5.002h1.126v4.088h1.852V34.999z"/><path fill="#fff" d="M32.06,34.999h-1.228l-0.356-1.112h-1.779l-0.352,1.112h-1.221l1.821-5.002h1.336L32.06,34.999z M30.219,33.022l-0.537-1.682c-0.04-0.125-0.068-0.275-0.084-0.449H29.57c-0.012,0.146-0.041,0.291-0.087,0.436l-0.544,1.695 H30.219z"/><path fill="#fff" d="M35.979,35.001H33v-5.002h1.126v4.088h1.852V35.001z"/><path fill="#fff" d="M10.5,20.999c-1,1-2,2-2,4s2,3,4.5,3s4.5-2,4.5-4s-1-9.5,0-10.5c-0.5-0.5-1-1.5-1-2.5	c-1,1-1.5,2-1,3.5s1,7,1,9.5c0,2-3.5,2-4,2S8,25.999,10.5,20.999z"/><path fill="#fff" d="M18,15.499v2.5c0,0,4,1.5,4,4.5C22.5,20.999,21,16.499,18,15.499z"/><path fill="#fff" d="M16.5,27.999c4-1.5,8-2.5,9.5-14c1,1.5,1,8,1,9c0,1.5,1,2.5,2,2.5s3.5,0,5-1.5c-1.5-0.5-3.5-1.5-5,0	c0-1,1.5-3,3-3c2,0,3.5,1.5,5,2.5c1,0,2,0,2,0l-1,2h-2c0,0-4,2-6.5,2c-1.5,0-3.5-0.5-3.5-3.5c0-2.5,0-5.5,0-5.5	S25.5,28.499,16.5,27.999z"/></svg>