<svg xmlns="http://www.w3.org/2000/svg" viewBox="0 0 48 48"><linearGradient id="TwfQxA9PUHStc_JcbO9qsa" x1="16.197" x2="38.605" y1="45.133" y2="2.988" gradientTransform="matrix(1 0 0 -1 0 48)" gradientUnits="userSpaceOnUse"><stop offset="0" stop-color="#f44f5a"/><stop offset=".443" stop-color="#ee3d4a"/><stop offset=".843" stop-color="#e52030"/></linearGradient><path fill="url(#TwfQxA9PUHStc_JcbO9qsa)" d="M42,10c-11.122,0-11.278-6-18-6s-6.878,6-18,6c-0.552,0-1,0.448-1,1c0,0,0,5.856,0,9	c0,1.378,0.178,2.712,0.493,4c2.936,12.007,18.08,19.907,18.08,19.907S23.784,44,24,44c0.203,0,0.427-0.093,0.427-0.093	s15.144-7.9,18.08-19.907C42.822,22.712,43,21.378,43,20c0-3.144,0-9,0-9C43,10.448,42.552,10,42,10z"/><path d="M24,34c-6.065,0-11-4.935-11-11s4.935-11,11-11s11,4.935,11,11	S30.065,34,24,34z M21.915,28.621C22.581,28.87,23.291,29,24,29c3.309,0,6-2.691,6-6c0-0.709-0.13-1.419-0.379-2.085L21.915,28.621z M24,17c-3.309,0-6,2.691-6,6c0,0.709,0.13,1.419,0.379,2.086l7.707-7.707C25.42,17.13,24.71,17,24,17z" opacity=".05"/><path d="M24,33.5c-5.79,0-10.5-4.71-10.5-10.5S18.21,12.5,24,12.5	S34.5,17.21,34.5,23S29.79,33.5,24,33.5z M21.046,28.783C21.961,29.253,22.971,29.5,24,29.5c3.584,0,6.5-2.916,6.5-6.5	c0-1.029-0.246-2.039-0.718-2.954L21.046,28.783z M24,16.5c-3.584,0-6.5,2.916-6.5,6.5c0,1.029,0.246,2.039,0.718,2.955l8.736-8.737	C26.04,16.747,25.03,16.5,24,16.5z" opacity=".07"/><path fill="#fff" d="M24,13c-5.514,0-10,4.486-10,10s4.486,10,10,10s10-4.486,10-10S29.514,13,24,13z M24,16	c1.388,0,2.679,0.411,3.769,1.111l-9.658,9.658C17.411,25.679,17,24.388,17,23C17,19.14,20.141,16,24,16z M24,30	c-1.388,0-2.679-0.411-3.768-1.11l9.658-9.658C30.589,20.321,31,21.612,31,23C31,26.86,27.859,30,24,30z"/></svg>