<svg xmlns="http://www.w3.org/2000/svg" viewBox="0 0 48 48"><linearGradient id="-PMTKG-krn8VRMFQyiqH7a" x1="18.663" x2="30.075" y1="-7.385" y2="44.756" gradientUnits="userSpaceOnUse"><stop offset="0" stop-color="#f44f5a"/><stop offset=".443" stop-color="#ee3d4a"/><stop offset="1" stop-color="#e52030"/></linearGradient><path fill="url(#-PMTKG-krn8VRMFQyiqH7a)" d="M1,18c7.545-1.547,6.601-7.843,16-11c-1.295,1.179-2.797,1.966-5,5c7-4,14.071-5.58,18-6	c-6,2-8.74,4.249-13,7c2.615-0.481,8-3,16,2c1.896,1.185,4,3.008,7,3c3.132-0.008,7-2,7-2s-3.249,4.934-10,5	c-9,0.088-12.852-2.821-19.898,0.646C12.277,24.02,10.76,28.466,11,32c0.712,10.471,15.286,9.161,18,4c1.581-3.006,2.024-9.932-4-11	c-3.213-0.57-6.774,1.963-5.794,4.485c0.594,1.529,2.168,1.742,1.844,3.448c-0.338,1.78-2.19,2.658-4.19,1.658	c-2.53-1.265-2.45-5.1-0.887-7.457c2.026-3.054,6.317-5.751,12.452-3.548C31.583,24.719,33.007,26.833,35,27c3.737,0.314,6-1,9-1	c-3,1-4,7-9,7c0,3-2,5-4,7c2,0,5-1,5-1s-3.296,2.639-14.451,2.996c-6.608,0.211-9.998-0.738-12.661-2.468	C5.998,37.649,4.769,34.637,5,31c0.701-11.023,11.691-13.162,20-13c-0.965-0.551-4.181-2.017-8-2	c-2.823,0.012-4.947,1.431-7.731,2.507C7.796,19.076,3.364,19.609,1,18z"/><linearGradient id="-PMTKG-krn8VRMFQyiqH7b" x1="14.457" x2="18.866" y1="6.455" y2="20.521" gradientUnits="userSpaceOnUse"><stop offset="0" stop-color="#cf1928"/><stop offset="1" stop-color="#b31523"/></linearGradient><path fill="url(#-PMTKG-krn8VRMFQyiqH7b)" d="M33,15c-8-5-13.385-2.481-16-2c4.26-2.751,7-5,13-7c-3.929,0.42-11,2-18,6	c2.203-3.034,3.705-3.821,5-5c-9.399,3.157-8.455,9.453-16,11c2.364,1.609,6.796,1.076,8.269,0.507	C12.053,17.431,14.177,16.012,17,16c3.819-0.017,7.035,1.449,8,2c2.068-0.157,6.447-0.185,9.52-2.016	C33.992,15.645,33.489,15.305,33,15z"/><linearGradient id="-PMTKG-krn8VRMFQyiqH7c" x1="12.493" x2="19.588" y1="17.822" y2="40.458" gradientUnits="userSpaceOnUse"><stop offset="0" stop-color="#cf1928"/><stop offset="1" stop-color="#b31523"/></linearGradient><path fill="url(#-PMTKG-krn8VRMFQyiqH7c)" d="M11.58,35.269c-0.179-0.494-0.227-1.017-0.308-1.524C11.137,33.203,11.042,32.624,11,32	c-0.06-0.889-0.009-1.835,0.177-2.792c0.407-3.31,1.848-6.201,4.001-7.961C18.901,18.204,23.072,18.146,25,18	c-8.309-0.162-19.299,1.977-20,13c-0.231,3.637,0.998,6.649,3.889,8.528c2.147,1.396,4.77,2.282,9.17,2.462	C13.909,39.88,12.248,37.112,11.58,35.269z"/><linearGradient id="-PMTKG-krn8VRMFQyiqH7d" x1="18.322" x2="21.636" y1="23.104" y2="33.679" gradientUnits="userSpaceOnUse"><stop offset="0" stop-color="#cf1928"/><stop offset="1" stop-color="#b31523"/></linearGradient><path fill="url(#-PMTKG-krn8VRMFQyiqH7d)" d="M15.974,27.134c-1.563,2.357-1.643,6.192,0.886,7.457c2,1,3.852,0.123,4.19-1.658	c0.324-1.706-1.25-1.919-1.844-3.448c-0.266-0.686-0.189-1.542,0.105-2.173c0.554-1.187,1.422-2.32,2.619-3.188	c0.815-0.591,1.556-0.981,2.443-1.333C20.382,22.692,17.518,24.805,15.974,27.134z"/></svg>