<svg xmlns="http://www.w3.org/2000/svg" data-name="Слой 1" viewBox="0 0 48 48"><defs><linearGradient id="EdSlrseL3hGaomdpsJEqna" x1="9.452" x2="37.395" y1="1428.725" y2="1452.302" data-name="Безымянный градиент 48" gradientTransform="translate(0 -1426)" gradientUnits="userSpaceOnUse"><stop offset="0" stop-color="#a1aab3"/><stop offset="1" stop-color="#8f979e"/></linearGradient><linearGradient id="EdSlrseL3hGaomdpsJEqnc" x1="24" x2="24" y1="197.882" y2="179.939" data-name="Безымянный градиент 75" gradientTransform="matrix(1 0 0 -1 0 224)" gradientUnits="userSpaceOnUse"><stop offset="0" stop-color="#889097"/><stop offset="1" stop-color="#64717c"/></linearGradient><radialGradient id="EdSlrseL3hGaomdpsJEqnb" cx="424.138" cy="1979.376" r="66.006" data-name="Безымянный градиент 47" gradientTransform="matrix(.8095 0 0 .7188 -294.897 -1379.324)" gradientUnits="userSpaceOnUse"><stop offset=".323" stop-color="#23d9d6"/><stop offset=".427" stop-color="#23d4d7"/><stop offset=".542" stop-color="#21c7dc"/><stop offset=".664" stop-color="#1fb0e2"/><stop offset=".789" stop-color="#1c91ec"/><stop offset=".917" stop-color="#1969f8"/><stop offset=".944" stop-color="#1860fb"/></radialGradient></defs><path fill="url(#EdSlrseL3hGaomdpsJEqna)" d="M42,26H6a1.99945,1.99945,0,0,1-2-2V6A1.99945,1.99945,0,0,1,6,4H42a1.99945,1.99945,0,0,1,2,2V24A1.99945,1.99945,0,0,1,42,26Z"/><rect width="36" height="18" x="6" y="6" fill="url(#EdSlrseL3hGaomdpsJEqnb)"/><path fill="#f5f6f7" d="M21,9.222v6.456a.22586.22586,0,0,0,.371.173l1.49-1.243.982,2.259a.22118.22118,0,0,0,.291.115l.393-.171L21.134,9.019A.21814.21814,0,0,0,21,9.222Z"/><path fill="#d9dcdf" d="M25.019,16.356l-.974-2.242,1.705-.153a.22627.22627,0,0,0,.14-.385L21.379,9.065a.2176.2176,0,0,0-.245-.046l3.393,7.792.377-.164A.22118.22118,0,0,0,25.019,16.356Z"/><path fill="#0076d7" d="M5,33H43a1.00036,1.00036,0,0,0,1-1V30a1.00036,1.00036,0,0,0-1-1H5a1.00036,1.00036,0,0,0-1,1v2A1.00036,1.00036,0,0,0,5,33Z"/><path fill="url(#EdSlrseL3hGaomdpsJEqnc)" d="M41,26H7a1,1,0,0,0-1,1V42a2,2,0,0,0,2,2H40a2,2,0,0,0,2-2V27A1,1,0,0,0,41,26Z"/><path fill="#58646e" d="M9,26H39a0,0,0,0,1,0,0v4a2,2,0,0,1-2,2H11a2,2,0,0,1-2-2V26A0,0,0,0,1,9,26Z"/><path fill="#50e6ff" d="M13,20H35a2,2,0,0,1,2,2v8a0,0,0,0,1,0,0H11a0,0,0,0,1,0,0V22A2,2,0,0,1,13,20Z"/><path d="M41,25H38V22a3.00879,3.00879,0,0,0-3-3H13a3.00879,3.00879,0,0,0-3,3v3H7a2.00536,2.00536,0,0,0-1.66.88v.01A1.98855,1.98855,0,0,0,5.9,26H11V22a2.00587,2.00587,0,0,1,2-2H35a2.00587,2.00587,0,0,1,2,2v4h5a.33953.33953,0,0,0,.1-.01,1.47084,1.47084,0,0,0,.56-.11A2.00536,2.00536,0,0,0,41,25Z" opacity=".05"/><path d="M41,25.5H37.5V22A2.50091,2.50091,0,0,0,35,19.5H13A2.50091,2.50091,0,0,0,10.5,22v3.5H7a1.43052,1.43052,0,0,0-1.1.5H11V22a2.00587,2.00587,0,0,1,2-2H35a2.00587,2.00587,0,0,1,2,2v4h5a.33953.33953,0,0,0,.1-.01A1.47207,1.47207,0,0,0,41,25.5Z" opacity=".07"/></svg>