<svg xmlns="http://www.w3.org/2000/svg" viewBox="0 0 48 48"><linearGradient id="4VbMMd120tsxh_g7HAYS3a" x1="6.41" x2="30.793" y1="2.129" y2="36.597" gradientUnits="userSpaceOnUse"><stop offset="0" stop-color="#5c65d6"/><stop offset=".999" stop-color="#464eb0"/></linearGradient><path fill="url(#4VbMMd120tsxh_g7HAYS3a)" d="M44.751,31.077l-1.369-5.604c-0.025-0.104-0.042-0.209-0.051-0.316l-0.314-3.938	c-0.012-0.146-0.039-0.29-0.082-0.43L42.692,20L42,18l-0.803-2.625c-0.128-0.417-0.116-0.863,0.034-1.273l0.473-1.292	c0.189-0.517,0.157-1.089-0.089-1.582l-0.061-0.123C41.214,10.428,40.521,10,39.764,10H4.911c-1.069,0-1.949,0.841-1.998,1.909L2,32	v4c0,1.105,0.895,2,2,2h39.778c1.187,0,2.113-1.029,1.989-2.209l-0.165-1.565c-0.012-0.111-0.033-0.222-0.063-0.329L44.751,31.077z"/></svg>