<svg xmlns="http://www.w3.org/2000/svg" data-name="Слой 1" viewBox="0 0 48 48"><defs><linearGradient id="Etec_hDsgwMk1b5cBtQO2a" x1="10.531" x2="27.482" y1="4.992" y2="51.563" data-name="Безымянный градиент 138" gradientUnits="userSpaceOnUse"><stop offset="0" stop-color="#6d6d6d"/><stop offset=".126" stop-color="#626262"/><stop offset=".987" stop-color="#464646"/><stop offset=".998" stop-color="#454545"/></linearGradient><linearGradient id="Etec_hDsgwMk1b5cBtQO2b" x1="18.357" x2="24.573" y1="-1640.995" y2="-1676.249" data-name="Безымянный градиент 134" gradientTransform="matrix(1 0 0 -1 0 -1632)" gradientUnits="userSpaceOnUse"><stop offset="0" stop-color="#ffda1c"/><stop offset="1" stop-color="#feb705"/></linearGradient><radialGradient id="Etec_hDsgwMk1b5cBtQO2c" cx="20.283" cy="21.13" r="19.838" data-name="Безымянный градиент 133" gradientUnits="userSpaceOnUse"><stop offset="0" stop-color="#4b4b4b"/><stop offset=".531" stop-color="#393939"/><stop offset="1" stop-color="#252525"/></radialGradient></defs><path fill="url(#Etec_hDsgwMk1b5cBtQO2a)" d="M24.00043,4A1.96747,1.96747,0,0,0,22.2731,5.00878L1.82176,41.00568A2.00136,2.00136,0,0,0,3.54909,44H44.45078a2.001,2.001,0,0,0,1.72733-2.99432L25.72776,5.00878A1.96745,1.96745,0,0,0,24.00043,4Z"/><polygon fill="url(#Etec_hDsgwMk1b5cBtQO2b)" points="5 41 24.001 8 43 41 5 41"/><path fill="url(#Etec_hDsgwMk1b5cBtQO2c)" d="M29,26V22a1.00291,1.00291,0,0,0-1-1H24.59l.03.16992.37,2.55c0,.02.01.04.01.06006a.222.222,0,0,1-.22.22H22.87l.78,3.73c0,.02.00995.03.00995.05a.22246.22246,0,0,1-.42.1l-2.45-5.03a.28362.28362,0,0,1-.04-.13.22421.22421,0,0,1,.22-.23H22.65L22.29,21H20a1.00291,1.00291,0,0,0-1,1v4a5.00353,5.00353,0,0,0,4,4.89917V37l-2.67944,1.0332.00055.00293A.49821.49821,0,0,0,20.5,39h7a.5.5,0,0,0,.5-.5.49439.49439,0,0,0-.34991-.46973l.00109-.00708L25,37V30.89917A5.00353,5.00353,0,0,0,29,26Z"/></svg>