<svg xmlns="http://www.w3.org/2000/svg" viewBox="0 0 48 48"><radialGradient id="CcnA5Pl1Dk9R10Bwf1DLYa" cx="10.332" cy="9.181" r="40.041" gradientUnits="userSpaceOnUse"><stop offset="0" stop-color="#6fcefc"/><stop offset="1" stop-color="#167cf7"/></radialGradient><path fill="url(#CcnA5Pl1Dk9R10Bwf1DLYa)" d="M4,24C4,12.955,12.955,4,24,4s20,8.955,20,20s-8.955,20-20,20S4,35.045,4,24z"/><radialGradient id="CcnA5Pl1Dk9R10Bwf1DLYb" cx="11.265" cy="8.48" r="40.155" gradientUnits="userSpaceOnUse"><stop offset=".001" stop-color="#54c0f5"/><stop offset=".998" stop-color="#0b69db"/></radialGradient><path fill="url(#CcnA5Pl1Dk9R10Bwf1DLYb)" d="M41,24c0-3.239-0.673-6.291-1.839-9h2.682c-0.348-0.689-0.725-1.36-1.148-2h-2.512	C35.138,7.584,29.921,4,24,4S12.862,7.584,9.817,13H7.305c-0.423,0.64-0.8,1.311-1.148,2h2.682C7.673,17.709,7,20.761,7,24	s0.673,6.291,1.839,9H6.157c0.348,0.689,0.725,1.36,1.148,2h2.512c3.045,5.416,8.262,9,14.183,9s11.138-3.584,14.183-9h2.512	c0.423-0.64,0.8-1.311,1.148-2h-2.682C40.327,30.291,41,27.239,41,24z M39,24c0,3.28-0.747,6.349-2.029,9h-5.793	C31.721,30.167,32,27.053,32,24s-0.279-6.167-0.822-9h5.793C38.253,17.651,39,20.72,39,24z M24,42c-1.69,0-3.491-2.637-4.674-7	h9.349C27.491,39.363,25.69,42,24,42z M18.848,33C18.321,30.413,18,27.371,18,24s0.321-6.413,0.848-9h10.304	C29.679,17.587,30,20.629,30,24s-0.321,6.413-0.848,9H18.848z M24,6c1.69,0,3.491,2.637,4.674,7h-9.349C20.509,8.637,22.31,6,24,6z M35.847,13h-5.111c-0.626-2.499-1.479-4.684-2.552-6.273C31.263,7.803,33.929,10.032,35.847,13z M19.816,6.727	c-1.073,1.59-1.926,3.774-2.552,6.273h-5.111C14.071,10.032,16.737,7.803,19.816,6.727z M9,24c0-3.28,0.747-6.349,2.029-9h5.793	C16.279,17.833,16,20.947,16,24s0.279,6.167,0.822,9h-5.793C9.747,30.349,9,27.28,9,24z M12.153,35h5.111	c0.626,2.499,1.479,4.684,2.552,6.273C16.737,40.197,14.071,37.968,12.153,35z M28.184,41.273c1.073-1.59,1.926-3.774,2.552-6.273	h5.111C33.929,37.968,31.263,40.197,28.184,41.273z"/><path d="M42.334,19h-2.64c-0.35,0-0.652,0.245-0.724,0.587l-0.471,2.242l-0.581-2.273	C37.835,19.229,37.54,19,37.202,19h-2.404c-0.338,0-0.633,0.229-0.717,0.557l-0.581,2.273l-0.471-2.242	C32.958,19.245,32.656,19,32.306,19h-4.612c-0.35,0-0.652,0.245-0.724,0.587l-0.471,2.242l-0.581-2.273	C25.835,19.229,25.54,19,25.202,19h-2.404c-0.338,0-0.633,0.229-0.717,0.557l-0.581,2.273l-0.471-2.242	C20.958,19.245,20.656,19,20.306,19h-4.612c-0.35,0-0.652,0.245-0.724,0.587l-0.471,2.242l-0.581-2.273	C13.835,19.229,13.54,19,13.202,19h-2.404c-0.338,0-0.633,0.229-0.717,0.557L9.501,21.83L9.03,19.587	C8.958,19.245,8.656,19,8.306,19h-2.64c-0.481,0-0.834,0.452-0.717,0.919l2.13,8.521C7.161,28.769,7.457,29,7.796,29h2.854	c0.335,0,0.627-0.221,0.713-0.544c0.192-0.715,0.518-1.933,0.636-2.38c0.118,0.447,0.444,1.665,0.636,2.38	C12.723,28.779,13.015,29,13.35,29h2.854c0.339,0,0.635-0.231,0.717-0.56L18,24.125l1.079,4.315c0.082,0.329,0.378,0.56,0.717,0.56	h2.854c0.335,0,0.627-0.221,0.713-0.544c0.192-0.715,0.518-1.933,0.636-2.38c0.118,0.447,0.444,1.665,0.636,2.38	C24.723,28.779,25.015,29,25.35,29h2.854c0.339,0,0.635-0.231,0.717-0.56L30,24.125l1.079,4.315c0.082,0.329,0.378,0.56,0.717,0.56	h2.854c0.335,0,0.627-0.221,0.713-0.544c0.192-0.715,0.518-1.933,0.636-2.38c0.118,0.447,0.444,1.665,0.636,2.38	C36.723,28.779,37.015,29,37.35,29h2.854c0.339,0,0.635-0.231,0.717-0.56l2.13-8.521C43.168,19.452,42.815,19,42.334,19z" opacity=".05"/><path d="M41.953,19.5h-2.017c-0.254,0-0.474,0.178-0.526,0.427l-0.863,4.109l-1.055-4.132	c-0.061-0.238-0.275-0.404-0.521-0.404h-1.942c-0.245,0-0.46,0.166-0.521,0.404l-1.055,4.132l-0.864-4.109	c-0.052-0.249-0.272-0.427-0.526-0.427h-4.129c-0.254,0-0.474,0.178-0.526,0.427l-0.863,4.109l-1.055-4.132	c-0.061-0.238-0.275-0.404-0.521-0.404h-1.942c-0.245,0-0.46,0.166-0.521,0.404l-1.055,4.132l-0.864-4.109	c-0.052-0.249-0.272-0.427-0.526-0.427h-4.129c-0.254,0-0.474,0.178-0.526,0.427l-0.863,4.109l-1.055-4.132	c-0.061-0.238-0.275-0.404-0.521-0.404h-1.942c-0.245,0-0.46,0.166-0.521,0.404l-1.055,4.132L8.59,19.927	C8.538,19.678,8.319,19.5,8.065,19.5H6.047c-0.349,0-0.606,0.328-0.521,0.668l1.981,7.925c0.06,0.239,0.275,0.407,0.521,0.407h2.393	c0.243,0,0.455-0.161,0.518-0.396c0.242-0.904,0.985-3.683,1.059-4.066c0.075,0.383,0.817,3.163,1.059,4.066	c0.063,0.235,0.275,0.396,0.518,0.396h2.393c0.247,0,0.461-0.168,0.521-0.407L18,22.063l1.508,6.03	c0.06,0.239,0.275,0.407,0.521,0.407h2.393c0.243,0,0.455-0.161,0.518-0.396c0.242-0.904,0.985-3.683,1.059-4.066	c0.075,0.383,0.817,3.163,1.059,4.066c0.063,0.235,0.275,0.396,0.518,0.396h2.393c0.247,0,0.461-0.168,0.521-0.407L30,22.063	l1.508,6.03c0.06,0.239,0.275,0.407,0.521,0.407h2.393c0.243,0,0.455-0.161,0.518-0.396c0.242-0.904,0.985-3.683,1.059-4.066	c0.075,0.383,0.817,3.163,1.059,4.066c0.063,0.235,0.275,0.396,0.518,0.396h2.393c0.247,0,0.461-0.168,0.521-0.407l1.981-7.925	C42.559,19.828,42.302,19.5,41.953,19.5z" opacity=".07"/><path fill="#fff" d="M27.905,20l-1.312,6.243L25,20h-2l-1.593,6.243L20.095,20H18l2,8h2.451c0,0,1.513-5.636,1.549-6	c0.036,0.364,1.549,6,1.549,6H28l2-8H27.905z"/><path fill="#fff" d="M15.905,20l-1.312,6.243L13,20h-2l-1.593,6.243L8.095,20H6l2,8h2.451c0,0,1.513-5.636,1.549-6	c0.036,0.364,1.549,6,1.549,6H16l2-8H15.905z"/><path fill="#fff" d="M39.905,20l-1.312,6.243L37,20h-2l-1.593,6.243L32.095,20H30l2,8h2.451c0,0,1.513-5.636,1.549-6	c0.036,0.364,1.549,6,1.549,6H40l2-8H39.905z"/></svg>