<svg xmlns="http://www.w3.org/2000/svg" viewBox="0 0 48 48"><linearGradient id="Q62dz2svCL54dGTNR741Oa" x1="20.865" x2="27.202" y1="5.659" y2="42.731" gradientUnits="userSpaceOnUse"><stop offset="0" stop-color="#0d61a9"/><stop offset="1" stop-color="#16528c"/></linearGradient><path fill="url(#Q62dz2svCL54dGTNR741Oa)" d="M32.408,5.75L15.557,5.766c-1.303,0.001-2.507,0.698-3.158,1.827L3.987,22.195	c-0.651,1.129-0.649,2.52,0.004,3.648l8.44,14.586c0.653,1.128,1.858,1.822,3.161,1.821l16.852-0.016	c1.303-0.001,2.507-0.698,3.158-1.827l8.412-14.602c0.651-1.129,0.649-2.52-0.004-3.648L35.57,7.571	C34.917,6.443,33.712,5.748,32.408,5.75z"/><linearGradient id="Q62dz2svCL54dGTNR741Ob" x1="22.383" x2="24.525" y1="25.004" y2="32.373" gradientUnits="userSpaceOnUse"><stop offset="0" stop-color="#8795a1"/><stop offset="1" stop-color="#6d7882"/></linearGradient><path fill="url(#Q62dz2svCL54dGTNR741Ob)" d="M24,25.286c-4.418,0-8,2.46-8,5.143V31c0,0.552,0.448,1,1,1h14c0.552,0,1-0.448,1-1v-0.571	C32,27.746,28.418,25.286,24,25.286z"/><path fill="#fff" d="M26,25.04c0,3.956-2,5.96-2,5.96s-2-2.004-2-5.96c0-1.319,0-2.04,0-2.04h4C26,23,26,23.721,26,25.04z"/><path fill="#fff" d="M26,25.04c0,3.956-2,5.96-2,5.96s-2-2.004-2-5.96c0-1.319,0-2.04,0-2.04h4C26,23,26,23.721,26,25.04z"/><path fill="#d6a121" d="M26,25c0,0.948-2,2-2,2s-2-1.051-2-2c0-1.319,0-3.518,0-3.518h4C26,21.482,26,23.681,26,25z"/><path fill="#d32f2f" d="M23.2,27.5l0.4,0.5l-0.312,2.024C23.675,30.67,24,31,24,31s0.325-0.33,0.712-0.976L24.4,28l0.4-0.5	L24,27L23.2,27.5z"/><circle cx="34" cy="7" r="2" fill="#50e6ff"/><circle cx="14" cy="7" r="2" fill="#50e6ff"/><circle cx="34" cy="41" r="2" fill="#50e6ff"/><circle cx="43" cy="24" r="2" fill="#50e6ff"/><circle cx="5" cy="24" r="2" fill="#50e6ff"/><circle cx="14" cy="41" r="2" fill="#50e6ff"/><linearGradient id="Q62dz2svCL54dGTNR741Oc" x1="27.94" x2="28.97" y1="20.75" y2="20.75" gradientUnits="userSpaceOnUse"><stop offset="0" stop-color="#c48f0c"/><stop offset=".251" stop-color="#d19b16"/><stop offset=".619" stop-color="#dca51f"/><stop offset="1" stop-color="#e0a922"/></linearGradient><path fill="url(#Q62dz2svCL54dGTNR741Oc)" d="M28.208,19.5h-0.264V22h0.352c0.257,0,0.477-0.195,0.52-0.462l0.172-1.064	C29.071,19.964,28.698,19.5,28.208,19.5z"/><linearGradient id="Q62dz2svCL54dGTNR741Od" x1="20.072" x2="19.026" y1="20.75" y2="20.75" gradientUnits="userSpaceOnUse"><stop offset="0" stop-color="#c48f0c"/><stop offset=".251" stop-color="#d19b16"/><stop offset=".619" stop-color="#dca51f"/><stop offset="1" stop-color="#e0a922"/></linearGradient><path fill="url(#Q62dz2svCL54dGTNR741Od)" d="M19.792,19.5h0.264V22h-0.352c-0.257,0-0.477-0.195-0.52-0.462l-0.172-1.064	C18.929,19.964,19.302,19.5,19.792,19.5z"/><radialGradient id="Q62dz2svCL54dGTNR741Oe" cx="72.206" cy="-19.88" r="6.112" gradientTransform="translate(-32.586 35.612) scale(.7837)" gradientUnits="userSpaceOnUse"><stop offset="0" stop-color="#ffcf54"/><stop offset=".261" stop-color="#fdcb4d"/><stop offset=".639" stop-color="#f7c13a"/><stop offset="1" stop-color="#f0b421"/></radialGradient><path fill="url(#Q62dz2svCL54dGTNR741Oe)" d="M24,14.567c-1.974,0-4,0.3-4,4.567c0,0.342,0,2.612,0,2.977c0,1.523,2.4,3.39,4,3.39	s4-1.867,4-3.39c0-0.365,0-2.635,0-2.977C28,14.867,25.974,14.567,24,14.567z"/><radialGradient id="Q62dz2svCL54dGTNR741Of" cx="19.149" cy="2.827" r="15.002" gradientTransform="translate(2.84 11.127) scale(.8816)" gradientUnits="userSpaceOnUse"><stop offset="0" stop-color="#c26715"/><stop offset=".508" stop-color="#b85515"/><stop offset="1" stop-color="#ad3f16"/></radialGradient><path fill="url(#Q62dz2svCL54dGTNR741Of)" d="M24,13c-2.177,0-2.5,0.818-2.5,0.818C20.615,13.949,19,14.499,19,17c0,0.827,0.407,2.89,1,4	c0.273-3.273,0.624-5,1.5-5c0.633,0,1.136-1,2.5-1c1.151,0,1.437,1,2.5,1c1.5,0,1.5,4.484,1.5,5c0.644-1.153,1-3.278,1-4	C29,14.477,27.105,13,24,13z"/><radialGradient id="Q62dz2svCL54dGTNR741Og" cx="22.546" cy="4.036" r="19.272" gradientTransform="matrix(.8431 0 0 .8816 4.07 11.127)" gradientUnits="userSpaceOnUse"><stop offset="0" stop-color="#c26715"/><stop offset=".508" stop-color="#b85515"/><stop offset="1" stop-color="#ad3f16"/></radialGradient><path fill="url(#Q62dz2svCL54dGTNR741Og)" d="M23,13c-1.996,0-2,2-2,2c-0.024,0.676,0.469,1,3,1c1.528,0,4-0.454,4-3C28,13,26.464,13,23,13	z"/></svg>