<svg xmlns="http://www.w3.org/2000/svg" viewBox="0 0 48 48"><linearGradient id="HIduDIPtSwfds2LR3zKFpa" x1="9.258" x2="21.296" y1="4.819" y2="22.836" gradientUnits="userSpaceOnUse"><stop offset="0" stop-color="#28afea"/><stop offset="1" stop-color="#0b88da"/></linearGradient><path fill="url(#HIduDIPtSwfds2LR3zKFpa)" d="M3,9l18-7.154V15c0,0.552-0.448,1-1,1H3V9z"/><linearGradient id="HIduDIPtSwfds2LR3zKFpb" x1="-.796" x2="16.666" y1="8.205" y2="19.082" gradientUnits="userSpaceOnUse"><stop offset="0" stop-color="#28afea"/><stop offset="1" stop-color="#0b88da"/></linearGradient><path fill="url(#HIduDIPtSwfds2LR3zKFpb)" d="M0,1.846V15c0,0.552,0.448,1,1,1h19c0.246,0,0.468-0.092,0.642-0.239L0,1.846z"/><path d="M0,1.5h21v0.846l-8.66,6.725c-1.083,0.841-2.597,0.841-3.68,0L0,2.346V1.5z" opacity=".05"/><path d="M0,1.25h21v0.846l-9.017,6.556c-0.881,0.652-2.085,0.652-2.966,0L0,2.096V1.25z" opacity=".07"/><path fill="#50e6ff" d="M1,0l19,0c0.552,0,1,0.448,1,1v0.846l-9.374,6.387c-0.679,0.463-1.573,0.463-2.252,0L0,1.846V1	C0,0.448,0.448,0,1,0z"/><linearGradient id="HIduDIPtSwfds2LR3zKFpc" x1="-308.751" x2="36.905" y1="736.874" y2="340.433" gradientTransform="matrix(1 0 0 -1 0 390)" gradientUnits="userSpaceOnUse"><stop offset="0" stop-color="#ffda1c"/><stop offset="1" stop-color="#feb705"/></linearGradient><path fill="url(#HIduDIPtSwfds2LR3zKFpc)" d="M44.634,37.846L25.76,7.787c0,0-0.508-1.05-1.76-1.05s-1.76,1.05-1.76,1.05L3.366,37.846	C3.366,37.846,3,38.337,3,39c0,1.105,0.895,2,2,2h38c1.105,0,2-0.895,2-2C45,38.337,44.634,37.846,44.634,37.846z"/><radialGradient id="HIduDIPtSwfds2LR3zKFpd" cx="18.189" cy="373.219" r="22.363" gradientTransform="matrix(1 0 0 -1 0 390)" gradientUnits="userSpaceOnUse"><stop offset="0" stop-color="#4b4b4b"/><stop offset=".531" stop-color="#393939"/><stop offset="1" stop-color="#252525"/></radialGradient><path fill="url(#HIduDIPtSwfds2LR3zKFpd)" d="M24.014,37c-0.732,0-1.336-0.222-1.812-0.666s-0.714-0.981-0.714-1.613 c0-0.659,0.24-1.199,0.721-1.62c0.48-0.421,1.082-0.631,1.805-0.631c0.732,0,1.332,0.213,1.798,0.638 c0.467,0.426,0.7,0.963,0.7,1.613c0,0.659-0.231,1.203-0.693,1.633S24.755,37,24.014,37z M26.236,17.721l-0.481,12.175 c-0.015,0.372-0.321,0.666-0.693,0.666h-2.179c-0.373,0-0.679-0.295-0.693-0.668L21.735,17.72c-0.015-0.393,0.3-0.72,0.693-0.72 h3.116C25.937,17,26.252,17.327,26.236,17.721z"/></svg>