<svg xmlns="http://www.w3.org/2000/svg" viewBox="0 0 48 48"><path fill="#199be2" d="M35.983,32.448l-3.536,3.536l7.87,7.87c0.195,0.195,0.512,0.195,0.707,0l2.828-2.828	c0.195-0.195,0.195-0.512,0-0.707L35.983,32.448z"/><radialGradient id="KJvn~4zEBRr_tb9UqhD6qa" cx="20.024" cy="-174.096" r="19.604" gradientTransform="matrix(1 0 0 -1 0 -154)" gradientUnits="userSpaceOnUse"><stop offset=".693" stop-color="#006185"/><stop offset=".921" stop-color="#35c1f1"/></radialGradient><polygon fill="url(#KJvn~4zEBRr_tb9UqhD6qa)" points="31.601,28.065 28.065,31.601 32.448,35.983 35.983,32.448"/><linearGradient id="KJvn~4zEBRr_tb9UqhD6qb" x1="8.911" x2="31.339" y1="-162.911" y2="-185.339" gradientTransform="matrix(1 0 0 -1 0 -154)" gradientUnits="userSpaceOnUse"><stop offset="0" stop-color="#a3ffff"/><stop offset=".223" stop-color="#9dfbff"/><stop offset=".53" stop-color="#8bf1ff"/><stop offset=".885" stop-color="#6ee0ff"/><stop offset="1" stop-color="#63daff"/></linearGradient><circle cx="20" cy="20" r="16" fill="url(#KJvn~4zEBRr_tb9UqhD6qb)"/><path fill="#1b9de2" d="M27.071,11.515l1.414,1.414c0.391,0.391,0.391,1.024,0,1.414L14.343,28.485 c-0.391,0.391-1.024,0.391-1.414,0l-1.414-1.414c-0.391-0.391-0.391-1.024,0-1.414l14.142-14.142 C26.047,11.124,26.681,11.124,27.071,11.515z"/><path fill="#1b9de2" d="M28.485,27.071l-1.414,1.414c-0.391,0.391-1.024,0.391-1.414,0L11.515,14.343 c-0.391-0.391-0.391-1.024,0-1.414l1.414-1.414c0.391-0.391,1.024-0.391,1.414,0l14.142,14.142 C28.876,26.047,28.876,26.681,28.485,27.071z"/></svg>