<svg xmlns="http://www.w3.org/2000/svg" viewBox="0 0 48 48"><linearGradient id="dRd~1LbS9VSpWUwWoJDlwa" x1="8.335" x2="31.957" y1="18.93" y2="42.552" gradientUnits="userSpaceOnUse"><stop offset="0" stop-color="#eba84b"/><stop offset="1" stop-color="#d97218"/></linearGradient><path fill="url(#dRd~1LbS9VSpWUwWoJDlwa)" d="M21.301,40.834c-3.493,3.493-7.99,2.447-11.773-0.955C9.281,39.66,9.04,39.434,8.8,39.193	c-0.24-0.24-0.467-0.481-0.686-0.728c-0.134-0.149-0.262-0.29-0.382-0.438c-0.092-0.106-0.177-0.219-0.262-0.332	c-2.538-3.189-3.373-6.781-1.301-9.829c0.149-0.205,0.297-0.41,0.474-0.615c0.297-0.354,0.643-0.7,1.025-1.039	c0,0,1.485-1.513,2.772-1.952c0.424-0.141,0.594,0.085,0.594,0.085c1.131,1.824,3.069,1.81,4.653,0.523l1.273-1.16	c1.527-1.23,2.39-3.041,1.146-4.667c-0.113-0.156-0.403-0.474-0.325-0.693c0.071-0.198,0.431-0.516,0.431-0.516	c2.659-2.319,6.675-2.15,9.192,0.368l2.39,2.39c2.517,2.517,2.687,6.534,0.368,9.192c0,0-0.318,0.361-0.516,0.431	c-0.219,0.078-0.537-0.212-0.693-0.325c-1.626-1.244-3.437-0.382-4.667,1.146l-1.16,1.273c-1.287,1.584-1.301,3.521,0.523,4.653	c0,0,0.226,0.17,0.085,0.594c-0.438,1.287-1.952,2.772-1.952,2.772C21.627,40.509,21.464,40.671,21.301,40.834z"/><linearGradient id="dRd~1LbS9VSpWUwWoJDlwb" x1="12.524" x2="25.016" y1="25.417" y2="37.909" gradientUnits="userSpaceOnUse"><stop offset="0" stop-color="#4c4c4c"/><stop offset="1" stop-color="#343434"/></linearGradient><path fill="url(#dRd~1LbS9VSpWUwWoJDlwb)" d="M17.815,25.935c-0.391-0.391-1.024-0.391-1.414,0l-2.652,2.652	c-0.391-0.391-1.024-0.391-1.414,0c-0.391,0.391-0.391,1.024,0,1.414c0.391,0.391,1.024,0.391,1.414,0l2.652-2.652v0	c0.391,0.391,1.024,0.391,1.414,0C18.206,26.959,18.206,26.326,17.815,25.935z"/><linearGradient id="dRd~1LbS9VSpWUwWoJDlwc" x1="12.524" x2="25.016" y1="25.417" y2="37.909" gradientUnits="userSpaceOnUse"><stop offset="0" stop-color="#4c4c4c"/><stop offset="1" stop-color="#343434"/></linearGradient><path fill="url(#dRd~1LbS9VSpWUwWoJDlwc)" d="M22.058,30.178c-0.391-0.391-1.024-0.391-1.414,0c-0.391,0.391-0.391,1.024,0,1.414	l-2.652,2.652c-0.391,0.391-0.391,1.024,0,1.414c0.391,0.391,1.024,0.391,1.414,0c0.391-0.391,0.391-1.024,0-1.414l0,0l2.652-2.652	C22.448,31.201,22.448,30.568,22.058,30.178z"/><linearGradient id="dRd~1LbS9VSpWUwWoJDlwd" x1="3.534" x2="11.553" y1="28.893" y2="36.912" gradientUnits="userSpaceOnUse"><stop offset="0" stop-color="#a34f27"/><stop offset=".587" stop-color="#8b3817"/><stop offset="1" stop-color="#802d10"/></linearGradient><path fill="url(#dRd~1LbS9VSpWUwWoJDlwd)" d="M7.47,37.694c-2.538-3.189-3.373-6.781-1.301-9.829c0.149-0.205,0.297-0.41,0.474-0.615	c0.269,0.184,0.509,0.396,0.742,0.629C10.094,30.588,10.122,34.944,7.47,37.694z"/><linearGradient id="dRd~1LbS9VSpWUwWoJDlwe" x1="21.818" x2="34.992" y1="13.785" y2="26.959" gradientUnits="userSpaceOnUse"><stop offset="0" stop-color="#4c4c4c"/><stop offset="1" stop-color="#343434"/></linearGradient><path fill="url(#dRd~1LbS9VSpWUwWoJDlwe)" d="M21.528,27.965c-0.384,0-0.768-0.146-1.061-0.439c-0.586-0.586-0.586-1.536,0-2.121	l12.972-12.97c0.586-0.586,1.536-0.586,2.121,0c0.586,0.586,0.586,1.536,0,2.121l-12.972,12.97	C22.295,27.819,21.912,27.965,21.528,27.965z"/><linearGradient id="dRd~1LbS9VSpWUwWoJDlwf" x1="4.726" x2="17.9" y1="30.877" y2="44.051" gradientUnits="userSpaceOnUse"><stop offset="0" stop-color="#4c4c4c"/><stop offset="1" stop-color="#343434"/></linearGradient><path fill="url(#dRd~1LbS9VSpWUwWoJDlwf)" d="M13.693,36.619l-1.358,0.453l-2.807,2.807C9.281,39.66,9.04,39.434,8.8,39.193	c-0.24-0.24-0.467-0.481-0.686-0.728l2.807-2.807l0.453-1.358c0.12-0.346,0.566-0.453,0.827-0.191l1.683,1.683	C14.145,36.054,14.039,36.499,13.693,36.619z"/><linearGradient id="dRd~1LbS9VSpWUwWoJDlwg" x1="32.268" x2="42.102" y1="4.702" y2="14.536" gradientUnits="userSpaceOnUse"><stop offset="0" stop-color="#eba84b"/><stop offset="1" stop-color="#d97218"/></linearGradient><path fill="url(#dRd~1LbS9VSpWUwWoJDlwg)" d="M41.855,6.978l-0.834-0.834c-0.228-0.228-0.597-0.177-0.773,0.092 c-0.258,0.393-0.707,0.674-1.043,0.842c0,0,0.004,0.008,0.005,0.011c-0.488,0.167-1.094,0.471-1.939,0.845 c-0.435,0.193-0.545,0.686-0.441,1.221l-3.446,3.238c-0.21,0.192-0.217,0.521-0.016,0.722l1.511,1.511 c0.201,0.201,0.53,0.194,0.722-0.016l3.216-3.422c0.559,0.125,1.082,0.025,1.282-0.427c0.353-0.797,0.643-1.382,0.816-1.856 c0.013-0.026,0.028-0.045,0.039-0.078c0.16-0.481,0.423-0.859,0.789-1.068C42.031,7.596,42.089,7.211,41.855,6.978z"/></svg>