<svg xmlns="http://www.w3.org/2000/svg" viewBox="0 0 48 48"><linearGradient id="Bp_whoCsWNrwYauJiCQF7a" x1="1.804" x2="42.014" y1="17.17" y2="40.385" gradientUnits="userSpaceOnUse"><stop offset="0" stop-color="#a34f27"/><stop offset=".587" stop-color="#8b3817"/><stop offset="1" stop-color="#802d10"/></linearGradient><path fill="url(#Bp_whoCsWNrwYauJiCQF7a)" d="M45,41c-2.899-3.458-4.25-13.167-5-20c-0.421-3.836-2.722-7.393-7.686-9	c-2.189-0.417-4.431-1-8.314-1s-6.125,0.583-8.314,1C10.722,13.607,8.421,17.164,8,21c-0.75,6.833-2.101,16.542-5,20	c2.461-1.108,3.152-2.363,4-4c0,2.147-0.997,3.997-2,5c0,0,5.294-1.299,8.993-14.992C15.583,22.583,19.259,21,24,21	s8.417,1.583,10.007,6.008C37.706,40.701,43,42,43,42c-1.003-1.003-2-2.853-2-5C41.848,38.637,42.539,39.892,45,41z"/></svg>