<svg xmlns="http://www.w3.org/2000/svg" viewBox="0 0 48 48"><linearGradient id="8AD2LvNtznGb~anuwV_dEa" x1="20.932" x2="24.488" y1="1249.227" y2="1260.686" gradientTransform="translate(0 -1218)" gradientUnits="userSpaceOnUse"><stop offset="0" stop-color="#f44f5a"/><stop offset=".443" stop-color="#ee3d4a"/><stop offset="1" stop-color="#e52030"/></linearGradient><path fill="url(#8AD2LvNtznGb~anuwV_dEa)" d="M12.427,33.876C9.684,35.758,8,38.255,8,40.857V42c0,1.105,0.895,2,2,2h28	c1.105,0,2-0.895,2-2v-1.143c0-2.602-1.684-5.099-4.427-6.981C32.66,31.877,15.34,31.877,12.427,33.876z"/><linearGradient id="8AD2LvNtznGb~anuwV_dEb" x1="21.765" x2="27.574" y1="21.788" y2="6.916" gradientTransform="matrix(1 0 0 -1 0 50)" gradientUnits="userSpaceOnUse"><stop offset="0" stop-color="#f0f0f0"/><stop offset="1" stop-color="#bbc1c4"/></linearGradient><path fill="url(#8AD2LvNtznGb~anuwV_dEb)" d="M24,42c5.526,0,10.18-3.447,11.567-8.116c-2.914-2.001-7.013-3.313-11.567-3.313	s-8.654,1.312-11.567,3.313C13.82,38.553,18.474,42,24,42z"/><path fill="#d6a121" d="M29,31c0,1.897-2,4-5,4s-5-2.103-5-4c0-2.637,0-7.035,0-7.035h10C29,23.965,29,28.363,29,31z"/><linearGradient id="8AD2LvNtznGb~anuwV_dEc" x1="32.917" x2="34.251" y1="1238" y2="1238" gradientTransform="translate(0 -1218)" gradientUnits="userSpaceOnUse"><stop offset="0" stop-color="#c48f0c"/><stop offset=".251" stop-color="#d19b16"/><stop offset=".619" stop-color="#dca51f"/><stop offset="1" stop-color="#e0a922"/></linearGradient><path fill="url(#8AD2LvNtznGb~anuwV_dEc)" d="M32.916,18h-0.527v4h0.703c0.515,0,0.954-0.312,1.041-0.74l0.344-1.703	C34.642,18.743,33.897,18,32.916,18z"/><linearGradient id="8AD2LvNtznGb~anuwV_dEd" x1="-3103.083" x2="-3101.749" y1="1238" y2="1238" gradientTransform="matrix(-1 0 0 1 -3088 -1218)" gradientUnits="userSpaceOnUse"><stop offset="0" stop-color="#c48f0c"/><stop offset=".251" stop-color="#d19b16"/><stop offset=".619" stop-color="#dca51f"/><stop offset="1" stop-color="#e0a922"/></linearGradient><path fill="url(#8AD2LvNtznGb~anuwV_dEd)" d="M15.084,18h0.527v4h-0.703c-0.515,0-0.954-0.312-1.041-0.74l-0.344-1.703	C13.358,18.743,14.103,18,15.084,18z"/><radialGradient id="8AD2LvNtznGb~anuwV_dEe" cx="24" cy="20.5" r="9.779" gradientUnits="userSpaceOnUse"><stop offset="0" stop-color="#ffcf54"/><stop offset=".261" stop-color="#fdcb4d"/><stop offset=".639" stop-color="#f7c13a"/><stop offset="1" stop-color="#f0b421"/></radialGradient><path fill="url(#8AD2LvNtznGb~anuwV_dEe)" d="M16.215,10C15.455,11.511,15,13.648,15,16.675c0,0.768,0,5.877,0,6.698C15,26.8,20.4,31,24,31	s9-4.2,9-7.627c0-0.821,0-5.929,0-6.698c0-3.027-0.455-5.164-1.215-6.675H16.215z"/><radialGradient id="8AD2LvNtznGb~anuwV_dEf" cx="15.447" cy="9.685" r="23.683" gradientUnits="userSpaceOnUse"><stop offset="0" stop-color="#c26715"/><stop offset=".508" stop-color="#b85515"/><stop offset="1" stop-color="#ad3f16"/></radialGradient><path fill="url(#8AD2LvNtznGb~anuwV_dEf)" d="M31,9.103V10H17V8.82c-1.51,1.944-3,5.166-3,7.179c0,1,0,3,1,4c0.545-6.545,2.249-9,4-9	c1.267,0,2.273,1,5,1c2.303,0,2.875-1,5-1c3,0,4,7.968,4,9c1-1,1-4,1-4C34,14.181,32.926,11.359,31,9.103z"/><path fill="#edbe00" d="M14.401,14h19.197l0.4-8.083c0.025-0.504-0.506-0.843-0.946-0.603L28.114,8l-3.283-5.525	c-0.377-0.634-1.286-0.634-1.662,0L19.886,8l-4.94-2.686c-0.44-0.24-0.971,0.099-0.946,0.603L14.401,14z"/><path fill="#e3a600" d="M33.567,16H14.433C14.194,16,14,15.806,14,15.567v-2.134C14,13.194,14.194,13,14.433,13h19.134	C33.806,13,34,13.194,34,13.433v2.134C34,15.806,33.806,16,33.567,16z"/><path fill="#343434" d="M23,38c0-0.553,0.447-1,1-1c0.552,0,1,0.447,1,1s-1,2-1,2S23,38.553,23,38z"/><path fill="#343434" d="M31,37c0,0,1-1.447,1-2s-0.448-1-1-1c-0.553,0-1,0.447-1,1S31,37,31,37z"/><path fill="#343434" d="M17,37c0,0,1-1.447,1-2s-0.448-1-1-1c-0.553,0-1,0.447-1,1S17,37,17,37z"/></svg>