<svg xmlns="http://www.w3.org/2000/svg" viewBox="0 0 48 48"><path fill="#0370c8" d="M42.414,35.414L12.586,5.586c-0.781-0.781-2.047-0.781-2.828,0L5.586,9.757	c-0.781,0.781-0.781,2.047,0,2.828l29.828,29.828c0.781,0.781,2.047,0.781,2.828,0l4.172-4.172	C43.195,37.462,43.195,36.195,42.414,35.414z"/><path fill="#c94f60" d="M42.583,9.067l-3.651-3.65c-0.555-0.556-1.459-0.556-2.015,0l-1.718,1.72l5.664,5.664l1.72-1.718	C43.139,10.526,43.139,9.625,42.583,9.067"/><path fill="#f0f0f0" d="M6.905,35.43L5,43l7.571-1.906l0.794-6.567L6.905,35.43z"/><path fill="#edbe00" d="M36.032,17.632l-23.46,23.461l-5.665-5.665l23.46-23.461L36.032,17.632z"/><linearGradient id="xQaxddfigVpuLNx~PWDl8a" x1="35.612" x2="35.612" y1="7.494" y2="17.921" gradientUnits="userSpaceOnUse"><stop offset="0" stop-color="#dedede"/><stop offset="1" stop-color="#d6d6d6"/></linearGradient><path fill="url(#xQaxddfigVpuLNx~PWDl8a)" d="M30.363,11.968l4.832-4.834l5.668,5.664l-4.832,4.834L30.363,11.968z"/><path fill="#787878" d="M5.965,39.172L5,43l3.827-0.965L5.965,39.172z"/><rect width="2.828" height="2" x="35.586" y="31" fill="#0e8df2" transform="rotate(-45.001 37 32)"/><rect width="4.243" height="2" x="37.379" y="34.5" fill="#0e8df2" transform="rotate(-45.001 39.5 35.5)"/><rect width="2.828" height="2" x="29.586" y="25" fill="#0e8df2" transform="rotate(-45.001 31 26)"/><rect width="4.243" height="2" x="31.379" y="28.5" fill="#0e8df2" transform="rotate(-45.001 33.5 29.5)"/><rect width="4.243" height="2" x="16.379" y="13.5" fill="#0e8df2" transform="rotate(-45.001 18.5 14.5)"/><rect width="2.828" height="2" x="20.586" y="16" fill="#0e8df2" transform="rotate(-45.001 22 17)"/><rect width="4.243" height="2" x="10.379" y="7.5" fill="#0e8df2" transform="rotate(-45.001 12.5 8.5)"/><rect width="2.828" height="2" x="14.586" y="10" fill="#0e8df2" transform="rotate(-45.001 16 11)"/></svg>