<svg xmlns="http://www.w3.org/2000/svg" viewBox="0 0 48 48"><path fill="#c94f60" d="M42.583,9.067l-3.651-3.65c-0.555-0.556-1.459-0.556-2.015,0l-1.718,1.72l5.664,5.664l1.72-1.718 C43.139,10.526,43.139,9.625,42.583,9.067"/><path fill="#f0f0f0" d="M6.905,35.43L5,43l7.571-1.906l0.794-6.567L6.905,35.43z"/><path fill="#edbe00" d="M36.032,17.632l-23.46,23.461l-5.665-5.665l23.46-23.461L36.032,17.632z"/><linearGradient id="OLwpRnqNTmDAn3ZWMBnI3a" x1="35.613" x2="35.613" y1="-25.494" y2="-35.921" gradientTransform="matrix(1 0 0 -1 0 -18)" gradientUnits="userSpaceOnUse"><stop offset="0" stop-color="#dedede"/><stop offset="1" stop-color="#d6d6d6"/></linearGradient><path fill="url(#OLwpRnqNTmDAn3ZWMBnI3a)" d="M30.363,11.968l4.832-4.834l5.668,5.664l-4.832,4.834L30.363,11.968z"/><path fill="#787878" d="M5.965,39.172L5,43l3.827-0.965L5.965,39.172z"/><path fill="#e52030" d="M44.9,42.7L5.3,3.1C5.1,3,4.9,3,4.7,3.1L3.1,4.7C3,4.9,3,5.1,3.1,5.3l39.6,39.6 c0.1,0.1,0.4,0.1,0.5,0l1.6-1.6C45,43.1,45,42.9,44.9,42.7z"/></svg>