<svg xmlns="http://www.w3.org/2000/svg" viewBox="0 0 48 48"><path fill="#ed3675" d="M33.725,6c0,0-16.532,0-19.192,0c-2.636,0-3.425,1.996-3.425,3.252v30.501	c0,1.503,0.764,1.946,1.183,2.119c0.419,0.172,1.528,0.296,2.316-0.493c0,0,9.116-10.619,9.264-10.791	c0.148-0.172,0.222-0.172,0.32-0.172s3.868,0,5.765,0c2.464,0,2.932-1.7,3.203-2.735c0.222-0.862,2.759-13.181,3.548-17.074	C37.297,7.601,36.533,6,33.725,6"/><path d="M14.149,36.19l-0.073-1.034l-0.001-24.155c0-1.122,0.913-2.035,2.035-2.035h15.546	c0.574,0,1.14,0.277,1.515,0.741c0.383,0.474,0.529,1.094,0.399,1.7l-0.86,4.157C32.5,16.5,31.635,17.2,30.694,17.2h-7.49	c-0.281,0-0.528,0.247-0.528,0.528v0.911c0,0.281,0.247,0.528,0.528,0.528h6.332c0.589,0,1.145,0.267,1.526,0.731	c0.38,0.464,0.532,1.064,0.416,1.647c-0.122,0.636-0.791,3.904-0.865,4.251c-0.098,0.762-0.899,1.628-2.012,1.628h-5.174	c-0.805,0.019-0.805,0.019-1.17,0.468c-0.641,0.788-6.302,7.877-6.302,7.877l-0.272,0.342l-0.53,0.079H14.149z" opacity=".05"/><path d="M14.574,35.121v-24.12c0-0.846,0.688-1.535,1.535-1.535h15.546c0.424,0,0.845,0.208,1.126,0.555	c0.289,0.357,0.397,0.824,0.299,1.281l-0.861,4.161c-0.158,0.708-0.812,1.236-1.524,1.236h-7.49c-0.557,0-1.028,0.471-1.028,1.028	v0.911c0,0.557,0.471,1.028,1.028,1.028h6.332c0.438,0,0.854,0.2,1.139,0.548c0.285,0.348,0.399,0.797,0.312,1.232	c-0.123,0.638-0.79,3.898-0.864,4.244c-0.075,0.573-0.683,1.233-1.523,1.233h-5.174c-0.987,0.022-1.047,0.024-1.558,0.653	c-0.641,0.788-6.305,7.881-6.305,7.881l-0.15,0.188l-0.299,0.044h-0.5L14.574,35.121z" opacity=".07"/><path fill="#fff" d="M23.204,16.2c-0.838,0-1.528,0.69-1.528,1.527v0.912c0,0.838,0.69,1.527,1.528,1.527h6.332	c0.591,0,1.084,0.567,0.961,1.183c-0.123,0.641-0.788,3.893-0.862,4.238c-0.049,0.37-0.443,0.838-1.035,0.838h-5.174	c-1.084,0.025-1.306,0.049-1.946,0.838c-0.641,0.788-6.307,7.884-6.307,7.884c-0.049,0.074-0.099,0.049-0.099-0.025v-24.12	c0-0.567,0.468-1.035,1.035-1.035h15.546c0.542,0,1.084,0.542,0.936,1.232l-0.862,4.164c-0.099,0.443-0.517,0.838-1.035,0.838	H23.204z"/></svg>