<svg xmlns="http://www.w3.org/2000/svg" viewBox="0 0 48 48"><path fill="#33c481" d="M42,7H6C4.895,7,4,7.895,4,9v30c0,1.105,0.895,2,2,2h36c1.105,0,2-0.895,2-2V9	C44,7.895,43.105,7,42,7z"/><path fill="#c9f5e0" d="M37,39H11c0-2.761-2.239-5-5-5V14c2.761,0,5-2.239,5-5h26c0,2.761,2.239,5,5,5v20	C39.239,34,37,36.239,37,39z"/><path fill="#61e3a7" d="M34,33H14c-0.552,0-1-0.448-1-1v0c0-0.552,0.448-1,1-1h20c0.552,0,1,0.448,1,1v0	C35,32.552,34.552,33,34,33z"/><path fill="#61e3a7" d="M32,37H16c-0.552,0-1-0.448-1-1l0,0c0-0.552,0.448-1,1-1h16c0.552,0,1,0.448,1,1l0,0	C33,36.552,32.552,37,32,37z"/><path fill="#107c42" d="M28,23.554c0-3.918-5.784-3.152-5.784-5.467c0-1.208,1.358-1.272,1.783-1.272	c1.021,0,2.006,0.274,2.757,0.626c0.237,0.111,0.509-0.053,0.509-0.315v-1.14c0-0.382-0.144-0.609-0.373-0.698	c-0.515-0.2-1.255-0.346-2.348-0.383v-1.255c0-0.15-0.122-0.272-0.272-0.272h-0.544c-0.15,0-0.272,0.122-0.272,0.272v1.275	C21.759,15.092,20,16.049,20,18.277c0,4.061,5.783,3.256,5.783,5.394c0,0.672-0.429,1.252-1.783,1.252	c-1.361,0-2.611-0.475-3.303-0.829c-0.233-0.119-0.507,0.054-0.507,0.315v1.298c0,0.249,0.15,0.47,0.379,0.567	c0.82,0.348,1.92,0.612,2.887,0.689v1.386c0,0.15,0.122,0.272,0.272,0.272h0.544c0.15,0,0.272-0.122,0.272-0.272v-1.383	C27.082,26.754,28,25.054,28,23.554z"/><path fill="#61e3a7" d="M14,24h-2c-0.552,0-1-0.448-1-1v-2c0-0.552,0.448-1,1-1h2c0.552,0,1,0.448,1,1v2	C15,23.552,14.552,24,14,24z"/><path fill="#61e3a7" d="M36,24h-2c-0.552,0-1-0.448-1-1v-2c0-0.552,0.448-1,1-1h2c0.552,0,1,0.448,1,1v2	C37,23.552,36.552,24,36,24z"/></svg>