<svg xmlns="http://www.w3.org/2000/svg" viewBox="0 0 48 48"><linearGradient id="S135qlG0s8KMxiFrb_JAka" x1="23.803" x2="23.803" y1="6.038" y2="41.925" gradientTransform="translate(.174 .12)" gradientUnits="userSpaceOnUse"><stop offset="0" stop-color="#0077d2"/><stop offset="1" stop-color="#0b59a2"/></linearGradient><path fill="url(#S135qlG0s8KMxiFrb_JAka)" d="M40.004,41.969L8.031,42c-1.099,0.001-1.999-0.897-2-1.996L6,8.031	c-0.001-1.099,0.897-1.999,1.996-2L39.969,6c1.099-0.001,1.999,0.897,2,1.996L42,39.969C42.001,41.068,41.103,41.968,40.004,41.969z"/><path d="M21,22.441v11c0,1.105,0.895,2,2,2h2c1.105,0,2-0.895,2-2v-11h3.648c1.336,0,2.006-1.616,1.061-2.561	l-6.295-6.295c-0.781-0.781-2.047-0.781-2.828,0l-6.295,6.295c-0.945,0.945-0.276,2.561,1.061,2.561H21z" opacity=".05"/><path d="M21.5,21.941v11.5c0,0.828,0.672,1.5,1.5,1.5h2c0.828,0,1.5-0.672,1.5-1.5v-11.5h4.021	c0.938,0,1.408-1.134,0.745-1.798l-6.129-6.13c-0.627-0.627-1.644-0.627-2.271,0l-6.129,6.13c-0.663,0.663-0.194,1.798,0.745,1.798	H21.5z" opacity=".07"/><path fill="#fff" d="M17.607,21.441H22v12c0,0.552,0.448,1,1,1h2c0.552,0,1-0.448,1-1v-12h4.393	c0.54,0,0.81-0.653,0.428-1.034l-5.964-5.964c-0.473-0.473-1.241-0.473-1.714,0l-5.964,5.964	C16.797,20.788,17.067,21.441,17.607,21.441z"/></svg>