<svg xmlns="http://www.w3.org/2000/svg" data-name="Слой 1" viewBox="0 0 48 48"><path fill="#184f85" d="M39,26a.99676.99676,0,0,1-.707-.293l-9.17139-9.17139a3.00363,3.00363,0,0,0-4.24316,0l-1.84278,1.84278a5.00467,5.00467,0,0,1-7.07128,0L13.793,16.207A.99989.99989,0,0,1,15.207,14.793l2.17139,2.17139a3.00363,3.00363,0,0,0,4.24316,0l1.84278-1.84278a5.00467,5.00467,0,0,1,7.07128,0L39.707,24.293A1,1,0,0,1,39,26Z"/><rect width="40" height="18" x="4" y="24" fill="#199be2" rx="2"/><rect width="14" height="18" x="19" y="24" fill="#0078d4"/><rect width="7" height="14" x="35" y="26" fill="#0078d4" rx="3.5"/><path d="M38.5,27A2.5,2.5,0,1,1,36,29.5,2.5,2.5,0,0,1,38.5,27m0-1A3.5,3.5,0,1,0,42,29.5,3.504,3.504,0,0,0,38.5,26Z" opacity=".05"/><path d="M38.5,27A2.5,2.5,0,1,1,36,29.5,2.5,2.5,0,0,1,38.5,27m0-.5a3,3,0,1,0,3,3,3.00339,3.00339,0,0,0-3-3Z" opacity=".07"/><circle cx="38.5" cy="29.5" r="2.5" fill="#fff"/><path d="M38.5,34A2.5,2.5,0,1,1,36,36.5,2.5,2.5,0,0,1,38.5,34m0-1A3.5,3.5,0,1,0,42,36.5,3.504,3.504,0,0,0,38.5,33Z" opacity=".05"/><path d="M38.5,34A2.5,2.5,0,1,1,36,36.5,2.5,2.5,0,0,1,38.5,34m0-.5a3,3,0,1,0,3,3,3.00339,3.00339,0,0,0-3-3Z" opacity=".07"/><circle cx="38.5" cy="36.5" r="2.5" fill="#fff"/><rect width="10" height="7" x="21" y="27" fill="#50e6ff" rx="1"/><path d="M24,36a1,1,0,0,1,1,1v1a1,1,0,0,1-1,1H22a1,1,0,0,1-1-1V37a1,1,0,0,1,1-1h2m0-1H22a2.00227,2.00227,0,0,0-2,2v1a2.00227,2.00227,0,0,0,2,2h2a2.00227,2.00227,0,0,0,2-2V37a2.00227,2.00227,0,0,0-2-2Z" opacity=".05"/><path d="M24,36a1,1,0,0,1,1,1v1a1,1,0,0,1-1,1H22a1,1,0,0,1-1-1V37a1,1,0,0,1,1-1h2m0-.5H22A1.5017,1.5017,0,0,0,20.5,37v1A1.5017,1.5017,0,0,0,22,39.5h2A1.5017,1.5017,0,0,0,25.5,38V37A1.5017,1.5017,0,0,0,24,35.5Z" opacity=".07"/><rect width="4" height="3" x="21" y="36" fill="#fff" rx="1"/><path d="M30,36a1,1,0,0,1,1,1v1a1,1,0,0,1-1,1H28a1,1,0,0,1-1-1V37a1,1,0,0,1,1-1h2m0-1H28a2.00227,2.00227,0,0,0-2,2v1a2.00227,2.00227,0,0,0,2,2h2a2.00227,2.00227,0,0,0,2-2V37a2.00227,2.00227,0,0,0-2-2Z" opacity=".05"/><path d="M30,36a1,1,0,0,1,1,1v1a1,1,0,0,1-1,1H28a1,1,0,0,1-1-1V37a1,1,0,0,1,1-1h2m0-.5H28A1.5017,1.5017,0,0,0,26.5,37v1A1.5017,1.5017,0,0,0,28,39.5h2A1.5017,1.5017,0,0,0,31.5,38V37A1.5017,1.5017,0,0,0,30,35.5Z" opacity=".07"/><rect width="4" height="3" x="27" y="36" fill="#e52030" rx="1"/><rect width="11" height="2" x="6" y="28" fill="#184f85" rx="1"/><rect width="11" height="2" x="6" y="32" fill="#184f85" rx="1"/><rect width="11" height="2" x="6" y="36" fill="#184f85" rx="1"/><path fill="#199be2" d="M6.40534,7.47243C4.50115,9.37661,2.89762,12.18279,4.902,14.1872c7.8172,7.717,9.72139,6.01323,11.42514,4.61014a4.683,4.683,0,0,0,1.40309-1.40308c1.40309-1.60353,3.30727-3.70816-4.61015-11.42514C11.11571,3.86449,8.30953,5.56824,6.40534,7.47243Z"/><g><path d="M14.5,14A1.5,1.5,0,1,1,13,15.5,1.538,1.538,0,0,1,14.5,14m0-1A2.5,2.5,0,1,0,17,15.5,2.53349,2.53349,0,0,0,14.5,13Z" opacity=".05"/><path d="M14.5,14A1.5,1.5,0,1,1,13,15.5,1.538,1.538,0,0,1,14.5,14m0-.5a2,2,0,1,0,2,2,2.02679,2.02679,0,0,0-2-2Z" opacity=".07"/><circle cx="14.5" cy="15.5" r="1.5" fill="#e52030"/></g><path fill="#184f85" d="M7,14a.90783.90783,0,0,1-.7-.3.96667.96667,0,0,1,0-1.4l5-5a.98995.98995,0,0,1,1.4,1.4l-5,5A.90783.90783,0,0,1,7,14Z"/><path fill="#184f85" d="M10,15a.90783.90783,0,0,1-.7-.3.96667.96667,0,0,1,0-1.4l3-3a.98995.98995,0,0,1,1.4,1.4l-3,3A.90783.90783,0,0,1,10,15Z"/></svg>