<svg xmlns="http://www.w3.org/2000/svg" viewBox="0 0 48 48"><linearGradient id="tOOqjMmjAHms7iDoRbCGxa" x1="24" x2="24" y1="-705.283" y2="-715.577" gradientTransform="matrix(1 0 0 -1 0 -704)" gradientUnits="userSpaceOnUse"><stop offset="0" stop-color="#6d6d6d"/><stop offset=".126" stop-color="#626262"/><stop offset=".987" stop-color="#464646"/><stop offset=".998" stop-color="#454545"/></linearGradient><path fill="url(#tOOqjMmjAHms7iDoRbCGxa)" d="M24,4L24,4c0.552,0,1,0.448,1,1v7l0,0h-2l0,0V5C23,4.448,23.448,4,24,4z"/><linearGradient id="tOOqjMmjAHms7iDoRbCGxb" x1="24" x2="24" y1="-705.283" y2="-715.577" gradientTransform="matrix(1 0 0 -1 0 -704)" gradientUnits="userSpaceOnUse"><stop offset="0" stop-color="#6d6d6d"/><stop offset=".126" stop-color="#626262"/><stop offset=".987" stop-color="#464646"/><stop offset=".998" stop-color="#454545"/></linearGradient><path fill="url(#tOOqjMmjAHms7iDoRbCGxb)" d="M27,7L27,7c0,0.552-0.448,1-1,1h-4c-0.552,0-1-0.448-1-1l0,0c0-0.552,0.448-1,1-1h4	C26.552,6,27,6.448,27,7z"/><linearGradient id="tOOqjMmjAHms7iDoRbCGxc" x1="10" x2="10" y1="15.457" y2="47.363" gradientUnits="userSpaceOnUse"><stop offset="0" stop-color="#dfe9f2"/><stop offset=".391" stop-color="#d6e0e9"/><stop offset="1" stop-color="#bfc8d1"/></linearGradient><polygon fill="url(#tOOqjMmjAHms7iDoRbCGxc)" points="16,23 16,43 4,43 4,27"/><linearGradient id="tOOqjMmjAHms7iDoRbCGxd" x1="9.316" x2="9.316" y1="-732.316" y2="-726.051" gradientTransform="matrix(1 0 0 -1 0 -704)" gradientUnits="userSpaceOnUse"><stop offset="0" stop-color="#d43a02"/><stop offset="1" stop-color="#b9360c"/></linearGradient><path fill="url(#tOOqjMmjAHms7iDoRbCGxd)" d="M2.658,27.974l-0.316-0.949c-0.087-0.262,0.054-0.545,0.316-0.633c0,0,0,0,0,0l13.026-4.342	l0.633,1.897L3.291,28.291C3.029,28.378,2.746,28.236,2.658,27.974z"/><linearGradient id="tOOqjMmjAHms7iDoRbCGxe" x1="38" x2="38" y1="15.457" y2="47.363" gradientUnits="userSpaceOnUse"><stop offset="0" stop-color="#dfe9f2"/><stop offset=".391" stop-color="#d6e0e9"/><stop offset="1" stop-color="#bfc8d1"/></linearGradient><polygon fill="url(#tOOqjMmjAHms7iDoRbCGxe)" points="44,27 44,43 32,43 32,23"/><linearGradient id="tOOqjMmjAHms7iDoRbCGxf" x1="-1912.184" x2="-1912.184" y1="-732.317" y2="-726.051" gradientTransform="rotate(180 -936.75 -352)" gradientUnits="userSpaceOnUse"><stop offset="0" stop-color="#d43a02"/><stop offset="1" stop-color="#b9360c"/></linearGradient><path fill="url(#tOOqjMmjAHms7iDoRbCGxf)" d="M44.709,28.291l-13.026-4.342l0.633-1.897l13.026,4.342c0.262,0.087,0.404,0.37,0.316,0.632	c0,0,0,0,0,0l-0.316,0.949C45.254,28.236,44.971,28.378,44.709,28.291z"/><path d="M4,28.05v1.06l12-4v-1.05L4,28.05z" opacity=".05"/><path d="M4,28.05v0.53l12-4v-0.52L4,28.05z" opacity=".07"/><path d="M32,24.06v1.05l12,4v-1.06L32,24.06z" opacity=".05"/><path d="M32,24.06v0.52l12,4v-0.53L32,24.06z" opacity=".07"/><linearGradient id="tOOqjMmjAHms7iDoRbCGxg" x1="24" x2="24" y1="16.304" y2="45.661" gradientUnits="userSpaceOnUse"><stop offset="0" stop-color="#fcfcfc"/><stop offset=".495" stop-color="#f4f4f4"/><stop offset=".946" stop-color="#e8e8e8"/><stop offset="1" stop-color="#e8e8e8"/></linearGradient><polygon fill="url(#tOOqjMmjAHms7iDoRbCGxg)" points="33,19 33,43 15,43 15,19 24,12"/><linearGradient id="tOOqjMmjAHms7iDoRbCGxh" x1="24" x2="24" y1="-724.578" y2="-715" gradientTransform="matrix(1 0 0 -1 0 -704)" gradientUnits="userSpaceOnUse"><stop offset="0" stop-color="#d43a02"/><stop offset="1" stop-color="#b9360c"/></linearGradient><path fill="url(#tOOqjMmjAHms7iDoRbCGxh)" d="M32.985,20.469L24,13.281l-8.985,7.188c-0.216,0.172-0.53,0.138-0.703-0.078l-0.625-0.781	c-0.173-0.216-0.138-0.53,0.078-0.703c0,0,0,0,0,0l9.61-7.688c0.365-0.292,0.884-0.292,1.249,0l9.61,7.688	c0.216,0.173,0.251,0.487,0.078,0.703c0,0,0,0,0,0l-0.625,0.781C33.515,20.606,33.2,20.641,32.985,20.469z"/><path d="M32.98,20.47L24,13.28l-8.98,7.19c-0.01,0-0.01,0.01-0.02,0.01v1.07	c0.235-0.046,0.455-0.149,0.64-0.3L24,14.56l8.36,6.69c0.185,0.151,0.405,0.254,0.64,0.3v-1.07C32.99,20.48,32.99,20.47,32.98,20.47	z" opacity=".05"/><path d="M32.98,20.47L24,13.28l-8.98,7.19c-0.01,0-0.01,0.01-0.02,0.01v0.55	c0.121-0.032,0.234-0.09,0.33-0.17L24,13.92l8.67,6.94c0.096,0.08,0.209,0.138,0.33,0.17v-0.55C32.99,20.48,32.99,20.47,32.98,20.47	z" opacity=".07"/><path fill="#ed3675" d="M22.5,31c-1.933,0-3.5,1.567-3.5,3.5s1.567,3.5,3.5,3.5s3.5-1.567,3.5-3.5S24.433,31,22.5,31z"/><linearGradient id="tOOqjMmjAHms7iDoRbCGxi" x1="25.25" x2="29" y1="24.5" y2="24.5" gradientUnits="userSpaceOnUse"><stop offset="0" stop-color="#bd1949"/><stop offset=".108" stop-color="#c31a4b"/><stop offset=".38" stop-color="#ca1b4d"/><stop offset="1" stop-color="#cc1b4e"/></linearGradient><path fill="url(#tOOqjMmjAHms7iDoRbCGxi)" d="M28,23h-2.75v3H28c0.552,0,1-0.448,1-1v-1C29,23.448,28.552,23,28,23z"/><path fill="#ed3675" d="M26,23h-1c-0.55,0-1,0.45-1,1v10.5h2V23z"/></svg>