<svg xmlns="http://www.w3.org/2000/svg" viewBox="0 0 48 48"><linearGradient id="eKpHRhFqpmDm1e6wM~0YLa" x1="10.5" x2="10.5" y1="9.868" y2="21.698" gradientUnits="userSpaceOnUse"><stop offset="0" stop-color="#f44f5a"/><stop offset=".443" stop-color="#ee3d4a"/><stop offset="1" stop-color="#e52030"/></linearGradient><path fill="url(#eKpHRhFqpmDm1e6wM~0YLa)" d="M5,11.043L5,14.5c0,0.552,0.448,1,1,1l1.5,0c3.038,0,5.5,2.462,5.5,5.5h3	c0-5.238-3.333-10.435-9.9-10.957C5.511,9.996,5,10.453,5,11.043z"/><path fill="#195bbc" d="M36,25c0,0-5.27-1-12-1s-12,1-12,1L5,38l4,2c0,0,6-13,15-13s15,13,15,13l4-2L36,25z"/><linearGradient id="eKpHRhFqpmDm1e6wM~0YLb" x1="24" x2="24" y1="21.01" y2="25.14" gradientUnits="userSpaceOnUse"><stop offset="0" stop-color="#eba84b"/><stop offset=".252" stop-color="#e9a144"/><stop offset=".624" stop-color="#e28d31"/><stop offset="1" stop-color="#d97218"/></linearGradient><path fill="url(#eKpHRhFqpmDm1e6wM~0YLb)" d="M36,25H12c-0.552,0-1-0.448-1-1v-2c0-0.552,0.448-1,1-1h24c0.552,0,1,0.448,1,1v2	C37,24.552,36.552,25,36,25z"/><radialGradient id="eKpHRhFqpmDm1e6wM~0YLc" cx="24" cy="14.701" r="30.267" gradientUnits="userSpaceOnUse"><stop offset=".717" stop-color="#eba84b"/><stop offset=".788" stop-color="#e9a144"/><stop offset=".893" stop-color="#e28d31"/><stop offset="1" stop-color="#d97218"/></radialGradient><path fill="url(#eKpHRhFqpmDm1e6wM~0YLc)" d="M45.697,34.061c0.384,0.384,0.408,1.01,0.04,1.41C40.329,41.337,32.579,45.008,23.971,45	c-8.587-0.008-16.314-3.677-21.709-9.529c-0.368-0.4-0.344-1.026,0.04-1.41l0.914-0.914c0.37-0.37,0.953-0.392,1.361-0.065	c5.314,4.258,12.052,6.811,19.392,6.818c7.361,0.007,14.122-2.549,19.451-6.819c0.408-0.327,0.991-0.305,1.361,0.065L45.697,34.061z"/><linearGradient id="eKpHRhFqpmDm1e6wM~0YLd" x1="34.274" x2="34.274" y1="1.77" y2="21.024" gradientUnits="userSpaceOnUse"><stop offset="0" stop-color="#f44f5a"/><stop offset=".443" stop-color="#ee3d4a"/><stop offset="1" stop-color="#e52030"/></linearGradient><path fill="url(#eKpHRhFqpmDm1e6wM~0YLd)" d="M25,21C25,5,38,2,38,2v3l5.548,6.733l-2.213,3.154l-3.764-1.122	C36.289,13.384,35,14.345,35,15.683V21H25z"/><linearGradient id="eKpHRhFqpmDm1e6wM~0YLe" x1="42" x2="42" y1="1.77" y2="21.024" gradientUnits="userSpaceOnUse"><stop offset="0" stop-color="#f44f5a"/><stop offset=".443" stop-color="#ee3d4a"/><stop offset="1" stop-color="#e52030"/></linearGradient><circle cx="42" cy="13" r="2" fill="url(#eKpHRhFqpmDm1e6wM~0YLe)"/><radialGradient id="eKpHRhFqpmDm1e6wM~0YLf" cx="32.5" cy="10.5" r="2.5" gradientUnits="userSpaceOnUse"><stop offset="0"/><stop offset=".051" stop-opacity=".949"/><stop offset="1" stop-opacity="0"/></radialGradient><circle cx="32.5" cy="10.5" r="2.5" fill="url(#eKpHRhFqpmDm1e6wM~0YLf)"/><linearGradient id="eKpHRhFqpmDm1e6wM~0YLg" x1="32.5" x2="32.5" y1="8.025" y2="11.05" gradientUnits="userSpaceOnUse"><stop offset="0" stop-color="#eba84b"/><stop offset="1" stop-color="#e28e32"/></linearGradient><circle cx="32.5" cy="9.5" r="1.5" fill="url(#eKpHRhFqpmDm1e6wM~0YLg)"/></svg>