<svg xmlns="http://www.w3.org/2000/svg" viewBox="0 0 48 48"><path fill="#35c1f1" d="M33,42l-1-1l-1,1l-1-1l-1,1l-1-1l-1,1l-1-1l-1,1l-1-1l-1,1l-1-1l-1,1l-1-1l-1,1l-1-1l-1,1V6l1,1l1-1	l1,1l1-1l1,1l1-1l1,1l1-1l1,1l1-1l1,1l1-1l1,1l1-1l1,1l1-1V42z"/><linearGradient id="fVyPU55cC2blBMB0cXrWAa" x1="-1.304" x2="18.97" y1="24" y2="24" gradientUnits="userSpaceOnUse"><stop offset="0" stop-color="#b9360c"/><stop offset=".537" stop-color="#b5350c"/><stop offset=".999" stop-color="#ab320b"/></linearGradient><path fill="url(#fVyPU55cC2blBMB0cXrWAa)" d="M17,42H7c-1.105,0-2-0.895-2-2V8c0-1.105,0.895-2,2-2h10V42z"/><path fill="#fff" d="M7,8h8v32H7V8z"/><path fill="#1b9de2" d="M33,42l-1-1V7l1-1V42z M31,42l-1-1V7l1-1V42z M29,42l-1-1V7l1-1V42z M27,42l-1-1V7l1-1V42z M25,42	l-1-1V7l1-1V42z M23,42l-1-1V7l1-1V42z M21,42l-1-1V7l1-1V42z M19,42l-1-1V7l1-1V42z"/><linearGradient id="fVyPU55cC2blBMB0cXrWAb" x1="43.435" x2="32.39" y1="24" y2="24" gradientUnits="userSpaceOnUse"><stop offset="0" stop-color="#b9360c"/><stop offset=".537" stop-color="#b5350c"/><stop offset=".999" stop-color="#ab320b"/></linearGradient><path fill="url(#fVyPU55cC2blBMB0cXrWAb)" d="M40,42h-7V6h7c1.105,0,2,0.895,2,2v32C42,41.105,41.105,42,40,42z"/><linearGradient id="fVyPU55cC2blBMB0cXrWAc" x1="5.413" x2="16.174" y1="24" y2="24" gradientUnits="userSpaceOnUse"><stop offset="0" stop-color="#6d7479"/><stop offset="1" stop-color="#323538"/></linearGradient><path fill="url(#fVyPU55cC2blBMB0cXrWAc)" d="M9.5,11H15v2H9.5C9.224,13,9,12.776,9,12.5v-1C9,11.224,9.224,11,9.5,11z M9.5,15H15v2H9.5	C9.224,17,9,16.776,9,16.5v-1C9,15.224,9.224,15,9.5,15z M9.5,35H15v2H9.5C9.224,37,9,36.776,9,36.5v-1C9,35.224,9.224,35,9.5,35z M9.5,21H15v2H9.5C9.224,23,9,22.776,9,22.5v-1C9,21.224,9.224,21,9.5,21z M9.5,25H15v2H9.5C9.224,27,9,26.776,9,26.5v-1	C9,25.224,9.224,25,9.5,25z M9.5,29H15v2H9.5C9.224,31,9,30.776,9,30.5v-1C9,29.224,9.224,29,9.5,29z"/><circle cx="39" cy="12" r="1" fill="#fff"/><circle cx="36" cy="14" r="1" fill="#fff"/><circle cx="39" cy="16" r="1" fill="#fff"/><circle cx="36" cy="18" r="1" fill="#fff"/><circle cx="39" cy="20" r="1" fill="#fff"/><circle cx="36" cy="22" r="1" fill="#fff"/><circle cx="39" cy="24" r="1" fill="#fff"/><circle cx="36" cy="26" r="1" fill="#fff"/><circle cx="39" cy="28" r="1" fill="#fff"/><circle cx="36" cy="30" r="1" fill="#fff"/><circle cx="39" cy="32" r="1" fill="#fff"/><circle cx="39" cy="36" r="1" fill="#fff"/><circle cx="36" cy="34" r="1" fill="#fff"/></svg>