<svg xmlns="http://www.w3.org/2000/svg" data-name="Слой 1" viewBox="0 0 48 48"><defs><radialGradient id="86i8hGGwhbs9DBTjj7zk~a" cx="18.429" cy="25.414" r="31.384" data-name="Безымянный градиент 246" gradientTransform="translate(1)" gradientUnits="userSpaceOnUse"><stop offset="0" stop-color="#c26715"/><stop offset=".508" stop-color="#b85515"/><stop offset="1" stop-color="#ad3f16"/></radialGradient><linearGradient id="86i8hGGwhbs9DBTjj7zk~b" x1="25" x2="25" y1="37.765" y2="46.478" data-name="Новый образец градиентной зал 2" gradientUnits="userSpaceOnUse"><stop offset="0" stop-color="#2aa4f4"/><stop offset="1" stop-color="#007ad9"/></linearGradient></defs><path fill="url(#86i8hGGwhbs9DBTjj7zk~a)" d="M28.24219,20.23179A6.16742,6.16742,0,0,0,30,16.0023H28a4.0089,4.0089,0,0,1-4,4H11a2,2,0,0,0-2,2V33.00456a2,2,0,0,0,2,2H22a1,1,0,0,1,1,1v3h4v-5a2.00006,2.00006,0,0,0-2-2H13a1,1,0,0,1-1-1V23.0023a1,1,0,0,1,1-1H26A8.6602,8.6602,0,0,1,33.168,25.557L34.832,24.44761A10.21788,10.21788,0,0,0,28.24219,20.23179Z"/><path fill="#33c481" d="M38.5,9.0023a3.46105,3.46105,0,0,0-1.59058.39893,4.49782,4.49782,0,0,0-8.57214-2.59784A3.99734,3.99734,0,0,0,21,9.0023c0,.12671.02576.24628.03735.37A3.46393,3.46393,0,0,0,19.5,9.0023a3.5,3.5,0,1,0,0,7h19a3.5,3.5,0,0,0,0-7Z"/><path fill="#33c481" d="M17.5,21.0023a3.46216,3.46216,0,0,0-1.56213.38349,3.98329,3.98329,0,0,0-7.87574,0A3.46216,3.46216,0,0,0,6.5,21.0023a3.5,3.5,0,0,0,0,7h11a3.5,3.5,0,0,0,0-7Z"/><path fill="#33c481" d="M37.5,21.0023a4.49513,4.49513,0,0,0-4.37683,3.49079A3.11911,3.11911,0,1,0,31.125,30.0023H37.5a4.5,4.5,0,0,0,0-9Z"/><path fill="url(#86i8hGGwhbs9DBTjj7zk~b)" d="M37.76,39.10458A15.94955,15.94955,0,0,1,25,45.0023a15.94955,15.94955,0,0,1-12.76-5.89772c-.38-.45-.31-1.1.26-1.1h25C38.07,38.0046,38.14,38.65457,37.76,39.10458Z"/></svg>