<svg xmlns="http://www.w3.org/2000/svg" viewBox="0 0 48 48"><linearGradient id="IBdk2L92CVGcYiBMP8ckQa" x1="20" x2="28" y1="24" y2="24" gradientUnits="userSpaceOnUse"><stop offset="0" stop-color="#7819a2"/><stop offset="1" stop-color="#771aa9"/></linearGradient><path fill="url(#IBdk2L92CVGcYiBMP8ckQa)" d="M28,23.998C28,21.799,26.2,20,24,20s-4,1.799-4,3.998S21.8,28,24,28S28,26.197,28,23.998z"/><linearGradient id="IBdk2L92CVGcYiBMP8ckQb" x1="2" x2="46" y1="24" y2="24" gradientUnits="userSpaceOnUse"><stop offset="0" stop-color="#c965eb"/><stop offset="1" stop-color="#c767e5"/></linearGradient><path fill="url(#IBdk2L92CVGcYiBMP8ckQb)" d="M43,21c1.657,0,3,1.346,3,3c0,1.66-1.343,3-3,3s-3-1.34-3-3C40,22.346,41.343,21,43,21z M5,21	c1.657,0,3,1.346,3,3c0,1.66-1.343,3-3,3s-3-1.34-3-3C2,22.346,3.343,21,5,21z"/><linearGradient id="IBdk2L92CVGcYiBMP8ckQc" x1="11" x2="37" y1="24" y2="24" gradientUnits="userSpaceOnUse"><stop offset="0" stop-color="#ae4cd5"/><stop offset="1" stop-color="#ac4ad5"/></linearGradient><path fill="url(#IBdk2L92CVGcYiBMP8ckQc)" d="M24,11c-1.657,0-3,1.343-3,3s1.343,3,3,3s3-1.343,3-3S25.657,11,24,11z M34,21 c1.657,0,3,1.346,3,3c0,1.66-1.343,3-3,3s-3-1.34-3-3C31,22.346,32.343,21,34,21z M14,21c1.657,0,3,1.346,3,3c0,1.66-1.343,3-3,3 s-3-1.34-3-3C11,22.346,12.343,21,14,21z M24,31c-1.657,0-3,1.343-3,3s1.343,3,3,3s3-1.343,3-3S25.657,31,24,31z"/></svg>