<svg xmlns="http://www.w3.org/2000/svg" viewBox="0 0 48 48"><linearGradient id="ZvZZMSYy2QSDso7ibgK_1a" x1="14.807" x2="31.792" y1="14.806" y2="31.792" gradientUnits="userSpaceOnUse"><stop offset="0" stop-color="#f44f5a"/><stop offset=".443" stop-color="#ee3d4a"/><stop offset="1" stop-color="#e52030"/></linearGradient><path fill="url(#ZvZZMSYy2QSDso7ibgK_1a)" d="M42.799,12.372l-2.587-2.585c-0.006-0.006-0.015-0.004-0.021-0.009l-5.479-5.479	c-0.391-0.391-1.023-0.391-1.414,0s-0.391,1.023,0,1.414l4.502,4.502c0.499,0.499,0.499,1.309,0,1.808l0,0	c-0.499,0.499-1.309,0.499-1.808,0L31.49,7.521c-0.391-0.391-1.023-0.391-1.414,0s-0.391,1.023,0,1.414l4.502,4.502	c0.499,0.499,0.499,1.309,0,1.808v0c-0.499,0.499-1.309,0.499-1.808,0l-4.502-4.502c-0.391-0.391-1.023-0.391-1.414,0	s-0.391,1.023,0,1.414l4.502,4.502c0.499,0.499,0.499,1.309,0,1.808l0,0c-0.499,0.499-1.309,0.499-1.808,0l-4.502-4.502	c-0.391-0.391-1.023-0.391-1.414,0s-0.391,1.023,0,1.414l4.502,4.502c0.499,0.499,0.499,1.309,0,1.808l0,0	c-0.499,0.499-1.309,0.499-1.808,0l-4.502-4.502c-0.391-0.391-1.023-0.391-1.414,0s-0.391,1.023,0,1.414l4.502,4.502	c0.499,0.499,0.499,1.309,0,1.808l-0.001,0.001c-0.499,0.499-1.309,0.499-1.808,0l-4.502-4.502c-0.391-0.391-1.023-0.391-1.414,0	s-0.391,1.023,0,1.414l4.502,4.502c0.499,0.499,0.499,1.309,0,1.808l0,0c-0.499,0.499-1.309,0.499-1.808,0l-4.501-4.501	c-0.391-0.391-1.023-0.391-1.414,0s-0.391,1.023,0,1.414l4.501,4.501c0.499,0.499,0.499,1.309,0,1.808l0,0	c-0.499,0.499-1.309,0.499-1.808,0l-4.502-4.502c-0.391-0.391-1.023-0.391-1.414,0s-0.391,1.023,0,1.414l4.502,4.502	c0.499,0.499,0.499,1.309,0,1.808h0c-0.499,0.499-1.309,0.499-1.808,0l-4.501-4.501c-0.391-0.391-1.023-0.391-1.414,0	s-0.391,1.023,0,1.414l4.501,4.501c0.499,0.499,0.499,1.309,0,1.808l0,0c-0.499,0.499-1.309,0.499-1.808,0l-4.502-4.502	c-0.391-0.391-1.023-0.391-1.414,0s-0.391,1.023,0,1.414l5.478,5.478c0.005,0.007,0.003,0.016,0.009,0.022l2.471,2.47	c0.678,0.677,1.543,1.17,2.494,1.29c1.298,0.163,2.55-0.269,3.455-1.175l24.594-24.593C44.407,16.597,44.407,13.98,42.799,12.372z"/><path fill="#b31523" d="M40.753,13.575l0.043,0.043c-0.439-0.438-1.152-0.438-1.592,0L13.618,39.205	c-0.438,0.438-0.438,1.152,0,1.591l-0.042-0.043c0.507,0.507,1.172,0.76,1.838,0.76s1.331-0.253,1.839-0.76l23.499-23.5	c0.491-0.491,0.763-1.144,0.763-1.838S41.243,14.066,40.753,13.575z"/></svg>