<svg xmlns="http://www.w3.org/2000/svg" viewBox="0 0 48 48"><path fill="#e3a600" d="M42,24H6V8c0-1.105,0.895-2,2-2h32c1.105,0,2,0.895,2,2V24z"/><path fill="#c48c00" d="M40,42H8c-1.105,0-2-0.895-2-2V24h36v16C42,41.105,41.105,42,40,42z"/><path fill="#633412" d="M21.5,27h5c0.552,0,1,0.448,1,1l0,0c0,0.552-0.448,1-1,1h-5c-0.552,0-1-0.448-1-1l0,0	C20.5,27.448,20.948,27,21.5,27z"/><path fill="#633412" d="M21.5,9h5c0.552,0,1,0.448,1,1l0,0c0,0.552-0.448,1-1,1h-5c-0.552,0-1-0.448-1-1l0,0	C20.5,9.448,20.948,9,21.5,9z"/></svg>