<svg xmlns="http://www.w3.org/2000/svg" viewBox="0 0 48 48"><linearGradient id="Y0KLW_Kkx1ZfDhoS7Kg0~a" x1="24" x2="24" y1="8.745" y2="31.859" gradientUnits="userSpaceOnUse"><stop offset="0" stop-color="#9332bf"/><stop offset="1" stop-color="#912fbd"/></linearGradient><path fill="url(#Y0KLW_Kkx1ZfDhoS7Kg0~a)" d="M6,10h36c1.105,0,2,0.895,2,2v14.476c0,0.9-0.602,1.69-1.47,1.928L8.064,37.882	C6.019,38.445,4,36.906,4,34.785V12C4,10.895,4.895,10,6,10z"/><linearGradient id="Y0KLW_Kkx1ZfDhoS7Kg0~b" x1="16.179" x2="33.95" y1="2.512" y2="51.336" gradientUnits="userSpaceOnUse"><stop offset="0" stop-color="#ffd869"/><stop offset="1" stop-color="#fec52b"/></linearGradient><path fill="url(#Y0KLW_Kkx1ZfDhoS7Kg0~b)" d="M12,40H9c-1.105,0-2-0.895-2-2V10c0-1.105,0.895-2,2-2h3c1.105,0,2,0.895,2,2v28	C14,39.105,13.105,40,12,40z M23,36V10c0-1.105-0.895-2-2-2h-3c-1.105,0-2,0.895-2,2v26c0,1.105,0.895,2,2,2h3	C22.105,38,23,37.105,23,36z M32,34V10c0-1.105-0.895-2-2-2h-3c-1.105,0-2,0.895-2,2v24c0,1.105,0.895,2,2,2h3	C31.105,36,32,35.105,32,34z M41,32V10c0-1.105-0.895-2-2-2h-3c-1.105,0-2,0.895-2,2v22c0,1.105,0.895,2,2,2h3	C40.105,34,41,33.105,41,32z"/><circle cx="10.5" cy="12.5" r="1.5" fill="#eba600"/><circle cx="10.5" cy="34.5" r="1.5" fill="#eba600"/><circle cx="19.5" cy="12.5" r="1.5" fill="#eba600"/><circle cx="19.5" cy="31.5" r="1.5" fill="#eba600"/><circle cx="28.5" cy="12.5" r="1.5" fill="#eba600"/><circle cx="37.5" cy="12.5" r="1.5" fill="#eba600"/><circle cx="37.5" cy="26.5" r="1.5" fill="#eba600"/><path fill="#ed6c47" d="M42.5,43c-0.384,0-0.768-0.146-1.061-0.439l-22-22c-0.586-0.586-0.586-1.535,0-2.121	s1.535-0.586,2.121,0l22,22c0.586,0.586,0.586,1.535,0,2.121C43.268,42.854,42.884,43,42.5,43z"/><circle cx="20.5" cy="19.5" r="3.5" fill="#ed6c47"/><g><path d="M24.91,20.37C24.97,20.08,25,19.79,25,19.5c0-2.48-2.02-4.5-4.5-4.5S16,17.02,16,19.5c0,2.48,2.02,4.5,4.5,4.5 c0.29,0,0.58-0.03,0.87-0.09l10.57,10.57C31.98,34.33,32,34.17,32,34v-0.88L21.67,22.79C21.3,22.92,20.91,23,20.5,23 c-1.93,0-3.5-1.57-3.5-3.5s1.57-3.5,3.5-3.5s3.5,1.57,3.5,3.5c0,0.41-0.08,0.8-0.21,1.17L33.9,30.78l0.1,0.1L37.12,34h1.42 L24.91,20.37z" opacity=".05"/><path d="M24.35,20.53c0.1-0.35,0.15-0.69,0.15-1.03c0-2.21-1.79-4-4-4s-4,1.79-4,4c0,2.21,1.79,4,4,4c0.34,0,0.68-0.05,1.03-0.15 L32,33.82v-0.7L21.67,22.79C21.3,22.92,20.91,23,20.5,23c-1.93,0-3.5-1.57-3.5-3.5s1.57-3.5,3.5-3.5s3.5,1.57,3.5,3.5 c0,0.41-0.08,0.8-0.21,1.17L33.9,30.78l0.1,0.1L37.12,34h0.7L24.35,20.53z" opacity=".07"/></g></svg>