<svg xmlns="http://www.w3.org/2000/svg" id="Layer_1" x="0" y="0" version="1.1" viewBox="0 0 48 48" xml:space="preserve"><linearGradient id="SVGID_1_" x1="13.341" x2="33.72" y1="-40.971" y2="-58.166" gradientTransform="matrix(1 0 0 -1 0 -18)" gradientUnits="userSpaceOnUse"><stop offset="0" stop-color="#a1aab3"/><stop offset="1" stop-color="#8f979e"/></linearGradient><path fill="url(#SVGID_1_)" d="M41,35H7c-1.1,0-2-0.9-2-2v-3h38v3C43,34.1,42.1,35,41,35z"/><linearGradient id="SVGID_2_" x1="24" x2="24" y1="-52.989" y2="-58.01" gradientTransform="matrix(1 0 0 -1 0 -18)" gradientUnits="userSpaceOnUse"><stop offset="0" stop-color="#484b4f"/><stop offset=".037" stop-color="#4a4e52"/><stop offset=".388" stop-color="#5c6369"/><stop offset=".717" stop-color="#667077"/><stop offset="1" stop-color="#6a747c"/></linearGradient><polygon fill="url(#SVGID_2_)" points="29,40 19,40 20,35 28,35"/><linearGradient id="SVGID_3_" x1="24" x2="24" y1="-57.996" y2="-60.004" gradientTransform="matrix(1 0 0 -1 0 -18)" gradientUnits="userSpaceOnUse"><stop offset="0" stop-color="#a1aab3"/><stop offset="1" stop-color="#8f979e"/></linearGradient><path fill="url(#SVGID_3_)" d="M32.5,40h-17c-0.3,0-0.5,0.2-0.5,0.5v1c0,0.3,0.2,0.5,0.5,0.5h17c0.3,0,0.5-0.2,0.5-0.5v-1	C33,40.2,32.8,40,32.5,40z"/><circle cx="24" cy="33" r="1" fill="#64717c"/><radialGradient id="SVGID_4_" cx="42.958" cy="-49.192" r="34.553" gradientTransform="matrix(1 0 0 -1 0 -18)" gradientUnits="userSpaceOnUse"><stop offset="0" stop-color="#9e6fd9"/><stop offset=".173" stop-color="#aa73c7"/><stop offset=".522" stop-color="#ca7f97"/><stop offset="1" stop-color="#fc914d"/></radialGradient><path fill="url(#SVGID_4_)" d="M41,7H7C5.9,7,5,7.9,5,9v22h38V9C43,7.9,42.1,7,41,7z"/><path d="M21.7,26.9c-1.2-0.4-2.4-1-3.3-1.9l-0.6-0.6l0.5-0.7c0.3-0.4,0.3-0.9,0.1-1.4c-0.2-0.4-0.6-0.6-1.1-0.6	c-0.1,0-0.1,0-0.2,0l-0.9,0.1L16,20.9c-0.2-0.6-0.2-1.3-0.2-1.9c0-0.6,0.1-1.3,0.2-1.9l0.2-0.9l0.9,0.1c0,0,0.1,0,0.2,0	c0.4,0,0.9-0.2,1.1-0.6c0.2-0.4,0.2-1-0.1-1.4l-0.5-0.7l0.6-0.6c0.9-0.9,2.1-1.6,3.3-1.9l0.9-0.3l0.3,0.8c0.2,0.5,0.6,0.8,1.1,0.8	c0.5,0,0.9-0.3,1.1-0.8l0.3-0.8l0.9,0.3c1.2,0.4,2.4,1,3.3,1.9l0.6,0.6l-0.5,0.7c-0.3,0.4-0.3,0.9-0.1,1.4c0.2,0.4,0.6,0.6,1.1,0.6	c0.1,0,0.1,0,0.2,0l0.9-0.1l0.2,0.9c0.2,0.6,0.2,1.3,0.2,1.9c0,0.6-0.1,1.3-0.2,1.9l-0.2,0.9l-0.9-0.1c0,0-0.1,0-0.2,0	c-0.4,0-0.9,0.2-1.1,0.6c-0.2,0.4-0.2,1,0.1,1.4l0.5,0.7L29.7,25c-0.9,0.9-2.1,1.6-3.3,1.9l-0.9,0.3l-0.3-0.8	c-0.2-0.5-0.6-0.8-1.1-0.8c-0.5,0-0.9,0.3-1.1,0.8l-0.3,0.8L21.7,26.9z" opacity=".05"/><path d="M21.8,26.4c-1.2-0.3-2.2-1-3.1-1.8l-0.3-0.3l0.3-0.4c0.4-0.6,0.5-1.3,0.1-1.9c-0.3-0.5-0.9-0.9-1.5-0.9	c-0.1,0-0.1,0-0.2,0l-0.4,0.1l-0.1-0.4c-0.1-0.6-0.2-1.2-0.2-1.8c0-0.6,0.1-1.2,0.2-1.8l0.1-0.4l0.4,0.1c0.1,0,0.1,0,0.2,0	c0.6,0,1.2-0.3,1.5-0.9c0.3-0.6,0.3-1.4-0.1-1.9l-0.3-0.4l0.3-0.3c0.9-0.8,2-1.5,3.1-1.8l0.4-0.1l0.2,0.4c0.3,0.6,0.9,1.1,1.6,1.1	s1.3-0.4,1.6-1.1l0.2-0.4l0.4,0.1c1.2,0.3,2.2,1,3.1,1.8l0.3,0.3L29.4,14c-0.4,0.6-0.5,1.3-0.1,1.9c0.3,0.5,0.9,0.9,1.5,0.9	c0.1,0,0.1,0,0.2,0l0.4-0.1l0.1,0.4c0.1,0.6,0.2,1.2,0.2,1.8c0,0.6-0.1,1.2-0.2,1.8l-0.1,0.4L31,21.2c-0.1,0-0.1,0-0.2,0	c-0.6,0-1.2,0.3-1.5,0.9c-0.3,0.6-0.3,1.4,0.1,1.9l0.3,0.4l-0.3,0.3c-0.9,0.8-2,1.5-3.1,1.8l-0.4,0.1l-0.2-0.4	c-0.3-0.6-0.9-1.1-1.6-1.1s-1.3,0.4-1.6,1.1l-0.2,0.4L21.8,26.4z" opacity=".07"/><linearGradient id="SVGID_5_" x1="12.321" x2="31.598" y1="8.191" y2="26.032" gradientUnits="userSpaceOnUse"><stop offset="0" stop-color="#fff"/><stop offset=".242" stop-color="#f2f2f2"/><stop offset="1" stop-color="#ccc"/></linearGradient><path fill="url(#SVGID_5_)" d="M31,17.3c-0.9,0.1-1.8-0.3-2.2-1.1c-0.5-0.8-0.4-1.8,0.2-2.5c-0.8-0.8-1.8-1.4-2.9-1.7	c-0.3,0.8-1.1,1.4-2.1,1.4c-0.9,0-1.7-0.6-2.1-1.4c-1.1,0.3-2.1,0.9-2.9,1.7c0.5,0.7,0.6,1.7,0.2,2.5c-0.5,0.8-1.3,1.2-2.2,1.1	c-0.1,0.5-0.2,1.1-0.2,1.7c0,0.6,0.1,1.1,0.2,1.7c0.9-0.1,1.8,0.3,2.2,1.1c0.5,0.8,0.4,1.8-0.2,2.5c0.8,0.8,1.8,1.4,2.9,1.7	c0.3-0.8,1.1-1.4,2.1-1.4c0.9,0,1.7,0.6,2.1,1.4c1.1-0.3,2.1-0.9,2.9-1.7c-0.5-0.7-0.6-1.7-0.2-2.5c0.5-0.8,1.3-1.2,2.2-1.1	c0.1-0.5,0.2-1.1,0.2-1.7C31.3,18.4,31.2,17.9,31,17.3z"/><linearGradient id="SVGID_6_" x1="26.806" x2="21.157" y1="231.805" y2="226.157" gradientTransform="translate(0 -210)" gradientUnits="userSpaceOnUse"><stop offset="0" stop-color="#fff"/><stop offset=".242" stop-color="#f2f2f2"/><stop offset="1" stop-color="#ccc"/></linearGradient><circle cx="24" cy="19" r="4" fill="url(#SVGID_6_)"/><linearGradient id="SVGID_7_" x1="22.129" x2="25.412" y1="227.129" y2="230.412" gradientTransform="translate(0 -210)" gradientUnits="userSpaceOnUse"><stop offset="0" stop-color="#0d61a9"/><stop offset=".363" stop-color="#0e5fa4"/><stop offset=".78" stop-color="#135796"/><stop offset="1" stop-color="#16528c"/></linearGradient><circle cx="24" cy="19" r="2" fill="url(#SVGID_7_)"/></svg>