<svg xmlns="http://www.w3.org/2000/svg" viewBox="0 0 48 48"><linearGradient id="ovfvFcwmMGDc4aO47Ieela" x1="7.197" x2="37.988" y1="1.181" y2="42.996" gradientUnits="userSpaceOnUse"><stop offset="0" stop-color="#f0f0f0"/><stop offset="1" stop-color="#bbc1c4"/></linearGradient><path fill="url(#ovfvFcwmMGDc4aO47Ieela)" d="M10.765,6h26.471C38.21,6,39,6.806,39,7.8v32.4c0,0.994-0.79,1.8-1.765,1.8H10.765	C9.79,42,9,41.194,9,40.2V7.8C9,6.806,9.79,6,10.765,6z"/><linearGradient id="ovfvFcwmMGDc4aO47Ieelb" x1="11.509" x2="35.853" y1="8.701" y2="38.517" gradientUnits="userSpaceOnUse"><stop offset="0" stop-color="#33bef0"/><stop offset="1" stop-color="#0a85d9"/></linearGradient><rect width="24" height="30" x="12" y="9" fill="url(#ovfvFcwmMGDc4aO47Ieelb)"/><rect width="30" height="4" x="9" y="19" opacity=".05"/><rect width="30" height="3" x="9" y="19.5" opacity=".07"/><linearGradient id="ovfvFcwmMGDc4aO47Ieelc" x1="8" x2="40" y1="829" y2="829" gradientTransform="matrix(1 0 0 -1 0 850)" gradientUnits="userSpaceOnUse"><stop offset="0" stop-color="#912fbd"/><stop offset="1" stop-color="#9332bf"/></linearGradient><path fill="url(#ovfvFcwmMGDc4aO47Ieelc)" d="M40,21v-1H8v1c0,0.552,0.448,1,1,1h30C39.552,22,40,21.552,40,21z"/><linearGradient id="ovfvFcwmMGDc4aO47Ieeld" x1="8" x2="40" y1="831" y2="831" gradientTransform="matrix(1 0 0 -1 0 850)" gradientUnits="userSpaceOnUse"><stop offset="0" stop-color="#c965eb"/><stop offset="1" stop-color="#c767e5"/></linearGradient><rect width="32" height="2" x="8" y="18" fill="url(#ovfvFcwmMGDc4aO47Ieeld)"/><linearGradient id="ovfvFcwmMGDc4aO47Ieele" x1="8" x2="40" y1="833" y2="833" gradientTransform="matrix(1 0 0 -1 0 850)" gradientUnits="userSpaceOnUse"><stop offset="0" stop-color="#912fbd"/><stop offset="1" stop-color="#9332bf"/></linearGradient><rect width="32" height="2" x="8" y="16" fill="url(#ovfvFcwmMGDc4aO47Ieele)"/><linearGradient id="ovfvFcwmMGDc4aO47Ieelf" x1="8" x2="40" y1="835" y2="835" gradientTransform="matrix(1 0 0 -1 0 850)" gradientUnits="userSpaceOnUse"><stop offset="0" stop-color="#c965eb"/><stop offset="1" stop-color="#c767e5"/></linearGradient><rect width="32" height="2" x="8" y="14" fill="url(#ovfvFcwmMGDc4aO47Ieelf)"/><linearGradient id="ovfvFcwmMGDc4aO47Ieelg" x1="8" x2="40" y1="837" y2="837" gradientTransform="matrix(1 0 0 -1 0 850)" gradientUnits="userSpaceOnUse"><stop offset="0" stop-color="#912fbd"/><stop offset="1" stop-color="#9332bf"/></linearGradient><rect width="32" height="2" x="8" y="12" fill="url(#ovfvFcwmMGDc4aO47Ieelg)"/><linearGradient id="ovfvFcwmMGDc4aO47Ieelh" x1="8" x2="40" y1="839" y2="839" gradientTransform="matrix(1 0 0 -1 0 850)" gradientUnits="userSpaceOnUse"><stop offset="0" stop-color="#c965eb"/><stop offset="1" stop-color="#c767e5"/></linearGradient><rect width="32" height="2" x="8" y="10" fill="url(#ovfvFcwmMGDc4aO47Ieelh)"/><linearGradient id="ovfvFcwmMGDc4aO47Ieeli" x1="6" x2="42" y1="8" y2="8" gradientUnits="userSpaceOnUse"><stop offset="0" stop-color="#7819a2"/><stop offset="1" stop-color="#771aa9"/></linearGradient><path fill="url(#ovfvFcwmMGDc4aO47Ieeli)" d="M6,7v2c0,0.552,0.424,1,0.947,1h34.105C41.576,10,42,9.552,42,9V7c0-0.552-0.424-1-0.947-1	H6.947C6.424,6,6,6.448,6,7z"/><path d="M24.713,36.971c-0.121-0.289-0.4-0.476-0.713-0.476c-0.312,0-0.592,0.187-0.712,0.476l-0.347,0.829	l-0.86-0.255c-1.014-0.3-1.958-0.847-2.73-1.581l-0.65-0.617l0.543-0.713c0.189-0.249,0.21-0.583,0.054-0.854	c-0.137-0.238-0.394-0.386-0.669-0.386l-0.985,0.119l-0.21-0.87c-0.128-0.527-0.193-1.059-0.193-1.579	c0-0.515,0.064-1.045,0.19-1.575l0.208-0.874c0,0,0.906,0.114,0.913,0.114c0.361,0,0.611-0.147,0.746-0.381	c0.156-0.27,0.134-0.604-0.055-0.853L18.7,26.78l0.649-0.617c0.773-0.734,1.717-1.281,2.731-1.581l0.86-0.255l0.346,0.829	c0.121,0.289,0.4,0.476,0.713,0.476c0.312,0,0.592-0.187,0.712-0.476l0.347-0.829l0.86,0.255c1.014,0.3,1.958,0.847,2.73,1.581	l0.65,0.617l-0.543,0.713c-0.189,0.249-0.21,0.583-0.054,0.854c0.137,0.238,0.394,0.386,0.669,0.386l0.985-0.119l0.21,0.87	c0.128,0.528,0.193,1.059,0.193,1.579c0,0.516-0.064,1.046-0.19,1.576l-0.208,0.874c0,0-0.906-0.114-0.913-0.114	c-0.361,0-0.611,0.147-0.746,0.381c-0.156,0.27-0.134,0.604,0.055,0.853l0.542,0.714l-0.649,0.617	c-0.773,0.734-1.717,1.281-2.731,1.581l-0.86,0.255L24.713,36.971z" opacity=".05"/><path d="M22.223,37.065c-0.938-0.278-1.813-0.784-2.528-1.464l-0.325-0.309l0.271-0.356	c0.312-0.409,0.346-0.961,0.089-1.407c-0.226-0.393-0.648-0.636-1.103-0.636c-0.054,0-0.107,0.003-0.161,0.01l-0.444,0.056	l-0.105-0.435c-0.119-0.49-0.179-0.981-0.179-1.461c0-0.477,0.06-0.968,0.177-1.459l0.104-0.437l0.445,0.057	c0.053,0.007,0.106,0.01,0.16,0.01c0.454,0,0.877-0.244,1.104-0.637c0.257-0.444,0.222-0.997-0.09-1.406l-0.271-0.357l0.325-0.308	c0.716-0.68,1.59-1.187,2.529-1.464l0.43-0.127l0.173,0.414c0.199,0.476,0.66,0.784,1.174,0.784c0.514,0,0.975-0.308,1.174-0.784	l0.173-0.414l0.43,0.127c0.938,0.278,1.813,0.784,2.528,1.464l0.325,0.309l-0.271,0.356c-0.312,0.409-0.346,0.961-0.089,1.407	c0.226,0.393,0.648,0.636,1.103,0.636c0.054,0,0.107-0.003,0.161-0.01l0.444-0.056l0.105,0.435c0.119,0.49,0.179,0.982,0.179,1.461	c0,0.478-0.06,0.968-0.177,1.46L29.98,32.96l-0.445-0.057c-0.053-0.007-0.106-0.01-0.16-0.01c-0.454,0-0.877,0.244-1.104,0.637	c-0.257,0.444-0.222,0.997,0.09,1.406l0.271,0.357l-0.325,0.308c-0.716,0.68-1.59,1.187-2.529,1.464l-0.43,0.127l-0.173-0.414	c-0.199-0.476-0.66-0.784-1.174-0.784c-0.514,0-0.975,0.308-1.174,0.784l-0.173,0.414L22.223,37.065z" opacity=".07"/><linearGradient id="ovfvFcwmMGDc4aO47Ieelj" x1="14.231" x2="29.491" y1="367.599" y2="354.067" gradientTransform="matrix(1 0 0 -1 0 390)" gradientUnits="userSpaceOnUse"><stop offset="0" stop-color="#fff"/><stop offset=".242" stop-color="#f2f2f2"/><stop offset="1" stop-color="#ccc"/></linearGradient><path fill="url(#ovfvFcwmMGDc4aO47Ieelj)" d="M29.596,29.72c-0.687,0.087-1.392-0.234-1.76-0.872c-0.368-0.637-0.295-1.408,0.124-1.959	c-0.65-0.618-1.443-1.086-2.326-1.347c-0.268,0.64-0.899,1.091-1.635,1.091s-1.368-0.45-1.635-1.091	c-0.883,0.261-1.676,0.729-2.326,1.347c0.419,0.551,0.492,1.322,0.124,1.959c-0.368,0.637-1.072,0.959-1.76,0.872	c-0.103,0.432-0.163,0.88-0.163,1.344c0,0.464,0.06,0.912,0.165,1.344c0.687-0.087,1.392,0.234,1.76,0.872	c0.368,0.637,0.295,1.408-0.124,1.959c0.65,0.618,1.443,1.086,2.326,1.347c0.268-0.64,0.899-1.091,1.635-1.091	s1.368,0.45,1.635,1.091c0.883-0.261,1.676-0.729,2.326-1.347c-0.419-0.551-0.492-1.322-0.124-1.959	c0.368-0.637,1.072-0.959,1.76-0.872c0.103-0.431,0.163-0.88,0.163-1.344C29.761,30.6,29.701,30.152,29.596,29.72z"/><linearGradient id="ovfvFcwmMGDc4aO47Ieelk" x1="21.737" x2="25.707" y1="718.8" y2="722.771" gradientTransform="translate(0 -690)" gradientUnits="userSpaceOnUse"><stop offset="0" stop-color="#0d61a9"/><stop offset=".363" stop-color="#0e5fa4"/><stop offset=".78" stop-color="#135796"/><stop offset="1" stop-color="#16528c"/></linearGradient><circle cx="24" cy="31.063" r="2.42" fill="url(#ovfvFcwmMGDc4aO47Ieelk)"/><linearGradient id="ovfvFcwmMGDc4aO47Ieell" x1="22.203" x2="25.355" y1="719.267" y2="722.419" gradientTransform="translate(0 -690)" gradientUnits="userSpaceOnUse"><stop offset="0" stop-color="#0d61a9"/><stop offset=".363" stop-color="#0e5fa4"/><stop offset=".78" stop-color="#135796"/><stop offset="1" stop-color="#16528c"/></linearGradient><circle cx="24" cy="31.064" r="1.92" fill="url(#ovfvFcwmMGDc4aO47Ieell)"/></svg>