<svg xmlns="http://www.w3.org/2000/svg" viewBox="0 0 48 48"><path fill="#038387" d="M39,34h-2.909c-0.552,0-1-0.448-1-1s0.448-1,1-1H39c1.654,0,3-1.346,3-3v-6c0-1.654-1.346-3-3-3	h-2.909c-0.552,0-1-0.448-1-1s0.448-1,1-1H39c2.757,0,5,2.243,5,5v6C44,31.757,41.757,34,39,34z M11.909,34H9c-2.757,0-5-2.243-5-5	v-6c0-2.757,2.243-5,5-5h2.909c0.552,0,1,0.448,1,1s-0.448,1-1,1H9c-1.654,0-3,1.346-3,3v6c0,1.654,1.346,3,3,3h2.909	c0.552,0,1,0.448,1,1S12.461,34,11.909,34z"/><path fill="#1a9ba1" d="M9,13l1.876,28.133C10.946,42.184,11.814,43,12.867,43c4.768,0,17.362-0.001,22.269-0.001	c1.053,0,1.919-0.816,1.989-1.867L39,13H9z"/><circle cx="24" cy="6" r="3" fill="#1a9ba1"/><path fill="#37c6d0" d="M34,5H14c-3.314,0-6,2.686-6,6v1c0,0.552,0.448,1,1,1h30c0.552,0,1-0.448,1-1v-1	C40,7.686,37.314,5,34,5z"/><path fill="#37c6d0" d="M30.354,29.584c-0.327,0.105-0.825,0.145-1.418,0.141c0.483,0.344,0.863,0.669,1.065,0.948	c1.089,1.499,0.756,3.596-0.743,4.686c-1.499,1.089-3.596,0.756-4.686-0.743c-0.201-0.277-0.394-0.74-0.573-1.306	c-0.179,0.566-0.371,1.027-0.573,1.306c-1.089,1.499-3.187,1.832-4.686,0.743c-1.499-1.089-1.832-3.187-0.743-4.686	c0.201-0.277,0.582-0.604,1.065-0.948c-0.593,0.004-1.091-0.036-1.418-0.141c-1.762-0.573-2.726-2.465-2.154-4.227	s2.465-2.726,4.227-2.154c0.324,0.105,0.765,0.394,1.237,0.743c-0.192-0.573-0.311-1.067-0.311-1.416	c0-1.852,1.503-3.355,3.355-3.355s3.355,1.503,3.355,3.355c0,0.349-0.119,0.843-0.311,1.416c0.474-0.349,0.913-0.637,1.237-0.743	c1.762-0.573,3.655,0.391,4.227,2.154C33.081,27.12,32.117,29.012,30.354,29.584z"/><path fill="#fff" d="M24,25c-1.657,0-3,1.343-3,3c0,1.657,1.343,3,3,3s3-1.343,3-3C27,26.343,25.657,25,24,25z"/></svg>