<svg xmlns="http://www.w3.org/2000/svg" viewBox="0 0 48 48"><linearGradient id="NzV4XRi5uJ83KK0YBXgh5a" x1="14.67" x2="36.386" y1="41.548" y2=".705" gradientTransform="matrix(1 0 0 -1 0 48)" gradientUnits="userSpaceOnUse"><stop offset="0" stop-color="#f44f5a"/><stop offset=".443" stop-color="#ee3d4a"/><stop offset=".843" stop-color="#e52030"/></linearGradient><path fill="url(#NzV4XRi5uJ83KK0YBXgh5a)" d="M6,10c0-2.2,1.8-4,4-4h28c2.2,0,4,1.8,4,4v28c0,2.2-1.8,4-4,4H10c-2.2,0-4-1.8-4-4V10z"/><path d="M14.783,33.66c-0.603,0-1.169-0.267-1.556-0.732	C11.146,30.417,10,27.246,10,24c0-3.215,1.125-6.359,3.169-8.855c0.383-0.469,0.95-0.738,1.557-0.738	c0.517,0,1.007,0.196,1.381,0.552l2.181,2.077c0.751,0.717,0.833,1.866,0.192,2.674c-0.961,1.218-1.473,2.704-1.479,4.295	c0.004,1.664,0.576,3.221,1.654,4.499c0.356,0.42,0.521,0.953,0.467,1.498c-0.053,0.538-0.317,1.021-0.743,1.359l-2.354,1.867	C15.666,33.511,15.237,33.66,14.783,33.66z" opacity=".05"/><path d="M14.783,33.16c-0.453,0-0.88-0.201-1.171-0.552	C11.605,30.188,10.5,27.131,10.5,24c0-3.099,1.085-6.132,3.056-8.539c0.288-0.353,0.714-0.555,1.17-0.555	c0.387,0,0.755,0.146,1.036,0.414l2.181,2.077c0.563,0.537,0.625,1.396,0.146,2.001c-1.031,1.307-1.581,2.898-1.588,4.604	c0.004,1.784,0.616,3.453,1.772,4.823c0.268,0.316,0.393,0.717,0.352,1.126c-0.04,0.403-0.238,0.765-0.557,1.018l-2.354,1.867	C15.445,33.048,15.124,33.16,14.783,33.16z" opacity=".07"/><path fill="#fff" d="M16,24c0.008-1.846,0.622-3.552,1.697-4.912c0.317-0.401,0.27-0.976-0.099-1.328l-2.181-2.078	c-0.424-0.404-1.103-0.359-1.475,0.095C12.107,18.02,11,20.887,11,24c0,3.144,1.129,6.037,2.997,8.289	c0.351,0.424,0.974,0.498,1.405,0.155l2.355-1.868c0.444-0.352,0.499-0.996,0.134-1.429C16.703,27.74,16.004,25.963,16,24z"/><path d="M33.274,33.594c-0.517,0-1.007-0.196-1.381-0.552l-2.181-2.078	c-0.751-0.716-0.834-1.865-0.192-2.673c0.961-1.218,1.473-2.704,1.479-4.295c-0.007-1.585-0.519-3.069-1.481-4.289	c-0.64-0.807-0.557-1.955,0.192-2.67l2.183-2.079c0.374-0.355,0.864-0.552,1.381-0.552c0.606,0,1.174,0.27,1.557,0.738	C36.875,17.641,38,20.785,38,24s-1.125,6.359-3.169,8.855C34.448,33.324,33.881,33.594,33.274,33.594z" opacity=".05"/><path d="M33.274,33.094c-0.388,0-0.756-0.147-1.036-0.414l-2.181-2.078	c-0.563-0.536-0.625-1.396-0.146-2c1.031-1.307,1.581-2.898,1.588-4.604c-0.007-1.701-0.557-3.293-1.589-4.601	c-0.479-0.604-0.416-1.463,0.146-1.999l2.182-2.078c0.281-0.268,0.649-0.414,1.036-0.414c0.456,0,0.882,0.202,1.17,0.555	C36.415,17.868,37.5,20.901,37.5,24s-1.085,6.132-3.056,8.539C34.156,32.892,33.729,33.094,33.274,33.094L33.274,33.094z" opacity=".07"/><path fill="#fff" d="M34.058,15.777c-0.371-0.454-1.05-0.499-1.475-0.095l-2.181,2.078	c-0.37,0.352-0.416,0.927-0.099,1.328C31.378,20.448,31.992,22.154,32,24c-0.008,1.846-0.622,3.552-1.697,4.912	c-0.317,0.401-0.27,0.976,0.099,1.328l2.181,2.078c0.424,0.404,1.103,0.359,1.475-0.095C35.893,29.98,37,27.113,37,24	S35.893,18.02,34.058,15.777z"/><circle cx="24" cy="24" r="5" opacity=".05"/><circle cx="24" cy="24" r="4.5" opacity=".07"/><circle cx="24" cy="24" r="4" fill="#fff"/></svg>