<svg xmlns="http://www.w3.org/2000/svg" viewBox="0 0 48 48"><path fill="#107c42" d="M7,45c-0.552,0-1-0.448-1-1C6,23.702,21.372,12.626,35.757,9.03c0.537-0.135,1.079,0.192,1.213,0.728	c0.134,0.536-0.192,1.079-0.728,1.213C22.589,14.383,8,24.853,8,44C8,44.552,7.552,45,7,45z"/><path fill="#107c42" d="M7,44c-0.552,0-1-0.448-1-1c0-3.776,4.704-8,11-8c2.099,0,3.419,0.264,4.696,0.52	C22.932,35.767,24.099,36,26,36c3.51,0,5.773-2.188,5.795-2.21c0.393-0.387,1.025-0.383,1.413,0.007	c0.388,0.391,0.388,1.021-0.001,1.41C33.093,35.321,30.364,38,26,38c-2.099,0-3.419-0.264-4.696-0.52C20.068,37.233,18.901,37,17,37	c-5.494,0-9,3.554-9,6C8,43.552,7.552,44,7,44z"/><path fill="#107c42" d="M19.5,19c-0.293,0-0.584-0.128-0.781-0.375c-0.345-0.431-0.275-1.061,0.156-1.405	C21,15.52,21,13.689,21,13c0-0.552,0.448-1,1-1s1,0.448,1,1c0,0.861,0,3.48-2.875,5.781C19.94,18.928,19.72,19,19.5,19z"/><path fill="#107c42" d="M29.25,19c-0.256,0-0.512-0.098-0.707-0.293c-0.763-0.763-4.977-2.506-7.443-0.657	c-0.443,0.333-1.069,0.242-1.4-0.2c-0.332-0.442-0.242-1.069,0.2-1.4c3.42-2.567,8.667-0.548,10.057,0.843	c0.391,0.391,0.391,1.023,0,1.414C29.762,18.902,29.506,19,29.25,19z"/><path fill="#21a366" d="M20.341,9.123C19.132,8.13,17.374,7.998,16.5,8c-0.301,0.001-0.532,0.256-0.497,0.551	c0.096,0.806,0.433,2.35,1.621,3.325C19.291,13.246,22,12.979,22,12.979S22.008,10.493,20.341,9.123z"/><path fill="#21a366" d="M23.659,9.123C24.868,8.13,26.626,7.998,27.5,8c0.301,0.001,0.532,0.256,0.497,0.551	c-0.096,0.806-0.433,2.35-1.621,3.325C24.709,13.246,22,12.979,22,12.979S21.992,10.493,23.659,9.123z"/><path fill="#33c481" d="M24,8.892c0-1.646-1.053-3.066-1.631-3.722c-0.199-0.226-0.539-0.226-0.739,0	C21.053,5.825,20,7.245,20,8.892C20,11.161,22,13,22,13S24,11.161,24,8.892z"/><path fill="#33c481" d="M20.737,34.973c0.906-0.72,1.178-1.766,1.259-2.406c0.039-0.309-0.219-0.571-0.532-0.552	c-0.782,0.048-2.209,0.245-3.174,1.012c-1.388,1.104-1.29,2.972-1.29,2.972S19.35,36.077,20.737,34.973z"/><path fill="#21a366" d="M20.737,37.027c0.906,0.72,1.178,1.766,1.259,2.406c0.039,0.309-0.219,0.571-0.532,0.552	c-0.782-0.048-2.209-0.245-3.174-1.012c-1.388-1.104-1.29-2.972-1.29-2.972S19.35,35.923,20.737,37.027z"/><path fill="#33c481" d="M14.505,20.899c-0.116-1.336-0.961-2.272-1.534-2.761c-0.277-0.236-0.701-0.157-0.885,0.156	c-0.46,0.784-1.196,2.284-1.072,3.706c0.178,2.047,2.068,3.155,2.068,3.155S14.683,22.946,14.505,20.899z"/><path fill="#21a366" d="M16.514,22.222c1.293-0.408,2.492,0.003,3.17,0.338c0.327,0.162,0.416,0.579,0.194,0.867	c-0.555,0.721-1.675,1.969-3.051,2.403c-1.981,0.625-3.743-0.673-3.743-0.673S14.533,22.846,16.514,22.222z"/><path fill="#21a366" d="M32.104,18.361c1.331-0.315,2.348-1.447,2.807-2.045c0.158-0.206,0.101-0.495-0.124-0.623	c-0.614-0.349-1.87-0.913-3.177-0.604c-1.834,0.434-3.074,2.421-3.074,2.421S30.27,18.795,32.104,18.361z"/><path fill="#21a366" d="M30.357,20.627c0.058,1.337-0.775,2.605-1.237,3.201c-0.159,0.205-0.459,0.232-0.647,0.056	c-0.513-0.48-1.414-1.505-1.47-2.818c-0.079-1.842,1.533-3.555,1.533-3.555S30.277,18.784,30.357,20.627z"/><path fill="#33c481" d="M30.339,20.979c1.15,0.847,2.697,0.859,3.459,0.801c0.263-0.02,0.442-0.252,0.389-0.505	c-0.154-0.732-0.592-2.181-1.742-3.028C30.86,17.08,28.521,17.5,28.521,17.5S28.754,19.812,30.339,20.979z"/><path fill="#21a366" d="M37.651,7.147c0.394-1.471-0.192-3.084-0.544-3.859c-0.121-0.266-0.439-0.369-0.686-0.219	c-0.674,0.409-1.903,1.328-2.29,2.773c-0.543,2.028,0.776,4.325,0.776,4.325S37.108,9.175,37.651,7.147z"/><path fill="#21a366" d="M38.978,10.09c1.361,0.674,2.181,2.18,2.529,2.956c0.12,0.267-0.013,0.575-0.288,0.662	c-0.751,0.239-2.25,0.559-3.587-0.103c-1.876-0.929-2.725-3.439-2.725-3.439S37.102,9.162,38.978,10.09z"/><path fill="#33c481" d="M39.319,10.3c1.455-0.661,2.288-2.165,2.637-2.941c0.12-0.268-0.016-0.569-0.296-0.655	c-0.811-0.249-2.486-0.613-3.941,0.048c-2.005,0.911-2.831,3.424-2.831,3.424S37.314,11.211,39.319,10.3z"/><path fill="#21a366" d="M32.651,33.147c0.394-1.471-0.192-3.084-0.544-3.859c-0.121-0.266-0.439-0.369-0.686-0.219	c-0.674,0.409-1.903,1.328-2.29,2.773c-0.543,2.028,0.776,4.325,0.776,4.325S32.108,35.175,32.651,33.147z"/><path fill="#21a366" d="M33.978,36.09c1.361,0.674,2.181,2.18,2.529,2.956c0.12,0.267-0.013,0.575-0.288,0.662	c-0.751,0.239-2.25,0.559-3.587-0.103c-1.876-0.929-2.725-3.439-2.725-3.439S32.102,35.162,33.978,36.09z"/><path fill="#33c481" d="M34.319,36.3c1.455-0.661,2.288-2.165,2.637-2.941c0.12-0.268-0.016-0.569-0.296-0.655	c-0.811-0.249-2.486-0.613-3.941,0.048c-2.005,0.911-2.831,3.424-2.831,3.424S32.314,37.211,34.319,36.3z"/></svg>