<svg xmlns="http://www.w3.org/2000/svg" viewBox="0 0 48 48"><linearGradient id="8xj4GFnJDcqAQ~fT3ZpR5a" x1="6.182" x2="22.442" y1="31.553" y2="31.418" gradientUnits="userSpaceOnUse"><stop offset="0" stop-color="#1884bd"/><stop offset=".557" stop-color="#0967b8"/><stop offset="1" stop-color="#16528c"/></linearGradient><path fill="url(#8xj4GFnJDcqAQ~fT3ZpR5a)" d="M6.884,40.206C6.457,35.865,5,26.975,5,21c2.614,3.013,18,8,18,8l-0.858,11.153	C22.062,41.195,21.193,42,20.148,42H8.873C7.847,42,6.984,41.227,6.884,40.206z"/><linearGradient id="8xj4GFnJDcqAQ~fT3ZpR5b" x1="43.099" x2="23.706" y1="31.5" y2="31.5" gradientUnits="userSpaceOnUse"><stop offset="0" stop-color="#1278bb"/><stop offset=".557" stop-color="#0967b8"/><stop offset="1" stop-color="#16528c"/></linearGradient><path fill="url(#8xj4GFnJDcqAQ~fT3ZpR5b)" d="M25.858,40.153L25,29c0,0,15.386-4.987,18-8c0,5.975-1.457,14.865-1.884,19.206	C41.016,41.227,40.153,42,39.127,42H27.852C26.807,42,25.938,41.195,25.858,40.153z"/><radialGradient id="8xj4GFnJDcqAQ~fT3ZpR5c" cx="8.733" cy="9.836" r="36.911" gradientUnits="userSpaceOnUse"><stop offset="0" stop-color="#199ae0"/><stop offset=".999" stop-color="#056cb3"/></radialGradient><path fill="url(#8xj4GFnJDcqAQ~fT3ZpR5c)" d="M35,4H24H13.177c-0.727,0-1.385,0.402-1.745,1.034c-2.75,4.83-6.272,8.812-6.427,15.507	c-0.142,6.128,4.707,11.366,10.836,11.458C21.665,32.086,22.986,29,24,29c1,0,2.14,2.999,7.913,3	c6.139,0.001,11.206-5.182,11.084-11.32C42.853,13.427,37.823,9.351,35,4z"/><linearGradient id="8xj4GFnJDcqAQ~fT3ZpR5d" x1="15.5" x2="15.5" y1="18.578" y2="47.107" gradientUnits="userSpaceOnUse"><stop offset="0" stop-color="#0967b8"/><stop offset="1" stop-color="#16528c"/></linearGradient><path fill="url(#8xj4GFnJDcqAQ~fT3ZpR5d)" d="M20.479,24.284l-4.5,2.455c-0.298,0.163-0.659,0.163-0.958,0l-4.5-2.455	C10.2,24.109,10,23.772,10,23.406V16c0-0.552,0.448-1,1-1h9c0.552,0,1,0.448,1,1v7.406C21,23.772,20.8,24.109,20.479,24.284z"/><linearGradient id="8xj4GFnJDcqAQ~fT3ZpR5e" x1="53.354" x2="53.355" y1="-74.979" y2="-74.979" gradientTransform="scale(1 -1) rotate(-35.682 151.86 -3.186)" gradientUnits="userSpaceOnUse"><stop offset="0" stop-color="#ffc430"/><stop offset=".57" stop-color="#f8bd29"/><stop offset="1" stop-color="#f0b421"/></linearGradient><polygon fill="url(#8xj4GFnJDcqAQ~fT3ZpR5e)" points="29.973,4.036 29.967,4.046 29.966,4.046"/><linearGradient id="8xj4GFnJDcqAQ~fT3ZpR5f" x1="60.631" x2="65.352" y1="-44.691" y2="-49.346" gradientTransform="scale(1 -1) rotate(-45 95.396 9.346)" gradientUnits="userSpaceOnUse"><stop offset=".157" stop-color="#ffc430"/><stop offset=".296" stop-color="#f8bd2d"/><stop offset=".499" stop-color="#e5aa23"/><stop offset=".741" stop-color="#c58a14"/><stop offset="1" stop-color="#9c6000"/></linearGradient><path fill="url(#8xj4GFnJDcqAQ~fT3ZpR5f)" d="M26.985,5.206C26.985,4.188,27.702,4,27.702,4h10.245c0.094,0,0.186,0.008,0.279,0.014 l-5.74,5.74c1.735-2.669-0.708-2.233-2.044-2.74C28.864,7.603,26.985,6.639,26.985,5.206z"/><linearGradient id="8xj4GFnJDcqAQ~fT3ZpR5g" x1="67.429" x2="81.356" y1="-53.133" y2="-38.67" gradientTransform="scale(1 -1) rotate(-45 95.396 9.346)" gradientUnits="userSpaceOnUse"><stop offset="0" stop-color="#ffc430"/><stop offset=".41" stop-color="#fec130"/><stop offset=".72" stop-color="#fcb730"/><stop offset=".998" stop-color="#f7a72f"/><stop offset="1" stop-color="#f7a72f"/></linearGradient><path fill="url(#8xj4GFnJDcqAQ~fT3ZpR5g)" d="M44.243,8.295l-2.881-2.881c-0.84-0.84-1.957-1.332-3.136-1.401 c0,0-13.332,13.332-13.433,13.433c-0.626,0.626-0.587,1.664,0.116,2.239c0.611,0.5,1.521,0.393,2.08-0.165l4.421-4.421 l0.466,0.388l-5.802,5.802c-0.589,0.589-0.589,1.545,0,2.134s1.545,0.589,2.134,0c0.263-0.263,4.097-4.097,5.995-5.995 l0.466,0.388l-5.607,5.607c-0.589,0.589-0.589,1.545,0,2.134c0.589,0.589,1.545,0.589,2.134,0c0.255-0.255,3.848-3.848,5.8-5.8 l0.466,0.388c-1.67,1.67-3.352,3.352-3.49,3.49c-0.471,0.472-0.471,1.236,0,1.708c0.472,0.472,1.236,0.472,1.708,0 c0.143-0.143,1.925-1.925,3.645-3.645h0l1.029-1.029c0.756-0.756,1.412-1.412,1.817-1.817l2.073-2.073 C46.586,14.437,46.586,10.638,44.243,8.295z"/><circle cx="25.86" cy="18.514" r=".906" fill="#fff0c9"/><circle cx="27.141" cy="22.356" r=".906" fill="#fff0c9"/><circle cx="30.129" cy="24.491" r=".906" fill="#fff0c9"/><circle cx="34.825" cy="24.491" r=".604" fill="#fff0c9"/><rect width="11" height="1" x="10" y="17" fill="#1773c2"/></svg>