<svg xmlns="http://www.w3.org/2000/svg" viewBox="0 0 48 48"><linearGradient id="DyLAWKYIrL0LQsKj_imWPa" x1="14.786" x2="33.076" y1="-1269.077" y2="-1287.367" gradientTransform="matrix(1 0 0 -1 0 -1237.89)" gradientUnits="userSpaceOnUse"><stop offset="0" stop-color="#33bef0"/><stop offset="1" stop-color="#0a85d9"/></linearGradient><path fill="url(#DyLAWKYIrL0LQsKj_imWPa)" d="M24,30.571c-8.837,0-16,4.921-16,10.286V42c0,1.105,0.895,2,2,2h28c1.105,0,2-0.895,2-2 v-1.143C40,35.492,32.837,30.571,24,30.571z"/><path fill="#d6a121" d="M29,31c0,1.897-2.83,4-5,4s-5-2.103-5-4c0-2.637,0-7.035,0-7.035h10C29,23.965,29,28.363,29,31z"/><linearGradient id="DyLAWKYIrL0LQsKj_imWPb" x1="32.917" x2="34.251" y1="-1257.89" y2="-1257.89" gradientTransform="matrix(1 0 0 -1 0 -1237.89)" gradientUnits="userSpaceOnUse"><stop offset="0" stop-color="#c48f0c"/><stop offset=".251" stop-color="#d19b16"/><stop offset=".619" stop-color="#dca51f"/><stop offset="1" stop-color="#e0a922"/></linearGradient><path fill="url(#DyLAWKYIrL0LQsKj_imWPb)" d="M32.916,18h-0.527v4h0.703c0.515,0,0.954-0.312,1.041-0.74l0.344-1.703 C34.642,18.743,33.897,18,32.916,18z"/><linearGradient id="DyLAWKYIrL0LQsKj_imWPc" x1="-685.083" x2="-683.749" y1="-1257.89" y2="-1257.89" gradientTransform="rotate(180 -335 -618.945)" gradientUnits="userSpaceOnUse"><stop offset="0" stop-color="#c48f0c"/><stop offset=".251" stop-color="#d19b16"/><stop offset=".619" stop-color="#dca51f"/><stop offset="1" stop-color="#e0a922"/></linearGradient><path fill="url(#DyLAWKYIrL0LQsKj_imWPc)" d="M15.084,18h0.527v4h-0.703c-0.515,0-0.954-0.312-1.041-0.74l-0.344-1.703 C13.358,18.743,14.103,18,15.084,18z"/><radialGradient id="DyLAWKYIrL0LQsKj_imWPd" cx="28.702" cy="-1395.268" r="12.224" gradientTransform="matrix(.8816 0 0 -.8816 -1.304 -1211.369)" gradientUnits="userSpaceOnUse"><stop offset="0" stop-color="#ffcf54"/><stop offset=".261" stop-color="#fdcb4d"/><stop offset=".639" stop-color="#f7c13a"/><stop offset="1" stop-color="#f0b421"/></radialGradient><path fill="url(#DyLAWKYIrL0LQsKj_imWPd)" d="M24,6.4c-4.441,0-9,0.675-9,10.275c0,0.768,0,5.877,0,6.698C15,26.8,20.4,31,24,31 s9-4.2,9-7.627c0-0.821,0-5.929,0-6.698C33,7.075,28.441,6.4,24,6.4z"/><radialGradient id="DyLAWKYIrL0LQsKj_imWPe" cx="18.997" cy="-1381.615" r="28.915" gradientTransform="matrix(.8816 0 0 -.8816 -1.304 -1211.369)" gradientUnits="userSpaceOnUse"><stop offset="0" stop-color="#c26715"/><stop offset=".508" stop-color="#b85515"/><stop offset="1" stop-color="#ad3f16"/></radialGradient><path fill="url(#DyLAWKYIrL0LQsKj_imWPe)" d="M24,5.545c-4.354,0-5,1.636-5,1.636c-1.77,0.261-5,2.854-5,5.818c0,1.654,0.265,2.876,1,7 c0.545-6.545,2.249-9,4-9c1.267,0,2.273,1,5,1c2.303,0,2.875-1,5-1c3,0,4,7.968,4,9c0.601-3.01,1-5.555,1-7 C34,9.57,30.209,5.545,24,5.545z"/><radialGradient id="DyLAWKYIrL0LQsKj_imWPf" cx="28.451" cy="-1383.551" r="33.398" gradientTransform="matrix(.8431 0 0 -.8816 -1.421 -1211.369)" gradientUnits="userSpaceOnUse"><stop offset="0" stop-color="#c26715"/><stop offset=".508" stop-color="#b85515"/><stop offset="1" stop-color="#ad3f16"/></radialGradient><path fill="url(#DyLAWKYIrL0LQsKj_imWPf)" d="M24.219,5c-4.164,0-5.216,2.182-5.216,2.182c-0.042,1.159,0.522,2.182,0.522,2.182 S20.285,11,24.625,11C27.245,11,31,9.365,31,5C31,5,30.157,5,24.219,5z"/><radialGradient id="DyLAWKYIrL0LQsKj_imWPg" cx="38.936" cy="38.159" r="12.816" gradientUnits="userSpaceOnUse"><stop offset="0"/><stop offset="1" stop-opacity="0"/></radialGradient><path fill="url(#DyLAWKYIrL0LQsKj_imWPg)" d="M40,42v-1.143c0-4.463-4.963-8.608-11.717-9.879C26.853,32.953,26,35.374,26,38 c0,2.188,0.595,4.234,1.618,6H38C39.105,44,40,43.105,40,42z"/><linearGradient id="DyLAWKYIrL0LQsKj_imWPh" x1="30.929" x2="45.071" y1="-2886.819" y2="-2900.96" gradientTransform="matrix(1 0 0 -1 0 -2855.89)" gradientUnits="userSpaceOnUse"><stop offset="0" stop-color="#21ad64"/><stop offset="1" stop-color="#088242"/></linearGradient><path fill="url(#DyLAWKYIrL0LQsKj_imWPh)" d="M48,38c0,5.522-4.478,10-10,10s-10-4.478-10-10s4.478-10,10-10S48,32.478,48,38z"/><path fill="#fff" d="M36.646,42.354l-4-4c-0.195-0.195-0.195-0.512,0-0.707l0.707-0.707c0.195-0.195,0.512-0.195,0.707,0 L37,39.879l5.439-5.439c0.195-0.195,0.512-0.195,0.707,0l0.707,0.707c0.195,0.195,0.195,0.512,0,0.707l-6.5,6.5 C37.158,42.549,36.842,42.549,36.646,42.354z"/></svg>