<svg xmlns="http://www.w3.org/2000/svg" viewBox="0 0 48 48"><linearGradient id="t8u1noLLVHLXaGBbmlIrWa" x1="22.703" x2="37.615" y1="4.203" y2="19.115" gradientUnits="userSpaceOnUse"><stop offset="0" stop-color="#1d59b3"/><stop offset="1" stop-color="#195bbc"/></linearGradient><path fill="url(#t8u1noLLVHLXaGBbmlIrWa)" d="M43,14H18c-0.55,0-1-0.45-1-1v-2c0-0.55,0.45-1,1-1h25c0.55,0,1,0.45,1,1v2	C44,13.55,43.55,14,43,14z"/><path fill="#42a4eb" d="M10,16H4c-0.55,0-1-0.45-1-1V9c0-0.55,0.45-1,1-1h6c0.55,0,1,0.45,1,1v6C11,15.55,10.55,16,10,16z"/><linearGradient id="t8u1noLLVHLXaGBbmlIrWb" x1="4.909" x2="8.909" y1="9.909" y2="13.909" gradientUnits="userSpaceOnUse"><stop offset="0" stop-color="#1d59b3"/><stop offset="1" stop-color="#195bbc"/></linearGradient><rect width="4" height="4" x="5" y="10" fill="url(#t8u1noLLVHLXaGBbmlIrWb)"/><linearGradient id="t8u1noLLVHLXaGBbmlIrWc" x1="22.703" x2="37.615" y1="16.203" y2="31.115" gradientUnits="userSpaceOnUse"><stop offset="0" stop-color="#1d59b3"/><stop offset="1" stop-color="#195bbc"/></linearGradient><path fill="url(#t8u1noLLVHLXaGBbmlIrWc)" d="M43,26H18c-0.55,0-1-0.45-1-1v-2c0-0.55,0.45-1,1-1h25c0.55,0,1,0.45,1,1v2	C44,25.55,43.55,26,43,26z"/><path fill="#42a4eb" d="M10,28H4c-0.55,0-1-0.45-1-1v-6c0-0.55,0.45-1,1-1h6c0.55,0,1,0.45,1,1v6C11,27.55,10.55,28,10,28z"/><linearGradient id="t8u1noLLVHLXaGBbmlIrWd" x1="4.909" x2="8.909" y1="21.909" y2="25.909" gradientUnits="userSpaceOnUse"><stop offset="0" stop-color="#1d59b3"/><stop offset="1" stop-color="#195bbc"/></linearGradient><rect width="4" height="4" x="5" y="22" fill="url(#t8u1noLLVHLXaGBbmlIrWd)"/><linearGradient id="t8u1noLLVHLXaGBbmlIrWe" x1="22.703" x2="37.615" y1="28.203" y2="43.115" gradientUnits="userSpaceOnUse"><stop offset="0" stop-color="#1d59b3"/><stop offset="1" stop-color="#195bbc"/></linearGradient><path fill="url(#t8u1noLLVHLXaGBbmlIrWe)" d="M43,38H18c-0.55,0-1-0.45-1-1v-2c0-0.55,0.45-1,1-1h25c0.55,0,1,0.45,1,1v2	C44,37.55,43.55,38,43,38z"/><path fill="#42a4eb" d="M10,40H4c-0.55,0-1-0.45-1-1v-6c0-0.55,0.45-1,1-1h6c0.55,0,1,0.45,1,1v6C11,39.55,10.55,40,10,40z"/></svg>