<svg xmlns="http://www.w3.org/2000/svg" viewBox="0 0 48 48"><linearGradient id="NSg4mFx4swaSY8FRQXcGsa" x1="9.823" x2="36.377" y1="6.052" y2="39.669" gradientUnits="userSpaceOnUse"><stop offset=".002" stop-color="#f24f78"/><stop offset=".397" stop-color="#e2305d"/><stop offset=".763" stop-color="#d6224a"/><stop offset="1" stop-color="#d22243"/></linearGradient><circle cx="24" cy="24" r="20" fill="url(#NSg4mFx4swaSY8FRQXcGsa)"/><path d="M20.046,38C15.179,38,13,34.131,13,30.296c0-4.02,2.071-8.347,6.618-8.347	c0.23,0,0.461,0.014,0.691,0.04c-0.028-0.64-0.042-1.302-0.042-1.977c0-1.127,0.135-11.012,4.8-11.012	c3.257,0,4.908,3.762,4.908,11.18c0,2.75-0.74,7.168-2.389,10.971c0.241,0.265,0.447,0.419,0.592,0.502	c0.443-0.567,1.511-2.426,2.242-4.781c0.306-0.993,1.208-1.66,2.244-1.66c0.236,0,0.471,0.036,0.697,0.107	c1.23,0.399,1.916,1.729,1.532,2.966c-1.158,3.736-3.228,8.19-6.511,8.19c-1.061,0-2.188-0.433-3.219-1.229	C23.641,37.074,21.921,38,20.046,38z M19.62,26.684c-1.91,0-1.932,3.575-1.932,3.611c0,1.97,0.794,2.969,2.36,2.969	c0.602,0,1.41-0.718,2.186-1.934c-0.54-1.177-0.974-2.537-1.292-4.048c-0.006-0.006-0.011-0.011-0.015-0.015	C20.866,27.211,20.274,26.684,19.62,26.684z M25.156,17.035c-0.121,0.91-0.201,1.926-0.201,2.978c0,1.049,0.038,2.049,0.113,2.995	c0.145-0.993,0.221-1.953,0.221-2.827C25.289,18.92,25.236,17.883,25.156,17.035z" opacity=".05"/><path d="M20.046,37.5c-4.522,0-6.546-3.618-6.546-7.204c0-3.779,1.915-7.847,6.118-7.847	c0.409,0,0.818,0.046,1.222,0.137c-0.049-0.824-0.073-1.687-0.073-2.574c0-0.429,0.049-10.512,4.3-10.512	c2.925,0,4.408,3.593,4.408,10.68c0,2.796-0.766,7.26-2.473,11.055c0.504,0.635,0.992,0.95,1.302,0.997	c0.434-0.284,1.76-2.527,2.593-5.212c0.241-0.782,0.951-1.308,1.766-1.308c0.186,0,0.37,0.028,0.547,0.084	c0.969,0.314,1.507,1.364,1.204,2.341c-0.907,2.927-2.897,7.838-6.034,7.838c-1.082,0-2.258-0.519-3.293-1.438	C23.587,36.504,21.894,37.5,20.046,37.5z M19.62,26.184c-2.404,0-2.432,3.943-2.432,4.111c0,1.295,0.372,3.469,2.86,3.469	c0.843,0,1.816-0.85,2.754-2.4c-0.595-1.234-1.066-2.69-1.402-4.333c-0.044-0.039-0.125-0.122-0.125-0.122	C21.274,26.908,20.53,26.184,19.62,26.184z M25.194,14.298c-0.381,1.332-0.739,3.464-0.739,5.714c0,2.239,0.169,4.249,0.504,6	c0.533-2.007,0.83-4.06,0.83-5.832C25.789,17.095,25.479,15.298,25.194,14.298z" opacity=".07"/><path fill="#fff" d="M33.061,26.273c-0.703-0.221-1.464,0.175-1.686,0.895c-0.824,2.658-2.316,5.419-2.993,5.57	c-0.507,0-1.236-0.43-1.958-1.44c1.674-3.594,2.551-8.106,2.551-11.118c0-8.413-2.124-10.18-3.908-10.18	c-3.757,0-3.8,9.912-3.8,10.012c0,1.166,0.042,2.248,0.121,3.256c-0.518-0.189-1.113-0.319-1.77-0.319	c-3.86,0-5.618,3.809-5.618,7.347C14,33.63,15.871,37,20.046,37c1.972,0,3.634-1.291,4.975-3.221	c1.188,1.235,2.432,1.696,3.36,1.696c2.923,0,4.858-5.233,5.556-7.486C34.16,27.27,33.767,26.502,33.061,26.273z M20.048,34.264	c-3.031,0-3.36-2.775-3.36-3.969c0-0.188,0.034-4.611,2.932-4.611c1.144,0,2.022,0.885,2.022,0.885	c0.065,0.07,0.137,0.131,0.212,0.184c0.375,1.904,0.904,3.426,1.516,4.632C22.366,33.123,21.203,34.264,20.048,34.264z M24.901,27.926c-0.559-1.93-0.946-4.521-0.946-7.914c0-3.126,0.666-6.068,1.219-7.073c0.424,0.644,1.115,2.65,1.115,7.241	C26.289,22.616,25.75,25.446,24.901,27.926z"/></svg>