<svg xmlns="http://www.w3.org/2000/svg" viewBox="0 0 48 48"><linearGradient id="jxBxlmfBZdDfKVE35KJTEa" x1="22.587" x2="24.905" y1="-1898.616" y2="-1927.14" gradientTransform="matrix(1 0 0 -1 0 -1892.001)" gradientUnits="userSpaceOnUse"><stop offset="0" stop-color="#30dc80"/><stop offset="1" stop-color="#21ad64"/></linearGradient><path fill="url(#jxBxlmfBZdDfKVE35KJTEa)" d="M26.041,4.101C13.391,2.849,2.849,13.391,4.101,26.041 c0.927,9.36,8.498,16.931,17.858,17.858c12.649,1.252,23.192-9.29,21.939-21.939C42.972,12.599,35.401,5.028,26.041,4.101z"/><linearGradient id="jxBxlmfBZdDfKVE35KJTEb" x1="23.011" x2="24.634" y1="-1903.832" y2="-1923.799" gradientTransform="matrix(1 0 0 -1 0 -1892.001)" gradientUnits="userSpaceOnUse"><stop offset="0" stop-color="#21ad64"/><stop offset="1" stop-color="#088242"/></linearGradient><path fill="url(#jxBxlmfBZdDfKVE35KJTEb)" d="M25.428,10.071c-8.854-0.877-16.234,6.503-15.358,15.358 c0.649,6.552,5.949,11.852,12.501,12.501c8.854,0.877,16.234-6.503,15.358-15.358C37.28,16.019,31.981,10.72,25.428,10.071z"/><circle cx="19.5" cy="19.5" r="2.5" fill="#3c3c3c"/><circle cx="28.5" cy="19.5" r="2.5" fill="#3c3c3c"/><circle cx="19.5" cy="28.5" r="2.5" fill="#3c3c3c"/><circle cx="28.5" cy="28.5" r="2.5" fill="#3c3c3c"/><linearGradient id="jxBxlmfBZdDfKVE35KJTEc" x1="24.091" x2="23.997" y1="19.542" y2="24.13" gradientUnits="userSpaceOnUse"><stop offset="0" stop-color="#c8cdd1"/><stop offset="1" stop-color="#b3b3b3"/></linearGradient><path fill="url(#jxBxlmfBZdDfKVE35KJTEc)" d="M25.414,24l3.293-3.293c0.391-0.391,0.391-1.023,0-1.414s-1.023-0.391-1.414,0L24,22.586 l-3.293-3.293c-0.391-0.391-1.023-0.391-1.414,0s-0.391,1.023,0,1.414L22.586,24l-3.293,3.293c-0.391,0.391-0.391,1.023,0,1.414 C19.488,28.902,19.744,29,20,29s0.512-0.098,0.707-0.293L24,25.414l3.293,3.293C27.488,28.902,27.744,29,28,29 s0.512-0.098,0.707-0.293c0.391-0.391,0.391-1.023,0-1.414L25.414,24z"/></svg>