<svg xmlns="http://www.w3.org/2000/svg" viewBox="0 0 48 48"><linearGradient id="10eyEgS1IAlo9Q4_LYoMza" x1="24" x2="24" y1="307.879" y2="271.961" gradientTransform="matrix(1 0 0 -1 0 314)" gradientUnits="userSpaceOnUse"><stop offset="0" stop-color="#2e9f4e"/><stop offset="1" stop-color="#1c7130"/></linearGradient><path fill="url(#10eyEgS1IAlo9Q4_LYoMza)" d="M40,42H8c-1.1,0-2-0.9-2-2V8c0-1.1,0.9-2,2-2h32c1.1,0,2,0.9,2,2v32C42,41.1,41.1,42,40,42z"/><path d="M25,17v14c0,1.105,0.895,2,2,2h2c1.105,0,2-0.895,2-2V17	c0-1.105-0.895-2-2-2h-2C25.895,15,25,15.895,25,17z" opacity=".05"/><path d="M29,32.5h-2c-0.828,0-1.5-0.672-1.5-1.5V17c0-0.828,0.672-1.5,1.5-1.5h2	c0.828,0,1.5,0.672,1.5,1.5v14C30.5,31.828,29.828,32.5,29,32.5z" opacity=".07"/><path d="M17,17v14c0,1.105,0.895,2,2,2h2c1.105,0,2-0.895,2-2V17	c0-1.105-0.895-2-2-2h-2C17.895,15,17,15.895,17,17z" opacity=".05"/><path d="M21,32.5h-2c-0.828,0-1.5-0.672-1.5-1.5V17c0-0.828,0.672-1.5,1.5-1.5h2	c0.828,0,1.5,0.672,1.5,1.5v14C22.5,31.828,21.828,32.5,21,32.5z" opacity=".07"/><path fill="#fff" d="M22,17v14c0,0.552-0.448,1-1,1h-2c-0.552,0-1-0.448-1-1V17c0-0.552,0.448-1,1-1h2	C21.552,16,22,16.448,22,17z"/><path fill="#fff" d="M30,17v14c0,0.552-0.448,1-1,1h-2c-0.552,0-1-0.448-1-1V17c0-0.552,0.448-1,1-1h2	C29.552,16,30,16.448,30,17z"/></svg>