<svg xmlns="http://www.w3.org/2000/svg" viewBox="0 0 48 48"><linearGradient id="x3VI4ev~cEOy4VcG0BvmBa" x1="13.32" x2="15.788" y1="37.084" y2="37.948" gradientUnits="userSpaceOnUse"><stop offset="0" stop-color="#c9c9c9"/><stop offset="1" stop-color="#b3b3b3"/></linearGradient><polygon fill="url(#x3VI4ev~cEOy4VcG0BvmBa)" points="19,29 16.015,29 10.015,46 13,46"/><linearGradient id="x3VI4ev~cEOy4VcG0BvmBb" x1="34.505" x2="32.359" y1="37.283" y2="37.743" gradientUnits="userSpaceOnUse"><stop offset="0" stop-color="#c9c9c9"/><stop offset="1" stop-color="#b3b3b3"/></linearGradient><polygon fill="url(#x3VI4ev~cEOy4VcG0BvmBb)" points="37.985,46 35,46 29,29 31.985,29"/><linearGradient id="x3VI4ev~cEOy4VcG0BvmBc" x1="24" x2="24" y1="3.855" y2="40.526" gradientUnits="userSpaceOnUse"><stop offset="0" stop-color="#f44f5a"/><stop offset=".443" stop-color="#ee3d4a"/><stop offset="1" stop-color="#e52030"/></linearGradient><path fill="url(#x3VI4ev~cEOy4VcG0BvmBc)" d="M33.498,6H14.502C13.183,6,12,6.787,11.527,7.98L7.212,18.847 C7.072,19.201,7,19.577,7,19.956v17.956C7,39.617,8.427,41,10.187,41h27.625C39.573,41,41,39.617,41,37.912V19.956 c0-0.379-0.072-0.755-0.212-1.109L36.473,7.98C36,6.787,34.817,6,33.498,6z"/><linearGradient id="x3VI4ev~cEOy4VcG0BvmBd" x1="24" x2="24" y1="3.917" y2="39.539" gradientUnits="userSpaceOnUse"><stop offset="0" stop-color="#f44f5a"/><stop offset=".443" stop-color="#ee3d4a"/><stop offset="1" stop-color="#e52030"/></linearGradient><path fill="url(#x3VI4ev~cEOy4VcG0BvmBd)" d="M28.382,4h-8.764c-0.379,0-0.725,0.214-0.894,0.553L18,6h12l-0.724-1.447 C29.107,4.214,28.761,4,28.382,4z"/><radialGradient id="x3VI4ev~cEOy4VcG0BvmBe" cx="13.516" cy="539.516" r="3.484" gradientTransform="matrix(1 0 0 -1 0 572)" gradientUnits="userSpaceOnUse"><stop offset=".486"/><stop offset="1" stop-opacity="0"/></radialGradient><circle cx="13.516" cy="32.484" r="3.484" fill="url(#x3VI4ev~cEOy4VcG0BvmBe)" opacity=".15"/><radialGradient id="x3VI4ev~cEOy4VcG0BvmBf" cx="34.487" cy="539.522" r="3.484" gradientTransform="matrix(1 0 0 -1 0 572)" gradientUnits="userSpaceOnUse"><stop offset=".486"/><stop offset="1" stop-opacity="0"/></radialGradient><circle cx="34.487" cy="32.478" r="3.484" fill="url(#x3VI4ev~cEOy4VcG0BvmBf)" opacity=".15"/><circle cx="13.5" cy="32.476" r="2.5" fill="#fff"/><circle cx="34.503" cy="32.47" r="2.5" fill="#fff"/><radialGradient id="x3VI4ev~cEOy4VcG0BvmBg" cx="22" cy="566" r="2" gradientTransform="matrix(1 0 0 -1 0 572)" gradientUnits="userSpaceOnUse"><stop offset=".337"/><stop offset="1" stop-opacity="0"/></radialGradient><circle cx="22" cy="6" r="2" fill="url(#x3VI4ev~cEOy4VcG0BvmBg)" opacity=".15"/><circle cx="22" cy="6" r="1" fill="#fff"/><radialGradient id="x3VI4ev~cEOy4VcG0BvmBh" cx="26" cy="566" r="2" gradientTransform="matrix(1 0 0 -1 0 572)" gradientUnits="userSpaceOnUse"><stop offset=".337"/><stop offset="1" stop-opacity="0"/></radialGradient><circle cx="26" cy="6" r="2" fill="url(#x3VI4ev~cEOy4VcG0BvmBh)" opacity=".15"/><circle cx="26" cy="6" r="1" fill="#fff"/><path fill="#25a2e5" d="M39,19.35V22H9v-2.65c0-0.23,0.043-0.46,0.129-0.68L11.732,12l1.039-2.68 C13.082,8.53,13.886,8,14.786,8h18.429c0.9,0,1.704,0.53,2.014,1.32L36.268,12l2.604,6.67C38.957,18.89,39,19.12,39,19.35z"/><path fill="#027ad4" d="M36.268,12H11.732l1.039-2.68C13.082,8.53,13.886,8,14.786,8h18.429c0.9,0,1.704,0.53,2.014,1.32 L36.268,12z"/></svg>