<svg xmlns="http://www.w3.org/2000/svg" viewBox="0 0 48 48"><linearGradient id="0wwd4IhFvlEkAxCtNzoXqa" x1="21.954" x2="26.239" y1="7.793" y2="41.741" gradientUnits="userSpaceOnUse"><stop offset="0" stop-color="#0568ba"/><stop offset="1" stop-color="#0b59a2"/></linearGradient><path fill="url(#0wwd4IhFvlEkAxCtNzoXqa)" d="M42,7H6C4.895,7,4,7.895,4,9v30c0,1.105,0.895,2,2,2h36c1.105,0,2-0.895,2-2V9	C44,7.895,43.105,7,42,7z"/><path d="M29.085,17h-1.709c-0.944,0-1.769,0.671-1.959,1.595l-1.09,5.272l-1.304-5.341	C22.804,17.627,22.005,17,21.08,17h-1.829c-0.898,0-1.691,0.605-1.93,1.473l-1.55,5.67l-1.176-5.559C14.4,17.667,13.577,17,12.64,17	h-1.978c-0.471,0-0.905,0.213-1.193,0.586c-0.287,0.373-0.385,0.848-0.265,1.305l3.316,12.617C12.751,32.387,13.547,33,14.455,33	h2.102c0.906,0,1.701-0.612,1.934-1.487l1.468-5.536l1.43,5.524C21.616,32.384,22.412,33,23.323,33h1.951	c0.906,0,1.701-0.612,1.934-1.489l3.335-12.618v0c0.12-0.456,0.024-0.932-0.264-1.305C29.991,17.214,29.557,17,29.085,17z" opacity=".05"/><path d="M38.846,19.941V18.5c0-0.827-0.673-1.5-1.5-1.5H32.85c-0.827,0-1.5,0.673-1.5,1.5v1.441	c0,0.714,0.502,1.313,1.171,1.464v7.19c-0.669,0.151-1.171,0.75-1.171,1.464V31.5c0,0.827,0.673,1.5,1.5,1.5h4.496	c0.827,0,1.5-0.673,1.5-1.5v-1.441c0-0.714-0.502-1.314-1.172-1.464v-7.19C38.344,21.255,38.846,20.655,38.846,19.941z" opacity=".05"/><path d="M29.085,17.5h-1.709c-0.708,0-1.326,0.503-1.469,1.196l-1.54,7.444l-1.83-7.497	C22.373,17.97,21.773,17.5,21.08,17.5h-1.829c-0.674,0-1.269,0.454-1.447,1.104l-2.095,7.662l-1.602-7.578	C13.96,18,13.343,17.5,12.64,17.5h-1.978c-0.314,0-0.605,0.143-0.797,0.392c-0.193,0.249-0.258,0.567-0.178,0.872l3.317,12.618	c0.173,0.659,0.769,1.119,1.45,1.119h2.102c0.68,0,1.276-0.458,1.45-1.116l1.957-7.381l1.907,7.373	c0.172,0.662,0.769,1.124,1.452,1.124h1.951c0.68,0,1.276-0.459,1.45-1.117l3.335-12.618v0c0.08-0.305,0.017-0.623-0.176-0.873	C29.691,17.643,29.4,17.5,29.085,17.5z" opacity=".07"/><path d="M37.346,20.941c0.552,0,1-0.449,1-1V18.5c0-0.551-0.448-1-1-1H32.85c-0.552,0-1,0.449-1,1v1.441	c0,0.551,0.448,1,1,1h0.171v8.118H32.85c-0.552,0-1,0.449-1,1V31.5c0,0.551,0.448,1,1,1h4.496c0.552,0,1-0.449,1-1v-1.441	c0-0.551-0.448-1-1-1h-0.172v-8.118H37.346z" opacity=".07"/><path fill="#fff" d="M29.576,18.638l-3.335,12.618C26.125,31.694,25.728,32,25.274,32h-1.951 c-0.456,0-0.854-0.308-0.968-0.75l-2.13-8.232c-0.124-0.469-0.199-0.993-0.225-1.572h-0.039c-0.059,0.638-0.143,1.162-0.254,1.572 l-2.185,8.238C17.407,31.695,17.01,32,16.556,32h-2.101c-0.454,0-0.852-0.306-0.967-0.746l-3.317-12.617 C10.086,18.315,10.329,18,10.662,18h1.977c0.473,0,0.881,0.331,0.978,0.793l1.804,8.531c0.085,0.397,0.146,0.931,0.185,1.601h0.059 c0.026-0.501,0.12-1.048,0.283-1.64l2.337-8.548C18.405,18.302,18.8,18,19.251,18h1.829c0.461,0,0.862,0.315,0.971,0.763 l2.108,8.639c0.085,0.345,0.159,0.846,0.225,1.503h0.039c0.026-0.514,0.094-1.035,0.205-1.562l1.768-8.546 C26.493,18.333,26.902,18,27.376,18h1.709C29.418,18,29.661,18.315,29.576,18.638z"/><path fill="#fff" d="M37.846,18.5v1.441c0,0.276-0.224,0.5-0.5,0.5h-0.672v9.119h0.672c0.276,0,0.5,0.224,0.5,0.5V31.5 c0,0.276-0.224,0.5-0.5,0.5h-4.497c-0.276,0-0.5-0.224-0.5-0.5v-1.441c0-0.276,0.224-0.5,0.5-0.5h0.672v-9.119h-0.672 c-0.276,0-0.5-0.224-0.5-0.5V18.5c0-0.276,0.224-0.5,0.5-0.5h4.497C37.622,18,37.846,18.224,37.846,18.5z"/></svg>