<svg xmlns="http://www.w3.org/2000/svg" viewBox="0 0 48 48"><linearGradient id="X7gzvLMHDBcP7ZVSzQhTQa" x1="24" x2="24" y1="1.609" y2="8.506" gradientUnits="userSpaceOnUse"><stop offset="0" stop-color="#6d6d6d"/><stop offset=".126" stop-color="#626262"/><stop offset=".886" stop-color="#464646"/><stop offset="1" stop-color="#454545"/></linearGradient><path fill="url(#X7gzvLMHDBcP7ZVSzQhTQa)" d="M31,8.37c0,3.04-3.13,4.63-7,4.63s-7-1.59-7-4.63c0-0.46,0.04-0.91,0.12-1.32	C17.73,3.82,20.57,2,24,2s6.27,1.82,6.88,5.05C30.96,7.46,31,7.91,31,8.37z"/><radialGradient id="X7gzvLMHDBcP7ZVSzQhTQb" cx="23.804" cy="15.424" r="10.491" gradientUnits="userSpaceOnUse"><stop offset="0" stop-color="#d41343"/><stop offset=".237" stop-color="#d81b4a"/><stop offset=".714" stop-color="#e4305d"/><stop offset=".998" stop-color="#f44f78"/></radialGradient><path fill="url(#X7gzvLMHDBcP7ZVSzQhTQb)" d="M31,8.37c0,3.04-3.13,4.63-7,4.63s-7-1.59-7-4.63c0-0.46,0.04-0.91,0.12-1.32	C18.77,5.72,21.24,5,24,5s5.23,0.72,6.88,2.05C30.96,7.46,31,7.91,31,8.37z"/><path fill="#ed6c47" d="M17.999,10.999c-0.219,0-0.44-0.071-0.624-0.219l-5-4c-0.432-0.346-0.501-0.975-0.156-1.406	c0.345-0.43,0.976-0.5,1.405-0.156l5,4c0.432,0.346,0.501,0.975,0.156,1.406C18.583,10.87,18.292,10.999,17.999,10.999z"/><path fill="#ed6c47" d="M30,10.999c0.219,0,0.44-0.071,0.624-0.219l5-4c0.432-0.346,0.501-0.975,0.156-1.406	c-0.345-0.43-0.976-0.5-1.405-0.156l-5,4c-0.432,0.346-0.501,0.975-0.156,1.406C29.416,10.87,29.707,10.999,30,10.999z"/><linearGradient id="X7gzvLMHDBcP7ZVSzQhTQc" x1="24" x2="24" y1="5.739" y2="18.383" gradientUnits="userSpaceOnUse"><stop offset="0" stop-color="#6d6d6d"/><stop offset=".126" stop-color="#626262"/><stop offset=".886" stop-color="#464646"/><stop offset="1" stop-color="#454545"/></linearGradient><path fill="url(#X7gzvLMHDBcP7ZVSzQhTQc)" d="M38,21c0-7.034-5.687-14-14-14s-14,6.966-14,14c14,8,14,8,14,8S24,29,38,21z"/><linearGradient id="X7gzvLMHDBcP7ZVSzQhTQd" x1="8.189" x2="38.547" y1="30.634" y2="48.161" gradientUnits="userSpaceOnUse"><stop offset=".002" stop-color="#f44f78"/><stop offset=".397" stop-color="#e4305d"/><stop offset=".763" stop-color="#d81b4a"/><stop offset="1" stop-color="#d41343"/></linearGradient><path fill="url(#X7gzvLMHDBcP7ZVSzQhTQd)" d="M40,40.86V42c0,1.1-0.9,2-2,2H10c-1.1,0-2-0.9-2-2v-1.14c0-3.36,2.8-6.54,7.06-8.46	c1.24-0.55,2.59-1,4.04-1.31c1.54-0.34,3.19-0.52,4.9-0.52s3.36,0.18,4.9,0.52c1.45,0.31,2.8,0.76,4.04,1.31	C37.2,34.32,40,37.5,40,40.86z"/><path fill="#d6a121" d="M29,34c0,1.897-2,4-5,4s-5-2.103-5-4c0-2.637,0-7.035,0-7.035h10C29,26.965,29,31.363,29,34z"/><radialGradient id="X7gzvLMHDBcP7ZVSzQhTQe" cx="36.279" cy="213.928" r="14.072" gradientTransform="matrix(-.9136 0 0 -.9667 57.144 227.804)" gradientUnits="userSpaceOnUse"><stop offset="0" stop-color="#faf8e5"/><stop offset="1" stop-color="#faeeac"/></radialGradient><path fill="url(#X7gzvLMHDBcP7ZVSzQhTQe)" d="M24,10c4,0,8,2,8,8c0,0.723,0,5.529,0,6.301C32,27.526,27.101,32,24,32s-8-4.474-8-7.698	c0-0.772,0-5.579,0-6.302C16,12,20,10,24,10z"/><linearGradient id="X7gzvLMHDBcP7ZVSzQhTQf" x1="15.826" x2="25.564" y1="31.734" y2="41.472" gradientUnits="userSpaceOnUse"><stop offset="0" stop-color="#faa0bd"/><stop offset="1" stop-color="#fa67a6"/></linearGradient><path fill="url(#X7gzvLMHDBcP7ZVSzQhTQf)" d="M26.52,40.69L24,43.95l-2.52-3.26l-5.947-7.678c-0.339-0.437-0.258-1.066,0.179-1.404	l1.577-1.217c0.437-0.337,1.064-0.257,1.402,0.18L24,37.43L26.52,40.69z"/><linearGradient id="X7gzvLMHDBcP7ZVSzQhTQg" x1="25.793" x2="25.793" y1="36.886" y2="50.916" gradientUnits="userSpaceOnUse"><stop offset="0" stop-color="#faa0bd"/><stop offset="1" stop-color="#fa67a6"/></linearGradient><path fill="url(#X7gzvLMHDBcP7ZVSzQhTQg)" d="M32.287,31.608c0.438,0.338,0.518,0.967,0.179,1.404L26.52,40.69L24,43.95L23.96,44h-5.05	l2.57-3.31L24,37.43l5.309-6.86c0.338-0.436,0.965-0.517,1.402-0.18L32.287,31.608z"/><linearGradient id="X7gzvLMHDBcP7ZVSzQhTQh" x1="24" x2="24" y1="5.739" y2="18.383" gradientUnits="userSpaceOnUse"><stop offset="0" stop-color="#6d6d6d"/><stop offset=".126" stop-color="#626262"/><stop offset=".886" stop-color="#464646"/><stop offset="1" stop-color="#454545"/></linearGradient><path fill="url(#X7gzvLMHDBcP7ZVSzQhTQh)" d="M24,9c-4,0-7,1.667-9,5c0,0,0.5,3,1,5c1-3,5-4,8-4s7,1,8,4c0.5-2,1-5,1-5	C30.954,10.635,27.822,9.203,24,9z"/><path fill="#e53935" d="M24.75,26C24.187,26,24,27,24,27s-0.031-1-0.75-1S21,27,21,27s1,2,3,2s3-2,3-2S25.312,26,24.75,26z"/><path fill="#c0392b" d="M23.25,26C22.531,26,21,27,21,27h3C24,27,23.969,26,23.25,26z M24,27h3c0,0-1.688-1-2.25-1	C24.187,26,24,27,24,27z"/><radialGradient id="X7gzvLMHDBcP7ZVSzQhTQi" cx="17" cy="8.999" r="4.726" gradientUnits="userSpaceOnUse"><stop offset="0" stop-color="#faa0bd"/><stop offset="1" stop-color="#fa67a6"/></radialGradient><path fill="url(#X7gzvLMHDBcP7ZVSzQhTQi)" d="M18.899,7.889c-0.027,0.078-0.055,0.157-0.094,0.233c0.391-0.767,0.175-1.661-0.483-1.996 c-0.592-0.302-1.337-0.044-1.766,0.569C15.959,6.244,15.171,6.23,14.701,6.7c-0.47,0.47-0.455,1.258-0.004,1.855 c-0.614,0.429-0.871,1.173-0.569,1.766c0.302,0.592,1.056,0.822,1.763,0.577c0.218,0.716,0.847,1.191,1.503,1.087 s1.108-0.75,1.094-1.498c0.748,0.014,1.394-0.438,1.498-1.094C20.09,8.736,19.615,8.107,18.899,7.889z"/><radialGradient id="X7gzvLMHDBcP7ZVSzQhTQj" cx="-72.624" cy="-82.579" r="1.445" gradientTransform="matrix(.7096 -.7096 .7096 .7096 127.012 15.94)" gradientUnits="userSpaceOnUse"><stop offset="0" stop-color="#d41343"/><stop offset=".237" stop-color="#d81b4a"/><stop offset=".603" stop-color="#e4305d"/><stop offset=".998" stop-color="#f44f78"/></radialGradient><circle cx="16.877" cy="8.876" r=".873" fill="url(#X7gzvLMHDBcP7ZVSzQhTQj)"/></svg>