<svg xmlns="http://www.w3.org/2000/svg" viewBox="0 0 48 48"><linearGradient id="1UbsoLjRjBMfoBFTCWW8Ra" x1="20.375" x2="28.748" y1="312.939" y2="283.054" gradientTransform="matrix(1 0 0 -1 0 324)" gradientUnits="userSpaceOnUse"><stop offset="0" stop-color="#32bdef"/><stop offset="1" stop-color="#1ea2e4"/></linearGradient><path fill="url(#1UbsoLjRjBMfoBFTCWW8Ra)" d="M43.125,9H4.875C3.287,9,2,10.287,2,11.875v24.25C2,37.713,3.287,39,4.875,39h38.25	C44.713,39,46,37.713,46,36.125v-24.25C46,10.287,44.713,9,43.125,9z"/><linearGradient id="1UbsoLjRjBMfoBFTCWW8Rb" x1="151.391" x2="153.301" y1="-33.814" y2="-38.441" gradientTransform="matrix(0 -1 -1 0 -28.5 176.5)" gradientUnits="userSpaceOnUse"><stop offset="0" stop-color="#5bc8ef"/><stop offset="1" stop-color="#42befc"/></linearGradient><path fill="url(#1UbsoLjRjBMfoBFTCWW8Rb)" d="M11,24L11,24c0,0.552-0.448,1-1,1H6c-0.552,0-1-0.448-1-1l0,0c0-0.552,0.448-1,1-1h4	C10.552,23,11,23.448,11,24z"/><linearGradient id="1UbsoLjRjBMfoBFTCWW8Rc" x1="151.391" x2="153.301" y1="-41.814" y2="-46.441" gradientTransform="matrix(0 -1 -1 0 -28.5 176.5)" gradientUnits="userSpaceOnUse"><stop offset="0" stop-color="#5bc8ef"/><stop offset="1" stop-color="#42befc"/></linearGradient><path fill="url(#1UbsoLjRjBMfoBFTCWW8Rc)" d="M19,24L19,24c0,0.552-0.448,1-1,1h-4c-0.552,0-1-0.448-1-1l0,0c0-0.552,0.448-1,1-1h4	C18.552,23,19,23.448,19,24z"/><linearGradient id="1UbsoLjRjBMfoBFTCWW8Rd" x1="151.391" x2="153.301" y1="-49.814" y2="-54.441" gradientTransform="matrix(0 -1 -1 0 -28.5 176.5)" gradientUnits="userSpaceOnUse"><stop offset="0" stop-color="#5bc8ef"/><stop offset="1" stop-color="#42befc"/></linearGradient><path fill="url(#1UbsoLjRjBMfoBFTCWW8Rd)" d="M27,24L27,24c0,0.552-0.448,1-1,1h-4c-0.552,0-1-0.448-1-1l0,0c0-0.552,0.448-1,1-1h4	C26.552,23,27,23.448,27,24z"/><linearGradient id="1UbsoLjRjBMfoBFTCWW8Re" x1="151.391" x2="153.301" y1="-57.814" y2="-62.441" gradientTransform="matrix(0 -1 -1 0 -28.5 176.5)" gradientUnits="userSpaceOnUse"><stop offset="0" stop-color="#5bc8ef"/><stop offset="1" stop-color="#42befc"/></linearGradient><path fill="url(#1UbsoLjRjBMfoBFTCWW8Re)" d="M35,24L35,24c0,0.552-0.448,1-1,1h-4c-0.552,0-1-0.448-1-1l0,0c0-0.552,0.448-1,1-1h4	C34.552,23,35,23.448,35,24z"/><linearGradient id="1UbsoLjRjBMfoBFTCWW8Rf" x1="151.391" x2="153.301" y1="-65.814" y2="-70.441" gradientTransform="matrix(0 -1 -1 0 -28.5 176.5)" gradientUnits="userSpaceOnUse"><stop offset="0" stop-color="#5bc8ef"/><stop offset="1" stop-color="#42befc"/></linearGradient><path fill="url(#1UbsoLjRjBMfoBFTCWW8Rf)" d="M43,24L43,24c0,0.552-0.448,1-1,1h-4c-0.552,0-1-0.448-1-1l0,0c0-0.552,0.448-1,1-1h4	C42.552,23,43,23.448,43,24z"/><path fill="#bbd2de" d="M36.013,20h5.974C42.546,20,43,19.546,43,18.987v-4.974C43,13.454,42.546,13,41.987,13h-5.974	C35.454,13,35,13.454,35,14.013v4.974C35,19.546,35.454,20,36.013,20z"/><path fill="#0078d4" d="M13.5,31h-8C5.224,31,5,30.776,5,30.5v-1C5,29.224,5.224,29,5.5,29h8c0.276,0,0.5,0.224,0.5,0.5v1	C14,30.776,13.776,31,13.5,31z"/><path fill="#0078d4" d="M24.5,31h-8c-0.276,0-0.5-0.224-0.5-0.5v-1c0-0.276,0.224-0.5,0.5-0.5h8c0.276,0,0.5,0.224,0.5,0.5v1	C25,30.776,24.776,31,24.5,31z"/><path fill="#0078d4" d="M19.5,35h-14C5.224,35,5,34.776,5,34.5v-1C5,33.224,5.224,33,5.5,33h14c0.276,0,0.5,0.224,0.5,0.5v1	C20,34.776,19.776,35,19.5,35z"/><path d="M26,31c-1.103,0-2,0.897-2,2v6h19.125C44.713,39,46,37.713,46,36.125V31H26z" opacity=".05"/><path d="M26,31.5c-0.827,0-1.5,0.673-1.5,1.5v6h18.625C44.713,39,46,37.713,46,36.125V31.5H26z" opacity=".07"/><path fill="#52bf8d" d="M27,48h-1c-0.552,0-1-0.448-1-1v-2.063h2V48z"/><rect width="19" height="12" x="27" y="32" fill="#33c481"/><path fill="#59d19a" d="M27,46h-1c-0.552,0-1-0.448-1-1v-2.207h2V46z"/><path fill="#61e3a7" d="M27,44h-1c-0.552,0-1-0.448-1-1V33c0-0.552,0.448-1,1-1h1V44z"/><rect width="19" height="2" x="27" y="44" fill="#21a366"/><rect width="19" height="2" x="27" y="46" fill="#107c42"/><circle cx="33" cy="38" r="4" fill="#61e3a7"/><circle cx="39" cy="41" r="1" fill="#61e3a7"/><circle cx="43" cy="41" r="1" fill="#61e3a7"/><path fill="#52bf8d" d="M47,48h-1v-3.063h2V47C48,47.552,47.552,48,47,48z"/><path fill="#59d19a" d="M47,46h-1v-3.207h2V45C48,45.552,47.552,46,47,46z"/><path fill="#61e3a7" d="M47,44h-1V32h1c0.552,0,1,0.448,1,1v10C48,43.552,47.552,44,47,44z"/></svg>