<svg xmlns="http://www.w3.org/2000/svg" viewBox="0 0 48 48"><linearGradient id="14TcD0ql2HPzmVgy2WQIpa" x1="39.001" x2="41.528" y1="230.5" y2="230.5" gradientTransform="translate(0 -218)" gradientUnits="userSpaceOnUse"><stop offset="0" stop-color="#c48f0c"/><stop offset=".251" stop-color="#d19b16"/><stop offset=".619" stop-color="#dca51f"/><stop offset="1" stop-color="#e0a922"/></linearGradient><path fill="url(#14TcD0ql2HPzmVgy2WQIpa)" d="M39,8h-1v9h1.3c1,0,1.8-0.7,2-1.7l0.7-3.8C42.3,9.7,40.9,8,39,8z"/><linearGradient id="14TcD0ql2HPzmVgy2WQIpb" x1="-1495" x2="-1492.472" y1="230.5" y2="230.5" gradientTransform="matrix(-1 0 0 1 -1486 -218)" gradientUnits="userSpaceOnUse"><stop offset="0" stop-color="#c48f0c"/><stop offset=".251" stop-color="#d19b16"/><stop offset=".619" stop-color="#dca51f"/><stop offset="1" stop-color="#e0a922"/></linearGradient><path fill="url(#14TcD0ql2HPzmVgy2WQIpb)" d="M9,8h1v9H8.7c-1,0-1.8-0.7-2-1.7L6,11.5	C5.7,9.7,7.1,8,9,8z"/><radialGradient id="14TcD0ql2HPzmVgy2WQIpc" cx="24.391" cy="9.359" r="13.365" gradientUnits="userSpaceOnUse"><stop offset="0" stop-color="#ffcf54"/><stop offset=".261" stop-color="#fdcb4d"/><stop offset=".639" stop-color="#f7c13a"/><stop offset="1" stop-color="#f0b421"/></radialGradient><path fill="url(#14TcD0ql2HPzmVgy2WQIpc)" d="M39,8v7.3C39,21,30,28,24,28S9,21,9,15.3V8	c0-1.06,0.03-2.06,0.1-3h29.8C38.97,5.94,39,6.94,39,8z"/><circle cx="30.5" cy="9.5" r="1.5" fill="#3b3b3b"/><circle cx="17.5" cy="9.5" r="1.5" fill="#3b3b3b"/><path fill="#d59f1a" d="M28,18h-8c-0.6,0-1,0.4-1,1s0.4,1,1,1h8c0.6,0,1-0.4,1-1S28.6,18,28,18z"/><radialGradient id="14TcD0ql2HPzmVgy2WQIpd" cx="23.967" cy="26.831" r="10.457" gradientUnits="userSpaceOnUse"><stop offset="0" stop-color="#c26715"/><stop offset=".346" stop-color="#be6015"/><stop offset=".686" stop-color="#b54e16"/><stop offset=".979" stop-color="#ad3f16"/></radialGradient><path fill="url(#14TcD0ql2HPzmVgy2WQIpd)" d="M32,20l-1.11,0.56	c-0.25,0.12-0.43,0.34-0.51,0.61l-1.12,3.04c-0.15,0.47-0.6,0.79-1.1,0.79C27.52,25,27,24.48,27,23.84V23c0-0.55-0.45-1-1-1h-2h-2	c-0.55,0-1,0.45-1,1v0.84c0,0.64-0.52,1.16-1.16,1.16c-0.5,0-0.95-0.32-1.1-0.79l-1.12-3.04c-0.08-0.27-0.26-0.49-0.51-0.61L16,20	c-0.5-0.15-1.01,0.23-1.01,0.75L15,28.69c0,4.79,3.62,8.98,8.4,9.29C23.6,37.99,23.8,38,24,38s0.4-0.01,0.6-0.02	c4.78-0.31,8.4-4.5,8.4-9.29l0.01-7.94C33.01,20.23,32.5,19.85,32,20z"/></svg>