<svg xmlns="http://www.w3.org/2000/svg" id="Layer_1" x="0" y="0" version="1.1" viewBox="0 0 48 48" xml:space="preserve"><path fill="#ccc" d="M43,8c1.1,0,2,0.9,2,2v5H3v-5c0-1.1,0.9-2,2-2H43z"/><linearGradient id="SVGID_1_" x1="19.89" x2="28.234" y1="378.124" y2="350.165" gradientTransform="matrix(1 0 0 -1 0 390)" gradientUnits="userSpaceOnUse"><stop offset="0" stop-color="#6e6e6e"/><stop offset=".999" stop-color="#4d4d4d"/></linearGradient><path fill="url(#SVGID_1_)" d="M45,13H3v25c0,1.1,0.9,2,2,2h38c1.1,0,2-0.9,2-2V13z"/><path d="M25.2,28.8c-0.5,0-1,0.2-1.4,0.6c0,0,0,0.1-0.1,0.1v-1.7l-1.5,1c-0.6,0.4-1.2,0.5-2,0.5	c-0.8,0-1.4-0.2-1.9-0.7c-0.5-0.5-0.7-1.2-0.7-2.1c0-1,0.3-1.7,0.8-2.2c0.5-0.5,1.2-0.8,2-0.8c0.7,0,1.3,0.2,1.8,0.5l1,0.6	c0,0.1-0.1,0.3-0.1,0.4c0,0.5,0.2,1,0.6,1.4c0.4,0.4,0.9,0.6,1.4,0.6c0.5,0,1-0.2,1.4-0.6c0.4-0.4,0.6-0.9,0.6-1.4	c0-0.5-0.2-1-0.6-1.4c-0.4-0.4-0.9-0.6-1.4-0.6c-0.5,0-1,0.2-1.4,0.6c0,0,0,0.1-0.1,0.1v-2.9l-0.6-0.3c-0.8-0.3-1.8-0.5-2.9-0.5	c-1.8,0-3.4,0.6-4.6,1.8c-1.2,1.2-1.8,2.8-1.8,4.8c0,1.8,0.6,3.3,1.7,4.5c1.1,1.2,2.6,1.8,4.4,1.8c1.3,0,2.5-0.2,3.4-0.7l0.3-0.2	c0.1,0.1,0.2,0.2,0.3,0.3c0.4,0.4,0.9,0.6,1.4,0.6c0.6,0,1-0.2,1.4-0.6c0.4-0.4,0.6-0.9,0.6-1.4c0-0.5-0.2-1-0.6-1.4	C26.2,29,25.7,28.8,25.2,28.8z" opacity=".05"/><circle cx="42" cy="11" r="1" fill="#999"/><circle cx="39" cy="11" r="1" fill="#999"/><path d="M19.7,32.3c-1.7,0-3-0.5-4-1.6c-1-1.1-1.5-2.4-1.5-4.1c0-1.8,0.6-3.3,1.7-4.4c1.1-1.1,2.6-1.7,4.3-1.7	c1.1,0,2,0.2,2.7,0.5l0.3,0.1v2.9l-0.8-0.4c-0.6-0.4-1.3-0.6-2.1-0.6c-1,0-1.8,0.3-2.4,0.9c-0.6,0.6-0.9,1.5-0.9,2.6	c0,1,0.3,1.8,0.8,2.4c0.6,0.6,1.3,0.9,2.2,0.9c0.9,0,1.7-0.2,2.3-0.6l0.8-0.5v2.8l-0.3,0.1C22,32,21,32.3,19.7,32.3z" opacity=".07"/><path fill="#fff" d="M16.2,22.4c-1,1-1.5,2.4-1.5,4.1c0,1.6,0.5,2.8,1.4,3.8s2.1,1.4,3.7,1.4c1.2,0,2.2-0.2,3-0.6v-1.6	c-0.7,0.5-1.6,0.7-2.6,0.7c-1.1,0-1.9-0.3-2.6-1c-0.7-0.7-1-1.6-1-2.8c0-1.2,0.4-2.2,1.1-2.9s1.6-1.1,2.8-1.1c0.9,0,1.6,0.2,2.3,0.6	v-1.7c-0.7-0.3-1.5-0.4-2.5-0.4C18.6,20.9,17.2,21.4,16.2,22.4z"/><path d="M25.2,32.2c-0.4,0-0.8-0.1-1.1-0.4c-0.3-0.3-0.5-0.7-0.5-1.1c0-0.4,0.2-0.8,0.5-1.1c0.3-0.3,0.7-0.4,1.1-0.4	c0.4,0,0.8,0.1,1.1,0.4c0.3,0.3,0.5,0.7,0.5,1.1c0,0.4-0.2,0.8-0.5,1.1C26,32.1,25.6,32.2,25.2,32.2z" opacity=".07"/><path fill="#fff" d="M25.2,29.8c-0.3,0-0.5,0.1-0.7,0.3s-0.3,0.4-0.3,0.7c0,0.3,0.1,0.5,0.3,0.7c0.2,0.2,0.5,0.3,0.7,0.3	c0.3,0,0.6-0.1,0.8-0.3c0.2-0.2,0.3-0.4,0.3-0.7c0-0.3-0.1-0.5-0.3-0.7C25.7,29.9,25.5,29.8,25.2,29.8z"/><path d="M25.2,26.4c-0.4,0-0.8-0.1-1.1-0.4c-0.3-0.3-0.5-0.7-0.5-1.1c0-0.4,0.2-0.8,0.5-1.1c0.3-0.3,0.7-0.4,1.1-0.4	c0.4,0,0.8,0.1,1.1,0.4c0.3,0.3,0.5,0.7,0.5,1.1c0,0.4-0.2,0.8-0.5,1.1C26,26.3,25.6,26.4,25.2,26.4z" opacity=".07"/><path fill="#fff" d="M25.2,24c-0.3,0-0.5,0.1-0.7,0.3s-0.3,0.4-0.3,0.7c0,0.3,0.1,0.5,0.3,0.7c0.2,0.2,0.5,0.3,0.7,0.3	c0.3,0,0.6-0.1,0.8-0.3c0.2-0.2,0.3-0.4,0.3-0.7c0-0.3-0.1-0.5-0.3-0.7C25.7,24.1,25.5,24,25.2,24z"/><polygon points="31.2,33.3 25.4,19.1 29.1,19.1 34.8,33.3" opacity=".05"/><polygon points="31.5,32.8 26.1,19.6 28.8,19.6 34.1,32.8" opacity=".07"/><polygon fill="#fff" points="28.4,20.1 26.9,20.1 31.8,32.3 33.3,32.3"/></svg>