<svg xmlns="http://www.w3.org/2000/svg" viewBox="0 0 48 48"><linearGradient id="uRLiuJfWrKwhy12sL_83Za" x1="15.545" x2="34.395" y1="672.619" y2="708.517" gradientTransform="translate(0 -661.78)" gradientUnits="userSpaceOnUse"><stop offset="0" stop-color="#2aa4f4"/><stop offset="1" stop-color="#007ad9"/></linearGradient><path fill="url(#uRLiuJfWrKwhy12sL_83Za)" d="M48,26c0,6.63-5.37,12-12,12c-1.8,0-24.66,0-26.5,0C4.25,38,0,33.75,0,28.5	c0-4.54,3.18-8.34,7.45-9.28C9.15,12.21,15.46,7,23,7c5.51,0,10.36,2.78,13.24,7.01C42.76,14.13,48,19.45,48,26z"/><path fill="#0d62ab" d="M31.5,28.25c0,0.754-3,3.75-7.5,3.75s-7.5-2.999-7.5-3.75c0-0.414,0.336-0.75,0.75-0.75	c0.749,0,3.408,1.75,6.75,1.75c3.338,0,6.004-1.75,6.75-1.75C31.164,27.5,31.5,27.836,31.5,28.25z M31,19	c-1.621,0-2.941,1.285-2.998,2.892C28,21.95,28.049,22,28.107,22h5.786c0.058,0,0.107-0.05,0.105-0.108	C33.941,20.285,32.621,19,31,19z M17,19c-1.621,0-2.941,1.285-2.998,2.892C14,21.95,14.049,22,14.107,22h5.786	c0.058,0,0.107-0.05,0.105-0.108C19.941,20.285,18.621,19,17,19z"/></svg>