<svg xmlns="http://www.w3.org/2000/svg" viewBox="0 0 48 48"><linearGradient id="I_l3vsPH3P2FVWKbmaoCGa" x1="9.858" x2="38.142" y1="9.858" y2="38.142" gradientUnits="userSpaceOnUse"><stop offset="0" stop-color="#889097"/><stop offset="1" stop-color="#64717c"/></linearGradient><circle cx="24" cy="24" r="20" fill="url(#I_l3vsPH3P2FVWKbmaoCGa)"/><radialGradient id="I_l3vsPH3P2FVWKbmaoCGb" cx="24" cy="24" r="19" gradientUnits="userSpaceOnUse"><stop offset="0"/><stop offset="1" stop-opacity="0"/></radialGradient><circle cx="24" cy="24" r="19" fill="url(#I_l3vsPH3P2FVWKbmaoCGb)"/><radialGradient id="I_l3vsPH3P2FVWKbmaoCGc" cx="23.89" cy="7.394" r="37.883" gradientUnits="userSpaceOnUse"><stop offset="0" stop-color="#fafafb"/><stop offset="1" stop-color="#c8cdd1"/></radialGradient><circle cx="24" cy="24" r="17" fill="url(#I_l3vsPH3P2FVWKbmaoCGc)"/><g><linearGradient id="I_l3vsPH3P2FVWKbmaoCGd" x1="22.57" x2="22.57" y1="11.732" y2="37.294" gradientUnits="userSpaceOnUse"><stop offset="0" stop-color="#6d7479"/><stop offset=".32" stop-color="#565b60"/><stop offset=".752" stop-color="#3c3f43"/><stop offset="1" stop-color="#323538"/></linearGradient><path fill="url(#I_l3vsPH3P2FVWKbmaoCGd)" d="M24,30.573c-2.255,0-4.326-0.786-5.472-1.373c-0.386-0.198-0.841,0.088-0.841,0.521v2.15 c0,0.412,0.248,0.779,0.628,0.94c1.358,0.577,3.181,1.014,4.783,1.142v2.297c0,0.249,0.202,0.451,0.451,0.451h0.902 c0.249,0,0.451-0.202,0.451-0.451v-2.292c0.998-0.083,1.84-0.309,2.551-0.633l-2.789-2.789C24.457,30.557,24.241,30.573,24,30.573z"/><linearGradient id="I_l3vsPH3P2FVWKbmaoCGe" x1="24" x2="24" y1="11.732" y2="37.294" gradientUnits="userSpaceOnUse"><stop offset="0" stop-color="#6d7479"/><stop offset=".32" stop-color="#565b60"/><stop offset=".752" stop-color="#3c3f43"/><stop offset="1" stop-color="#323538"/></linearGradient><path fill="url(#I_l3vsPH3P2FVWKbmaoCGe)" d="M30.618,28.214c-0.056-3.657-3.185-4.817-5.856-5.856l-3.639-3.639 c0.369-1.479,2.242-1.578,2.876-1.578c1.691,0,3.323,0.454,4.568,1.037c0.392,0.185,0.843-0.087,0.843-0.52v-1.889 c0-0.633-0.238-1.009-0.619-1.157c-0.853-0.332-2.079-0.574-3.891-0.634V11.9c0-0.249-0.202-0.451-0.451-0.451h-0.902 c-0.249,0-0.451,0.202-0.451,0.451v2.112c-1.705,0.167-3.43,0.835-4.535,2.147l-5.319-5.319c-0.879,0.72-1.685,1.525-2.404,2.404 l23.917,23.917c0.879-0.719,1.685-1.525,2.404-2.404L30.618,28.214z"/></g></svg>