<svg xmlns="http://www.w3.org/2000/svg" viewBox="0 0 48 48"><path fill="#1a9ba1" d="M4,39V13h40v26c0,1.1-0.9,2-2,2H6C4.9,41,4,40.1,4,39z"/><radialGradient id="MvGyef_Bs9Iq7vt7y3D4va" cx="28.972" cy="511.097" r="10.612" gradientTransform="matrix(1.05 0 0 -1.0625 -6.35 567.875)" gradientUnits="userSpaceOnUse"><stop offset=".55" stop-color="#e4e4e6"/><stop offset=".73" stop-color="#e1e2e4"/><stop offset=".854" stop-color="#d8dadc"/><stop offset=".961" stop-color="#c9cdcf"/><stop offset="1" stop-color="#c1c6c9"/></radialGradient><ellipse cx="24" cy="27.5" fill="url(#MvGyef_Bs9Iq7vt7y3D4va)" rx="10.5" ry="8.5"/><linearGradient id="MvGyef_Bs9Iq7vt7y3D4vb" x1="19.544" x2="28.582" y1="504.456" y2="495.418" gradientTransform="matrix(1 0 0 -1 0 526)" gradientUnits="userSpaceOnUse"><stop offset="0" stop-color="#32bdef"/><stop offset="1" stop-color="#1ea2e4"/></linearGradient><circle cx="24" cy="26" r="7" fill="url(#MvGyef_Bs9Iq7vt7y3D4vb)"/><radialGradient id="MvGyef_Bs9Iq7vt7y3D4vc" cx="21.643" cy="505.852" r="10.382" gradientTransform="matrix(1 0 0 -1 0 526)" gradientUnits="userSpaceOnUse"><stop offset="0" stop-color="#4b4b4b"/><stop offset=".531" stop-color="#393939"/><stop offset="1" stop-color="#252525"/></radialGradient><circle cx="24" cy="26" r="4" fill="url(#MvGyef_Bs9Iq7vt7y3D4vc)"/><circle cx="26" cy="23" r="1" fill="#fff"/><linearGradient id="MvGyef_Bs9Iq7vt7y3D4vd" x1="4.711" x2="42.843" y1="519.739" y2="511.986" gradientTransform="matrix(1 0 0 -1 0 526)" gradientUnits="userSpaceOnUse"><stop offset="0" stop-color="#0077d2"/><stop offset="1" stop-color="#0b59a2"/></linearGradient><path fill="url(#MvGyef_Bs9Iq7vt7y3D4vd)" d="M44,9v4H4V9c0-1.1,0.9-2,2-2h36C43.1,7,44,7.9,44,9z"/><circle cx="37" cy="10" r="1" fill="#35c1f1"/><circle cx="41" cy="10" r="1" fill="#35c1f1"/></svg>