<svg xmlns="http://www.w3.org/2000/svg" viewBox="0 0 48 48"><path fill="#1b9de2" d="M36,9H12v34c0,1.105,0.895,2,2,2h20c1.105,0,2-0.895,2-2V9z"/><linearGradient id="nEWHVR3VUhd7CqS7Aga83a" x1="12" x2="36" y1="6.5" y2="6.5" gradientUnits="userSpaceOnUse"><stop offset="0" stop-color="#464eb0"/><stop offset="1" stop-color="#343b9e"/></linearGradient><path fill="url(#nEWHVR3VUhd7CqS7Aga83a)" d="M36,9H12V6c0-1.105,0.895-2,2-2h20c1.105,0,2,0.895,2,2V9z"/><circle cx="20" cy="6.5" r=".75" fill="#6d75cf"/><path fill="#6d75cf" d="M27.5,5.75c-0.194,0-4.806,0-5,0c-0.414,0-0.75,0.336-0.75,0.75s0.336,0.75,0.75,0.75	c0.194,0,4.806,0,5,0c0.414,0,0.75-0.336,0.75-0.75S27.914,5.75,27.5,5.75z"/><path fill="#353c9f" d="M35,14H13l-3,3v1c0,1.105,0.895,2,2,2h24c1.105,0,2-0.895,2-2v-1L35,14z"/><polygon fill="#6d75cf" points="36,9 12,9 10,17 38,17"/></svg>