<svg xmlns="http://www.w3.org/2000/svg" viewBox="0 0 48 48"><linearGradient id="PJfW7V4YnhCCcfcv69rLCa" x1="11.296" x2="30.146" y1="904.529" y2="940.427" gradientTransform="translate(0 -901.78)" gradientUnits="userSpaceOnUse"><stop offset="0" stop-color="#fcfcfc"/><stop offset=".95" stop-color="#c3c9cd"/></linearGradient><path fill="url(#PJfW7V4YnhCCcfcv69rLCa)" d="M48,26c0,6.63-5.37,12-12,12c-1.8,0-24.66,0-26.5,0C4.25,38,0,33.75,0,28.5	c0-4.54,3.18-8.34,7.45-9.28C9.15,12.21,15.46,7,23,7c5.51,0,10.36,2.78,13.24,7.01C42.76,14.13,48,19.45,48,26z"/><path d="M24,35c-0.505,0-0.979-0.196-1.337-0.552L12.555,24.383	C12.197,24.026,12,23.551,12,23.045c0-0.507,0.197-0.981,0.556-1.338c3.042-3.029,7.105-4.701,11.443-4.707	c4.341,0.006,8.406,1.678,11.446,4.707C35.803,22.063,36,22.538,36,23.045s-0.197,0.982-0.556,1.338L25.338,34.448	C24.979,34.804,24.505,35,24,35z" opacity=".05"/><path d="M24,34.5c-0.372,0-0.722-0.145-0.985-0.406L12.908,24.028	c-0.263-0.262-0.408-0.611-0.408-0.983s0.145-0.722,0.408-0.983c2.947-2.936,6.886-4.556,11.091-4.562	c4.207,0.006,8.146,1.626,11.093,4.562c0.264,0.262,0.408,0.611,0.408,0.983s-0.145,0.722-0.408,0.983L24.985,34.094	C24.722,34.355,24.372,34.5,24,34.5z" opacity=".07"/><path fill="#0078d4" d="M34.739,22.416c0.347,0.346,0.347,0.912,0,1.258l-2.533,2.523c-2.003-2.145-4.789-3.447-7.726-3.567	c-3.114-0.132-6.172,1.051-8.377,3.246c-0.101,0.101-0.208,0.208-0.31,0.321l-2.533-2.523c-0.347-0.346-0.347-0.912,0-1.258	C16.217,19.472,20.102,18.006,24,18C27.898,18.006,31.783,19.472,34.739,22.416z"/><path fill="#1b9de2" d="M32.528,25.247c0.107,0.107,0.215,0.214,0.31,0.321l-3.165,3.152	c-1.371-1.529-3.304-2.447-5.344-2.541c-2.123-0.088-4.195,0.717-5.698,2.214c-0.107,0.107-0.208,0.208-0.303,0.327l-3.165-3.152	c0.095-0.107,0.202-0.214,0.31-0.321C20.172,20.567,27.828,20.567,32.528,25.247z"/><path fill="#35c1f1" d="M30.001,27.763c0.107,0.107,0.208,0.208,0.31,0.321l-3.209,3.196	c-0.922-0.667-2.009-0.994-3.102-0.988c-1.093-0.006-2.179,0.321-3.102,0.988l-3.209-3.196c0.101-0.113,0.202-0.214,0.31-0.321	C21.309,24.467,26.691,24.467,30.001,27.763z"/><path fill="#50e6ff" d="M27.772,30.602c0,0.004,0,0.007,0,0.011l-3.14,3.126c-0.349,0.347-0.915,0.347-1.263,0l-3.14-3.127	c0-0.004,0-0.007,0-0.01C22.206,28.26,25.794,28.259,27.772,30.602z"/></svg>