<svg xmlns="http://www.w3.org/2000/svg" viewBox="0 0 48 48"><linearGradient id="K8MlCF4ARvlRSM27TQceua" x1="16.5" x2="16.5" y1="8.529" y2="47.712" gradientUnits="userSpaceOnUse"><stop offset="0" stop-color="#21ad64"/><stop offset="1" stop-color="#088242"/></linearGradient><path fill="url(#K8MlCF4ARvlRSM27TQceua)" d="M29,30.5c0,6.99-4.92,12.74-11.22,13.43c-0.2,0.02-0.39,0.04-0.59,0.05	C16.96,43.99,16.73,44,16.5,44C9.6,44,4,37.96,4,30.5c0-5.62,3.18-10.43,7.69-12.47C13.17,17.37,14.8,17,16.5,17	c4.53,0,8.5,2.61,10.7,6.51c-0.99,0.55-2.06,1.05-3.2,1.49c0,1-2,5-7,7c6.25,0,7.77-3.05,11.71-4.39C28.9,28.54,29,29.51,29,30.5z"/><linearGradient id="K8MlCF4ARvlRSM27TQceub" x1="32" x2="34" y1="19.5" y2="19.5" gradientUnits="userSpaceOnUse"><stop offset="0" stop-color="#ffcf7b"/><stop offset=".196" stop-color="#fecd76"/><stop offset=".439" stop-color="#fac666"/><stop offset=".709" stop-color="#f3bc4d"/><stop offset=".995" stop-color="#eaad2a"/><stop offset="1" stop-color="#eaad29"/></linearGradient><path fill="url(#K8MlCF4ARvlRSM27TQceub)" d="M34,18v3c0,0-2-1-2-3C33.25,18,34,18,34,18z"/><linearGradient id="K8MlCF4ARvlRSM27TQceuc" x1="34" x2="36" y1="26.5" y2="26.5" gradientTransform="matrix(-1 0 0 1 70 0)" gradientUnits="userSpaceOnUse"><stop offset="0" stop-color="#ffcf7b"/><stop offset=".196" stop-color="#fecd76"/><stop offset=".439" stop-color="#fac666"/><stop offset=".709" stop-color="#f3bc4d"/><stop offset=".995" stop-color="#eaad2a"/><stop offset="1" stop-color="#eaad29"/></linearGradient><path fill="url(#K8MlCF4ARvlRSM27TQceuc)" d="M34,28v-3c0,0,2,1,2,3C34.75,28,34,28,34,28z"/><linearGradient id="K8MlCF4ARvlRSM27TQceud" x1="39" x2="41" y1="22.5" y2="22.5" gradientTransform="matrix(-1 0 0 1 80 0)" gradientUnits="userSpaceOnUse"><stop offset="0" stop-color="#ffcf7b"/><stop offset=".196" stop-color="#fecd76"/><stop offset=".439" stop-color="#fac666"/><stop offset=".709" stop-color="#f3bc4d"/><stop offset=".995" stop-color="#eaad2a"/><stop offset="1" stop-color="#eaad29"/></linearGradient><path fill="url(#K8MlCF4ARvlRSM27TQceud)" d="M39,24v-3c0,0,2,1,2,3C39.75,24,39,24,39,24z"/><linearGradient id="K8MlCF4ARvlRSM27TQceue" x1="30" x2="32" y1="27.5" y2="27.5" gradientTransform="matrix(-1 0 0 1 62 0)" gradientUnits="userSpaceOnUse"><stop offset="0" stop-color="#ffcf7b"/><stop offset=".196" stop-color="#fecd76"/><stop offset=".439" stop-color="#fac666"/><stop offset=".709" stop-color="#f3bc4d"/><stop offset=".995" stop-color="#eaad2a"/><stop offset="1" stop-color="#eaad29"/></linearGradient><path fill="url(#K8MlCF4ARvlRSM27TQceue)" d="M30,29v-3c0,0,2,1,2,3C30.75,29,30,29,30,29z"/><linearGradient id="K8MlCF4ARvlRSM27TQceuf" x1="26" x2="28" y1="28.5" y2="28.5" gradientTransform="matrix(-1 0 0 1 54 0)" gradientUnits="userSpaceOnUse"><stop offset="0" stop-color="#ffcf7b"/><stop offset=".196" stop-color="#fecd76"/><stop offset=".439" stop-color="#fac666"/><stop offset=".709" stop-color="#f3bc4d"/><stop offset=".995" stop-color="#eaad2a"/><stop offset="1" stop-color="#eaad29"/></linearGradient><path fill="url(#K8MlCF4ARvlRSM27TQceuf)" d="M26,30v-3c0,0,2,1,2,3C26.75,30,26,30,26,30z"/><linearGradient id="K8MlCF4ARvlRSM27TQceug" x1="29" x2="31" y1="21.5" y2="21.5" gradientUnits="userSpaceOnUse"><stop offset="0" stop-color="#ffcf7b"/><stop offset=".196" stop-color="#fecd76"/><stop offset=".439" stop-color="#fac666"/><stop offset=".709" stop-color="#f3bc4d"/><stop offset=".995" stop-color="#eaad2a"/><stop offset="1" stop-color="#eaad29"/></linearGradient><path fill="url(#K8MlCF4ARvlRSM27TQceug)" d="M31,20v3c0,0-2-1-2-3C30.25,20,31,20,31,20z"/><linearGradient id="K8MlCF4ARvlRSM27TQceuh" x1="26" x2="28" y1="23.5" y2="23.5" gradientUnits="userSpaceOnUse"><stop offset="0" stop-color="#ffcf7b"/><stop offset=".196" stop-color="#fecd76"/><stop offset=".439" stop-color="#fac666"/><stop offset=".709" stop-color="#f3bc4d"/><stop offset=".995" stop-color="#eaad2a"/><stop offset="1" stop-color="#eaad29"/></linearGradient><path fill="url(#K8MlCF4ARvlRSM27TQceuh)" d="M28,22v3c0,0-2-1-2-3C27.25,22,28,22,28,22z"/><linearGradient id="K8MlCF4ARvlRSM27TQceui" x1="36" x2="38" y1="13.5" y2="13.5" gradientUnits="userSpaceOnUse"><stop offset="0" stop-color="#ffcf7b"/><stop offset=".196" stop-color="#fecd76"/><stop offset=".439" stop-color="#fac666"/><stop offset=".709" stop-color="#f3bc4d"/><stop offset=".995" stop-color="#eaad2a"/><stop offset="1" stop-color="#eaad29"/></linearGradient><path fill="url(#K8MlCF4ARvlRSM27TQceui)" d="M38,12v3c0,0-2-1-2-3C37.25,12,38,12,38,12z"/><linearGradient id="K8MlCF4ARvlRSM27TQceuj" x1="34" x2="36" y1="16.5" y2="16.5" gradientUnits="userSpaceOnUse"><stop offset="0" stop-color="#ffcf7b"/><stop offset=".196" stop-color="#fecd76"/><stop offset=".439" stop-color="#fac666"/><stop offset=".709" stop-color="#f3bc4d"/><stop offset=".995" stop-color="#eaad2a"/><stop offset="1" stop-color="#eaad29"/></linearGradient><path fill="url(#K8MlCF4ARvlRSM27TQceuj)" d="M36,15v3c0,0-2-1-2-3C35.25,15,36,15,36,15z"/><linearGradient id="K8MlCF4ARvlRSM27TQceuk" x1="11.5" x2="11.5" y1="8.529" y2="47.712" gradientUnits="userSpaceOnUse"><stop offset="0" stop-color="#21ad64"/><stop offset="1" stop-color="#088242"/></linearGradient><circle cx="11.5" cy="21.5" r="6.5" fill="url(#K8MlCF4ARvlRSM27TQceuk)"/><linearGradient id="K8MlCF4ARvlRSM27TQceul" x1="26.875" x2="26.875" y1="8.529" y2="47.712" gradientUnits="userSpaceOnUse"><stop offset="0" stop-color="#21ad64"/><stop offset="1" stop-color="#088242"/></linearGradient><path fill="url(#K8MlCF4ARvlRSM27TQceul)" d="M44,25c0,4-3.72,6.94-9,8c-4.77,0.95-8.63,10.1-17.22,10.93c-0.2,0.02-0.39,0.04-0.59,0.05	C16.96,43.99,16.73,44,16.5,44c-4-8.25-6.75-19.5-6.75-19.5L10,19l1.69-0.97l18.5-10.56c0.54-0.31,1.03-0.69,1.47-1.13l1-1	c0.99-0.99,2.42-1.41,3.78-1.07c1.31,0.33,2.33,0.97,3.05,1.9c0.37,0.49,0.45,1.13,0.28,1.72c-0.76,2.69-3.73,10.81-12.57,15.62	c-0.99,0.55-2.06,1.05-3.2,1.49c0,1-2,5-7,7c6.25,0,7.77-3.05,11.71-4.39c1.11-0.37,2.4-0.61,4.04-0.61C38,27,38,22,42,22	C43,22,44,23.25,44,25z"/><linearGradient id="K8MlCF4ARvlRSM27TQceum" x1="8.127" x2="14.472" y1="20.714" y2="20.714" gradientUnits="userSpaceOnUse"><stop offset="0" stop-color="#4c4c4c"/><stop offset="1" stop-color="#343434"/></linearGradient><path fill="url(#K8MlCF4ARvlRSM27TQceum)" d="M13.756,18.256c1.108,1.108,0.906,3.107-0.451,4.464c-1.357,1.357-3.356,1.559-4.464,0.451	c-1.108-1.108-0.906-3.107,0.451-4.464S12.648,17.148,13.756,18.256z"/><linearGradient id="K8MlCF4ARvlRSM27TQceun" x1="9.335" x2="13.257" y1="20.712" y2="20.712" gradientUnits="userSpaceOnUse"><stop offset="0" stop-color="#ffcf54"/><stop offset=".261" stop-color="#fdcb4d"/><stop offset=".639" stop-color="#f7c13a"/><stop offset="1" stop-color="#f0b421"/></linearGradient><path fill="url(#K8MlCF4ARvlRSM27TQceun)" d="M11.043,20.104c0.936,0,1.606,0.511,2.03,0.975c0.298-0.699,0.242-1.445-0.226-1.913	c-0.667-0.667-1.901-0.515-2.756,0.34c-0.855,0.855-1.007,2.089-0.34,2.756c0.524,0.524,1.397,0.535,2.162,0.104	C11.937,21.193,11.043,20.104,11.043,20.104z"/><linearGradient id="K8MlCF4ARvlRSM27TQceuo" x1="34.011" x2="36.566" y1="7.288" y2="7.288" gradientUnits="userSpaceOnUse"><stop offset="0" stop-color="#4c4c4c"/><stop offset="1" stop-color="#343434"/></linearGradient><path fill="url(#K8MlCF4ARvlRSM27TQceuo)" d="M36.349,6.228C36.742,6.621,36.586,7.414,36,8s-1.379,0.742-1.772,0.349	c-0.393-0.393-0.237-1.187,0.349-1.772S35.956,5.835,36.349,6.228z"/></svg>