<svg xmlns="http://www.w3.org/2000/svg" xmlns:xlink="http://www.w3.org/1999/xlink" data-name="Слой 1" viewBox="0 0 48 48"><defs><linearGradient id="E0sncAUYHAa0xolKvX20Yc" x1="21.114" x2="30.404" y1="9.12" y2="18.41" data-name="Новый образец градиентной зал 3" gradientUnits="userSpaceOnUse"><stop offset="0" stop-color="#32bdef"/><stop offset="1" stop-color="#1ea2e4"/></linearGradient><linearGradient id="E0sncAUYHAa0xolKvX20Ya" x1="24" x2="24" y1="8.088" y2="35.824" data-name="Безымянный градиент 113" gradientUnits="userSpaceOnUse"><stop offset="0" stop-color="#ffd869"/><stop offset="1" stop-color="#fec52b"/></linearGradient><linearGradient id="E0sncAUYHAa0xolKvX20Yb" x1="24" x2="24" y1="24.914" y2="14.079" data-name="Безымянный градиент 105" gradientUnits="userSpaceOnUse"><stop offset="0" stop-color="#eba600"/><stop offset="1" stop-color="#c28200"/></linearGradient><linearGradient id="E0sncAUYHAa0xolKvX20Yd" x1="24" x2="24" y1="15.522" y2="20.584" xlink:href="#E0sncAUYHAa0xolKvX20Ya"/><linearGradient id="E0sncAUYHAa0xolKvX20Ye" x2="24" y1="35.283" y2="44.4" gradientTransform="rotate(-180 24 38)" xlink:href="#E0sncAUYHAa0xolKvX20Yb"/><linearGradient id="E0sncAUYHAa0xolKvX20Yf" x1="24" x2="24" y1="43.55" y2="39.482" xlink:href="#E0sncAUYHAa0xolKvX20Ya"/></defs><rect width="36" height="14" x="6" y="23" fill="#c28200"/><path fill="url(#E0sncAUYHAa0xolKvX20Yc)" d="M27.49036,14.99986c-3.25429-.07819-2.72919-.91226-5.993-.98855A.50457.50457,0,0,1,21,13.51212V10.5122a.50134.50134,0,0,1,.50964-.5006c3.25429.07819,2.72919.91225,5.993.98855A.50456.50456,0,0,1,28,11.49934v2.99992A.50135.50135,0,0,1,27.49036,14.99986Z"/><path fill="url(#E0sncAUYHAa0xolKvX20Ya)" d="M25,37H23V23h2ZM19,23H17V37h2Zm-6,0H11V37h2ZM7,23H5V37H7Zm36,0H41V37h2Zm-6,0H35V37h2Zm-6,0H29V37h2Z"/><path fill="url(#E0sncAUYHAa0xolKvX20Yb)" d="M4,20v3a1,1,0,0,0,1,1H43a1,1,0,0,0,1-1V20Z"/><path fill="url(#E0sncAUYHAa0xolKvX20Yd)" d="M47,17.5a.5.5,0,0,0-.5-.5H1.5a.49884.49884,0,0,0-.34845.85693h0L4,21H44l2.86957-3.16388-.00171-.00384A.49418.49418,0,0,0,47,17.5Z"/><path fill="url(#E0sncAUYHAa0xolKvX20Ye)" d="M4,36H44a0,0,0,0,1,0,0v3a1,1,0,0,1-1,1H5a1,1,0,0,1-1-1V36A0,0,0,0,1,4,36Z" transform="rotate(180 24 38)"/><path fill="url(#E0sncAUYHAa0xolKvX20Yf)" d="M1,42.5a.5.5,0,0,0,.5.5h45a.49884.49884,0,0,0,.34845-.85693h0L44,39H4L1.13043,42.16388l.00171.00384A.49418.49418,0,0,0,1,42.5Z"/><rect width="38" height="1" x="5" y="24.011" opacity=".05"/><rect width="38" height=".5" x="5" y="24.011" opacity=".07"/><rect width="38" height="1" x="5" y="35.011" opacity=".05" transform="rotate(180 24 35.511)"/><rect width="38" height=".5" x="5" y="35.511" opacity=".07" transform="rotate(180 24 35.761)"/></svg>