<svg xmlns="http://www.w3.org/2000/svg" viewBox="0 0 48 48"><linearGradient id="iq7CyFtEJJb7hSottuJbWa" x1="39.001" x2="41.528" y1="29.5" y2="29.5" gradientTransform="matrix(-1 0 0 1 48 0)" gradientUnits="userSpaceOnUse"><stop offset="0" stop-color="#c48f0c"/><stop offset=".251" stop-color="#d19b16"/><stop offset=".619" stop-color="#dca51f"/><stop offset="1" stop-color="#e0a922"/></linearGradient><path fill="url(#iq7CyFtEJJb7hSottuJbWa)" d="M9.001,25H10v9H8.667c-0.975,0-1.808-0.703-1.972-1.664l-0.653-3.832	C5.731,26.672,7.143,25,9.001,25z"/><linearGradient id="iq7CyFtEJJb7hSottuJbWb" x1="-337" x2="-334.472" y1="29.5" y2="29.5" gradientTransform="translate(376)" gradientUnits="userSpaceOnUse"><stop offset="0" stop-color="#c48f0c"/><stop offset=".251" stop-color="#d19b16"/><stop offset=".619" stop-color="#dca51f"/><stop offset="1" stop-color="#e0a922"/></linearGradient><path fill="url(#iq7CyFtEJJb7hSottuJbWb)" d="M38.999,25H38v9h1.333c0.975,0,1.808-0.703,1.972-1.664l0.653-3.832	C42.269,26.672,40.857,25,38.999,25z"/><radialGradient id="iq7CyFtEJJb7hSottuJbWc" cx="24" cy="25.5" r="17.396" gradientUnits="userSpaceOnUse"><stop offset="0" stop-color="#ffcf54"/><stop offset=".261" stop-color="#fdcb4d"/><stop offset=".639" stop-color="#f7c13a"/><stop offset="1" stop-color="#f0b421"/></radialGradient><path fill="url(#iq7CyFtEJJb7hSottuJbWc)" d="M24,6C16.598,6,9,9,9,25c0,1.281,0,5.92,0,7.288C9,38,18,45,24,45s15-7,15-12.712	c0-1.368,0-6.007,0-7.288C39,9,31.402,6,24,6z"/><radialGradient id="iq7CyFtEJJb7hSottuJbWd" cx="9.386" cy="5.933" r="42.765" gradientUnits="userSpaceOnUse"><stop offset="0" stop-color="#c26715"/><stop offset=".508" stop-color="#b85515"/><stop offset="1" stop-color="#ad3f16"/></radialGradient><path fill="url(#iq7CyFtEJJb7hSottuJbWd)" d="M24,4c-7.982,0-10,3-10,3c-3.245,0.479-7,4.566-7,10c0,3.032,0.653,4.439,2,12c1-12,2-16,4-16	c3,0,3,2,11.778,2C29.801,15,32,13,34,13c5,0,5,14.108,5,16c0.806-7.405,1-9.351,1-12C40,10.712,35.383,4,24,4z"/><radialGradient id="iq7CyFtEJJb7hSottuJbWe" cx="20.832" cy="9.178" r="53.981" gradientUnits="userSpaceOnUse"><stop offset="0" stop-color="#c26715"/><stop offset=".508" stop-color="#b85515"/><stop offset="1" stop-color="#ad3f16"/></radialGradient><path fill="url(#iq7CyFtEJJb7hSottuJbWe)" d="M24,3c-7.982,0-10,4-10,4c-0.08,2.125,1,4,1,4s1.46,3,9.778,3C29.801,14,37,11.003,37,3	C37,3,35.383,3,24,3z"/><radialGradient id="iq7CyFtEJJb7hSottuJbWf" cx="30.408" cy="30.598" r="5.756" gradientUnits="userSpaceOnUse"><stop offset="0" stop-color="#fafafb"/><stop offset="1" stop-color="#c8cdd1"/></radialGradient><path fill="url(#iq7CyFtEJJb7hSottuJbWf)" d="M28.111,31.267c-1.337-1.396-1.032-3.857,0.68-5.498c1.713-1.64,4.185-1.838,5.522-0.442 c1.337,1.396,1.032,3.857-0.68,5.498C31.92,32.465,29.448,32.663,28.111,31.267z"/><linearGradient id="iq7CyFtEJJb7hSottuJbWg" x1="29" x2="32" y1="28.5" y2="28.5" gradientUnits="userSpaceOnUse"><stop offset="0" stop-color="#0d61a9"/><stop offset="1" stop-color="#16528c"/></linearGradient><path fill="url(#iq7CyFtEJJb7hSottuJbWg)" d="M29,28.5l1.5-1.5c0.828,0,1.5,0.672,1.5,1.5S31.328,30,30.5,30S29,29.328,29,28.5z"/><radialGradient id="iq7CyFtEJJb7hSottuJbWh" cx="18.08" cy="30.766" r="6.167" gradientUnits="userSpaceOnUse"><stop offset="0" stop-color="#fafafb"/><stop offset="1" stop-color="#c8cdd1"/></radialGradient><path fill="url(#iq7CyFtEJJb7hSottuJbWh)" d="M19.889,31.267c1.337-1.396,1.032-3.857-0.68-5.498c-1.713-1.64-4.185-1.838-5.522-0.442 s-1.032,3.857,0.68,5.498C16.08,32.465,18.552,32.663,19.889,31.267z"/><linearGradient id="iq7CyFtEJJb7hSottuJbWi" x1="29" x2="32" y1="28.5" y2="28.5" gradientTransform="matrix(-1 0 0 1 48 0)" gradientUnits="userSpaceOnUse"><stop offset="0" stop-color="#0d61a9"/><stop offset="1" stop-color="#16528c"/></linearGradient><path fill="url(#iq7CyFtEJJb7hSottuJbWi)" d="M19,28.5L17.5,27c-0.828,0-1.5,0.672-1.5,1.5s0.672,1.5,1.5,1.5S19,29.328,19,28.5z"/><linearGradient id="iq7CyFtEJJb7hSottuJbWj" x1="32" x2="32" y1="15.806" y2="39.986" gradientUnits="userSpaceOnUse"><stop offset="0" stop-color="#7179d1"/><stop offset="1" stop-color="#5961c3"/></linearGradient><path fill="url(#iq7CyFtEJJb7hSottuJbWj)" d="M39.815,21.068c0,0-6.437,2.332-15.815,2.332v6.771c0.608,0.038,1.2,0.354,1.545,0.953	C26.569,32.903,28.466,34,30.519,34c2.35,0,4.441-1.448,5.33-3.622c1.843-4.507,4.054-5.127,4.151-5.207L39.815,21.068z M32.744,29.744c-1.348,1.348-3.223,1.66-4.185,0.698c-0.963-0.963-0.65-2.838,0.698-4.185c1.348-1.348,3.223-1.66,4.185-0.698	C34.404,26.521,34.091,28.396,32.744,29.744z"/><linearGradient id="iq7CyFtEJJb7hSottuJbWk" x1="48.276" x2="48.276" y1="15.806" y2="39.986" gradientTransform="matrix(-1 0 0 1 64 0)" gradientUnits="userSpaceOnUse"><stop offset="0" stop-color="#7179d1"/><stop offset="1" stop-color="#5961c3"/></linearGradient><path fill="url(#iq7CyFtEJJb7hSottuJbWk)" d="M8,25.171c0.097,0.08,2.308,0.7,4.151,5.207C13.04,32.552,15.132,34,17.481,34	c2.053,0,3.95-1.097,4.974-2.876c0.345-0.599,0.937-0.915,1.545-0.953V23.4c-9.378,0-16.551-2.332-16.551-2.332L8,25.171z M14.559,25.559c0.963-0.963,2.838-0.65,4.185,0.698c1.348,1.348,1.66,3.223,0.698,4.185c-0.963,0.963-2.838,0.65-4.185-0.698	C13.909,28.396,13.596,26.521,14.559,25.559z"/></svg>