<svg xmlns="http://www.w3.org/2000/svg" baseProfile="basic" viewBox="0 0 48 48"><linearGradient id="sq7kVdHceHNgY12XEFZ0fa" x1="-12.38" x2="-1.65" y1="39" y2="39" gradientTransform="matrix(-1 0 0 1 28 0)" gradientUnits="userSpaceOnUse"><stop offset="0" stop-color="#64717c"/><stop offset=".074" stop-color="#7a8a94"/><stop offset=".167" stop-color="#90a2ab"/><stop offset=".266" stop-color="#9fb3bc"/><stop offset=".372" stop-color="#a8bec6"/><stop offset=".5" stop-color="#abc1c9"/><stop offset=".61" stop-color="#a7bdc5"/><stop offset=".723" stop-color="#9cb1b9"/><stop offset=".837" stop-color="#8a9ca5"/><stop offset=".951" stop-color="#71808a"/><stop offset="1" stop-color="#64717c"/></linearGradient><polygon fill="url(#sq7kVdHceHNgY12XEFZ0fa)" points="30.5,36 35,35 39.5,36 39.5,43 30.5,43"/><linearGradient id="sq7kVdHceHNgY12XEFZ0fb" x1="-11.277" x2="-2.771" y1="29" y2="29" gradientTransform="matrix(-1 0 0 1 28 0)" gradientUnits="userSpaceOnUse"><stop offset="0" stop-color="#bfc8d1"/><stop offset=".014" stop-color="#c1cad3"/><stop offset=".158" stop-color="#d2dbe4"/><stop offset=".313" stop-color="#dce6ef"/><stop offset=".5" stop-color="#dfe9f2"/><stop offset=".673" stop-color="#dbe5ee"/><stop offset=".85" stop-color="#cfd9e2"/><stop offset="1" stop-color="#bfc8d1"/></linearGradient><polygon fill="url(#sq7kVdHceHNgY12XEFZ0fb)" points="30,36 40,36 40,22 30,22"/><rect width="1.5" height="3" x="35.75" y="30" fill="#64717c"/><rect width="1.5" height="3" x="32.75" y="30" fill="#64717c"/><rect width="1.5" height="3" x="35.75" y="25" fill="#64717c"/><rect width="1.5" height="3" x="35.75" y="38" fill="#64717c"/><rect width="1.5" height="3" x="32.75" y="38" fill="#64717c"/><rect width="1.5" height="3" x="32.75" y="25" fill="#64717c"/><linearGradient id="sq7kVdHceHNgY12XEFZ0fc" x1="-12.986" x2="-1.071" y1="22" y2="22" gradientTransform="matrix(-1 0 0 1 28 0)" gradientUnits="userSpaceOnUse"><stop offset="0" stop-color="#64717c"/><stop offset=".074" stop-color="#7a8a94"/><stop offset=".167" stop-color="#90a2ab"/><stop offset=".266" stop-color="#9fb3bc"/><stop offset=".372" stop-color="#a8bec6"/><stop offset=".5" stop-color="#abc1c9"/><stop offset=".61" stop-color="#a7bdc5"/><stop offset=".723" stop-color="#9cb1b9"/><stop offset=".837" stop-color="#8a9ca5"/><stop offset=".951" stop-color="#71808a"/><stop offset="1" stop-color="#64717c"/></linearGradient><polygon fill="url(#sq7kVdHceHNgY12XEFZ0fc)" points="30.5,23 39.5,23 39.5,21 30.5,21"/><linearGradient id="sq7kVdHceHNgY12XEFZ0fd" x1="7.62" x2="18.35" y1="39" y2="39" gradientUnits="userSpaceOnUse"><stop offset="0" stop-color="#64717c"/><stop offset=".074" stop-color="#7a8a94"/><stop offset=".167" stop-color="#90a2ab"/><stop offset=".266" stop-color="#9fb3bc"/><stop offset=".372" stop-color="#a8bec6"/><stop offset=".5" stop-color="#abc1c9"/><stop offset=".61" stop-color="#a7bdc5"/><stop offset=".723" stop-color="#9cb1b9"/><stop offset=".837" stop-color="#8a9ca5"/><stop offset=".951" stop-color="#71808a"/><stop offset="1" stop-color="#64717c"/></linearGradient><polygon fill="url(#sq7kVdHceHNgY12XEFZ0fd)" points="17.5,36 13,35 8.5,36 8.5,43 17.5,43"/><linearGradient id="sq7kVdHceHNgY12XEFZ0fe" x1="8.723" x2="17.229" y1="29" y2="29" gradientUnits="userSpaceOnUse"><stop offset="0" stop-color="#bfc8d1"/><stop offset=".014" stop-color="#c1cad3"/><stop offset=".158" stop-color="#d2dbe4"/><stop offset=".313" stop-color="#dce6ef"/><stop offset=".5" stop-color="#dfe9f2"/><stop offset=".673" stop-color="#dbe5ee"/><stop offset=".85" stop-color="#cfd9e2"/><stop offset="1" stop-color="#bfc8d1"/></linearGradient><rect width="10" height="14" x="8" y="22" fill="url(#sq7kVdHceHNgY12XEFZ0fe)"/><rect width="12" height="9" x="18" y="13" fill="#64717c"/><path fill="#64717c" d="M24,6c-0.553,0-1-0.447-1-1V1.994c0-0.553,0.447-1,1-1s1,0.447,1,1V5C25,5.553,24.553,6,24,6z"/><linearGradient id="sq7kVdHceHNgY12XEFZ0ff" x1="24" x2="24" y1="4" y2="13" gradientUnits="userSpaceOnUse"><stop offset="0" stop-color="#ffd869"/><stop offset="1" stop-color="#fec52b"/></linearGradient><path fill="url(#sq7kVdHceHNgY12XEFZ0ff)" d="M30,13H18c0-4.47,3.49-9,6-9S30,8.53,30,13z"/><linearGradient id="sq7kVdHceHNgY12XEFZ0fg" x1="24" x2="24" y1="13" y2="23" gradientUnits="userSpaceOnUse"><stop offset="0" stop-color="#dfe9f2"/><stop offset=".391" stop-color="#d6e0e9"/><stop offset="1" stop-color="#bfc8d1"/></linearGradient><path fill="url(#sq7kVdHceHNgY12XEFZ0fg)" d="M17,13v1v9h14v-9v-1H17z M29,21H19v-7.5h2V20h2v-6.5h2V20h2v-6.5h2V21z"/><rect width="1.5" height="3" x="10.75" y="30" fill="#64717c"/><rect width="1.5" height="3" x="13.75" y="30" fill="#64717c"/><rect width="1.5" height="3" x="10.75" y="25" fill="#64717c"/><rect width="1.5" height="3" x="13.75" y="25" fill="#64717c"/><rect width="1.5" height="3" x="10.75" y="38" fill="#64717c"/><rect width="1.5" height="3" x="13.75" y="38" fill="#64717c"/><rect width="16" height="2" x="16" y="12" fill="#abc1c9"/><linearGradient id="sq7kVdHceHNgY12XEFZ0fh" x1="7.014" x2="18.93" y1="22" y2="22" gradientUnits="userSpaceOnUse"><stop offset="0" stop-color="#64717c"/><stop offset=".074" stop-color="#7a8a94"/><stop offset=".167" stop-color="#90a2ab"/><stop offset=".266" stop-color="#9fb3bc"/><stop offset=".372" stop-color="#a8bec6"/><stop offset=".5" stop-color="#abc1c9"/><stop offset=".61" stop-color="#a7bdc5"/><stop offset=".723" stop-color="#9cb1b9"/><stop offset=".837" stop-color="#8a9ca5"/><stop offset=".951" stop-color="#71808a"/><stop offset="1" stop-color="#64717c"/></linearGradient><rect width="9" height="2" x="8.5" y="21" fill="url(#sq7kVdHceHNgY12XEFZ0fh)"/><rect width="12" height="11" x="18" y="24" fill="#64717c"/><linearGradient id="sq7kVdHceHNgY12XEFZ0fi" x1="24" x2="24" y1="22" y2="43" gradientUnits="userSpaceOnUse"><stop offset="0" stop-color="#dfe9f2"/><stop offset=".391" stop-color="#d6e0e9"/><stop offset="1" stop-color="#bfc8d1"/></linearGradient><path fill="url(#sq7kVdHceHNgY12XEFZ0fi)" d="M17,22v12l1,9h12l1-9V22H17z M29,42H19V25h2v10h2V25h2v10h2V25h2V42z"/><rect width="14" height="10" x="17" y="34" fill="#abc1c9"/><polygon fill="#abc1c9" points="31,23 17,23 17,21 24,17.85 31,21"/><path fill="#64717c" d="M21,42l-2-1v-4c0-0.552,0.448-1,1-1h0c0.552,0,1,0.448,1,1V42z"/><path fill="#64717c" d="M29,41l-2,1v-5c0-0.552,0.448-1,1-1h0c0.552,0,1,0.448,1,1V41z"/><path fill="#64717c" d="M25,42h-2v-5c0-0.552,0.448-1,1-1h0c0.552,0,1,0.448,1,1V42z"/><linearGradient id="sq7kVdHceHNgY12XEFZ0fj" x1="24" x2="24" y1="41" y2="44" gradientUnits="userSpaceOnUse"><stop offset="0" stop-color="#dfe9f2"/><stop offset=".391" stop-color="#d6e0e9"/><stop offset="1" stop-color="#bfc8d1"/></linearGradient><rect width="10" height="3" x="19" y="41" fill="url(#sq7kVdHceHNgY12XEFZ0fj)"/><polygon fill="#abc1c9" points="9,36 5,35 1,36 1,43 9,43"/><linearGradient id="sq7kVdHceHNgY12XEFZ0fk" x1="5" x2="5" y1="22" y2="36" gradientUnits="userSpaceOnUse"><stop offset="0" stop-color="#dfe9f2"/><stop offset=".391" stop-color="#d6e0e9"/><stop offset="1" stop-color="#bfc8d1"/></linearGradient><rect width="8" height="14" x="1" y="22" fill="url(#sq7kVdHceHNgY12XEFZ0fk)"/><polygon fill="#abc1c9" points="9,21 9,23 1,23 1,21 5,19"/><rect width="1.5" height="3" x="2.75" y="30" fill="#64717c"/><rect width="1.5" height="3" x="5.75" y="30" fill="#64717c"/><rect width="1.5" height="3" x="2.75" y="25" fill="#64717c"/><rect width="1.5" height="3" x="2.75" y="38" fill="#64717c"/><rect width="1.5" height="3" x="5.75" y="38" fill="#64717c"/><rect width="1.5" height="3" x="5.75" y="25" fill="#64717c"/><polygon fill="#abc1c9" points="39,36 43,35 47,36 47,43 39,43"/><linearGradient id="sq7kVdHceHNgY12XEFZ0fl" x1="-15" x2="-15" y1="22" y2="36" gradientTransform="matrix(-1 0 0 1 28 0)" gradientUnits="userSpaceOnUse"><stop offset="0" stop-color="#dfe9f2"/><stop offset=".391" stop-color="#d6e0e9"/><stop offset="1" stop-color="#bfc8d1"/></linearGradient><rect width="8" height="14" x="39" y="22" fill="url(#sq7kVdHceHNgY12XEFZ0fl)"/><polygon fill="#abc1c9" points="39,21 39,23 47,23 47,21 43,19"/><rect width="1.5" height="3" x="43.75" y="30" fill="#64717c"/><rect width="1.5" height="3" x="40.75" y="30" fill="#64717c"/><rect width="1.5" height="3" x="43.75" y="25" fill="#64717c"/><rect width="1.5" height="3" x="43.75" y="38" fill="#64717c"/><rect width="1.5" height="3" x="40.75" y="38" fill="#64717c"/><rect width="1.5" height="3" x="40.75" y="25" fill="#64717c"/></svg>