<svg xmlns="http://www.w3.org/2000/svg" viewBox="0 0 48 48"><path fill="#ed6c47" d="M43,36H29V17c0-1.657,1.343-3,3-3h7.559c0.861,0,1.625,0.551,1.897,1.367L45,26v8	C45,35.105,44.105,36,43,36"/><path fill="#d35230" d="M29,36H5c-1.105,0-2-0.895-2-2v-5h26V36z"/><path fill="#586169" d="M42,36c0,2.761-2.238,5-5,5s-5-2.239-5-5s2.238-5,5-5S42,33.239,42,36"/><path fill="#586169" d="M18,36c0,2.761-2.239,5-5,5s-5-2.239-5-5s2.239-5,5-5S18,33.239,18,36"/><path fill="#999" d="M39,36c0,1.105-0.895,2-2,2s-2-0.895-2-2s0.895-2,2-2S39,34.895,39,36"/><path fill="#999" d="M15,36c0,1.105-0.895,2-2,2s-2-0.895-2-2s0.895-2,2-2S15,34.895,15,36"/><path fill="#d35230" d="M41,25h-7c-0.552,0-1-0.448-1-1v-7c0-0.552,0.448-1,1-1h5c0.432,0,0.813,0.275,0.949,0.684l2,6	C41.982,22.786,42,22.893,42,23v1C42,24.552,41.552,25,41,25z"/><path fill="#ff8f6b" d="M26,7H13.5c-0.944,0-1.833,0.445-2.4,1.2l-7.3,9.733c-0.519,0.692-0.8,1.535-0.8,2.4V29h26V10	C29,8.343,27.657,7,26,7z"/><path fill="#ed6c47" d="M24,11c0-0.552-0.448-1-1-1s-1,0.448-1,1c0,0.186,0,13.814,0,14c0,0.552,0.448,1,1,1s1-0.448,1-1	C24,24.814,24,11.186,24,11z"/><path fill="#ed6c47" d="M19,11c0-0.552-0.448-1-1-1s-1,0.448-1,1c0,0.186,0,13.814,0,14c0,0.552,0.448,1,1,1s1-0.448,1-1	C19,24.814,19,11.186,19,11z"/><path fill="#ed6c47" d="M14,14c0-0.552-0.448-1-1-1s-1,0.448-1,1c0,0.186,0,10.814,0,11c0,0.552,0.448,1,1,1s1-0.448,1-1	C14,24.814,14,14.186,14,14z"/><path fill="#ed6c47" d="M9,19c0-0.552-0.448-1-1-1s-1,0.448-1,1c0,0.186,0,5.814,0,6c0,0.552,0.448,1,1,1s1-0.448,1-1	C9,24.814,9,19.186,9,19z"/></svg>