<svg xmlns="http://www.w3.org/2000/svg" viewBox="0 0 48 48"><linearGradient id="ZDGcLwFCGn1r1wRt1lVnqa" x1="19.676" x2="19.676" y1="22" y2="7.661" gradientUnits="userSpaceOnUse"><stop offset="0" stop-color="#3079d6"/><stop offset="1" stop-color="#297cd2"/></linearGradient><path fill="url(#ZDGcLwFCGn1r1wRt1lVnqa)" d="M29,21.08c0,0.51-0.45,0.92-1,0.92H15.62c-0.11,0-0.22-0.01-0.33-0.03	C15.19,21.99,15.09,22,15,22h-2v-2L10.41,9.71c-0.24-0.87,0.28-1.76,1.14-1.99c0.87-0.24,1.76,0.28,1.99,1.14L16.27,19h10.48	C27.99,19,29,19.93,29,21.08z"/><linearGradient id="ZDGcLwFCGn1r1wRt1lVnqb" x1="15.31" x2="15.31" y1="22" y2="21.97" gradientUnits="userSpaceOnUse"><stop offset="0" stop-color="#3079d6"/><stop offset="1" stop-color="#297cd2"/></linearGradient><path fill="url(#ZDGcLwFCGn1r1wRt1lVnqb)" d="M15.62,22H15c0.09,0,0.19-0.01,0.29-0.03	C15.4,21.99,15.51,22,15.62,22z"/><linearGradient id="ZDGcLwFCGn1r1wRt1lVnqc" x1="23.5" x2="23.5" y1="16.398" y2="30.863" gradientUnits="userSpaceOnUse"><stop offset="0" stop-color="#d95f6a"/><stop offset=".014" stop-color="#d85c67"/><stop offset=".142" stop-color="#ce424e"/><stop offset=".285" stop-color="#c72f3a"/><stop offset=".449" stop-color="#c2212c"/><stop offset=".65" stop-color="#bf1824"/><stop offset="1" stop-color="#be1622"/></linearGradient><rect width="19" height="7" x="14" y="22" fill="url(#ZDGcLwFCGn1r1wRt1lVnqc)"/><linearGradient id="ZDGcLwFCGn1r1wRt1lVnqd" x1="25" x2="25" y1="38" y2="4" gradientUnits="userSpaceOnUse"><stop offset=".477" stop-color="#45494d"/><stop offset=".9" stop-color="#6d7882"/></linearGradient><path fill="url(#ZDGcLwFCGn1r1wRt1lVnqd)" d="M45,36h-1.04c-0.85,0-1.6-0.53-1.89-1.33	l-3.34-9.35C38.02,23.33,36.14,22,34.02,22H33.5v-1.54c0-0.82-0.15-1.64-0.52-2.38c-0.92-1.82-2.68-2.76-4.54-2.77l-15.79,0.18	L9.97,4.76C9.86,4.31,9.46,4,9,4H5C4.45,4,4,4.45,4,5s0.45,1,1,1h3.22L14,29.12v3.26h2V30h15.5v3c0,0.55,0.45,1,1,1s1-0.45,1-1v-9	h0.52c1.27,0,2.4,0.8,2.83,1.99l3.81,10.68c0.29,0.8,1.04,1.33,1.89,1.33H45c0.55,0,1-0.45,1-1S45.55,36,45,36z M31.5,28H15.78l-1-4	H31.5V28z M31.5,22H14.28l-1.13-4.51l15.32-0.18c0.8,0,1.56,0.29,2.14,0.86c0.57,0.57,0.89,1.33,0.89,2.14V22z"/><linearGradient id="ZDGcLwFCGn1r1wRt1lVnqe" x1="15.5" x2="15.5" y1="51.493" y2="27.412" gradientUnits="userSpaceOnUse"><stop offset=".477" stop-color="#45494d"/><stop offset=".9" stop-color="#6d7882"/></linearGradient><circle cx="15.5" cy="36.5" r="5.5" fill="url(#ZDGcLwFCGn1r1wRt1lVnqe)"/><linearGradient id="ZDGcLwFCGn1r1wRt1lVnqf" x1="15.5" x2="15.5" y1="19.349" y2="37.158" gradientUnits="userSpaceOnUse"><stop offset="0" stop-color="#a1aab3"/><stop offset="1" stop-color="#8f979e"/></linearGradient><circle cx="15.5" cy="36.5" r="3.5" fill="url(#ZDGcLwFCGn1r1wRt1lVnqf)"/><linearGradient id="ZDGcLwFCGn1r1wRt1lVnqg" x1="32.5" x2="32.5" y1="49.767" y2="30.064" gradientUnits="userSpaceOnUse"><stop offset=".477" stop-color="#45494d"/><stop offset=".9" stop-color="#6d7882"/></linearGradient><circle cx="32.5" cy="37.5" r="4.5" fill="url(#ZDGcLwFCGn1r1wRt1lVnqg)"/><linearGradient id="ZDGcLwFCGn1r1wRt1lVnqh" x1="32.5" x2="32.5" y1="19.349" y2="37.158" gradientUnits="userSpaceOnUse"><stop offset="0" stop-color="#a1aab3"/><stop offset="1" stop-color="#8f979e"/></linearGradient><circle cx="32.5" cy="37.5" r="2.5" fill="url(#ZDGcLwFCGn1r1wRt1lVnqh)"/><linearGradient id="ZDGcLwFCGn1r1wRt1lVnqi" x1="43.5" x2="43.5" y1="38" y2="35" gradientUnits="userSpaceOnUse"><stop offset="0" stop-color="#3079d6"/><stop offset="1" stop-color="#297cd2"/></linearGradient><path fill="url(#ZDGcLwFCGn1r1wRt1lVnqi)" d="M41,38h4.5c0.828,0,1.5-0.672,1.5-1.5l0,0	c0-0.828-0.672-1.5-1.5-1.5H40L41,38z"/></svg>