<svg xmlns="http://www.w3.org/2000/svg" viewBox="0 0 48 48"><linearGradient id="CSO1h1~CUR7nnYTRgTCN3a" x1="20.748" x2="24.432" y1="30.635" y2="42.503" gradientUnits="userSpaceOnUse"><stop offset="0" stop-color="#5963e0"/><stop offset="1" stop-color="#5059c9"/></linearGradient><path fill="url(#CSO1h1~CUR7nnYTRgTCN3a)" d="M24,30.571c-8.837,0-16,4.921-16,10.286V42c0,1.105,0.895,2,2,2h28c1.105,0,2-0.895,2-2	v-1.143C40,35.492,32.837,30.571,24,30.571z"/><path fill="#d6a121" d="M29,31c0,1.897-2,4-5,4s-5-2.103-5-4c0-2.637,0-7.035,0-7.035h10C29,23.965,29,28.363,29,31z"/><linearGradient id="CSO1h1~CUR7nnYTRgTCN3b" x1="32.917" x2="34.251" y1="20" y2="20" gradientUnits="userSpaceOnUse"><stop offset="0" stop-color="#c48f0c"/><stop offset=".251" stop-color="#d19b16"/><stop offset=".619" stop-color="#dca51f"/><stop offset="1" stop-color="#e0a922"/></linearGradient><path fill="url(#CSO1h1~CUR7nnYTRgTCN3b)" d="M32.916,18h-0.527v4h0.703c0.515,0,0.954-0.312,1.041-0.74l0.344-1.703	C34.642,18.743,33.897,18,32.916,18z"/><linearGradient id="CSO1h1~CUR7nnYTRgTCN3c" x1="-71.083" x2="-69.749" y1="20" y2="20" gradientTransform="matrix(-1 0 0 1 -56 0)" gradientUnits="userSpaceOnUse"><stop offset="0" stop-color="#c48f0c"/><stop offset=".251" stop-color="#d19b16"/><stop offset=".619" stop-color="#dca51f"/><stop offset="1" stop-color="#e0a922"/></linearGradient><path fill="url(#CSO1h1~CUR7nnYTRgTCN3c)" d="M15.084,18h0.527v4h-0.703c-0.515,0-0.954-0.312-1.041-0.74l-0.344-1.703	C13.358,18.743,14.103,18,15.084,18z"/><radialGradient id="CSO1h1~CUR7nnYTRgTCN3d" cx="-12.518" cy="17.72" r="12.224" gradientTransform="translate(35.037 3.078) scale(.8816)" gradientUnits="userSpaceOnUse"><stop offset="0" stop-color="#ffcf54"/><stop offset=".261" stop-color="#fdcb4d"/><stop offset=".639" stop-color="#f7c13a"/><stop offset="1" stop-color="#f0b421"/></radialGradient><path fill="url(#CSO1h1~CUR7nnYTRgTCN3d)" d="M24,6.4c-4.441,0-9,0.675-9,10.275c0,0.768,0,5.877,0,6.698C15,26.8,20.4,31,24,31	s9-4.2,9-7.627c0-0.821,0-5.929,0-6.698C33,7.075,28.441,6.4,24,6.4z"/><radialGradient id="CSO1h1~CUR7nnYTRgTCN3e" cx="-22.221" cy="4.067" r="28.915" gradientTransform="translate(35.037 3.078) scale(.8816)" gradientUnits="userSpaceOnUse"><stop offset="0" stop-color="#c26715"/><stop offset=".508" stop-color="#b85515"/><stop offset="1" stop-color="#ad3f16"/></radialGradient><path fill="url(#CSO1h1~CUR7nnYTRgTCN3e)" d="M24,5.545c-4.354,0-5,1.636-5,1.636c-1.77,0.261-5,5.854-5,8.818c0,1,0,3,1,4	c0.545-6.545,2.249-9,4-9c1.267,0,2.273,1,5,1c2.303,0,2.875-1,5-1c3,0,4,7.968,4,9c1-1,1-4,1-4C34,12.57,30.209,5.545,24,5.545z"/><rect width="1" height="12" x="39" y="9" fill="#3a41ac"/><path fill="#3a41ac" d="M39.5,24.2c0,0,1.5-1.872,1.5-2.7S40.328,20,39.5,20S38,20.672,38,21.5S39.5,24.2,39.5,24.2z"/><path fill="#5059c9" d="M22.832,16.439L7.467,10.037c-0.623-0.259-0.623-1.142,0-1.401l15.365-6.402	c0.747-0.311,1.588-0.311,2.335,0l15.365,6.402c0.623,0.259,0.623,1.142,0,1.401l-15.365,6.402	C24.42,16.75,23.58,16.75,22.832,16.439z"/><path fill="#7b83eb" d="M24,9c-5.523,0-10,0.959-10,2.143V16c5.714,0,10,2,10,2s4.286-2,10-2v-4.857C34,9.959,29.523,9,24,9z"/></svg>