<svg xmlns="http://www.w3.org/2000/svg" viewBox="0 0 48 48"><radialGradient id="k0rcp8-NzfkXyaCq9ml5Ha" cx="-207.864" cy="-36.576" r="18.236" gradientTransform="matrix(-.9946 0 0 -1 -177.407 -8)" gradientUnits="userSpaceOnUse"><stop offset=".376" stop-color="#261103"/><stop offset=".68" stop-color="#431d06"/><stop offset="1" stop-color="#662c09"/></radialGradient><path fill="url(#k0rcp8-NzfkXyaCq9ml5Ha)" d="M12,34.189c0,3.937,1.818,7.387,5.627,8.301C20.888,43.274,24.993,44,29,44	s8.112-0.726,11.373-1.508C44.182,41.577,46,38.128,46,34.19c0,0-3.378-22.116-17-22.116S12,34.189,12,34.189z"/><radialGradient id="k0rcp8-NzfkXyaCq9ml5Hb" cx="-579.742" cy="-18.993" r="14.322" gradientTransform="matrix(.9695 0 0 -.9576 591.07 8.46)" gradientUnits="userSpaceOnUse"><stop offset="0" stop-color="#ffcf54"/><stop offset=".261" stop-color="#fdcb4d"/><stop offset=".639" stop-color="#f7c13a"/><stop offset="1" stop-color="#f0b421"/></radialGradient><path fill="url(#k0rcp8-NzfkXyaCq9ml5Hb)" d="M41,26.309c0,1.012,0,3.831,0,4.912	C41,35.735,33.651,42,29,42s-12-6.265-12-10.779c0-1.081,0-3.9,0-4.912c0-12.643,6.079-15.013,12-15.013S41,13.666,41,26.309z"/><radialGradient id="k0rcp8-NzfkXyaCq9ml5Hc" cx="-216.892" cy="-15.844" r="42.525" gradientTransform="matrix(-.9946 0 0 -1.0073 -177.407 -8.332)" gradientUnits="userSpaceOnUse"><stop offset="0" stop-color="#c26715"/><stop offset=".508" stop-color="#b85515"/><stop offset="1" stop-color="#ad3f16"/></radialGradient><path fill="url(#k0rcp8-NzfkXyaCq9ml5Hc)" d="M12,34.122	c0,3.309,1.207,5.746,2.785,6.961c-5.802-26.149,15.07-13.261,21.547-27.839c-2.249,10.934,12.865,8.66,6.269,28.299	c0.911-0.538,3.4-2.386,3.4-7.421c0-18.532-5.742-22.405-8.5-22.818c0,0-1.715-4.304-8.5-4.304C19.324,7,12,15.837,12,34.122z"/><path fill="#343434" d="M27.5,9.5c-0.256,0-0.512-0.098-0.707-0.293l-2.5-2.5c-0.391-0.391-0.391-1.023,0-1.414	s1.023-0.391,1.414,0l2.5,2.5c0.391,0.391,0.391,1.023,0,1.414C28.012,9.402,27.756,9.5,27.5,9.5z"/><path fill="#343434" d="M16.5,20.5c-0.256,0-0.512-0.098-0.707-0.293l-2.5-2.5c-0.391-0.391-0.391-1.023,0-1.414	s1.023-0.391,1.414,0l2.5,2.5c0.391,0.391,0.391,1.023,0,1.414C17.012,20.402,16.756,20.5,16.5,20.5z"/><linearGradient id="k0rcp8-NzfkXyaCq9ml5Hd" x1="11.466" x2="18.462" y1="12.468" y2="19.464" gradientUnits="userSpaceOnUse"><stop offset="0" stop-color="#5c65d6"/><stop offset=".367" stop-color="#5c65d6"/><stop offset=".422" stop-color="#5861cf"/><stop offset=".592" stop-color="#4e56be"/><stop offset=".776" stop-color="#4850b3"/><stop offset=".999" stop-color="#464eb0"/></linearGradient><path fill="url(#k0rcp8-NzfkXyaCq9ml5Hd)" d="M25.531,4.682l0.007-0.007	c0.254-0.254,0.254-0.671,0-0.925c-0.15-0.15-0.319-0.28-0.495-0.384c-0.176-0.104-0.358-0.189-0.553-0.247	c-0.879-0.28-1.888-0.065-2.585,0.632L2.749,22.906C2.247,23.408,2,24.065,2,24.723c0,0.658,0.247,1.315,0.749,1.817	c0.254,0.254,0.671,0.254,0.925,0l8.471-8.471c0.983,0.306,2.031,0.469,3.112,0.469C21.188,18.537,26,13.726,26,7.794	C26,6.713,25.837,5.665,25.531,4.682z"/><path fill="#343434" d="M26.5,13.5c-0.256,0-0.512-0.098-0.707-0.293l-2.5-2.5c-0.391-0.391-0.391-1.023,0-1.414	s1.023-0.391,1.414,0l2.5,2.5c0.391,0.391,0.391,1.023,0,1.414C27.012,13.402,26.756,13.5,26.5,13.5z"/><path fill="#343434" d="M20.5,19.5c-0.256,0-0.512-0.098-0.707-0.293l-2.5-2.5c-0.391-0.391-0.391-1.023,0-1.414	s1.023-0.391,1.414,0l2.5,2.5c0.391,0.391,0.391,1.023,0,1.414C21.012,19.402,20.756,19.5,20.5,19.5z"/><path fill="#343434" d="M24.125,17.125c-0.256,0-0.512-0.098-0.707-0.293l-2.125-2.125c-0.391-0.391-0.391-1.023,0-1.414	s1.023-0.391,1.414,0l2.125,2.125c0.391,0.391,0.391,1.023,0,1.414C24.637,17.027,24.381,17.125,24.125,17.125z"/></svg>