<svg xmlns="http://www.w3.org/2000/svg" viewBox="0 0 48 48"><linearGradient id="8W1LabX2y_Ym81cctKWg7a" x1="6" x2="32" y1="33.5" y2="33.5" gradientUnits="userSpaceOnUse"><stop offset="0" stop-color="#0d61a9"/><stop offset="1" stop-color="#16528c"/></linearGradient><rect width="26" height="11" x="6" y="28" fill="url(#8W1LabX2y_Ym81cctKWg7a)"/><path fill="#0078d4" d="M8,6h22c1.105,0,2,0.895,2,2v20H6V8C6,6.895,6.895,6,8,6z"/><rect width="2" height="2" x="18" y="12" fill="#005094"/><rect width="2" height="2" x="14" y="12" fill="#005094"/><rect width="2" height="2" x="10" y="12" fill="#005094"/><rect width="2" height="2" x="26" y="12" fill="#005094"/><rect width="2" height="2" x="22" y="12" fill="#005094"/><rect width="2" height="2" x="18" y="20" fill="#005094"/><rect width="2" height="2" x="14" y="20" fill="#005094"/><rect width="2" height="2" x="10" y="20" fill="#005094"/><rect width="2" height="2" x="18" y="16" fill="#005094"/><rect width="2" height="2" x="14" y="16" fill="#005094"/><rect width="2" height="2" x="26" y="20" fill="#005094"/><rect width="2" height="2" x="22" y="20" fill="#005094"/><rect width="2" height="2" x="10" y="16" fill="#005094"/><rect width="2" height="2" x="18" y="24" fill="#005094"/><rect width="2" height="2" x="14" y="24" fill="#005094"/><rect width="2" height="2" x="26" y="24" fill="#005094"/><rect width="2" height="2" x="22" y="24" fill="#005094"/><rect width="2" height="2" x="10" y="24" fill="#005094"/><g><rect width="2" height="2" x="18" y="30" fill="#004885"/><rect width="2" height="2" x="14" y="30" fill="#004885"/><rect width="2" height="2" x="10" y="30" fill="#004885"/><rect width="2" height="2" x="26" y="30" fill="#004885"/><rect width="2" height="2" x="22" y="30" fill="#004885"/><rect width="2" height="2" x="18" y="34" fill="#004885"/><rect width="2" height="2" x="14" y="34" fill="#004885"/><rect width="2" height="2" x="26" y="34" fill="#004885"/><rect width="2" height="2" x="22" y="34" fill="#004885"/><rect width="2" height="2" x="10" y="34" fill="#004885"/></g><path fill="#199be2" d="M32,10H6c-0.553,0-1-0.448-1-1s0.447-1,1-1h26c0.553,0,1,0.448,1,1S32.553,10,32,10z"/><rect width="20" height="10" x="22" y="32" fill="#0078d4"/><path fill="#199be2" d="M22,18v14h20V18c0-1.105-0.895-2-2-2H24C22.895,16,22,16.895,22,18z"/><g><rect width="2" height="2" x="33" y="19" fill="#0d62ab"/><rect width="2" height="2" x="29" y="19" fill="#0d62ab"/><rect width="2" height="2" x="25" y="19" fill="#0d62ab"/><rect width="2" height="2" x="37" y="19" fill="#0d62ab"/><rect width="2" height="2" x="33" y="27" fill="#0d62ab"/><rect width="2" height="2" x="29" y="27" fill="#0d62ab"/><rect width="2" height="2" x="25" y="27" fill="#0d62ab"/><rect width="2" height="2" x="33" y="23" fill="#0d62ab"/><rect width="2" height="2" x="29" y="23" fill="#0d62ab"/><rect width="2" height="2" x="37" y="27" fill="#0d62ab"/><rect width="2" height="2" x="37" y="23" fill="#0d62ab"/><rect width="2" height="2" x="25" y="23" fill="#0d62ab"/></g><g><rect width="2" height="2" x="33" y="34" fill="#005094"/><rect width="2" height="2" x="29" y="34" fill="#005094"/><rect width="2" height="2" x="25" y="34" fill="#005094"/><rect width="2" height="2" x="37" y="34" fill="#005094"/><rect width="2" height="2" x="33" y="38" fill="#005094"/><rect width="2" height="2" x="29" y="38" fill="#005094"/><rect width="2" height="2" x="37" y="38" fill="#005094"/><rect width="2" height="2" x="25" y="38" fill="#005094"/></g></svg>