<svg xmlns="http://www.w3.org/2000/svg" viewBox="0 0 48 48"><path fill="#1a9ba1" d="M45,20h-4c-0.552,0-1-0.447-1-1v-6h-4c-0.552,0-1-0.447-1-1s0.448-1,1-1h5c0.552,0,1,0.447,1,1v6h3 c0.552,0,1,0.447,1,1S45.552,20,45,20z"/><linearGradient id="jfxKUQYdd51eOPbwNZEfma" x1="23.862" x2="24.184" y1="31.813" y2="46.265" gradientUnits="userSpaceOnUse"><stop offset="0" stop-color="#889097"/><stop offset=".331" stop-color="#848c94"/><stop offset=".669" stop-color="#78828b"/><stop offset="1" stop-color="#64717c"/></linearGradient><rect width="36" height="12" x="6" y="32" fill="url(#jfxKUQYdd51eOPbwNZEfma)"/><path fill="#c0c9cc" d="M12,37H6c-0.552,0-1-0.448-1-1v-3c0-0.552,0.448-1,1-1h6c0.552,0,1,0.448,1,1v3 C13,36.552,12.552,37,12,37z"/><path fill="#c0c9cc" d="M22,37h-6c-0.552,0-1-0.448-1-1v-3c0-0.552,0.448-1,1-1h6c0.552,0,1,0.448,1,1v3 C23,36.552,22.552,37,22,37z"/><path fill="#c0c9cc" d="M32,37h-6c-0.552,0-1-0.448-1-1v-3c0-0.552,0.448-1,1-1h6c0.552,0,1,0.448,1,1v3 C33,36.552,32.552,37,32,37z"/><path fill="#c0c9cc" d="M42,37h-6c-0.552,0-1-0.448-1-1v-3c0-0.552,0.448-1,1-1h6c0.552,0,1,0.448,1,1v3 C43,36.552,42.552,37,42,37z"/><path fill="#c0c9cc" d="M7,44H6c-0.552,0-1-0.448-1-1v-3c0-0.552,0.448-1,1-1h1c0.552,0,1,0.448,1,1v3 C8,43.552,7.552,44,7,44z"/><path fill="#c0c9cc" d="M42,44h-1c-0.552,0-1-0.448-1-1v-3c0-0.552,0.448-1,1-1h1c0.552,0,1,0.448,1,1v3 C43,43.552,42.552,44,42,44z"/><path fill="#c0c9cc" d="M17,44h-6c-0.552,0-1-0.448-1-1v-3c0-0.552,0.448-1,1-1h6c0.552,0,1,0.448,1,1v3 C18,43.552,17.552,44,17,44z"/><path fill="#c0c9cc" d="M27,44h-6c-0.552,0-1-0.448-1-1v-3c0-0.552,0.448-1,1-1h6c0.552,0,1,0.448,1,1v3 C28,43.552,27.552,44,27,44z"/><path fill="#c0c9cc" d="M37,44h-6c-0.552,0-1-0.448-1-1v-3c0-0.552,0.448-1,1-1h6c0.552,0,1,0.448,1,1v3 C38,43.552,37.552,44,37,44z"/><linearGradient id="jfxKUQYdd51eOPbwNZEfmb" x1="12.373" x2="12.712" y1="13.305" y2="28.488" gradientUnits="userSpaceOnUse"><stop offset="0" stop-color="#dd7d22"/><stop offset="1" stop-color="#d97218"/></linearGradient><rect width="3" height="26" x="11" y="6" fill="url(#jfxKUQYdd51eOPbwNZEfmb)"/><rect width="20" height="6" x="14" y="9" fill="#a04c0d"/><linearGradient id="jfxKUQYdd51eOPbwNZEfmc" x1="35.339" x2="35.724" y1="11.774" y2="29.022" gradientUnits="userSpaceOnUse"><stop offset="0" stop-color="#dd7d22"/><stop offset="1" stop-color="#d97218"/></linearGradient><rect width="3" height="26" x="34" y="6" fill="url(#jfxKUQYdd51eOPbwNZEfmc)"/><path fill="#1a9ba1" d="M27,25c-0.552,0-1-0.447-1-1v-1c0-1.103-0.897-2-2-2s-2,0.897-2,2v1c0,0.553-0.448,1-1,1 s-1-0.447-1-1v-1c0-2.206,1.794-4,4-4s4,1.794,4,4v1C28,24.553,27.552,25,27,25z"/><polygon fill="#37c6d0" points="27,30 21,30 19,23 29,23"/><path fill="#a1aab3" d="M24,21c-0.552,0-1-0.447-1-1v-5c0-0.553,0.448-1,1-1s1,0.447,1,1v5C25,20.553,24.552,21,24,21z"/><path fill="#c0c9cc" d="M15.999,16c-0.15,0-0.303-0.034-0.446-0.105c-0.494-0.247-0.694-0.848-0.447-1.342l3-6 c0.247-0.493,0.847-0.692,1.342-0.447c0.494,0.247,0.694,0.848,0.447,1.342l-3,6C16.719,15.798,16.366,16,15.999,16z"/><path fill="#c0c9cc" d="M19.999,16c-0.15,0-0.303-0.034-0.446-0.105c-0.494-0.247-0.694-0.848-0.447-1.342l3-6 c0.247-0.493,0.847-0.692,1.342-0.447c0.494,0.247,0.694,0.848,0.447,1.342l-3,6C20.719,15.798,20.366,16,19.999,16z"/><path fill="#c0c9cc" d="M23.999,16c-0.15,0-0.303-0.034-0.446-0.105c-0.494-0.247-0.694-0.848-0.447-1.342l3-6 c0.247-0.493,0.847-0.692,1.342-0.447c0.494,0.247,0.694,0.848,0.447,1.342l-3,6C24.719,15.798,24.366,16,23.999,16z"/><path fill="#c0c9cc" d="M27.999,16c-0.15,0-0.303-0.034-0.446-0.105c-0.494-0.247-0.694-0.848-0.447-1.342l3-6 c0.247-0.493,0.846-0.692,1.342-0.447c0.494,0.247,0.694,0.848,0.447,1.342l-3,6C28.719,15.798,28.366,16,27.999,16z"/></svg>