<svg xmlns="http://www.w3.org/2000/svg" xmlns:xlink="http://www.w3.org/1999/xlink" data-name="Слой 1" viewBox="0 0 48 48"><defs><linearGradient id="TznaW7YtfR~6QNKr7Twvgb" x1="3.818" x2="18.629" y1="28.143" y2="42.954" data-name="Безымянный градиент 70" gradientUnits="userSpaceOnUse"><stop offset="0" stop-color="#6d6d6d"/><stop offset=".126" stop-color="#626262"/><stop offset=".987" stop-color="#464646"/><stop offset=".998" stop-color="#454545"/></linearGradient><linearGradient id="TznaW7YtfR~6QNKr7Twvga" x1="32.652" x2="37.767" y1="16.674" y2="30.729" data-name="Безымянный градиент 121" gradientUnits="userSpaceOnUse"><stop offset="0" stop-color="#f44f5a"/><stop offset=".443" stop-color="#ee3d4a"/><stop offset="1" stop-color="#e52030"/></linearGradient><linearGradient id="TznaW7YtfR~6QNKr7Twvgc" x1="33.95" x2="39.034" y1="16.747" y2="30.715" xlink:href="#TznaW7YtfR~6QNKr7Twvga"/><linearGradient id="TznaW7YtfR~6QNKr7Twvgd" x1="39.924" x2="15.559" y1="6.076" y2="30.441" data-name="Безымянный градиент 124" gradientUnits="userSpaceOnUse"><stop offset="0" stop-color="#6d6d6d"/><stop offset=".402" stop-color="#626262"/><stop offset=".677" stop-color="#606060"/><stop offset=".776" stop-color="#595959"/><stop offset=".846" stop-color="#4e4e4e"/><stop offset=".879" stop-color="#454545"/><stop offset=".987" stop-color="#464646"/></linearGradient></defs><path fill="url(#TznaW7YtfR~6QNKr7Twvgb)" d="M19.5,31.5l-2.79,2.79-1.42,1.42-1.58,1.58-1.42,1.42-1.58,1.58L9.29,41.71l-.69995.7a2.00377,2.00377,0,0,1-2.83,0L3.59,40.24a2.00377,2.00377,0,0,1,0-2.83L14.5,26.5Z"/><path fill="#343434" d="M10.71,40.29,9.29,41.71l-2-2a1.0041,1.0041,0,0,1,1.42-1.42Z"/><path fill="#343434" d="M13.71,37.29l-1.42,1.42-2-2a1.0041,1.0041,0,0,1,1.42-1.42Z"/><path fill="#343434" d="M16.71,34.29l-1.42,1.42-2-2a1.0041,1.0041,0,0,1,1.42-1.42Z"/><path fill="url(#TznaW7YtfR~6QNKr7Twvga)" d="M30,31a1,1,0,0,1,0-2A10.01177,10.01177,0,0,0,40,19a1,1,0,0,1,2,0A12.01312,12.01312,0,0,1,30,31Z"/><path fill="url(#TznaW7YtfR~6QNKr7Twvgc)" d="M30,35a1,1,0,0,1,0-2A14.01572,14.01572,0,0,0,44,19a1,1,0,0,1,2,0A16.01833,16.01833,0,0,1,30,35Z"/><path fill="url(#TznaW7YtfR~6QNKr7Twvgd)" d="M40.92053,11.317l-1.623-4.05744a1.00015,1.00015,0,0,0-.55719-.55717L34.68223,5.07914a.99865.99865,0,0,0-.9998.15151l-19.942,16.169A2,2,0,0,0,13,22.9532V28l5,5h5.0468a2,2,0,0,0,1.55352-.74041L40.76883,12.31807A.99992.99992,0,0,0,40.92053,11.317Z"/><path fill="#343434" d="M23.7666,29.52441a.99689.99689,0,0,1-.707-.293l-6.291-6.291a.99873.99873,0,0,1,.07715-1.4834L34.0293,7.52441a.99609.99609,0,0,1,1.001-.15234l2.17188.86816a1.00264,1.00264,0,0,1,.55762.55762l.86816,2.17188a.9987.9987,0,0,1-.15234,1.001L24.543,29.1543a.9992.9992,0,0,1-.72461.36914C23.80078,29.52441,23.78418,29.52441,23.7666,29.52441Z"/></svg>