<svg xmlns="http://www.w3.org/2000/svg" viewBox="0 0 48 48"><linearGradient id="HV9wOjyhwjqXOWNRZ5POZa" x1="2.331" x2="41.09" y1="19.991" y2="42.369" gradientUnits="userSpaceOnUse"><stop offset="0" stop-color="#a34f27"/><stop offset=".587" stop-color="#8b3817"/><stop offset="1" stop-color="#802d10"/></linearGradient><path fill="url(#HV9wOjyhwjqXOWNRZ5POZa)" d="M17.5,14c-0.244,0-0.484,0.016-0.721,0.042C9.779,14.478,1,21.206,1,33c0,0,1.7-2,4-2 c-1,1.3-1.5,3.7-0.5,6c0,0,1.2-3.6,6.5-5c3.9-1,10.8-2.5,12.9-10.1c0-0.082-0.009-0.153-0.01-0.232 C23.959,21.288,24,20.899,24,20.5C24,16.91,21.09,14,17.5,14z"/><linearGradient id="HV9wOjyhwjqXOWNRZ5POZb" x1="8.326" x2="47.995" y1="8.058" y2="30.961" gradientUnits="userSpaceOnUse"><stop offset="0" stop-color="#a34f27"/><stop offset=".587" stop-color="#8b3817"/><stop offset="1" stop-color="#802d10"/></linearGradient><path fill="url(#HV9wOjyhwjqXOWNRZ5POZb)" d="M47,33 c0-11.794-8.779-18.522-15.779-18.958C30.984,14.016,30.744,14,30.5,14c-3.59,0-6.5,2.91-6.5,6.5c0,0.399,0.041,0.788,0.11,1.168 c-0.002,0.08-0.01,0.15-0.01,0.232c2.1,7.6,9,9.1,12.9,10.1c5.3,1.4,6.5,5,6.5,5c1-2.3,0.5-4.7-0.5-6C45.3,31,47,33,47,33z"/></svg>