<svg xmlns="http://www.w3.org/2000/svg" xmlns:xlink="http://www.w3.org/1999/xlink" data-name="Слой 1" viewBox="0 0 48 48"><defs><linearGradient id="dsFYE07O3DxK_5yzL9ooEa" x1="35" x2="42" y1="19" y2="19" data-name="Безымянный градиент 155" gradientUnits="userSpaceOnUse"><stop offset="0" stop-color="#3079d6"/><stop offset="1" stop-color="#297cd2"/></linearGradient><linearGradient id="dsFYE07O3DxK_5yzL9ooEb" x1="6" x2="13" xlink:href="#dsFYE07O3DxK_5yzL9ooEa"/><linearGradient id="dsFYE07O3DxK_5yzL9ooEc" x1="16.251" x2="34.165" y1="-2.139" y2="47.08" data-name="Новый образец градиентной зал 3" gradientUnits="userSpaceOnUse"><stop offset="0" stop-color="#32bdef"/><stop offset="1" stop-color="#1ea2e4"/></linearGradient></defs><rect width="7" height="6" x="35" y="16" fill="url(#dsFYE07O3DxK_5yzL9ooEa)" rx="1"/><rect width="7" height="6" x="6" y="16" fill="url(#dsFYE07O3DxK_5yzL9ooEb)" rx="1"/><path fill="url(#dsFYE07O3DxK_5yzL9ooEc)" d="M11,5H37a2,2,0,0,1,2,2V29A15,15,0,0,1,24,44h0A15,15,0,0,1,9,29V7a2,2,0,0,1,2-2Z"/><rect width="24" height="12" x="12" y="13" fill="#50e6ff" rx="1"/><path d="M35,14V24H13V14H35m0-1H13a1,1,0,0,0-1,1V24a1,1,0,0,0,1,1H35a1,1,0,0,0,1-1V14a1,1,0,0,0-1-1Z" opacity=".05"/><path d="M35,13.5a.50053.50053,0,0,1,.5.5V24a.50053.50053,0,0,1-.5.5H13a.50053.50053,0,0,1-.5-.5V14a.50053.50053,0,0,1,.5-.5H35m0-.5H13a1,1,0,0,0-1,1V24a1,1,0,0,0,1,1H35a1,1,0,0,0,1-1V14a1,1,0,0,0-1-1Z" opacity=".07"/></svg>