<svg xmlns="http://www.w3.org/2000/svg" viewBox="0 0 48 48"><circle cx="39.5" cy="31.5" r="2.5" fill="#c98e00"/><polygon fill="#c98e00" points="26.211,41.683 40.68,33.693 38.54,29.191 26,35"/><linearGradient id="24wiT1SFVNJgr9SqkB~rVa" x1="3" x2="45" y1="1539" y2="1539" gradientTransform="translate(0 -1506)" gradientUnits="userSpaceOnUse"><stop offset="0" stop-color="#ffcf54"/><stop offset=".261" stop-color="#fdcb4d"/><stop offset=".639" stop-color="#f7c13a"/><stop offset="1" stop-color="#f0b421"/></linearGradient><path fill="url(#24wiT1SFVNJgr9SqkB~rVa)" d="M45,32.5c0-1.381-1.119-2.5-2.5-2.5c-0.34,0-0.664,0.069-0.959,0.192l-0.001-0.001	l-0.011,0.005c-0.002,0.001-0.004,0.002-0.006,0.003L29,36l-1.5-1c1.381,0,2.5-1.119,2.5-2.5c0-0.93-0.514-1.732-1.267-2.163	l0.004-0.016l-13.651-6.866h-0.025C14.431,23.169,13.737,23,13,23c-0.718,0-1.397,0.157-2.015,0.43h-0.022L3,27v13l8.09-3.718	l15.911,6.508h0.001C27.309,42.924,27.645,43,28,43c0.435,0,0.838-0.121,1.195-0.317l0.017-0.001l14.469-7.989l-0.001-0.002	C44.462,34.269,45,33.452,45,32.5z"/><circle cx="27.5" cy="32.5" r="1.5" fill="#ffde87"/><linearGradient id="24wiT1SFVNJgr9SqkB~rVb" x1="22.337" x2="24.123" y1="1542.368" y2="1539.288" gradientTransform="translate(0 -1506)" gradientUnits="userSpaceOnUse"><stop offset="0" stop-color="#f0b421" stop-opacity="0"/><stop offset=".512" stop-color="#e9ab12" stop-opacity=".512"/><stop offset="1" stop-color="#e09f00"/></linearGradient><path fill="url(#24wiT1SFVNJgr9SqkB~rVb)" d="M29,36l-1.489-0.998c-1.255-0.06-2.242-0.468-10.511-3.513V35l11.551,4.734	C28.551,39.734,27.733,37.451,29,36z"/><linearGradient id="24wiT1SFVNJgr9SqkB~rVc" x1="24.476" x2="40.729" y1="-432.62" y2="-448.873" gradientTransform="matrix(1 0 0 -1 0 -426)" gradientUnits="userSpaceOnUse"><stop offset="0" stop-color="#f44f5a"/><stop offset=".443" stop-color="#ee3d4a"/><stop offset="1" stop-color="#e52030"/></linearGradient><path fill="url(#24wiT1SFVNJgr9SqkB~rVc)" d="M33.477,3.506l0.733,0.846l0.968-0.563c0.68-0.396,1.553-0.096,1.847,0.634l0.419,1.039	l1.098-0.218c0.772-0.153,1.5,0.413,1.541,1.2l0.059,1.118l1.11,0.151c0.78,0.106,1.284,0.878,1.068,1.635l-0.308,1.076l1.001,0.503	c0.703,0.353,0.929,1.248,0.48,1.893l-0.641,0.918l0.783,0.8c0.55,0.562,0.474,1.482-0.161,1.946l-0.904,0.661l0.481,1.011	c0.338,0.711-0.033,1.555-0.784,1.788l-1.07,0.331l0.127,1.113c0.089,0.781-0.536,1.461-1.323,1.436l-1.119-0.034l-0.242,1.093	c-0.17,0.768-0.981,1.208-1.717,0.929l-1.048-0.396l-0.584,0.956c-0.41,0.672-1.32,0.823-1.926,0.321l-0.865-0.715l-0.863,0.714	c-0.606,0.502-1.516,0.35-1.926-0.321l-0.584-0.956l-1.048,0.396c-0.736,0.278-1.547-0.161-1.717-0.929l-0.242-1.093l-1.119,0.034	c-0.787,0.024-1.411-0.655-1.323-1.436l0.127-1.113l-1.07-0.331c-0.752-0.233-1.122-1.078-0.784-1.788l0.481-1.011l-0.904-0.661	c-0.636-0.463-0.712-1.382-0.162-1.945l0.783-0.8l-0.641-0.918c-0.45-0.645-0.224-1.539,0.48-1.893l1.001-0.503l-0.308-1.076	c-0.216-0.756,0.288-1.529,1.068-1.635l1.11-0.151l0.059-1.118c0.041-0.786,0.769-1.352,1.541-1.2l1.098,0.218l0.419-1.039	c0.294-0.73,1.167-1.029,1.847-0.634l0.968,0.563l0.733-0.846C32.04,2.912,32.962,2.912,33.477,3.506z"/><path d="M35.895,21.277c-1.602,0-3.314-0.984-3.608-3.128l-1.447,2.221c-0.305,0.47-0.822,0.75-1.383,0.75	h-1.129c-0.451,0-0.865-0.247-1.08-0.644c-0.216-0.396-0.197-0.877,0.051-1.256l2.391-3.679c-0.246,0.041-0.5,0.063-0.762,0.063	c-1.759,0-3.652-1.187-3.652-3.793c0-2.413,1.546-4.035,3.848-4.035c1.975,0,3.325,1.199,3.59,3.113l1.433-2.206	c0.307-0.471,0.825-0.752,1.385-0.752h1.144c0.451,0,0.865,0.247,1.08,0.644c0.215,0.396,0.196,0.877-0.05,1.256l-2.401,3.687	c0.253-0.046,0.517-0.069,0.788-0.069c2.243,0,3.637,1.46,3.637,3.81C39.727,19.624,38.151,21.277,35.895,21.277z M35.954,16.823	c0.007,0.014-0.065,0.154-0.065,0.582c0,0.419,0.076,0.527,0.077,0.528c0.043-0.006,0.131-0.122,0.131-0.591	c0-0.293-0.057-0.465-0.093-0.521C35.986,16.821,35.966,16.821,35.954,16.823z M29.004,11.151c0.006,0.012-0.068,0.149-0.068,0.582	c0,0.419,0.078,0.527,0.078,0.528c0.027-0.007,0.115-0.123,0.115-0.592c0-0.305-0.037-0.455-0.061-0.521	C29.047,11.149,29.019,11.149,29.004,11.151z M29.049,11.107" opacity=".05"/><path d="M35.895,20.777c-1.569,0-3.152-1.019-3.152-3.294c0-0.43,0.056-0.831,0.161-1.197l-2.483,3.812	c-0.213,0.327-0.573,0.522-0.964,0.522h-1.129c-0.268,0-0.513-0.146-0.641-0.382c-0.128-0.234-0.116-0.521,0.03-0.744l3.254-5.007	c-0.542,0.398-1.236,0.617-2.043,0.617c-1.569,0-3.152-1.019-3.152-3.293c0-2.147,1.314-3.535,3.348-3.535	c1.935,0,3.137,1.273,3.137,3.324c0,0.396-0.045,0.766-0.132,1.105l2.437-3.75c0.214-0.328,0.575-0.524,0.965-0.524h1.144	c0.267,0,0.513,0.146,0.64,0.382c0.128,0.235,0.116,0.521-0.03,0.745l-3.307,5.078c0.557-0.441,1.277-0.688,2.113-0.688	c1.964,0,3.137,1.237,3.137,3.31C39.227,19.363,37.888,20.777,35.895,20.777z M36.02,16.321c-0.221,0-0.631,0-0.631,1.084	c0,0.998,0.375,0.998,0.6,0.998c0.212,0,0.608,0,0.608-1.061C36.597,17.035,36.541,16.321,36.02,16.321z M29.075,10.649	c-0.223,0-0.639,0-0.639,1.084c0,0.997,0.38,0.997,0.584,0.997c0.212,0,0.608,0,0.608-1.061	C29.629,10.649,29.269,10.649,29.075,10.649z" opacity=".07"/><path fill="#fff" d="M28.927,14.605c-1.013,0-2.653-0.558-2.653-2.794c0-1.935,1.151-3.035,2.848-3.035	c1.645,0,2.637,1.044,2.637,2.825S30.713,14.605,28.927,14.605z M36.866,9.286l-6.864,10.539c-0.12,0.185-0.325,0.296-0.545,0.296	h-1.129c-0.182,0-0.291-0.201-0.192-0.354l6.849-10.539c0.12-0.185,0.325-0.296,0.546-0.296h1.144	C36.856,8.932,36.965,9.134,36.866,9.286z M29.075,10.149c-0.76,0-1.139,0.528-1.139,1.584c0,0.999,0.362,1.498,1.085,1.498	c0.738,0,1.108-0.52,1.108-1.561C30.129,10.656,29.778,10.149,29.075,10.149z M35.895,20.277c-1.404,0-2.653-0.908-2.653-2.794	s1.147-3.035,2.848-3.035c1.701,0,2.637,1.036,2.637,2.809S37.681,20.277,35.895,20.277z M36.019,15.822	c-0.754,0-1.131,0.528-1.131,1.584c0,0.999,0.367,1.498,1.1,1.498c0.738,0,1.108-0.52,1.108-1.561	C37.096,16.565,36.799,15.822,36.019,15.822z"/></svg>