<svg xmlns="http://www.w3.org/2000/svg" viewBox="0 0 48 48"><circle cx="37" cy="41" r="3" fill="#5c5f61"/><circle cx="37" cy="41" r="1" opacity=".15"/><circle cx="15" cy="41" r="3" fill="#5c5f61"/><circle cx="15" cy="41" r="1" opacity=".15"/><linearGradient id="93bzZpvPhOD9YTD5HfTFIa" x1="10" x2="45" y1="223" y2="223" gradientTransform="matrix(1 0 0 -1 0 254)" gradientUnits="userSpaceOnUse"><stop offset="0" stop-color="#3079d6"/><stop offset="1" stop-color="#297cd2"/></linearGradient><path fill="url(#93bzZpvPhOD9YTD5HfTFIa)" d="M11.029,29h32.941C44.539,29,45,29.448,45,30v2c0,0.552-0.461,1-1.029,1H11.029	C10.461,33,10,32.552,10,32v-2C10,29.448,10.461,29,11.029,29z"/><linearGradient id="93bzZpvPhOD9YTD5HfTFIb" x1="21.5" x2="21.5" y1="38.83" y2="28.232" gradientUnits="userSpaceOnUse"><stop offset="0" stop-color="#92a3b0"/><stop offset=".015" stop-color="#a3b5c4"/><stop offset=".032" stop-color="#aec2d1"/><stop offset=".046" stop-color="#b2c6d6"/></linearGradient><path fill="url(#93bzZpvPhOD9YTD5HfTFIb)" d="M41,39H12.694c-1.473,0-2.717-1.054-2.959-2.507L5.432,10.671C5.27,9.703,4.44,9,3.458,9H2	C1.448,9,1,8.552,1,8s0.448-1,1-1h1.458c1.963,0,3.623,1.406,3.946,3.342l4.304,25.822C11.789,36.648,12.204,37,12.694,37H41	c0.552,0,1,0.448,1,1S41.552,39,41,39z"/><linearGradient id="93bzZpvPhOD9YTD5HfTFIc" x1=".756" x2="3.384" y1="247.244" y2="244.616" gradientTransform="matrix(1 0 0 -1 0 254)" gradientUnits="userSpaceOnUse"><stop offset="0" stop-color="#199ae0"/><stop offset="1" stop-color="#0782d8"/></linearGradient><path fill="url(#93bzZpvPhOD9YTD5HfTFIc)" d="M4,8c0,1.104-0.896,2-2,2S0,9.104,0,8s0.896-2,2-2S4,6.896,4,8z"/><path fill="#e3a600" d="M41.5,29h-28V10c0-0.552,0.448-1,1-1h26c0.552,0,1,0.448,1,1V29z"/></svg>