<svg xmlns="http://www.w3.org/2000/svg" viewBox="0 0 48 48"><linearGradient id="cOxnVT8TGI40LIxZnMQ5Ca" x1="24" x2="24" y1="14.875" y2="23.097" gradientUnits="userSpaceOnUse"><stop offset="0" stop-color="#d4943b"/><stop offset="1" stop-color="#c2620e"/><stop offset="1" stop-color="#c2620e"/></linearGradient><path fill="url(#cOxnVT8TGI40LIxZnMQ5Ca)" d="M29.5,15h-11c-4.694,0-8.5,3.806-8.5,8.5v0c0,0.276,0.224,0.5,0.5,0.5h27	c0.276,0,0.5-0.224,0.5-0.5v0C38,18.806,34.194,15,29.5,15z"/><path d="M33.18,15.84c-0.15-0.07-0.3-0.14-0.46-0.2C32.31,16.45,31.47,17,30.5,17h-13c-0.97,0-1.81-0.55-2.22-1.36 c-0.16,0.06-0.31,0.13-0.46,0.2c-0.15,0.07-0.3,0.15-0.44,0.23C14.95,17.22,16.14,18,17.5,18h13c1.36,0,2.55-0.78,3.12-1.93 C33.48,15.99,33.33,15.91,33.18,15.84z" opacity=".05"/><path d="M32.72,15.64C32.31,16.45,31.47,17,30.5,17h-13c-0.97,0-1.81-0.55-2.22-1.36c-0.16,0.06-0.31,0.13-0.46,0.2 c0.49,0.98,1.51,1.66,2.68,1.66h13c1.17,0,2.19-0.68,2.68-1.66C33.03,15.77,32.88,15.7,32.72,15.64z" opacity=".07"/><linearGradient id="cOxnVT8TGI40LIxZnMQ5Cb" x1="24" x2="24" y1="8" y2="15.815" gradientUnits="userSpaceOnUse"><stop offset="0" stop-color="#faf8e5"/><stop offset="1" stop-color="#faeeac"/></linearGradient><path fill="url(#cOxnVT8TGI40LIxZnMQ5Cb)" d="M15,14.5L15,14.5c0,1.381,1.119,2.5,2.5,2.5h13c1.381,0,2.5-1.119,2.5-2.5v0	c0-3.59-2.91-6.5-6.5-6.5h-5C17.91,8,15,10.91,15,14.5z"/><linearGradient id="cOxnVT8TGI40LIxZnMQ5Cc" x1="24" x2="24" y1="3.75" y2="8.889" gradientUnits="userSpaceOnUse"><stop offset=".002" stop-color="#f44f78"/><stop offset=".397" stop-color="#e4305d"/><stop offset=".763" stop-color="#d81b4a"/><stop offset="1" stop-color="#d41343"/></linearGradient><circle cx="24" cy="6" r="3" fill="url(#cOxnVT8TGI40LIxZnMQ5Cc)"/><linearGradient id="cOxnVT8TGI40LIxZnMQ5Cd" x1="24" x2="24" y1="21.377" y2="46.906" gradientUnits="userSpaceOnUse"><stop offset="0" stop-color="#2aa4f4"/><stop offset="1" stop-color="#007ad9"/></linearGradient><path fill="url(#cOxnVT8TGI40LIxZnMQ5Cd)" d="M39,24.17c0,0.55-0.08,1.1-0.23,1.63l-4.59,16.14c-0.05,0.16-0.11,0.31-0.18,0.46	c-0.14,0.31-0.31,0.59-0.52,0.85c-0.56,0.71-1.35,1.25-2.27,1.53c-0.38,0.12-0.79,0.19-1.21,0.21C29.91,45,29.83,45,29.74,45H18.26	c-0.09,0-0.17,0-0.26-0.01c-0.42-0.02-0.83-0.09-1.21-0.21c-0.92-0.28-1.71-0.82-2.27-1.53c-0.21-0.26-0.38-0.54-0.52-0.85	c-0.07-0.15-0.13-0.3-0.18-0.46L9,25v-0.8c0-1.64,1.23-3.12,2.86-3.2c1.72-0.07,3.14,1.3,3.14,3c0-1.66,1.34-3,3-3s3,1.34,3,3	c0-1.66,1.34-3,3-3s3,1.34,3,3c0-1.66,1.34-3,3-3s3,1.34,3,3c0-1.71,1.43-3.09,3.16-3c0.81,0.04,1.52,0.43,2.03,1.01	C38.7,22.59,39,23.36,39,24.17z"/><linearGradient id="cOxnVT8TGI40LIxZnMQ5Ce" x1="18.5" x2="18.5" y1="21.381" y2="46.906" gradientUnits="userSpaceOnUse"><stop offset=".002" stop-color="#427fdb"/><stop offset=".397" stop-color="#2668cb"/><stop offset=".763" stop-color="#1358bf"/><stop offset="1" stop-color="#0c52bb"/></linearGradient><path fill="url(#cOxnVT8TGI40LIxZnMQ5Ce)" d="M22,45l-4-0.01L15,24c0-1.66,1.34-3,3-3s3,1.34,3,3L22,45z"/><linearGradient id="cOxnVT8TGI40LIxZnMQ5Cf" x1="377.5" x2="377.5" y1="21.381" y2="46.906" gradientTransform="matrix(-1 0 0 1 407 0)" gradientUnits="userSpaceOnUse"><stop offset=".002" stop-color="#427fdb"/><stop offset=".397" stop-color="#2668cb"/><stop offset=".763" stop-color="#1358bf"/><stop offset="1" stop-color="#0c52bb"/></linearGradient><path fill="url(#cOxnVT8TGI40LIxZnMQ5Cf)" d="M26,45l4-0.01L33,24c0-1.66-1.34-3-3-3s-3,1.34-3,3L26,45z"/></svg>