<svg xmlns="http://www.w3.org/2000/svg" viewBox="0 0 48 48"><linearGradient id="bLRydNDK6zUcw7AmNQ4TNa" x1="4.404" x2="38.786" y1="4.404" y2="38.786" gradientUnits="userSpaceOnUse"><stop offset=".002" stop-color="#f44f78"/><stop offset=".397" stop-color="#e4305d"/><stop offset=".763" stop-color="#d81b4a"/><stop offset="1" stop-color="#d41343"/></linearGradient><circle cx="24" cy="24" r="20" fill="url(#bLRydNDK6zUcw7AmNQ4TNa)"/><path d="M24,34.895c-0.618,0-1.199-0.241-1.635-0.677l-8.238-8.24C14.043,25.896,12,23.865,12,21.605	c0-3.584,2.916-6.5,6.5-6.5c2.427,0,4.476,1.467,5.5,2.362c1.024-0.895,3.073-2.362,5.5-2.362c3.584,0,6.5,2.916,6.5,6.5	c0,2.259-2.046,4.294-2.133,4.379l-8.232,8.233C25.198,34.654,24.618,34.895,24,34.895z" opacity=".05"/><path d="M24,34.395c-0.484,0-0.939-0.188-1.282-0.531l-8.238-8.24c-0.078-0.077-1.98-1.972-1.98-4.02	c0-3.309,2.691-6,6-6c2.548,0,4.669,1.747,5.5,2.539c0.831-0.792,2.952-2.539,5.5-2.539c3.309,0,6,2.691,6,6	c0,2.048-1.902,3.943-1.983,4.022l-8.235,8.237C24.939,34.207,24.484,34.395,24,34.395z" opacity=".05"/><path fill="#fff" d="M24,18.855c0,0,2.462-2.75,5.5-2.75s5.5,2.496,5.5,5.5c0,1.862-1.834,3.666-1.834,3.666l-8.238,8.24	c-0.512,0.512-1.344,0.512-1.856,0l-8.238-8.24c0,0-1.834-1.805-1.834-3.666c0-3.004,2.462-5.5,5.5-5.5S24,18.855,24,18.855z"/></svg>