<svg xmlns="http://www.w3.org/2000/svg" viewBox="0 0 48 48"><linearGradient id="Ux57uafVaJn2Zgl_i6Izja" x1="25.118" x2="22.893" y1="42.048" y2="5.542" gradientUnits="userSpaceOnUse"><stop offset="0" stop-color="#008222"/><stop offset="1" stop-color="#00c533"/></linearGradient><path fill="url(#Ux57uafVaJn2Zgl_i6Izja)" d="M22.012,34.266l-0.257,0.105c-1.536,0.512-3.837,1.278-5.836,2.251 c-0.105,0.05-0.204,0.203-0.204,0.203c-0.054,0.101-0.109,0.207-0.152,0.309c-0.214,0.511-0.563,1.281-0.668,1.636l-0.098,0.261 v0.098l0.044,0.054h0.054l0.247-0.101c0.573-0.262,1.285-0.668,2.007-1.024h0.048c1.321-0.616,2.635-1.247,3.942-1.894 c0,0,0.152-0.101,0.257-0.254l0.715-1.437v-0.101C22.111,34.266,22.056,34.219,22.012,34.266 M16.278,32.015 c0.105-0.207,0.559-1.078,0.668-1.281v-0.051c3.121-5.886,6.914-11.417,11.255-16.486l0.109-0.154c0.055-0.053,0.055-0.103,0-0.153 c-0.054-0.052-0.109-0.104-0.152-0.052h-0.203c-2.875,0.411-5.789,0.923-8.653,1.638c-0.312,0.103-0.464,0.258-0.519,0.305 c-2.149,2.562-4.148,5.275-6.047,8.043c0.062,0.153,0.062,0.461,0.062,0.461s0.454,3.583,1.125,6.246 c-1.641,4.864-3.176,11.313-3.176,11.313v0.105C10.747,42,10.801,42,10.844,42h0.973c0.051,0,0.105-0.05,0.16-0.101l0.044-0.207 c0.973-2.661,2.105-5.325,3.328-7.887C15.661,33.239,16.278,32.015,16.278,32.015 M29.693,15.273v-0.205 c0-0.053-0.055-0.106-0.098-0.153c-0.054,0-0.109,0-0.16,0.047l-0.101,0.154c-5.128,5.889-9.372,12.442-12.743,19.458l-0.109,0.151 v0.156c0.043,0.047,0.043,0.047,0.109,0.047h0.043l0.153-0.047c2.863-1.179,5.789-2.203,8.703-3.074 c0.153-0.051,0.312-0.153,0.41-0.305c1.285-2.458,4.246-7.272,4.246-7.272c0.109-0.154,0.062-0.308,0.062-0.308 S29.693,18.189,29.693,15.273 M36.247,6.978c-0.712-0.617-1.801-0.924-3.433-0.972c-1.426-0.053-3.176,0.307-5.172,0.92 c-0.305,0.106-0.512,0.258-0.769,0.459c-2.044,1.897-3.986,3.946-5.833,5.994l-0.159,0.153c-0.047,0.053-0.047,0.101,0,0.154 c0.05,0.051,0.105,0.1,0.159,0.051l0.204-0.052c3.027-0.665,6.039-1.127,9.012-1.437c0.203,0,0.41,0.053,0.559,0.154 c0.164,0.156,0.207,0.31,0.207,0.512c-0.043,2.972,0.055,5.941,0.306,8.808v0.205c0,0.05,0.062,0.103,0.104,0.103h0.055 c0.054,0,0.098,0,0.098-0.053l0.105-0.153c1.687-2.404,3.481-4.711,5.426-6.909c0.203-0.257,0.258-0.412,0.312-0.619 C38.033,10.558,37.115,7.695,36.247,6.978"/></svg>