<svg xmlns="http://www.w3.org/2000/svg" viewBox="0 0 48 48"><path fill="#1b9de2" d="M36,9H12v34c0,1.105,0.895,2,2,2h20c1.105,0,2-0.895,2-2V9z"/><linearGradient id="2gWsDbdZtARtsBqJGGk58a" x1="12" x2="36" y1="6.5" y2="6.5" gradientUnits="userSpaceOnUse"><stop offset="0" stop-color="#464eb0"/><stop offset="1" stop-color="#343b9e"/></linearGradient><path fill="url(#2gWsDbdZtARtsBqJGGk58a)" d="M36,9H12V6c0-1.105,0.895-2,2-2h20c1.105,0,2,0.895,2,2V9z"/><circle cx="20" cy="6.5" r=".75" fill="#6d75cf"/><path fill="#6d75cf" d="M27.5,5.75c-0.194,0-4.806,0-5,0c-0.414,0-0.75,0.336-0.75,0.75s0.336,0.75,0.75,0.75	c0.194,0,4.806,0,5,0c0.414,0,0.75-0.336,0.75-0.75S27.914,5.75,27.5,5.75z"/><path fill="#353c9f" d="M35,14H13l-3,3v1c0,1.105,0.895,2,2,2h24c1.105,0,2-0.895,2-2v-1L35,14z"/><polygon fill="#6d75cf" points="36,9 12,9 10,17 38,17"/><radialGradient id="2gWsDbdZtARtsBqJGGk58b" cx="36.936" cy="37.888" r="11.031" gradientUnits="userSpaceOnUse"><stop offset="0"/><stop offset="1" stop-opacity="0"/></radialGradient><path fill="url(#2gWsDbdZtARtsBqJGGk58b)" d="M26,38c0,2.614,0.849,5.027,2.273,7H34c1.105,0,2-0.895,2-2V26.181	C30.334,27.137,26,32.066,26,38z"/><linearGradient id="2gWsDbdZtARtsBqJGGk58c" x1="31.136" x2="45.056" y1="-457.136" y2="-471.056" gradientTransform="matrix(1 0 0 -1 0 -426)" gradientUnits="userSpaceOnUse"><stop offset="0" stop-color="#bd4ff4"/><stop offset=".587" stop-color="#a235ec"/><stop offset="1" stop-color="#8c20e5"/></linearGradient><circle cx="38" cy="38" r="10" fill="url(#2gWsDbdZtARtsBqJGGk58c)"/><path fill="#fff" d="M39.172,40.141h-0.049c-0.383,1.045-1.077,1.566-2.083,1.566c-0.755,0-1.363-0.273-1.825-0.82 c-0.462-0.546-0.693-1.304-0.693-2.271c0-1.252,0.32-2.271,0.96-3.056c0.64-0.784,1.411-1.177,2.313-1.177 c0.815,0,1.326,0.32,1.534,0.96h0.033l0.082-0.813h1.845c-0.246,2.33-0.369,3.853-0.369,4.568c0,0.766,0.208,1.148,0.624,1.148 c0.438,0,0.798-0.289,1.082-0.869c0.284-0.579,0.427-1.337,0.427-2.271c0-1.28-0.407-2.328-1.222-3.146 c-0.815-0.817-1.952-1.227-3.412-1.227c-1.564,0-2.864,0.545-3.9,1.637c-1.036,1.091-1.554,2.421-1.554,3.99 c0,1.52,0.457,2.717,1.373,3.592s2.181,1.313,3.794,1.313c1.23,0,2.356-0.235,3.379-0.705v1.566 c-0.935,0.399-2.138,0.599-3.608,0.599c-2.018,0-3.66-0.578-4.926-1.734c-1.266-1.157-1.898-2.711-1.898-4.663 c0-1.99,0.675-3.663,2.025-5.02s3.09-2.034,5.217-2.034c1.969,0,3.561,0.526,4.777,1.579s1.825,2.439,1.825,4.162 c0,1.416-0.372,2.553-1.115,3.408c-0.744,0.855-1.665,1.283-2.765,1.283c-0.541,0-0.981-0.145-1.32-0.435 S39.2,40.605,39.172,40.141z M38.082,35.81c-0.492,0-0.893,0.28-1.201,0.841s-0.464,1.21-0.464,1.948 c0,0.525,0.105,0.934,0.316,1.227c0.21,0.292,0.482,0.438,0.815,0.438c0.515,0,0.919-0.276,1.214-0.828 c0.296-0.553,0.443-1.291,0.443-2.215c0-0.438-0.103-0.782-0.308-1.033C38.693,35.936,38.42,35.81,38.082,35.81z"/></svg>