<svg xmlns="http://www.w3.org/2000/svg" viewBox="0 0 48 48"><path fill="#50e6ff" d="M30,41c0,1.105-0.895,2-2,2H8c-1.105,0-2-0.895-2-2V7c0-1.105,0.895-2,2-2h20c1.105,0,2,0.895,2,2 V41z"/><linearGradient id="rgzocED5XFdPRAIxGYmo7a" x1="27.25" x2="43" y1="19.725" y2="19.725" gradientUnits="userSpaceOnUse"><stop offset=".042" stop-color="#076db4"/><stop offset=".85" stop-color="#0461af"/></linearGradient><path fill="url(#rgzocED5XFdPRAIxGYmo7a)" d="M30.77,21.81c-0.08,0.05-0.13,0.08-0.15,0.09l-3.37,2.02l3.63,2.53l2.59-1.7h0.01 L30.77,21.81z M39,13c-2.21,0-4,1.79-4,4c0,0.72,0.19,1.39,0.53,1.98C36.21,20.19,37.51,21,39,21c2.21,0,4-1.79,4-4S41.21,13,39,13 z M39,19c-1.1,0-2-0.9-2-2s0.9-2,2-2s2,0.9,2,2S40.1,19,39,19z"/><linearGradient id="rgzocED5XFdPRAIxGYmo7b" x1="30.358" x2="39.688" y1="21.817" y2="21.817" gradientUnits="userSpaceOnUse"><stop offset=".042" stop-color="#076db4"/><stop offset=".85" stop-color="#0461af"/></linearGradient><path fill="url(#rgzocED5XFdPRAIxGYmo7b)" d="M39,20.357c-1.285,0-2.416-0.617-3.147-1.559c-0.195,0.11-0.405,0.228-0.49,0.273 c-0.886,0.477-4.588,2.73-4.745,2.826c-0.148,0.091-0.244,0.247-0.258,0.42c-0.014,0.174,0.057,0.344,0.19,0.457l2.277,1.934 c0.099,0.082,0.224,0.127,0.351,0.127c0.027,0,0.053,0,0.078-0.006c0.153-0.021,0.291-0.109,0.375-0.238 C35.312,22.029,37.112,21.747,39,21c0.184-0.073,0.509-0.639,0.688-0.712C39.463,20.327,39.235,20.357,39,20.357z"/><linearGradient id="rgzocED5XFdPRAIxGYmo7c" x1="6" x2="10" y1="24.002" y2="24.002" gradientUnits="userSpaceOnUse"><stop offset="0" stop-color="#3079d6"/><stop offset="1" stop-color="#297cd2"/></linearGradient><rect width="4" height="2" x="6" y="23.002" fill="url(#rgzocED5XFdPRAIxGYmo7c)"/><linearGradient id="rgzocED5XFdPRAIxGYmo7d" x1="12" x2="16" y1="24" y2="24" gradientUnits="userSpaceOnUse"><stop offset="0" stop-color="#3079d6"/><stop offset="1" stop-color="#297cd2"/></linearGradient><rect width="4" height="2" x="12" y="23" fill="url(#rgzocED5XFdPRAIxGYmo7d)"/><linearGradient id="rgzocED5XFdPRAIxGYmo7e" x1="18" x2="22" y1="24" y2="24" gradientUnits="userSpaceOnUse"><stop offset="0" stop-color="#3079d6"/><stop offset="1" stop-color="#297cd2"/></linearGradient><rect width="4" height="2" x="18" y="23" fill="url(#rgzocED5XFdPRAIxGYmo7e)"/><path fill="#33afec" d="M38.949,28c-0.01,0-0.01,0-0.02,0c-1.43,0.01-2.68,0.76-3.38,1.9c-0.38,0.61-0.6,1.33-0.6,2.1 c0,2.21,1.79,4,4,4s4-1.79,4-4C42.949,29.79,41.159,28,38.949,28z M38.949,34c-1.1,0-2-0.9-2-2c0-1.1,0.9-2,2-2s2,0.9,2,2 C40.949,33.1,40.049,34,38.949,34z"/><path fill="#33afec" d="M38.929,28c0,0,0,0,0-0.01c-2.05-0.81-4.1-1.39-5.84-4.56c-0.04-0.07-0.09-0.14-0.16-0.18L22.569,16 c-0.05-0.04-1.56-1-3.42-1c-1.02,0-1.94,0.17-2.74,0.82l0,0c-0.247,0.279-0.199,0.709,0.102,0.928L30.529,26.91 c0.19,0.12,3.9,2.38,4.78,2.86c0.03,0.01,0.12,0.06,0.24,0.13c0.04,0.02,0.09,0.05,0.14,0.08c0.73-1.02,1.91-1.69,3.26-1.69 C38.969,28.29,38.939,28.12,38.929,28z M30.619,25c-0.37,0-0.67-0.3-0.67-0.68c0-0.37,0.3-0.67,0.67-0.67 c0.38,0,0.68,0.3,0.68,0.67C31.299,24.7,30.999,25,30.619,25z M38.919,27.92c0,0.01,0,0.04,0.01,0.07c0.01,0,0.01,0.01,0.02,0.01 C38.929,27.96,38.929,27.93,38.919,27.92z"/></svg>