<svg xmlns="http://www.w3.org/2000/svg" data-name="Слой 1" viewBox="0 0 48 48"><defs><linearGradient id="MDsxaMZLQeOyP5SNJeDQia" x1="15.823" x2="35.074" y1="1.518" y2="54.409" gradientUnits="userSpaceOnUse"><stop offset="0" stop-color="#a34f27"/><stop offset=".587" stop-color="#8b3817"/><stop offset="1" stop-color="#802d10"/></linearGradient></defs><path fill="url(#MDsxaMZLQeOyP5SNJeDQia)" d="M27.71533,33a1.13547,1.13547,0,0,1,1.09925.9,32.09183,32.09183,0,0,1,.92,6.19091A5.66419,5.66419,0,0,1,23.979,46a6.21386,6.21386,0,0,1-5.56022-3.54545c-1.03228-2.15623-1.12286-4.31245-1.13081-8.26308A1.16353,1.16353,0,0,1,18.41983,33Zm.21223-3.97368a1.11363,1.11363,0,0,0,.99611-.5906,31.06143,31.06143,0,0,0,3.074-12.98835C31.99771,8.50962,28.603,3,24.07666,3,19.26745,3,15.024,10.1684,15.024,18.84211a28.22329,28.22329,0,0,0,1.96109,9.45448,1.13931,1.13931,0,0,0,1.05869.72973Z"/></svg>