<svg xmlns="http://www.w3.org/2000/svg" viewBox="0 0 48 48"><linearGradient id="fMzKZ1pymBRWYLCv1b1kza" x1="17.21" x2="30.612" y1="2.738" y2="44.706" gradientUnits="userSpaceOnUse"><stop offset="0" stop-color="#dfe9f2"/><stop offset=".391" stop-color="#d6e0e9"/><stop offset="1" stop-color="#bfc8d1"/></linearGradient><path fill="url(#fMzKZ1pymBRWYLCv1b1kza)" d="M35,42H13c-3.866,0-7-3.134-7-7V13c0-3.866,3.134-7,7-7h22c3.866,0,7,3.134,7,7v22	C42,38.866,38.866,42,35,42z"/><linearGradient id="fMzKZ1pymBRWYLCv1b1kzb" x1="1.709" x2="39.922" y1="1.708" y2="39.921" gradientUnits="userSpaceOnUse"><stop offset="0" stop-color="#4caf50"/><stop offset=".149" stop-color="#4aaf50"/><stop offset=".314" stop-color="#43ad50"/><stop offset=".466" stop-color="#38aa50"/><stop offset=".611" stop-color="#27a550"/><stop offset=".767" stop-color="#0a9e50"/><stop offset="1" stop-color="#11a050"/></linearGradient><path fill="url(#fMzKZ1pymBRWYLCv1b1kzb)" d="M39,24c0,8.287-6.712,15-15,15S9,32.287,9,24c0-5.616,3.075-10.5,7.641-13.078	C18.816,9.703,21.328,9,24,9s5.184,0.703,7.359,1.922C35.925,13.5,39,18.384,39,24z"/><linearGradient id="fMzKZ1pymBRWYLCv1b1kzc" x1="4.283" x2="32.567" y1="4.283" y2="32.567" gradientUnits="userSpaceOnUse"><stop offset="0" stop-color="#4caf50"/><stop offset=".489" stop-color="#4aaf50"/><stop offset=".665" stop-color="#43ad50"/><stop offset=".79" stop-color="#38aa50"/><stop offset=".892" stop-color="#27a550"/><stop offset=".978" stop-color="#11a050"/><stop offset="1" stop-color="#0a9e50"/></linearGradient><circle cx="24" cy="24" r="10" fill="url(#fMzKZ1pymBRWYLCv1b1kzc)"/><radialGradient id="fMzKZ1pymBRWYLCv1b1kzd" cx="23.919" cy="23.796" r="15.782" gradientUnits="userSpaceOnUse"><stop offset="0" stop-color="#007ad9"/><stop offset=".155" stop-color="#007ed2"/><stop offset=".387" stop-color="#0089bd"/><stop offset=".667" stop-color="#009b9c"/><stop offset=".983" stop-color="#00b46e"/><stop offset="1" stop-color="#00b56b"/></radialGradient><path fill="url(#fMzKZ1pymBRWYLCv1b1kzd)" d="M24,9c-2.672,0-5.184,0.703-7.359,1.922l2.306,4.087l0.459,0.825L24,24l4.594-8.166	l0.459-0.825l2.306-4.087C29.184,9.703,26.672,9,24,9z"/><circle cx="24" cy="24" r="4" fill="#eceff1"/><linearGradient id="fMzKZ1pymBRWYLCv1b1kze" x1="19.022" x2="27.646" y1="19.022" y2="27.646" gradientUnits="userSpaceOnUse"><stop offset="0" stop-color="#2aa4f4"/><stop offset="1" stop-color="#007ad9"/></linearGradient><circle cx="24" cy="24" r="3" fill="url(#fMzKZ1pymBRWYLCv1b1kze)"/></svg>