<svg xmlns="http://www.w3.org/2000/svg" id="Layer_1" x="0" y="0" version="1.1" viewBox="0 0 48 48" xml:space="preserve"><linearGradient id="SVGID_1_" x1="21.516" x2="45.592" y1="1049.638" y2="1085.673" gradientTransform="translate(0 -1032)" gradientUnits="userSpaceOnUse"><stop offset="0" stop-color="#28afea"/><stop offset="1" stop-color="#0b88da"/></linearGradient><path fill="url(#SVGID_1_)" d="M9,26l36-14.3V38c0,1.1-0.9,2-2,2H9V26z"/><linearGradient id="SVGID_2_" x1="1.408" x2="36.331" y1="1056.41" y2="1078.164" gradientTransform="translate(0 -1032)" gradientUnits="userSpaceOnUse"><stop offset="0" stop-color="#28afea"/><stop offset="1" stop-color="#0b88da"/></linearGradient><path fill="url(#SVGID_2_)" d="M3,11.7V38c0,1.1,0.9,2,2,2h38c0.5,0,0.9-0.2,1.3-0.5L3,11.7z"/><path d="M32.1,40H43c0.1,0,0.3,0,0.4,0c0.1,0,0.2,0,0.2-0.1c0,0,0.1,0,0.1,0c0.1,0,0.2-0.1,0.3-0.1c0,0,0,0,0,0	c0.6-0.3,1-1,1-1.7v-4l-0.7,0.7c-0.3,0.3-0.6,0.4-1,0.4s-0.8-0.2-1-0.4c-0.6-0.6-0.6-1.5,0-2.1l2.2-2.2c0.4-0.4,0.5-0.9,0.4-1.4	c-0.1-0.5-0.5-0.9-1-1c-0.5-0.1-1.1-0.2-1.6-0.2c-0.4,0-0.9,0-1.3,0.1c-3,0.6-5.3,3.1-5.7,6.1c-0.1,0.9,0,1.8,0.2,2.7L32.1,40	C32.1,40,32.1,40,32.1,40z" opacity=".05"/><path d="M44.6,35.1c-0.4,0.4-0.9,0.6-1.4,0.6c-0.5,0-1-0.2-1.4-0.6c-0.8-0.8-0.8-2,0-2.8l2.2-2.2	c0.2-0.2,0.3-0.6,0.2-0.9c-0.1-0.3-0.3-0.6-0.7-0.6c-0.5-0.1-1-0.2-1.5-0.2c-0.4,0-0.8,0-1.2,0.1c-2.8,0.5-5,2.9-5.3,5.7	c-0.1,0.9,0,1.9,0.3,2.7l-3,3H43c0.1,0,0.3,0,0.4,0c0.1,0,0.2,0,0.2-0.1c0,0,0.1,0,0.1,0c0.1,0,0.2-0.1,0.3-0.1c0,0,0,0,0,0	c0.6-0.3,1-1,1-1.7v-3.3L44.6,35.1z" opacity=".07"/><path d="M3,11h42v1.7L27.7,26.1c-2.2,1.7-5.2,1.7-7.4,0L3,12.7V11z" opacity=".05"/><path d="M3,10.5h42v1.7L27,25.3c-1.8,1.3-4.2,1.3-5.9,0L3,12.2V10.5z" opacity=".07"/><path fill="#50e6ff" d="M5,8h38c1.1,0,2,0.9,2,2v1.7L26.3,24.5c-1.4,0.9-3.1,0.9-4.5,0L3,11.7V10C3,8.9,3.9,8,5,8z"/><linearGradient id="SVGID_3_" x1="29.777" x2="37.734" y1="47.075" y2="39.373" gradientUnits="userSpaceOnUse"><stop offset=".503" stop-color="#a1aab3"/><stop offset=".658" stop-color="#9ea7af"/><stop offset=".796" stop-color="#949da5"/><stop offset=".928" stop-color="#848c92"/><stop offset="1" stop-color="#787f85"/></linearGradient><path fill="url(#SVGID_3_)" d="M40.6,39.7l-3.4-3.4L32.6,41c0,0-0.1,0-0.1,0c-1.9,0-3.5,1.6-3.5,3.5c0,1.9,1.6,3.5,3.5,3.5	c1.9,0,3.5-1.6,3.5-3.5c0,0,0-0.1,0-0.1L40.6,39.7z"/><linearGradient id="SVGID_4_" x1="33.766" x2="31.306" y1="45.661" y2="43.465" gradientUnits="userSpaceOnUse"><stop offset="0" stop-color="#fff"/><stop offset=".242" stop-color="#f2f2f2"/><stop offset="1" stop-color="#ccc"/></linearGradient><circle cx="32.5" cy="44.5" r="1.5" fill="url(#SVGID_4_)"/><linearGradient id="SVGID_5_" x1="37.448" x2="45.78" y1="495.067" y2="486.735" gradientTransform="matrix(1 0 0 -1 0 526)" gradientUnits="userSpaceOnUse"><stop offset="0" stop-color="#a1aab3"/><stop offset="1" stop-color="#8f979e"/></linearGradient><path fill="url(#SVGID_5_)" d="M45,35.5c-1,1-2.5,1-3.5,0c-1-1-1-2.5,0-3.5c0.2-0.2,1.2-1.2,2.2-2.2c0.2-0.2,0.1-0.6-0.2-0.7	c-0.8-0.2-1.6-0.2-2.5-0.1c-2.6,0.5-4.6,2.6-4.9,5.2c-0.4,3.8,2.8,7,6.6,6.6c2.6-0.3,4.8-2.3,5.2-4.9c0.2-0.9,0.1-1.7-0.1-2.5	c-0.1-0.3-0.5-0.4-0.7-0.2C46.1,34.3,45.2,35.2,45,35.5z"/></svg>