<svg xmlns="http://www.w3.org/2000/svg" viewBox="0 0 48 48"><path fill="#50e6ff" d="M39,16v25c0,1.105-0.895,2-2,2H11c-1.105,0-2-0.895-2-2V7c0-1.105,0.895-2,2-2h17l3,8L39,16z"/><linearGradient id="nmyA63cwQaZaba_WU8X3Ta" x1="28.529" x2="33.6" y1="2761.471" y2="2756.4" gradientTransform="translate(0 -2746)" gradientUnits="userSpaceOnUse"><stop offset="0" stop-color="#3079d6"/><stop offset="1" stop-color="#297cd2"/></linearGradient><path fill="url(#nmyA63cwQaZaba_WU8X3Ta)" d="M28,5v9c0,1.105,0.895,2,2,2h9L28,5z"/><path fill="#057093" d="M18.5,14h-11C7.224,14,7,13.776,7,13.5v-1C7,12.224,7.224,12,7.5,12h11c0.276,0,0.5,0.224,0.5,0.5v1	C19,13.776,18.776,14,18.5,14z"/><path fill="#057093" d="M15.5,18h-11C4.224,18,4,17.776,4,17.5v-1C4,16.224,4.224,16,4.5,16h11c0.276,0,0.5,0.224,0.5,0.5v1	C16,17.776,15.776,18,15.5,18z"/><path fill="#057093" d="M12.5,22h-11C1.224,22,1,21.776,1,21.5v-1C1,20.224,1.224,20,1.5,20h11c0.276,0,0.5,0.224,0.5,0.5v1	C13,21.776,12.776,22,12.5,22z"/></svg>