<svg xmlns="http://www.w3.org/2000/svg" xmlns:xlink="http://www.w3.org/1999/xlink" data-name="Слой 1" viewBox="0 0 48 48"><defs><linearGradient id="taAq8I1mu_FpIIr7KA~hza" x1="5.5" x2="5.5" y1="9.5" y2="43.846" gradientUnits="userSpaceOnUse"><stop offset="0" stop-color="#ffcf7b"/><stop offset=".196" stop-color="#fecd76"/><stop offset=".439" stop-color="#fac666"/><stop offset=".709" stop-color="#f3bc4d"/><stop offset=".995" stop-color="#eaad2a"/><stop offset="1" stop-color="#eaad29"/></linearGradient><linearGradient id="taAq8I1mu_FpIIr7KA~hzc" x1="32.5" x2="32.5" y1="9.5" y2="43.846" xlink:href="#taAq8I1mu_FpIIr7KA~hza"/><linearGradient id="taAq8I1mu_FpIIr7KA~hzd" x1="27" x2="36" y1="34" y2="34" xlink:href="#taAq8I1mu_FpIIr7KA~hza"/><linearGradient id="taAq8I1mu_FpIIr7KA~hze" x1="38.01" x2="38.01" y1="9.5" y2="43.846" xlink:href="#taAq8I1mu_FpIIr7KA~hza"/><linearGradient id="taAq8I1mu_FpIIr7KA~hzb" x1="40" x2="40" y1="27.067" y2="29.067" data-name="Безымянный градиент 5" gradientUnits="userSpaceOnUse"><stop offset="0" stop-color="#4c4c4c"/><stop offset="1" stop-color="#343434"/></linearGradient><linearGradient id="taAq8I1mu_FpIIr7KA~hzf" x1="13" x2="13" y1="9.5" y2="43.846" xlink:href="#taAq8I1mu_FpIIr7KA~hza"/><linearGradient id="taAq8I1mu_FpIIr7KA~hzg" x1="12.452" x2="26.336" y1="5.263" y2="43.407" gradientUnits="userSpaceOnUse"><stop offset="0" stop-color="#a34f27"/><stop offset=".587" stop-color="#8b3817"/><stop offset="1" stop-color="#802d10"/></linearGradient><linearGradient id="taAq8I1mu_FpIIr7KA~hzh" x1="33.491" x2="33.491" y1="9.5" y2="43.846" xlink:href="#taAq8I1mu_FpIIr7KA~hza"/><linearGradient id="taAq8I1mu_FpIIr7KA~hzi" x1="46" x2="46" y1="22.472" y2="41.53" xlink:href="#taAq8I1mu_FpIIr7KA~hzb"/></defs><path fill="url(#taAq8I1mu_FpIIr7KA~hza)" d="M2.5,36a.5.5,0,0,0,0,1H9V34Z"/><path fill="url(#taAq8I1mu_FpIIr7KA~hzc)" d="M36,39H35l-3-3-4,1,5.15542,3.57771A4,4,0,0,0,34.94427,41H36a1,1,0,0,0,0-2Z"/><rect width="9" height="6" x="27" y="31" fill="url(#taAq8I1mu_FpIIr7KA~hzd)"/><path fill="url(#taAq8I1mu_FpIIr7KA~hze)" d="M47,30.03a4.21609,4.21609,0,0,1-.32,1.62C45.31,35.03,39.84,37,36.01,37c-4.41,0-6.99-3.57-6.99-7.97s2.58-7.97,6.99-7.97c3,0,4.96,4.91,7.17,6.64a4.38436,4.38436,0,0,0,1.82.85C46.2,28.8,47,28.53,47,30.03Z"/><circle cx="40" cy="28.067" r="1" fill="url(#taAq8I1mu_FpIIr7KA~hzb)"/><path fill="url(#taAq8I1mu_FpIIr7KA~hzf)" d="M15,35l-4-3v7h0a2,2,0,0,0,2,2h1a1,1,0,0,0,1-1h0a1,1,0,0,0-1-1h0Z"/><path fill="url(#taAq8I1mu_FpIIr7KA~hzg)" d="M34,24l3-2.75.37567-2.13983-3.47253-1.74152-.90949-3.774-3.87872-.25715L26.89063,10.152l-3.72718,1.1073L20,9l-3.16333,2.25928-3.727-1.10736L10.88531,13.3374l-3.87847.25684-.90937,3.77362L2.62482,19.10925l.73425,3.80963L1,26l2.359,3.08069-.73468,3.80908,3.47253,1.74158.20175.8372A2,2,0,0,0,8.243,37h21.979a3,3,0,0,0,2.99116-2.76991Z"/><path fill="url(#taAq8I1mu_FpIIr7KA~hzh)" d="M35.24264,23.41421C34.07107,22.24264,31,22,31,22s.24264,3.07107,1.41421,4.24264a1.72339,1.72339,0,0,0,2.82843,0A1.72339,1.72339,0,0,0,35.24264,23.41421Z"/><path fill="url(#taAq8I1mu_FpIIr7KA~hzi)" d="M47,30.03a4.21609,4.21609,0,0,1-.32,1.62A3.60411,3.60411,0,0,1,45,28.55C46.2,28.8,47,28.53,47,30.03Z"/></svg>