<svg xmlns="http://www.w3.org/2000/svg" viewBox="0 0 48 48"><linearGradient id="cqOGhPHJOfjXpJCC3cOIia" x1="18.373" x2="36.785" y1=".373" y2="18.785" gradientUnits="userSpaceOnUse"><stop offset="0" stop-color="#1d59b3"/><stop offset="1" stop-color="#195bbc"/></linearGradient><path fill="url(#cqOGhPHJOfjXpJCC3cOIia)" d="M44,12H12c-0.55,0-1-0.45-1-1V9c0-0.55,0.45-1,1-1h32c0.55,0,1,0.45,1,1v2	C45,11.55,44.55,12,44,12z"/><linearGradient id="cqOGhPHJOfjXpJCC3cOIib" x1="3.216" x2="6.628" y1="8.216" y2="11.628" gradientUnits="userSpaceOnUse"><stop offset=".003" stop-color="#42a3f2"/><stop offset="1" stop-color="#42a4eb"/></linearGradient><path fill="url(#cqOGhPHJOfjXpJCC3cOIib)" d="M6,12H4c-0.55,0-1-0.45-1-1V9c0-0.55,0.45-1,1-1h2c0.55,0,1,0.45,1,1v2C7,11.55,6.55,12,6,12z"/><linearGradient id="cqOGhPHJOfjXpJCC3cOIic" x1="18.373" x2="36.785" y1="8.373" y2="26.785" gradientUnits="userSpaceOnUse"><stop offset="0" stop-color="#1d59b3"/><stop offset="1" stop-color="#195bbc"/></linearGradient><path fill="url(#cqOGhPHJOfjXpJCC3cOIic)" d="M44,20H12c-0.55,0-1-0.45-1-1v-2c0-0.55,0.45-1,1-1h32c0.55,0,1,0.45,1,1v2	C45,19.55,44.55,20,44,20z"/><linearGradient id="cqOGhPHJOfjXpJCC3cOIid" x1="3.216" x2="6.628" y1="16.216" y2="19.628" gradientUnits="userSpaceOnUse"><stop offset=".003" stop-color="#42a3f2"/><stop offset="1" stop-color="#42a4eb"/></linearGradient><path fill="url(#cqOGhPHJOfjXpJCC3cOIid)" d="M6,20H4c-0.55,0-1-0.45-1-1v-2c0-0.55,0.45-1,1-1h2c0.55,0,1,0.45,1,1v2C7,19.55,6.55,20,6,20	z"/><linearGradient id="cqOGhPHJOfjXpJCC3cOIie" x1="18.373" x2="36.785" y1="20.373" y2="38.785" gradientUnits="userSpaceOnUse"><stop offset="0" stop-color="#1d59b3"/><stop offset="1" stop-color="#195bbc"/></linearGradient><path fill="url(#cqOGhPHJOfjXpJCC3cOIie)" d="M44,32H12c-0.55,0-1-0.45-1-1v-2c0-0.55,0.45-1,1-1h32c0.55,0,1,0.45,1,1v2	C45,31.55,44.55,32,44,32z"/><linearGradient id="cqOGhPHJOfjXpJCC3cOIif" x1="3.216" x2="6.628" y1="28.216" y2="31.628" gradientUnits="userSpaceOnUse"><stop offset=".003" stop-color="#42a3f2"/><stop offset="1" stop-color="#42a4eb"/></linearGradient><path fill="url(#cqOGhPHJOfjXpJCC3cOIif)" d="M6,32H4c-0.55,0-1-0.45-1-1v-2c0-0.55,0.45-1,1-1h2c0.55,0,1,0.45,1,1v2C7,31.55,6.55,32,6,32	z"/><linearGradient id="cqOGhPHJOfjXpJCC3cOIig" x1="18.373" x2="36.785" y1="28.373" y2="46.785" gradientUnits="userSpaceOnUse"><stop offset="0" stop-color="#1d59b3"/><stop offset="1" stop-color="#195bbc"/></linearGradient><path fill="url(#cqOGhPHJOfjXpJCC3cOIig)" d="M44,40H12c-0.55,0-1-0.45-1-1v-2c0-0.55,0.45-1,1-1h32c0.55,0,1,0.45,1,1v2	C45,39.55,44.55,40,44,40z"/><linearGradient id="cqOGhPHJOfjXpJCC3cOIih" x1="3.216" x2="6.628" y1="36.216" y2="39.628" gradientUnits="userSpaceOnUse"><stop offset=".003" stop-color="#42a3f2"/><stop offset="1" stop-color="#42a4eb"/></linearGradient><path fill="url(#cqOGhPHJOfjXpJCC3cOIih)" d="M6,40H4c-0.55,0-1-0.45-1-1v-2c0-0.55,0.45-1,1-1h2c0.55,0,1,0.45,1,1v2C7,39.55,6.55,40,6,40	z"/></svg>