<svg xmlns="http://www.w3.org/2000/svg" viewBox="0 0 48 48"><linearGradient id="h3OPay4PjJJj2aufHWAeDa" x1="24" x2="24" y1="1.808" y2="42.243" gradientUnits="userSpaceOnUse"><stop offset="0" stop-color="#6d7479"/><stop offset="1" stop-color="#323538"/></linearGradient><path fill="url(#h3OPay4PjJJj2aufHWAeDa)" d="M42,37c0,2.762-2.238,5-5,5H11c-2.762,0-5-2.238-5-5V11c0-2.762,2.238-5,5-5h26	c2.762,0,5,2.238,5,5V37z"/><path fill="#fff" d="M15.869,18.839c0.397-0.458,1.033-0.764,1.589-0.839c0.08,0.61-0.158,1.22-0.476,1.603	c-0.397,0.456-0.954,0.762-1.589,0.762C15.234,19.831,15.473,19.296,15.869,18.839z M19.285,26.54	c-0.477,0.612-1.111,1.452-1.827,1.452c-0.714,0-0.873-0.459-1.747-0.382c-0.953,0-1.111,0.457-1.826,0.382	c-0.795,0-1.351-0.688-1.748-1.374c-1.191-1.754-1.35-3.891-0.555-5.034c0.555-0.764,1.35-1.22,2.144-1.22s1.351,0.456,1.985,0.456	c0.636,0,1.033-0.456,1.986-0.456c0.714,0,1.43,0.381,1.985,0.992c-1.747,0.914-1.431,3.278,0.317,3.966	C19.683,25.856,19.523,26.084,19.285,26.54z M25.521,18v1.839h2.196V21h-2.196v4.279c0,0.961,0.254,1.52,1.184,1.52	c0.422,0,0.675,0,0.844-0.08l0.085,1.121C27.38,27.919,26.873,28,26.281,28c-0.676,0-1.267-0.24-1.689-0.641	C24.17,26.879,24,26.24,24,25.279V21h-1.268v-1.161H24V18.4L25.521,18z M30.604,20l1.69,4.479c0.254,0.722,0.508,1.361,0.676,2.08	h0.084c0.17-0.639,0.423-1.279,0.677-2.08L35.338,20h1.604l-3.294,8h-1.437L29,20H30.604z"/></svg>