<svg xmlns="http://www.w3.org/2000/svg" viewBox="0 0 48 48"><path fill="#50e6ff" d="M37,5h-9H11C9.895,5,9,5.895,9,7v34c0,1.105,0.895,2,2,2h26c1.105,0,2-0.895,2-2V16V7 C39,5.895,38.105,5,37,5z"/><path fill="#057093" d="M35.5,11h-23c-0.276,0-0.5-0.224-0.5-0.5v-1C12,9.224,12.224,9,12.5,9h23C35.776,9,36,9.224,36,9.5 v1C36,10.776,35.776,11,35.5,11z"/><path fill="#057093" d="M28.5,34h-16c-0.276,0-0.5-0.224-0.5-0.5v-1c0-0.276,0.224-0.5,0.5-0.5h16 c0.276,0,0.5,0.224,0.5,0.5v1C29,33.776,28.776,34,28.5,34z"/><path fill="#057093" d="M28.5,24h-16c-0.276,0-0.5-0.224-0.5-0.5v-1c0-0.276,0.224-0.5,0.5-0.5h16 c0.276,0,0.5,0.224,0.5,0.5v1C29,23.776,28.776,24,28.5,24z"/><path fill="#057093" d="M28.5,16h-16c-0.276,0-0.5-0.224-0.5-0.5v-1c0-0.276,0.224-0.5,0.5-0.5h16 c0.276,0,0.5,0.224,0.5,0.5v1C29,15.776,28.776,16,28.5,16z"/><path fill="#057093" d="M26.5,39h-14c-0.276,0-0.5-0.224-0.5-0.5v-1c0-0.276,0.224-0.5,0.5-0.5h14 c0.276,0,0.5,0.224,0.5,0.5v1C27,38.776,26.776,39,26.5,39z"/><path fill="#057093" d="M26.5,29h-14c-0.276,0-0.5-0.224-0.5-0.5v-1c0-0.276,0.224-0.5,0.5-0.5h14 c0.276,0,0.5,0.224,0.5,0.5v1C27,28.776,26.776,29,26.5,29z"/><path fill="#33c481" d="M39.563,19h-4.126c0,0-0.688,4.3-0.688,6.363h5.502C40.251,23.3,39.563,19,39.563,19z"/><linearGradient id="Tmvr_GOhCAY9d547qnzoea" x1="35.13" x2="38.608" y1="24.22" y2="45.733" gradientUnits="userSpaceOnUse"><stop offset="0" stop-color="#21a366"/><stop offset="1" stop-color="#107c42"/></linearGradient><path fill="url(#Tmvr_GOhCAY9d547qnzoea)" d="M43,39.118l0.001,5.501c0,0.76-0.616,1.376-1.375,1.376h-8.252 c-0.76,0-1.376-0.616-1.375-1.376L32,39.118H43z M42.999,35.679l-0.001-2.117c0-0.873-0.167-1.739-0.491-2.55l-2.257-5.649 c0-0.38-0.025-0.856-0.063-1.375h-5.376c-0.038,0.519-0.063,0.996-0.063,1.375l-2.257,5.649c-0.324,0.811-0.491,1.676-0.491,2.55 l-0.001,2.117H42.999z"/><path d="M40.297,39.462l-0.081,0.229c-0.549,1.555-1.589,2.522-2.716,2.522 c-1.127,0-2.167-0.966-2.716-2.522l-0.081-0.229h-2.361v-4.126h2.361l0.081-0.229c0.549-1.555,1.589-2.522,2.716-2.522 c1.127,0,2.167,0.966,2.716,2.522l0.081,0.229h2.361v4.126H40.297z" opacity=".05"/><linearGradient id="Tmvr_GOhCAY9d547qnzoeb" x1="35.627" x2="39.203" y1="32.575" y2="41.975" gradientUnits="userSpaceOnUse"><stop offset="0" stop-color="#ffdfb3"/><stop offset="1" stop-color="#ffc999"/></linearGradient><path fill="url(#Tmvr_GOhCAY9d547qnzoeb)" d="M43.002,35H40.54c-0.577-1.742-1.721-2.989-3.04-2.989c-1.319,0-2.463,1.247-3.04,2.989 h-2.462v4.999h2.462C35.037,41.741,36.181,43,37.5,43c1.319,0,2.463-1.259,3.04-3.001h2.462V35z"/><path fill="#33c481" d="M39.5,19h-4c-0.276,0-0.5-0.224-0.5-0.5l0,0c0-0.276,0.224-0.5,0.5-0.5h4c0.276,0,0.5,0.224,0.5,0.5 l0,0C40,18.776,39.776,19,39.5,19z"/><linearGradient id="Tmvr_GOhCAY9d547qnzoec" x1="37.5" x2="37.5" y1="16.075" y2="17.974" gradientUnits="userSpaceOnUse"><stop offset="0" stop-color="#f45560"/><stop offset="1" stop-color="#cf1928"/></linearGradient><path fill="url(#Tmvr_GOhCAY9d547qnzoec)" d="M40,18h-5v-1c0-0.552,0.448-1,1-1h3c0.552,0,1,0.448,1,1V18z"/></svg>