<svg xmlns="http://www.w3.org/2000/svg" xmlns:xlink="http://www.w3.org/1999/xlink" data-name="Слой 1" viewBox="0 0 48 48"><defs><linearGradient id="YV2cltoXrUkmGwGkLpem8a" x1="4.859" x2="52.15" y1="4.858" y2="52.148" data-name="Новый образец градиентной зал 3" gradientUnits="userSpaceOnUse"><stop offset="0" stop-color="#32bdef"/><stop offset="1" stop-color="#1ea2e4"/></linearGradient><linearGradient id="YV2cltoXrUkmGwGkLpem8b" x1="4.859" x2="52.149" y1="4.859" y2="52.149" gradientUnits="userSpaceOnUse"><stop offset="0" stop-color="#f44f5a"/><stop offset=".443" stop-color="#ee3d4a"/><stop offset="1" stop-color="#e52030"/></linearGradient><linearGradient id="YV2cltoXrUkmGwGkLpem8c" x1="4.859" x2="52.149" y1="4.859" y2="52.149" xlink:href="#YV2cltoXrUkmGwGkLpem8a"/></defs><path fill="#199be2" d="M13.753,24.019,2.29,35.48194a.99974.99974,0,0,0,.39508,1.65156l2.75435.92631a17.868,17.868,0,0,0,18.3442-4.27251l.615-.615a3.9645,3.9645,0,0,0,1.11631-3.379l-1.00747-6.89452a2.00761,2.00761,0,0,0-2.50327-1.64954L15.5196,22.99769A3.95289,3.95289,0,0,0,13.753,24.019Z"/><path fill="#199be2" d="M24.019,13.753,35.48194,2.29a.99974.99974,0,0,1,1.65156.39508l.92631,2.75435a17.868,17.868,0,0,1-4.27251,18.3442l-.615.615a3.9645,3.9645,0,0,1-3.379,1.11631l-6.89452-1.00747a2.00761,2.00761,0,0,1-1.64954-2.50327l1.74846-6.48457A3.95289,3.95289,0,0,1,24.019,13.753Z"/><path fill="#199be2" d="M31.93042,32.63348l5.11081,7.517A3.07536,3.07536,0,1,1,31.9548,43.6087a3.12766,3.12766,0,0,1-.496-1.25915l-1.38919-8.983a1.02513,1.02513,0,0,1,1.86084-.733Z"/><path fill="#199be2" d="M33.36652,30.06958l8.98306,1.38922a3.07534,3.07534,0,1,1-.94,6.07843,3.12756,3.12756,0,0,1-1.25916-.496l-7.51694-5.11078a1.02513,1.02513,0,0,1,.733-1.86084Z"/><path fill="url(#YV2cltoXrUkmGwGkLpem8a)" d="M32.70709,31.29291l7.91422,5.08575a3.07018,3.07018,0,1,1-3.31955,5.16571,3.12608,3.12608,0,0,1-.92307-.923l-5.08578-7.91425a1.02337,1.02337,0,0,1,1.41418-1.41418Z"/><path fill="url(#YV2cltoXrUkmGwGkLpem8b)" d="M9.05775,9.73406,12,15l3-3L9.735,9.05678A.5.5,0,0,0,9.05775,9.73406Z"/><path fill="url(#YV2cltoXrUkmGwGkLpem8c)" d="M33.777,33.777c2.73367-2.73367.73129-9.05884-4.34973-14.24923C24.75763,14.75763,16,16,16,16s-1.24237,8.75763,3.52775,13.42725C24.71814,34.50827,31.04331,36.51065,33.777,33.777Z"/><circle cx="16" cy="16" r="5" fill="url(#YV2cltoXrUkmGwGkLpem8c)"/></svg>