<svg xmlns="http://www.w3.org/2000/svg" viewBox="0 0 48 48"><linearGradient id="0Uykw_H62bHfK9925DJFEa" x1="-662.222" x2="-649.148" y1="7.003" y2="42.718" gradientTransform="matrix(-1 0 0 1 -632 0)" gradientUnits="userSpaceOnUse"><stop offset="0" stop-color="#0d61a9"/><stop offset="1" stop-color="#16528c"/></linearGradient><path fill="url(#0Uykw_H62bHfK9925DJFEa)" d="M4,24c0,11.045,8.955,20,20,20s20-8.955,20-20S35.045,4,24,4S4,12.955,4,24z"/><path d="M21.172,21.172l5.657-5.657c0.781-0.781,2.047-0.781,2.828,0l2.828,2.828 c0.781,0.781,0.781,2.047,0,2.828l-5.657,5.657l2.58,2.58c0.945,0.945,0.276,2.561-1.061,2.561H18.031c-1.105,0-2-0.895-2-2V19.653 c0-1.336,1.616-2.006,2.561-1.061L21.172,21.172z" opacity=".05"/><path d="M21.172,21.879l6.01-6.01c0.586-0.586,1.536-0.586,2.121,0l2.828,2.828 c0.586,0.586,0.586,1.536,0,2.121l-6.01,6.01l2.843,2.843c0.663,0.663,0.194,1.798-0.745,1.798l-10.083,0 c-0.887,0-1.606-0.719-1.606-1.606l0-10.083c0-0.938,1.134-1.408,1.798-0.745L21.172,21.879z" opacity=".07"/><path fill="#50e6ff" d="M18.065,19.48l3.106,3.106l6.364-6.364c0.391-0.391,1.024-0.391,1.414,0l2.828,2.828 c0.391,0.391,0.391,1.024,0,1.414l-6.364,6.364l3.106,3.106c0.382,0.382,0.111,1.034-0.428,1.034l-9.849,0 c-0.669,0-1.212-0.543-1.212-1.212l0-9.849C17.031,19.368,17.684,19.098,18.065,19.48z"/></svg>