<svg xmlns="http://www.w3.org/2000/svg" viewBox="0 0 48 48"><linearGradient id="NohwbA6A_CGukaWJduI_Pa" x1="15.086" x2="27.086" y1="2.79" y2="46.705" gradientUnits="userSpaceOnUse"><stop offset="0" stop-color="#0d61a9"/><stop offset="1" stop-color="#16528c"/></linearGradient><path fill="url(#NohwbA6A_CGukaWJduI_Pa)" d="M34,44H9c-0.552,0-1-0.448-1-1V6c0-1.105,0.895-2,2-2h22c1.105,0,2,0.895,2,2V44z"/><radialGradient id="NohwbA6A_CGukaWJduI_Pb" cx="21.128" cy="43.511" r="33.942" gradientUnits="userSpaceOnUse"><stop offset="0" stop-color="#4b4b4b"/><stop offset=".531" stop-color="#393939"/><stop offset="1" stop-color="#252525"/></radialGradient><rect width="22" height="38" x="10" y="6" fill="url(#NohwbA6A_CGukaWJduI_Pb)"/><rect width="11" height="45" x="4" y="2" fill="#fff"/><linearGradient id="NohwbA6A_CGukaWJduI_Pc" x1="9.465" x2="24.872" y1="1155.63" y2="1205.405" gradientTransform="translate(0 -1152)" gradientUnits="userSpaceOnUse"><stop offset="0" stop-color="#42a3f2"/><stop offset="1" stop-color="#42a4eb"/></linearGradient><path fill="url(#NohwbA6A_CGukaWJduI_Pc)" d="M8,42.248V5.752c0-0.505,0.371-0.931,0.868-0.998l13-1.745C22.467,2.929,23,3.398,23,4.007	v39.986c0,0.609-0.533,1.078-1.132,0.998l-13-1.745C8.371,43.179,8,42.753,8,42.248z"/><radialGradient id="NohwbA6A_CGukaWJduI_Pd" cx="18.5" cy="1176" r="2" gradientTransform="translate(0 -1152)" gradientUnits="userSpaceOnUse"><stop offset="0"/><stop offset="1" stop-opacity="0"/></radialGradient><path fill="url(#NohwbA6A_CGukaWJduI_Pd)" d="M20.5,24c0,1.1-0.9,2-2,2s-2-0.9-2-2s0.9-2,2-2S20.5,22.9,20.5,24z"/><linearGradient id="NohwbA6A_CGukaWJduI_Pe" x1="18.055" x2="19.459" y1="1174.317" y2="1178.053" gradientTransform="translate(0 -1152)" gradientUnits="userSpaceOnUse"><stop offset="0" stop-color="#0077d2"/><stop offset="1" stop-color="#0b59a2"/></linearGradient><path fill="url(#NohwbA6A_CGukaWJduI_Pe)" d="M20,23.5c0,0.825-0.675,1.5-1.5,1.5S17,24.325,17,23.5s0.675-1.5,1.5-1.5S20,22.675,20,23.5z"/><linearGradient id="NohwbA6A_CGukaWJduI_Pf" x1="27.398" x2="39.508" y1="43.701" y2="31.231" gradientUnits="userSpaceOnUse"><stop offset="0" stop-color="#ffd869"/><stop offset="1" stop-color="#fec52b"/></linearGradient><path fill="url(#NohwbA6A_CGukaWJduI_Pf)" d="M28,44h11c0.552,0,1-0.448,1-1V31.722C40,31.325,39.675,31,39.278,31H27.722	C27.325,31,27,31.325,27,31.722V43C27,43.552,27.448,44,28,44z"/><path fill="#fff8e6" d="M31.694,31h3.611v1.806h-3.611V31z"/></svg>