<svg xmlns="http://www.w3.org/2000/svg" viewBox="0 0 48 48"><path fill="#25a2e5" d="M25,26h-2v-3c0-0.552,0.448-1,1-1h0c0.552,0,1,0.448,1,1V26z"/><path fill="#35c1f1" d="M29,30H19v-4c0-0.552,0.448-1,1-1h8c0.552,0,1,0.448,1,1V30z"/><linearGradient id="fo2WYhrCHBXdAx4d6u53la" x1="24" x2="24" y1="28.028" y2="35.837" gradientUnits="userSpaceOnUse"><stop offset="0" stop-color="#d43a02"/><stop offset="1" stop-color="#b9360c"/></linearGradient><path fill="url(#fo2WYhrCHBXdAx4d6u53la)" d="M29,36H19c0,0-3-2-3-6l8-2l8,2C32,34,29,36,29,36z"/><linearGradient id="fo2WYhrCHBXdAx4d6u53lb" x1="24" x2="24" y1="33.961" y2="41.995" gradientUnits="userSpaceOnUse"><stop offset="0" stop-color="#2aa4f4"/><stop offset="1" stop-color="#007ad9"/></linearGradient><path fill="url(#fo2WYhrCHBXdAx4d6u53lb)" d="M42,35c-1.657,0-3-1-3-1s-1.343,1-3,1s-3-1-3-1s-1.343,1-3,1s-3-1-3-1s-1.343,1-3,1s-3-1-3-1	s-1.343,1-3,1s-3-1-3-1s-1.343,1-3,1s-3-1-3-1s-1.343,1-3,1s-3-1-3-1v4c0,2.209,1.791,4,4,4h34c2.209,0,4-1.791,4-4v-4	C45,34,43.657,35,42,35z"/><path fill="#64717c" d="M6,12H4c-0.552,0-1-0.448-1-1s0.448-1,1-1h2c0.552,0,1,0.448,1,1S6.552,12,6,12z"/><path fill="#64717c" d="M6,18H4c-0.552,0-1-0.448-1-1s0.448-1,1-1h2c0.552,0,1,0.448,1,1S6.552,18,6,18z"/><path fill="#64717c" d="M6,24H4c-0.552,0-1-0.448-1-1s0.448-1,1-1h2c0.552,0,1,0.448,1,1S6.552,24,6,24z"/><path fill="#64717c" d="M6,30H4c-0.552,0-1-0.448-1-1s0.448-1,1-1h2c0.552,0,1,0.448,1,1S6.552,30,6,30z"/><path fill="#64717c" d="M6,36H4c-0.552,0-1-0.448-1-1s0.448-1,1-1h2c0.552,0,1,0.448,1,1S6.552,36,6,36z"/><path fill="#abb4be" d="M7,42H4c-0.552,0-1-0.448-1-1V5c0-0.552,0.448-1,1-1h3c0.552,0,1,0.448,1,1S7.552,6,7,6H5v34h2	c0.552,0,1,0.448,1,1S7.552,42,7,42z"/></svg>