<svg xmlns="http://www.w3.org/2000/svg" viewBox="0 0 48 48"><path fill="#565b5e" d="M24,26v-3h-5v3c0,0.552,0.448,1,1,1h3C23.552,27,24,26.552,24,26z"/><path fill="#565b5e" d="M44,26v-3h-5v3c0,0.552,0.448,1,1,1h3C43.552,27,44,26.552,44,26z"/><path fill="#33c481" d="M42,13l-1.041-5.553C40.693,6.028,39.454,5,38.01,5H24.99c-1.444,0-2.683,1.028-2.949,2.447L21,13	l-1.121,1.121C19.316,14.684,19,15.447,19,16.243V24h25v-7.757c0-0.796-0.316-1.559-0.879-2.121L42,13z"/><circle cx="40.5" cy="17.5" r="1.5" fill="#fff"/><circle cx="22.5" cy="17.5" r="1.5" fill="#fff"/><path fill="#33c481" d="M44.5,14H42v-1.5c0-0.828,0.672-1.5,1.5-1.5h1.75c0.414,0,0.75,0.336,0.75,0.75v0.75	C46,13.328,45.328,14,44.5,14z"/><path fill="#33c481" d="M17,12.5v-0.75c0-0.414,0.336-0.75,0.75-0.75h1.75c0.828,0,1.5,0.672,1.5,1.5V14h-2.5	C17.672,14,17,13.328,17,12.5z"/><linearGradient id="VzEabAHIvPUVfBZD7XLpza" x1="30.137" x2="32.095" y1="7.748" y2="13.656" gradientUnits="userSpaceOnUse"><stop offset="0" stop-color="#3079d6"/><stop offset="1" stop-color="#297cd2"/></linearGradient><path fill="url(#VzEabAHIvPUVfBZD7XLpza)" d="M39.965,13l-0.972-5.184C38.904,7.343,38.491,7,38.01,7H24.99	c-0.481,0-0.894,0.343-0.983,0.816L23.035,13H39.965z"/><path fill="#565b5e" d="M9,32v-3H4v3c0,0.552,0.448,1,1,1h3C8.552,33,9,32.552,9,32z"/><path fill="#565b5e" d="M29,32v-3h-5v3c0,0.552,0.448,1,1,1h3C28.552,33,29,32.552,29,32z"/><linearGradient id="VzEabAHIvPUVfBZD7XLpzb" x1="14.956" x2="16.926" y1="11.278" y2="30.118" gradientUnits="userSpaceOnUse"><stop offset="0" stop-color="#f44f5a"/><stop offset=".443" stop-color="#ee3d4a"/><stop offset="1" stop-color="#e52030"/></linearGradient><path fill="url(#VzEabAHIvPUVfBZD7XLpzb)" d="M27,19l-1.041-5.553C25.693,12.028,24.454,11,23.01,11H9.99c-1.444,0-2.683,1.028-2.949,2.447	L6,19l-1.121,1.121C4.316,20.684,4,21.447,4,22.243V30h25v-7.757c0-0.796-0.316-1.559-0.879-2.121L27,19z"/><circle cx="25.5" cy="23.5" r="1.5" fill="#fff"/><circle cx="7.5" cy="23.5" r="1.5" fill="#fff"/><linearGradient id="VzEabAHIvPUVfBZD7XLpzc" x1="26.966" x2="30.619" y1="8.695" y2="26.91" gradientUnits="userSpaceOnUse"><stop offset="0" stop-color="#f44f5a"/><stop offset=".443" stop-color="#ee3d4a"/><stop offset="1" stop-color="#e52030"/></linearGradient><path fill="url(#VzEabAHIvPUVfBZD7XLpzc)" d="M29.5,20H27v-1.5c0-0.828,0.672-1.5,1.5-1.5h1.75c0.414,0,0.75,0.336,0.75,0.75v0.75	C31,19.328,30.328,20,29.5,20z"/><linearGradient id="VzEabAHIvPUVfBZD7XLpzd" x1="2.998" x2="6.65" y1="13.502" y2="31.717" gradientUnits="userSpaceOnUse"><stop offset="0" stop-color="#f44f5a"/><stop offset=".443" stop-color="#ee3d4a"/><stop offset="1" stop-color="#e52030"/></linearGradient><path fill="url(#VzEabAHIvPUVfBZD7XLpzd)" d="M2,18.5v-0.75C2,17.336,2.336,17,2.75,17H4.5C5.328,17,6,17.672,6,18.5V20H3.5	C2.672,20,2,19.328,2,18.5z"/><linearGradient id="VzEabAHIvPUVfBZD7XLpze" x1="15.137" x2="17.095" y1="13.748" y2="19.656" gradientUnits="userSpaceOnUse"><stop offset="0" stop-color="#3079d6"/><stop offset="1" stop-color="#297cd2"/></linearGradient><path fill="url(#VzEabAHIvPUVfBZD7XLpze)" d="M24.965,19l-0.972-5.184C23.904,13.343,23.491,13,23.01,13H9.99	c-0.481,0-0.894,0.343-0.983,0.816L8.035,19H24.965z"/><path fill="#565b5e" d="M21,42v-3h-5v3c0,0.552,0.448,1,1,1h3C20.552,43,21,42.552,21,42z"/><path fill="#565b5e" d="M41,42v-3h-5v3c0,0.552,0.448,1,1,1h3C40.552,43,41,42.552,41,42z"/><linearGradient id="VzEabAHIvPUVfBZD7XLpzf" x1="24.652" x2="29.53" y1="20.946" y2="39.942" gradientUnits="userSpaceOnUse"><stop offset="0" stop-color="#42a3f2"/><stop offset="1" stop-color="#42a4eb"/></linearGradient><path fill="url(#VzEabAHIvPUVfBZD7XLpzf)" d="M39,29l-1.041-5.553C37.693,22.028,36.454,21,35.01,21H21.99	c-1.444,0-2.683,1.028-2.949,2.447L18,29l-1.121,1.121C16.316,30.684,16,31.447,16,32.243V40h25v-7.757	c0-0.796-0.316-1.559-0.879-2.121L39,29z"/><circle cx="37.5" cy="33.5" r="1.5" fill="#fff"/><circle cx="19.5" cy="33.5" r="1.5" fill="#fff"/><linearGradient id="VzEabAHIvPUVfBZD7XLpzg" x1="23.1" x2="33.9" y1="-190.5" y2="-190.5" gradientTransform="matrix(1 0 0 -1 0 -154)" gradientUnits="userSpaceOnUse"><stop offset="0" stop-color="#3079d6"/><stop offset="1" stop-color="#297cd2"/></linearGradient><path fill="url(#VzEabAHIvPUVfBZD7XLpzg)" d="M23.1,35l0.697,1.743C24.101,37.502,24.836,38,25.654,38h5.692	c0.818,0,1.553-0.498,1.857-1.257L33.9,35H23.1z"/><linearGradient id="VzEabAHIvPUVfBZD7XLpzh" x1="39" x2="43" y1="-182.5" y2="-182.5" gradientTransform="matrix(1 0 0 -1 0 -154)" gradientUnits="userSpaceOnUse"><stop offset="0" stop-color="#42a3f2"/><stop offset="1" stop-color="#42a4eb"/></linearGradient><path fill="url(#VzEabAHIvPUVfBZD7XLpzh)" d="M41.5,30H39v-1.5c0-0.828,0.672-1.5,1.5-1.5h1.75c0.414,0,0.75,0.336,0.75,0.75v0.75	C43,29.328,42.328,30,41.5,30z"/><linearGradient id="VzEabAHIvPUVfBZD7XLpzi" x1="64" x2="68" y1="-182.5" y2="-182.5" gradientTransform="rotate(180 41 -77)" gradientUnits="userSpaceOnUse"><stop offset="0" stop-color="#42a3f2"/><stop offset="1" stop-color="#42a4eb"/></linearGradient><path fill="url(#VzEabAHIvPUVfBZD7XLpzi)" d="M14,28.5v-0.75c0-0.414,0.336-0.75,0.75-0.75h1.75c0.828,0,1.5,0.672,1.5,1.5V30h-2.5	C14.672,30,14,29.328,14,28.5z"/><linearGradient id="VzEabAHIvPUVfBZD7XLpzj" x1="27.137" x2="29.095" y1="23.748" y2="29.656" gradientUnits="userSpaceOnUse"><stop offset="0" stop-color="#3079d6"/><stop offset="1" stop-color="#297cd2"/></linearGradient><path fill="url(#VzEabAHIvPUVfBZD7XLpzj)" d="M36.965,29l-0.972-5.184C35.904,23.343,35.491,23,35.01,23H21.99	c-0.481,0-0.894,0.343-0.983,0.816L20.035,29H36.965z"/></svg>