<svg xmlns="http://www.w3.org/2000/svg" viewBox="0 0 48 48"><linearGradient id="hwXs5fyLq3QRoGd3KY8gYa" x1="7.172" x2="40.828" y1="7.172" y2="40.828" gradientUnits="userSpaceOnUse"><stop offset="0" stop-color="#4c4c4c"/><stop offset="1" stop-color="#343434"/></linearGradient><path fill="url(#hwXs5fyLq3QRoGd3KY8gYa)" d="M38,42H10c-2.209,0-4-1.791-4-4V10c0-2.209,1.791-4,4-4h28c2.209,0,4,1.791,4,4v28	C42,40.209,40.209,42,38,42z"/><linearGradient id="hwXs5fyLq3QRoGd3KY8gYb" x1="8.268" x2="29.529" y1="35.936" y2="18.096" gradientUnits="userSpaceOnUse"><stop offset=".18" stop-color="#ccf5ae"/><stop offset=".387" stop-color="#5cea79"/><stop offset=".668" stop-color="#28abdc"/><stop offset=".841" stop-color="#0061cb"/></linearGradient><path fill="url(#hwXs5fyLq3QRoGd3KY8gYb)" d="M24.05,27.3c-7.04,2.28-10.87,2.47-13.88,10.26C10.11,37.7,10.06,37.85,10,38	c0-0.19,0-0.38,0.01-0.57C10.08,33.14,11.18,24.11,24.5,21c1.17-0.28,2.24-0.59,3.21-0.93C36.49,17,24.89,27.03,24.05,27.3z"/><linearGradient id="hwXs5fyLq3QRoGd3KY8gYc" x1="17.898" x2="31.075" y1="30.981" y2="19.924" gradientUnits="userSpaceOnUse"><stop offset="0" stop-color="#ffcc8d"/><stop offset=".493" stop-color="#ff4daa"/><stop offset="1" stop-color="#8d0106"/></linearGradient><path fill="url(#hwXs5fyLq3QRoGd3KY8gYc)" d="M33.77,22.79c-0.02,0.02-0.04,0.05-0.06,0.07c-1.52,1.55-3.54,2.99-6.21,4.14	c-0.27,0.12-0.53,0.22-0.79,0.33c-0.94,0.38-1.82,0.7-2.66,0.97c-7.04,2.28-10.87,1.47-13.88,9.26C10.11,37.7,10.06,37.85,10,38	c0.02-0.16,0.04-0.33,0.07-0.52c0.04-0.27,0.09-0.57,0.16-0.89c0-0.01,0-0.03,0.01-0.05C10.81,33.63,12.38,29.1,17,27	C19.8,25.73,27.99,23.64,33.77,22.79z"/><radialGradient id="hwXs5fyLq3QRoGd3KY8gYd" cx="10.957" cy="38.326" r="19.482" gradientUnits="userSpaceOnUse"><stop offset="0" stop-color="#ffe444"/><stop offset=".145" stop-color="#ffe142"/><stop offset=".266" stop-color="#ffd63e"/><stop offset=".378" stop-color="#ffc535"/><stop offset=".485" stop-color="#fead2a"/><stop offset=".588" stop-color="#fe8d1b"/><stop offset=".688" stop-color="#fd6709"/><stop offset=".722" stop-color="#fd5802"/></radialGradient><path fill="url(#hwXs5fyLq3QRoGd3KY8gYd)" d="M24.05,28.3C17.01,30.58,13.01,30.21,10,38l0.07-0.52l-0.06-0.05	c0.07-0.26,0.14-0.54,0.22-0.84c0-0.01,0-0.03,0.01-0.05c0.85-3.03,3.302-7.362,9.06-8.24c1.683-0.257,5.426-0.498,7.815-1.137	C27.115,27.163,25.424,27.863,24.05,28.3z"/><linearGradient id="hwXs5fyLq3QRoGd3KY8gYe" x1="24.969" x2="35.486" y1="17.034" y2="18.325" gradientUnits="userSpaceOnUse"><stop offset=".106" stop-color="#359be9"/><stop offset=".484" stop-color="#725ecf"/><stop offset=".603" stop-color="#6d59cb"/><stop offset=".736" stop-color="#604cbe"/><stop offset=".876" stop-color="#4a35a9"/><stop offset="1" stop-color="#301b91"/></linearGradient><path fill="url(#hwXs5fyLq3QRoGd3KY8gYe)" d="M36.88,18.02C34.52,19.82,28.71,22.98,18,25c0.763-0.476,1.595-1.017,3.041-1.62	c1.925-0.802,4.227-1.824,6.669-3.31C36.49,17,37.5,11.55,37.5,9.75C38.02,11.29,38.27,14.56,36.88,18.02z"/><linearGradient id="hwXs5fyLq3QRoGd3KY8gYf" x1="10" x2="37.911" y1="23.875" y2="23.875" gradientUnits="userSpaceOnUse"><stop offset="0" stop-color="#fff9e5"/><stop offset=".302" stop-color="#fbdeba"/><stop offset=".698" stop-color="#d648db"/><stop offset="1" stop-color="#7e4ee3"/></linearGradient><path fill="url(#hwXs5fyLq3QRoGd3KY8gYf)" d="M33.71,22.86c-1.61,0.98-4,2.08-8.1,2.86C25.1,25.82,24.56,25.91,24,26	c-4.02,0.62-7.66,1.81-10.32,4.64c-0.38,0.4-0.73,0.84-1.07,1.31C11.48,33.52,10.59,35.5,10,38c0-0.19,0-0.38,0.01-0.57	c0.14-4.17,1.91-8.96,7.32-12.26c1.57-0.96,3.44-1.79,5.67-2.44c0.94-0.28,1.93-0.52,3-0.73c4.93-0.97,7.77-2.79,9.39-4.76	c2.58-3.11,2.11-6.57,2.11-7.49C38.26,12.02,38.44,18.02,33.71,22.86z"/></svg>