<svg xmlns="http://www.w3.org/2000/svg" viewBox="0 0 48 48"><linearGradient id="QyIaqjo_pyA7QP8zyqC67a" x1="14.786" x2="33.076" y1="-1135.077" y2="-1153.367" gradientTransform="matrix(1 0 0 -1 0 -1103.89)" gradientUnits="userSpaceOnUse"><stop offset="0" stop-color="#0d61a9"/><stop offset="1" stop-color="#16528c"/></linearGradient><path fill="url(#QyIaqjo_pyA7QP8zyqC67a)" d="M24,30.571c-8.837,0-16,4.921-16,10.286V42c0,1.105,0.895,2,2,2h28c1.105,0,2-0.895,2-2 v-1.143C40,35.492,32.837,30.571,24,30.571z"/><path fill="#fff" d="M29,30.079C29,37.991,24,42,24,42s-5-4.009-5-11.921C19,27.442,19,26,19,26h10 C29,26,29,27.442,29,30.079z"/><path fill="#fff" d="M29,30.079C29,37.991,24,42,24,42s-5-4.009-5-11.921C19,27.442,19,26,19,26h10 C29,26,29,27.442,29,30.079z"/><path fill="#d6a121" d="M29,30c0,1.897-5,4-5,4s-5-2.103-5-4c0-2.637,0-7.035,0-7.035h10C29,22.965,29,27.363,29,30z"/><path fill="#d32f2f" d="M22,35l1,1l-0.781,4.047C23.187,41.339,24,42,24,42s0.813-0.661,1.781-1.953L25,36l1-1l-2-1L22,35z"/><linearGradient id="QyIaqjo_pyA7QP8zyqC67b" x1="32.917" x2="34.251" y1="-1123.89" y2="-1123.89" gradientTransform="matrix(1 0 0 -1 0 -1103.89)" gradientUnits="userSpaceOnUse"><stop offset="0" stop-color="#c48f0c"/><stop offset=".251" stop-color="#d19b16"/><stop offset=".619" stop-color="#dca51f"/><stop offset="1" stop-color="#e0a922"/></linearGradient><path fill="url(#QyIaqjo_pyA7QP8zyqC67b)" d="M32.916,18h-0.527v4h0.703c0.515,0,0.954-0.312,1.041-0.74l0.344-1.703 C34.642,18.743,33.897,18,32.916,18z"/><linearGradient id="QyIaqjo_pyA7QP8zyqC67c" x1="-957.083" x2="-955.749" y1="-1123.89" y2="-1123.89" gradientTransform="rotate(180 -471 -551.945)" gradientUnits="userSpaceOnUse"><stop offset="0" stop-color="#c48f0c"/><stop offset=".251" stop-color="#d19b16"/><stop offset=".619" stop-color="#dca51f"/><stop offset="1" stop-color="#e0a922"/></linearGradient><path fill="url(#QyIaqjo_pyA7QP8zyqC67c)" d="M15.084,18h0.527v4h-0.703c-0.515,0-0.954-0.312-1.041-0.74l-0.344-1.703 C13.358,18.743,14.103,18,15.084,18z"/><radialGradient id="QyIaqjo_pyA7QP8zyqC67d" cx="46.961" cy="-1261.4" r="12.224" gradientTransform="matrix(.8816 0 0 -.8816 -17.401 -1093.35)" gradientUnits="userSpaceOnUse"><stop offset="0" stop-color="#ffcf54"/><stop offset=".261" stop-color="#fdcb4d"/><stop offset=".639" stop-color="#f7c13a"/><stop offset="1" stop-color="#f0b421"/></radialGradient><path fill="url(#QyIaqjo_pyA7QP8zyqC67d)" d="M24,6.4c-4.441,0-9,0.675-9,10.275c0,0.768,0,5.877,0,6.698C15,26.8,20.4,31,24,31 s9-4.2,9-7.627c0-0.821,0-5.929,0-6.698C33,7.075,28.441,6.4,24,6.4z"/><radialGradient id="QyIaqjo_pyA7QP8zyqC67e" cx="37.258" cy="-1247.747" r="28.915" gradientTransform="matrix(.8816 0 0 -.8816 -17.401 -1093.35)" gradientUnits="userSpaceOnUse"><stop offset="0" stop-color="#c26715"/><stop offset=".508" stop-color="#b85515"/><stop offset="1" stop-color="#ad3f16"/></radialGradient><path fill="url(#QyIaqjo_pyA7QP8zyqC67e)" d="M24,5.545c-4.354,0-5,1.636-5,1.636c-1.77,0.261-5,2.854-5,5.818c0,1.654,0.265,2.876,1,7 c0.545-6.545,2.249-9,4-9c1.267,0,2.273,1,5,1c2.303,0,2.875-1,5-1c3,0,4,7.968,4,9c0.601-3.01,1-5.555,1-7 C34,9.57,30.209,5.545,24,5.545z"/><radialGradient id="QyIaqjo_pyA7QP8zyqC67f" cx="53.752" cy="-1249.683" r="33.398" gradientTransform="matrix(.8431 0 0 -.8816 -22.753 -1093.35)" gradientUnits="userSpaceOnUse"><stop offset="0" stop-color="#c26715"/><stop offset=".508" stop-color="#b85515"/><stop offset="1" stop-color="#ad3f16"/></radialGradient><path fill="url(#QyIaqjo_pyA7QP8zyqC67f)" d="M24.219,5c-4.164,0-5.216,2.182-5.216,2.182c-0.042,1.159,0.522,2.182,0.522,2.182 S20.285,11,24.625,11C27.245,11,31,9.365,31,5C31,5,30.157,5,24.219,5z"/><linearGradient id="QyIaqjo_pyA7QP8zyqC67g" x1="31.189" x2="45.426" y1="1299.079" y2="1313.316" gradientTransform="translate(0 -1267.89)" gradientUnits="userSpaceOnUse"><stop offset="0" stop-color="#889097"/><stop offset=".331" stop-color="#848c94"/><stop offset=".669" stop-color="#78828b"/><stop offset="1" stop-color="#64717c"/></linearGradient><path fill="url(#QyIaqjo_pyA7QP8zyqC67g)" d="M47.715,35.668c-1.192,0.152-2.415-0.407-3.054-1.514c-0.638-1.106-0.512-2.444,0.215-3.401 c-1.129-1.072-2.505-1.885-4.038-2.338c-0.464,1.111-1.56,1.892-2.839,1.892s-2.375-0.782-2.839-1.892 c-1.533,0.454-2.908,1.265-4.038,2.338c0.727,0.957,0.854,2.295,0.215,3.401c-0.638,1.106-1.861,1.665-3.054,1.514 C28.105,36.417,28,37.195,28,38s0.105,1.583,0.285,2.332c1.192-0.152,2.415,0.408,3.054,1.514c0.638,1.106,0.512,2.444-0.215,3.401 c1.129,1.072,2.505,1.885,4.038,2.338c0.464-1.111,1.56-1.892,2.839-1.892s2.375,0.782,2.839,1.892 c1.533-0.454,2.908-1.265,4.038-2.338c-0.727-0.957-0.855-2.295-0.215-3.401c0.638-1.106,1.861-1.665,3.054-1.514 C47.895,39.583,48,38.805,48,38S47.895,36.417,47.715,35.668z"/><linearGradient id="QyIaqjo_pyA7QP8zyqC67h" x1="41.752" x2="34.199" y1="1309.642" y2="1302.089" gradientTransform="translate(0 -1267.89)" gradientUnits="userSpaceOnUse"><stop offset="0" stop-color="#fff"/><stop offset=".242" stop-color="#f2f2f2"/><stop offset="1" stop-color="#ccc"/></linearGradient><circle cx="38" cy="38" r="5.385" fill="url(#QyIaqjo_pyA7QP8zyqC67h)"/><linearGradient id="QyIaqjo_pyA7QP8zyqC67i" x1="34.933" x2="40.313" y1="1302.823" y2="1308.203" gradientTransform="translate(0 -1267.89)" gradientUnits="userSpaceOnUse"><stop offset="0" stop-color="#0d61a9"/><stop offset=".363" stop-color="#0e5fa4"/><stop offset=".78" stop-color="#135796"/><stop offset="1" stop-color="#16528c"/></linearGradient><circle cx="38" cy="38" r="3.278" fill="url(#QyIaqjo_pyA7QP8zyqC67i)"/><linearGradient id="QyIaqjo_pyA7QP8zyqC67j" x1="31.189" x2="45.426" y1="1299.079" y2="1313.316" gradientTransform="translate(0 -1267.89)" gradientUnits="userSpaceOnUse"><stop offset="0" stop-color="#889097"/><stop offset=".331" stop-color="#848c94"/><stop offset=".669" stop-color="#78828b"/><stop offset="1" stop-color="#64717c"/></linearGradient><path fill="url(#QyIaqjo_pyA7QP8zyqC67j)" d="M47.715,35.668c-1.192,0.152-2.415-0.407-3.054-1.514c-0.638-1.106-0.512-2.444,0.215-3.401 c-1.129-1.072-2.505-1.885-4.038-2.338c-0.464,1.111-1.56,1.892-2.839,1.892s-2.375-0.782-2.839-1.892 c-1.533,0.454-2.908,1.265-4.038,2.338c0.727,0.957,0.854,2.295,0.215,3.401c-0.638,1.106-1.861,1.665-3.054,1.514 C28.105,36.417,28,37.195,28,38s0.105,1.583,0.285,2.332c1.192-0.152,2.415,0.408,3.054,1.514c0.638,1.106,0.512,2.444-0.215,3.401 c1.129,1.072,2.505,1.885,4.038,2.338c0.464-1.111,1.56-1.892,2.839-1.892s2.375,0.782,2.839,1.892 c1.533-0.454,2.908-1.265,4.038-2.338c-0.727-0.957-0.855-2.295-0.215-3.401c0.638-1.106,1.861-1.665,3.054-1.514 C47.895,39.583,48,38.805,48,38S47.895,36.417,47.715,35.668z"/><linearGradient id="QyIaqjo_pyA7QP8zyqC67k" x1="41.484" x2="34.47" y1="1309.374" y2="1302.36" gradientTransform="translate(0 -1267.89)" gradientUnits="userSpaceOnUse"><stop offset="0" stop-color="#fff"/><stop offset=".242" stop-color="#f2f2f2"/><stop offset="1" stop-color="#ccc"/></linearGradient><circle cx="38" cy="38" r="5" fill="url(#QyIaqjo_pyA7QP8zyqC67k)"/><linearGradient id="QyIaqjo_pyA7QP8zyqC67l" x1="35.193" x2="40.117" y1="1303.083" y2="1308.007" gradientTransform="translate(0 -1267.89)" gradientUnits="userSpaceOnUse"><stop offset="0" stop-color="#0d61a9"/><stop offset=".363" stop-color="#0e5fa4"/><stop offset=".78" stop-color="#135796"/><stop offset="1" stop-color="#16528c"/></linearGradient><circle cx="38" cy="38" r="3" fill="url(#QyIaqjo_pyA7QP8zyqC67l)"/></svg>