<svg xmlns="http://www.w3.org/2000/svg" viewBox="0 0 48 48"><linearGradient id="vB_bJ6zqN3nnz5zD~Mib_a" x1="16.197" x2="38.605" y1="47.133" y2="4.988" gradientTransform="matrix(1 0 0 -1 0 50)" gradientUnits="userSpaceOnUse"><stop offset="0" stop-color="#21ad64"/><stop offset="1" stop-color="#088242"/></linearGradient><path fill="url(#vB_bJ6zqN3nnz5zD~Mib_a)" d="M42,10c-11.122,0-11.278-6-18-6s-6.878,6-18,6c-0.552,0-1,0.448-1,1c0,0,0,5.856,0,9	c0,1.378,0.178,2.712,0.493,4c2.936,12.007,18.08,19.907,18.08,19.907S23.784,44,24,44c0.203,0,0.427-0.093,0.427-0.093	s15.144-7.9,18.08-19.907C42.822,22.712,43,21.378,43,20c0-3.144,0-9,0-9C43,10.448,42.552,10,42,10z"/><path d="M23.562,34c-0.827,0-1.5-0.673-1.5-1.5v-0.966	c-1.274-0.104-2.494-0.398-3.632-0.877c-0.664-0.278-1.093-0.931-1.093-1.662v-1.774c0-0.83,0.671-1.505,1.497-1.505	c0.229,0,0.451,0.053,0.659,0.156c0.351,0.175,0.792,0.348,1.312,0.514c0.443,0.142,0.864,0.254,1.258,0.335v-2.328	c-1.763-0.661-2.985-1.38-3.731-2.193C17.448,21.237,17,20.054,17,18.683c0-1.489,0.576-2.771,1.713-3.81	c0.89-0.813,2.015-1.353,3.35-1.606V12.5c0-0.827,0.673-1.5,1.5-1.5h0.825c0.827,0,1.5,0.673,1.5,1.5v0.653	c1.104,0.099,2.006,0.278,2.746,0.548c0.712,0.258,1.191,0.94,1.191,1.698v1.768c0,0.836-0.658,1.49-1.499,1.49	c-0.217,0-0.429-0.045-0.628-0.135c-0.563-0.253-1.171-0.447-1.811-0.582v2.477c1.635,0.604,2.823,1.282,3.625,2.07	C30.5,23.453,31,24.643,31,26.02c0,1.564-0.56,2.851-1.665,3.822c-0.861,0.758-2.019,1.272-3.447,1.534V32.5	c0,0.827-0.673,1.5-1.5,1.5H23.562z" opacity=".05"/><path d="M23.562,33.5c-0.551,0-1-0.448-1-1v-1.436	c-1.388-0.062-2.711-0.353-3.938-0.868c-0.478-0.2-0.787-0.672-0.787-1.201v-1.774c0-0.554,0.447-1.005,0.997-1.005	c0.152,0,0.298,0.035,0.436,0.104c0.374,0.187,0.839,0.369,1.383,0.543c0.693,0.222,1.333,0.373,1.91,0.452v-3.271	c-1.864-0.666-3.129-1.382-3.862-2.182c-0.796-0.867-1.2-1.937-1.2-3.179c0-1.343,0.521-2.5,1.55-3.44	c0.908-0.83,2.088-1.352,3.512-1.552V12.5c0-0.552,0.449-1,1-1h0.825c0.551,0,1,0.448,1,1v1.116c1.27,0.083,2.279,0.265,3.075,0.555	c0.516,0.187,0.862,0.681,0.862,1.229v1.768c0,0.556-0.439,0.99-0.999,0.99c-0.146,0-0.288-0.03-0.423-0.091	c-0.772-0.346-1.616-0.589-2.516-0.724v3.426c1.736,0.607,2.973,1.287,3.775,2.075c0.887,0.869,1.337,1.938,1.337,3.176	c0,1.414-0.503,2.574-1.495,3.446c-0.873,0.769-2.088,1.267-3.617,1.484v1.55c0,0.552-0.449,1-1,1	C24.387,33.5,23.562,33.5,23.562,33.5z M25.388,27.195c0.685-0.235,0.787-0.655,0.787-1.017c0-0.38-0.264-0.729-0.787-1.042V27.195z M22.562,17.467c-0.641,0.25-0.737,0.664-0.737,1.021c0,0.407,0.248,0.784,0.737,1.126V17.467z" opacity=".07"/><path fill="#fff" d="M24.888,30.508V32.5c0,0.276-0.224,0.5-0.5,0.5h-0.825c-0.276,0-0.5-0.224-0.5-0.5v-1.923	c-1.508-0.007-2.923-0.287-4.245-0.841c-0.294-0.123-0.48-0.422-0.48-0.741V27.22c0-0.365,0.382-0.617,0.709-0.454	c0.401,0.2,0.886,0.391,1.454,0.573c0.958,0.307,1.812,0.482,2.562,0.528v-4.179c-1.95-0.666-3.282-1.388-3.993-2.164	C18.356,20.747,18,19.799,18,18.682c0-1.202,0.462-2.225,1.387-3.071s2.15-1.338,3.675-1.476V12.5c0-0.276,0.224-0.5,0.5-0.5h0.825	c0.276,0,0.5,0.224,0.5,0.5v1.59c1.429,0.063,2.564,0.246,3.405,0.551c0.321,0.116,0.533,0.417,0.533,0.759v1.768	c0,0.369-0.381,0.594-0.718,0.443c-0.98-0.44-2.053-0.717-3.22-0.834v4.351c1.825,0.605,3.133,1.296,3.925,2.073	S30,24.917,30,26.019c0,1.27-0.442,2.294-1.325,3.071S26.529,30.339,24.888,30.508z M23.062,20.462v-3.64	c-1.158,0.192-1.737,0.747-1.737,1.665C21.325,19.275,21.904,19.933,23.062,20.462z M24.888,24.342v3.479	c1.192-0.169,1.787-0.716,1.787-1.642C26.675,25.429,26.079,24.817,24.888,24.342z"/></svg>