<svg xmlns="http://www.w3.org/2000/svg" viewBox="0 0 48 48"><linearGradient id="SVtI8p9TQSeJeoREZMQqya" x1="5.129" x2="17.32" y1="9.48" y2="20.842" gradientUnits="userSpaceOnUse"><stop offset="0" stop-color="#0176d0"/><stop offset="1" stop-color="#16538c"/></linearGradient><path fill="url(#SVtI8p9TQSeJeoREZMQqya)" d="M19,24h-6c-3.86,0-7-3.141-7-7V8h8v8h5V24z"/><linearGradient id="SVtI8p9TQSeJeoREZMQqyb" x1="19.596" x2="33.213" y1="14.185" y2="26.1" gradientUnits="userSpaceOnUse"><stop offset="0" stop-color="#a3ffff"/><stop offset=".223" stop-color="#9dfbff"/><stop offset=".53" stop-color="#8bf1ff"/><stop offset=".885" stop-color="#6ee0ff"/><stop offset="1" stop-color="#63daff"/></linearGradient><path fill="url(#SVtI8p9TQSeJeoREZMQqyb)" d="M37,32h-8v-8h-5v-8h6c3.86,0,7,3.141,7,7V32z"/><linearGradient id="SVtI8p9TQSeJeoREZMQqyc" x1="31.85" x2="33.59" y1="-54.137" y2="-66.137" gradientTransform="matrix(1 0 0 -1 0 -18)" gradientUnits="userSpaceOnUse"><stop offset="0" stop-color="#6df"/><stop offset=".214" stop-color="#5ed6fc"/><stop offset=".555" stop-color="#47c2f3"/><stop offset=".978" stop-color="#21a2e6"/><stop offset="1" stop-color="#1fa0e5"/></linearGradient><path fill="url(#SVtI8p9TQSeJeoREZMQqyc)" d="M37,44c0,2.209-1.791,4-4,4s-4-1.791-4-4c0-1.817,2.707-6.275,3.667-7.8	c0.156-0.247,0.51-0.247,0.666,0C34.293,37.725,37,42.183,37,44z"/><path fill="#199be2" d="M28.806,31h8.389C37.639,31,38,31.361,38,31.806v2.389C38,34.639,37.639,35,37.194,35h-8.389	C28.361,35,28,34.639,28,34.194v-2.389C28,31.361,28.361,31,28.806,31z"/><path fill="#103f8f" d="M5.806,6h8.389C14.639,6,15,6.361,15,6.806v2.389C15,9.639,14.639,10,14.194,10H5.806	C5.361,10,5,9.639,5,9.194V6.806C5,6.361,5.361,6,5.806,6z"/><path fill="#103f8f" d="M21,15.806v8.389C21,24.639,20.639,25,20.194,25h-2.389C17.361,25,17,24.639,17,24.194v-8.389	C17,15.361,17.361,15,17.806,15h2.389C20.639,15,21,15.361,21,15.806z"/><path fill="#199be2" d="M25,15.806v8.389C25,24.639,24.639,25,24.194,25h-2.389C21.361,25,21,24.639,21,24.194v-8.389	C21,15.361,21.361,15,21.806,15h2.389C24.639,15,25,15.361,25,15.806z"/></svg>