<svg xmlns="http://www.w3.org/2000/svg" viewBox="0 0 48 48"><path fill="#ffb74d" d="M30,42v-2.602l2.602,0.5c2.898,0.602,5.598-1.5,5.797-4.398L39,29l2.898-1.199 c1-0.402,1.402-1.602,0.801-2.602L39,19c-0.602-7.602-4.898-15-16-15C11.602,4,6,12.398,6,21c0,3.699,1.301,6.898,3.301,9.602 c1.801,2.5,2.699,5.5,2.699,8.5V42c0,1.105,0.895,2,2,2h14C29.105,44,30,43.105,30,42z"/><path d="M28.895,10h-12.79c-0.564,0-1.104,0.24-1.483,0.658s-0.563,0.98-0.507,1.541l1.711,16.106 C15.979,29.839,17.262,31,18.81,31h7.38c1.548,0,2.831-1.161,2.985-2.701l1.709-16.093c0.057-0.567-0.128-1.129-0.507-1.547 S29.459,10,28.895,10L28.895,10z" opacity=".05"/><path d="M28.895,10.5h-12.79c-0.423,0-0.828,0.18-1.112,0.493c-0.284,0.314-0.422,0.735-0.38,1.156 l1.71,16.103c0.128,1.28,1.197,2.248,2.487,2.248h7.38c1.29,0,2.359-0.968,2.488-2.251l1.71-16.096 c0.042-0.424-0.096-0.845-0.38-1.159C29.723,10.68,29.318,10.5,28.895,10.5L28.895,10.5z" opacity=".07"/><linearGradient id="fSvk9Utjjdv_13wlNBzh0a" x1="21.626" x2="23.59" y1="9.592" y2="17.468" gradientUnits="userSpaceOnUse"><stop offset="0" stop-color="#32bdef"/><stop offset="1" stop-color="#1ea2e4"/></linearGradient><path fill="url(#fSvk9Utjjdv_13wlNBzh0a)" d="M29.476,16.001L29.89,12.1c0.059-0.589-0.403-1.1-0.995-1.1h-12.79 c-0.592,0-1.054,0.511-0.995,1.1l0.414,3.901L23,17L29.476,16.001z"/><linearGradient id="fSvk9Utjjdv_13wlNBzh0b" x1="22.5" x2="22.5" y1="34.2" y2="18.619" gradientUnits="userSpaceOnUse"><stop offset="0" stop-color="#2aa4f4"/><stop offset="1" stop-color="#007ad9"/></linearGradient><path fill="url(#fSvk9Utjjdv_13wlNBzh0b)" d="M29.47,16l-1.293,12.195c-0.1,1.024-0.961,1.805-1.99,1.805h-7.373 c-1.029,0-1.89-0.781-1.99-1.805L15.53,16H29.47z"/><linearGradient id="fSvk9Utjjdv_13wlNBzh0c" x1="21" x2="21" y1="22.848" y2="15.86" gradientUnits="userSpaceOnUse"><stop offset="0" stop-color="#55aeec"/><stop offset="1" stop-color="#bbdefb"/></linearGradient><circle cx="21" cy="20" r="1" fill="url(#fSvk9Utjjdv_13wlNBzh0c)"/><linearGradient id="fSvk9Utjjdv_13wlNBzh0d" x1="21" x2="21" y1="28.924" y2="22.499" gradientUnits="userSpaceOnUse"><stop offset="0" stop-color="#55aeec"/><stop offset="1" stop-color="#bbdefb"/></linearGradient><circle cx="21" cy="26" r="1" fill="url(#fSvk9Utjjdv_13wlNBzh0d)"/><linearGradient id="fSvk9Utjjdv_13wlNBzh0e" x1="24.5" x2="24.5" y1="27.152" y2="18.597" gradientUnits="userSpaceOnUse"><stop offset="0" stop-color="#55aeec"/><stop offset="1" stop-color="#bbdefb"/></linearGradient><circle cx="24.5" cy="23.5" r="1.5" fill="url(#fSvk9Utjjdv_13wlNBzh0e)"/></svg>