<svg xmlns="http://www.w3.org/2000/svg" viewBox="0 0 48 48"><linearGradient id="q5SQvRUQtk62G_m4bjeyTa" x1="13.206" x2="33.618" y1="29.827" y2="50.24" gradientUnits="userSpaceOnUse"><stop offset="0" stop-color="#1d59b3"/><stop offset="1" stop-color="#195bbc"/></linearGradient><path fill="url(#q5SQvRUQtk62G_m4bjeyTa)" d="M42.378,42h-37c-0.55,0-1-0.45-1-1v-1c0-0.55,0.45-1,1-1h37c0.55,0,1,0.45,1,1v1	C43.378,41.55,42.928,42,42.378,42z"/><linearGradient id="q5SQvRUQtk62G_m4bjeyTb" x1="12.333" x2="30.95" y1="10.957" y2="10.957" gradientUnits="userSpaceOnUse"><stop offset="0" stop-color="#3079d6"/><stop offset="1" stop-color="#297cd2"/></linearGradient><path fill="url(#q5SQvRUQtk62G_m4bjeyTb)" d="M30.95,12.938L16.866,6.317c-1.272-0.598-2.782-0.334-3.776,0.66l-0.757,0.757l9.461,8.181	L30.95,12.938z"/><linearGradient id="q5SQvRUQtk62G_m4bjeyTc" x1="4.156" x2="42.147" y1="16.993" y2="16.993" gradientUnits="userSpaceOnUse"><stop offset="0" stop-color="#42a3f2"/><stop offset="1" stop-color="#42a4eb"/></linearGradient><path fill="url(#q5SQvRUQtk62G_m4bjeyTc)" d="M42.147,13.772l-2.082-5.623L10.667,19.333l-3.008-2.648c-0.829-0.73-2.018-0.885-3.007-0.392	l-0.199,0.099c-0.254,0.127-0.365,0.43-0.253,0.69l3.083,7.187l3.696,1.566L42.147,13.772z"/><linearGradient id="q5SQvRUQtk62G_m4bjeyTd" x1="38" x2="44" y1="11" y2="11" gradientUnits="userSpaceOnUse"><stop offset="0" stop-color="#42a3f2"/><stop offset="1" stop-color="#42a4eb"/></linearGradient><circle cx="41" cy="11" r="3" fill="url(#q5SQvRUQtk62G_m4bjeyTd)"/><linearGradient id="q5SQvRUQtk62G_m4bjeyTe" x1="7" x2="13" y1="23" y2="23" gradientUnits="userSpaceOnUse"><stop offset="0" stop-color="#42a3f2"/><stop offset="1" stop-color="#42a4eb"/></linearGradient><circle cx="10" cy="23" r="3" fill="url(#q5SQvRUQtk62G_m4bjeyTe)"/><linearGradient id="q5SQvRUQtk62G_m4bjeyTf" x1="22.333" x2="32.334" y1="24.93" y2="24.93" gradientUnits="userSpaceOnUse"><stop offset="0" stop-color="#3079d6"/><stop offset="1" stop-color="#297cd2"/></linearGradient><path fill="url(#q5SQvRUQtk62G_m4bjeyTf)" d="M24.037,18.466c-0.347,0.131-0.586,0.452-0.613,0.822l-1.091,15.045h1.07	c1.405,0,2.66-0.882,3.135-2.203l5.768-15.999c0.131-0.362-0.224-0.711-0.584-0.574L24.037,18.466z"/></svg>