<svg xmlns="http://www.w3.org/2000/svg" viewBox="0 0 48 48"><linearGradient id="ByGnDtSHmVlBpz7M3wYVQa" x1="17.455" x2="34.95" y1="14.812" y2="45.627" gradientUnits="userSpaceOnUse"><stop offset=".008" stop-color="#f44f5a"/><stop offset=".447" stop-color="#ee3d4a"/><stop offset="1" stop-color="#e52030"/></linearGradient><path fill="url(#ByGnDtSHmVlBpz7M3wYVQa)" d="M28.067,24.004L8.565,36.719C12.233,41.166,17.786,44,24,44c11.046,0,20-8.954,20-20H28.06	L28.067,24.004z"/><linearGradient id="ByGnDtSHmVlBpz7M3wYVQb" x1="19.94" x2="37.878" y1="-1.258" y2="47.098" gradientUnits="userSpaceOnUse"><stop offset="0" stop-color="#dfe9f2"/><stop offset=".998" stop-color="#9ea7b0"/></linearGradient><path fill="url(#ByGnDtSHmVlBpz7M3wYVQb)" d="M24,4c-6.215,0-11.768,2.835-15.436,7.282L28.06,24H44C44,12.954,35.046,4,24,4z"/><linearGradient id="ByGnDtSHmVlBpz7M3wYVQc" x1="12.339" x2="23.648" y1="19.561" y2="40.806" gradientUnits="userSpaceOnUse"><stop offset="0" stop-color="#0d61a9"/><stop offset="1" stop-color="#16528c"/></linearGradient><path fill="url(#ByGnDtSHmVlBpz7M3wYVQc)" d="M28.06,24L8.564,11.282C5.713,14.739,4,19.169,4,24s1.713,9.262,4.565,12.719l19.502-12.715	L28.06,24z"/></svg>