<svg xmlns="http://www.w3.org/2000/svg" viewBox="0 0 48 48"><path fill="none" stroke="#199be2" stroke-miterlimit="10" stroke-width="4" d="M25,13h8.877c2.602,0,4.512,2.446,3.881,4.97L33,37"/><path fill="#199be2" d="M19,19.68c0,0-4.65,3.721-7.13,0C9.39,15.96,9.08,11,9.08,11H19V19.68z"/><path fill="#199be2" d="M32,36h6c0.552,0,1,0.448,1,1l0,0c0,0.552-0.448,1-1,1h-6V36z"/><path fill="#50e6ff" d="M35,36c0-16-6-25-6-25H16c0,0-5,8-5,25v4c0,1.105,0.895,2,2,2h20c1.105,0,2-0.895,2-2V36z"/><linearGradient id="yKmzhZrDkDhsKdk2sTgH9a" x1="16" x2="29" y1="8.5" y2="8.5" gradientUnits="userSpaceOnUse"><stop offset="0" stop-color="#3079d6"/><stop offset="1" stop-color="#297cd2"/></linearGradient><path fill="url(#yKmzhZrDkDhsKdk2sTgH9a)" d="M22.5,6c-4,0-6.5,5-6.5,5h13C29,11,26.5,6,22.5,6z"/><radialGradient id="yKmzhZrDkDhsKdk2sTgH9b" cx="23" cy="34" r="2" gradientUnits="userSpaceOnUse"><stop offset=".348"/><stop offset=".936" stop-opacity=".098"/><stop offset="1" stop-opacity="0"/></radialGradient><path fill="url(#yKmzhZrDkDhsKdk2sTgH9b)" d="M23,32c-1.105,0-2,0.895-2,2s0.895,2,2,2s2-0.895,2-2	S24.105,32,23,32z" opacity=".3"/><path fill="#fff" d="M23,33c-0.552,0-1,0.448-1,1s0.448,1,1,1s1-0.448,1-1S23.552,33,23,33z"/><linearGradient id="yKmzhZrDkDhsKdk2sTgH9c" x1="11" x2="35" y1="40" y2="40" gradientUnits="userSpaceOnUse"><stop offset="0" stop-color="#3079d6"/><stop offset="1" stop-color="#297cd2"/></linearGradient><path fill="url(#yKmzhZrDkDhsKdk2sTgH9c)" d="M11,40c0,1.105,0.895,2,2,2h20c1.105,0,2-0.895,2-2v-2H11V40z"/></svg>