<svg xmlns="http://www.w3.org/2000/svg" viewBox="0 0 48 48"><linearGradient id="Aloa0lEugM1BRxWwkV28Va" x1="24" x2="24" y1="6.121" y2="42.039" gradientUnits="userSpaceOnUse"><stop offset="0" stop-color="#21ad64"/><stop offset="1" stop-color="#088242"/></linearGradient><path fill="url(#Aloa0lEugM1BRxWwkV28Va)" d="M40,42H8c-1.1,0-2-0.9-2-2V8c0-1.1,0.9-2,2-2h32c1.1,0,2,0.9,2,2v32C42,41.1,41.1,42,40,42z"/><path d="M32.352,22.44l-11.436-7.624c-0.577-0.385-1.314-0.421-1.925-0.093C18.38,15.05,18,15.683,18,16.376	v15.248c0,0.693,0.38,1.327,0.991,1.654c0.278,0.149,0.581,0.222,0.884,0.222c0.364,0,0.726-0.106,1.04-0.315l11.436-7.624	c0.523-0.349,0.835-0.932,0.835-1.56C33.187,23.372,32.874,22.789,32.352,22.44z" opacity=".05"/><path d="M20.681,15.237l10.79,7.194c0.689,0.495,1.153,0.938,1.153,1.513c0,0.575-0.224,0.976-0.715,1.334	c-0.371,0.27-11.045,7.364-11.045,7.364c-0.901,0.604-2.364,0.476-2.364-1.499V16.744C18.5,14.739,20.084,14.839,20.681,15.237z" opacity=".07"/><path fill="#fff" d="M19,31.568V16.433c0-0.743,0.828-1.187,1.447-0.774l11.352,7.568c0.553,0.368,0.553,1.18,0,1.549	l-11.352,7.568C19.828,32.755,19,32.312,19,31.568z"/></svg>