<svg xmlns="http://www.w3.org/2000/svg" viewBox="0 0 48 48"><radialGradient id="JrFdXqIbNqbXhNZLSezoOa" cx="8.054" cy="198.225" r="15.137" gradientTransform="matrix(1.0523 0 0 -1.0515 15.615 233.68)" gradientUnits="userSpaceOnUse"><stop offset=".55" stop-color="#e4e4e6"/><stop offset=".73" stop-color="#e1e2e4"/><stop offset=".854" stop-color="#d8dadc"/><stop offset=".961" stop-color="#c9cdcf"/><stop offset="1" stop-color="#c1c6c9"/></radialGradient><ellipse cx="23.989" cy="29" fill="url(#JrFdXqIbNqbXhNZLSezoOa)" rx="15.011" ry="12"/><linearGradient id="JrFdXqIbNqbXhNZLSezoOb" x1="17.635" x2="30.545" y1="203.365" y2="190.455" gradientTransform="matrix(1 0 0 -1 0 224)" gradientUnits="userSpaceOnUse"><stop offset="0" stop-color="#32bdef"/><stop offset="1" stop-color="#1ea2e4"/></linearGradient><circle cx="24" cy="27" r="10" fill="url(#JrFdXqIbNqbXhNZLSezoOb)"/><radialGradient id="JrFdXqIbNqbXhNZLSezoOc" cx="21.059" cy="204.298" r="12.959" gradientTransform="matrix(1 0 0 -1 0 224)" gradientUnits="userSpaceOnUse"><stop offset="0" stop-color="#4b4b4b"/><stop offset=".531" stop-color="#393939"/><stop offset="1" stop-color="#252525"/></radialGradient><circle cx="24" cy="27.007" r="4.993" fill="url(#JrFdXqIbNqbXhNZLSezoOc)"/><circle cx="20.5" cy="23.5" r="1.5" fill="#fff"/><linearGradient id="JrFdXqIbNqbXhNZLSezoOd" x1="6.933" x2="40.133" y1="3.451" y2="22.619" gradientUnits="userSpaceOnUse"><stop offset="0" stop-color="#a34f27"/><stop offset=".587" stop-color="#8b3817"/><stop offset="1" stop-color="#802d10"/></linearGradient><path fill="url(#JrFdXqIbNqbXhNZLSezoOd)" d="M7.22,9.062	c2.771-0.556,5.539-1.126,8.32-1.642l4.168-0.788c1.313-0.237,2.962-0.562,4.54-0.676c3.171-0.255,6.363,0.016,9.385,0.836	c0.757,0.194,1.502,0.43,2.232,0.7c0.366,0.131,0.725,0.284,1.086,0.425l0.98,0.418c1.305,0.552,2.599,1.134,3.892,1.724	c1.012,0.462,1.458,1.656,0.997,2.668c-0.401,0.879-1.356,1.331-2.263,1.132c-1.387-0.304-2.772-0.615-4.147-0.956l-1.03-0.251	c-0.315-0.065-0.624-0.142-0.939-0.198c-0.629-0.111-1.253-0.228-1.883-0.3c-2.515-0.309-5.045-0.21-7.477,0.241	c-1.228,0.231-2.329,0.581-3.761,1.004l-4.076,1.174c-2.715,0.792-5.443,1.531-8.167,2.283c-2.133,0.589-4.34-0.662-4.93-2.796	c-0.589-2.133,0.662-4.341,2.796-4.93C7.031,9.104,7.131,9.081,7.22,9.062z"/></svg>