<svg xmlns="http://www.w3.org/2000/svg" xmlns:xlink="http://www.w3.org/1999/xlink" data-name="Слой 1" viewBox="0 0 48 48"><defs><linearGradient id="zoSMc1EaPIG~gg5kWrhvja" x1="7.534" x2="23.03" y1="7.535" y2="23.031" data-name="Безымянный градиент 273" gradientUnits="userSpaceOnUse"><stop offset="0" stop-color="#21ad64"/><stop offset="1" stop-color="#088242"/></linearGradient><linearGradient id="zoSMc1EaPIG~gg5kWrhvjc" x1="41.532" x2="25.129" y1="41.536" y2="25.133" xlink:href="#zoSMc1EaPIG~gg5kWrhvja"/><linearGradient id="zoSMc1EaPIG~gg5kWrhvjb" x1="44.352" x2="23.949" y1="3.506" y2="23.909" data-name="Безымянный градиент 255" gradientUnits="userSpaceOnUse"><stop offset="0" stop-color="#33c481"/><stop offset="1" stop-color="#21a366"/></linearGradient><linearGradient id="zoSMc1EaPIG~gg5kWrhvjd" x1="30.859" x2="7.104" y1="17.144" y2="40.898" xlink:href="#zoSMc1EaPIG~gg5kWrhvjb"/></defs><path fill="url(#zoSMc1EaPIG~gg5kWrhvja)" d="M12.4424,24.06836C9.23221,20.85817,7.53333,7.53564,7.53333,7.53564s13.324,1.69741,16.53418,4.9076A8.2202,8.2202,0,1,1,12.4424,24.06836Z"/><path fill="url(#zoSMc1EaPIG~gg5kWrhvjc)" d="M23.931,35.56136A8.22123,8.22123,0,0,1,35.5576,23.93479C38.76819,27.14538,40.46667,40.469,40.46667,40.469S27.14162,38.77195,23.931,35.56136Z"/><path fill="url(#zoSMc1EaPIG~gg5kWrhvjb)" d="M37.22338,24.06982C40.93336,20.35984,43,5.0023,43,5.0023S27.49833,6.92481,23.78835,10.63479a9.5,9.5,0,0,0,13.435,13.435Z"/><path fill="url(#zoSMc1EaPIG~gg5kWrhvjd)" d="M24.06751,37.36982a9.5,9.5,0,1,0-13.435-13.435C6.9225,27.64477,5,43.0023,5,43.0023S20.35753,41.0798,24.06751,37.36982Z"/><path d="M36.79,25.76231c-.08008-.15-.15-.3-.24-.44-.08008-.15-.17-.30005-.26-.44a9.50532,9.50532,0,0,1-11.22.25,9.49932,9.49932,0,0,1-.11011,11.21,4.41432,4.41432,0,0,0,.43005.25c.14.08.28992.16.44007.23a10.406,10.406,0,0,0,1.49-9.47,10.5547,10.5547,0,0,0,9.47-1.59Zm-14.29-14.41a4.73572,4.73572,0,0,0-.45-.23,10.41186,10.41186,0,0,0-1.51,9.53,10.43711,10.43711,0,0,0-3.2-.49,10.27624,10.27624,0,0,0-6.16016,2.01c.07007.15.15015.3.22009.44.09.15.17.3.25989.43a9.51452,9.51452,0,0,1,11.12012-.17,9.49819,9.49819,0,0,1,.16992-11.27A4.794,4.794,0,0,0,22.5,11.35228Z" opacity=".05"/><path d="M36.55005,25.32231c-.08008-.15-.17-.30005-.26-.44a9.50532,9.50532,0,0,1-11.22.25,9.49932,9.49932,0,0,1-.11011,11.21,4.41432,4.41432,0,0,0,.43005.25,9.911,9.911,0,0,0,1.03992-10.11,10.00179,10.00179,0,0,0,4.09009.86A9.88513,9.88513,0,0,0,36.55005,25.32231Zm-14.05-13.97a9.95706,9.95706,0,0,0-1.08008,10.17,9.95464,9.95464,0,0,0-4.07983-.86,9.81553,9.81553,0,0,0-5.94007,1.95c.09.15.17.3.25989.43a9.51452,9.51452,0,0,1,11.12012-.17,9.49819,9.49819,0,0,1,.16992-11.27A4.794,4.794,0,0,0,22.5,11.35228Z" opacity=".07"/><path fill="#63dc9d" d="M11,38.0023a1,1,0,0,1-.707-1.707l11-11A.99989.99989,0,1,1,22.707,26.70933l-11,11A.99672.99672,0,0,1,11,38.0023Z"/><path fill="#63dc9d" d="M26.125,22.8773a1,1,0,0,1-.707-1.707l10.875-10.875A.99989.99989,0,1,1,37.707,11.70933l-10.875,10.875A.99672.99672,0,0,1,26.125,22.8773Z"/><path fill="#63dc9d" d="M32,23.0023H26a.99942.99942,0,0,1-1-1v-6a1,1,0,1,1,2,0v5h5a1,1,0,0,1,0,2Z"/><path fill="#63dc9d" d="M37,18.0023H31a.99942.99942,0,0,1-1-1v-6a1,1,0,1,1,2,0v5h5a1,1,0,0,1,0,2Z"/><path fill="#63dc9d" d="M22,33.0023a.99942.99942,0,0,1-1-1v-5H16a1,1,0,0,1,0-2h6a.99943.99943,0,0,1,1,1v6A.99942.99942,0,0,1,22,33.0023Z"/><path fill="#63dc9d" d="M17,38.0023a.99942.99942,0,0,1-1-1v-5H11a1,1,0,0,1,0-2h6a.99943.99943,0,0,1,1,1v6A.99942.99942,0,0,1,17,38.0023Z"/></svg>