<svg xmlns="http://www.w3.org/2000/svg" viewBox="0 0 48 48"><linearGradient id="WKsMhjwVZb5bEeoZy_MZCa" x1="18.188" x2="29.446" y1="6.001" y2="40.865" gradientUnits="userSpaceOnUse"><stop offset="0" stop-color="#33bef0"/><stop offset="1" stop-color="#0a85d9"/></linearGradient><path fill="url(#WKsMhjwVZb5bEeoZy_MZCa)" d="M40,6H8C6.895,6,6,6.895,6,8v32c0,1.105,0.895,2,2,2h32c1.105,0,2-0.895,2-2V8	C42,6.895,41.105,6,40,6z"/><path d="M12,33v2c0,1.105,0.895,2,2,2h20c1.105,0,2-0.895,2-2v-2c0-1.105-0.895-2-2-2H14	C12.895,31,12,31.895,12,33z" opacity=".05"/><path d="M34,36.5H14c-0.828,0-1.5-0.672-1.5-1.5v-2c0-0.828,0.672-1.5,1.5-1.5h20c0.828,0,1.5,0.672,1.5,1.5	v2C35.5,35.828,34.828,36.5,34,36.5z" opacity=".07"/><path fill="#fff" d="M35,33v2c0,0.552-0.448,1-1,1H14c-0.552,0-1-0.448-1-1v-2c0-0.552,0.448-1,1-1h20	C34.552,32,35,32.448,35,33z"/></svg>