<svg xmlns="http://www.w3.org/2000/svg" viewBox="0 0 48 48"><linearGradient id="_Byta0pQUATLY5tnb38QYa" x1="24" x2="24" y1="5.842" y2="41.73" gradientTransform="translate(-.022 .317)" gradientUnits="userSpaceOnUse"><stop offset="0" stop-color="#0568ba"/><stop offset="1" stop-color="#0b59a2"/></linearGradient><path fill="url(#_Byta0pQUATLY5tnb38QYa)" d="M40.004,41.969L8.031,42c-1.099,0.001-1.999-0.897-2-1.996L6,8.031	c-0.001-1.099,0.897-1.999,1.996-2L39.969,6c1.099-0.001,1.999,0.897,2,1.996L42,39.969C42.001,41.068,41.103,41.968,40.004,41.969z"/><path fill="#50e6ff" d="M38.5,37h-29C9.224,37,9,36.776,9,36.5v-25C9,11.224,9.224,11,9.5,11h29c0.276,0,0.5,0.224,0.5,0.5	v25C39,36.776,38.776,37,38.5,37z"/><radialGradient id="_Byta0pQUATLY5tnb38QYb" cx="38.111" cy="37.92" r="12.113" gradientUnits="userSpaceOnUse"><stop offset=".348"/><stop offset=".936" stop-opacity=".098"/><stop offset="1" stop-opacity="0"/></radialGradient><path fill="url(#_Byta0pQUATLY5tnb38QYb)" d="M26,38c0,1.398,0.251,2.734,0.691,3.982l13.313-0.013	c1.099-0.001,1.997-0.901,1.996-2l-0.013-13.276C40.738,26.252,39.4,26,38,26C31.373,26,26,31.373,26,38z" opacity=".3"/><polygon fill="#fdb700" points="38,28 40.329,29.307 43,29.34 44.364,31.636 46.66,33 46.693,35.671 48,38 46.693,40.329 46.66,43 44.364,44.364 43,46.66 40.329,46.693 38,48 35.671,46.693 33,46.66 31.636,44.364 29.34,43 29.307,40.329 28,38 29.307,35.671 29.34,33 31.636,31.636 33,29.34 35.671,29.307"/><linearGradient id="_Byta0pQUATLY5tnb38QYc" x1="31" x2="45" y1="38" y2="38" gradientUnits="userSpaceOnUse"><stop offset="0" stop-color="#fede00"/><stop offset="1" stop-color="#ffd000"/></linearGradient><circle cx="38" cy="38" r="7" fill="url(#_Byta0pQUATLY5tnb38QYc)"/></svg>