<svg xmlns="http://www.w3.org/2000/svg" viewBox="0 0 48 48"><path fill="#e36001" d="M10,36.243c-1.4,0-2.717-0.546-3.707-1.536c-0.391-0.391-0.391-1.023,0-1.414s1.023-0.391,1.414,0	c1.226,1.225,3.36,1.225,4.586,0l7-7c0.391-0.391,1.023-0.391,1.414,0s0.391,1.023,0,1.414l-7,7	C12.717,35.697,11.4,36.243,10,36.243z"/><path fill="#e36001" d="M35,8l-2.318-1.545C32.285,6.19,31.757,6.243,31.42,6.58L19,19L8.938,23.506l-1.882,3.961	c-0.157,0.33,0.046,0.719,0.407,0.779L18,30L41,7L35,8z"/><path fill="#e36001" d="M14,22V8c0-0.552,0.448-1,1-1h10c0.552,0,1,0.448,1,1v14H14z"/><path fill="#e36001" d="M20,11.236L16.464,7.7l2.912-4.366c0.297-0.445,0.951-0.445,1.248,0L23.536,7.7L20,11.236z"/><path fill="#e36001" d="M17.435,19.364l-7.071-7.071c-0.391-0.391-1.024-0.391-1.414,0L3.293,17.95	c-0.391,0.391-0.391,1.024,0,1.414l7.071,7.071L17.435,19.364z"/><path fill="#e36001" d="M4.519,17.702l-0.978-4.324C3.419,12.84,3.9,12.36,4.438,12.481l4.324,0.978v4.243H4.519z"/><path fill="#f09801" d="M40,13l1.545,2.318c0.264,0.397,0.212,0.925-0.125,1.262L29,29l-4.506,10.062l-3.961,1.882	c-0.33,0.157-0.719-0.046-0.779-0.407L18,30L41,7L40,13z"/><path fill="#f09801" d="M26,34h14c0.552,0,1-0.448,1-1V23c0-0.552-0.448-1-1-1H26V34z"/><path fill="#f09801" d="M36.764,28l3.536,3.536l4.366-2.912c0.445-0.297,0.445-0.951,0-1.248L40.3,24.464L36.764,28z"/><path fill="#f09801" d="M28.636,30.565l7.071,7.071c0.391,0.391,0.391,1.024,0,1.414l-5.657,5.657	c-0.391,0.391-1.024,0.391-1.414,0l-7.071-7.071L28.636,30.565z"/><path fill="#f09801" d="M30.298,43.481l4.324,0.978c0.538,0.122,1.019-0.359,0.897-0.897l-0.978-4.324h-4.243V43.481z"/></svg>