<svg xmlns="http://www.w3.org/2000/svg" viewBox="0 0 48 48"><linearGradient id="VJeQlfNkG-bkK0sk4_TY_a" x1="16.801" x2="33.391" y1="3.722" y2="49.302" gradientUnits="userSpaceOnUse"><stop offset="0" stop-color="#21ad64"/><stop offset="1" stop-color="#088242"/></linearGradient><rect width="48" height="33" y="7" fill="url(#VJeQlfNkG-bkK0sk4_TY_a)"/><linearGradient id="VJeQlfNkG-bkK0sk4_TY_b" x1="14.429" x2="24.275" y1="9.061" y2="36.112" gradientUnits="userSpaceOnUse"><stop offset="0" stop-color="#ffd000"/><stop offset="1" stop-color="#ffc107"/></linearGradient><polygon fill="url(#VJeQlfNkG-bkK0sk4_TY_b)" points="45,23.5 3,37.94 0,38.97 0,8.03 3,9.06"/><path fill="#fff" d="M0,7v2.09l2.48,0.85l3.57,1.23L42.04,23.5L6.05,35.83l-3.57,1.23L0,37.91V40l47.96-16.5L0,7z"/><linearGradient id="VJeQlfNkG-bkK0sk4_TY_c" x1="3.195" x2="13.328" y1="9.44" y2="37.28" gradientUnits="userSpaceOnUse"><stop offset=".008" stop-color="#f44f5a"/><stop offset=".447" stop-color="#ee3d4a"/><stop offset="1" stop-color="#e52030"/></linearGradient><polygon fill="url(#VJeQlfNkG-bkK0sk4_TY_c)" points="22.18,23.5 2.48,37.06 0,38.76 0,8.24 2.48,9.94"/><path fill="#343434" d="M6.05,11.17L3,9.06L0,7v2.47L20.38,23.5L0,37.53V40l3-2.06l3.05-2.11L23.97,23.5L6.05,11.17z"/></svg>