<svg xmlns="http://www.w3.org/2000/svg" xmlns:xlink="http://www.w3.org/1999/xlink" data-name="Слой 1" viewBox="0 0 48 48"><defs><linearGradient id="3I3Az2qO7l4gFMa7RQy_gc" x1="11" x2="37" y1="40.5" y2="40.5" data-name="Безымянный градиент 155" gradientUnits="userSpaceOnUse"><stop offset="0" stop-color="#3079d6"/><stop offset="1" stop-color="#297cd2"/></linearGradient><linearGradient id="3I3Az2qO7l4gFMa7RQy_gd" x1="16.609" x2="32.208" y1="6.489" y2="49.346" data-name="Безымянный градиент 63" gradientUnits="userSpaceOnUse"><stop offset="0" stop-color="#75daff"/><stop offset="1" stop-color="#1ea2e4"/></linearGradient><linearGradient id="3I3Az2qO7l4gFMa7RQy_ga" x1="18.127" x2="31.546" y1="4.192" y2="41.059" data-name="Безымянный градиент 86" gradientUnits="userSpaceOnUse"><stop offset="0" stop-color="#eba600"/><stop offset="1" stop-color="#c28200"/></linearGradient><linearGradient id="3I3Az2qO7l4gFMa7RQy_gb" x1="17.735" x2="28.8" y1=".786" y2="31.189" data-name="Безымянный градиент 129" gradientUnits="userSpaceOnUse"><stop offset="0" stop-color="#ffd869"/><stop offset="1" stop-color="#fec52b"/></linearGradient><linearGradient id="3I3Az2qO7l4gFMa7RQy_ge" x1="21.81" x2="33.855" y1="5.604" y2="38.696" xlink:href="#3I3Az2qO7l4gFMa7RQy_ga"/><linearGradient id="3I3Az2qO7l4gFMa7RQy_gf" x1="21.531" x2="32.62" y1="-.784" y2="29.683" xlink:href="#3I3Az2qO7l4gFMa7RQy_gb"/></defs><path fill="url(#3I3Az2qO7l4gFMa7RQy_gc)" d="M11,38H37a0,0,0,0,1,0,0v3a2,2,0,0,1-2,2H13a2,2,0,0,1-2-2V38a0,0,0,0,1,0,0Z"/><path fill="#42a4ed" d="M42,31H6v6a1.99945,1.99945,0,0,0,2,2H40a1.99945,1.99945,0,0,0,2-2Z"/><path fill="url(#3I3Az2qO7l4gFMa7RQy_gd)" d="M10.764,12.99284H37.235a1.99892,1.99892,0,0,1,1.984,1.751L41.986,30.771A1.99912,1.99912,0,0,1,40,33H8a2.00042,2.00042,0,0,1-1.987-2.229L8.78,14.74384A1.99966,1.99966,0,0,1,10.764,12.99284Z"/><path fill="url(#3I3Az2qO7l4gFMa7RQy_ga)" d="M31.43835,18A13.60815,13.60815,0,0,0,24,16a13.60815,13.60815,0,0,0-7.43835,2H14v4c0,3.31348,4.47748,6,10,6s10-2.68652,10-6V18Z"/><ellipse cx="24" cy="18" fill="url(#3I3Az2qO7l4gFMa7RQy_gb)" rx="10" ry="6"/><path fill="url(#3I3Az2qO7l4gFMa7RQy_ge)" d="M21,6V17c0,1.10449,1.34326,2,3,2s3-.89551,3-2V6Z"/><ellipse cx="24" cy="6" fill="url(#3I3Az2qO7l4gFMa7RQy_gf)" rx="3" ry="2"/><path d="M31.74,12.99H29.48C32.2,14.06,34,15.9,34,18v4c0,3.31-4.48,6-10,6s-10-2.69-10-6V18c0-2.1,1.8-3.94,4.52-5.01H16.26C14.24,14.25,13,16.01,13,18v4c0,3.93,4.83,7,11,7s11-3.07,11-7V18C35,16.01,33.76,14.25,31.74,12.99Z" opacity=".05"/><path d="M30.67,12.99H29.48C32.2,14.06,34,15.9,34,18v4c0,3.31-4.48,6-10,6s-10-2.69-10-6V18c0-2.1,1.8-3.94,4.52-5.01H17.33c-2.34,1.19-3.83,3-3.83,5.01v4c0,3.58,4.71,6.5,10.5,6.5S34.5,25.58,34.5,22V18C34.5,15.99,33.01,14.18,30.67,12.99Z" opacity=".07"/><g><rect width="26" height="1" x="11" y="39" opacity=".05"/><rect width="26" height=".5" x="11" y="39" opacity=".07"/></g></svg>