<svg xmlns="http://www.w3.org/2000/svg" viewBox="0 0 48 48"><circle cx="15" cy="41" r="3" fill="#5c5f61"/><circle cx="15" cy="41" r="1" opacity=".15"/><linearGradient id="STd3O2P6uqbVre0rVJ66Ra" x1="19" x2="43" y1="-577.209" y2="-577.209" gradientTransform="matrix(1 0 0 -1 0 -562)" gradientUnits="userSpaceOnUse"><stop offset="0" stop-color="#eba600"/><stop offset="1" stop-color="#c28200"/></linearGradient><path fill="url(#STd3O2P6uqbVre0rVJ66Ra)" d="M32.376,8.19c-0.766-0.766-2.003-0.783-2.79-0.038L19,18.182v4.632h24v-4L32.376,8.19z"/><linearGradient id="STd3O2P6uqbVre0rVJ66Rb" x1="32.32" x2="27.868" y1="-576.176" y2="-580.629" gradientTransform="matrix(1 0 0 -1 0 -562)" gradientUnits="userSpaceOnUse"><stop offset="0" stop-opacity="0"/><stop offset="1"/></linearGradient><polygon fill="url(#STd3O2P6uqbVre0rVJ66Rb)" points="19,18.182 19,20.814 35,20.814 35,16.814 27.919,9.733"/><linearGradient id="STd3O2P6uqbVre0rVJ66Rc" x1="9" x2="33" y1="-575.209" y2="-575.209" gradientTransform="matrix(1 0 0 -1 0 -562)" gradientUnits="userSpaceOnUse"><stop offset="0" stop-color="#ffcf54"/><stop offset=".261" stop-color="#fdcb4d"/><stop offset=".639" stop-color="#f7c13a"/><stop offset="1" stop-color="#f0b421"/></linearGradient><path fill="url(#STd3O2P6uqbVre0rVJ66Rc)" d="M22.376,6.19c-0.766-0.766-2.003-0.783-2.79-0.038L9,16.182v4.632h24v-4L22.376,6.19z"/><linearGradient id="STd3O2P6uqbVre0rVJ66Rd" x1="9" x2="33" y1="-575.209" y2="-575.209" gradientTransform="matrix(1 0 0 -1 0 -562)" gradientUnits="userSpaceOnUse"><stop offset="0" stop-color="#ffcf54"/><stop offset=".261" stop-color="#fdcb4d"/><stop offset=".639" stop-color="#f7c13a"/><stop offset="1" stop-color="#f0b421"/></linearGradient><path fill="url(#STd3O2P6uqbVre0rVJ66Rd)" d="M22.376,6.19c-0.766-0.766-2.003-0.783-2.79-0.038L9,16.182v4.632h24v-4L22.376,6.19z"/><linearGradient id="STd3O2P6uqbVre0rVJ66Re" x1="5.733" x2="5.733" y1="-586.877" y2="-569" gradientTransform="matrix(1 0 0 -1 0 -562)" gradientUnits="userSpaceOnUse"><stop offset="0" stop-color="#92a3b0"/><stop offset=".015" stop-color="#a3b5c4"/><stop offset=".032" stop-color="#aec2d1"/><stop offset=".046" stop-color="#b2c6d6"/></linearGradient><path fill="url(#STd3O2P6uqbVre0rVJ66Re)" d="M9.466,24.877c-0.465,0-0.881-0.326-0.979-0.798L5.712,10.597C5.521,9.671,4.698,9,3.753,9H2	C1.448,9,1,8.552,1,8s0.448-1,1-1h1.753c1.889,0,3.537,1.343,3.918,3.193l2.775,13.482c0.111,0.541-0.237,1.07-0.778,1.181	C9.601,24.871,9.533,24.877,9.466,24.877z"/><linearGradient id="STd3O2P6uqbVre0rVJ66Rf" x1=".756" x2="3.384" y1="-568.756" y2="-571.384" gradientTransform="matrix(1 0 0 -1 0 -562)" gradientUnits="userSpaceOnUse"><stop offset="0" stop-color="#199ae0"/><stop offset="1" stop-color="#0782d8"/></linearGradient><path fill="url(#STd3O2P6uqbVre0rVJ66Rf)" d="M4,8c0,1.104-0.896,2-2,2S0,9.104,0,8s0.896-2,2-2S4,6.896,4,8z"/><linearGradient id="STd3O2P6uqbVre0rVJ66Rg" x1="6" x2="44.834" y1="-577.475" y2="-577.475" gradientTransform="matrix(1 0 0 -1 0 -562)" gradientUnits="userSpaceOnUse"><stop offset="0" stop-color="#42a3f2"/><stop offset="1" stop-color="#42a4eb"/></linearGradient><path fill="url(#STd3O2P6uqbVre0rVJ66Rg)" d="M43.911,14.916L6,12l0.773,4.06l37.568,2.89l0.479-2.872	C44.917,15.499,44.496,14.961,43.911,14.916z"/><linearGradient id="STd3O2P6uqbVre0rVJ66Rh" x1="25.5" x2="25.5" y1="-601" y2="-593" gradientTransform="matrix(1 0 0 -1 0 -562)" gradientUnits="userSpaceOnUse"><stop offset="0" stop-color="#92a3b0"/><stop offset=".015" stop-color="#a3b5c4"/><stop offset=".032" stop-color="#aec2d1"/><stop offset=".046" stop-color="#b2c6d6"/></linearGradient><path fill="url(#STd3O2P6uqbVre0rVJ66Rh)" d="M41,39H13c-2.206,0-4-1.794-4-4s1.794-4,4-4h25c0.552,0,1,0.448,1,1c0,0.552-0.448,1-1,1H13	c-1.103,0-2,0.897-2,2s0.897,2,2,2h28c0.552,0,1,0.448,1,1S41.552,39,41,39z"/><linearGradient id="STd3O2P6uqbVre0rVJ66Ri" x1="6.773" x2="44.342" y1="-586.53" y2="-586.53" gradientTransform="matrix(1 0 0 -1 0 -562)" gradientUnits="userSpaceOnUse"><stop offset="0" stop-color="#3079d6"/><stop offset="1" stop-color="#297cd2"/></linearGradient><path fill="url(#STd3O2P6uqbVre0rVJ66Ri)" d="M9.69,31.374C9.87,32.318,10.695,33,11.655,33h28.651c0.978,0,1.812-0.707,1.973-1.671	l2.063-12.379L6.773,16.06L9.69,31.374z"/><circle cx="37" cy="41" r="3" fill="#5c5f61"/><circle cx="37" cy="41" r="1" opacity=".15"/><path d="M41,37H27.051C27.021,37.33,27,37.662,27,38s0.021,0.67,0.051,1H41c0.552,0,1-0.448,1-1	S41.552,37,41,37z" opacity=".05"/><path d="M38,27c-4.264,0-7.961,2.444-9.786,6h12.092c0.978,0,1.812-0.707,1.973-1.671l0.534-3.205	C41.357,27.411,39.728,27,38,27z" opacity=".05"/><path d="M38,27.5c-3.981,0-7.451,2.227-9.231,5.5h11.537c0.978,0,1.812-0.707,1.973-1.671l0.449-2.692	C41.305,27.916,39.702,27.5,38,27.5z" opacity=".07"/><path d="M41,37H27.551c-0.031,0.329-0.051,0.662-0.051,1s0.019,0.671,0.051,1H41c0.552,0,1-0.448,1-1	S41.552,37,41,37z" opacity=".07"/><linearGradient id="STd3O2P6uqbVre0rVJ66Rj" x1="30.929" x2="45.071" y1="-592.929" y2="-607.071" gradientTransform="matrix(1 0 0 -1 0 -562)" gradientUnits="userSpaceOnUse"><stop offset="0" stop-color="#889097"/><stop offset="1" stop-color="#64717c"/></linearGradient><circle cx="38" cy="38" r="10" fill="url(#STd3O2P6uqbVre0rVJ66Rj)"/><radialGradient id="STd3O2P6uqbVre0rVJ66Rk" cx="38" cy="-600" r="9" gradientTransform="matrix(1 0 0 -1 0 -562)" gradientUnits="userSpaceOnUse"><stop offset="0"/><stop offset="1" stop-opacity="0"/></radialGradient><circle cx="38" cy="38" r="9" fill="url(#STd3O2P6uqbVre0rVJ66Rk)"/><radialGradient id="STd3O2P6uqbVre0rVJ66Rl" cx="37.948" cy="-592.186" r="17.828" gradientTransform="matrix(1 0 0 -1 0 -562)" gradientUnits="userSpaceOnUse"><stop offset="0" stop-color="#fafafb"/><stop offset="1" stop-color="#c8cdd1"/></radialGradient><circle cx="38" cy="38" r="8" fill="url(#STd3O2P6uqbVre0rVJ66Rl)"/><path fill="#d83b01" d="M40.919,43.667c-0.184,0.095-0.41,0.022-0.505-0.162l-2.747-5.334	c-0.095-0.184-0.022-0.41,0.162-0.505c0.184-0.095,0.41-0.022,0.505,0.162l2.747,5.334C41.175,43.346,41.103,43.573,40.919,43.667z"/><path fill="#45494d" d="M38,38.375c-0.096,0-0.192-0.037-0.265-0.11c-0.146-0.146-0.146-0.384,0-0.53l4.243-4.243	c0.146-0.146,0.384-0.146,0.53,0s0.146,0.384,0,0.53l-4.243,4.243C38.192,38.338,38.096,38.375,38,38.375z"/><path fill="#45494d" d="M38,38.625c-0.091,0-0.183-0.02-0.27-0.062l-3.894-1.868c-0.311-0.149-0.442-0.522-0.293-0.834	c0.149-0.311,0.523-0.443,0.834-0.293l3.894,1.868c0.311,0.149,0.442,0.522,0.293,0.834C38.456,38.494,38.232,38.625,38,38.625z"/><circle cx="38" cy="38" r="1" fill="#1e2021"/></svg>