<svg xmlns="http://www.w3.org/2000/svg" data-name="Layer 1" viewBox="0 0 48 48"><defs><linearGradient id="gGLatKda40M2Lets0aLNDb" x1="32" x2="32" y1="14" y2="21.749" data-name="Новый образец градиентной зал 5" gradientUnits="userSpaceOnUse"><stop offset="0" stop-color="#f9f9f9"/><stop offset=".26" stop-color="#f0f1f2"/><stop offset=".678" stop-color="#d9dcdf"/><stop offset="1" stop-color="#c2c8cc"/></linearGradient><linearGradient id="gGLatKda40M2Lets0aLNDc" x1="32" x2="32" y1="8.309" y2="16.651" data-name="Новый образец градиентной зал 3" gradientUnits="userSpaceOnUse"><stop offset="0" stop-color="#32bdef"/><stop offset="1" stop-color="#1ea2e4"/></linearGradient><linearGradient id="gGLatKda40M2Lets0aLNDd" x1="32" x2="32" y1="5.013" y2="13.601" gradientUnits="userSpaceOnUse"><stop offset=".002" stop-color="#427fdb"/><stop offset=".397" stop-color="#2668cb"/><stop offset=".763" stop-color="#1358bf"/><stop offset="1" stop-color="#0c52bb"/></linearGradient><linearGradient id="gGLatKda40M2Lets0aLNDe" x1="24.01" x2="24.01" y1="13.206" y2="57.543" gradientUnits="userSpaceOnUse"><stop offset="0" stop-color="#e83c67"/><stop offset=".423" stop-color="#c5214a"/><stop offset=".773" stop-color="#b01038"/><stop offset="1" stop-color="#a80a31"/></linearGradient><radialGradient id="gGLatKda40M2Lets0aLNDa" cx="9.425" cy="21.302" r="27.458" gradientTransform="matrix(.95311 0 0 .97429 .797 .873)" gradientUnits="userSpaceOnUse"><stop offset="0" stop-color="#f09701"/><stop offset="1" stop-color="#e36001"/></radialGradient></defs><ellipse cx="18" cy="20.474" fill="url(#gGLatKda40M2Lets0aLNDa)" rx="9" ry="8.474"/><path fill="#21a366" d="M13.72505,15c2.925,0,4.275-3,4.275-3H9S10.8,15,13.72505,15Z"/><path fill="#33c481" d="M18.00009,12a4.774,4.774,0,0,0-4.275-3C10.575,9,9,12,9,12Z"/><path fill="url(#gGLatKda40M2Lets0aLNDb)" d="M38.18,16.5c-.11-.28-.23-.56-.36-.83L37.49,15l-.24-.49L36.51,13H27.49l-.74,1.51-.24.49-.33.67c-.13.27-.25.55-.36.83A11.695,11.695,0,0,0,25,20.8v.7H39v-.7A11.695,11.695,0,0,0,38.18,16.5Z"/><polygon fill="url(#gGLatKda40M2Lets0aLNDc)" points="37.49 15 26.51 15 26.75 14.51 27.49 13 29.2 9.5 34.8 9.5 36.51 13 37.25 14.51 37.49 15"/><rect width="8" height="3" x="28" y="7" fill="url(#gGLatKda40M2Lets0aLNDd)" rx="1.5"/><path fill="url(#gGLatKda40M2Lets0aLNDe)" d="M43.61,21.26,43.2,24l-.06.4L40.79,40.13A2.2042,2.2042,0,0,1,38.61,42H9.39a2.2042,2.2042,0,0,1-2.18-1.87L4.88,24.4,4.82,24l-.41-2.74A1.09257,1.09257,0,0,1,5.5,20H42.52A1.09257,1.09257,0,0,1,43.61,21.26Z"/><path fill="#f44f78" d="M43.61,21.26,43.2,24H4.82l-.41-2.74A1.09257,1.09257,0,0,1,5.5,20H42.52A1.09257,1.09257,0,0,1,43.61,21.26Z"/><g><path d="M25.25,26a.75027.75027,0,0,1,.75.75V33h3.387a.60524.60524,0,0,1,.427,1.035l-5.021,4.994a1.125,1.125,0,0,1-1.586,0l-5.021-4.994A.60524.60524,0,0,1,18.613,33H22V26.75a.75027.75027,0,0,1,.75-.75h2.5m0-1h-2.5A1.752,1.752,0,0,0,21,26.75V32H18.613a1.60525,1.60525,0,0,0-1.13132,2.74487L22.5018,39.738a2.125,2.125,0,0,0,2.99674-.00031L30.5192,34.744A1.60523,1.60523,0,0,0,29.387,32H27V26.75A1.752,1.752,0,0,0,25.25,25Z" opacity=".05"/><path d="M25.25,26a.75027.75027,0,0,1,.75.75V33h3.387a.60524.60524,0,0,1,.427,1.035l-5.021,4.994a1.125,1.125,0,0,1-1.586,0l-5.021-4.994A.60524.60524,0,0,1,18.613,33H22V26.75a.75027.75027,0,0,1,.75-.75h2.5m0-.5h-2.5a1.25141,1.25141,0,0,0-1.25,1.25V32.5H18.613A1.10525,1.10525,0,0,0,17.83386,34.39l5.02054,4.99353a1.625,1.625,0,0,0,2.29135-.00012l5.02085-4.99389A1.10524,1.10524,0,0,0,29.387,32.5H26.5V26.75a1.25141,1.25141,0,0,0-1.25-1.25Z" opacity=".07"/><path fill="#fed100" d="M29.387,33H26V26.75a.75027.75027,0,0,0-.75-.75h-2.5a.75027.75027,0,0,0-.75.75V33H18.613a.60526.60526,0,0,0-.427,1.035l5.021,4.994a1.125,1.125,0,0,0,1.586,0l5.021-4.994A.60526.60526,0,0,0,29.387,33Z"/></g></svg>