<svg xmlns="http://www.w3.org/2000/svg" viewBox="0 0 48 48"><path fill="#608a29" d="M40.07,28.11c0,0-2.23,1.64-3.94,4.25c-0.19,0.28-0.37,0.58-0.54,0.89c-0.15,0.26-0.28,0.53-0.41,0.8	c-0.59,1.26-0.99,2.66-0.99,4.17C34.19,44,24.07,44,24.07,44s-10.11,0-10.11-5.78c0-1.46-0.38-2.83-0.94-4.06	c-0.12-0.27-0.25-0.53-0.39-0.79c-0.16-0.3-0.33-0.58-0.51-0.86c-1.73-2.7-4.05-4.4-4.05-4.4H40.07z"/><path fill="#6fa52c" d="M43,24.5c0,2.69-3.1,5.55-6.87,7.86C31.71,35.06,26.37,37,24,37c-2.32,0-7.51-1.87-11.88-4.49	C8.24,30.18,5,27.25,5,24.5c0-2.41,2.49-5.82,5.73-8.99c0.13-0.12,0.26-0.25,0.39-0.37c0.12-0.12,0.25-0.24,0.38-0.36	c2.78-2.59,5.97-4.96,8.58-6.38c0.18-0.1,0.35-0.19,0.52-0.27c0.17-0.09,0.34-0.18,0.51-0.25C22.28,7.32,23.28,7,24,7	s1.72,0.32,2.89,0.88c0.17,0.07,0.34,0.16,0.51,0.25c0.17,0.08,0.34,0.17,0.52,0.27c2.61,1.42,5.8,3.79,8.58,6.38	c0.13,0.12,0.26,0.24,0.38,0.36c0.13,0.12,0.26,0.25,0.39,0.37C40.51,18.68,43,22.09,43,24.5z"/><linearGradient id="swqg7J~Bg2b1Fjfa3zgB7a" x1="33.249" x2="31.166" y1="5.332" y2="13.194" gradientUnits="userSpaceOnUse"><stop offset=".104" stop-color="#f6f6f6"/><stop offset=".308" stop-color="#edeeef"/><stop offset=".637" stop-color="#d6d9db"/><stop offset="1" stop-color="#b4bbc0"/></linearGradient><path fill="url(#swqg7J~Bg2b1Fjfa3zgB7a)" d="M36.92,13.27c-0.01,0.12-0.03,0.25-0.06,0.37c-0.04,0.19-0.09,0.37-0.15,0.55	c-0.01,0.04-0.01,0.07-0.03,0.09c-0.04,0.16-0.1,0.31-0.17,0.46c0,0.01,0,0.03-0.01,0.04s-0.01,0.03-0.02,0.04	c-0.06,0.15-0.12,0.29-0.2,0.43c-0.06,0.13-0.13,0.26-0.21,0.38c-0.1,0.17-0.21,0.33-0.33,0.5c-0.11,0.16-0.24,0.31-0.37,0.47	c-0.17,0.2-0.43,0.31-0.69,0.31c-0.07,0-0.14-0.01-0.21-0.03c-5.29-1.27-7.48-4.82-8.19-6.32c-0.18-0.4-0.09-0.87,0.25-1.15	c0.12-0.1,0.26-0.22,0.42-0.34c0.16-0.12,0.34-0.25,0.53-0.38c0.14-0.1,0.28-0.2,0.44-0.29c0.14-0.09,0.28-0.18,0.43-0.26	c0.11-0.07,0.22-0.13,0.34-0.2c0.28-0.15,0.58-0.3,0.89-0.42c0.1-0.04,0.21-0.09,0.31-0.12c0.14-0.05,0.27-0.1,0.41-0.14	c0.17-0.05,0.34-0.1,0.5-0.13c0.03-0.01,0.06-0.02,0.09-0.02c0.12-0.03,0.23-0.05,0.35-0.06c0.08-0.01,0.15-0.02,0.22-0.02	C31.61,7.01,31.76,7,31.91,7c0.66,0,1.31,0.14,1.92,0.49C36.25,8.87,37.23,11.08,36.92,13.27z"/><circle cx="32" cy="12" r="2" fill="#272727"/><path fill="#272727" d="M33.138,14.341c-1.221-1.49-2.797-2.501-3.733-3.018c-0.449-0.248-0.633-0.793-0.431-1.264	l0.001-0.002c0.233-0.544,0.879-0.771,1.397-0.485c1.087,0.601,2.872,1.754,4.295,3.48c0.378,0.459,0.281,1.148-0.214,1.479l0,0	C34.03,14.813,33.46,14.734,33.138,14.341z"/><linearGradient id="swqg7J~Bg2b1Fjfa3zgB7b" x1="12.509" x2="17.403" y1="4.131" y2="13.851" gradientUnits="userSpaceOnUse"><stop offset="0" stop-color="#f6f6f6"/><stop offset=".228" stop-color="#edeeef"/><stop offset=".595" stop-color="#d6d9db"/><stop offset="1" stop-color="#b4bbc0"/></linearGradient><path fill="url(#swqg7J~Bg2b1Fjfa3zgB7b)" d="M21.72,10.56c-0.71,1.5-2.9,5.05-8.19,6.32c-0.07,0.02-0.14,0.03-0.21,0.03	c-0.26,0-0.52-0.11-0.69-0.31c-0.49-0.57-0.87-1.18-1.13-1.82c-1.11-2.62-0.31-5.59,2.67-7.29C14.78,7.14,15.43,7,16.09,7	c1.44,0,2.89,0.69,3.99,1.4c0.16,0.09,0.3,0.19,0.44,0.29c0.19,0.13,0.37,0.26,0.53,0.38c0.16,0.12,0.3,0.24,0.42,0.34	C21.81,9.69,21.9,10.16,21.72,10.56z"/><circle cx="16" cy="12" r="2" fill="#272727"/><path fill="#272727" d="M13.548,14.532L13.548,14.532c-0.495-0.33-0.594-1.02-0.215-1.48c1.423-1.726,3.208-2.879,4.295-3.48	c0.517-0.286,1.164-0.059,1.397,0.484l0.001,0.003c0.202,0.471,0.019,1.016-0.429,1.265c-0.937,0.52-2.516,1.534-3.735,3.017	C14.539,14.734,13.97,14.814,13.548,14.532z"/><path fill="#416a1b" d="M24,30c-7.204,0-15.193-4.941-15.53-5.152l1.06-1.696C9.607,23.2,17.375,28,24,28	c6.637,0,14.393-4.799,14.47-4.848l1.061,1.696C39.193,25.059,31.204,30,24,30z"/><path fill="#416a1b" d="M38.873,26.957L38.873,26.957c-0.445-0.149-0.695-0.586-0.675-1.054	c0.049-1.133-0.624-2.033-1.151-2.56c-0.334-0.333-0.375-0.857-0.113-1.249l0.002-0.002c0.349-0.522,1.092-0.606,1.533-0.159	c0.913,0.925,1.821,2.377,1.725,4.117C40.157,26.713,39.504,27.168,38.873,26.957z"/><path fill="#416a1b" d="M7.77,26.049c-0.096-1.74,0.812-3.191,1.725-4.117c0.441-0.447,1.183-0.363,1.533,0.159l0.002,0.002	c0.262,0.392,0.22,0.916-0.113,1.249c-0.528,0.527-1.201,1.427-1.151,2.56c0.02,0.469-0.23,0.906-0.675,1.054h0	C8.46,27.168,7.807,26.713,7.77,26.049z"/><path fill="#151515" d="M24,37c-2.32,0-7.51-1.87-11.88-4.49c0.18,0.28,0.35,0.56,0.51,0.86	c4.24,2.44,9.02,4.13,11.37,4.13c2.39,0,7.3-1.74,11.59-4.25c0.17-0.31,0.35-0.61,0.54-0.89C31.71,35.06,26.37,37,24,37z" opacity=".05"/><path fill="#151515" d="M24,37c-2.32,0-7.51-1.87-11.88-4.49c0.18,0.28,0.35,0.56,0.51,0.86	c0.14,0.26,0.27,0.52,0.39,0.79C17.3,36.48,21.93,38,24,38c2.11,0,6.85-1.57,11.18-3.95c0.13-0.27,0.26-0.54,0.41-0.8	c0.17-0.31,0.35-0.61,0.54-0.89C31.71,35.06,26.37,37,24,37z" opacity=".05"/><path fill="#151515" d="M22.11,8.64c-0.27-0.23-0.61-0.5-1-0.76c-0.17,0.07-0.34,0.16-0.51,0.25	c-0.17,0.08-0.34,0.17-0.52,0.27c0.16,0.09,0.3,0.19,0.44,0.29c0.19,0.13,0.37,0.26,0.53,0.38c0.16,0.12,0.3,0.24,0.42,0.34	c0.34,0.28,0.43,0.75,0.25,1.15c-0.71,1.5-2.9,5.05-8.19,6.32c-0.07,0.02-0.14,0.03-0.21,0.03c-0.26,0-0.52-0.11-0.69-0.31	c-0.49-0.57-0.87-1.18-1.13-1.82c-0.13,0.12-0.26,0.24-0.38,0.36c-0.13,0.12-0.26,0.25-0.39,0.37c0.29,0.61,0.67,1.19,1.14,1.74	c0.36,0.42,0.89,0.66,1.45,0.66c0.15,0,0.3-0.02,0.45-0.05c5.71-1.38,8.09-5.27,8.85-6.88C23.01,10.17,22.8,9.2,22.11,8.64z" opacity=".05"/><path fill="#151515" d="M21.79,9.02c-0.32-0.26-0.72-0.57-1.19-0.89c-0.17,0.08-0.34,0.17-0.52,0.27	c0.16,0.09,0.3,0.19,0.44,0.29c0.19,0.13,0.37,0.26,0.53,0.38c0.16,0.12,0.3,0.24,0.42,0.34c0.34,0.28,0.43,0.75,0.25,1.15	c-0.71,1.5-2.9,5.05-8.19,6.32c-0.07,0.02-0.14,0.03-0.21,0.03c-0.26,0-0.52-0.11-0.69-0.31c-0.49-0.57-0.87-1.18-1.13-1.82	c-0.13,0.12-0.26,0.24-0.38,0.36c0.27,0.63,0.66,1.23,1.13,1.78c0.26,0.31,0.65,0.49,1.07,0.49c0.11,0,0.22-0.01,0.33-0.04	c5.5-1.33,7.79-5.06,8.52-6.6C22.46,10.16,22.3,9.44,21.79,9.02z" opacity=".05"/><path fill="#151515" d="M36.48,14.82c-0.06,0.15-0.12,0.29-0.2,0.43c-0.06,0.13-0.13,0.26-0.21,0.38	c-0.1,0.17-0.21,0.33-0.33,0.5c-0.11,0.16-0.24,0.31-0.37,0.47c-0.17,0.2-0.43,0.31-0.69,0.31c-0.07,0-0.14-0.01-0.21-0.03	c-5.29-1.27-7.48-4.82-8.19-6.32c-0.18-0.4-0.09-0.87,0.25-1.15c0.12-0.1,0.26-0.22,0.42-0.34c0.16-0.12,0.34-0.25,0.53-0.38	c0.14-0.1,0.28-0.2,0.44-0.29c-0.18-0.1-0.35-0.19-0.52-0.27c-0.47,0.32-0.87,0.63-1.19,0.89c-0.51,0.42-0.67,1.14-0.38,1.75	c0.73,1.54,3.02,5.27,8.52,6.6c0.11,0.03,0.22,0.04,0.33,0.04c0.42,0,0.81-0.18,1.07-0.49c0.47-0.55,0.86-1.15,1.13-1.78	c-0.12-0.12-0.25-0.24-0.38-0.36C36.49,14.79,36.49,14.81,36.48,14.82z" opacity=".05"/><path fill="#151515" d="M36.88,15.14c-0.12-0.12-0.25-0.24-0.38-0.36c-0.01,0.01-0.01,0.03-0.02,0.04	c-0.06,0.15-0.12,0.29-0.2,0.43c-0.06,0.13-0.13,0.26-0.21,0.38c-0.1,0.17-0.21,0.33-0.33,0.5c-0.11,0.16-0.24,0.31-0.37,0.47	c-0.17,0.2-0.43,0.31-0.69,0.31c-0.07,0-0.14-0.01-0.21-0.03c-5.29-1.27-7.48-4.82-8.19-6.32c-0.18-0.4-0.09-0.87,0.25-1.15	c0.12-0.1,0.26-0.22,0.42-0.34c0.16-0.12,0.34-0.25,0.53-0.38c0.14-0.1,0.28-0.2,0.44-0.29c-0.18-0.1-0.35-0.19-0.52-0.27	c-0.17-0.09-0.34-0.18-0.51-0.25c-0.39,0.26-0.73,0.53-1,0.76c-0.69,0.56-0.9,1.53-0.51,2.34c0.76,1.61,3.14,5.5,8.85,6.88	c0.15,0.03,0.3,0.05,0.45,0.05c0.56,0,1.09-0.24,1.45-0.66c0.47-0.55,0.85-1.13,1.14-1.74C37.14,15.39,37.01,15.26,36.88,15.14z" opacity=".05"/></svg>