<svg xmlns="http://www.w3.org/2000/svg" viewBox="0 0 48 48"><linearGradient id="r_6WSMCNTRZtB9hJro4vMa" x1="24" x2="24" y1="5.351" y2="42.351" gradientUnits="userSpaceOnUse"><stop offset="0" stop-color="#fede00"/><stop offset="1" stop-color="#f5aa00"/></linearGradient><path fill="url(#r_6WSMCNTRZtB9hJro4vMa)" d="M43.48,13.85c-0.008-0.073-0.011-0.147-0.029-0.217c-0.015-0.057-0.04-0.109-0.061-0.164 c-0.025-0.065-0.047-0.131-0.08-0.192c-0.029-0.052-0.067-0.097-0.102-0.145c-0.041-0.056-0.078-0.114-0.126-0.164 c-0.04-0.042-0.088-0.076-0.133-0.113c-0.045-0.037-0.083-0.081-0.133-0.113l-18-10c-0.496-0.32-1.134-0.32-1.63,0l-18,10 c-0.05,0.032-0.088,0.076-0.133,0.113c-0.045,0.037-0.093,0.071-0.133,0.113c-0.048,0.051-0.086,0.108-0.126,0.164 c-0.035,0.048-0.073,0.093-0.102,0.145c-0.034,0.061-0.055,0.127-0.08,0.192c-0.021,0.055-0.047,0.107-0.061,0.164 c-0.018,0.071-0.021,0.144-0.029,0.217C4.515,13.9,4.5,13.948,4.5,14v20c0,0.509,0.258,0.983,0.685,1.26l18,11 c0.016,0.01,0.035,0.014,0.052,0.024c0.017,0.01,0.029,0.025,0.046,0.034c0.063,0.034,0.13,0.052,0.196,0.077 c0.042,0.016,0.082,0.037,0.125,0.049C23.735,46.479,23.867,46.5,24,46.5c0.133,0,0.265-0.021,0.395-0.057 c0.044-0.012,0.084-0.034,0.126-0.05c0.066-0.024,0.133-0.042,0.195-0.076c0.017-0.009,0.029-0.024,0.046-0.034 c0.017-0.01,0.036-0.013,0.052-0.024l18-11C43.242,34.983,43.5,34.509,43.5,34V14C43.5,13.948,43.485,13.9,43.48,13.85z M24,5.787 l15.117,8.134L24,21.999L8.883,13.921L24,5.787z M7.5,16.623l15,8.235v17.385l-15-9.06V16.623z M40.5,33.184l-15,9.06V24.858 l15-8.235V33.184z"/><linearGradient id="r_6WSMCNTRZtB9hJro4vMb" x1="23.291" x2="24.584" y1="14.995" y2="31.421" gradientUnits="userSpaceOnUse"><stop offset="0" stop-color="#889097"/><stop offset="1" stop-color="#455a64"/></linearGradient><circle cx="24" cy="24" r="9" fill="url(#r_6WSMCNTRZtB9hJro4vMb)"/><circle cx="21" cy="21" r="2" fill="#fff"/></svg>