<svg xmlns="http://www.w3.org/2000/svg" viewBox="0 0 48 48"><radialGradient id="wnDxIITctYxY2KZOgqdmpa" cx="349.703" cy="577.763" r="1.421" gradientTransform="matrix(.658 .6831 .4461 -.4335 -465.12 44.928)" gradientUnits="userSpaceOnUse"><stop offset="0" stop-color="#0083c4"/><stop offset=".22" stop-color="#0287c6"/><stop offset=".438" stop-color="#0a93cc"/><stop offset=".655" stop-color="#16a7d7"/><stop offset=".87" stop-color="#27c2e5"/><stop offset="1" stop-color="#33d7f0"/></radialGradient><path fill="url(#wnDxIITctYxY2KZOgqdmpa)" d="M23.66,34.321c-0.35,0.34-1.052,0.182-1.569-0.355c-0.516-0.536-0.651-1.247-0.301-1.587 c0.35-0.34,1.052-0.182,1.569,0.355C23.875,33.27,24.01,33.981,23.66,34.321z"/><radialGradient id="wnDxIITctYxY2KZOgqdmpb" cx="327.651" cy="248.89" r="2.577" gradientTransform="matrix(.7881 .5567 .3423 -.5116 -319.104 -22.305)" gradientUnits="userSpaceOnUse"><stop offset="0" stop-color="#0083c4"/><stop offset=".22" stop-color="#0287c6"/><stop offset=".438" stop-color="#0a93cc"/><stop offset=".655" stop-color="#16a7d7"/><stop offset=".87" stop-color="#27c2e5"/><stop offset="1" stop-color="#33d7f0"/></radialGradient><path fill="url(#wnDxIITctYxY2KZOgqdmpb)" d="M25.856,34.787c-0.62,0.525-1.812,0.045-2.665-1.071c-0.852-1.117-1.04-2.447-0.421-2.972 c0.62-0.525,1.812-0.045,2.665,1.071C26.287,32.931,26.475,34.263,25.856,34.787z"/><radialGradient id="wnDxIITctYxY2KZOgqdmpc" cx="274.007" cy="56.63" r="3.831" gradientTransform="matrix(.8689 .479 .2745 -.5491 -227.621 -68.543)" gradientUnits="userSpaceOnUse"><stop offset="0" stop-color="#0083c4"/><stop offset=".22" stop-color="#0287c6"/><stop offset=".438" stop-color="#0a93cc"/><stop offset=".655" stop-color="#16a7d7"/><stop offset=".87" stop-color="#27c2e5"/><stop offset="1" stop-color="#33d7f0"/></radialGradient><path fill="url(#wnDxIITctYxY2KZOgqdmpc)" d="M28.594,34.515c-0.848,0.822-2.694,0.188-4.122-1.416c-1.428-1.604-1.898-3.57-1.05-4.392 c0.848-0.822,2.694-0.188,4.122,1.416C28.972,31.726,29.443,33.693,28.594,34.515z"/><radialGradient id="wnDxIITctYxY2KZOgqdmpd" cx="205.541" cy="-100.237" r="5.007" gradientTransform="matrix(.9448 .4092 .2174 -.5775 -144.763 -112.057)" gradientUnits="userSpaceOnUse"><stop offset="0" stop-color="#0083c4"/><stop offset=".22" stop-color="#0287c6"/><stop offset=".438" stop-color="#0a93cc"/><stop offset=".655" stop-color="#16a7d7"/><stop offset=".87" stop-color="#27c2e5"/><stop offset="1" stop-color="#33d7f0"/></radialGradient><path fill="url(#wnDxIITctYxY2KZOgqdmpd)" d="M31.61,33.405c-0.99,1.21-3.57,0.639-5.762-1.277s-3.166-4.449-2.176-5.659 c0.99-1.21,3.57-0.639,5.762,1.277S32.6,32.195,31.61,33.405z"/><radialGradient id="wnDxIITctYxY2KZOgqdmpe" cx="120.542" cy="-265.023" r="6.066" gradientTransform="matrix(1.0277 .3187 .1544 -.6057 -53.922 -171.14)" gradientUnits="userSpaceOnUse"><stop offset="0" stop-color="#0083c4"/><stop offset=".22" stop-color="#0287c6"/><stop offset=".438" stop-color="#0a93cc"/><stop offset=".655" stop-color="#16a7d7"/><stop offset=".87" stop-color="#27c2e5"/><stop offset="1" stop-color="#33d7f0"/></radialGradient><path fill="url(#wnDxIITctYxY2KZOgqdmpe)" d="M34.69,31.341c-0.994,1.68-4.331,1.457-7.451-0.497s-4.845-4.9-3.85-6.579 s4.331-1.457,7.451,0.497S35.684,29.661,34.69,31.341z"/><radialGradient id="wnDxIITctYxY2KZOgqdmpf" cx="14.113" cy="-449.918" r="7.004" gradientTransform="matrix(1.1149 .1863 .0745 -.6333 47.82 -262.303)" gradientUnits="userSpaceOnUse"><stop offset="0" stop-color="#0083c4"/><stop offset=".22" stop-color="#0287c6"/><stop offset=".438" stop-color="#0a93cc"/><stop offset=".655" stop-color="#16a7d7"/><stop offset=".87" stop-color="#27c2e5"/><stop offset="1" stop-color="#33d7f0"/></radialGradient><path fill="url(#wnDxIITctYxY2KZOgqdmpf)" d="M37.565,28.164c-0.8,2.202-4.821,2.687-8.979,1.082c-4.158-1.604-6.881-4.689-6.079-6.891 s4.821-2.687,8.979-1.082S38.365,25.962,37.565,28.164z"/><radialGradient id="wnDxIITctYxY2KZOgqdmpg" cx="-115.358" cy="-640.646" r="7.829" gradientTransform="matrix(1.1915 .0016 -.0264 -.654 150.995 -396.432)" gradientUnits="userSpaceOnUse"><stop offset="0" stop-color="#0083c4"/><stop offset=".22" stop-color="#0287c6"/><stop offset=".438" stop-color="#0a93cc"/><stop offset=".655" stop-color="#16a7d7"/><stop offset=".87" stop-color="#27c2e5"/><stop offset="1" stop-color="#33d7f0"/></radialGradient><path fill="url(#wnDxIITctYxY2KZOgqdmpg)" d="M39.832,23.765c-0.362,2.711-4.853,4.283-10.029,3.51s-9.079-3.597-8.716-6.308 c0.362-2.711,4.853-4.283,10.029-3.51C36.292,18.229,40.194,21.054,39.832,23.765z"/><radialGradient id="wnDxIITctYxY2KZOgqdmph" cx="-260.002" cy="-802.407" r="8.551" gradientTransform="matrix(1.2381 -.2253 -.1421 -.6604 238.026 -569.312)" gradientUnits="userSpaceOnUse"><stop offset="0" stop-color="#0083c4"/><stop offset=".22" stop-color="#0287c6"/><stop offset=".438" stop-color="#0a93cc"/><stop offset=".655" stop-color="#16a7d7"/><stop offset=".87" stop-color="#27c2e5"/><stop offset="1" stop-color="#33d7f0"/></radialGradient><path fill="url(#wnDxIITctYxY2KZOgqdmph)" d="M40.986,18.24c0.306,3.114-4.301,6.058-10.291,6.575c-5.99,0.517-11.093-1.589-11.4-4.703 s4.301-6.058,10.291-6.575C35.575,13.02,40.679,15.125,40.986,18.24z"/><radialGradient id="wnDxIITctYxY2KZOgqdmpi" cx="-401.815" cy="-904.929" r="9.186" gradientTransform="matrix(1.2461 -.466 -.2584 -.6507 295.776 -760.34)" gradientUnits="userSpaceOnUse"><stop offset="0" stop-color="#0083c4"/><stop offset=".22" stop-color="#0287c6"/><stop offset=".438" stop-color="#0a93cc"/><stop offset=".655" stop-color="#16a7d7"/><stop offset=".87" stop-color="#27c2e5"/><stop offset="1" stop-color="#33d7f0"/></radialGradient><path fill="url(#wnDxIITctYxY2KZOgqdmpi)" d="M40.607,11.957c1.116,3.342-3.217,7.746-9.678,9.837s-12.604,1.076-13.72-2.266 s3.217-7.746,9.678-9.837S39.491,8.616,40.607,11.957z"/><radialGradient id="wnDxIITctYxY2KZOgqdmpj" cx="-522.675" cy="-942.802" r="9.746" gradientTransform="matrix(1.2248 -.6914 -.3624 -.6314 325.096 -944.539)" gradientUnits="userSpaceOnUse"><stop offset="0" stop-color="#0083c4"/><stop offset=".22" stop-color="#0287c6"/><stop offset=".438" stop-color="#0a93cc"/><stop offset=".655" stop-color="#16a7d7"/><stop offset=".87" stop-color="#27c2e5"/><stop offset="1" stop-color="#33d7f0"/></radialGradient><path fill="url(#wnDxIITctYxY2KZOgqdmpj)" d="M38.532,5.386c1.951,3.399-1.812,9.17-8.405,12.891s-13.518,3.983-15.469,0.585 s1.812-9.17,8.405-12.891S36.581,1.989,38.532,5.386z"/><path fill="#33d7f0" d="M25.176,18c-0.584,0-1.099-0.121-1.498-0.398c-0.599-0.417-0.934-0.996-0.971-1.678 c-0.091-1.695,1.786-3.412,2.162-3.739c0.382-0.331,0.959-0.29,1.29,0.092c0.331,0.381,0.291,0.959-0.09,1.291 c-0.664,0.579-1.566,1.686-1.534,2.26c0.003,0.058,0.008,0.147,0.188,0.271c0.543,0.377,3.647-0.504,5.959-2.423 c2.354-1.955,3.87-4.081,3.953-5.546c0.025-0.433-0.082-0.768-0.328-1.025c-0.806-0.84-5.573,0.092-9.704,2.783 c-5.232,3.502-5.779,6.345-5.783,6.372c-0.085,0.493-0.55,0.834-1.045,0.756c-0.494-0.077-0.836-0.529-0.766-1.024 c0.05-0.364,0.668-3.672,6.585-7.633c3.643-2.372,10.017-4.631,12.037-2.52c0.599,0.625,0.887,1.453,0.833,2.395 c-0.115,2.015-1.796,4.512-4.612,6.85C30.142,16.506,27.231,17.999,25.176,18z"/><linearGradient id="wnDxIITctYxY2KZOgqdmpk" x1="24" x2="24" y1="7918.951" y2="7928.994" gradientTransform="translate(0 -7886)" gradientUnits="userSpaceOnUse"><stop offset="0" stop-color="#2aa4f4"/><stop offset="1" stop-color="#007ad9"/></linearGradient><path fill="url(#wnDxIITctYxY2KZOgqdmpk)" d="M42,34c-1.075-0.039-2.117-0.386-3-1c-0.883,0.614-1.925,0.961-3,1	c-1.075-0.039-2.117-0.386-3-1c-0.883,0.614-1.925,0.961-3,1c-1.075-0.039-2.117-0.386-3-1c-0.883,0.614-1.925,0.961-3,1	c-1.075-0.039-2.117-0.386-3-1c-0.883,0.614-1.925,0.961-3,1c-1.075-0.039-2.117-0.386-3-1c-0.883,0.614-1.925,0.961-3,1	c-1.075-0.039-2.117-0.386-3-1c-0.883,0.614-1.925,0.961-3,1c-1.075-0.039-2.117-0.386-3-1v8c0,1.104,0.895,2,1.999,2	C4.999,43,5,43,5,43h38c1.104,0,2-0.895,2-1.999c0,0,0-0.001,0-0.001v-8C44.117,33.614,43.075,33.961,42,34z"/></svg>