<svg xmlns="http://www.w3.org/2000/svg" viewBox="0 0 48 48"><path fill="#0884db" d="M23.401,10.798L18.069,6.8c-0.533-0.4-0.533-1.2,0-1.599L23.4,1.202C24.06,0.707,25,1.178,25,2.001	v7.997C25,10.822,24.06,11.293,23.401,10.798z"/><path fill="#0368ba" d="M25.105,43.97C13.609,44.597,4,35.366,4,24c0-4.358,1.462-8.63,4.146-12.099	c0.346-0.447,1.008-0.494,1.435-0.124l1.479,1.282c0.411,0.356,0.447,0.964,0.113,1.393c-2.688,3.464-3.711,8.072-2.906,12.531	c1.399,7.746,8.128,13.145,15.998,13.015c9.228-0.152,16.62-8.218,15.649-17.667l4.056,2.775	C43.42,35.174,35.174,43.42,25.105,43.97z"/><path fill="#0884db" d="M24,44c0,0,16-3,16-20c0-8.8-7.2-16-16-16h-3.2V4H24c11,0,20,9,20,20S35,44,24,44z"/></svg>