<svg xmlns="http://www.w3.org/2000/svg" viewBox="0 0 48 48"><linearGradient id="LidFZOQ2Ny7Ksoafh93y1a" x1="24.015" x2="24.015" y1="34.814" y2="45.201" gradientUnits="userSpaceOnUse"><stop offset="0" stop-color="#ffd869"/><stop offset="1" stop-color="#fec52b"/></linearGradient><path fill="url(#LidFZOQ2Ny7Ksoafh93y1a)" d="M44.015,39.482c0.002,2.485-8.951,4.508-19.996,4.518c-11.045,0.011-20.002-1.995-20.004-4.48	c-0.002-2.485,8.951-4.508,19.996-4.518C35.056,34.991,44.013,36.997,44.015,39.482z"/><rect width="2" height="36.5" x="23" y="3" fill="#64717c"/><linearGradient id="LidFZOQ2Ny7Ksoafh93y1b" x1="28.986" x2="39.429" y1="1.637" y2="21.957" gradientTransform="translate(.174 -.075)" gradientUnits="userSpaceOnUse"><stop offset="0" stop-color="#42a3f2"/><stop offset="1" stop-color="#42a4eb"/></linearGradient><path fill="url(#LidFZOQ2Ny7Ksoafh93y1b)" d="M44,18.981l-5,0.038C39,19.019,30,4,23.981,4C41,4,44,18.981,44,18.981z"/><linearGradient id="LidFZOQ2Ny7Ksoafh93y1c" x1="31.731" x2="31.731" y1="20.93" y2="4.85" gradientUnits="userSpaceOnUse"><stop offset="0" stop-color="#3079d6"/><stop offset="1" stop-color="#297cd2"/></linearGradient><path fill="url(#LidFZOQ2Ny7Ksoafh93y1c)" d="M40,19c0,0-2.239,2-5,2s-5-2-5-2S21.239,4,24,4C35,4,40,16,40,19z"/><linearGradient id="LidFZOQ2Ny7Ksoafh93y1d" x1="48.447" x2="58.891" y1="1.656" y2="21.975" gradientTransform="matrix(-1 -.00096 -.00096 1 67.288 -.075)" gradientUnits="userSpaceOnUse"><stop offset="0" stop-color="#42a3f2"/><stop offset="1" stop-color="#42a4eb"/></linearGradient><path fill="url(#LidFZOQ2Ny7Ksoafh93y1d)" d="M4,18.981l5,0.038C9,19.019,18,4,24.019,4C7,4,4,18.981,4,18.981z"/><linearGradient id="LidFZOQ2Ny7Ksoafh93y1e" x1="51.193" x2="51.193" y1="20.93" y2="4.85" gradientTransform="matrix(-1 0 0 1 67.462 0)" gradientUnits="userSpaceOnUse"><stop offset="0" stop-color="#3079d6"/><stop offset="1" stop-color="#297cd2"/></linearGradient><path fill="url(#LidFZOQ2Ny7Ksoafh93y1e)" d="M8,19c0,0,2.239,2,5,2s5-2,5-2s8.761-15,6-15C13,4,8,16,8,19z"/><linearGradient id="LidFZOQ2Ny7Ksoafh93y1f" x1="13" x2="13" y1="20.983" y2="17.2" gradientUnits="userSpaceOnUse"><stop offset="0" stop-color="#3079d6"/><stop offset="1" stop-color="#297cd2"/></linearGradient><path fill="url(#LidFZOQ2Ny7Ksoafh93y1f)" d="M18,19c0,0-2.239,2-5,2s-5-2-5-2s2.239-2,5-2S18,19,18,19z"/><linearGradient id="LidFZOQ2Ny7Ksoafh93y1g" x1="35" x2="35" y1="19.992" y2="18.1" gradientTransform="matrix(-.4 0 0 1 56 0)" gradientUnits="userSpaceOnUse"><stop offset="0" stop-color="#42a3f2"/><stop offset="1" stop-color="#42a4eb"/></linearGradient><path fill="url(#LidFZOQ2Ny7Ksoafh93y1g)" d="M40,19c0,0,0.895,1,2,1s2-1,2-1s-0.895-1-2-1S40,19,40,19z"/><linearGradient id="LidFZOQ2Ny7Ksoafh93y1h" x1="125" x2="125" y1="19.992" y2="18.1" gradientTransform="matrix(-.4 0 0 1 56 0)" gradientUnits="userSpaceOnUse"><stop offset="0" stop-color="#42a3f2"/><stop offset="1" stop-color="#42a4eb"/></linearGradient><path fill="url(#LidFZOQ2Ny7Ksoafh93y1h)" d="M4,19c0,0,0.895,1,2,1s2-1,2-1s-0.895-1-2-1S4,19,4,19z"/><linearGradient id="LidFZOQ2Ny7Ksoafh93y1i" x1="24" x2="24" y1="20.93" y2="4.85" gradientUnits="userSpaceOnUse"><stop offset="0" stop-color="#42a3f2"/><stop offset="1" stop-color="#42a4eb"/></linearGradient><path fill="url(#LidFZOQ2Ny7Ksoafh93y1i)" d="M30,19c0,0-2.686,2-6,2s-6-2-6-2c0-14,6-15,6-15S30,5,30,19z"/><ellipse cx="24" cy="39.5" fill="#64717c" rx="1" ry=".5"/></svg>