<svg xmlns="http://www.w3.org/2000/svg" viewBox="0 0 48 48"><linearGradient id="9b4WrDlwVNnNfbeRPimpDa" x1="20.377" x2="34.929" y1="15.177" y2="34.262" gradientUnits="userSpaceOnUse"><stop offset=".008" stop-color="#f44f5a"/><stop offset=".447" stop-color="#ee3d4a"/><stop offset="1" stop-color="#e52030"/></linearGradient><path fill="url(#9b4WrDlwVNnNfbeRPimpDa)" d="M44,24c0-11.046-8.954-20-20-20c-1.37,0-2.707,0.139-4,0.402v39.197	C21.293,43.861,22.63,44,24,44C35.046,44,44,35.046,44,24z"/><linearGradient id="9b4WrDlwVNnNfbeRPimpDb" x1="10.73" x2="19.508" y1="11.964" y2="38.591" gradientUnits="userSpaceOnUse"><stop offset="0" stop-color="#21ad64"/><stop offset="1" stop-color="#088242"/></linearGradient><path fill="url(#9b4WrDlwVNnNfbeRPimpDb)" d="M4,24c0,9.676,6.871,17.745,16,19.598V4.402C10.871,6.255,4,14.324,4,24z"/><path fill="#ffc804" d="M26.234,28.906c-2.402-0.074-13.43-6.93-13.504-8.02l0.609-1.012	c1.094,1.582,12.363,8.25,13.473,8.012L26.234,28.906"/><path d="M26.234,28.926c-1.281-0.035-4.914-1.98-7.637-3.629c-2.809-1.703-5.852-3.809-5.891-4.41c0-0.004,0-0.008,0.004-0.012	l0.609-1.012c0.004-0.008,0.008-0.012,0.02-0.012c0.008,0,0.012,0.004,0.016,0.012c0.563,0.809,3.781,2.934,6.727,4.68	c3.473,2.063,6.234,3.426,6.723,3.324c0.008-0.004,0.02,0,0.023,0.008s0.008,0.016,0,0.023l-0.57,1.016	C26.254,28.922,26.246,28.926,26.234,28.926z M12.754,20.891c0.055,0.504,2.516,2.336,5.867,4.367	c2.707,1.641,6.316,3.57,7.602,3.625l0.547-0.969c-0.695,0.035-3.84-1.629-6.711-3.332c-2.914-1.73-6.098-3.828-6.715-4.668	L12.754,20.891z"/><path fill="#ffc804" d="M13.211,19.738c-0.215,0.578,2.879,2.48,6.598,4.734c3.723,2.254,6.93,3.648,7.168,3.449	c0.016-0.027,0.117-0.203,0.109-0.199c-0.047,0.066-0.156,0.086-0.324,0.039c-1.004-0.289-3.625-1.488-6.875-3.449	c-3.246-1.965-6.07-3.77-6.508-4.539c-0.031-0.051-0.055-0.148-0.051-0.227h-0.012l-0.09,0.164L13.211,19.738z M26.293,28.938	c-0.043,0.074-0.117,0.074-0.262,0.059c-0.898-0.098-3.629-1.422-6.855-3.348c-3.758-2.238-6.863-4.281-6.527-4.813l0.094-0.16	l0.02,0.004c-0.305,0.906,6.121,4.566,6.5,4.797c3.719,2.297,6.855,3.637,7.133,3.289L26.293,28.938z"/><path d="M26.145,29.027c-0.035,0-0.074-0.004-0.117-0.008c-0.918-0.102-3.676-1.445-6.867-3.348	c-4.262-2.543-6.402-4.074-6.551-4.68c-0.016-0.066-0.008-0.125,0.023-0.168l0.09-0.16c0.004-0.012,0.016-0.016,0.027-0.012	l0.016,0.008c0.008,0,0.012,0.004,0.016,0.012c0,0.004,0,0.012,0,0.016c-0.102,0.301,0.578,1.301,6.242,4.625	c0.129,0.074,0.215,0.125,0.25,0.148c3.672,2.266,6.832,3.629,7.102,3.293c0.008-0.012,0.02-0.016,0.031-0.008	c0.008,0.008,0.012,0.02,0.008,0.031l-0.102,0.172h-0.004C26.273,29.012,26.219,29.027,26.145,29.027z M12.727,20.746l-0.059,0.102	c-0.023,0.035-0.027,0.078-0.016,0.133c0.145,0.594,2.281,2.113,6.531,4.648c3.188,1.898,5.938,3.242,6.848,3.344	c0.145,0.016,0.207,0.012,0.242-0.047v-0.004l0.059-0.102c-0.031,0.008-0.07,0.016-0.113,0.016c-0.785,0-3.629-1.281-6.969-3.344	c-0.035-0.02-0.121-0.07-0.25-0.145C14.836,22.906,12.73,21.359,12.727,20.746z M26.902,27.961c-0.586,0-3.609-1.348-7.105-3.469	c-4.004-2.426-6.824-4.188-6.605-4.762v-0.004l0.012-0.023l0.094-0.164c0.004-0.008,0.012-0.012,0.02-0.012h0.012	c0.008,0,0.012,0.004,0.016,0.008s0.008,0.012,0.008,0.016c-0.004,0.07,0.016,0.164,0.043,0.215	c0.465,0.813,3.719,2.844,6.504,4.527c3.055,1.844,5.766,3.129,6.871,3.445c0.145,0.043,0.254,0.035,0.297-0.027	c0-0.008,0.008-0.012,0.012-0.012c0.012,0,0.02,0.004,0.023,0.012c0.012,0.016,0.012,0.016-0.094,0.203l-0.012,0.02	c0,0.004-0.004,0.004-0.004,0.008C26.973,27.953,26.945,27.961,26.902,27.961z M13.23,19.746c-0.211,0.59,3.402,2.777,6.59,4.707	c3.824,2.316,6.902,3.621,7.137,3.453l0.012-0.016c0.02-0.039,0.039-0.07,0.051-0.094c-0.063,0.023-0.156,0.02-0.266-0.012	c-1.105-0.32-3.824-1.605-6.879-3.453c-2.789-1.684-6.051-3.723-6.52-4.543c-0.027-0.043-0.043-0.109-0.051-0.176L13.23,19.746z"/><path fill="#ffc804" d="M20.023,21.547c2.406-0.02,5.375-0.328,7.082-1.008l-0.367-0.594	c-1.008,0.559-3.996,0.922-6.734,0.977c-3.242-0.027-5.531-0.328-6.68-1.098l-0.348,0.637	C15.086,21.348,17.242,21.539,20.023,21.547"/><path d="M20.023,21.57c-2.785-0.008-4.934-0.195-7.055-1.09c-0.008,0-0.012-0.004-0.016-0.012c0-0.004,0-0.012,0.004-0.02	l0.348-0.633c0.004-0.008,0.008-0.012,0.016-0.012c0.004,0,0.012,0,0.02,0.004c1.066,0.715,3.184,1.059,6.664,1.094	c2.477-0.051,5.637-0.379,6.727-0.977c0.008-0.004,0.023,0,0.027,0.008l0.371,0.598c0,0.004,0.004,0.012,0,0.02	c0,0.004-0.008,0.008-0.012,0.012C25.312,21.277,22.27,21.555,20.023,21.57z M13.008,20.449c2.105,0.883,4.246,1.066,7.012,1.074	h0.004c2.23-0.016,5.25-0.285,7.051-0.992l-0.344-0.555c-1.109,0.598-4.258,0.922-6.727,0.969c-3.469-0.031-5.59-0.375-6.672-1.086	L13.008,20.449z"/><path fill="#ffc804" d="M27.207,20.555c-0.059,0.094-1.176,0.477-2.816,0.758c-1.113,0.172-2.566,0.316-4.379,0.316	c-1.723,0.004-3.125-0.121-4.191-0.266c-1.723-0.266-2.613-0.641-2.941-0.773c0.031-0.063,0.051-0.105,0.082-0.164	c0.945,0.375,1.84,0.602,2.887,0.762c1.059,0.141,2.445,0.266,4.16,0.266c1.805-0.004,3.238-0.156,4.348-0.32	c1.684-0.273,2.602-0.621,2.73-0.781L27.207,20.555z M26.883,19.949c-0.184,0.148-1.094,0.469-2.691,0.723	c-1.07,0.152-2.426,0.289-4.16,0.293c-1.648,0-2.996-0.109-4.02-0.262c-1.625-0.211-2.488-0.59-2.801-0.703	c0.031-0.051,0.063-0.105,0.098-0.16c0.242,0.125,1.074,0.461,2.723,0.691c1.012,0.145,2.359,0.25,4,0.25	c1.727-0.004,3.066-0.141,4.129-0.293c1.609-0.219,2.473-0.629,2.605-0.734L26.883,19.949z"/><path d="M19.98,21.652c-1.465,0-2.863-0.09-4.164-0.266c-1.668-0.258-2.57-0.625-2.91-0.762l-0.035-0.016	c-0.008,0-0.012-0.008-0.016-0.012c0-0.008,0-0.012,0.004-0.02c0.012-0.023,0.023-0.047,0.031-0.066	c0.016-0.031,0.031-0.063,0.051-0.098c0.004-0.012,0.016-0.016,0.027-0.012c0.906,0.359,1.797,0.594,2.883,0.762	c1.301,0.176,2.687,0.266,4.125,0.266c0.012,0,0.02,0,0.031,0c1.473,0,2.895-0.109,4.344-0.32c1.664-0.27,2.59-0.613,2.719-0.773	c0.004-0.008,0.008-0.008,0.02-0.008c0.008,0,0.012,0.004,0.016,0.012l0.121,0.203c0.004,0.008,0.004,0.016,0,0.023	c0,0-0.004,0-0.004,0.004c-0.09,0.113-1.238,0.492-2.828,0.766c-1.367,0.207-2.844,0.313-4.379,0.316	C20.004,21.652,19.988,21.652,19.98,21.652z M12.91,20.578l0.012,0.004c0.34,0.137,1.238,0.5,2.902,0.762	c1.297,0.172,2.695,0.262,4.156,0.262c0.008,0,0.023,0,0.031,0c1.539,0,3.008-0.105,4.375-0.316	c1.625-0.277,2.676-0.645,2.793-0.738l-0.098-0.164c-0.184,0.164-1.039,0.496-2.723,0.766c-1.453,0.215-2.875,0.32-4.352,0.32	c-1.449,0.004-2.848-0.086-4.164-0.262c-1.082-0.168-1.969-0.402-2.871-0.758c-0.016,0.027-0.027,0.051-0.039,0.074	C12.926,20.547,12.918,20.559,12.91,20.578z M19.996,20.984c-1.445,0-2.82-0.09-3.984-0.258c-1.438-0.188-2.273-0.504-2.676-0.656	c-0.051-0.02-0.094-0.035-0.129-0.047c-0.008-0.004-0.012-0.008-0.016-0.016c-0.004-0.008,0-0.012,0.004-0.02	c0.031-0.055,0.063-0.105,0.094-0.16c0.008-0.008,0.02-0.012,0.031-0.008c0.141,0.07,0.938,0.438,2.715,0.688	c0.805,0.113,2.137,0.25,3.961,0.25c0.012,0,0.023,0,0.035,0c1.879-0.004,3.254-0.168,4.129-0.293	c1.535-0.211,2.438-0.605,2.594-0.727c0.004-0.004,0.012-0.008,0.016-0.004c0.008,0,0.012,0.004,0.016,0.008l0.117,0.195	c0.004,0.004,0.004,0.008,0.004,0.008c0,0.012-0.004,0.02-0.008,0.023c-0.18,0.141-1.074,0.465-2.703,0.727	c-1.359,0.191-2.723,0.289-4.164,0.289C20.02,20.984,20.008,20.984,19.996,20.984z M13.246,19.988	c0.031,0.012,0.066,0.027,0.105,0.039c0.402,0.152,1.234,0.469,2.664,0.656c1.164,0.168,2.539,0.254,3.98,0.254	c0.012,0,0.023,0,0.035,0c1.438,0,2.797-0.094,4.156-0.289c1.578-0.25,2.457-0.559,2.664-0.703l-0.094-0.156	c-0.172,0.113-1.004,0.504-2.594,0.723c-0.875,0.125-2.25,0.289-4.133,0.293c-0.012,0-0.023,0-0.039,0	c-1.824,0-3.16-0.137-3.965-0.25c-1.719-0.242-2.523-0.594-2.711-0.684C13.293,19.91,13.27,19.949,13.246,19.988z"/><path fill="#ffc804" d="M12.121,24.434c1.48,0.793,4.766,1.195,7.879,1.223c2.832,0.004,6.523-0.438,7.902-1.168	l-0.039-0.793c-0.43,0.672-4.387,1.316-7.895,1.289c-3.508-0.023-6.77-0.563-7.855-1.262L12.121,24.434"/><path d="M20.039,25.68c-0.012,0-0.027,0-0.043,0c-2.754-0.027-6.273-0.359-7.887-1.227c-0.008-0.004-0.012-0.012-0.012-0.02	l-0.008-0.711c0-0.008,0.004-0.016,0.012-0.02s0.016-0.004,0.023,0c1.098,0.703,4.395,1.234,7.844,1.262	c3.477,0.023,7.453-0.621,7.875-1.281c0.004-0.008,0.016-0.012,0.023-0.008c0.012,0.004,0.02,0.012,0.02,0.02l0.039,0.793	c0,0.012-0.004,0.02-0.016,0.023C26.523,25.242,22.828,25.68,20.039,25.68z M12.141,24.422c1.613,0.855,5.113,1.188,7.855,1.211	c2.781,0.004,6.484-0.426,7.883-1.156l-0.035-0.715c-0.594,0.664-4.41,1.273-7.875,1.25c-3.422-0.027-6.695-0.547-7.832-1.246	L12.141,24.422z"/><path fill="#ffc804" d="M27.977,24.32v0.191c-0.207,0.246-1.508,0.617-3.141,0.883c-1.238,0.188-2.859,0.332-4.875,0.332	c-1.914,0-3.441-0.137-4.629-0.316c-1.871-0.273-3.07-0.75-3.309-0.891V24.3c0.723,0.477,2.68,0.828,3.336,0.934	c1.176,0.18,2.695,0.316,4.602,0.316c2.008,0,3.613-0.145,4.848-0.332C25.98,25.051,27.648,24.613,27.977,24.32z M27.977,23.648	v0.188c-0.207,0.25-1.508,0.621-3.137,0.883c-1.242,0.191-2.859,0.336-4.879,0.336c-1.914,0-3.441-0.137-4.625-0.32	c-1.875-0.27-3.07-0.746-3.313-0.887v-0.223c0.723,0.48,2.68,0.828,3.336,0.938c1.176,0.18,2.695,0.313,4.602,0.313	c2.008,0,3.617-0.141,4.848-0.328C25.98,24.379,27.648,23.938,27.977,23.648z"/><path d="M19.961,25.75c-1.695,0-3.25-0.109-4.629-0.316c-1.793-0.262-3.031-0.723-3.32-0.895C12.004,24.535,12,24.527,12,24.52	l0.004-0.219c0-0.012,0.004-0.02,0.012-0.023c0.004-0.004,0.016-0.004,0.02,0.004c0.727,0.48,2.73,0.832,3.328,0.93	c1.367,0.211,2.914,0.316,4.598,0.316c1.781,0,3.41-0.113,4.848-0.332c1.16-0.164,2.824-0.602,3.152-0.891	c0.008-0.004,0.012-0.008,0.02-0.004c0.012,0,0.02,0.012,0.02,0.02v0.191c0,0.004-0.004,0.008-0.004,0.012	c-0.215,0.258-1.543,0.633-3.152,0.891C23.395,25.637,21.754,25.75,19.961,25.75z M12.047,24.508	c0.215,0.117,1.363,0.598,3.289,0.879c1.379,0.211,2.934,0.316,4.625,0.316c1.789,0,3.43-0.109,4.871-0.332	c1.563-0.25,2.898-0.625,3.121-0.867v-0.133c-0.406,0.293-2.012,0.711-3.141,0.871c-1.437,0.219-3.07,0.332-4.852,0.332	c-1.688,0-3.238-0.105-4.605-0.316c-0.59-0.094-2.551-0.441-3.309-0.914v0.164H12.047z M19.965,25.074	c-1.699,0-3.258-0.105-4.633-0.316c-1.793-0.262-3.031-0.723-3.32-0.891c-0.004-0.004-0.008-0.012-0.008-0.012v-0.23	c0-0.008,0.004-0.016,0.012-0.02s0.016-0.004,0.023,0c0.723,0.48,2.73,0.836,3.324,0.934c1.367,0.207,2.914,0.313,4.602,0.313	c1.777,0,3.41-0.109,4.844-0.328c1.164-0.168,2.828-0.602,3.152-0.891c0.008-0.008,0.016-0.008,0.02-0.008	c0.008,0.004,0.012,0.008,0.016,0.012S28,23.645,28,23.648v0.188c0,0-0.004,0.012-0.004,0.016c-0.215,0.258-1.543,0.633-3.152,0.891	C23.398,24.965,21.754,25.074,19.965,25.074z M12.047,23.832c0.215,0.121,1.363,0.602,3.293,0.883	c1.371,0.207,2.93,0.316,4.621,0.316c1.793,0,3.43-0.113,4.875-0.332c1.563-0.254,2.895-0.625,3.117-0.871v-0.133	c-0.406,0.293-2.012,0.711-3.141,0.871c-1.434,0.219-3.066,0.332-4.852,0.332c-1.688,0-3.238-0.105-4.605-0.313	c-0.59-0.098-2.551-0.445-3.309-0.918v0.165H12.047z"/><path fill="#ffc804" d="M19.992,28.77c-3.406-0.023-6.32-0.926-6.937-1.074l0.449,0.699c1.086,0.457,3.934,1.133,6.52,1.059	s4.848-0.273,6.441-1.047l0.461-0.727C25.84,28.191,22.145,28.762,19.992,28.77"/><path d="M19.625,29.484c-2.441,0-5.063-0.621-6.129-1.07c-0.004,0-0.008-0.004-0.012-0.008l-0.449-0.699	c-0.004-0.008-0.004-0.02,0.004-0.027c0.004-0.008,0.016-0.008,0.023-0.008c0.074,0.02,0.18,0.047,0.313,0.082	c0.988,0.266,3.621,0.973,6.617,0.992c2.168-0.008,5.855-0.586,6.926-1.086c0.008-0.004,0.02,0,0.027,0.004	c0.004,0.012,0.008,0.02,0,0.027l-0.461,0.727c0,0.004-0.004,0.008-0.008,0.008c-1.66,0.809-4.082,0.98-6.449,1.051	C19.895,29.48,19.758,29.484,19.625,29.484z M13.52,28.379c1.125,0.469,3.965,1.125,6.504,1.055c2.359-0.07,4.77-0.242,6.426-1.043	l0.418-0.656c-1.156,0.496-4.75,1.051-6.875,1.055c-3.004-0.016-5.641-0.723-6.629-0.988c-0.105-0.031-0.191-0.055-0.258-0.07	L13.52,28.379z"/><path fill="#ffc804" d="M26.637,28.246c-0.066,0.102-0.137,0.203-0.207,0.305c-0.75,0.262-1.934,0.539-2.434,0.621	c-1.02,0.207-2.602,0.363-4,0.363c-3.016-0.043-5.484-0.633-6.645-1.133l-0.094-0.16l0.012-0.023l0.16,0.059	c2.066,0.738,4.383,1.031,6.582,1.082c1.395,0.008,2.793-0.156,3.922-0.359c1.734-0.348,2.434-0.605,2.648-0.727L26.637,28.246z M27.035,27.59c0.004,0,0.004,0.004,0.008,0.004c-0.051,0.086-0.105,0.172-0.156,0.262c-0.402,0.141-1.488,0.457-3.078,0.68	c-1.047,0.141-1.695,0.281-3.777,0.32c-3.902-0.098-6.43-0.859-7.027-1.047l-0.09-0.168c2.262,0.586,4.57,0.996,7.117,1.039	c1.902-0.039,2.715-0.18,3.75-0.32c1.855-0.289,2.785-0.594,3.066-0.68c-0.004-0.004-0.008-0.008-0.012-0.016L27.035,27.59z"/><path d="M19.996,29.559c-3.074-0.047-5.508-0.641-6.656-1.137c-0.004,0-0.008-0.004-0.008-0.008l-0.094-0.16	c-0.004-0.008-0.004-0.016,0-0.023l0.016-0.023c0.004-0.012,0.016-0.012,0.023-0.012l0.16,0.063c1.844,0.656,4.055,1.02,6.574,1.082	c1.535,0.008,2.977-0.195,3.918-0.359c1.934-0.387,2.512-0.652,2.641-0.723l0.055-0.031c0.012-0.004,0.02-0.004,0.027,0.004	s0.008,0.02,0.004,0.027c-0.07,0.105-0.141,0.211-0.207,0.305c-0.004,0.004-0.008,0.008-0.012,0.008	c-0.746,0.262-1.926,0.539-2.441,0.621C22.937,29.41,21.328,29.559,19.996,29.559z M13.363,28.387	c1.238,0.531,3.766,1.086,6.633,1.129c1.332-0.004,2.938-0.148,3.996-0.367c0.512-0.082,1.68-0.355,2.426-0.617	c0.051-0.07,0.102-0.145,0.152-0.223c-0.172,0.086-0.789,0.348-2.633,0.715c-0.941,0.168-2.387,0.363-3.926,0.359	c-2.523-0.059-4.742-0.422-6.59-1.082l-0.137-0.055L13.363,28.387z M20.031,28.875c-3.484-0.086-5.902-0.691-7.035-1.047	c-0.004,0-0.008-0.004-0.012-0.012l-0.09-0.168c-0.004-0.008-0.004-0.016,0.004-0.023c0.004-0.008,0.012-0.012,0.023-0.008	c2.582,0.672,4.84,1,7.109,1.039c1.695-0.035,2.531-0.152,3.418-0.273c0.109-0.016,0.219-0.031,0.332-0.047	c1.785-0.277,2.723-0.57,3.031-0.668c0-0.004,0-0.008,0-0.012c0.004-0.004,0.008-0.012,0.016-0.012l0.199-0.078	c0.012-0.004,0.023,0,0.027,0.012l0.004,0.004c0.004,0.008,0.004,0.016,0,0.023c-0.051,0.086-0.102,0.172-0.156,0.258	c-0.004,0.004-0.008,0.008-0.012,0.012c-0.535,0.191-1.664,0.484-3.078,0.68c-0.156,0.023-0.301,0.043-0.445,0.063	C22.531,28.738,21.809,28.844,20.031,28.875z M13.02,27.789c1.133,0.355,3.539,0.953,7.012,1.043	c1.773-0.035,2.496-0.137,3.332-0.258c0.145-0.02,0.289-0.039,0.441-0.063c1.406-0.195,2.527-0.484,3.066-0.676	c0.043-0.07,0.086-0.141,0.125-0.207l-0.125,0.047c0,0.004,0,0.008-0.004,0.012c0,0.008-0.004,0.012-0.012,0.012l-0.031,0.012	c-0.309,0.098-1.246,0.391-3.039,0.668c-0.109,0.016-0.219,0.031-0.328,0.047c-0.887,0.121-1.727,0.238-3.426,0.273	c-2.258-0.035-4.508-0.363-7.074-1.027L13.02,27.789z"/><path fill="#ffc804" d="M19.98,16.172c-4.336,0-7.875,3.516-7.875,7.824s3.539,7.824,7.875,7.824s7.902-3.516,7.902-7.824	S24.316,16.172,19.98,16.172z M25.02,28.926c-1.305,1.246-3.035,2.051-5.059,2.09c-2.258,0.039-4.387-1.426-4.957-2.07	c-1.117-1.258-2.027-2.859-2.055-5.016c0.137-2.434,1.098-4.129,2.488-5.293c1.391-1.16,3.242-1.727,4.785-1.688	c1.777,0.047,3.855,0.914,5.293,2.641c0.941,1.133,1.348,2.359,1.563,4.219C27.09,26.039,25.941,28.039,25.02,28.926z"/><path d="M20,31.867c-4.355,0-7.902-3.531-7.902-7.875c0-4.34,3.547-7.871,7.902-7.871c4.359,0,7.902,3.531,7.902,7.871	C27.902,28.336,24.359,31.867,20,31.867z M20,16.168c-4.332,0-7.855,3.512-7.855,7.824c0,4.316,3.523,7.828,7.855,7.828	s7.859-3.512,7.859-7.828C27.859,19.68,24.332,16.168,20,16.168z M20,31.695c-2.051,0-3.988-0.805-5.453-2.262	c-1.469-1.461-2.273-3.391-2.273-5.438s0.805-3.98,2.273-5.438c1.465-1.461,3.402-2.262,5.453-2.262s3.988,0.801,5.453,2.262	c1.469,1.457,2.277,3.391,2.277,5.438s-0.809,3.977-2.277,5.438C23.988,30.891,22.051,31.695,20,31.695z M20,16.34	c-4.234,0-7.684,3.434-7.684,7.656c0,4.219,3.449,7.652,7.684,7.652c4.238,0,7.684-3.434,7.684-7.652	C27.684,19.773,24.238,16.34,20,16.34z"/><path d="M20.008,31.199c-1.922,0-3.738-0.75-5.109-2.117c-1.375-1.367-2.133-3.176-2.133-5.094s0.758-3.727,2.133-5.094	c1.371-1.367,3.187-2.121,5.109-2.121s3.734,0.754,5.109,2.121c1.371,1.367,2.129,3.176,2.129,5.094s-0.758,3.727-2.129,5.094	C23.742,30.449,21.93,31.199,20.008,31.199z M20.008,16.82c-3.969,0-7.195,3.215-7.195,7.168s3.227,7.168,7.195,7.168	c3.965,0,7.195-3.215,7.195-7.168S23.977,16.82,20.008,16.82z M20.008,31.027c-1.875,0-3.648-0.734-4.988-2.066	c-1.34-1.336-2.078-3.102-2.078-4.973s0.738-3.637,2.078-4.973c1.34-1.332,3.113-2.066,4.988-2.066s3.645,0.734,4.984,2.066	c1.344,1.336,2.082,3.102,2.082,4.973s-0.738,3.637-2.082,4.973C23.652,30.293,21.883,31.027,20.008,31.027z M20.008,16.992	c-3.871,0-7.023,3.137-7.023,6.996c0,3.855,3.152,6.992,7.023,6.992s7.02-3.137,7.02-6.992	C27.027,20.129,23.879,16.992,20.008,16.992z"/><path fill="#ffc804" d="M20.324,16.113h-0.676l0.004,15.773h0.676L20.324,16.113z"/><path d="M20.328,31.906h-0.68c-0.012,0-0.02-0.008-0.02-0.02l-0.004-15.773c0,0,0.004-0.012,0.008-0.016s0.012-0.008,0.016-0.008	h0.676c0.012,0,0.023,0.008,0.023,0.023l0.004,15.773c0,0-0.004,0.012-0.008,0.016S20.336,31.906,20.328,31.906z M19.672,31.863	h0.633l-0.004-15.727h-0.629V31.863z"/><path fill="#ffc804" d="M20.258,16.023h0.172v15.953h-0.172V16.023z M19.586,16.023h0.176v15.953h-0.176V16.023z"/><path d="M19.762,32H19.59c-0.016,0-0.023-0.012-0.023-0.023V16.023c0-0.012,0.008-0.027,0.023-0.023h0.172	c0.012,0,0.023,0.012,0.023,0.023v15.953c0,0-0.004,0.012-0.008,0.016S19.766,32,19.762,32z M19.609,31.953h0.129V16.047h-0.129	V31.953z M20.43,32h-0.172c-0.012,0-0.023-0.012-0.023-0.023V16.023c0,0,0.004-0.012,0.008-0.016S20.25,16,20.258,16h0.172	c0.012,0,0.023,0.012,0.023,0.023v15.953c0,0-0.004,0.012-0.008,0.016S20.437,32,20.43,32z M20.281,31.953h0.125V16.047h-0.125	V31.953z"/><path fill="#ffc804" d="M27.887,24.297v-0.582l-0.477-0.441l-2.707-0.715l-3.898-0.395l-4.699,0.238l-3.34,0.793	l-0.676,0.496v0.586l1.711-0.766l4.059-0.633h3.898l2.863,0.316l1.992,0.477L27.887,24.297z"/><path d="M27.887,24.32c-0.004,0-0.008,0-0.012,0l-1.273-0.629l-1.984-0.477l-2.859-0.316h-3.898l-4.051,0.633l-1.707,0.766	c-0.008,0.004-0.016,0.004-0.023-0.004c-0.008-0.004-0.012-0.012-0.012-0.02v-0.582c0-0.008,0.004-0.012,0.012-0.016l0.676-0.5	c0,0,0.004-0.004,0.008-0.004l3.34-0.793l4.703-0.238l3.902,0.395l2.707,0.715c0.004,0.004,0.008,0.004,0.012,0.008l0.477,0.441	c0.004,0.004,0.008,0.008,0.008,0.016v0.582c0,0.008-0.004,0.016-0.012,0.02C27.895,24.32,27.891,24.32,27.887,24.32z M21.758,22.855l2.871,0.316l1.988,0.477l1.246,0.613v-0.535l-0.465-0.434l-2.699-0.711l-3.895-0.398l-4.695,0.238l-3.332,0.793	l-0.664,0.488v0.535l1.68-0.75h0.004l4.059-0.637L21.758,22.855z"/><path fill="#ffc804" d="M20.004,22.777c1.859,0,3.668,0.176,5.098,0.453c1.48,0.297,2.52,0.664,2.875,1.078v0.203	c-0.43-0.516-1.828-0.891-2.906-1.105c-1.422-0.273-3.215-0.453-5.066-0.449c-1.953,0.004-3.77,0.188-5.172,0.457	c-1.121,0.223-2.621,0.664-2.809,1.102v-0.215c0.102-0.301,1.219-0.75,2.785-1.063C16.219,22.965,18.039,22.781,20.004,22.777z M20.004,22.105c1.863-0.004,3.668,0.176,5.102,0.453c1.477,0.293,2.516,0.664,2.871,1.078v0.203	c-0.43-0.516-1.828-0.891-2.906-1.105c-1.422-0.277-3.215-0.453-5.063-0.453c-1.953,0.004-3.766,0.191-5.164,0.461	c-1.086,0.207-2.645,0.664-2.82,1.102v-0.215c0.105-0.297,1.242-0.766,2.785-1.063C16.219,22.289,18.039,22.109,20.004,22.105z"/><path d="M12.023,24.535c-0.004,0-0.004,0-0.004,0c-0.012,0-0.02-0.012-0.02-0.02V24.3v-0.004c0.109-0.324,1.289-0.777,2.801-1.082	c1.508-0.293,3.355-0.453,5.203-0.457v0.023v-0.023c0.016,0,0.035,0,0.055,0c1.746,0,3.539,0.16,5.047,0.453	c1.543,0.309,2.543,0.684,2.887,1.082c0.004,0.004,0.008,0.012,0.004,0.016v0.207c0,0.008-0.004,0.016-0.012,0.02	c-0.012,0.004-0.02,0-0.027-0.008c-0.453-0.543-2.008-0.922-2.891-1.098c-1.5-0.293-3.277-0.449-5.012-0.449	c-0.016,0-0.035,0-0.051,0c-1.824,0-3.66,0.164-5.168,0.457c-1.223,0.242-2.621,0.688-2.793,1.086	C12.039,24.531,12.031,24.535,12.023,24.535z M20.055,22.934c1.738,0,3.52,0.16,5.02,0.449c0.867,0.176,2.371,0.539,2.879,1.07	v-0.137c-0.344-0.391-1.332-0.758-2.855-1.063c-1.523-0.293-3.332-0.457-5.094-0.453c-1.844,0.004-3.688,0.168-5.191,0.457	c-1.672,0.336-2.672,0.789-2.766,1.047v0.125c0.332-0.449,1.879-0.859,2.781-1.039c1.512-0.293,3.348-0.457,5.176-0.457	C20.023,22.934,20.039,22.934,20.055,22.934z M12.023,23.863H12.02c-0.012,0-0.02-0.012-0.02-0.02v-0.215c0,0,0-0.004,0.004-0.008	c0.109-0.324,1.316-0.789,2.801-1.078c1.504-0.293,3.352-0.457,5.199-0.457c1.766-0.004,3.578,0.156,5.105,0.453	c1.543,0.305,2.539,0.68,2.883,1.082C27.996,23.625,28,23.629,28,23.637v0.203c0,0.012-0.008,0.02-0.016,0.02	c-0.008,0.004-0.02,0.004-0.023-0.004c-0.453-0.547-2.008-0.922-2.895-1.102c-1.512-0.293-3.309-0.453-5.059-0.449	c-1.82,0.004-3.652,0.168-5.16,0.461c-1.242,0.234-2.645,0.695-2.801,1.086C12.039,23.859,12.031,23.863,12.023,23.863z M20.059,22.262c1.738,0,3.516,0.16,5.016,0.449c0.867,0.172,2.371,0.539,2.879,1.07v-0.137c-0.344-0.391-1.332-0.758-2.855-1.063	c-1.523-0.297-3.332-0.461-5.094-0.453c-1.844,0.004-3.688,0.164-5.191,0.457c-1.609,0.313-2.668,0.773-2.766,1.047v0.121	c0.316-0.43,1.809-0.848,2.789-1.035c1.512-0.293,3.348-0.457,5.168-0.461C20.023,22.262,20.039,22.262,20.059,22.262z"/><path fill="#ffc804" d="M19.969,18.672c2.93-0.016,5.488,0.406,6.66,1.008l0.426,0.734c-1.016-0.547-3.777-1.113-7.082-1.027	c-2.695,0.016-5.574,0.293-7.02,1.063l0.512-0.852C14.648,18.984,17.445,18.676,19.969,18.672"/><path d="M12.953,20.469c-0.008,0-0.012,0-0.016-0.004c-0.008-0.008-0.008-0.02-0.004-0.027l0.508-0.852	c0.004-0.004,0.008-0.008,0.012-0.008c1.234-0.637,4.156-0.926,6.512-0.93c0,0,0,0,0.004,0c2.824-0.012,5.441,0.383,6.668,1.008	c0.004,0.004,0.008,0.004,0.012,0.008l0.426,0.738c0.004,0.008,0.004,0.02-0.004,0.027c-0.008,0.008-0.016,0.008-0.027,0.004	c-1.066-0.574-3.836-1.109-7.07-1.027c-1.895,0.012-5.324,0.164-7.008,1.063C12.961,20.469,12.957,20.469,12.953,20.469z M13.48,19.613l-0.465,0.777c1.715-0.867,5.082-1.02,6.957-1.031c3.172-0.078,5.902,0.438,7.023,0.996l-0.383-0.66	c-1.227-0.621-3.828-1.016-6.645-1C17.621,18.699,14.711,18.984,13.48,19.613z"/><path fill="#ffc804" d="M20.008,19.277c1.672-0.004,3.289,0.09,4.57,0.324c1.199,0.219,2.34,0.555,2.504,0.734l0.129,0.223	c-0.398-0.258-1.387-0.547-2.656-0.785c-1.273-0.238-2.887-0.32-4.551-0.313c-1.887-0.008-3.355,0.09-4.613,0.309	c-1.332,0.25-2.254,0.602-2.484,0.77l0.125-0.234c0.441-0.223,1.145-0.496,2.324-0.707C16.656,19.359,18.141,19.289,20.008,19.277z M20.004,18.605c1.602-0.004,3.184,0.086,4.414,0.305c0.973,0.188,1.934,0.484,2.285,0.746l0.184,0.293	c-0.316-0.348-1.5-0.68-2.543-0.863c-1.227-0.211-2.738-0.293-4.34-0.309c-1.68,0.008-3.23,0.109-4.438,0.328	c-1.148,0.219-1.891,0.477-2.203,0.676l0.16-0.246c0.434-0.227,1.133-0.434,2.016-0.605C16.754,18.711,18.316,18.609,20.004,18.605z"/><path d="M27.207,20.578c-0.004,0-0.008,0-0.012-0.004c-0.387-0.254-1.352-0.539-2.645-0.781c-1.137-0.211-2.664-0.316-4.547-0.313	c-1.887-0.008-3.352,0.09-4.609,0.309c-1.324,0.25-2.246,0.598-2.473,0.77c-0.012,0.004-0.023,0.004-0.031,0	c-0.008-0.008-0.008-0.02-0.004-0.031l0.125-0.234c0-0.004,0.004-0.008,0.008-0.012c0.598-0.301,1.363-0.535,2.332-0.707	c1.18-0.215,2.527-0.309,4.656-0.32c1.801-0.004,3.383,0.105,4.578,0.32c1.219,0.227,2.348,0.563,2.516,0.742l0.129,0.227	c0.004,0.012,0,0.023-0.004,0.027C27.219,20.578,27.215,20.578,27.207,20.578z M20.129,19.434c1.828,0,3.316,0.105,4.43,0.316	c1.223,0.23,2.152,0.496,2.586,0.742l-0.082-0.148c-0.156-0.168-1.297-0.5-2.488-0.723c-1.191-0.215-2.773-0.324-4.57-0.32	c-2.121,0.012-3.469,0.105-4.645,0.32c-0.965,0.172-1.723,0.402-2.313,0.703l-0.082,0.152c0.32-0.184,1.199-0.5,2.418-0.73	c1.262-0.219,2.73-0.316,4.621-0.309C20.047,19.434,20.086,19.434,20.129,19.434z M26.887,19.973c-0.004,0-0.012-0.004-0.016-0.008	c-0.324-0.359-1.566-0.688-2.531-0.855c-1.113-0.191-2.531-0.293-4.336-0.309c-1.75,0.008-3.285,0.117-4.434,0.328	c-1.016,0.191-1.84,0.441-2.195,0.672c-0.008,0.008-0.02,0.004-0.027-0.004s-0.012-0.02-0.004-0.027l0.164-0.246	c0,0,0.004-0.004,0.008-0.008c0.43-0.223,1.125-0.434,2.02-0.605c1.145-0.211,2.691-0.32,4.469-0.324	c1.75-0.008,3.273,0.098,4.418,0.305c1.043,0.203,1.965,0.504,2.293,0.75c0.004,0,0.004,0.004,0.008,0.004l0.184,0.293	c0.004,0.012,0.004,0.023-0.008,0.031C26.898,19.969,26.895,19.973,26.887,19.973z M20.004,18.758	c1.809,0.012,3.23,0.113,4.344,0.305c0.879,0.156,1.988,0.441,2.438,0.766l-0.102-0.156c-0.328-0.242-1.238-0.539-2.27-0.738	c-1.141-0.203-2.668-0.313-4.41-0.305c-1.777,0.004-3.32,0.117-4.461,0.324c-0.883,0.168-1.574,0.379-2.004,0.602l-0.102,0.156	c0.395-0.219,1.176-0.449,2.125-0.629C16.715,18.875,18.25,18.762,20.004,18.758z"/><path fill="#ffc804" d="M23.922,27.258c-1.453-0.27-2.902-0.309-3.918-0.297c-4.887,0.055-6.469,1-6.66,1.285l-0.363-0.594	c1.242-0.898,3.906-1.402,7.047-1.352c1.633,0.027,3.043,0.137,4.23,0.363L23.922,27.258"/><path d="M13.344,28.27c-0.008,0-0.016-0.004-0.02-0.012l-0.363-0.594c-0.008-0.012-0.004-0.023,0.004-0.031	c1.25-0.898,3.891-1.406,7.066-1.355c1.723,0.031,3.109,0.148,4.23,0.367c0.008,0,0.012,0.004,0.016,0.012s0.004,0.016,0,0.02	l-0.336,0.594c-0.008,0.008-0.02,0.012-0.027,0.008c-1.148-0.211-2.465-0.313-3.91-0.293c-4.758,0.055-6.43,0.961-6.641,1.273	C13.359,28.266,13.352,28.27,13.344,28.27z M13.012,27.66l0.336,0.547c0.289-0.344,2.012-1.215,6.656-1.27	c1.441-0.016,2.758,0.082,3.902,0.293l0.316-0.551c-1.117-0.211-2.488-0.328-4.195-0.355C16.879,26.273,14.258,26.77,13.012,27.66z"/><path fill="#ffc804" d="M19.977,26.879c1.359,0.02,2.691,0.074,3.98,0.313l-0.094,0.164	c-1.195-0.219-2.473-0.305-3.883-0.297c-1.805-0.012-3.629,0.156-5.215,0.609c-0.504,0.137-1.332,0.461-1.418,0.723l-0.09-0.152	c0.023-0.156,0.527-0.48,1.465-0.742C16.539,26.977,18.242,26.891,19.977,26.879z M20.035,26.195c1.41,0.027,2.863,0.09,4.277,0.371	l-0.098,0.168c-1.277-0.25-2.496-0.336-4.172-0.359c-1.809,0.004-3.727,0.133-5.473,0.637c-0.563,0.164-1.535,0.516-1.566,0.797	l-0.094-0.164c0.02-0.254,0.863-0.586,1.617-0.805C16.289,26.328,18.215,26.199,20.035,26.195z"/><path d="M13.348,28.414c-0.008,0-0.016-0.004-0.02-0.012l-0.094-0.152c0-0.004-0.004-0.008-0.004-0.008	c0.031-0.184,0.563-0.512,1.484-0.77c1.738-0.496,3.359-0.605,5.258-0.617c0.004,0,0.004,0,0.004,0	c1.289,0.02,2.664,0.07,3.984,0.316c0.008,0,0.012,0.004,0.016,0.012c0.004,0.004,0.004,0.012,0,0.02l-0.094,0.164	c-0.004,0.008-0.016,0.012-0.023,0.012c-1.125-0.207-2.395-0.309-3.879-0.297c-1.996-0.02-3.75,0.188-5.211,0.605	c-0.535,0.148-1.324,0.469-1.402,0.711c-0.004,0.008-0.008,0.016-0.016,0.016C13.351,28.414,13.348,28.414,13.348,28.414z M13.277,28.234l0.066,0.109c0.152-0.266,0.93-0.566,1.414-0.699c1.465-0.418,3.223-0.625,5.223-0.609	c1.48-0.004,2.746,0.09,3.871,0.297l0.07-0.125c-1.309-0.238-2.668-0.289-3.949-0.309c-1.895,0.012-3.512,0.125-5.246,0.617	C13.793,27.777,13.316,28.094,13.277,28.234z M13.004,27.828c-0.008,0-0.016-0.004-0.02-0.008l-0.094-0.164	c0-0.004-0.004-0.008-0.004-0.012c0.027-0.336,1.262-0.715,1.637-0.824c1.504-0.438,3.254-0.641,5.512-0.645	c1.379,0.023,2.852,0.086,4.281,0.371c0.008,0,0.012,0.004,0.016,0.012c0.004,0.004,0.004,0.012,0,0.02l-0.098,0.168	c-0.004,0.012-0.012,0.016-0.023,0.012c-1.355-0.266-2.645-0.336-4.168-0.359c-2.242,0.004-3.98,0.203-5.465,0.633	c-0.73,0.215-1.527,0.547-1.555,0.781c0,0.008-0.008,0.016-0.016,0.016h-0.003V27.828z M12.934,27.641l0.063,0.113	c0.16-0.348,1.418-0.723,1.57-0.766c1.488-0.43,3.23-0.633,5.48-0.637c1.516,0.023,2.805,0.094,4.156,0.359l0.074-0.129	c-1.414-0.277-2.875-0.34-4.242-0.363c-2.254,0.004-4,0.207-5.5,0.641C13.59,27.137,12.961,27.438,12.934,27.641z"/><path fill="#ffc804" d="M26.977,27.742l-0.586,0.91l-1.688-1.496l-4.375-2.93l-4.934-2.695l-2.563-0.875l0.547-1.008	l0.184-0.102l1.59,0.398l5.254,2.695l3.023,1.902l2.547,1.82l1.035,1.191L26.977,27.742z"/><path d="M26.391,28.672c-0.004,0-0.012,0-0.016-0.004l-1.688-1.492l-4.375-2.934l-4.93-2.691l-2.559-0.871	c-0.008-0.004-0.012-0.008-0.016-0.016c0-0.004,0-0.012,0-0.02l0.547-1.008c0.004-0.004,0.004-0.004,0.008-0.008l0.188-0.102	c0.004-0.004,0.012-0.004,0.016,0l1.59,0.395l5.258,2.695l3.027,1.906l2.547,1.824l1.039,1.191c0.008,0.008,0.008,0.012,0.008,0.02	L27,27.746c0,0.004,0,0.008-0.004,0.012l-0.586,0.906c-0.004,0.008-0.008,0.008-0.016,0.012	C26.395,28.672,26.391,28.672,26.391,28.672z M12.863,20.645l2.535,0.863l4.937,2.695l4.379,2.934l1.672,1.477l0.57-0.879	l0.031-0.172l-1.027-1.184l-2.543-1.82l-3.023-1.902l-5.25-2.691l-1.578-0.395l-0.172,0.094L12.863,20.645z"/><path fill="#ffc804" d="M12.738,20.68c0.449-0.305,3.75,1.164,7.207,3.238c3.445,2.078,6.738,4.434,6.441,4.871l-0.098,0.152	l-0.047,0.035c0.012-0.004,0.063-0.066-0.004-0.23c-0.145-0.48-2.48-2.336-6.355-4.668c-3.781-2.242-6.93-3.598-7.242-3.211	L12.738,20.68z M27.098,27.73c0.285-0.559-2.777-2.859-6.574-5.094c-3.887-2.195-6.684-3.484-7.195-3.102l-0.113,0.207	c-0.004,0.012,0.004-0.016,0.027-0.031c0.094-0.082,0.246-0.078,0.316-0.078c0.879,0.012,3.395,1.164,6.922,3.18	c1.547,0.898,6.535,4.082,6.516,4.977c0,0.078,0.004,0.094-0.023,0.133L27.098,27.73z"/><path d="M26.242,29c-0.004,0-0.012-0.004-0.016-0.008c-0.008-0.012-0.008-0.023,0.004-0.031c0.004-0.004,0.047-0.055-0.012-0.203	c-0.152-0.496-2.621-2.418-6.352-4.66c-3.961-2.355-6.926-3.563-7.211-3.215c-0.008,0.008-0.02,0.012-0.031,0.004	c-0.008-0.004-0.012-0.02-0.008-0.027l0.102-0.188c0-0.004,0.004-0.008,0.004-0.012c0.473-0.316,3.785,1.168,7.234,3.238	c3.102,1.875,6.32,4.117,6.465,4.781c0.012,0.051,0.004,0.09-0.016,0.125l-0.098,0.152c0,0.004-0.004,0.004-0.004,0.008	l-0.047,0.031V29C26.254,29,26.25,29,26.242,29z M12.852,20.785c0.867,0,3.793,1.348,7.043,3.273	c3.785,2.281,6.211,4.172,6.367,4.684c0.023,0.063,0.035,0.113,0.035,0.152l0.07-0.117c0.016-0.023,0.02-0.051,0.012-0.09	c-0.141-0.645-3.426-2.93-6.445-4.75c-3.363-2.023-6.711-3.535-7.176-3.242l-0.059,0.109C12.738,20.789,12.789,20.785,12.852,20.785	z M26.973,27.945c-0.004,0-0.008,0-0.012-0.004c-0.012-0.008-0.016-0.02-0.008-0.031l0.012-0.02c0.008-0.016,0.008-0.031,0.008-0.07	v-0.027c0.02-0.895-5.063-4.125-6.5-4.957c-3.516-2.008-6.035-3.168-6.914-3.18h-0.02c-0.07,0-0.203,0-0.281,0.07	c-0.016,0.008-0.02,0.02-0.023,0.027s-0.02,0.016-0.027,0.012c-0.012,0-0.02-0.016-0.016-0.027c0,0,0-0.004,0-0.008l0.117-0.207	l0.004-0.004c0.613-0.465,4.266,1.426,7.223,3.098c3.43,2.02,6.902,4.5,6.582,5.125l-0.113,0.172	c-0.004,0.008-0.008,0.016-0.016,0.023C26.984,27.941,26.98,27.945,26.973,27.945z M13.559,19.609	c0.887,0.012,3.414,1.172,6.934,3.184c1.02,0.59,6.547,4.02,6.523,4.996v0.023l0.063-0.094c0.258-0.516-2.625-2.742-6.566-5.066	c-4.152-2.34-6.695-3.441-7.168-3.102l-0.059,0.102c0.086-0.043,0.191-0.043,0.254-0.043C13.54,19.609,13.559,19.609,13.559,19.609z"/><path fill="#fff" d="M15.281,24.859c0,1.289,0.531,2.457,1.391,3.309c0.859,0.855,2.027,1.395,3.324,1.395	c1.305,0,2.488-0.527,3.344-1.379c0.859-0.852,1.391-2.027,1.391-3.32v-6.277l-9.453-0.012L15.281,24.859z"/><path fill="#ef414d" d="M15.457,24.867v0.004c0,1.234,0.512,2.355,1.336,3.172s1.957,1.324,3.199,1.324	c1.246,0,2.379-0.504,3.199-1.316s1.332-1.938,1.332-3.176v-6.09h-9.062L15.457,24.867 M22.699,20.605v4.289	c0,0.105-0.008,0.23-0.02,0.336c-0.074,0.613-0.359,1.145-0.777,1.559c-0.492,0.488-1.168,0.789-1.914,0.789	c-0.742,0-1.402-0.313-1.895-0.801c-0.504-0.5-0.797-1.188-0.797-1.898l-0.004-4.281L22.699,20.605z"/><path fill="#ffc804" d="M17.715,26.656c-0.023-0.02-0.059-0.023-0.074-0.004l-0.914,0.914	c-0.016,0.02-0.016,0.055,0.008,0.074c0.02,0.023,0.055,0.023,0.074,0.004l0.91-0.914C17.738,26.715,17.734,26.68,17.715,26.656z"/><path fill="#ffc804" d="M16.578,26.684l-0.066,0.07l0.109,0.109c0.02,0.02,0.047,0.016,0.063,0l0.25-0.25	c0.016-0.016,0.016-0.043,0-0.059l-0.113-0.113l-0.074,0.07l0.051,0.051l-0.051,0.051L16.7,26.562l-0.07,0.07l0.047,0.051	l-0.047,0.051L16.578,26.684z"/><path fill="#ffc804" d="M17.301,26.988l-0.379-0.344l-0.211,0.211l0.348,0.375L17.301,26.988z"/><path fill="#ffc804" d="M17.098,24.078c0-0.031-0.023-0.063-0.051-0.063h-0.348c-0.004-0.027-0.012-0.047-0.016-0.07	c0.004,0.027,0.016,0.043,0.016,0.07h0.332l-0.059-0.488h0.016c0.027,0,0.047-0.023,0.047-0.055s-0.02-0.059-0.047-0.059h-1.234	c-0.027,0-0.047,0.027-0.047,0.059s0.02,0.055,0.047,0.055h0.02l-0.055,0.488h0.332h-0.352c-0.027,0-0.055,0.031-0.055,0.063	c0,0.035,0.023,0.063,0.055,0.063h1.348C17.074,24.141,17.098,24.113,17.098,24.078z M16.164,23.68	c-0.055,0.074-0.098,0.176-0.109,0.32C16.059,23.848,16.105,23.75,16.164,23.68z"/><path fill="#ffc804" d="M15.68,23.359c0,0.031,0.02,0.055,0.047,0.055h1.293c0.027,0,0.051-0.023,0.051-0.055	S17.051,23.3,17.02,23.3h-1.293C15.699,23.301,15.68,23.328,15.68,23.359z"/><path fill="#ffc804" d="M16.152,22.574v0.16c0,0.023,0.023,0.039,0.047,0.039h0.352c0.023,0,0.043-0.016,0.043-0.039v-0.16	h-0.102v0.07h-0.07v-0.07h-0.098v0.07h-0.07v-0.066L16.152,22.574z"/><path fill="#ffc804" d="M16.199,23.301h0.344l-0.023-0.512l-0.297-0.004L16.199,23.301z"/><path fill="#ffc804" d="M15.785,23.301h0.328l-0.008-0.273h-0.309L15.785,23.301z"/><path fill="#ffc804" d="M16.629,23.301h0.328l-0.008-0.273H16.64L16.629,23.301z"/><path fill="#ffc804" d="M15.734,22.824v0.16c0,0.023,0.02,0.043,0.043,0.043h0.344c0.023,0,0.043-0.016,0.043-0.043v-0.16	h-0.098v0.074h-0.07v-0.07h-0.098v0.07h-0.07v-0.07L15.734,22.824z"/><path fill="#ffc804" d="M16.578,22.824v0.16c0,0.023,0.023,0.043,0.047,0.043h0.344c0.023,0,0.043-0.016,0.043-0.043v-0.16	h-0.098v0.074h-0.07v-0.07h-0.098v0.07h-0.07v-0.07L16.578,22.824z"/><path fill="#ffc804" d="M16.77,27.527L17,27.293l-0.203-0.188l-0.219,0.219L16.77,27.527z"/><path fill="#ffc804" d="M17.594,26.695l-0.203-0.184l-0.215,0.215l0.188,0.203L17.594,26.695z"/><path fill="#ffc804" d="M16.809,27.035l-0.113-0.113l-0.066,0.066l0.051,0.051L16.63,27.09l-0.051-0.051l-0.066,0.07	l0.047,0.047l-0.047,0.051l-0.051-0.051l-0.066,0.07l0.113,0.109c0.016,0.016,0.043,0.016,0.059,0l0.242-0.246	C16.824,27.078,16.828,27.051,16.809,27.035z"/><path fill="#ffc804" d="M17.105,26.613l-0.047-0.051l-0.07,0.066l0.113,0.113c0.016,0.016,0.047,0.012,0.063-0.004	l0.242-0.242c0.016-0.016,0.016-0.043,0-0.059l-0.113-0.113l-0.07,0.07l0.051,0.051l-0.047,0.047l-0.051-0.051l-0.07,0.07	l0.051,0.051L17.105,26.613z"/><path fill="#ffc804" d="M18.168,27.137l-0.246,0.25c-0.023-0.02-0.039-0.027-0.063-0.043c0.023,0.016,0.039,0.02,0.063,0.039	l0.23-0.234l-0.387-0.305l0.012-0.012c0.02-0.02,0.016-0.051-0.004-0.074c-0.023-0.02-0.055-0.023-0.074-0.004l-0.871,0.875	c-0.02,0.016-0.016,0.051,0.008,0.07c0.02,0.023,0.055,0.023,0.07,0.008l0.016-0.016l0.309,0.383l0.234-0.23l-0.246,0.246	c-0.023,0.02-0.02,0.059,0.008,0.082c0.023,0.023,0.059,0.027,0.078,0.008l0.949-0.953c0.02-0.023,0.02-0.059-0.008-0.082	C18.223,27.121,18.187,27.117,18.168,27.137z M17.305,27.527c0.016,0.086,0.055,0.188,0.145,0.293	C17.352,27.715,17.316,27.613,17.305,27.527z"/><path fill="#ffc804" d="M16.578,19.152v0.16c0,0.023,0.023,0.043,0.047,0.043h0.344c0.023,0,0.043-0.016,0.043-0.043v-0.16	h-0.098v0.07h-0.07v-0.07h-0.098v0.07h-0.07v-0.066L16.578,19.152z"/><path fill="#ffc804" d="M15.777,19.352h0.344c0.023,0,0.043-0.016,0.043-0.039v-0.16h-0.098v0.07h-0.07v-0.07h-0.098v0.07	h-0.07v-0.07h-0.094v0.16C15.734,19.336,15.758,19.352,15.777,19.352z"/><path fill="#ffc804" d="M16.949,19.355H16.64l-0.012,0.273h0.328L16.949,19.355z"/><path fill="#ffc804" d="M16.105,19.355h-0.309l-0.012,0.273h0.328L16.105,19.355z"/><path fill="#ffc804" d="M16.199,19.629h0.344l-0.023-0.512l-0.297-0.004L16.199,19.629z"/><path fill="#ffc804" d="M16.199,19.102h0.352c0.023,0,0.043-0.016,0.043-0.039v-0.16h-0.102v0.07h-0.07v-0.07h-0.098v0.074	h-0.07v-0.07h-0.102v0.156C16.152,19.086,16.176,19.102,16.199,19.102z"/><path fill="#ffc804" d="M17.02,19.742c0.027,0,0.051-0.023,0.051-0.055s-0.023-0.059-0.051-0.059h-1.293	c-0.027,0-0.051,0.027-0.051,0.059s0.023,0.055,0.051,0.055H17.02z"/><path fill="#ffc804" d="M17.047,20.469c0.027,0,0.051-0.027,0.051-0.063s-0.023-0.063-0.051-0.063h-0.348	c-0.004-0.027-0.012-0.047-0.016-0.07c0.004,0.023,0.016,0.043,0.016,0.07h0.332l-0.059-0.488h0.016	c0.027,0,0.047-0.027,0.047-0.059s-0.02-0.055-0.047-0.055h-1.234c-0.027,0-0.047,0.023-0.047,0.055s0.02,0.059,0.047,0.059h0.02	l-0.055,0.488h0.332h-0.352c-0.027,0-0.055,0.027-0.055,0.063s0.023,0.063,0.055,0.063H17.047z M16.164,20.008	c-0.055,0.074-0.098,0.176-0.109,0.32C16.059,20.176,16.105,20.078,16.164,20.008z"/><path fill="#ffc804" d="M20.586,19.355h-0.309l-0.008,0.273h0.328L20.586,19.355z"/><path fill="#ffc804" d="M19.418,19.352h0.344c0.023,0,0.043-0.016,0.043-0.039v-0.16h-0.098v0.07h-0.07v-0.07h-0.098v0.07	h-0.07v-0.07h-0.098v0.16C19.371,19.336,19.395,19.352,19.418,19.352z"/><path fill="#ffc804" d="M20.219,19.152v0.16c0,0.023,0.02,0.043,0.043,0.043h0.344c0.023,0,0.043-0.016,0.043-0.043v-0.16	h-0.098v0.07h-0.07v-0.07h-0.098v0.07h-0.07v-0.066L20.219,19.152z"/><path fill="#ffc804" d="M19.742,19.355h-0.309l-0.008,0.273h0.328L19.742,19.355z"/><path fill="#ffc804" d="M19.84,19.629h0.344l-0.023-0.512l-0.297-0.004L19.84,19.629z"/><path fill="#ffc804" d="M19.84,19.102h0.348c0.023,0,0.047-0.016,0.047-0.039v-0.16h-0.102v0.07h-0.07v-0.07h-0.102v0.074	h-0.07v-0.07h-0.098v0.156C19.793,19.086,19.812,19.102,19.84,19.102z"/><path fill="#ffc804" d="M20.656,19.742c0.027,0,0.051-0.023,0.051-0.055s-0.02-0.059-0.051-0.059h-1.293	c-0.023,0-0.047,0.027-0.047,0.059s0.02,0.055,0.047,0.055H20.656z"/><path fill="#ffc804" d="M20.336,20.344c0-0.027-0.012-0.047-0.016-0.07c0.004,0.023,0.016,0.043,0.02,0.07h0.328	l-0.059-0.488h0.02c0.023,0,0.047-0.027,0.047-0.059s-0.023-0.055-0.047-0.055h-1.238c-0.027,0-0.047,0.023-0.047,0.055	s0.02,0.059,0.047,0.059h0.02l-0.055,0.488h0.332h-0.352c-0.027,0-0.051,0.027-0.051,0.063s0.023,0.063,0.051,0.063h1.348	c0.031,0,0.055-0.027,0.055-0.063s-0.023-0.063-0.055-0.063H20.336z M19.801,20.008c-0.055,0.074-0.098,0.176-0.109,0.32	C19.695,20.176,19.742,20.078,19.801,20.008z"/><path fill="#ffc804" d="M22.836,26.738c0.016,0.016,0.047,0.02,0.063,0.004l0.113-0.113l-0.066-0.066l-0.051,0.051	l-0.047-0.051l0.047-0.051l-0.066-0.066l-0.051,0.047l-0.051-0.047l0.051-0.051l-0.066-0.07l-0.113,0.113	c-0.02,0.02-0.016,0.043,0,0.059L22.836,26.738z"/><path fill="#ffc804" d="M23.488,27.211l-0.047-0.051l0.047-0.051l-0.066-0.07l-0.051,0.051l-0.051-0.047l0.051-0.051	l-0.066-0.07l-0.113,0.113c-0.02,0.02-0.016,0.043,0,0.059l0.242,0.246c0.016,0.016,0.043,0.016,0.059,0l0.113-0.109l-0.066-0.07	L23.488,27.211z"/><path fill="#ffc804" d="M22.824,26.727l-0.215-0.215l-0.203,0.184l0.23,0.234L22.824,26.727z"/><path fill="#ffc804" d="M23,27.293l0.23,0.234l0.191-0.203l-0.219-0.219L23,27.293z"/><path fill="#ffc804" d="M22.227,26.762c-0.02,0.02-0.023,0.051-0.004,0.07l0.012,0.016l-0.387,0.301l0.23,0.234	c0.023-0.02,0.039-0.023,0.063-0.039c-0.02,0.016-0.039,0.023-0.063,0.043l-0.246-0.246c-0.02-0.023-0.055-0.02-0.078,0.004	c-0.027,0.027-0.031,0.063-0.012,0.082l0.953,0.953c0.02,0.02,0.055,0.016,0.078-0.008c0.027-0.023,0.031-0.059,0.008-0.078	l-0.246-0.25l0.234,0.23l0.309-0.379l0.016,0.012c0.016,0.02,0.051,0.016,0.07-0.008c0.023-0.02,0.027-0.051,0.008-0.07	l-0.871-0.875C22.281,26.734,22.25,26.738,22.227,26.762z M22.695,27.527c-0.012,0.086-0.047,0.188-0.145,0.293	C22.641,27.715,22.68,27.613,22.695,27.527z"/><path fill="#ffc804" d="M23.18,26.441l-0.113,0.113c-0.02,0.016-0.016,0.043,0,0.059l0.246,0.25	c0.02,0.016,0.047,0.02,0.063,0l0.113-0.109l-0.07-0.07l-0.047,0.051l-0.051-0.051l0.051-0.051l-0.07-0.07l-0.051,0.051L23.2,26.563	l0.051-0.051L23.18,26.441z"/><path fill="#ffc804" d="M22.941,27.23l0.348-0.375l-0.211-0.211l-0.379,0.344L22.941,27.23z"/><path fill="#ffc804" d="M22.285,26.656c-0.02,0.023-0.023,0.059-0.004,0.074l0.91,0.914c0.02,0.02,0.055,0.02,0.074-0.004	c0.023-0.02,0.023-0.055,0.008-0.074l-0.914-0.914C22.34,26.637,22.309,26.637,22.285,26.656z"/><path fill="#ffc804" d="M22.988,22.824v0.16c0,0.023,0.023,0.039,0.043,0.039h0.348c0.02,0,0.043-0.016,0.043-0.039v-0.16	h-0.094v0.07h-0.07v-0.07H23.16v0.07h-0.07V22.82L22.988,22.824z"/><path fill="#ffc804" d="M23.836,22.824v0.16c0,0.023,0.02,0.039,0.043,0.039h0.344c0.02,0,0.043-0.016,0.043-0.039v-0.16	h-0.094v0.07h-0.07v-0.07h-0.098v0.07h-0.07V22.82L23.836,22.824z"/><path fill="#ffc804" d="M23.371,23.301l-0.012-0.273H23.05l-0.012,0.273H23.371z"/><path fill="#ffc804" d="M24.215,23.301l-0.012-0.273h-0.309l-0.008,0.273H24.215z"/><path fill="#ffc804" d="M23.457,23.301h0.344l-0.023-0.516l-0.301,0.004L23.457,23.301z"/><path fill="#ffc804" d="M23.406,22.574v0.16c0,0.023,0.02,0.039,0.043,0.039h0.352c0.023,0,0.043-0.016,0.043-0.039v-0.16	h-0.098v0.07h-0.07v-0.07h-0.102v0.07h-0.07V22.57h-0.098V22.574z"/><path fill="#ffc804" d="M22.93,23.359c0,0.031,0.023,0.055,0.051,0.055h1.293c0.027,0,0.051-0.023,0.051-0.055	S24.302,23.3,24.274,23.3H22.98C22.953,23.301,22.93,23.328,22.93,23.359z"/><path fill="#ffc804" d="M23.949,24.016h0.332l-0.055-0.488h0.02c0.027,0,0.047-0.023,0.047-0.055s-0.02-0.059-0.047-0.059	h-1.238c-0.023,0-0.047,0.027-0.047,0.059s0.023,0.055,0.047,0.055h0.02l-0.059,0.488h0.332c0-0.027,0.012-0.043,0.016-0.07	c-0.004,0.023-0.016,0.043-0.016,0.07h-0.348c-0.027,0-0.055,0.031-0.055,0.063c0,0.035,0.023,0.063,0.055,0.063h1.348	c0.027,0,0.051-0.027,0.051-0.063c0-0.031-0.023-0.063-0.051-0.063H23.949z M23.836,23.68c0.059,0.07,0.105,0.168,0.109,0.32	C23.934,23.855,23.891,23.754,23.836,23.68z"/><path fill="#ffc804" d="M23.031,19.352h0.348c0.02,0,0.043-0.016,0.043-0.039v-0.16h-0.094v0.07h-0.07v-0.07H23.16v0.07	h-0.07v-0.07h-0.098v0.16C22.988,19.336,23.012,19.352,23.031,19.352z"/><path fill="#ffc804" d="M23.371,19.629l-0.012-0.273H23.05l-0.012,0.273H23.371z"/><path fill="#ffc804" d="M23.836,19.152v0.16c0,0.027,0.02,0.043,0.043,0.043h0.344c0.02,0,0.043-0.02,0.043-0.043v-0.16	h-0.094v0.07h-0.07v-0.07h-0.098v0.07h-0.07v-0.07H23.836z"/><path fill="#ffc804" d="M24.215,19.629l-0.012-0.273h-0.309l-0.008,0.273H24.215z"/><path fill="#ffc804" d="M23.457,19.629h0.344l-0.023-0.516l-0.301,0.004L23.457,19.629z"/><path fill="#ffc804" d="M23.449,19.102h0.352c0.023,0,0.043-0.016,0.043-0.039v-0.16h-0.098v0.07h-0.07v-0.07h-0.102v0.07	h-0.07v-0.074h-0.098v0.16C23.406,19.086,23.426,19.102,23.449,19.102z"/><path fill="#ffc804" d="M24.273,19.742c0.027,0,0.051-0.023,0.051-0.055s-0.023-0.059-0.051-0.059H22.98	c-0.027,0-0.051,0.027-0.051,0.059s0.023,0.055,0.051,0.055H24.273z"/><path fill="#ffc804" d="M24.301,20.469c0.027,0,0.051-0.027,0.051-0.063s-0.023-0.063-0.051-0.063h-0.352h0.332l-0.055-0.488	h0.02c0.027,0,0.047-0.027,0.047-0.055c0-0.031-0.02-0.059-0.047-0.059h-1.238c-0.023,0-0.047,0.027-0.047,0.059	c0,0.027,0.023,0.055,0.047,0.055h0.02l-0.059,0.488h0.332c0-0.027,0.012-0.043,0.016-0.07c-0.004,0.023-0.016,0.043-0.016,0.07	h-0.348c-0.027,0-0.055,0.027-0.055,0.063s0.023,0.063,0.055,0.063H24.301z M23.836,20.008c0.059,0.07,0.105,0.168,0.109,0.32	C23.934,20.184,23.891,20.082,23.836,20.008z"/><path d="M16.77,27.555l-0.219-0.23l0.246-0.246l0.234,0.215L16.77,27.555z M16.605,27.324l0.164,0.172l0.203-0.199l-0.176-0.16	L16.605,27.324z"/><path d="M17.363,26.957l-0.215-0.23l0.242-0.242l0.234,0.211L17.363,26.957z M17.203,26.73l0.16,0.172l0.203-0.203l-0.172-0.16	L17.203,26.73z"/><path d="M16.535,27.367c-0.016,0-0.031-0.004-0.043-0.016l-0.129-0.125l0.016-0.012l0.016,0.012l-0.016-0.012l0.082-0.082	l0.047,0.047l0.023-0.02l-0.051-0.051l0.098-0.098l0.051,0.051l0.02-0.02l-0.051-0.051l0.098-0.098l0.129,0.129	c0.023,0.023,0.023,0.063-0.004,0.086l-0.242,0.242C16.57,27.363,16.551,27.367,16.535,27.367z M16.422,27.227l0.098,0.098	c0.008,0.008,0.023,0.008,0.035-0.004l0.242-0.242c0.008-0.008,0.008-0.02,0-0.031l-0.102-0.098l-0.039,0.039l0.051,0.051	l-0.078,0.078l-0.051-0.051l-0.039,0.043l0.051,0.051l-0.078,0.074l-0.051-0.047L16.422,27.227z"/><path d="M17.129,26.773c-0.016,0-0.031-0.008-0.043-0.016l-0.117-0.117v-0.02l0.086-0.086l0.051,0.051l0.02-0.023l-0.051-0.047	l0.098-0.098l0.051,0.051l0.02-0.023l-0.047-0.051l0.094-0.094l0.129,0.125c0.027,0.023,0.023,0.063,0,0.086l-0.242,0.242	C17.164,26.766,17.148,26.773,17.129,26.773z M17.016,26.629l0.098,0.098c0.008,0.008,0.027,0.008,0.035,0l0.242-0.246	c0.008-0.008,0.012-0.02,0-0.031l-0.098-0.098l-0.043,0.043l0.051,0.051l-0.078,0.078l-0.047-0.051l-0.043,0.039l0.051,0.051	l-0.078,0.078l-0.047-0.051L17.016,26.629z"/><path d="M16.91,26.887c-0.039-0.035,0.012-0.086,0.047-0.047l0.09,0.086l-0.051,0.047L16.91,26.887"/><path d="M16.734,27.313c-0.031-0.035,0.012-0.082,0.047-0.047l0.066,0.066l-0.043,0.047L16.734,27.313"/><path d="M17.332,26.715c-0.031-0.035,0.012-0.082,0.047-0.047l0.066,0.066l-0.047,0.047L17.332,26.715"/><path d="M16.07,24.035h-0.371l0.059-0.531l0.004-0.012l1.227-0.004l0.066,0.547H16.68v-0.02c-0.008-0.379-0.305-0.465-0.309-0.465	c0,0-0.297,0.059-0.301,0.465V24.035z M16.719,23.996h0.289l-0.055-0.469h-0.527c0.035,0.02,0.082,0.047,0.129,0.086	C16.625,23.68,16.711,23.801,16.719,23.996z M15.742,23.996h0.289c0.008-0.219,0.102-0.34,0.18-0.402	c0.035-0.031,0.07-0.051,0.102-0.063h-0.52L15.742,23.996z"/><path d="M17.047,24.16h-1.348c-0.039,0-0.074-0.039-0.074-0.082c0-0.047,0.031-0.082,0.074-0.082h1.348	c0.039,0,0.07,0.035,0.07,0.082S17.086,24.16,17.047,24.16z M15.699,24.035c-0.016,0-0.031,0.02-0.031,0.043	s0.016,0.043,0.031,0.043h1.348c0.02,0,0.031-0.02,0.031-0.043s-0.012-0.043-0.031-0.043H15.699z"/><path d="M16.578,24.035h-0.391v-0.02h-0.02c0.004-0.172,0.074-0.27,0.133-0.316c0,0,0.055-0.043,0.07-0.043	c0.012,0,0.203,0.09,0.207,0.359v0.02H16.578z M16.211,23.992h0.324c-0.008-0.199-0.133-0.277-0.164-0.293	C16.34,23.715,16.219,23.793,16.211,23.992z"/><path d="M17.02,23.434h-1.293c-0.039,0-0.07-0.035-0.07-0.074c0-0.043,0.031-0.078,0.07-0.078h1.293c0.039,0,0.07,0.035,0.07,0.078	C17.09,23.398,17.059,23.434,17.02,23.434z M15.727,23.32c-0.016,0-0.031,0.02-0.031,0.039s0.016,0.035,0.031,0.035h1.293	c0.016,0,0.031-0.016,0.031-0.035s-0.016-0.039-0.031-0.039H15.727z"/><path d="M16.551,22.797h-0.352c-0.035,0-0.066-0.031-0.066-0.063v-0.168l0.016-0.008h0.125v0.066h0.031v-0.07h0.137v0.07h0.035	v-0.07h0.137v0.18C16.613,22.77,16.586,22.797,16.551,22.797z M16.176,22.594v0.141c0,0.008,0.012,0.02,0.023,0.02h0.352	c0.012,0,0.023-0.008,0.023-0.02v-0.141h-0.059v0.07h-0.113v-0.07h-0.059v0.07h-0.109v-0.066L16.176,22.594z"/><path d="M16.992,23.547h-1.238c-0.035,0-0.066-0.035-0.066-0.078c0-0.039,0.031-0.074,0.066-0.074h1.238	c0.035,0,0.066,0.035,0.066,0.074C17.059,23.512,17.027,23.547,16.992,23.547z M15.754,23.434c-0.016,0-0.027,0.016-0.027,0.039	c0,0.02,0.012,0.035,0.027,0.035h1.238c0.016,0,0.027-0.016,0.027-0.035c0-0.023-0.016-0.039-0.027-0.039H15.754z"/><path d="M16.562,23.32H16.18l0.023-0.551h0.336L16.562,23.32z M16.223,23.277l0.301,0.004l-0.02-0.473h-0.262L16.223,23.277z"/><path d="M15.766,23.32l0.012-0.313h0.344l0.016,0.313H15.766z M15.812,23.047l-0.008,0.234h0.289l-0.008-0.234H15.812z"/><path d="M16.609,23.32l0.012-0.313h0.348l0.012,0.313H16.609z M16.66,23.047l-0.008,0.234h0.285l-0.008-0.234H16.66z"/><path d="M16.121,23.047h-0.344c-0.035,0-0.063-0.031-0.063-0.063v-0.168l0.016-0.008h0.121v0.066h0.027v-0.07h0.141v0.07h0.027	v-0.07h0.141v0.18C16.184,23.02,16.156,23.047,16.121,23.047z M15.754,22.848v0.137c0,0.012,0.012,0.023,0.023,0.023h0.344	c0.012,0,0.023-0.008,0.023-0.023v-0.141H16.09v0.07h-0.113v-0.07h-0.055v0.07h-0.113v-0.066	C15.809,22.848,15.754,22.848,15.754,22.848z"/><path d="M16.969,23.047h-0.348c-0.031,0-0.063-0.031-0.063-0.063v-0.168l0.016-0.008h0.121v0.066h0.027v-0.07h0.141v0.07h0.027	v-0.07h0.141v0.18C17.027,23.02,17.004,23.047,16.969,23.047z M16.598,22.848v0.137c0,0.012,0.012,0.023,0.027,0.023h0.344	c0.012,0,0.023-0.008,0.023-0.023v-0.141h-0.059v0.07h-0.109v-0.07h-0.059v0.07h-0.109v-0.066	C16.656,22.848,16.598,22.848,16.598,22.848z"/><path d="M16.34,22.949c-0.004-0.051,0.07-0.051,0.066,0v0.121H16.34V22.949"/><path d="M15.914,23.129c0-0.051,0.066-0.051,0.066,0v0.094h-0.066V23.129"/><path d="M16.762,23.129c0-0.051,0.066-0.051,0.066,0v0.094h-0.066V23.129"/><path d="M16.773,27.68c-0.02,0-0.039-0.008-0.055-0.023c-0.027-0.027-0.031-0.074-0.004-0.102l0.91-0.914	c0.012-0.012,0.031-0.02,0.047-0.02c0.02,0,0.043,0.012,0.059,0.023c0.027,0.031,0.031,0.074,0.004,0.102l-0.91,0.914	C16.809,27.672,16.793,27.68,16.773,27.68z M16.742,27.582c-0.012,0.012-0.008,0.031,0.004,0.047	c0.016,0.012,0.035,0.016,0.051,0.004l0.91-0.914c0.012-0.012,0.008-0.035-0.008-0.047c-0.008-0.008-0.016-0.012-0.023-0.012	c-0.008-0.004-0.016,0-0.02,0.008L16.742,27.582z"/><path d="M16.875,27.738c-0.02,0-0.039-0.008-0.055-0.023c-0.031-0.027-0.035-0.074-0.008-0.102l0.871-0.875	c0.027-0.023,0.074-0.023,0.102,0.008c0.016,0.016,0.023,0.035,0.023,0.055s-0.004,0.035-0.016,0.047l-0.871,0.875	C16.91,27.734,16.895,27.738,16.875,27.738z M17.73,26.762c-0.008,0-0.012,0.004-0.016,0.008l-0.871,0.871	c-0.012,0.012-0.008,0.031,0.004,0.047c0.016,0.012,0.035,0.016,0.047,0.004l0.871-0.871c0.004-0.008,0.004-0.012,0.004-0.02	s-0.004-0.02-0.012-0.027S17.738,26.762,17.73,26.762z"/><path d="M16.652,26.895c-0.016,0-0.031-0.004-0.043-0.016l-0.125-0.125l0.012-0.016l0.016,0.016l-0.016-0.016l0.082-0.082	l0.051,0.051l0.023-0.023l-0.051-0.051l0.098-0.098l0.051,0.051l0.023-0.023l-0.051-0.051l0.098-0.098l0.129,0.125	c0.012,0.012,0.02,0.027,0.02,0.043s-0.008,0.031-0.02,0.047l-0.25,0.246C16.687,26.891,16.668,26.895,16.652,26.895z M16.539,26.754l0.098,0.098c0.008,0.008,0.023,0.008,0.035-0.004l0.246-0.246c0.004-0.008,0.008-0.012,0.008-0.02	c0,0,0-0.012-0.004-0.016l-0.102-0.098l-0.043,0.043l0.051,0.051L16.75,26.64l-0.051-0.051l-0.043,0.043l0.051,0.051l-0.078,0.078	l-0.047-0.047L16.539,26.754z"/><path d="M17.059,27.258l-0.375-0.406l0.238-0.234l0.41,0.371L17.059,27.258z M16.738,26.855l0.32,0.348l0.215-0.215l-0.352-0.316	L16.738,26.855z"/><path d="M17.562,27.773l-0.016-0.016c-0.117-0.117-0.137-0.23-0.133-0.305c0-0.035,0.012-0.082,0.02-0.09l0.008-0.004	c0.008-0.004,0.199-0.078,0.395,0.109l0.012,0.016L17.562,27.773z M17.465,27.395c-0.012,0.031-0.043,0.172,0.098,0.32l0.23-0.23	C17.645,27.348,17.5,27.383,17.465,27.395z"/><path d="M17.273,28.211c-0.023,0-0.047-0.008-0.063-0.023c-0.031-0.035-0.035-0.082-0.008-0.109l0.949-0.953	c0.016-0.016,0.035-0.02,0.055-0.02c0.02,0.004,0.039,0.012,0.055,0.027c0.031,0.031,0.035,0.078,0.008,0.105l-0.949,0.953	C17.309,28.207,17.289,28.211,17.273,28.211z M17.23,28.105c-0.012,0.012-0.008,0.035,0.008,0.051s0.039,0.02,0.051,0.008	l0.953-0.953c0.012-0.012,0.008-0.035-0.008-0.051c-0.008-0.008-0.02-0.016-0.031-0.016c-0.008,0-0.016,0-0.023,0.008L17.23,28.105z"/><path d="M17.23,28.105l-0.336-0.414l-0.008-0.016l0.012-0.008l0.852-0.859l0.437,0.34l-0.262,0.262l-0.016-0.012	c-0.277-0.262-0.547-0.113-0.551-0.109c0.004,0-0.168,0.25,0.121,0.539l0.012,0.016L17.23,28.105z M16.937,27.684l0.297,0.363	l0.203-0.203c-0.152-0.16-0.172-0.313-0.164-0.414c0.004-0.043,0.016-0.082,0.027-0.113L16.937,27.684z M17.555,27.203	c0.094,0,0.23,0.031,0.367,0.152l0.203-0.203l-0.371-0.289l-0.371,0.371c0.035-0.012,0.086-0.027,0.148-0.031	C17.539,27.203,17.547,27.203,17.555,27.203z"/><path d="M16.34,19.277c-0.004-0.051,0.07-0.051,0.066,0v0.121H16.34V19.277"/><path d="M15.914,19.453c0-0.047,0.066-0.047,0.066,0v0.098h-0.066V19.453"/><path d="M16.762,19.453c0-0.047,0.066-0.047,0.066,0v0.098h-0.066V19.453"/><path d="M16.969,19.371h-0.348c-0.031,0-0.063-0.027-0.063-0.059v-0.168l0.016-0.008h0.121v0.066h0.027v-0.07h0.141v0.07h0.027	v-0.07h0.141v0.18C17.027,19.348,17.004,19.371,16.969,19.371z M16.598,19.176v0.137c0,0.012,0.012,0.023,0.027,0.023h0.344	c0.012,0,0.023-0.008,0.023-0.023v-0.141h-0.059v0.07h-0.109v-0.07h-0.059v0.07h-0.109v-0.066	C16.656,19.176,16.598,19.176,16.598,19.176z"/><path d="M16.121,19.371h-0.344c-0.035,0-0.063-0.027-0.063-0.059v-0.168l0.016-0.008h0.121v0.066h0.027v-0.07h0.141v0.07h0.027	v-0.07h0.141v0.18C16.184,19.348,16.156,19.371,16.121,19.371z M15.754,19.176v0.137c0,0.012,0.012,0.023,0.023,0.023h0.344	c0.012,0,0.023-0.008,0.023-0.023v-0.141H16.09v0.07h-0.113v-0.07h-0.055v0.07h-0.113v-0.066	C15.809,19.176,15.754,19.176,15.754,19.176z"/><path d="M16.609,19.648l0.012-0.313h0.348l0.012,0.313H16.609z M16.66,19.371l-0.008,0.238h0.285l-0.008-0.238H16.66z"/><path d="M15.766,19.648l0.012-0.313h0.344l0.016,0.313H15.766z M15.812,19.371l-0.008,0.238h0.289l-0.008-0.238H15.812z"/><path d="M16.562,19.648H16.18l0.023-0.551h0.336L16.562,19.648z M16.223,19.605l0.301,0.004l-0.02-0.473h-0.262L16.223,19.605z"/><path d="M16.551,19.121h-0.352c-0.035,0-0.066-0.027-0.066-0.059v-0.168l0.016-0.012h0.125v0.07h0.031v-0.07h0.137v0.07h0.035v-0.07	h0.137v0.176C16.613,19.098,16.586,19.121,16.551,19.121z M16.176,18.922v0.141c0,0.008,0.012,0.02,0.023,0.02h0.352	c0.012,0,0.023-0.008,0.023-0.02v-0.141h-0.059v0.07h-0.113v-0.07h-0.059v0.07h-0.109v-0.066L16.176,18.922z"/><path d="M16.992,19.875h-1.238c-0.035,0-0.066-0.035-0.066-0.078c0-0.039,0.031-0.074,0.066-0.074h1.238	c0.035,0,0.066,0.035,0.066,0.074C17.059,19.84,17.027,19.875,16.992,19.875z M15.754,19.762c-0.016,0-0.027,0.016-0.027,0.039	c0,0.02,0.012,0.035,0.027,0.035h1.238c0.016,0,0.027-0.016,0.027-0.035c0-0.023-0.016-0.039-0.027-0.039H15.754z"/><path d="M17.02,19.762h-1.293c-0.039,0-0.07-0.035-0.07-0.074c0-0.043,0.031-0.078,0.07-0.078h1.293c0.039,0,0.07,0.035,0.07,0.078	C17.09,19.727,17.059,19.762,17.02,19.762z M15.727,19.648c-0.016,0-0.031,0.02-0.031,0.039c0,0.016,0.016,0.035,0.031,0.035h1.293	c0.016,0,0.031-0.016,0.031-0.035c0-0.023-0.016-0.039-0.031-0.039H15.727z"/><path d="M16.578,20.363h-0.391v-0.02h-0.02c0.004-0.172,0.074-0.27,0.133-0.316c0,0,0.055-0.043,0.07-0.043	c0.012,0,0.203,0.09,0.207,0.359v0.02H16.578z M16.211,20.32h0.324c-0.008-0.199-0.133-0.277-0.164-0.293	C16.34,20.043,16.219,20.121,16.211,20.32z"/><path d="M17.047,20.488h-1.348c-0.039,0-0.074-0.039-0.074-0.082c0-0.047,0.031-0.082,0.074-0.082h1.348	c0.039,0,0.07,0.035,0.07,0.082S17.086,20.488,17.047,20.488z M15.699,20.363c-0.016,0-0.031,0.02-0.031,0.043	s0.016,0.043,0.031,0.043h1.348c0.02,0,0.031-0.02,0.031-0.043s-0.012-0.043-0.031-0.043H15.699z"/><path d="M16.07,20.363h-0.371l0.059-0.531l0.004-0.012l1.227-0.004l0.066,0.547H16.68v-0.02c-0.008-0.379-0.305-0.465-0.309-0.465	c0,0-0.297,0.059-0.301,0.465V20.363z M16.719,20.324h0.289l-0.055-0.469h-0.527c0.035,0.016,0.082,0.047,0.129,0.086	C16.625,20.008,16.711,20.129,16.719,20.324z M15.742,20.324h0.289c0.008-0.219,0.102-0.34,0.18-0.402	c0.035-0.031,0.07-0.051,0.102-0.063h-0.52L15.742,20.324z"/><path d="M19.992,29.387c-1.207,0-2.348-0.473-3.215-1.328c-0.863-0.859-1.34-1.992-1.34-3.188l0.039-0.004v0.004	c0,1.188,0.473,2.309,1.328,3.156c0.859,0.852,1.992,1.32,3.188,1.32c1.203,0,2.332-0.465,3.188-1.313	c0.848-0.844,1.316-1.957,1.324-3.145v-6.086H15.48l-0.004,6.063h-0.039l0.004-6.102h9.102v6.113c0,1.199-0.477,2.332-1.336,3.188	C22.348,28.918,21.207,29.387,19.992,29.387z M19.988,27.598c-0.707,0-1.383-0.285-1.91-0.805c-0.512-0.508-0.805-1.203-0.805-1.914	v-4.305h0.02l5.418,0.012l0.012,0.012v3.883l-0.004,0.41c0,0.113-0.008,0.238-0.02,0.34c-0.07,0.594-0.344,1.137-0.781,1.574	C21.402,27.316,20.719,27.598,19.988,27.598z M17.312,20.617l0.004,4.262c0,0.699,0.289,1.387,0.789,1.887	c0.52,0.512,1.188,0.793,1.883,0.793c0.715,0,1.391-0.277,1.902-0.781c0.43-0.43,0.699-0.965,0.77-1.551	c0.012-0.102,0.02-0.223,0.02-0.332v-4.266L17.312,20.617z"/><path d="M19.996,29.59c-1.246,0-2.434-0.5-3.344-1.402c-0.895-0.887-1.391-2.059-1.398-3.301v-6.336l9.504,0.008v6.305	c0,1.258-0.496,2.445-1.398,3.34C22.461,29.098,21.266,29.59,19.996,29.59z M15.309,24.832v0.027c0,1.238,0.488,2.406,1.379,3.289	c0.902,0.895,2.078,1.387,3.309,1.387c1.258,0,2.438-0.484,3.328-1.371c0.887-0.879,1.375-2.043,1.379-3.281v-6.27l-9.395-0.012	V24.832z"/><path d="M20.246,19.648l0.012-0.313h0.348l0.012,0.313H20.246z M20.297,19.371l-0.008,0.238h0.285l-0.008-0.238H20.297z"/><path d="M20.605,19.371h-0.344c-0.035,0-0.066-0.027-0.066-0.059v-0.168l0.016-0.008h0.121v0.066h0.031v-0.07H20.5v0.07h0.031v-0.07	h0.137v0.18C20.668,19.348,20.641,19.371,20.605,19.371z M20.238,19.176v0.137c0,0.012,0.012,0.023,0.023,0.023h0.344	c0.012,0,0.023-0.008,0.023-0.023v-0.141H20.57v0.07h-0.109v-0.07h-0.059v0.07h-0.109v-0.066	C20.293,19.176,20.238,19.176,20.238,19.176z"/><path d="M19.762,19.371h-0.344c-0.035,0-0.066-0.027-0.066-0.059v-0.168l0.016-0.008h0.121v0.066h0.031v-0.07h0.137v0.07h0.031	v-0.07h0.137v0.18C19.824,19.348,19.797,19.371,19.762,19.371z M19.391,19.176v0.137c0,0.012,0.012,0.023,0.027,0.023h0.344	c0.012,0,0.023-0.008,0.023-0.023v-0.141h-0.059v0.07h-0.109v-0.07h-0.059v0.07h-0.109v-0.066	C19.449,19.176,19.391,19.176,19.391,19.176z"/><path d="M19.977,19.277c0-0.051,0.07-0.051,0.07,0v0.121h-0.07V19.277"/><path d="M19.555,19.453c0-0.047,0.066-0.047,0.063,0v0.098h-0.063V19.453"/><path d="M20.398,19.453c0-0.047,0.07-0.047,0.066,0v0.098h-0.066V19.453"/><path d="M19.402,19.648l0.012-0.313h0.348l0.012,0.313H19.402z M19.453,19.371l-0.008,0.238h0.285l-0.008-0.238H19.453z"/><path d="M20.203,19.648H19.82l0.023-0.551h0.336L20.203,19.648z M19.859,19.605l0.301,0.004l-0.02-0.473h-0.258L19.859,19.605z"/><path d="M20.187,19.121H19.84c-0.035,0-0.066-0.027-0.066-0.059v-0.168l0.012-0.012h0.125v0.07h0.031v-0.07h0.141v0.07h0.031v-0.07	h0.141v0.176C20.254,19.098,20.227,19.121,20.187,19.121z M19.812,18.922v0.141c0,0.008,0.012,0.02,0.027,0.02h0.348	c0.012,0,0.027-0.008,0.027-0.02v-0.141h-0.063v0.07h-0.109v-0.07H19.98v0.07h-0.109v-0.066L19.812,18.922z"/><path d="M20.629,19.875h-1.238c-0.035,0-0.066-0.035-0.066-0.078c0-0.039,0.031-0.074,0.066-0.074h1.238	c0.035,0,0.066,0.035,0.066,0.074C20.695,19.84,20.664,19.875,20.629,19.875z M19.391,19.762c-0.012,0-0.027,0.016-0.027,0.039	c0,0.02,0.016,0.035,0.027,0.035h1.238c0.016,0,0.027-0.016,0.027-0.035c0-0.023-0.012-0.039-0.027-0.039H19.391z"/><path d="M20.656,19.762h-1.293c-0.035,0-0.066-0.035-0.066-0.074c0-0.043,0.031-0.078,0.066-0.078h1.293	c0.039,0,0.07,0.035,0.07,0.078C20.727,19.727,20.695,19.762,20.656,19.762z M19.363,19.648c-0.016,0-0.027,0.02-0.027,0.039	c0,0.016,0.012,0.035,0.027,0.035h1.293c0.02,0,0.031-0.016,0.031-0.035c0-0.023-0.012-0.039-0.031-0.039H19.363z"/><path d="M20.215,20.363h-0.387v-0.02h-0.02c0-0.172,0.07-0.27,0.129-0.316c0.004,0,0.055-0.043,0.074-0.043	c0.012,0,0.203,0.094,0.203,0.359v0.02H20.215z M19.848,20.32h0.328c-0.012-0.199-0.137-0.277-0.168-0.293	C19.977,20.043,19.855,20.121,19.848,20.32z"/><path d="M20.684,20.488h-1.348c-0.039,0-0.07-0.039-0.07-0.082c0-0.047,0.031-0.082,0.07-0.082h1.348	c0.039,0,0.074,0.035,0.074,0.082S20.727,20.488,20.684,20.488z M19.336,20.363c-0.016,0-0.031,0.02-0.031,0.043	s0.016,0.043,0.031,0.043h1.352c0.016,0,0.031-0.02,0.031-0.043s-0.016-0.043-0.031-0.043H19.336z"/><path d="M19.707,20.363h-0.371l0.059-0.543l1.234-0.004l0.063,0.547H20.32v-0.02c-0.008-0.379-0.309-0.465-0.309-0.465	s-0.301,0.059-0.301,0.465L19.707,20.363z M20.355,20.324h0.289l-0.055-0.469h-0.523c0.035,0.016,0.082,0.047,0.125,0.086	C20.262,20.008,20.348,20.129,20.355,20.324z M19.383,20.324h0.285c0.008-0.219,0.102-0.34,0.18-0.402	c0.035-0.031,0.074-0.051,0.102-0.063h-0.52L19.383,20.324z"/><path d="M22.668,26.715c0.031-0.035-0.012-0.082-0.047-0.047l-0.066,0.066l0.047,0.047L22.668,26.715"/><path d="M23.09,26.887c0.039-0.035-0.012-0.086-0.047-0.047l-0.09,0.086l0.051,0.047L23.09,26.887"/><path d="M23.266,27.313c0.031-0.035-0.012-0.082-0.047-0.047l-0.066,0.066l0.043,0.047L23.266,27.313"/><path d="M22.871,26.773c-0.02,0-0.035-0.008-0.047-0.02l-0.242-0.242c-0.023-0.027-0.023-0.063,0-0.086l0.129-0.129l0.094,0.098	l-0.047,0.051l0.02,0.02l0.051-0.051l0.098,0.098l-0.051,0.051l0.02,0.023l0.051-0.051l0.086,0.09l-0.004,0.016l-0.113,0.113	C22.902,26.766,22.887,26.773,22.871,26.773z M22.707,26.352l-0.098,0.098c-0.012,0.012-0.008,0.023,0,0.031l0.242,0.246	c0.008,0.008,0.027,0.008,0.035,0l0.098-0.098l-0.039-0.039l-0.051,0.051l-0.078-0.078l0.051-0.051l-0.039-0.039l-0.051,0.051	l-0.078-0.078l0.051-0.051L22.707,26.352z"/><path d="M23.465,27.367c-0.016,0-0.035-0.004-0.047-0.016l-0.242-0.246c-0.023-0.023-0.023-0.063,0-0.086l0.129-0.125l0.094,0.098	l-0.047,0.047l0.02,0.023l0.051-0.051l0.098,0.098L23.47,27.16l0.02,0.02l0.051-0.047l0.086,0.086v0.016l-0.117,0.117	C23.496,27.363,23.48,27.367,23.465,27.367z M23.305,26.949l-0.102,0.098c-0.008,0.012-0.008,0.023,0,0.031l0.242,0.242	c0.012,0.012,0.027,0.012,0.035,0.004l0.098-0.098l-0.039-0.039l-0.051,0.051l-0.074-0.078l0.051-0.051l-0.043-0.039l-0.051,0.047	l-0.074-0.078l0.047-0.047L23.305,26.949z"/><path d="M22.637,26.957l-0.262-0.262l0.234-0.211l0.242,0.242L22.637,26.957z M22.434,26.699l0.203,0.203l0.16-0.172l-0.188-0.191	L22.434,26.699z"/><path d="M23.23,27.555l-0.258-0.262l0.219-0.199l0.012,0.012l0.016-0.012l0.012,0.012l0.215,0.219L23.23,27.555z M23.027,27.293	l0.203,0.203l0.164-0.172l-0.191-0.191L23.027,27.293z"/><path d="M22.941,27.258l-0.273-0.27l0.41-0.371l0.238,0.238L22.941,27.258z M22.727,26.988l0.215,0.215l0.32-0.348l-0.184-0.184	L22.727,26.988z"/><path d="M23.348,26.895c-0.016,0-0.035-0.004-0.047-0.02l-0.246-0.246c-0.012-0.012-0.02-0.031-0.02-0.047s0.008-0.031,0.02-0.043	l0.125-0.125l0.102,0.098l-0.051,0.051l0.023,0.023l0.047-0.051l0.102,0.098l-0.051,0.051l0.02,0.023l0.051-0.051l0.086,0.09	l0.008,0.012l-0.125,0.121C23.379,26.891,23.363,26.895,23.348,26.895z M23.18,26.469l-0.102,0.098	c-0.004,0.004-0.004,0.012-0.004,0.012c0,0.012,0.004,0.016,0.008,0.023l0.246,0.246c0.012,0.008,0.027,0.012,0.035,0.004	l0.098-0.098l-0.039-0.039l-0.051,0.047l-0.078-0.078l0.051-0.051l-0.043-0.043l-0.051,0.051l-0.078-0.078l0.051-0.051L23.18,26.469	z"/><path d="M23.125,27.738c-0.02,0-0.035-0.004-0.047-0.016l-0.871-0.875c-0.012-0.012-0.016-0.027-0.016-0.047	s0.008-0.039,0.023-0.055c0.012-0.016,0.031-0.023,0.051-0.023s0.035,0.004,0.051,0.016l0.871,0.875	c0.023,0.027,0.023,0.07-0.008,0.102C23.164,27.73,23.145,27.738,23.125,27.738z M22.27,26.762c0,0,0,0-0.004,0	c-0.008,0-0.016,0.004-0.023,0.012s-0.012,0.02-0.012,0.027s0,0.012,0.004,0.02l0.871,0.871c0.012,0.012,0.031,0.008,0.047-0.004	c0.012-0.016,0.016-0.035,0.004-0.047l-0.871-0.871C22.281,26.762,22.273,26.762,22.27,26.762z"/><path d="M23.227,27.68c-0.02,0-0.035-0.004-0.047-0.02l-0.914-0.914c-0.027-0.027-0.023-0.07,0.008-0.102	c0.012-0.016,0.035-0.023,0.055-0.023c0.016,0,0.035,0.008,0.047,0.02l0.91,0.914c0.027,0.027,0.023,0.074-0.004,0.102	C23.266,27.672,23.246,27.68,23.227,27.68z M22.328,26.66c-0.012,0-0.02,0.004-0.027,0.012c-0.016,0.016-0.016,0.035-0.004,0.047	l0.91,0.914c0.012,0.012,0.031,0.008,0.047-0.004c0.012-0.016,0.016-0.035,0.004-0.047l-0.91-0.914	C22.34,26.66,22.332,26.66,22.328,26.66z"/><path d="M22.437,27.773l-0.285-0.289l0.012-0.016c0.191-0.188,0.387-0.113,0.395-0.109l0.004,0.004	c0.012,0.008,0.023,0.055,0.023,0.09c0.004,0.074-0.02,0.188-0.133,0.305L22.437,27.773z M22.207,27.484l0.23,0.23	c0.141-0.148,0.109-0.289,0.098-0.32C22.5,27.383,22.355,27.348,22.207,27.484z"/><path d="M22.727,28.211c-0.016,0-0.035-0.004-0.047-0.02l-0.949-0.953c-0.027-0.027-0.023-0.074,0.008-0.105	c0.016-0.016,0.035-0.023,0.055-0.027c0.02,0,0.039,0.004,0.055,0.02l0.949,0.953c0.027,0.027,0.023,0.074-0.008,0.109	C22.77,28.203,22.75,28.211,22.727,28.211z M21.801,27.145c-0.004,0-0.004,0-0.004,0c-0.012,0-0.023,0.008-0.031,0.016	c-0.016,0.016-0.02,0.039-0.008,0.051l0.949,0.953c0.012,0.012,0.035,0.012,0.055-0.008c0.016-0.016,0.02-0.039,0.008-0.051	l-0.953-0.953C21.812,27.148,21.809,27.145,21.801,27.145z"/><path d="M22.77,28.105l-0.262-0.262l0.016-0.016c0.285-0.289,0.117-0.539,0.113-0.543c0,0-0.27-0.148-0.543,0.113l-0.016,0.012	l-0.262-0.262l0.434-0.34l0.867,0.871l-0.012,0.012L22.77,28.105z M22.562,27.844l0.203,0.203l0.297-0.363l-0.367-0.367	c0.016,0.031,0.027,0.07,0.031,0.113C22.734,27.531,22.715,27.684,22.562,27.844z M21.875,27.152l0.203,0.203	c0.148-0.133,0.293-0.156,0.391-0.152c0.059,0.004,0.109,0.016,0.148,0.031l-0.371-0.375L21.875,27.152z"/><path d="M23.238,23.129c0-0.051-0.066-0.051-0.066,0v0.094h0.066V23.129"/><path d="M24.086,23.129c0-0.051-0.066-0.051-0.066,0v0.094h0.066V23.129"/><path d="M23.66,22.949c0.004-0.051-0.07-0.051-0.066,0v0.121h0.066V22.949"/><path d="M23.375,23.047h-0.344c-0.035,0-0.063-0.027-0.063-0.063v-0.18h0.137v0.07h0.031v-0.07h0.137v0.07h0.031v-0.066h0.121	l0.016,0.008v0.168C23.441,23.016,23.41,23.047,23.375,23.047z M23.012,22.844v0.141c0,0.016,0.012,0.02,0.02,0.02h0.348	c0.012,0,0.023-0.008,0.023-0.02v-0.141h-0.055v0.07h-0.113v-0.07H23.18v0.07h-0.113v-0.07H23.012z"/><path d="M24.223,23.047h-0.344c-0.035,0-0.066-0.027-0.066-0.063v-0.18h0.141v0.07h0.027v-0.07h0.141v0.07h0.027v-0.066h0.121	l0.016,0.008v0.168C24.285,23.016,24.258,23.047,24.223,23.047z M23.855,22.844v0.141c0,0.016,0.012,0.02,0.023,0.02h0.344	c0.012,0,0.023-0.008,0.023-0.02v-0.141H24.19v0.07h-0.113v-0.07h-0.055v0.07H23.91v-0.07H23.855z"/><path d="M23.391,23.32H23.02l0.012-0.313h0.348L23.391,23.32z M23.062,23.281h0.285l-0.008-0.234h-0.27L23.062,23.281z"/><path d="M24.234,23.32h-0.371l0.016-0.313h0.344L24.234,23.32z M23.906,23.281h0.285l-0.008-0.234h-0.27L23.906,23.281z"/><path d="M23.434,23.32l0.027-0.551h0.336l0.023,0.551H23.434z M23.496,22.809l-0.02,0.473l0.301-0.004l-0.02-0.469H23.496z"/><path d="M23.801,22.797h-0.352c-0.035,0-0.063-0.027-0.063-0.063v-0.18h0.137v0.07h0.035v-0.07h0.137v0.074h0.031v-0.07h0.125	l0.016,0.008v0.168C23.867,22.766,23.836,22.797,23.801,22.797z M23.426,22.594v0.141c0,0.016,0.012,0.02,0.023,0.02h0.352	c0.012,0,0.023-0.012,0.023-0.02v-0.141H23.77v0.07h-0.113v-0.07h-0.059v0.07h-0.113v-0.07H23.426z"/><path d="M24.246,23.547h-1.238c-0.035,0-0.066-0.035-0.066-0.078c0-0.039,0.031-0.074,0.066-0.074h1.238	c0.035,0,0.066,0.035,0.066,0.074C24.312,23.512,24.281,23.547,24.246,23.547z M23.008,23.434c-0.016,0-0.027,0.016-0.027,0.039	c0,0.02,0.016,0.035,0.027,0.035h1.238c0.016,0,0.027-0.016,0.027-0.035c0-0.023-0.012-0.039-0.027-0.039H23.008z"/><path d="M24.273,23.434H22.98c-0.039,0-0.07-0.035-0.07-0.074c0-0.043,0.031-0.078,0.07-0.078h1.293c0.039,0,0.07,0.035,0.07,0.078	C24.344,23.398,24.312,23.434,24.273,23.434z M22.98,23.32c-0.016,0-0.031,0.02-0.031,0.039s0.016,0.035,0.031,0.035h1.293	c0.016,0,0.031-0.016,0.031-0.035s-0.016-0.039-0.031-0.039H22.98z"/><path d="M23.832,24.035h-0.41v-0.02c0.004-0.27,0.191-0.359,0.207-0.359s0.07,0.039,0.07,0.043c0.059,0.047,0.129,0.145,0.133,0.316	V24.035z M23.465,23.992h0.324c-0.008-0.203-0.129-0.277-0.16-0.293C23.605,23.711,23.473,23.785,23.465,23.992z"/><path d="M24.301,24.16h-1.348c-0.039,0-0.074-0.039-0.074-0.082c0-0.047,0.031-0.082,0.074-0.082h1.348	c0.039,0,0.07,0.035,0.07,0.082S24.34,24.16,24.301,24.16z M22.953,24.035c-0.016,0-0.031,0.02-0.031,0.043s0.016,0.043,0.031,0.043	h1.348c0.02,0,0.035-0.02,0.035-0.043s-0.016-0.043-0.035-0.043H22.953z"/><path d="M23.93,24.035v-0.02c-0.004-0.406-0.301-0.465-0.305-0.465c0,0-0.297,0.086-0.305,0.465v0.02h-0.371l0.063-0.547	l1.234,0.004v0.016l0.055,0.523L23.93,24.035z M22.992,23.996h0.289c0.008-0.195,0.094-0.316,0.164-0.383	c0.047-0.039,0.094-0.066,0.129-0.086h-0.527L22.992,23.996z M23.687,23.531c0.031,0.012,0.066,0.031,0.102,0.063	c0.078,0.063,0.172,0.184,0.18,0.402l0.289-0.004l-0.051-0.461H23.687z"/><path d="M23.238,19.453c0-0.047-0.066-0.047-0.066,0v0.098h0.066V19.453"/><path d="M23.66,19.277c0.004-0.051-0.07-0.051-0.066,0v0.121h0.066V19.277"/><path d="M24.086,19.453c0-0.047-0.066-0.047-0.066,0v0.098h0.066V19.453"/><path d="M23.375,19.371h-0.344c-0.035,0-0.063-0.023-0.063-0.059v-0.18h0.137v0.07h0.031v-0.07h0.137v0.07h0.031v-0.066h0.121	l0.016,0.008v0.168C23.441,19.344,23.41,19.371,23.375,19.371z M23.012,19.172v0.141c0,0.016,0.012,0.02,0.02,0.02h0.348	c0.012,0,0.023-0.008,0.023-0.02v-0.141h-0.055v0.07h-0.113v-0.07H23.18v0.07h-0.113v-0.07H23.012z"/><path d="M24.223,19.371h-0.344c-0.035,0-0.066-0.023-0.066-0.059v-0.18h0.141v0.07h0.027v-0.07h0.141v0.07h0.027v-0.066h0.121	l0.016,0.008v0.168C24.285,19.344,24.258,19.371,24.223,19.371z M23.855,19.172v0.141c0,0.016,0.012,0.02,0.023,0.02h0.344	c0.012,0,0.023-0.008,0.023-0.02v-0.141H24.19v0.07h-0.113v-0.07h-0.055v0.07H23.91v-0.07H23.855z"/><path d="M23.391,19.648H23.02l0.012-0.313h0.348L23.391,19.648z M23.062,19.609h0.285l-0.008-0.238h-0.27L23.062,19.609z"/><path d="M24.234,19.648h-0.371l0.016-0.313h0.344L24.234,19.648z M23.906,19.609h0.285l-0.008-0.238h-0.27L23.906,19.609z"/><path d="M23.434,19.648l0.027-0.551h0.336l0.023,0.551H23.434z M23.496,19.137l-0.02,0.473l0.301-0.004l-0.02-0.469H23.496z"/><path d="M23.801,19.121h-0.352c-0.035,0-0.063-0.023-0.063-0.059v-0.18h0.137v0.07h0.035v-0.07h0.137v0.07h0.031v-0.066h0.125	l0.016,0.008v0.168C23.867,19.094,23.836,19.121,23.801,19.121z M23.426,18.922v0.141c0,0.016,0.012,0.02,0.023,0.02h0.352	c0.012,0,0.023-0.012,0.023-0.02v-0.141H23.77v0.07h-0.113v-0.07h-0.059v0.07h-0.113v-0.07H23.426z"/><path d="M24.273,19.762H22.98c-0.039,0-0.07-0.035-0.07-0.074c0-0.043,0.031-0.078,0.07-0.078h1.293c0.039,0,0.07,0.035,0.07,0.078	C24.344,19.727,24.312,19.762,24.273,19.762z M22.98,19.648c-0.016,0-0.031,0.02-0.031,0.039c0,0.016,0.016,0.035,0.031,0.035h1.293	c0.016,0,0.031-0.016,0.031-0.035c0-0.023-0.016-0.039-0.031-0.039H22.98z"/><path d="M24.246,19.875h-1.238c-0.035,0-0.066-0.035-0.066-0.078c0-0.039,0.031-0.074,0.066-0.074h1.238	c0.035,0,0.066,0.035,0.066,0.074C24.312,19.84,24.281,19.875,24.246,19.875z M23.008,19.762c-0.016,0-0.027,0.016-0.027,0.039	c0,0.02,0.016,0.035,0.027,0.035h1.238c0.016,0,0.027-0.016,0.027-0.035c0-0.023-0.012-0.039-0.027-0.039H23.008z"/><path d="M23.832,20.363h-0.41v-0.02c0.004-0.27,0.191-0.359,0.207-0.359s0.07,0.043,0.07,0.043c0.059,0.051,0.129,0.145,0.133,0.316	V20.363z M23.465,20.32h0.324c-0.008-0.203-0.129-0.277-0.16-0.293C23.605,20.039,23.473,20.113,23.465,20.32z"/><path d="M24.301,20.488h-1.348c-0.039,0-0.074-0.039-0.074-0.082c0-0.047,0.031-0.082,0.074-0.082h1.348	c0.039,0,0.07,0.035,0.07,0.082S24.34,20.488,24.301,20.488z M22.953,20.363c-0.016,0-0.031,0.02-0.031,0.043	s0.016,0.043,0.031,0.043h1.348c0.02,0,0.035-0.02,0.035-0.043s-0.016-0.043-0.035-0.043H22.953z"/><path d="M23.93,20.363v-0.02c-0.004-0.406-0.301-0.465-0.305-0.465c0,0-0.297,0.086-0.305,0.465v0.02h-0.371l0.063-0.547	l1.234,0.004v0.016l0.055,0.523L23.93,20.363z M22.992,20.324h0.289c0.008-0.195,0.094-0.316,0.164-0.383	c0.047-0.039,0.094-0.07,0.129-0.086h-0.527L22.992,20.324z M23.687,19.859c0.031,0.012,0.066,0.031,0.102,0.063	c0.078,0.063,0.172,0.184,0.18,0.402l0.289-0.004l-0.051-0.461H23.687z"/><path fill="#039" d="M19.426,23.324l-0.004,0.852c0,0.176,0.066,0.336,0.176,0.453c0.109,0.113,0.258,0.188,0.422,0.188	s0.316-0.074,0.422-0.188c0.109-0.117,0.176-0.277,0.176-0.453v-0.852H19.426z M19.695,24.414c-0.063,0-0.117-0.051-0.117-0.117	s0.055-0.117,0.117-0.117c0.066,0,0.117,0.051,0.117,0.117S19.762,24.414,19.695,24.414z M19.695,23.766	c-0.063,0-0.117-0.051-0.117-0.117s0.055-0.117,0.117-0.117c0.066,0,0.117,0.051,0.117,0.117S19.762,23.766,19.695,23.766z M20.027,24.082c-0.066,0-0.121-0.051-0.121-0.117s0.055-0.117,0.121-0.117c0.063,0,0.117,0.051,0.117,0.117	S20.09,24.082,20.027,24.082z M20.355,24.414c-0.063,0-0.117-0.055-0.117-0.117c0-0.066,0.055-0.117,0.117-0.117	c0.066,0,0.121,0.051,0.121,0.117C20.477,24.359,20.422,24.414,20.355,24.414z M20.359,23.766c-0.066,0-0.121-0.051-0.121-0.117	c0-0.063,0.055-0.117,0.121-0.117c0.063,0,0.117,0.055,0.117,0.117C20.477,23.715,20.422,23.766,20.359,23.766z"/><path fill="#039" d="M19.426,21.262l-0.004,0.852c0,0.176,0.066,0.336,0.176,0.453s0.258,0.188,0.422,0.188	s0.316-0.07,0.422-0.188c0.109-0.117,0.176-0.273,0.176-0.449v-0.855L19.426,21.262L19.426,21.262z M19.695,22.352	c-0.063,0-0.117-0.051-0.117-0.117s0.055-0.117,0.117-0.117c0.066,0,0.117,0.051,0.117,0.117S19.762,22.352,19.695,22.352z M19.695,21.703c-0.063,0-0.117-0.051-0.117-0.117s0.055-0.117,0.117-0.117c0.066,0,0.117,0.051,0.117,0.117	S19.762,21.703,19.695,21.703z M20.027,22.02c-0.066,0-0.121-0.051-0.121-0.117c0-0.063,0.055-0.117,0.121-0.117	c0.063,0,0.117,0.055,0.117,0.117C20.145,21.969,20.09,22.02,20.027,22.02z M20.355,22.352c-0.063,0-0.117-0.055-0.117-0.117	c0-0.066,0.055-0.121,0.117-0.121c0.066,0,0.121,0.055,0.121,0.121S20.422,22.352,20.355,22.352z M20.359,21.703	c-0.066,0-0.121-0.051-0.121-0.117s0.055-0.117,0.121-0.117c0.063,0,0.117,0.051,0.117,0.117S20.422,21.703,20.359,21.703z"/><path fill="#039" d="M17.77,23.324l-0.004,0.852c0,0.176,0.07,0.336,0.176,0.453c0.109,0.113,0.258,0.188,0.422,0.188	s0.316-0.074,0.422-0.188c0.109-0.117,0.176-0.277,0.176-0.453v-0.852H17.77z M18.039,24.414c-0.063,0-0.117-0.051-0.117-0.117	s0.055-0.117,0.117-0.117c0.066,0,0.117,0.051,0.117,0.117S18.105,24.414,18.039,24.414z M18.039,23.766	c-0.063,0-0.117-0.051-0.117-0.117s0.055-0.117,0.117-0.117c0.066,0,0.117,0.051,0.117,0.117	C18.16,23.715,18.105,23.766,18.039,23.766z M18.371,24.082c-0.066,0-0.117-0.051-0.117-0.117s0.051-0.117,0.117-0.117	s0.117,0.051,0.117,0.117S18.437,24.082,18.371,24.082z M18.703,24.414c-0.066,0-0.117-0.055-0.117-0.117	c0-0.066,0.051-0.117,0.117-0.117c0.063,0,0.117,0.051,0.117,0.117C18.82,24.359,18.766,24.414,18.703,24.414z M18.703,23.766	c-0.066,0-0.117-0.051-0.117-0.117c0-0.063,0.051-0.117,0.117-0.117c0.063,0,0.117,0.055,0.117,0.117	C18.82,23.715,18.77,23.766,18.703,23.766z"/><path fill="#039" d="M21.074,23.324v0.852c0,0.176,0.066,0.336,0.176,0.453c0.109,0.113,0.258,0.188,0.422,0.188	s0.313-0.074,0.422-0.188c0.105-0.117,0.176-0.277,0.176-0.453v-0.852H21.074z M21.348,24.414c-0.066,0-0.117-0.051-0.117-0.117	s0.051-0.117,0.117-0.117c0.063,0,0.117,0.051,0.117,0.117S21.41,24.414,21.348,24.414z M21.348,23.766	c-0.066,0-0.117-0.051-0.117-0.117s0.051-0.117,0.117-0.117c0.063,0,0.117,0.051,0.117,0.117S21.41,23.766,21.348,23.766z M21.676,24.082c-0.063,0-0.117-0.051-0.117-0.117s0.055-0.117,0.117-0.117c0.066,0,0.121,0.051,0.121,0.117	S21.742,24.082,21.676,24.082z M22.008,24.414c-0.066,0-0.117-0.055-0.117-0.117c0-0.066,0.051-0.117,0.117-0.117	s0.117,0.051,0.117,0.117C22.125,24.359,22.074,24.414,22.008,24.414z M22.008,23.766c-0.063,0-0.117-0.051-0.117-0.117	c0-0.063,0.055-0.117,0.117-0.117c0.066,0,0.121,0.055,0.121,0.117C22.129,23.715,22.074,23.766,22.008,23.766z"/><path fill="#039" d="M19.426,25.367l-0.004,0.855c0,0.176,0.066,0.336,0.176,0.449c0.109,0.117,0.258,0.191,0.422,0.191	s0.316-0.074,0.422-0.188c0.109-0.117,0.176-0.277,0.176-0.453v-0.855L19.426,25.367L19.426,25.367z M19.695,26.461	c-0.063,0-0.117-0.055-0.117-0.121c0-0.063,0.055-0.117,0.117-0.117c0.066,0,0.117,0.055,0.117,0.117	C19.812,26.406,19.762,26.461,19.695,26.461z M19.695,25.809c-0.063,0-0.117-0.051-0.117-0.117c0-0.063,0.055-0.117,0.117-0.117	c0.066,0,0.117,0.055,0.117,0.117C19.812,25.758,19.762,25.809,19.695,25.809z M20.027,26.129c-0.066,0-0.121-0.055-0.121-0.121	c0-0.063,0.055-0.117,0.121-0.117c0.063,0,0.117,0.055,0.117,0.117C20.145,26.074,20.09,26.129,20.027,26.129z M20.355,26.457	c-0.063,0-0.117-0.051-0.117-0.117s0.055-0.117,0.117-0.117c0.066,0,0.121,0.051,0.121,0.117S20.422,26.457,20.355,26.457z M20.359,25.813c-0.066,0-0.121-0.055-0.121-0.121c0-0.063,0.055-0.117,0.121-0.117c0.063,0,0.117,0.055,0.117,0.117	C20.477,25.758,20.422,25.813,20.359,25.813z"/></svg>