<svg xmlns="http://www.w3.org/2000/svg" viewBox="0 0 48 48"><linearGradient id="hicvf~tQ04SAg33pmEOMUa" x1="14" x2="14" y1="96.875" y2="87.19" gradientTransform="matrix(1 0 0 -1 0 118)" gradientUnits="userSpaceOnUse"><stop offset="0" stop-color="#ffcf54"/><stop offset=".261" stop-color="#fdcb4d"/><stop offset=".639" stop-color="#f7c13a"/><stop offset="1" stop-color="#f0b421"/></linearGradient><path fill="url(#hicvf~tQ04SAg33pmEOMUa)" d="M14,22c2.209,0,4,1.791,4,4s-1.791,4-4,4s-4-1.791-4-4C10,23.791,11.791,22,14,22"/><path fill="#f3e5f5" d="M20,35H8c-0.552,0.001-0.999-0.446-1-0.998C7,34.001,7,34.001,7,34v-3	c-0.001-0.552,0.446-0.999,0.998-1C7.999,30,7.999,30,8,30h12c0.552-0.001,0.999,0.446,1,0.998c0,0.001,0,0.001,0,0.002v3	c0.001,0.552-0.446,0.999-0.998,1C20.001,35,20.001,35,20,35z"/><linearGradient id="hicvf~tQ04SAg33pmEOMUb" x1="19" x2="44" y1="89" y2="89" gradientTransform="matrix(1 0 0 -1 0 118)" gradientUnits="userSpaceOnUse"><stop offset="0" stop-color="#c965eb"/><stop offset="1" stop-color="#c767e5"/></linearGradient><path fill="url(#hicvf~tQ04SAg33pmEOMUb)" d="M44,34H19v-9c0-0.552,0.448-1,1-1h22c1.105,0,2,0.895,2,2V34z"/><linearGradient id="hicvf~tQ04SAg33pmEOMUc" x1="4" x2="44" y1="88" y2="88" gradientTransform="matrix(1 0 0 -1 0 118)" gradientUnits="userSpaceOnUse"><stop offset="0" stop-color="#7819a2"/><stop offset="1" stop-color="#771aa9"/></linearGradient><path fill="url(#hicvf~tQ04SAg33pmEOMUc)" d="M8,42H5c-0.552,0-1-0.448-1-1V20.5C4,19.119,5.119,18,6.5,18l0,0C7.881,18,9,19.119,9,20.5V33	h34c0.552,0,1,0.448,1,1v7c0,0.552-0.448,1-1,1h-3c-0.552,0-1-0.448-1-1v-3H9v3C9,41.552,8.552,42,8,42z"/><linearGradient id="hicvf~tQ04SAg33pmEOMUd" x1="26.5" x2="26.5" y1="5.234" y2="17.84" gradientUnits="userSpaceOnUse"><stop offset="0" stop-color="#33bef0"/><stop offset="1" stop-color="#0a85d9"/></linearGradient><path fill="url(#hicvf~tQ04SAg33pmEOMUd)" d="M29,14.5c0,0.276-0.224,0.5-0.5,0.5H24c-0.375,0-0.718-0.209-0.89-0.542	c-0.171-0.333-0.142-0.734,0.076-1.039L27.057,8H24.5C24.224,8,24,7.776,24,7.5v-1C24,6.224,24.224,6,24.5,6H29	c0.375,0,0.718,0.209,0.89,0.542c0.171,0.333,0.142,0.734-0.076,1.039L25.943,13H28.5c0.276,0,0.5,0.224,0.5,0.5V14.5z"/><linearGradient id="hicvf~tQ04SAg33pmEOMUe" x1="18" x2="18" y1="5.234" y2="17.84" gradientUnits="userSpaceOnUse"><stop offset="0" stop-color="#33bef0"/><stop offset="1" stop-color="#0a85d9"/></linearGradient><path fill="url(#hicvf~tQ04SAg33pmEOMUe)" d="M20,18.5c0,0.276-0.224,0.5-0.5,0.5H16c-0.375,0-0.718-0.209-0.89-0.542	c-0.171-0.333-0.142-0.734,0.076-1.039l2.87-4.019H16.5c-0.276,0-0.5-0.224-0.5-0.5v-1c0-0.276,0.224-0.5,0.5-0.5H20	c0.375,0,0.718,0.209,0.89,0.542c0.171,0.333,0.142,0.734-0.076,1.039L17.943,17H19.5c0.276,0,0.5,0.224,0.5,0.5V18.5z"/></svg>