<svg xmlns="http://www.w3.org/2000/svg" xmlns:xlink="http://www.w3.org/1999/xlink" data-name="Слой 1" viewBox="0 0 48 48"><defs><linearGradient id="zCg2OM08l2fZa5S_Y7R69a" x1="24" x2="24" y1="24.717" y2="45.981" data-name="Безымянный градиент 123" gradientUnits="userSpaceOnUse"><stop offset="0" stop-color="#f44f5a"/><stop offset=".443" stop-color="#ee3d4a"/><stop offset="1" stop-color="#e52030"/></linearGradient><linearGradient id="zCg2OM08l2fZa5S_Y7R69b" x1="24" x2="24" y1="3.587" y2="13.019" xlink:href="#zCg2OM08l2fZa5S_Y7R69a"/><linearGradient id="zCg2OM08l2fZa5S_Y7R69c" x1="24" x2="24" y1="12.457" y2="35.741" data-name="Безымянный градиент 147" gradientUnits="userSpaceOnUse"><stop offset="0" stop-color="#dfe9f2"/><stop offset=".391" stop-color="#d6e0e9"/><stop offset="1" stop-color="#bfc8d1"/></linearGradient></defs><path fill="url(#zCg2OM08l2fZa5S_Y7R69a)" d="M41,32.75H7l2.08507,5.86426A8.011,8.011,0,0,0,16.60342,44H31.39658a8.011,8.011,0,0,0,7.51835-5.38574Z"/><path fill="url(#zCg2OM08l2fZa5S_Y7R69b)" d="M31,14a.99974.99974,0,0,1-1-1,6.16264,6.16264,0,0,0-6-6,6.16264,6.16264,0,0,0-6,6,1,1,0,0,1-2,0,8,8,0,0,1,16,0A.99974.99974,0,0,1,31,14Z"/><path fill="url(#zCg2OM08l2fZa5S_Y7R69c)" d="M29.582,12H18.418a4,4,0,0,0-3.95106,3.37615L12,31H36L33.53308,15.37615A4,4,0,0,0,29.582,12Z"/><rect width="38" height="4" x="5" y="29" fill="#b31523" rx="2"/></svg>