<svg xmlns="http://www.w3.org/2000/svg" viewBox="0 0 48 48"><linearGradient id="wJaWTCIONw1j7635y5xh6a" x1="24" x2="24" y1="44.172" y2="8.452" gradientUnits="userSpaceOnUse"><stop offset="0" stop-color="#6d7882"/><stop offset="1" stop-color="#878f96"/></linearGradient><path fill="url(#wJaWTCIONw1j7635y5xh6a)" d="M43,11h-2V8c0-1.105-0.895-2-2-2H18c-1.105,0-2,0.895-2,2v3H5c-1.105,0-2,0.895-2,2v26 c0,1.105,0.895,2,2,2h38c1.105,0,2-0.895,2-2V13C45,11.895,44.105,11,43,11z"/><linearGradient id="wJaWTCIONw1j7635y5xh6b" x1="22.119" x2="26.026" y1="16.586" y2="38.221" gradientUnits="userSpaceOnUse"><stop offset="0" stop-color="#4b4b4b"/><stop offset="1" stop-color="#3b3b3b"/></linearGradient><rect width="42" height="16" x="3" y="19" fill="url(#wJaWTCIONw1j7635y5xh6b)"/><radialGradient id="wJaWTCIONw1j7635y5xh6c" cx="24" cy="-861.5" r="12" gradientTransform="matrix(1 0 0 -1 0 -834)" gradientUnits="userSpaceOnUse"><stop offset="0"/><stop offset="1" stop-opacity="0"/></radialGradient><circle cx="24" cy="27.5" r="12" fill="url(#wJaWTCIONw1j7635y5xh6c)"/><circle cx="24" cy="27" r="9" fill="#fff"/><radialGradient id="wJaWTCIONw1j7635y5xh6d" cx="19.875" cy="-856.915" r="12.389" gradientTransform="matrix(1 0 0 -1 0 -834)" gradientUnits="userSpaceOnUse"><stop offset="0" stop-color="#bd8af5"/><stop offset=".137" stop-color="#b88bf5"/><stop offset=".309" stop-color="#a88ff3"/><stop offset=".499" stop-color="#8f96f2"/><stop offset=".702" stop-color="#6b9eef"/><stop offset=".913" stop-color="#3eaaec"/><stop offset="1" stop-color="#29afea"/></radialGradient><circle cx="24" cy="27" r="6" fill="url(#wJaWTCIONw1j7635y5xh6d)"/><path fill="#0076d7" d="M14,11H7v-1c0-0.552,0.448-1,1-1h5c0.552,0,1,0.448,1,1V11z"/><circle cx="35" cy="11" r="2" fill="#eef2f3"/><path fill="#eef2f3" d="M22,13h5c1.105,0,2-0.895,2-2v0c0-1.105-0.895-2-2-2h-5c-1.105,0-2,0.895-2,2v0 C20,12.105,20.895,13,22,13z"/></svg>