<svg xmlns="http://www.w3.org/2000/svg" viewBox="0 0 48 48"><path fill="#0078d4" d="M24,4C12.954,4,4,12.954,4,24s8.954,20,20,20s20-8.954,20-20S35.046,4,24,4z"/><path fill="#199be2" d="M24,8C15.163,8,8,15.163,8,24s7.163,16,16,16s16-7.163,16-16S32.837,8,24,8z"/><path fill="#35c1f1" d="M24,13c-6.075,0-11,4.925-11,11s4.925,11,11,11s11-4.925,11-11S30.075,13,24,13z"/><path fill="#50e6ff" d="M24,18c-3.314,0-6,2.686-6,6s2.686,6,6,6s6-2.686,6-6S27.314,18,24,18z"/><path fill="#50e6ff" d="M24,2c-0.552,0-1,0.448-1,1v12c0,0.552,0.448,1,1,1s1-0.448,1-1V3C25,2.448,24.552,2,24,2z"/><path fill="#50e6ff" d="M24,32c-0.552,0-1,0.448-1,1v12c0,0.552,0.448,1,1,1s1-0.448,1-1V33C25,32.448,24.552,32,24,32z"/><path fill="#50e6ff" d="M46,24c0-0.552-0.448-1-1-1H33c-0.552,0-1,0.448-1,1s0.448,1,1,1h12C45.552,25,46,24.552,46,24z"/><path fill="#50e6ff" d="M16,24c0-0.552-0.448-1-1-1H3c-0.552,0-1,0.448-1,1s0.448,1,1,1h12C15.552,25,16,24.552,16,24z"/></svg>