<svg xmlns="http://www.w3.org/2000/svg" viewBox="0 0 48 48"><path fill="#999fa7" d="M45.828,25.438l-8.49-12.51c-0.311-0.457-0.932-0.577-1.389-0.266	c-0.457,0.31-0.576,0.932-0.266,1.389l3.327,4.902C39.008,18.97,39,18.984,39,19v18.586l-2.707,2.707	c-0.391,0.391-0.391,1.023,0,1.414s1.023,0.391,1.414,0L40,39.414l2.293,2.293C42.488,41.902,42.744,42,43,42	s0.512-0.098,0.707-0.293c0.391-0.391,0.391-1.023,0-1.414L41,37.586V21.887l3.172,4.674C44.366,26.847,44.681,27,45.001,27	c0.193,0,0.389-0.056,0.561-0.173C46.019,26.518,46.138,25.896,45.828,25.438z"/><linearGradient id="FMOjkh3nlW4WmDue~lnaTa" x1="35.408" x2="37.765" y1="10.5" y2="16.976" gradientUnits="userSpaceOnUse"><stop offset="0" stop-color="#ffd869"/><stop offset="1" stop-color="#fec52b"/></linearGradient><path fill="url(#FMOjkh3nlW4WmDue~lnaTa)" d="M40.919,11.606c-0.217-0.508-0.806-0.746-1.313-0.525l-2.729,1.169l-0.55-0.811	c-0.309-0.458-0.931-0.576-1.389-0.268c-0.457,0.311-0.577,0.932-0.267,1.389l0.333,0.492l-2.4,1.029	c-0.507,0.218-0.743,0.806-0.525,1.312C32.243,15.773,32.612,16,33,16c0.131,0,0.265-0.025,0.394-0.081l7-3	C40.901,12.701,41.137,12.113,40.919,11.606z"/><linearGradient id="FMOjkh3nlW4WmDue~lnaTb" x1="18" x2="18" y1="9.118" y2="55.799" gradientUnits="userSpaceOnUse"><stop offset="0" stop-color="#a1a7b0"/><stop offset="1" stop-color="#8f959b"/></linearGradient><path fill="url(#FMOjkh3nlW4WmDue~lnaTb)" d="M17,42c-0.256,0-0.512-0.098-0.707-0.293c-0.391-0.391-0.391-1.023,0-1.414l2-2	c0.391-0.391,1.023-0.391,1.414,0s0.391,1.023,0,1.414l-2,2C17.512,41.902,17.256,42,17,42z"/><linearGradient id="FMOjkh3nlW4WmDue~lnaTc" x1="32" x2="32" y1="9.118" y2="55.799" gradientUnits="userSpaceOnUse"><stop offset="0" stop-color="#a1a7b0"/><stop offset="1" stop-color="#8f959b"/></linearGradient><path fill="url(#FMOjkh3nlW4WmDue~lnaTc)" d="M33,42c-0.256,0-0.512-0.098-0.707-0.293l-2-2c-0.391-0.391-0.391-1.023,0-1.414	s1.023-0.391,1.414,0l2,2c0.391,0.391,0.391,1.023,0,1.414C33.512,41.902,33.256,42,33,42z"/><path fill="#999fa7" d="M12,40c-0.552,0-1-0.447-1-1v-7c0-0.553,0.448-1,1-1s1,0.447,1,1v7C13,39.553,12.552,40,12,40z"/><linearGradient id="FMOjkh3nlW4WmDue~lnaTd" x1="7.113" x2="17.488" y1="11.572" y2="40.078" gradientUnits="userSpaceOnUse"><stop offset="0" stop-color="#0d61a9"/><stop offset="1" stop-color="#16528c"/></linearGradient><rect width="14" height="18" x="5" y="16" fill="url(#FMOjkh3nlW4WmDue~lnaTd)"/><path fill="#999fa7" d="M5,42c-0.256,0-0.512-0.098-0.707-0.293c-0.391-0.39-0.391-1.023,0-1.414	C4.749,39.837,5,39.23,5,38.586V34c0-0.553,0.448-1,1-1s1,0.447,1,1v4.586c0,1.179-0.459,2.287-1.292,3.121	C5.512,41.902,5.256,42,5,42z"/><linearGradient id="FMOjkh3nlW4WmDue~lnaTe" x1="12" x2="12" y1="12.875" y2="43.886" gradientUnits="userSpaceOnUse"><stop offset="0" stop-color="#199ae0"/><stop offset="1" stop-color="#0782d8"/></linearGradient><path fill="url(#FMOjkh3nlW4WmDue~lnaTe)" d="M20,34c0,0.55-0.45,1-1,1H5c-0.55,0-1-0.45-1-1s0.45-1,1-1h14C19.55,33,20,33.45,20,34z"/><radialGradient id="FMOjkh3nlW4WmDue~lnaTf" cx="24.978" cy="30.989" r="11.98" gradientUnits="userSpaceOnUse"><stop offset=".915" stop-opacity=".2"/><stop offset="1" stop-opacity="0"/></radialGradient><path fill="url(#FMOjkh3nlW4WmDue~lnaTf)" d="M20,34c0,0.55-0.45,1-1,1h-5.31c-0.12-0.32-0.23-0.66-0.31-1c-0.09-0.33-0.16-0.66-0.21-1	C13.06,32.35,13,31.68,13,31c0-4.45,2.42-8.33,6-10.4V33C19.55,33,20,33.45,20,34z"/><linearGradient id="FMOjkh3nlW4WmDue~lnaTg" x1="12" x2="12" y1="12.875" y2="43.886" gradientUnits="userSpaceOnUse"><stop offset="0" stop-color="#199ae0"/><stop offset="1" stop-color="#0782d8"/></linearGradient><path fill="url(#FMOjkh3nlW4WmDue~lnaTg)" d="M19,17H5c-0.552,0-1-0.448-1-1v0c0-0.552,0.448-1,1-1h14c0.552,0,1,0.448,1,1v0	C20,16.552,19.552,17,19,17z"/><linearGradient id="FMOjkh3nlW4WmDue~lnaTh" x1="25" x2="25" y1="18.5" y2="41.794" gradientUnits="userSpaceOnUse"><stop offset="0" stop-color="#199ae0"/><stop offset="1" stop-color="#0782d8"/></linearGradient><circle cx="25" cy="31" r="11" fill="url(#FMOjkh3nlW4WmDue~lnaTh)"/><circle cx="25" cy="31" r="9" fill="#50e6ff"/></svg>