<svg xmlns="http://www.w3.org/2000/svg" viewBox="0 0 48 48"><linearGradient id="anrO1NmP~mfbIJA0K7v3aa" x1="13.633" x2="30.84" y1="6.432" y2="35.869" gradientUnits="userSpaceOnUse"><stop offset="0" stop-color="#5c65d6"/><stop offset=".999" stop-color="#464eb0"/></linearGradient><path fill="url(#anrO1NmP~mfbIJA0K7v3aa)" d="M21.06,3.111c-0.581-0.609-1.55-0.62-2.146-0.025L7,15l0.323,0.639l0.209,0.755l0.516,0.797	l0.959,1.099c0.124,0.142,0.22,0.306,0.283,0.483l0.321,0.901l0.354,0.388L11,21.02c0.116,0.107,0.248,0.195,0.391,0.261	l0.677,0.312c0.091,0.042,0.185,0.074,0.282,0.097l1.138,0.269c0.113,0.027,0.229,0.04,0.345,0.04h0.546	c0.398,0,0.779,0.158,1.061,0.439l0.121,0.121C15.842,22.842,16,23.223,16,23.621v1.025c0,0.233,0.054,0.463,0.158,0.671L17,27	h0.559L18,29h1v-1l2,1v1l0.934,3.034C21.978,33.177,22,33.326,22,33.476V34.5c0,0.828-0.672,1.5-1.5,1.5h0	c-0.828,0-1.5,0.672-1.5,1.5l0,0l1,0.5v1.512c0,0.317,0.1,0.626,0.287,0.882l0.235,0.323c0.298,0.41,0.369,0.943,0.189,1.416	l-0.613,1.608C20.033,43.913,20,44.094,20,44.276V46l20.011-20.964c0.553-0.58,0.553-1.492,0-2.071L21.06,3.111z"/></svg>