<svg xmlns="http://www.w3.org/2000/svg" viewBox="0 0 48 48"><linearGradient id="_qj2~ebckRwyS34ouHgfia" x1="32" x2="32" y1="8.902" y2="13.609" gradientUnits="userSpaceOnUse"><stop offset="0" stop-color="#889097"/><stop offset=".332" stop-color="#868e95"/><stop offset=".523" stop-color="#7d868e"/><stop offset=".678" stop-color="#6f7982"/><stop offset=".814" stop-color="#5c6770"/><stop offset=".894" stop-color="#4c5963"/></linearGradient><path fill="url(#_qj2~ebckRwyS34ouHgfia)" d="M34,14h-4v-4c0-0.552,0.448-1,1-1h2c0.552,0,1,0.448,1,1V14z"/><linearGradient id="_qj2~ebckRwyS34ouHgfib" x1="11.172" x2="19.627" y1="6.735" y2="29.964" gradientUnits="userSpaceOnUse"><stop offset="0" stop-color="#6d6d6d"/><stop offset=".126" stop-color="#626262"/><stop offset=".886" stop-color="#464646"/><stop offset="1" stop-color="#454545"/></linearGradient><path fill="url(#_qj2~ebckRwyS34ouHgfib)" d="M16,34L16,34c-0.552,0-1-0.448-1-1V7c0-0.552,0.448-1,1-1h0c0.552,0,1,0.448,1,1v26	C17,33.552,16.552,34,16,34z"/><linearGradient id="_qj2~ebckRwyS34ouHgfic" x1="25.221" x2="37.982" y1="10.464" y2="45.525" gradientUnits="userSpaceOnUse"><stop offset="0" stop-color="#faa0bd"/><stop offset="1" stop-color="#fa67a6"/></linearGradient><path fill="url(#_qj2~ebckRwyS34ouHgfic)" d="M35,45h-6c-1.105,0-2-0.895-2-2V15c0-0.552,0.448-1,1-1h8c0.552,0,1,0.448,1,1v28	C37,44.105,36.105,45,35,45z"/><linearGradient id="_qj2~ebckRwyS34ouHgfid" x1="11.985" x2="20.52" y1="26.557" y2="50.007" gradientUnits="userSpaceOnUse"><stop offset="0" stop-color="#889097"/><stop offset="1" stop-color="#4c5963"/></linearGradient><path fill="url(#_qj2~ebckRwyS34ouHgfid)" d="M19,45h-6c-1.105,0-2-0.895-2-2V32c0-0.552,0.448-1,1-1h8c0.552,0,1,0.448,1,1v11	C21,44.105,20.105,45,19,45z"/><linearGradient id="_qj2~ebckRwyS34ouHgfie" x1="25.184" x2="38.193" y1="10.776" y2="18.287" gradientUnits="userSpaceOnUse"><stop offset="0" stop-color="#889097"/><stop offset="1" stop-color="#4c5963"/></linearGradient><path fill="url(#_qj2~ebckRwyS34ouHgfie)" d="M37,16H27v-2c0-0.552,0.448-1,1-1h8c0.552,0,1,0.448,1,1V16z"/><linearGradient id="_qj2~ebckRwyS34ouHgfif" x1="14.657" x2="17.604" y1="3.308" y2="11.406" gradientUnits="userSpaceOnUse"><stop offset="0" stop-color="#faa0bd"/><stop offset="1" stop-color="#fa67a6"/></linearGradient><path fill="url(#_qj2~ebckRwyS34ouHgfif)" d="M17.5,11h-3c-0.276,0-0.5-0.224-0.5-0.5V6c0-0.315,0.148-0.611,0.4-0.8l2.817-2.112	C17.548,2.86,18,3.097,18,3.5v7C18,10.776,17.776,11,17.5,11z"/></svg>