<svg xmlns="http://www.w3.org/2000/svg" viewBox="0 0 48 48"><path fill="#199be2" d="M6.5,32C5.672,32,5,32.672,5,33.5S5.672,35,6.5,35S8,34.328,8,33.5S7.328,32,6.5,32z"/><path fill="#199be2" d="M24.998,28l-5.322-3.64l-4.758,6.104L6.5,32v3l8.774,0.183c0.468,0.01,0.925-0.145,1.291-0.438	L24.998,28z"/><circle cx="39.5" cy="23.5" r="1.5" fill="#199be2"/><path fill="#199be2" d="M39.5,25h-6.516c-0.545,0-1.066-0.222-1.443-0.615l-5.142-5.356l3.156-4.108l4.388,6.389L39.5,22V25z"/><linearGradient id="D7yW2xXA7YNJdaf1cXMLQa" x1="29" x2="37" y1="8" y2="8" gradientUnits="userSpaceOnUse"><stop offset="0" stop-color="#ffcf54"/><stop offset=".261" stop-color="#fdcb4d"/><stop offset=".639" stop-color="#f7c13a"/><stop offset="1" stop-color="#f0b421"/></linearGradient><path fill="url(#D7yW2xXA7YNJdaf1cXMLQa)" d="M29,8c0,2.208,1.79,4,3.998,4C35.211,12,37,10.208,37,8s-1.789-4-4.002-4	C30.79,4,29,5.792,29,8z"/><path fill="#35c1f1" d="M23,16c0,2.208,1.79,4,3.998,4C29.211,20,31,18.208,31,16s-1.789-4-4.002-4C24.79,12,23,13.792,23,16	z"/><path fill="#35c1f1" d="M18,25c0,2.208,1.79,4,3.998,4C24.211,29,26,27.208,26,25s-1.789-4-4.002-4C19.79,21,18,22.792,18,25	z"/><path fill="#35c1f1" d="M28.5,41c-0.828,0-1.5,0.672-1.5,1.5s0.672,1.5,1.5,1.5s1.5-0.672,1.5-1.5S29.328,41,28.5,41z"/><path fill="#35c1f1" d="M30.591,17.765l-6.819-3.911l-5.364,9.387l0.629,4.443l5.862,5.837l2.152,9.366l2.945-0.488	l-0.639-10.204c-0.016-0.256-0.081-0.506-0.191-0.737l-2.86-5.988L30.591,17.765z"/><path fill="#35c1f1" d="M11.5,17c-0.828,0-1.5,0.672-1.5,1.5s0.672,1.5,1.5,1.5c0.828,0,1.5-0.672,1.5-1.5S12.328,17,11.5,17	z"/><path fill="#35c1f1" d="M26.998,12h-8.822c-0.441,0-0.87,0.146-1.219,0.415l-6.447,4.958l1.751,2.418l6.147-3.596	l7.723,0.438L26.998,12z"/></svg>