<svg xmlns="http://www.w3.org/2000/svg" viewBox="0 0 48 48"><linearGradient id="Gw0vqdeoJCmsv_FBP~Cc2a" x1="31.096" x2="42.161" y1="-1239.761" y2="-1257.764" gradientTransform="matrix(1 0 0 -1 0 -1237.89)" gradientUnits="userSpaceOnUse"><stop offset="0" stop-color="#21ad64"/><stop offset="1" stop-color="#088242"/></linearGradient><path fill="url(#Gw0vqdeoJCmsv_FBP~Cc2a)" d="M45,3H29c-1.105,0-2,0.895-2,2v11c0,1.105,0.895,2,2,2h1v5.257 c0,0.502,0.644,0.65,0.924,0.265L35,18h10c1.105,0,2-0.895,2-2V5C47,3.895,46.105,3,45,3z"/><radialGradient id="Gw0vqdeoJCmsv_FBP~Cc2b" cx="15.789" cy="-1262.339" r="11.736" gradientTransform="matrix(1 0 0 -1 0 -1237.89)" gradientUnits="userSpaceOnUse"><stop offset=".376" stop-color="#261103"/><stop offset=".68" stop-color="#431d06"/><stop offset="1" stop-color="#662c09"/></radialGradient><path fill="url(#Gw0vqdeoJCmsv_FBP~Cc2b)" d="M16,13.83c-8.814,0-11,14.232-11,14.232c0,2.534,1.177,4.754,3.641,5.342 c2.11,0.504,4.766,0.971,7.359,0.971s5.248-0.467,7.359-0.971C25.823,32.816,27,30.595,27,28.062C27,28.062,24.814,13.83,16,13.83 z"/><linearGradient id="Gw0vqdeoJCmsv_FBP~Cc2c" x1="13.113" x2="16.911" y1="-1269.446" y2="-1282.51" gradientTransform="matrix(1 0 0 -1 0 -1237.89)" gradientUnits="userSpaceOnUse"><stop offset="0" stop-color="#33bef0"/><stop offset="1" stop-color="#0a85d9"/></linearGradient><path fill="url(#Gw0vqdeoJCmsv_FBP~Cc2c)" d="M16,32c-7.732,0-14,4.556-14,9.25v1C2,43.216,2.784,44,3.75,44h24.5 c0.966,0,1.75-0.784,1.75-1.75v-1C30,36.556,23.732,32,16,32z"/><path fill="#d6a121" d="M20,35.8c0,1.518-1.6,3.2-4,3.2s-4-1.682-4-3.2c0-2.11,0-5.628,0-5.628h8 C20,30.172,20,33.69,20,35.8z"/><radialGradient id="Gw0vqdeoJCmsv_FBP~Cc2d" cx="-882.874" cy="-1291.776" r="9.38" gradientTransform="matrix(-.9136 0 0 -.9667 -790.594 -1225.23)" gradientUnits="userSpaceOnUse"><stop offset="0" stop-color="#ffcf54"/><stop offset=".261" stop-color="#fdcb4d"/><stop offset=".639" stop-color="#f7c13a"/><stop offset="1" stop-color="#f0b421"/></radialGradient><path fill="url(#Gw0vqdeoJCmsv_FBP~Cc2d)" d="M16,13.062c3.454,0,7,0.606,7,8.507c0,0.632,0,5.019,0,5.695C23,30.085,18.713,34,16,34 s-7-3.915-7-6.736c0-0.675,0-5.062,0-5.695C9,13.875,12.546,13.062,16,13.062z"/><radialGradient id="Gw0vqdeoJCmsv_FBP~Cc2e" cx="9.979" cy="-1248.31" r="28.154" gradientTransform="matrix(1 0 0 -1 0 -1237.89)" gradientUnits="userSpaceOnUse"><stop offset="0" stop-color="#c26715"/><stop offset=".508" stop-color="#b85515"/><stop offset="1" stop-color="#ad3f16"/></radialGradient><path fill="url(#Gw0vqdeoJCmsv_FBP~Cc2e)" d="M16,10c-4.54,0-5,3-5,3c-1.846,0.272-6,0.207-6,15c0,3.533,1.613,4.625,2.731,5.088 C4.662,21.544,13.379,22.906,12,15c3.54,10.336,15.558,3.338,12.269,18.088C25.985,32.362,27,30.186,27,28 C27,15.92,22.474,10,16,10z"/></svg>