<svg xmlns="http://www.w3.org/2000/svg" baseProfile="basic" viewBox="0 0 48 48"><linearGradient id="5jLtzIQRyYaWvt6uf02STa" x1="8.663" x2="38.122" y1="425.941" y2="401.085" gradientTransform="matrix(1 0 0 -1 0 434)" gradientUnits="userSpaceOnUse"><stop offset="0" stop-color="#a1aab3"/><stop offset="1" stop-color="#8f979e"/></linearGradient><path fill="url(#5jLtzIQRyYaWvt6uf02STa)" d="M41,35H7c-1.105,0-2-0.895-2-2V9c0-1.105,0.895-2,2-2h34c1.105,0,2,0.895,2,2v24	C43,34.105,42.105,35,41,35z"/><radialGradient id="5jLtzIQRyYaWvt6uf02STb" cx="138.411" cy="346.534" r="86.245" gradientTransform="matrix(.8095 0 0 -.7188 -64.961 308.023)" gradientUnits="userSpaceOnUse"><stop offset=".323" stop-color="#23d9d6"/><stop offset=".427" stop-color="#23d4d7"/><stop offset=".542" stop-color="#21c7dc"/><stop offset=".664" stop-color="#1fb0e2"/><stop offset=".789" stop-color="#1c91ec"/><stop offset=".917" stop-color="#1969f8"/><stop offset=".944" stop-color="#1860fb"/></radialGradient><rect width="34" height="24" x="7" y="9" fill="url(#5jLtzIQRyYaWvt6uf02STb)"/><linearGradient id="5jLtzIQRyYaWvt6uf02STc" x1="24" x2="24" y1="399.015" y2="391.986" gradientTransform="matrix(1 0 0 -1 0 434)" gradientUnits="userSpaceOnUse"><stop offset="0" stop-color="#484b4f"/><stop offset=".23" stop-color="#656d75"/><stop offset=".367" stop-color="#727d86"/></linearGradient><path fill="url(#5jLtzIQRyYaWvt6uf02STc)" d="M33,38h-5v-3h-8v3h-5c-0.552,0-1,0.448-1,1v2c0,0.552,0.448,1,1,1h18c0.552,0,1-0.448,1-1v-2	C34,38.448,33.552,38,33,38z"/><path d="M4.892,29V12h24c1.654,0,3,1.346,3,3v11c0,1.654-1.346,3-3,3H4.892z" opacity=".05"/><path d="M4.892,28.5v-16h24c1.379,0,2.5,1.122,2.5,2.5v11c0,1.378-1.121,2.5-2.5,2.5H4.892z" opacity=".07"/><linearGradient id="5jLtzIQRyYaWvt6uf02STd" x1="11.395" x2="19.277" y1="421.774" y2="405.888" gradientTransform="matrix(1 0 0 -1 0 434)" gradientUnits="userSpaceOnUse"><stop offset="0" stop-color="#899198"/><stop offset="1" stop-color="#787e85"/></linearGradient><path fill="url(#5jLtzIQRyYaWvt6uf02STd)" d="M31,26V15c0-1.105-0.895-2-2-2H2c-1.105,0-2,0.895-2,2v11c0,1.105,0.895,2,2,2h27	C30.105,28,31,27.105,31,26z"/><path fill="#cad2d9" d="M2,17.5v-2C2,15.224,2.224,15,2.5,15h2C4.776,15,5,15.224,5,15.5v2C5,17.776,4.776,18,4.5,18h-2	C2.224,18,2,17.776,2,17.5z"/><path fill="#cad2d9" d="M6,17.5v-2C6,15.224,6.224,15,6.5,15h2C8.776,15,9,15.224,9,15.5v2C9,17.776,8.776,18,8.5,18h-2	C6.224,18,6,17.776,6,17.5z"/><path fill="#cad2d9" d="M10,17.5v-2c0-0.276,0.224-0.5,0.5-0.5h2c0.276,0,0.5,0.224,0.5,0.5v2c0,0.276-0.224,0.5-0.5,0.5h-2	C10.224,18,10,17.776,10,17.5z"/><path fill="#cad2d9" d="M14,17.5v-2c0-0.276,0.224-0.5,0.5-0.5h2c0.276,0,0.5,0.224,0.5,0.5v2c0,0.276-0.224,0.5-0.5,0.5h-2	C14.224,18,14,17.776,14,17.5z"/><path fill="#cad2d9" d="M18,17.5v-2c0-0.276,0.224-0.5,0.5-0.5h2c0.276,0,0.5,0.224,0.5,0.5v2c0,0.276-0.224,0.5-0.5,0.5h-2	C18.224,18,18,17.776,18,17.5z"/><path fill="#cad2d9" d="M22,17.5v-2c0-0.276,0.224-0.5,0.5-0.5h2c0.276,0,0.5,0.224,0.5,0.5v2c0,0.276-0.224,0.5-0.5,0.5h-2	C22.224,18,22,17.776,22,17.5z"/><path fill="#cad2d9" d="M26,17.5v-2c0-0.276,0.224-0.5,0.5-0.5h2c0.276,0,0.5,0.224,0.5,0.5v2c0,0.276-0.224,0.5-0.5,0.5h-2	C26.224,18,26,17.776,26,17.5z"/><path fill="#cad2d9" d="M2,25.5v-2C2,23.224,2.224,23,2.5,23h2C4.776,23,5,23.224,5,23.5v2C5,25.776,4.776,26,4.5,26h-2	C2.224,26,2,25.776,2,25.5z"/><path fill="#cad2d9" d="M6,25.5v-2C6,23.224,6.224,23,6.5,23h2C8.776,23,9,23.224,9,23.5v2C9,25.776,8.776,26,8.5,26h-2	C6.224,26,6,25.776,6,25.5z"/><path fill="#cad2d9" d="M10,25.5v-2c0-0.276,0.224-0.5,0.5-0.5h10c0.276,0,0.5,0.224,0.5,0.5v2c0,0.276-0.224,0.5-0.5,0.5	h-10C10.224,26,10,25.776,10,25.5z"/><path fill="#cad2d9" d="M22,25.5v-2c0-0.276,0.224-0.5,0.5-0.5h2c0.276,0,0.5,0.224,0.5,0.5v2c0,0.276-0.224,0.5-0.5,0.5h-2	C22.224,26,22,25.776,22,25.5z"/><path fill="#cad2d9" d="M26,25.5v-2c0-0.276,0.224-0.5,0.5-0.5h2c0.276,0,0.5,0.224,0.5,0.5v2c0,0.276-0.224,0.5-0.5,0.5h-2	C26.224,26,26,25.776,26,25.5z"/><path fill="#cad2d9" d="M2,21.5v-2C2,19.224,2.224,19,2.5,19h4C6.776,19,7,19.224,7,19.5v2C7,21.776,6.776,22,6.5,22h-4	C2.224,22,2,21.776,2,21.5z"/><path fill="#cad2d9" d="M8,21.5v-2C8,19.224,8.224,19,8.5,19h2c0.276,0,0.5,0.224,0.5,0.5v2c0,0.276-0.224,0.5-0.5,0.5h-2	C8.224,22,8,21.776,8,21.5z"/><path fill="#cad2d9" d="M12,21.5v-2c0-0.276,0.224-0.5,0.5-0.5h2c0.276,0,0.5,0.224,0.5,0.5v2c0,0.276-0.224,0.5-0.5,0.5h-2	C12.224,22,12,21.776,12,21.5z"/><path fill="#cad2d9" d="M16,21.5v-2c0-0.276,0.224-0.5,0.5-0.5h2c0.276,0,0.5,0.224,0.5,0.5v2c0,0.276-0.224,0.5-0.5,0.5h-2	C16.224,22,16,21.776,16,21.5z"/><path fill="#cad2d9" d="M20,21.5v-2c0-0.276,0.224-0.5,0.5-0.5h2c0.276,0,0.5,0.224,0.5,0.5v2c0,0.276-0.224,0.5-0.5,0.5h-2	C20.224,22,20,21.776,20,21.5z"/><path fill="#cad2d9" d="M24,21.5v-2c0-0.276,0.224-0.5,0.5-0.5h4c0.276,0,0.5,0.224,0.5,0.5v2c0,0.276-0.224,0.5-0.5,0.5h-4	C24.224,22,24,21.776,24,21.5z"/></svg>