<svg xmlns="http://www.w3.org/2000/svg" viewBox="0 0 48 48"><path fill="#50e6ff" d="M39,7v34c0,1.105-0.895,2-2,2H11c-1.105,0-2-0.895-2-2V7c0-1.105,0.895-2,2-2h26	C38.105,5,39,5.895,39,7z"/><path fill="#35c1f1" d="M33,38H15c-0.552,0-1-0.448-1-1V25c0-0.552,0.448-1,1-1h18c0.552,0,1,0.448,1,1v12	C34,37.552,33.552,38,33,38z"/><path fill="#35c1f1" d="M22,11h-7c-0.552,0-1,0.448-1,1v8c0,0.552,0.448,1,1,1h7c0.552,0,1-0.448,1-1v-8	C23,11.448,22.552,11,22,11z"/><path fill="#35c1f1" d="M33,11h-7c-0.552,0-1,0.448-1,1v8c0,0.552,0.448,1,1,1h7c0.552,0,1-0.448,1-1v-8	C34,11.448,33.552,11,33,11z"/></svg>