<svg xmlns="http://www.w3.org/2000/svg" viewBox="0 0 48 48"><path fill="#50e6ff" d="M39,7v34c0,1.105-0.895,2-2,2H11c-1.105,0-2-0.895-2-2V7c0-1.105,0.895-2,2-2h26	C38.105,5,39,5.895,39,7z"/><circle cx="17" cy="13" r="2" fill="#057093"/><path fill="#057093" d="M17,16c-1.657,0-3,1.343-3,3v1.4c0,0.331,0.269,0.6,0.6,0.6h4.8c0.331,0,0.6-0.269,0.6-0.6V19	C20,17.343,18.657,16,17,16z"/><path fill="#057093" d="M33,28H21c-0.552,0-1,0.448-1,1l0,0c0,0.552,0.448,1,1,1h12c0.552,0,1-0.448,1-1l0,0	C34,28.448,33.552,28,33,28z"/><path fill="#057093" d="M33,24H17c-0.552,0-1,0.448-1,1l0,0c0,0.552,0.448,1,1,1h16c0.552,0,1-0.448,1-1l0,0	C34,24.448,33.552,24,33,24z"/><path fill="#057093" d="M33,36H17c-0.552,0-1,0.448-1,1l0,0c0,0.552,0.448,1,1,1h16c0.552,0,1-0.448,1-1l0,0	C34,36.448,33.552,36,33,36z"/><path fill="#057093" d="M33,32H21c-0.552,0-1,0.448-1,1l0,0c0,0.552,0.448,1,1,1h12c0.552,0,1-0.448,1-1l0,0	C34,32.448,33.552,32,33,32z"/><path fill="#057093" d="M33,16h-8c-0.552,0-1,0.448-1,1l0,0c0,0.552,0.448,1,1,1h8c0.552,0,1-0.448,1-1l0,0	C34,16.448,33.552,16,33,16z"/><path fill="#057093" d="M33,12h-8c-0.552,0-1,0.448-1,1l0,0c0,0.552,0.448,1,1,1h8c0.552,0,1-0.448,1-1l0,0	C34,12.448,33.552,12,33,12z"/><linearGradient id="shaK4rHlLAgEcxqn9wATra" x1="-159.323" x2="-159.323" y1="219.996" y2="233.416" gradientTransform="rotate(90 24 214.323)" gradientUnits="userSpaceOnUse"><stop offset="0" stop-color="#c965eb"/><stop offset="1" stop-color="#c767e5"/></linearGradient><path fill="url(#shaK4rHlLAgEcxqn9wATra)" d="M12,25.607V29H6c-0.552,0-1,0.448-1,1v2c0,0.552,0.448,1,1,1h6v3.393	c0,0.54,0.653,0.81,1.034,0.428l4.964-4.964c0.473-0.473,0.473-1.241,0-1.714l-4.964-4.964C12.653,24.797,12,25.067,12,25.607z"/></svg>