<svg xmlns="http://www.w3.org/2000/svg" viewBox="0 0 48 48"><path fill="#50e6ff" d="M39,16v25c0,1.105-0.895,2-2,2H11c-1.105,0-2-0.895-2-2V7c0-1.105,0.895-2,2-2h17L39,16z"/><linearGradient id="rlIQegvg~Cd5wfT3wb6cVa" x1="28.529" x2="33.6" y1="374.529" y2="379.6" gradientTransform="matrix(1 0 0 -1 0 390)" gradientUnits="userSpaceOnUse"><stop offset="0" stop-color="#3079d6"/><stop offset="1" stop-color="#297cd2"/></linearGradient><path fill="url(#rlIQegvg~Cd5wfT3wb6cVa)" d="M28,5v9c0,1.105,0.895,2,2,2h9L28,5z"/><linearGradient id="rlIQegvg~Cd5wfT3wb6cVb" x1="15" x2="30.551" y1="362" y2="362" gradientTransform="matrix(1 0 0 -1 0 390)" gradientUnits="userSpaceOnUse"><stop offset="0" stop-color="#42a3f2"/><stop offset="1" stop-color="#42a4eb"/></linearGradient><path fill="url(#rlIQegvg~Cd5wfT3wb6cVb)" d="M24,19c-4.949,0-9,4.051-9,9s4.051,9,9,9c2.6,0,4.949-1.1,6.551-2.849L24,28V19z"/><linearGradient id="rlIQegvg~Cd5wfT3wb6cVc" x1="24" x2="33" y1="366.5" y2="366.5" gradientTransform="matrix(1 0 0 -1 0 390)" gradientUnits="userSpaceOnUse"><stop offset="0" stop-color="#3079d6"/><stop offset="1" stop-color="#297cd2"/></linearGradient><path fill="url(#rlIQegvg~Cd5wfT3wb6cVc)" d="M33,28c0-4.949-4.051-9-9-9v9H33z"/><linearGradient id="rlIQegvg~Cd5wfT3wb6cVd" x1="24" x2="33" y1="358.925" y2="358.925" gradientTransform="matrix(1 0 0 -1 0 390)" gradientUnits="userSpaceOnUse"><stop offset="0" stop-color="#1d59b3"/><stop offset="1" stop-color="#195bbc"/></linearGradient><path fill="url(#rlIQegvg~Cd5wfT3wb6cVd)" d="M24,28l6.551,6.151C32.051,32.551,33,30.4,33,28H24z"/><path d="M32,43h7V29h-4c-1.657,0-3,1.343-3,3V43z" opacity=".05"/><path d="M33,43h6V30h-4c-1.105,0-2,0.895-2,2V43z" opacity=".07"/><linearGradient id="rlIQegvg~Cd5wfT3wb6cVe" x1="34.72" x2="46.748" y1="31.116" y2="47.173" gradientUnits="userSpaceOnUse"><stop offset="0" stop-color="#a8e1f3"/><stop offset=".754" stop-color="#5ebcd9"/><stop offset="1" stop-color="#45b0d0"/></linearGradient><path fill="url(#rlIQegvg~Cd5wfT3wb6cVe)" d="M46,48H35c-0.552,0-1-0.448-1-1V32c0-0.552,0.448-1,1-1h12c0.552,0,1,0.448,1,1v14	C48,47.105,47.105,48,46,48z"/><linearGradient id="rlIQegvg~Cd5wfT3wb6cVf" x1="39" x2="39" y1="45.171" y2="48.006" gradientUnits="userSpaceOnUse"><stop offset="0" stop-color="#0176d0"/><stop offset="1" stop-color="#16538c"/></linearGradient><path fill="url(#rlIQegvg~Cd5wfT3wb6cVf)" d="M44,46L44,46c0-0.552-0.448-1-1-1H33c-0.552,0-1,0.448-1,1v0c0,1.105,0.895,2,2,2h12h0	C44.895,48,44,47.105,44,46z"/></svg>