<svg xmlns="http://www.w3.org/2000/svg" viewBox="0 0 48 48"><radialGradient id="2HPLHkGnjAN5rI8AfHSAua" cx="6.647" cy="29.882" r="55.249" gradientUnits="userSpaceOnUse"><stop offset="0" stop-color="#f09701"/><stop offset="1" stop-color="#e36001"/></radialGradient><ellipse cx="24" cy="27.5" fill="url(#2HPLHkGnjAN5rI8AfHSAua)" rx="19" ry="17.5"/><path fill="#185c37" d="M26.36,20.175C28.552,14.751,24,10,24,10l-6.743,16.689C17.257,26.689,24.169,25.599,26.36,20.175z"/><path fill="#107c42" d="M24,10c0,0-6.406-0.161-8.766,5.68s2.023,11.01,2.023,11.01L24,10z"/><radialGradient id="2HPLHkGnjAN5rI8AfHSAub" cx="15.876" cy="7.282" r="9.998" gradientUnits="userSpaceOnUse"><stop offset=".841" stop-opacity=".2"/><stop offset="1" stop-opacity="0"/></radialGradient><path fill="url(#2HPLHkGnjAN5rI8AfHSAub)" d="M24,10c0,0-6.406-0.161-8.766,5.68c-2.36,5.841,2.023,11.01,2.023,11.01	s6.912-1.09,9.103-6.514C28.552,14.751,24,10,24,10z"/><path fill="#21a366" d="M15.45,16C21.3,16,24,10,24,10H6C6,10,9.6,16,15.45,16z"/><path fill="#33c481" d="M24,10c0,0-2.25-6-8.55-6S6,10,6,10H24z"/><circle cx="35" cy="19" r="1" fill="#c2620e"/><circle cx="38" cy="23" r="1" fill="#c2620e"/><circle cx="33" cy="23" r="1" fill="#c2620e"/></svg>