<svg xmlns="http://www.w3.org/2000/svg" viewBox="0 0 48 48"><path fill="#0078d4" d="M19,18.3l-2.8,2.8l18.4,18.4c0.8,0.8,2,0.8,2.8,0l0,0c0.8-0.8,0.8-2,0-2.8L19,18.3z"/><path fill="#0078d4" d="M15.9,26.5l5.7-5.7L7.7,7L7.1,7.5c-2.8,2.8-2.8,7.4,0,10.2L15.9,26.5z"/><path fill="#35c1f1" d="M31.1,21.7l-2.8-2.8L10.4,36.7c-0.8,0.8-0.8,2,0,2.8l0,0c0.8,0.8,2,0.8,2.8,0L31.1,21.7z"/><path fill="#35c1f1" d="M40.953,8.984c-3.124-3.124-8.823-2.491-12.728,1.414s-4.539,9.604-1.414,12.728	s8.823,2.491,12.728-1.414S44.077,12.108,40.953,8.984z"/></svg>