<svg xmlns="http://www.w3.org/2000/svg" viewBox="0 0 48 48"><linearGradient id="lKV8AaBqB4NjnpFaG8rnYa" x1="24" x2="24" y1="20.957" y2="19.199" gradientUnits="userSpaceOnUse"><stop offset="0" stop-color="#484b4f"/><stop offset=".23" stop-color="#656d75"/><stop offset=".367" stop-color="#727d86"/></linearGradient><path fill="url(#lKV8AaBqB4NjnpFaG8rnYa)" d="M30,22.142h-2V20c0-2.206-1.794-4-4-4s-4,1.794-4,4v1.958h-2V20c0-3.309,2.691-6,6-6 s6,2.691,6,6V22.142z"/><path fill="#199be2" d="M40.791,26.658c-1.342,8.546-9.048,14.979-18.116,14.291c-8.415-0.638-15.208-7.606-15.65-16.033	C6.509,15.112,14.307,7,24,7c2.858,0,5.547,0.713,7.911,1.959l2.196-2.196c-7.681-4.511-17.718-3.48-24.295,3.136	c-7.391,7.437-7.718,19.65-0.707,27.448c7.727,8.594,20.97,8.858,29.035,0.792c3.162-3.162,5.04-7.121,5.64-11.231	c0.087-0.592-0.395-1.117-0.993-1.117h-1.009C41.277,25.791,40.868,26.164,40.791,26.658z"/><path fill="#199be2" d="M33.901,2.176l3.596,7.69c0.228,0.488-0.067,1.059-0.597,1.156l-8.352,1.521	c-0.671,0.122-1.19-0.579-0.876-1.185l4.756-9.211C32.741,1.542,33.612,1.559,33.901,2.176z"/><path fill="#c48c00" d="M32.25,33h-16.5C15.336,33,15,32.664,15,32.25V30h18v2.25C33,32.664,32.664,33,32.25,33z"/><rect width="18" height="3" x="15" y="27" fill="#e3a600"/><rect width="18" height="3" x="15" y="24" fill="#edbe00"/><path fill="#fad500" d="M33,24H15v-2.25c0-0.414,0.336-0.75,0.75-0.75h16.5c0.414,0,0.75,0.336,0.75,0.75V24z"/><linearGradient id="lKV8AaBqB4NjnpFaG8rnYb" x1="24" x2="24" y1="29.851" y2="24.766" gradientUnits="userSpaceOnUse"><stop offset="0" stop-color="#4b4b4b"/><stop offset="1" stop-color="#3b3b3b"/></linearGradient><path fill="url(#lKV8AaBqB4NjnpFaG8rnYb)" d="M26,26c0-1.105-0.895-2-2-2s-2,0.895-2,2c0,0.738,0.405,1.376,1,1.723V30c0,0.552,0.448,1,1,1	s1-0.448,1-1v-2.277C25.595,27.376,26,26.738,26,26z"/></svg>