<svg xmlns="http://www.w3.org/2000/svg" data-name="Слой 1" viewBox="0 0 48 48"><defs><linearGradient id="fLy1RMmCARs540zgMUDuea" x1="10.531" x2="27.482" y1="4.992" y2="51.563" data-name="Безымянный градиент 138" gradientUnits="userSpaceOnUse"><stop offset="0" stop-color="#6d6d6d"/><stop offset=".126" stop-color="#626262"/><stop offset=".987" stop-color="#464646"/><stop offset=".998" stop-color="#454545"/></linearGradient><linearGradient id="fLy1RMmCARs540zgMUDueb" x1="18.357" x2="24.573" y1="-2684.995" y2="-2720.249" data-name="Безымянный градиент 134" gradientTransform="matrix(1 0 0 -1 0 -2676)" gradientUnits="userSpaceOnUse"><stop offset="0" stop-color="#ffda1c"/><stop offset="1" stop-color="#feb705"/></linearGradient><radialGradient id="fLy1RMmCARs540zgMUDuec" cx="9.467" cy="6.38" r="34.338" data-name="Безымянный градиент 165" gradientUnits="userSpaceOnUse"><stop offset="0" stop-color="#6d6d6d"/><stop offset=".146" stop-color="#626262"/><stop offset=".987" stop-color="#464646"/><stop offset=".998" stop-color="#454545"/></radialGradient></defs><path fill="url(#fLy1RMmCARs540zgMUDuea)" d="M24.00043,4A1.96747,1.96747,0,0,0,22.2731,5.00878L1.82176,41.00568A2.00136,2.00136,0,0,0,3.54909,44H44.45078a2.001,2.001,0,0,0,1.72733-2.99432L25.72776,5.00878A1.96745,1.96745,0,0,0,24.00043,4Z"/><polygon fill="url(#fLy1RMmCARs540zgMUDueb)" points="5 41 24.001 8 43 41 5 41"/><path fill="url(#fLy1RMmCARs540zgMUDuec)" d="M31,27H30V26a1,1,0,0,0-1-1H28a1,1,0,0,0-1,1v1H21V26a1,1,0,0,0-1-1H19a1,1,0,0,0-1,1v1H17a2,2,0,0,0-2,2v8a2.00006,2.00006,0,0,0,2,2H31a2.00006,2.00006,0,0,0,2-2V29A2,2,0,0,0,31,27ZM21,34H18a1,1,0,0,1,0-2h3a1,1,0,0,1,0,2Zm9,0H29v1a1,1,0,0,1-2,0V34H26a1,1,0,0,1,0-2h1V31a1,1,0,0,1,2,0v1h1a1,1,0,0,1,0,2ZM19,23a.99943.99943,0,0,0,1-1,3.2965,3.2965,0,0,1,3-3,.99943.99943,0,0,0,1-1c0-1.43945.56055-2,2-2a1,1,0,0,0,0-2c-2.22656,0-3.62207,1.11914-3.93359,3.10547A5.32059,5.32059,0,0,0,18,22,.99943.99943,0,0,0,19,23Zm7-4c0,.34473,0,.4873-1.34766.73535C23.72559,19.90527,22,20.22266,22,22a.98532.98532,0,0,0,.99023.99316.99763.99763,0,0,0,.99024-1.00683,3.4381,3.4381,0,0,1,1.0332-.28418C26.05762,21.50977,28,21.15234,28,19a1,1,0,0,0-2,0Z"/></svg>