<svg xmlns="http://www.w3.org/2000/svg" xmlns:xlink="http://www.w3.org/1999/xlink" data-name="Слой 1" viewBox="0 0 48 48"><defs><linearGradient id="O~IeR9Ds9FRZ57Me6Mvpsc" x1="5.781" x2="45.494" y1="21.984" y2="44.912" data-name="Безымянный градиент 268" gradientUnits="userSpaceOnUse"><stop offset="0" stop-color="#ff9d47"/><stop offset="1" stop-color="#cc6c17"/></linearGradient><linearGradient id="O~IeR9Ds9FRZ57Me6Mvpsa" x1="4.318" x2="40.397" y1="14.139" y2="34.969" data-name="Безымянный градиент 269" gradientUnits="userSpaceOnUse"><stop offset="0" stop-color="#e6842e"/><stop offset=".036" stop-color="#ff9336"/><stop offset=".23" stop-color="#ea842b"/><stop offset=".514" stop-color="#d3721f"/><stop offset=".778" stop-color="#c46818"/><stop offset="1" stop-color="#bf6415"/></linearGradient><linearGradient id="O~IeR9Ds9FRZ57Me6Mvpsd" x1="7.852" x2="41.041" y1="29.757" y2="48.918" xlink:href="#O~IeR9Ds9FRZ57Me6Mvpsa"/><linearGradient id="O~IeR9Ds9FRZ57Me6Mvpsb" x1="13" x2="13" y1="9.937" y2="41.242" data-name="Безымянный градиент 267" gradientUnits="userSpaceOnUse"><stop offset="0" stop-color="#d67526"/><stop offset=".147" stop-color="#c86b1f"/><stop offset=".447" stop-color="#b35b13"/><stop offset=".736" stop-color="#a5510c"/><stop offset="1" stop-color="#a14e0a"/></linearGradient><linearGradient id="O~IeR9Ds9FRZ57Me6Mvpse" x1="35" x2="35" y1="9.937" y2="41.242" xlink:href="#O~IeR9Ds9FRZ57Me6Mvpsb"/></defs><path fill="#185c37" d="M24.5,8.0023a5.5,5.5,0,1,0,5.5,5.5A5.5,5.5,0,0,0,24.5,8.0023Zm12,6a4.5,4.5,0,1,0,4.5,4.5A4.5,4.5,0,0,0,36.5,14.0023Z"/><path fill="#107c42" d="M17,11.0023a5,5,0,1,0,5,5A5,5,0,0,0,17,11.0023Zm-8.5,7a3.5,3.5,0,1,0,3.5,3.5A3.5,3.5,0,0,0,8.5,18.0023Zm31,0a3.5,3.5,0,1,0,3.5,3.5A3.5,3.5,0,0,0,39.5,18.0023Zm-9.5-7a5,5,0,1,0,5,5A5,5,0,0,0,30,11.0023Z"/><path fill="#21a366" d="M21,16.0023a5,5,0,1,0,5,5A5,5,0,0,0,21,16.0023Z"/><path fill="#21a366" d="M13,14.0023a5,5,0,1,0,5,5A5,5,0,0,0,13,14.0023Zm21,4a4,4,0,1,0,4,4A4,4,0,0,0,34,18.0023Z"/><path fill="#33c481" d="M27.5,18.0023a3.5,3.5,0,1,0,3.5,3.5A3.5,3.5,0,0,0,27.5,18.0023Zm-12,0a2.5,2.5,0,1,0,2.5,2.5A2.5,2.5,0,0,0,15.5,18.0023Z"/><rect width="38" height="7" x="5" y="29.002" fill="url(#O~IeR9Ds9FRZ57Me6Mvpsc)"/><rect width="38" height="7" x="5" y="22.002" fill="url(#O~IeR9Ds9FRZ57Me6Mvpsa)"/><path fill="url(#O~IeR9Ds9FRZ57Me6Mvpsd)" d="M5,36.0023H43a0,0,0,0,1,0,0v5a2,2,0,0,1-2,2H7a2,2,0,0,1-2-2v-5A0,0,0,0,1,5,36.0023Z"/><path fill="url(#O~IeR9Ds9FRZ57Me6Mvpsb)" d="M12,21.0023h2a1,1,0,0,1,1,1v21a0,0,0,0,1,0,0H11a0,0,0,0,1,0,0v-21A1,1,0,0,1,12,21.0023Z"/><path fill="url(#O~IeR9Ds9FRZ57Me6Mvpse)" d="M34,21.0023h2a1,1,0,0,1,1,1v21a0,0,0,0,1,0,0H33a0,0,0,0,1,0,0v-21A1,1,0,0,1,34,21.0023Z"/></svg>