<svg xmlns="http://www.w3.org/2000/svg" viewBox="0 0 48 48"><linearGradient id="yrsRAxTyV2qAkpT7fLEm4a" x1="24" x2="24" y1="1.546" y2="67.559" gradientUnits="userSpaceOnUse"><stop offset="0" stop-color="#ffcf7b"/><stop offset=".196" stop-color="#fecd76"/><stop offset=".439" stop-color="#fac666"/><stop offset=".709" stop-color="#f3bc4d"/><stop offset=".995" stop-color="#eaad2a"/><stop offset="1" stop-color="#eaad29"/></linearGradient><path fill="url(#yrsRAxTyV2qAkpT7fLEm4a)" d="M44,31.217c0-8.837-8.954-19.2-20-19.2S4,22.38,4,31.217s8.954,12.8,20,12.8	S44,40.053,44,31.217z"/><linearGradient id="yrsRAxTyV2qAkpT7fLEm4b" x1="24" x2="24" y1="1.546" y2="67.559" gradientUnits="userSpaceOnUse"><stop offset="0" stop-color="#ffcf7b"/><stop offset=".196" stop-color="#fecd76"/><stop offset=".439" stop-color="#fac666"/><stop offset=".709" stop-color="#f3bc4d"/><stop offset=".995" stop-color="#eaad2a"/><stop offset="1" stop-color="#eaad29"/></linearGradient><path fill="url(#yrsRAxTyV2qAkpT7fLEm4b)" d="M33,9.147c-0.003-0.935-0.591-1.822-1.494-2.063c-0.498-0.133-0.961-0.059-1.359,0.13	c-0.969,0.472-2.116,0.437-3.067,0.157c-0.784-0.23-1.371-0.842-1.757-1.562C25.071,5.338,24.573,5.017,24,5.017	s-1.071,0.321-1.323,0.793c-0.385,0.72-0.973,1.332-1.757,1.562c-0.951,0.279-2.098,0.315-3.067-0.157	c-0.398-0.189-0.861-0.263-1.359-0.13C15.591,7.325,15.002,8.212,15,9.147c-0.011,3.892-0.533,4.902-3.5,7.87H24h12.5	C33.533,14.049,33.011,13.039,33,9.147z"/><linearGradient id="yrsRAxTyV2qAkpT7fLEm4c" x1="24" x2="24" y1="5.781" y2="31.246" gradientUnits="userSpaceOnUse"><stop offset="0" stop-color="#d4943b"/><stop offset="1" stop-color="#c2620e"/><stop offset="1" stop-color="#c2620e"/></linearGradient><path fill="url(#yrsRAxTyV2qAkpT7fLEm4c)" d="M24,22.017c-0.552,0-1-0.447-1-1v-10c0-0.553,0.448-1,1-1s1,0.447,1,1v10 C25,21.569,24.552,22.017,24,22.017z"/><linearGradient id="yrsRAxTyV2qAkpT7fLEm4d" x1="16.5" x2="16.5" y1="5.781" y2="31.246" gradientUnits="userSpaceOnUse"><stop offset="0" stop-color="#d4943b"/><stop offset="1" stop-color="#c2620e"/><stop offset="1" stop-color="#c2620e"/></linearGradient><path fill="url(#yrsRAxTyV2qAkpT7fLEm4d)" d="M15,20.017c-0.256,0-0.512-0.098-0.707-0.293c-0.391-0.391-0.391-1.023,0-1.414 C17,15.602,17,13.974,17,11.017c0-0.553,0.448-1,1-1s1,0.447,1,1c0,3.025,0,5.414-3.293,8.707 C15.512,19.919,15.256,20.017,15,20.017z"/><linearGradient id="yrsRAxTyV2qAkpT7fLEm4e" x1="31.5" x2="31.5" y1="5.781" y2="31.246" gradientUnits="userSpaceOnUse"><stop offset="0" stop-color="#d4943b"/><stop offset="1" stop-color="#c2620e"/><stop offset="1" stop-color="#c2620e"/></linearGradient><path fill="url(#yrsRAxTyV2qAkpT7fLEm4e)" d="M33,20.017c-0.256,0-0.512-0.098-0.707-0.293C29,16.431,29,14.042,29,11.017 c0-0.553,0.448-1,1-1s1,0.447,1,1c0,2.957,0,4.586,2.707,7.293c0.391,0.391,0.391,1.023,0,1.414 C33.512,19.919,33.256,20.017,33,20.017z"/></svg>