<svg xmlns="http://www.w3.org/2000/svg" viewBox="0 0 48 48"><linearGradient id="MwA7Nwk~4MjbwwU~7f_nBa" x1="24" x2="24" y1="4.151" y2="59.474" gradientUnits="userSpaceOnUse"><stop offset="0" stop-color="#c26715"/><stop offset="0" stop-color="#c26715"/><stop offset=".51" stop-color="#b85515"/><stop offset="1" stop-color="#ad3f16"/></linearGradient><path fill="url(#MwA7Nwk~4MjbwwU~7f_nBa)" d="M44,10.033c0-2.209-1.791-4-4-4H8c-2.209,0-4,1.791-4,4c0,1.862,1.278,3.412,3,3.859v26.125	c0,1.105,0.895,2,2,2h30c1.105,0,2-0.895,2-2V13.892C42.722,13.446,44,11.895,44,10.033z"/><linearGradient id="MwA7Nwk~4MjbwwU~7f_nBb" x1="24" x2="24" y1="4.151" y2="59.474" gradientUnits="userSpaceOnUse"><stop offset="0" stop-color="#eba84b"/><stop offset=".255" stop-color="#e8a044"/><stop offset=".641" stop-color="#e18b30"/><stop offset="1" stop-color="#d97218"/></linearGradient><path fill="url(#MwA7Nwk~4MjbwwU~7f_nBb)" d="M9,39.016V12.344l-1.498-0.389c-1.069-0.276-1.749-1.375-1.418-2.499	c0.256-0.869,1.114-1.423,2.02-1.423h31.792c0.906,0,1.764,0.554,2.02,1.423c0.331,1.124-0.348,2.222-1.418,2.499L39,12.344v26.673	c0,0.552-0.448,1-1,1H10C9.448,40.016,9,39.569,9,39.016z"/><path d="M24,11.029c2.06,0,3.861,1.228,5.902,1.771c5.312,2.361,7.083,5.312,7.083,11.215c0,4.173-2.951,5.312-4.722,7.083 C30.492,32.868,30.69,37,24,37c-10.625,0-12.985-9.181-12.985-12.985C11.015,18.702,14.556,11.029,24,11.029 M24,10.029 c-10.261,0-13.985,8.364-13.985,13.985C10.015,27.905,12.527,38,24,38c5.544,0,6.965-2.704,8.004-4.679 c0.328-0.623,0.61-1.161,0.966-1.517c0.361-0.361,0.793-0.706,1.251-1.072c1.677-1.34,3.764-3.007,3.764-6.718 c0-6.354-2.081-9.641-7.677-12.129l-0.073-0.032l-0.077-0.02c-0.694-0.184-1.363-0.457-2.072-0.746 C26.813,10.567,25.494,10.029,24,10.029L24,10.029z" opacity=".05"/><path d="M24,11.029c2.06,0,3.861,1.228,5.902,1.771c5.312,2.361,7.083,5.312,7.083,11.215c0,4.173-2.951,5.312-4.722,7.083 C30.492,32.868,30.69,37,24,37c-10.625,0-12.985-9.181-12.985-12.985C11.015,18.702,14.556,11.029,24,11.029 M24,10.529 c-9.894,0-13.485,8.065-13.485,13.485C10.515,27.766,12.937,37.5,24,37.5c5.242,0,6.528-2.446,7.561-4.411 c0.332-0.632,0.646-1.228,1.055-1.638c0.381-0.38,0.823-0.734,1.292-1.109c1.676-1.339,3.576-2.857,3.576-6.328 c0-6.195-1.931-9.25-7.38-11.672l-0.036-0.016l-0.038-0.01c-0.724-0.193-1.44-0.484-2.132-0.767 C26.669,11.048,25.396,10.529,24,10.529L24,10.529z" opacity=".07"/><linearGradient id="MwA7Nwk~4MjbwwU~7f_nBc" x1="14.732" x2="33.779" y1="557.254" y2="538.207" gradientTransform="matrix(1 0 0 -1 0 572)" gradientUnits="userSpaceOnUse"><stop offset="0" stop-color="#dfe9f2"/><stop offset=".391" stop-color="#d6e0e9"/><stop offset="1" stop-color="#bfc8d1"/></linearGradient><path fill="url(#MwA7Nwk~4MjbwwU~7f_nBc)" d="M36.985,24.015c0,4.173-2.951,5.312-4.722,7.083C30.492,32.868,30.69,37,24,37 c-10.625,0-12.985-9.181-12.985-12.985c0-5.312,3.542-12.985,12.985-12.985c2.06,0,3.861,1.228,5.902,1.771 C35.215,15.161,36.985,18.112,36.985,24.015z"/><linearGradient id="MwA7Nwk~4MjbwwU~7f_nBd" x1="21.648" x2="33.336" y1="550.305" y2="538.617" gradientTransform="matrix(1 0 0 -1 0 572)" gradientUnits="userSpaceOnUse"><stop offset="0" stop-color="#fed100"/><stop offset="1" stop-color="#e36001"/></linearGradient><path fill="url(#MwA7Nwk~4MjbwwU~7f_nBd)" d="M25.5,21.047c-2.485,0-4.5,2.015-4.5,4.5s2.015,4.5,4.5,4.5s4.5-2.015,4.5-4.5 S27.985,21.047,25.5,21.047z"/></svg>