<svg xmlns="http://www.w3.org/2000/svg" viewBox="0 0 48 48"><path fill="#50e6ff" d="M41,41H7V9c0-1.105,0.895-2,2-2h30c1.105,0,2,0.895,2,2V41z"/><path fill="#35c1f1" d="M40,43H8c-0.552,0-1-0.448-1-1v-2h34v2C41,42.552,40.552,43,40,43z"/><circle cx="31" cy="13" r="2" fill="#0078d4"/><circle cx="17" cy="13" r="2" fill="#0078d4"/><path fill="#b2c6d6" d="M24,2c-4.411,0-8,3.589-8,8v3c0,0.552,0.448,1,1,1s1-0.448,1-1v-3c0-3.309,2.691-6,6-6s6,2.691,6,6v3	c0,0.552,0.448,1,1,1s1-0.448,1-1v-3C32,5.589,28.411,2,24,2z"/><linearGradient id="qdBaX3XxHix7duhy5~obla" x1="23" x2="25" y1="-581.5" y2="-581.5" gradientTransform="translate(0 614)" gradientUnits="userSpaceOnUse"><stop offset="0" stop-color="#3079d6"/><stop offset="1" stop-color="#297cd2"/></linearGradient><path fill="url(#qdBaX3XxHix7duhy5~obla)" d="M23,25h2v15h-2V25z"/><linearGradient id="qdBaX3XxHix7duhy5~oblb" x1="23" x2="25" y1="-572.5" y2="-572.5" gradientTransform="translate(0 614)" gradientUnits="userSpaceOnUse"><stop offset="0" stop-color="#1d59b3"/><stop offset="1" stop-color="#195bbc"/></linearGradient><rect width="2" height="3" x="23" y="40" fill="url(#qdBaX3XxHix7duhy5~oblb)"/><path fill="#199be2" d="M25,25h9c0.552,0,1,0.448,1,1v14H25V25z"/><rect width="10" height="3" x="25" y="40" fill="#0078d4"/><path fill="#199be2" d="M14,25h9v15H13V26C13,25.448,13.448,25,14,25z"/><rect width="10" height="3" x="13" y="40" fill="#0078d4"/><circle cx="28" cy="35" r="1" fill="#0078d4"/><circle cx="20" cy="35" r="1" fill="#0078d4"/></svg>