<svg xmlns="http://www.w3.org/2000/svg" viewBox="0 0 48 48"><linearGradient id="L5pdUbxU4VNotNGxGqIPpa" x1="35.029" x2="39.439" y1="10.47" y2="14.879" gradientTransform="translate(-1.379 -.571)" gradientUnits="userSpaceOnUse"><stop offset="0" stop-color="#ffd869"/><stop offset="1" stop-color="#fec52b"/></linearGradient><path fill="url(#L5pdUbxU4VNotNGxGqIPpa)" d="M40.256,5.439l2.304,2.305c0.586,0.586,0.586,1.536,0,2.121L32.556,19.869l-4.426-4.426	L38.135,5.439C38.721,4.854,39.67,4.854,40.256,5.439z"/><linearGradient id="L5pdUbxU4VNotNGxGqIPpb" x1="9.412" x2="34.721" y1="38.588" y2="13.279" gradientUnits="userSpaceOnUse"><stop offset="0" stop-color="#eba84b"/><stop offset="1" stop-color="#d97218"/></linearGradient><path fill="url(#L5pdUbxU4VNotNGxGqIPpb)" d="M22.243,7.586l18.172,18.172c0.781,0.781,0.781,2.047,0,2.828L30.349,38.651	c-5.799,5.799-15.201,5.799-21,0h0c-5.799-5.799-5.799-15.201,0-21L19.414,7.586C20.195,6.805,21.462,6.805,22.243,7.586z"/><linearGradient id="L5pdUbxU4VNotNGxGqIPpc" x1="11.159" x2="35.559" y1="27.291" y2="2.891" gradientTransform="translate(-1.379 -.571)" gradientUnits="userSpaceOnUse"><stop offset="0" stop-color="#ffd869"/><stop offset="1" stop-color="#fec52b"/></linearGradient><path fill="url(#L5pdUbxU4VNotNGxGqIPpc)" d="M22.243,7.586c-0.781-0.781-2.047-0.781-2.828,0L9.75,17.25c-2.623,2.623-2.623,6.877,0,9.5	s6.877,2.623,9.5,0l11.078-11.078L22.243,7.586z"/><linearGradient id="L5pdUbxU4VNotNGxGqIPpd" x1="-7.991" x2="-21.567" y1="43.967" y2="43.967" gradientTransform="rotate(45.001 23.501 90.55)" gradientUnits="userSpaceOnUse"><stop offset="0" stop-color="#dd7d22"/><stop offset="1" stop-color="#d97218"/></linearGradient><path fill="url(#L5pdUbxU4VNotNGxGqIPpd)" d="M40.414,25.757c0.781,0.781,0.781,2.047,0,2.828L30.75,38.25c-2.623,2.623-6.877,2.623-9.5,0	s-2.623-6.877,0-9.5l11.078-11.078L40.414,25.757z"/><path fill="#cf1928" d="M20.707,13.36c0,0-0.654,1.256-1.29,1.892c-0.522,0.522-1.319,1.313-1.319,1.313	s0.745,0.149,1.043,0.448c0.298,0.298,0.274,1.019-0.248,1.54c-0.522,0.522-1.714,1.863-1.938,1.839	c-0.223-0.025-0.522-0.372-0.671-0.522c-0.149-0.149-0.497-0.597-0.969-0.223c-0.472,0.372-1.765,1.168-1.765,1.168	s0.696,0.845,0.894,1.094c0.199,0.248,0.522,0.969,0.522,0.969s1.094-0.1,1.863-0.82c0.77-0.72,1.118-1.863,1.739-2.435	c0.621-0.571,1.938-1.491,2.683-2.236c0.745-0.745,0.679-1.478,0.039-2.215C20.786,14.586,20.707,13.36,20.707,13.36z"/><path fill="#cf1928" d="M29.389,24c0,0-0.483,0.737-1.079,1.333c-0.596,0.596-1.467,1.161-1.467,1.161	s0.534,0.198,0.687,0.351c0.382,0.382,0.244,0.672,0.03,0.916c-0.214,0.244-1.497,1.497-1.909,1.909	c-0.412,0.412-1.905,2.617,0.066,4.587c1.698,1.698,3.15,1.187,5.164-0.412c1.313-1.041,2.403-2.076,3.294-2.637	c0.434-0.274,0.794-0.806,0.305-1.416c-0.581-0.727-0.645-1.051-0.645-1.051s-0.478,0.881-0.985,1.347	c-0.554,0.509-1.279,0.781-1.279,0.781s0.465,0.179,0.679,0.362c0.214,0.183-0.133,0.54-0.713,1.121	c-0.58,0.58-2.447,1.715-3.486,0.339c2.264-2.49,3.51-3.18,4.029-3.576c0.519-0.397,0.764-0.835,0.444-1.369	c-0.334-0.557-0.772-1.177-0.772-1.177s-0.595,0.897-1.007,1.279c-0.412,0.382-1.426,0.815-1.426,0.815s0.509,0.124,0.589,0.385	c0.138,0.453-0.515,0.913-1.202,1.57c-0.687,0.657-1.42,1.299-1.42,1.299s-1.487-1.57,0.529-3.31	c1.719-1.483,2.105-1.682,2.343-1.845c0.362-0.249,0.589-0.775,0.238-1.279C30.045,24.979,29.389,24,29.389,24z"/></svg>