<svg xmlns="http://www.w3.org/2000/svg" viewBox="0 0 48 48"><path fill="#d35230" d="M36,17h-6c-0.552,0-1,0.448-1,1v15h7V17z"/><path fill="#ff8f6b" d="M31,21h2v-2h-2V21z M31,25h2v-2h-2V25z M31,29h2v-2h-2V29z"/><rect width="4" height="15" x="33" y="17" opacity=".05"/><rect width="3" height="15" x="34" y="17" opacity=".07"/><linearGradient id="jeEa_gyjwTZgxErcT8wlZa" x1="18.5" x2="18.5" y1="7.492" y2="32.986" gradientUnits="userSpaceOnUse"><stop offset="0" stop-color="#1d59b3"/><stop offset="1" stop-color="#195bbc"/></linearGradient><path fill="url(#jeEa_gyjwTZgxErcT8wlZa)" d="M22,18c0-6,4.454-6.453,4.454-6.453s0.074-3.931-7.343-3.931C14.388,7.616,7.168,13.327,3,25	c0,3,0,8,0,8h31C34,33,22,27.643,22,18z"/><linearGradient id="jeEa_gyjwTZgxErcT8wlZb" x1="35" x2="45" y1="20" y2="20" gradientUnits="userSpaceOnUse"><stop offset="0" stop-color="#ffcf54"/><stop offset=".261" stop-color="#fdcb4d"/><stop offset=".639" stop-color="#f7c13a"/><stop offset="1" stop-color="#f0b421"/></linearGradient><path fill="url(#jeEa_gyjwTZgxErcT8wlZb)" d="M45,9h-8c-1.105,0-2,0.895-2,2v20h10V9z"/><path fill="#c28200" d="M43,16h2v-2h-2V16z M43,20h2v-2h-2V20z M43,24h2v-2h-2V24z M43,28h2v-2h-2V28z M39,16h2v-2h-2V16z M39,20h2v-2h-2V20z M39,24h2v-2h-2V24z M39,28h2v-2h-2V28z"/><linearGradient id="jeEa_gyjwTZgxErcT8wlZc" x1="24" x2="24" y1="29.942" y2="41.993" gradientUnits="userSpaceOnUse"><stop offset="0" stop-color="#2aa4f4"/><stop offset="1" stop-color="#007ad9"/></linearGradient><path fill="url(#jeEa_gyjwTZgxErcT8wlZc)" d="M42,31c-1.657,0-3-1-3-1s-1.343,1-3,1s-3-1-3-1s-1.343,1-3,1s-3-1-3-1s-1.343,1-3,1s-3-1-3-1	s-1.343,1-3,1s-3-1-3-1s-1.343,1-3,1s-3-1-3-1s-1.343,1-3,1s-3-1-3-1v10c0,1.105,0.895,2,2,2h38c1.105,0,2-0.895,2-2V30	C45,30,43.657,31,42,31z"/><linearGradient id="jeEa_gyjwTZgxErcT8wlZd" x1="3" x2="29" y1="15" y2="15" gradientUnits="userSpaceOnUse"><stop offset="0" stop-color="#2aa4f4"/><stop offset="1" stop-color="#007ad9"/></linearGradient><path fill="url(#jeEa_gyjwTZgxErcT8wlZd)" d="M3,26C3,13.75,13,4,21.594,4C28.488,4,29,8.942,29,10c0,1.701-1.208,4-4,4c-2.191,0-3-2-3-2	s-0.697,1-2,1c-1.037,0-1.463-0.627-2.017-1.322C6.959,11.678,3,26,3,26z"/></svg>