<svg xmlns="http://www.w3.org/2000/svg" id="Layer_1" x="0" y="0" version="1.1" viewBox="0 0 48 48" xml:space="preserve"><path fill="#2b1d1d" d="M3.5,11.8c-0.2,1.2-0.4,2.5-0.4,3.7c0,11.4,9.3,20.6,20.8,20.6s20.8-9.2,20.8-20.6c0-1.3-0.1-2.5-0.4-3.7	C30.7,14.9,17.1,14.9,3.5,11.8z"/><radialGradient id="SVGID_1_" cx="9.787" cy="10.298" r="26.796" gradientUnits="userSpaceOnUse"><stop offset="0" stop-color="#f45560"/><stop offset=".897" stop-color="#cf1928"/></radialGradient><path fill="url(#SVGID_1_)" d="M24,37.3c-12.1,0-22-9.7-22-21.7c0-1.3,0.1-2.6,0.4-4c0.1-0.3,0.2-0.6,0.5-0.8c0.3-0.2,0.6-0.2,0.9-0.2	c13.3,3,26.9,3,40.5,0c0.3-0.1,0.6,0,0.9,0.2c0.3,0.2,0.4,0.4,0.5,0.8c0.3,1.4,0.4,2.7,0.4,4C46,27.6,36.1,37.3,24,37.3z M4.5,13.2	c-0.1,0.8-0.2,1.6-0.2,2.3C4.3,26.3,13.1,35,24,35s19.7-8.7,19.7-19.4c0-0.8-0.1-1.5-0.2-2.3C30.5,16,17.3,16,4.5,13.2z"/><path fill="#fff" d="M10.4,29.6C14,32.9,18.7,35,24,35c5.2,0,10-2,13.5-5.3C28.6,31.5,19.6,31.4,10.4,29.6z M43.3,19.1	c0.2-1.1,0.3-2.3,0.3-3.5c0-0.8-0.1-1.5-0.2-2.3C30.5,16,17.3,16,4.5,13.2c-0.1,0.8-0.2,1.6-0.2,2.3c0,1.2,0.1,2.4,0.3,3.5	C17.5,21.9,30.4,22,43.3,19.1z"/></svg>