<svg xmlns="http://www.w3.org/2000/svg" viewBox="0 0 48 48"><path fill="#199be2" d="M31.5,44c-0.828,0-1.5,0.672-1.5,1.5s0.672,1.5,1.5,1.5s1.5-0.672,1.5-1.5S32.328,44,31.5,44z"/><polygon fill="#199be2" points="18.828,23.1 14.915,28.424 30.381,46.486 32.712,44.627"/><path fill="#64717c" d="M31.5,9.5c-0.399,0-0.776-0.241-0.932-0.636c-0.201-0.514,0.053-1.094,0.567-1.295l11.5-4.5	c0.511-0.202,1.094,0.052,1.296,0.567c0.201,0.514-0.053,1.094-0.567,1.295l-11.5,4.5C31.745,9.478,31.621,9.5,31.5,9.5z"/><linearGradient id="vNpHLOHZXFMNm8ZQUNfr5a" x1="41.897" x2="44.282" y1="1.314" y2="7.119" gradientUnits="userSpaceOnUse"><stop offset="0" stop-color="#889097"/><stop offset=".322" stop-color="#838c93"/><stop offset=".692" stop-color="#758089"/><stop offset="1" stop-color="#64717c"/></linearGradient><circle cx="43" cy="4" r="3" fill="url(#vNpHLOHZXFMNm8ZQUNfr5a)"/><linearGradient id="vNpHLOHZXFMNm8ZQUNfr5b" x1="3" x2="11" y1="8" y2="8" gradientUnits="userSpaceOnUse"><stop offset="0" stop-color="#ffcf54"/><stop offset=".261" stop-color="#fdcb4d"/><stop offset=".639" stop-color="#f7c13a"/><stop offset="1" stop-color="#f0b421"/></linearGradient><path fill="url(#vNpHLOHZXFMNm8ZQUNfr5b)" d="M3,8c0,2.208,1.79,4,3.998,4C9.211,12,11,10.208,11,8S9.211,4,6.998,4C4.79,4,3,5.792,3,8z"/><path fill="#35c1f1" d="M7,17c0,2.208,1.79,4,3.998,4C13.211,21,15,19.208,15,17s-1.789-4-4.002-4C8.79,13,7,14.792,7,17z"/><path fill="#35c1f1" d="M12,26c0,2.208,1.79,4,3.998,4C18.211,30,20,28.208,20,26s-1.789-4-4.002-4C13.79,22,12,23.792,12,26	z"/><path fill="#35c1f1" d="M11.5,44c-0.828,0-1.5,0.672-1.5,1.5s0.672,1.5,1.5,1.5s1.5-0.672,1.5-1.5S12.328,44,11.5,44z"/><path fill="#35c1f1" d="M14.608,15.31l-7.143,3.56l4.882,8.745l1.477,1.627l0.569,6.711l-4.244,8.9l2.559,1.527l6.07-8.493	c0.446-0.625,0.704-1.365,0.741-2.132l0.456-9.386l-0.599-2.477L14.608,15.31z"/><path fill="#35c1f1" d="M31.5,7C30.672,7,30,7.672,30,8.5s0.672,1.5,1.5,1.5S33,9.328,33,8.5S32.328,7,31.5,7z"/><polygon fill="#35c1f1" points="9.966,13.136 30.976,7.102 32.073,9.878 13.168,18.197"/></svg>