<svg xmlns="http://www.w3.org/2000/svg" xmlns:xlink="http://www.w3.org/1999/xlink" data-name="Слой 1" viewBox="0 0 48 48"><defs><linearGradient id="VRVEpDrQ_DArD0BvtlBPLa" x1="21.532" x2="24.515" y1="20.293" y2="33.94" data-name="Безымянный градиент 94" gradientUnits="userSpaceOnUse"><stop offset="0" stop-color="#ae4cd5"/><stop offset="1" stop-color="#ac4ad5"/></linearGradient><linearGradient id="VRVEpDrQ_DArD0BvtlBPLb" x1="16.855" x2="19.838" y1="21.315" y2="34.962" gradientTransform="rotate(-90 18 27)" xlink:href="#VRVEpDrQ_DArD0BvtlBPLa"/></defs><path fill="#057093" d="M36.50977,38.96a.98994.98994,0,0,1-.37989-.07031,1.18814,1.18814,0,0,1-.33008-.21973,1.03356,1.03356,0,0,1-.29-.71,1,1,0,1,1,2,0,.99042.99042,0,0,1-1,1Z"/><path fill="#057093" d="M13.66992,42.46973a.99113.99113,0,0,1,.79-1.16993h0a.99088.99088,0,0,1,1.16992.79h0a.99875.99875,0,0,1-.79,1.16993h0a1.2554,1.2554,0,0,1-.18994.0205h0A.99479.99479,0,0,1,13.66992,42.46973ZM17.31006,41.75a.99791.99791,0,0,1,.78955-1.16992h0a.9859.9859,0,0,1,1.17041.79h0A.99216.99216,0,0,1,18.48975,42.54h0a.7299.7299,0,0,1-.19971.01953h0A1.00267,1.00267,0,0,1,17.31006,41.75Zm3.63965-.71973a1.00716,1.00716,0,0,1,.79-1.17089h0a1.00176,1.00176,0,0,1,1.18017.79h0a1.00569,1.00569,0,0,1-.79,1.16993h0a.6315.6315,0,0,1-.18994.0205h0A1.01408,1.01408,0,0,1,20.94971,41.03027Zm3.6499-.7207a.99147.99147,0,0,1,.79-1.16992h0a.99231.99231,0,0,1,1.17041.79h0a.991.991,0,0,1-.79,1.16992h0a1.13161,1.13161,0,0,1-.19043.02051h0A.99555.99555,0,0,1,24.59961,40.30957Zm3.64014-.71a1.011,1.011,0,0,1,.79-1.17969h0a1.00129,1.00129,0,0,1,1.18017.79h0a1.00063,1.00063,0,0,1-.79,1.16992h0a1.38869,1.38869,0,0,1-.20019.01953h0A1.00446,1.00446,0,0,1,28.23975,39.59961Zm3.6499-.71973a.9966.9966,0,0,1,.78027-1.17968h0a.995.995,0,0,1,1.17969.79h0a.99842.99842,0,0,1-.78955,1.16993h0a1.2599,1.2599,0,0,1-.19043.01953h0A.99653.99653,0,0,1,31.88965,38.87988Z"/><path fill="#057093" d="M11,44a.99993.99993,0,0,1-.38037-.08008.98877.98877,0,0,1-.31983-.21,1.01337,1.01337,0,0,1-.22021-.33008.94637.94637,0,0,1,0-.75976A.91216.91216,0,0,1,10.2998,42.29a.98877.98877,0,0,1,.31983-.21.96366.96366,0,0,1,.58008-.06055.71474.71474,0,0,1,.18994.06055.54921.54921,0,0,1,.17041.08984A.899.899,0,0,1,11.71,42.29a1.05547,1.05547,0,0,1,.21973.33008A.98076.98076,0,0,1,12,43a.99042.99042,0,0,1-1,1Z"/><path fill="#057093" d="M9.21,39.08008A1.00917,1.00917,0,0,1,10,37.89941h0a1.00126,1.00126,0,0,1,1.16992.79h0a.98685.98685,0,0,1-.78027,1.16993h0a.695.695,0,0,1-.19971.0205h0A.99575.99575,0,0,1,9.21,39.08008ZM8.3999,34.96A.98653.98653,0,0,1,9.17969,33.79h0a.99681.99681,0,0,1,1.18017.7793h0a1.00952,1.00952,0,0,1-.79,1.18066h0a1.25213,1.25213,0,0,1-.18994.01953h0A.99487.99487,0,0,1,8.3999,34.96Zm-.82031-4.11035a1.01138,1.01138,0,0,1,.79-1.17969h0a1.001,1.001,0,0,1,1.18017.79h0a1.00618,1.00618,0,0,1-.79,1.16992h0a1.38228,1.38228,0,0,1-.19971.01953h0A1.0127,1.0127,0,0,1,7.57959,30.84961ZM6.77,26.72949a1.00818,1.00818,0,0,1,.79-1.17969h0a1.00152,1.00152,0,0,1,1.16992.79h0a1.00068,1.00068,0,0,1-.79,1.17969h0a1.12709,1.12709,0,0,1-.18994.01074h0A1.00356,1.00356,0,0,1,6.77,26.72949ZM5.96,22.60938a.986.986,0,0,1,.79-1.16993h0a.99229.99229,0,0,1,1.16992.78028h0a1.00309,1.00309,0,0,1-.79,1.17968h0a1.14028,1.14028,0,0,1-.18994.02051h0A.99479.99479,0,0,1,5.96,22.60938Zm-.82031-4.11915a1.00754,1.00754,0,0,1,.79-1.17089h0a1.00176,1.00176,0,0,1,1.18017.79h0a1.00211,1.00211,0,0,1-.79,1.17089h0a.66151.66151,0,0,1-.18994.01953h0A1.01409,1.01409,0,0,1,5.13965,18.49023Zm-.81006-4.11035a1.008,1.008,0,0,1,.79-1.17968h0a1.016,1.016,0,0,1,1.18017.79h0a1.0161,1.0161,0,0,1-.79,1.17969h0a1.38228,1.38228,0,0,1-.19971.01953h0A1.01344,1.01344,0,0,1,4.32959,14.37988Z"/><path fill="#057093" d="M4.5,11.06934a.84419.84419,0,0,1-.38037-.07911,1.17276,1.17276,0,0,1-.32959-.21.99265.99265,0,0,1-.21045-1.09082A1.04085,1.04085,0,0,1,3.79,9.35938a1.04869,1.04869,0,0,1,1.41992,0,1.04813,1.04813,0,0,1,.21.33007A.98927.98927,0,0,1,4.5,11.06934Z"/><path fill="#057093" d="M7.15967,9.54a1.006,1.006,0,0,1,.79-1.16992h0a.98518.98518,0,0,1,1.16992.79h0a.99147.99147,0,0,1-.77979,1.16992h0a.69574.69574,0,0,1-.20019.01953h0A1.01146,1.01146,0,0,1,7.15967,9.54Zm3.65039-.7207a.992.992,0,0,1,.77978-1.16993h0a.9972.9972,0,0,1,1.18018.79h0a.99826.99826,0,0,1-.79,1.16993h0a1.14692,1.14692,0,0,1-.18994.0205h0A.99478.99478,0,0,1,10.81006,8.81934Zm3.63965-.71973a.99873.99873,0,0,1,.79-1.16992h0a.98588.98588,0,0,1,1.16992.79h0a.99028.99028,0,0,1-.79,1.16992h0a1.24882,1.24882,0,0,1-.18994.02051h0A.99555.99555,0,0,1,14.44971,8.09961Zm3.64013-.71973a1.00568,1.00568,0,0,1,.79-1.16992h0A1.00129,1.00129,0,0,1,20.06006,7h0a1.00656,1.00656,0,0,1-.79,1.16992h0a1.39547,1.39547,0,0,1-.2002.01953h0A1.01145,1.01145,0,0,1,18.08984,7.37988Zm3.64991-.71972a.991.991,0,0,1,.79-1.16993h0a.99017.99017,0,0,1,1.16992.79h0a.99125.99125,0,0,1-.79,1.16993h0a1.25354,1.25354,0,0,1-.18994.01953h0A.99524.99524,0,0,1,21.73975,6.66016Zm3.64013-.72071a1.00619,1.00619,0,0,1,.79-1.16992h0a1.00129,1.00129,0,0,1,1.17969.79h0a1.00571,1.00571,0,0,1-.78955,1.16992h0a1.27135,1.27135,0,0,1-.2002.02051h0A1.003,1.003,0,0,1,25.37988,5.93945Z"/><path fill="#057093" d="M30.00977,6.03027a1.01148,1.01148,0,0,1-.93018-1.38086,1.22632,1.22632,0,0,1,.22021-.31933,1.02121,1.02121,0,0,1,1.08985-.2207,1.00979,1.00979,0,0,1,.33008.2207,1.0362,1.0362,0,0,1,.29.70019,1.03357,1.03357,0,0,1-.29.71A1.00851,1.00851,0,0,1,30.00977,6.03027Z"/><path fill="#057093" d="M34.71973,34.04A1.003,1.003,0,0,1,35.5,32.85938h0a1.01114,1.01114,0,0,1,1.17969.79h0a1.00916,1.00916,0,0,1-.79,1.18067h0a1.25354,1.25354,0,0,1-.18994.01953h0A.99563.99563,0,0,1,34.71973,34.04Zm-.81983-4.12012a1.00063,1.00063,0,0,1,.79-1.16992h0a1.00136,1.00136,0,0,1,1.17969.78027h0a1.011,1.011,0,0,1-.79,1.17969h0a1.382,1.382,0,0,1-.19971.01953h0A1.01146,1.01146,0,0,1,33.8999,29.91992Zm-.81006-4.11035a1.00855,1.00855,0,0,1,.79-1.17969h0a.99323.99323,0,0,1,1.16992.79h0A.98652.98652,0,0,1,34.27,26.58984h0a.73293.73293,0,0,1-.2002.01954h0A.9948.9948,0,0,1,33.08984,25.80957Zm-.81005-4.12012a.9867.9867,0,0,1,.79-1.16992h0a.9923.9923,0,0,1,1.16993.78027h0a1.00032,1.00032,0,0,1-.79,1.17969h0a1.14145,1.14145,0,0,1-.18994.02051h0A.99517.99517,0,0,1,32.27979,21.68945ZM31.46,17.56934a1.0067,1.0067,0,0,1,.79-1.16993h0a1.00868,1.00868,0,0,1,1.17969.79h0a1.00064,1.00064,0,0,1-.79,1.16993h0a1.25947,1.25947,0,0,1-.19971.0205h0A1.01136,1.01136,0,0,1,31.46,17.56934ZM30.6499,13.46a1.01559,1.01559,0,0,1,.79-1.17969h0a1.01557,1.01557,0,0,1,1.17969.78907h0a1.00211,1.00211,0,0,1-.79,1.17089h0a.72775.72775,0,0,1-.19971.01954h0A1.00408,1.00408,0,0,1,30.6499,13.46Zm-.81006-4.12012a.98588.98588,0,0,1,.79-1.16992h0a.99155.99155,0,0,1,1.16992.78028h0a.996.996,0,0,1-.79,1.17968h0a1.25239,1.25239,0,0,1-.18995.01953h0A.99486.99486,0,0,1,29.83984,9.33984Z"/><path fill="#50e6ff" d="M45,11.79V42.21A1.76341,1.76341,0,0,1,43.27,44H20.73A1.76341,1.76341,0,0,1,19,42.21V11.79A1.7634,1.7634,0,0,1,20.73,10H43.27A1.7634,1.7634,0,0,1,45,11.79Z"/><g><path fill="#35c1f1" d="M40.5,18h-17a.50018.50018,0,0,1-.5-.5v-1a.50018.50018,0,0,1,.5-.5h17a.50018.50018,0,0,1,.5.5v1A.50018.50018,0,0,1,40.5,18Z"/><path fill="#35c1f1" d="M38.5,22h-15a.50018.50018,0,0,1-.5-.5v-1a.50018.50018,0,0,1,.5-.5h15a.50018.50018,0,0,1,.5.5v1A.50018.50018,0,0,1,38.5,22Z"/><path fill="#35c1f1" d="M40.5,26h-17a.50018.50018,0,0,1-.5-.5v-1a.50018.50018,0,0,1,.5-.5h17a.50018.50018,0,0,1,.5.5v1A.50018.50018,0,0,1,40.5,26Z"/><path fill="#35c1f1" d="M40.5,34h-17a.50018.50018,0,0,1-.5-.5v-1a.50018.50018,0,0,1,.5-.5h17a.50018.50018,0,0,1,.5.5v1A.50018.50018,0,0,1,40.5,34Z"/><path fill="#35c1f1" d="M38.5,30h-15a.50018.50018,0,0,1-.5-.5v-1a.50018.50018,0,0,1,.5-.5h15a.50018.50018,0,0,1,.5.5v1A.50018.50018,0,0,1,38.5,30Z"/><path fill="#35c1f1" d="M38.5,38h-15a.50018.50018,0,0,1-.5-.5v-1a.50018.50018,0,0,1,.5-.5h15a.50018.50018,0,0,1,.5.5v1A.50018.50018,0,0,1,38.5,38Z"/></g><path fill="url(#VRVEpDrQ_DArD0BvtlBPLa)" d="M21,22.38482V31.6151a.40376.40376,0,0,0,.70082.25522l4.13435-4.45509a.60553.60553,0,0,0,0-.83054L21.70082,22.1296A.40376.40376,0,0,0,21,22.38482Z"/><path fill="url(#VRVEpDrQ_DArD0BvtlBPLb)" d="M16,22h4a0,0,0,0,1,0,0v9a1,1,0,0,1-1,1H17a1,1,0,0,1-1-1V22A0,0,0,0,1,16,22Z" transform="rotate(90 18 27)"/><g><path d="M26.57,25.9l-4.14-4.45a1.40125,1.40125,0,0,0-2.43.93V24H19v1h2V22.38a.39022.39022,0,0,1,.4-.38.39458.39458,0,0,1,.3.13l4.14,4.45a.63887.63887,0,0,1,0,.84L21.7,31.87a.39479.39479,0,0,1-.3.13.39026.39026,0,0,1-.4-.38V29H19v1h1v1.62a1.40125,1.40125,0,0,0,2.43.93l4.14-4.45A1.60831,1.60831,0,0,0,26.57,25.9Z" opacity=".05"/><path d="M26.2,26.24l-4.13-4.45a.906.906,0,0,0-1.57.59V24.5H19V25h2V22.38a.39022.39022,0,0,1,.4-.38.39458.39458,0,0,1,.3.13l4.14,4.45a.63887.63887,0,0,1,0,.84L21.7,31.87a.39479.39479,0,0,1-.3.13.39026.39026,0,0,1-.4-.38V29H19v.5h1.5v2.12a.906.906,0,0,0,1.57.59l4.13-4.45A1.11275,1.11275,0,0,0,26.2,26.24Z" opacity=".07"/></g></svg>