<svg xmlns="http://www.w3.org/2000/svg" viewBox="0 0 48 48"><circle cx="24" cy="23" r="20" fill="#0078d4"/><circle cx="24" cy="23" r="15" fill="#199be2"/><circle cx="24" cy="23" r="10" fill="#35c1f1"/><radialGradient id="hCCkxaA7Wnos0CElnEx1Na" cx="24" cy="23" r="7" gradientUnits="userSpaceOnUse"><stop offset="0"/><stop offset=".011" stop-opacity=".989"/><stop offset="1" stop-opacity="0"/></radialGradient><circle cx="24" cy="23" r="7" fill="url(#hCCkxaA7Wnos0CElnEx1Na)"/><path d="M22,42.899C22.658,42.964,23.325,43,24,43s1.342-0.036,2-0.101V26h-4V42.899z" opacity=".07"/><path d="M21,42.751C21.981,42.899,22.978,43,24,43s2.019-0.101,3-0.249V24h-6V42.751z" opacity=".05"/><circle cx="24" cy="23" r="5" fill="#50e6ff"/><path fill="#50e6ff" d="M24,45c-0.552,0-1-0.447-1-1V27c0-0.553,0.448-1,1-1s1,0.447,1,1v17C25,44.553,24.552,45,24,45z"/></svg>