<svg xmlns="http://www.w3.org/2000/svg" xmlns:xlink="http://www.w3.org/1999/xlink" data-name="Layer 1" viewBox="0 0 48 48"><defs><linearGradient id="TllBCoaj6VCNSArLxxZAWa" x1="31" x2="31" y1="7.706" y2="60.882" data-name="Безымянный градиент 21" gradientUnits="userSpaceOnUse"><stop offset="0" stop-color="#c26715"/><stop offset=".51" stop-color="#b85515"/><stop offset="1" stop-color="#ad3f16"/></linearGradient><linearGradient id="TllBCoaj6VCNSArLxxZAWb" x1="23" x2="23" y1="8.471" y2="49" data-name="Новый образец градиентной зал 6" gradientUnits="userSpaceOnUse"><stop offset="0" stop-color="#eba84b"/><stop offset="1" stop-color="#d97218"/></linearGradient><linearGradient id="TllBCoaj6VCNSArLxxZAWc" x1="32" x2="32" y1="-2.235" y2="11.59" xlink:href="#TllBCoaj6VCNSArLxxZAWa"/><linearGradient id="TllBCoaj6VCNSArLxxZAWd" x1="22" x2="22" y1="3.824" y2="15.703" xlink:href="#TllBCoaj6VCNSArLxxZAWb"/><linearGradient id="TllBCoaj6VCNSArLxxZAWe" x1="16" x2="16" y1="41.493" y2="44.685" gradientUnits="userSpaceOnUse"><stop offset=".018" stop-color="#005ab3"/><stop offset=".497" stop-color="#007ad9"/><stop offset="1" stop-color="#2aa4f4"/></linearGradient><linearGradient id="TllBCoaj6VCNSArLxxZAWf" x1="16" x2="16" y1="30.176" y2="41.19" data-name="Новый образец градиентной зал 2" gradientUnits="userSpaceOnUse"><stop offset="0" stop-color="#2aa4f4"/><stop offset="1" stop-color="#007ad9"/></linearGradient><linearGradient id="TllBCoaj6VCNSArLxxZAWg" x1="22.969" x2="22.969" y1="2.941" y2="27.924" xlink:href="#TllBCoaj6VCNSArLxxZAWa"/></defs><path fill="url(#TllBCoaj6VCNSArLxxZAWa)" d="M19,11H43a0,0,0,0,1,0,0V40a1,1,0,0,1-1,1H19a0,0,0,0,1,0,0V11A0,0,0,0,1,19,11Z"/><path fill="url(#TllBCoaj6VCNSArLxxZAWb)" d="M11,11H35a0,0,0,0,1,0,0V40a1,1,0,0,1-1,1H12a1,1,0,0,1-1-1V11a0,0,0,0,1,0,0Z"/><polygon fill="url(#TllBCoaj6VCNSArLxxZAWc)" points="21 5 45 5 43 11 19 11 21 5"/><polygon fill="url(#TllBCoaj6VCNSArLxxZAWd)" points="33 5 9 5 11 11 35 11 33 5"/><path fill="#0078d4" d="M3.86707,23.23266a1.73285,1.73285,0,0,1,2.36778.63445c.02571.04454.04063.09183.062.13753l.00746-.00344,5.183,10.042-.00338.00217A1.29746,1.29746,0,0,1,9.2885,35.42662L3.30805,25.73105l.01238-.00868c-.02877-.04121-.06215-.0776-.08775-.12193A1.73285,1.73285,0,0,1,3.86707,23.23266Z"/><path fill="url(#TllBCoaj6VCNSArLxxZAWe)" d="M21,39.1v3.5A1.33536,1.33536,0,0,1,19.75,44h-7.5A1.33536,1.33536,0,0,1,11,42.6V39.1Z"/><path fill="url(#TllBCoaj6VCNSArLxxZAWf)" d="M28.31579,30H3.68421A.6953.6953,0,0,0,3,30.70588H3A11.12479,11.12479,0,0,0,13.94736,42h4.10528A11.12479,11.12479,0,0,0,29,30.70589h0A.6953.6953,0,0,0,28.31579,30Z"/><path d="M28.32,29H11v1H28.32a.70048.70048,0,0,1,.68.71,11.39849,11.39849,0,0,1-3.21,7.98A10.85772,10.85772,0,0,1,22.56,41h2.01A12.36122,12.36122,0,0,0,30,30.71,1.70308,1.70308,0,0,0,28.32,29Z" opacity=".05"/><path d="M28.32,29.5H11V30H28.32a.70048.70048,0,0,1,.68.71,11.39849,11.39849,0,0,1-3.21,7.98A10.85772,10.85772,0,0,1,22.56,41h1.07A11.86153,11.86153,0,0,0,29.5,30.71,1.19526,1.19526,0,0,0,28.32,29.5Z" opacity=".07"/><path fill="url(#TllBCoaj6VCNSArLxxZAWg)" d="M23,21a6.23638,6.23638,0,0,1-2-4,6.23638,6.23638,0,0,1,2-4,6.23638,6.23638,0,0,1,2,4A6.23638,6.23638,0,0,1,23,21Zm5.10324,3.2214a6.23638,6.23638,0,0,0,1.03906-4.34976,6.23641,6.23641,0,0,0-4.10324,1.77861A6.23635,6.23635,0,0,0,24,26,6.23637,6.23637,0,0,0,28.10324,24.2214ZM21.93875,26a6.23635,6.23635,0,0,0-1.03906-4.34975,6.23641,6.23641,0,0,0-4.10324-1.77861,6.23638,6.23638,0,0,0,1.03906,4.34976A6.23637,6.23637,0,0,0,21.93875,26Z"/></svg>