<svg xmlns="http://www.w3.org/2000/svg" viewBox="0 0 48 48"><linearGradient id="DT1Sib6WSYBclEV5njaKoa" x1="4.462" x2="32.803" y1="6.475" y2="42.134" gradientUnits="userSpaceOnUse"><stop offset="0" stop-color="#5c65d6"/><stop offset=".999" stop-color="#464eb0"/></linearGradient><path fill="url(#DT1Sib6WSYBclEV5njaKoa)" d="M41.711,37.946l-1.344-0.252c-0.236-0.044-0.446-0.176-0.589-0.369l-0.319-0.432	c-0.267-0.362-0.245-0.861,0.054-1.197l0.75-0.842c0.127-0.142,0.294-0.243,0.479-0.29l1.39-0.348	c0.488-0.122,0.796-0.603,0.703-1.097l-0.133-0.707c-0.049-0.263-0.208-0.494-0.436-0.634l-0.628-0.386	c-0.375-0.231-0.859-0.174-1.17,0.137l-0.798,0.798c-0.371,0.371-0.973,0.371-1.344,0L38,32v-1l-2.33,0.932	C35.558,31.977,35.438,32,35.317,32h-0.924c-0.252,0-0.494-0.1-0.672-0.278l-0.307-0.307c-0.254-0.254-0.343-0.631-0.229-0.972	L34,28h1l1.933,0.91c0.127,0.06,0.265,0.09,0.405,0.09h1.126c0.706,0,1.166-0.743,0.85-1.375l-0.171-0.342	c-0.092-0.184-0.241-0.333-0.425-0.425l-1.192-0.596C37.203,26.102,37,25.773,37,25.413v-1.019c0-0.252,0.1-0.494,0.278-0.672L38,23	H23v-1l1-1v-1l0.722-0.722C24.9,19.1,25,18.858,25,18.606v-0.92c0-0.202,0.064-0.399,0.184-0.562l1.165-1.588	c0.018-0.024,0.036-0.047,0.056-0.069l1.92-2.161c0.365-0.411,0.306-1.046-0.129-1.383l-0.826-0.638	C27.136,11.105,27,10.828,27,10.533V9.527c0-0.328-0.169-0.632-0.447-0.806L26,8.375l0.523-0.718c0.275-0.378,0.234-0.9-0.097-1.231	l-0.148-0.148C26.1,6.1,25.858,6,25.606,6H4.95C4.425,6,4,6.425,4,6.95v7.656c0,0.252,0.1,0.494,0.278,0.672l1.613,1.613	c0.072,0.072,0.132,0.156,0.178,0.247L6.97,18.94c0.02,0.04,0.037,0.082,0.052,0.124l0.93,2.79C7.984,21.951,8,22.052,8,22.154	v1.692c0,0.102-0.016,0.204-0.049,0.3l-0.902,2.707C7.016,26.951,7,27.052,7,27.154v2.64c0,0.136,0.029,0.27,0.085,0.393	l0.491,1.081c0.156,0.343,0.094,0.746-0.157,1.026L5.599,34.33c-0.336,0.376-0.32,0.949,0.036,1.305L5.64,35.64	c0.225,0.225,0.547,0.322,0.858,0.26l4.182-0.836c0.207-0.041,0.422-0.013,0.611,0.082l3.648,1.824	c0.04,0.02,0.082,0.037,0.124,0.052l2.79,0.93c0.097,0.032,0.198,0.049,0.3,0.049H21v-1l-1-1l1.388-0.694	c0.366-0.183,0.807-0.111,1.097,0.178l1.407,1.407c0.072,0.072,0.156,0.132,0.247,0.178l1.724,0.862	c0.091,0.046,0.175,0.106,0.247,0.178L27,39l0.891,0.891c0.072,0.072,0.156,0.132,0.247,0.178L30,41h1l1-2h1l1.328,1.328	c0.371,0.371,0.973,0.371,1.344,0l0.05-0.05C35.9,40.1,36,39.858,36,39.606V38h1l2,1.545l2.524,2.065	c0.29,0.237,0.692,0.282,1.026,0.115L44,41v-1l-1.792-1.792C42.072,38.072,41.899,37.981,41.711,37.946z"/></svg>