<svg xmlns="http://www.w3.org/2000/svg" viewBox="0 0 48 48"><linearGradient id="mITAq8Jw3RPLjBnwZ1M0da" x1="10.183" x2="36.857" y1="4.879" y2="41.792" gradientUnits="userSpaceOnUse"><stop offset="0" stop-color="#899198"/><stop offset="1" stop-color="#787e85"/></linearGradient><path fill="url(#mITAq8Jw3RPLjBnwZ1M0da)" d="M37,4H11C9.895,4,9,4.895,9,6v36c0,1.105,0.895,2,2,2h26c1.105,0,2-0.895,2-2V6	C39,4.895,38.105,4,37,4z"/><linearGradient id="mITAq8Jw3RPLjBnwZ1M0db" x1="15.332" x2="34.537" y1="7.485" y2="16.381" gradientUnits="userSpaceOnUse"><stop offset="0" stop-color="#4fe5ff"/><stop offset="1" stop-color="#2eb7ed"/></linearGradient><path fill="url(#mITAq8Jw3RPLjBnwZ1M0db)" d="M34,15H14c-0.552,0-1-0.448-1-1V9c0-0.552,0.448-1,1-1h20c0.552,0,1,0.448,1,1v5	C35,14.552,34.552,15,34,15z"/><path fill="#cad2d9" d="M26,24h-4c-0.552,0-1-0.448-1-1v-4c0-0.552,0.448-1,1-1h4c0.552,0,1,0.448,1,1v4	C27,23.552,26.552,24,26,24z"/><path fill="#cad2d9" d="M18,24h-4c-0.552,0-1-0.448-1-1v-4c0-0.552,0.448-1,1-1h4c0.552,0,1,0.448,1,1v4	C19,23.552,18.552,24,18,24z"/><path fill="#cad2d9" d="M26,32h-4c-0.552,0-1-0.448-1-1v-4c0-0.552,0.448-1,1-1h4c0.552,0,1,0.448,1,1v4	C27,31.552,26.552,32,26,32z"/><path fill="#cad2d9" d="M18,32h-4c-0.552,0-1-0.448-1-1v-4c0-0.552,0.448-1,1-1h4c0.552,0,1,0.448,1,1v4	C19,31.552,18.552,32,18,32z"/><path fill="#cad2d9" d="M26,40h-4c-0.552,0-1-0.448-1-1v-4c0-0.552,0.448-1,1-1h4c0.552,0,1,0.448,1,1v4	C27,39.552,26.552,40,26,40z"/><path fill="#cad2d9" d="M18,40h-4c-0.552,0-1-0.448-1-1v-4c0-0.552,0.448-1,1-1h4c0.552,0,1,0.448,1,1v4	C19,39.552,18.552,40,18,40z"/><path fill="#cad2d9" d="M34,24h-4c-0.552,0-1-0.448-1-1v-4c0-0.552,0.448-1,1-1h4c0.552,0,1,0.448,1,1v4	C35,23.552,34.552,24,34,24z"/><linearGradient id="mITAq8Jw3RPLjBnwZ1M0dc" x1="32" x2="32" y1="26.551" y2="39.643" gradientUnits="userSpaceOnUse"><stop offset="0" stop-color="#11498a"/><stop offset="1" stop-color="#0f417a"/></linearGradient><path fill="url(#mITAq8Jw3RPLjBnwZ1M0dc)" d="M34,40h-4c-0.552,0-1-0.448-1-1V27c0-0.552,0.448-1,1-1h4c0.552,0,1,0.448,1,1v12	C35,39.552,34.552,40,34,40z"/></svg>