<svg xmlns="http://www.w3.org/2000/svg" viewBox="0 0 48 48"><linearGradient id="dWrVjd4avMKRfh~XT6w3_a" x1="24" x2="24" y1="10.691" y2="44.123" gradientUnits="userSpaceOnUse"><stop offset="0" stop-color="#bd4ff4"/><stop offset=".587" stop-color="#a235ec"/><stop offset="1" stop-color="#8c20e5"/></linearGradient><path fill="url(#dWrVjd4avMKRfh~XT6w3_a)" d="M40.981,19H7.019C5.904,19,5,18.096,5,16.981v-3.961C5,11.904,5.904,11,7.019,11h33.961 C42.096,11,43,11.904,43,13.019v3.961C43,18.096,42.096,19,40.981,19z M43,34.981v-3.961C43,29.904,42.096,29,40.981,29H7.019 C5.904,29,5,29.904,5,31.019v3.961C5,36.096,5.904,37,7.019,37h33.961C42.096,37,43,36.096,43,34.981z"/></svg>