<svg xmlns="http://www.w3.org/2000/svg" data-name="Слой 1" viewBox="0 0 48 48"><defs><linearGradient id="ZjpJmn4NmlfyRyiFu6oGIa" x1="24" x2="24" y1="47.87" y2="25.381" data-name="Безымянный градиент 120" gradientUnits="userSpaceOnUse"><stop offset="0" stop-color="#ffd869"/><stop offset="1" stop-color="#fec52b"/></linearGradient><linearGradient id="ZjpJmn4NmlfyRyiFu6oGIb" x1="15.757" x2="37.043" y1="-6.324" y2="52.159" data-name="Новый образец градиентной зал 2" gradientUnits="userSpaceOnUse"><stop offset="0" stop-color="#2aa4f4"/><stop offset="1" stop-color="#007ad9"/></linearGradient></defs><path fill="url(#ZjpJmn4NmlfyRyiFu6oGIa)" d="M28,43V19h4V43a2,2,0,0,1-2,2h0A2,2,0,0,1,28,43ZM16,43V19h4V43a2,2,0,0,1-2,2h0A2,2,0,0,1,16,43Z"/><path fill="url(#ZjpJmn4NmlfyRyiFu6oGIb)" d="M11,5V28H37V5a2.00588,2.00588,0,0,0-2-2H13A2.00588,2.00588,0,0,0,11,5Z"/><path fill="#42a4ed" d="M9,28v2H39V28a2.00588,2.00588,0,0,0-2-2H11A2.00588,2.00588,0,0,0,9,28Z"/></svg>