<svg xmlns="http://www.w3.org/2000/svg" id="Layer_1" x="0" y="0" version="1.1" viewBox="0 0 48 48" xml:space="preserve"><path fill="#f5be00" d="M38,23v11v4h-4v-2h-2v-2h-2V23H8v18c0,0.6,0.4,1,1,1h30c0.6,0,1-0.4,1-1v-5v-2V23H38z"/><path fill="#199be2" d="M13,24h4c0.6,0,1,0.4,1,1v8c0,0.6-0.4,1-1,1h-4c-0.6,0-1-0.4-1-1v-8C12,24.4,12.4,24,13,24z M21,24h4	c0.6,0,1,0.4,1,1v8c0,0.6-0.4,1-1,1h-4c-0.6,0-1-0.4-1-1v-8C20,24.4,20.4,24,21,24z"/><g opacity=".05"><path d="M38,27.7c0.6,0.2,1.2,0.3,1.8,0.3c0.1,0,0.1,0,0.2,0v-5h-2V27.7z"/><path d="M8,28c0.1,0,0.1,0,0.2,0c1.2,0,2.3-0.3,3.2-1c0.9,0.6,2,1,3.2,1c1.2,0,2.3-0.3,3.2-1c0.9,0.6,2,1,3.2,1s2.3-0.3,3.2-1 c0.9,0.6,2,1,3.2,1c1,0,2-0.3,2.8-0.8V23H8V28z"/></g><g opacity=".07"><path d="M38,27.2c0.6,0.2,1.2,0.3,1.8,0.3c0.1,0,0.1,0,0.2,0V23h-2V27.2z"/><path d="M8,27.5c0.1,0,0.1,0,0.2,0c1.2,0,2.3-0.4,3.2-1.1c0.8,0.7,2,1.1,3.2,1.1s2.3-0.4,3.2-1.1c0.8,0.7,2,1.1,3.2,1.1 s2.3-0.4,3.2-1.1c0.8,0.7,2,1.1,3.2,1.1c1,0,2-0.3,2.8-0.9V23H8V27.5z"/></g><linearGradient id="SVGID_1_" x1="24" x2="24" y1="31" y2="19.275" gradientUnits="userSpaceOnUse"><stop offset="0" stop-color="#c26715"/><stop offset=".508" stop-color="#b85515"/><stop offset="1" stop-color="#ad3f16"/></linearGradient><path fill="url(#SVGID_1_)" d="M44,23l-9.3-6.6c-0.2-0.1-0.3-0.1-0.6-0.2l-20.3,0.1c-0.2,0-0.4,0.1-0.6,0.2L4,23v0.3c0,2,1.9,3.7,4.2,3.7	c1.3,0,2.4-0.5,3.2-1.3c0.8,0.8,1.9,1.3,3.2,1.3s2.4-0.5,3.2-1.3c0.8,0.8,1.9,1.3,3.2,1.3s2.4-0.5,3.2-1.3c0.8,0.8,1.9,1.3,3.2,1.3	s2.4-0.5,3.2-1.3c0.8,0.8,1.9,1.3,3.2,1.3s2.4-0.5,3.2-1.3c0.8,0.8,1.9,1.3,3.2,1.3c2.3,0,4.2-1.6,4.2-3.7v-0.1C44,22.9,44,23,44,23	z"/><path d="M32.3,20c1.7,0,3.3-1,4.1-2.4l-1.7-1.2c-0.2-0.1-0.3-0.1-0.6-0.2l-20.3,0.1c-0.2,0-0.4,0.1-0.6,0.2l-1.6,1.1	C12.5,19,14.2,20,16,20c1,0,1.9-0.3,2.7-0.9c0.8,0.6,1.7,0.9,2.7,0.9c1,0,1.9-0.3,2.7-0.9c0.8,0.6,1.7,0.9,2.7,0.9	c1,0,1.9-0.3,2.7-0.9C30.4,19.7,31.3,20,32.3,20z" opacity=".05"/><path d="M32.3,19.5c1.6,0,3-0.9,3.7-2.2l-1.3-0.9c-0.2-0.1-0.3-0.1-0.6-0.2l-20.3,0.1c-0.2,0-0.4,0.1-0.6,0.2l-1.1,0.8	c0.8,1.3,2.3,2.2,3.9,2.2c1,0,2-0.4,2.7-1c0.8,0.6,1.7,1,2.7,1c1,0,2-0.4,2.7-1c0.8,0.6,1.7,1,2.7,1c1,0,2-0.4,2.7-1	C30.3,19.1,31.3,19.5,32.3,19.5z" opacity=".07"/><radialGradient id="SVGID_2_" cx="23.833" cy="10.373" r="19.39" gradientUnits="userSpaceOnUse"><stop offset="0" stop-color="#c26715"/><stop offset=".508" stop-color="#b85515"/><stop offset="1" stop-color="#ad3f16"/></radialGradient><path fill="url(#SVGID_2_)" d="M36,15.5l0-0.5L24.6,6.2c-0.3-0.2-0.8-0.2-1.1,0L12,15c0,0,0,0.5,0,0.5c0.1,1.9,2,3.5,4,3.5	c1.1,0,2-0.5,2.7-1.2c0.7,0.7,1.6,1.2,2.7,1.2s2-0.5,2.7-1.2c0.7,0.7,1.6,1.2,2.7,1.2s2-0.5,2.7-1.2c0.7,0.7,1.6,1.2,2.7,1.2	C34.3,19,35.9,17.4,36,15.5C36,15.5,36,15.5,36,15.5z"/></svg>