<svg xmlns="http://www.w3.org/2000/svg" viewBox="0 0 48 48"><path fill="#d6a121" d="M17.5,33c-1.381,0-2.5,1.119-2.5,2.5s1.119,2.5,2.5,2.5s2.5-1.119,2.5-2.5S18.881,33,17.5,33z"/><path fill="#d6a121" d="M13.5,32c-1.381,0-2.5,1.119-2.5,2.5s1.119,2.5,2.5,2.5s2.5-1.119,2.5-2.5S14.881,32,13.5,32z"/><path fill="#d6a121" d="M21.5,34c-1.381,0-2.5,1.119-2.5,2.5s1.119,2.5,2.5,2.5s2.5-1.119,2.5-2.5S22.881,34,21.5,34z"/><linearGradient id="IFanPMD_cxXtpWl1~p5hna" x1="21.243" x2="27.381" y1="14.534" y2="38.741" gradientUnits="userSpaceOnUse"><stop offset="0" stop-color="#ffc430"/><stop offset=".41" stop-color="#fec130"/><stop offset=".72" stop-color="#fcb730"/><stop offset=".998" stop-color="#f7a72f"/><stop offset="1" stop-color="#f7a72f"/></linearGradient><path fill="url(#IFanPMD_cxXtpWl1~p5hna)" d="M41.952,24c-1.269,0-2.505-0.402-3.531-1.149l-11.154-8.119C26.815,14.28,26.19,14,25.5,14 h-11c-0.724,0-1.371,0.313-1.827,0.804l-0.016,0.007l-8.99,9.99l0.005,0.004C3.258,25.252,3,25.844,3,26.5 C3,27.881,4.119,29,5.5,29c0.69,0,1.315-0.28,1.768-0.732l1.606,1.997l1.956,3.477l14.972,4.076l0.125,0.019 C26.271,37.932,26.626,38,27,38h18V24H41.952z"/><path fill="#d6a121" d="M19.599,20l-7.409,8.977c0,0,6.864,0,8.809,0c2.808,0,4-1.079,4-2.977	C25,24.517,22.177,22.172,19.599,20z"/><linearGradient id="IFanPMD_cxXtpWl1~p5hnb" x1="3" x2="20.032" y1="27.495" y2="27.495" gradientUnits="userSpaceOnUse"><stop offset="0" stop-color="#3079d6"/><stop offset="1" stop-color="#297cd2"/></linearGradient><path fill="url(#IFanPMD_cxXtpWl1~p5hnb)" d="M5.26,30.529c-0.323,0.357-0.578,0.77-0.751,1.219l-1.449,3.753	c-0.276,0.714,0.469,1.394,1.155,1.055l3.614-1.783c0.44-0.217,0.836-0.516,1.166-0.879l11.038-12.174l-3.723-3.377L5.26,30.529z"/><linearGradient id="IFanPMD_cxXtpWl1~p5hnc" x1="17.98" x2="33" y1="11.943" y2="11.943" gradientUnits="userSpaceOnUse"><stop offset="0" stop-color="#3079d6"/><stop offset="1" stop-color="#297cd2"/></linearGradient><path fill="url(#IFanPMD_cxXtpWl1~p5hnc)" d="M32.179,4.655c-1.025-0.934-2.615-0.861-3.55,0.165L17.98,16.509l3.723,3.377l10.641-11.68	C33.279,7.179,33.206,5.59,32.179,4.655z"/><linearGradient id="IFanPMD_cxXtpWl1~p5hnd" x1="16.309" x2="21.703" y1="19.115" y2="19.115" gradientUnits="userSpaceOnUse"><stop offset="0" stop-color="#42a3f2"/><stop offset="1" stop-color="#42a4eb"/></linearGradient><path fill="url(#IFanPMD_cxXtpWl1~p5hnd)" d="M16.309,18.344l3.723,3.377l1.672-1.834l-3.723-3.377L16.309,18.344z"/><linearGradient id="IFanPMD_cxXtpWl1~p5hne" x1="12.459" x2="18.26" y1="16.395" y2="40.282" gradientUnits="userSpaceOnUse"><stop offset="0" stop-color="#ffc430"/><stop offset=".41" stop-color="#fec130"/><stop offset=".72" stop-color="#fcb730"/><stop offset=".998" stop-color="#f7a72f"/><stop offset="1" stop-color="#f7a72f"/></linearGradient><path fill="url(#IFanPMD_cxXtpWl1~p5hne)" d="M24.68,37.511L21.236,29c-0.564,0-9.045-0.993-9.045-0.993l-0.003,0.012 C12.124,28.015,12.064,28,12,28c-1.657,0-3,1.343-3,3c0,1.536,1.158,2.787,2.646,2.964L24.68,37.511z"/><circle cx="12" cy="31" r="2" fill="#fff0c9"/></svg>