<svg xmlns="http://www.w3.org/2000/svg" viewBox="0 0 48 48"><linearGradient id="_pEw0pDoryLB~o_hL~LWHa" x1="23.758" x2="24.156" y1="8.838" y2="37.888" gradientUnits="userSpaceOnUse"><stop offset="0" stop-color="#889097"/><stop offset="1" stop-color="#64717c"/></linearGradient><path fill="url(#_pEw0pDoryLB~o_hL~LWHa)" d="M43,11h-9.679c-0.696,0-1.343-0.362-1.706-0.956L29.6,6.751C29.22,6.276,28.645,6,28.037,6 h-8.074C19.355,6,18.78,6.276,18.4,6.751l-2.016,3.293C16.02,10.638,15.374,11,14.678,11H5c-1.105,0-2,0.895-2,2v27 c0,1.105,0.895,2,2,2h38c1.105,0,2-0.895,2-2V13C45,11.895,44.105,11,43,11z"/><path d="M36.815,25.02L36.815,25.02c-0.289-0.629-0.88-1.02-1.543-1.02 l-1.484,0.002c-0.944-4.587-5.083-7.994-9.801-7.994l-0.284,0.004c-5.206,0.149-9.56,4.505-9.706,9.709 c-0.151,5.355,4.074,9.962,9.5,10.272c0.381,0,0.744-0.146,1.021-0.408c0.302-0.284,0.475-0.685,0.475-1.099v-3.007 c0-0.774-0.592-1.415-1.378-1.491c-1.129-0.105-2.166-0.695-2.845-1.617c-0.685-0.93-0.928-2.079-0.685-3.236 c0.314-1.5,1.534-2.72,3.036-3.036c1.072-0.225,2.157-0.027,3.054,0.561c0.521,0.343,0.959,0.809,1.272,1.349l-1.736,0.001 c-0.664,0-1.256,0.394-1.544,1.027c-0.313,0.686-0.202,1.488,0.282,2.042l4.566,5.239c0.371,0.427,0.91,0.673,1.479,0.673 c0.001,0,0.001,0,0.002,0c0.568,0,1.108-0.245,1.481-0.673l4.563-5.254C37.021,26.503,37.128,25.701,36.815,25.02z" opacity=".05"/><path d="M36.361,25.228c-0.207-0.449-0.623-0.728-1.088-0.728l-1.902,0.002 c-0.732-4.561-4.745-7.994-9.384-7.994c-0.089,0-0.179,0.002-0.27,0.004c-4.945,0.142-9.082,4.278-9.221,9.223 c-0.144,5.088,3.869,9.465,8.947,9.757c0.018,0.001,0.035,0.002,0.053,0.002c0.249,0,0.494-0.098,0.679-0.272 c0.202-0.19,0.317-0.458,0.317-0.734v-3.007c0-0.515-0.397-0.942-0.925-0.993c-1.271-0.119-2.438-0.782-3.2-1.818 c-0.771-1.046-1.045-2.337-0.771-3.636c0.354-1.69,1.729-3.066,3.422-3.423c1.208-0.255,2.425-0.028,3.432,0.632 c0.824,0.541,1.451,1.347,1.779,2.266l-2.518,0.002c-0.466,0-0.883,0.281-1.089,0.734c-0.231,0.508-0.151,1.1,0.204,1.507 l4.567,5.239c0.58,0.668,1.624,0.668,2.206,0l4.561-5.251C36.515,26.325,36.593,25.732,36.361,25.228z" opacity=".07"/><path fill="#fff" d="M14.997,25.748c0.132-4.692,4.043-8.603,8.735-8.737c5.081-0.145,9.261,3.946,9.261,8.996h-4 c0-3.109-2.852-5.564-6.077-4.887c-1.887,0.397-3.413,1.922-3.809,3.809c-0.643,3.06,1.534,5.784,4.414,6.055 c0.263,0.026,0.472,0.23,0.472,0.495v3.007c0,0.284-0.239,0.522-0.522,0.506C18.666,34.716,14.858,30.652,14.997,25.748z"/><path fill="#fff" d="M29.771,31.661l-4.567-5.239c-0.451-0.518-0.131-1.413,0.508-1.413L35.273,25 c0.64,0,0.959,0.886,0.508,1.413l-4.559,5.248C30.821,32.122,30.173,32.122,29.771,31.661z"/></svg>