<svg xmlns="http://www.w3.org/2000/svg" viewBox="0 0 48 48"><rect width="28" height="14" x="10" y="28" fill="#0078d4"/><path fill="#199be2" d="M10,8.75V28h28V8.75C38,7.231,36.747,6,35.2,6H12.8C11.253,6,10,7.231,10,8.75z"/><rect width="2" height="2" x="25" y="10" fill="#0d62ab"/><rect width="2" height="2" x="29" y="10" fill="#0d62ab"/><rect width="2" height="2" x="17" y="10" fill="#0d62ab"/><rect width="2" height="2" x="21" y="10" fill="#0d62ab"/><rect width="2" height="2" x="13" y="10" fill="#0d62ab"/><rect width="2" height="2" x="33" y="10" fill="#0d62ab"/><rect width="2" height="2" x="25" y="14" fill="#0d62ab"/><rect width="2" height="2" x="29" y="14" fill="#0d62ab"/><rect width="2" height="2" x="17" y="14" fill="#0d62ab"/><rect width="2" height="2" x="21" y="14" fill="#0d62ab"/><rect width="2" height="2" x="13" y="14" fill="#0d62ab"/><rect width="2" height="2" x="33" y="14" fill="#0d62ab"/><rect width="2" height="2" x="25" y="18" fill="#0d62ab"/><rect width="2" height="2" x="29" y="18" fill="#0d62ab"/><rect width="2" height="2" x="17" y="18" fill="#0d62ab"/><rect width="2" height="2" x="21" y="18" fill="#0d62ab"/><rect width="2" height="2" x="13" y="18" fill="#0d62ab"/><rect width="2" height="2" x="33" y="18" fill="#0d62ab"/><g><rect width="2" height="2" x="25" y="22" fill="#0d62ab"/><rect width="2" height="2" x="29" y="22" fill="#0d62ab"/><rect width="2" height="2" x="17" y="22" fill="#0d62ab"/><rect width="2" height="2" x="21" y="22" fill="#0d62ab"/><rect width="2" height="2" x="13" y="22" fill="#0d62ab"/><rect width="2" height="2" x="33" y="22" fill="#0d62ab"/></g><rect width="2" height="2" x="29" y="32" fill="#005094"/><rect width="2" height="2" x="17" y="32" fill="#005094"/><rect width="2" height="2" x="13" y="32" fill="#005094"/><rect width="2" height="2" x="33" y="32" fill="#005094"/><rect width="2" height="2" x="29" y="36" fill="#005094"/><rect width="2" height="2" x="17" y="36" fill="#005094"/><rect width="2" height="2" x="13" y="36" fill="#005094"/><rect width="2" height="2" x="33" y="36" fill="#005094"/><rect width="6" height="10" x="21" y="32" fill="#005094"/></svg>