<svg xmlns="http://www.w3.org/2000/svg" viewBox="0 0 48 48"><path fill="#37c6d0" d="M44,32H14V8c0-1.105,0.895-2,2-2h26c1.105,0,2,0.895,2,2V32z"/><path fill="#036c70" d="M14,32h30v7c0,1.105-0.895,2-2,2H16c-1.105,0-2-0.895-2-2V32z"/><circle cx="38" cy="11" r="2" fill="#86f2f2"/><path fill="#1a9ba1" d="M23.515,32H44v-9.243l-4.164-4.164c-0.805-0.805-2.11-0.805-2.915,0L23.515,32z"/><path fill="#038387" d="M44,28.757L31.836,16.593c-0.805-0.805-2.11-0.805-2.915,0L14,31.515V32h30V28.757z"/><path d="M22.319,13H14v24h8.319C24.352,37,26,35.352,26,33.319V16.681C26,14.648,24.352,13,22.319,13z" opacity=".05"/><path d="M22.213,36H14V13.333h8.213c1.724,0,3.121,1.397,3.121,3.121v16.425	C25.333,34.603,23.936,36,22.213,36z" opacity=".07"/><path d="M22.106,35H14V13.667h8.106c1.414,0,2.56,1.146,2.56,2.56V32.44C24.667,33.854,23.52,35,22.106,35z" opacity=".09"/><linearGradient id="G1Vjv51NuXTqXp0qLUzPaa" x1="4.586" x2="23.414" y1="14.586" y2="33.414" gradientUnits="userSpaceOnUse"><stop offset="0" stop-color="#058d91"/><stop offset=".391" stop-color="#04858a"/><stop offset=".98" stop-color="#027176"/><stop offset="1" stop-color="#027075"/></linearGradient><path fill="url(#G1Vjv51NuXTqXp0qLUzPaa)" d="M22,34H6c-1.105,0-2-0.895-2-2V16c0-1.105,0.895-2,2-2h16c1.105,0,2,0.895,2,2v16	C24,33.105,23.105,34,22,34z"/><path fill="#fff" d="M10.432,28.75v-2.298c0.426,0.349,2.391,1.048,2.9,1.048c0.299,0,2.138,0.088,2.138-1.041	c0-1.633-5.082-1.494-5.082-4.725c0-0.536,0.066-3.059,4.133-3.059c1.041,0,2.271,0.261,2.628,0.395v2.147	c-0.176-0.12-0.89-0.718-2.496-0.718c-1.877,0-2.04,0.883-2.04,1.041c0,1.359,4.998,1.544,4.998,4.711	c0,3.172-3.614,3.074-4.177,3.074C12.857,29.325,10.814,28.942,10.432,28.75z"/></svg>