<svg xmlns="http://www.w3.org/2000/svg" viewBox="0 0 48 48"><linearGradient id="8CDmvODElDoxbzPHScYSga" x1="24" x2="24" y1="8.087" y2="34.028" gradientUnits="userSpaceOnUse"><stop offset="0" stop-color="#0d61a9"/><stop offset="1" stop-color="#16528c"/></linearGradient><path fill="url(#8CDmvODElDoxbzPHScYSga)" d="M35.969,9.996c-0.001-1.099-0.901-1.997-2-1.996l-3.971,0.006	C28.894,8.007,28,8.902,28,10.006V26h-8V10.025c0-1.105-0.897-2.001-2.002-2l-4.002,0.006c-1.099,0.001-1.997,0.901-1.996,2	l0.031,21.973c0.001,1.099,0.901,1.997,2,1.996l19.973-0.031c1.099-0.001,1.997-0.901,1.996-2L35.969,9.996z"/><linearGradient id="8CDmvODElDoxbzPHScYSgb" x1="38" x2="44" y1="11" y2="11" gradientUnits="userSpaceOnUse"><stop offset="0" stop-color="#32bdef"/><stop offset="1" stop-color="#1ea2e4"/></linearGradient><circle cx="41" cy="11" r="3" fill="url(#8CDmvODElDoxbzPHScYSgb)"/><linearGradient id="8CDmvODElDoxbzPHScYSgc" x1="38" x2="44" y1="21" y2="21" gradientUnits="userSpaceOnUse"><stop offset="0" stop-color="#32bdef"/><stop offset="1" stop-color="#1ea2e4"/></linearGradient><circle cx="41" cy="21" r="3" fill="url(#8CDmvODElDoxbzPHScYSgc)"/><linearGradient id="8CDmvODElDoxbzPHScYSgd" x1="38" x2="44" y1="31" y2="31" gradientUnits="userSpaceOnUse"><stop offset="0" stop-color="#32bdef"/><stop offset="1" stop-color="#1ea2e4"/></linearGradient><circle cx="41" cy="31" r="3" fill="url(#8CDmvODElDoxbzPHScYSgd)"/><linearGradient id="8CDmvODElDoxbzPHScYSge" x1="16" x2="22" y1="39" y2="39" gradientUnits="userSpaceOnUse"><stop offset="0" stop-color="#32bdef"/><stop offset="1" stop-color="#1ea2e4"/></linearGradient><circle cx="19" cy="39" r="3" fill="url(#8CDmvODElDoxbzPHScYSge)"/><linearGradient id="8CDmvODElDoxbzPHScYSgf" x1="26" x2="32" y1="39" y2="39" gradientUnits="userSpaceOnUse"><stop offset="0" stop-color="#32bdef"/><stop offset="1" stop-color="#1ea2e4"/></linearGradient><circle cx="29" cy="39" r="3" fill="url(#8CDmvODElDoxbzPHScYSgf)"/><linearGradient id="8CDmvODElDoxbzPHScYSgg" x1="4" x2="10" y1="11" y2="11" gradientUnits="userSpaceOnUse"><stop offset="0" stop-color="#32bdef"/><stop offset="1" stop-color="#1ea2e4"/></linearGradient><circle cx="7" cy="11" r="3" fill="url(#8CDmvODElDoxbzPHScYSgg)"/><linearGradient id="8CDmvODElDoxbzPHScYSgh" x1="4" x2="10" y1="21" y2="21" gradientUnits="userSpaceOnUse"><stop offset="0" stop-color="#32bdef"/><stop offset="1" stop-color="#1ea2e4"/></linearGradient><circle cx="7" cy="21" r="3" fill="url(#8CDmvODElDoxbzPHScYSgh)"/><linearGradient id="8CDmvODElDoxbzPHScYSgi" x1="4" x2="10" y1="31" y2="31" gradientUnits="userSpaceOnUse"><stop offset="0" stop-color="#32bdef"/><stop offset="1" stop-color="#1ea2e4"/></linearGradient><circle cx="7" cy="31" r="3" fill="url(#8CDmvODElDoxbzPHScYSgi)"/></svg>