<svg xmlns="http://www.w3.org/2000/svg" viewBox="0 0 48 48"><radialGradient id="i~Nv39G0X4NmN4eYAEOOZa" cx="261.239" cy="-66.409" r="86.245" gradientTransform="matrix(.5714 0 0 -.9284 -108.983 11.843)" gradientUnits="userSpaceOnUse"><stop offset=".323" stop-color="#23d9d6"/><stop offset=".427" stop-color="#23d4d7"/><stop offset=".542" stop-color="#21c7dc"/><stop offset=".664" stop-color="#1fb0e2"/><stop offset=".789" stop-color="#1c91ec"/><stop offset=".917" stop-color="#1969f8"/><stop offset=".944" stop-color="#1860fb"/></radialGradient><rect width="24" height="31" x="12" y="9" fill="url(#i~Nv39G0X4NmN4eYAEOOZa)"/><linearGradient id="i~Nv39G0X4NmN4eYAEOOZb" x1="12" x2="36" y1="42.5" y2="42.5" gradientUnits="userSpaceOnUse"><stop offset="0" stop-color="#a1aab3"/><stop offset="1" stop-color="#8f979e"/></linearGradient><path fill="url(#i~Nv39G0X4NmN4eYAEOOZb)" d="M36,40H12v3c0,1.105,0.895,2,2,2h20c1.105,0,2-0.895,2-2V40z"/><linearGradient id="i~Nv39G0X4NmN4eYAEOOZc" x1="12" x2="36" y1="6.5" y2="6.5" gradientUnits="userSpaceOnUse"><stop offset="0" stop-color="#a1aab3"/><stop offset="1" stop-color="#8f979e"/></linearGradient><path fill="url(#i~Nv39G0X4NmN4eYAEOOZc)" d="M36,9H12V6c0-1.105,0.895-2,2-2h20c1.105,0,2,0.895,2,2V9z"/><circle cx="20" cy="6.5" r=".75" fill="#0c63ad"/><path fill="#0c63ad" d="M27.5,5.75c-0.194,0-4.806,0-5,0c-0.414,0-0.75,0.336-0.75,0.75s0.336,0.75,0.75,0.75	c0.194,0,4.806,0,5,0c0.414,0,0.75-0.336,0.75-0.75S27.914,5.75,27.5,5.75z"/><path d="M24,14.5v5c0,0.828,0.672,1.5,1.5,1.5h5c0.828,0,1.5-0.672,1.5-1.5v-5	c0-0.828-0.672-1.5-1.5-1.5h-5C24.672,13,24,13.672,24,14.5z" opacity=".05"/><path d="M30.5,20.5h-5c-0.552,0-1-0.448-1-1v-5c0-0.552,0.448-1,1-1h5	c0.552,0,1,0.448,1,1v5C31.5,20.052,31.052,20.5,30.5,20.5z" opacity=".07"/><path d="M16,14.5v5c0,0.828,0.672,1.5,1.5,1.5h5c0.828,0,1.5-0.672,1.5-1.5v-5	c0-0.828-0.672-1.5-1.5-1.5h-5C16.672,13,16,13.672,16,14.5z" opacity=".05"/><path d="M22.5,20.5h-5c-0.552,0-1-0.448-1-1v-5c0-0.552,0.448-1,1-1h5	c0.552,0,1,0.448,1,1v5C23.5,20.052,23.052,20.5,22.5,20.5z" opacity=".07"/><path d="M16,22.5v5c0,0.828,0.672,1.5,1.5,1.5h5c0.828,0,1.5-0.672,1.5-1.5v-5	c0-0.828-0.672-1.5-1.5-1.5h-5C16.672,21,16,21.672,16,22.5z" opacity=".05"/><path d="M22.5,28.5h-5c-0.552,0-1-0.448-1-1v-5c0-0.552,0.448-1,1-1h5	c0.552,0,1,0.448,1,1v5C23.5,28.052,23.052,28.5,22.5,28.5z" opacity=".07"/><path d="M24,22.5v5c0,0.828,0.672,1.5,1.5,1.5h5c0.828,0,1.5-0.672,1.5-1.5v-5	c0-0.828-0.672-1.5-1.5-1.5h-5C24.672,21,24,21.672,24,22.5z" opacity=".05"/><path d="M30.5,28.5h-5c-0.552,0-1-0.448-1-1v-5c0-0.552,0.448-1,1-1h5	c0.552,0,1,0.448,1,1v5C31.5,28.052,31.052,28.5,30.5,28.5z" opacity=".07"/><path fill="#fff" d="M22.5,20h-5c-0.276,0-0.5-0.224-0.5-0.5v-5c0-0.276,0.224-0.5,0.5-0.5h5c0.276,0,0.5,0.224,0.5,0.5v5	C23,19.776,22.776,20,22.5,20z"/><path fill="#fff" d="M22.5,28h-5c-0.276,0-0.5-0.224-0.5-0.5v-5c0-0.276,0.224-0.5,0.5-0.5h5c0.276,0,0.5,0.224,0.5,0.5v5	C23,27.776,22.776,28,22.5,28z"/><path fill="#fff" d="M30.5,28h-5c-0.276,0-0.5-0.224-0.5-0.5v-5c0-0.276,0.224-0.5,0.5-0.5h5c0.276,0,0.5,0.224,0.5,0.5v5	C31,27.776,30.776,28,30.5,28z"/><path fill="#fff" d="M30.5,20h-5c-0.276,0-0.5-0.224-0.5-0.5v-5c0-0.276,0.224-0.5,0.5-0.5h5c0.276,0,0.5,0.224,0.5,0.5v5	C31,19.776,30.776,20,30.5,20z"/></svg>