<svg xmlns="http://www.w3.org/2000/svg" viewBox="0 0 48 48"><linearGradient id="LtuBHyKHg8you5T0fnwhOa" x1="22.149" x2="28.629" y1="12.334" y2="40.374" gradientUnits="userSpaceOnUse"><stop offset="0" stop-color="#f09801"/><stop offset="1" stop-color="#e36001"/></linearGradient><path fill="url(#LtuBHyKHg8you5T0fnwhOa)" d="M17.267,39.208c-0.085,0.596-0.145,1.193-0.19,1.792h13.846 c-0.044-0.599-0.105-1.196-0.19-1.792C30.396,36.837,29.874,32.752,30,31c0.352-4.899,4-13.088,4-18H14c0,4.912,3.648,13.101,4,18 C18.126,32.752,17.604,36.837,17.267,39.208z"/><linearGradient id="LtuBHyKHg8you5T0fnwhOb" x1="22.189" x2="24.247" y1="3.629" y2="12.534" gradientUnits="userSpaceOnUse"><stop offset="0" stop-color="#ffda1c"/><stop offset="1" stop-color="#feb705"/></linearGradient><path fill="url(#LtuBHyKHg8you5T0fnwhOb)" d="M31.347,3H16.653c-0.406,0-0.77,0.239-0.923,0.614C15.184,4.952,14,8.384,14,13h20 c0-4.616-1.184-8.048-1.73-9.386C32.117,3.239,31.753,3,31.347,3z"/><linearGradient id="LtuBHyKHg8you5T0fnwhOc" x1="23.517" x2="24.523" y1="40.293" y2="44.437" gradientUnits="userSpaceOnUse"><stop offset="0" stop-color="#32bdef"/><stop offset="1" stop-color="#1ea2e4"/></linearGradient><path fill="url(#LtuBHyKHg8you5T0fnwhOc)" d="M17.077,41C17.028,41.668,17,42.337,17,43.008v0c0,1.1,0.892,1.992,1.992,1.992h10.017 c1.1,0,1.992-0.892,1.992-1.992v0c0-0.671-0.028-1.34-0.077-2.008H17.077z"/><circle cx="23" cy="20" r="1" fill="#ffa000"/><circle cx="28" cy="16" r="1" fill="#ffa000"/><circle cx="27.5" cy="22.5" r=".5" fill="#ffa000"/><circle cx="18.5" cy="16.5" r=".5" fill="#ffa000"/><circle cx="20.5" cy="25.5" r=".5" fill="#ffa000"/><circle cx="26" cy="28" r="1" fill="#ffa000"/></svg>