<svg xmlns="http://www.w3.org/2000/svg" viewBox="0 0 48 48"><linearGradient id="1tt8tEfdSlUH55KUKlYETa" x1="24.011" x2="24.011" y1="91.642" y2="117.783" gradientTransform="matrix(1 0 0 -1 0 120.22)" gradientUnits="userSpaceOnUse"><stop offset="0" stop-color="#737b80"/><stop offset=".473" stop-color="#686f74"/><stop offset="1" stop-color="#575c61"/></linearGradient><path fill="url(#1tt8tEfdSlUH55KUKlYETa)" d="M41.829,31.015L39.401,9.551C39.173,7.528,37.462,6,35.427,6H12.576	c-2.037,0-3.748,1.53-3.975,3.554l-2.408,21.46L24,31L41.829,31.015z"/><linearGradient id="1tt8tEfdSlUH55KUKlYETb" x1="-1058" x2="-1058" y1="90.776" y2="73.476" gradientTransform="rotate(180 -517 60.11)" gradientUnits="userSpaceOnUse"><stop offset="0" stop-color="#899198"/><stop offset="1" stop-color="#787e85"/></linearGradient><path fill="url(#1tt8tEfdSlUH55KUKlYETb)" d="M9,42h30c1.65,0,3-1.35,3-3v-7c0-1.65-1.35-3-3-3H9c-1.65,0-3,1.35-3,3v7	C6,40.65,7.35,42,9,42z"/><linearGradient id="1tt8tEfdSlUH55KUKlYETc" x1="37.773" x2="34.17" y1="82.947" y2="86.55" gradientTransform="matrix(1 0 0 -1 0 120.22)" gradientUnits="userSpaceOnUse"><stop offset="0" stop-color="#fff"/><stop offset=".242" stop-color="#f2f2f2"/><stop offset="1" stop-color="#ccc"/></linearGradient><path fill="url(#1tt8tEfdSlUH55KUKlYETc)" d="M38.5,35.5c0,1.38-1.12,2.5-2.5,2.5s-2.5-1.12-2.5-2.5S34.62,33,36,33S38.5,34.12,38.5,35.5z"/><linearGradient id="1tt8tEfdSlUH55KUKlYETd" x1="34.94" x2="37.06" y1="85.781" y2="83.659" gradientTransform="matrix(1 0 0 -1 0 120.22)" gradientUnits="userSpaceOnUse"><stop offset="0" stop-color="#21ad64"/><stop offset="1" stop-color="#088242"/></linearGradient><path fill="url(#1tt8tEfdSlUH55KUKlYETd)" d="M37.5,35.5c0,0.828-0.672,1.5-1.5,1.5s-1.5-0.672-1.5-1.5S35.172,34,36,34	S37.5,34.672,37.5,35.5z"/><path fill="#737b80" d="M12,34h18c0.552,0,1,0.448,1,1v1c0,0.552-0.448,1-1,1H12c-0.552,0-1-0.448-1-1v-1	C11,34.448,11.448,34,12,34z"/><path d="M14.433,25.5c-0.79,0-1.433-0.643-1.433-1.433v-2.134c0-0.325,0.117-0.64,0.327-0.894l-0.326-6.572	c-0.022-0.458,0.138-0.891,0.452-1.219c0.309-0.326,0.743-0.513,1.189-0.513c0.271,0,0.541,0.069,0.783,0.201l4.094,2.226	l2.792-4.698C22.667,9.861,23.299,9.5,24,9.5c0.7,0,1.332,0.36,1.691,0.964l2.792,4.697l4.092-2.226c0.239-0.131,0.51-0.2,0.782-0.2	c0.446,0,0.88,0.187,1.19,0.513c0.313,0.329,0.474,0.762,0.451,1.218l-0.325,6.571C34.883,21.292,35,21.607,35,21.933v2.134	c0,0.79-0.643,1.433-1.433,1.433H14.433z" opacity=".05"/><path d="M34.162,21.23l0.336-6.788c0.016-0.318-0.096-0.62-0.314-0.849c-0.216-0.227-0.518-0.357-0.828-0.357	c-0.188,0-0.376,0.048-0.543,0.14l-4.515,2.456l-3.037-5.111C24.993,10.269,24.521,10,24,10s-0.993,0.269-1.26,0.72l-3.037,5.112	l-4.517-2.456c-0.168-0.091-0.356-0.14-0.544-0.14c-0.31,0-0.611,0.13-0.827,0.357c-0.218,0.229-0.33,0.531-0.314,0.85l0.337,6.789	c-0.202,0.171-0.337,0.417-0.337,0.702v2.134c0,0.515,0.418,0.933,0.933,0.933h19.134c0.515,0,0.933-0.418,0.933-0.933v-2.134	C34.5,21.648,34.364,21.402,34.162,21.23z" opacity=".07"/><path fill="#edbe00" d="M14.401,22.5h19.197l0.4-8.083c0.025-0.504-0.506-0.843-0.946-0.603L28.114,16.5l-3.283-5.525	c-0.377-0.634-1.286-0.634-1.662,0L19.886,16.5l-4.94-2.686c-0.44-0.24-0.971,0.099-0.946,0.603L14.401,22.5z"/><path fill="#e3a600" d="M33.567,24.5H14.433C14.194,24.5,14,24.306,14,24.067v-2.134c0-0.239,0.194-0.433,0.433-0.433h19.134	c0.239,0,0.433,0.194,0.433,0.433v2.134C34,24.306,33.806,24.5,33.567,24.5z"/></svg>