<svg xmlns="http://www.w3.org/2000/svg" data-name="Слой 1" viewBox="0 0 48 48"><defs><radialGradient id="bE~LvFS1UeT2FaqEnhefAa" cx="5.174" cy="3.957" r="52.324" data-name="Безымянный градиент 6" gradientUnits="userSpaceOnUse"><stop offset=".002" stop-color="#427fdb"/><stop offset=".397" stop-color="#2668cb"/><stop offset=".763" stop-color="#1358bf"/><stop offset="1" stop-color="#0c52bb"/></radialGradient></defs><path fill="url(#bE~LvFS1UeT2FaqEnhefAa)" d="M40.28571,44H7.71429C6.76714,44,6,42.91515,6,41.57576V6.42424C6,5.08485,6.76714,4,7.71429,4H40.28571C41.23286,4,42,5.08485,42,6.42424V41.57576C42,42.91515,41.23286,44,40.28571,44Z"/><path fill="#fff" d="M38,19H36a1.00036,1.00036,0,0,1-1-1V16a1.00036,1.00036,0,0,1,1-1h2a1.00036,1.00036,0,0,1,1,1v2A1.00036,1.00036,0,0,1,38,19Z"/><path fill="#fff" d="M38,12H36a1.00036,1.00036,0,0,1-1-1V9a1.00036,1.00036,0,0,1,1-1h2a1.00036,1.00036,0,0,1,1,1v2A1.00036,1.00036,0,0,1,38,12Z"/><path fill="#fff" d="M38,26H36a1.00036,1.00036,0,0,1-1-1V23a1.00036,1.00036,0,0,1,1-1h2a1.00036,1.00036,0,0,1,1,1v2A1.00036,1.00036,0,0,1,38,26Z"/><path fill="#fff" d="M38,33H36a1.00036,1.00036,0,0,1-1-1V30a1.00036,1.00036,0,0,1,1-1h2a1.00036,1.00036,0,0,1,1,1v2A1.00036,1.00036,0,0,1,38,33Z"/><path fill="#fff" d="M38,40H36a1.00036,1.00036,0,0,1-1-1V37a1.00036,1.00036,0,0,1,1-1h2a1.00036,1.00036,0,0,1,1,1v2A1.00036,1.00036,0,0,1,38,40Z"/><g><path fill="#fff" d="M12,19H10a1.00036,1.00036,0,0,1-1-1V16a1.00036,1.00036,0,0,1,1-1h2a1.00036,1.00036,0,0,1,1,1v2A1.00036,1.00036,0,0,1,12,19Z"/><path fill="#fff" d="M12,12H10a1.00036,1.00036,0,0,1-1-1V9a1.00036,1.00036,0,0,1,1-1h2a1.00036,1.00036,0,0,1,1,1v2A1.00036,1.00036,0,0,1,12,12Z"/><path fill="#fff" d="M12,26H10a1.00036,1.00036,0,0,1-1-1V23a1.00036,1.00036,0,0,1,1-1h2a1.00036,1.00036,0,0,1,1,1v2A1.00036,1.00036,0,0,1,12,26Z"/><path fill="#fff" d="M12,33H10a1.00036,1.00036,0,0,1-1-1V30a1.00036,1.00036,0,0,1,1-1h2a1.00036,1.00036,0,0,1,1,1v2A1.00036,1.00036,0,0,1,12,33Z"/><path fill="#fff" d="M12,40H10a1.00036,1.00036,0,0,1-1-1V37a1.00036,1.00036,0,0,1,1-1h2a1.00036,1.00036,0,0,1,1,1v2A1.00036,1.00036,0,0,1,12,40Z"/></g><g><path d="M19.82343,16.50014a.81257.81257,0,0,1,.45357.13944l10.016,6.677a.8212.8212,0,0,1,0,1.367l-10.016,6.677a.81166.81166,0,0,1-.453.13928A.82276.82276,0,0,1,19,30.67658v-13.354a.82189.82189,0,0,1,.82343-.82244m0-1A1.825,1.825,0,0,0,18,17.32258v13.354a1.81985,1.81985,0,0,0,2.8317,1.516l10.016-6.677a1.82121,1.82121,0,0,0-.00037-3.03137L20.83168,15.80752a1.813,1.813,0,0,0-1.00825-.30738Z" opacity=".05"/><path d="M19.82343,16.50014a.81257.81257,0,0,1,.45357.13944l10.016,6.677a.8212.8212,0,0,1,0,1.367l-10.016,6.677a.81166.81166,0,0,1-.453.13928A.82276.82276,0,0,1,19,30.67658v-13.354a.82189.82189,0,0,1,.82343-.82244m0-.5A1.32443,1.32443,0,0,0,18.5,17.32258v13.354a1.31987,1.31987,0,0,0,2.05435,1.1l10.016-6.677a1.32121,1.32121,0,0,0-.00019-2.19919L20.55434,16.22355a1.31463,1.31463,0,0,0-.73091-.22341Z" opacity=".07"/><path fill="#fff" d="M19,30.67658v-13.354a.82117.82117,0,0,1,1.277-.683l10.016,6.677a.82121.82121,0,0,1,0,1.367l-10.016,6.677A.82157.82157,0,0,1,19,30.67658Z"/></g></svg>