<svg xmlns="http://www.w3.org/2000/svg" xmlns:xlink="http://www.w3.org/1999/xlink" data-name="Слой 1" viewBox="0 0 48 48"><defs><linearGradient id="a~wQFXU4gZI02yToSuUIxc" x1="19" x2="29" y1="10" y2="10" data-name="Безымянный градиент 140" gradientUnits="userSpaceOnUse"><stop offset="0" stop-color="#0d61a9"/><stop offset="1" stop-color="#16528c"/></linearGradient><linearGradient id="a~wQFXU4gZI02yToSuUIxa" x1="32.147" x2="32.147" y1="2.478" y2="27.23" data-name="Безымянный градиент 139" gradientUnits="userSpaceOnUse"><stop offset="0" stop-color="#32bdef"/><stop offset="1" stop-color="#1ea2e4"/></linearGradient><linearGradient id="a~wQFXU4gZI02yToSuUIxb" x1="25" x2="25" y1="1.043" y2="19.897" gradientUnits="userSpaceOnUse"><stop offset="0" stop-color="#a8e2f7"/><stop offset="1" stop-color="#47c1ff"/></linearGradient><linearGradient id="a~wQFXU4gZI02yToSuUIxd" x1="15.853" x2="15.853" y1="4.304" y2="47.825" xlink:href="#a~wQFXU4gZI02yToSuUIxa"/><linearGradient id="a~wQFXU4gZI02yToSuUIxe" x1="13.283" x2="34.481" y1="27.5" y2="27.5" xlink:href="#a~wQFXU4gZI02yToSuUIxb"/><linearGradient id="a~wQFXU4gZI02yToSuUIxf" x1="19.5" x2="19.5" y1="24.065" y2="44.74" xlink:href="#a~wQFXU4gZI02yToSuUIxb"/><linearGradient id="a~wQFXU4gZI02yToSuUIxg" x1="23" x2="23" y1="6.522" y2="29.002" xlink:href="#a~wQFXU4gZI02yToSuUIxb"/></defs><polygon fill="url(#a~wQFXU4gZI02yToSuUIxc)" points="19 6 29 6 24 14 19 6"/><path fill="url(#a~wQFXU4gZI02yToSuUIxa)" d="M21,44H32a2,2,0,0,0,2-2V23l2.10557,4.21115a2,2,0,0,0,2.68328.89442l3.39921-1.6996a2,2,0,0,0,.88282-2.70614L36.814,11.57708a6.00012,6.00012,0,0,0-2.35489-2.4576L29,6,21,17Z"/><path fill="url(#a~wQFXU4gZI02yToSuUIxb)" d="M21.499,17.5a1,1,0,0,1-.81836-1.57324l7-10a1,1,0,1,1,1.63868,1.14648l-7,10A.99848.99848,0,0,1,21.499,17.5Z"/><path fill="url(#a~wQFXU4gZI02yToSuUIxd)" d="M25,44H16a2,2,0,0,1-2-2V23l-2.10557,4.21115a2,2,0,0,1-2.68328.89442L5.81194,26.406a2,2,0,0,1-.88282-2.70614L11.186,11.57708a6.00012,6.00012,0,0,1,2.35489-2.4576L19,6l8,11V42A2,2,0,0,1,25,44Z"/><rect width="20" height="3" x="14" y="26" fill="url(#a~wQFXU4gZI02yToSuUIxe)"/><rect width="3" height="14" x="18" y="25" fill="url(#a~wQFXU4gZI02yToSuUIxf)" rx="1"/><path fill="url(#a~wQFXU4gZI02yToSuUIxg)" d="M26.501,17.5a.99848.99848,0,0,1-.82032-.42676l-7-10a1,1,0,0,1,1.63868-1.14648l7,10A1,1,0,0,1,26.501,17.5Z"/></svg>