<svg xmlns="http://www.w3.org/2000/svg" viewBox="0 0 48 48"><linearGradient id="U6gVMuM3NPRnaJV5_Tskda" x1="24.1" x2="24.1" y1="44.1" y2="4.1" gradientUnits="userSpaceOnUse"><stop offset="0" stop-color="#1580d6"/><stop offset="1" stop-color="#33afec"/></linearGradient><path fill="url(#U6gVMuM3NPRnaJV5_Tskda)" d="M4.1,24.1c0,11,9,20,20,20l0,0c11,0,20-9,20-20l0,0c0-11-9-20-20-20l0,0 C13,4.1,4.1,13,4.1,24.1"/><path fill="#fff" d="M20,32c-2.4,0-4.7-0.9-6.4-2.6c-3.5-3.5-3.5-9.2,0-12.7l6-6c0.8-0.8,2-0.8,2.8,0s0.8,2,0,2.8l-6,6 c-1.9,1.9-1.9,5.1,0,7.1c0.9,0.9,2.2,1.5,3.5,1.5s2.6-0.5,3.5-1.5l3.1-3c0.8-0.8,2.1-0.7,2.8,0c0.8,0.8,0.7,2.1,0,2.8l-3,3 C24.7,31.1,22.4,32,20,32z M27,37.9c-0.5,0-1-0.2-1.4-0.6c-0.8-0.8-0.8-2,0-2.8l6-6c1.9-2,1.9-5.1,0-7.1c-1-0.9-2.2-1.4-3.6-1.4 c-1.3,0-2.6,0.5-3.5,1.5l-3.1,3c-0.8,0.8-2.1,0.7-2.8,0c-0.8-0.8-0.7-2.1,0-2.8l3.1-3c1.7-1.7,3.9-2.6,6.3-2.6s4.7,0.9,6.4,2.6 c3.5,3.5,3.5,9.2,0,12.7l-6,6C28,37.7,27.5,37.9,27,37.9z"/><path d="M21,10.1c0.5,0,1,0.2,1.4,0.6c0.8,0.8,0.8,2,0,2.8l-6,6c-1.9,1.9-1.9,5.1,0,7.1 c0.9,0.9,2.2,1.5,3.5,1.5c1.3,0,2.6-0.5,3.5-1.5l3.1-3c0.387-0.387,0.89-0.563,1.386-0.563c0.53,0,1.052,0.201,1.414,0.563 c0.8,0.8,0.7,2.1,0,2.8l-3,3C24.7,31.1,22.4,32,20,32s-4.7-0.9-6.4-2.6c-3.5-3.5-3.5-9.2,0-12.7l6-6C20,10.3,20.5,10.1,21,10.1 M28,16.1c2.4,0,4.7,0.9,6.4,2.6c3.5,3.5,3.5,9.2,0,12.7l-6,6c-0.4,0.3-0.9,0.5-1.4,0.5s-1-0.2-1.4-0.6c-0.8-0.8-0.8-2,0-2.8l6-6 c1.9-2,1.9-5.1,0-7.1c-1-0.9-2.2-1.4-3.6-1.4c-1.3,0-2.6,0.5-3.5,1.5l-3.1,3c-0.387,0.387-0.89,0.563-1.386,0.563 c-0.53,0-1.052-0.201-1.414-0.563c-0.8-0.8-0.7-2.1,0-2.8l3.1-3C23.4,17,25.6,16.1,28,16.1 M21,9.6 c-0.649,0-1.272,0.265-1.754,0.746l-6,6c-3.696,3.696-3.696,9.711,0,13.407C15.018,31.525,17.416,32.5,20,32.5 c2.586,0,5.015-1.005,6.664-2.757l2.989-2.989c0.435-0.435,0.693-1.056,0.709-1.704c0.017-0.689-0.235-1.329-0.709-1.803 c-0.451-0.451-1.095-0.71-1.767-0.71c-0.665,0-1.283,0.252-1.74,0.71l-3.094,2.994C22.265,27.114,21.125,27.6,19.9,27.6 c-1.123,0-2.299-0.506-3.146-1.354c-1.713-1.804-1.717-4.676,0-6.393l6-6c0.481-0.481,0.746-1.104,0.746-1.754 c0-0.649-0.265-1.272-0.746-1.754C22.272,9.865,21.649,9.6,21,9.6L21,9.6z M28,15.6c-2.556,0-4.857,0.95-6.654,2.746l-3.094,2.994 c-0.44,0.44-0.699,1.061-0.715,1.71c-0.017,0.689,0.235,1.329,0.709,1.803c0.451,0.451,1.095,0.71,1.767,0.71 c0.664,0,1.282-0.252,1.74-0.71l3.094-2.994C25.635,20.986,26.775,20.5,28,20.5c1.229,0,2.328,0.428,3.266,1.272 c1.68,1.77,1.68,4.586-0.028,6.384l-5.991,5.991C24.765,34.628,24.5,35.251,24.5,35.9s0.265,1.272,0.746,1.754 C25.728,38.135,26.351,38.4,27,38.4c0.58,0,1.184-0.213,1.7-0.6l0.028-0.021l0.025-0.025l6-6c3.696-3.696,3.696-9.711,0-13.407 C32.982,16.575,30.584,15.6,28,15.6L28,15.6z" opacity=".07"/><path d="M21,10.1c0.5,0,1,0.2,1.4,0.6c0.8,0.8,0.8,2,0,2.8l-6,6c-1.9,1.9-1.9,5.1,0,7.1 c0.9,0.9,2.2,1.5,3.5,1.5c1.3,0,2.6-0.5,3.5-1.5l3.1-3c0.387-0.387,0.89-0.563,1.386-0.563c0.53,0,1.052,0.201,1.414,0.563 c0.8,0.8,0.7,2.1,0,2.8l-3,3C24.7,31.1,22.4,32,20,32s-4.7-0.9-6.4-2.6c-3.5-3.5-3.5-9.2,0-12.7l6-6C20,10.3,20.5,10.1,21,10.1 M28,16.1c2.4,0,4.7,0.9,6.4,2.6c3.5,3.5,3.5,9.2,0,12.7l-6,6c-0.4,0.3-0.9,0.5-1.4,0.5s-1-0.2-1.4-0.6c-0.8-0.8-0.8-2,0-2.8l6-6 c1.9-2,1.9-5.1,0-7.1c-1-0.9-2.2-1.4-3.6-1.4c-1.3,0-2.6,0.5-3.5,1.5l-3.1,3c-0.387,0.387-0.89,0.563-1.386,0.563 c-0.53,0-1.052-0.201-1.414-0.563c-0.8-0.8-0.7-2.1,0-2.8l3.1-3C23.4,17,25.6,16.1,28,16.1 M21,9.1 c-0.783,0-1.531,0.317-2.107,0.893l-6,6c-3.891,3.891-3.891,10.223,0,14.114C14.758,31.973,17.282,33,20,33 c2.723,0,5.285-1.062,7.028-2.915l2.979-2.978c0.525-0.525,0.836-1.27,0.855-2.045c0.02-0.827-0.284-1.597-0.855-2.169 c-0.544-0.544-1.317-0.856-2.121-0.856c-0.798,0-1.542,0.304-2.094,0.856l-3.088,2.989l-0.025,0.024l-0.023,0.026 C21.988,26.674,20.983,27.1,19.9,27.1c-0.978,0-2.048-0.463-2.793-1.207c-1.519-1.6-1.527-4.159,0-5.686l6-6 C23.683,13.631,24,12.883,24,12.1c0-0.783-0.317-1.531-0.893-2.107C22.531,9.417,21.783,9.1,21,9.1L21,9.1z M28,15.1 c-2.692,0-5.115,1-7.007,2.893l-3.088,2.988c-0.536,0.536-0.848,1.281-0.867,2.057c-0.02,0.827,0.284,1.597,0.855,2.169 c0.544,0.544,1.317,0.856,2.121,0.856c0.798,0,1.542-0.304,2.094-0.856l3.088-2.988l0.025-0.024l0.023-0.026 C25.912,21.426,26.917,21,28,21c1.105,0,2.054,0.365,2.901,1.117c1.498,1.606,1.489,4.099-0.026,5.694l-5.982,5.982 C24.317,34.369,24,35.117,24,35.9s0.317,1.531,0.893,2.107C25.469,38.583,26.217,38.9,27,38.9c0.688,0,1.398-0.249,2-0.7 l0.057-0.043l0.05-0.05l6-6c3.891-3.891,3.891-10.223,0-14.114C33.242,16.127,30.718,15.1,28,15.1L28,15.1z" opacity=".05"/></svg>