<svg xmlns="http://www.w3.org/2000/svg" viewBox="0 0 48 48"><linearGradient id="~6rG7wEVW0P5o3x1P8iYba" x1="18.744" x2="30.082" y1="23.559" y2="54.711" gradientUnits="userSpaceOnUse"><stop offset="0" stop-color="#eba600"/><stop offset="1" stop-color="#c28200"/></linearGradient><rect width="40" height="10" x="4" y="33" fill="url(#~6rG7wEVW0P5o3x1P8iYba)"/><linearGradient id="~6rG7wEVW0P5o3x1P8iYbb" x1="19.848" x2="27.882" y1="20.093" y2="42.166" gradientUnits="userSpaceOnUse"><stop offset="0" stop-color="#ffcf54"/><stop offset=".261" stop-color="#fdcb4d"/><stop offset=".639" stop-color="#f7c13a"/><stop offset="1" stop-color="#f0b421"/></linearGradient><path fill="url(#~6rG7wEVW0P5o3x1P8iYbb)" d="M6,27h36c1.105,0,2,0.806,2,1.8v5.4c0,0.994-0.895,1.8-2,1.8H6c-1.105,0-2-0.806-2-1.8v-5.4	C4,27.806,4.895,27,6,27z"/><path fill="#343434" d="M39.5,33h-31C7.672,33,7,32.328,7,31.5v0C7,30.672,7.672,30,8.5,30h31c0.828,0,1.5,0.672,1.5,1.5v0	C41,32.328,40.328,33,39.5,33z"/><path fill="#50e6ff" d="M39,32H9V10c0-1.105,0.895-2,2-2h26c1.105,0,2,0.895,2,2V32z"/><path fill="#fff" d="M34,17h-4c-0.552,0-1-0.448-1-1v-4c0-0.552,0.448-1,1-1h4c0.552,0,1,0.448,1,1v4	C35,16.552,34.552,17,34,17z"/><path fill="#057093" d="M34,17c-0.256,0-0.512-0.098-0.707-0.293l-4-4c-0.391-0.391-0.391-1.023,0-1.414 s1.023-0.391,1.414,0l4,4c0.391,0.391,0.391,1.023,0,1.414C34.512,16.902,34.256,17,34,17z"/><path fill="#057093" d="M30,17c-0.256,0-0.512-0.098-0.707-0.293c-0.391-0.391-0.391-1.023,0-1.414l4-4 c0.391-0.391,1.023-0.391,1.414,0s0.391,1.023,0,1.414l-4,4C30.512,16.902,30.256,17,30,17z"/><path fill="#fff" d="M34,27h-4c-0.552,0-1-0.448-1-1v-4c0-0.552,0.448-1,1-1h4c0.552,0,1,0.448,1,1v4	C35,26.552,34.552,27,34,27z"/><rect width="30" height="2" x="9" y="30" fill="#199ae0"/><path fill="#057093" d="M13.425,15h12.15C25.81,15,26,14.81,26,14.575v-1.15C26,13.19,25.81,13,25.575,13h-12.15	C13.19,13,13,13.19,13,13.425v1.15C13,14.81,13.19,15,13.425,15z"/><path fill="#057093" d="M13.425,25h12.15C25.81,25,26,24.81,26,24.575v-1.15C26,23.19,25.81,23,25.575,23h-12.15	C13.19,23,13,23.19,13,23.425v1.15C13,24.81,13.19,25,13.425,25z"/></svg>