<svg xmlns="http://www.w3.org/2000/svg" viewBox="0 0 48 48"><linearGradient id="sVrrkXYlTzZyQngGv9nRFa" x1="24" x2="24" y1="35.104" y2="10.261" gradientTransform="matrix(1 0 0 -1 0 50)" gradientUnits="userSpaceOnUse"><stop offset="0" stop-color="#2aa4f4"/><stop offset="1" stop-color="#007ad9"/></linearGradient><path fill="url(#sVrrkXYlTzZyQngGv9nRFa)" d="M4,38V14h40v24c0,1.1-0.9,2-2,2H6C4.9,40,4,39.1,4,38z"/><linearGradient id="sVrrkXYlTzZyQngGv9nRFb" x1="4.614" x2="42.936" y1="-295.741" y2="-303.533" gradientTransform="matrix(1 0 0 -1 0 -288)" gradientUnits="userSpaceOnUse"><stop offset="0" stop-color="#0077d2"/><stop offset="1" stop-color="#0b59a2"/></linearGradient><path fill="url(#sVrrkXYlTzZyQngGv9nRFb)" d="M44,10v5H4v-5c0-1.1,0.9-2,2-2h36C43.1,8,44,8.9,44,10z"/><linearGradient id="sVrrkXYlTzZyQngGv9nRFc" x1="16" x2="42" y1="-299.5" y2="-299.5" gradientTransform="matrix(1 0 0 -1 0 -288)" gradientUnits="userSpaceOnUse"><stop offset="0" stop-color="#7dd8f3"/><stop offset="1" stop-color="#45b0d0"/></linearGradient><path fill="url(#sVrrkXYlTzZyQngGv9nRFc)" d="M16.5,13h25c0.276,0,0.5-0.224,0.5-0.5v-2c0-0.276-0.224-0.5-0.5-0.5h-25	c-0.276,0-0.5,0.224-0.5,0.5v2C16,12.776,16.224,13,16.5,13z"/><linearGradient id="sVrrkXYlTzZyQngGv9nRFd" x1="6.751" x2="8.032" y1="-298.416" y2="-300.269" gradientTransform="matrix(1 0 0 -1 0 -288)" gradientUnits="userSpaceOnUse"><stop offset="0" stop-color="#75daff"/><stop offset="1" stop-color="#49bef1"/></linearGradient><circle cx="7.5" cy="11.5" r="1.5" fill="url(#sVrrkXYlTzZyQngGv9nRFd)"/><linearGradient id="sVrrkXYlTzZyQngGv9nRFe" x1="11.751" x2="13.032" y1="-298.416" y2="-300.269" gradientTransform="matrix(1 0 0 -1 0 -288)" gradientUnits="userSpaceOnUse"><stop offset="0" stop-color="#75daff"/><stop offset="1" stop-color="#49bef1"/></linearGradient><circle cx="12.5" cy="11.5" r="1.5" fill="url(#sVrrkXYlTzZyQngGv9nRFe)"/><circle cx="27.5" cy="27.5" r="9.5" fill="#0d61a9"/><path fill="#e6e6e6" d="M25.5,21.94l1.745-2.799c0.117-0.188,0.392-0.188,0.509,0L29.5,21.94H25.5z"/><path fill="#e6e6e6" d="M22.988,23.685l0.112-3.297c0.008-0.222,0.245-0.359,0.441-0.255l2.911,1.551L22.988,23.685z"/><path fill="#e6e6e6" d="M21.685,26.452l-1.551-2.911c-0.104-0.196,0.033-0.433,0.255-0.441l3.297-0.112L21.685,26.452z"/><path fill="#e6e6e6" d="M21.94,29.5l-2.799-1.745c-0.188-0.117-0.188-0.392,0-0.509L21.94,25.5V29.5z"/><path fill="#e6e6e6" d="M23.685,32.012L20.388,31.9c-0.222-0.008-0.359-0.245-0.255-0.441l1.551-2.911L23.685,32.012z"/><path fill="#e6e6e6" d="M26.452,33.315l-2.911,1.551c-0.196,0.104-0.433-0.033-0.441-0.255l-0.112-3.297L26.452,33.315z"/><path fill="#e6e6e6" d="M29.5,33.06l-1.745,2.799c-0.117,0.188-0.392,0.188-0.509,0L25.5,33.06H29.5z"/><path fill="#e6e6e6" d="M32.012,31.315L31.9,34.612c-0.008,0.222-0.245,0.359-0.441,0.255l-2.911-1.551L32.012,31.315z"/><path fill="#e6e6e6" d="M33.315,28.548l1.551,2.911c0.104,0.196-0.033,0.433-0.255,0.441l-3.297,0.112L33.315,28.548z"/><path fill="#e6e6e6" d="M33.06,25.5l2.799,1.745c0.188,0.117,0.188,0.392,0,0.509L33.06,29.5V25.5z"/><path fill="#e6e6e6" d="M31.315,22.988l3.297,0.112c0.222,0.008,0.359,0.245,0.255,0.441l-1.551,2.911L31.315,22.988z"/><path fill="#e6e6e6" d="M28.548,21.685l2.911-1.551c0.196-0.104,0.433,0.033,0.441,0.255l0.112,3.297L28.548,21.685z"/><linearGradient id="sVrrkXYlTzZyQngGv9nRFf" x1="23.967" x2="31.14" y1="1878.855" y2="1892.347" gradientTransform="translate(0 -1858)" gradientUnits="userSpaceOnUse"><stop offset="0" stop-color="#2aa4f4"/><stop offset="1" stop-color="#007ad9"/></linearGradient><circle cx="27.5" cy="27.5" r="7.5" fill="url(#sVrrkXYlTzZyQngGv9nRFf)"/><linearGradient id="sVrrkXYlTzZyQngGv9nRFg" x1="12" x2="12" y1="21.032" y2="14.204" gradientTransform="matrix(1 0 0 -1 0 50)" gradientUnits="userSpaceOnUse"><stop offset="0"/><stop offset="1" stop-opacity="0"/></linearGradient><path fill="url(#sVrrkXYlTzZyQngGv9nRFg)" d="M12,36L12,36c-0.552,0-1-0.448-1-1v-9c0-0.552,0.448-1,1-1l0,0c0.552,0,1,0.448,1,1v9	C13,35.552,12.552,36,12,36z"/><path fill="#e6e6e6" d="M12,34L12,34c-0.552,0-1-0.448-1-1V22c0-0.552,0.448-1,1-1l0,0c0.552,0,1,0.448,1,1v11	C13,33.552,12.552,34,12,34z"/></svg>