<svg xmlns="http://www.w3.org/2000/svg" viewBox="0 0 48 48"><linearGradient id="vXMBZs8ZzC3A24CJfro60a" x1="16.758" x2="30.883" y1="3.118" y2="17.242" gradientUnits="userSpaceOnUse"><stop offset="0" stop-color="#faa7ad"/><stop offset=".443" stop-color="#f79ea5"/><stop offset="1" stop-color="#f29098"/></linearGradient><path fill="url(#vXMBZs8ZzC3A24CJfro60a)" d="M24,4l-1,1v19h2.414L38.14,11.274V9.86C34.52,6.24,29.52,4,24,4z"/><linearGradient id="vXMBZs8ZzC3A24CJfro60b" x1="-294.241" x2="-260.541" y1="71.453" y2="105.153" gradientTransform="rotate(45.001 -43.995 432.003)" gradientUnits="userSpaceOnUse"><stop offset="0" stop-color="#ffe880"/><stop offset="1" stop-color="#f1b080"/></linearGradient><path fill="url(#vXMBZs8ZzC3A24CJfro60b)" d="M38.142,9.858L24,24l1,1l17.997,0l1-1C43.997,18.881,42.045,13.761,38.142,9.858z"/><linearGradient id="vXMBZs8ZzC3A24CJfro60c" x1="-454.93" x2="-444.223" y1="346.93" y2="357.637" gradientTransform="rotate(90 -44 432)" gradientUnits="userSpaceOnUse"><stop offset="0" stop-color="#ffeba3"/><stop offset=".482" stop-color="#ffeba2"/><stop offset="1" stop-color="#fade80"/></linearGradient><path fill="url(#vXMBZs8ZzC3A24CJfro60c)" d="M44,24H24v1.414L36.726,38.14h1.414C41.76,34.52,44,29.52,44,24z"/><linearGradient id="vXMBZs8ZzC3A24CJfro60d" x1="-383.513" x2="-372.806" y1="655.346" y2="666.053" gradientTransform="rotate(134.999 -44 432.002)" gradientUnits="userSpaceOnUse"><stop offset="0" stop-color="#99e2c0"/><stop offset="1" stop-color="#90d1b3"/></linearGradient><path fill="url(#vXMBZs8ZzC3A24CJfro60d)" d="M38.142,38.142L24,24l-1,1l0,17.997l1,1C29.119,43.997,34.239,42.045,38.142,38.142z"/><linearGradient id="vXMBZs8ZzC3A24CJfro60e" x1="-114.93" x2="-104.223" y1="822.93" y2="833.637" gradientTransform="rotate(180 -44 432)" gradientUnits="userSpaceOnUse"><stop offset="0" stop-color="#94d7f5"/><stop offset="1" stop-color="#85c4ed"/></linearGradient><path fill="url(#vXMBZs8ZzC3A24CJfro60e)" d="M24,44V24h-1.414L9.86,36.726v1.414C13.48,41.76,18.48,44,24,44z"/><linearGradient id="vXMBZs8ZzC3A24CJfro60f" x1="191.954" x2="202.661" y1="749.981" y2="760.688" gradientTransform="rotate(-134.999 -44.001 432.002)" gradientUnits="userSpaceOnUse"><stop offset="0" stop-color="#a1bfed"/><stop offset=".002" stop-color="#a1bfed"/><stop offset=".397" stop-color="#93b4e5"/><stop offset=".763" stop-color="#89acdf"/><stop offset="1" stop-color="#86a9dd"/></linearGradient><path fill="url(#vXMBZs8ZzC3A24CJfro60f)" d="M9.858,38.142L24,24l-1-1L5.003,23l-1,1C4.003,29.119,5.955,34.239,9.858,38.142z"/><linearGradient id="vXMBZs8ZzC3A24CJfro60g" x1="361.07" x2="371.777" y1="482.93" y2="493.637" gradientTransform="rotate(-90 -44 432)" gradientUnits="userSpaceOnUse"><stop offset="0" stop-color="#d19aea"/><stop offset=".441" stop-color="#d099e8"/><stop offset=".702" stop-color="#cc96e4"/><stop offset=".915" stop-color="#c590dd"/><stop offset="1" stop-color="#c18dd9"/></linearGradient><path fill="url(#vXMBZs8ZzC3A24CJfro60g)" d="M4,24h20v-1.414L11.274,9.86H9.86C6.24,13.48,4,18.48,4,24z"/><linearGradient id="vXMBZs8ZzC3A24CJfro60h" x1="289.653" x2="316.998" y1="174.514" y2="201.858" gradientTransform="rotate(-45.001 -44.005 432.002)" gradientUnits="userSpaceOnUse"><stop offset="0" stop-color="#f49eb3"/><stop offset=".423" stop-color="#e290a5"/><stop offset=".773" stop-color="#d8889c"/><stop offset="1" stop-color="#d48598"/></linearGradient><path fill="url(#vXMBZs8ZzC3A24CJfro60h)" d="M9.858,9.858L24,24V4.003C18.881,4.003,13.761,5.955,9.858,9.858z"/></svg>