<svg xmlns="http://www.w3.org/2000/svg" viewBox="0 0 48 48"><linearGradient id="LISSEH8kjEg~CNa_ax91Ma" x1="24" x2="24" y1="42.862" y2="33.026" gradientUnits="userSpaceOnUse"><stop offset="0" stop-color="#32bdef"/><stop offset="1" stop-color="#1ea2e4"/></linearGradient><path fill="url(#LISSEH8kjEg~CNa_ax91Ma)" d="M42.856,41.485l-4.8-8C37.875,33.184,37.55,33,37.198,33H10.802	c-0.351,0-0.677,0.184-0.858,0.485l-4.8,8C4.744,42.152,5.224,43,6.002,43h35.997C42.776,43,43.256,42.152,42.856,41.485z"/><path d="M25.886,37.735c0.977-0.978,1.85-1.852,2.634-2.636S29.998,33.62,30.617,33H24h-6.617	c0.619,0.62,1.314,1.315,2.097,2.099s1.657,1.658,2.634,2.636c0.504,0.504,1.174,0.781,1.886,0.781S25.382,38.239,25.886,37.735z" opacity=".05"/><path d="M18.09,33c0.574,0.574,1.179,1.18,1.809,1.811c0.449,0.45,0.892,0.893,1.316,1.317	c0.575,0.575,1.028,1.029,1.253,1.254c0.455,0.455,1.071,0.67,1.688,0.62c0.375-0.03,0.736-0.158,1.046-0.378	c0.12-0.062,0.311-0.223,0.547-0.459c0.275-0.275,0.576-0.576,0.894-0.895c0.477-0.478,0.967-0.968,1.458-1.46	c0.63-0.631,1.235-1.236,1.809-1.81H24H18.09z" opacity=".07"/><path d="M33,21H9.273c0.779,1.904,1.921,3.618,3.324,5.079c0.016,0.016,10.154,10.163,10.154,10.163 c0.69,0.69,1.81,0.69,2.5,0c0,0,5.468-5.473,8.374-8.381L33,21z" opacity=".018"/><path d="M33,21H9.372c0.774,1.88,1.903,3.572,3.289,5.016c0.016,0.016,10.096,10.105,10.096,10.105 c0.686,0.686,1.799,0.686,2.486,0c0,0,5.497-5.502,8.37-8.378L33,21z" opacity=".036"/><path d="M33,21H9.471c0.769,1.855,1.885,3.526,3.255,4.953C12.742,25.969,22.764,36,22.764,36 c0.682,0.682,1.789,0.682,2.471,0c0,0,5.526-5.531,8.367-8.374L33,21z" opacity=".054"/><path d="M33,21H9.571c0.764,1.83,1.868,3.481,3.221,4.89c0.015,0.016,9.979,9.989,9.979,9.989 c0.678,0.678,1.779,0.678,2.457,0c0,0,5.555-5.56,8.363-8.371L33,21z" opacity=".073"/><path d="M33,21H9.67c0.759,1.806,1.85,3.435,3.187,4.826c0.015,0.016,9.921,9.931,9.921,9.931 c0.675,0.675,1.768,0.675,2.443,0c0,0,5.584-5.589,8.36-8.367L33,21z" opacity=".091"/><path d="M33,21H9.769c0.754,1.781,1.832,3.389,3.153,4.763c0.015,0.016,9.863,9.873,9.863,9.873 c0.671,0.671,1.758,0.671,2.428,0c0,0,5.613-5.618,8.356-8.363L33,21z" opacity=".109"/><path d="M33,21H9.868c0.748,1.757,1.815,3.343,3.119,4.7c0.015,0.016,9.805,9.815,9.805,9.815 c0.667,0.667,1.747,0.667,2.414,0c0,0,5.642-5.647,8.352-8.36L33,21z" opacity=".127"/><path d="M33,21H9.968c0.743,1.732,1.797,3.297,3.085,4.636c0.015,0.016,9.747,9.757,9.747,9.757 c0.663,0.663,1.737,0.663,2.4,0c0,0,5.671-5.676,8.349-8.356L33,21z" opacity=".145"/><path d="M33,21H10.067c0.738,1.707,1.779,3.251,3.051,4.573c0.015,0.016,9.689,9.698,9.689,9.698 c0.659,0.659,1.727,0.659,2.386,0c0,0,5.7-5.705,8.345-8.353L33,21z" opacity=".164"/><path d="M33,21H10.166c0.733,1.683,1.762,3.205,3.017,4.51c0.015,0.015,9.631,9.64,9.631,9.64 c0.655,0.655,1.716,0.655,2.371,0c0,0,5.729-5.734,8.342-8.349L33,21z" opacity=".182"/><path d="M33,21H10.265c0.728,1.658,1.738,3.165,2.983,4.446c0.015,0.015,9.573,9.582,9.573,9.582 c0.651,0.651,1.706,0.651,2.357,0c0,0,5.758-5.763,8.338-8.346L33,21z" opacity=".2"/><linearGradient id="LISSEH8kjEg~CNa_ax91Mb" x1="13.395" x2="34.605" y1="6.392" y2="27.602" gradientUnits="userSpaceOnUse"><stop offset="0" stop-color="#d43a02"/><stop offset="1" stop-color="#b9360c"/></linearGradient><path fill="url(#LISSEH8kjEg~CNa_ax91Mb)" d="M34.752,27.446C37.377,24.745,39,21.064,39,17c0-8.284-6.716-15-15-15S9,8.716,9,17	c0,4.064,1.623,7.745,4.248,10.446c0.015,0.015,9.573,9.582,9.573,9.582c0.651,0.651,1.706,0.651,2.357,0	C25.178,37.029,34.737,27.462,34.752,27.446z"/><radialGradient id="LISSEH8kjEg~CNa_ax91Mc" cx="24" cy="17" r="7" gradientUnits="userSpaceOnUse"><stop offset=".177"/><stop offset="1" stop-opacity="0"/></radialGradient><circle cx="24" cy="17" r="7" fill="url(#LISSEH8kjEg~CNa_ax91Mc)"/><circle cx="24" cy="17" r="6" fill="#f9f9f9"/></svg>