<svg xmlns="http://www.w3.org/2000/svg" viewBox="0 0 48 48"><linearGradient id="poJZVVZccPEkB34rORM4na" x1="10.502" x2="43.609" y1="-7.648" y2="24.267" gradientUnits="userSpaceOnUse"><stop offset="0" stop-color="#0077d2"/><stop offset="1" stop-color="#0b59a2"/></linearGradient><circle cx="24" cy="5.364" r="1.364" fill="url(#poJZVVZccPEkB34rORM4na)"/><linearGradient id="poJZVVZccPEkB34rORM4nb" x1="5.203" x2="38.309" y1="-2.151" y2="29.764" gradientUnits="userSpaceOnUse"><stop offset="0" stop-color="#0077d2"/><stop offset="1" stop-color="#0b59a2"/></linearGradient><circle cx="13.545" cy="5.891" r=".909" fill="url(#poJZVVZccPEkB34rORM4nb)"/><linearGradient id="poJZVVZccPEkB34rORM4nc" x1="15.275" x2="48.381" y1="-12.599" y2="19.316" gradientUnits="userSpaceOnUse"><stop offset="0" stop-color="#0077d2"/><stop offset="1" stop-color="#0b59a2"/></linearGradient><circle cx="34.455" cy="5.891" r=".909" fill="url(#poJZVVZccPEkB34rORM4nc)"/><linearGradient id="poJZVVZccPEkB34rORM4nd" x1="4.069" x2="37.175" y1="-.974" y2="30.941" gradientUnits="userSpaceOnUse"><stop offset="0" stop-color="#0077d2"/><stop offset="1" stop-color="#0b59a2"/></linearGradient><path fill="url(#poJZVVZccPEkB34rORM4nd)" d="M16.5,9.646c-0.753,0-1.364,0.611-1.364,1.364v0c0,0.753,0.611,1.364,1.364,1.364 c0.753,0,1.364-0.611,1.364-1.364S17.253,9.646,16.5,9.646L16.5,9.646z"/><linearGradient id="poJZVVZccPEkB34rORM4ne" x1="11.294" x2="44.4" y1="-8.469" y2="23.446" gradientUnits="userSpaceOnUse"><stop offset="0" stop-color="#0077d2"/><stop offset="1" stop-color="#0b59a2"/></linearGradient><path fill="url(#poJZVVZccPEkB34rORM4ne)" d="M31.5,9.646c-0.753,0-1.364,0.611-1.364,1.364v0c0,0.753,0.611,1.364,1.364,1.364 c0.753,0,1.364-0.611,1.364-1.364S32.253,9.646,31.5,9.646L31.5,9.646z"/><linearGradient id="poJZVVZccPEkB34rORM4nf" x1="7.096" x2="40.202" y1="-4.114" y2="27.801" gradientUnits="userSpaceOnUse"><stop offset="0" stop-color="#0077d2"/><stop offset="1" stop-color="#0b59a2"/></linearGradient><circle cx="24" cy="12.182" r="1.818" fill="url(#poJZVVZccPEkB34rORM4nf)"/><linearGradient id="poJZVVZccPEkB34rORM4ng" x1="-1.928" x2="31.178" y1="5.246" y2="37.161" gradientUnits="userSpaceOnUse"><stop offset="0" stop-color="#0077d2"/><stop offset="1" stop-color="#0b59a2"/></linearGradient><circle cx="7.86" cy="14.682" r="1.364" fill="url(#poJZVVZccPEkB34rORM4ng)"/><linearGradient id="poJZVVZccPEkB34rORM4nh" x1="13.621" x2="46.727" y1="-10.883" y2="21.032" gradientUnits="userSpaceOnUse"><stop offset="0" stop-color="#0077d2"/><stop offset="1" stop-color="#0b59a2"/></linearGradient><circle cx="40.14" cy="14.682" r="1.364" fill="url(#poJZVVZccPEkB34rORM4nh)"/><linearGradient id="poJZVVZccPEkB34rORM4ni" x1="2.619" x2="35.725" y1=".53" y2="32.445" gradientUnits="userSpaceOnUse"><stop offset="0" stop-color="#0077d2"/><stop offset="1" stop-color="#0b59a2"/></linearGradient><circle cx="20.364" cy="17.636" r="2.727" fill="url(#poJZVVZccPEkB34rORM4ni)"/><linearGradient id="poJZVVZccPEkB34rORM4nj" x1="6.122" x2="39.228" y1="-3.104" y2="28.811" gradientUnits="userSpaceOnUse"><stop offset="0" stop-color="#0077d2"/><stop offset="1" stop-color="#0b59a2"/></linearGradient><circle cx="27.636" cy="17.636" r="2.727" fill="url(#poJZVVZccPEkB34rORM4nj)"/><linearGradient id="poJZVVZccPEkB34rORM4nk" x1="-.787" x2="32.32" y1="4.062" y2="35.977" gradientUnits="userSpaceOnUse"><stop offset="0" stop-color="#0077d2"/><stop offset="1" stop-color="#0b59a2"/></linearGradient><circle cx="13.766" cy="18.091" r="1.818" fill="url(#poJZVVZccPEkB34rORM4nk)"/><linearGradient id="poJZVVZccPEkB34rORM4nl" x1="9.073" x2="42.179" y1="-6.165" y2="25.75" gradientUnits="userSpaceOnUse"><stop offset="0" stop-color="#0077d2"/><stop offset="1" stop-color="#0b59a2"/></linearGradient><circle cx="34.234" cy="18.091" r="1.818" fill="url(#poJZVVZccPEkB34rORM4nl)"/><linearGradient id="poJZVVZccPEkB34rORM4nm" x1="-2.313" x2="30.794" y1="5.645" y2="37.56" gradientUnits="userSpaceOnUse"><stop offset="0" stop-color="#0077d2"/><stop offset="1" stop-color="#0b59a2"/></linearGradient><circle cx="16.727" cy="24" r="2.727" fill="url(#poJZVVZccPEkB34rORM4nm)"/><linearGradient id="poJZVVZccPEkB34rORM4nn" x1="4.694" x2="37.8" y1="-1.623" y2="30.292" gradientUnits="userSpaceOnUse"><stop offset="0" stop-color="#0077d2"/><stop offset="1" stop-color="#0b59a2"/></linearGradient><circle cx="31.273" cy="24" r="2.727" fill="url(#poJZVVZccPEkB34rORM4nn)"/><linearGradient id="poJZVVZccPEkB34rORM4no" x1="-6.035" x2="27.072" y1="9.506" y2="41.421" gradientUnits="userSpaceOnUse"><stop offset="0" stop-color="#0077d2"/><stop offset="1" stop-color="#0b59a2"/></linearGradient><circle cx="9" cy="24" r="1.364" fill="url(#poJZVVZccPEkB34rORM4no)"/><linearGradient id="poJZVVZccPEkB34rORM4np" x1="8.416" x2="41.522" y1="-5.484" y2="26.431" gradientUnits="userSpaceOnUse"><stop offset="0" stop-color="#0077d2"/><stop offset="1" stop-color="#0b59a2"/></linearGradient><circle cx="39" cy="24" r="1.364" fill="url(#poJZVVZccPEkB34rORM4np)"/><linearGradient id="poJZVVZccPEkB34rORM4nq" x1="-8.881" x2="24.225" y1="12.459" y2="44.374" gradientUnits="userSpaceOnUse"><stop offset="0" stop-color="#0077d2"/><stop offset="1" stop-color="#0b59a2"/></linearGradient><circle cx="3.091" cy="24" r=".909" fill="url(#poJZVVZccPEkB34rORM4nq)"/><linearGradient id="poJZVVZccPEkB34rORM4nr" x1="11.262" x2="44.368" y1="-8.436" y2="23.479" gradientUnits="userSpaceOnUse"><stop offset="0" stop-color="#0077d2"/><stop offset="1" stop-color="#0b59a2"/></linearGradient><circle cx="44.909" cy="24" r=".909" fill="url(#poJZVVZccPEkB34rORM4nr)"/><linearGradient id="poJZVVZccPEkB34rORM4ns" x1="-3.741" x2="29.366" y1="7.127" y2="39.042" gradientUnits="userSpaceOnUse"><stop offset="0" stop-color="#0077d2"/><stop offset="1" stop-color="#0b59a2"/></linearGradient><circle cx="20.364" cy="30.364" r="2.727" fill="url(#poJZVVZccPEkB34rORM4ns)"/><linearGradient id="poJZVVZccPEkB34rORM4nt" x1="-.238" x2="32.869" y1="3.493" y2="35.408" gradientUnits="userSpaceOnUse"><stop offset="0" stop-color="#0077d2"/><stop offset="1" stop-color="#0b59a2"/></linearGradient><circle cx="27.636" cy="30.364" r="2.727" fill="url(#poJZVVZccPEkB34rORM4nt)"/><linearGradient id="poJZVVZccPEkB34rORM4nu" x1="-6.692" x2="26.415" y1="10.188" y2="42.103" gradientUnits="userSpaceOnUse"><stop offset="0" stop-color="#0077d2"/><stop offset="1" stop-color="#0b59a2"/></linearGradient><circle cx="13.766" cy="29.909" r="1.818" fill="url(#poJZVVZccPEkB34rORM4nu)"/><linearGradient id="poJZVVZccPEkB34rORM4nv" x1="3.168" x2="36.274" y1="-.04" y2="31.875" gradientUnits="userSpaceOnUse"><stop offset="0" stop-color="#0077d2"/><stop offset="1" stop-color="#0b59a2"/></linearGradient><circle cx="34.234" cy="29.909" r="1.818" fill="url(#poJZVVZccPEkB34rORM4nv)"/><linearGradient id="poJZVVZccPEkB34rORM4nw" x1="-11.24" x2="21.867" y1="14.906" y2="46.821" gradientUnits="userSpaceOnUse"><stop offset="0" stop-color="#0077d2"/><stop offset="1" stop-color="#0b59a2"/></linearGradient><circle cx="7.86" cy="33.318" r="1.364" fill="url(#poJZVVZccPEkB34rORM4nw)"/><linearGradient id="poJZVVZccPEkB34rORM4nx" x1="4.309" x2="37.415" y1="-1.223" y2="30.692" gradientUnits="userSpaceOnUse"><stop offset="0" stop-color="#0077d2"/><stop offset="1" stop-color="#0b59a2"/></linearGradient><circle cx="40.14" cy="33.318" r="1.364" fill="url(#poJZVVZccPEkB34rORM4nx)"/><linearGradient id="poJZVVZccPEkB34rORM4ny" x1="-4.715" x2="28.392" y1="8.137" y2="40.052" gradientUnits="userSpaceOnUse"><stop offset="0" stop-color="#0077d2"/><stop offset="1" stop-color="#0b59a2"/></linearGradient><circle cx="24" cy="35.818" r="1.818" fill="url(#poJZVVZccPEkB34rORM4ny)"/><linearGradient id="poJZVVZccPEkB34rORM4nz" x1="-8.913" x2="24.194" y1="12.492" y2="44.407" gradientUnits="userSpaceOnUse"><stop offset="0" stop-color="#0077d2"/><stop offset="1" stop-color="#0b59a2"/></linearGradient><circle cx="16.5" cy="36.99" r="1.364" fill="url(#poJZVVZccPEkB34rORM4nz)"/><linearGradient id="poJZVVZccPEkB34rORM4nA" x1="-1.688" x2="31.419" y1="4.997" y2="36.912" gradientUnits="userSpaceOnUse"><stop offset="0" stop-color="#0077d2"/><stop offset="1" stop-color="#0b59a2"/></linearGradient><circle cx="31.5" cy="36.99" r="1.364" fill="url(#poJZVVZccPEkB34rORM4nA)"/><linearGradient id="poJZVVZccPEkB34rORM4nB" x1="-12.894" x2="20.213" y1="16.621" y2="48.536" gradientUnits="userSpaceOnUse"><stop offset="0" stop-color="#0077d2"/><stop offset="1" stop-color="#0b59a2"/></linearGradient><circle cx="13.545" cy="42.109" r=".909" fill="url(#poJZVVZccPEkB34rORM4nB)"/><linearGradient id="poJZVVZccPEkB34rORM4nC" x1="-2.822" x2="30.284" y1="6.174" y2="38.089" gradientUnits="userSpaceOnUse"><stop offset="0" stop-color="#0077d2"/><stop offset="1" stop-color="#0b59a2"/></linearGradient><circle cx="34.455" cy="42.109" r=".909" fill="url(#poJZVVZccPEkB34rORM4nC)"/><linearGradient id="poJZVVZccPEkB34rORM4nD" x1="-8.121" x2="24.985" y1="11.671" y2="43.586" gradientUnits="userSpaceOnUse"><stop offset="0" stop-color="#0077d2"/><stop offset="1" stop-color="#0b59a2"/></linearGradient><circle cx="24" cy="42.636" r="1.364" fill="url(#poJZVVZccPEkB34rORM4nD)"/></svg>