<svg xmlns="http://www.w3.org/2000/svg" viewBox="0 0 48 48"><path fill="#b31523" d="M23.948,0.48c0.168,0.078,0.292,0.117,0.394,0.188c0.105,0.073,0.19,0.176,0.282,0.268 c7.505,7.504,15.009,15.009,22.514,22.513c0.48,0.48,0.479,0.658-0.009,1.146c-7.52,7.52-15.04,15.04-22.559,22.559 c-0.489,0.489-0.65,0.488-1.144-0.006c-7.52-7.52-15.039-15.039-22.559-22.559c-0.483-0.483-0.483-0.662,0.002-1.146 c7.52-7.52,15.039-15.04,22.562-22.557C23.583,0.733,23.773,0.616,23.948,0.48z M27.318,18.742c0.083-0.19,0.13-0.32,0.192-0.441 c1.168-2.259,2.836-4.073,4.918-5.517c0.502-0.348,0.551-0.714,0.126-1.147c-0.402-0.409-0.81-0.814-1.217-1.218 c-0.44-0.437-0.72-0.45-1.159-0.013c-1.301,1.295-2.382,2.743-3.075,4.458c-0.029,0.072-0.073,0.138-0.11,0.207 c-0.057-0.257-0.058-0.501-0.027-0.741c0.251-1.96,0.956-3.763,1.909-5.477c0.253-0.456,0.243-0.651-0.114-1.008 c-1.315-1.319-2.633-2.636-3.952-3.952c-0.055-0.054-0.124-0.094-0.203-0.153c-0.013,0.072-0.023,0.103-0.023,0.134 c-0.001,6.13-0.002,12.26,0,18.39c0,0.362,0.12,0.422,0.437,0.242c1.185-0.672,2.36-1.364,3.559-2.013 c1.77-0.958,3.565-1.865,5.508-2.432c0.707-0.206,1.425-0.379,2.173-0.229c0.5,0.1,0.857,0.379,0.969,0.885 c0.06,0.269,0.069,0.56,0.046,0.836c-0.092,1.11-0.603,2.063-1.164,2.994c-0.385,0.639-0.803,1.261-1.155,1.917 c-0.384,0.717-0.187,1.028,0.627,1.033c0.633,0.004,1.093,0.281,1.358,0.831c0.497,1.031,0.508,2.11,0.204,3.195 c-0.091,0.325-0.258,0.403-0.572,0.28c-0.3-0.118-0.592-0.268-0.865-0.44c-0.667-0.422-1.32-0.868-1.983-1.298 c-0.117-0.076-0.255-0.12-0.383-0.178c0.029,0.214,0.093,0.373,0.184,0.516c0.227,0.355,0.475,0.698,0.7,1.055 c0.431,0.686,0.871,1.368,1.266,2.075c0.13,0.232,0.175,0.534,0.185,0.806c0.01,0.283-0.241,0.4-0.475,0.235 c-0.183-0.129-0.354-0.291-0.485-0.472c-0.524-0.729-1.021-1.478-1.546-2.206c-0.424-0.587-0.862-1.165-1.321-1.725 c-0.152-0.185-0.374-0.333-0.592-0.439c-0.257-0.125-0.483,0.069-0.44,0.354c0.019,0.125,0.067,0.253,0.131,0.362 c0.267,0.458,0.544,0.91,0.819,1.362c0.772,1.269,1.351,2.613,1.549,4.096c0.068,0.509,0.086,1.024,0.13,1.573 c0.09-0.08,0.163-0.139,0.228-0.204c3.615-3.614,7.23-7.229,10.844-10.844c0.334-0.334,0.333-0.5-0.007-0.84 c-3.086-3.087-6.174-6.171-9.255-9.262c-0.285-0.286-0.569-0.362-0.961-0.241c-1.672,0.518-3.123,1.432-4.477,2.505 C28.982,17.26,28.195,17.986,27.318,18.742z M14.533,35.471c0.075-0.687,0.112-1.337,0.221-1.974 c0.267-1.564,0.986-2.941,1.833-4.26c0.198-0.309,0.391-0.626,0.533-0.962c0.058-0.137,0.037-0.407-0.056-0.483 c-0.096-0.079-0.367-0.055-0.487,0.03c-0.269,0.192-0.533,0.419-0.726,0.685c-0.726,0.997-1.415,2.02-2.135,3.021 c-0.251,0.35-0.538,0.677-0.838,0.986c-0.083,0.086-0.292,0.127-0.403,0.084c-0.088-0.034-0.143-0.223-0.161-0.351 c-0.017-0.122,0.006-0.265,0.056-0.379c0.167-0.374,0.325-0.758,0.542-1.102c0.49-0.778,1.017-1.532,1.522-2.301 c0.107-0.163,0.183-0.348,0.273-0.522c-0.022-0.022-0.044-0.044-0.066-0.065c-0.121,0.06-0.247,0.111-0.36,0.183 c-0.356,0.227-0.701,0.47-1.059,0.692c-0.56,0.347-1.114,0.707-1.697,1.012c-0.392,0.204-0.592,0.098-0.7-0.323 c-0.254-0.999-0.245-1.997,0.157-2.959c0.264-0.633,0.735-1.004,1.457-0.982c0.086,0.003,0.174-0.003,0.259-0.017 c0.495-0.084,0.63-0.306,0.456-0.774c-0.067-0.181-0.153-0.359-0.253-0.524c-0.381-0.629-0.781-1.247-1.156-1.88 c-0.51-0.861-0.924-1.757-1.034-2.772c-0.123-1.139,0.454-1.788,1.598-1.76c0.119,0.003,0.237,0.019,0.355,0.032 c1.142,0.129,2.203,0.533,3.248,0.977c2.444,1.04,4.743,2.355,7.028,3.699c0.37,0.218,0.476,0.159,0.476-0.271 c0.001-6.064,0.001-12.128,0-18.192c0-0.087-0.015-0.174-0.026-0.297c-0.078,0.061-0.115,0.084-0.145,0.113 c-1.348,1.347-2.698,2.693-4.042,4.043c-0.32,0.322-0.326,0.533-0.087,0.959c0.892,1.585,1.547,3.26,1.858,5.057 c0.066,0.381,0.076,0.772,0.119,1.239c-0.101-0.089-0.122-0.1-0.13-0.117c-0.028-0.058-0.052-0.119-0.077-0.179 c-0.7-1.711-1.78-3.16-3.085-4.451c-0.418-0.414-0.709-0.396-1.136,0.027c-0.384,0.381-0.767,0.765-1.149,1.148 c-0.522,0.525-0.477,0.848,0.129,1.273c2.046,1.434,3.688,3.23,4.84,5.458c0.056,0.109,0.095,0.227,0.142,0.341 c-0.13-0.021-0.2-0.082-0.271-0.141c-0.967-0.816-1.906-1.668-2.909-2.437c-1.111-0.852-2.338-1.515-3.681-1.95 c-0.436-0.141-0.749-0.057-1.074,0.27c-3.046,3.064-6.105,6.115-9.16,9.171c-0.404,0.404-0.405,0.536-0.009,0.932 c3.583,3.584,7.167,7.167,10.751,10.75C14.357,35.311,14.443,35.387,14.533,35.471z M24.581,31.091c0,0.83-0.001,1.585,0,2.34 c0.001,0.507,0.177,0.691,0.691,0.732c1.067,0.085,1.927,0.777,2.133,1.78c0.084,0.408,0.073,0.838,0.076,1.259 c0.008,1.531-0.808,2.43-2.322,2.576c-0.379,0.036-0.572,0.244-0.576,0.644c-0.006,0.606-0.002,1.212,0,1.818 c0,0.069,0.019,0.137,0.035,0.252c0.169-0.11,0.306-0.193,0.436-0.285c0.166-0.118,0.339-0.179,0.487,0.004 c0.161,0.2,0.047,0.359-0.116,0.498c-0.148,0.126-0.276,0.286-0.441,0.382c-0.493,0.288-0.425,0.728-0.305,1.235 c0.111-0.058,0.144-0.187,0.224-0.268c1.971-1.979,3.946-3.953,5.921-5.927c0.499-0.499,0.51-0.504,0.227-1.152 c-0.658-1.509-1.63-2.799-2.813-3.933c-0.779-0.747-1.635-1.386-2.677-1.725C25.259,31.223,24.942,31.175,24.581,31.091z M23.419,42.516c0-0.72,0.001-1.347,0-1.974c-0.001-0.557-0.155-0.724-0.716-0.776c-1.059-0.098-1.895-0.771-2.107-1.77 c-0.089-0.417-0.075-0.86-0.077-1.291c-0.008-1.504,0.827-2.415,2.315-2.545c0.372-0.033,0.579-0.252,0.583-0.642 c0.006-0.682,0.002-1.364,0.002-2.046c0-0.105,0-0.21,0-0.426c-0.528,0.164-1.003,0.265-1.44,0.456 c-1.152,0.503-2.074,1.32-2.901,2.249c-0.947,1.065-1.759,2.218-2.261,3.568c-0.091,0.244-0.061,0.402,0.132,0.593 c2.067,2.051,4.122,4.113,6.182,6.171c0.072,0.072,0.151,0.137,0.262,0.237c0.055-0.51,0.104-0.947-0.383-1.237 c-0.192-0.114-0.367-0.277-0.504-0.454c-0.073-0.094-0.107-0.33-0.048-0.387c0.085-0.083,0.288-0.113,0.411-0.073 C23.044,42.227,23.191,42.367,23.419,42.516z M23.419,24.404c-1.831,0.127-3.211,1.479-3.392,3.248 c-0.012,0.113-0.096,0.258-0.191,0.318c-1.084,0.687-1.779,1.663-2.117,2.885c-0.104,0.377-0.105,0.787-0.112,1.182 c-0.002,0.124,0.102,0.299,0.208,0.359c0.063,0.035,0.248-0.088,0.342-0.178c0.474-0.458,0.922-0.945,1.406-1.392 c0.921-0.851,1.918-1.584,3.177-1.865c0.543-0.121,0.678-0.286,0.678-0.845c0-1.071,0-2.142,0-3.213 C23.419,24.744,23.419,24.584,23.419,24.404z M24.614,24.418c-0.01,0.038-0.029,0.079-0.029,0.12c-0.002,1.255-0.008,2.51,0,3.765 c0.002,0.354,0.213,0.543,0.569,0.647c0.443,0.13,0.896,0.256,1.308,0.457c1.238,0.603,2.178,1.583,3.122,2.552 c0.128,0.132,0.254,0.267,0.394,0.385c0.168,0.141,0.323,0.087,0.371-0.111c0.052-0.217,0.091-0.453,0.063-0.671 c-0.189-1.485-0.89-2.67-2.141-3.505c-0.207-0.138-0.317-0.27-0.33-0.527c-0.012-0.244-0.087-0.489-0.163-0.724 C27.339,25.455,25.939,24.399,24.614,24.418z M15.641,23.796c0.028,0.116,0.039,0.225,0.08,0.322 c0.121,0.29,0.358,0.44,0.661,0.438c0.317-0.002,0.555-0.166,0.68-0.467c0.173-0.416,0.454-0.664,0.931-0.675 c0.5-0.011,0.809,0.22,1.002,0.666c0.156,0.361,0.459,0.521,0.801,0.461c0.33-0.058,0.576-0.295,0.602-0.63 c0.012-0.154-0.029-0.323-0.087-0.468c-0.375-0.931-1.27-1.516-2.291-1.513c-1.017,0.003-1.911,0.599-2.284,1.528 C15.692,23.568,15.671,23.685,15.641,23.796z M32.341,23.647c-0.081-0.156-0.196-0.462-0.383-0.715 c-0.567-0.772-1.353-1.087-2.297-0.977c-0.969,0.113-1.627,0.659-1.999,1.544c-0.213,0.507,0.085,1.005,0.603,1.054 c0.318,0.03,0.591-0.141,0.751-0.5c0.2-0.447,0.526-0.658,1.021-0.639c0.464,0.018,0.724,0.272,0.902,0.67 c0.164,0.368,0.481,0.529,0.835,0.452C32.119,24.462,32.343,24.174,32.341,23.647z"/></svg>