<svg xmlns="http://www.w3.org/2000/svg" viewBox="0 0 48 48"><linearGradient id="lgCWWU9Psvcjg4HnVQJKHa" x1="18.477" x2="28.828" y1="-568.106" y2="-601.643" gradientTransform="matrix(1 0 0 -1 0 -562)" gradientUnits="userSpaceOnUse"><stop offset="0" stop-color="#33bef0"/><stop offset="1" stop-color="#0a85d9"/></linearGradient><path fill="url(#lgCWWU9Psvcjg4HnVQJKHa)" d="M11.5,6h4C15.776,6,16,6.224,16,6.5v35c0,0.276-0.224,0.5-0.5,0.5h-4	c-0.276,0-0.5-0.224-0.5-0.5v-35C11,6.224,11.224,6,11.5,6z M18.5,42h1c0.276,0,0.5-0.224,0.5-0.5v-35C20,6.224,19.776,6,19.5,6h-1	C18.224,6,18,6.224,18,6.5v35C18,41.776,18.224,42,18.5,42z M6.5,42h2C8.776,42,9,41.776,9,41.5V8H6v33.5C6,41.776,6.224,42,6.5,42z M22.5,42h7c0.276,0,0.5-0.224,0.5-0.5v-35C30,6.224,29.776,6,29.5,6h-7C22.224,6,22,6.224,22,6.5v35C22,41.776,22.224,42,22.5,42z M39,6.5V40h3V6.5C42,6.224,41.776,6,41.5,6h-2C39.224,6,39,6.224,39,6.5z M32.5,42h4c0.276,0,0.5-0.224,0.5-0.5v-35	C37,6.224,36.776,6,36.5,6h-4C32.224,6,32,6.224,32,6.5v35C32,41.776,32.224,42,32.5,42z"/><path fill="#e52030" d="M44.888,42.734L5.266,3.112c-0.149-0.149-0.39-0.149-0.539,0L3.112,4.728	c-0.149,0.149-0.149,0.39,0,0.539l39.622,39.622c0.149,0.149,0.39,0.149,0.539,0l1.616-1.616	C45.037,43.124,45.037,42.882,44.888,42.734z"/></svg>