<svg xmlns="http://www.w3.org/2000/svg" baseProfile="basic" viewBox="0 0 48 48"><linearGradient id="ftcmq2ns_v40t4OMDFEyDa" x1="24.353" x2="24.353" y1="-4.075" y2="46.658" gradientUnits="userSpaceOnUse"><stop offset="0" stop-color="#bd4ff4"/><stop offset=".513" stop-color="#a235ec"/><stop offset="1" stop-color="#8c20e5"/></linearGradient><path fill="url(#ftcmq2ns_v40t4OMDFEyDa)" d="M25.363,9.973c-0.373-0.209-0.788-0.392-1.242-0.548c-0.456-0.157-0.944-0.235-1.466-0.235	c-0.851,0-1.571,0.273-2.16,0.817c-0.59,0.545-1.004,1.302-1.242,2.272l-0.716,3.067h3.984l-1.142,4.813h-3.895l-2.999,13.05	c-0.389,1.761-0.866,3.25-1.433,4.466c-0.568,1.215-1.22,2.2-1.959,2.955c-0.739,0.753-1.571,1.294-2.496,1.622	c-0.926,0.328-1.94,0.492-3.044,0.492c-0.597,0-1.242-0.059-1.936-0.179s-1.273-0.269-1.735-0.448l0.739-4.723	c0.328,0.179,0.645,0.321,0.951,0.425c0.305,0.104,0.63,0.157,0.974,0.157c0.388,0,0.75-0.063,1.086-0.189	c0.336-0.128,0.649-0.359,0.94-0.694c0.291-0.336,0.563-0.802,0.817-1.399c0.253-0.597,0.484-1.373,0.694-2.328l2.977-13.207H8.083	l1.142-4.813h2.888l0.783-3.313c0.551-2.537,1.615-4.477,3.19-5.82c1.574-1.343,3.548-2.015,5.921-2.015	c0.791,0,1.578,0.078,2.362,0.235s1.451,0.355,2.003,0.593L25.363,9.973z M37.955,25.46l4.524,10.198h-4.821	c-1.281,0-2.421-0.814-2.837-2.026l-1.13-3.291c-0.107-0.304-0.206-0.631-0.298-0.982c-0.093-0.351-0.178-0.691-0.257-1.022h-0.1	c-0.198,0.331-0.397,0.668-0.595,1.012c-0.198,0.344-0.404,0.648-0.616,0.913l-4.027,5.397h-7.381l9.047-10.277l-4.345-10.039h4.775	c1.314,0,2.474,0.855,2.865,2.109l1.011,3.248c0.131,0.344,0.244,0.718,0.337,1.121c0.093,0.403,0.159,0.737,0.198,1.002h0.079	c0.159-0.291,0.37-0.631,0.635-1.022c0.265-0.39,0.503-0.731,0.714-1.022l3.968-5.436h7.122L37.955,25.46z"/></svg>