<svg xmlns="http://www.w3.org/2000/svg" viewBox="0 0 48 48"><path fill="#50e6ff" d="M40,6H8C6.895,6,6,6.895,6,8v30c0,1.105,0.895,2,2,2h32c1.105,0,2-0.895,2-2V8 C42,6.895,41.105,6,40,6z"/><linearGradient id="bIgi8ChTKO518403xrF_la" x1="18" x2="42" y1="17.907" y2="17.907" gradientTransform="matrix(1 0 0 -1 0 50)" gradientUnits="userSpaceOnUse"><stop offset="0" stop-color="#3ccbf4"/><stop offset="1" stop-color="#1fa0e5"/></linearGradient><path fill="url(#bIgi8ChTKO518403xrF_la)" d="M32.065,23.065c-1.149-1.149-3.005-1.174-4.185-0.057L18,32.368V42h22c1.105,0,2-0.895,2-2 v-7L32.065,23.065z"/><circle cx="30.5" cy="14.5" r="3.5" fill="#fff8de"/><linearGradient id="bIgi8ChTKO518403xrF_lb" x1="23.91" x2="23.91" y1="31.814" y2="8" gradientTransform="matrix(1 0 0 -1 0 50)" gradientUnits="userSpaceOnUse"><stop offset="0" stop-color="#28afea"/><stop offset="1" stop-color="#0b88da"/></linearGradient><path fill="url(#bIgi8ChTKO518403xrF_lb)" d="M8,42h32c0.811,0,1.507-0.485,1.82-1.18L20.065,19.065 c-1.149-1.149-3.005-1.174-4.185-0.057L6,28.368V40C6,41.105,6.895,42,8,42z"/><g><path d="M42,42H27v-9c0-1.657,1.343-3,3-3h12V42z" opacity=".05"/><path d="M42,42H27.5v-9c0-1.381,1.119-2.5,2.5-2.5h12V42z" opacity=".05"/><linearGradient id="bIgi8ChTKO518403xrF_lc" x1="33.953" x2="40.271" y1="33.449" y2="-2.38" gradientTransform="matrix(1 0 0 -1 0 50)" gradientUnits="userSpaceOnUse"><stop offset="0" stop-color="#f9f9f9"/><stop offset=".966" stop-color="#c4c9cd"/><stop offset="1" stop-color="#c2c8cc"/></linearGradient><path fill="url(#bIgi8ChTKO518403xrF_lc)" d="M46,48H30c-1.105,0-2-0.895-2-2V33c0-1.105,0.895-2,2-2h16c1.105,0,2,0.895,2,2v13 C48,47.105,47.105,48,46,48z"/><linearGradient id="bIgi8ChTKO518403xrF_ld" x1="35.952" x2="39.19" y1="22.117" y2="3.75" gradientTransform="matrix(1 0 0 -1 0 50)" gradientUnits="userSpaceOnUse"><stop offset="0" stop-color="#28afea"/><stop offset="1" stop-color="#0b88da"/></linearGradient><path fill="url(#bIgi8ChTKO518403xrF_ld)" d="M31,36.5v-1c0-0.276,0.224-0.5,0.5-0.5h13c0.276,0,0.5,0.224,0.5,0.5v1 c0,0.276-0.224,0.5-0.5,0.5h-13C31.224,37,31,36.776,31,36.5z M31.5,44h13c0.276,0,0.5-0.224,0.5-0.5v-1 c0-0.276-0.224-0.5-0.5-0.5h-13c-0.276,0-0.5,0.224-0.5,0.5v1C31,43.776,31.224,44,31.5,44z"/><linearGradient id="bIgi8ChTKO518403xrF_le" x1="33" x2="37" y1="14" y2="14" gradientTransform="matrix(1 0 0 -1 0 50)" gradientUnits="userSpaceOnUse"><stop offset="0" stop-color="#1d59b3"/><stop offset="1" stop-color="#195bbc"/></linearGradient><circle cx="35" cy="36" r="2" fill="url(#bIgi8ChTKO518403xrF_le)"/><linearGradient id="bIgi8ChTKO518403xrF_lf" x1="39" x2="43" y1="7" y2="7" gradientTransform="matrix(1 0 0 -1 0 50)" gradientUnits="userSpaceOnUse"><stop offset="0" stop-color="#1d59b3"/><stop offset="1" stop-color="#195bbc"/></linearGradient><circle cx="41" cy="43" r="2" fill="url(#bIgi8ChTKO518403xrF_lf)"/></g></svg>