<svg xmlns="http://www.w3.org/2000/svg" baseProfile="basic" viewBox="0 0 48 48"><linearGradient id="BDGivJI1WKNlnirr8BXOGa" x1="24" x2="24" y1="6" y2="42" gradientUnits="userSpaceOnUse"><stop offset="0" stop-color="#33bef0"/><stop offset="1" stop-color="#0a85d9"/></linearGradient><path fill="url(#BDGivJI1WKNlnirr8BXOGa)" d="M38,42H10c-2.209,0-4-1.791-4-4V10c0-2.209,1.791-4,4-4h28c2.209,0,4,1.791,4,4v28	C42,40.209,40.209,42,38,42z"/><path d="M10,39c-0.552,0-1-0.449-1-1V10c0-0.551,0.448-1,1-1h28c0.552,0,1,0.449,1,1v28c0,0.551-0.448,1-1,1	H10z M35,35v-6h-3.389c-0.43,0-0.811-0.273-0.947-0.681l-1.677-4.984l-2.04,5.986c-0.139,0.406-0.52,0.678-0.947,0.678	s-0.809-0.272-0.946-0.677l-2.039-5.981l-3.677,10.947c-0.137,0.407-0.517,0.681-0.945,0.682c-0.43,0-0.811-0.272-0.949-0.678	l-3.491-10.293l-0.952,0V35H35z M35,25V13h-5.808c0.352,0.066,0.646,0.317,0.762,0.664L33.768,25H35z M16.103,19.997	c0.428,0,0.808,0.272,0.946,0.678l1.328,3.913l3.669-10.926c0.115-0.343,0.403-0.592,0.748-0.662H13v6.999L16.103,19.997z M23.191,13c0.344,0.07,0.632,0.316,0.748,0.657L26,19.702l2.06-6.042c0.118-0.345,0.412-0.594,0.761-0.66H23.191z" opacity=".05"/><path d="M10,38.5c-0.276,0-0.5-0.224-0.5-0.5V10c0-0.276,0.224-0.5,0.5-0.5h28c0.276,0,0.5,0.224,0.5,0.5v28	c0,0.276-0.224,0.5-0.5,0.5H10z M35.5,35.5v-7h-3.889c-0.215,0-0.405-0.137-0.474-0.34l-2.147-6.383l-2.517,7.383	c-0.069,0.203-0.26,0.339-0.474,0.339s-0.404-0.136-0.474-0.339l-2.516-7.38l-4.146,12.348c-0.068,0.203-0.259,0.34-0.473,0.341	h-0.001c-0.214,0-0.404-0.136-0.474-0.339l-3.606-10.632L12.5,23.499V35.5H35.5z M16.103,20.497c0.214,0,0.404,0.137,0.474,0.339	l1.803,5.315l4.141-12.33c0.068-0.203,0.258-0.34,0.473-0.341h0.001c0.214,0,0.404,0.136,0.474,0.339L26,21.251l2.533-7.43	c0.069-0.203,0.26-0.339,0.474-0.339h0.001c0.215,0,0.404,0.137,0.473,0.341L33.408,25.5H35.5v-13h-23v7.999L16.103,20.497z" opacity=".07"/><path fill="#fff" d="M10,10v28h28V10H10z M36,12v14h-2.951l-4.042-12.018L26,22.801l-3.007-8.821l-4.612,13.734	l-2.278-6.718L12,20.999V12H36z M12,36V22.999l2.669-0.002l3.722,10.972l4.616-13.749L26,28.999l2.993-8.781L31.611,28H36v8H12z"/></svg>