<svg xmlns="http://www.w3.org/2000/svg" viewBox="0 0 48 48"><linearGradient id="w5ukS1ZU0oCOA61ygu3cHa" x1="38.001" x2="40.528" y1="28.5" y2="28.5" gradientUnits="userSpaceOnUse"><stop offset="0" stop-color="#c48f0c"/><stop offset=".251" stop-color="#d19b16"/><stop offset=".619" stop-color="#dca51f"/><stop offset="1" stop-color="#e0a922"/></linearGradient><path fill="url(#w5ukS1ZU0oCOA61ygu3cHa)" d="M37.999,25H37v7h1.333c0.975,0,1.808-0.547,1.972-1.294l0.653-2.981	C41.269,26.3,39.857,25,37.999,25z"/><linearGradient id="w5ukS1ZU0oCOA61ygu3cHb" x1="70.001" x2="72.528" y1="28.5" y2="28.5" gradientTransform="matrix(-1 0 0 1 80 0)" gradientUnits="userSpaceOnUse"><stop offset="0" stop-color="#c48f0c"/><stop offset=".251" stop-color="#d19b16"/><stop offset=".619" stop-color="#dca51f"/><stop offset="1" stop-color="#e0a922"/></linearGradient><path fill="url(#w5ukS1ZU0oCOA61ygu3cHb)" d="M10.001,25H11v7H9.667c-0.975,0-1.808-0.547-1.972-1.294l-0.653-2.981	C6.731,26.3,8.143,25,10.001,25z"/><radialGradient id="w5ukS1ZU0oCOA61ygu3cHc" cx="-114.345" cy="6.414" r="16.758" gradientTransform="matrix(-.9667 0 0 .9667 -86.533 19.667)" gradientUnits="userSpaceOnUse"><stop offset="0" stop-color="#ffcf54"/><stop offset=".261" stop-color="#fdcb4d"/><stop offset=".639" stop-color="#f7c13a"/><stop offset="1" stop-color="#f0b421"/></radialGradient><path fill="url(#w5ukS1ZU0oCOA61ygu3cHc)" d="M24,7.733c6.908,0,14,2.354,14,7.733c0,1.195,0,14.525,0,15.802C38,36.6,29.426,44,24,44	s-14-7.4-14-12.731c0-1.277,0-14.607,0-15.802C10,11.631,17.092,7.733,24,7.733z"/><radialGradient id="w5ukS1ZU0oCOA61ygu3cHd" cx="19.134" cy="3.857" r="31.878" gradientUnits="userSpaceOnUse"><stop offset="0" stop-color="#636363"/><stop offset=".998" stop-color="#3b3b3b"/></radialGradient><path fill="url(#w5ukS1ZU0oCOA61ygu3cHd)" d="M41,16c0-6.288-5.617-12-17-12S7,9.712,7,16c0,7.628,3,13,3,13s0,0.017,0-4	c0-6.533,7.918-5.098,14-10c6.082,4.902,14,3.467,14,10c0,4.017,0,4,0,4S41,23.628,41,16z"/><linearGradient id="w5ukS1ZU0oCOA61ygu3cHe" x1="28" x2="28" y1="1.787" y2="12.373" gradientUnits="userSpaceOnUse"><stop offset="0" stop-color="#636363"/><stop offset=".998" stop-color="#3b3b3b"/></linearGradient><circle cx="28" cy="7" r="5" fill="url(#w5ukS1ZU0oCOA61ygu3cHe)"/><linearGradient id="w5ukS1ZU0oCOA61ygu3cHf" x1="20" x2="20" y1="1.787" y2="12.373" gradientUnits="userSpaceOnUse"><stop offset="0" stop-color="#636363"/><stop offset=".998" stop-color="#3b3b3b"/></linearGradient><circle cx="20" cy="7" r="5" fill="url(#w5ukS1ZU0oCOA61ygu3cHf)"/><path fill="#50e6ff" d="M27,9c-0.256,0-0.512-0.098-0.707-0.293c-0.391-0.391-0.391-1.023,0-1.414l2-2	c0.391-0.391,1.023-0.391,1.414,0s0.391,1.023,0,1.414l-2,2C27.512,8.902,27.256,9,27,9z"/><path fill="#50e6ff" d="M29,9c-0.256,0-0.512-0.098-0.707-0.293l-2-2c-0.391-0.391-0.391-1.023,0-1.414s1.023-0.391,1.414,0	l2,2c0.391,0.391,0.391,1.023,0,1.414C29.512,8.902,29.256,9,29,9z"/><path fill="#50e6ff" d="M19,9c-0.256,0-0.512-0.098-0.707-0.293c-0.391-0.391-0.391-1.023,0-1.414l2-2	c0.391-0.391,1.023-0.391,1.414,0s0.391,1.023,0,1.414l-2,2C19.512,8.902,19.256,9,19,9z"/><path fill="#50e6ff" d="M21,9c-0.256,0-0.512-0.098-0.707-0.293l-2-2c-0.391-0.391-0.391-1.023,0-1.414s1.023-0.391,1.414,0	l2,2c0.391,0.391,0.391,1.023,0,1.414C21.512,8.902,21.256,9,21,9z"/><path fill="#666" d="M25.999,26.996c-0.193,0-0.387-0.056-0.558-0.172c-0.455-0.308-0.578-0.921-0.273-1.378	C25.262,25.305,27.528,22,33,22c0.552,0,1,0.448,1,1s-0.448,1-1,1c-4.353,0-6.1,2.457-6.172,2.562	C26.633,26.843,26.318,26.996,25.999,26.996z"/><path fill="#666" d="M22.001,27c-0.321,0-0.636-0.154-0.829-0.439C21.094,26.448,19.345,24,15,24c-0.552,0-1-0.448-1-1	s0.448-1,1-1c5.472,0,7.738,3.305,7.832,3.445c0.306,0.459,0.182,1.081-0.277,1.387C22.384,26.946,22.191,27,22.001,27z"/><circle cx="30.5" cy="28.5" r="1.5" fill="#3b3b3b"/><circle cx="17.5" cy="28.5" r="1.5" fill="#3b3b3b"/></svg>