<svg xmlns="http://www.w3.org/2000/svg" id="Layer_1" x="0" y="0" version="1.1" viewBox="0 0 48 48" xml:space="preserve"><linearGradient id="SVGID_1_" x1="218.031" x2="246.11" y1="43.969" y2="15.89" gradientTransform="rotate(90 131 -77)" gradientUnits="userSpaceOnUse"><stop offset="0" stop-color="#fede00"/><stop offset=".519" stop-color="#fecc00"/><stop offset="1" stop-color="#ffb700"/></linearGradient><path fill="url(#SVGID_1_)" d="M24,44c11,0,20-9,20-20S35,4,24,4S4,13,4,24S13,44,24,44z"/><path fill="#343434" d="M13.6,28.4c-0.3,0-0.7-0.2-0.9-0.5c-0.3-0.5-0.1-1.1,0.4-1.4l4.2-2.4l-4.7-0.8c-0.5-0.1-0.9-0.6-0.8-1.2 c0.1-0.5,0.6-0.9,1.2-0.8l7.4,1.3c0.4,0.1,0.7,0.4,0.8,0.8c0.1,0.4-0.1,0.8-0.5,1l-6.6,3.8C13.9,28.4,13.7,28.4,13.6,28.4z"/><path fill="#343434" d="M34.4,28.4c-0.2,0-0.3,0-0.5-0.1l-6.6-3.8c-0.4-0.2-0.6-0.6-0.5-1c0.1-0.4,0.4-0.7,0.8-0.8l7.4-1.3 c0.5-0.1,1.1,0.3,1.2,0.8c0.1,0.5-0.3,1.1-0.8,1.2l-4.7,0.8l4.2,2.4c0.5,0.3,0.6,0.9,0.4,1.4C35.1,28.2,34.8,28.4,34.4,28.4z"/><path fill="#343434" d="M32,38c-1-2.9-4.2-5-8-5s-7,2.1-8,5H32z"/><path fill="#343434" d="M30,38c-1.3-1.8-3.5-3-6-3s-4.7,1.2-6,3H30z"/><linearGradient id="SVGID_2_" x1="24" x2="24" y1="42.956" y2="35.195" gradientUnits="userSpaceOnUse"><stop offset="0" stop-color="#f44f5a"/><stop offset=".443" stop-color="#ee3d4a"/><stop offset="1" stop-color="#e52030"/></linearGradient><path fill="url(#SVGID_2_)" d="M24,35c-1.1,0-2.1,0.2-3,0.6V39c0,1.7,1.3,3,3,3l0,0c1.7,0,3-1.3,3-3v-3.4C26.1,35.2,25.1,35,24,35z"/><path fill="#eb6773" d="M24,40.5L24,40.5c-0.4,0-0.8-0.3-0.8-0.8v-2.5c0-0.4,0.3-0.8,0.8-0.8l0,0c0.4,0,0.8,0.3,0.8,0.8v2.5 C24.8,40.2,24.4,40.5,24,40.5z"/></svg>