<svg xmlns="http://www.w3.org/2000/svg" viewBox="0 0 48 48"><linearGradient id="XTO4KpfoKlfNUnV3Qen4Xa" x1="15.739" x2="15.739" y1="807.204" y2="821.639" gradientTransform="rotate(90 420.945 418.206)" gradientUnits="userSpaceOnUse"><stop offset="0" stop-color="#1ea2e4"/><stop offset="1" stop-color="#32bdef"/></linearGradient><path fill="url(#XTO4KpfoKlfNUnV3Qen4Xa)" d="M14,4.588C14,3.159,15.159,2,16.588,2L36.72,22.17c0.505,0.505,0.758,1.168,0.758,1.83H14 V4.588z"/><linearGradient id="XTO4KpfoKlfNUnV3Qen4Xb" x1="37.739" x2="37.739" y1="801.077" y2="815.512" gradientTransform="rotate(90 420.945 418.206)" gradientUnits="userSpaceOnUse"><stop offset=".365" stop-color="#199ae0"/><stop offset=".699" stop-color="#1898de"/><stop offset=".819" stop-color="#1691d8"/><stop offset=".905" stop-color="#1186cc"/><stop offset=".974" stop-color="#0a75bc"/><stop offset="1" stop-color="#076cb3"/></linearGradient><path fill="url(#XTO4KpfoKlfNUnV3Qen4Xb)" d="M16.588,46C15.159,46,14,44.841,14,43.412V24h23.478c0,0.662-0.253,1.325-0.758,1.83 L16.588,46z"/><path fill="#199ae0" d="M16.588,46C15.159,46,14,44.841,14,43.412V24h23.478c0,0.662-0.253,1.325-0.758,1.83L16.588,46z"/></svg>