<svg xmlns="http://www.w3.org/2000/svg" viewBox="0 0 48 48"><radialGradient id="TBE_nSqiG4xN32mdui9oba" cx="24" cy="23" r="19" gradientUnits="userSpaceOnUse"><stop offset=".078" stop-color="#fff"/><stop offset=".202" stop-color="#fff5a3"/><stop offset=".216" stop-color="#fff392"/><stop offset=".263" stop-color="#ffee5f"/><stop offset=".307" stop-color="#ffea37"/><stop offset=".347" stop-color="#ffe71a"/><stop offset=".382" stop-color="#ffe508"/><stop offset=".408" stop-color="#ffe402"/><stop offset=".545" stop-color="#fdde02"/><stop offset=".736" stop-color="#f9cc01"/><stop offset=".956" stop-color="#f2af00"/><stop offset="1" stop-color="#f0a800"/></radialGradient><circle cx="24" cy="23" r="19" fill="url(#TBE_nSqiG4xN32mdui9oba)"/><radialGradient id="TBE_nSqiG4xN32mdui9obb" cx="21.677" cy="37.463" r="10.066" gradientUnits="userSpaceOnUse"><stop offset="0" stop-color="#6e757b"/><stop offset="1" stop-color="#4a4e52"/></radialGradient><path fill="url(#TBE_nSqiG4xN32mdui9obb)" d="M29,38H19c0,0.712,0,2,0,2c0,2.761,2.239,5,5,5s5-2.239,5-5C29,40,29,38.712,29,38z"/><path fill="#fefefe" d="M34,23c0-5.523-4.477-10-10-10s-10,4.477-10,10c0,5,5,9,5,14v1h10v-1C29,32,34,28,34,23z"/><linearGradient id="TBE_nSqiG4xN32mdui9obc" x1="41.18" x2="32.764" y1="14.18" y2="5.764" gradientUnits="userSpaceOnUse"><stop offset="0" stop-color="#fff"/><stop offset=".242" stop-color="#f2f2f2"/><stop offset="1" stop-color="#ccc"/></linearGradient><circle cx="37" cy="10" r="6" fill="url(#TBE_nSqiG4xN32mdui9obc)"/><linearGradient id="TBE_nSqiG4xN32mdui9obd" x1="31.031" x2="45.558" y1="4.031" y2="18.558" gradientUnits="userSpaceOnUse"><stop offset="0" stop-color="#889097"/><stop offset=".331" stop-color="#848c94"/><stop offset=".669" stop-color="#78828b"/><stop offset="1" stop-color="#64717c"/></linearGradient><path fill="url(#TBE_nSqiG4xN32mdui9obd)" d="M46.715,7.668c-1.193,0.151-2.415-0.407-3.054-1.514c-0.639-1.106-0.512-2.444,0.216-3.401 c-1.129-1.072-2.505-1.884-4.038-2.338C39.375,1.526,38.279,2.308,37,2.308s-2.375-0.781-2.839-1.893 c-1.533,0.453-2.909,1.266-4.038,2.338c0.727,0.957,0.854,2.295,0.216,3.401c-0.639,1.106-1.861,1.665-3.054,1.514 C27.105,8.417,27,9.195,27,10c0,0.805,0.105,1.583,0.285,2.332c1.193-0.151,2.415,0.407,3.054,1.514 c0.639,1.106,0.512,2.444-0.216,3.401c1.129,1.072,2.505,1.884,4.038,2.338c0.464-1.111,1.56-1.893,2.839-1.893 s2.375,0.781,2.839,1.893c1.533-0.453,2.909-1.266,4.038-2.338c-0.727-0.957-0.854-2.295-0.216-3.401 c0.639-1.106,1.861-1.665,3.054-1.514C46.895,11.583,47,10.805,47,10C47,9.195,46.895,8.417,46.715,7.668z M37,15.385 c-2.974,0-5.385-2.411-5.385-5.385c0-2.974,2.411-5.385,5.385-5.385S42.385,7.026,42.385,10C42.385,12.974,39.974,15.385,37,15.385 z"/><linearGradient id="TBE_nSqiG4xN32mdui9obe" x1="35.043" x2="39.156" y1="8.043" y2="12.156" gradientUnits="userSpaceOnUse"><stop offset="0" stop-color="#0d61a9"/><stop offset=".363" stop-color="#0e5fa4"/><stop offset=".78" stop-color="#135796"/><stop offset="1" stop-color="#16528c"/></linearGradient><circle cx="37" cy="10" r="3" fill="url(#TBE_nSqiG4xN32mdui9obe)"/></svg>