<svg xmlns="http://www.w3.org/2000/svg" viewBox="0 0 48 48"><linearGradient id="FQrx97hJ351FbVEs3RNNna" x1="3.197" x2="20.487" y1="6.666" y2="40.116" gradientUnits="userSpaceOnUse"><stop offset="0" stop-color="#fcfcfc"/><stop offset=".495" stop-color="#f4f4f4"/><stop offset=".946" stop-color="#e8e8e8"/><stop offset="1" stop-color="#e8e8e8"/></linearGradient><polygon fill="url(#FQrx97hJ351FbVEs3RNNna)" points="6,3 6,39 24,39 24,20"/><linearGradient id="FQrx97hJ351FbVEs3RNNnb" x1="6" x2="24" y1="41" y2="41" gradientUnits="userSpaceOnUse"><stop offset="0" stop-color="#c8d3de"/><stop offset="1" stop-color="#c8d3de"/></linearGradient><path fill="url(#FQrx97hJ351FbVEs3RNNnb)" d="M24,39H6v4h16c1.105,0,2-0.895,2-2V39z"/><linearGradient id="FQrx97hJ351FbVEs3RNNnc" x1="9.517" x2="18.101" y1="25.517" y2="34.101" gradientUnits="userSpaceOnUse"><stop offset="0" stop-color="#33bef0"/><stop offset="1" stop-color="#0a85d9"/></linearGradient><path fill="url(#FQrx97hJ351FbVEs3RNNnc)" d="M11,25h6c0.552,0,1,0.448,1,1v8c0,0.552-0.448,1-1,1h-6c-0.552,0-1-0.448-1-1v-8	C10,25.448,10.448,25,11,25z"/><path d="M12.685,9.314L7.326,4.503C6.948,4.168,6.474,4,6,4v5.428L24,25.39V20L12.685,9.314z" opacity=".05"/><path fill="#199be2" d="M40,8h-4v2h4c0.552,0,1-0.448,1-1C41,8.448,40.552,8,40,8z"/><path fill="#199be2" d="M40,12h-4v2h4c0.552,0,1-0.448,1-1C41,12.448,40.552,12,40,12z"/><path fill="#199be2" d="M40,16h-4v2h4c0.552,0,1-0.448,1-1C41,16.448,40.552,16,40,16z"/><path fill="#199be2" d="M40,20h-4v2h4c0.552,0,1-0.448,1-1C41,20.448,40.552,20,40,20z"/><path fill="#199be2" d="M40,24h-4v2h4c0.552,0,1-0.448,1-1C41,24.448,40.552,24,40,24z"/><path fill="#35c1f1" d="M40,30h-6V7c0-0.552,0.448-1,1-1h4c0.552,0,1,0.448,1,1V30z"/><circle cx="37" cy="35" r="7" fill="#35c1f1"/><rect width="2" height="8" x="36" y="8" fill="#1b9de2"/><circle cx="37" cy="35" r="4" fill="#af2031"/><rect width="2" height="17" x="36" y="16" fill="#af2031"/><path d="M12.685,8.284L7.326,3.5C6.948,3.167,6.474,3,6,3v5.397l18,15.871v-5.359L12.685,8.284z" opacity=".07"/><linearGradient id="FQrx97hJ351FbVEs3RNNnd" x1="16.415" x2="16.415" y1="1.684" y2="23.696" gradientUnits="userSpaceOnUse"><stop offset="0" stop-color="#d43a02"/><stop offset="1" stop-color="#b9360c"/></linearGradient><path fill="url(#FQrx97hJ351FbVEs3RNNnd)" d="M26.495,19.507L7.326,2.503C6.948,2.168,6.474,2,6,2v5.428L23.533,22.75	c0.405,0.356,1.021,0.327,1.39-0.067l1.636-1.745C26.944,20.527,26.915,19.881,26.495,19.507z"/></svg>