<svg xmlns="http://www.w3.org/2000/svg" viewBox="0 0 48 48"><circle cx="33" cy="40" r="1" fill="#64717c"/><circle cx="15" cy="40" r="1" fill="#64717c"/><circle cx="33" cy="36" r="1" fill="#64717c"/><circle cx="15" cy="36" r="1" fill="#64717c"/><circle cx="33" cy="32" r="1" fill="#64717c"/><circle cx="15" cy="32" r="1" fill="#64717c"/><circle cx="33" cy="28" r="1" fill="#64717c"/><circle cx="15" cy="24" r="1" fill="#64717c"/><circle cx="33" cy="20" r="1" fill="#64717c"/><circle cx="15" cy="20" r="1" fill="#64717c"/><circle cx="33" cy="12" r="1" fill="#64717c"/><circle cx="15" cy="12" r="1" fill="#64717c"/><circle cx="33" cy="8" r="1" fill="#64717c"/><circle cx="15" cy="8" r="1" fill="#64717c"/><circle cx="42" cy="41" r="1" fill="#abb4be"/><circle cx="6" cy="41" r="1" fill="#abb4be"/><rect width="36" height="2" x="6" y="40" fill="#abb4be"/><path fill="#28a8ea" d="M6,20c-0.219,0-0.44-0.072-0.624-0.219c-0.432-0.345-0.501-0.974-0.156-1.405l4-5	c0.274-0.344,0.742-0.466,1.152-0.304L15.192,15H18c0.107,0,0.214,0.017,0.316,0.051l2.414,0.805l5.563-5.563	c0.366-0.366,0.951-0.393,1.347-0.061l5.393,4.494L36.4,12.2c0.304-0.227,0.708-0.265,1.047-0.095l1.21,0.605l3.51-5.266	c0.306-0.46,0.926-0.585,1.387-0.277c0.459,0.306,0.583,0.927,0.277,1.387l-4,6c-0.28,0.42-0.827,0.564-1.279,0.34l-1.447-0.724	L33.6,16.8c-0.371,0.278-0.883,0.266-1.24-0.032l-5.298-4.415l-5.354,5.354c-0.268,0.268-0.663,0.362-1.023,0.242L17.838,17H15	c-0.127,0-0.253-0.024-0.372-0.071l-4.311-1.725l-3.537,4.42C6.583,19.872,6.292,20,6,20z"/><linearGradient id="j33GYy5GIMFp_bX6nzl~Ja" x1="5" x2="44" y1="27" y2="27" gradientUnits="userSpaceOnUse"><stop offset="0" stop-color="#1d59b3"/><stop offset="1" stop-color="#195bbc"/></linearGradient><path fill="url(#j33GYy5GIMFp_bX6nzl~Ja)" d="M9,32c-0.194,0-0.388-0.057-0.555-0.168l-3-2c-0.459-0.306-0.583-0.927-0.277-1.387	c0.306-0.46,0.926-0.585,1.387-0.277l2.517,1.678l5.481-2.741c0.237-0.118,0.512-0.138,0.764-0.054l2.536,0.845l2.593-1.729	C20.609,26.059,20.803,26,21,26h5.764l5.789-2.895c0.281-0.141,0.613-0.141,0.895,0l3.355,1.678l1.49-1.49	c0.128-0.128,0.289-0.219,0.464-0.263l4-1c0.535-0.135,1.079,0.192,1.213,0.728c0.134,0.536-0.192,1.079-0.728,1.213l-3.731,0.933	l-1.804,1.804c-0.303,0.304-0.768,0.38-1.154,0.188L33,25.118l-5.553,2.776C27.309,27.964,27.155,28,27,28h-5.697l-2.748,1.832	c-0.256,0.171-0.577,0.214-0.871,0.117l-2.607-0.869l-5.629,2.815C9.306,31.965,9.153,32,9,32z"/></svg>