<svg xmlns="http://www.w3.org/2000/svg" viewBox="0 0 48 48"><linearGradient id="hJV2EfTvcdT6CJVwy5Xf_a" x1="24" x2="24" y1="14.184" y2="43.076" gradientUnits="userSpaceOnUse"><stop offset="0" stop-color="#c8cdd1"/><stop offset="1" stop-color="#b3b3b3"/></linearGradient><path fill="url(#hJV2EfTvcdT6CJVwy5Xf_a)" d="M35.133,46H12.867c-1.051,0-1.923-0.814-1.995-1.862L9.074,19.069 C9.034,18.491,9.492,18,10.071,18h27.857c0.579,0,1.037,0.491,0.998,1.069l-1.798,25.069C37.056,45.186,36.184,46,35.133,46z"/><path fill="#9a9a9a" d="M40.5,23c-0.829,0-1.5-0.672-1.5-1.5v-1.761C39,11.612,32.388,5,24.261,5h-0.522 C15.612,5,9,11.612,9,19.739V21.5C9,22.328,8.329,23,7.5,23S6,22.328,6,21.5v-1.761C6,9.958,13.958,2,23.739,2h0.522 C34.042,2,42,9.958,42,19.739V21.5C42,22.328,41.329,23,40.5,23z"/><linearGradient id="hJV2EfTvcdT6CJVwy5Xf_b" x1="9" x2="39" y1="21" y2="21" gradientUnits="userSpaceOnUse"><stop offset="0" stop-color="#dedede"/><stop offset="1" stop-color="#d6d6d6"/></linearGradient><path fill="url(#hJV2EfTvcdT6CJVwy5Xf_b)" d="M38,24H10c-0.552,0-1-0.448-1-1v-4c0-0.552,0.448-1,1-1h28c0.552,0,1,0.448,1,1v4 C39,23.552,38.552,24,38,24z"/><linearGradient id="hJV2EfTvcdT6CJVwy5Xf_c" x1="22.52" x2="24.643" y1="28.561" y2="37.091" gradientUnits="userSpaceOnUse"><stop offset="0" stop-color="#f44f5a"/><stop offset=".443" stop-color="#ee3d4a"/><stop offset="1" stop-color="#e52030"/></linearGradient><path fill="url(#hJV2EfTvcdT6CJVwy5Xf_c)" d="M32,37H15c-0.552,0-1-0.448-1-1v-7c0-0.552,0.448-1,1-1h17c0.552,0,1,0.448,1,1v7 C33,36.552,32.552,37,32,37z"/></svg>