<svg xmlns="http://www.w3.org/2000/svg" data-name="Слой 1" viewBox="0 0 48 48"><defs><linearGradient id="G7VFEYBpzAg3dPq5xUW_da" x1="4.815" x2="42.909" y1="4.815" y2="42.909" data-name="Безымянный градиент 79" gradientUnits="userSpaceOnUse"><stop offset="0" stop-color="#faf8e5"/><stop offset="1" stop-color="#faeeac"/></linearGradient><linearGradient id="G7VFEYBpzAg3dPq5xUW_db" x1="8.875" x2="52.998" y1="8.875" y2="52.998" data-name="Безымянный градиент 100" gradientUnits="userSpaceOnUse"><stop offset="0" stop-color="#21ad64"/><stop offset="1" stop-color="#088242"/></linearGradient><linearGradient id="G7VFEYBpzAg3dPq5xUW_dc" x1="8.875" x2="52.998" y1="8.875" y2="52.998" data-name="Безымянный градиент 121" gradientUnits="userSpaceOnUse"><stop offset="0" stop-color="#f44f5a"/><stop offset=".443" stop-color="#ee3d4a"/><stop offset="1" stop-color="#e52030"/></linearGradient></defs><path fill="url(#G7VFEYBpzAg3dPq5xUW_da)" d="M42,8V40a1.97629,1.97629,0,0,1-.28,1.02,1.95614,1.95614,0,0,1-.7.7A1.97723,1.97723,0,0,1,40,42H8a2.00591,2.00591,0,0,1-2-2V8A2.00071,2.00071,0,0,1,8,6H40A2.00587,2.00587,0,0,1,42,8Z"/><path fill="url(#G7VFEYBpzAg3dPq5xUW_db)" d="M41.72,41.02a1.95614,1.95614,0,0,1-.7.7L6.28,6.98a1.95708,1.95708,0,0,1,.7-.7ZM16.7,6H15.3L42,32.7V31.3Zm10,0H25.3L42,22.7V21.3Zm10,0H35.3L42,12.7V11.3ZM6,15.3v1.4L31.3,42h1.4Zm0,10v1.4L21.3,42h1.4Zm0,10v1.4L11.3,42h1.4Z"/><path fill="url(#G7VFEYBpzAg3dPq5xUW_dc)" d="M42,35.58v2.84L9.58,6h2.84ZM6,9.58v2.84L35.58,42h2.84Zm0,10v2.84L25.58,42h2.84Zm0,10v2.84L15.58,42h2.84Zm0,10V40a2.00591,2.00591,0,0,0,2,2h.42ZM22.42,6H19.58L42,28.42V25.58Zm10,0H29.58L42,18.42V15.58ZM40,6h-.42L42,8.42V8A2.00587,2.00587,0,0,0,40,6Z"/></svg>