<svg xmlns="http://www.w3.org/2000/svg" viewBox="0 0 48 48"><linearGradient id="F9TQPO08blZxK7_abZ3fqa" x1="6" x2="42" y1="24" y2="24" gradientUnits="userSpaceOnUse"><stop offset="0" stop-color="#4c4c4c"/><stop offset="1" stop-color="#343434"/></linearGradient><path fill="url(#F9TQPO08blZxK7_abZ3fqa)" d="M34,42H14c-4.411,0-8-3.589-8-8V14c0-4.411,3.589-8,8-8h20c4.411,0,8,3.589,8,8v20 C42,38.411,38.411,42,34,42z"/><path d="M18.524,11h-7.048C9.559,11,8,12.559,8,14.476v4.048c0,1.755,1.308,3.211,3,3.444v1.101 c0,0.993,0.81,1.802,1.806,1.802c0.476,0,0.926-0.188,1.267-0.529L16.414,22h2.11C20.441,22,22,20.441,22,18.524v-4.048 C22,12.559,20.441,11,18.524,11L18.524,11z" opacity=".05"/><path fill="#00838f" d="M24,10c-7.72,0-14,6.28-14,14s6.28,14,14,14s14-6.28,14-14S31.72,10,24,10z M23,16.966 c-0.983-0.052-1.946-0.177-2.869-0.377c0.753-2.184,1.795-3.701,2.869-4.298V16.966z M23,18.965V23h-3.977 c0.059-1.64,0.26-3.146,0.565-4.488C20.687,18.758,21.833,18.908,23,18.965z M23,25v4.035c-1.167,0.057-2.313,0.207-3.412,0.453 c-0.305-1.342-0.506-2.848-0.565-4.488H23z M23,31.034v4.675c-1.074-0.596-2.116-2.114-2.869-4.298 C21.054,31.211,22.017,31.086,23,31.034z M25,31.034c0.983,0.052,1.945,0.177,2.869,0.377c-0.753,2.184-1.795,3.701-2.869,4.297 V31.034z M25,29.034V25h3.977c-0.059,1.636-0.259,3.139-0.563,4.478C27.321,29.235,26.176,29.089,25,29.034z M25,23v-4.034 c1.176-0.055,2.321-0.201,3.414-0.444c0.303,1.339,0.504,2.842,0.563,4.478H25z M25,16.966v-4.675 c1.074,0.596,2.116,2.114,2.869,4.297C26.945,16.788,25.983,16.913,25,16.966z M28.224,12.782c1.397,0.528,2.667,1.306,3.761,2.285 c-0.675,0.38-1.411,0.705-2.193,0.978C29.364,14.787,28.832,13.691,28.224,12.782z M18.208,16.045 c-0.781-0.273-1.518-0.598-2.193-0.978c1.094-0.979,2.364-1.757,3.761-2.285C19.168,13.692,18.636,14.787,18.208,16.045z M17.668,17.968c-0.359,1.537-0.583,3.231-0.644,5.032h-4.974c0.201-2.424,1.124-4.644,2.556-6.446 C15.532,17.118,16.563,17.59,17.668,17.968z M17.024,25c0.061,1.802,0.285,3.495,0.644,5.032c-1.105,0.377-2.136,0.849-3.061,1.414 c-1.432-1.803-2.355-4.022-2.556-6.446H17.024z M18.208,31.955c0.428,1.258,0.96,2.354,1.568,3.263 c-1.397-0.528-2.667-1.307-3.761-2.285C16.69,32.553,17.427,32.228,18.208,31.955z M29.792,31.955 c0.781,0.273,1.518,0.598,2.193,0.978c-1.094,0.979-2.364,1.757-3.761,2.285C28.832,34.309,29.364,33.213,29.792,31.955z M30.334,30.022c0.358-1.534,0.58-3.224,0.641-5.022h4.974c-0.201,2.424-1.124,4.643-2.556,6.445 C32.462,30.873,31.434,30.398,30.334,30.022z M30.976,23c-0.061-1.797-0.284-3.488-0.641-5.022c1.1-0.377,2.128-0.851,3.06-1.423 c1.432,1.802,2.354,4.021,2.556,6.445H30.976z"/><path d="M18.524,11.5h-7.048c-1.641,0-2.976,1.335-2.976,2.976v4.048c0,1.641,1.335,2.976,2.976,2.976H11.5 v1.569c0,0.718,0.586,1.302,1.306,1.302c0.342,0,0.667-0.136,0.913-0.382l2.488-2.488h2.317c1.641,0,2.976-1.335,2.976-2.976 v-4.048C21.5,12.835,20.165,11.5,18.524,11.5L18.524,11.5z" opacity=".07"/><path fill="#eee" d="M18.524,12h-7.048C10.109,12,9,13.109,9,14.476v4.048C9,19.891,10.109,21,11.476,21H12v2.069 c0,0.713,0.862,1.07,1.366,0.566L16,21h2.524C19.891,21,21,19.891,21,18.524v-4.048C21,13.109,19.891,12,18.524,12z"/><path d="M36.524,26h-7.048C27.559,26,26,27.559,26,29.476v4.048C26,35.441,27.559,37,29.476,37h2.11 l2.341,2.341c0.341,0.341,0.791,0.529,1.267,0.529c0.996,0,1.806-0.808,1.806-1.802v-1.101c1.692-0.233,3-1.688,3-3.444v-4.048 C40,27.559,38.441,26,36.524,26L36.524,26z" opacity=".05"/><path d="M36.524,26.5h-7.048c-1.641,0-2.976,1.335-2.976,2.976v4.048c0,1.641,1.335,2.976,2.976,2.976h2.317 l2.488,2.488c0.247,0.247,0.571,0.382,0.913,0.382c0.72,0,1.306-0.584,1.306-1.302V36.5h0.024c1.641,0,2.976-1.335,2.976-2.976 v-4.048C39.5,27.835,38.165,26.5,36.524,26.5L36.524,26.5z" opacity=".07"/><path fill="#37c6d0" d="M36.524,27h-7.048C28.109,27,27,28.109,27,29.476v4.048C27,34.891,28.109,36,29.476,36H32 l2.634,2.634C35.138,39.138,36,38.781,36,38.069V36h0.524C37.891,36,39,34.891,39,33.524v-4.048C39,28.109,37.891,27,36.524,27z"/></svg>