<svg xmlns="http://www.w3.org/2000/svg" viewBox="0 0 48 48"><linearGradient id="~y7H5IldT9DdWF3ONGQVQa" x1="7.101" x2="42.532" y1="7.101" y2="42.532" gradientUnits="userSpaceOnUse"><stop offset="0" stop-color="#33bef0"/><stop offset="1" stop-color="#22a5e2"/></linearGradient><path fill="url(#~y7H5IldT9DdWF3ONGQVQa)" d="M40,6H8C6.895,6,6,6.895,6,8v32c0,1.105,0.895,2,2,2h32c1.105,0,2-0.895,2-2V8	C42,6.895,41.105,6,40,6z"/><path d="M11,39h26c1.105,0,2-0.895,2-2V11c0-1.105-0.895-2-2-2H11c-1.105,0-2,0.895-2,2v26	C9,38.105,9.895,39,11,39z" opacity=".05"/><path d="M11,38.5h26c0.828,0,1.5-0.672,1.5-1.5V11c0-0.828-0.672-1.5-1.5-1.5H11c-0.828,0-1.5,0.672-1.5,1.5	v26C9.5,37.828,10.172,38.5,11,38.5z" opacity=".07"/><radialGradient id="~y7H5IldT9DdWF3ONGQVQb" cx="11.936" cy="9.344" r="25.579" gradientTransform="translate(3.385 3.385) scale(1.0769)" gradientUnits="userSpaceOnUse"><stop offset="0" stop-color="#fafafb"/><stop offset=".293" stop-color="#f6f7f8"/><stop offset=".566" stop-color="#ebecee"/><stop offset=".832" stop-color="#d8dcdf"/><stop offset="1" stop-color="#c8cdd1"/></radialGradient><path fill="url(#~y7H5IldT9DdWF3ONGQVQb)" d="M37,38H11c-0.552,0-1-0.448-1-1V11c0-0.552,0.448-1,1-1h26c0.552,0,1,0.448,1,1v26	C38,37.552,37.552,38,37,38z"/></svg>