<svg xmlns="http://www.w3.org/2000/svg" data-name="Слой 1" viewBox="0 0 48 48"><path fill="#0c52bb" d="M44,35.97836V33.98569H40.125L24.27991,28.08981a.80248.80248,0,0,0-.55982,0L7.875,33.98569H4v1.99267a.789.789,0,0,0,.52173.75959l17.1228,6.81079a6.37313,6.37313,0,0,0,4.71094,0L43.47827,36.738A.789.789,0,0,0,44,35.97836Z"/><path fill="#3079d6" d="M43.47827,33.17966,24.27991,26.036a.80315.80315,0,0,0-.55982,0L4.52173,33.17966a.80263.80263,0,0,0,0,1.50451L21.64453,41.495a6.373,6.373,0,0,0,4.71094,0l17.1228-6.81079A.80263.80263,0,0,0,43.47827,33.17966Z"/><path fill="#42a4ed" d="M13,5.98569H35a2,2,0,0,1,2,2v25.5a0,0,0,0,1,0,0H11a0,0,0,0,1,0,0v-25.5A2,2,0,0,1,13,5.98569Z"/><path fill="#35c1f1" d="M11,31.98569H37a0,0,0,0,1,0,0v2a1,1,0,0,1-1,1H12a1,1,0,0,1-1-1v-2A0,0,0,0,1,11,31.98569Z"/><circle cx="19.026" cy="10.986" r="2" fill="#3079d6"/><circle cx="29" cy="10.986" r="2" fill="#3079d6"/><path d="M29,9.98584a1,1,0,0,1,1,1v2a5.74059,5.74059,0,0,1-6,6,5.74059,5.74059,0,0,1-6-6v-2a1,1,0,0,1,2,0v2a3.74856,3.74856,0,0,0,4,4,3.74856,3.74856,0,0,0,4-4v-2a1,1,0,0,1,1-1m0-1a2.00227,2.00227,0,0,0-2,2v2a2.75664,2.75664,0,0,1-3,3,2.75664,2.75664,0,0,1-3-3v-2a2,2,0,0,0-4,0v2a6.7704,6.7704,0,0,0,7,7,6.7704,6.7704,0,0,0,7-7v-2a2.00227,2.00227,0,0,0-2-2Z" opacity=".05"/><path d="M29,9.98584a1,1,0,0,1,1,1v2a5.74059,5.74059,0,0,1-6,6,5.74059,5.74059,0,0,1-6-6v-2a1,1,0,0,1,2,0v2a3.74856,3.74856,0,0,0,4,4,3.74856,3.74856,0,0,0,4-4v-2a1,1,0,0,1,1-1m0-.5a1.5017,1.5017,0,0,0-1.5,1.5v2a3.24733,3.24733,0,0,1-3.5,3.5,3.24733,3.24733,0,0,1-3.5-3.5v-2a1.5,1.5,0,0,0-3,0v2a6.219,6.219,0,0,0,6.5,6.5,6.219,6.219,0,0,0,6.5-6.5v-2a1.5017,1.5017,0,0,0-1.5-1.5Z" opacity=".07"/><path fill="#fff" d="M24,18.98584a5.74059,5.74059,0,0,1-6-6v-2a1,1,0,0,1,2,0v2a3.74856,3.74856,0,0,0,4,4,3.74856,3.74856,0,0,0,4-4v-2a1,1,0,1,1,2,0v2A5.74059,5.74059,0,0,1,24,18.98584Z"/></svg>