<svg xmlns="http://www.w3.org/2000/svg" viewBox="0 0 48 48"><linearGradient id="4aQSF3KYsmAUlEZ8JzDHGa" x1="20.375" x2="28.748" y1="1365.061" y2="1394.946" gradientTransform="translate(0 -1354)" gradientUnits="userSpaceOnUse"><stop offset="0" stop-color="#00b3ee"/><stop offset="1" stop-color="#0082d8"/></linearGradient><path fill="url(#4aQSF3KYsmAUlEZ8JzDHGa)" d="M43.125,9H4.875C3.287,9,2,10.287,2,11.875v24.25C2,37.713,3.287,39,4.875,39h38.25	C44.713,39,46,37.713,46,36.125v-24.25C46,10.287,44.713,9,43.125,9z"/><path d="M23.778,27.981c-0.827,0-1.5-0.673-1.5-1.5V26.44l-0.309,0.669c-0.244,0.529-0.779,0.872-1.362,0.872	h-0.917c-0.593,0-1.131-0.35-1.371-0.892l-0.254-0.572c-0.019,0.811-0.684,1.464-1.5,1.464h-2.638c-0.596,0-1.135-0.353-1.374-0.898	l-0.289-0.66h-2.12l-0.28,0.651c-0.238,0.551-0.779,0.907-1.378,0.907H7.383c-0.689,0-1.25-0.561-1.25-1.25v-0.055l0.012-0.12	L6.179,26.4l2.84-6.503C9.261,19.352,9.8,19,10.394,19h1.623c0.59,0,1.127,0.348,1.369,0.887l0.958,2.146V20.5	c0-0.827,0.673-1.5,1.5-1.5h1.872c0.589,0,1.126,0.347,1.368,0.885l1.061,2.362l1.067-2.363C21.453,19.347,21.99,19,22.578,19H24.5	c0.827,0,1.5,0.673,1.5,1.5v5.981c0,0.827-0.673,1.5-1.5,1.5H23.778z" opacity=".05"/><path d="M23.778,27.481c-0.551,0-1-0.449-1-1v-2.318L21.515,26.9c-0.163,0.353-0.519,0.581-0.908,0.581	h-0.917c-0.395,0-0.754-0.233-0.914-0.595l-1.21-2.729v2.324c0,0.551-0.449,1-1,1h-2.638c-0.397,0-0.757-0.235-0.916-0.599	l-0.42-0.959H9.815l-0.41,0.954c-0.159,0.367-0.519,0.604-0.919,0.604H7.383c-0.414,0-0.75-0.336-0.75-0.75v-0.067l0.035-0.156	l2.81-6.411c0.161-0.363,0.52-0.598,0.916-0.598h1.623c0.394,0,0.751,0.232,0.913,0.591l1.915,4.288V20.5c0-0.551,0.449-1,1-1h1.872	c0.393,0,0.751,0.231,0.912,0.59l1.516,3.375l1.523-3.376c0.162-0.358,0.52-0.589,0.912-0.589H24.5c0.551,0,1,0.449,1,1v5.981	c0,0.551-0.449,1-1,1H23.778z M11.463,23.415l-0.293-0.671l-0.282,0.671H11.463z" opacity=".07"/><path fill="#fff" d="M24.5,20h-1.922c-0.197,0-0.375,0.115-0.456,0.294l-1.98,4.389l-1.97-4.388	C18.091,20.116,17.912,20,17.715,20h-1.871c-0.276,0-0.5,0.224-0.5,0.5v6.226l-2.871-6.43C12.393,20.116,12.214,20,12.017,20h-1.623	c-0.198,0-0.378,0.117-0.458,0.299L7.15,26.64c0,0-0.017,0.063-0.017,0.091c0,0.138,0.112,0.25,0.25,0.25v0h1.103	c0.2,0,0.38-0.119,0.459-0.302l0.541-1.256h3.432l0.551,1.258c0.08,0.182,0.259,0.299,0.458,0.299h2.638c0.276,0,0.5-0.224,0.5-0.5	v-4.685l2.167,4.888c0.08,0.181,0.259,0.297,0.457,0.297h0.918c0.195,0,0.372-0.113,0.454-0.29l2.217-4.805v4.595	c0,0.276,0.224,0.5,0.5,0.5H24.5c0.276,0,0.5-0.224,0.5-0.5V20.5C25,20.224,24.776,20,24.5,20z M10.135,23.915l1.026-2.44	l1.066,2.44H10.135z"/><path d="M38.994,28c-0.433,0-0.844-0.187-1.129-0.512l-1.15-1.313l-1.189,1.313	c-0.283,0.313-0.688,0.494-1.112,0.494H28.5c-0.827,0-1.5-0.673-1.5-1.5V20.5c0-0.827,0.673-1.5,1.5-1.5h6.811l1.494,1.69	l1.31-1.422l0.099-0.042c0.145-0.119,0.405-0.207,0.679-0.207h1.541c0.689,0,1.25,0.561,1.25,1.25c0,0.204-0.052,0.509-0.302,0.804	l-2.16,2.36l2.561,2.97l-0.103,0.24c0.003,0.036,0.005,0.072,0.005,0.107c0,0.689-0.561,1.25-1.25,1.25H38.994z" opacity=".05"/><path d="M38.994,27.5c-0.289,0-0.563-0.125-0.752-0.341l-1.521-1.736l-1.566,1.73	c-0.188,0.209-0.459,0.329-0.741,0.329H28.5c-0.551,0-1-0.449-1-1V20.5c0-0.551,0.449-1,1-1h6.585l1.711,1.936l1.612-1.75	l0.033-0.014c0.13-0.099,0.286-0.153,0.45-0.153h1.541c0.414,0,0.75,0.336,0.75,0.75c0,0.121-0.032,0.302-0.184,0.481l-2.447,2.673	l2.647,3.069l-0.037,0.085c0.014,0.056,0.021,0.114,0.021,0.172c0,0.414-0.336,0.75-0.75,0.75H38.994z M33.507,25.016l0.347-0.381	h-3.638v0.381H33.507z M34.055,24.415l0.916-1.005l-0.916-1.026V24.415z M33.991,22.312l-0.265-0.296l-3.51-0.01v0.307H33.991z" opacity=".07"/><path fill="#fff" d="M40.615,26.586l0.001-0.003l-2.734-3.169l2.734-2.986c0.037-0.044,0.066-0.097,0.066-0.159	c0-0.138-0.112-0.25-0.25-0.25c-0.007,0-1.538,0-1.541,0c-0.072,0-0.135,0.033-0.18,0.082l-0.007,0.003l-1.916,2.079L34.86,20H28.5	c-0.276,0-0.5,0.224-0.5,0.5v5.982c0,0.276,0.224,0.5,0.5,0.5h5.913c0.141,0,0.276-0.06,0.371-0.164l1.943-2.147l1.891,2.158	C38.713,26.938,38.85,27,38.994,27h1.44c0.138,0,0.25-0.112,0.25-0.25C40.683,26.686,40.655,26.63,40.615,26.586z M33.728,25.516	h-4.011v-1.381h3.838v-1.323h-3.838v-1.308l4.234,0.012l1.693,1.897L33.728,25.516z"/></svg>