<svg xmlns="http://www.w3.org/2000/svg" viewBox="0 0 48 48"><linearGradient id="H94ZXyPGkr3qaUObhBWXWa" x1="24" x2="24" y1="9.813" y2="17.135" gradientUnits="userSpaceOnUse"><stop offset=".002" stop-color="#f44f78"/><stop offset=".397" stop-color="#e4305d"/><stop offset=".763" stop-color="#d81b4a"/><stop offset="1" stop-color="#d41343"/></linearGradient><circle cx="24" cy="15" r="5" fill="url(#H94ZXyPGkr3qaUObhBWXWa)"/><linearGradient id="H94ZXyPGkr3qaUObhBWXWb" x1="11.75" x2="16.486" y1="14.75" y2="19.486" gradientUnits="userSpaceOnUse"><stop offset="0" stop-color="#faa0bd"/><stop offset="1" stop-color="#fa67a6"/></linearGradient><circle cx="16" cy="19" r="5" fill="url(#H94ZXyPGkr3qaUObhBWXWb)"/><linearGradient id="H94ZXyPGkr3qaUObhBWXWc" x1="35.75" x2="31.005" y1="15.25" y2="19.995" gradientUnits="userSpaceOnUse"><stop offset="0" stop-color="#faa0bd"/><stop offset="1" stop-color="#fa67a6"/></linearGradient><circle cx="32" cy="19" r="5" fill="url(#H94ZXyPGkr3qaUObhBWXWc)"/><linearGradient id="H94ZXyPGkr3qaUObhBWXWd" x1="24" x2="24" y1="13.563" y2="19.948" gradientUnits="userSpaceOnUse"><stop offset="0" stop-color="#faa0bd"/><stop offset="1" stop-color="#fa67a6"/></linearGradient><circle cx="24" cy="20" r="5" fill="url(#H94ZXyPGkr3qaUObhBWXWd)"/><linearGradient id="H94ZXyPGkr3qaUObhBWXWe" x1="5.375" x2="42.938" y1="31" y2="31" gradientUnits="userSpaceOnUse"><stop offset="0" stop-color="#faf8e5"/><stop offset="1" stop-color="#faeeac"/></linearGradient><rect width="36" height="16" x="6" y="23" fill="url(#H94ZXyPGkr3qaUObhBWXWe)"/><linearGradient id="H94ZXyPGkr3qaUObhBWXWf" x1="5.375" x2="42.938" y1="41" y2="41" gradientUnits="userSpaceOnUse"><stop offset="0" stop-color="#d4943b"/><stop offset="1" stop-color="#c2620e"/><stop offset="1" stop-color="#c2620e"/></linearGradient><path fill="url(#H94ZXyPGkr3qaUObhBWXWf)" d="M42,39c0,2.21-1.79,4-4,4H8c-1.1,0-2-0.9-2-2v-2H42z"/><linearGradient id="H94ZXyPGkr3qaUObhBWXWg" x1="5.375" x2="42.938" y1="21" y2="21" gradientUnits="userSpaceOnUse"><stop offset="0" stop-color="#a34f27"/><stop offset=".587" stop-color="#8b3817"/><stop offset="1" stop-color="#802d10"/></linearGradient><path fill="url(#H94ZXyPGkr3qaUObhBWXWg)" d="M42,23H6v-2c0-1.1,0.9-2,2-2h30C40.21,19,42,20.79,42,23z"/><linearGradient id="H94ZXyPGkr3qaUObhBWXWh" x1="5.375" x2="42.938" y1="31.5" y2="31.5" gradientUnits="userSpaceOnUse"><stop offset=".002" stop-color="#f44f78"/><stop offset=".397" stop-color="#e4305d"/><stop offset=".763" stop-color="#d81b4a"/><stop offset="1" stop-color="#d41343"/></linearGradient><path fill="url(#H94ZXyPGkr3qaUObhBWXWh)" d="M6,26v8h5v1c0,1.105,0.895,2,2,2s2-0.895,2-2v-1h14v1c0,0.552,0.448,1,1,1s1-0.448,1-1v-1	c0-0.552,0.448-1,1-1s1,0.448,1,1v1.5c0,0.828,0.672,1.5,1.5,1.5s1.5-0.672,1.5-1.5V34h6v-8H6z"/></svg>