<svg xmlns="http://www.w3.org/2000/svg" viewBox="0 0 48 48"><linearGradient id="jYVeK0vm37CK_d0RDI9oza" x1="38.375" x2="38.375" y1="8.758" y2="52.428" gradientUnits="userSpaceOnUse"><stop offset="0" stop-color="#2aa4f4"/><stop offset="1" stop-color="#007ad9"/></linearGradient><path fill="url(#jYVeK0vm37CK_d0RDI9oza)" d="M43,12.567v29.47c0,1.1-0.9,2-2,2h-7l-0.25-32.02l2-1.6l4.25-3.4l2.71,4.52	c0.09,0.15,0.16,0.31,0.21,0.48C42.97,12.197,43,12.377,43,12.567z"/><linearGradient id="jYVeK0vm37CK_d0RDI9ozb" x1="20.809" x2="35.985" y1="3.016" y2="42.663" gradientUnits="userSpaceOnUse"><stop offset="0" stop-color="#32bdef"/><stop offset="1" stop-color="#1ea2e4"/></linearGradient><path fill="url(#jYVeK0vm37CK_d0RDI9ozb)" d="M40,4.017v3l-2.72,4.53c-0.09,0.15-0.15,0.31-0.2,0.47c-0.05,0.18-0.08,0.36-0.08,0.55v29.45	c0,1.1-0.9,2-2,2H19c-1.1,0-2-0.9-2-2v-29.3c0-0.24,0.04-0.48,0.13-0.7c0.07-0.2,0.17-0.38,0.31-0.55L21,7.017v-3c0-0.55,0.45-1,1-1	h17C39.55,3.017,40,3.467,40,4.017z"/><linearGradient id="jYVeK0vm37CK_d0RDI9ozc" x1="28.565" x2="28.565" y1="4.605" y2="19.139" gradientUnits="userSpaceOnUse"><stop offset="0" stop-color="#a8e2f7"/><stop offset="1" stop-color="#47c1ff"/></linearGradient><path fill="url(#jYVeK0vm37CK_d0RDI9ozc)" d="M40,7.017l-2.72,4.53c-0.09,0.15-0.15,0.31-0.2,0.47H17.13c0.07-0.2,0.17-0.38,0.31-0.55	L21,7.017H40z"/><path fill="#f09801" d="M29.977,46.017c-0.256,0-0.512-0.098-0.707-0.293L10.451,26.904c-0.391-0.391-0.391-1.023,0-1.414 s1.023-0.391,1.414,0L30.684,44.31c0.391,0.391,0.391,1.023,0,1.414C30.489,45.919,30.233,46.017,29.977,46.017z"/><linearGradient id="jYVeK0vm37CK_d0RDI9ozd" x1="23.721" x2="-16.145" y1="40.334" y2="80.2" gradientTransform="matrix(-1.0294 -.0294 .0294 1.0294 37.824 -11.177)" gradientUnits="userSpaceOnUse"><stop offset="0" stop-color="#fed100"/><stop offset=".477" stop-color="#f2ad00"/><stop offset="1" stop-color="#e38101"/></linearGradient><path fill="url(#jYVeK0vm37CK_d0RDI9ozd)" d="M5.438,24.278C3.22,22.061,2.27,19.416,3.315,18.37s3.69-0.095,5.908,2.122 s3.168,4.863,2.122,5.908C10.3,27.446,7.655,26.496,5.438,24.278z"/><path fill="#f09801" d="M2.249,26.506c2.536-2.541,6.647-2.541,9.182,0c-2.536-2.541-2.536-6.661,0-9.202 c0.362-0.363,0.95-0.363,1.312,0l0.597,0.657c2.667,2.672,4.269,8.927,1.371,11.831s-9.255,1.182-11.806-1.374l-0.656-0.598 C1.886,27.458,1.886,26.869,2.249,26.506z"/><linearGradient id="jYVeK0vm37CK_d0RDI9oze" x1="34.48" x2="-8.044" y1="29.587" y2="72.111" gradientTransform="matrix(-1 0 0 1 49 0)" gradientUnits="userSpaceOnUse"><stop offset="0" stop-color="#fed100"/><stop offset=".477" stop-color="#f2ad00"/><stop offset="1" stop-color="#e38101"/></linearGradient><path fill="url(#jYVeK0vm37CK_d0RDI9oze)" d="M5.818,30.075c2.536-2.541,6.647-2.541,9.182,0c-2.536-2.541-2.536-6.661,0-9.202 c0.362-0.363,0.95-0.363,1.312,0l0.597,0.657c2.667,2.672,4.269,8.927,1.371,11.831c-2.898,2.904-9.255,1.182-11.806-1.374 L5.818,31.39C5.455,31.027,5.455,30.438,5.818,30.075z"/><path fill="#f09801" d="M9.387,33.644c2.536-2.541,6.647-2.541,9.182,0c-2.536-2.541-2.536-6.661,0-9.202 c0.362-0.363,0.95-0.363,1.312,0l0.597,0.657c2.667,2.672,4.269,8.927,1.371,11.831c-2.898,2.904-9.255,1.182-11.806-1.374 l-0.656-0.598C9.025,34.596,9.025,34.007,9.387,33.644z"/><linearGradient id="jYVeK0vm37CK_d0RDI9ozf" x1="34.956" x2="-7.568" y1="29.111" y2="71.635" gradientTransform="matrix(-1 0 0 1 49 0)" gradientUnits="userSpaceOnUse"><stop offset="0" stop-color="#fed100"/><stop offset=".477" stop-color="#f2ad00"/><stop offset="1" stop-color="#e38101"/></linearGradient><path fill="url(#jYVeK0vm37CK_d0RDI9ozf)" d="M12.956,37.213c2.536-2.541,6.647-2.541,9.182,0c-2.536-2.541-2.536-6.661,0-9.202 c0.362-0.363,0.95-0.363,1.312,0l0.597,0.657c2.667,2.672,4.269,8.927,1.371,11.831c-2.898,2.904-9.255,1.182-11.806-1.374 l-0.656-0.598C12.594,38.165,12.594,37.576,12.956,37.213z"/><g><path d="M31.39,43.607l-4.11-4.11c1.61-3.54,0.08-8.92-2.53-11.53l-0.56-0.63c-0.37-0.37-0.83-0.57-1.31-0.59 c-0.5-0.92-1.07-1.73-1.69-2.35l-0.57-0.63c-0.37-0.37-0.83-0.57-1.31-0.59c-0.49-0.92-1.07-1.73-1.69-2.35l-0.57-0.63 c-0.02-0.02-0.03-0.03-0.05-0.04v1.47c0.68,0.71,1.28,1.65,1.75,2.69c0.15-0.09,0.33-0.14,0.5-0.14c0.23,0,0.45,0.09,0.63,0.27 l0.6,0.65c0.71,0.72,1.35,1.7,1.84,2.79c0.15-0.09,0.33-0.14,0.5-0.14c0.23,0,0.45,0.09,0.63,0.26l0.6,0.66 c2.44,2.45,3.97,7.88,2,11.01l4.34,4.34h1.31C31.62,43.867,31.51,43.727,31.39,43.607z M21.13,42.007c-1.37,0-2.82-0.31-4.13-0.81 v0.82c0,0.09,0.01,0.18,0.02,0.26c1.33,0.46,2.76,0.73,4.11,0.73c1.26,0,2.38-0.22,3.34-0.67l1.68,1.68h1.41l-2.91-2.91 C23.66,41.737,22.43,42.007,21.13,42.007z" opacity=".05"/><path d="M31.04,43.957l-4.36-4.36c1.77-3.34,0.29-8.7-2.28-11.28l-0.58-0.64c-0.28-0.28-0.63-0.43-1-0.43 c-0.08,0-0.16,0.01-0.24,0.02c-0.5-1-1.1-1.87-1.75-2.52l-0.58-0.64c-0.28-0.28-0.63-0.43-1-0.43c-0.08,0-0.16,0.01-0.24,0.02 c-0.5-1-1.1-1.87-1.75-2.52L17,20.887v0.74c0.68,0.71,1.28,1.65,1.75,2.69c0.15-0.09,0.33-0.14,0.5-0.14 c0.23,0,0.45,0.09,0.63,0.27l0.6,0.65c0.71,0.72,1.35,1.7,1.84,2.79c0.15-0.09,0.33-0.14,0.5-0.14c0.23,0,0.45,0.09,0.63,0.26 l0.6,0.66c2.44,2.45,3.97,7.88,2,11.01l4.34,4.34h0.7C31.08,43.997,31.06,43.977,31.04,43.957z M21.13,42.007 c-1.37,0-2.82-0.31-4.13-0.81v0.54c1.33,0.49,2.77,0.77,4.13,0.77c1.33,0,2.48-0.26,3.44-0.78l2.29,2.29h0.7l-2.91-2.91 C23.66,41.737,22.43,42.007,21.13,42.007z" opacity=".07"/></g></svg>