<svg xmlns="http://www.w3.org/2000/svg" viewBox="0 0 48 48"><radialGradient id="lREPnsFV4t8Rnbu0fpgJja" cx="23.931" cy="-138.025" r="16.39" gradientTransform="matrix(.9972 0 0 -1 .06 -110)" gradientUnits="userSpaceOnUse"><stop offset="0" stop-color="#859098"/><stop offset=".411" stop-color="#838e96"/><stop offset=".582" stop-color="#7d8790"/><stop offset=".708" stop-color="#707d83"/><stop offset=".812" stop-color="#5c6b74"/><stop offset=".882" stop-color="#4a5b63"/></radialGradient><path fill="url(#lREPnsFV4t8Rnbu0fpgJja)" d="M40.105,28l-2.823-2.737C37.393,25.798,36.543,26,36,26h-4c-0.348,0-1.482,0.087-1.592-0.244	C29.484,23.104,26.967,21.2,24,21.2s-5.484,1.904-6.408,4.556C17.482,26.087,16.348,26,16,26h-4c-0.543,0-1.393-0.202-1.283-0.737	L7.895,28l2.823,2.728C10.607,30.202,11.457,30,12,30h4c0.348,0,1.482-0.087,1.592,0.244c0.678,1.947,2.221,3.493,4.17,4.174	C22.093,34.528,22,35.643,22,36v4c0,0.535-0.195,1.43-0.721,1.319L24,44.15l2.721-2.831C26.195,41.43,26,40.535,26,40v-4	c0-0.357-0.093-1.472,0.238-1.582c1.95-0.68,3.492-2.227,4.17-4.174C30.518,29.913,31.652,30,32,30h4	c0.543,0,1.393,0.202,1.283,0.728L40.105,28z"/><path fill="#645348" d="M24,11c-9.375,0-17,7.625-17,17s7.625,17,17,17s17-7.625,17-17S33.375,11,24,11z M24,41.6	c-6.919,0-12.656-5.202-13.49-11.9C10.434,29.148,10.4,28.578,10.4,28s0.034-1.148,0.111-1.7c0.833-6.698,6.57-11.9,13.49-11.9	s12.656,5.202,13.489,11.9c0.076,0.552,0.111,1.122,0.111,1.7s-0.034,1.148-0.111,1.7C36.656,36.398,30.919,41.6,24,41.6z"/><radialGradient id="lREPnsFV4t8Rnbu0fpgJjb" cx="24" cy="-138" r="5.1" gradientTransform="matrix(1 0 0 -1 0 -110)" gradientUnits="userSpaceOnUse"><stop offset=".582" stop-opacity=".2"/><stop offset="1" stop-opacity="0"/></radialGradient><circle cx="24" cy="28" r="5.1" fill="url(#lREPnsFV4t8Rnbu0fpgJjb)"/><linearGradient id="lREPnsFV4t8Rnbu0fpgJjc" x1="21.875" x2="26.125" y1="-134.319" y2="-141.681" gradientTransform="matrix(1 0 0 -1 0 -110)" gradientUnits="userSpaceOnUse"><stop offset="0" stop-color="#f9f9fa"/><stop offset="1" stop-color="#c6cdd1"/></linearGradient><circle cx="24" cy="28" r="4.25" fill="url(#lREPnsFV4t8Rnbu0fpgJjc)"/><circle cx="24" cy="28" r="2.55" fill="#464646"/><path fill="#d68c00" d="M31,16.359H17v1.886C17,18.662,17.313,19,17.7,19h12.6c0.387,0,0.7-0.338,0.7-0.755V16.359z"/><linearGradient id="lREPnsFV4t8Rnbu0fpgJjd" x1="24" x2="24" y1="1.401" y2="8.423" gradientUnits="userSpaceOnUse"><stop offset=".503" stop-color="#9eabb4"/><stop offset=".658" stop-color="#9ba8b0"/><stop offset=".796" stop-color="#919da6"/><stop offset=".928" stop-color="#818c93"/><stop offset="1" stop-color="#768085"/></linearGradient><path fill="url(#lREPnsFV4t8Rnbu0fpgJjd)" d="M19.45,7.305v1.132h1.4V7.305c0-1.875,1.41-3.395,3.15-3.395l0,0c1.74,0,3.15,1.52,3.15,3.395	v1.132h1.4V7.305C28.55,4.596,26.513,2.4,24,2.4l0,0C21.487,2.4,19.45,4.596,19.45,7.305z"/><path fill="#ffd500" d="M31,11.077H17V9.191c0-0.417,0.313-0.755,0.7-0.755h12.6c0.387,0,0.7,0.338,0.7,0.755V11.077z"/><rect width="14" height="2.641" x="17" y="11.077" fill="#fcbe00"/><rect width="14" height="2.641" x="17" y="13.718" fill="#f6a600"/><linearGradient id="lREPnsFV4t8Rnbu0fpgJje" x1="23.94" x2="23.94" y1="12.022" y2="15.599" gradientUnits="userSpaceOnUse"><stop offset="0" stop-color="#4a4a4a"/><stop offset="1" stop-color="#383838"/></linearGradient><path fill="url(#lREPnsFV4t8Rnbu0fpgJje)" d="M24.94,13.022c0-0.552-0.448-1-1-1c-0.552,0-1,0.448-1,1c0,0.357,0.197,0.655,0.478,0.832	v1.245c0,0.276,0.224,0.5,0.5,0.5s0.5-0.224,0.5-0.5v-1.216C24.724,13.713,24.94,13.398,24.94,13.022z"/></svg>