<svg xmlns="http://www.w3.org/2000/svg" viewBox="0 0 48 48"><linearGradient id="ViI9oKguA9yX9NitiWP21a" x1="6.397" x2="20.866" y1="28" y2="28" gradientUnits="userSpaceOnUse"><stop offset="0" stop-color="#a1aab3"/><stop offset="1" stop-color="#8f979e"/></linearGradient><path fill="url(#ViI9oKguA9yX9NitiWP21a)" d="M21,34h-6v0c0,1.657-1.343,3-3,3h0v0c0,2.761-2.239,5-5,5h0V20c0-3.314,2.686-6,6-6h2.343	c1.061,0,2.078,0.421,2.828,1.172L21,18V34z"/><linearGradient id="ViI9oKguA9yX9NitiWP21b" x1="41.321" x2="27.136" y1="28" y2="28" gradientUnits="userSpaceOnUse"><stop offset="0" stop-color="#a1aab3"/><stop offset="1" stop-color="#8f979e"/></linearGradient><path fill="url(#ViI9oKguA9yX9NitiWP21b)" d="M27,34h6v0c0,1.657,1.343,3,3,3h0v0c0,2.761,2.239,5,5,5h0V20c0-3.314-2.686-6-6-6h-2.343	c-1.061,0-2.078,0.421-2.828,1.172L27,18V34z"/><linearGradient id="ViI9oKguA9yX9NitiWP21c" x1="29.298" x2="29.298" y1="16.196" y2="25.522" gradientUnits="userSpaceOnUse"><stop offset="0" stop-color="#dfe9f2"/><stop offset=".391" stop-color="#d6e0e9"/><stop offset="1" stop-color="#bfc8d1"/></linearGradient><path fill="url(#ViI9oKguA9yX9NitiWP21c)" d="M24,16l6,9l4.596-2.205L30.8,18.186C29.66,16.802,27.961,16,26.168,16H24z"/><linearGradient id="ViI9oKguA9yX9NitiWP21d" x1="18.702" x2="18.702" y1="16.196" y2="25.522" gradientUnits="userSpaceOnUse"><stop offset="0" stop-color="#dfe9f2"/><stop offset=".391" stop-color="#d6e0e9"/><stop offset="1" stop-color="#bfc8d1"/></linearGradient><path fill="url(#ViI9oKguA9yX9NitiWP21d)" d="M24,16l-6,9l-4.596-2.205l3.796-4.609C18.34,16.802,20.039,16,21.832,16H24z"/><linearGradient id="ViI9oKguA9yX9NitiWP21e" x1="22.803" x2="25.664" y1="6.713" y2="14.572" gradientUnits="userSpaceOnUse"><stop offset="0" stop-color="#ffcf54"/><stop offset=".261" stop-color="#fdcb4d"/><stop offset=".639" stop-color="#f7c13a"/><stop offset="1" stop-color="#f0b421"/></linearGradient><path fill="url(#ViI9oKguA9yX9NitiWP21e)" d="M24,14c-2.2,0-4-1.8-4-4s1.8-4,4-4s4,1.8,4,4S26.2,14,24,14"/><linearGradient id="ViI9oKguA9yX9NitiWP21f" x1="24" x2="24" y1="15.27" y2="52.05" gradientUnits="userSpaceOnUse"><stop offset="0" stop-color="#dfe9f2"/><stop offset=".391" stop-color="#d6e0e9"/><stop offset="1" stop-color="#bfc8d1"/></linearGradient><path fill="url(#ViI9oKguA9yX9NitiWP21f)" d="M24,16L24,16c-2.869,0-5.301,2.185-5.707,5.127l-3.284,22.737C14.926,44.464,15.393,45,16,45	h16c0.607,0,1.074-0.536,0.991-1.137l-3.284-22.737C29.301,18.185,26.869,16,24,16z"/><linearGradient id="ViI9oKguA9yX9NitiWP21g" x1="24" x2="24" y1="39.087" y2="26.384" gradientUnits="userSpaceOnUse"><stop offset=".503" stop-color="#a1aab3"/><stop offset=".658" stop-color="#9ea7af"/><stop offset=".796" stop-color="#949da5"/><stop offset=".928" stop-color="#848c92"/><stop offset="1" stop-color="#787f85"/></linearGradient><polygon fill="url(#ViI9oKguA9yX9NitiWP21g)" points="26,27 22,27 22,44 24,47 26,44"/><path fill="#64717c" d="M25,27h-2v-6c0-0.552,0.448-1,1-1h0c0.552,0,1,0.448,1,1V27z"/><linearGradient id="ViI9oKguA9yX9NitiWP21h" x1="24.454" x2="18.09" y1="23.5" y2="23.5" gradientUnits="userSpaceOnUse"><stop offset="0" stop-color="#ffcf54"/><stop offset=".261" stop-color="#fdcb4d"/><stop offset=".639" stop-color="#f7c13a"/><stop offset="1" stop-color="#f0b421"/></linearGradient><rect width="8" height="3" x="20" y="22" fill="url(#ViI9oKguA9yX9NitiWP21h)"/><linearGradient id="ViI9oKguA9yX9NitiWP21i" x1="27.429" x2="23.003" y1="23.5" y2="23.5" gradientUnits="userSpaceOnUse"><stop offset="0" stop-color="#ffcf54"/><stop offset=".261" stop-color="#fdcb4d"/><stop offset=".639" stop-color="#f7c13a"/><stop offset="1" stop-color="#f0b421"/></linearGradient><path fill="url(#ViI9oKguA9yX9NitiWP21i)" d="M27,25h-2.5c-0.828,0-1.5-0.672-1.5-1.5v0c0-0.828,0.672-1.5,1.5-1.5H27V25z"/><linearGradient id="ViI9oKguA9yX9NitiWP21j" x1="24.739" x2="8.422" y1="24" y2="24" gradientUnits="userSpaceOnUse"><stop offset="0" stop-color="#dfe9f2"/><stop offset=".391" stop-color="#d6e0e9"/><stop offset="1" stop-color="#bfc8d1"/></linearGradient><path fill="url(#ViI9oKguA9yX9NitiWP21j)" d="M15,26h6v-4h-6c-1.105,0-2,0.895-2,2v0C13,25.105,13.895,26,15,26z"/><linearGradient id="ViI9oKguA9yX9NitiWP21k" x1="23.484" x2="38.38" y1="24" y2="24" gradientUnits="userSpaceOnUse"><stop offset="0" stop-color="#dfe9f2"/><stop offset=".391" stop-color="#d6e0e9"/><stop offset="1" stop-color="#bfc8d1"/></linearGradient><path fill="url(#ViI9oKguA9yX9NitiWP21k)" d="M33,26h-6v-4h6c1.105,0,2,0.895,2,2v0C35,25.105,34.105,26,33,26z"/><path fill="#64717c" d="M26.5,28h-5c-0.276,0-0.5-0.224-0.5-0.5s0.224-0.5,0.5-0.5h5c0.276,0,0.5,0.224,0.5,0.5	S26.776,28,26.5,28z"/><path fill="#ffe44a" d="M24,8c-3.042,0-5.25-1.262-5.25-3S20.958,2,24,2s5.25,1.262,5.25,3S27.042,8,24,8z M24,4	c-2.114,0-3.196,0.764-3.251,1.006C20.804,5.236,21.886,6,24,6c2.096,0,3.177-0.75,3.249-1C27.177,4.75,26.096,4,24,4z"/><path d="M35.39,22.19l-3.82-4.64c-0.64-0.78-1.42-1.4-2.3-1.82l-0.76,0.76c0.88,0.36,1.67,0.94,2.29,1.7l3.79,4.61 C34.84,23.13,35,23.55,35,24c0,1.1-0.9,2-2,2h-2.59l1.16,8h1.01l-1.01-7H33c1.65,0,3-1.35,3-3C36,23.35,35.79,22.72,35.39,22.19z M18.73,15.73c-0.88,0.42-1.66,1.04-2.3,1.82l-3.79,4.61C12.21,22.72,12,23.35,12,24c0,1.65,1.35,3,3,3h1.43l-1.01,7h1.01l1.16-8 H15c-1.1,0-2-0.9-2-2c0-0.45,0.16-0.87,0.41-1.2l3.79-4.61c0.62-0.76,1.41-1.34,2.29-1.7L18.73,15.73z" opacity=".05"/><path d="M34.99,22.5l-3.8-4.63c-0.63-0.77-1.42-1.37-2.29-1.77l-0.39,0.39c0.88,0.36,1.67,0.94,2.29,1.7l3.79,4.61 C34.84,23.13,35,23.55,35,24c0,1.1-0.9,2-2,2h-2.59l1.16,8h0.5l-1.08-7.5H33c1.38,0,2.5-1.12,2.5-2.5 C35.5,23.46,35.32,22.94,34.99,22.5z M16.81,17.87l-3.79,4.61c-0.34,0.46-0.52,0.98-0.52,1.52c0,1.38,1.12,2.5,2.5,2.5h2.01 L15.93,34h0.5l1.16-8H15c-1.1,0-2-0.9-2-2c0-0.45,0.16-0.87,0.41-1.2l3.79-4.61c0.62-0.76,1.41-1.34,2.29-1.7L19.1,16.1 C18.23,16.5,17.44,17.1,16.81,17.87z" opacity=".07"/></svg>