<svg xmlns="http://www.w3.org/2000/svg" viewBox="0 0 48 48"><linearGradient id="qsLtLGYZPxX8VWPP1xIKga" x1="34.454" x2="17.372" y1="43.454" y2="26.372" gradientTransform="matrix(0 -1 -1 0 48 48)" gradientUnits="userSpaceOnUse"><stop offset=".365" stop-color="#199ae0"/><stop offset=".699" stop-color="#1898de"/><stop offset=".819" stop-color="#1691d8"/><stop offset=".905" stop-color="#1186cc"/><stop offset=".974" stop-color="#0a75bc"/><stop offset="1" stop-color="#076cb3"/></linearGradient><path fill="url(#qsLtLGYZPxX8VWPP1xIKga)" d="M22.599,38.42L3.58,19.401c-0.774-0.774-0.774-2.028,0-2.802l4.019-4.019	c0.774-0.774,2.028-0.774,2.802,0L29.42,31.599c0.774,0.774,0.774,2.028,0,2.802l-4.019,4.019	C24.627,39.193,23.373,39.193,22.599,38.42z"/><linearGradient id="qsLtLGYZPxX8VWPP1xIKgb" x1="11.719" x2="33.715" y1="27.281" y2="5.285" gradientTransform="matrix(0 -1 -1 0 48 48)" gradientUnits="userSpaceOnUse"><stop offset="0" stop-color="#32bdef"/><stop offset="1" stop-color="#1ea2e4"/></linearGradient><path fill="url(#qsLtLGYZPxX8VWPP1xIKgb)" d="M18.58,31.599L37.599,12.58c0.774-0.774,2.028-0.774,2.802,0l4.019,4.019	c0.774,0.774,0.774,2.028,0,2.802L25.401,38.42c-0.774,0.774-2.028,0.774-2.802,0l-4.019-4.019	C17.807,33.627,17.807,32.373,18.58,31.599z"/></svg>