<svg xmlns="http://www.w3.org/2000/svg" viewBox="0 0 48 48"><linearGradient id="dHxg90aBLceQwHETdjX1ia" x1="16" x2="16" y1="-1.768" y2="-1.782" gradientUnits="userSpaceOnUse"><stop offset="0" stop-color="#3079d6"/><stop offset="1" stop-color="#297cd2"/></linearGradient><path fill="url(#dHxg90aBLceQwHETdjX1ia)" d="M20,7h-8V6c0-0.552,0.448-1,1-1h6c0.552,0,1,0.448,1,1V7z"/><linearGradient id="dHxg90aBLceQwHETdjX1ib" x1="31" x2="31" y1="-1.768" y2="-1.782" gradientUnits="userSpaceOnUse"><stop offset="0" stop-color="#3079d6"/><stop offset="1" stop-color="#297cd2"/></linearGradient><path fill="url(#dHxg90aBLceQwHETdjX1ib)" d="M36,7H26V6c0-0.552,0.448-1,1-1h8c0.552,0,1,0.448,1,1V7z"/><path fill="#50e6ff" d="M42,12H6V8c0-1.1,0.9-2,2-2h32c1.1,0,2,0.9,2,2V12z"/><path fill="#35c1f1" d="M40,42H8c-1.1,0-2-0.9-2-2V12h36v28C42,41.1,41.1,42,40,42z"/><radialGradient id="dHxg90aBLceQwHETdjX1ic" cx="15" cy="9" r="1.5" gradientUnits="userSpaceOnUse"><stop offset="0"/><stop offset="1" stop-opacity="0"/></radialGradient><circle cx="15" cy="9" r="1.5" fill="url(#dHxg90aBLceQwHETdjX1ic)" opacity=".3"/><radialGradient id="dHxg90aBLceQwHETdjX1id" cx="11" cy="9" r="1.5" gradientUnits="userSpaceOnUse"><stop offset="0"/><stop offset="1" stop-opacity="0"/></radialGradient><circle cx="11" cy="9" r="1.5" fill="url(#dHxg90aBLceQwHETdjX1id)" opacity=".3"/><circle cx="15" cy="9" r="1" fill="#fff"/><radialGradient id="dHxg90aBLceQwHETdjX1ie" cx="19" cy="9" r="1.5" gradientUnits="userSpaceOnUse"><stop offset="0"/><stop offset="1" stop-opacity="0"/></radialGradient><circle cx="19" cy="9" r="1.5" fill="url(#dHxg90aBLceQwHETdjX1ie)" opacity=".3"/><circle cx="19" cy="9" r="1" fill="#fff"/><radialGradient id="dHxg90aBLceQwHETdjX1if" cx="23" cy="9" r="1.5" gradientUnits="userSpaceOnUse"><stop offset="0"/><stop offset="1" stop-opacity="0"/></radialGradient><circle cx="23" cy="9" r="1.5" fill="url(#dHxg90aBLceQwHETdjX1if)" opacity=".3"/><circle cx="23" cy="9" r="1" fill="#fff"/><radialGradient id="dHxg90aBLceQwHETdjX1ig" cx="37" cy="9" r="1.5" gradientUnits="userSpaceOnUse"><stop offset="0"/><stop offset="1" stop-opacity="0"/></radialGradient><circle cx="37" cy="9" r="1.5" fill="url(#dHxg90aBLceQwHETdjX1ig)" opacity=".3"/><circle cx="37" cy="9" r="1" fill="#fff"/><circle cx="11" cy="9" r="1" fill="#fff"/><linearGradient id="dHxg90aBLceQwHETdjX1ih" x1="24" x2="24" y1="-58.447" y2="-58.596" gradientUnits="userSpaceOnUse"><stop offset="0" stop-color="#3079d6"/><stop offset="1" stop-color="#297cd2"/></linearGradient><path fill="url(#dHxg90aBLceQwHETdjX1ih)" d="M37,38H11c-0.552,0-1-0.448-1-1V17c0-0.552,0.448-1,1-1h26c0.552,0,1,0.448,1,1v20	C38,37.552,37.552,38,37,38z"/></svg>