<svg xmlns="http://www.w3.org/2000/svg" viewBox="0 0 48 48"><linearGradient id="LC8Fr68d6Vjb4c3oHm~Ypa" x1="11.662" x2="36.981" y1="4.976" y2="44.016" gradientUnits="userSpaceOnUse"><stop offset="0" stop-color="#64717c"/><stop offset="1" stop-color="#56626b"/></linearGradient><path fill="url(#LC8Fr68d6Vjb4c3oHm~Ypa)" d="M42.006,24.688l-0.802-0.211L45.5,24c0-2.932-3.91-3.91-3.91-3.91h-1.284l4.433-1.757	c-0.773-2.829-4.802-2.741-4.802-2.741l-0.799,0.218l3.48-2.56c-1.465-2.539-5.34-1.431-5.34-1.431l-1.113,0.642l2.961-3.739	C37.044,6.66,33.599,8.75,33.599,8.75l-0.582,0.588l1.733-3.957c-2.539-1.465-5.34,1.431-5.34,1.431l-0.642,1.112l0.695-4.718	c-2.835-0.744-4.774,2.788-4.774,2.788l-0.211,0.802L24,2.5c-2.932,0-3.91,3.91-3.91,3.91v1.284L18.333,3.26	c-2.829,0.773-2.741,4.802-2.741,4.802l0.218,0.799l-2.56-3.48c-2.539,1.465-1.431,5.339-1.431,5.339l0.644,1.115L8.723,8.873	C6.66,10.956,8.75,14.4,8.75,14.4l0.59,0.584L5.381,13.25c-1.465,2.539,1.431,5.34,1.431,5.34l1.112,0.642l-4.718-0.695	c-0.744,2.835,2.788,4.774,2.788,4.774l0.802,0.211L2.5,24c0,2.932,3.91,3.91,3.91,3.91h1.284L3.26,29.667	c0.773,2.829,4.802,2.741,4.802,2.741l0.799-0.218l-3.48,2.56c1.465,2.539,5.34,1.431,5.34,1.431l1.113-0.642l-2.961,3.739	c2.083,2.063,5.529-0.028,5.529-0.028l0.582-0.588l-1.733,3.957c2.539,1.465,5.34-1.431,5.34-1.431l0.642-1.112l-0.695,4.718	c2.835,0.744,4.774-2.788,4.774-2.788l0.211-0.802L24,45.5c2.932,0,3.91-3.91,3.91-3.91v-1.284l1.757,4.433	c2.829-0.773,2.741-4.802,2.741-4.802l-0.218-0.799l2.56,3.48c2.539-1.465,1.431-5.34,1.431-5.34l-0.642-1.113l3.739,2.961	c2.063-2.083-0.028-5.528-0.028-5.528l-0.588-0.582l3.957,1.733c1.465-2.539-1.431-5.34-1.431-5.34l-1.112-0.642l4.718,0.695	C45.538,26.627,42.006,24.688,42.006,24.688z M24,39c-8.284,0-15-6.716-15-15c0-8.284,6.716-15,15-15s15,6.716,15,15	C39,32.284,32.284,39,24,39z"/><linearGradient id="LC8Fr68d6Vjb4c3oHm~Ypb" x1="16.642" x2="32.236" y1="6.722" y2="43.342" gradientUnits="userSpaceOnUse"><stop offset="0" stop-color="#889097"/><stop offset="1" stop-color="#64717c"/></linearGradient><path fill="url(#LC8Fr68d6Vjb4c3oHm~Ypb)" d="M24,5C13.507,5,5,13.507,5,24s8.507,19,19,19s19-8.507,19-19S34.493,5,24,5z M24,27	c-1.657,0-3-1.343-3-3s1.343-3,3-3s3,1.343,3,3S25.657,27,24,27z M35,26c-1.104,0-2-0.896-2-2s0.896-2,2-2s2,0.896,2,2	S36.104,26,35,26z M13,26c-1.104,0-2-0.896-2-2s0.896-2,2-2s2,0.896,2,2S14.104,26,13,26z"/></svg>