<svg xmlns="http://www.w3.org/2000/svg" viewBox="0 0 48 48"><linearGradient id="FhRH~JpDtqCj54C4QgQnza" x1="8.641" x2="30.598" y1="6.723" y2="37.702" gradientUnits="userSpaceOnUse"><stop offset="0" stop-color="#5c65d6"/><stop offset=".999" stop-color="#464eb0"/></linearGradient><path fill="url(#FhRH~JpDtqCj54C4QgQnza)" d="M44.486,30.654l-0.217-0.77c-0.09-0.319-0.332-0.572-0.646-0.677L43,29v-2l0.641-0.375	l0.32-1.115C43.987,25.421,44,25.328,44,25.234v-0.857c0-0.243,0.089-0.478,0.249-0.661l0.956-1.087	c0.114-0.129,0.192-0.285,0.228-0.454l0.172-0.812c0.05-0.235,0.182-0.445,0.374-0.59L47,20l-0.397-0.663	c-0.13-0.217-0.337-0.376-0.579-0.446l-0.52-0.151c-0.192-0.056-0.363-0.168-0.491-0.322l-0.452-0.545	c-0.118-0.142-0.194-0.314-0.22-0.496l-0.278-1.934c-0.04-0.281-0.199-0.532-0.435-0.69l-2.376-1.584	C41.088,13.058,40.895,13,40.697,13H9c-0.552,0-1-0.448-1-1v-1.131c0-0.799-0.89-1.275-1.555-0.832L5,11H4l-1.471,0.735	c-0.326,0.163-0.538,0.491-0.552,0.856L1.035,37.083c-0.02,0.519,0.36,0.966,0.875,1.031l7.028,0.878	C8.979,38.997,9.021,39,9.062,39h29.524c0.265,0,0.52-0.105,0.707-0.293l0.414-0.414C39.895,38.105,40.149,38,40.414,38h0.918	c0.104,0,0.208-0.016,0.307-0.048l1.253-0.405c0.197-0.064,0.37-0.187,0.494-0.354l0.705-0.944c0.026-0.035,0.055-0.069,0.086-0.1	l0.838-0.859c0.054-0.056,0.115-0.105,0.18-0.146L47,34v-0.5l-2.281-2.433C44.609,30.95,44.529,30.809,44.486,30.654z"/></svg>