<svg xmlns="http://www.w3.org/2000/svg" viewBox="0 0 48 48"><linearGradient id="jbFJITYavkeDDjULsvD_Aa" x1="17.5" x2="17.5" y1="11.283" y2="28.921" gradientUnits="userSpaceOnUse"><stop offset="0" stop-color="#dfe9f2"/><stop offset=".391" stop-color="#d6e0e9"/><stop offset="1" stop-color="#bfc8d1"/></linearGradient><path fill="url(#jbFJITYavkeDDjULsvD_Aa)" d="M13,26h9V7.5C22,5.015,19.985,3,17.5,3h0C15.015,3,13,5.015,13,7.5V26z"/><linearGradient id="jbFJITYavkeDDjULsvD_Ab" x1="18" x2="18" y1="11.283" y2="28.921" gradientUnits="userSpaceOnUse"><stop offset="0" stop-color="#faa0bd"/><stop offset="1" stop-color="#fa67a6"/></linearGradient><path fill="url(#jbFJITYavkeDDjULsvD_Ab)" d="M16,26h4V9c0-1.105-0.895-2-2-2h0c-1.105,0-2,0.895-2,2V26z"/><linearGradient id="jbFJITYavkeDDjULsvD_Ac" x1="30.5" x2="30.5" y1="11.283" y2="28.921" gradientUnits="userSpaceOnUse"><stop offset="0" stop-color="#dfe9f2"/><stop offset=".391" stop-color="#d6e0e9"/><stop offset="1" stop-color="#bfc8d1"/></linearGradient><path fill="url(#jbFJITYavkeDDjULsvD_Ac)" d="M35,26h-9V7.5C26,5.015,28.015,3,30.5,3h0C32.985,3,35,5.015,35,7.5V26z"/><linearGradient id="jbFJITYavkeDDjULsvD_Ad" x1="30" x2="30" y1="11.283" y2="28.921" gradientUnits="userSpaceOnUse"><stop offset="0" stop-color="#faa0bd"/><stop offset="1" stop-color="#fa67a6"/></linearGradient><path fill="url(#jbFJITYavkeDDjULsvD_Ad)" d="M32,26h-4V9c0-1.105,0.895-2,2-2h0c1.105,0,2,0.895,2,2V26z"/><radialGradient id="jbFJITYavkeDDjULsvD_Ae" cx="17.261" cy="27" r="37.175" gradientUnits="userSpaceOnUse"><stop offset="0" stop-color="#dfe9f2"/><stop offset=".391" stop-color="#d6e0e9"/><stop offset="1" stop-color="#bfc8d1"/></radialGradient><ellipse cx="24" cy="33" fill="url(#jbFJITYavkeDDjULsvD_Ae)" rx="15" ry="12"/><linearGradient id="jbFJITYavkeDDjULsvD_Af" x1="18.5" x2="18.5" y1="304.867" y2="316.075" gradientTransform="matrix(1 0 0 -1 0 340)" gradientUnits="userSpaceOnUse"><stop offset=".002" stop-color="#454545"/><stop offset=".013" stop-color="#464646"/><stop offset=".875" stop-color="#626262"/><stop offset="1" stop-color="#6d6d6d"/></linearGradient><circle cx="18.5" cy="33.5" r="2.5" fill="url(#jbFJITYavkeDDjULsvD_Af)"/><linearGradient id="jbFJITYavkeDDjULsvD_Ag" x1="29.5" x2="29.5" y1="304.867" y2="316.075" gradientTransform="matrix(1 0 0 -1 0 340)" gradientUnits="userSpaceOnUse"><stop offset=".002" stop-color="#454545"/><stop offset=".013" stop-color="#464646"/><stop offset=".875" stop-color="#626262"/><stop offset="1" stop-color="#6d6d6d"/></linearGradient><circle cx="29.5" cy="33.5" r="2.5" fill="url(#jbFJITYavkeDDjULsvD_Ag)"/><linearGradient id="jbFJITYavkeDDjULsvD_Ah" x1="18" x2="18" y1="309.764" y2="304.117" gradientTransform="matrix(1 0 0 -1 0 340)" gradientUnits="userSpaceOnUse"><stop offset="0" stop-color="#f9f9f9"/><stop offset="1" stop-color="#c2c8cc"/></linearGradient><circle cx="18" cy="33" r="1" fill="url(#jbFJITYavkeDDjULsvD_Ah)"/><linearGradient id="jbFJITYavkeDDjULsvD_Ai" x1="29" x2="29" y1="309.764" y2="304.117" gradientTransform="matrix(1 0 0 -1 0 340)" gradientUnits="userSpaceOnUse"><stop offset="0" stop-color="#f9f9f9"/><stop offset="1" stop-color="#c2c8cc"/></linearGradient><circle cx="29" cy="33" r="1" fill="url(#jbFJITYavkeDDjULsvD_Ai)"/><circle cx="15" cy="38" r="2" fill="#eb6773"/><circle cx="33" cy="38" r="2" fill="#eb6773"/><path fill="#eb6773" d="M24,40L24,40c-0.552,0-1-0.448-1-1v-2h2v2C25,39.552,24.552,40,24,40z"/><path fill="#bfc8d1" d="M10,36H7c-0.553,0-1-0.448-1-1s0.447-1,1-1h3c0.553,0,1,0.448,1,1S10.553,36,10,36z"/><path fill="#bfc8d1" d="M9.999,33c-0.15,0-0.303-0.034-0.446-0.105l-2-1c-0.494-0.247-0.694-0.848-0.447-1.342	c0.248-0.494,0.847-0.694,1.342-0.447l2,1c0.494,0.247,0.694,0.848,0.447,1.342C10.719,32.798,10.366,33,9.999,33z"/><path fill="#bfc8d1" d="M8.001,40c-0.367,0-0.72-0.202-0.896-0.553c-0.247-0.494-0.047-1.095,0.447-1.342l2-1	c0.493-0.248,1.094-0.047,1.342,0.447c0.247,0.494,0.047,1.095-0.447,1.342l-2,1C8.304,39.966,8.151,40,8.001,40z"/><path fill="#bfc8d1" d="M41,36h-3c-0.553,0-1-0.448-1-1s0.447-1,1-1h3c0.553,0,1,0.448,1,1S41.553,36,41,36z"/><path fill="#bfc8d1" d="M39.999,40c-0.15,0-0.303-0.034-0.446-0.105l-2-1c-0.494-0.247-0.694-0.848-0.447-1.342	c0.248-0.494,0.848-0.695,1.342-0.447l2,1c0.494,0.247,0.694,0.848,0.447,1.342C40.719,39.798,40.366,40,39.999,40z"/><path fill="#bfc8d1" d="M38.001,33c-0.367,0-0.72-0.202-0.896-0.553c-0.247-0.494-0.047-1.095,0.447-1.342l2-1	c0.494-0.247,1.094-0.047,1.342,0.447c0.247,0.494,0.047,1.095-0.447,1.342l-2,1C38.304,32.966,38.151,33,38.001,33z"/><path fill="#bfc8d1" d="M25.375,36.25c-0.582,0-2.168,0-2.75,0c-0.897,0-1.625,0.616-1.625,1.375S21.728,39,22.625,39	c0.582,0,1.088-0.26,1.375-0.649C24.287,38.74,24.793,39,25.375,39C26.272,39,27,38.384,27,37.625S26.272,36.25,25.375,36.25z"/><linearGradient id="jbFJITYavkeDDjULsvD_Aj" x1="24" x2="24" y1="34.563" y2="36.865" gradientUnits="userSpaceOnUse"><stop offset="0" stop-color="#faa0bd"/><stop offset="1" stop-color="#fa67a6"/></linearGradient><path fill="url(#jbFJITYavkeDDjULsvD_Aj)" d="M25,35.75c0-0.552-0.448-0.75-1-0.75s-1,0.198-1,0.75S23.448,37,24,37S25,36.302,25,35.75z"/></svg>