<svg xmlns="http://www.w3.org/2000/svg" viewBox="0 0 48 48"><linearGradient id="LRJX7Xhh6FORDOcWcVv6va" x1="18.238" x2="26.941" y1="4.272" y2="46.799" gradientUnits="userSpaceOnUse"><stop offset="0" stop-color="#805fc3"/><stop offset="1" stop-color="#59228a"/></linearGradient><path fill="url(#LRJX7Xhh6FORDOcWcVv6va)" d="M43.151,33.17c-0.197,0.315-0.153,0.707,0.093,0.985C44.368,35.422,45,37.111,45,38.8	c0,0.6-0.1,1.1-0.2,1.6c-0.109,0.438-0.518,1.265-0.932,2.023c-0.497,0.911-1.451,1.477-2.488,1.477l-34.778,0	c-1.043,0-1.999-0.573-2.496-1.491C3.698,41.655,3.311,40.843,3.2,40.4c-0.1-0.5-0.2-1-0.2-1.6c0-1.883,0.724-3.606,2.028-4.951	c0.266-0.275,0.326-0.675,0.145-1.013C4.391,31.38,4,29.768,4,28c0-5.431,2.996-9.681,7.516-10.503	c0.409-0.074,0.701-0.422,0.689-0.837C11.986,9.094,16.929,5,23.1,5c5.579,0,10.141,3.239,10.836,9.627	c0.047,0.43,0.418,0.766,0.85,0.777C40.737,15.551,45,20.305,45,26.9C45,29.091,44.333,31.283,43.151,33.17z"/><linearGradient id="LRJX7Xhh6FORDOcWcVv6vb" x1="16.117" x2="26.403" y1="7.726" y2="20.386" gradientUnits="userSpaceOnUse"><stop offset=".491" stop-color="#fac600"/><stop offset="1" stop-color="#d66b00"/></linearGradient><path fill="url(#LRJX7Xhh6FORDOcWcVv6vb)" d="M22.8,9.646l1.366,2.767c0.071,0.143,0.207,0.242,0.365,0.265l3.054,0.444	c0.397,0.058,0.556,0.546,0.268,0.826l-2.21,2.154c-0.114,0.111-0.166,0.272-0.139,0.429l0.522,3.042	c0.068,0.396-0.347,0.697-0.703,0.51l-2.732-1.436c-0.141-0.074-0.31-0.074-0.451,0l-2.732,1.436	c-0.355,0.187-0.77-0.115-0.703-0.51l0.522-3.042c0.027-0.157-0.025-0.317-0.139-0.429l-2.21-2.154	c-0.287-0.28-0.129-0.768,0.268-0.826l3.054-0.444c0.158-0.023,0.294-0.122,0.365-0.265l1.366-2.767	C22.11,9.286,22.623,9.286,22.8,9.646z"/><path fill="#220f81" d="M24.575,35.645c0.113,0.555,0.375,1.058,0.75,1.463c-0.877,0.555-2.1,0.893-3.45,0.893	c-0.93,0-1.793-0.158-2.527-0.435c-0.03-0.015-0.06-0.022-0.09-0.037C17.9,36.995,17,36.065,17,35c0-1.658,2.182-3,4.875-3	c1.35,0,2.572,0.338,3.457,0.885C24.807,33.447,24.5,34.197,24.5,35C24.5,35.217,24.523,35.435,24.575,35.645z"/><path fill="#d75b60" d="M25.325,37.107c-0.877,0.555-2.1,0.893-3.45,0.893c-0.93,0-1.793-0.158-2.527-0.435	c-0.03-0.015-0.06-0.022-0.09-0.037c0.127-1.313,1.582-2.355,3.367-2.355c0.727,0,1.395,0.173,1.95,0.473	C24.687,36.2,24.95,36.703,25.325,37.107z"/><path fill="none" stroke="#220f81" stroke-linecap="round" stroke-linejoin="round" stroke-miterlimit="10" stroke-width="2" d="M26.75,38c-0.563-0.165-1.05-0.48-1.425-0.893c-0.375-0.405-0.638-0.907-0.75-1.462C24.522,35.435,24.5,35.217,24.5,35	c0-0.803,0.307-1.553,0.832-2.115C25.7,32.48,26.195,32.165,26.75,32"/><circle cx="28.5" cy="26.5" r="1.5" fill="#220f81"/><path fill="#220f81" d="M31,26h-5c-0.552,0-1-0.448-1-1s0.448-1,1-1h5c0.552,0,1,0.448,1,1S31.552,26,31,26z"/><circle cx="15.5" cy="26.5" r="1.5" fill="#220f81"/><path fill="#220f81" d="M18,26h-5c-0.552,0-1-0.448-1-1s0.448-1,1-1h5c0.552,0,1,0.448,1,1S18.552,26,18,26z"/><path fill="#151515" d="M22.366,9.376c0.173,0,0.345,0.09,0.434,0.27l1.366,2.767c0.071,0.143,0.207,0.242,0.365,0.265 l3.054,0.444c0.397,0.058,0.556,0.546,0.268,0.826l-2.21,2.154c-0.114,0.111-0.166,0.272-0.139,0.429l0.522,3.042 c0.054,0.313-0.195,0.567-0.477,0.567c-0.074,0-0.151-0.018-0.225-0.057l-2.732-1.436c-0.071-0.037-0.148-0.056-0.225-0.056 c-0.077,0-0.155,0.019-0.225,0.056l-2.732,1.436c-0.074,0.039-0.151,0.057-0.225,0.057c-0.282,0-0.531-0.254-0.477-0.567 l0.522-3.042c0.027-0.157-0.025-0.317-0.139-0.429l-2.21-2.154c-0.287-0.28-0.129-0.768,0.268-0.826l3.054-0.444 c0.158-0.023,0.294-0.122,0.365-0.265l1.366-2.767C22.021,9.466,22.193,9.376,22.366,9.376 M22.366,8.376 c-0.569,0-1.079,0.317-1.331,0.827l-1.246,2.524l-2.786,0.405c-0.563,0.082-1.022,0.469-1.198,1.01 c-0.176,0.541-0.032,1.124,0.376,1.522l2.016,1.965l-0.476,2.774c-0.074,0.432,0.045,0.872,0.326,1.206 c0.284,0.337,0.698,0.53,1.137,0.53c0.238,0,0.477-0.059,0.691-0.172l2.492-1.31l2.492,1.31c0.213,0.112,0.452,0.172,0.691,0.172 c0.438,0,0.852-0.193,1.137-0.53c0.282-0.334,0.4-0.773,0.326-1.206l-0.476-2.774l2.016-1.965c0.408-0.397,0.551-0.98,0.376-1.522 s-0.635-0.928-1.198-1.01l-2.786-0.405l-1.246-2.524C23.445,8.693,22.935,8.376,22.366,8.376L22.366,8.376z" opacity=".05"/><path fill="#151515" d="M22.366,9.376c0.173,0,0.345,0.09,0.434,0.27l1.366,2.767c0.071,0.143,0.207,0.242,0.365,0.265 l3.054,0.444c0.397,0.058,0.556,0.546,0.268,0.826l-2.21,2.154c-0.114,0.111-0.166,0.272-0.139,0.429l0.522,3.042 c0.054,0.313-0.195,0.567-0.477,0.567c-0.074,0-0.151-0.018-0.225-0.057l-2.732-1.436c-0.071-0.037-0.148-0.056-0.225-0.056 c-0.077,0-0.155,0.019-0.225,0.056l-2.732,1.436c-0.074,0.039-0.151,0.057-0.225,0.057c-0.282,0-0.531-0.254-0.477-0.567 l0.522-3.042c0.027-0.157-0.025-0.317-0.139-0.429l-2.21-2.154c-0.287-0.28-0.129-0.768,0.268-0.826l3.054-0.444 c0.158-0.023,0.294-0.122,0.365-0.265l1.366-2.767C22.021,9.466,22.193,9.376,22.366,9.376 M22.366,8.876 c-0.377,0-0.716,0.21-0.883,0.549l-1.366,2.767l-3.042,0.435c-0.373,0.054-0.678,0.311-0.795,0.67 c-0.117,0.359-0.021,0.746,0.249,1.009l2.21,2.154l-0.526,3.028c-0.049,0.287,0.029,0.578,0.216,0.799 c0.189,0.224,0.464,0.353,0.754,0.353c0.158,0,0.316-0.039,0.458-0.114l2.732-1.436l2.717,1.436c0.142,0.075,0.3,0.114,0.458,0.114 c0.29,0,0.565-0.129,0.754-0.353c0.186-0.221,0.265-0.512,0.216-0.799l-0.522-3.042l2.205-2.14c0.27-0.263,0.366-0.65,0.249-1.009 c-0.117-0.359-0.421-0.616-0.795-0.67l-3.054-0.444l-1.354-2.759C23.082,9.087,22.744,8.876,22.366,8.876L22.366,8.876z" opacity=".05"/></svg>