<svg xmlns="http://www.w3.org/2000/svg" viewBox="0 0 48 48"><path fill="#fad500" d="M11,34.059v2H2.474C2.212,36.059,2,35.847,2,35.585v-1.051c0-0.263,0.212-0.475,0.474-0.475H11z"/><path fill="#33c481" d="M46.6,26.846c-0.799-0.901-1-2.077-0.699-3.249C46,23.327,46,22.875,46,22.515	c0-2.978-1.999-5.414-5.195-6.136c-1.1-0.271-1.898-0.901-2.399-1.805c-1.1-2.258-3.497-3.791-6.394-3.791	c-1.299,0-2.498-0.451-3.397-1.174c-1.3-0.993-2.897-1.534-4.597-1.534c-1.7,0-3.298,0.541-4.595,1.535	c-0.899,0.722-2.098,1.174-3.397,1.174c-2.897,0-5.397,1.625-6.496,3.879c-0.4,0.811-1.199,1.444-2.098,1.625	c-3.398,0.722-5.397,3.249-5.397,6.227c0,0.361,0,0.811,0.099,1.174c0.2,1.174,0,2.346-0.799,3.249c-1.1,1.352-1.6,3.069-1.2,4.964	c0.97,2.249,3.063,3.156,3.063,3.156h41.6c0,0,3.2-0.904,3.2-4.422C47.999,29.194,47.5,27.929,46.6,26.846z"/><linearGradient id="D2WwexJv6PjVh1ZVUeAvFa" x1="-756.067" x2="-751.824" y1="-1137.941" y2="-1142.184" gradientTransform="scale(1 -1) rotate(45 -1703.63 377.497)" gradientUnits="userSpaceOnUse"><stop offset="0" stop-color="#f44f5a"/><stop offset=".443" stop-color="#ee3d4a"/><stop offset="1" stop-color="#e52030"/></linearGradient><path fill="url(#D2WwexJv6PjVh1ZVUeAvFa)" d="M42.971,21.059c1.373,1.373,1.373,3.598,0,4.971c-1.373,1.373-3.598,1.373-4.971,0	L42.971,21.059z"/><linearGradient id="D2WwexJv6PjVh1ZVUeAvFb" x1="-1185.343" x2="-1181.099" y1="-433.337" y2="-437.58" gradientTransform="matrix(0 -1 -1 0 -402.23 -1167.63)" gradientUnits="userSpaceOnUse"><stop offset="0" stop-color="#f44f5a"/><stop offset=".443" stop-color="#ee3d4a"/><stop offset="1" stop-color="#e52030"/></linearGradient><path fill="url(#D2WwexJv6PjVh1ZVUeAvFb)" d="M32.5,12.075c1.941,0,3.515,1.574,3.515,3.515s-1.574,3.515-3.515,3.515V12.075z"/><linearGradient id="D2WwexJv6PjVh1ZVUeAvFc" x1="-1187.343" x2="-1183.099" y1="-412.837" y2="-417.08" gradientTransform="matrix(0 -1 -1 0 -402.23 -1167.63)" gradientUnits="userSpaceOnUse"><stop offset="0" stop-color="#f44f5a"/><stop offset=".443" stop-color="#ee3d4a"/><stop offset="1" stop-color="#e52030"/></linearGradient><path fill="url(#D2WwexJv6PjVh1ZVUeAvFc)" d="M12,14.075c1.941,0,3.515,1.574,3.515,3.515S13.941,21.105,12,21.105V14.075z"/><linearGradient id="D2WwexJv6PjVh1ZVUeAvFd" x1="732.883" x2="737.126" y1="-875.218" y2="-879.461" gradientTransform="scale(1 -1) rotate(-45 1425.733 409.324)" gradientUnits="userSpaceOnUse"><stop offset="0" stop-color="#21ad64"/><stop offset="1" stop-color="#088242"/></linearGradient><path fill="url(#D2WwexJv6PjVh1ZVUeAvFd)" d="M30.485,14.046c-1.373,1.373-3.598,1.373-4.971,0s-1.373-3.598,0-4.971L30.485,14.046z"/><linearGradient id="D2WwexJv6PjVh1ZVUeAvFe" x1="726.697" x2="730.94" y1="-894.487" y2="-898.73" gradientTransform="scale(1 -1) rotate(-45 1425.733 409.324)" gradientUnits="userSpaceOnUse"><stop offset="0" stop-color="#21ad64"/><stop offset="1" stop-color="#088242"/></linearGradient><path fill="url(#D2WwexJv6PjVh1ZVUeAvFe)" d="M12.485,23.296c-1.373,1.373-3.598,1.373-4.971,0s-1.373-3.598,0-4.971L12.485,23.296z"/><linearGradient id="D2WwexJv6PjVh1ZVUeAvFf" x1="-1004.755" x2="-1000.511" y1="354.666" y2="350.423" gradientTransform="scale(-1 1) rotate(-45 -910.376 -1009.504)" gradientUnits="userSpaceOnUse"><stop offset="0" stop-color="#21ad64"/><stop offset="1" stop-color="#088242"/></linearGradient><path fill="url(#D2WwexJv6PjVh1ZVUeAvFf)" d="M9.485,16.892c1.373-1.373,3.598-1.373,4.971,0s1.373,3.598,0,4.971L9.485,16.892z"/><linearGradient id="D2WwexJv6PjVh1ZVUeAvFg" x1="-1007.217" x2="-1002.975" y1="367.008" y2="362.765" gradientTransform="scale(-1 1) rotate(-45 -910.376 -1009.504)" gradientUnits="userSpaceOnUse"><stop offset="0" stop-color="#21ad64"/><stop offset="1" stop-color="#088242"/></linearGradient><path fill="url(#D2WwexJv6PjVh1ZVUeAvFg)" d="M2.499,27.361c1.373-1.373,3.598-1.373,4.971,0s1.373,3.598,0,4.971L2.499,27.361z"/><linearGradient id="D2WwexJv6PjVh1ZVUeAvFh" x1="6.876" x2="11.12" y1="-1334.205" y2="-1338.448" gradientTransform="matrix(1 0 0 -1 34.487 -1305.54)" gradientUnits="userSpaceOnUse"><stop offset="0" stop-color="#21ad64"/><stop offset="1" stop-color="#088242"/></linearGradient><path fill="url(#D2WwexJv6PjVh1ZVUeAvFh)" d="M47,30.059c0,1.941-1.574,3.515-3.515,3.515c-1.941,0-3.515-1.574-3.515-3.515H47z"/><path fill="#fad500" d="M11.582,28.242l-1.414,1.414l-6.029-6.028c-0.185-0.185-0.185-0.486,0-0.671l0.743-0.743	c0.185-0.185,0.486-0.185,0.671,0L11.582,28.242z"/><linearGradient id="D2WwexJv6PjVh1ZVUeAvFi" x1="34.004" x2="38.246" y1="-1333.335" y2="-1337.578" gradientTransform="matrix(1 0 0 -1 -31.626 -1305.126)" gradientUnits="userSpaceOnUse"><stop offset="0" stop-color="#f44f5a"/><stop offset=".443" stop-color="#ee3d4a"/><stop offset="1" stop-color="#e52030"/></linearGradient><path fill="url(#D2WwexJv6PjVh1ZVUeAvFi)" d="M8.014,29.603c0,1.941-1.574,3.515-3.515,3.515s-3.515-1.574-3.515-3.515H8.014z"/><linearGradient id="D2WwexJv6PjVh1ZVUeAvFj" x1="47.991" x2="52.232" y1="-1315.793" y2="-1320.036" gradientTransform="matrix(1 0 0 -1 -31.626 -1305.126)" gradientUnits="userSpaceOnUse"><stop offset="0" stop-color="#f44f5a"/><stop offset=".443" stop-color="#ee3d4a"/><stop offset="1" stop-color="#e52030"/></linearGradient><path fill="url(#D2WwexJv6PjVh1ZVUeAvFj)" d="M22,12.06c0,1.941-1.574,3.515-3.515,3.515s-3.514-1.574-3.514-3.515H22z"/><path fill="#fad500" d="M39.832,34.448l-1.414-1.414l6.029-6.029c0.185-0.185,0.486-0.185,0.671,0l0.743,0.743	c0.185,0.185,0.185,0.486,0,0.671L39.832,34.448z"/><path fill="#fad500" d="M34.832,25.657l-1.414-1.414l6.029-6.029c0.185-0.185,0.486-0.185,0.671,0l0.743,0.743	c0.185,0.185,0.185,0.486,0,0.671L34.832,25.657z"/><path fill="#fad500" d="M17.525,17.407l-1.414-1.414l6.029-6.029c0.185-0.185,0.486-0.185,0.671,0l0.743,0.743	c0.185,0.185,0.185,0.486,0,0.671L17.525,17.407z"/><linearGradient id="D2WwexJv6PjVh1ZVUeAvFk" x1="16.081" x2="26.705" y1="-1316.211" y2="-1341.856" gradientTransform="matrix(1 0 0 -1 0 -1301.967)" gradientUnits="userSpaceOnUse"><stop offset="0" stop-color="#eba84b"/><stop offset="1" stop-color="#d97218"/></linearGradient><path fill="url(#D2WwexJv6PjVh1ZVUeAvFk)" d="M44,32.532c0-11.307-8.955-20.474-20-20.474S4,21.226,4,32.532c0,1.261,0,5.388,0,5.388	c0,1.191,0.942,2.155,2.105,2.155h35.789c1.163,0,2.105-0.964,2.105-2.155C44,37.92,44,34.128,44,32.532z"/><linearGradient id="D2WwexJv6PjVh1ZVUeAvFl" x1="18.5" x2="18.5" y1="27.208" y2="16" gradientUnits="userSpaceOnUse"><stop offset=".002" stop-color="#454545"/><stop offset=".013" stop-color="#464646"/><stop offset=".875" stop-color="#626262"/><stop offset="1" stop-color="#6d6d6d"/></linearGradient><circle cx="18.5" cy="25.575" r="2.5" fill="url(#D2WwexJv6PjVh1ZVUeAvFl)"/><linearGradient id="D2WwexJv6PjVh1ZVUeAvFm" x1="29.5" x2="29.5" y1="27.208" y2="16" gradientUnits="userSpaceOnUse"><stop offset=".002" stop-color="#454545"/><stop offset=".013" stop-color="#464646"/><stop offset=".875" stop-color="#626262"/><stop offset="1" stop-color="#6d6d6d"/></linearGradient><circle cx="29.5" cy="25.575" r="2.5" fill="url(#D2WwexJv6PjVh1ZVUeAvFm)"/><linearGradient id="D2WwexJv6PjVh1ZVUeAvFn" x1="18" x2="18" y1="22.311" y2="27.958" gradientUnits="userSpaceOnUse"><stop offset="0" stop-color="#f9f9f9"/><stop offset="1" stop-color="#c2c8cc"/></linearGradient><circle cx="18" cy="25.075" r="1" fill="url(#D2WwexJv6PjVh1ZVUeAvFn)"/><linearGradient id="D2WwexJv6PjVh1ZVUeAvFo" x1="29" x2="29" y1="22.311" y2="27.958" gradientUnits="userSpaceOnUse"><stop offset="0" stop-color="#f9f9f9"/><stop offset="1" stop-color="#c2c8cc"/></linearGradient><circle cx="29" cy="25.075" r="1" fill="url(#D2WwexJv6PjVh1ZVUeAvFo)"/><circle cx="15" cy="32.075" r="2" fill="#f09ca2"/><circle cx="33" cy="32.075" r="2" fill="#f09ca2"/><linearGradient id="D2WwexJv6PjVh1ZVUeAvFp" x1="24" x2="24" y1="35.428" y2="23.689" gradientUnits="userSpaceOnUse"><stop offset=".002" stop-color="#454545"/><stop offset=".013" stop-color="#464646"/><stop offset=".875" stop-color="#626262"/><stop offset="1" stop-color="#6d6d6d"/></linearGradient><path fill="url(#D2WwexJv6PjVh1ZVUeAvFp)" d="M24,35.075c-2.206,0-4-1.794-4-4c0-0.553,0.447-1,1-1s1,0.447,1,1c0,1.103,0.897,2,2,2	s2-0.897,2-2c0-0.553,0.447-1,1-1s1,0.447,1,1C28,33.281,26.206,35.075,24,35.075z"/></svg>