<svg xmlns="http://www.w3.org/2000/svg" viewBox="0 0 48 48"><path fill="#37c6d0" d="M36,6H12c-3.314,0-6,2.686-6,6v24c0,3.314,2.686,6,6,6h24c3.314,0,6-2.686,6-6V12	C42,8.686,39.314,6,36,6z"/><path fill="#036c70" d="M36,40H12c-2.209,0-4-1.791-4-4V12c0-2.209,1.791-4,4-4h24c2.209,0,4,1.791,4,4v24	C40,38.209,38.209,40,36,40z"/><path fill="#fff" d="M24.115,31.999h-2.129c-0.23,0-0.431-0.157-0.486-0.381l-0.735-3.007 c-0.055-0.224-0.255-0.381-0.486-0.381h-3.816c-0.231,0-0.432,0.158-0.486,0.382l-0.727,3.005 c-0.054,0.224-0.255,0.382-0.486,0.382h-2.107c-0.331,0-0.57-0.315-0.482-0.634L16.61,15.42c0.06-0.216,0.257-0.366,0.482-0.366 h2.694c0.226,0,0.423,0.151,0.483,0.369l4.33,15.945C24.684,31.686,24.445,31.999,24.115,31.999z M19.368,25.3 c0.324,0,0.563-0.304,0.486-0.619l-1.239-5.077c-0.102-0.425-0.174-0.934-0.216-1.524h-0.072c-0.03,0.497-0.105,0.989-0.226,1.477 l-1.256,5.124c-0.077,0.315,0.161,0.619,0.486,0.619H19.368z"/><path fill="#fff" d="M27.011,19.604h1.842c0.276,0,0.5,0.224,0.5,0.5v6.224c0,1.875,0.512,2.812,1.534,2.812 c0.493,0,0.899-0.248,1.219-0.744c0.318-0.497,0.478-1.127,0.478-1.891v-6.401c0-0.276,0.224-0.5,0.5-0.5h1.852 c0.276,0,0.5,0.224,0.5,0.5v11.1c0,0.276-0.224,0.5-0.5,0.5h-1.852c-0.276,0-0.5-0.224-0.5-0.5v-1.415h-0.036 c-0.68,1.473-1.669,2.21-2.969,2.21c-2.045,0-3.067-1.662-3.067-4.987v-6.909C26.511,19.828,26.735,19.604,27.011,19.604z"/></svg>