<svg xmlns="http://www.w3.org/2000/svg" xmlns:xlink="http://www.w3.org/1999/xlink" data-name="Слой 1" viewBox="0 0 48 48"><defs><linearGradient id="WZEzyCdnuz9rVHHHYPrIPb" x1="39" x2="39" y1="-1780.992" y2="-1779.1" data-name="Безымянный градиент 195" gradientTransform="matrix(1 0 0 -1 0 -1748)" gradientUnits="userSpaceOnUse"><stop offset="0" stop-color="#1d59b3"/><stop offset="1" stop-color="#195bbc"/></linearGradient><linearGradient id="WZEzyCdnuz9rVHHHYPrIPc" x1="23" x2="41" y1="26.5" y2="26.5" data-name="Безымянный градиент 196" gradientUnits="userSpaceOnUse"><stop offset="0" stop-color="#0d61a9"/><stop offset=".551" stop-color="#0d60a7"/><stop offset=".75" stop-color="#0f5ca0"/><stop offset=".892" stop-color="#125695"/><stop offset="1" stop-color="#154e85"/></linearGradient><linearGradient id="WZEzyCdnuz9rVHHHYPrIPd" x1="34" x2="34" y1="-1766.992" y2="-1765.1" xlink:href="#WZEzyCdnuz9rVHHHYPrIPa"/><linearGradient id="WZEzyCdnuz9rVHHHYPrIPe" x1="30" x2="30" y1="-1766.992" y2="-1765.1" xlink:href="#WZEzyCdnuz9rVHHHYPrIPa"/><linearGradient id="WZEzyCdnuz9rVHHHYPrIPf" x1="38" x2="38" y1="-1762.984" y2="-1759.2" xlink:href="#WZEzyCdnuz9rVHHHYPrIPa"/><linearGradient id="WZEzyCdnuz9rVHHHYPrIPg" x1="34" x2="34" y1="-1762.984" y2="-1759.2" xlink:href="#WZEzyCdnuz9rVHHHYPrIPa"/><linearGradient id="WZEzyCdnuz9rVHHHYPrIPh" x1="30" x2="30" y1="-1762.984" y2="-1759.2" xlink:href="#WZEzyCdnuz9rVHHHYPrIPa"/><linearGradient id="WZEzyCdnuz9rVHHHYPrIPi" x1="26" x2="26" y1="-1766.992" y2="-1765.1" xlink:href="#WZEzyCdnuz9rVHHHYPrIPa"/><linearGradient id="WZEzyCdnuz9rVHHHYPrIPj" x1="26" x2="26" y1="-1762.984" y2="-1759.2" xlink:href="#WZEzyCdnuz9rVHHHYPrIPa"/><linearGradient id="WZEzyCdnuz9rVHHHYPrIPk" x1="27" x2="43" y1="32.5" y2="32.5" xlink:href="#WZEzyCdnuz9rVHHHYPrIPa"/><linearGradient id="WZEzyCdnuz9rVHHHYPrIPl" x1="23" x2="41" y1="6.5" y2="6.5" xlink:href="#WZEzyCdnuz9rVHHHYPrIPa"/><linearGradient id="WZEzyCdnuz9rVHHHYPrIPa" x1="38" x2="38" y1="-1766.992" y2="-1765.1" data-name="Безымянный градиент 159" gradientTransform="matrix(1 0 0 -1 0 -1748)" gradientUnits="userSpaceOnUse"><stop offset="0" stop-color="#42a3f2"/><stop offset="1" stop-color="#42a4eb"/></linearGradient><linearGradient id="WZEzyCdnuz9rVHHHYPrIPm" x1="35" x2="35" y1="-1780.992" y2="-1779.1" xlink:href="#WZEzyCdnuz9rVHHHYPrIPb"/><linearGradient id="WZEzyCdnuz9rVHHHYPrIPn" x1="31" x2="31" y1="-1780.992" y2="-1779.1" xlink:href="#WZEzyCdnuz9rVHHHYPrIPb"/><linearGradient id="WZEzyCdnuz9rVHHHYPrIPo" x1="39" x2="39" y1="-1784.992" y2="-1783.1" xlink:href="#WZEzyCdnuz9rVHHHYPrIPb"/><linearGradient id="WZEzyCdnuz9rVHHHYPrIPp" x1="35" x2="35" y1="-1784.992" y2="-1783.1" xlink:href="#WZEzyCdnuz9rVHHHYPrIPb"/><linearGradient id="WZEzyCdnuz9rVHHHYPrIPq" x1="31" x2="31" y1="-1784.992" y2="-1783.1" xlink:href="#WZEzyCdnuz9rVHHHYPrIPb"/><linearGradient id="WZEzyCdnuz9rVHHHYPrIPr" x1="39" x2="39" y1="-1788.992" y2="-1787.1" xlink:href="#WZEzyCdnuz9rVHHHYPrIPb"/><linearGradient id="WZEzyCdnuz9rVHHHYPrIPs" x1="35" x2="35" y1="-1788.992" y2="-1787.1" xlink:href="#WZEzyCdnuz9rVHHHYPrIPb"/><linearGradient id="WZEzyCdnuz9rVHHHYPrIPt" x1="31" x2="31" y1="-1788.992" y2="-1787.1" xlink:href="#WZEzyCdnuz9rVHHHYPrIPb"/><linearGradient id="WZEzyCdnuz9rVHHHYPrIPu" x1="39" x2="39" y1="-1776.992" y2="-1775.1" xlink:href="#WZEzyCdnuz9rVHHHYPrIPb"/><linearGradient id="WZEzyCdnuz9rVHHHYPrIPv" x1="35" x2="35" y1="-1776.992" y2="-1775.1" xlink:href="#WZEzyCdnuz9rVHHHYPrIPb"/><linearGradient id="WZEzyCdnuz9rVHHHYPrIPw" x1="31" x2="31" y1="-1776.992" y2="-1775.1" xlink:href="#WZEzyCdnuz9rVHHHYPrIPb"/></defs><rect width="18" height="35" x="23" y="9" fill="url(#WZEzyCdnuz9rVHHHYPrIPc)"/><rect width="2" height="2" x="37" y="17" fill="url(#WZEzyCdnuz9rVHHHYPrIPa)"/><rect width="2" height="2" x="33" y="17" fill="url(#WZEzyCdnuz9rVHHHYPrIPd)"/><rect width="2" height="2" x="29" y="17" fill="url(#WZEzyCdnuz9rVHHHYPrIPe)"/><rect width="2" height="4" x="37" y="11" fill="url(#WZEzyCdnuz9rVHHHYPrIPf)"/><rect width="2" height="4" x="33" y="11" fill="url(#WZEzyCdnuz9rVHHHYPrIPg)"/><rect width="2" height="4" x="29" y="11" fill="url(#WZEzyCdnuz9rVHHHYPrIPh)"/><rect width="2" height="2" x="25" y="17" fill="url(#WZEzyCdnuz9rVHHHYPrIPi)"/><rect width="2" height="4" x="25" y="11" fill="url(#WZEzyCdnuz9rVHHHYPrIPj)"/><polygon fill="#d35230" points="27 18 16 12 5 18 5 44 27 44 27 18"/><path fill="url(#WZEzyCdnuz9rVHHHYPrIPk)" d="M42.35112,23.63626,35.70225,21.1281a1.98893,1.98893,0,0,0-1.4045,0l-6.64887,2.50816A1.00574,1.00574,0,0,0,27,24.57816V44H43V24.57816A1.00574,1.00574,0,0,0,42.35112,23.63626Z"/><path fill="#b83c1f" d="M26.999,19a.996.996,0,0,1-.478-.12207L16,13.13867,5.479,18.87793a1.0001,1.0001,0,0,1-.958-1.75586l11-6a1.00435,1.00435,0,0,1,.958,0l11,6A1.00011,1.00011,0,0,1,26.999,19Z"/><path fill="url(#WZEzyCdnuz9rVHHHYPrIPl)" d="M23,9H41L37.60049,4.75061A2,2,0,0,0,36.03875,4h-8.0775a2,2,0,0,0-1.56174.75061Z"/><g><rect width="2" height="2" x="38" y="31" fill="url(#WZEzyCdnuz9rVHHHYPrIPb)"/><rect width="2" height="2" x="34" y="31" fill="url(#WZEzyCdnuz9rVHHHYPrIPm)"/><rect width="2" height="2" x="30" y="31" fill="url(#WZEzyCdnuz9rVHHHYPrIPn)"/><rect width="2" height="2" x="38" y="35" fill="url(#WZEzyCdnuz9rVHHHYPrIPo)"/><rect width="2" height="2" x="34" y="35" fill="url(#WZEzyCdnuz9rVHHHYPrIPp)"/><rect width="2" height="2" x="30" y="35" fill="url(#WZEzyCdnuz9rVHHHYPrIPq)"/><rect width="2" height="2" x="38" y="39" fill="url(#WZEzyCdnuz9rVHHHYPrIPr)"/><rect width="2" height="2" x="34" y="39" fill="url(#WZEzyCdnuz9rVHHHYPrIPs)"/><rect width="2" height="2" x="30" y="39" fill="url(#WZEzyCdnuz9rVHHHYPrIPt)"/><rect width="2" height="2" x="38" y="27" fill="url(#WZEzyCdnuz9rVHHHYPrIPu)"/><rect width="2" height="2" x="34" y="27" fill="url(#WZEzyCdnuz9rVHHHYPrIPv)"/><rect width="2" height="2" x="30" y="27" fill="url(#WZEzyCdnuz9rVHHHYPrIPw)"/></g><g><rect width="4" height="4" x="8" y="22" fill="#ff8f6b"/><rect width="4" height="4" x="14" y="22" fill="#ff8f6b"/><rect width="4" height="4" x="20" y="22" fill="#ff8f6b"/><rect width="4" height="4" x="8" y="29" fill="#ff8f6b"/><rect width="4" height="4" x="14" y="29" fill="#ff8f6b"/><rect width="4" height="4" x="20" y="29" fill="#ff8f6b"/><rect width="4" height="4" x="8" y="36" fill="#ff8f6b"/><rect width="4" height="4" x="14" y="36" fill="#ff8f6b"/><rect width="4" height="4" x="20" y="36" fill="#ff8f6b"/></g></svg>