<svg xmlns="http://www.w3.org/2000/svg" viewBox="0 0 48 48"><linearGradient id="noxi8NkNcbe3Z1dO6pYb4a" x1="16.197" x2="38.605" y1="45.133" y2="2.988" gradientTransform="matrix(1 0 0 -1 0 48)" gradientUnits="userSpaceOnUse"><stop offset="0" stop-color="#21ad64"/><stop offset="1" stop-color="#088242"/></linearGradient><path fill="url(#noxi8NkNcbe3Z1dO6pYb4a)" d="M42,10c-11.122,0-11.278-6-18-6s-6.878,6-18,6c-0.552,0-1,0.448-1,1c0,0,0,5.856,0,9	c0,1.378,0.178,2.712,0.493,4c2.936,12.007,18.08,19.907,18.08,19.907S23.784,44,24,44c0.203,0,0.427-0.093,0.427-0.093	s15.144-7.9,18.08-19.907C42.822,22.712,43,21.378,43,20c0-3.144,0-9,0-9C43,10.448,42.552,10,42,10z"/><linearGradient id="noxi8NkNcbe3Z1dO6pYb4b" x1="17.724" x2="36.265" y1="41.538" y2="6.668" gradientTransform="matrix(1 0 0 -1 0 48)" gradientUnits="userSpaceOnUse"><stop offset="0" stop-color="#fcfcfc"/><stop offset=".495" stop-color="#f4f4f4"/><stop offset=".869" stop-color="#e8e8e8"/><stop offset="1" stop-color="#e8e8e8"/></linearGradient><path fill="url(#noxi8NkNcbe3Z1dO6pYb4b)" d="M24,40.701c-3.107-1.837-13.417-8.517-15.593-17.413C8.137,22.185,8,21.078,8,20v-7.063	c5.83-0.38,8.777-2.389,11.169-4.019C20.927,7.722,21.986,7,24,7s3.073,0.722,4.827,1.917c2.395,1.632,5.341,3.641,11.173,4.021V20	c0,1.078-0.137,2.184-0.407,3.286C37.417,32.184,27.107,38.864,24,40.701z"/><linearGradient id="noxi8NkNcbe3Z1dO6pYb4c" x1="24" x2="24" y1="27.991" y2="35.207" gradientTransform="matrix(1 0 0 -1 0 48)" gradientUnits="userSpaceOnUse"><stop offset="0" stop-color="#92a3b0"/><stop offset=".099" stop-color="#a3b5c4"/><stop offset=".174" stop-color="#aec2d1"/><stop offset=".276" stop-color="#b2c6d6"/></linearGradient><path fill="url(#noxi8NkNcbe3Z1dO6pYb4c)" d="M30,21h-2v-3c0-2.206-1.794-4-4-4s-4,1.794-4,4v3h-2v-3c0-3.309,2.691-6,6-6s6,2.691,6,6V21z"/><path fill="#107c42" d="M31,31H17c-0.552,0-1-0.448-1-1v-2h16v2C32,30.552,31.552,31,31,31z"/><rect width="16" height="3" x="16" y="25" fill="#21a366"/><rect width="16" height="3" x="16" y="22" fill="#33c481"/><path fill="#61e3a7" d="M32,22H16v-2c0-0.552,0.448-1,1-1h14c0.552,0,1,0.448,1,1V22z"/><linearGradient id="noxi8NkNcbe3Z1dO6pYb4d" x1="24" x2="24" y1="134.387" y2="127.956" gradientTransform="translate(0 -106)" gradientUnits="userSpaceOnUse"><stop offset="0" stop-color="#4b4b4b"/><stop offset="1" stop-color="#3b3b3b"/></linearGradient><path fill="url(#noxi8NkNcbe3Z1dO6pYb4d)" d="M26,24c0-1.105-0.895-2-2-2s-2,0.895-2,2c0,0.839,0.518,1.555,1.25,1.852v1.398	c0,0.414,0.336,0.75,0.75,0.75s0.75-0.336,0.75-0.75v-1.398C25.482,25.555,26,24.839,26,24z"/></svg>