<svg xmlns="http://www.w3.org/2000/svg" data-name="Слой 1" viewBox="0 0 48 48"><defs><linearGradient id="l20ye~0~~j9mJaGESUeIsa" x1="13.5" x2="13.5" y1="35.163" y2="15.011" gradientUnits="userSpaceOnUse"><stop offset="0" stop-color="#a34f27"/><stop offset=".587" stop-color="#8b3817"/><stop offset="1" stop-color="#802d10"/></linearGradient><linearGradient id="l20ye~0~~j9mJaGESUeIsb" x1="28.458" x2="28.458" y1="6.696" y2="35.993" data-name="Безымянный градиент 111" gradientUnits="userSpaceOnUse"><stop offset="0" stop-color="#eba84b"/><stop offset=".985" stop-color="#d97319"/><stop offset="1" stop-color="#d97218"/></linearGradient><linearGradient id="l20ye~0~~j9mJaGESUeIsc" x1="31" x2="31" y1="20.391" y2="48.712" data-name="Безымянный градиент 18" gradientUnits="userSpaceOnUse"><stop offset=".002" stop-color="#454545"/><stop offset=".013" stop-color="#464646"/><stop offset=".874" stop-color="#626262"/><stop offset="1" stop-color="#6d6d6d"/></linearGradient><linearGradient id="l20ye~0~~j9mJaGESUeIsd" x1="23" x2="23" y1="2.489" y2="19.92" data-name="Безымянный градиент 115" gradientUnits="userSpaceOnUse"><stop offset="0" stop-color="#eba84b"/><stop offset=".255" stop-color="#e8a044"/><stop offset=".641" stop-color="#e18b30"/><stop offset="1" stop-color="#d97218"/></linearGradient></defs><path fill="url(#l20ye~0~~j9mJaGESUeIsa)" d="M6,11H21a0,0,0,0,1,0,0V22a0,0,0,0,1,0,0H13a7,7,0,0,1-7-7V11A0,0,0,0,1,6,11Z"/><path fill="url(#l20ye~0~~j9mJaGESUeIsb)" d="M22.91806,35H32a8,8,0,0,0,8-8V14H19L16.97836,28.15147A6,6,0,0,0,22.91806,35Z"/><rect width="2" height="20" x="30" y="19" fill="url(#l20ye~0~~j9mJaGESUeIsc)"/><path fill="url(#l20ye~0~~j9mJaGESUeIsc)" d="M34,45H28a.99974.99974,0,0,1-1-1V41a4,4,0,0,1,8,0v3A.99974.99974,0,0,1,34,45Zm-5-2h4V41a2,2,0,0,0-4,0Z"/><path fill="url(#l20ye~0~~j9mJaGESUeIsd)" d="M33.53019,8.57082,18.7465,9.87529c-4.90634.43292-8.08575-1.55356-9.30826-4.73488h0A1.77828,1.77828,0,0,0,7.77829,4h0A1.77829,1.77829,0,0,0,6,5.77829V11H6a6,6,0,0,0,6,6h1l6.73866.00007a2.08976,2.08976,0,0,1,1.37948.55579A9.70968,9.70968,0,0,0,27.559,20h6.7052a5.73613,5.73613,0,0,0,5.726-6.07378A5.88026,5.88026,0,0,0,33.53019,8.57082Z"/></svg>