<svg xmlns="http://www.w3.org/2000/svg" viewBox="0 0 48 48"><linearGradient id="lqLqtQ~aXscq0x4DJ0vcua" x1="10.313" x2="27.596" y1="21.679" y2="34.559" gradientUnits="userSpaceOnUse"><stop offset="0" stop-color="#fed100"/><stop offset=".252" stop-color="#fdcb00"/><stop offset=".489" stop-color="#f9ba00"/><stop offset="1" stop-color="#e36001"/></linearGradient><path fill="url(#lqLqtQ~aXscq0x4DJ0vcua)" d="M14.819,10.901c-0.012-0.041-0.019-0.115-0.019-0.169c0-0.404,0.328-0.732,0.734-0.732	c0.173,0,0.293,0.064,0.34,0.083c0.897,0.35,7.055,3.247,5.631,11.625c2.068-1.244,1.328-3.658,2.005-3.658	c0.254,0,0.358,0.095,0.514,0.317C26.287,21.587,28,25.43,28,29.025C28,35.086,23.075,40,17,40c-6.68,0-11-5.614-11-10.975	C6,20.108,16.533,18.461,14.819,10.901z"/><path fill="#343434" d="M35.999,12.017c-0.142,0-0.285-0.03-0.422-0.094c-0.501-0.233-0.717-0.829-0.483-1.329	c0.497-1.064,0.596-2.011,0.296-2.813c-0.469-1.25-1.776-1.842-1.789-1.847c-0.503-0.223-0.734-0.811-0.515-1.315	c0.22-0.503,0.804-0.739,1.308-0.521c0.085,0.036,2.078,0.91,2.858,2.955c0.508,1.331,0.392,2.807-0.346,4.387	C36.736,11.804,36.376,12.017,35.999,12.017z"/><linearGradient id="lqLqtQ~aXscq0x4DJ0vcub" x1="24.5" x2="24.5" y1="-5.833" y2="47.004" gradientUnits="userSpaceOnUse"><stop offset="0" stop-color="#f44f5a"/><stop offset=".443" stop-color="#ee3d4a"/><stop offset="1" stop-color="#e52030"/></linearGradient><path fill="url(#lqLqtQ~aXscq0x4DJ0vcub)" d="M43.997,17.09C43.997,17.059,44,17.031,44,17c0-0.484-0.046-0.876-0.128-1.193	C43.208,11.909,39.855,8.959,35.838,9c-4.463,0.046-8.044,3.76-7.999,8.297c0.029,2.932-0.284,5.769-1.04,8.459	c-0.768,2.677-2.039,5.173-3.917,7.375c-1.89,2.174-4.402,4.019-7.321,5.346c-1.457,0.665-3.007,1.215-4.615,1.633	c-0.804,0.208-1.622,0.385-2.451,0.532c-0.414,0.071-0.831,0.136-1.25,0.192l-0.632,0.076l-0.323,0.034l-0.393,0.033	c-0.374,0.032-0.714,0.284-0.844,0.668c-0.176,0.52,0.096,1.085,0.608,1.264l0.236,0.083l0.096,0.034l0.159,0.039l0.325,0.077	l0.665,0.146c0.446,0.093,0.895,0.175,1.346,0.251c0.903,0.147,1.816,0.261,2.739,0.339c0.924,0.076,1.857,0.114,2.798,0.112L14,44	c0.273,0,0.75-0.009,1.383-0.044c0.491-0.022,0.984-0.054,1.478-0.098c0.597-0.053,1.198-0.133,1.801-0.224	c8.447-1.166,24.82-6.013,25.309-25.74c0.02-0.251,0.031-0.505,0.029-0.762C43.999,17.117,43.997,17.104,43.997,17.09z"/></svg>