<svg xmlns="http://www.w3.org/2000/svg" id="Layer_1" x="0" y="0" version="1.1" viewBox="0 0 48 48" xml:space="preserve"><linearGradient id="SVGID_1_" x1="8.663" x2="38.122" y1="354.059" y2="378.915" gradientTransform="translate(0 -346)" gradientUnits="userSpaceOnUse"><stop offset="0" stop-color="#a1aab3"/><stop offset="1" stop-color="#8f979e"/></linearGradient><path fill="url(#SVGID_1_)" d="M41,35H7c-1.1,0-2-0.9-2-2V9c0-1.1,0.9-2,2-2h34c1.1,0,2,0.9,2,2v24C43,34.1,42.1,35,41,35z"/><radialGradient id="SVGID_2_" cx="327.146" cy="703.79" r="86.245" gradientTransform="matrix(.8095 0 0 .7188 -217.742 -446.95)" gradientUnits="userSpaceOnUse"><stop offset=".323" stop-color="#23d9d6"/><stop offset=".427" stop-color="#23d4d7"/><stop offset=".542" stop-color="#21c7dc"/><stop offset=".664" stop-color="#1fb0e2"/><stop offset=".789" stop-color="#1c91ec"/><stop offset=".917" stop-color="#1969f8"/><stop offset=".944" stop-color="#1860fb"/></radialGradient><rect width="34" height="24" x="7" y="9" fill="url(#SVGID_2_)"/><path d="M18.4,26.4c-0.4,0-0.7-0.1-1-0.4l-4-4c-0.6-0.6-0.6-1.4,0-2l4-4c0.3-0.3,0.6-0.4,1-0.4s0.7,0.1,1,0.4l0.8,0.8	c0.6,0.6,0.6,1.4,0,2L18.1,21l2.1,2.1c0.6,0.6,0.6,1.4,0,2L19.4,26C19.1,26.2,18.8,26.4,18.4,26.4z" opacity=".05"/><path d="M19.9,17.2L19,16.4c-0.2-0.2-0.4-0.3-0.6-0.3s-0.5,0.1-0.6,0.3l-4,4c-0.4,0.4-0.4,0.9,0,1.3l4,4	c0.2,0.2,0.4,0.3,0.6,0.3s0.5-0.1,0.6-0.3l0.8-0.8c0.4-0.4,0.4-0.9,0-1.3L17.4,21l2.5-2.5C20.2,18.2,20.2,17.6,19.9,17.2z" opacity=".07"/><path d="M29.6,26.4c-0.4,0-0.7-0.1-1-0.4l-0.8-0.8c-0.6-0.6-0.6-1.4,0-2l2.1-2.1l-2.1-2.1c-0.6-0.6-0.6-1.4,0-2	l0.8-0.8c0.3-0.3,0.6-0.4,1-0.4s0.7,0.1,1,0.4l4,4c0.6,0.6,0.6,1.4,0,2l-4,4C30.4,26.2,30,26.4,29.6,26.4z" opacity=".05"/><path d="M34.2,20.4l-4-4c-0.2-0.2-0.4-0.3-0.6-0.3s-0.5,0.1-0.6,0.3l-0.8,0.8c-0.4,0.4-0.4,0.9,0,1.3l2.5,2.5l-2.5,2.5	c-0.4,0.4-0.4,0.9,0,1.3l0.8,0.8c0.2,0.2,0.4,0.3,0.6,0.3s0.5-0.1,0.6-0.3l4-4C34.6,21.3,34.6,20.7,34.2,20.4z" opacity=".07"/><linearGradient id="SVGID_3_" x1="24" x2="24" y1="380.985" y2="388.014" gradientTransform="translate(0 -346)" gradientUnits="userSpaceOnUse"><stop offset="0" stop-color="#484b4f"/><stop offset=".23" stop-color="#656d75"/><stop offset=".367" stop-color="#727d86"/></linearGradient><path fill="url(#SVGID_3_)" d="M33,38h-5v-3h-8v3h-5c-0.6,0-1,0.4-1,1v2c0,0.6,0.4,1,1,1h18c0.6,0,1-0.4,1-1v-2C34,38.4,33.6,38,33,38z"/><path fill="#fff" d="M14.1,21.3l4,4c0.2,0.2,0.4,0.2,0.6,0l0.8-0.8c0.2-0.2,0.2-0.4,0-0.6l-4-4c-0.2-0.2-0.4-0.2-0.6,0l-0.8,0.8 C14,20.9,14,21.1,14.1,21.3z"/><path fill="#fff" d="M15.5,22.1l4-4c0.2-0.2,0.2-0.4,0-0.6l-0.8-0.8c-0.2-0.2-0.4-0.2-0.6,0l-4,4c-0.2,0.2-0.2,0.4,0,0.6l0.8,0.8 C15.1,22.3,15.4,22.3,15.5,22.1z"/><path fill="#fff" d="M33.9,21.3l-4,4c-0.2,0.2-0.4,0.2-0.6,0l-0.8-0.8c-0.2-0.2-0.2-0.4,0-0.6l4-4c0.2-0.2,0.4-0.2,0.6,0l0.8,0.8	C34,20.9,34,21.1,33.9,21.3z"/><path fill="#fff" d="M32.5,22.1l-4-4c-0.2-0.2-0.2-0.4,0-0.6l0.8-0.8c0.2-0.2,0.4-0.2,0.6,0l4,4c0.2,0.2,0.2,0.4,0,0.6L33,22.1	C32.9,22.3,32.6,22.3,32.5,22.1z"/><path d="M21.7,29.1c-0.4,0-0.8-0.2-1-0.5c-0.2-0.3-0.3-0.7-0.3-1.1L23.4,14c0.1-0.6,0.7-1.1,1.4-1.1h1.5	c0.4,0,0.8,0.2,1,0.5c0.2,0.3,0.3,0.7,0.3,1.1L24.6,28c-0.1,0.6-0.7,1.1-1.4,1.1H21.7z" opacity=".05"/><path d="M26.3,13.4h-1.5c-0.4,0-0.8,0.3-0.9,0.7l-2.9,13.5c-0.1,0.2,0,0.5,0.2,0.7c0.2,0.2,0.4,0.3,0.6,0.3h1.5	c0.4,0,0.8-0.3,0.9-0.7l2.9-13.5c0.1-0.2,0-0.5-0.2-0.7C26.7,13.5,26.5,13.4,26.3,13.4z" opacity=".07"/><path fill="#fff" d="M26.3,13.9h-1.5c-0.2,0-0.4,0.1-0.4,0.3l-2.9,13.5c0,0.2,0.1,0.4,0.3,0.4h1.5c0.2,0,0.4-0.1,0.4-0.3l2.9-13.5	C26.6,14.1,26.5,13.9,26.3,13.9z"/></svg>