<svg xmlns="http://www.w3.org/2000/svg" id="Layer_1" x="0" y="0" version="1.1" viewBox="0 0 48 48" xml:space="preserve"><linearGradient id="SVGID_1_" x1="7.196" x2="39.472" y1="1168.822" y2="1196.054" gradientTransform="translate(0 -1162)" gradientUnits="userSpaceOnUse"><stop offset="0" stop-color="#a1aab3"/><stop offset="1" stop-color="#8f979e"/></linearGradient><path fill="url(#SVGID_1_)" d="M43,36H5c-1.1,0-2-0.9-2-2V8c0-1.1,0.9-2,2-2h38c1.1,0,2,0.9,2,2v26C45,35.1,44.1,36,43,36z"/><linearGradient id="SVGID_2_" x1="24" x2="24" y1="1197.987" y2="1204.012" gradientTransform="translate(0 -1162)" gradientUnits="userSpaceOnUse"><stop offset="0" stop-color="#a1aab3"/><stop offset="1" stop-color="#8f979e"/></linearGradient><path fill="url(#SVGID_2_)" d="M33,40v-4H15v4L0,39.7V41c0,0.6,0.4,1,1,1h46c0.6,0,1-0.4,1-1v-1.3L33,40z"/><linearGradient id="SVGID_3_" x1="23.999" x2="23.999" y1="1197.991" y2="1202.008" gradientTransform="translate(0 -1162)" gradientUnits="userSpaceOnUse"><stop offset="0" stop-color="#484b4f"/><stop offset=".028" stop-color="#565b61"/><stop offset=".066" stop-color="#626a72"/><stop offset=".114" stop-color="#6b757d"/><stop offset=".181" stop-color="#717b84"/><stop offset=".367" stop-color="#727d86"/></linearGradient><path fill="url(#SVGID_3_)" d="M47.9,39.5L45,36.6c-0.4-0.4-0.9-0.6-1.4-0.6H4.4c-0.5,0-1,0.2-1.4,0.6l-2.9,2.9C-0.1,39.7,0,40,0.3,40h17.1	c0.4,0,0.7-0.2,0.9-0.6l0.4-0.9c0.2-0.3,0.5-0.6,0.9-0.6h8.8c0.4,0,0.7,0.2,0.9,0.6l0.4,0.9c0.2,0.3,0.5,0.6,0.9,0.6h17.1	C48,40,48.1,39.7,47.9,39.5z"/><radialGradient id="SVGID_4_" cx="42.958" cy="-437.269" r="34.553" gradientTransform="matrix(1 0 0 -1.0833 0 -439.5)" gradientUnits="userSpaceOnUse"><stop offset="0" stop-color="#9e6fd9"/><stop offset=".173" stop-color="#aa73c7"/><stop offset=".522" stop-color="#ca7f97"/><stop offset="1" stop-color="#fc914d"/></radialGradient><path fill="url(#SVGID_4_)" d="M43,8H5v26h38V8z"/><path d="M32,29c-2.9,0-5.5-1.5-6.9-4H17c-0.9,0.6-1.9,1-3,1c-2.8,0-5-2.2-5-5s2.2-5,5-5c1,0,2.1,0.3,2.9,1h8.2	c1.4-2.4,3.9-3.9,6.6-4l0.3,0c2.7,0,5.3,1.4,6.7,3.7c0.3,0.5,0.3,1.1,0.1,1.5C38.5,18.7,38,19,37.5,19h-3.3c-1.1,0-2.1,0.8-2.2,1.9	c0,0.6,0.2,1.1,0.5,1.5c0.4,0.4,0.9,0.6,1.5,0.6h3.5c0.5,0,1.1,0.3,1.3,0.8c0.3,0.5,0.2,1.1-0.1,1.5C37.2,27.6,34.7,29,32,29z" opacity=".05"/><path d="M32,28.5c-2.8,0-5.3-1.6-6.6-4h-8.6c-0.8,0.6-1.8,1-2.8,1c-2.5,0-4.5-2-4.5-4.5c0-2.5,2-4.5,4.5-4.5	c1,0,2,0.3,2.8,1h8.6c1.3-2.3,3.7-3.9,6.3-4l0.3,0c2.6,0,4.9,1.3,6.3,3.5c0.2,0.3,0.2,0.7,0,1c-0.2,0.3-0.5,0.5-0.9,0.5h-3.3	c-1.4,0-2.6,1.1-2.7,2.4c0,0.7,0.2,1.4,0.7,1.9c0.5,0.5,1.1,0.8,1.8,0.8h3.5c0.4,0,0.7,0.2,0.9,0.5c0.2,0.3,0.2,0.7,0,1	C36.9,27.2,34.6,28.5,32,28.5z" opacity=".07"/><linearGradient id="SVGID_5_" x1="10.007" x2="27.383" y1="21.009" y2="21.009" gradientUnits="userSpaceOnUse"><stop offset=".503" stop-color="#f7f7f7"/><stop offset=".658" stop-color="#ebebeb"/><stop offset=".796" stop-color="#e3e3e3"/><stop offset=".928" stop-color="#ccc"/><stop offset="1" stop-color="#d1d1d1"/></linearGradient><path fill="url(#SVGID_5_)" d="M27.4,18H16.6c-0.7-0.6-1.6-1-2.6-1c-2.2,0-4,1.8-4,4s1.8,4,4,4c1,0,1.9-0.4,2.6-1h10.8V18z"/><linearGradient id="SVGID_6_" x1="12" x2="16" y1="21" y2="21" gradientUnits="userSpaceOnUse"><stop offset="0" stop-color="#0061ac"/><stop offset=".363" stop-color="#005fa7"/><stop offset=".78" stop-color="#005698"/><stop offset="1" stop-color="#00518e"/></linearGradient><circle cx="14" cy="21" r="2" fill="url(#SVGID_6_)"/><linearGradient id="SVGID_7_" x1="25" x2="37.965" y1="21" y2="21" gradientUnits="userSpaceOnUse"><stop offset="0" stop-color="#fff"/><stop offset=".242" stop-color="#f2f2f2"/><stop offset="1" stop-color="#ccc"/></linearGradient><path fill="url(#SVGID_7_)" d="M34,24c-1.7,0-3.1-1.4-3-3.2c0.1-1.6,1.5-2.8,3.2-2.8l3.3,0c0.4,0,0.6-0.4,0.4-0.8c-1.3-2-3.6-3.3-6.1-3.2	c-3.7,0.1-6.7,3.2-6.7,6.9c-0.1,3.9,3.1,7.1,7,7.1c2.5,0,4.6-1.3,5.9-3.2c0.2-0.3,0-0.8-0.4-0.8H34z"/></svg>