<svg xmlns="http://www.w3.org/2000/svg" viewBox="0 0 48 48"><path fill="#ae4cd5" d="M36,6H12c-3.314,0-6,2.686-6,6v24c0,3.314,2.686,6,6,6h24c3.314,0,6-2.686,6-6V12	C42,8.686,39.314,6,36,6z"/><linearGradient id="CrZKEob4grqPVxpzGsd6Ua" x1="8" x2="40" y1="24" y2="24" gradientUnits="userSpaceOnUse"><stop offset="0" stop-color="#7819a2"/><stop offset="1" stop-color="#771aa9"/></linearGradient><path fill="url(#CrZKEob4grqPVxpzGsd6Ua)" d="M36,40H12c-2.209,0-4-1.791-4-4V12c0-2.209,1.791-4,4-4h24c2.209,0,4,1.791,4,4v24	C40,38.209,38.209,40,36,40z"/><path fill="#fff" d="M15,15.607c0-0.26,0.192-0.476,0.451-0.498c0.547-0.046,1.652-0.109,3.628-0.109 c3.588,0,6.101,1.423,6.101,5.317c0,3.512-2.391,5.573-6.249,5.573c-0.225,0-0.45,0-1.216,0v5.561c0,0.276-0.224,0.5-0.5,0.5H15.5 c-0.276,0-0.5-0.224-0.5-0.5V15.607z M17.715,22.919c0,0.275,0.22,0.498,0.495,0.5c0.359,0.002,0.808,0.005,0.959,0.005 c2.203,0,3.205-1.306,3.205-3.056c0-1.639-0.974-2.917-3.01-2.917c-0.435,0-0.862,0.013-1.173,0.025 c-0.268,0.011-0.476,0.232-0.476,0.5V22.919z"/><path fill="#fff" d="M33.207,23.267c-0.343-0.244-0.743-0.366-1.2-0.366c-0.619,0-1.104,0.297-1.452,0.892 c-0.35,0.595-0.523,1.404-0.523,2.428v5.278c0,0.276-0.224,0.5-0.5,0.5H27.68c-0.276,0-0.5-0.224-0.5-0.5v-11.1 c0-0.276,0.224-0.5,0.5-0.5h1.852c0.276,0,0.5,0.224,0.5,0.5v1.745h0.036c0.451-1.638,1.263-2.458,2.437-2.458 c0.3,0,0.535,0.047,0.703,0.142V23.267z"/></svg>