<svg xmlns="http://www.w3.org/2000/svg" viewBox="0 0 48 48"><path fill="#bd8215" d="M31,40V28h-4v13c0,1.105,0.895,2,2,2h2c0.552,0,1-0.448,1-1v-1C32,40.448,31.552,40,31,40z"/><path fill="#bd8215" d="M20,26c0-0.778-6.075-3.148-8-1c0,9-2,5-2,9v7c0,1.105,0.895,2,2,2h2c0.552,0,1-0.448,1-1v-1 c0-0.552-0.448-1-1-1v-5C14,35,20,32,20,26z"/><path fill="#bd8215" d="M11,22c-0.08,0-0.161-0.01-0.242-0.03C9.112,21.559,6,19.781,6,16c0-0.553,0.447-1,1-1s1,0.447,1,1	c0,3.149,3.114,3.996,3.247,4.031c0.532,0.139,0.855,0.682,0.72,1.215C11.852,21.698,11.446,22,11,22z"/><linearGradient id="secqWZz0YTdw45uT2Bdeca" x1="35.158" x2="36.17" y1="4.969" y2="21.656" gradientUnits="userSpaceOnUse"><stop offset="0" stop-color="#ffcf54"/><stop offset=".261" stop-color="#fdcb4d"/><stop offset=".639" stop-color="#f7c13a"/><stop offset="1" stop-color="#f0b421"/></linearGradient><path fill="url(#secqWZz0YTdw45uT2Bdeca)" d="M43.901,12.435l-0.003-0.009C43.959,12.295,44,12.154,44,12 c0-0.427-0.271-0.786-0.648-0.929l-3.737-1.686c0,0-0.376-1.385-2.514-1.385C35.279,8,34,8,34,8V5c0,0-3.154,0.635-3.154,4.385 l-3.499,5.589L35,22l1.692-5h3.846c0.496,0,0.934-0.249,1.198-0.627l0.003-0.002l0.003-0.006c0.056-0.082,0.105-0.169,0.144-0.262 L43.901,12.435z"/><linearGradient id="secqWZz0YTdw45uT2Bdecb" x1="15.088" x2="22.766" y1="-3.26" y2="41.991" gradientUnits="userSpaceOnUse"><stop offset="0" stop-color="#ffcf54"/><stop offset=".261" stop-color="#fdcb4d"/><stop offset=".639" stop-color="#f7c13a"/><stop offset="1" stop-color="#f0b421"/></linearGradient><path fill="url(#secqWZz0YTdw45uT2Bdecb)" d="M35,25v-3c0,0-6.741-8.455-8.443-5.857c-0.716,1.094-1.406,2.011-3.605,2.011H14 c-2.761,0-5,2.239-5,5V25c0,9-2,5-2,9v7c0,1.105,0.895,2,2,2h2c0.552,0,1-0.448,1-1v-1c0-0.552-0.448-1-1-1v-5 c0,0,3.329-1.668,5.027-5H29v11c0,1.105,0.895,2,2,2h2c0.552,0,1-0.448,1-1v-1c0-0.552-0.448-1-1-1V28.977 C34.208,28.065,35,26.63,35,25z"/><linearGradient id="secqWZz0YTdw45uT2Bdecc" x1="25.297" x2="36.637" y1="18.757" y2="18.757" gradientUnits="userSpaceOnUse"><stop offset="0" stop-color="#42a3f2"/><stop offset="1" stop-color="#42a4eb"/></linearGradient><path fill="url(#secqWZz0YTdw45uT2Bdecc)" d="M34.949,22.854l-9.431-5.817c-0.219-0.135-0.287-0.422-0.152-0.64l0.977-1.586	c0.135-0.219,0.422-0.287,0.641-0.152l9.431,5.817c0.219,0.135,0.287,0.422,0.152,0.64l-0.977,1.586	C35.455,22.921,35.168,22.989,34.949,22.854z"/></svg>