<svg xmlns="http://www.w3.org/2000/svg" viewBox="0 0 48 48"><linearGradient id="awWis2vehHWHkkxFArkBwa" x1="20.375" x2="28.748" y1="-573.061" y2="-602.946" gradientTransform="matrix(1 0 0 -1 0 -562)" gradientUnits="userSpaceOnUse"><stop offset="0" stop-color="#32bdef"/><stop offset="1" stop-color="#1ea2e4"/></linearGradient><path fill="url(#awWis2vehHWHkkxFArkBwa)" d="M43.125,9H4.875C3.287,9,2,10.287,2,11.875v24.25C2,37.713,3.287,39,4.875,39h38.25	C44.713,39,46,37.713,46,36.125v-24.25C46,10.287,44.713,9,43.125,9z"/><linearGradient id="awWis2vehHWHkkxFArkBwb" x1="2" x2="46" y1="-578" y2="-578" gradientTransform="matrix(1 0 0 -1 0 -562)" gradientUnits="userSpaceOnUse"><stop offset="0" stop-color="#45494d"/><stop offset="1" stop-color="#6d7479"/></linearGradient><rect width="44" height="4" x="2" y="14" fill="url(#awWis2vehHWHkkxFArkBwb)"/><path fill="#a8e7ff" d="M42,24H6c-0.552,0-1-0.448-1-1v-2c0-0.552,0.448-1,1-1h36c0.552,0,1,0.448,1,1v2	C43,23.552,42.552,24,42,24z"/><radialGradient id="awWis2vehHWHkkxFArkBwc" cx="37.532" cy="38.032" r="11.809" gradientUnits="userSpaceOnUse"><stop offset="0"/><stop offset=".979" stop-opacity="0"/></radialGradient><path fill="url(#awWis2vehHWHkkxFArkBwc)" d="M38,26c-6.617,0-12,5.383-12,12c0,0.338,0.023,0.669,0.051,1h17.074	C44.713,39,46,37.713,46,36.125v-7.044C43.874,27.172,41.075,26,38,26z"/><linearGradient id="awWis2vehHWHkkxFArkBwd" x1="31.136" x2="45.056" y1="-593.136" y2="-607.056" gradientTransform="matrix(1 0 0 -1 0 -562)" gradientUnits="userSpaceOnUse"><stop offset="0" stop-color="#fede00"/><stop offset="1" stop-color="#ffd000"/></linearGradient><circle cx="38" cy="38" r="10" fill="url(#awWis2vehHWHkkxFArkBwd)"/><circle cx="38" cy="38" r="8" fill="#f5be00"/><path fill="#fee119" d="M35.767,41.685v-1.49c0.541,0.331,1.117,0.497,1.728,0.497c0.46,0,0.82-0.109,1.079-0.328	c0.259-0.219,0.389-0.516,0.389-0.892c0-0.784-0.554-1.176-1.662-1.176c-0.361,0-0.797,0.033-1.309,0.099v-4.423h4.384v1.425h-2.893	v1.584c0.232-0.022,0.451-0.033,0.657-0.033c0.813,0,1.45,0.214,1.91,0.64c0.46,0.427,0.69,1.002,0.69,1.723	c0,0.798-0.274,1.451-0.823,1.957c-0.548,0.507-1.292,0.759-2.231,0.759C36.926,42.028,36.286,41.914,35.767,41.685z"/></svg>