<svg xmlns="http://www.w3.org/2000/svg" viewBox="0 0 48 48"><rect width="40" height="8.86" x="3" y="29.07" fill="#199be2"/><path fill="#0078d4" d="M43,37H3v5c0,1.105,0.895,2,2,2h36c1.105,0,2-0.895,2-2V37z"/><linearGradient id="i217h8DB1TeaNC2XrKdcTa" x1="23" x2="23" y1="1873.647" y2="1857.704" gradientTransform="translate(0 -1858)" gradientUnits="userSpaceOnUse"><stop offset="0" stop-color="#92a3b0"/><stop offset=".015" stop-color="#a3b5c4"/><stop offset=".032" stop-color="#aec2d1"/><stop offset=".046" stop-color="#b2c6d6"/></linearGradient><path fill="url(#i217h8DB1TeaNC2XrKdcTa)" d="M10,13v3h4v-3c0-4.971,4.029-9,9-9l0,0c4.971,0,9,4.029,9,9v3h4v-3c0-7.18-5.82-13-13-13l0,0	C15.82,0,10,5.82,10,13z"/><path fill="#50e6ff" d="M43,24H3v-6c0-1.105,0.895-2,2-2h36c1.105,0,2,0.895,2,2V24z"/><rect width="40" height="7" x="3" y="23" fill="#35c1f1"/><linearGradient id="i217h8DB1TeaNC2XrKdcTb" x1="23" x2="23" y1="1893.373" y2="1885.155" gradientTransform="translate(0 -1858)" gradientUnits="userSpaceOnUse"><stop offset="0" stop-color="#4b4b4b"/><stop offset="1" stop-color="#3b3b3b"/></linearGradient><path fill="url(#i217h8DB1TeaNC2XrKdcTb)" d="M26,29c0-1.657-1.343-3-3-3s-3,1.343-3,3c0,1.304,0.837,2.403,2,2.816V35c0,0.552,0.448,1,1,1	s1-0.448,1-1v-3.184C25.163,31.403,26,30.304,26,29z"/><path d="M43,34.96V42c0,1.1-0.9,2-2,2H26.27c0.05-0.09,0.09-0.14,0.11-0.17	l9.39-14.84C35.92,28.68,36.5,28,37.5,28c0.87,0,1.52,0.54,1.78,1.08L43,34.96z" opacity=".07"/><path d="M43,35.89V42c0,1.1-0.9,2-2,2H26.86l9.34-14.75	c0.12-0.25,0.56-0.75,1.3-0.75s1.18,0.5,1.33,0.8L43,35.89z" opacity=".07"/><linearGradient id="i217h8DB1TeaNC2XrKdcTc" x1="-128.064" x2="43.918" y1="1711.06" y2="1908.309" gradientTransform="translate(0 -1858)" gradientUnits="userSpaceOnUse"><stop offset="0" stop-color="#ffda1c"/><stop offset="1" stop-color="#feb705"/></linearGradient><path fill="url(#i217h8DB1TeaNC2XrKdcTc)" d="M47.817,44.435L38.38,29.521c0,0-0.254-0.521-0.88-0.521s-0.88,0.521-0.88,0.521	l-9.437,14.914c0,0-0.183,0.244-0.183,0.573C27,45.556,27.448,46,28,46h19c0.552,0,1-0.444,1-0.992	C48,44.679,47.817,44.435,47.817,44.435z"/><radialGradient id="i217h8DB1TeaNC2XrKdcTd" cx="34.889" cy="1872.088" r="10.021" gradientTransform="matrix(1 0 0 1.0323 0 -1898.663)" gradientUnits="userSpaceOnUse"><stop offset="0" stop-color="#4b4b4b"/><stop offset=".531" stop-color="#393939"/><stop offset="1" stop-color="#252525"/></radialGradient><path fill="url(#i217h8DB1TeaNC2XrKdcTd)" d="M37.506,44c-0.323,0-0.59-0.098-0.8-0.294s-0.315-0.433-0.315-0.712	c0-0.291,0.106-0.529,0.318-0.715C36.921,42.093,37.187,42,37.506,42c0.323,0,0.588,0.094,0.794,0.282	c0.206,0.188,0.309,0.425,0.309,0.712c0,0.291-0.102,0.531-0.306,0.721C38.099,43.905,37.833,44,37.506,44z M38.618,34.372	l-0.241,6.284C38.37,40.848,38.217,41,38.031,41h-1.09c-0.186,0-0.34-0.152-0.346-0.345l-0.228-6.284	C36.36,34.169,36.518,34,36.714,34h1.558C38.468,34,38.626,34.169,38.618,34.372z"/></svg>