<svg xmlns="http://www.w3.org/2000/svg" viewBox="0 0 48 48"><path fill="#50e6ff" d="M39,16v25c0,1.105-0.895,2-2,2H11c-1.105,0-2-0.895-2-2V7c0-1.105,0.895-2,2-2h17L39,16z"/><linearGradient id="vEmdnsJKuO7R2hnptwzbBa" x1="28.529" x2="33.6" y1="15.472" y2="10.4" gradientUnits="userSpaceOnUse"><stop offset="0" stop-color="#3079d6"/><stop offset="1" stop-color="#297cd2"/></linearGradient><path fill="url(#vEmdnsJKuO7R2hnptwzbBa)" d="M28,5v9c0,1.105,0.895,2,2,2h9L28,5z"/><linearGradient id="vEmdnsJKuO7R2hnptwzbBb" x1="28" x2="44.92" y1="38" y2="38" gradientUnits="userSpaceOnUse"><stop offset="0" stop-color="#912fbd"/><stop offset="1" stop-color="#9332bf"/></linearGradient><path fill="url(#vEmdnsJKuO7R2hnptwzbBb)" d="M38,28c-5.523,0-10,4.477-10,10c0,5.523,4.477,10,10,10c2.688,0,5.123-1.066,6.92-2.792L38,38	V28z"/><linearGradient id="vEmdnsJKuO7R2hnptwzbBc" x1="38" x2="48" y1="33" y2="33" gradientUnits="userSpaceOnUse"><stop offset="0" stop-color="#c965eb"/><stop offset="1" stop-color="#c767e5"/></linearGradient><path fill="url(#vEmdnsJKuO7R2hnptwzbBc)" d="M48,38c0-5.523-4.477-10-10-10v10H48z"/><linearGradient id="vEmdnsJKuO7R2hnptwzbBd" x1="38" x2="48" y1="41.604" y2="41.604" gradientUnits="userSpaceOnUse"><stop offset="0" stop-color="#ae4cd5"/><stop offset="1" stop-color="#ac4ad5"/></linearGradient><path fill="url(#vEmdnsJKuO7R2hnptwzbBd)" d="M48,38H38l6.92,7.208C46.815,43.389,48,40.835,48,38z"/></svg>