<svg xmlns="http://www.w3.org/2000/svg" data-name="Слой 1" viewBox="0 0 48 48"><defs><linearGradient id="1~pPDG4v2UaxqsFA6C4kRb" x1="23.029" x2="53.07" y1="8.928" y2="38.968" data-name="Безымянный градиент 66" gradientUnits="userSpaceOnUse"><stop offset="0" stop-color="#fed100"/><stop offset=".163" stop-color="#fdcb00"/><stop offset=".317" stop-color="#f9ba00"/><stop offset=".446" stop-color="#f29e00"/><stop offset=".863" stop-color="#e97701"/><stop offset="1" stop-color="#e36001"/></linearGradient><linearGradient id="1~pPDG4v2UaxqsFA6C4kRc" x1="2.333" x2="15.59" y1="14.037" y2="27.294" data-name="Безымянный градиент 123" gradientUnits="userSpaceOnUse"><stop offset="0" stop-color="#f44f5a"/><stop offset=".443" stop-color="#ee3d4a"/><stop offset="1" stop-color="#e52030"/></linearGradient><linearGradient id="1~pPDG4v2UaxqsFA6C4kRd" x1="18.348" x2="34.854" y1="30.044" y2="46.55" data-name="Новый образец градиентной зал 2" gradientUnits="userSpaceOnUse"><stop offset="0" stop-color="#2aa4f4"/><stop offset="1" stop-color="#007ad9"/></linearGradient><radialGradient id="1~pPDG4v2UaxqsFA6C4kRa" cx="36.87" cy="38.261" r="31.803" data-name="Безымянный градиент 65" gradientTransform="rotate(-.027 24.043 23.907)" gradientUnits="userSpaceOnUse"><stop offset="0" stop-color="#bfc8d1"/><stop offset=".489" stop-color="#d6e0e9"/><stop offset="1" stop-color="#dfe9f2"/></radialGradient><radialGradient id="1~pPDG4v2UaxqsFA6C4kRe" cx="24" cy="24" r="4" data-name="Безымянный градиент 67" gradientUnits="userSpaceOnUse"><stop offset=".764" stop-opacity=".2"/><stop offset="1" stop-opacity="0"/></radialGradient></defs><path fill="url(#1~pPDG4v2UaxqsFA6C4kRa)" d="M44,23.99052a19.91393,19.91393,0,0,1-7.06278,15.24334A19.84513,19.84513,0,0,1,24.00948,44a19.24038,19.24038,0,0,1-3.66013-.33829A20.0324,20.0324,0,0,1,4.34176,27.66929,19.23983,19.23983,0,0,1,4,24.00948c-.00021-.44.00959-.88.04936-1.32A19.972,19.972,0,0,1,23.99052,4,20.03054,20.03054,0,0,1,35.37221,7.55461a19.87236,19.87236,0,0,1,7.4746,9.76641A19.63886,19.63886,0,0,1,44,23.99052Z"/><path fill="url(#1~pPDG4v2UaxqsFA6C4kRb)" d="M42.84681,17.321,23.96,24.04l6.701-18.8932A20.00479,20.00479,0,0,1,42.84681,17.321Z"/><path fill="url(#1~pPDG4v2UaxqsFA6C4kRc)" d="M23.96,24.04,4.34176,27.66929A19.23983,19.23983,0,0,1,4,24.00948c-.00021-.44.00959-.88.04936-1.32A19.87609,19.87609,0,0,1,8.74387,11.07724Z"/><path fill="url(#1~pPDG4v2UaxqsFA6C4kRd)" d="M36.93722,39.23386A19.84513,19.84513,0,0,1,24.00948,44a19.24038,19.24038,0,0,1-3.66013-.33829L23.96,24.04Z"/><circle cx="24" cy="24" r="4" fill="url(#1~pPDG4v2UaxqsFA6C4kRe)"/><circle cx="24" cy="24" r="3" fill="#b31523"/></svg>