<svg xmlns="http://www.w3.org/2000/svg" viewBox="0 0 48 48"><linearGradient id="m0RVcVKxOm9s3avJrtVHLa" x1="23.998" x2="23.998" y1="13.897" y2="22.425" gradientUnits="userSpaceOnUse"><stop offset="0" stop-color="#ffd869"/><stop offset="1" stop-color="#fec52b"/></linearGradient><path fill="url(#m0RVcVKxOm9s3avJrtVHLa)" d="M42.98,20c-0.03,0.28-0.17,0.55-0.41,0.74L41,22H7l-1.58-1.26c-0.24-0.19-0.37-0.46-0.4-0.74	c-0.06-0.31,0.03-0.64,0.25-0.9l1.43-1.65C6.89,17.17,7.2,17,7.54,17h32.92c0.34,0,0.65,0.17,0.84,0.45l1.42,1.65	C42.95,19.36,43.03,19.69,42.98,20z"/><linearGradient id="m0RVcVKxOm9s3avJrtVHLb" x1="18.762" x2="29.168" y1="16.609" y2="45.2" gradientUnits="userSpaceOnUse"><stop offset="0" stop-color="#ffd869"/><stop offset="1" stop-color="#fec52b"/></linearGradient><rect width="32" height="18" x="8" y="22" fill="url(#m0RVcVKxOm9s3avJrtVHLb)"/><path fill="#eba600" d="M13,25h22c0.552,0,1,0.413,1,0.923v10.154C36,36.587,35.552,37,35,37H13c-0.552,0-1-0.413-1-0.923	V25.923C12,25.413,12.448,25,13,25z"/><linearGradient id="m0RVcVKxOm9s3avJrtVHLc" x1="4.839" x2="14.204" y1="21.737" y2="47.465" gradientUnits="userSpaceOnUse"><stop offset="0" stop-color="#ffd869"/><stop offset="1" stop-color="#fec52b"/></linearGradient><path fill="url(#m0RVcVKxOm9s3avJrtVHLc)" d="M7,21h3v21.5c0,0.276-0.224,0.5-0.5,0.5h-2C7.224,43,7,42.776,7,42.5V21z"/><linearGradient id="m0RVcVKxOm9s3avJrtVHLd" x1="33.204" x2="42.569" y1="14.497" y2="40.226" gradientUnits="userSpaceOnUse"><stop offset="0" stop-color="#ffd869"/><stop offset="1" stop-color="#fec52b"/></linearGradient><path fill="url(#m0RVcVKxOm9s3avJrtVHLd)" d="M38,21h3v21.5c0,0.276-0.224,0.5-0.5,0.5h-2c-0.276,0-0.5-0.224-0.5-0.5V21z"/><linearGradient id="m0RVcVKxOm9s3avJrtVHLe" x1="24" x2="24" y1="23.973" y2="38.117" gradientUnits="userSpaceOnUse"><stop offset="0" stop-color="#eba600"/><stop offset="1" stop-color="#c28200"/></linearGradient><path fill="url(#m0RVcVKxOm9s3avJrtVHLe)" d="M3,30h42c0.552,0,1,0.448,1,1v0c0,0.552-0.448,1-1,1H3c-0.552,0-1-0.448-1-1v0	C2,30.448,2.448,30,3,30z"/><path fill="#eba600" d="M42.98,20c-0.03,0.28-0.17,0.55-0.41,0.74L41,22H7l-1.58-1.26c-0.24-0.19-0.37-0.46-0.4-0.74H42.98z"/><path fill="#eba600" d="M15,9.5C15,8.672,14.328,8,13.5,8c-0.288,0-0.555,0.085-0.783,0.226l-0.001-0.005l-0.05,0.032	c-0.003,0.002-0.006,0.004-0.009,0.006L11,10l-2,4v3h7l-2.952-2.952C17,14,21,13,23,10h-8.092C14.964,9.843,15,9.676,15,9.5z"/><path fill="#eba600" d="M37,10l-1.658-1.741c-0.003-0.002-0.006-0.004-0.009-0.006l-0.05-0.032l-0.001,0.005	C35.055,8.085,34.788,8,34.5,8C33.672,8,33,8.672,33,9.5c0,0.176,0.036,0.343,0.092,0.5H25c2,3,6,4,9.952,4.048L32,17h7v-3L37,10z"/><path fill="#eba600" d="M40,33L40,33c-0.552,0-1-0.448-1-1v-2c0-0.552,0.448-1,1-1l0,0c0.552,0,1,0.448,1,1v2	C41,32.552,40.552,33,40,33z"/><path fill="#eba600" d="M8,33L8,33c-0.552,0-1-0.448-1-1v-2c0-0.552,0.448-1,1-1h0c0.552,0,1,0.448,1,1v2	C9,32.552,8.552,33,8,33z"/></svg>