<svg xmlns="http://www.w3.org/2000/svg" viewBox="0 0 48 48"><linearGradient id="P-lMrZRIWPejmhZWuSm4Qa" x1="10.266" x2="38.175" y1="39.957" y2="12.048" gradientTransform="matrix(1 0 0 -1 0 50)" gradientUnits="userSpaceOnUse"><stop offset="0" stop-color="#dfe9f2"/><stop offset=".998" stop-color="#9ea7b0"/></linearGradient><path fill="url(#P-lMrZRIWPejmhZWuSm4Qa)" d="M44.223,24c0-2.467-0.468-4.818-1.284-7H5.507c-0.816,2.182-1.284,4.533-1.284,7	s0.468,4.818,1.284,7h37.431C43.755,28.818,44.223,26.467,44.223,24z"/><linearGradient id="P-lMrZRIWPejmhZWuSm4Qb" x1="6.175" x2="34.252" y1="35.776" y2="7.698" gradientTransform="matrix(1 0 0 -1 0 50)" gradientUnits="userSpaceOnUse"><stop offset="0" stop-color="#0d61a9"/><stop offset="1" stop-color="#16528c"/></linearGradient><path fill="url(#P-lMrZRIWPejmhZWuSm4Qb)" d="M42.939,31H5.507c2.841,7.588,10.137,13,18.716,13S40.098,38.588,42.939,31z"/><linearGradient id="P-lMrZRIWPejmhZWuSm4Qc" x1="14.52" x2="42.482" y1="43.976" y2="16.014" gradientTransform="matrix(1 0 0 -1 0 50)" gradientUnits="userSpaceOnUse"><stop offset=".008" stop-color="#f44f5a"/><stop offset=".447" stop-color="#ee3d4a"/><stop offset="1" stop-color="#e52030"/></linearGradient><path fill="url(#P-lMrZRIWPejmhZWuSm4Qc)" d="M24.223,4C15.644,4,8.348,9.412,5.507,17h37.431C40.098,9.412,32.802,4,24.223,4z"/></svg>