<svg xmlns="http://www.w3.org/2000/svg" viewBox="0 0 48 48"><linearGradient id="lGV0W3YDwVPErX5lA5Qf8a" x1="35" x2="45" y1="11" y2="11" gradientUnits="userSpaceOnUse"><stop offset="0" stop-color="#636363"/><stop offset="1" stop-color="#444"/></linearGradient><path fill="url(#lGV0W3YDwVPErX5lA5Qf8a)" d="M45,14H35V9c0-0.552,0.448-1,1-1h4c2.761,0,5,2.239,5,5V14z"/><linearGradient id="lGV0W3YDwVPErX5lA5Qf8b" x1="35" x2="45" y1="11" y2="11" gradientTransform="matrix(-1 0 0 1.1667 48 -1.333)" gradientUnits="userSpaceOnUse"><stop offset="0" stop-color="#636363"/><stop offset="1" stop-color="#444"/></linearGradient><path fill="url(#lGV0W3YDwVPErX5lA5Qf8b)" d="M3,15h10V9c0-0.552-0.448-1-1-1H8c-2.761,0-5,2.239-5,5V15z"/><linearGradient id="lGV0W3YDwVPErX5lA5Qf8c" x1="52.969" x2="53.469" y1="24" y2="24" gradientUnits="userSpaceOnUse"><stop offset="0" stop-color="#444"/><stop offset="1" stop-color="#636363"/></linearGradient><path fill="url(#lGV0W3YDwVPErX5lA5Qf8c)" d="M40,38H8c-2.761,0-5-2.239-5-5V15c0-2.761,2.239-5,5-5h32c2.761,0,5,2.239,5,5v18	C45,35.761,42.761,38,40,38z"/><linearGradient id="lGV0W3YDwVPErX5lA5Qf8d" x1="39.182" x2="40.577" y1="562.311" y2="534.804" gradientTransform="matrix(1 0 0 -1 0 572)" gradientUnits="userSpaceOnUse"><stop offset="0" stop-color="#f44f5a"/><stop offset=".443" stop-color="#ee3d4a"/><stop offset="1" stop-color="#e52030"/></linearGradient><path fill="url(#lGV0W3YDwVPErX5lA5Qf8d)" d="M35,38h6c2.209,0,4-1.671,4-3.733V13.733C45,11.671,43.209,10,41,10h-6V38z"/><path fill="#4fc3f7" d="M13,38H8c-2.761,0-5-2.09-5-4.667V14.667C3,12.09,5.239,10,8,10h5V38z"/><circle cx="40" cy="15" r="1" fill="none" stroke="#1d1d1b" stroke-miterlimit="10" opacity=".07"/><path fill="#1d1d1b" d="M40,14c0.552,0,1,0.448,1,1s-0.448,1-1,1s-1-0.448-1-1S39.448,14,40,14 M40,13 c-1.103,0-2,0.897-2,2s0.897,2,2,2s2-0.897,2-2S41.103,13,40,13L40,13z" opacity=".05"/><circle cx="38" cy="17" r="1" fill="none" stroke="#1d1d1b" stroke-miterlimit="10" opacity=".07"/><path fill="#1d1d1b" d="M38,16c0.552,0,1,0.448,1,1s-0.448,1-1,1s-1-0.448-1-1S37.448,16,38,16 M38,15 c-1.103,0-2,0.897-2,2s0.897,2,2,2s2-0.897,2-2S39.103,15,38,15L38,15z" opacity=".05"/><circle cx="40" cy="19" r="1" fill="none" stroke="#1d1d1b" stroke-miterlimit="10" opacity=".07"/><path fill="#1d1d1b" d="M40,18c0.552,0,1,0.448,1,1s-0.448,1-1,1s-1-0.448-1-1S39.448,18,40,18 M40,17 c-1.103,0-2,0.897-2,2s0.897,2,2,2s2-0.897,2-2S41.103,17,40,17L40,17z" opacity=".05"/><circle cx="42" cy="17" r="1" fill="none" stroke="#1d1d1b" stroke-miterlimit="10" opacity=".07"/><path fill="#1d1d1b" d="M42,16c0.552,0,1,0.448,1,1s-0.448,1-1,1s-1-0.448-1-1S41.448,16,42,16 M42,15 c-1.103,0-2,0.897-2,2s0.897,2,2,2s2-0.897,2-2S43.103,15,42,15L42,15z" opacity=".05"/><circle cx="40" cy="26" r="2" fill="none" stroke="#1d1d1b" stroke-miterlimit="10" opacity=".07"/><path fill="#1d1d1b" d="M40,24c1.105,0,2,0.895,2,2s-0.895,2-2,2s-2-0.895-2-2S38.895,24,40,24 M40,23 c-1.654,0-3,1.346-3,3s1.346,3,3,3s3-1.346,3-3S41.654,23,40,23L40,23z" opacity=".05"/><circle cx="8" cy="25" r="1" fill="none" stroke="#1d1d1b" stroke-miterlimit="10" opacity=".07"/><path fill="#1d1d1b" d="M8,24c0.552,0,1,0.448,1,1s-0.448,1-1,1s-1-0.448-1-1S7.448,24,8,24 M8,23c-1.103,0-2,0.897-2,2 s0.897,2,2,2s2-0.897,2-2S9.103,23,8,23L8,23z" opacity=".05"/><linearGradient id="lGV0W3YDwVPErX5lA5Qf8e" x1="39.87" x2="40.123" y1="557.928" y2="556.124" gradientTransform="matrix(1 0 0 -1 0 572)" gradientUnits="userSpaceOnUse"><stop offset="0" stop-color="#636363"/><stop offset="1" stop-color="#444"/></linearGradient><circle cx="40" cy="15" r="1" fill="url(#lGV0W3YDwVPErX5lA5Qf8e)"/><linearGradient id="lGV0W3YDwVPErX5lA5Qf8f" x1="37.87" x2="38.123" y1="555.928" y2="554.124" gradientTransform="matrix(1 0 0 -1 0 572)" gradientUnits="userSpaceOnUse"><stop offset="0" stop-color="#636363"/><stop offset="1" stop-color="#444"/></linearGradient><circle cx="38" cy="17" r="1" fill="url(#lGV0W3YDwVPErX5lA5Qf8f)"/><linearGradient id="lGV0W3YDwVPErX5lA5Qf8g" x1="39.87" x2="40.123" y1="553.928" y2="552.124" gradientTransform="matrix(1 0 0 -1 0 572)" gradientUnits="userSpaceOnUse"><stop offset="0" stop-color="#636363"/><stop offset="1" stop-color="#444"/></linearGradient><circle cx="40" cy="19" r="1" fill="url(#lGV0W3YDwVPErX5lA5Qf8g)"/><linearGradient id="lGV0W3YDwVPErX5lA5Qf8h" x1="41.87" x2="42.123" y1="555.928" y2="554.124" gradientTransform="matrix(1 0 0 -1 0 572)" gradientUnits="userSpaceOnUse"><stop offset="0" stop-color="#636363"/><stop offset="1" stop-color="#444"/></linearGradient><circle cx="42" cy="17" r="1" fill="url(#lGV0W3YDwVPErX5lA5Qf8h)"/><circle cx="6" cy="27" r="1" fill="none" stroke="#1d1d1b" stroke-miterlimit="10" opacity=".07"/><path fill="#1d1d1b" d="M6,26c0.552,0,1,0.448,1,1s-0.448,1-1,1s-1-0.448-1-1S5.448,26,6,26 M6,25c-1.103,0-2,0.897-2,2 s0.897,2,2,2s2-0.897,2-2S7.103,25,6,25L6,25z" opacity=".05"/><linearGradient id="lGV0W3YDwVPErX5lA5Qf8i" x1="39.707" x2="40.263" y1="547.943" y2="544.252" gradientTransform="matrix(1 0 0 -1 0 572)" gradientUnits="userSpaceOnUse"><stop offset="0" stop-color="#636363"/><stop offset="1" stop-color="#444"/></linearGradient><circle cx="40" cy="26" r="2" fill="url(#lGV0W3YDwVPErX5lA5Qf8i)"/><circle cx="8" cy="29" r="1" fill="none" stroke="#1d1d1b" stroke-miterlimit="10" opacity=".07"/><path fill="#1d1d1b" d="M8,28c0.552,0,1,0.448,1,1s-0.448,1-1,1s-1-0.448-1-1S7.448,28,8,28 M8,27c-1.103,0-2,0.897-2,2 s0.897,2,2,2s2-0.897,2-2S9.103,27,8,27L8,27z" opacity=".05"/><circle cx="10" cy="27" r="1" fill="none" stroke="#1d1d1b" stroke-miterlimit="10" opacity=".07"/><path fill="#1d1d1b" d="M10,26c0.552,0,1,0.448,1,1s-0.448,1-1,1s-1-0.448-1-1S9.448,26,10,26 M10,25c-1.103,0-2,0.897-2,2 s0.897,2,2,2s2-0.897,2-2S11.103,25,10,25L10,25z" opacity=".05"/><circle cx="8" cy="18" r="2" fill="none" stroke="#1d1d1b" stroke-miterlimit="10" opacity=".07"/><path fill="#1d1d1b" d="M8,16c1.105,0,2,0.895,2,2s-0.895,2-2,2s-2-0.895-2-2S6.895,16,8,16 M8,15c-1.654,0-3,1.346-3,3 s1.346,3,3,3s3-1.346,3-3S9.654,15,8,15L8,15z" opacity=".05"/><linearGradient id="lGV0W3YDwVPErX5lA5Qf8j" x1="7.87" x2="8.123" y1="547.928" y2="546.124" gradientTransform="matrix(1 0 0 -1 0 572)" gradientUnits="userSpaceOnUse"><stop offset="0" stop-color="#636363"/><stop offset="1" stop-color="#444"/></linearGradient><circle cx="8" cy="25" r="1" fill="url(#lGV0W3YDwVPErX5lA5Qf8j)"/><linearGradient id="lGV0W3YDwVPErX5lA5Qf8k" x1="5.87" x2="6.123" y1="545.928" y2="544.124" gradientTransform="matrix(1 0 0 -1 0 572)" gradientUnits="userSpaceOnUse"><stop offset="0" stop-color="#636363"/><stop offset="1" stop-color="#444"/></linearGradient><circle cx="6" cy="27" r="1" fill="url(#lGV0W3YDwVPErX5lA5Qf8k)"/><linearGradient id="lGV0W3YDwVPErX5lA5Qf8l" x1="7.87" x2="8.123" y1="543.928" y2="542.124" gradientTransform="matrix(1 0 0 -1 0 572)" gradientUnits="userSpaceOnUse"><stop offset="0" stop-color="#636363"/><stop offset="1" stop-color="#444"/></linearGradient><circle cx="8" cy="29" r="1" fill="url(#lGV0W3YDwVPErX5lA5Qf8l)"/><linearGradient id="lGV0W3YDwVPErX5lA5Qf8m" x1="9.87" x2="10.123" y1="545.928" y2="544.124" gradientTransform="matrix(1 0 0 -1 0 572)" gradientUnits="userSpaceOnUse"><stop offset="0" stop-color="#636363"/><stop offset="1" stop-color="#444"/></linearGradient><circle cx="10" cy="27" r="1" fill="url(#lGV0W3YDwVPErX5lA5Qf8m)"/><linearGradient id="lGV0W3YDwVPErX5lA5Qf8n" x1="7.65" x2="8.307" y1="556.032" y2="552.215" gradientTransform="matrix(1 0 0 -1 0 572)" gradientUnits="userSpaceOnUse"><stop offset="0" stop-color="#636363"/><stop offset="1" stop-color="#444"/></linearGradient><circle cx="8" cy="18" r="2" fill="url(#lGV0W3YDwVPErX5lA5Qf8n)"/><radialGradient id="lGV0W3YDwVPErX5lA5Qf8o" cx="24.769" cy="26.433" r="21.032" fx="27.348" fy="32.997" gradientTransform="matrix(1 0 0 1.0575 0 -2.629)" gradientUnits="userSpaceOnUse"><stop offset=".323" stop-color="#23d9d6"/><stop offset=".427" stop-color="#23d4d7"/><stop offset=".542" stop-color="#21c7dc"/><stop offset=".664" stop-color="#1fb0e2"/><stop offset=".789" stop-color="#1c91ec"/><stop offset=".917" stop-color="#1969f8"/><stop offset=".944" stop-color="#1860fb"/></radialGradient><rect width="18" height="24" x="15" y="12" fill="url(#lGV0W3YDwVPErX5lA5Qf8o)"/></svg>