<svg xmlns="http://www.w3.org/2000/svg" xmlns:xlink="http://www.w3.org/1999/xlink" data-name="Слой 1" viewBox="0 0 48 48"><defs><linearGradient id="t4BUGb59j4lVkCn9V7Ir9b" x1="24" x2="24" y1="-2.217" y2="48.065" gradientUnits="userSpaceOnUse"><stop offset="0" stop-color="#a8e2f7"/><stop offset="1" stop-color="#47c1ff"/></linearGradient><linearGradient id="t4BUGb59j4lVkCn9V7Ir9c" x1="24" x2="24" y1="-10.533" y2="29.95" data-name="Новый образец градиентной зал 2" gradientUnits="userSpaceOnUse"><stop offset="0" stop-color="#2aa4f4"/><stop offset="1" stop-color="#007ad9"/></linearGradient><linearGradient id="t4BUGb59j4lVkCn9V7Ir9a" x1="16.188" x2="21.111" y1="-1301.866" y2="-1315.392" gradientTransform="matrix(1 0 0 -1 0 -1284)" gradientUnits="userSpaceOnUse"><stop offset="0" stop-color="#7b83eb"/><stop offset="1" stop-color="#5961c3"/></linearGradient><linearGradient id="t4BUGb59j4lVkCn9V7Ir9d" x1="25.19" x2="30.391" y1="-1310.187" y2="-1324.477" xlink:href="#t4BUGb59j4lVkCn9V7Ir9a"/></defs><path fill="url(#t4BUGb59j4lVkCn9V7Ir9b)" d="M24,3,6,20V41a1.99947,1.99947,0,0,0,2,2H40a1.99947,1.99947,0,0,0,2-2V20Z"/><path style="isolation:isolate" d="M24,4a1.99525,1.99525,0,0,0-1.326.503L17.315,9.314,6,20v5.39L24,9.428,42,25.39V20L30.685,9.314,25.326,4.503A1.99525,1.99525,0,0,0,24,4Z" opacity=".05"/><path style="isolation:isolate" d="M24,3a2.00219,2.00219,0,0,0-1.326.5L17.315,8.284,6,18.909v5.359L24,8.397,42,24.268V18.909L30.685,8.284,25.326,3.5A2.00219,2.00219,0,0,0,24,3Z" opacity=".07"/><path fill="url(#t4BUGb59j4lVkCn9V7Ir9c)" d="M44.495,19.507,25.326,2.503a1.99929,1.99929,0,0,0-2.652,0L3.505,19.507a.99869.99869,0,0,0-.064,1.43l1.636,1.745a.9995.9995,0,0,0,1.39.067L24,7.428,41.533,22.75a1.0005,1.0005,0,0,0,1.39-.067l1.636-1.745A.99983.99983,0,0,0,44.495,19.507Z"/><path fill="#3940a4" d="M28.93652,27.999a2.4347,2.4347,0,0,1-1.72754-.71484L25.71582,25.791a2.44449,2.44449,0,0,1,3.457-3.457L30.666,23.82715a2.44336,2.44336,0,0,1-1.7295,4.17187Zm-1.49218-5.37988A1.44336,1.44336,0,0,0,26.42285,25.084L27.916,26.57715a1.44459,1.44459,0,0,0,2.043-2.043L28.46582,23.041A1.44014,1.44014,0,0,0,27.44434,22.61914Z"/><path fill="#5961c3" d="M28.49974,32a.49987.49987,0,0,1-.5-.49974V31.5L28,26.5a.5.5,0,0,1,1,0l-.00026,5A.49987.49987,0,0,1,28.5,32Z"/><path fill="#5961c3" d="M22,24.5a.49987.49987,0,0,1,.49974-.5H26.5a.5.5,0,0,1,0,1h-4a.49987.49987,0,0,1-.5-.49974Z"/><path fill="url(#t4BUGb59j4lVkCn9V7Ir9a)" d="M23,22H21.97561A4.7302,4.7302,0,0,0,17.75,19C15.13086,19,13,21.46728,13,24.5S15.13086,30,17.75,30a4.7302,4.7302,0,0,0,4.22561-3H23a1,1,0,0,0,1-1V23A1,1,0,0,0,23,22Zm-5.25,6C16.23364,28,15,26.42969,15,24.5S16.23364,21,17.75,21s2.75,1.57031,2.75,3.5S19.26636,28,17.75,28Z"/><circle cx="22.25" cy="24.5" r=".75" fill="#3940a4"/><path fill="url(#t4BUGb59j4lVkCn9V7Ir9d)" d="M31,31.02439V30a1,1,0,0,0-1-1H27a1,1,0,0,0-1,1v1.02439A4.7302,4.7302,0,0,0,23,35.25C23,37.86914,25.46729,40,28.5,40S34,37.86914,34,35.25A4.73021,4.73021,0,0,0,31,31.02439ZM28.5,38c-1.92993,0-3.5-1.23388-3.5-2.75s1.57007-2.75,3.5-2.75S32,33.73388,32,35.25,30.42993,38,28.5,38Z"/><circle cx="28.5" cy="30.75" r=".75" fill="#3940a4"/></svg>