<svg xmlns="http://www.w3.org/2000/svg" viewBox="0 0 48 48"><linearGradient id="rmzHahQqUQpjZS9DUhmQ7a" x1="22" x2="22" y1="6.217" y2="35.569" gradientUnits="userSpaceOnUse"><stop offset="0" stop-color="#a34f27"/><stop offset=".587" stop-color="#8b3817"/><stop offset="1" stop-color="#802d10"/></linearGradient><path fill="url(#rmzHahQqUQpjZS9DUhmQ7a)" d="M23,33h-2V8c0-0.552,0.448-1,1-1h0c0.552,0,1,0.448,1,1V33z"/><linearGradient id="rmzHahQqUQpjZS9DUhmQ7b" x1="24" x2="24" y1="21.25" y2="42.037" gradientUnits="userSpaceOnUse"><stop offset=".487" stop-color="#c26715"/><stop offset=".637" stop-color="#be6015"/><stop offset=".85" stop-color="#b54e16"/><stop offset=".979" stop-color="#ad3f16"/></linearGradient><path fill="url(#rmzHahQqUQpjZS9DUhmQ7b)" d="M41,25.589c0,0,0,0.001,0,0.002c-0.088-0.163-0.175-0.322-0.26-0.473	C40.343,24.404,40,23.788,40,23.25c0-0.83,0.421-1.25,1.25-1.25c0.28,0,0.75,0.13,0.75,1c0,0.552,0.447,1,1,1s1-0.448,1-1	c0-1.97-1.384-3-2.75-3C39.306,20,38,21.306,38,23.25c0,1.057,0.505,1.964,0.993,2.841C39.511,27.021,40,27.898,40,29	c0,2.479-1.632,3-3,3H9c-0.283,0.037-0.626-0.058-0.96-0.312c-0.332-0.25-0.627-0.633-0.838-1.068	c-0.426-0.875-0.534-1.951-0.238-2.935l0.005-0.016c0.071-0.234-0.04-0.491-0.268-0.597c-0.172-0.08-0.362-0.048-0.505,0.056	c0-0.002-0.001-0.005-0.001-0.007c0,0-0.015,0.012-0.041,0.032c0,0-0.001,0.001-0.001,0.001C5.784,27.451,3,29.832,3,34.5	c0,5,4,6.5,6,6.5h29c3,0,7-2,7-7C45,31.008,41,25.589,41,25.589z"/><linearGradient id="rmzHahQqUQpjZS9DUhmQ7c" x1="16.456" x2="25.435" y1="3.48" y2="28.149" gradientUnits="userSpaceOnUse"><stop offset="0" stop-color="#f44f5a"/><stop offset=".443" stop-color="#ee3d4a"/><stop offset="1" stop-color="#e52030"/></linearGradient><path fill="url(#rmzHahQqUQpjZS9DUhmQ7c)" d="M32.256,29H11c-0.811,0-1.312-0.913-0.83-1.557C12.744,24,12.744,14,10.164,10.557	C9.681,9.913,10.183,9,10.994,9H32.25c0.613,0,1.192,0.276,1.582,0.744c2.918,3.506,2.918,15.006,0.006,18.513	C33.449,28.725,32.869,29,32.256,29z"/><linearGradient id="rmzHahQqUQpjZS9DUhmQ7d" x1="18.072" x2="26.669" y1="10.734" y2="34.355" gradientUnits="userSpaceOnUse"><stop offset="0" stop-color="#dfe9f2"/><stop offset=".391" stop-color="#d6e0e9"/><stop offset="1" stop-color="#bfc8d1"/></linearGradient><path fill="url(#rmzHahQqUQpjZS9DUhmQ7d)" d="M30.817,28.256C30.428,28.725,29.848,29,29.235,29h-4.04c0.613,0,1.193-0.275,1.582-0.744	c2.912-3.506,2.912-15.006-0.006-18.513C26.381,9.276,25.801,9,25.189,9h4.04c0.613,0,1.192,0.276,1.582,0.744	C33.729,13.25,33.729,24.75,30.817,28.256z M23.81,9.744C23.421,9.276,22.841,9,22.229,9h-4.04c0.613,0,1.192,0.276,1.582,0.744	c2.918,3.506,2.918,15.006,0.006,18.513C19.388,28.725,18.808,29,18.195,29h4.04c0.613,0,1.193-0.275,1.582-0.744	C26.729,24.75,26.729,13.25,23.81,9.744z M16.872,9.744C16.482,9.276,15.903,9,15.29,9h-4.04c0.613,0,1.192,0.276,1.582,0.744	c2.918,3.506,2.918,15.006,0.006,18.513C12.449,28.725,11.869,29,11.256,29h4.04c0.613,0,1.193-0.275,1.582-0.744	C19.79,24.75,19.79,13.25,16.872,9.744z"/><linearGradient id="rmzHahQqUQpjZS9DUhmQ7e" x1="22.5" x2="22.5" y1="30.568" y2="32.602" gradientUnits="userSpaceOnUse"><stop offset="0" stop-color="#a34f27"/><stop offset=".587" stop-color="#8b3817"/><stop offset="1" stop-color="#802d10"/></linearGradient><rect width="20" height="2" x="12.5" y="31" fill="url(#rmzHahQqUQpjZS9DUhmQ7e)"/><linearGradient id="rmzHahQqUQpjZS9DUhmQ7f" x1="12.5" x2="12.5" y1="31.571" y2="36.227" gradientUnits="userSpaceOnUse"><stop offset="0" stop-color="#fed100"/><stop offset="1" stop-color="#e38101"/></linearGradient><circle cx="12.5" cy="33.5" r="2.5" fill="url(#rmzHahQqUQpjZS9DUhmQ7f)"/><linearGradient id="rmzHahQqUQpjZS9DUhmQ7g" x1="17.5" x2="17.5" y1="31.571" y2="36.227" gradientUnits="userSpaceOnUse"><stop offset="0" stop-color="#5961c3"/><stop offset="1" stop-color="#3a41ac"/></linearGradient><circle cx="17.5" cy="33.5" r="2.5" fill="url(#rmzHahQqUQpjZS9DUhmQ7g)"/><linearGradient id="rmzHahQqUQpjZS9DUhmQ7h" x1="22.5" x2="22.5" y1="31.571" y2="36.227" gradientUnits="userSpaceOnUse"><stop offset="0" stop-color="#fed100"/><stop offset="1" stop-color="#e38101"/></linearGradient><circle cx="22.5" cy="33.5" r="2.5" fill="url(#rmzHahQqUQpjZS9DUhmQ7h)"/><linearGradient id="rmzHahQqUQpjZS9DUhmQ7i" x1="27.5" x2="27.5" y1="31.571" y2="36.227" gradientUnits="userSpaceOnUse"><stop offset="0" stop-color="#5961c3"/><stop offset="1" stop-color="#3a41ac"/></linearGradient><circle cx="27.5" cy="33.5" r="2.5" fill="url(#rmzHahQqUQpjZS9DUhmQ7i)"/><linearGradient id="rmzHahQqUQpjZS9DUhmQ7j" x1="32.5" x2="32.5" y1="31.571" y2="36.227" gradientUnits="userSpaceOnUse"><stop offset="0" stop-color="#fed100"/><stop offset="1" stop-color="#e38101"/></linearGradient><circle cx="32.5" cy="33.5" r="2.5" fill="url(#rmzHahQqUQpjZS9DUhmQ7j)"/><path d="M35.65,32H34.5c0.31,0.41,0.5,0.94,0.5,1.5c0,1.38-1.12,2.5-2.5,2.5S30,34.88,30,33.5c0,1.38-1.12,2.5-2.5,2.5 S25,34.88,25,33.5c0,1.38-1.12,2.5-2.5,2.5S20,34.88,20,33.5c0,1.38-1.12,2.5-2.5,2.5S15,34.88,15,33.5c0,1.38-1.12,2.5-2.5,2.5 S10,34.88,10,33.5c0-0.56,0.19-1.09,0.5-1.5H9.35C9.12,32.45,9,32.96,9,33.5c0,1.93,1.57,3.5,3.5,3.5c0.98,0,1.86-0.4,2.5-1.05 C15.64,36.6,16.52,37,17.5,37s1.86-0.4,2.5-1.05C20.64,36.6,21.52,37,22.5,37s1.86-0.4,2.5-1.05C25.64,36.6,26.52,37,27.5,37 s1.86-0.4,2.5-1.05C30.64,36.6,31.52,37,32.5,37c1.93,0,3.5-1.57,3.5-3.5C36,32.96,35.88,32.45,35.65,32z" opacity=".05"/><path d="M35.1,32h-0.6c0.31,0.41,0.5,0.94,0.5,1.5c0,1.38-1.12,2.5-2.5,2.5S30,34.88,30,33.5c0,1.38-1.12,2.5-2.5,2.5 S25,34.88,25,33.5c0,1.38-1.12,2.5-2.5,2.5S20,34.88,20,33.5c0,1.38-1.12,2.5-2.5,2.5S15,34.88,15,33.5c0,1.38-1.12,2.5-2.5,2.5 S10,34.88,10,33.5c0-0.56,0.19-1.09,0.5-1.5H9.9c-0.25,0.44-0.4,0.96-0.4,1.5c0,1.65,1.35,3,3,3c1.04,0,1.96-0.53,2.5-1.34 c0.54,0.81,1.46,1.34,2.5,1.34s1.96-0.53,2.5-1.34c0.54,0.81,1.46,1.34,2.5,1.34s1.96-0.53,2.5-1.34c0.54,0.81,1.46,1.34,2.5,1.34 s1.96-0.53,2.5-1.34c0.54,0.81,1.46,1.34,2.5,1.34c1.65,0,3-1.35,3-3C35.5,32.96,35.35,32.44,35.1,32z" opacity=".07"/></svg>