<svg xmlns="http://www.w3.org/2000/svg" id="Layer_1" x="0" y="0" version="1.1" viewBox="0 0 48 48" xml:space="preserve"><linearGradient id="SVGID_1_" x1="21.516" x2="45.592" y1="1049.638" y2="1085.673" gradientTransform="translate(0 -1032)" gradientUnits="userSpaceOnUse"><stop offset="0" stop-color="#28afea"/><stop offset="1" stop-color="#0b88da"/></linearGradient><path fill="url(#SVGID_1_)" d="M9,26l36-14.3V38c0,1.1-0.9,2-2,2H9V26z"/><linearGradient id="SVGID_2_" x1="1.408" x2="36.331" y1="1056.41" y2="1078.164" gradientTransform="translate(0 -1032)" gradientUnits="userSpaceOnUse"><stop offset="0" stop-color="#28afea"/><stop offset="1" stop-color="#0b88da"/></linearGradient><path fill="url(#SVGID_2_)" d="M3,11.7V38c0,1.1,0.9,2,2,2h38c0.5,0,0.9-0.2,1.3-0.5L3,11.7z"/><path d="M3,11h42v1.7L27.7,26.1c-2.2,1.7-5.2,1.7-7.4,0L3,12.7V11z" opacity=".05"/><path d="M3,10.5h42v1.7L27,25.3c-1.8,1.3-4.2,1.3-5.9,0L3,12.2V10.5z" opacity=".07"/><path fill="#50e6ff" d="M5,8h38c1.1,0,2,0.9,2,2v1.7L26.3,24.5c-1.4,0.9-3.1,0.9-4.5,0L3,11.7V10C3,8.9,3.9,8,5,8z"/><path d="M45,38v-4.8c-2-1.4-4.6-2.2-7.5-2.2C31.2,31,26,35,26,40h17C44.1,40,45,39.1,45,38z" opacity=".05"/><path d="M45,38v-4.2c-2-1.4-4.6-2.3-7.5-2.3c-6.1,0-11,3.8-11,8.5H43C44.1,40,45,39.1,45,38z" opacity=".07"/><radialGradient id="SVGID_3_" cx="-69.353" cy="1125.992" r="9.987" gradientTransform="matrix(1.1156 0 0 1.0625 114.939 -1158.876)" gradientUnits="userSpaceOnUse"><stop offset=".55" stop-color="#e4e4e6"/><stop offset=".73" stop-color="#e1e2e4"/><stop offset=".854" stop-color="#d8dadc"/><stop offset=".961" stop-color="#c9cdcf"/><stop offset="1" stop-color="#c1c6c9"/></radialGradient><ellipse cx="37.5" cy="40" fill="url(#SVGID_3_)" rx="10.5" ry="8"/><linearGradient id="SVGID_4_" x1="33.334" x2="41.784" y1="1150.379" y2="1158.829" gradientTransform="translate(0 -1116)" gradientUnits="userSpaceOnUse"><stop offset="0" stop-color="#32bdef"/><stop offset="1" stop-color="#1ea2e4"/></linearGradient><circle cx="37.5" cy="38.5" r="6.5" fill="url(#SVGID_4_)"/><radialGradient id="SVGID_5_" cx="35.411" cy="1149.358" r="9.202" gradientTransform="translate(0 -1116)" gradientUnits="userSpaceOnUse"><stop offset="0" stop-color="#4b4b4b"/><stop offset=".531" stop-color="#393939"/><stop offset="1" stop-color="#252525"/></radialGradient><circle cx="37.5" cy="38.5" r="3.5" fill="url(#SVGID_5_)"/><circle cx="36" cy="36" r="1.1" fill="#fff"/></svg>