<svg xmlns="http://www.w3.org/2000/svg" id="Layer_1" x="0" y="0" version="1.1" viewBox="0 0 48 48" xml:space="preserve"><linearGradient id="SVGID_1_" x1="-257.969" x2="-229.89" y1="-24.031" y2="-52.11" gradientTransform="rotate(90 -141 127)" gradientUnits="userSpaceOnUse"><stop offset="0" stop-color="#fede00"/><stop offset=".519" stop-color="#fecc00"/><stop offset="1" stop-color="#ffb700"/></linearGradient><path fill="url(#SVGID_1_)" d="M24,44c11,0,20-9,20-20S35,4,24,4S4,13,4,24S13,44,24,44z"/><circle cx="32" cy="22" r="4" fill="#fff"/><circle cx="32" cy="22" r="2" fill="#343434"/><circle cx="24" cy="36" r="4" fill="#343434"/><linearGradient id="SVGID_2_" x1="24" x2="24" y1="41.466" y2="38.011" gradientUnits="userSpaceOnUse"><stop offset="0" stop-color="#f05964"/><stop offset="1" stop-color="#d4414c"/></linearGradient><path fill="url(#SVGID_2_)" d="M24,40c1,0,1.9-0.4,2.6-0.9c-0.5-1-1.5-1.7-2.6-1.7s-2,0.7-2.6,1.7C22.1,39.6,23,40,24,40z"/><g><path fill="#343434" d="M14,26c-0.3,0-0.7-0.2-0.9-0.5c-0.3-0.5-0.1-1.1,0.3-1.4l3.6-2.1l-3.6-2.1c-0.5-0.3-0.6-0.9-0.3-1.4 s0.9-0.6,1.4-0.3l5,3c0.3,0.2,0.5,0.5,0.5,0.9s-0.2,0.7-0.5,0.9l-5,3C14.4,26,14.2,26,14,26z"/></g></svg>