<svg xmlns="http://www.w3.org/2000/svg" xmlns:xlink="http://www.w3.org/1999/xlink" data-name="Слой 1" viewBox="0 0 48 48"><defs><linearGradient id="KznxndhQkOdfIalcJoJLYa" x1="28.988" x2="32.662" y1="28.773" y2="20.608" data-name="Безымянный градиент 19" gradientUnits="userSpaceOnUse"><stop offset="0" stop-color="#ffcf54"/><stop offset=".261" stop-color="#fdcb4d"/><stop offset=".639" stop-color="#f7c13a"/><stop offset="1" stop-color="#f0b421"/></linearGradient><linearGradient id="KznxndhQkOdfIalcJoJLYb" x1="15.988" x2="19.662" y1="28.773" y2="20.608" xlink:href="#KznxndhQkOdfIalcJoJLYa"/><linearGradient id="KznxndhQkOdfIalcJoJLYc" x1="24" x2="24" y1="10.913" y2="27.676" data-name="Безымянный градиент 165" gradientUnits="userSpaceOnUse"><stop offset="0" stop-color="#5961c3"/><stop offset=".253" stop-color="#4d54ba"/><stop offset=".657" stop-color="#3f46b0"/><stop offset="1" stop-color="#3a41ac"/></linearGradient><linearGradient id="KznxndhQkOdfIalcJoJLYd" x1="17.69" x2="27.298" y1="11.608" y2="38.006" data-name="Безымянный градиент 58" gradientUnits="userSpaceOnUse"><stop offset="0" stop-color="#5961c3"/><stop offset="1" stop-color="#3a41ac"/></linearGradient><linearGradient id="KznxndhQkOdfIalcJoJLYe" x1="24" x2="24" y1="27.752" y2="24.38" data-name="Безымянный градиент 163" gradientUnits="userSpaceOnUse"><stop offset="0" stop-color="#f0b421"/><stop offset=".361" stop-color="#f7c13a"/><stop offset=".739" stop-color="#fdcb4d"/><stop offset="1" stop-color="#ffcf54"/></linearGradient><linearGradient id="KznxndhQkOdfIalcJoJLYf" x1="16.005" x2="31.235" y1="8.75" y2="8.75" xlink:href="#KznxndhQkOdfIalcJoJLYa"/><linearGradient id="KznxndhQkOdfIalcJoJLYg" x1="24.843" x2="23.618" y1="-245.844" y2="-247.121" data-name="Безымянный градиент 161" gradientTransform="matrix(1 0 0 -1 0 -240)" gradientUnits="userSpaceOnUse"><stop offset="0" stop-color="#e5a505"/><stop offset=".011" stop-color="#e9a804"/><stop offset=".061" stop-color="#f4b102"/><stop offset=".133" stop-color="#fbb600"/><stop offset=".331" stop-color="#fdb700"/></linearGradient><linearGradient id="KznxndhQkOdfIalcJoJLYh" x1="24.367" x2="23.178" y1="-245.846" y2="-247.086" data-name="Безымянный градиент 49" gradientTransform="matrix(1 0 0 -1 0 -240)" gradientUnits="userSpaceOnUse"><stop offset="0" stop-color="#fede00"/><stop offset="1" stop-color="#ffd000"/></linearGradient><linearGradient id="KznxndhQkOdfIalcJoJLYi" x1="24" x2="24" y1="17.13" y2="11.587" data-name="Новый образец градиентной зал 5" gradientUnits="userSpaceOnUse"><stop offset="0" stop-color="#f9f9f9"/><stop offset=".26" stop-color="#f0f1f2"/><stop offset=".678" stop-color="#d9dcdf"/><stop offset="1" stop-color="#c2c8cc"/></linearGradient></defs><ellipse cx="24" cy="5.5" fill="#5059c9" rx="6" ry="3.5"/><path fill="url(#KznxndhQkOdfIalcJoJLYa)" d="M32,21v8.5a1.5,1.5,0,0,1-3,0V21Z"/><path fill="url(#KznxndhQkOdfIalcJoJLYb)" d="M19,21v8.5a1.5,1.5,0,0,1-3,0V21Z"/><path fill="url(#KznxndhQkOdfIalcJoJLYc)" d="M25.334,14H22.667A6.6748,6.6748,0,0,0,16,20.667V28H32V20.667A6.67459,6.67459,0,0,0,25.334,14Z"/><path fill="url(#KznxndhQkOdfIalcJoJLYd)" d="M25,14H23a4.0002,4.0002,0,0,0-4,4v9l.941,16.064a1.00044,1.00044,0,0,0,.998.938H27.06a1.00034,1.00034,0,0,0,.998-.938L29,27V18A4.0002,4.0002,0,0,0,25,14Z"/><rect width="10" height="2" x="19" y="25" fill="#343434"/><rect width="4" height="2" x="22" y="25" fill="url(#KznxndhQkOdfIalcJoJLYe)" rx=".5"/><path fill="url(#KznxndhQkOdfIalcJoJLYf)" d="M28,7.9V8a4,4,0,0,1-8,0V7.9L20.01,7.89a3.78387,3.78387,0,0,1,.6-1.99A11.82543,11.82543,0,0,1,24,5.5a11.82543,11.82543,0,0,1,3.39.4A3.78387,3.78387,0,0,1,27.99,7.89Z"/><ellipse cx="24" cy="7.353" fill="#5059c9" rx="3.294" ry="1.647"/><path fill="#7b83eb" d="M28,6.36V7.9L27.99,7.89c-.05-.04-.61-.39-3.99-.39s-3.94.35-3.99.39L20,7.9V6.36c0-.17.22-.33.61-.46A11.82543,11.82543,0,0,1,24,5.5a11.82543,11.82543,0,0,1,3.39.4C27.78,6.03,28,6.19,28,6.36Z"/><path fill="url(#KznxndhQkOdfIalcJoJLYg)" d="M25,6l-1-.5v2h0a.99972.99972,0,0,0,1-1Z"/><path fill="url(#KznxndhQkOdfIalcJoJLYh)" d="M24,5.5,23,6v.5a.99972.99972,0,0,0,1,1h0Z"/><path fill="url(#KznxndhQkOdfIalcJoJLYi)" d="M25.97,14.04A6.22993,6.22993,0,0,1,24,18a6.22993,6.22993,0,0,1-1.97-3.96C22.35,14.01,22.67,14,23,14h2C25.33,14,25.65,14.01,25.97,14.04Z"/><path fill="#3a41ac" d="M23.005,14.49751l.49751.49751-.38856,2.03384A5.93779,5.93779,0,0,0,24,18a5.9304,5.9304,0,0,0,.88607-.97164L24.49751,14.995l.49751-.49751L24,14Z"/></svg>