<svg xmlns="http://www.w3.org/2000/svg" xmlns:xlink="http://www.w3.org/1999/xlink" data-name="Слой 1" viewBox="0 0 48 48"><defs><linearGradient id="o~bc7z6lbsMR88nm_MXhPc" x1="24" x2="24" y1="14.435" y2="30.222" data-name="Безымянный градиент 57" gradientUnits="userSpaceOnUse"><stop offset="0" stop-color="#889097"/><stop offset=".322" stop-color="#838c93"/><stop offset=".692" stop-color="#758089"/><stop offset="1" stop-color="#64717c"/></linearGradient><linearGradient id="o~bc7z6lbsMR88nm_MXhPa" x1="7.5" x2="7.5" y1="9.283" y2="34.591" data-name="Безымянный градиент 8" gradientUnits="userSpaceOnUse"><stop offset="0" stop-color="#dfe9f2"/><stop offset=".391" stop-color="#d6e0e9"/><stop offset="1" stop-color="#bfc8d1"/></linearGradient><linearGradient id="o~bc7z6lbsMR88nm_MXhPd" x1="40.5" x2="40.5" y1="9.283" y2="34.591" xlink:href="#o~bc7z6lbsMR88nm_MXhPa"/><linearGradient id="o~bc7z6lbsMR88nm_MXhPb" x1="14.239" x2="3.25" y1="26" y2="26" data-name="Безымянный градиент 76" gradientUnits="userSpaceOnUse"><stop offset="0" stop-color="#a8142e"/><stop offset=".179" stop-color="#ba1632"/><stop offset=".243" stop-color="#c21734"/></linearGradient><linearGradient id="o~bc7z6lbsMR88nm_MXhPe" x1="33.038" x2="46.551" y2="26" xlink:href="#o~bc7z6lbsMR88nm_MXhPb"/><linearGradient id="o~bc7z6lbsMR88nm_MXhPf" x1="14.949" x2="31.48" y1="2.372" y2="47.792" data-name="Безымянный градиент 88" gradientUnits="userSpaceOnUse"><stop offset="0" stop-color="#f44f5a"/><stop offset="1" stop-color="#e52030"/></linearGradient><linearGradient id="o~bc7z6lbsMR88nm_MXhPg" x1="20.984" x2="31.832" y1="22.984" y2="33.832" xlink:href="#o~bc7z6lbsMR88nm_MXhPa"/><linearGradient id="o~bc7z6lbsMR88nm_MXhPh" x1="24" x2="24" y1="17.696" y2="30.611" xlink:href="#o~bc7z6lbsMR88nm_MXhPc"/></defs><rect width="40" height="4" x="4" y="24" fill="url(#o~bc7z6lbsMR88nm_MXhPc)" rx="1"/><path fill="#b31523" d="M24,2h0a1,1,0,0,1,1,1V5a0,0,0,0,1,0,0H23a0,0,0,0,1,0,0V3a1,1,0,0,1,1-1Z"/><path fill="url(#o~bc7z6lbsMR88nm_MXhPa)" d="M8,21l1,5L8,31a2.00591,2.00591,0,0,1-2-2V23A2.00587,2.00587,0,0,1,8,21Z"/><path fill="url(#o~bc7z6lbsMR88nm_MXhPd)" d="M42,23v6a2.00591,2.00591,0,0,1-2,2l-1-5,1-5A2.00587,2.00587,0,0,1,42,23Z"/><path fill="url(#o~bc7z6lbsMR88nm_MXhPb)" d="M15,26l-1,7a2.00587,2.00587,0,0,0-2-2H8V21h4a2.00591,2.00591,0,0,0,2-2Z"/><path fill="url(#o~bc7z6lbsMR88nm_MXhPe)" d="M40,21V31H36a2.00587,2.00587,0,0,0-2,2l-1-7,1-7a2.00591,2.00591,0,0,0,2,2Z"/><path fill="url(#o~bc7z6lbsMR88nm_MXhPf)" d="M34,14.34V42H14V14A10.00279,10.00279,0,0,1,24.67,4.02,10.23529,10.23529,0,0,1,34,14.34Z"/><path d="M24,19a7,7,0,1,1-7,7,7,7,0,0,1,7-7m0-1a8,8,0,1,0,8,8,8.00906,8.00906,0,0,0-8-8Z" opacity=".05"/><path d="M24,19a7,7,0,1,1-7,7,7,7,0,0,1,7-7m0-.5A7.5,7.5,0,1,0,31.5,26,7.50851,7.50851,0,0,0,24,18.5Z" opacity=".07"/><circle cx="24" cy="26" r="7" fill="#f46b74"/><circle cx="24" cy="26" r="5" fill="url(#o~bc7z6lbsMR88nm_MXhPg)"/><path d="M24,24a2,2,0,1,1-2,2,2,2,0,0,1,2-2m0-1a3,3,0,1,0,3,3,3.00339,3.00339,0,0,0-3-3Z" opacity=".05"/><path d="M24,24a2,2,0,1,1-2,2,2,2,0,0,1,2-2m0-.5A2.5,2.5,0,1,0,26.5,26,2.50283,2.50283,0,0,0,24,23.5Z" opacity=".07"/><circle cx="24" cy="26" r="2" fill="url(#o~bc7z6lbsMR88nm_MXhPh)"/><rect width="22" height="2" x="13" y="13" fill="#b31523" rx="1"/><rect width="22" height="2" x="13" y="41" fill="#b31523" rx="1"/></svg>