<svg xmlns="http://www.w3.org/2000/svg" viewBox="0 0 48 48"><path fill="#fad500" d="M12,31v2H3.474C3.212,33,3,32.788,3,32.526v-1.051C3,31.212,3.212,31,3.474,31H12z"/><path fill="#33c481" d="M44.717,24.391c-0.732-0.835-0.917-1.924-0.641-3.01c0.091-0.25,0.091-0.669,0.091-1.003	c0-2.759-1.832-5.016-4.762-5.685c-1.008-0.251-1.74-0.835-2.199-1.672C36.198,10.929,34,9.509,31.345,9.509	c-1.191,0-2.29-0.418-3.114-1.088C27.039,7.501,25.575,7,24.017,7s-3.023,0.501-4.212,1.422c-0.824,0.669-1.923,1.088-3.114,1.088	c-2.656,0-4.947,1.506-5.955,3.594c-0.367,0.751-1.099,1.338-1.923,1.506c-3.115,0.669-4.947,3.01-4.947,5.769	c0,0.334,0,0.751,0.091,1.088c0.183,1.088,0,2.174-0.732,3.01c-1.008,1.253-1.467,2.843-1.1,4.599C3.014,31.16,4.933,32,4.933,32	h38.134c0,0,2.933-0.838,2.933-4.097C46,26.566,45.542,25.394,44.717,24.391z"/><linearGradient id="2SH77JggV1dxKG99m2mnMa" x1="38.232" x2="42.475" y1="18.611" y2="22.854" gradientTransform="rotate(-45.001 40 22.5)" gradientUnits="userSpaceOnUse"><stop offset="0" stop-color="#f44f5a"/><stop offset=".443" stop-color="#ee3d4a"/><stop offset="1" stop-color="#e52030"/></linearGradient><path fill="url(#2SH77JggV1dxKG99m2mnMa)" d="M40.971,18c1.373,1.373,1.373,3.598,0,4.971c-1.373,1.373-3.598,1.373-4.971,0L40.971,18z"/><linearGradient id="2SH77JggV1dxKG99m2mnMb" x1="38.232" x2="42.475" y1="10.126" y2="14.368" gradientTransform="rotate(-90 38.053 17.3)" gradientUnits="userSpaceOnUse"><stop offset="0" stop-color="#f44f5a"/><stop offset=".443" stop-color="#ee3d4a"/><stop offset="1" stop-color="#e52030"/></linearGradient><path fill="url(#2SH77JggV1dxKG99m2mnMb)" d="M32.272,11.485c1.941,0,3.515,1.574,3.515,3.515s-1.574,3.515-3.515,3.515V11.485z"/><linearGradient id="2SH77JggV1dxKG99m2mnMc" x1="36.232" x2="40.475" y1="-10.146" y2="-5.904" gradientTransform="rotate(-90 38.053 17.3)" gradientUnits="userSpaceOnUse"><stop offset="0" stop-color="#f44f5a"/><stop offset=".443" stop-color="#ee3d4a"/><stop offset="1" stop-color="#e52030"/></linearGradient><path fill="url(#2SH77JggV1dxKG99m2mnMc)" d="M12,13.485c1.941,0,3.515,1.574,3.515,3.515S13.941,20.515,12,20.515V13.485z"/><linearGradient id="2SH77JggV1dxKG99m2mnMd" x1="39.525" x2="43.768" y1="2.146" y2="6.389" gradientTransform="rotate(45.001 26.111 -9.324)" gradientUnits="userSpaceOnUse"><stop offset="0" stop-color="#21ad64"/><stop offset="1" stop-color="#088242"/></linearGradient><path fill="url(#2SH77JggV1dxKG99m2mnMd)" d="M30.485,13.243c-1.373,1.373-3.598,1.373-4.971,0s-1.373-3.598,0-4.971L30.485,13.243z"/><linearGradient id="2SH77JggV1dxKG99m2mnMe" x1="32.454" x2="36.697" y1="20.531" y2="24.774" gradientTransform="rotate(45.001 26.111 -9.324)" gradientUnits="userSpaceOnUse"><stop offset="0" stop-color="#21ad64"/><stop offset="1" stop-color="#088242"/></linearGradient><path fill="url(#2SH77JggV1dxKG99m2mnMe)" d="M12.485,21.243c-1.373,1.373-3.598,1.373-4.971,0c-1.373-1.373-1.373-3.598,0-4.971	L12.485,21.243z"/><linearGradient id="2SH77JggV1dxKG99m2mnMf" x1="32.454" x2="36.697" y1="16.289" y2="20.531" gradientTransform="rotate(-134.999 23.502 22.916)" gradientUnits="userSpaceOnUse"><stop offset="0" stop-color="#21ad64"/><stop offset="1" stop-color="#088242"/></linearGradient><path fill="url(#2SH77JggV1dxKG99m2mnMf)" d="M9.485,16.302c1.373-1.373,3.598-1.373,4.971,0s1.373,3.598,0,4.971L9.485,16.302z"/><linearGradient id="2SH77JggV1dxKG99m2mnMg" x1="30.333" x2="34.575" y1="7.096" y2="11.339" gradientTransform="rotate(-134.999 23.502 22.916)" gradientUnits="userSpaceOnUse"><stop offset="0" stop-color="#21ad64"/><stop offset="1" stop-color="#088242"/></linearGradient><path fill="url(#2SH77JggV1dxKG99m2mnMg)" d="M4.485,24.302c1.373-1.373,3.598-1.373,4.971,0s1.373,3.598,0,4.971L4.485,24.302z"/><linearGradient id="2SH77JggV1dxKG99m2mnMh" x1="4.877" x2="9.12" y1="29.18" y2="33.422" gradientTransform="translate(34.487 -3.573)" gradientUnits="userSpaceOnUse"><stop offset="0" stop-color="#21ad64"/><stop offset="1" stop-color="#088242"/></linearGradient><path fill="url(#2SH77JggV1dxKG99m2mnMh)" d="M45,27c0,1.941-1.574,3.515-3.515,3.515c-1.941,0-3.515-1.574-3.515-3.515H45z"/><path fill="#fad500" d="M12.693,25.975l-1.414,1.414L5.25,21.361c-0.185-0.185-0.185-0.486,0-0.671l0.743-0.743	c0.185-0.185,0.486-0.185,0.671,0L12.693,25.975z"/><linearGradient id="2SH77JggV1dxKG99m2mnMi" x1="35.99" x2="40.232" y1="28.309" y2="32.552" gradientTransform="translate(-31.626 -3.159)" gradientUnits="userSpaceOnUse"><stop offset="0" stop-color="#f44f5a"/><stop offset=".443" stop-color="#ee3d4a"/><stop offset="1" stop-color="#e52030"/></linearGradient><path fill="url(#2SH77JggV1dxKG99m2mnMi)" d="M10,26.544c0,1.941-1.574,3.515-3.515,3.515s-3.515-1.574-3.515-3.515H10z"/><linearGradient id="2SH77JggV1dxKG99m2mnMj" x1="47.99" x2="52.232" y1="12.765" y2="17.008" gradientTransform="translate(-31.626 -3.159)" gradientUnits="userSpaceOnUse"><stop offset="0" stop-color="#f44f5a"/><stop offset=".443" stop-color="#ee3d4a"/><stop offset="1" stop-color="#e52030"/></linearGradient><path fill="url(#2SH77JggV1dxKG99m2mnMj)" d="M22,11c0,1.941-1.574,3.515-3.515,3.515S14.971,12.941,14.971,11H22z"/><path fill="#fad500" d="M37.525,31.389l-1.414-1.414l6.029-6.029c0.185-0.185,0.486-0.185,0.671,0l0.743,0.743	c0.185,0.185,0.185,0.486,0,0.671L37.525,31.389z"/><path fill="#fad500" d="M33.525,23.389l-1.414-1.414l6.029-6.029c0.185-0.185,0.486-0.185,0.671,0l0.743,0.743	c0.185,0.185,0.185,0.486,0,0.671L33.525,23.389z"/><path fill="#fad500" d="M17.525,16.389l-1.414-1.414l6.029-6.029c0.185-0.185,0.486-0.185,0.671,0l0.743,0.743	c0.185,0.185,0.185,0.486,0,0.671L17.525,16.389z"/><linearGradient id="2SH77JggV1dxKG99m2mnMk" x1="16.615" x2="26.543" y1="12.977" y2="36.941" gradientUnits="userSpaceOnUse"><stop offset="0" stop-color="#eba84b"/><stop offset="1" stop-color="#d97218"/></linearGradient><path fill="url(#2SH77JggV1dxKG99m2mnMk)" d="M43,30c0-10.493-8.507-19-19-19S5,19.507,5,30c0,1.17,0,5,0,5c0,1.105,0.895,2,2,2h34	c1.105,0,2-0.895,2-2C43,35,43,31.481,43,30z"/><circle cx="11" cy="32" r="1" fill="#f5b967"/><circle cx="17" cy="32" r="1" fill="#f5b967"/><circle cx="14" cy="29" r="1" fill="#f5b967"/></svg>