<svg xmlns="http://www.w3.org/2000/svg" viewBox="0 0 48 48"><linearGradient id="vjKIcg0wTWiFPrpZQ7dtga" x1="16.841" x2="24.459" y1="5.633" y2="17.729" gradientUnits="userSpaceOnUse"><stop offset="0" stop-color="#436dcd"/><stop offset="1" stop-color="#14427f"/></linearGradient><path fill="url(#vjKIcg0wTWiFPrpZQ7dtga)" d="M39,29H9c-1.105,0-2-0.895-2-2V7c0-1.105,0.895-2,2-2h30c1.105,0,2,0.895,2,2v20 C41,28.105,40.105,29,39,29z"/><radialGradient id="vjKIcg0wTWiFPrpZQ7dtgb" cx="38.553" cy="36.149" r="16.279" gradientUnits="userSpaceOnUse"><stop offset="0" stop-color="#bd8af5"/><stop offset=".137" stop-color="#b88bf5"/><stop offset=".309" stop-color="#a88ff3"/><stop offset=".499" stop-color="#8f96f2"/><stop offset=".702" stop-color="#6b9eef"/><stop offset=".913" stop-color="#3eaaec"/><stop offset="1" stop-color="#29afea"/></radialGradient><path fill="url(#vjKIcg0wTWiFPrpZQ7dtgb)" d="M41,36H7c-1.105,0-2-0.895-2-2V12c0-1.105,0.895-2,2-2h34c1.105,0,2,0.895,2,2v22 C43,35.105,42.105,36,41,36z"/><path fill="#fff" d="M39,17h-2c-0.552,0-1-0.448-1-1v-2c0-0.552,0.448-1,1-1h2c0.552,0,1,0.448,1,1v2 C40,16.552,39.552,17,39,17z"/><path fill="#fff" d="M39,25h-2c-0.552,0-1-0.448-1-1v-2c0-0.552,0.448-1,1-1h2c0.552,0,1,0.448,1,1v2 C40,24.552,39.552,25,39,25z"/><path fill="#fff" d="M39,33h-2c-0.552,0-1-0.448-1-1v-2c0-0.552,0.448-1,1-1h2c0.552,0,1,0.448,1,1v2 C40,32.552,39.552,33,39,33z"/><path fill="#fff" d="M11,17H9c-0.552,0-1-0.448-1-1v-2c0-0.552,0.448-1,1-1h2c0.552,0,1,0.448,1,1v2 C12,16.552,11.552,17,11,17z"/><path fill="#fff" d="M11,25H9c-0.552,0-1-0.448-1-1v-2c0-0.552,0.448-1,1-1h2c0.552,0,1,0.448,1,1v2 C12,24.552,11.552,25,11,25z"/><path fill="#fff" d="M11,33H9c-0.552,0-1-0.448-1-1v-2c0-0.552,0.448-1,1-1h2c0.552,0,1,0.448,1,1v2 C12,32.552,11.552,33,11,33z"/><path fill="#6d7882" d="M6,45.002c-0.553,0-1-0.447-1-1v-4c0-0.553,0.447-1,1-1s1,0.447,1,1v4 C7,44.555,6.553,45.002,6,45.002z"/><path fill="#6d7882" d="M42,45.002c-0.553,0-1-0.447-1-1v-4c0-0.553,0.447-1,1-1s1,0.447,1,1v4 C43,44.555,42.553,45.002,42,45.002z"/><circle cx="10" cy="42" r="1" fill="#6d7882"/><circle cx="14" cy="42" r="1" fill="#6d7882"/><circle cx="18" cy="42" r="1" fill="#6d7882"/><circle cx="22" cy="42" r="1" fill="#6d7882"/><circle cx="26" cy="42" r="1" fill="#6d7882"/><circle cx="30" cy="42" r="1" fill="#6d7882"/><circle cx="34" cy="42" r="1" fill="#6d7882"/><circle cx="38" cy="42" r="1" fill="#6d7882"/></svg>