<svg xmlns="http://www.w3.org/2000/svg" viewBox="0 0 48 48"><linearGradient id="p1LIKe0jQyMYHOog93vUBa" x1="24" x2="24" y1="8.979" y2="6.308" gradientUnits="userSpaceOnUse"><stop offset="0" stop-color="#b33f20"/><stop offset=".129" stop-color="#c74724"/><stop offset=".295" stop-color="#d94f29"/><stop offset=".469" stop-color="#e4532b"/><stop offset=".659" stop-color="#e8552c"/></linearGradient><path fill="url(#p1LIKe0jQyMYHOog93vUBa)" d="M28.5,6h-9C18.672,6,18,6.672,18,7.5V9h12V7.5C30,6.672,29.328,6,28.5,6z"/><radialGradient id="p1LIKe0jQyMYHOog93vUBb" cx="23.832" cy="5.992" r="45.74" gradientTransform="matrix(1 0 0 .8044 0 1.172)" gradientUnits="userSpaceOnUse"><stop offset="0" stop-color="#40150b"/><stop offset=".156" stop-color="#622110"/><stop offset=".417" stop-color="#953218"/><stop offset=".645" stop-color="#ba3f1e"/><stop offset=".828" stop-color="#d14722"/><stop offset=".944" stop-color="#d94a23"/></radialGradient><path fill="url(#p1LIKe0jQyMYHOog93vUBb)" d="M42,41H6c-1.1,0-2-0.9-2-2V13c0-2.2,1.8-4,4-4h32c2.2,0,4,1.8,4,4v26C44,40.1,43.1,41,42,41z"/><linearGradient id="p1LIKe0jQyMYHOog93vUBc" x1="24" x2="24" y1="9.028" y2="26.927" gradientUnits="userSpaceOnUse"><stop offset="0" stop-color="#fc7d5b"/><stop offset=".06" stop-color="#f8734f"/><stop offset=".18" stop-color="#f3653d"/><stop offset=".326" stop-color="#f05b31"/><stop offset=".523" stop-color="#ee552a"/><stop offset="1" stop-color="#ed5328"/></linearGradient><path fill="url(#p1LIKe0jQyMYHOog93vUBc)" d="M42.297,25.255L24,28L5.703,25.255C4.724,25.109,4,24.268,4,23.278V13c0-2.2,1.8-4,4-4h32	c2.2,0,4,1.8,4,4v10.278C44,24.268,43.276,25.109,42.297,25.255z"/><path fill="#f6eca5" d="M25.5,21h-3c-0.276,0-0.5,0.224-0.5,0.5v3c0,0.276,0.224,0.5,0.5,0.5h3c0.276,0,0.5-0.224,0.5-0.5v-3	C26,21.224,25.776,21,25.5,21z"/><path d="M44,39v-3.527l-7.723-3.218c-0.811-0.339-1.743-0.339-2.556,0l-11.748,4.895	C21.382,37.397,21,37.97,21,38.61s0.382,1.213,0.973,1.458L24.209,41H42C43.1,41,44,40.1,44,39z" opacity=".05"/><path d="M44,39v-2.985l-7.915-3.298c-0.699-0.292-1.47-0.292-2.171,0l-11.749,4.896	c-0.404,0.168-0.665,0.56-0.665,0.997s0.261,0.829,0.665,0.997L25.508,41H42C43.1,41,44,40.1,44,39z" opacity=".07"/><path fill="#5059c9" d="M34.107,44.041l-11.75-4.896c-0.476-0.198-0.476-0.873,0-1.071l11.75-4.896	c0.571-0.238,1.214-0.238,1.786,0l11.75,4.896c0.476,0.198,0.476,0.873,0,1.071l-11.75,4.896	C35.321,44.28,34.679,44.28,34.107,44.041z"/><path fill="#7b83eb" d="M35,38c-4.418,0-8,0.767-8,1.714V46c4.571,0,8,2,8,2s3.429-2,8-2v-6.286C43,38.767,39.418,38,35,38z"/></svg>