<svg xmlns="http://www.w3.org/2000/svg" viewBox="0 0 48 48"><linearGradient id="AgTlwg7ogiq_E_IeFp45Ba" x1="4.965" x2="4.965" y1="221.896" y2="226.306" gradientTransform="matrix(1 0 0 -1 0 252.11)" gradientUnits="userSpaceOnUse"><stop offset=".365" stop-color="#199ae0"/><stop offset=".699" stop-color="#1898de"/><stop offset=".819" stop-color="#1691d8"/><stop offset=".905" stop-color="#1186cc"/><stop offset=".974" stop-color="#0a75bc"/><stop offset="1" stop-color="#076cb3"/></linearGradient><path fill="url(#AgTlwg7ogiq_E_IeFp45Ba)" d="M1.929,25H8v4.864c0,0.445-0.539,0.669-0.854,0.354L1.929,25z"/><linearGradient id="AgTlwg7ogiq_E_IeFp45Bb" x1="8.577" x2="12.251" y1="240.867" y2="215.607" gradientTransform="matrix(1 0 0 -1 0 252.11)" gradientUnits="userSpaceOnUse"><stop offset="0" stop-color="#32bdef"/><stop offset="1" stop-color="#1ea2e4"/></linearGradient><path fill="url(#AgTlwg7ogiq_E_IeFp45Bb)" d="M5,26v-4h10c0.552,0,1,0.448,1,1v2c0,0.552-0.448,1-1,1H5z"/><linearGradient id="AgTlwg7ogiq_E_IeFp45Bc" x1="2.345" x2="8.553" y1="247.024" y2="204.334" gradientTransform="matrix(1 0 0 -1 0 252.11)" gradientUnits="userSpaceOnUse"><stop offset="0" stop-color="#32bdef"/><stop offset="1" stop-color="#1ea2e4"/></linearGradient><path fill="url(#AgTlwg7ogiq_E_IeFp45Bc)" d="M2.636,25.707l-1-1c-0.391-0.391-0.391-1.024,0-1.414l5.51-5.51 C7.461,17.468,8,17.691,8,18.136V26H3.343C3.078,26,2.824,25.895,2.636,25.707z"/><path fill="#727d86" d="M29,45h-2c-0.55,0-1-0.45-1-1V4c0-0.55,0.45-1,1-1h2c0.55,0,1,0.45,1,1v40C30,44.55,29.55,45,29,45z"/><linearGradient id="AgTlwg7ogiq_E_IeFp45Bd" x1="-721.035" x2="-721.035" y1="221.896" y2="226.306" gradientTransform="rotate(180 -339 126.055)" gradientUnits="userSpaceOnUse"><stop offset=".365" stop-color="#199ae0"/><stop offset=".699" stop-color="#1898de"/><stop offset=".819" stop-color="#1691d8"/><stop offset=".905" stop-color="#1186cc"/><stop offset=".974" stop-color="#0a75bc"/><stop offset="1" stop-color="#076cb3"/></linearGradient><path fill="url(#AgTlwg7ogiq_E_IeFp45Bd)" d="M46.071,25H40v4.864c0,0.445,0.539,0.669,0.854,0.354L46.071,25z"/><linearGradient id="AgTlwg7ogiq_E_IeFp45Be" x1="-717.423" x2="-713.749" y1="240.867" y2="215.607" gradientTransform="rotate(180 -339 126.055)" gradientUnits="userSpaceOnUse"><stop offset="0" stop-color="#32bdef"/><stop offset="1" stop-color="#1ea2e4"/></linearGradient><path fill="url(#AgTlwg7ogiq_E_IeFp45Be)" d="M43,26v-4H33c-0.552,0-1,0.448-1,1v2c0,0.552,0.448,1,1,1H43z"/><linearGradient id="AgTlwg7ogiq_E_IeFp45Bf" x1="-723.656" x2="-717.446" y1="247.024" y2="204.334" gradientTransform="rotate(180 -339 126.055)" gradientUnits="userSpaceOnUse"><stop offset="0" stop-color="#32bdef"/><stop offset="1" stop-color="#1ea2e4"/></linearGradient><path fill="url(#AgTlwg7ogiq_E_IeFp45Bf)" d="M45.364,25.707l1-1c0.391-0.391,0.391-1.024,0-1.414l-5.51-5.51 C40.539,17.468,40,17.691,40,18.136V26h4.657C44.922,26,45.176,25.895,45.364,25.707z"/><path fill="#727d86" d="M19,45h2c0.55,0,1-0.45,1-1V4c0-0.55-0.45-1-1-1h-2c-0.55,0-1,0.45-1,1v40C18,44.55,18.45,45,19,45z"/></svg>