<svg xmlns="http://www.w3.org/2000/svg" viewBox="0 0 48 48"><linearGradient id="0nSQIB49l4Dn1yaLx3fsTa" x1="24" x2="24" y1="8.979" y2="6.308" gradientUnits="userSpaceOnUse"><stop offset="0" stop-color="#b33f20"/><stop offset=".129" stop-color="#c74724"/><stop offset=".295" stop-color="#d94f29"/><stop offset=".469" stop-color="#e4532b"/><stop offset=".659" stop-color="#e8552c"/></linearGradient><path fill="url(#0nSQIB49l4Dn1yaLx3fsTa)" d="M28.5,6h-9C18.672,6,18,6.672,18,7.5V9h12V7.5C30,6.672,29.328,6,28.5,6z"/><radialGradient id="0nSQIB49l4Dn1yaLx3fsTb" cx="23.832" cy="5.992" r="45.74" gradientTransform="matrix(1 0 0 .8044 0 1.172)" gradientUnits="userSpaceOnUse"><stop offset="0" stop-color="#40150b"/><stop offset=".156" stop-color="#622110"/><stop offset=".417" stop-color="#953218"/><stop offset=".645" stop-color="#ba3f1e"/><stop offset=".828" stop-color="#d14722"/><stop offset=".944" stop-color="#d94a23"/></radialGradient><path fill="url(#0nSQIB49l4Dn1yaLx3fsTb)" d="M42,41H6c-1.1,0-2-0.9-2-2V13c0-2.2,1.8-4,4-4h32c2.2,0,4,1.8,4,4v26C44,40.1,43.1,41,42,41z"/><radialGradient id="0nSQIB49l4Dn1yaLx3fsTc" cx="36.915" cy="38.044" r="11.906" gradientUnits="userSpaceOnUse"><stop offset="0"/><stop offset="1" stop-opacity="0"/></radialGradient><path fill="url(#0nSQIB49l4Dn1yaLx3fsTc)" d="M37,26c-6.627,0-12,5.373-12,12c0,1.038,0.146,2.039,0.393,3H42c1.1,0,2-0.9,2-2V28.267	C42.028,26.846,39.616,26,37,26z"/><linearGradient id="0nSQIB49l4Dn1yaLx3fsTd" x1="24" x2="24" y1="9.028" y2="26.927" gradientUnits="userSpaceOnUse"><stop offset="0" stop-color="#fc7d5b"/><stop offset=".06" stop-color="#f8734f"/><stop offset=".18" stop-color="#f3653d"/><stop offset=".326" stop-color="#f05b31"/><stop offset=".523" stop-color="#ee552a"/><stop offset="1" stop-color="#ed5328"/></linearGradient><path fill="url(#0nSQIB49l4Dn1yaLx3fsTd)" d="M42.297,25.255L24,28L5.703,25.255C4.724,25.109,4,24.268,4,23.278V13c0-2.2,1.8-4,4-4h32	c2.2,0,4,1.8,4,4v10.278C44,24.268,43.276,25.109,42.297,25.255z"/><path fill="#f6eca5" d="M25.5,21h-3c-0.276,0-0.5,0.224-0.5,0.5v3c0,0.276,0.224,0.5,0.5,0.5h3c0.276,0,0.5-0.224,0.5-0.5v-3	C26,21.224,25.776,21,25.5,21z"/><linearGradient id="0nSQIB49l4Dn1yaLx3fsTe" x1="30.189" x2="44.426" y1="-457.189" y2="-471.426" gradientTransform="matrix(1 0 0 -1 0 -426)" gradientUnits="userSpaceOnUse"><stop offset="0" stop-color="#889097"/><stop offset=".331" stop-color="#848c94"/><stop offset=".669" stop-color="#78828b"/><stop offset="1" stop-color="#64717c"/></linearGradient><path fill="url(#0nSQIB49l4Dn1yaLx3fsTe)" d="M46.715,35.668c-1.192,0.152-2.415-0.407-3.054-1.514c-0.638-1.106-0.512-2.444,0.215-3.401	c-1.129-1.072-2.505-1.885-4.038-2.338c-0.464,1.111-1.56,1.892-2.839,1.892s-2.375-0.782-2.839-1.892	c-1.533,0.454-2.908,1.265-4.038,2.338c0.727,0.957,0.854,2.295,0.215,3.401c-0.638,1.106-1.861,1.665-3.054,1.514	C27.105,36.417,27,37.195,27,38c0,0.805,0.105,1.583,0.285,2.332c1.192-0.152,2.415,0.408,3.054,1.514	c0.638,1.106,0.512,2.444-0.215,3.401c1.129,1.072,2.505,1.885,4.038,2.338c0.464-1.111,1.56-1.892,2.839-1.892	s2.375,0.782,2.839,1.892c1.533-0.454,2.908-1.265,4.038-2.338c-0.727-0.957-0.855-2.295-0.215-3.401	c0.638-1.106,1.861-1.665,3.054-1.514C46.895,39.583,47,38.805,47,38C47,37.195,46.895,36.417,46.715,35.668z"/><linearGradient id="0nSQIB49l4Dn1yaLx3fsTf" x1="40.752" x2="33.199" y1="-467.752" y2="-460.199" gradientTransform="matrix(1 0 0 -1 0 -426)" gradientUnits="userSpaceOnUse"><stop offset="0" stop-color="#fff"/><stop offset=".242" stop-color="#f2f2f2"/><stop offset="1" stop-color="#ccc"/></linearGradient><circle cx="37" cy="38" r="5.385" fill="url(#0nSQIB49l4Dn1yaLx3fsTf)"/><linearGradient id="0nSQIB49l4Dn1yaLx3fsTg" x1="33.933" x2="39.313" y1="-460.933" y2="-466.313" gradientTransform="matrix(1 0 0 -1 0 -426)" gradientUnits="userSpaceOnUse"><stop offset="0" stop-color="#0d61a9"/><stop offset=".363" stop-color="#0e5fa4"/><stop offset=".78" stop-color="#135796"/><stop offset="1" stop-color="#16528c"/></linearGradient><circle cx="37" cy="38" r="3.278" fill="url(#0nSQIB49l4Dn1yaLx3fsTg)"/><linearGradient id="0nSQIB49l4Dn1yaLx3fsTh" x1="30.189" x2="44.426" y1="-457.189" y2="-471.426" gradientTransform="matrix(1 0 0 -1 0 -426)" gradientUnits="userSpaceOnUse"><stop offset="0" stop-color="#889097"/><stop offset=".331" stop-color="#848c94"/><stop offset=".669" stop-color="#78828b"/><stop offset="1" stop-color="#64717c"/></linearGradient><path fill="url(#0nSQIB49l4Dn1yaLx3fsTh)" d="M46.715,35.668c-1.192,0.152-2.415-0.407-3.054-1.514c-0.638-1.106-0.512-2.444,0.215-3.401	c-1.129-1.072-2.505-1.885-4.038-2.338c-0.464,1.111-1.56,1.892-2.839,1.892s-2.375-0.782-2.839-1.892	c-1.533,0.454-2.908,1.265-4.038,2.338c0.727,0.957,0.854,2.295,0.215,3.401c-0.638,1.106-1.861,1.665-3.054,1.514	C27.105,36.417,27,37.195,27,38c0,0.805,0.105,1.583,0.285,2.332c1.192-0.152,2.415,0.408,3.054,1.514	c0.638,1.106,0.512,2.444-0.215,3.401c1.129,1.072,2.505,1.885,4.038,2.338c0.464-1.111,1.56-1.892,2.839-1.892	s2.375,0.782,2.839,1.892c1.533-0.454,2.908-1.265,4.038-2.338c-0.727-0.957-0.855-2.295-0.215-3.401	c0.638-1.106,1.861-1.665,3.054-1.514C46.895,39.583,47,38.805,47,38C47,37.195,46.895,36.417,46.715,35.668z"/><linearGradient id="0nSQIB49l4Dn1yaLx3fsTi" x1="40.484" x2="33.47" y1="-467.484" y2="-460.47" gradientTransform="matrix(1 0 0 -1 0 -426)" gradientUnits="userSpaceOnUse"><stop offset="0" stop-color="#fff"/><stop offset=".242" stop-color="#f2f2f2"/><stop offset="1" stop-color="#ccc"/></linearGradient><circle cx="37" cy="38" r="5" fill="url(#0nSQIB49l4Dn1yaLx3fsTi)"/><linearGradient id="0nSQIB49l4Dn1yaLx3fsTj" x1="34.193" x2="39.117" y1="-461.193" y2="-466.117" gradientTransform="matrix(1 0 0 -1 0 -426)" gradientUnits="userSpaceOnUse"><stop offset="0" stop-color="#0d61a9"/><stop offset=".363" stop-color="#0e5fa4"/><stop offset=".78" stop-color="#135796"/><stop offset="1" stop-color="#16528c"/></linearGradient><circle cx="37" cy="38" r="3" fill="url(#0nSQIB49l4Dn1yaLx3fsTj)"/></svg>