<svg xmlns="http://www.w3.org/2000/svg" viewBox="0 0 48 48"><path fill="#1a9ba1" d="M7.92,6.873c0,0-0.318,3.733,1.138,6.658s5.465,8.941,7.045,7.932 c-0.744-0.986-0.245-2.096,0.315-2.637c0.363-0.351,2.067-1.961,3.219-3.049c0.64-0.604,0.791-1.563,0.368-2.335l-4.077-7.438 c-0.442-0.807-1.391-1.19-2.269-0.917L7.92,6.873z"/><path fill="#1a9ba1" d="M41.127,40.08c0,0-3.733,0.318-6.658-1.138s-8.941-5.465-7.932-7.045 c0.986,0.744,2.096,0.245,2.637-0.315c0.351-0.363,1.961-2.067,3.049-3.219c0.604-0.64,1.563-0.791,2.335-0.368l7.438,4.077 c0.807,0.442,1.19,1.391,0.917,2.269L41.127,40.08z"/><path fill="#37c6d0" d="M20.986,27.014c5.916,5.916,12.803,10.252,20.142,13.065l-1.07,1.848 c-0.524,0.905-1.633,1.313-2.605,0.927c-7.092-2.819-13.741-7.089-19.48-12.827S7.964,17.639,5.145,10.547 c-0.386-0.971,0.022-2.08,0.927-2.604l1.848-1.07C10.734,14.211,15.07,21.099,20.986,27.014z"/><linearGradient id="pc7EPlFcuHRGhhmYpQ~e4a" x1="32.237" x2="35.16" y1="4.328" y2="15.387" gradientUnits="userSpaceOnUse"><stop offset="0" stop-color="#21ad64"/><stop offset="1" stop-color="#088242"/></linearGradient><path fill="url(#pc7EPlFcuHRGhhmYpQ~e4a)" d="M41.735,5h-15.47C25.567,5,25,5.567,25,6.265v9.469C25,16.433,25.567,17,26.265,17H29v5.067 c0,0.564,0.681,0.846,1.08,0.447L35.594,17h6.14C42.433,17,43,16.433,43,15.735v-9.47C43,5.567,42.433,5,41.735,5z"/></svg>