<svg xmlns="http://www.w3.org/2000/svg" viewBox="0 0 48 48"><linearGradient id="i2KJkHMaEc8qVkjJgYOsJa" x1="7" x2="41" y1="5" y2="5" gradientUnits="userSpaceOnUse"><stop offset="0" stop-color="#f44f5a"/><stop offset=".443" stop-color="#ee3d4a"/><stop offset="1" stop-color="#e52030"/></linearGradient><path fill="url(#i2KJkHMaEc8qVkjJgYOsJa)" d="M9,3h30c1.105,0,2,0.895,2,2v0c0,1.105-0.895,2-2,2H9C7.895,7,7,6.105,7,5v0	C7,3.895,7.895,3,9,3z"/><path fill="#263238" d="M42,42c0,1.657-1.343,3-3,3H9c-1.657,0-3-1.343-3-3v0c0-1.657,1.343-3,3-3h30	C40.657,39,42,40.343,42,42L42,42z"/><linearGradient id="i2KJkHMaEc8qVkjJgYOsJb" x1="16" x2="32" y1="14.824" y2="14.824" gradientUnits="userSpaceOnUse"><stop offset="0" stop-color="#fede00"/><stop offset="1" stop-color="#ffd000"/></linearGradient><path fill="url(#i2KJkHMaEc8qVkjJgYOsJb)" d="M16.607,16H21v5c0,0.552,0.448,1,1,1h4c0.552,0,1-0.448,1-1v-5h4.393	c0.54,0,0.81-0.653,0.428-1.034l-6.964-6.964c-0.473-0.473-1.241-0.473-1.714,0l-6.964,6.964C15.797,15.347,16.067,16,16.607,16z"/><path fill="#61e3a7" d="M13,42.8V24.1c0-0.607,0.493-1.1,1.1-1.1h19.8c0.607,0,1.1,0.493,1.1,1.1v18.7H13z"/><path fill="#33c481" d="M13,42.8h3.623c-0.208-0.697-0.323-1.436-0.323-2.2c0-4.253,3.447-7.7,7.7-7.7s7.7,3.447,7.7,7.7 c0,0.764-0.115,1.503-0.323,2.2H35V28.5H13V42.8z"/><path fill="#21a366" d="M35,45v-2.2H13V45H35z"/><path fill="#59d19a" d="M17.686,45h12.628c0.464-0.664,0.826-1.405,1.063-2.2H16.623C16.86,43.595,17.222,44.336,17.686,45z"/></svg>