<svg xmlns="http://www.w3.org/2000/svg" xmlns:xlink="http://www.w3.org/1999/xlink" data-name="Слой 1" viewBox="0 0 48 48"><defs><linearGradient id="_9pLpDOGY61jRqA0YEPxua" x1="24" x2="24" y1="16.682" y2="38.583" data-name="Безымянный градиент 121" gradientUnits="userSpaceOnUse"><stop offset="0" stop-color="#f44f5a"/><stop offset=".443" stop-color="#ee3d4a"/><stop offset="1" stop-color="#e52030"/></linearGradient><linearGradient id="_9pLpDOGY61jRqA0YEPxub" x1="20.636" x2="27.58" y1="13.008" y2="32.086" data-name="Безымянный градиент 8" gradientUnits="userSpaceOnUse"><stop offset="0" stop-color="#dfe9f2"/><stop offset=".391" stop-color="#d6e0e9"/><stop offset="1" stop-color="#bfc8d1"/></linearGradient><linearGradient id="_9pLpDOGY61jRqA0YEPxuc" x1="24" x2="24" y1="14.652" y2="27.602" xlink:href="#_9pLpDOGY61jRqA0YEPxua"/></defs><rect width="18" height="12.5" x="15" y="10" fill="#64717c"/><polygon fill="url(#_9pLpDOGY61jRqA0YEPxua)" points="42 27.5 6 27.5 6 40 19.765 40 24 42 24 40 42 40 42 27.5"/><rect width="24" height="12.5" x="12" y="16" fill="url(#_9pLpDOGY61jRqA0YEPxub)"/><rect width="5" height="12" x="24" y="28" fill="#b31523"/><rect width="2" height="12" x="18" y="28" fill="#eb6773"/><rect width="2" height="12" x="28" y="28" fill="#eb6773"/><polygon fill="url(#_9pLpDOGY61jRqA0YEPxuc)" points="36 20 32 20 32 16 30 16 30 20 25 20 25 16 23 16 23 20 18 20 18 16 16 16 16 20 12 20 12 22 16 22 16 26 18 26 18 22 23 22 23 26 25 26 25 22 30 22 30 26 32 26 32 22 36 22 36 20"/><rect width="2" height="12" x="40" y="28" fill="#eb6773"/><rect width="2" height="12" x="6" y="28" fill="#eb6773"/><rect width="2" height="12" x="34" y="27" fill="#eb6773" transform="rotate(90 35 33)"/><rect width="2" height="12" x="12" y="27" fill="#eb6773" transform="rotate(90 13 33)"/><path fill="#64717c" d="M36,25H12a17.46,17.46,0,0,1-10.36215.65722.50021.50021,0,0,0-.48443.83886C3.08168,28.34291,5.75755,29,9,29H39c3.24245,0,5.92289-.65709,7.85115-2.50392a.50021.50021,0,0,0-.48443-.83886A17.47568,17.47568,0,0,1,36,25Z"/><path fill="#64717c" d="M33,13H15a17.45469,17.45469,0,0,1-10.36061.65722.50021.50021,0,0,0-.48444.83886C6.08322,16.34291,8.75755,17,12,17H36c3.24245,0,5.92135-.65709,7.84962-2.50392a.50021.50021,0,0,0-.48444-.83886A17.4704,17.4704,0,0,1,33,13Z"/><path fill="#889097" d="M16,14a.99943.99943,0,0,1-1-1V8.5a.5.5,0,0,0-1,0V9a1,1,0,0,1-2,0V8.5a2.5,2.5,0,0,1,5,0V13A.99943.99943,0,0,1,16,14Z"/><path fill="#889097" d="M32,14a.99943.99943,0,0,1-1-1V8.5a2.5,2.5,0,0,1,5,0V9a1,1,0,0,1-2,0V8.5a.5.5,0,0,0-1,0V13A.99943.99943,0,0,1,32,14Z"/><circle cx="33" cy="37" r="1" fill="#b31523"/><circle cx="37" cy="37" r="1" fill="#b31523"/><circle cx="11" cy="37" r="1" fill="#b31523"/><circle cx="15" cy="37" r="1" fill="#b31523"/><rect width="24" height="1" x="12" y="24" opacity=".05"/><rect width="24" height=".5" x="12" y="24.5" opacity=".07"/><rect width="24" height="1" x="12" y="17" opacity=".05" transform="rotate(180 24 17.5)"/><rect width="24" height=".5" x="12" y="17" opacity=".07" transform="rotate(180 24 17.25)"/></svg>