<svg xmlns="http://www.w3.org/2000/svg" viewBox="0 0 48 48"><path fill="#184f85" d="M36,9H12v34c0,1.105,0.895,2,2,2h20c1.105,0,2-0.895,2-2V9z"/><path fill="#50e6ff" d="M36,9H12V6c0-1.105,0.895-2,2-2h20c1.105,0,2,0.895,2,2V9z"/><circle cx="20" cy="6.5" r=".75" fill="#0c63ad"/><path fill="#0c63ad" d="M27.5,5.75c-0.194,0-4.806,0-5,0c-0.414,0-0.75,0.336-0.75,0.75s0.336,0.75,0.75,0.75	c0.194,0,4.806,0,5,0c0.414,0,0.75-0.336,0.75-0.75S27.914,5.75,27.5,5.75z"/><path d="M17.512,36c-0.98,0-1.803-0.704-1.957-1.675L14.31,25.93c-0.015-0.101-0.017-0.2-0.008-0.306	c-0.029-0.426,0.092-0.809,0.352-1.108C14.936,24.188,15.348,24,15.783,24h1.453l5.44-5.44c0.36-0.36,0.833-0.56,1.33-0.56	s0.969,0.199,1.33,0.56l5.44,5.44h1.461c0.436,0,0.848,0.188,1.13,0.517c0.266,0.308,0.392,0.711,0.353,1.116	c0.008,0.091,0.005,0.194-0.008,0.291l-1.254,8.394C32.303,35.294,31.479,36,30.499,36H17.512z M25.458,24l-1.453-1.453L22.553,24	H25.458z" opacity=".05"/><path d="M17.512,35.5c-0.733,0-1.348-0.527-1.462-1.253l-1.246-8.391c-0.013-0.091-0.007-0.169,0-0.226	c-0.031-0.321,0.053-0.586,0.228-0.788c0.188-0.218,0.461-0.343,0.751-0.343h1.66l5.587-5.587c0.266-0.267,0.613-0.413,0.976-0.413	c0.363,0,0.709,0.146,0.976,0.413l5.587,5.587h1.668c0.29,0,0.564,0.125,0.751,0.343c0.187,0.217,0.27,0.505,0.228,0.791	c0.002,0.006,0.017,0.103,0,0.22l-1.254,8.39c-0.115,0.729-0.73,1.257-1.463,1.257H17.512z M26.665,24.5l-2.66-2.66l-2.66,2.66	H26.665z" opacity=".07"/><linearGradient id="eu~UAy0i9GoB3UTkNUmHqa" x1="23.815" x2="17.496" y1="20.243" y2="26.179" gradientUnits="userSpaceOnUse"><stop offset="0" stop-color="#575c61"/><stop offset=".155" stop-color="#737b80"/><stop offset=".507" stop-color="#70787d"/><stop offset=".75" stop-color="#686f74"/><stop offset=".961" stop-color="#5a6065"/><stop offset="1" stop-color="#575c61"/></linearGradient><path fill="url(#eu~UAy0i9GoB3UTkNUmHqa)" d="M24.628,19.267c-0.356-0.356-0.889-0.356-1.244,0l-5.778,5.778	c-0.356,0.356-0.356,0.889,0,1.244c0.178,0.178,0.4,0.267,0.622,0.267c0.222,0,0.444-0.089,0.622-0.267l5.778-5.778	C24.983,20.156,24.983,19.622,24.628,19.267z"/><linearGradient id="eu~UAy0i9GoB3UTkNUmHqb" x1="23.117" x2="30.894" y1="22.889" y2="22.889" gradientUnits="userSpaceOnUse"><stop offset="0" stop-color="#737b80"/><stop offset="1" stop-color="#575c61"/></linearGradient><path fill="url(#eu~UAy0i9GoB3UTkNUmHqb)" d="M30.628,25.267l-6-6c-0.356-0.356-0.889-0.356-1.244,0c-0.356,0.356-0.356,0.889,0,1.244l6,6	c0.178,0.178,0.4,0.267,0.622,0.267c0.222,0,0.444-0.089,0.622-0.267C30.983,26.156,30.983,25.622,30.628,25.267z"/><linearGradient id="eu~UAy0i9GoB3UTkNUmHqc" x1="24.01" x2="24.01" y1="-180.497" y2="-192.948" gradientTransform="matrix(1 0 0 -1 0 -154)" gradientUnits="userSpaceOnUse"><stop offset="0" stop-color="#21ad64"/><stop offset="1" stop-color="#088242"/></linearGradient><path fill="url(#eu~UAy0i9GoB3UTkNUmHqc)" d="M32.721,25.782L32.539,27l-0.027,0.178l-1.044,6.991C31.392,34.649,30.983,35,30.499,35	H17.512c-0.484,0-0.893-0.351-0.969-0.831l-1.036-6.991L15.481,27l-0.182-1.218c-0.044-0.298,0.182-0.56,0.484-0.56h16.453	C32.539,25.222,32.766,25.484,32.721,25.782z"/><path fill="#107c42" d="M22.45,34.111L22.45,34.111c-0.368,0-0.667-0.299-0.667-0.667v-4.889	c0-0.368,0.299-0.667,0.667-0.667l0,0c0.368,0,0.667,0.299,0.667,0.667v4.889C23.117,33.812,22.818,34.111,22.45,34.111z"/><path fill="#107c42" d="M19.339,34.111L19.339,34.111c-0.368,0-0.667-0.299-0.667-0.667v-4.889	c0-0.368,0.299-0.667,0.667-0.667l0,0c0.368,0,0.667,0.299,0.667,0.667v4.889C20.006,33.812,19.707,34.111,19.339,34.111z"/><path fill="#107c42" d="M25.561,34.111L25.561,34.111c-0.368,0-0.667-0.299-0.667-0.667v-4.889	c0-0.368,0.299-0.667,0.667-0.667l0,0c0.368,0,0.667,0.299,0.667,0.667v4.889C26.228,33.812,25.929,34.111,25.561,34.111z"/><path fill="#107c42" d="M28.672,34.111L28.672,34.111c-0.368,0-0.667-0.299-0.667-0.667v-4.889	c0-0.368,0.299-0.667,0.667-0.667l0,0c0.368,0,0.667,0.299,0.667,0.667v4.889C29.339,33.812,29.04,34.111,28.672,34.111z"/><path fill="#33c481" d="M32.721,25.56c0.044-0.298-0.182-0.56-0.484-0.56H15.783c-0.302,0-0.529,0.262-0.484,0.56L15.481,27	h17.058L32.721,25.56z"/></svg>