<svg xmlns="http://www.w3.org/2000/svg" viewBox="0 0 48 48"><rect width="6" height="21" x="26" y="15" fill="#50e6ff"/><path fill="#50e6ff" d="M43,11.13c0-0.865-0.358-1.704-1.02-2.26C39.888,7.111,37.034,6,34.5,6C29.806,6,26,9.806,26,14.5	c0,4.694,3.806,8.5,8.5,8.5c2.534,0,5.388-1.111,7.48-2.87c0.662-0.556,1.02-1.395,1.02-2.26V11.13z"/><circle cx="38" cy="14" r="2" fill="#0078d4"/><circle cx="29" cy="15" r="1" fill="#0078d4"/><rect width="6" height="3" x="26" y="36" fill="#1b9de2"/><path fill="#50e6ff" d="M32,39h-6v2c0,0.552,0.448,1,1,1h4c0.552,0,1-0.448,1-1V39z"/><rect width="6" height="21" x="16" y="15" fill="#50e6ff" transform="rotate(-180 19 25.5)"/><path fill="#50e6ff" d="M5,11.13c0-0.865,0.358-1.704,1.02-2.26C8.112,7.111,10.966,6,13.5,6c4.694,0,8.5,3.806,8.5,8.5	c0,4.694-3.806,8.5-8.5,8.5c-2.534,0-5.388-1.111-7.48-2.87C5.358,19.574,5,18.735,5,17.87V11.13z"/><circle cx="10" cy="14" r="2" fill="#0078d4"/><circle cx="19" cy="15" r="1" fill="#0078d4"/><rect width="6" height="3" x="16" y="36" fill="#1b9de2" transform="rotate(-180 19 37.5)"/><path fill="#50e6ff" d="M16,39h6v2c0,0.552-0.448,1-1,1h-4c-0.552,0-1-0.448-1-1V39z"/></svg>