<svg xmlns="http://www.w3.org/2000/svg" viewBox="0 0 48 48"><linearGradient id="wfpz2Aw3FklLzBxw26Mava" x1="13.836" x2="23.982" y1="6.762" y2="26.457" gradientUnits="userSpaceOnUse"><stop offset="0" stop-color="#33d7f0"/><stop offset="1" stop-color="#0083c4"/></linearGradient><path fill="url(#wfpz2Aw3FklLzBxw26Mava)" d="M30.043,9.598C28.299,8.595,22.857,8,19,8S9.701,8.595,7.957,9.598	C5.337,11.104,5,16.139,5,18c0,3,1.515,5,5.257,5S19,23,19,23s5,0,8.743,0S33,21,33,18C33,16.139,32.663,11.104,30.043,9.598z"/><linearGradient id="wfpz2Aw3FklLzBxw26Mavb" x1="19" x2="19" y1="17.037" y2="26.149" gradientUnits="userSpaceOnUse"><stop offset="0" stop-color="#3079d6"/><stop offset="1" stop-color="#297cd2"/></linearGradient><path fill="url(#wfpz2Aw3FklLzBxw26Mavb)" d="M19,17c-2,0-4,4-4,6s1,3,2,3s2,0,2,0s1,0,2,0s2-1,2-3S21,17,19,17z"/><linearGradient id="wfpz2Aw3FklLzBxw26Mavc" x1="17.726" x2="21.026" y1="27.368" y2="33.774" gradientUnits="userSpaceOnUse"><stop offset="0" stop-color="#3079d6"/><stop offset="1" stop-color="#297cd2"/></linearGradient><path fill="url(#wfpz2Aw3FklLzBxw26Mavc)" d="M21.467,29c-0.243,0-0.459,0.165-0.507,0.403C20.773,30.314,19.967,31,19,31	s-1.773-0.686-1.959-1.597C16.992,29.165,16.776,29,16.533,29h-1.972c-0.323,0-0.564,0.287-0.525,0.608	C14.337,32.083,16.444,34,19,34s4.663-1.917,4.963-4.392C24.002,29.287,23.761,29,23.438,29H21.467z"/><linearGradient id="wfpz2Aw3FklLzBxw26Mavd" x1="17.739" x2="20.498" y1="31.673" y2="37.029" gradientUnits="userSpaceOnUse"><stop offset="0" stop-color="#3079d6"/><stop offset="1" stop-color="#297cd2"/></linearGradient><path fill="url(#wfpz2Aw3FklLzBxw26Mavd)" d="M20,37h-2c-0.552,0-1-0.448-1-1v-4h4v4C21,36.552,20.552,37,20,37z"/><linearGradient id="wfpz2Aw3FklLzBxw26Mave" x1="17" x2="42.108" y1="27.5" y2="27.5" gradientUnits="userSpaceOnUse"><stop offset="0" stop-color="#0d61a9"/><stop offset="1" stop-color="#16528c"/></linearGradient><path fill="url(#wfpz2Aw3FklLzBxw26Mave)" d="M31.359,37.185C30.813,39.424,28.807,41,26.502,41H24c-1.657,0-3-1.343-3-3v-3h-4v3	c0,3.866,3.134,7,7,7h2.502c4.149,0,7.761-2.837,8.744-6.868L42.108,10l-4.821,2.899L31.359,37.185z"/><path fill="#cf1928" d="M39.453,4C38.38,4,38,5,38,5l0.937,1.118l-1.649,6.781L42.108,10l0.86-3.526	C43.275,5.214,42.321,4,41.025,4C41.025,4,39.906,4,39.453,4z"/></svg>