<svg xmlns="http://www.w3.org/2000/svg" viewBox="0 0 48 48"><linearGradient id="1E5zDNwnTb7Bs5riWo~2Xa" x1="10.043" x2="38.306" y1="10.251" y2="38.513" gradientUnits="userSpaceOnUse"><stop offset="0" stop-color="#f44f5a"/><stop offset=".443" stop-color="#ee3d4a"/><stop offset="1" stop-color="#e52030"/></linearGradient><path fill="url(#1E5zDNwnTb7Bs5riWo~2Xa)" d="M25.698,4.836l1.275,1.472l1.684-0.979c1.183-0.688,2.7-0.167,3.212,1.103l0.728,1.806	l1.91-0.379c1.342-0.266,2.608,0.719,2.68,2.086l0.102,1.945l1.93,0.262c1.356,0.184,2.233,1.527,1.857,2.843l-0.535,1.872	l1.74,0.874c1.223,0.614,1.616,2.17,0.834,3.292l-1.114,1.597l1.362,1.392c0.957,0.978,0.824,2.577-0.28,3.384l-1.572,1.149	l0.836,1.759c0.588,1.236-0.057,2.705-1.364,3.11l-1.86,0.576l0.22,1.935c0.154,1.359-0.932,2.54-2.3,2.498l-1.946-0.059	l-0.42,1.901c-0.295,1.336-1.706,2.1-2.986,1.616l-1.822-0.688l-1.015,1.662c-0.713,1.168-2.296,1.432-3.349,0.559L24,42.18	l-1.5,1.242c-1.054,0.873-2.636,0.609-3.349-0.559l-1.015-1.662l-1.822,0.688c-1.28,0.483-2.691-0.28-2.986-1.616l-0.42-1.901	l-1.946,0.059c-1.368,0.042-2.454-1.139-2.3-2.498l0.22-1.935l-1.86-0.576c-1.307-0.405-1.952-1.874-1.364-3.11l0.836-1.759	l-1.572-1.149C3.816,26.599,3.684,25,4.641,24.022l1.362-1.392l-1.114-1.597c-0.783-1.122-0.389-2.677,0.834-3.292l1.74-0.874	l-0.535-1.872c-0.376-1.315,0.501-2.659,1.857-2.843l1.93-0.262l0.102-1.945c0.071-1.366,1.338-2.352,2.68-2.086l1.91,0.379	l0.728-1.806c0.511-1.269,2.029-1.79,3.212-1.103l1.684,0.979l1.275-1.472C23.198,3.802,24.802,3.802,25.698,4.836z"/><path d="M31.257,13.271h-1.988c-0.725,0-1.393,0.363-1.788,0.97L15.569,32.569	c-0.279,0.431-0.495,2.159,1.173,2.159h1.963c0.726,0,1.394-0.363,1.786-0.968l11.938-18.327	C32.709,15.003,32.991,13.271,31.257,13.271z" opacity=".05"/><path d="M32.01,15.16L20.072,33.487c-0.301,0.463-0.813,0.741-1.367,0.741h-1.963	c-0.992,0-0.979-1.039-0.753-1.387L27.9,14.514c0.302-0.464,0.815-0.743,1.369-0.743h1.989C32.282,13.771,32.236,14.813,32.01,15.16	z" opacity=".07"/><path d="M30.992,28.898c0,1.713-0.58,1.713-0.927,1.713c-0.363,0-0.913,0-0.913-1.605	c0-1.754,0.605-1.754,0.967-1.754C30.907,27.252,30.992,28.403,30.992,28.898z M30.241,22.864c-3.561,0-5.952,2.523-5.952,6.278	c0,4.046,2.819,5.857,5.613,5.857c3.544,0,5.926-2.512,5.926-6.251C35.828,25.064,33.739,22.864,30.241,22.864z" opacity=".05"/><path d="M30.065,31.112c-0.819,0-1.413-0.434-1.413-2.105c0-1.795,0.631-2.254,1.467-2.254	c1.072,0,1.373,1.222,1.373,2.146C31.492,30.66,30.881,31.112,30.065,31.112z M30.241,23.364c-3.259,0-5.452,2.261-5.452,5.778	c0,3.662,2.496,5.357,5.113,5.357c3.326,0,5.426-2.34,5.426-5.751C35.328,25.365,33.469,23.364,30.241,23.364z" opacity=".07"/><path d="M18.992,18.898c0,1.713-0.58,1.713-0.927,1.713c-0.363,0-0.913,0-0.913-1.605	c0-1.754,0.605-1.754,0.967-1.754C18.907,17.252,18.992,18.403,18.992,18.898z M18.241,12.864c-3.561,0-5.952,2.523-5.952,6.278	c0,4.046,2.819,5.857,5.613,5.857c3.544,0,5.926-2.512,5.926-6.251C23.828,15.064,21.739,12.864,18.241,12.864z" opacity=".05"/><path d="M18.065,21.112c-0.819,0-1.413-0.434-1.413-2.105c0-1.795,0.631-2.254,1.467-2.254	c1.072,0,1.373,1.222,1.373,2.146C19.492,20.66,18.881,21.112,18.065,21.112z M18.241,13.364c-3.259,0-5.452,2.261-5.452,5.778	c0,3.662,2.496,5.357,5.113,5.357c3.326,0,5.426-2.34,5.426-5.751C23.328,15.365,21.469,13.364,18.241,13.364z" opacity=".07"/><path fill="#fff" d="M17.786,24.136c-1.761,0-4.613-0.97-4.613-4.858c0-3.365,2.002-5.278,4.953-5.278	c2.861,0,4.586,1.816,4.586,4.912S20.891,24.136,17.786,24.136z M31.591,14.887L19.654,33.214c-0.209,0.321-0.566,0.514-0.948,0.514	h-1.963c-0.316,0-0.506-0.35-0.334-0.615l11.911-18.327c0.209-0.321,0.566-0.515,0.949-0.515h1.989	C31.573,14.271,31.763,14.622,31.591,14.887z M18.043,16.388c-1.321,0-1.981,0.918-1.981,2.754c0,1.737,0.629,2.605,1.886,2.605	c1.284,0,1.927-0.905,1.927-2.714C19.875,17.27,19.265,16.388,18.043,16.388z M29.902,34c-2.441,0-4.613-1.579-4.613-4.858	s1.995-5.278,4.953-5.278s4.586,1.801,4.586,4.885S33.009,34,29.902,34z M30.119,26.252c-1.312,0-1.967,0.918-1.967,2.754	c0,1.737,0.638,2.605,1.913,2.605c1.284,0,1.927-0.905,1.927-2.714C31.992,27.545,31.475,26.252,30.119,26.252z"/></svg>