<svg xmlns="http://www.w3.org/2000/svg" data-name="Слой 1" viewBox="0 0 48 48"><defs><linearGradient id="n_nlB6stGf6SfvhzOckNoa" x1="468.098" x2="468.098" y1="-85.583" y2="-33.012" data-name="Безымянный градиент 125" gradientTransform="rotate(45 140 -555)" gradientUnits="userSpaceOnUse"><stop offset="0" stop-color="#6d6d6d"/><stop offset=".126" stop-color="#626262"/><stop offset=".987" stop-color="#464646"/><stop offset=".998" stop-color="#454545"/></linearGradient></defs><path fill="url(#n_nlB6stGf6SfvhzOckNoa)" d="M25.14214,42.24263a5.95748,5.95748,0,0,1-9.04332-.65454c-1.56293-2.01843-1.70363-4.43555-2.97749-5.70942s-3.691-1.41456-5.70942-2.97749a5.99691,5.99691,0,1,1,7.83074-9.04332,1.32583,1.32583,0,0,0,2.12132,0A5.5,5.5,0,0,1,25.14214,31.636a1.32583,1.32583,0,0,0,0,2.12132A6,6,0,0,1,25.14214,42.24263Zm6.364-26.16295C34.23977,13.346,34.87294,9.547,32.92032,7.5944S27.16871,6.27495,24.435,9.00862s-3.36684,6.53266-1.41422,8.48528S28.77243,18.81335,31.5061,16.07968ZM17.364,17.4939c2.73367-2.73367,3.36683-6.53266,1.41421-8.48528s-5.75161-1.31946-8.48528,1.41421-3.36684,6.53266-1.41421,8.48528S14.6303,20.22757,17.364,17.4939Zm21.2132,21.2132c2.73367-2.73367,3.36684-6.53266,1.41421-8.48528S34.23977,28.90236,31.5061,31.636s-3.36683,6.53266-1.41421,8.48528S35.8435,41.44077,38.57717,38.7071ZM39.99138,24.565c2.73367-2.73367,3.36684-6.53266,1.41422-8.48528S35.654,14.76023,32.92032,17.4939s-3.36684,6.53266-1.41422,8.48528S37.25771,27.29863,39.99138,24.565Z"/><path fill="#e52030" d="M44.88812,42.74982,5.26577,3.12829a.38084.38084,0,0,0-.539,0l-1.615,1.616a.38084.38084,0,0,0,0,.539L42.73411,44.9048a.38086.38086,0,0,0,.539,0l1.616-1.616A.38175.38175,0,0,0,44.88812,42.74982Z"/></svg>