<svg xmlns="http://www.w3.org/2000/svg" viewBox="0 0 48 48"><linearGradient id="sjUtj353pKcafmUKQ~1JNa" x1="-129.32" x2="-96.053" y1="7.387" y2="35.455" gradientTransform="matrix(-1 0 0 1 -88 0)" gradientUnits="userSpaceOnUse"><stop offset="0" stop-color="#a1aab3"/><stop offset="1" stop-color="#8f979e"/></linearGradient><path fill="url(#sjUtj353pKcafmUKQ~1JNa)" d="M4,37h40c1.105,0,2-0.895,2-2V9c0-1.105-0.895-2-2-2H4C2.895,7,2,7.895,2,9v26	C2,36.105,2.895,37,4,37z"/><linearGradient id="sjUtj353pKcafmUKQ~1JNb" x1="19.999" x2="28.44" y1="9.109" y2="36.308" gradientUnits="userSpaceOnUse"><stop offset="0" stop-color="#6d7479"/><stop offset="1" stop-color="#323538"/></linearGradient><rect width="40" height="26" x="4" y="9" fill="url(#sjUtj353pKcafmUKQ~1JNb)"/><linearGradient id="sjUtj353pKcafmUKQ~1JNc" x1="24" x2="24" y1="36.992" y2="41.008" gradientUnits="userSpaceOnUse"><stop offset="0" stop-color="#484b4f"/><stop offset=".23" stop-color="#656d75"/><stop offset=".367" stop-color="#727d86"/></linearGradient><path fill="url(#sjUtj353pKcafmUKQ~1JNc)" d="M37.5,39H30v-2H18v2h-7.5c-0.276,0-0.5,0.224-0.5,0.5v1c0,0.276,0.224,0.5,0.5,0.5h27	c0.276,0,0.5-0.224,0.5-0.5v-1C38,39.224,37.776,39,37.5,39z"/><path d="M31.841,21.104c0,0-9.134-6.109-10.232-6.821C20.511,13.57,19,14.089,19,15.679v13.285	c0,1.792,1.482,2.494,2.608,1.753c1.127-0.74,10.232-6.821,10.232-6.821c0.468-0.312,0.747-0.834,0.747-1.396	C32.588,21.938,32.309,21.416,31.841,21.104z" opacity=".05"/><path d="M21.443,14.711l5.062,3.375l4.53,3.02c0.772,0.577,1.017,0.875,1.017,1.394	c0,0.403-0.127,0.801-0.485,1.04l-5.062,3.375l-5.062,3.375c-0.289,0.193-1.943,0.775-1.943-1.743V22.5v-6.047	C19.5,13.916,20.912,14.357,21.443,14.711z" opacity=".07"/><path fill="#fff" d="M20,29.177V15.823c0-0.656,0.731-1.047,1.277-0.683l10.016,6.677c0.488,0.325,0.488,1.041,0,1.367	l-10.016,6.677C20.731,30.225,20,29.833,20,29.177z"/></svg>