<svg xmlns="http://www.w3.org/2000/svg" viewBox="0 0 48 48"><linearGradient id="~V~CvHwb__iLGfNNDFibOa" x1="9.726" x2="39.062" y1="9.725" y2="39.061" gradientUnits="userSpaceOnUse"><stop offset="0" stop-color="#dfe9f2"/><stop offset=".391" stop-color="#d6e0e9"/><stop offset="1" stop-color="#bfc8d1"/></linearGradient><path fill="url(#~V~CvHwb__iLGfNNDFibOa)" d="M44,24c0,6.427-4.545,8.182-7.273,10.909S34.304,44,24,44C7.636,44,4,29.86,4,24	C4,15.818,9.455,4,24,4c3.173,0,5.947,1.891,9.091,2.727C41.273,10.364,44,14.909,44,24z"/><linearGradient id="~V~CvHwb__iLGfNNDFibOb" x1="20.008" x2="38.189" y1="20.008" y2="38.189" gradientUnits="userSpaceOnUse"><stop offset="0" stop-color="#fed100"/><stop offset="1" stop-color="#e36001"/></linearGradient><path fill="url(#~V~CvHwb__iLGfNNDFibOb)" d="M26,19c-3.866,0-7,3.134-7,7s3.134,7,7,7s7-3.134,7-7S29.866,19,26,19z"/></svg>