<svg xmlns="http://www.w3.org/2000/svg" viewBox="0 0 48 48"><linearGradient id="r2zR2xNQMpbF5nMY1GNYja" x1="1.068" x2="20.543" y1="47.539" y2="28.064" gradientUnits="userSpaceOnUse"><stop offset="0" stop-color="#ffcf7b"/><stop offset=".196" stop-color="#fecd76"/><stop offset=".439" stop-color="#fac666"/><stop offset=".709" stop-color="#f3bc4d"/><stop offset=".995" stop-color="#eaad2a"/><stop offset="1" stop-color="#eaad29"/></linearGradient><path fill="url(#r2zR2xNQMpbF5nMY1GNYja)" d="M4.35,40.877l7.24-10.861l7,7L7.016,43.717C5.184,44.778,3.176,42.638,4.35,40.877z"/><path d="M14,35c0-0.39,0.04-0.77,0.11-1.13C13.75,33.95,13.38,34,13,34c-1.24,0-2.38-0.45-3.26-1.21l-0.28,0.42l-0.28,0.42 C10.22,34.49,11.55,35,13,35c0,1.65,0.57,3.17,1.54,4.37l0.44-0.26l0.43-0.25C14.53,37.82,14,36.47,14,35z" opacity=".05"/><path d="M14,35c0-0.39,0.04-0.77,0.11-1.13C13.75,33.95,13.38,34,13,34c-1.24,0-2.38-0.45-3.26-1.21l-0.28,0.42 c0.96,0.8,2.19,1.29,3.54,1.29c0.17,0,0.35-0.01,0.52-0.03c-0.01,0.18-0.02,0.36-0.02,0.53c0,1.56,0.55,2.99,1.48,4.11l0.43-0.25 C14.53,37.82,14,36.47,14,35z" opacity=".07"/><linearGradient id="r2zR2xNQMpbF5nMY1GNYjb" x1="11.266" x2="45.944" y1="5.205" y2="39.884" gradientUnits="userSpaceOnUse"><stop offset="0" stop-color="#faa0bd"/><stop offset="1" stop-color="#fa67a6"/></linearGradient><path fill="url(#r2zR2xNQMpbF5nMY1GNYjb)" d="M44.5,22.5c0-2.283-1.276-4.268-3.153-5.282C42.968,15.842,44,13.793,44,11.5	C44,7.358,40.642,4,36.5,4c-2.561,0-4.82,1.286-6.173,3.245C29.328,5.319,27.32,4,25,4c-3.314,0-6,2.686-6,6	c0,0.018,0.003,0.035,0.003,0.052C18.24,9.701,17.394,9.5,16.5,9.5c-3.314,0-6,2.686-6,6c0,0.739,0.14,1.445,0.385,2.099	C9.146,18.765,8,20.748,8,23c0,1.168,0.312,2.261,0.852,3.209C8.314,27.006,8,27.966,8,29c0,2.761,2.239,5,5,5	c0.383,0,0.752-0.052,1.11-0.133C14.04,34.234,14,34.612,14,35c0,3.314,2.686,6,6,6c3.126,0,5.691-2.391,5.972-5.444	C27.343,37.054,29.309,38,31.5,38c4.142,0,7.5-3.358,7.5-7.5c0-0.698-0.103-1.37-0.281-2.011C41.931,28.373,44.5,25.74,44.5,22.5z"/></svg>