<svg xmlns="http://www.w3.org/2000/svg" viewBox="0 0 48 48"><linearGradient id="mDOlYNa3YTHzbS~rFvc~Ra" x1="16.767" x2="31.234" y1="8" y2="8" gradientUnits="userSpaceOnUse"><stop offset="0" stop-color="#1d59b3"/><stop offset="1" stop-color="#195bbc"/></linearGradient><path fill="url(#mDOlYNa3YTHzbS~rFvc~Ra)" d="M30,5H18l-1.233,6h14.467L30,5z"/><linearGradient id="mDOlYNa3YTHzbS~rFvc~Rb" x1="43.983" x2="31.607" y1="15.504" y2="15.504" gradientUnits="userSpaceOnUse"><stop offset="0" stop-color="#2aa4f4"/><stop offset=".301" stop-color="#239def"/><stop offset=".749" stop-color="#0e88e2"/><stop offset="1" stop-color="#007ad9"/></linearGradient><path fill="url(#mDOlYNa3YTHzbS~rFvc~Rb)" d="M39.91,22.64l3.858-4.63c0.323-0.388,0.307-0.957-0.039-1.325l-8.152-8.678l-3.397,10.565	l6.409,4.26C39.013,23.115,39.583,23.032,39.91,22.64z"/><linearGradient id="mDOlYNa3YTHzbS~rFvc~Rc" x1="-228.017" x2="-240.393" y1="15.504" y2="15.504" gradientTransform="matrix(-1 0 0 1 -224 0)" gradientUnits="userSpaceOnUse"><stop offset="0" stop-color="#2aa4f4"/><stop offset=".301" stop-color="#239def"/><stop offset=".749" stop-color="#0e88e2"/><stop offset="1" stop-color="#007ad9"/></linearGradient><path fill="url(#mDOlYNa3YTHzbS~rFvc~Rc)" d="M8.09,22.64l-3.858-4.63c-0.323-0.388-0.307-0.957,0.039-1.325l8.152-8.678l3.397,10.565	l-6.409,4.26C8.987,23.115,8.417,23.032,8.09,22.64z"/><linearGradient id="mDOlYNa3YTHzbS~rFvc~Rd" x1="12" x2="42" y1="24" y2="24" gradientUnits="userSpaceOnUse"><stop offset="0" stop-color="#42a3f2"/><stop offset="1" stop-color="#42a4eb"/></linearGradient><path fill="url(#mDOlYNa3YTHzbS~rFvc~Rd)" d="M34.894,7.447L30,5c0,3.314-2.686,6-6,6s-6-2.686-6-6l-4.894,2.447	C12.428,7.786,12,8.479,12,9.236V42c0,0.552,0.448,1,1,1h22c0.552,0,1-0.448,1-1V9.236C36,8.479,35.572,7.786,34.894,7.447z"/><linearGradient id="mDOlYNa3YTHzbS~rFvc~Re" x1="12" x2="36" y1="40" y2="40" gradientUnits="userSpaceOnUse"><stop offset="0" stop-color="#3079d6"/><stop offset="1" stop-color="#297cd2"/></linearGradient><rect width="24" height="2" x="12" y="39" fill="url(#mDOlYNa3YTHzbS~rFvc~Re)"/><g><path fill="#fff" d="M22.824,29h-5.599v-1.543h1.833v-5.512l-1.883,0.407v-1.58L21.003,20v7.457h1.821V29z"/><path fill="#fff" d="M27.95,29.125c-2.129,0-3.194-1.495-3.194-4.485c0-1.551,0.288-2.733,0.864-3.546 c0.576-0.813,1.411-1.219,2.504-1.219c2.079,0,3.119,1.52,3.119,4.56c0,1.514-0.284,2.674-0.851,3.48 C29.824,28.722,29.01,29.125,27.95,29.125z M28.037,21.378c-0.852,0-1.279,1.071-1.279,3.212c0,2.017,0.418,3.025,1.254,3.025 c0.815,0,1.223-1.04,1.223-3.119S28.836,21.378,28.037,21.378z"/></g></svg>