<svg xmlns="http://www.w3.org/2000/svg" viewBox="0 0 48 48"><linearGradient id="mEv_Rldi3DG4T4m8L3jdJa" x1="28.008" x2="27.977" y1="19.18" y2="38.998" gradientUnits="userSpaceOnUse"><stop offset="0" stop-color="#fede00"/><stop offset="1" stop-color="#ffd000"/></linearGradient><path fill="url(#mEv_Rldi3DG4T4m8L3jdJa)" d="M41.658,6.938C38.797,8.625,30.845,12,13,12v32c16.565,0,24.91-3.179,28.224-4.909 C42.323,38.518,43,37.377,43,36.138V7.717C43,7.028,42.251,6.588,41.658,6.938z"/><linearGradient id="mEv_Rldi3DG4T4m8L3jdJb" x1="7.309" x2="20.928" y1="6.592" y2="46.34" gradientUnits="userSpaceOnUse"><stop offset="0" stop-color="#fede00"/><stop offset="1" stop-color="#f5aa00"/></linearGradient><path fill="url(#mEv_Rldi3DG4T4m8L3jdJb)" d="M20,8c-0.003-2.762-3.136-5-7-5S6.003,5.238,6,8l0,0v31.006h14V8L20,8z"/><path fill="#e97c01" d="M13,34.002c-3.866-0.001-7.001,2.238-7.003,5.002c-0.002,2.764,3.131,5.005,6.997,5.006 c0.002,0,0.004,0,0.006,0c3.866,0.001,7.001-2.238,7.003-5.002c0.002-2.764-3.131-5.005-6.997-5.006 C13.004,34.002,13.002,34.002,13,34.002z"/><path fill="#ad570d" d="M13,36.861c-1.657,0-3,0.96-3,2.145s1.343,2.145,3,2.145s3-0.96,3-2.145S14.657,36.861,13,36.861z"/><path fill="#f34b56" d="M6,20v4c1.105,0,2-0.896,2-2C8,20.895,7.105,20,6,20z"/><path fill="#f34b56" d="M6,11v4c1.105,0,2-0.896,2-2C8,11.895,7.105,11,6,11z"/><path fill="#f34b56" d="M6,29v4c1.105,0,2-0.896,2-2C8,29.895,7.105,29,6,29z"/><path fill="#f34b56" d="M20,24v-4c-1.105,0-2,0.895-2,2C18,23.104,18.895,24,20,24z"/><path fill="#f34b56" d="M20,15v-4c-1.105,0-2,0.895-2,2C18,14.104,18.895,15,20,15z"/><circle cx="13" cy="8" r="2" fill="#f34b56"/><circle cx="13" cy="26" r="2" fill="#f34b56"/><path fill="#f34b56" d="M20,29c-1.105,0-2,0.895-2,2c0,1.104,0.895,2,2,2V29z"/><circle cx="13" cy="17" r="2" fill="#f34b56"/></svg>