<svg xmlns="http://www.w3.org/2000/svg" xmlns:xlink="http://www.w3.org/1999/xlink" data-name="Слой 1" viewBox="0 0 48 48"><defs><linearGradient id="J4t_EnFX0iXThsz9st__Eb" x1="14.984" x2="25.756" y1=".169" y2="29.765" data-name="Безымянный градиент 17" gradientUnits="userSpaceOnUse"><stop offset="0" stop-color="#a1aab3"/><stop offset="1" stop-color="#8f979e"/></linearGradient><linearGradient id="J4t_EnFX0iXThsz9st__Ec" x1="30.485" x2="30.485" y1="19.576" y2="14.055" data-name="Безымянный градиент 187" gradientUnits="userSpaceOnUse"><stop offset="0" stop-color="#ffda1c"/><stop offset="1" stop-color="#feb705"/></linearGradient><linearGradient id="J4t_EnFX0iXThsz9st__Ea" x1="17.447" x2="17.447" y1="25.848" y2="56.468" data-name="Безымянный градиент 143" gradientUnits="userSpaceOnUse"><stop offset="0" stop-color="#889097"/><stop offset="1" stop-color="#4c5963"/></linearGradient><linearGradient id="J4t_EnFX0iXThsz9st__Ed" x1="17.447" x2="17.447" y1="30.087" y2="45.054" xlink:href="#J4t_EnFX0iXThsz9st__Ea"/><linearGradient id="J4t_EnFX0iXThsz9st__Ee" x1="30.485" x2="30.485" y1="5.283" y2="17.81" xlink:href="#J4t_EnFX0iXThsz9st__Ea"/></defs><path fill="url(#J4t_EnFX0iXThsz9st__Eb)" d="M27.48438,4h-7a4.50491,4.50491,0,0,0-4.5,4.5V15H15.984V42a.5.5,0,0,0,.5.5h2a.5.5,0,0,0,.5-.5V16.00366L18.98438,16V8.5a1.50164,1.50164,0,0,1,1.5-1.5h7a1.50164,1.50164,0,0,1,1.5,1.5V12a1.5,1.5,0,0,0,3,0V8.5A4.50492,4.50492,0,0,0,27.48438,4Z"/><ellipse cx="30.485" cy="15.5" fill="url(#J4t_EnFX0iXThsz9st__Ec)" rx="4" ry="1.5"/><path fill="url(#J4t_EnFX0iXThsz9st__Ea)" d="M20.91007,44H13.984l.929-11.0767A1,1,0,0,1,15.91007,32h3.074a1,1,0,0,1,.997.9233Z"/><rect width="8.926" height="2" x="12.984" y="43" fill="url(#J4t_EnFX0iXThsz9st__Ed)" rx="1"/><path fill="url(#J4t_EnFX0iXThsz9st__Ee)" d="M30.48463,11h0a4.38693,4.38693,0,0,0-4.08828,2.796s-.31638.74835-.3922,1.00787A.97932.97932,0,0,0,26.98472,16h7a.97932.97932,0,0,0,.98058-1.19612c-.0759-.25969-.39263-1.00851-.39263-1.00851A4.38693,4.38693,0,0,0,30.48463,11Z"/><rect width="3" height="1" x="15.984" y="31" opacity=".05"/><rect width="3" height=".5" x="15.984" y="31.5" opacity=".07"/><path d="M30.48438,10a5.33138,5.33138,0,0,0-1.5.21v1.06a4.30226,4.30226,0,0,1,3,0V10.21A5.33138,5.33138,0,0,0,30.48438,10Z" opacity=".05"/><path d="M30.48438,10.5a5.00174,5.00174,0,0,0-1.5.23v.54a4.30226,4.30226,0,0,1,3,0v-.54A5.00174,5.00174,0,0,0,30.48438,10.5Z" opacity=".07"/></svg>