<svg xmlns="http://www.w3.org/2000/svg" viewBox="0 0 48 48"><linearGradient id="QLh6DAjtRK11ykW4SbmW9a" x1="24" x2="24" y1="19.304" y2="1.236" gradientUnits="userSpaceOnUse"><stop offset="0" stop-color="#f9f9f9"/><stop offset=".26" stop-color="#f0f1f2"/><stop offset=".678" stop-color="#d9dcdf"/><stop offset="1" stop-color="#c2c8cc"/></linearGradient><path fill="url(#QLh6DAjtRK11ykW4SbmW9a)" d="M24,8L24,8c-0.459-0.919,0.209-2,1.236-2h4.237c0.43,0,0.813-0.275,0.949-0.684l0.553-1.658	C31.082,3.334,30.841,3,30.5,3H22c-3.314,0-6,2.686-6,6v3.889c-0.635,1.233-1,2.628-1,4.111v6h18v-6C33,12.029,28.971,8,24,8z"/><linearGradient id="QLh6DAjtRK11ykW4SbmW9b" x1="17.019" x2="31.436" y1="9.819" y2="49.431" gradientUnits="userSpaceOnUse"><stop offset="0" stop-color="#32bdef"/><stop offset="1" stop-color="#1ea2e4"/></linearGradient><path fill="url(#QLh6DAjtRK11ykW4SbmW9b)" d="M32,45H16c-1.105,0-2-0.895-2-2V15	c0-1.105,0.895-2,2-2h16c1.105,0,2,0.895,2,2v28C34,44.105,33.105,45,32,45z"/><rect width="20" height="10" x="14" y="23" fill="#50e6ff"/><path d="M31.79,12.5c-0.1-0.17-0.2-0.34-0.31-0.5H16v0.89c-0.02,0.04-0.04,0.07-0.06,0.11h16.12 C31.98,12.83,31.89,12.66,31.79,12.5z" opacity=".05"/><path d="M31.79,12.5H16v0.39c-0.02,0.04-0.04,0.07-0.06,0.11h16.12C31.98,12.83,31.89,12.66,31.79,12.5z" opacity=".07"/></svg>