<svg xmlns="http://www.w3.org/2000/svg" viewBox="0 0 48 48"><linearGradient id="ewb2gywdCZRZVDOD6_8i0a" x1="15.086" x2="27.086" y1="2.79" y2="46.705" gradientUnits="userSpaceOnUse"><stop offset="0" stop-color="#0d61a9"/><stop offset="1" stop-color="#16528c"/></linearGradient><path fill="url(#ewb2gywdCZRZVDOD6_8i0a)" d="M34,44H9c-0.552,0-1-0.448-1-1V6c0-1.105,0.895-2,2-2h22c1.105,0,2,0.895,2,2V44z"/><radialGradient id="ewb2gywdCZRZVDOD6_8i0b" cx="21.128" cy="43.511" r="33.942" gradientUnits="userSpaceOnUse"><stop offset="0" stop-color="#4b4b4b"/><stop offset=".531" stop-color="#393939"/><stop offset="1" stop-color="#252525"/></radialGradient><rect width="22" height="38" x="10" y="6" fill="url(#ewb2gywdCZRZVDOD6_8i0b)"/><rect width="11" height="45" x="4" y="2" fill="#fff"/><linearGradient id="ewb2gywdCZRZVDOD6_8i0c" x1="9.465" x2="24.872" y1="1155.63" y2="1205.405" gradientTransform="translate(0 -1152)" gradientUnits="userSpaceOnUse"><stop offset="0" stop-color="#42a3f2"/><stop offset="1" stop-color="#42a4eb"/></linearGradient><path fill="url(#ewb2gywdCZRZVDOD6_8i0c)" d="M8,42.248V5.752c0-0.505,0.371-0.931,0.868-0.998l13-1.745C22.467,2.929,23,3.398,23,4.007	v39.986c0,0.609-0.533,1.078-1.132,0.998l-13-1.745C8.371,43.179,8,42.753,8,42.248z"/><radialGradient id="ewb2gywdCZRZVDOD6_8i0d" cx="18.5" cy="1176" r="2" gradientTransform="translate(0 -1152)" gradientUnits="userSpaceOnUse"><stop offset="0"/><stop offset="1" stop-opacity="0"/></radialGradient><path fill="url(#ewb2gywdCZRZVDOD6_8i0d)" d="M20.5,24c0,1.1-0.9,2-2,2s-2-0.9-2-2s0.9-2,2-2S20.5,22.9,20.5,24z"/><linearGradient id="ewb2gywdCZRZVDOD6_8i0e" x1="18.055" x2="19.459" y1="1174.317" y2="1178.053" gradientTransform="translate(0 -1152)" gradientUnits="userSpaceOnUse"><stop offset="0" stop-color="#0077d2"/><stop offset="1" stop-color="#0b59a2"/></linearGradient><path fill="url(#ewb2gywdCZRZVDOD6_8i0e)" d="M20,23.5c0,0.825-0.675,1.5-1.5,1.5S17,24.325,17,23.5s0.675-1.5,1.5-1.5S20,22.675,20,23.5z"/></svg>