<svg xmlns="http://www.w3.org/2000/svg" viewBox="0 0 48 48"><linearGradient id="25oWuOXjAHVIUm89m4xe~a" x1="19.802" x2="40.954" y1="7.381" y2="65.496" gradientUnits="userSpaceOnUse"><stop offset="0" stop-color="#fed100"/><stop offset="1" stop-color="#e38101"/></linearGradient><path fill="url(#25oWuOXjAHVIUm89m4xe~a)" d="M43,20c-0.34,0.18-0.82,0.48-1.3,0.94c-2.73,3.09-2.46,6.96-2.7,10.79	c-0.01,0.1-0.01,0.2-0.02,0.3v0.01c-0.2,2.69-0.68,5.35-2.67,7.7c-5.22,6.93-17.4,6.93-22.62,0c-1.97-2.08-2.44-4.81-2.64-7.64	c-0.02-0.29-0.04-0.57-0.05-0.86c-0.24-4.32-0.14-8.73-4-11.24c1.38-2.42,5.82-2.43,8-1.16c0.3-3.99-2.04-16.81,6.02-13.3	c0.25-4.6,7.71-4.6,7.96,0c8.06-3.53,5.73,9.33,6.02,13.3C37.18,17.57,41.63,17.58,43,20z"/><path d="M25,24c0.623,0,6.325,0.1,10,5c-0.374,0.498-3.875,5-10,5c-0.623,0-6.325-0.1-10-5C15.374,28.502,18.875,24,25,24 M25,23 c-6.419,0-10.122,4.498-10.8,5.399L13.75,29l0.45,0.6C18.055,34.74,23.873,35,25,35c6.419,0,10.122-4.498,10.8-5.399L36.25,29 l-0.45-0.6C31.945,23.26,26.127,23,25,23L25,23z" opacity=".05"/><path d="M25,24c0.623,0,6.325,0.1,10,5c-0.374,0.498-3.875,5-10,5c-0.623,0-6.325-0.1-10-5C15.374,28.502,18.875,24,25,24 M25,23.5c-6.182,0-9.748,4.331-10.4,5.2L14.375,29l0.225,0.3c3.791,5.054,9.735,5.2,10.4,5.2c6.182,0,9.748-4.331,10.4-5.2 l0.225-0.3L35.4,28.7C31.609,23.646,25.665,23.5,25,23.5L25,23.5z" opacity=".07"/><radialGradient id="25oWuOXjAHVIUm89m4xe~b" cx="25" cy="29" r="10.982" gradientUnits="userSpaceOnUse"><stop offset="0" stop-color="#f9f9f9"/><stop offset=".26" stop-color="#f0f1f2"/><stop offset=".678" stop-color="#d9dcdf"/><stop offset="1" stop-color="#c2c8cc"/></radialGradient><path fill="url(#25oWuOXjAHVIUm89m4xe~b)" d="M35,29c-0.374,0.498-3.875,5-10,5c-0.623,0-6.325-0.1-10-5c0.374-0.498,3.875-5,10-5 C25.623,24,31.325,24.1,35,29z"/><linearGradient id="25oWuOXjAHVIUm89m4xe~c" x1="23.179" x2="28.137" y1="23.996" y2="37.618" gradientUnits="userSpaceOnUse"><stop offset="0" stop-color="#2aa4f4"/><stop offset="1" stop-color="#007ad9"/></linearGradient><circle cx="25" cy="29" r="4" fill="url(#25oWuOXjAHVIUm89m4xe~c)"/></svg>