<svg xmlns="http://www.w3.org/2000/svg" viewBox="0 0 48 48"><linearGradient id="9ioNCEFk8pHbAqWqXwB~oa" x1="22.166" x2="26.035" y1="1.959" y2="5.828" gradientUnits="userSpaceOnUse"><stop offset=".9" stop-color="#6d7882"/><stop offset=".917" stop-color="#45494d"/></linearGradient><path fill="url(#9ioNCEFk8pHbAqWqXwB~oa)" d="M27,5h-6V3c0-0.552,0.448-1,1-1h4c0.552,0,1,0.448,1,1V5z"/><path fill="#6e747a" d="M4.293,4.293c-0.391,0.391-0.391,1.024,0,1.414c0.195,0.195,7.305,7.305,7.5,7.5	c0.391,0.391,1.024,0.391,1.414,0c0.391-0.391,0.391-1.024,0-1.414c-0.195-0.195-7.305-7.305-7.5-7.5	C5.317,3.902,4.683,3.902,4.293,4.293z"/><path fill="#6e747a" d="M43.707,4.293c-0.391-0.391-1.024-0.391-1.414,0c-0.195,0.195-7.305,7.305-7.5,7.5	c-0.391,0.391-0.391,1.024,0,1.414c0.391,0.391,1.024,0.391,1.414,0c0.195-0.195,7.305-7.305,7.5-7.5	C44.098,5.317,44.098,4.683,43.707,4.293z"/><linearGradient id="9ioNCEFk8pHbAqWqXwB~ob" x1="4.981" x2="11.157" y1="4.981" y2="11.157" gradientUnits="userSpaceOnUse"><stop offset="0" stop-color="#c3cdd9"/><stop offset="1" stop-color="#9fa7b0"/></linearGradient><path fill="url(#9ioNCEFk8pHbAqWqXwB~ob)" d="M5.459,12.742l7.283-7.283c0.377-0.377,0.337-1.014-0.097-1.325	c-2.383-1.705-5.718-1.488-7.858,0.653s-2.358,5.475-0.653,7.858C4.445,13.079,5.082,13.119,5.459,12.742z"/><linearGradient id="9ioNCEFk8pHbAqWqXwB~oc" x1="9.858" x2="38.142" y1="9.858" y2="38.142" gradientUnits="userSpaceOnUse"><stop offset="0" stop-color="#f44f5a"/><stop offset=".443" stop-color="#ee3d4a"/><stop offset="1" stop-color="#e52030"/></linearGradient><path fill="url(#9ioNCEFk8pHbAqWqXwB~oc)" d="M44,24c0,11.045-8.955,20-20,20S4,35.045,4,24S12.955,4,24,4S44,12.955,44,24z"/><radialGradient id="9ioNCEFk8pHbAqWqXwB~od" cx="24" cy="24" r="18.5" gradientUnits="userSpaceOnUse"><stop offset="0"/><stop offset="1" stop-opacity="0"/></radialGradient><circle cx="24" cy="24" r="18.5" fill="url(#9ioNCEFk8pHbAqWqXwB~od)"/><radialGradient id="9ioNCEFk8pHbAqWqXwB~oe" cx="23.89" cy="7.394" r="37.883" gradientUnits="userSpaceOnUse"><stop offset="0" stop-color="#fafafb"/><stop offset="1" stop-color="#c8cdd1"/></radialGradient><circle cx="24" cy="24" r="17" fill="url(#9ioNCEFk8pHbAqWqXwB~oe)"/><path fill="#d83b01" d="M24,36.75c-0.414,0-0.75-0.336-0.75-0.75V24c0-0.414,0.336-0.75,0.75-0.75s0.75,0.336,0.75,0.75v12	C24.75,36.414,24.414,36.75,24,36.75z"/><path fill="#45494d" d="M24,24.75c-0.192,0-0.384-0.073-0.53-0.22c-0.293-0.293-0.293-0.768,0-1.061l8.485-8.485	c0.293-0.293,0.768-0.293,1.061,0s0.293,0.768,0,1.061L24.53,24.53C24.384,24.677,24.192,24.75,24,24.75z"/><path fill="#45494d" d="M23.999,25.25c-0.182,0-0.365-0.04-0.54-0.124l-7.787-3.735c-0.622-0.298-0.885-1.045-0.586-1.667	c0.299-0.623,1.045-0.885,1.668-0.586l7.787,3.735c0.622,0.298,0.885,1.045,0.586,1.667C24.912,24.989,24.465,25.25,23.999,25.25z"/><circle cx="24" cy="24" r="2" fill="#1e2021"/><linearGradient id="9ioNCEFk8pHbAqWqXwB~of" x1="37.339" x2="45.181" y1="3.226" y2="11.068" gradientUnits="userSpaceOnUse"><stop offset="0" stop-color="#c3cdd9"/><stop offset="1" stop-color="#9fa7b0"/></linearGradient><path fill="url(#9ioNCEFk8pHbAqWqXwB~of)" d="M35.258,5.459l7.283,7.283c0.377,0.377,1.014,0.337,1.325-0.097	c1.705-2.383,1.488-5.718-0.653-7.858c-2.14-2.14-5.475-2.358-7.858-0.653C34.921,4.445,34.881,5.082,35.258,5.459z"/></svg>