<svg xmlns="http://www.w3.org/2000/svg" viewBox="0 0 48 48"><path fill="#007ad9" d="M38,11.793V5c0-0.552-0.448-1-1-1h-6.793c-0.445,0-0.669,0.539-0.354,0.854l7.293,7.293	C37.461,12.461,38,12.238,38,11.793z"/><path fill="#61e3a7" d="M45,43H3c-0.552,0-1-0.448-1-1V24c0-0.552,0.448-1,1-1h42c0.552,0,1,0.448,1,1v18	C46,42.552,45.552,43,45,43z"/><path fill="#33c481" d="M7,23v20h34V23H7z M19,40c-3.866,0-7-3.134-7-7s3.134-7,7-7s7,3.134,7,7S22.866,40,19,40z M37.5,40	c-0.828,0-1.5-0.672-1.5-1.5s0.672-1.5,1.5-1.5s1.5,0.672,1.5,1.5S38.328,40,37.5,40z M33.5,40c-0.828,0-1.5-0.672-1.5-1.5	s0.672-1.5,1.5-1.5s1.5,0.672,1.5,1.5S34.328,40,33.5,40z"/><path fill="#007ad9" d="M24.586,17.414L19,11.828l-5.879,5.879c-0.391,0.391-1.024,0.391-1.414,0l-1.414-1.414	c-0.391-0.391-0.391-1.024,0-1.414l7.293-7.293c0.781-0.781,2.047-0.781,2.828,0L26,13.172l6.586-6.586l2.828,2.828l-8,8	C26.633,18.195,25.367,18.195,24.586,17.414z"/></svg>