<svg xmlns="http://www.w3.org/2000/svg" viewBox="0 0 48 48"><linearGradient id="4DFijJjZC_IfgvuP9buN3a" x1="26.508" x2="42.169" y1="26.425" y2="42.086" gradientTransform="rotate(-12.592 34 33.918)" gradientUnits="userSpaceOnUse"><stop offset="0" stop-color="#889097"/><stop offset=".331" stop-color="#848c94"/><stop offset=".669" stop-color="#78828b"/><stop offset="1" stop-color="#64717c"/></linearGradient><path fill="url(#4DFijJjZC_IfgvuP9buN3a)" d="M43.87,29.083c-1.244,0.449-2.69,0.142-3.641-0.893c-0.951-1.035-1.135-2.501-0.584-3.703 c-1.47-0.88-3.141-1.422-4.896-1.541c-0.232,1.304-1.221,2.406-2.594,2.713c-1.374,0.307-2.737-0.269-3.502-1.351 c-1.537,0.854-2.819,2.056-3.774,3.478c1.01,0.853,1.467,2.259,1.047,3.599c-0.42,1.341-1.598,2.234-2.915,2.357 c-0.013,0.848,0.061,1.708,0.254,2.572c0.193,0.864,0.493,1.674,0.865,2.436c1.244-0.449,2.69-0.142,3.641,0.893 c0.951,1.034,1.135,2.501,0.584,3.703c1.47,0.88,3.141,1.422,4.896,1.541c0.232-1.304,1.221-2.406,2.594-2.713 s2.737,0.269,3.502,1.351c1.537-0.854,2.819-2.056,3.774-3.478c-1.01-0.853-1.467-2.259-1.047-3.599 c0.42-1.341,1.598-2.234,2.915-2.357c0.013-0.848-0.061-1.708-0.254-2.572C44.542,30.655,44.243,29.845,43.87,29.083z"/><linearGradient id="4DFijJjZC_IfgvuP9buN3b" x1="38.127" x2="29.818" y1="38.044" y2="29.735" gradientTransform="rotate(-12.592 34 33.918)" gradientUnits="userSpaceOnUse"><stop offset="0" stop-color="#fff"/><stop offset=".242" stop-color="#f2f2f2"/><stop offset="1" stop-color="#ccc"/></linearGradient><circle cx="34" cy="33.917" r="5.923" fill="url(#4DFijJjZC_IfgvuP9buN3b)"/><linearGradient id="4DFijJjZC_IfgvuP9buN3c" x1="30.626" x2="36.544" y1="30.543" y2="36.461" gradientTransform="rotate(-12.592 34 33.918)" gradientUnits="userSpaceOnUse"><stop offset="0" stop-color="#0d61a9"/><stop offset=".363" stop-color="#0e5fa4"/><stop offset=".78" stop-color="#135796"/><stop offset="1" stop-color="#16528c"/></linearGradient><circle cx="34" cy="33.917" r="3.605" fill="url(#4DFijJjZC_IfgvuP9buN3c)"/><linearGradient id="4DFijJjZC_IfgvuP9buN3d" x1="26.508" x2="42.169" y1="26.425" y2="42.086" gradientTransform="rotate(-12.592 34 33.918)" gradientUnits="userSpaceOnUse"><stop offset="0" stop-color="#889097"/><stop offset=".331" stop-color="#848c94"/><stop offset=".669" stop-color="#78828b"/><stop offset="1" stop-color="#64717c"/></linearGradient><path fill="url(#4DFijJjZC_IfgvuP9buN3d)" d="M43.87,29.083c-1.244,0.449-2.69,0.142-3.641-0.893c-0.951-1.035-1.135-2.501-0.584-3.703 c-1.47-0.88-3.141-1.422-4.896-1.541c-0.232,1.304-1.221,2.406-2.594,2.713c-1.374,0.307-2.737-0.269-3.502-1.351 c-1.537,0.854-2.819,2.056-3.774,3.478c1.01,0.853,1.467,2.259,1.047,3.599c-0.42,1.341-1.598,2.234-2.915,2.357 c-0.013,0.848,0.061,1.708,0.254,2.572c0.193,0.864,0.493,1.674,0.865,2.436c1.244-0.449,2.69-0.142,3.641,0.893 c0.951,1.034,1.135,2.501,0.584,3.703c1.47,0.88,3.141,1.422,4.896,1.541c0.232-1.304,1.221-2.406,2.594-2.713 s2.737,0.269,3.502,1.351c1.537-0.854,2.819-2.056,3.774-3.478c-1.01-0.853-1.467-2.259-1.047-3.599 c0.42-1.341,1.598-2.234,2.915-2.357c0.013-0.848-0.061-1.708-0.254-2.572C44.542,30.655,44.243,29.845,43.87,29.083z"/><linearGradient id="4DFijJjZC_IfgvuP9buN3e" x1="20.189" x2="34.426" y1="6.148" y2="20.385" gradientUnits="userSpaceOnUse"><stop offset="0" stop-color="#889097"/><stop offset=".331" stop-color="#848c94"/><stop offset=".669" stop-color="#78828b"/><stop offset="1" stop-color="#64717c"/></linearGradient><path fill="url(#4DFijJjZC_IfgvuP9buN3e)" d="M36.715,10.626c-1.193,0.151-2.415-0.407-3.054-1.514c-0.639-1.106-0.512-2.444,0.216-3.401 c-1.129-1.072-2.505-1.884-4.038-2.338C29.375,4.485,28.279,5.266,27,5.266s-2.375-0.781-2.839-1.893 c-1.533,0.453-2.909,1.266-4.038,2.338c0.727,0.957,0.854,2.295,0.216,3.401c-0.639,1.106-1.861,1.665-3.054,1.514 C17.105,11.376,17,12.154,17,12.958c0,0.805,0.105,1.583,0.285,2.332c1.193-0.151,2.415,0.407,3.054,1.514 c0.639,1.106,0.512,2.444-0.216,3.401c1.129,1.072,2.505,1.884,4.038,2.338c0.464-1.111,1.56-1.893,2.839-1.893 s2.375,0.781,2.839,1.893c1.533-0.453,2.909-1.266,4.038-2.338c-0.727-0.957-0.854-2.295-0.216-3.401 c0.639-1.106,1.861-1.665,3.054-1.514C36.895,14.541,37,13.763,37,12.958C37,12.154,36.895,11.376,36.715,10.626z"/><linearGradient id="4DFijJjZC_IfgvuP9buN3f" x1="30.751" x2="23.198" y1="16.71" y2="9.157" gradientUnits="userSpaceOnUse"><stop offset="0" stop-color="#fff"/><stop offset=".242" stop-color="#f2f2f2"/><stop offset="1" stop-color="#ccc"/></linearGradient><circle cx="27" cy="12.958" r="5.385" fill="url(#4DFijJjZC_IfgvuP9buN3f)"/><linearGradient id="4DFijJjZC_IfgvuP9buN3g" x1="23.933" x2="29.313" y1="9.892" y2="15.271" gradientUnits="userSpaceOnUse"><stop offset="0" stop-color="#0d61a9"/><stop offset=".363" stop-color="#0e5fa4"/><stop offset=".78" stop-color="#135796"/><stop offset="1" stop-color="#16528c"/></linearGradient><circle cx="27" cy="12.958" r="3.278" fill="url(#4DFijJjZC_IfgvuP9buN3g)"/><linearGradient id="4DFijJjZC_IfgvuP9buN3h" x1="20.189" x2="34.426" y1="6.189" y2="20.426" gradientUnits="userSpaceOnUse"><stop offset="0" stop-color="#889097"/><stop offset=".331" stop-color="#848c94"/><stop offset=".669" stop-color="#78828b"/><stop offset="1" stop-color="#64717c"/></linearGradient><path fill="url(#4DFijJjZC_IfgvuP9buN3h)" d="M36.715,10.668c-1.193,0.151-2.415-0.407-3.054-1.514c-0.639-1.106-0.512-2.444,0.216-3.401 c-1.129-1.072-2.505-1.884-4.038-2.338C29.375,4.526,28.279,5.308,27,5.308s-2.375-0.781-2.839-1.893 c-1.533,0.453-2.909,1.266-4.038,2.338c0.727,0.957,0.854,2.295,0.216,3.401c-0.639,1.106-1.861,1.665-3.054,1.514 C17.105,11.417,17,12.195,17,13c0,0.805,0.105,1.583,0.285,2.332c1.193-0.151,2.415,0.407,3.054,1.514 c0.639,1.106,0.512,2.444-0.216,3.401c1.129,1.072,2.505,1.884,4.038,2.338c0.464-1.111,1.56-1.893,2.839-1.893 s2.375,0.781,2.839,1.893c1.533-0.453,2.909-1.266,4.038-2.338c-0.727-0.957-0.854-2.295-0.216-3.401 c0.639-1.106,1.861-1.665,3.054-1.514C36.895,14.583,37,13.805,37,13C37,12.195,36.895,11.417,36.715,10.668z"/><linearGradient id="4DFijJjZC_IfgvuP9buN3i" x1="30.483" x2="23.47" y1="16.483" y2="9.47" gradientUnits="userSpaceOnUse"><stop offset="0" stop-color="#fff"/><stop offset=".242" stop-color="#f2f2f2"/><stop offset="1" stop-color="#ccc"/></linearGradient><circle cx="27" cy="13" r="5" fill="url(#4DFijJjZC_IfgvuP9buN3i)"/><linearGradient id="4DFijJjZC_IfgvuP9buN3j" x1="24.193" x2="29.117" y1="10.193" y2="15.117" gradientUnits="userSpaceOnUse"><stop offset="0" stop-color="#0d61a9"/><stop offset=".363" stop-color="#0e5fa4"/><stop offset=".78" stop-color="#135796"/><stop offset="1" stop-color="#16528c"/></linearGradient><circle cx="27" cy="13" r="3" fill="url(#4DFijJjZC_IfgvuP9buN3j)"/><linearGradient id="4DFijJjZC_IfgvuP9buN3k" x1="5.189" x2="19.426" y1="20.148" y2="34.385" gradientUnits="userSpaceOnUse"><stop offset="0" stop-color="#889097"/><stop offset=".331" stop-color="#848c94"/><stop offset=".669" stop-color="#78828b"/><stop offset="1" stop-color="#64717c"/></linearGradient><path fill="url(#4DFijJjZC_IfgvuP9buN3k)" d="M21.715,24.626c-1.193,0.151-2.415-0.407-3.054-1.514c-0.639-1.106-0.512-2.444,0.216-3.401 c-1.129-1.072-2.505-1.884-4.038-2.338c-0.464,1.111-1.56,1.893-2.839,1.893s-2.375-0.781-2.839-1.893 c-1.533,0.453-2.909,1.266-4.038,2.338c0.727,0.957,0.854,2.295,0.216,3.401c-0.639,1.106-1.861,1.665-3.054,1.514 C2.105,25.376,2,26.154,2,26.958c0,0.805,0.105,1.583,0.285,2.332c1.193-0.151,2.415,0.407,3.054,1.514 c0.639,1.106,0.512,2.444-0.216,3.401c1.129,1.072,2.505,1.884,4.038,2.338c0.464-1.111,1.56-1.893,2.839-1.893 s2.375,0.781,2.839,1.893c1.533-0.453,2.909-1.266,4.038-2.338c-0.727-0.957-0.854-2.295-0.216-3.401 c0.639-1.106,1.861-1.665,3.054-1.514C21.895,28.541,22,27.763,22,26.958C22,26.154,21.895,25.376,21.715,24.626z"/><linearGradient id="4DFijJjZC_IfgvuP9buN3l" x1="15.751" x2="8.198" y1="30.71" y2="23.157" gradientUnits="userSpaceOnUse"><stop offset="0" stop-color="#fff"/><stop offset=".242" stop-color="#f2f2f2"/><stop offset="1" stop-color="#ccc"/></linearGradient><circle cx="12" cy="26.958" r="5.385" fill="url(#4DFijJjZC_IfgvuP9buN3l)"/><linearGradient id="4DFijJjZC_IfgvuP9buN3m" x1="8.933" x2="14.313" y1="23.892" y2="29.271" gradientUnits="userSpaceOnUse"><stop offset="0" stop-color="#0d61a9"/><stop offset=".363" stop-color="#0e5fa4"/><stop offset=".78" stop-color="#135796"/><stop offset="1" stop-color="#16528c"/></linearGradient><circle cx="12" cy="26.958" r="3.278" fill="url(#4DFijJjZC_IfgvuP9buN3m)"/><linearGradient id="4DFijJjZC_IfgvuP9buN3n" x1="5.189" x2="19.426" y1="20.189" y2="34.426" gradientUnits="userSpaceOnUse"><stop offset="0" stop-color="#889097"/><stop offset=".331" stop-color="#848c94"/><stop offset=".669" stop-color="#78828b"/><stop offset="1" stop-color="#64717c"/></linearGradient><path fill="url(#4DFijJjZC_IfgvuP9buN3n)" d="M21.715,24.668c-1.193,0.151-2.415-0.407-3.054-1.514c-0.639-1.106-0.512-2.444,0.216-3.401 c-1.129-1.072-2.505-1.884-4.038-2.338c-0.464,1.111-1.56,1.893-2.839,1.893s-2.375-0.781-2.839-1.893 c-1.533,0.453-2.909,1.266-4.038,2.338c0.727,0.957,0.854,2.295,0.216,3.401c-0.639,1.106-1.861,1.665-3.054,1.514 C2.105,25.417,2,26.195,2,27c0,0.805,0.105,1.583,0.285,2.332c1.193-0.151,2.415,0.407,3.054,1.514 c0.639,1.106,0.512,2.444-0.216,3.401c1.129,1.072,2.505,1.884,4.038,2.338c0.464-1.111,1.56-1.893,2.839-1.893 s2.375,0.781,2.839,1.893c1.533-0.453,2.909-1.266,4.038-2.338c-0.727-0.957-0.854-2.295-0.216-3.401 c0.639-1.106,1.861-1.665,3.054-1.514C21.895,28.583,22,27.805,22,27C22,26.195,21.895,25.417,21.715,24.668z"/><linearGradient id="4DFijJjZC_IfgvuP9buN3o" x1="15.483" x2="8.47" y1="30.483" y2="23.47" gradientUnits="userSpaceOnUse"><stop offset="0" stop-color="#fff"/><stop offset=".242" stop-color="#f2f2f2"/><stop offset="1" stop-color="#ccc"/></linearGradient><circle cx="12" cy="27" r="5" fill="url(#4DFijJjZC_IfgvuP9buN3o)"/><linearGradient id="4DFijJjZC_IfgvuP9buN3p" x1="9.193" x2="14.117" y1="24.193" y2="29.117" gradientUnits="userSpaceOnUse"><stop offset="0" stop-color="#0d61a9"/><stop offset=".363" stop-color="#0e5fa4"/><stop offset=".78" stop-color="#135796"/><stop offset="1" stop-color="#16528c"/></linearGradient><circle cx="12" cy="27" r="3" fill="url(#4DFijJjZC_IfgvuP9buN3p)"/><linearGradient id="4DFijJjZC_IfgvuP9buN3q" x1="38.18" x2="29.764" y1="38.18" y2="29.764" gradientUnits="userSpaceOnUse"><stop offset="0" stop-color="#fff"/><stop offset=".242" stop-color="#f2f2f2"/><stop offset="1" stop-color="#ccc"/></linearGradient><circle cx="34" cy="34" r="6" fill="url(#4DFijJjZC_IfgvuP9buN3q)"/><linearGradient id="4DFijJjZC_IfgvuP9buN3r" x1="30.257" x2="36.823" y1="30.257" y2="36.823" gradientUnits="userSpaceOnUse"><stop offset="0" stop-color="#0d61a9"/><stop offset=".363" stop-color="#0e5fa4"/><stop offset=".78" stop-color="#135796"/><stop offset="1" stop-color="#16528c"/></linearGradient><circle cx="34" cy="34" r="4" fill="url(#4DFijJjZC_IfgvuP9buN3r)"/></svg>