<svg xmlns="http://www.w3.org/2000/svg" viewBox="0 0 48 48"><linearGradient id="Z3u55as5xQT0Xm3pZ~tHna" x1="27.702" x2="35.722" y1="18.41" y2="26.008" gradientUnits="userSpaceOnUse"><stop offset="0" stop-color="#0e5fa4"/><stop offset="1" stop-color="#1595df"/></linearGradient><path fill="url(#Z3u55as5xQT0Xm3pZ~tHna)" d="M24,6l18,16v17.586c0,0.891-1.077,1.337-1.707,0.707L24,24V6z"/><linearGradient id="Z3u55as5xQT0Xm3pZ~tHnb" x1="16.667" x2="22.667" y1="27" y2="27" gradientTransform="matrix(-3 0 0 -1 92 42)" gradientUnits="userSpaceOnUse"><stop offset="0" stop-color="#50e6ff"/><stop offset="1" stop-color="#32bdef"/></linearGradient><path fill="url(#Z3u55as5xQT0Xm3pZ~tHnb)" d="M24,6l18,16c-7.249-2.341-14-2-18,2V6z"/><linearGradient id="Z3u55as5xQT0Xm3pZ~tHnc" x1="18.483" x2="27.736" y1="19.517" y2="10.264" gradientUnits="userSpaceOnUse"><stop offset="0" stop-color="#0e5fa4"/><stop offset="1" stop-color="#1595df"/></linearGradient><path fill="url(#Z3u55as5xQT0Xm3pZ~tHnc)" d="M6,24L22,6h17.586c0.891,0,1.337,1.077,0.707,1.707L24,24H6z"/><linearGradient id="Z3u55as5xQT0Xm3pZ~tHnd" x1="3" x2="9" y1="24" y2="24" gradientTransform="matrix(0 3 -1 0 39 -3)" gradientUnits="userSpaceOnUse"><stop offset="0" stop-color="#50e6ff"/><stop offset="1" stop-color="#32bdef"/></linearGradient><path fill="url(#Z3u55as5xQT0Xm3pZ~tHnd)" d="M6,24L22,6c-2.341,7.249-2,14,2,18H6z"/><linearGradient id="Z3u55as5xQT0Xm3pZ~tHne" x1="19.748" x2="7.491" y1="29.748" y2="17.491" gradientUnits="userSpaceOnUse"><stop offset="0" stop-color="#0e5fa4"/><stop offset="1" stop-color="#1595df"/></linearGradient><path fill="url(#Z3u55as5xQT0Xm3pZ~tHne)" d="M24,42L6,26V8.414c0-0.891,1.077-1.337,1.707-0.707L24,24V42z"/><linearGradient id="Z3u55as5xQT0Xm3pZ~tHnf" x1="6" x2="12" y1="33" y2="33" gradientTransform="matrix(3 0 0 1 -12 0)" gradientUnits="userSpaceOnUse"><stop offset="0" stop-color="#50e6ff"/><stop offset="1" stop-color="#32bdef"/></linearGradient><path fill="url(#Z3u55as5xQT0Xm3pZ~tHnf)" d="M24,42L6,26c7.249,2.341,14,2,18-2V42z"/><linearGradient id="Z3u55as5xQT0Xm3pZ~tHng" x1="28.457" x2="19.623" y1="29.543" y2="38.377" gradientUnits="userSpaceOnUse"><stop offset="0" stop-color="#0e5fa4"/><stop offset="1" stop-color="#1595df"/></linearGradient><path fill="url(#Z3u55as5xQT0Xm3pZ~tHng)" d="M24,24L7.707,40.293C7.077,40.923,7.523,42,8.414,42H26l7.529-8.471L24,24z"/><linearGradient id="Z3u55as5xQT0Xm3pZ~tHnh" x1="24" x2="33.529" y1="33" y2="33" gradientUnits="userSpaceOnUse"><stop offset="0" stop-color="#50e6ff"/><stop offset="1" stop-color="#32bdef"/></linearGradient><path fill="url(#Z3u55as5xQT0Xm3pZ~tHnh)" d="M33.529,33.529L24,24c4,4,4.341,10.751,2,18L33.529,33.529z"/><linearGradient id="Z3u55as5xQT0Xm3pZ~tHni" x1="24.517" x2="23.183" y1="24.517" y2="23.183" gradientUnits="userSpaceOnUse"><stop offset="0" stop-color="#ffd000"/><stop offset="1" stop-color="#fede00"/></linearGradient><circle cx="24" cy="24" r="2" fill="url(#Z3u55as5xQT0Xm3pZ~tHni)"/></svg>