<svg xmlns="http://www.w3.org/2000/svg" viewBox="0 0 48 48"><path fill="#d9414f" d="M16,33h-2v-6h4v4C18,32.105,17.105,33,16,33z"/><path fill="#0078d4" d="M16,28h-6v12c0,1.657,1.343,3,3,3h2c0.552,0,1-0.448,1-1V28z"/><path fill="#0078d4" d="M42,18c1.657,0,3,1.343,3,3s-1.343,3-3,3V18z"/><path fill="#35c1f1" d="M39,3c0,0-4,11-23,11v14c19,0,23,11,23,11V3z"/><path fill="#50e6ff" d="M40,3h-1v36h1c1.105,0,2-0.895,2-2V5C42,3.895,41.105,3,40,3z"/><path fill="#1b9de2" d="M10,14c-3.866,0-7,3.134-7,7c0,3.866,3.134,7,7,7h6V14H10z"/></svg>