<svg xmlns="http://www.w3.org/2000/svg" viewBox="0 0 48 48"><linearGradient id="3q95syRTlZvpu3RnBhyyOa" x1="313.014" x2="308.607" y1="590.186" y2="590.186" gradientTransform="rotate(134.999 278.21 237.82)" gradientUnits="userSpaceOnUse"><stop offset=".365" stop-color="#199ae0"/><stop offset=".699" stop-color="#1898de"/><stop offset=".819" stop-color="#1691d8"/><stop offset=".905" stop-color="#1186cc"/><stop offset=".974" stop-color="#0a75bc"/><stop offset="1" stop-color="#076cb3"/></linearGradient><path fill="url(#3q95syRTlZvpu3RnBhyyOa)" d="M6.002,7.414l4.293,4.293l-3.439,3.439c-0.315,0.315-0.854,0.092-0.854-0.354V7.414z"/><linearGradient id="3q95syRTlZvpu3RnBhyyOb" x1="12.064" x2="42.685" y1="-60.298" y2="150.213" gradientUnits="userSpaceOnUse"><stop offset="0" stop-color="#32bdef"/><stop offset="1" stop-color="#1ea2e4"/></linearGradient><path fill="url(#3q95syRTlZvpu3RnBhyyOb)" d="M42.468,39.648L12.412,9.59l2.74-2.74c0.31-0.31,0.09-0.85-0.36-0.85h-7.79 c-0.55,0-1,0.45-1,1v1.41c0,0.27,0.11,0.52,0.29,0.71l33.351,33.353c0.391,0.391,1.024,0.391,1.414,0l1.411-1.411 C42.858,40.671,42.858,40.038,42.468,39.648z"/></svg>