<svg xmlns="http://www.w3.org/2000/svg" viewBox="0 0 48 48"><linearGradient id="sr8S1cV3qail~6aC1TkoLa" x1="17.548" x2="17.548" y1="9.83" y2="39.859" gradientUnits="userSpaceOnUse"><stop offset="0" stop-color="#f09701"/><stop offset="1" stop-color="#e36001"/></linearGradient><ellipse cx="17.548" cy="23.494" fill="url(#sr8S1cV3qail~6aC1TkoLa)" rx="8.5" ry="12.5"/><radialGradient id="sr8S1cV3qail~6aC1TkoLb" cx="22.601" cy="58.165" r="15.449" gradientTransform="matrix(-.00079 -1.0672 .5345 -.0005 -16.885 47.29)" gradientUnits="userSpaceOnUse"><stop offset=".129" stop-color="#e36001"/><stop offset=".868" stop-color="#e36001" stop-opacity="0"/></radialGradient><ellipse cx="17.548" cy="23.494" fill="url(#sr8S1cV3qail~6aC1TkoLb)" rx="8.5" ry="12.5"/><linearGradient id="sr8S1cV3qail~6aC1TkoLc" x1="11.548" x2="11.548" y1="10.082" y2="42" gradientUnits="userSpaceOnUse"><stop offset="0" stop-color="#f09701"/><stop offset="1" stop-color="#e36001"/></linearGradient><ellipse cx="11.548" cy="23.494" fill="url(#sr8S1cV3qail~6aC1TkoLc)" rx="8.5" ry="12.5"/><path fill="#33c481" d="M9.823,8.994c3.575,0,5.225,3,5.225,3h-11C4.048,11.994,6.248,8.994,9.823,8.994z"/><path fill="#21a366" d="M15.048,11.994c0,0-1.375,3-5.225,3s-5.775-3-5.775-3H15.048z"/><g><linearGradient id="sr8S1cV3qail~6aC1TkoLd" x1="22.548" x2="22.548" y1="26.244" y2="76.045" gradientUnits="userSpaceOnUse"><stop offset="0" stop-color="#fed100"/><stop offset="1" stop-color="#e38101"/></linearGradient><path fill="url(#sr8S1cV3qail~6aC1TkoLd)" d="M41.048,16.994c0,9-13,26-31,26c-1.08,0-2.73,0-4.03-0.62c-0.78-0.38-1.43-0.97-1.74-1.92 c-0.15-0.42-0.23-0.9-0.23-1.46c0-0.05,0-0.1,0.01-0.15c0.24-2.42,6.15-5.93,13.99-9.85c5.52-2.76,12-10,12-14 c0-0.38,0.03-0.73,0.08-1.05c0.48-3.13,3.11-3.95,4.92-3.95c0.14,0,0.3,0.01,0.46,0.02c0.9,0.06,2.04,0.33,3.06,1.06 C39.928,12.034,41.048,13.814,41.048,16.994z"/><path d="M39.048,11.454c-0.16-0.14-0.32-0.26-0.48-0.38c-0.59,0.17-1.59,0.68-2.13,2.25c-0.16,0.44-0.55,0.7-0.96,0.7 c-0.24,0-0.47-0.09-0.67-0.26c-0.46-0.42-1.08-0.73-1.9-0.73c-0.75,0-1.66,0.25-2.78,0.91c-0.03,0.19-0.05,0.4-0.06,0.62 c-0.02,0.14-0.02,0.28-0.02,0.43c0,0.05,0,0.11-0.01,0.16l0.6-0.35c0.87-0.51,1.63-0.77,2.27-0.77c0.48,0,0.88,0.15,1.23,0.47 c0.37,0.33,0.84,0.52,1.34,0.52c0.85,0,1.62-0.55,1.9-1.37c0.38-1.1,1.01-1.49,1.46-1.62l0.61-0.17 C39.318,11.714,39.188,11.584,39.048,11.454z M31.058,11.724c-0.23,0.28-0.43,0.6-0.57,0.97c0.16-0.37,0.36-0.69,0.59-0.97 C31.068,11.724,31.058,11.724,31.058,11.724z" opacity=".05"/><path d="M38.568,11.074c-0.59,0.17-1.59,0.68-2.13,2.25c-0.16,0.44-0.55,0.7-0.96,0.7c-0.24,0-0.47-0.09-0.67-0.26 c-0.46-0.42-1.08-0.73-1.9-0.73c-0.75,0-1.66,0.25-2.78,0.91c-0.03,0.19-0.05,0.4-0.06,0.62l0.31-0.19 c0.95-0.56,1.8-0.84,2.53-0.84c0.61,0,1.12,0.19,1.57,0.6c0.27,0.25,0.63,0.39,1,0.39c0.64,0,1.21-0.42,1.43-1.03 c0.45-1.31,1.23-1.78,1.8-1.94l0.34-0.1C38.888,11.314,38.728,11.194,38.568,11.074z M31.058,11.724 c-0.23,0.28-0.43,0.6-0.57,0.97c0.16-0.37,0.36-0.69,0.59-0.97C31.068,11.724,31.058,11.724,31.058,11.724z" opacity=".07"/><path fill="#21a366" d="M34.048,4.994V3.233c0-0.58-0.385-1.036-0.952-1.158C33.07,2.07,33.045,2.065,33.02,2.06 c-2.248-0.456-3.862,1.786-2.431,3.688c2.159,2.867,1.301,4.295,0.459,5.979c0,0,0.023-0.002,0.033-0.003 c-0.454,0.565-0.808,1.277-0.953,2.22c2.348-1.381,3.803-0.982,4.682-0.184c0.541,0.491,1.384,0.256,1.624-0.434 c0.547-1.573,1.546-2.084,2.134-2.252C34.568,8.074,34.048,5.994,34.048,4.994z"/><path fill="#e38101" d="M6.018,39.934v2.44c-1.12-0.54-1.97-1.53-1.97-3.38c0-0.05,0-0.1,0.01-0.15 C5.058,39.614,6.018,39.934,6.018,39.934z"/></g><linearGradient id="sr8S1cV3qail~6aC1TkoLe" x1="44.794" x2="22.822" y1="25.2" y2="47.172" gradientUnits="userSpaceOnUse"><stop offset="0" stop-color="#21ad64"/><stop offset="1" stop-color="#088242"/></linearGradient><path fill="url(#sr8S1cV3qail~6aC1TkoLe)" d="M43.044,26.95c-3.281-3.281-9.541-2.339-13.984,2.104s-5.384,10.703-2.104,13.984	c3.281,3.281,9.541,2.339,13.984-2.104S46.324,30.231,43.044,26.95z"/><g><path fill="#343434" d="M28.504,36.004c-0.387,0-0.749-0.226-0.912-0.59c-0.203-0.439-0.063-0.974,0.354-1.25 c0.46-0.308,1.08-0.182,1.387,0.277c0.05,0.074,0.093,0.163,0.12,0.247c0.175,0.524-0.108,1.09-0.632,1.265 C28.715,35.987,28.608,36.004,28.504,36.004z M36.995,41.504c-0.124,0-0.25-0.023-0.371-0.072c-0.513-0.206-0.763-0.787-0.558-1.3 c0.026-0.064,0.063-0.134,0.102-0.191c0.305-0.459,0.925-0.585,1.387-0.277c0.442,0.295,0.573,0.881,0.311,1.334 C37.686,41.315,37.349,41.503,36.995,41.504z M32.415,43.003h-0.01c-0.553,0-1-0.448-1-1s0.449-0.954,1-1 c0.012-0.001,0.024,0,0.036,0c0.553,0,1.005,0.448,1.005,1s-0.442,1-0.995,1h-0.005C32.437,43.003,32.426,43.003,32.415,43.003z M37.565,41.363h0.011H37.565z M28.44,40.724c-0.387,0-0.749-0.226-0.912-0.59c-0.203-0.439-0.063-0.974,0.354-1.25 c0.46-0.308,1.08-0.182,1.387,0.277c0.05,0.074,0.093,0.163,0.12,0.247c0.175,0.524-0.108,1.09-0.632,1.265 C28.651,40.708,28.545,40.724,28.44,40.724z M40.436,38.156c-0.124,0-0.25-0.023-0.371-0.072c-0.513-0.206-0.763-0.787-0.558-1.3 c0.026-0.064,0.063-0.134,0.102-0.191c0.305-0.459,0.925-0.585,1.387-0.277c0.442,0.295,0.573,0.881,0.311,1.334 C41.126,37.967,40.789,38.155,40.436,38.156z M41.995,33.621c-0.553,0-1-0.448-1-1s0.447-1.005,1-1.005s1,0.443,1,0.995v0.01 C42.995,33.173,42.548,33.621,41.995,33.621z M31.107,31.956c-0.219,0-0.439-0.072-0.624-0.219 c-0.431-0.345-0.501-0.974-0.156-1.405c0.064-0.081,0.147-0.157,0.233-0.214c0.461-0.308,1.081-0.182,1.387,0.277 c0.271,0.408,0.205,0.943-0.135,1.272C31.62,31.857,31.365,31.956,31.107,31.956z M39.917,29.524c-0.15,0-0.303-0.034-0.446-0.105 c-0.494-0.247-0.698-0.85-0.451-1.344c0.246-0.495,0.842-0.695,1.337-0.45l0.009,0.004c0.494,0.247,0.694,0.848,0.447,1.342 C40.637,29.322,40.284,29.524,39.917,29.524z M35.193,29.396c-0.419,0-0.812-0.264-0.951-0.683 c-0.175-0.524,0.104-1.089,0.628-1.264l0.009-0.003c0.528-0.177,1.09,0.109,1.265,0.632c0.175,0.524-0.108,1.09-0.632,1.265 C35.406,29.38,35.299,29.396,35.193,29.396z"/></g><linearGradient id="sr8S1cV3qail~6aC1TkoLf" x1="44.794" x2="22.822" y1="25.2" y2="47.172" gradientUnits="userSpaceOnUse"><stop offset="0" stop-color="#faf8e5"/><stop offset="1" stop-color="#faeeac"/></linearGradient><path fill="url(#sr8S1cV3qail~6aC1TkoLf)" d="M32.779,38.005c-0.294,0-0.551-0.06-0.641-0.15c-0.307-0.307-0.231-2.324,1.584-4.139	c1.053-1.053,2.426-1.733,3.498-1.733c0.294,0,0.551,0.06,0.641,0.15c0.307,0.307,0.231,2.324-1.584,4.139	C35.225,37.325,33.852,38.005,32.779,38.005z"/></svg>