<svg xmlns="http://www.w3.org/2000/svg" xmlns:xlink="http://www.w3.org/1999/xlink" data-name="Слой 1" viewBox="0 0 48 48"><defs><linearGradient id="yGxE614m5V9m2PywkLQrkb" x1="10" x2="10" y1="34.804" y2="3.235" data-name="Безымянный градиент 17" gradientUnits="userSpaceOnUse"><stop offset=".002" stop-color="#454545"/><stop offset=".013" stop-color="#464646"/><stop offset=".562" stop-color="#626262"/><stop offset="1" stop-color="#6d6d6d"/></linearGradient><linearGradient id="yGxE614m5V9m2PywkLQrka" x1="10.625" x2="10.625" y1="25.054" y2="52.355" data-name="Новый образец градиентной зал 5" gradientUnits="userSpaceOnUse"><stop offset="0" stop-color="#f9f9f9"/><stop offset=".26" stop-color="#f0f1f2"/><stop offset=".678" stop-color="#d9dcdf"/><stop offset="1" stop-color="#c2c8cc"/></linearGradient><linearGradient id="yGxE614m5V9m2PywkLQrkc" x1="32" x2="32" y1="25.397" y2="53.281" xlink:href="#yGxE614m5V9m2PywkLQrka"/><linearGradient id="yGxE614m5V9m2PywkLQrkd" x1="25.19" x2="47.318" y1="13.5" y2="13.5" xlink:href="#yGxE614m5V9m2PywkLQrka"/><linearGradient id="yGxE614m5V9m2PywkLQrke" x1="34.886" x2="30.434" y1="4.366" y2="23.344" xlink:href="#yGxE614m5V9m2PywkLQrka"/><linearGradient id="yGxE614m5V9m2PywkLQrkf" x1="36" x2="36" y1="16.739" y2="-2.77" xlink:href="#yGxE614m5V9m2PywkLQrkb"/><linearGradient id="yGxE614m5V9m2PywkLQrkg" x1="32.457" x2="32.457" y1="24.239" y2="7.962" xlink:href="#yGxE614m5V9m2PywkLQrkb"/><linearGradient id="yGxE614m5V9m2PywkLQrkh" x1="20.69" x2="20.69" y1="46.348" y2="4.608" xlink:href="#yGxE614m5V9m2PywkLQrkb"/></defs><path fill="url(#yGxE614m5V9m2PywkLQrkb)" d="M17,17v7L8,26v6.5H3V25a7.99778,7.99778,0,0,1,8-8Z"/><path fill="#cdd2d6" d="M8,32v1.5a2.5,2.5,0,0,1-5,0V32Z"/><path fill="#cdd2d6" d="M19.25,30H11L8,34v9a1,1,0,0,0,1,1h4a2,2,0,0,0-2-2l1-6C18,34,19.25,30,19.25,30Z"/><path fill="#cdd2d6" d="M31,42V28H25l3,14v1a1,1,0,0,0,1,1h4A2,2,0,0,0,31,42Z"/><path fill="url(#yGxE614m5V9m2PywkLQrka)" d="M16.25,30a.4178.4178,0,0,1-.04.1,1.20359,1.20359,0,0,1-.06.17A7.40827,7.40827,0,0,1,15.4,31.58a.547.547,0,0,1-.07.09A12.43282,12.43282,0,0,1,9,36L8,42a2.00583,2.00583,0,0,1,2,2H6a1.00291,1.00291,0,0,1-1-1V34.66992A1.96874,1.96874,0,0,1,5.4,33.47L8,30Z"/><path fill="url(#yGxE614m5V9m2PywkLQrkc)" d="M34,42V28H28l3,14v1a1,1,0,0,0,1,1h4A2,2,0,0,0,34,42Z"/><path fill="url(#yGxE614m5V9m2PywkLQrkd)" d="M46,13a3.10909,3.10909,0,0,1-.14.94995C45.42,15.38,43.94,16,42.18,16H38l2-5,4.24.68994.8.13013A1.20817,1.20817,0,0,1,46,13Z"/><polygon fill="url(#yGxE614m5V9m2PywkLQrke)" points="25 17 36.267 27.99 38 14 31 7 25 17"/><path fill="url(#yGxE614m5V9m2PywkLQrkf)" d="M31,7h7a3,3,0,0,1,3,3v3a3,3,0,0,1-3,3H34a3,3,0,0,1-3-3V7A0,0,0,0,1,31,7Z"/><path fill="url(#yGxE614m5V9m2PywkLQrkg)" d="M32.45631,14h0a2.61168,2.61168,0,0,1-2.54306-2.67527V8.16667A1.13894,1.13894,0,0,1,31.02225,7H34l.96477,3.88491A2.63644,2.63644,0,0,1,32.45631,14Z"/><circle cx="38" cy="10" r="1" fill="#343434"/><path fill="#343434" d="M46,13a3.10909,3.10909,0,0,1-.14.94995A1.11759,1.11759,0,0,1,45.5,14a1.49706,1.49706,0,0,1-1.26-2.31006l.8.13013A1.20817,1.20817,0,0,1,46,13Z"/><path fill="url(#yGxE614m5V9m2PywkLQrkh)" d="M27.38,17H16a8,8,0,0,0-8,8v5L5.4,33.47A1.96874,1.96874,0,0,0,5,34.66992V35c3.37,0,8.16-.71,10.33-3.33008a.547.547,0,0,0,.07-.09,4.52379,4.52379,0,0,0,.60761-1.00794l15.98358,1.1416a3.99993,3.99993,0,0,0,4.27612-3.72375l.09278-1.39124A9,9,0,0,0,27.38,17Z"/></svg>