<svg xmlns="http://www.w3.org/2000/svg" xmlns:xlink="http://www.w3.org/1999/xlink" data-name="Слой 1" viewBox="0 0 48 48"><defs><linearGradient id="AD7GvL6ZS6bOW8NlGkym7k" x1="24.5" x2="24.5" y1="26.636" y2="30.368" xlink:href="#AD7GvL6ZS6bOW8NlGkym7a"/><linearGradient id="AD7GvL6ZS6bOW8NlGkym7a" x1="38.702" x2="31.189" y1="16.452" y2="23.965" data-name="Безымянный градиент 250" gradientUnits="userSpaceOnUse"><stop offset="0" stop-color="#fed100"/><stop offset="1" stop-color="#e38101"/></linearGradient><linearGradient id="AD7GvL6ZS6bOW8NlGkym7d" x1="40.374" x2="32.861" y1="18.124" y2="25.637" xlink:href="#AD7GvL6ZS6bOW8NlGkym7a"/><linearGradient id="AD7GvL6ZS6bOW8NlGkym7e" x1="10.068" x2="19.411" y1="45.957" y2="42.533" xlink:href="#AD7GvL6ZS6bOW8NlGkym7a"/><linearGradient id="AD7GvL6ZS6bOW8NlGkym7f" x1="3.458" x2="12.8" y1="27.92" y2="24.496" xlink:href="#AD7GvL6ZS6bOW8NlGkym7a"/><linearGradient id="AD7GvL6ZS6bOW8NlGkym7g" x1="6.951" x2="16.293" y1="37.45" y2="34.026" xlink:href="#AD7GvL6ZS6bOW8NlGkym7a"/><linearGradient id="AD7GvL6ZS6bOW8NlGkym7h" x1="24.5" x2="24.5" y1="17.758" y2="21.235" xlink:href="#AD7GvL6ZS6bOW8NlGkym7a"/><linearGradient id="AD7GvL6ZS6bOW8NlGkym7i" x1="24.5" x2="24.5" y1="20.62" y2="24.445" xlink:href="#AD7GvL6ZS6bOW8NlGkym7a"/><linearGradient id="AD7GvL6ZS6bOW8NlGkym7j" x1="24.5" x2="24.5" y1="23.579" y2="27.495" xlink:href="#AD7GvL6ZS6bOW8NlGkym7a"/><linearGradient id="AD7GvL6ZS6bOW8NlGkym7c" x1="41.125" x2="33.612" y1="18.875" y2="26.388" xlink:href="#AD7GvL6ZS6bOW8NlGkym7a"/><linearGradient id="AD7GvL6ZS6bOW8NlGkym7l" x1="24.5" x2="24.5" y1="29.62" y2="33.423" xlink:href="#AD7GvL6ZS6bOW8NlGkym7a"/><linearGradient id="AD7GvL6ZS6bOW8NlGkym7m" x1="24.5" x2="24.5" y1="32.53" y2="36.469" xlink:href="#AD7GvL6ZS6bOW8NlGkym7a"/><linearGradient id="AD7GvL6ZS6bOW8NlGkym7n" x1="24.5" x2="24.5" y1="35.611" y2="39.431" xlink:href="#AD7GvL6ZS6bOW8NlGkym7a"/><linearGradient id="AD7GvL6ZS6bOW8NlGkym7b" x1="7.253" x2="36.275" y1="8.399" y2="37.422" gradientUnits="userSpaceOnUse"><stop offset="0" stop-color="#a34f27"/><stop offset=".587" stop-color="#8b3817"/><stop offset="1" stop-color="#802d10"/></linearGradient><linearGradient id="AD7GvL6ZS6bOW8NlGkym7o" x1="5.322" x2="34.345" y1="10.33" y2="39.352" xlink:href="#AD7GvL6ZS6bOW8NlGkym7b"/><linearGradient id="AD7GvL6ZS6bOW8NlGkym7p" x1="23.746" x2="33.725" y1="5.414" y2="37.566" xlink:href="#AD7GvL6ZS6bOW8NlGkym7a"/><linearGradient id="AD7GvL6ZS6bOW8NlGkym7q" x1="18.535" x2="27.404" y1="-2.14" y2="26.947" xlink:href="#AD7GvL6ZS6bOW8NlGkym7a"/><linearGradient id="AD7GvL6ZS6bOW8NlGkym7r" x1="24.255" x2="32.946" y1="7.209" y2="35.215" xlink:href="#AD7GvL6ZS6bOW8NlGkym7a"/></defs><path fill="url(#AD7GvL6ZS6bOW8NlGkym7a)" d="M37,22s-.34.54-.97,1.39c-.31006.43-.7.96-1.16,1.50995-.23.29-.47.59-.73.91a.79649.79649,0,0,1-.48.32,3.95754,3.95754,0,0,0-.54.28c-2.3,1.25-5.19,2.84-8.21,4.5l-2.04-3.44c3.06-1.68,6.01-3.29,8.33-4.57a3.39551,3.39551,0,0,0,.52-.31.85568.85568,0,0,1,.53-.23c.41-.04.8-.09,1.16-.13.72-.09,1.36005-.13,1.89-.16C36.37,21.99,37,22,37,22Z"/><path fill="#f09801" d="M42,12s-1.12,2-5,2-5-1-5-1-1.3,1.89-4.69,1.99c-.1.01-.2.01-.31.01a1.57169,1.57169,0,0,1,.26.13A6.43861,6.43861,0,0,1,29,17a4.17607,4.17607,0,0,1-.59,1.26,4.27462,4.27462,0,0,1-.29.38h-.01a1.34257,1.34257,0,0,1-.11.14,3.76771,3.76771,0,0,1-1.32.91,1.4273,1.4273,0,0,1-.22.08,3.25116,3.25116,0,0,1-.73.17,1.47355,1.47355,0,0,1-.36.04A2.23229,2.23229,0,0,1,25,20H24a2.23229,2.23229,0,0,1-.37-.02,1.47355,1.47355,0,0,1-.36-.04,3.25116,3.25116,0,0,1-.73-.17,1.4273,1.4273,0,0,1-.22-.08A3.76771,3.76771,0,0,1,21,18.78a1.34257,1.34257,0,0,1-.11-.14h-.01a4.27462,4.27462,0,0,1-.29-.38A4.17607,4.17607,0,0,1,20,17a6.40435,6.40435,0,0,1,1.75-1.87A.99737.99737,0,0,1,22,15c-.11,0-.21,0-.31-.01C18.3,14.89,17,13,17,13s-1.12,1-5,1-5-2-5-2,2.55-1.5,5.34-3c.31-.17.62-.33.93-.5.33-.17.65-.34.97-.5.17-.09.34-.17.5-.26a32.61768,32.61768,0,0,1,3.2-1.46,1.52336,1.52336,0,0,1,.25-.09A3.10777,3.10777,0,0,1,19,6c1.88-.06,2,2,2,2s.12,1,1,1a1.17985,1.17985,0,0,0,.28-.04.69621.69621,0,0,0,.23-.11.96689.96689,0,0,0,.32-.35A1.514,1.514,0,0,0,23,8V7H21a.97939.97939,0,0,1,1-1,2.35622,2.35622,0,0,1,2-1c1.06,0,2,.69,2,3a1.514,1.514,0,0,0,.17.5.96689.96689,0,0,0,.32.35.69621.69621,0,0,0,.23.11A1.17985,1.17985,0,0,0,27,9c.88,0,1-1,1-1s.12-2.06,2-2a3.10777,3.10777,0,0,1,.81.19,1.52336,1.52336,0,0,1,.25.09,32.61768,32.61768,0,0,1,3.2,1.46c.16.09.33.17.5.26.32.16.64.33.97.5.31.17.62.33.93.5C39.45,10.5,42,12,42,12Z"/><path fill="url(#AD7GvL6ZS6bOW8NlGkym7c)" d="M39.5,17A3.5,3.5,0,1,0,43,20.5,3.5,3.5,0,0,0,39.5,17Zm0,5A1.5,1.5,0,1,1,41,20.5,1.50055,1.50055,0,0,1,39.5,22Z"/><path fill="url(#AD7GvL6ZS6bOW8NlGkym7d)" d="M37.65248,29.19949,33.781,23.969l-2.41169-6.06694a1.13655,1.13655,0,0,1,.50507-1.41383h0a1.13654,1.13654,0,0,1,1.47142.32713L37.125,22.031l2.49081,6.06112a1.13572,1.13572,0,0,1-.49978,1.425h0A1.13572,1.13572,0,0,1,37.65248,29.19949Z"/><path fill="url(#AD7GvL6ZS6bOW8NlGkym7e)" d="M25.29737,40.042C23.85923,40.10226,20.58257,40.10365,19,39c-.125,1.063,1,4,1,4v3s4.425-1.54874,5.782-5.27065A.504.504,0,0,0,25.29737,40.042Z"/><path fill="url(#AD7GvL6ZS6bOW8NlGkym7f)" d="M14.51421,21.78514A11.80177,11.80177,0,0,0,13,28a9.46262,9.46262,0,0,1-3-2L7,25s1.07414-3.61967,7.0436-3.97243A.50382.50382,0,0,1,14.51421,21.78514Z"/><path fill="url(#AD7GvL6ZS6bOW8NlGkym7g)" d="M16,35.81a3.0925,3.0925,0,0,0,.04,3.94c1.59,1.9,6,1.79,6,1.79L21,44H18.79c-3.87,0-6.14-4.79-11.43-5.03C6.5,39.01,6,39,6,39s.2-.32.57-.86C8.92,34.33,7,33.75,7,30c0-3.81,2-5,2-5l2.21-.12A8.76908,8.76908,0,0,0,10,29a3.25782,3.25782,0,0,0,3.88,3.4c2.09-1.15,4.37-2.4,6.66-3.65.78-.43,1.56-.86,2.33-1.28l2.04,3.44c-.81.44-1.62994.89-2.45,1.34-2.21,1.22-4.42,2.43-6.46,3.55Z"/><path fill="#ffc107" d="M35,28.5a10.59027,10.59027,0,0,1-.11,1.5,10.14609,10.14609,0,0,1-.91,3A10.33025,10.33025,0,0,1,31.84,36,10.47934,10.47934,0,0,1,17.16,36a10.33025,10.33025,0,0,1-2.14-3,10.14609,10.14609,0,0,1-.91-3,10.2832,10.2832,0,0,1,0-3,10.14609,10.14609,0,0,1,.91-3,10.33025,10.33025,0,0,1,2.14-3A10.47934,10.47934,0,0,1,31.84,21,10.33025,10.33025,0,0,1,33.98,24a10.14609,10.14609,0,0,1,.91,3A10.59027,10.59027,0,0,1,35,28.5Z"/><path fill="url(#AD7GvL6ZS6bOW8NlGkym7h)" d="M31.84,21H17.16A10.47934,10.47934,0,0,1,31.84,21Z"/><path fill="url(#AD7GvL6ZS6bOW8NlGkym7i)" d="M33.98,24H15.02a10.33025,10.33025,0,0,1,2.14-3H31.84A10.33025,10.33025,0,0,1,33.98,24Z"/><path fill="url(#AD7GvL6ZS6bOW8NlGkym7j)" d="M34.89,27H14.11a10.14609,10.14609,0,0,1,.91-3H33.98A10.14609,10.14609,0,0,1,34.89,27Z"/><path fill="url(#AD7GvL6ZS6bOW8NlGkym7k)" d="M35,28.5a10.59027,10.59027,0,0,1-.11,1.5H14.11a10.2832,10.2832,0,0,1,0-3H34.89A10.59027,10.59027,0,0,1,35,28.5Z"/><path fill="url(#AD7GvL6ZS6bOW8NlGkym7l)" d="M34.89,30a10.14609,10.14609,0,0,1-.91,3H15.02a10.14609,10.14609,0,0,1-.91-3Z"/><path fill="url(#AD7GvL6ZS6bOW8NlGkym7m)" d="M33.98,33A10.33025,10.33025,0,0,1,31.84,36H17.16a10.33025,10.33025,0,0,1-2.14-3Z"/><path fill="url(#AD7GvL6ZS6bOW8NlGkym7n)" d="M31.84,36A10.47934,10.47934,0,0,1,17.16,36Z"/><path fill="url(#AD7GvL6ZS6bOW8NlGkym7b)" d="M32,31.271a.82742.82742,0,0,1-.193.385,16.474,16.474,0,0,1-2.775,2.67c-.779.624-1.7,1.298-1.785,2.293-.037.435.069.955-.261,1.241-.28.242-.316.227-.568-.044a1.77424,1.77424,0,0,1-.378-1.023,6.068,6.068,0,0,1,.16-2.213,5.3533,5.3533,0,0,0,.403-2.284c-.135-.723-1.124-1.45-1.061-2.183.023-.271.125-.575-.037-.793-.169-.227-.507-.205-.781-.277-.495-.132-.276-.793-.724-1.043-.897-.501-2.8.078-3.395-.759-.326-.458-.131-1.94-.605-2.241-.488-.31-.066,1.257-.583,1-.616-.306-1.917-1.667-1.167-2.333.514-.457.417-.979.417-1.667-.188-.5-1.506-.33-2.278-.167a10.469,10.469,0,0,1,7.359-3.794c.128-.009-.352.545.984,1.944a.5813.5813,0,0,1,.167.645c-.188.33-.69.076-.954-.197s-.765-.527-.954-.198a.5824.5824,0,0,0-.003.442,3.9598,3.9598,0,0,0,.568,1.191.71256.71256,0,0,0,.546.374c.297-.01.465-.332.683-.534a1.04329,1.04329,0,0,1,1.66.669.88571.88571,0,0,1-.259.686,2.35025,2.35025,0,0,1-.488.304c-.947.539-1.05.604-.698,1.635a.6226.6226,0,0,1-.745.209c-.264-.095-.062-.006-.255-.209a2.59781,2.59781,0,0,0-1,1.615c0,.304.881.255,1.155.385.888.422.449,1,2.298,1a8.28083,8.28083,0,0,1,2.442.229,5.58865,5.58865,0,0,1,2.924,2.517A.85106.85106,0,0,1,32,31.271ZM25.659,18.067a8.27078,8.27078,0,0,0-.659.995.4208.4208,0,0,0,.132.334,2.50166,2.50166,0,0,0,.851.825.74971.74971,0,0,0,.717.049.8516.8516,0,0,0,.239-.292,8.00819,8.00819,0,0,0,.631-1.516A10.48445,10.48445,0,0,0,25.659,18.067Z"/><path fill="url(#AD7GvL6ZS6bOW8NlGkym7o)" d="M36.004,18.002A.997.997,0,0,1,36.989,17a4.36916,4.36916,0,0,1,2.927,1.155,3.75609,3.75609,0,0,1,1.062,2.568,1.4904,1.4904,0,0,1-2.037,1.167A7.31014,7.31014,0,0,0,39,21a1.86331,1.86331,0,0,0-1.997-2A1.00361,1.00361,0,0,1,36.004,18.002ZM39.5,24a3.47224,3.47224,0,0,1-1.32-.262,1.06822,1.06822,0,0,1-.711.262c-.686,0-1.355-.11-2.009-1.44a10.25607,10.25607,0,0,0-2.91-3.342.99985.99985,0,0,0-1.164,1.626,8.314,8.314,0,0,1,2.279,2.597,3.93139,3.93139,0,0,0,3.804,2.56,3.193,3.193,0,0,0,3.022-2.16A3.48881,3.48881,0,0,1,39.5,24ZM12.013,40.492C9.169,39.113,8.21,35.768,8.017,34.97a4.64132,4.64132,0,0,1,1.778-2.131c1.033-.866,2.205-1.848,2.204-3.34,0-1.871-.71-2.762-1.517-3.172A5.66358,5.66358,0,0,0,10,29.501c.001.559-.723,1.164-1.488,1.806a14.71184,14.71184,0,0,0-1.228,1.112,14.955,14.955,0,0,1-.279-2.42L7,30c0-.028.002-.053.003-.081C6.998,29.72,7,29.594,7,29.583a1.70536,1.70536,0,0,1,.021-.22,6.75511,6.75511,0,0,1,.963-3.266A3.61551,3.61551,0,0,0,5,29.553a16.10323,16.10323,0,0,0,1.037,5.732c.601,2.886,3.132,7.808,8.682,7.808a10.16128,10.16128,0,0,0,1.021-.074C14.536,42.3,13.364,41.319,12.013,40.492Zm2.138-9.577a1.10039,1.10039,0,0,1,.102-.141A10.56691,10.56691,0,0,1,14,28.502a3.37407,3.37407,0,0,0-1.628,1.5c-.719,1.408-.268,3.249,1.214,5.554a23.78368,23.78368,0,0,1,2.157,3.781,3.62966,3.62966,0,0,0,.299.414,4.25116,4.25116,0,0,0,1.861,1.175c.508-2.217-1.6-4.905-2.654-6.48C14.19,32.863,13.801,31.61,14.151,30.915Z"/><path fill="url(#AD7GvL6ZS6bOW8NlGkym7p)" d="M34.764,8H30a2.93816,2.93816,0,0,1-3,3,10.06391,10.06391,0,0,1-1.50989,5.38849l.41864,1.25683,1.31488.65741a.5.5,0,0,1-.22412.94727.49409.49409,0,0,1-.22314-.05273L26,18.80908V19.5a.5.5,0,0,1-1,0V18.25a.47757.47757,0,0,1,.02124-.10522l-.38879-1.16553a.4331.4331,0,0,1-.2649,0l-.38879,1.16553A.47757.47757,0,0,1,24,18.25V19.5a.5.5,0,0,1-1,0v-.69092l-.77637.38819a.49409.49409,0,0,1-.22314.05273.5.5,0,0,1-.22412-.94727l1.31488-.65741.41864-1.25683A10.06391,10.06391,0,0,1,22,11s-3-.417-3-3H14.236A19.06124,19.06124,0,0,1,19,6c1.875-.063,2,2,2,2s.125,1,1,1a.89424.89424,0,0,0,.51135-.14935,1.79777,1.79777,0,0,1,.319-.35529A1.53486,1.53486,0,0,0,23,8V7H21a.97939.97939,0,0,1,1-1,2.34785,2.34785,0,0,1,2-1c1.062,0,2,.687,2,3a1.53486,1.53486,0,0,0,.16968.49536,1.79777,1.79777,0,0,1,.319.35529A.89424.89424,0,0,0,27,9c.875,0,1-1,1-1s.125-2.063,2-2A19.06124,19.06124,0,0,1,34.764,8ZM23,4.014h6.503a3.59766,3.59766,0,0,0,2.552-1.062L33,2l-8,.014a3.932,3.932,0,0,0-.685,0H24l-.02.04c-1.16894.17956-2.92377.941-2.97137,3.84857A1.93674,1.93674,0,0,1,23,4.014Z"/><path fill="url(#AD7GvL6ZS6bOW8NlGkym7q)" d="M21.00861,5.90253C21.00226,5.96912,21,6.014,21,6.014,21,5.97314,21.00793,5.9425,21.00861,5.90253Z"/><path d="M35.73,8.5c-.33-.17-.65-.34-.97-.5H30a2.93816,2.93816,0,0,1-3,3,10.07076,10.07076,0,0,1-1.51,5.39L25.91,17.65l1.31.65a.17877.17877,0,0,1,.07.05.10232.10232,0,0,1,.06.05.45213.45213,0,0,1,.11.17.39251.39251,0,0,1,.04.18.54551.54551,0,0,1-.05.22.50467.50467,0,0,1-.45.28.54506.54506,0,0,1-.22-.05L26,18.81v.69a.48313.48313,0,0,1-.27.44.46464.46464,0,0,1-.23.06.50605.50605,0,0,1-.13-.02A.48415.48415,0,0,1,25,19.5V18.25a.42437.42437,0,0,1,.02-.11l-.04-.13-.35-1.03a.43209.43209,0,0,1-.26,0l-.35,1.03-.04.13a.42437.42437,0,0,1,.02.11V19.5a.48415.48415,0,0,1-.37.48.50605.50605,0,0,1-.13.02.46464.46464,0,0,1-.23-.06A.48313.48313,0,0,1,23,19.5v-.69l-.78.39a.54506.54506,0,0,1-.22.05.50467.50467,0,0,1-.45-.28.54551.54551,0,0,1-.05-.22.39251.39251,0,0,1,.04-.18.45213.45213,0,0,1,.11-.17.10232.10232,0,0,1,.06-.05.17877.17877,0,0,1,.07-.05l1.31-.65L23.51,16.39A10.07076,10.07076,0,0,1,22,11s-3-.42-3-3H14.24c-.32.16-.64.33-.97.5-.31.17-.62.33-.93.5h5.78a4.21056,4.21056,0,0,0,2.91,2.79,13.60661,13.60661,0,0,0,.66,3.2c.1.01.2.01.31.01a.99737.99737,0,0,0-.25.13,7.73583,7.73583,0,0,0,.65,1.42l-.13.39-.94.47a1.4705,1.4705,0,0,0-.74.85,4.27462,4.27462,0,0,0,.29.38c-.13.05-.26.1-.38.16a1.54155,1.54155,0,0,0,.16.62,1.49961,1.49961,0,0,0,1.34.83,1.14711,1.14711,0,0,0,.19-.01A1.5173,1.5173,0,0,0,23.5,21a1.49739,1.49739,0,0,0,1-.38,1.49739,1.49739,0,0,0,1,.38,1.5173,1.5173,0,0,0,1.31-.76,1.14711,1.14711,0,0,0,.19.01,1.49961,1.49961,0,0,0,1.34-.83,1.54155,1.54155,0,0,0,.16-.62c-.12-.06-.25-.11-.38-.16a4.27462,4.27462,0,0,0,.29-.38,1.4705,1.4705,0,0,0-.74-.85l-.94-.47-.13-.39a7.142,7.142,0,0,0,.66-1.42A1.57169,1.57169,0,0,0,27,15c.11,0,.21,0,.31-.01a13.66006,13.66006,0,0,0,.65-3.08A3.77526,3.77526,0,0,0,30.87,9h5.79C36.35,8.83,36.04,8.67,35.73,8.5Z" opacity=".05"/><path d="M34.76,8H30a2.93816,2.93816,0,0,1-3,3,10.07076,10.07076,0,0,1-1.51,5.39L25.91,17.65l1.31.65a.17877.17877,0,0,1,.07.05.10232.10232,0,0,1,.06.05.45213.45213,0,0,1,.11.17.39251.39251,0,0,1,.04.18.54551.54551,0,0,1-.05.22.50467.50467,0,0,1-.45.28.54506.54506,0,0,1-.22-.05L26,18.81v.69a.48313.48313,0,0,1-.27.44.46464.46464,0,0,1-.23.06.50605.50605,0,0,1-.13-.02A.48415.48415,0,0,1,25,19.5V18.25a.42437.42437,0,0,1,.02-.11l-.04-.13-.35-1.03a.43209.43209,0,0,1-.26,0l-.35,1.03-.04.13a.42437.42437,0,0,1,.02.11V19.5a.48415.48415,0,0,1-.37.48.50605.50605,0,0,1-.13.02.46464.46464,0,0,1-.23-.06A.48313.48313,0,0,1,23,19.5v-.69l-.78.39a.54506.54506,0,0,1-.22.05.50467.50467,0,0,1-.45-.28.54551.54551,0,0,1-.05-.22.39251.39251,0,0,1,.04-.18.45213.45213,0,0,1,.11-.17.10232.10232,0,0,1,.06-.05.17877.17877,0,0,1,.07-.05l1.31-.65L23.51,16.39A10.07076,10.07076,0,0,1,22,11s-3-.42-3-3H14.24c-.32.16-.64.33-.97.5h5.26a3.73834,3.73834,0,0,0,2.98,2.91,10.76136,10.76136,0,0,0,1.44,5.07l-.27.81-1.13.57a.93227.93227,0,0,0-.53.73.61476.61476,0,0,0-.02.19,1.09286,1.09286,0,0,0,.11.42.98806.98806,0,0,0,.89.55.86683.86683,0,0,0,.32-.06.50483.50483,0,0,0,.13-.05l.06-.03c.01.06.02.11.03.16a1.00792,1.00792,0,0,0,.96.73.98386.98386,0,0,0,.86-.5.966.966,0,0,0,.14-.5.966.966,0,0,0,.14.5.98386.98386,0,0,0,.86.5,1.00792,1.00792,0,0,0,.96-.73c.00995-.05.02-.1.03-.16l.06.03a.50483.50483,0,0,0,.13.05.86683.86683,0,0,0,.32.06.98806.98806,0,0,0,.89-.55,1.09286,1.09286,0,0,0,.11-.42.61476.61476,0,0,0-.02-.19.93227.93227,0,0,0-.53-.73l-1.13-.57-.27-.81a10.83752,10.83752,0,0,0,1.44-5.01A3.27314,3.27314,0,0,0,30.46,8.5h5.27C35.4,8.33,35.08,8.16,34.76,8Z" opacity=".07"/><path fill="url(#AD7GvL6ZS6bOW8NlGkym7r)" d="M34.76,8H30a2.93816,2.93816,0,0,1-3,3,10.07076,10.07076,0,0,1-1.51,5.39L25.91,17.65l1.31.65a.50028.50028,0,0,1-.22.95.54506.54506,0,0,1-.22-.05L26,18.81v.69a.48313.48313,0,0,1-.27.44.46464.46464,0,0,1-.23.06.50605.50605,0,0,1-.13-.02A.48415.48415,0,0,1,25,19.5V18.25a.42437.42437,0,0,1,.02-.11l-.39-1.16a.43209.43209,0,0,1-.26,0l-.39,1.16a.42437.42437,0,0,1,.02.11V19.5a.48415.48415,0,0,1-.37.48.50605.50605,0,0,1-.13.02.46464.46464,0,0,1-.23-.06A.48313.48313,0,0,1,23,19.5v-.69l-.78.39a.54506.54506,0,0,1-.22.05.50028.50028,0,0,1-.22-.95l1.31-.65L23.51,16.39A10.07076,10.07076,0,0,1,22,11s-3-.42-3-3H14.24c.17-.09.34-.17.5-.26a32.61768,32.61768,0,0,1,3.2-1.46,1.52336,1.52336,0,0,1,.25-.09A3.10777,3.10777,0,0,1,19,6c1.88-.06,2,2,2,2s.12,1,1,1a1.17985,1.17985,0,0,0,.28-.04.81682.81682,0,0,0,.23-.11,1.55111,1.55111,0,0,1,.32-.35A1.514,1.514,0,0,0,23,8V7H21a.97939.97939,0,0,1,1-1,2.35622,2.35622,0,0,1,2-1c1.06,0,2,.69,2,3a1.514,1.514,0,0,0,.17.5,1.55111,1.55111,0,0,1,.32.35.81682.81682,0,0,0,.23.11A1.17985,1.17985,0,0,0,27,9c.88,0,1-1,1-1s.12-2.06,2-2a3.10777,3.10777,0,0,1,.81.19,1.52336,1.52336,0,0,1,.25.09,32.61768,32.61768,0,0,1,3.2,1.46C34.42,7.83,34.59,7.91,34.76,8Z"/></svg>