<svg xmlns="http://www.w3.org/2000/svg" viewBox="0 0 48 48"><linearGradient id="Mn0_1ntuBEPR_brkL2Lj8a" x1="6.086" x2="33.743" y1="6.086" y2="33.743" gradientUnits="userSpaceOnUse"><stop offset="0" stop-color="#32bdef"/><stop offset="1" stop-color="#1ea2e4"/></linearGradient><path fill="url(#Mn0_1ntuBEPR_brkL2Lj8a)" d="M20,22H8c-1.099,0-2-0.899-2-2V8c0-1.099,0.901-2,2-2h12c1.101,0,2,0.901,2,2v12	C22,21.101,21.101,22,20,22z"/><linearGradient id="Mn0_1ntuBEPR_brkL2Lj8b" x1="16.086" x2="43.743" y1="-3.914" y2="23.744" gradientUnits="userSpaceOnUse"><stop offset="0" stop-color="#32bdef"/><stop offset="1" stop-color="#1ea2e4"/></linearGradient><path fill="url(#Mn0_1ntuBEPR_brkL2Lj8b)" d="M40,22H28c-1.099,0-2-0.899-2-2V8c0-1.099,0.901-2,2-2h12c1.101,0,2,0.901,2,2v12	C42,21.101,41.101,22,40,22z"/><linearGradient id="Mn0_1ntuBEPR_brkL2Lj8c" x1="-3.914" x2="23.744" y1="16.086" y2="43.743" gradientUnits="userSpaceOnUse"><stop offset="0" stop-color="#32bdef"/><stop offset="1" stop-color="#1ea2e4"/></linearGradient><path fill="url(#Mn0_1ntuBEPR_brkL2Lj8c)" d="M20,42H8c-1.099,0-2-0.899-2-2V28c0-1.099,0.901-2,2-2h12c1.101,0,2,0.901,2,2v12	C22,41.101,21.101,42,20,42z"/><linearGradient id="Mn0_1ntuBEPR_brkL2Lj8d" x1="6.086" x2="33.743" y1="6.086" y2="33.743" gradientUnits="userSpaceOnUse"><stop offset="0" stop-color="#32bdef"/><stop offset="1" stop-color="#1ea2e4"/></linearGradient><path fill="url(#Mn0_1ntuBEPR_brkL2Lj8d)" d="M40,42H28c-1.099,0-2-0.899-2-2V28c0-1.099,0.901-2,2-2h12c1.101,0,2,0.901,2,2v12	C42,41.101,41.101,42,40,42z"/></svg>