<svg xmlns="http://www.w3.org/2000/svg" xmlns:xlink="http://www.w3.org/1999/xlink" data-name="Слой 1" viewBox="0 0 48 48"><defs><linearGradient id="FhAulvVdbTv6shybnzMl3a" x1="24" x2="24" y1="2.848" y2="7.443" data-name="Безымянный градиент 68" gradientUnits="userSpaceOnUse"><stop offset="0" stop-color="#889097"/><stop offset=".331" stop-color="#848c94"/><stop offset=".669" stop-color="#78828b"/><stop offset="1" stop-color="#64717c"/></linearGradient><linearGradient id="FhAulvVdbTv6shybnzMl3b" x1="14.746" x2="36.487" y1="-10.189" y2="49.545" data-name="Безымянный градиент 65" gradientUnits="userSpaceOnUse"><stop offset="0" stop-color="#fede00"/><stop offset=".543" stop-color="#fecc00"/><stop offset="1" stop-color="#ffb900"/></linearGradient><linearGradient id="FhAulvVdbTv6shybnzMl3c" x1="9.506" x2="30.204" y1="-9.059" y2="47.809" xlink:href="#FhAulvVdbTv6shybnzMl3a"/></defs><path fill="url(#FhAulvVdbTv6shybnzMl3a)" d="M29,5V9H19V5a1.99946,1.99946,0,0,1,2-2h6A1.99946,1.99946,0,0,1,29,5Z"/><path fill="url(#FhAulvVdbTv6shybnzMl3b)" d="M36,10V21H12V10a3.00879,3.00879,0,0,1,3-3H33A3.00879,3.00879,0,0,1,36,10Z"/><path fill="url(#FhAulvVdbTv6shybnzMl3c)" d="M36,20V41a3.00883,3.00883,0,0,1-3,3H15a3.00883,3.00883,0,0,1-3-3V20Z"/></svg>