<svg xmlns="http://www.w3.org/2000/svg" viewBox="0 0 48 48"><path fill="#50e6ff" d="M40,6H8C6.895,6,6,6.895,6,8v32c0,1.105,0.895,2,2,2h32c1.105,0,2-0.895,2-2V8	C42,6.895,41.105,6,40,6z"/><path d="M20.373,32.456c-0.534,0-1.037-0.208-1.414-0.587l-2.828-2.828c-0.378-0.377-0.586-0.879-0.586-1.414	c0-0.534,0.208-1.036,0.586-1.414l12.87-12.872l-2.256-2.256c-0.52-0.519-0.674-1.292-0.393-1.97C26.639,8.427,27.279,8,28.023,8	h9.36C38.826,8,40,9.174,40,10.616v9.361c0,0.998-0.813,1.809-1.813,1.809c-0.479,0-0.93-0.188-1.272-0.531l-2.256-2.256	l-12.871,12.87C21.41,32.247,20.908,32.456,20.373,32.456z" opacity=".05"/><path d="M20.373,31.956c-0.4,0-0.777-0.156-1.061-0.44l-2.828-2.828c-0.283-0.283-0.439-0.66-0.439-1.06	s0.156-0.777,0.439-1.061l13.224-13.225l-2.609-2.609c-0.376-0.375-0.487-0.935-0.284-1.425c0.207-0.498,0.67-0.807,1.209-0.807	h9.36c1.167,0,2.116,0.949,2.116,2.116v9.361c0,0.722-0.589,1.309-1.313,1.309c-0.345,0-0.671-0.137-0.919-0.385l-2.609-2.609	L21.434,31.516C21.151,31.799,20.774,31.956,20.373,31.956z" opacity=".07"/><path fill="#0d62ab" d="M27.452,10.379l2.963,2.963L16.838,26.92c-0.391,0.391-0.391,1.024,0,1.414l2.828,2.828	c0.391,0.391,1.024,0.391,1.414,0l13.578-13.577l2.963,2.963C38.13,21.057,39,20.697,39,19.977v-9.361C39,9.723,38.277,9,37.384,9	h-9.361C27.303,9,26.943,9.87,27.452,10.379z"/></svg>