<svg xmlns="http://www.w3.org/2000/svg" id="Layer_1" x="0" y="0" version="1.1" viewBox="0 0 48 48" xml:space="preserve"><linearGradient id="SVGID_1_" x1="23.855" x2="23.983" y1="4.908" y2="17.227" gradientUnits="userSpaceOnUse"><stop offset="0" stop-color="#7dd8f3"/><stop offset="1" stop-color="#45b0d0"/></linearGradient><circle cx="24" cy="18.9" r="15" fill="url(#SVGID_1_)"/><linearGradient id="SVGID_2_" x1="18.175" x2="29.825" y1="19.021" y2="19.021" gradientUnits="userSpaceOnUse"><stop offset="0" stop-color="#3079d6"/><stop offset="1" stop-color="#297cd2"/></linearGradient><circle cx="24" cy="19" r="5.8" fill="url(#SVGID_2_)"/><circle cx="24" cy="19" r="2.3" fill="#fff"/><path d="M9,18.9c0,8.3,6.7,15,15,15s15-6.7,15-15c0-0.3,0-0.6,0-0.9H9C9,18.3,9,18.6,9,18.9z" opacity=".05"/><path d="M9,18.9c0,8.3,6.7,15,15,15s15-6.7,15-15c0-0.1,0-0.2,0-0.4H9C9,18.6,9,18.7,9,18.9z" opacity=".07"/><linearGradient id="SVGID_3_" x1="16.786" x2="30.174" y1="-576.286" y2="-608.232" gradientTransform="matrix(1 0 0 -1 0 -562)" gradientUnits="userSpaceOnUse"><stop offset="0" stop-color="#eba84b"/><stop offset="1" stop-color="#d97218"/></linearGradient><path fill="url(#SVGID_3_)" d="M41,44H7c-0.6,0-1-0.5-1-1V20c0-0.6,0.4-1,1-1h34c0.6,0,1,0.4,1,1v23C42,43.5,41.5,44,41,44z"/><path fill="#633412" d="M20,23h8c0.6,0,1,0.4,1,1l0,0c0,0.6-0.4,1-1,1h-8c-0.6,0-1-0.4-1-1l0,0C19,23.4,19.4,23,20,23z"/><path fill="#e52030" d="M44.9,42.7L5.3,3.1C5.1,3,4.9,3,4.7,3.1L3.1,4.7C3,4.9,3,5.1,3.1,5.3l39.6,39.6c0.1,0.1,0.4,0.1,0.5,0l1.6-1.6	C45,43.1,45,42.9,44.9,42.7z"/></svg>