<svg xmlns="http://www.w3.org/2000/svg" viewBox="0 0 48 48"><linearGradient id="a7D5hHlCv2axllaI0kWpTa" x1="24" x2="24" y1="24.412" y2="13.408" gradientUnits="userSpaceOnUse"><stop offset="0" stop-color="#32bdef"/><stop offset="1" stop-color="#1ea2e4"/></linearGradient><path fill="url(#a7D5hHlCv2axllaI0kWpTa)" d="M34.41,21H13.59l0.38-5.03c0.02-0.54,0.46-0.97,1-0.97h18.06c0.54,0,0.98,0.43,1,0.97	L34.41,21z"/><linearGradient id="a7D5hHlCv2axllaI0kWpTb" x1="24" x2="24" y1=".265" y2="17.895" gradientUnits="userSpaceOnUse"><stop offset="0" stop-color="#889097"/><stop offset=".331" stop-color="#848c94"/><stop offset=".669" stop-color="#78828b"/><stop offset="1" stop-color="#64717c"/></linearGradient><path fill="url(#a7D5hHlCv2axllaI0kWpTb)" d="M24,4L24,4c-4.971,0-9,4.029-9,9v1c0,0.552,0.448,1,1,1h16c0.552,0,1-0.448,1-1v-1	C33,8.029,28.971,4,24,4z"/><circle cx="21" cy="8" r="1" fill="#586169"/><circle cx="27" cy="8" r="1" fill="#586169"/><linearGradient id="a7D5hHlCv2axllaI0kWpTc" x1="24" x2="24" y1="24.823" y2="12.353" gradientUnits="userSpaceOnUse"><stop offset=".07" stop-color="#a8e2f7"/><stop offset="1" stop-color="#47c1ff"/></linearGradient><path fill="url(#a7D5hHlCv2axllaI0kWpTc)" d="M29.37,21H18.63L19,15.97c0.02-0.54,0.46-0.97,1-0.97h8c0.54,0,0.98,0.43,1,0.97L29.37,21z"/><linearGradient id="a7D5hHlCv2axllaI0kWpTd" x1="32.466" x2="32.466" y1="16.765" y2="29.178" gradientUnits="userSpaceOnUse"><stop offset="0" stop-color="#a34f27"/><stop offset="1" stop-color="#8b3817"/></linearGradient><path fill="url(#a7D5hHlCv2axllaI0kWpTd)" d="M36,41.93c0.04,1.13-0.87,2.07-2,2.07h-5.07c1.13,0,2.04-0.94,2-2.07L29.37,21h5.04L36,41.93z"/><linearGradient id="a7D5hHlCv2axllaI0kWpTe" x1="24" x2="24" y1="19.765" y2="48.298" gradientUnits="userSpaceOnUse"><stop offset="0" stop-color="#a34f27"/><stop offset="1" stop-color="#8b3817"/></linearGradient><path fill="url(#a7D5hHlCv2axllaI0kWpTe)" d="M30.93,41.93c0.04,1.13-0.87,2.07-2,2.07h-9.86c-1.13,0-2.04-0.94-2-2.07L18.63,21h10.74	L30.93,41.93z"/><linearGradient id="a7D5hHlCv2axllaI0kWpTf" x1="15.534" x2="15.534" y1="16.765" y2="29.178" gradientUnits="userSpaceOnUse"><stop offset="0" stop-color="#a34f27"/><stop offset="1" stop-color="#8b3817"/></linearGradient><path fill="url(#a7D5hHlCv2axllaI0kWpTf)" d="M19.07,44H14c-1.13,0-2.04-0.94-2-2.07L13.59,21h5.04l-1.56,20.93	C17.03,43.06,17.94,44,19.07,44z"/><g><circle cx="21" cy="40" r="1" fill="#b85515"/><circle cx="27" cy="28" r="1" fill="#b85515"/><circle cx="23" cy="31" r="1" fill="#b85515"/></g></svg>