<svg xmlns="http://www.w3.org/2000/svg" viewBox="0 0 48 48"><radialGradient id="4YLaF2rOfentKC7GKacPya" cx="14.961" cy="-20.99" r="56.266" gradientTransform="matrix(1 0 0 -1 0 -18)" gradientUnits="userSpaceOnUse"><stop offset="0" stop-color="#ffcf54"/><stop offset=".261" stop-color="#fdcb4d"/><stop offset=".639" stop-color="#f7c13a"/><stop offset="1" stop-color="#f0b421"/></radialGradient><path fill="url(#4YLaF2rOfentKC7GKacPya)" d="M31,39.4l2.6,0.5c2.9,0.6,5.6-1.5,5.8-4.4L40,29l2.9-1.2c1-0.4,1.4-1.6,0.8-2.6L40,19	c-0.6-7.6-4.9-15-16-15C13,4,7,11.4,7,20c0,3.7,1.3,7.9,3.3,10.6c1.8,2.5,2.7,5.5,2.7,8.5v2.8c0,1.105,0.895,2,2,2h14	c1.105,0,2-0.895,2-2V39.4z"/><linearGradient id="4YLaF2rOfentKC7GKacPyb" x1="3.207" x2="20.887" y1="-24.831" y2="-37.744" gradientTransform="matrix(1 0 0 -1 0 -18)" gradientUnits="userSpaceOnUse"><stop offset="0" stop-color="#28afea"/><stop offset="1" stop-color="#047ed6"/></linearGradient><path fill="url(#4YLaF2rOfentKC7GKacPyb)" d="M3,20V6h18v14c0,0.55-0.45,1-1,1H4C3.45,21,3,20.55,3,20z"/><linearGradient id="4YLaF2rOfentKC7GKacPyc" x1="3.21" x2="20.599" y1="-21.304" y2="-24.84" gradientTransform="matrix(1 0 0 -1 0 -18)" gradientUnits="userSpaceOnUse"><stop offset="0" stop-color="#0077d2"/><stop offset="1" stop-color="#0b59a2"/></linearGradient><path fill="url(#4YLaF2rOfentKC7GKacPyc)" d="M21,4v3H3V4c0-0.55,0.45-1,1-1h16C20.55,3,21,3.45,21,4z"/><path d="M17,6L17,6c-1.105,0-2-0.895-2-2V3h4v1C19,5.105,18.105,6,17,6z" opacity=".05"/><path fill="#fff" d="M18,14.25v3.5c0,0.138-0.112,0.25-0.25,0.25h-3.5C14.112,18,14,17.888,14,17.75v-3.5	c0-0.138,0.112-0.25,0.25-0.25h3.5C17.888,14,18,14.112,18,14.25z"/><path d="M17,5.5c0.828,0,1.5-0.672,1.5-1.5V3h-3v1C15.5,4.828,16.172,5.5,17,5.5z" opacity=".07"/><path fill="#3ccbf4" d="M17,2c-0.552,0-1,0.448-1,1v1c0,0.552,0.448,1,1,1s1-0.448,1-1V3C18,2.448,17.552,2,17,2z"/><path d="M7,6L7,6C5.895,6,5,5.105,5,4V3h4v1C9,5.105,8.105,6,7,6z" opacity=".05"/><path d="M7,5.5c0.828,0,1.5-0.672,1.5-1.5V3h-3v1C5.5,4.828,6.172,5.5,7,5.5z" opacity=".07"/><path fill="#3ccbf4" d="M7,2C6.448,2,6,2.448,6,3v1c0,0.552,0.448,1,1,1s1-0.448,1-1V3C8,2.448,7.552,2,7,2z"/></svg>