<svg xmlns="http://www.w3.org/2000/svg" viewBox="0 0 48 48"><path fill="#50e6ff" d="M4,38V15h40v23c0,1.1-0.9,2-2,2H6C4.9,40,4,39.1,4,38z"/><linearGradient id="dcBR8GvoBGUQtskzUcMM5a" x1="4.614" x2="42.936" y1="-198.259" y2="-190.467" gradientTransform="translate(0 206)" gradientUnits="userSpaceOnUse"><stop offset="0" stop-color="#0077d2"/><stop offset="1" stop-color="#0b59a2"/></linearGradient><path fill="url(#dcBR8GvoBGUQtskzUcMM5a)" d="M44,10v5H4v-5c0-1.1,0.9-2,2-2h36C43.1,8,44,8.9,44,10z"/><linearGradient id="dcBR8GvoBGUQtskzUcMM5b" x1="6.751" x2="8.032" y1="-195.584" y2="-193.731" gradientTransform="translate(0 206)" gradientUnits="userSpaceOnUse"><stop offset="0" stop-color="#75daff"/><stop offset="1" stop-color="#49bef1"/></linearGradient><circle cx="7.5" cy="11.5" r="1.5" fill="url(#dcBR8GvoBGUQtskzUcMM5b)"/><linearGradient id="dcBR8GvoBGUQtskzUcMM5c" x1="11.751" x2="13.032" y1="-195.584" y2="-193.731" gradientTransform="translate(0 206)" gradientUnits="userSpaceOnUse"><stop offset="0" stop-color="#75daff"/><stop offset="1" stop-color="#49bef1"/></linearGradient><circle cx="12.5" cy="11.5" r="1.5" fill="url(#dcBR8GvoBGUQtskzUcMM5c)"/><linearGradient id="dcBR8GvoBGUQtskzUcMM5d" x1="16.751" x2="18.032" y1="-195.584" y2="-193.731" gradientTransform="translate(0 206)" gradientUnits="userSpaceOnUse"><stop offset="0" stop-color="#75daff"/><stop offset="1" stop-color="#49bef1"/></linearGradient><circle cx="17.5" cy="11.5" r="1.5" fill="url(#dcBR8GvoBGUQtskzUcMM5d)"/><linearGradient id="dcBR8GvoBGUQtskzUcMM5e" x1="15.217" x2="23.841" y1="-598.783" y2="-590.159" gradientTransform="matrix(1 0 0 -1 0 -562)" gradientUnits="userSpaceOnUse"><stop offset=".503" stop-color="#a1aab3"/><stop offset=".658" stop-color="#9ea7af"/><stop offset=".796" stop-color="#949da5"/><stop offset=".928" stop-color="#848c92"/><stop offset="1" stop-color="#787f85"/></linearGradient><path fill="url(#dcBR8GvoBGUQtskzUcMM5e)" d="M26.25,29.29l-3.54-3.54l-5.252,5.252C15.544,31.025,14,32.581,14,34.5	c0,1.933,1.567,3.5,3.5,3.5c1.919,0,3.476-1.545,3.498-3.459L26.25,29.29z"/><linearGradient id="dcBR8GvoBGUQtskzUcMM5f" x1="23.42" x2="31.774" y1="-582.001" y2="-590.355" gradientTransform="matrix(1 0 0 -1 0 -562)" gradientUnits="userSpaceOnUse"><stop offset="0" stop-color="#a1aab3"/><stop offset="1" stop-color="#8f979e"/></linearGradient><path fill="url(#dcBR8GvoBGUQtskzUcMM5f)" d="M30.95,24.559c-0.969,0.969-2.54,0.969-3.509,0c-0.969-0.969-0.969-2.54,0-3.509	c0.237-0.237,1.19-1.19,2.16-2.16c0.233-0.233,0.13-0.64-0.19-0.718c-0.787-0.194-1.634-0.234-2.514-0.068	c-2.583,0.487-4.597,2.648-4.865,5.263c-0.391,3.812,2.791,6.993,6.603,6.601c2.614-0.269,4.775-2.283,5.261-4.865	c0.166-0.881,0.125-1.727-0.069-2.513c-0.079-0.32-0.485-0.423-0.718-0.19C32.14,23.369,31.186,24.322,30.95,24.559z"/><linearGradient id="dcBR8GvoBGUQtskzUcMM5g" x1="18.546" x2="16.443" y1="-597.546" y2="-595.443" gradientTransform="matrix(1 0 0 -1 0 -562)" gradientUnits="userSpaceOnUse"><stop offset="0" stop-color="#fff"/><stop offset=".242" stop-color="#f2f2f2"/><stop offset="1" stop-color="#ccc"/></linearGradient><circle cx="17.5" cy="34.5" r="1.5" fill="url(#dcBR8GvoBGUQtskzUcMM5g)"/></svg>