<svg xmlns="http://www.w3.org/2000/svg" data-name="Слой 1" viewBox="0 0 48 48"><defs><linearGradient id="lml4B34C0JjYkSw6MBXG6a" x1="6" x2="42" y1="-1322" y2="-1322" data-name="Безымянный градиент 24" gradientTransform="matrix(1 0 0 -1 0 -1282)" gradientUnits="userSpaceOnUse"><stop offset="0" stop-color="#c8d3de"/><stop offset="1" stop-color="#c8d3de"/></linearGradient><linearGradient id="lml4B34C0JjYkSw6MBXG6b" x1="14.095" x2="31.385" y1="-1291.338" y2="-1324.787" data-name="Безымянный градиент 23" gradientTransform="matrix(1 0 0 -1 0 -1282)" gradientUnits="userSpaceOnUse"><stop offset="0" stop-color="#fcfcfc"/><stop offset=".495" stop-color="#f4f4f4"/><stop offset=".946" stop-color="#e8e8e8"/><stop offset="1" stop-color="#e8e8e8"/></linearGradient><linearGradient id="lml4B34C0JjYkSw6MBXG6c" x1="24" x2="24" y1="-1282.684" y2="-1304.696" data-name="Безымянный градиент 22" gradientTransform="matrix(1 0 0 -1 0 -1282)" gradientUnits="userSpaceOnUse"><stop offset="0" stop-color="#d43a02"/><stop offset="1" stop-color="#b9360c"/></linearGradient><linearGradient id="lml4B34C0JjYkSw6MBXG6d" x1="10.462" x2="29.788" y1="-2.808" y2="50.292" data-name="Безымянный градиент 123" gradientUnits="userSpaceOnUse"><stop offset="0" stop-color="#f44f5a"/><stop offset=".443" stop-color="#ee3d4a"/><stop offset="1" stop-color="#e52030"/></linearGradient></defs><path fill="url(#lml4B34C0JjYkSw6MBXG6a)" d="M42,38H6v2a1.99945,1.99945,0,0,0,2,2H40a1.99945,1.99945,0,0,0,2-2Z"/><path fill="url(#lml4B34C0JjYkSw6MBXG6b)" d="M42,38H6V19L24,2,42,19Z"/><path style="isolation:isolate" d="M24,3a1.99525,1.99525,0,0,0-1.326.503L17.315,8.314,6,19v5.39L24,8.428,42,24.39V19L30.685,8.314,25.326,3.503A1.99525,1.99525,0,0,0,24,3Z" opacity=".05"/><path style="isolation:isolate" d="M24,2a2.00219,2.00219,0,0,0-1.326.5L17.315,7.284,6,17.909v5.359L24,7.397,42,23.268V17.909L30.685,7.284,25.326,2.5A2.00219,2.00219,0,0,0,24,2Z" opacity=".07"/><path fill="url(#lml4B34C0JjYkSw6MBXG6c)" d="M44.495,18.507,25.326,1.503a1.99929,1.99929,0,0,0-2.652,0L3.505,18.507a.99869.99869,0,0,0-.064,1.43l1.636,1.745a.9995.9995,0,0,0,1.39.067L24,6.428,41.533,21.75a1.0005,1.0005,0,0,0,1.39-.067l1.636-1.745A.99983.99983,0,0,0,44.495,18.507Z"/><path fill="url(#lml4B34C0JjYkSw6MBXG6d)" d="M29,22H19a2,2,0,0,0-2,2V44.93879a1.06059,1.06059,0,0,0,1.67714.863L24,41.99885l5.32286,3.80292A1.06059,1.06059,0,0,0,31,44.93879V24A2,2,0,0,0,29,22Z"/><path d="M29,21H19a3.00879,3.00879,0,0,0-3,3V42h1V24a2.00587,2.00587,0,0,1,2-2H29a2.00587,2.00587,0,0,1,2,2V42h1V24A3.00879,3.00879,0,0,0,29,21Z" opacity=".05"/><path d="M29,21.5H19A2.50091,2.50091,0,0,0,16.5,24V42H17V24a2.00587,2.00587,0,0,1,2-2H29a2.00587,2.00587,0,0,1,2,2V42h.5V24A2.50091,2.50091,0,0,0,29,21.5Z" opacity=".07"/></svg>