<svg xmlns="http://www.w3.org/2000/svg" viewBox="0 0 48 48"><linearGradient id="5axMmBkFzAdtYQHBA5eNKa" x1="22.146" x2="25.854" y1="1034.5" y2="1044.718" gradientTransform="translate(0 -1032.11)" gradientUnits="userSpaceOnUse"><stop offset="0" stop-color="#ffcf54"/><stop offset=".261" stop-color="#fdcb4d"/><stop offset=".639" stop-color="#f7c13a"/><stop offset="1" stop-color="#f0b421"/></linearGradient><path fill="url(#5axMmBkFzAdtYQHBA5eNKa)" d="M24,13c-3.025,0-5.5-2.475-5.5-5.5S20.975,2,24,2s5.5,2.475,5.5,5.5S27.025,13,24,13"/><linearGradient id="5axMmBkFzAdtYQHBA5eNKb" x1="26.477" x2="29.839" y1="-463.416" y2="-471.874" gradientTransform="matrix(1 0 0 -1 0 -426)" gradientUnits="userSpaceOnUse"><stop offset="0" stop-color="#ffcf54"/><stop offset=".261" stop-color="#fdcb4d"/><stop offset=".639" stop-color="#f7c13a"/><stop offset="1" stop-color="#f0b421"/></linearGradient><path fill="url(#5axMmBkFzAdtYQHBA5eNKb)" d="M29,33h-4v11c0,1.215,0.895,2.2,2,2.2l0,0c1.105,0,2-0.985,2-2.2V33z"/><linearGradient id="5axMmBkFzAdtYQHBA5eNKc" x1="20.477" x2="23.839" y1="-463.416" y2="-471.874" gradientTransform="matrix(1 0 0 -1 0 -426)" gradientUnits="userSpaceOnUse"><stop offset="0" stop-color="#ffcf54"/><stop offset=".261" stop-color="#fdcb4d"/><stop offset=".639" stop-color="#f7c13a"/><stop offset="1" stop-color="#f0b421"/></linearGradient><path fill="url(#5axMmBkFzAdtYQHBA5eNKc)" d="M23,33h-4v11c0,1.215,0.895,2.2,2,2.2l0,0c1.105,0,2-0.985,2-2.2V33z"/><linearGradient id="5axMmBkFzAdtYQHBA5eNKd" x1="30.188" x2="34.202" y1="1056.339" y2="1065.257" gradientTransform="translate(0 -1032.11)" gradientUnits="userSpaceOnUse"><stop offset="0" stop-color="#ffcf54"/><stop offset=".261" stop-color="#fdcb4d"/><stop offset=".639" stop-color="#f7c13a"/><stop offset="1" stop-color="#f0b421"/></linearGradient><path fill="url(#5axMmBkFzAdtYQHBA5eNKd)" d="M33,22l-3,0.464c0,0,0,9.221,0,9.5c0,0.828,0.672,1.5,1.5,1.5s1.5-0.672,1.5-1.5	C33,31.685,33,34.279,33,22z"/><linearGradient id="5axMmBkFzAdtYQHBA5eNKe" x1="15.171" x2="19.11" y1="1056.482" y2="1065.234" gradientTransform="translate(0 -1032.11)" gradientUnits="userSpaceOnUse"><stop offset="0" stop-color="#ffcf54"/><stop offset=".261" stop-color="#fdcb4d"/><stop offset=".639" stop-color="#f7c13a"/><stop offset="1" stop-color="#f0b421"/></linearGradient><path fill="url(#5axMmBkFzAdtYQHBA5eNKe)" d="M18,22.414l-3,0.22c0,0,0,9.001,0,9.28c0,0.828,0.672,1.5,1.5,1.5s1.5-0.672,1.5-1.5	C18,31.635,18,34.693,18,22.414z"/><linearGradient id="5axMmBkFzAdtYQHBA5eNKf" x1="23.144" x2="25.258" y1="-439.575" y2="-461.546" gradientTransform="matrix(1 0 0 -1 0 -426)" gradientUnits="userSpaceOnUse"><stop offset="0" stop-color="#f44f5a"/><stop offset=".443" stop-color="#ee3d4a"/><stop offset="1" stop-color="#e52030"/></linearGradient><path fill="url(#5axMmBkFzAdtYQHBA5eNKf)" d="M33,22.333C33,18.282,29.643,15,25.501,15h-0.376h-2.25H22.5c-4.142,0-7.5,3.284-7.5,7.334	v0.635h3l-1.676,12.764C16.219,36.399,16.747,37,17.437,37h13.128c0.69,0,1.217-0.601,1.111-1.267L30,23h3V22.333z"/><path fill="#b55017" d="M19.6,6.166c-2.24,0-2.24,5.834-2.24,5.834H14c0-6.165,3.563-7,5.6-7V6.166z"/><radialGradient id="5axMmBkFzAdtYQHBA5eNKg" cx="23.786" cy="6.949" r="8.553" gradientUnits="userSpaceOnUse"><stop offset="0" stop-color="#c26715"/><stop offset=".508" stop-color="#b85515"/><stop offset="1" stop-color="#ad3f16"/></radialGradient><path fill="url(#5axMmBkFzAdtYQHBA5eNKg)" d="M29.484,7.186C29.319,4.306,26.919,2,24,2c-2.92,0-5.32,2.308-5.484,5.189	C21.092,7.248,22.898,6.32,24,4.492c1.365,1.735,2.357,2.666,4.757,2.694H29.484z"/><path fill="#b55017" d="M28.4,5c2.037,0,5.6,0.835,5.6,7h-3.36c0,0,0-5.834-2.24-5.834V5z"/></svg>