<svg xmlns="http://www.w3.org/2000/svg" viewBox="0 0 48 48"><linearGradient id="4wC07HSEbdi5C8tUJUuFma" x1="6.941" x2="-.236" y1="28" y2="28" gradientUnits="userSpaceOnUse"><stop offset="0" stop-color="#a8142e"/><stop offset=".177" stop-color="#b31530"/><stop offset=".479" stop-color="#be1733"/><stop offset=".793" stop-color="#c21734"/></linearGradient><path fill="url(#4wC07HSEbdi5C8tUJUuFma)" d="M4.757,23L7,25.243v6.725l-3.287-0.986C3.29,30.855,3,30.465,3,30.024V24c0-0.552,0.448-1,1-1	H4.757 M5.011,20H4c-2.209,0-4,1.791-4,4v6.024c0,1.766,1.159,3.324,2.851,3.831L10,36V24l-3.301-3.301	C6.252,20.252,5.644,20,5.011,20L5.011,20z"/><linearGradient id="4wC07HSEbdi5C8tUJUuFmb" x1="45.334" x2="46.339" y1="28.193" y2="35.492" gradientUnits="userSpaceOnUse"><stop offset="0" stop-color="#fed100"/><stop offset="1" stop-color="#e36001"/></linearGradient><path fill="url(#4wC07HSEbdi5C8tUJUuFmb)" d="M46,28.333c0,0-2,3.563-2,4.667c0,1.104,0.896,2,2,2s2-0.896,2-2	C48,31.896,46,28.333,46,28.333z"/><linearGradient id="4wC07HSEbdi5C8tUJUuFmc" x1="21" x2="21" y1="15.041" y2="41.144" gradientUnits="userSpaceOnUse"><stop offset="0" stop-color="#f44f5a"/><stop offset="1" stop-color="#e52030"/></linearGradient><path fill="url(#4wC07HSEbdi5C8tUJUuFmc)" d="M35,17H7v22c0,1.105,0.895,2,2,2h24c1.105,0,2-0.895,2-2V17z"/><path fill="#f46b74" d="M35,15H7c-0.552,0-1,0.448-1,1v0c0,0.552,0.448,1,1,1h28c0.552,0,1-0.448,1-1v0	C36,15.448,35.552,15,35,15z"/><linearGradient id="4wC07HSEbdi5C8tUJUuFmd" x1="21" x2="21" y1="10.34" y2="15.751" gradientUnits="userSpaceOnUse"><stop offset="0" stop-color="#f44f5a"/><stop offset=".206" stop-color="#f0424f"/><stop offset=".701" stop-color="#e82938"/><stop offset="1" stop-color="#e52030"/></linearGradient><polygon fill="url(#4wC07HSEbdi5C8tUJUuFmd)" points="25,10 17,10 7,15 35,15"/><linearGradient id="4wC07HSEbdi5C8tUJUuFme" x1="35.162" x2="47.416" y1="26.5" y2="26.5" gradientUnits="userSpaceOnUse"><stop offset="0" stop-color="#a8142e"/><stop offset=".179" stop-color="#ba1632"/><stop offset=".243" stop-color="#c21734"/></linearGradient><path fill="url(#4wC07HSEbdi5C8tUJUuFme)" d="M42.155,18.422L35,22v13l10-14h2l1-3h-4.056C43.323,18,42.711,18.145,42.155,18.422z"/><linearGradient id="4wC07HSEbdi5C8tUJUuFmf" x1="19.904" x2="22.094" y1="6.233" y2="11.563" gradientUnits="userSpaceOnUse"><stop offset="0" stop-color="#889097"/><stop offset=".322" stop-color="#838c93"/><stop offset=".692" stop-color="#758089"/><stop offset="1" stop-color="#64717c"/></linearGradient><path fill="url(#4wC07HSEbdi5C8tUJUuFmf)" d="M25,10h-8V8c0-0.552,0.448-1,1-1h6c0.552,0,1,0.448,1,1V10z"/></svg>