<svg xmlns="http://www.w3.org/2000/svg" viewBox="0 0 48 48"><linearGradient id="YUC1Ey6JpWrfwV_aThcmUa" x1="13.02" x2="34.556" y1="110.356" y2="78.275" gradientTransform="matrix(1 0 0 -1 0 118)" gradientUnits="userSpaceOnUse"><stop offset="0" stop-color="#8521b0"/><stop offset=".77" stop-color="#6c16a0"/><stop offset="1" stop-color="#64129a"/></linearGradient><path fill="url(#YUC1Ey6JpWrfwV_aThcmUa)" d="M24,4C12.954,4,4,12.954,4,24s8.954,20,20,20s20-8.954,20-20S35.046,4,24,4z"/><path d="M15.951,30.698v2.419c0,0.922,0.586,1.73,1.459,2.01	c2.048,0.658,3.998,0.982,5.805,0.982c3.803,0,6.969-1.436,9.066-4.215c3.106-4.118,3.191-10.351,0.204-14.822	c-3.056-4.571-8.511-6.231-14.964-4.555c-0.924,0.239-1.57,1.079-1.57,2.042l0.001,2.628c0,0.585,0.289,1.129,0.774,1.457	c0.487,0.329,1.103,0.393,1.644,0.175c3.455-1.389,6.262-0.957,7.903,1.216c1.7,2.25,1.706,5.856,0.014,8.039	c-1.62,2.091-4.424,2.447-7.896,1c-0.545-0.228-1.162-0.167-1.655,0.161C16.245,29.562,15.952,30.109,15.951,30.698z" opacity=".05"/><path d="M16.451,30.7v2.419c0,0.704,0.446,1.321,1.111,1.534	c1.995,0.641,3.891,0.957,5.644,0.957c3.65,0,6.679-1.368,8.676-4.015c2.983-3.953,3.062-9.944,0.188-14.243	c-2.93-4.382-8.183-5.966-14.423-4.349c-0.703,0.183-1.195,0.823-1.195,1.558l0.001,2.628c0,0.418,0.207,0.808,0.554,1.042	c0.348,0.234,0.786,0.281,1.178,0.125c4.969-2,7.452,0.006,8.489,1.378c1.826,2.418,1.831,6.297,0.01,8.647	c-1.771,2.286-4.783,2.697-8.484,1.155c-0.39-0.163-0.834-0.12-1.186,0.115S16.452,30.277,16.451,30.7z" opacity=".07"/><path fill="#fff" d="M16.952,33.119c0-0.676,0-1.654,0-2.42c0-0.542,0.554-0.91,1.055-0.701 c14.152,5.898,13.969-17.727-0.009-12.105c-0.5,0.201-1.046-0.165-1.046-0.703c0-0.819,0-1.893,0-2.629 c0-0.501,0.336-0.948,0.821-1.074c21.029-5.457,21.363,27.574-0.056,20.689C17.261,34.03,16.953,33.597,16.952,33.119z"/></svg>