<svg xmlns="http://www.w3.org/2000/svg" viewBox="0 0 48 48"><linearGradient id="bvOEF5JgNM7hg68RyIf~ea" x1="23.978" x2="24.194" y1="14.983" y2="22.229" gradientUnits="userSpaceOnUse"><stop offset="0" stop-color="#75daff"/><stop offset="1" stop-color="#1ea2e4"/></linearGradient><path fill="url(#bvOEF5JgNM7hg68RyIf~ea)" d="M5,12h16l-1.461,8.034C19.227,21.752,17.731,23,15.986,23H8.612C6.617,23,5,21.383,5,19.388 V12z M27,12l1.461,8.034C28.773,21.752,30.269,23,32.014,23h7.374C41.383,23,43,21.383,43,19.388V12H27z"/><radialGradient id="bvOEF5JgNM7hg68RyIf~eb" cx="24" cy="34.428" r="16.509" gradientUnits="userSpaceOnUse"><stop offset="0" stop-color="#c26715"/><stop offset=".508" stop-color="#b85515"/><stop offset="1" stop-color="#ad3f16"/></radialGradient><path fill="url(#bvOEF5JgNM7hg68RyIf~eb)" d="M45.744,34.672C37.259,39.475,28.766,24.218,24,28.671 c-4.766-4.452-13.259,10.804-21.744,6.001c-0.374-0.212-0.808,0.202-0.603,0.58C6.477,44.158,22.096,41.664,24,35 c1.904,6.664,17.523,9.158,22.347,0.252C46.552,34.874,46.118,34.461,45.744,34.672z"/><linearGradient id="bvOEF5JgNM7hg68RyIf~ec" x1="21.344" x2="27.493" y1="8.57" y2="20.997" gradientUnits="userSpaceOnUse"><stop offset="0" stop-color="#6d7479"/><stop offset="1" stop-color="#323538"/></linearGradient><path fill="url(#bvOEF5JgNM7hg68RyIf~ec)" d="M45,11h-2H27.209c-2.112-0.994-4.266-0.996-6.413,0H5H3c-0.553,0-1,0.447-1,1s0.447,1,1,1h1 v5.979C4,21.747,6.253,24,9.021,24h6.753c2.371,0,4.387-1.617,4.912-3.986l1.211-7.317c1.422-0.589,2.805-0.591,4.203-0.003 l1.222,7.374C27.839,22.383,29.854,24,32.226,24h6.753C41.747,24,44,21.747,44,18.979V13h1c0.553,0,1-0.447,1-1S45.553,11,45,11z M18.724,19.634C18.414,21.027,17.201,22,15.774,22H9.021C7.355,22,6,20.645,6,18.979V13h13.821L18.724,19.634z M42,18.979 C42,20.645,40.645,22,38.979,22h-6.753c-1.427,0-2.64-0.973-2.939-2.313L28.179,13H42V18.979z"/></svg>