<svg xmlns="http://www.w3.org/2000/svg" viewBox="0 0 48 48"><linearGradient id="1g2qoO5Vy6OW_UgL80CJia" x1="20.515" x2="24.098" y1="5.715" y2="41.99" gradientUnits="userSpaceOnUse"><stop offset="0" stop-color="#33d7f0"/><stop offset="1" stop-color="#0083c4"/></linearGradient><path fill="url(#1g2qoO5Vy6OW_UgL80CJia)" d="M40.842,40.219L25.807,7.156C25.488,6.475,24.802,6,24,6s-1.488,0.475-1.807,1.156	L7.158,40.219C7.057,40.459,7,40.723,7,41c0,1.105,0.895,2,2,2c0.195,0,0.38-0.037,0.559-0.089L24,39l14.441,3.911	C38.62,42.963,38.805,43,39,43c1.105,0,2-0.895,2-2C41,40.723,40.943,40.459,40.842,40.219z"/><linearGradient id="1g2qoO5Vy6OW_UgL80CJib" x1="23.812" x2="23.995" y1="31.975" y2="42.646" gradientUnits="userSpaceOnUse"><stop offset="0" stop-color="#007ad9"/><stop offset="1" stop-color="#0065b3"/></linearGradient><path fill="url(#1g2qoO5Vy6OW_UgL80CJib)" d="M24.565,32.192l-0.002,0.003C24.4,32.082,24.213,32,24,32s-0.4,0.082-0.563,0.195	l-0.002-0.003c0,0-14.015,10.759-13.876,10.719L24,39l14.441,3.911C38.58,42.952,24.565,32.192,24.565,32.192z"/></svg>