<svg xmlns="http://www.w3.org/2000/svg" viewBox="0 0 48 48"><linearGradient id="S8pJrHiNFmDMz_urvbiOLa" x1="13.1" x2="14.958" y1="9.249" y2="12.865" gradientUnits="userSpaceOnUse"><stop offset="0" stop-color="#33bef0"/><stop offset="1" stop-color="#0a85d9"/></linearGradient><path fill="url(#S8pJrHiNFmDMz_urvbiOLa)" d="M16,11c0,1.104-0.896,2-2,2s-2-0.896-2-2s0.896-2,2-2S16,9.896,16,11z"/><linearGradient id="S8pJrHiNFmDMz_urvbiOLb" x1="21.201" x2="24.917" y1="7.499" y2="14.729" gradientUnits="userSpaceOnUse"><stop offset="0" stop-color="#33bef0"/><stop offset="1" stop-color="#0a85d9"/></linearGradient><path fill="url(#S8pJrHiNFmDMz_urvbiOLb)" d="M27,11c0,2.209-1.791,4-4,4s-4-1.791-4-4s1.791-4,4-4S27,8.791,27,11z"/><linearGradient id="S8pJrHiNFmDMz_urvbiOLc" x1="36.2" x2="39.917" y1="29.499" y2="36.729" gradientUnits="userSpaceOnUse"><stop offset="0" stop-color="#33bef0"/><stop offset="1" stop-color="#0a85d9"/></linearGradient><path fill="url(#S8pJrHiNFmDMz_urvbiOLc)" d="M42,33c0,2.209-1.791,4-4,4s-4-1.791-4-4s1.791-4,4-4S42,30.791,42,33z"/><linearGradient id="S8pJrHiNFmDMz_urvbiOLd" x1="30.65" x2="33.438" y1="19.374" y2="24.797" gradientUnits="userSpaceOnUse"><stop offset="0" stop-color="#33bef0"/><stop offset="1" stop-color="#0a85d9"/></linearGradient><path fill="url(#S8pJrHiNFmDMz_urvbiOLd)" d="M35,22c0,1.657-1.343,3-3,3s-3-1.343-3-3s1.343-3,3-3S35,20.343,35,22z"/><linearGradient id="S8pJrHiNFmDMz_urvbiOLe" x1="20.65" x2="23.438" y1="30.374" y2="35.797" gradientUnits="userSpaceOnUse"><stop offset="0" stop-color="#33bef0"/><stop offset="1" stop-color="#0a85d9"/></linearGradient><path fill="url(#S8pJrHiNFmDMz_urvbiOLe)" d="M25,33c0,1.657-1.343,3-3,3s-3-1.343-3-3s1.343-3,3-3S25,31.343,25,33z"/><linearGradient id="S8pJrHiNFmDMz_urvbiOLf" x1="13.1" x2="14.958" y1="20.249" y2="23.865" gradientUnits="userSpaceOnUse"><stop offset="0" stop-color="#33bef0"/><stop offset="1" stop-color="#0a85d9"/></linearGradient><path fill="url(#S8pJrHiNFmDMz_urvbiOLf)" d="M16,22c0,1.104-0.896,2-2,2s-2-0.896-2-2s0.896-2,2-2S16,20.896,16,22z"/><linearGradient id="S8pJrHiNFmDMz_urvbiOLg" x1="13.1" x2="14.958" y1="31.249" y2="34.865" gradientUnits="userSpaceOnUse"><stop offset="0" stop-color="#33bef0"/><stop offset="1" stop-color="#0a85d9"/></linearGradient><path fill="url(#S8pJrHiNFmDMz_urvbiOLg)" d="M16,33c0,1.104-0.896,2-2,2s-2-0.896-2-2s0.896-2,2-2S16,31.896,16,33z"/><linearGradient id="S8pJrHiNFmDMz_urvbiOLh" x1="29.1" x2="30.958" y1="31.249" y2="34.865" gradientUnits="userSpaceOnUse"><stop offset="0" stop-color="#33bef0"/><stop offset="1" stop-color="#0a85d9"/></linearGradient><path fill="url(#S8pJrHiNFmDMz_urvbiOLh)" d="M32,33c0,1.104-0.896,2-2,2s-2-0.896-2-2s0.896-2,2-2S32,31.896,32,33z"/><linearGradient id="S8pJrHiNFmDMz_urvbiOLi" x1="38.1" x2="39.958" y1="20.249" y2="23.865" gradientUnits="userSpaceOnUse"><stop offset="0" stop-color="#33bef0"/><stop offset="1" stop-color="#0a85d9"/></linearGradient><path fill="url(#S8pJrHiNFmDMz_urvbiOLi)" d="M41,22c0,1.104-0.896,2-2,2s-2-0.896-2-2s0.896-2,2-2S41,20.896,41,22z"/><linearGradient id="S8pJrHiNFmDMz_urvbiOLj" x1="38.1" x2="39.958" y1="9.249" y2="12.865" gradientUnits="userSpaceOnUse"><stop offset="0" stop-color="#33bef0"/><stop offset="1" stop-color="#0a85d9"/></linearGradient><path fill="url(#S8pJrHiNFmDMz_urvbiOLj)" d="M41,11c0,1.104-0.896,2-2,2s-2-0.896-2-2s0.896-2,2-2S41,9.896,41,11z"/><linearGradient id="S8pJrHiNFmDMz_urvbiOLk" x1="31.1" x2="32.958" y1="9.249" y2="12.865" gradientUnits="userSpaceOnUse"><stop offset="0" stop-color="#33bef0"/><stop offset="1" stop-color="#0a85d9"/></linearGradient><path fill="url(#S8pJrHiNFmDMz_urvbiOLk)" d="M34,11c0,1.104-0.896,2-2,2s-2-0.896-2-2s0.896-2,2-2S34,9.896,34,11z"/><path fill="#abb4be" d="M43,42H7c-0.552,0-1-0.448-1-1V5c0-0.552,0.448-1,1-1s1,0.448,1,1v35h35c0.552,0,1,0.448,1,1	S43.552,42,43,42z"/></svg>