<svg xmlns="http://www.w3.org/2000/svg" viewBox="0 0 48 48"><path fill="#b31523" d="M30.103,40.368c-0.723-0.241-1.495-0.289-2.242-0.14l-2.012,0.403L25,33h-2l1,9c0,0.552,0.448,1,1,1	h7C32,41.806,31.236,40.745,30.103,40.368z"/><linearGradient id="q9LAn_1xAwZ~5Lvt9PCmEa" x1="25.5" x2="25.5" y1="48.368" y2="36.41" gradientUnits="userSpaceOnUse"><stop offset="0" stop-color="#f44f5a"/><stop offset=".443" stop-color="#ee3d4a"/><stop offset="1" stop-color="#e52030"/></linearGradient><path fill="url(#q9LAn_1xAwZ~5Lvt9PCmEa)" d="M28.103,40.368c-0.723-0.241-1.495-0.289-2.242-0.14l-2.012,0.403L23,33h-2l1,9	c0,0.552,0.448,1,1,1h7C30,41.806,29.236,40.745,28.103,40.368z"/><linearGradient id="q9LAn_1xAwZ~5Lvt9PCmEb" x1="44.868" x2="35.735" y1="9" y2="9" gradientUnits="userSpaceOnUse"><stop offset="0" stop-color="#f44f5a"/><stop offset=".443" stop-color="#ee3d4a"/><stop offset="1" stop-color="#e52030"/></linearGradient><path fill="url(#q9LAn_1xAwZ~5Lvt9PCmEb)" d="M34,7c0,0,5.714,0,8,4c-2.286,0-8,0-8,0V7z"/><linearGradient id="q9LAn_1xAwZ~5Lvt9PCmEc" x1="46.544" x2="40.089" y1="13" y2="13" gradientUnits="userSpaceOnUse"><stop offset="0" stop-color="#f44f5a"/><stop offset=".443" stop-color="#ee3d4a"/><stop offset="1" stop-color="#e52030"/></linearGradient><path fill="url(#q9LAn_1xAwZ~5Lvt9PCmEc)" d="M34,15c0,0,5.714,0,8-4c-2.286,0-8,0-8,0V15z"/><linearGradient id="q9LAn_1xAwZ~5Lvt9PCmEd" x1="28.78" x2="28.78" y1="18.588" y2=".173" gradientUnits="userSpaceOnUse"><stop offset=".002" stop-color="#454545"/><stop offset=".013" stop-color="#464646"/><stop offset=".875" stop-color="#626262"/><stop offset="1" stop-color="#6d6d6d"/></linearGradient><polygon fill="url(#q9LAn_1xAwZ~5Lvt9PCmEd)" points="36.34,21 21.22,21 22,19 24,19 24,11 34,14"/><linearGradient id="q9LAn_1xAwZ~5Lvt9PCmEe" x1="26.5" x2="26.5" y1=".706" y2="55.412" gradientUnits="userSpaceOnUse"><stop offset="0" stop-color="#f9f9f9"/><stop offset=".966" stop-color="#c4c9cd"/><stop offset="1" stop-color="#c2c8cc"/></linearGradient><path fill="url(#q9LAn_1xAwZ~5Lvt9PCmEe)" d="M38,28c0,4.97-4.03,9-9,9H15l6.22-16h15.12l1.03,3.1C37.79,25.36,38,26.68,38,28z"/><linearGradient id="q9LAn_1xAwZ~5Lvt9PCmEf" x1="30" x2="30" y1="18.588" y2=".173" gradientUnits="userSpaceOnUse"><stop offset=".002" stop-color="#454545"/><stop offset=".013" stop-color="#464646"/><stop offset=".875" stop-color="#626262"/><stop offset="1" stop-color="#6d6d6d"/></linearGradient><path fill="url(#q9LAn_1xAwZ~5Lvt9PCmEf)" d="M36,11c0,1.58-0.61,3.02-1.61,4.08C33.3,16.26,31.73,17,30,17c-3.31,0-6-2.69-6-6s2.69-6,6-6	c1.73,0,3.3,0.74,4.39,1.92C35.39,7.98,36,9.42,36,11z"/><linearGradient id="q9LAn_1xAwZ~5Lvt9PCmEg" x1="31" x2="31" y1=".706" y2="55.412" gradientUnits="userSpaceOnUse"><stop offset="0" stop-color="#f9f9f9"/><stop offset=".966" stop-color="#c4c9cd"/><stop offset="1" stop-color="#c2c8cc"/></linearGradient><path fill="url(#q9LAn_1xAwZ~5Lvt9PCmEg)" d="M36,11c0,1.58-0.61,3.02-1.61,4.08c-2.24-0.02-6.3-0.59-8.39-4.08	c2.09-3.49,6.15-4.06,8.39-4.08C35.39,7.98,36,9.42,36,11z"/><linearGradient id="q9LAn_1xAwZ~5Lvt9PCmEh" x1="31" x2="31" y1="9.588" y2="4.161" gradientUnits="userSpaceOnUse"><stop offset=".002" stop-color="#454545"/><stop offset=".013" stop-color="#464646"/><stop offset=".875" stop-color="#626262"/><stop offset="1" stop-color="#6d6d6d"/></linearGradient><circle cx="31" cy="10" r="1" fill="url(#q9LAn_1xAwZ~5Lvt9PCmEh)"/><path d="M26,17h-2v1h2c1.1,0,2,0.9,2,2v1c0,7.37-4.69,13.64-11.24,16h2.46C25.03,34.02,29,27.97,29,21v-1C29,18.35,27.65,17,26,17z" opacity=".05"/><path d="M26,17.5h-2V18h2c1.1,0,2,0.9,2,2v1c0,7.37-4.69,13.64-11.24,16h1.31c6.14-2.72,10.43-8.87,10.43-16v-1 C28.5,18.62,27.38,17.5,26,17.5z" opacity=".07"/><linearGradient id="q9LAn_1xAwZ~5Lvt9PCmEi" x1="30.145" x2=".939" y1="15.616" y2="44.822" gradientUnits="userSpaceOnUse"><stop offset=".002" stop-color="#454545"/><stop offset=".013" stop-color="#464646"/><stop offset=".875" stop-color="#626262"/><stop offset="1" stop-color="#6d6d6d"/></linearGradient><path fill="url(#q9LAn_1xAwZ~5Lvt9PCmEi)" d="M7.029,38c-0.564,0-1.032-0.467-1.003-1.03C6.565,26.444,15.283,18,24,18h2	c1.105,0,2,0.895,2,2v1c0,9.389-7.611,17-17,17H7.029z"/></svg>