<svg xmlns="http://www.w3.org/2000/svg" xmlns:xlink="http://www.w3.org/1999/xlink" data-name="Слой 1" viewBox="0 0 48 48"><defs><linearGradient id="vONQvpnB9StmQpXdXLM~~b" x1="7.942" x2="39.819" y1="-133.465" y2="-166.289" data-name="Безымянный градиент 113" gradientTransform="matrix(1 0 0 -1 0 -125)" gradientUnits="userSpaceOnUse"><stop offset="0" stop-color="#ffd869"/><stop offset="1" stop-color="#fec52b"/></linearGradient><linearGradient id="vONQvpnB9StmQpXdXLM~~a" x1=".801" x2="4.388" y1="23.907" y2="41.125" data-name="Безымянный градиент 114" gradientUnits="userSpaceOnUse"><stop offset="0" stop-color="#32bdef"/><stop offset="1" stop-color="#1ea2e4"/></linearGradient><linearGradient id="vONQvpnB9StmQpXdXLM~~c" x1="7.533" x2="11.12" y1="22.505" y2="39.722" gradientTransform="rotate(-90 9.5 31.5)" xlink:href="#vONQvpnB9StmQpXdXLM~~a"/><linearGradient id="vONQvpnB9StmQpXdXLM~~d" x1="42.825" x2="47.977" y1="9.884" y2="26.841" xlink:href="#vONQvpnB9StmQpXdXLM~~a"/><linearGradient id="vONQvpnB9StmQpXdXLM~~e" x1="36.587" x2="41.739" y1="11.779" y2="28.736" gradientTransform="rotate(-90 38.5 18.5)" xlink:href="#vONQvpnB9StmQpXdXLM~~a"/></defs><path fill="url(#vONQvpnB9StmQpXdXLM~~b)" d="M39.11111,42H8.88889A1.89444,1.89444,0,0,1,7,40.11111V9.88889A1.89444,1.89444,0,0,1,8.88889,8H39.11111A1.89444,1.89444,0,0,1,41,9.88889V40.11111A1.89444,1.89444,0,0,1,39.11111,42Z"/><path fill="#fff8e6" d="M19,8H29v5H19Z"/><rect width="10" height="2" x="28" y="37" fill="#6b5f41"/><polygon fill="#6b5f41" points="38 32 36 30 34 32 35 32 35 35 37 35 37 32 38 32"/><polygon fill="#6b5f41" points="32 32 30 30 28 32 29 32 29 35 31 35 31 32 32 32"/><path fill="url(#vONQvpnB9StmQpXdXLM~~a)" d="M4,27.80794v7.38423a.323.323,0,0,1-.56065.20418L.13187,31.83227a.4844.4844,0,0,1,0-.66443l3.30748-3.56407A.323.323,0,0,1,4,27.80794Z"/><path fill="url(#vONQvpnB9StmQpXdXLM~~c)" d="M8.99995,26.00005h1.00011a1,1,0,0,1,1,1v10a0,0,0,0,1,0,0H7.99995a0,0,0,0,1,0,0v-10A1,1,0,0,1,8.99995,26.00005Z" transform="rotate(90 9.5 31.5)"/><path fill="url(#vONQvpnB9StmQpXdXLM~~d)" d="M44,14.80783v7.38423a.323.323,0,0,0,.56065.20417l3.30748-3.56407a.4844.4844,0,0,0,0-.66443l-3.30748-3.56408A.323.323,0,0,0,44,14.80783Z"/><path fill="url(#vONQvpnB9StmQpXdXLM~~e)" d="M36.99995,12.99995h3.00011a0,0,0,0,1,0,0v10a1,1,0,0,1-1,1H37.99995a1,1,0,0,1-1-1v-10a0,0,0,0,1,0,0Z" transform="rotate(90 38.5 18.5)"/><path d="M14,29H7v1h7a1.003,1.003,0,0,1,1,1v1a1.003,1.003,0,0,1-1,1H7v1h7a2.00591,2.00591,0,0,0,2-2V31A2.00587,2.00587,0,0,0,14,29Z" opacity=".05"/><path d="M14,29.5H7V30h7a1.003,1.003,0,0,1,1,1v1a1.003,1.003,0,0,1-1,1H7v.5h7A1.498,1.498,0,0,0,15.5,32V31A1.498,1.498,0,0,0,14,29.5Z" opacity=".07"/><g><path d="M34,16a2.00587,2.00587,0,0,0-2,2v1a2.00591,2.00591,0,0,0,2,2h7V20H34a1.003,1.003,0,0,1-1-1V18a1.003,1.003,0,0,1,1-1h7V16Z" opacity=".05"/><path d="M34,17h7v-.5H34A1.498,1.498,0,0,0,32.5,18v1A1.498,1.498,0,0,0,34,20.5h7V20H34a1.003,1.003,0,0,1-1-1V18A1.003,1.003,0,0,1,34,17Z" opacity=".07"/></g></svg>