<svg xmlns="http://www.w3.org/2000/svg" viewBox="0 0 48 48"><linearGradient id="Ax_hsxLU7688EJp9WTO0_a" x1="29.804" x2="40.017" y1="8.414" y2="22.712" gradientUnits="userSpaceOnUse"><stop offset="0" stop-color="#fee100"/><stop offset="1" stop-color="#f9b70c"/></linearGradient><path fill="url(#Ax_hsxLU7688EJp9WTO0_a)" d="M23,14.31v1.229c0,0.17-0.05,0.336-0.145,0.478l-1.386,2.076	c-0.228,0.341-0.183,0.796,0.108,1.086l1.048,1.046c0.23,0.23,0.57,0.31,0.879,0.207l1.877-0.625	c0.309-0.103,0.649-0.022,0.879,0.207l3.11,3.105c0.222,0.222,0.547,0.305,0.849,0.217l1.07-0.312	c0.363-0.106,0.752,0.038,0.96,0.353l1.009,1.537c0.192,0.293,0.543,0.44,0.887,0.371l3.638-0.726	c0.36-0.072,0.634-0.364,0.684-0.727l0.412-3.025c0.053-0.388,0.361-0.691,0.749-0.738l2.3-0.277	c0.605-0.073,0.944-0.734,0.651-1.268l-1.067-1.942c-0.272-0.496,0-1.115,0.549-1.249l5.282-1.293	C47.729,13.946,48,13.601,48,13.205V11.86c0-0.475-0.385-0.86-0.86-0.86h-8.109c-0.687,0-1.097-0.766-0.715-1.338l0.004-0.006	c0.406-0.608-0.084-1.413-0.81-1.332l-6.353,0.705c-0.29,0.032-0.544,0.209-0.674,0.47l-1.18,2.357	c-0.263,0.524-0.962,0.638-1.377,0.224l-0.553-0.552c-0.303-0.302-0.781-0.336-1.123-0.08l-2.906,2.176	C23.128,13.784,23,14.039,23,14.31z"/><linearGradient id="Ax_hsxLU7688EJp9WTO0_b" x1="9.244" x2="15.731" y1="30.842" y2="36.021" gradientUnits="userSpaceOnUse"><stop offset="0" stop-color="#5c65d6"/><stop offset=".999" stop-color="#464eb0"/></linearGradient><path fill="url(#Ax_hsxLU7688EJp9WTO0_b)" d="M14.229,27.172l2.878,2.158c0.347,0.26,0.446,0.738,0.231,1.115l-3.224,3.643	C14.039,34.217,14,34.364,14,34.514l-1,4.626c0,0.475-0.385,0.86-0.86,0.86h-0.88c-0.517,0-0.918-0.453-0.853-0.967l0.756-6.045	c0.033-0.263-0.058-0.527-0.245-0.715l-0.23-0.23c-0.243-0.243-0.318-0.608-0.19-0.928l1.43-3.576	C12.057,27.214,12.373,27,12.725,27h0.988C13.899,27,14.08,27.06,14.229,27.172z"/><linearGradient id="Ax_hsxLU7688EJp9WTO0_c" x1="42.613" x2="40.315" y1="24.601" y2="38.324" gradientUnits="userSpaceOnUse"><stop offset="0" stop-color="#32bdef"/><stop offset="1" stop-color="#1ea2e4"/></linearGradient><path fill="url(#Ax_hsxLU7688EJp9WTO0_c)" d="M39.985,32.2l-4.414,3.679c-0.476,0.397-0.389,1.153,0.166,1.43l2.345,1.173	c0.204,0.102,0.44,0.119,0.657,0.047l2.143-0.714c0.252-0.084,0.528-0.047,0.749,0.1l1.814,1.21	c0.395,0.263,0.929,0.157,1.193-0.239l1.166-1.749c0.171-0.257,0.192-0.586,0.054-0.862l-1.52-3.04	c-0.112-0.225-0.317-0.389-0.561-0.45l-3.033-0.758C40.477,31.959,40.195,32.024,39.985,32.2z"/><linearGradient id="Ax_hsxLU7688EJp9WTO0_d" x1="20.209" x2="31.124" y1="10.13" y2="23.726" gradientUnits="userSpaceOnUse"><stop offset="0" stop-color="#21ad64"/><stop offset="1" stop-color="#088242"/></linearGradient><path fill="url(#Ax_hsxLU7688EJp9WTO0_d)" d="M28.789,16.578L28,15l-0.914-3.658c-0.272-0.109-0.588-0.081-0.835,0.104l-2.906,2.176	C23.128,13.784,23,14.04,23,14.31v1.229c0,0.17-0.05,0.336-0.145,0.478l-1.386,2.076c-0.228,0.341-0.183,0.796,0.108,1.086	l1.048,1.046c0.23,0.23,0.57,0.31,0.879,0.207l1.877-0.625c0.309-0.103,0.649-0.022,0.879,0.207l0.904,0.903l0.73-0.365	C28.572,20.214,29,19.521,29,18.764v-1.292C29,17.162,28.928,16.855,28.789,16.578z"/><linearGradient id="Ax_hsxLU7688EJp9WTO0_e" x1="4.233" x2="12.659" y1="5.344" y2="20.918" gradientUnits="userSpaceOnUse"><stop offset="0" stop-color="#f44f5a"/><stop offset=".443" stop-color="#ee3d4a"/><stop offset="1" stop-color="#e52030"/></linearGradient><path fill="url(#Ax_hsxLU7688EJp9WTO0_e)" d="M13.207,13.741l0.504-0.46c0.256-0.234,0.347-0.599,0.23-0.925l-0.596-1.666 c-0.065-0.182-0.067-0.38-0.006-0.563l0.76-2.272c0.168-0.503-0.085-1.049-0.577-1.246l-1.081-0.432 c-0.28-0.112-0.595-0.092-0.858,0.055L7.068,8.75c-0.222,0.083-0.4,0.254-0.491,0.473l-0.952,2.27 c-0.096,0.229-0.286,0.405-0.521,0.483L0.94,13.366c-0.496,0.166-0.731,0.732-0.497,1.2l1.092,2.184 c0.212,0.425,0.729,0.597,1.154,0.385l0.704-0.352c0.276-0.138,0.605-0.118,0.862,0.054l2.082,1.388 c0.239,0.159,0.383,0.428,0.383,0.716v1.148c0,0.201,0.071,0.396,0.199,0.551l3.998,4.797c0.324,0.388,0.911,0.415,1.269,0.058 l0.91-0.91c0.214-0.214,0.299-0.524,0.226-0.817l-0.724-2.895c-0.073-0.293,0.013-0.603,0.226-0.817l2.072-2.072 c0.274-0.274,0.331-0.697,0.139-1.034L13.207,13.741z"/><linearGradient id="Ax_hsxLU7688EJp9WTO0_f" x1="13.325" x2="21.75" y1=".425" y2="16" gradientUnits="userSpaceOnUse"><stop offset="0" stop-color="#f44f5a"/><stop offset=".443" stop-color="#ee3d4a"/><stop offset="1" stop-color="#e52030"/></linearGradient><path fill="url(#Ax_hsxLU7688EJp9WTO0_f)" d="M20.412,7.604l-1.886-0.628c-0.32-0.107-0.674-0.016-0.903,0.232l-2.107,2.277 c-0.344,0.372-0.294,0.96,0.11,1.268l1.036,0.79C16.875,11.705,17,11.957,17,12.226v1.183c0,0.639,0.673,1.055,1.245,0.769 l2.28-1.14C20.816,12.892,21,12.594,21,12.268V8.42C21,8.05,20.763,7.721,20.412,7.604z"/><linearGradient id="Ax_hsxLU7688EJp9WTO0_g" x1="11.406" x2="19.832" y1="1.463" y2="17.038" gradientUnits="userSpaceOnUse"><stop offset="0" stop-color="#f44f5a"/><stop offset=".443" stop-color="#ee3d4a"/><stop offset="1" stop-color="#e52030"/></linearGradient><path fill="url(#Ax_hsxLU7688EJp9WTO0_g)" d="M18.75,15.067c-0.478,0.276-0.754,0.694-0.616,0.933s0.638,0.209,1.116-0.067 c0.478-0.276,0.754-0.694,0.616-0.933S19.228,14.791,18.75,15.067z"/><g><linearGradient id="Ax_hsxLU7688EJp9WTO0_h" x1="21.554" x2="30.81" y1="21.528" y2="35.507" gradientUnits="userSpaceOnUse"><stop offset="0" stop-color="#bd4ff4"/><stop offset=".587" stop-color="#a235ec"/><stop offset="1" stop-color="#8c20e5"/></linearGradient><path fill="url(#Ax_hsxLU7688EJp9WTO0_h)" d="M30.629,28.235l-1.603-3.304c-0.102-0.209-0.284-0.369-0.505-0.441l-4.251-1.401 c-0.176-0.058-0.366-0.058-0.541,0.001l-2.141,0.714C21.237,23.921,21,24.25,21,24.62v3.709c0,0.395,0.269,0.739,0.651,0.834 l2.788,0.697c0.339,0.085,0.593,0.367,0.643,0.713l0.625,4.372c0.108,0.758,1.08,1.007,1.539,0.394l1.582-2.11 C28.94,33.08,29,32.899,29,32.713v-2.182c0-0.326,0.184-0.624,0.475-0.769l0.765-0.382C30.661,29.169,30.835,28.659,30.629,28.235z"/><linearGradient id="Ax_hsxLU7688EJp9WTO0_i" x1="22.916" x2="32.172" y1="20.626" y2="34.605" gradientUnits="userSpaceOnUse"><stop offset="0" stop-color="#bd4ff4"/><stop offset=".587" stop-color="#a235ec"/><stop offset="1" stop-color="#8c20e5"/></linearGradient><path fill="url(#Ax_hsxLU7688EJp9WTO0_i)" d="M31.063,31.14c0,0-0.75,1-0.438,1.75s-0.313,1.938-0.063,2.25 c0.25,0.312,1.063-0.188,1.375-2C32.249,31.328,31.5,30.077,31.063,31.14z"/></g><linearGradient id="Ax_hsxLU7688EJp9WTO0_j" x1="33.664" x2="39.707" y1="19.541" y2="26.179" gradientUnits="userSpaceOnUse"><stop offset="0" stop-color="#fee100"/><stop offset="1" stop-color="#f9b70c"/></linearGradient><path fill="url(#Ax_hsxLU7688EJp9WTO0_j)" d="M42,26c-1,0-3-1-3-1s-2,1-1,2s3-1,4,0V26z"/><linearGradient id="Ax_hsxLU7688EJp9WTO0_k" x1="43.574" x2="41.276" y1="24.762" y2="38.485" gradientUnits="userSpaceOnUse"><stop offset="0" stop-color="#32bdef"/><stop offset="1" stop-color="#1ea2e4"/></linearGradient><path fill="url(#Ax_hsxLU7688EJp9WTO0_k)" d="M42,27c1,1,1,2,2,2s-1-3-2-3V27z"/></svg>