<svg xmlns="http://www.w3.org/2000/svg" xmlns:xlink="http://www.w3.org/1999/xlink" data-name="Слой 1" viewBox="0 0 48 48"><defs><linearGradient id="wrnQxtU4wKydkbtQfBxKqa" x1="11.5" x2="11.5" y1="-1.435" y2="29.36" data-name="Безымянный градиент 123" gradientUnits="userSpaceOnUse"><stop offset="0" stop-color="#f44f5a"/><stop offset=".443" stop-color="#ee3d4a"/><stop offset="1" stop-color="#e52030"/></linearGradient><linearGradient id="wrnQxtU4wKydkbtQfBxKqb" x1="36.5" x2="36.5" y1="-1.435" y2="29.36" xlink:href="#wrnQxtU4wKydkbtQfBxKqa"/><linearGradient id="wrnQxtU4wKydkbtQfBxKqc" x1="24" x2="24" y1="-5210.951" y2="-5220.994" data-name="Безымянный градиент 12" gradientTransform="matrix(1 0 0 -1 0 -5178)" gradientUnits="userSpaceOnUse"><stop offset="0" stop-color="#2aa4f4"/><stop offset="1" stop-color="#007ad9"/></linearGradient></defs><rect width="1" height="8" x="15" y="16.5" fill="#eb6773"/><rect width="1" height="8.25" x="7" y="16.25" fill="#eb6773"/><rect width="1" height="8.25" x="40" y="16.25" fill="#eb6773"/><rect width="1" height="5.5" x="4" y="19" fill="#eb6773"/><rect width="1" height="5.5" x="43" y="19" fill="#eb6773"/><rect width="1" height="5.5" x="18" y="19" fill="#eb6773"/><rect width="1" height="4.25" x="21" y="20.25" fill="#eb6773"/><rect width="1" height="4.25" x="26" y="20.25" fill="#eb6773"/><rect width="1" height="5.5" x="29" y="19" fill="#eb6773"/><rect width="1" height="8.25" x="32" y="16.25" fill="#eb6773"/><rect width="42" height="2" x="3" y="23" fill="#b31523"/><path fill="#b31523" d="M24,21c-4.84961,0-8.86914-3.12109-11.94727-9.27637l.89454-.44726C15.8418,17.06543,19.56055,20,24,20s8.1582-2.93457,11.05273-8.72363l.89454.44726C32.86914,17.87891,28.84961,21,24,21Z"/><path fill="#b31523" d="M45,19.12v1.09c-3.1-1.27-5.76-4.11-7.95-8.49l.9-.44C39.92,15.24,42.29,17.86,45,19.12Z"/><path fill="#b31523" d="M10.95,11.72C8.76,16.1,6.1,18.94,3,20.21V19.12c2.71-1.26,5.08-3.88,7.05-7.84Z"/><path fill="url(#wrnQxtU4wKydkbtQfBxKqa)" d="M11.5,9h0A1.5,1.5,0,0,1,13,10.5V35a0,0,0,0,1,0,0H10a0,0,0,0,1,0,0V10.5A1.5,1.5,0,0,1,11.5,9Z"/><path fill="#f09801" d="M10,31h3a2,2,0,0,1,2,2v2a0,0,0,0,1,0,0H8a0,0,0,0,1,0,0V33A2,2,0,0,1,10,31Z"/><path fill="url(#wrnQxtU4wKydkbtQfBxKqb)" d="M36.5,9h0A1.5,1.5,0,0,1,38,10.5V35a0,0,0,0,1,0,0H35a0,0,0,0,1,0,0V10.5A1.5,1.5,0,0,1,36.5,9Z"/><path fill="#f09801" d="M35,31h3a2,2,0,0,1,2,2v2a0,0,0,0,1,0,0H33a0,0,0,0,1,0,0V33A2,2,0,0,1,35,31Z"/><path fill="url(#wrnQxtU4wKydkbtQfBxKqc)" d="M42,34a5.60654,5.60654,0,0,1-3-1,5.60654,5.60654,0,0,1-3,1,5.60654,5.60654,0,0,1-3-1,5.60654,5.60654,0,0,1-3,1,5.60654,5.60654,0,0,1-3-1,5.60654,5.60654,0,0,1-3,1,5.60654,5.60654,0,0,1-3-1,5.60654,5.60654,0,0,1-3,1,5.60654,5.60654,0,0,1-3-1,5.60654,5.60654,0,0,1-3,1,5.60654,5.60654,0,0,1-3-1,5.60654,5.60654,0,0,1-3,1,5.60654,5.60654,0,0,1-3-1v8a1.99945,1.99945,0,0,0,2,2H43a1.99945,1.99945,0,0,0,2-2V33A5.60654,5.60654,0,0,1,42,34Z"/></svg>