<svg xmlns="http://www.w3.org/2000/svg" viewBox="0 0 48 48"><linearGradient id="q2DNMEBEZvMQ7n7XgHc0Za" x1="14.915" x2="39.048" y1="11.991" y2="43.891" gradientUnits="userSpaceOnUse"><stop offset="0" stop-color="#0d61a9"/><stop offset="1" stop-color="#16528c"/></linearGradient><path fill="url(#q2DNMEBEZvMQ7n7XgHc0Za)" d="M44,24c0,11.046-8.954,20-20,20S4,35.046,4,24c0-2.216,0.36-4.348,1.026-6.341	C6.311,13.812,14.489,11,14.489,11s0.04-4.693,1.507-5.334C18.447,4.594,21.154,4,24,4C35.046,4,44,12.954,44,24z"/><linearGradient id="q2DNMEBEZvMQ7n7XgHc0Zb" x1="19.177" x2="35.182" y1="13.41" y2="45.061" gradientUnits="userSpaceOnUse"><stop offset="0" stop-color="#dfe9f2"/><stop offset=".998" stop-color="#9ea7b0"/></linearGradient><path fill="url(#q2DNMEBEZvMQ7n7XgHc0Zb)" d="M16,8.594V5.675c-1.432,0.626-2.767,1.424-4,2.352V8.31l-0.206-0.128	c-3.105,2.399-5.483,5.683-6.753,9.483L12,13.32V18h4v-4.965L23.949,18H25v-2.609L21.171,13H25V9h-4.421L25,6.238V4.05	C24.667,4.034,24.338,4,24,4c-0.235,0-0.464,0.027-0.697,0.035L16,8.594z M27.34,26.297l2.168-1.914l-2.879-0.278l-1.152-2.652	l-1.153,2.652l-2.879,0.278l2.164,1.914l-0.625,2.824l2.493-1.469l2.492,1.469L27.34,26.297z M32.629,32.105l-1.152-2.656	l-1.153,2.656l-2.879,0.274l2.164,1.918l-0.625,2.82l2.493-1.465l2.492,1.465l-0.629-2.82l2.168-1.918L32.629,32.105z M28.984,22.121l2.493-1.469l2.492,1.469l-0.629-2.824l2.168-1.914l-2.879-0.278l-1.156-2.652l-1.149,2.652l-2.879,0.278	l2.164,1.914L28.984,22.121z M40.508,23.383l-2.879-0.278l-1.152-2.652l-1.153,2.652l-2.879,0.278l2.168,1.914l-0.629,2.824	l2.493-1.469l2.492,1.469l-0.629-2.82L40.508,23.383z"/><linearGradient id="q2DNMEBEZvMQ7n7XgHc0Zc" x1="15.792" x2="36.044" y1="11.325" y2="37.154" gradientUnits="userSpaceOnUse"><stop offset=".008" stop-color="#f44f5a"/><stop offset=".447" stop-color="#ee3d4a"/><stop offset="1" stop-color="#e52030"/></linearGradient><path fill="url(#q2DNMEBEZvMQ7n7XgHc0Zc)" d="M13,12v6h2v-6h10v-2H15V6.157c-0.689,0.348-1.36,0.725-2,1.148V10H9.729	c-0.613,0.625-1.174,1.299-1.701,2H13z M11.641,13H9.898l-3.972,2.479c-0.229,0.484-0.437,0.977-0.627,1.481L11.641,13z M24.213,4.011L16.223,9h1.746L25,4.609V4.05C24.738,4.037,24.478,4.014,24.213,4.011z M25,15.934L20.301,13h-1.742L25,17.02V15.934	z M25.477,23.961l0.468,1.086l1.176,0.109l-0.883,0.785l0.254,1.153l-1.015-0.602l-1.016,0.602l0.254-1.153l-0.883-0.785	l1.176-0.109L25.477,23.961z M31.477,31.961l0.468,1.086l1.176,0.109l-0.883,0.785l0.254,1.153l-1.015-0.602l-1.016,0.602	l0.254-1.153l-0.883-0.785l1.176-0.109L31.477,31.961z M31.477,16.961l0.468,1.086l1.176,0.109l-0.883,0.785l0.254,1.153	l-1.015-0.602l-1.016,0.602l0.254-1.153l-0.883-0.785l1.176-0.109L31.477,16.961z M36.477,22.961l0.468,1.086l1.176,0.109	l-0.883,0.785l0.254,1.153l-1.015-0.602l-1.016,0.602l0.254-1.153l-0.883-0.785l1.176-0.109L36.477,22.961z"/></svg>