<svg xmlns="http://www.w3.org/2000/svg" viewBox="0 0 48 48"><path fill="#50e6ff" d="M39,7v34c0,1.105-0.895,2-2,2H11c-1.105,0-2-0.895-2-2V7c0-1.105,0.895-2,2-2h26	C38.105,5,39,5.895,39,7z"/><path fill="#057093" d="M33,17H19c-0.552,0-1,0.448-1,1v0c0,0.552,0.448,1,1,1h14c0.552,0,1-0.448,1-1v0	C34,17.448,33.552,17,33,17z"/><path fill="#057093" d="M33,11H19c-0.552,0-1,0.448-1,1v0c0,0.552,0.448,1,1,1h14c0.552,0,1-0.448,1-1v0	C34,11.448,33.552,11,33,11z"/><circle cx="15" cy="12" r="1" fill="#057093"/><circle cx="15" cy="18" r="1" fill="#057093"/><path fill="#057093" d="M33,23H19c-0.552,0-1,0.448-1,1v0c0,0.552,0.448,1,1,1h14c0.552,0,1-0.448,1-1v0	C34,23.448,33.552,23,33,23z"/><circle cx="15" cy="24" r="1" fill="#057093"/><path fill="#057093" d="M33,29H19c-0.552,0-1,0.448-1,1v0c0,0.552,0.448,1,1,1h14c0.552,0,1-0.448,1-1v0	C34,29.448,33.552,29,33,29z"/><circle cx="15" cy="30" r="1" fill="#057093"/><path fill="#057093" d="M33,35H19c-0.552,0-1,0.448-1,1l0,0c0,0.552,0.448,1,1,1h14c0.552,0,1-0.448,1-1l0,0	C34,35.448,33.552,35,33,35z"/><circle cx="15" cy="36" r="1" fill="#057093"/><path fill="#50e6ff" d="M28.243,6L24,10.243L19.757,6l3.536-3.536c0.391-0.391,1.024-0.391,1.414,0L28.243,6z"/></svg>