<svg xmlns="http://www.w3.org/2000/svg" xmlns:xlink="http://www.w3.org/1999/xlink" data-name="Слой 1" viewBox="0 0 48 48"><defs><linearGradient id="TVX7WnNg8MhM48EBPnIv9a" x1="4.048" x2="14.342" y1="7.779" y2="36.062" data-name="Безымянный градиент 134" gradientUnits="userSpaceOnUse"><stop offset="0" stop-color="#889097"/><stop offset="1" stop-color="#4c5963"/></linearGradient><linearGradient id="TVX7WnNg8MhM48EBPnIv9b" x1="14.418" x2="31.678" y1="8.028" y2="55.448" xlink:href="#TVX7WnNg8MhM48EBPnIv9a"/><linearGradient id="TVX7WnNg8MhM48EBPnIv9c" x1="39" x2="39" y1=".293" y2="26.889" xlink:href="#TVX7WnNg8MhM48EBPnIv9a"/><linearGradient id="TVX7WnNg8MhM48EBPnIv9d" x1="38.5" x2="38.5" y1="2.087" y2="45.998" xlink:href="#TVX7WnNg8MhM48EBPnIv9a"/><linearGradient id="TVX7WnNg8MhM48EBPnIv9e" x1="34" x2="34" y1="2.087" y2="45.998" xlink:href="#TVX7WnNg8MhM48EBPnIv9a"/><linearGradient id="TVX7WnNg8MhM48EBPnIv9f" x1="33" x2="33" y1="6.652" y2="22.827" data-name="Безымянный градиент 80" gradientUnits="userSpaceOnUse"><stop offset="0" stop-color="#afb6bc"/><stop offset=".925" stop-color="#9aa0a5"/></linearGradient></defs><path fill="url(#TVX7WnNg8MhM48EBPnIv9a)" d="M11.52073,37.99054a6.94145,6.94145,0,0,1-4.326-1.37785A13.12918,13.12918,0,0,1,4.2612,33.76446a16.27044,16.27044,0,0,1-3.09769-7.48338A16.472,16.472,0,0,1,2.22681,17.8a21.52429,21.52429,0,0,1,4.82937-7.10994l.172-.17332a5.165,5.165,0,0,1,7.2346-.07623A5.00026,5.00026,0,0,1,14.54,17.57863a5.30225,5.30225,0,0,1-1.0821.83144,12.87472,12.87472,0,0,0-3.81725,3.15946,9.1955,9.1955,0,0,0-1.91,4.48556,10.6296,10.6296,0,0,0,.663,5.29624,8.89422,8.89422,0,0,0,1.35948,2.33435,3.93505,3.93505,0,0,0,1.76755,1.31246l.32553.09175a1.47737,1.47737,0,0,1,1.03043,1.82952A1.49964,1.49964,0,0,1,11.52073,37.99054Z"/><path fill="url(#TVX7WnNg8MhM48EBPnIv9b)" d="M38,39H37l1-9H34.80957A10.98972,10.98972,0,0,0,22.84406,17.06152C15.43115,17.68506,10,24.30084,10,35v3a4,4,0,0,0,4,4H27a1,1,0,0,0,1-1,2,2,0,0,0-2-2H24a10.95858,10.95858,0,0,0,8.11609-3.59363l1.46948,5.14307A2.00009,2.00009,0,0,0,35.50861,42H39a1,1,0,0,0,1-1A2,2,0,0,0,38,39Z"/><path fill="url(#TVX7WnNg8MhM48EBPnIv9c)" d="M43,14a4,4,0,0,0-8,0c0,5,1.79086,10,4,10S43,19,43,14Z"/><path fill="url(#TVX7WnNg8MhM48EBPnIv9d)" d="M46,29c0-4-3-10-8.5-10a6.5,6.5,0,0,0,0,13C41.08985,32,46,31,46,29Z"/><circle cx="40.5" cy="25.5" r="1.5" fill="#343434"/><path fill="#343434" d="M46,29c0,.67-.55,1.23-1.42,1.67A1.42494,1.42494,0,0,1,44,29.51a1.49585,1.49585,0,0,1,1.49-1.5,1.12426,1.12426,0,0,1,.45.08A7.191,7.191,0,0,1,46,29Z"/><path fill="url(#TVX7WnNg8MhM48EBPnIv9e)" d="M38,13c0,5-1.79,10-4,10-1.11,0-2.11-1.25-2.83-3.13A19.9897,19.9897,0,0,1,30,13a3.99887,3.99887,0,0,1,4-4,1.47569,1.47569,0,0,1,.21.01A3.9967,3.9967,0,0,1,38,13Z"/><path fill="url(#TVX7WnNg8MhM48EBPnIv9f)" d="M36,14c0,3.31-1.79,6-4,6a2.87981,2.87981,0,0,1-.83-.13A19.9897,19.9897,0,0,1,30,13a3.99887,3.99887,0,0,1,4-4,1.47569,1.47569,0,0,1,.21.01A7.111,7.111,0,0,1,36,14Z"/></svg>