<svg xmlns="http://www.w3.org/2000/svg" viewBox="0 0 48 48"><linearGradient id="rChhzIuOPEcHRwelxdH02a" x1="24" x2="24" y1="8.068" y2="35.884" gradientUnits="userSpaceOnUse"><stop offset="0" stop-color="#eba84b"/><stop offset="1" stop-color="#d97218"/></linearGradient><path fill="url(#rChhzIuOPEcHRwelxdH02a)" d="M40.167,22.09c-2.278-0.159-4.34,0.85-5.567,2.489L31.64,11.5h-0.02 c-0.53-2-2.17-3.5-4.07-3.5C25.64,8,25.46,9.5,24,9.5c-1.37,0-1.64-1.5-3.55-1.5c-1.9,0-3.54,1.5-3.8,3.5h-0.01l-3.155,13.201 c-1.214-1.71-3.317-2.774-5.652-2.611c-3.462,0.239-6.067,3.112-5.816,6.417C2.603,36.247,12.164,41,18.762,41h10.476 c6.598,0,16.159-4.753,16.745-12.493C46.234,25.202,43.629,22.329,40.167,22.09z"/><path d="M36.61,28.94l-0.59-2.62l-0.12-0.55l-0.47-2.08c-0.15,0.13-0.29,0.26-0.42,0.41c-0.15,0.15-0.28,0.31-0.41,0.48l0.32,1.41 l0.12,0.54v0.01l0.6,2.62c0.36,1.59-0.62,3.16-2.19,3.58c-0.36,0.09-0.71,0.18-1.06,0.26c-2.79,0.67-5.59,1-8.39,1 s-5.6-0.33-8.39-1c-0.33-0.08-0.67-0.16-1-0.25c-1.59-0.42-2.57-2.01-2.19-3.61l0.26-1.06v-0.01l0.49-2.05l0.32-1.32 c-0.13-0.17-0.26-0.34-0.4-0.5c-0.13-0.15-0.27-0.29-0.41-0.41l-0.48,2l-0.49,2.05l-0.01,0.04v0.01l-0.25,1.02 c-0.51,2.13,0.77,4.24,2.9,4.81c0.35,0.09,0.69,0.17,1.03,0.25C18.22,34.65,21.12,35,24,35s5.78-0.35,8.62-1.03 c0.36-0.08,0.72-0.17,1.08-0.27C35.81,33.14,37.09,31.05,36.61,28.94z" opacity=".05"/><path d="M36.12,29.05l-0.59-2.62l-0.12-0.55l-0.4-1.78c-0.15,0.15-0.28,0.31-0.41,0.48l0.32,1.41l0.12,0.54v0.01l0.6,2.62 c0.36,1.59-0.62,3.16-2.19,3.58c-0.36,0.09-0.71,0.18-1.06,0.26c-2.79,0.67-5.59,1-8.39,1s-5.6-0.33-8.39-1 c-0.33-0.08-0.67-0.16-1-0.25c-1.59-0.42-2.57-2.01-2.19-3.61l0.26-1.06v-0.01l0.49-2.05l0.32-1.32c-0.13-0.17-0.26-0.34-0.4-0.5 l-0.41,1.7l-0.49,2.05v0.03L12.18,28l-0.24,1.02c-0.45,1.87,0.67,3.72,2.54,4.21c0.34,0.09,0.68,0.18,1.02,0.26 c2.79,0.67,5.66,1.01,8.5,1.01s5.71-0.34,8.51-1.01c0.35-0.09,0.71-0.18,1.06-0.27C35.42,32.73,36.54,30.9,36.12,29.05z" opacity=".07"/><linearGradient id="rChhzIuOPEcHRwelxdH02b" x1="13.159" x2="38.398" y1="30.076" y2="30.076" gradientUnits="userSpaceOnUse"><stop offset="0" stop-color="#a34f27"/><stop offset=".587" stop-color="#8b3817"/><stop offset="1" stop-color="#802d10"/></linearGradient><path fill="url(#rChhzIuOPEcHRwelxdH02b)" d="M35.637,29.164c0.358,1.587-0.618,3.156-2.191,3.573C33.094,32.83,32.742,32.918,32.39,33	c-2.79,0.67-5.59,1-8.39,1s-5.6-0.33-8.39-1c-0.334-0.078-0.669-0.162-1.003-0.25c-1.587-0.418-2.564-2.013-2.182-3.61l0.618-2.585	c0.069-0.287,0.37-0.447,0.649-0.349c6.926,2.42,13.774,2.411,20.7-0.026c0.281-0.099,0.586,0.064,0.652,0.355L35.637,29.164z"/><linearGradient id="rChhzIuOPEcHRwelxdH02c" x1="24" x2="24" y1="24.296" y2="36.098" gradientUnits="userSpaceOnUse"><stop offset="0" stop-color="#f0f0f0"/><stop offset="1" stop-color="#bbc1c4"/></linearGradient><circle cx="24" cy="31" r="4" fill="url(#rChhzIuOPEcHRwelxdH02c)"/></svg>