<svg xmlns="http://www.w3.org/2000/svg" viewBox="0 0 48 48"><path fill="#21a366" d="M21.429,10.074c5.538,5.528,2.982,13.182,2.982,13.182L7.37,6.247	C7.37,6.247,15.89,4.546,21.429,10.074z"/><path fill="#33c481" d="M7.37,6.247c0,0-2.124,8.074,3.834,14.032C16.471,25.546,23,23.302,23,27.668V31h2v-5.51	c0-1.063-0.423-2.082-1.175-2.832L7.37,6.247z"/><linearGradient id="Rbkp3SCrU0cNtvkNaDjy5a" x1="10" x2="38" y1="216.5" y2="216.5" gradientTransform="matrix(1 0 0 -1 0 254)" gradientUnits="userSpaceOnUse"><stop offset="0" stop-color="#b9360c"/><stop offset=".537" stop-color="#b5350c"/><stop offset=".999" stop-color="#ab320b"/></linearGradient><path fill="url(#Rbkp3SCrU0cNtvkNaDjy5a)" d="M34.33,43H13.67c-0.967,0-1.795-0.691-1.968-1.642L10,32h28l-1.702,9.358	C36.125,42.309,35.297,43,34.33,43z"/><path fill="#d43a02" d="M9,32v-2c0-0.552,0.448-1,1-1h28c0.552,0,1,0.448,1,1v2c0,0.552-0.448,1-1,1H10	C9.448,33,9,32.552,9,32z"/><linearGradient id="Rbkp3SCrU0cNtvkNaDjy5b" x1="19.509" x2="30.645" y1="4.509" y2="15.645" gradientUnits="userSpaceOnUse"><stop offset="0" stop-color="#fede00"/><stop offset="1" stop-color="#ffd000"/></linearGradient><circle cx="25" cy="10" r="8" fill="url(#Rbkp3SCrU0cNtvkNaDjy5b)"/><circle cx="25" cy="10" r="6" fill="#f5be00"/><path fill="#fee119" d="M23.214,12.948v-1.192c0.433,0.265,0.894,0.397,1.383,0.397c0.368,0,0.656-0.087,0.864-0.263 c0.208-0.175,0.311-0.413,0.311-0.713c0-0.627-0.443-0.941-1.329-0.941c-0.289,0-0.638,0.026-1.047,0.08V6.778h3.507v1.14h-2.314 v1.268c0.185-0.018,0.361-0.026,0.526-0.026c0.651,0,1.16,0.171,1.528,0.512c0.368,0.342,0.552,0.801,0.552,1.378 c0,0.639-0.219,1.161-0.658,1.565c-0.439,0.405-1.033,0.607-1.784,0.607C24.141,13.222,23.629,13.131,23.214,12.948z"/><path fill="#21a366" d="M36.379,23.826c-4.914,4.923-11.717,2.651-11.717,2.651l15.119-15.148	C39.781,11.329,41.292,18.903,36.379,23.826z"/><path fill="#33c481" d="M39.78,11.328c0,0-7.181-1.894-12.473,3.408c-3.392,3.399-3.52,7.256-3.177,9.593	C23.4,25.342,23,26.551,23,27.825V29h2v-1.175c0-1.053,0.427-2.083,1.171-2.828L39.78,11.328z"/></svg>