<svg xmlns="http://www.w3.org/2000/svg" viewBox="0 0 48 48"><path fill="#64717c" d="M9.339,33.166l14.042-14.042c0.391-0.391,1.023-0.391,1.414,0l14.042,14.042	c0.391,0.391,0.391,1.023,0,1.414c-0.391,0.391-1.023,0.391-1.414,0L24.088,21.246L10.753,34.58c-0.391,0.391-1.023,0.391-1.414,0	C8.948,34.189,8.948,33.557,9.339,33.166z"/><linearGradient id="Pw1eOdn0VoMIGPrpbvHnCa" x1="5.465" x2="12.535" y1="630.536" y2="623.466" gradientTransform="matrix(1 0 0 -1 0 662)" gradientUnits="userSpaceOnUse"><stop offset="0" stop-color="#d43a02"/><stop offset="1" stop-color="#b9360c"/></linearGradient><path fill="url(#Pw1eOdn0VoMIGPrpbvHnCa)" d="M12.584,38.482C13.459,37.582,14,36.354,14,35c0-2.761-2.239-5-5-5s-5,2.239-5,5	c0,1.354,0.541,2.582,1.416,3.482c0.005,0.005,3.191,3.194,3.191,3.194c0.217,0.217,0.569,0.217,0.786,0	C9.393,41.676,12.579,38.487,12.584,38.482z"/><radialGradient id="Pw1eOdn0VoMIGPrpbvHnCb" cx="6" cy="625.5" r="2.813" gradientTransform="matrix(.8889 0 0 -.8889 3.667 591)" gradientUnits="userSpaceOnUse"><stop offset=".177"/><stop offset="1" stop-opacity="0"/></radialGradient><circle cx="9" cy="35" r="2.5" fill="url(#Pw1eOdn0VoMIGPrpbvHnCb)"/><circle cx="9" cy="35" r="2" fill="#f9f9f9"/><linearGradient id="Pw1eOdn0VoMIGPrpbvHnCc" x1="35.465" x2="42.535" y1="630.536" y2="623.466" gradientTransform="matrix(1 0 0 -1 0 662)" gradientUnits="userSpaceOnUse"><stop offset="0" stop-color="#d43a02"/><stop offset="1" stop-color="#b9360c"/></linearGradient><path fill="url(#Pw1eOdn0VoMIGPrpbvHnCc)" d="M42.584,38.482C43.459,37.582,44,36.354,44,35c0-2.761-2.239-5-5-5s-5,2.239-5,5	c0,1.354,0.541,2.582,1.416,3.482c0.005,0.005,3.191,3.194,3.191,3.194c0.217,0.217,0.569,0.217,0.786,0	C39.393,41.676,42.579,38.487,42.584,38.482z"/><radialGradient id="Pw1eOdn0VoMIGPrpbvHnCd" cx="39.75" cy="625.5" r="2.813" gradientTransform="matrix(.8889 0 0 -.8889 3.667 591)" gradientUnits="userSpaceOnUse"><stop offset=".177"/><stop offset="1" stop-opacity="0"/></radialGradient><circle cx="39" cy="35" r="2.5" fill="url(#Pw1eOdn0VoMIGPrpbvHnCd)"/><circle cx="39" cy="35" r="2" fill="#f9f9f9"/><path fill="#ccc" d="M15,11.5h18V22c0,0.552-0.448,1-1,1H16c-0.552,0-1-0.448-1-1V11.5z"/><linearGradient id="Pw1eOdn0VoMIGPrpbvHnCe" x1="26" x2="31" y1="643" y2="643" gradientTransform="matrix(1 0 0 -1 0 662)" gradientUnits="userSpaceOnUse"><stop offset="0" stop-color="#3079d6"/><stop offset="1" stop-color="#297cd2"/></linearGradient><path fill="url(#Pw1eOdn0VoMIGPrpbvHnCe)" d="M26,15h5v8h-5V15z"/><linearGradient id="Pw1eOdn0VoMIGPrpbvHnCf" x1="17" x2="24" y1="644.5" y2="644.5" gradientTransform="matrix(1 0 0 -1 0 662)" gradientUnits="userSpaceOnUse"><stop offset="0" stop-color="#3079d6"/><stop offset="1" stop-color="#297cd2"/></linearGradient><path fill="url(#Pw1eOdn0VoMIGPrpbvHnCf)" d="M17,15h7v5h-7V15z"/><path fill="#bf2336" d="M32,5H16c-0.55,0-1,0.45-1,1v1h18V6C33,5.45,32.55,5,32,5z"/><path fill="#bf2336" d="M32.5,10h-17L14,11v1c0,0.552,0.448,1,1,1h18c0.552,0,1-0.448,1-1v-1L32.5,10z"/><polygon fill="#c94f60" points="33,7 15,7 14,11 34,11"/></svg>