<svg xmlns="http://www.w3.org/2000/svg" viewBox="0 0 48 48"><linearGradient id="trGUAKycadU~Vxy84RVJIa" x1="5.888" x2="28.9" y1="3.469" y2="29.554" gradientUnits="userSpaceOnUse"><stop offset="0" stop-color="#5c65d6"/><stop offset=".999" stop-color="#464eb0"/></linearGradient><path fill="url(#trGUAKycadU~Vxy84RVJIa)" d="M47,17l-0.502,0.502C46.179,17.821,45.747,18,45.296,18H13v1H5.7C4.761,19,4,19.761,4,20.7v0	c0,0.199-0.035,0.395-0.103,0.582l-1.72,4.721L1.99,26.926L1,28v1l-0.464,1.476L0,31h31.804c0.717,0,1.357-0.45,1.6-1.125	l0.103-0.286l0.607-0.459L35,29l0.333-1.221c0.116-0.426,0.394-0.79,0.774-1.015l0.614-0.363c0.137-0.081,0.284-0.142,0.437-0.182	l0.427-0.111c0.271-0.071,0.521-0.207,0.727-0.398l1.097-1.016c0.148-0.137,0.32-0.247,0.507-0.324l1.16-0.478l0.297-0.516	L42.625,22H43v0.625L43.75,23l0.429-0.981C44.45,21.4,45.061,21,45.737,21H46l0.45-0.717c0.097-0.154,0.217-0.291,0.358-0.407	l0.41-0.338c0.248-0.204,0.432-0.475,0.533-0.78L48,18v-1H47z"/></svg>