<svg xmlns="http://www.w3.org/2000/svg" viewBox="0 0 48 48"><linearGradient id="GspqMBeEe8C9rSfYt5lqwa" x1="16.86" x2="29.576" y1="-637.533" y2="-677.546" gradientTransform="matrix(1 0 0 -1 0 -636)" gradientUnits="userSpaceOnUse"><stop offset="0" stop-color="#c77740"/><stop offset="1" stop-color="#b0622b"/></linearGradient><path fill="url(#GspqMBeEe8C9rSfYt5lqwa)" d="M38,4H26c0,1.105-0.895,2-2,2s-2-0.895-2-2H10C8.895,4,8,4.895,8,6v36c0,1.105,0.895,2,2,2h28	c1.105,0,2-0.895,2-2V6C40,4.895,39.105,4,38,4z"/><linearGradient id="GspqMBeEe8C9rSfYt5lqwb" x1="24" x2="24" y1="-672.966" y2="-676.893" gradientTransform="matrix(1 0 0 -1 0 -636)" gradientUnits="userSpaceOnUse"><stop offset=".442" stop-color="#878786"/><stop offset=".594" stop-color="#9f9f9e"/><stop offset=".859" stop-color="#c3c3c3"/><stop offset="1" stop-color="#d1d1d1"/></linearGradient><path fill="url(#GspqMBeEe8C9rSfYt5lqwb)" d="M37,42H11c-0.552,0-1-0.448-1-1v-9h28v9C38,41.552,37.552,42,37,42z"/><path fill="#f3f3f3" d="M37,40H11c-0.552,0-1-0.448-1-1V7c0-0.552,0.448-1,1-1h26c0.552,0,1,0.448,1,1v32	C38,39.552,37.552,40,37,40z"/><linearGradient id="GspqMBeEe8C9rSfYt5lqwc" x1="-1934.93" x2="-1933.046" y1="1534.928" y2="1527.091" gradientTransform="matrix(-1 0 0 1 -1910 -1525)" gradientUnits="userSpaceOnUse"><stop offset="0" stop-color="#c3cdd9"/><stop offset="1" stop-color="#9fa7b0"/></linearGradient><path fill="url(#GspqMBeEe8C9rSfYt5lqwc)" d="M31,8V4h-4.184C26.403,2.837,25.304,2,24,2s-2.403,0.837-2.816,2H17v4c0,0.552,0.448,1,1,1h12	C30.552,9,31,8.552,31,8z M24,4c0.552,0,1,0.448,1,1s-0.448,1-1,1s-1-0.448-1-1S23.448,4,24,4z"/><path fill="#195bbc" d="M33.5,18h-19c-0.276,0-0.5-0.224-0.5-0.5v-1c0-0.276,0.224-0.5,0.5-0.5h19c0.276,0,0.5,0.224,0.5,0.5	v1C34,17.776,33.776,18,33.5,18z"/><path fill="#195bbc" d="M29.5,22h-15c-0.276,0-0.5-0.224-0.5-0.5v-1c0-0.276,0.224-0.5,0.5-0.5h15c0.276,0,0.5,0.224,0.5,0.5	v1C30,21.776,29.776,22,29.5,22z"/><path fill="#195bbc" d="M33.5,26h-19c-0.276,0-0.5-0.224-0.5-0.5v-1c0-0.276,0.224-0.5,0.5-0.5h19c0.276,0,0.5,0.224,0.5,0.5	v1C34,25.776,33.776,26,33.5,26z"/><path fill="#195bbc" d="M33.5,34h-19c-0.276,0-0.5-0.224-0.5-0.5v-1c0-0.276,0.224-0.5,0.5-0.5h19c0.276,0,0.5,0.224,0.5,0.5	v1C34,33.776,33.776,34,33.5,34z"/><path fill="#195bbc" d="M29.5,30h-15c-0.276,0-0.5-0.224-0.5-0.5v-1c0-0.276,0.224-0.5,0.5-0.5h15c0.276,0,0.5,0.224,0.5,0.5	v1C30,29.776,29.776,30,29.5,30z"/><linearGradient id="GspqMBeEe8C9rSfYt5lqwd" x1="28" x2="48" y1="-600" y2="-600" gradientTransform="matrix(1 0 0 -1 0 -562)" gradientUnits="userSpaceOnUse"><stop offset="0" stop-color="#21ad64"/><stop offset="1" stop-color="#088242"/></linearGradient><circle cx="38" cy="38" r="10" fill="url(#GspqMBeEe8C9rSfYt5lqwd)"/><path fill="#fff" d="M38.5,43h-1c-0.276,0-0.5-0.224-0.5-0.5v-9c0-0.276,0.224-0.5,0.5-0.5h1c0.276,0,0.5,0.224,0.5,0.5v9	C39,42.776,38.776,43,38.5,43z"/><path fill="#fff" d="M33,38.5v-1c0-0.276,0.224-0.5,0.5-0.5h9c0.276,0,0.5,0.224,0.5,0.5v1c0,0.276-0.224,0.5-0.5,0.5h-9	C33.224,39,33,38.776,33,38.5z"/></svg>