<svg xmlns="http://www.w3.org/2000/svg" viewBox="0 0 48 48"><linearGradient id="KGWBjmx8KmtLR1VG_Yt~Oa" x1="8.663" x2="38.122" y1="8.059" y2="32.915" gradientUnits="userSpaceOnUse"><stop offset="0" stop-color="#a1aab3"/><stop offset="1" stop-color="#8f979e"/></linearGradient><path fill="url(#KGWBjmx8KmtLR1VG_Yt~Oa)" d="M41,35H7c-1.105,0-2-0.895-2-2V9c0-1.105,0.895-2,2-2h34c1.105,0,2,0.895,2,2v24	C43,34.105,42.105,35,41,35z"/><radialGradient id="KGWBjmx8KmtLR1VG_Yt~Ob" cx="152.516" cy="131.685" r="86.245" gradientTransform="matrix(.8095 0 0 .7188 -76.381 -35.719)" gradientUnits="userSpaceOnUse"><stop offset=".323" stop-color="#23d9d6"/><stop offset=".427" stop-color="#23d4d7"/><stop offset=".542" stop-color="#21c7dc"/><stop offset=".664" stop-color="#1fb0e2"/><stop offset=".789" stop-color="#1c91ec"/><stop offset=".917" stop-color="#1969f8"/><stop offset=".944" stop-color="#1860fb"/></radialGradient><rect width="34" height="24" x="7" y="9" fill="url(#KGWBjmx8KmtLR1VG_Yt~Ob)"/><linearGradient id="KGWBjmx8KmtLR1VG_Yt~Oc" x1="24" x2="24" y1="34.985" y2="42.014" gradientUnits="userSpaceOnUse"><stop offset="0" stop-color="#484b4f"/><stop offset=".23" stop-color="#656d75"/><stop offset=".367" stop-color="#727d86"/></linearGradient><path fill="url(#KGWBjmx8KmtLR1VG_Yt~Oc)" d="M33,38h-5v-3h-8v3h-5c-0.552,0-1,0.448-1,1v2c0,0.552,0.448,1,1,1h18c0.552,0,1-0.448,1-1v-2	C34,38.448,33.552,38,33,38z"/><path d="M24,14.5v5c0,0.828,0.672,1.5,1.5,1.5h5c0.828,0,1.5-0.672,1.5-1.5v-5c0-0.828-0.672-1.5-1.5-1.5h-5	C24.672,13,24,13.672,24,14.5z" opacity=".05"/><path d="M30.5,20.5h-5c-0.552,0-1-0.448-1-1v-5c0-0.552,0.448-1,1-1h5c0.552,0,1,0.448,1,1v5	C31.5,20.052,31.052,20.5,30.5,20.5z" opacity=".07"/><path d="M16,14.5v5c0,0.828,0.672,1.5,1.5,1.5h5c0.828,0,1.5-0.672,1.5-1.5v-5c0-0.828-0.672-1.5-1.5-1.5h-5	C16.672,13,16,13.672,16,14.5z" opacity=".05"/><path d="M22.5,20.5h-5c-0.552,0-1-0.448-1-1v-5c0-0.552,0.448-1,1-1h5c0.552,0,1,0.448,1,1v5	C23.5,20.052,23.052,20.5,22.5,20.5z" opacity=".07"/><path d="M16,22.5v5c0,0.828,0.672,1.5,1.5,1.5h5c0.828,0,1.5-0.672,1.5-1.5v-5c0-0.828-0.672-1.5-1.5-1.5h-5	C16.672,21,16,21.672,16,22.5z" opacity=".05"/><path d="M22.5,28.5h-5c-0.552,0-1-0.448-1-1v-5c0-0.552,0.448-1,1-1h5c0.552,0,1,0.448,1,1v5	C23.5,28.052,23.052,28.5,22.5,28.5z" opacity=".07"/><path d="M24,22.5v5c0,0.828,0.672,1.5,1.5,1.5h5c0.828,0,1.5-0.672,1.5-1.5v-5c0-0.828-0.672-1.5-1.5-1.5h-5	C24.672,21,24,21.672,24,22.5z" opacity=".05"/><path d="M30.5,28.5h-5c-0.552,0-1-0.448-1-1v-5c0-0.552,0.448-1,1-1h5c0.552,0,1,0.448,1,1v5	C31.5,28.052,31.052,28.5,30.5,28.5z" opacity=".07"/><path fill="#fff" d="M22.5,20h-5c-0.276,0-0.5-0.224-0.5-0.5v-5c0-0.276,0.224-0.5,0.5-0.5h5c0.276,0,0.5,0.224,0.5,0.5v5	C23,19.776,22.776,20,22.5,20z"/><path fill="#fff" d="M22.5,28h-5c-0.276,0-0.5-0.224-0.5-0.5v-5c0-0.276,0.224-0.5,0.5-0.5h5c0.276,0,0.5,0.224,0.5,0.5v5	C23,27.776,22.776,28,22.5,28z"/><path fill="#fff" d="M30.5,28h-5c-0.276,0-0.5-0.224-0.5-0.5v-5c0-0.276,0.224-0.5,0.5-0.5h5c0.276,0,0.5,0.224,0.5,0.5v5	C31,27.776,30.776,28,30.5,28z"/><path fill="#fff" d="M30.5,20h-5c-0.276,0-0.5-0.224-0.5-0.5v-5c0-0.276,0.224-0.5,0.5-0.5h5c0.276,0,0.5,0.224,0.5,0.5v5	C31,19.776,30.776,20,30.5,20z"/></svg>