<svg xmlns="http://www.w3.org/2000/svg" viewBox="0 0 48 48"><linearGradient id="boIFUThi4zwSe5YlsWzwya" x1="17.931" x2="26.758" y1="10.922" y2="29.944" gradientUnits="userSpaceOnUse"><stop offset="0" stop-color="#1fa3e5"/><stop offset="1" stop-color="#007ad9"/></linearGradient><path fill="url(#boIFUThi4zwSe5YlsWzwya)" d="M24,10c-7.72,0-14,6.28-14,14s6.28,14,14,14s14-6.28,14-14S31.72,10,24,10z M24,34 c-5.514,0-10-4.486-10-10s4.486-10,10-10s10,4.486,10,10S29.514,34,24,34z M24,17c-3.86,0-7,3.141-7,7s3.14,7,7,7s7-3.141,7-7 S27.86,17,24,17z M24,27c-1.654,0-3-1.346-3-3s1.346-3,3-3s3,1.346,3,3S25.654,27,24,27z"/><circle cx="24" cy="5" r="2" fill="#35c1f1"/><circle cx="24" cy="43" r="2" fill="#35c1f1"/><circle cx="5" cy="24" r="2" fill="#35c1f1"/><circle cx="43" cy="24" r="2" fill="#35c1f1"/><path fill="#35c1f1" d="M36.021,9.151c-0.781,0.781-0.781,2.047,0,2.828c0.781,0.781,2.047,0.781,2.828,0 c0.781-0.781,0.781-2.047,0-2.828C38.068,8.37,36.802,8.37,36.021,9.151z"/><path fill="#35c1f1" d="M9.151,36.021c-0.781,0.781-0.781,2.047,0,2.828c0.781,0.781,2.047,0.781,2.828,0 c0.781-0.781,0.781-2.047,0-2.828S9.932,35.24,9.151,36.021z"/><path fill="#35c1f1" d="M36.021,36.021c-0.781,0.781-0.781,2.047,0,2.828c0.781,0.781,2.047,0.781,2.828,0 c0.781-0.781,0.781-2.047,0-2.828S36.802,35.24,36.021,36.021z"/><path fill="#35c1f1" d="M9.151,9.151c-0.781,0.781-0.781,2.047,0,2.828c0.781,0.781,2.047,0.781,2.828,0 c0.781-0.781,0.781-2.047,0-2.828C11.198,8.37,9.932,8.37,9.151,9.151z"/><path fill="#35c1f1" d="M32.216,4.674c-1.017-0.432-2.191,0.042-2.623,1.058c-0.432,1.017,0.042,2.191,1.058,2.623 c1.017,0.432,2.191-0.042,2.623-1.058C33.706,6.281,33.233,5.106,32.216,4.674z"/><path fill="#35c1f1" d="M17.349,39.645c-1.017-0.432-2.191,0.042-2.623,1.058c-0.432,1.017,0.042,2.191,1.058,2.623 s2.191-0.042,2.623-1.058C18.839,41.251,18.365,40.077,17.349,39.645z"/><path fill="#35c1f1" d="M42.294,18.493c1.019-0.427,1.498-1.599,1.07-2.618c-0.427-1.019-1.599-1.498-2.618-1.071 c-1.019,0.427-1.498,1.6-1.07,2.618C40.103,18.441,41.276,18.921,42.294,18.493z"/><path fill="#35c1f1" d="M5.706,29.507c-1.019,0.427-1.498,1.599-1.07,2.618c0.427,1.019,1.599,1.498,2.618,1.071 c1.019-0.427,1.498-1.6,1.07-2.618C7.897,29.559,6.724,29.079,5.706,29.507z"/><path fill="#35c1f1" d="M15.784,4.674c-1.017,0.432-1.49,1.607-1.058,2.623c0.432,1.017,1.607,1.49,2.623,1.058 c1.016-0.432,1.49-1.607,1.058-2.623C17.975,4.716,16.8,4.242,15.784,4.674z"/><path fill="#35c1f1" d="M30.651,39.645c-1.016,0.432-1.49,1.607-1.058,2.623c0.432,1.017,1.607,1.49,2.623,1.058 s1.49-1.606,1.058-2.623C32.842,39.686,31.668,39.213,30.651,39.645z"/><path fill="#35c1f1" d="M7.253,14.805c-1.019-0.427-2.191,0.052-2.618,1.071c-0.427,1.019,0.052,2.191,1.07,2.618 c1.019,0.427,2.191-0.052,2.618-1.07C8.751,16.404,8.272,15.232,7.253,14.805z"/><path fill="#35c1f1" d="M42.294,29.507c-1.019-0.427-2.191,0.052-2.618,1.07c-0.427,1.019,0.052,2.191,1.07,2.618 c1.019,0.427,2.191-0.052,2.618-1.071C43.792,31.106,43.313,29.934,42.294,29.507z"/></svg>