<svg xmlns="http://www.w3.org/2000/svg" viewBox="0 0 48 48"><linearGradient id="IRWvSBfmXWvGZvskgqMzJa" x1="19.68" x2="37.505" y1="2.68" y2="20.505" gradientUnits="userSpaceOnUse"><stop offset="0" stop-color="#1d59b3"/><stop offset="1" stop-color="#195bbc"/></linearGradient><path fill="url(#IRWvSBfmXWvGZvskgqMzJa)" d="M43,15H15c-1.1,0-2-0.9-2-2v-2c0-1.1,0.9-2,2-2h28c1.1,0,2,0.9,2,2v2C45,14.1,44.1,15,43,15z"/><linearGradient id="IRWvSBfmXWvGZvskgqMzJb" x1="3.477" x2="8.302" y1="9.477" y2="14.302" gradientUnits="userSpaceOnUse"><stop offset=".003" stop-color="#42a3f2"/><stop offset="1" stop-color="#42a4eb"/></linearGradient><path fill="url(#IRWvSBfmXWvGZvskgqMzJb)" d="M7,15H5c-1.1,0-2-0.9-2-2v-2c0-1.1,0.9-2,2-2h2c1.1,0,2,0.9,2,2v2C9,14.1,8.1,15,7,15z"/><linearGradient id="IRWvSBfmXWvGZvskgqMzJc" x1="19.68" x2="37.505" y1="14.68" y2="32.505" gradientUnits="userSpaceOnUse"><stop offset="0" stop-color="#1d59b3"/><stop offset="1" stop-color="#195bbc"/></linearGradient><path fill="url(#IRWvSBfmXWvGZvskgqMzJc)" d="M43,27H15c-1.1,0-2-0.9-2-2v-2c0-1.1,0.9-2,2-2h28c1.1,0,2,0.9,2,2v2C45,26.1,44.1,27,43,27z"/><linearGradient id="IRWvSBfmXWvGZvskgqMzJd" x1="3.477" x2="8.302" y1="21.477" y2="26.302" gradientUnits="userSpaceOnUse"><stop offset="0" stop-color="#42a3f2"/><stop offset="1" stop-color="#42a4eb"/></linearGradient><path fill="url(#IRWvSBfmXWvGZvskgqMzJd)" d="M7,27H5c-1.1,0-2-0.9-2-2v-2c0-1.1,0.9-2,2-2h2c1.1,0,2,0.9,2,2v2C9,26.1,8.1,27,7,27z"/><linearGradient id="IRWvSBfmXWvGZvskgqMzJe" x1="19.68" x2="37.505" y1="26.68" y2="44.505" gradientUnits="userSpaceOnUse"><stop offset="0" stop-color="#1d59b3"/><stop offset="1" stop-color="#195bbc"/></linearGradient><path fill="url(#IRWvSBfmXWvGZvskgqMzJe)" d="M43,39H15c-1.1,0-2-0.9-2-2v-2c0-1.1,0.9-2,2-2h28c1.1,0,2,0.9,2,2v2C45,38.1,44.1,39,43,39z"/><linearGradient id="IRWvSBfmXWvGZvskgqMzJf" x1="3.477" x2="8.302" y1="33.477" y2="38.302" gradientUnits="userSpaceOnUse"><stop offset="0" stop-color="#42a3f2"/><stop offset="1" stop-color="#42a4eb"/></linearGradient><path fill="url(#IRWvSBfmXWvGZvskgqMzJf)" d="M7,39H5c-1.1,0-2-0.9-2-2v-2c0-1.1,0.9-2,2-2h2c1.1,0,2,0.9,2,2v2C9,38.1,8.1,39,7,39z"/><linearGradient id="IRWvSBfmXWvGZvskgqMzJg" x1="28" x2="48" y1="38" y2="38" gradientUnits="userSpaceOnUse"><stop offset="0" stop-color="#21ad64"/><stop offset="1" stop-color="#088242"/></linearGradient><circle cx="38" cy="38" r="10" fill="url(#IRWvSBfmXWvGZvskgqMzJg)"/><path fill="#fff" d="M38.5,43h-1c-0.276,0-0.5-0.224-0.5-0.5v-9c0-0.276,0.224-0.5,0.5-0.5h1c0.276,0,0.5,0.224,0.5,0.5v9	C39,42.776,38.776,43,38.5,43z"/><path fill="#fff" d="M33,38.5v-1c0-0.276,0.224-0.5,0.5-0.5h9c0.276,0,0.5,0.224,0.5,0.5v1c0,0.276-0.224,0.5-0.5,0.5h-9	C33.224,39,33,38.776,33,38.5z"/></svg>