<svg xmlns="http://www.w3.org/2000/svg" viewBox="0 0 48 48"><linearGradient id="2K55mH5SnLcpa35czvAJDa" x1="9.449" x2="40.597" y1="5.091" y2="36.239" gradientTransform="rotate(45.001 24.01 19.637)" gradientUnits="userSpaceOnUse"><stop offset="0" stop-color="#21ad64"/><stop offset="1" stop-color="#088242"/></linearGradient><path fill="url(#2K55mH5SnLcpa35czvAJDa)" d="M23.818,6.182L6.19,23.81c-1.574,1.574-1.574,4.126,0,5.7l12.3,12.3 c1.574,1.574,4.126,1.574,5.7,0l17.628-17.628c0.75-0.75,1.172-1.768,1.172-2.828V9.01c0-2.2-1.8-4-4-4l-12.343,0 C25.586,5.01,24.569,5.431,23.818,6.182z M36.99,13.01c-1.1,0-2-0.9-2-2s0.9-2,2-2c1.1,0,2,0.9,2,2S38.09,13.01,36.99,13.01"/><path d="M16.163,31.363c-0.517-0.517-0.517-1.357,0-1.874l0.544-0.544c-0.592-0.819-1.122-1.752-1.449-2.565 c-0.262-0.65-0.113-1.388,0.379-1.88l1.096-1.096c0.554-0.554,1.455-0.556,2.008-0.002c0.157,0.157,0.276,0.352,0.345,0.564 c0.139,0.432,0.681,1.927,1.844,3.09c0.798,0.798,1.044,0.553,1.148,0.448c0.267-0.267-0.243-1.379-0.616-2.19 c-0.873-1.9-2.191-4.769,0.288-7.247c1.761-1.761,4.109-1.941,6.348-0.513l0.474-0.474c0.517-0.517,1.357-0.517,1.874,0l0.46,0.46 c0.517,0.517,0.517,1.357,0,1.874l-0.395,0.395c0.553,0.668,0.948,1.28,1.204,1.861c0.293,0.666,0.112,1.419-0.483,2.014 l-0.962,0.962c-0.553,0.553-1.453,0.552-2.007-0.002c-0.151-0.151-0.263-0.328-0.335-0.529c-0.195-0.54-0.659-1.582-1.566-2.489 c-0.798-0.798-1.065-0.532-1.165-0.431c-0.34,0.34,0.001,1.198,0.561,2.468c0.869,1.974,2.061,4.677-0.294,7.031 c-1.354,1.354-3.811,2.268-6.409,0.574l-0.557,0.557c-0.517,0.517-1.357,0.517-1.874,0L16.163,31.363z" opacity=".05"/><path d="M16.517,31.009c-0.321-0.321-0.321-0.845,0-1.167l0.851-0.851c-0.669-0.857-1.282-1.895-1.646-2.798 c-0.187-0.464-0.081-0.99,0.269-1.34l1.096-1.096c0.359-0.359,0.943-0.36,1.301-0.002c0.101,0.101,0.178,0.227,0.222,0.365 c0.147,0.458,0.725,2.048,1.966,3.289c1.152,1.152,1.681,0.622,1.855,0.448c0.479-0.479,0.125-1.359-0.515-2.752 c-0.863-1.879-2.046-4.453,0.187-6.685c1.969-1.969,4.351-1.446,6.057-0.222l0.766-0.766c0.322-0.322,0.845-0.322,1.167,0 l0.46,0.46c0.321,0.321,0.321,0.845,0,1.167l-0.722,0.722c0.679,0.769,1.148,1.455,1.426,2.089c0.21,0.478,0.072,1.01-0.378,1.46 l-0.962,0.962c-0.358,0.358-0.941,0.357-1.3-0.002c-0.097-0.097-0.171-0.213-0.219-0.345c-0.21-0.58-0.707-1.698-1.683-2.674 c-0.764-0.764-1.394-0.909-1.872-0.431c-0.578,0.578-0.203,1.525,0.457,3.023c0.857,1.944,1.922,4.364-0.19,6.476 c-1.303,1.303-3.651,2.106-6.113,0.278l-0.853,0.853c-0.322,0.322-0.845,0.322-1.167,0L16.517,31.009z" opacity=".07"/><path fill="#fff" d="M24.756,29.985c3.308-3.308-2.222-7.545-0.267-9.499c1.02-1.02,2.221,0.073,2.58,0.431 c0.862,0.862,1.462,1.925,1.8,2.857c0.106,0.294,0.474,0.384,0.695,0.163l0.962-0.962c0.322-0.322,0.392-0.636,0.274-0.905 c-0.266-0.604-0.767-1.352-1.66-2.306l1.059-1.059c0.127-0.127,0.127-0.333,0-0.46l-0.46-0.46c-0.127-0.127-0.332-0.127-0.46,0 l-1.076,1.076c-1.573-1.293-3.866-1.969-5.747-0.088c-3.429,3.429,2.135,7.632,0.329,9.438c-0.568,0.568-1.42,0.694-2.563-0.448 c-1.149-1.149-1.804-2.606-2.089-3.489c-0.096-0.297-0.474-0.383-0.694-0.163l-1.095,1.095c-0.21,0.21-0.27,0.523-0.159,0.8 c0.398,0.986,1.104,2.138,1.855,3.019l-1.17,1.17c-0.127,0.127-0.127,0.333,0,0.46l0.46,0.46c0.127,0.127,0.333,0.127,0.46,0 l1.168-1.168C21.28,31.912,23.489,31.251,24.756,29.985z"/></svg>