<svg xmlns="http://www.w3.org/2000/svg" data-name="Слой 1" viewBox="0 0 48 48"><defs><linearGradient id="pNd1XvNw~8JJS3jkI_bQTa" x1="22.798" x2="34.293" y1="10.564" y2="7.042" data-name="Безымянный градиент 147" gradientUnits="userSpaceOnUse"><stop offset="0" stop-color="#dfe9f2"/><stop offset=".391" stop-color="#d6e0e9"/><stop offset="1" stop-color="#bfc8d1"/></linearGradient><linearGradient id="pNd1XvNw~8JJS3jkI_bQTb" x1="15.087" x2="32.223" y1="8.985" y2="56.064" data-name="Безымянный градиент 100" gradientUnits="userSpaceOnUse"><stop offset="0" stop-color="#21ad64"/><stop offset="1" stop-color="#088242"/></linearGradient><linearGradient id="pNd1XvNw~8JJS3jkI_bQTc" x1="36.244" x2="39.035" y1="2.344" y2="10.012" data-name="Безымянный градиент 260" gradientUnits="userSpaceOnUse"><stop offset="0" stop-color="#2aa4f4"/><stop offset=".595" stop-color="#0f80e3"/><stop offset="1" stop-color="#006dd9"/></linearGradient></defs><path fill="url(#pNd1XvNw~8JJS3jkI_bQTa)" d="M21.97913,8.22026l9.696-2.76211a.5.5,0,0,1,.5934.2767l.46295,1.03493a.5.5,0,0,1-.18921.62678l-8.5214,5.38779Z"/><path fill="url(#pNd1XvNw~8JJS3jkI_bQTb)" d="M36,44.0023H6v-5H36a1,1,0,0,0,0-2H12a6,6,0,0,1,0-12H36a1,1,0,0,0,0-2H10.82422a4.82441,4.82441,0,0,1-1.63086-9.36474L21.53027,8.4481l1.93946,4.6084L11.71191,18.0023H36a6,6,0,0,1,0,12H12a1,1,0,1,0,0,2H36a6,6,0,0,1,0,12Z"/><path fill="#64717c" d="M24,14.00279a1.00088,1.00088,0,0,1-.92187-.6123l-2-4.75a1.00027,1.00027,0,0,1,1.84375-.77637l2,4.75A1.00111,1.00111,0,0,1,24,14.00279Z"/><path fill="url(#pNd1XvNw~8JJS3jkI_bQTc)" d="M38.66667,3.669a2.33334,2.33334,0,0,1,0,4.66667C37.37828,8.33564,34,6.0023,34,6.0023S37.37828,3.669,38.66667,3.669Z"/></svg>