<svg xmlns="http://www.w3.org/2000/svg" viewBox="0 0 48 48"><linearGradient id="MvZDxG_ZyQQTyiDl2ey~Na" x1="21.669" x2="25.51" y1="12.993" y2="34.901" gradientUnits="userSpaceOnUse"><stop offset="0" stop-color="#2aa4f4"/><stop offset="1" stop-color="#007ad9"/></linearGradient><path fill="url(#MvZDxG_ZyQQTyiDl2ey~Na)" d="M37,19l-5.453-7.522C30.418,9.922,28.612,9,26.689,9H9.325c-2.069,0-3.992,1.066-5.088,2.82	l-3.629,5.807C0.211,18.263,0,18.998,0,19.747v9.146c0,2.387,1.687,4.441,4.028,4.905L8.08,34.6h35.04l2.127-0.698	C46.89,33.363,48,31.83,48,30.101v-6.598c0-1.45-1.037-2.692-2.463-2.952L37,19z"/><path fill="#586169" d="M44,34.5c0,3.037-2.462,5.5-5.5,5.5S33,37.537,33,34.5s2.462-5.5,5.5-5.5S44,31.463,44,34.5"/><path fill="#999" d="M41,34.5c0,1.381-1.119,2.5-2.5,2.5S36,35.881,36,34.5s1.119-2.5,2.5-2.5S41,33.119,41,34.5"/><path fill="#586169" d="M18,34.5c0,3.037-2.463,5.5-5.5,5.5S7,37.537,7,34.5S9.463,29,12.5,29S18,31.463,18,34.5"/><path fill="#999" d="M15,34.5c0,1.381-1.119,2.5-2.5,2.5S10,35.881,10,34.5s1.119-2.5,2.5-2.5S15,33.119,15,34.5"/><linearGradient id="MvZDxG_ZyQQTyiDl2ey~Nb" x1="26.029" x2="26.883" y1="11.902" y2="18.254" gradientUnits="userSpaceOnUse"><stop offset="0" stop-color="#0d61a9"/><stop offset="1" stop-color="#16528c"/></linearGradient><path fill="url(#MvZDxG_ZyQQTyiDl2ey~Nb)" d="M22,19h10.57c0.817,0,1.289-0.926,0.81-1.587l-3.451-4.761C29.175,11.614,27.971,11,26.689,11	H22c-1.105,0-2,0.895-2,2v4C20,18.105,20.895,19,22,19z"/><linearGradient id="MvZDxG_ZyQQTyiDl2ey~Nc" x1="9.984" x2="10.781" y1="12.24" y2="18.167" gradientUnits="userSpaceOnUse"><stop offset="0" stop-color="#0d61a9"/><stop offset="1" stop-color="#16528c"/></linearGradient><path fill="url(#MvZDxG_ZyQQTyiDl2ey~Nc)" d="M15,11H9.324c-1.378,0-2.659,0.709-3.39,1.878l-1.916,3.061C3.183,17.271,4.141,19,5.712,19	H15c1.105,0,2-0.895,2-2v-4C17,11.895,16.105,11,15,11z"/></svg>