<svg xmlns="http://www.w3.org/2000/svg" viewBox="0 0 48 48"><polygon fill="#ff8f6b" points="24,6 5,13 43,13"/><path fill="#d1502a" d="M1,40h46v-2c0-0.552-0.448-1-1-1H2c-0.552,0-1,0.448-1,1V40z"/><path fill="#f07754" d="M6,40h36v-2c0-0.552-0.448-1-1-1H7c-0.552,0-1,0.448-1,1V40z"/><path fill="#e3623d" d="M3,37h42v-2c0-0.552-0.448-1-1-1H4c-0.552,0-1,0.448-1,1V37z"/><path fill="#ff8f6b" d="M8,37h32v-2c0-0.552-0.448-1-1-1H9c-0.552,0-1,0.448-1,1V37z"/><path fill="#ed6c47" d="M43,14H5c-0.484,0-0.899-0.348-0.984-0.824c-0.085-0.478,0.184-0.946,0.639-1.114l19-7	c0.223-0.082,0.469-0.082,0.691,0l19,7c0.455,0.168,0.724,0.637,0.639,1.114C43.899,13.652,43.484,14,43,14z M10.607,12h26.786	L24,7.065L10.607,12z"/><circle cx="24" cy="10" r="1" fill="#b63016"/><rect width="28" height="20" x="10" y="14" fill="#b63016"/><rect width="4" height="16" x="27" y="16" fill="#ed6c47"/><rect width="4" height="16" x="37" y="16" fill="#ed6c47"/><rect width="4" height="16" x="17" y="16" fill="#ed6c47"/><rect width="4" height="16" x="7" y="16" fill="#ed6c47"/><path fill="#ed6c47" d="M31,32h-4c-0.552,0-1,0.448-1,1v1h6v-1C32,32.448,31.552,32,31,32z"/><path fill="#ed6c47" d="M41,32h-4c-0.552,0-1,0.448-1,1v1h6v-1C42,32.448,41.552,32,41,32z"/><path fill="#ed6c47" d="M21,32h-4c-0.552,0-1,0.448-1,1v1h6v-1C22,32.448,21.552,32,21,32z"/><path fill="#ed6c47" d="M11,32H7c-0.552,0-1,0.448-1,1v1h6v-1C12,32.448,11.552,32,11,32z"/><path fill="#ff8f6b" d="M32,14h-6v1c0,0.552,0.448,1,1,1h4c0.552,0,1-0.448,1-1V14z"/><path fill="#ff8f6b" d="M42,14h-6v1c0,0.552,0.448,1,1,1h4c0.552,0,1-0.448,1-1V14z"/><path fill="#ff8f6b" d="M22,14h-6v1c0,0.552,0.448,1,1,1h4c0.552,0,1-0.448,1-1V14z"/><path fill="#ff8f6b" d="M12,14H6v1c0,0.552,0.448,1,1,1h4c0.552,0,1-0.448,1-1V14z"/></svg>