<svg xmlns="http://www.w3.org/2000/svg" viewBox="0 0 48 48"><linearGradient id="Nlj7zh9zWU6gJYC0FTklwa" x1="19" x2="19" y1="-840.333" y2="-862.785" gradientTransform="matrix(1 0 0 -1 0 -834)" gradientUnits="userSpaceOnUse"><stop offset="0" stop-color="#889097"/><stop offset="1" stop-color="#455a64"/></linearGradient><path fill="url(#Nlj7zh9zWU6gJYC0FTklwa)" d="M33,6H5C3.895,6,3,6.895,3,8v18c0,1.105,0.895,2,2,2h28c1.105,0,2-0.895,2-2V8 C35,6.895,34.105,6,33,6z"/><radialGradient id="Nlj7zh9zWU6gJYC0FTklwb" cx="20" cy="-851.5" r="9" gradientTransform="matrix(1 0 0 -1 0 -834)" gradientUnits="userSpaceOnUse"><stop offset=".786" stop-opacity=".2"/><stop offset="1" stop-opacity="0"/></radialGradient><circle cx="20" cy="17.5" r="9" fill="url(#Nlj7zh9zWU6gJYC0FTklwb)"/><circle cx="20" cy="17" r="7" fill="#fff"/><radialGradient id="Nlj7zh9zWU6gJYC0FTklwc" cx="16.563" cy="-847.596" r="10.324" gradientTransform="matrix(1 0 0 -1 0 -834)" gradientUnits="userSpaceOnUse"><stop offset="0" stop-color="#bd8af5"/><stop offset=".137" stop-color="#b88bf5"/><stop offset=".309" stop-color="#a88ff3"/><stop offset=".499" stop-color="#8f96f2"/><stop offset=".702" stop-color="#6b9eef"/><stop offset=".913" stop-color="#3eaaec"/><stop offset="1" stop-color="#29afea"/></radialGradient><circle cx="20" cy="17" r="5" fill="url(#Nlj7zh9zWU6gJYC0FTklwc)"/><circle cx="30.5" cy="10.5" r="1.5" fill="#eef2f3"/><path d="M35,28v-9H15c-1.654,0-3,1.346-3,3v6H35z" opacity=".05"/><path d="M35,28v-8.5H15c-1.379,0-2.5,1.121-2.5,2.5v6H35z" opacity=".07"/><linearGradient id="Nlj7zh9zWU6gJYC0FTklwd" x1="29" x2="29" y1="-854.333" y2="-876.785" gradientTransform="matrix(1 0 0 -1 0 -834)" gradientUnits="userSpaceOnUse"><stop offset="0" stop-color="#889097"/><stop offset="1" stop-color="#455a64"/></linearGradient><path fill="url(#Nlj7zh9zWU6gJYC0FTklwd)" d="M43,20H15c-1.105,0-2,0.895-2,2v18c0,1.105,0.895,2,2,2h28c1.105,0,2-0.895,2-2V22 C45,20.895,44.105,20,43,20z"/><radialGradient id="Nlj7zh9zWU6gJYC0FTklwe" cx="30" cy="-865.5" r="9" gradientTransform="matrix(1 0 0 -1 0 -834)" gradientUnits="userSpaceOnUse"><stop offset=".786" stop-opacity=".2"/><stop offset="1" stop-opacity="0"/></radialGradient><circle cx="30" cy="31.5" r="9" fill="url(#Nlj7zh9zWU6gJYC0FTklwe)"/><circle cx="30" cy="31" r="7" fill="#fff"/><radialGradient id="Nlj7zh9zWU6gJYC0FTklwf" cx="26.563" cy="-861.596" r="10.324" gradientTransform="matrix(1 0 0 -1 0 -834)" gradientUnits="userSpaceOnUse"><stop offset="0" stop-color="#bd8af5"/><stop offset=".137" stop-color="#b88bf5"/><stop offset=".309" stop-color="#a88ff3"/><stop offset=".499" stop-color="#8f96f2"/><stop offset=".702" stop-color="#6b9eef"/><stop offset=".913" stop-color="#3eaaec"/><stop offset="1" stop-color="#29afea"/></radialGradient><circle cx="30" cy="31" r="5" fill="url(#Nlj7zh9zWU6gJYC0FTklwf)"/><circle cx="40.5" cy="24.5" r="1.5" fill="#eef2f3"/></svg>