<svg xmlns="http://www.w3.org/2000/svg" viewBox="0 0 48 48"><linearGradient id="0qT2szBhzZ71HanvoYlAfa" x1="7.808" x2="26.192" y1="-25.808" y2="-44.192" gradientTransform="matrix(1 0 0 -1 0 -18)" gradientUnits="userSpaceOnUse"><stop offset="0" stop-color="#21ad64"/><stop offset="1" stop-color="#088242"/></linearGradient><path fill="url(#0qT2szBhzZ71HanvoYlAfa)" d="M30,17c0,7.179-5.821,13-13,13S4,24.179,4,17S9.821,4,17,4S30,9.821,30,17z"/><path d="M15.52,13.522c0-0.577,0.498-0.869,1.48-0.869	c1.352,0,2.47,0.43,3.016,0.686c0.339,0.159,1.534,0.381,1.534-0.964v-1.362c0-0.997-0.602-1.339-0.86-1.44	c-0.629-0.244-1.415-0.399-2.39-0.468v-0.88c0-0.538-0.437-0.975-0.975-0.975h-0.65c-0.538,0-0.975,0.437-0.975,0.975v0.957	c-2.091,0.382-4.126,1.742-4.126,4.566c0,5.651,6.906,5.164,6.906,6.441c0,0.231,0,0.845-1.48,0.845	c-1.718,0-3.227-0.703-3.648-0.919c-0.332-0.17-1.552-0.294-1.552,0.955v1.549c0,0.556,0.333,1.057,0.848,1.276	c0.872,0.37,1.996,0.666,3.052,0.808v1.072c0,0.538,0.437,0.975,0.975,0.975h0.65c0.538,0,0.975-0.437,0.975-0.975v-1.078	c3.032-0.504,4.126-2.769,4.126-4.647C22.426,14.531,15.52,15.407,15.52,13.522z" opacity=".05"/><path d="M15.195,13.522c0-1.01,1.06-1.194,1.805-1.194	c1.285,0,2.433,0.378,3.154,0.717c0.311,0.146,1.071,0.159,1.071-0.67v-1.361c0-0.727-0.387-1.033-0.653-1.137	c-0.622-0.242-1.456-0.406-2.597-0.462v-1.19c0-0.359-0.291-0.65-0.65-0.65h-0.65c-0.359,0-0.65,0.291-0.65,0.65v1.24	c-2.058,0.29-4.126,1.542-4.126,4.284c0,5.25,6.906,4.526,6.906,6.441c0,0.517-0.256,1.17-1.805,1.17	c-1.672,0-3.172-0.635-3.796-0.954c-0.305-0.156-1.079-0.115-1.079,0.666v1.549c0,0.427,0.256,0.809,0.65,0.977	c0.925,0.393,2.144,0.698,3.25,0.815v1.364c0,0.359,0.291,0.65,0.65,0.65h0.65c0.359,0,0.65-0.291,0.65-0.65V24.41	c3.031-0.379,4.126-2.526,4.126-4.36C22.101,14.952,15.195,15.847,15.195,13.522z" opacity=".07"/><path fill="#fff" d="M21.776,20.05c0-4.678-6.906-3.764-6.906-6.528c0-1.443,1.622-1.519,2.129-1.519	c1.219,0,2.395,0.327,3.293,0.748c0.283,0.133,0.607-0.064,0.607-0.376v-1.361c0-0.456-0.172-0.727-0.446-0.834	c-0.615-0.239-1.498-0.414-2.804-0.457V8.225c0-0.18-0.146-0.325-0.325-0.325h-0.65c-0.179,0-0.325,0.145-0.325,0.325v1.522	c-2.026,0.198-4.126,1.341-4.126,4.001c0,4.849,6.906,3.887,6.906,6.441c0,0.803-0.513,1.495-2.129,1.495	c-1.625,0-3.118-0.567-3.944-0.99c-0.278-0.142-0.606,0.064-0.606,0.376v1.549c0,0.297,0.179,0.561,0.453,0.678	c0.979,0.416,2.292,0.731,3.447,0.823v1.655c0,0.179,0.146,0.325,0.325,0.325h0.65c0.179,0,0.325-0.146,0.325-0.325v-1.652	C20.681,23.87,21.776,21.841,21.776,20.05z"/><radialGradient id="0qT2szBhzZ71HanvoYlAfb" cx="31.003" cy="-49.05" r="15.056" gradientTransform="matrix(1 0 0 -1 0 -18)" gradientUnits="userSpaceOnUse"><stop offset="0"/><stop offset="1" stop-opacity="0"/></radialGradient><path fill="url(#0qT2szBhzZ71HanvoYlAfb)" d="M16.053,29.952C16.367,29.975,16.68,30,17,30c7.179,0,13-5.821,13-13	c0-0.32-0.025-0.633-0.048-0.947C22.507,16.569,16.569,22.507,16.053,29.952z"/><linearGradient id="0qT2szBhzZ71HanvoYlAfc" x1="25.151" x2="37.23" y1="-37.621" y2="-61.121" gradientTransform="matrix(1 0 0 -1 0 -18)" gradientUnits="userSpaceOnUse"><stop offset="0" stop-color="#fed100"/><stop offset="1" stop-color="#e36001"/></linearGradient><path fill="url(#0qT2szBhzZ71HanvoYlAfc)" d="M44,31c0,7.179-5.821,13-13,13s-13-5.821-13-13s5.821-13,13-13S44,23.821,44,31z"/><path fill="#64717c" d="M39,17c-0.552,0-1-0.447-1-1v-3c0-1.654-1.346-3-3-3h-3c-0.552,0-1-0.447-1-1s0.448-1,1-1h3	c2.757,0,5,2.243,5,5v3C40,16.553,39.552,17,39,17z"/><path d="M37.198,30.92c-0.246-0.253-0.518-0.475-0.813-0.664c0.155-0.138,0.302-0.286,0.44-0.443	c0.65-0.74,1.008-1.693,1.007-2.682c0-1.408-0.604-2.565-1.748-3.347c-0.497-0.339-1.085-0.593-1.784-0.77v-0.79	c0-0.73-0.595-1.324-1.325-1.324h-0.649c-0.51,0-0.954,0.289-1.176,0.713c-0.221-0.424-0.665-0.713-1.175-0.713h-0.649	c-0.73,0-1.325,0.594-1.325,1.324v0.49h-0.541c-1.103,0-2,0.897-2,2v12.584c0,1.103,0.897,2,2,2h0.542v0.477	c0,0.73,0.595,1.324,1.325,1.324h0.649c0.51,0,0.954-0.29,1.175-0.713c0.222,0.423,0.666,0.713,1.176,0.713h0.649	c0.73,0,1.325-0.594,1.325-1.324v-0.742c0.895-0.23,1.669-0.61,2.311-1.136c1.195-0.979,1.801-2.309,1.801-3.951	C38.412,32.767,38.004,31.748,37.198,30.92z M32.954,33.905c0,0.39-0.142,0.558-0.28,0.671c-0.244,0.2-0.632,0.302-1.15,0.302	h-0.779v-1.844h0.8c0.52,0,0.92,0.099,1.156,0.284C32.832,33.422,32.954,33.564,32.954,33.905z M30.744,28.594v-1.458h0.23	c1.399,0,1.399,0.409,1.399,0.606c0,0.354-0.116,0.499-0.228,0.593c-0.204,0.172-0.527,0.259-0.959,0.259H30.744z" opacity=".05"/><path fill="#64717c" d="M16,40h-3c-2.757,0-5-2.243-5-5v-3c0-0.553,0.448-1,1-1s1,0.447,1,1v3c0,1.654,1.346,3,3,3h3	c0.552,0,1,0.447,1,1S16.552,40,16,40z"/><path d="M36.84,31.269c-0.391-0.4-0.854-0.714-1.387-0.937c0.372-0.234,0.706-0.518,0.997-0.85	c0.569-0.649,0.883-1.484,0.882-2.352c0-1.254-0.515-2.24-1.53-2.934c-0.532-0.363-1.19-0.621-2.002-0.782v-1.19	c0-0.454-0.37-0.824-0.825-0.824h-0.649c-0.455,0-0.825,0.37-0.825,0.824v0.99h-0.7v-0.99c0-0.454-0.37-0.824-0.825-0.824h-0.649	c-0.455,0-0.825,0.37-0.825,0.824v0.99h-1.041c-0.827,0-1.5,0.673-1.5,1.5v12.584c0,0.827,0.673,1.5,1.5,1.5h1.042v0.977	c0,0.454,0.37,0.824,0.825,0.824h0.649c0.455,0,0.825-0.37,0.825-0.824v-0.977h0.7v0.977c0,0.454,0.37,0.824,0.825,0.824h0.649	c0.455,0,0.825-0.37,0.825-0.824v-1.142c0.985-0.196,1.822-0.573,2.493-1.123c1.074-0.879,1.618-2.078,1.618-3.564	C37.912,32.901,37.552,32,36.84,31.269z M30.244,29.094v-2.458h0.73c1.899,0,1.899,0.775,1.899,1.106	c0,0.432-0.129,0.742-0.405,0.976c-0.297,0.249-0.729,0.376-1.281,0.376H30.244z M33.454,33.905c0,0.463-0.147,0.799-0.463,1.058	c-0.336,0.275-0.83,0.415-1.468,0.415h-1.279v-2.844h1.3c0.641,0,1.135,0.132,1.466,0.392	C33.312,33.164,33.454,33.476,33.454,33.905z" opacity=".07"/><path fill="#fff" d="M37.412,33.946c0-0.915-0.311-1.691-0.931-2.329c-0.62-0.637-1.449-1.021-2.486-1.149v-0.04	c0.848-0.236,1.54-0.661,2.079-1.275c0.494-0.562,0.759-1.274,0.758-2.022c0-1.084-0.438-1.924-1.312-2.521	c-0.573-0.391-1.325-0.641-2.221-0.776v-1.61c0-0.18-0.146-0.325-0.325-0.325h-0.65C32.146,21.9,32,22.045,32,22.225v1.501	c-0.08-0.002-0.15-0.011-0.232-0.011H30.3v-1.49c0-0.18-0.146-0.325-0.325-0.325h-0.65C29.146,21.9,29,22.045,29,22.225v1.49h-1.541	c-0.552,0-1,0.448-1,1v12.584c0,0.552,0.448,1,1,1h1.542v1.476c0,0.179,0.146,0.325,0.325,0.325h0.65	c0.179,0,0.325-0.146,0.325-0.325v-1.476h1.7v1.476c0,0.179,0.146,0.325,0.325,0.325h0.65c0.179,0,0.325-0.146,0.325-0.325v-1.563	c1.08-0.153,1.974-0.513,2.677-1.088C36.934,36.341,37.412,35.282,37.412,33.946z M33.374,27.742c0,0.577-0.194,1.029-0.584,1.358	c-0.391,0.328-0.924,0.493-1.603,0.493h-1.443v-3.458h1.23C32.575,26.136,33.374,26.671,33.374,27.742z M33.309,35.35	c-0.431,0.353-1.026,0.528-1.785,0.528h-1.779v-3.844h1.8c0.759,0,1.351,0.166,1.774,0.498c0.424,0.333,0.636,0.79,0.636,1.373	C33.954,34.516,33.739,34.997,33.309,35.35z"/></svg>