<svg xmlns="http://www.w3.org/2000/svg" viewBox="0 0 48 48"><linearGradient id="gS1Y3KY~6mektqPHgzLgRa" x1="24" x2="24" y1="3.265" y2="56.146" gradientUnits="userSpaceOnUse"><stop offset="0" stop-color="#21ad64"/><stop offset="1" stop-color="#088242"/></linearGradient><path fill="url(#gS1Y3KY~6mektqPHgzLgRa)" d="M33.217,10.837h-0.053C31.827,6.857,28.235,4,24,4s-7.827,2.857-9.164,6.837h-0.053	l-4.414,18.523c-1.438,6.032,1.41,12.418,7.207,15.193C19.508,45.479,21.69,46,24,46s4.492-0.521,6.424-1.446	c5.797-2.775,8.645-9.161,7.207-15.193L33.217,10.837z"/><linearGradient id="gS1Y3KY~6mektqPHgzLgRb" x1="24" x2="24" y1="3.176" y2="51.721" gradientUnits="userSpaceOnUse"><stop offset="0" stop-color="#faf8e5"/><stop offset="1" stop-color="#faeeac"/></linearGradient><path fill="url(#gS1Y3KY~6mektqPHgzLgRb)" d="M24,44c-1.911,0-3.741-0.412-5.438-1.224c-4.777-2.288-7.339-7.748-6.09-12.983l4.294-18.023	l0.126-0.336C17.983,8.184,20.841,6,24,6s6.017,2.184,7.108,5.433l0.157,0.468l4.264,17.892c1.248,5.235-1.314,10.696-6.091,12.984	C27.741,43.588,25.911,44,24,44z"/><path d="M24,25c3.314,0,6,5.089,6,9.231S27.314,40,24,40s-6-1.627-6-5.769S20.686,25,24,25 M24,24c-3.942,0-7,5.5-7,10.231 C17,38.469,19.617,41,24,41s7-2.531,7-6.769C31,29.5,27.942,24,24,24L24,24z" opacity=".05"/><path d="M24,25c3.314,0,6,5.089,6,9.231S27.314,40,24,40s-6-1.627-6-5.769S20.686,25,24,25 M24,24.5c-3.601,0-6.5,5.323-6.5,9.731 c0,3.984,2.369,6.269,6.5,6.269s6.5-2.285,6.5-6.269C30.5,29.823,27.601,24.5,24,24.5L24,24.5z" opacity=".07"/><linearGradient id="gS1Y3KY~6mektqPHgzLgRc" x1="24" x2="24" y1="19.615" y2="47.287" gradientUnits="userSpaceOnUse"><stop offset="0" stop-color="#a34f27"/><stop offset=".587" stop-color="#8b3817"/><stop offset="1" stop-color="#802d10"/></linearGradient><path fill="url(#gS1Y3KY~6mektqPHgzLgRc)" d="M30,34.231C30,30.089,27.314,25,24,25s-6,5.089-6,9.231S20.686,40,24,40 S30,38.373,30,34.231z"/></svg>