<svg xmlns="http://www.w3.org/2000/svg" viewBox="0 0 48 48"><linearGradient id="aPEKFPi6orYUi5V2TMQLza" x1="9.858" x2="38.142" y1="9.858" y2="38.142" gradientUnits="userSpaceOnUse"><stop offset="0" stop-color="#33bef0"/><stop offset="1" stop-color="#0a85d9"/></linearGradient><path fill="url(#aPEKFPi6orYUi5V2TMQLza)" d="M44,24c0,11.045-8.955,20-20,20S4,35.045,4,24S12.955,4,24,4S44,12.955,44,24z"/><path d="M42.859,22.445l-6.944-6.944C34.582,14.168,33,15.125,33,16.708V20H21c-1.103,0-2,0.897-2,2v4	c0,1.103,0.897,2,2,2h12v3.292c0,1.958,1.645,2.478,2.915,1.208l6.944-6.944C43.716,24.698,43.716,23.302,42.859,22.445z" opacity=".05"/><path d="M42.506,22.799l-6.944-6.944c-0.89-0.89-2.062-0.253-2.062,0.854V20.5H21c-0.827,0-1.5,0.672-1.5,1.5	v4c0,0.828,0.673,1.5,1.5,1.5h12.5v3.791c0,1.295,1.203,1.712,2.062,0.854l6.944-6.944C43.168,24.539,43.168,23.461,42.506,22.799z" opacity=".07"/><path fill="#fff" d="M42.152,23.152l-6.944-6.944c-0.446-0.446-1.208-0.13-1.208,0.5V21H21c-0.552,0-1,0.448-1,1v4	c0,0.552,0.448,1,1,1h13v4.291c0,0.631,0.762,0.946,1.208,0.5l6.944-6.944C42.62,24.38,42.62,23.62,42.152,23.152z"/></svg>