<svg xmlns="http://www.w3.org/2000/svg" xmlns:xlink="http://www.w3.org/1999/xlink" data-name="Слой 1" viewBox="0 0 48 48"><defs><linearGradient id="po7DViwRRHhvSqnvR9hVGa" x1="37" x2="44" y1="-1412.5" y2="-1412.5" gradientTransform="matrix(1 0 0 -1 0 -1400)" gradientUnits="userSpaceOnUse"><stop offset="0" stop-color="#ffcf54"/><stop offset=".261" stop-color="#fdcb4d"/><stop offset=".639" stop-color="#f7c13a"/><stop offset="1" stop-color="#f0b421"/></linearGradient><linearGradient id="po7DViwRRHhvSqnvR9hVGb" x1="12.5" x2="12.5" y1="17.326" y2="10.275" xlink:href="#po7DViwRRHhvSqnvR9hVGa"/><linearGradient id="po7DViwRRHhvSqnvR9hVGc" x1=".432" x2="13.078" y1="9.924" y2="44.668" gradientUnits="userSpaceOnUse"><stop offset="0" stop-color="#5961c3"/><stop offset="1" stop-color="#3a41ac"/></linearGradient></defs><path fill="#199be2" d="M17.5,33A1.5,1.5,0,1,0,19,34.5,1.50055,1.50055,0,0,0,17.5,33Z"/><path fill="#199be2" d="M32,30.5l-3-4L24.5,32l-7.253,1.02127L17.33333,36H25.222a2,2,0,0,0,1.35145-.52569Z"/><circle cx="46.5" cy="25.5" r="1.5" fill="#199be2"/><path fill="#199be2" d="M46.5,27H40.82843a2,2,0,0,1-1.41422-.58579L35,22l3-4,3.5,5.5,5,.5Z"/><path fill="url(#po7DViwRRHhvSqnvR9hVGa)" d="M37,12.5A3.5,3.5,0,1,0,40.49825,9,3.49978,3.49978,0,0,0,37,12.5Z"/><path fill="#35c1f1" d="M31.5,19.25a3.75,3.75,0,1,0,3.74813-3.75A3.74977,3.74977,0,0,0,31.5,19.25Z"/><path fill="#35c1f1" d="M27.5,27.25a3.75,3.75,0,1,0,3.74813-3.75A3.74977,3.74977,0,0,0,27.5,27.25Z"/><path fill="#35c1f1" d="M36.5,41A1.5,1.5,0,1,0,38,42.5,1.50055,1.50055,0,0,0,36.5,41Z"/><path fill="#35c1f1" d="M38.74756,20.68l-6.06134-3.47645-4.768,8.344.82939,4.49539L34,35l1,7.5h3l-.4795-9.11044a1.99988,1.99988,0,0,0-.1859-.74286l-2.39594-5.11781Z"/><path fill="#35c1f1" d="M21.5,20A1.5,1.5,0,1,0,23,21.5,1.50055,1.50055,0,0,0,21.5,20Z"/><path fill="#35c1f1" d="M35,15.5l-7.45921.4662a2,2,0,0,0-.99056.336l-5.82608,3.91407,1.48323,2.60636L28,19.5l6.78311.17378Z"/><polygon fill="#3a41ac" points="4 30.5 3.47 30.99 2.6 31.78 0 34.16 0 27.83 0.39 28.09 4 30.5"/><path fill="#3a41ac" d="M18.5,24l-5-.5L10,18,7,22l4.41418,4.41418A2.00018,2.00018,0,0,0,12.82843,27H18.5a1.5,1.5,0,0,0,0-3Z"/><path fill="url(#po7DViwRRHhvSqnvR9hVGb)" d="M9,12.5A3.5,3.5,0,1,0,12.49825,9,3.49978,3.49978,0,0,0,9,12.5Z"/><path fill="url(#po7DViwRRHhvSqnvR9hVGc)" d="M11,19.25A3.75,3.75,0,0,0,7.24811,15.5c-.08527,0-.165.01953-.2489.02515L7,15.51V15.5l-7,.43994V19.5l3.33.08L.15,25.1499l-.01.01A1.77037,1.77037,0,0,0,0,25.39v3.72a3.33192,3.33192,0,0,0,.75.92v.01L2.6,31.78,6,35l1,7.5a1.5,1.5,0,0,0,3,0l-.48-9.11a1.88608,1.88608,0,0,0-.19-.74011L7,27.5l3.55-6.47.2-.3501-.02936-.01953A3.73229,3.73229,0,0,0,11,19.25Z"/><path fill="#5059c9" d="M12.5,11,9,10V8.85449a1,1,0,0,1,.844-.98776L17.52214,6.6544a.415.415,0,0,1,.40245.65118L16,10Z"/><path fill="#7b83eb" d="M9,10h7c2,.5,2,2,2,2H9Z"/><polygon fill="#343434" points="8.09 25.51 7 27.5 0.73 24.13 1.84 22.18 8.09 25.51"/></svg>