<svg xmlns="http://www.w3.org/2000/svg" viewBox="0 0 48 48"><linearGradient id="2PtYVcl11q9TykFD3vr28a" x1="17.778" x2="30.852" y1="7.003" y2="42.718" gradientUnits="userSpaceOnUse"><stop offset="0" stop-color="#7b83eb"/><stop offset="1" stop-color="#5961c3"/></linearGradient><path fill="url(#2PtYVcl11q9TykFD3vr28a)" d="M24,4C12.955,4,4,12.955,4,24c0,11.045,8.955,20,20,20s20-8.955,20-20S35.045,4,24,4z M35.314,35.314c-6.248,6.248-16.38,6.248-22.628,0c-6.248-6.248-6.248-16.38,0-22.628c6.248-6.248,16.38-6.248,22.628,0 C41.562,18.934,41.562,29.066,35.314,35.314z M28.243,19.757c-2.343-2.343-6.142-2.343-8.485,0c-2.343,2.343-2.343,6.142,0,8.485 c2.343,2.343,6.142,2.343,8.485,0C30.586,25.9,30.586,22.1,28.243,19.757z M25.414,25.414c-0.781,0.781-2.047,0.781-2.828,0 c-0.781-0.781-0.781-2.047,0-2.828s2.047-0.781,2.828,0S26.195,24.633,25.414,25.414z"/></svg>