<svg xmlns="http://www.w3.org/2000/svg" viewBox="0 0 48 48"><linearGradient id="vMB7J2V4P~yxxKns6McF1a" x1="6" x2="42" y1="1540" y2="1540" gradientTransform="translate(0 -1498)" gradientUnits="userSpaceOnUse"><stop offset="0" stop-color="#c8d3de"/><stop offset="1" stop-color="#c8d3de"/></linearGradient><path fill="url(#vMB7J2V4P~yxxKns6McF1a)" d="M42,40H6v2c0,1.105,0.895,2,2,2h32c1.105,0,2-0.895,2-2V40z"/><linearGradient id="vMB7J2V4P~yxxKns6McF1b" x1="14.095" x2="31.385" y1="1509.338" y2="1542.787" gradientTransform="translate(0 -1498)" gradientUnits="userSpaceOnUse"><stop offset="0" stop-color="#fcfcfc"/><stop offset=".495" stop-color="#f4f4f4"/><stop offset=".946" stop-color="#e8e8e8"/><stop offset="1" stop-color="#e8e8e8"/></linearGradient><path fill="url(#vMB7J2V4P~yxxKns6McF1b)" d="M42,40H6V21L24,4l18,17V40z"/><circle cx="24" cy="24" r="6" opacity=".05"/><circle cx="24" cy="24" r="5.5" opacity=".07"/><path d="M24,5c-0.474,0-0.948,0.168-1.326,0.503l-5.359,4.811L6,21v5.39l18-15.962	L42,26.39V21L30.685,10.314l-5.359-4.811C24.948,5.168,24.474,5,24,5z" opacity=".05"/><path d="M24,4c-0.474,0-0.948,0.167-1.326,0.5l-5.359,4.784L6,19.909v5.359	L24,9.397l18,15.871v-5.359L30.685,9.284L25.326,4.5C24.948,4.167,24.474,4,24,4z" opacity=".07"/><linearGradient id="vMB7J2V4P~yxxKns6McF1c" x1="24" x2="24" y1="1500.684" y2="1522.696" gradientTransform="translate(0 -1498)" gradientUnits="userSpaceOnUse"><stop offset="0" stop-color="#d43a02"/><stop offset="1" stop-color="#b9360c"/></linearGradient><path fill="url(#vMB7J2V4P~yxxKns6McF1c)" d="M44.495,20.507L25.326,3.503C24.948,3.168,24.474,3,24,3s-0.948,0.168-1.326,0.503	L3.505,20.507c-0.42,0.374-0.449,1.02-0.064,1.43l1.636,1.745c0.369,0.394,0.984,0.424,1.39,0.067L24,8.428L41.533,23.75	c0.405,0.356,1.021,0.327,1.39-0.067l1.636-1.745C44.944,21.527,44.915,20.881,44.495,20.507z"/><linearGradient id="vMB7J2V4P~yxxKns6McF1d" x1="32.5" x2="32.5" y1="17.794" y2="21.2" gradientTransform="matrix(1 0 0 -1 0 50)" gradientUnits="userSpaceOnUse"><stop offset="0" stop-color="#4b4b4b"/><stop offset=".521" stop-color="#393939"/><stop offset="1" stop-color="#252525"/></linearGradient><path fill="url(#vMB7J2V4P~yxxKns6McF1d)" d="M42,32v2H25c-1.1,0-2-0.9-2-2v-5.29c0-0.56,0.45-1,1-1s1,0.44,1,1V32H42z"/><linearGradient id="vMB7J2V4P~yxxKns6McF1e" x1="24" x2="24" y1="28.87" y2="17.718" gradientTransform="matrix(1 0 0 -1 0 50)" gradientUnits="userSpaceOnUse"><stop offset="0" stop-color="#4b4b4b"/><stop offset=".531" stop-color="#393939"/><stop offset="1" stop-color="#252525"/></linearGradient><circle cx="24" cy="24" r="5" fill="url(#vMB7J2V4P~yxxKns6McF1e)"/><linearGradient id="vMB7J2V4P~yxxKns6McF1f" x1="24" x2="24" y1="28.105" y2="21.885" gradientTransform="matrix(1 0 0 -1 0 50)" gradientUnits="userSpaceOnUse"><stop offset=".074" stop-color="#21cc72"/><stop offset=".666" stop-color="#0f9750"/><stop offset="1" stop-color="#088242"/></linearGradient><circle cx="24" cy="24" r="2.5" fill="url(#vMB7J2V4P~yxxKns6McF1f)"/></svg>