<svg xmlns="http://www.w3.org/2000/svg" viewBox="0 0 48 48"><linearGradient id="stVWfYbH7Hrs4lbbMgktia" x1="24" x2="24" y1="-3.638" y2="12.878" gradientUnits="userSpaceOnUse"><stop offset="0" stop-color="#0176d0"/><stop offset="1" stop-color="#16538c"/></linearGradient><path fill="url(#stVWfYbH7Hrs4lbbMgktia)" d="M24,4c-4,0-4,2-8,2c0,3,2,2,2,6h12c0-4,2-3,2-6C28,6,28,4,24,4z"/><linearGradient id="stVWfYbH7Hrs4lbbMgktib" x1=".909" x2="39.183" y1="5.772" y2="44.046" gradientUnits="userSpaceOnUse"><stop offset="0" stop-color="#0176d0"/><stop offset="1" stop-color="#16538c"/></linearGradient><path fill="url(#stVWfYbH7Hrs4lbbMgktib)" d="M41,31c0,9.389-7.611,10-17,10S7,40.389,7,31s7.611-20,17-20S41,21.611,41,31z"/><line x1="18" x2="30" y1="12" y2="12" fill="none" stroke="#8f979e" stroke-linecap="round" stroke-linejoin="round" stroke-width="2"/><path d="M28.131,36c-0.498,0-0.938-0.253-1.199-0.637C26.666,35.759,26.219,36,25.732,36h-2.396	c-0.495,0-0.95-0.249-1.218-0.666l-2.222-3.457l-0.158,0.16v2.515c0,0.798-0.649,1.447-1.447,1.447h-1.789	c-0.798,0-1.447-0.649-1.447-1.447V19.347c0-0.798,0.649-1.447,1.447-1.447h1.789c0.798,0,1.447,0.649,1.447,1.447v5.752	l1.954-2.233c0.275-0.314,0.673-0.494,1.089-0.494h2.49c0.563,0,1.065,0.316,1.308,0.826c0.06,0.126,0.101,0.256,0.122,0.388	c0.112-0.687,0.71-1.213,1.429-1.213h1.816c0.47,0,0.89,0.223,1.155,0.574c0.562-0.331,1.198-0.498,1.899-0.498	c0.409,0,0.793,0.051,1.142,0.152c0.589,0.17,0.845,0.72,0.795,1.176l-0.034,2.646c-0.072,0.646-0.523,1.062-1.101,1.062	c-0.46-0.042-0.742-0.069-0.991-0.069c-0.667,0-1.204,0.167-1.445,0.443v6.695c0,0.798-0.649,1.447-1.447,1.447H28.131z M26.684,33.374v-9.222c-0.05,0.208-0.146,0.408-0.289,0.583l-3.033,3.709L26.684,33.374z" opacity=".05"/><path d="M28.131,35.5c-0.522,0-0.947-0.425-0.947-0.947V23.819c0-0.522,0.425-0.947,0.947-0.947h1.816	c0.483,0,0.889,0.366,0.941,0.842c0.589-0.508,1.295-0.765,2.113-0.765c0.361,0,0.699,0.044,1.003,0.132	c0.322,0.093,0.464,0.393,0.437,0.64l-0.037,2.695c-0.036,0.31-0.251,0.568-0.601,0.568c-0.416-0.04-0.722-0.069-0.991-0.069	c-0.941,0-1.657,0.292-1.945,0.785v6.853c0,0.522-0.425,0.947-0.947,0.947H28.131z M23.337,35.5c-0.324,0-0.622-0.163-0.797-0.436	l-2.56-3.982l-0.741,0.751v2.72c0,0.522-0.425,0.947-0.947,0.947h-1.789c-0.522,0-0.947-0.425-0.947-0.947V19.347	c0-0.522,0.425-0.947,0.947-0.947h1.789c0.522,0,0.947,0.425,0.947,0.947v7.083l2.83-3.234c0.181-0.206,0.44-0.323,0.713-0.323h2.49	c0.37,0,0.697,0.207,0.856,0.541c0.158,0.333,0.111,0.719-0.122,1.005l-3.268,3.996l3.779,5.609c0.195,0.292,0.215,0.665,0.05,0.975	c-0.164,0.31-0.485,0.502-0.836,0.502H23.337z" opacity=".07"/><path fill="#ffe357" d="M20.063,30.286l-1.324,1.342v2.925c0,0.247-0.2,0.447-0.447,0.447h-1.789	c-0.247,0-0.447-0.2-0.447-0.447V19.347c0-0.247,0.2-0.447,0.447-0.447h1.789c0.247,0,0.447,0.2,0.447,0.447v8.386l0.587-0.643	l3.12-3.565c0.085-0.097,0.208-0.153,0.337-0.153h2.491c0.377,0,0.585,0.438,0.346,0.73l-3.501,4.283l3.986,5.918	C26.303,34.6,26.091,35,25.732,35h-2.396c-0.152,0-0.294-0.077-0.376-0.205L20.063,30.286z M33.785,26.483	c-0.365-0.038-0.688-0.069-0.972-0.069c-1.146,0-2.09,0.388-2.445,1.164l0,6.974c0,0.247-0.2,0.447-0.447,0.447h-1.789	c-0.247,0-0.447-0.2-0.447-0.447V23.819c0-0.247,0.2-0.447,0.447-0.447h1.817c0.236,0,0.431,0.183,0.446,0.419l0.078,1.22	c0.612-1.041,1.454-1.562,2.53-1.562c0.305,0,0.594,0.035,0.863,0.112c0.088,0.026,0.079,0.105,0.079,0.105l-0.04,2.742	C33.904,26.409,33.894,26.495,33.785,26.483z"/></svg>