<svg xmlns="http://www.w3.org/2000/svg" viewBox="0 0 48 48"><path fill="#0884db" d="M23.401,10.798L18.069,6.8c-0.533-0.4-0.533-1.2,0-1.599L23.4,1.202C24.06,0.707,25,1.178,25,2.001	v7.997C25,10.822,24.06,11.293,23.401,10.798z"/><path fill="#0368ba" d="M25.105,43.97C13.609,44.597,4,35.366,4,24c0-4.358,1.462-8.63,4.146-12.099	c0.346-0.447,1.008-0.494,1.435-0.124l1.479,1.282c0.411,0.356,0.447,0.964,0.113,1.393c-2.688,3.464-3.711,8.072-2.906,12.531	c1.399,7.746,8.128,13.145,15.998,13.015c9.228-0.152,16.62-8.218,15.649-17.667l4.056,2.775	C43.42,35.174,35.174,43.42,25.105,43.97z"/><path fill="#0884db" d="M24,44c0,0,16-3,16-20c0-8.8-7.2-16-16-16h-3.2V4H24c11,0,20,9,20,20S35,44,24,44z"/><path fill="#50e6ff" d="M20.697,16.485v13.601h-2.922V19.788c-0.161,0.143-0.351,0.277-0.571,0.403 c-0.219,0.127-0.453,0.241-0.7,0.344c-0.248,0.102-0.504,0.188-0.77,0.26c-0.266,0.071-0.529,0.122-0.789,0.153v-2.468 c0.761-0.223,1.478-0.507,2.152-0.854c0.674-0.346,1.283-0.727,1.828-1.141H20.697z"/><path fill="#50e6ff" d="M28.48,30.317c-3.167,0-4.75-2.223-4.75-6.67c0-2.307,0.428-4.065,1.285-5.274 c0.857-1.209,2.098-1.813,3.725-1.813c3.092,0,4.639,2.261,4.639,6.782c0,2.251-0.422,3.977-1.266,5.177 C31.268,29.718,30.058,30.317,28.48,30.317z M28.61,18.795c-1.268,0-1.902,1.593-1.902,4.778c0,3,0.622,4.5,1.865,4.5 c1.212,0,1.818-1.546,1.818-4.639C30.392,20.341,29.798,18.795,28.61,18.795z"/></svg>