<svg xmlns="http://www.w3.org/2000/svg" viewBox="0 0 48 48"><linearGradient id="EHuLN0ICDUEIaiml5LvS2a" x1="16.373" x2="38.298" y1="12.57" y2="45.429" gradientUnits="userSpaceOnUse"><stop offset=".008" stop-color="#f44f5a"/><stop offset=".447" stop-color="#ee3d4a"/><stop offset="1" stop-color="#e52030"/></linearGradient><path fill="url(#EHuLN0ICDUEIaiml5LvS2a)" d="M16,5.675V21H4.249C5.288,14.113,9.819,8.378,16,5.675z M22,43.899	C22.658,43.964,23.325,44,24,44c10.023,0,18.3-7.381,19.751-17H22V43.899z M16,42.325V27H4.249C5.288,33.887,9.819,39.622,16,42.325	z M24,4c-0.675,0-1.342,0.036-2,0.101V21h21.751C42.3,11.381,34.023,4,24,4z"/><linearGradient id="EHuLN0ICDUEIaiml5LvS2b" x1="17.188" x2="37.848" y1="12.067" y2="48.257" gradientUnits="userSpaceOnUse"><stop offset="0" stop-color="#dfe9f2"/><stop offset=".998" stop-color="#9ea7b0"/></linearGradient><path fill="url(#EHuLN0ICDUEIaiml5LvS2b)" d="M43.751,27C43.899,26.019,44,25.022,44,24s-0.101-2.019-0.249-3H22V4.101	c-2.116,0.21-4.13,0.757-6,1.574V21H4.249C4.101,21.981,4,22.978,4,24s0.101,2.019,0.249,3H16v15.325	c1.87,0.818,3.884,1.364,6,1.574V27H43.751z"/></svg>