<svg xmlns="http://www.w3.org/2000/svg" viewBox="0 0 48 48"><linearGradient id="3nqy5kGZO56mC60HvTvRja" x1="27" x2="27" y1="-166.101" y2="-196.032" gradientTransform="matrix(1 0 0 -1 0 -154)" gradientUnits="userSpaceOnUse"><stop offset="0" stop-color="#21ad64"/><stop offset="1" stop-color="#088242"/></linearGradient><path fill="url(#3nqy5kGZO56mC60HvTvRja)" d="M40,42H14c-1.1,0-2-0.9-2-2V14c0-1.1,0.9-2,2-2h26c1.1,0,2,0.9,2,2v26C42,41.1,41.1,42,40,42z"/><path d="M38,12H12v26h22.319C36.352,38,38,36.352,38,34.319V12z" opacity=".05"/><path d="M37,12H12v25h22.161C35.729,37,37,35.729,37,34.161V12z" opacity=".07"/><linearGradient id="3nqy5kGZO56mC60HvTvRjb" x1="21" x2="21" y1="-160.101" y2="-190.032" gradientTransform="matrix(1 0 0 -1 0 -154)" gradientUnits="userSpaceOnUse"><stop offset="0" stop-color="#9dffce"/><stop offset="1" stop-color="#50d18d"/></linearGradient><path fill="url(#3nqy5kGZO56mC60HvTvRjb)" d="M34,36H8c-1.1,0-2-0.9-2-2V8c0-1.1,0.9-2,2-2h26c1.1,0,2,0.9,2,2v26C36,35.1,35.1,36,34,36z"/></svg>