<svg xmlns="http://www.w3.org/2000/svg" viewBox="0 0 48 48"><linearGradient id="4AyzHamWc1NW2HwElCy6Xa" x1="9.997" x2="21.78" y1="5.934" y2="30.894" gradientUnits="userSpaceOnUse"><stop offset="0" stop-color="#33bef0"/><stop offset="1" stop-color="#22a5e2"/></linearGradient><path fill="url(#4AyzHamWc1NW2HwElCy6Xa)" d="M18.5,3C11.044,3,5,9.044,5,16.5c0,2.059,0.474,4.002,1.299,5.748	c-0.013,0.03-0.029,0.054-0.04,0.088l-3.167,7.206c-0.392,0.892,0.551,1.783,1.419,1.341l6.369-3.243	C13.049,29.127,15.671,30,18.5,30C25.956,30,32,23.956,32,16.5C32,9.044,25.956,3,18.5,3z"/><linearGradient id="4AyzHamWc1NW2HwElCy6Xb" x1="21.104" x2="39.047" y1="16.026" y2="46.288" gradientUnits="userSpaceOnUse"><stop offset="0" stop-color="#0176d0"/><stop offset="1" stop-color="#16538c"/></linearGradient><path fill="url(#4AyzHamWc1NW2HwElCy6Xb)" d="M44.909,43.729l-3.657-8.32C42.367,33.355,43,31.001,43,28.5C43,20.492,36.508,14,28.5,14	S14,20.492,14,28.5S20.492,43,28.5,43c2.613,0,5.058-0.701,7.175-1.91l7.815,3.979C44.358,45.511,45.301,44.62,44.909,43.729z"/><path fill="#fff" d="M27.166,31.749c-0.066-0.172-0.208-0.682-0.208-1.187c0-2.874,2.959-2.984,2.959-5.116 c0-1.342-1.326-1.425-1.563-1.425c-1.506,0-2.682,0.861-3.176,1.296v-2.979c0.508-0.303,1.67-0.91,3.523-0.91 c4.29,0,4.344,2.949,4.344,3.582c0,3.404-3.513,3.657-3.513,5.838c0,0.455,0.165,0.788,0.237,0.9H27.166z M28.61,36.428 c-0.817,0-1.68-0.51-1.68-1.499c0-0.99,0.897-1.481,1.68-1.481c0.783,0,1.653,0.439,1.653,1.481 C30.263,35.971,29.427,36.428,28.61,36.428z"/></svg>