<svg xmlns="http://www.w3.org/2000/svg" viewBox="0 0 48 48"><linearGradient id="nQm~Tvzw4NByVf3GJTBAka" x1="24" x2="24" y1="6.185" y2="13.778" gradientUnits="userSpaceOnUse"><stop offset="0" stop-color="#0d61a9"/><stop offset="1" stop-color="#16528c"/></linearGradient><path fill="url(#nQm~Tvzw4NByVf3GJTBAka)" d="M40,6H8C6.895,6,6,6.895,6,8v6h36V8C42,6.895,41.105,6,40,6z"/><linearGradient id="nQm~Tvzw4NByVf3GJTBAkb" x1="24" x2="24" y1="10.066" y2="17.135" gradientUnits="userSpaceOnUse"><stop offset="0" stop-color="#199ae0"/><stop offset="1" stop-color="#0782d8"/></linearGradient><path fill="url(#nQm~Tvzw4NByVf3GJTBAkb)" d="M41,10H7c-1.105,0-2,0.895-2,2v5h38v-5C43,10.895,42.105,10,41,10z"/><linearGradient id="nQm~Tvzw4NByVf3GJTBAkc" x1="20.47" x2="27.254" y1="13.527" y2="41.34" gradientUnits="userSpaceOnUse"><stop offset="0" stop-color="#32bdef"/><stop offset="1" stop-color="#1ea2e4"/></linearGradient><path fill="url(#nQm~Tvzw4NByVf3GJTBAkc)" d="M42,14H6c-1.105,0-2,0.895-2,2v24c0,1.105,0.895,2,2,2h36c1.105,0,2-0.895,2-2V16	C44,14.895,43.105,14,42,14z"/><path d="M31.841,27.104c0,0-9.134-6.109-10.232-6.821C20.511,19.57,19,20.089,19,21.679v13.285	c0,1.792,1.482,2.494,2.608,1.753c1.127-0.74,10.232-6.821,10.232-6.821c0.468-0.312,0.747-0.834,0.747-1.396	C32.588,27.938,32.309,27.416,31.841,27.104z" opacity=".05"/><path d="M21.443,20.711l5.062,3.375l4.53,3.02c0.772,0.577,1.017,0.875,1.017,1.394	c0,0.403-0.127,0.801-0.485,1.04l-5.062,3.375l-5.062,3.375c-0.289,0.193-1.943,0.775-1.943-1.743V28.5v-6.047	C19.5,19.916,20.912,20.357,21.443,20.711z" opacity=".07"/><path fill="#fff" d="M20,35.177V21.823c0-0.656,0.731-1.047,1.277-0.683l10.016,6.677c0.488,0.325,0.488,1.041,0,1.367	l-10.016,6.677C20.731,36.225,20,35.833,20,35.177z"/></svg>