<svg xmlns="http://www.w3.org/2000/svg" viewBox="0 0 48 48"><linearGradient id="A9aZW5FxZvUiEmRffiRpZa" x1="38.112" x2="47.055" y1="-443.711" y2="-463.187" gradientTransform="matrix(1 0 0 -1 0 -426)" gradientUnits="userSpaceOnUse"><stop offset="0" stop-color="#fed100"/><stop offset="1" stop-color="#e36001"/></linearGradient><path fill="url(#A9aZW5FxZvUiEmRffiRpZa)" d="M47,22h-4v-4c0-0.552-0.448-1-1-1h-2c-0.553,0-1,0.448-1,1v4h-4c-0.553,0-1,0.448-1,1v2 c0,0.552,0.447,1,1,1h12c0.552,0,1-0.448,1-1v-2C48,22.448,47.552,22,47,22z"/><linearGradient id="A9aZW5FxZvUiEmRffiRpZb" x1="-687.251" x2="-677.653" y1="-65.565" y2="-75.163" gradientTransform="scale(-1 1) rotate(-45 -241.42 -794.829)" gradientUnits="userSpaceOnUse"><stop offset="0" stop-color="#fed100"/><stop offset=".212" stop-color="#fdce00"/><stop offset=".354" stop-color="#fbc500"/><stop offset=".477" stop-color="#f8b600"/><stop offset=".588" stop-color="#f2a100"/><stop offset=".691" stop-color="#ec8501"/><stop offset=".787" stop-color="#e46301"/><stop offset=".795" stop-color="#e36001"/></linearGradient><path fill="url(#A9aZW5FxZvUiEmRffiRpZb)" d="M43,26h-4v4c0,0.552,0.447,1,1,1h2c0.552,0,1-0.448,1-1V26z"/><linearGradient id="A9aZW5FxZvUiEmRffiRpZc" x1="12.492" x2="19.658" y1="5.383" y2="46.022" gradientUnits="userSpaceOnUse"><stop offset="0" stop-color="#a235d4"/><stop offset=".441" stop-color="#a033d1"/><stop offset=".702" stop-color="#982cc9"/><stop offset=".915" stop-color="#8b21bb"/><stop offset="1" stop-color="#831bb3"/></linearGradient><path fill="url(#A9aZW5FxZvUiEmRffiRpZc)" d="M37.406,42.049L24.454,5.632C24.32,5.253,23.961,5,23.559,5h-8.814 c-0.399,0-0.756,0.25-0.893,0.625L0.596,42.044C0.427,42.508,0.771,43,1.265,43h7.557c0.416,0,0.784-0.271,0.907-0.668L12.006,35 h13.89l2.311,7.335C28.332,42.731,28.699,43,29.113,43h7.621C37.227,43,37.571,42.513,37.406,42.049z M14.18,28l4.722-15.209 L23.692,28H14.18z"/></svg>