<svg xmlns="http://www.w3.org/2000/svg" viewBox="0 0 48 48"><radialGradient id="smOA4S4ydU25YfPifWxs0a" cx="23.866" cy="25.448" r="19.452" gradientUnits="userSpaceOnUse"><stop offset="0" stop-color="#ffcf54"/><stop offset=".261" stop-color="#fdcb4d"/><stop offset=".639" stop-color="#f7c13a"/><stop offset="1" stop-color="#f0b421"/></radialGradient><path fill="url(#smOA4S4ydU25YfPifWxs0a)" d="M30.112,9L24,8l-6.112,1c-4.954,0-8.786,4.341-8.172,9.257l1.63,5.741 C11.127,25.125,11,26.294,11,27.5c0,4.818,1.844,9.123,4.736,11.965l0.263,0.926h0.026C16.682,42.477,18.609,44,20.912,44 c1.136,0,2.177-0.38,3.029-1.004C23.961,42.997,23.98,43,24,43s0.039-0.003,0.06-0.004C24.911,43.62,25.952,44,27.088,44 c2.303,0,4.229-1.523,4.887-3.608h0.01l0.106-0.371c0.012-0.051,0.032-0.097,0.042-0.148l0.11-0.388 C35.147,36.641,37,32.329,37,27.5c0-1.209-0.128-2.381-0.347-3.51l1.632-5.733C38.898,13.341,35.066,9,30.112,9z"/><circle cx="17.5" cy="24.75" r="1.5" fill="#3b3b3b"/><circle cx="30.5" cy="24.75" r="1.5" fill="#3b3b3b"/><path fill="#3b3b3b" d="M14.999,25.25c-0.448,0-0.855-0.303-0.969-0.758c-0.134-0.535,0.192-1.078,0.728-1.212	c1.721-0.431,3.556-1.522,4.462-2.655c0.345-0.43,0.975-0.501,1.405-0.156c0.432,0.346,0.501,0.975,0.156,1.406	c-1.173,1.466-3.398,2.811-5.538,3.345C15.161,25.24,15.08,25.25,14.999,25.25z"/><path fill="#3b3b3b" d="M33.001,25.25c-0.081,0-0.162-0.01-0.244-0.03c-2.14-0.534-4.365-1.879-5.538-3.345	c-0.345-0.432-0.275-1.061,0.156-1.406c0.43-0.345,1.061-0.276,1.405,0.156c0.906,1.133,2.741,2.225,4.462,2.655	c0.536,0.134,0.861,0.677,0.728,1.212C33.856,24.947,33.449,25.25,33.001,25.25z"/><path fill="#3b3b3b" d="M14.999,21c-0.175,0-0.353-0.046-0.514-0.143c-0.474-0.284-0.627-0.898-0.343-1.372	C15.53,17.173,17.837,16,21,16c0.552,0,1,0.447,1,1s-0.448,1-1,1c-2.445,0-4.127,0.822-5.143,2.515	C15.67,20.827,15.339,21,14.999,21z"/><path fill="#3b3b3b" d="M33.001,21c-0.34,0-0.671-0.173-0.858-0.485C31.127,18.822,29.445,18,27,18c-0.552,0-1-0.447-1-1	s0.448-1,1-1c3.163,0,5.47,1.173,6.857,3.485c0.284,0.474,0.131,1.088-0.343,1.372C33.354,20.954,33.176,21,33.001,21z"/><path fill="#d59f1a" d="M25.25,33C24.312,33,24,34,24,34s-0.052-1-1.25-1S19,34,19,34s1.667,2,5,2s5-2,5-2	S26.187,33,25.25,33z"/><path fill="#bd8215" d="M22.75,33C21.552,33,19,34,19,34h5C24,34,23.948,33,22.75,33z M24,34h5c0,0-2.813-1-3.75-1	C24.312,33,24,34,24,34z"/><linearGradient id="smOA4S4ydU25YfPifWxs0b" x1="9.497" x2="21.693" y1="7.345" y2="40.853" gradientUnits="userSpaceOnUse"><stop offset="0" stop-color="#a34f27"/><stop offset=".587" stop-color="#8b3817"/><stop offset="1" stop-color="#802d10"/></linearGradient><path fill="url(#smOA4S4ydU25YfPifWxs0b)" d="M21,5h-4c-4.971,0-9,5.029-9,10v3c0,2.761-2.239,5-5,5H2v3c0,1.346,0.892,2.471,2.113,2.851	C4.04,29.223,4,29.607,4,30c0,3.314,2.686,6,6,6s6-2.686,6-6c0-6-2-12-2-14c0-2.13,2-5,5-5c1,0,1.5,0,2,0c1.381,0,3-1,3-3	S22.381,5,21,5z"/><linearGradient id="smOA4S4ydU25YfPifWxs0c" x1="28.997" x2="41.193" y1="7.345" y2="40.853" gradientTransform="matrix(-1 0 0 1 67.5 0)" gradientUnits="userSpaceOnUse"><stop offset="0" stop-color="#a34f27"/><stop offset=".587" stop-color="#8b3817"/><stop offset="1" stop-color="#802d10"/></linearGradient><path fill="url(#smOA4S4ydU25YfPifWxs0c)" d="M27,5h4c4.971,0,9,5.029,9,10v3c0,2.761,2.239,5,5,5h1v3c0,1.346-0.892,2.471-2.113,2.851	C43.96,29.223,44,29.607,44,30c0,3.314-2.686,6-6,6s-6-2.686-6-6c0-6,2-12,2-14c0-2.13-2-5-5-5c-1,0-1.5,0-2,0c-1.381,0-3-1-3-3	S25.619,5,27,5z"/><path fill="#d59f1a" d="M24,32c-0.153,0-0.307-0.035-0.447-0.105l-2-1c-0.494-0.247-0.694-0.848-0.447-1.342	c0.247-0.494,0.847-0.693,1.342-0.447L24,29.882l1.553-0.776c0.496-0.246,1.095-0.047,1.342,0.447	c0.247,0.494,0.047,1.095-0.447,1.342l-2,1C24.307,31.965,24.153,32,24,32z"/></svg>