<svg xmlns="http://www.w3.org/2000/svg" viewBox="0 0 48 48"><radialGradient id="k09Lv6bCyQrGKFE2mPi4Ta" cx="42.042" cy="42.062" r="4.125" fx="37.941" fy="41.619" gradientUnits="userSpaceOnUse"><stop offset=".516" stop-color="#3a41ac"/><stop offset="1" stop-color="#5961c3"/></radialGradient><path fill="url(#k09Lv6bCyQrGKFE2mPi4Ta)" d="M40,42v4.793c0,0.445,0.539,0.669,0.854,0.354L46,42H40z"/><radialGradient id="k09Lv6bCyQrGKFE2mPi4Tb" cx="11.516" cy="11.902" r="5.567" gradientUnits="userSpaceOnUse"><stop offset=".317" stop-color="#3a41ac"/><stop offset="1" stop-color="#676fd3"/></radialGradient><path fill="url(#k09Lv6bCyQrGKFE2mPi4Tb)" d="M6.995,13.91l3.98-0.543c-0.227-3.206-2.273-6.222-5.233-7.772 c-0.533-0.279-1.194-0.03-1.408,0.532L3.613,8.014C3.435,8.479,3.632,8.991,4.064,9.24C5.608,10.133,6.973,11.861,6.995,13.91z"/><linearGradient id="k09Lv6bCyQrGKFE2mPi4Tc" x1="24.611" x2="27.935" y1="14.606" y2="54.052" gradientUnits="userSpaceOnUse"><stop offset="0" stop-color="#7b83eb"/><stop offset="1" stop-color="#5961c3"/></linearGradient><path fill="url(#k09Lv6bCyQrGKFE2mPi4Tc)" d="M33.402,40.645c1.504,1.502,3.492,2.335,5.603,2.355H45l1.293-1.293 c0.391-0.391,0.391-1.024,0-1.414l-5.439-5.439C40.539,34.539,40,34.762,40,35.207v3.796l-0.91,0.001c-0.001,0-0.003,0-0.005,0 c-1.074,0-2.088-0.422-2.856-1.189C35.437,37.022,35,35.963,35,34.831V13.085C35,8.627,31.411,5,27,5 c-2.394,0-4.54,1.074-6.007,2.763C19.526,6.073,17.386,5,15,5c-4.411,0-8,3.648-8,8.134V40c0,0.552,0.448,1,1,1h2 c0.552,0,1-0.448,1-1V13.134C11,10.854,12.794,9,15,9s4,1.854,4,4.134V40c0,0.552,0.448,1,1,1h2c0.552,0,1-0.448,1-1V13.134v-0.049 C23,10.832,24.794,9,27,9s4,1.832,4,4.085v21.746C31,37.032,31.853,39.097,33.402,40.645z"/></svg>