<svg xmlns="http://www.w3.org/2000/svg" viewBox="0 0 48 48"><linearGradient id="vCzYLO2333YgPU17QVLcfa" x1="8.419" x2="34.8" y1="12.522" y2="38.904" gradientUnits="userSpaceOnUse"><stop offset="0" stop-color="#21ad64"/><stop offset="1" stop-color="#088242"/></linearGradient><path fill="url(#vCzYLO2333YgPU17QVLcfa)" d="M43.824,21.333l-8.794-8.229C34.275,12.397,33.25,12,32.18,12H7.061C4.818,12,3,13.701,3,15.8	v16.4C3,34.299,4.818,36,7.061,36H32.18c1.069,0,2.095-0.397,2.85-1.104l8.795-8.229C45.392,25.2,45.392,22.8,43.824,21.333z M39.55,25.333c-0.784,0.733-2.066,0.733-2.85,0s-0.784-1.933,0-2.667c0.784-0.733,2.066-0.733,2.85,0	C40.333,23.4,40.333,24.6,39.55,25.333z"/></svg>