<svg xmlns="http://www.w3.org/2000/svg" viewBox="0 0 48 48"><path fill="#50e6ff" d="M40,42H8c-1.105,0-2-0.895-2-2V8c0-1.105,0.895-2,2-2h32c1.105,0,2,0.895,2,2v32 C42,41.105,41.105,42,40,42z"/><linearGradient id="sXjK4xZPdo2MY9uy791Xya" x1="16.166" x2="31.717" y1="49.481" y2="33.931" gradientUnits="userSpaceOnUse"><stop offset="0" stop-color="#33bef0"/><stop offset="1" stop-color="#0a85d9"/></linearGradient><path fill="url(#sXjK4xZPdo2MY9uy791Xya)" d="M39.315,42c-1.984-4.135-8.087-7.429-15.315-7.429S10.669,37.865,8.685,42H39.315z"/><path fill="#d6a121" d="M29,35.725C29,37.278,26.17,39,24,39s-5-1.722-5-3.275c0-2.159,0-5.76,0-5.76h10 C29,29.965,29,33.566,29,35.725z"/><linearGradient id="sXjK4xZPdo2MY9uy791Xyb" x1="32.917" x2="34.251" y1="-858" y2="-858" gradientTransform="matrix(1 0 0 -1 0 -834)" gradientUnits="userSpaceOnUse"><stop offset="0" stop-color="#c48f0c"/><stop offset=".251" stop-color="#d19b16"/><stop offset=".619" stop-color="#dca51f"/><stop offset="1" stop-color="#e0a922"/></linearGradient><path fill="url(#sXjK4xZPdo2MY9uy791Xyb)" d="M32.916,22h-0.527v4h0.703c0.515,0,0.954-0.312,1.041-0.74l0.344-1.703 C34.642,22.743,33.897,22,32.916,22z"/><linearGradient id="sXjK4xZPdo2MY9uy791Xyc" x1="-1725.083" x2="-1723.749" y1="-858" y2="-858" gradientTransform="rotate(180 -855 -417)" gradientUnits="userSpaceOnUse"><stop offset="0" stop-color="#c48f0c"/><stop offset=".251" stop-color="#d19b16"/><stop offset=".619" stop-color="#dca51f"/><stop offset="1" stop-color="#e0a922"/></linearGradient><path fill="url(#sXjK4xZPdo2MY9uy791Xyc)" d="M15.084,22h0.527v4h-0.703c-0.515,0-0.954-0.312-1.041-0.74l-0.344-1.703 C13.358,22.743,14.103,22,15.084,22z"/><radialGradient id="sXjK4xZPdo2MY9uy791Xyd" cx="98.548" cy="-1040.378" r="12.224" gradientTransform="matrix(.8816 0 0 -.8816 -62.88 -894.497)" gradientUnits="userSpaceOnUse"><stop offset="0" stop-color="#ffcf54"/><stop offset=".261" stop-color="#fdcb4d"/><stop offset=".639" stop-color="#f7c13a"/><stop offset="1" stop-color="#f0b421"/></radialGradient><path fill="url(#sXjK4xZPdo2MY9uy791Xyd)" d="M24,10.4c-4.441,0-9,0.675-9,10.275c0,0.768,0,5.877,0,6.698C15,30.8,20.4,35,24,35 s9-4.2,9-7.627c0-0.821,0-5.929,0-6.698C33,11.075,28.441,10.4,24,10.4z"/><radialGradient id="sXjK4xZPdo2MY9uy791Xye" cx="88.846" cy="-1026.723" r="28.915" gradientTransform="matrix(.8816 0 0 -.8816 -62.88 -894.497)" gradientUnits="userSpaceOnUse"><stop offset="0" stop-color="#c26715"/><stop offset=".508" stop-color="#b85515"/><stop offset="1" stop-color="#ad3f16"/></radialGradient><path fill="url(#sXjK4xZPdo2MY9uy791Xye)" d="M24,9.545c-4.354,0-5,1.636-5,1.636c-1.77,0.261-5,2.854-5,5.818c0,1.654,0.265,2.876,1,7 c0.545-6.545,2.249-9,4-9c1.267,0,2.273,1,5,1c2.303,0,2.875-1,5-1c3,0,4,7.968,4,9c0.601-3.01,1-5.555,1-7 C34,13.57,30.209,9.545,24,9.545z"/><radialGradient id="sXjK4xZPdo2MY9uy791Xyf" cx="125.239" cy="-1028.659" r="33.398" gradientTransform="matrix(.8431 0 0 -.8816 -83.021 -894.497)" gradientUnits="userSpaceOnUse"><stop offset="0" stop-color="#c26715"/><stop offset=".508" stop-color="#b85515"/><stop offset="1" stop-color="#ad3f16"/></radialGradient><path fill="url(#sXjK4xZPdo2MY9uy791Xyf)" d="M24.219,9c-4.164,0-5.216,2.182-5.216,2.182c-0.042,1.159,0.522,2.182,0.522,2.182 S20.285,15,24.625,15C27.245,15,31,13.365,31,9C31,9,30.157,9,24.219,9z"/></svg>