<svg xmlns="http://www.w3.org/2000/svg" viewBox="0 0 48 48"><linearGradient id="0O00DwHkUTPyiBjey-hw4a" x1="8.078" x2="26.291" y1="13.095" y2="38.457" gradientUnits="userSpaceOnUse"><stop offset="0" stop-color="#4b4b4b"/><stop offset=".531" stop-color="#393939"/><stop offset="1" stop-color="#252525"/></linearGradient><path fill="url(#0O00DwHkUTPyiBjey-hw4a)" d="M32,42H7c-1.105,0-2-0.895-2-2V18c0-1.105,0.895-2,2-2h25c1.105,0,2,0.895,2,2v22	C34,41.105,33.105,42,32,42z"/><path fill="#090a0a" d="M33.512,16.704c0.015,0.097,0.03,0.195,0.03,0.296v22.963c0,0.573-0.464,1.037-1.037,1.037H6.542	c-0.607,0-1.145-0.277-1.512-0.704C5.174,41.259,5.997,42,7,42h25c1.105,0,2-0.895,2-2V18C34,17.503,33.812,17.054,33.512,16.704z"/><path d="M32,16H13v14c0,1.654,1.346,3,3,3h18V18C34,16.895,33.105,16,32,16z" opacity=".05"/><path d="M32,16H13.5v14c0,1.378,1.122,2.5,2.5,2.5h18V18C34,16.895,33.105,16,32,16z" opacity=".07"/><path fill="#7f8387" d="M42.512,6.683c0.015,0.097,0.03,0.195,0.03,0.296v22.846c0,0.637-0.517,1.154-1.154,1.154H15.542	c-0.607,0-1.145-0.277-1.512-0.704c0.144,0.963,0.967,1.704,1.97,1.704h25c1.105,0,2-0.895,2-2v-22	C43,7.482,42.812,7.033,42.512,6.683z"/><linearGradient id="0O00DwHkUTPyiBjey-hw4b" x1="2.823" x2="38.496" y1="-8.644" y2="29.762" gradientUnits="userSpaceOnUse"><stop offset="0" stop-color="#fafafb" stop-opacity=".3"/><stop offset=".797" stop-color="#d3d7da" stop-opacity=".778"/><stop offset="1" stop-color="#c8cdd1" stop-opacity=".9"/></linearGradient><path fill="url(#0O00DwHkUTPyiBjey-hw4b)" d="M41,32H16c-1.105,0-2-0.895-2-2V8c0-1.105,0.895-2,2-2h25c1.105,0,2,0.895,2,2v22	C43,31.105,42.105,32,41,32z"/></svg>