<svg xmlns="http://www.w3.org/2000/svg" data-name="Слой 1" viewBox="0 0 48 48"><path fill="#35c1f1" d="M41,19.2H7V40.1A1.894,1.894,0,0,0,8.88887,42H39.11111A1.894,1.894,0,0,0,41,40.1Z"/><path fill="#50e6ff" d="M11.49932,6H36.49971a1.88787,1.88787,0,0,1,1.87378,1.65372l2.61327,11.24111A1.88805,1.88805,0,0,1,39.1111,21H8.88888a1.88929,1.88929,0,0,1-1.87662-2.10517L9.62554,7.65372A1.88857,1.88857,0,0,1,11.49932,6Z"/><circle cx="24" cy="8" r="1" fill="#64717c"/><circle cx="24" cy="12" r="1" fill="#64717c"/><circle cx="24" cy="16" r="1" fill="#64717c"/><circle cx="24" cy="20" r="1" fill="#64717c"/><circle cx="24" cy="24" r="1" fill="#64717c"/><circle cx="24" cy="28" r="1" fill="#64717c"/><circle cx="24" cy="32" r="1" fill="#64717c"/><circle cx="24" cy="36" r="1" fill="#64717c"/><circle cx="24" cy="40" r="1" fill="#64717c"/><circle cx="24" cy="44" r="1" fill="#64717c"/><circle cx="24" cy="4" r="1" fill="#64717c"/></svg>