<svg xmlns="http://www.w3.org/2000/svg" viewBox="0 0 48 48"><linearGradient id="PIGaQc0QOfkeZcmQcZ_yna" x1="16.464" x2="16.464" y1="17.891" y2="35.829" gradientUnits="userSpaceOnUse"><stop offset="0" stop-color="#a34f27"/><stop offset=".587" stop-color="#8b3817"/><stop offset="1" stop-color="#802d10"/></linearGradient><path fill="url(#PIGaQc0QOfkeZcmQcZ_yna)" d="M12,32.743c0.172-2.222,1.142-4.286,2.54-5.789c0.698-0.759,1.494-1.399,2.368-1.906	c0.877-0.503,1.829-0.889,2.895-1.036c0.547-0.076,1.052,0.307,1.127,0.854c0.066,0.478-0.217,0.923-0.654,1.079l-0.081,0.029	c-1.317,0.47-2.541,1.589-3.291,2.826c-0.769,1.253-1.063,2.651-0.906,3.943c0.134,1.104-0.652,2.108-1.756,2.242	c-1.104,0.134-2.108-0.652-2.242-1.756c-0.016-0.131-0.019-0.26-0.01-0.387L12,32.743z"/><linearGradient id="PIGaQc0QOfkeZcmQcZ_ynb" x1="31.523" x2="31.523" y1="17.891" y2="35.829" gradientUnits="userSpaceOnUse"><stop offset="0" stop-color="#a34f27"/><stop offset=".587" stop-color="#8b3817"/><stop offset="1" stop-color="#802d10"/></linearGradient><path fill="url(#PIGaQc0QOfkeZcmQcZ_ynb)" d="M35.987,32.743c-0.172-2.222-1.142-4.286-2.54-5.789c-0.698-0.759-1.494-1.399-2.368-1.906	c-0.877-0.503-1.829-0.889-2.895-1.036c-0.547-0.076-1.052,0.307-1.127,0.854c-0.066,0.478,0.217,0.923,0.654,1.079l0.081,0.029	c1.317,0.47,2.541,1.589,3.291,2.826c0.769,1.253,1.063,2.651,0.906,3.943c-0.134,1.104,0.652,2.108,1.756,2.242	c1.104,0.134,2.108-0.652,2.242-1.756c0.016-0.131,0.019-0.26,0.01-0.387L35.987,32.743z"/><linearGradient id="PIGaQc0QOfkeZcmQcZ_ync" x1="24" x2="24" y1="19.913" y2="30.057" gradientUnits="userSpaceOnUse"><stop offset="0" stop-color="#a34f27"/><stop offset=".587" stop-color="#8b3817"/><stop offset="1" stop-color="#802d10"/></linearGradient><ellipse cx="24" cy="32" fill="url(#PIGaQc0QOfkeZcmQcZ_ync)" rx="7" ry="9"/><linearGradient id="PIGaQc0QOfkeZcmQcZ_ynd" x1="24" x2="24" y1="36.413" y2="23.172" gradientUnits="userSpaceOnUse"><stop offset="0" stop-color="#f5b967"/><stop offset="1" stop-color="#eba84b"/></linearGradient><ellipse cx="24" cy="29" fill="url(#PIGaQc0QOfkeZcmQcZ_ynd)" rx="5" ry="6"/><radialGradient id="PIGaQc0QOfkeZcmQcZ_yne" cx="10.87" cy="43.717" r="11.36" gradientUnits="userSpaceOnUse"><stop offset="0" stop-color="#a34f27"/><stop offset=".587" stop-color="#8b3817"/><stop offset="1" stop-color="#802d10"/></radialGradient><path fill="url(#PIGaQc0QOfkeZcmQcZ_yne)" d="M23,42.5c0-2.485-2.015-4.5-4.5-4.5S14,40.015,14,42.5c0,1,2.015,1.75,4.5,1.75	S23,43.5,23,42.5z"/><radialGradient id="PIGaQc0QOfkeZcmQcZ_ynf" cx="35.717" cy="42.674" r="9.3" gradientUnits="userSpaceOnUse"><stop offset="0" stop-color="#a34f27"/><stop offset=".587" stop-color="#8b3817"/><stop offset="1" stop-color="#802d10"/></radialGradient><path fill="url(#PIGaQc0QOfkeZcmQcZ_ynf)" d="M34,42.5c0-2.485-2.015-4.5-4.5-4.5S25,40.015,25,42.5c0,1,2.015,1.75,4.5,1.75	S34,43.5,34,42.5z"/><radialGradient id="PIGaQc0QOfkeZcmQcZ_yng" cx="2.261" cy="10.391" r="22.078" gradientUnits="userSpaceOnUse"><stop offset="0" stop-color="#a34f27"/><stop offset=".587" stop-color="#8b3817"/><stop offset="1" stop-color="#802d10"/></radialGradient><circle cx="9" cy="15" r="8" fill="url(#PIGaQc0QOfkeZcmQcZ_yng)"/><circle cx="9" cy="15" r="6" fill="#5c2415"/><radialGradient id="PIGaQc0QOfkeZcmQcZ_ynh" cx="44.065" cy="11.239" r="18.03" gradientUnits="userSpaceOnUse"><stop offset="0" stop-color="#a34f27"/><stop offset=".587" stop-color="#8b3817"/><stop offset="1" stop-color="#802d10"/></radialGradient><circle cx="39" cy="15" r="8" fill="url(#PIGaQc0QOfkeZcmQcZ_ynh)"/><circle cx="39" cy="15" r="6" fill="#5c2415"/><radialGradient id="PIGaQc0QOfkeZcmQcZ_yni" cx="18.174" cy="9.087" r="21.916" gradientUnits="userSpaceOnUse"><stop offset="0" stop-color="#a34f27"/><stop offset=".587" stop-color="#8b3817"/><stop offset="1" stop-color="#802d10"/></radialGradient><ellipse cx="24" cy="15" fill="url(#PIGaQc0QOfkeZcmQcZ_yni)" rx="12" ry="10"/><linearGradient id="PIGaQc0QOfkeZcmQcZ_ynj" x1="20.314" x2="28.772" y1="4.874" y2="28.11" gradientUnits="userSpaceOnUse"><stop offset="0" stop-color="#f5b967"/><stop offset="1" stop-color="#eba84b"/></linearGradient><ellipse cx="24" cy="15" fill="url(#PIGaQc0QOfkeZcmQcZ_ynj)" rx="10" ry="8"/><circle cx="19" cy="15.5" r="2.5" fill="#fff"/><circle cx="19" cy="16" r="2" fill="#343434"/><circle cx="29" cy="15.5" r="2.5" fill="#fff"/><polygon fill="#5c2415" points="23,19 24,17 25,19"/><circle cx="20.25" cy="14.75" r=".75" fill="#fff"/><circle cx="29" cy="16" r="2" fill="#343434"/><circle cx="30.25" cy="14.75" r=".75" fill="#fff"/><path fill="#5c2415" d="M18,11c-0.128,0-0.256-0.049-0.354-0.146c-0.195-0.195-0.195-0.512,0-0.707	C18.45,9.343,19.303,9,20.5,9C20.776,9,21,9.224,21,9.5S20.776,10,20.5,10c-0.93,0-1.532,0.239-2.146,0.854	C18.256,10.951,18.128,11,18,11z"/><path fill="#5c2415" d="M30,11c-0.128,0-0.256-0.049-0.354-0.146C29.032,10.239,28.43,10,27.5,10C27.224,10,27,9.776,27,9.5	S27.224,9,27.5,9c1.197,0,2.05,0.343,2.854,1.146c0.195,0.195,0.195,0.512,0,0.707C30.256,10.951,30.128,11,30,11z"/><path fill="#b31523" d="M22,20c0.75,0.5,3.25,0.5,4,0c-0.25,1-1,1.5-2,1.5S22.25,21,22,20z"/><path d="M29.62,24.37c-0.25-0.09-0.51-0.17-0.77-0.23C27.37,24.7,25.73,25,24,25s-3.37-0.3-4.86-0.86 c-0.26,0.06-0.51,0.14-0.76,0.23c-0.22,0.07-0.44,0.16-0.65,0.26c1.86,0.88,4,1.37,6.27,1.37s4.41-0.49,6.27-1.37 C30.06,24.54,29.84,24.45,29.62,24.37z M34.43,8.44c-0.14,0.09-0.27,0.19-0.4,0.3c-0.13,0.09-0.26,0.2-0.38,0.31 C35.13,10.71,36,12.77,36,15c0,2.23-0.87,4.29-2.35,5.95c0.12,0.11,0.25,0.22,0.38,0.31c0.13,0.11,0.26,0.21,0.4,0.3 C36.04,19.73,37,17.46,37,15C37,12.54,36.04,10.27,34.43,8.44z M13.97,8.74c-0.13-0.11-0.26-0.21-0.4-0.3 C11.96,10.27,11,12.54,11,15c0,2.46,0.96,4.73,2.57,6.56c0.14-0.09,0.27-0.19,0.4-0.3c0.13-0.09,0.26-0.2,0.38-0.31 C12.87,19.29,12,17.23,12,15c0-2.23,0.87-4.29,2.35-5.95C14.23,8.94,14.1,8.83,13.97,8.74z" opacity=".05"/><path d="M28.85,24.14C27.37,24.7,25.73,25,24,25s-3.37-0.3-4.86-0.86c-0.26,0.06-0.51,0.14-0.76,0.23 c1.69,0.72,3.6,1.13,5.62,1.13s3.93-0.41,5.62-1.13C29.37,24.28,29.11,24.2,28.85,24.14z M34.03,8.74 c-0.13,0.09-0.26,0.2-0.38,0.31C35.13,10.71,36,12.77,36,15c0,2.23-0.87,4.29-2.35,5.95c0.12,0.11,0.25,0.22,0.38,0.31 c1.55-1.75,2.47-3.91,2.47-6.26C36.5,12.65,35.58,10.49,34.03,8.74z M13.97,8.74c-1.55,1.75-2.47,3.91-2.47,6.26 c0,2.35,0.92,4.51,2.47,6.26c0.13-0.09,0.26-0.2,0.38-0.31C12.87,19.29,12,17.23,12,15c0-2.23,0.87-4.29,2.35-5.95 C14.23,8.94,14.1,8.83,13.97,8.74z" opacity=".07"/><path d="M18.5,37c-0.11,0-0.22,0-0.32,0.02c0.09,0.17,0.18,0.32,0.29,0.48c0.09,0.18,0.2,0.35,0.34,0.51 c1.77,0.12,3.25,1.25,3.87,2.83c0.19,0.05,0.38,0.08,0.58,0.11c0.18,0.02,0.35,0.04,0.53,0.04C23.13,38.69,21.01,37,18.5,37z" opacity=".05"/><path d="M18.5,37.5h-0.03c0.09,0.18,0.2,0.35,0.34,0.51c1.77,0.12,3.25,1.25,3.87,2.83c0.19,0.05,0.38,0.08,0.58,0.11 C22.6,38.95,20.72,37.5,18.5,37.5z" opacity=".07"/><g><path d="M29.5,37c-2.51,0-4.63,1.69-5.29,3.99c0.18,0,0.35-0.02,0.53-0.04c0.2-0.03,0.39-0.06,0.58-0.11 c0.62-1.58,2.1-2.71,3.87-2.83c0.14-0.16,0.25-0.33,0.34-0.51c0.11-0.16,0.2-0.31,0.29-0.48C29.72,37,29.61,37,29.5,37z" opacity=".05"/><path d="M29.5,37.5c-2.22,0-4.1,1.45-4.76,3.45c0.2-0.03,0.39-0.06,0.58-0.11c0.62-1.58,2.1-2.71,3.87-2.83 c0.14-0.16,0.25-0.33,0.34-0.51H29.5z" opacity=".07"/></g></svg>