<svg xmlns="http://www.w3.org/2000/svg" viewBox="0 0 48 48"><linearGradient id="MZXTt1IGxMhuWggkw3ypZa" x1="4" x2="44" y1="16" y2="16" gradientUnits="userSpaceOnUse"><stop offset="0" stop-color="#912fbd"/><stop offset="1" stop-color="#9332bf"/></linearGradient><path fill="url(#MZXTt1IGxMhuWggkw3ypZa)" d="M44,23c0,1.657-1.343,3-3,3H7c-1.657,0-3-1.343-3-3V9c0-1.657,1.343-3,3-3h34	c1.657,0,3,1.343,3,3V23z"/><path fill="#f3e5f5" d="M40,21v-7.353c0-0.256-0.11-0.497-0.303-0.664C39.465,12.78,37.563,11,32.531,11	s-6.996,1.78-7.229,1.983C25.11,13.15,25,13.392,25,13.647V19L40,21z M8,21v-7.353c0-0.256,0.11-0.497,0.303-0.664	C8.535,12.78,10.438,11,15.469,11s6.996,1.78,7.229,1.983C22.89,13.15,23,13.392,23,13.647V19L8,21z"/><linearGradient id="MZXTt1IGxMhuWggkw3ypZb" x1="24" x2="24" y1="41.969" y2="32.834" gradientUnits="userSpaceOnUse"><stop offset="0" stop-color="#7819a2"/><stop offset="1" stop-color="#771aa9"/></linearGradient><path fill="url(#MZXTt1IGxMhuWggkw3ypZb)" d="M45,42h-4c-0.552,0-1-0.448-1-1v-3H8v3c0,0.552-0.448,1-1,1H3c-0.552,0-1-0.448-1-1v-8h44v8	C46,41.552,45.552,42,45,42z"/><linearGradient id="MZXTt1IGxMhuWggkw3ypZc" x1="2" x2="46" y1="25.052" y2="25.052" gradientUnits="userSpaceOnUse"><stop offset="0" stop-color="#c965eb"/><stop offset="1" stop-color="#c767e5"/></linearGradient><path fill="url(#MZXTt1IGxMhuWggkw3ypZc)" d="M46,33H2v-2c0-10.992,3.252-13.895,21.526-13.895C40.959,17.105,46,19.446,46,31V33z"/></svg>