<svg xmlns="http://www.w3.org/2000/svg" viewBox="0 0 48 48"><linearGradient id="ZD4069vuLlIhVyhsaRzBAa" x1="31.456" x2="31.456" y1="6.209" y2="46.263" gradientUnits="userSpaceOnUse"><stop offset="0" stop-color="#eba600"/><stop offset=".299" stop-color="#e6a200"/><stop offset=".643" stop-color="#d89600"/><stop offset="1" stop-color="#c28200"/></linearGradient><path fill="url(#ZD4069vuLlIhVyhsaRzBAa)" d="M36.984,12.28c0,0,0.08-7-5.5-7c-5.166,0-5.5,7-5.5,7l-0.056,19.862l0.052,12.197	c0.002,0.551,0.449,0.996,1,0.996h9.004c0.552,0,1-0.448,1-1V34.28V12.28z"/><linearGradient id="ZD4069vuLlIhVyhsaRzBAb" x1="31.468" x2="31.468" y1="21.267" y2="32.289" gradientUnits="userSpaceOnUse"><stop offset="0" stop-color="#28afea"/><stop offset="1" stop-color="#047ed6"/></linearGradient><path fill="url(#ZD4069vuLlIhVyhsaRzBAb)" d="M25.972,26.705l0.021,5.584h10.97l0-5.584c-0.687-3.399-2.928-5.438-5.496-5.438	C28.89,21.267,26.247,23.136,25.972,26.705z"/><linearGradient id="ZD4069vuLlIhVyhsaRzBAc" x1="31.495" x2="31.495" y1="23.262" y2="31" gradientUnits="userSpaceOnUse"><stop offset="0" stop-color="#32bdef"/><stop offset="1" stop-color="#1ea2e4"/></linearGradient><path fill="url(#ZD4069vuLlIhVyhsaRzBAc)" d="M26.99,27.094l0,3.906h8.993L36,27.094c-0.563-2.395-2.401-3.832-4.505-3.832	C29.382,23.262,27.215,24.579,26.99,27.094z"/><linearGradient id="ZD4069vuLlIhVyhsaRzBAd" x1="16.484" x2="16.484" y1="5.124" y2="45.464" gradientUnits="userSpaceOnUse"><stop offset="0" stop-color="#eba600"/><stop offset=".299" stop-color="#e6a200"/><stop offset=".643" stop-color="#d89600"/><stop offset="1" stop-color="#c28200"/></linearGradient><path fill="url(#ZD4069vuLlIhVyhsaRzBAd)" d="M21.984,12.28c0,0-0.04-7-5.625-7c-5.172,0-5.375,7-5.375,7v32.08	c0,0.553,0.449,1.001,1.003,1l9-0.023c0.551-0.001,0.997-0.449,0.997-1V12.28z"/><linearGradient id="ZD4069vuLlIhVyhsaRzBAe" x1="16.495" x2="16.495" y1="21.267" y2="32.259" gradientUnits="userSpaceOnUse"><stop offset="0" stop-color="#28afea"/><stop offset="1" stop-color="#047ed6"/></linearGradient><path fill="url(#ZD4069vuLlIhVyhsaRzBAe)" d="M10.994,26.711l0,5.548h10.982l0.021-5.548c-0.688-3.402-2.931-5.444-5.501-5.444	C13.914,21.267,11.269,23.138,10.994,26.711z"/><linearGradient id="ZD4069vuLlIhVyhsaRzBAf" x1="16.495" x2="16.495" y1="23.262" y2="31" gradientUnits="userSpaceOnUse"><stop offset="0" stop-color="#32bdef"/><stop offset="1" stop-color="#1ea2e4"/></linearGradient><path fill="url(#ZD4069vuLlIhVyhsaRzBAf)" d="M11.99,27.094l0,3.906h8.993L21,27.094c-0.563-2.395-2.401-3.832-4.505-3.832	C14.382,23.262,12.215,24.579,11.99,27.094z"/><path fill="#bdbdbd" d="M42.986,46.264c-0.537,0-0.973-0.377-0.973-0.842V16.518c0-0.465,0.436-0.842,0.973-0.842 s0.973,0.377,0.973,0.842v28.904C43.959,45.887,43.523,46.264,42.986,46.264z"/><path fill="#bdbdbd" d="M4.986,46.264c-0.537,0-0.973-0.377-0.973-0.842V16.518c0-0.465,0.436-0.842,0.973-0.842 s0.973,0.377,0.973,0.842v28.904C5.959,45.887,5.523,46.264,4.986,46.264z"/><linearGradient id="ZD4069vuLlIhVyhsaRzBAg" x1="42.719" x2="43.247" y1="43.778" y2="40.781" gradientUnits="userSpaceOnUse"><stop offset="0" stop-color="#889097"/><stop offset="1" stop-color="#64717c"/></linearGradient><path fill="url(#ZD4069vuLlIhVyhsaRzBAg)" d="M45.984,43.28h-6c-0.553,0-1.006-0.438-1.006-0.996c0-0.558,0.453-1.004,1.006-1.004h6 c0.553,0,1.002,0.446,1.002,1.004C46.986,42.841,46.537,43.28,45.984,43.28z"/><linearGradient id="ZD4069vuLlIhVyhsaRzBAh" x1="4.719" x2="5.247" y1="43.778" y2="40.781" gradientUnits="userSpaceOnUse"><stop offset="0" stop-color="#889097"/><stop offset="1" stop-color="#64717c"/></linearGradient><path fill="url(#ZD4069vuLlIhVyhsaRzBAh)" d="M7.984,43.28h-6c-0.553,0-1.006-0.438-1.006-0.996c0-0.558,0.453-1.004,1.006-1.004h6 c0.553,0,1.002,0.446,1.002,1.004C8.986,42.841,8.537,43.28,7.984,43.28z"/><g><linearGradient id="ZD4069vuLlIhVyhsaRzBAi" x1="5.067" x2="4.942" y1="16.362" y2="12.112" gradientTransform="matrix(1 0 0 .928 0 1.173)" gradientUnits="userSpaceOnUse"><stop offset="0" stop-color="#64717c"/><stop offset="1" stop-color="#889097"/></linearGradient><path fill="url(#ZD4069vuLlIhVyhsaRzBAi)" d="M6.978,10.001v7.279c0,0.552-0.448,1-1,1H3.984c-0.552,0-1-0.448-1-1V10c0-0.552,0.448-1,1-1 l1.994,0C6.531,9.001,6.978,9.449,6.978,10.001z"/></g><g><linearGradient id="ZD4069vuLlIhVyhsaRzBAj" x1="42.156" x2="43.806" y1="18.476" y2="8.395" gradientTransform="matrix(1 0 0 .928 0 1.173)" gradientUnits="userSpaceOnUse"><stop offset="0" stop-color="#64717c"/><stop offset="1" stop-color="#889097"/></linearGradient><path fill="url(#ZD4069vuLlIhVyhsaRzBAj)" d="M44.978,10.001v7.279c0,0.552-0.448,1-1,1h-1.994c-0.552,0-1-0.448-1-1V10 c0-0.552,0.448-1,1-1l1.994,0C44.531,9.001,44.978,9.449,44.978,10.001z"/></g></svg>