<svg xmlns="http://www.w3.org/2000/svg" viewBox="0 0 48 48"><linearGradient id="h23nneArgO0GGzJe6dkrDa" x1="10.266" x2="38.175" y1="-518.043" y2="-545.952" gradientTransform="matrix(1 0 0 -1 0 -508)" gradientUnits="userSpaceOnUse"><stop offset=".008" stop-color="#f44f5a"/><stop offset=".447" stop-color="#ee3d4a"/><stop offset="1" stop-color="#e52030"/></linearGradient><path fill="url(#h23nneArgO0GGzJe6dkrDa)" d="M44.223,24c0-2.467-0.468-4.818-1.284-7H5.507c-0.816,2.182-1.284,4.533-1.284,7	s0.468,4.818,1.284,7h37.431C43.755,28.818,44.223,26.467,44.223,24z"/><linearGradient id="h23nneArgO0GGzJe6dkrDb" x1="6.175" x2="34.252" y1="-522.224" y2="-550.302" gradientTransform="matrix(1 0 0 -1 0 -508)" gradientUnits="userSpaceOnUse"><stop offset="0" stop-color="#21ad64"/><stop offset="1" stop-color="#088242"/></linearGradient><path fill="url(#h23nneArgO0GGzJe6dkrDb)" d="M42.939,31H5.507c2.841,7.588,10.137,13,18.716,13S40.098,38.588,42.939,31z"/><linearGradient id="h23nneArgO0GGzJe6dkrDc" x1="14.52" x2="42.482" y1="-514.024" y2="-541.986" gradientTransform="matrix(1 0 0 -1 0 -508)" gradientUnits="userSpaceOnUse"><stop offset="0" stop-color="#0d61a9"/><stop offset="1" stop-color="#16528c"/></linearGradient><path fill="url(#h23nneArgO0GGzJe6dkrDc)" d="M24.223,4C15.644,4,8.348,9.412,5.507,17h37.431C40.098,9.412,32.802,4,24.223,4z"/><path fill="#f0f4f7" d="M23.922,27.332c-1.84,0-3.332-1.492-3.332-3.332s1.492-3.332,3.332-3.332	c0.88,0,1.674,0.348,2.27,0.905C25.461,20.622,24.324,20,23.031,20c-2.207,0-4,1.789-4,4s1.793,4,4,4	c1.293,0,2.43-0.622,3.161-1.573C25.596,26.984,24.802,27.332,23.922,27.332z"/><path fill="#f0f4f7" d="M27.777,21.777l0.426,1.195l1.145-0.543l-0.543,1.145L30,24l-1.195,0.426l0.543,1.145l-1.145-0.543	l-0.426,1.195l-0.426-1.195l-1.145,0.543l0.547-1.145L25.555,24l1.199-0.426l-0.547-1.145l1.145,0.543L27.777,21.777z"/></svg>