<svg xmlns="http://www.w3.org/2000/svg" viewBox="0 0 48 48"><radialGradient id="06sYReoZ~2EH7LCzK0XMOa" cx="137.832" cy="2664.192" r="9.99" gradientTransform="matrix(.9495 0 0 1 -115.041 -2647.89)" gradientUnits="userSpaceOnUse"><stop offset=".376" stop-color="#261103"/><stop offset=".68" stop-color="#431d06"/><stop offset="1" stop-color="#662c09"/></radialGradient><path fill="url(#06sYReoZ~2EH7LCzK0XMOa)" d="M15.993,7.263c-7.123,0-8.89,12.113-8.89,12.113c0,2.157,0.951,4.046,2.942,4.547 c1.94,0.512,3.938,0.79,5.947,0.827c2.01-0.038,4.007-0.315,5.947-0.826c1.992-0.501,2.942-2.391,2.942-4.547 C24.883,19.376,23.116,7.263,15.993,7.263z"/><linearGradient id="06sYReoZ~2EH7LCzK0XMOb" x1="12.585" x2="17.439" y1="-5308.209" y2="-5324.906" gradientTransform="matrix(1 0 0 -1 0 -5283.89)" gradientUnits="userSpaceOnUse"><stop offset="0" stop-color="#f44f5a"/><stop offset=".443" stop-color="#ee3d4a"/><stop offset="1" stop-color="#e52030"/></linearGradient><path fill="url(#06sYReoZ~2EH7LCzK0XMOb)" d="M16,24.571c-6.075,0-11,3.579-11,7.268v8.885C5,41.429,5.571,42,6.276,42H26 c0.552,0,1-0.448,1-1v-9.161C27,28.151,22.075,24.571,16,24.571z"/><path fill="#d6a121" d="M19,25.6c0,1.138-1.2,2.4-3,2.4s-3-1.262-3-2.4c0-1.582,0-4.221,0-4.221h6 C19,21.379,19,24.018,19,25.6z"/><radialGradient id="06sYReoZ~2EH7LCzK0XMOc" cx="177.417" cy="-5655.423" r="7.503" gradientTransform="matrix(.92 0 0 -.92 -147.224 -5186.69)" gradientUnits="userSpaceOnUse"><stop offset="0" stop-color="#ffcf54"/><stop offset=".261" stop-color="#fdcb4d"/><stop offset=".639" stop-color="#f7c13a"/><stop offset="1" stop-color="#f0b421"/></radialGradient><path fill="url(#06sYReoZ~2EH7LCzK0XMOc)" d="M16,8.6c-2.961,0-6,0.45-6,6.85c0,0.512,0,2.918,0,3.465C10,21.2,13.6,24,16,24 s6-2.8,6-5.085c0-0.547,0-2.953,0-3.465C22,9.05,18.961,8.6,16,8.6z"/><radialGradient id="06sYReoZ~2EH7LCzK0XMOd" cx="11.073" cy="2305.407" r="22.83" gradientTransform="matrix(1 0 0 .9444 0 -2170.968)" gradientUnits="userSpaceOnUse"><stop offset="0" stop-color="#c26715"/><stop offset=".508" stop-color="#b85515"/><stop offset="1" stop-color="#ad3f16"/></radialGradient><path fill="url(#06sYReoZ~2EH7LCzK0XMOd)" d="M16,6c-3.891,0-4.5,2.125-4.5,2.125C9.918,8.345,7,7.786,7,19.458 c0,2.692,1.654,3.976,2.25,4.132c-1.95-10.175,3.963-7.301,3.197-13.285c2.896,7.205,11.37-1.866,11.053,12.782 c0.699-0.742,1.5-1.859,1.5-3.629C25,9.679,21.549,6,16,6z"/><linearGradient id="06sYReoZ~2EH7LCzK0XMOe" x1="31.977" x2="36.022" y1="811.426" y2="822.572" gradientTransform="translate(0 -794)" gradientUnits="userSpaceOnUse"><stop offset="0" stop-color="#ffcf54"/><stop offset=".261" stop-color="#fdcb4d"/><stop offset=".639" stop-color="#f7c13a"/><stop offset="1" stop-color="#f0b421"/></linearGradient><path fill="url(#06sYReoZ~2EH7LCzK0XMOe)" d="M34,29c-3.3,0-6-2.7-6-6s2.7-6,6-6s6,2.7,6,6S37.3,29,34,29"/><linearGradient id="06sYReoZ~2EH7LCzK0XMOf" x1="32.591" x2="34.472" y1="825.075" y2="835.01" gradientTransform="translate(0 -794)" gradientUnits="userSpaceOnUse"><stop offset="0" stop-color="#32bdef"/><stop offset="1" stop-color="#1ea2e4"/></linearGradient><path fill="url(#06sYReoZ~2EH7LCzK0XMOf)" d="M26,40v-2.333C26,33.991,28.991,31,32.667,31h2.667C39.009,31,42,33.991,42,37.667V40H26z"/><linearGradient id="06sYReoZ~2EH7LCzK0XMOg" x1="32.651" x2="35.127" y1="825.185" y2="838.263" gradientTransform="translate(0 -794)" gradientUnits="userSpaceOnUse"><stop offset="0" stop-color="#32bdef"/><stop offset="1" stop-color="#1ea2e4"/></linearGradient><path fill="url(#06sYReoZ~2EH7LCzK0XMOg)" d="M35,31h-2c-2.209,0-4,1.791-4,4v7h10v-7C39,32.791,37.209,31,35,31z"/><linearGradient id="06sYReoZ~2EH7LCzK0XMOh" x1="39.793" x2="41.497" y1="38.428" y2="42.215" gradientUnits="userSpaceOnUse"><stop offset="0" stop-color="#ffcf54"/><stop offset=".261" stop-color="#fdcb4d"/><stop offset=".639" stop-color="#f7c13a"/><stop offset="1" stop-color="#f0b421"/></linearGradient><path fill="url(#06sYReoZ~2EH7LCzK0XMOh)" d="M42,41.062V38h-3v4h2.062C41.58,42,42,41.58,42,41.062z"/><linearGradient id="06sYReoZ~2EH7LCzK0XMOi" x1="26.812" x2="28.629" y1="38.471" y2="42.508" gradientUnits="userSpaceOnUse"><stop offset="0" stop-color="#ffcf54"/><stop offset=".261" stop-color="#fdcb4d"/><stop offset=".639" stop-color="#f7c13a"/><stop offset="1" stop-color="#f0b421"/></linearGradient><path fill="url(#06sYReoZ~2EH7LCzK0XMOi)" d="M29,42c0-1.342,0-1.264,0-4h-3c0,0,0,1.49,0,4H29z"/></svg>