<svg xmlns="http://www.w3.org/2000/svg" xmlns:xlink="http://www.w3.org/1999/xlink" data-name="Слой 1" viewBox="0 0 48 48"><defs><linearGradient id="Nb1jxShY8LUXnRBkFmhpDb" x1="39.892" x2="5.262" y1="6.318" y2="34.035" data-name="Безымянный градиент 83" gradientUnits="userSpaceOnUse"><stop offset=".087" stop-color="#dfe9f2"/><stop offset=".291" stop-color="#d6e0e9"/><stop offset=".682" stop-color="#bfc8d1"/><stop offset=".752" stop-color="#889097"/></linearGradient><linearGradient id="Nb1jxShY8LUXnRBkFmhpDa" x1="47.086" x2="7.981" y1="14.803" y2="53.908" data-name="Безымянный градиент 64" gradientUnits="userSpaceOnUse"><stop offset="0" stop-color="#6d6d6d"/><stop offset=".126" stop-color="#626262"/><stop offset=".987" stop-color="#464646"/><stop offset=".998" stop-color="#454545"/></linearGradient><linearGradient id="Nb1jxShY8LUXnRBkFmhpDc" x1="18.441" x2="-1.437" y1="25.485" y2="45.363" data-name="Безымянный градиент 62" xlink:href="#Nb1jxShY8LUXnRBkFmhpDa"/><linearGradient id="Nb1jxShY8LUXnRBkFmhpDd" x1="7.979" x2="15.306" y1="21.5" y2="28.828" data-name="Безымянный градиент 63" xlink:href="#Nb1jxShY8LUXnRBkFmhpDa"/><linearGradient id="Nb1jxShY8LUXnRBkFmhpDe" x1="21.394" x2="26.349" y1="33.91" y2="38.865" data-name="Безымянный градиент 121" gradientUnits="userSpaceOnUse"><stop offset="0" stop-color="#f44f5a"/><stop offset=".443" stop-color="#ee3d4a"/><stop offset="1" stop-color="#e52030"/></linearGradient></defs><path fill="url(#Nb1jxShY8LUXnRBkFmhpDb)" d="M34.48388,13.505a125.05989,125.05989,0,0,1-16.88,17.97l-4.02-4.58c8.12-7.05,16.11005-15.67,21.17005-23.76a.272.272,0,0,1,.47,0C36.70385,5.795,36.3839,11.125,34.48388,13.505Z"/><path fill="url(#Nb1jxShY8LUXnRBkFmhpDa)" d="M43.41387,21.765a107.88421,107.88421,0,0,1-14.98,16.6c-.99.9-2,1.78-3.02,2.63-1.67,1.4-3.38,2.75-5.12,4.03a.66717.66717,0,0,1-.95-.15l-2.73-3.76a.659.659,0,0,1,.14-.93q2.38494-1.755,4.67-3.67c1.02-.85,2.03-1.73,3.02-2.62a101.69312,101.69312,0,0,0,14.04-15.55,3.06413,3.06413,0,0,1,3.74-1.07A2.99346,2.99346,0,0,1,43.41387,21.765Z"/><path fill="url(#Nb1jxShY8LUXnRBkFmhpDc)" d="M17.60387,31.475c-2.63,2.26-5.53,4.53-8.86,6.96a3.00608,3.00608,0,0,1-4.38-.96,3.10994,3.10994,0,0,1,.98-3.99c2.69-1.96,5.47-4.18,8.24-6.59Z"/><path fill="url(#Nb1jxShY8LUXnRBkFmhpDd)" d="M18.98388,34.005a1.00075,1.00075,0,0,1-.75586-.34473l-6.5-7.5a1.00035,1.00035,0,1,1,1.51172-1.31054l6.5,7.5a1,1,0,0,1-.75586,1.65527Z"/><path fill="url(#Nb1jxShY8LUXnRBkFmhpDe)" d="M28.43389,38.365c-.99.9-2,1.78-3.02,2.63-.6-.68-1.26-1.42-1.92-2.16-.71-.8-1.43-1.59-2.07-2.31995,1.02-.85,2.03-1.73,3.02-2.62.63.71,1.33,1.5,2.03,2.28C27.14385,36.925,27.81389,37.675,28.43389,38.365Z"/></svg>