<svg xmlns="http://www.w3.org/2000/svg" viewBox="0 0 48 48"><linearGradient id="r9EcNzPTFfvNMGr8Ch7fta" x1="20.035" x2="32.061" y1="5.373" y2="40.962" gradientUnits="userSpaceOnUse"><stop offset="0" stop-color="#a3ffff"/><stop offset=".223" stop-color="#9dfbff"/><stop offset=".53" stop-color="#8bf1ff"/><stop offset=".885" stop-color="#6ee0ff"/><stop offset="1" stop-color="#63daff"/></linearGradient><path fill="url(#r9EcNzPTFfvNMGr8Ch7fta)" d="M31,6c-4,0-5.73,2-7,2s-3-2-7-2C9,6,6,11.4,6,16.8c0,7.135,3.922,9.84,5,15.2	c0.522,2.594,1.249,10,5,10c6,0,3.334-13,8-13s2,13,8,13c3.751,0,4.478-7.406,5-10c1.078-5.36,5-8.065,5-15.2C42,11.4,39,6,31,6z"/></svg>