<svg xmlns="http://www.w3.org/2000/svg" viewBox="0 0 48 48"><path fill="#33c481" d="M14.381,12.284c-3.692-3.685-1.988-8.788-1.988-8.788l11.361,11.339	C23.753,14.835,18.073,15.969,14.381,12.284z"/><path fill="#21a366" d="M12.393,3.496c0,0,4.828-1.984,8.805,1.984s2.556,9.355,2.556,9.355L12.393,3.496z"/><path fill="#c28200" d="M24,15c-0.553,0-1-0.447-1-1c0-6.341,3.158-9.572,3.293-9.707c0.391-0.391,1.023-0.391,1.414,0	s0.391,1.023,0,1.414C27.684,5.731,25,8.533,25,14C25,14.553,24.553,15,24,15z"/><linearGradient id="zUANLLB12G8ncACS6ecz9a" x1="18.987" x2="30.041" y1="-365.957" y2="-399.949" gradientTransform="matrix(1 0 0 -1 0 -356)" gradientUnits="userSpaceOnUse"><stop offset="0" stop-color="#f44f5a"/><stop offset=".443" stop-color="#ee3d4a"/><stop offset="1" stop-color="#e52030"/></linearGradient><path fill="url(#zUANLLB12G8ncACS6ecz9a)" d="M32,11c-4,0-6,2.466-8,2.466S20,11,16,11C9,11,4,18,4,25c0,9,7,20,15.5,20	c1.249,0,3.5-0.76,4.5-0.76S27.251,45,28.5,45C37,45,44,34,44,25C44,18,39,11,32,11z"/><path d="M42.61,29H13c-1.1,0-2,0.9-2,2v4c0,1.1,0.9,2,2,2h27.36c0.11-0.17,0.21-0.33,0.3-0.5c0.11-0.16,0.2-0.33,0.29-0.5H13 c-0.55,0-1-0.45-1-1v-4c0-0.55,0.45-1,1-1h29.61c0.26,0,0.5,0.1,0.67,0.26c0.05-0.18,0.09-0.36,0.13-0.53 c0.04-0.17,0.08-0.34,0.12-0.51C43.25,29.08,42.93,29,42.61,29z" opacity=".05"/><path d="M42.61,29.5H13c-0.83,0-1.5,0.67-1.5,1.5v4c0,0.83,0.67,1.5,1.5,1.5h27.66c0.11-0.16,0.2-0.33,0.29-0.5H13 c-0.55,0-1-0.45-1-1v-4c0-0.55,0.45-1,1-1h29.61c0.26,0,0.5,0.1,0.67,0.26c0.05-0.18,0.09-0.36,0.13-0.53 C43.17,29.58,42.9,29.5,42.61,29.5z" opacity=".07"/><linearGradient id="zUANLLB12G8ncACS6ecz9b" x1="12" x2="43.613" y1="33" y2="33" gradientUnits="userSpaceOnUse"><stop offset="0" stop-color="#fede00"/><stop offset="1" stop-color="#ffd000"/></linearGradient><path fill="url(#zUANLLB12G8ncACS6ecz9b)" d="M43.561,31.316l-1.333,4C42.092,35.725,41.71,36,41.279,36H13c-0.55,0-1-0.45-1-1v-4	c0-0.55,0.45-1,1-1h29.613C43.295,30,43.777,30.669,43.561,31.316z"/><path fill="#ccc" d="M16,30v6h-3c-0.55,0-1-0.45-1-1v-4c0-0.55,0.45-1,1-1H16z"/><path fill="#575c61" d="M19,34L19,34c-0.552,0-1-0.448-1-1v-3h2v3C20,33.552,19.552,34,19,34z"/><path fill="#575c61" d="M23,32L23,32c-0.552,0-1-0.448-1-1v-1h2v1C24,31.552,23.552,32,23,32z"/><path fill="#575c61" d="M27,34L27,34c-0.552,0-1-0.448-1-1v-3h2v3C28,33.552,27.552,34,27,34z"/><path fill="#575c61" d="M31,32L31,32c-0.552,0-1-0.448-1-1v-1h2v1C32,31.552,31.552,32,31,32z"/><path fill="#575c61" d="M35,34L35,34c-0.552,0-1-0.448-1-1v-3h2v3C36,33.552,35.552,34,35,34z"/><path fill="#575c61" d="M39,32L39,32c-0.552,0-1-0.448-1-1v-1h2v1C40,31.552,39.552,32,39,32z"/></svg>