<svg xmlns="http://www.w3.org/2000/svg" viewBox="0 0 48 48"><linearGradient id="wmVthxNCMhMoDYZNigPZIa" x1="21.516" x2="45.592" y1="1049.638" y2="1085.673" gradientTransform="translate(0 -1032)" gradientUnits="userSpaceOnUse"><stop offset="0" stop-color="#28afea"/><stop offset="1" stop-color="#0b88da"/></linearGradient><path fill="url(#wmVthxNCMhMoDYZNigPZIa)" d="M9,26l36-14.308V38c0,1.105-0.895,2-2,2H9V26z"/><linearGradient id="wmVthxNCMhMoDYZNigPZIb" x1="1.408" x2="36.331" y1="1056.41" y2="1078.164" gradientTransform="translate(0 -1032)" gradientUnits="userSpaceOnUse"><stop offset="0" stop-color="#28afea"/><stop offset="1" stop-color="#0b88da"/></linearGradient><path fill="url(#wmVthxNCMhMoDYZNigPZIb)" d="M3,11.692V38c0,1.105,0.895,2,2,2h38c0.491,0,0.935-0.184,1.283-0.478L3,11.692z"/><path d="M3,11h42v1.692l-17.32,13.45c-2.165,1.681-5.195,1.681-7.36,0L3,12.692 V11z" opacity=".05"/><path d="M3,10.5h42v1.692L26.966,25.304c-1.762,1.304-4.17,1.304-5.932,0 L3,12.192V10.5z" opacity=".07"/><path fill="#50e6ff" d="M5,8h38c1.105,0,2,0.895,2,2v1.692L26.252,24.466c-1.359,0.926-3.146,0.926-4.504,0L3,11.692V10 C3,8.895,3.895,8,5,8z"/><path d="M43,8H27v7.995C27,17.101,27.899,18,29.005,18H32v2.993c0,0.829,0.676,1.503,1.506,1.503	c0.398,0,0.774-0.157,1.059-0.441L38.62,18H45v-8C45,8.895,44.105,8,43,8z" opacity=".05"/><path d="M43,8H27.5v7.995c0,0.83,0.675,1.505,1.505,1.505H32.5v3.493c0,0.553,0.452,1.003,1.006,1.003	c0.265,0,0.515-0.104,0.705-0.294l4.202-4.202H45V10C45,8.895,44.105,8,43,8z" opacity=".07"/><linearGradient id="wmVthxNCMhMoDYZNigPZIc" x1="32.13" x2="44.008" y1="254.551" y2="235.225" gradientTransform="matrix(1 0 0 -1 0 254)" gradientUnits="userSpaceOnUse"><stop offset="0" stop-color="#737be6"/><stop offset="1" stop-color="#4750b3"/></linearGradient><path fill="url(#wmVthxNCMhMoDYZNigPZIc)" d="M46.995,1h-17.99C28.45,1,28,1.45,28,2.005v13.99C28,16.55,28.45,17,29.005,17H33v3.993	c0,0.448,0.541,0.672,0.858,0.355L38.206,17h8.789C47.55,17,48,16.55,48,15.995V2.005C48,1.45,47.55,1,46.995,1z"/><g><circle cx="34" cy="9" r="2" opacity=".05"/><circle cx="34" cy="9" r="1.5" opacity=".07"/><circle cx="34" cy="9" r="1" fill="#fff"/><circle cx="38" cy="9" r="2" opacity=".05"/><circle cx="38" cy="9" r="1.5" opacity=".07"/><circle cx="38" cy="9" r="1" fill="#fff"/><circle cx="42" cy="9" r="2" opacity=".05"/><circle cx="42" cy="9" r="1.5" opacity=".07"/><circle cx="42" cy="9" r="1" fill="#fff"/></g></svg>