<svg xmlns="http://www.w3.org/2000/svg" viewBox="0 0 48 48"><path fill="#35c1f1" d="M41,9v32c0,1.1-0.9,2-2,2H21V7h18C40.1,7,41,7.89,41,9z"/><path fill="#199be2" d="M13.447,3.224C13.306,3.153,13.153,3.118,13,3.118v36c0.153,0,0.306,0.035,0.447,0.106L21,43V7	L13.447,3.224z"/><path fill="#50e6ff" d="M12.553,3.224L6.106,6.447C5.428,6.786,5,7.479,5,8.236v33.146c0,0.743,0.782,1.227,1.447,0.894	l6.106-3.053c0.141-0.07,0.294-0.106,0.447-0.106v-36C12.847,3.118,12.694,3.153,12.553,3.224z"/><linearGradient id="xSBoqeX7kIyXLVURqfCV6a" x1="26.666" x2="44.33" y1="44.334" y2="26.67" gradientUnits="userSpaceOnUse"><stop offset="0" stop-color="#889097"/><stop offset="1" stop-color="#64717c"/></linearGradient><path fill="url(#xSBoqeX7kIyXLVURqfCV6a)" d="M48,35.5C48,42.4,42.4,48,35.5,48c-0.29,0-0.58-0.01-0.86-0.03	c-0.29-0.02-0.57-0.05-0.85-0.09h-0.01c-0.25-0.03-0.51-0.07-0.76-0.13c-0.05-0.01-0.1-0.02-0.15-0.03	c-0.18-0.04-0.37-0.08-0.55-0.13c-0.12-0.03-0.24-0.06-0.36-0.1c-0.33-0.1-0.66-0.21-0.99-0.34c-0.17-0.06-0.33-0.13-0.49-0.2	c-0.44-0.2-0.87-0.41-1.28-0.65c-0.2-0.12-0.41-0.25-0.6-0.38c-0.2-0.13-0.39-0.27-0.58-0.41c-0.19-0.15-0.38-0.29-0.56-0.45	c-0.18-0.15-0.36-0.31-0.53-0.47c-0.18-0.17-0.35-0.34-0.52-0.52c-0.15-0.16-0.29-0.32-0.44-0.48c-0.15-0.19-0.31-0.39-0.46-0.59	c-0.3-0.4-0.58-0.81-0.83-1.25C23.61,39.91,23,37.78,23,35.5C23,28.6,28.6,23,35.5,23c0.44,0,0.88,0.02,1.31,0.07	c0.44,0.04,0.86,0.11,1.28,0.2c0.84,0.18,1.65,0.45,2.41,0.78c0.17,0.07,0.34,0.15,0.5,0.24c0.11,0.05,0.21,0.1,0.31,0.15	c0.27,0.14,0.53,0.29,0.78,0.45c0.76,0.47,1.46,1.02,2.1,1.64c0.2,0.2,0.39,0.4,0.58,0.6c0.03,0.03,0.05,0.06,0.08,0.08	c0.16,0.19,0.33,0.39,0.49,0.6c0.03,0.03,0.05,0.06,0.07,0.09c0.17,0.22,0.33,0.45,0.49,0.68c0.17,0.25,0.32,0.5,0.47,0.76	c0.02,0.03,0.04,0.07,0.06,0.1c0.12,0.22,0.24,0.45,0.36,0.69l0.01,0.02c0.1,0.22,0.2,0.45,0.29,0.68c0.04,0.1,0.08,0.19,0.12,0.29	c0.09,0.23,0.17,0.47,0.24,0.7c0.1,0.32,0.18,0.64,0.25,0.96c0.06,0.25,0.11,0.51,0.15,0.78c0.01,0.07,0.02,0.13,0.03,0.2	c0.03,0.23,0.06,0.46,0.07,0.7c0.01,0.05,0.02,0.11,0.01,0.16C47.99,34.91,48,35.2,48,35.5z"/><radialGradient id="xSBoqeX7kIyXLVURqfCV6b" cx="38.101" cy="-511.723" r="11.284" gradientTransform="matrix(1.0095 0 0 -1.0095 -2.882 -481.022)" gradientUnits="userSpaceOnUse"><stop offset="0"/><stop offset="1" stop-opacity="0"/></radialGradient><circle cx="35.582" cy="35.582" r="11.392" fill="url(#xSBoqeX7kIyXLVURqfCV6b)"/><radialGradient id="xSBoqeX7kIyXLVURqfCV6c" cx="32.055" cy="-512.567" r="22.59" gradientTransform="matrix(.9864 0 0 -.984 3.815 -478.57)" gradientUnits="userSpaceOnUse"><stop offset="0" stop-color="#fafafb"/><stop offset="1" stop-color="#c8cdd1"/></radialGradient><ellipse cx="35.5" cy="35.513" fill="url(#xSBoqeX7kIyXLVURqfCV6c)" rx="10" ry="9.975"/><path d="M40.9,23.13C39.2,22.38,37.38,22,35.5,22C28.06,22,22,28.06,22,35.5	c0,2.37,0.63,4.7,1.81,6.75c0.15,0.26,0.31,0.51,0.47,0.75h1.23c-0.3-0.4-0.58-0.81-0.83-1.25C23.61,39.91,23,37.78,23,35.5	C23,28.6,28.6,23,35.5,23c0.44,0,0.88,0.02,1.31,0.07c0.44,0.04,0.86,0.11,1.28,0.2c0.84,0.18,1.65,0.45,2.41,0.78	c0.17,0.07,0.34,0.15,0.5,0.24v-1.11C40.97,23.16,40.93,23.14,40.9,23.13z" opacity=".05"/><path d="M40.7,23.59c-1.64-0.72-3.39-1.09-5.2-1.09c-7.17,0-13,5.83-13,13	c0,2.28,0.6,4.53,1.74,6.5c0.2,0.34,0.41,0.68,0.65,1h0.62c-0.3-0.4-0.58-0.81-0.83-1.25C23.61,39.91,23,37.78,23,35.5	C23,28.6,28.6,23,35.5,23c0.44,0,0.88,0.02,1.31,0.07c0.44,0.04,0.86,0.11,1.28,0.2c0.84,0.18,1.65,0.45,2.41,0.78	c0.17,0.07,0.34,0.15,0.5,0.24v-0.56C40.9,23.68,40.8,23.63,40.7,23.59z" opacity=".07"/><path fill="#1e2021" d="M33.043,37.328h-3.205v-1.295h3.205V37.328z"/><path fill="#1e2021" d="M34.32,37.621c0-0.234,0.034-0.46,0.103-0.677s0.171-0.418,0.308-0.604s0.308-0.352,0.513-0.498 s0.446-0.267,0.724-0.36c-0.426-0.211-0.756-0.481-0.99-0.812s-0.352-0.696-0.352-1.099c0-0.32,0.067-0.617,0.202-0.891 s0.321-0.51,0.56-0.709s0.522-0.354,0.853-0.466s0.69-0.167,1.081-0.167c0.398,0,0.764,0.056,1.096,0.167s0.618,0.266,0.858,0.463 s0.427,0.431,0.56,0.7s0.199,0.562,0.199,0.879c0,0.398-0.125,0.761-0.375,1.087s-0.596,0.595-1.037,0.806 c0.273,0.094,0.514,0.214,0.721,0.36s0.381,0.313,0.521,0.501s0.246,0.392,0.316,0.612s0.105,0.45,0.105,0.688 c0,0.359-0.072,0.687-0.217,0.981s-0.349,0.549-0.612,0.762s-0.578,0.378-0.943,0.495s-0.769,0.176-1.21,0.176 c-0.434,0-0.833-0.058-1.198-0.173s-0.68-0.278-0.943-0.489s-0.47-0.464-0.618-0.759S34.32,37.977,34.32,37.621z M36.072,37.463 c0,0.191,0.029,0.363,0.088,0.516s0.143,0.281,0.252,0.387s0.239,0.187,0.39,0.243s0.319,0.085,0.507,0.085 c0.18,0,0.345-0.029,0.495-0.088s0.28-0.141,0.39-0.246s0.195-0.234,0.258-0.387s0.094-0.322,0.094-0.51 c0-0.168-0.029-0.328-0.088-0.48s-0.143-0.284-0.252-0.396s-0.239-0.2-0.39-0.267s-0.319-0.1-0.507-0.1 c-0.176,0-0.34,0.03-0.492,0.091s-0.283,0.146-0.393,0.258s-0.195,0.243-0.258,0.396S36.072,37.283,36.072,37.463z M36.33,33.742 c0,0.148,0.026,0.288,0.079,0.419s0.124,0.244,0.214,0.34s0.196,0.171,0.319,0.226s0.253,0.082,0.39,0.082 c0.141,0,0.271-0.027,0.393-0.082s0.228-0.131,0.319-0.229s0.164-0.211,0.217-0.34s0.079-0.268,0.079-0.416 c0-0.152-0.025-0.294-0.076-0.425s-0.122-0.244-0.214-0.34s-0.199-0.171-0.322-0.226s-0.255-0.082-0.396-0.082 c-0.148,0-0.284,0.028-0.407,0.085s-0.229,0.133-0.316,0.229s-0.156,0.209-0.205,0.34S36.33,33.594,36.33,33.742z"/></svg>