<svg xmlns="http://www.w3.org/2000/svg" viewBox="0 0 48 48"><linearGradient id="2jiXwCfsYSdiQa7SrIprTa" x1="22.575" x2="24.76" y1="41.532" y2="14.647" gradientUnits="userSpaceOnUse"><stop offset="0" stop-color="#252525"/><stop offset=".469" stop-color="#393939"/><stop offset="1" stop-color="#4b4b4b"/></linearGradient><path fill="url(#2jiXwCfsYSdiQa7SrIprTa)" d="M43.899,21.959c-0.616-6.221-4.176-11.638-9.236-14.853H13.294	C7.179,10.99,3.315,18.099,4.101,26.041c0.927,9.36,8.498,16.931,17.858,17.858C34.609,45.151,45.151,34.609,43.899,21.959z"/><path fill="#e6e6e6" d="M26.041,4.101c-4.791-0.474-9.272,0.753-12.93,3.137L24,39L34.887,7.246	C32.285,5.539,29.272,4.421,26.041,4.101z"/><linearGradient id="2jiXwCfsYSdiQa7SrIprTb" x1="24.083" x2="24.005" y1="8.811" y2="4.934" gradientUnits="userSpaceOnUse"><stop offset="0" stop-color="#e52030"/><stop offset=".557" stop-color="#ee3d4a"/><stop offset="1" stop-color="#f44f5a"/></linearGradient><path fill="url(#2jiXwCfsYSdiQa7SrIprTb)" d="M26.041,4.101c-2.63-0.26-5.166-0.002-7.526,0.671L22,10h4l3.488-5.232	C28.374,4.448,27.223,4.218,26.041,4.101z"/><linearGradient id="2jiXwCfsYSdiQa7SrIprTc" x1="23.202" x2="24.886" y1="37.07" y2="16.343" gradientUnits="userSpaceOnUse"><stop offset="0" stop-color="#e52030"/><stop offset=".557" stop-color="#ee3d4a"/><stop offset="1" stop-color="#f44f5a"/></linearGradient><polygon fill="url(#2jiXwCfsYSdiQa7SrIprTc)" points="24,39 28.029,27.248 26,10 22,10 19.971,27.248"/></svg>