<svg xmlns="http://www.w3.org/2000/svg" viewBox="0 0 48 48"><radialGradient id="Kzzab340Fna2lSQki5qzJa" cx="11.177" cy="8.393" r="40.312" gradientUnits="userSpaceOnUse"><stop offset="0" stop-color="#0370c8"/><stop offset=".484" stop-color="#036fc5"/><stop offset=".775" stop-color="#036abd"/><stop offset="1" stop-color="#0362b0"/></radialGradient><path fill="url(#Kzzab340Fna2lSQki5qzJa)" d="M44,24c0,11.045-8.955,20-20,20S4,35.045,4,24S12.955,4,24,4S44,12.955,44,24z"/><radialGradient id="Kzzab340Fna2lSQki5qzJb" cx="24" cy="20" r="9.5" gradientUnits="userSpaceOnUse"><stop offset="0"/><stop offset="1" stop-opacity="0"/></radialGradient><circle cx="24" cy="20" r="9.5" fill="url(#Kzzab340Fna2lSQki5qzJb)"/><radialGradient id="Kzzab340Fna2lSQki5qzJc" cx="23.861" cy="43.918" r="14.991" gradientUnits="userSpaceOnUse"><stop offset=".177"/><stop offset="1" stop-opacity="0"/></radialGradient><path fill="url(#Kzzab340Fna2lSQki5qzJc)" d="M24,44c5.396,0,10.284-2.148,13.882-5.622C35.601,32.755,30.078,29,24,29	s-11.601,3.755-13.882,9.378C13.716,41.852,18.604,44,24,44z"/><linearGradient id="Kzzab340Fna2lSQki5qzJd" x1="18.573" x2="29.735" y1="13.573" y2="24.735" gradientUnits="userSpaceOnUse"><stop offset="0" stop-color="#75daff"/><stop offset="1" stop-color="#1ea2e4"/></linearGradient><circle cx="24" cy="19" r="8" fill="url(#Kzzab340Fna2lSQki5qzJd)"/><linearGradient id="Kzzab340Fna2lSQki5qzJe" x1="17.007" x2="30.888" y1="31.21" y2="45.091" gradientUnits="userSpaceOnUse"><stop offset="0" stop-color="#75daff"/><stop offset="1" stop-color="#1ea2e4"/></linearGradient><path fill="url(#Kzzab340Fna2lSQki5qzJe)" d="M24,44c5.015,0,9.587-1.859,13.098-4.909C35.107,33.784,30.002,30,24,30	s-11.107,3.784-13.098,9.091C14.413,42.141,18.985,44,24,44z"/><path d="M38.926,23.074c1.415,1.415,1.853,3.798,1.985,5.357c0.071,0.848-0.632,1.552-1.481,1.481	c-1.559-0.131-3.942-0.57-5.357-1.985c-1.415-1.415-1.853-3.798-1.985-5.357c-0.071-0.848,0.632-1.552,1.481-1.481	C35.128,21.22,37.512,21.659,38.926,23.074z" opacity=".05"/><path d="M38.596,23.404c1.371,1.371,1.753,3.722,1.859,5.037c0.047,0.581-0.433,1.061-1.014,1.014	c-1.315-0.106-3.667-0.488-5.037-1.859c-1.371-1.371-1.753-3.722-1.859-5.037c-0.047-0.581,0.433-1.061,1.014-1.014	C34.874,21.651,37.225,22.033,38.596,23.404z" opacity=".07"/><linearGradient id="Kzzab340Fna2lSQki5qzJf" x1="33.142" x2="39.406" y1="22.142" y2="28.406" gradientUnits="userSpaceOnUse"><stop offset="0" stop-color="#75daff"/><stop offset="1" stop-color="#1ea2e4"/></linearGradient><path fill="url(#Kzzab340Fna2lSQki5qzJf)" d="M38.266,23.734c1.327,1.327,1.653,3.647,1.733,4.718c0.023,0.313-0.233,0.57-0.546,0.546	c-1.071-0.08-3.391-0.406-4.718-1.733s-1.653-3.647-1.733-4.718c-0.023-0.313,0.233-0.57,0.546-0.546	C34.619,22.081,36.939,22.407,38.266,23.734z"/></svg>