<svg xmlns="http://www.w3.org/2000/svg" viewBox="0 0 48 48"><radialGradient id="KnqgMrWH1OflvIgHNcmu9a" cx="28.037" cy="19.373" r="29.378" gradientTransform="matrix(1 0 0 -1 0 50)" gradientUnits="userSpaceOnUse"><stop offset=".218" stop-color="#fcfcfc"/><stop offset=".379" stop-color="#eff0f1"/><stop offset=".612" stop-color="#ced1d3"/><stop offset=".894" stop-color="#aaafb3"/></radialGradient><path fill="url(#KnqgMrWH1OflvIgHNcmu9a)" d="M22,3C12.611,3,5,10.611,5,20s7.611,17,17,17s17-7.611,17-17S31.389,3,22,3z"/><radialGradient id="KnqgMrWH1OflvIgHNcmu9b" cx="21.552" cy="37.341" r="5.341" gradientTransform="matrix(1 0 0 -1 0 50)" gradientUnits="userSpaceOnUse"><stop offset=".313" stop-color="#9da2a6" stop-opacity="0"/><stop offset="1" stop-color="#9da2a6"/></radialGradient><path fill="url(#KnqgMrWH1OflvIgHNcmu9b)" d="M20.455,7.636c-1.708,0-3.091,1.383-3.091,3.091s1.383,3.091,3.091,3.091	c1.708,0,3.091-1.383,3.091-3.091S22.162,7.636,20.455,7.636z"/><radialGradient id="KnqgMrWH1OflvIgHNcmu9c" cx="13.276" cy="29.034" r="2.671" gradientTransform="matrix(1 0 0 -1 0 50)" gradientUnits="userSpaceOnUse"><stop offset=".313" stop-color="#9da2a6" stop-opacity="0"/><stop offset="1" stop-color="#9da2a6"/></radialGradient><path fill="url(#KnqgMrWH1OflvIgHNcmu9c)" d="M12.727,18.455c-0.853,0-1.545,0.692-1.545,1.545s0.692,1.545,1.545,1.545	c0.853,0,1.545-0.692,1.545-1.545S13.58,18.455,12.727,18.455z"/><linearGradient id="KnqgMrWH1OflvIgHNcmu9d" x1="19.54" x2="41.46" y1="30.46" y2="8.54" gradientTransform="matrix(1 0 0 -1 0 50)" gradientUnits="userSpaceOnUse"><stop offset="0" stop-color="#889097"/><stop offset="1" stop-color="#64717c"/></linearGradient><circle cx="30.5" cy="30.5" r="15.5" fill="url(#KnqgMrWH1OflvIgHNcmu9d)"/><radialGradient id="KnqgMrWH1OflvIgHNcmu9e" cx="31.815" cy="20.886" r="14.019" gradientTransform="matrix(1.0076 0 0 -1.0076 -1.456 51.647)" gradientUnits="userSpaceOnUse"><stop offset="0"/><stop offset="1" stop-opacity="0"/></radialGradient><circle cx="30.602" cy="30.602" r="14.126" fill="url(#KnqgMrWH1OflvIgHNcmu9e)"/><radialGradient id="KnqgMrWH1OflvIgHNcmu9f" cx="28.122" cy="28.563" r="28.065" gradientTransform="matrix(.9925 0 0 -.9925 2.507 46.64)" gradientUnits="userSpaceOnUse"><stop offset="0" stop-color="#fafafb"/><stop offset="1" stop-color="#c8cdd1"/></radialGradient><circle cx="30.5" cy="30.5" r="12.5" fill="url(#KnqgMrWH1OflvIgHNcmu9f)"/><path fill="#45494d" d="M30.775,30.387c-0.597,0-1.082-0.483-1.082-1.081v-7.21c0-0.597,0.484-1.082,1.082-1.082	s1.082,0.484,1.082,1.082v7.21C31.856,29.903,31.372,30.387,30.775,30.387z"/><circle cx="30.775" cy="30.762" r="2.163" fill="#1e2021"/></svg>