<svg xmlns="http://www.w3.org/2000/svg" viewBox="0 0 48 48"><linearGradient id="dlCRSjRTUCAJBSAw1yyDpa" x1="14.019" x2="34.02" y1="41.328" y2="6.685" gradientUnits="userSpaceOnUse"><stop offset="0" stop-color="#c09"/><stop offset=".147" stop-color="#d10089"/><stop offset=".432" stop-color="#df0061"/><stop offset=".824" stop-color="#f5001f"/><stop offset="1" stop-color="red"/></linearGradient><path fill="url(#dlCRSjRTUCAJBSAw1yyDpa)" d="M44,24c0,11.05-8.95,20-20,20c-5.05,0-9.67-1.88-13.19-4.98 C9.823,38.159,10.801,36.041,10,35c-0.789-1.026-3.359-0.974-3.94-2.15C4.74,30.18,4,27.18,4,24s0.74-6.18,2.06-8.85 C6.722,13.804,9.064,14.148,10,13c0.789-0.968,0.134-3.46,1.09-4.26C14.57,5.78,19.08,4,24,4C35.05,4,44,12.95,44,24z"/><path fill="#fff" d="M32,20.597v6.796c0,0.373-0.208,0.715-0.539,0.887L10.81,39.02c-1.96-1.71-3.58-3.8-4.75-6.17 L23.08,24L6.06,15.15c1.22-2.48,2.94-4.66,5.03-6.41l20.384,10.977C31.798,19.891,32,20.229,32,20.597z"/><path d="M31.95,18.84L11.93,8.06c-0.15,0.11-0.29,0.22-0.43,0.33s-0.28,0.23-0.41,0.35l20.38,10.98 C31.8,19.89,32,20.23,32,20.6v6.79c0,0.38-0.21,0.72-0.54,0.89L10.81,39.02c0.13,0.13,0.26,0.24,0.4,0.35 c0.14,0.12,0.28,0.24,0.43,0.35l20.28-10.55c0.67-0.35,1.08-1.03,1.08-1.78V20.6C33,19.86,32.6,19.19,31.95,18.84z M6.06,15.15 c-0.07,0.15-0.14,0.3-0.21,0.45c-0.07,0.15-0.14,0.3-0.21,0.46L20.91,24L5.64,31.94c0.07,0.16,0.14,0.31,0.21,0.46 c0.07,0.15,0.14,0.3,0.21,0.45L23.08,24L6.06,15.15z" opacity=".05"/><path d="M31.71,19.28L11.5,8.39c-0.14,0.11-0.28,0.23-0.41,0.35l20.38,10.98C31.8,19.89,32,20.23,32,20.6 v6.79c0,0.38-0.21,0.72-0.54,0.89L10.81,39.02c0.13,0.13,0.26,0.24,0.4,0.35l20.48-10.65c0.5-0.26,0.81-0.77,0.81-1.33V20.6 C32.5,20.04,32.2,19.54,31.71,19.28z M6.06,15.15c-0.07,0.15-0.14,0.3-0.21,0.45L22,24L5.85,32.4c0.07,0.15,0.14,0.3,0.21,0.45 L23.08,24L6.06,15.15z" opacity=".07"/></svg>