<svg xmlns="http://www.w3.org/2000/svg" data-name="Layer 1" viewBox="0 0 48 48"><defs><linearGradient id="k1TKbjNkJKTvJ5Ql~1cUQa" x1="24" x2="24" y1="37.466" y2="-8.12" data-name="Новый образец градиентной зал 5" gradientUnits="userSpaceOnUse"><stop offset="0" stop-color="#f9f9f9"/><stop offset=".26" stop-color="#f0f1f2"/><stop offset=".678" stop-color="#d9dcdf"/><stop offset="1" stop-color="#c2c8cc"/></linearGradient><linearGradient id="k1TKbjNkJKTvJ5Ql~1cUQb" x1="21.711" x2="27.743" y1="10.018" y2="44.23" data-name="Безымянный градиент 88" gradientUnits="userSpaceOnUse"><stop offset="0" stop-color="#f44f5a"/><stop offset=".443" stop-color="#ee3d4a"/><stop offset="1" stop-color="#e52030"/></linearGradient></defs><circle cx="24" cy="22.017" r="17" fill="url(#k1TKbjNkJKTvJ5Ql~1cUQa)"/><path fill="url(#k1TKbjNkJKTvJ5Ql~1cUQb)" d="M42.93365,23.09412a1.89,1.89,0,0,0-1.90112-2.061H6.96747a1.89,1.89,0,0,0-1.90112,2.061A18.9982,18.9982,0,0,0,22,39.85089v2.16565a2,2,0,0,0,4,0V39.85089A18.9982,18.9982,0,0,0,42.93365,23.09412Z"/><path fill="#b31523" d="M39,23.01654a.99974.99974,0,0,0-1,1,2,2,0,0,1-4,0,1,1,0,0,0-2,0,2,2,0,0,1-4,0,1,1,0,0,0-2,0,2,2,0,0,1-4,0,1,1,0,0,0-2,0,2,2,0,0,1-4,0,1,1,0,0,0-2,0,2,2,0,0,1-4,0,1,1,0,0,0-2,0,3.98325,3.98325,0,0,0,7,2.6178,3.94678,3.94678,0,0,0,6,0,3.94678,3.94678,0,0,0,6,0,3.94678,3.94678,0,0,0,6,0,3.98325,3.98325,0,0,0,7-2.6178A.99974.99974,0,0,0,39,23.01654Z"/><path fill="#b31523" d="M36,30.01654a.99974.99974,0,0,0-1,1,2,2,0,0,1-4,0,1,1,0,0,0-2,0,2,2,0,0,1-4,0,1,1,0,0,0-2,0,2,2,0,0,1-4,0,1,1,0,0,0-2,0,2,2,0,0,1-4,0,1,1,0,0,0-2,0,3.98325,3.98325,0,0,0,7,2.6178,3.94678,3.94678,0,0,0,6,0,3.94678,3.94678,0,0,0,6,0,3.98325,3.98325,0,0,0,7-2.6178A.99974.99974,0,0,0,36,30.01654Z"/></svg>