<svg xmlns="http://www.w3.org/2000/svg" viewBox="0 0 48 48"><linearGradient id="r9aaE3W0r7oRB2z467Vo9a" x1="24" x2="24" y1="9.454" y2="40.071" gradientUnits="userSpaceOnUse"><stop offset=".9" stop-color="#6d7882"/><stop offset=".917" stop-color="#45494d"/></linearGradient><path fill="url(#r9aaE3W0r7oRB2z467Vo9a)" d="M44,9H4c-1.105,0-2,0.895-2,2v26c0,1.105,0.895,2,2,2h40c1.105,0,2-0.895,2-2V11	C46,9.895,45.105,9,44,9z"/><radialGradient id="r9aaE3W0r7oRB2z467Vo9b" cx="32" cy="23.5" r="13.5" gradientUnits="userSpaceOnUse"><stop offset=".786" stop-opacity=".2"/><stop offset="1" stop-opacity="0"/></radialGradient><circle cx="32" cy="23.5" r="13.5" fill="url(#r9aaE3W0r7oRB2z467Vo9b)"/><circle cx="32" cy="23" r="11" fill="#fff"/><radialGradient id="r9aaE3W0r7oRB2z467Vo9c" cx="26.5" cy="17.554" r="16.518" gradientUnits="userSpaceOnUse"><stop offset="0" stop-color="#bd8af5"/><stop offset=".137" stop-color="#b88bf5"/><stop offset=".309" stop-color="#a88ff3"/><stop offset=".499" stop-color="#8f96f2"/><stop offset=".702" stop-color="#6b9eef"/><stop offset=".913" stop-color="#3eaaec"/><stop offset="1" stop-color="#29afea"/></radialGradient><circle cx="32" cy="23" r="8" fill="url(#r9aaE3W0r7oRB2z467Vo9c)"/><circle cx="9" cy="15" r="2" fill="#eef2f3"/><path fill="#0076d7" d="M13,9H6V8c0-0.552,0.448-1,1-1h5c0.552,0,1,0.448,1,1V9z"/></svg>