<svg xmlns="http://www.w3.org/2000/svg" viewBox="0 0 48 48"><linearGradient id="IXn1Goxj7a1tcOFAZoM3Da" x1="19.285" x2="53.983" y1="-88.677" y2="-69.864" gradientTransform="matrix(0 1 1 0 110.223 -.223)" gradientUnits="userSpaceOnUse"><stop offset="0" stop-color="#dfe9f2"/><stop offset=".998" stop-color="#9ea7b0"/></linearGradient><path fill="url(#IXn1Goxj7a1tcOFAZoM3Da)" d="M24.223,44c2.467,0,4.818-0.468,7-1.284V5.284C29.041,4.468,26.69,4,24.223,4	s-4.818,0.468-7,1.284v37.431C19.405,43.532,21.756,44,24.223,44z"/><linearGradient id="IXn1Goxj7a1tcOFAZoM3Db" x1="16.386" x2="52.809" y1="-99.742" y2="-83.927" gradientTransform="matrix(0 1 1 0 110.223 -.223)" gradientUnits="userSpaceOnUse"><stop offset="0" stop-color="#21ad64"/><stop offset="1" stop-color="#088242"/></linearGradient><path fill="url(#IXn1Goxj7a1tcOFAZoM3Db)" d="M17.223,42.716V5.284c-7.588,2.841-13,10.137-13,18.716S9.635,39.875,17.223,42.716z"/><linearGradient id="IXn1Goxj7a1tcOFAZoM3Dc" x1="18.013" x2="55.142" y1="-77.554" y2="-63.946" gradientTransform="matrix(0 1 1 0 110.223 -.223)" gradientUnits="userSpaceOnUse"><stop offset=".008" stop-color="#f44f5a"/><stop offset=".447" stop-color="#ee3d4a"/><stop offset="1" stop-color="#e52030"/></linearGradient><path fill="url(#IXn1Goxj7a1tcOFAZoM3Dc)" d="M44.223,24c0-8.579-5.412-15.875-13-18.716v37.431C38.811,39.875,44.223,32.579,44.223,24z"/></svg>