<svg xmlns="http://www.w3.org/2000/svg" xmlns:xlink="http://www.w3.org/1999/xlink" data-name="Слой 1" viewBox="0 0 48 48"><defs><linearGradient id="AkQBHekHxZT4pohPq9dcnh" x1="24" x2="24" y1="-2114.942" y2="-2101.7" gradientTransform="matrix(1 0 0 -1 0 -2096)" xlink:href="#AkQBHekHxZT4pohPq9dcna"/><linearGradient id="AkQBHekHxZT4pohPq9dcnc" x1="33" x2="39" y1="24" y2="24" data-name="Безымянный градиент 125" gradientUnits="userSpaceOnUse"><stop offset="0" stop-color="#ffcf54"/><stop offset=".261" stop-color="#fdcb4d"/><stop offset=".639" stop-color="#f7c13a"/><stop offset="1" stop-color="#f0b421"/></linearGradient><linearGradient id="AkQBHekHxZT4pohPq9dcna" x1="28.339" x2="36.9" y1="-2098.931" y2="-2115.588" data-name="Безымянный градиент 103" gradientTransform="matrix(1 0 0 -1 .174 -2096.075)" gradientUnits="userSpaceOnUse"><stop offset="0" stop-color="#42a3f2"/><stop offset="1" stop-color="#42a4eb"/></linearGradient><linearGradient id="AkQBHekHxZT4pohPq9dcnb" x1="30.284" x2="30.284" y1="-2114.942" y2="-2101.7" data-name="Безымянный градиент 155" gradientTransform="matrix(1 0 0 -1 0 -2096)" gradientUnits="userSpaceOnUse"><stop offset="0" stop-color="#3079d6"/><stop offset="1" stop-color="#297cd2"/></linearGradient><linearGradient id="AkQBHekHxZT4pohPq9dcnf" x1="-1533.741" x2="-1525.18" y1="-2098.202" y2="-2114.859" gradientTransform="rotate(-179.945 -756.615 -1048.054)" xlink:href="#AkQBHekHxZT4pohPq9dcna"/><linearGradient id="AkQBHekHxZT4pohPq9dcng" x1="-1530.254" x2="-1530.254" y1="-2114.942" y2="-2101.7" gradientTransform="rotate(180 -756.269 -1048)" xlink:href="#AkQBHekHxZT4pohPq9dcnb"/><linearGradient id="AkQBHekHxZT4pohPq9dcnl" x1="2.196" x2="41.794" y1="38" y2="38" xlink:href="#AkQBHekHxZT4pohPq9dcnd"/><linearGradient id="AkQBHekHxZT4pohPq9dcni" x1="15.834" x2="26.491" y1="25.633" y2="36.29" xlink:href="#AkQBHekHxZT4pohPq9dcnc"/><linearGradient id="AkQBHekHxZT4pohPq9dcnj" x1="24.021" x2="24.021" y1="42.587" y2="24.239" data-name="Безымянный градиент 137" gradientUnits="userSpaceOnUse"><stop offset="0" stop-color="#ffda94"/><stop offset="1" stop-color="#fff0ce"/></linearGradient><linearGradient id="AkQBHekHxZT4pohPq9dcnd" x1="5.236" x2="42.847" y1="33.82" y2="33.82" data-name="Безымянный градиент 37" gradientUnits="userSpaceOnUse"><stop offset="0" stop-color="#d97218"/><stop offset=".56" stop-color="#c46716"/><stop offset="1" stop-color="#ba6215"/></linearGradient><linearGradient id="AkQBHekHxZT4pohPq9dcnk" x1="-3.932" x2="42.758" y1="39" y2="39" xlink:href="#AkQBHekHxZT4pohPq9dcnd"/><linearGradient id="AkQBHekHxZT4pohPq9dcnm" x1="5.196" x2="44.794" y1="40.5" y2="40.5" xlink:href="#AkQBHekHxZT4pohPq9dcnd"/><radialGradient id="AkQBHekHxZT4pohPq9dcne" cx="35.005" cy="22.385" r="6.594" data-name="Безымянный градиент 26" gradientUnits="userSpaceOnUse"><stop offset="0" stop-color="#c26715"/><stop offset=".508" stop-color="#b85515"/><stop offset="1" stop-color="#ad3f16"/></radialGradient></defs><path fill="url(#AkQBHekHxZT4pohPq9dcnc)" d="M39,24a3,3,0,1,1-6,0,2.94167,2.94167,0,0,1,1.16-2.36,2.98057,2.98057,0,0,1,3.95.23c.07.06994.14.15.2.22a3.84263,3.84263,0,0,1,.4.62.61778.61778,0,0,1,.05.12A2.8484,2.8484,0,0,1,39,24Z"/><path fill="url(#AkQBHekHxZT4pohPq9dcne)" d="M37.69,28.55005a1.00184,1.00184,0,0,1-1.52.17993l-1.78-1.64a1.036,1.036,0,0,1-.33-.79993.95152.95152,0,0,1,.18-.5L35.49,23.98a1.00129,1.00129,0,0,0-.16-1.32007L34.16,21.64a2.98057,2.98057,0,0,1,3.95.23c.07.06994.14.15.2.22a3.84263,3.84263,0,0,1,.4.62.61778.61778,0,0,1,.05.12C39.72,24.85,38.52,27.24,37.69,28.55005Z"/><path fill="#64717c" d="M23,12h2a0,0,0,0,1,0,0V42a1,1,0,0,1-1,1h0a1,1,0,0,1-1-1V12A0,0,0,0,1,23,12Z"/><path fill="#d6a121" d="M25.87189,31.77942,18.963,26.65192l-.08142-.06055a1.51449,1.51449,0,0,0-2.028.21259L11.30811,33.028a1.0031,1.0031,0,0,0,1.38378,1.444L18.082,30.0661l6.04614,4.15448a1.50023,1.50023,0,0,0,1.74372-2.44116Z"/><path fill="url(#AkQBHekHxZT4pohPq9dcna)" d="M41,16.96964,36.75,17S29.1,5,23.98385,5C38.45,5,41,16.96964,41,16.96964Z"/><path fill="url(#AkQBHekHxZT4pohPq9dcnb)" d="M37,17a6.362,6.362,0,0,1-4.06251,2A5.89948,5.89948,0,0,1,29,17S21.75669,5,24,5C32.93749,5,37,14.52941,37,17Z"/><path fill="url(#AkQBHekHxZT4pohPq9dcnf)" d="M7,16.96964,11.25,17S18.9,5,24.01615,5C9.55,5,7,16.96964,7,16.96964Z"/><path fill="url(#AkQBHekHxZT4pohPq9dcng)" d="M11,17a6.362,6.362,0,0,0,4.0625,2A5.89948,5.89948,0,0,0,19,17S26.24331,5,24,5C15.0625,5,11,14.52941,11,17Z"/><path fill="url(#AkQBHekHxZT4pohPq9dcnh)" d="M29,17a8.73261,8.73261,0,0,1-5,2,8.73261,8.73261,0,0,1-5-2C19,5.47059,24,5,24,5S29,5.47059,29,17Z"/><path fill="url(#AkQBHekHxZT4pohPq9dcni)" d="M34,29.62A3.37583,3.37583,0,0,1,30.62,33c-.11,0-.22-.02-.33-.03L28,35H10.07a1.0703,1.0703,0,0,1-.15-2.13l10.1-1.34L24,31l4.17-3.68a3.33718,3.33718,0,0,1,2.45-1.07A3.3737,3.3737,0,0,1,34,29.62Z"/><path fill="#e52030" d="M31.12445,32.94934A3.36777,3.36777,0,1,0,28.17,27.32007l-1.00073.88306Z"/><g><path fill="url(#AkQBHekHxZT4pohPq9dcnj)" d="M27.49316,38H8.5a1.5,1.5,0,0,1,0-3H27l11.65234-8.31787a1.49986,1.49986,0,1,1,1.7793,2.415L28.38281,37.70752A1.49948,1.49948,0,0,1,27.49316,38Z"/><path fill="url(#AkQBHekHxZT4pohPq9dcnd)" d="M27.99316,40H7a1,1,0,0,1,0-2H27.65625L41.43652,27.84375a1,1,0,0,1,1.21094,1.5918L28.59863,39.7959A1.00006,1.00006,0,0,1,27.99316,40Z"/><path fill="url(#AkQBHekHxZT4pohPq9dcnk)" d="M42,40H27.49316a1,1,0,0,1,0-2H42a1,1,0,0,1,0,2Z"/><path fill="url(#AkQBHekHxZT4pohPq9dcnl)" d="M38,43a.99974.99974,0,0,1-1-1V38.65918l-1.91211-4.249a1.00009,1.00009,0,0,1,1.82422-.82032l2,4.44434A1.00513,1.00513,0,0,1,39,38.44434V42A.99974.99974,0,0,1,38,43Z"/><path fill="url(#AkQBHekHxZT4pohPq9dcnm)" d="M11,43a.99974.99974,0,0,1-1-1V39a1,1,0,0,1,2,0v3A.99974.99974,0,0,1,11,43Z"/></g><polygon fill="#e52030" points="27 35 23 35 20.02 31.53 24 31 27 35"/><path fill="#ffcf54" d="M25,28a1,1,0,1,0,1,1A1.00036,1.00036,0,0,0,25,28Z"/><path fill="#ffcf54" d="M24.262,29.67456l3.15619,3.84051a1,1,0,0,0,1.37667.20769l4.03493-2.89486a1.22316,1.22316,0,0,0,.20958-1.80079h0a1.22316,1.22316,0,0,0-1.78543-.05945L28.5,31.5l-2.71058-3.11365Z"/></svg>