<svg xmlns="http://www.w3.org/2000/svg" id="Layer_1" x="0" y="0" version="1.1" viewBox="0 0 48 48" xml:space="preserve"><linearGradient id="SVGID_1_" x1="13.069" x2="31.926" y1="-27.998" y2="-55.275" gradientTransform="matrix(1 0 0 -1 0 -18)" gradientUnits="userSpaceOnUse"><stop offset="0" stop-color="#7dd8f3"/><stop offset="1" stop-color="#45b0d0"/></linearGradient><path fill="url(#SVGID_1_)" d="M4,38V13h40v25c0,1.1-0.9,2-2,2H6C4.9,40,4,39.1,4,38z"/><path fill="#0f94bf" d="M38.5,22h-23c-0.3,0-0.5-0.2-0.5-0.5v-1c0-0.3,0.2-0.5,0.5-0.5h23c0.3,0,0.5,0.2,0.5,0.5v1	C39,21.8,38.8,22,38.5,22z"/><path fill="#0f94bf" d="M38.5,27h-23c-0.3,0-0.5-0.2-0.5-0.5v-1c0-0.3,0.2-0.5,0.5-0.5h23c0.3,0,0.5,0.2,0.5,0.5v1	C39,26.8,38.8,27,38.5,27z"/><path fill="#0f94bf" d="M38.5,32h-23c-0.3,0-0.5-0.2-0.5-0.5v-1c0-0.3,0.2-0.5,0.5-0.5h23c0.3,0,0.5,0.2,0.5,0.5v1	C39,31.8,38.8,32,38.5,32z"/><linearGradient id="SVGID_2_" x1="4.808" x2="42.75" y1="-24.78" y2="-32.495" gradientTransform="matrix(1 0 0 -1 0 -18)" gradientUnits="userSpaceOnUse"><stop offset="0" stop-color="#0077d2"/><stop offset="1" stop-color="#0b59a2"/></linearGradient><path fill="url(#SVGID_2_)" d="M44,10v3H4v-3c0-1.1,0.9-2,2-2h36C43.1,8,44,8.9,44,10z"/><path fill="#0f94bf" d="M9.5,22h1c0.3,0,0.5-0.2,0.5-0.5v-1c0-0.3-0.2-0.5-0.5-0.5h-1C9.2,20,9,20.2,9,20.5v1C9,21.8,9.2,22,9.5,22z"/><path fill="#0f94bf" d="M9.5,27h1c0.3,0,0.5-0.2,0.5-0.5v-1c0-0.3-0.2-0.5-0.5-0.5h-1C9.2,25,9,25.2,9,25.5v1C9,26.8,9.2,27,9.5,27z"/><path fill="#0f94bf" d="M9.5,32h1c0.3,0,0.5-0.2,0.5-0.5v-1c0-0.3-0.2-0.5-0.5-0.5h-1C9.2,30,9,30.2,9,30.5v1C9,31.8,9.2,32,9.5,32z"/><path d="M31,36v4h11c1.1,0,2-0.9,2-2v-5H34C32.3,33,31,34.3,31,36z" opacity=".05"/><path d="M31.5,36v4H42c1.1,0,2-0.9,2-2v-4.5H34C32.6,33.5,31.5,34.6,31.5,36z" opacity=".07"/><linearGradient id="SVGID_3_" x1="38.205" x2="39.892" y1="-52.431" y2="-66.367" gradientTransform="matrix(1 0 0 -1 0 -18)" gradientUnits="userSpaceOnUse"><stop offset="0" stop-color="#f44f5a"/><stop offset=".443" stop-color="#ee3d4a"/><stop offset="1" stop-color="#e52030"/></linearGradient><path fill="url(#SVGID_3_)" d="M44,48H34c-1.1,0-2-0.9-2-2V36c0-1.1,0.9-2,2-2h10c1.1,0,2,0.9,2,2v10C46,47.1,45.1,48,44,48z"/></svg>