<svg xmlns="http://www.w3.org/2000/svg" data-name="Слой 1" viewBox="0 0 48 48"><defs><linearGradient id="lbOqBbCo2fuHa7~JCiQV9a" x1="15.478" x2="34.518" y1=".586" y2="52.898" gradientUnits="userSpaceOnUse"><stop offset=".002" stop-color="#427fdb"/><stop offset=".397" stop-color="#2668cb"/><stop offset=".763" stop-color="#1358bf"/><stop offset="1" stop-color="#0c52bb"/></linearGradient></defs><circle cx="24" cy="24" r="20" fill="url(#lbOqBbCo2fuHa7~JCiQV9a)"/><path fill="#fff" d="M12,15H23a0,0,0,0,1,0,0V31a0,0,0,0,1,0,0H12a1,1,0,0,1-1-1V16A1,1,0,0,1,12,15Z"/><path fill="#fff" d="M25,15H36a1,1,0,0,1,1,1V30a1,1,0,0,1-1,1H25a0,0,0,0,1,0,0V15A0,0,0,0,1,25,15Z"/><path fill="#fff" d="M9,15V31a1.50164,1.50164,0,0,0,1.5,1.5H22a.49971.49971,0,0,1,.5.5,1.5,1.5,0,0,0,3,0,.49971.49971,0,0,1,.5-.5H37.5A1.50164,1.50164,0,0,0,39,31V15a1.07539,1.07539,0,0,1,1,1V31a2.50263,2.50263,0,0,1-2.5,2.5H26.44971a2.50027,2.50027,0,0,1-4.89942,0H10.5A2.50263,2.50263,0,0,1,8,31V16A1.07539,1.07539,0,0,1,9,15Z"/></svg>