<svg xmlns="http://www.w3.org/2000/svg" viewBox="0 0 48 48"><linearGradient id="cuMGfsjyXPDEflQEiF5jla" x1="24" x2="24" y1="4" y2="29.12" gradientUnits="userSpaceOnUse"><stop offset="0" stop-color="#d97218"/><stop offset="1" stop-color="#b85e11"/></linearGradient><path fill="url(#cuMGfsjyXPDEflQEiF5jla)" d="M43,29.452H5V16.554c0-0.686,0.352-1.325,0.932-1.691l16.466-10.4	c0.979-0.618,2.225-0.618,3.204,0l16.466,10.4C42.648,15.23,43,15.868,43,16.554V29.452z"/><path fill="#52bf8d" d="M36,4v35H16V4c0-0.552,0.448-1,1-1h18C35.552,3,36,3.448,36,4z"/><path fill="#107c42" d="M16,36h20V8H16V36z M33,27c0,3.866-3.134,7-7,7s-7-3.134-7-7s3.134-7,7-7S33,23.134,33,27z M33,10.5	c0,0.828-0.672,1.5-1.5,1.5c-0.828,0-1.5-0.672-1.5-1.5S30.672,9,31.5,9C32.328,9,33,9.672,33,10.5z M33,14.5	c0,0.828-0.672,1.5-1.5,1.5c-0.828,0-1.5-0.672-1.5-1.5s0.672-1.5,1.5-1.5C32.328,13,33,13.672,33,14.5z"/><path fill="#59d19a" d="M34,4v35H14V4c0-0.552,0.448-1,1-1h18C33.552,3,34,3.448,34,4z"/><path fill="#21a366" d="M14,36h20V8H14V36z M31,27c0,3.866-3.134,7-7,7s-7-3.134-7-7s3.134-7,7-7S31,23.134,31,27z M31,10.5	c0,0.828-0.672,1.5-1.5,1.5S28,11.328,28,10.5S28.672,9,29.5,9S31,9.672,31,10.5z M31,14.5c0,0.828-0.672,1.5-1.5,1.5	S28,15.328,28,14.5s0.672-1.5,1.5-1.5S31,13.672,31,14.5z"/><path fill="#61e3a7" d="M32,4v35H12V4c0-0.552,0.448-1,1-1h18C31.552,3,32,3.448,32,4z"/><path fill="#33c481" d="M12,36h20V8H12V36z M29,27c0,3.866-3.134,7-7,7s-7-3.134-7-7s3.134-7,7-7S29,23.134,29,27z M29,10.5	c0,0.828-0.672,1.5-1.5,1.5S26,11.328,26,10.5S26.672,9,27.5,9S29,9.672,29,10.5z M29,14.5c0,0.828-0.672,1.5-1.5,1.5	S26,15.328,26,14.5s0.672-1.5,1.5-1.5S29,13.672,29,14.5z"/><linearGradient id="cuMGfsjyXPDEflQEiF5jlb" x1="25.886" x2="37.997" y1="27.936" y2="45.269" gradientUnits="userSpaceOnUse"><stop offset="0" stop-color="#f7ab40"/><stop offset=".32" stop-color="#f4a73c"/><stop offset=".671" stop-color="#ed992f"/><stop offset="1" stop-color="#e2861d"/></linearGradient><path fill="url(#cuMGfsjyXPDEflQEiF5jlb)" d="M43,17v21.256C43,39.219,42.206,40,41.226,40H9.56l4.803-6.327L43,17z"/><linearGradient id="cuMGfsjyXPDEflQEiF5jlc" x1="3.074" x2="39.962" y1="27.236" y2="45.125" gradientUnits="userSpaceOnUse"><stop offset="0" stop-color="#eba84b"/><stop offset="1" stop-color="#d97218"/></linearGradient><path fill="url(#cuMGfsjyXPDEflQEiF5jlc)" d="M5,17v21.256C5,39.219,5.794,40,6.774,40h34.453c0.56,0,1.053-0.26,1.378-0.658L5,17z"/></svg>