<svg xmlns="http://www.w3.org/2000/svg" viewBox="0 0 48 48"><linearGradient id="I5Yiger72_TGNOn2xPDW_a" x1="14.373" x2="32.49" y1="-28.799" y2="73.948" gradientUnits="userSpaceOnUse"><stop offset="0" stop-color="#33c481"/><stop offset="1" stop-color="#21a366"/></linearGradient><path fill="url(#I5Yiger72_TGNOn2xPDW_a)" d="M44.983,26.224c0.001-0.019,0-0.037,0-0.056c0.006-0.111,0.015-0.223-0.003-0.334 l-2.167-12.915c-0.003-0.018-0.014-0.032-0.018-0.05c-0.029-0.144-0.079-0.283-0.151-0.415c-0.009-0.017-0.012-0.036-0.022-0.052 c-0.001-0.002-0.001-0.004-0.003-0.006c-0.086-0.145-0.198-0.265-0.323-0.37c-0.01-0.009-0.016-0.022-0.026-0.03L31.437,3.329 c-0.014-0.011-0.032-0.015-0.047-0.026c-0.04-0.03-0.076-0.063-0.119-0.089c-0.089-0.053-0.181-0.096-0.275-0.129 c0,0-0.001,0-0.001,0c-0.147-0.052-0.299-0.072-0.45-0.077C30.53,3.007,30.516,3,30.5,3h-13c-0.007,0-0.013,0.003-0.02,0.003 c-0.15,0.002-0.296,0.029-0.437,0.074c-0.029,0.009-0.056,0.02-0.084,0.031c-0.141,0.055-0.276,0.123-0.397,0.22L5.729,11.995 c-0.017,0.014-0.027,0.033-0.044,0.047c-0.083,0.072-0.156,0.151-0.219,0.236C5.451,12.3,5.432,12.32,5.417,12.343 c-0.012,0.019-0.025,0.036-0.036,0.055c-0.007,0.012-0.011,0.024-0.018,0.036c-0.045,0.08-0.083,0.162-0.112,0.247 c-0.009,0.027-0.015,0.055-0.023,0.083c-0.014,0.051-0.032,0.101-0.041,0.153c0,0.001-0.001,0.002-0.001,0.003L3.024,25.901 c0,0,0,0.001,0,0.001c0,0.001,0,0.001,0,0.002L3.021,25.92c-0.001,0.007,0.001,0.014,0,0.021C3,26.078,3.002,26.212,3.017,26.343 c0.003,0.027,0.005,0.052,0.01,0.079c0.024,0.137,0.064,0.268,0.124,0.392c0.004,0.008,0.004,0.017,0.008,0.024l6.5,13 c0.004,0.009,0.013,0.014,0.018,0.023c0.083,0.158,0.192,0.303,0.33,0.425c0.013,0.012,0.028,0.02,0.041,0.031 c0.055,0.046,0.109,0.092,0.172,0.13c0.076,0.046,0.157,0.072,0.237,0.103c0.025,0.01,0.043,0.031,0.069,0.039l13,4.333 c0.008,0.003,0.016,0.001,0.024,0.004c0.024,0.008,0.048,0.012,0.073,0.019C23.747,44.978,23.873,45,23.999,45c0,0,0.001,0,0.001,0 s0.001,0,0.001,0c0.126,0,0.252-0.022,0.377-0.055c0.024-0.006,0.049-0.011,0.073-0.019c0.008-0.002,0.016-0.001,0.024-0.004 l13-4.333c0.002-0.001,0.004-0.003,0.006-0.004c0.103-0.035,0.203-0.079,0.299-0.139c0.064-0.039,0.119-0.086,0.175-0.132 c0.013-0.011,0.027-0.019,0.039-0.03c0.139-0.123,0.248-0.269,0.331-0.427c0.005-0.009,0.014-0.015,0.019-0.024l6.35-12.783 c0.148-0.202,0.24-0.44,0.273-0.695C44.975,26.312,44.979,26.269,44.983,26.224z M36.866,36.064l-3.945-6.475l7.864-1.413 L36.866,36.064z M7.179,28.172l7.9,1.417l-3.95,6.483L7.179,28.172z M17.097,6.744l4.031,6.719l-10.75-1.344l2.661-2.129 L17.097,6.744z M37.622,12.119l-10.75,1.344l4.031-6.719L37.622,12.119z M41.789,24.948l-7.952,1.429l6.62-9.369L41.789,24.948z M9.853,15.076l11.869,1.484l-4.451,9.015L9.853,15.076z M24,18.722L28.087,27l-8.174,0L24,18.722z M26.278,16.561l11.869-1.484 l-7.418,10.499L26.278,16.561z M28.216,30L24,39.728L19.785,30L28.216,30z M24,12.418L20.149,6h7.701L24,12.418z M7.547,17.011 l6.617,9.366l-7.94-1.425L7.547,17.011z M17.275,31.752l4.014,9.264l-8.028-2.676L17.275,31.752z M30.725,31.753l4.013,6.587 l-8.027,2.676L30.725,31.753z"/></svg>