<svg xmlns="http://www.w3.org/2000/svg" viewBox="0 0 48 48"><linearGradient id="o4AVfbU3yNkurbeBDmDgMa" x1="24" x2="24" y1="9.121" y2="40.475" gradientUnits="userSpaceOnUse"><stop offset="0" stop-color="#00b4f0"/><stop offset="1" stop-color="#0082db"/></linearGradient><path fill="url(#o4AVfbU3yNkurbeBDmDgMa)" d="M42.947,18.273l-15.49-9.23C26.552,8.36,25.404,8,24.134,8H8.436C5.388,8,3,10.286,3,13.203	v21.07C3,37.323,5.54,40,8.436,40h31.128C42.612,40,45,37.714,45,34.797V22.421C45,20.805,44.252,19.293,42.947,18.273z"/><path fill="#ccd8dc" d="M11.471,26H27v5h-6c0.009-1.175-0.56-1.986-1-2c-0.446-0.014-1.085,0.781-1.118,2H16	c-0.008-1.187-0.574-1.993-1-2c-0.429-0.007-1.028,0.792-1.059,2H11.47L9,28.956V27L11.471,26z"/><path fill="#2a2d30" d="M38.667,23.858c-0.201-0.807-0.833-1.455-1.668-1.688c-0.817-0.227-3.643-0.227-4.46,0	c-0.835,0.232-4.401,2.489-5.947,3.892c-0.817,0.742-0.761,4.149,0,4.875c1.277,1.219,5.112,3.66,5.947,3.892	c0.817,0.227,3.643,0.227,4.46,0c0.835-0.232,1.467-0.881,1.668-1.688C38.935,32.067,39,30.388,39,28.5S38.935,24.934,38.667,23.858	z M36.356,31.683c-0.079,0.393-0.412,0.674-0.808,0.69c-0.375,0.015-0.774,0.026-0.864,0.024c-0.524-0.008-0.913-0.482-0.83-1.005	c0.135-0.853,0.168-1.839,0.168-2.891s-0.033-2.037-0.168-2.89c-0.083-0.523,0.307-0.997,0.831-1.005	c0.106-0.002,0.498,0.009,0.863,0.023c0.396,0.015,0.729,0.297,0.808,0.689c0.174,0.874,0.326,1.983,0.326,3.183	C36.682,29.701,36.53,30.809,36.356,31.683z"/><linearGradient id="o4AVfbU3yNkurbeBDmDgMb" x1="6" x2="34" y1="14.5" y2="14.5" gradientUnits="userSpaceOnUse"><stop offset="0" stop-color="#007ad9"/><stop offset="1" stop-color="#007dd5"/></linearGradient><path fill="url(#o4AVfbU3yNkurbeBDmDgMb)" d="M23.177,11H9.162C7.416,11,6,12.343,6,14v3c0,0.552,0.472,1,1.054,1h25.89	c1.094,0,1.464-1.386,0.502-1.88l-8.765-4.759C24.22,11.124,23.703,11,23.177,11z"/><path d="M34.768,22c0.911,0,1.821,0.057,2.23,0.17c0.835,0.233,1.467,0.881,1.668,1.688C38.935,24.934,39,26.613,39,28.5 s-0.065,3.566-0.333,4.641c-0.201,0.807-0.833,1.456-1.668,1.688C36.59,34.943,35.679,35,34.768,35c-0.911,0-1.821-0.057-2.23-0.17 c-0.822-0.228-4.541-2.592-5.878-3.83H21c0.009-1.175-0.56-1.986-1-2c-0.004,0-0.008,0-0.012,0c-0.445,0-1.073,0.792-1.106,2H16 c-0.008-1.187-0.574-1.993-1-2c-0.002,0-0.004,0-0.005,0c-0.428,0-1.023,0.797-1.053,2H11.47L9,28.956V27l2.471-1h15.192 c1.579-1.406,5.052-3.601,5.875-3.83C32.947,22.057,33.858,22,34.768,22 M34.711,32.397c0.127,0,0.492-0.01,0.837-0.024 c0.396-0.016,0.729-0.297,0.808-0.69c0.174-0.874,0.326-1.982,0.326-3.182s-0.152-2.309-0.326-3.183 c-0.079-0.392-0.412-0.674-0.808-0.689c-0.336-0.013-0.695-0.023-0.833-0.023c-0.012,0-0.022,0-0.031,0 c-0.524,0.008-0.914,0.482-0.831,1.005c0.135,0.853,0.168,1.838,0.168,2.89s-0.033,2.038-0.168,2.891 c-0.083,0.523,0.306,0.997,0.83,1.005C34.69,32.397,34.7,32.397,34.711,32.397 M34.768,21c-0.527,0-1.826,0.02-2.498,0.207 c-0.995,0.277-4.279,2.374-5.978,3.793H11.471h-0.195l-0.18,0.073l-2.471,1L8,26.326V27v1.956v0.47l0.362,0.3l2.47,2.044L11.11,32 h0.36h2.471h0.975l0.025-0.975c0.003-0.134,0.016-0.256,0.034-0.365c0.015,0.105,0.024,0.22,0.025,0.346L15.007,32H16h2.882h0.973 l0.027-0.973c0.006-0.205,0.034-0.381,0.072-0.527c0.029,0.139,0.047,0.303,0.046,0.492L19.992,32H21h5.284 c1.565,1.321,5.013,3.523,5.987,3.793C32.942,35.98,34.241,36,34.768,36s1.826-0.02,2.498-0.207 c1.173-0.326,2.081-1.249,2.371-2.409C39.891,32.362,40,30.902,40,28.5c0-2.401-0.109-3.862-0.363-4.884 c-0.289-1.159-1.197-2.082-2.37-2.41C36.594,21.02,35.296,21,34.768,21L34.768,21z M34.864,31.395 c0.139-0.972,0.157-2.051,0.157-2.894c0-0.843-0.019-1.921-0.158-2.893c0.144,0.003,0.338,0.009,0.533,0.016 c0.189,0.983,0.285,1.951,0.285,2.877c0,0.926-0.096,1.893-0.286,2.877C35.198,31.385,35.003,31.391,34.864,31.395L34.864,31.395z" opacity=".07"/></svg>