<svg xmlns="http://www.w3.org/2000/svg" viewBox="0 0 48 48"><linearGradient id="6nqAC90mjBJS1IlFdyOqDa" x1="-1642" x2="-1642" y1="-188.987" y2="-195.012" gradientTransform="rotate(180 -809 -77)" gradientUnits="userSpaceOnUse"><stop offset="0" stop-color="#a1aab3"/><stop offset="1" stop-color="#8f979e"/></linearGradient><path fill="url(#6nqAC90mjBJS1IlFdyOqDa)" d="M14,38v-3h20v3l13,0.335V40c0,0.552-0.448,1-1,1H2c-0.552,0-1-0.448-1-1v-1.419L14,38z"/><linearGradient id="6nqAC90mjBJS1IlFdyOqDb" x1="8.364" x2="38.396" y1="-161.308" y2="-186.647" gradientTransform="matrix(1 0 0 -1 0 -154)" gradientUnits="userSpaceOnUse"><stop offset="0" stop-color="#a1aab3"/><stop offset="1" stop-color="#8f979e"/></linearGradient><path fill="url(#6nqAC90mjBJS1IlFdyOqDb)" d="M42,34H6c-1.105,0-2-0.895-2-2V9c0-1.105,0.895-2,2-2h36c1.105,0,2,0.895,2,2v23	C44,33.105,43.105,34,42,34z"/><radialGradient id="6nqAC90mjBJS1IlFdyOqDc" cx="222.224" cy="-497.557" r="83.03" gradientTransform="matrix(.8095 0 0 -.7188 -131.448 -300.79)" gradientUnits="userSpaceOnUse"><stop offset=".323" stop-color="#23d9d6"/><stop offset=".427" stop-color="#23d4d7"/><stop offset=".542" stop-color="#21c7dc"/><stop offset=".664" stop-color="#1fb0e2"/><stop offset=".789" stop-color="#1c91ec"/><stop offset=".917" stop-color="#1969f8"/><stop offset=".944" stop-color="#1860fb"/></radialGradient><rect width="36" height="23" x="6" y="9" fill="url(#6nqAC90mjBJS1IlFdyOqDc)"/><linearGradient id="6nqAC90mjBJS1IlFdyOqDd" x1="24" x2="24" y1="-187.989" y2="-193.01" gradientTransform="matrix(1 0 0 -1 0 -154)" gradientUnits="userSpaceOnUse"><stop offset="0" stop-color="#484b4f"/><stop offset=".028" stop-color="#565b61"/><stop offset=".066" stop-color="#626a72"/><stop offset=".114" stop-color="#6b757d"/><stop offset=".181" stop-color="#717b84"/><stop offset=".367" stop-color="#727d86"/></linearGradient><path fill="url(#6nqAC90mjBJS1IlFdyOqDd)" d="M46.909,38.335l-2.867-3.584C43.663,34.276,43.088,34,42.481,34H5.519	c-0.608,0-1.182,0.276-1.562,0.751L1.09,38.335C0.876,38.603,1.067,39,1.41,39h14.966c0.382,0,0.73-0.217,0.898-0.56l0.431-0.88	c0.168-0.343,0.516-0.56,0.898-0.56h10.793c0.382,0,0.73,0.217,0.898,0.56l0.431,0.88c0.168,0.343,0.516,0.56,0.898,0.56H46.59	C46.933,39,47.124,38.603,46.909,38.335z"/><path fill="#f5be00" d="M47.382,48H27.618C27.277,48,27,47.723,27,47.382V45h21v2.382C48,47.723,47.723,48,47.382,48z"/><path d="M44,41V24H28c-1.103,0-2,0.897-2,2v15H44z" opacity=".05"/><path d="M44,41V24.5H28c-0.827,0-1.5,0.673-1.5,1.5v15H44z" opacity=".07"/><path fill="#fece49" d="M48,46H27V26c0-0.552,0.448-1,1-1h19c0.552,0,1,0.448,1,1V46z"/><circle cx="42" cy="29" r="2" fill="#c48c00"/><circle cx="33" cy="29" r="2" fill="#c48c00"/><path fill="none" stroke="#bd370a" stroke-linecap="round" stroke-linejoin="round" stroke-miterlimit="10" stroke-width="1.5" d="M33,29v3.48c0,2.496,2.015,4.52,4.5,4.52h0c2.485,0,4.5-2.023,4.5-4.52V29"/></svg>