<svg xmlns="http://www.w3.org/2000/svg" viewBox="0 0 48 48"><linearGradient id="46WnjdckaQFFo6cTodtXqa" x1="19.786" x2="39.495" y1="7.154" y2="26.863" gradientUnits="userSpaceOnUse"><stop offset="0" stop-color="#ffd869"/><stop offset="1" stop-color="#fec52b"/></linearGradient><path fill="url(#46WnjdckaQFFo6cTodtXqa)" d="M20,7v14.25l13.072-1.438C35.181,19.62,37,21.281,37,23.398v0C37,25.388,35.388,27,33.398,27	H31v3h3c4.418,0,8-3.582,8-8v-1.128c0-6.724-5.127-12.338-11.823-12.947L20,7z"/><path fill="#eba600" d="M20,23L20,23c-0.552,0-1-0.448-1-1V6c0-0.552,0.448-1,1-1h0c0.552,0,1,0.448,1,1v16	C21,22.552,20.552,23,20,23z"/><path fill="#343434" d="M10,27v-1c0-0.552-0.448-1-1-1s-1,0.448-1,1v2c0,0.552,0.448,1,1,1h1h3v-2H10z"/><linearGradient id="46WnjdckaQFFo6cTodtXqb" x1="22" x2="22" y1="30.196" y2="41.559" gradientUnits="userSpaceOnUse"><stop offset="0" stop-color="#a34f27"/><stop offset=".587" stop-color="#8b3817"/><stop offset="1" stop-color="#802d10"/></linearGradient><rect width="24" height="10" x="10" y="33" fill="url(#46WnjdckaQFFo6cTodtXqb)"/><linearGradient id="46WnjdckaQFFo6cTodtXqc" x1="22" x2="22" y1="21.636" y2="30.463" gradientUnits="userSpaceOnUse"><stop offset="0" stop-color="#6d6d6d"/><stop offset=".126" stop-color="#626262"/><stop offset=".886" stop-color="#464646"/><stop offset="1" stop-color="#454545"/></linearGradient><path fill="url(#46WnjdckaQFFo6cTodtXqc)" d="M32,33H12v-5c0-0.552,0.448-1,1-1h18c0.552,0,1,0.448,1,1V33z"/><linearGradient id="46WnjdckaQFFo6cTodtXqd" x1="9" x2="35" y1="33" y2="33" gradientUnits="userSpaceOnUse"><stop offset="0" stop-color="#c26715"/><stop offset=".346" stop-color="#be6015"/><stop offset=".686" stop-color="#b54e16"/><stop offset=".979" stop-color="#ad3f16"/></linearGradient><path fill="url(#46WnjdckaQFFo6cTodtXqd)" d="M34,34H10c-0.552,0-1-0.448-1-1l0,0c0-0.552,0.448-1,1-1h24c0.552,0,1,0.448,1,1l0,0	C35,33.552,34.552,34,34,34z"/><linearGradient id="46WnjdckaQFFo6cTodtXqe" x1="9" x2="35" y1="43" y2="43" gradientUnits="userSpaceOnUse"><stop offset="0" stop-color="#c26715"/><stop offset=".346" stop-color="#be6015"/><stop offset=".686" stop-color="#b54e16"/><stop offset=".979" stop-color="#ad3f16"/></linearGradient><path fill="url(#46WnjdckaQFFo6cTodtXqe)" d="M34,44H10c-0.552,0-1-0.448-1-1l0,0c0-0.552,0.448-1,1-1h24c0.552,0,1,0.448,1,1l0,0	C35,43.552,34.552,44,34,44z"/><path d="M22,36c1.105,0,2,0.895,2,2s-0.895,2-2,2s-2-0.895-2-2S20.895,36,22,36 M22,35c-1.654,0-3,1.346-3,3s1.346,3,3,3 s3-1.346,3-3S23.654,35,22,35L22,35z" opacity=".05"/><path d="M22,36c1.105,0,2,0.895,2,2s-0.895,2-2,2s-2-0.895-2-2S20.895,36,22,36 M22,35.5c-1.379,0-2.5,1.122-2.5,2.5 s1.121,2.5,2.5,2.5s2.5-1.122,2.5-2.5S23.379,35.5,22,35.5L22,35.5z" opacity=".07"/><linearGradient id="46WnjdckaQFFo6cTodtXqf" x1="19.704" x2="24.088" y1="35.704" y2="40.088" gradientUnits="userSpaceOnUse"><stop offset="0" stop-color="#ffd869"/><stop offset="1" stop-color="#fec52b"/></linearGradient><circle cx="22" cy="38" r="2" fill="url(#46WnjdckaQFFo6cTodtXqf)"/><rect width="20" height="1" x="12" y="31" opacity=".05"/><rect width="20" height=".5" x="12" y="31.5" opacity=".07"/><rect width="24" height="1" x="10" y="34" opacity=".05" transform="rotate(-180 22 34.5)"/><rect width="24" height=".5" x="10" y="34" opacity=".07" transform="rotate(-180 22 34.25)"/><rect width="24" height="1" x="10" y="41" opacity=".05"/><rect width="24" height=".5" x="10" y="41.5" opacity=".07"/></svg>