<svg xmlns="http://www.w3.org/2000/svg" viewBox="0 0 48 48"><linearGradient id="TjVQWGEjWJ549eEQ~RJUga" x1="9.858" x2="38.142" y1="9.858" y2="38.142" gradientUnits="userSpaceOnUse"><stop offset="0" stop-color="#32bdef"/><stop offset="1" stop-color="#1ea2e4"/></linearGradient><path fill="url(#TjVQWGEjWJ549eEQ~RJUga)" d="M44,24c0,11.045-8.955,20-20,20S4,35.045,4,24S12.955,4,24,4S44,12.955,44,24z"/><linearGradient id="TjVQWGEjWJ549eEQ~RJUgb" x1="14.685" x2="33.16" y1="11.438" y2="36.354" gradientUnits="userSpaceOnUse"><stop offset="0" stop-color="#005fcc"/><stop offset="1" stop-color="#065299"/></linearGradient><circle cx="24" cy="24" r="17" fill="url(#TjVQWGEjWJ549eEQ~RJUgb)"/><path fill="#cf2e2e" d="M23.271,22.737l12.663-6.067c0.191-0.091,0.419-0.011,0.51,0.18c0.083,0.173,0.024,0.376-0.129,0.481	l-11.586,7.933c-0.667,0.457-1.577,0.286-2.034-0.381s-0.286-1.577,0.381-2.034C23.137,22.808,23.207,22.768,23.271,22.737z"/><circle cx="24" cy="24" r="2" fill="#ed5555"/><circle cx="24" cy="10" r="1" fill="#199be2"/><circle cx="38" cy="24" r="1" fill="#199be2"/><circle cx="10" cy="24" r="1" fill="#199be2"/><circle cx="17" cy="11.876" r="1" fill="#199be2"/><circle cx="11.876" cy="31" r="1" fill="#199be2"/><circle cx="11.876" cy="17" r="1" fill="#199be2"/><circle cx="36.124" cy="31" r="1" fill="#199be2"/><circle cx="31" cy="11.876" r="1" fill="#199be2"/></svg>