<svg xmlns="http://www.w3.org/2000/svg" data-name="Слой 1" viewBox="0 0 48 48"><defs><linearGradient id="D4q90J_JTu95YbQDGK_bSa" x1="14.747" x2="29.92" y1="4.907" y2="46.596" data-name="Новый образец градиентной зал 3" gradientUnits="userSpaceOnUse"><stop offset="0" stop-color="#32bdef"/><stop offset="1" stop-color="#1ea2e4"/></linearGradient><linearGradient id="D4q90J_JTu95YbQDGK_bSb" x1="18" x2="30" y1="36" y2="36" data-name="Безымянный градиент 5" gradientUnits="userSpaceOnUse"><stop offset="0" stop-color="#3079d6"/><stop offset="1" stop-color="#297cd2"/></linearGradient></defs><path fill="url(#D4q90J_JTu95YbQDGK_bSa)" d="M24.58289,8.1698H23.41711L3.87835,21.405A2,2,0,0,0,3,23.06089V37.59915a2,2,0,0,0,1.31651,1.87958L14,43H34l9.68349-3.52127A2,2,0,0,0,45,37.59915V23.06089a2,2,0,0,0-.87835-1.65587Z"/><path fill="#50e6ff" d="M14,26H34a0,0,0,0,1,0,0V41a2,2,0,0,1-2,2H16a2,2,0,0,1-2-2V26A0,0,0,0,1,14,26Z"/><path fill="url(#D4q90J_JTu95YbQDGK_bSb)" d="M20,29h8a2,2,0,0,1,2,2V43a0,0,0,0,1,0,0H18a0,0,0,0,1,0,0V31A2,2,0,0,1,20,29Z"/><path fill="#50e6ff" d="M14,26H34L24.88492,8.53865a.99622.99622,0,0,0-1.76984,0Z"/></svg>