<svg xmlns="http://www.w3.org/2000/svg" id="Layer_1" x="0" y="0" version="1.1" viewBox="0 0 48 48" xml:space="preserve"><path fill="#199be2" d="M36,32.4L32.4,36l7.9,7.9c0.2,0.2,0.5,0.2,0.7,0l2.8-2.8c0.2-0.2,0.2-0.5,0-0.7L36,32.4z"/><radialGradient id="SVGID_1_" cx="20.024" cy="1182.096" r="19.604" gradientTransform="translate(0 -1162)" gradientUnits="userSpaceOnUse"><stop offset=".693" stop-color="#006185"/><stop offset=".921" stop-color="#35c1f1"/></radialGradient><polygon fill="url(#SVGID_1_)" points="31.6,28.1 28.1,31.6 32.4,36 36,32.4"/><linearGradient id="SVGID_2_" x1="8.911" x2="31.339" y1="1170.911" y2="1193.339" gradientTransform="translate(0 -1162)" gradientUnits="userSpaceOnUse"><stop offset="0" stop-color="#a3ffff"/><stop offset=".223" stop-color="#9dfbff"/><stop offset=".53" stop-color="#8bf1ff"/><stop offset=".885" stop-color="#6ee0ff"/><stop offset="1" stop-color="#63daff"/></linearGradient><circle cx="20" cy="20" r="16" fill="url(#SVGID_2_)"/><linearGradient id="SVGID_3_" x1="10" x2="15.625" y1="21.563" y2="21.563" gradientUnits="userSpaceOnUse"><stop offset="0" stop-color="#3079d6"/><stop offset="1" stop-color="#297cd2"/></linearGradient><path fill="url(#SVGID_3_)" d="M10.1,20.3l4,4c0.2,0.2,0.4,0.2,0.6,0l0.8-0.8c0.2-0.2,0.2-0.4,0-0.6l-4-4c-0.2-0.2-0.4-0.2-0.6,0l-0.8,0.8 C10,19.9,10,20.1,10.1,20.3z"/><linearGradient id="SVGID_4_" x1="10" x2="15.625" y1="18.438" y2="18.438" gradientUnits="userSpaceOnUse"><stop offset="0" stop-color="#3079d6"/><stop offset="1" stop-color="#297cd2"/></linearGradient><path fill="url(#SVGID_4_)" d="M11.5,21.1l4-4c0.2-0.2,0.2-0.4,0-0.6l-0.8-0.8c-0.2-0.2-0.4-0.2-0.6,0l-4,4c-0.2,0.2-0.2,0.4,0,0.6l0.8,0.8 C11.1,21.3,11.4,21.3,11.5,21.1z"/><linearGradient id="SVGID_5_" x1="24.375" x2="30" y1="21.563" y2="21.563" gradientUnits="userSpaceOnUse"><stop offset="0" stop-color="#3079d6"/><stop offset="1" stop-color="#297cd2"/></linearGradient><path fill="url(#SVGID_5_)" d="M29.9,20.3l-4,4c-0.2,0.2-0.4,0.2-0.6,0l-0.8-0.8c-0.2-0.2-0.2-0.4,0-0.6l4-4c0.2-0.2,0.4-0.2,0.6,0l0.8,0.8 C30,19.9,30,20.1,29.9,20.3z"/><linearGradient id="SVGID_6_" x1="24.375" x2="30" y1="18.438" y2="18.438" gradientUnits="userSpaceOnUse"><stop offset="0" stop-color="#3079d6"/><stop offset="1" stop-color="#297cd2"/></linearGradient><path fill="url(#SVGID_6_)" d="M28.5,21.1l-4-4c-0.2-0.2-0.2-0.4,0-0.6l0.8-0.8c0.2-0.2,0.4-0.2,0.6,0l4,4c0.2,0.2,0.2,0.4,0,0.6L29,21.1 C28.9,21.3,28.6,21.3,28.5,21.1z"/><linearGradient id="SVGID_7_" x1="17.429" x2="22.571" y1="20" y2="20" gradientUnits="userSpaceOnUse"><stop offset="0" stop-color="#3079d6"/><stop offset="1" stop-color="#297cd2"/></linearGradient><path fill="url(#SVGID_7_)" d="M22.3,12.9h-1.5c-0.2,0-0.4,0.1-0.4,0.3l-2.9,13.5c0,0.2,0.1,0.4,0.3,0.4h1.5c0.2,0,0.4-0.1,0.4-0.3l2.9-13.5 C22.6,13.1,22.5,12.9,22.3,12.9z"/></svg>