<svg xmlns="http://www.w3.org/2000/svg" viewBox="0 0 48 48"><linearGradient id="2BCldPgb_SoCBFjSzPyqMa" x1="24" x2="24" y1="7.155" y2="27.616" gradientUnits="userSpaceOnUse"><stop offset="0" stop-color="#889097"/><stop offset=".331" stop-color="#848c94"/><stop offset=".669" stop-color="#78828b"/><stop offset="1" stop-color="#64717c"/></linearGradient><rect width="8" height="27" x="20" y="10" fill="url(#2BCldPgb_SoCBFjSzPyqMa)"/><path fill="#21a366" d="M22,35c0-4-2-12-2-12s-2,8-2,12s0,6,0,6h4C22,41,22,39,22,35z"/><path fill="#21a366" d="M30,33c0-4-2-12-2-12s-2,8-2,12s0,10,0,10h4C30,43,30,37,30,33z"/><path fill="#21a366" d="M38,35c0-4-2-12-2-12s-2,8-2,12s0,6,0,6h4C38,41,38,39,38,35z"/><path fill="#21a366" d="M14,38c0-4-2-10-2-10s-2,6-2,10s0,3,0,3h4C14,41,14,42,14,38z"/><path fill="#33c481" d="M40,21c0,0-2,8-2,12s0,3,0,3c0,1.105-0.895,2-2,2s-2-0.895-2-2c0,0,0,3,0-1s-2-12-2-12s-2,8-2,12 s0,4,0,4c0,1.105-0.895,2-2,2s-2-0.895-2-2c0,0,0-4,0-8s-2-11-2-11s-2,7-2,11s0,5,0,5c0,1.105-0.895,2-2,2s-2-0.895-2-2 c0,0,0,1,0-3s-2-12-2-12s-2,8-2,12s0,6,0,6c0,1.105-0.895,2-2,2s-2-0.895-2-2c0,0,0-1,0-5S8,22,8,22s-2,8-2,12s0,7,0,7 c0,1.105,0.895,2,2,2h32c1.105,0,2-0.895,2-2c0,0,0-4,0-8S40,21,40,21z"/><path fill="#3c3c3c" d="M28.5,10h-9C18.672,10,18,9.328,18,8.5v0C18,7.672,18.672,7,19.5,7h9C29.328,7,30,7.672,30,8.5v0 C30,9.328,29.328,10,28.5,10z"/><path fill="#1798e1" d="M39.333,8C40.253,8,41,8.672,41,9.5S40.253,11,39.333,11C38.413,11,36,9.5,36,9.5S38.413,8,39.333,8 z"/><path fill="#1798e1" d="M33.333,11C34.253,11,35,11.672,35,12.5S34.253,14,33.333,14C32.413,14,30,12.5,30,12.5 S32.413,11,33.333,11z"/><path fill="#1798e1" d="M39.333,14C40.253,14,41,14.672,41,15.5c0,0.828-0.747,1.5-1.667,1.5C38.413,17,36,15.5,36,15.5 S38.413,14,39.333,14z"/><path fill="#1798e1" d="M8.667,17C7.747,17,7,16.328,7,15.5S7.747,14,8.667,14S12,15.5,12,15.5S9.587,17,8.667,17z"/><path fill="#1798e1" d="M14.667,14C13.747,14,13,13.328,13,12.5s0.747-1.5,1.667-1.5S18,12.5,18,12.5S15.587,14,14.667,14z"/><path fill="#1798e1" d="M8.667,11C7.747,11,7,10.328,7,9.5S7.747,8,8.667,8S12,9.5,12,9.5S9.587,11,8.667,11z"/></svg>