<svg xmlns="http://www.w3.org/2000/svg" viewBox="0 0 48 48"><path fill="#50e6ff" d="M24.042,19.147c2.02-1.301,4.419-2.064,7-2.064c2.141,0,4.155,0.528,5.934,1.447	C36.981,18.367,37,18.207,37,18.042c0-7.157-5.802-12.958-12.958-12.958c-7.157,0-12.958,5.802-12.958,12.958	c0,0.165,0.019,0.325,0.025,0.489c1.779-0.919,3.793-1.447,5.934-1.447C19.623,17.083,22.022,17.847,24.042,19.147z"/><path fill="#199be2" d="M18.083,30.042c0-0.165,0.019-0.325,0.025-0.489c-4.032-2.083-6.82-6.215-7-11.023	c-4.169,2.154-7.025,6.495-7.025,11.511C4.083,37.198,9.885,43,17.042,43c2.581,0,4.98-0.763,7-2.064	C20.461,38.63,18.083,34.617,18.083,30.042z"/><path fill="#35c1f1" d="M18.108,29.553c0.163-4.371,2.482-8.183,5.934-10.406c-2.02-1.301-4.419-2.064-7-2.064	c-2.141,0-4.155,0.528-5.934,1.447C11.288,23.338,14.076,27.47,18.108,29.553z"/><path fill="#0d62ab" d="M36.975,18.53c-0.18,4.807-2.968,8.94-7,11.023C29.981,29.716,30,29.877,30,30.042	c0,4.576-2.377,8.589-5.958,10.894c2.02,1.301,4.419,2.064,7,2.064C38.198,43,44,37.198,44,30.042	C44,25.025,41.145,20.684,36.975,18.53z"/><path fill="#199be2" d="M24.042,19.147c3.452,2.223,5.77,6.035,5.934,10.406c4.032-2.083,6.82-6.215,7-11.023	c-1.779-0.919-3.793-1.447-5.934-1.447C28.461,17.083,26.062,17.847,24.042,19.147z"/><path fill="#0078d4" d="M30,30.042c0-0.165-0.019-0.325-0.025-0.489C28.196,30.472,26.182,31,24.042,31	s-4.155-0.528-5.934-1.447c-0.006,0.163-0.025,0.324-0.025,0.489c0,4.576,2.378,8.589,5.958,10.894	C27.623,38.63,30,34.617,30,30.042z"/><path fill="#006fc4" d="M24.042,19.147c-3.452,2.223-5.77,6.035-5.934,10.406C19.887,30.472,21.901,31,24.042,31	s4.155-0.528,5.934-1.447C29.812,25.182,27.493,21.37,24.042,19.147z"/></svg>