<svg xmlns="http://www.w3.org/2000/svg" viewBox="0 0 48 48"><path fill="#199be2" d="M28,23h-4v2h4c0.552,0,1-0.448,1-1C29,23.448,28.552,23,28,23z"/><path fill="#199be2" d="M28,19h-4v2h4c0.552,0,1-0.448,1-1C29,19.448,28.552,19,28,19z"/><path fill="#199be2" d="M28,15h-4v2h4c0.552,0,1-0.448,1-1C29,15.448,28.552,15,28,15z"/><path fill="#199be2" d="M28,11h-4v2h4c0.552,0,1-0.448,1-1C29,11.448,28.552,11,28,11z"/><path fill="#199be2" d="M28,7h-4v2h4c0.552,0,1-0.448,1-1C29,7.448,28.552,7,28,7z"/><path fill="#35c1f1" d="M28,26.947V5c0-0.552-0.448-1-1-1h-6c-0.552,0-1,0.448-1,1v21.947c-2.961,1.474-5,4.522-5,8.053	c0,4.971,4.029,9,9,9s9-4.029,9-9C33,31.468,30.961,28.42,28,26.947z"/><circle cx="24" cy="35" r="6" fill="#af2031"/><rect width="2" height="16" x="23" y="15" fill="#af2031"/><rect width="2" height="8" x="23" y="7" fill="#1b9de2"/></svg>