<svg xmlns="http://www.w3.org/2000/svg" viewBox="0 0 48 48"><linearGradient id="l1blbbKhfUEPGWCeh9Bb8a" x1="23.189" x2="25.459" y1="40.111" y2="48.083" gradientUnits="userSpaceOnUse"><stop offset="0" stop-color="#f44f5a"/><stop offset=".443" stop-color="#ee3d4a"/><stop offset="1" stop-color="#e52030"/></linearGradient><path fill="url(#l1blbbKhfUEPGWCeh9Bb8a)" d="M27,43c0,2-3,5-3,5s-3-3-3-5c0-1.657,1.343-3,3-3S27,41.343,27,43z"/><linearGradient id="l1blbbKhfUEPGWCeh9Bb8b" x1="23.714" x2="24.564" y1="42.041" y2="45.026" gradientUnits="userSpaceOnUse"><stop offset="0" stop-color="#ffcf7b"/><stop offset=".195" stop-color="#fecd76"/><stop offset=".439" stop-color="#fac666"/><stop offset=".71" stop-color="#f3bc4d"/><stop offset=".997" stop-color="#eaad29"/><stop offset="1" stop-color="#eaad29"/></linearGradient><path fill="url(#l1blbbKhfUEPGWCeh9Bb8b)" d="M25,43c0,1-1,2-1,2s-1-1-1-2c0-0.552,0.448-1,1-1S25,42.448,25,43z"/><rect width="12" height="23" x="18" y="11" fill="#35c1f1"/><path fill="#50e6ff" d="M25.462,2.639c-0.793-0.852-2.132-0.852-2.924,0C20.762,4.547,18,7.952,18,10.665V11h12v-0.335	C30,7.952,27.238,4.547,25.462,2.639z"/><circle cx="24" cy="21.454" r="3.546" fill="#50e6ff"/><circle cx="24" cy="21.454" r="2.454" fill="#0078d4"/><path fill="#199be2" d="M30,23l5.277,6.157c0.466,0.544,0.722,1.236,0.722,1.952L36,37l-6-3V23z"/><path fill="#199be2" d="M18,34l-6,3l0.001-5.891c0-0.716,0.256-1.408,0.722-1.952L18,23V34z"/><path fill="#50e6ff" d="M28,37h-8c-1.105,0-2-0.895-2-2v-1h12v1C30,36.105,29.105,37,28,37z"/><path fill="#199be2" d="M25.438,41h-2.877c-0.918,0-1.718-0.625-1.94-1.515L20,37h8l-0.621,2.485	C27.156,40.375,26.356,41,25.438,41z"/></svg>