<svg xmlns="http://www.w3.org/2000/svg" viewBox="0 0 48 48"><linearGradient id="c4eqFQuqKZvOXzXppWoAma" x1="10.59" x2="32.356" y1="110.287" y2="76.972" gradientTransform="matrix(1 0 0 -1 0 118)" gradientUnits="userSpaceOnUse"><stop offset="0" stop-color="#21ad64"/><stop offset="1" stop-color="#088242"/></linearGradient><path fill="url(#c4eqFQuqKZvOXzXppWoAma)" d="M37.921,11H4c-1.105,0-2,0.895-2,2v22c0,1.105,0.895,2,2,2h40c1.105,0,2-0.895,2-2v-8	l-5.27-14.053C40.291,11.776,39.172,11,37.921,11z"/><path fill="#586169" d="M43,37c0,2.761-2.238,5-5,5s-5-2.239-5-5s2.238-5,5-5S43,34.239,43,37"/><path fill="#586169" d="M17,37c0,2.761-2.239,5-5,5s-5-2.239-5-5s2.239-5,5-5S17,34.239,17,37"/><path fill="#999" d="M40,37c0,1.105-0.895,2-2,2s-2-0.895-2-2s0.895-2,2-2S40,35.895,40,37"/><path fill="#999" d="M14,37c0,1.105-0.895,2-2,2s-2-0.895-2-2s0.895-2,2-2S14,35.895,14,37"/><linearGradient id="c4eqFQuqKZvOXzXppWoAmb" x1="29.5" x2="29.5" y1="112.06" y2="97.825" gradientTransform="matrix(1 0 0 -1 0 118)" gradientUnits="userSpaceOnUse"><stop offset="0" stop-color="#f44f5a"/><stop offset=".443" stop-color="#ee3d4a"/><stop offset="1" stop-color="#e52030"/></linearGradient><path fill="url(#c4eqFQuqKZvOXzXppWoAmb)" d="M29.61,7H28v4h3l-0.905-3.621C30.039,7.156,29.839,7,29.61,7z"/><path fill="#cf1928" d="M26.39,7H28v4h-3l0.905-3.621C25.961,7.156,26.161,7,26.39,7z"/><linearGradient id="c4eqFQuqKZvOXzXppWoAmc" x1="42.166" x2="33.108" y1="92.565" y2="102.164" gradientTransform="matrix(1 0 0 -1 0 118)" gradientUnits="userSpaceOnUse"><stop offset="0" stop-color="#63daff"/><stop offset="1" stop-color="#a3ffff"/></linearGradient><path fill="url(#c4eqFQuqKZvOXzXppWoAmc)" d="M32,15v7c0,0.552,0.448,1,1,1h2.382c0.379,0,0.725,0.214,0.894,0.553l0.447,0.894	C36.893,24.786,37.239,25,37.618,25H41c0.552,0,1-0.448,1-1v-1.163l-2.81-8.163C39.051,14.271,38.671,14,38.244,14H33	C32.448,14,32,14.448,32,15z"/><path d="M15.752,29.001c-0.689,0-1.25-0.561-1.25-1.25v-0.396c-0.728-0.13-1.453-0.338-2.043-0.589	c-0.582-0.249-0.958-0.814-0.958-1.442v-1.192c0-0.73,0.593-1.324,1.322-1.324c0.205,0,0.411,0.049,0.596,0.143	c0.301,0.155,1.365,0.654,2.582,0.654c0.523,0,0.644-0.113,0.645-0.115c-0.098-0.199-0.966-0.521-1.383-0.675	c-1.568-0.581-3.937-1.458-3.937-4.315c0-1.965,1.178-3.404,3.174-3.915V14.25c0-0.689,0.561-1.25,1.25-1.25h0.5	c0.689,0,1.25,0.561,1.25,1.25v0.222c0.593,0.068,1.093,0.184,1.52,0.351c0.231,0.091,0.98,0.471,0.98,1.574v1.047	c0,0.729-0.594,1.321-1.323,1.321c-0.199,0-0.392-0.043-0.572-0.128c-0.382-0.179-1.166-0.479-2.106-0.479	c-0.237,0-0.638,0.036-0.638,0.169c0,0.24,0.976,0.619,1.5,0.822c1.518,0.589,3.813,1.48,3.813,4.2c0,1.514-0.84,3.408-3.172,3.982	v0.422c0,0.689-0.561,1.25-1.25,1.25H15.752z" opacity=".05"/><path d="M15.752,28.501c-0.414,0-0.75-0.336-0.75-0.75v-0.824c-0.812-0.109-1.677-0.336-2.347-0.622	c-0.398-0.17-0.654-0.555-0.654-0.982v-1.192c0-0.455,0.369-0.824,0.822-0.824c0.127,0,0.256,0.031,0.371,0.089	c0.324,0.167,1.481,0.708,2.807,0.708c1.138,0,1.138-0.472,1.138-0.65c0-0.446-0.643-0.716-1.702-1.108	c-1.524-0.564-3.611-1.337-3.611-3.847c0-2.172,1.566-3.218,3.174-3.513V14.25c0-0.414,0.336-0.75,0.75-0.75h0.5	c0.414,0,0.75,0.336,0.75,0.75v0.677c0.75,0.053,1.354,0.172,1.838,0.361c0.2,0.079,0.662,0.343,0.662,1.108v1.047	c0,0.453-0.37,0.821-0.823,0.821c-0.125,0-0.245-0.027-0.358-0.081c-0.42-0.196-1.283-0.527-2.319-0.527	c-0.755,0-1.138,0.225-1.138,0.669c0,0.542,0.687,0.849,1.819,1.288c1.475,0.572,3.494,1.356,3.494,3.734	c0,1.445-0.841,3.188-3.172,3.574v0.83c0,0.414-0.336,0.75-0.75,0.75H15.752z" opacity=".07"/><path fill="#fff" d="M19.674,23.347c0-3.599-5.313-2.896-5.313-5.022c0-1.11,1.248-1.169,1.638-1.169	c0.938,0,1.843,0.252,2.533,0.575C18.75,17.834,19,17.683,19,17.443v-1.047c0-0.351-0.132-0.559-0.343-0.642	c-0.473-0.184-1.152-0.319-2.157-0.352V14.25c0-0.138-0.112-0.25-0.25-0.25h-0.5c-0.138,0-0.25,0.112-0.25,0.25v1.171	c-1.559,0.152-3.174,1.032-3.174,3.078c0,3.731,5.313,2.99,5.313,4.955c0,0.618-0.395,1.15-1.638,1.15	c-1.25,0-2.399-0.436-3.034-0.762c-0.214-0.109-0.466,0.049-0.466,0.289v1.192c0,0.228,0.138,0.432,0.349,0.522	c0.753,0.32,1.763,0.562,2.652,0.633v1.273c0,0.138,0.112,0.25,0.25,0.25h0.5c0.138,0,0.25-0.112,0.25-0.25V26.48	C18.832,26.286,19.674,24.725,19.674,23.347z"/></svg>