<svg xmlns="http://www.w3.org/2000/svg" viewBox="0 0 48 48"><linearGradient id="IP_cnMY_gWO2o~1ScBBWoa" x1="-20.576" x2="38.26" y1="95.773" y2="5.471" gradientTransform="matrix(1 0 0 -1 0 50)" gradientUnits="userSpaceOnUse"><stop offset="0" stop-color="#ec81a3"/><stop offset="1" stop-color="#dd386d"/></linearGradient><path fill="url(#IP_cnMY_gWO2o~1ScBBWoa)" d="M26,18c0,0,4,5,10,5h7.127c0.396,0,0.637,0.433,0.424,0.766	c-1.253,1.965-5.207,7.102-12.831,8.148c-0.367,0.05-0.563,0.459-0.35,0.762c0.573,0.814,1.927,2.098,4.838,2.297	c0.371,0.025,0.578,0.446,0.373,0.757C34.396,37.524,30.395,42,20,42C9.861,42,4.819,33.504,4.092,29.042	c-0.069-0.424,0.381-0.736,0.749-0.515C5.943,29.19,7.971,30.324,10,31c3,1,7.172,0.586,10,2c1.117,0.559,1.61,1.741,1.828,2.676	c0.161,0.692,0.899,1.081,1.573,0.857l0.78-0.26c0.432-0.144,0.637-0.637,0.433-1.045L24,34l2.191,1.095	C27.022,35.511,28,34.907,28,33.977v-2.183c0-0.523,0.122-1.038,0.355-1.505l0,0c0.385-0.77,0.234-1.7-0.375-2.309l-1.496-1.496	c-0.323-0.323-0.622-0.668-0.896-1.033l0,0c-1.717-2.289-3.751-4.323-6.04-6.04L19,19l0,0c0-2.75-2.25-5-5-5l0,0	c0,0,2.604-1.736,1.342-5.209c-0.132-0.362-0.611-0.441-0.854-0.142C12.974,10.516,9.002,14.001,7,13c-2.53-1.265,1-7,6-7	c7.655,0,13.478,8.239,19.222,8.951c0.379,0.047,0.564,0.498,0.323,0.794C31.821,16.634,30.049,18,26,18z M41.82,12.841L41.127,10	l-2.594,1.41l-2.966-0.223l0.568,2.861L35,16.747l2.955,0.355L40.208,19l1.261-2.648L44,14.83L41.82,12.841z"/></svg>