<svg xmlns="http://www.w3.org/2000/svg" viewBox="0 0 48 48"><circle cx="39.5" cy="31.5" r="2.5" fill="#c98e00"/><polygon fill="#c98e00" points="26.211,41.683 40.68,33.693 38.54,29.191 26,35"/><circle cx="36" cy="14" r="7" fill="#ff8f6b"/><circle cx="36" cy="14" r="5" fill="#ed6c47"/><radialGradient id="LKoi5bpnkqnt3KkfjIcdoa" cx="31.006" cy="16.86" r="9.908" gradientUnits="userSpaceOnUse"><stop offset="0"/><stop offset="1" stop-opacity="0"/></radialGradient><path fill="url(#LKoi5bpnkqnt3KkfjIcdoa)" d="M41,17c0-4.577-3.079-8.427-7.275-9.614C30.977,8.331,29,10.932,29,14c0,3.866,3.134,7,7,7	c1.847,0,3.521-0.721,4.772-1.889C40.919,18.43,41,17.725,41,17z"/><linearGradient id="LKoi5bpnkqnt3KkfjIcdob" x1="3" x2="45" y1="33" y2="33" gradientUnits="userSpaceOnUse"><stop offset="0" stop-color="#ffcf54"/><stop offset=".261" stop-color="#fdcb4d"/><stop offset=".639" stop-color="#f7c13a"/><stop offset="1" stop-color="#f0b421"/></linearGradient><path fill="url(#LKoi5bpnkqnt3KkfjIcdob)" d="M45,32.5c0-1.381-1.119-2.5-2.5-2.5c-0.34,0-0.664,0.069-0.959,0.192l-0.001-0.001 l-0.011,0.005c-0.002,0.001-0.004,0.002-0.006,0.003L29,36l-1.5-1c1.381,0,2.5-1.119,2.5-2.5c0-0.93-0.514-1.732-1.267-2.163 l0.004-0.016l-13.651-6.866l-0.025,0C14.431,23.169,13.737,23,13,23c-0.718,0-1.397,0.157-2.015,0.43l-0.022,0L3,27v13l8.09-3.718 l15.911,6.508l0.001,0C27.309,42.924,27.645,43,28,43c0.435,0,0.838-0.121,1.195-0.317l0.017-0.001l14.469-7.989l-0.001-0.002 C44.462,34.269,45,33.452,45,32.5z"/><linearGradient id="LKoi5bpnkqnt3KkfjIcdoc" x1="25.509" x2="36.645" y1="11.509" y2="22.645" gradientUnits="userSpaceOnUse"><stop offset="0" stop-color="#fede00"/><stop offset="1" stop-color="#ffd000"/></linearGradient><circle cx="31" cy="17" r="8" fill="url(#LKoi5bpnkqnt3KkfjIcdoc)"/><circle cx="31" cy="17" r="6" fill="#f5be00"/><path fill="#fee119" d="M29.214,19.948v-1.192c0.433,0.265,0.894,0.397,1.383,0.397c0.368,0,0.656-0.087,0.864-0.263 c0.208-0.175,0.311-0.413,0.311-0.713c0-0.627-0.443-0.941-1.329-0.941c-0.289,0-0.638,0.026-1.047,0.08v-3.538h3.507v1.14h-2.314 v1.268c0.185-0.018,0.361-0.026,0.526-0.026c0.651,0,1.16,0.171,1.528,0.512c0.368,0.342,0.552,0.801,0.552,1.378 c0,0.639-0.219,1.161-0.658,1.565c-0.439,0.405-1.033,0.607-1.784,0.607C30.141,20.222,29.629,20.131,29.214,19.948z"/><circle cx="27.5" cy="32.5" r="1.5" fill="#ffde87"/><linearGradient id="LKoi5bpnkqnt3KkfjIcdod" x1="22.337" x2="24.123" y1="36.368" y2="33.288" gradientUnits="userSpaceOnUse"><stop offset="0" stop-color="#f0b421" stop-opacity="0"/><stop offset=".512" stop-color="#e9ab12" stop-opacity=".512"/><stop offset="1" stop-color="#e09f00"/></linearGradient><path fill="url(#LKoi5bpnkqnt3KkfjIcdod)" d="M29,36l-1.489-0.998c-1.255-0.06-2.242-0.468-10.511-3.513V35l11.551,4.734	C28.551,39.734,27.733,37.451,29,36z"/></svg>