<svg xmlns="http://www.w3.org/2000/svg" viewBox="0 0 48 48"><radialGradient id="GtuSadEpeCfqT84Mm2_e0a" cx="10.062" cy="9.438" r="40.916" gradientUnits="userSpaceOnUse"><stop offset="0" stop-color="#f0f0f0"/><stop offset="1" stop-color="#7d7d7d"/></radialGradient><path fill="url(#GtuSadEpeCfqT84Mm2_e0a)" d="M44,24c0,11.045-8.955,20-20,20S4,35.045,4,24S12.955,4,24,4S44,12.955,44,24z"/><linearGradient id="GtuSadEpeCfqT84Mm2_e0b" x1="16.648" x2="31.667" y1="5.762" y2="41.946" gradientUnits="userSpaceOnUse"><stop offset="0" stop-color="#6d7479"/><stop offset="1" stop-color="#323538"/></linearGradient><path fill="url(#GtuSadEpeCfqT84Mm2_e0b)" d="M32.197,22.159l-2.768,8.518c-0.134,0.412-0.518,0.691-0.951,0.691h-8.955	c-0.433,0-0.817-0.279-0.951-0.691l-2.768-8.518c-0.134-0.412,0.013-0.863,0.363-1.118l7.245-5.264c0.35-0.255,0.825-0.255,1.176,0	l7.245,5.264C32.184,21.296,32.33,21.747,32.197,22.159z M30.886,5.243C28.737,4.453,26.424,4,24,4s-4.737,0.453-6.886,1.243	l6.429,3.31c0.287,0.148,0.628,0.148,0.915,0L30.886,5.243z M43.02,17.82c-0.748-2.305-1.894-4.365-3.31-6.165l-1.161,7.137	c-0.052,0.319,0.053,0.643,0.283,0.871l5.134,5.091C44.053,22.465,43.769,20.125,43.02,17.82z M8.288,11.655	c-1.416,1.801-2.561,3.86-3.31,6.165c-0.75,2.305-1.032,4.644-0.945,6.934l5.134-5.091c0.229-0.227,0.335-0.552,0.283-0.871	L8.288,11.655z M7.403,35.128c1.275,1.903,2.88,3.628,4.841,5.054c1.961,1.425,4.098,2.416,6.302,3.041l-3.256-6.456	c-0.145-0.288-0.421-0.489-0.741-0.538L7.403,35.128z M29.454,43.222c2.203-0.624,4.341-1.618,6.302-3.042s3.565-3.151,4.841-5.053	l-7.147,1.101c-0.319,0.049-0.595,0.25-0.741,0.538L29.454,43.222z"/></svg>