<svg xmlns="http://www.w3.org/2000/svg" viewBox="0 0 48 48"><linearGradient id="yh15AbgXvhA~WIQ6jtRaOa" x1="5.662" x2="41.927" y1="-608.546" y2="-601.172" gradientTransform="translate(0 614)" gradientUnits="userSpaceOnUse"><stop offset="0" stop-color="#464eb0"/><stop offset="1" stop-color="#343b9e"/></linearGradient><path fill="url(#yh15AbgXvhA~WIQ6jtRaOa)" d="M43,8v4H5V8c0-1.1,0.9-2,2-2h34C42.1,6,43,6.9,43,8z"/><circle cx="36" cy="9" r="1" fill="#6d75cf"/><circle cx="40" cy="9" r="1" fill="#6d75cf"/><path fill="#50e6ff" d="M5,19h38v20H5V19z"/><path fill="#35c1f1" d="M5,39h38v1c0,1.105-0.895,2-2,2H7c-1.105,0-2-0.895-2-2V39z"/><path fill="#353c9f" d="M42,18H6l-3,3v1c0,1.105,0.895,2,2,2h38c1.105,0,2-0.895,2-2v-1L42,18z"/><polygon fill="#6d75cf" points="43,12 5,12 3,21 45,21"/><linearGradient id="yh15AbgXvhA~WIQ6jtRaOb" x1="35.871" x2="40.144" y1="-45.751" y2="-66.323" gradientTransform="matrix(1 0 0 -1 0 -18)" gradientUnits="userSpaceOnUse"><stop offset="0" stop-color="#f44f5a"/><stop offset=".443" stop-color="#ee3d4a"/><stop offset="1" stop-color="#e52030"/></linearGradient><path fill="url(#yh15AbgXvhA~WIQ6jtRaOb)" d="M39.185,28.31l1.227,0.688l1.407,0.017c0.844,0.01,1.622,0.459,2.053,1.185l0.718,1.21	l1.21,0.718c0.726,0.431,1.175,1.209,1.185,2.053l0.017,1.407l0.688,1.227c0.413,0.736,0.413,1.634,0,2.37l-0.688,1.227	l-0.017,1.407c-0.01,0.844-0.459,1.622-1.185,2.053l-1.21,0.718l-0.718,1.21c-0.431,0.726-1.209,1.175-2.053,1.185l-1.407,0.017	l-1.227,0.688c-0.736,0.413-1.634,0.413-2.37,0l-1.227-0.688l-1.407-0.017c-0.844-0.01-1.622-0.459-2.053-1.185l-0.718-1.21	l-1.21-0.718c-0.726-0.431-1.175-1.209-1.185-2.053l-0.017-1.407l-0.688-1.227c-0.413-0.736-0.413-1.634,0-2.37l0.688-1.227	l0.017-1.407c0.01-0.844,0.459-1.622,1.185-2.053l1.21-0.718l0.718-1.21c0.431-0.726,1.209-1.175,2.053-1.185l1.407-0.017	l1.227-0.688C37.551,27.897,38.449,27.897,39.185,28.31z"/><path d="M41.12,36.932c-0.143,0-0.281,0.007-0.418,0.021l1.932-2.965	c0.239-0.369,0.258-0.839,0.048-1.226s-0.613-0.627-1.053-0.627h-0.995c-0.532,0-1.022,0.267-1.313,0.713l-1.065,1.641	C37.914,32.95,36.736,32,35.063,32c-2.079,0-3.477,1.462-3.477,3.639c0,2.557,2.052,3.565,3.704,3.41l-1.926,2.962	c-0.239,0.369-0.258,0.838-0.048,1.225c0.21,0.387,0.614,0.627,1.054,0.627h0.981c0.532,0,1.022-0.266,1.312-0.711l1.081-1.66	C38.096,43.006,39.316,44,40.95,44c2.039,0,3.463-1.491,3.463-3.625C44.413,38.251,43.151,36.932,41.12,36.932z M41.059,39.126	L41.059,39.126l0.002,0.988c-0.001,0-0.001,0-0.002,0V39.126z" opacity=".05"/><path d="M41.12,37.432c-0.609,0-1.15,0.148-1.599,0.417l2.692-4.133l0,0	c0.141-0.215,0.151-0.489,0.028-0.715c-0.122-0.225-0.357-0.365-0.613-0.365h-0.995c-0.362,0-0.696,0.181-0.894,0.485l-1.935,2.977	c0.032-0.205,0.05-0.419,0.05-0.642c0-1.823-1.07-2.956-2.792-2.956c-1.809,0-2.977,1.232-2.977,3.139	c0,2.023,1.409,2.929,2.806,2.929c0.596,0,1.126-0.142,1.567-0.4l-2.675,4.116c-0.14,0.215-0.15,0.489-0.028,0.714	c0.123,0.226,0.358,0.366,0.614,0.366h0.981c0.362,0,0.696-0.181,0.894-0.484l1.957-3.005c-0.039,0.221-0.059,0.454-0.059,0.696	c0,2.023,1.409,2.929,2.806,2.929c1.772,0,2.963-1.256,2.963-3.125C43.913,38.532,42.869,37.432,41.12,37.432z M35.438,35.517	c0,0.857-0.29,0.857-0.464,0.857c-0.165,0-0.442,0-0.442-0.802c0-0.877,0.307-0.877,0.49-0.877	C35.167,34.694,35.438,34.694,35.438,35.517z M41.495,40.448c0,0.857-0.29,0.857-0.463,0.857c-0.182,0-0.457,0-0.457-0.802	c0-0.877,0.303-0.877,0.483-0.877C41.452,39.626,41.495,40.201,41.495,40.448z" opacity=".07"/><path fill="#fff" d="M34.893,38.068c-0.88,0-2.306-0.485-2.306-2.429c0-1.682,1.001-2.639,2.476-2.639	c1.43,0,2.293,0.908,2.293,2.456C37.356,37.004,36.445,38.068,34.893,38.068z M41.795,33.444l-5.968,9.163	c-0.104,0.16-0.283,0.257-0.474,0.257h-0.981c-0.158,0-0.253-0.175-0.167-0.307l5.955-9.163c0.104-0.16,0.283-0.257,0.474-0.257	h0.994C41.786,33.136,41.881,33.311,41.795,33.444z M35.022,34.194c-0.66,0-0.99,0.459-0.99,1.377c0,0.868,0.314,1.302,0.943,1.302	c0.642,0,0.963-0.452,0.963-1.357C35.937,34.635,35.632,34.194,35.022,34.194z M40.95,43c-1.22,0-2.306-0.789-2.306-2.429	c0-1.639,0.997-2.639,2.476-2.639s2.293,0.9,2.293,2.442S42.504,43,40.95,43z M41.059,39.126c-0.656,0-0.983,0.459-0.983,1.377	c0,0.868,0.319,1.302,0.956,1.302c0.642,0,0.963-0.452,0.963-1.357C41.995,39.772,41.737,39.126,41.059,39.126z"/></svg>