<svg xmlns="http://www.w3.org/2000/svg" xmlns:xlink="http://www.w3.org/1999/xlink" width="48" height="48" data-name="Слой 1" viewBox="0 0 48 48"><defs><linearGradient id="Fbi64ZMo8VOkfqp5DaJeWa" x1="-13.551" x2="-24.25" y1="39.955" y2="39.985" data-name="Безымянный градиент 40" gradientTransform="matrix(1 0 0 -1 56 80)" gradientUnits="userSpaceOnUse"><stop offset="0" stop-color="#484b4f"/><stop offset=".23" stop-color="#656d75"/><stop offset=".367" stop-color="#727d86"/></linearGradient><linearGradient id="Fbi64ZMo8VOkfqp5DaJeWb" x1="14.48" x2="3.781" y1="39.987" y2="40.017" xlink:href="#Fbi64ZMo8VOkfqp5DaJeWa"/><linearGradient id="Fbi64ZMo8VOkfqp5DaJeWc" x1="24.037" x2="23.938" y1="33.839" y2="41.009" xlink:href="#Fbi64ZMo8VOkfqp5DaJeWa"/><linearGradient id="Fbi64ZMo8VOkfqp5DaJeWd" x1="8.663" x2="38.122" y1="-224.059" y2="-248.915" data-name="Безымянный градиент 54" gradientTransform="matrix(1 0 0 -1 0 -216)" gradientUnits="userSpaceOnUse"><stop offset="0" stop-color="#a1aab3"/><stop offset="1" stop-color="#8f979e"/></linearGradient><linearGradient id="Fbi64ZMo8VOkfqp5DaJeWf" x1="14" x2="34" y1="40" y2="40" data-name="Безымянный градиент 45" gradientUnits="userSpaceOnUse"><stop offset="0" stop-color="#3079d6"/><stop offset="1" stop-color="#297cd2"/></linearGradient><radialGradient id="Fbi64ZMo8VOkfqp5DaJeWe" cx="100.037" cy="-405.584" r="86.245" data-name="Безымянный градиент 53" gradientTransform="matrix(.809 0 0 -.719 -33.899 -232.597)" gradientUnits="userSpaceOnUse"><stop offset=".323" stop-color="#23d9d6"/><stop offset=".427" stop-color="#23d4d7"/><stop offset=".542" stop-color="#21c7dc"/><stop offset=".664" stop-color="#1fb0e2"/><stop offset=".789" stop-color="#1c91ec"/><stop offset=".917" stop-color="#1969f8"/><stop offset=".944" stop-color="#1860fb"/></radialGradient></defs><rect width="10" height="2" x="33" y="39" fill="url(#Fbi64ZMo8VOkfqp5DaJeWa)" transform="rotate(-180 38 40)"/><rect width="10" height="2" x="5" y="39" fill="url(#Fbi64ZMo8VOkfqp5DaJeWb)"/><rect width="4" height="5" x="22" y="34" fill="url(#Fbi64ZMo8VOkfqp5DaJeWc)"/><path fill="url(#Fbi64ZMo8VOkfqp5DaJeWd)" d="M41,35H7a2,2,0,0,1-2-2V9A2,2,0,0,1,7,7H41a2,2,0,0,1,2,2V33A2,2,0,0,1,41,35Z"/><rect width="34" height="24" x="7" y="9" fill="url(#Fbi64ZMo8VOkfqp5DaJeWe)"/><path fill="#fff" d="M35.805,21.105l-4.086-3.017a.456.456,0,0,0-.719.395v6.034a.456.456,0,0,0,.719.395L35.805,21.9A.5.5,0,0,0,35.805,21.105Z"/><path fill="#fff" d="M12.2,21.105l4.086-3.017a.456.456,0,0,1,.719.395v6.034a.456.456,0,0,1-.719.395L12.2,21.9A.5.5,0,0,1,12.2,21.105Z"/><rect width="9" height="3" x="14" y="20" fill="#fff" rx=".926"/><rect width="9" height="3" x="25" y="20" fill="#fff" rx=".926"/><rect width="20" height="4" x="14" y="38" fill="url(#Fbi64ZMo8VOkfqp5DaJeWf)" rx=".87"/><path style="isolation:isolate" d="M36.4,20.3l-4.09-3.02a1.443,1.443,0,0,0-.85-.28A1.472,1.472,0,0,0,30,18.48V19H25.93A1.925,1.925,0,0,0,24,20.93v1.14A1.925,1.925,0,0,0,25.93,24H30v.52A1.472,1.472,0,0,0,31.46,26a1.443,1.443,0,0,0,.85-.28L36.4,22.7a1.5,1.5,0,0,0,0-2.4Zm-.3,2-4.08,3.01a.9.9,0,0,1-.56.19.971.971,0,0,1-.96-.98V23.5H25.93a1.43,1.43,0,0,1-1.43-1.43V20.93a1.43,1.43,0,0,1,1.43-1.43H30.5V18.48a.971.971,0,0,1,.96-.98.9.9,0,0,1,.56.19L36.1,20.7a1,1,0,0,1,0,1.6Z" opacity=".05"/><path style="isolation:isolate" d="M36.1,20.7l-4.08-3.01a.9.9,0,0,0-.56-.19.971.971,0,0,0-.96.98V19.5H25.93a1.43,1.43,0,0,0-1.43,1.43v1.14a1.43,1.43,0,0,0,1.43,1.43H30.5v1.02a.971.971,0,0,0,.96.98.9.9,0,0,0,.56-.19L36.1,22.3a1,1,0,0,0,0-1.6Zm-.29,1.19-4.09,3.02a.432.432,0,0,1-.26.09.47.47,0,0,1-.46-.48V23H25.93a.922.922,0,0,1-.93-.93V20.93a.922.922,0,0,1,.93-.93H31V18.48a.47.47,0,0,1,.46-.48.432.432,0,0,1,.26.09l4.09,3.02A.5.5,0,0,1,35.81,21.89Z" opacity=".07"/><path style="isolation:isolate" d="M11,21.5a1.492,1.492,0,0,0,.6,1.2l4.09,3.02a1.443,1.443,0,0,0,.85.28A1.472,1.472,0,0,0,18,24.52V24h4.07A1.925,1.925,0,0,0,24,22.07V20.93A1.925,1.925,0,0,0,22.07,19H18v-.52A1.472,1.472,0,0,0,16.54,17a1.443,1.443,0,0,0-.85.28L11.6,20.3A1.492,1.492,0,0,0,11,21.5Zm.5,0a1,1,0,0,1,.4-.8l4.08-3.01a.9.9,0,0,1,.56-.19.971.971,0,0,1,.96.98V19.5h4.57a1.43,1.43,0,0,1,1.43,1.43v1.14a1.43,1.43,0,0,1-1.43,1.43H17.5v1.02a.971.971,0,0,1-.96.98.9.9,0,0,1-.56-.19L11.9,22.3A1,1,0,0,1,11.5,21.5Z" opacity=".05"/><path style="isolation:isolate" d="M11.5,21.5a1,1,0,0,0,.4.8l4.08,3.01a.9.9,0,0,0,.56.19.971.971,0,0,0,.96-.98V23.5h4.57a1.43,1.43,0,0,0,1.43-1.43V20.93a1.43,1.43,0,0,0-1.43-1.43H17.5V18.48a.971.971,0,0,0-.96-.98.9.9,0,0,0-.56.19L11.9,20.7A1,1,0,0,0,11.5,21.5Zm.69-.39,4.09-3.02a.432.432,0,0,1,.26-.09.47.47,0,0,1,.46.48V20h5.07a.922.922,0,0,1,.93.93v1.14a.922.922,0,0,1-.93.93H17v1.52a.47.47,0,0,1-.46.48.432.432,0,0,1-.26-.09l-4.09-3.02A.5.5,0,0,1,12.19,21.11Z" opacity=".07"/></svg>