<svg xmlns="http://www.w3.org/2000/svg" viewBox="0 0 48 48"><linearGradient id="GLajnGhYmcAvJsVkN3eS6a" x1="24" x2="24" y1="-3.638" y2="12.878" gradientUnits="userSpaceOnUse"><stop offset="0" stop-color="#fafafb"/><stop offset="1" stop-color="#c8cdd1"/></linearGradient><path fill="url(#GLajnGhYmcAvJsVkN3eS6a)" d="M24,4c-4,0-4,2-8,2c0,3,2,2,2,6h12c0-4,2-3,2-6C28,6,28,4,24,4z"/><linearGradient id="GLajnGhYmcAvJsVkN3eS6b" x1=".909" x2="39.183" y1="5.772" y2="44.046" gradientUnits="userSpaceOnUse"><stop offset="0" stop-color="#fafafb"/><stop offset="1" stop-color="#c8cdd1"/></linearGradient><path fill="url(#GLajnGhYmcAvJsVkN3eS6b)" d="M41,31c0,9.389-7.611,10-17,10S7,40.389,7,31s7.611-20,17-20S41,21.611,41,31z"/><line x1="18" x2="30" y1="12" y2="12" fill="none" stroke="#8f979e" stroke-linecap="round" stroke-linejoin="round" stroke-width="2"/><path d="M23.5,35c-0.827,0-1.5-0.673-1.5-1.5V33h-1.5c-0.827,0-1.5-0.673-1.5-1.5v-1	c0-0.384,0.145-0.734,0.383-1C19.145,29.234,19,28.884,19,28.5v-1c0-0.827,0.673-1.5,1.5-1.5h0.398l-3.187-4.653	c-0.315-0.458-0.35-1.051-0.09-1.545C17.881,19.307,18.39,19,18.949,19h1.482c0.507,0,0.976,0.253,1.253,0.676L24,23.185	l2.317-3.511C26.594,19.252,27.062,19,27.569,19h1.482c0.559,0,1.067,0.307,1.328,0.801c0.26,0.495,0.225,1.088-0.091,1.548	L27.103,26H27.5c0.827,0,1.5,0.673,1.5,1.5v1c0,0.384-0.145,0.734-0.383,1c0.238,0.266,0.383,0.616,0.383,1v1	c0,0.827-0.673,1.5-1.5,1.5H26v0.5c0,0.827-0.673,1.5-1.5,1.5H23.5z" opacity=".05"/><path d="M23.5,34.5h1c0.551,0,1-0.448,1-1v-1h2c0.551,0,1-0.448,1-1v-1c0-0.552-0.449-1-1-1l0,0	c0.551,0,1-0.448,1-1v-1c0-0.552-0.449-1-1-1h-1.346l3.722-5.435c0.21-0.307,0.234-0.701,0.061-1.031	c-0.173-0.329-0.513-0.534-0.885-0.534h-1.482c-0.338,0-0.65,0.168-0.834,0.449L24,24.093l-2.734-4.143	c-0.185-0.282-0.497-0.45-0.835-0.45h-1.482c-0.373,0-0.712,0.205-0.885,0.534c-0.173,0.33-0.15,0.725,0.06,1.03l3.723,5.436H20.5	c-0.551,0-1,0.448-1,1v1c0,0.552,0.449,1,1,1c-0.551,0-1,0.448-1,1v1c0,0.552,0.449,1,1,1h2v1C22.5,34.052,22.949,34.5,23.5,34.5z" opacity=".07"/><path fill="#e92d3b" d="M29.051,20h-1.482c-0.168,0-0.325,0.084-0.417,0.225L24,25l-3.152-4.775	C20.756,20.084,20.599,20,20.431,20h-1.482c-0.402,0-0.64,0.451-0.413,0.783L22.795,27H20.5c-0.276,0-0.5,0.224-0.5,0.5v1	c0,0.276,0.224,0.5,0.5,0.5H23v1h-2.5c-0.276,0-0.5,0.224-0.5,0.5v1c0,0.276,0.224,0.5,0.5,0.5H23v1.5c0,0.276,0.224,0.5,0.5,0.5h1	c0.276,0,0.5-0.224,0.5-0.5V32h2.5c0.276,0,0.5-0.224,0.5-0.5v-1c0-0.276-0.224-0.5-0.5-0.5H25v-1h2.5c0.276,0,0.5-0.224,0.5-0.5v-1	c0-0.276-0.224-0.5-0.5-0.5h-2.295l4.259-6.217C29.691,20.451,29.454,20,29.051,20z"/></svg>