<svg xmlns="http://www.w3.org/2000/svg" xmlns:xlink="http://www.w3.org/1999/xlink" data-name="Слой 1" viewBox="0 0 48 48"><defs><linearGradient id="Rg8LlkcJQ0tZF_UKrRm8_a" x1="24" x2="24" y1=".413" y2="5.712" gradientUnits="userSpaceOnUse"><stop offset="0" stop-color="#6d6d6d"/><stop offset=".126" stop-color="#626262"/><stop offset=".886" stop-color="#464646"/><stop offset="1" stop-color="#454545"/></linearGradient><linearGradient id="Rg8LlkcJQ0tZF_UKrRm8_c" x1="24" x2="24" y1="3.411" y2="12.253" xlink:href="#Rg8LlkcJQ0tZF_UKrRm8_a"/><linearGradient id="Rg8LlkcJQ0tZF_UKrRm8_b" x1="32.417" x2="33.751" y1="2203.89" y2="2203.89" gradientTransform="translate(0 -2183.89)" gradientUnits="userSpaceOnUse"><stop offset="0" stop-color="#c48f0c"/><stop offset=".251" stop-color="#d19b16"/><stop offset=".619" stop-color="#dca51f"/><stop offset="1" stop-color="#e0a922"/></linearGradient><linearGradient id="Rg8LlkcJQ0tZF_UKrRm8_d" x1="-2849.583" x2="-2848.249" y1="2203.89" y2="2203.89" gradientTransform="matrix(-1 0 0 1 -2834 -2183.89)" xlink:href="#Rg8LlkcJQ0tZF_UKrRm8_b"/><linearGradient id="Rg8LlkcJQ0tZF_UKrRm8_e" x1="8.189" x2="38.547" y1="30.634" y2="48.161" gradientUnits="userSpaceOnUse"><stop offset="0" stop-color="#9631cc"/><stop offset="1" stop-color="#7717a2"/></linearGradient><linearGradient id="Rg8LlkcJQ0tZF_UKrRm8_g" x1="15.826" x2="25.564" y1="31.734" y2="41.472" gradientUnits="userSpaceOnUse"><stop offset="0" stop-color="#ac4ad5"/><stop offset="1" stop-color="#8f4cc7"/></linearGradient><linearGradient id="Rg8LlkcJQ0tZF_UKrRm8_h" x1="25.793" x2="25.793" y1="36.886" y2="50.916" data-name="Безымянный градиент 72" gradientUnits="userSpaceOnUse"><stop offset="0" stop-color="#ac4ad5"/><stop offset="1" stop-color="#ae4cd5"/></linearGradient><radialGradient id="Rg8LlkcJQ0tZF_UKrRm8_f" cx="157.744" cy="-966.051" r="10.162" gradientTransform="matrix(-.9136 0 0 -.9667 168.133 -912.882)" gradientUnits="userSpaceOnUse"><stop offset="0" stop-color="#ffcf54"/><stop offset=".261" stop-color="#fdcb4d"/><stop offset=".639" stop-color="#f7c13a"/><stop offset="1" stop-color="#f0b421"/></radialGradient></defs><path fill="url(#Rg8LlkcJQ0tZF_UKrRm8_a)" d="M31,8.36842C31,4.31579,27.866,2,24,2s-7,2.31579-7,6.36842C17,11.406,20.134,13,24,13S31,11.406,31,8.36842Z"/><path fill="#ed6c47" d="M17.00049,10a.997.997,0,0,1-.76856-.35938l-5-6a1.00016,1.00016,0,1,1,1.53614-1.28124l5,6A.99992.99992,0,0,1,17.00049,10Z"/><path fill="#ed6c47" d="M15.99951,12a.99458.99458,0,0,1-.624-.21875l-5-4a1.00018,1.00018,0,0,1,1.249-1.5625l5,4A1.00007,1.00007,0,0,1,15.99951,12Z"/><path fill="url(#Rg8LlkcJQ0tZF_UKrRm8_c)" d="M33.40411,21.5A6.828,6.828,0,0,0,35,17c0-7-4.92487-11-11-11S13,10,13,17a6.828,6.828,0,0,0,1.59589,4.5Z"/><path fill="url(#Rg8LlkcJQ0tZF_UKrRm8_b)" d="M32.416,18h-.527v4h.703a1.0205,1.0205,0,0,0,1.041-.74l.344-1.703A1.42438,1.42438,0,0,0,32.416,18Z"/><path fill="url(#Rg8LlkcJQ0tZF_UKrRm8_d)" d="M15.584,18h.527v4h-.703a1.0205,1.0205,0,0,1-1.041-.74l-.344-1.703A1.42438,1.42438,0,0,1,15.584,18Z"/><path fill="url(#Rg8LlkcJQ0tZF_UKrRm8_e)" d="M40,40.86V42a2.00591,2.00591,0,0,1-2,2H10a2.00591,2.00591,0,0,1-2-2V40.86c0-3.36,2.8-6.54,7.06-8.46a20.56167,20.56167,0,0,1,4.04-1.31,23.34848,23.34848,0,0,1,9.8,0,20.56167,20.56167,0,0,1,4.04,1.31C37.2,34.32,40,37.5,40,40.86Z"/><path fill="#d6a121" d="M29,34c0,1.897-2,4-5,4s-5-2.103-5-4V26.965H29Z"/><path fill="url(#Rg8LlkcJQ0tZF_UKrRm8_f)" d="M24,10c4,0,8,2,8,8v6.301C32,27.526,27.101,32,24,32s-8-4.474-8-7.698V18C16,12,20,10,24,10Z"/><ellipse cx="24" cy="25.5" fill="#5c2415" rx="2" ry="2.5"/><path fill="url(#Rg8LlkcJQ0tZF_UKrRm8_g)" d="M26.52,40.69,24,43.95l-2.52-3.26-5.94677-7.67826a1,1,0,0,1,.17945-1.40383l1.57669-1.21744a1,1,0,0,1,1.402.17951L24,37.43Z"/><path fill="url(#Rg8LlkcJQ0tZF_UKrRm8_h)" d="M32.28734,31.60791a1,1,0,0,1,.17945,1.40383L26.52,40.69,24,43.95l-.04.05H18.91l2.57-3.31L24,37.43l5.30863-6.86a1,1,0,0,1,1.402-.17951Z"/></svg>