<svg xmlns="http://www.w3.org/2000/svg" viewBox="0 0 48 48"><linearGradient id="CkjGCTlTNMhC6AfO1g5Swa" x1="5.943" x2="12.291" y1="6.526" y2="42.528" gradientUnits="userSpaceOnUse"><stop offset="0" stop-color="#3ccbf4"/><stop offset="1" stop-color="#1fa0e5"/></linearGradient><path fill="url(#CkjGCTlTNMhC6AfO1g5Swa)" d="M10,43c-6.636,0-9-4.132-9-8c0-5.188,3.693-7.127,7.686-8.449 C11.656,25.566,12,24.338,12,23.5c0-1.094-0.224-2.036-3.119-4.211C6.27,17.328,5,15.271,5,13c0-3.42,2.579-6,6-6 c2.128,0,4.891,0.822,5.964,4.735c0.146,0.533-0.167,1.083-0.699,1.229c-0.532,0.145-1.083-0.167-1.229-0.7 C14.433,10.068,13.112,9,11,9c-2.317,0-4,1.682-4,4c0,1.598,1.008,3.132,3.082,4.689C13.012,19.89,14,21.356,14,23.5 c0,3.397-3.526,4.565-4.686,4.949C5.315,29.774,3,31.271,3,35c0,3.813,2.552,6,7,6c0.276,0,0.5,0,0.5,0l-0.011,2 C10.489,43,10.553,43,10,43z"/><linearGradient id="CkjGCTlTNMhC6AfO1g5Swb" x1="16.822" x2="47.597" y1="13.5" y2="13.5" gradientUnits="userSpaceOnUse"><stop offset="0" stop-color="#889097"/><stop offset="1" stop-color="#4c5963"/></linearGradient><path fill="url(#CkjGCTlTNMhC6AfO1g5Swb)" d="M22.489,20c-1.063,0-2.013-0.623-2.423-1.604c-0.213-0.509,0.028-1.095,0.537-1.308 c0.508-0.212,1.096,0.027,1.309,0.538c0.098,0.234,0.324,0.385,0.577,0.385c0.259,0,0.447-0.229,0.518-0.327 c0.198-0.28,0.441-0.662,0.729-1.114C25.714,13.468,29.832,7,35.989,7c1.733,0,3.458,1.042,3.649,1.16 c0.47,0.289,0.615,0.903,0.327,1.374c-0.288,0.469-0.902,0.619-1.374,0.331C38.203,9.627,36.977,9,35.989,9 c-5.061,0-8.779,5.843-10.567,8.646c-0.31,0.486-0.571,0.896-0.783,1.194C24.113,19.583,23.33,20,22.489,20z"/><linearGradient id="CkjGCTlTNMhC6AfO1g5Swc" x1="24.368" x2="30.731" y1="21.269" y2="27.632" gradientUnits="userSpaceOnUse"><stop offset="0" stop-color="#3079d6"/><stop offset="1" stop-color="#297cd2"/></linearGradient><path fill="url(#CkjGCTlTNMhC6AfO1g5Swc)" d="M45.97,6.659c-1.714-2.081-4.803-2.19-6.663-0.33L13.698,31.941 c-0.494,0.494-0.898,1.071-1.194,1.705l-3.375,7.231c-0.267,0.571-0.147,1.249,0.299,1.695C9.715,42.859,10.099,43,10.489,43 c0.215,0,0.432-0.035,0.635-0.129l7.23-3.374c0.634-0.296,1.211-0.7,1.705-1.194L45.53,12.833 C47.192,11.172,47.464,8.473,45.97,6.659z"/><linearGradient id="CkjGCTlTNMhC6AfO1g5Swd" x1="25.44" x2="34.828" y1="18.505" y2="27.893" gradientUnits="userSpaceOnUse"><stop offset="0" stop-color="#42a3f2"/><stop offset="1" stop-color="#42a4eb"/></linearGradient><polygon fill="url(#CkjGCTlTNMhC6AfO1g5Swd)" points="31.589,26.774 25.225,20.411 27.346,18.29 33.71,24.653"/></svg>