<svg xmlns="http://www.w3.org/2000/svg" viewBox="0 0 48 48"><linearGradient id="YMzX7~nq9ozqqVSs3IAyza" x1="22.703" x2="37.615" y1="385.797" y2="370.885" gradientTransform="matrix(1 0 0 -1 0 390)" gradientUnits="userSpaceOnUse"><stop offset="0" stop-color="#1d59b3"/><stop offset="1" stop-color="#195bbc"/></linearGradient><path fill="url(#YMzX7~nq9ozqqVSs3IAyza)" d="M43,14H18c-0.55,0-1-0.45-1-1v-2c0-0.55,0.45-1,1-1h25c0.55,0,1,0.45,1,1v2	C44,13.55,43.55,14,43,14z"/><path fill="#33c481" d="M7,16L7,16c-2.2,0-4-1.8-4-4v0c0-2.2,1.8-4,4-4h0c2.2,0,4,1.8,4,4v0C11,14.2,9.2,16,7,16z"/><path fill="#107c42" d="M7,10L7,10c1.105,0,2,0.895,2,2v0c0,1.105-0.895,2-2,2h0c-1.105,0-2-0.895-2-2v0	C5,10.895,5.895,10,7,10z"/><linearGradient id="YMzX7~nq9ozqqVSs3IAyzb" x1="22.703" x2="37.615" y1="373.797" y2="358.885" gradientTransform="matrix(1 0 0 -1 0 390)" gradientUnits="userSpaceOnUse"><stop offset="0" stop-color="#1d59b3"/><stop offset="1" stop-color="#195bbc"/></linearGradient><path fill="url(#YMzX7~nq9ozqqVSs3IAyzb)" d="M43,26H18c-0.55,0-1-0.45-1-1v-2c0-0.55,0.45-1,1-1h25c0.55,0,1,0.45,1,1v2	C44,25.55,43.55,26,43,26z"/><path fill="#42a4eb" d="M7,28L7,28c-2.2,0-4-1.8-4-4v0c0-2.2,1.8-4,4-4h0c2.2,0,4,1.8,4,4v0C11,26.2,9.2,28,7,28z"/><linearGradient id="YMzX7~nq9ozqqVSs3IAyzc" x1="22.703" x2="37.615" y1="361.797" y2="346.885" gradientTransform="matrix(1 0 0 -1 0 390)" gradientUnits="userSpaceOnUse"><stop offset="0" stop-color="#1d59b3"/><stop offset="1" stop-color="#195bbc"/></linearGradient><path fill="url(#YMzX7~nq9ozqqVSs3IAyzc)" d="M43,38H18c-0.55,0-1-0.45-1-1v-2c0-0.55,0.45-1,1-1h25c0.55,0,1,0.45,1,1v2	C44,37.55,43.55,38,43,38z"/><path fill="#42a4eb" d="M7,40L7,40c-2.2,0-4-1.8-4-4v0c0-2.2,1.8-4,4-4h0c2.2,0,4,1.8,4,4v0C11,38.2,9.2,40,7,40z"/></svg>