<svg xmlns="http://www.w3.org/2000/svg" viewBox="0 0 48 48"><path fill="#52bf8d" d="M41.222,15.492L12.519,36.892c-0.377,0.281-0.912,0.204-1.193-0.174l-9.12-12.232	c-0.31-0.416-0.224-1.004,0.191-1.314L31.031,1.824c0.377-0.281,0.912-0.204,1.193,0.174l9.172,12.301	C41.677,14.676,41.599,15.21,41.222,15.492z"/><path fill="#107c42" d="M5.062,21.186l10.191,13.668L38.488,17.53L28.297,3.862L5.062,21.186z M21.925,26.69	c-2.642,1.97-6.381,1.425-8.351-1.217s-1.425-6.381,1.217-8.351s6.381-1.425,8.351,1.217S24.567,24.72,21.925,26.69z M34.567,17.263	c-0.566,0.422-1.367,0.305-1.789-0.261s-0.305-1.367,0.261-1.789c0.566-0.422,1.367-0.305,1.789,0.261	C35.25,16.04,35.134,16.841,34.567,17.263z M31.834,19.301c-0.566,0.422-1.367,0.305-1.789-0.261s-0.305-1.367,0.261-1.789	c0.566-0.422,1.367-0.305,1.789,0.261C32.517,18.078,32.4,18.879,31.834,19.301z"/><path fill="#59d19a" d="M45.381,27.666L8.738,40.517c-0.482,0.169-1.009-0.085-1.178-0.566L2.062,24.275	c-0.174-0.497,0.087-1.042,0.585-1.216l36.615-12.841c0.482-0.169,1.009,0.085,1.178,0.566l5.507,15.704	C46.117,26.97,45.863,27.497,45.381,27.666z"/><path fill="#21a366" d="M6.109,21.844l6.119,17.449L41.891,28.89l-6.119-17.449L6.109,21.844z M21.78,33.004	c-3.373,1.183-7.066-0.592-8.249-3.965s0.592-7.066,3.965-8.249s7.066,0.592,8.249,3.965S25.152,31.821,21.78,33.004z M37.92,27.344	c-0.723,0.253-1.514-0.127-1.768-0.85c-0.253-0.723,0.127-1.514,0.85-1.768s1.514,0.127,1.768,0.85	C39.023,26.299,38.643,27.09,37.92,27.344z M34.43,28.568c-0.723,0.253-1.514-0.127-1.768-0.85c-0.253-0.723,0.127-1.514,0.85-1.768	s1.514,0.127,1.768,0.85C35.533,27.523,35.153,28.314,34.43,28.568z"/><path d="M44,22H3.967C2.544,23.081,2.007,23.429,2,23.973V28h44v-4C46,22.895,45.105,22,44,22z" opacity=".05"/><path d="M44.5,22.5H3.484C2.496,23.041,2.003,23.438,2,23.987V27.5h44V24C46,23.172,45.328,22.5,44.5,22.5z" opacity=".07"/><path fill="#61e3a7" d="M45,43H3c-0.552,0-1-0.448-1-1V24c0-0.552,0.448-1,1-1h42c0.552,0,1,0.448,1,1v18	C46,42.552,45.552,43,45,43z"/><path fill="#33c481" d="M7,23v20h34V23H7z M19,40c-3.866,0-7-3.134-7-7s3.134-7,7-7s7,3.134,7,7S22.866,40,19,40z M37.5,40	c-0.828,0-1.5-0.672-1.5-1.5s0.672-1.5,1.5-1.5s1.5,0.672,1.5,1.5S38.328,40,37.5,40z M33.5,40c-0.828,0-1.5-0.672-1.5-1.5	s0.672-1.5,1.5-1.5s1.5,0.672,1.5,1.5S34.328,40,33.5,40z"/></svg>