<svg xmlns="http://www.w3.org/2000/svg" xmlns:xlink="http://www.w3.org/1999/xlink" data-name="Слой 1" viewBox="0 0 48 48"><defs><linearGradient id="0CAmf6GFBtUGDV9c0S47Da" x1="37.438" x2="39.597" y1="-1428.737" y2="-1428.737" data-name="Безымянный градиент 158" gradientTransform="matrix(1 0 0 -1 0 -1400)" gradientUnits="userSpaceOnUse"><stop offset="0" stop-color="#c48f0c"/><stop offset=".251" stop-color="#d19b16"/><stop offset=".619" stop-color="#dca51f"/><stop offset="1" stop-color="#e0a922"/></linearGradient><linearGradient id="0CAmf6GFBtUGDV9c0S47Db" x1="24" x2="24" y1="25.435" y2="-2.026" data-name="Безымянный градиент 132" gradientUnits="userSpaceOnUse"><stop offset=".002" stop-color="#454545"/><stop offset=".013" stop-color="#464646"/><stop offset=".874" stop-color="#626262"/><stop offset="1" stop-color="#6d6d6d"/></linearGradient><linearGradient id="0CAmf6GFBtUGDV9c0S47Dc" x1="-1470.559" x2="-1468.391" y1="-1428.75" y2="-1428.75" gradientTransform="rotate(180 -730 -700)" xlink:href="#0CAmf6GFBtUGDV9c0S47Da"/><linearGradient id="0CAmf6GFBtUGDV9c0S47Df" x1="24" x2="24" y1="19.5" y2="30.733" xlink:href="#0CAmf6GFBtUGDV9c0S47Db"/><linearGradient id="0CAmf6GFBtUGDV9c0S47Dg" x1="22.916" x2="24.628" y1="13.819" y2="20.423" data-name="Безымянный градиент 129" gradientUnits="userSpaceOnUse"><stop offset="0" stop-color="#ffd869"/><stop offset="1" stop-color="#fec52b"/></linearGradient><radialGradient id="0CAmf6GFBtUGDV9c0S47Dd" cx="81.768" cy="-1571.79" r="15.112" data-name="Безымянный градиент 157" gradientTransform="matrix(.8816 0 0 -.8816 -48.086 -1353.832)" gradientUnits="userSpaceOnUse"><stop offset="0" stop-color="#ffcf54"/><stop offset=".261" stop-color="#fdcb4d"/><stop offset=".639" stop-color="#f7c13a"/><stop offset="1" stop-color="#f0b421"/></radialGradient><radialGradient id="0CAmf6GFBtUGDV9c0S47De" cx="67.217" cy="-1553.139" r="38.917" data-name="Безымянный градиент 156" gradientTransform="matrix(.8816 0 0 -.8816 -48.086 -1353.832)" gradientUnits="userSpaceOnUse"><stop offset="0" stop-color="#c26715"/><stop offset=".508" stop-color="#b85515"/><stop offset="1" stop-color="#ad3f16"/></radialGradient><radialGradient id="0CAmf6GFBtUGDV9c0S47Dh" cx="23.734" cy="37.4" r="4.376" data-name="Безымянный градиент 161" gradientUnits="userSpaceOnUse"><stop offset="0" stop-color="#fff"/><stop offset=".209" stop-color="#f8f8f8"/><stop offset=".514" stop-color="#e4e4e4"/><stop offset=".877" stop-color="#c4c4c4"/><stop offset="1" stop-color="#b8b8b8"/></radialGradient></defs><path fill="url(#0CAmf6GFBtUGDV9c0S47Da)" d="M37.43642,25.5H36.5835v6.47381h1.13777a1.65165,1.65165,0,0,0,1.68481-1.19766l.55675-2.75622A2.3053,2.3053,0,0,0,37.43642,25.5Z"/><path fill="url(#0CAmf6GFBtUGDV9c0S47Db)" d="M9,24H39l3.47328-4.16794a4,4,0,0,0,.641-4.0463L40.65583,9.63958a4,4,0,0,0-2.30925-2.25969L25.40465,2.52606a4,4,0,0,0-2.8093,0L9.65342,7.37989A4,4,0,0,0,7.34417,9.63958L4.8857,15.78576a4,4,0,0,0,.641,4.0463Z"/><path fill="url(#0CAmf6GFBtUGDV9c0S47Dc)" d="M10.56012,25.5h.85638V32H10.27412A1.65832,1.65832,0,0,1,8.5825,30.7975l-.559-2.76737A2.31461,2.31461,0,0,1,10.56012,25.5Z"/><path fill="url(#0CAmf6GFBtUGDV9c0S47Dd)" d="M10.8075,18.7155a34.02794,34.02794,0,0,0-.3075,4.797v10.047C10.5,38.7,18.6,45,24,45s13.5-6.3,13.5-11.4405V23.5125a36.35041,36.35041,0,0,0-.192-3.8775Z"/><path fill="url(#0CAmf6GFBtUGDV9c0S47De)" d="M24,14.3175c-12,0-15,3.7365-15,8.1825,0,1.5,0,4.5,1.5,6,0-4.5,1.5-12,6-12,1.9005,0,3.4095,3,7.5,3,3.4545,0,4.31249-3,7.5-3,4.5,0,6,7.5,6,12,1.5-1.5,1.5-6,1.5-6C39,17.355,36,14.3175,24,14.3175Z"/><ellipse cx="24" cy="21" fill="url(#0CAmf6GFBtUGDV9c0S47Df)" rx="12" ry="6"/><path fill="#343434" d="M24,13.5c-8.2845,0-15,1.4385-15,3.2145V22.5S10.5,21,24,21s15,1.5,15,1.5V16.7145C39,14.9385,32.2845,13.5,24,13.5Z"/><path fill="url(#0CAmf6GFBtUGDV9c0S47Dg)" d="M23,15.5v1a.5.5,0,0,1-.5.5h-1a.5.5,0,0,1-.5-.5v-1a.5.5,0,0,1,.5-.5h1A.5.5,0,0,1,23,15.5ZM24.5,17h-1a.5.5,0,0,0-.5.5v1a.5.5,0,0,0,.5.5h1a.5.5,0,0,0,.5-.5v-1A.5.5,0,0,0,24.5,17Zm-4,0h-1a.5.5,0,0,0-.5.5v1a.5.5,0,0,0,.5.5h1a.5.5,0,0,0,.5-.5v-1A.5.5,0,0,0,20.5,17Zm6-2h-1a.5.5,0,0,0-.5.5v1a.5.5,0,0,0,.5.5h1a.5.5,0,0,0,.5-.5v-1A.5.5,0,0,0,26.5,15Zm2,2h-1a.5.5,0,0,0-.5.5v1a.5.5,0,0,0,.5.5h1a.5.5,0,0,0,.5-.5v-1A.5.5,0,0,0,28.5,17Z"/><path fill="#2b1d1d" d="M29,39.01535a1.00292,1.00292,0,0,1-1,1H20a1.00292,1.00292,0,0,1-1-1,3.46478,3.46478,0,0,1,.63-2,5.08932,5.08932,0,0,1,4.37-2,5.62569,5.62569,0,0,1,3.62,1.17,3.8925,3.8925,0,0,1,.75.83A3.46478,3.46478,0,0,1,29,39.01535Z"/><path fill="url(#0CAmf6GFBtUGDV9c0S47Dh)" d="M28.40352,37.01535h-8.807A5.12836,5.12836,0,0,1,24,35a5.6688,5.6688,0,0,1,3.64777,1.179A3.92182,3.92182,0,0,1,28.40352,37.01535Z"/><circle cx="17.5" cy="30.5" r="1.5" fill="#2b1d1d"/><circle cx="30.5" cy="30.5" r="1.5" fill="#2b1d1d"/><path fill="#343434" d="M21,31a.996.996,0,0,1-.31641-.05176l-6-2a.99964.99964,0,1,1,.63282-1.89648l6,2A.99977.99977,0,0,1,21,31Z"/><path fill="#343434" d="M27,31a.99977.99977,0,0,1-.31641-1.94824l6-2a.99964.99964,0,1,1,.63282,1.89648l-6,2A.996.996,0,0,1,27,31Z"/></svg>