<svg xmlns="http://www.w3.org/2000/svg" viewBox="0 0 48 48"><linearGradient id="Ux0T1tOJW6xwsRWtWsHnUa" x1="4" x2="44" y1="27.5" y2="27.5" gradientUnits="userSpaceOnUse"><stop offset="0" stop-color="#7dd8f3"/><stop offset="1" stop-color="#45b0d0"/></linearGradient><path fill="url(#Ux0T1tOJW6xwsRWtWsHnUa)" d="M4,38V15h40v23c0,1.1-0.9,2-2,2H6C4.9,40,4,39.1,4,38z"/><path d="M42.322,28.394C41.317,27.708,40.278,27,38.5,27s-2.817,0.708-3.823,1.394	C33.519,29.184,32.321,30,29.5,30c-0.827,0-1.5,0.673-1.5,1.5V36c0,0.737,0.093,1.49,0.275,2.238c0.149,0.611,0.37,1.194,0.62,1.762	H42c1.1,0,2-0.9,2-2v-8.632C43.349,29.083,42.827,28.738,42.322,28.394z" opacity=".05"/><path d="M42.041,28.807C41.055,28.135,40.124,27.5,38.5,27.5s-2.555,0.635-3.541,1.307	C33.794,29.601,32.475,30.5,29.5,30.5c-0.551,0-1,0.448-1,1V36c0,0.698,0.088,1.411,0.261,2.119c0.16,0.654,0.399,1.278,0.678,1.881	H42c1.1,0,2-0.9,2-2v-8.089C43.202,29.592,42.601,29.188,42.041,28.807z" opacity=".07"/><linearGradient id="Ux0T1tOJW6xwsRWtWsHnUb" x1="4.614" x2="42.936" y1="-363.741" y2="-371.533" gradientTransform="matrix(1 0 0 -1 0 -356)" gradientUnits="userSpaceOnUse"><stop offset="0" stop-color="#0077d2"/><stop offset="1" stop-color="#0b59a2"/></linearGradient><path fill="url(#Ux0T1tOJW6xwsRWtWsHnUb)" d="M44,10v5H4v-5c0-1.1,0.9-2,2-2h36C43.1,8,44,8.9,44,10z"/><path fill="#107c42" d="M38.5,48c-0.276,0-0.5-0.224-0.5-0.5s0.224-0.5,0.5-0.5V48z"/><path fill="#185c37" d="M39,47.5c0,0.276-0.224,0.5-0.5,0.5v-1C38.776,47,39,47.224,39,47.5z"/><circle cx="47.5" cy="31.5" r=".5" fill="#21a366"/><circle cx="29.5" cy="31.5" r=".5" fill="#33c481"/><path fill="#185c37" d="M38.5,47.5l0.214,0.453c0,0,7.572-3.95,9.04-9.953H38.5V47.5z"/><path fill="#21a366" d="M48,31.5L47.5,31c-5.561,0-5.639-3-9-3v10h9.254C47.911,37.356,48,36.689,48,36 C48,34.428,48,31.5,48,31.5z"/><path fill="#107c42" d="M38.5,47.5l-0.214,0.453c0,0-7.572-3.95-9.04-9.953H38.5V47.5z"/><path fill="#33c481" d="M29,31.5l0.5-0.5c5.561,0,5.639-3,9-3v10h-9.253C29.089,37.356,29,36.689,29,36 C29,34.428,29,31.5,29,31.5z"/></svg>