<svg xmlns="http://www.w3.org/2000/svg" viewBox="0 0 48 48"><linearGradient id="5chUGPqlOryWzKb1TrEHNa" x1="7.808" x2="26.192" y1="-161.808" y2="-180.192" gradientTransform="matrix(1 0 0 -1 0 -154)" gradientUnits="userSpaceOnUse"><stop offset="0" stop-color="#21ad64"/><stop offset="1" stop-color="#088242"/></linearGradient><path fill="url(#5chUGPqlOryWzKb1TrEHNa)" d="M30,17c0,7.179-5.821,13-13,13S4,24.179,4,17S9.821,4,17,4S30,9.821,30,17z"/><path d="M15.52,13.522c0-0.577,0.498-0.869,1.48-0.869	c1.352,0,2.47,0.43,3.016,0.686c0.339,0.159,1.534,0.381,1.534-0.964v-1.362c0-0.997-0.602-1.339-0.86-1.44	c-0.629-0.244-1.415-0.399-2.39-0.468v-0.88c0-0.538-0.437-0.975-0.975-0.975h-0.65c-0.538,0-0.975,0.437-0.975,0.975v0.957	c-2.091,0.382-4.126,1.742-4.126,4.566c0,5.651,6.906,5.164,6.906,6.441c0,0.231,0,0.845-1.48,0.845	c-1.718,0-3.227-0.703-3.648-0.919c-0.332-0.17-1.552-0.294-1.552,0.955v1.549c0,0.556,0.333,1.057,0.848,1.276	c0.872,0.37,1.996,0.666,3.052,0.808v1.072c0,0.538,0.437,0.975,0.975,0.975h0.65c0.538,0,0.975-0.437,0.975-0.975v-1.078	c3.032-0.504,4.126-2.769,4.126-4.647C22.426,14.531,15.52,15.407,15.52,13.522z" opacity=".05"/><path d="M15.195,13.522c0-1.01,1.06-1.194,1.805-1.194	c1.285,0,2.433,0.378,3.154,0.717c0.311,0.146,1.071,0.159,1.071-0.67v-1.361c0-0.727-0.387-1.033-0.653-1.137	c-0.622-0.242-1.456-0.406-2.597-0.462v-1.19c0-0.359-0.291-0.65-0.65-0.65h-0.65c-0.359,0-0.65,0.291-0.65,0.65v1.24	c-2.058,0.29-4.126,1.542-4.126,4.284c0,5.25,6.906,4.526,6.906,6.441c0,0.517-0.256,1.17-1.805,1.17	c-1.672,0-3.172-0.635-3.796-0.954c-0.305-0.156-1.079-0.115-1.079,0.666v1.549c0,0.427,0.256,0.809,0.65,0.977	c0.925,0.393,2.144,0.698,3.25,0.815v1.364c0,0.359,0.291,0.65,0.65,0.65h0.65c0.359,0,0.65-0.291,0.65-0.65V24.41	c3.031-0.379,4.126-2.526,4.126-4.36C22.101,14.952,15.195,15.847,15.195,13.522z" opacity=".07"/><path fill="#fff" d="M21.776,20.05c0-4.678-6.906-3.764-6.906-6.528c0-1.443,1.622-1.519,2.129-1.519	c1.219,0,2.395,0.327,3.293,0.748c0.283,0.133,0.607-0.064,0.607-0.376v-1.361c0-0.456-0.172-0.727-0.446-0.834	c-0.615-0.239-1.498-0.414-2.804-0.457V8.225c0-0.18-0.146-0.325-0.325-0.325h-0.65c-0.179,0-0.325,0.145-0.325,0.325v1.522	c-2.026,0.198-4.126,1.341-4.126,4.001c0,4.849,6.906,3.887,6.906,6.441c0,0.803-0.513,1.495-2.129,1.495	c-1.625,0-3.118-0.567-3.944-0.99c-0.278-0.142-0.606,0.064-0.606,0.376v1.549c0,0.297,0.179,0.561,0.453,0.678	c0.979,0.416,2.292,0.731,3.447,0.823v1.655c0,0.179,0.146,0.325,0.325,0.325h0.65c0.179,0,0.325-0.146,0.325-0.325v-1.652	C20.681,23.87,21.776,21.841,21.776,20.05z"/><radialGradient id="5chUGPqlOryWzKb1TrEHNb" cx="31.003" cy="-185.05" r="15.056" gradientTransform="matrix(1 0 0 -1 0 -154)" gradientUnits="userSpaceOnUse"><stop offset="0"/><stop offset="1" stop-opacity="0"/></radialGradient><path fill="url(#5chUGPqlOryWzKb1TrEHNb)" d="M16.053,29.952C16.367,29.975,16.68,30,17,30c7.179,0,13-5.821,13-13	c0-0.32-0.025-0.633-0.048-0.947C22.507,16.569,16.569,22.507,16.053,29.952z"/><linearGradient id="5chUGPqlOryWzKb1TrEHNc" x1="25.151" x2="37.23" y1="-173.621" y2="-197.121" gradientTransform="matrix(1 0 0 -1 0 -154)" gradientUnits="userSpaceOnUse"><stop offset="0" stop-color="#f44f5a"/><stop offset=".443" stop-color="#ee3d4a"/><stop offset="1" stop-color="#e52030"/></linearGradient><path fill="url(#5chUGPqlOryWzKb1TrEHNc)" d="M44,31c0,7.179-5.821,13-13,13s-13-5.821-13-13s5.821-13,13-13S44,23.821,44,31z"/><path fill="#64717c" d="M39,17c-0.552,0-1-0.447-1-1v-3c0-1.654-1.346-3-3-3h-3c-0.552,0-1-0.447-1-1s0.448-1,1-1h3	c2.757,0,5,2.243,5,5v3C40,16.553,39.552,17,39,17z"/><path fill="#64717c" d="M16,40h-3c-2.757,0-5-2.243-5-5v-3c0-0.553,0.448-1,1-1s1,0.447,1,1v3c0,1.654,1.346,3,3,3h3	c0.552,0,1,0.447,1,1S16.552,40,16,40z"/><path fill="#fff" d="M38.16,25h-1.227c-0.112,0-0.21,0.073-0.243,0.18l-2.718,8.972l-2.046-8.928	C31.896,25.093,31.779,25,31.644,25h-1.289c-0.135,0-0.251,0.093-0.282,0.224l-2.053,8.903l-2.117-6.989L25.31,25.18	C25.278,25.073,25.179,25,25.067,25H23.84c-0.169,0-0.291,0.163-0.242,0.326l3.474,11.469C27.11,36.917,27.222,37,27.35,37h1.529	c0.133,0,0.249-0.092,0.279-0.222L30.952,29h0.091l1.782,7.775C32.854,36.907,32.971,37,33.106,37h1.544	c0.127,0,0.24-0.083,0.277-0.205l3.474-11.469C38.451,25.163,38.329,25,38.16,25z"/><path fill="#fff" d="M38.5,32.25h-15c-0.276,0-0.5-0.224-0.5-0.5v-0.5c0-0.276,0.224-0.5,0.5-0.5h15 c0.276,0,0.5,0.224,0.5,0.5v0.5C39,32.026,38.776,32.25,38.5,32.25z"/><path fill="#fff" d="M38.5,28.25h-15c-0.276,0-0.5-0.224-0.5-0.5v-0.5c0-0.276,0.224-0.5,0.5-0.5h15 c0.276,0,0.5,0.224,0.5,0.5v0.5C39,28.026,38.776,28.25,38.5,28.25z"/></svg>