<svg xmlns="http://www.w3.org/2000/svg" viewBox="0 0 48 48"><linearGradient id="uP1R1NRmnejWoekrZf_uya" x1="32" x2="32" y1="15.471" y2="60.105" gradientUnits="userSpaceOnUse"><stop offset="0" stop-color="#f9f9f9"/><stop offset=".251" stop-color="#f1f2f3"/><stop offset=".631" stop-color="#dde0e2"/><stop offset="1" stop-color="#c2c8cc"/></linearGradient><path fill="url(#uP1R1NRmnejWoekrZf_uya)" d="M42,23.78V41c0,2.21-1.79,4-4,4H26c-2.21,0-4-1.79-4-4V23.78c0-2.49,0.58-4.94,1.69-7.16 L24.5,15h15l0.81,1.62C41.42,18.84,42,21.29,42,23.78z"/><linearGradient id="uP1R1NRmnejWoekrZf_uyb" x1="32" x2="32" y1="9.017" y2="8.251" gradientUnits="userSpaceOnUse"><stop offset="0" stop-color="#32bdef"/><stop offset="1" stop-color="#1ea2e4"/></linearGradient><polygon fill="url(#uP1R1NRmnejWoekrZf_uyb)" points="39.5,15 24.5,15 28,8 36,8"/><path d="M36.63,9.27l-0.22-0.44C36.13,8.94,35.82,9,35.5,9h-7c-0.32,0-0.63-0.06-0.91-0.17l-0.22,0.44l-0.23,0.45 C27.56,9.9,28.02,10,28.5,10h7c0.48,0,0.94-0.1,1.36-0.28L36.63,9.27z" opacity=".05"/><path d="M36.41,8.83C36.13,8.94,35.82,9,35.5,9h-7c-0.32,0-0.63-0.06-0.91-0.17l-0.22,0.44C27.72,9.42,28.1,9.5,28.5,9.5h7 c0.4,0,0.78-0.08,1.13-0.23L36.41,8.83z" opacity=".07"/><linearGradient id="uP1R1NRmnejWoekrZf_uyc" x1="32" x2="32" y1=".688" y2="15.001" gradientUnits="userSpaceOnUse"><stop offset=".002" stop-color="#427fdb"/><stop offset=".397" stop-color="#2668cb"/><stop offset=".763" stop-color="#1358bf"/><stop offset="1" stop-color="#0c52bb"/></linearGradient><path fill="url(#uP1R1NRmnejWoekrZf_uyc)" d="M35.5,4h-7C27.119,4,26,5.119,26,6.5v0C26,7.881,27.119,9,28.5,9h7C36.881,9,38,7.881,38,6.5 v0C38,5.119,36.881,4,35.5,4z"/><linearGradient id="uP1R1NRmnejWoekrZf_uyd" x1="16" x2="16" y1="23.357" y2="26.179" gradientUnits="userSpaceOnUse"><stop offset="0" stop-color="#21ad64"/><stop offset="1" stop-color="#088242"/></linearGradient><path fill="url(#uP1R1NRmnejWoekrZf_uyd)" d="M16,22c-0.552,0-1,0.224-1,0.5l0.5,3.5h1l0.5-3.5C17,22.224,16.552,22,16,22z"/><radialGradient id="uP1R1NRmnejWoekrZf_uye" cx="-2.409" cy="24.785" r="43.678" gradientTransform="matrix(.9789 0 0 1 .463 0)" gradientUnits="userSpaceOnUse"><stop offset="0" stop-color="#f44f5a"/><stop offset=".443" stop-color="#ee3d4a"/><stop offset="1" stop-color="#e52030"/></radialGradient><path fill="url(#uP1R1NRmnejWoekrZf_uye)" d="M21.25,25c-0.962,0-1.877,0.075-2.704,0.304c-1.67,0.461-3.422,0.461-5.091,0	C12.627,25.075,11.712,25,10.75,25C7.022,25,4,29.564,4,33.387C4,35.093,4,45,16,45s12-11.613,12-11.613	C28,29.564,24.978,25,21.25,25z"/><linearGradient id="uP1R1NRmnejWoekrZf_uyf" x1="16" x2="16" y1="26.235" y2="42.461" gradientUnits="userSpaceOnUse"><stop offset="0" stop-color="#21ad64"/><stop offset="1" stop-color="#088242"/></linearGradient><path fill="url(#uP1R1NRmnejWoekrZf_uyf)" d="M24,25.353c0,0-0.049,0.082-0.154,0.224c-0.308,0.418-1.089,1.329-2.345,1.812	c0.991,1.706,0.554,3.712,0.554,3.712s-2.049,0.535-3.908-0.535C17.483,32.188,16,33,16,33s-1.446-0.906-2.123-2.447	C12.012,31.641,9.945,31.1,9.945,31.1s-0.437-2.006,0.554-3.712c-1.255-0.482-2.037-1.394-2.345-1.812	C8.049,25.435,8,25.353,8,25.353S9.6,23,12.203,23C14.8,23,16,25.353,16,25.353S17.2,23,19.797,23C22.4,23,24,25.353,24,25.353z"/></svg>