<svg xmlns="http://www.w3.org/2000/svg" viewBox="0 0 48 48"><linearGradient id="JY0Y1Df49oSqeA9KfOnc8a" x1="9.858" x2="38.142" y1="9.858" y2="38.142" gradientUnits="userSpaceOnUse"><stop offset="0" stop-color="#889097"/><stop offset="1" stop-color="#64717c"/></linearGradient><circle cx="24" cy="24" r="20" fill="url(#JY0Y1Df49oSqeA9KfOnc8a)"/><radialGradient id="JY0Y1Df49oSqeA9KfOnc8b" cx="24" cy="24" r="18.5" gradientUnits="userSpaceOnUse"><stop offset="0"/><stop offset=".978" stop-opacity=".022"/><stop offset="1" stop-opacity="0"/></radialGradient><circle cx="24" cy="24" r="18.5" fill="url(#JY0Y1Df49oSqeA9KfOnc8b)" opacity=".15"/><radialGradient id="JY0Y1Df49oSqeA9KfOnc8c" cx="23.89" cy="7.394" r="37.883" gradientUnits="userSpaceOnUse"><stop offset="0" stop-color="#fafafb"/><stop offset="1" stop-color="#c8cdd1"/></radialGradient><circle cx="24" cy="24" r="17" fill="url(#JY0Y1Df49oSqeA9KfOnc8c)"/><path fill="#6eebff" d="M24,24V7c-4.694,0-8.944,1.903-12.021,4.979L24,24z"/><linearGradient id="JY0Y1Df49oSqeA9KfOnc8d" x1="22.032" x2="25.968" y1="9" y2="9" gradientUnits="userSpaceOnUse"><stop offset="0" stop-color="#1d59b3"/><stop offset="1" stop-color="#195bbc"/></linearGradient><path fill="url(#JY0Y1Df49oSqeA9KfOnc8d)" d="M22.032,7.123L24,11l1.968-3.877C25.321,7.048,24.667,7,24,7	C23.333,7,22.679,7.048,22.032,7.123z"/><g><linearGradient id="JY0Y1Df49oSqeA9KfOnc8e" x1="13.04" x2="22.232" y1="19.404" y2="28.596" gradientTransform="rotate(45.065 24 24)" gradientUnits="userSpaceOnUse"><stop offset="0" stop-color="#889097"/><stop offset="1" stop-color="#444d54"/></linearGradient><path fill="url(#JY0Y1Df49oSqeA9KfOnc8e)" d="M25.413,25.416c-0.782,0.78-2.048,0.779-2.828-0.003s-9.572-12.425-9.572-12.425 s11.624,8.818,12.404,9.6S26.194,24.636,25.413,25.416z"/></g></svg>