<svg xmlns="http://www.w3.org/2000/svg" viewBox="0 0 48 48"><linearGradient id="QPjsKAtCalsd7YC8ioLnSa" x1="25.652" x2="48.009" y1="-302.395" y2="-325.415" gradientTransform="matrix(1 0 0 -1 0 -290)" gradientUnits="userSpaceOnUse"><stop offset="0" stop-color="#eba600"/><stop offset="1" stop-color="#c28200"/></linearGradient><path fill="url(#QPjsKAtCalsd7YC8ioLnSa)" d="M42,41H31V7h11c1.105,0,2,0.895,2,2v30C44,40.105,43.105,41,42,41z"/><linearGradient id="QPjsKAtCalsd7YC8ioLnSb" x1="3.387" x2="33.101" y1="-298.439" y2="-329.034" gradientTransform="matrix(1 0 0 -1 0 -290)" gradientUnits="userSpaceOnUse"><stop offset="0" stop-color="#ffd869"/><stop offset="1" stop-color="#fec52b"/></linearGradient><path fill="url(#QPjsKAtCalsd7YC8ioLnSb)" d="M31,41H6c-1.105,0-2-0.895-2-2V8c0-0.552,0.448-1,1-1h26c1.105,0,2,0.895,2,2v30 C33,40.105,32.105,41,31,41z"/><path fill="#fff8e6" d="M16,7h10v5H16V7z"/></svg>