<svg xmlns="http://www.w3.org/2000/svg" viewBox="0 0 48 48"><linearGradient id="sZd6asuRGFdeztpvLVD6xa" x1="5.002" x2="23.002" y1="34.5" y2="34.5" gradientUnits="userSpaceOnUse"><stop offset="0" stop-color="#912fbd"/><stop offset="1" stop-color="#9332bf"/></linearGradient><path fill="url(#sZd6asuRGFdeztpvLVD6xa)" d="M22.002,43.5c-0.256,0-0.512-0.098-0.707-0.293l-16-16c-0.391-0.391-0.391-1.023,0-1.414	s1.023-0.391,1.414,0l16,16c0.391,0.391,0.391,1.023,0,1.414C22.514,43.402,22.258,43.5,22.002,43.5z"/><linearGradient id="sZd6asuRGFdeztpvLVD6xb" x1="8.002" x2="25.003" y1="31.75" y2="31.75" gradientUnits="userSpaceOnUse"><stop offset="0" stop-color="#912fbd"/><stop offset="1" stop-color="#9332bf"/></linearGradient><path fill="url(#sZd6asuRGFdeztpvLVD6xb)" d="M24.003,40.25c-0.256,0-0.512-0.098-0.707-0.293L8.295,24.956	c-0.391-0.391-0.391-1.023,0-1.414c0.391-0.391,1.023-0.391,1.414,0L24.71,38.543c0.391,0.391,0.391,1.023,0,1.414	C24.515,40.152,24.259,40.25,24.003,40.25z"/><linearGradient id="sZd6asuRGFdeztpvLVD6xc" x1="12.002" x2="26.002" y1="29" y2="29" gradientUnits="userSpaceOnUse"><stop offset="0" stop-color="#912fbd"/><stop offset="1" stop-color="#9332bf"/></linearGradient><path fill="url(#sZd6asuRGFdeztpvLVD6xc)" d="M25.002,36c-0.256,0-0.512-0.098-0.707-0.293l-12-12c-0.391-0.391-0.391-1.023,0-1.414	s1.023-0.391,1.414,0l12,12c0.391,0.391,0.391,1.023,0,1.414C25.514,35.902,25.258,36,25.002,36z"/><linearGradient id="sZd6asuRGFdeztpvLVD6xd" x1="17.252" x2="25.253" y1="26.25" y2="26.25" gradientUnits="userSpaceOnUse"><stop offset="0" stop-color="#912fbd"/><stop offset="1" stop-color="#9332bf"/></linearGradient><path fill="url(#sZd6asuRGFdeztpvLVD6xd)" d="M24.253,30.251c-0.256,0-0.512-0.098-0.707-0.293l-6.001-6.001	c-0.391-0.391-0.391-1.023,0-1.414s1.023-0.391,1.414,0l6.001,6.001c0.391,0.391,0.391,1.023,0,1.414	C24.765,30.153,24.509,30.251,24.253,30.251z"/><linearGradient id="sZd6asuRGFdeztpvLVD6xe" x1="9.796" x2="37.902" y1="-1325.835" y2="-1325.835" gradientTransform="scale(1 -1) rotate(-45 1595.377 -675.083)" gradientUnits="userSpaceOnUse"><stop offset="0" stop-color="#912fbd"/><stop offset="1" stop-color="#9332bf"/></linearGradient><path fill="url(#sZd6asuRGFdeztpvLVD6xe)" d="M44.496,19.631c-0.338-0.337-0.876-0.335-1.228-0.013 c-5.599,5.104-11.568,3.848-18.405,2.535c-7.131-1.444-15.202-3.122-22.606,3.752c-0.361,0.335-0.361,0.911-0.012,1.26l1.246,1.244 c0.338,0.337,0.877,0.334,1.229,0.011c6.096-5.603,12.604-4.282,19.461-2.844c6.814,1.38,14.621,2.935,21.545-3.439 c0.363-0.335,0.364-0.914,0.014-1.263L44.496,19.631z"/><linearGradient id="sZd6asuRGFdeztpvLVD6xf" x1="9.796" x2="37.913" y1="-1325.834" y2="-1325.834" gradientTransform="scale(1 -1) rotate(-45 1595.377 -675.083)" gradientUnits="userSpaceOnUse"><stop offset="0" stop-color="#c965eb"/><stop offset="1" stop-color="#c767e5"/></linearGradient><path fill="url(#sZd6asuRGFdeztpvLVD6xf)" d="M20.893,45.782l-1.246-1.244c-0.338-0.337-0.336-0.877-0.014-1.229 c5.589-6.109,4.256-12.617,2.806-19.474c-1.394-6.814-2.963-14.621,3.396-21.559c0.334-0.364,0.913-0.366,1.262-0.016l1.244,1.242 c0.338,0.337,0.336,0.875,0.016,1.229c-5.092,5.61-3.824,11.579-2.499,18.417c1.457,7.131,3.15,15.2-3.707,22.621 C21.816,46.13,21.241,46.131,20.893,45.782z"/><path fill="#e52030" d="M44.888,42.75L5.266,3.128c-0.149-0.149-0.39-0.149-0.539,0L3.112,4.744	c-0.149,0.149-0.149,0.39,0,0.539l39.622,39.622c0.149,0.149,0.39,0.149,0.539,0l1.616-1.616	C45.037,43.14,45.037,42.898,44.888,42.75z"/><linearGradient id="sZd6asuRGFdeztpvLVD6xg" x1="25.002" x2="43.002" y1="14" y2="14" gradientUnits="userSpaceOnUse"><stop offset="0" stop-color="#c965eb"/><stop offset="1" stop-color="#c767e5"/></linearGradient><path fill="url(#sZd6asuRGFdeztpvLVD6xg)" d="M42.002,23c-0.256,0-0.512-0.098-0.707-0.293l-16-16c-0.391-0.391-0.391-1.023,0-1.414	s1.023-0.391,1.414,0l16,16c0.391,0.391,0.391,1.023,0,1.414C42.514,22.902,42.258,23,42.002,23z"/><linearGradient id="sZd6asuRGFdeztpvLVD6xh" x1="23.002" x2="40.002" y1="16.5" y2="16.5" gradientUnits="userSpaceOnUse"><stop offset="0" stop-color="#c965eb"/><stop offset="1" stop-color="#c767e5"/></linearGradient><path fill="url(#sZd6asuRGFdeztpvLVD6xh)" d="M39.002,25c-0.256,0-0.512-0.098-0.707-0.293l-15-15.001c-0.391-0.391-0.391-1.023,0-1.414	s1.023-0.391,1.414,0l15,15.001c0.391,0.391,0.391,1.023,0,1.414C39.514,24.902,39.258,25,39.002,25z"/><linearGradient id="sZd6asuRGFdeztpvLVD6xi" x1="22.002" x2="36.002" y1="19" y2="19" gradientUnits="userSpaceOnUse"><stop offset="0" stop-color="#c965eb"/><stop offset="1" stop-color="#c767e5"/></linearGradient><path fill="url(#sZd6asuRGFdeztpvLVD6xi)" d="M35.002,26c-0.256,0-0.512-0.098-0.707-0.293l-12-12c-0.391-0.391-0.391-1.023,0-1.414	s1.023-0.391,1.414,0l12,12c0.391,0.391,0.391,1.023,0,1.414C35.514,25.902,35.258,26,35.002,26z"/><linearGradient id="sZd6asuRGFdeztpvLVD6xj" x1="23.001" x2="31.002" y1="22" y2="22" gradientUnits="userSpaceOnUse"><stop offset="0" stop-color="#c965eb"/><stop offset="1" stop-color="#c767e5"/></linearGradient><path fill="url(#sZd6asuRGFdeztpvLVD6xj)" d="M30.002,26c-0.256,0-0.512-0.098-0.707-0.293l-6.001-6.001c-0.391-0.391-0.391-1.023,0-1.414	s1.023-0.391,1.414,0l6.001,6.001c0.391,0.391,0.391,1.023,0,1.414C30.514,25.902,30.258,26,30.002,26z"/></svg>