<svg xmlns="http://www.w3.org/2000/svg" viewBox="0 0 48 48"><path fill="#50e6ff" d="M4,24v16.125C4,41.161,4.938,42,6.095,42h35.81C43.062,42,44,41.161,44,40.125V24l-20-2L4,24z"/><rect width="2" height="25" x="13" y="17" fill="#35c1f1"/><rect width="2" height="25" x="23" y="17" fill="#35c1f1"/><rect width="2" height="25" x="33" y="17" fill="#35c1f1"/><path fill="#199be2" d="M4,24v-5c0-1.105,0.895-2,2-2h36c1.105,0,2,0.895,2,2v5H4z"/><rect width="2" height="7" x="13" y="17" fill="#0077d1"/><rect width="2" height="7" x="23" y="17" fill="#0077d1"/><rect width="2" height="7" x="33" y="17" fill="#0077d1"/><path fill="#ad4bd5" d="M43.5,15h-1c-0.276,0-0.5-0.224-0.5-0.5v-10C42,4.224,42.224,4,42.5,4h1C43.776,4,44,4.224,44,4.5v10	C44,14.776,43.776,15,43.5,15z"/><path fill="#ad4bd5" d="M5.5,15h-1C4.224,15,4,14.776,4,14.5v-10C4,4.224,4.224,4,4.5,4h1C5.776,4,6,4.224,6,4.5v10	C6,14.776,5.776,15,5.5,15z"/><linearGradient id="t9XfzPCFOdeVFu3cCh6Kra" x1="8.023" x2="39.977" y1="9.5" y2="9.5" gradientUnits="userSpaceOnUse"><stop offset="0" stop-color="#c965eb"/><stop offset="1" stop-color="#c767e5"/></linearGradient><path fill="url(#t9XfzPCFOdeVFu3cCh6Kra)" d="M39.677,8.786L36.02,5.201C35.64,4.829,35,5.098,35,5.63V8H13V5.63	c0-0.532-0.64-0.801-1.02-0.429L8.323,8.786c-0.4,0.392-0.4,1.036,0,1.428l3.657,3.585C12.36,14.171,13,13.902,13,13.37V11h22v2.37	c0,0.532,0.64,0.801,1.02,0.429l3.657-3.585C40.077,9.822,40.077,9.178,39.677,8.786z"/></svg>