<svg xmlns="http://www.w3.org/2000/svg" viewBox="0 0 48 48"><linearGradient id="lf6MdXD~ONWeE9JcDVhAza" x1="19.578" x2="33.328" y1="1502.569" y2="1540.839" gradientTransform="translate(0 -1498)" gradientUnits="userSpaceOnUse"><stop offset="0" stop-color="#ffda1c"/><stop offset="1" stop-color="#feb705"/></linearGradient><path fill="url(#lf6MdXD~ONWeE9JcDVhAza)" d="M42,10c-11.122,0-11.278-6-18-6s-6.878,6-18,6c-0.552,0-1,0.448-1,1c0,0,0,5.856,0,9	c0,1.378,0.178,2.712,0.493,4c2.935,12.007,18.08,19.907,18.08,19.907l0.004-0.008C23.706,43.96,23.847,44,24,44	s0.294-0.04,0.423-0.102l0.004,0.008c0,0,15.144-7.9,18.08-19.907C42.822,22.712,43,21.378,43,20c0-3.144,0-9,0-9	C43,10.448,42.552,10,42,10z"/><linearGradient id="lf6MdXD~ONWeE9JcDVhAzb" x1="16.797" x2="29.533" y1="1486.367" y2="1538.199" gradientTransform="translate(0 -1498)" gradientUnits="userSpaceOnUse"><stop offset="0" stop-color="#ebc70f"/><stop offset="1" stop-color="#e3a405"/></linearGradient><path fill="url(#lf6MdXD~ONWeE9JcDVhAzb)" d="M24,8c1.641,0,2.445,0.504,4.266,1.745c2.256,1.537,5.226,3.561,10.734,4.112V20	c0,0.996-0.127,2.022-0.379,3.05c-1.981,8.103-11.075,14.328-14.622,16.487c-1.383-0.842-3.606-2.3-5.922-4.253	c-3.28-2.766-7.451-7.133-8.698-12.234C9.127,22.022,9,20.996,9,20v-6.143c5.508-0.55,8.478-2.574,10.734-4.112	C21.555,8.504,22.359,8,24,8"/><path d="M18.758,31.001c-0.433,0-0.838-0.194-1.113-0.532	c-0.271-0.336-0.376-0.771-0.287-1.196l1.084-5.114l-3.883-3.5c-0.425-0.384-0.579-0.96-0.403-1.505	c0.177-0.544,0.64-0.92,1.208-0.981l5.201-0.549l2.128-4.773C22.927,12.325,23.428,12,24,12s1.073,0.324,1.307,0.848l2.129,4.775	l5.199,0.549c0.571,0.062,1.034,0.438,1.21,0.982s0.022,1.121-0.403,1.504l-3.883,3.5l1.084,5.113	c0.089,0.426-0.015,0.861-0.287,1.196C30.083,30.806,29.677,31,29.243,31c-0.251,0-0.499-0.067-0.717-0.194L24,28.196l-4.526,2.611	C19.255,30.935,19.007,31.001,18.758,31.001z" opacity=".05"/><path d="M18.758,30.501c-0.282,0-0.546-0.127-0.725-0.348	c-0.176-0.218-0.244-0.501-0.186-0.778l1.144-5.396l-4.097-3.692c-0.277-0.25-0.377-0.625-0.262-0.979s0.417-0.599,0.787-0.639	l5.486-0.579l2.246-5.037C23.302,12.712,23.627,12.5,24,12.5s0.699,0.212,0.851,0.552l2.246,5.038l5.485,0.579	c0.372,0.04,0.673,0.285,0.788,0.64s0.014,0.729-0.262,0.979l-4.097,3.692l1.144,5.396c0.058,0.276-0.009,0.56-0.186,0.777	c-0.179,0.222-0.443,0.348-0.726,0.348l0,0c-0.162,0-0.323-0.043-0.465-0.126L24,27.619l-4.776,2.756	C19.082,30.457,18.92,30.501,18.758,30.501z" opacity=".07"/><path fill="#fee119" d="M23.606,13.256l-2.363,5.301l-5.772,0.609c-0.371,0.04-0.52,0.5-0.244,0.75l4.312,3.885l-1.203,5.678	c-0.077,0.366,0.315,0.65,0.638,0.463l5.026-2.9l5.027,2.9c0.323,0.186,0.715-0.098,0.638-0.463l-1.203-5.678l4.312-3.885	c0.277-0.249,0.128-0.71-0.244-0.75l-5.772-0.609l-2.363-5.301C24.243,12.915,23.758,12.915,23.606,13.256z"/></svg>