<svg xmlns="http://www.w3.org/2000/svg" width="48" height="48" viewBox="0 0 48 48"><linearGradient id="fktKJvxCQL1EHsI3d~BGEa" x1="24.009" x2="24.009" y1="9.144" y2="55.433" gradientUnits="userSpaceOnUse"><stop offset=".094" stop-color="#ad5316"/><stop offset=".516" stop-color="#aa4811"/><stop offset=".653" stop-color="#8e2e10"/></linearGradient><path fill="url(#fktKJvxCQL1EHsI3d~BGEa)" d="M43.009,16.025H31.985c-0.551,0-0.998,0.447-0.998,0.998v8.618c0,0.702,0,2.566-5.179,7.617 c-0.498,0.487-1.151,0.73-1.804,0.73c-0.659,0-1.317-0.248-1.817-0.742c-5.173-5.115-5.173-6.925-5.173-7.605v-8.617 c0-0.551-0.447-0.998-0.998-0.998H5.009c-0.553,0-1,0.448-1,1v21.063L10,42h28l6.009-3.912V17.025 C44.009,16.473,43.561,16.025,43.009,16.025z"/><linearGradient id="fktKJvxCQL1EHsI3d~BGEb" x1="19" x2="29" y1="26" y2="26" gradientUnits="userSpaceOnUse"><stop offset="0" stop-color="#c6cacc"/><stop offset="1" stop-color="#9da3a8"/></linearGradient><path fill="url(#fktKJvxCQL1EHsI3d~BGEb)" d="M27.821,20h-7.643C19.527,20,19,20.522,19,21.166c0,0,0,2.403,0,4.465	c0,1.526,3.393,5.015,4.589,6.198c0.229,0.226,0.595,0.228,0.825,0.003c1.199-1.17,4.586-4.615,4.586-6.2c0-2.062,0-4.465,0-4.465	C29,20.522,28.472,20,27.821,20z"/><linearGradient id="fktKJvxCQL1EHsI3d~BGEc" x1="24" x2="24" y1="6.985" y2="4.881" gradientUnits="userSpaceOnUse"><stop offset="0" stop-color="#c6cacc"/><stop offset="1" stop-color="#9da3a8"/></linearGradient><path fill="url(#fktKJvxCQL1EHsI3d~BGEc)" d="M26,7h-4c-0.552,0-1-0.448-1-1v0c0-0.552,0.448-1,1-1h4c0.552,0,1,0.448,1,1v0	C27,6.552,26.552,7,26,7z"/><linearGradient id="fktKJvxCQL1EHsI3d~BGEd" x1="24" x2="24" y1="148.656" y2="141.005" gradientTransform="matrix(1 0 0 -1 0 186)" gradientUnits="userSpaceOnUse"><stop offset="0" stop-color="#2aa4f4"/><stop offset="1" stop-color="#007ad9"/></linearGradient><path fill="url(#fktKJvxCQL1EHsI3d~BGEd)" d="M41.143,38.333c-1.578,0-2.857-0.952-2.857-0.952s-1.279,0.952-2.857,0.952	c-1.578,0-2.857-0.952-2.857-0.952s-1.279,0.952-2.857,0.952c-1.578,0-2.857-0.952-2.857-0.952S25.578,38.333,24,38.333	s-2.857-0.952-2.857-0.952s-1.279,0.952-2.857,0.952c-1.578,0-2.857-0.952-2.857-0.952s-1.279,0.952-2.857,0.952	s-2.857-0.952-2.857-0.952s-1.279,0.952-2.857,0.952S4,37.381,4,37.381v5.714C4,44.148,4.852,45,5.905,45h36.19	C43.148,45,44,44.148,44,43.095v-5.714C44,37.381,42.721,38.333,41.143,38.333z"/><path d="M26,24v-4h-4v4c0,1.103,0.897,2,2,2S26,25.103,26,24z" opacity=".05"/><path d="M25.5,24v-4h-1v4c0,0.276-0.225,0.5-0.5,0.5s-0.5-0.224-0.5-0.5v-4h-1v4	c0,0.827,0.673,1.5,1.5,1.5S25.5,24.827,25.5,24z" opacity=".07"/><linearGradient id="fktKJvxCQL1EHsI3d~BGEe" x1="-126.922" x2="-126.922" y1="127.223" y2="125.269" gradientTransform="matrix(1 .00002 .00016 -9.2499 150.901 1183.707)" gradientUnits="userSpaceOnUse"><stop offset="0" stop-color="#ffd869"/><stop offset="1" stop-color="#fec52b"/></linearGradient><path fill="url(#fktKJvxCQL1EHsI3d~BGEe)" d="M24,25L24,25c-0.552,0-1-0.448-1-1V7h2l0,17C25,24.552,24.552,25,24,25z"/><rect width="2" height=".5" x="23" y="7" opacity=".07"/><rect width="2" height="1" x="23" y="7" opacity=".05"/></svg>