<svg xmlns="http://www.w3.org/2000/svg" viewBox="0 0 48 48"><linearGradient id="9qLRJL8i7T8i~HONvRfkxa" x1="2.874" x2="24.916" y1="5.771" y2="31.217" gradientUnits="userSpaceOnUse"><stop offset="0" stop-color="#33c481"/><stop offset="1" stop-color="#21a366"/></linearGradient><path fill="url(#9qLRJL8i7T8i~HONvRfkxa)" d="M18,6C9.2,6,2,12,2,19.5c0,4.3,2.3,8,6,10.5l-2,6l6.3-3.9C14,32.7,16,33,18,33	c8.8,0,16-6,16-13.5S26.8,6,18,6z"/><linearGradient id="9qLRJL8i7T8i~HONvRfkxb" x1="20.478" x2="43.542" y1="17.541" y2="38.647" gradientUnits="userSpaceOnUse"><stop offset="0" stop-color="#f0f0f0"/><stop offset="1" stop-color="#bbc1c4"/></linearGradient><path fill="url(#9qLRJL8i7T8i~HONvRfkxb)" d="M46,29c0-6.1-5.8-11-13-11s-13,4.9-13,11s5.8,11,13,11c1.8,0,3.5-0.3,5-0.8l5,2.8l-1.4-4.8	C44.3,35.2,46,32.3,46,29z"/><path fill="#135d36" d="M14,15c0,1.1-0.9,2-2,2s-2-0.9-2-2s0.9-2,2-2S14,13.9,14,15z M24,13c-1.1,0-2,0.9-2,2s0.9,2,2,2	s2-0.9,2-2S25.1,13,24,13z"/><path fill="#474747" d="M30,26.5c0,0.8-0.7,1.5-1.5,1.5S27,27.3,27,26.5s0.7-1.5,1.5-1.5S30,25.7,30,26.5z M37.5,25	c-0.8,0-1.5,0.7-1.5,1.5s0.7,1.5,1.5,1.5s1.5-0.7,1.5-1.5S38.3,25,37.5,25z"/><path fill="#e52030" d="M44.888,42.75L5.266,3.128c-0.149-0.149-0.39-0.149-0.539,0c0,0,0,0,0,0L3.112,4.744	c-0.149,0.149-0.149,0.39,0,0.539c0,0,0,0,0,0l39.622,39.622c0.149,0.149,0.39,0.149,0.539,0c0,0,0,0,0,0l1.616-1.616	C45.037,43.14,45.037,42.899,44.888,42.75z"/></svg>