<svg xmlns="http://www.w3.org/2000/svg" xmlns:xlink="http://www.w3.org/1999/xlink" data-name="Layer 1" viewBox="0 0 48 48"><defs><linearGradient id="zlLVy5pfVGVGOSbwUylZWb" x1="24" x2="24" y1="2.973" y2="70.082" data-name="Безымянный градиент 103" gradientUnits="userSpaceOnUse"><stop offset="0" stop-color="#21ad64"/><stop offset="1" stop-color="#088242"/></linearGradient><linearGradient id="zlLVy5pfVGVGOSbwUylZWa" x1="20.543" x2="38.172" y1="18.106" y2="66.539" data-name="Безымянный градиент 142" gradientUnits="userSpaceOnUse"><stop offset="0" stop-color="#fed100"/><stop offset=".477" stop-color="#f2ad00"/><stop offset="1" stop-color="#e38101"/></linearGradient><linearGradient id="zlLVy5pfVGVGOSbwUylZWc" x1="20.542" x2="38.177" y1="18.103" y2="66.553" xlink:href="#zlLVy5pfVGVGOSbwUylZWa"/></defs><path fill="url(#zlLVy5pfVGVGOSbwUylZWb)" d="M6,28.33384c0-.78193,1.03376-1.52762,1.10325-2.31991.06849-.7809-.82122-1.69179-.68877-2.47395.13125-.77514,1.2713-1.34481,1.46192-2.11263.19-.76536-.55178-1.8011-.30621-2.55075.24625-.75174,1.45727-1.14789,1.756-1.87533.30165-.73461-.28031-1.86873.0713-2.56986.35708-.712,1.61361-.92133,2.01856-1.58974.414-.68334.021-1.89605.48114-2.52409.474-.647,1.74678-.63251,2.26543-1.21025.53686-.598.39348-1.86491.97349-2.37707.60346-.53287,1.83588-.22429,2.48074-.65107.67022-.44357.8828-1.70029,1.59179-2.01453.72948-.32331,1.78924.37095,2.55324.20068.76766-.17108,1.44232-1.2488,2.23815-1.2488.79617,0,1.47111,1.07779,2.23909,1.249.76416.17037,1.82416-.52371,2.55378-.20023.70911.31439.92169,1.57123,1.592,2.015.64469.42679,1.877.11825,2.48032.65107.58.51221.43647,1.77907.97329,2.37714.51814.57727,1.79051.56228,2.26407,1.20867.46008.628.06712,1.84066.4811,2.52394.40472.668,1.661.87682,2.01795,1.58841.35142.70064-.23065,1.83434.07088,2.56843.29883.72753,1.50993,1.12366,1.7563,1.8755.24569.74977-.496,1.78572-.30585,2.55121.19077.76816,1.33093,1.33809,1.46229,2.11358.13254.78244-.7571,1.69365-.68855,2.47483C40.96622,26.80567,42,27.55164,42,28.33384c0,.68027-1.0253,1.29861-1.07808,1.93744-.056.6776.84956,1.46089.737,2.09208-.11925.66875-1.24179,1.08413-1.42119,1.701-.18906.65014.52972,1.60672.27779,2.19959-.26352.62014-1.45159.76018-1.77939,1.318-.33936.57753.1117,1.68475-.29152,2.19588-.412.52227-1.59444.33925-2.0677.79262-.47707.457-.34426,1.64484-.878,2.03228-.53156.38586-1.6228-.10635-2.205.21092-.57424.31294-.74724,1.49606-1.36541,1.74269-.60574.24167-1.55029-.49458-2.19317-.31617-.62741.17411-1.05212,1.29262-1.71021,1.40684-.64142.11133-1.42279-.79666-2.089-.74188-.64895.05335-1.26767,1.07827-1.93612,1.07827-.66868,0-1.28762-1.02494-1.93679-1.07833-.66659-.05482-1.44838.85307-2.09015.74162-.65859-.11436-1.08364-1.233-1.7115-1.40738-.64308-.17859-1.588.5574-2.19391.3155-.61843-.24691-.79142-1.43022-1.36586-1.7435-.58231-.31757-1.67392.17413-2.20552-.21208-.53365-.38769-.40043-1.5755-.87738-2.03279-.47293-.45344-1.65533-.27077-2.067-.79308-.403-.51128.04847-1.61834-.29069-2.196-.32745-.55772-1.51535-.6979-1.77858-1.31786-.25147-.59229.46777-1.548.279-2.19743-.17912-.61627-1.30146-1.031-1.42057-1.699-.11251-.631.79306-1.41407.73708-2.09145C7.02531,29.63271,6,29.01426,6,28.33384Z"/><path fill="url(#zlLVy5pfVGVGOSbwUylZWa)" d="M24,42.98334c-9.393,0-15-5.51393-15-14.7504,0-10.06275,6.691-22.2164,15-22.2164s15,12.15365,15,22.2164C39,37.46941,33.393,42.98334,24,42.98334Z"/><path fill="#f09801" d="M24,40.98334c-8.26172,0-13-4.64746-13-12.75,0-9.10058,5.999-20.2168,13-20.2168s13,11.11622,13,20.2168C37,36.33588,32.26172,40.98334,24,40.98334Z"/><path fill="url(#zlLVy5pfVGVGOSbwUylZWc)" d="M22,18.01654H17.04458a1.00528,1.00528,0,0,1-.8782-1.4905c1.80848-3.23744,4.18216-5.6648,6.55814-6.32825A1.00585,1.00585,0,0,1,24,11.16616v4.85038A2,2,0,0,1,22,18.01654Zm6,0h2.95749a1.003,1.003,0,0,0,.87993-1.48409,16.31411,16.31411,0,0,0-4.24663-5.14924A1.00293,1.00293,0,0,0,26,12.19885v3.81769A2,2,0,0,0,28,18.01654Zm-5,11H33.99527a.99506.99506,0,0,0,1.00363-.98807,23.83528,23.83528,0,0,0-1.3137-7.34212,1.001,1.001,0,0,0-.95013-.66982H23a2,2,0,0,0-2,2v5A2,2,0,0,0,23,29.01655Zm-2,2H14.50061a1.0103,1.0103,0,0,0-.96649,1.28852c1.10072,3.79605,3.9167,6.02095,8.3205,6.54813A1.0117,1.0117,0,0,0,23,37.86021V33.01654A2,2,0,0,0,21,31.01654Zm-4-11H15.26493a1.00092,1.00092,0,0,0-.95008.66976,23.83337,23.83337,0,0,0-1.31371,7.3422.99219.99219,0,0,0,1.0003.98806H16.6975a2.08481,2.08481,0,0,0,2.3025-2v-5A2,2,0,0,0,17,20.01653Zm8,13v4.84367a1.0117,1.0117,0,0,0,1.14538.993c4.4038-.52718,7.21978-2.75208,8.3205-6.54813a1.0103,1.0103,0,0,0-.96649-1.28852H27A2,2,0,0,0,25,33.01654Z"/></svg>