<svg xmlns="http://www.w3.org/2000/svg" viewBox="0 0 48 48"><linearGradient id="DJLTy_RmGBbzLNahFrEc0a" x1="12.952" x2="34.386" y1="-433.43" y2="-468.777" gradientTransform="matrix(1 0 0 -1 0 -426)" gradientUnits="userSpaceOnUse"><stop offset="0" stop-color="#7dd8f3"/><stop offset="1" stop-color="#45b0d0"/></linearGradient><path fill="url(#DJLTy_RmGBbzLNahFrEc0a)" d="M36,42H10c-1.105,0-2-0.895-2-2V8c0-1.105,0.895-2,2-2h26c1.105,0,2,0.895,2,2v32	C38,41.105,37.105,42,36,42z"/><linearGradient id="DJLTy_RmGBbzLNahFrEc0b" x1="20" x2="20" y1="-463.284" y2="-468.01" gradientTransform="matrix(1 0 0 -1 0 -426)" gradientUnits="userSpaceOnUse"><stop offset="0" stop-color="#0176d0"/><stop offset="1" stop-color="#16538c"/></linearGradient><path fill="url(#DJLTy_RmGBbzLNahFrEc0b)" d="M34,40v-3H4v3c0,1.105,0.895,2,2,2h30C34.895,42,34,41.105,34,40z"/><path fill="#057093" d="M32.5,19h-13c-0.276,0-0.5-0.224-0.5-0.5v-2c0-0.276,0.224-0.5,0.5-0.5h13c0.276,0,0.5,0.224,0.5,0.5	v2C33,18.776,32.776,19,32.5,19z"/><path fill="#057093" d="M32.5,25h-13c-0.276,0-0.5-0.224-0.5-0.5v-2c0-0.276,0.224-0.5,0.5-0.5h13c0.276,0,0.5,0.224,0.5,0.5	v2C33,24.776,32.776,25,32.5,25z"/><path fill="#057093" d="M32.5,31h-13c-0.276,0-0.5-0.224-0.5-0.5v-2c0-0.276,0.224-0.5,0.5-0.5h13c0.276,0,0.5,0.224,0.5,0.5	v2C33,30.776,32.776,31,32.5,31z"/><path d="M30.111,42H38V27h-8.467C28.688,27,28,27.748,28,28.667v0.666c0,0.72,0.413,1.331,1,1.564v0.436	c0,0.718,0.413,1.328,1,1.563c0.014,2.074,0.986,3.959,2.591,5.104C31.278,38.938,30.398,40.374,30.111,42z" opacity=".05"/><path fill="#057093" d="M15.5,19h-2c-0.276,0-0.5-0.224-0.5-0.5v-2c0-0.276,0.224-0.5,0.5-0.5h2c0.276,0,0.5,0.224,0.5,0.5v2	C16,18.776,15.776,19,15.5,19z"/><path fill="#057093" d="M15.5,25h-2c-0.276,0-0.5-0.224-0.5-0.5v-2c0-0.276,0.224-0.5,0.5-0.5h2c0.276,0,0.5,0.224,0.5,0.5v2	C16,24.776,15.776,25,15.5,25z"/><path fill="#057093" d="M15.5,31h-2c-0.276,0-0.5-0.224-0.5-0.5v-2c0-0.276,0.224-0.5,0.5-0.5h2c0.276,0,0.5,0.224,0.5,0.5v2	C16,30.776,15.776,31,15.5,31z"/><path d="M30.623,42H38V27.5h-8.467c-0.57,0-1.033,0.523-1.033,1.167v0.666c0,0.631,0.446,1.146,1,1.166v0.834	c0,0.629,0.445,1.144,1,1.166v0.352c0,2.221,1.208,4.196,3.046,5.149C32.034,38.785,30.961,40.265,30.623,42z" opacity=".07"/><radialGradient id="DJLTy_RmGBbzLNahFrEc0c" cx="37" cy="38" r="7.311" gradientUnits="userSpaceOnUse"><stop offset="0" stop-color="#fafafb"/><stop offset="1" stop-color="#c8cdd1"/></radialGradient><path fill="url(#DJLTy_RmGBbzLNahFrEc0c)" d="M43,32.851v-3.272H31v3.272c0,2.407,1.556,4.506,3.776,5.09L35,38l-0.224,0.059	C32.556,38.643,31,40.742,31,43.149v3.272h12v-3.272c0-2.407-1.556-4.506-3.776-5.09L39,38l0.224-0.059	C41.444,37.357,43,35.258,43,32.851z"/><linearGradient id="DJLTy_RmGBbzLNahFrEc0d" x1="36.895" x2="36.895" y1="47.447" y2="41.786" gradientUnits="userSpaceOnUse"><stop offset="0" stop-color="#eba84b"/><stop offset="1" stop-color="#d97218"/></linearGradient><path fill="url(#DJLTy_RmGBbzLNahFrEc0d)" d="M37.862,42.467c-0.081-0.471-0.473-0.836-0.967-0.836s-0.886,0.365-0.967,0.836	c-1.319,0.545-3.244,1.946-3.244,3.954h8.421C41.105,44.414,39.181,43.013,37.862,42.467z"/><linearGradient id="DJLTy_RmGBbzLNahFrEc0e" x1="36.895" x2="36.895" y1="41.06" y2="38.696" gradientUnits="userSpaceOnUse"><stop offset="0" stop-color="#eba84b"/><stop offset="1" stop-color="#d97218"/></linearGradient><circle cx="36.895" cy="39.632" r="1" fill="url(#DJLTy_RmGBbzLNahFrEc0e)"/><linearGradient id="DJLTy_RmGBbzLNahFrEc0f" x1="30" x2="44" y1="-457" y2="-457" gradientTransform="matrix(1 0 0 -1 0 -426)" gradientUnits="userSpaceOnUse"><stop offset="0" stop-color="#912fbd"/><stop offset="1" stop-color="#9332bf"/></linearGradient><path fill="url(#DJLTy_RmGBbzLNahFrEc0f)" d="M43.462,32H30.538C30.241,32,30,31.701,30,31.333V30h14v1.333C44,31.701,43.759,32,43.462,32z"/><linearGradient id="DJLTy_RmGBbzLNahFrEc0g" x1="30" x2="44" y1="-471" y2="-471" gradientTransform="translate(0 516)" gradientUnits="userSpaceOnUse"><stop offset="0" stop-color="#912fbd"/><stop offset="1" stop-color="#9332bf"/></linearGradient><path fill="url(#DJLTy_RmGBbzLNahFrEc0g)" d="M44,44.667V46H30v-1.333C30,44.299,30.241,44,30.538,44h12.923C43.759,44,44,44.299,44,44.667	z"/><linearGradient id="DJLTy_RmGBbzLNahFrEc0h" x1="29" x2="45" y1="-455" y2="-455" gradientTransform="matrix(1 0 0 -1 0 -426)" gradientUnits="userSpaceOnUse"><stop offset="0" stop-color="#ae4cd5"/><stop offset="1" stop-color="#ac4ad5"/></linearGradient><path fill="url(#DJLTy_RmGBbzLNahFrEc0h)" d="M44.467,30H29.533C29.239,30,29,29.701,29,29.333v-0.667C29,28.299,29.239,28,29.533,28	h14.933C44.761,28,45,28.299,45,28.667v0.667C45,29.701,44.761,30,44.467,30z"/><linearGradient id="DJLTy_RmGBbzLNahFrEc0i" x1="37" x2="37" y1="-460.358" y2="-463.903" gradientTransform="matrix(1 0 0 -1 0 -426)" gradientUnits="userSpaceOnUse"><stop offset="0" stop-color="#eba84b"/><stop offset="1" stop-color="#d97218"/></linearGradient><path fill="url(#DJLTy_RmGBbzLNahFrEc0i)" d="M33,35c0,1.5,3.556,3,4,3s4-1.5,4-3H33z"/><linearGradient id="DJLTy_RmGBbzLNahFrEc0j" x1="-1206.789" x2="-1191" y1="1231" y2="1231" gradientTransform="matrix(-1 0 0 1 -1162 -1184)" gradientUnits="userSpaceOnUse"><stop offset="0" stop-color="#ae4cd5"/><stop offset="1" stop-color="#ac4ad5"/></linearGradient><path fill="url(#DJLTy_RmGBbzLNahFrEc0j)" d="M29.526,46h14.737c0.291,0,0.526,0.299,0.526,0.667v0.667c0,0.368-0.236,0.667-0.526,0.667	H29.526C29.236,48,29,47.701,29,47.333v-0.667C29,46.299,29.236,46,29.526,46z"/></svg>