<svg xmlns="http://www.w3.org/2000/svg" viewBox="0 0 48 48"><path fill="#61e3a7" d="M13,25v15.236C13,40.658,13.342,41,13.764,41h20.473C34.658,41,35,40.658,35,40.236V25H13z"/><path fill="#61e3a7" d="M13,27v15.236C13,42.658,13.342,43,13.764,43h20.473C34.658,43,35,42.658,35,42.236V27H13z"/><linearGradient id="EfspPYCKIjWlwBtChxfcUa" x1="4" x2="44" y1="20" y2="20" gradientUnits="userSpaceOnUse"><stop offset="0" stop-color="#899198"/><stop offset="1" stop-color="#787e85"/></linearGradient><path fill="url(#EfspPYCKIjWlwBtChxfcUa)" d="M44,33V7c0-1.105-0.895-2-2-2H6C4.895,5,4,5.895,4,7v26c0,1.105,0.895,2,2,2h36	C43.105,35,44,34.105,44,33z"/><linearGradient id="EfspPYCKIjWlwBtChxfcUb" x1="14.764" x2="32.496" y1="9.99" y2="22.488" gradientUnits="userSpaceOnUse"><stop offset="0" stop-color="#4fe5ff"/><stop offset="1" stop-color="#2eb7ed"/></linearGradient><path fill="url(#EfspPYCKIjWlwBtChxfcUb)" d="M32,23H16c-0.552,0-1-0.448-1-1V11c0-0.552,0.448-1,1-1h16c0.552,0,1,0.448,1,1v11	C33,22.552,32.552,23,32,23z"/><rect width="22" height="10" x="13" y="29" fill="#33c481"/><path fill="#586067" d="M9.5,10h1c0.828,0,1.5,0.672,1.5,1.5v0c0,0.828-0.672,1.5-1.5,1.5h-1C8.672,13,8,12.328,8,11.5v0	C8,10.672,8.672,10,9.5,10z"/><path fill="#586067" d="M9.5,15h1c0.828,0,1.5,0.672,1.5,1.5v0c0,0.828-0.672,1.5-1.5,1.5h-1C8.672,18,8,17.328,8,16.5v0	C8,15.672,8.672,15,9.5,15z"/><path fill="#586067" d="M9.5,20h1c0.828,0,1.5,0.672,1.5,1.5v0c0,0.828-0.672,1.5-1.5,1.5h-1C8.672,23,8,22.328,8,21.5v0	C8,20.672,8.672,20,9.5,20z"/><path fill="#586067" d="M37.5,10h1c0.828,0,1.5,0.672,1.5,1.5v0c0,0.828-0.672,1.5-1.5,1.5h-1c-0.828,0-1.5-0.672-1.5-1.5v0	C36,10.672,36.672,10,37.5,10z"/><path fill="#586067" d="M37.5,15h1c0.828,0,1.5,0.672,1.5,1.5v0c0,0.828-0.672,1.5-1.5,1.5h-1c-0.828,0-1.5-0.672-1.5-1.5v0	C36,15.672,36.672,15,37.5,15z"/><path fill="#586067" d="M37.5,20h1c0.828,0,1.5,0.672,1.5,1.5v0c0,0.828-0.672,1.5-1.5,1.5h-1c-0.828,0-1.5-0.672-1.5-1.5v0	C36,20.672,36.672,20,37.5,20z"/><path fill="#121212" d="M9.583,27h28.834c0.569,0,1.03,0.448,1.03,1v0c0,0.552-0.461,1-1.03,1H9.583	c-0.569,0-1.03-0.448-1.03-1v0C8.553,27.448,9.014,27,9.583,27z"/><path fill="#107c42" d="M35,29H13v-2h22V29z"/><path fill="#52bf8d" d="M18.09,29h11.82c-0.121-0.718-0.367-1.392-0.719-2H18.809C18.457,27.608,18.211,28.282,18.09,29z"/><path fill="#61e3a7" d="M18.09,29C18.035,29.326,18,29.659,18,30c0,3.314,2.686,6,6,6s6-2.686,6-6	c0-0.341-0.035-0.674-0.09-1H18.09z"/></svg>