<svg xmlns="http://www.w3.org/2000/svg" viewBox="0 0 48 48"><linearGradient id="te2eqdi3A5_zFSeZOqdPNa" x1="6" x2="42" y1="1420" y2="1420" gradientTransform="translate(0 -1378)" gradientUnits="userSpaceOnUse"><stop offset="0" stop-color="#c8d3de"/><stop offset="1" stop-color="#c8d3de"/></linearGradient><path fill="url(#te2eqdi3A5_zFSeZOqdPNa)" d="M42,40H6v2c0,1.105,0.895,2,2,2h32c1.105,0,2-0.895,2-2V40z"/><linearGradient id="te2eqdi3A5_zFSeZOqdPNb" x1="14.095" x2="31.385" y1="1389.338" y2="1422.787" gradientTransform="translate(0 -1378)" gradientUnits="userSpaceOnUse"><stop offset="0" stop-color="#fcfcfc"/><stop offset=".495" stop-color="#f4f4f4"/><stop offset=".946" stop-color="#e8e8e8"/><stop offset="1" stop-color="#e8e8e8"/></linearGradient><path fill="url(#te2eqdi3A5_zFSeZOqdPNb)" d="M42,40H6V21L24,4l18,17V40z"/><path fill="#de490d" d="M19,26h10c0.552,0,1,0.448,1,1v17H18V27C18,26.448,18.448,26,19,26z"/><path d="M24,5c-0.474,0-0.948,0.168-1.326,0.503l-5.359,4.811L6,21v5.39l18-15.962	L42,26.39V21L30.685,10.314l-5.359-4.811C24.948,5.168,24.474,5,24,5z" opacity=".05"/><path d="M24,4c-0.474,0-0.948,0.167-1.326,0.5l-5.359,4.784L6,19.909v5.359	L24,9.397l18,15.871v-5.359L30.685,9.284L25.326,4.5C24.948,4.167,24.474,4,24,4z" opacity=".07"/><linearGradient id="te2eqdi3A5_zFSeZOqdPNc" x1="24" x2="24" y1="1380.684" y2="1402.696" gradientTransform="translate(0 -1378)" gradientUnits="userSpaceOnUse"><stop offset="0" stop-color="#d43a02"/><stop offset="1" stop-color="#b9360c"/></linearGradient><path fill="url(#te2eqdi3A5_zFSeZOqdPNc)" d="M44.495,20.507L25.326,3.503C24.948,3.168,24.474,3,24,3s-0.948,0.168-1.326,0.503	L3.505,20.507c-0.42,0.374-0.449,1.02-0.064,1.43l1.636,1.745c0.369,0.394,0.984,0.424,1.39,0.067L24,8.428L41.533,23.75	c0.405,0.356,1.021,0.327,1.39-0.067l1.636-1.745C44.944,21.527,44.915,20.881,44.495,20.507z"/><path d="M42,34.58V42c0,1.1-0.9,2-2,2H27V31c0-1.1,0.9-2,2-2	c4.78,0,9.3,1.88,12.71,5.28C41.81,34.38,41.91,34.48,42,34.58z" opacity=".05"/><path d="M42,35.32V42c0,1.1-0.9,2-2,2H27.5V31c0-0.83,0.67-1.5,1.5-1.5	c4.65,0,9.04,1.82,12.36,5.14C41.58,34.86,41.8,35.09,42,35.32z" opacity=".07"/><path fill="#0078d4" d="M46,47c0,0.55-0.45,1-1,1h-4.01c0.12-3.29-1.05-6.53-3.28-8.95C35.35,36.48,31.99,35,28.5,35	c-0.16,0-0.33,0-0.5,0.01V31c0-0.55,0.45-1,1-1c4.68,0,8.92,1.91,12.01,4.99C44.09,38.08,46,42.32,46,47z"/><path fill="#1b9de2" d="M42,47.5c0,0.17,0,0.34-0.01,0.5h-5.01c0.13-2.3-0.67-4.56-2.21-6.25C33.16,40,30.88,39,28.5,39	c-0.17,0-0.33,0-0.5,0.02v-5.01C28.16,34,28.33,34,28.5,34C35.94,34,42,40.06,42,47.5z"/><path fill="#35c1f1" d="M38,47.5c0,0.17,0,0.33-0.01,0.5h-5.08c-0.2-1.26-0.8-2.38-1.67-3.24c-0.86-0.87-1.98-1.47-3.24-1.67	v-5.08C28.17,38,28.33,38,28.5,38C33.74,38,38,42.26,38,47.5z"/><path fill="#50e6ff" d="M33.979,47.992c-0.003,0.003-0.005,0.005-0.009,0.008H29c-0.552,0-1-0.448-1-1v-4.97	c0.003-0.003,0.005-0.005,0.008-0.009C31.435,41.724,34.276,44.564,33.979,47.992z"/></svg>