<svg xmlns="http://www.w3.org/2000/svg" viewBox="0 0 48 48"><linearGradient id="2kPRJ1wPrC0V4TgOIAbj~a" x1="19.381" x2="25.475" y1="-5.99" y2="42.508" gradientUnits="userSpaceOnUse"><stop offset="0" stop-color="#33bef0"/><stop offset=".297" stop-color="#24a9e7"/><stop offset=".737" stop-color="#118fdd"/><stop offset="1" stop-color="#0a85d9"/></linearGradient><path fill="url(#2kPRJ1wPrC0V4TgOIAbj~a)" d="M25,4.026V4H5v0.011l-2.073,0c-1.116,0-2.193,0.594-2.66,1.608 c-0.519,1.127-0.255,2.382,0.554,3.194l3.594,3.602C4.79,12.789,5,13.297,5,13.827V24c0,11.046,8.73,20,19.5,20S44,35.046,44,24 C44,13.127,35.536,4.3,25,4.026z"/><path d="M39.796,11.618L22.707,28.707c-0.379,0.378-1.035,0.378-1.414,0l-7-7C14.104,21.518,14,21.267,14,21 s0.104-0.518,0.293-0.707C14.488,20.098,14.744,20,15,20s0.512,0.098,0.707,0.292L22,26.585L38.496,10.09 c-0.459-0.485-0.942-0.946-1.447-1.381L22,23.757l-4.879-4.878c-1.17-1.17-3.072-1.169-4.242,0C12.312,19.445,12,20.199,12,21 s0.312,1.555,0.879,2.121l7,7C20.445,30.688,21.199,31,22,31s1.555-0.312,2.121-0.879l16.83-16.829 C40.592,12.714,40.209,12.154,39.796,11.618z" opacity=".05"/><path d="M40.091,12.03l-17.03,17.03c-0.566,0.566-1.555,0.566-2.121,0l-7-7 C13.656,21.777,13.5,21.401,13.5,21s0.156-0.777,0.439-1.061c0.292-0.292,0.677-0.438,1.061-0.438s0.769,0.146,1.061,0.438 L22,25.878L38.138,9.74c-0.235-0.236-0.477-0.467-0.723-0.691L22,24.464l-5.232-5.232c-0.975-0.975-2.561-0.976-3.535,0 C12.76,19.704,12.5,20.332,12.5,21s0.26,1.296,0.732,1.768l7,7C20.705,30.24,21.332,30.5,22,30.5s1.295-0.26,1.768-0.732 l16.913-16.913C40.495,12.572,40.29,12.303,40.091,12.03z" opacity=".07"/><path fill="#fff" d="M22,30c-0.512,0-1.023-0.195-1.414-0.586l-7-7c-0.781-0.781-0.781-2.047,0-2.828 c0.781-0.781,2.047-0.781,2.828,0L22,25.171L39.586,7.586c0.781-0.781,2.047-0.781,2.828,0c0.781,0.781,0.781,2.047,0,2.828 l-19,19C23.023,29.805,22.512,30,22,30z"/></svg>