<svg xmlns="http://www.w3.org/2000/svg" viewBox="0 0 48 48"><linearGradient id="pnpM~v2GVeLfb7Exz30p4a" x1="23.999" x2="23.999" y1="35.998" y2="6.936" gradientUnits="userSpaceOnUse"><stop offset="0" stop-color="#45494d"/><stop offset="1" stop-color="#6d7479"/></linearGradient><path fill="url(#pnpM~v2GVeLfb7Exz30p4a)" d="M37.291,35.997H10.709c-2.207,0-4.957-2.222-4.729-3.997c0.111-0.866,1.313-1.888,1.5-3	c0.159-0.947-0.708-1.96-0.483-3c1.316-6.079,4.86-19.064,9.583-19.064c1.512,0,3.023,0.573,4.283,1.251	c1.931,1.04,4.342,1.04,6.274,0c1.26-0.678,2.771-1.251,4.283-1.251c4.722,0,8.265,12.985,9.581,19.064	c0.225,1.04-1.66,2.053-1.501,3c0.187,1.112,2.407,2.134,2.518,3C42.246,33.775,39.497,35.997,37.291,35.997z"/><linearGradient id="pnpM~v2GVeLfb7Exz30p4b" x1="24" x2="24" y1="41" y2="23.183" gradientUnits="userSpaceOnUse"><stop offset="0" stop-color="#45494d"/><stop offset="1" stop-color="#6d7479"/></linearGradient><path fill="url(#pnpM~v2GVeLfb7Exz30p4b)" d="M46.94,37.091c0.569,0.487,0.426,1.407-0.269,1.685C44.452,39.665,38.676,41,24,41	S3.548,39.665,1.329,38.776c-0.695-0.278-0.837-1.198-0.269-1.685L5.98,32H24h18.018L46.94,37.091z"/><linearGradient id="pnpM~v2GVeLfb7Exz30p4c" x1="23.999" x2="23.999" y1="26" y2="32" gradientUnits="userSpaceOnUse"><stop offset="0" stop-color="#dfe9f2"/><stop offset=".391" stop-color="#d6e0e9"/><stop offset="1" stop-color="#bfc8d1"/></linearGradient><path fill="url(#pnpM~v2GVeLfb7Exz30p4c)" d="M6.999,26c-0.489,2.26-0.813,4.396-1.018,6h36.038c-0.206-1.604-0.529-3.74-1.018-6H6.999z"/></svg>