<svg xmlns="http://www.w3.org/2000/svg" data-name="Слой 1" viewBox="0 0 48 48"><defs><linearGradient id="rEZmNssB_7oApR7P6zNh1a" x1="24" x2="24" y1="-952" y2="-964" data-name="Безымянный градиент 87" gradientTransform="matrix(1 0 0 -1 0 -936)" gradientUnits="userSpaceOnUse"><stop offset="0" stop-color="#999"/><stop offset=".23" stop-color="#999"/><stop offset=".367" stop-color="#999"/></linearGradient><linearGradient id="rEZmNssB_7oApR7P6zNh1b" x1="24" x2="24" y1="-976" y2="-971" data-name="Безымянный градиент 85" gradientTransform="matrix(1 0 0 -1 0 -936)" gradientUnits="userSpaceOnUse"><stop offset="0" stop-color="#889097"/><stop offset="1" stop-color="#64717c"/></linearGradient><linearGradient id="rEZmNssB_7oApR7P6zNh1c" x1="5" x2="43" y1="-966.5" y2="-966.5" data-name="Безымянный градиент 84" gradientTransform="matrix(1 0 0 -1 0 -936)" gradientUnits="userSpaceOnUse"><stop offset="0" stop-color="#cdd2d6"/><stop offset=".512" stop-color="#b2b9bf"/><stop offset="1" stop-color="#9ca5ad"/></linearGradient><linearGradient id="rEZmNssB_7oApR7P6zNh1d" x1="27.766" x2="43.124" y1="-963.766" y2="-979.124" data-name="Безымянный градиент 101" gradientTransform="matrix(1 0 0 -1 0 -936)" gradientUnits="userSpaceOnUse"><stop offset="0" stop-color="#05acb3"/><stop offset="1" stop-color="#038387"/></linearGradient></defs><path fill="#586169" d="M8.5,42h0A1.50055,1.50055,0,0,1,7,40.5V38h3v2.5A1.50055,1.50055,0,0,1,8.5,42Z"/><path fill="#586169" d="M39.5,42h0A1.50055,1.50055,0,0,1,38,40.5V38h3v2.5A1.50055,1.50055,0,0,1,39.5,42Z"/><rect width="4" height="12" x="22" y="16" fill="url(#rEZmNssB_7oApR7P6zNh1a)"/><rect width="38" height="5" x="5" y="35" fill="url(#rEZmNssB_7oApR7P6zNh1b)"/><polygon fill="url(#rEZmNssB_7oApR7P6zNh1c)" points="43 35 5 35 11 26 37 26 43 35"/><path fill="#586169" d="M31,16H17a1.99945,1.99945,0,0,1-2-2V9a1.99945,1.99945,0,0,1,2-2H31a1.99945,1.99945,0,0,1,2,2v5A1.99945,1.99945,0,0,1,31,16Z"/><rect width="7" height="3" x="23" y="10" fill="#50e6ff"/><path style="isolation:isolate" d="M42,33.5V40H27.19A10.19714,10.19714,0,0,1,27,38,10.99741,10.99741,0,0,1,37.67,27.01l.33.49Z" opacity=".05"/><path style="isolation:isolate" d="M42,33.5V40H27.69a10.93912,10.93912,0,0,1-.19-2A10.51152,10.51152,0,0,1,38,27.5Z" opacity=".07"/><path fill="url(#rEZmNssB_7oApR7P6zNh1d)" d="M48,38A10,10,0,1,1,38,28,10.00109,10.00109,0,0,1,48,38Z"/><path style="isolation:isolate" d="M38.01,44.537a6.75368,6.75368,0,0,1-4.603-1.781,6.83023,6.83023,0,0,1-1.026-8.709l-.279-.279a1.33911,1.33911,0,0,1,.946-2.286h3.034a1.48349,1.48349,0,0,1,1.481,1.481v3.034a1.3388,1.3388,0,0,1-2.267.966,2.87865,2.87865,0,0,0-.098,1.245,2.81908,2.81908,0,0,0,1.244,1.958,2.83723,2.83723,0,0,0,3.128,0,2.85723,2.85723,0,0,0,.623-4.216,1.36014,1.36014,0,0,1,.071-1.844l.857-.857a1.37283,1.37283,0,0,1,.966-.399,1.34234,1.34234,0,0,1,1.009.454,6.824,6.824,0,0,1-.489,9.455A6.74543,6.74543,0,0,1,38.01,44.537Z" opacity=".05"/><path style="isolation:isolate" d="M38.009,44.037a6.23625,6.23625,0,0,1-4.977-10.044l-.577-.578a.83937.83937,0,0,1,.592-1.433h3.034a.982.982,0,0,1,.981.981v3.034a.84225.84225,0,0,1-.842.84.83185.83185,0,0,1-.591-.247l-.495-.495a3.37752,3.37752,0,0,0-.432,2.184,3.345,3.345,0,0,0,6.621-.024,3.36151,3.36151,0,0,0-.745-2.626.8622.8622,0,0,1,.041-1.169l.857-.857a.871.871,0,0,1,.612-.253.84721.84721,0,0,1,.634.284,6.32218,6.32218,0,0,1-.454,8.758,6.24907,6.24907,0,0,1-4.259,1.645Z" opacity=".07"/><path fill="#fff" d="M42.35,33.964a.358.358,0,0,0-.519-.009l-.857.857a.36387.36387,0,0,0-.011.495,3.85083,3.85083,0,1,1-5.894.016l.914.914a.33915.33915,0,0,0,.579-.24V32.963a.48226.48226,0,0,0-.482-.482H33.046a.33937.33937,0,0,0-.24.579l.898.898a5.76764,5.76764,0,0,0,.38,8.063,5.77943,5.77943,0,0,0,8.266-8.057Z"/></svg>