<svg xmlns="http://www.w3.org/2000/svg" viewBox="0 0 48 48"><path fill="#50e6ff" d="M39,16v25c0,1.105-0.895,2-2,2H11c-1.105,0-2-0.895-2-2V7c0-1.105,0.895-2,2-2h17L39,16z"/><linearGradient id="vBQGPBl4ieB6sMdMQJ3Mwa" x1="28.529" x2="33.6" y1="-1513.472" y2="-1508.4" gradientTransform="matrix(1 0 0 -1 0 -1498)" gradientUnits="userSpaceOnUse"><stop offset="0" stop-color="#3079d6"/><stop offset="1" stop-color="#297cd2"/></linearGradient><path fill="url(#vBQGPBl4ieB6sMdMQJ3Mwa)" d="M28,5v9c0,1.105,0.895,2,2,2h9L28,5z"/><linearGradient id="vBQGPBl4ieB6sMdMQJ3Mwb" x1="13" x2="19.376" y1="25.848" y2="25.848" gradientUnits="userSpaceOnUse"><stop offset="0" stop-color="#3079d6"/><stop offset="1" stop-color="#297cd2"/></linearGradient><path fill="url(#vBQGPBl4ieB6sMdMQJ3Mwb)" d="M19.376,29.532h-1.665v-3H14.66v3H13v-7.368h1.66v2.939h3.052v-2.939h1.665V29.532z"/><linearGradient id="vBQGPBl4ieB6sMdMQJ3Mwc" x1="21.061" x2="27.596" y1="25.848" y2="25.848" gradientUnits="userSpaceOnUse"><stop offset="0" stop-color="#3079d6"/><stop offset="1" stop-color="#297cd2"/></linearGradient><path fill="url(#vBQGPBl4ieB6sMdMQJ3Mwc)" d="M21.061,29.532v-7.368h2.61c2.617,0,3.925,1.197,3.925,3.591 c0,1.147-0.357,2.064-1.071,2.749c-0.714,0.685-1.666,1.028-2.854,1.028H21.061z M22.721,23.516v4.67h0.822 c0.719,0,1.284-0.216,1.693-0.647c0.409-0.432,0.614-1.019,0.614-1.762c0-0.702-0.203-1.254-0.609-1.657 c-0.406-0.402-0.975-0.604-1.708-0.604H22.721z"/><linearGradient id="vBQGPBl4ieB6sMdMQJ3Mwd" x1="28.819" x2="35" y1="25.848" y2="25.848" gradientUnits="userSpaceOnUse"><stop offset="0" stop-color="#3079d6"/><stop offset="1" stop-color="#297cd2"/></linearGradient><path fill="url(#vBQGPBl4ieB6sMdMQJ3Mwd)" d="M35,29.532h-1.906l-1.146-1.896c-0.086-0.144-0.168-0.272-0.247-0.385 s-0.158-0.21-0.239-0.29s-0.164-0.142-0.252-0.185c-0.087-0.043-0.182-0.064-0.285-0.064h-0.447v2.821h-1.66v-7.368h2.631 c1.788,0,2.682,0.668,2.682,2.004c0,0.257-0.039,0.494-0.118,0.712c-0.079,0.218-0.19,0.414-0.334,0.588 c-0.144,0.175-0.318,0.325-0.521,0.452s-0.431,0.226-0.681,0.298v0.021c0.11,0.034,0.216,0.09,0.319,0.167s0.202,0.167,0.298,0.27 c0.096,0.103,0.188,0.213,0.275,0.331c0.087,0.118,0.167,0.234,0.239,0.347L35,29.532z M30.479,23.408v2.05h0.719 c0.356,0,0.642-0.103,0.858-0.308c0.219-0.209,0.329-0.468,0.329-0.776c0-0.644-0.385-0.966-1.156-0.966H30.479z"/></svg>