<svg xmlns="http://www.w3.org/2000/svg" viewBox="0 0 48 48"><path fill="#737b80" d="M10,10.643C10,10.289,10.289,10,10.643,10h26.714C37.711,10,38,10.289,38,10.643V19h3v-8.357	C41,8.634,39.366,7,37.357,7H10.643C8.634,7,7,8.634,7,10.643V19h3V10.643z"/><linearGradient id="IMMfZZuw~PJLHDqdA9dqOa" x1="24.01" x2="24.01" y1="504.132" y2="476.117" gradientTransform="matrix(1 0 0 -1 0 526)" gradientUnits="userSpaceOnUse"><stop offset="0" stop-color="#21ad64"/><stop offset="1" stop-color="#088242"/></linearGradient><path fill="url(#IMMfZZuw~PJLHDqdA9dqOa)" d="M43.61,20.26L43.2,23l-0.06,0.4l-2.35,15.73C40.62,40.21,39.7,41,38.61,41H9.39	c-1.09,0-2.01-0.79-2.18-1.87L4.88,23.4L4.82,23l-0.41-2.74C4.31,19.59,4.82,19,5.5,19h37.02C43.2,19,43.71,19.59,43.61,20.26z"/><g opacity=".05"><rect width="3" height="1" x="7" y="18"/><rect width="3" height="1" x="38" y="18"/></g><path fill="#33c481" d="M43.61,20.26c0.1-0.67-0.41-1.26-1.09-1.26H5.5c-0.68,0-1.19,0.59-1.09,1.26L4.82,23H43.2	L43.61,20.26z"/><path fill="#107c42" d="M20.5,39L20.5,39c-0.828,0-1.5-0.672-1.5-1.5v-11c0-0.828,0.672-1.5,1.5-1.5l0,0	c0.828,0,1.5,0.672,1.5,1.5v11C22,38.328,21.328,39,20.5,39z"/><path fill="#107c42" d="M13.5,39L13.5,39c-0.828,0-1.5-0.672-1.5-1.5v-11c0-0.828,0.672-1.5,1.5-1.5l0,0	c0.828,0,1.5,0.672,1.5,1.5v11C15,38.328,14.328,39,13.5,39z"/><path fill="#107c42" d="M27.5,39L27.5,39c-0.828,0-1.5-0.672-1.5-1.5v-11c0-0.828,0.672-1.5,1.5-1.5l0,0	c0.828,0,1.5,0.672,1.5,1.5v11C29,38.328,28.328,39,27.5,39z"/><path fill="#107c42" d="M34.5,39L34.5,39c-0.828,0-1.5-0.672-1.5-1.5v-11c0-0.828,0.672-1.5,1.5-1.5l0,0	c0.828,0,1.5,0.672,1.5,1.5v11C36,38.328,35.328,39,34.5,39z"/><path fill="#33c481" d="M30,11H18c-0.552,0-1-0.448-1-1V7c0-0.552,0.448-1,1-1h12c0.552,0,1,0.448,1,1v3	C31,10.552,30.552,11,30,11z"/><g opacity=".07"><rect width="3" height=".5" x="7" y="18.5"/><rect width="3" height=".5" x="38" y="18.5"/></g></svg>