<svg xmlns="http://www.w3.org/2000/svg" viewBox="0 0 48 48"><linearGradient id="wdkrvFjdLykG_24ZTAeWXa" x1="14.786" x2="33.076" y1="-841.187" y2="-859.477" gradientTransform="matrix(1 0 0 -1 0 -810)" gradientUnits="userSpaceOnUse"><stop offset="0" stop-color="#8795a1"/><stop offset="1" stop-color="#6d7882"/></linearGradient><path fill="url(#wdkrvFjdLykG_24ZTAeWXa)" d="M24,30.6c-8.8,0-16,4.9-16,10.3V42c0,1.1,0.9,2,2,2h0h28c1.1,0,2-0.9,2-2v0v-1.1C40,35.5,32.8,30.6,24,30.6z"/><path fill="#d6a121" d="M29,33c0,1.9-2.8,4-5,4s-5-2.1-5-4v-7h10V33z"/><linearGradient id="wdkrvFjdLykG_24ZTAeWXb" x1="32.917" x2="34.251" y1="-829.997" y2="-829.997" gradientTransform="matrix(1 0 0 -1 0 -810)" gradientUnits="userSpaceOnUse"><stop offset="0" stop-color="#c48f0c"/><stop offset=".251" stop-color="#d19b16"/><stop offset=".619" stop-color="#dca51f"/><stop offset="1" stop-color="#e0a922"/></linearGradient><path fill="url(#wdkrvFjdLykG_24ZTAeWXb)" d="M32.9,18h-0.5v4h0.7c0.5,0,0.9-0.3,1-0.7l0.3-1.7c0.1-0.8-0.5-1.5-1.3-1.6C33.1,18,33,18,32.9,18z"/><linearGradient id="wdkrvFjdLykG_24ZTAeWXc" x1="-5343.083" x2="-5341.749" y1="-829.997" y2="-829.997" gradientTransform="rotate(180 -2664 -405)" gradientUnits="userSpaceOnUse"><stop offset="0" stop-color="#c48f0c"/><stop offset=".251" stop-color="#d19b16"/><stop offset=".619" stop-color="#dca51f"/><stop offset="1" stop-color="#e0a922"/></linearGradient><path fill="url(#wdkrvFjdLykG_24ZTAeWXc)" d="M15.1,18h0.5v4h-0.7c-0.5,0-0.9-0.3-1-0.7l-0.3-1.7c-0.1-0.8,0.5-1.5,1.3-1.6C14.9,18,15,18,15.1,18z"/><radialGradient id="wdkrvFjdLykG_24ZTAeWXd" cx="341.496" cy="-1063.815" r="12.224" gradientTransform="matrix(.8816 0 0 -.8816 -277.063 -919.16)" gradientUnits="userSpaceOnUse"><stop offset="0" stop-color="#ffcf54"/><stop offset=".261" stop-color="#fdcb4d"/><stop offset=".639" stop-color="#f7c13a"/><stop offset="1" stop-color="#f0b421"/></radialGradient><path fill="url(#wdkrvFjdLykG_24ZTAeWXd)" d="M24,6.4c-4.4,0-9,0.7-9,10.3v6.7c0,3.4,5.4,7.6,9,7.6s9-4.2,9-7.6v-6.7C33,7.1,28.4,6.4,24,6.4z"/><radialGradient id="wdkrvFjdLykG_24ZTAeWXe" cx="331.794" cy="-1050.16" r="28.915" gradientTransform="matrix(.8816 0 0 -.8816 -277.063 -919.16)" gradientUnits="userSpaceOnUse"><stop offset="0" stop-color="#c26715"/><stop offset=".508" stop-color="#b85515"/><stop offset="1" stop-color="#ad3f16"/></radialGradient><path fill="url(#wdkrvFjdLykG_24ZTAeWXe)" d="M24,5.5c-4.4,0-5,1.6-5,1.6c-1.8,0.3-5,2.9-5,5.8c0,1.7,0.3,2.9,1,7c0.5-6.5,2.2-9,4-9c1.3,0,2.3,1,5,1 c2.3,0,2.9-1,5-1c3,0,4,8,4,9c0.5-2.3,0.9-4.6,1-7C34,9.6,30.2,5.5,24,5.5z"/><radialGradient id="wdkrvFjdLykG_24ZTAeWXf" cx="461.887" cy="-1052.096" r="33.398" gradientTransform="matrix(.8431 0 0 -.8816 -366.85 -919.16)" gradientUnits="userSpaceOnUse"><stop offset="0" stop-color="#c26715"/><stop offset=".508" stop-color="#b85515"/><stop offset="1" stop-color="#ad3f16"/></radialGradient><path fill="url(#wdkrvFjdLykG_24ZTAeWXf)" d="M24.2,5C20.1,5,19,7.2,19,7.2c0,0.8,0.2,1.5,0.5,2.2c0,0,0.8,1.6,5.1,1.6c2.6,0,6.4-1.6,6.4-6H24.2z"/><path d="M27.7,44h7.7l4.4-4.4c-0.4-1.9-1.7-3.7-3.6-5.2l-8.1,8.1L27.7,44z" opacity=".05"/><path d="M36.6,34.7l-7.9,7.9L28.5,43l0,0h0l-0.3,1h6.4l5-5C39.2,37.4,38.2,36,36.6,34.7z" opacity=".07"/><path fill="#c94f60" d="M47.8,29.1l-1.9-1.9c-0.3-0.3-0.8-0.3-1.1,0l-0.9,0.9l3,3l0.9-0.9C48.1,29.9,48.1,29.4,47.8,29.1"/><path fill="#f0f0f0" d="M29,43l-1,4l4-1l0.4-3.5L29,43z"/><path fill="#edbe00" d="M44.3,33.6L32,46l-3-3l12.3-12.3L44.3,33.6z"/><linearGradient id="wdkrvFjdLykG_24ZTAeWXg" x1="44.112" x2="44.112" y1="1246.312" y2="1251.801" gradientTransform="translate(0 -1218)" gradientUnits="userSpaceOnUse"><stop offset="0" stop-color="#dedede"/><stop offset="1" stop-color="#d6d6d6"/></linearGradient><path fill="url(#wdkrvFjdLykG_24ZTAeWXg)" d="M41.3,30.7l2.5-2.5l3,3l-2.5,2.5L41.3,30.7z"/><path fill="#787878" d="M28.5,45L28,47l2-0.5L28.5,45z"/></svg>