<svg xmlns="http://www.w3.org/2000/svg" viewBox="0 0 48 48"><path fill="#cdd2d6" d="M10,26.984H7v-7.5c0-0.828,0.672-1.5,1.5-1.5h0c0.828,0,1.5,0.672,1.5,1.5V26.984z"/><path fill="#cdd2d6" d="M13,26.984h-3v-5.5c0-0.828,0.672-1.5,1.5-1.5h0c0.828,0,1.5,0.672,1.5,1.5V26.984z"/><path fill="#cdd2d6" d="M16,26.984h-3v-3.5c0-0.828,0.672-1.5,1.5-1.5h0c0.828,0,1.5,0.672,1.5,1.5V26.984z"/><path fill="#bd8215" d="M38.5,13.984v4l3.257-1.526c0.324-0.152,0.324-0.797,0-0.949L38.5,13.984z"/><linearGradient id="C5r92QYJM43rAHWVwyCMXa" x1="34.5" x2="34.5" y1="4.045" y2="11.251" gradientUnits="userSpaceOnUse"><stop offset="0" stop-color="#f44f5a"/><stop offset=".443" stop-color="#ee3d4a"/><stop offset="1" stop-color="#e52030"/></linearGradient><path fill="url(#C5r92QYJM43rAHWVwyCMXa)" d="M36.5,4.984c-0.693,0-1.27,0.472-1.442,1.11c-0.173-0.069-0.36-0.11-0.558-0.11	c-0.693,0-1.27,0.472-1.442,1.11c-0.173-0.069-0.36-0.11-0.558-0.11c-0.828,0-1.5,0.672-1.5,1.5v3.5h2h1h1h1h2v-5.5	C38,5.655,37.328,4.984,36.5,4.984z"/><path fill="#cdd2d6" d="M38.496,12.953c-0.323-2.587-2.787-4.437-5.48-3.865c-1.901,0.404-3.286,2.055-3.527,3.983	c-0.339,2.709-0.945,7.564-1.27,10.16c-0.125,1.001-0.976,1.752-1.985,1.752H7v2.657C7,36.676,14.324,44,23.359,44h0.282	C32.676,44,40,36.676,40,27.641v0c0-1.77-0.11-3.537-0.33-5.293L38.496,12.953z"/><linearGradient id="C5r92QYJM43rAHWVwyCMXb" x1="35" x2="37" y1="14.984" y2="14.984" gradientUnits="userSpaceOnUse"><stop offset="0" stop-color="#4c4c4c"/><stop offset="1" stop-color="#343434"/></linearGradient><circle cx="36" cy="14.984" r="1" fill="url(#C5r92QYJM43rAHWVwyCMXb)"/><path d="M27.055,26.984c3.003,0,4.921,3.182,3.55,5.853c-1.882,3.668-5.478,6.147-9.605,6.147 c-5.737,0-10.448-4.791-10.955-10.906c-0.049-0.587,0.407-1.094,0.995-1.094C13.862,26.984,21.798,26.984,27.055,26.984 M27.055,25.984H11.041c-0.556,0-1.09,0.235-1.467,0.644c-0.38,0.413-0.572,0.972-0.525,1.533 C9.607,34.901,14.745,39.984,21,39.984c4.356,0,8.377-2.563,10.495-6.69c0.808-1.574,0.741-3.414-0.18-4.921 C30.401,26.877,28.808,25.984,27.055,25.984L27.055,25.984z" opacity=".05"/><path d="M27.055,26.984c3.003,0,4.921,3.182,3.55,5.853c-1.882,3.668-5.478,6.147-9.605,6.147 c-5.737,0-10.448-4.791-10.955-10.906c-0.049-0.587,0.407-1.094,0.995-1.094C13.862,26.984,21.798,26.984,27.055,26.984 M27.055,26.484H11.041c-0.416,0-0.817,0.176-1.099,0.482c-0.286,0.31-0.43,0.731-0.395,1.153 C10.084,34.598,15.008,39.484,21,39.484c4.167,0,8.018-2.459,10.05-6.418c0.728-1.418,0.667-3.075-0.162-4.432 C30.066,27.288,28.633,26.484,27.055,26.484L27.055,26.484z" opacity=".07"/><linearGradient id="C5r92QYJM43rAHWVwyCMXc" x1="3.409" x2="41.257" y1="32.984" y2="32.984" gradientUnits="userSpaceOnUse"><stop offset="0" stop-color="#f9f9f9"/><stop offset="1" stop-color="#c2c8cc"/></linearGradient><path fill="url(#C5r92QYJM43rAHWVwyCMXc)" d="M21,38.984c4.127,0,7.723-2.479,9.605-6.147c1.371-2.672-0.547-5.853-3.55-5.853 c-5.257,0-13.193,0-16.014,0c-0.589,0-1.044,0.508-0.995,1.094C10.552,34.193,15.263,38.984,21,38.984z"/></svg>