<svg xmlns="http://www.w3.org/2000/svg" viewBox="0 0 48 48"><linearGradient id="5Uewsdb8TDOqu0zwH5Ezea" x1="23" x2="23" y1="26.25" y2="54.257" gradientUnits="userSpaceOnUse"><stop offset="0" stop-color="#fed100"/><stop offset="1" stop-color="#e38101"/></linearGradient><path fill="url(#5Uewsdb8TDOqu0zwH5Ezea)" d="M5.113,41.663L18.27,8c12.297,0.946,19.865,12.297,22.703,21.757L6.331,42.928	C5.54,43.248,4.763,42.441,5.113,41.663z"/><path d="M38.1,30.62c-2.56-8.54-9.35-18.81-20.06-19.63c-0.3-0.02-0.59-0.09-0.86-0.2L17,11.26l-0.19,0.47 c0.37,0.14,0.75,0.23,1.15,0.26c10.21,0.78,16.71,10.68,19.18,18.92c0.03,0.09,0.06,0.18,0.1,0.27L37.7,31l0.48-0.18 C38.14,30.76,38.12,30.69,38.1,30.62z" opacity=".05"/><path d="M38.1,30.62c-2.56-8.54-9.35-18.81-20.06-19.63c-0.3-0.02-0.59-0.09-0.86-0.2L17,11.26c0.31,0.13,0.65,0.2,1,0.23 c10.46,0.8,17.1,10.88,19.62,19.27c0.02,0.08,0.05,0.16,0.08,0.24l0.48-0.18C38.14,30.76,38.12,30.69,38.1,30.62z" opacity=".07"/><linearGradient id="5Uewsdb8TDOqu0zwH5Ezeb" x1="11.23" x2="47.792" y1="-2.647" y2="33.916" gradientUnits="userSpaceOnUse"><stop offset="0" stop-color="#d4943b"/><stop offset="1" stop-color="#c2620e"/><stop offset="1" stop-color="#c2620e"/></linearGradient><path fill="url(#5Uewsdb8TDOqu0zwH5Ezeb)" d="M40.972,32.758c-1.291,0-2.482-0.839-2.873-2.139c-2.562-8.54-9.353-18.804-20.059-19.627	c-1.652-0.127-2.888-1.569-2.761-3.221c0.127-1.652,1.582-2.891,3.221-2.761c13.736,1.057,22.239,13.527,25.346,23.886	c0.476,1.587-0.424,3.26-2.012,3.736C41.548,32.716,41.257,32.758,40.972,32.758z"/><linearGradient id="5Uewsdb8TDOqu0zwH5Ezec" x1="16.065" x2="16.065" y1="21.625" y2="53.953" gradientUnits="userSpaceOnUse"><stop offset="0" stop-color="#f44f5a"/><stop offset=".443" stop-color="#ee3d4a"/><stop offset="1" stop-color="#e52030"/></linearGradient><path fill="url(#5Uewsdb8TDOqu0zwH5Ezec)" d="M20,18c0,3.31-2.69,6-6,6c-0.65,0-1.28-0.1-1.87-0.3l4.36-11.16C18.56,13.49,20,15.58,20,18z"/><linearGradient id="5Uewsdb8TDOqu0zwH5Ezed" x1="24.775" x2="24.775" y1="21.625" y2="53.953" gradientUnits="userSpaceOnUse"><stop offset="0" stop-color="#f44f5a"/><stop offset=".443" stop-color="#ee3d4a"/><stop offset="1" stop-color="#e52030"/></linearGradient><path fill="url(#5Uewsdb8TDOqu0zwH5Ezed)" d="M30.55,33.72l-11.21,4.26C19.12,37.36,19,36.69,19,36c0-3.31,2.69-6,6-6	C27.51,30,29.66,31.54,30.55,33.72z"/><linearGradient id="5Uewsdb8TDOqu0zwH5Ezee" x1="9.512" x2="9.512" y1="21.625" y2="53.953" gradientUnits="userSpaceOnUse"><stop offset="0" stop-color="#f44f5a"/><stop offset=".443" stop-color="#ee3d4a"/><stop offset="1" stop-color="#e52030"/></linearGradient><path fill="url(#5Uewsdb8TDOqu0zwH5Ezee)" d="M14,39c0,0.36-0.03,0.71-0.1,1.05l-7.57,2.88c-0.79,0.32-1.57-0.49-1.22-1.27l3.38-8.64	C11.57,33.27,14,35.86,14,39z"/><path fill="#33c481" d="M18.5,29c-2.167,0-3.167-2-3.167-2H22C22,27,20.667,29,18.5,29z"/><path fill="#21a366" d="M15.333,27c0,0,0.833-2,3.167-2s3.5,2,3.5,2H15.333z"/><path fill="#33c481" d="M31.991,27.86c1.532-1.532,0.825-3.653,0.825-3.653l-4.714,4.714 C28.102,28.92,30.459,29.392,31.991,27.86z"/><path fill="#21a366" d="M32.816,24.206c0,0-2.003-0.825-3.653,0.825c-1.65,1.65-1.061,3.889-1.061,3.889L32.816,24.206z"/><g><path fill="#33c481" d="M23.009,20.871c-1.532-1.532-0.825-3.653-0.825-3.653l4.714,4.714 C26.898,21.932,24.541,22.403,23.009,20.871z"/><path fill="#21a366" d="M22.184,17.218c0,0,2.003-0.825,3.653,0.825c1.65,1.65,1.061,3.889,1.061,3.889L22.184,17.218z"/></g></svg>