<svg xmlns="http://www.w3.org/2000/svg" viewBox="0 0 48 48"><rect width="2" height="3.5" x="30" y="6.5" fill="#0078d4"/><rect width="2" height="3.5" x="25" y="6.5" fill="#0078d4"/><rect width="2" height="3.5" x="20" y="6.5" fill="#0078d4"/><path fill="#0078d4" d="M36,11H15c-0.553,0-1-0.447-1-1V6c0-0.553,0.447-1,1-1h21c0.553,0,1,0.447,1,1v4	C37,10.553,36.553,11,36,11z M16,9h19V7H16V9z"/><rect width="28" height="12" x="10" y="31" fill="#0078d4"/><path fill="#199be2" d="M10,11v20h28V11H10z"/><rect width="4" height="4" x="14" y="35" fill="#005094"/><rect width="4" height="4" x="30" y="35" fill="#005094"/><rect width="6" height="8" x="21" y="35" fill="#005094"/><rect width="4" height="4" x="14" y="23" fill="#0d62ab"/><rect width="4" height="4" x="22" y="23" fill="#0d62ab"/><rect width="4" height="4" x="30" y="23" fill="#0d62ab"/><rect width="4" height="4" x="14" y="15" fill="#0d62ab"/><rect width="4" height="4" x="22" y="15" fill="#0d62ab"/><rect width="4" height="4" x="30" y="15" fill="#0d62ab"/><path fill="#35c1f1" d="M38,11H10c-0.553,0-1-0.448-1-1s0.447-1,1-1h28c0.553,0,1,0.448,1,1S38.553,11,38,11z"/><rect width="6" height="6" x="11" y="3" fill="#199be2"/><path fill="#005094" d="M17.4,5.8L14,3.25L10.6,5.8L9.4,4.2l4-3c0.355-0.268,0.844-0.268,1.199,0l4,3L17.4,5.8z"/><rect width="6" height="1" x="11" y="8" opacity=".05"/><rect width="6" height=".5" x="11" y="8.5" opacity=".07"/></svg>