<svg xmlns="http://www.w3.org/2000/svg" viewBox="0 0 48 48"><linearGradient id="rNOGe2a9I393B7CbZxDnoa" x1="19.386" x2="26.616" y1="-429.716" y2="-469.415" gradientTransform="matrix(1 0 0 -1 0 -426)" gradientUnits="userSpaceOnUse"><stop offset="0" stop-color="#f44f5a"/><stop offset=".443" stop-color="#ee3d4a"/><stop offset="1" stop-color="#e52030"/></linearGradient><path fill="url(#rNOGe2a9I393B7CbZxDnoa)" d="M21.059,4.683c-0.016-0.056-0.025-0.155-0.025-0.228c0-0.546,0.443-0.989,0.989-0.989	c0.233,0,0.395,0.087,0.459,0.112c1.209,0.472,9.511,4.387,7.591,15.706c2.788-1.68,1.791-4.943,2.703-4.943	c0.342,0,0.483,0.128,0.692,0.428c3.05,4.353,5.36,9.544,5.36,14.401C38.829,37.361,32.19,44,24,44	c-9.006,0-14.829-7.586-14.829-14.829C9.171,17.123,23.37,14.898,21.059,4.683z"/><radialGradient id="rNOGe2a9I393B7CbZxDnob" cx="24" cy="-455.99" r="11" gradientTransform="matrix(1 0 0 -1 0 -426)" gradientUnits="userSpaceOnUse"><stop offset="0"/><stop offset="1" stop-opacity="0"/></radialGradient><circle cx="24" cy="29.99" r="11" fill="url(#rNOGe2a9I393B7CbZxDnob)"/><radialGradient id="rNOGe2a9I393B7CbZxDnoc" cx="23.935" cy="-446.223" r="22.284" gradientTransform="matrix(1 0 0 -1 0 -426)" gradientUnits="userSpaceOnUse"><stop offset="0" stop-color="#fafafb"/><stop offset="1" stop-color="#c8cdd1"/></radialGradient><circle cx="24" cy="29.99" r="10" fill="url(#rNOGe2a9I393B7CbZxDnoc)"/><path fill="#45494d" d="M24,30.49c-0.128,0-0.256-0.049-0.354-0.146c-0.195-0.195-0.195-0.512,0-0.707l5.091-5.091	c0.195-0.195,0.512-0.195,0.707,0s0.195,0.512,0,0.707l-5.091,5.091C24.256,30.441,24.128,30.49,24,30.49z"/><path fill="#45494d" d="M23.999,30.74c-0.112,0-0.227-0.025-0.334-0.079l-6-3c-0.371-0.186-0.521-0.636-0.336-1.006	c0.186-0.371,0.636-0.521,1.006-0.336l6,3c0.371,0.186,0.521,0.636,0.336,1.006C24.539,30.589,24.274,30.74,23.999,30.74z"/><circle cx="24" cy="29.99" r="1.5" fill="#1e2021"/></svg>