<svg xmlns="http://www.w3.org/2000/svg" data-name="Слой 1" viewBox="0 0 48 48"><defs><linearGradient id="4s279H_A8eqUT0weLTGwka" x1="21.175" x2="30.257" y1=".512" y2="76.021" gradientTransform="rotate(-180 24 24)" gradientUnits="userSpaceOnUse"><stop offset="0" stop-color="#a8e2f7"/><stop offset="1" stop-color="#47c1ff"/></linearGradient><linearGradient id="4s279H_A8eqUT0weLTGwkb" x1="17" x2="31" y1="37" y2="37" data-name="Безымянный градиент 155" gradientTransform="rotate(-180 24 37)" gradientUnits="userSpaceOnUse"><stop offset="0" stop-color="#3079d6"/><stop offset="1" stop-color="#297cd2"/></linearGradient></defs><rect width="28" height="42" x="10" y="3" fill="url(#4s279H_A8eqUT0weLTGwka)" rx="2" transform="rotate(180 24 24)"/><path fill="#35c1f1" d="M17,8H31a0,0,0,0,1,0,0V23a2,2,0,0,1-2,2H19a2,2,0,0,1-2-2V8a0,0,0,0,1,0,0Z" transform="rotate(180 24 16.5)"/><path fill="url(#4s279H_A8eqUT0weLTGwkb)" d="M19,34H29a2,2,0,0,1,2,2v4a0,0,0,0,1,0,0H17a0,0,0,0,1,0,0V36A2,2,0,0,1,19,34Z" transform="rotate(180 24 37)"/><path fill="#42a4ed" d="M19,24H29a2,2,0,0,1,2,2V37a0,0,0,0,1,0,0H17a0,0,0,0,1,0,0V26A2,2,0,0,1,19,24Z" transform="rotate(180 24 30.5)"/><path d="M29,8a2,2,0,0,1,2,2V38a2,2,0,0,1-2,2H19a2,2,0,0,1-2-2V10a2,2,0,0,1,2-2H29m0-1H19a3.00337,3.00337,0,0,0-3,3V38a3.00337,3.00337,0,0,0,3,3H29a3.00337,3.00337,0,0,0,3-3V10a3.00337,3.00337,0,0,0-3-3Z" opacity=".05"/><path d="M29,8a2,2,0,0,1,2,2V38a2,2,0,0,1-2,2H19a2,2,0,0,1-2-2V10a2,2,0,0,1,2-2H29m0-.5H19A2.50284,2.50284,0,0,0,16.5,10V38A2.50284,2.50284,0,0,0,19,40.5H29A2.50284,2.50284,0,0,0,31.5,38V10A2.50284,2.50284,0,0,0,29,7.5Z" opacity=".07"/></svg>