<svg xmlns="http://www.w3.org/2000/svg" viewBox="0 0 48 48"><linearGradient id="k8HeVeZs4GXDclbdTbsiHa" x1="24" x2="24" y1="193.824" y2="226.929" gradientTransform="matrix(1 0 0 -1 0 254)" gradientUnits="userSpaceOnUse"><stop offset="0" stop-color="#899198"/><stop offset="1" stop-color="#787e85"/></linearGradient><path fill="url(#k8HeVeZs4GXDclbdTbsiHa)" d="M6,34v5c0,1.657,1.338,3,2.99,3h30.02c1.651,0,2.99-1.343,2.99-3v-5H6z"/><linearGradient id="k8HeVeZs4GXDclbdTbsiHb" x1="24" x2="24" y1="244.667" y2="208.929" gradientTransform="matrix(1 0 0 -1 0 254)" gradientUnits="userSpaceOnUse"><stop offset="0" stop-color="#c3cdd9"/><stop offset="1" stop-color="#9fa7b0"/></linearGradient><path fill="url(#k8HeVeZs4GXDclbdTbsiHb)" d="M42,34c-0.125,1.657-1.461,3-3.109,3H8.985C7.336,37,6,35.657,6,34V9c0-1.657,1.336-3,2.985-3	H38.89c1.648,0,2.984,1.343,3.109,3L42,34L42,34z"/><path fill="#575c61" d="M19.821,28.082v-2.505c0.909,0.557,1.877,0.835,2.903,0.835c0.773,0,1.378-0.184,1.814-0.552 c0.436-0.368,0.654-0.867,0.654-1.498c0-1.317-0.932-1.976-2.793-1.976c-0.687,0-1.479,0.053-2.375,0.158l0.501-7.422h7.042v2.394 h-4.807l-0.186,2.663c0.477-0.037,0.888-0.056,1.234-0.056c1.367,0,2.437,0.359,3.21,1.076c0.773,0.718,1.159,1.683,1.159,2.895 c0,1.342-0.46,2.438-1.382,3.289c-0.922,0.851-2.171,1.276-3.748,1.276C21.769,28.657,20.693,28.465,19.821,28.082z"/></svg>