<svg xmlns="http://www.w3.org/2000/svg" viewBox="0 0 48 48"><path fill="#35c1f1" d="M18,6c0-0.532,0-1.228,0-2c0-1.657-1.343-3-3-3s-3,1.343-3,3c0,0.772,0,1.468,0,2H8C6.9,6,6,6.9,6,8 v4h2c1.66,0,3,1.34,3,3c0,1.66-1.34,3-3,3H6v6h18V6H18z"/><path fill="#cf1928" d="M18,24c0-0.532,0-1.228,0-2c0-1.657-1.343-3-3-3s-3,1.343-3,3c0,0.772,0,1.468,0,2H6v6 c-0.532,0-1.228,0-2,0c-1.657,0-3,1.343-3,3s1.343,3,3,3c0.772,0,1.468,0,2,0v4c0,1.105,0.895,2,2,2h16V24H18z"/><path fill="#fad500" d="M40,30h2v-6H24v6c-0.532,0-1.228,0-2,0c-1.657,0-3,1.343-3,3s1.343,3,3,3c0.772,0,1.468,0,2,0v6h6 c0,0.532,0,1.228,0,2c0,1.657,1.343,3,3,3s3-1.343,3-3c0-0.772,0-1.468,0-2h4c1.1,0,2-0.9,2-2v-4h-2c-1.66,0-3-1.34-3-3 C37,31.34,38.34,30,40,30z"/><path fill="#0d62ab" d="M44,12c-0.772,0-1.468,0-2,0V8c0-1.105-0.895-2-2-2H24v18h6c0,0.532,0,1.228,0,2 c0,1.657,1.343,3,3,3s3-1.343,3-3c0-0.772,0-1.468,0-2h6v-6c0.532,0,1.228,0,2,0c1.657,0,3-1.343,3-3S45.657,12,44,12z"/><path fill="#35c1f1" d="M26,12c-1.657,0-3,0-3,0v6c0,0,1.343,0,3,0s3-1.343,3-3S27.657,12,26,12z"/></svg>