<svg xmlns="http://www.w3.org/2000/svg" viewBox="0 0 48 48"><linearGradient id="vLYLUfCiu9yD0Dd67CoOOa" x1="16.079" x2="30.517" y1="4.462" y2="40.076" gradientUnits="userSpaceOnUse"><stop offset="0" stop-color="#0d61a9"/><stop offset="1" stop-color="#16528c"/></linearGradient><path fill="url(#vLYLUfCiu9yD0Dd67CoOOa)" d="M40,42H8c-1.105,0-2-0.895-2-2V8c0-1.105,0.895-2,2-2h32c1.105,0,2,0.895,2,2v32	C42,41.105,41.105,42,40,42z"/><path fill="#199be2" d="M25,6.5v1C25,7.776,25.224,8,25.5,8h3C28.776,8,29,7.776,29,7.5v-1C29,6.224,28.776,6,28.5,6h-3 C25.224,6,25,6.224,25,6.5z"/><path fill="#199be2" d="M8,34.5v-3C8,31.224,7.776,31,7.5,31h-1C6.224,31,6,31.224,6,31.5v3C6,34.776,6.224,35,6.5,35h1 C7.776,35,8,34.776,8,34.5z"/><path fill="#199be2" d="M19.5,8h3C22.776,8,23,7.776,23,7.5v-1C23,6.224,22.776,6,22.5,6h-3C19.224,6,19,6.224,19,6.5v1 C19,7.776,19.224,8,19.5,8z"/><path fill="#199be2" d="M17,41.5v-1c0-0.276-0.224-0.5-0.5-0.5h-3c-0.276,0-0.5,0.224-0.5,0.5v1c0,0.276,0.224,0.5,0.5,0.5 h3C16.776,42,17,41.776,17,41.5z"/><path fill="#199be2" d="M13.5,8h3C16.776,8,17,7.776,17,7.5v-1C17,6.224,16.776,6,16.5,6h-3C13.224,6,13,6.224,13,6.5v1 C13,7.776,13.224,8,13.5,8z"/><path fill="#199be2" d="M6.5,17h1C7.776,17,8,16.776,8,16.5v-3C8,13.224,7.776,13,7.5,13h-1C6.224,13,6,13.224,6,13.5v3 C6,16.776,6.224,17,6.5,17z"/><path fill="#199be2" d="M37.5,8H40l0,2.5c0,0.276,0.224,0.5,0.5,0.5h1c0.276,0,0.5-0.224,0.5-0.5V8c0-1.105-0.895-2-2-2 h-2.5C37.224,6,37,6.224,37,6.5v1C37,7.776,37.224,8,37.5,8z"/><path fill="#199be2" d="M8,28.5v-3C8,25.224,7.776,25,7.5,25h-1C6.224,25,6,25.224,6,25.5v3C6,28.776,6.224,29,6.5,29h1 C7.776,29,8,28.776,8,28.5z"/><path fill="#199be2" d="M22.5,40h-3c-0.276,0-0.5,0.224-0.5,0.5v1c0,0.276,0.224,0.5,0.5,0.5h3c0.276,0,0.5-0.224,0.5-0.5 v-1C23,40.224,22.776,40,22.5,40z"/><path fill="#199be2" d="M8,22.5v-3C8,19.224,7.776,19,7.5,19h-1C6.224,19,6,19.224,6,19.5v3C6,22.776,6.224,23,6.5,23h1 C7.776,23,8,22.776,8,22.5z"/><path fill="#199be2" d="M40.001,19.5l0,3c0,0.276,0.224,0.5,0.5,0.5H41.5c0.276,0,0.5-0.224,0.5-0.5v-3 c0-0.276-0.224-0.5-0.5-0.5h-0.999C40.224,19,40,19.224,40.001,19.5z"/><path fill="#199be2" d="M10.5,40H8v-2.5C8,37.224,7.776,37,7.5,37h-1C6.224,37,6,37.224,6,37.5V40c0,1.105,0.895,2,2,2h2.5 c0.276,0,0.5-0.224,0.5-0.5v-1C11,40.224,10.776,40,10.5,40z"/><path fill="#199be2" d="M8,10.5V8h2.5C10.776,8,11,7.776,11,7.5v-1C11,6.224,10.776,6,10.5,6H8C6.895,6,6,6.895,6,8v2.5 C6,10.776,6.224,11,6.5,11h1C7.776,11,8,10.776,8,10.5z"/><path fill="#199be2" d="M28.5,40h-3c-0.276,0-0.5,0.224-0.5,0.5v1c0,0.276,0.224,0.5,0.5,0.5h3c0.276,0,0.5-0.224,0.5-0.5 v-1C29,40.224,28.776,40,28.5,40z"/><path fill="#199be2" d="M40.001,37.5l0,2.5H37.5c-0.276,0-0.5,0.224-0.5,0.5v1c0,0.276,0.224,0.5,0.5,0.5H40 c1.105,0,2-0.895,2-2v-2.5c0-0.276-0.224-0.5-0.5-0.5h-0.999C40.225,37,40.001,37.224,40.001,37.5z"/><path fill="#199be2" d="M40,13.5l0,3c0,0.276,0.224,0.5,0.5,0.5h1c0.276,0,0.5-0.224,0.5-0.5v-3c0-0.276-0.224-0.5-0.5-0.5 h-1C40.224,13,40,13.224,40,13.5z"/><path fill="#199be2" d="M31,6.5v1C31,7.776,31.224,8,31.5,8h3C34.776,8,35,7.776,35,7.5v-1C35,6.224,34.776,6,34.5,6h-3 C31.224,6,31,6.224,31,6.5z"/><path fill="#199be2" d="M34.5,40h-3c-0.276,0-0.5,0.224-0.5,0.5v1c0,0.276,0.224,0.5,0.5,0.5h3c0.276,0,0.5-0.224,0.5-0.5 v-1C35,40.224,34.776,40,34.5,40z"/><path fill="#199be2" d="M40.001,25.5l0,3c0,0.276,0.224,0.5,0.5,0.5H41.5c0.276,0,0.5-0.224,0.5-0.5v-3 c0-0.276-0.224-0.5-0.5-0.5h-0.999C40.225,25,40.001,25.224,40.001,25.5z"/><path fill="#199be2" d="M41.5,31h-0.999c-0.276,0-0.5,0.224-0.5,0.5l0,3c0,0.276,0.224,0.5,0.5,0.5H41.5 c0.276,0,0.5-0.224,0.5-0.5v-3C42,31.224,41.776,31,41.5,31z"/><linearGradient id="vLYLUfCiu9yD0Dd67CoOOb" x1="24" x2="24" y1="15.273" y2="33.643" gradientUnits="userSpaceOnUse"><stop offset=".9" stop-color="#8d9ca8"/><stop offset=".917" stop-color="#727980"/></linearGradient><path fill="url(#vLYLUfCiu9yD0Dd67CoOOb)" d="M28.3,16.625l-1-1.249C27.11,15.138,26.823,15,26.519,15h-4.039	c-0.304,0-0.591,0.138-0.781,0.375l-1,1.249C20.51,16.862,20.223,17,19.919,17H14c-0.552,0-1,0.448-1,1v14c0,0.552,0.448,1,1,1h20	c0.552,0,1-0.448,1-1V18c0-0.552-0.448-1-1-1h-4.919C28.777,17,28.49,16.862,28.3,16.625z"/><radialGradient id="vLYLUfCiu9yD0Dd67CoOOc" cx="24" cy="25" r="7" gradientUnits="userSpaceOnUse"><stop offset=".786" stop-opacity=".2"/><stop offset="1" stop-opacity="0"/></radialGradient><circle cx="24" cy="25" r="7" fill="url(#vLYLUfCiu9yD0Dd67CoOOc)"/><circle cx="24" cy="25" r="6" fill="#fff"/><radialGradient id="vLYLUfCiu9yD0Dd67CoOOd" cx="21.25" cy="22.277" r="8.259" gradientUnits="userSpaceOnUse"><stop offset="0" stop-color="#bd8af5"/><stop offset=".137" stop-color="#b88bf5"/><stop offset=".309" stop-color="#a88ff3"/><stop offset=".499" stop-color="#8f96f2"/><stop offset=".702" stop-color="#6b9eef"/><stop offset=".913" stop-color="#3eaaec"/><stop offset="1" stop-color="#29afea"/></radialGradient><circle cx="24" cy="25" r="4" fill="url(#vLYLUfCiu9yD0Dd67CoOOd)"/><circle cx="32" cy="20" r="1" fill="#eef2f3"/><path fill="#50e6ff" d="M18.5,17H15v-0.5c0-0.276,0.224-0.5,0.5-0.5H18c0.276,0,0.5,0.224,0.5,0.5V17z"/></svg>