<svg xmlns="http://www.w3.org/2000/svg" id="Layer_1" x="0" y="0" version="1.1" viewBox="0 0 48 48" xml:space="preserve"><linearGradient id="SVGID_1_" x1="21.516" x2="45.592" y1="1049.638" y2="1085.673" gradientTransform="translate(0 -1032)" gradientUnits="userSpaceOnUse"><stop offset="0" stop-color="#5059c9"/><stop offset=".999" stop-color="#4750b3"/></linearGradient><path fill="url(#SVGID_1_)" d="M9,26l36-14.3V38c0,1.1-0.9,2-2,2H9V26z"/><linearGradient id="SVGID_2_" x1="1.408" x2="36.331" y1="1056.41" y2="1078.164" gradientTransform="translate(0 -1032)" gradientUnits="userSpaceOnUse"><stop offset="0" stop-color="#5961c3"/><stop offset="1" stop-color="#3a41ac"/></linearGradient><path fill="url(#SVGID_2_)" d="M3,11.7V38c0,1.1,0.9,2,2,2h38c0.5,0,0.9-0.2,1.3-0.5L3,11.7z"/><path d="M3,11h42v1.7L27.7,26.1c-2.2,1.7-5.2,1.7-7.4,0L3,12.7V11z" opacity=".05"/><path d="M42.2,39.1c0.7-0.7,1.3-1.4,1.5-2.2c0.5-0.2,0.9-0.7,1-1.3l0.2-1.3c0.1-0.5-0.1-1.1-0.4-1.5	c0.3-1.1,0.4-2.1,0.4-2.8c0-1.9-0.7-3.4-2-4.5c0-0.2,0-0.3,0-0.5v-1h-5c-2,0-3,0.5-3.5,1c-1.7,0.2-3.5,1.6-3.5,5	c0,0.8,0.1,1.7,0.4,2.8c-0.3,0.4-0.4,1-0.4,1.5l0.2,1.3c0.1,0.6,0.5,1.1,1,1.3c0.3,0.7,0.8,1.5,1.5,2.2c-0.8,0.3-1.6,0.6-2.3,0.9H43	c0.1,0,0.3,0,0.4,0c0.1,0,0.2,0,0.2-0.1c0,0,0.1,0,0.1,0c0.1,0,0.2-0.1,0.3-0.1C43.4,39.5,42.9,39.2,42.2,39.1z" opacity=".05"/><path d="M32.6,40H43c0.1,0,0.2,0,0.3,0c-0.6-0.2-1.2-0.4-1.8-0.6V39c1-0.8,1.6-1.7,1.9-2.5c0.5-0.1,0.8-0.5,0.9-1	l0.2-1.3c0.1-0.5-0.1-1-0.4-1.3c0.3-1.2,0.4-2.2,0.4-2.9c0-1.8-0.7-3.3-2-4.3c0-0.2,0-0.5,0-0.7v-0.5H38c-2.1,0-2.9,0.6-3.3,1	c-1.6,0.1-3.2,1.4-3.2,4.5c0,0.8,0.1,1.8,0.4,2.9c-0.3,0.3-0.5,0.8-0.4,1.3l0.2,1.3c0.1,0.5,0.4,0.9,0.9,1c0.2,0.9,0.9,1.8,1.9,2.5	v0.3C33.8,39.5,33.2,39.7,32.6,40z" opacity=".07"/><path d="M3,10.5h42v1.7L27,25.3c-1.8,1.3-4.2,1.3-5.9,0L3,12.2V10.5z" opacity=".07"/><path fill="#7b83eb" d="M5,8h38c1.1,0,2,0.9,2,2v1.7L26.3,24.5c-1.4,0.9-3.1,0.9-4.5,0L3,11.7V10C3,8.9,3.9,8,5,8z"/><linearGradient id="SVGID_3_" x1="28" x2="48" y1="42.7" y2="42.7" gradientUnits="userSpaceOnUse"><stop offset="0" stop-color="#33bef0"/><stop offset="1" stop-color="#0a85d9"/></linearGradient><path fill="url(#SVGID_3_)" d="M41,39.8c0-1.5,0-2.4,0-2.4h-6c0,0,0,0.8,0,2.4c-4.1,0.9-7,3.6-7,6.3v1c0,0.6,0.4,1,1,1h18c0.6,0,1-0.4,1-1v-1	C48,43.3,45.1,40.7,41,39.8z"/><path fill="#d6a121" d="M41,39.6c0,1.1-1.2,2.4-3,2.4s-3-1.3-3-2.4c0-1.6,0-4.2,0-4.2h6C41,35.4,41,38,41,39.6z"/><linearGradient id="SVGID_4_" x1="42.756" x2="43.804" y1="83.5" y2="83.5" gradientTransform="matrix(1 0 0 -1 0 118)" gradientUnits="userSpaceOnUse"><stop offset="0" stop-color="#c48f0c"/><stop offset=".251" stop-color="#d19b16"/><stop offset=".619" stop-color="#dca51f"/><stop offset="1" stop-color="#e0a922"/></linearGradient><path fill="url(#SVGID_4_)" d="M43.1,33h-0.8v3h0.9c0.3,0,0.5-0.2,0.6-0.6l0.2-1.3C44.1,33.6,43.7,33,43.1,33z"/><linearGradient id="SVGID_5_" x1="-867.733" x2="-866.685" y1="83.5" y2="83.5" gradientTransform="rotate(180 -417.245 59)" gradientUnits="userSpaceOnUse"><stop offset="0" stop-color="#c48f0c"/><stop offset=".251" stop-color="#d19b16"/><stop offset=".619" stop-color="#dca51f"/><stop offset="1" stop-color="#e0a922"/></linearGradient><path fill="url(#SVGID_5_)" d="M32.9,33h0.8v3h-0.9c-0.3,0-0.5-0.2-0.6-0.6L32,34.2C31.9,33.6,32.3,33,32.9,33z"/><radialGradient id="SVGID_6_" cx="23.217" cy="3.992" r="7.438" gradientTransform="matrix(.805 0 0 -.805 19.31 36.38)" gradientUnits="userSpaceOnUse"><stop offset="0" stop-color="#ffcf54"/><stop offset=".261" stop-color="#fdcb4d"/><stop offset=".639" stop-color="#f7c13a"/><stop offset="1" stop-color="#f0b421"/></radialGradient><path fill="url(#SVGID_6_)" d="M38,26.3c-2.5,0-5,0.4-5,5.7c0,0.4,0,3.3,0,3.7c0,1.9,3,4.2,5,4.2s5-2.3,5-4.2c0-0.5,0-3.3,0-3.7	C43,26.7,40.5,26.3,38,26.3z"/><radialGradient id="SVGID_7_" cx="16.841" cy="45.808" r="19.47" gradientTransform="matrix(.805 0 0 -.8669 19.31 65.485)" gradientUnits="userSpaceOnUse"><stop offset="0" stop-color="#c26715"/><stop offset=".508" stop-color="#b85515"/><stop offset="1" stop-color="#ad3f16"/></radialGradient><path fill="url(#SVGID_7_)" d="M38,25c-2.4,0-3,1-3,1c-1.4,0-3,0.9-3,4c0,1.1,0.3,2.7,1,5c0.3-4.4,1-6.6,2.1-6.6c0.8,0,1.5,0.6,2.9,0.6	s2.4-0.6,2.9-0.6c1.9,0,2.1,5.9,2.1,6.6c0.7-2.3,1-4,1-5C44,26.9,41.9,25,38,25z"/><radialGradient id="SVGID_8_" cx="20.068" cy="11.341" r="21.61" gradientTransform="matrix(.7698 0 0 -.805 21.63 36.38)" gradientUnits="userSpaceOnUse"><stop offset="0" stop-color="#c26715"/><stop offset=".508" stop-color="#b85515"/><stop offset="1" stop-color="#ad3f16"/></radialGradient><path fill="url(#SVGID_8_)" d="M38,25c-2.6,0-3,1-3,1c0,0.7,0.1,1.3,0.1,1.3s0.4,1.7,3.2,1.7c1.6,0,3.7-1.3,3.7-4C42,25,41.7,25,38,25z"/></svg>