<svg xmlns="http://www.w3.org/2000/svg" viewBox="0 0 48 48"><path fill="#565b5e" d="M35,44h6c0.552,0,1-0.448,1-1v-4h-8v4C34,43.552,34.448,44,35,44z"/><path fill="#565b5e" d="M14,43v-4H6v4c0,0.552,0.448,1,1,1h6C13.552,44,14,43.552,14,43z"/><linearGradient id="7C~0fvAl~N6kLDAWPKHlVa" x1="44" x2="44" y1="16.146" y2="22.282" gradientUnits="userSpaceOnUse"><stop offset="0" stop-color="#f44f5a"/><stop offset=".443" stop-color="#ee3d4a"/><stop offset="1" stop-color="#e52030"/></linearGradient><path fill="url(#7C~0fvAl~N6kLDAWPKHlVa)" d="M42,20v-4h2c1.105,0,2,0.895,2,2v3c0,0.552-0.448,1-1,1h-1C42.895,22,42,21.105,42,20z"/><linearGradient id="7C~0fvAl~N6kLDAWPKHlVb" x1="4" x2="4" y1="15.564" y2="22.33" gradientUnits="userSpaceOnUse"><stop offset="0" stop-color="#f44f5a"/><stop offset=".443" stop-color="#ee3d4a"/><stop offset="1" stop-color="#e52030"/></linearGradient><path fill="url(#7C~0fvAl~N6kLDAWPKHlVb)" d="M6,20v-4H4c-1.105,0-2,0.895-2,2v3c0,0.552,0.448,1,1,1h1C5.105,22,6,21.105,6,20z"/><linearGradient id="7C~0fvAl~N6kLDAWPKHlVc" x1="17.713" x2="30.019" y1="3.339" y2="43.675" gradientUnits="userSpaceOnUse"><stop offset="0" stop-color="#f44f5a"/><stop offset=".443" stop-color="#ee3d4a"/><stop offset="1" stop-color="#e52030"/></linearGradient><path fill="url(#7C~0fvAl~N6kLDAWPKHlVc)" d="M42,9.197c0-1.919-1.357-3.574-3.244-3.928C35.712,4.698,30.636,4,24,4	S12.288,4.698,9.244,5.269C7.357,5.623,6,7.278,6,9.197V39c0,1.1,0.9,2,2,2h32c1.1,0,2-0.9,2-2V9.197z"/><path fill="#bd2f2f" d="M16,33.333l1.497,3.743c0.304,0.759,1.039,1.257,1.857,1.257h9.292c0.818,0,1.553-0.498,1.857-1.257	L32,33.333H16z"/><circle cx="36.5" cy="35.833" r="2.5" fill="#fff"/><circle cx="11.5" cy="35.833" r="2.5" fill="#fff"/><linearGradient id="7C~0fvAl~N6kLDAWPKHlVd" x1="9" x2="39" y1="20.5" y2="20.5" gradientUnits="userSpaceOnUse"><stop offset="0" stop-color="#42a3f2"/><stop offset="1" stop-color="#42a4eb"/></linearGradient><path fill="url(#7C~0fvAl~N6kLDAWPKHlVd)" d="M39,13H9v14c0,0.552,0.448,1,1,1h28c0.552,0,1-0.448,1-1V13z"/><linearGradient id="7C~0fvAl~N6kLDAWPKHlVe" x1="9" x2="39" y1="10" y2="10" gradientUnits="userSpaceOnUse"><stop offset="0" stop-color="#1d59b3"/><stop offset="1" stop-color="#195bbc"/></linearGradient><path fill="url(#7C~0fvAl~N6kLDAWPKHlVe)" d="M39,8.886c0-0.496-0.357-0.916-0.848-0.989C36.253,7.617,31.246,7,24,7	S11.747,7.617,9.848,7.897C9.357,7.97,9,8.39,9,8.886V13h30V8.886z"/><rect width="8" height="2" x="17" y="9" fill="#e3a600"/><circle cx="13" cy="10" r="1" fill="#e3a600"/><circle cx="17" cy="10" r="1" fill="#e3a600"/><circle cx="25" cy="10" r="1" fill="#e3a600"/></svg>