<svg xmlns="http://www.w3.org/2000/svg" xmlns:xlink="http://www.w3.org/1999/xlink" data-name="Layer 1" viewBox="0 0 48 48"><defs><linearGradient id="i5vfXx_8O~YUHXo_eYWjXb" x1="7.398" x2="35.733" y1="-17.926" y2="59.925" gradientUnits="userSpaceOnUse"><stop offset="0" stop-color="#d4943b"/><stop offset="1" stop-color="#c2620e"/></linearGradient><linearGradient id="i5vfXx_8O~YUHXo_eYWjXa" x1="24" x2="24" y1="3.134" y2="16.02" data-name="Безымянный градиент 103" gradientUnits="userSpaceOnUse"><stop offset="0" stop-color="#21ad64"/><stop offset="1" stop-color="#088242"/></linearGradient><linearGradient id="i5vfXx_8O~YUHXo_eYWjXc" x2="24" y1="9.223" y2="50.956" xlink:href="#i5vfXx_8O~YUHXo_eYWjXa"/><linearGradient id="i5vfXx_8O~YUHXo_eYWjXd" x1="12.787" x2="26.217" y1="23.125" y2="36.555" gradientUnits="userSpaceOnUse"><stop offset="0" stop-color="#f09701"/><stop offset="1" stop-color="#e36001"/></linearGradient><linearGradient id="i5vfXx_8O~YUHXo_eYWjXe" x1="32.897" x2="14.792" y1="26.123" y2="44.228" gradientTransform="matrix(.99864 .00136 .00136 .99864 -.014 .014)" gradientUnits="userSpaceOnUse"><stop offset="0" stop-color="#ffcf7b"/><stop offset=".196" stop-color="#fecd76"/><stop offset=".439" stop-color="#fac666"/><stop offset=".709" stop-color="#f3bc4d"/><stop offset=".995" stop-color="#eaad2a"/><stop offset="1" stop-color="#eaad29"/></linearGradient><linearGradient id="i5vfXx_8O~YUHXo_eYWjXf" x1="23.329" x2="35.733" y1="35.694" y2="23.289" gradientUnits="userSpaceOnUse"><stop offset="0" stop-color="#ffda94"/><stop offset="1" stop-color="#fff0ce"/></linearGradient></defs><path fill="url(#i5vfXx_8O~YUHXo_eYWjXb)" d="M38.92468,16.26892c-.01635-.08648-.04406-.16772-.06592-.25213a3.91945,3.91945,0,0,0-.13641-.4397c-.03961-.10242-.08649-.19946-.13409-.29761-.05408-.11047-.11121-.218-.17493-.32238-.06586-.109-.1347-.21387-.21033-.31568-.0556-.07422-.11572-.14361-.17633-.21368a3.98066,3.98066,0,0,0-.30737-.3302c-.02533-.02344-.05383-.04309-.07977-.06586a3.96839,3.96839,0,0,0-1.63947-.87384H36V5.76654H12v7.3913h-.00006a3.96839,3.96839,0,0,0-1.63947.87384c-.02594.02277-.05444.04242-.07977.06586a3.98066,3.98066,0,0,0-.30737.3302c-.06061.07007-.12073.13946-.17633.21368-.07563.10181-.14447.20673-.21033.31568-.06372.10443-.12085.21191-.17493.32238-.0476.09815-.09448.19519-.13409.29761a3.91945,3.91945,0,0,0-.13641.4397c-.02186.08441-.04957.16565-.06592.25213A3.97647,3.97647,0,0,0,9,17.01654v24a2.00591,2.00591,0,0,0,2,2H37a2.00591,2.00591,0,0,0,2-2v-24A3.97647,3.97647,0,0,0,38.92468,16.26892Z"/><path d="M12,11.01654v1H36v-1Z" opacity=".05"/><path d="M12,11.01654v.5H36v-.5Z" opacity=".07"/><path fill="url(#i5vfXx_8O~YUHXo_eYWjXa)" d="M36,11.01654H12a1,1,0,0,1-1-1v-3a2,2,0,0,1,2-2H35a2,2,0,0,1,2,2v3A1,1,0,0,1,36,11.01654Z"/><path fill="#107c42" d="M13,5.01654h2a0,0,0,0,1,0,0v3a1,1,0,0,1-1,1h0a1,1,0,0,1-1-1v-3a0,0,0,0,1,0,0Z"/><path fill="#107c42" d="M17,5.01654h2a0,0,0,0,1,0,0v3a1,1,0,0,1-1,1h0a1,1,0,0,1-1-1v-3A0,0,0,0,1,17,5.01654Z"/><path fill="#107c42" d="M21,5.01654h2a0,0,0,0,1,0,0v3a1,1,0,0,1-1,1h0a1,1,0,0,1-1-1v-3a0,0,0,0,1,0,0Z"/><path fill="#107c42" d="M25,5.01654h2a0,0,0,0,1,0,0v3a1,1,0,0,1-1,1h0a1,1,0,0,1-1-1v-3A0,0,0,0,1,25,5.01654Z"/><path fill="#107c42" d="M29,5.01654h2a0,0,0,0,1,0,0v3a1,1,0,0,1-1,1h0a1,1,0,0,1-1-1v-3A0,0,0,0,1,29,5.01654Z"/><path fill="#107c42" d="M33,5.01654h2a0,0,0,0,1,0,0v3a1,1,0,0,1-1,1h0a1,1,0,0,1-1-1v-3a0,0,0,0,1,0,0Z"/><rect width="30" height="22" x="9" y="17.017" fill="url(#i5vfXx_8O~YUHXo_eYWjXc)"/><path fill="#185c37" d="M26.22792,22.39087a1.76,1.76,0,0,0,.88932-.4932c.33468-.33468.22328-.5939-.09464-.76924a1.12367,1.12367,0,0,0,.771-.9216c0-.65368-.90928-1.18359-2.0309-1.18359s-2.03093.52989-2.03093,1.18357c0,.38015.313.7147.79093.93124a.73259.73259,0,0,0-.11078.08328.47826.47826,0,0,0,0,.67634,1.68737,1.68737,0,0,0,.41078.27885.93512.93512,0,0,0-.07261.05932.95648.95648,0,1,0,1.47786.155Z"/><path fill="#185c37" d="M26.63115,22.7941a1.76,1.76,0,0,1,.4932-.88932c.33468-.33468.5939-.22328.76924.09464a1.12367,1.12367,0,0,1,.9216-.771c.65368,0,1.18359.90928,1.18359,2.0309s-.52989,2.03093-1.18357,2.03093c-.38015,0-.7147-.313-.93124-.79093a.73259.73259,0,0,1-.08328.11078.47826.47826,0,0,1-.67634,0,1.68737,1.68737,0,0,1-.27885-.41078.93512.93512,0,0,1-.05932.07261.95648.95648,0,1,1-.155-1.47786Z"/><path fill="#107c42" d="M29.82258,21.89767c.37355-.37355.07074-1.28194-.67633-2.029s-1.65547-1.04988-2.029-.67634c-.23474.23474-.20172.68086.04018,1.16533a.81233.81233,0,0,0-.71652.18735.96587.96587,0,0,0-.07977,1.08016.94473.94473,0,0,0-.84092,1.1932l-.77015.77015.67634.67634.77014-.77015a.94475.94475,0,0,0,1.19321-.84092.96589.96589,0,0,0,1.08016-.07977.81238.81238,0,0,0,.18735-.71653C29.14173,22.09938,29.58784,22.13241,29.82258,21.89767Z"/><path fill="url(#i5vfXx_8O~YUHXo_eYWjXd)" d="M25.68878,29.41651c-.15.14-.29.28-.45.42-.05.05-.11.1-.17.15-.23.21-.48.42-.74.62-.22.17-.44.33-.67.49a36.07039,36.07039,0,0,1-5.73,3.26c-.32.14-.63.29-.93.42-1.27.56995-2.32.98-2.9,1.19a.82952.82952,0,0,1-1.05-1.05c.09-.25.22-.59.39-1q.165-.435.39-.96c.31-.74.7-1.61005,1.15-2.54.29-.61.62-1.24.96-1.88.27-.48.54-.96.83-1.43.17-.29.34-.56.52-.84a17.99319,17.99319,0,0,1,2.31-2.94.50309.50309,0,0,1,.08-.07,3.21538,3.21538,0,0,1,.81-.55,4.43074,4.43074,0,0,1,4.94.88A4.28149,4.28149,0,0,1,25.68878,29.41651Z"/><path fill="#c2620e" d="M25.23877,29.83655c-.05.05-.11.1-.17.15-.23.21-.48.42-.74.62-.22.17-.44.33-.67.49l-2.37-2.37a1.0041,1.0041,0,1,1,1.42-1.42Z"/><path fill="#c2620e" d="M17.7088,31.72651a1.01411,1.01411,0,0,1-1.42,0l-1.31-1.31c.29-.61.62-1.24.96-1.88l1.77,1.77A1.008,1.008,0,0,1,17.7088,31.72651Z"/><g><path fill="url(#i5vfXx_8O~YUHXo_eYWjXe)" d="M32.94355,29.65987a2.51462,2.51462,0,0,1,.64646-2.437l.06592-.06593a1.26772,1.26772,0,0,0-1.79282-1.79282l-.06592.06592a2.515,2.515,0,0,1-2.43734.64637,5.071,5.071,0,1,0,3.5837,3.58344Z"/><path fill="url(#i5vfXx_8O~YUHXo_eYWjXf)" d="M28.02417,34.99826a3.99957,3.99957,0,0,1-2.82812-6.82812.99989.99989,0,1,1,1.41406,1.41406,1.99927,1.99927,0,0,0,0,2.82813,2.04707,2.04707,0,0,0,2.82813,0,.99989.99989,0,0,1,1.41406,1.41406A3.97184,3.97184,0,0,1,28.02417,34.99826Zm2-5a1,1,0,1,0-1,1A1,1,0,0,0,30.02417,29.99826Z"/></g><g><path d="M25.7627,19.0232a2.9889,2.9889,0,0,1,1.29052.27673.50045.50045,0,0,1,.064-.1076.60735.60735,0,0,1,.44414-.16,2.53571,2.53571,0,0,1,1.58485.83631c.74707.74707,1.04987,1.65545.67633,2.029a.49869.49869,0,0,1-.10473.06231,2.98287,2.98287,0,0,1,.28094,1.29938c0,1.12165-.52991,2.03095-1.18359,2.03095-.38013,0-.71466-.313-.93122-.791a.72708.72708,0,0,1-.08331.11078.47822.47822,0,0,1-.67633,0,1.687,1.687,0,0,1-.27881-.41077c-.0199.02417-.03674.05-.05933.07258a.95024.95024,0,0,1-.65631.27624,4.46742,4.46742,0,0,1,.52143,1.5589,5.2046,5.2046,0,0,1,1.422-.2,4.93209,4.93209,0,0,1,1.28656.16937,2.53654,2.53654,0,0,0,.66153.088,2.50874,2.50874,0,0,0,1.77579-.73431l.06592-.06592A1.26772,1.26772,0,0,1,33.656,27.15692l-.06592.066a2.51454,2.51454,0,0,0-.64649,2.43695,5.0303,5.0303,0,0,1-4.86218,6.35663A5.095,5.095,0,0,1,23.73529,33.575a4.92384,4.92384,0,0,1-.706-2.05646,37.9185,37.9185,0,0,1-5.10053,2.83795c-.32.14-.63.29-.93.42-1.27.56995-2.32.98-2.9,1.19a.71051.71051,0,0,1-.26067.04876.86067.86067,0,0,1-.58931-.24878.81044.81044,0,0,1-.2-.85c.09-.25.22-.59.39-1q.165-.435.39-.96c.31-.74.7-1.61005,1.15-2.54.29-.61.62-1.24.96-1.88.27-.48.54-.96.83-1.43.17-.29.34-.56.52-.84a17.99319,17.99319,0,0,1,2.31-2.94.50309.50309,0,0,1,.08-.07,3.21538,3.21538,0,0,1,.81-.55,4.04788,4.04788,0,0,1,1.77557-.39453,4.57055,4.57055,0,0,1,2.21088.57293.94915.94915,0,0,1,.27484-.64911.91091.91091,0,0,1,.07263-.05932,1.6888,1.6888,0,0,1-.41082-.27887.47828.47828,0,0,1,0-.67633.74159.74159,0,0,1,.11077-.08332c-.478-.21649-.79089-.55108-.79089-.93121,0-.65369.90924-1.18359,2.03095-1.18359m0-1c-1.72792,0-3.03095.93872-3.03095,2.18359a1.78969,1.78969,0,0,0,.466,1.18457,5.54375,5.54375,0,0,0-.93337-.07934,5.0606,5.0606,0,0,0-2.2155.49646,4.16049,4.16049,0,0,0-1.00248.67163,1.60834,1.60834,0,0,0-.15474.13934,18.88824,18.88824,0,0,0-2.44309,3.1048c-.18846.29315-.3654.57452-.54246.87658-.2883.46668-.56723.96253-.837,1.442-.39747.74731-.7111,1.3504-.99347,1.94421-.42369.87568-.829,1.771-1.16919,2.58313-.15293.35669-.28817.68982-.40267.99164-.16626.39984-.30188.75489-.39588,1.01587a1.80683,1.80683,0,0,0,.41887,1.88074,1.87512,1.87512,0,0,0,1.31129.55688,1.70554,1.70554,0,0,0,.62629-.118c.372-.13434,1.45623-.54083,2.94384-1.20843.14876-.06439.31208-.13941.47811-.2157.14549-.0669.29324-.13489.4433-.20056a41.51848,41.51848,0,0,0,4.06558-2.16059,5.71,5.71,0,0,0,.49229.99329,6.109,6.109,0,0,0,5.19388,2.91113,6.03032,6.03032,0,0,0,5.82758-7.61743,1.52058,1.52058,0,0,1,.38816-1.469l.06632-.06641a2.26771,2.26771,0,0,0-3.20744-3.2066l-.06585.06585a1.50266,1.50266,0,0,1-.49009.32776,3.9526,3.9526,0,0,0,.39874-1.79132,4.19,4.19,0,0,0-.15044-1.12481,1.99939,1.99939,0,0,0,.005-1.42756,4.10787,4.10787,0,0,0-1-1.54541,3.47848,3.47848,0,0,0-2.29193-1.12921,1.71029,1.71029,0,0,0-.68881.13727,4.19551,4.19551,0,0,0-1.10991-.14642Z" opacity=".05"/><path d="M25.7627,19.0232a2.9889,2.9889,0,0,1,1.29052.27673.50045.50045,0,0,1,.064-.1076.60735.60735,0,0,1,.44414-.16,2.53571,2.53571,0,0,1,1.58485.83631c.74707.74707,1.04987,1.65545.67633,2.029a.49869.49869,0,0,1-.10473.06231,2.98287,2.98287,0,0,1,.28094,1.29938c0,1.12165-.52991,2.03095-1.18359,2.03095-.38013,0-.71466-.313-.93122-.791a.72708.72708,0,0,1-.08331.11078.47822.47822,0,0,1-.67633,0,1.687,1.687,0,0,1-.27881-.41077c-.0199.02417-.03674.05-.05933.07258a.95024.95024,0,0,1-.65631.27624,4.46742,4.46742,0,0,1,.52143,1.5589,5.2046,5.2046,0,0,1,1.422-.2,4.93209,4.93209,0,0,1,1.28656.16937,2.53654,2.53654,0,0,0,.66153.088,2.50874,2.50874,0,0,0,1.77579-.73431l.06592-.06592A1.26772,1.26772,0,0,1,33.656,27.15692l-.06592.066a2.51454,2.51454,0,0,0-.64649,2.43695,5.0303,5.0303,0,0,1-4.86218,6.35663A5.095,5.095,0,0,1,23.73529,33.575a4.92384,4.92384,0,0,1-.706-2.05646,37.9185,37.9185,0,0,1-5.10053,2.83795c-.32.14-.63.29-.93.42-1.27.56995-2.32.98-2.9,1.19a.71051.71051,0,0,1-.26067.04876.86067.86067,0,0,1-.58931-.24878.81044.81044,0,0,1-.2-.85c.09-.25.22-.59.39-1q.165-.435.39-.96c.31-.74.7-1.61005,1.15-2.54.29-.61.62-1.24.96-1.88.27-.48.54-.96.83-1.43.17-.29.34-.56.52-.84a17.99319,17.99319,0,0,1,2.31-2.94.50309.50309,0,0,1,.08-.07,3.21538,3.21538,0,0,1,.81-.55,4.04788,4.04788,0,0,1,1.77557-.39453,4.57055,4.57055,0,0,1,2.21088.57293.94915.94915,0,0,1,.27484-.64911.91091.91091,0,0,1,.07263-.05932,1.6888,1.6888,0,0,1-.41082-.27887.47828.47828,0,0,1,0-.67633.74159.74159,0,0,1,.11077-.08332c-.478-.21649-.79089-.55108-.79089-.93121,0-.65369.90924-1.18359,2.03095-1.18359m0-.5c-1.41922,0-2.53095.7395-2.53095,1.68359A1.38138,1.38138,0,0,0,23.81,21.28968a.98138.98138,0,0,0,.12135.80548,5.06525,5.06525,0,0,0-1.667-.28314,4.55793,4.55793,0,0,0-1.99553.44549,3.6869,3.6869,0,0,0-.90458.60925,1.06975,1.06975,0,0,0-.119.10621,18.39514,18.39514,0,0,0-2.37652,3.02239c-.18424.28656-.3577.56226-.53122.85828-.28883.46784-.56525.95917-.83257,1.43433-.38855.73089-.69928,1.32831-.97767,1.91382-.42131.87078-.8228,1.75763-1.15958,2.56158-.15149.35333-.2841.67987-.39635.97583-.1681.40491-.301.75238-.39294,1.00793a1.31069,1.31069,0,0,0,.30945,1.36536,1.365,1.365,0,0,0,.95028.40283,1.20846,1.20846,0,0,0,.44349-.08337c.29316-.106,1.40834-.52,2.922-1.19922.15135-.06555.31131-.139.47394-.21381.14826-.06817.29882-.13745.45175-.20434A39.97809,39.97809,0,0,0,22.67571,32.348a5.33676,5.33676,0,0,0,.63568,1.49212,5.61187,5.61187,0,0,0,4.77,2.67633,5.53028,5.53028,0,0,0,5.34488-6.987,2.02191,2.02191,0,0,1,.51732-1.953l.06611-.06616a1.76771,1.76771,0,0,0-2.50013-2.4997l-.06589.06586a1.99765,1.99765,0,0,1-1.42226.58789,2.03816,2.03816,0,0,1-.53119-.07068l-.0088-.00232a2.73942,2.73942,0,0,0,1.01738-2.332A3.621,3.621,0,0,0,30.31,22.08612a1.39545,1.39545,0,0,0,.069-1.221,3.60212,3.60212,0,0,0-.87919-1.35,2.98285,2.98285,0,0,0-1.93839-.98273,1.15252,1.15252,0,0,0-.63675.176,3.62524,3.62524,0,0,0-1.162-.18512Zm1.27943,6.97918q-.05357-.212-.12564-.41839a.97153.97153,0,0,0,.546.1662.98364.98364,0,0,0,.27032-.0376,1.84876,1.84876,0,0,0,.17993.19678,5.66619,5.66619,0,0,0-.87065.093Z" opacity=".07"/></g></svg>