<svg xmlns="http://www.w3.org/2000/svg" viewBox="0 0 48 48"><linearGradient id="Q79X~XT_pb2P6L8na0RpGa" x1="10.726" x2="7.189" y1="36.367" y2="42.888" gradientTransform="matrix(1 0 0 -1 0 48)" gradientUnits="userSpaceOnUse"><stop offset="0" stop-color="#107c42"/><stop offset=".378" stop-color="#189553"/><stop offset=".724" stop-color="#1da55e"/><stop offset="1" stop-color="#1faa62"/></linearGradient><path fill="url(#Q79X~XT_pb2P6L8na0RpGa)" d="M12.933,8.135L8,14.174v-9.54c0-0.528,0.639-0.792,1.013-0.419L12.933,8.135z"/><linearGradient id="Q79X~XT_pb2P6L8na0RpGb" x1="9.605" x2="4.595" y1="43.602" y2="11.975" gradientTransform="matrix(1 0 0 -1 0 48)" gradientUnits="userSpaceOnUse"><stop offset="0" stop-color="#33c481"/><stop offset="1" stop-color="#21a366"/></linearGradient><path fill="url(#Q79X~XT_pb2P6L8na0RpGb)" d="M5,25h3c0.553,0,1-0.448,1-1s-0.447-1-1-1H5c-0.553,0-1,0.448-1,1S4.447,25,5,25z"/><linearGradient id="Q79X~XT_pb2P6L8na0RpGc" x1="10.926" x2="5.686" y1="43.657" y2="10.572" gradientTransform="matrix(1 0 0 -1 0 48)" gradientUnits="userSpaceOnUse"><stop offset="0" stop-color="#33c481"/><stop offset="1" stop-color="#21a366"/></linearGradient><path fill="url(#Q79X~XT_pb2P6L8na0RpGc)" d="M5.649,29.92c0.087,0,0.174-0.012,0.262-0.035l2.89-0.78c0.533-0.144,0.849-0.693,0.705-1.226	c-0.145-0.534-0.692-0.849-1.227-0.705l-2.89,0.78c-0.533,0.144-0.849,0.693-0.705,1.226C4.806,29.626,5.209,29.92,5.649,29.92z"/><linearGradient id="Q79X~XT_pb2P6L8na0RpGd" x1="13.314" x2="7.899" y1="43.469" y2="9.278" gradientTransform="matrix(1 0 0 -1 0 48)" gradientUnits="userSpaceOnUse"><stop offset="0" stop-color="#33c481"/><stop offset="1" stop-color="#21a366"/></linearGradient><path fill="url(#Q79X~XT_pb2P6L8na0RpGd)" d="M7.551,34.5c0.17,0,0.343-0.043,0.5-0.135l2.59-1.5c0.479-0.277,0.642-0.889,0.364-1.366	c-0.276-0.479-0.89-0.642-1.366-0.364l-2.59,1.5c-0.479,0.277-0.642,0.889-0.364,1.366C6.87,34.321,7.206,34.5,7.551,34.5z"/><linearGradient id="Q79X~XT_pb2P6L8na0RpGe" x1="16.61" x2="11.048" y1="43.105" y2="7.982" gradientTransform="matrix(1 0 0 -1 0 48)" gradientUnits="userSpaceOnUse"><stop offset="0" stop-color="#33c481"/><stop offset="1" stop-color="#21a366"/></linearGradient><path fill="url(#Q79X~XT_pb2P6L8na0RpGe)" d="M10.57,38.43c0.256,0,0.512-0.098,0.707-0.293l2.109-2.11c0.391-0.391,0.391-1.024,0-1.414	c-0.391-0.391-1.023-0.391-1.414,0l-2.109,2.11c-0.391,0.391-0.391,1.024,0,1.414C10.059,38.333,10.314,38.43,10.57,38.43z"/><linearGradient id="Q79X~XT_pb2P6L8na0RpGf" x1="27.969" x2="22.125" y1="41.611" y2="4.717" gradientTransform="matrix(1 0 0 -1 0 48)" gradientUnits="userSpaceOnUse"><stop offset="0" stop-color="#33c481"/><stop offset="1" stop-color="#21a366"/></linearGradient><path fill="url(#Q79X~XT_pb2P6L8na0RpGf)" d="M24,4c11.028,0,20,8.972,20,20s-8.972,20-20,20c-3.648,0-7.065-0.992-10.012-2.708	c-0.469-0.273-0.615-0.886-0.343-1.357l1.492-2.584c0.271-0.469,0.874-0.652,1.342-0.379C18.691,38.261,21.26,39,24,39	c8.271,0,15-6.729,15-15S32.271,9,24,9c-2.909,0-5.612,0.851-7.91,2.293l2.695,2.695C19.158,14.361,18.894,15,18.365,15H8.792	C8.355,15,8,14.645,8,14.208v-2.157C11.651,7.175,17.454,4,24,4z"/><path fill="#107c42" d="M24.739,29.068c0.993-0.16,1.49-0.682,1.49-1.564c0-0.714-0.497-1.298-1.49-1.75	c-0.429-0.186-0.94-0.4-1.522-0.623c-1.626-0.634-2.735-1.321-3.329-2.062c-0.501-0.624-0.79-1.363-0.869-2.217	c-0.113-1.224,0.273-2.49,1.092-3.369c0.776-0.833,1.811-1.317,3.106-1.451v-1.488c0-0.301,0.233-0.546,0.52-0.546h0.481	c0.287,0,0.52,0.244,0.52,0.546v1.444c1.281,0.064,2.279,0.261,2.992,0.592c0.183,0.085,0.29,0.285,0.29,0.495v1.707	c0,0.393-0.385,0.662-0.724,0.496c-0.783-0.382-1.635-0.626-2.557-0.731c-0.472-0.055-1.04-0.071-1.557,0.028	c-0.879,0.172-1.412,0.756-1.413,1.601c-0.001,0.751,0.475,1.359,1.448,1.881c0.535,0.291,1.057,0.493,1.522,0.634	c1.524,0.523,2.611,1.234,3.272,1.974c0.66,0.74,0.99,1.635,0.99,2.685c0,1.21-0.368,2.185-1.105,2.925s-1.789,1.19-3.157,1.351	v1.827c0,0.301-0.233,0.546-0.52,0.546h-0.481c-0.287,0-0.52-0.244-0.52-0.546v-1.761c-1.295-0.006-2.508-0.29-3.639-0.85	c-0.183-0.091-0.299-0.292-0.299-0.505V28.66c0-0.406,0.407-0.691,0.753-0.508c0.3,0.159,0.65,0.311,1.05,0.456	c0.799,0.292,1.511,0.459,2.136,0.503C23.75,29.145,24.259,29.134,24.739,29.068z"/></svg>