<svg xmlns="http://www.w3.org/2000/svg" viewBox="0 0 48 48"><linearGradient id="0O1f-bEvcL6kWgMBNx9c8a" x1="399.658" x2="428.822" y1="-485.981" y2="-470.169" gradientTransform="matrix(0 1 1 0 501.223 -391.223)" gradientUnits="userSpaceOnUse"><stop offset=".008" stop-color="#f44f5a"/><stop offset=".447" stop-color="#ee3d4a"/><stop offset="1" stop-color="#e52030"/></linearGradient><path fill="url(#0O1f-bEvcL6kWgMBNx9c8a)" d="M24.223,45c2.467,0,4.818-0.468,7-1.284V6.284C29.041,5.468,26.69,5,24.223,5	s-4.818,0.468-7,1.284v37.431C19.405,44.532,21.756,45,24.223,45z"/><linearGradient id="0O1f-bEvcL6kWgMBNx9c8b" x1="409.245" x2="445.668" y1="-490.369" y2="-474.554" gradientTransform="matrix(0 1 1 0 501.223 -391.223)" gradientUnits="userSpaceOnUse"><stop offset="0" stop-color="#21ad64"/><stop offset="1" stop-color="#088242"/></linearGradient><path fill="url(#0O1f-bEvcL6kWgMBNx9c8b)" d="M17.223,43.716V6.284c-7.588,2.841-13,10.137-13,18.716S9.635,40.875,17.223,43.716z"/><linearGradient id="0O1f-bEvcL6kWgMBNx9c8c" x1="410.013" x2="427.498" y1="-468.554" y2="-462.146" gradientTransform="matrix(0 1 1 0 501.223 -391.223)" gradientUnits="userSpaceOnUse"><stop offset="0" stop-color="#ffd000"/><stop offset="1" stop-color="#ffc107"/></linearGradient><path fill="url(#0O1f-bEvcL6kWgMBNx9c8c)" d="M44.223,25c0-8.579-5.412-15.875-13-18.716v37.431C38.811,40.875,44.223,33.579,44.223,25z"/><path fill="#ffce01" d="M24,18.488l1.18,3.75H29l-3.09,2.129L27.09,28L24,25.754L20.91,28l1.18-3.633L19,22.238h3.82	L24,18.488z"/></svg>