<svg xmlns="http://www.w3.org/2000/svg" viewBox="0 0 48 48"><circle cx="39.5" cy="31.5" r="2.5" fill="#c98e00"/><polygon fill="#c98e00" points="26.211,41.683 40.68,33.693 38.54,29.191 26,35"/><linearGradient id="BNnfMiZnfnpvmPfVF8oIOa" x1="3" x2="45" y1="-2061" y2="-2061" gradientTransform="matrix(1 0 0 -1 0 -2028)" gradientUnits="userSpaceOnUse"><stop offset="0" stop-color="#ffcf54"/><stop offset=".261" stop-color="#fdcb4d"/><stop offset=".639" stop-color="#f7c13a"/><stop offset="1" stop-color="#f0b421"/></linearGradient><path fill="url(#BNnfMiZnfnpvmPfVF8oIOa)" d="M45,32.5c0-1.381-1.119-2.5-2.5-2.5c-0.34,0-0.664,0.069-0.959,0.192l-0.001-0.001	l-0.011,0.005c-0.002,0.001-0.004,0.002-0.006,0.003L29,36l-1.5-1c1.381,0,2.5-1.119,2.5-2.5c0-0.93-0.514-1.732-1.267-2.163	l0.004-0.016l-13.651-6.866h-0.025C14.431,23.169,13.737,23,13,23c-0.718,0-1.397,0.157-2.015,0.43h-0.022L3,27v13l8.09-3.718	l15.911,6.508h0.001C27.309,42.924,27.645,43,28,43c0.435,0,0.838-0.121,1.195-0.317l0.017-0.001l14.469-7.989l-0.001-0.002	C44.462,34.269,45,33.452,45,32.5z"/><circle cx="27.5" cy="32.5" r="1.5" fill="#ffde87"/><linearGradient id="BNnfMiZnfnpvmPfVF8oIOb" x1="22.337" x2="24.123" y1="-2064.368" y2="-2061.288" gradientTransform="matrix(1 0 0 -1 0 -2028)" gradientUnits="userSpaceOnUse"><stop offset="0" stop-color="#f0b421" stop-opacity="0"/><stop offset=".512" stop-color="#e9ab12" stop-opacity=".512"/><stop offset="1" stop-color="#e09f00"/></linearGradient><path fill="url(#BNnfMiZnfnpvmPfVF8oIOb)" d="M29,36l-1.489-0.998c-1.255-0.06-2.242-0.468-10.511-3.513V35l11.551,4.734	C28.551,39.734,27.733,37.451,29,36z"/><radialGradient id="BNnfMiZnfnpvmPfVF8oIOc" cx="23.334" cy="-294.991" r="22.504" gradientTransform="matrix(1 0 0 -1 0 -290)" gradientUnits="userSpaceOnUse"><stop offset="0" stop-color="#6fcefc"/><stop offset="1" stop-color="#167cf7"/></radialGradient><path fill="url(#BNnfMiZnfnpvmPfVF8oIOc)" d="M42,13c0,6.075-4.925,11-11,11s-11-4.925-11-11S24.925,2,31,2S42,6.925,42,13z"/><radialGradient id="BNnfMiZnfnpvmPfVF8oIOd" cx="23.683" cy="-294.228" r="22.505" gradientTransform="matrix(1 0 0 -1 0 -290)" gradientUnits="userSpaceOnUse"><stop offset=".001" stop-color="#54c0f5"/><stop offset=".998" stop-color="#0b69db"/></radialGradient><path fill="url(#BNnfMiZnfnpvmPfVF8oIOd)" d="M40.35,13c0-1.356-0.219-2.65-0.603-3.85h1.546c-0.141-0.377-0.3-0.744-0.48-1.1h-1.475	C37.795,4.467,34.642,2,31,2s-6.795,2.467-8.339,6.05h-1.475c-0.18,0.356-0.339,0.723-0.48,1.1h1.546	c-0.383,1.2-0.602,2.494-0.602,3.85s0.219,2.65,0.603,3.85h-1.546c0.141,0.377,0.3,0.744,0.48,1.1h1.475	c1.543,3.583,4.697,6.05,8.339,6.05s6.795-2.467,8.339-6.05h1.475c0.18-0.356,0.339-0.723,0.48-1.1h-1.546	C40.131,15.65,40.35,14.356,40.35,13z M39.25,13c0,1.365-0.232,2.666-0.65,3.85h-3.47c0.178-1.246,0.27-2.557,0.27-3.85	s-0.091-2.604-0.27-3.85h3.47C39.018,10.334,39.25,11.635,39.25,13z M31,22.9c-1.065,0-2.212-1.895-2.834-4.95h5.667	C33.212,21.005,32.065,22.9,31,22.9z M27.975,16.85C27.802,15.688,27.7,14.396,27.7,13s0.102-2.688,0.275-3.85h6.05	C34.198,10.312,34.3,11.604,34.3,13s-0.102,2.688-0.275,3.85H27.975z M31,3.1c1.065,0,2.212,1.895,2.834,4.95h-5.667	C28.788,4.995,29.935,3.1,31,3.1z M38.133,8.05h-3.186c-0.351-1.832-0.904-3.45-1.647-4.55C35.357,4.218,37.08,5.871,38.133,8.05z M28.699,3.5c-0.743,1.101-1.295,2.719-1.647,4.55h-3.186C24.92,5.871,26.643,4.218,28.699,3.5z M22.75,13	c0-1.365,0.232-2.666,0.65-3.85h3.47C26.691,10.396,26.6,11.707,26.6,13s0.091,2.604,0.269,3.85H23.4	C22.982,15.666,22.75,14.365,22.75,13z M23.866,17.95h3.186c0.351,1.832,0.904,3.45,1.647,4.55	C26.643,21.782,24.92,20.129,23.866,17.95z M33.301,22.5c0.743-1.101,1.295-2.719,1.647-4.55h3.186	C37.08,20.129,35.357,21.782,33.301,22.5z"/></svg>