<svg xmlns="http://www.w3.org/2000/svg" viewBox="0 0 48 48"><linearGradient id="KUY_UaBTICgrUpC3Z_qcda" x1="36.273" x2="43.393" y1="18.273" y2="25.393" gradientUnits="userSpaceOnUse"><stop offset="0" stop-color="#fed100"/><stop offset=".577" stop-color="#ee9001"/><stop offset="1" stop-color="#e36001"/></linearGradient><path fill="url(#KUY_UaBTICgrUpC3Z_qcda)" d="M42,21c-1.657,0-3,1.343-3,3s1.343,3,3,3s3-1.343,3-3S43.657,21,42,21z"/><linearGradient id="KUY_UaBTICgrUpC3Z_qcdb" x1="12.614" x2="35.717" y1="6.56" y2="37.738" gradientUnits="userSpaceOnUse"><stop offset="0" stop-color="#fed100"/><stop offset=".041" stop-color="#fcca00"/><stop offset=".348" stop-color="#f19d00"/><stop offset=".621" stop-color="#ea7c01"/><stop offset=".848" stop-color="#e56701"/><stop offset="1" stop-color="#e36001"/></linearGradient><path fill="url(#KUY_UaBTICgrUpC3Z_qcdb)" d="M23,4c-1.077,0-5,0-5,0v40c0,0,3.923,0,5,0c11.046,0,20-8.954,20-20S34.046,4,23,4z"/><radialGradient id="KUY_UaBTICgrUpC3Z_qcdc" cx="30.876" cy="23.886" r="26.007" gradientUnits="userSpaceOnUse"><stop offset="0" stop-color="#fee74f"/><stop offset=".416" stop-color="#fee64d"/><stop offset=".598" stop-color="#fee446"/><stop offset=".734" stop-color="#fee139"/><stop offset=".848" stop-color="#ffdb27"/><stop offset=".946" stop-color="#ffd510"/><stop offset="1" stop-color="#ffd000"/></radialGradient><path fill="url(#KUY_UaBTICgrUpC3Z_qcdc)" d="M5,24c0,11.046,5.82,20,13,20s13-8.954,13-20S25.18,4,18,4S5,12.954,5,24z"/><radialGradient id="KUY_UaBTICgrUpC3Z_qcdd" cx="18" cy="24" r="11.14" gradientTransform="matrix(1 0 0 1.5976 0 -14.342)" gradientUnits="userSpaceOnUse"><stop offset="0" stop-color="#fed100"/><stop offset="1" stop-color="#f09801"/></radialGradient><path fill="url(#KUY_UaBTICgrUpC3Z_qcdd)" d="M20.389,25h7.685c0.486,0,0.883,0.411,0.852,0.896c-0.169,2.647-0.688,5.121-1.481,7.299	c-0.233,0.64-1.094,0.751-1.491,0.197l-5.749-8.031C20.096,25.21,20.204,25,20.389,25z M19,7.154l0,13.021	c0,0.222,0.284,0.313,0.413,0.133l6.076-8.487c0.202-0.282,0.217-0.665,0.028-0.955c-1.483-2.272-3.35-3.877-5.425-4.531	C19.551,6.164,19,6.587,19,7.154z M28.925,22.104c-0.169-2.647-0.688-5.121-1.481-7.299c-0.233-0.64-1.094-0.751-1.491-0.197	l-5.749,8.031c-0.108,0.151,0,0.361,0.185,0.361h7.685C28.56,23,28.957,22.589,28.925,22.104z M10.511,11.82l6.076,8.487	C16.716,20.488,17,20.397,17,20.175l0-13.021c0-0.568-0.551-0.99-1.092-0.82c-2.075,0.653-3.942,2.258-5.425,4.531	C10.294,11.155,10.309,11.538,10.511,11.82z M20.092,41.666c1.891-0.595,3.609-1.98,5.021-3.941c0.445-0.617,0.444-1.452,0.001-2.07	l-5.338-7.456C19.282,27.508,19,27.603,19,27.825l0,13.021C19,41.413,19.551,41.836,20.092,41.666z M17,40.846l0-13.021	c0-0.222-0.284-0.313-0.413-0.133l-5.697,7.959c-0.443,0.619-0.447,1.457-0.002,2.074c1.412,1.96,3.13,3.346,5.02,3.941	C16.449,41.836,17,41.413,17,40.846z M8.556,14.805c-0.793,2.178-1.312,4.651-1.481,7.299C7.043,22.589,7.44,23,7.926,23h7.685	c0.185,0,0.293-0.21,0.185-0.361l-5.749-8.031C9.65,14.054,8.789,14.165,8.556,14.805z M7.075,25.896	c0.169,2.647,0.688,5.121,1.481,7.299c0.233,0.64,1.094,0.751,1.491,0.197l5.749-8.031c0.108-0.151,0-0.361-0.185-0.361H7.926	C7.44,25,7.043,25.411,7.075,25.896z"/></svg>