<svg xmlns="http://www.w3.org/2000/svg" viewBox="0 0 48 48"><linearGradient id="~wv7e0NiwOwjbdQqci~XKa" x1="15.502" x2="30.566" y1="13.198" y2="32.347" gradientUnits="userSpaceOnUse"><stop offset="0" stop-color="#f44f5a"/><stop offset=".443" stop-color="#ee3d4a"/><stop offset="1" stop-color="#e52030"/></linearGradient><path fill="url(#~wv7e0NiwOwjbdQqci~XKa)" d="M24,14c-5.523,0-10,4.477-10,10s4.477,10,10,10s10-4.477,10-10S29.523,14,24,14z"/><path fill="#0370c8" d="M44.888,42.75L5.266,3.128c-0.149-0.149-0.39-0.149-0.539,0c0,0,0,0,0,0L3.112,4.744	c-0.149,0.149-0.149,0.39,0,0.539c0,0,0,0,0,0l39.622,39.622c0.149,0.149,0.39,0.149,0.539,0c0,0,0,0,0,0l1.616-1.616	C45.037,43.14,45.037,42.899,44.888,42.75z"/></svg>