<svg xmlns="http://www.w3.org/2000/svg" viewBox="0 0 48 48"><linearGradient id="JxJFw6uZIECeqwcHAlv3ua" x1="2.924" x2="22.247" y1="45.471" y2="9.131" gradientTransform="matrix(1 0 0 -1 0 47.89)" gradientUnits="userSpaceOnUse"><stop offset="0" stop-color="#fcfcfc"/><stop offset=".95" stop-color="#c3c9cd"/></linearGradient><path fill="url(#JxJFw6uZIECeqwcHAlv3ua)" d="M5,8c-1.104,0-2,0.896-2,2v28c0,1.104,0.896,2,2,2h20V8H5z"/><linearGradient id="JxJFw6uZIECeqwcHAlv3ub" x1="9.197" x2="17.144" y1="32.483" y2="17.537" gradientTransform="matrix(1 0 0 -1 0 47.89)" gradientUnits="userSpaceOnUse"><stop offset="0" stop-color="#4c4c4c"/><stop offset="1" stop-color="#343434"/></linearGradient><path fill="url(#JxJFw6uZIECeqwcHAlv3ub)" d="M19,30c0,0.553-0.447,1-1,1H9c-0.553,0-1-0.447-1-1V17c0-0.552,0.447-1,1-1h9	c0.553,0,1,0.448,1,1V30z"/><linearGradient id="JxJFw6uZIECeqwcHAlv3uc" x1="24.276" x2="41.971" y1="42.367" y2="9.088" gradientTransform="matrix(1 0 0 -1 0 47.89)" gradientUnits="userSpaceOnUse"><stop offset="0" stop-color="#4c4c4c"/><stop offset="1" stop-color="#343434"/></linearGradient><path fill="url(#JxJFw6uZIECeqwcHAlv3uc)" d="M45,38V10c0-1.104-0.896-2-2-2H24v32h19C44.104,40,45,39.104,45,38z"/><linearGradient id="JxJFw6uZIECeqwcHAlv3ud" x1="29.585" x2="31.732" y1="35.606" y2="30.404" gradientTransform="matrix(1 0 0 -1 0 47.89)" gradientUnits="userSpaceOnUse"><stop offset="0" stop-color="#ccc"/><stop offset="1" stop-color="#fff"/></linearGradient><circle cx="30.5" cy="14.5" r="2.5" fill="url(#JxJFw6uZIECeqwcHAlv3ud)"/><linearGradient id="JxJFw6uZIECeqwcHAlv3ue" x1="37.664" x2="39.811" y1="35.415" y2="30.214" gradientTransform="matrix(1 0 0 -1 0 47.89)" gradientUnits="userSpaceOnUse"><stop offset="0" stop-color="#ccc"/><stop offset="1" stop-color="#fff"/></linearGradient><circle cx="38.5" cy="14.5" r="2.5" fill="url(#JxJFw6uZIECeqwcHAlv3ue)"/><linearGradient id="JxJFw6uZIECeqwcHAlv3uf" x1="29.568" x2="31.715" y1="27.648" y2="22.447" gradientTransform="matrix(1 0 0 -1 0 47.89)" gradientUnits="userSpaceOnUse"><stop offset="0" stop-color="#ccc"/><stop offset="1" stop-color="#fff"/></linearGradient><circle cx="30.5" cy="22.5" r="2.5" fill="url(#JxJFw6uZIECeqwcHAlv3uf)"/><linearGradient id="JxJFw6uZIECeqwcHAlv3ug" x1="37.622" x2="39.769" y1="27.517" y2="22.316" gradientTransform="matrix(1 0 0 -1 0 47.89)" gradientUnits="userSpaceOnUse"><stop offset="0" stop-color="#ccc"/><stop offset="1" stop-color="#fff"/></linearGradient><circle cx="38.5" cy="22.5" r="2.5" fill="url(#JxJFw6uZIECeqwcHAlv3ug)"/><linearGradient id="JxJFw6uZIECeqwcHAlv3uh" x1="29.598" x2="31.744" y1="15.577" y2="10.375" gradientTransform="matrix(1 0 0 -1 0 47.89)" gradientUnits="userSpaceOnUse"><stop offset="0" stop-color="#ccc"/><stop offset="1" stop-color="#fff"/></linearGradient><circle cx="30.5" cy="34.5" r="2.5" fill="url(#JxJFw6uZIECeqwcHAlv3uh)"/><linearGradient id="JxJFw6uZIECeqwcHAlv3ui" x1="37.558" x2="39.705" y1="15.672" y2="10.47" gradientTransform="matrix(1 0 0 -1 0 47.89)" gradientUnits="userSpaceOnUse"><stop offset="0" stop-color="#ccc"/><stop offset="1" stop-color="#fff"/></linearGradient><circle cx="38.5" cy="34.5" r="2.5" fill="url(#JxJFw6uZIECeqwcHAlv3ui)"/><linearGradient id="JxJFw6uZIECeqwcHAlv3uj" x1="29.796" x2="31.204" y1="34.715" y2="32.065" gradientTransform="matrix(1 0 0 -1 0 47.89)" gradientUnits="userSpaceOnUse"><stop offset="0" stop-color="#737b80"/><stop offset=".473" stop-color="#686f74"/><stop offset="1" stop-color="#575c61"/></linearGradient><circle cx="30.5" cy="14.5" r="1.5" fill="url(#JxJFw6uZIECeqwcHAlv3uj)"/><linearGradient id="JxJFw6uZIECeqwcHAlv3uk" x1="37.796" x2="39.204" y1="34.715" y2="32.065" gradientTransform="matrix(1 0 0 -1 0 47.89)" gradientUnits="userSpaceOnUse"><stop offset="0" stop-color="#737b80"/><stop offset=".473" stop-color="#686f74"/><stop offset="1" stop-color="#575c61"/></linearGradient><circle cx="38.5" cy="14.5" r="1.5" fill="url(#JxJFw6uZIECeqwcHAlv3uk)"/><linearGradient id="JxJFw6uZIECeqwcHAlv3ul" x1="29.796" x2="31.204" y1="26.715" y2="24.065" gradientTransform="matrix(1 0 0 -1 0 47.89)" gradientUnits="userSpaceOnUse"><stop offset="0" stop-color="#737b80"/><stop offset=".473" stop-color="#686f74"/><stop offset="1" stop-color="#575c61"/></linearGradient><circle cx="30.5" cy="22.5" r="1.5" fill="url(#JxJFw6uZIECeqwcHAlv3ul)"/><linearGradient id="JxJFw6uZIECeqwcHAlv3um" x1="37.796" x2="39.204" y1="26.715" y2="24.065" gradientTransform="matrix(1 0 0 -1 0 47.89)" gradientUnits="userSpaceOnUse"><stop offset="0" stop-color="#737b80"/><stop offset=".473" stop-color="#686f74"/><stop offset="1" stop-color="#575c61"/></linearGradient><circle cx="38.5" cy="22.5" r="1.5" fill="url(#JxJFw6uZIECeqwcHAlv3um)"/><linearGradient id="JxJFw6uZIECeqwcHAlv3un" x1="29.796" x2="31.204" y1="14.715" y2="12.065" gradientTransform="matrix(1 0 0 -1 0 47.89)" gradientUnits="userSpaceOnUse"><stop offset="0" stop-color="#737b80"/><stop offset=".473" stop-color="#686f74"/><stop offset="1" stop-color="#575c61"/></linearGradient><circle cx="30.5" cy="34.5" r="1.5" fill="url(#JxJFw6uZIECeqwcHAlv3un)"/><linearGradient id="JxJFw6uZIECeqwcHAlv3uo" x1="37.796" x2="39.204" y1="14.715" y2="12.065" gradientTransform="matrix(1 0 0 -1 0 47.89)" gradientUnits="userSpaceOnUse"><stop offset="0" stop-color="#737b80"/><stop offset=".473" stop-color="#686f74"/><stop offset="1" stop-color="#575c61"/></linearGradient><circle cx="38.5" cy="34.5" r="1.5" fill="url(#JxJFw6uZIECeqwcHAlv3uo)"/><circle cx="38.5" cy="28.5" r="1.5" fill="#61e3a7"/><circle cx="30.5" cy="28.5" r="1.5" fill="#61e3a7"/><linearGradient id="JxJFw6uZIECeqwcHAlv3up" x1="13.5" x2="13.5" y1="29.565" y2="14.323" gradientTransform="matrix(1 0 0 -1 0 47.89)" gradientUnits="userSpaceOnUse"><stop offset="0" stop-color="#2aa4f4"/><stop offset=".431" stop-color="#2aa4f4"/><stop offset=".502" stop-color="#2aa4f4"/><stop offset=".541" stop-color="#28a2f3"/><stop offset=".555" stop-color="#219bee"/><stop offset=".565" stop-color="#1690e7"/><stop offset=".573" stop-color="#057fdc"/><stop offset=".574" stop-color="#007ad9"/><stop offset=".702" stop-color="#007ad9"/><stop offset=".705" stop-color="#057fdc"/><stop offset=".718" stop-color="#1690e7"/><stop offset=".735" stop-color="#219bee"/><stop offset=".758" stop-color="#28a2f3"/><stop offset=".822" stop-color="#2aa4f4"/><stop offset="1" stop-color="#2aa4f4"/></linearGradient><path fill="url(#JxJFw6uZIECeqwcHAlv3up)" d="M10,18h7v16h-7V18z"/></svg>