<svg xmlns="http://www.w3.org/2000/svg" viewBox="0 0 48 48"><linearGradient id="VkYP9pfGGZjXyeySUn~v_a" x1="10.382" x2="32.68" y1="5.008" y2="29.008" gradientUnits="userSpaceOnUse"><stop offset="0" stop-color="#0176d0"/><stop offset="1" stop-color="#16538c"/></linearGradient><path fill="url(#VkYP9pfGGZjXyeySUn~v_a)" d="M39.799,26H35V6c0-1.105-0.895-2-2-2H15c-1.105,0-2,0.895-2,2v20H8.201	c-1.065,0-1.598,1.287-0.845,2.04l15.476,15.476C23.154,43.839,23.577,44,24,44c0.211,0,0.423-0.04,0.622-0.121	s0.385-0.202,0.546-0.363L40.644,28.04C41.397,27.287,40.864,26,39.799,26z"/><path d="M19.197,29.958c-0.937,0-1.699-0.763-1.699-1.699v-1.44c0-0.745,0.477-1.396,1.188-1.62	c0.83-0.263,1.139-0.729,1.139-1.72v-0.297h-0.403c-0.937,0-1.699-0.763-1.699-1.699v-1.504c0-0.937,0.762-1.699,1.699-1.699h0.403	v-1.012c0-1.767,0.54-3.257,1.604-4.43C22.538,11.618,23.974,11,25.697,11c1.061,0,2.051,0.193,2.942,0.574	c0.627,0.269,1.032,0.882,1.032,1.563v1.653c0,0.604-0.325,1.168-0.847,1.47c-0.256,0.149-0.551,0.229-0.851,0.229	c-0.296,0-0.588-0.077-0.843-0.224c-0.456-0.259-0.917-0.385-1.411-0.385c-0.332,0-0.745,0-0.745,1.577v0.819h1.46	c0.937,0,1.699,0.763,1.699,1.699v1.505c0,0.937-0.762,1.699-1.699,1.699h-1.46c-0.003,0.676-0.09,1.307-0.26,1.884h4.089	c0.454,0,0.88,0.177,1.202,0.498s0.498,0.749,0.497,1.204v1.491c0,0.937-0.762,1.699-1.699,1.699H19.197z" opacity=".05"/><path d="M19.197,29.458c-0.661,0-1.199-0.538-1.199-1.199v-1.44c0-0.526,0.337-0.985,0.838-1.144	c1.043-0.33,1.489-0.986,1.489-2.196v-0.797h-0.903c-0.661,0-1.199-0.538-1.199-1.199v-1.504c0-0.661,0.538-1.199,1.199-1.199h0.903	v-1.512c0-1.639,0.496-3.016,1.474-4.094c1.01-1.11,2.321-1.674,3.898-1.674c0.993,0,1.917,0.18,2.746,0.534	c0.442,0.189,0.729,0.623,0.729,1.104v1.653c0,0.427-0.229,0.824-0.597,1.037c-0.18,0.105-0.389,0.162-0.601,0.162	c-0.208,0-0.414-0.054-0.594-0.157c-0.535-0.304-1.077-0.451-1.66-0.451c-0.466,0-1.245,0-1.245,2.077v1.319h1.96	c0.661,0,1.199,0.538,1.199,1.199v1.505c0,0.661-0.538,1.199-1.199,1.199h-1.96v0.466c0,0.908-0.16,1.718-0.478,2.418h4.807	c0.32,0,0.622,0.125,0.848,0.352s0.351,0.528,0.351,0.85v1.492c0,0.661-0.538,1.199-1.199,1.199H19.197z" opacity=".07"/><path fill="#fff" d="M28.803,26.065h-5.673c0.561-0.771,0.843-1.747,0.843-2.918v-0.966h2.46	c0.386,0,0.699-0.313,0.699-0.699v-1.505c0-0.386-0.313-0.699-0.699-0.699h-2.46v-1.819c0-2.577,1.223-2.577,1.745-2.577	c0.671,0,1.295,0.169,1.906,0.516c0.217,0.123,0.483,0.123,0.698-0.003c0.216-0.125,0.348-0.355,0.348-0.604v-1.653	c0-0.28-0.167-0.533-0.425-0.644C27.478,12.167,26.62,12,25.697,12c-1.431,0-2.617,0.508-3.528,1.51	c-0.892,0.983-1.344,2.246-1.344,3.757v2.012h-1.403c-0.386,0-0.699,0.313-0.699,0.699v1.505c0,0.386,0.313,0.699,0.699,0.699h1.403	v1.297c0,1.427-0.584,2.276-1.838,2.673c-0.291,0.092-0.488,0.362-0.488,0.667v1.441c0,0.386,0.313,0.699,0.699,0.699h9.605	c0.386,0,0.699-0.313,0.699-0.699v-1.494C29.503,26.379,29.189,26.065,28.803,26.065z"/></svg>