<svg xmlns="http://www.w3.org/2000/svg" viewBox="0 0 48 48"><linearGradient id="RIP4cFLkwoo_oDb7pGzC_a" x1="24" x2="24" y1="17" y2="21" gradientUnits="userSpaceOnUse"><stop offset="0" stop-color="#889097"/><stop offset="1" stop-color="#4c5963"/></linearGradient><path fill="url(#RIP4cFLkwoo_oDb7pGzC_a)" d="M10,17h28c0.552,0,1,0.448,1,1v2c0,0.552-0.448,1-1,1H10c-0.552,0-1-0.448-1-1v-2 C9,17.448,9.448,17,10,17z"/><linearGradient id="RIP4cFLkwoo_oDb7pGzC_b" x1="24" x2="24" y1="27" y2="31" gradientUnits="userSpaceOnUse"><stop offset="0" stop-color="#889097"/><stop offset="1" stop-color="#4c5963"/></linearGradient><path fill="url(#RIP4cFLkwoo_oDb7pGzC_b)" d="M7,27h34c0.552,0,1,0.448,1,1v2c0,0.552-0.448,1-1,1H7c-0.552,0-1-0.448-1-1v-2 C6,27.448,6.448,27,7,27z"/><linearGradient id="RIP4cFLkwoo_oDb7pGzC_c" x1="24" x2="24" y1="37" y2="41" gradientUnits="userSpaceOnUse"><stop offset="0" stop-color="#889097"/><stop offset="1" stop-color="#4c5963"/></linearGradient><path fill="url(#RIP4cFLkwoo_oDb7pGzC_c)" d="M10,37h28c0.552,0,1,0.448,1,1v2c0,0.552-0.448,1-1,1H10c-0.552,0-1-0.448-1-1v-2 C9,37.448,9.448,37,10,37z"/><linearGradient id="RIP4cFLkwoo_oDb7pGzC_d" x1="24" x2="24" y1="7" y2="11" gradientUnits="userSpaceOnUse"><stop offset="0" stop-color="#889097"/><stop offset="1" stop-color="#4c5963"/></linearGradient><path fill="url(#RIP4cFLkwoo_oDb7pGzC_d)" d="M7,7h34c0.552,0,1,0.448,1,1v2c0,0.552-0.448,1-1,1H7c-0.552,0-1-0.448-1-1V8 C6,7.448,6.448,7,7,7z"/></svg>