<svg xmlns="http://www.w3.org/2000/svg" viewBox="0 0 48 48"><radialGradient id="8BtECwQX0yXixXXYiYlOGa" cx="33.596" cy="16.936" r="7.383" gradientTransform="matrix(1 0 0 .9285 0 .999)" gradientUnits="userSpaceOnUse"><stop offset=".706" stop-color="#787f85"/><stop offset=".713" stop-color="#7a8187"/><stop offset=".793" stop-color="#90989f"/><stop offset=".868" stop-color="#9da5ae"/><stop offset=".93" stop-color="#a1aab3"/></radialGradient><rect width="5" height="12" x="31" y="18" fill="url(#8BtECwQX0yXixXXYiYlOGa)"/><rect width="37" height="5" x="5" y="34" fill="#ab560c"/><linearGradient id="8BtECwQX0yXixXXYiYlOGb" x1="5" x2="42" y1="32" y2="32" gradientUnits="userSpaceOnUse"><stop offset="0" stop-color="#dd7d22"/><stop offset="1" stop-color="#d97218"/></linearGradient><rect width="37" height="6" x="5" y="29" fill="url(#8BtECwQX0yXixXXYiYlOGb)"/><linearGradient id="8BtECwQX0yXixXXYiYlOGc" x1="5" x2="42" y1="41" y2="41" gradientUnits="userSpaceOnUse"><stop offset="0" stop-color="#dd7d22"/><stop offset="1" stop-color="#d97218"/></linearGradient><rect width="37" height="6" x="5" y="38" fill="url(#8BtECwQX0yXixXXYiYlOGc)"/><path fill="#ad570d" d="M5.5,45L5.5,45C4.672,45,4,44.328,4,43.5v-19C4,23.672,4.672,23,5.5,23h0C6.328,23,7,23.672,7,24.5 v19C7,44.328,6.328,45,5.5,45z"/><path fill="#ad570d" d="M42.5,45L42.5,45c-0.828,0-1.5-0.672-1.5-1.5v-19c0-0.828,0.672-1.5,1.5-1.5l0,0 c0.828,0,1.5,0.672,1.5,1.5v19C44,44.328,43.328,45,42.5,45z"/><linearGradient id="8BtECwQX0yXixXXYiYlOGd" x1="14.818" x2="15.182" y1="16.886" y2="26.108" gradientUnits="userSpaceOnUse"><stop offset="0" stop-color="#ffd869"/><stop offset=".454" stop-color="#ffd04f"/><stop offset="1" stop-color="#fec52b"/></linearGradient><rect width="6" height="15" x="12" y="14" fill="url(#8BtECwQX0yXixXXYiYlOGd)"/><linearGradient id="8BtECwQX0yXixXXYiYlOGe" x1="13.106" x2="17.614" y1="8.992" y2="17.897" gradientUnits="userSpaceOnUse"><stop offset="0" stop-color="#889097"/><stop offset=".331" stop-color="#848c94"/><stop offset=".669" stop-color="#78828b"/><stop offset="1" stop-color="#64717c"/></linearGradient><path fill="url(#8BtECwQX0yXixXXYiYlOGe)" d="M22.926,16H8.074C7.481,16,7,15.519,7,14.926V9.074C7,8.481,7.481,8,8.074,8h10.549 c0.244,0,0.481,0.083,0.671,0.235l4.302,3.442C23.852,11.881,24,12.19,24,12.516v2.409C24,15.519,23.519,16,22.926,16z"/><linearGradient id="8BtECwQX0yXixXXYiYlOGf" x1="30.901" x2="36.648" y1="10.383" y2="19.431" gradientUnits="userSpaceOnUse"><stop offset="0" stop-color="#a1aab3"/><stop offset="1" stop-color="#8f979e"/></linearGradient><path fill="url(#8BtECwQX0yXixXXYiYlOGf)" d="M36,9.311l0,4.046c0,1.308-0.941,2.499-2.242,2.63C32.261,16.137,31,14.966,31,13.5V9.311 c0-0.386-0.422-0.63-0.756-0.436c-1.973,1.145-3.289,3.296-3.242,5.752c0.066,3.438,2.964,6.322,6.402,6.372 C37.038,21.052,40,18.122,40,14.5c0-2.401-1.303-4.497-3.239-5.623C36.425,8.682,36,8.923,36,9.311z"/></svg>