<svg xmlns="http://www.w3.org/2000/svg" viewBox="0 0 48 48"><path fill="#0078d4" d="M20.748,35.582l9.906-12.615c0.343-0.437,0.975-0.513,1.412-0.17 c0.381,0.299,0.487,0.818,0.281,1.235l-7.094,14.385c-0.654,1.326-2.258,1.87-3.584,1.217s-1.87-2.258-1.217-3.584 C20.534,35.886,20.639,35.722,20.748,35.582z"/><path fill="#35c1f1" d="M23,32c-2.761,0-5,2.239-5,5s2.239,5,5,5s5-2.239,5-5S25.761,32,23,32z"/><linearGradient id="tLHW2Dvd079fGOpf64xvBa" x1="11.588" x2="13.806" y1="5.139" y2="18.208" gradientUnits="userSpaceOnUse"><stop offset="0" stop-color="#fcfcfc"/><stop offset="1" stop-color="#c3c9cd"/></linearGradient><path fill="url(#tLHW2Dvd079fGOpf64xvBa)" d="M18.203,8.021C17.168,6.217,15.228,5,13,5c-2.975,0-5.438,2.168-5.911,5.009	C7.058,10.008,7.03,10,7,10c-2.209,0-4,1.791-4,4c0,2.209,1.791,4,4,4c1.339,0,9.739,0,11,0c2.761,0,5-2.239,5-5	C23,10.308,20.868,8.129,18.203,8.021z"/><radialGradient id="tLHW2Dvd079fGOpf64xvBb" cx="39" cy="12" r="8" gradientUnits="userSpaceOnUse"><stop offset=".724" stop-color="#ffed54"/><stop offset=".779" stop-color="#ffe649"/><stop offset=".877" stop-color="#ffd22d"/><stop offset="1" stop-color="#ffb300"/></radialGradient><path fill="url(#tLHW2Dvd079fGOpf64xvBb)" d="M39,4l0.517,0.536c0.338,0.351,0.868,0.435,1.299,0.206l0.657-0.35l0.326,0.669	c0.213,0.438,0.691,0.682,1.171,0.597l0.733-0.13l0.103,0.737c0.067,0.483,0.447,0.862,0.93,0.93l0.737,0.103l-0.13,0.733	c-0.085,0.48,0.159,0.958,0.597,1.171l0.669,0.326l-0.35,0.657c-0.229,0.43-0.145,0.96,0.206,1.299L47,12l-0.536,0.517	c-0.351,0.338-0.435,0.868-0.206,1.299l0.35,0.657l-0.669,0.326c-0.438,0.213-0.682,0.691-0.597,1.171l0.13,0.733l-0.737,0.103	c-0.483,0.067-0.862,0.447-0.93,0.93l-0.103,0.737l-0.733-0.13c-0.48-0.085-0.958,0.159-1.171,0.597l-0.326,0.669l-0.657-0.35	c-0.43-0.229-0.96-0.145-1.299,0.206L39,20l-0.517-0.536c-0.338-0.351-0.868-0.435-1.299-0.206l-0.657,0.35l-0.326-0.669	c-0.213-0.438-0.691-0.682-1.171-0.597l-0.733,0.13l-0.103-0.737c-0.067-0.483-0.447-0.862-0.93-0.93l-0.737-0.103l0.13-0.733	c0.085-0.48-0.159-0.958-0.597-1.171l-0.669-0.326l0.35-0.657c0.229-0.43,0.145-0.96-0.206-1.299L31,12l0.536-0.517	c0.351-0.338,0.435-0.868,0.206-1.299l-0.35-0.657l0.669-0.326c0.438-0.213,0.682-0.691,0.597-1.171l-0.13-0.733l0.737-0.103	c0.483-0.067,0.862-0.447,0.93-0.93l0.103-0.737l0.733,0.13c0.48,0.085,0.958-0.159,1.171-0.597l0.326-0.669l0.657,0.35	c0.43,0.229,0.96,0.145,1.299-0.206L39,4z"/><linearGradient id="tLHW2Dvd079fGOpf64xvBc" x1="33.385" x2="43.234" y1="6.385" y2="16.234" gradientUnits="userSpaceOnUse"><stop offset="0" stop-color="#fed100"/><stop offset="1" stop-color="#e36001"/></linearGradient><path fill="url(#tLHW2Dvd079fGOpf64xvBc)" d="M39,6c-3.314,0-6,2.686-6,6s2.686,6,6,6s6-2.686,6-6S42.314,6,39,6z"/></svg>