<svg xmlns="http://www.w3.org/2000/svg" viewBox="0 0 48 48"><linearGradient id="JTQ_kDa35FEVEsChw0bAga" x1="6" x2="42" y1="23" y2="23" gradientUnits="userSpaceOnUse"><stop offset="0" stop-color="#11408a"/><stop offset="1" stop-color="#103f8f"/></linearGradient><path fill="url(#JTQ_kDa35FEVEsChw0bAga)" d="M40,43H8c-1.105,0-2-0.895-2-2V20L24,3l18,17v21C42,42.105,41.105,43,40,43z"/><path d="M24,4c-0.474,0-0.948,0.168-1.326,0.503l-5.359,4.811L6,20v5.39L24,9.428	L42,25.39V20L30.685,9.314l-5.359-4.811C24.948,4.168,24.474,4,24,4z" opacity=".05"/><path d="M24,3c-0.474,0-0.948,0.167-1.326,0.5l-5.359,4.784L6,18.909v5.359	L24,8.397l18,15.871v-5.359L30.685,8.284L25.326,3.5C24.948,3.167,24.474,3,24,3z" opacity=".07"/><linearGradient id="JTQ_kDa35FEVEsChw0bAgb" x1="3.17" x2="44.83" y1="12.499" y2="12.499" gradientUnits="userSpaceOnUse"><stop offset="0" stop-color="#1d59b3"/><stop offset="1" stop-color="#195bbc"/></linearGradient><path fill="url(#JTQ_kDa35FEVEsChw0bAgb)" d="M44.495,19.507L25.326,2.503C24.948,2.168,24.474,2,24,2s-0.948,0.168-1.326,0.503	L3.505,19.507c-0.42,0.374-0.449,1.02-0.064,1.43l1.636,1.745c0.369,0.394,0.984,0.424,1.39,0.067L24,7.428L41.533,22.75	c0.405,0.356,1.021,0.327,1.39-0.067l1.636-1.745C44.944,20.527,44.915,19.881,44.495,19.507z"/><polygon fill="#c98e00" points="25.105,40.341 32.34,36.347 31.27,34.096 25,37"/><circle cx="31.75" cy="35.25" r="1.25" fill="#c98e00"/><linearGradient id="JTQ_kDa35FEVEsChw0bAgc" x1="13.5" x2="34.5" y1="354" y2="354" gradientTransform="matrix(1 0 0 -1 0 390)" gradientUnits="userSpaceOnUse"><stop offset="0" stop-color="#ffcf54"/><stop offset=".261" stop-color="#fdcb4d"/><stop offset=".639" stop-color="#f7c13a"/><stop offset="1" stop-color="#f0b421"/></linearGradient><path fill="url(#JTQ_kDa35FEVEsChw0bAgc)" d="M34.5,35.75c0-0.69-0.56-1.25-1.25-1.25c-0.17,0-0.332,0.035-0.479,0.096l0,0l-0.006,0.002	c-0.001,0-0.002,0.001-0.003,0.001L26.5,37.5L25.75,37c0.691,0,1.25-0.56,1.25-1.25c0-0.465-0.257-0.866-0.633-1.082l0.002-0.008	l-6.826-3.433h-0.012C19.215,31.084,18.868,31,18.5,31c-0.359,0-0.698,0.078-1.007,0.215h-0.011L13.5,33v6.5l4.045-1.859	l7.955,3.254h0C25.654,40.962,25.823,41,26,41c0.217,0,0.419-0.061,0.597-0.159l0.008,0l7.235-3.994l0-0.001	C34.231,36.634,34.5,36.226,34.5,35.75z"/><circle cx="25.75" cy="35.75" r=".75" fill="#ffde87"/><linearGradient id="JTQ_kDa35FEVEsChw0bAgd" x1="23.168" x2="24.061" y1="352.316" y2="353.856" gradientTransform="matrix(1 0 0 -1 0 390)" gradientUnits="userSpaceOnUse"><stop offset="0" stop-color="#f0b421" stop-opacity="0"/><stop offset=".512" stop-color="#e9ab12" stop-opacity=".512"/><stop offset="1" stop-color="#e09f00"/></linearGradient><path fill="url(#JTQ_kDa35FEVEsChw0bAgd)" d="M26.5,37.5l-0.744-0.499c-0.628-0.03-1.121-0.234-5.256-1.757V37l5.775,2.367	C26.275,39.367,25.867,38.226,26.5,37.5z"/><linearGradient id="JTQ_kDa35FEVEsChw0bAge" x1="21.599" x2="27.238" y1="371.609" y2="362.925" gradientTransform="matrix(1 0 0 -1 0 390)" gradientUnits="userSpaceOnUse"><stop offset="0" stop-color="#f44f5a"/><stop offset=".443" stop-color="#ee3d4a"/><stop offset="1" stop-color="#e52030"/></linearGradient><path fill="url(#JTQ_kDa35FEVEsChw0bAge)" d="M24,20.5c0,0,1.343-1.5,3-1.5s3,1.361,3,3c0,2.82-4.419,6.039-5.672,6.896	c-0.199,0.136-0.457,0.136-0.655,0C22.419,28.039,18,24.82,18,22c0-1.639,1.343-3,3-3S24,20.5,24,20.5z"/></svg>