<svg xmlns="http://www.w3.org/2000/svg" viewBox="0 0 48 48"><linearGradient id="_4P5RvolaUZ599Y5~K8Vta" x1="24" x2="24" y1="1646.939" y2="1684.939" gradientTransform="translate(0 -1642)" gradientUnits="userSpaceOnUse"><stop offset="0" stop-color="#f0f0f0"/><stop offset="1" stop-color="#bbc1c4"/></linearGradient><path fill="url(#_4P5RvolaUZ599Y5~K8Vta)" d="M40,43H8c-1.105,0-2-0.895-2-2V15L24,5l18,10v26C42,42.105,41.105,43,40,43z"/><linearGradient id="_4P5RvolaUZ599Y5~K8Vtb" x1="24" x2="24" y1="732.665" y2="716.956" gradientTransform="translate(0 -690)" gradientUnits="userSpaceOnUse"><stop offset="0" stop-color="#393c40"/><stop offset=".102" stop-color="#35383c"/><stop offset=".471" stop-color="#2d3033"/><stop offset="1" stop-color="#2b2e30"/></linearGradient><rect width="30" height="16" x="9" y="27" fill="url(#_4P5RvolaUZ599Y5~K8Vtb)"/><rect width="30" height="2" x="9" y="25" fill="#64717c"/><path fill="#64717c" d="M39,23H9v-1c0-0.552,0.448-1,1-1h28c0.552,0,1,0.448,1,1V23z"/><rect width="30" height="2" x="9" y="23" fill="#889097"/><linearGradient id="_4P5RvolaUZ599Y5~K8Vtc" x1="23.999" x2="23.999" y1="1645.049" y2="1658.827" gradientTransform="translate(0 -1642)" gradientUnits="userSpaceOnUse"><stop offset="0" stop-color="#0176d0"/><stop offset="1" stop-color="#16538c"/></linearGradient><path fill="url(#_4P5RvolaUZ599Y5~K8Vtc)" d="M41.654,17.096L24,7.288L6.346,17.096c-0.483,0.268-1.092,0.094-1.36-0.388l-0.972-1.749	c-0.268-0.483-0.094-1.092,0.388-1.36l18.14-10.078c0.906-0.503,2.008-0.503,2.914,0l18.14,10.078	c0.483,0.268,0.657,0.877,0.388,1.36l-0.972,1.749C42.746,17.191,42.137,17.365,41.654,17.096z"/><rect width="8" height="2" x="20" y="25" fill="#323538"/><path d="M24,29c-0.459,0-0.887,0.206-1.174,0.564l-1.966,2.48c-0.361,0.453-0.429,1.06-0.177,1.582	c0.246,0.514,0.749,0.836,1.316,0.85v5.92c0,0.827,0.673,1.5,1.5,1.5h1c0.827,0,1.5-0.673,1.5-1.5v-5.92	c0.567-0.014,1.07-0.336,1.316-0.85c0.252-0.522,0.184-1.13-0.179-1.584l-1.963-2.476C24.888,29.206,24.46,29,24,29z" opacity=".05"/><path d="M24,29.5c-0.307,0-0.592,0.138-0.783,0.377l-1.965,2.479c-0.24,0.302-0.286,0.706-0.118,1.055	c0.168,0.35,0.514,0.566,0.901,0.566H22.5v6.42c0,0.552,0.448,1,1,1h1c0.552,0,1-0.448,1-1v-6.42h0.465	c0.388,0,0.733-0.217,0.901-0.566c0.168-0.349,0.122-0.753-0.119-1.056l-1.964-2.477C24.592,29.638,24.307,29.5,24,29.5z" opacity=".07"/><path fill="#50e6ff" d="M25.965,33.476H25v6.92c0,0.276-0.224,0.5-0.5,0.5h-1c-0.276,0-0.5-0.224-0.5-0.5v-6.92h-0.965	c-0.418,0-0.652-0.483-0.392-0.811l1.965-2.477c0.2-0.252,0.583-0.252,0.783,0l1.965,2.477	C26.617,32.993,26.383,33.476,25.965,33.476z"/></svg>