<svg xmlns="http://www.w3.org/2000/svg" viewBox="0 0 48 48"><linearGradient id="JVkXv4H8_J8oUP9FDbbYca" x1="42.294" x2="4.275" y1="6.722" y2="44.741" gradientUnits="userSpaceOnUse"><stop offset="0" stop-color="#f44f5a"/><stop offset=".443" stop-color="#ee3d4a"/><stop offset="1" stop-color="#e52030"/></linearGradient><path fill="url(#JVkXv4H8_J8oUP9FDbbYca)" d="M41.383,10.876l-2.492-5.992L27.327,16.669c-0.662,0.675-1.542,1.074-2.482,1.18	c-4.237,0.475-10.409,2.732-14.583,6.906c-5,5-7.155,13.345-3.25,17.25c3.905,3.905,12.25,1.75,17.25-3.25	C30.262,32.755,41.383,10.876,41.383,10.876z"/><linearGradient id="JVkXv4H8_J8oUP9FDbbYcb" x1="38.217" x2="45.162" y1="9.998" y2="3.053" gradientUnits="userSpaceOnUse"><stop offset=".002" stop-color="#454545"/><stop offset=".013" stop-color="#464646"/><stop offset=".875" stop-color="#626262"/><stop offset="1" stop-color="#6d6d6d"/></linearGradient><path fill="url(#JVkXv4H8_J8oUP9FDbbYcb)" d="M41.383,10.876l-4.242-4.242l3.997-4.209C41.448,2.097,42,2.317,42,2.769v4.247l2.122,0.707	c0.377,0.126,0.464,0.62,0.152,0.867L41.383,10.876z"/><ellipse cx="14.502" cy="28.515" fill="#f09ca2" rx="10.607" ry="5.657" transform="rotate(-45.001 14.501 28.515)"/><linearGradient id="JVkXv4H8_J8oUP9FDbbYcc" x1="30.827" x2="7.772" y1="12.196" y2="35.251" gradientUnits="userSpaceOnUse"><stop offset="0" stop-color="#f44f5a"/><stop offset=".443" stop-color="#ee3d4a"/><stop offset="1" stop-color="#e52030"/></linearGradient><path fill="url(#JVkXv4H8_J8oUP9FDbbYcc)" d="M17.393,29.992c0.206,0.206,0.552,0.194,0.74-0.029c2.82-3.343,3.401-6.588,2.455-7.534 c-0.344-0.344-0.921-0.416-1.344-0.416c-1.751,0-4.072,1.102-6.185,2.877c-0.224,0.188-0.235,0.533-0.028,0.74L17.393,29.992z"/><linearGradient id="JVkXv4H8_J8oUP9FDbbYcd" x1="30.822" x2="7.767" y1="12.192" y2="35.247" gradientUnits="userSpaceOnUse"><stop offset="0" stop-color="#f44f5a"/><stop offset=".443" stop-color="#ee3d4a"/><stop offset="1" stop-color="#e52030"/></linearGradient><path fill="url(#JVkXv4H8_J8oUP9FDbbYcd)" d="M11.614,27.041c-0.207-0.207-0.552-0.196-0.74,0.028c-1.229,1.465-2.149,3.052-2.59,4.503 c-0.423,1.391-0.373,2.523,0.133,3.029c0.344,0.344,0.92,0.416,1.344,0.416c1.75,0,4.072-1.102,6.185-2.877 c0.224-0.188,0.235-0.533,0.028-0.74L11.614,27.041z"/></svg>