<svg xmlns="http://www.w3.org/2000/svg" data-name="Слой 1" viewBox="0 0 48 48"><defs><linearGradient id="7UNjbkOzcMugdKlCKnw55b" x1="27.5" x2="27.5" y1="3.418" y2="11.201" data-name="Безымянный градиент 121" gradientUnits="userSpaceOnUse"><stop offset="0" stop-color="#f44f5a"/><stop offset=".443" stop-color="#ee3d4a"/><stop offset="1" stop-color="#e52030"/></linearGradient><linearGradient id="7UNjbkOzcMugdKlCKnw55c" x1="21.704" x2="24.574" y1="8.568" y2="40.981" data-name="Безымянный градиент 9" gradientUnits="userSpaceOnUse"><stop offset="0" stop-color="#ffcf54"/><stop offset=".261" stop-color="#fdcb4d"/><stop offset=".639" stop-color="#f7c13a"/><stop offset="1" stop-color="#f0b421"/></linearGradient><linearGradient id="7UNjbkOzcMugdKlCKnw55d" x1="24" x2="24" y1="25.326" y2="37.658" data-name="Безымянный градиент 129" gradientUnits="userSpaceOnUse"><stop offset="0" stop-color="#ffd869"/><stop offset="1" stop-color="#fec52b"/></linearGradient><radialGradient id="7UNjbkOzcMugdKlCKnw55a" cx="14.598" cy="12.32" r="25.169" data-name="Безымянный градиент 35" gradientUnits="userSpaceOnUse"><stop offset="0" stop-color="#2aa4f4"/><stop offset="1" stop-color="#007ad9"/></radialGradient></defs><path fill="url(#7UNjbkOzcMugdKlCKnw55a)" d="M24,10.99427h0a9,9,0,0,1,9,9v8a0,0,0,0,1,0,0H15a0,0,0,0,1,0,0v-8A9,9,0,0,1,24,10.99427Z"/><rect width="18" height="6.006" x="15" y="19.994" fill="#eba600"/><rect width="4" height="5" x="19" y="21.994" fill="#c28200"/><rect width="4" height="5" x="25" y="21.994" fill="#c28200"/><path fill="url(#7UNjbkOzcMugdKlCKnw55b)" d="M30.49036,9.9884c-3.25429-.07819-2.72919-.91225-5.993-.98855A.50456.50456,0,0,1,24,8.50066V5.50074a.50135.50135,0,0,1,.50964-.5006c3.25429.07819,2.72919.91226,5.993.98855A.50457.50457,0,0,1,31,6.48788V9.4878A.50134.50134,0,0,1,30.49036,9.9884Z"/><rect width="40" height="17" x="4" y="26" fill="url(#7UNjbkOzcMugdKlCKnw55c)"/><rect width="42" height="2" x="3" y="25" fill="url(#7UNjbkOzcMugdKlCKnw55d)" rx="1"/><rect width="4" height="5" x="7" y="29" fill="#c28200"/><rect width="4" height="5" x="7" y="36" fill="#c28200"/><rect width="4" height="5" x="13" y="29" fill="#c28200"/><rect width="4" height="5" x="13" y="36" fill="#c28200"/><rect width="4" height="5" x="19" y="29" fill="#c28200"/><rect width="4" height="5" x="19" y="36" fill="#c28200"/><rect width="4" height="5" x="25" y="29" fill="#c28200"/><rect width="4" height="5" x="25" y="36" fill="#c28200"/><rect width="4" height="5" x="31" y="29" fill="#c28200"/><rect width="4" height="5" x="31" y="36" fill="#c28200"/><rect width="4" height="5" x="37" y="29" fill="#c28200"/><rect width="4" height="5" x="37" y="36" fill="#c28200"/><rect width="18" height="1" x="15" y="24" opacity=".05"/><rect width="18" height=".5" x="15" y="24.5" opacity=".07"/><rect width="40" height="1" x="4" y="27" opacity=".05" transform="rotate(180 24 27.5)"/><rect width="40" height=".5" x="4" y="27" opacity=".07" transform="rotate(180 24 27.25)"/></svg>