<svg xmlns="http://www.w3.org/2000/svg" data-name="Слой 1" viewBox="0 0 48 48"><defs><radialGradient id="oqCSFx6s7oaAJ~gFwXyYia" cx="24" cy="20" r="5" data-name="Безымянный градиент 2" gradientUnits="userSpaceOnUse"><stop offset="0"/><stop offset=".011" stop-opacity=".989"/><stop offset="1" stop-opacity="0"/></radialGradient></defs><path fill="#0d62ab" d="M40,20a15.993,15.993,0,0,1-6.68,13.01c-.13.1-.27.19-.41.29l-.42.27a15.89592,15.89592,0,0,1-7.27,2.38c-.4.03-.81.05-1.22.05h-.02c-.36,0-.71-.01-1.06-.04a15.80822,15.80822,0,0,1-4.73-1.05c-.16-.06-.32-.12-.47-.19a3.823,3.823,0,0,1-.46-.21,14.18743,14.18743,0,0,1-1.76-.95l-.42-.27c-.14-.09-.28-.19-.41-.29A16.00064,16.00064,0,1,1,40,20Z"/><circle cx="24" cy="20" r="13" fill="#0078d4"/><circle cx="24" cy="20" r="10" fill="#199be2"/><circle cx="24" cy="20" r="7" fill="#35c1f1"/><circle cx="24" cy="20" r="5" fill="url(#oqCSFx6s7oaAJ~gFwXyYia)"/><path d="M24,22.1l-2.95,5.44L29.2,31.7Zm0,2.1,2.79,5.15-4.38-2.24Zm-3.91,5.1-2.83,5.21a3.823,3.823,0,0,0,.46.21c.15.07.31006.13.47.19l2.32-4.28,6.51,3.33-4.1,2c.35.03.7.04,1.06.04H24c.41,0,.82-.02,1.22-.05l4.04-1.97ZM24,22.1l-2.95,5.44L29.2,31.7Zm0,2.1,2.79,5.15-4.38-2.24Zm-3.91,5.1-2.83,5.21a3.823,3.823,0,0,0,.46.21c.15.07.31006.13.47.19l2.32-4.28,6.51,3.33-4.1,2c.35.03.7.04,1.06.04H24c.41,0,.82-.02,1.22-.05l4.04-1.97ZM24,22.1l-2.95,5.44L29.2,31.7Zm0,2.1,2.79,5.15-4.38-2.24Zm-3.91,5.1-2.83,5.21a3.823,3.823,0,0,0,.46.21c.15.07.31006.13.47.19l2.32-4.28,6.51,3.33-4.1,2c.35.03.7.04,1.06.04H24c.41,0,.82-.02,1.22-.05l4.04-1.97Zm5.67-10.25a2.00007,2.00007,0,0,0-3.52,0L14.67,33c.13.1.27.2.41.29l.42.27,7.62-14.04a1.00465,1.00465,0,0,1,1.76,0L32.49,33.57l.42-.27c.14-.1.28-.19.41-.29Z" opacity=".05"/><path d="M24,22.1l-2.95,5.44L29.2,31.7Zm0,1.05,4,7.38-6.27-3.2ZM20.09,29.3l-2.83,5.21a3.823,3.823,0,0,0,.46.21l2.58-4.76,7.84,4.01L23.98,36H24c.41,0,.82-.02,1.22-.05l4.04-1.97ZM24,22.1l-2.95,5.44L29.2,31.7Zm0,1.05,4,7.38-6.27-3.2ZM20.09,29.3l-2.83,5.21a3.823,3.823,0,0,0,.46.21l2.58-4.76,7.84,4.01L23.98,36H24c.41,0,.82-.02,1.22-.05l4.04-1.97ZM24,22.1l-2.95,5.44L29.2,31.7Zm0,1.05,4,7.38-6.27-3.2ZM20.09,29.3l-2.83,5.21a3.823,3.823,0,0,0,.46.21l2.58-4.76,7.84,4.01L23.98,36H24c.41,0,.82-.02,1.22-.05l4.04-1.97Zm5.23-10.01a1.50237,1.50237,0,0,0-2.64-.01l-7.6,14.01.42.27,7.62-14.04a1.00465,1.00465,0,0,1,1.76,0L32.49,33.57l.42-.27Z" opacity=".07"/><path fill="#50e6ff" d="M10.96777,45.01074a1.00026,1.00026,0,0,1-.87939-1.477L23.12109,19.523A.99989.99989,0,0,1,24,19h.00049a.99981.99981,0,0,1,.8789.52393l13,24a1,1,0,1,1-1.75878.95214l-4.97754-9.18945-19.73731,9.623A1.003,1.003,0,0,1,10.96777,45.01074Zm9.12354-15.71338L13.33594,41.74365l15.9248-7.76416Zm.95459-1.7583,8.15625,4.165-5.20313-9.606Z"/><circle cx="24" cy="20" r="4" fill="#50e6ff"/></svg>