<svg xmlns="http://www.w3.org/2000/svg" viewBox="0 0 48 48"><linearGradient id="2I31q8HIHwPnYZO1R4RP9a" x1="24" x2="34" y1="-330.407" y2="-330.407" gradientTransform="matrix(0 1 1 0 338 0)" gradientUnits="userSpaceOnUse"><stop offset="0" stop-color="#3079d6"/><stop offset="1" stop-color="#297cd2"/></linearGradient><path fill="url(#2I31q8HIHwPnYZO1R4RP9a)" d="M6,24l-1.761,8.804C4.115,33.423,4.589,34,5.22,34h1.51c0.758,0,1.45-0.428,1.789-1.106	L10.966,28L6,24z"/><linearGradient id="2I31q8HIHwPnYZO1R4RP9b" x1="28" x2="46" y1="-314.942" y2="-314.942" gradientTransform="matrix(0 1 1 0 338 0)" gradientUnits="userSpaceOnUse"><stop offset="0" stop-color="#3079d6"/><stop offset="1" stop-color="#297cd2"/></linearGradient><path fill="url(#2I31q8HIHwPnYZO1R4RP9b)" d="M19,28l-1.877,16.89C17.057,45.482,17.521,46,18.117,46H19.7c0.79,0,1.507-0.465,1.828-1.188	L29,28H19z"/><linearGradient id="2I31q8HIHwPnYZO1R4RP9c" x1="14" x2="24" y1="-330.407" y2="-330.407" gradientTransform="matrix(0 1 1 0 338 0)" gradientUnits="userSpaceOnUse"><stop offset="0" stop-color="#3079d6"/><stop offset="1" stop-color="#297cd2"/></linearGradient><path fill="url(#2I31q8HIHwPnYZO1R4RP9c)" d="M10.966,20l-2.447-4.894C8.18,14.428,7.487,14,6.73,14H5.22c-0.631,0-1.104,0.577-0.981,1.196	L6,24L10.966,20z"/><linearGradient id="2I31q8HIHwPnYZO1R4RP9d" x1="2" x2="20" y1="-314.942" y2="-314.942" gradientTransform="matrix(0 1 1 0 338 0)" gradientUnits="userSpaceOnUse"><stop offset="0" stop-color="#3079d6"/><stop offset="1" stop-color="#297cd2"/></linearGradient><path fill="url(#2I31q8HIHwPnYZO1R4RP9d)" d="M29,20L21.528,3.188C21.207,2.465,20.491,2,19.7,2h-1.583c-0.596,0-1.06,0.518-0.994,1.11	L19,20H29z"/><linearGradient id="2I31q8HIHwPnYZO1R4RP9e" x1="20" x2="28" y1="-313" y2="-313" gradientTransform="matrix(0 1 1 0 338 0)" gradientUnits="userSpaceOnUse"><stop offset="0" stop-color="#42a3f2"/><stop offset="1" stop-color="#42a4eb"/></linearGradient><rect width="34" height="8" x="8" y="20" fill="url(#2I31q8HIHwPnYZO1R4RP9e)"/><linearGradient id="2I31q8HIHwPnYZO1R4RP9f" x1="20" x2="28" y1="-296" y2="-296" gradientTransform="matrix(0 1 1 0 338 0)" gradientUnits="userSpaceOnUse"><stop offset="0" stop-color="#42a3f2"/><stop offset="1" stop-color="#42a4eb"/></linearGradient><circle cx="42" cy="24" r="4" fill="url(#2I31q8HIHwPnYZO1R4RP9f)"/><linearGradient id="2I31q8HIHwPnYZO1R4RP9g" x1="20" x2="28" y1="-330" y2="-330" gradientTransform="matrix(0 1 1 0 338 0)" gradientUnits="userSpaceOnUse"><stop offset="0" stop-color="#42a3f2"/><stop offset="1" stop-color="#42a4eb"/></linearGradient><circle cx="8" cy="24" r="4" fill="url(#2I31q8HIHwPnYZO1R4RP9g)"/></svg>