<svg xmlns="http://www.w3.org/2000/svg" viewBox="0 0 48 48"><linearGradient id="drcVDPzK71~py3uJJ3acXa" x1="39.5" x2="39.5" y1="5" y2="12" gradientUnits="userSpaceOnUse"><stop offset="0" stop-color="#afb6bc"/><stop offset=".925" stop-color="#9aa0a5"/></linearGradient><path fill="url(#drcVDPzK71~py3uJJ3acXa)" d="M37,12c-0.256,0-0.512-0.098-0.707-0.293c-0.391-0.391-0.391-1.023,0-1.414l5-5 c0.391-0.391,1.023-0.391,1.414,0s0.391,1.023,0,1.414l-5,5C37.512,11.902,37.256,12,37,12z"/><linearGradient id="drcVDPzK71~py3uJJ3acXb" x1="16.89" x2="33.935" y1="1360.898" y2="1387.146" gradientTransform="translate(0 -1354)" gradientUnits="userSpaceOnUse"><stop offset=".002" stop-color="#f44f78"/><stop offset=".397" stop-color="#e4305d"/><stop offset=".763" stop-color="#d81b4a"/><stop offset="1" stop-color="#d41343"/></linearGradient><path fill="url(#drcVDPzK71~py3uJJ3acXb)" d="M24,13.632c0,0,4.147-4.632,9.263-4.632s9.263,4.204,9.263,9.263 c0,3.136-3.089,6.175-3.089,6.175L25.562,38.315c-0.863,0.863-2.263,0.863-3.126,0L8.562,24.438c0,0-3.089-3.04-3.089-6.175 C5.473,13.204,9.621,9,14.737,9S24,13.632,24,13.632z"/><linearGradient id="drcVDPzK71~py3uJJ3acXc" x1="7" x2="7" y1="35" y2="47" gradientUnits="userSpaceOnUse"><stop offset="0" stop-color="#889097"/><stop offset="1" stop-color="#4c5963"/></linearGradient><path fill="url(#drcVDPzK71~py3uJJ3acXc)" d="M7,47v-6H1l2-2h6c0,0,0,4.097,0,6L7,47z M7,35l-2,2h6v6l2-2v-6H7z"/><path fill="#b31523" d="M27,24c0,1.7-1.3,3-3,3s-3-1.3-3-3s1.3-3,3-3S27,22.3,27,24z"/><linearGradient id="drcVDPzK71~py3uJJ3acXd" x1="43.5" x2="43.5" y1="1" y2="8" gradientUnits="userSpaceOnUse"><stop offset="0" stop-color="#889097"/><stop offset="1" stop-color="#4c5963"/></linearGradient><path fill="url(#drcVDPzK71~py3uJJ3acXd)" d="M46.676,1.01l-6.491,1.855C40.075,2.896,40,2.996,40,3.109v3.453L41.437,8h3.453 c0.113,0,0.213-0.075,0.244-0.184l1.855-6.491C47.045,1.133,46.867,0.955,46.676,1.01z"/><g><linearGradient id="drcVDPzK71~py3uJJ3acXe" x1="14" x2="14" y1="23" y2="45" gradientUnits="userSpaceOnUse"><stop offset="0" stop-color="#afb6bc"/><stop offset=".925" stop-color="#9aa0a5"/></linearGradient><path fill="url(#drcVDPzK71~py3uJJ3acXe)" d="M4,45c-0.256,0-0.512-0.098-0.707-0.293c-0.391-0.391-0.391-1.023,0-1.414l20-20 c0.391-0.391,1.023-0.391,1.414,0s0.391,1.023,0,1.414l-20,20C4.512,44.902,4.256,45,4,45z"/></g></svg>