<svg xmlns="http://www.w3.org/2000/svg" viewBox="0 0 48 48"><linearGradient id="GcKXUHywdEVcdzYa8w7Aza" x1="24" x2="24" y1="8.786" y2="41.616" gradientUnits="userSpaceOnUse"><stop offset="0" stop-color="#f44f5a"/><stop offset=".443" stop-color="#ee3d4a"/><stop offset="1" stop-color="#e52030"/></linearGradient><path fill="url(#GcKXUHywdEVcdzYa8w7Aza)" d="M41,9H7c-2.209,0-4,1.791-4,4v24c0,2.209,1.791,4,4,4h34c2.209,0,4-1.791,4-4V13	C45,10.791,43.209,9,41,9z"/><linearGradient id="GcKXUHywdEVcdzYa8w7Azb" x1="17" x2="31" y1="7.5" y2="7.5" gradientUnits="userSpaceOnUse"><stop offset="0" stop-color="#5e5e5e"/><stop offset="1" stop-color="#545454"/></linearGradient><path fill="url(#GcKXUHywdEVcdzYa8w7Azb)" d="M29.5,6h-11C17.672,6,17,6.672,17,7.5V9h14V7.5C31,6.672,30.328,6,29.5,6z"/><radialGradient id="GcKXUHywdEVcdzYa8w7Azc" cx="24" cy="25" r="12" gradientUnits="userSpaceOnUse"><stop offset="0"/><stop offset="1" stop-opacity="0"/></radialGradient><circle cx="24" cy="25" r="12" fill="url(#GcKXUHywdEVcdzYa8w7Azc)"/><circle cx="24" cy="25" r="10" fill="#fff"/><path fill="#e52030" d="M30,23.5h-4.5V19c0-0.276-0.224-0.5-0.5-0.5h-2c-0.276,0-0.5,0.224-0.5,0.5v4.5H18	c-0.276,0-0.5,0.224-0.5,0.5v2c0,0.276,0.224,0.5,0.5,0.5h4.5V31c0,0.276,0.224,0.5,0.5,0.5h2c0.276,0,0.5-0.224,0.5-0.5v-4.5H30	c0.276,0,0.5-0.224,0.5-0.5v-2C30.5,23.724,30.276,23.5,30,23.5z"/></svg>