<svg xmlns="http://www.w3.org/2000/svg" data-name="Слой 1" viewBox="0 0 48 48"><defs><linearGradient id="yFws71nT6Ef_SaIP5VXfRa" x1="6" x2="42" y1="299.505" y2="299.505" data-name="Безымянный градиент 259" gradientTransform="matrix(1 0 0 -1 0 340.005)" gradientUnits="userSpaceOnUse"><stop offset="0" stop-color="#b9360c"/><stop offset=".537" stop-color="#b5350c"/><stop offset=".999" stop-color="#ab320b"/></linearGradient><linearGradient id="yFws71nT6Ef_SaIP5VXfRb" x1="28.321" x2="36.528" y1="335.681" y2="327.474" data-name="Безымянный градиент 120" gradientTransform="matrix(1 0 0 -1 0 340.005)" gradientUnits="userSpaceOnUse"><stop offset="0" stop-color="#fed100"/><stop offset="1" stop-color="#e36001"/></linearGradient></defs><path fill="#33c481" d="M36.94293,27.69524c3.33887-3.33887,3.67581-8.73469,3.67581-8.73469s-5.86874-1.20825-9.5811,2.51c-3.78167,3.7877-2.51,9.58109-2.51,9.58109S33.60407,31.03411,36.94293,27.69524Z"/><path fill="#21a366" d="M40.61865,18.96055l-13,13,.012.001-3.33374,3.33374a.99989.99989,0,1,0,1.41406,1.41406l3.83735-3.8374a4.07057,4.07057,0,0,1,2.20681-1.1206,10.86341,10.86341,0,0,0,5.8992-2.75525C41.24414,25.40623,40.61865,18.96055,40.61865,18.96055Z"/><path fill="#21a366" d="M21.429,14.0763A12.35732,12.35732,0,0,1,25,22.9983c.008,2.472,0,7.004,0,7.004L7.37,10.2493S15.89,8.5483,21.429,14.0763Z"/><path fill="#33c481" d="M7.37,10.2493s-2.124,8.074,3.834,14.032C16.471,29.5483,23,27.3043,23,31.6703v8.332h2v-10.51a3.99983,3.99983,0,0,0-1.175-2.832Z"/><path fill="#d43a02" d="M42,38H6V37a1.00036,1.00036,0,0,1,1-1H41a1.00036,1.00036,0,0,1,1,1Z"/><path fill="url(#yFws71nT6Ef_SaIP5VXfRa)" d="M6,38v3a1.99945,1.99945,0,0,0,2,2H40a1.99945,1.99945,0,0,0,2-2V38Z"/><path fill="url(#yFws71nT6Ef_SaIP5VXfRb)" d="M33,4.0023a5,5,0,1,0,5,5A4.99994,4.99994,0,0,0,33,4.0023Z"/></svg>