<svg xmlns="http://www.w3.org/2000/svg" viewBox="0 0 48 48"><linearGradient id="mdyoyolj1N6kBUILwwijRa" x1="24" x2="24" y1="4.955" y2="45.071" gradientUnits="userSpaceOnUse"><stop offset="0" stop-color="#f44f5a"/><stop offset=".443" stop-color="#ee3d4a"/><stop offset="1" stop-color="#e52030"/></linearGradient><path fill="url(#mdyoyolj1N6kBUILwwijRa)" d="M26.349,5.671l2.865,8.426c0.602,1.77,2.287,2.963,4.185,2.963h9.107	c2.407,0,3.412,3.026,1.468,4.422l-7.333,5.067c-1.595,1.102-2.266,3.103-1.649,4.922l2.822,8.323	c0.735,2.253-1.887,4.118-3.833,2.726l-7.586-4.877c-1.467-0.943-3.363-0.943-4.83,0l-7.568,4.864	c-1.948,1.393-4.571-0.477-3.832-2.73l2.832-8.303c0.621-1.82-0.049-3.825-1.646-4.929l-7.328-5.064	c-1.944-1.396-0.939-4.422,1.468-4.422h9.102c1.901,0,3.588-1.197,4.188-2.97l2.844-8.414C22.381,3.444,25.591,3.441,26.349,5.671z"/><circle cx="24" cy="26" r="3" fill="#b31523"/><circle cx="24" cy="19" r="2" fill="#b31523"/><circle cx="19" cy="31" r="2" fill="#b31523"/><circle cx="17" cy="23" r="2" fill="#b31523"/><circle cx="31" cy="23" r="2" fill="#b31523"/><circle cx="29" cy="31" r="2" fill="#b31523"/><circle cx="24" cy="14" r="1" fill="#b31523"/><circle cx="24" cy="10" r="1" fill="#b31523"/><circle cx="16" cy="35" r="1" fill="#b31523"/><circle cx="14" cy="38" r="1" fill="#b31523"/><circle cx="34" cy="38" r="1" fill="#b31523"/><circle cx="32" cy="35" r="1" fill="#b31523"/><circle cx="12" cy="21" r="1" fill="#b31523"/><circle cx="8" cy="20" r="1" fill="#b31523"/><circle cx="40" cy="20" r="1" fill="#b31523"/><circle cx="36" cy="21" r="1" fill="#b31523"/></svg>