<svg xmlns="http://www.w3.org/2000/svg" viewBox="0 0 48 48"><linearGradient id="bJ53_bSMXJWHC6I~RWgGBa" x1="6.414" x2="41.774" y1="-577.552" y2="-603.378" gradientTransform="matrix(1 0 0 -1 0 -563.89)" gradientUnits="userSpaceOnUse"><stop offset="0" stop-color="#28afea"/><stop offset="1" stop-color="#047ed6"/></linearGradient><path fill="url(#bJ53_bSMXJWHC6I~RWgGBa)" d="M6,40V12h36v28c0,1.1-0.9,2-2,2H8C6.9,42,6,41.1,6,40z"/><g opacity=".05"><path d="M17.608,31.373c0.323-0.244,0.66-0.49,1-0.73c0.542-0.374,1.076-0.77,1.586-1.176c0.546-0.435,1.038-0.922,1.461-1.449 c0.438-0.546,0.792-1.159,1.055-1.821c0.273-0.689,0.412-1.476,0.412-2.337c0-0.823-0.145-1.586-0.429-2.27 c-0.292-0.699-0.723-1.305-1.284-1.802c-0.549-0.484-1.218-0.858-1.987-1.11c-0.744-0.246-1.585-0.37-2.5-0.37 c-1.939,0-3.71,0.51-5.263,1.515c-0.286,0.186-0.456,0.499-0.456,0.839v3.108c0,0.392,0.23,0.748,0.584,0.91 c0.358,0.163,0.78,0.103,1.072-0.156c1.067-0.927,2.178-1.397,3.302-1.397c0.523,0,0.917,0.095,1.107,0.268 c0.063,0.057,0.252,0.228,0.252,0.813c0,0.225-0.038,0.437-0.113,0.63c-0.082,0.212-0.212,0.431-0.388,0.65 c-0.202,0.252-0.46,0.515-0.768,0.779c-0.33,0.284-0.721,0.59-1.165,0.907c-0.461,0.33-0.948,0.701-1.459,1.112 c-0.547,0.44-1.059,0.954-1.522,1.527c-0.473,0.588-0.871,1.259-1.182,1.994c-0.327,0.772-0.493,1.646-0.493,2.597v1.208 c0,0.552,0.449,1,1,1h10.667c0.551,0,1-0.448,1-1v-2.93c0-0.552-0.449-1-1-1h-4.883c0.123-0.103,0.253-0.205,0.391-0.308 L17.608,31.373z"/><path d="M36.408,23.381c-0.29-1.051-0.723-1.958-1.287-2.699c-0.581-0.763-1.296-1.355-2.129-1.764 c-1.542-0.752-3.733-0.806-5.457-0.133c-0.819,0.322-1.535,0.787-2.127,1.384c-0.59,0.595-1.053,1.31-1.376,2.124 c-0.322,0.808-0.485,1.707-0.485,2.673c0,0.842,0.136,1.63,0.405,2.342c0.271,0.723,0.66,1.359,1.155,1.891 c0.499,0.534,1.094,0.957,1.769,1.255c1.283,0.568,2.915,0.589,4.136,0.138c-0.116,0.274-0.258,0.513-0.426,0.715 c-0.497,0.6-1.158,0.879-2.081,0.879c-0.982,0-1.821-0.224-2.493-0.663c-0.309-0.202-0.702-0.22-1.023-0.044 c-0.324,0.175-0.525,0.512-0.525,0.88v2.907c0,0.396,0.234,0.755,0.597,0.916c1.071,0.471,2.347,0.71,3.792,0.71 c1.241,0,2.376-0.241,3.373-0.718c1.002-0.48,1.862-1.178,2.556-2.073c0.677-0.874,1.196-1.946,1.542-3.189 c0.336-1.203,0.507-2.579,0.507-4.088C36.83,25.551,36.688,24.394,36.408,23.381z M29.685,26.189 c-0.128-0.056-0.231-0.132-0.321-0.236c-0.104-0.124-0.189-0.286-0.252-0.483c-0.072-0.223-0.108-0.494-0.108-0.806 c0-0.277,0.037-0.532,0.109-0.759c0.067-0.211,0.157-0.388,0.268-0.527c0.1-0.126,0.209-0.218,0.343-0.287 c0.115-0.06,0.237-0.088,0.383-0.088c0.147,0,0.271,0.031,0.389,0.099c0.144,0.082,0.259,0.188,0.363,0.333 c0.118,0.166,0.215,0.377,0.288,0.629c0.078,0.271,0.118,0.567,0.118,0.88c0,0.212-0.031,0.408-0.093,0.583 c-0.057,0.161-0.137,0.301-0.236,0.415c-0.095,0.109-0.202,0.19-0.333,0.254C30.354,26.315,29.968,26.313,29.685,26.189z"/></g><g opacity=".07"><path d="M17.307,30.974c0.327-0.247,0.668-0.496,1.017-0.743c0.539-0.371,1.059-0.757,1.559-1.155 c0.518-0.411,0.982-0.872,1.382-1.37c0.407-0.508,0.736-1.078,0.98-1.693c0.25-0.631,0.376-1.354,0.376-2.152 c0-0.757-0.131-1.455-0.391-2.077c-0.263-0.63-0.651-1.174-1.154-1.619c-0.497-0.438-1.106-0.779-1.813-1.011 c-0.693-0.229-1.481-0.345-2.343-0.345c-1.842,0-3.521,0.482-4.99,1.434c-0.143,0.093-0.229,0.25-0.229,0.42v3.108 c0,0.196,0.114,0.374,0.292,0.455c0.177,0.081,0.388,0.052,0.536-0.078c1.16-1.009,2.382-1.521,3.63-1.521 c0.667,0,1.152,0.134,1.442,0.396c0.281,0.254,0.417,0.641,0.417,1.184c0,0.287-0.049,0.559-0.146,0.81 c-0.1,0.26-0.256,0.523-0.465,0.783c-0.223,0.278-0.503,0.563-0.832,0.846c-0.341,0.294-0.745,0.608-1.2,0.935 c-0.455,0.325-0.934,0.691-1.437,1.096c-0.52,0.418-1.006,0.906-1.446,1.451c-0.445,0.553-0.818,1.184-1.111,1.875 c-0.301,0.711-0.453,1.519-0.453,2.402v1.208c0,0.276,0.224,0.5,0.5,0.5h10.667c0.276,0,0.5-0.224,0.5-0.5v-2.93 c0-0.276-0.224-0.5-0.5-0.5H16.02c0.12-0.165,0.271-0.335,0.453-0.509C16.713,31.443,16.993,31.208,17.307,30.974z"/><path d="M35.926,23.514c-0.273-0.989-0.678-1.84-1.203-2.529c-0.533-0.7-1.189-1.244-1.95-1.617 c-1.484-0.724-3.517-0.717-5.054-0.117c-0.755,0.297-1.413,0.725-1.956,1.271c-0.542,0.547-0.968,1.205-1.267,1.957 c-0.298,0.749-0.45,1.587-0.45,2.488c0,0.78,0.125,1.51,0.373,2.166c0.249,0.662,0.603,1.242,1.053,1.726 c0.453,0.485,0.993,0.868,1.606,1.139c0.617,0.273,1.296,0.412,2.02,0.412c1.077,0,1.981-0.269,2.702-0.801 c-0.135,0.84-0.412,1.515-0.829,2.017c-0.591,0.714-1.397,1.061-2.466,1.061c-1.082,0-2.013-0.251-2.768-0.745 c-0.153-0.101-0.35-0.11-0.512-0.021c-0.162,0.087-0.262,0.256-0.262,0.439v2.907c0,0.198,0.117,0.378,0.298,0.458 c1.007,0.443,2.215,0.668,3.59,0.668c1.165,0,2.227-0.225,3.157-0.669c0.932-0.446,1.731-1.096,2.376-1.929 c0.637-0.822,1.127-1.838,1.456-3.018c0.324-1.16,0.488-2.489,0.488-3.953C36.33,25.597,36.194,24.483,35.926,23.514z M31.763,24.943c0,0.27-0.041,0.521-0.122,0.75c-0.079,0.222-0.19,0.415-0.331,0.576c-0.14,0.16-0.302,0.283-0.494,0.377 c-0.393,0.188-0.934,0.173-1.331,0.002c-0.198-0.086-0.363-0.208-0.504-0.373c-0.146-0.173-0.263-0.393-0.347-0.652 c-0.088-0.272-0.132-0.595-0.132-0.959c0-0.328,0.044-0.635,0.133-0.911c0.085-0.268,0.204-0.498,0.352-0.685 c0.144-0.182,0.309-0.319,0.504-0.421c0.188-0.098,0.388-0.145,0.614-0.145c0.235,0,0.443,0.054,0.637,0.164 c0.206,0.117,0.376,0.272,0.522,0.477c0.152,0.212,0.274,0.476,0.362,0.781C31.717,24.24,31.763,24.583,31.763,24.943z"/></g><linearGradient id="bJ53_bSMXJWHC6I~RWgGBb" x1="6.42" x2="41.198" y1="-570.498" y2="-577.57" gradientTransform="matrix(1 0 0 -1 0 -563.89)" gradientUnits="userSpaceOnUse"><stop offset="0" stop-color="#0077d2"/><stop offset="1" stop-color="#0b59a2"/></linearGradient><path fill="url(#bJ53_bSMXJWHC6I~RWgGBb)" d="M42,8v6H6V8c0-1.1,0.9-2,2-2h32C41.1,6,42,6.9,42,8z"/><path d="M35.5,12.5L35.5,12.5c-1.657,0-3-1.343-3-3V6h6v3.5 C38.5,11.157,37.157,12.5,35.5,12.5z" opacity=".05"/><path d="M35.5,11.75L35.5,11.75c-1.243,0-2.25-1.007-2.25-2.25V6h4.5v3.5 C37.75,10.743,36.743,11.75,35.5,11.75z" opacity=".07"/><path d="M12.5,12.5L12.5,12.5c-1.657,0-3-1.343-3-3V6h6v3.5 C15.5,11.157,14.157,12.5,12.5,12.5z" opacity=".05"/><path d="M12.5,11.75L12.5,11.75c-1.243,0-2.25-1.007-2.25-2.25V6h4.5v3.5 C14.75,10.743,13.743,11.75,12.5,11.75z" opacity=".07"/><path fill="#3ccbf4" d="M12.5,11L12.5,11c-0.828,0-1.5-0.672-1.5-1.5v-4C11,4.672,11.672,4,12.5,4l0,0 C13.328,4,14,4.672,14,5.5v4C14,10.328,13.328,11,12.5,11z"/><path fill="#3ccbf4" d="M35.5,11L35.5,11c-0.828,0-1.5-0.672-1.5-1.5v-4C34,4.672,34.672,4,35.5,4l0,0 C36.328,4,37,4.672,37,5.5v4C37,10.328,36.328,11,35.5,11z"/><path fill="#fff" d="M15.3,32.682h6.799v2.93H11.431v-1.208c0-0.819,0.138-1.556,0.414-2.208s0.623-1.237,1.04-1.756 c0.417-0.518,0.874-0.977,1.37-1.375s0.967-0.759,1.415-1.079c0.47-0.336,0.881-0.656,1.236-0.962 c0.354-0.306,0.652-0.609,0.895-0.911c0.242-0.302,0.423-0.607,0.542-0.917c0.12-0.31,0.179-0.64,0.179-0.989 c0-0.687-0.194-1.204-0.582-1.555s-0.98-0.525-1.778-0.525c-1.379,0-2.699,0.548-3.958,1.644v-3.108 c1.394-0.902,2.967-1.354,4.719-1.354c0.813,0,1.541,0.106,2.186,0.319c0.645,0.212,1.191,0.516,1.638,0.911 s0.789,0.874,1.023,1.437c0.235,0.563,0.352,1.191,0.352,1.885c0,0.737-0.114,1.394-0.341,1.968 c-0.227,0.574-0.529,1.096-0.905,1.565c-0.377,0.47-0.811,0.9-1.303,1.291c-0.492,0.392-1.003,0.771-1.532,1.136 c-0.358,0.253-0.703,0.505-1.034,0.755c-0.332,0.249-0.625,0.495-0.878,0.737c-0.253,0.242-0.455,0.479-0.604,0.71 C15.375,32.253,15.3,32.473,15.3,32.682z"/><path fill="#fff" d="M35.83,26.822c0,1.424-0.156,2.696-0.47,3.818c-0.313,1.122-0.77,2.071-1.37,2.846 c-0.6,0.775-1.333,1.37-2.197,1.784c-0.865,0.413-1.845,0.62-2.941,0.62c-1.312,0-2.441-0.209-3.388-0.626v-2.907 c0.842,0.552,1.856,0.827,3.042,0.827c1.215,0,2.166-0.413,2.852-1.241c0.686-0.827,1.032-2.023,1.04-3.589l-0.067-0.022 c-0.708,1.051-1.785,1.576-3.231,1.576c-0.656,0-1.262-0.123-1.817-0.369c-0.556-0.245-1.037-0.587-1.443-1.022 c-0.406-0.437-0.723-0.956-0.95-1.561c-0.228-0.604-0.341-1.267-0.341-1.99c0-0.842,0.138-1.61,0.414-2.304 c0.275-0.693,0.661-1.289,1.157-1.789c0.496-0.499,1.09-0.885,1.784-1.157c0.693-0.271,1.461-0.408,2.303-0.408 c0.872,0,1.655,0.17,2.348,0.509c0.693,0.34,1.284,0.83,1.772,1.471c0.488,0.642,0.861,1.428,1.118,2.359 S35.83,25.637,35.83,26.822z M32.263,24.943c0-0.409-0.052-0.795-0.157-1.157c-0.104-0.361-0.25-0.673-0.436-0.934 s-0.414-0.468-0.682-0.62c-0.268-0.153-0.563-0.229-0.883-0.229c-0.306,0-0.587,0.067-0.844,0.201s-0.479,0.318-0.666,0.554 c-0.186,0.234-0.332,0.516-0.436,0.844s-0.156,0.683-0.156,1.063c0,0.418,0.052,0.788,0.156,1.112s0.252,0.599,0.442,0.822 s0.419,0.394,0.688,0.509c0.269,0.115,0.566,0.173,0.895,0.173c0.313,0,0.597-0.062,0.85-0.184 c0.253-0.123,0.471-0.289,0.654-0.498s0.325-0.455,0.425-0.738S32.263,25.271,32.263,24.943z"/></svg>