<svg xmlns="http://www.w3.org/2000/svg" xmlns:xlink="http://www.w3.org/1999/xlink" data-name="Слой 1" viewBox="0 0 48 48"><defs><linearGradient id="Ko_RcRZrbp8_j9MnklSQ2a" x1="15" x2="21" y1="41.375" y2="41.375" data-name="Безымянный градиент 69" gradientTransform="rotate(-180 18 41.375)" gradientUnits="userSpaceOnUse"><stop offset="0" stop-color="#3079d6"/><stop offset="1" stop-color="#297cd2"/></linearGradient><linearGradient id="Ko_RcRZrbp8_j9MnklSQ2b" x1="14" x2="22" y1="43" y2="43" gradientTransform="rotate(-180 18 43)" xlink:href="#Ko_RcRZrbp8_j9MnklSQ2a"/><linearGradient id="Ko_RcRZrbp8_j9MnklSQ2c" x1="28.967" x2="41.033" y1="42.355" y2="6.645" xlink:href="#Ko_RcRZrbp8_j9MnklSQ2a"/><linearGradient id="Ko_RcRZrbp8_j9MnklSQ2d" x1="16.969" x2="19.304" y1="10.27" y2="3.359" xlink:href="#Ko_RcRZrbp8_j9MnklSQ2a"/></defs><rect width="6" height="3.25" x="15" y="39.75" fill="url(#Ko_RcRZrbp8_j9MnklSQ2a)" transform="rotate(180 18 41.375)"/><rect width="8" height="2" x="14" y="42" fill="url(#Ko_RcRZrbp8_j9MnklSQ2b)" rx="1" transform="rotate(180 18 43)"/><path fill="#50e6ff" d="M25.82,7.17,25.75,8,23.42,36.02A5.4421,5.4421,0,0,1,18,41a5.4522,5.4522,0,0,1-5.42-4.98L10.25,8l-.07-.83A1.99722,1.99722,0,0,1,12.17,5H23.83A1.99722,1.99722,0,0,1,25.82,7.17Z"/><path d="M19.55556,17A2.24468,2.24468,0,0,1,22,19.4c0,1.58551-.87155,2.18665-1.11111,3.37775C20.77289,23.35425,20.61133,25,19.77777,25,18.44444,25,19.0369,22.11108,18,22.11108S17.55556,25,16.22223,25c-.83356,0-.99512-1.64575-1.11112-2.22223C14.87155,21.58667,14,20.98553,14,19.4A2.24468,2.24468,0,0,1,16.44444,17c.88889,0,1.27333.44446,1.55556.44446S18.66667,17,19.55556,17m0-1A3.34682,3.34682,0,0,0,18,16.37683,3.34682,3.34682,0,0,0,16.44444,16,3.24313,3.24313,0,0,0,13,19.4a5.16319,5.16319,0,0,0,.72272,2.57953,3.803,3.803,0,0,1,.408.99543c.013.06481.02655.14471.042.23486.155.9057.4776,2.79016,2.04952,2.79016A1.84592,1.84592,0,0,0,18,24.53149,1.84592,1.84592,0,0,0,19.77777,26c1.57192,0,1.89449-1.88446,2.04952-2.79016.01542-.09015.02893-.17.042-.2348a3.8029,3.8029,0,0,1,.408-.99549A5.16319,5.16319,0,0,0,23,19.4,3.24313,3.24313,0,0,0,19.55556,16Z" opacity=".05"/><path d="M19.55556,17A2.24468,2.24468,0,0,1,22,19.4c0,1.58551-.87155,2.18665-1.11111,3.37775C20.77289,23.35425,20.61133,25,19.77777,25,18.44444,25,19.0369,22.11108,18,22.11108S17.55556,25,16.22223,25c-.83356,0-.99512-1.64575-1.11112-2.22223C14.87155,21.58667,14,20.98553,14,19.4A2.24468,2.24468,0,0,1,16.44444,17c.88889,0,1.27333.44446,1.55556.44446S18.66667,17,19.55556,17m0-.5a2.92024,2.92024,0,0,0-1.41609.366c-.04427.02221-.10015.05029-.13947.06756-.03932-.01727-.0952-.04535-.13947-.06756a2.92024,2.92024,0,0,0-1.41609-.366A2.74344,2.74344,0,0,0,13.5,19.4a4.67225,4.67225,0,0,0,.66638,2.349,4.23171,4.23171,0,0,1,.45455,1.12732c.01384.06873.02824.15351.04461.24915.142.82983.40647,2.37451,1.55669,2.37451,1.11764,0,1.35841-1.19232,1.51773-1.98132a2.66635,2.66635,0,0,1,.28079-.91693,4.50019,4.50019,0,0,1,.23929.91693c.15932.789.40009,1.98132,1.51773,1.98132,1.15022,0,1.41464-1.54468,1.55669-2.37451.01637-.09564.03077-.18042.0446-.24909a4.23165,4.23165,0,0,1,.45456-1.12738A4.67225,4.67225,0,0,0,22.5,19.4a2.74344,2.74344,0,0,0-2.94444-2.9Z" opacity=".07"/><path fill="#fff" d="M19.55556,17c-.88889,0-1.27334.44444-1.55556.44444S17.33333,17,16.44444,17A2.24467,2.24467,0,0,0,14,19.4c0,1.58556.87156,2.18667,1.11111,3.37778.116.57644.27756,2.22222,1.11111,2.22222,1.33334,0,.74089-2.88889,1.77778-2.88889S18.44444,25,19.77778,25c.83355,0,.99511-1.64578,1.11111-2.22222C21.12844,21.58667,22,20.98556,22,19.4A2.24467,2.24467,0,0,0,19.55556,17Z"/><path fill="#50e6ff" d="M32,6h4a0,0,0,0,1,0,0v8a0,0,0,0,1,0,0H32a1,1,0,0,1-1-1V7A1,1,0,0,1,32,6Z"/><path fill="url(#Ko_RcRZrbp8_j9MnklSQ2c)" d="M34,44a.99974.99974,0,0,1-1-1V21.67578a4.97688,4.97688,0,0,1,.27783-1.64258l1.55567-4.47265A3.00585,3.00585,0,0,0,35,14.57422V6a1,1,0,0,1,2,0v8.57422a4.97688,4.97688,0,0,1-.27783,1.64258L35.1665,20.68945A3.00585,3.00585,0,0,0,35,21.67578V43A.99974.99974,0,0,1,34,44Z"/><path fill="url(#Ko_RcRZrbp8_j9MnklSQ2d)" d="M25.82,7.17,25.75,8H10.25l-.07-.83A1.99722,1.99722,0,0,1,12.17,5H23.83A1.99722,1.99722,0,0,1,25.82,7.17Z"/></svg>