<svg xmlns="http://www.w3.org/2000/svg" xmlns:xlink="http://www.w3.org/1999/xlink" data-name="Слой 1" viewBox="0 0 48 48"><defs><linearGradient id="dlDWLlsZinPXEWmmcDcl9a" x1="7.974" x2="31.101" y1="4.285" y2="67.825" data-name="Безымянный градиент 39" gradientUnits="userSpaceOnUse"><stop offset="0" stop-color="#28afea"/><stop offset="1" stop-color="#0b88da"/></linearGradient><linearGradient id="dlDWLlsZinPXEWmmcDcl9b" x1="29.249" x2="37.564" y1="-8.406" y2="43.637" xlink:href="#dlDWLlsZinPXEWmmcDcl9a"/></defs><path fill="url(#dlDWLlsZinPXEWmmcDcl9a)" d="M4,8H27a0,0,0,0,1,0,0V40a0,0,0,0,1,0,0H4a1,1,0,0,1-1-1V9A1,1,0,0,1,4,8Z"/><path fill="url(#dlDWLlsZinPXEWmmcDcl9b)" d="M26,40H24V8H44a1,1,0,0,1,1,1V32Z"/><path fill="#50e6ff" d="M26,40l5.80477-6.634A4,4,0,0,1,34.81507,32H45v7a1,1,0,0,1-1,1Z"/><path d="M34.82,31a4.98845,4.98845,0,0,0-3.77,1.71l-5.8,6.63-.58.66H26l5.8-6.63A4.00786,4.00786,0,0,1,34.82,32H45V31Z" opacity=".05"/><path d="M34.82,31.5a4.48775,4.48775,0,0,0-3.39,1.54l-5.81,6.63-.29.33H26l5.8-6.63A4.00786,4.00786,0,0,1,34.82,32H45v-.5Z" opacity=".07"/><g><circle cx="24" cy="12" r="1" fill="#50e6ff"/><circle cx="24" cy="16" r="1" fill="#50e6ff"/><circle cx="24" cy="20" r="1" fill="#50e6ff"/><circle cx="24" cy="24" r="1" fill="#50e6ff"/><circle cx="24" cy="28" r="1" fill="#50e6ff"/><circle cx="24" cy="32" r="1" fill="#50e6ff"/><circle cx="24" cy="36" r="1" fill="#50e6ff"/></g></svg>