<svg xmlns="http://www.w3.org/2000/svg" viewBox="0 0 48 48"><path fill="#d35230" d="M39,22.657L39,22.657c0.552,0,1,0.448,1,1v4h-2v-4C38,23.105,38.448,22.657,39,22.657z"/><path fill="#ed6c47" d="M21,11h1c0.552,0,1,0.448,1,1v7h-2V11z"/><path fill="#ed6c47" d="M39,27h-3v-9c0-0.552-0.448-1-1-1h-2c-0.552,0-1,0.448-1,1v3h-1c-0.552,0-1,0.448-1,1v2l-1.707,1.707	C28.105,25.895,28,26.149,28,26.414V42h14c1.105,0,2-0.895,2-2v-3.5c0-0.944-0.445-1.833-1.2-2.4L40,32v-4	C40,27.448,39.552,27,39,27z"/><linearGradient id="~L9jHHCN_KXElnIifMsdga" x1="37.193" x2="42.117" y1="7.193" y2="12.117" gradientUnits="userSpaceOnUse"><stop offset="0" stop-color="#fed100"/><stop offset="1" stop-color="#e36001"/></linearGradient><path fill="url(#~L9jHHCN_KXElnIifMsdga)" d="M40,7c-1.657,0-3,1.343-3,3s1.343,3,3,3s3-1.343,3-3S41.657,7,40,7z"/><path fill="#ff8f6b" d="M20,6h-5c-0.552,0-1,0.448-1,1v4h-2c-0.552,0-1,0.448-1,1v12l-4.724,2.256	C4.885,26.92,4,28.324,4,29.865V40c0,1.105,0.895,2,2,2h22c1.105,0,2-0.895,2-2v-7.696c0-0.608-0.276-1.182-0.751-1.562L25,27.343	v-7.107c0-0.758-0.428-1.45-1.106-1.789L21,17V7C21,6.448,20.552,6,20,6z"/><path fill="#ed6c47" d="M15,13L15,13c0.552,0,1,0.448,1,1v6c0,0.552-0.448,1-1,1h0c-0.552,0-1-0.448-1-1v-6	C14,13.448,14.448,13,15,13z"/><path fill="#d35230" d="M33,23L33,23c0.552,0,1,0.448,1,1v3c0,0.552-0.448,1-1,1l0,0c-0.552,0-1-0.448-1-1v-3	C32,23.448,32.448,23,33,23z"/></svg>