<svg xmlns="http://www.w3.org/2000/svg" viewBox="0 0 48 48"><linearGradient id="uZG~nE4S2ZPKM0VIz8ngUa" x1="15.002" x2="33.584" y1="247.506" y2="211.353" gradientTransform="matrix(1 0 0 -1 0 254)" gradientUnits="userSpaceOnUse"><stop offset="0" stop-color="#33d7f0"/><stop offset="1" stop-color="#0083c4"/></linearGradient><path fill="url(#uZG~nE4S2ZPKM0VIz8ngUa)" d="M44,24c0,11.045-8.955,20-20,20S4,35.045,4,24S12.955,4,24,4S44,12.955,44,24z"/><linearGradient id="uZG~nE4S2ZPKM0VIz8ngUb" x1="15.002" x2="33.584" y1="247.506" y2="211.353" gradientTransform="matrix(1 0 0 -1 0 254)" gradientUnits="userSpaceOnUse"><stop offset="0" stop-color="#33d7f0"/><stop offset="1" stop-color="#0083c4"/></linearGradient><path fill="url(#uZG~nE4S2ZPKM0VIz8ngUb)" d="M44,24c0,11.045-8.955,20-20,20S4,35.045,4,24S12.955,4,24,4S44,12.955,44,24z"/><linearGradient id="uZG~nE4S2ZPKM0VIz8ngUc" x1="39.38" x2="42.324" y1="221.693" y2="224.705" gradientTransform="matrix(1 0 0 -1 0 254)" gradientUnits="userSpaceOnUse"><stop offset="0" stop-opacity="0"/><stop offset="1" stop-opacity=".3"/></linearGradient><path fill="url(#uZG~nE4S2ZPKM0VIz8ngUc)" d="M41.188,34.188c0.904-1.521,1.609-3.168,2.086-4.914L41,27l-3.5,3.5L41.188,34.188z"/><linearGradient id="uZG~nE4S2ZPKM0VIz8ngUd" x1="-26.62" x2="-23.676" y1="15.693" y2="18.705" gradientTransform="matrix(-1 0 0 1 -18 0)" gradientUnits="userSpaceOnUse"><stop offset="0" stop-opacity="0"/><stop offset="1" stop-opacity=".3"/></linearGradient><path fill="url(#uZG~nE4S2ZPKM0VIz8ngUd)" d="M6.812,13.812c-0.904,1.521-1.609,3.168-2.086,4.914L7,21l3.5-3.5L6.812,13.812z"/><linearGradient id="uZG~nE4S2ZPKM0VIz8ngUe" x1="12.013" x2="37.021" y1="241.987" y2="216.979" gradientTransform="matrix(1 0 0 -1 0 254)" gradientUnits="userSpaceOnUse"><stop offset="0" stop-color="#4b4b4b"/><stop offset=".531" stop-color="#393939"/><stop offset="1" stop-color="#252525"/></linearGradient><path fill="url(#uZG~nE4S2ZPKM0VIz8ngUe)" d="M39.757,24H42c0-9.941-8.059-18-18-18C15.303,6,8.048,12.167,6.367,20.367l2.39,2.39	C9.216,23.216,8.891,24,8.243,24H6c0,9.941,8.059,18,18,18c8.697,0,15.952-6.167,17.633-14.367l-2.39-2.39	C38.784,24.784,39.109,24,39.757,24z"/><linearGradient id="uZG~nE4S2ZPKM0VIz8ngUf" x1="16.223" x2="31.777" y1="239.802" y2="224.248" gradientTransform="matrix(1 0 0 -1 0 254)" gradientUnits="userSpaceOnUse"><stop offset="0" stop-color="#f44f5a"/><stop offset=".443" stop-color="#ee3d4a"/><stop offset="1" stop-color="#e52030"/></linearGradient><path fill="url(#uZG~nE4S2ZPKM0VIz8ngUf)" d="M31.885,29.638C33.81,27.657,35,24.958,35,21.977c0-6.075-4.925-11-11-11s-11,4.925-11,11	c0,2.98,1.19,5.68,3.115,7.66c0.011,0.011,7.02,7.027,7.02,7.027c0.477,0.477,1.251,0.477,1.728,0	C24.864,36.665,31.874,29.65,31.885,29.638z"/><radialGradient id="uZG~nE4S2ZPKM0VIz8ngUg" cx="24" cy="21.977" r="5.662" gradientUnits="userSpaceOnUse"><stop offset=".177"/><stop offset="1" stop-opacity="0"/></radialGradient><path fill="url(#uZG~nE4S2ZPKM0VIz8ngUg)" d="M24,28.955c-3.847,0-6.978-3.13-6.978-6.977S20.153,15,24,15s6.978,3.13,6.978,6.978	S27.847,28.955,24,28.955z"/><circle cx="24" cy="21.977" r="4.977" fill="#f9f9f9"/></svg>