<svg xmlns="http://www.w3.org/2000/svg" viewBox="0 0 48 48"><radialGradient id="vz7U8StA3YqAWNFECdZYXa" cx="23.754" cy="22.854" r="12.984" gradientUnits="userSpaceOnUse"><stop offset=".376" stop-color="#261103"/><stop offset=".68" stop-color="#431d06"/><stop offset="1" stop-color="#662c09"/></radialGradient><path fill="url(#vz7U8StA3YqAWNFECdZYXa)" d="M24,12c-10.296,0-12.85,13.625-12.85,13.625c0,2.96,1.375,5.553,4.253,6.24	C17.869,32.454,20.972,33,24,33s6.131-0.546,8.596-1.134c2.879-0.687,4.253-3.281,4.253-6.24C36.85,25.625,34.296,12,24,12z"/><linearGradient id="vz7U8StA3YqAWNFECdZYXb" x1="19.701" x2="24.152" y1="21.857" y2="41.887" gradientUnits="userSpaceOnUse"><stop offset="0" stop-color="#75daff"/><stop offset="1" stop-color="#1ea2e4"/></linearGradient><path fill="url(#vz7U8StA3YqAWNFECdZYXb)" d="M24,30.571c-8.837,0-16,4.921-16,10.286V42c0,1.105,0.895,2,2,2h28c1.105,0,2-0.895,2-2	v-1.143C40,35.492,32.837,30.571,24,30.571z"/><path fill="#75daff" d="M24,41.702c0,0,6-4.502,6-9.302c0-0.303,0-0.657,0-1.032c-1.854-0.506-3.876-0.796-6-0.796	s-4.146,0.29-6,0.796c0,0.375,0,0.729,0,1.032C18,37.2,24,41.702,24,41.702z"/><path fill="#d6a121" d="M29,32c0,4-5,8-5,8s-5-4-5-8c0-2.637,0-9.035,0-9.035h10C29,22.965,29,29.363,29,32z"/><radialGradient id="vz7U8StA3YqAWNFECdZYXc" cx="-960.773" cy="21.485" r="10.721" gradientTransform="matrix(-.9136 0 0 .9667 -853.717 -.733)" gradientUnits="userSpaceOnUse"><stop offset="0" stop-color="#ffcf54"/><stop offset=".261" stop-color="#fdcb4d"/><stop offset=".639" stop-color="#f7c13a"/><stop offset="1" stop-color="#f0b421"/></radialGradient><path fill="url(#vz7U8StA3YqAWNFECdZYXc)" d="M24,8.071c3.948,0,8,0.693,8,9.722c0,0.723,0,5.736,0,6.508C32,27.526,27.101,32,24,32	s-8-4.474-8-7.698c0-0.772,0-5.785,0-6.508C16,9,20.052,8.071,24,8.071z"/><radialGradient id="vz7U8StA3YqAWNFECdZYXd" cx="16.884" cy="7.438" r="30.832" gradientUnits="userSpaceOnUse"><stop offset="0" stop-color="#c26715"/><stop offset=".508" stop-color="#b85515"/><stop offset="1" stop-color="#ad3f16"/></radialGradient><path fill="url(#vz7U8StA3YqAWNFECdZYXd)" d="M24,7c-5.188,0-6,3-6,3c-0.667,0.098-0.593-0.784-1.573,0c0,0-5.427,4.013-5.427,15.478	c0,3.801,1.903,5.197,2.6,5.603C11,16.717,20.576,22.036,19,13c4.046,11.813,16.293-2.946,15.871,17.734	C36.077,29.817,37,27.977,37,25.478C37,15.409,31.577,10,31.577,10S27.326,7,24,7z"/><linearGradient id="vz7U8StA3YqAWNFECdZYXe" x1="22.011" x2="29.907" y1="4.465" y2="39.095" gradientUnits="userSpaceOnUse"><stop offset="0" stop-color="#75daff"/><stop offset="1" stop-color="#1ea2e4"/></linearGradient><path fill="url(#vz7U8StA3YqAWNFECdZYXe)" d="M32,15H16c0-4,1-8,1-8s0.126-2,7-2c6.875,0,7,2,7,2S32,11,32,15z"/><g><path fill="#e52030" d="M23,7h2v6h-2V7z"/><path fill="#e52030" d="M21,9h6v2h-6V9z"/></g></svg>