<svg xmlns="http://www.w3.org/2000/svg" viewBox="0 0 48 48"><linearGradient id="tbgIttLSyJwmb3uGLjLRMa" x1="38.525" x2="38.525" y1="484.12" y2="488.529" gradientTransform="scale(1 -1) rotate(-45 -594.445 239.002)" gradientUnits="userSpaceOnUse"><stop offset=".365" stop-color="#199ae0"/><stop offset=".699" stop-color="#1898de"/><stop offset=".819" stop-color="#1691d8"/><stop offset=".905" stop-color="#1186cc"/><stop offset=".974" stop-color="#0a75bc"/><stop offset="1" stop-color="#076cb3"/></linearGradient><path fill="url(#tbgIttLSyJwmb3uGLjLRMa)" d="M28,29.414l4.293,4.293l-3.439,3.439C28.539,37.461,28,37.238,28,36.793L28,29.414z"/><linearGradient id="tbgIttLSyJwmb3uGLjLRMb" x1="30.941" x2="40.953" y1="62.19" y2="-6.639" gradientUnits="userSpaceOnUse"><stop offset="0" stop-color="#32bdef"/><stop offset="1" stop-color="#1ea2e4"/></linearGradient><path fill="url(#tbgIttLSyJwmb3uGLjLRMb)" d="M41.705,40.297l-1.408,1.413c-0.39,0.392-1.024,0.392-1.415,0.001L28.29,31.12 C28.11,30.93,28,30.68,28,30.41V29c0-0.55,0.45-1,1-1h7.79c0.45,0,0.67,0.54,0.36,0.85l-2.74,2.74l7.294,7.294 C42.094,39.274,42.095,39.906,41.705,40.297z"/><linearGradient id="tbgIttLSyJwmb3uGLjLRMc" x1="35.081" x2="30.674" y1="500.026" y2="500.026" gradientTransform="scale(1 -1) rotate(-45 -594.445 239.002)" gradientUnits="userSpaceOnUse"><stop offset=".365" stop-color="#199ae0"/><stop offset=".699" stop-color="#1898de"/><stop offset=".819" stop-color="#1691d8"/><stop offset=".905" stop-color="#1186cc"/><stop offset=".974" stop-color="#0a75bc"/><stop offset="1" stop-color="#076cb3"/></linearGradient><path fill="url(#tbgIttLSyJwmb3uGLjLRMc)" d="M29.414,20l4.293-4.293l3.439,3.439C37.461,19.461,37.238,20,36.793,20L29.414,20z"/><linearGradient id="tbgIttLSyJwmb3uGLjLRMd" x1="29.939" x2="41.381" y1="44.64" y2="-34.016" gradientUnits="userSpaceOnUse"><stop offset="0" stop-color="#32bdef"/><stop offset="1" stop-color="#1ea2e4"/></linearGradient><path fill="url(#tbgIttLSyJwmb3uGLjLRMd)" d="M41.713,7.713c0.391,0.391,0.39,1.024,0,1.415L31.12,19.71C30.93,19.89,30.68,20,30.41,20H29 c-0.55,0-1-0.45-1-1v-7.79c0-0.45,0.54-0.67,0.85-0.36l2.74,2.74l7.293-7.293c0.391-0.391,1.024-0.391,1.414,0L41.713,7.713z"/><linearGradient id="tbgIttLSyJwmb3uGLjLRMe" x1="35.081" x2="30.674" y1="480.641" y2="480.641" gradientTransform="scale(1 -1) rotate(-45 -594.445 239.002)" gradientUnits="userSpaceOnUse"><stop offset=".365" stop-color="#199ae0"/><stop offset=".699" stop-color="#1898de"/><stop offset=".819" stop-color="#1691d8"/><stop offset=".905" stop-color="#1186cc"/><stop offset=".974" stop-color="#0a75bc"/><stop offset="1" stop-color="#076cb3"/></linearGradient><path fill="url(#tbgIttLSyJwmb3uGLjLRMe)" d="M20,29.414l-4.293,4.293l3.439,3.439C19.461,37.461,20,37.238,20,36.793L20,29.414z"/><linearGradient id="tbgIttLSyJwmb3uGLjLRMf" x1="8.417" x2="19.864" y1="66.521" y2="-12.176" gradientUnits="userSpaceOnUse"><stop offset="0" stop-color="#32bdef"/><stop offset="1" stop-color="#1ea2e4"/></linearGradient><path fill="url(#tbgIttLSyJwmb3uGLjLRMf)" d="M20,29v1.41c0,0.27-0.11,0.52-0.29,0.71L9.127,41.712c-0.39,0.391-1.024,0.391-1.415,0 l-1.415-1.415c-0.391-0.391-0.391-1.024,0-1.414l7.293-7.293l-2.74-2.74C10.54,28.54,10.76,28,11.21,28H19C19.55,28,20,28.45,20,29 z"/><linearGradient id="tbgIttLSyJwmb3uGLjLRMg" x1="19.14" x2="19.14" y1="484.12" y2="488.529" gradientTransform="scale(1 -1) rotate(-45 -594.445 239.002)" gradientUnits="userSpaceOnUse"><stop offset=".365" stop-color="#199ae0"/><stop offset=".699" stop-color="#1898de"/><stop offset=".819" stop-color="#1691d8"/><stop offset=".905" stop-color="#1186cc"/><stop offset=".974" stop-color="#0a75bc"/><stop offset="1" stop-color="#076cb3"/></linearGradient><path fill="url(#tbgIttLSyJwmb3uGLjLRMg)" d="M18.586,20l-4.293-4.293l-3.439,3.439C10.539,19.461,10.762,20,11.207,20L18.586,20z"/><linearGradient id="tbgIttLSyJwmb3uGLjLRMh" x1="9.355" x2="18.681" y1="38.776" y2="-25.335" gradientUnits="userSpaceOnUse"><stop offset="0" stop-color="#32bdef"/><stop offset="1" stop-color="#1ea2e4"/></linearGradient><path fill="url(#tbgIttLSyJwmb3uGLjLRMh)" d="M20,11.21V19c0,0.55-0.45,1-1,1h-1.41c-0.27,0-0.52-0.11-0.71-0.29L6.296,9.126 c-0.39-0.39-0.391-1.022-0.001-1.413L7.703,6.3c0.39-0.392,1.024-0.392,1.415-0.001l7.292,7.292l2.74-2.74 C19.46,10.54,20,10.76,20,11.21z"/></svg>