<svg xmlns="http://www.w3.org/2000/svg" viewBox="0 0 48 48"><linearGradient id="8WBgFWsRPw85DOi3cTeD4a" x1="12.687" x2="35.313" y1="101.314" y2="78.686" gradientTransform="matrix(1 0 0 -1 0 118)" gradientUnits="userSpaceOnUse"><stop offset="0" stop-color="#a3ffff"/><stop offset=".223" stop-color="#9dfbff"/><stop offset=".53" stop-color="#8bf1ff"/><stop offset=".885" stop-color="#6ee0ff"/><stop offset="1" stop-color="#63daff"/></linearGradient><path fill="url(#8WBgFWsRPw85DOi3cTeD4a)" d="M40,28c0,8.836-7.164,16-16,16S8,36.836,8,28s7.164-16,16-16S40,19.164,40,28z"/><path fill="#199be2" d="M23.153,26.67l-6.944-6.944c-0.446-0.446-0.131-1.208,0.5-1.208H21v-16c0-0.552,0.448-1,1-1h4	c0.552,0,1,0.448,1,1v16h4.292c0.63,0,0.946,0.762,0.5,1.208l-6.944,6.944C24.38,27.138,23.62,27.138,23.153,26.67z"/></svg>