<svg xmlns="http://www.w3.org/2000/svg" viewBox="0 0 48 48"><path fill="#50e6ff" d="M39.848,28.47l-15-24c-0.366-0.584-1.33-0.584-1.696,0l-15,24c-0.192,0.309-0.203,0.697-0.026,1.015	C8.302,29.803,8.636,30,9,30h30c0.364,0,0.698-0.197,0.875-0.516C40.051,29.167,40.041,28.778,39.848,28.47z"/><path fill="#35c1f1" d="M47.851,24.475C47.668,24.18,47.347,24,47,24H1c-0.347,0-0.668,0.18-0.851,0.475	s-0.199,0.663-0.044,0.973l7,14C7.275,39.786,7.621,40,8,40h32c0.379,0,0.725-0.214,0.895-0.553l7-14	C48.049,25.138,48.033,24.77,47.851,24.475z"/><path fill="#1b9de2" d="M40.6,38.2l-16-12c-0.355-0.268-0.845-0.268-1.2,0l-16,12c-0.344,0.258-0.485,0.708-0.349,1.116	S7.569,40,8,40h32c0.431,0,0.812-0.275,0.949-0.684S40.944,38.458,40.6,38.2z"/></svg>