<svg xmlns="http://www.w3.org/2000/svg" xmlns:xlink="http://www.w3.org/1999/xlink" data-name="Слой 1" viewBox="0 0 48 48"><defs><linearGradient id="tdPopi2ZY7a4BHecqo5ima" x1="23" x2="23" y1="7.381" y2="14.468" gradientUnits="userSpaceOnUse"><stop offset="0" stop-color="#d4943b"/><stop offset="1" stop-color="#c2620e"/></linearGradient><linearGradient id="tdPopi2ZY7a4BHecqo5imc" x1="28" x2="28" y1="7.381" y2="14.468" xlink:href="#tdPopi2ZY7a4BHecqo5ima"/><linearGradient id="tdPopi2ZY7a4BHecqo5imd" x1="-4.664" x2="38.625" y1="27.5" y2="27.5" data-name="Безымянный градиент 106" gradientUnits="userSpaceOnUse"><stop offset="0" stop-color="#c26715"/><stop offset=".51" stop-color="#b85515"/><stop offset="1" stop-color="#ad3f16"/></linearGradient><linearGradient id="tdPopi2ZY7a4BHecqo5imb" x1="23" x2="23" y1="9.477" y2="4.449" data-name="Безымянный градиент 18" gradientUnits="userSpaceOnUse"><stop offset=".002" stop-color="#454545"/><stop offset=".013" stop-color="#464646"/><stop offset=".874" stop-color="#626262"/><stop offset="1" stop-color="#6d6d6d"/></linearGradient><linearGradient id="tdPopi2ZY7a4BHecqo5ime" x1="28" x2="28" y1="9.477" y2="4.449" xlink:href="#tdPopi2ZY7a4BHecqo5imb"/><linearGradient id="tdPopi2ZY7a4BHecqo5imf" x1="-6.103" x2="33.666" y1="29.5" y2="29.5" xlink:href="#tdPopi2ZY7a4BHecqo5ima"/></defs><path fill="#33c481" d="M39,26v6a1.003,1.003,0,0,1-1-1V27A1.003,1.003,0,0,1,39,26Z"/><path fill="url(#tdPopi2ZY7a4BHecqo5ima)" d="M23,15a1.00005,1.00005,0,0,1-1-1V8a1,1,0,0,1,2,0v6A1,1,0,0,1,23,15Z"/><path fill="url(#tdPopi2ZY7a4BHecqo5imc)" d="M28,15a1.00005,1.00005,0,0,1-1-1V8a1,1,0,1,1,2,0v6A1,1,0,0,1,28,15Z"/><path fill="url(#tdPopi2ZY7a4BHecqo5imd)" d="M30.68,34.33c0,.15,0,.3-.01.44A8.6777,8.6777,0,0,1,22,43H4a1.99735,1.99735,0,0,1-2-1.99V41c0-2.33,1.76985-3.88172,3.93-4.76C7.75,35.5,11.5838,33.75144,13.5,33c4.59-1.8,7.91-5.52,7.73-10.34l-.22-6a4.493,4.493,0,1,1,8.98-.33l.09,2.3v.01l.24,6.13L30.48,29.01,30.5,29l.08,2.73.09,2.28C30.67,34.12,30.68,34.23,30.68,34.33Z"/><circle cx="23" cy="8" r="1.5" fill="url(#tdPopi2ZY7a4BHecqo5imb)"/><circle cx="28" cy="8" r="1.5" fill="url(#tdPopi2ZY7a4BHecqo5ime)"/><path fill="url(#tdPopi2ZY7a4BHecqo5imf)" d="M30.67,34.77A8.6777,8.6777,0,0,1,22,43H4a2.00588,2.00588,0,0,1-2-2H18a6,6,0,0,0,6-6V19.196a3.14941,3.14941,0,0,1,2.71779-3.17842A3.06184,3.06184,0,0,1,30.08,18.63v.01a1.52877,1.52877,0,0,1,.03.3l.21,5.83Z"/><path fill="#33c481" d="M38.95288,7V28a20.11853,20.11853,0,0,1-6.10752-6.76,1.37249,1.37249,0,0,0,.23492-.74,1.344,1.344,0,0,0-.19965-.68A2.01535,2.01535,0,0,0,34.2548,18a2.01535,2.01535,0,0,0-1.37417-1.82,1.34421,1.34421,0,0,0,.19965-.68,1.42917,1.42917,0,0,0-.5403-1.08C34.26656,10.13,38.95288,7,38.95288,7Z"/><path fill="#21a366" d="M46,17.5C46,23.3,38.95288,28,38.95288,28V7S46,11.7,46,17.5Z"/><path fill="#21a366" d="M40,27v4a1.003,1.003,0,0,1-1,1V26A1.003,1.003,0,0,1,40,27Z"/></svg>