<svg xmlns="http://www.w3.org/2000/svg" xmlns:xlink="http://www.w3.org/1999/xlink" data-name="Слой 1" viewBox="0 0 48 48"><defs><linearGradient id="c1SYIqGyfm~yyXQLZZd3pa" x1="11" x2="20" y1="24" y2="24" gradientUnits="userSpaceOnUse"><stop offset="0" stop-color="#92a3b0"/><stop offset=".015" stop-color="#a3b5c4"/><stop offset=".032" stop-color="#aec2d1"/><stop offset=".046" stop-color="#b2c6d6"/></linearGradient><linearGradient id="c1SYIqGyfm~yyXQLZZd3pb" x1="34" x2="43" xlink:href="#c1SYIqGyfm~yyXQLZZd3pa"/><linearGradient id="c1SYIqGyfm~yyXQLZZd3pc" x1="24" x2="24" y1="-5908.961" y2="-5916.995" data-name="Безымянный градиент 152" gradientTransform="matrix(1 0 0 -1 0 -5874)" gradientUnits="userSpaceOnUse"><stop offset="0" stop-color="#2aa4f4"/><stop offset="1" stop-color="#007ad9"/></linearGradient></defs><rect width="22" height="3" x="13" y="20" fill="#64717c"/><rect width="22" height="3" x="13" y="29" fill="#64717c"/><path fill="url(#c1SYIqGyfm~yyXQLZZd3pa)" d="M12.5,39A1.50007,1.50007,0,0,1,11,37.5v-24a4.5,4.5,0,0,1,9,0,1.5,1.5,0,0,1-3,0,1.5,1.5,0,0,0-3,0v24A1.50007,1.50007,0,0,1,12.5,39Z"/><path fill="url(#c1SYIqGyfm~yyXQLZZd3pb)" d="M35.5,39A1.50007,1.50007,0,0,1,34,37.5v-24a4.5,4.5,0,0,1,9,0,1.5,1.5,0,0,1-3,0,1.5,1.5,0,0,0-3,0v24A1.50007,1.50007,0,0,1,35.5,39Z"/><path fill="url(#c1SYIqGyfm~yyXQLZZd3pc)" d="M42,36a5.60654,5.60654,0,0,1-3-1,5.60654,5.60654,0,0,1-3,1,5.60654,5.60654,0,0,1-3-1,5.60654,5.60654,0,0,1-3,1,5.60654,5.60654,0,0,1-3-1,5.60654,5.60654,0,0,1-3,1,5.60654,5.60654,0,0,1-3-1,5.60654,5.60654,0,0,1-3,1,5.60654,5.60654,0,0,1-3-1,5.60654,5.60654,0,0,1-3,1,5.60654,5.60654,0,0,1-3-1,5.60654,5.60654,0,0,1-3,1,5.60654,5.60654,0,0,1-3-1v6a1.99945,1.99945,0,0,0,2,2H43a1.99945,1.99945,0,0,0,2-2V35A5.60654,5.60654,0,0,1,42,36Z"/></svg>