<svg xmlns="http://www.w3.org/2000/svg" viewBox="0 0 48 48"><radialGradient id="Tv_kINfYmmQVcIVy92eGsa" cx="23.217" cy="42.652" r="35.662" gradientUnits="userSpaceOnUse"><stop offset="0" stop-color="#889097"/><stop offset="1" stop-color="#4c5963"/></radialGradient><path fill="url(#Tv_kINfYmmQVcIVy92eGsa)" d="M40.174,42H7.826C6.817,42,6,41.183,6,40.174V13.826C6,12.817,6.817,12,7.826,12h32.349	C41.183,12,42,12.817,42,13.826v26.349C42,41.183,41.183,42,40.174,42z"/><polygon fill="#d35230" points="21,22 17,20 16,13 17,6 21,6 22,13"/><rect width="11" height="16" x="21" y="6" fill="#ed6c47"/><linearGradient id="Tv_kINfYmmQVcIVy92eGsb" x1="11.5" x2="11.5" y1="2.603" y2="26.084" gradientUnits="userSpaceOnUse"><stop offset="0" stop-color="#ffcf54"/><stop offset=".261" stop-color="#fdcb4d"/><stop offset=".639" stop-color="#f7c13a"/><stop offset="1" stop-color="#f0b421"/></linearGradient><path fill="url(#Tv_kINfYmmQVcIVy92eGsb)" d="M17,6v18L6,29V8c0-1.1,0.9-2,2-2H17z"/><path fill="#ff8f6b" d="M40,6h-9v18l11,5V8C42,6.895,41.105,6,40,6z"/><polygon fill="#ed6c47" points="40,24 34,22 34,16 40,18"/><polygon fill="#ed6c47" points="40,15 34,13 34,7 40,9"/><path fill="#c28200" d="M6,25l6-2v-3.838c0-2.048-2.006-3.494-3.949-2.846l0,0C6.826,16.725,6,17.871,6,19.162V25z"/><path fill="#c28200" d="M12,6v6l-6,2V8c0-1.1,0.9-2,2-2H12z"/><rect width="4" height="4" x="24" y="15" fill="#9e351a"/><rect width="4" height="4" x="24" y="8" fill="#9e351a"/></svg>