<svg xmlns="http://www.w3.org/2000/svg" viewBox="0 0 48 48"><linearGradient id="_rf~UR0SKjlA0CHDxRd6Ha" x1="-6.665" x2="34.46" y1="10.835" y2="51.96" gradientUnits="userSpaceOnUse"><stop offset="0" stop-color="#33c481"/><stop offset="1" stop-color="#21a366"/></linearGradient><path fill="url(#_rf~UR0SKjlA0CHDxRd6Ha)" d="M8,25H5c-0.553,0-1-0.448-1-1s0.447-1,1-1h3c0.553,0,1,0.448,1,1S8.553,25,8,25z"/><linearGradient id="_rf~UR0SKjlA0CHDxRd6Hb" x1="-10.289" x2="30.835" y1="14.46" y2="55.584" gradientUnits="userSpaceOnUse"><stop offset="0" stop-color="#33c481"/><stop offset="1" stop-color="#21a366"/></linearGradient><path fill="url(#_rf~UR0SKjlA0CHDxRd6Hb)" d="M9.858,36.728l2.121-2.121c0.391-0.391,1.024-0.39,1.414,0s0.391,1.023,0,1.414l-2.121,2.121	c-0.391,0.391-1.024,0.39-1.414,0S9.467,37.119,9.858,36.728z"/><linearGradient id="_rf~UR0SKjlA0CHDxRd6Hc" x1="2.085" x2="43.21" y1="2.085" y2="43.21" gradientUnits="userSpaceOnUse"><stop offset="0" stop-color="#33c481"/><stop offset="1" stop-color="#21a366"/></linearGradient><path fill="url(#_rf~UR0SKjlA0CHDxRd6Hc)" d="M11.272,9.858l2.121,2.121c0.391,0.391,0.39,1.024,0,1.414s-1.023,0.391-1.414,0l-2.121-2.121	c-0.391-0.391-0.39-1.024,0-1.414S10.881,9.467,11.272,9.858z"/><linearGradient id="_rf~UR0SKjlA0CHDxRd6Hd" x1="-1.136" x2="39.989" y1="5.306" y2="46.431" gradientUnits="userSpaceOnUse"><stop offset="0" stop-color="#33c481"/><stop offset="1" stop-color="#21a366"/></linearGradient><path fill="url(#_rf~UR0SKjlA0CHDxRd6Hd)" d="M8.03,13.658l2.6,1.496c0.479,0.276,0.643,0.887,0.368,1.365	c-0.275,0.478-0.886,0.644-1.365,0.368l-2.6-1.496c-0.479-0.276-0.643-0.887-0.368-1.365C6.939,13.548,7.55,13.383,8.03,13.658z"/><linearGradient id="_rf~UR0SKjlA0CHDxRd6He" x1="-4.102" x2="37.023" y1="8.272" y2="49.397" gradientUnits="userSpaceOnUse"><stop offset="0" stop-color="#33c481"/><stop offset="1" stop-color="#21a366"/></linearGradient><path fill="url(#_rf~UR0SKjlA0CHDxRd6He)" d="M5.906,18.117l2.898,0.776c0.534,0.143,0.85,0.692,0.707,1.225	c-0.143,0.533-0.691,0.85-1.225,0.707l-2.898-0.776c-0.534-0.143-0.85-0.692-0.707-1.225C4.824,18.291,5.372,17.974,5.906,18.117z"/><linearGradient id="_rf~UR0SKjlA0CHDxRd6Hf" x1="-10.289" x2="30.835" y1="14.46" y2="55.584" gradientUnits="userSpaceOnUse"><stop offset="0" stop-color="#33c481"/><stop offset="1" stop-color="#21a366"/></linearGradient><path fill="url(#_rf~UR0SKjlA0CHDxRd6Hf)" d="M13.393,34.607c0.39,0.39,0.391,1.023,0,1.414l-2.121,2.121c-0.391,0.391-1.024,0.39-1.414,0	s-0.391-1.023,0-1.414l2.121-2.121C12.37,34.216,13.003,34.216,13.393,34.607z"/><linearGradient id="_rf~UR0SKjlA0CHDxRd6Hg" x1="-9.863" x2="31.262" y1="14.033" y2="55.158" gradientUnits="userSpaceOnUse"><stop offset="0" stop-color="#33c481"/><stop offset="1" stop-color="#21a366"/></linearGradient><path fill="url(#_rf~UR0SKjlA0CHDxRd6Hg)" d="M10.998,31.48c0.275,0.478,0.111,1.09-0.368,1.365l-2.6,1.496	c-0.479,0.276-1.09,0.11-1.365-0.368c-0.275-0.478-0.111-1.09,0.368-1.365l2.6-1.496C10.112,30.836,10.723,31.002,10.998,31.48z"/><linearGradient id="_rf~UR0SKjlA0CHDxRd6Hh" x1="-8.631" x2="32.493" y1="12.802" y2="53.926" gradientUnits="userSpaceOnUse"><stop offset="0" stop-color="#33c481"/><stop offset="1" stop-color="#21a366"/></linearGradient><path fill="url(#_rf~UR0SKjlA0CHDxRd6Hh)" d="M9.511,27.882c0.143,0.533-0.173,1.082-0.707,1.225l-2.898,0.776	c-0.534,0.143-1.082-0.174-1.225-0.707c-0.143-0.533,0.173-1.082,0.707-1.225l2.898-0.776C8.821,27.032,9.368,27.349,9.511,27.882z"/><linearGradient id="_rf~UR0SKjlA0CHDxRd6Hi" x1="5.307" x2="46.431" y1="-1.137" y2="39.988" gradientUnits="userSpaceOnUse"><stop offset="0" stop-color="#33c481"/><stop offset="1" stop-color="#21a366"/></linearGradient><path fill="url(#_rf~UR0SKjlA0CHDxRd6Hi)" d="M16.522,10.999c-0.478,0.275-1.09,0.111-1.365-0.368l-1.496-2.6	c-0.276-0.479-0.11-1.09,0.368-1.365c0.478-0.275,1.09-0.111,1.365,0.368l1.496,2.6C17.166,10.113,17,10.724,16.522,10.999z"/><linearGradient id="_rf~UR0SKjlA0CHDxRd6Hj" x1="8.273" x2="49.398" y1="-4.103" y2="37.022" gradientUnits="userSpaceOnUse"><stop offset="0" stop-color="#33c481"/><stop offset="1" stop-color="#21a366"/></linearGradient><path fill="url(#_rf~UR0SKjlA0CHDxRd6Hj)" d="M20.12,9.512c-0.533,0.143-1.082-0.173-1.225-0.707l-0.776-2.898	c-0.143-0.534,0.174-1.082,0.707-1.225s1.082,0.173,1.225,0.707l0.776,2.898C20.97,8.821,20.653,9.369,20.12,9.512z"/><linearGradient id="_rf~UR0SKjlA0CHDxRd6Hk" x1="-8.636" x2="32.488" y1="12.806" y2="53.931" gradientUnits="userSpaceOnUse"><stop offset="0" stop-color="#33c481"/><stop offset="1" stop-color="#21a366"/></linearGradient><path fill="url(#_rf~UR0SKjlA0CHDxRd6Hk)" d="M18.809,43.315c-0.533-0.143-0.85-0.691-0.706-1.225l0.779-2.897	c0.144-0.534,0.692-0.849,1.225-0.706c0.533,0.143,0.85,0.691,0.706,1.225l-0.779,2.897C19.89,43.143,19.342,43.458,18.809,43.315z"/><linearGradient id="_rf~UR0SKjlA0CHDxRd6Hl" x1="-9.871" x2="31.254" y1="14.041" y2="55.166" gradientUnits="userSpaceOnUse"><stop offset="0" stop-color="#33c481"/><stop offset="1" stop-color="#21a366"/></linearGradient><path fill="url(#_rf~UR0SKjlA0CHDxRd6Hl)" d="M13.981,41.309c-0.478-0.277-0.641-0.888-0.364-1.366l1.503-2.596	c0.277-0.479,0.889-0.641,1.366-0.364c0.478,0.277,0.641,0.888,0.364,1.366l-1.503,2.596C15.071,41.424,14.459,41.586,13.981,41.309	z"/><linearGradient id="_rf~UR0SKjlA0CHDxRd6Hm" x1="4.233" x2="45.358" y1="-.063" y2="41.062" gradientUnits="userSpaceOnUse"><stop offset="0" stop-color="#33c481"/><stop offset="1" stop-color="#21a366"/></linearGradient><path fill="url(#_rf~UR0SKjlA0CHDxRd6Hm)" d="M24.516,4.006C24.234,3.999,24,4.232,24,4.515v3.834c0,0,0.006,0.073,0.007,0.074	c0.015,0.263,0.228,0.473,0.495,0.473c0.001,0,0.053,0.001,0.077,0.002c8.08,0.302,14.54,6.949,14.54,15.103	c0,8.146-6.446,14.787-14.516,15.101c-0.034,0.001-0.123,0.008-0.125,0.008C24.213,39.121,24,39.336,24,39.605	c0,0.005,0,3.881,0,3.881c0,0.283,0.234,0.515,0.516,0.508C35.325,43.722,44.005,34.874,44.005,24	C44.005,13.126,35.325,4.278,24.516,4.006z"/><linearGradient id="_rf~UR0SKjlA0CHDxRd6Hn" x1="23.571" x2="15.329" y1="-582.431" y2="-590.672" gradientTransform="translate(0 614)" gradientUnits="userSpaceOnUse"><stop offset=".108" stop-color="#0d7044"/><stop offset=".433" stop-color="#11945a"/></linearGradient><path fill="url(#_rf~UR0SKjlA0CHDxRd6Hn)" d="M21.139,32.697l-6.836-6.836c-0.404-0.404-0.404-1.058,0-1.462l2.097-2.097	c0.404-0.404,1.058-0.404,1.462,0l6.836,6.836c0.404,0.404,0.404,1.058,0,1.462l-2.097,2.097C22.197,33.1,21.543,33.1,21.139,32.697	z"/><linearGradient id="_rf~UR0SKjlA0CHDxRd6Ho" x1="-76.412" x2="-57.236" y1="-51.926" y2="-51.926" gradientTransform="rotate(134.999 -35.882 5.876)" gradientUnits="userSpaceOnUse"><stop offset="0" stop-color="#2ac782"/><stop offset="1" stop-color="#21b876"/></linearGradient><path fill="url(#_rf~UR0SKjlA0CHDxRd6Ho)" d="M19.042,29.138l12.097-12.097c0.404-0.404,1.058-0.404,1.462,0l2.097,2.097	c0.404,0.404,0.404,1.058,0,1.462L22.601,32.697c-0.404,0.404-1.058,0.404-1.462,0L19.042,30.6	C18.639,30.196,18.639,29.542,19.042,29.138z"/></svg>