<svg xmlns="http://www.w3.org/2000/svg" data-name="Слой 1" viewBox="0 0 48 48"><defs><linearGradient id="VUWaBhL~XaM6QqqaN2tfFa" x1="24" x2="24" y1="12.543" y2="23.5" data-name="Безымянный градиент 119" gradientUnits="userSpaceOnUse"><stop offset="0" stop-color="#912fbd"/><stop offset="1" stop-color="#9332bf"/></linearGradient><linearGradient id="VUWaBhL~XaM6QqqaN2tfFb" x1="20.569" x2="26.924" y1="27.574" y2="45.033" data-name="Безымянный градиент 129" gradientUnits="userSpaceOnUse"><stop offset="0" stop-color="#ffd869"/><stop offset="1" stop-color="#fec52b"/></linearGradient><linearGradient id="VUWaBhL~XaM6QqqaN2tfFc" x1="24" x2="24" y1="11.761" y2="25.587" data-name="Безымянный градиент 120" gradientUnits="userSpaceOnUse"><stop offset="0" stop-color="#ae4cd5"/><stop offset="1" stop-color="#ac4ad5"/></linearGradient></defs><rect width="44" height="8" x="2" y="14" fill="url(#VUWaBhL~XaM6QqqaN2tfFa)" rx="2"/><path fill="#f09801" d="M24,32a5,5,0,1,1,5-5A5.00588,5.00588,0,0,1,24,32Zm0-8a3,3,0,1,0,3,3A3.00328,3.00328,0,0,0,24,24Z"/><circle cx="24" cy="37" r="6" fill="url(#VUWaBhL~XaM6QqqaN2tfFb)"/><path d="M26,15v6H22V15h4m1-1H21v8h6V14Z" opacity=".05"/><path d="M26,15v6H22V15h4m.5-.5h-5v7h5v-7Z" opacity=".07"/><circle cx="24" cy="37" r="4" fill="#f09801"/><rect width="4" height="12" x="22" y="13" fill="url(#VUWaBhL~XaM6QqqaN2tfFc)" rx="1"/><g><circle cx="17" cy="17.989" r="1" fill="#343434"/><circle cx="11" cy="17.989" r="1" fill="#343434"/><circle cx="37" cy="17.989" r="1" fill="#343434"/><circle cx="31" cy="17.989" r="1" fill="#343434"/></g></svg>