<svg xmlns="http://www.w3.org/2000/svg" viewBox="0 0 48 48"><path fill="#35c1f1" d="M40,43H22V7h18c1.105,0,2,0.895,2,2v32C42,42.105,41.105,43,40,43z"/><path fill="#199be2" d="M14.447,3.224C14.306,3.153,14.153,3.118,14,3.118v36c0.153,0,0.306,0.035,0.447,0.106L22,43V7	L14.447,3.224z"/><path fill="#50e6ff" d="M13.553,3.224L7.106,6.447C6.428,6.786,6,7.479,6,8.236v33.146c0,0.743,0.782,1.227,1.447,0.894	l6.106-3.053c0.141-0.07,0.294-0.106,0.447-0.106v-36C13.847,3.118,13.694,3.153,13.553,3.224z"/><path fill="#1a7ecf" d="M22,21v-6h3v2h4v-2h10v3l-4,1v2l2,1v2h-4l-1,8l-3,2l-1-6l-4-3v-3L22,21z"/><polygon fill="#1a7ecf" points="35,28 38,28 40,31 38,33 35,32"/><polygon fill="#199be2" points="13,22 13,19 14,17 14,11 12.368,11.474 9,15 9,22 11,23 11,35 13,35 14,31.6 14,21"/><polygon fill="#235199" points="15,18 18,20 19,16 14,11 14,17"/><polygon fill="#235199" points="18,25 16,23 14,21 14,31.6 18,28"/></svg>