<svg xmlns="http://www.w3.org/2000/svg" data-name="Слой 1" viewBox="0 0 48 48"><defs><linearGradient id="m4_51hhs274GvGAkZMoJIa" x1="24" x2="24" y1="43.125" y2="18.016" data-name="Безымянный градиент 216" gradientUnits="userSpaceOnUse"><stop offset="0" stop-color="#b9360c"/><stop offset=".537" stop-color="#b5350c"/><stop offset=".999" stop-color="#ab320b"/></linearGradient><linearGradient id="m4_51hhs274GvGAkZMoJIb" x1="19.024" x2="30.191" y1="3.925" y2="36.629" data-name="Безымянный градиент 115" gradientUnits="userSpaceOnUse"><stop offset="0" stop-color="#eba84b"/><stop offset=".255" stop-color="#e8a044"/><stop offset=".641" stop-color="#e18b30"/><stop offset="1" stop-color="#d97218"/></linearGradient></defs><path fill="url(#m4_51hhs274GvGAkZMoJIa)" d="M45,18.0023v23a2.00591,2.00591,0,0,1-2,2H5a1.99946,1.99946,0,0,1-2-2v-23H15v7a9,9,0,0,0,18,0v-7Z"/><path fill="#d43a02" d="M3,17.0023H14a1,1,0,0,1,1,1v1H3Z"/><path fill="#d43a02" d="M45,17.0023v2H33v-1a1,1,0,0,1,1-1Z"/><circle cx="24" cy="37" r="1" fill="#d43a02"/><circle cx="30" cy="37" r="1" fill="#d43a02"/><circle cx="33" cy="34" r="1" fill="#d43a02"/><circle cx="36" cy="31" r="1" fill="#d43a02"/><circle cx="36" cy="37" r="1" fill="#d43a02"/><circle cx="39" cy="28" r="1" fill="#d43a02"/><circle cx="39" cy="34" r="1" fill="#d43a02"/><circle cx="42" cy="31" r="1" fill="#d43a02"/><circle cx="42" cy="37" r="1" fill="#d43a02"/><circle cx="18" cy="37" r="1" fill="#d43a02"/><circle cx="6" cy="31" r="1" fill="#d43a02"/><circle cx="6" cy="37" r="1" fill="#d43a02"/><circle cx="9" cy="28" r="1" fill="#d43a02"/><circle cx="9" cy="34" r="1" fill="#d43a02"/><circle cx="12" cy="31" r="1" fill="#d43a02"/><circle cx="36" cy="25.002" r="1" fill="#d43a02"/><circle cx="42" cy="25.002" r="1" fill="#d43a02"/><circle cx="6" cy="25.002" r="1" fill="#d43a02"/><circle cx="12" cy="25.002" r="1" fill="#d43a02"/><circle cx="12" cy="37" r="1" fill="#d43a02"/><circle cx="39" cy="22.002" r="1" fill="#d43a02"/><circle cx="9" cy="22.002" r="1" fill="#d43a02"/><circle cx="15" cy="34" r="1" fill="#d43a02"/><circle cx="21" cy="40" r="1" fill="#d43a02"/><circle cx="27" cy="40" r="1" fill="#d43a02"/><circle cx="33" cy="40" r="1" fill="#d43a02"/><circle cx="39" cy="40" r="1" fill="#d43a02"/><circle cx="9" cy="40" r="1" fill="#d43a02"/><circle cx="15" cy="40" r="1" fill="#d43a02"/><path fill="url(#m4_51hhs274GvGAkZMoJIb)" d="M23,28.5023c0-1.38071.67157-2.5,1.5-2.5s1.5,1.11929,1.5,2.5-.67157,2.5-1.5,2.5S23,29.883,23,28.5023Zm-1.2941-5.7941c.58579-.58578.26921-1.85211-.7071-2.82842s-2.24264-1.2929-2.82843-.70711-.26921,1.85212.70711,2.82843S21.12012,23.294,21.7059,22.7082Zm1.41662-11.7071c.97632-.97631,1.2929-2.24264.70711-2.82843s-1.85212-.2692-2.82843.70711-1.29289,2.24264-.7071,2.82842S22.14621,11.97741,23.12252,11.0011ZM25,16.5023c0,.82843,1.11929,1.5,2.5,1.5s2.5-.67157,2.5-1.5-1.11929-1.5-2.5-1.5S25,15.67387,25,16.5023Z"/></svg>