<svg xmlns="http://www.w3.org/2000/svg" viewBox="0 0 48 48"><linearGradient id="IF6tk5Y8eyoDJ3IzfZbcta" x1="288.64" x2="307.222" y1="-443.439" y2="-479.592" gradientTransform="matrix(1 0 0 -1 -273.638 -436.945)" gradientUnits="userSpaceOnUse"><stop offset="0" stop-color="#75daff"/><stop offset="1" stop-color="#1ea2e4"/></linearGradient><path fill="url(#IF6tk5Y8eyoDJ3IzfZbcta)" d="M44,24c0,11.045-8.955,20-20,20S4,35.045,4,24S12.955,4,24,4S44,12.955,44,24z"/><path fill="#1d59b3" d="M18.442,32.235v-3.331c1.209,0.74,2.496,1.11,3.862,1.11c1.028,0,1.832-0.245,2.412-0.734 c0.58-0.49,0.87-1.154,0.87-1.993c0-1.752-1.238-2.628-3.714-2.628c-0.913,0-1.966,0.07-3.158,0.21L19.38,15h9.364v3.183h-6.391 l-0.247,3.541c0.633-0.049,1.18-0.074,1.641-0.074c1.818,0,3.24,0.477,4.269,1.431c1.028,0.954,1.542,2.237,1.542,3.849 c0,1.785-0.613,3.243-1.838,4.374C26.494,32.434,24.833,33,22.735,33C21.033,33,19.602,32.745,18.442,32.235z"/></svg>