<svg xmlns="http://www.w3.org/2000/svg" viewBox="0 0 48 48"><linearGradient id="in1T5bP4Vk5Tgh0bF5jw7a" x1="16.548" x2="30.468" y1="5.526" y2="43.77" gradientUnits="userSpaceOnUse"><stop offset="0" stop-color="#ed3675"/><stop offset="1" stop-color="#ca1b4d"/></linearGradient><path fill="url(#in1T5bP4Vk5Tgh0bF5jw7a)" d="M24,13c-8.284,0-15,5.82-15,13s6.716,13,15,13c8.284,0,15-5.82,15-13S32.284,13,24,13z M26.541,35.839c-3.172,0.98-7.105-2.631-8.784-8.065c-1.679-5.434-0.469-10.635,2.704-11.615c3.172-0.98,7.105,2.631,8.784,8.065	S29.713,34.858,26.541,35.839z"/><linearGradient id="in1T5bP4Vk5Tgh0bF5jw7b" x1="-3.452" x2="10.035" y1="11.021" y2="48.077" gradientUnits="userSpaceOnUse"><stop offset="0" stop-color="#ed3675"/><stop offset="1" stop-color="#ca1b4d"/></linearGradient><path fill="url(#in1T5bP4Vk5Tgh0bF5jw7b)" d="M1,12h2c0.552,0,1,0.448,1,1v26c0,0.552-0.448,1-1,1H1c-0.552,0-1-0.448-1-1V13	C0,12.448,0.448,12,1,12z"/><linearGradient id="in1T5bP4Vk5Tgh0bF5jw7c" x1="2.066" x2="15.553" y1="9.696" y2="46.752" gradientUnits="userSpaceOnUse"><stop offset="0" stop-color="#ed3675"/><stop offset="1" stop-color="#ca1b4d"/></linearGradient><path fill="url(#in1T5bP4Vk5Tgh0bF5jw7c)" d="M7,12h2c0.552,0,1,0.448,1,1v26c0,0.552-0.448,1-1,1H7c-0.552,0-1-0.448-1-1V13	C6,12.448,6.448,12,7,12z"/><linearGradient id="in1T5bP4Vk5Tgh0bF5jw7d" x1="31.493" x2="44.981" y1="2.628" y2="39.684" gradientUnits="userSpaceOnUse"><stop offset="0" stop-color="#ed3675"/><stop offset="1" stop-color="#ca1b4d"/></linearGradient><path fill="url(#in1T5bP4Vk5Tgh0bF5jw7d)" d="M39,12h2c0.552,0,1,0.448,1,1v26c0,0.552-0.448,1-1,1h-2c-0.552,0-1-0.448-1-1V13	C38,12.448,38.448,12,39,12z"/><linearGradient id="in1T5bP4Vk5Tgh0bF5jw7e" x1="37.011" x2="50.498" y1="1.303" y2="38.359" gradientUnits="userSpaceOnUse"><stop offset="0" stop-color="#ed3675"/><stop offset="1" stop-color="#ca1b4d"/></linearGradient><path fill="url(#in1T5bP4Vk5Tgh0bF5jw7e)" d="M45,12h2c0.552,0,1,0.448,1,1v26c0,0.552-0.448,1-1,1h-2c-0.552,0-1-0.448-1-1V13	C44,12.448,44.448,12,45,12z"/></svg>