<svg xmlns="http://www.w3.org/2000/svg" viewBox="0 0 48 48"><linearGradient id="ZNm192MUH8N48PApnIZPVa" x1="24" x2="24" y1="3.184" y2="25.716" gradientUnits="userSpaceOnUse"><stop offset="0" stop-color="#21ad64"/><stop offset="1" stop-color="#088242"/></linearGradient><path fill="url(#ZNm192MUH8N48PApnIZPVa)" d="M9,21.419C9,12.71,15.716,4,24,4s15,8.71,15,17.419C39,28.367,32,34,24,34 S9,28.367,9,21.419z"/><linearGradient id="ZNm192MUH8N48PApnIZPVb" x1="35.364" x2="38.491" y1="30.83" y2="31.241" gradientUnits="userSpaceOnUse"><stop offset="0" stop-color="#c48f0c"/><stop offset=".251" stop-color="#d19b16"/><stop offset=".619" stop-color="#dca51f"/><stop offset="1" stop-color="#e0a922"/></linearGradient><path fill="url(#ZNm192MUH8N48PApnIZPVb)" d="M31.28,27.516l0.271-0.317C32.947,25.576,34.821,25,36,25c1.491,0,3,1.374,3,4 c0,3.419-2.472,7-5,7l-4.42,0.003L31.28,27.516z"/><linearGradient id="ZNm192MUH8N48PApnIZPVc" x1="12.464" x2="9.086" y1="30.647" y2="30.828" gradientUnits="userSpaceOnUse"><stop offset="0" stop-color="#c48f0c"/><stop offset=".251" stop-color="#d19b16"/><stop offset=".619" stop-color="#dca51f"/><stop offset="1" stop-color="#e0a922"/></linearGradient><path fill="url(#ZNm192MUH8N48PApnIZPVc)" d="M18.421,36.003L14,36c-2.528,0-5-3.581-5-7c0-2.626,1.509-4,3-4 c1.179,0,3.053,0.576,4.449,2.199l0.271,0.317L18.421,36.003z"/><path fill="#883515" d="M16,33l-1.963,3l-0.36-0.937c-0.78-2.029-1.223-4.171-1.314-6.342L12,20l4-2V33z"/><path fill="#883515" d="M32,33l1.963,3l0.36-0.937c0.78-2.029,1.223-4.171,1.314-6.342L36,20l-4-2V33z"/><radialGradient id="ZNm192MUH8N48PApnIZPVd" cx="23.717" cy="29.198" r="16.034" gradientUnits="userSpaceOnUse"><stop offset="0" stop-color="#ffcf54"/><stop offset=".261" stop-color="#fdcb4d"/><stop offset=".639" stop-color="#f7c13a"/><stop offset="1" stop-color="#f0b421"/></radialGradient><path fill="url(#ZNm192MUH8N48PApnIZPVd)" d="M14,19l7.071-3h5.858L34,19c0,0-0.67,15.823-2,19.156C30.347,42.302,27.673,45,24,45 c-3.819,0-6.557-2.916-8.192-7.342C14.606,34.403,14,19,14,19z"/><ellipse cx="29" cy="26" fill="#fff" rx="2" ry="3"/><ellipse cx="28.5" cy="26.5" fill="#2196f3" rx="1.5" ry="2.5"/><linearGradient id="ZNm192MUH8N48PApnIZPVe" x1="28" x2="28" y1="25.208" y2="28.911" gradientUnits="userSpaceOnUse"><stop offset="0" stop-color="#6d7479"/><stop offset=".801" stop-color="#323538"/></linearGradient><ellipse cx="28" cy="27" fill="url(#ZNm192MUH8N48PApnIZPVe)" rx="1" ry="2"/><ellipse cx="19" cy="27" fill="#fff" rx="2" ry="3"/><ellipse cx="19" cy="26" fill="#fff" rx="2" ry="3"/><ellipse cx="19.5" cy="26.5" fill="#2196f3" rx="1.5" ry="2.5"/><linearGradient id="ZNm192MUH8N48PApnIZPVf" x1="20" x2="20" y1="25.208" y2="28.911" gradientUnits="userSpaceOnUse"><stop offset="0" stop-color="#6d7479"/><stop offset=".78" stop-color="#323538"/></linearGradient><ellipse cx="20" cy="27" fill="url(#ZNm192MUH8N48PApnIZPVf)" rx="1" ry="2"/><path fill="#fff" d="M24,7c-2.76,0-5,2.24-5,5c0,1.51,0.67,2.86,1.73,3.78c0.88,0.76,5.44,0.85,6.27,0.22 c1.22-0.91,2-2.36,2-4C29,9.24,26.76,7,24,7z M22.17,14L22,8.1L24,8l-0.406,3.709l2.868-0.397L26.5,13.99L22.17,14z"/><path fill="#33c481" d="M35.359,21.74c-1.859-1.212-3.699-2.208-5.596-2.88c-1.895-0.656-3.827-1.031-5.764-1.014 c-1.937-0.021-3.87,0.354-5.765,1.009c-1.897,0.672-3.738,1.67-5.594,2.885l-0.02,0.013c-0.494,0.323-1.11,0.1-1.377-0.498 c-0.203-0.456-0.143-1.001,0.115-1.376c1.492-2.155,3.448-3.88,5.629-5.057C19.167,13.623,21.583,13.025,24,13 c2.417,0.02,4.833,0.619,7.013,1.817c2.182,1.176,4.138,2.903,5.628,5.062c0.36,0.522,0.303,1.298-0.128,1.734 c-0.327,0.332-0.776,0.371-1.131,0.142L35.359,21.74z"/><linearGradient id="ZNm192MUH8N48PApnIZPVg" x1="19" x2="19" y1="17.796" y2="20.291" gradientUnits="userSpaceOnUse"><stop offset="0" stop-color="#6d7479"/><stop offset=".32" stop-color="#595f63"/><stop offset="1" stop-color="#323538"/></linearGradient><path fill="url(#ZNm192MUH8N48PApnIZPVg)" d="M16,22c1.577-2.37,4.144-2.798,6-1.228c-0.093-2.456-1.979-2.97-3.433-2.713 C17.113,18.317,16.031,19.402,16,22z"/><linearGradient id="ZNm192MUH8N48PApnIZPVh" x1="29" x2="29" y1="17.805" y2="20.393" gradientUnits="userSpaceOnUse"><stop offset="0" stop-color="#6d7479"/><stop offset=".32" stop-color="#595f63"/><stop offset="1" stop-color="#323538"/></linearGradient><path fill="url(#ZNm192MUH8N48PApnIZPVh)" d="M32,22c-1.577-2.37-4.144-2.798-6-1.228c0.093-2.456,1.979-2.97,3.433-2.713 S31.969,19.402,32,22z"/><linearGradient id="ZNm192MUH8N48PApnIZPVi" x1="24.038" x2="23.951" y1="31.486" y2="40.502" gradientUnits="userSpaceOnUse"><stop offset=".185" stop-color="#6d7479"/><stop offset=".446" stop-color="#595f63"/><stop offset="1" stop-color="#323538"/></linearGradient><path fill="url(#ZNm192MUH8N48PApnIZPVi)" d="M33.04,32.33c-1.03,1.33-2.83,2.19-4.79,2.19c-0.88,0-1.7-0.17-2.44-0.48 c-0.007-0.003-0.014-0.006-0.021-0.009c-1.154-0.49-2.425-0.49-3.579,0c-0.007,0.003-0.014,0.006-0.021,0.009 c-0.74,0.31-1.56,0.48-2.44,0.48c-1.96,0-3.82-0.88-4.85-2.2c-0.65,0.89-0.9,1.98-0.9,3.12c0,3.07,2.69,5.56,6,5.56 c1.54,0,2.94-0.53,4-1.42c1.06,0.89,2.46,1.42,4,1.42c3.31,0,6-2.49,6-5.56C34,34.3,33.69,33.22,33.04,32.33z"/><radialGradient id="ZNm192MUH8N48PApnIZPVj" cx="24.248" cy="27.461" r="8.771" gradientUnits="userSpaceOnUse"><stop offset="0" stop-color="#ffe299"/><stop offset=".213" stop-color="#ffe092"/><stop offset=".522" stop-color="#ffda7f"/><stop offset=".889" stop-color="#ffd05f"/><stop offset="1" stop-color="#ffcd54"/></radialGradient><ellipse cx="24" cy="32" fill="url(#ZNm192MUH8N48PApnIZPVj)" rx="6" ry="5"/></svg>