<svg xmlns="http://www.w3.org/2000/svg" viewBox="0 0 48 48"><linearGradient id="2c6uBa~znghpimyRiPH7Ra" x1="22.005" x2="24.551" y1="7.221" y2="29.019" gradientUnits="userSpaceOnUse"><stop offset="0" stop-color="#21ad64"/><stop offset="1" stop-color="#088242"/></linearGradient><path fill="url(#2c6uBa~znghpimyRiPH7Ra)" d="M41.363,11H7.02C5.909,11,5,11.9,5,13v26h38.383V13C43.383,11.9,42.474,11,41.363,11z"/><path d="M26.633,29.606L26.633,29.606c-0.315-0.736-0.899-1.307-1.644-1.604 c-0.745-0.3-1.562-0.289-2.293,0.027l-4.598,1.951l-5.301-4.847c-0.043-0.039-0.085-0.073-0.127-0.101 C11.931,24.367,10.983,24,10,24H8.004c2.746-0.009,4.987-2.251,4.996-5c0-2.757-2.243-5-5-5c-1.13,0-2.162,0.391-3,1.026v7.949 C5.838,23.609,6.87,24,8,24H6c-0.347,0-0.678,0.058-1,0.142V42h9v-7.636l1.476,1.35c0.858,0.784,2.148,1.003,3.203,0.544 l6.379-2.712c0.735-0.315,1.306-0.899,1.603-1.644C26.958,31.159,26.948,30.344,26.633,29.606z" opacity=".05"/><path d="M5,22.33c0.798,0.72,1.843,1.17,3,1.17h0.002 c2.473-0.008,4.49-2.025,4.498-4.5c0-2.481-2.019-4.5-4.5-4.5c-1.157,0-2.202,0.451-3,1.17V22.33z" opacity=".07"/><path d="M26.173,29.803c-0.263-0.613-0.749-1.088-1.369-1.336 c-0.622-0.249-1.301-0.24-1.912,0.023l-4.894,2.077l-5.537-5.063c-0.033-0.03-0.068-0.057-0.091-0.067 C11.717,24.833,10.875,24.5,10,24.5H6c-0.35,0-0.681,0.067-1,0.163V42h8.5v-8.771l2.313,2.115c0.714,0.653,1.793,0.833,2.67,0.453 l6.377-2.712c0.613-0.263,1.088-0.749,1.336-1.369S26.436,30.417,26.173,29.803z" opacity=".07"/><path fill="#fff" d="M39.5,17h-15c-0.276,0-0.5-0.224-0.5-0.5v-1c0-0.276,0.224-0.5,0.5-0.5h15 c0.276,0,0.5,0.224,0.5,0.5v1C40,16.776,39.776,17,39.5,17z"/><path fill="#fff" d="M39.5,21h-15c-0.276,0-0.5-0.224-0.5-0.5v-1c0-0.276,0.224-0.5,0.5-0.5h15 c0.276,0,0.5,0.224,0.5,0.5v1C40,20.776,39.776,21,39.5,21z"/><path fill="#fff" d="M35.5,25h-11c-0.276,0-0.5-0.224-0.5-0.5v-1c0-0.276,0.224-0.5,0.5-0.5h11 c0.276,0,0.5,0.224,0.5,0.5v1C36,24.776,35.776,25,35.5,25z"/><linearGradient id="2c6uBa~znghpimyRiPH7Rb" x1="6.063" x2="6.063" y1="-2844.668" y2="-2856.096" gradientTransform="matrix(1 0 0 -1 0 -2813.89)" gradientUnits="userSpaceOnUse"><stop offset="0" stop-color="#1ea2e4"/><stop offset="1" stop-color="#007ad9"/></linearGradient><path fill="url(#2c6uBa~znghpimyRiPH7Rb)" d="M0,42V31.667c0.004-3.68,2.987-6.663,6.667-6.667h2.667c3.68,0.005,2.662,2.987,2.666,6.667 V42H0z"/><linearGradient id="2c6uBa~znghpimyRiPH7Rc" x1="6.651" x2="9.348" y1="2837.174" y2="2844.605" gradientTransform="translate(0 -2821.89)" gradientUnits="userSpaceOnUse"><stop offset="0" stop-color="#ffcf54"/><stop offset=".261" stop-color="#fdcb4d"/><stop offset=".639" stop-color="#f7c13a"/><stop offset="1" stop-color="#f0b421"/></linearGradient><path fill="url(#2c6uBa~znghpimyRiPH7Rc)" d="M8,23c-2.209,0-4-1.791-4-4s1.791-4,4-4s4,1.791,4,4C11.994,21.206,10.206,22.994,8,23"/><linearGradient id="2c6uBa~znghpimyRiPH7Rd" x1="6.12" x2="9.813" y1="2847.269" y2="2866.776" gradientTransform="translate(0 -2821.89)" gradientUnits="userSpaceOnUse"><stop offset="0" stop-color="#32bdef"/><stop offset="1" stop-color="#1ea2e4"/></linearGradient><path fill="url(#2c6uBa~znghpimyRiPH7Rd)" d="M9,25H7c-2.209,0-4,1.791-4,4v13h10V29C13,26.791,11.209,25,9,25z"/><linearGradient id="2c6uBa~znghpimyRiPH7Re" x1="14.438" x2="14.438" y1="44.927" y2="30.91" gradientUnits="userSpaceOnUse"><stop offset="0" stop-color="#007ad9"/><stop offset="1" stop-color="#1ea2e4"/></linearGradient><path fill="url(#2c6uBa~znghpimyRiPH7Re)" d="M25.713,30c-0.434-1.014-1.609-1.486-2.626-1.05l-5.189,2.203l-5.771-5.278 c-0.03-0.027-0.064-0.046-0.095-0.071C11.496,25.309,10.786,25,10,25H6c-1.657,0-3,1.343-3,3v14h10v-9.906l3.15,2.881 c0.376,0.344,0.859,0.524,1.35,0.524c0.267,0,0.534-0.053,0.788-0.162l6.375-2.712C25.678,32.191,26.148,31.016,25.713,30z"/><linearGradient id="2c6uBa~znghpimyRiPH7Rf" x1="8" x2="8" y1="-2840.716" y2="-2860.628" gradientTransform="matrix(1 0 0 -1 0 -2813.89)" gradientUnits="userSpaceOnUse"><stop offset="0" stop-color="#dfe9f2"/><stop offset=".391" stop-color="#d6e0e9"/><stop offset="1" stop-color="#bfc8d1"/></linearGradient><polygon fill="url(#2c6uBa~znghpimyRiPH7Rf)" points="8,31 6,25 10,25"/><linearGradient id="2c6uBa~znghpimyRiPH7Rg" x1="21.963" x2="25.875" y1="30.97" y2="30.97" gradientUnits="userSpaceOnUse"><stop offset="0" stop-color="#ffcf54"/><stop offset=".261" stop-color="#fdcb4d"/><stop offset=".639" stop-color="#f7c13a"/><stop offset="1" stop-color="#f0b421"/></linearGradient><path fill="url(#2c6uBa~znghpimyRiPH7Rg)" d="M23.433,33.153l1.23-0.527c1.015-0.435,1.485-1.61,1.05-2.626 c-0.434-1.014-1.609-1.486-2.626-1.05l-1.124,0.481L23.433,33.153z"/></svg>