<svg xmlns="http://www.w3.org/2000/svg" viewBox="0 0 48 48"><path fill="#21a366" d="M24,46.017c-8.271,0-15-6.567-15-14.638c0-4.135,1.801-8.522,4.818-11.735	c0.612-0.653,0.981-1.412,1.066-2.192l0.68-6.303C15.619,6.656,19.382,3.017,24,3.017s8.381,3.639,8.437,8.132l0.68,6.304	c0.084,0.779,0.453,1.538,1.067,2.193C37.199,22.857,39,27.243,39,31.378C39,39.45,32.271,46.017,24,46.017z"/><linearGradient id="9uTYwiDymZTSj9fFi5iITa" x1="24" x2="24" y1="2.752" y2="66.143" gradientUnits="userSpaceOnUse"><stop offset="0" stop-color="#ffcf7b"/><stop offset=".196" stop-color="#fecd76"/><stop offset=".439" stop-color="#fac666"/><stop offset=".709" stop-color="#f3bc4d"/><stop offset=".995" stop-color="#eaad2a"/><stop offset="1" stop-color="#eaad29"/></linearGradient><path fill="url(#9uTYwiDymZTSj9fFi5iITa)" d="M32.717,20.911c-0.839-0.895-1.403-2.001-1.534-3.208L30.5,11.365	c0-3.506-2.91-6.349-6.5-6.349s-6.5,2.842-6.5,6.349l-0.683,6.338c-0.13,1.207-0.694,2.313-1.534,3.208	C12.654,23.715,11,27.584,11,31.319c0,7.013,5.82,12.698,13,12.698s13-5.685,13-12.698C37,27.584,35.346,23.715,32.717,20.911z"/><linearGradient id="9uTYwiDymZTSj9fFi5iITb" x1="24" x2="24" y1="5.134" y2="64.934" gradientUnits="userSpaceOnUse"><stop offset="0" stop-color="#f09701"/><stop offset="1" stop-color="#e36001"/></linearGradient><path fill="url(#9uTYwiDymZTSj9fFi5iITb)" d="M35,31.247c0,5.94-4.93,10.77-11,10.77s-11-4.83-11-10.77c0-3.18,1.4-6.58,3.75-9.08	c1.13-1.22,1.82-2.67,1.98-4.2l0.69-6.37v-0.09c0-1.76,1.04-3.29,2.55-4.02c-0.16,2.09-0.81,10.65-0.95,13.7	c-0.02,0.52-0.13,1.04-0.34,1.51c-0.93,2.08-1.68,4.73-1.68,6.32c0,5.09,2.24,8,5,8s5-2.91,5-8c0-1.8-0.76-4.29-1.68-6.34	c-0.22-0.46-0.32-0.97-0.34-1.48c-0.14-3.04-0.79-11.62-0.95-13.71c1.51,0.73,2.55,2.26,2.55,4.02v0.09l0.69,6.37	c0.16,1.53,0.85,2.98,1.98,4.19C33.6,24.667,35,28.067,35,31.247z"/><path fill="#5c2415" d="M27,28.517c0-3.59-3-6.5-3-6.5s-3,2.91-3,6.5s3,6.5,3,6.5S27,32.106,27,28.517z"/></svg>