<svg xmlns="http://www.w3.org/2000/svg" viewBox="0 0 48 48"><path fill="#35c1f1" d="M24,4h18c1.105,0,2,0.895,2,2v21c0,1.1-0.9,2-2,2H24c-1.105,0-2-0.895-2-2V6C22,4.9,22.9,4,24,4z"/><path fill="#50e6ff" d="M24,4h18c1.105,0,2,0.895,2,2v3H22V6C22,4.895,22.895,4,24,4z"/><path fill="#35c1f1" d="M36.5,5.5h4C40.776,5.5,41,5.724,41,6v1c0,0.276-0.224,0.5-0.5,0.5h-4C36.224,7.5,36,7.276,36,7V6 C36,5.724,36.224,5.5,36.5,5.5z"/><circle cx="30.75" cy="6.5" r=".75" fill="#fff"/><circle cx="28.25" cy="6.5" r=".75" fill="#fff"/><circle cx="25.75" cy="6.5" r=".75" fill="#fff"/><circle cx="33" cy="18.5" r="6.5" fill="#184f85"/><linearGradient id="qGw1QJF04FrChMwsoprhoa" x1="25.5" x2="40.5" y1="18.5" y2="18.5" gradientUnits="userSpaceOnUse"><stop offset="0" stop-color="#3079d6"/><stop offset="1" stop-color="#297cd2"/></linearGradient><circle cx="33" cy="18.5" r="6.5" fill="none" stroke="url(#qGw1QJF04FrChMwsoprhoa)" stroke-miterlimit="10" stroke-width="2"/><linearGradient id="qGw1QJF04FrChMwsoprhob" x1="36" x2="39" y1="18.5" y2="18.5" gradientUnits="userSpaceOnUse"><stop offset="0" stop-color="#3079d6"/><stop offset="1" stop-color="#297cd2"/></linearGradient><path fill="url(#qGw1QJF04FrChMwsoprhob)" d="M39,20h-2c-0.552,0-1-0.448-1-1v-1c0-0.552,0.448-1,1-1h2V20z"/><g><linearGradient id="qGw1QJF04FrChMwsoprhoc" x1="31.087" x2="19.304" y1="28.889" y2="28.889" gradientUnits="userSpaceOnUse"><stop offset="0" stop-color="#2aa4f4"/><stop offset=".301" stop-color="#239def"/><stop offset=".749" stop-color="#0e88e2"/><stop offset="1" stop-color="#007ad9"/></linearGradient><path fill="url(#qGw1QJF04FrChMwsoprhoc)" d="M25.623,33.895L21,30.5l1.733-6.722l6.098,6.282c0.216,0.23,0.226,0.585,0.024,0.827 l-2.408,2.889C26.244,34.02,25.888,34.072,25.623,33.895z"/><linearGradient id="qGw1QJF04FrChMwsoprhod" x1="1.348" x2="12.46" y1="28.889" y2="28.889" gradientUnits="userSpaceOnUse"><stop offset="0" stop-color="#2aa4f4"/><stop offset=".301" stop-color="#239def"/><stop offset=".749" stop-color="#0e88e2"/><stop offset="1" stop-color="#007ad9"/></linearGradient><path fill="url(#qGw1QJF04FrChMwsoprhod)" d="M4.552,33.776l-2.408-2.889c-0.202-0.242-0.192-0.597,0.024-0.827l6.098-6.282L10,30.5 l-4.623,3.395C5.112,34.072,4.756,34.02,4.552,33.776z"/><linearGradient id="qGw1QJF04FrChMwsoprhoe" x1="8" x2="26.75" y1="33" y2="33" gradientUnits="userSpaceOnUse"><stop offset="0" stop-color="#42a3f2"/><stop offset="1" stop-color="#42a4eb"/></linearGradient><path fill="url(#qGw1QJF04FrChMwsoprhoe)" d="M23,24.46V43c0,0.55-0.45,1-1,1H9c-0.55,0-1-0.45-1-1V24.46c0-0.38,0.22-0.73,0.56-0.9 l2.45-1.2l0.07-0.04L11.75,22h7.5l0.74,0.36l2.45,1.2C22.78,23.73,23,24.08,23,24.46z"/><path fill="#1b5ab7" d="M19.99,22.36c-0.19,2.19-2.1,3.92-4.45,3.92c-2.35,0-4.29-1.75-4.46-3.96L11.75,22h7.5L19.99,22.36z"/><linearGradient id="qGw1QJF04FrChMwsoprhof" x1="11" x2="20" y1="24.5" y2="24.5" gradientUnits="userSpaceOnUse"><stop offset="0" stop-color="#3079d6"/><stop offset="1" stop-color="#297cd2"/></linearGradient><path fill="url(#qGw1QJF04FrChMwsoprhof)" d="M19.99,22.36L19.25,22h-0.29c0.03,0.16,0.04,0.33,0.04,0.5c0,1.93-1.57,3.5-3.5,3.5 S12,24.43,12,22.5c0-0.17,0.01-0.34,0.04-0.5h-0.29l-0.74,0.36C11,22.41,11,22.45,11,22.5c0,2.48,2.02,4.5,4.5,4.5 s4.5-2.02,4.5-4.5C20,22.45,20,22.41,19.99,22.36z"/></g></svg>