<svg xmlns="http://www.w3.org/2000/svg" viewBox="0 0 48 48"><linearGradient id="aqCQW_MERaOyNK~36zYyBa" x1="18.5" x2="18.5" y1="-2.912" y2="26.564" gradientUnits="userSpaceOnUse"><stop offset="0" stop-color="#eba600"/><stop offset="1" stop-color="#c28200"/></linearGradient><path fill="url(#aqCQW_MERaOyNK~36zYyBa)" d="M24,5.75V4c0-1.105-0.895-2-2-2h-2c-2,0-7,2-7,7s5.5,8,5.5,12c0-6,0.5-13,0.5-13L24,5.75z"/><linearGradient id="aqCQW_MERaOyNK~36zYyBb" x1="25.374" x2="25.374" y1="2.26" y2="47.748" gradientUnits="userSpaceOnUse"><stop offset="0" stop-color="#ffcf54"/><stop offset=".261" stop-color="#fdcb4d"/><stop offset=".639" stop-color="#f7c13a"/><stop offset="1" stop-color="#f0b421"/></linearGradient><path fill="url(#aqCQW_MERaOyNK~36zYyBb)" d="M34.779,34.844c-0.708-0.463-1.532-0.766-2.379-0.825c-0.874-0.032-1.317-0.025-2.198-0.005	c-0.949,0.074-1.857,0.562-2.442,1.309c-0.596,0.74-0.862,1.738-0.723,2.673c0.13,0.944,0.669,1.818,1.446,2.363	c0.387,0.274,0.832,0.469,1.298,0.567c0.234,0.047,0.47,0.071,0.706,0.074L31,41l0.045,0c0.013,0,0.026,0,0.039-0.001	c0.552-0.023,0.981-0.49,0.958-1.042C32.018,39.405,31.552,38.977,31,39l-0.505,0.021c-0.105,0.004-0.209,0.001-0.313-0.011	c-0.208-0.026-0.408-0.108-0.587-0.225c-0.36-0.234-0.623-0.622-0.699-1.054c-0.204-0.891,0.545-1.837,1.462-1.887	c0.507-0.011,1.384-0.022,1.898,0c0.537,0.035,1.058,0.223,1.505,0.52c0.882,0.629,1.405,1.682,1.323,2.758	c-0.042,1.156-0.514,2.261-1.26,3.114c-0.755,0.858-1.838,1.355-2.911,1.506c-0.272,0.032-0.543,0.046-0.816,0.033	c-0.29-0.008-0.665-0.024-0.993-0.06l-2.035-0.192c-1.356-0.114-2.428-0.257-3.829-0.464c-0.076-0.011-0.339-0.061-0.482-0.078	c-0.001,0-0.002,0-0.003,0c-1.92-0.196-3.814-2.642-3.814-5.04c0-3.5,4.182-4.592,7.059-5.441c5.926-1.75,7-5.65,7-8.5	c0-0.22-0.01-0.43-0.04-0.64c0.01-0.04,0-0.08-0.01-0.12c-0.01-0.2-0.04-0.4-0.08-0.6c-0.01-0.04-0.02-0.09-0.03-0.13	c-0.04-0.17-0.08-0.34-0.13-0.5c-0.01-0.04-0.02-0.08-0.03-0.12c-0.05-0.15-0.1-0.31-0.16-0.45c0-0.03-0.01-0.05-0.03-0.07	C31.13,17.83,27.27,15.33,25,13h5.279c0.43,0,0.813-0.275,0.949-0.684l0.456-1.368c0.175-0.524-0.109-1.09-0.632-1.265L26.93,8.31	C26.592,5.878,24.525,4,22,4c-4,0-6,2.25-6,5.75S19,21.11,19,24c0,3-1.5,5-3,7c0,0,0.02-0.01,0.06-0.02	c-1.43,1.59-2.31,3.71-2.31,6.02c0,4.97,4.03,9,9,9c0.002,0,0.004,0,0.006,0c0.001,0,0.002,0,0.002,0H23h4.069h2.035	c0.348-0.003,0.658,0.006,1.037-0.006c0.396-0.006,0.788-0.05,1.178-0.122c1.554-0.303,3.003-1.137,4.02-2.351	c1.016-1.208,1.63-2.77,1.652-4.353C37.077,37.492,36.193,35.776,34.779,34.844z"/><linearGradient id="aqCQW_MERaOyNK~36zYyBc" x1="24" x2="24" y1="8.427" y2="2.653" gradientUnits="userSpaceOnUse"><stop offset=".002" stop-color="#454545"/><stop offset=".013" stop-color="#464646"/><stop offset=".875" stop-color="#626262"/><stop offset="1" stop-color="#6d6d6d"/></linearGradient><circle cx="24" cy="9" r="1" fill="url(#aqCQW_MERaOyNK~36zYyBc)"/><path d="M20.9,17.31l-4.83-1.49c0.16,0.23,0.33,0.45,0.49,0.68c0.16,0.22,0.32,0.44,0.46,0.66l3.59,1.1 C22.03,18.7,23,20.01,23,21.5s-0.97,2.8-2.39,3.24l-1.71,0.53c-0.02,0.19-0.06,0.36-0.1,0.54c-0.04,0.2-0.09,0.39-0.15,0.57 l2.25-0.69c1.86-0.57,3.1-2.25,3.1-4.19S22.76,17.88,20.9,17.31z" opacity=".05"/><path d="M20.76,17.79l-4.2-1.29c0.16,0.22,0.32,0.44,0.46,0.66l3.59,1.1C22.03,18.7,23,20.01,23,21.5s-0.97,2.8-2.39,3.24 l-1.71,0.53c-0.02,0.19-0.06,0.36-0.1,0.54l1.96-0.6c1.64-0.5,2.74-1.99,2.74-3.71C23.5,19.78,22.4,18.29,20.76,17.79z" opacity=".07"/><linearGradient id="aqCQW_MERaOyNK~36zYyBd" x1="6.324" x2="29.584" y1="21.5" y2="21.5" gradientUnits="userSpaceOnUse"><stop offset="0" stop-color="#199ae0"/><stop offset="1" stop-color="#0782d8"/></linearGradient><path fill="url(#aqCQW_MERaOyNK~36zYyBd)" d="M20.611,24.735l-9.964,3.066C10.326,27.9,10,27.659,10,27.323V15.677	c0-0.336,0.326-0.577,0.647-0.478l9.964,3.066C22.031,18.702,23,20.014,23,21.5v0C23,22.986,22.031,24.298,20.611,24.735z"/></svg>