<svg xmlns="http://www.w3.org/2000/svg" viewBox="0 0 48 48"><linearGradient id="n0GfGhNHJJcRpiTHKLwB5a" x1="12.686" x2="35.58" y1="4.592" y2="41.841" gradientUnits="userSpaceOnUse"><stop offset="0" stop-color="#33bef0"/><stop offset="1" stop-color="#0a85d9"/></linearGradient><path fill="url(#n0GfGhNHJJcRpiTHKLwB5a)" d="M42,8H6c-1.105,0-2,0.895-2,2v26c0,1.105,0.895,2,2,2h8v7.998	c0,0.891,1.077,1.337,1.707,0.707L24.412,38H42c1.105,0,2-0.895,2-2V10C44,8.895,43.105,8,42,8z"/><radialGradient id="n0GfGhNHJJcRpiTHKLwB5b" cx="24" cy="24" r="3" gradientUnits="userSpaceOnUse"><stop offset="0"/><stop offset="1" stop-opacity="0"/></radialGradient><circle cx="24" cy="24" r="3" fill="url(#n0GfGhNHJJcRpiTHKLwB5b)" opacity=".3"/><circle cx="24" cy="24" r="2" fill="#fff"/><radialGradient id="n0GfGhNHJJcRpiTHKLwB5c" cx="16" cy="24" r="3" gradientUnits="userSpaceOnUse"><stop offset="0"/><stop offset="1" stop-opacity="0"/></radialGradient><circle cx="16" cy="24" r="3" fill="url(#n0GfGhNHJJcRpiTHKLwB5c)" opacity=".3"/><circle cx="16" cy="24" r="2" fill="#fff"/><radialGradient id="n0GfGhNHJJcRpiTHKLwB5d" cx="32" cy="24" r="3" gradientUnits="userSpaceOnUse"><stop offset="0"/><stop offset="1" stop-opacity="0"/></radialGradient><circle cx="32" cy="24" r="3" fill="url(#n0GfGhNHJJcRpiTHKLwB5d)" opacity=".3"/><circle cx="32" cy="24" r="2" fill="#fff"/></svg>