<svg xmlns="http://www.w3.org/2000/svg" viewBox="0 0 48 48"><linearGradient id="Edp1DYKnoBMTyPl~nsjDVa" x1="21.516" x2="45.592" y1="1049.638" y2="1085.673" gradientTransform="translate(0 -1032)" gradientUnits="userSpaceOnUse"><stop offset="0" stop-color="#28afea"/><stop offset="1" stop-color="#0b88da"/></linearGradient><path fill="url(#Edp1DYKnoBMTyPl~nsjDVa)" d="M9,26l36-14.308V38c0,1.105-0.895,2-2,2H9V26z"/><linearGradient id="Edp1DYKnoBMTyPl~nsjDVb" x1="1.408" x2="36.331" y1="1056.41" y2="1078.164" gradientTransform="translate(0 -1032)" gradientUnits="userSpaceOnUse"><stop offset="0" stop-color="#28afea"/><stop offset="1" stop-color="#0b88da"/></linearGradient><path fill="url(#Edp1DYKnoBMTyPl~nsjDVb)" d="M3,11.692V38c0,1.105,0.895,2,2,2h38c0.491,0,0.935-0.184,1.283-0.478L3,11.692z"/><path d="M3,11h42v1.692l-17.32,13.45c-2.165,1.681-5.195,1.681-7.36,0L3,12.692V11	z" opacity=".05"/><path d="M3,10.5h42v1.692L26.966,25.304c-1.762,1.304-4.17,1.304-5.932,0L3,12.192	V10.5z" opacity=".07"/><path fill="#50e6ff" d="M5,8h38c1.105,0,2,0.895,2,2v1.692L26.252,24.466c-1.359,0.926-3.146,0.926-4.504,0L3,11.692V10	C3,8.895,3.895,8,5,8z"/><path d="M44.931,38.507L33.654,27.141l-6.033-1.52l1.481,5.876L37.604,40H43c0.128,0,0.253-0.014,0.374-0.038	c0.08-0.015,0.155-0.041,0.231-0.066c0.034-0.011,0.07-0.019,0.104-0.032c0.101-0.038,0.195-0.087,0.288-0.14	c0.004-0.002,0.008-0.004,0.011-0.006C44.457,39.454,44.794,39.022,44.931,38.507z" opacity=".05"/><path d="M33.397,27.592l-5.087-1.281l1.243,4.931L38.311,40H43c0.128,0,0.253-0.014,0.374-0.038	c0.08-0.015,0.155-0.041,0.231-0.066c0.034-0.011,0.07-0.019,0.104-0.032c0.101-0.038,0.195-0.087,0.288-0.14	c0.004-0.002,0.008-0.004,0.011-0.006c0.294-0.173,0.541-0.418,0.716-0.711L33.397,27.592z" opacity=".07"/><path fill="#c94f60" d="M45.859,45.781l1.921-1.922c0.293-0.292,0.293-0.768,0-1.061l-0.905-0.904l-2.981,2.981l0.904,0.905	C45.092,46.073,45.566,46.073,45.859,45.781"/><path fill="#f0f0f0" d="M32.984,28.003L29,27l1.003,3.985l3.456,0.418L32.984,28.003z"/><path fill="#edbe00" d="M41.352,42.333L30.004,30.985l2.981-2.981l11.348,11.348L41.352,42.333z"/><linearGradient id="Edp1DYKnoBMTyPl~nsjDVc" x1="50.112" x2="50.112" y1="-583.312" y2="-588.801" gradientTransform="matrix(0 1 1 0 630 -8)" gradientUnits="userSpaceOnUse"><stop offset="0" stop-color="#dedede"/><stop offset="1" stop-color="#d6d6d6"/></linearGradient><path fill="url(#Edp1DYKnoBMTyPl~nsjDVc)" d="M44.333,39.349l2.544,2.543l-2.981,2.983l-2.544-2.543L44.333,39.349z"/><path fill="#787878" d="M31.015,27.508L29,27l0.508,2.014L31.015,27.508z"/></svg>