<svg xmlns="http://www.w3.org/2000/svg" viewBox="0 0 48 48"><linearGradient id="hQLQU~ZiZlRYlSNyqst6Ya" x1="13.48" x2="31.634" y1="378.407" y2="352.147" gradientTransform="matrix(1 0 0 -1 0 390)" gradientUnits="userSpaceOnUse"><stop offset="0" stop-color="#7dd8f3"/><stop offset="1" stop-color="#45b0d0"/></linearGradient><path fill="url(#hQLQU~ZiZlRYlSNyqst6Ya)" d="M4,38V15h40v23c0,1.1-0.9,2-2,2H6C4.9,40,4,39.1,4,38z"/><linearGradient id="hQLQU~ZiZlRYlSNyqst6Yb" x1="4.614" x2="42.936" y1="382.259" y2="374.467" gradientTransform="matrix(1 0 0 -1 0 390)" gradientUnits="userSpaceOnUse"><stop offset="0" stop-color="#0077d2"/><stop offset="1" stop-color="#0b59a2"/></linearGradient><path fill="url(#hQLQU~ZiZlRYlSNyqst6Yb)" d="M44,10v5H4v-5c0-1.1,0.9-2,2-2h36C43.1,8,44,8.9,44,10z"/><linearGradient id="hQLQU~ZiZlRYlSNyqst6Yc" x1="16" x2="42" y1="378.5" y2="378.5" gradientTransform="matrix(1 0 0 -1 0 390)" gradientUnits="userSpaceOnUse"><stop offset="0" stop-color="#7dd8f3"/><stop offset="1" stop-color="#45b0d0"/></linearGradient><path fill="url(#hQLQU~ZiZlRYlSNyqst6Yc)" d="M16.5,13h25c0.276,0,0.5-0.224,0.5-0.5v-2c0-0.276-0.224-0.5-0.5-0.5h-25	c-0.276,0-0.5,0.224-0.5,0.5v2C16,12.776,16.224,13,16.5,13z"/><linearGradient id="hQLQU~ZiZlRYlSNyqst6Yd" x1="6.751" x2="8.032" y1="379.584" y2="377.731" gradientTransform="matrix(1 0 0 -1 0 390)" gradientUnits="userSpaceOnUse"><stop offset="0" stop-color="#75daff"/><stop offset="1" stop-color="#49bef1"/></linearGradient><circle cx="7.5" cy="11.5" r="1.5" fill="url(#hQLQU~ZiZlRYlSNyqst6Yd)"/><linearGradient id="hQLQU~ZiZlRYlSNyqst6Ye" x1="11.751" x2="13.032" y1="379.584" y2="377.731" gradientTransform="matrix(1 0 0 -1 0 390)" gradientUnits="userSpaceOnUse"><stop offset="0" stop-color="#75daff"/><stop offset="1" stop-color="#49bef1"/></linearGradient><circle cx="12.5" cy="11.5" r="1.5" fill="url(#hQLQU~ZiZlRYlSNyqst6Ye)"/></svg>