<svg xmlns="http://www.w3.org/2000/svg" viewBox="0 0 48 48"><linearGradient id="5aAZzNrU79NcBYdPKxl0pa" x1="9.117" x2="9.117" y1="19.181" y2="13.399" gradientTransform="matrix(-1 0 0 1 48 0)" gradientUnits="userSpaceOnUse"><stop offset=".365" stop-color="#199ae0"/><stop offset=".699" stop-color="#1898de"/><stop offset=".819" stop-color="#1691d8"/><stop offset=".905" stop-color="#1186cc"/><stop offset=".974" stop-color="#0a75bc"/><stop offset="1" stop-color="#076cb3"/></linearGradient><path fill="url(#5aAZzNrU79NcBYdPKxl0pa)" d="M35,12.866c2.349-0.311,8.014-1.038,7.758-0.782l-6.746,6.746	C35.639,19.203,35,18.938,35,18.41V12.866z"/><linearGradient id="5aAZzNrU79NcBYdPKxl0pb" x1="6.658" x2="35.408" y1="38.735" y2="9.985" gradientTransform="matrix(-1 0 0 1 48 0)" gradientUnits="userSpaceOnUse"><stop offset="0" stop-color="#32bdef"/><stop offset="1" stop-color="#1ea2e4"/></linearGradient><path fill="url(#5aAZzNrU79NcBYdPKxl0pb)" d="M35,9V4.59c0-0.528,0.639-0.793,1.013-0.419l6.769,6.769c0.309,0.309,0.309,0.811,0,1.12	l-1.698,1.698C40.922,13.919,40.711,14,40.5,14l0,0H21c-6.075,0-11,4.925-11,11v0c0,6.075,4.925,11,11,11h18c0.552,0,1,0.448,1,1v3	c0,0.552-0.448,1-1,1H21c-8.837,0-16-7.163-16-16v0c0-8.837,7.163-16,16-16H35z"/></svg>