<svg xmlns="http://www.w3.org/2000/svg" viewBox="0 0 48 48"><linearGradient id="2YrjN9OdYn1KQ8KnhqR0Qa" x1="21" x2="21" y1="40.141" y2="4.186" gradientUnits="userSpaceOnUse"><stop offset="0" stop-color="#ed6c47"/><stop offset="1" stop-color="#ff8f6b"/></linearGradient><path fill="url(#2YrjN9OdYn1KQ8KnhqR0Qa)" d="M40,38H2L20.16,9.45c0.4-0.6,1.28-0.6,1.68,0l8.57,13.47l0.29,0.47l0.3,0.47L40,38z"/><path fill="#ff8f6b" d="M33.169,20.446L22,38h24L34.831,20.446C34.435,19.854,33.565,19.854,33.169,20.446z"/><path d="M30.7,23.39l-0.29-0.47l-9.25,14.54L20.82,38H22l9-14.14L30.7,23.39z" opacity=".05"/><path d="M30.7,23.39l-9.12,14.34L21.41,38H22l9-14.14L30.7,23.39z" opacity=".07"/></svg>