<svg xmlns="http://www.w3.org/2000/svg" viewBox="0 0 48 48"><path fill="#35c1f1" d="M41,9v32c0,1.1-0.9,2-2,2H21V7h18C40.1,7,41,7.89,41,9z"/><path fill="#199be2" d="M13.447,3.224C13.306,3.153,13.153,3.118,13,3.118v36c0.153,0,0.306,0.035,0.447,0.106L21,43V7	L13.447,3.224z"/><path fill="#50e6ff" d="M12.553,3.224L6.106,6.447C5.428,6.786,5,7.479,5,8.236v33.146c0,0.743,0.782,1.227,1.447,0.894	l6.106-3.053c0.141-0.07,0.294-0.106,0.447-0.106v-36C12.847,3.118,12.694,3.153,12.553,3.224z"/><linearGradient id="i8bvu3lBw~I3pIZmerzDra" x1="26.666" x2="44.33" y1="44.334" y2="26.67" gradientUnits="userSpaceOnUse"><stop offset="0" stop-color="#889097"/><stop offset="1" stop-color="#64717c"/></linearGradient><path fill="url(#i8bvu3lBw~I3pIZmerzDra)" d="M48,35.5C48,42.4,42.4,48,35.5,48c-0.29,0-0.58-0.01-0.86-0.03	c-0.29-0.02-0.57-0.05-0.85-0.09h-0.01c-0.25-0.03-0.51-0.07-0.76-0.13c-0.05-0.01-0.1-0.02-0.15-0.03	c-0.18-0.04-0.37-0.08-0.55-0.13c-0.12-0.03-0.24-0.06-0.36-0.1c-0.33-0.1-0.66-0.21-0.99-0.34c-0.17-0.06-0.33-0.13-0.49-0.2	c-0.44-0.2-0.87-0.41-1.28-0.65c-0.2-0.12-0.41-0.25-0.6-0.38c-0.2-0.13-0.39-0.27-0.58-0.41c-0.19-0.15-0.38-0.29-0.56-0.45	c-0.18-0.15-0.36-0.31-0.53-0.47c-0.18-0.17-0.35-0.34-0.52-0.52c-0.15-0.16-0.29-0.32-0.44-0.48c-0.15-0.19-0.31-0.39-0.46-0.59	c-0.3-0.4-0.58-0.81-0.83-1.25C23.61,39.91,23,37.78,23,35.5C23,28.6,28.6,23,35.5,23c0.44,0,0.88,0.02,1.31,0.07	c0.44,0.04,0.86,0.11,1.28,0.2c0.84,0.18,1.65,0.45,2.41,0.78c0.17,0.07,0.34,0.15,0.5,0.24c0.11,0.05,0.21,0.1,0.31,0.15	c0.27,0.14,0.53,0.29,0.78,0.45c0.76,0.47,1.46,1.02,2.1,1.64c0.2,0.2,0.39,0.4,0.58,0.6c0.03,0.03,0.05,0.06,0.08,0.08	c0.16,0.19,0.33,0.39,0.49,0.6c0.03,0.03,0.05,0.06,0.07,0.09c0.17,0.22,0.33,0.45,0.49,0.68c0.17,0.25,0.32,0.5,0.47,0.76	c0.02,0.03,0.04,0.07,0.06,0.1c0.12,0.22,0.24,0.45,0.36,0.69l0.01,0.02c0.1,0.22,0.2,0.45,0.29,0.68c0.04,0.1,0.08,0.19,0.12,0.29	c0.09,0.23,0.17,0.47,0.24,0.7c0.1,0.32,0.18,0.64,0.25,0.96c0.06,0.25,0.11,0.51,0.15,0.78c0.01,0.07,0.02,0.13,0.03,0.2	c0.03,0.23,0.06,0.46,0.07,0.7c0.01,0.05,0.02,0.11,0.01,0.16C47.99,34.91,48,35.2,48,35.5z"/><radialGradient id="i8bvu3lBw~I3pIZmerzDrb" cx="34.094" cy="-511.723" r="11.284" gradientTransform="matrix(1.0095 0 0 -1.0095 1.163 -481.022)" gradientUnits="userSpaceOnUse"><stop offset="0"/><stop offset="1" stop-opacity="0"/></radialGradient><circle cx="35.582" cy="35.582" r="11.392" fill="url(#i8bvu3lBw~I3pIZmerzDrb)"/><radialGradient id="i8bvu3lBw~I3pIZmerzDrc" cx="37.893" cy="-512.567" r="22.59" gradientTransform="matrix(.9864 0 0 -.984 -1.943 -478.57)" gradientUnits="userSpaceOnUse"><stop offset="0" stop-color="#fafafb"/><stop offset="1" stop-color="#c8cdd1"/></radialGradient><ellipse cx="35.5" cy="35.513" fill="url(#i8bvu3lBw~I3pIZmerzDrc)" rx="10" ry="9.975"/><path d="M40.9,23.13C39.2,22.38,37.38,22,35.5,22C28.06,22,22,28.06,22,35.5	c0,2.37,0.63,4.7,1.81,6.75c0.15,0.26,0.31,0.51,0.47,0.75h1.23c-0.3-0.4-0.58-0.81-0.83-1.25C23.61,39.91,23,37.78,23,35.5	C23,28.6,28.6,23,35.5,23c0.44,0,0.88,0.02,1.31,0.07c0.44,0.04,0.86,0.11,1.28,0.2c0.84,0.18,1.65,0.45,2.41,0.78	c0.17,0.07,0.34,0.15,0.5,0.24v-1.11C40.97,23.16,40.93,23.14,40.9,23.13z" opacity=".05"/><path d="M40.7,23.59c-1.64-0.72-3.39-1.09-5.2-1.09c-7.17,0-13,5.83-13,13	c0,2.28,0.6,4.53,1.74,6.5c0.2,0.34,0.41,0.68,0.65,1h0.62c-0.3-0.4-0.58-0.81-0.83-1.25C23.61,39.91,23,37.78,23,35.5	C23,28.6,28.6,23,35.5,23c0.44,0,0.88,0.02,1.31,0.07c0.44,0.04,0.86,0.11,1.28,0.2c0.84,0.18,1.65,0.45,2.41,0.78	c0.17,0.07,0.34,0.15,0.5,0.24v-0.56C40.9,23.68,40.8,23.63,40.7,23.59z" opacity=".07"/><path fill="#1e2021" d="M29.706,36.801h-2.938v-1.188h2.938V36.801z"/><path fill="#1e2021" d="M34.916,31.269v7.874h-1.691v-5.962c-0.094,0.082-0.204,0.16-0.331,0.233s-0.262,0.14-0.405,0.199 c-0.144,0.059-0.292,0.109-0.445,0.15c-0.154,0.041-0.307,0.07-0.457,0.088v-1.428c0.44-0.129,0.855-0.294,1.246-0.494 c0.391-0.201,0.743-0.421,1.059-0.661H34.916z"/><path fill="#1e2021" d="M39.079,37.735h3.266v1.407H37.22v-0.58c0-0.394,0.066-0.747,0.199-1.061s0.299-0.595,0.5-0.844 c0.2-0.249,0.419-0.469,0.657-0.66s0.465-0.364,0.68-0.519c0.226-0.161,0.424-0.315,0.594-0.462s0.313-0.293,0.43-0.438 c0.116-0.146,0.203-0.292,0.261-0.44c0.057-0.148,0.086-0.308,0.086-0.476c0-0.329-0.094-0.578-0.279-0.746 c-0.187-0.169-0.472-0.253-0.854-0.253c-0.662,0-1.296,0.263-1.901,0.79v-1.494c0.67-0.433,1.425-0.649,2.267-0.649 c0.391,0,0.74,0.051,1.05,0.153c0.31,0.102,0.572,0.248,0.787,0.438s0.379,0.42,0.491,0.69c0.113,0.271,0.169,0.571,0.169,0.905 c0,0.354-0.054,0.669-0.163,0.945c-0.109,0.275-0.255,0.525-0.436,0.752c-0.181,0.225-0.39,0.432-0.626,0.62 c-0.236,0.188-0.481,0.369-0.735,0.545c-0.172,0.122-0.338,0.242-0.497,0.362s-0.3,0.238-0.422,0.354 c-0.121,0.116-0.218,0.23-0.289,0.341C39.114,37.529,39.079,37.635,39.079,37.735z"/></svg>