<svg xmlns="http://www.w3.org/2000/svg" viewBox="0 0 48 48"><linearGradient id="8~XolTreT4sBfGkA~Umiga" x1="13.5" x2="13.5" y1="28" y2="33" gradientUnits="userSpaceOnUse"><stop offset="0" stop-color="#f45560"/><stop offset="1" stop-color="#cf1928"/></linearGradient><path fill="url(#8~XolTreT4sBfGkA~Umiga)" d="M15,33h-3c-0.55,0-1-0.45-1-1v-3c0-0.55,0.45-1,1-1h3c0.55,0,1,0.45,1,1v3 C16,32.55,15.55,33,15,33z"/><linearGradient id="8~XolTreT4sBfGkA~Umigb" x1="25" x2="25" y1="14" y2="28" gradientUnits="userSpaceOnUse"><stop offset="0" stop-color="#787e85"/><stop offset=".5" stop-color="#9ca5ad"/><stop offset="1" stop-color="#787e85"/></linearGradient><path fill="url(#8~XolTreT4sBfGkA~Umigb)" d="M23,14h4v14h-4V14z"/><linearGradient id="8~XolTreT4sBfGkA~Umigc" x1="25" x2="25" y1="26" y2="32" gradientUnits="userSpaceOnUse"><stop offset=".129" stop-color="#41474a"/><stop offset=".698" stop-color="#323538"/></linearGradient><path fill="url(#8~XolTreT4sBfGkA~Umigc)" d="M19,32c0-3.314,2.686-6,6-6s6,2.686,6,6H19z"/><linearGradient id="8~XolTreT4sBfGkA~Umigd" x1="24" x2="24" y1="30" y2="42" gradientUnits="userSpaceOnUse"><stop offset="0" stop-color="#889097"/><stop offset="1" stop-color="#4c5963"/></linearGradient><path fill="url(#8~XolTreT4sBfGkA~Umigd)" d="M40,42H8c-1.65,0-3-1.35-3-3v-6c0-1.65,1.35-3,3-3h32c1.65,0,3,1.35,3,3v6 C43,40.65,41.65,42,40,42z"/><linearGradient id="8~XolTreT4sBfGkA~Umige" x1="23.752" x2="26.248" y1="5.13" y2="16.87" gradientUnits="userSpaceOnUse"><stop offset="0" stop-color="#f45560"/><stop offset="1" stop-color="#cf1928"/></linearGradient><path fill="url(#8~XolTreT4sBfGkA~Umige)" d="M25,5c-3.314,0-6,2.686-6,6s2.686,6,6,6s6-2.686,6-6S28.314,5,25,5z"/></svg>