<svg xmlns="http://www.w3.org/2000/svg" viewBox="0 0 48 48"><path fill="#09914a" d="M23.998,43.998c-11.045,0-20-8.955-20-20s8.955-20,20-20s20,8.955,20,20S35.043,43.998,23.998,43.998	z"/><linearGradient id="hKB2PC5B9B4INRf~ZLU6ua" x1="-122.749" x2="-117.7" y1="170.237" y2="150.693" gradientTransform="rotate(90 -133 -.002)" gradientUnits="userSpaceOnUse"><stop offset="0" stop-color="#f2f2f2"/><stop offset=".148" stop-color="#eef1ef"/><stop offset=".282" stop-color="#e4ece8"/><stop offset=".409" stop-color="#d1e4da"/><stop offset=".533" stop-color="#b7dac8"/><stop offset=".654" stop-color="#96ccb0"/><stop offset=".773" stop-color="#6dbb92"/><stop offset=".889" stop-color="#3ea770"/><stop offset="1" stop-color="#09914a"/></linearGradient><path fill="url(#hKB2PC5B9B4INRf~ZLU6ua)" d="M23.998,23.998L9.716,9.997c7.732-7.887,20.396-8.013,28.283-0.281L23.998,23.998z"/><circle cx="23.998" cy="23.998" r="17" fill="#f2f2f2"/><path fill="#09914a" d="M35.035,17.285l-1.089-8.419c-0.069-0.534,0.386-0.989,0.92-0.92l8.419,1.089	c0.676,0.087,0.958,0.913,0.475,1.395l-7.33,7.33C35.948,18.243,35.123,17.961,35.035,17.285z"/><path fill="#e52030" d="M16.917,28.333h5.641v2.431h-8.852v-1.002c0-0.681,0.115-1.291,0.344-1.832s0.517-1.026,0.863-1.457 c0.346-0.43,0.725-0.81,1.136-1.141s0.803-0.63,1.174-0.896c0.39-0.278,0.731-0.544,1.025-0.798 c0.293-0.254,0.541-0.506,0.742-0.756c0.2-0.251,0.351-0.504,0.45-0.761c0.099-0.257,0.148-0.53,0.148-0.821 c0-0.569-0.161-0.999-0.482-1.289c-0.322-0.291-0.813-0.437-1.476-0.437c-1.145,0-2.239,0.454-3.284,1.364v-2.58 c1.156-0.748,2.462-1.122,3.915-1.122c0.674,0,1.278,0.088,1.813,0.265c0.535,0.176,0.988,0.428,1.359,0.756 s0.654,0.726,0.849,1.192c0.195,0.467,0.292,0.987,0.292,1.563c0,0.611-0.094,1.156-0.282,1.633 c-0.189,0.476-0.439,0.908-0.752,1.299c-0.312,0.389-0.673,0.746-1.081,1.071c-0.408,0.324-0.831,0.639-1.271,0.941 c-0.297,0.21-0.583,0.419-0.858,0.626c-0.275,0.208-0.518,0.412-0.729,0.612c-0.21,0.201-0.377,0.397-0.5,0.589 C16.979,27.977,16.917,28.16,16.917,28.333z"/><path fill="#e52030" d="M32.698,17.459v8.387h1.596v2.189h-1.596v2.728h-2.672v-2.728h-5.799v-2.292 c0.514-0.574,1.046-1.204,1.596-1.888c0.551-0.683,1.083-1.387,1.596-2.11c0.514-0.724,0.991-1.452,1.434-2.185 c0.442-0.733,0.818-1.434,1.127-2.102H32.698z M26.853,25.846h3.173v-4.647c-0.217,0.401-0.451,0.809-0.705,1.22 s-0.52,0.816-0.798,1.215c-0.278,0.399-0.56,0.786-0.845,1.16C27.394,25.167,27.119,25.518,26.853,25.846z"/></svg>