<svg xmlns="http://www.w3.org/2000/svg" viewBox="0 0 48 48"><polygon fill="#0883d9" points="8.449,8.439 5,10.159 5,24 27,24 27.989,22.292"/><circle cx="7.159" cy="10.159" r="2.159" fill="#0883d9"/><polygon fill="#0370c8" points="8.449,39.561 5,37.841 5,24 27,24 27.989,25.708"/><circle cx="7.159" cy="37.841" r="2.159" fill="#0370c8"/><polygon fill="#0883d9" points="22.449,8.439 19,10.159 19,24 41,24 41.989,22.292"/><path fill="#0883d9" d="M43,24h-4c0-1.105,0.895-2,2-2S43,22.895,43,24z"/><circle cx="21.159" cy="10.159" r="2.159" fill="#0883d9"/><polygon fill="#0370c8" points="22.449,39.561 19,37.841 19,24 41,24 41.989,25.708"/><path fill="#0370c8" d="M43,24h-4c0,1.105,0.895,2,2,2S43,25.105,43,24z"/><circle cx="21.159" cy="37.841" r="2.159" fill="#0370c8"/></svg>