<svg xmlns="http://www.w3.org/2000/svg" data-name="Слой 1" viewBox="0 0 48 48"><defs><linearGradient id="7PPSSTig0n50tGze84t_4a" x1="3.174" x2="45.311" y1="3.174" y2="45.311" data-name="Безымянный градиент 62" gradientUnits="userSpaceOnUse"><stop offset="0" stop-color="#c3cdd9"/><stop offset="1" stop-color="#9fa7b0"/></linearGradient><linearGradient id="7PPSSTig0n50tGze84t_4b" x1="9" x2="39" y1="28" y2="28" data-name="Безымянный градиент 15" gradientUnits="userSpaceOnUse"><stop offset="0" stop-color="#3079d6"/><stop offset="1" stop-color="#297cd2"/></linearGradient></defs><rect width="20" height="26" x="14" y="11" fill="#50e6ff" rx="2"/><path fill="url(#7PPSSTig0n50tGze84t_4a)" d="M14,8.5a.5.5,0,0,1-.5.5H9v4.5a.5.5,0,0,1-.5.5h-2a.5.5,0,0,1-.5-.5v-7A.5.5,0,0,1,6.5,6h7a.5.5,0,0,1,.5.5Zm20,0a.5.5,0,0,0,.5.5H39v4.5a.5.5,0,0,0,.5.5h2a.5.5,0,0,0,.5-.5v-7a.5.5,0,0,0-.5-.5h-7a.5.5,0,0,0-.5.5Zm-20,31a.5.5,0,0,0-.5-.5H9V34.5a.5.5,0,0,0-.5-.5h-2a.5.5,0,0,0-.5.5v7a.5.5,0,0,0,.5.5h7a.5.5,0,0,0,.5-.5Zm20,2a.5.5,0,0,0,.5.5h7a.5.5,0,0,0,.5-.5v-7a.5.5,0,0,0-.5-.5h-2a.5.5,0,0,0-.5.5V39H34.5a.5.5,0,0,0-.5.5Z"/><rect width="30" height="2" x="9" y="27" fill="url(#7PPSSTig0n50tGze84t_4b)" rx="1"/><path fill="#057093" d="M26.55556,24H21v-.68519a2.57279,2.57279,0,0,1,.11728-.787,3.18411,3.18411,0,0,1,.31482-.69136,3.85217,3.85217,0,0,1,.463-.61111q.26544-.287.5679-.55556t.61729-.51852q.31481-.25.61728-.50308.28395-.24075.51852-.47222a3.15284,3.15284,0,0,0,.40123-.4784,2.16528,2.16528,0,0,0,.25926-.5216,1.85381,1.85381,0,0,0,.0926-.59568,1.60558,1.60558,0,0,0-.108-.6142,1.194,1.194,0,0,0-.30247-.43827,1.291,1.291,0,0,0-.45987-.26543,1.8057,1.8057,0,0,0-.58025-.08951,2.67613,2.67613,0,0,0-1.10494.25309,3.78128,3.78128,0,0,0-1.08025.75926V15.80864a4.516,4.516,0,0,1,.54939-.35494,3.744,3.744,0,0,1,.57407-.25308,3.53833,3.53833,0,0,1,.62346-.15124A4.67677,4.67677,0,0,1,23.77778,15a3.525,3.525,0,0,1,1.08642.15741,2.31284,2.31284,0,0,1,.83333.463,2.03442,2.03442,0,0,1,.534.76235,2.73555,2.73555,0,0,1,.18827,1.04938,3.26416,3.26416,0,0,1-.13271.96605,3.126,3.126,0,0,1-.37655.79938,4.14775,4.14775,0,0,1-.5895.7037q-.34569.33334-.77161.68519-.358.29013-.713.56481t-.63889.537a2.99913,2.99913,0,0,0-.45988.52469.94087.94087,0,0,0-.17592.52778v.03086h3.99383Z"/></svg>