<svg xmlns="http://www.w3.org/2000/svg" viewBox="0 0 48 48"><linearGradient id="kKK7I39TDdrU_iSof175Aa" x1="3.51" x2="8.377" y1="1.961" y2="6.828" gradientUnits="userSpaceOnUse"><stop offset="0" stop-color="#c26715"/><stop offset="0" stop-color="#c26715"/><stop offset=".51" stop-color="#b85515"/><stop offset="1" stop-color="#ad3f16"/></linearGradient><path fill="url(#kKK7I39TDdrU_iSof175Aa)" d="M4.305,12.95L15.5,9.23V3H9C5.686,3,3,5.789,3,9.23v2.731C3,12.664,3.66,13.164,4.305,12.95z"/><linearGradient id="kKK7I39TDdrU_iSof175Ab" x1="27.748" x2="23.265" y1="2.704" y2="7.186" gradientUnits="userSpaceOnUse"><stop offset="0" stop-color="#c26715"/><stop offset="0" stop-color="#c26715"/><stop offset=".51" stop-color="#b85515"/><stop offset="1" stop-color="#ad3f16"/></linearGradient><path fill="url(#kKK7I39TDdrU_iSof175Ab)" d="M27.695,12.95L16.5,9.23V3H23c3.314,0,6,2.789,6,6.23v2.731	C29,12.664,28.34,13.164,27.695,12.95z"/><linearGradient id="kKK7I39TDdrU_iSof175Ac" x1="16" x2="16" y1="-12.396" y2="25.657" gradientUnits="userSpaceOnUse"><stop offset="0" stop-color="#d4943b"/><stop offset="1" stop-color="#c2620e"/><stop offset="1" stop-color="#c2620e"/></linearGradient><path fill="url(#kKK7I39TDdrU_iSof175Ac)" d="M26,14.541l0-1.092c0-7.521-7.866-12.774-14.571-9.413C8.224,5.642,6,8.805,6,12.445l0,2.097	c0,0.537-0.206,1.061-0.599,1.426C3.668,17.581,2.693,20,3.087,22.637C3.614,26.159,7.188,29,10.737,29l9.502,0	c4.576,0,8.15-2.844,8.674-6.37c0.392-2.632-0.581-5.045-2.309-6.657C26.211,15.606,26,15.082,26,14.541z"/><linearGradient id="kKK7I39TDdrU_iSof175Ad" x1="40.632" x2="40.632" y1="29.882" y2="17.802" gradientUnits="userSpaceOnUse"><stop offset="0" stop-color="#4c5963"/><stop offset="1" stop-color="#889097"/></linearGradient><path fill="url(#kKK7I39TDdrU_iSof175Ad)" d="M36.667,25C35,25,43.34,32.83,43.34,32.83s3.327-6.163-0.007-12.83C41.667,20,40,25,36.667,25	z"/><linearGradient id="kKK7I39TDdrU_iSof175Ae" x1="24.369" x2="24.369" y1="29.882" y2="17.802" gradientUnits="userSpaceOnUse"><stop offset="0" stop-color="#4c5963"/><stop offset="1" stop-color="#889097"/></linearGradient><path fill="url(#kKK7I39TDdrU_iSof175Ae)" d="M28.333,25c1.667,0-6.673,7.83-6.673,7.83S18.333,26.667,21.667,20C23.333,20,25,25,28.333,25	z"/><linearGradient id="kKK7I39TDdrU_iSof175Af" x1="32.5" x2="32.5" y1="46.412" y2="22.207" gradientUnits="userSpaceOnUse"><stop offset="0" stop-color="#4c5963"/><stop offset="1" stop-color="#889097"/></linearGradient><ellipse cx="32.5" cy="34.167" fill="url(#kKK7I39TDdrU_iSof175Af)" rx="12.5" ry="10.833"/><rect width="2" height="9.25" x="15" y="19.75" fill="#5c2415"/><path fill="#5c2415" d="M19,18.6c0-1.105-1.343-1.6-3-1.6s-3,0.495-3,1.6c0,1.105,1.343,2.4,3,2.4S19,19.705,19,18.6z"/><circle cx="10.5" cy="14.5" r="1.5" fill="#5c2415"/><circle cx="21.5" cy="14.5" r="1.5" fill="#5c2415"/><circle cx="28.5" cy="31.5" r="1.5" fill="#5c2415"/><circle cx="36.5" cy="31.5" r="1.5" fill="#5c2415"/><g opacity=".05"><path d="M30,36c1.657,0,3,1.343,3,3s-1.343,3-3,3s-3-1.343-3-3S28.343,36,30,36 M30,35c-2.206,0-4,1.794-4,4s1.794,4,4,4 s4-1.794,4-4S32.206,35,30,35L30,35z"/><path d="M35,36c1.657,0,3,1.343,3,3s-1.343,3-3,3s-3-1.343-3-3S33.343,36,35,36 M35,35c-2.206,0-4,1.794-4,4s1.794,4,4,4 s4-1.794,4-4S37.206,35,35,35L35,35z"/><path d="M32.5,35c1.105,0,2,0.372,2,1.2s-0.895,1.8-2,1.8c-1.105,0-2-0.972-2-1.8S31.395,35,32.5,35 M32.5,34 c-2.214,0-3,1.185-3,2.2c0,1.322,1.283,2.8,3,2.8c1.717,0,3-1.478,3-2.8C35.5,35.185,34.714,34,32.5,34L32.5,34z"/></g><g opacity=".07"><path d="M30,36c1.657,0,3,1.343,3,3s-1.343,3-3,3s-3-1.343-3-3S28.343,36,30,36 M30,35.5c-1.93,0-3.5,1.57-3.5,3.5 s1.57,3.5,3.5,3.5s3.5-1.57,3.5-3.5S31.93,35.5,30,35.5L30,35.5z"/><path d="M35,36c1.657,0,3,1.343,3,3s-1.343,3-3,3s-3-1.343-3-3S33.343,36,35,36 M35,35.5c-1.93,0-3.5,1.57-3.5,3.5 s1.57,3.5,3.5,3.5s3.5-1.57,3.5-3.5S36.93,35.5,35,35.5L35,35.5z"/><path d="M32.5,35c1.105,0,2,0.372,2,1.2s-0.895,1.8-2,1.8c-1.105,0-2-0.972-2-1.8S31.395,35,32.5,35 M32.5,34.5 c-1.542,0-2.5,0.651-2.5,1.7c0,1.064,1.092,2.3,2.5,2.3s2.5-1.236,2.5-2.3C35,35.151,34.042,34.5,32.5,34.5L32.5,34.5z"/></g><linearGradient id="kKK7I39TDdrU_iSof175Ag" x1="30" x2="30" y1="34.647" y2="45.259" gradientUnits="userSpaceOnUse"><stop offset="0" stop-color="#a1aab3"/><stop offset="1" stop-color="#8f979e"/></linearGradient><circle cx="30" cy="39" r="3" fill="url(#kKK7I39TDdrU_iSof175Ag)"/><linearGradient id="kKK7I39TDdrU_iSof175Ah" x1="35" x2="35" y1="34.647" y2="45.259" gradientUnits="userSpaceOnUse"><stop offset="0" stop-color="#a1aab3"/><stop offset="1" stop-color="#8f979e"/></linearGradient><circle cx="35" cy="39" r="3" fill="url(#kKK7I39TDdrU_iSof175Ah)"/><path fill="#d9414f" d="M34.5,36.2c0-0.828-0.895-1.2-2-1.2c-1.105,0-2,0.372-2,1.2s0.895,1.8,2,1.8 C33.605,38,34.5,37.028,34.5,36.2z"/><g opacity=".05"><path d="M26.78,23.45c-0.8-0.55-1.51-1.43-2.14-2.22c-0.97-1.19-1.8-2.23-2.97-2.23h-0.62l-0.28,0.55c-1.74,3.5-1.8,6.86-1.36,9.45 h0.83c0.06,0,0.13,0,0.19-0.01C20,26.61,19.98,23.37,21.67,20c1.37,0,2.74,3.37,5.03,4.57c0.6-0.27,1.24-0.5,1.89-0.69 c0.07-0.19,0.13-0.38,0.18-0.57c0.05-0.18,0.09-0.36,0.11-0.55C28.17,22.94,27.46,23.17,26.78,23.45z"/></g><g opacity=".07"><path d="M26.73,24.02c-0.96-0.58-1.76-1.58-2.48-2.47c-0.89-1.1-1.65-2.05-2.58-2.05h-0.31l-0.14,0.28 c-1.71,3.42-1.75,6.71-1.29,9.22h0.31c0.06,0,0.13,0,0.19-0.01C20,26.61,19.98,23.37,21.67,20c1.37,0,2.74,3.37,5.03,4.57 c0.6-0.27,1.24-0.5,1.89-0.69c0.07-0.19,0.13-0.38,0.18-0.57C28.07,23.49,27.39,23.73,26.73,24.02z"/></g></svg>