<svg xmlns="http://www.w3.org/2000/svg" viewBox="0 0 48 48"><linearGradient id="Luub3FefxsnIqGeGlOxkMa" x1="29.007" x2="42.128" y1="24.001" y2="24.001" gradientUnits="userSpaceOnUse"><stop offset="0" stop-color="#1951a8"/><stop offset=".175" stop-color="#1955b0"/><stop offset=".505" stop-color="#195ab9"/><stop offset="1" stop-color="#195bbc"/></linearGradient><path fill="url(#Luub3FefxsnIqGeGlOxkMa)" d="M40.017,41.985L29,42.017l-0.035-36l11.017-0.033c1.1-0.001,2.001,0.898,2.002,1.998l0.031,32	C42.016,41.083,41.117,41.984,40.017,41.985z"/><linearGradient id="Luub3FefxsnIqGeGlOxkMb" x1="18.672" x2="18.672" y1="6.079" y2="42.006" gradientTransform="translate(.305 .055)" gradientUnits="userSpaceOnUse"><stop offset="0" stop-color="#42a3f2"/><stop offset="1" stop-color="#42a4eb"/></linearGradient><path fill="url(#Luub3FefxsnIqGeGlOxkMb)" d="M30.017,41.985l-22,0.031c-1.1,0.001-2.001-0.898-2.002-1.998l-0.031-32	c-0.001-1.1,0.898-2.001,1.998-2.002l22-0.031c1.1-0.001,2.001,0.898,2.002,1.998l0.031,32	C32.016,41.083,31.117,41.984,30.017,41.985z"/><path d="M18,27h8c1.105,0,2-0.895,2-2v-2c0-1.105-0.895-2-2-2h-8v-2.648c0-1.336-1.616-2.006-2.561-1.061	l-5.295,5.295c-0.781,0.781-0.781,2.047,0,2.828l5.295,5.295C16.384,31.654,18,30.985,18,29.648V27z" opacity=".05"/><path d="M17.5,26.5H26c0.828,0,1.5-0.672,1.5-1.5v-2c0-0.828-0.672-1.5-1.5-1.5h-8.5v-3.021	c0-0.938-1.134-1.408-1.798-0.745l-5.13,5.129c-0.627,0.627-0.627,1.644,0,2.271l5.13,5.129c0.663,0.663,1.798,0.194,1.798-0.745	V26.5z" opacity=".07"/><path fill="#fff" d="M17,29.393V26h9c0.552,0,1-0.448,1-1v-2c0-0.552-0.448-1-1-1h-9v-3.393	c0-0.54-0.653-0.81-1.034-0.428l-4.964,4.964c-0.473,0.473-0.473,1.241,0,1.714l4.964,4.964C16.347,30.203,17,29.933,17,29.393z"/></svg>