<svg xmlns="http://www.w3.org/2000/svg" viewBox="0 0 48 48"><linearGradient id="Wyf1CKOvAdAFmZiuZM66Pa" x1="40.854" x2="45.56" y1="-289.146" y2="-293.854" gradientTransform="matrix(1 0 0 -1 0 -268)" gradientUnits="userSpaceOnUse"><stop offset="0" stop-color="#889097"/><stop offset="1" stop-color="#64717c"/></linearGradient><path fill="url(#Wyf1CKOvAdAFmZiuZM66Pa)" d="M44,27h-2v-7h2c0.552,0,1,0.448,1,1v5C45,26.552,44.552,27,44,27z"/><linearGradient id="Wyf1CKOvAdAFmZiuZM66Pb" x1="11" x2="37" y1="-292" y2="-292" gradientTransform="matrix(1 0 0 -1 0 -268)" gradientUnits="userSpaceOnUse"><stop offset="0" stop-color="#42a3f2"/><stop offset="1" stop-color="#42a4eb"/></linearGradient><path fill="url(#Wyf1CKOvAdAFmZiuZM66Pb)" d="M13,3h22c1.105,0,2,0.895,2,2v38c0,1.105-0.895,2-2,2H13c-1.105,0-2-0.895-2-2V5	C11,3.895,11.895,3,13,3z"/><linearGradient id="Wyf1CKOvAdAFmZiuZM66Pc" x1="10.565" x2="37.435" y1="-278.565" y2="-305.435" gradientTransform="matrix(1 0 0 -1 0 -268)" gradientUnits="userSpaceOnUse"><stop offset="0" stop-color="#889097"/><stop offset="1" stop-color="#64717c"/></linearGradient><circle cx="24" cy="24" r="19" fill="url(#Wyf1CKOvAdAFmZiuZM66Pc)"/><radialGradient id="Wyf1CKOvAdAFmZiuZM66Pd" cx="24" cy="-292" r="17.5" gradientTransform="matrix(1 0 0 -1 0 -268)" gradientUnits="userSpaceOnUse"><stop offset="0"/><stop offset="1" stop-opacity="0"/></radialGradient><circle cx="24" cy="24" r="17.5" fill="url(#Wyf1CKOvAdAFmZiuZM66Pd)"/><radialGradient id="Wyf1CKOvAdAFmZiuZM66Pe" cx="23.896" cy="-276.371" r="35.655" gradientTransform="matrix(1 0 0 -1 0 -268)" gradientUnits="userSpaceOnUse"><stop offset="0" stop-color="#fafafb"/><stop offset="1" stop-color="#c8cdd1"/></radialGradient><circle cx="24" cy="24" r="16" fill="url(#Wyf1CKOvAdAFmZiuZM66Pe)"/><path fill="#45494d" d="M16.176,26.673h-4.54v-1.834h4.54V26.673z"/><path fill="#45494d" d="M24.228,18.124v12.168h-2.614v-9.213c-0.145,0.127-0.314,0.248-0.511,0.361 s-0.405,0.215-0.627,0.307c-0.221,0.092-0.451,0.168-0.688,0.232c-0.238,0.062-0.474,0.109-0.706,0.137v-2.209 c0.681-0.199,1.323-0.453,1.926-0.764c0.604-0.309,1.148-0.648,1.636-1.02H24.228z"/><path fill="#45494d" d="M36.364,30.292H33.75v-4.83c0-1.246-0.454-1.869-1.361-1.869c-0.465,0-0.842,0.176-1.129,0.523 c-0.288,0.35-0.432,0.791-0.432,1.328v4.848h-2.623V17.708h2.623v5.346h0.033c0.642-0.979,1.514-1.469,2.614-1.469 c1.926,0,2.889,1.162,2.889,3.486V30.292z"/></svg>