<svg xmlns="http://www.w3.org/2000/svg" viewBox="0 0 48 48"><linearGradient id="OzTRgkfsTSXd7WZbMHSvka" x1="31" x2="31" y1="28.273" y2="32.745" gradientUnits="userSpaceOnUse"><stop offset="0" stop-color="#ffcf7b"/><stop offset=".196" stop-color="#fecd76"/><stop offset=".439" stop-color="#fac666"/><stop offset=".709" stop-color="#f3bc4d"/><stop offset=".995" stop-color="#eaad2a"/><stop offset="1" stop-color="#eaad29"/></linearGradient><path fill="url(#OzTRgkfsTSXd7WZbMHSvka)" d="M30,34v-5c0,0,2,1,2,5C30.75,34,30,34,30,34z"/><linearGradient id="OzTRgkfsTSXd7WZbMHSvkb" x1="34" x2="34" y1="28.273" y2="32.745" gradientUnits="userSpaceOnUse"><stop offset="0" stop-color="#ffcf7b"/><stop offset=".196" stop-color="#fecd76"/><stop offset=".439" stop-color="#fac666"/><stop offset=".709" stop-color="#f3bc4d"/><stop offset=".995" stop-color="#eaad2a"/><stop offset="1" stop-color="#eaad29"/></linearGradient><path fill="url(#OzTRgkfsTSXd7WZbMHSvkb)" d="M33,35v-5c0,0,2,1,2,5C33.75,35,33,35,33,35z"/><linearGradient id="OzTRgkfsTSXd7WZbMHSvkc" x1="28" x2="28" y1="28.273" y2="32.745" gradientUnits="userSpaceOnUse"><stop offset="0" stop-color="#ffcf7b"/><stop offset=".196" stop-color="#fecd76"/><stop offset=".439" stop-color="#fac666"/><stop offset=".709" stop-color="#f3bc4d"/><stop offset=".995" stop-color="#eaad2a"/><stop offset="1" stop-color="#eaad29"/></linearGradient><path fill="url(#OzTRgkfsTSXd7WZbMHSvkc)" d="M27,33v-5c0,0,2,1,2,5C27.75,33,27,33,27,33z"/><linearGradient id="OzTRgkfsTSXd7WZbMHSvkd" x1="25" x2="25" y1="28.273" y2="32.745" gradientUnits="userSpaceOnUse"><stop offset="0" stop-color="#ffcf7b"/><stop offset=".196" stop-color="#fecd76"/><stop offset=".439" stop-color="#fac666"/><stop offset=".709" stop-color="#f3bc4d"/><stop offset=".995" stop-color="#eaad2a"/><stop offset="1" stop-color="#eaad29"/></linearGradient><path fill="url(#OzTRgkfsTSXd7WZbMHSvkd)" d="M24,32v-5c0,0,2,1,2,5C24.75,32,24,32,24,32z"/><linearGradient id="OzTRgkfsTSXd7WZbMHSvke" x1="36.754" x2="36.754" y1="28.273" y2="32.745" gradientUnits="userSpaceOnUse"><stop offset="0" stop-color="#ffcf7b"/><stop offset=".196" stop-color="#fecd76"/><stop offset=".439" stop-color="#fac666"/><stop offset=".709" stop-color="#f3bc4d"/><stop offset=".995" stop-color="#eaad2a"/><stop offset="1" stop-color="#eaad29"/></linearGradient><path fill="url(#OzTRgkfsTSXd7WZbMHSvke)" d="M37.508,34C36.916,32.462,36,32,36,32v2H37.508z"/><linearGradient id="OzTRgkfsTSXd7WZbMHSvkf" x1="34" x2="34" y1="27.813" y2="22.673" gradientUnits="userSpaceOnUse"><stop offset="0" stop-color="#ffcf7b"/><stop offset=".196" stop-color="#fecd76"/><stop offset=".439" stop-color="#fac666"/><stop offset=".709" stop-color="#f3bc4d"/><stop offset=".995" stop-color="#eaad2a"/><stop offset="1" stop-color="#eaad29"/></linearGradient><path fill="url(#OzTRgkfsTSXd7WZbMHSvkf)" d="M33,23v5c0,0,2-1,2-5C33.75,23,33,23,33,23z"/><linearGradient id="OzTRgkfsTSXd7WZbMHSvkg" x1="31" x2="31" y1="27.813" y2="22.673" gradientUnits="userSpaceOnUse"><stop offset="0" stop-color="#ffcf7b"/><stop offset=".196" stop-color="#fecd76"/><stop offset=".439" stop-color="#fac666"/><stop offset=".709" stop-color="#f3bc4d"/><stop offset=".995" stop-color="#eaad2a"/><stop offset="1" stop-color="#eaad29"/></linearGradient><path fill="url(#OzTRgkfsTSXd7WZbMHSvkg)" d="M30,22v5c0,0,2-1,2-5C30.75,22,30,22,30,22z"/><linearGradient id="OzTRgkfsTSXd7WZbMHSvkh" x1="37" x2="37" y1="27.813" y2="22.673" gradientUnits="userSpaceOnUse"><stop offset="0" stop-color="#ffcf7b"/><stop offset=".196" stop-color="#fecd76"/><stop offset=".439" stop-color="#fac666"/><stop offset=".709" stop-color="#f3bc4d"/><stop offset=".995" stop-color="#eaad2a"/><stop offset="1" stop-color="#eaad29"/></linearGradient><path fill="url(#OzTRgkfsTSXd7WZbMHSvkh)" d="M36,22v5c0,0,2-1,2-5C36.75,22,36,22,36,22z"/><linearGradient id="OzTRgkfsTSXd7WZbMHSvki" x1="41" x2="41" y1="27.813" y2="22.673" gradientUnits="userSpaceOnUse"><stop offset="0" stop-color="#ffcf7b"/><stop offset=".196" stop-color="#fecd76"/><stop offset=".439" stop-color="#fac666"/><stop offset=".709" stop-color="#f3bc4d"/><stop offset=".995" stop-color="#eaad2a"/><stop offset="1" stop-color="#eaad29"/></linearGradient><path fill="url(#OzTRgkfsTSXd7WZbMHSvki)" d="M40,19v5c0,0,2-1,2-5C40.75,19,40,19,40,19z"/><linearGradient id="OzTRgkfsTSXd7WZbMHSvkj" x1="28" x2="28" y1="27.813" y2="22.673" gradientUnits="userSpaceOnUse"><stop offset="0" stop-color="#ffcf7b"/><stop offset=".196" stop-color="#fecd76"/><stop offset=".439" stop-color="#fac666"/><stop offset=".709" stop-color="#f3bc4d"/><stop offset=".995" stop-color="#eaad2a"/><stop offset="1" stop-color="#eaad29"/></linearGradient><path fill="url(#OzTRgkfsTSXd7WZbMHSvkj)" d="M27,21v5c0,0,2-1,2-5C27.75,21,27,21,27,21z"/><linearGradient id="OzTRgkfsTSXd7WZbMHSvkk" x1="25" x2="25" y1="27.813" y2="22.673" gradientUnits="userSpaceOnUse"><stop offset="0" stop-color="#ffcf7b"/><stop offset=".196" stop-color="#fecd76"/><stop offset=".439" stop-color="#fac666"/><stop offset=".709" stop-color="#f3bc4d"/><stop offset=".995" stop-color="#eaad2a"/><stop offset="1" stop-color="#eaad29"/></linearGradient><path fill="url(#OzTRgkfsTSXd7WZbMHSvkk)" d="M24,20v5c0,0,2-1,2-5C24.75,20,24,20,24,20z"/><path fill="#107c42" d="M21,22c-3,0-4,3-7,3c3,2,5.5,0.5,7,1c1.38,0.46,7.45,6.44,16.04,6.97C37.57,33,38,33.42,38,33.96V34	c0,2.21-1.79,4-4,4l-8-1c-0.67,0-1.15,0.65-0.96,1.29l0.87,2.12C26.31,41.7,25.35,43,24,43H7c-1.1,0-2-0.9-2-2V20c0-4,1-8,4.24-9.25	C10.01,8.01,12.52,6,15.5,6c1.84,0,3.5,0.77,4.68,2H34c2.76,0,5.26,1.12,7.07,2.93S44,15.24,44,18c0,3.31-5.6,6-12.5,6	C25,24,22.5,22,21,22z"/><linearGradient id="OzTRgkfsTSXd7WZbMHSvkl" x1="24.5" x2="24.5" y1="1.375" y2="44.849" gradientUnits="userSpaceOnUse"><stop offset="0" stop-color="#21ad64"/><stop offset="1" stop-color="#088242"/></linearGradient><path fill="url(#OzTRgkfsTSXd7WZbMHSvkl)" d="M21,22c-3,0-4,3-7,3c3,2,5.5,0.5,7,1c1.38,0.46,7.45,6.44,16.04,6.97	C37.57,33,38,33.42,38,33.96V34c0,2.21-1.79,4-4,4l-8-1c-3-1-6-2-9-2c-2.25,0-12,0-12-6v-9c0-4,1-8,4.24-9.25	C10.01,8.01,12.52,6,15.5,6c1.84,0,3.5,0.77,4.68,2H34c2.76,0,5.26,1.12,7.07,2.93S44,15.24,44,18c0,3.31-5.6,6-12.5,6	C25,24,22.5,22,21,22z"/><linearGradient id="OzTRgkfsTSXd7WZbMHSvkm" x1="15.5" x2="15.5" y1="8.631" y2="18.91" gradientUnits="userSpaceOnUse"><stop offset="0" stop-color="#4c4c4c"/><stop offset="1" stop-color="#343434"/></linearGradient><circle cx="15.5" cy="12.5" r="3.5" fill="url(#OzTRgkfsTSXd7WZbMHSvkm)"/><linearGradient id="OzTRgkfsTSXd7WZbMHSvkn" x1="15.5" x2="15.5" y1="10.796" y2="15.315" gradientUnits="userSpaceOnUse"><stop offset="0" stop-color="#ffcf54"/><stop offset=".261" stop-color="#fdcb4d"/><stop offset=".639" stop-color="#f7c13a"/><stop offset="1" stop-color="#f0b421"/></linearGradient><path fill="url(#OzTRgkfsTSXd7WZbMHSvkn)" d="M15.5,11c-1.381,0-2.5,0.672-2.5,1.5c0,0.43,0.306,0.815,0.79,1.089	C13.915,13.185,14.25,12.5,15,12c0,0.6,0,1.512,0,2c0.118,0.01,0.378,0,0.5,0c1.381,0,2.5-0.672,2.5-1.5	C18,11.672,16.881,11,15.5,11z"/><linearGradient id="OzTRgkfsTSXd7WZbMHSvko" x1="34.273" x2="42.017" y1="9.273" y2="17.017" gradientUnits="userSpaceOnUse"><stop offset="0" stop-color="#4c4c4c"/><stop offset="1" stop-color="#343434"/></linearGradient><path fill="url(#OzTRgkfsTSXd7WZbMHSvko)" d="M39.75,14.75C39.198,15.302,37.966,14.966,37,14s-1.302-2.198-0.75-2.75S38.034,11.034,39,12	S40.302,14.198,39.75,14.75z"/></svg>