<svg xmlns="http://www.w3.org/2000/svg" viewBox="0 0 48 48"><linearGradient id="5PL0LNMu5C1RysNXz8UKQa" x1="12" x2="36" y1="24" y2="24" gradientUnits="userSpaceOnUse"><stop offset="0" stop-color="#ae4cd5"/><stop offset="1" stop-color="#ac4ad5"/></linearGradient><path fill="url(#5PL0LNMu5C1RysNXz8UKQa)" d="M15,41h-2c-0.552,0-1-0.448-1-1V8c0-0.552,0.448-1,1-1h22c0.552,0,1,0.448,1,1v2 c0,0.552-0.448,1-1,1H16v29C16,40.552,15.552,41,15,41z"/><linearGradient id="5PL0LNMu5C1RysNXz8UKQb" x1="14" x2="32" y1="24" y2="24" gradientUnits="userSpaceOnUse"><stop offset="0" stop-color="#ae4cd5"/><stop offset="1" stop-color="#ac4ad5"/></linearGradient><path fill="url(#5PL0LNMu5C1RysNXz8UKQb)" d="M14,22h17c0.552,0,1,0.448,1,1v2c0,0.552-0.448,1-1,1H14V22z"/></svg>