<svg xmlns="http://www.w3.org/2000/svg" viewBox="0 0 48 48"><linearGradient id="Bwgr8heuSdk9VW_RNnx7Za" x1="28.656" x2="39.77" y1="19.656" y2="30.77" gradientUnits="userSpaceOnUse"><stop offset="0" stop-color="#9631cc"/><stop offset="1" stop-color="#7717a2"/></linearGradient><circle cx="34" cy="25" r="5" fill="url(#Bwgr8heuSdk9VW_RNnx7Za)"/><linearGradient id="Bwgr8heuSdk9VW_RNnx7Zb" x1="35.594" x2="29.845" y1="8.624" y2="15.207" gradientUnits="userSpaceOnUse"><stop offset="0" stop-color="#d4943b"/><stop offset="1" stop-color="#c2620e"/><stop offset="1" stop-color="#c2620e"/></linearGradient><path fill="url(#Bwgr8heuSdk9VW_RNnx7Zb)" d="M44,6c-2.109,0-4.21,0.973-6.281,2.898c-0.174-0.975-0.636-1.87-1.35-2.584	c-0.944-0.944-2.199-1.464-3.535-1.464s-2.591,0.52-3.535,1.464c-0.391,0.391-0.391,1.024,0,1.414c0.391,0.391,1.023,0.391,1.414,0	c1.133-1.133,3.109-1.133,4.242,0c0.558,0.558,0.856,1.305,0.843,2.104c-0.014,0.794-0.334,1.544-0.898,2.118l-6.643,7.381	c-0.369,0.411-0.336,1.043,0.074,1.412C28.522,20.916,28.762,21,29,21c0.273,0,0.546-0.112,0.743-0.331l8.964-9.962	C40.503,8.911,42.284,8,44,8c0.553,0,1-0.448,1-1S44.553,6,44,6z"/><linearGradient id="Bwgr8heuSdk9VW_RNnx7Zc" x1="5.906" x2="16.55" y1="33.906" y2="44.55" gradientUnits="userSpaceOnUse"><stop offset="0" stop-color="#9631cc"/><stop offset="1" stop-color="#7717a2"/></linearGradient><circle cx="11" cy="39" r="5" fill="url(#Bwgr8heuSdk9VW_RNnx7Zc)"/><linearGradient id="Bwgr8heuSdk9VW_RNnx7Zd" x1="12.406" x2="23.927" y1="31.406" y2="42.927" gradientUnits="userSpaceOnUse"><stop offset="0" stop-color="#9631cc"/><stop offset="1" stop-color="#7717a2"/></linearGradient><circle cx="18" cy="37" r="5" fill="url(#Bwgr8heuSdk9VW_RNnx7Zd)"/><linearGradient id="Bwgr8heuSdk9VW_RNnx7Ze" x1="7.625" x2="18.67" y1="26.625" y2="37.67" gradientUnits="userSpaceOnUse"><stop offset="0" stop-color="#9631cc"/><stop offset="1" stop-color="#7717a2"/></linearGradient><circle cx="13" cy="32" r="5" fill="url(#Bwgr8heuSdk9VW_RNnx7Ze)"/><linearGradient id="Bwgr8heuSdk9VW_RNnx7Zf" x1="9.531" x2="20.43" y1="19.531" y2="30.43" gradientUnits="userSpaceOnUse"><stop offset="0" stop-color="#9631cc"/><stop offset="1" stop-color="#7717a2"/></linearGradient><circle cx="15" cy="25" r="5" fill="url(#Bwgr8heuSdk9VW_RNnx7Zf)"/><linearGradient id="Bwgr8heuSdk9VW_RNnx7Zg" x1="18.781" x2="29.3" y1="9.781" y2="20.3" gradientUnits="userSpaceOnUse"><stop offset="0" stop-color="#9631cc"/><stop offset="1" stop-color="#7717a2"/></linearGradient><circle cx="24" cy="15" r="5" fill="url(#Bwgr8heuSdk9VW_RNnx7Zg)"/><linearGradient id="Bwgr8heuSdk9VW_RNnx7Zh" x1="23.75" x2="34.733" y1="14.75" y2="25.733" gradientUnits="userSpaceOnUse"><stop offset="0" stop-color="#9631cc"/><stop offset="1" stop-color="#7717a2"/></linearGradient><circle cx="29" cy="20" r="5" fill="url(#Bwgr8heuSdk9VW_RNnx7Zh)"/><linearGradient id="Bwgr8heuSdk9VW_RNnx7Zi" x1="19.438" x2="30.812" y1="29.438" y2="40.812" gradientUnits="userSpaceOnUse"><stop offset="0" stop-color="#9631cc"/><stop offset="1" stop-color="#7717a2"/></linearGradient><circle cx="25" cy="35" r="5" fill="url(#Bwgr8heuSdk9VW_RNnx7Zi)"/><linearGradient id="Bwgr8heuSdk9VW_RNnx7Zj" x1="14.531" x2="25.342" y1="24.531" y2="35.342" gradientUnits="userSpaceOnUse"><stop offset="0" stop-color="#9631cc"/><stop offset="1" stop-color="#7717a2"/></linearGradient><circle cx="20" cy="30" r="5" fill="url(#Bwgr8heuSdk9VW_RNnx7Zj)"/><linearGradient id="Bwgr8heuSdk9VW_RNnx7Zk" x1="11.938" x2="22.622" y1="12.938" y2="23.622" gradientUnits="userSpaceOnUse"><stop offset="0" stop-color="#9631cc"/><stop offset="1" stop-color="#7717a2"/></linearGradient><circle cx="17" cy="18" r="5" fill="url(#Bwgr8heuSdk9VW_RNnx7Zk)"/><linearGradient id="Bwgr8heuSdk9VW_RNnx7Zl" x1="26.375" x2="37.789" y1="27.375" y2="38.789" gradientUnits="userSpaceOnUse"><stop offset="0" stop-color="#9631cc"/><stop offset="1" stop-color="#7717a2"/></linearGradient><circle cx="32" cy="33" r="5" fill="url(#Bwgr8heuSdk9VW_RNnx7Zl)"/><linearGradient id="Bwgr8heuSdk9VW_RNnx7Zm" x1="16.438" x2="27.636" y1="17.438" y2="28.636" gradientUnits="userSpaceOnUse"><stop offset="0" stop-color="#9631cc"/><stop offset="1" stop-color="#7717a2"/></linearGradient><circle cx="22" cy="23" r="5" fill="url(#Bwgr8heuSdk9VW_RNnx7Zm)"/><linearGradient id="Bwgr8heuSdk9VW_RNnx7Zn" x1="21.438" x2="33.245" y1="22.438" y2="34.245" gradientUnits="userSpaceOnUse"><stop offset="0" stop-color="#9631cc"/><stop offset="1" stop-color="#7717a2"/></linearGradient><circle cx="27" cy="28" r="5" fill="url(#Bwgr8heuSdk9VW_RNnx7Zn)"/></svg>