<svg xmlns="http://www.w3.org/2000/svg" viewBox="0 0 48 48"><path fill="#50e6ff" d="M40,6H8C6.895,6,6,6.895,6,8v30c0,1.105,0.895,2,2,2h32c1.105,0,2-0.895,2-2V8 C42,6.895,41.105,6,40,6z"/><linearGradient id="8yKVI0q1sGdzkTQTYEq7oa" x1="18" x2="42" y1="32.093" y2="32.093" gradientUnits="userSpaceOnUse"><stop offset="0" stop-color="#3ccbf4"/><stop offset="1" stop-color="#1fa0e5"/></linearGradient><path fill="url(#8yKVI0q1sGdzkTQTYEq7oa)" d="M32.065,23.065c-1.149-1.149-3.005-1.174-4.185-0.057L18,32.368V42h22c1.105,0,2-0.895,2-2 v-7L32.065,23.065z"/><circle cx="30.5" cy="14.5" r="3.5" fill="#fff8de"/><linearGradient id="8yKVI0q1sGdzkTQTYEq7ob" x1="23.91" x2="23.91" y1="18.186" y2="42" gradientUnits="userSpaceOnUse"><stop offset="0" stop-color="#28afea"/><stop offset="1" stop-color="#0b88da"/></linearGradient><path fill="url(#8yKVI0q1sGdzkTQTYEq7ob)" d="M8,42h32c0.811,0,1.507-0.485,1.82-1.18L20.065,19.065c-1.149-1.149-3.005-1.174-4.185-0.057 L6,28.368V40C6,41.105,6.895,42,8,42z"/><radialGradient id="8yKVI0q1sGdzkTQTYEq7oc" cx="37.998" cy="38.032" r="12.186" gradientUnits="userSpaceOnUse"><stop offset=".348"/><stop offset=".936" stop-opacity=".098"/><stop offset="1" stop-opacity="0"/></radialGradient><path fill="url(#8yKVI0q1sGdzkTQTYEq7oc)" d="M42,42V26.697C40.747,26.254,39.405,26,38,26 c-6.627,0-12,5.373-12,12c0,1.405,0.254,2.747,0.697,4H42z" opacity=".3"/><linearGradient id="8yKVI0q1sGdzkTQTYEq7od" x1="28" x2="48" y1="520" y2="520" gradientTransform="translate(0 -482)" gradientUnits="userSpaceOnUse"><stop offset="0" stop-color="#21ad64"/><stop offset="1" stop-color="#088242"/></linearGradient><circle cx="38" cy="38" r="10" fill="url(#8yKVI0q1sGdzkTQTYEq7od)"/><path fill="#fff" d="M38.5,43h-1c-0.276,0-0.5-0.224-0.5-0.5v-9c0-0.276,0.224-0.5,0.5-0.5h1c0.276,0,0.5,0.224,0.5,0.5 v9C39,42.776,38.776,43,38.5,43z"/><path fill="#fff" d="M33,38.5v-1c0-0.276,0.224-0.5,0.5-0.5h9c0.276,0,0.5,0.224,0.5,0.5v1c0,0.276-0.224,0.5-0.5,0.5h-9 C33.224,39,33,38.776,33,38.5z"/></svg>