<svg xmlns="http://www.w3.org/2000/svg" viewBox="0 0 48 48"><linearGradient id="TpFkpHq7AGWb~Tkla4kyga" x1="24" x2="24" y1="6.121" y2="42.039" gradientUnits="userSpaceOnUse"><stop offset="0" stop-color="#9dffce"/><stop offset="1" stop-color="#50d18d"/></linearGradient><path fill="url(#TpFkpHq7AGWb~Tkla4kyga)" d="M40,42H8c-1.1,0-2-0.9-2-2V8c0-1.1,0.9-2,2-2h32c1.1,0,2,0.9,2,2v32C42,41.1,41.1,42,40,42z"/><linearGradient id="TpFkpHq7AGWb~Tkla4kygb" x1="13" x2="36" y1="24.793" y2="24.793" gradientUnits="userSpaceOnUse"><stop offset=".824" stop-color="#135d36"/><stop offset=".931" stop-color="#125933"/><stop offset="1" stop-color="#11522f"/></linearGradient><path fill="url(#TpFkpHq7AGWb~Tkla4kygb)" d="M21.293,32.707l-8-8c-0.391-0.391-0.391-1.024,0-1.414l1.414-1.414	c0.391-0.391,1.024-0.391,1.414,0L22,27.758l10.879-10.879c0.391-0.391,1.024-0.391,1.414,0l1.414,1.414	c0.391,0.391,0.391,1.024,0,1.414l-13,13C22.317,33.098,21.683,33.098,21.293,32.707z"/></svg>