<svg xmlns="http://www.w3.org/2000/svg" viewBox="0 0 48 48"><path fill="#bd4627" d="M42.269,24.226c2.614-2.61,4.226-5.979,3.594-9.529c-0.508-2.857-1.382-5.738-3.594-7.947 c-2.514-2.509-5.62-4.279-9.147-3.607c-2.984,0.569-6.044,1.299-8.357,3.607c-1.267,1.265-2.224,2.75-2.846,4.415 c-0.397,1.065,0.145,2.251,1.213,2.649c1.067,0.397,2.255-0.145,2.653-1.211c0.413-1.107,1.051-2.096,1.897-2.941 c1.586-1.583,3.663-1.709,5.745-1.731c2.142-0.023,4.292,0.103,5.924,1.731c1.585,1.582,1.238,3.124,1.977,5.125 c0.742,2.009-0.345,4.894-1.977,6.525c-1.453,1.451-3.368,2.841-5.224,2.386c-2.068-0.507-4.682-0.625-6.445-2.386l-1.458-1.456 c-0.806-0.805-2.112-0.805-2.918,0L2.605,42.484c-0.806,0.805-0.806,2.108,0,2.913s2.112,0.805,2.918,0l20.739-19.751 c2.625,1.882,5.921,1.673,9.421,2.034C38.033,27.922,40.366,26.127,42.269,24.226z"/></svg>