<svg xmlns="http://www.w3.org/2000/svg" viewBox="0 0 48 48"><linearGradient id="Mm1wZe_GOUMxzqxMrKMaGa" x1="9.069" x2="26.303" y1="39.883" y2="39.883" gradientUnits="userSpaceOnUse"><stop offset=".001" stop-color="#5b5b5b"/><stop offset="1" stop-color="#424242"/></linearGradient><path fill="url(#Mm1wZe_GOUMxzqxMrKMaGa)" d="M10.801,36.756c-0.957,0-1.732,0.788-1.732,1.759v1.992c0,1.381,3.858,2.501,8.617,2.501 s8.617-1.12,8.617-2.501v-1.992c0-0.972-0.775-1.759-1.732-1.759H10.801z"/><linearGradient id="Mm1wZe_GOUMxzqxMrKMaGb" x1="12.025" x2="13.135" y1="41.208" y2="41.208" gradientUnits="userSpaceOnUse"><stop offset="0" stop-color="#ccc"/><stop offset=".994" stop-color="#525252"/></linearGradient><path fill="url(#Mm1wZe_GOUMxzqxMrKMaGb)" d="M13.809,42.736v-2.227l-2.617-0.827v2.46C11.921,42.385,12.805,42.588,13.809,42.736z"/><linearGradient id="Mm1wZe_GOUMxzqxMrKMaGc" x1="9.069" x2="26.303" y1="38.836" y2="38.836" gradientUnits="userSpaceOnUse"><stop offset="0" stop-color="#4b4b4b"/><stop offset="1" stop-color="#3b3b3b"/></linearGradient><path fill="url(#Mm1wZe_GOUMxzqxMrKMaGc)" d="M26.303,38.516c0-0.972-0.775-1.759-1.732-1.759h-13.77c-0.957,0-1.732,0.788-1.732,1.759 v0.59c3.103,2.686,14.192,2.25,17.234-0.437V38.516z"/><linearGradient id="Mm1wZe_GOUMxzqxMrKMaGd" x1="14.67" x2="21.682" y1="34.074" y2="34.074" gradientUnits="userSpaceOnUse"><stop offset=".001" stop-color="#5b5b5b"/><stop offset="1" stop-color="#424242"/></linearGradient><path fill="url(#Mm1wZe_GOUMxzqxMrKMaGd)" d="M9.404,36.537c0.143-2.723,5.789-3.777,5.789-7.883h4.986c0,4.107,5.695,5.698,5.756,7.582 C25.883,40.168,9.509,40.859,9.404,36.537z"/><linearGradient id="Mm1wZe_GOUMxzqxMrKMaGe" x1="13.294" x2="25.022" y1="32.056" y2="32.056" gradientUnits="userSpaceOnUse"><stop offset="0" stop-color="#4b4b4b"/><stop offset="1" stop-color="#3b3b3b"/></linearGradient><path fill="url(#Mm1wZe_GOUMxzqxMrKMaGe)" d="M20.179,28.654h-4.986c0,2.389-1.904,3.746-3.527,4.998c1.029,0.815,2.806,1.722,5.686,1.799 c3.358,0.091,5.165-1.041,6.042-1.887C21.852,32.369,20.179,30.883,20.179,28.654z"/><path fill="#ccc" d="M14.272,38.873c-0.013,0-0.024,0-0.037-0.001c-1.461-0.104-2.173-0.675-2.25-0.739 c-0.211-0.179-0.237-0.494-0.059-0.705c0.178-0.21,0.49-0.237,0.7-0.063c0.023,0.018,0.563,0.429,1.681,0.509 c0.275,0.02,0.482,0.259,0.463,0.534C14.751,38.671,14.532,38.873,14.272,38.873z"/><ellipse cx="14.343" cy="36.138" fill="#c6cbd1" rx="1.029" ry=".718"/><linearGradient id="Mm1wZe_GOUMxzqxMrKMaGf" x1="17.016" x2="23.239" y1="19.2" y2="19.2" gradientUnits="userSpaceOnUse"><stop offset="0" stop-color="#4b4b4b"/><stop offset="1" stop-color="#3b3b3b"/></linearGradient><path fill="url(#Mm1wZe_GOUMxzqxMrKMaGf)" d="M17.016,11.324l0.335-1.819L18.5,8.404c0,0,1.101,0.718,1.915,0.479 c0.479,0.574,1.149,0.67,1.149,0.67s0.335,0.862,0.67,0.91c0,0.574,0.335,0.957,0.479,0.957c0.048,0.383,0.383,1.245,0.383,1.245 l0.144,1.101l-0.144,4.261c0,0-1.484,4.404-1.293,6.606c0.191,2.202,1.388,3.016,1.388,3.016l-0.479,2.346l-2.681-3.973 l0.622-11.202L17.016,11.324z"/><linearGradient id="Mm1wZe_GOUMxzqxMrKMaGg" x1="10.362" x2="22.182" y1="16.207" y2="16.207" gradientUnits="userSpaceOnUse"><stop offset="0" stop-color="#777"/><stop offset=".999" stop-color="#4d4d4d"/></linearGradient><path fill="url(#Mm1wZe_GOUMxzqxMrKMaGg)" d="M20.032,10.463l-3.399,0.527l-2.824,2.633l-1.676,4.069l-1.771,0.814l0.048,2.777l0.67,0.67 h0.91l-0.239,0.622l1.149,0.048l1.532-1.676l2.059-1.197c0,0,2.489,1.484,5.122-2.441c0.766-3.59,0.838-4.093-0.263-5.242 c0.048-1.005,0.072-2.274,0.072-2.274L20.032,10.463z"/><linearGradient id="Mm1wZe_GOUMxzqxMrKMaGh" x1="12.229" x2="26.016" y1="26.191" y2="26.191" gradientUnits="userSpaceOnUse"><stop offset="0" stop-color="#777"/><stop offset=".716" stop-color="#4d4d4d"/></linearGradient><path fill="url(#Mm1wZe_GOUMxzqxMrKMaGh)" d="M17.016,19.271l-6.702,8.186l0.144,3.638c0,0,1.58,2.968,6.894,3.112s6.75-2.777,6.75-2.777 l-2.824-4.452l-1.867-2.777l1.197-6.032L17.016,19.271z"/><linearGradient id="Mm1wZe_GOUMxzqxMrKMaGi" x1="11.255" x2="22.215" y1="16.239" y2="16.239" gradientUnits="userSpaceOnUse"><stop offset="0" stop-color="#4b4b4b"/><stop offset="1" stop-color="#3b3b3b"/></linearGradient><path fill="url(#Mm1wZe_GOUMxzqxMrKMaGi)" d="M12.468,21.936l1.372-1.117l0.7,0.064l0.017-0.01l2.458-1.602l0.146,0.705 c0.916,0.171,2.649,0.018,4.45-2.668c0.665-3.117,0.86-4.177,0.179-5.154l-0.387-0.176v-1.5c0,0-0.862,0.319-1.787,1.883 s-2.33,2.138-2.33,2.138s-0.83,0.287-1.309,0.574c-0.479,0.287-1.723,2.872-1.723,2.872s-0.096,0.032-1.34,1.085l-1.596,0.702 l-0.064,2.17L11.83,22L12.468,21.936z"/><linearGradient id="Mm1wZe_GOUMxzqxMrKMaGj" x1="17.925" x2="35.973" y1="42.464" y2="42.464" gradientUnits="userSpaceOnUse"><stop offset="0" stop-color="#ccc"/><stop offset=".994" stop-color="#6a6a6a"/></linearGradient><path fill="url(#Mm1wZe_GOUMxzqxMrKMaGj)" d="M19.739,39.19c-1.002,0-1.814,0.825-1.814,1.843v2.086c0,1.447,4.04,2.619,9.024,2.619 s9.024-1.173,9.024-2.619v-2.086c0-1.018-0.812-1.843-1.814-1.843H19.739z"/><linearGradient id="Mm1wZe_GOUMxzqxMrKMaGk" x1="20.622" x2="34.587" y1="35.296" y2="35.296" gradientUnits="userSpaceOnUse"><stop offset="0" stop-color="#ccc"/><stop offset=".994" stop-color="#6a6a6a"/></linearGradient><path fill="url(#Mm1wZe_GOUMxzqxMrKMaGk)" d="M18.644,38.369c0.144-3.396,5.805-4.711,5.805-9.833h5c0,5.122,5.711,7.107,5.772,9.457 C35.168,42.897,18.748,43.759,18.644,38.369z"/><linearGradient id="Mm1wZe_GOUMxzqxMrKMaGl" x1="20.902" x2="22.188" y1="43.005" y2="43.005" gradientUnits="userSpaceOnUse"><stop offset="0" stop-color="#fefefa"/><stop offset=".994" stop-color="#adadad"/></linearGradient><path fill="url(#Mm1wZe_GOUMxzqxMrKMaGl)" d="M22.968,45.467v-3.965l-3.032-0.959v4.223C20.755,45.059,21.79,45.298,22.968,45.467z"/><linearGradient id="Mm1wZe_GOUMxzqxMrKMaGm" x1="20.622" x2="34.587" y1="39.709" y2="39.709" gradientUnits="userSpaceOnUse"><stop offset="0" stop-color="#919191"/><stop offset=".994" stop-color="#6a6a6a"/></linearGradient><path fill="url(#Mm1wZe_GOUMxzqxMrKMaGm)" d="M35.06,37.362c-1.223,4.162-14.897,4.892-16.346,0.521c-0.033,0.159-0.063,0.318-0.07,0.486 c0.105,5.39,16.525,4.528,16.577-0.376C35.215,37.78,35.15,37.571,35.06,37.362z"/><linearGradient id="Mm1wZe_GOUMxzqxMrKMaGn" x1="15.522" x2="22.257" y1="22.702" y2="22.702" gradientUnits="userSpaceOnUse"><stop offset="0" stop-color="#4b4b4b"/><stop offset="1" stop-color="#3b3b3b"/></linearGradient><path fill="url(#Mm1wZe_GOUMxzqxMrKMaGn)" d="M19.362,18.84c0,0-4.069,7.995-3.83,11.968c0.144,1.436,6.367,1.484,6.559-1.915 c-0.91-2.537-1.723-3.447-0.67-8.043c1.053-4.596,0.814-7.181,0.814-7.181L19.362,18.84z"/><linearGradient id="Mm1wZe_GOUMxzqxMrKMaGo" x1="16.096" x2="17.571" y1="15.68" y2="15.68" gradientUnits="userSpaceOnUse"><stop offset="0" stop-color="#ccc"/><stop offset=".994" stop-color="#6a6a6a"/></linearGradient><path fill="url(#Mm1wZe_GOUMxzqxMrKMaGo)" d="M17.522,15.282c0.145,0.251-0.046,0.633-0.426,0.853s-0.807,0.194-0.952-0.057 c-0.145-0.251,0.046-0.633,0.426-0.853C16.951,15.005,17.377,15.031,17.522,15.282z"/><linearGradient id="Mm1wZe_GOUMxzqxMrKMaGp" x1="22.212" x2="32.248" y1="32.327" y2="32.327" gradientUnits="userSpaceOnUse"><stop offset="0" stop-color="#919191"/><stop offset=".994" stop-color="#6a6a6a"/></linearGradient><path fill="url(#Mm1wZe_GOUMxzqxMrKMaGp)" d="M29.449,28.536h-5c0,3.05-2.005,4.751-3.659,6.344c2.832,1.78,8.826,1.57,11.914-0.193 C31.149,33.192,29.449,31.331,29.449,28.536z"/><linearGradient id="Mm1wZe_GOUMxzqxMrKMaGq" x1="24.532" x2="33.501" y1="26.804" y2="26.804" gradientUnits="userSpaceOnUse"><stop offset="0" stop-color="#ccc"/><stop offset=".994" stop-color="#6a6a6a"/></linearGradient><path fill="url(#Mm1wZe_GOUMxzqxMrKMaGq)" d="M30.899,30.282c-0.726-1.501-1.316-3.55-1.316-5.11l-0.014,0v-6.374H24.33v6.362l-0.014,0 c0,1.59-0.635,3.783-1.484,5.314c-0.642,1.157-1.556,1.797-1.556,2.296c0.067,2.937,10.929,2.536,10.963-0.136 C32.239,32.227,31.472,31.467,30.899,30.282z"/><linearGradient id="Mm1wZe_GOUMxzqxMrKMaGr" x1="22.007" x2="31.907" y1="17.443" y2="17.443" gradientUnits="userSpaceOnUse"><stop offset="0" stop-color="#ccc"/><stop offset=".994" stop-color="#6a6a6a"/></linearGradient><path fill="url(#Mm1wZe_GOUMxzqxMrKMaGr)" d="M31.904,17.453c0-0.003,0.003-0.007,0.003-0.01s-0.003-0.007-0.003-0.01v-0.974h-0.763 c-0.875-0.523-2.415-0.874-4.182-0.874c-1.767,0-3.307,0.35-4.182,0.874h-0.77v1.017h0.013c0.048,1.01,2.237,1.824,4.939,1.824 c2.702,0,4.891-0.814,4.939-1.824h0.006V17.453z"/><ellipse cx="26.959" cy="16.517" fill="#ccc" rx="4.948" ry="1.602"/><linearGradient id="Mm1wZe_GOUMxzqxMrKMaGs" x1="22.94" x2="30.971" y1="15.967" y2="15.967" gradientUnits="userSpaceOnUse"><stop offset="0" stop-color="#ccc"/><stop offset=".994" stop-color="#6a6a6a"/></linearGradient><path fill="url(#Mm1wZe_GOUMxzqxMrKMaGs)" d="M28.734,14.807c-0.537-0.086-1.135-0.14-1.775-0.14s-1.238,0.053-1.775,0.14H22.94v1.161 h0.007c0.002,0.717,1.797,1.298,4.012,1.298c2.214,0,4.009-0.581,4.012-1.298h0v-1.161H28.734z"/><ellipse cx="26.959" cy="14.818" fill="#ccc" rx="4.012" ry="1.299"/><linearGradient id="Mm1wZe_GOUMxzqxMrKMaGt" x1="22.114" x2="31.785" y1="11.145" y2="11.145" gradientUnits="userSpaceOnUse"><stop offset="0" stop-color="#ccc"/><stop offset=".994" stop-color="#6a6a6a"/></linearGradient><path fill="url(#Mm1wZe_GOUMxzqxMrKMaGt)" d="M29.654,14.46c-0.112,0.806-5.09,0.838-5.194,0c-0.179-2.096-1.124-4.598-2.346-7.247h9.67 C30.667,9.646,29.869,12.065,29.654,14.46z"/><linearGradient id="Mm1wZe_GOUMxzqxMrKMaGu" x1="27" x2="41" y1="45" y2="45" gradientUnits="userSpaceOnUse"><stop offset=".001" stop-color="#5b5b5b"/><stop offset="1" stop-color="#424242"/></linearGradient><path fill="url(#Mm1wZe_GOUMxzqxMrKMaGu)" d="M28.407,42.5C27.63,42.5,27,43.13,27,43.907V45.5c0,1.105,3.134,2,7,2s7-0.895,7-2v-1.593 c0-0.777-0.63-1.407-1.407-1.407H28.407z"/><linearGradient id="Mm1wZe_GOUMxzqxMrKMaGv" x1="28.589" x2="30.594" y1="45.757" y2="45.757" gradientUnits="userSpaceOnUse"><stop offset="0" stop-color="#ccc"/><stop offset=".994" stop-color="#525252"/></linearGradient><path fill="url(#Mm1wZe_GOUMxzqxMrKMaGv)" d="M30.979,47.302V45.04l-2.617-0.827v2.469C29.04,46.945,29.937,47.159,30.979,47.302z"/><linearGradient id="Mm1wZe_GOUMxzqxMrKMaGw" x1="27.166" x2="40.72" y1="43.91" y2="43.91" gradientUnits="userSpaceOnUse"><stop offset="0" stop-color="#4b4b4b"/><stop offset="1" stop-color="#3b3b3b"/></linearGradient><path fill="url(#Mm1wZe_GOUMxzqxMrKMaGw)" d="M39.593,42.5H28.407c-0.542,0-1.006,0.309-1.241,0.758 c1.523,2.98,11.748,2.569,13.554-0.186C40.463,42.727,40.056,42.5,39.593,42.5z"/><linearGradient id="Mm1wZe_GOUMxzqxMrKMaGx" x1="27.356" x2="40.617" y1="39.161" y2="39.161" gradientUnits="userSpaceOnUse"><stop offset=".001" stop-color="#5b5b5b"/><stop offset="1" stop-color="#424242"/></linearGradient><path fill="url(#Mm1wZe_GOUMxzqxMrKMaGx)" d="M27.356,41.508C27.356,39.885,32,37.911,32,34h4c0,3.911,4.617,5.932,4.617,7.221 C40.575,44.965,27.44,45.623,27.356,41.508z"/><linearGradient id="Mm1wZe_GOUMxzqxMrKMaGy" x1="30.094" x2="37.778" y1="36.615" y2="36.615" gradientUnits="userSpaceOnUse"><stop offset="0" stop-color="#4b4b4b"/><stop offset="1" stop-color="#3b3b3b"/></linearGradient><path fill="url(#Mm1wZe_GOUMxzqxMrKMaGy)" d="M36,34h-4c0,1.724-0.9,3.069-1.906,4.176c0.92,1.53,6.82,1.32,7.685-0.142 C36.826,36.968,36,35.654,36,34z"/><linearGradient id="Mm1wZe_GOUMxzqxMrKMaGz" x1="29.965" x2="37.888" y1="34.116" y2="34.116" gradientUnits="userSpaceOnUse"><stop offset=".001" stop-color="#5b5b5b"/><stop offset="1" stop-color="#424242"/></linearGradient><path fill="url(#Mm1wZe_GOUMxzqxMrKMaGz)" d="M36,33v-3h-4v3c0,2-2.035,2.94-2.035,3.771c0.048,2.104,7.899,1.817,7.923-0.098 C37.888,36.014,36,35,36,33z"/><linearGradient id="Mm1wZe_GOUMxzqxMrKMaGA" x1="32" x2="36" y1="30.614" y2="30.614" gradientUnits="userSpaceOnUse"><stop offset="0" stop-color="#4b4b4b"/><stop offset="1" stop-color="#3b3b3b"/></linearGradient><path fill="url(#Mm1wZe_GOUMxzqxMrKMaGA)" d="M36,30h-4v1.094c1.234,0.216,2.792,0.168,4-0.116V30z"/><linearGradient id="Mm1wZe_GOUMxzqxMrKMaGB" x1="29.965" x2="37.888" y1="28.696" y2="28.696" gradientUnits="userSpaceOnUse"><stop offset=".001" stop-color="#5b5b5b"/><stop offset="1" stop-color="#424242"/></linearGradient><path fill="url(#Mm1wZe_GOUMxzqxMrKMaGB)" d="M29.965,29.181c0-0.814,1.373-1.488,2.513-2.181h3.016c1.125,0.745,2.394,1.439,2.394,2.085 C37.888,30.689,30.037,30.928,29.965,29.181z"/><linearGradient id="Mm1wZe_GOUMxzqxMrKMaGC" x1="31.431" x2="34.99" y1="27.746" y2="27.746" gradientUnits="userSpaceOnUse"><stop offset="0" stop-color="#4b4b4b"/><stop offset="1" stop-color="#3b3b3b"/></linearGradient><path fill="url(#Mm1wZe_GOUMxzqxMrKMaGC)" d="M35.495,27h-3.016c-0.345,0.209-0.707,0.417-1.048,0.628 c0.69,0.534,1.545,0.864,2.485,0.864c0.952,0,1.817-0.339,2.511-0.885C36.125,27.408,35.806,27.206,35.495,27z"/><linearGradient id="Mm1wZe_GOUMxzqxMrKMaGD" x1="31.747" x2="36.747" y1="24.408" y2="24.408" gradientUnits="userSpaceOnUse"><stop offset=".001" stop-color="#5b5b5b"/><stop offset="1" stop-color="#424242"/></linearGradient><circle cx="33.916" cy="24.408" r="3.509" fill="url(#Mm1wZe_GOUMxzqxMrKMaGD)"/><circle cx="32.863" cy="24.025" r=".733" fill="#c6cbd1"/><path fill="#ccc" d="M31.379,43.276c-0.013,0-0.024,0-0.036-0.001c-1.462-0.104-2.174-0.674-2.251-0.739 c-0.211-0.179-0.237-0.494-0.059-0.705c0.177-0.21,0.491-0.237,0.7-0.063c0.022,0.017,0.563,0.429,1.68,0.509 c0.275,0.02,0.483,0.259,0.464,0.534C31.857,43.075,31.639,43.276,31.379,43.276z"/><path fill="#fefefa" d="M23.464,40.085c-0.013,0-0.024,0-0.036-0.001c-1.462-0.104-2.174-0.674-2.251-0.739 c-0.211-0.179-0.237-0.494-0.059-0.705c0.178-0.21,0.49-0.237,0.7-0.063c0.022,0.017,0.563,0.429,1.68,0.509 c0.275,0.02,0.483,0.259,0.464,0.534C23.942,39.884,23.724,40.085,23.464,40.085z"/><linearGradient id="Mm1wZe_GOUMxzqxMrKMaGE" x1="30.984" x2="33.139" y1="34.964" y2="34.964" gradientUnits="userSpaceOnUse"><stop offset="0" stop-color="#ccc"/><stop offset=".994" stop-color="#525252"/></linearGradient><path fill="url(#Mm1wZe_GOUMxzqxMrKMaGE)" d="M31.179,36.428c0.207-0.172,0.447-0.451,0.631-0.721c0.19-0.277,0.36-0.574,0.49-0.891 c0.268-0.631,0.408-1.326,0.426-2.035c0.001-0.101,0.084-0.183,0.185-0.182c0.092,0.001,0.169,0.073,0.181,0.162 c0.09,0.745,0.053,1.523-0.145,2.274c-0.095,0.377-0.237,0.743-0.411,1.097c-0.183,0.36-0.369,0.679-0.674,1.026 c-0.183,0.208-0.501,0.228-0.709,0.045c-0.208-0.183-0.228-0.501-0.045-0.709c0.017-0.019,0.035-0.037,0.054-0.053L31.179,36.428z"/><linearGradient id="Mm1wZe_GOUMxzqxMrKMaGF" x1="24.875" x2="26.722" y1="32.503" y2="23.982" gradientUnits="userSpaceOnUse"><stop offset="0" stop-color="#fefefa"/><stop offset=".994" stop-color="#adadad"/></linearGradient><path fill="url(#Mm1wZe_GOUMxzqxMrKMaGF)" d="M23.858,32.394c0.205-0.335,0.418-0.752,0.601-1.146c0.186-0.402,0.354-0.813,0.502-1.23 c0.294-0.834,0.499-1.697,0.544-2.565l0.001-0.016c0.014-0.274,0.248-0.485,0.522-0.471c0.244,0.013,0.437,0.198,0.467,0.432 c0.13,1,0.074,2.005-0.082,2.981c-0.08,0.488-0.181,0.972-0.306,1.451c-0.129,0.486-0.26,0.937-0.454,1.446 c-0.198,0.518-0.778,0.778-1.296,0.581s-0.778-0.778-0.581-1.296C23.798,32.504,23.828,32.444,23.858,32.394z"/><linearGradient id="Mm1wZe_GOUMxzqxMrKMaGG" x1="14.777" x2="16.292" y1="30.512" y2="24.662" gradientUnits="userSpaceOnUse"><stop offset="0" stop-color="#ccc"/><stop offset=".994" stop-color="#525252"/></linearGradient><path fill="url(#Mm1wZe_GOUMxzqxMrKMaGG)" d="M13.792,30.282c0.122-0.428,0.252-0.779,0.394-1.156c0.141-0.369,0.291-0.731,0.448-1.089 c0.316-0.714,0.662-1.409,1.036-2.084c0.098-0.178,0.322-0.242,0.5-0.144c0.147,0.081,0.216,0.251,0.18,0.407 c-0.168,0.73-0.303,1.464-0.404,2.197c-0.05,0.366-0.091,0.733-0.122,1.097c-0.03,0.357-0.056,0.742-0.053,1.059 c0.006,0.559-0.442,1.017-1.001,1.023c-0.559,0.006-1.017-0.442-1.023-1.001c-0.001-0.098,0.012-0.193,0.037-0.283L13.792,30.282z"/><ellipse cx="31.258" cy="40.479" fill="#c6cbd1" rx="1.029" ry=".718"/><ellipse cx="23.391" cy="37.346" fill="#fefefa" rx="1.205" ry=".841"/><linearGradient id="Mm1wZe_GOUMxzqxMrKMaGH" x1="23.035" x2="27.713" y1="11.805" y2="11.7" gradientUnits="userSpaceOnUse"><stop offset="0" stop-color="#fefefa"/><stop offset=".994" stop-color="#8d8d8d"/></linearGradient><path fill="url(#Mm1wZe_GOUMxzqxMrKMaGH)" d="M23.814,8.404c0,0,1.447,3.327,1.37,6.403c0.976,0.251,1.646,0.347,2.604,0.251 c0.287-1.436,0.335-6.08,0.335-6.08L23.814,8.404z"/><ellipse cx="26.959" cy="7.227" fill="#ccc" rx="4.844" ry="1.799"/><linearGradient id="Mm1wZe_GOUMxzqxMrKMaGI" x1="25.442" x2="30.055" y1="5.137" y2="5.137" gradientUnits="userSpaceOnUse"><stop offset="0" stop-color="#ccc"/><stop offset=".994" stop-color="#6a6a6a"/></linearGradient><polygon fill="url(#Mm1wZe_GOUMxzqxMrKMaGI)" points="26.016,4.228 26.016,6.394 27.787,6.394 27.787,3.88"/><linearGradient id="Mm1wZe_GOUMxzqxMrKMaGJ" x1="25.952" x2="26.357" y1="9.431" y2="5.912" gradientUnits="userSpaceOnUse"><stop offset="0" stop-color="#fefefa"/><stop offset=".994" stop-color="#adadad"/></linearGradient><path fill="url(#Mm1wZe_GOUMxzqxMrKMaGJ)" d="M22.266,7.702c0.182-0.132,4.984-2.222,7.66,0.957C26,10.191,22.266,7.702,22.266,7.702z"/><polygon fill="#ccc" points="24.811,0.027 28.066,0.027 27.564,0.984 28.242,0.697 28.182,2.6 27.492,2.348 27.516,3.33 25.19,4.634 24.404,4.622 25.358,3.593 25.346,3.162 24.596,3.186 24.572,1.08 25.505,1.128"/><linearGradient id="Mm1wZe_GOUMxzqxMrKMaGK" x1="22.569" x2="29.992" y1="2.325" y2="2.325" gradientUnits="userSpaceOnUse"><stop offset=".006" stop-color="#6a6a6a"/><stop offset="1" stop-color="#ccc"/></linearGradient><polygon fill="url(#Mm1wZe_GOUMxzqxMrKMaGK)" points="25.561,0.027 28.816,0.027 28.314,0.984 29.128,0.673 29.128,2.564 28.242,2.348 28.266,3.33 29.223,4.144 25.154,4.622 26.16,3.569 26.136,2.66 25.346,3.186 25.322,1.08 26.255,1.128"/></svg>