<svg xmlns="http://www.w3.org/2000/svg" viewBox="0 0 48 48"><radialGradient id="kmgH2CBM30tSLvvgjiilCa" cx="50.04" cy="41.761" r="32.562" gradientUnits="userSpaceOnUse"><stop offset="0" stop-color="#bd8af5"/><stop offset=".137" stop-color="#b88bf5"/><stop offset=".309" stop-color="#a88ff3"/><stop offset=".499" stop-color="#8f96f2"/><stop offset=".702" stop-color="#6b9eef"/><stop offset=".913" stop-color="#3eaaec"/><stop offset="1" stop-color="#29afea"/></radialGradient><path fill="url(#kmgH2CBM30tSLvvgjiilCa)" d="M41.284,7.133C38.176,8.309,32.407,9.907,24,9.907S9.824,8.309,6.716,7.133	C5.402,6.636,4,7.594,4,8.999v30.001c0,1.405,1.402,2.364,2.716,1.866c3.108-1.176,8.878-2.774,17.284-2.774	s14.176,1.598,17.284,2.774C42.598,41.364,44,40.406,44,39.001V8.999C44,7.594,42.598,6.636,41.284,7.133z"/><path fill="#fff" d="M36,15c-1.105,0-2,1.119-2,2.5s0.895,2.5,2,2.5s2-1.119,2-2.5S37.105,15,36,15z"/><path fill="#436dcd" d="M24,38.093c8.407,0,14.176,1.598,17.284,2.774c0.249,0.094,0.5,0.122,0.745,0.118l-10.93-15.926	c-1.055-1.538-3.286-1.647-4.486-0.219L14.899,38.777C17.479,38.371,20.509,38.093,24,38.093z"/><linearGradient id="kmgH2CBM30tSLvvgjiilCb" x1="4" x2="29.654" y1="29.615" y2="29.615" gradientUnits="userSpaceOnUse"><stop offset="0" stop-color="#124787"/><stop offset=".923" stop-color="#173b75"/><stop offset="1" stop-color="#173a73"/></linearGradient><path fill="url(#kmgH2CBM30tSLvvgjiilCb)" d="M29.654,38.348L18.206,19.61c-1.06-1.734-3.533-1.857-4.759-0.237L4,31.85v7.151	c0,1.405,1.402,2.364,2.716,1.866c3.108-1.176,8.878-2.774,17.284-2.774C26.041,38.093,27.924,38.189,29.654,38.348z"/></svg>