<svg xmlns="http://www.w3.org/2000/svg" viewBox="0 0 48 48"><linearGradient id="sbHOF6d2yhwDjjI4dBx2pa" x1="6.414" x2="41.774" y1="-69.662" y2="-95.488" gradientTransform="matrix(1 0 0 -1 0 -56)" gradientUnits="userSpaceOnUse"><stop offset="0" stop-color="#28afea"/><stop offset="1" stop-color="#047ed6"/></linearGradient><path fill="url(#sbHOF6d2yhwDjjI4dBx2pa)" d="M6,40V12h36v28c0,1.1-0.9,2-2,2H8C6.9,42,6,41.1,6,40z"/><linearGradient id="sbHOF6d2yhwDjjI4dBx2pb" x1="6.42" x2="41.198" y1="-62.608" y2="-69.68" gradientTransform="matrix(1 0 0 -1 0 -56)" gradientUnits="userSpaceOnUse"><stop offset="0" stop-color="#0077d2"/><stop offset="1" stop-color="#0b59a2"/></linearGradient><path fill="url(#sbHOF6d2yhwDjjI4dBx2pb)" d="M42,8v6H6V8c0-1.1,0.9-2,2-2h32C41.1,6,42,6.9,42,8z"/><path d="M35.5,12.5L35.5,12.5c-1.657,0-3-1.343-3-3V6h6v3.5	C38.5,11.157,37.157,12.5,35.5,12.5z" opacity=".05"/><path d="M35.5,11.75L35.5,11.75c-1.243,0-2.25-1.007-2.25-2.25V6h4.5v3.5	C37.75,10.743,36.743,11.75,35.5,11.75z" opacity=".07"/><path d="M12.5,12.5L12.5,12.5c-1.657,0-3-1.343-3-3V6h6v3.5	C15.5,11.157,14.157,12.5,12.5,12.5z" opacity=".05"/><path d="M12.5,11.75L12.5,11.75c-1.243,0-2.25-1.007-2.25-2.25V6h4.5v3.5	C14.75,10.743,13.743,11.75,12.5,11.75z" opacity=".07"/><path fill="#3ccbf4" d="M12.5,11L12.5,11c-0.828,0-1.5-0.672-1.5-1.5v-4C11,4.672,11.672,4,12.5,4l0,0	C13.328,4,14,4.672,14,5.5v4C14,10.328,13.328,11,12.5,11z"/><path fill="#3ccbf4" d="M35.5,11L35.5,11c-0.828,0-1.5-0.672-1.5-1.5v-4C34,4.672,34.672,4,35.5,4l0,0	C36.328,4,37,4.672,37,5.5v4C37,10.328,36.328,11,35.5,11z"/><path fill="#fff" d="M16.296,27.926c0,1.312-0.305,2.317-0.912,3.015c-0.609,0.697-1.489,1.046-2.643,1.046 c-0.515,0-0.991-0.089-1.429-0.267v-2.071c0.378,0.287,0.802,0.431,1.271,0.431c1.007,0,1.511-0.747,1.511-2.242v-5.824h2.201 V27.926z"/><path fill="#fff" d="M26.646,31.816h-2.406l-0.697-2.181h-3.486l-0.69,2.181h-2.393l3.568-9.803h2.618L26.646,31.816z M23.036,27.94l-1.053-3.295c-0.077-0.246-0.132-0.54-0.164-0.882h-0.055c-0.022,0.287-0.08,0.572-0.171,0.854l-1.066,3.322H23.036 z"/><path fill="#fff" d="M36.687,31.816h-2.229l-4.04-6.159c-0.237-0.36-0.401-0.631-0.492-0.813h-0.027 c0.036,0.347,0.055,0.875,0.055,1.586v5.387h-2.085v-9.803h2.379l3.89,5.968c0.178,0.269,0.342,0.535,0.492,0.8h0.027 c-0.036-0.228-0.055-0.677-0.055-1.347v-5.421h2.085V31.816z"/></svg>