<svg xmlns="http://www.w3.org/2000/svg" viewBox="0 0 48 48"><linearGradient id="o_5aYwtJp0vdFJRuROmTsa" x1="20.43" x2="20.43" y1="58.169" y2="-40.784" gradientTransform="matrix(1 0 0 -1 0 50)" gradientUnits="userSpaceOnUse"><stop offset="0" stop-color="#ffcf7b"/><stop offset=".196" stop-color="#fecd76"/><stop offset=".439" stop-color="#fac666"/><stop offset=".709" stop-color="#f3bc4d"/><stop offset=".995" stop-color="#eaad2a"/><stop offset="1" stop-color="#eaad29"/></linearGradient><path fill="url(#o_5aYwtJp0vdFJRuROmTsa)" d="M26.955,27.643c3.165-3.143,3.692-5.762,6.329-8.381c1.582-1.571,2.637-1.571,3.692-2.619	c1.672-1.66,0.755-3.918-0.923-6c-0.843-1.047-1.026-1.299-1.396-2.588l0,0c-0.792-2.754-3.19-4.184-5.886-3.167l-0.09,0.034	c-1.498,0.566-2.652,0.896-3.98,0.004L24.57,4.839c-2.153-1.445-5.065-0.98-6.654,1.062l-0.737,0.947	c-0.864,1.11-1.992,1.971-3.402,2.062l-1.164,0.076c-2.467,0.16-4.431,2.111-4.593,4.561l-0.076,1.156	c-0.092,1.4-0.959,2.521-2.077,3.378l-0.954,0.732c-2.056,1.577-2.524,4.47-1.069,6.607l0.108,0.158	c0.887,1.303,0.561,2.426,0.014,3.902l0,0c-0.988,2.668,0.455,5.014,3.207,5.795l0.056,0.016c1.298,0.368,1.553,0.549,2.606,1.387	c2.097,1.666,4.37,2.577,6.042,0.917c1.055-1.048,1.055-2.095,2.637-3.666C21.153,31.31,23.791,30.786,26.955,27.643z"/><linearGradient id="o_5aYwtJp0vdFJRuROmTsb" x1="-2.893" x2="71.114" y1="-2.251" y2="71.755" gradientTransform="matrix(1 0 0 -1 0 50)" gradientUnits="userSpaceOnUse"><stop offset="0" stop-color="#fff0ce"/><stop offset="1" stop-color="#ffda94"/></linearGradient><path fill="url(#o_5aYwtJp0vdFJRuROmTsb)" d="M34.128,33.169c3.165-3.142,3.658-5.796,6.296-8.414c1.583-1.571,2.655-1.554,3.71-2.601	c1.672-1.66,0.703-3.97-1.036-6.114c-0.874-1.078-1.064-1.338-1.462-2.654l0,0c-0.85-2.812-3.311-4.305-6.034-3.315l-0.091,0.033	c-1.513,0.55-2.681,0.867-4.045-0.061L31.33,9.952c-2.212-1.504-5.164-1.079-6.745,0.97l-0.734,0.951	c-0.86,1.114-1.993,1.97-3.424,2.04l-1.182,0.058c-2.504,0.122-4.469,2.073-4.593,4.56l-0.058,1.174	c-0.071,1.421-0.933,2.546-2.055,3.4l-0.958,0.728c-2.064,1.57-2.492,4.502-0.978,6.698l0.112,0.163	c0.923,1.339,0.61,2.475,0.078,3.966l0,0c-0.961,2.696,0.544,5.104,3.355,5.943l0.057,0.017c1.325,0.396,1.587,0.584,2.672,1.452	c2.158,1.728,4.484,2.691,6.156,1.031c1.055-1.047,1.038-2.112,2.62-3.683C28.291,36.801,30.963,36.311,34.128,33.169z"/><linearGradient id="o_5aYwtJp0vdFJRuROmTsc" x1="28.447" x2="28.447" y1="43.641" y2="-27.617" gradientTransform="matrix(1 0 0 -1 0 50)" gradientUnits="userSpaceOnUse"><stop offset="0" stop-color="#ffcf7b"/><stop offset=".196" stop-color="#fecd76"/><stop offset=".439" stop-color="#fac666"/><stop offset=".709" stop-color="#f3bc4d"/><stop offset=".995" stop-color="#eaad2a"/><stop offset="1" stop-color="#eaad29"/></linearGradient><path fill="url(#o_5aYwtJp0vdFJRuROmTsc)" d="M23.133,39.897c-1.769-0.322-3.372-1.091-4.634-2.345c-4.186-4.156-3.092-11.982,2.443-17.478	s13.415-6.582,17.6-2.426c1.263,1.254,2.037,2.845,2.361,4.602c0,0,0.324,1.749-0.973,3.062c-1.045,1.057-3.165,5.238-5.802,7.857	s-7.384,5.238-8.439,6.285C24.855,40.169,23.133,39.897,23.133,39.897z"/></svg>