<svg xmlns="http://www.w3.org/2000/svg" viewBox="0 0 48 48"><path fill="#35c1f1" d="M31,42.562V39H12v3.562C12,43.356,12.644,44,13.438,44h16.124C30.356,44,31,43.356,31,42.562z"/><linearGradient id="3mYZ0qTe8BF36xdOn~58va" x1="6.645" x2="34.613" y1="5.145" y2="33.113" gradientUnits="userSpaceOnUse"><stop offset="0" stop-color="#899198"/><stop offset="1" stop-color="#787e85"/></linearGradient><path fill="url(#3mYZ0qTe8BF36xdOn~58va)" d="M33,4H11C9.9,4,9,4.9,9,6v29c0,1.1,0.9,2,2,2h22c1.1,0,2-0.9,2-2V6C35,4.9,34.1,4,33,4z"/><linearGradient id="3mYZ0qTe8BF36xdOn~58vb" x1="12.954" x2="31.933" y1="6.809" y2="14.553" gradientUnits="userSpaceOnUse"><stop offset="0" stop-color="#4fe5ff"/><stop offset="1" stop-color="#2eb7ed"/></linearGradient><path fill="url(#3mYZ0qTe8BF36xdOn~58vb)" d="M31,14H13c-0.6,0-1-0.4-1-1V8c0-0.6,0.4-1,1-1h18c0.6,0,1,0.4,1,1v5C32,13.6,31.6,14,31,14z"/><path fill="#cf1928" d="M32,22h-2c-0.6,0-1-0.4-1-1v-2c0-0.6,0.4-1,1-1h2c0.6,0,1,0.4,1,1v2C33,21.6,32.6,22,32,22z"/><path fill="#cad2d9" d="M14,22h-2c-0.6,0-1-0.4-1-1v-2c0-0.6,0.4-1,1-1h2c0.6,0,1,0.4,1,1v2C15,21.6,14.6,22,14,22z M20,22	h-2c-0.6,0-1-0.4-1-1v-2c0-0.6,0.4-1,1-1h2c0.6,0,1,0.4,1,1v2C21,21.6,20.6,22,20,22z M14,28h-2c-0.6,0-1-0.4-1-1v-2	c0-0.6,0.4-1,1-1h2c0.6,0,1,0.4,1,1v2C15,27.6,14.6,28,14,28z M20,28h-2c-0.6,0-1-0.4-1-1v-2c0-0.6,0.4-1,1-1h2c0.6,0,1,0.4,1,1v2	C21,27.6,20.6,28,20,28z M14,34h-2c-0.6,0-1-0.4-1-1v-2c0-0.6,0.4-1,1-1h2c0.6,0,1,0.4,1,1v2C15,33.6,14.6,34,14,34z M20,34h-2	c-0.6,0-1-0.4-1-1v-2c0-0.6,0.4-1,1-1h2c0.6,0,1,0.4,1,1v2C21,33.6,20.6,34,20,34z M26,22h-2c-0.6,0-1-0.4-1-1v-2c0-0.6,0.4-1,1-1h2	c0.6,0,1,0.4,1,1v2C27,21.6,26.6,22,26,22z M26,28h-2c-0.6,0-1-0.4-1-1v-2c0-0.6,0.4-1,1-1h2c0.6,0,1,0.4,1,1v2	C27,27.6,26.6,28,26,28z M26,34h-2c-0.6,0-1-0.4-1-1v-2c0-0.6,0.4-1,1-1h2c0.6,0,1,0.4,1,1v2C27,33.6,26.6,34,26,34z"/><path fill="#edbe00" d="M32,28h-2c-0.6,0-1-0.4-1-1v-2c0-0.6,0.4-1,1-1h2c0.6,0,1,0.4,1,1v2C33,27.6,32.6,28,32,28z"/><path fill="#107c42" d="M32,34h-2c-0.6,0-1-0.4-1-1v-2c0-0.6,0.4-1,1-1h2c0.6,0,1,0.4,1,1v2C33,33.6,32.6,34,32,34z"/><linearGradient id="3mYZ0qTe8BF36xdOn~58vc" x1="34.729" x2="39.517" y1="20.5" y2="20.5" gradientUnits="userSpaceOnUse"><stop offset="0" stop-color="#484b4f"/><stop offset=".23" stop-color="#656d75"/><stop offset=".367" stop-color="#727d86"/></linearGradient><path fill="url(#3mYZ0qTe8BF36xdOn~58vc)" d="M37,32h-2V9h2c1.1,0,2,0.9,2,2v19C39,31.1,38.1,32,37,32z"/><rect width="19" height="2" x="12" y="37" fill="#199be2"/><linearGradient id="3mYZ0qTe8BF36xdOn~58vd" x1="-1540.617" x2="-1535.617" y1="-177.309" y2="-177.309" gradientTransform="matrix(0 1 1 0 205.309 1579.617)" gradientUnits="userSpaceOnUse"><stop offset="0" stop-color="#45494d"/><stop offset="1" stop-color="#6d7479"/></linearGradient><polygon fill="url(#3mYZ0qTe8BF36xdOn~58vd)" points="27,39 27,44 29,44 29,39"/><path fill="#a8e7ff" d="M23,41.5V39h2v2.5c0,0.276-0.224,0.5-0.5,0.5h-1C23.224,42,23,41.776,23,41.5z"/><rect width="2" height="2" x="27" y="37" fill="#2d3033"/><rect width="2" height="2" x="23" y="37" fill="#76cced"/></svg>