<svg xmlns="http://www.w3.org/2000/svg" viewBox="0 0 48 48"><linearGradient id="rmyeH5v2F~YgHZffJGv7Xa" x1="24" x2="24" y1="6.87" y2="14.111" gradientUnits="userSpaceOnUse"><stop offset="0" stop-color="#a34f27"/><stop offset=".587" stop-color="#8b3817"/><stop offset="1" stop-color="#802d10"/></linearGradient><rect width="16" height="2" x="16" y="9" fill="url(#rmyeH5v2F~YgHZffJGv7Xa)"/><linearGradient id="rmyeH5v2F~YgHZffJGv7Xb" x1="15.419" x2="32.356" y1="-.069" y2="46.466" gradientUnits="userSpaceOnUse"><stop offset="0" stop-color="#eba84b"/><stop offset="1" stop-color="#d97218"/></linearGradient><path fill="url(#rmyeH5v2F~YgHZffJGv7Xb)" d="M40.58,31.09c-0.034-0.357-0.119-0.607-0.177-0.914c-0.064-0.295-0.128-0.591-0.211-0.857	c-0.618-2.199-1.389-4.221-2.157-6.254c-1.524-4.038-3.241-8.03-4.417-12.005c-0.253-0.97-0.531-2.001-0.365-2.583	c0.156-0.681,0.594-1.145,1.268-1.306c0.342-0.075,0.765-0.076,1.094,0.004c0.341,0.074,0.615,0.243,0.846,0.476	c0.223,0.242,0.391,0.564,0.468,0.928c0.037,0.207,0.055,0.311,0.056,0.615L37,10c0.011,0.534,0.442,0.97,0.981,0.981	C38.533,10.991,38.989,10.552,39,10l0.016-0.807c0.012-0.234-0.001-0.67-0.06-0.992c-0.117-0.696-0.415-1.382-0.901-1.955	c-0.488-0.566-1.164-0.995-1.869-1.183c-0.711-0.194-1.391-0.218-2.106-0.099c-0.711,0.135-1.445,0.469-2,1.007	c-0.564,0.53-0.938,1.216-1.13,1.924c-0.093,0.356-0.142,0.719-0.152,1.085l0.066,0.978c0.096,0.589,0.186,1.182,0.331,1.718	c1.105,4.335,2.662,8.332,4.017,12.406c0.678,2.021,1.358,4.061,1.828,6.029c0.068,0.251,0.107,0.484,0.147,0.716	c0.032,0.222,0.107,0.493,0.106,0.674c0.003,0.198,0.037,0.365,0.031,0.585l-0.042,0.69c-0.096,0.905-0.324,1.752-0.699,2.484	c-0.743,1.463-2.103,2.487-3.856,3.036C30.992,38.863,29.008,39.045,27,39c-0.025,0-0.059-0.001-0.084,0c0,0-0.001,0-0.001,0H21	c-2.008,0.045-3.992-0.137-5.727-0.704c-1.754-0.55-3.113-1.573-3.856-3.036c-0.376-0.732-0.603-1.579-0.699-2.484l-0.042-0.69	c-0.006-0.22,0.028-0.387,0.031-0.585c-0.001-0.181,0.074-0.452,0.106-0.674c0.041-0.233,0.079-0.466,0.147-0.716	c0.47-1.968,1.15-4.008,1.828-6.029c1.356-4.074,2.912-8.071,4.017-12.406c0.145-0.536,0.234-1.128,0.331-1.718l0.066-0.978	c-0.01-0.365-0.06-0.729-0.152-1.085C16.858,7.187,16.484,6.5,15.92,5.97c-0.555-0.538-1.289-0.872-2-1.007	c-0.716-0.12-1.395-0.096-2.106,0.099C11.108,5.25,10.433,5.68,9.945,6.245C9.459,6.818,9.161,7.505,9.044,8.2	c-0.059,0.323-0.071,0.758-0.06,0.992L9,10c0.011,0.534,0.442,0.97,0.981,0.981C10.533,10.991,10.989,10.552,11,10l0.016-0.807	c0.001-0.304,0.019-0.408,0.056-0.615c0.077-0.364,0.245-0.686,0.468-0.928c0.231-0.233,0.505-0.402,0.846-0.476	c0.329-0.079,0.752-0.079,1.094-0.004c0.674,0.161,1.112,0.626,1.268,1.306c0.166,0.581-0.111,1.612-0.365,2.583	c-1.176,3.975-2.892,7.967-4.417,12.005c-0.768,2.033-1.539,4.054-2.157,6.254c-0.083,0.266-0.148,0.562-0.211,0.857	c-0.058,0.308-0.143,0.557-0.177,0.914c-0.033,0.339-0.085,0.706-0.088,1.024l0.021,0.924c0.08,1.239,0.349,2.523,0.907,3.732	c0.55,1.21,1.402,2.31,2.418,3.161c1.012,0.871,2.175,1.458,3.333,1.896C16.346,42.688,18.711,42.955,21,43l0.014,0	c0.025,0,0.051,0,0.076,0h5.902c0,0,0.001,0,0.002,0L27,43c2.289-0.045,4.654-0.312,6.99-1.173c1.158-0.437,2.321-1.024,3.333-1.896	c1.016-0.851,1.867-1.952,2.418-3.161c0.557-1.209,0.826-2.493,0.907-3.732l0.021-0.924C40.665,31.796,40.613,31.428,40.58,31.09z"/><linearGradient id="rmyeH5v2F~YgHZffJGv7Xc" x1="13.69" x2="27.572" y1="5.675" y2="43.813" gradientUnits="userSpaceOnUse"><stop offset="0" stop-color="#ffd869"/><stop offset="1" stop-color="#fec52b"/></linearGradient><path fill="url(#rmyeH5v2F~YgHZffJGv7Xc)" d="M27,12h-6c-0.552,0-1-0.448-1-1V9c0-0.552,0.448-1,1-1h6c0.552,0,1,0.448,1,1v2	C28,11.552,27.552,12,27,12z M30,17v-2c0-0.552-0.448-1-1-1H19c-0.552,0-1,0.448-1,1v2c0,0.552,0.448,1,1,1h10	C29.552,18,30,17.552,30,17z M32,23v-2c0-0.552-0.448-1-1-1H17c-0.552,0-1,0.448-1,1v2c0,0.552,0.448,1,1,1h14	C31.552,24,32,23.552,32,23z M34,29v-2c0-0.552-0.448-1-1-1H15c-0.552,0-1,0.448-1,1v2c0,0.552,0.448,1,1,1h18	C33.552,30,34,29.552,34,29z M37,35v-2c0-0.552-0.448-1-1-1H12c-0.552,0-1,0.448-1,1v2c0,0.552,0.448,1,1,1h24	C36.552,36,37,35.552,37,35z"/><circle cx="22" cy="10" r="1" fill="#eba600"/><circle cx="26" cy="10" r="1" fill="#eba600"/><circle cx="20" cy="16" r="1" fill="#eba600"/><circle cx="28" cy="16" r="1" fill="#eba600"/><circle cx="18" cy="22" r="1" fill="#eba600"/><circle cx="16" cy="28" r="1" fill="#eba600"/><circle cx="32" cy="28" r="1" fill="#eba600"/><circle cx="35" cy="34" r="1" fill="#eba600"/><circle cx="13" cy="34" r="1" fill="#eba600"/><circle cx="30" cy="22" r="1" fill="#eba600"/></svg>