<svg xmlns="http://www.w3.org/2000/svg" viewBox="0 0 48 48"><path fill="#0884db" d="M37.599,7.202l5.331,3.999c0.533,0.4,0.533,1.2,0,1.599l-5.331,3.999	C36.94,17.293,36,16.822,36,15.999V8.001C36,7.178,36.94,6.707,37.599,7.202z"/><path fill="#0368ba" d="M37,38h-5c-1.259,0-2.445-0.593-3.2-1.6L12,14H5c-0.552,0-1-0.448-1-1v-2c0-0.552,0.448-1,1-1h7	c1.259,0,2.445,0.593,3.2,1.6L32,34h5V38z"/><path fill="#0884db" d="M12,38H5c-0.552,0-1-0.448-1-1v-2c0-0.552,0.448-1,1-1h7l16.8-22.4c0.755-1.007,1.941-1.6,3.2-1.6h5	v4h-5L15.2,36.4C14.445,37.407,13.259,38,12,38z"/><path fill="#0368ba" d="M37.599,31.202l5.331,3.999c0.533,0.4,0.533,1.2,0,1.599l-5.331,3.999	C36.94,41.293,36,40.822,36,39.999v-7.997C36,31.178,36.94,30.707,37.599,31.202z"/></svg>