<svg xmlns="http://www.w3.org/2000/svg" viewBox="0 0 48 48"><circle cx="39.5" cy="31.5" r="2.5" fill="#c98e00"/><polygon fill="#c98e00" points="26.211,41.683 40.68,33.693 38.54,29.191 26,35"/><linearGradient id="7FJCSjkNkQYt2c~u4DlyAa" x1="3" x2="45" y1="33" y2="33" gradientUnits="userSpaceOnUse"><stop offset="0" stop-color="#ffcf54"/><stop offset=".261" stop-color="#fdcb4d"/><stop offset=".639" stop-color="#f7c13a"/><stop offset="1" stop-color="#f0b421"/></linearGradient><path fill="url(#7FJCSjkNkQYt2c~u4DlyAa)" d="M45,32.5c0-1.381-1.119-2.5-2.5-2.5c-0.34,0-0.664,0.069-0.959,0.192l-0.001-0.001 l-0.011,0.005c-0.002,0.001-0.004,0.002-0.006,0.003L29,36l-1.5-1c1.381,0,2.5-1.119,2.5-2.5c0-0.93-0.514-1.732-1.267-2.163 l0.004-0.016l-13.651-6.866l-0.025,0C14.431,23.169,13.737,23,13,23c-0.718,0-1.397,0.157-2.015,0.43l-0.022,0L3,27v13l8.09-3.718 l15.911,6.508l0.001,0C27.309,42.924,27.645,43,28,43c0.435,0,0.838-0.121,1.195-0.317l0.017-0.001l14.469-7.989l-0.001-0.002 C44.462,34.269,45,33.452,45,32.5z"/><circle cx="27.5" cy="32.5" r="1.5" fill="#ffde87"/><linearGradient id="7FJCSjkNkQYt2c~u4DlyAb" x1="22.337" x2="24.123" y1="36.368" y2="33.288" gradientUnits="userSpaceOnUse"><stop offset="0" stop-color="#f0b421" stop-opacity="0"/><stop offset=".512" stop-color="#e9ab12" stop-opacity=".512"/><stop offset="1" stop-color="#e09f00"/></linearGradient><path fill="url(#7FJCSjkNkQYt2c~u4DlyAb)" d="M29,36l-1.489-0.998c-1.255-0.06-2.242-0.468-10.511-3.513V35l11.551,4.734	C28.551,39.734,27.733,37.451,29,36z"/><linearGradient id="7FJCSjkNkQYt2c~u4DlyAc" x1="28.058" x2="31.159" y1="2.01" y2="20.287" gradientUnits="userSpaceOnUse"><stop offset="0" stop-color="#fcfcfc"/><stop offset="1" stop-color="#c3c9cd"/></linearGradient><path fill="url(#7FJCSjkNkQYt2c~u4DlyAc)" d="M37,6c-0.17,0-0.336,0.013-0.502,0.025C34.885,3.6,32.131,2,29,2	c-3.996,0-7.379,2.607-8.554,6.211C17.887,8.896,16,11.225,16,14c0,3.314,2.686,6,6,6c1.147,0,13.63,0,15,0c3.866,0,7-3.134,7-7	C44,9.134,40.866,6,37,6z"/><linearGradient id="7FJCSjkNkQYt2c~u4DlyAd" x1="27.021" x2="27.456" y1="21.906" y2="24.906" gradientUnits="userSpaceOnUse"><stop offset="0" stop-color="#2aa4f4"/><stop offset=".595" stop-color="#0f80e3"/><stop offset="1" stop-color="#006dd9"/></linearGradient><path fill="url(#7FJCSjkNkQYt2c~u4DlyAd)" d="M28.309,23.872c0,0.552-0.448,1-1,1c-0.552,0-1-0.448-1-1c0-0.454,0.677-1.569,0.917-1.95	c0.039-0.062,0.128-0.062,0.166,0C27.632,22.303,28.309,23.418,28.309,23.872z"/><linearGradient id="7FJCSjkNkQYt2c~u4DlyAe" x1="32.069" x2="32.721" y1="23.552" y2="28.051" gradientUnits="userSpaceOnUse"><stop offset="0" stop-color="#2aa4f4"/><stop offset=".595" stop-color="#0f80e3"/><stop offset="1" stop-color="#006dd9"/></linearGradient><path fill="url(#7FJCSjkNkQYt2c~u4DlyAe)" d="M34,26.5c0,0.828-0.672,1.5-1.5,1.5S31,27.328,31,26.5c0-0.681,1.015-2.353,1.375-2.925	c0.058-0.093,0.191-0.093,0.25,0C32.985,24.147,34,25.819,34,26.5z"/></svg>