<svg xmlns="http://www.w3.org/2000/svg" viewBox="0 0 48 48"><linearGradient id="ZYXuFXIIE61St10UDUtPsa" x1="7.431" x2="15.547" y1="32.846" y2="40.962" gradientUnits="userSpaceOnUse"><stop offset="0" stop-color="#6d6d6d"/><stop offset=".126" stop-color="#626262"/><stop offset=".886" stop-color="#464646"/><stop offset="1" stop-color="#454545"/></linearGradient><path fill="url(#ZYXuFXIIE61St10UDUtPsa)" d="M16.99,35.01l-7.7,7.7c-0.39,0.39-1.02,0.39-1.41,0l-2.59-2.59c-0.39-0.39-0.39-1.02,0-1.41	l7.7-7.7L16,32L16.99,35.01z"/><linearGradient id="ZYXuFXIIE61St10UDUtPsb" x1="24.341" x2="32.457" y1="15.936" y2="24.052" gradientUnits="userSpaceOnUse"><stop offset="0" stop-color="#ffd869"/><stop offset="1" stop-color="#fec52b"/></linearGradient><path fill="url(#ZYXuFXIIE61St10UDUtPsb)" d="M42.71,9.29L16.99,35.01l-4-4L38.71,5.29c0.39-0.39,1.02-0.39,1.41,0l2.59,2.59	C43.1,8.27,43.1,8.9,42.71,9.29z"/><circle cx="18.5" cy="29.5" r="1.5" fill="#5c2415"/><circle cx="22.5" cy="25.5" r="1.5" fill="#5c2415"/><circle cx="26.5" cy="21.5" r="1.5" fill="#5c2415"/><circle cx="30" cy="18" r="1" fill="#5c2415"/><circle cx="33.5" cy="14.5" r="1.5" fill="#5c2415"/><circle cx="36.964" cy="11.036" r="1" fill="#5c2415"/><path fill="#eba600" d="M42.71,9.29L41,11l-4-4l1.71-1.71c0.39-0.39,1.02-0.39,1.41,0l2.59,2.59	C43.1,8.27,43.1,8.9,42.71,9.29z"/><rect width="2.828" height="4.95" x="10.336" y="33.775" fill="#343434" transform="rotate(45.001 11.75 36.25)"/></svg>