<svg xmlns="http://www.w3.org/2000/svg" viewBox="0 0 48 48"><path fill="#0078d4" d="M6,22h36c0.552,0,1,0.448,1,1v2c0,0.552-0.448,1-1,1H6c-0.552,0-1-0.448-1-1v-2	C5,22.448,5.448,22,6,22z"/><path fill="#0078d4" d="M6,8h36c0.552,0,1,0.448,1,1v2c0,0.552-0.448,1-1,1H6c-0.552,0-1-0.448-1-1V9C5,8.448,5.448,8,6,8z"/><path fill="#0078d4" d="M6,36h36c0.552,0,1,0.448,1,1v2c0,0.552-0.448,1-1,1H6c-0.552,0-1-0.448-1-1v-2	C5,36.448,5.448,36,6,36z"/><path fill="#35c1f1" d="M28,10c0,2.209-1.791,4-4,4s-4-1.791-4-4s1.791-4,4-4S28,7.791,28,10 M37,24c0,2.209-1.791,4-4,4	s-4-1.791-4-4s1.791-4,4-4S37,21.791,37,24 M21,38c0,2.209-1.791,4-4,4s-4-1.791-4-4s1.791-4,4-4S21,35.791,21,38"/></svg>