<svg xmlns="http://www.w3.org/2000/svg" viewBox="0 0 48 48"><linearGradient id="XJcSRiuWO57K6ihvngFota" x1="24" x2="24" y1="5" y2="44" gradientUnits="userSpaceOnUse"><stop offset="0" stop-color="#ffcf7b"/><stop offset=".196" stop-color="#fecd76"/><stop offset=".439" stop-color="#fac666"/><stop offset=".709" stop-color="#f3bc4d"/><stop offset=".995" stop-color="#eaad2a"/><stop offset="1" stop-color="#eaad29"/></linearGradient><path fill="url(#XJcSRiuWO57K6ihvngFota)" d="M25,5h-2C13.6,5,5,11,5,21c0,7,3,9,3,9c0.3,0.3,0.6,0.6,1,0.9V33c0,4,6,5,6,5v4 c0,1.105,0.895,2,2,2h14c1.105,0,2-0.895,2-2v-4c0,0,6-1,6-5v-2.1c0.4-0.3,0.7-0.6,1-0.9c0,0,3-3,3-9C43,11,34.4,5,25,5z"/><path d="M29.91,22.444c-0.64,0-1.284,0.102-1.914,0.304c-1.042,0.283-1.922,0.999-2.522,2.065 c-0.776,1.377-0.981,3.202-0.535,4.762c0.911,2.736,3.06,4.358,5.754,4.358c0.753,0,1.531-0.128,2.315-0.381 c0.958-0.342,3.892-1.861,2.039-7.275C34.425,23.961,32.405,22.444,29.91,22.444L29.91,22.444z" opacity=".05"/><path d="M24.073,30.957l-0.149,0.034l-0.149,0.034C21.765,31.49,19.5,35.853,19.5,37.9c0,1.391,1.009,2.4,2.4,2.4 c0.829,0,1.612-0.429,2.197-1.178C24.677,39.896,25.36,40.3,26.1,40.3c1.391,0,2.4-1.009,2.4-2.4c0-2.253-2.361-6.149-4.141-6.833 l-0.143-0.055L24.073,30.957L24.073,30.957z" opacity=".05"/><path d="M17.91,22.363c-2.376,0-4.317,1.511-5.065,3.943c-0.905,2.644-0.518,4.369-0.033,5.348 c0.454,0.916,1.209,1.607,2.073,1.895c0.815,0.23,1.588,0.344,2.321,0.344c2.793,0,4.944-1.609,5.753-4.305 c0.468-1.265,0.369-2.924-0.27-4.3c-0.564-1.214-1.503-2.112-2.646-2.527C19.331,22.497,18.613,22.363,17.91,22.363L17.91,22.363z" opacity=".05"/><path d="M17.91,22.863c-2.148,0-3.906,1.376-4.588,3.59c-0.853,2.493-0.506,4.085-0.063,4.979 c0.395,0.798,1.045,1.396,1.783,1.642c0.756,0.213,1.477,0.318,2.163,0.318c2.561,0,4.532-1.476,5.274-3.949 c0.43-1.164,0.34-2.687-0.244-3.946c-0.507-1.093-1.347-1.898-2.364-2.268C19.214,22.987,18.553,22.863,17.91,22.863L17.91,22.863 z M29.91,22.944c-0.588,0-1.181,0.094-1.762,0.28c-0.924,0.252-1.706,0.888-2.239,1.834c-0.713,1.265-0.9,2.943-0.49,4.38 c0.836,2.509,2.805,3.995,5.273,3.995c0.7,0,1.428-0.12,2.161-0.357c0.845-0.302,3.424-1.657,1.72-6.638 C34.006,24.328,32.172,22.944,29.91,22.944L29.91,22.944z M24.037,31.478l-0.149,0.034C22.247,31.891,20,35.912,20,37.9 c0,1.119,0.781,1.9,1.9,1.9c0.991,0,1.759-0.74,2.195-1.613c0.443,0.821,1.116,1.613,2.005,1.613c1.119,0,1.9-0.781,1.9-1.9 c0-2.014-2.249-5.762-3.821-6.367L24.037,31.478L24.037,31.478z" opacity=".07"/><linearGradient id="XJcSRiuWO57K6ihvngFotb" x1="23.967" x2="23.967" y1="23.363" y2="39.3" gradientUnits="userSpaceOnUse"><stop offset="0" stop-color="#5e5e5e"/><stop offset="1" stop-color="#545454"/></linearGradient><path fill="url(#XJcSRiuWO57K6ihvngFotb)" d="M27.5,37.9c0,0.9-0.6,1.4-1.4,1.4c-1.1,0-1.9-1.9-2.1-2.7c0,1-0.8,2.7-2.1,2.7 c-0.8,0-1.4-0.5-1.4-1.4c0-1.9,2.2-5.6,3.5-5.9C25.3,32.5,27.5,36,27.5,37.9z M28.3,23.7c-2.2,0.6-3,3.5-2.4,5.6 c1,3,3.7,4.3,6.8,3.3c1.4-0.5,2.7-2.2,1.4-6C33.4,24,30.8,22.9,28.3,23.7L28.3,23.7z M19.7,23.7c-2.7-1-5.1,0.3-5.9,2.9 c-1.3,3.8,0.2,5.6,1.4,6c3.2,0.9,5.9-0.3,6.8-3.3C22.7,27.4,21.9,24.5,19.7,23.7L19.7,23.7z"/></svg>