<svg xmlns="http://www.w3.org/2000/svg" xmlns:xlink="http://www.w3.org/1999/xlink" data-name="Слой 1" viewBox="0 0 48 48"><defs><linearGradient id="ZHZicEup01XRJJNeIcIcCb" x1="24" x2="24" y1="7.283" y2="29.916" data-name="Безымянный градиент 65" gradientUnits="userSpaceOnUse"><stop offset="0" stop-color="#6d6d6d"/><stop offset=".126" stop-color="#626262"/><stop offset=".987" stop-color="#464646"/><stop offset=".998" stop-color="#454545"/></linearGradient><linearGradient id="ZHZicEup01XRJJNeIcIcCa" x1="24" x2="24" y1="20.016" y2="31.614" data-name="Безымянный градиент 129" gradientUnits="userSpaceOnUse"><stop offset="0" stop-color="#ffd869"/><stop offset="1" stop-color="#fec52b"/></linearGradient><linearGradient id="ZHZicEup01XRJJNeIcIcCc" x2="24" y1="11.359" y2="25.544" xlink:href="#ZHZicEup01XRJJNeIcIcCa"/><linearGradient id="ZHZicEup01XRJJNeIcIcCd" x2="24" y1="4.742" y2="19.613" xlink:href="#ZHZicEup01XRJJNeIcIcCa"/><linearGradient id="ZHZicEup01XRJJNeIcIcCe" x2="24" y1="36.598" y2="43.75" xlink:href="#ZHZicEup01XRJJNeIcIcCa"/><linearGradient id="ZHZicEup01XRJJNeIcIcCf" x2="24" y1="29.212" y2="36.41" xlink:href="#ZHZicEup01XRJJNeIcIcCa"/><linearGradient id="ZHZicEup01XRJJNeIcIcCg" x2="24" y1="17.522" y2="25.755" xlink:href="#ZHZicEup01XRJJNeIcIcCa"/></defs><polygon fill="url(#ZHZicEup01XRJJNeIcIcCb)" points="42.75 37 24 42 5.25 37 5 27 5.25 17 24 7 42.75 17 43 27 42.75 37"/><path fill="url(#ZHZicEup01XRJJNeIcIcCa)" d="M24,35.25A10.25,10.25,0,1,1,34.25,25,10.26131,10.26131,0,0,1,24,35.25Zm0-18.5A8.25,8.25,0,1,0,32.25,25,8.25965,8.25965,0,0,0,24,16.75Z"/><polygon fill="url(#ZHZicEup01XRJJNeIcIcCc)" points="43 27 24 17 5 27 5 23 24 13 43 23 43 27"/><polygon fill="#eba600" points="43 23 24 13 5 23 5 19 24 9 43 19 43 23"/><path fill="url(#ZHZicEup01XRJJNeIcIcCd)" d="M43,19,24,9,5,19V16.20746a2,2,0,0,1,1.06851-1.76983l17.46574-9.1925a1,1,0,0,1,.9315,0l17.46574,9.1925A2,2,0,0,1,43,16.20746Z"/><path fill="#eba600" d="M43,31v4A38.33364,38.33364,0,0,1,5,35V31A38.33364,38.33364,0,0,0,43,31Z"/><path fill="url(#ZHZicEup01XRJJNeIcIcCe)" d="M43,35v2.80884a1.99594,1.99594,0,0,1-1.0446,1.76582,38.33269,38.33269,0,0,1-35.9108,0A1.99594,1.99594,0,0,1,5,37.80884V35A38.33364,38.33364,0,0,0,43,35Z"/><path fill="url(#ZHZicEup01XRJJNeIcIcCf)" d="M43,27v4A38.33364,38.33364,0,0,1,5,31V27A38.33364,38.33364,0,0,0,43,27Z"/><polygon fill="url(#ZHZicEup01XRJJNeIcIcCg)" points="24 20 25.129 23.438 28.781 23.438 25.826 25.562 26.955 29 24 26.875 21.045 29 22.174 25.562 19.219 23.438 22.871 23.438 24 20"/></svg>