<svg xmlns="http://www.w3.org/2000/svg" viewBox="0 0 48 48"><linearGradient id="zUQ76Lpz5JbEHu5XjMd6xa" x1="9.858" x2="38.142" y1="244.142" y2="215.858" gradientTransform="matrix(1 0 0 -1 0 254)" gradientUnits="userSpaceOnUse"><stop offset="0" stop-color="#33bef0"/><stop offset="1" stop-color="#22a5e2"/></linearGradient><path fill="url(#zUQ76Lpz5JbEHu5XjMd6xa)" d="M44,24c0,11.045-8.955,20-20,20S4,35.045,4,24S12.955,4,24,4S44,12.955,44,24z"/><radialGradient id="zUQ76Lpz5JbEHu5XjMd6xb" cx="24" cy="230" r="18.5" gradientTransform="matrix(1 0 0 -1 0 254)" gradientUnits="userSpaceOnUse"><stop offset=".847"/><stop offset="1" stop-opacity="0"/></radialGradient><circle cx="24" cy="24" r="18.5" fill="url(#zUQ76Lpz5JbEHu5XjMd6xb)" opacity=".15"/><radialGradient id="zUQ76Lpz5JbEHu5XjMd6xc" cx="14.575" cy="242.814" r="33.45" gradientTransform="matrix(1 0 0 -1 0 254)" gradientUnits="userSpaceOnUse"><stop offset="0" stop-color="#fafafb"/><stop offset=".293" stop-color="#f6f7f8"/><stop offset=".566" stop-color="#ebecee"/><stop offset=".832" stop-color="#d8dcdf"/><stop offset="1" stop-color="#c8cdd1"/></radialGradient><circle cx="24" cy="24" r="17" fill="url(#zUQ76Lpz5JbEHu5XjMd6xc)"/><path fill="#16528c" d="M21.793,31.914l-8-8c-0.391-0.391-0.391-1.024,0-1.414l1.414-1.414c0.391-0.391,1.024-0.391,1.414,0	l5.879,5.879l10.879-10.879c0.391-0.391,1.024-0.391,1.414,0l1.414,1.414c0.391,0.391,0.391,1.024,0,1.414l-13,13	C22.817,32.305,22.183,32.305,21.793,31.914z"/></svg>