<svg xmlns="http://www.w3.org/2000/svg" viewBox="0 0 48 48"><linearGradient id="eiz~Hgce4Lq4_RFQpcjz3a" x1="19.866" x2="22.787" y1="32.41" y2="45.07" gradientUnits="userSpaceOnUse"><stop offset="0" stop-color="#33bef0"/><stop offset="1" stop-color="#0a85d9"/></linearGradient><path fill="url(#eiz~Hgce4Lq4_RFQpcjz3a)" d="M33,33h1.134c-2.76-1.495-6.287-2.429-10.134-2.429c-8.837,0-16,4.921-16,10.286V42 c0,1.105,0.895,2,2,2h23V33z"/><path d="M33,32.473c-0.754-0.343-1.537-0.66-2.376-0.918 C29.601,33.124,29,34.992,29,37v7h4V32.473z" opacity=".05"/><path d="M33,32.462c-0.604-0.274-1.226-0.532-1.886-0.752 C30.096,33.222,29.5,35.043,29.5,37v7H33V32.462z" opacity=".07"/><path fill="#d6a121" d="M29,31.035c0,1.897-2.83,4-5,4s-5-2.103-5-4C19,28.398,19,24,19,24h10C29,24,29,28.398,29,31.035z"/><linearGradient id="eiz~Hgce4Lq4_RFQpcjz3b" x1="32.917" x2="34.251" y1="-1389.89" y2="-1389.89" gradientTransform="matrix(1 0 0 -1 0 -1369.89)" gradientUnits="userSpaceOnUse"><stop offset="0" stop-color="#c48f0c"/><stop offset=".251" stop-color="#d19b16"/><stop offset=".619" stop-color="#dca51f"/><stop offset="1" stop-color="#e0a922"/></linearGradient><path fill="url(#eiz~Hgce4Lq4_RFQpcjz3b)" d="M32.916,18h-0.527v4h0.703c0.515,0,0.954-0.312,1.041-0.74l0.344-1.703 C34.642,18.743,33.897,18,32.916,18z"/><linearGradient id="eiz~Hgce4Lq4_RFQpcjz3c" x1="-1501.083" x2="-1499.749" y1="-1389.89" y2="-1389.89" gradientTransform="rotate(180 -743 -684.945)" gradientUnits="userSpaceOnUse"><stop offset="0" stop-color="#c48f0c"/><stop offset=".251" stop-color="#d19b16"/><stop offset=".619" stop-color="#dca51f"/><stop offset="1" stop-color="#e0a922"/></linearGradient><path fill="url(#eiz~Hgce4Lq4_RFQpcjz3c)" d="M15.084,18h0.527v4h-0.703c-0.515,0-0.954-0.312-1.041-0.74l-0.344-1.703 C13.358,18.743,14.103,18,15.084,18z"/><radialGradient id="eiz~Hgce4Lq4_RFQpcjz3d" cx="83.497" cy="-1536.132" r="12.224" gradientTransform="matrix(.8816 0 0 -.8816 -49.611 -1335.554)" gradientUnits="userSpaceOnUse"><stop offset="0" stop-color="#ffcf54"/><stop offset=".261" stop-color="#fdcb4d"/><stop offset=".639" stop-color="#f7c13a"/><stop offset="1" stop-color="#f0b421"/></radialGradient><path fill="url(#eiz~Hgce4Lq4_RFQpcjz3d)" d="M24,6.4c-4.441,0-9,0.675-9,10.275c0,0.768,0,5.877,0,6.698C15,26.8,20.4,31,24,31 s9-4.2,9-7.627c0-0.821,0-5.929,0-6.698C33,7.075,28.441,6.4,24,6.4z"/><radialGradient id="eiz~Hgce4Lq4_RFQpcjz3e" cx="73.792" cy="-1522.479" r="28.915" gradientTransform="matrix(.8816 0 0 -.8816 -49.611 -1335.554)" gradientUnits="userSpaceOnUse"><stop offset="0" stop-color="#c26715"/><stop offset=".508" stop-color="#b85515"/><stop offset="1" stop-color="#ad3f16"/></radialGradient><path fill="url(#eiz~Hgce4Lq4_RFQpcjz3e)" d="M24,5.545c-4.354,0-5,1.636-5,1.636c-1.77,0.261-5,2.854-5,5.818c0,1.654,0.265,2.876,1,7 c0.545-6.545,2.249-9,4-9c1.267,0,2.273,1,5,1c2.303,0,2.875-1,5-1c3,0,4,7.968,4,9c0.601-3.01,1-5.555,1-7 C34,9.57,30.209,5.545,24,5.545z"/><radialGradient id="eiz~Hgce4Lq4_RFQpcjz3f" cx="104.379" cy="-1524.415" r="33.398" gradientTransform="matrix(.8431 0 0 -.8816 -65.437 -1335.554)" gradientUnits="userSpaceOnUse"><stop offset="0" stop-color="#c26715"/><stop offset=".508" stop-color="#b85515"/><stop offset="1" stop-color="#ad3f16"/></radialGradient><path fill="url(#eiz~Hgce4Lq4_RFQpcjz3f)" d="M24.219,5c-4.164,0-5.216,2.182-5.216,2.182c-0.042,1.159,0.522,2.182,0.522,2.182 S20.285,11,24.625,11C27.245,11,31,9.365,31,5C31,5,30.157,5,24.219,5z"/><linearGradient id="eiz~Hgce4Lq4_RFQpcjz3g" x1="-1552.467" x2="-1547.112" y1="464.314" y2="464.314" gradientTransform="translate(1588.79 -423.314)" gradientUnits="userSpaceOnUse"><stop offset="0" stop-color="#fede00"/><stop offset="1" stop-color="#ffd000"/></linearGradient><path fill="url(#eiz~Hgce4Lq4_RFQpcjz3g)" d="M39,45.195V42h-2.103c-0.419,0-0.697-0.434-0.521-0.814l2.077-4.501 C38.582,36.406,39,36.498,39,36.805V40h2.103c0.419,0,0.697,0.434,0.521,0.814l-2.077,4.501C39.418,45.594,39,45.502,39,45.195z"/><linearGradient id="eiz~Hgce4Lq4_RFQpcjz3h" x1="38.267" x2="39.105" y1="26.668" y2="44.648" gradientUnits="userSpaceOnUse"><stop offset="0" stop-color="#f44f5a"/><stop offset="1" stop-color="#e52030"/></linearGradient><path fill="url(#eiz~Hgce4Lq4_RFQpcjz3h)" d="M39,28c-4.971,0-9,4.029-9,9v11h5V37c0-2.209,1.791-4,4-4s4,1.791,4,4v11h5V37 C48,32.029,43.971,28,39,28z"/><linearGradient id="eiz~Hgce4Lq4_RFQpcjz3i" x1="42.123" x2="44.581" y1="27.032" y2="40.519" gradientUnits="userSpaceOnUse"><stop offset="0" stop-color="#2aa4f4"/><stop offset="1" stop-color="#007ad9"/></linearGradient><path fill="url(#eiz~Hgce4Lq4_RFQpcjz3i)" d="M39,28v5c2.209,0,4,1.791,4,4v11h5V37C48,32.029,43.971,28,39,28z"/></svg>