<svg xmlns="http://www.w3.org/2000/svg" viewBox="0 0 48 48"><linearGradient id="VF5HS~cqjX0dPXsIwtd~ma" x1="33.035" x2="33.035" y1="-456.214" y2="-451.804" gradientTransform="matrix(1 0 0 -1 0 -426)" gradientUnits="userSpaceOnUse"><stop offset=".365" stop-color="#199ae0"/><stop offset=".699" stop-color="#1898de"/><stop offset=".819" stop-color="#1691d8"/><stop offset=".905" stop-color="#1186cc"/><stop offset=".974" stop-color="#0a75bc"/><stop offset="1" stop-color="#076cb3"/></linearGradient><path fill="url(#VF5HS~cqjX0dPXsIwtd~ma)" d="M36.071,25H30v4.864c0,0.445,0.539,0.669,0.854,0.354L36.071,25z"/><linearGradient id="VF5HS~cqjX0dPXsIwtd~mb" x1="21.054" x2="29.052" y1="44.255" y2="-10.735" gradientUnits="userSpaceOnUse"><stop offset="0" stop-color="#32bdef"/><stop offset="1" stop-color="#1ea2e4"/></linearGradient><path fill="url(#VF5HS~cqjX0dPXsIwtd~mb)" d="M36.364,23.293l-5.51-5.511C30.539,17.467,30,17.691,30,18.136V22H12.928l-1.292,1.292	c-0.39,0.39-0.39,1.023,0,1.414l1,1C12.824,25.894,13.08,26,13.346,26h21.311c0.265,0,0.52-0.105,0.707-0.293l1-1	C36.754,24.316,36.754,23.683,36.364,23.293z"/><linearGradient id="VF5HS~cqjX0dPXsIwtd~mc" x1="-140.964" x2="-140.964" y1="-456.214" y2="-451.804" gradientTransform="rotate(180 -63 -213)" gradientUnits="userSpaceOnUse"><stop offset=".365" stop-color="#199ae0"/><stop offset=".699" stop-color="#1898de"/><stop offset=".819" stop-color="#1691d8"/><stop offset=".905" stop-color="#1186cc"/><stop offset=".974" stop-color="#0a75bc"/><stop offset="1" stop-color="#076cb3"/></linearGradient><path fill="url(#VF5HS~cqjX0dPXsIwtd~mc)" d="M11.929,25H18v4.864c0,0.445-0.539,0.669-0.854,0.354L11.929,25z"/><linearGradient id="VF5HS~cqjX0dPXsIwtd~md" x1="-152.946" x2="-144.947" y1="44.255" y2="-10.735" gradientTransform="matrix(-1 0 0 1 -126 0)" gradientUnits="userSpaceOnUse"><stop offset="0" stop-color="#32bdef"/><stop offset="1" stop-color="#1ea2e4"/></linearGradient><path fill="url(#VF5HS~cqjX0dPXsIwtd~md)" d="M11.636,23.293l5.51-5.511C17.461,17.467,18,17.691,18,18.136V22h17.072l1.292,1.292	c0.39,0.39,0.39,1.023,0,1.414l-1,1C35.176,25.894,34.92,26,34.654,26H13.343c-0.265,0-0.52-0.105-0.707-0.293l-1-1	C11.246,24.316,11.246,23.683,11.636,23.293z"/><linearGradient id="VF5HS~cqjX0dPXsIwtd~me" x1="3.829" x2="10.171" y1="6.015" y2="41.985" gradientUnits="userSpaceOnUse"><stop offset="0" stop-color="#889097"/><stop offset="1" stop-color="#4c5963"/></linearGradient><path fill="url(#VF5HS~cqjX0dPXsIwtd~me)" d="M10,6H8.5H8H4C3.448,6,3,6.448,3,7v2c0,0.552,0.448,1,1,1h3v28H4c-0.552,0-1,0.448-1,1v2	c0,0.552,0.448,1,1,1h4h1h1c0.552,0,1-0.448,1-1V7C11,6.448,10.552,6,10,6z"/><linearGradient id="VF5HS~cqjX0dPXsIwtd~mf" x1="-30.171" x2="-23.829" y1="6.015" y2="41.985" gradientTransform="matrix(-1 0 0 1 14 0)" gradientUnits="userSpaceOnUse"><stop offset="0" stop-color="#889097"/><stop offset="1" stop-color="#4c5963"/></linearGradient><path fill="url(#VF5HS~cqjX0dPXsIwtd~mf)" d="M38,6h1.5H40h4c0.552,0,1,0.448,1,1v2c0,0.552-0.448,1-1,1h-3v28h3c0.552,0,1,0.448,1,1v2	c0,0.552-0.448,1-1,1h-4h-1h-1c-0.552,0-1-0.448-1-1V7C37,6.448,37.448,6,38,6z"/></svg>