<svg xmlns="http://www.w3.org/2000/svg" viewBox="0 0 48 48"><linearGradient id="UbnDBMdjxTpnwGFaXDn9Ha" x1="20.973" x2="13.058" y1="19.104" y2="43.53" gradientUnits="userSpaceOnUse"><stop offset="0" stop-color="#33c481"/><stop offset="1" stop-color="#21a366"/></linearGradient><path fill="url(#UbnDBMdjxTpnwGFaXDn9Ha)" d="M11.5,45c-0.8,0-1.5-0.7-1.5-1.5c0-5.6,1.4-19.5,14.2-27.8c0.7-0.4,1.6-0.3,2.1,0.4	c0.5,0.7,0.3,1.6-0.4,2.1C14.2,25.7,13,38.4,13,43.5C13,44.3,12.3,45,11.5,45z"/><path d="M24.2,15.7c-1.778,1.153-3.328,2.416-4.693,3.747c0.414,0.949,1.065,1.759,1.881,2.367	c1.298-1.29,2.788-2.509,4.511-3.614c0.7-0.5,0.9-1.4,0.4-2.1S24.9,15.3,24.2,15.7z" opacity=".05"/><path d="M24.2,15.7c-1.608,1.043-3.035,2.174-4.303,3.365c0.383,0.97,1.033,1.789,1.862,2.388	c1.21-1.156,2.579-2.252,4.141-3.253c0.7-0.5,0.9-1.4,0.4-2.1S24.9,15.3,24.2,15.7z" opacity=".07"/><linearGradient id="UbnDBMdjxTpnwGFaXDn9Hb" x1="22.274" x2="26.909" y1="11.207" y2="21.057" gradientUnits="userSpaceOnUse"><stop offset="0" stop-color="#33bef0"/><stop offset="1" stop-color="#0a85d9"/></linearGradient><circle cx="25" cy="17" r="5" fill="url(#UbnDBMdjxTpnwGFaXDn9Hb)"/><linearGradient id="UbnDBMdjxTpnwGFaXDn9Hc" x1="17.415" x2="30.351" y1=".822" y2="28.311" gradientUnits="userSpaceOnUse"><stop offset="0" stop-color="#33bef0"/><stop offset="1" stop-color="#0a85d9"/></linearGradient><path fill="url(#UbnDBMdjxTpnwGFaXDn9Hc)" d="M25,3c-7.7,0-14,6.3-14,14c0,1.7,0.3,3.4,0.9,4.9c0.2,0.5,0.8,0.9,1.4,0.9	c0.8,0,1.5-0.7,1.5-1.5c0-0.2,0-0.4-0.1-0.5C14.2,19.6,14,18.3,14,17c0-6.1,4.9-11,11-11s11,4.9,11,11s-4.9,11-11,11	c-1.4,0-2.7-0.3-3.9-0.8c-0.2-0.1-0.4-0.1-0.5-0.1c-0.8,0-1.5,0.7-1.5,1.5c0,0.6,0.4,1.2,0.9,1.4c1.6,0.6,3.3,1,5,1	c7.7,0,14-6.3,14-14S32.7,3,25,3z"/></svg>