<svg xmlns="http://www.w3.org/2000/svg" viewBox="0 0 48 48"><radialGradient id="IfQWjuLG_ooZI5GY_O4qUa" cx="6.711" cy="23.816" r="3.755" gradientUnits="userSpaceOnUse"><stop offset=".294" stop-color="#3a41ac"/><stop offset="1" stop-color="#6971d6"/></radialGradient><circle cx="6.5" cy="23.5" r="5.5" fill="url(#IfQWjuLG_ooZI5GY_O4qUa)"/><radialGradient id="IfQWjuLG_ooZI5GY_O4qUb" cx="41.711" cy="23.816" r="3.755" gradientUnits="userSpaceOnUse"><stop offset=".294" stop-color="#3a41ac"/><stop offset="1" stop-color="#6971d6"/></radialGradient><circle cx="41.5" cy="23.5" r="5.5" fill="url(#IfQWjuLG_ooZI5GY_O4qUb)"/><linearGradient id="IfQWjuLG_ooZI5GY_O4qUc" x1="24" x2="24" y1="-430.942" y2="-467.914" gradientTransform="matrix(.9444 0 0 -1 1.333 -426.001)" gradientUnits="userSpaceOnUse"><stop offset="0" stop-color="#5961c3"/><stop offset="1" stop-color="#3a41ac"/></linearGradient><path fill="url(#IfQWjuLG_ooZI5GY_O4qUc)" d="M24,6C14.611,6,7,16.617,7,27.111S14.611,44,24,44s17-6.395,17-16.889S33.389,6,24,6z"/><path fill="#7b83eb" d="M18.787,15c0,0,1.033-1.544,3.398-2h-5.398c0,0,2.325-2,7-2s7,2,7,2h-5.398 c2.407,0.508,3.398,2,3.398,2H18.787z"/><linearGradient id="IfQWjuLG_ooZI5GY_O4qUd" x1="24" x2="24" y1="39.957" y2="5.913" gradientUnits="userSpaceOnUse"><stop offset="0" stop-color="#7b83eb"/><stop offset=".744" stop-color="#5961c3"/><stop offset="1" stop-color="#434ab3"/></linearGradient><path fill="url(#IfQWjuLG_ooZI5GY_O4qUd)" d="M37,25c0-3.866-3.134-7-7-7c-2.551,0-4.777,1.369-6,3.408C22.777,19.369,20.551,18,18,18 c-3.866,0-7,3.134-7,7c0,3.285,2.265,6.033,5.317,6.788C16.115,32.491,16,33.232,16,34c0,4.418,3.582,8,8,8s8-3.582,8-8 c0-0.768-0.115-1.509-0.317-2.212C34.735,31.033,37,28.285,37,25z"/><circle cx="17.5" cy="23.5" r="1.5" fill="#292c61"/><ellipse cx="24" cy="37.5" fill="#292c61" rx="2" ry="2.5"/><circle cx="30.5" cy="23.5" r="1.5" fill="#292c61"/><path fill="#292c61" d="M27,31c0-2.32-2.062-3-3-3c-0.938,0-3,0.679-3,3H27z"/></svg>