<svg xmlns="http://www.w3.org/2000/svg" xmlns:xlink="http://www.w3.org/1999/xlink" data-name="Слой 1" viewBox="0 0 48 48"><defs><linearGradient id="NUT1euBKwu6BOcu~6TTcMc" x1="24" x2="24" y1="25.326" y2="41.274" data-name="Безымянный градиент 147" xlink:href="#NUT1euBKwu6BOcu~6TTcMa"/><linearGradient id="NUT1euBKwu6BOcu~6TTcMd" x1="24" x2="24" y1="27.576" y2="53.012" data-name="Безымянный градиент 147" xlink:href="#NUT1euBKwu6BOcu~6TTcMa"/><linearGradient id="NUT1euBKwu6BOcu~6TTcMf" x1="4" x2="4" y1="22.75" y2="27.12" data-name="Безымянный градиент 147" xlink:href="#NUT1euBKwu6BOcu~6TTcMa"/><linearGradient id="NUT1euBKwu6BOcu~6TTcMg" x1="44" x2="44" y1="22.75" y2="27.12" data-name="Безымянный градиент 147" xlink:href="#NUT1euBKwu6BOcu~6TTcMa"/><radialGradient id="NUT1euBKwu6BOcu~6TTcMa" cx="31.511" cy="21.902" r="7.25" data-name="Безымянный градиент 79" gradientUnits="userSpaceOnUse"><stop offset="0" stop-color="#dfe9f2"/><stop offset=".391" stop-color="#d6e0e9"/><stop offset="1" stop-color="#bfc8d1"/></radialGradient><radialGradient id="NUT1euBKwu6BOcu~6TTcMb" cx="11.701" cy="21.511" r="7.25" xlink:href="#NUT1euBKwu6BOcu~6TTcMa"/><radialGradient id="NUT1euBKwu6BOcu~6TTcMe" cx="20.995" cy="15.495" r="12.62" xlink:href="#NUT1euBKwu6BOcu~6TTcMa"/></defs><rect width="6" height="7.75" x="31" y="26" fill="#abc1c9"/><rect width="6" height="7.75" x="11" y="26" fill="#abc1c9"/><path fill="#64717c" d="M34,22.5a.49971.49971,0,0,1-.5-.5V20.5a.5.5,0,0,1,1,0V22A.49971.49971,0,0,1,34,22.5Z"/><path fill="url(#NUT1euBKwu6BOcu~6TTcMa)" d="M34.34086,21.29026a.48733.48733,0,0,0-.68172,0C32.77925,22.13485,30.5,23.35359,30.5,24.83189a1.35934,1.35934,0,0,0,.5,1.17065l3,.05391,3-.05391a1.35934,1.35934,0,0,0,.5-1.17065C37.5,23.35359,35.22075,22.13485,34.34086,21.29026Z"/><path fill="#64717c" d="M14,22.5a.49971.49971,0,0,1-.5-.5V20.5a.5.5,0,0,1,1,0V22A.49971.49971,0,0,1,14,22.5Z"/><path fill="url(#NUT1euBKwu6BOcu~6TTcMb)" d="M14.34086,21.29026a.48733.48733,0,0,0-.68172,0C12.77925,22.13485,10.5,23.35359,10.5,24.83189a1.35934,1.35934,0,0,0,.5,1.17065l3,.05391,3-.05391a1.35934,1.35934,0,0,0,.5-1.17065C17.5,23.35359,15.22075,22.13485,14.34086,21.29026Z"/><path fill="#64717c" d="M4,25.5a.49971.49971,0,0,1-.5-.5V23.5a.5.5,0,0,1,1,0V25A.49971.49971,0,0,1,4,25.5Z"/><path fill="#64717c" d="M44,25.5a.49971.49971,0,0,1-.5-.5V23.5a.5.5,0,0,1,1,0V25A.49971.49971,0,0,1,44,25.5Z"/><path fill="#64717c" d="M24,12.75a.49971.49971,0,0,1-.5-.5V10.5a.5.5,0,0,1,1,0v1.75A.49971.49971,0,0,1,24,12.75Z"/><polygon fill="#abc1c9" points="6 42 2 42 3 27 5 27 6 42"/><polygon fill="#abc1c9" points="46 42 42 42 43 27 45 27 46 42"/><path fill="url(#NUT1euBKwu6BOcu~6TTcMc)" d="M10,29.5H38a2,2,0,0,1,2,2V42a0,0,0,0,1,0,0H8a0,0,0,0,1,0,0V31.5A2,2,0,0,1,10,29.5Z"/><rect width="14" height="18" x="17" y="24" fill="url(#NUT1euBKwu6BOcu~6TTcMd)"/><path fill="url(#NUT1euBKwu6BOcu~6TTcMe)" d="M24.39158,11.85943a.49716.49716,0,0,0-.78316,0C22.0018,13.83945,16,16.66922,16,21a3.788,3.788,0,0,0,1,3H31a3.788,3.788,0,0,0,1-3C32,16.66922,25.9982,13.83945,24.39158,11.85943Z"/><path fill="#64717c" d="M24,31c-1,1-4,1-4,4v7h8V35C28,32,25,32,24,31Z"/><path fill="#64717c" d="M14.5,37.875c-.375.375-1.5.375-1.5,1.5V42h3V39.375C16,38.25,14.875,38.25,14.5,37.875Z"/><path fill="#64717c" d="M14.5,31.875c-.375.375-1.5.375-1.5,1.5V36h3V33.375C16,32.25,14.875,32.25,14.5,31.875Z"/><path fill="#64717c" d="M10,37.875c-.25.375-1,.375-1,1.5V42h2V39.375C11,38.25,10.25,38.25,10,37.875Z"/><path fill="#64717c" d="M10,31.875c-.25.375-1,.375-1,1.5V36h2V33.375C11,32.25,10.25,32.25,10,31.875Z"/><path fill="#64717c" d="M33.5,37.875c.375.375,1.5.375,1.5,1.5V42H32V39.375C32,38.25,33.125,38.25,33.5,37.875Z"/><path fill="#64717c" d="M33.5,31.875c.375.375,1.5.375,1.5,1.5V36H32V33.375C32,32.25,33.125,32.25,33.5,31.875Z"/><path fill="#64717c" d="M38,37.875c.25.375,1,.375,1,1.5V42H37V39.375C37,38.25,37.75,38.25,38,37.875Z"/><path fill="#64717c" d="M38,31.875c.25.375,1,.375,1,1.5V36H37V33.375C37,32.25,37.75,32.25,38,31.875Z"/><rect width="16" height="2" x="16" y="23.25" fill="#abc1c9" rx="1"/><path fill="url(#NUT1euBKwu6BOcu~6TTcMf)" d="M4,24H4a1,1,0,0,1,1,1v2a0,0,0,0,1,0,0H3a0,0,0,0,1,0,0V25A1,1,0,0,1,4,24Z"/><path fill="url(#NUT1euBKwu6BOcu~6TTcMg)" d="M44,24h0a1,1,0,0,1,1,1v2a0,0,0,0,1,0,0H43a0,0,0,0,1,0,0V25A1,1,0,0,1,44,24Z"/></svg>