<svg xmlns="http://www.w3.org/2000/svg" viewBox="0 0 48 48"><linearGradient id="dXw_xG2lf04~NLgqCRxDka" x1="18.459" x2="29.696" y1="-22.531" y2="-33.768" gradientTransform="matrix(1 0 0 -1 0 -18)" gradientUnits="userSpaceOnUse"><stop offset="0" stop-color="#fede00"/><stop offset="1" stop-color="#ffd000"/></linearGradient><path fill="url(#dXw_xG2lf04~NLgqCRxDka)" d="M19.855,17h8.289c2.353-1.411,3.932-3.98,3.932-6.923C32.077,5.616,28.461,2,24,2 s-8.077,3.616-8.077,8.077C15.923,13.02,17.503,15.589,19.855,17z"/><circle cx="24" cy="10.077" r="6.077" fill="#f5be00"/><rect width="28" height="27" x="10" y="14" fill="#50e6ff"/><path fill="#0078d4" d="M38.174,16H9.826C8.817,16,8,15.183,8,14.174v-1.349C8,11.817,8.817,11,9.826,11h28.349	C39.183,11,40,11.817,40,12.826v1.349C40,15.183,39.183,16,38.174,16z"/><path fill="#0078d4" d="M38.174,44H9.826C8.817,44,8,43.183,8,42.174v-1.349C8,39.817,8.817,39,9.826,39h28.349	C39.183,39,40,39.817,40,40.826v1.349C40,43.183,39.183,44,38.174,44z"/><path d="M24,35.97c-0.521,0-1.011-0.203-1.381-0.573l-5.992-5.992C16.564,29.344,15,27.799,15,26.031	c0-1.326,0.519-2.578,1.462-3.525c0.947-0.951,2.204-1.476,3.538-1.476c1.702,0,3.141,0.92,4,1.632c0.859-0.712,2.298-1.632,4-1.632	c2.757,0,5,2.243,5,5.001c0,1.724-1.465,3.215-1.632,3.379l-5.986,5.986C25.011,35.767,24.521,35.97,24,35.97z" opacity=".05"/><path d="M24,35.47c-0.388,0-0.753-0.152-1.028-0.427l-5.992-5.992c-0.058-0.057-1.48-1.476-1.48-3.02	c0-1.192,0.467-2.319,1.316-3.173C17.669,22.002,18.8,21.53,20,21.53c1.809,0,3.326,1.176,4,1.796c0.674-0.62,2.191-1.796,4-1.796	c2.481,0,4.5,2.02,4.5,4.501c0,1.545-1.422,2.963-1.483,3.022l-5.989,5.989C24.753,35.317,24.388,35.47,24,35.47z" opacity=".07"/><linearGradient id="dXw_xG2lf04~NLgqCRxDkb" x1="20.929" x2="28.29" y1="87.122" y2="98.457" gradientTransform="translate(0 -66)" gradientUnits="userSpaceOnUse"><stop offset="0" stop-color="#f44f5a"/><stop offset=".443" stop-color="#ee3d4a"/><stop offset="1" stop-color="#e52030"/></linearGradient><path fill="url(#dXw_xG2lf04~NLgqCRxDkb)" d="M24,24.031c0,0,1.791-2,4-2s4,1.815,4,4c0,1.354-1.334,2.667-1.334,2.667l-5.991,5.992	c-0.373,0.373-0.977,0.373-1.35,0l-5.991-5.992c0,0-1.334-1.313-1.334-2.667c-0.001-2.185,1.79-4,3.999-4S24,24.031,24,24.031z"/><path d="M31.991,11c0.019-0.167,0.049-0.33,0.058-0.5H15.951c0.009,0.17,0.039,0.333,0.058,0.5H31.991z" opacity=".07"/><path d="M32.015,11c0.035-0.304,0.062-0.61,0.062-0.923c0-0.026-0.004-0.051-0.004-0.077H15.927	c0,0.026-0.004,0.051-0.004,0.077c0,0.313,0.027,0.619,0.062,0.923H32.015z" opacity=".05"/></svg>