<svg xmlns="http://www.w3.org/2000/svg" baseProfile="basic" viewBox="0 0 48 48"><path fill="#2684ff" d="M40.65,19.652C40.65,10.456,33.194,3,23.998,3C15.801,2.988,8.815,8.946,7.533,17.042	S11.201,32.962,19,35.485v8.344C19,44.476,19.524,45,20.171,45h7.658C28.476,45,29,44.476,29,43.829v-8.338	C35.879,33.276,40.642,26.879,40.65,19.652z M23.998,25.279c-3.109,0-5.63-2.521-5.63-5.63s2.521-5.63,5.63-5.63	s5.63,2.521,5.63,5.63S27.107,25.279,23.998,25.279z"/><linearGradient id="lgQxOMjijNeFEHZ9gijeza" x1="32.213" x2="32.213" y1="35.497" y2="3" gradientUnits="userSpaceOnUse"><stop offset="0" stop-color="#0052cc"/><stop offset=".044" stop-color="#0255cf"/><stop offset=".464" stop-color="#1c77f2"/><stop offset=".732" stop-color="#2684ff"/></linearGradient><path fill="url(#lgQxOMjijNeFEHZ9gijeza)" d="M23.875,3v11.026c3.109,0,5.63,2.521,5.63,5.63s-2.521,5.63-5.63,5.63	c1.365,0,2.674,0.542,3.639,1.507c0.965,0.965,1.507,2.274,1.507,3.639v5.065c7.802-2.523,12.606-10.35,11.323-18.449	C39.062,8.949,32.075,2.989,23.875,3z"/><path d="M26.239,24.813c-0.249,0.108-0.508,0.195-0.774,0.267c-0.469,0.126-0.959,0.2-1.468,0.2	c-0.001,0-0.002,0-0.003,0c-0.04,0.001-0.079,0.006-0.119,0.006c1.365,0,2.674,0.542,3.639,1.507s1.507,2.274,1.507,3.639v5.051	c0.163-0.053,0.318-0.118,0.478-0.175c0.167-0.06,0.335-0.119,0.5-0.183v-4.749C30,27.858,28.441,25.702,26.239,24.813z" opacity=".05"/><path d="M25.466,25.079c-0.469,0.126-0.959,0.2-1.468,0.2c-0.001,0-0.002,0-0.003,0	c-0.04,0.001-0.079,0.006-0.119,0.006c1.365,0,2.674,0.542,3.639,1.507s1.507,2.274,1.507,3.639v5.051	c0.163-0.053,0.318-0.118,0.478-0.175v-4.933C29.5,27.85,27.788,25.723,25.466,25.079z" opacity=".07"/></svg>