<svg xmlns="http://www.w3.org/2000/svg" viewBox="0 0 48 48"><path fill="#64717c" d="M20,26H6c-0.552,0-1-0.447-1-1s0.448-1,1-1h14c0.552,0,1,0.447,1,1S20.552,26,20,26z"/><path fill="#64717c" d="M21.001,23c-0.329,0-0.651-0.162-0.842-0.459l-9-14c-0.298-0.465-0.164-1.084,0.301-1.382	c0.463-0.302,1.083-0.164,1.382,0.3l9,14c0.298,0.465,0.164,1.084-0.301,1.382C21.374,22.949,21.186,23,21.001,23z"/><circle cx="12" cy="8" r="3" fill="#e36001"/><circle cx="6" cy="25" r="3" fill="#e36001"/><path fill="#64717c" d="M42,26H28c-0.552,0-1-0.447-1-1s0.448-1,1-1h14c0.552,0,1,0.447,1,1S42.552,26,42,26z"/><path fill="#64717c" d="M26.999,23c-0.185,0-0.373-0.051-0.54-0.159c-0.465-0.298-0.599-0.917-0.301-1.382l9-14	c0.299-0.464,0.917-0.602,1.382-0.3c0.465,0.298,0.599,0.917,0.301,1.382l-9,14C27.65,22.838,27.328,23,26.999,23z"/><linearGradient id="vGR1Xxw45ky_pKC99Xaj5a" x1="21.688" x2="24.693" y1="33.233" y2="43.571" gradientUnits="userSpaceOnUse"><stop offset="0" stop-color="#33bef0"/><stop offset="1" stop-color="#0a85d9"/></linearGradient><path fill="url(#vGR1Xxw45ky_pKC99Xaj5a)" d="M24,33.571c-6.075,0-11,3.579-11,7.268V42c0,0.552,0.448,1,1,1h20c0.552,0,1-0.448,1-1v-1.161	C35,37.151,30.075,33.571,24,33.571z"/><path fill="#d6a121" d="M27,35.6c0,1.138-1.2,2.4-3,2.4s-3-1.262-3-2.4c0-1.582,0-4.221,0-4.221h6	C27,31.379,27,34.018,27,35.6z"/><linearGradient id="vGR1Xxw45ky_pKC99Xaj5b" x1="29.548" x2="30.771" y1="27.5" y2="27.5" gradientUnits="userSpaceOnUse"><stop offset="0" stop-color="#c48f0c"/><stop offset=".251" stop-color="#d19b16"/><stop offset=".619" stop-color="#dca51f"/><stop offset="1" stop-color="#e0a922"/></linearGradient><path fill="url(#vGR1Xxw45ky_pKC99Xaj5b)" d="M29.944,26h-0.88v3h0.997c0.343,0,0.636-0.234,0.694-0.555l0.23-1.277	C31.094,26.557,30.598,26,29.944,26z"/><linearGradient id="vGR1Xxw45ky_pKC99Xaj5c" x1="-376.941" x2="-375.718" y1="27.5" y2="27.5" gradientTransform="matrix(-1 0 0 1 -358.49 0)" gradientUnits="userSpaceOnUse"><stop offset="0" stop-color="#c48f0c"/><stop offset=".251" stop-color="#d19b16"/><stop offset=".619" stop-color="#dca51f"/><stop offset="1" stop-color="#e0a922"/></linearGradient><path fill="url(#vGR1Xxw45ky_pKC99Xaj5c)" d="M18.056,26h0.88v3h-0.997c-0.343,0-0.636-0.234-0.694-0.555l-0.23-1.277	C16.906,26.557,17.402,26,18.056,26z"/><radialGradient id="vGR1Xxw45ky_pKC99Xaj5d" cx="6.717" cy="53.023" r="7.503" gradientTransform="matrix(.92 0 0 .92 17.82 -22.48)" gradientUnits="userSpaceOnUse"><stop offset="0" stop-color="#ffcf54"/><stop offset=".261" stop-color="#fdcb4d"/><stop offset=".639" stop-color="#f7c13a"/><stop offset="1" stop-color="#f0b421"/></radialGradient><path fill="url(#vGR1Xxw45ky_pKC99Xaj5d)" d="M24,18.6c-2.961,0-6,0.45-6,6.85c0,0.512,0,2.918,0,3.465C18,31.2,21.6,34,24,34	s6-2.8,6-5.085c0-0.547,0-2.953,0-3.465C30,19.05,26.961,18.6,24,18.6z"/><radialGradient id="vGR1Xxw45ky_pKC99Xaj5e" cx="-39.417" cy="62.599" r="21.807" gradientTransform="translate(51.252 -34.94) scale(.8433)" gradientUnits="userSpaceOnUse"><stop offset="0" stop-color="#c26715"/><stop offset=".508" stop-color="#b85515"/><stop offset="1" stop-color="#ad3f16"/></radialGradient><path fill="url(#vGR1Xxw45ky_pKC99Xaj5e)" d="M24,17c-2.194,0-3,1-3,1c-1.647,0-4,1.73-4,5c0,1.192,0.176,2.529,1,5	c0.393-4.717,1.444-6.706,2.706-6.706C21.052,21.294,21.795,22,24,22c1.659,0,2.042-0.706,3.294-0.706	C29.456,21.294,30,27.256,30,28c0.824-2.471,1-3.959,1-5C31,19.702,28.474,17,24,17z"/><radialGradient id="vGR1Xxw45ky_pKC99Xaj5f" cx="-40.528" cy="21.589" r="22.414" gradientTransform="matrix(.8198 0 0 1.0222 56.538 -2.26)" gradientUnits="userSpaceOnUse"><stop offset="0" stop-color="#c26715"/><stop offset=".508" stop-color="#b85515"/><stop offset="1" stop-color="#ad3f16"/></radialGradient><path fill="url(#vGR1Xxw45ky_pKC99Xaj5f)" d="M24.04,17C21.806,17,21,17.706,21,18s0,2,0,2s-0.032,2,3,2c1.831,0,4.779-1.362,4.779-5	C28.779,17,28.19,17,24.04,17z"/><circle cx="36" cy="8" r="3" fill="#e36001"/><circle cx="42" cy="25" r="3" fill="#e36001"/></svg>