<svg xmlns="http://www.w3.org/2000/svg" viewBox="0 0 48 48"><linearGradient id="JR0OfxgcZ8yY8auy1Xivfa" x1="18.328" x2="30.425" y1="10.502" y2="43.74" gradientUnits="userSpaceOnUse"><stop offset="0" stop-color="#a1aab3"/><stop offset="1" stop-color="#8f979e"/></linearGradient><path fill="url(#JR0OfxgcZ8yY8auy1Xivfa)" d="M26.5,44c-4,0-9.236-3.736-11.5-6c-1-1-1-3.5-1-4.5c-1,0.5-2.5,0-3-1s0-1.5-0.5-2.5	c-0.806-1.612-3.5-5-1-6S15,13,17,11s15-1.5,16.5,0S37,19.5,37,22c0,1-0.5,2-0.5,3c0,1.5,0.5,4.5,0.5,6s-1,4.5-1.5,5.5	S33,39.5,32,41C31.38,41.93,30,44,26.5,44z"/><linearGradient id="JR0OfxgcZ8yY8auy1Xivfb" x1="18.007" x2="25.03" y1="1.509" y2="20.805" gradientUnits="userSpaceOnUse"><stop offset="0" stop-color="#6d6d6d"/><stop offset=".126" stop-color="#626262"/><stop offset=".886" stop-color="#464646"/><stop offset="1" stop-color="#454545"/></linearGradient><path fill="url(#JR0OfxgcZ8yY8auy1Xivfb)" d="M14,28c-1,0-2-4-4.5-4c-1-3.5-2-7-2-8	s2-5.5,2.5-6.5S18,3,20,3s3.5-0.5,4.5-0.5s2.5,1,3.5,1s3,0.5,3.5,1c1.5,0,2,0.5,2.5,1c1.5,0,2,1.5,2,2C37.5,8,38.5,12,38.5,13	s0,9.5-1.5,10s0.337-7.081-4.5-9.5c-2-1-3.106-0.447-4,0C27.5,14,25,14,24,13c0,1,0.5,2,1,2.5c-1,0.5-3,0-4-1.5c-0.5,2.5,1,4.5,2,5	c-1,0-3-1-4-2.5c0,1,0.5,2.5,1.5,3c-1.5,0-2.5-1-3-1.5c0,2-1.765,4.163-2.5,6C14,26.5,14.564,28,14,28z"/><path fill="#343434" d="M28.5,37c-0.762,0-1.602-0.225-2.491-0.463C25.024,36.272,24.006,36,23,36	c-0.276,0-0.5-0.224-0.5-0.5S22.724,35,23,35c1.138,0,2.27,0.304,3.268,0.57C27.092,35.792,27.87,36,28.5,36	c0.419,0,1.142-0.241,1.842-0.475C31.153,35.255,31.919,35,32.5,35c0.276,0,0.5,0.224,0.5,0.5S32.776,36,32.5,36	c-0.419,0-1.142,0.241-1.842,0.475C29.847,36.745,29.081,37,28.5,37z"/><path fill="#343434" d="M28,39c-0.276,0-0.5-0.224-0.5-0.5S27.724,38,28,38c0.028-0.001,0.821-0.028,1.646-0.854	c0.195-0.195,0.512-0.195,0.707,0s0.195,0.512,0,0.707C29.22,38.987,28.049,39,28,39z"/><path fill="#343434" d="M29.284,33.841c-0.901,0-1.773-0.623-2.138-0.987c-0.076-0.076-0.417-0.114-0.622-0.137	C25.992,32.658,25,32.548,25,31.5c0-1.313,0.754-2,1.5-2c0.276,0,0.5,0.224,0.5,0.5s-0.224,0.5-0.5,0.5c-0.242,0-0.5,0.351-0.5,1	c0,0.102,0,0.152,0.635,0.223c0.419,0.047,0.894,0.1,1.218,0.424c0.326,0.325,1.052,0.777,1.565,0.684	c0.261-0.042,0.469-0.224,0.634-0.554c0.22-0.439,0.592-0.733,0.92-0.992c0.188-0.148,0.473-0.373,0.479-0.479	c0.003-0.051-0.058-0.204-0.306-0.451C30.612,29.819,29.5,28.707,29.5,27.5c0-0.276,0.224-0.5,0.5-0.5s0.5,0.224,0.5,0.5	c0,0.793,0.914,1.707,1.354,2.146c0.425,0.425,0.62,0.822,0.597,1.217c-0.032,0.555-0.471,0.9-0.858,1.206	c-0.258,0.203-0.524,0.414-0.645,0.654c-0.392,0.784-0.96,1.027-1.368,1.094C29.481,33.834,29.382,33.841,29.284,33.841z"/><path fill="#343434" d="M30,26c-0.276,0-0.5-0.224-0.5-0.5c0-0.935,0.474-3.5,2-3.5c0.685,0,1.176,0.203,1.535,0.352	c0.192,0.08,0.358,0.148,0.465,0.148H35c0.559,0,0.802,0.486,0.947,0.776c0.044,0.088,0.111,0.222,0.147,0.256	c0.276,0,0.453,0.208,0.453,0.483c0,0.276-0.271,0.484-0.547,0.484c-0.559,0-0.802-0.486-0.947-0.776	c-0.044-0.088-0.111-0.222-0.147-0.256L33.5,23.5c-0.307,0-0.57-0.109-0.848-0.225C32.325,23.14,31.986,23,31.5,23	c-0.483,0-1,1.468-1,2.5C30.5,25.776,30.276,26,30,26z"/><path fill="#343434" d="M19,25c-0.128,0-0.256-0.049-0.354-0.146c-0.195-0.195-0.195-0.512,0-0.707	C20.583,22.209,24.435,22,26,22c0.276,0,0.5,0.224,0.5,0.5S26.276,23,26,23c-3.001,0-5.486,0.693-6.646,1.854	C19.256,24.951,19.128,25,19,25z"/><path fill="#343434" d="M12.628,31.837c-0.043,0-0.087-0.003-0.131-0.009c-0.287-0.038-0.574-0.197-0.851-0.475	c-0.195-0.195-0.195-0.512,0-0.707s0.512-0.195,0.707,0c0.181,0.181,0.274,0.189,0.275,0.189c-0.005-0.006,0.053-0.089,0.065-0.234	c0.011-0.127-0.021-0.222-0.047-0.248c-0.75-0.75-1.006-1.518-1.232-2.195c-0.108-0.325-0.211-0.633-0.362-0.935	c-0.217-0.435-0.386-0.61-0.471-0.679C10.543,26.626,10.5,26.78,10.5,27c0,0.276-0.224,0.5-0.5,0.5S9.5,27.276,9.5,27	c0-0.771,0.333-1.349,0.847-1.47c0.4-0.094,1,0.046,1.601,1.246c0.183,0.365,0.301,0.722,0.416,1.065	c0.218,0.655,0.407,1.222,0.99,1.805c0.47,0.47,0.451,1.411-0.038,1.899C13.126,31.735,12.886,31.837,12.628,31.837z"/><path fill="#343434" d="M11.5,27.5c-0.5,0-1.266,2.5,1,2.5C12,28.75,11.5,27.5,11.5,27.5z"/><path fill="#343434" d="M23.999,32.513c-0.276,0-0.499-0.236-0.499-0.513c0-0.866,1.315-1.5,2-1.5c0.276,0,0.5,0.224,0.5,0.5	s-0.224,0.5-0.5,0.5c-0.321,0-0.941,0.35-1.003,0.525C24.497,32.302,24.274,32.513,23.999,32.513z"/><path fill="#343434" d="M33,33c-0.184,0-0.36-0.102-0.448-0.276C32.55,32.719,32.171,32,31.5,32c-0.276,0-0.5-0.224-0.5-0.5	s0.224-0.5,0.5-0.5c1.294,0,1.921,1.225,1.947,1.276c0.124,0.247,0.023,0.547-0.224,0.671C33.152,32.983,33.076,33,33,33z"/><path fill="#343434" d="M19.5,26c1-1.5,4-3.5,6.5-1c-0.5,0.5-1,0.5-1,0.5C24.5,25,22,24,20,26C19.5,26,19.5,26,19.5,26z"/><path fill="#343434" d="M22.5,26C22,26,21,25.5,21,25c0.5-0.5,2.5-0.5,3-0.5C24.5,25,23.5,26,22.5,26z"/><path fill="#343434" d="M30.5,24.5c0.5-1,3-1,4,0.5C34,25,34,25,34,25s-3-1.5-3,0.5c0,0.5,0.5,1,0.5,1c-0.5,0-0.5,0-0.5,0	C30.5,26,30.184,25.132,30.5,24.5z"/><path fill="#343434" d="M31,25c0,0.5,0.5,1,1.5,1c0.5,0,1-0.5,1-1.5C32.5,24,31.5,24,31,25z"/></svg>