<svg xmlns="http://www.w3.org/2000/svg" viewBox="0 0 48 48"><path fill="#007ad9" d="M41.838,39.222L28.169,6.702c-0.206-0.495-0.743-0.777-1.262-0.672C26.382,6.135,26,6.6,26,7.136V40	c0,1.103,0.897,2,2,2h11.992c0.672,0,1.295-0.334,1.667-0.894C42.031,40.546,42.099,39.842,41.838,39.222z"/><linearGradient id="NmNIK13D9o9FUYLfN4p65a" x1="13.997" x2="13.997" y1="6.048" y2="42.168" gradientUnits="userSpaceOnUse"><stop offset="0" stop-color="#32bdef"/><stop offset="1" stop-color="#1ea2e4"/></linearGradient><path fill="url(#NmNIK13D9o9FUYLfN4p65a)" d="M6.157,39.222L19.826,6.702c0.206-0.495,0.743-0.777,1.262-0.672	c0.525,0.105,0.907,0.57,0.907,1.106V40c0,1.103-0.897,2-2,2H8.003c-0.672,0-1.295-0.334-1.667-0.894	C5.964,40.546,5.896,39.842,6.157,39.222z"/></svg>