<svg xmlns="http://www.w3.org/2000/svg" viewBox="0 0 48 48"><linearGradient id="_sIqTFdaIVxysORnDETtea" x1="6.538" x2="46.683" y1="6.538" y2="46.683" gradientUnits="userSpaceOnUse"><stop offset="0" stop-color="#a8e2f7"/><stop offset="1" stop-color="#47c1ff"/></linearGradient><circle cx="24" cy="24" r="20" fill="url(#_sIqTFdaIVxysORnDETtea)"/><linearGradient id="_sIqTFdaIVxysORnDETteb" x1="6.538" x2="46.683" y1="6.538" y2="46.683" gradientUnits="userSpaceOnUse"><stop offset="0" stop-color="#32bdef"/><stop offset="1" stop-color="#1ea2e4"/></linearGradient><circle cx="24" cy="24" r="16.983" fill="url(#_sIqTFdaIVxysORnDETteb)"/><linearGradient id="_sIqTFdaIVxysORnDETtec" x1="37.935" x2="19.935" y1="16.914" y2="45.678" gradientUnits="userSpaceOnUse"><stop offset="0" stop-color="#fed100"/><stop offset="1" stop-color="#e38101"/></linearGradient><path fill="url(#_sIqTFdaIVxysORnDETtec)" d="M26.05,23.05C29,19,35.266,18.266,38,21c2,2,0,9-2.05,11.95C33.528,36.434,29,39.25,26,38	C22.431,36.513,23.552,26.48,26.05,23.05z"/><linearGradient id="_sIqTFdaIVxysORnDETted" x1="16" x2="16" y1="26.015" y2="38.063" gradientUnits="userSpaceOnUse"><stop offset="0" stop-color="#c2c8cc"/><stop offset=".369" stop-color="#dde0e2"/><stop offset=".749" stop-color="#f1f2f3"/><stop offset="1" stop-color="#f9f9f9"/></linearGradient><path fill="url(#_sIqTFdaIVxysORnDETted)" d="M17.5,32c-0.176,0-0.343,0.036-0.5,0.092V25.25h-2v6.842C14.843,32.036,14.676,32,14.5,32	c-0.828,0-1.5,0.672-1.5,1.5s0.672,1.5,1.5,1.5s1.5-0.672,1.5-1.5c0,0.828,0.672,1.5,1.5,1.5s1.5-0.672,1.5-1.5S18.328,32,17.5,32z"/><linearGradient id="_sIqTFdaIVxysORnDETtee" x1="16" x2="16" y1="8.853" y2="32.85" gradientUnits="userSpaceOnUse"><stop offset="0" stop-color="#a34f27"/><stop offset=".587" stop-color="#8b3817"/><stop offset="1" stop-color="#802d10"/></linearGradient><path fill="url(#_sIqTFdaIVxysORnDETtee)" d="M16,13L16,13c2.98,0,5.298,2.473,4.969,5.301l-0.834,7.165C19.901,27.478,18.12,29,16,29h0	c-2.12,0-3.901-1.522-4.135-3.534l-0.834-7.165C10.702,15.473,13.02,13,16,13z"/><linearGradient id="_sIqTFdaIVxysORnDETtef" x1="14.515" x2="29.171" y1="2.485" y2="17.141" gradientUnits="userSpaceOnUse"><stop offset="0" stop-color="#9dffce"/><stop offset="1" stop-color="#50d18d"/></linearGradient><path fill="url(#_sIqTFdaIVxysORnDETtef)" d="M23,11c-0.552,0-1-0.448-1-1s0.448-1,1-1s1,0.448,1,1S23.552,11,23,11z M21,12	c0-0.552-0.448-1-1-1s-1,0.448-1,1s0.448,1,1,1S21,12.552,21,12z M25,14c0-0.552-0.448-1-1-1s-1,0.448-1,1s0.448,1,1,1	S25,14.552,25,14z M27,17c0-0.552-0.448-1-1-1s-1,0.448-1,1s0.448,1,1,1S27,17.552,27,17z M29,14c0-0.552-0.448-1-1-1s-1,0.448-1,1	s0.448,1,1,1S29,14.552,29,14z M25,19.941c0-0.552-0.448-1-1-1s-1,0.448-1,1c0,0.552,0.448,1,1,1S25,20.493,25,19.941z M33,15	c0-0.552-0.448-1-1-1s-1,0.448-1,1s0.448,1,1,1S33,15.552,33,15z M28,10c0-0.552-0.448-1-1-1s-1,0.448-1,1s0.448,1,1,1	S28,10.552,28,10z M32,11c0-0.552-0.448-1-1-1s-1,0.448-1,1s0.448,1,1,1S32,11.552,32,11z M36,17c0-0.552-0.448-1-1-1s-1,0.448-1,1	s0.448,1,1,1S36,17.552,36,17z"/><g opacity=".05"><path d="M33.494,19.374c1.773,0,3.419,0.539,4.506,1.626c2,2,0,9-2.05,11.95c-2.022,2.909-5.512,5.352-8.355,5.352 c-0.562,0-1.099-0.096-1.595-0.302c-3.569-1.487-2.448-11.52,0.05-14.95C27.827,20.61,30.807,19.374,33.494,19.374 M33.494,18.374 c-3.254,0-6.416,1.566-8.252,4.087c-2.11,2.897-3.144,9.442-2.087,13.212c0.468,1.671,1.296,2.764,2.461,3.249 c0.603,0.251,1.269,0.379,1.979,0.379c3.544,0,7.241-2.997,9.176-5.781c2.184-3.142,4.452-10.712,1.936-13.228 C37.47,19.056,35.618,18.374,33.494,18.374L33.494,18.374z"/><path d="M16,13c2.98,0,5.298,2.473,4.969,5.301l-0.834,7.165c-0.196,1.683-1.48,3.011-3.135,3.403v3.222 C17.157,32.036,17.324,32,17.5,32c0.828,0,1.5,0.672,1.5,1.5S18.328,35,17.5,35S16,34.328,16,33.5c0,0.828-0.672,1.5-1.5,1.5 S13,34.328,13,33.5s0.672-1.5,1.5-1.5c0.176,0,0.343,0.036,0.5,0.092V28.87c-1.655-0.393-2.939-1.72-3.135-3.403l-0.834-7.165 C10.702,15.473,13.02,13,16,13 M16,12c-1.754,0-3.415,0.735-4.557,2.017c-1.094,1.228-1.593,2.79-1.406,4.399l0.834,7.165 c0.208,1.792,1.429,3.324,3.128,4.015v1.453c-1.14,0.232-2,1.242-2,2.45c0,1.379,1.121,2.5,2.5,2.5c0.562,0,1.082-0.187,1.5-0.501 C16.418,35.813,16.938,36,17.5,36c1.379,0,2.5-1.121,2.5-2.5c0-1.207-0.86-2.217-2-2.45v-1.453 c1.699-0.691,2.92-2.223,3.128-4.015l0.834-7.165c0.187-1.608-0.312-3.171-1.406-4.399C19.415,12.735,17.754,12,16,12L16,12z"/><path d="M28,13c0.552,0,1,0.448,1,1c0,0.552-0.448,1-1,1s-1-0.448-1-1C27,13.448,27.448,13,28,13 M28,12c-1.103,0-2,0.897-2,2 s0.897,2,2,2s2-0.897,2-2S29.103,12,28,12L28,12z"/><path d="M32,14c0.552,0,1,0.448,1,1c0,0.552-0.448,1-1,1s-1-0.448-1-1C31,14.448,31.448,14,32,14 M32,13c-1.103,0-2,0.897-2,2 s0.897,2,2,2s2-0.897,2-2S33.103,13,32,13L32,13z"/><path d="M27,9c0.552,0,1,0.448,1,1c0,0.552-0.448,1-1,1s-1-0.448-1-1C26,9.448,26.448,9,27,9 M27,8c-1.103,0-2,0.897-2,2 s0.897,2,2,2s2-0.897,2-2S28.103,8,27,8L27,8z"/><path d="M31,10c0.552,0,1,0.448,1,1c0,0.552-0.448,1-1,1s-1-0.448-1-1C30,10.448,30.448,10,31,10 M31,9c-1.103,0-2,0.897-2,2 s0.897,2,2,2s2-0.897,2-2S32.103,9,31,9L31,9z"/><path d="M35,16c0.552,0,1,0.448,1,1c0,0.552-0.448,1-1,1s-1-0.448-1-1C34,16.448,34.448,16,35,16 M35,15c-1.103,0-2,0.897-2,2 s0.897,2,2,2s2-0.897,2-2S36.103,15,35,15L35,15z"/><path d="M24,18.941c0.552,0,1,0.448,1,1c0,0.552-0.448,1-1,1s-1-0.448-1-1C23,19.388,23.448,18.941,24,18.941 M24,17.941 c-1.103,0-2,0.897-2,2s0.897,2,2,2s2-0.897,2-2S25.103,17.941,24,17.941L24,17.941z"/><path d="M26,16c0.552,0,1,0.448,1,1c0,0.552-0.448,1-1,1s-1-0.448-1-1C25,16.448,25.448,16,26,16 M26,15c-1.103,0-2,0.897-2,2 s0.897,2,2,2s2-0.897,2-2S27.103,15,26,15L26,15z"/><path d="M23,9c0.552,0,1,0.448,1,1c0,0.552-0.448,1-1,1s-1-0.448-1-1C22,9.448,22.448,9,23,9 M23,8c-1.103,0-2,0.897-2,2 s0.897,2,2,2s2-0.897,2-2S24.103,8,23,8L23,8z"/><path d="M24,13c0.552,0,1,0.448,1,1c0,0.552-0.448,1-1,1s-1-0.448-1-1C23,13.448,23.448,13,24,13 M24,12c-1.103,0-2,0.897-2,2 s0.897,2,2,2s2-0.897,2-2S25.103,12,24,12L24,12z"/><path d="M20,11c0.552,0,1,0.448,1,1c0,0.552-0.448,1-1,1s-1-0.448-1-1C19,11.448,19.448,11,20,11 M20,10c-1.103,0-2,0.897-2,2 s0.897,2,2,2s2-0.897,2-2S21.103,10,20,10L20,10z"/></g><g opacity=".07"><path d="M33.494,19.374c1.773,0,3.419,0.539,4.506,1.626c2,2,0,9-2.05,11.95c-2.022,2.909-5.512,5.352-8.355,5.352 c-0.562,0-1.099-0.096-1.595-0.302c-3.569-1.487-2.448-11.52,0.05-14.95C27.827,20.61,30.807,19.374,33.494,19.374 M33.494,18.874 c-3.097,0-6.104,1.487-7.848,3.882c-2.038,2.798-3.034,9.13-2.01,12.783c0.425,1.516,1.156,2.499,2.171,2.923 c0.542,0.226,1.143,0.34,1.787,0.34c3.215,0,6.843-2.8,8.766-5.567c2.047-2.945,4.296-10.286,1.993-12.589 C37.211,19.504,35.485,18.874,33.494,18.874L33.494,18.874z"/><path d="M16,13c2.98,0,5.298,2.473,4.969,5.301l-0.834,7.165c-0.196,1.683-1.48,3.011-3.135,3.403v3.222 C17.157,32.036,17.324,32,17.5,32c0.828,0,1.5,0.672,1.5,1.5S18.328,35,17.5,35S16,34.328,16,33.5c0,0.828-0.672,1.5-1.5,1.5 S13,34.328,13,33.5s0.672-1.5,1.5-1.5c0.176,0,0.343,0.036,0.5,0.092V28.87c-1.655-0.393-2.939-1.72-3.135-3.403l-0.834-7.165 C10.702,15.473,13.02,13,16,13 M16,12.5c-1.612,0-3.136,0.674-4.183,1.85c-0.997,1.12-1.453,2.544-1.282,4.009l0.834,7.165 c0.2,1.716,1.438,3.17,3.132,3.724V31.5c-1.103,0-2,0.897-2,2s0.897,2,2,2c0.597,0,1.133-0.263,1.5-0.678 c0.367,0.416,0.903,0.678,1.5,0.678c1.103,0,2-0.897,2-2s-0.897-2-2-2v-2.252c1.694-0.554,2.932-2.007,3.132-3.724l0.834-7.165 c0.17-1.465-0.285-2.888-1.282-4.009C19.136,13.174,17.612,12.5,16,12.5L16,12.5z"/><path d="M28,13c0.552,0,1,0.448,1,1c0,0.552-0.448,1-1,1s-1-0.448-1-1C27,13.448,27.448,13,28,13 M28,12.5 c-0.827,0-1.5,0.673-1.5,1.5s0.673,1.5,1.5,1.5s1.5-0.673,1.5-1.5S28.827,12.5,28,12.5L28,12.5z"/><path d="M32,14c0.552,0,1,0.448,1,1c0,0.552-0.448,1-1,1s-1-0.448-1-1C31,14.448,31.448,14,32,14 M32,13.5 c-0.827,0-1.5,0.673-1.5,1.5s0.673,1.5,1.5,1.5s1.5-0.673,1.5-1.5S32.827,13.5,32,13.5L32,13.5z"/><path d="M27,9c0.552,0,1,0.448,1,1c0,0.552-0.448,1-1,1s-1-0.448-1-1C26,9.448,26.448,9,27,9 M27,8.5c-0.827,0-1.5,0.673-1.5,1.5 s0.673,1.5,1.5,1.5s1.5-0.673,1.5-1.5S27.827,8.5,27,8.5L27,8.5z"/><path d="M31,10c0.552,0,1,0.448,1,1c0,0.552-0.448,1-1,1s-1-0.448-1-1C30,10.448,30.448,10,31,10 M31,9.5 c-0.827,0-1.5,0.673-1.5,1.5s0.673,1.5,1.5,1.5s1.5-0.673,1.5-1.5S31.827,9.5,31,9.5L31,9.5z"/><path d="M35,16c0.552,0,1,0.448,1,1c0,0.552-0.448,1-1,1s-1-0.448-1-1C34,16.448,34.448,16,35,16 M35,15.5 c-0.827,0-1.5,0.673-1.5,1.5s0.673,1.5,1.5,1.5s1.5-0.673,1.5-1.5S35.827,15.5,35,15.5L35,15.5z"/><path d="M24,18.941c0.552,0,1,0.448,1,1c0,0.552-0.448,1-1,1s-1-0.448-1-1C23,19.388,23.448,18.941,24,18.941 M24,18.441 c-0.827,0-1.5,0.673-1.5,1.5s0.673,1.5,1.5,1.5s1.5-0.673,1.5-1.5S24.827,18.441,24,18.441L24,18.441z"/><path d="M26,16c0.552,0,1,0.448,1,1c0,0.552-0.448,1-1,1s-1-0.448-1-1C25,16.448,25.448,16,26,16 M26,15.5 c-0.827,0-1.5,0.673-1.5,1.5s0.673,1.5,1.5,1.5s1.5-0.673,1.5-1.5S26.827,15.5,26,15.5L26,15.5z"/><path d="M23,9c0.552,0,1,0.448,1,1c0,0.552-0.448,1-1,1s-1-0.448-1-1C22,9.448,22.448,9,23,9 M23,8.5c-0.827,0-1.5,0.673-1.5,1.5 s0.673,1.5,1.5,1.5s1.5-0.673,1.5-1.5S23.827,8.5,23,8.5L23,8.5z"/><path d="M24,13c0.552,0,1,0.448,1,1c0,0.552-0.448,1-1,1s-1-0.448-1-1C23,13.448,23.448,13,24,13 M24,12.5 c-0.827,0-1.5,0.673-1.5,1.5s0.673,1.5,1.5,1.5s1.5-0.673,1.5-1.5S24.827,12.5,24,12.5L24,12.5z"/><path d="M20,11c0.552,0,1,0.448,1,1c0,0.552-0.448,1-1,1s-1-0.448-1-1C19,11.448,19.448,11,20,11 M20,10.5 c-0.827,0-1.5,0.673-1.5,1.5s0.673,1.5,1.5,1.5s1.5-0.673,1.5-1.5S20.827,10.5,20,10.5L20,10.5z"/></g></svg>