<svg xmlns="http://www.w3.org/2000/svg" viewBox="0 0 48 48"><linearGradient id="eYjDCyhkYu4akXWToUn6Na" x1="22.605" x2="30.144" y1="1.586" y2="44.343" gradientUnits="userSpaceOnUse"><stop offset="0" stop-color="#a235d4"/><stop offset=".441" stop-color="#a033d1"/><stop offset=".702" stop-color="#982cc9"/><stop offset=".915" stop-color="#8b21bb"/><stop offset="1" stop-color="#831bb3"/></linearGradient><path fill="url(#eYjDCyhkYu4akXWToUn6Na)" d="M39,4H9C8.448,4,8,4.448,8,5v9c0,0.552,0.448,1,1,1h1.323c0.409,0,0.777-0.249,0.928-0.629 L13,10h7v29l-4.371,1.749C15.249,40.9,15,41.268,15,41.677V43c0,0.552,0.448,1,1,1h16c0.552,0,1-0.448,1-1v-1.323 c0-0.409-0.249-0.777-0.629-0.928L28,39V10h7l1.748,4.371c0.152,0.38,0.52,0.629,0.929,0.629H39c0.552,0,1-0.448,1-1V5 C40,4.448,39.552,4,39,4z"/></svg>