<svg xmlns="http://www.w3.org/2000/svg" viewBox="0 0 48 48"><path fill="#50e6ff" d="M39,42H9c-1.657,0-3-1.343-3-3V9c0-1.657,1.343-3,3-3h30c1.657,0,3,1.343,3,3v30 C42,40.657,40.657,42,39,42z"/><linearGradient id="LKITdesdfyXSG25MT_TDia" x1="10.979" x2="18.852" y1="24.732" y2="40.92" gradientUnits="userSpaceOnUse"><stop offset="0" stop-color="#1fa3e5"/><stop offset="1" stop-color="#007ad9"/></linearGradient><path fill="url(#LKITdesdfyXSG25MT_TDia)" d="M21,42H9c-1.657,0-3-1.343-3-3V27c0-1.657,1.343-3,3-3h12c1.657,0,3,1.343,3,3v12 C24,40.657,22.657,42,21,42z"/><linearGradient id="LKITdesdfyXSG25MT_TDib" x1="35.131" x2="29.141" y1="14.325" y2="16.284" gradientTransform="rotate(180 30.802 16.572)" gradientUnits="userSpaceOnUse"><stop offset="0" stop-color="#ae4cd5"/><stop offset="1" stop-color="#ac4ad5"/></linearGradient><path fill="url(#LKITdesdfyXSG25MT_TDib)" d="M26,13.599v7.507C26,21.6,26.4,22,26.894,22h7.507c0.532,0,0.799-0.644,0.423-1.02 l-7.804-7.804C26.644,12.8,26,13.066,26,13.599z"/><linearGradient id="LKITdesdfyXSG25MT_TDic" x1="20.497" x2="15.796" y1="-19.514" y2="-17.976" gradientTransform="rotate(-134.999 32.488 -4.678)" gradientUnits="userSpaceOnUse"><stop offset="0" stop-color="#ae4cd5"/><stop offset="1" stop-color="#ac4ad5"/></linearGradient><path fill="url(#LKITdesdfyXSG25MT_TDic)" d="M35.803,10.782l1.414,1.414c0.391,0.391,0.391,1.024,0,1.414l-6.364,6.364 c-0.391,0.391-1.024,0.391-1.414,0l-1.414-1.414c-0.391-0.391-0.391-1.024,0-1.414l6.364-6.364 C34.78,10.392,35.413,10.392,35.803,10.782z"/></svg>