<svg xmlns="http://www.w3.org/2000/svg" viewBox="0 0 48 48"><linearGradient id="8yiIOfBeBFtoaCgq7erP5a" x1="24" x2="24" y1="347.138" y2="356.974" gradientTransform="matrix(1 0 0 -1 0 390)" gradientUnits="userSpaceOnUse"><stop offset="0" stop-color="#32bdef"/><stop offset="1" stop-color="#1ea2e4"/></linearGradient><path fill="url(#8yiIOfBeBFtoaCgq7erP5a)" d="M42.856,41.485l-4.8-8C37.875,33.184,37.55,33,37.198,33H10.802	c-0.351,0-0.677,0.184-0.858,0.485l-4.8,8C4.744,42.152,5.224,43,6.002,43h35.997C42.776,43,43.256,42.152,42.856,41.485z"/><path d="M25.886,37.735c0.977-0.978,1.85-1.852,2.634-2.636	S29.998,33.62,30.617,33H24h-6.617c0.619,0.62,1.314,1.315,2.097,2.099s1.657,1.658,2.634,2.636	c0.504,0.504,1.174,0.781,1.886,0.781S25.382,38.239,25.886,37.735z" opacity=".05"/><path d="M18.09,33c0.574,0.574,1.179,1.18,1.809,1.811	c0.449,0.45,0.892,0.893,1.316,1.317c0.575,0.575,1.028,1.029,1.253,1.254c0.455,0.455,1.071,0.67,1.688,0.62	c0.375-0.03,0.736-0.158,1.046-0.378c0.12-0.062,0.311-0.223,0.547-0.459c0.275-0.275,0.576-0.576,0.894-0.895	c0.477-0.478,0.967-0.968,1.458-1.46c0.63-0.631,1.235-1.236,1.809-1.81H24L18.09,33z" opacity=".07"/><linearGradient id="8yiIOfBeBFtoaCgq7erP5b" x1="13.395" x2="34.605" y1="383.608" y2="362.399" gradientTransform="matrix(1 0 0 -1 0 390)" gradientUnits="userSpaceOnUse"><stop offset="0" stop-color="#d43a02"/><stop offset="1" stop-color="#b9360c"/></linearGradient><path fill="url(#8yiIOfBeBFtoaCgq7erP5b)" d="M34.752,27.446C37.377,24.745,39,21.064,39,17c0-8.284-6.716-15-15-15S9,8.716,9,17	c0,4.064,1.623,7.745,4.248,10.446c0.015,0.015,9.573,9.582,9.573,9.582c0.651,0.651,1.706,0.651,2.357,0	C25.178,37.029,34.737,27.462,34.752,27.446z"/><path d="M23.582,9.504c-1.529,0-2.906,0.359-4.094,1.066L19,10.862v5.808l1.66-1.46	c0.365-0.321,1.348-1.069,2.57-1.069c0.59,0,0.59,0.326,0.59,0.449c0,0.499-0.288,0.8-0.994,1.418	c-0.851,0.743-2.015,1.76-2.015,3.784c0,0.659,0.173,1.292,0.276,1.563l0.233,0.613c-0.329,0.397-0.539,0.91-0.539,1.537	c0,1.64,1.396,2.524,2.709,2.524c1.332,0,2.681-0.867,2.681-2.524c0-0.612-0.188-1.115-0.491-1.506h0.816l-0.981-1.531	c0-0.001-0.088-0.156-0.088-0.385c0-0.474,0.347-0.817,1.137-1.487c1.027-0.87,2.436-2.062,2.436-4.45	C29,13.058,28.609,9.504,23.582,9.504z" opacity=".05"/><path d="M21.678,21.5l-0.123-0.322c-0.084-0.222-0.243-0.797-0.243-1.385c0-1.797,1.022-2.69,1.844-3.408	c0.723-0.632,1.165-1.056,1.165-1.794c0-0.881-0.834-0.949-1.09-0.949c-1.394,0-2.492,0.834-2.9,1.193l-0.83,0.73v-4.418L19.744,11	c1.108-0.661,2.4-0.996,3.838-0.996c4.438,0,4.918,2.897,4.918,4.143c0,2.154-1.252,3.216-2.259,4.068	c-0.814,0.69-1.313,1.15-1.313,1.869c0,0.389,0.16,0.644,0.162,0.646l0.493,0.77H21.678z" opacity=".07"/><path fill="#fff" d="M22.023,21c-0.067-0.175-0.211-0.694-0.211-1.207c0-2.923,3.009-3.035,3.009-5.202	c0-1.364-1.348-1.449-1.59-1.449c-1.532,0-2.727,0.876-3.23,1.318V11.43c0.517-0.309,1.699-0.926,3.582-0.926	c4.363,0,4.418,2.999,4.418,3.643c0,3.462-3.573,3.718-3.573,5.937c0,0.463,0.168,0.802,0.242,0.916L22.023,21z"/><path d="M23.491,25.531c-1.071,0-2.209-0.709-2.209-2.024c0-1.303,1.138-2.006,2.209-2.006	c1.05,0,2.181,0.628,2.181,2.006C25.672,24.897,24.541,25.531,23.491,25.531z" opacity=".07"/><path fill="#fff" d="M23.491,25.031c-0.831,0-1.708-0.518-1.708-1.525S22.695,22,23.491,22	c0.796,0,1.681,0.446,1.681,1.506C25.172,24.566,24.321,25.031,23.491,25.031z"/></svg>