<svg xmlns="http://www.w3.org/2000/svg" viewBox="0 0 48 48"><linearGradient id="WR5JBqHSuv~kjgqS_Cvc2a" x1="16.316" x2="28.478" y1="7.265" y2="33.752" gradientUnits="userSpaceOnUse"><stop offset="0" stop-color="#bd4ff4"/><stop offset=".587" stop-color="#a235ec"/><stop offset="1" stop-color="#8c20e5"/></linearGradient><path fill="url(#WR5JBqHSuv~kjgqS_Cvc2a)" d="M41,20H28V7c0-1.105-0.895-2-2-2h-4c-1.105,0-2,0.895-2,2v13H7c-1.105,0-2,0.895-2,2v4	c0,1.105,0.895,2,2,2h34c1.105,0,2-0.895,2-2v-4C43,20.895,42.105,20,41,20z"/><linearGradient id="WR5JBqHSuv~kjgqS_Cvc2b" x1="1287.668" x2="1276.586" y1="450.336" y2="439.254" gradientTransform="rotate(-134.999 568.002 500.004)" gradientUnits="userSpaceOnUse"><stop offset="0" stop-color="#480b7a"/><stop offset=".005" stop-color="#4b0c7d"/><stop offset=".053" stop-color="#64159d"/><stop offset=".103" stop-color="#781db5"/><stop offset=".156" stop-color="#8622c6"/><stop offset=".213" stop-color="#8e25d1"/><stop offset=".282" stop-color="#9126d4"/></linearGradient><path fill="url(#WR5JBqHSuv~kjgqS_Cvc2b)" d="M28,28h-8l0,13c0,1.105,0.895,2,2,2h4c1.105,0,2-0.895,2-2L28,28z"/></svg>