<svg xmlns="http://www.w3.org/2000/svg" width="48" height="48" viewBox="0 0 48 48"><linearGradient id="1eSDgOBD_pWHrSVjKKDOEa" x1="40.537" x2="2.204" y1="-2.747" y2="59.253" gradientUnits="userSpaceOnUse"><stop offset="0" stop-color="#ff8f00"/><stop offset=".183" stop-color="#f67609"/><stop offset=".41" stop-color="#ed5e12"/><stop offset=".62" stop-color="#e84f17"/><stop offset=".794" stop-color="#e64a19"/><stop offset=".88" stop-color="#e03d11"/><stop offset="1" stop-color="#d42400"/><stop offset="1" stop-color="#e64a19"/></linearGradient><circle cx="24" cy="24" r="20" fill="url(#1eSDgOBD_pWHrSVjKKDOEa)"/><path stroke="#000" stroke-miterlimit="10" stroke-width="2" d="M27.751,25.53	c3.206-0.539,6.073-1.049,9.04-1.828L34.989,17.5c-3.103,0.903-5.797,2.355-8.73,3.888C26.76,18.225,27.042,15.09,27,12h-6	c0.117,2.929,0.393,5.992,0.772,9.144c-2.611-1.547-5.065-2.987-7.893-3.973l-2.123,6.099c2.884,0.92,5.684,1.575,8.807,2.27	c-2.392,2.135-4.555,4.13-6.463,6.641l5.145,3.904c1.784-2.483,3.154-5.066,4.766-7.881c1.527,2.867,2.957,5.292,4.622,7.885	l5.342-3.629C32.2,29.853,30.051,27.779,27.751,25.53z" opacity=".05"/><path stroke="#000" stroke-miterlimit="10" d="M27.751,25.53c3.206-0.539,6.073-1.049,9.04-1.828L34.989,17.5	c-3.103,0.903-5.797,2.355-8.73,3.888C26.76,18.225,27.042,15.09,27,12h-6c0.117,2.929,0.393,5.992,0.772,9.144	c-2.611-1.547-5.065-2.987-7.893-3.973l-2.123,6.099c2.884,0.92,5.684,1.575,8.807,2.27c-2.392,2.135-4.555,4.13-6.463,6.641	l5.145,3.904c1.784-2.483,3.154-5.066,4.766-7.881c1.527,2.867,2.957,5.292,4.622,7.885l5.342-3.629	C32.2,29.853,30.051,27.779,27.751,25.53z" opacity=".07"/><path fill="#fff" d="M27.751,25.53c3.206-0.539,6.073-1.049,9.04-1.828L34.989,17.5c-3.103,0.903-5.797,2.355-8.73,3.888	C26.76,18.225,27.042,15.09,27,12h-6c0.117,2.929,0.393,5.992,0.772,9.144c-2.611-1.547-5.065-2.987-7.893-3.973l-2.123,6.099	c2.884,0.92,5.684,1.575,8.807,2.27c-2.392,2.135-4.555,4.13-6.463,6.641l5.145,3.904c1.784-2.483,3.154-5.066,4.766-7.881	c1.527,2.867,2.957,5.292,4.622,7.885l5.342-3.629C32.2,29.853,30.051,27.779,27.751,25.53z"/></svg>