<svg xmlns="http://www.w3.org/2000/svg" viewBox="0 0 48 48"><linearGradient id="CH~YMSwa636yT641ik8uia" x1="14.786" x2="33.076" y1="-593.187" y2="-611.477" gradientTransform="matrix(1 0 0 -1 0 -562)" gradientUnits="userSpaceOnUse"><stop offset="0" stop-color="#33bef0"/><stop offset="1" stop-color="#0a85d9"/></linearGradient><path fill="url(#CH~YMSwa636yT641ik8uia)" d="M24,30.571c-8.837,0-16,4.921-16,10.286V42c0,1.105,0.895,2,2,2h28c1.105,0,2-0.895,2-2	v-1.143C40,35.492,32.837,30.571,24,30.571z"/><path fill="#d6a121" d="M29,33c0,1.897-2.83,4-5,4s-5-2.103-5-4c0-2.637,0-7.035,0-7.035h10C29,25.965,29,30.363,29,33z"/><linearGradient id="CH~YMSwa636yT641ik8uib" x1="32.917" x2="34.251" y1="-582" y2="-582" gradientTransform="matrix(1 0 0 -1 0 -562)" gradientUnits="userSpaceOnUse"><stop offset="0" stop-color="#c48f0c"/><stop offset=".251" stop-color="#d19b16"/><stop offset=".619" stop-color="#dca51f"/><stop offset="1" stop-color="#e0a922"/></linearGradient><path fill="url(#CH~YMSwa636yT641ik8uib)" d="M32.916,18h-0.527v4h0.703c0.515,0,0.954-0.312,1.041-0.74l0.344-1.703	C34.642,18.743,33.897,18,32.916,18z"/><linearGradient id="CH~YMSwa636yT641ik8uic" x1="-2417.083" x2="-2415.749" y1="-582" y2="-582" gradientTransform="rotate(180 -1201 -281)" gradientUnits="userSpaceOnUse"><stop offset="0" stop-color="#c48f0c"/><stop offset=".251" stop-color="#d19b16"/><stop offset=".619" stop-color="#dca51f"/><stop offset="1" stop-color="#e0a922"/></linearGradient><path fill="url(#CH~YMSwa636yT641ik8uic)" d="M15.084,18h0.527v4h-0.703c-0.515,0-0.954-0.312-1.041-0.74l-0.344-1.703	C13.358,18.743,14.103,18,15.084,18z"/><radialGradient id="CH~YMSwa636yT641ik8uid" cx="145.014" cy="-717.372" r="12.224" gradientTransform="matrix(.8816 0 0 -.8816 -103.844 -613.736)" gradientUnits="userSpaceOnUse"><stop offset="0" stop-color="#ffcf54"/><stop offset=".261" stop-color="#fdcb4d"/><stop offset=".639" stop-color="#f7c13a"/><stop offset="1" stop-color="#f0b421"/></radialGradient><path fill="url(#CH~YMSwa636yT641ik8uid)" d="M24,6.4c-4.441,0-9,0.675-9,10.275c0,0.768,0,5.877,0,6.698C15,26.8,20.4,31,24,31	s9-4.2,9-7.627c0-0.821,0-5.929,0-6.698C33,7.075,28.441,6.4,24,6.4z"/><radialGradient id="CH~YMSwa636yT641ik8uie" cx="135.312" cy="-703.717" r="28.915" gradientTransform="matrix(.8816 0 0 -.8816 -103.844 -613.736)" gradientUnits="userSpaceOnUse"><stop offset="0" stop-color="#c26715"/><stop offset=".508" stop-color="#b85515"/><stop offset="1" stop-color="#ad3f16"/></radialGradient><path fill="url(#CH~YMSwa636yT641ik8uie)" d="M24,5.545c-4.354,0-5,1.636-5,1.636c-1.77,0.261-5,2.854-5,5.818c0,1.654,0.265,2.876,1,7	c0.545-6.545,2.249-9,4-9c1.267,0,2.273,1,5,1c2.303,0,2.875-1,5-1c3,0,4,7.968,4,9c0.601-3.01,1-5.555,1-7	C34,9.57,30.209,5.545,24,5.545z"/><radialGradient id="CH~YMSwa636yT641ik8uif" cx="189.624" cy="-705.653" r="33.398" gradientTransform="matrix(.8431 0 0 -.8816 -137.305 -613.736)" gradientUnits="userSpaceOnUse"><stop offset="0" stop-color="#c26715"/><stop offset=".508" stop-color="#b85515"/><stop offset="1" stop-color="#ad3f16"/></radialGradient><path fill="url(#CH~YMSwa636yT641ik8uif)" d="M24.219,5c-4.164,0-5.216,2.182-5.216,2.182c-0.042,1.159,0.522,2.182,0.522,2.182	S20.285,11,24.625,11C27.245,11,31,9.365,31,5C31,5,30.157,5,24.219,5z"/><path d="M38,44c1.105,0,2-0.895,2-2v-1.143c0-2.632-1.731-5.153-4.53-7.043l-0.506,1.135l-5.539,0.585	c-0.579,0.063-1.052,0.445-1.231,1s-0.022,1.141,0.41,1.53l4.137,3.729L32.272,44H38z" opacity=".07"/><path d="M38,44c1.105,0,2-0.895,2-2v-1.143c0-2.497-1.566-4.891-4.116-6.745l-0.581,1.304l-5.824,0.615	c-0.382,0.041-0.691,0.293-0.81,0.657s-0.015,0.749,0.27,1.005l4.351,3.921L32.783,44H38z" opacity=".05"/><linearGradient id="CH~YMSwa636yT641ik8uig" x1="31.713" x2="44.998" y1="-592.807" y2="-610.578" gradientTransform="matrix(1 0 0 -1 0 -562)" gradientUnits="userSpaceOnUse"><stop offset="0" stop-color="#ffda1c"/><stop offset="1" stop-color="#feb705"/></linearGradient><path fill="url(#CH~YMSwa636yT641ik8uig)" d="M38.978,30.271l2.502,5.613l6.111,0.645c0.393,0.042,0.551,0.529,0.258,0.793l-4.564,4.113	l1.275,6.011c0.082,0.387-0.333,0.688-0.675,0.491l-5.323-3.071l-5.323,3.07c-0.343,0.197-0.757-0.104-0.675-0.491l1.275-6.011	l-4.564-4.113c-0.294-0.264-0.135-0.752,0.258-0.793l6.111-0.645l2.502-5.613C38.305,29.91,38.817,29.91,38.978,30.271z"/></svg>