<svg xmlns="http://www.w3.org/2000/svg" viewBox="0 0 48 48"><linearGradient id="n~rFDmnBIMuIHUKN~Yd2ba" x1="6.68" x2="39.947" y1="7.387" y2="35.455" gradientTransform="matrix(-1 0 0 1 48 0)" gradientUnits="userSpaceOnUse"><stop offset="0" stop-color="#a1aab3"/><stop offset="1" stop-color="#8f979e"/></linearGradient><path fill="url(#n~rFDmnBIMuIHUKN~Yd2ba)" d="M4,37h40c1.105,0,2-0.895,2-2V9c0-1.105-0.895-2-2-2H4C2.895,7,2,7.895,2,9v26	C2,36.105,2.895,37,4,37z"/><linearGradient id="n~rFDmnBIMuIHUKN~Yd2bb" x1="19.999" x2="28.44" y1="9.109" y2="36.308" gradientUnits="userSpaceOnUse"><stop offset="0" stop-color="#6d7479"/><stop offset="1" stop-color="#323538"/></linearGradient><rect width="40" height="26" x="4" y="9" fill="url(#n~rFDmnBIMuIHUKN~Yd2bb)"/><linearGradient id="n~rFDmnBIMuIHUKN~Yd2bc" x1="24" x2="24" y1="36.992" y2="41.008" gradientUnits="userSpaceOnUse"><stop offset="0" stop-color="#484b4f"/><stop offset=".23" stop-color="#656d75"/><stop offset=".367" stop-color="#727d86"/></linearGradient><path fill="url(#n~rFDmnBIMuIHUKN~Yd2bc)" d="M37.5,39H30v-2H18v2h-7.5c-0.276,0-0.5,0.224-0.5,0.5v1c0,0.276,0.224,0.5,0.5,0.5h27	c0.276,0,0.5-0.224,0.5-0.5v-1C38,39.224,37.776,39,37.5,39z"/></svg>