<svg xmlns="http://www.w3.org/2000/svg" viewBox="0 0 48 48"><linearGradient id="tl5r0W0pqjrCpssGiW13sa" x1="9.733" x2="9.733" y1="1530.877" y2="1513" gradientTransform="translate(0 -1506)" gradientUnits="userSpaceOnUse"><stop offset="0" stop-color="#92a3b0"/><stop offset=".015" stop-color="#a3b5c4"/><stop offset=".032" stop-color="#aec2d1"/><stop offset=".046" stop-color="#b2c6d6"/></linearGradient><path fill="url(#tl5r0W0pqjrCpssGiW13sa)" d="M13.466,24.877c-0.465,0-0.881-0.326-0.979-0.798L9.712,10.597C9.521,9.671,8.698,9,7.753,9H6	C5.448,9,5,8.552,5,8s0.448-1,1-1h1.753c1.889,0,3.537,1.343,3.918,3.193l2.775,13.482c0.111,0.541-0.237,1.07-0.778,1.181	C13.601,24.871,13.533,24.877,13.466,24.877z"/><circle cx="37" cy="41" r="3" fill="#5c5f61"/><circle cx="37" cy="41" r="1" opacity=".15"/><circle cx="19" cy="41" r="3" fill="#5c5f61"/><circle cx="19" cy="41" r="1" opacity=".15"/><linearGradient id="tl5r0W0pqjrCpssGiW13sb" x1="27.5" x2="27.5" y1="1545" y2="1537" gradientTransform="translate(0 -1506)" gradientUnits="userSpaceOnUse"><stop offset="0" stop-color="#92a3b0"/><stop offset=".015" stop-color="#a3b5c4"/><stop offset=".032" stop-color="#aec2d1"/><stop offset=".046" stop-color="#b2c6d6"/></linearGradient><path fill="url(#tl5r0W0pqjrCpssGiW13sb)" d="M41,39H17c-2.206,0-4-1.794-4-4s1.794-4,4-4h21c0.552,0,1,0.448,1,1c0,0.552-0.448,1-1,1H17	c-1.103,0-2,0.897-2,2s0.897,2,2,2h24c0.552,0,1,0.448,1,1S41.552,39,41,39z"/><linearGradient id="tl5r0W0pqjrCpssGiW13sc" x1="4.756" x2="7.384" y1="1512.756" y2="1515.384" gradientTransform="translate(0 -1506)" gradientUnits="userSpaceOnUse"><stop offset="0" stop-color="#199ae0"/><stop offset="1" stop-color="#0782d8"/></linearGradient><path fill="url(#tl5r0W0pqjrCpssGiW13sc)" d="M8,8c0,1.104-0.896,2-2,2S4,9.104,4,8s0.896-2,2-2S8,6.896,8,8z"/><linearGradient id="tl5r0W0pqjrCpssGiW13sd" x1="10.773" x2="44.342" y1="1530.53" y2="1530.53" gradientTransform="translate(0 -1506)" gradientUnits="userSpaceOnUse"><stop offset="0" stop-color="#3079d6"/><stop offset="1" stop-color="#297cd2"/></linearGradient><path fill="url(#tl5r0W0pqjrCpssGiW13sd)" d="M13.69,31.374C13.87,32.318,14.695,33,15.655,33h24.651c0.978,0,1.812-0.707,1.973-1.671	l2.063-12.379l-33.569-2.89L13.69,31.374z"/><linearGradient id="tl5r0W0pqjrCpssGiW13se" x1="10" x2="44.834" y1="1521.475" y2="1521.475" gradientTransform="translate(0 -1506)" gradientUnits="userSpaceOnUse"><stop offset="0" stop-color="#42a3f2"/><stop offset="1" stop-color="#42a4eb"/></linearGradient><path fill="url(#tl5r0W0pqjrCpssGiW13se)" d="M43.911,14.916L10,12l0.773,4.06l33.568,2.89l0.479-2.872	C44.917,15.499,44.496,14.961,43.911,14.916z"/><path fill="#0d62ab" d="M10,24c-0.186,0-6.814,0-7,0c-0.552,0-1,0.448-1,1s0.448,1,1,1c0.186,0,6.814,0,7,0	c0.552,0,1-0.448,1-1S10.552,24,10,24z"/><path fill="#0d62ab" d="M9,19c-0.186,0-7.814,0-8,0c-0.552,0-1,0.448-1,1s0.448,1,1,1c0.186,0,7.814,0,8,0	c0.552,0,1-0.448,1-1S9.552,19,9,19z"/><path fill="#0d62ab" d="M11,29c-0.186,0-5.814,0-6,0c-0.552,0-1,0.448-1,1s0.448,1,1,1c0.186,0,5.814,0,6,0	c0.552,0,1-0.448,1-1S11.552,29,11,29z"/></svg>