<svg xmlns="http://www.w3.org/2000/svg" viewBox="0 0 48 48"><path fill="#199be2" d="M36,17v25c0,1.105-0.895,2-2,2H10c-1.105,0-2-0.895-2-2V10c0-1.105,0.895-2,2-2h17L36,17z"/><path d="M10,8h26v34H13.681C11.648,42,10,40.352,10,38.319V8z" opacity=".05"/><path d="M11,8h19.941C33.735,8,36,10.265,36,13.059V41H13.839	C12.271,41,11,39.729,11,38.161V8z" opacity=".07"/><path fill="#50e6ff" d="M40,14v24c0,1.105-0.895,2-2,2H14c-1.105,0-2-0.895-2-2V6c0-1.105,0.895-2,2-2h16L40,14z"/><linearGradient id="HupiVYEGl4_Tcfq59y69Va" x1="30.534" x2="35.09" y1="-439.466" y2="-434.91" gradientTransform="matrix(1 0 0 -1 0 -426)" gradientUnits="userSpaceOnUse"><stop offset="0" stop-color="#3079d6"/><stop offset="1" stop-color="#297cd2"/></linearGradient><path fill="url(#HupiVYEGl4_Tcfq59y69Va)" d="M30,4v8c0,1.105,0.895,2,2,2h8L30,4z"/><linearGradient id="HupiVYEGl4_Tcfq59y69Vb" x1="25.709" x2="27.515" y1="17.595" y2="32.991" gradientUnits="userSpaceOnUse"><stop offset="0" stop-color="#3079d6"/><stop offset="1" stop-color="#297cd2"/></linearGradient><path fill="url(#HupiVYEGl4_Tcfq59y69Vb)" d="M24.166,27.749c-0.066-0.172-0.208-0.682-0.208-1.187c0-2.874,2.959-2.984,2.959-5.116 c0-1.342-1.326-1.425-1.563-1.425c-1.506,0-2.682,0.861-3.176,1.296v-2.979c0.508-0.303,1.67-0.91,3.523-0.91 c4.29,0,4.344,2.949,4.344,3.582c0,3.404-3.513,3.657-3.513,5.838c0,0.455,0.165,0.788,0.237,0.9H24.166z M25.61,32.428 c-0.817,0-1.68-0.51-1.68-1.499s0.897-1.481,1.68-1.481c0.783,0,1.653,0.439,1.653,1.481S26.427,32.428,25.61,32.428z"/></svg>