<svg xmlns="http://www.w3.org/2000/svg" viewBox="0 0 48 48"><rect width="2" height="21.185" x="44" y="16.815" fill="#3a41ac"/><path fill="#3a41ac" d="M45,42.6c0,0,2-2.495,2-3.6s-0.895-2-2-2s-2,0.895-2,2S45,42.6,45,42.6z"/><path fill="#5059c9" d="M22.352,28.385L0.659,19.346c-0.879-0.366-0.879-1.612,0-1.978L22.352,8.33	c1.055-0.44,2.242-0.44,3.297,0l21.692,9.038c0.879,0.366,0.879,1.612,0,1.978l-21.692,9.038	C24.593,28.824,23.407,28.824,22.352,28.385z"/><path fill="#7b83eb" d="M24,18c-8.284,0-15,1.439-15,3.214V35c8.571,0,15,4,15,4s6.429-4,15-4V21.214	C39,19.439,32.284,18,24,18z"/></svg>