<svg xmlns="http://www.w3.org/2000/svg" viewBox="0 0 48 48"><linearGradient id="AhLOtiL~n0DHzbkvyyCWfa" x1="42.891" x2=".343" y1="3.109" y2="45.657" gradientUnits="userSpaceOnUse"><stop offset="0" stop-color="#9a9a9a"/><stop offset=".302" stop-color="#929292"/><stop offset=".757" stop-color="#7e7e7e"/><stop offset="1" stop-color="#707070"/></linearGradient><path fill="url(#AhLOtiL~n0DHzbkvyyCWfa)" d="M43,7L17,33l-4.875,0.875L20,26l-1.293-1.293c-0.391-0.391-0.391-1.024,0-1.414l5.231-5.231	C29.221,12.779,35.792,8.966,43,7L43,7z"/><linearGradient id="AhLOtiL~n0DHzbkvyyCWfb" x1="4.652" x2="43.885" y1="6.652" y2="45.885" gradientUnits="userSpaceOnUse"><stop offset="0" stop-color="#c9c9c9"/><stop offset="1" stop-color="#b3b3b3"/></linearGradient><path fill="url(#AhLOtiL~n0DHzbkvyyCWfb)" d="M43,41c-1.53-0.42-3.04-0.92-4.51-1.51c-5.44-2.15-10.39-5.39-14.55-9.55l-5.23-5.23	c-0.39-0.39-0.39-1.029,0-1.42l0.583-0.583c0.391-0.391,0.391-1.024,0-1.414L12,14l5,1L43,41z"/><linearGradient id="AhLOtiL~n0DHzbkvyyCWfc" x1="46.391" x2="3.843" y1="6.609" y2="49.157" gradientUnits="userSpaceOnUse"><stop offset="0" stop-color="#9a9a9a"/><stop offset=".302" stop-color="#929292"/><stop offset=".757" stop-color="#7e7e7e"/><stop offset="1" stop-color="#707070"/></linearGradient><path fill="url(#AhLOtiL~n0DHzbkvyyCWfc)" d="M14.5,45C10.916,45,8,42.084,8,38.5s2.916-6.5,6.5-6.5s6.5,2.916,6.5,6.5S18.084,45,14.5,45z M14.5,35c-1.93,0-3.5,1.57-3.5,3.5s1.57,3.5,3.5,3.5s3.5-1.57,3.5-3.5S16.43,35,14.5,35z"/><path fill="#c4c4c4" d="M14.5,16C10.916,16,8,13.084,8,9.5S10.916,3,14.5,3S21,5.916,21,9.5S18.084,16,14.5,16z M14.5,6	C12.57,6,11,7.57,11,9.5s1.57,3.5,3.5,3.5S18,11.43,18,9.5S16.43,6,14.5,6z"/><circle cx="22" cy="24" r="1" fill="#e6e6e6"/><linearGradient id="AhLOtiL~n0DHzbkvyyCWfd" x1="43.391" x2=".843" y1="3.609" y2="46.157" gradientUnits="userSpaceOnUse"><stop offset="0" stop-color="#9a9a9a"/><stop offset=".302" stop-color="#929292"/><stop offset=".757" stop-color="#7e7e7e"/><stop offset="1" stop-color="#707070"/></linearGradient><path fill="url(#AhLOtiL~n0DHzbkvyyCWfd)" d="M5.5,43c-0.384,0-0.768-0.146-1.061-0.439c-0.586-0.585-0.586-1.536,0-2.121l4-4	c0.586-0.586,1.535-0.586,2.121,0c0.586,0.585,0.586,1.536,0,2.121l-4,4C6.268,42.854,5.884,43,5.5,43z"/><path fill="#e6e6e6" d="M43,41c-1.53-0.42-3.04-0.92-4.51-1.51L28,29l1.5-1.5L43,41z"/><path d="M22.71,19.29l-0.36,0.36L22,20l4,4l0.35-0.35l0.36-0.36L22.71,19.29z M19.65,26.35l-0.36,0.36l2,2l0.36-0.36L22,28l-2-2 L19.65,26.35z" opacity=".05"/><path d="M22.35,19.65L22,20l4,4l0.35-0.35L22.35,19.65z M19.65,26.35l2,2L22,28l-2-2L19.65,26.35z" opacity=".07"/></svg>