<svg xmlns="http://www.w3.org/2000/svg" viewBox="0 0 48 48"><path fill="#d35230" d="M11,17v4.206c0,1.181,0.262,2.348,0.766,3.416l4.956,10.496C16.906,35.703,17,36.312,17,36.925V39	h6.75V16L11,17z"/><path fill="#d35230" d="M37,17v4.206c0,1.181-0.262,2.348-0.766,3.416l-4.956,10.496C31.094,35.703,31,36.312,31,36.925V39	h-6.75V16L37,17z"/><path fill="#ccc" d="M14.22,7H22v5h-8.097c-2.944,0-5.573-1.841-6.579-4.608L5,1l5.315,4.556	C11.402,6.488,12.787,7,14.22,7z"/><path fill="#d35230" d="M8,22H3c-0.552,0-1-0.448-1-1v-1c0-1.657,1.343-3,3-3h6v2C11,20.657,9.657,22,8,22z"/><path fill="#ccc" d="M33.78,7H26v5h8.097c2.944,0,5.573-1.841,6.579-4.608L43,1l-5.315,4.556	C36.598,6.488,35.213,7,33.78,7z"/><path fill="#5c2415" d="M31,26h-1.5c-0.276,0-0.5-0.224-0.5-0.5v-0.023C29,24.109,30.109,23,31.477,23H31.5	c0.276,0,0.5,0.224,0.5,0.5V25C32,25.552,31.552,26,31,26z"/><path fill="#5c2415" d="M17,26h1.5c0.276,0,0.5-0.224,0.5-0.5v-0.023C19,24.109,17.891,23,16.523,23H16.5	c-0.276,0-0.5,0.224-0.5,0.5V25C16,25.552,16.448,26,17,26z"/><path fill="#d35230" d="M40,22h5c0.552,0,1-0.448,1-1v-1c0-1.657-1.343-3-3-3h-6v2C37,20.657,38.343,22,40,22z"/><path fill="#ed6c47" d="M26,30c0-13,11-13,11-13c0-7-8-10-10-10c-1,0-1,0-3,0s-2,0-3,0c-2,0-10,3-10,10c0,0,11,0,11,13	c0,8-5,9-5,9c0,0.05,0,0.1,0.001,0.149C17.054,42.415,19.793,45,23.059,45H24h0.941c3.267,0,6.006-2.585,6.058-5.851	C31,39.1,31,39.05,31,39C31,39,26,38,26,30z"/><path fill="#5c2415" d="M20.333,42h1.333C21.851,42,22,41.851,22,41.667V41.42c0-0.784-0.636-1.42-1.42-1.42h-0.247	C20.149,40,20,40.149,20,40.333v1.333C20,41.851,20.149,42,20.333,42z"/><path fill="#5c2415" d="M27.667,42h-1.333C26.149,42,26,41.851,26,41.667V41.42c0-0.784,0.636-1.42,1.42-1.42h0.247	C27.851,40,28,40.149,28,40.333v1.333C28,41.851,27.851,42,27.667,42z"/></svg>