<svg xmlns="http://www.w3.org/2000/svg" viewBox="0 0 48 48"><linearGradient id="lPkkpDg5Zo3~jpM4qupfYa" x1="24.004" x2="24.004" y1="2" y2="46" gradientUnits="userSpaceOnUse"><stop offset="0" stop-color="#dfe9f2"/><stop offset=".391" stop-color="#d6e0e9"/><stop offset="1" stop-color="#bfc8d1"/></linearGradient><path fill="url(#lPkkpDg5Zo3~jpM4qupfYa)" d="M43.945,40.391c0.1,1.14-0.187,2.302-0.907,3.192C42.435,44.328,41.48,45,40,45 c-2.23,0-5-2-5-2s-2.11,3-5.44,3S24,44,24,44s-2.22,2-5.55,2S13,43,13,43s-2.78,2-5,2c-1.499,0-2.456-0.689-3.057-1.446 c-0.697-0.88-0.977-2.017-0.881-3.136C4.817,31.6,13.568,18.657,19,14c0-0.67-0.07-1.34-0.19-2c-0.47-2.69-1.75-5.18-2.41-6.33 c-0.32-0.56-0.35-1.24-0.08-1.82C16.72,3,17.6,2,19.56,2c1.842,0,2.862,1.142,3.682,2.122c0.396,0.473,1.12,0.473,1.516,0 C25.578,3.142,26.598,2,28.45,2c1.96,0,2.84,1,3.23,1.85c0.28,0.58,0.24,1.26-0.08,1.82c-0.66,1.15-1.94,3.64-2.41,6.33 C29.07,12.66,29,13.33,29,14C34.426,18.652,43.174,31.573,43.945,40.391z"/><path fill="#eb6773" d="M42.822,41c-0.423,0-0.808,0.266-0.931,0.671C41.668,42.403,41.043,43,40,43 c-1.183,0-3.093-1.094-3.829-1.622c-0.351-0.253-0.757-0.375-1.161-0.375c-0.626,0-1.244,0.291-1.638,0.835 C33.356,41.86,31.78,44,29.56,44c-2.478,0-4.22-1.485-4.225-1.489c-0.376-0.338-0.852-0.505-1.33-0.505 c-0.475,0-0.952,0.166-1.332,0.497C22.657,42.518,20.925,44,18.45,44c-2.223,0-3.809-2.143-3.817-2.154 c-0.308-0.436-0.777-0.73-1.303-0.818C13.221,41.009,13.11,41,13,41c-0.416,0-0.826,0.13-1.168,0.376C11.096,41.906,9.19,43,8,43 c-1.046,0-1.667-0.593-1.885-1.322C5.993,41.27,5.607,41,5.181,41h0c-0.682,0-1.148,0.669-0.935,1.317C4.648,43.539,5.676,45,8,45 c2.22,0,5-2,5-2s2.12,3,5.45,3S24,44,24,44s2.23,2,5.56,2S35,43,35,43s2.77,2,5,2c2.322,0,3.351-1.459,3.756-2.681 C43.971,41.67,43.505,41,42.822,41L42.822,41z"/><path fill="#eb6773" d="M18.81,12c0.12,0.66,0.19,1.33,0.19,2h10c0-0.67,0.07-1.34,0.19-2H18.81z"/></svg>