<svg xmlns="http://www.w3.org/2000/svg" id="Layer_1" x="0" y="0" version="1.1" viewBox="0 0 48 48" xml:space="preserve"><linearGradient id="SVGID_1_" x1="17.952" x2="36.371" y1="559.751" y2="594.392" gradientTransform="translate(0 -552)" gradientUnits="userSpaceOnUse"><stop offset="0" stop-color="#21ad64"/><stop offset="1" stop-color="#088242"/></linearGradient><path fill="url(#SVGID_1_)" d="M46,37H10.5c-0.6,0-1.1-0.3-1.5-0.7L0.2,25.1c-0.3-0.4-0.3-0.9,0-1.2l8.7-11.2c0.4-0.4,0.9-0.7,1.5-0.7H46	c1.1,0,2,0.9,2,2v21C48,36.1,47.1,37,46,37z"/><g opacity=".07"><path d="M32.6,19.7v6.4l-2.3-6.4h-3.5l-2.4,6.6L24,25.6c-0.1-0.1-0.2-0.3-0.3-0.4c0,0,0,0,0,0 c0.1-0.1,0.2-0.2,0.3-0.3c0.2-0.3,0.4-0.6,0.5-0.9c0.1-0.3,0.2-0.7,0.2-1.1c0-1.2-0.5-3.1-3.8-3.1h-3.8v2.5 c-0.6-1.3-1.9-2.5-4.7-2.5H8.8v9.7h3.7c1.5,0,2.7-0.5,3.7-1.4c0.4-0.4,0.8-0.9,1-1.4v2.8h3.7v-1.9l1.2,1.9h5.3l0.5-1.7h1.3l0.5,1.7 h6.6v-3h2.5v-3.3h1.4v6.3H44v-6.3h2.2v-3.4H32.6z M13.4,25.6c-0.2,0.2-0.5,0.3-0.9,0.4v-2.9c0.4,0,0.7,0.1,0.9,0.3 c0.2,0.2,0.3,0.6,0.3,1C13.8,25,13.7,25.4,13.4,25.6z" opacity=".05"/><path d="M12.5,20.2H9.3v8.7h3.2c1.4,0,2.5-0.4,3.3-1.2c0.8-0.8,1.3-1.9,1.3-3.2C17.1,22.5,16.3,20.2,12.5,20.2z M13.8,26 c-0.3,0.4-0.8,0.5-1.4,0.5H12v-3.9h0.3c0.6,0,1.1,0.2,1.4,0.5c0.3,0.3,0.5,0.8,0.5,1.4C14.3,25.1,14.1,25.6,13.8,26z"/><path d="M27.3,20.2l-2.6,7.3l-1-1.6c-0.1-0.1-0.2-0.3-0.3-0.4c-0.1-0.1-0.2-0.3-0.3-0.4c0,0,0,0,0,0c0.3-0.2,0.5-0.4,0.7-0.6 c0.2-0.2,0.3-0.5,0.4-0.8c0.1-0.3,0.2-0.6,0.2-0.9c0-1.2-0.6-2.6-3.3-2.6h-3.3v8.7h2.7V26l0,0c0,0,0.1,0.1,0.1,0.1 c0.1,0.1,0.1,0.1,0.2,0.2c0.1,0.1,0.2,0.2,0.2,0.4l1.3,2.2H27l0.5-1.7h2l0.5,1.7h3L30,20.2H27.3z M21.2,23.5 c-0.1,0.1-0.3,0.2-0.6,0.2h-0.3v-1.1h0.3c0.7,0,0.7,0.3,0.7,0.5C21.4,23.2,21.3,23.3,21.2,23.5z M28.3,24.9l0.3-0.9l0.3,0.9H28.3z"/><polygon points="33.1,20.2 33.1,28.9 35.9,28.9 35.9,25.9 38.4,25.9 38.4,23.5 35.9,23.5 35.9,22.6 40.8,22.6 40.8,28.9 43.5,28.9 43.5,22.6 45.7,22.6 45.7,20.2"/></g><path fill="#fff" d="M9.8,28.4v-7.7h2.7c2.7,0,4.1,1.3,4.1,3.8c0,1.2-0.4,2.2-1.1,2.9c-0.7,0.7-1.7,1.1-3,1.1H9.8z M11.5,22.1V27	h0.9c0.8,0,1.3-0.2,1.8-0.7c0.4-0.5,0.6-1.1,0.6-1.8c0-0.7-0.2-1.3-0.6-1.7c-0.4-0.4-1-0.6-1.8-0.6H11.5z"/><path fill="#fff" d="M24.6,28.4h-2l-1.2-2c-0.1-0.2-0.2-0.3-0.3-0.4s-0.2-0.2-0.2-0.3c-0.1-0.1-0.2-0.1-0.3-0.2	c-0.1,0-0.2-0.1-0.3-0.1h-0.5v2.9h-1.7v-7.7h2.8c1.9,0,2.8,0.7,2.8,2.1c0,0.3,0,0.5-0.1,0.7c-0.1,0.2-0.2,0.4-0.3,0.6	s-0.3,0.3-0.5,0.5c-0.2,0.1-0.5,0.2-0.7,0.3v0c0.1,0,0.2,0.1,0.3,0.2c0.1,0.1,0.2,0.2,0.3,0.3s0.2,0.2,0.3,0.3	c0.1,0.1,0.2,0.2,0.3,0.4L24.6,28.4z M19.9,22v2.1h0.8c0.4,0,0.7-0.1,0.9-0.3c0.2-0.2,0.3-0.5,0.3-0.8c0-0.7-0.4-1-1.2-1H19.9z"/><path fill="#fff" d="M32.4,28.4h-1.9L30,26.7h-2.7l-0.5,1.7h-1.9l2.8-7.7h2.1L32.4,28.4z M29.6,25.4l-0.8-2.6	c-0.1-0.2-0.1-0.4-0.1-0.7h0c0,0.2-0.1,0.4-0.1,0.7l-0.8,2.6H29.6z"/><path fill="#fff" d="M38.1,22.1h-2.7V24h2.5v1.4h-2.5v3h-1.7v-7.7h4.5V22.1z"/><path fill="#fff" d="M45.2,22.1H43v6.3h-1.7v-6.3h-2.2v-1.4h6.1V22.1z"/></svg>