<svg xmlns="http://www.w3.org/2000/svg" data-name="Слой 1" viewBox="0 0 48 48"><defs><linearGradient id="j9gNoBaMMNcL9qghMoUQ7a" x1="28.767" x2="6.756" y1="35.433" y2="4.422" data-name="Безымянный градиент 187" gradientUnits="userSpaceOnUse"><stop offset="0" stop-color="#ffda1c"/><stop offset="1" stop-color="#feb705"/></linearGradient></defs><path fill="#64717c" d="M6.5,13a.50032.50032,0,0,1-.47412-.6582l1-3a.49982.49982,0,0,1,.94824.3164l-1,3A.49973.49973,0,0,1,6.5,13Z"/><path fill="#64717c" d="M9.5,8a.49993.49993,0,0,1-.1582-.97412l3-1a.49982.49982,0,0,1,.3164.94824l-3,1A.49905.49905,0,0,1,9.5,8Z"/><polygon fill="url(#j9gNoBaMMNcL9qghMoUQ7a)" points="21.118 40.589 8.734 11.266 11.414 8.586 42.356 38.649 21.118 40.589"/><ellipse cx="32" cy="40" fill="#ffe780" rx="11" ry="4"/><rect width="4" height="5.657" x="6" y="5.171" fill="#889097" rx="1" transform="rotate(-45 8 8)"/><path fill="#889097" d="M8.75345,12.86161l4.10816-4.10816a.46919.46919,0,0,0-.31451-.80064l-2.04725-.203-2.75,2.75.203,2.04725A.46919.46919,0,0,0,8.75345,12.86161Z"/></svg>