<svg xmlns="http://www.w3.org/2000/svg" viewBox="0 0 48 48"><linearGradient id="148gxeyuD44vf0vikwrADa" x1="17.356" x2="38.476" y1="6.033" y2="42.408" gradientUnits="userSpaceOnUse"><stop offset="0" stop-color="#0d61a9"/><stop offset="1" stop-color="#16528c"/></linearGradient><path fill="url(#148gxeyuD44vf0vikwrADa)" d="M43.227,18.103c2.822-2.824,2.118-8.106-1.572-11.799c-3.69-3.693-8.97-4.397-11.792-1.573 c-1.952,1.953-2.192,5.079-0.948,8.045C27.365,12.277,25.716,12,24,12c-1.734,0-3.4,0.284-4.964,0.795 c1.252-2.971,1.014-6.106-0.942-8.063C15.272,1.908,9.993,2.612,6.303,6.305c-3.69,3.693-4.394,8.975-1.572,11.799 c1.414,1.415,3.447,1.926,5.586,1.637C8.856,22.153,8,24.973,8,28c0,8.837,7.163,16,16,16s16-7.163,16-16 c0-3.025-0.855-5.843-2.313-8.255C39.809,20.021,41.823,19.508,43.227,18.103z"/><radialGradient id="148gxeyuD44vf0vikwrADb" cx="24.005" cy="30" r="13.953" gradientUnits="userSpaceOnUse"><stop offset="0" stop-color="#ffcf54"/><stop offset=".318" stop-color="#fdcb4d"/><stop offset=".639" stop-color="#f7c13a"/><stop offset="1" stop-color="#f0b421"/></radialGradient><path fill="url(#148gxeyuD44vf0vikwrADb)" d="M36,31c-0.478-1.46-1.697-1.219-3.421-0.492c1.21-1.508,2.143-3.317,2.448-5.071 c0.758-4.368-1.323-6.82-4.542-7.373c-2.529-0.435-5.056,1.386-6.393,4.302c-1.337-2.916-3.864-4.736-6.393-4.302 c-3.219,0.553-5.3,3.005-4.542,7.373c0.305,1.757,1.241,3.57,2.455,5.081C13.804,29.723,12.517,29.422,12,31 c-1.087,3.319,5,11,12,11C31,42,37.139,34.478,36,31z M23.543,33.123c0.201-0.186,0.387-0.391,0.548-0.623 c0.159,0.229,0.341,0.431,0.539,0.615c-0.21,0.013-0.418,0.034-0.63,0.034C23.845,33.149,23.695,33.13,23.543,33.123z"/><ellipse cx="24" cy="32.5" fill="#2b1d1d" rx="3" ry="2.5"/><ellipse cx="20.5" cy="26.5" fill="#2b1d1d" rx="1.5" ry="2.5"/><ellipse cx="27.5" cy="26.5" fill="#2b1d1d" rx="1.5" ry="2.5"/></svg>