<svg xmlns="http://www.w3.org/2000/svg" viewBox="0 0 48 48"><path fill="#1a9ba1" d="M4.435,26.408c0-5.461,1.337-10.49,3.752-14.255C8.563,11.567,9.199,11.2,9.895,11.2l6.286,0	c0.654,0,1.077,0.709,0.748,1.274c-2.619,4.494-3.832,8.903-3.832,13.908c0,4.406,1.146,6.445,3.618,6.445	c2.09,0,3.261-1.502,3.261-4.254V20c0-0.552,0.448-1,1-1h6.05c0.552,0,1,0.448,1,1v8.573c0,2.752,1.171,4.254,3.261,4.254	c2.47,0,3.618-2.038,3.618-6.445c0-5.005-1.192-9.414-3.808-13.909c-0.329-0.565,0.094-1.274,0.748-1.274l6.261,0	c0.696,0,1.332,0.367,1.707,0.953c2.415,3.765,3.752,8.794,3.752,14.255c0,8.966-3.821,13.806-10.902,13.806	c-3.974,0-6.573-1.758-8.406-5.731H23.77c-1.859,3.974-4.458,5.731-8.406,5.731C8.282,40.216,4.435,35.376,4.435,26.408z"/></svg>