<svg xmlns="http://www.w3.org/2000/svg" viewBox="0 0 48 48"><circle cx="9.275" cy="18.347" r="1.786" fill="#c98e00"/><polygon fill="#c98e00" points="10.655,28.213 11.061,18.35 7.506,18.168 6.187,29.9"/><linearGradient id="Pc4AcHg8syGImpkAHIY~na" x1="-17.654" x2="-16.378" y1="-208.396" y2="-210.596" gradientTransform="scale(-1 1) rotate(-67.5 165.1 -94.114)" gradientUnits="userSpaceOnUse"><stop offset="0" stop-color="#f0b421" stop-opacity="0"/><stop offset=".512" stop-color="#e9ab12" stop-opacity=".512"/><stop offset="1" stop-color="#e09f00"/></linearGradient><path fill="url(#Pc4AcHg8syGImpkAHIY~na)" d="M6.492,27.823l6.281,6.329l2.317-0.96c-4.27-4.625-4.809-5.164-5.191-5.976l-1.066-0.71	C8.222,27.739,6.492,27.823,6.492,27.823z"/><circle cx="38.725" cy="18.347" r="1.786" fill="#c98e00"/><polygon fill="#c98e00" points="41.813,29.9 40.494,18.168 36.939,18.35 37.345,28.213"/><linearGradient id="Pc4AcHg8syGImpkAHIY~nb" x1="172.022" x2="173.298" y1="249.522" y2="247.322" gradientTransform="rotate(-67.5 -58.717 240.856)" gradientUnits="userSpaceOnUse"><stop offset="0" stop-color="#f0b421" stop-opacity="0"/><stop offset=".512" stop-color="#e9ab12" stop-opacity=".512"/><stop offset="1" stop-color="#e09f00"/></linearGradient><path fill="url(#Pc4AcHg8syGImpkAHIY~nb)" d="M39.167,26.506l-1.066,0.71c-0.383,0.812-0.922,1.352-5.191,5.976l2.317,0.96l6.281-6.329	C41.508,27.823,39.778,27.739,39.167,26.506z"/><linearGradient id="Pc4AcHg8syGImpkAHIY~nc" x1="25.941" x2="43.642" y1="633.573" y2="633.573" gradientTransform="matrix(1 0 0 -1 0 662)" gradientUnits="userSpaceOnUse"><stop offset="0" stop-color="#ffcf54"/><stop offset=".261" stop-color="#fdcb4d"/><stop offset=".639" stop-color="#f7c13a"/><stop offset="1" stop-color="#f0b421"/></linearGradient><path fill="url(#Pc4AcHg8syGImpkAHIY~nc)" d="M34.941,42l0.003-4.088l8.158-8.231V29.68c0.172-0.166,0.314-0.367,0.411-0.601	c0.119-0.287,0.149-0.586,0.117-0.875l0.004-0.011l-1.317-11.732h-0.002c-0.065-0.631-0.457-1.21-1.085-1.47	c-0.911-0.378-1.956,0.055-2.333,0.966c-0.093,0.224-0.136,0.457-0.135,0.685h-0.001v0.009c0,0.002,0,0.003,0,0.005l0.405,9.85	l-1.07,0.717c0.377-0.911-0.055-1.956-0.966-2.333c-0.614-0.254-1.284-0.134-1.774,0.245l-0.009-0.007l-8.262,7.132l-0.007,0.016	c-0.361,0.338-0.662,0.749-0.864,1.236c-0.196,0.474-0.278,0.965-0.267,1.447l-0.006,0.015V42H34.941z"/><linearGradient id="Pc4AcHg8syGImpkAHIY~nd" x1="4.358" x2="22.058" y1="633.573" y2="633.573" gradientTransform="matrix(1 0 0 -1 0 662)" gradientUnits="userSpaceOnUse"><stop offset="0" stop-color="#ffcf54"/><stop offset=".261" stop-color="#fdcb4d"/><stop offset=".639" stop-color="#f7c13a"/><stop offset="1" stop-color="#f0b421"/></linearGradient><path fill="url(#Pc4AcHg8syGImpkAHIY~nd)" d="M13.059,42h8.999v-7.026l-0.006-0.015c0.011-0.482-0.071-0.973-0.267-1.447	c-0.201-0.486-0.503-0.898-0.864-1.236l-0.007-0.016l-8.262-7.132l-0.009,0.007c-0.49-0.379-1.16-0.499-1.774-0.245	c-0.911,0.378-1.344,1.422-0.966,2.333l-1.07-0.717l0.405-9.85c0-0.002,0-0.003,0-0.005v-0.009H9.237	c0.001-0.228-0.042-0.461-0.135-0.685c-0.378-0.911-1.422-1.344-2.333-0.966c-0.628,0.26-1.02,0.839-1.085,1.47H5.682L4.366,28.193	l0.004,0.011c-0.032,0.289-0.001,0.588,0.117,0.875c0.097,0.234,0.239,0.435,0.411,0.601v0.001l8.158,8.231L13.059,42z"/><circle cx="11.553" cy="26.54" r="1.071" fill="#ffde87"/><circle cx="36.447" cy="26.54" r="1.071" fill="#ffde87"/><radialGradient id="Pc4AcHg8syGImpkAHIY~ne" cx="15.637" cy="653.737" r="24.55" gradientTransform="matrix(1 0 0 -1 0 662)" gradientUnits="userSpaceOnUse"><stop offset="0" stop-color="#6fcefc"/><stop offset="1" stop-color="#167cf7"/></radialGradient><path fill="url(#Pc4AcHg8syGImpkAHIY~ne)" d="M36,17c0,6.627-5.373,12-12,12s-12-5.373-12-12S17.373,5,24,5S36,10.373,36,17z"/><radialGradient id="Pc4AcHg8syGImpkAHIY~nf" cx="16.018" cy="654.57" r="24.551" gradientTransform="matrix(1 0 0 -1 0 662)" gradientUnits="userSpaceOnUse"><stop offset=".001" stop-color="#54c0f5"/><stop offset=".998" stop-color="#0b69db"/></radialGradient><path fill="url(#Pc4AcHg8syGImpkAHIY~nf)" d="M34.2,17c0-1.479-0.239-2.891-0.658-4.2h1.687c-0.154-0.411-0.328-0.812-0.524-1.2h-1.609	C31.413,7.691,27.973,5,24,5s-7.413,2.691-9.097,6.6h-1.609c-0.196,0.388-0.37,0.789-0.524,1.2h1.687	C14.039,14.109,13.8,15.521,13.8,17s0.239,2.891,0.658,4.2h-1.687c0.154,0.411,0.328,0.812,0.524,1.2h1.609	c1.684,3.909,5.124,6.6,9.097,6.6s7.413-2.691,9.097-6.6h1.609c0.196-0.388,0.37-0.789,0.524-1.2h-1.687	C33.961,19.891,34.2,18.479,34.2,17z M33,17c0,1.489-0.253,2.908-0.709,4.2h-3.785C28.7,19.84,28.8,18.41,28.8,17	s-0.1-2.84-0.294-4.2h3.785C32.747,14.092,33,15.511,33,17z M24,27.8c-1.162,0-2.413-2.067-3.091-5.4h6.182	C26.413,25.733,25.162,27.8,24,27.8z M20.7,21.2c-0.189-1.268-0.3-2.677-0.3-4.2s0.111-2.932,0.3-4.2h6.6	c0.189,1.268,0.3,2.677,0.3,4.2s-0.111,2.932-0.3,4.2H20.7z M24,6.2c1.162,0,2.413,2.067,3.091,5.4h-6.182	C21.587,8.267,22.838,6.2,24,6.2z M31.782,11.6h-3.475c-0.383-1.998-0.986-3.763-1.796-4.964C28.753,7.42,30.632,9.223,31.782,11.6z M21.49,6.636c-0.81,1.201-1.413,2.966-1.796,4.964h-3.475C17.368,9.223,19.247,7.42,21.49,6.636z M15,17	c0-1.489,0.253-2.908,0.709-4.2h3.785C19.3,14.16,19.2,15.59,19.2,17s0.1,2.84,0.294,4.2h-3.785C15.253,19.908,15,18.489,15,17z M16.218,22.4h3.475c0.383,1.998,0.986,3.763,1.796,4.964C19.247,26.58,17.368,24.777,16.218,22.4z M26.51,27.364	c0.81-1.201,1.413-2.966,1.796-4.964h3.475C30.632,24.777,28.753,26.58,26.51,27.364z"/></svg>