<svg xmlns="http://www.w3.org/2000/svg" viewBox="0 0 48 48"><rect width="24" height="12" x="12" y="5" fill="#abbdc6"/><linearGradient id="zZzk0RAwBphmW00gmdPlta" x1="24" x2="24" y1=".478" y2="46.896" gradientUnits="userSpaceOnUse"><stop offset="0" stop-color="#dfe9f2"/><stop offset=".391" stop-color="#d6e0e9"/><stop offset="1" stop-color="#bfc8d1"/></linearGradient><path fill="url(#zZzk0RAwBphmW00gmdPlta)" d="M36,5c-3.833,0-8.585,2.755-8.974,10.026c-0.029,0.541-0.458,0.974-1,0.974h-4.052	c-0.542,0-0.971-0.432-1-0.974C20.585,7.755,15.833,5,12,5c-3.87,0-7,3.13-7,7c0,3.18,2.11,5.85,5,6.71C10.63,18.9,11.3,19,12,19	s1.37-0.1,2-0.29v14.8c0,0.89,0.58,1.66,1.43,1.92L18,36.2l5,1.5l0.59,0.18c0.26,0.08,0.48,0.26,0.6,0.51l0.63,1.25	c0.05,0.09,0.11,0.18,0.18,0.25c0.1,0.11,0.23,0.2,0.38,0.25L30,41.8l1.32,0.48c1.303,0.474,2.68-0.491,2.68-1.877V18.706	C34.634,18.895,35.305,19,36,19c3.866,0,7-3.134,7-7C43,8.134,39.866,5,36,5z"/><path fill="#abbdc6" d="M23,23.5v14.2l-5-1.5V23.5c0-1.38,1.12-2.5,2.5-2.5c0.69,0,1.32,0.28,1.77,0.73	C22.72,22.18,23,22.81,23,23.5z"/><path fill="#abbdc6" d="M30,23.5v18.3l-4.62-1.66C25.23,40.09,25.1,40,25,39.89V23.5c0-1.38,1.12-2.5,2.5-2.5	c0.69,0,1.32,0.28,1.77,0.73C29.72,22.18,30,22.81,30,23.5z"/><radialGradient id="zZzk0RAwBphmW00gmdPltb" cx="14.391" cy="13.587" r="4.676" gradientUnits="userSpaceOnUse"><stop offset="0" stop-color="#abbdc6"/><stop offset="1" stop-color="#abbdc6" stop-opacity="0"/></radialGradient><path fill="url(#zZzk0RAwBphmW00gmdPltb)" d="M14,13v5.71C13.37,18.9,12.7,19,12,19s-1.37-0.1-2-0.29V13c0-1.1,0.9-2,2-2S14,11.9,14,13z"/><radialGradient id="zZzk0RAwBphmW00gmdPltc" cx="3.391" cy="13.587" r="4.676" gradientTransform="matrix(-1 0 0 1 37 0)" gradientUnits="userSpaceOnUse"><stop offset="0" stop-color="#abbdc6"/><stop offset="1" stop-color="#abbdc6" stop-opacity="0"/></radialGradient><path fill="url(#zZzk0RAwBphmW00gmdPltc)" d="M34,13v5.71C34.63,18.9,35.3,19,36,19s1.37-0.1,2-0.29V13c0-1.1-0.9-2-2-2S34,11.9,34,13z"/></svg>