<svg xmlns="http://www.w3.org/2000/svg" viewBox="0 0 48 48"><path fill="#199be2" d="M35.983,32.448l-3.536,3.536l7.87,7.87c0.195,0.195,0.512,0.195,0.707,0l2.828-2.828	c0.195-0.195,0.195-0.512,0-0.707L35.983,32.448z"/><radialGradient id="iqUhnYWaeGxpvNC2hOVDga" cx="20.024" cy="198.096" r="19.604" gradientTransform="translate(0 -178)" gradientUnits="userSpaceOnUse"><stop offset=".693" stop-color="#006185"/><stop offset=".921" stop-color="#35c1f1"/></radialGradient><polygon fill="url(#iqUhnYWaeGxpvNC2hOVDga)" points="31.601,28.065 28.065,31.601 32.448,35.983 35.983,32.448"/><linearGradient id="iqUhnYWaeGxpvNC2hOVDgb" x1="8.911" x2="31.339" y1="186.911" y2="209.339" gradientTransform="translate(0 -178)" gradientUnits="userSpaceOnUse"><stop offset="0" stop-color="#a3ffff"/><stop offset=".223" stop-color="#9dfbff"/><stop offset=".53" stop-color="#8bf1ff"/><stop offset=".885" stop-color="#6ee0ff"/><stop offset="1" stop-color="#63daff"/></linearGradient><circle cx="20" cy="20" r="16" fill="url(#iqUhnYWaeGxpvNC2hOVDgb)"/><path fill="#1b9de2" d="M15.306,13.878v10.935h-2.35v-8.28c-0.129,0.115-0.282,0.223-0.458,0.324 c-0.177,0.102-0.365,0.194-0.564,0.276c-0.198,0.082-0.405,0.152-0.618,0.209c-0.214,0.057-0.426,0.099-0.634,0.123v-1.984 c0.611-0.179,1.187-0.408,1.73-0.687c0.542-0.278,1.032-0.584,1.47-0.917H15.306z"/><path fill="#1b9de2" d="M19.932,19.54c-0.388,0-0.711-0.118-0.97-0.354c-0.259-0.236-0.388-0.528-0.388-0.877 c0-0.358,0.134-0.651,0.4-0.88c0.266-0.229,0.598-0.344,0.996-0.344c0.403,0,0.732,0.116,0.988,0.347 c0.257,0.232,0.384,0.524,0.384,0.877c0,0.364-0.13,0.659-0.391,0.887C20.689,19.425,20.349,19.54,19.932,19.54z M19.932,25 c-0.388,0-0.711-0.12-0.97-0.358c-0.259-0.239-0.388-0.532-0.388-0.88c0-0.358,0.134-0.651,0.4-0.88 c0.266-0.229,0.598-0.344,0.996-0.344c0.403,0,0.732,0.116,0.988,0.347c0.257,0.231,0.384,0.524,0.384,0.877 c0,0.363-0.13,0.661-0.391,0.892C20.689,24.884,20.349,25,19.932,25z"/><path fill="#1b9de2" d="M28.232,13.878v10.935h-2.35v-8.28c-0.129,0.115-0.282,0.223-0.458,0.324 c-0.177,0.102-0.365,0.194-0.564,0.276c-0.198,0.082-0.405,0.152-0.618,0.209c-0.214,0.057-0.426,0.099-0.634,0.123v-1.984 c0.611-0.179,1.187-0.408,1.73-0.687c0.542-0.278,1.032-0.584,1.47-0.917H28.232z"/></svg>