<svg xmlns="http://www.w3.org/2000/svg" viewBox="0 0 48 48"><linearGradient id="tX~O45fUwoFQ6YX~NB4Maa" x1="12.686" x2="35.58" y1="4.592" y2="41.841" gradientUnits="userSpaceOnUse"><stop offset="0" stop-color="#33bef0"/><stop offset="1" stop-color="#0a85d9"/></linearGradient><path fill="url(#tX~O45fUwoFQ6YX~NB4Maa)" d="M42,8H6c-1.105,0-2,0.895-2,2v26c0,1.105,0.895,2,2,2h8v7.998	c0,0.891,1.077,1.337,1.707,0.707L24.412,38H42c1.105,0,2-0.895,2-2V10C44,8.895,43.105,8,42,8z"/><path d="M35.828,16.586c-0.116-0.471-0.479-0.845-0.947-0.976c-0.474-0.13-0.983,0.001-1.33,0.349	L31.75,17.76c-0.417,0.414-1.095,0.413-1.509-0.001c-0.202-0.202-0.313-0.47-0.313-0.755s0.111-0.553,0.314-0.756l1.798-1.799	c0.347-0.347,0.481-0.855,0.349-1.329c-0.131-0.469-0.504-0.832-0.975-0.947c-0.831-0.204-1.679-0.227-2.519-0.068	c-2.596,0.488-4.596,2.654-4.863,5.266c-0.076,0.743-0.009,1.478,0.178,2.177l-1.367,1.367l-3.585-3.586l-0.096-0.581	c-0.085-0.519-0.382-0.989-0.813-1.29l-2.918-2.037c-0.597-0.419-1.404-0.349-1.918,0.167l-0.925,0.925	c-0.513,0.515-0.584,1.32-0.168,1.917l2.041,2.919c0.301,0.431,0.771,0.727,1.288,0.812l0.582,0.097l3.584,3.587l-5.035,5.035	c-1.17,1.17-1.17,3.072,0,4.242C15.445,33.688,16.199,34,17,34s1.555-0.312,2.121-0.879l9.33-9.33	C28.954,23.925,29.474,24,30.004,24c0.208,0,0.417-0.011,0.627-0.032c2.611-0.269,4.776-2.269,5.265-4.864	C36.055,18.261,36.032,17.413,35.828,16.586z" opacity=".05"/><path d="M28.607,25.365c-0.391-0.391-1.023-0.391-1.414,0l-2.829,2.828c-0.188,0.188-0.293,0.441-0.293,0.707	s0.105,0.52,0.293,0.707l3.514,3.514C28.445,33.688,29.199,34,30,34s1.555-0.312,2.121-0.879c1.17-1.17,1.17-3.072,0-4.242	L28.607,25.365z" opacity=".05"/><path d="M35.342,16.705c-0.073-0.3-0.296-0.529-0.595-0.612c-0.3-0.084-0.622,0.001-0.842,0.22l-1.8,1.8	c-0.611,0.612-1.606,0.611-2.217,0c-0.296-0.296-0.459-0.689-0.459-1.108s0.164-0.812,0.46-1.108l1.799-1.801	c0.22-0.219,0.304-0.541,0.22-0.84c-0.082-0.296-0.317-0.524-0.613-0.597c-0.76-0.187-1.536-0.207-2.307-0.062	c-2.379,0.448-4.213,2.433-4.458,4.825c-0.08,0.78,0.01,1.55,0.243,2.271l-1.93,1.93l-4.052-4.052l-0.123-0.74	c-0.063-0.387-0.284-0.736-0.605-0.961l-2.919-2.038c-0.398-0.28-0.935-0.232-1.278,0.111l-0.924,0.924	c-0.342,0.343-0.389,0.88-0.112,1.277l2.04,2.92c0.225,0.321,0.575,0.541,0.96,0.604l0.741,0.122l4.051,4.055l-5.388,5.388	c-0.975,0.975-0.975,2.561,0,3.535C15.704,33.24,16.332,33.5,17,33.5s1.296-0.26,1.768-0.732l9.555-9.555	c0.541,0.174,1.102,0.288,1.682,0.288c0.191,0,0.383-0.01,0.576-0.03c2.392-0.245,4.376-2.079,4.824-4.458	C35.55,18.239,35.529,17.463,35.342,16.705z" opacity=".07"/><path d="M27.9,25.365L24.365,28.9l3.868,3.867C28.704,33.24,29.332,33.5,30,33.5s1.296-0.26,1.768-0.732	c0.975-0.975,0.975-2.561,0-3.535L27.9,25.365z" opacity=".07"/><path fill="#fff" d="M22,24.516l-5.19-5.194l-0.899-0.149c-0.256-0.042-0.484-0.186-0.632-0.398l-2.039-2.919	c-0.138-0.198-0.115-0.466,0.056-0.637l0.924-0.924c0.171-0.171,0.439-0.194,0.637-0.056l2.92,2.039	c0.213,0.148,0.356,0.376,0.399,0.632l0.149,0.899l5.193,5.193L22,24.516z"/><path fill="#fff" d="M32.458,18.466c-0.807,0.807-2.117,0.807-2.924,0c-0.807-0.807-0.807-2.117,0-2.924	c0.197-0.197,0.991-0.991,1.8-1.8c0.194-0.194,0.108-0.533-0.159-0.598c-0.656-0.161-1.361-0.195-2.095-0.057	c-2.152,0.406-3.83,2.207-4.054,4.385c-0.326,3.177,2.325,5.827,5.502,5.501c2.179-0.224,3.979-1.902,4.384-4.054	c0.138-0.734,0.104-1.439-0.057-2.094c-0.066-0.266-0.404-0.353-0.598-0.159C33.449,17.475,32.655,18.269,32.458,18.466z"/><path fill="#fff" d="M26.086,19.086c0,0-10.109,10.109-10.5,10.5c-0.781,0.781-0.781,2.047,0,2.828	c0.781,0.781,2.047,0.781,2.828,0c0.391-0.391,10.5-10.5,10.5-10.5L26.086,19.086z"/><path fill="#fff" d="M25.072,28.9c0,0,3.123,3.123,3.514,3.514c0.781,0.781,2.047,0.781,2.828,0	c0.781-0.781,0.781-2.047,0-2.828c-0.391-0.391-3.514-3.514-3.514-3.514L25.072,28.9z"/></svg>