<svg xmlns="http://www.w3.org/2000/svg" viewBox="0 0 48 48"><radialGradient id="FJSDekCvUY6ZtY_BnXnDQa" cx="24.957" cy="20.046" r="17.629" gradientTransform="matrix(1 0 0 .9889 0 .205)" gradientUnits="userSpaceOnUse"><stop offset=".573" stop-color="#3a41ac"/><stop offset="1" stop-color="#5961c3"/></radialGradient><path fill="url(#FJSDekCvUY6ZtY_BnXnDQa)" d="M16.66,12.566L12.458,18.5c0,0-7.056-1.978-7.439-7.911C4.79,7.047,6.708,4.591,8.324,3.17 c0.503-0.442,1.26,0.048,1.057,0.683c-0.342,1.07-0.522,2.42-0.029,3.769C11.099,12.406,16.66,12.566,16.66,12.566z M39.676,3.17 c-0.503-0.442-1.26,0.048-1.057,0.683c0.342,1.07,0.522,2.42,0.029,3.769C36.901,12.406,31,12.566,31,12.566l4.542,5.934 c0,0,7.056-1.978,7.439-7.911C43.21,7.047,41.292,4.591,39.676,3.17z"/><linearGradient id="FJSDekCvUY6ZtY_BnXnDQb" x1="24.208" x2="24.074" y1="2.055" y2="30.168" gradientUnits="userSpaceOnUse"><stop offset="0" stop-color="#7b83eb"/><stop offset="1" stop-color="#5961c3"/></linearGradient><path fill="url(#FJSDekCvUY6ZtY_BnXnDQb)" d="M32,41c0-7,1.54-9.105,3.674-13.632c0.052-0.11,0.093-0.219,0.141-0.328 C37.701,27.733,40.42,27.988,42,27c2.984-1.866,2.179-5,0-5c-1.792,0-4.574-0.012-5,0c-0.199-6.463-6.982-12-13.062-12 C17.959,10,11.229,15.538,11,22c-1.208,0-3.167,0-4.5,0c-2.179,0-3.484,3.134-0.5,5c1.544,0.965,4.191,0.77,6.081,0.088 c0.041,0.094,0.076,0.187,0.12,0.281C14.336,31.895,16,34,16,41"/><ellipse cx="18" cy="27.5" fill="#292c61" rx="2" ry="1.5"/><ellipse cx="30" cy="27.5" fill="#292c61" rx="2" ry="1.5"/><linearGradient id="FJSDekCvUY6ZtY_BnXnDQc" x1="24" x2="24" y1="39.648" y2="55.33" gradientUnits="userSpaceOnUse"><stop offset="0" stop-color="#7b83eb"/><stop offset=".744" stop-color="#5961c3"/><stop offset="1" stop-color="#434ab3"/></linearGradient><ellipse cx="24" cy="41.25" fill="url(#FJSDekCvUY6ZtY_BnXnDQc)" rx="8" ry="5.75"/><circle cx="20.5" cy="41.5" r="1.5" fill="#292c61"/><circle cx="27.5" cy="41.5" r="1.5" fill="#292c61"/></svg>