<svg xmlns="http://www.w3.org/2000/svg" viewBox="0 0 48 48"><linearGradient id="134yuU7_LNzt7VM3Qthdla" x1="24" x2="24" y1="13.468" y2="43.109" gradientUnits="userSpaceOnUse"><stop offset="0" stop-color="#899198"/><stop offset="1" stop-color="#787e85"/></linearGradient><path fill="url(#134yuU7_LNzt7VM3Qthdla)" d="M42,41V16c0-1.105-0.895-2-2-2H8c-1.105,0-2,0.895-2,2v25c0,1.105,0.895,2,2,2h32	C41.105,43,42,42.105,42,41z"/><linearGradient id="134yuU7_LNzt7VM3Qthdlb" x1="24" x2="24" y1="23.021" y2="19.149" gradientUnits="userSpaceOnUse"><stop offset="0" stop-color="#0d61a9"/><stop offset="1" stop-color="#16528c"/></linearGradient><path fill="url(#134yuU7_LNzt7VM3Qthdlb)" d="M12,19h24c1.105,0,2,0.895,2,2v0c0,1.105-0.895,2-2,2H12c-1.105,0-2-0.895-2-2v0	C10,19.895,10.895,19,12,19z"/><path fill="#50e6ff" d="M35,22V6c0-0.552-0.448-1-1-1h-1c0,0.552-0.448,1-1,1s-1-0.448-1-1h-2c0,0.552-0.448,1-1,1	s-1-0.448-1-1h-2c0,0.552-0.448,1-1,1s-1-0.448-1-1h-2c0,0.552-0.448,1-1,1s-1-0.448-1-1h-2c0,0.552-0.448,1-1,1s-1-0.448-1-1h-1	c-0.552,0-1,0.448-1,1v16H35z"/><linearGradient id="134yuU7_LNzt7VM3Qthdlc" x1="11.613" x2="35.953" y1="25.752" y2="32.135" gradientUnits="userSpaceOnUse"><stop offset="0" stop-color="#4fe5ff"/><stop offset="1" stop-color="#2eb7ed"/></linearGradient><path fill="url(#134yuU7_LNzt7VM3Qthdlc)" d="M13,26h22c1.105,0,2,0.895,2,2v2c0,1.105-0.895,2-2,2H13c-1.105,0-2-0.895-2-2v-2	C11,26.895,11.895,26,13,26z"/><path fill="#057093" d="M15.5,11h9c0.276,0,0.5,0.224,0.5,0.5v1c0,0.276-0.224,0.5-0.5,0.5h-9c-0.276,0-0.5-0.224-0.5-0.5v-1	C15,11.224,15.224,11,15.5,11z M30.5,11h2c0.276,0,0.5,0.224,0.5,0.5v1c0,0.276-0.224,0.5-0.5,0.5h-2c-0.276,0-0.5-0.224-0.5-0.5v-1	C30,11.224,30.224,11,30.5,11z M30.5,15h2c0.276,0,0.5,0.224,0.5,0.5v1c0,0.276-0.224,0.5-0.5,0.5h-2c-0.276,0-0.5-0.224-0.5-0.5v-1	C30,15.224,30.224,15,30.5,15z M15.5,15h6c0.276,0,0.5,0.224,0.5,0.5v1c0,0.276-0.224,0.5-0.5,0.5h-6c-0.276,0-0.5-0.224-0.5-0.5v-1	C15,15.224,15.224,15,15.5,15z"/><path fill="#107c42" d="M36,40h-3c-0.552,0-1-0.448-1-1v-3c0-0.552,0.448-1,1-1h3c0.552,0,1,0.448,1,1v3	C37,39.552,36.552,40,36,40"/><path fill="#cad2d9" d="M15,40h-3c-0.552,0-1-0.448-1-1v-3c0-0.552,0.448-1,1-1h3c0.552,0,1,0.448,1,1v3 C16,39.552,15.552,40,15,40 M22,40h-3c-0.552,0-1-0.448-1-1v-3c0-0.552,0.448-1,1-1h3c0.552,0,1,0.448,1,1v3 C23,39.552,22.552,40,22,40 M29,40h-3c-0.552,0-1-0.448-1-1v-3c0-0.552,0.448-1,1-1h3c0.552,0,1,0.448,1,1v3 C30,39.552,29.552,40,29,40"/><rect width="22" height="3" x="13" y="20" fill="#35c1f1"/></svg>