<svg xmlns="http://www.w3.org/2000/svg" viewBox="0 0 48 48"><linearGradient id="3CYmNZpgOfMPOMLvSukmCa" x1="39.142" x2="46.137" y1="-445.954" y2="-461.188" gradientTransform="matrix(1 0 0 -1 0 -426)" gradientUnits="userSpaceOnUse"><stop offset="0" stop-color="#fed100"/><stop offset="1" stop-color="#e36001"/></linearGradient><path fill="url(#3CYmNZpgOfMPOMLvSukmCa)" d="M47,22H35c-0.553,0-1,0.448-1,1v2c0,0.552,0.447,1,1,1h12c0.552,0,1-0.448,1-1v-2 C48,22.448,47.552,22,47,22z"/><linearGradient id="3CYmNZpgOfMPOMLvSukmCb" x1="12.492" x2="19.658" y1="5.383" y2="46.022" gradientUnits="userSpaceOnUse"><stop offset="0" stop-color="#a235d4"/><stop offset=".441" stop-color="#a033d1"/><stop offset=".702" stop-color="#982cc9"/><stop offset=".915" stop-color="#8b21bb"/><stop offset="1" stop-color="#831bb3"/></linearGradient><path fill="url(#3CYmNZpgOfMPOMLvSukmCb)" d="M37.406,42.049L24.454,5.632C24.32,5.253,23.961,5,23.559,5h-8.814 c-0.399,0-0.756,0.25-0.893,0.625L0.596,42.044C0.427,42.508,0.771,43,1.265,43h7.557c0.416,0,0.784-0.271,0.907-0.668L12.006,35 h13.89l2.311,7.335C28.332,42.731,28.699,43,29.113,43h7.621C37.227,43,37.571,42.513,37.406,42.049z M14.18,28l4.722-15.209 L23.692,28H14.18z"/></svg>