<svg xmlns="http://www.w3.org/2000/svg" viewBox="0 0 48 48"><linearGradient id="GcBQ11NszQrK3rWcTB2~9a" x1="21.87" x2="42.893" y1="21.87" y2="42.893" gradientUnits="userSpaceOnUse"><stop offset="0" stop-color="#01ffff"/><stop offset=".184" stop-color="#10efff"/><stop offset=".543" stop-color="#37c5ff"/><stop offset="1" stop-color="#7088ff"/></linearGradient><path fill="url(#GcBQ11NszQrK3rWcTB2~9a)" d="M40,42H8c-1.105,0-2-0.895-2-2V8c0-1.105,0.895-2,2-2h32c1.105,0,2,0.895,2,2v32	C42,41.105,41.105,42,40,42z"/><path d="M16.562,9.987C16.563,9.987,16.563,9.987,16.562,9.987c2.046,0,3.846,1.37,4.393,3.338l0.472,1.573l0.415-1.53 c0.533-1.991,2.345-3.381,4.405-3.381h0c0.398,0,0.796,0.053,1.182,0.156c1.177,0.315,2.161,1.07,2.77,2.125 s0.771,2.284,0.456,3.461l-0.678,2.531c0.903,0.333,1.669,0.936,2.206,1.74c0.002,0,0.003,0,0.005,0 c0.398,0,0.796,0.052,1.182,0.156c2.429,0.651,3.876,3.157,3.225,5.586l-0.771,2.878c-0.377,1.408-1.396,2.515-2.69,3.042 C31.497,35.462,27.739,38,23.5,38C17.71,38,13,33.29,13,27.5v-1.25V25c0-1.032,0.314-2.013,0.881-2.833l-1.725-6.438 c-0.651-2.429,0.796-4.935,3.225-5.586C15.767,10.039,16.165,9.987,16.562,9.987 M16.988,22.182C17.31,22.067,17.653,22,18,22h6 c0.628,0,1.223,0.196,1.725,0.549l2.033-7.598c0.219-0.833-0.276-1.689-1.105-1.908c-0.136-0.037-0.275-0.055-0.412-0.055 c-0.268,0-0.531,0.07-0.769,0.208c-0.363,0.209-0.621,0.547-0.728,0.952l-1.491,5.503C23.033,20.446,22.309,21,21.49,21 c-0.812,0-1.532-0.536-1.751-1.304l-1.668-5.532c-0.112-0.422-0.37-0.76-0.733-0.969c-0.238-0.138-0.502-0.209-0.769-0.209 c-0.136,0-0.273,0.018-0.408,0.056C15.476,13.221,15,13.841,15,14.55c0,0.14,0.018,0.273,0.052,0.396L16.988,22.182 M27.08,29.03 c0.703,0,1.318-0.476,1.496-1.156l1.321-4.933c0.11-0.402,0.056-0.822-0.152-1.183c-0.208-0.361-0.543-0.619-0.943-0.726 c-0.138-0.038-0.276-0.055-0.412-0.055c-0.688,0-1.318,0.459-1.507,1.154l-0.344,1.291C26.832,23.886,27,24.433,27,25 c0,1.091-0.591,2.038-1.463,2.563c0.037,0.654,0.477,1.242,1.13,1.414C26.8,29.014,26.934,29.03,27.08,29.03 M31.421,29.001 c0.27,0,0.537-0.071,0.777-0.209c0.361-0.208,0.62-0.545,0.728-0.948l0.771-2.877c0.223-0.832-0.272-1.69-1.104-1.913 C32.458,23.018,32.322,23,32.189,23c-0.69,0-1.323,0.461-1.509,1.157l-0.771,2.878c-0.223,0.832,0.272,1.689,1.104,1.912 C31.148,28.984,31.285,29.001,31.421,29.001 M23.5,35c0.214,0,0.419-0.009,0.624-0.028c0.248-0.019,0.453-0.047,0.657-0.084 c0.199-0.028,0.382-0.071,0.564-0.114c0.02-0.008,0.041-0.014,0.061-0.019l0-0.001c0.157-0.037,0.305-0.084,0.453-0.131 l0.215-0.081c0.035-0.023,0.069-0.029,0.109-0.043c0.13-0.047,0.259-0.103,0.389-0.158c0.125-0.054,0.248-0.115,0.37-0.186 c0.041-0.022,0.084-0.04,0.129-0.051c0.056-0.042,0.099-0.062,0.142-0.091c0.156-0.091,0.274-0.164,0.394-0.246 c0.02-0.013,0.04-0.025,0.061-0.035c0.012-0.01,0.025-0.019,0.038-0.026c0.144-0.09,0.287-0.198,0.422-0.307 c0.145-0.119,0.288-0.243,0.429-0.367c0.133-0.107,0.195-0.171,0.25-0.226c0.066-0.065,0.132-0.131,0.19-0.205 c0.153-0.175,0.288-0.336,0.422-0.497c0.117-0.148,0.208-0.275,0.29-0.404c0.011-0.022,0.048-0.078,0.063-0.099 c0.106-0.15,0.204-0.31,0.292-0.479c0.026-0.057,0.059-0.109,0.096-0.149c0.042-0.084,0.119-0.261,0.19-0.428 c0.087-0.195,0.161-0.38,0.226-0.574c0.015-0.039,0.022-0.074,0.035-0.112c-0.565-0.188-1.04-0.557-1.357-1.063 c-0.452,0.747-1.265,1.233-2.174,1.233c-0.238,0-0.458-0.029-0.673-0.089c-0.961-0.252-1.664-1.055-1.844-1.998 C24.38,27.978,24.193,28,24,28h-1.058C23.593,28.636,24,29.52,24,30.5v1c0,0.276-0.224,0.5-0.5,0.5S23,31.776,23,31.5v-1 c0-1.379-1.122-2.5-2.5-2.5h-1c-0.276,0-0.5-0.224-0.5-0.5s0.224-0.5,0.5-0.5h1H24c1.103,0,2-0.897,2-2 c0-0.436-0.132-0.838-0.381-1.166c-0.023-0.026-0.044-0.056-0.062-0.087c-0.048-0.062-0.09-0.114-0.138-0.161 C25.04,23.207,24.537,23,24,23h-6c-0.386,0-0.764,0.109-1.065,0.308c-0.079,0.053-0.151,0.106-0.223,0.161 c-0.044,0.04-0.106,0.103-0.167,0.164c-0.06,0.053-0.091,0.093-0.138,0.163c-0.08,0.105-0.129,0.188-0.179,0.271 c-0.011,0.025-0.042,0.085-0.064,0.151c-0.08,0.185-0.122,0.342-0.148,0.538C16.009,24.825,16,24.917,16,25v2.5 C16,31.636,19.364,35,23.5,35 M26.248,8.987C26.248,8.987,26.248,8.987,26.248,8.987c-2.036,0-3.872,1.113-4.841,2.827 c-0.966-1.708-2.81-2.827-4.843-2.827c-0.485,0-0.97,0.064-1.441,0.19c-2.962,0.794-4.726,3.849-3.933,6.811l1.612,6.015 C12.276,22.91,12,23.937,12,25v1.25v1.25C12,33.841,17.159,39,23.5,39c4.462,0,8.498-2.571,10.39-6.583 c1.418-0.706,2.488-2.002,2.899-3.538l0.771-2.878c0.794-2.962-0.97-6.018-3.932-6.811c-0.303-0.081-0.612-0.137-0.924-0.166 c-0.432-0.533-0.954-0.976-1.545-1.313l0.462-1.723c0.384-1.435,0.187-2.934-0.556-4.22c-0.743-1.286-1.942-2.207-3.377-2.591 C27.218,9.051,26.733,8.987,26.248,8.987L26.248,8.987L26.248,8.987z M17.71,21.011l-1.692-6.323 C16.008,14.654,16,14.611,16,14.55c0-0.255,0.17-0.477,0.413-0.54c0.061-0.017,0.109-0.023,0.156-0.023 c0.093,0,0.183,0.025,0.267,0.074c0.137,0.079,0.226,0.199,0.268,0.36l1.677,5.565c0.108,0.379,0.297,0.723,0.545,1.015H18 C17.904,21,17.807,21.004,17.71,21.011L17.71,21.011z M23.642,21c0.262-0.308,0.462-0.675,0.574-1.083l1.492-5.508 c0.041-0.154,0.131-0.271,0.262-0.347c0.086-0.049,0.176-0.074,0.27-0.074c0.049,0,0.1,0.007,0.15,0.02 c0.302,0.08,0.479,0.388,0.4,0.689l-1.725,6.448C24.721,21.049,24.363,21,24,21H23.642L23.642,21z M27.608,23.292l0.241-0.902 c0.066-0.24,0.289-0.412,0.541-0.412c0.05,0,0.1,0.007,0.149,0.02c0.149,0.04,0.264,0.129,0.34,0.261 c0.074,0.129,0.093,0.274,0.053,0.419l-1.322,4.937c-0.064,0.247-0.282,0.415-0.53,0.415c-0.074,0-0.115-0.009-0.145-0.017 c-0.076-0.02-0.144-0.056-0.202-0.105C27.538,27.161,28,26.121,28,25C28,24.407,27.865,23.825,27.608,23.292L27.608,23.292z M31.421,28.001c-0.049,0-0.099-0.007-0.149-0.02c-0.145-0.039-0.265-0.132-0.34-0.262c-0.075-0.13-0.095-0.281-0.057-0.425 l0.771-2.878C31.712,24.171,31.935,24,32.189,24c0.047,0,0.095,0.007,0.144,0.02c0.144,0.039,0.265,0.132,0.34,0.262 c0.075,0.13,0.095,0.282,0.057,0.426l-0.771,2.877c-0.039,0.147-0.129,0.265-0.261,0.34 C31.611,27.976,31.518,28.001,31.421,28.001L31.421,28.001z M17.356,24.236c0.044-0.033,0.089-0.066,0.136-0.098 C17.623,24.052,17.811,24,18,24h6c0.274,0,0.52,0.101,0.711,0.293c0.009,0.01,0.017,0.019,0.025,0.028 c0.031,0.047,0.064,0.092,0.1,0.135C24.945,24.608,25,24.791,25,25c0,0.551-0.449,1-1,1h-3.5h-1c-0.827,0-1.5,0.673-1.5,1.5 s0.673,1.5,1.5,1.5h1c0.827,0,1.5,0.673,1.5,1.5v1c0,0.827,0.673,1.5,1.5,1.5s1.5-0.673,1.5-1.5v-1 c0-0.046-0.001-0.093-0.002-0.139c0.344,0.249,0.734,0.437,1.156,0.547c0.291,0.081,0.598,0.121,0.927,0.121 c0.798,0,1.567-0.277,2.184-0.762c0.029,0.022,0.059,0.044,0.089,0.065c-0.019,0.043-0.036,0.082-0.051,0.116 c-0.049,0.07-0.093,0.146-0.132,0.228c-0.063,0.119-0.135,0.236-0.215,0.349c-0.018,0.026-0.056,0.084-0.089,0.138l0,0 c-0.066,0.103-0.139,0.204-0.233,0.323c-0.111,0.133-0.241,0.288-0.389,0.457l-0.018,0.02l-0.017,0.021 c-0.032,0.041-0.07,0.076-0.107,0.112c-0.05,0.049-0.091,0.091-0.173,0.157c-0.165,0.143-0.3,0.261-0.437,0.373 c-0.096,0.077-0.207,0.162-0.318,0.232l-0.048,0.03c-0.022,0.013-0.044,0.027-0.066,0.041c-0.121,0.083-0.22,0.144-0.351,0.22 l-0.027,0.015l-0.026,0.017c-0.009,0.006-0.019,0.011-0.028,0.017c-0.059,0.024-0.117,0.051-0.173,0.082 c-0.101,0.058-0.189,0.102-0.279,0.141c-0.118,0.051-0.226,0.098-0.335,0.137c-0.026,0.007-0.096,0.028-0.184,0.071l-0.129,0.049 c-0.116,0.037-0.232,0.074-0.355,0.103l-0.402,0.095c-0.044,0.008-0.088,0.016-0.134,0.022c-0.228,0.041-0.398,0.062-0.591,0.077 C23.855,33.993,23.681,34,23.5,34c-3.584,0-6.5-2.916-6.5-6.5V25c0-0.049,0.007-0.103,0.011-0.144 c0.011-0.078,0.029-0.145,0.07-0.24l0.015-0.035l0.013-0.036l0.005-0.01c0.026-0.044,0.053-0.087,0.092-0.137l0.018-0.023 l0.012-0.017l0.021-0.02C17.297,24.295,17.33,24.261,17.356,24.236L17.356,24.236z" opacity=".05"/><path d="M16.562,9.987C16.563,9.987,16.563,9.987,16.562,9.987c2.046,0,3.846,1.37,4.393,3.338l0.472,1.573l0.415-1.53 c0.533-1.991,2.345-3.381,4.405-3.381h0c0.398,0,0.796,0.053,1.182,0.156c1.177,0.315,2.161,1.07,2.77,2.125 s0.771,2.284,0.456,3.461l-0.678,2.531c0.903,0.333,1.669,0.936,2.206,1.74c0.002,0,0.003,0,0.005,0 c0.398,0,0.796,0.052,1.182,0.156c2.429,0.651,3.876,3.157,3.225,5.586l-0.771,2.878c-0.377,1.408-1.396,2.515-2.69,3.042 C31.497,35.462,27.739,38,23.5,38C17.71,38,13,33.29,13,27.5v-1.25V25c0-1.032,0.314-2.013,0.881-2.833l-1.725-6.438 c-0.651-2.429,0.796-4.935,3.225-5.586C15.767,10.039,16.165,9.987,16.562,9.987 M16.988,22.182C17.31,22.067,17.653,22,18,22h6 c0.628,0,1.223,0.196,1.725,0.549l2.033-7.598c0.219-0.833-0.276-1.689-1.105-1.908c-0.136-0.037-0.275-0.055-0.412-0.055 c-0.268,0-0.531,0.07-0.769,0.208c-0.363,0.209-0.621,0.547-0.728,0.952l-1.491,5.503C23.033,20.446,22.309,21,21.49,21 c-0.812,0-1.532-0.536-1.751-1.304l-1.668-5.532c-0.112-0.422-0.37-0.76-0.733-0.969c-0.238-0.138-0.502-0.209-0.769-0.209 c-0.136,0-0.273,0.018-0.408,0.056C15.476,13.221,15,13.841,15,14.55c0,0.14,0.018,0.273,0.052,0.396L16.988,22.182 M27.08,29.03 c0.703,0,1.318-0.476,1.496-1.156l1.321-4.933c0.11-0.402,0.056-0.822-0.152-1.183c-0.208-0.361-0.543-0.619-0.943-0.726 c-0.138-0.038-0.276-0.055-0.412-0.055c-0.688,0-1.318,0.459-1.507,1.154l-0.344,1.291C26.832,23.886,27,24.433,27,25 c0,1.091-0.591,2.038-1.463,2.563c0.037,0.654,0.477,1.242,1.13,1.414C26.8,29.014,26.934,29.03,27.08,29.03 M31.421,29.001 c0.27,0,0.537-0.071,0.777-0.209c0.361-0.208,0.62-0.545,0.728-0.948l0.771-2.877c0.223-0.832-0.272-1.69-1.104-1.913 C32.458,23.018,32.322,23,32.189,23c-0.69,0-1.323,0.461-1.509,1.157l-0.771,2.878c-0.223,0.832,0.272,1.689,1.104,1.912 C31.148,28.984,31.285,29.001,31.421,29.001 M23.5,35c0.214,0,0.419-0.009,0.624-0.028c0.248-0.019,0.453-0.047,0.657-0.084 c0.199-0.028,0.382-0.071,0.564-0.114c0.02-0.008,0.041-0.014,0.061-0.019l0-0.001c0.157-0.037,0.305-0.084,0.453-0.131 l0.215-0.081c0.035-0.023,0.069-0.029,0.109-0.043c0.13-0.047,0.259-0.103,0.389-0.158c0.125-0.054,0.248-0.115,0.37-0.186 c0.041-0.022,0.084-0.04,0.129-0.051c0.056-0.042,0.099-0.062,0.142-0.091c0.156-0.091,0.274-0.164,0.394-0.246 c0.02-0.013,0.04-0.025,0.061-0.035c0.012-0.01,0.025-0.019,0.038-0.026c0.144-0.09,0.287-0.198,0.422-0.307 c0.145-0.119,0.288-0.243,0.429-0.367c0.133-0.107,0.195-0.171,0.25-0.226c0.066-0.065,0.132-0.131,0.19-0.205 c0.153-0.175,0.288-0.336,0.422-0.497c0.117-0.148,0.208-0.275,0.29-0.404c0.011-0.022,0.048-0.078,0.063-0.099 c0.106-0.15,0.204-0.31,0.292-0.479c0.026-0.057,0.059-0.109,0.096-0.149c0.042-0.084,0.119-0.261,0.19-0.428 c0.087-0.195,0.161-0.38,0.226-0.574c0.015-0.039,0.022-0.074,0.035-0.112c-0.565-0.188-1.04-0.557-1.357-1.063 c-0.452,0.747-1.265,1.233-2.174,1.233c-0.238,0-0.458-0.029-0.673-0.089c-0.961-0.252-1.664-1.055-1.844-1.998 C24.38,27.978,24.193,28,24,28h-1.058C23.593,28.636,24,29.52,24,30.5v1c0,0.276-0.224,0.5-0.5,0.5S23,31.776,23,31.5v-1 c0-1.379-1.122-2.5-2.5-2.5h-1c-0.276,0-0.5-0.224-0.5-0.5s0.224-0.5,0.5-0.5h1H24c1.103,0,2-0.897,2-2 c0-0.436-0.132-0.838-0.381-1.166c-0.023-0.026-0.044-0.056-0.062-0.087c-0.048-0.062-0.09-0.114-0.138-0.161 C25.04,23.207,24.537,23,24,23h-6c-0.386,0-0.764,0.109-1.065,0.308c-0.079,0.053-0.151,0.106-0.223,0.161 c-0.044,0.04-0.106,0.103-0.167,0.164c-0.06,0.053-0.091,0.093-0.138,0.163c-0.08,0.105-0.129,0.188-0.179,0.271 c-0.011,0.025-0.042,0.085-0.064,0.151c-0.08,0.185-0.122,0.342-0.148,0.538C16.009,24.825,16,24.917,16,25v2.5 C16,31.636,19.364,35,23.5,35 M26.248,9.487C26.248,9.487,26.248,9.487,26.248,9.487c-2.231,0-4.198,1.469-4.842,3.593 c-0.638-2.117-2.615-3.593-4.842-3.593c-0.442,0-0.883,0.058-1.311,0.173c-2.696,0.722-4.301,3.503-3.579,6.199l1.667,6.221 C12.79,22.952,12.5,23.957,12.5,25v1.25v1.25c0,6.065,4.935,11,11,11c4.327,0,8.235-2.528,10.011-6.457 c1.368-0.624,2.405-1.841,2.794-3.294l0.771-2.878c0.722-2.696-0.883-5.477-3.579-6.199c-0.345-0.092-0.698-0.148-1.052-0.166 c-0.493-0.662-1.132-1.186-1.874-1.538l0.565-2.11c0.35-1.306,0.17-2.67-0.506-3.841c-0.676-1.171-1.767-2.008-3.073-2.358 C27.131,9.545,26.69,9.487,26.248,9.487L26.248,9.487L26.248,9.487z M17.341,21.566l-1.806-6.749 c-0.023-0.085-0.035-0.173-0.035-0.267c0-0.482,0.324-0.903,0.787-1.024c0.097-0.027,0.19-0.04,0.282-0.04 c0.18,0,0.359,0.049,0.518,0.141c0.251,0.145,0.424,0.374,0.501,0.664l1.673,5.548c0.278,0.974,1.195,1.659,2.23,1.659H18 C17.782,21.5,17.561,21.522,17.341,21.566L17.341,21.566z M21.49,21.5c1.042,0,1.965-0.706,2.244-1.717l1.491-5.505 c0.073-0.278,0.249-0.508,0.495-0.65c0.162-0.094,0.337-0.141,0.52-0.141c0.094,0,0.188,0.013,0.281,0.038 c0.566,0.149,0.902,0.731,0.752,1.298l-1.866,6.974C24.966,21.602,24.489,21.5,24,21.5H21.49L21.49,21.5z M27.075,23.349 l0.29-1.089c0.125-0.46,0.547-0.783,1.024-0.783c0.094,0,0.188,0.013,0.281,0.038c0.273,0.073,0.5,0.248,0.642,0.493 c0.14,0.244,0.177,0.529,0.103,0.801l-1.321,4.935c-0.121,0.464-0.537,0.786-1.013,0.786c-0.104,0-0.192-0.011-0.279-0.035 c-0.348-0.092-0.613-0.357-0.718-0.696C26.976,27.138,27.5,26.115,27.5,25C27.5,24.423,27.354,23.857,27.075,23.349L27.075,23.349 z M31.421,28.501c-0.093,0-0.187-0.012-0.278-0.037c-0.273-0.073-0.502-0.249-0.644-0.495c-0.142-0.246-0.18-0.532-0.107-0.805 l0.771-2.878c0.124-0.463,0.546-0.787,1.026-0.787c0.091,0,0.183,0.012,0.273,0.037c0.273,0.073,0.502,0.249,0.644,0.495 c0.142,0.246,0.18,0.532,0.107,0.806l-0.771,2.877c-0.073,0.274-0.249,0.503-0.494,0.644 C31.786,28.452,31.604,28.501,31.421,28.501L31.421,28.501z M23.5,34.5c-3.86,0-7-3.14-7-7V25c0-0.066,0.008-0.139,0.013-0.193 c0.019-0.139,0.05-0.253,0.109-0.389c0.024-0.065,0.038-0.093,0.046-0.111c0.033-0.056,0.073-0.124,0.137-0.209 c0.047-0.069,0.052-0.074,0.071-0.09l0.012-0.011l0.027-0.028c0.048-0.049,0.096-0.097,0.131-0.129 c0.032-0.022,0.096-0.07,0.167-0.117C17.431,23.58,17.711,23.5,18,23.5h6c0.404,0,0.782,0.156,1.065,0.439 c0.03,0.029,0.053,0.059,0.079,0.091c0.03,0.048,0.064,0.093,0.101,0.136C25.403,24.377,25.5,24.676,25.5,25 c0,0.827-0.673,1.5-1.5,1.5h-3.5h-1c-0.551,0-1,0.449-1,1s0.449,1,1,1h1c1.103,0,2,0.897,2,2v1c0,0.551,0.449,1,1,1s1-0.449,1-1 v-1c0-0.713-0.187-1.398-0.538-2H24c0.065,0,0.13-0.002,0.196-0.006c0.336,0.942,1.115,1.677,2.084,1.931 c0.254,0.07,0.517,0.105,0.8,0.105c0.823,0,1.611-0.344,2.179-0.928c0.212,0.212,0.455,0.391,0.723,0.532 c-0.028,0.07-0.058,0.138-0.089,0.208c-0.058,0.137-0.117,0.273-0.158,0.361c-0.048,0.063-0.09,0.134-0.126,0.212 c-0.064,0.12-0.15,0.262-0.246,0.398c-0.016,0.022-0.051,0.076-0.077,0.119c-0.074,0.116-0.156,0.23-0.261,0.363 c-0.123,0.147-0.255,0.305-0.405,0.477c-0.062,0.079-0.115,0.128-0.166,0.179c-0.058,0.057-0.109,0.109-0.212,0.191 c-0.153,0.134-0.292,0.254-0.433,0.37c-0.115,0.093-0.242,0.189-0.37,0.269l-0.024,0.015l-0.01,0.007 c-0.025,0.014-0.049,0.028-0.072,0.044c-0.12,0.083-0.229,0.15-0.372,0.233l-0.002,0.001l-0.051,0.031 c-0.018,0.011-0.037,0.022-0.057,0.035c-0.052,0.019-0.103,0.042-0.152,0.069c-0.112,0.064-0.217,0.117-0.324,0.163 c-0.127,0.054-0.244,0.105-0.362,0.148c-0.036,0.011-0.091,0.027-0.152,0.059l-0.179,0.067c-0.111,0.034-0.247,0.078-0.391,0.112 l-0.411,0.097c-0.055,0.011-0.111,0.02-0.169,0.028c-0.227,0.041-0.413,0.065-0.624,0.08C23.887,34.492,23.698,34.5,23.5,34.5 L23.5,34.5z" opacity=".07"/><path fill="#343434" d="M33.369,20.156C32.983,20.052,32.585,20,32.187,20c-0.002,0-0.003,0-0.005,0 c-0.536-0.803-1.302-1.407-2.206-1.74l0.678-2.531c0.315-1.177,0.154-2.406-0.456-3.461s-1.593-1.81-2.77-2.125 c-0.385-0.103-0.783-0.156-1.182-0.156h0c-2.06,0-3.871,1.39-4.405,3.381l-0.415,1.53l-0.472-1.573 c-0.548-1.968-2.348-3.338-4.393-3.338c-0.398,0-0.796,0.052-1.182,0.156c-2.429,0.651-3.876,3.157-3.225,5.586l1.725,6.438 C13.314,22.987,13,23.968,13,25v1.25v1.25C13,33.29,17.71,38,23.5,38c4.239,0,7.997-2.538,9.633-6.338 c1.294-0.526,2.312-1.634,2.69-3.042l0.771-2.878C37.245,23.313,35.798,20.807,33.369,20.156z M25.406,34.755 c-0.021,0.005-0.041,0.011-0.061,0.019c-0.182,0.043-0.365,0.086-0.564,0.114c-0.205,0.037-0.409,0.065-0.657,0.084 C23.919,34.991,23.714,35,23.5,35c-4.136,0-7.5-3.364-7.5-7.5V25c0-0.083,0.009-0.175,0.016-0.243 c0.026-0.196,0.068-0.354,0.148-0.538c0.023-0.066,0.054-0.126,0.064-0.151c0.05-0.083,0.099-0.166,0.179-0.271 c0.047-0.07,0.079-0.11,0.138-0.163c0.061-0.062,0.123-0.124,0.167-0.164c0.072-0.055,0.145-0.108,0.223-0.161 C17.236,23.109,17.614,23,18,23h6c0.537,0,1.04,0.207,1.418,0.586c0.048,0.047,0.09,0.1,0.138,0.161 c0.018,0.031,0.039,0.061,0.062,0.087C25.868,24.162,26,24.564,26,25c0,1.103-0.897,2-2,2h-3.5h-1c-0.276,0-0.5,0.224-0.5,0.5 s0.224,0.5,0.5,0.5h1c1.378,0,2.5,1.121,2.5,2.5v1c0,0.276,0.224,0.5,0.5,0.5s0.5-0.224,0.5-0.5v-1c0-0.98-0.407-1.864-1.058-2.5 H24c0.193,0,0.38-0.022,0.563-0.057c0.179,0.943,0.883,1.747,1.844,1.998c0.215,0.06,0.436,0.089,0.673,0.089 c0.908,0,1.722-0.486,2.174-1.233c0.317,0.506,0.791,0.875,1.357,1.063c-0.013,0.038-0.02,0.073-0.035,0.112 c-0.064,0.194-0.138,0.379-0.226,0.574c-0.071,0.167-0.148,0.344-0.19,0.428c-0.037,0.04-0.07,0.093-0.096,0.149 c-0.088,0.169-0.187,0.328-0.292,0.479c-0.015,0.021-0.052,0.076-0.063,0.099c-0.082,0.129-0.173,0.256-0.29,0.404 c-0.134,0.161-0.269,0.322-0.422,0.497c-0.058,0.074-0.124,0.14-0.19,0.205c-0.055,0.055-0.117,0.118-0.25,0.226 c-0.142,0.124-0.284,0.248-0.429,0.367c-0.135,0.108-0.278,0.217-0.422,0.307c-0.013,0.008-0.026,0.017-0.038,0.026 c-0.021,0.01-0.042,0.022-0.061,0.035c-0.119,0.082-0.237,0.155-0.394,0.246c-0.042,0.028-0.085,0.049-0.142,0.091 c-0.045,0.011-0.089,0.028-0.129,0.051c-0.123,0.07-0.245,0.132-0.37,0.186c-0.13,0.056-0.259,0.111-0.389,0.158 c-0.04,0.014-0.074,0.02-0.109,0.043l-0.215,0.081C25.71,34.67,25.562,34.717,25.406,34.755L25.406,34.755z M29.897,22.941 l-1.321,4.933c-0.178,0.681-0.793,1.156-1.496,1.156c-0.146,0-0.28-0.017-0.413-0.054c-0.654-0.172-1.093-0.759-1.13-1.414 C26.409,27.038,27,26.091,27,25c0-0.567-0.168-1.114-0.462-1.577l0.344-1.291c0.227-0.833,1.085-1.326,1.919-1.099 c0.4,0.106,0.735,0.364,0.943,0.726C29.953,22.119,30.007,22.539,29.897,22.941z M27.757,14.951l-2.033,7.598 C25.223,22.196,24.628,22,24,22h-6c-0.347,0-0.69,0.067-1.012,0.182l-1.936-7.236C15.018,14.823,15,14.689,15,14.55 c0-0.709,0.476-1.329,1.161-1.508c0.398-0.11,0.817-0.056,1.177,0.153c0.363,0.209,0.621,0.547,0.733,0.969l1.668,5.532 C19.958,20.464,20.678,21,21.49,21c0.818,0,1.542-0.554,1.762-1.35l1.491-5.503c0.107-0.405,0.365-0.743,0.728-0.952 c0.36-0.208,0.778-0.262,1.181-0.152C27.481,13.262,27.977,14.118,27.757,14.951z M32.198,28.792 c-0.361,0.208-0.78,0.264-1.185,0.155c-0.832-0.223-1.327-1.08-1.104-1.912l0.771-2.878C30.867,23.461,31.5,23,32.189,23 c0.133,0,0.268,0.018,0.403,0.054c0.832,0.223,1.327,1.081,1.104,1.913l-0.771,2.877C32.817,28.247,32.559,28.584,32.198,28.792z"/></svg>