<svg xmlns="http://www.w3.org/2000/svg" viewBox="0 0 48 48"><linearGradient id="~WPIxnx1PmAGtzpwVO0a6a" x1="20.375" x2="28.748" y1="378.939" y2="349.054" gradientTransform="matrix(1 0 0 -1 0 390)" gradientUnits="userSpaceOnUse"><stop offset="0" stop-color="#32bdef"/><stop offset="1" stop-color="#1ea2e4"/></linearGradient><path fill="url(#~WPIxnx1PmAGtzpwVO0a6a)" d="M43.125,9H4.875C3.287,9,2,10.287,2,11.875v24.25C2,37.713,3.287,39,4.875,39h38.25	C44.713,39,46,37.713,46,36.125v-24.25C46,10.287,44.713,9,43.125,9z"/><linearGradient id="~WPIxnx1PmAGtzpwVO0a6b" x1="2" x2="46" y1="374" y2="374" gradientTransform="matrix(1 0 0 -1 0 390)" gradientUnits="userSpaceOnUse"><stop offset="0" stop-color="#45494d"/><stop offset="1" stop-color="#6d7479"/></linearGradient><rect width="44" height="4" x="2" y="14" fill="url(#~WPIxnx1PmAGtzpwVO0a6b)"/><path fill="#a8e7ff" d="M42,24H6c-0.552,0-1-0.448-1-1v-2c0-0.552,0.448-1,1-1h36c0.552,0,1,0.448,1,1v2	C43,23.552,42.552,24,42,24z"/><radialGradient id="~WPIxnx1PmAGtzpwVO0a6c" cx="24.255" cy="35.043" r="13.813" gradientUnits="userSpaceOnUse"><stop offset="0"/><stop offset="1" stop-opacity="0"/></radialGradient><path fill="url(#~WPIxnx1PmAGtzpwVO0a6c)" d="M24,21c-7.68,0-13.929,6.249-13.929,13.929c0,1.416,0.215,2.783,0.61,4.071h26.637	c0.395-1.289,0.61-2.655,0.61-4.071C37.929,27.249,31.68,21,24,21z"/><linearGradient id="~WPIxnx1PmAGtzpwVO0a6d" x1="15.565" x2="32.435" y1="636.494" y2="653.363" gradientTransform="translate(0 -610)" gradientUnits="userSpaceOnUse"><stop offset="0" stop-color="#889097"/><stop offset="1" stop-color="#64717c"/></linearGradient><circle cx="24" cy="34.929" r="11.929" fill="url(#~WPIxnx1PmAGtzpwVO0a6d)"/><radialGradient id="~WPIxnx1PmAGtzpwVO0a6e" cx="23.935" cy="635.232" r="22.285" gradientTransform="translate(0 -610)" gradientUnits="userSpaceOnUse"><stop offset="0" stop-color="#fafafb"/><stop offset="1" stop-color="#c8cdd1"/></radialGradient><circle cx="24" cy="35" r="10" fill="url(#~WPIxnx1PmAGtzpwVO0a6e)"/><path fill="#4a4f53" d="M20.824,37.056c-0.409,0.198-0.943,0.297-1.602,0.297c-0.859,0-1.535-0.252-2.027-0.758 s-0.738-1.178-0.738-2.02c0-0.896,0.277-1.623,0.83-2.18s1.271-0.836,2.154-0.836c0.547,0,1.008,0.069,1.383,0.207v1.215 c-0.375-0.224-0.802-0.336-1.281-0.336c-0.526,0-0.951,0.166-1.273,0.496s-0.484,0.779-0.484,1.344 c0,0.542,0.152,0.973,0.457,1.295s0.715,0.482,1.23,0.482c0.492,0,0.943-0.12,1.352-0.359V37.056z"/><path fill="#4a4f53" d="M26.465,31.654l-1.93,5.602h-1.43l-1.906-5.602h1.359l1.168,3.898 c0.063,0.211,0.1,0.397,0.113,0.559h0.023c0.018-0.174,0.059-0.366,0.121-0.574l1.16-3.883H26.465z"/><path fill="#4a4f53" d="M31.801,31.654l-1.93,5.602h-1.43l-1.906-5.602h1.359l1.168,3.898 c0.063,0.211,0.1,0.397,0.113,0.559h0.023c0.018-0.174,0.059-0.366,0.121-0.574l1.16-3.883H31.801z"/></svg>