<svg xmlns="http://www.w3.org/2000/svg" viewBox="0 0 48 48"><path fill="#0370c8" d="M32.745,19.038c-2.271,0-4.405-0.884-6.011-2.49c-3.314-3.314-3.314-8.707,0-12.021 c1.606-1.605,3.739-2.489,6.011-2.489c2.271,0,4.404,0.884,6.01,2.49l0,0l0,0c3.314,3.314,3.314,8.707,0,12.021 C37.149,18.154,35.015,19.038,32.745,19.038z M32.746,4.039c-1.736,0-3.369,0.676-4.597,1.904c-2.534,2.534-2.534,6.658,0,9.192 c1.228,1.228,2.861,1.904,4.597,1.904c1.735,0,3.368-0.676,4.596-1.904c2.534-2.534,2.534-6.658,0-9.192l0,0 C36.114,4.715,34.481,4.039,32.746,4.039z"/><linearGradient id="6Af016quOteidb_Yvn_b5a" x1="50.443" x2="38.983" y1="-2428.174" y2="-2428.174" gradientTransform="scale(1 -1) rotate(45 -2865.386 -1246.012)" gradientUnits="userSpaceOnUse"><stop offset="0" stop-color="#0370c8"/><stop offset=".063" stop-color="#0176d2"/><stop offset=".139" stop-color="#007ad9"/><stop offset=".247" stop-color="#0e88e2"/><stop offset=".417" stop-color="#1b95ea"/><stop offset=".627" stop-color="#249eef"/><stop offset=".998" stop-color="#26a0f1"/></linearGradient><polygon fill="url(#6Af016quOteidb_Yvn_b5a)" points="36.453,25.077 22.037,23.286 22.037,21.408 30.491,19.529"/><path fill="#0370c8" d="M20,24.645l0.019-4.293C20.019,20.157,20.176,20,20.37,20l0.523,0C22.057,20,23,20.95,23,22.121 v0.757C23,24.05,22.057,25,20.893,25h-0.542C20.157,25,20,24.842,20,24.646C20,24.646,20,24.645,20,24.645z"/><linearGradient id="6Af016quOteidb_Yvn_b5b" x1="51.597" x2="58.89" y1="-2420.257" y2="-2440.293" gradientTransform="scale(1 -1) rotate(45 -2865.386 -1246.012)" gradientUnits="userSpaceOnUse"><stop offset="0" stop-color="#2aa4f4"/><stop offset="1" stop-color="#007ad9"/></linearGradient><path fill="url(#6Af016quOteidb_Yvn_b5b)" d="M29.771,12.177l-3.337,3.337c-0.21,0.21-0.222,0.539-0.027,0.734l1.061,1.061l4.95-4.95 l-1.574-0.472C30.475,11.776,30.06,11.889,29.771,12.177z"/><path fill="#21a366" d="M15.22,25.171c1.824,1.843,2.826,4.346,2.777,6.939c0.006,1.923,0,5.447,0,5.447L4.286,22.194 C4.286,22.194,10.912,20.871,15.22,25.171z"/><path fill="#33c481" d="M4.286,22.194c0,0-1.652,6.279,2.982,10.912C11.364,37.202,16,35.001,16,39.001V45h2l-0.003-7.842 c0-0.826-0.329-1.619-0.914-2.202L4.286,22.194z"/><path fill="#21a366" d="M27.412,30.346l-9.41,10.544c0,0-0.004-2.419,0-3.739c-0.033-1.78,0.654-3.497,1.906-4.762 C22.865,29.438,27.412,30.346,27.412,30.346z"/><path fill="#33c481" d="M18.629,39.106c-0.402,0.401-0.627,0.944-0.627,1.512c0,0,4.553,0.03,7.364-2.781 c3.18-3.18,2.046-7.49,2.046-7.49L18.629,39.106z"/><rect width="3" height="4" x="16" y="41" fill="#33c481"/><path fill="#33c481" d="M20.215,40.354c0,0-1.209,0.455-1.221,1.999c-0.012,1.544-1.652,0.586-1.652,0.586l0.359-2.226 l0.491-0.168l1.209-0.419L20.215,40.354z"/><linearGradient id="6Af016quOteidb_Yvn_b5c" x1="55.314" x2="48.183" y1="13.038" y2="23.908" gradientTransform="rotate(-45.001 51.011 38)" gradientUnits="userSpaceOnUse"><stop offset="0" stop-color="#2aa4f4"/><stop offset="1" stop-color="#007ad9"/></linearGradient><path fill="url(#6Af016quOteidb_Yvn_b5c)" d="M44.929,18.232l-7.346,7.346c-0.51,0.51-1.337,0.51-1.847,0l-8.269-8.269l9.192-9.192 l8.269,8.269C45.439,16.895,45.439,17.722,44.929,18.232z"/><rect width="13" height="2" x="26.271" y="12.42" fill="#0370c8" transform="rotate(-45.001 32.771 13.42)"/></svg>