<svg xmlns="http://www.w3.org/2000/svg" xmlns:xlink="http://www.w3.org/1999/xlink" data-name="Слой 1" viewBox="0 0 48 48"><defs><linearGradient id="gIIS~7Dsj463qks1NDNfia" x1="6" x2="46" y1="38" y2="38" data-name="Безымянный градиент 5" gradientUnits="userSpaceOnUse"><stop offset="0" stop-color="#3079d6"/><stop offset="1" stop-color="#297cd2"/></linearGradient><linearGradient id="gIIS~7Dsj463qks1NDNfib" x1="3" x2="42" y1="26.5" y2="26.5" data-name="Безымянный градиент 14" gradientUnits="userSpaceOnUse"><stop offset="0" stop-color="#42a3f2"/><stop offset="1" stop-color="#42a4eb"/></linearGradient><linearGradient id="gIIS~7Dsj463qks1NDNfic" x1="20" x2="35" y1="22.5" y2="22.5" xlink:href="#gIIS~7Dsj463qks1NDNfia"/><linearGradient id="gIIS~7Dsj463qks1NDNfid" x1="6" x2="17" y1="28.5" y2="28.5" xlink:href="#gIIS~7Dsj463qks1NDNfia"/><linearGradient id="gIIS~7Dsj463qks1NDNfie" x1="2" x2="4" y1="36.5" y2="36.5" data-name="Безымянный градиент 123" gradientUnits="userSpaceOnUse"><stop offset="0" stop-color="#f44f5a"/><stop offset=".443" stop-color="#ee3d4a"/><stop offset="1" stop-color="#e52030"/></linearGradient></defs><path fill="url(#gIIS~7Dsj463qks1NDNfia)" d="M6,37H45a1,1,0,0,1,1,1v0a1,1,0,0,1-1,1H6a0,0,0,0,1,0,0V37A0,0,0,0,1,6,37Z"/><path fill="url(#gIIS~7Dsj463qks1NDNfib)" d="M40,39H5a2,2,0,0,1-2-2V16a2,2,0,0,1,2-2H33a6,6,0,0,1,5.53846,3.69231l3.30769,7.93846A2,2,0,0,1,42,26.4V37A2,2,0,0,1,40,39Z"/><path fill="#586169" d="M32,39a5,5,0,1,1-5-5,5.00054,5.00054,0,0,1,5,5"/><path fill="#999" d="M29,39a2,2,0,1,1-2-2,1.99945,1.99945,0,0,1,2,2"/><rect width="15" height="9" x="20" y="18" fill="url(#gIIS~7Dsj463qks1NDNfic)" rx="2"/><path fill="url(#gIIS~7Dsj463qks1NDNfid)" d="M8,18h7a2,2,0,0,1,2,2V39a0,0,0,0,1,0,0H6a0,0,0,0,1,0,0V20A2,2,0,0,1,8,18Z"/><rect width="2" height="5" x="2" y="34" fill="url(#gIIS~7Dsj463qks1NDNfie)" rx="1"/></svg>