<svg xmlns="http://www.w3.org/2000/svg" viewBox="0 0 48 48"><linearGradient id="enz2Etv7lgb4PHf4fDm8za" x1="16.242" x2="30.925" y1="7.522" y2="42.493" gradientUnits="userSpaceOnUse"><stop offset="0" stop-color="#7dd8f3"/><stop offset="1" stop-color="#45b0d0"/></linearGradient><path fill="url(#enz2Etv7lgb4PHf4fDm8za)" d="M43,11H23.828c-0.53,0-1.039-0.211-1.414-0.586l-2.536-2.536C19.316,7.316,18.553,7,17.757,7	H5C3.895,7,3,7.895,3,9v30c0,1.105,0.895,2,2,2h8c0-1.105,0.895-2,2-2s2,0.895,2,2h14c0-1.105,0.895-2,2-2s2,0.895,2,2h8	c1.105,0,2-0.895,2-2V13C45,11.895,44.105,11,43,11z"/><path fill="#057093" d="M11,19c0-1.657,1.343-3,3-3s3,1.343,3,3s-1.343,3-3,3S11,20.657,11,19z M14,24c-2.761,0-5,2.239-5,5	v4c0,0.552,0.448,1,1,1h8c0.552,0,1-0.448,1-1v-4C19,26.239,16.761,24,14,24z"/><path fill="#057093" d="M38,29H26c-0.552,0-1,0.448-1,1v0c0,0.552,0.448,1,1,1h12c0.552,0,1-0.448,1-1v0	C39,29.448,38.552,29,38,29z"/><path fill="#057093" d="M38,25H26c-0.552,0-1,0.448-1,1v0c0,0.552,0.448,1,1,1h12c0.552,0,1-0.448,1-1v0	C39,25.448,38.552,25,38,25z"/><path fill="#057093" d="M38,21H26c-0.552,0-1,0.448-1,1v0c0,0.552,0.448,1,1,1h12c0.552,0,1-0.448,1-1v0	C39,21.448,38.552,21,38,21z"/></svg>