<svg xmlns="http://www.w3.org/2000/svg" xmlns:xlink="http://www.w3.org/1999/xlink" data-name="Слой 1" viewBox="0 0 48 48"><defs><linearGradient id="DSsjbKKwOBqZucPQjw0O_a" x1="20.793" x2="27.97" y1="30.189" y2="49.909" data-name="Безымянный градиент 121" gradientUnits="userSpaceOnUse"><stop offset="0" stop-color="#f44f5a"/><stop offset=".443" stop-color="#ee3d4a"/><stop offset="1" stop-color="#e52030"/></linearGradient><linearGradient id="DSsjbKKwOBqZucPQjw0O_c" x1="21.562" x2="26.012" y1="21.302" y2="33.529" xlink:href="#DSsjbKKwOBqZucPQjw0O_a"/><linearGradient id="DSsjbKKwOBqZucPQjw0O_d" x1="21.772" x2="25.819" y1="11.879" y2="22.997" xlink:href="#DSsjbKKwOBqZucPQjw0O_a"/><linearGradient id="DSsjbKKwOBqZucPQjw0O_g" x1="22.921" x2="25.483" y1="2.421" y2="4.983" xlink:href="#DSsjbKKwOBqZucPQjw0O_a"/><radialGradient id="DSsjbKKwOBqZucPQjw0O_e" cx="18.13" cy="9.207" r="24.037" data-name="Безымянный градиент 69" gradientUnits="userSpaceOnUse"><stop offset="0" stop-color="#fed100"/><stop offset="1" stop-color="#e38101"/></radialGradient><radialGradient id="DSsjbKKwOBqZucPQjw0O_b" cx="16.86" cy="27.815" r="28.941" data-name="Безымянный градиент 74" gradientUnits="userSpaceOnUse"><stop offset="0" stop-color="#fed100"/><stop offset=".193" stop-color="#fcca00"/><stop offset=".478" stop-color="#f5b600"/><stop offset=".82" stop-color="#ea9501"/><stop offset="1" stop-color="#e38101"/></radialGradient><radialGradient id="DSsjbKKwOBqZucPQjw0O_f" cx="18.717" cy="20.701" r="26.066" xlink:href="#DSsjbKKwOBqZucPQjw0O_b"/></defs><rect width="24" height="12" x="12" y="33" fill="url(#DSsjbKKwOBqZucPQjw0O_a)"/><rect width="20" height="8" x="14" y="24" fill="url(#DSsjbKKwOBqZucPQjw0O_c)"/><rect width="16" height="8" x="16" y="14" fill="url(#DSsjbKKwOBqZucPQjw0O_d)"/><path fill="url(#DSsjbKKwOBqZucPQjw0O_e)" d="M34.64667,12.86414C27.25055,11.42981,24,4,24,4s-3.26257,7.45728-11.58765,8.872a.48368.48368,0,0,0-.22186.86139A7.02,7.02,0,0,0,16,15H31a7.00221,7.00221,0,0,0,3.82861-1.2818A.48132.48132,0,0,0,34.64667,12.86414Z"/><path fill="#b31523" d="M19,17h2a1,1,0,0,1,1,1v4a0,0,0,0,1,0,0H18a0,0,0,0,1,0,0V18A1,1,0,0,1,19,17Z"/><path fill="#b31523" d="M19,27h2a1,1,0,0,1,1,1v4a0,0,0,0,1,0,0H18a0,0,0,0,1,0,0V28A1,1,0,0,1,19,27Z"/><path fill="#b31523" d="M27,17h2a1,1,0,0,1,1,1v4a0,0,0,0,1,0,0H26a0,0,0,0,1,0,0V18A1,1,0,0,1,27,17Z"/><path fill="#b31523" d="M27,27h2a1,1,0,0,1,1,1v4a0,0,0,0,1,0,0H26a0,0,0,0,1,0,0V28A1,1,0,0,1,27,27Z"/><path fill="url(#DSsjbKKwOBqZucPQjw0O_b)" d="M39.61926,32.97119A9.41005,9.41005,0,0,1,34,31H14a9.40755,9.40755,0,0,1-5.61621,1.971.41453.41453,0,0,0-.21674.74365A6.99739,6.99739,0,0,0,12,35H36a6.99588,6.99588,0,0,0,3.83533-1.28717A.41342.41342,0,0,0,39.61926,32.97119Z"/><path fill="url(#DSsjbKKwOBqZucPQjw0O_f)" d="M37.62317,22.97144A9.41251,9.41251,0,0,1,32,21H16a9.41251,9.41251,0,0,1-5.62317,1.97144.41186.41186,0,0,0-.21521.73889A6.99263,6.99263,0,0,0,14,25H34a6.99263,6.99263,0,0,0,3.83838-1.28967A.41186.41186,0,0,0,37.62317,22.97144Z"/><circle cx="24" cy="3.5" r="1.5" fill="url(#DSsjbKKwOBqZucPQjw0O_g)"/><path fill="#b31523" d="M19,37H29a1,1,0,0,1,1,1v7a0,0,0,0,1,0,0H18a0,0,0,0,1,0,0V38A1,1,0,0,1,19,37Z"/><rect width="16" height="1" x="16" y="20" opacity=".05"/><rect width="16" height=".5" x="16" y="20.5" opacity=".07"/><rect width="20" height="1" x="14" y="30" opacity=".05"/><rect width="20" height=".5" x="14" y="30.5" opacity=".07"/></svg>