<svg xmlns="http://www.w3.org/2000/svg" viewBox="0 0 48 48"><linearGradient id="QVoJ54jPBG_cSZfUtWMgha" x1="21.237" x2="26.65" y1="41.669" y2="10.969" gradientTransform="matrix(1 0 0 -1 0 50)" gradientUnits="userSpaceOnUse"><stop offset="0" stop-color="#fafafb"/><stop offset=".293" stop-color="#f6f7f8"/><stop offset=".566" stop-color="#ebecee"/><stop offset=".832" stop-color="#d8dcdf"/><stop offset="1" stop-color="#c8cdd1"/></linearGradient><path fill="url(#QVoJ54jPBG_cSZfUtWMgha)" d="M24,4c11,0,20,9,20,20s-9,20-20,20S4,35,4,24S13,4,24,4"/><linearGradient id="QVoJ54jPBG_cSZfUtWMghb" x1="20.536" x2="27.479" y1="45.672" y2="6.301" gradientTransform="matrix(1 0 0 -1 0 50)" gradientUnits="userSpaceOnUse"><stop offset="0" stop-color="#33bef0"/><stop offset="1" stop-color="#22a5e2"/></linearGradient><path fill="url(#QVoJ54jPBG_cSZfUtWMghb)" d="M27,5.1v2.3c0,0.5,0.3,0.9,0.8,1C35,10.2,40.3,16.8,40,24.6c-0.3,8.2-7,14.9-15.2,15.3C15.6,40.4,8,33.1,8,24 c0-7.5,5.2-13.8,12.2-15.5C20.7,8.4,21,8,21,7.5V5.1c0-0.5-0.4-0.8-0.9-0.7C11,6.2,4.2,14.1,4,23.7C3.8,34.3,12.3,43.4,22.9,44 C34.4,44.6,44,35.4,44,24c0-9.7-6.9-17.8-16.1-19.6C27.4,4.3,27,4.7,27,5.1z"/></svg>