<svg xmlns="http://www.w3.org/2000/svg" viewBox="0 0 48 48"><path fill="#195bbc" d="M6,41c-0.288,0-0.577-0.062-0.849-0.188C4.449,40.482,4,39.776,4,39V9c0-1.104,0.896-2,2-2	s2,0.896,2,2v25.729L40.72,7.464c0.597-0.498,1.426-0.603,2.129-0.275C43.551,7.518,44,8.224,44,9v30c0,1.104-0.896,2-2,2	s-2-0.896-2-2V13.271L7.28,40.536C6.914,40.842,6.459,41,6,41z"/><linearGradient id="iudoBX_3CLbGr6RAjxX2pa" x1="4.405" x2="43.431" y1="7.453" y2="40.408" gradientUnits="userSpaceOnUse"><stop offset=".05" stop-color="#195bbc"/><stop offset=".5" stop-color="#3791df"/><stop offset=".95" stop-color="#195bbc"/></linearGradient><path fill="url(#iudoBX_3CLbGr6RAjxX2pa)" d="M41.999,41c-0.451,0-0.905-0.152-1.279-0.464l-36-30C3.871,9.829,3.757,8.568,4.464,7.72	S6.431,6.756,7.28,7.464l36,30c0.849,0.707,0.963,1.968,0.256,2.816C43.141,40.755,42.572,41,41.999,41z"/></svg>