<svg xmlns="http://www.w3.org/2000/svg" viewBox="0 0 48 48"><linearGradient id="LPJKnL3ghvAYtbCp0Vsrja" x1="16.456" x2="31.744" y1="5.596" y2="42.892" gradientUnits="userSpaceOnUse"><stop offset="0" stop-color="#0d61a9"/><stop offset="1" stop-color="#16528c"/></linearGradient><path fill="url(#LPJKnL3ghvAYtbCp0Vsrja)" d="M6,8c0-1.105,0.895-2,2-2h32c1.105,0,2,0.895,2,2v32c0,1.105-0.895,2-2,2H8	c-1.105,0-2-0.895-2-2V8z"/><path fill="#50e6ff" d="M42,16c-2.979,0.23-6.816,0.926-9.5,2c-5,2-9,6-14,6c-5.12,0-9.595-2.326-12.5-4l1.202-8.01	c0.046-0.304,0.487-0.296,0.521,0.01L8.5,19l0.725-6.528c0.035-0.313,0.491-0.311,0.522,0.003L10.5,20l0.726-7.263	c0.032-0.317,0.494-0.315,0.523,0.002L12.5,21l0.732-8.052c0.029-0.319,0.495-0.318,0.523,0.001l0.745,8.614l0.734-8.482	c0.028-0.32,0.497-0.32,0.523,0.001L16.5,22l0.738-8.86c0.027-0.321,0.497-0.321,0.523,0L18.5,22l0.738-8.86	c0.027-0.321,0.497-0.321,0.523,0L20.5,22l0.75-8.997c0.027-0.32,0.494-0.322,0.523-0.002L22.5,21l0.751-8.261	c0.029-0.317,0.491-0.319,0.523-0.002L24.5,20l0.752-7.525c0.031-0.313,0.487-0.316,0.522-0.003L26.5,19l0.754-6.79	c0.034-0.309,0.483-0.312,0.521-0.004L28.5,18l0.757-6.055c0.038-0.304,0.477-0.308,0.52-0.005L30.5,17l0.76-5.32	c0.042-0.297,0.47-0.302,0.519-0.006L32.5,16l0.764-4.587c0.048-0.288,0.459-0.294,0.516-0.008L34.5,15l0.751-3.754	c0.056-0.28,0.455-0.282,0.514-0.003l0.735,3.445l0.774-3.627c0.057-0.269,0.438-0.28,0.51-0.014l0.716,2.641l0.736-2.715	c0.071-0.261,0.442-0.257,0.508,0.005L40.5,14l0.615-2.461c0.072-0.288,0.492-0.254,0.516,0.042L42,16z"/><path fill="#0078d4" d="M25.8,27.904L26.5,37l0.752-10.531c0.022-0.308,0.474-0.308,0.496,0L28.5,37l0.76-12.161	c0.019-0.31,0.475-0.311,0.496-0.001L30.5,36l0.754-5.278c0.041-0.284,0.451-0.284,0.492,0L32.5,36l0.777-4.663	c0.045-0.272,0.435-0.279,0.489-0.008L34.5,35l0.759-3.036c0.063-0.251,0.419-0.251,0.482,0L36.5,35l0.793-3.172	c0.06-0.241,0.398-0.254,0.477-0.018L38.5,34l0.764-2.293c0.076-0.227,0.396-0.227,0.471,0L40.5,34l1.019-2.717	C41.616,31.024,42,31.093,42,31.37V35c-1.438,0.147-2.536,0.379-4,0.745C34,36.745,27,39,21,39c-2,0-7.5-1-7.5-2c0-2,11.5-1,11.5-3	l0.304-6.089C25.32,27.6,25.776,27.594,25.8,27.904z"/><path fill="#35c1f1" d="M42,28.197C40.619,28.589,39.309,29,38,29c-2.5,0-7-1-7-4l1.137-3.79	c0.089-0.298,0.52-0.271,0.571,0.036L33.5,26l0.69-4.83c0.048-0.339,0.54-0.335,0.582,0.005L35.5,27l0.708-6.374	c0.039-0.348,0.545-0.348,0.584,0L37.5,27l0.708-7.079c0.035-0.353,0.549-0.353,0.584,0L39.5,27l0.75-7.502	c0.035-0.347,0.537-0.355,0.583-0.01L42,28.197z"/><path fill="#199be2" d="M6,30c6.323,0.421,19,1.748,19,4l-1.223-7.336c-0.052-0.313-0.503-0.313-0.555,0L22.5,31	l-0.737-3.684c-0.06-0.299-0.485-0.303-0.55-0.005L20.5,30.563l-0.743-3.392c-0.064-0.29-0.475-0.296-0.547-0.008L18.5,30	l-0.727-2.909c-0.071-0.284-0.475-0.284-0.546,0L16.5,30l-0.753-3.011c-0.069-0.277-0.46-0.286-0.542-0.013L14.5,29.313	l-0.736-3.176c-0.067-0.288-0.475-0.291-0.547-0.005L12.5,29l-0.727-2.909c-0.071-0.284-0.475-0.284-0.546,0L10.5,29l-0.724-3.621	c-0.06-0.301-0.491-0.301-0.551,0L8.5,29l-1-6"/></svg>