<svg xmlns="http://www.w3.org/2000/svg" xmlns:xlink="http://www.w3.org/1999/xlink" data-name="Слой 1" viewBox="0 0 48 48"><defs><linearGradient id="rHhtXTwGGC9wTJZXivUAzt" x1="7.696" x2="15.254" y1="11" y2="11" xlink:href="#rHhtXTwGGC9wTJZXivUAzc"/><linearGradient id="rHhtXTwGGC9wTJZXivUAza" x1="24" x2="24" y1="43.511" y2="32.149" gradientUnits="userSpaceOnUse"><stop offset="0" stop-color="#a34f27"/><stop offset=".587" stop-color="#8b3817"/><stop offset="1" stop-color="#802d10"/></linearGradient><linearGradient id="rHhtXTwGGC9wTJZXivUAzg" x1="29.5" x2="29.5" y1="36.174" y2="29.844" xlink:href="#rHhtXTwGGC9wTJZXivUAza"/><linearGradient id="rHhtXTwGGC9wTJZXivUAzh" x1="38.565" x2="38.565" y1="23.261" y2="35.743" xlink:href="#rHhtXTwGGC9wTJZXivUAza"/><linearGradient id="rHhtXTwGGC9wTJZXivUAzb" x1="24.625" x2="24.625" y1="31.054" y2="42.513" data-name="Безымянный градиент 250" gradientUnits="userSpaceOnUse"><stop offset="0" stop-color="#fed100"/><stop offset="1" stop-color="#e38101"/></linearGradient><linearGradient id="rHhtXTwGGC9wTJZXivUAzi" x1="35" x2="35" y1="33.81" y2="43.104" xlink:href="#rHhtXTwGGC9wTJZXivUAzb"/><linearGradient id="rHhtXTwGGC9wTJZXivUAzj" x1="42" x2="42" y1="33.891" y2="43.137" xlink:href="#rHhtXTwGGC9wTJZXivUAzb"/><linearGradient id="rHhtXTwGGC9wTJZXivUAzk" x1="9.75" x2="9.75" y1="31.054" y2="42.513" xlink:href="#rHhtXTwGGC9wTJZXivUAzb"/><linearGradient id="rHhtXTwGGC9wTJZXivUAzl" x2="24" y1="10.935" y2="19.33" xlink:href="#rHhtXTwGGC9wTJZXivUAza"/><linearGradient id="rHhtXTwGGC9wTJZXivUAzc" x1="23.117" x2="24.943" y1="9.039" y2="17.778" data-name="Безымянный градиент 147" gradientUnits="userSpaceOnUse"><stop offset="0" stop-color="#dfe9f2"/><stop offset=".391" stop-color="#d6e0e9"/><stop offset="1" stop-color="#bfc8d1"/></linearGradient><linearGradient id="rHhtXTwGGC9wTJZXivUAzm" x1="5.168" x2="18.485" y1="15.61" y2="15.61" xlink:href="#rHhtXTwGGC9wTJZXivUAza"/><linearGradient id="rHhtXTwGGC9wTJZXivUAzn" x1="7.696" x2="15.254" y1="23.5" y2="23.5" xlink:href="#rHhtXTwGGC9wTJZXivUAzc"/><linearGradient id="rHhtXTwGGC9wTJZXivUAzo" x1="7.696" x2="15.254" y1="23" y2="23" xlink:href="#rHhtXTwGGC9wTJZXivUAzc"/><linearGradient id="rHhtXTwGGC9wTJZXivUAzp" x1="7.696" x2="15.254" y1="21.5" y2="21.5" xlink:href="#rHhtXTwGGC9wTJZXivUAzc"/><linearGradient id="rHhtXTwGGC9wTJZXivUAzq" x1="7.696" x2="15.254" y1="19.25" y2="19.25" xlink:href="#rHhtXTwGGC9wTJZXivUAzc"/><linearGradient id="rHhtXTwGGC9wTJZXivUAzr" x1="7.696" x2="15.254" y1="17" y2="17" xlink:href="#rHhtXTwGGC9wTJZXivUAzc"/><linearGradient id="rHhtXTwGGC9wTJZXivUAzs" x1="7.696" x2="15.254" y1="14" y2="14" xlink:href="#rHhtXTwGGC9wTJZXivUAzc"/><linearGradient id="rHhtXTwGGC9wTJZXivUAzf" x1="18.5" x2="18.5" y1="36.174" y2="29.844" xlink:href="#rHhtXTwGGC9wTJZXivUAza"/><linearGradient id="rHhtXTwGGC9wTJZXivUAzd" x1="9.668" x2="19.452" y1="14.316" y2="14.316" data-name="Безымянный градиент 46" gradientUnits="userSpaceOnUse"><stop offset="0" stop-color="#d97218"/><stop offset="1" stop-color="#c2620e"/></linearGradient><linearGradient id="rHhtXTwGGC9wTJZXivUAzu" x1="42.342" x2="29.135" y1="15.61" y2="15.61" xlink:href="#rHhtXTwGGC9wTJZXivUAza"/><linearGradient id="rHhtXTwGGC9wTJZXivUAzv" x1="41.185" x2="31.914" y1="23.5" y2="23.5" xlink:href="#rHhtXTwGGC9wTJZXivUAzc"/><linearGradient id="rHhtXTwGGC9wTJZXivUAzw" x1="41.185" x2="31.914" y1="23" y2="23" xlink:href="#rHhtXTwGGC9wTJZXivUAzc"/><linearGradient id="rHhtXTwGGC9wTJZXivUAzx" x1="41.185" x2="31.914" y1="21.5" y2="21.5" xlink:href="#rHhtXTwGGC9wTJZXivUAzc"/><linearGradient id="rHhtXTwGGC9wTJZXivUAzy" x1="41.185" x2="31.914" y1="19.25" y2="19.25" xlink:href="#rHhtXTwGGC9wTJZXivUAzc"/><linearGradient id="rHhtXTwGGC9wTJZXivUAzz" x1="41.185" x2="31.914" y1="17" y2="17" xlink:href="#rHhtXTwGGC9wTJZXivUAzc"/><linearGradient id="rHhtXTwGGC9wTJZXivUAzA" x1="41.185" x2="31.914" y1="14" y2="14" xlink:href="#rHhtXTwGGC9wTJZXivUAzc"/><linearGradient id="rHhtXTwGGC9wTJZXivUAzB" x1="41.185" x2="31.914" y1="11" y2="11" xlink:href="#rHhtXTwGGC9wTJZXivUAzc"/><linearGradient id="rHhtXTwGGC9wTJZXivUAzC" x1="39.016" x2="29.945" y1="14.316" y2="14.316" xlink:href="#rHhtXTwGGC9wTJZXivUAzd"/><linearGradient id="rHhtXTwGGC9wTJZXivUAzH" x1="21.915" x2="27.393" y1="16.183" y2="31.233" gradientUnits="userSpaceOnUse"><stop offset=".002" stop-color="#427fdb"/><stop offset=".397" stop-color="#2668cb"/><stop offset=".763" stop-color="#1358bf"/><stop offset="1" stop-color="#0c52bb"/></linearGradient><linearGradient id="rHhtXTwGGC9wTJZXivUAze" x1="19.5" x2="19.5" y1="20.848" y2="26.491" data-name="Безымянный градиент 121" gradientUnits="userSpaceOnUse"><stop offset="0" stop-color="#f44f5a"/><stop offset=".443" stop-color="#ee3d4a"/><stop offset="1" stop-color="#e52030"/></linearGradient><linearGradient id="rHhtXTwGGC9wTJZXivUAzE" x1="28.5" x2="28.5" y1="20.848" y2="26.491" xlink:href="#rHhtXTwGGC9wTJZXivUAze"/><linearGradient id="rHhtXTwGGC9wTJZXivUAzF" x1="25.5" x2="25.5" y1="20.848" y2="26.491" xlink:href="#rHhtXTwGGC9wTJZXivUAze"/><linearGradient id="rHhtXTwGGC9wTJZXivUAzG" x1="22.5" x2="22.5" y1="20.848" y2="26.491" xlink:href="#rHhtXTwGGC9wTJZXivUAze"/><linearGradient id="rHhtXTwGGC9wTJZXivUAzI" x1="20.803" x2="22.206" y1="10.054" y2="14.978" xlink:href="#rHhtXTwGGC9wTJZXivUAzb"/><radialGradient id="rHhtXTwGGC9wTJZXivUAzD" cx="24" cy="27.441" r="10.5" data-name="Безымянный градиент 47" xlink:href="#rHhtXTwGGC9wTJZXivUAzc"/></defs><path fill="url(#rHhtXTwGGC9wTJZXivUAza)" d="M28.4,36.6a1.99574,1.99574,0,0,1-.62639,2.37944C26.61709,39.85474,24.92679,41,24,41s-2.61709-1.14526-3.77361-2.02056A1.99574,1.99574,0,0,1,19.6,36.6L22,31h4Z"/><polygon fill="url(#rHhtXTwGGC9wTJZXivUAzf)" points="16 35 18.5 30.5 21 31 17.5 35 16 35"/><polygon fill="url(#rHhtXTwGGC9wTJZXivUAzg)" points="29.5 30.5 32 35 30.5 35 27 31 29.5 30.5"/><path fill="url(#rHhtXTwGGC9wTJZXivUAzh)" d="M33.5,44a.49971.49971,0,0,1-.5-.5C33,35.17285,37.21045,27,41.5,27a2.40378,2.40378,0,0,1,2.13574.99609c.83594,1.23438.61035,3.48536-.67138,6.68946a.50006.50006,0,0,1-.92872-.3711c1.10254-2.75586,1.38379-4.85449.77247-5.75781A1.45146,1.45146,0,0,0,41.5,28C38.124,28,34,35.15234,34,43.5A.49971.49971,0,0,1,33.5,44Z"/><rect width="32.25" height="2" x="8.5" y="35" fill="url(#rHhtXTwGGC9wTJZXivUAzb)"/><path fill="#fed100" d="M15.5,37.5A.49971.49971,0,0,1,15,37V35a.5.5,0,0,1,1,0v2A.49971.49971,0,0,1,15.5,37.5Z"/><path fill="#fed100" d="M16.5,37.5A.49971.49971,0,0,1,16,37V35a.5.5,0,0,1,1,0v2A.49971.49971,0,0,1,16.5,37.5Z"/><path fill="#fed100" d="M17.5,37.5A.49971.49971,0,0,1,17,37V35a.5.5,0,0,1,1,0v2A.49971.49971,0,0,1,17.5,37.5Z"/><path fill="#fed100" d="M30.5,37.5A.49971.49971,0,0,1,30,37V35a.5.5,0,0,1,1,0v2A.49971.49971,0,0,1,30.5,37.5Z"/><path fill="#fed100" d="M31.5,37.5A.49971.49971,0,0,1,31,37V35a.5.5,0,0,1,1,0v2A.49971.49971,0,0,1,31.5,37.5Z"/><path fill="#f09801" d="M39.5,42H38a.49877.49877,0,0,1-.439-.26074l-3-5.5a.49993.49993,0,0,1,.87792-.47852L38.29688,41H39.5a.5.5,0,0,1,0,1Z"/><path fill="#fed100" d="M32.5,37.5A.49971.49971,0,0,1,32,37V35a.5.5,0,0,1,1,0v2A.49971.49971,0,0,1,32.5,37.5Z"/><circle cx="35" cy="36" r="2" fill="url(#rHhtXTwGGC9wTJZXivUAzi)"/><path fill="url(#rHhtXTwGGC9wTJZXivUAzj)" d="M42,38a2,2,0,1,1,2-2A2.00229,2.00229,0,0,1,42,38Zm0-3a1,1,0,1,0,1,1A1.001,1.001,0,0,0,42,35Z"/><path fill="#fed100" d="M35.00049,36.5a.49874.49874,0,0,1-.43945-.26074L31.70313,31H30.5a.5.5,0,0,1,0-1H32a.49877.49877,0,0,1,.439.26074l3,5.5a.499.499,0,0,1-.1997.67774A.49027.49027,0,0,1,35.00049,36.5Z"/><path fill="url(#rHhtXTwGGC9wTJZXivUAzk)" d="M10.75,38l-.5,1.5a3.82549,3.82549,0,0,1-1-2.5c0-1-.25-1-.25-1s.25,0,.25-1a3.82549,3.82549,0,0,1,1-2.5l.5,1.5A7.36338,7.36338,0,0,1,14,30.5a7.63589,7.63589,0,0,0-4.5,0,10.51143,10.51143,0,0,1,.5,1.25c-2.5,1-2,3.75-4.5,4.25,2.5.5,2,3.25,4.5,4.25a10.51143,10.51143,0,0,1-.5,1.25,7.63589,7.63589,0,0,0,4.5,0A7.36338,7.36338,0,0,1,10.75,38Z"/><path fill="url(#rHhtXTwGGC9wTJZXivUAzl)" d="M28,19c-.5.5-4,1-4,1a6.81532,6.81532,0,0,1-4-1,7.336,7.336,0,0,1,1.23-3.37A5.29315,5.29315,0,0,0,22,14V11a2.59768,2.59768,0,0,1,2-1,3.34038,3.34038,0,0,1,3,2,1.07539,1.07539,0,0,0-1,1,15.92851,15.92851,0,0,0,1,2.05A9.46005,9.46005,0,0,1,28,19Z"/><path fill="url(#rHhtXTwGGC9wTJZXivUAzc)" d="M26,13a15.92851,15.92851,0,0,0,1,2.05A1.00064,1.00064,0,0,1,25,15a1,1,0,0,1-2,0,1.003,1.003,0,0,1-1,1,.9721.9721,0,0,1-.77-.37A5.29315,5.29315,0,0,0,22,14V11a2.59768,2.59768,0,0,1,2-1,3.34038,3.34038,0,0,1,3,2A1.07539,1.07539,0,0,0,26,13Z"/><path fill="url(#rHhtXTwGGC9wTJZXivUAzm)" d="M19,20v7c-.5,1.75-2.25,1.5-2.5,0-.75,1-1.5.25-1.5-1-.75,1.5-1.5.25-1.5-.5-1,1.25-1.75-.5-1.5-1.5-1.25,1.25-1.75-.75-1.5-1.5-1.25.75-1.5-.5-1-1.5-.75.5-1.5,0-1.25-1.25C7,20.75,7,19,7.75,18.25,6.5,18.75,6.5,17.5,7,17c-1.75-.25-.5-1.75,0-2-1-.25-1-.75,0-1a1.04167,1.04167,0,0,1,0-2c-1-.25-1-.75,0-1-2-.5-2-1.5-1-2C3.5,8.25,3.75,7.25,5,7,4,6,1.75,3,4,3c1.12,0,4.1,1.74,6.81,3.98h.01C13.55,9.24,16,12,16,14c0,1.25-1,1.75-1,3a3.15193,3.15193,0,0,0,3,3Z"/><path fill="url(#rHhtXTwGGC9wTJZXivUAzn)" d="M19,21a4.12625,4.12625,0,0,1,.1.9,4.21251,4.21251,0,0,1-.4,1.8,4.35475,4.35475,0,0,1-1,1.6,1.92387,1.92387,0,0,1-.7.7,4.12625,4.12625,0,0,1-.1-.9,4.21251,4.21251,0,0,1,.4-1.8,4.35475,4.35475,0,0,1,1-1.6A1.92387,1.92387,0,0,1,19,21Z"/><path fill="url(#rHhtXTwGGC9wTJZXivUAzo)" d="M17,21a5.10434,5.10434,0,0,1-.1.9,4.01328,4.01328,0,0,1-.8,1.6,7.10366,7.10366,0,0,1-1.3,1.2,4.41731,4.41731,0,0,1-.8.3,5.10434,5.10434,0,0,1,.1-.9,4.01328,4.01328,0,0,1,.8-1.6,7.10366,7.10366,0,0,1,1.3-1.2A4.41731,4.41731,0,0,1,17,21Z"/><path fill="url(#rHhtXTwGGC9wTJZXivUAzp)" d="M16,20a3.45306,3.45306,0,0,1-.6.8,7.4708,7.4708,0,0,1-1.6,1.3,7.7141,7.7141,0,0,1-1.9.8,5.10434,5.10434,0,0,1-.9.1,3.45306,3.45306,0,0,1,.6-.8,7.4708,7.4708,0,0,1,1.6-1.3,7.7141,7.7141,0,0,1,1.9-.8A5.10434,5.10434,0,0,1,16,20Z"/><path fill="url(#rHhtXTwGGC9wTJZXivUAzq)" d="M14,18.82143a5.96632,5.96632,0,0,1-.56.51428,4.19818,4.19818,0,0,1-1.36.6,4.057,4.057,0,0,1-1.44,0,3.487,3.487,0,0,1-.64-.25714,5.96632,5.96632,0,0,1,.56-.51428,4.19818,4.19818,0,0,1,1.36-.6,4.057,4.057,0,0,1,1.44,0A3.487,3.487,0,0,1,14,18.82143Z"/><path fill="url(#rHhtXTwGGC9wTJZXivUAzr)" d="M8,17a2.43826,2.43826,0,0,1,.9-.42857A6.2391,6.2391,0,0,1,11,16.25a6.2391,6.2391,0,0,1,2.1.32143A2.43826,2.43826,0,0,1,14,17a2.43826,2.43826,0,0,1-.9.42857A6.2391,6.2391,0,0,1,11,17.75a6.2391,6.2391,0,0,1-2.1-.32143A2.43826,2.43826,0,0,1,8,17Z"/><path fill="url(#rHhtXTwGGC9wTJZXivUAzs)" d="M14,14.90909A6.8736,6.8736,0,0,1,12.9,15a7.00773,7.00773,0,0,1-2.2-.36364,5.58337,5.58337,0,0,1-2-.90909,3.81076,3.81076,0,0,1-.7-.63636A6.8736,6.8736,0,0,1,9.1,13a7.00773,7.00773,0,0,1,2.2.36364,5.58337,5.58337,0,0,1,2,.90909A3.81076,3.81076,0,0,1,14,14.90909Z"/><path fill="url(#rHhtXTwGGC9wTJZXivUAzt)" d="M14,13a10.3423,10.3423,0,0,1-1.3125-.32A13.92245,13.92245,0,0,1,10.15,11.56a17.04673,17.04673,0,0,1-2.275-1.6C7.35,9.4,7,9,7,9a10.3423,10.3423,0,0,1,1.3125.32A13.92245,13.92245,0,0,1,10.85,10.44a17.04673,17.04673,0,0,1,2.275,1.6C13.65,12.6,14,13,14,13Z"/><path fill="url(#rHhtXTwGGC9wTJZXivUAzd)" d="M19,20v2c-4,0-6-2-6-5,0-1.5,1-2,1-3,0-2-2.92625-4.32964-4-5.25-1.75-1.5-.5-2.75.81-1.77h.01C13.55,9.24,16,12,16,14c0,1.25-1,1.75-1,3a3.15193,3.15193,0,0,0,3,3Z"/><path fill="url(#rHhtXTwGGC9wTJZXivUAzu)" d="M29.001,20v7c.5,1.75,2.25,1.5,2.5,0,.75,1,1.5.25,1.5-1,.75,1.5,1.5.25,1.5-.5,1,1.25,1.75-.5,1.5-1.5,1.25,1.25,1.75-.75,1.5-1.5,1.25.75,1.5-.5,1-1.5.75.5,1.5,0,1.25-1.25,1.25,1,1.25-.75.5-1.5,1.25.5,1.25-.75.75-1.25,1.75-.25.5-1.75,0-2,1-.25,1-.75,0-1a1.04167,1.04167,0,0,0,0-2c1-.25,1-.75,0-1,2-.5,2-1.5,1-2,2.5-.75,2.25-1.75,1-2,1-1,3.25-4,1-4-1.12,0-4.1,1.74-6.81,3.98h-.01c-2.73,2.26-5.18,5.02-5.18,7.02,0,1.25,1,1.75,1,3a3.15193,3.15193,0,0,1-3,3Z"/><path fill="url(#rHhtXTwGGC9wTJZXivUAzv)" d="M29.701,21.7a4.35475,4.35475,0,0,1,1,1.6,4.21251,4.21251,0,0,1,.4,1.8,4.12625,4.12625,0,0,1-.1.9,1.92387,1.92387,0,0,1-.7-.7,4.35475,4.35475,0,0,1-1-1.6,4.21251,4.21251,0,0,1-.4-1.8,4.12625,4.12625,0,0,1,.1-.9A1.92387,1.92387,0,0,1,29.701,21.7Z"/><path fill="url(#rHhtXTwGGC9wTJZXivUAzw)" d="M31.801,21.3a7.10366,7.10366,0,0,1,1.3,1.2,4.01328,4.01328,0,0,1,.8,1.6,5.10434,5.10434,0,0,1,.1.9,4.41731,4.41731,0,0,1-.8-.3,7.10366,7.10366,0,0,1-1.3-1.2,4.01328,4.01328,0,0,1-.8-1.6,5.10434,5.10434,0,0,1-.1-.9A4.41731,4.41731,0,0,1,31.801,21.3Z"/><path fill="url(#rHhtXTwGGC9wTJZXivUAzx)" d="M32.901,20.1a7.7141,7.7141,0,0,1,1.9.8,7.4708,7.4708,0,0,1,1.6,1.3,3.45306,3.45306,0,0,1,.6.8,5.10434,5.10434,0,0,1-.9-.1,7.7141,7.7141,0,0,1-1.9-.8,7.4708,7.4708,0,0,1-1.6-1.3,3.45306,3.45306,0,0,1-.6-.8A5.10434,5.10434,0,0,1,32.901,20.1Z"/><path fill="url(#rHhtXTwGGC9wTJZXivUAzy)" d="M34.641,18.56429a4.057,4.057,0,0,1,1.44,0,4.19818,4.19818,0,0,1,1.36.6,5.96632,5.96632,0,0,1,.56.51428,3.487,3.487,0,0,1-.64.25714,4.057,4.057,0,0,1-1.44,0,4.19818,4.19818,0,0,1-1.36-.6,5.96632,5.96632,0,0,1-.56-.51428A3.487,3.487,0,0,1,34.641,18.56429Z"/><path fill="url(#rHhtXTwGGC9wTJZXivUAzz)" d="M39.101,17.42857a7.02068,7.02068,0,0,1-4.2,0A2.43826,2.43826,0,0,1,34.001,17a2.43826,2.43826,0,0,1,.9-.42857,7.02068,7.02068,0,0,1,4.2,0,2.43826,2.43826,0,0,1,.9.42857A2.43826,2.43826,0,0,1,39.101,17.42857Z"/><path fill="url(#rHhtXTwGGC9wTJZXivUAzA)" d="M34.701,14.27273a5.58337,5.58337,0,0,1,2-.90909A7.00773,7.00773,0,0,1,38.901,13a6.8736,6.8736,0,0,1,1.1.09091,3.81076,3.81076,0,0,1-.7.63636,5.58337,5.58337,0,0,1-2,.90909A7.00773,7.00773,0,0,1,35.101,15a6.8736,6.8736,0,0,1-1.1-.09091A3.81076,3.81076,0,0,1,34.701,14.27273Z"/><path fill="url(#rHhtXTwGGC9wTJZXivUAzB)" d="M34.876,12.04a17.04673,17.04673,0,0,1,2.275-1.6,13.92245,13.92245,0,0,1,2.5375-1.12A10.3423,10.3423,0,0,1,41.001,9s-.35.4-.875.96a17.04673,17.04673,0,0,1-2.275,1.6,13.92245,13.92245,0,0,1-2.5375,1.12A10.3423,10.3423,0,0,1,34.001,13S34.351,12.6,34.876,12.04Z"/><path fill="url(#rHhtXTwGGC9wTJZXivUAzC)" d="M29.001,20v2c4,0,6-2,6-5,0-1.5-1-2-1-3,0-2,2.92625-4.32964,4-5.25,1.75-1.5.5-2.75-.81-1.77h-.01c-2.73,2.26-5.18,5.02-5.18,7.02,0,1.25,1,1.75,1,3a3.15193,3.15193,0,0,1-3,3Z"/><path fill="url(#rHhtXTwGGC9wTJZXivUAzD)" d="M30,21v9.382a1,1,0,0,1-.55279.89442l-5,2.5a1,1,0,0,1-.89442,0l-5-2.5A1,1,0,0,1,18,30.382V21Z"/><polygon fill="url(#rHhtXTwGGC9wTJZXivUAze)" points="20 23.5 20 32 19 31.5 19 23.5 20 23.5"/><polygon fill="url(#rHhtXTwGGC9wTJZXivUAzE)" points="29 23.5 29 31.5 28 32 28 23.5 29 23.5"/><polygon fill="url(#rHhtXTwGGC9wTJZXivUAzF)" points="26 23.5 26 33 25 33.5 25 23.5 26 23.5"/><polygon fill="url(#rHhtXTwGGC9wTJZXivUAzG)" points="23 23.5 23 33.5 22 33 22 23.5 23 23.5"/><path fill="url(#rHhtXTwGGC9wTJZXivUAzH)" d="M19,19H29a1,1,0,0,1,1,1v4a0,0,0,0,1,0,0H18a0,0,0,0,1,0,0V20A1,1,0,0,1,19,19Z"/><path fill="url(#rHhtXTwGGC9wTJZXivUAzI)" d="M20,13a1.95878,1.95878,0,0,1,2-2l1,1-1,1Z"/><path fill="#5c2415" d="M25,11H24a.5.5,0,0,0,0,1C24.27614,12,25,11,25,11Z"/><g><path d="M26.9,33.1l-.19-.45-2.26,1.13a1.06226,1.06226,0,0,1-.9,0l-2.26-1.13-.19.45-.2.47,2.21,1.1a1.99083,1.99083,0,0,0,1.78,0l2.21-1.1Zm1.08-14.6a4.25489,4.25489,0,0,0-.06-.5H20.15a2.781,2.781,0,0,0-.11.5A2.73921,2.73921,0,0,0,20,19h8C28,18.83,27.99,18.67,27.98,18.5ZM17.01,19.78A1.54713,1.54713,0,0,0,17,20v7.94a1.1476,1.1476,0,0,0,.5.26,1.06446,1.06446,0,0,0,.5-.02V20a1.9794,1.9794,0,0,1-.49-.07C17.36,19.89,17.19,19.84,17.01,19.78Zm13.98,0c-.18.06-.35.11-.5.15A1.9794,1.9794,0,0,1,30,20v8.18a1.06446,1.06446,0,0,0,.5.02,1.1476,1.1476,0,0,0,.5-.26V20A1.54713,1.54713,0,0,0,30.99,19.78Zm-.95,11.68L29.78,31a.82549.82549,0,0,1-.33.28l-1.53.77.33.38.34.39,1.3-.65a1.76727,1.76727,0,0,0,.39-.26Zm-11.49-.18a.82549.82549,0,0,1-.33-.28l-.25995.46-.24005.45a1.76727,1.76727,0,0,0,.39.26l1.3.65.34-.39.33-.38Z" opacity=".05"/><path d="M26.71,32.65l-2.26,1.13a1.06226,1.06226,0,0,1-.9,0l-2.26-1.13-.19.45,2.23,1.12a1.48248,1.48248,0,0,0,1.34,0L26.9,33.1ZM27.98,18.5H20.04A2.73921,2.73921,0,0,0,20,19h8C28,18.83,27.99,18.67,27.98,18.5ZM17.5,20v8.2a1.06446,1.06446,0,0,0,.5-.02V20a1.9794,1.9794,0,0,1-.49-.07A.17007.17007,0,0,0,17.5,20Zm12.99-.07A1.9794,1.9794,0,0,1,30,20v8.18a1.06446,1.06446,0,0,0,.5.02V20A.17007.17007,0,0,0,30.49,19.93ZM29.78,31a.82549.82549,0,0,1-.33.28l-1.53.77.33.38,1.42-.71a1.44036,1.44036,0,0,0,.37-.26Zm-11.23.28a.82549.82549,0,0,1-.33-.28l-.25995.46a1.44036,1.44036,0,0,0,.37.26l1.42.71.33-.38Z" opacity=".07"/></g><rect width="1" height="2" x="18" y="35" opacity=".05"/><rect width=".5" height="2" x="18" y="35" opacity=".07"/><rect width="1" height="2" x="14" y="35" opacity=".05" transform="rotate(180 14.5 36)"/><rect width=".5" height="2" x="14.5" y="35" opacity=".07" transform="rotate(180 14.75 36)"/><rect width="1" height="2" x="29" y="35" opacity=".05" transform="rotate(180 29.5 36)"/><rect width=".5" height="2" x="29.5" y="35" opacity=".07" transform="rotate(180 29.75 36)"/></svg>