<svg xmlns="http://www.w3.org/2000/svg" viewBox="0 0 48 48"><linearGradient id="0YdsRg9x_5chXN4JCaMHta" x1="11.274" x2="36.726" y1="9.271" y2="34.723" gradientUnits="userSpaceOnUse"><stop offset="0" stop-color="#d43a02"/><stop offset="1" stop-color="#b9360c"/></linearGradient><path fill="url(#0YdsRg9x_5chXN4JCaMHta)" d="M36.902,34.536C40.052,31.294,42,26.877,42,22c0-9.94-8.06-18-18-18S6,12.06,6,22	c0,4.877,1.948,9.294,5.098,12.536c0.018,0.019,0.03,0.04,0.048,0.059l0.059,0.059c0.047,0.048,0.094,0.095,0.142,0.142	l11.239,11.239c0.781,0.781,2.047,0.781,2.828,0l11.239-11.239c0.048-0.047,0.095-0.094,0.142-0.142l0.059-0.059	C36.873,34.576,36.885,34.554,36.902,34.536z"/><radialGradient id="0YdsRg9x_5chXN4JCaMHtb" cx="24" cy="22" r="12" gradientUnits="userSpaceOnUse"><stop offset=".724" stop-color="#ffed54"/><stop offset=".779" stop-color="#ffe649"/><stop offset=".877" stop-color="#ffd22d"/><stop offset="1" stop-color="#ffb300"/></radialGradient><path fill="url(#0YdsRg9x_5chXN4JCaMHtb)" d="M24,10l0.775,0.804c0.507,0.526,1.303,0.652,1.948,0.309l0.985-0.525l0.489,1.004	c0.32,0.658,1.037,1.023,1.757,0.895l1.1-0.195l0.154,1.106c0.101,0.724,0.67,1.293,1.395,1.395l1.106,0.154l-0.195,1.1	c-0.128,0.72,0.238,1.437,0.895,1.757l1.004,0.489l-0.525,0.985c-0.344,0.645-0.218,1.44,0.309,1.948L36,22l-0.804,0.775	c-0.526,0.507-0.652,1.303-0.309,1.948l0.525,0.985l-1.004,0.489c-0.658,0.32-1.023,1.037-0.895,1.757l0.195,1.1l-1.106,0.154	c-0.724,0.101-1.293,0.67-1.395,1.395l-0.154,1.106l-1.1-0.195c-0.72-0.128-1.437,0.238-1.757,0.895l-0.489,1.004l-0.985-0.525	c-0.645-0.344-1.44-0.218-1.948,0.309L24,34l-0.775-0.804c-0.507-0.526-1.303-0.652-1.948-0.309l-0.985,0.525l-0.489-1.004	c-0.32-0.658-1.037-1.023-1.757-0.895l-1.1,0.195l-0.154-1.106c-0.101-0.724-0.67-1.293-1.395-1.395l-1.106-0.154l0.195-1.1	c0.128-0.72-0.238-1.437-0.895-1.757l-1.004-0.489l0.525-0.985c0.344-0.645,0.218-1.44-0.309-1.948L12,22l0.804-0.775	c0.526-0.507,0.652-1.303,0.309-1.948l-0.525-0.985l1.004-0.489c0.658-0.32,1.023-1.037,0.895-1.757l-0.195-1.1l1.106-0.154	c0.724-0.101,1.293-0.67,1.395-1.395l0.154-1.106l1.1,0.195c0.72,0.128,1.437-0.238,1.757-0.895l0.489-1.004l0.985,0.525	c0.645,0.344,1.44,0.218,1.948-0.309L24,10z"/><linearGradient id="0YdsRg9x_5chXN4JCaMHtc" x1="15.578" x2="30.351" y1="13.578" y2="28.351" gradientUnits="userSpaceOnUse"><stop offset="0" stop-color="#fed100"/><stop offset="1" stop-color="#e36001"/></linearGradient><path fill="url(#0YdsRg9x_5chXN4JCaMHtc)" d="M24,13c-4.971,0-9,4.029-9,9s4.029,9,9,9s9-4.029,9-9S28.971,13,24,13z"/></svg>