<svg xmlns="http://www.w3.org/2000/svg" viewBox="0 0 48 48"><linearGradient id="FmUtLacapjRzc59A2tQTRa" x1="-7.018" x2="39.387" y1="9.308" y2="33.533" gradientUnits="userSpaceOnUse"><stop offset="0" stop-color="#0c7ee1"/><stop offset=".909" stop-color="#06609e"/></linearGradient><path fill="url(#FmUtLacapjRzc59A2tQTRa)" d="M44.5,41h-41C2.119,41,1,39.881,1,38.5v-31C1,6.119,2.119,5,3.5,5h11.597 c1.519,0,2.955,0.69,3.904,1.877L21.5,10h23c1.381,0,2.5,1.119,2.5,2.5v26C47,39.881,45.881,41,44.5,41z"/><linearGradient id="FmUtLacapjRzc59A2tQTRb" x1="16.865" x2="44.965" y1="39.287" y2="39.792" gradientUnits="userSpaceOnUse"><stop offset="0" stop-color="#085aa3"/><stop offset=".464" stop-color="#024589"/></linearGradient><path fill="url(#FmUtLacapjRzc59A2tQTRb)" d="M1,37.875V38.5C1,39.881,2.119,41,3.5,41h41c1.381,0,2.5-1.119,2.5-2.5v-0.625H1z"/><linearGradient id="FmUtLacapjRzc59A2tQTRc" x1="-4.879" x2="35.968" y1="12.764" y2="30.778" gradientUnits="userSpaceOnUse"><stop offset=".34" stop-color="#66d1ff"/><stop offset=".489" stop-color="#61cefd"/><stop offset=".66" stop-color="#53c5f8"/><stop offset=".84" stop-color="#3db7ef"/><stop offset="1" stop-color="#22a6e4"/></linearGradient><path fill="url(#FmUtLacapjRzc59A2tQTRc)" d="M44.5,11h-23l-1.237,0.824C19.114,12.591,17.763,13,16.381,13H3.5C2.119,13,1,14.119,1,15.5 v22C1,38.881,2.119,40,3.5,40h41c1.381,0,2.5-1.119,2.5-2.5v-24C47,12.119,45.881,11,44.5,11z"/><radialGradient id="FmUtLacapjRzc59A2tQTRd" cx="37.836" cy="49.317" r="53.875" gradientUnits="userSpaceOnUse"><stop offset=".199" stop-color="#0b6bbf"/><stop offset=".601" stop-color="#1992d7"/><stop offset=".835" stop-color="#32a7e4"/><stop offset="1" stop-color="#3eb2eb"/></radialGradient><path fill="url(#FmUtLacapjRzc59A2tQTRd)" d="M44.5,40h-41C2.119,40,1,38.881,1,37.5v-21C1,15.119,2.119,14,3.5,14h13.256 c1.382,0,2.733-0.409,3.883-1.176L21.875,12H44.5c1.381,0,2.5,1.119,2.5,2.5v23C47,38.881,45.881,40,44.5,40z"/><g><linearGradient id="FmUtLacapjRzc59A2tQTRe" x1="16.514" x2="6.254" y1="36.632" y2="11.454" gradientUnits="userSpaceOnUse"><stop offset=".252" stop-color="#189fe1"/><stop offset=".903" stop-color="#3fc3f2"/></linearGradient><path fill="url(#FmUtLacapjRzc59A2tQTRe)" d="M26.614,24.977L8,14H3.5C2.119,14,1,15.119,1,16.5V35L26.614,24.977z"/><linearGradient id="FmUtLacapjRzc59A2tQTRf" x1="1.226" x2="46.83" y1="30.778" y2="36.802" gradientUnits="userSpaceOnUse"><stop offset=".114" stop-color="#1ea5e4"/><stop offset="1" stop-color="#088dda"/></linearGradient><path fill="url(#FmUtLacapjRzc59A2tQTRf)" d="M1,35v2.5C1,38.881,2.119,40,3.5,40h41c1.35,0,2.451-1.071,2.498-2.41L26.211,25.135L1,35z"/><linearGradient id="FmUtLacapjRzc59A2tQTRg" x1="42.347" x2="36.178" y1="48.346" y2="19.035" gradientUnits="userSpaceOnUse"><stop offset=".129" stop-color="#007bcb"/><stop offset="1" stop-color="#18a3e4"/></linearGradient><polygon fill="url(#FmUtLacapjRzc59A2tQTRg)" points="47,17 26.211,25.135 47,37.59"/><linearGradient id="FmUtLacapjRzc59A2tQTRh" x1="21.689" x2="32.343" y1="-.411" y2="26.022" gradientUnits="userSpaceOnUse"><stop offset=".17" stop-color="#2ebbf3"/><stop offset=".425" stop-color="#2bb5ef"/><stop offset=".76" stop-color="#21a5e3"/><stop offset=".98" stop-color="#1896d9"/></linearGradient><path fill="url(#FmUtLacapjRzc59A2tQTRh)" d="M44.5,12H21.875l-1.237,0.824C19.489,13.591,18.138,14,16.756,14H8l18.614,10.977L47,17v-2.5 C47,13.119,45.881,12,44.5,12z"/></g><g><path d="M31.5,35h-14c-4.136,0-7.5-3.364-7.5-7.5c0-3.893,2.916-7.071,6.731-7.454 C18.514,17.503,21.38,16,24.5,16c4.003,0,7.599,2.562,8.939,6.297C36.114,23.135,38,25.655,38,28.5C38,32.084,35.084,35,31.5,35z" opacity=".05"/><path d="M31.5,34.5h-14c-3.86,0-7-3.14-7-7c0-3.71,2.839-6.725,6.511-6.976C18.687,18,21.468,16.5,24.5,16.5 c3.877,0,7.351,2.537,8.55,6.205c2.596,0.694,4.45,3.085,4.45,5.795C37.5,31.809,34.809,34.5,31.5,34.5z" opacity=".07"/><radialGradient id="FmUtLacapjRzc59A2tQTRi" cx="24.5" cy="25.5" r="8.5" gradientUnits="userSpaceOnUse"><stop offset=".222" stop-color="#81c6e7"/><stop offset=".78" stop-color="#84d1ef"/><stop offset="1" stop-color="#86d7f4"/></radialGradient><circle cx="24.5" cy="25.5" r="8.5" fill="url(#FmUtLacapjRzc59A2tQTRi)"/><linearGradient id="FmUtLacapjRzc59A2tQTRj" x1="18.199" x2="22.081" y1="18.436" y2="26.718" gradientUnits="userSpaceOnUse"><stop offset="0" stop-color="#cbf5f7"/><stop offset=".909" stop-color="#c9e6f4"/></linearGradient><path fill="url(#FmUtLacapjRzc59A2tQTRj)" d="M36.3,31.18C35.37,32.86,33.57,34,31.5,34h-14c-3.59,0-6.5-2.91-6.5-6.5 c0-3.59,2.91-6.5,6.5-6.5c1.24,0,2.39,0.34,3.38,0.94C21.01,22.02,36.3,31.18,36.3,31.18z"/><linearGradient id="FmUtLacapjRzc59A2tQTRk" x1="30.52" x2="26.525" y1="20.093" y2="26.823" gradientUnits="userSpaceOnUse"><stop offset=".324" stop-color="#cbf5f7"/><stop offset=".909" stop-color="#c2dfef"/></linearGradient><path fill="url(#FmUtLacapjRzc59A2tQTRk)" d="M37,28.5c0,3.04-2.46,5.5-5.5,5.5h-14c-2.42,0-4.54-1.32-5.65-3.29 c1.27-0.53,2.63-1.1,4-1.67c6.16-2.57,12.62-5.27,13.65-5.67c0.62-0.24,1.29-0.37,2-0.37C34.54,23,37,25.46,37,28.5z"/><linearGradient id="FmUtLacapjRzc59A2tQTRl" x1="24.077" x2="24.077" y1="24.051" y2="34.618" gradientUnits="userSpaceOnUse"><stop offset="0" stop-color="#fffdfe"/><stop offset=".909" stop-color="#efffff"/></linearGradient><path fill="url(#FmUtLacapjRzc59A2tQTRl)" d="M36.304,31.182C35.364,32.864,33.566,34,31.5,34h-14c-2.42,0-4.54-1.32-5.65-3.29 c1.27-0.53,13.953-5.819,13.953-5.819L36.304,31.182z"/></g></svg>