<svg xmlns="http://www.w3.org/2000/svg" viewBox="0 0 48 48"><linearGradient id="zESIJ6QcIJ2AKEKd2UUbqa" x1="37.74" x2="4.461" y1="16.024" y2="49.304" gradientUnits="userSpaceOnUse"><stop offset="0" stop-color="#fed100"/><stop offset="1" stop-color="#e38101"/></linearGradient><path fill="url(#zESIJ6QcIJ2AKEKd2UUbqa)" d="M43,17.489v10c0,0.828-0.672,1.5-1.5,1.5s-1.5-0.672-1.5-1.5c0,0,0-0.866,0-0.994	c0-0.472-0.127-0.894-0.699-0.353c-0.128,0.121-0.176,0.173-0.608,0.605l-0.107,0.107C38.211,27.228,38,27.737,38,28.268v5.722	c0,1.215-1.083,2.176-2.336,1.973C34.681,35.802,34,34.878,34,33.882l0-1.236c0-0.445-0.539-0.669-0.854-0.354l-2.561,2.561	C30.211,35.228,30,35.737,30,36.268v3.972c0,0.552-0.448,1-1,1s-1-0.448-1-1v-1.593c0-0.445-0.539-0.669-0.854-0.354l-4.066,4.066	c-0.82,0.82-2.14,0.86-2.92,0.08L4.55,26.829c-0.78-0.78-0.74-2.1,0.08-2.92L19.378,9.161c0.75-0.75,1.768-1.172,2.828-1.172	l15.468,0c1.384,0,2.678,0.711,3.407,1.887c0.413,0.665,0.758,1.363,1.038,2.083c0.682,1.755,0.962,3.643,0.85,5.53H43z M36.5,37.989c-0.828,0-1.5,0.895-1.5,2c0,1.105,0.672,2,1.5,2s1.5-0.895,1.5-2C38,38.885,37.328,37.989,36.5,37.989z"/><linearGradient id="zESIJ6QcIJ2AKEKd2UUbqb" x1="23.3" x2="23.3" y1="48.224" y2="34.883" gradientTransform="rotate(45.001 24 24.016)" gradientUnits="userSpaceOnUse"><stop offset="0" stop-color="#d67526"/><stop offset=".147" stop-color="#c86b1f"/><stop offset=".447" stop-color="#b35b13"/><stop offset=".736" stop-color="#a5510c"/><stop offset="1" stop-color="#a14e0a"/></linearGradient><path fill="url(#zESIJ6QcIJ2AKEKd2UUbqb)" d="M17.442,29.586L17.442,29.586c0.781,0.781,0.781,2.047,0,2.828l-9.027,9.027	c-0.781,0.781-2.047,0.781-2.828,0h0c-0.781-0.781-0.781-2.047,0-2.828l9.027-9.027C15.394,28.805,16.66,28.805,17.442,29.586z"/><linearGradient id="zESIJ6QcIJ2AKEKd2UUbqc" x1="39.956" x2="11.098" y1="7.033" y2="35.891" gradientUnits="userSpaceOnUse"><stop offset="0" stop-color="#fed100"/><stop offset="1" stop-color="#e38101"/></linearGradient><path fill="url(#zESIJ6QcIJ2AKEKd2UUbqc)" d="M42.12,11.959l-26.21,26.22l-7.1-7.1l23.1-23.09h5.765c1.384,0,2.678,0.711,3.407,1.887	C41.495,10.541,41.84,11.239,42.12,11.959z"/></svg>