<svg xmlns="http://www.w3.org/2000/svg" viewBox="0 0 48 48"><linearGradient id="zMaXLcZdv~ScKdwPAUUhEa" x1="21.87" x2="22.189" y1="-434.039" y2="-447.671" gradientTransform="matrix(1 0 0 -1 0 -426)" gradientUnits="userSpaceOnUse"><stop offset=".056" stop-color="#d94a23"/><stop offset=".175" stop-color="#cf4621"/><stop offset=".38" stop-color="#b33d1d"/><stop offset=".646" stop-color="#862d16"/><stop offset=".96" stop-color="#48180c"/><stop offset="1" stop-color="#40150b"/></linearGradient><path fill="url(#zMaXLcZdv~ScKdwPAUUhEa)" d="M40,18H4v-6.16c0-1.04,0.797-1.906,1.834-1.993l32-2.667C39,7.083,40,8.004,40,9.174V18z"/><linearGradient id="zMaXLcZdv~ScKdwPAUUhEb" x1="22.696" x2="29.383" y1="-432.576" y2="-456.443" gradientTransform="matrix(0 1 1 0 465.91 -8.09)" gradientUnits="userSpaceOnUse"><stop offset="0" stop-color="#32bdef"/><stop offset="1" stop-color="#1ea2e4"/></linearGradient><path fill="url(#zMaXLcZdv~ScKdwPAUUhEb)" d="M35,32.7V2.3C35,1.03,33.97,0,32.7,0H13.3C12.03,0,11,1.03,11,2.3v30.4	c0,1.27,1.03,2.3,2.3,2.3h19.4C33.97,35,35,33.97,35,32.7z"/><linearGradient id="zMaXLcZdv~ScKdwPAUUhEc" x1="8.091" x2="43.091" y1="-436.409" y2="-436.409" gradientTransform="matrix(0 1 1 0 465.91 -8.09)" gradientUnits="userSpaceOnUse"><stop offset="0" stop-color="#45494d"/><stop offset="1" stop-color="#6d7479"/></linearGradient><rect width="3" height="35" x="28" fill="url(#zMaXLcZdv~ScKdwPAUUhEc)"/><path fill="#a8e7ff" d="M23,32.2V3.8C23,3.358,23.358,3,23.8,3h1.4C25.642,3,26,3.358,26,3.8v28.4c0,0.442-0.358,0.8-0.8,0.8	h-1.4C23.358,33,23,32.642,23,32.2z"/><path d="M11,13v19.7c0,1.27,1.03,2.3,2.3,2.3h19.4c1.27,0,2.3-1.03,2.3-2.3V13H11z" opacity=".05"/><path d="M11,13.5v19.2c0,1.27,1.03,2.3,2.3,2.3h19.4c1.27,0,2.3-1.03,2.3-2.3V13.5H11z" opacity=".07"/><linearGradient id="zMaXLcZdv~ScKdwPAUUhEd" x1="19.79" x2="27.013" y1="-433.703" y2="-468.526" gradientTransform="matrix(1 0 0 -1 0 -426)" gradientUnits="userSpaceOnUse"><stop offset="0" stop-color="#fc7d5b"/><stop offset=".142" stop-color="#fa7753"/><stop offset="1" stop-color="#ed5328"/></linearGradient><path fill="url(#zMaXLcZdv~ScKdwPAUUhEd)" d="M42,42H6c-1.105,0-2-0.895-2-2V12c0,1.105,0.895,2,2,2h36c1.105,0,2,0.895,2,2v24	C44,41.105,43.105,42,42,42z"/><radialGradient id="zMaXLcZdv~ScKdwPAUUhEe" cx="38" cy="-453" r="3" gradientTransform="matrix(1 0 0 -1 0 -426)" gradientUnits="userSpaceOnUse"><stop offset="0"/><stop offset="1" stop-opacity="0"/></radialGradient><circle cx="38" cy="27" r="3" fill="url(#zMaXLcZdv~ScKdwPAUUhEe)" opacity=".3"/><path fill="#fff" d="M38,25c-1.105,0-2,0.895-2,2s0.895,2,2,2s2-0.895,2-2S39.105,25,38,25z"/></svg>