<svg xmlns="http://www.w3.org/2000/svg" viewBox="0 0 48 48"><radialGradient id="Hf2X8veLEykjiM8qoWrxYa" cx="14.961" cy="2.99" r="56.266" gradientUnits="userSpaceOnUse"><stop offset="0" stop-color="#ffcf54"/><stop offset=".261" stop-color="#fdcb4d"/><stop offset=".639" stop-color="#f7c13a"/><stop offset="1" stop-color="#f0b421"/></radialGradient><path fill="url(#Hf2X8veLEykjiM8qoWrxYa)" d="M31,39.4l2.6,0.5c2.9,0.6,5.6-1.5,5.8-4.4L40,29l2.9-1.2c1-0.4,1.4-1.6,0.8-2.6L40,19	c-0.6-7.6-4.9-15-16-15C13,4,7,11.4,7,20c0,3.7,1.3,7.9,3.3,10.6c1.8,2.5,2.7,5.5,2.7,8.5v2.8c0,1.105,0.895,2,2,2h14	c1.105,0,2-0.895,2-2V39.4z"/><linearGradient id="Hf2X8veLEykjiM8qoWrxYb" x1="3.207" x2="20.887" y1="6.831" y2="19.744" gradientUnits="userSpaceOnUse"><stop offset="0" stop-color="#28afea"/><stop offset="1" stop-color="#047ed6"/></linearGradient><path fill="url(#Hf2X8veLEykjiM8qoWrxYb)" d="M3,20V6h18v14c0,0.55-0.45,1-1,1H4C3.45,21,3,20.55,3,20z"/><linearGradient id="Hf2X8veLEykjiM8qoWrxYc" x1="3.21" x2="20.599" y1="3.304" y2="6.84" gradientUnits="userSpaceOnUse"><stop offset="0" stop-color="#0077d2"/><stop offset="1" stop-color="#0b59a2"/></linearGradient><path fill="url(#Hf2X8veLEykjiM8qoWrxYc)" d="M21,4v3H3V4c0-0.55,0.45-1,1-1h16C20.55,3,21,3.45,21,4z"/><path d="M17,6L17,6c-1.105,0-2-0.895-2-2V3h4v1C19,5.105,18.105,6,17,6z" opacity=".05"/><path fill="#fff" d="M19,9.25v1.5c0,0.138-0.112,0.25-0.25,0.25h-1.5C17.112,11,17,10.888,17,10.75v-1.5	C17,9.112,17.112,9,17.25,9h1.5C18.888,9,19,9.112,19,9.25z M15,9.25v1.5c0,0.138-0.112,0.25-0.25,0.25h-1.5	C13.112,11,13,10.888,13,10.75v-1.5C13,9.112,13.112,9,13.25,9h1.5C14.888,9,15,9.112,15,9.25z M11,9.25v1.5	c0,0.138-0.112,0.25-0.25,0.25h-1.5C9.112,11,9,10.888,9,10.75v-1.5C9,9.112,9.112,9,9.25,9h1.5C10.888,9,11,9.112,11,9.25z"/><path fill="#fff" d="M19,13.25v1.5c0,0.138-0.112,0.25-0.25,0.25h-1.5C17.112,15,17,14.888,17,14.75v-1.5	c0-0.138,0.112-0.25,0.25-0.25h1.5C18.888,13,19,13.112,19,13.25z M15,13.25v1.5c0,0.138-0.112,0.25-0.25,0.25h-1.5	C13.112,15,13,14.888,13,14.75v-1.5c0-0.138,0.112-0.25,0.25-0.25h1.5C14.888,13,15,13.112,15,13.25z M11,13.25v1.5	c0,0.138-0.112,0.25-0.25,0.25h-1.5C9.112,15,9,14.888,9,14.75v-1.5C9,13.112,9.112,13,9.25,13h1.5C10.888,13,11,13.112,11,13.25z M7,13.25v1.5C7,14.888,6.888,15,6.75,15h-1.5C5.112,15,5,14.888,5,14.75v-1.5C5,13.112,5.112,13,5.25,13h1.5	C6.888,13,7,13.112,7,13.25z"/><path fill="#fff" d="M15,17.25v1.5c0,0.138-0.112,0.25-0.25,0.25h-1.5C13.112,19,13,18.888,13,18.75v-1.5	c0-0.138,0.112-0.25,0.25-0.25h1.5C14.888,17,15,17.112,15,17.25z M11,17.25v1.5c0,0.138-0.112,0.25-0.25,0.25h-1.5	C9.112,19,9,18.888,9,18.75v-1.5C9,17.112,9.112,17,9.25,17h1.5C10.888,17,11,17.112,11,17.25z M7,17.25v1.5	C7,18.888,6.888,19,6.75,19h-1.5C5.112,19,5,18.888,5,18.75v-1.5C5,17.112,5.112,17,5.25,17h1.5C6.888,17,7,17.112,7,17.25z"/><path d="M17,5.5c0.828,0,1.5-0.672,1.5-1.5V3h-3v1C15.5,4.828,16.172,5.5,17,5.5z" opacity=".07"/><path fill="#3ccbf4" d="M17,2c-0.552,0-1,0.448-1,1v1c0,0.552,0.448,1,1,1s1-0.448,1-1V3C18,2.448,17.552,2,17,2z"/><path d="M7,6L7,6C5.895,6,5,5.105,5,4V3h4v1C9,5.105,8.105,6,7,6z" opacity=".05"/><path d="M7,5.5c0.828,0,1.5-0.672,1.5-1.5V3h-3v1C5.5,4.828,6.172,5.5,7,5.5z" opacity=".07"/><path fill="#3ccbf4" d="M7,2C6.448,2,6,2.448,6,3v1c0,0.552,0.448,1,1,1s1-0.448,1-1V3C8,2.448,7.552,2,7,2z"/></svg>