<svg xmlns="http://www.w3.org/2000/svg" viewBox="0 0 48 48"><linearGradient id="nkY3lTVlPRW1gaP6fkIgua" x1="19.596" x2="27.596" y1="39" y2="39" gradientTransform="rotate(90 24 24)" gradientUnits="userSpaceOnUse"><stop offset="0" stop-color="#7819a2"/><stop offset="1" stop-color="#771aa9"/></linearGradient><path fill="url(#nkY3lTVlPRW1gaP6fkIgua)" d="M5,23.594c0-2.207,1.791-3.998,4-3.998c2.21,0,4,1.791,4,3.998c0,2.211-1.79,4.002-4,4.002	C6.791,27.596,5,25.805,5,23.594z"/><linearGradient id="nkY3lTVlPRW1gaP6fkIgub" x1="36" x2="42" y1="23.404" y2="23.404" gradientTransform="rotate(90 24 24)" gradientUnits="userSpaceOnUse"><stop offset="0" stop-color="#912fbd"/><stop offset="1" stop-color="#9332bf"/></linearGradient><path fill="url(#nkY3lTVlPRW1gaP6fkIgub)" d="M27.596,39c0-1.657-1.343-3-3-3s-3,1.343-3,3s1.343,3,3,3S27.596,40.657,27.596,39z"/><linearGradient id="nkY3lTVlPRW1gaP6fkIguc" x1="31.516" x2="37.516" y1="12.498" y2="12.498" gradientTransform="rotate(90 24 24)" gradientUnits="userSpaceOnUse"><stop offset="0" stop-color="#912fbd"/><stop offset="1" stop-color="#9332bf"/></linearGradient><path fill="url(#nkY3lTVlPRW1gaP6fkIguc)" d="M32.502,34.518c0-1.659,1.344-3.002,3-3.002c1.656,0,3,1.343,3,3.002	c0,1.654-1.344,2.998-3,2.998C33.846,37.516,32.502,36.172,32.502,34.518z"/><linearGradient id="nkY3lTVlPRW1gaP6fkIgud" x1="20.596" x2="26.596" y1="8" y2="8" gradientTransform="rotate(90 24 24)" gradientUnits="userSpaceOnUse"><stop offset="0" stop-color="#ae4cd5"/><stop offset="1" stop-color="#ac4ad5"/></linearGradient><path fill="url(#nkY3lTVlPRW1gaP6fkIgud)" d="M37,23.594c0-1.654,1.344-2.998,3.002-2.998c1.655,0,2.998,1.343,2.998,2.998	c0,1.66-1.343,3.002-2.998,3.002C38.344,26.596,37,25.254,37,23.594z"/><linearGradient id="nkY3lTVlPRW1gaP6fkIgue" x1="6" x2="10" y1="22.893" y2="22.893" gradientTransform="rotate(90 24 24)" gradientUnits="userSpaceOnUse"><stop offset="0" stop-color="#c965eb"/><stop offset="1" stop-color="#c767e5"/></linearGradient><circle cx="25.107" cy="8" r="2" fill="url(#nkY3lTVlPRW1gaP6fkIgue)"/><linearGradient id="nkY3lTVlPRW1gaP6fkIguf" x1="11.176" x2="14.176" y1="34.309" y2="34.309" gradientTransform="rotate(90 24 24)" gradientUnits="userSpaceOnUse"><stop offset="0" stop-color="#c965eb"/><stop offset="1" stop-color="#c767e5"/></linearGradient><path fill="url(#nkY3lTVlPRW1gaP6fkIguf)" d="M12.191,12.678c0-0.828,0.67-1.502,1.5-1.502c0.824,0,1.5,0.674,1.5,1.502	s-0.676,1.498-1.5,1.498C12.861,14.176,12.191,13.506,12.191,12.678z"/><linearGradient id="nkY3lTVlPRW1gaP6fkIgug" x1="10.177" x2="15.177" y1="12.498" y2="12.498" gradientTransform="rotate(90 24 24)" gradientUnits="userSpaceOnUse"><stop offset="0" stop-color="#ae4cd5"/><stop offset="1" stop-color="#ac4ad5"/></linearGradient><circle cx="35.502" cy="12.677" r="2.5" fill="url(#nkY3lTVlPRW1gaP6fkIgug)"/><linearGradient id="nkY3lTVlPRW1gaP6fkIguh" x1="31.016" x2="38.016" y1="34.309" y2="34.309" gradientTransform="rotate(90 24 24)" gradientUnits="userSpaceOnUse"><stop offset="0" stop-color="#912fbd"/><stop offset="1" stop-color="#9332bf"/></linearGradient><path fill="url(#nkY3lTVlPRW1gaP6fkIguh)" d="M10.191,34.518c0-1.935,1.565-3.502,3.5-3.502c1.932,0,3.5,1.567,3.5,3.502	c0,1.93-1.568,3.498-3.5,3.498C11.757,38.016,10.191,36.447,10.191,34.518z"/></svg>