<svg xmlns="http://www.w3.org/2000/svg" viewBox="0 0 48 48"><path fill="#c48c00" d="M18.5,35c-0.389,0-0.759-0.229-0.92-0.608L10,16.557L2.42,34.392	c-0.215,0.508-0.804,0.745-1.312,0.528c-0.508-0.216-0.745-0.803-0.528-1.312l8.5-20C9.236,13.239,9.599,13,10,13	s0.764,0.239,0.92,0.608l8.5,20c0.217,0.509-0.021,1.096-0.528,1.312C18.764,34.975,18.631,35,18.5,35z"/><path fill="#c48c00" d="M46.5,35c-0.389,0-0.759-0.229-0.92-0.608L38,16.557l-7.58,17.835	c-0.215,0.508-0.803,0.745-1.312,0.528c-0.508-0.216-0.745-0.803-0.528-1.312l8.5-20C37.236,13.239,37.599,13,38,13	s0.764,0.239,0.92,0.608l8.5,20c0.217,0.509-0.021,1.096-0.528,1.312C46.764,34.975,46.631,35,46.5,35z"/><path fill="#fad500" d="M46.5,33c-0.828,0-1.5,0.672-1.5,1.5s0.672,1.5,1.5,1.5s1.5-0.672,1.5-1.5S47.328,33,46.5,33z"/><path fill="#fad500" d="M29.5,33c-0.828,0-1.5,0.672-1.5,1.5s0.672,1.5,1.5,1.5s1.5-0.672,1.5-1.5S30.328,33,29.5,33z"/><path fill="#fad500" d="M47.83,35.195c0,0-2.793,5.805-9.83,5.805v-8h8.5L47.83,35.195z"/><path fill="#fad500" d="M29.5,33H38v8c-7.037,0-9.83-5.805-9.83-5.805L29.5,33z"/><path fill="#fad500" d="M18.5,33c-0.828,0-1.5,0.672-1.5,1.5s0.672,1.5,1.5,1.5s1.5-0.672,1.5-1.5S19.328,33,18.5,33z"/><path fill="#fad500" d="M1.5,33C0.672,33,0,33.672,0,34.5S0.672,36,1.5,36S3,35.328,3,34.5S2.328,33,1.5,33z"/><path fill="#fad500" d="M19.83,35.195c0,0-2.793,5.805-9.83,5.805v-8h8.5L19.83,35.195z"/><path fill="#fad500" d="M1.5,33H10v8c-7.037,0-9.83-5.805-9.83-5.805L1.5,33z"/><path fill="#e3a600" d="M41,14c-5.166,0-7.706-1.801-9.947-3.389C29.076,9.21,27.369,8,24,8c-0.553,0-1-0.447-1-1	s0.447-1,1-1c4.006,0,6.144,1.515,8.21,2.979C34.401,10.533,36.471,12,41,12c0.553,0,1,0.447,1,1S41.553,14,41,14z"/><path fill="#e3a600" d="M7,14c-0.553,0-1-0.447-1-1s0.447-1,1-1c4.529,0,6.599-1.467,8.79-3.021C17.856,7.515,19.994,6,24,6	c0.553,0,1,0.447,1,1s-0.447,1-1,1c-3.369,0-5.076,1.21-7.053,2.611C14.706,12.199,12.166,14,7,14z"/><circle cx="24" cy="7" r="2" fill="#fad500"/></svg>