<svg xmlns="http://www.w3.org/2000/svg" viewBox="0 0 48 48"><path fill="#abb4be" d="M26,26h-4v-6h4V26z M34,20h-2v6h2V20z M16,20h-2v6h2V20z"/><linearGradient id="sUuxkwe~zOajrQSwFPRoZa" x1="8.894" x2="50.38" y1="-4.066" y2="40.057" gradientUnits="userSpaceOnUse"><stop offset="0" stop-color="#6d7479"/><stop offset="1" stop-color="#323538"/></linearGradient><path fill="url(#sUuxkwe~zOajrQSwFPRoZa)" d="M10,18V6c0-1.105,0.895-2,2-2h24c1.105,0,2,0.895,2,2v12c0,1.105-0.895,2-2,2H12	C10.895,20,10,19.105,10,18z"/><linearGradient id="sUuxkwe~zOajrQSwFPRoZb" x1="-2.137" x2="39.349" y1="6.306" y2="50.428" gradientUnits="userSpaceOnUse"><stop offset="0" stop-color="#6d7479"/><stop offset="1" stop-color="#323538"/></linearGradient><path fill="url(#sUuxkwe~zOajrQSwFPRoZb)" d="M10,41V28c0-1.105,0.895-2,2-2h24c1.105,0,2,0.895,2,2v13H10z"/><path fill="#9ca5ad" d="M10,39h28v4c0,0.552-0.448,1-1,1H11c-0.552,0-1-0.448-1-1V39z"/></svg>