<svg xmlns="http://www.w3.org/2000/svg" viewBox="0 0 48 48"><linearGradient id="NEw~dPkct_GEQbQU_Xh4Ua" x1="36.697" x2="44.424" y1="24.694" y2="24.694" gradientUnits="userSpaceOnUse"><stop offset="0" stop-color="#8c20e5"/><stop offset=".528" stop-color="#a235ec"/><stop offset="1" stop-color="#bd4ff4"/></linearGradient><path fill="url(#NEw~dPkct_GEQbQU_Xh4Ua)" d="M28,35.387V14h14c1.654,0,3,1.346,3,3v9.117c0,2.155-1.374,4.062-3.419,4.743L28,35.387z M30,16v16.613l10.948-3.65C42.176,28.554,43,27.41,43,26.117V17c0-0.551-0.448-1-1-1H30z"/><linearGradient id="NEw~dPkct_GEQbQU_Xh4Ub" x1="22.19" x2="30.482" y1="5.502" y2="42.918" gradientUnits="userSpaceOnUse"><stop offset="0" stop-color="#bd4ff4"/><stop offset=".587" stop-color="#a235ec"/><stop offset="1" stop-color="#8c20e5"/></linearGradient><path fill="url(#NEw~dPkct_GEQbQU_Xh4Ub)" d="M32.252,43H15.748c-1.001,0-1.848-0.74-1.982-1.732L9.153,7.134 C9.072,6.534,9.539,6,10.144,6l27.712,0c0.606,0,1.072,0.534,0.991,1.134l-4.613,34.134C34.1,42.26,33.253,43,32.252,43z"/><path fill="#1d1d1b" d="M30,21h-1V6h-4v15h-1c-1.103,0-2,0.897-2,2v6c0,1.103,0.897,2,2,2h6 c1.103,0,2-0.897,2-2v-6C32,21.897,31.103,21,30,21z M30,29h-6v-6h6V29z" opacity=".05"/><rect width="4" height="2" x="25" y="4" fill="none"/><path d="M30,21.5h-1.5V6h-3v15.5H24c-0.827,0-1.5,0.673-1.5,1.5v6c0,0.827,0.673,1.5,1.5,1.5h6 c0.827,0,1.5-0.673,1.5-1.5v-6C31.5,22.173,30.827,21.5,30,21.5z M30.5,29c0,0.276-0.225,0.5-0.5,0.5h-6 c-0.275,0-0.5-0.224-0.5-0.5v-6c0-0.276,0.225-0.5,0.5-0.5h2.5v-16h1v16H30c0.275,0,0.5,0.224,0.5,0.5V29z" opacity=".07"/><linearGradient id="NEw~dPkct_GEQbQU_Xh4Uc" x1="24.936" x2="27.363" y1="6.11" y2="29.504" gradientUnits="userSpaceOnUse"><stop offset="0" stop-color="#ffda1c"/><stop offset="1" stop-color="#feb705"/></linearGradient><path fill="url(#NEw~dPkct_GEQbQU_Xh4Uc)" d="M30,22h-2V6h-2v16h-2c-0.552,0-1,0.448-1,1v6c0,0.552,0.448,1,1,1h6c0.552,0,1-0.448,1-1v-6 C31,22.448,30.552,22,30,22z"/></svg>