<svg xmlns="http://www.w3.org/2000/svg" data-name="Layer 1" viewBox="0 0 48 48"><defs><linearGradient id="Oq2VpgoxWl_5v5tZbOObya" x1="24" x2="24" y1="-3.131" y2="46.575" data-name="Безымянный градиент 96" gradientUnits="userSpaceOnUse"><stop offset="0" stop-color="#21ad64"/><stop offset="1" stop-color="#088242"/></linearGradient><linearGradient id="Oq2VpgoxWl_5v5tZbOObyb" x1="24" x2="24" y1="60.26" y2="29.23" data-name="Безымянный градиент 137" gradientUnits="userSpaceOnUse"><stop offset="0" stop-color="#ffda94"/><stop offset="1" stop-color="#fff0ce"/></linearGradient></defs><path fill="url(#Oq2VpgoxWl_5v5tZbOObya)" d="M35.32155,6.607,39,24.9992H9L12.67845,6.607A2,2,0,0,1,14.63961,4.9992H33.36039A2,2,0,0,1,35.32155,6.607Z"/><path fill="url(#Oq2VpgoxWl_5v5tZbOObyb)" d="M39,25.10446V40.89394a2.05466,2.05466,0,0,1-2,2.10526H11a2.05466,2.05466,0,0,1-2-2.10526V25.10446a2.05466,2.05466,0,0,1,2-2.10526H37A2.05466,2.05466,0,0,1,39,25.10446Z"/><ellipse cx="13" cy="25.999" fill="#ffda94" rx="2" ry="1"/><ellipse cx="18" cy="34.999" fill="#ffda94" rx="2" ry="1"/><ellipse cx="24" cy="30.999" fill="#ffda94" rx="2" ry="1"/><ellipse cx="22.494" cy="26.506" fill="#ffda94" rx="1.876" ry="1" transform="rotate(-45 22.494 26.506)"/><ellipse cx="34.503" cy="31.503" fill="#ffda94" rx="1.876" ry="1" transform="rotate(-45 34.503 31.503)"/><ellipse cx="12.497" cy="32.503" fill="#ffda94" rx="1.876" ry="1" transform="rotate(-45 12.497 32.503)"/><ellipse cx="29.503" cy="39.503" fill="#ffda94" rx="1.876" ry="1" transform="rotate(-45 29.503 39.503)"/><ellipse cx="18.497" cy="39.503" fill="#ffda94" rx="1" ry="1.876" transform="rotate(-45 18.497 39.503)"/><ellipse cx="28.497" cy="34.496" fill="#ffda94" rx="1" ry="1.876" transform="rotate(-45 28.497 34.496)"/><ellipse cx="35" cy="25.999" fill="#ffda94" rx="2" ry="1"/><ellipse cx="35" cy="37.999" fill="#ffda94" rx="1" ry="2"/><ellipse cx="13" cy="37.999" fill="#ffda94" rx="1" ry="2"/><ellipse cx="23" cy="36.999" fill="#ffda94" rx="1" ry="2"/><ellipse cx="18" cy="28.999" fill="#ffda94" rx="1" ry="2"/><ellipse cx="29" cy="27.999" fill="#ffda94" rx="1" ry="2"/></svg>