<svg xmlns="http://www.w3.org/2000/svg" viewBox="0 0 48 48"><linearGradient id="3Z8a29_wvEP_g1SSNYGEla" x1="14.786" x2="33.076" y1="-1135.077" y2="-1153.367" gradientTransform="matrix(1 0 0 -1 0 -1103.89)" gradientUnits="userSpaceOnUse"><stop offset="0" stop-color="#33bef0"/><stop offset="1" stop-color="#0a85d9"/></linearGradient><path fill="url(#3Z8a29_wvEP_g1SSNYGEla)" d="M24,30.571c-8.837,0-16,4.921-16,10.286V42c0,1.105,0.895,2,2,2h28c1.105,0,2-0.895,2-2 v-1.143C40,35.492,32.837,30.571,24,30.571z"/><path fill="#d6a121" d="M29,31c0,1.897-2.83,4-5,4s-5-2.103-5-4c0-2.637,0-7.035,0-7.035h10C29,23.965,29,28.363,29,31z"/><linearGradient id="3Z8a29_wvEP_g1SSNYGElb" x1="32.917" x2="34.251" y1="-1123.89" y2="-1123.89" gradientTransform="matrix(1 0 0 -1 0 -1103.89)" gradientUnits="userSpaceOnUse"><stop offset="0" stop-color="#c48f0c"/><stop offset=".251" stop-color="#d19b16"/><stop offset=".619" stop-color="#dca51f"/><stop offset="1" stop-color="#e0a922"/></linearGradient><path fill="url(#3Z8a29_wvEP_g1SSNYGElb)" d="M32.916,18h-0.527v4h0.703c0.515,0,0.954-0.312,1.041-0.74l0.344-1.703 C34.642,18.743,33.897,18,32.916,18z"/><linearGradient id="3Z8a29_wvEP_g1SSNYGElc" x1="-1229.083" x2="-1227.749" y1="-1123.89" y2="-1123.89" gradientTransform="rotate(180 -607 -551.945)" gradientUnits="userSpaceOnUse"><stop offset="0" stop-color="#c48f0c"/><stop offset=".251" stop-color="#d19b16"/><stop offset=".619" stop-color="#dca51f"/><stop offset="1" stop-color="#e0a922"/></linearGradient><path fill="url(#3Z8a29_wvEP_g1SSNYGElc)" d="M15.084,18h0.527v4h-0.703c-0.515,0-0.954-0.312-1.041-0.74l-0.344-1.703 C13.358,18.743,14.103,18,15.084,18z"/><radialGradient id="3Z8a29_wvEP_g1SSNYGEld" cx="65.232" cy="-1252.27" r="12.224" gradientTransform="matrix(.8816 0 0 -.8816 -33.509 -1085.301)" gradientUnits="userSpaceOnUse"><stop offset="0" stop-color="#ffcf54"/><stop offset=".261" stop-color="#fdcb4d"/><stop offset=".639" stop-color="#f7c13a"/><stop offset="1" stop-color="#f0b421"/></radialGradient><path fill="url(#3Z8a29_wvEP_g1SSNYGEld)" d="M24,6.4c-4.441,0-9,0.675-9,10.275c0,0.768,0,5.877,0,6.698C15,26.8,20.4,31,24,31 s9-4.2,9-7.627c0-0.821,0-5.929,0-6.698C33,7.075,28.441,6.4,24,6.4z"/><radialGradient id="3Z8a29_wvEP_g1SSNYGEle" cx="55.528" cy="-1238.617" r="28.915" gradientTransform="matrix(.8816 0 0 -.8816 -33.509 -1085.301)" gradientUnits="userSpaceOnUse"><stop offset="0" stop-color="#c26715"/><stop offset=".508" stop-color="#b85515"/><stop offset="1" stop-color="#ad3f16"/></radialGradient><path fill="url(#3Z8a29_wvEP_g1SSNYGEle)" d="M24,5.545c-4.354,0-5,1.636-5,1.636c-1.77,0.261-5,2.854-5,5.818c0,1.654,0.265,2.876,1,7 c0.545-6.545,2.249-9,4-9c1.267,0,2.273,1,5,1c2.303,0,2.875-1,5-1c3,0,4,7.968,4,9c0.601-3.01,1-5.555,1-7 C34,9.57,30.209,5.545,24,5.545z"/><radialGradient id="3Z8a29_wvEP_g1SSNYGElf" cx="79.069" cy="-1240.553" r="33.398" gradientTransform="matrix(.8431 0 0 -.8816 -44.098 -1085.301)" gradientUnits="userSpaceOnUse"><stop offset="0" stop-color="#c26715"/><stop offset=".508" stop-color="#b85515"/><stop offset="1" stop-color="#ad3f16"/></radialGradient><path fill="url(#3Z8a29_wvEP_g1SSNYGElf)" d="M24.219,5c-4.164,0-5.216,2.182-5.216,2.182c-0.042,1.159,0.522,2.182,0.522,2.182 S20.285,11,24.625,11C27.245,11,31,9.365,31,5C31,5,30.157,5,24.219,5z"/><radialGradient id="3Z8a29_wvEP_g1SSNYGElg" cx="38.936" cy="38.159" r="12.816" gradientUnits="userSpaceOnUse"><stop offset="0"/><stop offset="1" stop-opacity="0"/></radialGradient><path fill="url(#3Z8a29_wvEP_g1SSNYGElg)" d="M40,42v-1.143c0-4.463-4.963-8.608-11.717-9.879C26.853,32.953,26,35.374,26,38 c0,2.188,0.595,4.234,1.618,6H38C39.105,44,40,43.105,40,42z"/><linearGradient id="3Z8a29_wvEP_g1SSNYGElh" x1="31.719" x2="44.578" y1="-1064.407" y2="-1079.726" gradientTransform="matrix(1 0 0 -1 0 -1033.89)" gradientUnits="userSpaceOnUse"><stop offset="0" stop-color="#f44f5a"/><stop offset=".443" stop-color="#ee3d4a"/><stop offset="1" stop-color="#e52030"/></linearGradient><circle cx="38" cy="38" r="10" fill="url(#3Z8a29_wvEP_g1SSNYGElh)"/><path fill="#fff" d="M41.536,33.757l0.707,0.707c0.195,0.195,0.195,0.512,0,0.707l-7.071,7.071 c-0.195,0.195-0.512,0.195-0.707,0l-0.707-0.707c-0.195-0.195-0.195-0.512,0-0.707l7.071-7.071 C41.024,33.562,41.34,33.562,41.536,33.757z"/><path fill="#fff" d="M42.243,41.536l-0.707,0.707c-0.195,0.195-0.512,0.195-0.707,0l-7.071-7.071 c-0.195-0.195-0.195-0.512,0-0.707l0.707-0.707c0.195-0.195,0.512-0.195,0.707,0l7.071,7.071 C42.438,41.024,42.438,41.34,42.243,41.536z"/></svg>