<svg xmlns="http://www.w3.org/2000/svg" viewBox="0 0 48 48"><path fill="#35c1f1" d="M25.527,41.753l6.438-6.438C30.458,32.454,27.459,29.5,24,29.5s-6.458,2.954-7.964,5.815l6.438,6.438	C23.316,42.596,24.684,42.596,25.527,41.753z"/><path fill="#199be2" d="M24,21.5c-5.66,0-10.659,3.777-13.749,8.03l5.785,5.785C17.542,32.454,20.541,30.5,24,30.5	s6.458,1.954,7.964,4.815l5.785-5.785C34.659,25.277,29.66,21.5,24,21.5z"/><path fill="#0078d4" d="M24,22.5c5.66,0,10.659,2.777,13.749,7.03l5.714-5.714C38.88,18.136,31.866,13.5,24,13.5	S9.12,18.136,4.537,23.816l5.714,5.714C13.341,25.277,18.34,22.5,24,22.5z"/><path fill="#0d62ab" d="M24,14.5c7.866,0,14.88,3.636,19.463,9.316l3.903-3.903c0.839-0.839,0.846-2.2,0.016-3.049	C41.443,10.785,33.169,7,24,7S6.557,10.785,0.617,16.864c-0.829,0.849-0.823,2.21,0.016,3.049l3.903,3.903	C9.12,18.136,16.134,14.5,24,14.5z"/><path d="M40.08,27.2l-0.43,0.43l-1.9,1.9l-5.79,5.78c0,0,0,0,0.01,0.01l-4.34,4.33	l-0.43,0.44C27.07,39.41,27,38.71,27,38c0-6.07,4.93-11,11-11C38.71,27,39.41,27.07,40.08,27.2z" opacity=".05"/><path d="M37.75,29.53l-5.79,5.78c0,0,0,0,0.01,0.01l-4.34,4.33	c-0.09-0.54-0.13-1.09-0.13-1.65c0-5.79,4.71-10.5,10.5-10.5c0.56,0,1.11,0.04,1.65,0.13L37.75,29.53z" opacity=".07"/><linearGradient id="9dtwgYNrcw2GU0JL5MxUPa" x1="28" x2="48" y1="1283.89" y2="1283.89" gradientTransform="translate(0 -1245.89)" gradientUnits="userSpaceOnUse"><stop offset="0" stop-color="#f44f5a"/><stop offset=".443" stop-color="#ee3d4a"/><stop offset="1" stop-color="#e52030"/></linearGradient><circle cx="38" cy="38" r="10" fill="url(#9dtwgYNrcw2GU0JL5MxUPa)"/><path fill="#fff" d="M41.536,33.757l0.707,0.707c0.195,0.195,0.195,0.512,0,0.707l-7.071,7.071	c-0.195,0.195-0.512,0.195-0.707,0l-0.707-0.707c-0.195-0.195-0.195-0.512,0-0.707l7.071-7.071	C41.024,33.562,41.34,33.562,41.536,33.757z"/><path fill="#fff" d="M42.243,41.536l-0.707,0.707c-0.195,0.195-0.512,0.195-0.707,0l-7.071-7.071	c-0.195-0.195-0.195-0.512,0-0.707l0.707-0.707c0.195-0.195,0.512-0.195,0.707,0l7.071,7.071	C42.438,41.024,42.438,41.34,42.243,41.536z"/></svg>