<svg xmlns="http://www.w3.org/2000/svg" viewBox="0 0 48 48"><path fill="#889097" d="M45,40L14.441,9.441c-1.915-1.915-5.008-1.957-6.974-0.094l-4.843,4.588	C2.226,14.312,2,14.837,2,15.387V38c0,1.105,0.895,2,2,2H45z"/><path fill="#76818a" d="M45,40L20.999,15.999l9.488,22.77C30.798,39.515,31.526,40,32.333,40H45z"/><path fill="#35c1f1" d="M45,40l2-4c-6,0-17.501-11.501-26.001-20.001l11.866,21.906C33.564,39.196,34.914,40,36.382,40H45z"/><path fill="#50e6ff" d="M12.013,15.013l0.974,0.974c0.56,0.56,1.467,0.56,2.026,0L18,13l-5.229-5.229	c-0.986-0.986-2.578-1.007-3.59-0.049l-5.371,5.088l3.176,3.176c0.56,0.56,1.467,0.56,2.026,0l0.974-0.974	C10.546,14.454,11.454,14.454,12.013,15.013z"/><circle cx="45" cy="37" r="3" fill="#35c1f1"/><circle cx="42" cy="34" r="3" fill="#35c1f1"/><circle cx="39" cy="32" r="2" fill="#35c1f1"/><circle cx="36" cy="31" r="2" fill="#35c1f1"/><circle cx="33" cy="24" r="1" fill="#50e6ff"/><circle cx="37" cy="26" r="1" fill="#50e6ff"/><circle cx="34.5" cy="29.5" r="1.5" fill="#50e6ff"/><circle cx="38" cy="34" r="2" fill="#50e6ff"/></svg>