<svg xmlns="http://www.w3.org/2000/svg" viewBox="0 0 48 48"><linearGradient id="r6qA2jVgkT4FlZKJXrw9pa" x1="9.42" x2="9.42" y1="5.455" y2="21.563" gradientUnits="userSpaceOnUse"><stop offset="0" stop-color="#ffcf7b"/><stop offset=".196" stop-color="#fecd76"/><stop offset=".439" stop-color="#fac666"/><stop offset=".709" stop-color="#f3bc4d"/><stop offset=".995" stop-color="#eaad2a"/><stop offset="1" stop-color="#eaad29"/></linearGradient><path fill="url(#r6qA2jVgkT4FlZKJXrw9pa)" d="M13.867,22.843c-1.48-0.041-3.094-0.386-4.536-1.226c-1.455-0.806-2.802-2.012-3.769-3.543	c-0.994-1.516-1.655-3.348-1.847-5.308c-0.179-1.948,0.16-4.02,1.078-5.857l0.003-0.006c0.226-0.451,0.081-1.008-0.352-1.288	C3.98,5.315,3.36,5.448,3.06,5.912c-1.271,1.965-2.257,4.19-2.734,6.621c-0.218,1.213-0.342,2.462-0.323,3.738	c0.049,1.268,0.185,2.571,0.537,3.836c0.323,1.274,0.809,2.524,1.432,3.723c0.606,1.212,1.383,2.353,2.283,3.415	c1.801,2.123,4.131,3.924,6.851,5.143l0.552,0.249c0.591,0.261,1.241,0.414,1.926,0.434c2.824,0.079,5.177-2.147,5.256-4.971	C18.917,25.275,16.691,22.922,13.867,22.843z"/><linearGradient id="r6qA2jVgkT4FlZKJXrw9pb" x1="38.58" x2="38.58" y1="5.455" y2="22.792" gradientUnits="userSpaceOnUse"><stop offset="0" stop-color="#ffcf7b"/><stop offset=".196" stop-color="#fecd76"/><stop offset=".439" stop-color="#fac666"/><stop offset=".709" stop-color="#f3bc4d"/><stop offset=".995" stop-color="#eaad2a"/><stop offset="1" stop-color="#eaad29"/></linearGradient><path fill="url(#r6qA2jVgkT4FlZKJXrw9pb)" d="M34.133,22.843c1.48-0.041,3.094-0.386,4.536-1.226c1.455-0.806,2.802-2.012,3.769-3.543	c0.994-1.516,1.655-3.348,1.847-5.308c0.179-1.948-0.16-4.02-1.078-5.857l-0.003-0.006c-0.226-0.451-0.081-1.008,0.352-1.288	c0.464-0.3,1.084-0.168,1.385,0.297c1.271,1.965,2.257,4.19,2.734,6.621c0.218,1.213,0.342,2.462,0.323,3.738	c-0.049,1.268-0.185,2.571-0.537,3.836c-0.323,1.274-0.809,2.524-1.432,3.723c-0.606,1.212-1.383,2.353-2.283,3.415	c-1.801,2.123-4.131,3.924-6.851,5.143l-0.552,0.249c-0.591,0.261-1.241,0.414-1.926,0.434c-2.824,0.079-5.177-2.147-5.256-4.971	C29.083,25.275,31.309,22.922,34.133,22.843z"/><linearGradient id="r6qA2jVgkT4FlZKJXrw9pc" x1="24" x2="24" y1="9" y2="33.849" gradientUnits="userSpaceOnUse"><stop offset="0" stop-color="#a34f27"/><stop offset=".587" stop-color="#8b3817"/><stop offset="1" stop-color="#802d10"/></linearGradient><path fill="url(#r6qA2jVgkT4FlZKJXrw9pc)" d="M43,28c0-10.494-8.506-19-19-19S5,17.506,5,28v5.849h38V28z"/><linearGradient id="r6qA2jVgkT4FlZKJXrw9pd" x1="24" x2="24" y1="28.854" y2="40.085" gradientUnits="userSpaceOnUse"><stop offset="0" stop-color="#dfe9f2"/><stop offset=".391" stop-color="#d6e0e9"/><stop offset="1" stop-color="#bfc8d1"/></linearGradient><path fill="url(#r6qA2jVgkT4FlZKJXrw9pd)" d="M5,34h38c0.552,0,1,0.448,1,1v4c0,0.552-0.448,1-1,1H5c-0.552,0-1-0.448-1-1v-4	C4,34.448,4.448,34,5,34z"/><linearGradient id="r6qA2jVgkT4FlZKJXrw9pe" x1="24" x2="24" y1="8" y2="45" gradientUnits="userSpaceOnUse"><stop offset="0" stop-color="#dfe9f2"/><stop offset=".391" stop-color="#d6e0e9"/><stop offset="1" stop-color="#bfc8d1"/></linearGradient><path fill="url(#r6qA2jVgkT4FlZKJXrw9pe)" d="M26.707,42.707l-2,2c-0.391,0.391-1.024,0.391-1.414,0l-2-2C21.105,42.52,21,42.265,21,42V9	c0-0.552,0.448-1,1-1h4c0.552,0,1,0.448,1,1v33C27,42.265,26.895,42.52,26.707,42.707z"/><linearGradient id="r6qA2jVgkT4FlZKJXrw9pf" x1="24.002" x2="24.002" y1="35" y2="39" gradientUnits="userSpaceOnUse"><stop offset="0" stop-color="#eba84b"/><stop offset="1" stop-color="#d97218"/></linearGradient><path fill="url(#r6qA2jVgkT4FlZKJXrw9pf)" d="M24.002,35c-1.105-0.001-2.001,0.893-2.002,1.998c-0.001,1.105,0.893,2.001,1.998,2.002	c0.001,0,0.003,0,0.004,0c1.105,0.001,2.001-0.893,2.002-1.998c0.001-1.105-0.893-2.001-1.998-2.002C24.005,35,24.003,35,24.002,35z"/><linearGradient id="r6qA2jVgkT4FlZKJXrw9pg" x1="30" x2="30" y1="36" y2="38" gradientUnits="userSpaceOnUse"><stop offset="0" stop-color="#eba84b"/><stop offset="1" stop-color="#d97218"/></linearGradient><circle cx="30" cy="37" r="1" fill="url(#r6qA2jVgkT4FlZKJXrw9pg)"/><linearGradient id="r6qA2jVgkT4FlZKJXrw9ph" x1="24" x2="24" y1="21.5" y2="23.5" gradientUnits="userSpaceOnUse"><stop offset="0" stop-color="#eba84b"/><stop offset="1" stop-color="#d97218"/></linearGradient><circle cx="24" cy="22.5" r="1" fill="url(#r6qA2jVgkT4FlZKJXrw9ph)"/><linearGradient id="r6qA2jVgkT4FlZKJXrw9pi" x1="24" x2="24" y1="26.5" y2="28.5" gradientUnits="userSpaceOnUse"><stop offset="0" stop-color="#eba84b"/><stop offset="1" stop-color="#d97218"/></linearGradient><circle cx="24" cy="27.5" r="1" fill="url(#r6qA2jVgkT4FlZKJXrw9pi)"/><linearGradient id="r6qA2jVgkT4FlZKJXrw9pj" x1="18" x2="18" y1="36" y2="38" gradientUnits="userSpaceOnUse"><stop offset="0" stop-color="#eba84b"/><stop offset="1" stop-color="#d97218"/></linearGradient><circle cx="18" cy="37" r="1" fill="url(#r6qA2jVgkT4FlZKJXrw9pj)"/><linearGradient id="r6qA2jVgkT4FlZKJXrw9pk" x1="13" x2="13" y1="36" y2="38" gradientUnits="userSpaceOnUse"><stop offset="0" stop-color="#eba84b"/><stop offset="1" stop-color="#d97218"/></linearGradient><circle cx="13" cy="37" r="1" fill="url(#r6qA2jVgkT4FlZKJXrw9pk)"/><linearGradient id="r6qA2jVgkT4FlZKJXrw9pl" x1="35" x2="35" y1="36" y2="38" gradientUnits="userSpaceOnUse"><stop offset="0" stop-color="#eba84b"/><stop offset="1" stop-color="#d97218"/></linearGradient><circle cx="35" cy="37" r="1" fill="url(#r6qA2jVgkT4FlZKJXrw9pl)"/><rect width="6" height="1" x="17.5" y="36.5" fill="#231f20" opacity=".05" transform="rotate(-90 20.5 37)"/><rect width="6" height=".5" x="17.75" y="36.75" fill="#231f20" opacity=".07" transform="rotate(-90 20.75 37)"/><rect width="6" height="1" x="24.5" y="36.5" fill="#231f20" opacity=".05" transform="rotate(90 27.5 37)"/><rect width="6" height=".5" x="24.25" y="36.75" fill="#231f20" opacity=".07" transform="rotate(90 27.25 37)"/></svg>