<svg xmlns="http://www.w3.org/2000/svg" viewBox="0 0 48 48"><path fill="#0078d4" d="M44.707,3.293c-0.391-0.391-1.023-0.391-1.414,0l-32,32c-0.391,0.391-0.391,1.023,0,1.414	c1.452,1.452,1.452,3.815,0,5.268c-1.406,1.408-3.861,1.408-5.268,0c-0.704-0.703-1.091-1.639-1.091-2.634s0.387-1.931,1.091-2.634	c0.391-0.391,0.391-1.023,0-1.414s-1.023-0.391-1.414,0c-1.082,1.081-1.677,2.519-1.677,4.048s0.595,2.967,1.677,4.048	c1.081,1.082,2.519,1.678,4.048,1.678s2.967-0.596,4.048-1.678c1.99-1.99,2.194-5.086,0.636-7.317L44.707,4.707	C45.098,4.316,45.098,3.684,44.707,3.293z"/><linearGradient id="luzTHTIEAcGQQkboBS_Lga" x1="12.849" x2="35.381" y1="13.798" y2="36.331" gradientUnits="userSpaceOnUse"><stop offset="0" stop-color="#a34f27"/><stop offset=".587" stop-color="#8b3817"/><stop offset="1" stop-color="#802d10"/></linearGradient><path fill="url(#luzTHTIEAcGQQkboBS_Lga)" d="M28.598,27.427l-2.121,2.121c-0.781,0.781-2.047,0.781-2.828,0l-5.197-5.197	c-0.781-0.781-0.781-2.047,0-2.828l2.121-2.121c0.781-0.781,2.047-0.781,2.828,0l5.197,5.197	C29.379,25.379,29.379,26.646,28.598,27.427z"/><linearGradient id="luzTHTIEAcGQQkboBS_Lgb" x1="18.336" x2="40.869" y1="8.311" y2="30.844" gradientUnits="userSpaceOnUse"><stop offset="0" stop-color="#f44f5a"/><stop offset=".443" stop-color="#ee3d4a"/><stop offset="1" stop-color="#e52030"/></linearGradient><path fill="url(#luzTHTIEAcGQQkboBS_Lgb)" d="M33.318,22.707l-0.586,0.586c-0.391,0.391-1.024,0.391-1.414,0l-6.611-6.611	c-0.391-0.391-0.391-1.024,0-1.414l0.586-0.586c0.391-0.391,1.024-0.391,1.414,0l6.611,6.611	C33.709,21.683,33.709,22.317,33.318,22.707z"/><linearGradient id="luzTHTIEAcGQQkboBS_Lgc" x1="29.323" x2="51.856" y1="-2.676" y2="19.856" gradientUnits="userSpaceOnUse"><stop offset="0" stop-color="#21ad64"/><stop offset="1" stop-color="#088242"/></linearGradient><path fill="url(#luzTHTIEAcGQQkboBS_Lgc)" d="M43.293,10.707l-0.586,0.586c-0.391,0.391-1.024,0.391-1.414,0l-4.586-4.586	c-0.391-0.391-0.391-1.024,0-1.414l0.586-0.586c0.391-0.391,1.024-0.391,1.414,0l4.586,4.586	C43.683,9.683,43.683,10.317,43.293,10.707z"/><linearGradient id="luzTHTIEAcGQQkboBS_Lgd" x1="7.474" x2="30.006" y1="19.173" y2="41.706" gradientUnits="userSpaceOnUse"><stop offset="0" stop-color="#fed100"/><stop offset=".477" stop-color="#f2ad00"/><stop offset="1" stop-color="#e38101"/></linearGradient><path fill="url(#luzTHTIEAcGQQkboBS_Lgd)" d="M21.555,31.445l-1.811,1.811c-0.391,0.391-1.024,0.391-1.414,0l-3.586-3.586	c-0.391-0.391-0.391-1.024,0-1.414l1.811-1.811c0.391-0.391,1.024-0.391,1.414,0l3.586,3.586	C21.946,30.421,21.946,31.054,21.555,31.445z"/><linearGradient id="luzTHTIEAcGQQkboBS_Lge" x1="23.836" x2="46.369" y1="2.811" y2="25.344" gradientUnits="userSpaceOnUse"><stop offset="0" stop-color="#a34f27"/><stop offset=".587" stop-color="#8b3817"/><stop offset="1" stop-color="#802d10"/></linearGradient><path fill="url(#luzTHTIEAcGQQkboBS_Lge)" d="M39.598,16.452l-2.121,2.121c-0.781,0.781-2.047,0.781-2.828,0l-5.197-5.197	c-0.781-0.781-0.781-2.047,0-2.828l2.121-2.121c0.781-0.781,2.047-0.781,2.828,0l5.197,5.197	C40.379,14.405,40.379,15.671,39.598,16.452z"/></svg>