<svg xmlns="http://www.w3.org/2000/svg" viewBox="0 0 48 48"><radialGradient id="jBC_WA698QddFS7CUNJnDa" cx="9.489" cy="16.527" r="3.818" gradientUnits="userSpaceOnUse"><stop offset="0" stop-color="#c26715"/><stop offset=".346" stop-color="#be6015"/><stop offset=".686" stop-color="#b54e16"/><stop offset=".979" stop-color="#ad3f16"/></radialGradient><circle cx="11" cy="18" r="2" fill="url(#jBC_WA698QddFS7CUNJnDa)"/><radialGradient id="jBC_WA698QddFS7CUNJnDb" cx="9.111" cy="20.659" r="4.772" gradientUnits="userSpaceOnUse"><stop offset="0" stop-color="#ffd869"/><stop offset="1" stop-color="#fec52b"/></radialGradient><circle cx="11" cy="22.5" r="2.5" fill="url(#jBC_WA698QddFS7CUNJnDb)"/><radialGradient id="jBC_WA698QddFS7CUNJnDc" cx="9.867" cy="25.395" r="2.864" gradientUnits="userSpaceOnUse"><stop offset="0" stop-color="#ffd869"/><stop offset="1" stop-color="#fec52b"/></radialGradient><circle cx="11" cy="26.5" r="1.5" fill="url(#jBC_WA698QddFS7CUNJnDc)"/><radialGradient id="jBC_WA698QddFS7CUNJnDd" cx="9.832" cy="7.772" r="5.044" gradientUnits="userSpaceOnUse"><stop offset="0" stop-color="#c26715"/><stop offset=".346" stop-color="#be6015"/><stop offset=".686" stop-color="#b54e16"/><stop offset=".979" stop-color="#ad3f16"/></radialGradient><path fill="url(#jBC_WA698QddFS7CUNJnDd)" d="M11.979,7.979c-1.105-0.001-2,0.894-2.001,1.999c-0.001,1.105,0.894,2,1.999,2.001	c0.001,0,0.001,0,0.002,0c1.105,0.001,2-0.894,2.001-1.999c0.001-1.105-0.894-2-1.999-2.001C11.981,7.979,11.98,7.979,11.979,7.979z"/><radialGradient id="jBC_WA698QddFS7CUNJnDe" cx="16.924" cy="4.739" r="5.332" gradientUnits="userSpaceOnUse"><stop offset="0" stop-color="#c26715"/><stop offset=".346" stop-color="#be6015"/><stop offset=".686" stop-color="#b54e16"/><stop offset=".979" stop-color="#ad3f16"/></radialGradient><circle cx="19" cy="6.75" r="2" fill="url(#jBC_WA698QddFS7CUNJnDe)"/><radialGradient id="jBC_WA698QddFS7CUNJnDf" cx="20.201" cy="6.5" r="5.332" gradientUnits="userSpaceOnUse"><stop offset="0" stop-color="#c26715"/><stop offset=".346" stop-color="#be6015"/><stop offset=".686" stop-color="#b54e16"/><stop offset=".979" stop-color="#ad3f16"/></radialGradient><path fill="url(#jBC_WA698QddFS7CUNJnDf)" d="M22.5,6.75c-1.105,0-2,0.895-2,2s0.895,2,2,2s2-0.895,2-2S23.605,6.75,22.5,6.75z"/><radialGradient id="jBC_WA698QddFS7CUNJnDg" cx="22.5" cy="9.924" r="5.189" gradientUnits="userSpaceOnUse"><stop offset="0" stop-color="#c26715"/><stop offset=".346" stop-color="#be6015"/><stop offset=".686" stop-color="#b54e16"/><stop offset=".979" stop-color="#ad3f16"/></radialGradient><circle cx="24.811" cy="12.028" r="2" fill="url(#jBC_WA698QddFS7CUNJnDg)"/><radialGradient id="jBC_WA698QddFS7CUNJnDh" cx="22.696" cy="25.723" r="6.449" gradientUnits="userSpaceOnUse"><stop offset="0" stop-color="#c26715"/><stop offset=".346" stop-color="#be6015"/><stop offset=".686" stop-color="#b54e16"/><stop offset=".979" stop-color="#ad3f16"/></radialGradient><circle cx="25" cy="28.028" r="2" fill="url(#jBC_WA698QddFS7CUNJnDh)"/><radialGradient id="jBC_WA698QddFS7CUNJnDi" cx="22.647" cy="18.044" r="5.987" gradientUnits="userSpaceOnUse"><stop offset="0" stop-color="#c26715"/><stop offset=".346" stop-color="#be6015"/><stop offset=".686" stop-color="#b54e16"/><stop offset=".979" stop-color="#ad3f16"/></radialGradient><circle cx="25" cy="20.028" r="2" fill="url(#jBC_WA698QddFS7CUNJnDi)"/><radialGradient id="jBC_WA698QddFS7CUNJnDj" cx="22.94" cy="30.027" r="6.316" gradientUnits="userSpaceOnUse"><stop offset="0" stop-color="#c26715"/><stop offset=".346" stop-color="#be6015"/><stop offset=".686" stop-color="#b54e16"/><stop offset=".979" stop-color="#ad3f16"/></radialGradient><path fill="url(#jBC_WA698QddFS7CUNJnDj)" d="M25,30.028c-1.105-0.001-2.001,0.893-2.002,1.998c-0.001,1.105,0.893,2.001,1.998,2.002	c0.001,0,0.003,0,0.004,0c1.105,0.001,2.001-0.893,2.002-1.998c0.001-1.105-0.893-2.001-1.998-2.002	C25.003,30.028,25.001,30.028,25,30.028z"/><radialGradient id="jBC_WA698QddFS7CUNJnDk" cx="23.429" cy="33.842" r="6.16" gradientUnits="userSpaceOnUse"><stop offset="0" stop-color="#c26715"/><stop offset=".346" stop-color="#be6015"/><stop offset=".686" stop-color="#b54e16"/><stop offset=".979" stop-color="#ad3f16"/></radialGradient><circle cx="25.816" cy="35.956" r="2" fill="url(#jBC_WA698QddFS7CUNJnDk)"/><radialGradient id="jBC_WA698QddFS7CUNJnDl" cx="34.141" cy="35.995" r="6.326" gradientUnits="userSpaceOnUse"><stop offset="0" stop-color="#c26715"/><stop offset=".346" stop-color="#be6015"/><stop offset=".686" stop-color="#b54e16"/><stop offset=".979" stop-color="#ad3f16"/></radialGradient><circle cx="36.27" cy="38.219" r="2" fill="url(#jBC_WA698QddFS7CUNJnDl)"/><radialGradient id="jBC_WA698QddFS7CUNJnDm" cx="36.734" cy="29.049" r="6.449" gradientUnits="userSpaceOnUse"><stop offset="0" stop-color="#c26715"/><stop offset=".346" stop-color="#be6015"/><stop offset=".686" stop-color="#b54e16"/><stop offset=".979" stop-color="#ad3f16"/></radialGradient><circle cx="39" cy="30.994" r="2" fill="url(#jBC_WA698QddFS7CUNJnDm)"/><radialGradient id="jBC_WA698QddFS7CUNJnDn" cx="36.734" cy="24.94" r="6.705" gradientUnits="userSpaceOnUse"><stop offset="0" stop-color="#c26715"/><stop offset=".346" stop-color="#be6015"/><stop offset=".686" stop-color="#b54e16"/><stop offset=".979" stop-color="#ad3f16"/></radialGradient><circle cx="39" cy="26.994" r="2" fill="url(#jBC_WA698QddFS7CUNJnDn)"/><radialGradient id="jBC_WA698QddFS7CUNJnDo" cx="36.783" cy="21.027" r="6.42" gradientUnits="userSpaceOnUse"><stop offset="0" stop-color="#c26715"/><stop offset=".346" stop-color="#be6015"/><stop offset=".686" stop-color="#b54e16"/><stop offset=".979" stop-color="#ad3f16"/></radialGradient><circle cx="39" cy="22.994" r="2" fill="url(#jBC_WA698QddFS7CUNJnDo)"/><radialGradient id="jBC_WA698QddFS7CUNJnDp" cx="36.929" cy="17.065" r="6.068" gradientUnits="userSpaceOnUse"><stop offset="0" stop-color="#c26715"/><stop offset=".346" stop-color="#be6015"/><stop offset=".686" stop-color="#b54e16"/><stop offset=".979" stop-color="#ad3f16"/></radialGradient><circle cx="39" cy="18.994" r="2" fill="url(#jBC_WA698QddFS7CUNJnDp)"/><radialGradient id="jBC_WA698QddFS7CUNJnDq" cx="36.587" cy="12.908" r="6.613" gradientUnits="userSpaceOnUse"><stop offset="0" stop-color="#c26715"/><stop offset=".346" stop-color="#be6015"/><stop offset=".686" stop-color="#b54e16"/><stop offset=".979" stop-color="#ad3f16"/></radialGradient><circle cx="39" cy="14.994" r="2" fill="url(#jBC_WA698QddFS7CUNJnDq)"/><radialGradient id="jBC_WA698QddFS7CUNJnDr" cx="36.831" cy="8.946" r="6.862" gradientUnits="userSpaceOnUse"><stop offset="0" stop-color="#c26715"/><stop offset=".346" stop-color="#be6015"/><stop offset=".686" stop-color="#b54e16"/><stop offset=".979" stop-color="#ad3f16"/></radialGradient><circle cx="39" cy="10.994" r="2" fill="url(#jBC_WA698QddFS7CUNJnDr)"/><radialGradient id="jBC_WA698QddFS7CUNJnDs" cx="30.326" cy="37.364" r="5.947" gradientUnits="userSpaceOnUse"><stop offset="0" stop-color="#c26715"/><stop offset=".346" stop-color="#be6015"/><stop offset=".686" stop-color="#b54e16"/><stop offset=".979" stop-color="#ad3f16"/></radialGradient><path fill="url(#jBC_WA698QddFS7CUNJnDs)" d="M32.545,37.643c-1.105,0-2,0.895-2,2s0.895,2,2,2s2-0.895,2-2S33.65,37.643,32.545,37.643z"/><radialGradient id="jBC_WA698QddFS7CUNJnDt" cx="8.902" cy="12.027" r="4.451" gradientUnits="userSpaceOnUse"><stop offset="0" stop-color="#c26715"/><stop offset=".346" stop-color="#be6015"/><stop offset=".686" stop-color="#b54e16"/><stop offset=".979" stop-color="#ad3f16"/></radialGradient><circle cx="11" cy="14" r="2" fill="url(#jBC_WA698QddFS7CUNJnDt)"/><radialGradient id="jBC_WA698QddFS7CUNJnDu" cx="12.962" cy="5.13" r="5.403" gradientUnits="userSpaceOnUse"><stop offset="0" stop-color="#c26715"/><stop offset=".346" stop-color="#be6015"/><stop offset=".686" stop-color="#b54e16"/><stop offset=".979" stop-color="#ad3f16"/></radialGradient><circle cx="15" cy="7.223" r="2" fill="url(#jBC_WA698QddFS7CUNJnDu)"/><radialGradient id="jBC_WA698QddFS7CUNJnDv" cx="22.647" cy="14.179" r="5.35" gradientUnits="userSpaceOnUse"><stop offset="0" stop-color="#c26715"/><stop offset=".346" stop-color="#be6015"/><stop offset=".686" stop-color="#b54e16"/><stop offset=".979" stop-color="#ad3f16"/></radialGradient><circle cx="25" cy="16.028" r="2" fill="url(#jBC_WA698QddFS7CUNJnDv)"/><radialGradient id="jBC_WA698QddFS7CUNJnDw" cx="36.44" cy="33.06" r="6.173" gradientUnits="userSpaceOnUse"><stop offset="0" stop-color="#c26715"/><stop offset=".346" stop-color="#be6015"/><stop offset=".686" stop-color="#b54e16"/><stop offset=".979" stop-color="#ad3f16"/></radialGradient><circle cx="38.62" cy="34.994" r="2" fill="url(#jBC_WA698QddFS7CUNJnDw)"/><radialGradient id="jBC_WA698QddFS7CUNJnDx" cx="26.413" cy="36.484" r="6.032" gradientUnits="userSpaceOnUse"><stop offset="0" stop-color="#c26715"/><stop offset=".346" stop-color="#be6015"/><stop offset=".686" stop-color="#b54e16"/><stop offset=".979" stop-color="#ad3f16"/></radialGradient><circle cx="28.632" cy="38.789" r="2" fill="url(#jBC_WA698QddFS7CUNJnDx)"/><radialGradient id="jBC_WA698QddFS7CUNJnDy" cx="22.794" cy="22.201" r="5.58" gradientUnits="userSpaceOnUse"><stop offset="0" stop-color="#c26715"/><stop offset=".346" stop-color="#be6015"/><stop offset=".686" stop-color="#b54e16"/><stop offset=".979" stop-color="#ad3f16"/></radialGradient><circle cx="25" cy="24.028" r="2" fill="url(#jBC_WA698QddFS7CUNJnDy)"/><linearGradient id="jBC_WA698QddFS7CUNJnDz" x1="5.873" x2="13.372" y1="23.779" y2="44.383" gradientUnits="userSpaceOnUse"><stop offset="0" stop-color="#f44f5a"/><stop offset=".443" stop-color="#ee3d4a"/><stop offset="1" stop-color="#e52030"/></linearGradient><path fill="url(#jBC_WA698QddFS7CUNJnDz)" d="M11,28L11,28c-1.148,0-2.121,0.844-2.283,1.98L7.01,40.859C6.924,41.461,7.391,42,8,42h6	c0.609,0,1.076-0.539,0.99-1.141L13.283,29.98C13.121,28.844,12.148,28,11,28z"/></svg>