<svg xmlns="http://www.w3.org/2000/svg" viewBox="0 0 48 48"><linearGradient id="0hwvxVCjGS6bhrP6RSDxfa" x1="18.148" x2="29.006" y1="5.282" y2="40.011" gradientUnits="userSpaceOnUse"><stop offset="0" stop-color="#f44f5a"/><stop offset=".443" stop-color="#ee3d4a"/><stop offset="1" stop-color="#e52030"/></linearGradient><path fill="url(#0hwvxVCjGS6bhrP6RSDxfa)" d="M24,42c-9.925,0-18-8.075-18-18S14.075,6,24,6s18,8.075,18,18S33.925,42,24,42z M24,8	C15.178,8,8,15.178,8,24s7.178,16,16,16s16-7.178,16-16S32.822,8,24,8z"/><linearGradient id="0hwvxVCjGS6bhrP6RSDxfb" x1="21.791" x2="32.65" y1="4.143" y2="38.871" gradientUnits="userSpaceOnUse"><stop offset="0" stop-color="#f44f5a"/><stop offset=".443" stop-color="#ee3d4a"/><stop offset="1" stop-color="#e52030"/></linearGradient><path fill="url(#0hwvxVCjGS6bhrP6RSDxfb)" d="M28,39c-7.72,0-14-6.729-14-15S20.28,9,28,9s14,6.729,14,15S35.72,39,28,39z M28,11	c-6.617,0-12,5.832-12,13s5.383,13,12,13s12-5.832,12-13S34.617,11,28,11z"/><linearGradient id="0hwvxVCjGS6bhrP6RSDxfc" x1="23.758" x2="34.617" y1="3.528" y2="38.256" gradientUnits="userSpaceOnUse"><stop offset="0" stop-color="#f44f5a"/><stop offset=".443" stop-color="#ee3d4a"/><stop offset="1" stop-color="#e52030"/></linearGradient><path fill="url(#0hwvxVCjGS6bhrP6RSDxfc)" d="M28.996,35c2.122-3.455,2.997-7.209,3.004-11c-0.012-3.791-0.886-7.542-3.004-11	c1.683,1.171,2.948,2.94,3.767,4.86C33.588,19.789,34.001,21.898,34,24c-0.003,2.101-0.413,4.211-1.24,6.139	C31.941,32.059,30.677,33.827,28.996,35z"/></svg>