<svg xmlns="http://www.w3.org/2000/svg" viewBox="0 0 48 48"><path fill="#1a9ba1" d="M7.498,25.432c0-9.123,4.306-14.632,11.454-14.632c3.971,0,6.842,1.947,8.2,5.586h0.486v-4.15	c0-0.552,0.448-1,1-1h7.046c0.552,0,1,0.448,1,1v17.989c0,2.357,0.6,3.101,2.304,3.101c0.102,0,0.234-0.011,0.377-0.029	c0.602-0.075,1.137,0.383,1.137,0.99v4.432c0,0.481-0.337,0.895-0.81,0.984c-0.98,0.183-2.417,0.311-3.624,0.311	c-4.152,0-6.611-1.333-7.637-4.306l-0.333-0.821h-0.486c-1.077,3.203-4.408,5.304-8.379,5.304	C11.802,40.192,7.498,34.76,7.498,25.432z M27.459,25.509c0-4.587-2.101-7.586-5.33-7.586c-3.28,0-5.355,2.922-5.355,7.56	c0,4.664,2.024,7.586,5.253,7.586C25.358,33.069,27.459,30.147,27.459,25.509z"/></svg>