<svg xmlns="http://www.w3.org/2000/svg" viewBox="0 0 48 48"><linearGradient id="HfU4xu3I~QxOk9jxo_Hpaa" x1="6.588" x2="41.413" y1="6.588" y2="41.413" gradientUnits="userSpaceOnUse"><stop offset="0" stop-color="#a84fcf"/><stop offset="1" stop-color="#7615b5"/></linearGradient><path fill="url(#HfU4xu3I~QxOk9jxo_Hpaa)" d="M40,6H8C6.9,6,6,6.9,6,8v16v16c0,1.1,0.9,2,2,2h32c1.1,0,2-0.9,2-2V24V8C42,6.9,41.1,6,40,6z"/><path d="M24.657,35.874l-8-10c-0.876-1.096-0.876-2.652,0-3.748l8-10 c1.035-1.293,2.922-1.504,4.217-0.469c1.294,1.035,1.504,2.923,0.469,4.217L22.842,24l6.501,8.126 c1.034,1.294,0.825,3.182-0.469,4.217C28.321,36.785,27.659,37,27.002,37C26.122,37,25.25,36.615,24.657,35.874z" opacity=".05"/><path d="M25.048,35.562l-8-10c-0.73-0.914-0.73-2.211,0-3.124l8-10 c0.863-1.077,2.435-1.253,3.514-0.39c1.078,0.863,1.253,2.436,0.39,3.514L22.201,24l6.751,8.438 c0.863,1.078,0.688,2.651-0.39,3.514c-0.461,0.369-1.012,0.548-1.56,0.548C26.268,36.5,25.542,36.179,25.048,35.562z" opacity=".07"/><path fill="#fff" d="M25.438,35.251l-8-10c-0.584-0.73-0.584-1.769,0-2.499l8-10c0.69-0.862,1.948-1.003,2.811-0.312 c0.862,0.69,1.002,1.948,0.312,2.811l-7,8.75l7,8.75c0.69,0.863,0.55,2.121-0.312,2.811C27.88,35.857,27.439,36,27.001,36 C26.415,36,25.833,35.743,25.438,35.251z"/></svg>