<svg xmlns="http://www.w3.org/2000/svg" viewBox="0 0 48 48"><radialGradient id="AmK1vFcc6slJusbUZnDWga" cx="10.062" cy="-299.438" r="40.916" gradientTransform="matrix(1 0 0 -1 0 -290)" gradientUnits="userSpaceOnUse"><stop offset="0" stop-color="#6fcefc"/><stop offset="1" stop-color="#167cf7"/></radialGradient><path fill="url(#AmK1vFcc6slJusbUZnDWga)" d="M44,24c0,11.045-8.955,20-20,20S4,35.045,4,24S12.955,4,24,4S44,12.955,44,24z"/><radialGradient id="AmK1vFcc6slJusbUZnDWgb" cx="10.696" cy="-298.05" r="40.918" gradientTransform="matrix(1 0 0 -1 0 -290)" gradientUnits="userSpaceOnUse"><stop offset=".001" stop-color="#54c0f5"/><stop offset=".998" stop-color="#0b69db"/></radialGradient><path fill="url(#AmK1vFcc6slJusbUZnDWgb)" d="M41,24c0-2.465-0.399-4.818-1.096-7h2.811c-0.256-0.685-0.546-1.353-0.873-2H39.16	C36.355,8.485,30.621,4,24,4S11.645,8.485,8.839,15H6.157c-0.327,0.647-0.616,1.315-0.873,2h2.811C7.399,19.182,7,21.535,7,24	s0.399,4.818,1.096,7H5.285c0.256,0.685,0.546,1.353,0.873,2H8.84c2.806,6.515,8.54,11,15.161,11s12.355-4.485,15.161-11h2.682	c0.327-0.647,0.616-1.315,0.873-2h-2.811C40.601,28.818,41,26.465,41,24z M39,24c0,2.481-0.421,4.847-1.181,7H31.51	c0.323-2.266,0.49-4.65,0.49-7s-0.166-4.734-0.49-7h6.309C38.579,19.153,39,21.519,39,24z M24,42c-1.936,0-4.021-3.445-5.152-9	h10.304C28.021,38.555,25.936,42,24,42z M18.5,31c-0.315-2.113-0.5-4.461-0.5-7s0.185-4.887,0.5-7h11c0.315,2.113,0.5,4.461,0.5,7	s-0.185,4.887-0.5,7H18.5z M24,6c1.936,0,4.021,3.445,5.152,9H18.848C19.979,9.445,22.064,6,24,6z M36.97,15h-5.792	c-0.639-3.33-1.643-6.272-2.994-8.273C31.922,8.033,35.054,11.038,36.97,15z M19.816,6.727c-1.35,2.002-2.355,4.943-2.994,8.273	H11.03C12.946,11.038,16.078,8.033,19.816,6.727z M9,24c0-2.481,0.421-4.847,1.181-7h6.309C16.166,19.266,16,21.65,16,24	s0.166,4.734,0.49,7h-6.309C9.421,28.847,9,26.481,9,24z M11.03,33h5.792c0.639,3.33,1.643,6.272,2.994,8.273	C16.078,39.967,12.946,36.962,11.03,33z M28.184,41.273c1.35-2.002,2.355-4.943,2.994-8.273h5.792	C35.054,36.962,31.922,39.967,28.184,41.273z"/><path d="M43.749,27.01C43.544,27.006,43.342,27,43.126,27c-3.743,0-8.891,0.688-12.161,3.965	c-3.473,3.466-4.047,9.005-3.968,12.786C35.632,42.45,42.443,35.643,43.749,27.01z" opacity=".05"/><path d="M43.673,27.508c-0.181-0.003-0.358-0.008-0.547-0.008c-3.648,0-8.659,0.663-11.808,3.818	c-3.331,3.325-3.895,8.668-3.823,12.357C35.729,42.221,42.214,35.741,43.673,27.508z" opacity=".07"/><path fill="#21a366" d="M44.331,44.331c-4.804,4.814-14.244,3.596-15.769,3.358c-0.149-0.02-0.218-0.03-0.218-0.03L29,45	l17-16l1.659-0.657c0,0,0.01,0.069,0.03,0.218C47.926,30.087,49.145,39.526,44.331,44.331z"/><path fill="#33c481" d="M47.659,28.343L28.343,47.659c0,0-1.922-10.747,3.328-15.987	C36.911,26.422,47.659,28.343,47.659,28.343z"/></svg>