<svg xmlns="http://www.w3.org/2000/svg" viewBox="0 0 48 48"><linearGradient id="LJUxyt~LIyrEFQokz5a3oa" x1="24" x2="24" y1="6.708" y2="14.977" gradientUnits="userSpaceOnUse"><stop offset="0" stop-color="#eba600"/><stop offset="1" stop-color="#c28200"/></linearGradient><path fill="url(#LJUxyt~LIyrEFQokz5a3oa)" d="M24.414,10.414l-2.536-2.536C21.316,7.316,20.553,7,19.757,7L5,7C3.895,7,3,7.895,3,9l0,30	c0,1.105,0.895,2,2,2l38,0c1.105,0,2-0.895,2-2V13c0-1.105-0.895-2-2-2l-17.172,0C25.298,11,24.789,10.789,24.414,10.414z"/><linearGradient id="LJUxyt~LIyrEFQokz5a3ob" x1="24" x2="24" y1="10.854" y2="40.983" gradientUnits="userSpaceOnUse"><stop offset="0" stop-color="#ffd869"/><stop offset="1" stop-color="#fec52b"/></linearGradient><path fill="url(#LJUxyt~LIyrEFQokz5a3ob)" d="M21.586,14.414l3.268-3.268C24.947,11.053,25.074,11,25.207,11H43c1.105,0,2,0.895,2,2v26	c0,1.105-0.895,2-2,2H5c-1.105,0-2-0.895-2-2V15.5C3,15.224,3.224,15,3.5,15h16.672C20.702,15,21.211,14.789,21.586,14.414z"/><linearGradient id="LJUxyt~LIyrEFQokz5a3oc" x1="13.217" x2="19.464" y1="33.692" y2="27.445" gradientUnits="userSpaceOnUse"><stop offset="0" stop-color="#1552b3"/><stop offset=".275" stop-color="#144fae"/><stop offset=".623" stop-color="#12479e"/><stop offset=".86" stop-color="#103f8f"/></linearGradient><path fill="url(#LJUxyt~LIyrEFQokz5a3oc)" d="M12.053,32.09l6.983-6.983c0.191-0.191,0.501-0.191,0.692,0l2.075,2.075	c0.191,0.191,0.191,0.501,0,0.692l-6.983,6.983c-0.191,0.191-0.501,0.191-0.692,0l-2.075-2.075	C11.862,32.591,11.862,32.281,12.053,32.09z"/><linearGradient id="LJUxyt~LIyrEFQokz5a3od" x1="13.342" x2="20.818" y1="21.378" y2="28.854" gradientUnits="userSpaceOnUse"><stop offset="0" stop-color="#1f60c2"/><stop offset="1" stop-color="#195bbc"/></linearGradient><path fill="url(#LJUxyt~LIyrEFQokz5a3od)" d="M14.873,20.143l6.983,6.983c0.191,0.191,0.191,0.501,0,0.692l-2.075,2.075	c-0.191,0.191-0.501,0.191-0.692,0l-6.983-6.983c-0.191-0.191-0.191-0.501,0-0.692l2.075-2.075	C14.373,19.952,14.682,19.952,14.873,20.143z"/><linearGradient id="LJUxyt~LIyrEFQokz5a3oe" x1="25" x2="37" y1="33.5" y2="33.5" gradientUnits="userSpaceOnUse"><stop offset="0" stop-color="#1f60c2"/><stop offset="1" stop-color="#195bbc"/></linearGradient><path fill="url(#LJUxyt~LIyrEFQokz5a3oe)" d="M25.5,32h11c0.276,0,0.5,0.224,0.5,0.5v2c0,0.276-0.224,0.5-0.5,0.5h-11	c-0.276,0-0.5-0.224-0.5-0.5v-2C25,32.224,25.224,32,25.5,32z"/></svg>