<svg xmlns="http://www.w3.org/2000/svg" viewBox="0 0 48 48"><radialGradient id="4PN~5Ht7aqPHsRE9tPZKza" cx="24" cy="19.102" r="10.643" gradientUnits="userSpaceOnUse"><stop offset="0"/><stop offset="1" stop-color="#2e2e2e"/></radialGradient><path fill="url(#4PN~5Ht7aqPHsRE9tPZKza)" d="M24,8.83c-8.814,0-11,14.232-11,14.232c0,2.534,1.177,4.754,3.641,5.342	c2.11,0.504,4.766,0.971,7.359,0.971s5.248-0.467,7.359-0.971C33.823,27.816,35,25.595,35,23.062C35,23.062,32.814,8.83,24,8.83z"/><linearGradient id="4PN~5Ht7aqPHsRE9tPZKzb" x1="20.404" x2="25.357" y1="26.615" y2="43.654" gradientUnits="userSpaceOnUse"><stop offset="0" stop-color="#ae4cd5"/><stop offset="1" stop-color="#ac4ad5"/></linearGradient><path fill="url(#4PN~5Ht7aqPHsRE9tPZKzb)" d="M24,27c-7.732,0-14,4.556-14,9.25v6c0,0.966,0.784,1.75,1.75,1.75h24.5	c0.966,0,1.75-0.784,1.75-1.75v-6C38,31.556,31.732,27,24,27z"/><path fill="#d6a121" d="M28,29.8c0,1.518-1.6,3.2-4,3.2s-4-1.682-4-3.2c0-2.11,0-5.628,0-5.628h8C28,24.172,28,27.69,28,29.8	z"/><radialGradient id="4PN~5Ht7aqPHsRE9tPZKzc" cx="-818.338" cy="5.86" r="9.381" gradientTransform="matrix(-.9136 0 0 .9667 -723.596 12.867)" gradientUnits="userSpaceOnUse"><stop offset="0" stop-color="#ffcf54"/><stop offset=".261" stop-color="#fdcb4d"/><stop offset=".639" stop-color="#f7c13a"/><stop offset="1" stop-color="#f0b421"/></radialGradient><path fill="url(#4PN~5Ht7aqPHsRE9tPZKzc)" d="M24,8.062c3.454,0,7,0.606,7,8.507c0,0.632,0,5.019,0,5.695C31,25.085,26.713,29,24,29	s-7-3.915-7-6.736c0-0.675,0-5.062,0-5.695C17,8.875,20.546,8.062,24,8.062z"/><linearGradient id="4PN~5Ht7aqPHsRE9tPZKzd" x1="17" x2="31" y1="38" y2="38" gradientUnits="userSpaceOnUse"><stop offset="0" stop-color="#75daff"/><stop offset="1" stop-color="#1ea2e4"/></linearGradient><path fill="url(#4PN~5Ht7aqPHsRE9tPZKzd)" d="M24,31c-3.866,0-7,3.134-7,7s3.134,7,7,7s7-3.134,7-7S27.866,31,24,31z"/><path fill="#fff" d="M21,34c-0.552,0-1,0.448-1,1s0.448,1,1,1s1-0.448,1-1S21.552,34,21,34z"/><path fill="#c9f1ff" d="M26.5,39c-0.828,0-1.5,0.672-1.5,1.5s0.672,1.5,1.5,1.5s1.5-0.672,1.5-1.5S27.328,39,26.5,39z"/><linearGradient id="4PN~5Ht7aqPHsRE9tPZKze" x1="22.091" x2="24.628" y1="8.479" y2="29.921" gradientUnits="userSpaceOnUse"><stop offset="0" stop-color="#636363"/><stop offset=".998" stop-color="#3b3b3b"/></linearGradient><path fill="url(#4PN~5Ht7aqPHsRE9tPZKze)" d="M37,21.5c0-0.693-0.472-1.27-1.11-1.442C35.96,19.885,36,19.698,36,19.5 c0-0.828-0.672-1.5-1.5-1.5c-0.25-1.25-0.5-2-0.5-2s-3-8-10-8s-10.051,8-10.051,8s-0.297,0.628-0.559,2.058 C13.265,18.024,13.136,18,13,18c-0.828,0-1.5,0.672-1.5,1.5c0,0.198,0.04,0.385,0.11,0.558c-0.638,0.173-1.11,0.75-1.11,1.442 c0,0.386,0.15,0.734,0.389,1c-0.239,0.266-0.389,0.614-0.389,1c0,0.693,0.472,1.27,1.11,1.442c-0.069,0.173-0.11,0.36-0.11,0.558 c0,0.828,0.672,1.5,1.5,1.5c0,0.552,0.448,1,1,1c0.336,0,0.619-0.177,0.8-0.431c0.319,0.235,0.641,0.399,0.931,0.519 C12.662,16.544,21.379,17.906,20,10c3.54,10.336,15.558,3.338,12.269,18.088c0.21-0.089,0.409-0.201,0.598-0.331 C33.041,27.902,33.256,28,33.5,28c0.552,0,1-0.448,1-1c0.828,0,1.5-0.672,1.5-1.5c0-0.198-0.04-0.385-0.11-0.558 C36.528,24.77,37,24.193,37,23.5c0-0.386-0.15-0.734-0.389-1C36.85,22.234,37,21.886,37,21.5z"/><linearGradient id="4PN~5Ht7aqPHsRE9tPZKzf" x1="21.112" x2="24.488" y1="5.707" y2="17.321" gradientUnits="userSpaceOnUse"><stop offset="0" stop-color="#ae4cd5"/><stop offset="1" stop-color="#ac4ad5"/></linearGradient><path fill="url(#4PN~5Ht7aqPHsRE9tPZKzf)" d="M34,17H14v-1.286c0-5.523,4.477-10,10-10h0c5.523,0,10,4.477,10,10V17z"/><path fill="#e3a600" d="M34,15H14c-0.552,0-1,0.448-1,1v1c0,0.552,0.448,1,1,1h20c0.552,0,1-0.448,1-1v-1	C35,15.448,34.552,15,34,15z"/></svg>