<svg xmlns="http://www.w3.org/2000/svg" viewBox="0 0 48 48"><path fill="#21a366" d="M29,36c0-4-2-10-2-10s-2,6-2,10s0,5,0,5h4C29,41,29,40,29,36z"/><path fill="#21a366" d="M37,34c0-4-2-11-2-11s-2,7-2,11s0,9,0,9h4C37,43,37,38,37,34z"/><path fill="#21a366" d="M21,39c0-4-2-8-2-8s-2,4-2,8c0,1,0,2,0,2h4C21,41,21,40,21,39z"/><circle cx="39.5" cy="14.5" r="2.5" fill="#c98e00"/><polygon fill="#c98e00" points="26,11 38.54,16.809 40.68,12.307 26.211,4.317"/><linearGradient id="YmJEEh2shErqlObkEicU~a" x1="3" x2="45" y1="-1661" y2="-1661" gradientTransform="matrix(1 0 0 -1 0 -1648)" gradientUnits="userSpaceOnUse"><stop offset="0" stop-color="#ffcf54"/><stop offset=".261" stop-color="#fdcb4d"/><stop offset=".639" stop-color="#f7c13a"/><stop offset="1" stop-color="#f0b421"/></linearGradient><path fill="url(#YmJEEh2shErqlObkEicU~a)" d="M43.68,11.309l0.001-0.002L29.212,3.318l-0.017-0.001C28.838,3.121,28.435,3,28,3 c-0.355,0-0.691,0.076-0.998,0.21h-0.001L11.09,9.718L3,6v13l7.963,3.57h0.022C11.603,22.843,12.282,23,13,23 c0.737,0,1.431-0.169,2.061-0.455h0.025l13.651-6.866l-0.004-0.016C29.486,15.232,30,14.43,30,13.5c0-1.381-1.119-2.5-2.5-2.5 l1.5-1l12.523,5.801c0.002,0.001,0.004,0.002,0.006,0.003l0.011,0.005l0.001-0.001C41.836,15.931,42.16,16,42.5,16 c1.381,0,2.5-1.119,2.5-2.5C45,12.548,44.462,11.731,43.68,11.309z"/><circle cx="27.5" cy="13.5" r="1.5" fill="#ffde87"/><linearGradient id="YmJEEh2shErqlObkEicU~b" x1="22.337" x2="24.123" y1="-1657.632" y2="-1660.712" gradientTransform="matrix(1 0 0 -1 0 -1648)" gradientUnits="userSpaceOnUse"><stop offset="0" stop-color="#f0b421" stop-opacity="0"/><stop offset=".512" stop-color="#e9ab12" stop-opacity=".512"/><stop offset="1" stop-color="#e09f00"/></linearGradient><path fill="url(#YmJEEh2shErqlObkEicU~b)" d="M28.551,6.266L17,11v3.511c8.269-3.045,9.256-3.453,10.511-3.513L29,10 C27.733,8.549,28.551,6.266,28.551,6.266z"/><path fill="#33c481" d="M41,38.074C41,38.172,41,37,41,37c0-0.273,0-0.592,0-1c0-4-2-10-2-10s-2,6-2,10v2.894 c0,0.996-0.681,1.919-1.665,2.078C34.082,41.176,33,40.215,33,39c0,0,0-2,0-6s-2-9-2-9s-2,5-2,9l0,3.894 c0,0.996-0.681,1.919-1.665,2.078C26.082,39.176,25,38.215,25,37c0-0.375,0-1,0-2c0-4-2-10-2-10s-2,6-2,10l0,3.894 c0,0.996-0.681,1.919-1.665,2.078C18.082,41.176,17,40.215,17,39c0,0,0,1,0-3s-2-10-2-10s-2,6-2,10v5c0,1.105,0.895,2,2,2h24 c1.105,0,2-0.895,2-2V38.074z"/></svg>