<svg xmlns="http://www.w3.org/2000/svg" viewBox="0 0 48 48"><linearGradient id="HYloYyMRDbDHXG0BNl7AIa" x1="17" x2="17" y1="40.26" y2="34.26" gradientUnits="userSpaceOnUse"><stop offset="0" stop-color="#ffcf54"/><stop offset=".261" stop-color="#fdcb4d"/><stop offset=".639" stop-color="#f7c13a"/><stop offset="1" stop-color="#f0b421"/></linearGradient><path fill="url(#HYloYyMRDbDHXG0BNl7AIa)" d="M16,46c-1.104,0-2-0.896-2-2v-7.529c0-0.154,0.018-0.309,0.054-0.46l2-8.471 c0.253-1.075,1.326-1.744,2.406-1.486c1.074,0.254,1.74,1.331,1.486,2.406L18,36.703V44C18,45.104,17.104,46,16,46z"/><linearGradient id="HYloYyMRDbDHXG0BNl7AIb" x1="37" x2="37" y1="40.595" y2="34.595" gradientTransform="matrix(-1 0 0 1 68 0)" gradientUnits="userSpaceOnUse"><stop offset="0" stop-color="#ffcf54"/><stop offset=".261" stop-color="#fdcb4d"/><stop offset=".639" stop-color="#f7c13a"/><stop offset="1" stop-color="#f0b421"/></linearGradient><path fill="url(#HYloYyMRDbDHXG0BNl7AIb)" d="M32,46c1.104,0,2-0.896,2-2v-7.529c0-0.154-0.018-0.309-0.054-0.46l-2-8.471 c-0.253-1.075-1.326-1.744-2.406-1.486c-1.074,0.254-1.74,1.331-1.486,2.406L30,36.703V44C30,45.104,30.896,46,32,46z"/><linearGradient id="HYloYyMRDbDHXG0BNl7AIc" x1="15.784" x2="16.216" y1="1480.003" y2="1471.061" gradientTransform="rotate(19.238 4301.367 750.622)" gradientUnits="userSpaceOnUse"><stop offset="0" stop-color="#ffcf54"/><stop offset=".261" stop-color="#fdcb4d"/><stop offset=".639" stop-color="#f7c13a"/><stop offset="1" stop-color="#f0b421"/></linearGradient><path fill="url(#HYloYyMRDbDHXG0BNl7AIc)" d="M19.077,19.801l-3.162-0.044c0,0-2.709,7.762-2.801,8.025 c-0.273,0.782,0.14,1.638,0.922,1.91c0.782,0.273,1.638-0.14,1.91-0.922C16.039,28.507,15.031,31.395,19.077,19.801z"/><path fill="#b55017" d="M20.632,3.761c0,0-1.631,2.473-1.631,5.407c0,0.427,0.227,0.809,0.57,0.962C21.526,11,24,11,24,11 V4.01L20.632,3.761z"/><path fill="#b55017" d="M27.453,3.892c0,0,1.546,2.294,1.546,5.275c0,0.427-0.227,0.809-0.57,0.962C26.474,11,24,11,24,11 V4.01L27.453,3.892z"/><linearGradient id="HYloYyMRDbDHXG0BNl7AId" x1="22.651" x2="25.348" y1="-1105.284" y2="-1112.715" gradientTransform="matrix(1 0 0 -1 0 -1102)" gradientUnits="userSpaceOnUse"><stop offset="0" stop-color="#ffcf54"/><stop offset=".261" stop-color="#fdcb4d"/><stop offset=".639" stop-color="#f7c13a"/><stop offset="1" stop-color="#f0b421"/></linearGradient><path fill="url(#HYloYyMRDbDHXG0BNl7AId)" d="M24,11c-2.2,0-4-1.8-4-4s1.8-4,4-4s4,1.8,4,4S26.2,11,24,11"/><path fill="#d6a121" d="M24,42c-1.1,0-2-0.9-2-2s0.9-2,2-2s2,0.9,2,2S25.1,42,24,42"/><path fill="#b55017" d="M20,7c1.011-0.18,2.128-0.658,3-2.5c0.947,1.682,3.388,2.38,5,2.5c0-1.25,0.112-5-4-5 C19.926,2,20,5.75,20,7z"/><path fill="#d6a121" d="M28.832,37.445L27,34.697V32h-6v2.697l-1.832,2.748C19.059,37.609,19,37.803,19,38v3 c0,0.553,0.447,1,1,1s1-0.447,1-1v-2.697L21.868,37h4.263L27,38.303V41c0,0.553,0.447,1,1,1s1-0.447,1-1v-3 C29,37.803,28.941,37.609,28.832,37.445z"/><linearGradient id="HYloYyMRDbDHXG0BNl7AIe" x1="18.66" x2="19.177" y1="1477.759" y2="1468.821" gradientTransform="scale(-1 1) rotate(19.238 4275.853 600.074)" gradientUnits="userSpaceOnUse"><stop offset="0" stop-color="#ffcf54"/><stop offset=".261" stop-color="#fdcb4d"/><stop offset=".639" stop-color="#f7c13a"/><stop offset="1" stop-color="#f0b421"/></linearGradient><path fill="url(#HYloYyMRDbDHXG0BNl7AIe)" d="M28.953,19.801l3.162-0.044c0,0,2.709,7.762,2.801,8.025c0.273,0.782-0.14,1.638-0.922,1.91 c-0.782,0.273-1.638-0.14-1.91-0.922C31.992,28.507,32.999,31.395,28.953,19.801z"/><linearGradient id="HYloYyMRDbDHXG0BNl7AIf" x1="24.005" x2="24.005" y1="12.245" y2="33.608" gradientUnits="userSpaceOnUse"><stop offset="0" stop-color="#32bdef"/><stop offset="1" stop-color="#1ea2e4"/></linearGradient><path fill="url(#HYloYyMRDbDHXG0BNl7AIf)" d="M34.522,32.665C33,29,28.99,20.014,29,20h3.181c-0.156-0.507-0.407-1.344-0.407-1.344 C30.936,15.867,29.001,13,25.302,13H25h-1h-1h-0.302c-3.699,0-5.634,2.867-6.472,5.656c0,0-0.251,0.838-0.407,1.344H19 l-5.523,12.664C13.245,33.315,13.727,34,14.419,34h19.16C34.271,34,34.787,33.304,34.522,32.665z"/></svg>