<svg xmlns="http://www.w3.org/2000/svg" viewBox="0 0 48 48"><path fill="#09914a" d="M44,24c0,11.045-8.955,20-20,20S4,35.045,4,24S12.955,4,24,4S44,12.955,44,24z"/><circle cx="24" cy="24" r="17" fill="#f2f2f2"/><path fill="#30dc80" d="M10.575,13.605l12.297,10.991L24,23V7C18.532,7,13.683,9.593,10.575,13.605z"/><path fill="#d83b01" d="M24,36.75c-0.414,0-0.75-0.336-0.75-0.75V24c0-0.414,0.336-0.75,0.75-0.75s0.75,0.336,0.75,0.75v12 C24.75,36.414,24.414,36.75,24,36.75z"/><path fill="#45494d" d="M24.712,24.287c-0.136-0.136-0.22-0.323-0.219-0.53c0-0.414,0.336-0.75,0.75-0.75l12,0 c0.414,0,0.75,0.336,0.75,0.75c0,0.414-0.336,0.75-0.75,0.75l-12-0.001C25.035,24.507,24.848,24.423,24.712,24.287z"/><path fill="#45494d" d="M22.914,24.556c-0.174-0.051-0.339-0.14-0.483-0.27l-6.418-5.779 c-0.513-0.463-0.554-1.252-0.092-1.766c0.461-0.513,1.252-0.557,1.765-0.092l6.418,5.779c0.513,0.463,0.554,1.252,0.092,1.766 C23.864,24.562,23.361,24.688,22.914,24.556z"/><circle cx="24" cy="24" r="2" fill="#1e2021"/></svg>