<svg xmlns="http://www.w3.org/2000/svg" data-name="Layer 1" viewBox="0 0 48 48"><defs><linearGradient id="EUOxNEmh2Y2YGsr~~Hp_za" x1="24" x2="24" y1="-8.153" y2="64.434" data-name="Безымянный градиент 15" gradientUnits="userSpaceOnUse"><stop offset="0" stop-color="#9dffce"/><stop offset="1" stop-color="#50d18d"/></linearGradient></defs><path fill="#33c481" d="M31,11.9992c0-6-3.134-10-7-10s-7,4-7,10c0,8.56041,4,21,7,21S31,20.55961,31,11.9992Z"/><path fill="#33c481" d="M22.6207,45.4475a49.367,49.367,0,0,1-9.77689-15.02539,1.00132,1.00132,0,0,1,1.80628-.85718l.0061.01136A46.40207,46.40207,0,0,0,25.3793,42.5509a2.00342,2.00342,0,1,1-2.58955,3.05761A2.11613,2.11613,0,0,1,22.6207,45.4475Z"/><path fill="#33c481" d="M22.6207,42.5509A46.40207,46.40207,0,0,0,33.34381,29.57629l.00614-.01117a1.00125,1.00125,0,0,1,1.80624.857A49.367,49.367,0,0,1,25.3793,45.4475a2.00342,2.00342,0,1,1-2.92767-2.73559A2.10879,2.10879,0,0,1,22.6207,42.5509Z"/><path fill="#21a366" d="M45.13168,9.99973c-.00657-.00323-.01209-.013-.01867-.01128-3.64052.94926-9.26831,3.08681-11.864,8.45434s-.843,10.956.73961,14.54934c.00274.00622.01383.00449.02045.00763Z"/><path fill="#21a366" d="M2.87961,9.99973c.00657-.00323.0121-.013.01868-.01128,3.64052.94926,9.26831,3.08681,11.864,8.45434s.843,10.956-.73961,14.54934c-.00274.00622-.01382.00449-.02044.00763Z"/><path fill="url(#EUOxNEmh2Y2YGsr~~Hp_za)" d="M22,43.9992l1-34a1.00043,1.00043,0,0,1,2,0l1,34a2.00087,2.00087,0,0,1-4,.11768C21.9989,44.07946,21.99907,44.03613,22,43.9992Z"/></svg>