<svg xmlns="http://www.w3.org/2000/svg" viewBox="0 0 48 48"><path fill="#fff" d="M42.589,11.293l-4-4C38.402,7.105,38.148,7,37.882,7c-0.415,0-0.415,0-4.707,4.293 c-0.286,0.286-0.372,0.716-0.217,1.09C33.112,12.756,33.478,13,33.882,13h2v3h-9c-1.103,0-2,0.897-2,2v17h-2 c-0.404,0-0.77,0.244-0.924,0.617c-0.155,0.374-0.069,0.804,0.217,1.09l4,4C26.362,40.895,26.616,41,26.882,41 c0.415,0,0.415,0,4.707-4.293c0.286-0.286,0.372-0.716,0.217-1.09C31.652,35.244,31.286,35,30.882,35h-2v-3h9c1.103,0,2-0.897,2-2 V13h2c0.404,0,0.77-0.244,0.924-0.617C42.961,12.009,42.875,11.579,42.589,11.293z M35.882,28h-7v-8h7V28z"/><path fill="#6a3889" d="M23,36h3V18c0-0.551,0.449-1,1-1h9v2h-6h-2v2v15l3,0c0,0-3.999,4-4,4L23,36z M27,42 c0.512,0,1.023-0.195,1.414-0.586l4-4c0.572-0.572,0.743-1.432,0.434-2.179C32.538,34.487,31.809,34,31,34h-1V21h7v-6H27 c-1.657,0-3,1.343-3,3v16h-1c-0.809,0-1.538,0.487-1.848,1.235c-0.31,0.747-0.139,1.607,0.434,2.179l4,4 C25.977,41.805,26.488,42,27,42L27,42z"/><rect width="6" height="27" x="21" y="15" opacity=".05"/><polygon points="26.5,14 25.118,14 25.118,41 26,41 26.5,41" opacity=".07"/><rect width="2.225" height="5.999" x="34" y="15" opacity=".05"/><polygon points="34.5,15 35.882,15 35.882,20.999 35,20.999 34.5,20.999" opacity=".07"/><linearGradient id="mPWHZ9d3KNBGLqF8U~imba" x1="4" x2="26" y1="24" y2="24" gradientUnits="userSpaceOnUse"><stop offset="0" stop-color="#6a3889"/><stop offset="1" stop-color="#7e43a3"/></linearGradient><path fill="url(#mPWHZ9d3KNBGLqF8U~imba)" d="M24.813,42.982l-20-3.827C4.341,39.065,4,38.653,4,38.172V9.828 c0-0.48,0.341-0.892,0.813-0.982l20-3.827C25.429,4.901,26,5.373,26,6V42C26,42.627,25.429,43.099,24.813,42.982z"/><path fill="#fff" d="M16,15l-2.995,0.225v15.533l3,0.238V14.963"/><path fill="#6a3889" d="M42,12h-3v18c0,0.551-0.449,1-1,1h-7.994v-2H35h2v-2V12l-3,0c0,0,3.999-4,4-4L42,12z M38,6 c-0.512,0-1.023,0.195-1.414,0.586l-4,4c-0.572,0.572-0.743,1.432-0.434,2.179C32.462,13.513,33.191,14,34,14h1v13h-4.994v6H38 c1.657,0,3-1.343,3-3V14h1c0.809,0,1.538-0.487,1.848-1.235c0.31-0.747,0.139-1.607-0.434-2.179l-4-4C39.023,6.195,38.512,6,38,6 L38,6z"/><rect width="1" height="5.999" x="30.006" y="27" opacity=".05"/><polygon points="30.506,27 30.006,27 30.006,32.999 30.006,32.999 30.506,32.999" opacity=".07"/></svg>