<svg xmlns="http://www.w3.org/2000/svg" width="48" height="48" viewBox="0 0 48 48"><linearGradient id="SjpqAiTt6Vuo2rpaDeb7ta" x1="16.515" x2="3.196" y1="22.346" y2="40.428" gradientTransform="matrix(.962 0 0 .962 .569 1.014)" gradientUnits="userSpaceOnUse"><stop offset="0" stop-color="#ffcf54"/><stop offset=".261" stop-color="#fdcb4d"/><stop offset=".639" stop-color="#f7c13a"/></linearGradient><path fill="url(#SjpqAiTt6Vuo2rpaDeb7ta)" d="M20.821,40.552c-0.104-1.421,0.584-2.787,1.789-3.547c0.161-0.101,0.319-0.192,0.468-0.266	c0.745-0.368,1.514-0.749,2.056-1.253c1.063-0.991,1.151-2.611,0.251-4.564c-0.07-0.179-0.057-0.383,0.038-0.546	c0.296-0.51,0.344-1.456-0.214-2.419c-0.599-1.036-1.122-1.148-1.606-1.172c-0.056-0.003-0.094-0.005-0.123-0.009l-0.129-0.291	l1.245-1.958c0.273-0.43,0.364-0.963,0.247-1.463c-0.115-0.496-0.414-0.911-0.867-1.187l-3.372-1.725	c-0.331-0.534-1.77-2.856-2.513-3.956l-0.653-1.168c-0.006-0.042-1.911-5.563-7.686-5.379c-0.121,0.003-2.983,1.768-5.791,3.548	v17.576C5.322,34.301,6.834,37.49,7,40c0.069,1.041,0.053,1.946,0.03,2.482C7.018,42.767,7.244,43,7.529,43h12.933	c0.291,0,0.52-0.247,0.499-0.537L20.821,40.552z"/><linearGradient id="SjpqAiTt6Vuo2rpaDeb7tb" x1="28.297" x2="32.159" y1="195.03" y2="173.827" gradientTransform="scale(1 -1) rotate(-41.437 -231.743 74.477)" gradientUnits="userSpaceOnUse"><stop offset="0" stop-color="#f44f5a"/><stop offset=".443" stop-color="#ee3d4a"/><stop offset="1" stop-color="#e52030"/></linearGradient><path fill="url(#SjpqAiTt6Vuo2rpaDeb7tb)" d="M43.321,8.227c0.013-0.028,0.045-0.071,0.071-0.1c0.193-0.219,0.527-0.24,0.746-0.046	c0.093,0.082,0.127,0.174,0.144,0.207c0.317,0.616,2.257,5.119-2.512,8.972c1.71,0.313,2.464-1.346,2.83-1.023	c0.137,0.121,0.148,0.222,0.126,0.416c-0.317,2.821-1.228,5.716-2.944,7.661c-2.895,3.279-7.9,3.591-11.179,0.696	c-3.606-3.183-3.256-8.279-0.696-11.179C34.164,9.005,40.636,13.134,43.321,8.227z"/><linearGradient id="SjpqAiTt6Vuo2rpaDeb7tc" x1="29.02" x2="32.289" y1="188.581" y2="170.728" gradientTransform="scale(1 -1) rotate(-41.437 -231.743 74.477)" gradientUnits="userSpaceOnUse"><stop offset="0" stop-color="#fed100"/><stop offset="1" stop-color="#e36001"/></linearGradient><path fill="url(#SjpqAiTt6Vuo2rpaDeb7tc)" d="M39.646,14.455c0,0-0.025-0.175-0.171-0.304c-0.221-0.195-0.558-0.174-0.752,0.047	c-1.717,2.751-5.22,1.08-7.69,3.878c-1.559,1.766-1.391,4.461,0.375,6.02c1.766,1.559,4.461,1.391,6.02-0.375	C39.438,21.442,40.116,16.631,39.646,14.455z"/><radialGradient id="SjpqAiTt6Vuo2rpaDeb7td" cx="11.202" cy="8.489" r="18.049" gradientUnits="userSpaceOnUse"><stop offset=".508" stop-color="#b85515"/><stop offset="1" stop-color="#ad3f16"/></radialGradient><path fill="url(#SjpqAiTt6Vuo2rpaDeb7td)" d="M18.181,13.875C16.34,10.517,13.03,9.616,9.77,9.616c-2.278,0-4.434,0.497-6.389,1.366	C3.148,11.087,3,11.323,3,11.579l0,25.938c0,0.189,0.08,0.37,0.227,0.489c1.049,0.85,2.415,1.576,3.394,2.568	c0.212,0.215,0.553,0.221,0.749-0.009l1.934-2.269c0.239-0.258,0.326-0.622,0.228-0.959l-1.419-4.984	c-0.071-0.249-0.278-0.423-0.528-0.49c-1.7-0.459-2.889-2.153-2.515-4.07c0.245-1.253,1.207-2.3,2.435-2.651	c1.066-0.305,2.068-0.098,2.863,0.406h0c0.289,0.075,0.599,0.024,0.846-0.162l0.45-0.339c0.331-0.249,0.479-0.559,0.467-0.886	c0,0-0.099-2.801-0.139-3.957c-0.01-0.271,0.195-0.55,0.452-0.637c2.379-0.81,4.603-2.534,5.763-5.074	C18.294,14.299,18.284,14.062,18.181,13.875z"/></svg>