<svg xmlns="http://www.w3.org/2000/svg" viewBox="0 0 48 48"><path fill="#33c481" d="M32,10c0-2.209-1.791-4-4-4c-0.047,0-0.091,0.012-0.137,0.014C27.422,4.284,25.867,3,24,3	s-3.422,1.284-3.863,3.014C20.091,6.012,20.047,6,20,6c-2.209,0-4,1.791-4,4c-2.209,0-4,1.791-4,4c0,2.209,1.791,4,4,4	c0.732,0,1.41-0.211,2-0.555C18.59,17.789,19.268,18,20,18s1.41-0.211,2-0.555C22.59,17.789,23.268,18,24,18s1.41-0.211,2-0.555	C26.59,17.789,27.268,18,28,18s1.41-0.211,2-0.555C30.59,17.789,31.268,18,32,18c2.209,0,4-1.791,4-4C36,11.791,34.209,10,32,10z"/><linearGradient id="gV2PtIFaPBZRzrblOXUoIa" x1="23" x2="23" y1="7.265" y2="19.57" gradientUnits="userSpaceOnUse"><stop offset="0" stop-color="#fed100"/><stop offset=".327" stop-color="#f6ba00"/><stop offset="1" stop-color="#e38101"/></linearGradient><path fill="url(#gV2PtIFaPBZRzrblOXUoIa)" d="M25,17c-0.552,0-1-0.447-1-1c0-6.148-3.21-7.021-3.243-7.03	c-0.536-0.134-0.861-0.677-0.728-1.212c0.135-0.537,0.681-0.86,1.213-0.728C21.437,7.078,26,8.308,26,16C26,16.553,25.552,17,25,17z"/><linearGradient id="gV2PtIFaPBZRzrblOXUoIb" x1="19" x2="19" y1="9.265" y2="21.57" gradientTransform="matrix(-1 0 0 1 46 0)" gradientUnits="userSpaceOnUse"><stop offset="0" stop-color="#fed100"/><stop offset=".327" stop-color="#f6ba00"/><stop offset="1" stop-color="#e38101"/></linearGradient><path fill="url(#gV2PtIFaPBZRzrblOXUoIb)" d="M25,19c0.552,0,1-0.447,1-1c0-6.148,3.21-7.021,3.243-7.03	c0.536-0.134,0.861-0.677,0.728-1.212c-0.135-0.537-0.681-0.86-1.213-0.728C28.563,9.078,24,10.308,24,18C24,18.553,24.448,19,25,19	z"/><linearGradient id="gV2PtIFaPBZRzrblOXUoIc" x1="23.37" x2="34.214" y1="18" y2="18" gradientUnits="userSpaceOnUse"><stop offset="0" stop-color="#21ad64"/><stop offset="1" stop-color="#088242"/></linearGradient><circle cx="29" cy="18" r="5" fill="url(#gV2PtIFaPBZRzrblOXUoIc)"/><linearGradient id="gV2PtIFaPBZRzrblOXUoId" x1="29" x2="29" y1="12.882" y2="17.386" gradientUnits="userSpaceOnUse"><stop offset="0" stop-color="#faf8e5"/><stop offset="1" stop-color="#faeeac"/></linearGradient><circle cx="29" cy="18" r="4" fill="url(#gV2PtIFaPBZRzrblOXUoId)"/><linearGradient id="gV2PtIFaPBZRzrblOXUoIe" x1="13.244" x2="26.257" y1="17" y2="17" gradientUnits="userSpaceOnUse"><stop offset="0" stop-color="#f44f5a"/><stop offset=".443" stop-color="#ee3d4a"/><stop offset="1" stop-color="#e52030"/></linearGradient><circle cx="20" cy="17" r="6" fill="url(#gV2PtIFaPBZRzrblOXUoIe)"/><circle cx="20" cy="17" r="4.286" fill="#eb6773"/><linearGradient id="gV2PtIFaPBZRzrblOXUoIf" x1="47.162" x2="22.191" y1="30.546" y2="30.546" gradientUnits="userSpaceOnUse"><stop offset="0" stop-color="#fed100"/><stop offset=".273" stop-color="#f3b000"/><stop offset=".552" stop-color="#ea9601"/><stop offset=".803" stop-color="#e58701"/><stop offset="1" stop-color="#e38101"/></linearGradient><path fill="url(#gV2PtIFaPBZRzrblOXUoIf)" d="M34.914,16h-3.393C23.124,16,16,22.992,16,31v14l16.091,0.091V45h0.822	c0.555,0,1.021-0.399,1.08-0.925l2-26.929C36.062,16.534,35.559,16,34.914,16z"/><linearGradient id="gV2PtIFaPBZRzrblOXUoIg" x1="21.755" x2="21.755" y1="12.029" y2="57.936" gradientUnits="userSpaceOnUse"><stop offset="0" stop-color="#fed100"/><stop offset=".327" stop-color="#f6ba00"/><stop offset="1" stop-color="#e38101"/></linearGradient><path fill="url(#gV2PtIFaPBZRzrblOXUoIg)" d="M16.393,16H13c-0.646,0-1.149,0.534-1.08,1.146l2,26.929C13.979,44.601,14.445,45,15,45h1.393	c8.397,0,15.204-6.492,15.204-14.5v0C31.597,22.492,24.79,16,16.393,16z"/></svg>