<svg xmlns="http://www.w3.org/2000/svg" xmlns:xlink="http://www.w3.org/1999/xlink" data-name="Layer 1" viewBox="0 0 48 48"><defs><linearGradient id="t~RNkBSNdVbb_ZVCGVQQJa" x1="29" x2="29" y1="1.954" y2="67.538" data-name="Безымянный градиент 21" gradientUnits="userSpaceOnUse"><stop offset="0" stop-color="#c26715"/><stop offset=".51" stop-color="#b85515"/><stop offset="1" stop-color="#ad3f16"/></linearGradient><linearGradient id="t~RNkBSNdVbb_ZVCGVQQJb" x1="19" x2="19" y1="2.897" y2="52.883" data-name="Новый образец градиентной зал 6" gradientUnits="userSpaceOnUse"><stop offset="0" stop-color="#eba84b"/><stop offset="1" stop-color="#d97218"/></linearGradient><linearGradient id="t~RNkBSNdVbb_ZVCGVQQJc" x1="18.969" x2="18.969" y1="-9.875" y2="42.012" xlink:href="#t~RNkBSNdVbb_ZVCGVQQJa"/></defs><path fill="url(#t~RNkBSNdVbb_ZVCGVQQJa)" d="M17,6.01655H40a1,1,0,0,1,1,1v35a1,1,0,0,1-1,1H17a0,0,0,0,1,0,0v-37a0,0,0,0,1,0,0Z"/><path fill="url(#t~RNkBSNdVbb_ZVCGVQQJb)" d="M31,12.01654v-4.944a1.02914,1.02914,0,0,0-1-1.056H8a1,1,0,0,0-1,1v34.944a1.02917,1.02917,0,0,0,1,1.056H30a1.02917,1.02917,0,0,0,1-1.056v-29.944Z"/><path fill="url(#t~RNkBSNdVbb_ZVCGVQQJc)" d="M19,19.01654a6.23638,6.23638,0,0,1-2-4,6.23641,6.23641,0,0,1,2-4,6.23641,6.23641,0,0,1,2,4A6.23638,6.23638,0,0,1,19,19.01654Zm5.10324,3.2214a6.23635,6.23635,0,0,0,1.03906-4.34975,6.23637,6.23637,0,0,0-4.10324,1.7786A6.23635,6.23635,0,0,0,20,24.01654,6.23637,6.23637,0,0,0,24.10324,22.23794Zm-6.14969,1.7786a6.23635,6.23635,0,0,0-1.03906-4.34975,6.23637,6.23637,0,0,0-4.10324-1.7786,6.23635,6.23635,0,0,0,1.03906,4.34975A6.23637,6.23637,0,0,0,17.95355,24.01654Zm6.14969,5.2214a6.23635,6.23635,0,0,0,1.03906-4.34975,6.23637,6.23637,0,0,0-4.10324,1.7786A6.23635,6.23635,0,0,0,20,31.01654,6.23637,6.23637,0,0,0,24.10324,29.23794Zm-6.16449,1.7786a6.23635,6.23635,0,0,0-1.03906-4.34975,6.23637,6.23637,0,0,0-4.10324-1.7786,6.23635,6.23635,0,0,0,1.03906,4.34975A6.23637,6.23637,0,0,0,17.93875,31.01654Zm1.06125,7h0a1,1,0,0,1-1-1v-3a1,1,0,0,1,1-1h0a1,1,0,0,1,1,1v3A1,1,0,0,1,19,38.01654Z"/></svg>