<svg xmlns="http://www.w3.org/2000/svg" xmlns:xlink="http://www.w3.org/1999/xlink" data-name="Слой 1" viewBox="0 0 48 48"><defs><linearGradient id="gnNy_n~4va3JeJxb_EH9Va" x1="19" x2="19" y1="34.065" y2="25.815" data-name="Безымянный градиент 18" gradientUnits="userSpaceOnUse"><stop offset=".503" stop-color="#a1aab3"/><stop offset=".658" stop-color="#9ea7af"/><stop offset=".796" stop-color="#949da5"/><stop offset=".928" stop-color="#848c92"/><stop offset="1" stop-color="#787f85"/></linearGradient><linearGradient id="gnNy_n~4va3JeJxb_EH9Vb" x1="19" x2="19" y1="34.799" y2="46.394" data-name="Безымянный градиент 17" gradientUnits="userSpaceOnUse"><stop offset="0" stop-color="#a1aab3"/><stop offset="1" stop-color="#8f979e"/></linearGradient><linearGradient id="gnNy_n~4va3JeJxb_EH9Vc" x1="29" x2="29" y1="34.065" y2="25.815" xlink:href="#gnNy_n~4va3JeJxb_EH9Va"/><linearGradient id="gnNy_n~4va3JeJxb_EH9Vd" x1="29" x2="29" y1="34.799" y2="46.394" xlink:href="#gnNy_n~4va3JeJxb_EH9Vb"/><linearGradient id="gnNy_n~4va3JeJxb_EH9Ve" x1="39" x2="39" y1="20.37" y2="28.401" xlink:href="#gnNy_n~4va3JeJxb_EH9Vb"/><linearGradient id="gnNy_n~4va3JeJxb_EH9Vf" x1="9" x2="9" y1="20.37" y2="28.401" xlink:href="#gnNy_n~4va3JeJxb_EH9Vb"/><linearGradient id="gnNy_n~4va3JeJxb_EH9Vg" x1="9.391" x2="14.724" y1="15.178" y2="15.178" xlink:href="#gnNy_n~4va3JeJxb_EH9Va"/><linearGradient id="gnNy_n~4va3JeJxb_EH9Vh" x1="39.13" x2="33.191" y1="15.178" y2="15.178" xlink:href="#gnNy_n~4va3JeJxb_EH9Va"/><linearGradient id="gnNy_n~4va3JeJxb_EH9Vi" x1="24" x2="24" y1="-.272" y2="12.65" xlink:href="#gnNy_n~4va3JeJxb_EH9Va"/><linearGradient id="gnNy_n~4va3JeJxb_EH9Vj" x1="21.179" x2="29.186" y1="11.251" y2="33.247" xlink:href="#gnNy_n~4va3JeJxb_EH9Vb"/></defs><rect width="6" height="8" x="16" y="26" fill="url(#gnNy_n~4va3JeJxb_EH9Va)" rx="1"/><rect width="6" height="8" x="16" y="36" fill="url(#gnNy_n~4va3JeJxb_EH9Vb)" rx="1"/><rect width="6" height="8" x="26" y="26" fill="url(#gnNy_n~4va3JeJxb_EH9Vc)" rx="1"/><rect width="6" height="8" x="26" y="36" fill="url(#gnNy_n~4va3JeJxb_EH9Vd)" rx="1"/><circle cx="29" cy="35" r="2" fill="#64717c"/><circle cx="19" cy="35" r="2" fill="#64717c"/><rect width="4" height="8" x="37" y="20" fill="url(#gnNy_n~4va3JeJxb_EH9Ve)" rx="1"/><rect width="4" height="8" x="7" y="20" fill="url(#gnNy_n~4va3JeJxb_EH9Vf)" rx="1"/><path fill="#64717c" d="M41,31a.99974.99974,0,0,1-1-1,1,1,0,0,0-2,0,1,1,0,0,1-2,0,3,3,0,0,1,6,0A.99974.99974,0,0,1,41,31Z"/><path fill="#64717c" d="M11,31a.99974.99974,0,0,1-1-1,1,1,0,0,0-2,0,1,1,0,0,1-2,0,3,3,0,0,1,6,0A.99974.99974,0,0,1,11,31Z"/><path fill="url(#gnNy_n~4va3JeJxb_EH9Vg)" d="M10.51814,18.64645,9.23781,17.10977a1,1,0,0,1,.1281-1.40833l5.50366-4.35259L17.43026,14.422,11.9266,18.77456A1,1,0,0,1,10.51814,18.64645Z"/><path fill="url(#gnNy_n~4va3JeJxb_EH9Vh)" d="M37.48793,18.64645l1.28033-1.53668a1,1,0,0,0-.1281-1.40833l-5.50365-4.35259L30.57581,14.422l5.50366,4.35259A1,1,0,0,0,37.48793,18.64645Z"/><path fill="#64717c" d="M18,9h0a1.5,1.5,0,0,1-1.5-1.5h0A1.5,1.5,0,0,1,18,6h0a1.5,1.5,0,0,1,1.5,1.5h0A1.5,1.5,0,0,1,18,9ZM31.5,7.5h0A1.5,1.5,0,0,0,30,6h0a1.5,1.5,0,0,0-1.5,1.5h0A1.5,1.5,0,0,0,30,9h0A1.5,1.5,0,0,0,31.5,7.5Z"/><path fill="url(#gnNy_n~4va3JeJxb_EH9Vi)" d="M20,3h8a2,2,0,0,1,2,2v7a0,0,0,0,1,0,0H18a0,0,0,0,1,0,0V5A2,2,0,0,1,20,3Z"/><rect width="10" height="4" x="19" y="5" fill="#64717c" rx="2"/><rect width="20" height="16" x="14" y="11" fill="url(#gnNy_n~4va3JeJxb_EH9Vj)" rx="2"/><path d="M29,15a1,1,0,0,1,1,1v6a1,1,0,0,1-1,1H19a1,1,0,0,1-1-1V16a1,1,0,0,1,1-1H29m0-1H19a2.00226,2.00226,0,0,0-2,2v6a2.00226,2.00226,0,0,0,2,2H29a2.00226,2.00226,0,0,0,2-2V16a2.00226,2.00226,0,0,0-2-2Z" opacity=".05"/><path d="M29,15a1,1,0,0,1,1,1v6a1,1,0,0,1-1,1H19a1,1,0,0,1-1-1V16a1,1,0,0,1,1-1H29m0-.5H19A1.50171,1.50171,0,0,0,17.5,16v6A1.50171,1.50171,0,0,0,19,23.5H29A1.50171,1.50171,0,0,0,30.5,22V16A1.50171,1.50171,0,0,0,29,14.5Z" opacity=".07"/><rect width="12" height="8" x="18" y="15" fill="#64717c" rx="1"/><rect width="3" height="2" x="20" y="19" fill="#50e6ff" rx=".5"/><rect width="3" height="4" x="25" y="17" fill="#50e6ff" rx=".5"/><circle cx="22" cy="7" r="1" fill="#50e6ff"/><circle cx="26" cy="7" r="1" fill="#50e6ff"/><circle cx="9" cy="19" r="2" fill="#64717c"/><circle cx="39" cy="19" r="2" fill="#64717c"/><rect width="8" height="2" x="15" y="42" fill="#64717c" rx="1"/><rect width="8" height="2" x="25" y="42" fill="#64717c" rx="1"/></svg>