<svg xmlns="http://www.w3.org/2000/svg" viewBox="0 0 48 48"><linearGradient id="A_DRsBFgOTtrTJF8zO31~a" x1="9.858" x2="38.387" y1="652.142" y2="623.613" gradientTransform="matrix(1 0 0 -1 0 662)" gradientUnits="userSpaceOnUse"><stop offset="0" stop-color="#00bffe"/><stop offset="1" stop-color="#1d55c4"/></linearGradient><path fill="url(#A_DRsBFgOTtrTJF8zO31~a)" d="M44,24c0,11.045-8.955,20-20,20S4,35.045,4,24S12.955,4,24,4S44,12.955,44,24z"/><linearGradient id="A_DRsBFgOTtrTJF8zO31~b" x1="13.583" x2="35.03" y1="4.338" y2="43.657" gradientUnits="userSpaceOnUse"><stop offset="0" stop-color="#84e1fe"/><stop offset="1" stop-color="#167cf7"/></linearGradient><path fill="url(#A_DRsBFgOTtrTJF8zO31~b)" d="M43.661,20.409c-0.044-0.249-0.092-0.498-0.145-0.744c-0.095-0.431-0.206-0.857-0.328-1.277 c-0.052-0.18-0.103-0.36-0.161-0.538c-0.148-0.458-0.314-0.906-0.494-1.349c-0.059-0.145-0.115-0.292-0.177-0.435 c-0.195-0.449-0.41-0.888-0.636-1.319c-0.07-0.134-0.136-0.271-0.21-0.403c-0.266-0.481-0.551-0.95-0.854-1.406 c-0.07-0.105-0.144-0.207-0.216-0.311c-0.296-0.427-0.604-0.844-0.931-1.245c-0.074-0.091-0.151-0.178-0.227-0.268 c-0.34-0.403-0.692-0.795-1.063-1.169c-0.075-0.076-0.153-0.149-0.229-0.223c-0.384-0.377-0.781-0.74-1.194-1.085 c-0.072-0.06-0.147-0.117-0.22-0.177c-0.428-0.347-0.869-0.68-1.326-0.991c-0.067-0.046-0.135-0.088-0.203-0.133 c-0.472-0.314-0.956-0.611-1.456-0.884c-0.058-0.032-0.117-0.061-0.176-0.092c-0.515-0.276-1.043-0.532-1.584-0.763 c-0.047-0.02-0.096-0.038-0.143-0.058c-0.556-0.232-1.124-0.442-1.705-0.624c-0.037-0.012-0.076-0.022-0.113-0.033 c-0.367-0.112-0.745-0.196-1.12-0.288c0.246,0.216,1.016,0.826,0.629,0.94c-0.432,0.138-1.979-0.958-3.548-0.41 c0,0-0.706,0.284-0.706,0.548c0,0.273,0.706,0.273,0.706,0.273s1.126-0.137,0.852,0.821c0,0,0.716,0.137,0.431,0.41 c-0.294,0.284-0.579,0-1,0.148c-0.432,0.137-0.569,0.81-0.284,1.231c0,0-0.863,0.273-1-0.558c0,0,0.137-0.4,0.716-0.958 c0.569-0.537-0.716-0.958-1.273,0.137c-0.579,1.104-0.431,1.242,0,1.652c0,0-1,0-1.137,1.231c0,0-0.579,1.369-1.148,0.969 c-0.558-0.421-0.706-1.242-0.706-1.242s0.852,0.684,1.273,0.137c0.421-0.548-1.273-1.369-1.273-1.369s-0.432-0.558-1.99,0 l-1.842,1.231c0,0-1.421,0-1.716,0.684c-0.273,0.694,0.558,1.358-0.252,1.758c0,0-0.294,0.494-1.484,0.4 c0,0,0.883-2.021,0.462-2.296c-0.421-0.274-2.19,0.483-2.842,0.831c-1.537,0.8-0.852,2.327-0.421,3.148 c0.421,0.821-0.569,1.094-0.569,1.094s-1.137-1.096-1.706-0.548s-0.99,1.369-0.99,1.369s-0.042,0.937,0.527,1.063 c0.569,0.137,0.653,0.527,0.948,0.527c0.273,0,0.516-0.073,0.937-0.494c0.421-0.4,1.411-1.504,1.99-0.81c0,0,0.99,0.137,0,1.094 c-1,0.958,0.696,0.769,0.99-0.052c0.284-0.832,1.642,0.652,1.084,0.937c0,0-0.937-0.063-0.937,0.21c0,0.273,0,0.958,0,0.958 s2.011-0.8,2.148-0.106c0.137,0.684,0.263,0.927,0.263,0.927s0.253,0.59,1.284,0.548c0.483-0.01,1.4,0.18,1.831,0.39 c0.211,0.106,0.863,0.296,0.442,0.99c0,0-0.642,0.031-0.863,0c-2.148-0.326-3.4-1.094-3.4-1.094s-0.569-0.137-0.569,0.537 c0,0.694-0.863-0.137-0.863-0.137s-1.831-1.358-1.41-1.779c0.421-0.411,0.27-1.036,0.084-1.221c-0.349-0.348-0.8,0.263-1.506-0.431 c0,0-0.58,0.1-1.164,0.27C9.47,18.63,9.16,18.534,8.982,18.302c-0.208-0.272-0.502-0.589-0.772-0.644 c-0.58-0.12-0.831,0.558-2.052,0.831c-0.477,0.103-1.078,0.535-1.631,1.013C4.193,20.949,4,22.451,4,24 c0,1.843,0.27,3.619,0.736,5.313c0.701,0.121,1.348,0.23,1.348,0.23s1.852,1.358,2.842,1.231c1-0.137,0.421,1.642,0.421,1.642 s-0.569,0.684,1,1.916c0,0,1.274,2.326,0.569,2.61l-0.405,1.794c2.25,2.061,4.965,3.615,7.98,4.478 c0.634-0.82,1.225-1.612,1.225-1.612s0.431-0.684-0.421-1.106c0,0,0.421-0.673,1.273-0.673c0,0,0.863,0,0.863-0.831 c0-0.821-0.442-1.642-0.442-1.642s-0.694-0.958,0.442-1.916c1.126-0.969,4.831-3.021,4.252-5.084l-2.494,0.906 c0,0-1.337-0.642-1.621-1.19c-0.284-0.548-1.726-3.316-2.294-4c-0.537-0.642-0.358-2.494-0.4-2.684 c0.106,0.104,3.548,4.504,3.548,5.873c0,1.379,3.979-0.684,3.979-0.684s1.853-0.821,2.548-2.463c0,0-1.411-1.379-2.263-0.831 c-0.852,0.559-2.273-0.548-2.273-1.231s5.673,1.369,6.673,0.548c0,0,2.273,2.337,3.273,3.158c0,0,0.704,0.548,0.852,1.506 c0.137,0.958,0.558,1.242,0.842,0.421c0.294-0.831,0.716-1.379,0.294-2.61l1.694-2.748c0,0,0.853-1.642,1.284-0.958 c0,0,0.084,0.948-0.052,1.642c-0.112,0.483,2.357,2.623,4.122,3.795c0.092-0.372,0.181-0.743,0.252-1.123 c-0.694-0.421-1.411-1.016-1.49-1.703c-0.129-1.3,1.229-0.739,1.747-0.089C43.963,25.262,44,24.636,44,24 C44,22.772,43.873,21.575,43.661,20.409z"/><linearGradient id="A_DRsBFgOTtrTJF8zO31~c" x1="7.198" x2="28.644" y1="7.821" y2="47.14" gradientUnits="userSpaceOnUse"><stop offset="0" stop-color="#84e1fe"/><stop offset="1" stop-color="#167cf7"/></linearGradient><path fill="url(#A_DRsBFgOTtrTJF8zO31~c)" d="M25.69,37.364c0,0-0.483,0-0.483,0.622c0,0.622-1.127,0.622-1.127,0.622 s-1.13-0.156-0.804,1.4c0.03,0.139-0.274,0.333-0.321,0.467c-0.168,0.479-0.161,2.333,1.931,0.622l1.127-2.644 C26.012,38.453,26.656,38.142,25.69,37.364z"/></svg>