<svg xmlns="http://www.w3.org/2000/svg" viewBox="0 0 48 48"><path fill="#50e6ff" d="M42,20v20c0,0.552-0.448,1-1,1H30V19h11C41.552,19,42,19.448,42,20z"/><path fill="#35c1f1" d="M30,16v25H18V16c0-0.552,0.448-1,1-1h10C29.552,15,30,15.448,30,16z"/><path fill="#199be2" d="M18,23v18H7c-0.552,0-1-0.448-1-1V24c0-0.552,0.448-1,1-1H18z"/><path fill="#0078d4" d="M25,5v7.5c0,0.276-0.224,0.5-0.5,0.5h-1c-0.276,0-0.5-0.224-0.5-0.5V5H25z"/><path fill="#0078d4" d="M21.057,5.693l2.506-2.506c0.242-0.242,0.634-0.242,0.876,0l2.506,2.506	C27.056,5.806,26.976,6,26.816,6h-5.633C21.024,6,20.944,5.806,21.057,5.693z"/><path fill="#0078d4" d="M37,9v7.5c0,0.276-0.224,0.5-0.5,0.5h-1c-0.276,0-0.5-0.224-0.5-0.5V9H37z"/><path fill="#0078d4" d="M33.057,9.693l2.506-2.506c0.242-0.242,0.634-0.242,0.876,0l2.506,2.506	C39.056,9.806,38.976,10,38.816,10h-5.633C33.024,10,32.944,9.806,33.057,9.693z"/><path fill="#0078d4" d="M12,13v7.5c0,0.276-0.224,0.5-0.5,0.5h-1c-0.276,0-0.5-0.224-0.5-0.5V13H12z"/><path fill="#0078d4" d="M8.057,13.693l2.506-2.506c0.242-0.242,0.634-0.242,0.876,0l2.506,2.506	C14.056,13.806,13.976,14,13.816,14H8.184C8.024,14,7.944,13.806,8.057,13.693z"/></svg>