<svg xmlns="http://www.w3.org/2000/svg" viewBox="0 0 48 48"><radialGradient id="C2pFzb51HdsvBRz9hwLFBa" cx="12.242" cy="44.482" r="12.896" gradientTransform="matrix(.716 .3596 -.8475 1.7136 29.897 -36.052)" gradientUnits="userSpaceOnUse"><stop offset="0" stop-color="#c26715"/><stop offset=".508" stop-color="#b85515"/><stop offset="1" stop-color="#ad3f16"/></radialGradient><path fill="url(#C2pFzb51HdsvBRz9hwLFBa)" d="M10.711,39.364c1.767-3.573,1.322-7.641,0.949-9.589c-0.119-0.621-0.783-0.954-1.346-0.676	c-1.767,0.873-5.259,2.964-7.026,6.537c-1.767,3.573-1.322,7.641-0.949,9.589c0.119,0.621,0.783,0.954,1.346,0.676	C5.453,45.028,8.945,42.937,10.711,39.364z"/><radialGradient id="C2pFzb51HdsvBRz9hwLFBb" cx="47.008" cy="37.186" r="12.896" gradientTransform="matrix(-.716 .3596 .8475 1.7136 49.179 -36.052)" gradientUnits="userSpaceOnUse"><stop offset="0" stop-color="#c26715"/><stop offset=".508" stop-color="#b85515"/><stop offset="1" stop-color="#ad3f16"/></radialGradient><path fill="url(#C2pFzb51HdsvBRz9hwLFBb)" d="M37.289,39.364	c-1.767-3.573-1.322-7.641-0.949-9.589c0.119-0.621,0.783-0.954,1.346-0.676c1.767,0.873,5.259,2.964,7.026,6.537	c1.767,3.573,1.322,7.641,0.949,9.589c-0.119,0.621-0.783,0.954-1.346,0.676C42.547,45.028,39.055,42.937,37.289,39.364z"/><radialGradient id="C2pFzb51HdsvBRz9hwLFBc" cx="7.728" cy="-17.996" r="16.757" gradientTransform="matrix(-.9667 0 0 -.9667 31.47 8.47)" gradientUnits="userSpaceOnUse"><stop offset="0" stop-color="#ffcf54"/><stop offset=".261" stop-color="#fdcb4d"/><stop offset=".639" stop-color="#f7c13a"/><stop offset="1" stop-color="#f0b421"/></radialGradient><path fill="url(#C2pFzb51HdsvBRz9hwLFBc)" d="M24,7.733c6.908,0,14,2.8,14,17.733	c0,1.195,0,4.525,0,5.802C38,36.6,29.426,44,24,44s-14-7.4-14-12.731c0-1.277,0-4.607,0-5.802C10,10.533,17.092,7.733,24,7.733z"/><radialGradient id="C2pFzb51HdsvBRz9hwLFBd" cx="13.921" cy="-11.514" r="43.533" gradientTransform="matrix(1 0 0 -1 0 -8)" gradientUnits="userSpaceOnUse"><stop offset="0" stop-color="#c26715"/><stop offset=".508" stop-color="#b85515"/><stop offset="1" stop-color="#ad3f16"/></radialGradient><path fill="url(#C2pFzb51HdsvBRz9hwLFBd)" d="M24,3c-7.982,0-10,5-10,5	c-3.245,0.479-8,5-8,12c0,6.25,2.5,10,4,11.269c0-5,6-13.269,5.375-21.016C25,23,37,17,38,31c2-2,3-6.156,3-10C41,14,35.383,3,24,3z"/></svg>