<svg xmlns="http://www.w3.org/2000/svg" viewBox="0 0 48 48"><linearGradient id="4wSXO7JiqlZvxDU_29KLFa" x1="10.031" x2="38.11" y1="10.031" y2="38.11" gradientTransform="matrix(0 1 1 0 0 0)" gradientUnits="userSpaceOnUse"><stop offset="0" stop-color="#fede00"/><stop offset=".519" stop-color="#fecc00"/><stop offset="1" stop-color="#ffb700"/></linearGradient><path fill="url(#4wSXO7JiqlZvxDU_29KLFa)" d="M24,44c11.045,0,20-8.955,20-20S35.045,4,24,4S4,12.955,4,24S12.955,44,24,44z"/><circle cx="16" cy="22" r="4" fill="#fff"/><circle cx="32" cy="22" r="4" fill="#fff"/><circle cx="16" cy="22" r="2" fill="#343434"/><circle cx="32" cy="22" r="2" fill="#343434"/><path fill="#343434" d="M31,35.652c-0.235,0-0.47-0.082-0.66-0.25C28.58,33.853,26.329,33,24,33s-4.58,0.853-6.339,2.402	c-0.415,0.365-1.047,0.325-1.411-0.09c-0.365-0.414-0.325-1.046,0.09-1.411C18.464,32.03,21.185,31,24,31s5.536,1.03,7.661,2.901	c0.415,0.365,0.455,0.997,0.09,1.411C31.553,35.537,31.277,35.652,31,35.652z"/></svg>