<svg xmlns="http://www.w3.org/2000/svg" viewBox="0 0 48 48"><path fill="#64717c" d="M24,20.016c-0.552,0-0.999-0.446-1-0.998c-0.001-0.552,0.445-1.001,0.998-1.002l15-0.032	c0.001,0,0.001,0,0.002,0c0.552,0,0.999,0.446,1,0.998c0.001,0.552-0.445,1.001-0.998,1.002l-15,0.032	C24.001,20.016,24.001,20.016,24,20.016z"/><path fill="#64717c" d="M24,26.016c-0.552,0-0.999-0.446-1-0.998c-0.001-0.552,0.445-1.001,0.998-1.002l15-0.032	c0.001,0,0.001,0,0.002,0c0.552,0,0.999,0.446,1,0.998c0.001,0.552-0.445,1.001-0.998,1.002l-15,0.032	C24.001,26.016,24.001,26.016,24,26.016z"/><path fill="#64717c" d="M24,32.016c-0.552,0-0.999-0.446-1-0.998c-0.001-0.552,0.445-1.001,0.998-1.002l15-0.032	c0.001,0,0.001,0,0.002,0c0.552,0,0.999,0.446,1,0.998c0.001,0.552-0.445,1.001-0.998,1.002l-15,0.032	C24.001,32.016,24.001,32.016,24,32.016z"/><linearGradient id="lSt364~xnFqUalJ66pXiAa" x1="38" x2="44" y1="26.5" y2="26.5" gradientUnits="userSpaceOnUse"><stop offset="0" stop-color="#92a3b0"/><stop offset=".015" stop-color="#a3b5c4"/><stop offset=".032" stop-color="#aec2d1"/><stop offset=".046" stop-color="#b2c6d6"/></linearGradient><path fill="url(#lSt364~xnFqUalJ66pXiAa)" d="M39,42c-0.553,0-1-0.448-1-1V14c0-1.654,1.346-3,3-3s3,1.346,3,3c0,0.552-0.447,1-1,1	s-1-0.448-1-1c0-0.551-0.448-1-1-1s-1,0.449-1,1v27C40,41.552,39.553,42,39,42z"/><linearGradient id="lSt364~xnFqUalJ66pXiAb" x1="23" x2="29" y1="26.5" y2="26.5" gradientUnits="userSpaceOnUse"><stop offset="0" stop-color="#92a3b0"/><stop offset=".015" stop-color="#a3b5c4"/><stop offset=".032" stop-color="#aec2d1"/><stop offset=".046" stop-color="#b2c6d6"/></linearGradient><path fill="url(#lSt364~xnFqUalJ66pXiAb)" d="M24,42c-0.553,0-1-0.448-1-1V14c0-1.654,1.346-3,3-3s3,1.346,3,3c0,0.552-0.447,1-1,1	s-1-0.448-1-1c0-0.551-0.448-1-1-1s-1,0.449-1,1v27C25,41.552,24.553,42,24,42z"/><linearGradient id="lSt364~xnFqUalJ66pXiAc" x1="24" x2="24" y1="35.961" y2="43.995" gradientUnits="userSpaceOnUse"><stop offset="0" stop-color="#2aa4f4"/><stop offset="1" stop-color="#007ad9"/></linearGradient><path fill="url(#lSt364~xnFqUalJ66pXiAc)" d="M42,37c-1.657,0-3-1-3-1s-1.343,1-3,1s-3-1-3-1s-1.343,1-3,1s-3-1-3-1s-1.343,1-3,1s-3-1-3-1	s-1.343,1-3,1s-3-1-3-1s-1.343,1-3,1s-3-1-3-1s-1.343,1-3,1s-3-1-3-1v6c0,1.105,0.895,2,2,2h38c1.105,0,2-0.895,2-2v-6	C45,36,43.657,37,42,37z"/><linearGradient id="lSt364~xnFqUalJ66pXiAd" x1="5.385" x2="15.234" y1="5.385" y2="15.234" gradientUnits="userSpaceOnUse"><stop offset="0" stop-color="#fed100"/><stop offset="1" stop-color="#e36001"/></linearGradient><path fill="url(#lSt364~xnFqUalJ66pXiAd)" d="M11,5c-3.314,0-6,2.686-6,6s2.686,6,6,6s6-2.686,6-6S14.314,5,11,5z"/></svg>