<svg xmlns="http://www.w3.org/2000/svg" viewBox="0 0 48 48"><path fill="#5a63d2" d="M1,40h46v-2c0-0.552-0.448-1-1-1H2c-0.552,0-1,0.448-1,1V40z"/><linearGradient id="r9AshBSjJefHvml7rM1Zla" x1="3" x2="45" y1="35.5" y2="35.5" gradientUnits="userSpaceOnUse"><stop offset="0" stop-color="#7b83eb"/><stop offset="1" stop-color="#5961c3"/></linearGradient><path fill="url(#r9AshBSjJefHvml7rM1Zla)" d="M3,37h42v-2c0-0.552-0.448-1-1-1H4c-0.552,0-1,0.448-1,1V37z"/><linearGradient id="r9AshBSjJefHvml7rM1Zlb" x1="4" x2="44.001" y1="9.5" y2="9.5" gradientUnits="userSpaceOnUse"><stop offset="0" stop-color="#7b83eb"/><stop offset="1" stop-color="#5961c3"/></linearGradient><path fill="url(#r9AshBSjJefHvml7rM1Zlb)" d="M43.346,12.062l-19-7c-0.222-0.082-0.468-0.082-0.691,0l-19,7	C4.2,12.23,3.931,12.698,4.016,13.176C4.101,13.652,4.516,14,5,14h38c0.484,0,0.899-0.348,0.985-0.824	C44.07,12.699,43.801,12.23,43.346,12.062z"/><circle cx="24" cy="10" r="2" fill="#5961c3"/><linearGradient id="r9AshBSjJefHvml7rM1Zlc" x1="10" x2="38" y1="24" y2="24" gradientUnits="userSpaceOnUse"><stop offset="0" stop-color="#3940a4"/><stop offset="1" stop-color="#293091"/></linearGradient><rect width="28" height="20" x="10" y="14" fill="url(#r9AshBSjJefHvml7rM1Zlc)"/><rect width="4" height="16" x="27" y="16" fill="#4951b5"/><rect width="4" height="16" x="37" y="16" fill="#4951b5"/><rect width="4" height="16" x="17" y="16" fill="#4951b5"/><rect width="4" height="16" x="7" y="16" fill="#4951b5"/><path fill="#5a63d2" d="M31,32h-4c-0.552,0-1,0.448-1,1v1h6v-1C32,32.448,31.552,32,31,32z"/><path fill="#5a63d2" d="M41,32h-4c-0.552,0-1,0.448-1,1v1h6v-1C42,32.448,41.552,32,41,32z"/><path fill="#5a63d2" d="M21,32h-4c-0.552,0-1,0.448-1,1v1h6v-1C22,32.448,21.552,32,21,32z"/><path fill="#5a63d2" d="M11,32H7c-0.552,0-1,0.448-1,1v1h6v-1C12,32.448,11.552,32,11,32z"/><path fill="#5a63d2" d="M32,14h-6v1c0,0.552,0.448,1,1,1h4c0.552,0,1-0.448,1-1V14z"/><path fill="#5a63d2" d="M42,14h-6v1c0,0.552,0.448,1,1,1h4c0.552,0,1-0.448,1-1V14z"/><path fill="#5a63d2" d="M22,14h-6v1c0,0.552,0.448,1,1,1h4c0.552,0,1-0.448,1-1V14z"/><path fill="#5a63d2" d="M12,14H6v1c0,0.552,0.448,1,1,1h4c0.552,0,1-0.448,1-1V14z"/><path d="M42,40v-7H28.313C27.038,33,26,34.02,26,35.272V40H42z" opacity=".05"/><path d="M42,40v-6.5H28.313c-1,0-1.813,0.795-1.813,1.772V40H42z" opacity=".07"/><linearGradient id="r9AshBSjJefHvml7rM1Zld" x1="35.795" x2="39.733" y1="-188.915" y2="-202.97" gradientTransform="matrix(1 0 0 -1 0 -154)" gradientUnits="userSpaceOnUse"><stop offset="0" stop-color="#32bdef"/><stop offset="1" stop-color="#1ea2e4"/></linearGradient><path fill="url(#r9AshBSjJefHvml7rM1Zld)" d="M46.687,48H28.312C27.587,48,27,47.43,27,46.727V35.273C27,34.57,27.587,34,28.312,34h18.375	C47.413,34,48,34.57,48,35.273v11.455C48,47.43,47.413,48,46.687,48z"/><linearGradient id="r9AshBSjJefHvml7rM1Zle" x1="27" x2="48" y1="-191.5" y2="-191.5" gradientTransform="matrix(1 0 0 -1 0 -154)" gradientUnits="userSpaceOnUse"><stop offset="0" stop-color="#323538"/><stop offset="1" stop-color="#6d7479"/></linearGradient><rect width="21" height="3" x="27" y="36" fill="url(#r9AshBSjJefHvml7rM1Zle)"/></svg>