<svg xmlns="http://www.w3.org/2000/svg" data-name="Слой 1" viewBox="0 0 48 48"><defs><linearGradient id="uuEXSfGyYn463jEPyQTXQa" x1="4.772" x2="26.249" y1="-8.08" y2="50.928" data-name="Безымянный градиент 134" gradientUnits="userSpaceOnUse"><stop offset="0" stop-color="#889097"/><stop offset="1" stop-color="#4c5963"/></linearGradient><linearGradient id="uuEXSfGyYn463jEPyQTXQb" x1="14.265" x2="35.787" y1="-11.647" y2="47.483" data-name="Безымянный градиент 147" gradientUnits="userSpaceOnUse"><stop offset="0" stop-color="#dfe9f2"/><stop offset=".391" stop-color="#d6e0e9"/><stop offset="1" stop-color="#bfc8d1"/></linearGradient></defs><path fill="url(#uuEXSfGyYn463jEPyQTXQa)" d="M30.77172,44H18.75a.69861.69861,0,0,1-.60136-1.06275A12.43531,12.43531,0,0,1,23,39a25.90638,25.90638,0,0,1-12.80937-7.88126A.70074.70074,0,0,1,10.75,30H14A31.08672,31.08672,0,0,1,7,10.43993V2.69309S30.77172,24.42329,30.77172,44Z"/><path fill="url(#uuEXSfGyYn463jEPyQTXQb)" d="M33,44H29.84885a7.6517,7.6517,0,0,1-3.27214-6.29251,5.68283,5.68283,0,0,1,.042-.69917h-.042a5.56612,5.56612,0,0,1-4.86619-8.306C14.06158,22.913,7,7.23769,7,2.69309a.69634.69634,0,0,1,1.10465-.5592L40.14154,24.40327A2,2,0,0,1,41,26.04549V36A8,8,0,0,1,33,44Z"/></svg>