<svg xmlns="http://www.w3.org/2000/svg" id="Layer_1" x="0" y="0" version="1.1" viewBox="0 0 48 48" xml:space="preserve"><linearGradient id="SVGID_1_" x1="-121.969" x2="-93.89" y1="247.969" y2="219.89" gradientTransform="rotate(90 63 195)" gradientUnits="userSpaceOnUse"><stop offset="0" stop-color="#fede00"/><stop offset=".519" stop-color="#fecc00"/><stop offset="1" stop-color="#ffb700"/></linearGradient><path fill="url(#SVGID_1_)" d="M24,44c11,0,20-9,20-20S35,4,24,4S4,13,4,24S13,44,24,44z"/><circle cx="16" cy="22" r="4" fill="#fff"/><circle cx="32" cy="22" r="4" fill="#fff"/><circle cx="16" cy="22" r="2" fill="#343434"/><circle cx="17" cy="21" r="1" fill="#fff"/><circle cx="32" cy="22" r="2" fill="#343434"/><path fill="#343434" d="M31.8,31.7c0.4,0.4,0.3,1-0.1,1.4C29.5,35,26.8,36,24,36s-5.5-1-7.7-2.9c-0.4-0.4-0.5-1-0.1-1.4	c0.4-0.4,1-0.5,1.4-0.1c1.8,1.5,4,2.4,6.3,2.4s4.6-0.9,6.3-2.4c0.2-0.2,0.4-0.3,0.7-0.3C31.3,31.3,31.6,31.5,31.8,31.7z"/><circle cx="33" cy="21" r="1" fill="#fff"/></svg>