<svg xmlns="http://www.w3.org/2000/svg" viewBox="0 0 48 48"><linearGradient id="hQDdCLp72~G_lrHSbyV0qa" x1="20.659" x2="27.566" y1="3.152" y2="46.257" gradientUnits="userSpaceOnUse"><stop offset="0" stop-color="#fede00"/><stop offset="1" stop-color="#ffd000"/></linearGradient><path fill="url(#hQDdCLp72~G_lrHSbyV0qa)" d="M22.583,45.413L2.587,25.417c-0.783-0.783-0.783-2.051,0-2.834L22.583,2.587	c0.783-0.783,2.051-0.783,2.834,0l19.996,19.996c0.783,0.783,0.783,2.051,0,2.834L25.417,45.413	C24.634,46.196,23.366,46.196,22.583,45.413z"/><linearGradient id="hQDdCLp72~G_lrHSbyV0qb" x1="17" x2="17" y1="23.951" y2="29.576" gradientUnits="userSpaceOnUse"><stop offset="0" stop-color="#252525"/><stop offset=".578" stop-color="#393939"/></linearGradient><path fill="url(#hQDdCLp72~G_lrHSbyV0qb)" d="M15,24v8.414c0,0.526,0.662,0.758,0.991,0.348l2.708-3.385C18.894,29.133,19,28.83,19,28.518	V24H15z"/><path fill="#4b4b4b" d="M30.379,27.761l4.701-4.701c0.586-0.586,0.586-1.535,0-2.121l-4.701-4.7	C29.87,15.73,29,16.091,29,16.81V20h-9.172c-0.53,0-1.039,0.211-1.414,0.586L15,24h14v3.19C29,27.91,29.87,28.27,30.379,27.761z"/></svg>