<svg xmlns="http://www.w3.org/2000/svg" xmlns:xlink="http://www.w3.org/1999/xlink" data-name="Слой 1" viewBox="0 0 48 48"><defs><linearGradient id="tLB0ZlYE6B_mPc3sLbDQXb" x1="24" x2="24" y1="45.707" y2="28.39" data-name="Безымянный градиент 129" gradientUnits="userSpaceOnUse"><stop offset="0" stop-color="#ffd869"/><stop offset="1" stop-color="#fec52b"/></linearGradient><linearGradient id="tLB0ZlYE6B_mPc3sLbDQXa" x1="12.041" x2="32.487" y1="-6.679" y2="49.495" data-name="Новый образец градиентной зал 2" gradientUnits="userSpaceOnUse"><stop offset="0" stop-color="#2aa4f4"/><stop offset="1" stop-color="#007ad9"/></linearGradient><linearGradient id="tLB0ZlYE6B_mPc3sLbDQXc" x1="18.488" x2="36.156" y1="-2.321" y2="46.221" xlink:href="#tLB0ZlYE6B_mPc3sLbDQXa"/></defs><path fill="url(#tLB0ZlYE6B_mPc3sLbDQXb)" d="M27,44V21h4V44a2,2,0,0,1-2,2h0A2,2,0,0,1,27,44ZM17,44V21h4V44a2,2,0,0,1-2,2h0A2,2,0,0,1,17,44Z"/><polygon fill="#0370c8" points="13 25 15 24 15 23 13 22 15 21 33 21 35 22 33 23 33 24 35 25 33 25.75 15 26 13 25"/><path fill="url(#tLB0ZlYE6B_mPc3sLbDQXa)" d="M13,25H35a0,0,0,0,1,0,0v2a2,2,0,0,1-2,2H15a2,2,0,0,1-2-2V25A0,0,0,0,1,13,25Z"/><path fill="url(#tLB0ZlYE6B_mPc3sLbDQXc)" d="M15,2H33a2,2,0,0,1,2,2V22a0,0,0,0,1,0,0H13a0,0,0,0,1,0,0V4A2,2,0,0,1,15,2Z"/><rect width="4" height="1" x="17" y="29" opacity=".05"/><rect width="4" height=".5" x="17" y="29" opacity=".07"/><g><rect width="4" height="1" x="27" y="29" opacity=".05"/><rect width="4" height=".5" x="27" y="29" opacity=".07"/></g></svg>