<svg xmlns="http://www.w3.org/2000/svg" viewBox="0 0 48 48"><linearGradient id="FLBgXvqwUTnF0KtXZylrUa" x1="20.469" x2="20.469" y1="48.206" y2="35.205" gradientUnits="userSpaceOnUse"><stop offset="0" stop-color="#ffcf54"/><stop offset=".261" stop-color="#fdcb4d"/><stop offset=".639" stop-color="#f7c13a"/><stop offset="1" stop-color="#f0b421"/></linearGradient><path fill="url(#FLBgXvqwUTnF0KtXZylrUa)" d="M19,45c-0.552,0-1-0.447-1-1c0-1.266,0.982-2.474,2.186-2.867l0.723-2.89	c0.04-0.159,0.04-0.327,0-0.486l-0.879-3.515c-0.134-0.535,0.192-1.078,0.728-1.212s1.079,0.19,1.213,0.728l0.879,3.515	c0.119,0.476,0.119,0.979,0,1.455l-0.879,3.515C21.859,42.688,21.459,43,21,43c-0.449,0-1,0.552-1,1C20,44.553,19.552,45,19,45z"/><linearGradient id="FLBgXvqwUTnF0KtXZylrUb" x1="27.531" x2="27.531" y1="48.206" y2="35.205" gradientUnits="userSpaceOnUse"><stop offset="0" stop-color="#ffcf54"/><stop offset=".261" stop-color="#fdcb4d"/><stop offset=".639" stop-color="#f7c13a"/><stop offset="1" stop-color="#f0b421"/></linearGradient><path fill="url(#FLBgXvqwUTnF0KtXZylrUb)" d="M29,45c-0.552,0-1-0.447-1-1c0-0.448-0.551-1-1-1c-0.459,0-0.859-0.313-0.97-0.758	l-0.879-3.515c-0.119-0.476-0.119-0.979,0-1.455l0.879-3.515c0.135-0.537,0.678-0.861,1.213-0.728	c0.536,0.134,0.861,0.677,0.728,1.212l-0.879,3.515c-0.04,0.159-0.04,0.327,0,0.486l0.723,2.89C29.018,41.526,30,42.734,30,44	C30,44.553,29.552,45,29,45z"/><path fill="#185c37" d="M8.189,22.88c-2.626,0.853-4.064,3.674-3.21,6.3s3.674,4.064,6.3,3.21C13.906,31.537,24,23,24,23	S10.815,22.027,8.189,22.88z"/><path fill="#185c37" d="M36.721,32.391c2.626,0.853,5.447-0.584,6.3-3.21c0.853-2.626-0.584-5.447-3.21-6.3S24,23,24,23	S34.094,31.537,36.721,32.391z"/><path fill="#107c41" d="M11.279,13.609c-2.626-0.853-5.447,0.584-6.3,3.21s0.584,5.447,3.21,6.3S24,23,24,23	S13.906,14.463,11.279,13.609z"/><path fill="#107c41" d="M39.811,23.12c2.626-0.853,4.064-3.674,3.21-6.3c-0.853-2.626-3.674-4.064-6.3-3.21S24,23,24,23	S37.185,23.973,39.811,23.12z"/><path fill="#21a366" d="M19.228,7.926c-1.623-2.234-4.75-2.729-6.984-1.106s-2.729,4.75-1.106,6.984S24,23,24,23	S20.851,10.16,19.228,7.926z"/><path fill="#21a366" d="M36.862,13.804c1.623-2.234,1.128-5.361-1.106-6.984c-2.234-1.623-5.361-1.128-6.984,1.106	C27.149,10.16,24,23,24,23S35.239,16.038,36.862,13.804z"/><path fill="#33c481" d="M29,8c0-2.761-2.239-5-5-5s-5,2.239-5,5s5,15,5,15S29,10.761,29,8z"/><linearGradient id="FLBgXvqwUTnF0KtXZylrUc" x1="24" x2="24" y1="13.647" y2="38.669" gradientUnits="userSpaceOnUse"><stop offset="0" stop-color="#199ae0"/><stop offset="1" stop-color="#0782d8"/></linearGradient><path fill="url(#FLBgXvqwUTnF0KtXZylrUc)" d="M32,32.667C32,29.077,28.418,24,24,24s-8,5.077-8,8.667S19.582,37,24,37S32,36.257,32,32.667z"/><linearGradient id="FLBgXvqwUTnF0KtXZylrUd" x1="24" x2="24" y1="3.471" y2="32.423" gradientUnits="userSpaceOnUse"><stop offset="0" stop-color="#ffcf54"/><stop offset=".261" stop-color="#fdcb4d"/><stop offset=".639" stop-color="#f7c13a"/><stop offset="1" stop-color="#f0b421"/></linearGradient><circle cx="24" cy="7" r="2" fill="url(#FLBgXvqwUTnF0KtXZylrUd)"/><linearGradient id="FLBgXvqwUTnF0KtXZylrUe" x1="15" x2="15" y1="3.471" y2="32.423" gradientUnits="userSpaceOnUse"><stop offset="0" stop-color="#ffcf54"/><stop offset=".261" stop-color="#fdcb4d"/><stop offset=".639" stop-color="#f7c13a"/><stop offset="1" stop-color="#f0b421"/></linearGradient><circle cx="15" cy="10" r="2" fill="url(#FLBgXvqwUTnF0KtXZylrUe)"/><linearGradient id="FLBgXvqwUTnF0KtXZylrUf" x1="9" x2="9" y1="3.471" y2="32.423" gradientUnits="userSpaceOnUse"><stop offset="0" stop-color="#ffcf54"/><stop offset=".261" stop-color="#fdcb4d"/><stop offset=".639" stop-color="#f7c13a"/><stop offset="1" stop-color="#f0b421"/></linearGradient><circle cx="9" cy="18.25" r="2" fill="url(#FLBgXvqwUTnF0KtXZylrUf)"/><linearGradient id="FLBgXvqwUTnF0KtXZylrUg" x1="9" x2="9" y1="3.471" y2="32.423" gradientUnits="userSpaceOnUse"><stop offset="0" stop-color="#ffcf54"/><stop offset=".261" stop-color="#fdcb4d"/><stop offset=".639" stop-color="#f7c13a"/><stop offset="1" stop-color="#f0b421"/></linearGradient><circle cx="9" cy="28" r="2" fill="url(#FLBgXvqwUTnF0KtXZylrUg)"/><linearGradient id="FLBgXvqwUTnF0KtXZylrUh" x1="39" x2="39" y1="3.471" y2="32.423" gradientUnits="userSpaceOnUse"><stop offset="0" stop-color="#ffcf54"/><stop offset=".261" stop-color="#fdcb4d"/><stop offset=".639" stop-color="#f7c13a"/><stop offset="1" stop-color="#f0b421"/></linearGradient><circle cx="39" cy="28" r="2" fill="url(#FLBgXvqwUTnF0KtXZylrUh)"/><linearGradient id="FLBgXvqwUTnF0KtXZylrUi" x1="39" x2="39" y1="3.471" y2="32.423" gradientUnits="userSpaceOnUse"><stop offset="0" stop-color="#ffcf54"/><stop offset=".261" stop-color="#fdcb4d"/><stop offset=".639" stop-color="#f7c13a"/><stop offset="1" stop-color="#f0b421"/></linearGradient><circle cx="39" cy="18.25" r="2" fill="url(#FLBgXvqwUTnF0KtXZylrUi)"/><linearGradient id="FLBgXvqwUTnF0KtXZylrUj" x1="14.853" x2="19.323" y1="15.75" y2="15.75" gradientUnits="userSpaceOnUse"><stop offset="0" stop-color="#ffcf54"/><stop offset=".261" stop-color="#fdcb4d"/><stop offset=".639" stop-color="#f7c13a"/><stop offset="1" stop-color="#f0b421"/></linearGradient><path fill="url(#FLBgXvqwUTnF0KtXZylrUj)" d="M15.427,15.265L20,14.25v3l-4.573-1.015C14.858,16.109,14.858,15.391,15.427,15.265z"/><linearGradient id="FLBgXvqwUTnF0KtXZylrUk" x1="33" x2="33" y1="3.471" y2="32.423" gradientUnits="userSpaceOnUse"><stop offset="0" stop-color="#ffcf54"/><stop offset=".261" stop-color="#fdcb4d"/><stop offset=".639" stop-color="#f7c13a"/><stop offset="1" stop-color="#f0b421"/></linearGradient><circle cx="33" cy="10" r="2" fill="url(#FLBgXvqwUTnF0KtXZylrUk)"/><linearGradient id="FLBgXvqwUTnF0KtXZylrUl" x1="22.5" x2="22.5" y1="13.647" y2="38.669" gradientUnits="userSpaceOnUse"><stop offset="0" stop-color="#199ae0"/><stop offset="1" stop-color="#0782d8"/></linearGradient><path fill="url(#FLBgXvqwUTnF0KtXZylrUl)" d="M22.5,11.75c-1.933,0-3.5,1.567-3.5,3.5s1.567,3.5,3.5,3.5l-1.5,6l5,1v-10.5	C26,13.317,24.433,11.75,22.5,11.75z"/><linearGradient id="FLBgXvqwUTnF0KtXZylrUm" x1="22" x2="22" y1="10.882" y2="15.162" gradientUnits="userSpaceOnUse"><stop offset="0" stop-color="#6d7479"/><stop offset=".425" stop-color="#565c60"/><stop offset="1" stop-color="#323538"/></linearGradient><circle cx="22" cy="14.75" r="1" fill="url(#FLBgXvqwUTnF0KtXZylrUm)"/><path d="M27,23.68v-8.43c0-2.48-2.02-4.5-4.5-4.5c-1.87,0-3.51,1.14-4.18,2.85l-3.11,0.69C14.5,14.45,14,15.05,14,15.75 s0.5,1.3,1.21,1.46l3.77,0.84c0.59,0.74,1.39,1.27,2.28,1.53l-1.14,4.57c-2.01,1.22-3.69,3.33-4.53,5.55 c0.26-0.2,0.53-0.4,0.8-0.6c0.32-0.24,0.65-0.48,0.97-0.73c0.89-1.48,2.18-2.82,3.7-3.61L21,24.75l1.5-6 c-1.23,0-2.31-0.64-2.93-1.6l-4.14-0.91c-0.57-0.13-0.57-0.85,0-0.98l3.67-0.81c0.36-1.55,1.74-2.7,3.4-2.7 c1.93,0,3.5,1.57,3.5,3.5v9.11c1.92,0.67,3.56,2.23,4.63,4c0.32,0.24,0.63,0.48,0.95,0.72c0.27,0.21,0.55,0.41,0.82,0.61 C31.48,27.26,29.55,24.83,27,23.68z" opacity=".05"/><path d="M26.5,24.01v-8.76c0-2.21-1.79-4-4-4c-1.75,0-3.27,1.13-3.8,2.78l-3.38,0.75c-0.49,0.11-0.82,0.5-0.82,0.97 c0,0.47,0.33,0.86,0.82,0.97l3.95,0.88c0.63,0.87,1.56,1.44,2.6,1.6l-1.32,5.27c-1.76,1.01-3.27,2.74-4.16,4.63 c0.32-0.24,0.65-0.48,0.97-0.73c0.89-1.48,2.18-2.82,3.7-3.61L21,24.75l1.5-6c-1.23,0-2.31-0.64-2.93-1.6l-4.14-0.91 c-0.57-0.13-0.57-0.85,0-0.98l3.67-0.81c0.36-1.55,1.74-2.7,3.4-2.7c1.93,0,3.5,1.57,3.5,3.5v9.11c1.92,0.67,3.56,2.23,4.63,4 c0.32,0.24,0.63,0.48,0.95,0.72C30.56,26.95,28.75,24.93,26.5,24.01z" opacity=".07"/></svg>