<svg xmlns="http://www.w3.org/2000/svg" viewBox="0 0 48 48"><linearGradient id="6VQqqCzoqWNhAAr4mA5jta" x1="8.514" x2="39.323" y1="4.665" y2="43.133" gradientUnits="userSpaceOnUse"><stop offset="0" stop-color="#5961c3"/><stop offset="1" stop-color="#3a41ac"/></linearGradient><path fill="url(#6VQqqCzoqWNhAAr4mA5jta)" d="M37,8c1.7,0,3,1.3,3,3v26c0,1.7-1.3,3-3,3H11c-1.7,0-3-1.3-3-3V11c0-1.7,1.3-3,3-3H37 M37,6	H11c-2.8,0-5,2.2-5,5v26c0,2.8,2.2,5,5,5h26c2.8,0,5-2.2,5-5V11C42,8.2,39.8,6,37,6L37,6z"/><path d="M11,41c-2.243,0-4-1.757-4-4V11c0-2.243,1.757-4,4-4h26c2.243,0,4,1.757,4,4v26c0,2.243-1.757,4-4,4	H11z" opacity=".05"/><path d="M11,40.5c-1.963,0-3.5-1.537-3.5-3.5V11c0-1.963,1.537-3.5,3.5-3.5h26c1.963,0,3.5,1.537,3.5,3.5v26	c0,1.963-1.537,3.5-3.5,3.5H11z" opacity=".07"/><linearGradient id="6VQqqCzoqWNhAAr4mA5jtb" x1="7.666" x2="41.943" y1="5.567" y2="44.248" gradientUnits="userSpaceOnUse"><stop offset="0" stop-color="#fafafb"/><stop offset="1" stop-color="#c8cdd1"/></linearGradient><path fill="url(#6VQqqCzoqWNhAAr4mA5jtb)" d="M37,8H11c-1.7,0-3,1.3-3,3v26c0,1.7,1.3,3,3,3h26c1.7,0,3-1.3,3-3V11C40,9.3,38.7,8,37,8z"/><linearGradient id="6VQqqCzoqWNhAAr4mA5jtc" x1="18.673" x2="34.077" y1="10.626" y2="30.243" gradientUnits="userSpaceOnUse"><stop offset="0" stop-color="#5961c3"/><stop offset="1" stop-color="#3a41ac"/></linearGradient><circle cx="22.5" cy="15.5" r="2.5" fill="url(#6VQqqCzoqWNhAAr4mA5jtc)"/><linearGradient id="6VQqqCzoqWNhAAr4mA5jtd" x1="23.555" x2="38.959" y1="6.793" y2="26.41" gradientUnits="userSpaceOnUse"><stop offset="0" stop-color="#5961c3"/><stop offset="1" stop-color="#3a41ac"/></linearGradient><circle cx="30" cy="15" r="3" fill="url(#6VQqqCzoqWNhAAr4mA5jtd)"/><linearGradient id="6VQqqCzoqWNhAAr4mA5jte" x1="14.409" x2="29.814" y1="13.974" y2="33.591" gradientUnits="userSpaceOnUse"><stop offset="0" stop-color="#5961c3"/><stop offset="1" stop-color="#3a41ac"/></linearGradient><circle cx="16" cy="16" r="2" fill="url(#6VQqqCzoqWNhAAr4mA5jte)"/><linearGradient id="6VQqqCzoqWNhAAr4mA5jtf" x1="13.949" x2="29.228" y1="14.39" y2="33.847" gradientUnits="userSpaceOnUse"><stop offset="0" stop-color="#5961c3"/><stop offset="1" stop-color="#3a41ac"/></linearGradient><path fill="url(#6VQqqCzoqWNhAAr4mA5jtf)" d="M30.011,22.024c-1.306-0.124-2.541,0.233-3.548,0.911C25.774,21.785,24.486,21,23,21 c-1.305,0-2.458,0.606-3.189,1.531C19.347,21.008,18.029,19.9,16.5,19.9c-1.9,0-3.5,1.7-3.5,3.8v4.8c0,0.276,0.224,0.5,0.5,0.5H19 v2.5c0,0.276,0.224,0.5,0.5,0.5H24v3.5c0,0.276,0.224,0.5,0.5,0.5h10c0.276,0,0.5-0.224,0.5-0.5l0-7.74 C35,24.872,32.887,22.297,30.011,22.024z"/></svg>