<svg xmlns="http://www.w3.org/2000/svg" viewBox="0 0 48 48"><linearGradient id="2WEI1DZaCZhG2NYX4Ueyoa" x1="8.828" x2="39.797" y1="463.137" y2="494.092" gradientTransform="translate(0 -451.89)" gradientUnits="userSpaceOnUse"><stop offset="0" stop-color="#28afea"/><stop offset="1" stop-color="#047ed6"/></linearGradient><path fill="url(#2WEI1DZaCZhG2NYX4Ueyoa)" d="M6,40V12h36v28c0,1.1-0.9,2-2,2H8C6.9,42,6,41.1,6,40z"/><path d="M25.646,26.491L23,23.746l0,0L19.581,20.2 c-0.426-0.443-1.069-0.579-1.642-0.352C17.369,20.078,17,20.625,17,21.24V23H7h2.5C8.673,23,8,23.673,8,24.5v6 C8,31.327,8.673,32,9.5,32H7h10v1.761c0,0.615,0.369,1.162,0.94,1.392c0.181,0.072,0.37,0.109,0.562,0.109 c0.402,0,0.796-0.168,1.079-0.461L23,31.255l0,0l2.646-2.745C26.19,27.943,26.19,27.058,25.646,26.491z" opacity=".05"/><path d="M25.286,26.838l-6.065-6.291c-0.285-0.296-0.718-0.385-1.095-0.234 C17.745,20.466,17.5,20.83,17.5,21.24v2.26H7h2.5c-0.552,0-1,0.448-1,1v6c0,0.552,0.448,1,1,1H7h10.5v2.261 c0,0.41,0.245,0.774,0.626,0.928c0.122,0.049,0.249,0.073,0.376,0.073c0.266,0,0.525-0.107,0.719-0.308l6.065-6.291 C25.644,27.791,25.644,27.21,25.286,26.838z" opacity=".07"/><path fill="#50e6ff" d="M18,21.24V24H9.5C9.224,24,9,24.224,9,24.5v6C9,30.776,9.224,31,9.5,31H18v2.761 c0,0.45,0.548,0.671,0.86,0.347l6.066-6.291c0.17-0.176,0.17-0.455,0-0.632l-6.066-6.291C18.548,20.569,18,20.79,18,21.24z"/><linearGradient id="2WEI1DZaCZhG2NYX4Ueyob" x1="6.42" x2="41.198" y1="458.498" y2="465.57" gradientTransform="translate(0 -451.89)" gradientUnits="userSpaceOnUse"><stop offset="0" stop-color="#0077d2"/><stop offset="1" stop-color="#0b59a2"/></linearGradient><path fill="url(#2WEI1DZaCZhG2NYX4Ueyob)" d="M42,8v6H6V8c0-1.1,0.9-2,2-2h32C41.1,6,42,6.9,42,8z"/><path d="M35.5,12.5L35.5,12.5c-1.657,0-3-1.343-3-3V6h6v3.5 C38.5,11.157,37.157,12.5,35.5,12.5z" opacity=".05"/><path d="M35.5,11.75L35.5,11.75c-1.243,0-2.25-1.007-2.25-2.25V6h4.5v3.5 C37.75,10.743,36.743,11.75,35.5,11.75z" opacity=".07"/><path d="M12.5,12.5L12.5,12.5c-1.657,0-3-1.343-3-3V6h6v3.5 C15.5,11.157,14.157,12.5,12.5,12.5z" opacity=".05"/><path d="M12.5,11.75L12.5,11.75c-1.243,0-2.25-1.007-2.25-2.25V6h4.5v3.5 C14.75,10.743,13.743,11.75,12.5,11.75z" opacity=".07"/><path fill="#3ccbf4" d="M12.5,11L12.5,11c-0.828,0-1.5-0.672-1.5-1.5v-4C11,4.672,11.672,4,12.5,4l0,0 C13.328,4,14,4.672,14,5.5v4C14,10.328,13.328,11,12.5,11z"/><path fill="#3ccbf4" d="M35.5,11L35.5,11c-0.828,0-1.5-0.672-1.5-1.5v-4C34,4.672,34.672,4,35.5,4l0,0 C36.328,4,37,4.672,37,5.5v4C37,10.328,36.328,11,35.5,11z"/></svg>