<svg xmlns="http://www.w3.org/2000/svg" viewBox="0 0 48 48"><linearGradient id="zI5~V7kqQWqczEwQDvqzya" x1="9.009" x2="38.092" y1="519.64" y2="480.734" gradientTransform="matrix(1 0 0 -1 0 526)" gradientUnits="userSpaceOnUse"><stop offset="0" stop-color="#ffda1c"/><stop offset="1" stop-color="#feb705"/></linearGradient><path fill="url(#zI5~V7kqQWqczEwQDvqzya)" d="M24.913,5.186l5.478,12.288l13.378,1.413c0.861,0.091,1.207,1.158,0.564,1.737l-9.993,9.005	l2.791,13.161c0.18,0.847-0.728,1.506-1.478,1.074L24,37.141l-11.653,6.722c-0.75,0.432-1.657-0.227-1.478-1.074l2.791-13.161	l-9.993-9.005c-0.643-0.579-0.296-1.646,0.564-1.737l13.378-1.413l5.478-12.288C23.439,4.395,24.561,4.395,24.913,5.186z"/><radialGradient id="zI5~V7kqQWqczEwQDvqzyb" cx="20.375" cy="20.637" r="23.105" gradientUnits="userSpaceOnUse"><stop offset="0" stop-color="#fafafb"/><stop offset=".293" stop-color="#f6f7f8"/><stop offset=".566" stop-color="#ebecee"/><stop offset=".832" stop-color="#d8dcdf"/><stop offset="1" stop-color="#c8cdd1"/></radialGradient><path fill="url(#zI5~V7kqQWqczEwQDvqzyb)" d="M43.769,18.887l-13.378-1.413L24.913,5.186C24.737,4.79,24.368,4.593,24,4.593v32.548	l11.653,6.723c0.75,0.432,1.658-0.227,1.478-1.074L34.34,29.629l9.993-9.005C44.976,20.045,44.63,18.978,43.769,18.887z"/></svg>