<svg xmlns="http://www.w3.org/2000/svg" viewBox="0 0 48 48"><linearGradient id="Edr7VSplv-ClkReZgIdxza" x1="16.276" x2="31.762" y1="5.605" y2="42.486" gradientUnits="userSpaceOnUse"><stop offset=".008" stop-color="#f44f5a"/><stop offset=".447" stop-color="#ee3d4a"/><stop offset="1" stop-color="#e52030"/></linearGradient><path fill="url(#Edr7VSplv-ClkReZgIdxza)" d="M44,24c0-4.509-1.51-8.655-4.027-12H8.027C5.51,15.345,4,19.491,4,24s1.51,8.655,4.027,12	h31.946C42.49,32.655,44,28.509,44,24z"/><linearGradient id="Edr7VSplv-ClkReZgIdxzb" x1="20.23" x2="29.623" y1="13.18" y2="40.133" gradientUnits="userSpaceOnUse"><stop offset="0" stop-color="#0d61a9"/><stop offset="1" stop-color="#16528c"/></linearGradient><path fill="url(#Edr7VSplv-ClkReZgIdxzb)" d="M24,4c-5.592,0-10.642,2.301-14.271,6h28.543C34.642,6.301,29.592,4,24,4z M38.271,38H9.729	c3.629,3.699,8.679,6,14.271,6S34.642,41.699,38.271,38z"/><linearGradient id="Edr7VSplv-ClkReZgIdxzc" x1="22.406" x2="32.499" y1="19.212" y2="49.523" gradientUnits="userSpaceOnUse"><stop offset="0" stop-color="#dfe9f2"/><stop offset=".998" stop-color="#9ea7b0"/></linearGradient><path fill="url(#Edr7VSplv-ClkReZgIdxzc)" d="M38.271,10H9.729c-0.613,0.625-1.174,1.299-1.701,2h31.946	C39.445,11.299,38.885,10.625,38.271,10z M39.973,36H8.027c0.528,0.701,1.088,1.375,1.701,2h28.543	C38.885,37.375,39.445,36.701,39.973,36z M33.333,24c0,5.156-4.177,9.333-9.333,9.333S14.667,29.156,14.667,24	s4.177-9.333,9.333-9.333S33.333,18.844,33.333,24z"/><linearGradient id="Edr7VSplv-ClkReZgIdxzd" x1="17.786" x2="30.963" y1="8.203" y2="38.486" gradientUnits="userSpaceOnUse"><stop offset=".008" stop-color="#f44f5a"/><stop offset=".447" stop-color="#ee3d4a"/><stop offset="1" stop-color="#e52030"/></linearGradient><path fill="url(#Edr7VSplv-ClkReZgIdxzd)" d="M27.286,25.068l5.312-3.865H26.03L24,14.958l-2.031,6.245h-6.568l5.312,3.865l-2.026,6.245	L24,27.453l5.312,3.859L27.286,25.068z"/></svg>