<svg xmlns="http://www.w3.org/2000/svg" viewBox="0 0 48 48"><linearGradient id="wkz~THywd3PNM5OIwAuY~a" x1="24" x2="24" y1="43.05" y2="37.006" gradientUnits="userSpaceOnUse"><stop offset="0" stop-color="#0d61a9"/><stop offset="1" stop-color="#16528c"/></linearGradient><path fill="url(#wkz~THywd3PNM5OIwAuY~a)" d="M42,37H6c-1.657,0-3,1.343-3,3s1.343,3,3,3h36c1.657,0,3-1.343,3-3S43.657,37,42,37z"/><path fill="#50e6ff" d="M37,5c0,0.552-0.448,1-1,1s-1-0.448-1-1h-2c0,0.552-0.448,1-1,1s-1-0.448-1-1h-2c0,0.552-0.448,1-1,1	s-1-0.448-1-1h-2c0,0.552-0.448,1-1,1s-1-0.448-1-1h-2c0,0.552-0.448,1-1,1s-1-0.448-1-1h-2c0,0.552-0.448,1-1,1s-1-0.448-1-1h-2	c0,0.552-0.448,1-1,1s-1-0.448-1-1h-1C9.448,5,9,5.448,9,6v34h30V6c0-0.552-0.448-1-1-1H37z"/><path fill="#057093" d="M34.5,13h-21c-0.276,0-0.5-0.224-0.5-0.5v-2c0-0.276,0.224-0.5,0.5-0.5h21c0.276,0,0.5,0.224,0.5,0.5	v2C35,12.776,34.776,13,34.5,13z"/><path fill="#057093" d="M34.5,20h-2c-0.276,0-0.5-0.224-0.5-0.5v-1c0-0.276,0.224-0.5,0.5-0.5h2c0.276,0,0.5,0.224,0.5,0.5v1	C35,19.776,34.776,20,34.5,20z"/><path fill="#057093" d="M26.5,20h-13c-0.276,0-0.5-0.224-0.5-0.5v-1c0-0.276,0.224-0.5,0.5-0.5h13c0.276,0,0.5,0.224,0.5,0.5	v1C27,19.776,26.776,20,26.5,20z"/><path fill="#057093" d="M34.5,24h-2c-0.276,0-0.5-0.224-0.5-0.5v-1c0-0.276,0.224-0.5,0.5-0.5h2c0.276,0,0.5,0.224,0.5,0.5v1	C35,23.776,34.776,24,34.5,24z"/><path fill="#057093" d="M23.5,24h-10c-0.276,0-0.5-0.224-0.5-0.5v-1c0-0.276,0.224-0.5,0.5-0.5h10c0.276,0,0.5,0.224,0.5,0.5	v1C24,23.776,23.776,24,23.5,24z"/><path fill="#057093" d="M34.5,28h-2c-0.276,0-0.5-0.224-0.5-0.5v-1c0-0.276,0.224-0.5,0.5-0.5h2c0.276,0,0.5,0.224,0.5,0.5v1	C35,27.776,34.776,28,34.5,28z"/><path fill="#057093" d="M26.5,28h-13c-0.276,0-0.5-0.224-0.5-0.5v-1c0-0.276,0.224-0.5,0.5-0.5h13c0.276,0,0.5,0.224,0.5,0.5	v1C27,27.776,26.776,28,26.5,28z"/><path fill="#057093" d="M34.5,34h-4c-0.276,0-0.5-0.224-0.5-0.5v-1c0-0.276,0.224-0.5,0.5-0.5h4c0.276,0,0.5,0.224,0.5,0.5v1	C35,33.776,34.776,34,34.5,34z"/><path fill="#057093" d="M26.5,34h-9c-0.276,0-0.5-0.224-0.5-0.5v-1c0-0.276,0.224-0.5,0.5-0.5h9c0.276,0,0.5,0.224,0.5,0.5v1	C27,33.776,26.776,34,26.5,34z"/><rect width="30" height="3" x="9" y="40" fill="#35c1f1"/></svg>