<svg xmlns="http://www.w3.org/2000/svg" viewBox="0 0 48 48"><linearGradient id="_PL6xhi50sjqooJ1TLDRca" x1=".663" x2="43.556" y1=".987" y2="43.285" gradientUnits="userSpaceOnUse"><stop offset="0" stop-color="#6e6e6e"/><stop offset=".999" stop-color="#4d4d4d"/></linearGradient><path fill="url(#_PL6xhi50sjqooJ1TLDRca)" d="M42,40c0,1.105-0.895,2-2,2H8c-1.105,0-2-0.895-2-2V8c0-1.105,0.895-2,2-2h32	c1.105,0,2,0.895,2,2V40z"/><path d="M12.609,31c-0.581,0-1.082-0.272-1.376-0.747c-0.295-0.477-0.31-1.075-0.039-1.601l4.036-7.078	l-2.45-4.203c-0.303-0.581-0.302-1.172-0.01-1.645C13.049,15.267,13.56,15,14.169,15h4.039c0.853,0,1.524,0.426,1.995,1.266	l3.058,5.293l-4.643,8.16C18.147,30.567,17.483,31,16.647,31H12.609z" opacity=".05"/><path d="M12.609,30.5c-0.404,0-0.75-0.186-0.951-0.51c-0.202-0.326-0.209-0.74-0.02-1.108l4.168-7.31	l-2.595-4.452c-0.212-0.407-0.214-0.812-0.017-1.13c0.188-0.31,0.544-0.491,0.974-0.491h4.039c0.993,0,1.419,0.76,1.559,1.01	l2.917,5.05l-4.501,7.911c-0.154,0.278-0.571,1.028-1.537,1.028H12.609z" opacity=".07"/><path fill="#fff" d="M16.647,30h-4.038c-0.243,0-0.425-0.11-0.526-0.273c-0.107-0.173-0.113-0.397,0-0.615l4.291-7.524	c0.004-0.01,0.004-0.013,0-0.023l-2.73-4.696c-0.115-0.222-0.131-0.442-0.024-0.615C13.721,16.087,13.926,16,14.169,16h4.039	c0.619,0,0.923,0.398,1.123,0.755c0,0,2.761,4.783,2.777,4.81c-0.163,0.287-4.359,7.659-4.359,7.659	C17.543,29.595,17.251,30,16.647,30z"/><path d="M28.106,40c-0.858,0-1.532-0.434-2.002-1.288l-6.007-11.016l9.256-16.417	C29.547,10.93,30.065,10,31.305,10h4.082c0.598,0,1.104,0.27,1.39,0.739c0.287,0.467,0.299,1.044,0.034,1.583l-8.702,15.391	l5.434,9.926c0.287,0.57,0.276,1.159-0.021,1.633C33.232,39.735,32.729,40,32.139,40H28.106z" opacity=".05"/><path d="M28.106,39.5c-0.997,0-1.424-0.775-1.564-1.029L20.668,27.7l9.12-16.175	c0.184-0.331,0.569-1.024,1.517-1.024h4.082c0.419,0,0.77,0.182,0.963,0.499c0.195,0.318,0.201,0.721,0.013,1.103l-8.826,15.608	l5.567,10.17c0.201,0.4,0.196,0.806-0.006,1.128c-0.196,0.313-0.546,0.493-0.959,0.493H28.106z" opacity=".07"/><path fill="#cddc39" d="M35.914,11.881l-8.94,15.808c-0.005,0.011-0.005,0.019,0,0.026l5.692,10.404	c0.112,0.224,0.117,0.45,0.009,0.623C32.571,38.908,32.384,39,32.139,39h-4.033c-0.617,0-0.928-0.41-1.127-0.771	c0,0-5.724-10.498-5.739-10.525c0.286-0.506,8.984-15.934,8.984-15.934c0.216-0.388,0.48-0.77,1.081-0.77h4.082	c0.242,0,0.434,0.091,0.536,0.259C36.029,11.431,36.025,11.656,35.914,11.881z"/></svg>