<svg xmlns="http://www.w3.org/2000/svg" viewBox="0 0 48 48"><linearGradient id="rCIHGBIHATQn6rnj2sf5Ia" x1="3.208" x2="8.697" y1="5.587" y2="10.885" gradientUnits="userSpaceOnUse"><stop offset=".273" stop-color="#912fbd"/><stop offset=".588" stop-color="#8f2ebb"/><stop offset=".758" stop-color="#892bb3"/><stop offset=".894" stop-color="#7e26a5"/><stop offset="1" stop-color="#701f94"/></linearGradient><path fill="url(#rCIHGBIHATQn6rnj2sf5Ia)" d="M3.202,6.418l5.429,17.264L21.72,10.593L4.456,5.164C3.685,4.922,2.96,5.647,3.202,6.418z"/><linearGradient id="rCIHGBIHATQn6rnj2sf5Ib" x1="39.854" x2="45.344" y1="5.587" y2="10.885" gradientTransform="matrix(-1 0 0 1 84.792 0)" gradientUnits="userSpaceOnUse"><stop offset=".273" stop-color="#912fbd"/><stop offset=".588" stop-color="#8f2ebb"/><stop offset=".758" stop-color="#892bb3"/><stop offset=".894" stop-color="#7e26a5"/><stop offset="1" stop-color="#701f94"/></linearGradient><path fill="url(#rCIHGBIHATQn6rnj2sf5Ib)" d="M44.943,6.418l-5.429,17.264L26.426,10.593l17.264-5.429	C44.461,4.922,45.186,5.647,44.943,6.418z"/><linearGradient id="rCIHGBIHATQn6rnj2sf5Ic" x1="-257.969" x2="-229.89" y1="-296.031" y2="-324.11" gradientTransform="rotate(90 -277 -9)" gradientUnits="userSpaceOnUse"><stop offset="0" stop-color="#bd4ff4"/><stop offset=".587" stop-color="#a235ec"/><stop offset="1" stop-color="#8c20e5"/></linearGradient><path fill="url(#rCIHGBIHATQn6rnj2sf5Ic)" d="M24,44c11.045,0,20-8.955,20-20S35.045,4,24,4S4,12.955,4,24S12.955,44,24,44z"/><path fill="#343434" d="M24,39L24,39c-4.418,0-8-3.582-8-8v0c0-0.552,0.448-1,1-1h14c0.552,0,1,0.448,1,1v0	C32,35.418,28.418,39,24,39z"/><path fill="#fff" d="M29.537,32H18.463C18.207,32,18,31.793,18,31.537V30h12v1.537C30,31.793,29.793,32,29.537,32z"/><linearGradient id="rCIHGBIHATQn6rnj2sf5Id" x1="24" x2="24" y1="41.204" y2="36.008" gradientUnits="userSpaceOnUse"><stop offset="0" stop-color="#f05964"/><stop offset="1" stop-color="#d4414c"/></linearGradient><path fill="url(#rCIHGBIHATQn6rnj2sf5Id)" d="M19.208,37.395C20.545,38.398,22.2,39,24,39s3.455-0.602,4.792-1.605	C27.697,35.942,25.96,35,24,35S20.303,35.942,19.208,37.395z"/><path fill="#fff" d="M18,30v2.795c0,0.152,0.184,0.228,0.291,0.121l1.842-1.842L18,30z"/><path fill="#fff" d="M30,30v2.795c0,0.152-0.184,0.228-0.291,0.121l-1.842-1.842L30,30z"/><path fill="#fff" d="M27.658,21.818c0.06,0.326,0.148,0.651,0.294,0.966c0.934,2.002,3.314,2.868,5.316,1.935 c2.002-0.934,2.868-3.314,1.935-5.316c-0.147-0.315-0.34-0.59-0.551-0.847L27.658,21.818z"/><circle cx="31.577" cy="21.094" r="2" fill="#343434"/><line x1="27.53" x2="34.78" y1="21.878" y2="18.497" fill="none" stroke="#771aa7" stroke-linecap="round" stroke-linejoin="round" stroke-miterlimit="10" stroke-width="2"/><g><path fill="#fff" d="M20.465,21.742c-0.055,0.327-0.136,0.654-0.278,0.971c-0.899,2.018-3.263,2.926-5.281,2.027 c-2.018-0.899-2.926-3.263-2.027-5.281c0.141-0.317,0.329-0.596,0.536-0.856L20.465,21.742z"/><circle cx="16.533" cy="21.086" r="2" fill="#343434"/><line x1="20.594" x2="13.286" y1="21.8" y2="18.546" fill="none" stroke="#771aa7" stroke-linecap="round" stroke-linejoin="round" stroke-miterlimit="10" stroke-width="2"/></g></svg>