<svg xmlns="http://www.w3.org/2000/svg" viewBox="0 0 48 48"><linearGradient id="NGSeWHCnD39k_SkJFfbFHa" x1="30.231" x2="19.002" y1="40.147" y2="11.948" gradientUnits="userSpaceOnUse"><stop offset="0" stop-color="#0d62ab"/><stop offset="1" stop-color="#007ad9"/></linearGradient><path fill="url(#NGSeWHCnD39k_SkJFfbFHa)" d="M43,41H5c-1.105,0-2-0.895-2-2V10c0-1.105,0.895-2,2-2h38c1.105,0,2,0.895,2,2v29 C45,40.105,44.105,41,43,41z"/><g opacity=".05"><path d="M13.01,16.404H10c-0.551,0-1,0.448-1,1v13.362c0,0.552,0.449,1,1,1h3.01c0.551,0,1-0.448,1-1V17.404 C14.01,16.853,13.561,16.404,13.01,16.404z"/><path d="M37.961,18.368c-1.367-1.451-3.168-2.188-5.354-2.188c-2.297,0-4.179,0.765-5.593,2.272 c-1.398,1.488-2.107,3.443-2.107,5.81c0,0.119,0.01,0.233,0.014,0.35c-0.169-0.285-0.361-0.557-0.594-0.8l0-0.001 c-0.368-0.382-0.807-0.726-1.307-1.021c-0.46-0.271-0.986-0.532-1.566-0.775c-0.37-0.153-0.702-0.301-0.996-0.445 c-0.258-0.126-0.474-0.252-0.644-0.377c-0.149-0.107-0.223-0.193-0.27-0.307c0.014-0.021,0.049-0.064,0.131-0.114 c0.099-0.062,0.237-0.113,0.413-0.154c0.367-0.085,0.836-0.094,1.358-0.024c0.232,0.031,0.466,0.081,0.698,0.145 c0.232,0.064,0.458,0.146,0.674,0.243c0.21,0.095,0.402,0.202,0.573,0.321c0.309,0.213,0.704,0.236,1.034,0.063 c0.33-0.175,0.535-0.514,0.535-0.886v-2.787c0-0.411-0.258-0.786-0.643-0.934c-0.519-0.199-1.088-0.348-1.691-0.441 c-1.099-0.17-2.793-0.229-4.249,0.118c-0.745,0.179-1.416,0.467-1.997,0.855c-0.61,0.41-1.101,0.94-1.457,1.577 c-0.362,0.649-0.546,1.417-0.546,2.282c0,1.12,0.334,2.098,0.994,2.906c0.614,0.751,1.531,1.386,2.73,1.887 c0.396,0.162,0.767,0.32,1.111,0.479c0.302,0.138,0.562,0.279,0.774,0.423c0.159,0.106,0.28,0.217,0.361,0.327 c0.021,0.03,0.032,0.054,0.021,0.154c-0.003,0.005-0.021,0.033-0.089,0.076c-0.067,0.043-0.192,0.104-0.407,0.155 c-0.508,0.125-1.457,0.111-2.34-0.206c-0.517-0.185-1.006-0.469-1.454-0.844c-0.295-0.25-0.715-0.306-1.066-0.142 c-0.351,0.163-0.578,0.519-0.578,0.906v2.982c0,0.377,0.208,0.718,0.544,0.891c0.569,0.291,1.238,0.51,1.991,0.65 C17.687,31.932,18.454,32,19.244,32c0.782,0,1.538-0.076,2.244-0.227c0.762-0.162,1.444-0.437,2.026-0.814 c0.62-0.401,1.119-0.934,1.481-1.582c0.291-0.521,0.463-1.135,0.523-1.824c0.347,0.847,0.836,1.61,1.478,2.274 C28.392,31.269,30.208,32,32.393,32c2.24,0,4.09-0.754,5.501-2.241C39.292,28.287,40,26.347,40,23.992 C40,21.694,39.314,19.802,37.961,18.368z M34.143,26.646c-0.419,0.515-0.957,0.754-1.694,0.754c-0.703,0-1.232-0.249-1.663-0.784 c-0.471-0.584-0.71-1.43-0.71-2.512c0-1.069,0.242-1.92,0.719-2.528c0.431-0.55,0.98-0.806,1.729-0.806 c0.711,0,1.229,0.243,1.63,0.766c0.45,0.586,0.678,1.47,0.678,2.624C34.832,25.247,34.6,26.083,34.143,26.646z"/></g><g opacity=".07"><path d="M13.01,16.904H10c-0.276,0-0.5,0.224-0.5,0.5v13.362c0,0.276,0.224,0.5,0.5,0.5h3.01c0.276,0,0.5-0.224,0.5-0.5V17.404 C13.51,17.128,13.286,16.904,13.01,16.904z"/><path d="M23.966,24.158c-0.335-0.349-0.74-0.664-1.201-0.937c-0.441-0.261-0.946-0.511-1.503-0.744 c-0.381-0.157-0.723-0.31-1.024-0.458c-0.284-0.139-0.525-0.28-0.718-0.421c-0.168-0.122-0.297-0.249-0.381-0.375 c-0.064-0.096-0.094-0.199-0.094-0.325c0-0.109,0.025-0.2,0.078-0.283c0.065-0.101,0.162-0.191,0.289-0.269 c0.147-0.091,0.335-0.162,0.562-0.215c0.425-0.1,0.948-0.112,1.539-0.033c0.254,0.034,0.51,0.088,0.766,0.158 c0.256,0.071,0.504,0.161,0.746,0.269c0.234,0.105,0.453,0.228,0.65,0.365c0.153,0.105,0.352,0.119,0.517,0.032 c0.165-0.087,0.268-0.257,0.268-0.443v-2.787c0-0.207-0.128-0.393-0.321-0.467c-0.484-0.186-1.019-0.325-1.589-0.414 c-1.145-0.177-2.738-0.203-4.056,0.11c-0.687,0.165-1.304,0.429-1.834,0.784c-0.545,0.366-0.982,0.84-1.299,1.406 c-0.32,0.573-0.483,1.259-0.483,2.038c0,1.002,0.296,1.873,0.881,2.59c0.562,0.688,1.413,1.272,2.532,1.74 c0.403,0.165,0.779,0.326,1.129,0.486c0.325,0.148,0.609,0.304,0.845,0.463c0.208,0.14,0.371,0.29,0.485,0.447 c0.088,0.12,0.128,0.249,0.128,0.405c0,0.105-0.024,0.199-0.076,0.289c-0.053,0.094-0.137,0.177-0.257,0.254 c-0.142,0.09-0.329,0.164-0.557,0.219c-0.663,0.16-1.716,0.104-2.626-0.222c-0.574-0.205-1.115-0.52-1.608-0.933 c-0.149-0.126-0.356-0.152-0.533-0.07s-0.289,0.259-0.289,0.453v2.982c0,0.188,0.105,0.359,0.272,0.445 c0.526,0.27,1.15,0.473,1.855,0.604c0.691,0.13,1.425,0.195,2.184,0.195c0.746,0,1.466-0.072,2.14-0.216 c0.702-0.149,1.328-0.4,1.859-0.745c0.551-0.356,0.994-0.83,1.316-1.406c0.323-0.579,0.487-1.293,0.487-2.121 c0-0.603-0.093-1.143-0.277-1.605C24.584,24.939,24.313,24.521,23.966,24.158z"/><path d="M37.598,18.711c-1.27-1.348-2.949-2.03-4.99-2.03c-2.153,0-3.913,0.712-5.229,2.115c-1.309,1.393-1.972,3.232-1.972,5.467 c0,2.125,0.655,3.88,1.948,5.217c1.298,1.341,2.993,2.021,5.038,2.021c2.097,0,3.826-0.701,5.139-2.085 c1.306-1.376,1.968-3.2,1.968-5.423C39.5,21.826,38.86,20.049,37.598,18.711z M34.531,26.962 c-0.514,0.632-1.195,0.938-2.082,0.938c-0.854,0-1.526-0.317-2.052-0.971c-0.544-0.675-0.821-1.625-0.821-2.825 c0-1.185,0.278-2.139,0.825-2.837c0.526-0.671,1.22-0.997,2.123-0.997c0.868,0,1.531,0.314,2.026,0.961 c0.519,0.676,0.782,1.661,0.782,2.929C35.332,25.365,35.062,26.308,34.531,26.962z"/></g><path fill="#50e6ff" d="M13.01,30.767H10V17.404h3.01V30.767z"/><path fill="#50e6ff" d="M15.433,30.254v-2.982c0.54,0.454,1.128,0.794,1.761,1.02c0.634,0.227,1.274,0.34,1.92,0.34 c0.379,0,0.71-0.034,0.992-0.103s0.519-0.163,0.708-0.284c0.189-0.121,0.331-0.264,0.424-0.429c0.093-0.165,0.14-0.343,0.14-0.536 c0-0.261-0.075-0.494-0.224-0.699c-0.149-0.205-0.353-0.394-0.61-0.568c-0.258-0.174-0.564-0.342-0.918-0.503 c-0.354-0.162-0.736-0.326-1.146-0.494c-1.044-0.435-1.822-0.966-2.334-1.594c-0.513-0.627-0.769-1.385-0.769-2.274 c0-0.696,0.14-1.294,0.419-1.794c0.28-0.5,0.66-0.912,1.142-1.235c0.481-0.323,1.039-0.561,1.673-0.713 c0.634-0.152,1.305-0.228,2.013-0.228c0.696,0,1.312,0.042,1.85,0.126c0.537,0.084,1.033,0.213,1.486,0.387v2.786 c-0.224-0.155-0.467-0.292-0.732-0.41c-0.264-0.118-0.536-0.216-0.815-0.294c-0.28-0.078-0.558-0.135-0.834-0.172 s-0.539-0.056-0.787-0.056c-0.342,0-0.652,0.033-0.932,0.098c-0.28,0.065-0.516,0.157-0.708,0.275 c-0.193,0.118-0.342,0.259-0.447,0.424c-0.106,0.165-0.158,0.349-0.158,0.554c0,0.224,0.059,0.424,0.177,0.601 c0.118,0.177,0.286,0.345,0.503,0.503s0.481,0.314,0.792,0.466s0.662,0.309,1.053,0.471c0.534,0.224,1.014,0.461,1.44,0.713 c0.426,0.252,0.791,0.536,1.095,0.853s0.537,0.679,0.699,1.086s0.242,0.881,0.242,1.421c0,0.746-0.141,1.371-0.424,1.878 c-0.283,0.506-0.666,0.916-1.151,1.23c-0.485,0.314-1.048,0.539-1.691,0.676C20.637,30.932,19.959,31,19.244,31 c-0.733,0-1.43-0.062-2.092-0.186S15.917,30.503,15.433,30.254z"/><path fill="#50e6ff" d="M32.393,31c-1.913,0-3.473-0.623-4.678-1.868c-1.205-1.246-1.808-2.869-1.808-4.869 c0-2.112,0.612-3.821,1.836-5.125c1.224-1.305,2.845-1.957,4.864-1.957c1.907,0,3.449,0.624,4.627,1.873 C38.411,20.302,39,21.948,39,23.992c0,2.1-0.61,3.793-1.831,5.079C35.948,30.357,34.356,31,32.393,31z M32.523,19.771 c-1.056,0-1.895,0.396-2.516,1.188c-0.621,0.792-0.932,1.84-0.932,3.145c0,1.323,0.311,2.37,0.932,3.14 c0.621,0.77,1.435,1.156,2.442,1.156c1.037,0,1.861-0.374,2.469-1.123s0.913-1.788,0.913-3.117c0-1.385-0.295-2.463-0.885-3.234 C34.356,20.156,33.549,19.771,32.523,19.771z"/></svg>