<svg xmlns="http://www.w3.org/2000/svg" viewBox="0 0 48 48"><path fill="#64717c" d="M43.828,27.828l-7.387-7.387c-1.915-1.915-5.008-1.957-6.974-0.094L21,28.368V38h24v-7.343	C45,29.596,44.579,28.579,43.828,27.828z"/><path fill="#889097" d="M39,37L18.441,16.441c-1.915-1.915-5.008-1.957-6.974-0.094l-7.218,6.838	C3.452,23.94,3,24.991,3,26.089V37H39z"/><path fill="#cf1928" d="M15.417,3v10l8.997-4.09c0.782-0.355,0.782-1.465,0-1.821L15.417,3z"/><path fill="#64717c" d="M15,2c-0.552,0-1,0.448-1,1v12h2V3C16,2.448,15.552,2,15,2z"/><path fill="#50e6ff" d="M16.013,22.013l0.974,0.974c0.56,0.56,1.467,0.56,2.026,0L22,20l-3.559-3.559	c-1.915-1.915-5.008-1.957-6.974-0.094l-3.656,3.464l3.176,3.176c0.56,0.56,1.467,0.56,2.026,0l0.974-0.974	C14.546,21.454,15.454,21.454,16.013,22.013z"/><linearGradient id="UcwQqtVkifOL5XC6N0_HWa" x1="24" x2="24" y1="35.966" y2="42.996" gradientUnits="userSpaceOnUse"><stop offset="0" stop-color="#21ad64"/><stop offset="1" stop-color="#088242"/></linearGradient><path fill="url(#UcwQqtVkifOL5XC6N0_HWa)" d="M3,36v5c0,1.105,0.895,2,2,2h38c1.105,0,2-0.895,2-2v-5H3z"/><rect width="42" height="4" x="3" y="32" fill="#33c481"/></svg>