<svg xmlns="http://www.w3.org/2000/svg" id="Layer_1" x="0" y="0" version="1.1" viewBox="0 0 48 48" xml:space="preserve"><circle cx="9" cy="9" r="3" fill="#50e6ff"/><path fill="#1b9de2" d="M13.3,8H9C8.4,8,8,8.4,8,9c0,0.6,0.4,1,1,1h4.3V8z"/><circle cx="39" cy="9" r="3" fill="#50e6ff"/><linearGradient id="SVGID_1_" x1="23.264" x2="23.264" y1="6.064" y2="41.809" gradientUnits="userSpaceOnUse"><stop offset="0" stop-color="#bd4ff4"/><stop offset=".587" stop-color="#a235ec"/><stop offset="1" stop-color="#8c20e5"/></linearGradient><path fill="url(#SVGID_1_)" d="M31,42H14c-0.6,0-1-0.4-1-1V7.5C13,6.7,13.7,6,14.5,6h19L32,29v12C32,41.6,31.6,42,31,42z"/><path fill="#7a24a0" d="M34,34h-2V7.5C32,6.7,32.7,6,33.5,6l0,0C34.3,6,35,6.7,35,7.5V33C35,33.6,34.6,34,34,34z"/><rect width="19" height="2" x="13" y="37" fill="#c767e5"/><rect width="19" height="2" x="13" y="33" fill="#c767e5"/><rect width="19" height="2" x="13" y="29" fill="#c767e5"/><path fill="#1b9de2" d="M39,8h-7v2h7c0.6,0,1-0.4,1-1C40,8.4,39.6,8,39,8z"/><rect width="1" height="2" x="32" y="8" opacity=".05"/><rect width=".5" height="2" x="32" y="8" opacity=".07"/></svg>