<svg xmlns="http://www.w3.org/2000/svg" viewBox="0 0 48 48"><path fill="#50e6ff" d="M4,38V15h40v23c0,1.1-0.9,2-2,2H6C4.9,40,4,39.1,4,38z"/><linearGradient id="XenvevLewkiVj7iWtZMSza" x1="4.614" x2="42.936" y1="-91.741" y2="-99.533" gradientTransform="matrix(1 0 0 -1 0 -84)" gradientUnits="userSpaceOnUse"><stop offset="0" stop-color="#0077d2"/><stop offset="1" stop-color="#0b59a2"/></linearGradient><path fill="url(#XenvevLewkiVj7iWtZMSza)" d="M44,10v5H4v-5c0-1.1,0.9-2,2-2h36C43.1,8,44,8.9,44,10z"/><linearGradient id="XenvevLewkiVj7iWtZMSzb" x1="6.751" x2="8.032" y1="-94.416" y2="-96.269" gradientTransform="matrix(1 0 0 -1 0 -84)" gradientUnits="userSpaceOnUse"><stop offset="0" stop-color="#75daff"/><stop offset="1" stop-color="#49bef1"/></linearGradient><circle cx="7.5" cy="11.5" r="1.5" fill="url(#XenvevLewkiVj7iWtZMSzb)"/><linearGradient id="XenvevLewkiVj7iWtZMSzc" x1="11.751" x2="13.032" y1="-94.416" y2="-96.269" gradientTransform="matrix(1 0 0 -1 0 -84)" gradientUnits="userSpaceOnUse"><stop offset="0" stop-color="#75daff"/><stop offset="1" stop-color="#49bef1"/></linearGradient><circle cx="12.5" cy="11.5" r="1.5" fill="url(#XenvevLewkiVj7iWtZMSzc)"/><linearGradient id="XenvevLewkiVj7iWtZMSzd" x1="16.751" x2="18.032" y1="-94.416" y2="-96.269" gradientTransform="matrix(1 0 0 -1 0 -84)" gradientUnits="userSpaceOnUse"><stop offset="0" stop-color="#75daff"/><stop offset="1" stop-color="#49bef1"/></linearGradient><circle cx="17.5" cy="11.5" r="1.5" fill="url(#XenvevLewkiVj7iWtZMSzd)"/><linearGradient id="XenvevLewkiVj7iWtZMSze" x1="12.509" x2="34.892" y1="21.508" y2="36.529" gradientUnits="userSpaceOnUse"><stop offset="0" stop-color="#2aa4f4"/><stop offset="1" stop-color="#007ad9"/></linearGradient><path fill="url(#XenvevLewkiVj7iWtZMSze)" d="M12,35.8V22h24v13.8c0,0.66-0.54,1.2-1.2,1.2H13.2C12.54,37,12,36.46,12,35.8z"/><linearGradient id="XenvevLewkiVj7iWtZMSzf" x1="12.388" x2="35.343" y1="-101.749" y2="-106.416" gradientTransform="matrix(1 0 0 -1 0 -84)" gradientUnits="userSpaceOnUse"><stop offset="0" stop-color="#0077d2"/><stop offset="1" stop-color="#0b59a2"/></linearGradient><path fill="url(#XenvevLewkiVj7iWtZMSzf)" d="M36,19.2V22H12v-2.8c0-0.66,0.54-1.2,1.2-1.2h21.6C35.46,18,36,18.54,36,19.2z"/></svg>