<svg xmlns="http://www.w3.org/2000/svg" xmlns:xlink="http://www.w3.org/1999/xlink" data-name="Слой 1" viewBox="0 0 48 48"><defs><linearGradient id="QzN4jjmeUT6KOuk1Q1HmGb" x1="46.495" x2="-32.94" y1="9.375" y2="51.115" data-name="Безымянный градиент 187" gradientUnits="userSpaceOnUse"><stop offset="0" stop-color="#ffda1c"/><stop offset="1" stop-color="#feb705"/></linearGradient><linearGradient id="QzN4jjmeUT6KOuk1Q1HmGa" x1="6.514" x2="12.685" y1="10.428" y2="52.335" data-name="Безымянный градиент 143" gradientUnits="userSpaceOnUse"><stop offset="0" stop-color="#889097"/><stop offset="1" stop-color="#4c5963"/></linearGradient><linearGradient id="QzN4jjmeUT6KOuk1Q1HmGc" x1="9.084" x2="10.718" y1="36.669" y2="47.764" xlink:href="#QzN4jjmeUT6KOuk1Q1HmGa"/></defs><polygon fill="url(#QzN4jjmeUT6KOuk1Q1HmGb)" points="38 6 45 18 14.25 32.25 9.5 24.25 38 6"/><path fill="url(#QzN4jjmeUT6KOuk1Q1HmGa)" d="M9.44585,22.52379l6.40849,10.85669a1.0487,1.0487,0,0,1-.39263,1.44813l-2.859,1.61447A4.2998,4.2998,0,0,1,6.7903,34.89971L3.59107,29.46229a4.19555,4.19555,0,0,1,1.63678-5.8224l2.78146-1.50942A1.07491,1.07491,0,0,1,9.44585,22.52379Z"/><path fill="#889097" d="M10,30h0a1,1,0,0,1,1,1v9a0,0,0,0,1,0,0H9a0,0,0,0,1,0,0V31A1,1,0,0,1,10,30Z"/><path fill="url(#QzN4jjmeUT6KOuk1Q1HmGc)" d="M8,40h4a3,3,0,0,1,3,3v0a0,0,0,0,1,0,0H5a0,0,0,0,1,0,0v0A3,3,0,0,1,8,40Z"/></svg>