<svg xmlns="http://www.w3.org/2000/svg" data-name="Слой 1" viewBox="0 0 48 48"><defs><linearGradient id="jgEARNI4SU6TblDMJBdQ9a" x1="15.478" x2="34.518" y1=".586" y2="52.898" gradientUnits="userSpaceOnUse"><stop offset=".002" stop-color="#427fdb"/><stop offset=".397" stop-color="#2668cb"/><stop offset=".763" stop-color="#1358bf"/><stop offset="1" stop-color="#0c52bb"/></linearGradient></defs><circle cx="24" cy="24" r="20" fill="url(#jgEARNI4SU6TblDMJBdQ9a)"/><circle cx="22.5" cy="31.5" r="1.5" fill="#fff"/><path fill="#fff" d="M32.39949,23.72183l-4.24264,4.24264a3,3,0,0,1,4.24264-4.24264Z"/><path fill="#fff" d="M35,33H29a3,3,0,0,1,6,0Z"/><path fill="#fff" d="M10,30h6a3,3,0,0,1-6,0Z"/><path fill="#fff" d="M36.83922,30.80388l-.67844,3.39224A1,1,0,0,1,35.1802,35H11a1,1,0,0,0,0,2H35.68121a2,2,0,0,0,1.83829-1.21216l1.88311-4.39392A1,1,0,0,0,38.48346,30H37.8198A1,1,0,0,0,36.83922,30.80388Z"/><path fill="#fff" d="M27.01837,23.14185,13.53448,28.38159A9.15325,9.15325,0,0,0,13.12976,33h5.50757a.49985.49985,0,0,0,.47571-.64038,3.35106,3.35106,0,0,1,.016-1.7843,3.54462,3.54462,0,0,1,2.87213-2.54077A3.50158,3.50158,0,0,1,26,31.5a3.34451,3.34451,0,0,1-.11261.858.50072.50072,0,0,0,.47583.642h5.507a9.40532,9.40532,0,0,0-4.85187-9.85815Z"/><path fill="#fff" d="M35.91627,17.53857A1.01171,1.01171,0,0,0,36.45,16.15579c-3.205-6.84791-11.12871-9.79632-18.6906-7.27622A14.62249,14.62249,0,0,0,8.64054,26.94736a1.01113,1.01113,0,0,0,1.33143.67329Z"/><path fill="#fff" d="M35.5,24.99235h5a.38217.38217,0,0,1,.25708.665l-2.25933,2.13629a.68356.68356,0,0,1-.97894,0L35.24292,25.6573A.38217.38217,0,0,1,35.5,24.99235Z"/><path fill="#fff" d="M38,26.5a.99943.99943,0,0,1-1-1,10.77356,10.77356,0,0,0-.89453-5.05273,1.00012,1.00012,0,1,1,1.78906-.89454A12.61566,12.61566,0,0,1,39,25.5.99943.99943,0,0,1,38,26.5Z"/></svg>