<svg xmlns="http://www.w3.org/2000/svg" viewBox="0 0 48 48"><linearGradient id="_0oMkmiyGC8y4yxT1~122a" x1="-237.546" x2="-254.628" y1="-228.546" y2="-245.628" gradientTransform="matrix(0 1 1 0 272 272)" gradientUnits="userSpaceOnUse"><stop offset=".365" stop-color="#199ae0"/><stop offset=".699" stop-color="#1898de"/><stop offset=".819" stop-color="#1691d8"/><stop offset=".905" stop-color="#1186cc"/><stop offset=".974" stop-color="#0a75bc"/><stop offset="1" stop-color="#076cb3"/></linearGradient><path fill="url(#_0oMkmiyGC8y4yxT1~122a)" d="M25.401,9.58L44.42,28.599c0.774,0.774,0.774,2.028,0,2.802l-4.019,4.019	c-0.774,0.774-2.028,0.774-2.802,0L18.58,16.401c-0.774-0.774-0.774-2.028,0-2.802l4.019-4.019	C23.373,8.807,24.627,8.807,25.401,9.58z"/><linearGradient id="_0oMkmiyGC8y4yxT1~122b" x1="-260.281" x2="-238.285" y1="-244.719" y2="-266.715" gradientTransform="matrix(0 1 1 0 272 272)" gradientUnits="userSpaceOnUse"><stop offset="0" stop-color="#32bdef"/><stop offset="1" stop-color="#1ea2e4"/></linearGradient><path fill="url(#_0oMkmiyGC8y4yxT1~122b)" d="M29.42,16.401L10.401,35.42c-0.774,0.774-2.028,0.774-2.802,0L3.58,31.401	c-0.774-0.774-0.774-2.028,0-2.802L22.599,9.58c0.774-0.774,2.028-0.774,2.802,0l4.019,4.019	C30.193,14.373,30.193,15.627,29.42,16.401z"/></svg>