<svg xmlns="http://www.w3.org/2000/svg" viewBox="0 0 48 48"><linearGradient id="4h9_N1cA9Rz2fn_m_s3wLa" x1="16.547" x2="17.958" y1="1.294" y2="11.176" gradientUnits="userSpaceOnUse"><stop offset="0" stop-color="#4dd1f7"/><stop offset="1" stop-color="#1995d6"/></linearGradient><path fill="url(#4h9_N1cA9Rz2fn_m_s3wLa)" d="M17.489,2.029c-1.231,0-2.343,0.495-3.156,1.295c0,0,1.168,0.374,1.168,1.985	c0,1.971-2.726,2.829-2.726,2.829c0.814,0.799,3.484,2.91,4.714,2.91c2.491,0,4.509-2.018,4.509-4.509S19.98,2.029,17.489,2.029z"/><linearGradient id="4h9_N1cA9Rz2fn_m_s3wLb" x1="19" x2="19" y1="28.412" y2="23.529" gradientUnits="userSpaceOnUse"><stop offset="0" stop-color="#d4943b"/><stop offset="1" stop-color="#c2620e"/><stop offset="1" stop-color="#c2620e"/></linearGradient><path fill="url(#4h9_N1cA9Rz2fn_m_s3wLb)" d="M32,22H6l1.721,10.329C7.882,33.293,8.717,34,9.694,34h18.611	c0.978,0,1.812-0.707,1.973-1.671L32,22z"/><linearGradient id="4h9_N1cA9Rz2fn_m_s3wLc" x1="17.791" x2="19.158" y1="6.752" y2="16.723" gradientUnits="userSpaceOnUse"><stop offset="0" stop-color="#4dd1f7"/><stop offset="1" stop-color="#1995d6"/></linearGradient><path fill="url(#4h9_N1cA9Rz2fn_m_s3wLc)" d="M25.043,6.014c-0.398,0-0.784,0.052-1.155,0.142L10.488,8.521l0.003,0.016	c-1.984,0.289-3.513,1.982-3.513,4.046c0,2.268,1.838,4.106,4.106,4.106c0.276,0,0.546-0.029,0.807-0.081l0.014,0.081l10.901-1.363	c0.672,0.344,1.431,0.541,2.238,0.541c2.721,0,4.927-2.206,4.927-4.927S27.765,6.014,25.043,6.014z"/><linearGradient id="4h9_N1cA9Rz2fn_m_s3wLd" x1="18.336" x2="19.704" y1="14.504" y2="24.387" gradientUnits="userSpaceOnUse"><stop offset="0" stop-color="#4dd1f7"/><stop offset="1" stop-color="#1995d6"/></linearGradient><path fill="url(#4h9_N1cA9Rz2fn_m_s3wLd)" d="M28.729,13.461c-0.136,0-0.269,0.01-0.402,0.02l0-0.005l-0.076,0.009	c-0.06,0.005-0.119,0.014-0.179,0.021L7.446,15.939l0.001,0.016C5.498,16.25,4,17.917,4,19.948c0,2.223,1.79,4.023,4.007,4.049	l0,0.005h20.519l0-0.01c0.068,0.003,0.134,0.01,0.203,0.01c2.911,0,5.27-2.359,5.27-5.27S31.64,13.461,28.729,13.461z"/><linearGradient id="4h9_N1cA9Rz2fn_m_s3wLe" x1="26.622" x2="33.555" y1="12.851" y2="31.309" gradientUnits="userSpaceOnUse"><stop offset="0" stop-color="#fed100"/><stop offset="1" stop-color="#e38101"/></linearGradient><circle cx="32.5" cy="28.5" r="12.5" fill="url(#4h9_N1cA9Rz2fn_m_s3wLe)"/><linearGradient id="4h9_N1cA9Rz2fn_m_s3wLf" x1="25.761" x2="38.996" y1="25.09" y2="41.59" gradientUnits="userSpaceOnUse"><stop offset="0" stop-color="#ffd869"/><stop offset="1" stop-color="#fec52b"/></linearGradient><path fill="url(#4h9_N1cA9Rz2fn_m_s3wLf)" d="M41.5,27c-1.279,0-2.389,0.697-2.999,1.724C37.891,27.697,36.782,27,35.5,27	c-1.281,0-2.39,0.696-3,1.723C31.89,27.696,30.781,27,29.5,27c-1.282,0-2.391,0.697-3.001,1.724C25.889,27.697,24.779,27,23.5,27	c-1.93,0-3.5,1.57-3.5,3.5l0.44,1.7l1.831,7.723C22.698,41.726,24.309,43,26.163,43h12.675c1.854,0,3.465-1.274,3.892-3.077	L44.56,32.2v-0.01L45,30.5C45,28.57,43.43,27,41.5,27z"/><path fill="#e52030" d="M24,36H6v0c0-2.209,1.791-4,4-4h10C22.209,32,24,33.791,24,36L24,36z"/><path fill="#e52030" d="M24,40H6v0c0,2.209,1.791,4,4,4h10C22.209,44,24,42.209,24,40L24,40z"/><linearGradient id="4h9_N1cA9Rz2fn_m_s3wLg" x1="4.471" x2="27.06" y1="36" y2="36" gradientUnits="userSpaceOnUse"><stop offset="0" stop-color="#faa0bd"/><stop offset="1" stop-color="#fa67a6"/></linearGradient><path fill="url(#4h9_N1cA9Rz2fn_m_s3wLg)" d="M24,37H6c-0.552,0-1-0.448-1-1l0,0c0-0.552,0.448-1,1-1h18c0.552,0,1,0.448,1,1l0,0	C25,36.552,24.552,37,24,37z"/><linearGradient id="4h9_N1cA9Rz2fn_m_s3wLh" x1="4.471" x2="27.06" y1="40" y2="40" gradientUnits="userSpaceOnUse"><stop offset="0" stop-color="#faa0bd"/><stop offset="1" stop-color="#fa67a6"/></linearGradient><path fill="url(#4h9_N1cA9Rz2fn_m_s3wLh)" d="M24,41H6c-0.552,0-1-0.448-1-1l0,0c0-0.552,0.448-1,1-1h18c0.552,0,1,0.448,1,1l0,0	C25,40.552,24.552,41,24,41z"/><linearGradient id="4h9_N1cA9Rz2fn_m_s3wLi" x1="4.471" x2="27.06" y1="38" y2="38" gradientUnits="userSpaceOnUse"><stop offset="0" stop-color="#faf8e5"/><stop offset="1" stop-color="#faeeac"/></linearGradient><path fill="url(#4h9_N1cA9Rz2fn_m_s3wLi)" d="M23,39H7c-0.552,0-1-0.448-1-1l0,0c0-0.552,0.448-1,1-1h16c0.552,0,1,0.448,1,1l0,0	C24,38.552,23.552,39,23,39z"/></svg>