<svg xmlns="http://www.w3.org/2000/svg" viewBox="0 0 48 48"><linearGradient id="XBofvos9H6FQ5MGA8C3aka" x1="11" x2="37" y1="24" y2="24" gradientUnits="userSpaceOnUse"><stop offset="0" stop-color="#ae4cd5"/><stop offset="1" stop-color="#ac4ad5"/></linearGradient><path fill="url(#XBofvos9H6FQ5MGA8C3aka)" d="M27,42h-6c-5.12,0-9.374-3.9-9.937-8.876c-0.068-0.597,0.399-1.124,1-1.124h2.016 c0.494,0,0.911,0.362,0.981,0.85C15.477,35.751,17.988,38,21,38h6c3.3,0,6-2.7,6-6v-1c0-3.3-2.7-6-6-6h-7c-4.971,0-9-4.029-9-9v-1 c0-4.971,4.029-9,9-9h6c5.12,0,9.374,3.9,9.937,8.876c0.068,0.597-0.399,1.124-1,1.124h-2.016c-0.494,0-0.911-0.362-0.981-0.85 C31.523,12.249,29.012,10,26,10h-6c-2.761,0-5,2.239-5,5v1c0,2.761,2.239,5,5,5h7c5.5,0,10,4.5,10,10v1C37,37.5,32.5,42,27,42z"/></svg>