<svg xmlns="http://www.w3.org/2000/svg" viewBox="0 0 48 48"><linearGradient id="jbbUXVDUkGLZSUVnvTQqsa" x1="5.327" x2="38.083" y1="-23.343" y2="-56.099" gradientTransform="matrix(1 0 0 -1 0 -18)" gradientUnits="userSpaceOnUse"><stop offset="0" stop-color="#889097"/><stop offset=".331" stop-color="#848c94"/><stop offset=".669" stop-color="#78828b"/><stop offset="1" stop-color="#64717c"/></linearGradient><path fill="url(#jbbUXVDUkGLZSUVnvTQqsa)" d="M43.407,19.243c-2.389-0.029-4.702-1.274-5.983-3.493c-1.233-2.136-1.208-4.649-0.162-6.693	c-2.125-1.887-4.642-3.339-7.43-4.188C28.577,6.756,26.435,8,24,8s-4.577-1.244-5.831-3.131c-2.788,0.849-5.305,2.301-7.43,4.188	c1.046,2.044,1.071,4.557-0.162,6.693c-1.281,2.219-3.594,3.464-5.983,3.493C4.22,20.77,4,22.358,4,24	c0,1.284,0.133,2.535,0.364,3.752c2.469-0.051,4.891,1.208,6.213,3.498c1.368,2.37,1.187,5.204-0.22,7.345	c2.082,1.947,4.573,3.456,7.34,4.375C18.827,40.624,21.221,39,24,39s5.173,1.624,6.303,3.971c2.767-0.919,5.258-2.428,7.34-4.375	c-1.407-2.141-1.588-4.975-0.22-7.345c1.322-2.29,3.743-3.549,6.213-3.498C43.867,26.535,44,25.284,44,24	C44,22.358,43.78,20.77,43.407,19.243z"/><linearGradient id="jbbUXVDUkGLZSUVnvTQqsb" x1="32.012" x2="15.881" y1="-50.012" y2="-33.881" gradientTransform="matrix(1 0 0 -1 0 -18)" gradientUnits="userSpaceOnUse"><stop offset="0" stop-color="#fff"/><stop offset=".242" stop-color="#f2f2f2"/><stop offset="1" stop-color="#ccc"/></linearGradient><circle cx="24" cy="24" r="11.5" fill="url(#jbbUXVDUkGLZSUVnvTQqsb)"/><linearGradient id="jbbUXVDUkGLZSUVnvTQqsc" x1="17.45" x2="28.94" y1="-35.45" y2="-46.94" gradientTransform="matrix(1 0 0 -1 0 -18)" gradientUnits="userSpaceOnUse"><stop offset="0" stop-color="#0d61a9"/><stop offset=".363" stop-color="#0e5fa4"/><stop offset=".78" stop-color="#135796"/><stop offset="1" stop-color="#16528c"/></linearGradient><circle cx="24" cy="24" r="7" fill="url(#jbbUXVDUkGLZSUVnvTQqsc)"/><path fill="#199be2" d="M44.992,43.224l-1.768,1.768l2.935,2.935c0.098,0.098,0.256,0.098,0.354,0l1.414-1.414	c0.098-0.098,0.098-0.256,0-0.354L44.992,43.224z"/><radialGradient id="jbbUXVDUkGLZSUVnvTQqsd" cx="37.012" cy="422.952" r="9.802" gradientTransform="matrix(1 0 0 -1 0 460)" gradientUnits="userSpaceOnUse"><stop offset=".693" stop-color="#006185"/><stop offset=".921" stop-color="#35c1f1"/></radialGradient><polygon fill="url(#jbbUXVDUkGLZSUVnvTQqsd)" points="42.8,41.033 41.033,42.8 43.224,44.992 44.992,43.224"/><path d="M40.174,28.589C39.185,28.214,38.118,28,37,28c-4.963,0-9,4.037-9,9c0,1.499,0.374,2.911,1.025,4.156	c0.513,0.534,0.953,1.14,1.278,1.815c2.767-0.919,5.258-2.428,7.34-4.375c-1.407-2.141-1.588-4.975-0.22-7.345	C38.099,30.08,39.064,29.183,40.174,28.589z" opacity=".05"/><path d="M39.633,28.923C38.803,28.651,37.919,28.5,37,28.5c-4.687,0-8.5,3.813-8.5,8.5	c0,2.233,0.872,4.262,2.286,5.78c2.57-0.93,4.899-2.354,6.857-4.184c-1.407-2.141-1.588-4.975-0.22-7.345	C37.985,30.277,38.754,29.502,39.633,28.923z" opacity=".07"/><linearGradient id="jbbUXVDUkGLZSUVnvTQqse" x1="31.455" x2="42.669" y1="428.545" y2="417.331" gradientTransform="matrix(1 0 0 -1 0 460)" gradientUnits="userSpaceOnUse"><stop offset="0" stop-color="#a3ffff"/><stop offset=".223" stop-color="#9dfbff"/><stop offset=".53" stop-color="#8bf1ff"/><stop offset=".885" stop-color="#6ee0ff"/><stop offset="1" stop-color="#63daff"/></linearGradient><circle cx="37" cy="37" r="8" fill="url(#jbbUXVDUkGLZSUVnvTQqse)"/></svg>