<svg xmlns="http://www.w3.org/2000/svg" xmlns:xlink="http://www.w3.org/1999/xlink" data-name="Слой 1" viewBox="0 0 48 48"><defs><linearGradient id="MROhfYlpdhH5ifpFkA4FLa" x1="28.475" x2="28.475" y1="5.533" y2="13.034" gradientUnits="userSpaceOnUse"><stop offset="0" stop-color="#ffcf7b"/><stop offset=".196" stop-color="#fecd76"/><stop offset=".439" stop-color="#fac666"/><stop offset=".709" stop-color="#f3bc4d"/><stop offset=".995" stop-color="#eaad2a"/><stop offset="1" stop-color="#eaad29"/></linearGradient><linearGradient id="MROhfYlpdhH5ifpFkA4FLc" x1="39.525" x2="39.525" y1="5.533" y2="13.034" xlink:href="#MROhfYlpdhH5ifpFkA4FLa"/><linearGradient id="MROhfYlpdhH5ifpFkA4FLd" x1="22.545" x2="22.545" y1="50.065" y2="22.079" data-name="Безымянный градиент 18" gradientUnits="userSpaceOnUse"><stop offset=".002" stop-color="#454545"/><stop offset=".013" stop-color="#464646"/><stop offset=".874" stop-color="#626262"/><stop offset="1" stop-color="#6d6d6d"/></linearGradient><linearGradient id="MROhfYlpdhH5ifpFkA4FLb" x1="34" x2="34" y1="-13.217" y2="33.052" data-name="Безымянный градиент 162" gradientUnits="userSpaceOnUse"><stop offset="0" stop-color="#4c5963"/><stop offset="1" stop-color="#889097"/></linearGradient><linearGradient id="MROhfYlpdhH5ifpFkA4FLe" x1="34.125" x2="34.125" y1="-13.217" y2="33.052" xlink:href="#MROhfYlpdhH5ifpFkA4FLb"/><linearGradient id="MROhfYlpdhH5ifpFkA4FLf" x1="34" x2="34" y1="15.364" y2="28.975" xlink:href="#MROhfYlpdhH5ifpFkA4FLb"/><linearGradient id="MROhfYlpdhH5ifpFkA4FLg" x1="34" x2="34" y1="-1.413" y2="49.956" xlink:href="#MROhfYlpdhH5ifpFkA4FLa"/><linearGradient id="MROhfYlpdhH5ifpFkA4FLh" x1="34" x2="34" y1="3.674" y2="9.089" xlink:href="#MROhfYlpdhH5ifpFkA4FLa"/><linearGradient id="MROhfYlpdhH5ifpFkA4FLi" x1="35" x2="35" y1="5.891" y2="11.151" data-name="Безымянный градиент 123" gradientTransform="translate(-1)" gradientUnits="userSpaceOnUse"><stop offset="0" stop-color="#f44f5a"/><stop offset=".443" stop-color="#ee3d4a"/><stop offset="1" stop-color="#e52030"/></linearGradient></defs><path fill="url(#MROhfYlpdhH5ifpFkA4FLa)" d="M30.94975,10.12132l-2.82843,2.82843L28,12.82843A6.82843,6.82843,0,0,1,26,8h0a6.82843,6.82843,0,0,1,4.82843,2Z"/><path fill="url(#MROhfYlpdhH5ifpFkA4FLc)" d="M37.05025,10.12132l2.82843,2.82843L40,12.82843A6.82843,6.82843,0,0,0,42,8h0a6.82843,6.82843,0,0,0-4.82843,2Z"/><path fill="url(#MROhfYlpdhH5ifpFkA4FLd)" d="M40.37874,41.515,35,20,15.61757,22.32591a1,1,0,0,1-1.06783-.67666l-.04313-.1294A2.17571,2.17571,0,0,0,13.04179,20.07a2.08407,2.08407,0,0,0-2.51609,1.353L10,23,4.72839,41.45056A2,2,0,0,0,6.65144,44h31.787A2,2,0,0,0,40.37874,41.515Z"/><path fill="url(#MROhfYlpdhH5ifpFkA4FLb)" d="M40,37H36.82843a2,2,0,0,1-1.41421-.58579l-1.06067-1.06066a.5.5,0,0,0-.7071,0l-1.06067,1.06066A2,2,0,0,1,31.17157,37H28a2,2,0,0,1-2-2V16H42V35A2,2,0,0,1,40,37Z"/><path fill="url(#MROhfYlpdhH5ifpFkA4FLe)" d="M43.25,17c-.43018-1.7207-1.60132-3.43335-2.87506-3.88037-.01831-.04041-.03858-.07965-.05762-.11963H42a8.41832,8.41832,0,0,0-7-4H33a8.41832,8.41832,0,0,0-7,4h1.68268c-.04273.08972-.09033.17664-.12927.26843A6.01869,6.01869,0,0,0,25,17h2.07953a6.99108,6.99108,0,0,0,13.84094,0Z"/><path fill="url(#MROhfYlpdhH5ifpFkA4FLf)" d="M34,21h0c-1.25,0-2-.67157-2-1.5h0a.5.5,0,0,1,.5-.5h3a.5.5,0,0,1,.5.5h0C36,20.32843,35.25,21,34,21Z"/><path fill="url(#MROhfYlpdhH5ifpFkA4FLg)" d="M33.81547,12.0028A6.16668,6.16668,0,0,0,28,18.25161V34c0,2.55228.44772,3,1,3h1a1,1,0,0,0,1-1V22a3,3,0,0,1,3-3h0a3,3,0,0,1,3,3V36a1,1,0,0,0,1,1h1c.55228,0,1-.44772,1-3V16C40,14.625,37.21341,11.90083,33.81547,12.0028Z"/><circle cx="31" cy="16" r="1" fill="#5c2415"/><circle cx="37" cy="16" r="1" fill="#5c2415"/><path fill="#5c2415" d="M35,17.75c0-.55228-.44772-.75-1-.75s-1,.19772-1,.75S33.44772,19,34,19,35,18.30228,35,17.75Z"/><path fill="url(#MROhfYlpdhH5ifpFkA4FLh)" d="M34.64189,9,35.9171,6.35112C36.23183,5.69737,35.6114,5,34.71506,5H33.28494c-.89634,0-1.51677.69737-1.202,1.35112L33.35811,9Z"/><path fill="url(#MROhfYlpdhH5ifpFkA4FLi)" d="M36.64886,7.08289,34.469,8.13232a.8973.8973,0,0,0-.938,0L31.35114,7.08289C30.69739,6.76819,30,7.38861,30,8.28491V9.715c0,.89636.69739,1.51678,1.35114,1.20208L33.531,9.86761a.89689.89689,0,0,0,.938,0l2.17987,1.0495C37.30261,11.23181,38,10.61139,38,9.715V8.28491C38,7.38861,37.30261,6.76819,36.64886,7.08289Z"/></svg>