<svg xmlns="http://www.w3.org/2000/svg" viewBox="0 0 48 48"><linearGradient id="AZCLUnObeUUXZIiY0Dq8Wa" x1="9.858" x2="38.387" y1="9.858" y2="38.387" gradientUnits="userSpaceOnUse"><stop offset="0" stop-color="#00bffe"/><stop offset="1" stop-color="#1d55c4"/></linearGradient><path fill="url(#AZCLUnObeUUXZIiY0Dq8Wa)" d="M44,24c0,11.045-8.955,20-20,20S4,35.045,4,24S12.955,4,24,4S44,12.955,44,24z"/><linearGradient id="AZCLUnObeUUXZIiY0Dq8Wb" x1="10.684" x2="41.739" y1="6.103" y2="37.157" gradientUnits="userSpaceOnUse"><stop offset="0" stop-color="#84e1fe"/><stop offset="1" stop-color="#167cf7"/></linearGradient><path fill="url(#AZCLUnObeUUXZIiY0Dq8Wb)" d="M34.026,31.116l0.755,0.647v0.755l-0.97,1.078c-0.108,0.108-0.216,0.323-0.323,0.431	l-0.755,1.617c-0.108,0.216-0.323,0.539-0.539,0.647l-1.617,1.294l-0.108,0.108l-1.833,1.617l-0.647,0.539l-0.755,0.431	l-0.431,0.216l-0.647,0.539l-0.323,1.702l-0.955,1.244l-0.334-1.178l-0.329-1.23l0.431-0.755l-0.108-0.97l0.539-0.862l0.323-2.048	c0.108-0.755-0.216-1.509-0.862-1.941c-0.323-0.216-0.539-0.539-0.755-0.862l-0.647-1.509l-0.647-0.431v-0.539l0.216-0.647	l0.108-0.647l0.862-0.755l-1.294-1.186c-0.108-0.108-0.108-0.108-0.216-0.216l-0.97-0.755c0,0-0.108,0-0.108-0.108l-1.617-1.078	c-0.108-0.108-0.216-0.108-0.431-0.216l-0.97-0.323c-0.108,0-0.216-0.108-0.323-0.108l-1.725-0.97	c-0.216-0.108-0.431-0.323-0.539-0.539l-1.078-1.402c-0.108-0.216-0.216-0.323-0.323-0.539l-0.755-2.156	c-0.108-0.216-0.216-0.431-0.323-0.539l-0.108-0.216c-0.216-0.323-0.431-0.755-0.431-1.186v-0.539c0-0.216,0-0.431,0.108-0.647	l0.755-1.941c0.108-0.323,0.108-0.647,0.108-0.97l-0.539-3.558L12.033,10.2l-1.186,0.755L10.631,10.2l2.372-1.725V7.936l1.294-0.539	c0.431-0.216,0.863-0.216,1.294-0.108l4.205,1.078l0.862,0.108l1.402-0.108l0.108,0.755l-2.048,2.264l0.323,0.862l0.647-0.108	l1.509,0.862l0.755-0.323l0.216-2.264h0.862l1.402,0.647c0.323,0.108,0.647,0.431,0.863,0.755l0.216,0.323	c0.108,0.108,0.216,0.323,0.431,0.431l0.862,0.755c0.216,0.216,0.323,0.323,0.539,0.539l0.862,1.617l-0.431,0.431l-1.402,0.431	l-0.862,0.108l-1.509,1.078l-0.108,0.108l-0.431,0.323c-0.323,0.216-0.539,0.539-0.647,0.862l-0.108,0.216	c-0.108,0.323-0.323,0.647-0.539,0.862l-1.294,1.186l-0.539,0.323l-3.666,0.647l-0.108,0.323c-0.108,0.539,0,1.186,0.431,1.617	l0.647,0.755c0.216,0.216,0.539,0.431,0.862,0.539l1.078,0.431c0.216,0.108,0.431,0.216,0.647,0.431l2.156,2.048l0.431-0.539	l0.539-0.323c0.431-0.216,0.862-0.323,1.294-0.216l1.725,0.323l0.647,0.431l1.833,0.97l3.558,2.048	C33.919,30.9,34.026,31.008,34.026,31.116z M27.45,8.799l0.431,0.862l1.186,1.186l0.647,0.323l0.323-0.323V8.906l0.539-0.755	l0.216-0.539l-1.941-1.617c-0.216-0.216-0.431-0.323-0.755-0.431l-0.755-0.431c-0.431-0.216-0.755-0.323-1.186-0.323	c-0.539,0-0.97,0-1.509,0.216l-0.431,0.108L24,5.672l0.647,0.647L27.45,8.799z M40.064,17.316l-0.216-1.833l0.755-0.323l0.97,1.941	l0.953-0.617c-1.799-4.427-5.134-8.057-9.348-10.24l3.543,6.76l2.264,2.048v0.647l-0.539,0.216l0.539,1.941h0.755L40.064,17.316z M39.358,36.804C42.254,33.335,44,28.872,44,24c0-1.861-0.274-3.656-0.75-5.365l-0.599-0.241l-0.216,0.755l-0.863-1.078	l-1.401,0.539l-0.755,0.862l0.323,0.862l-0.647,0.862v4.528l1.402,1.941l0.862-0.431l0.647-0.755l0.539,0.431	c0.108,2.587-2.798,8.536-2.798,8.536L39.358,36.804z"/></svg>