<svg xmlns="http://www.w3.org/2000/svg" data-name="Слой 1" viewBox="0 0 48 48"><defs><radialGradient id="5QT7a0cEEEZQsx2y3VC6Oa" cx="46.12" cy="32.62" r="39.064" data-name="Безымянный градиент 46" gradientUnits="userSpaceOnUse"><stop offset="0" stop-color="#9e6fd9"/><stop offset=".173" stop-color="#aa73c7"/><stop offset=".307" stop-color="#b477b8"/><stop offset=".522" stop-color="#ca7f97"/><stop offset="1" stop-color="#fc914d"/></radialGradient></defs><rect width="8" height="19" x="20" y="23" fill="#64717c"/><path fill="#889097" d="M17,40H31a2,2,0,0,1,2,2v1a0,0,0,0,1,0,0H15a0,0,0,0,1,0,0V42A2,2,0,0,1,17,40Z"/><rect width="42" height="21" x="3" y="7" fill="#889097" rx="2"/><rect width="38" height="17" x="5" y="9" fill="url(#5QT7a0cEEEZQsx2y3VC6Oa)" rx="1"/><path fill="#64717c" d="M24,6h0a2,2,0,0,1,2,2v2a0,0,0,0,1,0,0H22a0,0,0,0,1,0,0V8A2,2,0,0,1,24,6Z"/><path fill="#64717c" d="M36,6h0a2,2,0,0,1,2,2v2a0,0,0,0,1,0,0H34a0,0,0,0,1,0,0V8a2,2,0,0,1,2-2Z"/><path fill="#64717c" d="M12,6h0a2,2,0,0,1,2,2v2a0,0,0,0,1,0,0H10a0,0,0,0,1,0,0V8A2,2,0,0,1,12,6Z"/><rect width="8" height="1" x="20" y="39" opacity=".05"/><rect width="8" height=".5" x="20" y="39.5" opacity=".07"/><rect width="8" height="1" x="20" y="28" opacity=".05" transform="rotate(180 24 28.5)"/><rect width="8" height=".5" x="20" y="28" opacity=".07" transform="rotate(180 24 28.25)"/></svg>