<svg xmlns="http://www.w3.org/2000/svg" viewBox="0 0 48 48"><polygon fill="#0883d9" points="35.551,8.439 39,10.159 39,24 17,24 16.011,22.292"/><circle cx="36.841" cy="10.159" r="2.159" fill="#0883d9"/><polygon fill="#0370c8" points="35.551,39.561 39,37.841 39,24 17,24 16.011,25.708"/><circle cx="36.841" cy="37.841" r="2.159" fill="#0370c8"/><path fill="#0883d9" d="M9,24h8V10c0-1.105-0.895-2-2-2h-4c-1.105,0-2,0.895-2,2V24z"/><path fill="#0370c8" d="M17,24H9v14c0,1.105,0.895,2,2,2h4c1.105,0,2-0.895,2-2V24z"/></svg>