<svg xmlns="http://www.w3.org/2000/svg" viewBox="0 0 48 48"><linearGradient id="f9lwIPTl32L8ON4oMwgxya" x1="21.026" x2="27.416" y1="5.932" y2="24.329" gradientUnits="userSpaceOnUse"><stop offset="0" stop-color="#70371b"/><stop offset="1" stop-color="#401608"/></linearGradient><path fill="url(#f9lwIPTl32L8ON4oMwgxya)" d="M37.57,9.792C36.948,8.67,35.811,8,34.528,8H28V7c0-0.552-0.448-1-1-1h-6 c-0.552,0-1,0.448-1,1v4.012c-4.46,1.362-7.913,5.523-9,9.988h26c-0.35-1.436-0.946-2.839-1.74-4.129l2.218-3.549 C38.158,12.234,38.192,10.915,37.57,9.792z M35.782,12.262l-1.786,2.858c-1.59-1.9-3.651-3.393-5.995-4.109V10h6.528 c0.545,0,1.029,0.285,1.293,0.762C36.085,11.239,36.071,11.8,35.782,12.262z"/><linearGradient id="f9lwIPTl32L8ON4oMwgxyb" x1="21.89" x2="28.762" y1="18.768" y2="61.857" gradientUnits="userSpaceOnUse"><stop offset="0" stop-color="#ccc"/><stop offset="1" stop-color="#868d93"/></linearGradient><path fill="url(#f9lwIPTl32L8ON4oMwgxyb)" d="M38,45H10c-0.552,0-1-0.448-1-1V20c0-0.552,0.448-1,1-1h28c0.552,0,1,0.448,1,1v24 C39,44.552,38.552,45,38,45z"/><line x1="14" x2="18" y1="29" y2="35" fill="none" stroke="#45494d" stroke-linecap="round" stroke-linejoin="round" stroke-miterlimit="10" stroke-width="2"/><line x1="18" x2="14" y1="29" y2="35" fill="none" stroke="#45494d" stroke-linecap="round" stroke-linejoin="round" stroke-miterlimit="10" stroke-width="2"/><line x1="22" x2="26" y1="29" y2="35" fill="none" stroke="#45494d" stroke-linecap="round" stroke-linejoin="round" stroke-miterlimit="10" stroke-width="2"/><line x1="26" x2="22" y1="29" y2="35" fill="none" stroke="#45494d" stroke-linecap="round" stroke-linejoin="round" stroke-miterlimit="10" stroke-width="2"/><line x1="30" x2="34" y1="29" y2="35" fill="none" stroke="#45494d" stroke-linecap="round" stroke-linejoin="round" stroke-miterlimit="10" stroke-width="2"/><line x1="34" x2="30" y1="29" y2="35" fill="none" stroke="#45494d" stroke-linecap="round" stroke-linejoin="round" stroke-miterlimit="10" stroke-width="2"/><linearGradient id="f9lwIPTl32L8ON4oMwgxyc" x1="23.839" x2="24.244" y1="2.791" y2="5.824" gradientUnits="userSpaceOnUse"><stop offset="0" stop-color="#f0ddaf"/><stop offset="1" stop-color="#ffda94"/></linearGradient><path fill="url(#f9lwIPTl32L8ON4oMwgxyc)" d="M27,6h-6l-0.561-1.684C20.223,3.669,20.705,3,21.387,3h5.225 c0.683,0,1.165,0.669,0.949,1.316L27,6z"/></svg>