<svg xmlns="http://www.w3.org/2000/svg" viewBox="0 0 48 48"><linearGradient id="tJqdBAhLEjDKTpo0faXyGa" x1="634.545" x2="642.615" y1="-1125.717" y2="-1117.759" gradientTransform="matrix(1 0 0 -1 -624.127 -1094.146)" gradientUnits="userSpaceOnUse"><stop offset=".282" stop-color="#ffc430"/><stop offset=".401" stop-color="#f8bd2d"/><stop offset=".574" stop-color="#e5aa23"/><stop offset=".78" stop-color="#c58a14"/><stop offset="1" stop-color="#9c6000"/></linearGradient><path fill="url(#tJqdBAhLEjDKTpo0faXyGa)" d="M6.386,22.759C4.743,22.759,4,23.779,4,25.14l12.628,13.497	c0.119,0.119,0.247,0.226,0.372,0.337V24.926c-2.172,3.706-4.846,0.389-6.5,0.774C10.5,25.699,9.812,22.759,6.386,22.759z"/><linearGradient id="tJqdBAhLEjDKTpo0faXyGb" x1="740.74" x2="740.743" y1="-34.78" y2="-34.78" gradientTransform="scale(1 -1) rotate(-9.317 407.738 4475.64)" gradientUnits="userSpaceOnUse"><stop offset="0" stop-color="#ffc430"/><stop offset=".57" stop-color="#f8bd29"/><stop offset="1" stop-color="#f0b421"/></linearGradient><path fill="url(#tJqdBAhLEjDKTpo0faXyGb)" d="M6.36,29.275c0.001-0.007,0.004-0.012,0.005-0.019l-0.002-0.001L6.36,29.275z"/><linearGradient id="tJqdBAhLEjDKTpo0faXyGc" x1="23.007" x2="43.922" y1="17.581" y2="38.496" gradientUnits="userSpaceOnUse"><stop offset="0" stop-color="#ffc430"/><stop offset=".41" stop-color="#fec130"/><stop offset=".72" stop-color="#fcb730"/><stop offset=".998" stop-color="#f7a72f"/></linearGradient><path fill="url(#tJqdBAhLEjDKTpo0faXyGc)" d="M38.953,6.577c-0.01-0.046-0.028-0.087-0.041-0.132c-0.026-0.089-0.052-0.177-0.089-0.26	c-0.022-0.049-0.051-0.094-0.077-0.141c-0.04-0.072-0.079-0.143-0.127-0.21c-0.033-0.046-0.07-0.087-0.107-0.129	c-0.051-0.06-0.104-0.118-0.162-0.172c-0.042-0.039-0.087-0.074-0.132-0.109c-0.062-0.048-0.125-0.092-0.192-0.133	c-0.05-0.03-0.1-0.057-0.153-0.083c-0.07-0.034-0.143-0.063-0.218-0.09c-0.056-0.02-0.112-0.038-0.17-0.053	c-0.078-0.02-0.158-0.031-0.239-0.041c-0.06-0.008-0.119-0.016-0.181-0.018C37.043,5.006,37.023,5,37,5	c-0.068,0-0.132,0.013-0.198,0.02c-0.046,0.004-0.091-0.001-0.138,0.007c-0.014,0.002-0.027,0.008-0.042,0.011	C36.58,5.046,36.54,5.06,36.499,5.071c-0.08,0.021-0.159,0.042-0.233,0.072c-0.07,0.028-0.136,0.064-0.202,0.099	c-0.031,0.017-0.063,0.031-0.092,0.05C35.392,5.643,35,6.273,35,7v0.107V17.56c0,0-0.142,0.44-0.5,0.44	c-0.151,0-0.337-0.052-0.538-0.126C33.981,17.751,34,17.628,34,17.5c0-1.381-1.119-2.5-2.5-2.5c-1.355,0-2.452,1.08-2.492,2.425	C28.796,17.47,28.62,17.5,28.5,17.5c-0.139,0-0.317-0.125-0.53-0.296C27.822,15.965,26.779,15,25.5,15	c-1.279,0-2.321,0.964-2.47,2.203c-0.214,0.172-0.392,0.297-0.53,0.297c-0.123,0-0.294-0.032-0.5-0.079V6.5	C22,5.119,20.881,4,19.5,4S17,5.119,17,6.5v13.014v6.736v12.718c1.461,1.3,3.347,2.032,5.314,2.032H31c4.418,0,8-3.582,8-8v-6.75V7	C39,6.854,38.983,6.713,38.953,6.577z"/><circle cx="19.5" cy="6.5" r="1.5" fill="#fff0c9"/><circle cx="37" cy="7" r="1" fill="#fff0c9"/></svg>