<svg xmlns="http://www.w3.org/2000/svg" viewBox="0 0 48 48"><linearGradient id="t~HtE1bNfcig4rG8Jd5_fa" x1="24" x2="24" y1="-321.3" y2="-327.157" gradientTransform="matrix(1 0 0 -1 0 -290)" gradientUnits="userSpaceOnUse"><stop offset=".018" stop-color="#005ab3"/><stop offset=".497" stop-color="#007ad9"/><stop offset="1" stop-color="#2aa4f4"/></linearGradient><path fill="url(#t~HtE1bNfcig4rG8Jd5_fa)" d="M14.1,28.95h19.8l0,0v4.7c0,1.298-0.985,2.35-2.2,2.35H16.3c-1.215,0-2.2-1.052-2.2-2.35 V28.95L14.1,28.95z"/><linearGradient id="t~HtE1bNfcig4rG8Jd5_fb" x1="24" x2="24" y1="-300.251" y2="-326.093" gradientTransform="matrix(1 0 0 -1 0 -290)" gradientUnits="userSpaceOnUse"><stop offset="0" stop-color="#2aa4f4"/><stop offset="1" stop-color="#007ad9"/></linearGradient><path fill="url(#t~HtE1bNfcig4rG8Jd5_fb)" d="M3.1,12h41.8c0.608,0,1.1,0.497,1.1,1.111l0,0C46,23.543,37.628,32,27.3,32h-6.6 C10.372,32,2,23.543,2,13.111l0,0C2,12.497,2.492,12,3.1,12z"/></svg>