<svg xmlns="http://www.w3.org/2000/svg" xmlns:xlink="http://www.w3.org/1999/xlink" data-name="Слой 1" viewBox="0 0 48 48"><defs><linearGradient id="1HxBup~XUCRgCRuyFFQVKg" x1="10" x2="16" y1="21.5" y2="21.5" xlink:href="#1HxBup~XUCRgCRuyFFQVKc"/><linearGradient id="1HxBup~XUCRgCRuyFFQVKa" x1="24" x2="24" y1="4.957" y2="31.826" data-name="Безымянный градиент 60" gradientUnits="userSpaceOnUse"><stop offset="0" stop-color="#8521b0"/><stop offset="1" stop-color="#64129a"/></linearGradient><linearGradient id="1HxBup~XUCRgCRuyFFQVKe" x1="13" x2="13" y1="4.957" y2="31.826" xlink:href="#1HxBup~XUCRgCRuyFFQVKa"/><linearGradient id="1HxBup~XUCRgCRuyFFQVKb" x1="5" x2="11" y1="15.248" y2="15.248" data-name="Безымянный градиент 73" gradientUnits="userSpaceOnUse"><stop offset="0" stop-color="#9332bf"/><stop offset="1" stop-color="#912fbd"/></linearGradient><linearGradient id="1HxBup~XUCRgCRuyFFQVKf" x1="37" x2="43" y1="15.248" y2="15.248" xlink:href="#1HxBup~XUCRgCRuyFFQVKb"/><linearGradient id="1HxBup~XUCRgCRuyFFQVKc" x1="18" x2="30" y1="19.5" y2="19.5" data-name="Безымянный градиент 72" gradientUnits="userSpaceOnUse"><stop offset="0" stop-color="#ac4ad5"/><stop offset="1" stop-color="#ae4cd5"/></linearGradient><linearGradient id="1HxBup~XUCRgCRuyFFQVKd" x1="35" x2="35" y1="4.957" y2="31.826" xlink:href="#1HxBup~XUCRgCRuyFFQVKa"/><linearGradient id="1HxBup~XUCRgCRuyFFQVKh" x1="32" x2="38" y1="21.5" y2="21.5" xlink:href="#1HxBup~XUCRgCRuyFFQVKc"/><linearGradient id="1HxBup~XUCRgCRuyFFQVKi" x2="24" y1="16.304" y2="35.61" xlink:href="#1HxBup~XUCRgCRuyFFQVKa"/><linearGradient id="1HxBup~XUCRgCRuyFFQVKj" x1="5" x2="43" y1="30.5" y2="30.5" gradientUnits="userSpaceOnUse"><stop offset="0" stop-color="#c965eb"/><stop offset="1" stop-color="#c767e5"/></linearGradient><linearGradient id="1HxBup~XUCRgCRuyFFQVKk" x1="14.972" x2="33.028" y1="37" y2="37" xlink:href="#1HxBup~XUCRgCRuyFFQVKb"/><linearGradient id="1HxBup~XUCRgCRuyFFQVKl" x1="11" x2="14" y1="31" y2="31" xlink:href="#1HxBup~XUCRgCRuyFFQVKb"/><linearGradient id="1HxBup~XUCRgCRuyFFQVKm" x1="34" x2="37" y1="31" y2="31" xlink:href="#1HxBup~XUCRgCRuyFFQVKb"/></defs><path fill="url(#1HxBup~XUCRgCRuyFFQVKa)" d="M18,14l6,2,6-2L24.48584,5.26924a.57463.57463,0,0,0-.97168,0Z"/><path fill="url(#1HxBup~XUCRgCRuyFFQVKd)" d="M32,18l3,.5,3-.5-2.67547-5.79684a.35742.35742,0,0,0-.64906,0Z"/><path fill="url(#1HxBup~XUCRgCRuyFFQVKe)" d="M10,18l3,.5,3-.5-2.67547-5.79684a.35742.35742,0,0,0-.64906,0Z"/><path fill="url(#1HxBup~XUCRgCRuyFFQVKb)" d="M5,18l3,.5,3-.5L8.32453,12.20316a.35742.35742,0,0,0-.64906,0Z"/><path fill="url(#1HxBup~XUCRgCRuyFFQVKf)" d="M37,18l3,.5,3-.5-2.67547-5.79684a.35742.35742,0,0,0-.64906,0Z"/><rect width="12" height="11" x="18" y="14" fill="url(#1HxBup~XUCRgCRuyFFQVKc)"/><rect width="6" height="7" x="10" y="18" fill="url(#1HxBup~XUCRgCRuyFFQVKg)"/><rect width="6" height="7" x="32" y="18" fill="url(#1HxBup~XUCRgCRuyFFQVKh)"/><path fill="url(#1HxBup~XUCRgCRuyFFQVKi)" d="M21,25V21a3,3,0,0,1,3-3h0a3,3,0,0,1,3,3v4Z"/><polygon fill="url(#1HxBup~XUCRgCRuyFFQVKj)" points="37 18 37 24 11 24 11 18 5 18 5 24 5 25 5 43 43 43 43 25 43 24 43 18 37 18"/><path fill="url(#1HxBup~XUCRgCRuyFFQVKk)" d="M15,43H33s1-7-9-12C14,36,15,43,15,43Z"/><path fill="url(#1HxBup~XUCRgCRuyFFQVKl)" d="M12.5,28h0A1.5,1.5,0,0,1,14,29.5V34a0,0,0,0,1,0,0H11a0,0,0,0,1,0,0V29.5A1.5,1.5,0,0,1,12.5,28Z"/><path fill="url(#1HxBup~XUCRgCRuyFFQVKm)" d="M35.5,28h0A1.5,1.5,0,0,1,37,29.5V34a0,0,0,0,1,0,0H34a0,0,0,0,1,0,0V29.5A1.5,1.5,0,0,1,35.5,28Z"/><rect width="5" height="1" x="11" y="23" opacity=".05"/><rect width="5" height=".5" x="11" y="23.5" opacity=".07"/><rect width="12" height="1" x="18" y="23" opacity=".05"/><rect width="12" height=".5" x="18" y="23.5" opacity=".07"/><rect width="5" height="1" x="32" y="23" opacity=".05"/><rect width="5" height=".5" x="32" y="23.5" opacity=".07"/></svg>