<svg xmlns="http://www.w3.org/2000/svg" viewBox="0 0 48 48"><linearGradient id="wUCqzI4yNz2YtDD9C7hvua" x1="10.04" x2="33.33" y1="50.253" y2="6.45" gradientTransform="matrix(1 0 0 -1 0 48)" gradientUnits="userSpaceOnUse"><stop offset="0" stop-color="#8795a1"/><stop offset="1" stop-color="#6d7882"/></linearGradient><path fill="url(#wUCqzI4yNz2YtDD9C7hvua)" d="M41.7,40H6.3C5,40,4,39,4,37.7V10.3C4,9,5,8,6.3,8h35.3C43,8,44,9,44,10.3v27.3	C44,39,43,40,41.7,40z"/><linearGradient id="wUCqzI4yNz2YtDD9C7hvub" x1="8.758" x2="11.082" y1="36.837" y2="32.466" gradientTransform="matrix(1 0 0 -1 0 48)" gradientUnits="userSpaceOnUse"><stop offset="0" stop-color="#fcfcfc"/><stop offset=".495" stop-color="#f4f4f4"/><stop offset=".946" stop-color="#e8e8e8"/><stop offset="1" stop-color="#e8e8e8"/></linearGradient><path fill="url(#wUCqzI4yNz2YtDD9C7hvub)" d="M12,16H8c-0.552,0-1-0.448-1-1v-3c0-0.552,0.448-1,1-1h4c0.552,0,1,0.448,1,1v3	C13,15.552,12.552,16,12,16z"/><linearGradient id="wUCqzI4yNz2YtDD9C7hvuc" x1="16.758" x2="19.081" y1="36.837" y2="32.466" gradientTransform="matrix(1 0 0 -1 0 48)" gradientUnits="userSpaceOnUse"><stop offset="0" stop-color="#fcfcfc"/><stop offset=".495" stop-color="#f4f4f4"/><stop offset=".946" stop-color="#e8e8e8"/><stop offset="1" stop-color="#e8e8e8"/></linearGradient><path fill="url(#wUCqzI4yNz2YtDD9C7hvuc)" d="M20,16h-4c-0.552,0-1-0.448-1-1v-3c0-0.552,0.448-1,1-1h4c0.552,0,1,0.448,1,1v3	C21,15.552,20.552,16,20,16z"/><linearGradient id="wUCqzI4yNz2YtDD9C7hvud" x1="24.758" x2="27.081" y1="36.837" y2="32.466" gradientTransform="matrix(1 0 0 -1 0 48)" gradientUnits="userSpaceOnUse"><stop offset="0" stop-color="#fcfcfc"/><stop offset=".495" stop-color="#f4f4f4"/><stop offset=".946" stop-color="#e8e8e8"/><stop offset="1" stop-color="#e8e8e8"/></linearGradient><path fill="url(#wUCqzI4yNz2YtDD9C7hvud)" d="M28,16h-4c-0.552,0-1-0.448-1-1v-3c0-0.552,0.448-1,1-1h4c0.552,0,1,0.448,1,1v3	C29,15.552,28.552,16,28,16z"/><linearGradient id="wUCqzI4yNz2YtDD9C7hvue" x1="8.758" x2="11.082" y1="29.837" y2="25.466" gradientTransform="matrix(1 0 0 -1 0 48)" gradientUnits="userSpaceOnUse"><stop offset="0" stop-color="#fcfcfc"/><stop offset=".495" stop-color="#f4f4f4"/><stop offset=".946" stop-color="#e8e8e8"/><stop offset="1" stop-color="#e8e8e8"/></linearGradient><path fill="url(#wUCqzI4yNz2YtDD9C7hvue)" d="M12,23H8c-0.552,0-1-0.448-1-1v-3c0-0.552,0.448-1,1-1h4c0.552,0,1,0.448,1,1v3	C13,22.552,12.552,23,12,23z"/><linearGradient id="wUCqzI4yNz2YtDD9C7hvuf" x1="16.758" x2="19.081" y1="29.837" y2="25.466" gradientTransform="matrix(1 0 0 -1 0 48)" gradientUnits="userSpaceOnUse"><stop offset="0" stop-color="#fcfcfc"/><stop offset=".495" stop-color="#f4f4f4"/><stop offset=".946" stop-color="#e8e8e8"/><stop offset="1" stop-color="#e8e8e8"/></linearGradient><path fill="url(#wUCqzI4yNz2YtDD9C7hvuf)" d="M20,23h-4c-0.552,0-1-0.448-1-1v-3c0-0.552,0.448-1,1-1h4c0.552,0,1,0.448,1,1v3	C21,22.552,20.552,23,20,23z"/><linearGradient id="wUCqzI4yNz2YtDD9C7hvug" x1="24.758" x2="27.081" y1="29.837" y2="25.466" gradientTransform="matrix(1 0 0 -1 0 48)" gradientUnits="userSpaceOnUse"><stop offset="0" stop-color="#fcfcfc"/><stop offset=".495" stop-color="#f4f4f4"/><stop offset=".946" stop-color="#e8e8e8"/><stop offset="1" stop-color="#e8e8e8"/></linearGradient><path fill="url(#wUCqzI4yNz2YtDD9C7hvug)" d="M28,23h-4c-0.552,0-1-0.448-1-1v-3c0-0.552,0.448-1,1-1h4c0.552,0,1,0.448,1,1v3	C29,22.552,28.552,23,28,23z"/><linearGradient id="wUCqzI4yNz2YtDD9C7hvuh" x1="8.758" x2="11.082" y1="22.837" y2="18.466" gradientTransform="matrix(1 0 0 -1 0 48)" gradientUnits="userSpaceOnUse"><stop offset="0" stop-color="#fcfcfc"/><stop offset=".495" stop-color="#f4f4f4"/><stop offset=".946" stop-color="#e8e8e8"/><stop offset="1" stop-color="#e8e8e8"/></linearGradient><path fill="url(#wUCqzI4yNz2YtDD9C7hvuh)" d="M12,30H8c-0.552,0-1-0.448-1-1v-3c0-0.552,0.448-1,1-1h4c0.552,0,1,0.448,1,1v3	C13,29.552,12.552,30,12,30z"/><linearGradient id="wUCqzI4yNz2YtDD9C7hvui" x1="16.758" x2="19.081" y1="22.837" y2="18.466" gradientTransform="matrix(1 0 0 -1 0 48)" gradientUnits="userSpaceOnUse"><stop offset="0" stop-color="#fcfcfc"/><stop offset=".495" stop-color="#f4f4f4"/><stop offset=".946" stop-color="#e8e8e8"/><stop offset="1" stop-color="#e8e8e8"/></linearGradient><path fill="url(#wUCqzI4yNz2YtDD9C7hvui)" d="M20,30h-4c-0.552,0-1-0.448-1-1v-3c0-0.552,0.448-1,1-1h4c0.552,0,1,0.448,1,1v3	C21,29.552,20.552,30,20,30z"/><linearGradient id="wUCqzI4yNz2YtDD9C7hvuj" x1="24.758" x2="27.081" y1="22.837" y2="18.466" gradientTransform="matrix(1 0 0 -1 0 48)" gradientUnits="userSpaceOnUse"><stop offset="0" stop-color="#fcfcfc"/><stop offset=".495" stop-color="#f4f4f4"/><stop offset=".946" stop-color="#e8e8e8"/><stop offset="1" stop-color="#e8e8e8"/></linearGradient><path fill="url(#wUCqzI4yNz2YtDD9C7hvuj)" d="M28,30h-4c-0.552,0-1-0.448-1-1v-3c0-0.552,0.448-1,1-1h4c0.552,0,1,0.448,1,1v3	C29,29.552,28.552,30,28,30z"/><linearGradient id="wUCqzI4yNz2YtDD9C7hvuk" x1="16.758" x2="19.081" y1="15.837" y2="11.466" gradientTransform="matrix(1 0 0 -1 0 48)" gradientUnits="userSpaceOnUse"><stop offset="0" stop-color="#fcfcfc"/><stop offset=".495" stop-color="#f4f4f4"/><stop offset=".946" stop-color="#e8e8e8"/><stop offset="1" stop-color="#e8e8e8"/></linearGradient><path fill="url(#wUCqzI4yNz2YtDD9C7hvuk)" d="M20,37h-4c-0.552,0-1-0.448-1-1v-3c0-0.552,0.448-1,1-1h4c0.552,0,1,0.448,1,1v3	C21,36.552,20.552,37,20,37z"/><linearGradient id="wUCqzI4yNz2YtDD9C7hvul" x1="24.468" x2="27.532" y1="16.381" y2="10.618" gradientTransform="matrix(1 0 0 -1 0 48)" gradientUnits="userSpaceOnUse"><stop offset="0" stop-color="#bec5c8"/><stop offset=".968" stop-color="#b9c1c4"/></linearGradient><path fill="url(#wUCqzI4yNz2YtDD9C7hvul)" d="M28,37h-4c-0.552,0-1-0.448-1-1v-3c0-0.552,0.448-1,1-1h4c0.552,0,1,0.448,1,1v3	C29,36.552,28.552,37,28,37z"/><linearGradient id="wUCqzI4yNz2YtDD9C7hvum" x1="8.468" x2="11.532" y1="16.381" y2="10.618" gradientTransform="matrix(1 0 0 -1 0 48)" gradientUnits="userSpaceOnUse"><stop offset="0" stop-color="#bec5c8"/><stop offset=".968" stop-color="#b9c1c4"/></linearGradient><path fill="url(#wUCqzI4yNz2YtDD9C7hvum)" d="M12,37H8c-0.552,0-1-0.448-1-1v-3c0-0.552,0.448-1,1-1h4c0.552,0,1,0.448,1,1v3	C13,36.552,12.552,37,12,37z"/><linearGradient id="wUCqzI4yNz2YtDD9C7hvun" x1="34.348" x2="38.15" y1="39.488" y2="32.337" gradientTransform="matrix(1 0 0 -1 0 48)" gradientUnits="userSpaceOnUse"><stop offset="0" stop-color="#f44f5a"/><stop offset=".443" stop-color="#ee3d4a"/><stop offset="1" stop-color="#e52030"/></linearGradient><path fill="url(#wUCqzI4yNz2YtDD9C7hvun)" d="M40,16h-6c-0.552,0-1-0.448-1-1v-3c0-0.552,0.448-1,1-1h6c0.552,0,1,0.448,1,1v3	C41,15.552,40.552,16,40,16z"/><linearGradient id="wUCqzI4yNz2YtDD9C7hvuo" x1="35.579" x2="38.237" y1="30.173" y2="25.173" gradientTransform="matrix(1 0 0 -1 0 48)" gradientUnits="userSpaceOnUse"><stop offset="0" stop-color="#fede00"/><stop offset="1" stop-color="#ffd000"/></linearGradient><path fill="url(#wUCqzI4yNz2YtDD9C7hvuo)" d="M40,23h-6c-0.552,0-1-0.448-1-1v-3c0-0.552,0.448-1,1-1h6c0.552,0,1,0.448,1,1v3	C41,22.552,40.552,23,40,23z"/><linearGradient id="wUCqzI4yNz2YtDD9C7hvup" x1="35.579" x2="38.237" y1="23.173" y2="18.173" gradientTransform="matrix(1 0 0 -1 0 48)" gradientUnits="userSpaceOnUse"><stop offset="0" stop-color="#2ac782"/><stop offset="1" stop-color="#21b876"/></linearGradient><path fill="url(#wUCqzI4yNz2YtDD9C7hvup)" d="M40,30h-6c-0.552,0-1-0.448-1-1v-3c0-0.552,0.448-1,1-1h6c0.552,0,1,0.448,1,1v3	C41,29.552,40.552,30,40,30z"/><linearGradient id="wUCqzI4yNz2YtDD9C7hvuq" x1="35.579" x2="38.237" y1="16.173" y2="11.173" gradientTransform="matrix(1 0 0 -1 0 48)" gradientUnits="userSpaceOnUse"><stop offset="0" stop-color="#bec5c8"/><stop offset=".968" stop-color="#b9c1c4"/></linearGradient><path fill="url(#wUCqzI4yNz2YtDD9C7hvuq)" d="M40,37h-6c-0.552,0-1-0.448-1-1v-3c0-0.552,0.448-1,1-1h6c0.552,0,1,0.448,1,1v3	C41,36.552,40.552,37,40,37z"/></svg>