<svg xmlns="http://www.w3.org/2000/svg" viewBox="0 0 48 48"><linearGradient id="EVobQPAPIfQ7FteTrQQSpa" x1="24.5" x2="24.5" y1="23.608" y2="9.439" gradientTransform="matrix(1 0 0 -1 0 36)" gradientUnits="userSpaceOnUse"><stop offset="0" stop-color="#a1aab3"/><stop offset="1" stop-color="#767d84"/></linearGradient><rect width="27" height="3" x="11" y="19" fill="url(#EVobQPAPIfQ7FteTrQQSpa)"/><linearGradient id="EVobQPAPIfQ7FteTrQQSpb" x1="19.852" x2="28.625" y1="32.067" y2="3.373" gradientTransform="matrix(1 0 0 -1 0 36)" gradientUnits="userSpaceOnUse"><stop offset="0" stop-color="#a1a7b0"/><stop offset="1" stop-color="#8f959b"/></linearGradient><path fill="url(#EVobQPAPIfQ7FteTrQQSpb)" d="M32,25c0,3.85-3.15,7-7,7h-2c-3.85,0-7-3.15-7-7V10c0-3.85,3.15-7,7-7h2c3.85,0,7,3.15,7,7V25	z"/><linearGradient id="EVobQPAPIfQ7FteTrQQSpc" x1="24" x2="24" y1="-858.262" y2="-851.547" gradientTransform="translate(0 896)" gradientUnits="userSpaceOnUse"><stop offset="0" stop-color="#484b4f"/><stop offset=".214" stop-color="#656d75"/><stop offset=".394" stop-color="#727d86"/></linearGradient><path fill="url(#EVobQPAPIfQ7FteTrQQSpc)" d="M31,41h-5v-5h-4v5h-5c-0.552,0-1,0.448-1,1v2c0,0.552,0.448,1,1,1h14c0.552,0,1-0.448,1-1v-2	C32,41.448,31.552,41,31,41z"/><path fill="#6d7479" d="M20.5,13H16v-3h4.5c0.828,0,1.5,0.672,1.5,1.5l0,0C22,12.328,21.328,13,20.5,13z"/><path fill="#6d7479" d="M20.5,19H16v-3h4.5c0.828,0,1.5,0.672,1.5,1.5l0,0C22,18.328,21.328,19,20.5,19z"/><path fill="#6d7479" d="M20.5,25H16v-3h4.5c0.828,0,1.5,0.672,1.5,1.5l0,0C22,24.328,21.328,25,20.5,25z"/><path fill="#6d7479" d="M27.5,22H32v3h-4.5c-0.828,0-1.5-0.672-1.5-1.5l0,0C26,22.672,26.672,22,27.5,22z"/><path fill="#6d7479" d="M27.5,16H32v3h-4.5c-0.828,0-1.5-0.672-1.5-1.5l0,0C26,16.672,26.672,16,27.5,16z"/><path fill="#6d7479" d="M27.5,10H32v3h-4.5c-0.828,0-1.5-0.672-1.5-1.5l0,0C26,10.672,26.672,10,27.5,10z"/><linearGradient id="EVobQPAPIfQ7FteTrQQSpd" x1="21.389" x2="28.844" y1="23.222" y2="-1.161" gradientTransform="matrix(1 0 0 -1 0 36)" gradientUnits="userSpaceOnUse"><stop offset="0" stop-color="#a1aab3"/><stop offset="1" stop-color="#767d84"/></linearGradient><path fill="url(#EVobQPAPIfQ7FteTrQQSpd)" d="M23.295,37.983C15.774,37.612,10,31.124,10,23.594V17c0-0.552,0.448-1,1-1h1	c0.552,0,1,0.448,1,1v6.678c0,5.725,4.24,10.736,9.94,11.272C29.48,35.566,35,30.415,35,24v-7c0-0.552,0.448-1,1-1h1	c0.552,0,1,0.448,1,1v7C38,31.953,31.334,38.379,23.295,37.983z"/></svg>