<svg xmlns="http://www.w3.org/2000/svg" viewBox="0 0 48 48"><linearGradient id="52vGsWgzkoPWg1nIzHP32a" x1="24.061" x2="23.939" y1="5.997" y2="41.922" gradientUnits="userSpaceOnUse"><stop offset="0" stop-color="#b35e14"/><stop offset="1" stop-color="#a65613"/></linearGradient><path fill="url(#52vGsWgzkoPWg1nIzHP32a)" d="M23,6h2v13h-2V6z M23,42h2V29h-2V42z M29,23v2h13v-2H29z M19,23H6v2h13V23z M37.435,11.979	l-1.414-1.414l-9.192,9.192l1.414,1.414L37.435,11.979z M10.565,36.021l1.414,1.414l9.192-9.192l-1.414-1.414L10.565,36.021z M26.828,28.243l9.192,9.192l1.414-1.414l-9.192-9.192L26.828,28.243z M10.565,11.979l9.192,9.192l1.414-1.414l-9.192-9.192	L10.565,11.979z"/><linearGradient id="52vGsWgzkoPWg1nIzHP32b" x1="23.703" x2="24.338" y1="2.99" y2="7.289" gradientUnits="userSpaceOnUse"><stop offset="0" stop-color="#eba84b"/><stop offset=".252" stop-color="#e9a144"/><stop offset=".624" stop-color="#e28d31"/><stop offset="1" stop-color="#d97218"/></linearGradient><path fill="url(#52vGsWgzkoPWg1nIzHP32b)" d="M24,3c-1.105,0-2,0.895-2,2s0.895,2,2,2s2-0.895,2-2S25.105,3,24,3z"/><linearGradient id="52vGsWgzkoPWg1nIzHP32c" x1="23.703" x2="24.338" y1="40.99" y2="45.289" gradientUnits="userSpaceOnUse"><stop offset="0" stop-color="#eba84b"/><stop offset=".252" stop-color="#e9a144"/><stop offset=".624" stop-color="#e28d31"/><stop offset="1" stop-color="#d97218"/></linearGradient><path fill="url(#52vGsWgzkoPWg1nIzHP32c)" d="M24,41c-1.105,0-2,0.895-2,2s0.895,2,2,2s2-0.895,2-2S25.105,41,24,41z"/><linearGradient id="52vGsWgzkoPWg1nIzHP32d" x1="42.703" x2="43.338" y1="21.99" y2="26.289" gradientUnits="userSpaceOnUse"><stop offset="0" stop-color="#eba84b"/><stop offset=".252" stop-color="#e9a144"/><stop offset=".624" stop-color="#e28d31"/><stop offset="1" stop-color="#d97218"/></linearGradient><path fill="url(#52vGsWgzkoPWg1nIzHP32d)" d="M43,22c-1.105,0-2,0.895-2,2s0.895,2,2,2s2-0.895,2-2S44.105,22,43,22z"/><linearGradient id="52vGsWgzkoPWg1nIzHP32e" x1="23.109" x2="25.015" y1="17.969" y2="30.868" gradientUnits="userSpaceOnUse"><stop offset="0" stop-color="#eba84b"/><stop offset=".252" stop-color="#e9a144"/><stop offset=".624" stop-color="#e28d31"/><stop offset="1" stop-color="#d97218"/></linearGradient><path fill="url(#52vGsWgzkoPWg1nIzHP32e)" d="M24,18c-3.314,0-6,2.686-6,6s2.686,6,6,6s6-2.686,6-6S27.314,18,24,18z M24,27	c-1.657,0-3-1.343-3-3s1.343-3,3-3s3,1.343,3,3S25.657,27,24,27z"/><linearGradient id="52vGsWgzkoPWg1nIzHP32f" x1="21.773" x2="26.536" y1="8.922" y2="41.17" gradientUnits="userSpaceOnUse"><stop offset="0" stop-color="#eba84b"/><stop offset=".252" stop-color="#e9a144"/><stop offset=".624" stop-color="#e28d31"/><stop offset="1" stop-color="#d97218"/></linearGradient><path fill="url(#52vGsWgzkoPWg1nIzHP32f)" d="M24,9C15.716,9,9,15.716,9,24s6.716,15,15,15s15-6.716,15-15S32.284,9,24,9z M24,36	c-6.627,0-12-5.373-12-12s5.373-12,12-12s12,5.373,12,12S30.627,36,24,36z"/><linearGradient id="52vGsWgzkoPWg1nIzHP32g" x1="4.703" x2="5.338" y1="21.99" y2="26.289" gradientUnits="userSpaceOnUse"><stop offset="0" stop-color="#eba84b"/><stop offset=".252" stop-color="#e9a144"/><stop offset=".624" stop-color="#e28d31"/><stop offset="1" stop-color="#d97218"/></linearGradient><path fill="url(#52vGsWgzkoPWg1nIzHP32g)" d="M5,22c-1.105,0-2,0.895-2,2s0.895,2,2,2s2-0.895,2-2S6.105,22,5,22z"/><linearGradient id="52vGsWgzkoPWg1nIzHP32h" x1="23.703" x2="24.338" y1="2.99" y2="7.289" gradientTransform="translate(13.435 5.565)" gradientUnits="userSpaceOnUse"><stop offset="0" stop-color="#eba84b"/><stop offset=".252" stop-color="#e9a144"/><stop offset=".624" stop-color="#e28d31"/><stop offset="1" stop-color="#d97218"/></linearGradient><path fill="url(#52vGsWgzkoPWg1nIzHP32h)" d="M37.435,8.565c-1.105,0-2,0.895-2,2s0.895,2,2,2s2-0.895,2-2S38.54,8.565,37.435,8.565z"/><linearGradient id="52vGsWgzkoPWg1nIzHP32i" x1="23.703" x2="24.338" y1="40.99" y2="45.289" gradientTransform="translate(-13.435 -5.565)" gradientUnits="userSpaceOnUse"><stop offset="0" stop-color="#eba84b"/><stop offset=".252" stop-color="#e9a144"/><stop offset=".624" stop-color="#e28d31"/><stop offset="1" stop-color="#d97218"/></linearGradient><path fill="url(#52vGsWgzkoPWg1nIzHP32i)" d="M10.565,35.435c-1.105,0-2,0.895-2,2s0.895,2,2,2s2-0.895,2-2S11.67,35.435,10.565,35.435z"/><linearGradient id="52vGsWgzkoPWg1nIzHP32j" x1="42.703" x2="43.338" y1="21.99" y2="26.289" gradientTransform="translate(-5.565 13.435)" gradientUnits="userSpaceOnUse"><stop offset="0" stop-color="#eba84b"/><stop offset=".252" stop-color="#e9a144"/><stop offset=".624" stop-color="#e28d31"/><stop offset="1" stop-color="#d97218"/></linearGradient><path fill="url(#52vGsWgzkoPWg1nIzHP32j)" d="M37.435,35.435c-1.105,0-2,0.895-2,2s0.895,2,2,2s2-0.895,2-2S38.54,35.435,37.435,35.435z"/><linearGradient id="52vGsWgzkoPWg1nIzHP32k" x1="4.703" x2="5.338" y1="21.99" y2="26.289" gradientTransform="translate(5.565 -13.435)" gradientUnits="userSpaceOnUse"><stop offset="0" stop-color="#eba84b"/><stop offset=".252" stop-color="#e9a144"/><stop offset=".624" stop-color="#e28d31"/><stop offset="1" stop-color="#d97218"/></linearGradient><path fill="url(#52vGsWgzkoPWg1nIzHP32k)" d="M10.565,8.565c-1.105,0-2,0.895-2,2s0.895,2,2,2s2-0.895,2-2S11.67,8.565,10.565,8.565z"/></svg>