<svg xmlns="http://www.w3.org/2000/svg" viewBox="0 0 48 48"><linearGradient id="flMmIVdrT6IF31EHq38Gma" x1="13.963" x2="33.864" y1="6.616" y2="41.086" gradientUnits="userSpaceOnUse"><stop offset="0" stop-color="#889097"/><stop offset="1" stop-color="#4c5963"/></linearGradient><circle cx="24" cy="24" r="20" fill="url(#flMmIVdrT6IF31EHq38Gma)"/><path fill="#1d1d1b" d="M31.001,37c-0.951,0-1.854-0.456-2.417-1.22L24,29.558l-4.584,6.222 c-0.945,1.283-2.91,1.583-4.195,0.636c-1.332-0.981-1.617-2.863-0.636-4.195l5.689-7.721l-5.689-7.72 c-0.981-1.332-0.696-3.214,0.636-4.195c1.334-0.979,3.215-0.693,4.195,0.636L24,19.442l4.584-6.222 c0.98-1.332,2.862-1.618,4.195-0.636c1.332,0.981,1.617,2.863,0.636,4.195L27.727,24.5l5.689,7.72 c0.981,1.332,0.696,3.214-0.636,4.195C32.259,36.798,31.645,37,31.001,37z M24,26.187l6.195,8.407 c0.316,0.43,0.964,0.532,1.399,0.211c0.443-0.327,0.538-0.954,0.211-1.398L25.242,24.5l6.563-8.907 c0.327-0.444,0.232-1.071-0.212-1.398c-0.444-0.328-1.071-0.233-1.398,0.211L24,22.813l-6.195-8.407 c-0.327-0.443-0.956-0.539-1.4-0.211c-0.442,0.326-0.538,0.954-0.21,1.398l6.563,8.906l-6.563,8.907 c-0.327,0.444-0.232,1.071,0.212,1.398c0.433,0.318,1.081,0.218,1.399-0.212L24,26.187z" opacity=".05"/><path d="M31.001,36.5c-0.792,0-1.545-0.38-2.014-1.017L24,28.715l-4.987,6.768c-0.787,1.069-2.424,1.318-3.496,0.53 c-1.11-0.818-1.348-2.386-0.53-3.496l5.908-8.017l-5.907-8.017c-0.818-1.11-0.58-2.678,0.53-3.496 c1.112-0.816,2.68-0.577,3.496,0.53L24,20.285l4.987-6.768c0.816-1.11,2.386-1.348,3.496-0.53c1.11,0.818,1.348,2.386,0.53,3.496 L27.105,24.5l5.907,8.017c0.818,1.11,0.58,2.678-0.53,3.496C32.049,36.332,31.537,36.5,31.001,36.5z M24,27.029l5.792,7.861 c0.476,0.645,1.446,0.796,2.099,0.317c0.665-0.49,0.808-1.432,0.317-2.098l-6.344-8.61l6.345-8.61 c0.49-0.666,0.348-1.607-0.318-2.098c-0.666-0.491-1.608-0.348-2.097,0.318L24,21.971l-5.792-7.861 c-0.491-0.665-1.433-0.807-2.099-0.317c-0.665,0.49-0.808,1.431-0.317,2.097l6.344,8.61l-6.345,8.61 c-0.49,0.666-0.348,1.607,0.318,2.098c0.643,0.474,1.625,0.323,2.098-0.318L24,27.029z" opacity=".07"/><path fill="#1ea2e4" d="M26.485,24.5l6.126-8.313c0.655-0.889,0.465-2.142-0.424-2.797 c-0.891-0.656-2.142-0.465-2.797,0.424L24,21.128l-5.39-7.315c-0.655-0.889-1.907-1.077-2.797-0.424 c-0.889,0.655-1.079,1.908-0.424,2.797l6.126,8.313l-6.126,8.313c-0.655,0.889-0.465,2.142,0.424,2.797 c0.357,0.263,0.773,0.39,1.185,0.39c0.614,0,1.22-0.282,1.612-0.813L24,27.872l5.39,7.315C29.782,35.719,30.388,36,31.001,36 c0.412,0,0.828-0.127,1.185-0.39c0.889-0.655,1.079-1.908,0.424-2.797L26.485,24.5z"/></svg>