<svg xmlns="http://www.w3.org/2000/svg" viewBox="0 0 48 48"><path fill="#646dd1" d="M3.55,32.68L6.37,35l4.315,1L15,35h29c0.55,0,1-0.45,1-1v-5c0-0.55-0.45-1-1-1H15v-4.98	c0-0.86-0.98-1.33-1.63-0.79l-9.82,8.09C2.82,30.93,2.82,32.07,3.55,32.68z"/><path fill="#64717c" d="M4,9h40c0.552,0,1,0.448,1,1l0,0c0,0.552-0.448,1-1,1H4c-0.552,0-1-0.448-1-1l0,0	C3,9.448,3.448,9,4,9z"/><circle cx="37" cy="10" r="4" fill="#23d9d6"/><circle cx="24" cy="10" r="4" fill="#23d9d6"/><circle cx="11" cy="10" r="4" fill="#23d9d6"/><linearGradient id="uyvz1cSGPBFv9Mp2xERQLa" x1="-508.685" x2="-508.685" y1="24.287" y2="30.235" gradientTransform="rotate(180 -249 31.945)" gradientUnits="userSpaceOnUse"><stop offset="0" stop-color="#5961c3"/><stop offset=".002" stop-color="#5961c3"/><stop offset=".439" stop-color="#5961c3"/><stop offset=".469" stop-color="#5961c3"/><stop offset=".616" stop-color="#4e55bb"/><stop offset=".799" stop-color="#3a41ac"/></linearGradient><path fill="url(#uyvz1cSGPBFv9Mp2xERQLa)" d="M6.37,35l7,5.77c0.65,0.54,1.63,0.07,1.63-0.79V35H6.37z"/></svg>