<svg xmlns="http://www.w3.org/2000/svg" data-name="Слой 1" viewBox="0 0 48 48"><defs><linearGradient id="W5Vljg65V0V6h_2lbBT9fa" x1="10.5" x2="10.5" y1="19.446" y2="8.837" data-name="Безымянный градиент 172" gradientUnits="userSpaceOnUse"><stop offset="0" stop-color="#a34f27"/><stop offset=".24" stop-color="#994620"/><stop offset=".587" stop-color="#8b3817"/><stop offset="1" stop-color="#802d10"/></linearGradient><linearGradient id="W5Vljg65V0V6h_2lbBT9fb" x1="6.707" x2="13.627" y1="15.707" y2="22.627" data-name="Безымянный градиент 101" gradientUnits="userSpaceOnUse"><stop offset="0" stop-color="#21ad64"/><stop offset="1" stop-color="#088242"/></linearGradient><linearGradient id="W5Vljg65V0V6h_2lbBT9fc" x1="10.882" x2="30.709" y1="-12.042" y2="42.432" data-name="Безымянный градиент 171" gradientTransform="rotate(-180 24 24)" gradientUnits="userSpaceOnUse"><stop offset="0" stop-color="#fff0ce"/><stop offset="1" stop-color="#ffda94"/></linearGradient><linearGradient id="W5Vljg65V0V6h_2lbBT9fd" x1="5.224" x2="32.676" y1="-26.214" y2="49.21" data-name="Безымянный градиент 102" gradientUnits="userSpaceOnUse"><stop offset="0" stop-color="#f5b967"/><stop offset="1" stop-color="#eba84b"/></linearGradient></defs><rect width="1" height="10" x="10" y="8" fill="url(#W5Vljg65V0V6h_2lbBT9fa)"/><circle cx="10.5" cy="19.5" r="2.5" fill="url(#W5Vljg65V0V6h_2lbBT9fb)"/><rect width="16" height="34" x="16" y="7" fill="url(#W5Vljg65V0V6h_2lbBT9fc)" transform="rotate(180 24 24)"/><path fill="url(#W5Vljg65V0V6h_2lbBT9fd)" d="M7,7.5H7A1.5,1.5,0,0,1,8.5,6h31A1.5,1.5,0,0,1,41,7.5h0A1.5,1.5,0,0,1,39.5,9H8.5A1.5,1.5,0,0,1,7,7.5ZM7.5,42h33A1.5,1.5,0,0,0,42,40.5h0A1.5,1.5,0,0,0,40.5,39H7.5A1.5,1.5,0,0,0,6,40.5H6A1.5,1.5,0,0,0,7.5,42ZM33,12h0a1,1,0,0,0-1-1H16a1,1,0,0,0-1,1h0a1,1,0,0,0,1,1H32A1,1,0,0,0,33,12Zm0,4h0a1,1,0,0,0-1-1H16a1,1,0,0,0-1,1h0a1,1,0,0,0,1,1H32A1,1,0,0,0,33,16Zm0,4h0a1,1,0,0,0-1-1H16a1,1,0,0,0-1,1h0a1,1,0,0,0,1,1H32A1,1,0,0,0,33,20Zm0,4h0a1,1,0,0,0-1-1H16a1,1,0,0,0-1,1h0a1,1,0,0,0,1,1H32A1,1,0,0,0,33,24Zm0,4h0a1,1,0,0,0-1-1H16a1,1,0,0,0-1,1h0a1,1,0,0,0,1,1H32A1,1,0,0,0,33,28Zm0,4h0a1,1,0,0,0-1-1H16a1,1,0,0,0-1,1h0a1,1,0,0,0,1,1H32A1,1,0,0,0,33,32Zm0,4h0a1,1,0,0,0-1-1H16a1,1,0,0,0-1,1h0a1,1,0,0,0,1,1H32A1,1,0,0,0,33,36Z"/></svg>