<svg xmlns="http://www.w3.org/2000/svg" viewBox="0 0 48 48"><linearGradient id="30xKrDxgk7QXuIS2ESBh3a" x1="6.811" x2="13.198" y1="9.014" y2="33.458" gradientUnits="userSpaceOnUse"><stop offset="0" stop-color="#5961c3"/><stop offset="1" stop-color="#3a41ac"/></linearGradient><path fill="url(#30xKrDxgk7QXuIS2ESBh3a)" d="M11.5,17C8.463,17,6,19.462,6,22.5V32c0,0.552,0.448,1,1,1h9c0.552,0,1-0.448,1-1v-9.5	C17,19.462,14.537,17,11.5,17z"/><linearGradient id="30xKrDxgk7QXuIS2ESBh3b" x1="10.592" x2="16.98" y1="8.026" y2="32.47" gradientUnits="userSpaceOnUse"><stop offset="0" stop-color="#5961c3"/><stop offset="1" stop-color="#3a41ac"/></linearGradient><circle cx="11.5" cy="11.5" r="3.5" fill="url(#30xKrDxgk7QXuIS2ESBh3b)"/><linearGradient id="30xKrDxgk7QXuIS2ESBh3c" x1="14.803" x2="23.235" y1="7.798" y2="36.841" gradientUnits="userSpaceOnUse"><stop offset="0" stop-color="#5961c3"/><stop offset="1" stop-color="#3a41ac"/></linearGradient><path fill="url(#30xKrDxgk7QXuIS2ESBh3c)" d="M21,18c-3.314,0-6,2.687-6,6v11c0,0.552,0.448,1,1,1h10c0.552,0,1-0.448,1-1V24	C27,20.687,24.314,18,21,18z"/><linearGradient id="30xKrDxgk7QXuIS2ESBh3d" x1="19.661" x2="28.093" y1="6.387" y2="35.431" gradientUnits="userSpaceOnUse"><stop offset="0" stop-color="#5961c3"/><stop offset="1" stop-color="#3a41ac"/></linearGradient><circle cx="21" cy="11" r="4" fill="url(#30xKrDxgk7QXuIS2ESBh3d)"/><linearGradient id="30xKrDxgk7QXuIS2ESBh3e" x1="23.546" x2="36.151" y1="6.673" y2="44.233" gradientUnits="userSpaceOnUse"><stop offset="0" stop-color="#5961c3"/><stop offset="1" stop-color="#3a41ac"/></linearGradient><path fill="url(#30xKrDxgk7QXuIS2ESBh3e)" d="M33,20c-4.97,0-9,4.03-9,9v13c0,0.552,0.448,1,1,1h16c0.552,0,1-0.448,1-1V29	C42,24.03,37.97,20,33,20z"/><linearGradient id="30xKrDxgk7QXuIS2ESBh3f" x1="30.738" x2="43.343" y1="4.259" y2="41.82" gradientUnits="userSpaceOnUse"><stop offset="0" stop-color="#5961c3"/><stop offset="1" stop-color="#3a41ac"/></linearGradient><circle cx="33" cy="11" r="6" fill="url(#30xKrDxgk7QXuIS2ESBh3f)"/></svg>