<svg xmlns="http://www.w3.org/2000/svg" viewBox="0 0 48 48"><linearGradient id="xPotfhiVCynzbRyK5QZSta" x1="17.532" x2="34.595" y1="4.227" y2="37.543" gradientUnits="userSpaceOnUse"><stop offset=".008" stop-color="#f44f5a"/><stop offset=".447" stop-color="#ee3d4a"/><stop offset="1" stop-color="#e52030"/></linearGradient><path fill="url(#xPotfhiVCynzbRyK5QZSta)" d="M24,4C15.421,4,8.125,9.412,5.284,17h37.431C39.875,9.412,32.579,4,24,4z"/><linearGradient id="xPotfhiVCynzbRyK5QZStb" x1="14.635" x2="34.445" y1="16.36" y2="48.12" gradientUnits="userSpaceOnUse"><stop offset="0" stop-color="#636363"/><stop offset=".998" stop-color="#3b3b3b"/></linearGradient><path fill="url(#xPotfhiVCynzbRyK5QZStb)" d="M42.716,31H5.284C8.125,38.588,15.421,44,24,44S39.875,38.588,42.716,31z"/><linearGradient id="xPotfhiVCynzbRyK5QZStc" x1="20.752" x2="36.872" y1="16.623" y2="53.232" gradientUnits="userSpaceOnUse"><stop offset="0" stop-color="#dfe9f2"/><stop offset=".998" stop-color="#9ea7b0"/></linearGradient><path fill="url(#xPotfhiVCynzbRyK5QZStc)" d="M44,24c0-2.467-0.468-4.818-1.284-7H5.284C4.468,19.182,4,21.533,4,24s0.468,4.818,1.284,7	h37.431C43.532,28.818,44,26.467,44,24z"/><linearGradient id="xPotfhiVCynzbRyK5QZStd" x1="22.773" x2="26.894" y1="22.293" y2="31.404" gradientUnits="userSpaceOnUse"><stop offset="0" stop-color="#f09701"/><stop offset="1" stop-color="#e36001"/></linearGradient><path fill="url(#xPotfhiVCynzbRyK5QZStd)" d="M29,22.262v5.488c0,0.693-0.557,1.25-1.25,1.25L24,26.5L20.25,29	C19.557,29,19,28.443,19,27.75v-5.488c0-0.693,0.557-1.25,1.25-1.25H23V20c0-0.552,0.448-1,1-1s1,0.448,1,1v1.012h2.75	C28.443,21.012,29,21.569,29,22.262z M25.25,29L24,26.5L22.75,29H25.25z"/></svg>