<svg xmlns="http://www.w3.org/2000/svg" viewBox="0 0 48 48"><radialGradient id="k_V9Ss~5oqhLTyfVqL70Ea" cx="57.265" cy="28.621" r="39.962" gradientTransform="matrix(0 -1 .9696 0 -3.632 61.5)" gradientUnits="userSpaceOnUse"><stop offset="0" stop-color="#a8e2f7"/><stop offset="1" stop-color="#47c1ff"/></radialGradient><path fill="url(#k_V9Ss~5oqhLTyfVqL70Ea)" d="M39,27.747c0-11.037-6.716-23.73-15-23.73S9,16.71,9,27.747s6.716,16.237,15,16.237	S39,38.783,39,27.747z"/><linearGradient id="k_V9Ss~5oqhLTyfVqL70Eb" x1="18.5" x2="18.5" y1="25.149" y2="13.941" gradientUnits="userSpaceOnUse"><stop offset=".002" stop-color="#454545"/><stop offset=".013" stop-color="#464646"/><stop offset=".875" stop-color="#626262"/><stop offset="1" stop-color="#6d6d6d"/></linearGradient><circle cx="18.5" cy="23.517" r="2.5" fill="url(#k_V9Ss~5oqhLTyfVqL70Eb)"/><linearGradient id="k_V9Ss~5oqhLTyfVqL70Ec" x1="29.5" x2="29.5" y1="25.149" y2="13.941" gradientUnits="userSpaceOnUse"><stop offset=".002" stop-color="#454545"/><stop offset=".013" stop-color="#464646"/><stop offset=".875" stop-color="#626262"/><stop offset="1" stop-color="#6d6d6d"/></linearGradient><circle cx="29.5" cy="23.517" r="2.5" fill="url(#k_V9Ss~5oqhLTyfVqL70Ec)"/><linearGradient id="k_V9Ss~5oqhLTyfVqL70Ed" x1="18" x2="18" y1="20.252" y2="25.899" gradientUnits="userSpaceOnUse"><stop offset="0" stop-color="#f9f9f9"/><stop offset="1" stop-color="#c2c8cc"/></linearGradient><circle cx="18" cy="23.017" r="1" fill="url(#k_V9Ss~5oqhLTyfVqL70Ed)"/><linearGradient id="k_V9Ss~5oqhLTyfVqL70Ee" x1="29" x2="29" y1="20.252" y2="25.899" gradientUnits="userSpaceOnUse"><stop offset="0" stop-color="#f9f9f9"/><stop offset="1" stop-color="#c2c8cc"/></linearGradient><circle cx="29" cy="23.017" r="1" fill="url(#k_V9Ss~5oqhLTyfVqL70Ee)"/><circle cx="14" cy="30.017" r="2" fill="#eb6773"/><circle cx="34" cy="30.017" r="2" fill="#eb6773"/><linearGradient id="k_V9Ss~5oqhLTyfVqL70Ef" x1="24" x2="24" y1="33.37" y2="21.63" gradientUnits="userSpaceOnUse"><stop offset=".002" stop-color="#454545"/><stop offset=".013" stop-color="#464646"/><stop offset=".875" stop-color="#626262"/><stop offset="1" stop-color="#6d6d6d"/></linearGradient><path fill="url(#k_V9Ss~5oqhLTyfVqL70Ef)" d="M24,33.017c-2.206,0-4-1.794-4-4c0-0.553,0.447-1,1-1s1,0.447,1,1c0,1.103,0.897,2,2,2	s2-0.897,2-2c0-0.553,0.447-1,1-1s1,0.447,1,1C28,31.223,26.206,33.017,24,33.017z"/></svg>