<svg xmlns="http://www.w3.org/2000/svg" data-name="Слой 1" viewBox="0 0 48 48"><defs><linearGradient id="HSYVMgkmOcjj3sm_tAo9Ia" x1="18.263" x2="35.25" y1="5.239" y2="51.909" data-name="Безымянный градиент 93" gradientUnits="userSpaceOnUse"><stop offset="0" stop-color="#5059c9"/><stop offset="1" stop-color="#4047a1"/></linearGradient></defs><rect width="8" height="4" x="10" y="9" fill="#7b83eb" rx="1"/><rect width="8" height="4" x="30" y="9" fill="#7b83eb" rx="1"/><circle cx="8.5" cy="36.5" r="3.5" fill="#586169"/><circle cx="17.5" cy="36.5" r="3.5" fill="#586169"/><circle cx="30.5" cy="36.5" r="3.5" fill="#586169"/><circle cx="39.5" cy="36.5" r="3.5" fill="#586169"/><rect width="10" height="2" x="8" y="36" fill="#999" rx="1"/><rect width="10" height="2" x="30" y="36" fill="#999" rx="1"/><path fill="url(#HSYVMgkmOcjj3sm_tAo9Ia)" d="M42,11H6c-1.65686,0-3,4.47711-3,10S4.34314,31,6,31H42c1.65686,0,3-4.47717,3-10S43.65686,11,42,11Z"/><path fill="#333538" d="M28,22.99952a4,4,0,0,1-8,0C20,20.79967,24,16,24,16S28,20.79967,28,22.99952Z"/><rect width="42" height="3" x="3" y="31" fill="#7b83eb" rx="1.5"/></svg>