<svg xmlns="http://www.w3.org/2000/svg" xmlns:xlink="http://www.w3.org/1999/xlink" data-name="Слой 1" viewBox="0 0 48 48"><defs><linearGradient id="zXnKX6cwv1tKIAmhWM1dRc" x1="15.518" x2="31.518" y1="37.041" y2="11.764" data-name="Безымянный градиент 56" gradientUnits="userSpaceOnUse"><stop offset="0" stop-color="#42a3f2"/><stop offset="1" stop-color="#42a4eb"/></linearGradient><linearGradient id="zXnKX6cwv1tKIAmhWM1dRa" x1="31.216" x2="22.709" y1="-2002.127" y2="-1993.112" data-name="Безымянный градиент 130" gradientTransform="matrix(1 0 0 -1 0 -1980)" gradientUnits="userSpaceOnUse"><stop offset="0" stop-color="#3079d6"/><stop offset="1" stop-color="#297cd2"/></linearGradient><linearGradient id="zXnKX6cwv1tKIAmhWM1dRd" x1="17.999" x2="12.093" y1="-2000.14" y2="-1993.88" xlink:href="#zXnKX6cwv1tKIAmhWM1dRa"/><linearGradient id="zXnKX6cwv1tKIAmhWM1dRe" x1="24" x2="24" y1="28.783" y2="41.566" data-name="Безымянный градиент 30" gradientUnits="userSpaceOnUse"><stop offset="0" stop-color="#737b80"/><stop offset="1" stop-color="#575c61"/></linearGradient><linearGradient id="zXnKX6cwv1tKIAmhWM1dRb" x1="17.09" x2="12.882" y1="2463.09" y2="2458.882" data-name="Безымянный градиент 29" gradientTransform="translate(0 -2426)" gradientUnits="userSpaceOnUse"><stop offset="0" stop-color="#ccc"/><stop offset=".396" stop-color="#bbb"/><stop offset="1" stop-color="#999"/></linearGradient><linearGradient id="zXnKX6cwv1tKIAmhWM1dRf" x1="8.09" x2="3.882" y1="2463.09" y2="2458.882" xlink:href="#zXnKX6cwv1tKIAmhWM1dRb"/><linearGradient id="zXnKX6cwv1tKIAmhWM1dRg" x1="26.09" x2="21.882" y1="2463.09" y2="2458.882" xlink:href="#zXnKX6cwv1tKIAmhWM1dRb"/><linearGradient id="zXnKX6cwv1tKIAmhWM1dRh" x1="35.09" x2="30.882" y1="2463.09" y2="2458.882" xlink:href="#zXnKX6cwv1tKIAmhWM1dRb"/><linearGradient id="zXnKX6cwv1tKIAmhWM1dRi" x1="44.09" x2="39.882" y1="2463.09" y2="2458.882" xlink:href="#zXnKX6cwv1tKIAmhWM1dRb"/></defs><path fill="url(#zXnKX6cwv1tKIAmhWM1dRc)" d="M46.38379,21.81268a2.91,2.91,0,0,0-1.89459-2.42749l-8.69495-3.13684L30.5943,11.49841A5.70283,5.70283,0,0,0,26.74847,10H12.76257a3.81421,3.81421,0,0,0-3.06665,1.55676L7.1535,14.99811,3.277,16.74652A3.89646,3.89646,0,0,0,1,20.30365V27.346a1.94092,1.94092,0,0,0,1.33209,1.85351,14.78924,14.78924,0,0,0,3.31873.794h.34985a3.99933,3.99933,0,0,1,7.99866,0H35.00067a3.99933,3.99933,0,0,1,7.99866,0h.45105a7.46,7.46,0,0,0,2.36035-.64606,1.94372,1.94372,0,0,0,1.17773-2.016Z"/><path fill="url(#zXnKX6cwv1tKIAmhWM1dRa)" d="M20.98125,18.015V13a1.00294,1.00294,0,0,1,1-1H26.611a2,2,0,0,1,1.32818.50469l5.65585,5.0237A.842.842,0,0,1,33.03586,19H21.96621A.985.985,0,0,1,20.98125,18.015Z"/><path fill="url(#zXnKX6cwv1tKIAmhWM1dRd)" d="M13.28037,12H18.015a.985.985,0,0,1,.985.985V18.015a.98785.98785,0,0,1-.985.985H9.2317A.99368.99368,0,0,1,8.419,17.43459l3.2256-4.58531A2,2,0,0,1,13.28037,12Z"/><rect width="46" height="10" x="1" y="30" fill="url(#zXnKX6cwv1tKIAmhWM1dRe)"/><circle cx="15" cy="35" r="3" fill="url(#zXnKX6cwv1tKIAmhWM1dRb)"/><circle cx="6" cy="35" r="3" fill="url(#zXnKX6cwv1tKIAmhWM1dRf)"/><circle cx="24" cy="35" r="3" fill="url(#zXnKX6cwv1tKIAmhWM1dRg)"/><circle cx="33" cy="35" r="3" fill="url(#zXnKX6cwv1tKIAmhWM1dRh)"/><circle cx="42" cy="35" r="3" fill="url(#zXnKX6cwv1tKIAmhWM1dRi)"/></svg>