<svg xmlns="http://www.w3.org/2000/svg" data-name="Слой 1" viewBox="0 0 48 48"><defs><linearGradient id="LyMMWDCdqEPufnpsX~x8aa" x1="13.036" x2="30.999" y1="2.412" y2="51.765" data-name="Безымянный градиент 100" gradientUnits="userSpaceOnUse"><stop offset="0" stop-color="#21ad64"/><stop offset="1" stop-color="#088242"/></linearGradient></defs><path fill="url(#LyMMWDCdqEPufnpsX~x8aa)" d="M20.00385,35.99811,9.96582,35.979a1.9993,1.9993,0,0,1-1.72363-3.01318l2.82416-4.86914,3.11645,1.82947a.54224.54224,0,0,0,.80768-.56647l-1.48187-7.99139a1,1,0,0,0-1.28992-.76954l-7.84332,2.5271a.54007.54007,0,0,0-.10779.9798l3.34857,1.9657-2.832,4.88275A6,6,0,0,0,9.96191,39.979l10.03424.01911a1,1,0,0,0,1.0019-.998l.0039-2A1,1,0,0,0,20.00385,35.99811ZM25.72754,8.92578l4.72394,8.1012-3.1847,1.8695a.5401.5401,0,0,0,.10779.97986l7.84333,2.527a1,1,0,0,0,1.28991-.76947l1.48181-7.99139A.54226.54226,0,0,0,37.182,13.076l-3.28119,1.92615-4.71814-8.092a6.001,6.001,0,0,0-10.36426-.00147L13.2785,16.37653a1,1,0,0,0,.35816,1.36816l1.7268,1.01019a1.00006,1.00006,0,0,0,1.36805-.35815l5.54095-9.47a2.00054,2.00054,0,0,1,3.45508-.001ZM43.0921,30.742l-3.87317-6.63659a1.00008,1.00008,0,0,0-1.36779-.35962l-1.72779,1.00842a1.00006,1.00006,0,0,0-.35956,1.36774l3.99695,6.84875A1.99937,1.99937,0,0,1,38.0293,35.979l-7.03138.01838L31,32.24933a.54011.54011,0,0,0-.89935-.40363l-6.153,5.48127a1,1,0,0,0,.00977,1.50195l6.13855,5.327a.54223.54223,0,0,0,.89764-.40924l.00208-3.7492,7.03851-.01844a5.93921,5.93921,0,0,0,5.24939-3.09423A6.24412,6.24412,0,0,0,43.0921,30.742Z"/></svg>