<svg xmlns="http://www.w3.org/2000/svg" data-name="Слой 1" viewBox="0 0 48 48"><defs><linearGradient id="cEf5826mOUGr6E5ksbpiPa" x1="8.555" x2="26.381" y1="15.054" y2="32.88" data-name="Безымянный градиент 121" gradientTransform="rotate(-45 20.75 27.25)" gradientUnits="userSpaceOnUse"><stop offset="0" stop-color="#f44f5a"/><stop offset=".443" stop-color="#ee3d4a"/><stop offset="1" stop-color="#e52030"/></linearGradient><linearGradient id="cEf5826mOUGr6E5ksbpiPb" x1="5.665" x2="36.736" y1="27.662" y2="58.733" data-name="Безымянный градиент 93" gradientTransform="scale(1 .74847) rotate(-45 27.199 40.88)" gradientUnits="userSpaceOnUse"><stop offset="0" stop-color="#f9f9f9"/><stop offset=".966" stop-color="#c4c9cd"/><stop offset="1" stop-color="#c2c8cc"/></linearGradient><linearGradient id="cEf5826mOUGr6E5ksbpiPc" x1="19.555" x2="37.381" y1="4.054" y2="21.88" gradientTransform="rotate(-45 31.75 16.25)" gradientUnits="userSpaceOnUse"><stop offset=".002" stop-color="#427fdb"/><stop offset=".397" stop-color="#2668cb"/><stop offset=".763" stop-color="#1358bf"/><stop offset="1" stop-color="#0c52bb"/></linearGradient></defs><path fill="#eb6773" d="M7.352,20.49542H27.151a0,0,0,0,1,0,0V38.58361a2.41791,2.41791,0,0,1-2.41791,2.41791H9.76994A2.41791,2.41791,0,0,1,7.352,38.58361V20.49542A0,0,0,0,1,7.352,20.49542Z" transform="rotate(45 17.252 30.748)"/><path fill="url(#cEf5826mOUGr6E5ksbpiPa)" d="M10.85127,20.5328h19.799a0,0,0,0,1,0,0V31.54844A2.41723,2.41723,0,0,1,28.233,33.96567H13.2685a2.41723,2.41723,0,0,1-2.41723-2.41723V20.5328a0,0,0,0,1,0,0Z" transform="rotate(45 20.75 27.25)"/><rect width="19.799" height="2.117" x="3.102" y="33.94" fill="url(#cEf5826mOUGr6E5ksbpiPb)" transform="rotate(45 13.002 34.998)"/><path fill="url(#cEf5826mOUGr6E5ksbpiPc)" d="M24.26918,5.9951H39.23235A2.41791,2.41791,0,0,1,41.65026,8.413V26.50337a0,0,0,0,1,0,0h-19.799a0,0,0,0,1,0,0V8.413A2.41791,2.41791,0,0,1,24.26918,5.9951Z" transform="rotate(45 31.75 16.25)"/></svg>