<svg xmlns="http://www.w3.org/2000/svg" viewBox="0 0 48 48"><radialGradient id="lc~hPqxWK_ubAnp1BRNLla" cx="876.341" cy="741.971" r="25.29" gradientTransform="rotate(-45.001 -416.612 1411.749)" gradientUnits="userSpaceOnUse"><stop offset=".752" stop-color="#076cb3"/><stop offset=".825" stop-color="#138cd2"/><stop offset=".865" stop-color="#1898de"/><stop offset="1" stop-color="#199ae0"/></radialGradient><path fill="url(#lc~hPqxWK_ubAnp1BRNLla)" d="M12.933,8.135L8,14.174v-9.54c0-0.528,0.639-0.792,1.013-0.419L12.933,8.135z"/><linearGradient id="lc~hPqxWK_ubAnp1BRNLlb" x1="38.076" x2="42.341" y1="4.582" y2="28.768" gradientTransform="matrix(-1 0 0 1 48 0)" gradientUnits="userSpaceOnUse"><stop offset="0" stop-color="#32bdef"/><stop offset="1" stop-color="#1ea2e4"/></linearGradient><path fill="url(#lc~hPqxWK_ubAnp1BRNLlb)" d="M5,25h3c0.553,0,1-0.448,1-1s-0.447-1-1-1H5c-0.553,0-1,0.448-1,1S4.447,25,5,25z"/><linearGradient id="lc~hPqxWK_ubAnp1BRNLlc" x1="36.578" x2="41.539" y1="3.989" y2="32.128" gradientTransform="matrix(-1 0 0 1 48 0)" gradientUnits="userSpaceOnUse"><stop offset="0" stop-color="#32bdef"/><stop offset="1" stop-color="#1ea2e4"/></linearGradient><path fill="url(#lc~hPqxWK_ubAnp1BRNLlc)" d="M5.649,29.92c0.087,0,0.174-0.012,0.262-0.035l2.89-0.78 c0.533-0.144,0.849-0.693,0.705-1.226c-0.145-0.534-0.692-0.849-1.227-0.705l-2.89,0.78c-0.533,0.144-0.849,0.693-0.705,1.226 C4.806,29.626,5.209,29.92,5.649,29.92z"/><linearGradient id="lc~hPqxWK_ubAnp1BRNLld" x1="34.031" x2="39.627" y1="3.69" y2="35.426" gradientTransform="matrix(-1 0 0 1 48 0)" gradientUnits="userSpaceOnUse"><stop offset="0" stop-color="#32bdef"/><stop offset="1" stop-color="#1ea2e4"/></linearGradient><path fill="url(#lc~hPqxWK_ubAnp1BRNLld)" d="M7.551,34.5c0.17,0,0.343-0.043,0.5-0.135l2.59-1.5c0.479-0.277,0.642-0.889,0.364-1.366 c-0.276-0.479-0.89-0.642-1.366-0.364l-2.59,1.5c-0.479,0.277-0.642,0.889-0.364,1.366C6.87,34.321,7.206,34.5,7.551,34.5z"/><linearGradient id="lc~hPqxWK_ubAnp1BRNLle" x1="30.589" x2="36.807" y1="3.562" y2="38.824" gradientTransform="matrix(-1 0 0 1 48 0)" gradientUnits="userSpaceOnUse"><stop offset="0" stop-color="#32bdef"/><stop offset="1" stop-color="#1ea2e4"/></linearGradient><path fill="url(#lc~hPqxWK_ubAnp1BRNLle)" d="M10.57,38.43c0.256,0,0.512-0.098,0.707-0.293l2.109-2.11c0.391-0.391,0.391-1.024,0-1.414 c-0.391-0.391-1.023-0.391-1.414,0l-2.109,2.11c-0.391,0.391-0.391,1.024,0,1.414C10.059,38.333,10.314,38.43,10.57,38.43z"/><linearGradient id="lc~hPqxWK_ubAnp1BRNLlf" x1="19.482" x2="26.572" y1="4.623" y2="44.836" gradientTransform="matrix(-1 0 0 1 48 0)" gradientUnits="userSpaceOnUse"><stop offset="0" stop-color="#32bdef"/><stop offset="1" stop-color="#1ea2e4"/></linearGradient><path fill="url(#lc~hPqxWK_ubAnp1BRNLlf)" d="M24,4c11.028,0,20,8.972,20,20s-8.972,20-20,20c-3.648,0-7.065-0.992-10.012-2.708 c-0.469-0.273-0.615-0.886-0.343-1.357l1.492-2.584c0.271-0.469,0.874-0.652,1.342-0.379C18.691,38.261,21.26,39,24,39 c8.271,0,15-6.729,15-15S32.271,9,24,9c-2.909,0-5.612,0.851-7.91,2.293l2.695,2.695C19.158,14.361,18.894,15,18.365,15l-9.573,0 C8.355,15,8,14.645,8,14.208v-2.157C11.651,7.175,17.454,4,24,4z"/></svg>