<svg xmlns="http://www.w3.org/2000/svg" viewBox="0 0 48 48"><linearGradient id="NDG_FH39D4kBhz3uKDHX7a" x1="6.032" x2="15.875" y1="23.955" y2="41.483" gradientUnits="userSpaceOnUse"><stop offset="0" stop-color="#31abec"/><stop offset=".324" stop-color="#2498e1"/><stop offset=".704" stop-color="#1988d8"/><stop offset="1" stop-color="#1582d5"/></linearGradient><path fill="url(#NDG_FH39D4kBhz3uKDHX7a)" d="M19,42H5c-1.105,0-2-0.895-2-2v-9c0-4.971,4.029-9,9-9h0c4.971,0,9,4.029,9,9v9 C21,41.105,20.105,42,19,42z"/><linearGradient id="NDG_FH39D4kBhz3uKDHX7b" x1="40.327" x2="29.961" y1="41.819" y2="24.375" gradientUnits="userSpaceOnUse"><stop offset="0" stop-color="#0968b5"/><stop offset="1" stop-color="#0471c7"/></linearGradient><path fill="url(#NDG_FH39D4kBhz3uKDHX7b)" d="M43,42H29c-1.105,0-2-0.895-2-2v-9c0-4.971,4.029-9,9-9h0c4.971,0,9,4.029,9,9v9 C45,41.105,44.105,42,43,42z"/><linearGradient id="NDG_FH39D4kBhz3uKDHX7c" x1="6.032" x2="15.875" y1="23.955" y2="41.483" gradientUnits="userSpaceOnUse"><stop offset="0" stop-color="#31abec"/><stop offset=".324" stop-color="#2498e1"/><stop offset=".704" stop-color="#1988d8"/><stop offset="1" stop-color="#1582d5"/></linearGradient><path fill="url(#NDG_FH39D4kBhz3uKDHX7c)" d="M19,42H5c-1.105,0-2-0.895-2-2v-9c0-4.971,4.029-9,9-9h0c4.971,0,9,4.029,9,9v9 C21,41.105,20.105,42,19,42z"/><linearGradient id="NDG_FH39D4kBhz3uKDHX7d" x1="20.608" x2="27.584" y1="382.392" y2="375.415" gradientTransform="matrix(1 0 0 -1 0 390)" gradientUnits="userSpaceOnUse"><stop offset="0" stop-color="#32bdef"/><stop offset="1" stop-color="#1ea2e4"/></linearGradient><circle cx="24" cy="11" r="5" fill="url(#NDG_FH39D4kBhz3uKDHX7d)"/><linearGradient id="NDG_FH39D4kBhz3uKDHX7e" x1="8.608" x2="15.584" y1="378.392" y2="371.415" gradientTransform="matrix(1 0 0 -1 0 390)" gradientUnits="userSpaceOnUse"><stop offset="0" stop-color="#31abec"/><stop offset="1" stop-color="#1582d5"/></linearGradient><circle cx="12" cy="15" r="5" fill="url(#NDG_FH39D4kBhz3uKDHX7e)"/><linearGradient id="NDG_FH39D4kBhz3uKDHX7f" x1="40.327" x2="29.961" y1="41.819" y2="24.375" gradientUnits="userSpaceOnUse"><stop offset="0" stop-color="#0968b5"/><stop offset="1" stop-color="#0471c7"/></linearGradient><path fill="url(#NDG_FH39D4kBhz3uKDHX7f)" d="M43,42H29c-1.105,0-2-0.895-2-2v-9c0-4.971,4.029-9,9-9h0c4.971,0,9,4.029,9,9v9 C45,41.105,44.105,42,43,42z"/><linearGradient id="NDG_FH39D4kBhz3uKDHX7g" x1="32.608" x2="39.584" y1="378.392" y2="371.415" gradientTransform="matrix(1 0 0 -1 0 390)" gradientUnits="userSpaceOnUse"><stop offset="0" stop-color="#0471c7"/><stop offset="1" stop-color="#0968b5"/></linearGradient><circle cx="36" cy="15" r="5" fill="url(#NDG_FH39D4kBhz3uKDHX7g)"/><g opacity=".05"><path d="M20.723,41H16c-0.551,0-1-0.449-1-1V28c0-1.78,0.526-3.436,1.421-4.834c-0.582-0.329-1.203-0.596-1.857-0.79 C13.578,24.024,13,25.943,13,28v12c0,0.771,0.301,1.468,0.78,2H19C19.738,42,20.376,41.595,20.723,41z"/><path d="M35,40V28c0-2.057-0.578-3.976-1.564-5.624c-0.654,0.194-1.275,0.461-1.857,0.79C32.474,24.564,33,26.22,33,28v12 c0,0.551-0.449,1-1,1h-4.723c0.346,0.595,0.984,1,1.723,1h5.22C34.699,41.468,35,40.771,35,40z"/></g><g opacity=".07"><path d="M20.31,41.5H16c-0.827,0-1.5-0.673-1.5-1.5V28c0-1.863,0.547-3.597,1.477-5.065c-0.301-0.149-0.61-0.28-0.929-0.395 C14.073,24.134,13.5,25.999,13.5,28v12c0,0.821,0.403,1.544,1.015,2H19C19.504,42,19.958,41.807,20.31,41.5z"/><path d="M34.5,40V28c0-2.001-0.573-3.866-1.548-5.459c-0.318,0.115-0.628,0.246-0.929,0.395C32.953,24.403,33.5,26.137,33.5,28v12 c0,0.827-0.673,1.5-1.5,1.5h-4.31C28.042,41.807,28.496,42,29,42h4.485C34.097,41.544,34.5,40.821,34.5,40z"/></g><linearGradient id="NDG_FH39D4kBhz3uKDHX7h" x1="32.25" x2="16.778" y1="45.947" y2="21.374" gradientUnits="userSpaceOnUse"><stop offset="0" stop-color="#1ea2e4"/><stop offset="1" stop-color="#32bdef"/></linearGradient><path fill="url(#NDG_FH39D4kBhz3uKDHX7h)" d="M32,42H16c-1.105,0-2-0.895-2-2V28c0-5.523,4.477-10,10-10h0c5.523,0,10,4.477,10,10v12 C34,41.105,33.105,42,32,42z"/></svg>