<svg xmlns="http://www.w3.org/2000/svg" viewBox="0 0 48 48"><path fill="#5b6770" d="M24,46c-0.552,0-1-0.448-1-1V3c0-0.552,0.448-1,1-1s1,0.448,1,1v42C25,45.552,24.552,46,24,46z"/><line x1="24" x2="24" y1="6" y2="42" fill="none" stroke="#5b6770" stroke-linecap="round" stroke-linejoin="round" stroke-miterlimit="10" stroke-width="4"/><line x1="42" x2="6" y1="24" y2="24" fill="none" stroke="#5b6770" stroke-linecap="round" stroke-linejoin="round" stroke-miterlimit="10" stroke-width="4"/><line x1="36.728" x2="11.272" y1="36.728" y2="11.272" fill="none" stroke="#5b6770" stroke-linecap="round" stroke-linejoin="round" stroke-miterlimit="10" stroke-width="4"/><line x1="11.272" x2="36.728" y1="36.728" y2="11.272" fill="none" stroke="#5b6770" stroke-linecap="round" stroke-linejoin="round" stroke-miterlimit="10" stroke-width="4"/><path fill="#5b6770" d="M45,25H3c-0.552,0-1-0.448-1-1s0.448-1,1-1h42c0.552,0,1,0.448,1,1S45.552,25,45,25z"/><path fill="#5b6770" d="M9.151,39.849c-0.256,0-0.512-0.098-0.707-0.293c-0.391-0.391-0.391-1.023,0-1.414L38.142,8.444	c0.391-0.391,1.023-0.391,1.414,0s0.391,1.023,0,1.414L9.858,39.556C9.663,39.751,9.407,39.849,9.151,39.849z"/><path fill="#5b6770" d="M38.849,39.849c-0.256,0-0.512-0.098-0.707-0.293L8.444,9.858c-0.391-0.391-0.391-1.023,0-1.414	s1.023-0.391,1.414,0l29.698,29.698c0.391,0.391,0.391,1.023,0,1.414C39.361,39.751,39.105,39.849,38.849,39.849z"/><radialGradient id="DPVEhegroYfU8SSqitZjwa" cx="17.838" cy="18.072" r="26.714" gradientUnits="userSpaceOnUse"><stop offset="0" stop-color="#889097"/><stop offset="1" stop-color="#6b7781"/></radialGradient><circle cx="24" cy="24" r="18" fill="url(#DPVEhegroYfU8SSqitZjwa)"/><circle cx="18" cy="18" r="3" fill="#64717c"/></svg>