<svg xmlns="http://www.w3.org/2000/svg" viewBox="0 0 48 48"><path fill="#50e6ff" d="M24,4C12.954,4,4,12.954,4,24c0,11.046,8.954,20,20,20c5.376,0,10.246-2.132,13.84-5.583L24,24V4z"/><path fill="#0078d4" d="M44,24c0-11.046-8.954-20-20-20v20H44z"/><path fill="#199be2" d="M44,24H24l13.84,14.417C41.63,34.777,44,29.67,44,24z"/><linearGradient id="3T6LLpYqU3lUdpfA6rHO0a" x1="26" x2="44.616" y1="12.761" y2="12.761" gradientUnits="userSpaceOnUse"><stop offset="0" stop-color="#c965eb"/><stop offset="1" stop-color="#c767e5"/></linearGradient><path fill="url(#3T6LLpYqU3lUdpfA6rHO0a)" d="M33.654,3.522L26,22l18.616-7.269C42.704,9.836,38.892,5.692,33.654,3.522z"/></svg>