<svg xmlns="http://www.w3.org/2000/svg" viewBox="0 0 48 48"><linearGradient id="aQdJS1uTdbKSUN1xbylwta" x1="20.035" x2="4.818" y1="2005.721" y2="2021.585" gradientTransform="translate(0 -1978)" gradientUnits="userSpaceOnUse"><stop offset="0" stop-color="#e5a505"/><stop offset=".01" stop-color="#e9a804"/><stop offset=".06" stop-color="#f4b102"/><stop offset=".129" stop-color="#fbb600"/><stop offset=".323" stop-color="#fdb700"/></linearGradient><path fill="url(#aQdJS1uTdbKSUN1xbylwta)" d="M12,41.5c0-1.381,1.119-2.5,2.5-2.5c0.156,0,0.307,0.019,0.454,0.046l1.186-1.186	C16.058,37.586,16,37.301,16,37c0-1.657,1.343-3,3-3c0.301,0,0.586,0.058,0.86,0.14L24,30l-6-6L4.586,37.414	C4.211,37.789,4,38.298,4,38.828v1.343c0,0.53,0.211,1.039,0.586,1.414l1.828,1.828C6.789,43.789,7.298,44,7.828,44h1.343	c0.53,0,1.039-0.211,1.414-0.586l1.46-1.46C12.019,41.807,12,41.656,12,41.5z"/><linearGradient id="aQdJS1uTdbKSUN1xbylwtb" x1="21.64" x2="36.971" y1="1985.073" y2="2007.362" gradientTransform="translate(0 -1978)" gradientUnits="userSpaceOnUse"><stop offset="0" stop-color="#fede00"/><stop offset="1" stop-color="#ffd000"/></linearGradient><path fill="url(#aQdJS1uTdbKSUN1xbylwtb)" d="M29.5,5C22.044,5,16,11.044,16,18.5S22.044,32,29.5,32S43,25.956,43,18.5S36.956,5,29.5,5z M33,19c-2.209,0-4-1.791-4-4s1.791-4,4-4s4,1.791,4,4S35.209,19,33,19z"/><path fill="#e52030" d="M44.888,42.734L5.266,3.112c-0.149-0.149-0.39-0.149-0.539,0L3.112,4.728	c-0.149,0.149-0.149,0.39,0,0.539l39.622,39.622c0.149,0.149,0.39,0.149,0.539,0l1.616-1.616	C45.037,43.124,45.037,42.882,44.888,42.734z"/></svg>