<svg xmlns="http://www.w3.org/2000/svg" viewBox="0 0 48 48"><linearGradient id="GhbJ4UGB2Gi1rkyUEEZkSa" x1="24" x2="24" y1="33.944" y2="38.944" gradientUnits="userSpaceOnUse"><stop offset="0" stop-color="#eba84b"/><stop offset="1" stop-color="#d97218"/></linearGradient><path fill="url(#GhbJ4UGB2Gi1rkyUEEZkSa)" d="M40,39H8c-1.105,0-2-0.895-2-2v-2c0-0.552,0.448-1,1-1h34c0.552,0,1,0.448,1,1v2	C42,38.105,41.105,39,40,39z"/><linearGradient id="GhbJ4UGB2Gi1rkyUEEZkSb" x1="24" x2="24" y1="7.187" y2="17.567" gradientUnits="userSpaceOnUse"><stop offset="0" stop-color="#eba84b"/><stop offset="1" stop-color="#d97218"/></linearGradient><path fill="url(#GhbJ4UGB2Gi1rkyUEEZkSb)" d="M24,7C10.5,7,6,13.248,6,14.727V17c0,0.552,0.448,1,1,1h34c0.552,0,1-0.448,1-1v-2.273	C42,13.248,37.5,7,24,7z"/><linearGradient id="GhbJ4UGB2Gi1rkyUEEZkSc" x1="5" x2="43" y1="22.5" y2="22.5" gradientUnits="userSpaceOnUse"><stop offset="0" stop-color="#d43a02"/><stop offset="1" stop-color="#b9360c"/></linearGradient><path fill="url(#GhbJ4UGB2Gi1rkyUEEZkSc)" d="M43,22c0-1.105-0.895-2-2-2H7c-1.105,0-2,0.895-2,2c0,0.174,0,0.826,0,1c0,1.105,0.895,2,2,2	h34c1.105,0,2-0.895,2-2C43,22.826,43,22.174,43,22z"/><linearGradient id="GhbJ4UGB2Gi1rkyUEEZkSd" x1="5" x2="43" y1="29" y2="29" gradientUnits="userSpaceOnUse"><stop offset="0" stop-color="#d43a02"/><stop offset="1" stop-color="#b9360c"/></linearGradient><path fill="url(#GhbJ4UGB2Gi1rkyUEEZkSd)" d="M41,31H7c-1.105,0-2-0.895-2-2v0c0-1.105,0.895-2,2-2h34c1.105,0,2,0.895,2,2v0	C43,30.105,42.105,31,41,31z"/><polygon fill="#fad500" points="41,27 36,27 33,29 19,27 7,27 7,25 41,25"/><rect width="34" height="2" x="7" y="18" fill="#33c481"/><rect width="34" height="3" x="7" y="31" fill="#107c42"/><path fill="#33c481" d="M41,20c0,0-1.903,1-4.25,1s-4.25-1-4.25-1s1.903-1,4.25-1S41,20,41,20z"/><path fill="#33c481" d="M32.5,20c0,0-1.903,1-4.25,1S24,20,24,20s1.903-1,4.25-1S32.5,20,32.5,20z"/><path fill="#33c481" d="M24,20c0,0-1.903,1-4.25,1s-4.25-1-4.25-1s1.903-1,4.25-1S24,20,24,20z"/><path fill="#33c481" d="M15.5,20c0,0-1.903,1-4.25,1S7,20,7,20s1.903-1,4.25-1S15.5,20,15.5,20z"/><circle cx="12" cy="14" r="1" fill="#f5b967"/><circle cx="16" cy="12" r="1" fill="#f5b967"/></svg>