<svg xmlns="http://www.w3.org/2000/svg" viewBox="0 0 48 48"><linearGradient id="B7tH1ezsFVrorVaJSUtbja" x1="23.542" x2="23.542" y1="5.842" y2="41.729" gradientTransform="translate(.435 .317)" gradientUnits="userSpaceOnUse"><stop offset="0" stop-color="#f44f5a"/><stop offset=".443" stop-color="#ee3d4a"/><stop offset="1" stop-color="#e52030"/></linearGradient><path fill="url(#B7tH1ezsFVrorVaJSUtbja)" d="M40.004,41.969L8.031,42c-1.099,0.001-1.999-0.897-2-1.996L6,8.031	c-0.001-1.099,0.897-1.999,1.996-2L39.969,6c1.099-0.001,1.999,0.897,2,1.996L42,39.969C42.001,41.068,41.103,41.968,40.004,41.969z"/><path d="M29.5,15c-2.413,0-4.455,1.451-5.5,2.364C22.955,16.451,20.913,15,18.5,15	c-3.584,0-6.5,2.916-6.5,6.5c0,5.476,7.578,11.243,10.835,13.468c0.354,0.242,0.76,0.363,1.166,0.363	c0.405,0,0.811-0.121,1.165-0.363C28.423,32.741,36,26.972,36,21.5C36,17.916,33.084,15,29.5,15z" opacity=".05"/><path d="M29.5,15.5c-2.547,0-4.669,1.747-5.5,2.538c-0.831-0.791-2.953-2.538-5.5-2.538c-3.309,0-6,2.691-6,6	c0,5.384,8.127,11.354,10.618,13.056c0.268,0.183,0.576,0.274,0.883,0.274c0.307,0,0.615-0.092,0.883-0.274	C27.374,32.854,35.5,26.881,35.5,21.5C35.5,18.191,32.809,15.5,29.5,15.5z" opacity=".07"/><path fill="#fff" d="M24,18.75c0,0,2.463-2.75,5.5-2.75s5.5,2.496,5.5,5.5c0,5.17-8.101,11.072-10.399,12.643	c-0.364,0.249-0.837,0.249-1.201,0C21.101,32.572,13,26.67,13,21.5c0-3.004,2.463-5.5,5.5-5.5S24,18.75,24,18.75z"/></svg>