<svg xmlns="http://www.w3.org/2000/svg" viewBox="0 0 48 48"><linearGradient id="QmtC6eo1hoHtgsLMKPtFva" x1="19.695" x2="32.536" y1="10.951" y2="43.729" gradientUnits="userSpaceOnUse"><stop offset="0" stop-color="#2aa4f4"/><stop offset="1" stop-color="#007ad9"/></linearGradient><path fill="url(#QmtC6eo1hoHtgsLMKPtFva)" d="M40,10H15.797c-0.522,0-1.035,0.136-1.488,0.395L8,14L5,24l3,6c0,0-2,4-2,4l1.688,4.219	c0.204,0.511,0.545,0.956,0.985,1.286L12,42h9.292c0.466,0,0.925-0.108,1.342-0.317L26,40l6,4l6.949-2.316	C40.174,41.275,41,40.129,41,38.838V35l2-4l-3-6l1.664-1.109C42.499,23.334,43,22.398,43,21.394V13C43,11.343,41.657,10,40,10z"/><radialGradient id="QmtC6eo1hoHtgsLMKPtFvb" cx="16" cy="31" r="3" gradientUnits="userSpaceOnUse"><stop offset="0"/><stop offset="1" stop-opacity="0"/></radialGradient><circle cx="16" cy="31" r="3" fill="url(#QmtC6eo1hoHtgsLMKPtFvb)"/><path fill="#f9f9f9" d="M16,29c-1.105,0-2,0.895-2,2s0.895,2,2,2s2-0.895,2-2S17.105,29,16,29z"/><path d="M39,12c0-0.685-0.07-1.354-0.202-2H19.202C19.07,10.646,19,11.315,19,12	c0,2.612,1.006,5.086,2.806,6.937c0.024,0.027,0.026,0.029,5.78,5.788c0.39,0.39,0.901,0.585,1.414,0.585	c0.512,0,1.024-0.195,1.414-0.585c4.924-4.928,5.636-5.64,5.754-5.76C37.994,17.086,39,14.612,39,12z" opacity=".05"/><path d="M19.5,12c0,2.481,0.955,4.831,2.677,6.602c0.013,0.013,0.018,0.02,5.763,5.769	c0.292,0.292,0.677,0.438,1.061,0.438s0.769-0.146,1.061-0.438c5.068-5.073,5.67-5.674,5.749-5.755v0	c1.735-1.785,2.69-4.135,2.69-6.616c0-0.686-0.077-1.355-0.216-2H19.716C19.577,10.645,19.5,11.314,19.5,12z" opacity=".07"/><linearGradient id="QmtC6eo1hoHtgsLMKPtFvc" x1="22.637" x2="35.363" y1="5.635" y2="18.361" gradientUnits="userSpaceOnUse"><stop offset="0" stop-color="#d43a02"/><stop offset="1" stop-color="#b9360c"/></linearGradient><path fill="url(#QmtC6eo1hoHtgsLMKPtFvc)" d="M35.451,18.268C37.026,16.647,38,14.438,38,12c0-4.97-4.03-9-9-9s-9,4.03-9,9	c0,2.438,0.974,4.647,2.549,6.268c0.009,0.009,5.744,5.749,5.744,5.749c0.391,0.391,1.024,0.391,1.414,0	C29.707,24.017,35.442,18.277,35.451,18.268z"/><radialGradient id="QmtC6eo1hoHtgsLMKPtFvd" cx="29" cy="12" r="3.938" gradientUnits="userSpaceOnUse"><stop offset=".177"/><stop offset="1" stop-opacity="0"/></radialGradient><circle cx="29" cy="12" r="3.938" fill="url(#QmtC6eo1hoHtgsLMKPtFvd)"/><circle cx="29" cy="12" r="3.375" fill="#f9f9f9"/></svg>