<svg xmlns="http://www.w3.org/2000/svg" xmlns:xlink="http://www.w3.org/1999/xlink" data-name="Слой 1" viewBox="0 0 48 48"><defs><linearGradient id="DhE0ftm1MVTYoJy3JO3Twa" x1="10" x2="10" y1="24.957" y2="39.981" data-name="Безымянный градиент 70" gradientUnits="userSpaceOnUse"><stop offset="0" stop-color="#6d6d6d"/><stop offset=".126" stop-color="#626262"/><stop offset=".987" stop-color="#464646"/><stop offset=".998" stop-color="#454545"/></linearGradient><linearGradient id="DhE0ftm1MVTYoJy3JO3Twp" x1="36" x2="36" y1="12.886" y2="16.962" xlink:href="#DhE0ftm1MVTYoJy3JO3Twf"/><linearGradient id="DhE0ftm1MVTYoJy3JO3Twh" x1="16" x2="16" y1="27.761" y2="60.591" xlink:href="#DhE0ftm1MVTYoJy3JO3Twa"/><linearGradient id="DhE0ftm1MVTYoJy3JO3Twi" x1="15.99" x2="15.99" y1="18.891" y2="36.958" data-name="Безымянный градиент 8" gradientUnits="userSpaceOnUse"><stop offset="0" stop-color="#dfe9f2"/><stop offset=".391" stop-color="#d6e0e9"/><stop offset="1" stop-color="#bfc8d1"/></linearGradient><linearGradient id="DhE0ftm1MVTYoJy3JO3Twb" x1="20.728" x2="21.964" y1="441.5" y2="441.5" data-name="Безымянный градиент 200" gradientTransform="matrix(1 0 0 -1 0 456)" gradientUnits="userSpaceOnUse"><stop offset="0" stop-color="#c48f0c"/><stop offset=".251" stop-color="#d19b16"/><stop offset=".619" stop-color="#dca51f"/><stop offset="1" stop-color="#e0a922"/></linearGradient><linearGradient id="DhE0ftm1MVTYoJy3JO3Twj" x1="11.286" x2="10.032" xlink:href="#DhE0ftm1MVTYoJy3JO3Twb"/><linearGradient id="DhE0ftm1MVTYoJy3JO3Two" x1="38" x2="38" y1="15.307" y2="18.444" data-name="Новый образец градиентной зал 3" gradientUnits="userSpaceOnUse"><stop offset="0" stop-color="#32bdef"/><stop offset="1" stop-color="#1ea2e4"/></linearGradient><linearGradient id="DhE0ftm1MVTYoJy3JO3Twf" x1="37" x2="37" y1="17.239" y2="20.617" data-name="Новый образец градиентной зал 2" gradientUnits="userSpaceOnUse"><stop offset="0" stop-color="#2aa4f4"/><stop offset="1" stop-color="#007ad9"/></linearGradient><linearGradient id="DhE0ftm1MVTYoJy3JO3Twg" x1="27.8" x2="-2.633" y1="24.857" y2="24.857" xlink:href="#DhE0ftm1MVTYoJy3JO3Twa"/><linearGradient id="DhE0ftm1MVTYoJy3JO3Twd" x1="16.022" x2="13.437" y1="433" y2="433" data-name="Безымянный градиент 38" gradientTransform="matrix(1 0 0 -1 0 456)" gradientUnits="userSpaceOnUse"><stop offset=".002" stop-color="#454545"/><stop offset=".013" stop-color="#464646"/><stop offset=".562" stop-color="#626262"/><stop offset="1" stop-color="#6d6d6d"/></linearGradient><linearGradient id="DhE0ftm1MVTYoJy3JO3Twl" x1="15.878" x2="18.026" y1="433" y2="433" xlink:href="#DhE0ftm1MVTYoJy3JO3Twd"/><linearGradient id="DhE0ftm1MVTYoJy3JO3Twm" x1="16.006" x2="16.006" y1="431.756" y2="434.251" xlink:href="#DhE0ftm1MVTYoJy3JO3Twd"/><linearGradient id="DhE0ftm1MVTYoJy3JO3Twn" x1="36.113" x2="38.717" y1="20.878" y2="17.745" data-name="Безымянный градиент 9" xlink:href="#DhE0ftm1MVTYoJy3JO3Twe"/><radialGradient id="DhE0ftm1MVTYoJy3JO3Twc" cx="93.945" cy="429.042" r="18.003" data-name="Безымянный градиент 198" gradientTransform="matrix(.8816 0 0 -.8816 -68.688 384.244)" gradientUnits="userSpaceOnUse"><stop offset="0" stop-color="#c26715"/><stop offset=".508" stop-color="#b85515"/><stop offset="1" stop-color="#ad3f16"/></radialGradient><radialGradient id="DhE0ftm1MVTYoJy3JO3Twe" cx="228.683" cy="416.663" r="7.639" data-name="Безымянный градиент 199" gradientTransform="matrix(.7837 0 0 -.7837 -163.219 340.205)" gradientUnits="userSpaceOnUse"><stop offset="0" stop-color="#ffcf54"/><stop offset=".261" stop-color="#fdcb4d"/><stop offset=".639" stop-color="#f7c13a"/><stop offset="1" stop-color="#f0b421"/></radialGradient><radialGradient id="DhE0ftm1MVTYoJy3JO3Twk" cx="125.48" cy="427.628" r="19.756" gradientTransform="matrix(.8431 0 0 -.8816 -90.718 384.244)" xlink:href="#DhE0ftm1MVTYoJy3JO3Twc"/></defs><polygon fill="#35c1f1" points="39 14 37.5 14.5 36 14 35.5 10 39.5 10 39 14"/><path fill="url(#DhE0ftm1MVTYoJy3JO3Twa)" d="M16,20.5V42a1.003,1.003,0,0,1-1,1H5a1.003,1.003,0,0,1-1-1V28.5a7.99778,7.99778,0,0,1,8-8Z"/><path fill="url(#DhE0ftm1MVTYoJy3JO3Twg)" d="M20.734,20.80893,29.5,24.5l4-5,3,2.5-4.0137,6.85171a4,4,0,0,1-3.68005,1.30411L23.5,29Z"/><path fill="url(#DhE0ftm1MVTYoJy3JO3Twh)" d="M24,25.5V42a1.003,1.003,0,0,1-1,1H9a1.003,1.003,0,0,1-1-1V26.5a6.01534,6.01534,0,0,1,4.21-5.73A5.92483,5.92483,0,0,1,14,20.5h5a3.86266,3.86266,0,0,1,.84.08,3.886,3.886,0,0,1,.89.23l.41.17A5.00584,5.00584,0,0,1,24,25.5Z"/><path fill="url(#DhE0ftm1MVTYoJy3JO3Twi)" d="M19.84,20.58,16.52,32.6a.538.538,0,0,1-1.04,0L12.21,20.77l-.07-.27H19A3.86266,3.86266,0,0,1,19.84,20.58Z"/><path fill="#d6a121" d="M19,20.6c0,1.138-1.698,2.4-3,2.4s-3-1.262-3-2.4V16.379h6Z"/><path fill="url(#DhE0ftm1MVTYoJy3JO3Twb)" d="M21.05,13h-.316v3h.422a.64215.64215,0,0,0,.624-.555l.207-1.277A.98638.98638,0,0,0,21.05,13Z"/><path fill="url(#DhE0ftm1MVTYoJy3JO3Twj)" d="M10.95,13h.316v3h-.422a.64215.64215,0,0,1-.624-.555l-.207-1.277A.98638.98638,0,0,1,10.95,13Z"/><path fill="url(#DhE0ftm1MVTYoJy3JO3Twe)" d="M16,6.833c-2.467,0-5,.375-5,5.708v3.721c0,1.904,3,4.237,5,4.237s5-2.333,5-4.237V12.541C21,7.208,18.467,6.833,16,6.833Z"/><path fill="url(#DhE0ftm1MVTYoJy3JO3Twc)" d="M16,5.4c-2.612,0-3,.982-3,.982-.779-.01-3,.817-3,3.818A12.81707,12.81707,0,0,0,11,15c0-6.759,1.867-6.2,5-6.2s5-.69,5,6.2a12.31947,12.31947,0,0,0,1-4.8C22,7.172,19.725,5.4,16,5.4Z"/><path fill="url(#DhE0ftm1MVTYoJy3JO3Twk)" d="M15.333,5C12.672,5,13,7,13,7c0,1.333.921,2,2.667,2C17.705,9,20,8.395,20,5Z"/><path fill="url(#DhE0ftm1MVTYoJy3JO3Twd)" d="M15.63151,22.40776l-.65849-.33405A.6686.6686,0,0,0,14,22.666v.6681a.66889.66889,0,0,0,.973.59224l.65849-.33405A.66266.66266,0,0,0,15.63151,22.40776Z"/><path fill="url(#DhE0ftm1MVTYoJy3JO3Twl)" d="M16.373,22.40776l.65849-.33405a.6686.6686,0,0,1,.973.59224v.6681a.66889.66889,0,0,1-.973.59224l-.65849-.33405A.66266.66266,0,0,1,16.373,22.40776Z"/><circle cx="16.006" cy="23.009" r=".668" fill="url(#DhE0ftm1MVTYoJy3JO3Twm)"/><path fill="url(#DhE0ftm1MVTYoJy3JO3Twn)" d="M33.5,19.5l3,2.5H38a2,2,0,0,0,2-2h0v-.5Z"/><path fill="url(#DhE0ftm1MVTYoJy3JO3Twf)" d="M43.92457,18.31428a4.0531,4.0531,0,0,1-.98967.75143l-.00956.00572a8.75075,8.75075,0,0,1-3.73595.87142c-.2323.01429-.471.02573-.71919.03429-.30551.01142-.62373.01714-.95786.02C37.34369,20,37.175,20,37,20s-.34369,0-.51234-.00286c-.33413-.00286-.65235-.00858-.95786-.02a9.87651,9.87651,0,0,1-4.45514-.90571l-.00956-.00572a4.0531,4.0531,0,0,1-.98967-.75143C29.9545,18.1857,29.97678,18,30.15817,18H43.84183C44.02322,18,44.0455,18.1857,43.92457,18.31428Z"/><path fill="url(#DhE0ftm1MVTYoJy3JO3Two)" d="M44.92457,16.31428a4.0531,4.0531,0,0,1-.98967.75143l-.00956.00572a8.75075,8.75075,0,0,1-3.73595.87142c-.2323.01429-.471.02573-.71919.03429-.30551.01142-.62373.01714-.95786.02C38.34369,18,38.175,18,38,18s-.34369,0-.51234-.00286c-.33413-.00286-.65235-.00858-.95786-.02a9.87651,9.87651,0,0,1-4.45514-.90571l-.00956-.00572a4.0531,4.0531,0,0,1-.98967-.75143C30.9545,16.1857,30.97678,16,31.15817,16H44.84183C45.02322,16,45.0455,16.1857,44.92457,16.31428Z"/><path fill="url(#DhE0ftm1MVTYoJy3JO3Twp)" d="M42.92457,14.31428a4.0531,4.0531,0,0,1-.98967.75143l-.00956.00572a8.75075,8.75075,0,0,1-3.73595.87142c-.2323.01429-.471.02573-.71919.03429-.30551.01142-.62373.01714-.95786.02C36.34369,16,36.175,16,36,16s-.34369,0-.51234-.00286c-.33413-.00286-.65235-.00858-.95786-.02a9.87651,9.87651,0,0,1-4.45514-.90571l-.00956-.00572a4.0531,4.0531,0,0,1-.98967-.75143C28.9545,14.1857,28.97678,14,29.15817,14H42.84183C43.02322,14,43.0455,14.1857,42.92457,14.31428Z"/><circle cx="13" cy="36" r="1" fill="#343434"/><circle cx="19" cy="36" r="1" fill="#343434"/><circle cx="13" cy="40" r="1" fill="#343434"/><circle cx="19" cy="40" r="1" fill="#343434"/></svg>