<svg xmlns="http://www.w3.org/2000/svg" viewBox="0 0 48 48"><linearGradient id="6Kf9wQ6pYiOm7EC4o7Cr7a" x1="6" x2="42" y1="26" y2="26" gradientTransform="matrix(1 0 0 -1 0 50)" gradientUnits="userSpaceOnUse"><stop offset="0" stop-color="#0d61a9"/><stop offset="1" stop-color="#16528c"/></linearGradient><path fill="url(#6Kf9wQ6pYiOm7EC4o7Cr7a)" d="M41.987,12.984C41.983,9.123,38.847,5.996,34.983,6L12.99,6.021	C9.126,6.025,5.996,9.158,6,13.019l0.004,16.984L9,39l9.018,2.995L30,42l9-3l3-9L41.987,12.984z"/><linearGradient id="6Kf9wQ6pYiOm7EC4o7Cr7b" x1="-360.231" x2="-351.217" y1="1389.109" y2="1389.109" gradientTransform="translate(389.237 -1349.109)" gradientUnits="userSpaceOnUse"><stop offset=".266" stop-color="#199ae0"/><stop offset=".582" stop-color="#1898de"/><stop offset=".745" stop-color="#1590d6"/><stop offset=".873" stop-color="#1083c9"/><stop offset=".982" stop-color="#0870b7"/><stop offset="1" stop-color="#076cb3"/></linearGradient><path fill="url(#6Kf9wQ6pYiOm7EC4o7Cr7b)" d="M39.014,38l-8.013,0.007c-0.553,0.001-1.002,0.448-1.001,0.999L30.003,42l8.015-0.008	L39.014,38z"/><linearGradient id="6Kf9wQ6pYiOm7EC4o7Cr7c" x1="37.865" x2="42.066" y1="1648.087" y2="1659.993" gradientTransform="translate(-.022 -1618.206)" gradientUnits="userSpaceOnUse"><stop offset="0" stop-color="#32bdef"/><stop offset="1" stop-color="#1ea2e4"/></linearGradient><path fill="url(#6Kf9wQ6pYiOm7EC4o7Cr7c)" d="M38,31.004L38.011,42l3.406-3.416C41.791,38.209,42.001,37.7,42,37.17L41.993,30l-2.996,0.003	C38.446,30.004,38,30.452,38,31.004z"/><linearGradient id="6Kf9wQ6pYiOm7EC4o7Cr7d" x1="-1727.72" x2="-1718.707" y1="884.54" y2="884.54" gradientTransform="rotate(180 -854.297 446.27)" gradientUnits="userSpaceOnUse"><stop offset=".266" stop-color="#199ae0"/><stop offset=".582" stop-color="#1898de"/><stop offset=".745" stop-color="#1590d6"/><stop offset=".873" stop-color="#1083c9"/><stop offset=".982" stop-color="#0870b7"/><stop offset="1" stop-color="#076cb3"/></linearGradient><path fill="url(#6Kf9wQ6pYiOm7EC4o7Cr7d)" d="M8.987,10l8.012-0.007C17.552,9.992,18.001,9.545,18,8.994L17.997,6L9.983,6.008L8.987,10z"/><linearGradient id="6Kf9wQ6pYiOm7EC4o7Cr7e" x1="-1329.707" x2="-1325.507" y1="1143.479" y2="1155.38" gradientTransform="rotate(180 -659.732 580.912)" gradientUnits="userSpaceOnUse"><stop offset="0" stop-color="#32bdef"/><stop offset="1" stop-color="#1ea2e4"/></linearGradient><path fill="url(#6Kf9wQ6pYiOm7EC4o7Cr7e)" d="M10,16.995V6L6.583,9.417C6.209,9.791,5.999,10.3,6,10.831L6.007,18l2.996-0.003	C9.554,17.995,10,17.547,10,16.995z"/><linearGradient id="6Kf9wQ6pYiOm7EC4o7Cr7f" x1="-1751.22" x2="-1742.206" y1="1389.349" y2="1389.349" gradientTransform="matrix(-1 .00096 .00096 1 -1733.54 -1347.673)" gradientUnits="userSpaceOnUse"><stop offset=".266" stop-color="#199ae0"/><stop offset=".582" stop-color="#1898de"/><stop offset=".745" stop-color="#1590d6"/><stop offset=".873" stop-color="#1083c9"/><stop offset=".982" stop-color="#0870b7"/><stop offset="1" stop-color="#076cb3"/></linearGradient><path fill="url(#6Kf9wQ6pYiOm7EC4o7Cr7f)" d="M9,38.007L17.012,38c0.553-0.001,1.002,0.446,1.003,0.997l0.003,2.995L10.004,42L9,38.007z"/><linearGradient id="6Kf9wQ6pYiOm7EC4o7Cr7g" x1="-1353.379" x2="-1349.176" y1="1648.674" y2="1660.584" gradientTransform="matrix(-1 .00096 .00096 1 -1344.8 -1617.52)" gradientUnits="userSpaceOnUse"><stop offset="0" stop-color="#32bdef"/><stop offset="1" stop-color="#1ea2e4"/></linearGradient><path fill="url(#6Kf9wQ6pYiOm7EC4o7Cr7g)" d="M9.989,31L10,42l-3.408-3.411c-0.374-0.375-0.585-0.883-0.585-1.414L6,30.003L8.991,30	C9.541,30,9.989,30.448,9.989,31z"/><linearGradient id="6Kf9wQ6pYiOm7EC4o7Cr7h" x1="-337.045" x2="-328.048" y1="883.681" y2="883.681" gradientTransform="matrix(1 -.00096 -.00096 -1 366.612 891.367)" gradientUnits="userSpaceOnUse"><stop offset=".266" stop-color="#199ae0"/><stop offset=".582" stop-color="#1898de"/><stop offset=".745" stop-color="#1590d6"/><stop offset=".873" stop-color="#1083c9"/><stop offset=".982" stop-color="#0870b7"/><stop offset="1" stop-color="#076cb3"/></linearGradient><path fill="url(#6Kf9wQ6pYiOm7EC4o7Cr7h)" d="M39,10h-7.998c-0.551,0.001-0.998-0.446-0.999-0.997L30,6.008L38,6L39,10z"/><linearGradient id="6Kf9wQ6pYiOm7EC4o7Cr7i" x1="61.065" x2="65.268" y1="1143.012" y2="1154.921" gradientTransform="matrix(1 -.00096 -.00096 -1 -22.13 1161.214)" gradientUnits="userSpaceOnUse"><stop offset="0" stop-color="#32bdef"/><stop offset="1" stop-color="#1ea2e4"/></linearGradient><path fill="url(#6Kf9wQ6pYiOm7EC4o7Cr7i)" d="M38.011,17L38,6l3.408,3.411c0.374,0.375,0.585,0.883,0.585,1.414L42,17.997L39.008,18	C38.458,18,38.011,17.552,38.011,17z"/><path fill="#35c1f1" d="M24,36c-0.553,0-1-0.447-1-1v-2c0-0.553,0.447-1,1-1s1,0.447,1,1v2C25,35.553,24.553,36,24,36z"/><path fill="#35c1f1" d="M24,20c-0.55,0-1,0.45-1,1v5v3c0,0.55,0.45,1,1,1s1-0.45,1-1v-3v-5C25,20.45,24.55,20,24,20z"/><path fill="#35c1f1" d="M24,16c-2.76,0-5,2.24-5,5v5v8.54c0,0.56,0.45,1,1,1s1-0.44,1-1V26v-5c0-1.65,1.35-3,3-3s3,1.35,3,3	v5v8.54c0,0.56,0.45,1,1,1s1-0.44,1-1V26v-5C29,18.24,26.76,16,24,16z"/><path fill="#35c1f1" d="M16.85,15.55C15.64,17.14,15,19.02,15,21v5v7.13c0,0.55,0.45,1,1,1c0.55,0,1-0.45,1-1V26v-5	c0-1.54,0.5-3,1.44-4.24c0.33-0.43,0.25-1.06-0.19-1.4C17.81,15.03,17.18,15.11,16.85,15.55z"/><path fill="#35c1f1" d="M24,12c-1.25,0-2.46,0.26-3.61,0.76c-0.5,0.22-0.73,0.81-0.51,1.32c0.22,0.5,0.81,0.73,1.31,0.51	C22.09,14.2,23.03,14,24,14c3.86,0,7,3.14,7,7v5v7.13c0,0.55,0.45,1,1,1s1-0.45,1-1V26v-5C33,16.04,28.96,12,24,12z"/></svg>