<svg xmlns="http://www.w3.org/2000/svg" viewBox="0 0 48 48"><path fill="none" stroke="#64717c" stroke-linecap="round" stroke-linejoin="round" stroke-miterlimit="10" stroke-width="1.5" d="M27,6.5C27,4.015,29.015,2,31.5,2"/><path fill="none" stroke="#64717c" stroke-linecap="round" stroke-linejoin="round" stroke-miterlimit="10" stroke-width="1.5" d="M23,5.5C23,3.015,25.015,1,27.5,1"/><path fill="#ffd000" d="M36.998,13c0-7.466-7.132-9.995-13.065-9.995c-7.933,0-10.048,9.799-10.048,9.799	C13.653,13.366,12,13.834,12,15.369c0.062,0.762,0.556,1.404,1,1.631c-0.534,5.225-0.359,11.42,1.2,14.935C16,37,17,39.337,17,42v3	h17c0,0-2-4.601-2-13S36.998,19.533,36.998,13z"/><circle cx="14.5" cy="20.5" r="4.5" fill="#eee"/><circle cx="14" cy="22" r="1" fill="#212121"/><linearGradient id="t9CVzwbIU2EvoXr69XL88a" x1="13.615" x2="23.222" y1="27.425" y2="43.219" gradientUnits="userSpaceOnUse"><stop offset="0" stop-color="#eba600"/><stop offset="1" stop-color="#c28200"/></linearGradient><path fill="url(#t9CVzwbIU2EvoXr69XL88a)" d="M17,27c-3,0-7,1.467-7,8c-0.534,0.255-0.955,0.512-0.998,1.102C9.002,37.035,10,39,14,39	c0,0-0.05,1.62,2,2c0.631,1.519,2.42,2.05,4,2c4.065,0.059,8-2.935,8-7C28,32,23.066,27,17,27z"/><circle cx="32.132" cy="30" r="3" fill="#ffd000"/><path fill="#9e6b23" d="M22.697,37.322c0,0-3.683,1.55-9.062,1.667C13.756,38.993,13.872,39,14,39c0,0-0.05,1.62,2,2	c4.464,0,7.257-2.538,7.257-2.538L22.697,37.322z"/><path fill="#c48f0c" d="M33,30c-0.038,0.536-0.464,0.962-1,1h-1c0,0,0-2,1-2C32.536,29.038,32.962,29.464,33,30z"/><polyline fill="none" stroke="#64717c" stroke-linecap="round" stroke-linejoin="round" stroke-miterlimit="10" stroke-width="1.5" points="36,25 35,21 32.997,24.097 32,20 29,24"/><path fill="#ffd000" d="M24,28H13c-1.105,0-2-0.895-2-2v0c0-1.105,0.895-2,2-2h11V28z"/><circle cx="22" cy="22" r="5" fill="#eee"/><circle cx="23" cy="23" r="1" fill="#212121"/><path fill="#9e6b23" d="M22.973,39.426c0.785-0.266,1.205-1.118,0.939-1.902s-1.118-1.205-1.902-0.939L22.973,39.426z"/><path fill="none" stroke="#64717c" stroke-linecap="round" stroke-linejoin="round" stroke-miterlimit="10" stroke-width="1.5" d="M27.5,1C29.985,1,32,3.015,32,5.5c0,0.823-0.221,1.594-0.606,2.257"/><path fill="none" stroke="#64717c" stroke-linecap="round" stroke-linejoin="round" stroke-miterlimit="10" stroke-width="1.5" d="M31.5,2C33.985,2,36,4.015,36,6.5c0,0.823-0.221,1.594-0.606,2.257"/></svg>