<svg xmlns="http://www.w3.org/2000/svg" viewBox="0 0 48 48"><linearGradient id="KeL9OWFtz4YGdaiGIM7I_a" x1="15" x2="33" y1="7" y2="7" gradientUnits="userSpaceOnUse"><stop offset="0" stop-color="#edbe00"/><stop offset="1" stop-color="#e3a600"/></linearGradient><path fill="url(#KeL9OWFtz4YGdaiGIM7I_a)" d="M31,3H17c-1.105,0-2,0.895-2,2v6h18V5C33,3.895,32.105,3,31,3z"/><linearGradient id="KeL9OWFtz4YGdaiGIM7I_b" x1="39.835" x2="8.257" y1="26" y2="26" gradientTransform="matrix(1.0323 0 0 1.0357 -1.29 -1.429)" gradientUnits="userSpaceOnUse"><stop offset="0" stop-color="#edbe00"/><stop offset="1" stop-color="#fede00"/></linearGradient><path fill="url(#KeL9OWFtz4YGdaiGIM7I_b)" d="M35.915,41h-23.83C8.724,41,6,38.276,6,34.915v-18.83C6,12.724,8.724,10,12.085,10h23.83 C39.276,10,42,12.724,42,16.085v18.83C42,38.276,39.276,41,35.915,41z"/><linearGradient id="KeL9OWFtz4YGdaiGIM7I_c" x1="12" x2="36" y1="42.5" y2="42.5" gradientUnits="userSpaceOnUse"><stop offset="0" stop-color="#edbe00"/><stop offset="1" stop-color="#e3a600"/></linearGradient><path fill="url(#KeL9OWFtz4YGdaiGIM7I_c)" d="M36,41H12v2c0,0.552,0.448,1,1,1h22c0.552,0,1-0.448,1-1V41z"/><linearGradient id="KeL9OWFtz4YGdaiGIM7I_d" x1="6" x2="42" y1="17" y2="17" gradientUnits="userSpaceOnUse"><stop offset="0" stop-color="#edbe00"/><stop offset="1" stop-color="#e3a600"/></linearGradient><rect width="36" height="2" x="6" y="16" fill="url(#KeL9OWFtz4YGdaiGIM7I_d)"/><circle cx="18.5" cy="23.5" r="2.5" fill="#2b1d1d"/><circle cx="18.5" cy="22.5" r="1.5" fill="#fff"/><circle cx="29.5" cy="23.5" r="2.5" fill="#2b1d1d"/><circle cx="29.5" cy="22.5" r="1.5" fill="#fff"/><path fill="#2b1d1d" d="M24,34.493c-1.946,0-3.894-0.554-5.555-1.661c-0.46-0.307-0.584-0.927-0.277-1.387 c0.305-0.46,0.925-0.583,1.387-0.277c2.658,1.773,6.232,1.773,8.891,0c0.46-0.306,1.08-0.183,1.387,0.277s0.183,1.08-0.277,1.387 C27.894,33.939,25.946,34.493,24,34.493z"/></svg>