<svg xmlns="http://www.w3.org/2000/svg" data-name="Слой 1" viewBox="0 0 48 48"><defs><linearGradient id="43ym006WvMIEg~65JO87Ba" x1="15.478" x2="34.518" y1=".586" y2="52.898" gradientUnits="userSpaceOnUse"><stop offset=".002" stop-color="#427fdb"/><stop offset=".397" stop-color="#2668cb"/><stop offset=".763" stop-color="#1358bf"/><stop offset="1" stop-color="#0c52bb"/></linearGradient></defs><circle cx="24" cy="24" r="20" fill="url(#43ym006WvMIEg~65JO87Ba)"/><path fill="#fff" d="M31.79,21l-1.6,16H17.81l-1.6-16H31.79M15.105,19a1,1,0,0,0-.995,1.09951L15.82,37.199A2,2,0,0,0,17.8101,39H30.19a1.99991,1.99991,0,0,0,1.99-1.80091L33.89,20.09951A1,1,0,0,0,32.895,19Z"/><rect width="16" height="2" x="16" y="25" fill="#fff"/><rect width="16" height="2" x="16" y="31" fill="#fff"/><rect width="6.364" height="4.95" x="17.818" y="8.525" fill="#fff" transform="rotate(-45.001 21 11)"/><rect width="4.773" height="3.712" x="25.614" y="12.144" fill="#fff" transform="rotate(-45.001 28 14)"/><polygon fill="#fff" points="22.5 37 20.5 37 20 20 22 20 22.5 37"/><polygon fill="#fff" points="27.5 37 25.5 37 26 20 28 20 27.5 37"/></svg>