<svg xmlns="http://www.w3.org/2000/svg" viewBox="0 0 48 48"><linearGradient id="lnuvO5HXdv5S77Ko2PVk_a" x1="5.734" x2="5.734" y1="24.877" y2="7" gradientUnits="userSpaceOnUse"><stop offset="0" stop-color="#92a3b0"/><stop offset=".015" stop-color="#a3b5c4"/><stop offset=".032" stop-color="#aec2d1"/><stop offset=".046" stop-color="#b2c6d6"/></linearGradient><path fill="url(#lnuvO5HXdv5S77Ko2PVk_a)" d="M9.466,24.877c-0.465,0-0.881-0.326-0.979-0.798L5.712,10.597C5.521,9.671,4.698,9,3.753,9H2	C1.448,9,1,8.552,1,8s0.448-1,1-1h1.753c1.889,0,3.537,1.343,3.918,3.193l2.775,13.482c0.111,0.541-0.237,1.07-0.778,1.181	C9.601,24.871,9.533,24.877,9.466,24.877z"/><circle cx="37" cy="41" r="3" fill="#5c5f61"/><circle cx="37" cy="41" r="1" opacity=".15"/><circle cx="15" cy="41" r="3" fill="#5c5f61"/><circle cx="15" cy="41" r="1" opacity=".15"/><linearGradient id="lnuvO5HXdv5S77Ko2PVk_b" x1="25.5" x2="25.5" y1="39" y2="31" gradientUnits="userSpaceOnUse"><stop offset="0" stop-color="#92a3b0"/><stop offset=".015" stop-color="#a3b5c4"/><stop offset=".032" stop-color="#aec2d1"/><stop offset=".046" stop-color="#b2c6d6"/></linearGradient><path fill="url(#lnuvO5HXdv5S77Ko2PVk_b)" d="M41,39H13c-2.206,0-4-1.794-4-4s1.794-4,4-4h25c0.552,0,1,0.448,1,1s-0.448,1-1,1H13	c-1.103,0-2,0.897-2,2s0.897,2,2,2h28c0.552,0,1,0.448,1,1S41.552,39,41,39z"/><linearGradient id="lnuvO5HXdv5S77Ko2PVk_c" x1=".756" x2="3.384" y1="6.756" y2="9.384" gradientUnits="userSpaceOnUse"><stop offset="0" stop-color="#199ae0"/><stop offset="1" stop-color="#0782d8"/></linearGradient><path fill="url(#lnuvO5HXdv5S77Ko2PVk_c)" d="M4,8c0,1.104-0.896,2-2,2S0,9.104,0,8s0.896-2,2-2S4,6.896,4,8z"/><linearGradient id="lnuvO5HXdv5S77Ko2PVk_d" x1="6.773" x2="44.342" y1="24.53" y2="24.53" gradientUnits="userSpaceOnUse"><stop offset="0" stop-color="#3079d6"/><stop offset="1" stop-color="#297cd2"/></linearGradient><path fill="url(#lnuvO5HXdv5S77Ko2PVk_d)" d="M9.69,31.374C9.87,32.318,10.695,33,11.655,33h28.651c0.978,0,1.812-0.707,1.973-1.671	l2.063-12.379L6.773,16.06L9.69,31.374z"/><linearGradient id="lnuvO5HXdv5S77Ko2PVk_e" x1="6" x2="44.834" y1="15.475" y2="15.475" gradientUnits="userSpaceOnUse"><stop offset="0" stop-color="#42a3f2"/><stop offset="1" stop-color="#42a4eb"/></linearGradient><path fill="url(#lnuvO5HXdv5S77Ko2PVk_e)" d="M43.911,14.916L6,12l0.773,4.06l37.568,2.89l0.479-2.872	C44.917,15.499,44.496,14.961,43.911,14.916z"/><path d="M23,13.308V21h-2.648c-1.336,0-2.006,1.616-1.061,2.561l5.295,5.295c0.781,0.781,2.047,0.781,2.828,0	l5.295-5.295C33.654,22.616,32.985,21,31.648,21H29v-7.231L23,13.308z" opacity=".05"/><path d="M23.5,13.346V21.5h-3.021c-0.938,0-1.408,1.134-0.745,1.798l5.129,5.129	c0.627,0.627,1.644,0.627,2.271,0l5.129-5.129c0.663-0.663,0.194-1.798-0.745-1.798H28.5v-7.769L23.5,13.346z" opacity=".07"/><linearGradient id="lnuvO5HXdv5S77Ko2PVk_f" x1="27.629" x2="23.043" y1="30.202" y2="8.824" gradientUnits="userSpaceOnUse"><stop offset="0" stop-color="#fee100"/><stop offset="1" stop-color="#f9b70c"/></linearGradient><path fill="url(#lnuvO5HXdv5S77Ko2PVk_f)" d="M31.393,22H28V9c0-0.552-0.448-1-1-1h-2c-0.552,0-1,0.448-1,1v13h-3.393	c-0.54,0-0.81,0.653-0.428,1.034l4.964,4.964c0.473,0.473,1.241,0.473,1.714,0l4.964-4.964C32.203,22.653,31.933,22,31.393,22z"/></svg>