<svg xmlns="http://www.w3.org/2000/svg" xmlns:xlink="http://www.w3.org/1999/xlink" data-name="Слой 1" viewBox="0 0 48 48"><defs><linearGradient id="~E6SZeq1wY0GEmkA7NTYkb" x1="10.531" x2="27.482" y1="4.992" y2="51.563" data-name="Безымянный градиент 138" gradientUnits="userSpaceOnUse"><stop offset="0" stop-color="#6d6d6d"/><stop offset=".126" stop-color="#626262"/><stop offset=".987" stop-color="#464646"/><stop offset=".998" stop-color="#454545"/></linearGradient><linearGradient id="~E6SZeq1wY0GEmkA7NTYkc" x1="18.357" x2="24.573" y1="-1524.995" y2="-1560.249" data-name="Безымянный градиент 134" gradientTransform="matrix(1 0 0 -1 0 -1516)" gradientUnits="userSpaceOnUse"><stop offset="0" stop-color="#ffda1c"/><stop offset="1" stop-color="#feb705"/></linearGradient><linearGradient id="~E6SZeq1wY0GEmkA7NTYka" x1="6.815" x2="29.317" y1="12.815" y2="35.317" data-name="Безымянный градиент 151" gradientUnits="userSpaceOnUse"><stop offset="0" stop-color="#4b4b4b"/><stop offset=".531" stop-color="#393939"/><stop offset="1" stop-color="#252525"/></linearGradient><linearGradient id="~E6SZeq1wY0GEmkA7NTYkd" x1="8.534" x2="28.785" y1="14.534" y2="34.785" xlink:href="#~E6SZeq1wY0GEmkA7NTYka"/></defs><path fill="url(#~E6SZeq1wY0GEmkA7NTYkb)" d="M24.00043,4A1.96747,1.96747,0,0,0,22.2731,5.00878L1.82176,41.00568A2.00136,2.00136,0,0,0,3.54909,44H44.45078a2.001,2.001,0,0,0,1.72733-2.99432L25.72776,5.00878A1.96745,1.96745,0,0,0,24.00043,4Z"/><polygon fill="url(#~E6SZeq1wY0GEmkA7NTYkc)" points="5 41 24.001 8 43 41 5 41"/><ellipse cx="24" cy="30" fill="url(#~E6SZeq1wY0GEmkA7NTYka)" rx="4.975" ry="5"/><path fill="url(#~E6SZeq1wY0GEmkA7NTYkd)" d="M32.4,30.585,33,30l-.6-.57755a1.22058,1.22058,0,0,1-.23253-1.46239l.39-.74257-.75-.36749a1.22777,1.22777,0,0,1-.675-1.31243l.15-.82507-.83255-.12a1.22519,1.22519,0,0,1-1.04243-1.0426l-.12-.83244-.825.15a1.22757,1.22757,0,0,1-1.31254-.675l-.36749-.74993-.74251.39a1.20853,1.20853,0,0,1-1.455-.23247L24,21l-.5775.60007a1.22118,1.22118,0,0,1-1.4625.23247l-.74251-.39-.36749.74993a1.22753,1.22753,0,0,1-1.31248.675l-.825-.15-.12.83244A1.22519,1.22519,0,0,1,17.55,24.59253l-.83255.12.15.82507a1.22777,1.22777,0,0,1-.675,1.31243l-.75.36749.39.74257A1.20809,1.20809,0,0,1,15.6,29.415L15,30l.6.57744a1.22081,1.22081,0,0,1,.23247,1.4625l-.39.74246.75.3676a1.22762,1.22762,0,0,1,.675,1.31243l-.15.82507.83255.12A1.22508,1.22508,0,0,1,18.59247,36.45l.12.83244.825-.14986a1.2276,1.2276,0,0,1,1.31248.67489l.36749.75.74251-.39a1.20822,1.20822,0,0,1,1.455.23247L24,39l.5775-.60007a1.22086,1.22086,0,0,1,1.4625-.23247l.74251.39.36749-.75a1.22764,1.22764,0,0,1,1.31254-.67489l.825.14986.12-.83244A1.22508,1.22508,0,0,1,30.45,35.40747l.83255-.12-.15-.82507a1.22762,1.22762,0,0,1,.675-1.31243l.75-.3676-.39-.74246A1.208,1.208,0,0,1,32.4,30.585ZM24,37a7,7,0,1,1,7-7A7,7,0,0,1,24,37Z"/></svg>