<svg xmlns="http://www.w3.org/2000/svg" xmlns:xlink="http://www.w3.org/1999/xlink" data-name="Слой 1" viewBox="0 0 48 48"><defs><linearGradient id="dYWl8rOVCu5ncY20OXk9ga" x1="16" x2="16" y1="35.22" y2="19.682" data-name="Безымянный градиент 19" gradientUnits="userSpaceOnUse"><stop offset="0" stop-color="#c26715"/><stop offset=".508" stop-color="#b85515"/><stop offset="1" stop-color="#ad3f16"/></linearGradient><linearGradient id="dYWl8rOVCu5ncY20OXk9gb" x1="35.5" x2="35.5" y1="35.166" y2="23.512" xlink:href="#dYWl8rOVCu5ncY20OXk9ga"/><linearGradient id="dYWl8rOVCu5ncY20OXk9gc" x1="24" x2="24" y1="31.134" y2="47.209" data-name="Безымянный градиент 101" gradientUnits="userSpaceOnUse"><stop offset="0" stop-color="#21ad64"/><stop offset="1" stop-color="#088242"/></linearGradient></defs><path fill="url(#dYWl8rOVCu5ncY20OXk9ga)" d="M16.94123,35.00305H15.05877a.96877.96877,0,0,1-.99837-.99664L15.5,18.50305h1l1.4396,15.50336A.96877.96877,0,0,1,16.94123,35.00305Z"/><path fill="#107c42" d="M15.99911,19.223l8.07154-8.0825a6.71958,6.71958,0,0,0-8.07154,6.58805Z"/><path fill="#21a366" d="M16.01688,19.01392H29a8.50347,8.50347,0,0,0-12.98312,0Z"/><path fill="#33c481" d="M17.308,19.013H15.8699l8.50485,8.44313A7.11424,7.11424,0,0,0,17.308,19.013Z"/><path fill="#107c42" d="M15.99911,19.19767,7.92757,11.14a6.72149,6.72149,0,0,1,8.07154,6.56778Z"/><path fill="#21a366" d="M16,19.01392H3a8.35148,8.35148,0,0,1,6.49959-3.01087A8.35318,8.35318,0,0,1,16,19.01392Z"/><path fill="#33c481" d="M14.69127,19.013h1.43794l-8.504,8.44226a7.11349,7.11349,0,0,1,7.066-8.44226Z"/><path fill="url(#dYWl8rOVCu5ncY20OXk9gb)" d="M36.22731,35.00305H34.77269a.73758.73758,0,0,1-.77147-.74748l1.11242-11.62752h.77272l1.11242,11.62752A.73758.73758,0,0,1,36.22731,35.00305Z"/><path fill="#107c42" d="M35.49933,23.168,41.553,17.10611a5.03968,5.03968,0,0,0-6.05366,4.941Z"/><path fill="#21a366" d="M35.51266,23.01121H45.25a6.37759,6.37759,0,0,0-9.73734,0Z"/><path fill="#33c481" d="M36.481,23.01055H35.40242l6.37864,6.33234A5.33566,5.33566,0,0,0,36.481,23.01055Z"/><path fill="#107c42" d="M35.49933,23.149l-6.05365-6.04323a5.04109,5.04109,0,0,1,6.05365,4.92583Z"/><path fill="#21a366" d="M35.5,23.01121H25.75a6.39125,6.39125,0,0,1,9.75,0Z"/><path fill="#33c481" d="M34.51845,23.01055h1.07846l-6.378,6.33169a5.33511,5.33511,0,0,1,5.29952-6.33169Z"/><path fill="url(#dYWl8rOVCu5ncY20OXk9gc)" d="M42,31.003a3,3,0,0,0-3,3,3,3,0,1,0-6,0,3,3,0,1,0-6,0,3,3,0,1,0-6,0,3,3,0,0,0-6,0,3,3,0,0,0-6,0,3,3,0,0,0-6,0V41.0023a1.99947,1.99947,0,0,0,2,2H43a1.99947,1.99947,0,0,0,2-2V34.003A3,3,0,0,0,42,31.003Z"/><g><path fill="#33c481" d="M11.29289,38.70941a5.6072,5.6072,0,0,0,2.82843,1.41421,5.60715,5.60715,0,0,0-1.41421-2.82842A5.60716,5.60716,0,0,0,9.87868,35.881,5.60716,5.60716,0,0,0,11.29289,38.70941Z"/><path fill="#33c481" d="M13,38.0023a5.60714,5.60714,0,0,1-1,3,5.60714,5.60714,0,0,1-1-3,5.60718,5.60718,0,0,1,1-3A5.60718,5.60718,0,0,1,13,38.0023Z"/><path fill="#33c481" d="M12.70711,38.70941a5.6072,5.6072,0,0,1-2.82843,1.41421,5.60715,5.60715,0,0,1,1.41421-2.82842A5.60716,5.60716,0,0,1,14.12132,35.881,5.60716,5.60716,0,0,1,12.70711,38.70941Z"/><path fill="#33c481" d="M12,39.0023a5.60718,5.60718,0,0,0,3-1,5.60718,5.60718,0,0,0-3-1,5.60718,5.60718,0,0,0-3,1A5.60718,5.60718,0,0,0,12,39.0023Z"/></g><g><path fill="#33c481" d="M23.05719,38.94586a7.47622,7.47622,0,0,0,3.77124,1.88562,7.47617,7.47617,0,0,0-1.88562-3.77123,7.47622,7.47622,0,0,0-3.77124-1.88562A7.47617,7.47617,0,0,0,23.05719,38.94586Z"/><path fill="#33c481" d="M25.33333,38.00305a7.47623,7.47623,0,0,1-1.33333,4,7.47623,7.47623,0,0,1-1.33333-4,7.47627,7.47627,0,0,1,1.33333-4A7.47627,7.47627,0,0,1,25.33333,38.00305Z"/><path fill="#33c481" d="M24.94281,38.94586a7.47622,7.47622,0,0,1-3.77124,1.88562,7.47617,7.47617,0,0,1,1.88562-3.77123,7.47622,7.47622,0,0,1,3.77124-1.88562A7.47617,7.47617,0,0,1,24.94281,38.94586Z"/><path fill="#33c481" d="M24,39.33639a7.47619,7.47619,0,0,0,4-1.33334,7.47623,7.47623,0,0,0-4-1.33333,7.47623,7.47623,0,0,0-4,1.33333A7.47619,7.47619,0,0,0,24,39.33639Z"/></g><g><path fill="#33c481" d="M35.29289,37.70941a5.6072,5.6072,0,0,0,2.82843,1.41421A5,5,0,0,0,33.87868,34.881,5.60716,5.60716,0,0,0,35.29289,37.70941Z"/><path fill="#33c481" d="M37,37.0023a5.60714,5.60714,0,0,1-1,3,5.60714,5.60714,0,0,1-1-3,5.60718,5.60718,0,0,1,1-3A5.60718,5.60718,0,0,1,37,37.0023Z"/><path fill="#33c481" d="M36.70711,37.70941a5.6072,5.6072,0,0,1-2.82843,1.41421A5,5,0,0,1,38.12132,34.881,5.60716,5.60716,0,0,1,36.70711,37.70941Z"/><path fill="#33c481" d="M36,38.0023a5.60718,5.60718,0,0,0,3-1,5.60718,5.60718,0,0,0-3-1,5.60718,5.60718,0,0,0-3,1A5.60718,5.60718,0,0,0,36,38.0023Z"/></g><path fill="#107c42" d="M18.13867,8.97229a28.30264,28.30264,0,0,1-14.708-4.147,1.00006,1.00006,0,0,1,1.1377-1.645,25.40145,25.40145,0,0,0,26.917-.03467,1,1,0,0,1,1.0293,1.71485A27.59108,27.59108,0,0,1,18.13867,8.97229Z"/><path fill="#21a366" d="M33.63281,10.00305c-.09179,0-.18359-.001-.27636-.00341-5.89551-.15332-9.9668-5.15869-10.1377-5.37207a1.00026,1.00026,0,0,1,1.56152-1.25049c.03614.04492,3.68067,4.50244,8.64161,4.62353,3.01953.07276,6.01562-1.49463,8.831-4.66211a.99987.99987,0,1,1,1.49414,1.32911C40.59961,8.20911,37.19727,10.00305,33.63281,10.00305Z"/></svg>