<svg xmlns="http://www.w3.org/2000/svg" xmlns:xlink="http://www.w3.org/1999/xlink" data-name="Слой 1" viewBox="0 0 48 48"><defs><radialGradient id="hsiwtVdztG8tu1uMvEXtDa" cx="21.359" cy="10" r="31.022" data-name="Безымянный градиент 149" gradientUnits="userSpaceOnUse"><stop offset="0" stop-color="#21a366"/><stop offset="1" stop-color="#107c42"/></radialGradient><linearGradient id="hsiwtVdztG8tu1uMvEXtDb" x1="8.114" x2="10.568" y1="38.886" y2="36.432" data-name="Безымянный градиент 148" xlink:href="#hsiwtVdztG8tu1uMvEXtDa"/></defs><path fill="url(#hsiwtVdztG8tu1uMvEXtDa)" d="M37,19V16H30V11H25V5.5L21.84479,8.68549a14.53979,14.53979,0,0,0-3.0838,4.55462L14,25c-3,2-8.5,10.5-8.5,10.5l6,6S20,36,22,33l11.76184-4.761a14.59234,14.59234,0,0,0,4.55469-3.08386L47,16.5Z"/><path fill="url(#hsiwtVdztG8tu1uMvEXtDb)" d="M11.5,43a1.49514,1.49514,0,0,1-1.06055-.43945l-6-6a1.49984,1.49984,0,0,1,2.1211-2.1211l6,6A1.5,1.5,0,0,1,11.5,43Z"/><path fill="#185c37" d="M30,16v4H28a1,1,0,0,0-1,1v5.5l.98157.13489L29,22h1.71922a1,1,0,0,0,.97015-.75746L33,16Z"/><circle cx="27.5" cy="26.5" r=".5" fill="#185c37"/></svg>