<svg xmlns="http://www.w3.org/2000/svg" viewBox="0 0 48 48"><linearGradient id="jZIdMrp6SddQiiKFhtvEoa" x1="19.943" x2="24.3" y1="30.069" y2="46.667" gradientUnits="userSpaceOnUse"><stop offset="0" stop-color="#ca4e2a"/><stop offset="1" stop-color="#b63016"/></linearGradient><path fill="url(#jZIdMrp6SddQiiKFhtvEoa)" d="M21,27c0,0-10.3,2.4-13,6S5,44,5,44h36c0-9.8-1.7-10.8-10-17H21z"/><linearGradient id="jZIdMrp6SddQiiKFhtvEob" x1="36.432" x2="38.356" y1="40.228" y2="45.643" gradientUnits="userSpaceOnUse"><stop offset="0" stop-color="#de5e3a"/><stop offset=".372" stop-color="#db5a37"/><stop offset=".706" stop-color="#d04f2e"/><stop offset="1" stop-color="#c03f20"/></linearGradient><path fill="url(#jZIdMrp6SddQiiKFhtvEob)" d="M39,39.976c-0.315-0.604-4.448,0.52-5,2.024c0.226,0.995,0.578,2,0.578,2h6.389	C40.966,44,39.862,41.63,39,39.976z"/><linearGradient id="jZIdMrp6SddQiiKFhtvEoc" x1="20.947" x2="23.039" y1="39.838" y2="45.727" gradientTransform="matrix(-1 0 0 1 36.967 0)" gradientUnits="userSpaceOnUse"><stop offset="0" stop-color="#de5e3a"/><stop offset=".372" stop-color="#db5a37"/><stop offset=".706" stop-color="#d04f2e"/><stop offset="1" stop-color="#c03f20"/></linearGradient><path fill="url(#jZIdMrp6SddQiiKFhtvEoc)" d="M12,42c0.211-0.648,6.034-2.142,6-1.3S17.824,44,17.824,44h-6.567	C11.258,44,11.776,42.691,12,42z"/><linearGradient id="jZIdMrp6SddQiiKFhtvEod" x1="26.445" x2="26.445" y1="41.912" y2="33.414" gradientUnits="userSpaceOnUse"><stop offset="0" stop-color="#d69400"/><stop offset="1" stop-color="#c28200"/></linearGradient><path fill="url(#jZIdMrp6SddQiiKFhtvEod)" d="M31.488,30.986C31.218,33.195,29.2,42,26,42c-4,0-4.597-10.578-4.597-10.578	C23.122,32.72,30.139,33.941,31.488,30.986z"/><radialGradient id="jZIdMrp6SddQiiKFhtvEoe" cx="36.962" cy="10.52" r="31.883" gradientUnits="userSpaceOnUse"><stop offset="0" stop-color="#ffcf54"/><stop offset=".261" stop-color="#fdcb4d"/><stop offset=".639" stop-color="#f7c13a"/><stop offset="1" stop-color="#f0b421"/></radialGradient><path fill="url(#jZIdMrp6SddQiiKFhtvEoe)" d="M36.6,11.5c0.4-0.7,1.6-0.7,2.1,0.3c0.2,0.3,1.3,7.8,1.3,9.2s0.1,2.6-1.2,5S36,30.2,36,32	s3,8,3,8s-2,2-5,2c0,0-2.7-9.5-2-13c0,0,0.3-2.7,2-6S36.6,11.5,36.6,11.5z"/><radialGradient id="jZIdMrp6SddQiiKFhtvEof" cx="10.516" cy="10.745" r="24.163" gradientUnits="userSpaceOnUse"><stop offset="0" stop-color="#ffcf54"/><stop offset=".261" stop-color="#fdcb4d"/><stop offset=".639" stop-color="#f7c13a"/><stop offset="1" stop-color="#f0b421"/></radialGradient><path fill="url(#jZIdMrp6SddQiiKFhtvEof)" d="M14.2,12.2c0.2-1.3-1.9-1.5-2.5-0.7s-1.4,2-1.5,3s-0.4,4.9,0.7,7.4s4.1,5.3,4.1,7.9	S12,42,12,42c1.4,0,4.4,0.1,6-1.3c0-1.8,0.7-7.1,0.7-7.9c0.1-1.9,1.9-3.1,1.4-5.6L14.2,12.2z"/><radialGradient id="jZIdMrp6SddQiiKFhtvEog" cx="21.386" cy="3.421" r="42.121" gradientUnits="userSpaceOnUse"><stop offset="0" stop-color="#ffcf54"/><stop offset=".261" stop-color="#fdcb4d"/><stop offset=".639" stop-color="#f7c13a"/><stop offset="1" stop-color="#f0b421"/></radialGradient><path fill="url(#jZIdMrp6SddQiiKFhtvEog)" d="M26,3c-1,0-12,0.5-12,12c0,7.2,4.1,8.3,6,12s1.006,9,6,9c6.029,0,5.1-6.3,7-10s4-3.8,4-11	C37,3.5,27,3,26,3z"/><linearGradient id="jZIdMrp6SddQiiKFhtvEoh" x1="38.063" x2="33.475" y1="11.099" y2="32.922" gradientUnits="userSpaceOnUse"><stop offset="0" stop-color="#f8c23b"/><stop offset=".239" stop-color="#f4bc2f"/><stop offset=".592" stop-color="#f1b624"/><stop offset="1" stop-color="#f0b421"/></linearGradient><path fill="url(#jZIdMrp6SddQiiKFhtvEoh)" d="M39,15c0-1.2-0.1-2.2-0.3-3.2c-0.5-1-1.7-1-2.1-0.3l0,0c0.3,1,0.4,2.2,0.4,3.5	c0,7.2-2.1,7.3-4,11c-0.4,0.7-0.6,1.5-0.9,2.4C32,28.8,32,29,32,29c-0.2,1.1,0,3,0.5,5c0.6-1.2,0.9-2.5,1.2-3.7	c0.3-1.3,0.6-2.5,1.1-3.4s0.9-1.5,1.4-2.2C37.6,22.7,39,20.9,39,15z"/><linearGradient id="jZIdMrp6SddQiiKFhtvEoi" x1="12.872" x2="18.513" y1="11.175" y2="31.696" gradientUnits="userSpaceOnUse"><stop offset="0" stop-color="#f8c23b"/><stop offset=".239" stop-color="#f4bc2f"/><stop offset=".592" stop-color="#f1b624"/><stop offset="1" stop-color="#f0b421"/></linearGradient><path fill="url(#jZIdMrp6SddQiiKFhtvEoi)" d="M14,15c0-1,0.1-1.8,0.2-2.6l-0.1-0.2c0.1-0.9-0.9-1.3-1.7-1.1c-0.3,1.2-0.5,2.5-0.5,4	c0,5.7,2.3,8.3,4.2,10.3c0.8,0.9,1.5,1.7,2,2.6s0.7,2,1,3.1c0.5-1.1,1.2-2.2,0.9-3.8c0-0.1-0.1-0.2-0.1-0.2C18.1,23.3,14,22.2,14,15	z"/><path fill="#6d4c41" d="M25.5,23c-0.468,0-1.462,0.295-1.462,1.722c0,2.137,1.142,6.277,2.308,6.277	c1.321,0,1.653-2.358,1.653-3.26C28,25.269,26.919,23,25.5,23z"/><path fill="#f57f17" d="M25,20c0,0.6-0.4,1-1,1s-1-0.4-1-1s0.4-1,1-1S25,19.4,25,20z M27,19c-0.6,0-1,0.4-1,1s0.4,1,1,1	s1-0.4,1-1S27.6,19,27,19z"/><circle cx="20" cy="16" r="1" fill="#3b3b3b"/><circle cx="29" cy="15" r="1" fill="#3b3b3b"/></svg>