<svg xmlns="http://www.w3.org/2000/svg" viewBox="0 0 48 48"><linearGradient id="TknGRuK1NOdRqKHxHfkxJa" x1="41.914" x2="32.641" y1="28.5" y2="28.5" gradientUnits="userSpaceOnUse"><stop offset="0" stop-color="#0d61a9"/><stop offset=".482" stop-color="#0d60a7"/><stop offset=".711" stop-color="#0f5c9f"/><stop offset=".886" stop-color="#125592"/><stop offset="1" stop-color="#154e85"/></linearGradient><path fill="url(#TknGRuK1NOdRqKHxHfkxJa)" d="M31,13h9c1.105,0,2,0.895,2,2v29H31V13z"/><linearGradient id="TknGRuK1NOdRqKHxHfkxJb" x1="33.311" x2="38.841" y1="16.008" y2="42.723" gradientUnits="userSpaceOnUse"><stop offset="0" stop-color="#32bdef"/><stop offset="1" stop-color="#1ea2e4"/></linearGradient><path fill="url(#TknGRuK1NOdRqKHxHfkxJb)" d="M39,16v2h-2v-2H39z M37,22h2v-2h-2V22z M37,26h2v-2h-2V26z M37,30h2v-2h-2V30z M37,34h2v-2h-2	V34z M37,38h2v-2h-2V38z M37,42h2v-2h-2V42z M33,18h2v-2h-2V18z M33,22h2v-2h-2V22z M33,26h2v-2h-2V26z M33,30h2v-2h-2V30z M33,34h2	v-2h-2V34z M33,38h2v-2h-2V38z M33,42h2v-2h-2V42z"/><path fill="#ed6c47" d="M24,10h-2V5c0-0.552,0.448-1,1-1h0c0.552,0,1,0.448,1,1V10z"/><path fill="#ed6c47" d="M28,12h-2V5c0-0.552,0.448-1,1-1h0c0.552,0,1,0.448,1,1V12z"/><path fill="#c4401c" d="M13,4h2.615c0.254,0,0.507,0.049,0.743,0.143l13.385,5.354C30.502,9.801,31,10.536,31,11.354V44H11V6	C11,4.895,11.895,4,13,4z"/><path fill="#ff8f6b" d="M28,16v2h-2v-2H28z M26,22h2v-2h-2V22z M26,26h2v-2h-2V26z M26,30h2v-2h-2V30z M26,34h2v-2h-2V34z M26,38h2v-2h-2V38z M26,42h2v-2h-2V42z M22,18h2v-2h-2V18z M22,22h2v-2h-2V22z M18,18h2v-2h-2V18z M18,22h2v-2h-2V22z M14,18h2v-2	h-2V18z M14,22h2v-2h-2V22z M22,26h2v-2h-2V26z M18,26h2v-2h-2V26z M14,26h2v-2h-2V26z M26,14h2v-2h-2V14z M22,14h2v-2h-2V14z M18,10h2V8h-2V10z M18,14h2v-2h-2V14z M14,10h2V8h-2V10z M14,14h2v-2h-2V14z"/><path d="M11,24v20h15V27c0-1.657-1.343-3-3-3H11z" opacity=".05"/><path d="M11,25v19h14V27c0-1.105-0.895-2-2-2H11z" opacity=".07"/><linearGradient id="TknGRuK1NOdRqKHxHfkxJc" x1="11.831" x2="18.764" y1="27.335" y2="44.989" gradientUnits="userSpaceOnUse"><stop offset="0" stop-color="#ffcf54"/><stop offset=".261" stop-color="#fdcb4d"/><stop offset=".639" stop-color="#f7c13a"/><stop offset="1" stop-color="#f0b421"/></linearGradient><path fill="url(#TknGRuK1NOdRqKHxHfkxJc)" d="M23,26H7c-0.552,0-1,0.448-1,1v17h18V27C24,26.448,23.552,26,23,26z"/><path fill="#c28200" d="M22,28v2h-2v-2H22z M20,34h2v-2h-2V34z M20,38h2v-2h-2V38z M20,42h2v-2h-2V42z M16,30h2v-2h-2V30z M16,34h2v-2h-2V34z M16,38h2v-2h-2V38z M16,42h2v-2h-2V42z M12,30h2v-2h-2V30z M12,34h2v-2h-2V34z M12,38h2v-2h-2V38z M12,42h2v-2	h-2V42z M8,30h2v-2H8V30z M8,34h2v-2H8V34z M8,38h2v-2H8V38z M8,42h2v-2H8V42z"/></svg>