<svg xmlns="http://www.w3.org/2000/svg" xmlns:xlink="http://www.w3.org/1999/xlink" data-name="Слой 1" viewBox="0 0 48 48"><defs><linearGradient id="zOHhAyAYHNTGa6uVxLcL1a" x1="21.402" x2="27.417" y1="21.402" y2="27.417" data-name="Безымянный градиент 147" gradientUnits="userSpaceOnUse"><stop offset="0" stop-color="#dfe9f2"/><stop offset=".391" stop-color="#d6e0e9"/><stop offset="1" stop-color="#bfc8d1"/></linearGradient><linearGradient id="zOHhAyAYHNTGa6uVxLcL1b" x1="22.309" x2="29.925" y1="15.606" y2="36.532" gradientTransform="rotate(-45 25 23)" xlink:href="#zOHhAyAYHNTGa6uVxLcL1a"/></defs><path fill="url(#zOHhAyAYHNTGa6uVxLcL1a)" d="M5.5,44a1.5,1.5,0,0,1-1.06055-2.56055l37-37a1.49984,1.49984,0,0,1,2.1211,2.1211l-37,37A1.49514,1.49514,0,0,1,5.5,44Z"/><path fill="#889097" d="M41.12,11.12,18.83,33.41992l-.35.3501-.36.35-5.28,5.2799L12.41,39.83l-.29.29a1.80077,1.80077,0,0,1-.14.13,2.99707,2.99707,0,0,1-4.23-4.23,1.76716,1.76716,0,0,1,.13-.14l.29-.29.43-.43006L13.88,29.88l.36-.35.35-.3501L36.88,6.88a2.99813,2.99813,0,0,1,4.24,4.24Z"/><rect width="11.314" height="20.86" x="19.343" y="12.57" fill="#fc6900" rx="5.657" transform="rotate(45 25 23)"/><rect width="11.314" height="10.607" x="19.343" y="17.697" fill="url(#zOHhAyAYHNTGa6uVxLcL1b)" transform="rotate(45 25 23)"/><rect width="2.828" height="10.607" x="21.586" y="15.697" fill="#bfc8d1" transform="rotate(45 23 21)"/><rect width="2.828" height="10.607" x="25.586" y="19.697" fill="#bfc8d1" transform="rotate(45 27 25)"/><path fill="#64717c" d="M43.65,18.35l-2.3,2.29992a1.227,1.227,0,0,1-1.7,0L38.79,19.79,37.21,18.21,35.79,16.79,34.21,15.21,32.79,13.79,31.21,12.21,29.79,10.79,28.21,9.21l-.86-.86a1.22745,1.22745,0,0,1,0-1.70008L29.65,4.35a1.20106,1.20106,0,0,1,1.7,0L43.65,16.6499A1.20121,1.20121,0,0,1,43.65,18.35Z"/><path fill="#fc6900" d="M9.05025,30.75736h7.89949a1,1,0,0,1,1,1V34.2929A4.94974,4.94974,0,0,1,13,39.24264h0A4.94974,4.94974,0,0,1,8.05025,34.2929V31.75736a1,1,0,0,1,1-1Z" transform="rotate(45 13 35)"/><path fill="#4f5c63" d="M36.71,12.71l-2.5,2.5L32.79,13.79l2.5-2.5A1.00408,1.00408,0,1,1,36.71,12.71Z"/><path fill="#4f5c63" d="M33.71,9.71l-2.5,2.5L29.79,10.79l2.5-2.5A1.00408,1.00408,0,1,1,33.71,9.71Z"/><path fill="#4f5c63" d="M39.71,15.71l-2.5,2.5L35.79,16.79l2.5-2.5A1.00408,1.00408,0,1,1,39.71,15.71Z"/><path fill="#4f5c63" d="M30.71,6.71l-2.5,2.5-.86-.86a1.16126,1.16126,0,0,1-.34-.77991l2.28-2.28A1.00408,1.00408,0,0,1,30.71,6.71Z"/><path fill="#4f5c63" d="M42.71,18.71l-2.28,2.28a1.16086,1.16086,0,0,1-.78-.34009L38.79,19.79l2.5-2.5A1.00408,1.00408,0,1,1,42.71,18.71Z"/><g><path d="M33.08,14.91992a6.589,6.589,0,0,0-2.62-1.61987l-.82.81995a5.56426,5.56426,0,0,1,4.24,4.24L34.7,17.54A6.5904,6.5904,0,0,0,33.08,14.91992ZM16.12,27.64l-.42.42-.4.3999a6.7095,6.7095,0,0,0,4.24,4.24l.82-.82a5.56426,5.56426,0,0,1-4.24-4.24Z" opacity=".05"/><path d="M32.73,15.27A6.11256,6.11256,0,0,0,30.06,13.7l-.42.42a5.56426,5.56426,0,0,1,4.24,4.24l.42-.42A6.11166,6.11166,0,0,0,32.73,15.27ZM16.12,27.64l-.42.42a6.16754,6.16754,0,0,0,4.24,4.24l.42-.42a5.56426,5.56426,0,0,1-4.24-4.24Z" opacity=".07"/></g><g><path d="M14.59,29.17993l-.35.3501-.36.35,4.24,4.24.36-.35.35-.3501Zm-5.99,5.98L8.17,35.59l-.29.29a1.76716,1.76716,0,0,0-.13.14,5.90766,5.90766,0,0,0,4.23,4.23,1.80077,1.80077,0,0,0,.14-.13l.29-.29L12.84,39.3999a4.92281,4.92281,0,0,1-4.24-4.24Z" opacity=".05"/><path d="M14.24,29.53l-.36.35,4.24,4.24.36-.35ZM8.6,35.15991,8.17,35.59a5.41829,5.41829,0,0,0,4.24,4.24L12.84,39.3999a4.92281,4.92281,0,0,1-4.24-4.24Z" opacity=".07"/></g><g><path d="M41.83,6.16992a3.99107,3.99107,0,0,0-1.27-.84985L40.17,5.71l-.39.39a2.91313,2.91313,0,0,1,1.34.78,2.8751,2.8751,0,0,1,.77,1.35l.4-.4.39-.39A3.88458,3.88458,0,0,0,41.83,6.16992ZM7.1,38.78l-.39.38989-.39.39014A3.88286,3.88286,0,0,0,7.17,40.83a4.03206,4.03206,0,0,0,1.26.86l.4-.3999.39-.39014A2.91184,2.91184,0,0,1,7.88,40.12,2.96411,2.96411,0,0,1,7.1,38.78Z" opacity=".05"/><path d="M41.47,6.53A3.49745,3.49745,0,0,0,40.17,5.71l-.39.39a2.91313,2.91313,0,0,1,1.34.78,2.8751,2.8751,0,0,1,.77,1.35l.4-.4A3.28919,3.28919,0,0,0,41.47,6.53ZM7.1,38.78l-.39.38989A3.333,3.333,0,0,0,7.53,40.47a3.19581,3.19581,0,0,0,1.3.82007l.39-.39014A2.91184,2.91184,0,0,1,7.88,40.12,2.96411,2.96411,0,0,1,7.1,38.78Z" opacity=".07"/></g></svg>