<svg xmlns="http://www.w3.org/2000/svg" viewBox="0 0 48 48"><linearGradient id="KS6xSj70m42PPXXTCvWSda" x1="18.921" x2="25.143" y1="246.285" y2="225.285" gradientTransform="matrix(1 0 0 -1 0 254)" gradientUnits="userSpaceOnUse"><stop offset="0" stop-color="#0078d3"/><stop offset="1" stop-color="#0858a1"/></linearGradient><path fill="url(#KS6xSj70m42PPXXTCvWSda)" d="M43,31.452H5V18.554c0-0.686,0.352-1.325,0.932-1.691l16.466-10.4 c0.979-0.618,2.225-0.618,3.204,0l16.466,10.4C42.648,17.23,43,17.868,43,18.554V31.452z"/><path fill="#ffadc8" d="M23.802,30.171L39,21.328V15L28,4H11C9.895,4,9,4.895,9,6v15.376L23.802,30.171z"/><linearGradient id="KS6xSj70m42PPXXTCvWSdb" x1="25.886" x2="37.997" y1="224.064" y2="206.731" gradientTransform="matrix(1 0 0 -1 0 254)" gradientUnits="userSpaceOnUse"><stop offset="0" stop-color="#3ccbf4"/><stop offset="1" stop-color="#1fa0e5"/></linearGradient><path fill="url(#KS6xSj70m42PPXXTCvWSdb)" d="M43,19v21.256C43,41.219,42.206,42,41.226,42H9.56l4.803-6.327L43,19z"/><linearGradient id="KS6xSj70m42PPXXTCvWSdc" x1="3.074" x2="39.962" y1="224.764" y2="206.875" gradientTransform="matrix(1 0 0 -1 0 254)" gradientUnits="userSpaceOnUse"><stop offset="0" stop-color="#28afea"/><stop offset="1" stop-color="#0b88da"/></linearGradient><path fill="url(#KS6xSj70m42PPXXTCvWSdc)" d="M5,19v21.256C5,41.219,5.794,42,6.774,42h34.453c0.56,0,1.053-0.26,1.378-0.658L5,19z"/><path fill="#e72636" d="M28,4v9c0,1.105,0.895,2,2,2h9L28,4z"/><path fill="#e72636" d="M13.167,11.398v1.785H12V8h1.828c1.306,0,1.959,0.551,1.959,1.652c0,0.521-0.187,0.942-0.562,1.263 c-0.375,0.322-0.875,0.482-1.502,0.482H13.167z M13.167,8.897v1.615h0.459c0.622,0,0.932-0.272,0.932-0.817 c0-0.532-0.31-0.798-0.932-0.798L13.167,8.897L13.167,8.897z"/><path fill="#e72636" d="M16.546,13.183V8h1.836c1.841,0,2.761,0.842,2.761,2.526c0,0.808-0.251,1.452-0.753,1.933 c-0.502,0.482-1.172,0.723-2.007,0.723L16.546,13.183L16.546,13.183z M17.713,8.951v3.285h0.578c0.506,0,0.902-0.152,1.191-0.455 c0.288-0.303,0.432-0.717,0.432-1.24c0-0.494-0.142-0.882-0.427-1.165c-0.286-0.284-0.686-0.425-1.202-0.425H17.713z"/><path fill="#e72636" d="M25,8.951h-1.829v1.272h1.681v0.947h-1.681v2.013h-1.167V8H25V8.951z"/></svg>