<svg xmlns="http://www.w3.org/2000/svg" viewBox="0 0 48 48"><linearGradient id="g_H_UYQklpoFFk1cdYCcha" x1="24" x2="24" y1="3.945" y2="37.945" gradientUnits="userSpaceOnUse"><stop offset="0" stop-color="#f0f0f0"/><stop offset="1" stop-color="#bbc1c4"/></linearGradient><path fill="url(#g_H_UYQklpoFFk1cdYCcha)" d="M36,38H12V6c0-1.105,0.895-2,2-2h20c1.105,0,2,0.895,2,2V38z"/><linearGradient id="g_H_UYQklpoFFk1cdYCchb" x1="17.481" x2="29.039" y1="8.276" y2="37.017" gradientUnits="userSpaceOnUse"><stop offset="0" stop-color="#33bef0"/><stop offset="1" stop-color="#0a85d9"/></linearGradient><path fill="url(#g_H_UYQklpoFFk1cdYCchb)" d="M25,6h9v9h-9V6z M14,6h9v9h-9V6z M25,17h9v9h2l1,6l-1,6H25V17z M14,17h9v21H12l-1-5l1-7 l2,0.003V17z"/><path fill="#e3a600" d="M24,39c-0.553,0-1-0.448-1-1V27c0-0.552,0.447-1,1-1s1,0.448,1,1v11C25,38.552,24.553,39,24,39z"/><path fill="#e3a600" d="M27.862,39.22c-0.092,0-0.187-0.013-0.28-0.041c-0.526-0.153-0.831-0.703-0.683-1.23	c0.012-0.045,0.351-1.402,0.351-5.449c0-4.097-0.348-5.437-0.351-5.45c-0.143-0.53,0.167-1.08,0.694-1.228	c0.528-0.147,1.075,0.151,1.229,0.678c0.044,0.15,0.428,1.594,0.428,5.999c0,4.405-0.384,5.849-0.428,5.999	C28.695,38.936,28.296,39.22,27.862,39.22z"/><path fill="#e3a600" d="M31.724,39.438c-0.142,0-0.285-0.03-0.423-0.094c-0.497-0.232-0.714-0.822-0.486-1.32	c0.021-0.05,0.686-1.645,0.686-5.523c0-3.923-0.679-5.509-0.686-5.524c-0.222-0.501,0-1.093,0.499-1.319s1.085-0.014,1.317,0.482	c0.089,0.19,0.869,1.987,0.869,6.361s-0.78,6.171-0.869,6.361C32.461,39.225,32.101,39.438,31.724,39.438z"/><path fill="#e3a600" d="M35.586,39.657c-0.172,0-0.346-0.044-0.504-0.137c-0.475-0.278-0.636-0.887-0.361-1.362	c0.024-0.045,1.03-1.898,1.03-5.658c0-3.789-1.021-5.641-1.031-5.659c-0.27-0.479-0.105-1.088,0.371-1.362	c0.473-0.273,1.081-0.116,1.359,0.358c0.053,0.091,1.301,2.273,1.301,6.663c0,4.389-1.248,6.571-1.301,6.662	C36.264,39.48,35.93,39.657,35.586,39.657z"/><path fill="#e3a600" d="M39.448,39.876c-0.191,0-0.385-0.055-0.556-0.169c-0.457-0.307-0.581-0.925-0.276-1.384	c0.033-0.051,1.385-2.185,1.385-5.823c0-3.666-1.372-5.803-1.386-5.825c-0.301-0.46-0.176-1.08,0.283-1.383	c0.46-0.305,1.075-0.182,1.382,0.275c0.07,0.105,1.721,2.621,1.721,6.933s-1.65,6.827-1.721,6.932	C40.088,39.72,39.771,39.876,39.448,39.876z"/><path fill="#e3a600" d="M20.133,39.215c-0.432,0-0.828-0.28-0.955-0.716c-0.044-0.15-0.428-1.594-0.428-5.999	c0-4.405,0.384-5.849,0.428-5.999c0.153-0.53,0.702-0.838,1.24-0.68c0.53,0.154,0.834,0.709,0.68,1.24	c0,0.002-0.348,1.343-0.348,5.439c0,4.096,0.348,5.437,0.351,5.45c0.143,0.529-0.167,1.079-0.694,1.227	C20.314,39.203,20.224,39.215,20.133,39.215z"/><path fill="#e3a600" d="M16.271,39.434c-0.375,0-0.732-0.211-0.901-0.573C15.28,38.671,14.5,36.875,14.5,32.5	s0.78-6.171,0.869-6.361c0.234-0.499,0.827-0.716,1.33-0.482c0.5,0.233,0.716,0.829,0.482,1.329	C17.179,26.991,16.5,28.577,16.5,32.5s0.679,5.509,0.686,5.524c0.222,0.501,0,1.093-0.499,1.319	C16.552,39.405,16.409,39.434,16.271,39.434z"/><path fill="#e3a600" d="M12.409,39.655c-0.342,0-0.674-0.176-0.859-0.493c-0.053-0.091-1.301-2.273-1.301-6.662	c0-4.389,1.248-6.572,1.301-6.663c0.279-0.477,0.893-0.638,1.368-0.357c0.477,0.279,0.637,0.891,0.358,1.368	c-0.007,0.011-1.027,1.863-1.027,5.652c0,3.789,1.021,5.641,1.031,5.659c0.27,0.479,0.105,1.088-0.371,1.362	C12.752,39.611,12.579,39.655,12.409,39.655z"/><path fill="#e3a600" d="M8.549,39.875c-0.321,0-0.637-0.155-0.829-0.442c-0.07-0.105-1.721-2.62-1.721-6.932	s1.65-6.828,1.721-6.933c0.307-0.46,0.931-0.581,1.387-0.275c0.46,0.307,0.583,0.928,0.275,1.387	c-0.011,0.017-1.383,2.155-1.383,5.82c0,3.665,1.372,5.803,1.386,5.824c0.301,0.46,0.176,1.08-0.283,1.384	C8.931,39.82,8.738,39.875,8.549,39.875z"/><linearGradient id="g_H_UYQklpoFFk1cdYCchc" x1="24" x2="24" y1="37.829" y2="42.145" gradientUnits="userSpaceOnUse"><stop offset="0" stop-color="#d43a02"/><stop offset="1" stop-color="#b9360c"/></linearGradient><path fill="url(#g_H_UYQklpoFFk1cdYCchc)" d="M39,42H9c-1.105,0-2-0.895-2-2v-2h34v2C41,41.105,40.105,42,39,42z"/><path fill="#de490d" d="M40,27H8c-1.654,0-3-1.346-3-3s1.346-3,3-3c0.553,0,1,0.448,1,1s-0.447,1-1,1c-0.552,0-1,0.449-1,1	s0.448,1,1,1h32c0.552,0,1-0.449,1-1s-0.448-1-1-1c-0.553,0-1-0.448-1-1s0.447-1,1-1c1.654,0,3,1.346,3,3S41.654,27,40,27z"/></svg>