<svg xmlns="http://www.w3.org/2000/svg" viewBox="0 0 48 48"><linearGradient id="61QP69plHTA_h1O1V8eKna" x1="8.663" x2="38.122" y1="789.839" y2="814.695" gradientTransform="translate(0 -781.78)" gradientUnits="userSpaceOnUse"><stop offset="0" stop-color="#a1aab3"/><stop offset="1" stop-color="#8f979e"/></linearGradient><path fill="url(#61QP69plHTA_h1O1V8eKna)" d="M41,35H7c-1.105,0-2-0.895-2-2V9c0-1.105,0.895-2,2-2h34c1.105,0,2,0.895,2,2v24	C43,34.105,42.105,35,41,35z"/><radialGradient id="61QP69plHTA_h1O1V8eKnb" cx="-17.925" cy="53.192" r="87.515" gradientTransform="matrix(1 0 0 -1 0 47.89)" gradientUnits="userSpaceOnUse"><stop offset=".323" stop-color="#23d9d6"/><stop offset=".427" stop-color="#23d4d7"/><stop offset=".542" stop-color="#21c7dc"/><stop offset=".664" stop-color="#1fb0e2"/><stop offset=".789" stop-color="#1c91ec"/><stop offset=".917" stop-color="#1969f8"/><stop offset=".944" stop-color="#1860fb"/></radialGradient><rect width="34" height="24" x="7" y="9" fill="url(#61QP69plHTA_h1O1V8eKnb)"/><linearGradient id="61QP69plHTA_h1O1V8eKnc" x1="24" x2="24" y1="816.765" y2="823.794" gradientTransform="translate(0 -781.78)" gradientUnits="userSpaceOnUse"><stop offset="0" stop-color="#484b4f"/><stop offset=".23" stop-color="#656d75"/><stop offset=".367" stop-color="#727d86"/></linearGradient><path fill="url(#61QP69plHTA_h1O1V8eKnc)" d="M33,38h-5v-3h-8v3h-5c-0.552,0-1,0.448-1,1v2c0,0.552,0.448,1,1,1h18c0.552,0,1-0.448,1-1v-2	C34,38.448,33.552,38,33,38z"/><path d="M14,12.5V19c0,0.72-0.39,1.38-1,1.73V35H9V20.73C8.39,20.38,8,19.72,8,19	v-6.5C8,11.67,8.67,11,9.5,11h3C13.33,11,14,11.67,14,12.5z" opacity=".05"/><path d="M13.5,12.5V19c0,0.65-0.42,1.21-1,1.41V35h-3V20.41	c-0.58-0.2-1-0.76-1-1.41v-6.5c0-0.55,0.45-1,1-1h3C13.05,11.5,13.5,11.95,13.5,12.5z" opacity=".07"/><path fill="#0d62ab" d="M12,19h-2v22c0,0.552,0.448,1,1,1l0,0c0.552,0,1-0.448,1-1V19z"/><linearGradient id="61QP69plHTA_h1O1V8eKnd" x1="11" x2="11" y1="35.913" y2="31.957" gradientTransform="matrix(1 0 0 -1 0 47.89)" gradientUnits="userSpaceOnUse"><stop offset="0" stop-color="#fcfcfc"/><stop offset=".642" stop-color="#e1e4e6"/><stop offset=".778" stop-color="#d8dcdf"/><stop offset=".978" stop-color="#c3c9cd"/></linearGradient><path fill="url(#61QP69plHTA_h1O1V8eKnd)" d="M12.5,12h-3C9.224,12,9,12.224,9,12.5V15l2,1l2-1v-2.5C13,12.224,12.776,12,12.5,12z"/><path fill="#0078d4" d="M12,20h-2c-0.552,0-1-0.448-1-1v-4h4v4C13,19.552,12.552,20,12,20z"/><path fill="#0d62ab" d="M11.5,18h-1c-0.276,0-0.5-0.224-0.5-0.5V15h2v2.5C12,17.776,11.776,18,11.5,18z"/></svg>