<svg xmlns="http://www.w3.org/2000/svg" viewBox="0 0 48 48"><linearGradient id="cYDEdTMkHIcwRNKpOetzTa" x1="24" x2="24" y1="518.016" y2="509.747" gradientTransform="matrix(1 0 0 -1 0 524.724)" gradientUnits="userSpaceOnUse"><stop offset="0" stop-color="#eba600"/><stop offset="1" stop-color="#c28200"/></linearGradient><path fill="url(#cYDEdTMkHIcwRNKpOetzTa)" d="M24.414,10.414l-2.536-2.536C21.316,7.316,20.553,7,19.757,7H5C3.895,7,3,7.895,3,9v30 c0,1.105,0.895,2,2,2h38c1.105,0,2-0.895,2-2V13c0-1.105-0.895-2-2-2H25.828C25.298,11,24.789,10.789,24.414,10.414z"/><linearGradient id="cYDEdTMkHIcwRNKpOetzTb" x1="24" x2="24" y1="513.87" y2="483.741" gradientTransform="matrix(1 0 0 -1 0 524.724)" gradientUnits="userSpaceOnUse"><stop offset="0" stop-color="#ffd869"/><stop offset="1" stop-color="#fec52b"/></linearGradient><path fill="url(#cYDEdTMkHIcwRNKpOetzTb)" d="M21.586,14.414l3.268-3.268C24.947,11.053,25.074,11,25.207,11H43c1.105,0,2,0.895,2,2v26 c0,1.105-0.895,2-2,2H5c-1.105,0-2-0.895-2-2V15.5C3,15.224,3.224,15,3.5,15h16.672C20.702,15,21.211,14.789,21.586,14.414z"/><linearGradient id="cYDEdTMkHIcwRNKpOetzTc" x1="21.615" x2="26.394" y1="19.804" y2="36.229" gradientUnits="userSpaceOnUse"><stop offset="0" stop-color="#0370c8"/><stop offset=".484" stop-color="#036fc5"/><stop offset=".775" stop-color="#036abd"/><stop offset="1" stop-color="#0362b0"/></linearGradient><path fill="url(#cYDEdTMkHIcwRNKpOetzTc)" d="M24,20.522c0,0.267-0.212,0.476-0.479,0.494C19.884,21.263,17,24.302,17,28 c0,1.418,0.444,2.725,1.172,3.828l0.975-0.975C19.461,30.539,20,30.762,20,31.207V34.5c0,0.276-0.224,0.5-0.5,0.5h-3.293 c-0.445,0-0.669-0.539-0.354-0.854l0.87-0.87C15.643,31.793,15,29.972,15,28c0-4.788,3.757-8.714,8.478-8.985 C23.762,18.999,24,19.237,24,19.521V20.522z M31.274,22.726l0.873-0.873C32.461,21.539,32.238,21,31.793,21H28.5 c-0.276,0-0.5,0.224-0.5,0.5v3.293c0,0.445,0.539,0.669,0.854,0.354l0.986-0.986C30.569,25.264,31,26.581,31,28 c0,3.698-2.884,6.737-6.521,6.984C24.212,35.002,24,35.211,24,35.478v1.001c0,0.284,0.238,0.522,0.522,0.506 C29.243,36.714,33,32.788,33,28C33,26.028,32.355,24.209,31.274,22.726z"/></svg>