<svg xmlns="http://www.w3.org/2000/svg" id="Layer_1" x="0" y="0" version="1.1" viewBox="0 0 48 48" xml:space="preserve"><linearGradient id="SVGID_1_" x1="-53.969" x2="-25.89" y1="-636.031" y2="-664.11" gradientTransform="rotate(90 -345 -281)" gradientUnits="userSpaceOnUse"><stop offset="0" stop-color="#fede00"/><stop offset=".519" stop-color="#fecc00"/><stop offset="1" stop-color="#ffb700"/></linearGradient><path fill="url(#SVGID_1_)" d="M24,44c11,0,20-9,20-20S35,4,24,4S4,13,4,24S13,44,24,44z"/><circle cx="16" cy="22" r="6" fill="#fff"/><circle cx="32" cy="22" r="6" fill="#fff"/><circle cx="16" cy="22" r="2" fill="#343434"/><circle cx="32" cy="22" r="2" fill="#343434"/><path fill="#343434" d="M31,36H17c-0.6,0-1-0.4-1-1s0.4-1,1-1h14c0.6,0,1,0.4,1,1S31.6,36,31,36z"/></svg>