<svg xmlns="http://www.w3.org/2000/svg" xmlns:xlink="http://www.w3.org/1999/xlink" data-name="Слой 1" viewBox="0 0 48 48"><defs><linearGradient id="H4wuXfpyAtH_bOFIjh_doa" x1="10.561" x2="15.914" y1="14.857" y2="20.211" data-name="Безымянный градиент 106" gradientUnits="userSpaceOnUse"><stop offset="0" stop-color="#c26715"/><stop offset=".51" stop-color="#b85515"/><stop offset="1" stop-color="#ad3f16"/></linearGradient><linearGradient id="H4wuXfpyAtH_bOFIjh_dob" x1="36.622" x2="31.692" y1="15.674" y2="20.604" xlink:href="#H4wuXfpyAtH_bOFIjh_doa"/><linearGradient id="H4wuXfpyAtH_bOFIjh_doc" x1="24" x2="24" y1="-.567" y2="40.4" gradientUnits="userSpaceOnUse"><stop offset="0" stop-color="#d4943b"/><stop offset="1" stop-color="#c2620e"/></linearGradient></defs><path fill="#0078d4" d="M35,4.01H13a3.99891,3.99891,0,0,0-4,4V13a1,1,0,0,0,2,0V9a1,1,0,0,1,2,0v4a1,1,0,0,0,2,0V9a1,1,0,0,1,2,0v4a1,1,0,0,0,2,0V9a1,1,0,0,1,2,0v4a1,1,0,0,0,2,0V9a1,1,0,1,1,2,0v4a1,1,0,0,0,2,0V9a1,1,0,1,1,2,0v4a1,1,0,0,0,2,0V9a1,1,0,1,1,2,0v4a1,1,0,0,0,2,0V9a1,1,0,1,1,2,0v4a1,1,0,0,0,2,0V8.01A3.99891,3.99891,0,0,0,35,4.01Z"/><path fill="url(#H4wuXfpyAtH_bOFIjh_doa)" d="M11.43525,26.94482,23.75,22.853V16H16.6A6.73008,6.73008,0,0,0,10,22.853v3.004A1.10761,1.10761,0,0,0,11.43525,26.94482Z"/><path fill="url(#H4wuXfpyAtH_bOFIjh_dob)" d="M36.56475,26.94482,24.25,22.853V16H31.4A6.73008,6.73008,0,0,1,38,22.853v3.004A1.10762,1.10762,0,0,1,36.56475,26.94482Z"/><path fill="url(#H4wuXfpyAtH_bOFIjh_doc)" d="M35,28.5v-1.1761c0-8.09937-8.70149-13.82688-15.92313-10.20765a10.57256,10.57256,0,0,0-6.07681,9.126L13,28.5a1.77514,1.77514,0,0,1-.41426,1.4654,8.09415,8.09415,0,0,0-2.49193,7.18168A8.59634,8.59634,0,0,0,18.3326,44H28.5657c4.92816,0,8.77653-3.06251,9.34148-6.85969a8.09369,8.09369,0,0,0-2.48666-7.169A1.78428,1.78428,0,0,1,35,28.5Z"/><rect width="2" height="9.962" x="23" y="34.038" fill="#5c2415"/><path fill="#5c2415" d="M27,32.6c0-1.10457-1.34315-1.6-3-1.6s-3,.49543-3,1.6S22.34315,35,24,35,27,33.70456,27,32.6Z"/><circle cx="18.49" cy="28.49" r="1.49" fill="#5c2415"/><circle cx="29.49" cy="28.49" r="1.49" fill="#5c2415"/></svg>