<svg xmlns="http://www.w3.org/2000/svg" viewBox="0 0 48 48"><linearGradient id="~V8OEjf1cw0Fhs~EIn8Csa" x1="22.819" x2="18.478" y1="15.89" y2="15.89" gradientTransform="matrix(1 0 0 -1 0 47.89)" gradientUnits="userSpaceOnUse"><stop offset=".168" stop-color="#c9cdcf"/><stop offset=".269" stop-color="#d2d5d7"/><stop offset=".482" stop-color="#e1e2e4"/><stop offset=".859" stop-color="#e4e4e6"/></linearGradient><path fill="url(#~V8OEjf1cw0Fhs~EIn8Csa)" d="M25.682,38H18c-2.757,0-5-2.243-5-5v-6c0-0.552,0.447-1,1-1s1,0.448,1,1v6	c0,1.654,1.346,3,3,3h7.682c0.553,0,1,0.447,1,1S26.234,38,25.682,38z"/><linearGradient id="~V8OEjf1cw0Fhs~EIn8Csb" x1="-456.6" x2="-456.6" y1="240.392" y2="244.546" gradientTransform="matrix(0 -1 -1 0 277.218 -416.6)" gradientUnits="userSpaceOnUse"><stop offset="0" stop-color="#fede00"/><stop offset=".787" stop-color="#ffd400"/><stop offset="1" stop-color="#ffd000"/></linearGradient><path fill="url(#~V8OEjf1cw0Fhs~EIn8Csb)" d="M37,39.973v0.055C37,40.565,36.565,41,36.027,41h-4.073v-2h4.073	C36.565,39,37,39.435,37,39.973z"/><linearGradient id="~V8OEjf1cw0Fhs~EIn8Csc" x1="-450.6" x2="-450.6" y1="240.272" y2="244.078" gradientTransform="matrix(0 -1 -1 0 277.218 -416.6)" gradientUnits="userSpaceOnUse"><stop offset="0" stop-color="#fede00"/><stop offset=".567" stop-color="#fed900"/><stop offset="1" stop-color="#ffd000"/></linearGradient><path fill="url(#~V8OEjf1cw0Fhs~EIn8Csc)" d="M37,33.973v0.055C37,34.565,36.565,35,36.027,35h-4.073v-2h4.073	C36.565,33,37,33.435,37,33.973z"/><path fill="#a1aab3" d="M22,39v-4c0-0.98,0.572-1.983,1.479-2.421l0,0C24.265,32.198,25.133,32,26.012,32h4.681v10h-4.681	c-0.88,0-1.747-0.198-2.534-0.579l0,0C22.572,40.983,22,39.98,22,39z"/><path fill="#8795a1" d="M30.063,42V32c0-0.552,0.448-1,1-1h1.153c0.552,0,1,0.448,1,1v10c0,0.552-0.448,1-1,1h-1.153	C30.51,43,30.063,42.552,30.063,42z"/><linearGradient id="~V8OEjf1cw0Fhs~EIn8Csd" x1="16.832" x2="30.197" y1="42.119" y2="16.983" gradientTransform="matrix(1 0 0 -1 0 47.89)" gradientUnits="userSpaceOnUse"><stop offset="0" stop-color="#2aa4f4"/><stop offset="1" stop-color="#007ad9"/></linearGradient><path fill="url(#~V8OEjf1cw0Fhs~EIn8Csd)" d="M34.183,9.034C31.992,5.422,28.034,3,23.5,3c-6.087,0-11.152,4.353-12.266,10.115	C7.696,13.718,5,16.79,5,20.5c0,4.142,3.358,7.5,7.5,7.5c0.007,0,0.014-0.001,0.021-0.001V28H33.5c5.247,0,9.5-4.253,9.5-9.5	C43,13.484,39.11,9.386,34.183,9.034z"/></svg>