<svg xmlns="http://www.w3.org/2000/svg" viewBox="0 0 48 48"><polygon fill="#d35230" points="42,12 31,6 20,12 20,44 42,44"/><path fill="#b83c1f" d="M41.999,13c-0.167,0-0.331-0.042-0.478-0.122L31,7.139l-10.521,5.739	c-0.485,0.265-1.092,0.086-1.357-0.399c-0.265-0.485-0.086-1.092,0.399-1.357l0,0l11-6c0.299-0.162,0.659-0.162,0.958,0l11,6	c0.485,0.265,0.663,0.872,0.399,1.357C42.702,12.8,42.365,13,41.999,13z"/><rect width="4" height="4" x="23" y="22" fill="#ff8f6b"/><rect width="4" height="4" x="29" y="22" fill="#ff8f6b"/><rect width="4" height="4" x="35" y="22" fill="#ff8f6b"/><rect width="4" height="4" x="23" y="29" fill="#ff8f6b"/><rect width="4" height="4" x="29" y="29" fill="#ff8f6b"/><rect width="4" height="4" x="35" y="29" fill="#ff8f6b"/><rect width="4" height="4" x="23" y="36" fill="#ff8f6b"/><rect width="4" height="4" x="29" y="36" fill="#ff8f6b"/><rect width="4" height="4" x="35" y="36" fill="#ff8f6b"/><rect width="4" height="4" x="23" y="15" fill="#ff8f6b"/><rect width="4" height="4" x="29" y="15" fill="#ff8f6b"/><path d="M29,28.732c0.316-0.182,0.578-0.449,0.755-0.773c0.256-0.469,0.314-1.009,0.164-1.522	c-0.151-0.513-0.492-0.937-0.961-1.192L20,20.358V44h9V28.732z" opacity=".05"/><path d="M28.5,28.414c0.343-0.121,0.637-0.366,0.816-0.695c0.396-0.726,0.129-1.639-0.598-2.036L20,20.927V44	h8.5V28.414z" opacity=".07"/><rect width="4" height="4" x="35" y="15" fill="#ff8f6b"/><polygon fill="#199be2" points="28,27 17,21 6,27 6,44 28,44"/><path fill="#0078d4" d="M27.999,28c-0.167,0-0.331-0.042-0.478-0.122L17,22.139L6.479,27.878	c-0.485,0.265-1.092,0.086-1.357-0.399s-0.086-1.092,0.399-1.357l0,0l11-6c0.299-0.162,0.659-0.162,0.958,0l11,6	c0.485,0.265,0.663,0.872,0.399,1.357C28.702,27.8,28.365,28,27.999,28z"/><rect width="4" height="4" x="9" y="29" fill="#0d62ab"/><rect width="4" height="4" x="15" y="29" fill="#0d62ab"/><rect width="4" height="4" x="21" y="29" fill="#0d62ab"/><rect width="4" height="4" x="9" y="36" fill="#0d62ab"/><rect width="4" height="4" x="15" y="36" fill="#0d62ab"/><rect width="4" height="4" x="21" y="36" fill="#0d62ab"/></svg>