<svg xmlns="http://www.w3.org/2000/svg" viewBox="0 0 48 48"><linearGradient id="Wq7p0hth3Em7toZfrQIREa" x1="17.979" x2="28.983" y1="6.469" y2="47.267" gradientTransform="translate(0 -2)" gradientUnits="userSpaceOnUse"><stop offset="0" stop-color="#636363"/><stop offset="1" stop-color="#444"/></linearGradient><path fill="url(#Wq7p0hth3Em7toZfrQIREa)" d="M41.499,19.501L25.771,3.771c-0.978-0.978-2.565-0.978-3.543,0L6.501,19.501 c0,0-3.501,3.444-3.501,6.999C3,32.235,7.701,37,13.5,37c3.839,0,7.187-2.296,9.018-3.852C21.345,38.212,18.176,42,15,42 c-0.552,0-1,0.448-1,1c0,0.552,0.448,1,1,1h18c0.552,0,1-0.448,1-1c0-0.552-0.448-1-1-1c-3.176,0-6.345-3.788-7.518-8.852 C27.313,34.704,30.661,37,34.5,37C40.299,37,45,32.235,45,26.5C45,22.946,41.499,19.501,41.499,19.501z"/></svg>