<svg xmlns="http://www.w3.org/2000/svg" id="Layer_1" x="0" y="0" version="1.1" viewBox="0 0 48 48" xml:space="preserve"><linearGradient id="SVGID_1_" x1="7.196" x2="39.472" y1="1168.822" y2="1196.054" gradientTransform="translate(0 -1162)" gradientUnits="userSpaceOnUse"><stop offset="0" stop-color="#a1aab3"/><stop offset="1" stop-color="#8f979e"/></linearGradient><path fill="url(#SVGID_1_)" d="M43,36H5c-1.1,0-2-0.9-2-2V8c0-1.1,0.9-2,2-2h38c1.1,0,2,0.9,2,2v26C45,35.1,44.1,36,43,36z"/><linearGradient id="SVGID_2_" x1="24" x2="24" y1="1197.987" y2="1204.012" gradientTransform="translate(0 -1162)" gradientUnits="userSpaceOnUse"><stop offset="0" stop-color="#a1aab3"/><stop offset="1" stop-color="#8f979e"/></linearGradient><path fill="url(#SVGID_2_)" d="M33,40v-4H15v4L0,39.7V41c0,0.6,0.4,1,1,1h46c0.6,0,1-0.4,1-1v-1.3L33,40z"/><linearGradient id="SVGID_3_" x1="23.999" x2="23.999" y1="1197.991" y2="1202.008" gradientTransform="translate(0 -1162)" gradientUnits="userSpaceOnUse"><stop offset="0" stop-color="#484b4f"/><stop offset=".028" stop-color="#565b61"/><stop offset=".066" stop-color="#626a72"/><stop offset=".114" stop-color="#6b757d"/><stop offset=".181" stop-color="#717b84"/><stop offset=".367" stop-color="#727d86"/></linearGradient><path fill="url(#SVGID_3_)" d="M47.9,39.5L45,36.6c-0.4-0.4-0.9-0.6-1.4-0.6H4.4c-0.5,0-1,0.2-1.4,0.6l-2.9,2.9C-0.1,39.7,0,40,0.3,40h17.1	c0.4,0,0.7-0.2,0.9-0.6l0.4-0.9c0.2-0.3,0.5-0.6,0.9-0.6h8.8c0.4,0,0.7,0.2,0.9,0.6l0.4,0.9c0.2,0.3,0.5,0.6,0.9,0.6h17.1	C48,40,48.1,39.7,47.9,39.5z"/><radialGradient id="SVGID_4_" cx="42.958" cy="-306.5" r="34.553" gradientTransform="matrix(1 0 0 -1.0833 0 -297.833)" gradientUnits="userSpaceOnUse"><stop offset="0" stop-color="#9e6fd9"/><stop offset=".173" stop-color="#aa73c7"/><stop offset=".522" stop-color="#ca7f97"/><stop offset="1" stop-color="#fc914d"/></radialGradient><path fill="url(#SVGID_4_)" d="M43,8H5v26h38V8z"/><path d="M43,6H26v6.7c0,1.3,1,2.3,2.3,2.3H45V8C45,6.9,44.1,6,43,6z" opacity=".05"/><path d="M43,6H26.5v6.7c0,1,0.8,1.8,1.8,1.8H45V8C45,6.9,44.1,6,43,6z" opacity=".07"/><linearGradient id="SVGID_5_" x1="35.792" x2="39.73" y1="890.915" y2="904.969" gradientTransform="translate(0 -890)" gradientUnits="userSpaceOnUse"><stop offset="0" stop-color="#f44f5a"/><stop offset=".443" stop-color="#ee3d4a"/><stop offset="1" stop-color="#e52030"/></linearGradient><path fill="url(#SVGID_5_)" d="M46.7,14H28.3c-0.7,0-1.3-0.6-1.3-1.3V1.3C27,0.6,27.6,0,28.3,0h18.4C47.4,0,48,0.6,48,1.3v11.5	C48,13.4,47.4,14,46.7,14z"/><linearGradient id="SVGID_6_" x1="26.997" x2="47.997" y1="893.5" y2="893.5" gradientTransform="translate(0 -890)" gradientUnits="userSpaceOnUse"><stop offset="0" stop-color="#323538"/><stop offset="1" stop-color="#6d7479"/></linearGradient><rect width="21" height="3" x="27" y="2" fill="url(#SVGID_6_)"/></svg>