<svg xmlns="http://www.w3.org/2000/svg" viewBox="0 0 48 48"><linearGradient id="3l68k~FhViPQ5s43pSrYia" x1="24" x2="24" y1="-45.783" y2="-96.065" gradientTransform="matrix(1 0 0 -1 0 -48)" gradientUnits="userSpaceOnUse"><stop offset="0" stop-color="#ffd55e"/><stop offset=".995" stop-color="#fec93a"/></linearGradient><path fill="url(#3l68k~FhViPQ5s43pSrYia)" d="M24,3L6,20v19v2c0,1.105,0.895,2,2,2h32c1.105,0,2-0.895,2-2v-2V20L24,3z"/><path d="M24,4c-0.474,0-0.948,0.168-1.326,0.503l-5.359,4.811L6,20v5.39L24,9.428	L42,25.39V20L30.685,9.314l-5.359-4.811C24.948,4.168,24.474,4,24,4z" opacity=".05"/><path d="M24,3c-0.474,0-0.948,0.167-1.326,0.5l-5.359,4.784L6,18.909v5.359	L24,8.397l18,15.871v-5.359L30.685,8.284L25.326,3.5C24.948,3.167,24.474,3,24,3z" opacity=".07"/><linearGradient id="3l68k~FhViPQ5s43pSrYib" x1="24" x2="24" y1="-37.467" y2="-72.303" gradientTransform="matrix(1 0 0 -1 0 -48)" gradientUnits="userSpaceOnUse"><stop offset=".308" stop-color="#f7b400"/><stop offset="1" stop-color="#ed8901"/></linearGradient><path fill="url(#3l68k~FhViPQ5s43pSrYib)" d="M44.495,19.507L25.326,2.503C24.948,2.168,24.474,2,24,2s-0.948,0.168-1.326,0.503	L3.505,19.507c-0.42,0.374-0.449,1.02-0.064,1.43l1.636,1.745c0.369,0.394,0.984,0.424,1.39,0.067L24,7.428L41.533,22.75	c0.405,0.356,1.021,0.327,1.39-0.067l1.636-1.745C44.944,20.527,44.915,19.881,44.495,19.507z"/><linearGradient id="3l68k~FhViPQ5s43pSrYic" x1="24" x2="32" y1="28.5" y2="28.5" gradientUnits="userSpaceOnUse"><stop offset="0" stop-color="#c26715"/><stop offset="1" stop-color="#ae4016"/></linearGradient><path fill="url(#3l68k~FhViPQ5s43pSrYic)" d="M30,18h-0.5H29h-4.5c-0.276,0-0.5,0.224-0.5,0.5c0,0.276,0.224,0.5,0.5,0.5H29v1h-4.5	c-0.276,0-0.5,0.224-0.5,0.5c0,0.276,0.224,0.5,0.5,0.5H29v1h-4.5c-0.276,0-0.5,0.224-0.5,0.5c0,0.276,0.224,0.5,0.5,0.5H29v1h-4.5	c-0.276,0-0.5,0.224-0.5,0.5c0,0.276,0.224,0.5,0.5,0.5H29v1h-4.5c-0.276,0-0.5,0.224-0.5,0.5c0,0.276,0.224,0.5,0.5,0.5H29v1h-4.5	c-0.276,0-0.5,0.224-0.5,0.5c0,0.276,0.224,0.5,0.5,0.5H29v8.5c0,0.828,0.672,1.5,1.5,1.5s1.5-0.672,1.5-1.5V20	C32,18.895,31.105,18,30,18z"/><linearGradient id="3l68k~FhViPQ5s43pSrYid" x1="14" x2="19" y1="34" y2="34" gradientUnits="userSpaceOnUse"><stop offset="0" stop-color="#2164c1"/><stop offset="1" stop-color="#134bb0"/></linearGradient><path fill="url(#3l68k~FhViPQ5s43pSrYid)" d="M17,30c0,0,0,3-0.5,3c-1.381,0-2.5,1.119-2.5,2.5v1c0,1.381,1.119,2.5,2.5,2.5 s2.5-1.119,2.5-2.5V36v-0.5V30l-2-1V30z M17.5,36.5c0,0.551-0.449,1-1,1s-1-0.449-1-1v-1c0-0.551,0.449-1,1-1s1,0.449,1,1V36.5z"/><path fill="#2b7cd3" d="M22.5,34C22,34,22,30,22,30v-0.5V29c0-0.351,0-0.791,0-1c0-2-1.352-9.011-1.352-9.011 C20.563,18.42,20.075,18,19.5,18s-1.063,0.42-1.148,0.989C18.352,18.989,17,26,17,28c0,0.375,0,1.5,0,1.5 c0,1.381,1.119,2.5,2.5,2.5c0.171,0,0.338-0.018,0.5-0.05v4.55c0,1.381,1.119,2.5,2.5,2.5s2.5-1.119,2.5-2.5 C25,35.119,23.881,34,22.5,34z M22.5,37.5c-0.551,0-1-0.449-1-1s0.449-1,1-1s1,0.449,1,1S23.051,37.5,22.5,37.5z"/><g><linearGradient id="3l68k~FhViPQ5s43pSrYie" x1="18.5" x2="20.5" y1="29.5" y2="29.5" gradientUnits="userSpaceOnUse"><stop offset="0" stop-color="#2164c1"/><stop offset="1" stop-color="#134bb0"/></linearGradient><circle cx="19.5" cy="29.5" r="1" fill="url(#3l68k~FhViPQ5s43pSrYie)"/></g></svg>