<svg xmlns="http://www.w3.org/2000/svg" viewBox="0 0 48 48"><linearGradient id="e38TYVlVmTxDzEVh6FqSva" x1="222.582" x2="218.175" y1="59.087" y2="59.087" gradientTransform="scale(1 -1) rotate(-45 45.728 239.002)" gradientUnits="userSpaceOnUse"><stop offset=".365" stop-color="#199ae0"/><stop offset=".699" stop-color="#1898de"/><stop offset=".819" stop-color="#1691d8"/><stop offset=".905" stop-color="#1186cc"/><stop offset=".974" stop-color="#0a75bc"/><stop offset="1" stop-color="#076cb3"/></linearGradient><path fill="url(#e38TYVlVmTxDzEVh6FqSva)" d="M42,7.414l-4.293,4.293l3.439,3.439C41.461,15.461,42,15.238,42,14.793L42,7.414z"/><linearGradient id="e38TYVlVmTxDzEVh6FqSvb" x1="222.579" x2="218.172" y1="16.25" y2="16.25" gradientTransform="scale(1 -1) rotate(-45 45.728 239.002)" gradientUnits="userSpaceOnUse"><stop offset=".365" stop-color="#199ae0"/><stop offset=".699" stop-color="#1898de"/><stop offset=".819" stop-color="#1691d8"/><stop offset=".905" stop-color="#1186cc"/><stop offset=".974" stop-color="#0a75bc"/><stop offset="1" stop-color="#076cb3"/></linearGradient><path fill="url(#e38TYVlVmTxDzEVh6FqSvb)" d="M7.414,41.996l4.293-4.293l3.439,3.439c0.315,0.315,0.092,0.854-0.354,0.854L7.414,41.996z"/><linearGradient id="e38TYVlVmTxDzEVh6FqSvc" x1="11.444" x2="41.569" y1="107.142" y2="-99.959" gradientUnits="userSpaceOnUse"><stop offset="0" stop-color="#32bdef"/><stop offset="1" stop-color="#1ea2e4"/></linearGradient><path fill="url(#e38TYVlVmTxDzEVh6FqSvc)" d="M41,6h-7.79c-0.45,0-0.67,0.54-0.36,0.85l2.74,2.74l-26,25.996l-2.74-2.74 C6.54,32.536,6,32.756,6,33.206v7.79c0,0.55,0.45,1,1,1h1.41c0.27,0,0.52-0.11,0.71-0.29L41.71,9.12C41.89,8.93,42,8.68,42,8.41V7 C42,6.45,41.55,6,41,6z"/></svg>