<svg xmlns="http://www.w3.org/2000/svg" viewBox="0 0 48 48"><linearGradient id="3Np1E45HHpZmjA3pqkT~Oa" x1="14.207" x2="29.48" y1="38.844" y2="23.571" gradientUnits="userSpaceOnUse"><stop offset="0" stop-color="#ffcf54"/><stop offset=".261" stop-color="#fdcb4d"/><stop offset=".639" stop-color="#f7c13a"/><stop offset="1" stop-color="#f0b421"/></linearGradient><path fill="url(#3Np1E45HHpZmjA3pqkT~Oa)" d="M30,30.6c0,0.89-0.12,1.67-0.34,2.35c-0.39,1.26-1.09,2.21-1.94,3.03	c-0.99,0.97-2.18,1.76-3.28,2.63c-0.92,0.72-1.78,1.51-2.41,2.52c-0.34,0.55-0.62,1.16-0.79,1.87C21.08,43.6,21,44.26,21,45	c-0.87-0.67-1.64-1.33-2.33-2c-1.59-1.55-2.73-3.16-3.49-4.94c-0.6-1.41-0.96-2.93-1.1-4.62c-0.05-0.6-0.08-1.23-0.08-1.88	c0-0.81,0.06-1.59,0.18-2.35c0.2-1.32,0.57-2.55,1.1-3.63c0.5-1.05,1.15-1.96,1.94-2.69c0.75-0.7,1.62-1.23,2.59-1.54	C20.49,21.12,21.22,21,22,21c3.68,0,6.29,2.65,7.4,5.96c0.32,0.95,0.52,1.95,0.57,2.96C29.99,30.15,30,30.37,30,30.6z"/><linearGradient id="3Np1E45HHpZmjA3pqkT~Ob" x1="35.744" x2="45.262" y1="13.062" y2="3.544" gradientUnits="userSpaceOnUse"><stop offset=".002" stop-color="#454545"/><stop offset=".013" stop-color="#464646"/><stop offset=".875" stop-color="#626262"/><stop offset="1" stop-color="#6d6d6d"/></linearGradient><path fill="url(#3Np1E45HHpZmjA3pqkT~Ob)" d="M36.999,12c-0.15,0-0.303-0.034-0.446-0.105c-0.494-0.247-0.694-0.848-0.447-1.342	C37.201,8.361,39.46,7,42,7c0.552,0,1,0.448,1,1s-0.448,1-1,1c-1.778,0-3.351,0.938-4.105,2.447C37.719,11.798,37.366,12,36.999,12z"/><linearGradient id="3Np1E45HHpZmjA3pqkT~Oc" x1="3.943" x2="26.092" y1="12.5" y2="12.5" gradientUnits="userSpaceOnUse"><stop offset="0" stop-color="#3079d6"/><stop offset="1" stop-color="#297cd2"/></linearGradient><path fill="url(#3Np1E45HHpZmjA3pqkT~Oc)" d="M7.756,7.116l22.36,7.407c0.747,0.252,1.098,1.103,0.746,1.805v0	c-0.209,0.415-0.625,0.688-1.09,0.714l-17.437,0.951c-2.96,0.133-5.604-1.82-6.323-4.671L5.064,9.561	C4.664,7.975,6.199,6.582,7.756,7.116z"/><linearGradient id="3Np1E45HHpZmjA3pqkT~Od" x1="34.469" x2="21.501" y1="11.531" y2="24.499" gradientUnits="userSpaceOnUse"><stop offset="0" stop-color="#484b4f"/><stop offset=".32" stop-color="#656d75"/><stop offset=".605" stop-color="#727d86"/></linearGradient><circle cx="28" cy="18" r="6" fill="url(#3Np1E45HHpZmjA3pqkT~Od)"/><linearGradient id="3Np1E45HHpZmjA3pqkT~Oe" x1="35.538" x2="35.538" y1="21.148" y2="7.695" gradientUnits="userSpaceOnUse"><stop offset="0" stop-color="#656d75"/><stop offset="1" stop-color="#727d86"/></linearGradient><path fill="url(#3Np1E45HHpZmjA3pqkT~Oe)" d="M40.696,16.696c1.181-0.945-0.6-7.407-2.479-9.286s-4.927-1.88-6.807,0	c-1.88,1.88-1.88,4.927,0,6.807C33.289,16.096,39.359,17.766,40.696,16.696z"/><linearGradient id="3Np1E45HHpZmjA3pqkT~Of" x1="4.455" x2="31.974" y1="13.5" y2="13.5" gradientUnits="userSpaceOnUse"><stop offset="0" stop-color="#32bdef"/><stop offset="1" stop-color="#1ea2e4"/></linearGradient><path fill="url(#3Np1E45HHpZmjA3pqkT~Of)" d="M5.756,8.116l22.36,7.407c0.747,0.252,1.098,1.103,0.746,1.805v0	c-0.209,0.415-0.625,0.688-1.09,0.714l-17.437,0.951c-2.96,0.133-5.604-1.82-6.323-4.671l-0.948-3.762	C2.664,8.975,4.199,7.582,5.756,8.116z"/><linearGradient id="3Np1E45HHpZmjA3pqkT~Og" x1="32.744" x2="42.262" y1="10.062" y2=".544" gradientUnits="userSpaceOnUse"><stop offset=".002" stop-color="#454545"/><stop offset=".013" stop-color="#464646"/><stop offset=".875" stop-color="#626262"/><stop offset="1" stop-color="#6d6d6d"/></linearGradient><path fill="url(#3Np1E45HHpZmjA3pqkT~Og)" d="M34.999,8c-0.15,0-0.303-0.034-0.446-0.105c-0.494-0.247-0.694-0.848-0.447-1.342	C35.201,4.361,37.46,3,40,3c0.552,0,1,0.448,1,1s-0.448,1-1,1c-1.778,0-3.351,0.938-4.105,2.447C35.719,7.798,35.366,8,34.999,8z"/><linearGradient id="3Np1E45HHpZmjA3pqkT~Oh" x1="37.241" x2="31.953" y1="12.345" y2="7.058" gradientUnits="userSpaceOnUse"><stop offset=".002" stop-color="#454545"/><stop offset=".013" stop-color="#464646"/><stop offset=".875" stop-color="#626262"/><stop offset="1" stop-color="#6d6d6d"/></linearGradient><path fill="url(#3Np1E45HHpZmjA3pqkT~Oh)" d="M37.573,12.677C37.049,13.201,35.897,12.897,35,12s-1.201-2.049-0.677-2.573	s1.675-0.22,2.573,0.677C37.793,11.002,38.096,12.154,37.573,12.677z"/><linearGradient id="3Np1E45HHpZmjA3pqkT~Oi" x1="27.919" x2="13.496" y1="30.036" y2="15.614" gradientUnits="userSpaceOnUse"><stop offset=".002" stop-color="#454545"/><stop offset=".013" stop-color="#464646"/><stop offset=".875" stop-color="#626262"/><stop offset="1" stop-color="#6d6d6d"/></linearGradient><path fill="url(#3Np1E45HHpZmjA3pqkT~Oi)" d="M29.4,26.96C29.1,26.99,28.8,27,28.5,27c-3.88,0-7.21-2.32-8.69-5.65 c-0.97,0.31-1.84,0.84-2.59,1.54C19.23,27.09,23.53,30,28.5,30c0.5,0,0.99-0.03,1.47-0.08C29.92,28.91,29.72,27.91,29.4,26.96z"/><linearGradient id="3Np1E45HHpZmjA3pqkT~Oj" x1="24.364" x2="9.941" y1="33.591" y2="19.168" gradientUnits="userSpaceOnUse"><stop offset=".002" stop-color="#454545"/><stop offset=".013" stop-color="#464646"/><stop offset=".875" stop-color="#626262"/><stop offset="1" stop-color="#6d6d6d"/></linearGradient><path fill="url(#3Np1E45HHpZmjA3pqkT~Oj)" d="M28.5,33c-5.6,0-10.51-2.97-13.22-7.42c-0.53,1.08-0.9,2.31-1.1,3.63 c3.23,3.96,8.08,6.55,13.54,6.77c0.85-0.82,1.55-1.77,1.94-3.03C29.28,32.99,28.89,33,28.5,33z"/><linearGradient id="3Np1E45HHpZmjA3pqkT~Ok" x1="19.715" x2="5.292" y1="38.24" y2="23.817" gradientUnits="userSpaceOnUse"><stop offset=".002" stop-color="#454545"/><stop offset=".013" stop-color="#464646"/><stop offset=".875" stop-color="#626262"/><stop offset="1" stop-color="#6d6d6d"/></linearGradient><path fill="url(#3Np1E45HHpZmjA3pqkT~Ok)" d="M14.08,33.44c0.14,1.69,0.5,3.21,1.1,4.62c2.08,1.36,4.39,2.4,6.85,3.07 c0.63-1.01,1.49-1.8,2.41-2.52C20.49,37.86,16.94,36.03,14.08,33.44z"/><linearGradient id="3Np1E45HHpZmjA3pqkT~Ol" x1="17.455" x2="3.032" y1="40.5" y2="26.077" gradientUnits="userSpaceOnUse"><stop offset=".002" stop-color="#454545"/><stop offset=".013" stop-color="#464646"/><stop offset=".875" stop-color="#626262"/><stop offset="1" stop-color="#6d6d6d"/></linearGradient><path fill="url(#3Np1E45HHpZmjA3pqkT~Ol)" d="M21.24,43C21.08,43.6,21,44.26,21,45c-0.87-0.67-1.64-1.33-2.33-2H21.24z"/></svg>