<svg xmlns="http://www.w3.org/2000/svg" viewBox="0 0 48 48"><linearGradient id="UCQotmlDvyxW_ZWZeGRaDa" x1="31.454" x2="14.372" y1="43.454" y2="26.372" gradientTransform="matrix(-1 0 0 1 45 0)" gradientUnits="userSpaceOnUse"><stop offset=".365" stop-color="#199ae0"/><stop offset=".699" stop-color="#1898de"/><stop offset=".819" stop-color="#1691d8"/><stop offset=".905" stop-color="#1186cc"/><stop offset=".974" stop-color="#0a75bc"/><stop offset="1" stop-color="#076cb3"/></linearGradient><path fill="url(#UCQotmlDvyxW_ZWZeGRaDa)" d="M38.42,25.401L19.401,44.42c-0.774,0.774-2.028,0.774-2.802,0l-4.019-4.019	c-0.774-0.774-0.774-2.028,0-2.802L31.599,18.58c0.774-0.774,2.028-0.774,2.802,0l4.019,4.019	C39.193,23.373,39.193,24.627,38.42,25.401z"/><linearGradient id="UCQotmlDvyxW_ZWZeGRaDb" x1="8.719" x2="30.715" y1="27.281" y2="5.285" gradientTransform="matrix(-1 0 0 1 45 0)" gradientUnits="userSpaceOnUse"><stop offset="0" stop-color="#32bdef"/><stop offset="1" stop-color="#1ea2e4"/></linearGradient><path fill="url(#UCQotmlDvyxW_ZWZeGRaDb)" d="M31.599,29.42L12.58,10.401c-0.774-0.774-0.774-2.028,0-2.802l4.019-4.019	c0.774-0.774,2.028-0.774,2.802,0L38.42,22.599c0.774,0.774,0.774,2.028,0,2.802l-4.019,4.019	C33.627,30.193,32.373,30.193,31.599,29.42z"/></svg>