<svg xmlns="http://www.w3.org/2000/svg" viewBox="0 0 48 48"><linearGradient id="u_W0RyTew7Ldrhtef1TQ5a" x1="28" x2="28" y1="45.871" y2="4" gradientUnits="userSpaceOnUse"><stop offset="0" stop-color="#11408a"/><stop offset="1" stop-color="#103f8f"/></linearGradient><path fill="url(#u_W0RyTew7Ldrhtef1TQ5a)" d="M41,44H16c-0.552,0-1-0.448-1-1V6c0-1.105,0.895-2,2-2h22c1.105,0,2,0.895,2,2V44z"/><linearGradient id="u_W0RyTew7Ldrhtef1TQ5b" x1="28" x2="28" y1="6.328" y2="44.132" gradientUnits="userSpaceOnUse"><stop offset="0" stop-color="#1d59b3"/><stop offset="1" stop-color="#195bbc"/></linearGradient><rect width="22" height="38" x="17" y="6" fill="url(#u_W0RyTew7Ldrhtef1TQ5b)"/><linearGradient id="u_W0RyTew7Ldrhtef1TQ5c" x1="11.651" x2="14.348" y1="208.284" y2="215.715" gradientTransform="translate(0 -202)" gradientUnits="userSpaceOnUse"><stop offset="0" stop-color="#32bdef"/><stop offset="1" stop-color="#1ea2e4"/></linearGradient><path fill="url(#u_W0RyTew7Ldrhtef1TQ5c)" d="M13,14c-2.2,0-4-1.8-4-4s1.8-4,4-4s4,1.8,4,4S15.2,14,13,14"/><linearGradient id="u_W0RyTew7Ldrhtef1TQ5d" x1="10.061" x2="19.605" y1="-425.294" y2="-512.515" gradientTransform="matrix(1 0 0 -1 0 -426)" gradientUnits="userSpaceOnUse"><stop offset="0" stop-color="#32bdef"/><stop offset="1" stop-color="#1ea2e4"/></linearGradient><path fill="url(#u_W0RyTew7Ldrhtef1TQ5d)" d="M15,16h-4c-2.761,0-5,2.239-5,5v10.5C6,32.328,6.672,33,7.5,33H8v8.894	c0,0.996,0.681,1.919,1.665,2.078C10.918,44.176,12,43.215,12,42v-9c0-0.552,0.448-1,1-1s1,0.448,1,1v9	c0,1.215,1.082,2.176,2.335,1.973C17.319,43.813,18,42.89,18,41.894V33h0.5c0.828,0,1.5-0.672,1.5-1.5V21C20,18.239,17.761,16,15,16	z"/><radialGradient id="u_W0RyTew7Ldrhtef1TQ5e" cx="34.5" cy="27" r="2" gradientUnits="userSpaceOnUse"><stop offset="0"/><stop offset="1" stop-opacity="0"/></radialGradient><circle cx="34.5" cy="27" r="2" fill="url(#u_W0RyTew7Ldrhtef1TQ5e)"/><linearGradient id="u_W0RyTew7Ldrhtef1TQ5f" x1="34.5" x2="34.5" y1="25" y2="28.163" gradientUnits="userSpaceOnUse"><stop offset="0" stop-color="#33bef0"/><stop offset="1" stop-color="#0a85d9"/></linearGradient><circle cx="34.5" cy="26.5" r="1.5" fill="url(#u_W0RyTew7Ldrhtef1TQ5f)"/></svg>