<svg xmlns="http://www.w3.org/2000/svg" viewBox="0 0 48 48"><linearGradient id="TcdnHB061KFJkw9td_IdDa" x1="8.663" x2="38.122" y1="-26.059" y2="-50.915" gradientTransform="matrix(1 0 0 -1 0 -18)" gradientUnits="userSpaceOnUse"><stop offset="0" stop-color="#a1aab3"/><stop offset="1" stop-color="#8f979e"/></linearGradient><path fill="url(#TcdnHB061KFJkw9td_IdDa)" d="M41,35H7c-1.105,0-2-0.895-2-2V9c0-1.105,0.895-2,2-2h34c1.105,0,2,0.895,2,2v24	C43,34.105,42.105,35,41,35z"/><radialGradient id="TcdnHB061KFJkw9td_IdDb" cx="144.279" cy="-162.595" r="86.245" gradientTransform="matrix(.8095 0 0 -.7188 -69.713 -57.937)" gradientUnits="userSpaceOnUse"><stop offset=".323" stop-color="#23d9d6"/><stop offset=".427" stop-color="#23d4d7"/><stop offset=".542" stop-color="#21c7dc"/><stop offset=".664" stop-color="#1fb0e2"/><stop offset=".789" stop-color="#1c91ec"/><stop offset=".917" stop-color="#1969f8"/><stop offset=".944" stop-color="#1860fb"/></radialGradient><rect width="34" height="24" x="7" y="9" fill="url(#TcdnHB061KFJkw9td_IdDb)"/><linearGradient id="TcdnHB061KFJkw9td_IdDc" x1="24" x2="24" y1="-52.985" y2="-60.014" gradientTransform="matrix(1 0 0 -1 0 -18)" gradientUnits="userSpaceOnUse"><stop offset="0" stop-color="#484b4f"/><stop offset=".23" stop-color="#656d75"/><stop offset=".367" stop-color="#727d86"/></linearGradient><path fill="url(#TcdnHB061KFJkw9td_IdDc)" d="M33,38h-5v-3h-8v3h-5c-0.552,0-1,0.448-1,1v2c0,0.552,0.448,1,1,1h18c0.552,0,1-0.448,1-1v-2	C34,38.448,33.552,38,33,38z"/><path d="M24.823,19.35c-1.506-0.585-2.43-0.984-2.43-1.789c0-0.665,0.541-1.003,1.606-1.003	c1.366,0,2.493,0.434,3.044,0.693c0.29,0.135,0.623,0.114,0.891-0.056c0.264-0.168,0.422-0.456,0.422-0.77v-1.347	c0-0.897-0.531-1.201-0.76-1.29c-0.637-0.248-1.443-0.4-2.455-0.463v-1.005c0-0.453-0.369-0.821-0.821-0.821h-0.643	c-0.453,0-0.821,0.368-0.821,0.821v1.067c-2.049,0.338-4.081,1.64-4.081,4.396c0,3.127,2.629,4.101,4.548,4.812	c1.419,0.525,2.281,0.893,2.281,1.559c0,0.242,0,0.978-1.606,0.978c-1.732,0-3.25-0.707-3.674-0.924	c-0.284-0.146-0.616-0.133-0.888,0.034C19.164,24.41,19,24.703,19,25.025v1.532c0,0.493,0.295,0.938,0.751,1.13	c0.883,0.376,2.037,0.673,3.105,0.806v1.186c0,0.453,0.369,0.821,0.821,0.821h0.643c0.453,0,0.821-0.368,0.821-0.821V28.49	c3.001-0.445,4.081-2.65,4.081-4.474C29.224,21.059,26.784,20.11,24.823,19.35z" opacity=".07"/><path d="M25.004,18.884c-1.275-0.495-2.111-0.854-2.111-1.323c0-0.334,0.372-0.503,1.106-0.503	c0.927,0,1.958,0.235,2.832,0.646c0.446,0.21,0.958,0.177,1.372-0.086c0.409-0.261,0.653-0.706,0.653-1.191v-1.347	c0-0.837-0.403-1.493-1.079-1.757c-0.582-0.226-1.286-0.377-2.136-0.458v-0.543c0-0.729-0.593-1.321-1.321-1.321h-0.643	c-0.729,0-1.321,0.593-1.321,1.321v0.654c-2.508,0.562-4.081,2.376-4.081,4.809c0,3.475,2.934,4.562,4.875,5.28	c0.871,0.322,1.955,0.724,1.955,1.09c0,0.143,0,0.478-1.106,0.478c-1.62,0-3.047-0.665-3.446-0.869	c-0.439-0.224-0.955-0.206-1.376,0.053c-0.424,0.26-0.678,0.712-0.678,1.21v1.532c0,0.695,0.416,1.319,1.056,1.59	c0.816,0.348,1.816,0.624,2.801,0.78v0.751c0,0.729,0.593,1.321,1.321,1.321h0.643c0.729,0,1.321-0.593,1.321-1.321v-0.77	c2.992-0.627,4.081-2.953,4.081-4.893C29.724,20.716,26.996,19.657,25.004,18.884z" opacity=".05"/><path fill="#fff" d="M28.724,24.016c0-4.626-6.83-3.723-6.83-6.456c0-1.427,1.604-1.502,2.106-1.502	c1.206,0,2.369,0.323,3.256,0.739c0.28,0.131,0.601-0.063,0.601-0.372v-1.346c0-0.451-0.17-0.719-0.441-0.825	c-0.608-0.237-1.482-0.409-2.773-0.452v-1.482c0-0.178-0.144-0.321-0.321-0.321h-0.643c-0.178,0-0.321,0.144-0.321,0.321v1.505	c-2.003,0.196-4.081,1.327-4.081,3.957c0,4.796,6.83,3.845,6.83,6.37c0,0.794-0.507,1.478-2.106,1.478	c-1.607,0-3.084-0.561-3.901-0.979c-0.275-0.141-0.599,0.063-0.599,0.372v1.532c0,0.294,0.177,0.555,0.448,0.67	c0.968,0.411,2.267,0.723,3.41,0.814v1.637c0,0.178,0.144,0.321,0.321,0.321h0.643c0.178,0,0.321-0.144,0.321-0.321v-1.634	C27.64,27.795,28.724,25.788,28.724,24.016z"/></svg>