<svg xmlns="http://www.w3.org/2000/svg" data-name="Слой 1" viewBox="0 0 48 48"><defs><linearGradient id="3LIaxINHbZexIVz3ngq6qa" x1="15.478" x2="34.518" y1=".586" y2="52.898" gradientUnits="userSpaceOnUse"><stop offset=".002" stop-color="#427fdb"/><stop offset=".397" stop-color="#2668cb"/><stop offset=".763" stop-color="#1358bf"/><stop offset="1" stop-color="#0c52bb"/></linearGradient></defs><circle cx="24" cy="24" r="20" fill="url(#3LIaxINHbZexIVz3ngq6qa)"/><path fill="#fff" d="M36,37H12a.99943.99943,0,0,1-1-1V12a.99943.99943,0,0,1,1-1H36a.99943.99943,0,0,1,1,1V36A.99943.99943,0,0,1,36,37ZM13,35H35V13H13Z"/><path fill="#fff" d="M36,19H12a1,1,0,0,1,0-2H36a1,1,0,0,1,0,2Z"/><path fill="#fff" d="M36,25H12a1,1,0,0,1,0-2H36a1,1,0,0,1,0,2Z"/><path fill="#fff" d="M36,31H12a1,1,0,0,1,0-2H36a1,1,0,0,1,0,2Z"/><path fill="#fff" d="M30,37a.99943.99943,0,0,1-1-1V12a1,1,0,0,1,2,0V36A.99943.99943,0,0,1,30,37Z"/><path fill="#fff" d="M24,37a.99943.99943,0,0,1-1-1V12a1,1,0,0,1,2,0V36A.99943.99943,0,0,1,24,37Z"/><path fill="#fff" d="M18,37a.99943.99943,0,0,1-1-1V12a1,1,0,0,1,2,0V36A.99943.99943,0,0,1,18,37Z"/></svg>