<svg xmlns="http://www.w3.org/2000/svg" viewBox="0 0 48 48"><linearGradient id="RNwwvMO_jICmghN4O27Lha" x1="6.414" x2="41.774" y1="-713.552" y2="-739.378" gradientTransform="matrix(1 0 0 -1 0 -699.89)" gradientUnits="userSpaceOnUse"><stop offset="0" stop-color="#28afea"/><stop offset="1" stop-color="#047ed6"/></linearGradient><path fill="url(#RNwwvMO_jICmghN4O27Lha)" d="M6,40V12h36v28c0,1.1-0.9,2-2,2H8C6.9,42,6,41.1,6,40z"/><g opacity=".05"><path d="M29.427,19.816c-0.188-0.245-0.484-0.391-0.793-0.391h-3.039c-0.472,0-0.884,0.335-0.979,0.797l-1.159,5.599l-1.375-5.632 c-0.109-0.449-0.509-0.764-0.971-0.764h-3.226c-0.449,0-0.846,0.303-0.965,0.736l-1.623,5.937l-1.244-5.88 c-0.097-0.459-0.509-0.793-0.979-0.793h-3.29c-0.309,0-0.604,0.146-0.792,0.39c-0.188,0.245-0.254,0.569-0.175,0.864l3.514,13.367 c0.115,0.439,0.513,0.746,0.967,0.746h3.478c0.452,0,0.85-0.306,0.967-0.744l1.546-5.828l1.507,5.823 c0.114,0.441,0.513,0.749,0.968,0.749h3.337c0.454,0,0.852-0.307,0.967-0.744l3.533-13.366 C29.681,20.38,29.617,20.064,29.427,19.816z"/><path d="M37.699,24.576L37.699,24.576c-0.956-1.036-2.29-1.562-3.966-1.562c-1.612,0-2.993,0.566-4.103,1.684 c-1.108,1.115-1.671,2.619-1.671,4.471c0,1.796,0.527,3.236,1.568,4.28c1.042,1.047,2.488,1.577,4.298,1.577 c1.571,0,2.887-0.278,3.912-0.828c0.325-0.174,0.527-0.512,0.527-0.881v-2.125c0-0.117-0.021-0.231-0.059-0.338 c0.503-0.052,0.897-0.479,0.897-0.995v-1.24C39.104,26.95,38.632,25.59,37.699,24.576z M34.058,27.051H33.48 C33.724,26.931,33.914,26.983,34.058,27.051z M33.727,30.859h1.658C34.812,30.964,34.118,30.953,33.727,30.859z"/></g><g opacity=".07"><path d="M29.03,20.121c-0.095-0.123-0.241-0.195-0.396-0.195h-3.039c-0.237,0-0.441,0.167-0.489,0.398l-1.608,7.771l-1.9-7.787 c-0.055-0.225-0.255-0.382-0.485-0.382h-3.226c-0.226,0-0.423,0.15-0.482,0.368l-2.168,7.927l-1.671-7.898 c-0.049-0.231-0.253-0.396-0.489-0.396h-3.29c-0.155,0-0.302,0.072-0.396,0.194c-0.095,0.123-0.128,0.283-0.088,0.433 l3.514,13.367c0.058,0.22,0.256,0.373,0.483,0.373h3.478c0.227,0,0.425-0.152,0.483-0.372l2.035-7.674l1.984,7.671 c0.058,0.221,0.257,0.375,0.484,0.375h3.337c0.227,0,0.426-0.153,0.483-0.372l3.533-13.367 C29.157,20.403,29.125,20.244,29.03,20.121z"/><path d="M37.331,24.915c-0.856-0.929-2.066-1.4-3.598-1.4c-1.475,0-2.735,0.517-3.748,1.536c-1.013,1.019-1.525,2.404-1.525,4.118 c0,1.659,0.479,2.98,1.423,3.928c0.945,0.949,2.272,1.43,3.943,1.43c1.488,0,2.725-0.259,3.676-0.769 c0.162-0.087,0.264-0.256,0.264-0.44v-2.125c0-0.182-0.099-0.35-0.258-0.438c-0.159-0.089-0.354-0.083-0.507,0.014 c-0.71,0.443-1.553,0.669-2.504,0.669c-1.358,0-1.848-0.505-2.027-1.078h5.635c0.276,0,0.5-0.224,0.5-0.5v-1.24 C38.604,27.079,38.176,25.833,37.331,24.915z M32.488,27.551c0.088-0.239,0.213-0.448,0.375-0.634 c0.251-0.284,0.521-0.417,0.852-0.417c0.494,0,0.998,0.137,1.127,1.051H32.488z"/></g><linearGradient id="RNwwvMO_jICmghN4O27Lhb" x1="6.42" x2="41.198" y1="-706.498" y2="-713.57" gradientTransform="matrix(1 0 0 -1 0 -699.89)" gradientUnits="userSpaceOnUse"><stop offset="0" stop-color="#0077d2"/><stop offset="1" stop-color="#0b59a2"/></linearGradient><path fill="url(#RNwwvMO_jICmghN4O27Lhb)" d="M42,8v6H6V8c0-1.1,0.9-2,2-2h32C41.1,6,42,6.9,42,8z"/><path d="M35.5,12.5L35.5,12.5c-1.657,0-3-1.343-3-3V6h6v3.5 C38.5,11.157,37.157,12.5,35.5,12.5z" opacity=".05"/><path d="M35.5,11.75L35.5,11.75c-1.243,0-2.25-1.007-2.25-2.25V6h4.5v3.5 C37.75,10.743,36.743,11.75,35.5,11.75z" opacity=".07"/><path d="M12.5,12.5L12.5,12.5c-1.657,0-3-1.343-3-3V6h6v3.5 C15.5,11.157,14.157,12.5,12.5,12.5z" opacity=".05"/><path d="M12.5,11.75L12.5,11.75c-1.243,0-2.25-1.007-2.25-2.25V6h4.5v3.5 C14.75,10.743,13.743,11.75,12.5,11.75z" opacity=".07"/><path fill="#3ccbf4" d="M12.5,11L12.5,11c-0.828,0-1.5-0.672-1.5-1.5v-4C11,4.672,11.672,4,12.5,4l0,0 C13.328,4,14,4.672,14,5.5v4C14,10.328,13.328,11,12.5,11z"/><path fill="#3ccbf4" d="M35.5,11L35.5,11c-0.828,0-1.5-0.672-1.5-1.5v-4C34,4.672,34.672,4,35.5,4l0,0 C36.328,4,37,4.672,37,5.5v4C37,10.328,36.328,11,35.5,11z"/><path fill="#fff" d="M28.634,20.426L25.1,33.793h-3.337l-2.219-8.576c-0.118-0.447-0.189-0.947-0.215-1.501h-0.037 c-0.056,0.609-0.137,1.109-0.242,1.501l-2.274,8.576h-3.478L9.785,20.426h3.29l1.884,8.902c0.08,0.379,0.14,0.889,0.177,1.528 h0.056c0.025-0.479,0.115-1,0.271-1.566l2.424-8.864h3.226l2.19,8.977c0.08,0.329,0.152,0.808,0.214,1.436h0.038 c0.024-0.491,0.09-0.988,0.195-1.491l1.846-8.921H28.634z"/><path fill="#fff" d="M38.104,29.859h-6.227c0.1,1.386,0.973,2.078,2.619,2.078c1.051,0,1.974-0.248,2.769-0.745v2.125 c-0.882,0.473-2.028,0.709-3.439,0.709c-1.541,0-2.737-0.428-3.589-1.282s-1.277-2.046-1.277-3.575c0-1.584,0.46-2.84,1.38-3.766 s2.051-1.389,3.394-1.389c1.392,0,2.469,0.413,3.229,1.239c0.762,0.827,1.142,1.948,1.142,3.365V29.859z M35.374,28.051 c0-1.367-0.554-2.051-1.659-2.051c-0.473,0-0.882,0.195-1.227,0.587s-0.555,0.88-0.629,1.464H35.374z"/></svg>