<svg xmlns="http://www.w3.org/2000/svg" viewBox="0 0 48 48"><path fill="#999" d="M8,30c-0.139,0-0.279-0.028-0.413-0.09c-0.503-0.229-0.725-0.821-0.497-1.324l5-11	c0.229-0.503,0.823-0.726,1.324-0.496c0.503,0.229,0.725,0.821,0.497,1.324l-5,11C8.743,29.782,8.379,30,8,30z"/><linearGradient id="fZCpmN9AxXQL6IsaOVAQCa" x1="33.782" x2="35.825" y1="9.191" y2="14.01" gradientUnits="userSpaceOnUse"><stop offset="0" stop-color="#f44f5a"/><stop offset=".4" stop-color="#ee3d4a"/><stop offset="1" stop-color="#bd1237"/></linearGradient><path fill="url(#fZCpmN9AxXQL6IsaOVAQCa)" d="M34.5,14h1.546C36.573,14,37,13.573,37,13.046V9.954C37,9.427,36.573,9,36.046,9H34.5	c-1.38,0-2.5,1.12-2.5,2.5l0,0C32,12.88,33.12,14,34.5,14z"/><path fill="#586169" d="M40,37c-4.444,0-8-3.556-8-8s3.556-8,8-8s8,3.556,8,8S44.444,37,40,37z M40,24c-2.786,0-5,2.214-5,5	s2.214,5,5,5s5-2.214,5-5S42.786,24,40,24z"/><linearGradient id="fZCpmN9AxXQL6IsaOVAQCb" x1="1" x2="9" y1="18" y2="18" gradientUnits="userSpaceOnUse"><stop offset="0" stop-color="#f44f5a"/><stop offset=".4" stop-color="#ee3d4a"/><stop offset="1" stop-color="#bd1237"/></linearGradient><path fill="url(#fZCpmN9AxXQL6IsaOVAQCb)" d="M8,19H2c-0.552,0-1-0.447-1-1s0.448-1,1-1h6c0.552,0,1,0.447,1,1S8.552,19,8,19z"/><linearGradient id="fZCpmN9AxXQL6IsaOVAQCc" x1="26" x2="41" y1="18" y2="18" gradientUnits="userSpaceOnUse"><stop offset="0" stop-color="#f44f5a"/><stop offset=".4" stop-color="#ee3d4a"/><stop offset="1" stop-color="#bd1237"/></linearGradient><path fill="url(#fZCpmN9AxXQL6IsaOVAQCc)" d="M40,30c-0.38,0-0.743-0.218-0.911-0.586L29.623,8.587C29.46,8.229,29.104,8,28.712,8H27	c-0.552,0-1-0.447-1-1s0.448-1,1-1h1.712c1.174,0,2.246,0.69,2.731,1.76l9.467,20.826c0.229,0.503,0.006,1.096-0.496,1.324	C40.28,29.972,40.139,30,40,30z"/><linearGradient id="fZCpmN9AxXQL6IsaOVAQCd" x1="13.407" x2="14.324" y1="12.92" y2="17.871" gradientUnits="userSpaceOnUse"><stop offset="0" stop-color="#8795a1"/><stop offset="1" stop-color="#6d7882"/></linearGradient><path fill="url(#fZCpmN9AxXQL6IsaOVAQCd)" d="M20,16l-0.447-0.349l-6.708-1.466C12.283,14.062,11.71,14,11.136,14H8c-1.105,0-2,0.895-2,2v3	h15.071l1.675-1.675C22.746,16.46,20.844,16.087,20,16z"/><path fill="#565b5e" d="M28,8h-4c-0.552,0-1-0.448-1-1l0,0c0-0.552,0.448-1,1-1h4V8z"/><circle cx="40" cy="29" r="2" fill="#999"/><path fill="#586169" d="M8,37c-4.444,0-8-3.556-8-8s3.556-8,8-8s8,3.556,8,8S12.444,37,8,37z M8,24c-2.786,0-5,2.214-5,5	s2.214,5,5,5s5-2.214,5-5S10.786,24,8,24z"/><circle cx="8" cy="29" r="2" fill="#999"/><path fill="#999" d="M20,24l0.16,0.56c0.349,1.223-0.569,2.44-1.84,2.44H8v4h14h3h1.064c1.439,0,2.743-0.846,3.329-2.16	L31.554,24H20z"/><linearGradient id="fZCpmN9AxXQL6IsaOVAQCe" x1="24.119" x2="27.299" y1="14.904" y2="24.363" gradientUnits="userSpaceOnUse"><stop offset="0" stop-color="#f44f5a"/><stop offset=".4" stop-color="#ee3d4a"/><stop offset="1" stop-color="#bd1237"/></linearGradient><path fill="url(#fZCpmN9AxXQL6IsaOVAQCe)" d="M35,19l-1.234-3.086C33.303,14.758,32.184,14,30.939,14h-9.225	c-1.683,0-3.242,0.885-4.105,2.33L16,19.024L20,24h11.554l1.952-1.133C34.431,22.33,35,21.342,35,20.272V19z"/></svg>