<svg xmlns="http://www.w3.org/2000/svg" viewBox="0 0 48 48"><linearGradient id="0bCxJV05D~rOmMeVYePVva" x1="7.197" x2="37.988" y1="1.181" y2="42.996" gradientUnits="userSpaceOnUse"><stop offset="0" stop-color="#f0f0f0"/><stop offset="1" stop-color="#bbc1c4"/></linearGradient><path fill="url(#0bCxJV05D~rOmMeVYePVva)" d="M10.765,6h26.471C38.21,6,39,6.806,39,7.8v32.4c0,0.994-0.79,1.8-1.765,1.8H10.765	C9.79,42,9,41.194,9,40.2V7.8C9,6.806,9.79,6,10.765,6z"/><linearGradient id="0bCxJV05D~rOmMeVYePVvb" x1="11.509" x2="35.853" y1="8.701" y2="38.517" gradientUnits="userSpaceOnUse"><stop offset="0" stop-color="#33bef0"/><stop offset="1" stop-color="#0a85d9"/></linearGradient><rect width="24" height="30" x="12" y="9" fill="url(#0bCxJV05D~rOmMeVYePVvb)"/><rect width="30" height="4" x="9" y="23" opacity=".05"/><rect width="30" height="3" x="9" y="23.5" opacity=".07"/><linearGradient id="0bCxJV05D~rOmMeVYePVvc" x1="8" x2="40" y1="9" y2="9" gradientTransform="matrix(1 0 0 -1 0 34)" gradientUnits="userSpaceOnUse"><stop offset="0" stop-color="#912fbd"/><stop offset="1" stop-color="#9332bf"/></linearGradient><path fill="url(#0bCxJV05D~rOmMeVYePVvc)" d="M40,25v-1H8v1c0,0.552,0.421,1,0.941,1h30.118C39.579,26,40,25.552,40,25z"/><linearGradient id="0bCxJV05D~rOmMeVYePVvd" x1="8" x2="40" y1="11" y2="11" gradientTransform="matrix(1 0 0 -1 0 34)" gradientUnits="userSpaceOnUse"><stop offset="0" stop-color="#c965eb"/><stop offset="1" stop-color="#c767e5"/></linearGradient><rect width="32" height="2" x="8" y="22" fill="url(#0bCxJV05D~rOmMeVYePVvd)"/><linearGradient id="0bCxJV05D~rOmMeVYePVve" x1="8" x2="40" y1="13" y2="13" gradientTransform="matrix(1 0 0 -1 0 34)" gradientUnits="userSpaceOnUse"><stop offset="0" stop-color="#912fbd"/><stop offset="1" stop-color="#9332bf"/></linearGradient><rect width="32" height="2" x="8" y="20" fill="url(#0bCxJV05D~rOmMeVYePVve)"/><linearGradient id="0bCxJV05D~rOmMeVYePVvf" x1="8" x2="40" y1="15" y2="15" gradientTransform="matrix(1 0 0 -1 0 34)" gradientUnits="userSpaceOnUse"><stop offset="0" stop-color="#c965eb"/><stop offset="1" stop-color="#c767e5"/></linearGradient><rect width="32" height="2" x="8" y="18" fill="url(#0bCxJV05D~rOmMeVYePVvf)"/><linearGradient id="0bCxJV05D~rOmMeVYePVvg" x1="8" x2="40" y1="17" y2="17" gradientTransform="matrix(1 0 0 -1 0 34)" gradientUnits="userSpaceOnUse"><stop offset="0" stop-color="#912fbd"/><stop offset="1" stop-color="#9332bf"/></linearGradient><rect width="32" height="2" x="8" y="16" fill="url(#0bCxJV05D~rOmMeVYePVvg)"/><linearGradient id="0bCxJV05D~rOmMeVYePVvh" x1="8" x2="40" y1="19" y2="19" gradientTransform="matrix(1 0 0 -1 0 34)" gradientUnits="userSpaceOnUse"><stop offset="0" stop-color="#c965eb"/><stop offset="1" stop-color="#c767e5"/></linearGradient><rect width="32" height="2" x="8" y="14" fill="url(#0bCxJV05D~rOmMeVYePVvh)"/><linearGradient id="0bCxJV05D~rOmMeVYePVvi" x1="8" x2="40" y1="21" y2="21" gradientTransform="matrix(1 0 0 -1 0 34)" gradientUnits="userSpaceOnUse"><stop offset="0" stop-color="#912fbd"/><stop offset="1" stop-color="#9332bf"/></linearGradient><rect width="32" height="2" x="8" y="12" fill="url(#0bCxJV05D~rOmMeVYePVvi)"/><linearGradient id="0bCxJV05D~rOmMeVYePVvj" x1="8" x2="40" y1="23" y2="23" gradientTransform="matrix(1 0 0 -1 0 34)" gradientUnits="userSpaceOnUse"><stop offset="0" stop-color="#c965eb"/><stop offset="1" stop-color="#c767e5"/></linearGradient><rect width="32" height="2" x="8" y="10" fill="url(#0bCxJV05D~rOmMeVYePVvj)"/><linearGradient id="0bCxJV05D~rOmMeVYePVvk" x1="6" x2="42" y1="8" y2="8" gradientUnits="userSpaceOnUse"><stop offset="0" stop-color="#7819a2"/><stop offset="1" stop-color="#771aa9"/></linearGradient><path fill="url(#0bCxJV05D~rOmMeVYePVvk)" d="M6,7v2c0,0.552,0.424,1,0.947,1h34.105C41.576,10,42,9.552,42,9V7c0-0.552-0.424-1-0.947-1	H6.947C6.424,6,6,6.448,6,7z"/><path d="M24,37.896c-0.459,0-0.887-0.206-1.174-0.564l-1.966-2.48c-0.361-0.453-0.429-1.06-0.177-1.582	c0.246-0.514,0.749-0.836,1.316-0.85V28.5c0-0.827,0.673-1.5,1.5-1.5h1c0.827,0,1.5,0.673,1.5,1.5v3.92	c0.567,0.014,1.07,0.336,1.316,0.85c0.252,0.522,0.184,1.13-0.179,1.584l-1.963,2.476C24.888,37.69,24.46,37.896,24,37.896z" opacity=".05"/><path d="M24,37.396c-0.307,0-0.592-0.138-0.783-0.377l-1.965-2.479c-0.24-0.302-0.286-0.706-0.118-1.055	c0.168-0.35,0.514-0.566,0.901-0.566H22.5V28.5c0-0.552,0.448-1,1-1h1c0.552,0,1,0.448,1,1v4.42h0.465	c0.388,0,0.733,0.217,0.901,0.566c0.168,0.349,0.122,0.753-0.119,1.056l-1.964,2.477C24.592,37.259,24.307,37.396,24,37.396z" opacity=".07"/><path fill="#fff" d="M25.965,33.42H25V28.5c0-0.276-0.224-0.5-0.5-0.5h-1c-0.276,0-0.5,0.224-0.5,0.5v4.92h-0.965	c-0.418,0-0.652,0.483-0.392,0.811l1.965,2.477c0.2,0.252,0.583,0.252,0.783,0l1.965-2.477C26.617,33.903,26.383,33.42,25.965,33.42	z"/></svg>