<svg xmlns="http://www.w3.org/2000/svg" xmlns:xlink="http://www.w3.org/1999/xlink" data-name="Слой 1" viewBox="0 0 48 48"><defs><linearGradient id="TcI8o7U9cXAWvPCKXt4Zya" x1="28.947" x2="30.793" y1="11.466" y2="16.538" data-name="Безымянный градиент 120" gradientUnits="userSpaceOnUse"><stop offset="0" stop-color="#ffd869"/><stop offset="1" stop-color="#fec52b"/></linearGradient><linearGradient id="TcI8o7U9cXAWvPCKXt4Zyb" x1="15.753" x2="31.033" y1="4.348" y2="46.331" data-name="Безымянный градиент 143" gradientUnits="userSpaceOnUse"><stop offset="0" stop-color="#889097"/><stop offset="1" stop-color="#4c5963"/></linearGradient><linearGradient id="TcI8o7U9cXAWvPCKXt4Zyc" x1="17.432" x2="28.241" y1="12.984" y2="42.68" xlink:href="#TcI8o7U9cXAWvPCKXt4Zya"/></defs><path fill="url(#TcI8o7U9cXAWvPCKXt4Zya)" d="M31.58578,12.41421h0a1.41421,1.41421,0,0,1,0,2l-2,2-2-2,2-2A1.41421,1.41421,0,0,1,31.58578,12.41421Z"/><path fill="#343434" d="M35.58578,16.41421h0a1.41421,1.41421,0,0,1,0,2l-2,2-2-2,2-2A1.41421,1.41421,0,0,1,35.58578,16.41421Z"/><path fill="#343434" d="M41.89589,21.724l-2.31-2.31,2.82812-2.82812,2.31,2.31a.97587.97587,0,0,1,0,1.3801l-1.448,1.448A.97587.97587,0,0,1,41.89589,21.724Z"/><path fill="url(#TcI8o7U9cXAWvPCKXt4Zyb)" d="M42.665,13.7041,34.2959,5.335a4.50028,4.50028,0,0,0-7.4043,1.626L25.181,11.60461,4.4599,36.23663a2,2,0,0,0,.12146,2.69556l4.48639,4.48645a1.99991,1.99991,0,0,0,2.69556.1214L36.39539,22.819l4.64367-1.71057a4.50028,4.50028,0,0,0,1.626-7.4043ZM40.94824,17.208A1.47588,1.47588,0,0,1,40.002,18.294l-2.99953,1.10468a2,2,0,0,1-2.1054-.46255l-5.8331-5.8331a2,2,0,0,1-.46255-2.1054l1.10468-2.99953a1.50068,1.50068,0,0,1,2.46875-.542L40.544,15.8252A1.47588,1.47588,0,0,1,40.94824,17.208Z"/><path d="M23.75,16.75,25,23l6.25,1.25L28,27l-6-1-1-6,2.75-3.25M17,24.5,18,30l6,1-4,3-5-1-1-5,3-3.5m7.3244-9.977-1.3378,1.58105-2.75,3.25-.29913.35352.07614.45685,1,6,.11743.70453.70456.11743,6,1,.45682.07611.35352-.29913,3.25-2.75,1.581-1.33777-2.03085-.40619-5.59629-1.11926-1.11923-5.59626L24.3244,14.523ZM17.608,22.254l-1.36728,1.59515-3,3.5-.3168.36963.09546.4773,1,5,.13074.65374.65374.13074,5,1,.43842.08771L20.6,34.8l4-3,1.86959-1.40216-2.3052-.38422-5.30634-.8844-.8742-4.8081L17.608,22.254Z" opacity=".05"/><path d="M23.75,16.75,25,23l6.25,1.25L28,27l-6-1-1-6,2.75-3.25M17,24.5,18,30l6,1-4,3-5-1-1-5,3-3.5m7.0372-8.86346-.66888.79046-2.75,3.25-.14957.17676.03806.22845,1,6,.05871.3523.35227.05872,6,1,.22842.038.17676-.14954,3.25-2.75.79052-.66888-1.01544-.20313-5.92312-1.18463L24.2403,16.65192l-.2031-1.01538ZM17.304,23.377l-.68366.79761-3,3.5-.15838.18476.04772.2387,1,5,.06537.32685.32688.06537,5,1,.2192.04382L20.3,34.4l4-3,.93481-.70111-1.15259-.19214L18.429,29.56458l-.93708-5.154L17.304,23.377Z" opacity=".07"/><path fill="url(#TcI8o7U9cXAWvPCKXt4Zyc)" d="M28,27l-6-1-1-6,2.75-3.25L25,23l6.25,1.25Zm-4,4-6-1-1-5.5L14,28l1,5,5,1Z"/></svg>