<svg xmlns="http://www.w3.org/2000/svg" data-name="Слой 1" viewBox="0 0 48 48"><defs><linearGradient id="ecqKdmczTyaQ8byhsV0wka" x1="7.899" x2="32.16" y1="-1.965" y2="61.524" data-name="Безымянный градиент 97" gradientUnits="userSpaceOnUse"><stop offset="0" stop-color="#fed100"/><stop offset="1" stop-color="#e36001"/></linearGradient><linearGradient id="ecqKdmczTyaQ8byhsV0wkb" x1="25.351" x2="49.612" y1="-8.634" y2="54.855" data-name="Безымянный градиент 100" gradientUnits="userSpaceOnUse"><stop offset="0" stop-color="#21ad64"/><stop offset="1" stop-color="#088242"/></linearGradient><linearGradient id="ecqKdmczTyaQ8byhsV0wkc" x1="18.682" x2="42.943" y1="-6.085" y2="57.404" data-name="Безымянный градиент 123" gradientUnits="userSpaceOnUse"><stop offset="0" stop-color="#f44f5a"/><stop offset=".443" stop-color="#ee3d4a"/><stop offset="1" stop-color="#e52030"/></linearGradient><linearGradient id="ecqKdmczTyaQ8byhsV0wkd" x1="1.231" x2="25.492" y1=".583" y2="64.073" data-name="Безымянный градиент 108" gradientUnits="userSpaceOnUse"><stop offset="0" stop-color="#199ae0"/><stop offset="1" stop-color="#0782d8"/></linearGradient></defs><path fill="url(#ecqKdmczTyaQ8byhsV0wka)" d="M8,6H20a2,2,0,0,1,2,2V20a2,2,0,0,1-2,2H8a2,2,0,0,1-2-2V8A2,2,0,0,1,8,6Z"/><path fill="url(#ecqKdmczTyaQ8byhsV0wkb)" d="M28,6H40a2,2,0,0,1,2,2V20a2,2,0,0,1-2,2H28a2,2,0,0,1-2-2V8A2,2,0,0,1,28,6Z"/><path fill="url(#ecqKdmczTyaQ8byhsV0wkc)" d="M28,26H40a2,2,0,0,1,2,2V40a2,2,0,0,1-2,2H28a2,2,0,0,1-2-2V28A2,2,0,0,1,28,26Z"/><path fill="url(#ecqKdmczTyaQ8byhsV0wkd)" d="M8,26H20a2,2,0,0,1,2,2V40a2,2,0,0,1-2,2H8a2,2,0,0,1-2-2V28A2,2,0,0,1,8,26Z"/><path fill="#ffc107" d="M13.466,8.953a.41877.41877,0,0,0-.46333.34975.41837.41837,0,0,0,.46267.35025H13.466a.41877.41877,0,0,0,.46333-.34975.41838.41838,0,0,0-.46267-.35025Z"/><path fill="#343434" d="M36.186,15.691l-2.504,1.664a11.21872,11.21872,0,0,1,1.729,4.644L38.449,22A14.02653,14.02653,0,0,0,36.186,15.691Zm-5.295-1.179,1.766-2.388A13.76716,13.76716,0,0,0,26,9.449V12.47a10.70083,10.70083,0,0,1,4.867,2.037A.18186.18186,0,0,0,30.891,14.512Zm1.56,26.307-.894.143L29.622,29.001l.514-.082,9.764-.025-8.4,6.049ZM17.385,33.661l-.023-.004-1.765,2.388a13.741,13.741,0,0,0,6.401,2.64V42l.001-6.346A10.63451,10.63451,0,0,1,17.385,33.661ZM9.789,26a14.04114,14.04114,0,0,0,2.278,6.478l2.505-1.665a11.20045,11.20045,0,0,1-1.749-4.812Zm2.631-4.002a20.53729,20.53729,0,0,1,.201-5.528,7.15339,7.15339,0,0,1,1.084-2.398c2.495-.039,4.161,3.322,4.302,3.567a6.44741,6.44741,0,0,1,2.936.358c-1.117-3.653-6.042-5.783-6.042-5.783a12.90684,12.90684,0,0,0,3.415-5.098l-.484-.013a14.71507,14.71507,0,0,1-4.126,3.95,10.16306,10.16306,0,0,1-1.815-.824l.5-.43L8.128,12.225l.709.623,1.638-1.404c.75.877,1.309,1.415,1.309,1.415a13.71416,13.71416,0,0,0-2.202,9.139ZM13.438,7.21a1.33505,1.33505,0,1,0-.00035,2.67H13.438a1.33505,1.33505,0,1,0,.00035-2.67ZM10.572,9.34A8.822,8.822,0,0,1,8.486,7.139l-.905-.053A15.63618,15.63618,0,0,0,9.07,9.605Zm-1.018.952c.113.152.218.289.356.461l1.541-.781c-.145-.09-.246-.168-.362-.255l.92-.343-1.082.225-.002-.002-.662.141-3.066.635.41.646Z"/></svg>