<svg xmlns="http://www.w3.org/2000/svg" xmlns:xlink="http://www.w3.org/1999/xlink" data-name="Слой 1" viewBox="0 0 48 48"><defs><linearGradient id="YHr97IWCWWPe1cDEE8JpTa" x1="15.998" x2="30.13" y1="13.365" y2="13.365" data-name="Безымянный градиент 20" gradientUnits="userSpaceOnUse"><stop offset="0" stop-color="#fede00"/><stop offset="1" stop-color="#ffd000"/></linearGradient><linearGradient id="YHr97IWCWWPe1cDEE8JpTb" x1="15.998" x2="30.13" y1="31.365" y2="31.365" xlink:href="#YHr97IWCWWPe1cDEE8JpTa"/><linearGradient id="YHr97IWCWWPe1cDEE8JpTc" x1="32.013" x2="46.145" y1="31.365" y2="31.365" xlink:href="#YHr97IWCWWPe1cDEE8JpTa"/><linearGradient id="YHr97IWCWWPe1cDEE8JpTd" x1="0" x2="14.132" y1="31.365" y2="31.365" xlink:href="#YHr97IWCWWPe1cDEE8JpTa"/><linearGradient id="YHr97IWCWWPe1cDEE8JpTe" x1="8" x2="22.132" y1="22.365" y2="22.365" xlink:href="#YHr97IWCWWPe1cDEE8JpTa"/><linearGradient id="YHr97IWCWWPe1cDEE8JpTf" x1="24.015" x2="38.148" y1="22.365" y2="22.365" xlink:href="#YHr97IWCWWPe1cDEE8JpTa"/></defs><path fill="#f5be00" d="M30.81,18H17.18a1.11374,1.11374,0,0,1-.73-.27,1.15379,1.15379,0,0,1-.43-1.14l1.17-5.97A1.99356,1.99356,0,0,1,19.15,9H28.8a1.9458,1.9458,0,0,1,1.33.52,1.96851,1.96851,0,0,1,.63,1.09l1.2,5.97A1.17774,1.17774,0,0,1,30.81,18Z"/><path fill="url(#YHr97IWCWWPe1cDEE8JpTa)" d="M30.13,9.52,16.45,17.73a1.15379,1.15379,0,0,1-.43-1.14l1.17-5.97A1.99356,1.99356,0,0,1,19.15,9H28.8A1.9458,1.9458,0,0,1,30.13,9.52Z"/><path fill="#f5be00" d="M30.81,36H17.18a1.11374,1.11374,0,0,1-.73-.27,1.15379,1.15379,0,0,1-.43-1.14l1.17-5.97A1.99356,1.99356,0,0,1,19.15,27H28.8a1.9458,1.9458,0,0,1,1.33.52,1.96851,1.96851,0,0,1,.63,1.09l1.2,5.97A1.17774,1.17774,0,0,1,30.81,36Z"/><path fill="url(#YHr97IWCWWPe1cDEE8JpTb)" d="M30.13,27.52,16.45,35.73a1.15379,1.15379,0,0,1-.43-1.14l1.17-5.97A1.99356,1.99356,0,0,1,19.15,27H28.8A1.9458,1.9458,0,0,1,30.13,27.52Z"/><path fill="#f5be00" d="M46.82523,36h-13.63a1.11374,1.11374,0,0,1-.73-.27,1.15377,1.15377,0,0,1-.43-1.14l1.17-5.97a1.99355,1.99355,0,0,1,1.96-1.62h9.65a1.9458,1.9458,0,0,1,1.33.52,1.96851,1.96851,0,0,1,.63,1.09l1.2,5.97A1.17775,1.17775,0,0,1,46.82523,36Z"/><path fill="url(#YHr97IWCWWPe1cDEE8JpTc)" d="M46.14523,27.52l-13.68,8.21a1.15377,1.15377,0,0,1-.43-1.14l1.17-5.97a1.99355,1.99355,0,0,1,1.96-1.62h9.65A1.9458,1.9458,0,0,1,46.14523,27.52Z"/><path fill="#f5be00" d="M14.8123,36H1.1823a1.11374,1.11374,0,0,1-.73-.27,1.15377,1.15377,0,0,1-.43-1.14l1.17-5.97a1.99355,1.99355,0,0,1,1.96-1.62h9.65a1.94582,1.94582,0,0,1,1.33.52,1.96851,1.96851,0,0,1,.63,1.09l1.2,5.97A1.17776,1.17776,0,0,1,14.8123,36Z"/><path fill="url(#YHr97IWCWWPe1cDEE8JpTd)" d="M14.13231,27.52l-13.68,8.21a1.15377,1.15377,0,0,1-.43-1.14l1.17-5.97a1.99355,1.99355,0,0,1,1.96-1.62h9.65A1.94582,1.94582,0,0,1,14.13231,27.52Z"/><path fill="#f5be00" d="M22.8123,27H9.1823a1.11374,1.11374,0,0,1-.73-.27,1.15377,1.15377,0,0,1-.43-1.14l1.17-5.97a1.99355,1.99355,0,0,1,1.96-1.62h9.65a1.94582,1.94582,0,0,1,1.33.52,1.96851,1.96851,0,0,1,.63,1.09l1.2,5.97A1.17776,1.17776,0,0,1,22.8123,27Z"/><path fill="url(#YHr97IWCWWPe1cDEE8JpTe)" d="M22.13231,18.52l-13.68,8.21a1.15377,1.15377,0,0,1-.43-1.14l1.17-5.97a1.99355,1.99355,0,0,1,1.96-1.62h9.65A1.94582,1.94582,0,0,1,22.13231,18.52Z"/><path fill="#f5be00" d="M38.82753,27h-13.63a1.11374,1.11374,0,0,1-.73-.27,1.15379,1.15379,0,0,1-.43-1.14l1.17-5.97a1.99355,1.99355,0,0,1,1.96-1.62h9.65a1.94584,1.94584,0,0,1,1.33.52,1.96851,1.96851,0,0,1,.63,1.09l1.2,5.97A1.17776,1.17776,0,0,1,38.82753,27Z"/><path fill="url(#YHr97IWCWWPe1cDEE8JpTf)" d="M38.14754,18.52l-13.68,8.21a1.15379,1.15379,0,0,1-.43-1.14l1.17-5.97a1.99355,1.99355,0,0,1,1.96-1.62h9.65A1.94584,1.94584,0,0,1,38.14754,18.52Z"/></svg>