<svg xmlns="http://www.w3.org/2000/svg" viewBox="0 0 48 48"><linearGradient id="Tkkf2H_~02y2xi9NUP_hwa" x1="-262.871" x2="-262.869" y1="-221.938" y2="-221.938" gradientTransform="rotate(99.317 -220.866 11.95)" gradientUnits="userSpaceOnUse"><stop offset="0" stop-color="#ffc430"/><stop offset=".57" stop-color="#f8bd29"/><stop offset="1" stop-color="#f0b421"/></linearGradient><path fill="url(#Tkkf2H_~02y2xi9NUP_hwa)" d="M16.725,8.36c0.007,0.001,0.012,0.004,0.019,0.005l0.001-0.002L16.725,8.36z"/><linearGradient id="Tkkf2H_~02y2xi9NUP_hwb" x1="-223.115" x2="-197.159" y1="-197.216" y2="-170.261" gradientTransform="rotate(90 -206.665 35.846)" gradientUnits="userSpaceOnUse"><stop offset="0" stop-color="#ffc430"/><stop offset=".41" stop-color="#fec130"/><stop offset=".72" stop-color="#fcb730"/><stop offset=".998" stop-color="#f7a72f"/><stop offset="1" stop-color="#f7a72f"/></linearGradient><path fill="url(#Tkkf2H_~02y2xi9NUP_hwb)" d="M27.098,35.738L29,23l13.357,0c1.308,0,2.499-0.941,2.63-2.242 C45.137,19.261,43.966,18,42.5,18c-0.237,0-35.468,0-35.468,0C5.732,19.461,5,21.347,5,23.314V34c0,3.314,2.686,6,6,6h11.153 C24.629,40,26.732,38.188,27.098,35.738z"/><circle cx="42.5" cy="20.5" r="1.5" fill="#fff0c9"/><linearGradient id="Tkkf2H_~02y2xi9NUP_hwc" x1="-283.494" x2="-275.047" y1="823.334" y2="815.004" gradientTransform="rotate(90 271.472 566.355)" gradientUnits="userSpaceOnUse"><stop offset=".282" stop-color="#ffc430"/><stop offset=".401" stop-color="#f8bd2d"/><stop offset=".574" stop-color="#e5aa23"/><stop offset=".78" stop-color="#c58a14"/><stop offset="1" stop-color="#9c6000"/></linearGradient><path fill="url(#Tkkf2H_~02y2xi9NUP_hwc)" d="M24,8.023c0-1.72-1.068-2.498-2.492-2.498L7.378,17.611C7.254,17.735,7.142,17.869,7.026,18 h14.706c-3.88-2.273-0.407-3.939-0.81-5.67C20.922,12.33,24,11.61,24,8.023z"/><linearGradient id="Tkkf2H_~02y2xi9NUP_hwd" x1="39.546" x2="43.406" y1="30.576" y2="39.06" gradientUnits="userSpaceOnUse"><stop offset="0" stop-color="#f44f5a"/><stop offset=".443" stop-color="#ee3d4a"/><stop offset="1" stop-color="#e52030"/></linearGradient><path fill="url(#Tkkf2H_~02y2xi9NUP_hwd)" d="M45,36c0-1.244-1.689-4.281-2.533-5.72c-0.209-0.357-0.726-0.357-0.935,0	C40.689,31.719,39,34.756,39,36c0,1.658,1.343,3,3,3S45,37.658,45,36z"/></svg>