<svg xmlns="http://www.w3.org/2000/svg" baseProfile="basic" viewBox="0 0 48 48"><linearGradient id="TJoMX0ZBVX1bkX1EKuDM-a" x1="17" x2="31" y1="6.755" y2="6.755" gradientUnits="userSpaceOnUse"><stop offset="0" stop-color="#f08400"/><stop offset=".406" stop-color="#ec9600"/><stop offset="1" stop-color="#e6b801"/></linearGradient><path fill="url(#TJoMX0ZBVX1bkX1EKuDM-a)" d="M29.17,4.68L31,8l-3.12,1.51c-3.423-0.911-6.246-0.403-7.76,0L17,8l1.83-3.32	C22.871,3.578,26.644,3.991,29.17,4.68z"/><linearGradient id="TJoMX0ZBVX1bkX1EKuDM-b" x1="19.946" x2="28.825" y1="9.209" y2="4.082" gradientTransform="rotate(30 24 23.999)" gradientUnits="userSpaceOnUse"><stop offset="0" stop-color="#e8ac01"/><stop offset=".461" stop-color="#d7be09"/><stop offset=".964" stop-color="#bfd715"/><stop offset="1" stop-color="#a6d925"/></linearGradient><path fill="url(#TJoMX0ZBVX1bkX1EKuDM-b)" d="M38.137,9.853l-0.075,3.79l-3.457-0.252c-2.509-2.501-5.208-3.472-6.72-3.88l1.298-4.828	C33.233,5.749,36.294,7.994,38.137,9.853z"/><linearGradient id="TJoMX0ZBVX1bkX1EKuDM-c" x1="19.745" x2="29.507" y1="8.627" y2="4.484" gradientTransform="rotate(60 24 24)" gradientUnits="userSpaceOnUse"><stop offset="0" stop-color="#c6d012"/><stop offset="1" stop-color="#2bda79"/></linearGradient><path fill="url(#TJoMX0ZBVX1bkX1EKuDM-c)" d="M43.317,18.817l-1.96,3.245l-2.868-1.947c-0.923-3.42-2.774-5.611-3.88-6.72l3.538-3.532	C41.121,12.811,42.65,16.285,43.317,18.817z"/><linearGradient id="TJoMX0ZBVX1bkX1EKuDM-d" x1="18.83" x2="31" y1="6.755" y2="6.755" gradientTransform="rotate(90 24 24)" gradientUnits="userSpaceOnUse"><stop offset="0" stop-color="#47d867"/><stop offset="1" stop-color="#13c2ab"/></linearGradient><path fill="url(#TJoMX0ZBVX1bkX1EKuDM-d)" d="M43.32,29.17L40,31l-1.51-3.12c0.911-3.423,0.403-6.246,0-7.76l4.83-1.29	C44.422,22.871,44.009,26.644,43.32,29.17z"/><linearGradient id="TJoMX0ZBVX1bkX1EKuDM-e" x1="18.83" x2="31" y1="6.755" y2="6.755" gradientTransform="rotate(120 24 24)" gradientUnits="userSpaceOnUse"><stop offset="0" stop-color="#17c6a3"/><stop offset=".314" stop-color="#21b4b5"/><stop offset=".945" stop-color="#3c84e5"/><stop offset="1" stop-color="#3f80e9"/></linearGradient><path fill="url(#TJoMX0ZBVX1bkX1EKuDM-e)" d="M38.147,38.137l-3.79-0.075l0.252-3.457c2.501-2.509,3.472-5.208,3.88-6.72l4.828,1.298	C42.251,33.233,40.006,36.294,38.147,38.137z"/><linearGradient id="TJoMX0ZBVX1bkX1EKuDM-f" x1="18.83" x2="31" y1="6.755" y2="6.755" gradientTransform="rotate(150 24 24)" gradientUnits="userSpaceOnUse"><stop offset="0" stop-color="#368fda"/><stop offset=".246" stop-color="#4887db"/><stop offset=".74" stop-color="#7874dd"/><stop offset="1" stop-color="#9368de"/></linearGradient><path fill="url(#TJoMX0ZBVX1bkX1EKuDM-f)" d="M29.183,43.317l-3.245-1.96l1.947-2.868c3.42-0.923,5.611-2.774,6.72-3.88l3.532,3.538	C35.189,41.121,31.715,42.65,29.183,43.317z"/><linearGradient id="TJoMX0ZBVX1bkX1EKuDM-g" x1="31" x2="18.83" y1="6.755" y2="6.755" gradientTransform="rotate(180 24 24)" gradientUnits="userSpaceOnUse"><stop offset="0" stop-color="#df51b4"/><stop offset=".233" stop-color="#cd57bc"/><stop offset=".701" stop-color="#9d65d2"/><stop offset="1" stop-color="#7c6fe1"/></linearGradient><path fill="url(#TJoMX0ZBVX1bkX1EKuDM-g)" d="M18.83,43.32L17,40l3.12-1.51c3.423,0.911,6.246,0.403,7.76,0l1.29,4.83	C25.129,44.422,21.356,44.009,18.83,43.32z"/><linearGradient id="TJoMX0ZBVX1bkX1EKuDM-h" x1="28.825" x2="19.946" y1="4.082" y2="9.209" gradientTransform="rotate(-150 24 24)" gradientUnits="userSpaceOnUse"><stop offset="0" stop-color="#e84e77"/><stop offset="1" stop-color="#cb57bd"/></linearGradient><path fill="url(#TJoMX0ZBVX1bkX1EKuDM-h)" d="M9.863,38.147l0.075-3.79l3.457,0.252c2.509,2.501,5.208,3.472,6.72,3.88l-1.298,4.828	C14.767,42.251,11.706,40.006,9.863,38.147z"/><linearGradient id="TJoMX0ZBVX1bkX1EKuDM-i" x1="18.83" x2="31" y1="6.755" y2="6.755" gradientTransform="rotate(-120 24 24)" gradientUnits="userSpaceOnUse"><stop offset="0" stop-color="#e35084"/><stop offset=".198" stop-color="#e74f72"/><stop offset=".595" stop-color="#f14c42"/><stop offset=".973" stop-color="#fb4910"/><stop offset="1" stop-color="#e4c402"/></linearGradient><path fill="url(#TJoMX0ZBVX1bkX1EKuDM-i)" d="M4.683,29.183l1.96-3.245l2.868,1.947c0.923,3.42,2.774,5.611,3.88,6.72l-3.538,3.532	C6.879,35.189,5.35,31.715,4.683,29.183z"/><linearGradient id="TJoMX0ZBVX1bkX1EKuDM-j" x1="18.83" x2="31" y1="6.755" y2="6.755" gradientTransform="rotate(-90 24 24)" gradientUnits="userSpaceOnUse"><stop offset="0" stop-color="#f64b29"/><stop offset=".508" stop-color="#f84d17"/><stop offset="1" stop-color="#fb5001"/></linearGradient><path fill="url(#TJoMX0ZBVX1bkX1EKuDM-j)" d="M4.68,18.83L8,17l1.51,3.12c-0.911,3.423-0.403,6.246,0,7.76l-4.83,1.29	C3.578,25.129,3.991,21.356,4.68,18.83z"/><linearGradient id="TJoMX0ZBVX1bkX1EKuDM-k" x1="18.83" x2="31" y1="6.755" y2="6.755" gradientTransform="rotate(-60 24 24)" gradientUnits="userSpaceOnUse"><stop offset="0" stop-color="#fa4f0a"/><stop offset=".885" stop-color="#f76101"/><stop offset="1" stop-color="#f76400"/></linearGradient><path fill="url(#TJoMX0ZBVX1bkX1EKuDM-k)" d="M9.853,9.863l3.79,0.075l-0.252,3.457c-2.501,2.509-3.472,5.208-3.88,6.72l-4.828-1.298	C5.749,14.767,7.994,11.706,9.853,9.863z"/><linearGradient id="TJoMX0ZBVX1bkX1EKuDM-l" x1="18.83" x2="29.17" y1="6.755" y2="6.755" gradientTransform="rotate(-30 23.999 24)" gradientUnits="userSpaceOnUse"><stop offset="0" stop-color="#f86002"/><stop offset=".478" stop-color="#f47201"/><stop offset="1" stop-color="#ef8b00"/></linearGradient><path fill="url(#TJoMX0ZBVX1bkX1EKuDM-l)" d="M18.817,4.683l1.298,4.828c-3.42,0.923-5.611,2.774-6.72,3.88L9.863,9.853	C12.811,6.879,16.285,5.35,18.817,4.683z"/></svg>