<svg xmlns="http://www.w3.org/2000/svg" viewBox="0 0 48 48"><radialGradient id="8EdoSXS2schCijtUtf7A6a" cx="22.177" cy="29.882" r="18.118" gradientTransform="matrix(1 0 0 -1 0 50)" gradientUnits="userSpaceOnUse"><stop offset=".724" stop-color="#ffed54"/><stop offset=".779" stop-color="#ffe649"/><stop offset=".877" stop-color="#ffd22d"/><stop offset="1" stop-color="#ffb300"/></radialGradient><path fill="url(#8EdoSXS2schCijtUtf7A6a)" d="M22.176,2l1.17,1.214c0.766,0.795,1.967,0.985,2.941,0.466l1.488-0.793l0.738,1.516	c0.483,0.992,1.566,1.545,2.653,1.351l1.66-0.294l0.233,1.67c0.152,1.094,1.012,1.953,2.106,2.106l1.67,0.233l-0.294,1.66	c-0.193,1.087,0.359,2.17,1.351,2.653l1.516,0.738l-0.793,1.488c-0.52,0.974-0.329,2.175,0.466,2.941l1.211,1.168l-1.214,1.17	c-0.795,0.766-0.985,1.967-0.466,2.941l0.793,1.488l-1.516,0.738c-0.992,0.483-1.545,1.566-1.351,2.653l0.294,1.66l-1.67,0.233	c-1.094,0.152-1.953,1.012-2.106,2.106l-0.233,1.67l-1.66-0.294c-1.087-0.193-2.17,0.359-2.653,1.351l-0.738,1.516l-1.488-0.793	c-0.974-0.52-2.175-0.329-2.941,0.466l-1.168,1.211l-1.17-1.214c-0.766-0.795-1.967-0.985-2.941-0.466l-1.488,0.793l-0.738-1.516	c-0.483-0.992-1.566-1.545-2.653-1.351l-1.66,0.294l-0.233-1.67c-0.152-1.094-1.012-1.953-2.106-2.106l-1.67-0.233l0.294-1.66	c0.193-1.087-0.359-2.17-1.351-2.653l-1.516-0.738l0.793-1.488c0.52-0.974,0.329-2.175-0.466-2.941l-1.211-1.168l1.214-1.17	c0.795-0.766,0.985-1.967,0.466-2.941l-0.793-1.488l1.516-0.738c0.992-0.483,1.545-1.566,1.351-2.653l-0.294-1.66l1.67-0.233	c1.094-0.152,1.953-1.012,2.106-2.106l0.233-1.67l1.66,0.294c1.087,0.193,2.17-0.359,2.653-1.351l0.738-1.516l1.488,0.793	c0.974,0.52,2.175,0.329,2.941-0.466L22.176,2z"/><linearGradient id="8EdoSXS2schCijtUtf7A6b" x1="8.899" x2="31.879" y1="43.101" y2="20.121" gradientTransform="matrix(1 0 0 -1 0 50)" gradientUnits="userSpaceOnUse"><stop offset="0" stop-color="#fed100"/><stop offset="1" stop-color="#e36001"/></linearGradient><path fill="url(#8EdoSXS2schCijtUtf7A6b)" d="M22,6C14.268,6,8,12.268,8,20s6.268,14,14,14s14-6.268,14-14S29.732,6,22,6z"/><linearGradient id="8EdoSXS2schCijtUtf7A6c" x1="19.54" x2="41.46" y1="30.46" y2="8.54" gradientTransform="matrix(1 0 0 -1 0 50)" gradientUnits="userSpaceOnUse"><stop offset="0" stop-color="#889097"/><stop offset="1" stop-color="#64717c"/></linearGradient><circle cx="30.5" cy="30.5" r="15.5" fill="url(#8EdoSXS2schCijtUtf7A6c)"/><radialGradient id="8EdoSXS2schCijtUtf7A6d" cx="31.414" cy="20.886" r="14.019" gradientTransform="matrix(1.0076 0 0 -1.0076 -1.051 51.647)" gradientUnits="userSpaceOnUse"><stop offset="0"/><stop offset="1" stop-opacity="0"/></radialGradient><circle cx="30.602" cy="30.602" r="14.126" fill="url(#8EdoSXS2schCijtUtf7A6d)"/><radialGradient id="8EdoSXS2schCijtUtf7A6e" cx="28.522" cy="28.563" r="28.065" gradientTransform="matrix(.9925 0 0 -.9925 2.11 46.64)" gradientUnits="userSpaceOnUse"><stop offset="0" stop-color="#fafafb"/><stop offset="1" stop-color="#c8cdd1"/></radialGradient><circle cx="30.5" cy="30.5" r="12.5" fill="url(#8EdoSXS2schCijtUtf7A6e)"/><path fill="#45494d" d="M30.775,30.387c-0.597,0-1.082-0.483-1.082-1.081v-7.21c0-0.597,0.484-1.082,1.082-1.082	s1.082,0.484,1.082,1.082v7.21C31.856,29.903,31.372,30.387,30.775,30.387z"/><circle cx="30.775" cy="30.762" r="2.163" fill="#1e2021"/></svg>