<svg xmlns="http://www.w3.org/2000/svg" viewBox="0 0 48 48"><linearGradient id="aqNQVHn22r3_bc3pdgbKea" x1="33.965" x2="33.965" y1="30.214" y2="25.804" gradientTransform="rotate(-90 24 24)" gradientUnits="userSpaceOnUse"><stop offset=".365" stop-color="#199ae0"/><stop offset=".699" stop-color="#1898de"/><stop offset=".819" stop-color="#1691d8"/><stop offset=".905" stop-color="#1186cc"/><stop offset=".974" stop-color="#0a75bc"/><stop offset="1" stop-color="#076cb3"/></linearGradient><path fill="url(#aqNQVHn22r3_bc3pdgbKea)" d="M25,17.071V11h4.864c0.445,0,0.669,0.539,0.354,0.854L25,17.071z"/><linearGradient id="aqNQVHn22r3_bc3pdgbKeb" x1="38.028" x2="41.8" y1="10.905" y2="36.837" gradientTransform="rotate(-90 24 24)" gradientUnits="userSpaceOnUse"><stop offset="0" stop-color="#32bdef"/><stop offset="1" stop-color="#1ea2e4"/></linearGradient><path fill="url(#aqNQVHn22r3_bc3pdgbKeb)" d="M26,14h-4V3c0-0.552,0.448-1,1-1h2c0.552,0,1,0.448,1,1V14z"/><linearGradient id="aqNQVHn22r3_bc3pdgbKec" x1="31.345" x2="37.554" y1="5.086" y2="47.776" gradientTransform="rotate(-90 24 24)" gradientUnits="userSpaceOnUse"><stop offset="0" stop-color="#32bdef"/><stop offset="1" stop-color="#1ea2e4"/></linearGradient><path fill="url(#aqNQVHn22r3_bc3pdgbKec)" d="M25.707,16.364l-1,1c-0.391,0.391-1.024,0.391-1.414,0l-5.51-5.51	C17.468,11.539,17.691,11,18.136,11H26v4.657C26,15.922,25.895,16.176,25.707,16.364z"/><path fill="#727d86" d="M45,19v2c0,0.55-0.45,1-1,1H4c-0.55,0-1-0.45-1-1v-2c0-0.55,0.45-1,1-1h40C44.55,18,45,18.45,45,19z"/><linearGradient id="aqNQVHn22r3_bc3pdgbKed" x1="-78.035" x2="-78.035" y1="30.214" y2="25.804" gradientTransform="matrix(0 1 1 0 0 112)" gradientUnits="userSpaceOnUse"><stop offset=".365" stop-color="#199ae0"/><stop offset=".699" stop-color="#1898de"/><stop offset=".819" stop-color="#1691d8"/><stop offset=".905" stop-color="#1186cc"/><stop offset=".974" stop-color="#0a75bc"/><stop offset="1" stop-color="#076cb3"/></linearGradient><path fill="url(#aqNQVHn22r3_bc3pdgbKed)" d="M25,30.929V37h4.864c0.445,0,0.669-0.539,0.354-0.854L25,30.929z"/><linearGradient id="aqNQVHn22r3_bc3pdgbKee" x1="-73.972" x2="-70.2" y1="10.905" y2="36.837" gradientTransform="matrix(0 1 1 0 0 112)" gradientUnits="userSpaceOnUse"><stop offset="0" stop-color="#32bdef"/><stop offset="1" stop-color="#1ea2e4"/></linearGradient><path fill="url(#aqNQVHn22r3_bc3pdgbKee)" d="M26,34h-4v11c0,0.552,0.448,1,1,1h2c0.552,0,1-0.448,1-1V34z"/><linearGradient id="aqNQVHn22r3_bc3pdgbKef" x1="-80.656" x2="-74.446" y1="5.086" y2="47.776" gradientTransform="matrix(0 1 1 0 0 112)" gradientUnits="userSpaceOnUse"><stop offset="0" stop-color="#32bdef"/><stop offset="1" stop-color="#1ea2e4"/></linearGradient><path fill="url(#aqNQVHn22r3_bc3pdgbKef)" d="M25.707,31.636l-1-1c-0.391-0.391-1.024-0.391-1.414,0l-5.51,5.51	C17.468,36.461,17.691,37,18.136,37H26v-4.657C26,32.078,25.895,31.824,25.707,31.636z"/><path fill="#727d86" d="M45,29v-2c0-0.55-0.45-1-1-1H4c-0.55,0-1,0.45-1,1v2c0,0.55,0.45,1,1,1h40C44.55,30,45,29.55,45,29z"/></svg>