<svg xmlns="http://www.w3.org/2000/svg" id="Layer_1" x="0" y="0" version="1.1" viewBox="0 0 48 48" xml:space="preserve"><linearGradient id="SVGID_1_" x1="24" x2="24" y1="-1.766" y2="47.206" gradientUnits="userSpaceOnUse"><stop offset="0" stop-color="#f44f5a"/><stop offset=".443" stop-color="#ee3d4a"/><stop offset="1" stop-color="#e52030"/></linearGradient><path fill="url(#SVGID_1_)" d="M0.9,26.1l21,21c1.2,1.2,3.1,1.2,4.2,0l21-21c1.2-1.2,1.2-3.1,0-4.2l-21-21c-1.2-1.2-3.1-1.2-4.2,0l-21,21	C-0.3,23-0.3,25,0.9,26.1z"/><radialGradient id="SVGID_2_" cx="18.723" cy="16.341" r="44.336" gradientUnits="userSpaceOnUse"><stop offset="0" stop-color="#fafafb"/><stop offset="1" stop-color="#c8cdd1"/></radialGradient><path fill="url(#SVGID_2_)" d="M24,2l22,22L24,46L2,24L24,2z"/><linearGradient id="SVGID_3_" x1="24" x2="24" y1="6.319" y2="33.96" gradientUnits="userSpaceOnUse"><stop offset="0" stop-color="#f44f5a"/><stop offset=".443" stop-color="#ee3d4a"/><stop offset="1" stop-color="#e52030"/></linearGradient><path fill="url(#SVGID_3_)" d="M24,23c-0.6,0-1,0.4-1,1s0.4,1,1,1s1-0.4,1-1S24.6,23,24,23z M24,19c-0.6,0-1,0.4-1,1s0.4,1,1,1s1-0.4,1-1	S24.6,19,24,19z M24,15c-0.6,0-1,0.4-1,1c0,0.6,0.4,1,1,1s1-0.4,1-1C25,15.4,24.6,15,24,15z M24,11c-0.6,0-1,0.4-1,1s0.4,1,1,1	s1-0.4,1-1S24.6,11,24,11z M24,35c-0.6,0-1,0.4-1,1s0.4,1,1,1s1-0.4,1-1S24.6,35,24,35z M24,31c-0.6,0-1,0.4-1,1s0.4,1,1,1	s1-0.4,1-1S24.6,31,24,31z M24,27c-0.6,0-1,0.4-1,1s0.4,1,1,1s1-0.4,1-1S24.6,27,24,27z M28,23c-0.6,0-1,0.4-1,1s0.4,1,1,1	s1-0.4,1-1S28.6,23,28,23z M28,19c-0.6,0-1,0.4-1,1s0.4,1,1,1s1-0.4,1-1S28.6,19,28,19z M28,15c-0.6,0-1,0.4-1,1c0,0.6,0.4,1,1,1	s1-0.4,1-1C29,15.4,28.6,15,28,15z M28,31c-0.6,0-1,0.4-1,1s0.4,1,1,1s1-0.4,1-1S28.6,31,28,31z M28,27c-0.6,0-1,0.4-1,1s0.4,1,1,1	s1-0.4,1-1S28.6,27,28,27z M20,23c-0.6,0-1,0.4-1,1s0.4,1,1,1s1-0.4,1-1S20.6,23,20,23z M20,19c-0.6,0-1,0.4-1,1s0.4,1,1,1	s1-0.4,1-1S20.6,19,20,19z M20,15c-0.6,0-1,0.4-1,1c0,0.6,0.4,1,1,1s1-0.4,1-1C21,15.4,20.6,15,20,15z M20,31c-0.6,0-1,0.4-1,1	s0.4,1,1,1s1-0.4,1-1S20.6,31,20,31z M20,27c-0.6,0-1,0.4-1,1s0.4,1,1,1s1-0.4,1-1S20.6,27,20,27z M32,23c-0.6,0-1,0.4-1,1	s0.4,1,1,1s1-0.4,1-1S32.6,23,32,23z M36,23c-0.6,0-1,0.4-1,1s0.4,1,1,1s1-0.4,1-1S36.6,23,36,23z M12,23c-0.6,0-1,0.4-1,1	s0.4,1,1,1s1-0.4,1-1S12.6,23,12,23z M32,19c-0.6,0-1,0.4-1,1s0.4,1,1,1s1-0.4,1-1S32.6,19,32,19z M32,27c-0.6,0-1,0.4-1,1	s0.4,1,1,1s1-0.4,1-1S32.6,27,32,27z M16,23c-0.6,0-1,0.4-1,1s0.4,1,1,1c0.6,0,1-0.4,1-1S16.6,23,16,23z M16,19c-0.6,0-1,0.4-1,1	s0.4,1,1,1c0.6,0,1-0.4,1-1S16.6,19,16,19z M16,27c-0.6,0-1,0.4-1,1s0.4,1,1,1c0.6,0,1-0.4,1-1S16.6,27,16,27z"/></svg>