<svg xmlns="http://www.w3.org/2000/svg" viewBox="0 0 48 48"><path fill="#ed6c47" d="M24,43L24,43c-0.552,0-1-0.448-1-1V28h2v14C25,42.552,24.552,43,24,43z"/><path fill="#ed6c47" d="M21,7h-2c-1.105,0-2,0.895-2,2v17l-4,10l2,4l9-6.53V2L21,7z"/><path fill="#ed6c47" d="M15.5,29.5l-8.793-8.793c-0.391-0.391-0.391-1.024,0-1.414l6.586-6.586	c0.391-0.391,1.024-0.391,1.414,0L23.5,21.5L15.5,29.5z"/><polygon fill="#ed6c47" points="13,19 8,19 7,13 13,14"/><path fill="#ed6c47" d="M17,26H7c-0.552,0-1,0.448-1,1v8c0,0.552,0.448,1,1,1h10V26z"/><polygon fill="#ed6c47" points="7,34 3,31 7,28 10,31"/><path fill="#ff8f6b" d="M27,7h2c1.105,0,2,0.895,2,2v17l4,10l-2,4l-9-6.53V2L27,7z"/><path fill="#ff8f6b" d="M32.5,29.5l8.793-8.793c0.391-0.391,0.391-1.024,0-1.414l-6.586-6.586	c-0.391-0.391-1.024-0.391-1.414,0L24.5,21.5L32.5,29.5z"/><polygon fill="#ff8f6b" points="35,19 40,19 41,13 35,14"/><path fill="#ff8f6b" d="M31,26h10c0.552,0,1,0.448,1,1v8c0,0.552-0.448,1-1,1H31V26z"/><polygon fill="#ff8f6b" points="41,34 45,31 41,28 38,31"/></svg>