<svg xmlns="http://www.w3.org/2000/svg" viewBox="0 0 48 48"><linearGradient id="sG-lq4CGFQeK2mRjiqjqra" x1="6" x2="42" y1="24" y2="24" gradientUnits="userSpaceOnUse"><stop offset="0" stop-color="#912fbd"/><stop offset="1" stop-color="#9332bf"/></linearGradient><path fill="url(#sG-lq4CGFQeK2mRjiqjqra)" fill-rule="evenodd" d="M42,7.08C42,6.484,41.516,6,40.92,6H7.08	C6.484,6,6,6.484,6,7.08v33.84C6,41.516,6.484,42,7.08,42h33.84c0.596,0,1.08-0.484,1.08-1.08V7.08z" clip-rule="evenodd"/><path fill="none" d="M42,7.08C42,6.484,41.516,6,40.92,6H7.08C6.484,6,6,6.484,6,7.08v33.84C6,41.516,6.484,42,7.08,42h33.84	c0.596,0,1.08-0.484,1.08-1.08V7.08z"/><path fill="none" d="M42,7.08C42,6.484,41.516,6,40.92,6H7.08C6.484,6,6,6.484,6,7.08v33.84C6,41.516,6.484,42,7.08,42h33.84	c0.596,0,1.08-0.484,1.08-1.08V7.08z"/><path fill-rule="evenodd" d="M21.51,29.188L28.907,42H40.92c0.596,0,1.08-0.484,1.08-1.08	V29.188H21.51z" clip-rule="evenodd" opacity=".07"/><polygon fill-rule="evenodd" points="18.24,24.33 8.026,42 28.442,42" clip-rule="evenodd" opacity=".07"/><path fill-rule="evenodd" d="M6,32.123v8.797C6,41.516,6.484,42,7.08,42h0.492l13.244-22.938	h-7.275L6,32.123z" clip-rule="evenodd" opacity=".07"/><path fill-rule="evenodd" d="M22.462,28.784c-0.725-0.003-1.397-0.385-1.76-0.996	c-0.021-0.036-1.647-2.853-1.651-2.859c-0.348-0.608-0.349-1.384,0.004-2.014l1.641-2.846c0.367-0.629,1.035-1.025,1.744-1.034	l3.087,0c0.724,0.002,1.394,0.395,1.767,1.024l1.63,2.823c0.37,0.645,0.374,1.415,0.027,2.035c-0.353,0.618-1.643,2.846-1.643,2.846	c-0.361,0.619-1.029,1.008-1.744,1.018l-1.942,0.002L22.462,28.784z" clip-rule="evenodd" opacity=".07"/><path fill-rule="evenodd" d="M42,7.08C42,6.484,41.516,6,40.92,6h-0.578L27.187,28.784H42	V7.08z" clip-rule="evenodd" opacity=".07"/><polygon fill-rule="evenodd" points="21.082,6 20.362,7.247 29.76,23.524 39.877,6" clip-rule="evenodd" opacity=".07"/><polygon fill-rule="evenodd" points="13.773,18.659 20.129,7.65 26.486,18.659" clip-rule="evenodd" opacity=".07"/><linearGradient id="sG-lq4CGFQeK2mRjiqjqrb" x1="6" x2="42" y1="35.844" y2="35.844" gradientUnits="userSpaceOnUse"><stop offset="0" stop-color="#c965eb"/><stop offset="1" stop-color="#c767e5"/></linearGradient><path fill="url(#sG-lq4CGFQeK2mRjiqjqrb)" d="M42,29.688H22.376L29.484,42H40.92c0.596,0,1.08-0.484,1.08-1.08V29.688z"/><linearGradient id="sG-lq4CGFQeK2mRjiqjqrc" x1="6" x2="42" y1="13.404" y2="13.404" gradientUnits="userSpaceOnUse"><stop offset="0" stop-color="#c965eb"/><stop offset="1" stop-color="#c767e5"/></linearGradient><polygon fill="url(#sG-lq4CGFQeK2mRjiqjqrc)" points="20.13,8.65 14.64,18.159 25.62,18.159"/><linearGradient id="sG-lq4CGFQeK2mRjiqjqrd" x1="6" x2="42" y1="17.142" y2="17.142" gradientUnits="userSpaceOnUse"><stop offset="0" stop-color="#c965eb"/><stop offset="1" stop-color="#c767e5"/></linearGradient><path fill="url(#sG-lq4CGFQeK2mRjiqjqrd)" d="M40.92,6L40.92,6L28.054,28.284H42l0-21.206C41.998,6.483,41.515,6,40.92,6z"/><linearGradient id="sG-lq4CGFQeK2mRjiqjqre" x1="6" x2="42" y1="23.91" y2="23.91" gradientUnits="userSpaceOnUse"><stop offset="0" stop-color="#c965eb"/><stop offset="1" stop-color="#c767e5"/></linearGradient><path fill="url(#sG-lq4CGFQeK2mRjiqjqre)" d="M19.492,23.161c-0.264,0.471-0.265,1.069,0,1.532c0.004,0.007,1.622,2.81,1.622,2.81 s0.012,0.021,0.018,0.031c0.276,0.464,0.794,0.749,1.327,0.751c0.003,0,2.069,0.002,3.1-0.002c0.54-0.007,1.048-0.307,1.317-0.768 c0.547-0.947,1.097-1.891,1.64-2.841c0.264-0.471,0.254-1.054-0.01-1.517c-0.004-0.008-0.014-0.023-0.014-0.023l-1.618-2.803 c0,0-0.005-0.009-0.008-0.014c-0.276-0.464-0.786-0.778-1.319-0.78h-0.018l-3.054-0.001c0,0-0.018,0-0.027,0 c-0.54,0.007-1.049,0.324-1.318,0.784c-0.543,0.94-1.626,2.82-1.626,2.82L19.492,23.161z"/><linearGradient id="sG-lq4CGFQeK2mRjiqjqrf" x1="6" x2="42" y1="33.665" y2="33.665" gradientUnits="userSpaceOnUse"><stop offset="0" stop-color="#c965eb"/><stop offset="1" stop-color="#c767e5"/></linearGradient><polygon fill="url(#sG-lq4CGFQeK2mRjiqjqrf)" points="18.24,25.33 8.604,42 27.864,42"/><linearGradient id="sG-lq4CGFQeK2mRjiqjqrg" x1="6" x2="42" y1="30.773" y2="30.773" gradientUnits="userSpaceOnUse"><stop offset="0" stop-color="#c965eb"/><stop offset="1" stop-color="#c767e5"/></linearGradient><path fill="url(#sG-lq4CGFQeK2mRjiqjqrg)" d="M6,33.729l0.004,7.213c0.012,0.559,0.448,1.002,0.999,1.043L19.95,19.562h-6.12L6,33.123 V33.729z"/><linearGradient id="sG-lq4CGFQeK2mRjiqjqrh" x1="6" x2="42" y1="14.262" y2="14.262" gradientUnits="userSpaceOnUse"><stop offset="0" stop-color="#c965eb"/><stop offset="1" stop-color="#c767e5"/></linearGradient><polygon fill="url(#sG-lq4CGFQeK2mRjiqjqrh)" points="39.3,6 21.66,6 20.94,7.247 29.76,22.524"/></svg>