<svg xmlns="http://www.w3.org/2000/svg" viewBox="0 0 48 48"><linearGradient id="ZZxGgDM5eU2yXSPzHrjVHa" x1="31" x2="42" y1="20.5" y2="20.5" gradientUnits="userSpaceOnUse"><stop offset="0" stop-color="#3079d6"/><stop offset="1" stop-color="#297cd2"/></linearGradient><path fill="url(#ZZxGgDM5eU2yXSPzHrjVHa)" d="M38,31h-3.667v-2H38c1.103,0,2-0.897,2-2V14c0-1.103-0.897-2-2-2h-7v-2h7c2.206,0,4,1.794,4,4	v13C42,29.206,40.206,31,38,31z"/><linearGradient id="ZZxGgDM5eU2yXSPzHrjVHb" x1="20.614" x2="28.694" y1="9.882" y2="42.455" gradientUnits="userSpaceOnUse"><stop offset="0" stop-color="#32bdef"/><stop offset="1" stop-color="#1ea2e4"/></linearGradient><path fill="url(#ZZxGgDM5eU2yXSPzHrjVHb)" d="M35,29H11V17l-2.943-6.227C7.887,10.414,8.149,10,8.546,10H35V29z"/><linearGradient id="ZZxGgDM5eU2yXSPzHrjVHc" x1="22" x2="24" y1="14" y2="14" gradientUnits="userSpaceOnUse"><stop offset="0" stop-color="#3079d6"/><stop offset="1" stop-color="#297cd2"/></linearGradient><rect width="2" height="22" x="22" y="3" fill="url(#ZZxGgDM5eU2yXSPzHrjVHc)"/><linearGradient id="ZZxGgDM5eU2yXSPzHrjVHd" x1="21.273" x2="23.519" y1="4.986" y2="11.508" gradientUnits="userSpaceOnUse"><stop offset="0" stop-color="#2aa4f4"/><stop offset="1" stop-color="#007ad9"/></linearGradient><path fill="url(#ZZxGgDM5eU2yXSPzHrjVHd)" d="M35,10c-2.819-3.514-7.144-5.77-12-5.77S13.819,6.486,11,10H35z"/><linearGradient id="ZZxGgDM5eU2yXSPzHrjVHe" x1="22.704" x2="23.46" y1="27.521" y2="44.133" gradientUnits="userSpaceOnUse"><stop offset="0" stop-color="#a34f27"/><stop offset=".587" stop-color="#8b3817"/><stop offset="1" stop-color="#802d10"/></linearGradient><path fill="url(#ZZxGgDM5eU2yXSPzHrjVHe)" d="M35,27H11v14c0,1.105,0.895,2,2,2h20c1.105,0,2-0.895,2-2V27z"/><path fill="#0d62ab" d="M25,3h-4c-0.553,0-1-0.448-1-1s0.447-1,1-1h4c0.553,0,1,0.448,1,1S25.553,3,25,3z"/><linearGradient id="ZZxGgDM5eU2yXSPzHrjVHf" x1="11" x2="35" y1="26" y2="26" gradientUnits="userSpaceOnUse"><stop offset="0" stop-color="#3079d6"/><stop offset="1" stop-color="#297cd2"/></linearGradient><path fill="url(#ZZxGgDM5eU2yXSPzHrjVHf)" d="M34,25H12c-0.552,0-1,0.448-1,1v1h24v-1C35,25.448,34.552,25,34,25z"/></svg>