<svg xmlns="http://www.w3.org/2000/svg" viewBox="0 0 48 48"><linearGradient id="Uel9MHrO_O_R4z4ytu5ofa" x1="45.283" x2="39.251" y1="12.285" y2="6.253" gradientUnits="userSpaceOnUse"><stop offset="0" stop-color="#a34f27"/><stop offset=".587" stop-color="#8b3817"/><stop offset="1" stop-color="#802d10"/></linearGradient><path fill="url(#Uel9MHrO_O_R4z4ytu5ofa)" d="M39.914,4.917l5.793,5.793c0.391,0.391,0.391,1.024,0,1.414l-0.586,0.586	c-0.391,0.391-1.024,0.391-1.414,0l-4.293-4.293L39.914,4.917z"/><linearGradient id="Uel9MHrO_O_R4z4ytu5ofb" x1="-1.167" x2="24.089" y1="9.265" y2="34.521" gradientUnits="userSpaceOnUse"><stop offset="0" stop-color="#ffcf7b"/><stop offset=".196" stop-color="#fecd76"/><stop offset=".439" stop-color="#fac666"/><stop offset=".709" stop-color="#f3bc4d"/><stop offset=".995" stop-color="#eaad2a"/><stop offset="1" stop-color="#eaad29"/></linearGradient><path fill="url(#Uel9MHrO_O_R4z4ytu5ofb)" d="M29.254,16.747c-2.716-2.716-18.519,2.516-22.938,6.935s-4.419,11.584,0,16.003	s11.584,4.419,16.003,0S31.97,19.463,29.254,16.747z"/><linearGradient id="Uel9MHrO_O_R4z4ytu5ofc" x1="44.196" x2="19.776" y1="1.807" y2="26.227" gradientUnits="userSpaceOnUse"><stop offset="0" stop-color="#a34f27"/><stop offset=".587" stop-color="#8b3817"/><stop offset="1" stop-color="#802d10"/></linearGradient><path fill="url(#Uel9MHrO_O_R4z4ytu5ofc)" d="M41.167,6.169l-1.333-1.333c-0.187-0.187-0.487-0.196-0.685-0.021L22.337,19.754	c-0.429,0.381-0.448,1.046-0.041,1.452l2.5,2.5c0.407,0.407,1.071,0.388,1.452-0.041L41.188,6.854	C41.363,6.657,41.354,6.357,41.167,6.169z"/><linearGradient id="Uel9MHrO_O_R4z4ytu5ofd" x1="31.013" x2="6.687" y1="38.012" y2="13.685" gradientUnits="userSpaceOnUse"><stop offset="0" stop-color="#ffda94"/><stop offset="1" stop-color="#fff0ce"/></linearGradient><circle cx="19.501" cy="26.5" r="3.5" fill="url(#Uel9MHrO_O_R4z4ytu5ofd)"/><linearGradient id="Uel9MHrO_O_R4z4ytu5ofe" x1="5.185" x2="19.269" y1="29.458" y2="43.542" gradientTransform="matrix(1.0636 -.0636 -.0636 1.0636 1.76 -1.76)" gradientUnits="userSpaceOnUse"><stop offset="0" stop-color="#d4943b"/><stop offset="1" stop-color="#c2620e"/><stop offset="1" stop-color="#c2620e"/></linearGradient><path fill="url(#Uel9MHrO_O_R4z4ytu5ofe)" d="M15.064,38.904c1.613-1.613,1.13-4.711-1.08-6.92s-5.308-2.692-6.92-1.08	s-1.13,4.711,1.08,6.92C10.353,40.034,13.452,40.517,15.064,38.904z"/><linearGradient id="Uel9MHrO_O_R4z4ytu5off" x1="27.013" x2="2.687" y1="42.012" y2="17.685" gradientUnits="userSpaceOnUse"><stop offset="0" stop-color="#ffda94"/><stop offset="1" stop-color="#fff0ce"/></linearGradient><circle cx="11.001" cy="26" r="2" fill="url(#Uel9MHrO_O_R4z4ytu5off)"/><linearGradient id="Uel9MHrO_O_R4z4ytu5ofg" x1="26.888" x2="2.562" y1="41.887" y2="17.56" gradientUnits="userSpaceOnUse"><stop offset="0" stop-color="#ffda94"/><stop offset="1" stop-color="#fff0ce"/></linearGradient><circle cx="20.001" cy="35" r="2" fill="url(#Uel9MHrO_O_R4z4ytu5ofg)"/></svg>