<svg xmlns="http://www.w3.org/2000/svg" viewBox="0 0 48 48"><linearGradient id="qmxwoIa1ezzBUwD3x6qAaa" x1="9.858" x2="38.387" y1="652.142" y2="623.613" gradientTransform="matrix(1 0 0 -1 0 662)" gradientUnits="userSpaceOnUse"><stop offset="0" stop-color="#00bffe"/><stop offset="1" stop-color="#1d55c4"/></linearGradient><path fill="url(#qmxwoIa1ezzBUwD3x6qAaa)" d="M44,24c0,11.045-8.955,20-20,20S4,35.045,4,24S12.955,4,24,4S44,12.955,44,24z"/><linearGradient id="qmxwoIa1ezzBUwD3x6qAab" x1="10.204" x2="38.624" y1="652.319" y2="623.899" gradientTransform="matrix(1 0 0 -1 0 662)" gradientUnits="userSpaceOnUse"><stop offset="0" stop-color="#84e1fe"/><stop offset="1" stop-color="#167cf7"/></linearGradient><path fill="url(#qmxwoIa1ezzBUwD3x6qAab)" d="M23.77,34.508c0.23,0.683,0,1.596-0.229,2.055c-0.225,0.684-0.454,1.597-0.913,2.051	c-0.454,0.459-0.913,0.689-1.367,0.917c-0.684,0.454-1.142,1.367-1.826,2.055c0,0.225-0.913,1.386-1.142,1.386	c-0.085,0.045-0.166,0.086-0.248,0.127c-1.348-0.42-2.628-0.988-3.837-1.669c-0.008-0.024-0.017-0.047-0.026-0.072	c0-0.229-0.225-1.6-0.225-1.826c-0.229-0.687-0.459-1.6-0.687-2.284c-0.454-1.142-1.367-2.284-1.367-3.651	c0-1.143,0.225-2.28-0.459-3.197c-0.913-1.142-2.739-1.142-3.652-1.826c-1.372-0.913-2.739-2.28-3.423-3.652	c-0.163-0.27-0.273-0.521-0.363-0.768C4.007,24.101,4,24.052,4,24c0-5.356,2.118-10.21,5.548-13.8	c1.876-1.517,5.535-2.215,7.756-1.545c0.684,0.225,3.145,1.697,3.145,2.381c0,0.229,0,0.229-0.229,0.459	c-0.225,0.229-0.455,0.229-0.684,0.229c-0.684,0-2.839-0.497-3.069-0.727c-1.372-0.458-3.423,2.51-3.651,3.423	c-0.229,0.687-0.229,2.284,0.913,2.513c0.684,0,3.814-2.656,4.273-2.885c1.826-0.225,3.237,1.34,3.696,2.941	c0.684,1.826-3.175,3.591-4.547,4.05c-0.454,0.229-0.683-0.229-1.142,0c-1.138,0.454-1.811,1.474-1.947,2.839	c-0.115,1.155-0.229,2.281-0.454,3.423c-0.229,0-0.698-0.003-0.698-0.232v-0.454c0-0.689-0.229-1.601-0.913-1.83	c-0.229-0.224-0.552,0.136-0.781,0.136c-0.684,0-1.367-0.687-2.051-0.229c-0.459,0.454-0.913,1.142-0.913,1.826	c0,0.23,0,0.459,0.225,0.684c0.459,0.229,0.913-0.225,1.372,0c0.454,0,0.454,0.459,0.454,0.687c0.459,0.684,0.913,1.597,1.6,1.826	h4.564c0.684,0.229,1.826,0.454,2.284,0.913c0.224,0.454,0.224,0.913,0.454,1.367c1.142,1.142,2.509,1.142,3.88,1.6	C23.541,33.824,23.771,34.049,23.77,34.508z M36.524,8.42c-0.101,0.03-0.202,0.057-0.301,0.1c-0.684,0.229-2.469,3.525-2.926,4.208	c-0.229,0.229-0.454,0.684-0.229,0.913c0,0.229,0.229,0.229,0.459,0.229c0.454,0.229,0.516,0.324,0.974,0.549	c0.229,0,0.454,0.229,0.229,0.459c0,0,0,0.229-0.229,0.229c-1.142,1.142-2.284,2.055-3.423,3.193	c-0.23,0.231-0.383,0.69-0.383,0.914c0,0.229,0.153,0.229,0.153,0.459s-0.229,0.229-0.459,0.454	c-0.454,0.229-0.913,0.459-1.142,0.687c-0.225,0.454,0,1.142-0.225,1.597c-0.23,1.142-0.917,2.055-1.372,3.197	c-0.459,0.684-0.868,1.367-1.327,2.055c0,0.913-0.229,1.597,0.229,2.28c1.142,1.6,3.428,0.069,5.025,0.752	c0.454,0.229,0.845,0.271,1.142,0.684c0.567,0.787,0.636,2.445,0.866,3.133c0.225,0.913,0.454,1.826,0.913,2.739	c0.227,1.132,0.675,2.263,0.906,3.167C40.596,36.804,44,30.803,44,24C44,17.699,41.079,12.086,36.524,8.42z M28.608,9.357	c0.68-0.437,1.135-1.308,1.363-1.961c0.223-0.438,0.907-1.308,0.68-1.961c-0.177-0.34-0.897-0.544-1.423-0.721	C27.558,4.263,25.812,4,24,4c-0.46,0-0.911,0.038-1.363,0.069c-0.381,0.132-0.709,0.356-0.833,0.714	c-0.228,1.089,0.68,0.87,1.586,1.089c0,0,0.228,1.742,0.228,1.961c0.228,1.089-0.455,1.742-0.455,2.828c0,0.656,0,1.745,0.455,2.18	h0.228c0.228,0,0.451-0.219,0.907-0.433c0.68-0.438,1.363-1.089,2.042-1.527C27.474,10.447,28.153,9.791,28.608,9.357z"/><path d="M26.188,33.175c-0.504,0-0.97-0.25-1.248-0.669l-1.354-2.03c-0.651-0.085-1.254-0.38-1.718-0.844	c-0.464-0.463-0.758-1.065-0.844-1.718l-2.032-1.354c-0.376-0.252-0.617-0.653-0.661-1.102c-0.044-0.448,0.114-0.888,0.433-1.207	l0.534-0.534c0.378-0.378,0.88-0.586,1.414-0.586c0.215,0,0.428,0.035,0.633,0.104l2.01,0.669l1.612-1.614l-5.763-4.609	c-0.332-0.267-0.536-0.664-0.56-1.089c-0.025-0.424,0.134-0.842,0.437-1.144l0.56-0.559c0.379-0.378,0.881-0.586,1.415-0.586	c0.246,0,0.487,0.045,0.718,0.133l7.979,3.069l4.137-4.136c0.567-0.566,1.32-0.878,2.121-0.878c0.802,0,1.555,0.312,2.122,0.878	c0.565,0.566,0.877,1.319,0.877,2.121c0,0.802-0.312,1.556-0.877,2.122l-4.138,4.137l3.07,7.979	c0.283,0.738,0.104,1.575-0.453,2.132l-0.56,0.56c-0.284,0.284-0.661,0.439-1.061,0.439c-0.458,0-0.885-0.205-1.171-0.562	l-4.61-5.764l-1.613,1.613l0.67,2.009c0.24,0.723,0.056,1.507-0.483,2.047l-0.534,0.534C26.967,33.019,26.59,33.175,26.188,33.175z" opacity=".05"/><path d="M26.188,32.675c-0.335,0-0.646-0.167-0.832-0.446L23.869,30c-0.626-0.028-1.208-0.281-1.647-0.721	c-0.438-0.438-0.692-1.026-0.721-1.648l-2.231-1.487c-0.251-0.168-0.411-0.436-0.44-0.735c-0.029-0.299,0.076-0.592,0.288-0.804	l0.534-0.534c0.283-0.283,0.66-0.439,1.061-0.439c0.162,0,0.321,0.026,0.475,0.078l2.303,0.767l2.227-2.227l-6.199-4.958	c-0.222-0.178-0.357-0.442-0.373-0.726c-0.017-0.284,0.09-0.562,0.291-0.762l0.56-0.56c0.284-0.284,0.661-0.44,1.062-0.44	c0.185,0,0.365,0.034,0.538,0.1l8.282,3.186l4.366-4.366c0.473-0.472,1.101-0.732,1.768-0.732c0.668,0,1.296,0.26,1.769,0.732	c0.975,0.975,0.975,2.561,0,3.536l-4.367,4.367l3.187,8.282c0.212,0.553,0.079,1.181-0.34,1.599l-0.56,0.56	c-0.189,0.189-0.44,0.293-0.707,0.293l0,0c-0.305,0-0.59-0.137-0.78-0.375l-4.96-6.2l-2.227,2.227l0.768,2.302	c0.181,0.542,0.042,1.13-0.362,1.535l-0.534,0.534C26.707,32.571,26.456,32.675,26.188,32.675z" opacity=".07"/><linearGradient id="qmxwoIa1ezzBUwD3x6qAac" x1="7.123" x2="22.442" y1="44.493" y2="28.919" gradientUnits="userSpaceOnUse"><stop offset=".301" stop-color="#0f89e1"/><stop offset=".342" stop-color="#138be3"/><stop offset=".385" stop-color="#2092e9"/><stop offset=".429" stop-color="#359ef3"/><stop offset=".451" stop-color="#42a5fa"/><stop offset=".511" stop-color="#68b6fa"/><stop offset=".592" stop-color="#94cbfa"/><stop offset=".674" stop-color="#b8dbf9"/><stop offset=".756" stop-color="#d5e8f9"/><stop offset=".838" stop-color="#e9f2f9"/><stop offset=".919" stop-color="#f5f7f9"/><stop offset="1" stop-color="#f9f9f9"/></linearGradient><path fill="url(#qmxwoIa1ezzBUwD3x6qAac)" d="M10.923,39.11c0.508,0.44,1.035,0.855,1.585,1.243l11.188-11.188l-1.414-1.414L10.923,39.11z"/><path fill="#fdb700" d="M23.282,28.218l2.49,3.735c0.175,0.263,0.547,0.299,0.77,0.076l0.534-0.534	c0.268-0.268,0.361-0.664,0.241-1.024l-0.865-2.595L23.282,28.218z"/><path fill="#fdb700" d="M29.293,25.036l5.308,6.635c0.186,0.233,0.533,0.252,0.744,0.041l0.56-0.56	c0.279-0.279,0.368-0.697,0.226-1.066L32.828,21.5L29.293,25.036z"/><path fill="#fdb700" d="M23.624,25.048l-2.595-0.865c-0.36-0.12-0.756-0.026-1.024,0.241l-0.534,0.534	c-0.223,0.223-0.186,0.594,0.076,0.77l3.735,2.49L23.624,25.048z"/><path fill="#fdb700" d="M30,18.672l-8.586-3.302c-0.369-0.142-0.787-0.053-1.066,0.226l-0.56,0.56	c-0.211,0.211-0.192,0.558,0.041,0.744l6.635,5.308L30,18.672z"/><path fill="#fad500" d="M37.425,14.075c-0.781-0.781-2.047-0.781-2.828,0L22.575,26.096c-0.781,0.781-0.781,2.047,0,2.828	c0.781,0.781,2.047,0.781,2.828,0l12.021-12.021C38.206,16.123,38.206,14.856,37.425,14.075z"/></svg>