<svg xmlns="http://www.w3.org/2000/svg" viewBox="0 0 48 48"><path fill="#c0c9cc" d="M33,7h-4V5c0-1.105-0.895-2-2-2h-6c-1.105,0-2,0.895-2,2v2h-4c-1.65,0-3,1.35-3,3v31	c0,1.65,1.35,3,3,3h18c1.65,0,3-1.35,3-3V10C36,8.35,34.65,7,33,7z"/><path fill="#ed3d49" d="M24.014,36c-0.732,0-1.336-0.222-1.812-0.666s-0.714-0.981-0.714-1.613	c0-0.659,0.24-1.199,0.721-1.62c0.48-0.421,1.082-0.631,1.805-0.631c0.732,0,1.332,0.213,1.798,0.638	c0.467,0.426,0.7,0.963,0.7,1.613c0,0.659-0.231,1.203-0.693,1.633S24.755,36,24.014,36z M26.236,16.721l-0.481,12.175	c-0.015,0.372-0.321,0.666-0.693,0.666h-2.179c-0.373,0-0.679-0.295-0.693-0.668L21.735,16.72c-0.015-0.393,0.3-0.72,0.693-0.72	h3.116C25.937,16,26.252,16.327,26.236,16.721z"/></svg>