<svg xmlns="http://www.w3.org/2000/svg" viewBox="0 0 48 48"><path fill="#50e6ff" d="M39,16v25c0,1.105-0.895,2-2,2H11c-1.105,0-2-0.895-2-2V7c0-1.105,0.895-2,2-2h17L39,16z"/><linearGradient id="GJ6Z5Dq69RTXuD3zgJcKaa" x1="28.529" x2="33.6" y1="15.472" y2="10.4" gradientUnits="userSpaceOnUse"><stop offset="0" stop-color="#3079d6"/><stop offset="1" stop-color="#297cd2"/></linearGradient><path fill="url(#GJ6Z5Dq69RTXuD3zgJcKaa)" d="M28,5v9c0,1.105,0.895,2,2,2h9L28,5z"/><polygon fill="#199be2" points="15.707,30.707 14.293,29.293 21,22.586 27,28.586 32.293,23.293 33.707,24.707 27,31.414 21,25.414"/><circle cx="33" cy="24" r="2" fill="#0078d4"/><circle cx="27" cy="30" r="2" fill="#0078d4"/><circle cx="21" cy="24" r="2" fill="#0078d4"/><circle cx="15" cy="30" r="2" fill="#0078d4"/></svg>