<svg xmlns="http://www.w3.org/2000/svg" data-name="Слой 1" viewBox="0 0 48 48"><defs><linearGradient id="nJkPPpQm__gBP5P8_OdaSa" x1="9" x2="9" y1="20.576" y2="32.903" data-name="Безымянный градиент 2" gradientUnits="userSpaceOnUse"><stop offset="0" stop-color="#ffcf54"/><stop offset=".261" stop-color="#fdcb4d"/><stop offset=".639" stop-color="#f7c13a"/><stop offset="1" stop-color="#f0b421"/></linearGradient><linearGradient id="nJkPPpQm__gBP5P8_OdaSb" x1="20.173" x2="22.765" y1="21.612" y2="28.753" data-name="Безымянный градиент 128" gradientUnits="userSpaceOnUse"><stop offset="0" stop-color="#fed100"/><stop offset="1" stop-color="#e38101"/></linearGradient></defs><path fill="#199be2" d="M41,14.75,45,6s-5,1-6.89595,7.95009A8.45325,8.45325,0,0,0,41,14.75Z"/><path fill="url(#nJkPPpQm__gBP5P8_OdaSa)" d="M13,27a4,4,0,1,1-3.998-4A3.99975,3.99975,0,0,1,13,27Z"/><path fill="#35c1f1" d="M23,31a4,4,0,1,1-3.998-4A3.99975,3.99975,0,0,1,23,31Z"/><path fill="#35c1f1" d="M7,41.5A1.5,1.5,0,1,1,5.50075,40,1.49991,1.49991,0,0,1,7,41.5Z"/><path fill="#35c1f1" d="M41,14.5A1.5,1.5,0,1,1,39.50075,13,1.49991,1.49991,0,0,1,41,14.5Z"/><path fill="#35c1f1" d="M31,28a4,4,0,1,1-3.998-4A3.99975,3.99975,0,0,1,31,28Z"/><polygon fill="#35c1f1" points="6.512 42.607 17 34 16.126 28.218 4.504 40.378 6.512 42.607"/><polygon fill="#35c1f1" points="28.51 31.706 20.383 34.755 17.763 27.195 25.575 24.261 28.51 31.706"/><path fill="url(#nJkPPpQm__gBP5P8_OdaSb)" d="M26.771,23.82067l-8.93669,3.38892a2.29283,2.29283,0,0,1-2.93311-1.27087h0a2.29282,2.29282,0,0,1,1.31506-3.01983L25.09323,19.59a1,1,0,0,1,1.27571.55536l.97211,2.35927A1,1,0,0,1,26.771,23.82067Z"/><path fill="#35c1f1" d="M38.10405,13.95009,34,21l-4.9822,3.54517L29.984,30.664l6.8402-7.44355a1.99994,1.99994,0,0,0,.32541-.47748l3.74315-7.68488Z"/></svg>