<svg xmlns="http://www.w3.org/2000/svg" viewBox="0 0 48 48"><linearGradient id="GHdT_MaifB0NiYFHBSNEua" x1=".684" x2="23.871" y1="13.349" y2="36.536" gradientUnits="userSpaceOnUse"><stop offset="0" stop-color="#c9c9c9"/><stop offset="1" stop-color="#b3b3b3"/></linearGradient><path fill="url(#GHdT_MaifB0NiYFHBSNEua)" d="M24.33,34.33c-1.02-0.28-2.02-0.61-3-1c-3.63-1.44-6.93-3.6-9.7-6.37l-1.29-1.29l0.41-2.17	L13,23L24.33,34.33z"/><radialGradient id="GHdT_MaifB0NiYFHBSNEub" cx="24.771" cy="-36.576" r="18.236" gradientTransform="matrix(-.9946 0 0 -1 53.962 -8)" gradientUnits="userSpaceOnUse"><stop offset=".376" stop-color="#261103"/><stop offset=".68" stop-color="#431d06"/><stop offset="1" stop-color="#662c09"/></radialGradient><path fill="url(#GHdT_MaifB0NiYFHBSNEub)" d="M12,34.189	c0,3.937,1.818,7.387,5.627,8.301C20.888,43.274,24.993,44,29,44s8.112-0.726,11.373-1.508C44.182,41.577,46,38.128,46,34.19	c0,0-3.378-22.116-17-22.116S12,34.189,12,34.189z"/><radialGradient id="GHdT_MaifB0NiYFHBSNEuc" cx="-583.389" cy="-18.993" r="14.322" gradientTransform="matrix(.9695 0 0 -.9576 594.607 8.46)" gradientUnits="userSpaceOnUse"><stop offset="0" stop-color="#ffcf54"/><stop offset=".261" stop-color="#fdcb4d"/><stop offset=".639" stop-color="#f7c13a"/><stop offset="1" stop-color="#f0b421"/></radialGradient><path fill="url(#GHdT_MaifB0NiYFHBSNEuc)" d="M41,26.309c0,1.012,0,3.831,0,4.912	C41,35.735,33.651,42,29,42s-12-6.265-12-10.779c0-1.081,0-3.9,0-4.912c0-12.643,6.079-15.013,12-15.013S41,13.666,41,26.309z"/><radialGradient id="GHdT_MaifB0NiYFHBSNEud" cx="15.743" cy="-15.844" r="42.525" gradientTransform="matrix(-.9946 0 0 -1.0073 53.962 -8.332)" gradientUnits="userSpaceOnUse"><stop offset="0" stop-color="#c26715"/><stop offset=".508" stop-color="#b85515"/><stop offset="1" stop-color="#ad3f16"/></radialGradient><path fill="url(#GHdT_MaifB0NiYFHBSNEud)" d="M12,34.122	c0,3.309,1.207,5.746,2.785,6.961c-5.802-26.149,15.07-13.261,21.547-27.839c-2.249,10.934,12.865,8.66,6.269,28.299	c0.911-0.538,3.4-2.386,3.4-7.421c0-18.532-5.742-22.405-8.5-22.818c0,0-1.715-4.304-8.5-4.304C19.324,7,12,15.837,12,34.122z"/><linearGradient id="GHdT_MaifB0NiYFHBSNEue" x1="24.261" x2="-4.105" y1="9.072" y2="37.438" gradientUnits="userSpaceOnUse"><stop offset="0" stop-color="#9a9a9a"/><stop offset=".302" stop-color="#929292"/><stop offset=".757" stop-color="#7e7e7e"/><stop offset="1" stop-color="#707070"/></linearGradient><path fill="url(#GHdT_MaifB0NiYFHBSNEue)" d="M24.333,11.667L7,29l-3.25,0.583L9,24.333	l-0.862-0.862c-0.26-0.26-0.26-0.682,0-0.943l3.487-3.487C15.147,15.519,19.528,12.977,24.333,11.667L24.333,11.667z"/><linearGradient id="GHdT_MaifB0NiYFHBSNEuf" x1=".684" x2="23.871" y1="13.349" y2="36.536" gradientUnits="userSpaceOnUse"><stop offset="0" stop-color="#c9c9c9"/><stop offset="1" stop-color="#b3b3b3"/></linearGradient><path fill="url(#GHdT_MaifB0NiYFHBSNEuf)" d="M13,23l-2.66,2.67l-2.2-2.2	c-0.26-0.26-0.26-0.68,0-0.94l0.39-0.39c0.26-0.26,0.26-0.68,0-0.94l-4.86-4.87L7,17L13,23z"/><linearGradient id="GHdT_MaifB0NiYFHBSNEug" x1="26.594" x2="-1.771" y1="11.406" y2="39.771" gradientUnits="userSpaceOnUse"><stop offset="0" stop-color="#9a9a9a"/><stop offset=".302" stop-color="#929292"/><stop offset=".757" stop-color="#7e7e7e"/><stop offset="1" stop-color="#707070"/></linearGradient><path fill="url(#GHdT_MaifB0NiYFHBSNEug)" d="M5.333,37C2.944,37,1,35.056,1,32.667	s1.944-4.333,4.333-4.333s4.333,1.944,4.333,4.333S7.723,37,5.333,37z M5.333,30.333C4.047,30.333,3,31.38,3,32.667	C3,33.953,4.047,35,5.333,35s2.333-1.047,2.333-2.333C7.667,31.38,6.62,30.333,5.333,30.333z"/><path fill="#c4c4c4" d="M5.333,17.667C2.944,17.667,1,15.723,1,13.333S2.944,9,5.333,9s4.333,1.944,4.333,4.333	S7.723,17.667,5.333,17.667z M5.333,11C4.047,11,3,12.047,3,13.333s1.047,2.333,2.333,2.333s2.333-1.047,2.333-2.333	S6.62,11,5.333,11z"/><circle cx="10.5" cy="23" r=".5" fill="#e6e6e6"/><path d="M10.807,19.86l-0.24,0.24l-0.233,0.233L13,23l0.233-0.233l0.24-0.24L10.807,19.86z M8.767,24.567l-0.24,0.24L9.86,26.14 l0.24-0.24l0.233-0.233L9,24.333L8.767,24.567z" opacity=".05"/><path d="M10.567,20.1l-0.233,0.233L13,23l0.233-0.233L10.567,20.1z M8.767,24.567L10.1,25.9l0.233-0.233L9,24.333L8.767,24.567z" opacity=".07"/></svg>