<svg xmlns="http://www.w3.org/2000/svg" viewBox="0 0 48 48"><linearGradient id="D95R67e8uQmpaK6RulXsba" x1="24" x2="24" y1="1.794" y2="53.504" gradientUnits="userSpaceOnUse"><stop offset="0" stop-color="#afb6bc"/><stop offset=".925" stop-color="#9aa0a5"/></linearGradient><polygon fill="url(#D95R67e8uQmpaK6RulXsba)" points="40,24 40,20 36,20 36,17 32,17 32,14 16,14 16,17 12,17 12,20 8,20 8,24 6,24 6,31 8,31 8,38 11,38 11,40 14,40 14,42 18,42 18,43 30,43 30,42 34,42 34,40 37,40 37,38 40,38 40,31 42,31 42,24"/><linearGradient id="D95R67e8uQmpaK6RulXsbb" x1="13" x2="13" y1="1.647" y2="56.804" gradientUnits="userSpaceOnUse"><stop offset="0" stop-color="#afb6bc"/><stop offset=".925" stop-color="#9aa0a5"/></linearGradient><polygon fill="url(#D95R67e8uQmpaK6RulXsbb)" points="15,12 15,10 14,10 14,8 13,8 13,6 11,6 11,4 9,4 9,20 17,20 17,12"/><linearGradient id="D95R67e8uQmpaK6RulXsbc" x1="35" x2="35" y1="1.647" y2="56.804" gradientUnits="userSpaceOnUse"><stop offset="0" stop-color="#afb6bc"/><stop offset=".925" stop-color="#9aa0a5"/></linearGradient><polygon fill="url(#D95R67e8uQmpaK6RulXsbc)" points="33,12 33,10 34,10 34,8 35,8 35,6 37,6 37,4 39,4 39,20 31,20 31,12"/><linearGradient id="D95R67e8uQmpaK6RulXsbd" x1="7.5" x2="7.5" y1="19.941" y2="28.178" gradientUnits="userSpaceOnUse"><stop offset="0" stop-color="#889097"/><stop offset="1" stop-color="#4c5963"/></linearGradient><rect width="11" height="2" x="2" y="30" fill="url(#D95R67e8uQmpaK6RulXsbd)"/><linearGradient id="D95R67e8uQmpaK6RulXsbe" x1="9.5" x2="9.5" y1="19.941" y2="28.178" gradientUnits="userSpaceOnUse"><stop offset="0" stop-color="#889097"/><stop offset="1" stop-color="#4c5963"/></linearGradient><rect width="11" height="2" x="4" y="34" fill="url(#D95R67e8uQmpaK6RulXsbe)"/><linearGradient id="D95R67e8uQmpaK6RulXsbf" x1="40.5" x2="40.5" y1="19.941" y2="28.178" gradientUnits="userSpaceOnUse"><stop offset="0" stop-color="#889097"/><stop offset="1" stop-color="#4c5963"/></linearGradient><rect width="11" height="2" x="35" y="30" fill="url(#D95R67e8uQmpaK6RulXsbf)"/><linearGradient id="D95R67e8uQmpaK6RulXsbg" x1="38.5" x2="38.5" y1="19.941" y2="28.178" gradientUnits="userSpaceOnUse"><stop offset="0" stop-color="#889097"/><stop offset="1" stop-color="#4c5963"/></linearGradient><rect width="11" height="2" x="33" y="34" fill="url(#D95R67e8uQmpaK6RulXsbg)"/><rect width="4" height="2" x="22" y="30" fill="#d9414f"/><linearGradient id="D95R67e8uQmpaK6RulXsbh" x1="14" x2="14" y1="12.823" y2="31.829" gradientUnits="userSpaceOnUse"><stop offset="0" stop-color="#ffcf54"/><stop offset=".261" stop-color="#fdcb4d"/><stop offset=".639" stop-color="#f7c13a"/><stop offset="1" stop-color="#f0b421"/></linearGradient><rect width="4" height="3" x="12" y="23" fill="url(#D95R67e8uQmpaK6RulXsbh)"/><linearGradient id="D95R67e8uQmpaK6RulXsbi" x1="20" x2="20" y1="12.823" y2="31.829" gradientUnits="userSpaceOnUse"><stop offset="0" stop-color="#ffcf54"/><stop offset=".261" stop-color="#fdcb4d"/><stop offset=".639" stop-color="#f7c13a"/><stop offset="1" stop-color="#f0b421"/></linearGradient><rect width="4" height="3" x="18" y="23" fill="url(#D95R67e8uQmpaK6RulXsbi)"/><linearGradient id="D95R67e8uQmpaK6RulXsbj" x1="17" x2="17" y1="12.823" y2="31.829" gradientUnits="userSpaceOnUse"><stop offset="0" stop-color="#ffcf54"/><stop offset=".261" stop-color="#fdcb4d"/><stop offset=".639" stop-color="#f7c13a"/><stop offset="1" stop-color="#f0b421"/></linearGradient><rect width="6" height="5" x="14" y="22" fill="url(#D95R67e8uQmpaK6RulXsbj)"/><linearGradient id="D95R67e8uQmpaK6RulXsbk" x1="28" x2="28" y1="12.823" y2="31.829" gradientUnits="userSpaceOnUse"><stop offset="0" stop-color="#ffcf54"/><stop offset=".261" stop-color="#fdcb4d"/><stop offset=".639" stop-color="#f7c13a"/><stop offset="1" stop-color="#f0b421"/></linearGradient><rect width="4" height="3" x="26" y="23" fill="url(#D95R67e8uQmpaK6RulXsbk)"/><linearGradient id="D95R67e8uQmpaK6RulXsbl" x1="34" x2="34" y1="12.823" y2="31.829" gradientUnits="userSpaceOnUse"><stop offset="0" stop-color="#ffcf54"/><stop offset=".261" stop-color="#fdcb4d"/><stop offset=".639" stop-color="#f7c13a"/><stop offset="1" stop-color="#f0b421"/></linearGradient><rect width="4" height="3" x="32" y="23" fill="url(#D95R67e8uQmpaK6RulXsbl)"/><linearGradient id="D95R67e8uQmpaK6RulXsbm" x1="31" x2="31" y1="12.823" y2="31.829" gradientUnits="userSpaceOnUse"><stop offset="0" stop-color="#ffcf54"/><stop offset=".261" stop-color="#fdcb4d"/><stop offset=".639" stop-color="#f7c13a"/><stop offset="1" stop-color="#f0b421"/></linearGradient><rect width="6" height="5" x="28" y="22" fill="url(#D95R67e8uQmpaK6RulXsbm)"/><linearGradient id="D95R67e8uQmpaK6RulXsbn" x1="24" x2="24" y1="19.941" y2="28.178" gradientUnits="userSpaceOnUse"><stop offset="0" stop-color="#889097"/><stop offset="1" stop-color="#4c5963"/></linearGradient><rect width="2" height="3" x="23" y="32" fill="url(#D95R67e8uQmpaK6RulXsbn)"/><linearGradient id="D95R67e8uQmpaK6RulXsbo" x1="21.5" x2="21.5" y1="19.941" y2="28.178" gradientUnits="userSpaceOnUse"><stop offset="0" stop-color="#889097"/><stop offset="1" stop-color="#4c5963"/></linearGradient><rect width="3" height="2" x="20" y="35" fill="url(#D95R67e8uQmpaK6RulXsbo)"/><linearGradient id="D95R67e8uQmpaK6RulXsbp" x1="26.5" x2="26.5" y1="19.941" y2="28.178" gradientUnits="userSpaceOnUse"><stop offset="0" stop-color="#889097"/><stop offset="1" stop-color="#4c5963"/></linearGradient><rect width="3" height="2" x="25" y="35" fill="url(#D95R67e8uQmpaK6RulXsbp)"/><linearGradient id="D95R67e8uQmpaK6RulXsbq" x1="19" x2="19" y1="19.941" y2="28.178" gradientUnits="userSpaceOnUse"><stop offset="0" stop-color="#889097"/><stop offset="1" stop-color="#4c5963"/></linearGradient><rect width="2" height="2" x="18" y="33" fill="url(#D95R67e8uQmpaK6RulXsbq)"/><linearGradient id="D95R67e8uQmpaK6RulXsbr" x1="29" x2="29" y1="19.941" y2="28.178" gradientUnits="userSpaceOnUse"><stop offset="0" stop-color="#889097"/><stop offset="1" stop-color="#4c5963"/></linearGradient><rect width="2" height="2" x="28" y="33" fill="url(#D95R67e8uQmpaK6RulXsbr)"/><polygon fill="#d9414f" points="13,14 13,12 12,12 12,10 11,10 11,12 11,17 12,17 13,17 15,17 15,14"/><polygon fill="#d9414f" points="36,10 36,12 35,12 35,14 33,14 33,17 35,17 36,17 37,17 37,12 37,10"/><linearGradient id="D95R67e8uQmpaK6RulXsbs" x1="17" x2="17" y1="18.588" y2="24.005" gradientUnits="userSpaceOnUse"><stop offset="0" stop-color="#889097"/><stop offset="1" stop-color="#4c5963"/></linearGradient><rect width="2" height="3" x="16" y="23" fill="url(#D95R67e8uQmpaK6RulXsbs)"/><linearGradient id="D95R67e8uQmpaK6RulXsbt" x1="31" x2="31" y1="18.588" y2="24.005" gradientUnits="userSpaceOnUse"><stop offset="0" stop-color="#889097"/><stop offset="1" stop-color="#4c5963"/></linearGradient><rect width="2" height="3" x="30" y="23" fill="url(#D95R67e8uQmpaK6RulXsbt)"/></svg>