<svg xmlns="http://www.w3.org/2000/svg" viewBox="0 0 48 48"><path fill="#199be2" d="M25,43c10.493,0,19-8.507,19-19S35.493,5,25,5S6,13.507,6,24S14.507,43,25,43z M25,39	c-8.284,0-15-6.716-15-15S16.716,9,25,9s15,6.716,15,15S33.284,39,25,39z"/><path fill="#35c1f1" d="M46,26h-8c-0.552,0-1-0.448-1-1v-2c0-0.552,0.448-1,1-1h8c0.552,0,1,0.448,1,1v2	C47,25.552,46.552,26,46,26z"/><path fill="#35c1f1" d="M27,37v8c0,0.552-0.448,1-1,1h-2c-0.552,0-1-0.448-1-1v-8c0-0.552,0.448-1,1-1h2	C26.552,36,27,36.448,27,37z"/><path fill="#35c1f1" d="M27,3v8c0,0.552-0.448,1-1,1h-2c-0.552,0-1-0.448-1-1V3c0-0.552,0.448-1,1-1h2	C26.552,2,27,2.448,27,3z"/><path d="M6.502,19.722l5.027-2.286C10.559,19.421,10,21.642,10,24s0.559,4.579,1.528,6.564l-5.027-2.286	C6.184,26.901,6,25.473,6,24C6,22.527,6.184,21.099,6.502,19.722z" opacity=".05"/><path d="M6.361,20.335l4.829-2.196C10.424,19.94,10,21.92,10,24s0.424,4.06,1.19,5.861l-4.829-2.196	C6.129,26.478,6,25.255,6,24S6.129,21.522,6.361,20.335z" opacity=".07"/><linearGradient id="h4vOCLLXWbc46WLJXmIyua" x1="5.918" x2="18.599" y1="14.596" y2="28.723" gradientUnits="userSpaceOnUse"><stop offset="0" stop-color="#f44f5a"/><stop offset=".443" stop-color="#ee3d4a"/><stop offset="1" stop-color="#e52030"/></linearGradient><path fill="url(#h4vOCLLXWbc46WLJXmIyua)" d="M19.529,33c0.585,0,1.059-0.474,1.059-1.059c0-0.103-0.02-0.201-0.047-0.296L18.471,24	l2.071-7.645c0.028-0.095,0.047-0.193,0.047-0.296c0-0.585-0.474-1.059-1.059-1.059c-0.147,0-0.286,0.03-0.413,0.084l-17.504,7.96	C1.251,23.212,1,23.575,1,24s0.251,0.788,0.612,0.957l17.504,7.96C19.243,32.97,19.383,33,19.529,33z"/></svg>