<svg xmlns="http://www.w3.org/2000/svg" viewBox="0 0 48 48"><linearGradient id="4Me_AkASyt9S6zSE6sdqHa" x1="-7.018" x2="39.387" y1="9.308" y2="33.533" gradientUnits="userSpaceOnUse"><stop offset="0" stop-color="#fac017"/><stop offset=".909" stop-color="#e1ab2d"/></linearGradient><path fill="url(#4Me_AkASyt9S6zSE6sdqHa)" d="M44.5,41h-41C2.119,41,1,39.881,1,38.5v-31C1,6.119,2.119,5,3.5,5h11.597	c1.519,0,2.955,0.69,3.904,1.877L21.5,10h23c1.381,0,2.5,1.119,2.5,2.5v26C47,39.881,45.881,41,44.5,41z"/><linearGradient id="4Me_AkASyt9S6zSE6sdqHb" x1="16.865" x2="44.965" y1="39.287" y2="39.792" gradientUnits="userSpaceOnUse"><stop offset="0" stop-color="#e3a917"/><stop offset=".464" stop-color="#d79c1e"/></linearGradient><path fill="url(#4Me_AkASyt9S6zSE6sdqHb)" d="M1,37.875V38.5C1,39.881,2.119,41,3.5,41h41c1.381,0,2.5-1.119,2.5-2.5v-0.625H1z"/><linearGradient id="4Me_AkASyt9S6zSE6sdqHc" x1="-4.879" x2="35.968" y1="12.764" y2="30.778" gradientUnits="userSpaceOnUse"><stop offset=".34" stop-color="#ffefb2"/><stop offset=".485" stop-color="#ffedad"/><stop offset=".652" stop-color="#ffe99f"/><stop offset=".828" stop-color="#fee289"/><stop offset="1" stop-color="#fed86b"/></linearGradient><path fill="url(#4Me_AkASyt9S6zSE6sdqHc)" d="M44.5,11h-23l-1.237,0.824C19.114,12.591,17.763,13,16.381,13H3.5C2.119,13,1,14.119,1,15.5	v22C1,38.881,2.119,40,3.5,40h41c1.381,0,2.5-1.119,2.5-2.5v-24C47,12.119,45.881,11,44.5,11z"/><radialGradient id="4Me_AkASyt9S6zSE6sdqHd" cx="37.836" cy="49.317" r="53.875" gradientUnits="userSpaceOnUse"><stop offset=".199" stop-color="#fec832"/><stop offset=".601" stop-color="#fcd667"/><stop offset=".68" stop-color="#fdda75"/><stop offset=".886" stop-color="#fee496"/><stop offset="1" stop-color="#ffe8a2"/></radialGradient><path fill="url(#4Me_AkASyt9S6zSE6sdqHd)" d="M44.5,40h-41C2.119,40,1,38.881,1,37.5v-21C1,15.119,2.119,14,3.5,14h13.256	c1.382,0,2.733-0.409,3.883-1.176L21.875,12H44.5c1.381,0,2.5,1.119,2.5,2.5v23C47,38.881,45.881,40,44.5,40z"/><linearGradient id="4Me_AkASyt9S6zSE6sdqHe" x1="19.731" x2="29.487" y1="18.401" y2="35.299" gradientUnits="userSpaceOnUse"><stop offset="0" stop-color="#c78902"/><stop offset="1" stop-color="#986700"/></linearGradient><path fill="url(#4Me_AkASyt9S6zSE6sdqHe)" d="M33.976,23.221c-0.059-0.181-0.215-0.313-0.404-0.34l-6.305-0.913l-2.819-5.69	c-0.169-0.34-0.728-0.34-0.896,0l-2.819,5.69l-6.305,0.913c-0.188,0.027-0.345,0.159-0.404,0.34s-0.009,0.38,0.127,0.513	l4.561,4.428l-1.076,6.252c-0.032,0.188,0.044,0.377,0.198,0.489c0.154,0.112,0.359,0.127,0.526,0.039L24,31.99l5.639,2.953	C29.712,34.981,29.792,35,29.871,35c0.104,0,0.207-0.032,0.294-0.096c0.154-0.112,0.23-0.302,0.198-0.489l-1.076-6.252l4.561-4.428	C33.985,23.602,34.034,23.402,33.976,23.221z"/></svg>