<svg xmlns="http://www.w3.org/2000/svg" viewBox="0 0 48 48"><path fill="#199be2" d="M38.032,14h-6.546c-0.431,0-0.647-0.522-0.342-0.827l7.031-7.031C38.479,5.838,39,6.054,39,6.485	v6.546C39,13.566,38.567,14,38.032,14z"/><path fill="#199be2" d="M9.969,34h6.546c0.431,0,0.647,0.522,0.342,0.827l-7.031,7.031C9.522,42.162,9,41.946,9,41.515	v-6.546C9,34.434,9.434,34,9.969,34z"/><path fill="#199be2" d="M38.627,37.64c-7.241,7.765-19.292,8.522-27.435,1.722l2.564-3.07	c6.513,5.439,16.153,4.833,21.946-1.379c3.806-4.082,5.195-9.808,3.73-15.149c-0.143-0.521,0.122-1.066,0.634-1.24l1.896-0.644	c0.533-0.181,1.125,0.109,1.279,0.651C45.151,25.254,43.427,32.493,38.627,37.64z"/><path fill="#0077d2" d="M41.393,33.88C37.763,37.66,32.66,40,27,40c-0.53,0-1.05-0.011-1.57-0.061	c3.8-0.34,7.48-2.039,10.27-5.029c3.81-4.08,5.2-9.81,3.73-15.15c-0.14-0.52,0.12-1.06,0.64-1.24l1.89-0.64	c0.53-0.18,1.13,0.11,1.28,0.65C44.72,23.74,44.023,29.26,41.393,33.88z"/><path fill="#199be2" d="M9.373,10.36c7.241-7.765,19.292-8.522,27.435-1.722l-2.564,3.07	c-6.513-5.439-16.153-4.833-21.946,1.379c-3.806,4.082-5.195,9.808-3.73,15.149c0.143,0.521-0.122,1.066-0.634,1.24L6.038,30.12	c-0.533,0.181-1.125-0.109-1.279-0.651C2.849,22.746,4.573,15.507,9.373,10.36z"/><path fill="#0077d2" d="M6.606,14.12C10.236,10.34,15.34,8,21,8c0.53,0,1.05,0.012,1.57,0.062	c-3.8,0.34-7.48,2.038-10.27,5.028c-3.81,4.08-5.2,9.81-3.73,15.15c0.14,0.52-0.12,1.06-0.64,1.24l-1.89,0.64	c-0.53,0.18-1.13-0.11-1.28-0.65C3.28,24.26,3.976,18.74,6.606,14.12z"/><linearGradient id="733qBgTK~fQIusx0qHNf6a" x1="24.163" x2="24.163" y1="34.454" y2="16.119" gradientTransform="matrix(1 0 0 -1 0 48)" gradientUnits="userSpaceOnUse"><stop offset="0" stop-color="#0077d2"/><stop offset="1" stop-color="#0b59a2"/></linearGradient><path fill="url(#733qBgTK~fQIusx0qHNf6a)" d="M19.859,24.078c-0.959,0-1.731-0.304-2.317-0.912c-0.586-0.608-0.879-1.425-0.879-2.453	c0-1.122,0.311-2.011,0.935-2.669c0.623-0.658,1.455-0.987,2.495-0.987c0.996,0,1.775,0.298,2.336,0.893	c0.561,0.596,0.841,1.432,0.841,2.509c0,1.109-0.31,1.989-0.931,2.641C21.72,23.752,20.892,24.078,19.859,24.078z M29.668,17.367	L21.121,30.49c-0.21,0.323-0.569,0.517-0.954,0.517h-1.288c-0.209,0-0.334-0.231-0.22-0.406l8.529-13.123	c0.21-0.323,0.57-0.518,0.955-0.518h1.307C29.657,16.961,29.782,17.192,29.668,17.367z M20.037,18.712	c-0.915,0-1.372,0.636-1.372,1.908c0,1.203,0.436,1.805,1.307,1.805c0.889,0,1.334-0.627,1.334-1.88	C21.306,19.322,20.883,18.712,20.037,18.712z M28.252,30.911c-0.959,0-1.731-0.304-2.317-0.911	c-0.586-0.608-0.879-1.426-0.879-2.453c0-1.121,0.311-2.011,0.935-2.669c0.623-0.658,1.455-0.987,2.495-0.987	c1.002,0,1.782,0.294,2.34,0.883c0.557,0.589,0.836,1.422,0.836,2.5c0,1.109-0.31,1.992-0.931,2.65	C30.113,30.582,29.285,30.911,28.252,30.911z M28.402,25.544c-0.909,0-1.363,0.636-1.363,1.908c0,1.203,0.442,1.805,1.325,1.805	c0.889,0,1.334-0.626,1.334-1.879c0-0.583-0.119-1.034-0.357-1.354C29.104,25.704,28.79,25.544,28.402,25.544z"/></svg>