<svg xmlns="http://www.w3.org/2000/svg" viewBox="0 0 48 48"><linearGradient id="rOntngLP2cMM1q2ejcwKya" x1="27.5" x2="27.5" y1="-14.637" y2="56.246" gradientUnits="userSpaceOnUse"><stop offset="0" stop-color="#fed100"/><stop offset="1" stop-color="#e36001"/></linearGradient><path fill="url(#rOntngLP2cMM1q2ejcwKya)" d="M27.5,44c-2.757,0-5-2.243-5-5V3.5C22.5,2.672,23.172,2,24,2s1.5,0.672,1.5,1.5V39	c0,1.103,0.897,2,2,2s2-0.897,2-2v-0.5c0-0.828,0.672-1.5,1.5-1.5s1.5,0.672,1.5,1.5V39C32.5,41.757,30.257,44,27.5,44z"/><rect width="2.997" height="2" x="22.5" y="6" fill="#231f20" opacity=".05"/><rect width="2.997" height="1.5" x="22.5" y="6.5" fill="#231f20" opacity=".07"/><rect width="2.997" height="1" x="22.503" y="25" fill="#231f20" opacity=".05" transform="rotate(-180 24.001 25.5)"/><rect width="2.997" height=".5" x="22.503" y="25" fill="#231f20" opacity=".07" transform="rotate(-180 24.001 25.25)"/><linearGradient id="rOntngLP2cMM1q2ejcwKyb" x1="24" x2="24" y1="-6.643" y2="28.033" gradientUnits="userSpaceOnUse"><stop offset="0" stop-color="#2aa4f4"/><stop offset="1" stop-color="#007ad9"/></linearGradient><path fill="url(#rOntngLP2cMM1q2ejcwKyb)" d="M24,7.028c-10.915,0-19.896,8.346-20.994,18.889c-0.086,0.828,0.85,1.37,1.558,0.921	c1.291-0.818,3.215-1.86,5.366-1.86c2.523,0,4.127,1.735,5.071,2.62c0.486,0.455,1.218,0.532,1.79,0.19	c1.471-0.881,4.499-2.809,7.21-2.809s5.529,1.929,7,2.809c0.572,0.343,1.304,0.265,1.79-0.19c0.944-0.885,2.758-2.62,5.281-2.62	c2.151,0,4.075,1.042,5.366,1.86c0.707,0.449,1.644-0.093,1.558-0.921C43.896,15.374,34.915,7.028,24,7.028z"/><linearGradient id="rOntngLP2cMM1q2ejcwKyc" x1="13.5" x2="13.5" y1="8.58" y2="43.256" gradientUnits="userSpaceOnUse"><stop offset="0" stop-color="#a8e2f7"/><stop offset="1" stop-color="#47c1ff"/></linearGradient><path fill="url(#rOntngLP2cMM1q2ejcwKyc)" d="M24,7.028c-10.915,0-19.896,8.346-20.994,18.889c-0.086,0.828,0.85,1.37,1.558,0.921	c1.291-0.818,3.215-1.86,5.366-1.86c2.523,0,4.127,1.735,5.071,2.62c0.486,0.455,1.218,0.532,1.79,0.19	c1.471-0.881,4.499-2.809,7.21-2.809V7.028z"/><linearGradient id="rOntngLP2cMM1q2ejcwKyd" x1="24" x2="24" y1="-8.611" y2="25.226" gradientUnits="userSpaceOnUse"><stop offset="0" stop-color="#32bdef"/><stop offset="1" stop-color="#1ea2e4"/></linearGradient><path fill="url(#rOntngLP2cMM1q2ejcwKyd)" d="M23.954,7.03C23.338,7.442,16.005,12.667,16,27.984c0.271,0.004,0.545-0.05,0.789-0.197	c1.471-0.881,4.499-2.809,7.21-2.809s5.529,1.929,7,2.809c0.308,0.185,0.661,0.238,0.999,0.185	C31.989,13.39,24.437,7.34,24.038,7.03c-0.013,0-0.025-0.002-0.038-0.002C23.985,7.028,23.97,7.03,23.954,7.03z"/></svg>