<svg xmlns="http://www.w3.org/2000/svg" viewBox="0 0 48 48"><linearGradient id="lz2AgqsBtsIzHTx7TGI7Ia" x1="6" x2="42" y1="1780" y2="1780" gradientTransform="translate(0 -1738)" gradientUnits="userSpaceOnUse"><stop offset="0" stop-color="#c8d3de"/><stop offset="1" stop-color="#c8d3de"/></linearGradient><path fill="url(#lz2AgqsBtsIzHTx7TGI7Ia)" d="M42,40H6v2c0,1.105,0.895,2,2,2h32c1.105,0,2-0.895,2-2V40z"/><linearGradient id="lz2AgqsBtsIzHTx7TGI7Ib" x1="14.095" x2="31.385" y1="1749.338" y2="1782.787" gradientTransform="translate(0 -1738)" gradientUnits="userSpaceOnUse"><stop offset="0" stop-color="#fcfcfc"/><stop offset=".495" stop-color="#f4f4f4"/><stop offset=".946" stop-color="#e8e8e8"/><stop offset="1" stop-color="#e8e8e8"/></linearGradient><path fill="url(#lz2AgqsBtsIzHTx7TGI7Ib)" d="M42,40H6V21L24,4l18,17V40z"/><path fill="#de490d" d="M19,26h10c0.552,0,1,0.448,1,1v17H18V27C18,26.448,18.448,26,19,26z"/><path d="M24,5c-0.474,0-0.948,0.168-1.326,0.503l-5.359,4.811L6,21v5.39l18-15.962	L42,26.39V21L30.685,10.314l-5.359-4.811C24.948,5.168,24.474,5,24,5z" opacity=".05"/><path d="M24,4c-0.474,0-0.948,0.167-1.326,0.5l-5.359,4.784L6,19.909v5.359	L24,9.397l18,15.871v-5.359L30.685,9.284L25.326,4.5C24.948,4.167,24.474,4,24,4z" opacity=".07"/><linearGradient id="lz2AgqsBtsIzHTx7TGI7Ic" x1="24" x2="24" y1="1740.684" y2="1762.696" gradientTransform="translate(0 -1738)" gradientUnits="userSpaceOnUse"><stop offset="0" stop-color="#d43a02"/><stop offset="1" stop-color="#b9360c"/></linearGradient><path fill="url(#lz2AgqsBtsIzHTx7TGI7Ic)" d="M44.495,20.507L25.326,3.503C24.948,3.168,24.474,3,24,3s-0.948,0.168-1.326,0.503	L3.505,20.507c-0.42,0.374-0.449,1.02-0.064,1.43l1.636,1.745c0.369,0.394,0.984,0.424,1.39,0.067L24,8.428L41.533,23.75	c0.405,0.356,1.021,0.327,1.39-0.067l1.636-1.745C44.944,21.527,44.915,20.881,44.495,20.507z"/><path d="M42,33.38V42c0,1.1-0.9,2-2,2H26.27c0.05-0.09,0.09-0.14,0.11-0.17	l9.4-14.84C35.92,28.68,36.5,28,37.5,28c0.86,0,1.52,0.54,1.78,1.08L42,33.38z" opacity=".05"/><path d="M42,34.31V42c0,1.1-0.9,2-2,2H26.86l9.34-14.75	c0.12-0.25,0.56-0.75,1.3-0.75s1.18,0.5,1.33,0.8L42,34.31z" opacity=".07"/><linearGradient id="lz2AgqsBtsIzHTx7TGI7Id" x1="-128.064" x2="43.918" y1="1591.06" y2="1788.309" gradientTransform="translate(0 -1738)" gradientUnits="userSpaceOnUse"><stop offset="0" stop-color="#ffda1c"/><stop offset="1" stop-color="#feb705"/></linearGradient><path fill="url(#lz2AgqsBtsIzHTx7TGI7Id)" d="M47.817,44.435L38.38,29.521c0,0-0.254-0.521-0.88-0.521s-0.88,0.521-0.88,0.521	l-9.437,14.914c0,0-0.183,0.244-0.183,0.573C27,45.556,27.448,46,28,46h19c0.553,0,1-0.444,1-0.992	C48,44.679,47.817,44.435,47.817,44.435z"/><radialGradient id="lz2AgqsBtsIzHTx7TGI7Ie" cx="34.889" cy="1753.965" r="10.021" gradientTransform="matrix(1 0 0 1.0323 0 -1776.726)" gradientUnits="userSpaceOnUse"><stop offset="0" stop-color="#4b4b4b"/><stop offset=".531" stop-color="#393939"/><stop offset="1" stop-color="#252525"/></radialGradient><path fill="url(#lz2AgqsBtsIzHTx7TGI7Ie)" d="M37.506,44c-0.323,0-0.59-0.098-0.8-0.294s-0.315-0.433-0.315-0.712	c0-0.291,0.106-0.529,0.318-0.715C36.921,42.093,37.187,42,37.506,42c0.323,0,0.588,0.094,0.794,0.282	c0.206,0.188,0.309,0.425,0.309,0.712c0,0.291-0.102,0.531-0.306,0.721C38.099,43.905,37.833,44,37.506,44z M38.618,34.372	l-0.241,6.284C38.37,40.848,38.217,41,38.031,41h-1.089c-0.187,0-0.34-0.152-0.347-0.345l-0.228-6.284	C36.36,34.169,36.518,34,36.714,34h1.558C38.469,34,38.626,34.169,38.618,34.372z"/></svg>