<svg xmlns="http://www.w3.org/2000/svg" viewBox="0 0 48 48"><linearGradient id="LnKGwBTR3O_2YuKiYiIq4a" x1="22.765" x2="25.24" y1="13.847" y2="49.852" gradientUnits="userSpaceOnUse"><stop offset="0" stop-color="#c26715"/><stop offset="0" stop-color="#a16837"/><stop offset="1" stop-color="#753710"/></linearGradient><path fill="url(#LnKGwBTR3O_2YuKiYiIq4a)" d="M30,43h-1c-1.657,0-3-1.343-3-3v-1.485l6.581-4.701l-1.162-1.628L26,36.057V14h-4v18.057 l-5.419-3.871l-1.162,1.628L22,34.515V40c0,1.657-1.343,3-3,3h-1c-0.552,0-1,0.448-1,1c0,0.552,0.448,1,1,1h12c0.552,0,1-0.448,1-1 C31,43.448,30.552,43,30,43z"/><linearGradient id="LnKGwBTR3O_2YuKiYiIq4b" x1="22.504" x2="24.797" y1="2.597" y2="22.552" gradientUnits="userSpaceOnUse"><stop offset="0" stop-color="#4caf50"/><stop offset=".533" stop-color="#38a14c"/><stop offset="1" stop-color="#088242"/></linearGradient><path fill="url(#LnKGwBTR3O_2YuKiYiIq4b)" d="M34,14.667c0-0.803-0.568-1.473-1.324-1.631c0.611-0.604,0.991-1.442,0.991-2.369 c0-1.841-1.492-3.333-3.333-3.333c-0.172,0-0.337,0.026-0.502,0.051C29.936,7.166,30,6.925,30,6.667C30,5.746,29.254,5,28.333,5 c-0.595,0-1.113,0.314-1.408,0.783C26.594,4.194,25.187,3,23.5,3c-1.443,0-2.681,0.874-3.216,2.121C20.093,5.045,19.885,5,19.667,5 c-0.72,0-1.328,0.459-1.561,1.099C17.857,6.04,17.6,6,17.333,6C15.492,6,14,7.492,14,9.333c0,1.112,0.55,2.089,1.386,2.695 C14.6,12.162,14,12.842,14,13.667c0,0.714,0.451,1.318,1.082,1.556C14.421,15.831,14,16.697,14,17.667 C14,19.508,15.492,21,17.333,21c0.267,0,0.523-0.04,0.773-0.099C18.339,21.541,18.947,22,19.667,22c0.591,0,1.108-0.31,1.404-0.775 C21.631,22.276,22.725,23,24,23c1.723,0,3.124-1.312,3.299-2.99c0.604,0.61,1.441,0.99,2.368,0.99C31.508,21,33,19.508,33,17.667 c0-0.492-0.113-0.955-0.304-1.375C33.441,16.125,34,15.462,34,14.667z"/><linearGradient id="LnKGwBTR3O_2YuKiYiIq4c" x1="13.809" x2="15.781" y1="23.644" y2="31.683" gradientUnits="userSpaceOnUse"><stop offset="0" stop-color="#4caf50"/><stop offset=".533" stop-color="#38a14c"/><stop offset="1" stop-color="#088242"/></linearGradient><path fill="url(#LnKGwBTR3O_2YuKiYiIq4c)" d="M19,27.5c0-0.693-0.472-1.27-1.11-1.442C17.96,25.885,18,25.698,18,25.5 c0-0.828-0.672-1.5-1.5-1.5c-0.386,0-0.734,0.15-1,0.389C15.234,24.15,14.886,24,14.5,24c-0.693,0-1.27,0.472-1.442,1.11 C12.885,25.04,12.698,25,12.5,25c-0.828,0-1.5,0.672-1.5,1.5c0,0.312,0.096,0.602,0.259,0.843C11.103,27.519,11,27.745,11,28 c0,0.255,0.103,0.481,0.259,0.657C11.096,28.898,11,29.188,11,29.5c0,0.828,0.672,1.5,1.5,1.5c0.198,0,0.385-0.04,0.558-0.11 C13.23,31.528,13.807,32,14.5,32c0.312,0,0.602-0.096,0.843-0.259C15.519,31.897,15.745,32,16,32c0.552,0,1-0.448,1-1 c0-0.031-0.015-0.056-0.017-0.086c0.438-0.15,0.781-0.493,0.931-0.931C17.944,29.985,17.969,30,18,30c0.552,0,1-0.448,1-1 c0-0.255-0.103-0.481-0.259-0.657C18.904,28.102,19,27.812,19,27.5z"/><linearGradient id="LnKGwBTR3O_2YuKiYiIq4d" x1="32.564" x2="33.373" y1="27.355" y2="35.546" gradientUnits="userSpaceOnUse"><stop offset="0" stop-color="#4caf50"/><stop offset=".533" stop-color="#38a14c"/><stop offset="1" stop-color="#088242"/></linearGradient><path fill="url(#LnKGwBTR3O_2YuKiYiIq4d)" d="M36.786,31.728c-0.015-0.026-0.036-0.046-0.052-0.07c0.285-0.318,0.355-0.787,0.124-1.172 c-0.205-0.342-0.583-0.509-0.954-0.474c0.149-0.41,0.126-0.88-0.117-1.283c-0.426-0.71-1.348-0.941-2.058-0.514 c-0.085,0.051-0.162,0.11-0.233,0.174c-0.477-0.427-1.19-0.52-1.767-0.174c-0.026,0.015-0.046,0.036-0.07,0.053 c-0.318-0.285-0.787-0.355-1.172-0.124c-0.337,0.202-0.502,0.572-0.473,0.939c-0.097,0.034-0.193,0.077-0.285,0.132 c-0.71,0.426-0.941,1.348-0.514,2.058c0.051,0.085,0.11,0.162,0.174,0.233c-0.427,0.477-0.52,1.19-0.174,1.768 c0.378,0.63,1.144,0.88,1.809,0.632c-0.02,0.206,0.005,0.419,0.12,0.611c0.202,0.337,0.572,0.502,0.939,0.473 c0.034,0.097,0.077,0.193,0.132,0.284c0.426,0.71,1.348,0.941,2.058,0.515c0.318-0.191,0.533-0.482,0.643-0.808 c0.203,0.018,0.412-0.008,0.6-0.121c0.337-0.202,0.503-0.573,0.473-0.94c0.097-0.034,0.193-0.077,0.284-0.132 C36.982,33.36,37.212,32.438,36.786,31.728z"/></svg>