<svg xmlns="http://www.w3.org/2000/svg" id="Layer_1" x="0" y="0" version="1.1" viewBox="0 0 48 48" xml:space="preserve"><path fill="#35c1f1" d="M5,7h38c1.1,0,2,0.9,2,2v26c0,1.1-0.9,2-2,2H5c-1.1,0-2-0.9-2-2V9C3,7.9,3.9,7,5,7z"/><path fill="#50e6ff" d="M3,11h42c1.1,0,2,0.9,2,2v26c0,1.1-0.9,2-2,2H3c-1.1,0-2-0.9-2-2V13C1,11.9,1.9,11,3,11z"/><path fill="#057093" d="M4.5,30h19c0.3,0,0.5,0.2,0.5,0.5v1c0,0.3-0.2,0.5-0.5,0.5h-19C4.2,32,4,31.8,4,31.5v-1C4,30.2,4.2,30,4.5,30z M23.5,34h-19C4.2,34,4,34.2,4,34.5v1C4,35.8,4.2,36,4.5,36h19c0.3,0,0.5-0.2,0.5-0.5v-1C24,34.2,23.8,34,23.5,34z"/><path fill="#fff" d="M5,15h8c0.6,0,1,0.4,1,1v6c0,0.6-0.4,1-1,1H5c-0.6,0-1-0.4-1-1v-6C4,15.4,4.4,15,5,15z"/><path fill="#8d21e5" d="M5.5,16h7c0.3,0,0.5,0.2,0.5,0.5v5c0,0.3-0.2,0.5-0.5,0.5h-7C5.2,22,5,21.8,5,21.5v-5C5,16.2,5.2,16,5.5,16z"/></svg>