<svg xmlns="http://www.w3.org/2000/svg" viewBox="0 0 48 48"><linearGradient id="tJtG5Y5tgfMuMRX6SzGQpa" x1="15.134" x2="4.609" y1="1186.101" y2="1157.183" gradientTransform="translate(0 -1150)" gradientUnits="userSpaceOnUse"><stop offset="0" stop-color="#831bb3"/><stop offset="1" stop-color="#a235d4"/></linearGradient><path fill="url(#tJtG5Y5tgfMuMRX6SzGQpa)" d="M23.2,20.3L17.9,5.7C17.8,5.3,17.4,5,17,5h-6.2c-0.5,0-0.8,0.3-1,0.7L9.5,6.6v2.9l-3.2,8.7H5.2L0,32 c-0.2,0.5,0.2,1,0.7,1h5.2c0.4,0,0.8-0.3,1-0.7L8.6,27h5.5v-1H20l0.2,1.8l1.4,4.2h4.8l-4.3-11.7H23.2z M9,22l2-6l2.7-5.3l2.8,5.3 l2.5,7L9,22z"/><linearGradient id="tJtG5Y5tgfMuMRX6SzGQpb" x1="42.649" x2="34.758" y1="1184.575" y2="1162.896" gradientTransform="translate(0 -1150)" gradientUnits="userSpaceOnUse"><stop offset="0" stop-color="#831bb3"/><stop offset="1" stop-color="#a235d4"/></linearGradient><path fill="url(#tJtG5Y5tgfMuMRX6SzGQpb)" d="M39.1,12.5c-1.2,0-2.6,0.2-4.1,0.5c-1.2,0.3-2.2,0.6-3,0.9c-0.4,0.2-0.6,0.5-0.6,0.9c0,0.8,0,2.2,0,3.1 c0,0.4,0.4,0.6,0.8,0.4c2-1.1,4-1.7,6.2-1.7c2.4,0,3.6,1.1,3.6,3.3l-5.5,0.7c-4.7,0.6-7,2.8-7,6.7c0,1.8,0.6,3.3,1.7,4.4 c1.1,1.1,2.7,1.7,4.7,1.7c2.7,0,4.7-1.1,6.1-3.4l0,0v2c0,0.6,0.4,1,1,1h4c0.6,0,1-0.4,1-1V21.1C47.8,15.4,44.9,12.5,39.1,12.5z M40.8,27.9c-0.7,0.8-1.7,1.2-2.9,1.2c-0.8,0-1.5-0.2-2-0.7c-0.5-0.4-0.7-1-0.7-1.7c0-1.5,1-2.5,3.1-2.7l3.7-0.5v1.3 C41.9,26.1,41.5,27.1,40.8,27.9z"/><linearGradient id="tJtG5Y5tgfMuMRX6SzGQpc" x1=".805" x2="35.88" y1="1155.688" y2="1191.035" gradientTransform="translate(0 -1150)" gradientUnits="userSpaceOnUse"><stop offset=".223" stop-color="#fbf2ff"/><stop offset=".295" stop-color="#f9eefe"/><stop offset=".359" stop-color="#f3e4f9"/><stop offset=".421" stop-color="#e8d1f2"/><stop offset=".48" stop-color="#dab8e8"/><stop offset=".538" stop-color="#c797db"/><stop offset=".596" stop-color="#b06ecb"/><stop offset=".651" stop-color="#953fb9"/><stop offset=".682" stop-color="#8421ad"/></linearGradient><path fill="url(#tJtG5Y5tgfMuMRX6SzGQpc)" d="M27.4,32l-4.2-11.7L9.5,6.6L5.2,18.1l8.9,8.9h5l0.1,1l1.4,4.3c0.1,0.4,0.5,0.7,1,0.7h5.2 C27.2,33,27.6,32.5,27.4,32z M10,22l3.7-11.3L17.3,22H10z"/><linearGradient id="tJtG5Y5tgfMuMRX6SzGQpd" x1="48.398" x2="17.263" y1="1187.102" y2="1192.592" gradientTransform="translate(0 -1150)" gradientUnits="userSpaceOnUse"><stop offset="0" stop-color="#889097"/><stop offset="1" stop-color="#4c5963"/></linearGradient><path fill="url(#tJtG5Y5tgfMuMRX6SzGQpd)" d="M32.5,45c0.3,0,0.5-0.1,0.7-0.3l6.5-6.5c0.4-0.4,0.4-1,0-1.4L37,34l-8,8l2.8,2.8C32,44.9,32.2,45,32.5,45z"/><linearGradient id="tJtG5Y5tgfMuMRX6SzGQpe" x1="43.074" x2="1.909" y1="1183.577" y2="1190.836" gradientTransform="translate(0 -1150)" gradientUnits="userSpaceOnUse"><stop offset="0" stop-color="#889097"/><stop offset=".679" stop-color="#5f6b74"/><stop offset="1" stop-color="#4c5963"/></linearGradient><polygon fill="url(#tJtG5Y5tgfMuMRX6SzGQpe)" points="31.5,28.5 23.5,36.5 30,43 38,35"/><linearGradient id="tJtG5Y5tgfMuMRX6SzGQpf" x1="17.978" x2="37.64" y1="1172.816" y2="1193.084" gradientTransform="translate(0 -1150)" gradientUnits="userSpaceOnUse"><stop offset="0" stop-color="#c2c8cc"/><stop offset=".034" stop-color="#c4c9cd"/><stop offset="1" stop-color="#f9f9f9"/></linearGradient><path fill="url(#tJtG5Y5tgfMuMRX6SzGQpf)" d="M25.2,22.3c-0.4-0.4-1-0.4-1.4,0l-6.5,6.5c-0.4,0.4-0.4,1,0,1.4l7.2,7.3l7.9-7.9L25.2,22.3z"/></svg>