<svg xmlns="http://www.w3.org/2000/svg" viewBox="0 0 48 48"><path fill="#61e3a7" d="M43,33H5c-0.552,0-1-0.448-1-1V14c0-0.552,0.448-1,1-1h38c0.552,0,1,0.448,1,1v18	C44,32.552,43.552,33,43,33z"/><path fill="#33c481" d="M9,13v20h30V13H9z M20,30c-3.866,0-7-3.134-7-7s3.134-7,7-7s7,3.134,7,7S23.866,30,20,30z M36.5,30	c-0.828,0-1.5-0.672-1.5-1.5s0.672-1.5,1.5-1.5s1.5,0.672,1.5,1.5S37.328,30,36.5,30z M30.5,30c-0.828,0-1.5-0.672-1.5-1.5	s0.672-1.5,1.5-1.5s1.5,0.672,1.5,1.5S31.328,30,30.5,30z"/><path d="M39,21c-3.024,0-5.66,1.804-5.9,7.092C29.704,29.748,28.126,33,28.126,33h11.4l1.079-2.175 c0.199-0.4,0.304-0.847,0.304-1.294c0,0,0-6.531,0-6.622C40.909,21.785,39.902,21,39,21z" opacity=".018"/><path d="M39,21c-3.148,0-5.594,2.054-5.81,7.154C29.874,29.726,28.233,33,28.233,33h11.191l1.1-2.215 c0.193-0.388,0.294-0.821,0.294-1.254c0,0,0-6.531,0-6.713C40.818,21.749,39.858,21,39,21z" opacity=".036"/><path d="M39,21c-3.272,0-5.528,2.304-5.72,7.216C30.044,29.704,28.341,33,28.341,33h10.982l1.12-2.256 c0.187-0.375,0.285-0.794,0.285-1.213c0,0,0-6.531,0-6.804C40.727,21.713,39.813,21,39,21z" opacity=".054"/><path d="M39,21c-3.396,0-5.462,2.555-5.63,7.279C30.215,29.681,28.449,33,28.449,33h10.772l1.14-2.296 c0.18-0.363,0.275-0.767,0.275-1.173c0,0,0-6.531,0-6.894C40.636,21.677,39.769,21,39,21z" opacity=".073"/><path d="M39,21c-3.52,0-5.396,2.805-5.54,7.341C30.385,29.659,28.556,33,28.556,33H39.12l1.16-2.337 c0.174-0.351,0.266-0.741,0.266-1.132c0,0,0-6.531,0-6.985C40.545,21.641,39.725,21,39,21z" opacity=".091"/><path d="M39,21c-3.644,0-5.33,3.055-5.45,7.403C30.555,29.637,28.664,33,28.664,33h10.354l1.18-2.377 c0.168-0.338,0.256-0.714,0.256-1.092c0,0,0-6.531,0-7.076C40.455,21.605,39.68,21,39,21z" opacity=".109"/><path d="M39,21c-3.767,0-5.264,3.305-5.36,7.465C30.726,29.615,28.772,33,28.772,33h10.145l1.2-2.418 c0.162-0.326,0.247-0.687,0.247-1.051c0,0,0-6.531,0-7.167C40.364,21.569,39.636,21,39,21z" opacity=".127"/><path d="M39,21c-3.891,0-5.198,3.556-5.27,7.528C30.896,29.592,28.879,33,28.879,33h9.936l1.22-2.458 c0.156-0.314,0.237-0.661,0.237-1.011c0,0,0-6.531,0-7.258C40.273,21.533,39.592,21,39,21z" opacity=".145"/><path d="M39,21c-4.015,0-5.132,3.806-5.18,7.59C31.066,29.57,28.987,33,28.987,33h9.726l1.241-2.499 c0.15-0.301,0.228-0.634,0.228-0.97c0,0,0-6.531,0-7.349C40.182,21.497,39.547,21,39,21z" opacity=".164"/><path d="M39,21c-4.139,0-5.066,4.056-5.09,7.652C31.236,29.548,29.095,33,29.095,33h9.517l1.261-2.539 c0.143-0.289,0.218-0.607,0.218-0.93c0,0,0-6.531,0-7.44C40.091,21.461,39.503,21,39,21z" opacity=".182"/><path d="M39,21c-4.263,0-5,4.306-5,7.714C31.407,29.525,29.203,33,29.203,33h9.308l1.281-2.58 C39.929,30.144,40,29.839,40,29.531c0,0,0-6.531,0-7.531C40,21.425,39.459,21,39,21z" opacity=".2"/><linearGradient id="J_nfg7RlFjsFHgeIp8_cfa" x1="21.943" x2="32.073" y1="20.139" y2="44.383" gradientUnits="userSpaceOnUse"><stop offset="0" stop-color="#ffcf54"/><stop offset=".261" stop-color="#fdcb4d"/><stop offset=".639" stop-color="#f7c13a"/><stop offset="1" stop-color="#f0b421"/></linearGradient><path fill="url(#J_nfg7RlFjsFHgeIp8_cfa)" d="M39,21c-4.263,0-5,4.306-5,7.714C31.407,29.525,29.203,33,29.203,33H11	c0.003,4.061,1.841,6.249,2.421,8c0.838,2.531,2.444,3,3.511,3S29,44,29,44c2.82,0,4.5-1.744,5.821-4.569L38.51,33l1.281-2.58	C39.929,30.144,40,29.839,40,29.531c0,0,0-6.531,0-7.531C40,21.425,39.459,21,39,21z"/><path fill="#ffde87" d="M40,22.027h-0.366c-0.902,0-1.634,0.732-1.634,1.634v1.796c0,0.376,0.305,0.681,0.681,0.681H40	V22.027z"/><linearGradient id="J_nfg7RlFjsFHgeIp8_cfb" x1="20.497" x2="19.839" y1="36.264" y2="31.578" gradientUnits="userSpaceOnUse"><stop offset=".325" stop-color="#8f6b13" stop-opacity="0"/><stop offset="1" stop-color="#8f6b13"/></linearGradient><path fill="url(#J_nfg7RlFjsFHgeIp8_cfb)" d="M16.932,44C18,44,22,44,22,44l7.203-11H11c0.003,4.061,1.841,6.249,2.421,8	C14.259,43.531,15.865,44,16.932,44z"/><linearGradient id="J_nfg7RlFjsFHgeIp8_cfc" x1="27.606" x2="30.622" y1="8.565" y2="13.027" gradientUnits="userSpaceOnUse"><stop offset="0" stop-color="#ffcf54"/><stop offset=".261" stop-color="#fdcb4d"/><stop offset=".639" stop-color="#f7c13a"/><stop offset="1" stop-color="#f0b421"/></linearGradient><path fill="url(#J_nfg7RlFjsFHgeIp8_cfc)" d="M32,10.5C32,9.119,30.881,8,29.5,8S27,9.119,27,10.5c0,0.171,0,2.5,0,2.5h5	C32,13,32,10.671,32,10.5z"/><linearGradient id="J_nfg7RlFjsFHgeIp8_cfd" x1="17.48" x2="20.949" y1="6.624" y2="13.176" gradientUnits="userSpaceOnUse"><stop offset="0" stop-color="#ffcf54"/><stop offset=".261" stop-color="#fdcb4d"/><stop offset=".639" stop-color="#f7c13a"/><stop offset="1" stop-color="#f0b421"/></linearGradient><path fill="url(#J_nfg7RlFjsFHgeIp8_cfd)" d="M22,8.5C22,7.119,20.881,6,19.5,6S17,7.119,17,8.5c0,0.171,0,4.5,0,4.5h5	C22,13,22,8.671,22,8.5z"/><linearGradient id="J_nfg7RlFjsFHgeIp8_cfe" x1="13.142" x2="14.909" y1="9.85" y2="13.222" gradientUnits="userSpaceOnUse"><stop offset="0" stop-color="#ffcf54"/><stop offset=".261" stop-color="#fdcb4d"/><stop offset=".639" stop-color="#f7c13a"/><stop offset="1" stop-color="#f0b421"/></linearGradient><path fill="url(#J_nfg7RlFjsFHgeIp8_cfe)" d="M17,12.5c0-1.381-1.119-2.5-2.5-2.5S12,11.119,12,12.5c0,0.171,0,0.5,0,0.5h5	C17,13,17,12.671,17,12.5z"/><linearGradient id="J_nfg7RlFjsFHgeIp8_cff" x1="22.062" x2="26.27" y1="4.544" y2="13.023" gradientUnits="userSpaceOnUse"><stop offset="0" stop-color="#ffcf54"/><stop offset=".261" stop-color="#fdcb4d"/><stop offset=".639" stop-color="#f7c13a"/><stop offset="1" stop-color="#f0b421"/></linearGradient><path fill="url(#J_nfg7RlFjsFHgeIp8_cff)" d="M27,6.5C27,5.119,25.881,4,24.5,4S22,5.119,22,6.5c0,0.171,0,6.5,0,6.5h5	C27,13,27,6.671,27,6.5z"/></svg>