<svg xmlns="http://www.w3.org/2000/svg" xmlns:xlink="http://www.w3.org/1999/xlink" data-name="Слой 1" viewBox="0 0 48 48"><defs><linearGradient id="xsJh1QDu_QlXgkPB1IIMha" x1="20.852" x2="53.558" y1="41.428" y2="8.722" data-name="Безымянный градиент 17" gradientUnits="userSpaceOnUse"><stop offset=".002" stop-color="#454545"/><stop offset=".013" stop-color="#464646"/><stop offset=".562" stop-color="#626262"/><stop offset="1" stop-color="#6d6d6d"/></linearGradient><linearGradient id="xsJh1QDu_QlXgkPB1IIMhb" x1="23.654" x2="56.36" y1="44.23" y2="11.524" xlink:href="#xsJh1QDu_QlXgkPB1IIMha"/><linearGradient id="xsJh1QDu_QlXgkPB1IIMhc" x1="22.198" x2="54.904" y1="42.774" y2="10.068" xlink:href="#xsJh1QDu_QlXgkPB1IIMha"/><linearGradient id="xsJh1QDu_QlXgkPB1IIMhd" x1="22.676" x2="55.382" y1="43.252" y2="10.546" gradientTransform="rotate(45 34.464 31.464)" xlink:href="#xsJh1QDu_QlXgkPB1IIMha"/><linearGradient id="xsJh1QDu_QlXgkPB1IIMhe" x1="12.629" x2="32.305" y1="15.284" y2="34.96" data-name="Новый образец градиентной зал 3" gradientUnits="userSpaceOnUse"><stop offset="0" stop-color="#32bdef"/><stop offset="1" stop-color="#1ea2e4"/></linearGradient></defs><path fill="url(#xsJh1QDu_QlXgkPB1IIMha)" d="M35,30a.99977.99977,0,0,1-.31641-1.94824C37,27.2793,37,23.84473,37,22a1,1,0,0,1,2,0c0,2.18164,0,6.7207-3.68359,7.94824A.996.996,0,0,1,35,30Z"/><path fill="url(#xsJh1QDu_QlXgkPB1IIMhb)" d="M37,32a1,1,0,0,1,0-2c2.355,0,4-2.46777,4-6a1,1,0,0,1,2,0C43,28.71,40.53271,32,37,32Z"/><path fill="url(#xsJh1QDu_QlXgkPB1IIMhc)" d="M21.98584,44.98633a2,2,0,0,1-1.41406-3.41406L31.55762,30.58594a1.99978,1.99978,0,0,1,2.82812,2.82812L23.3999,44.40039A1.99265,1.99265,0,0,1,21.98584,44.98633Z"/><ellipse cx="34.464" cy="31.464" fill="url(#xsJh1QDu_QlXgkPB1IIMhd)" rx="3" ry="4" transform="rotate(-45 34.464 31.464)"/><path fill="url(#xsJh1QDu_QlXgkPB1IIMhe)" d="M31.20405,31.58634,28.49824,34.256l-5.757,5.68008a10.49527,10.49527,0,0,1-5.53537,2.88018c-.00818.00807-.01626.0001-.02449.00822a10.29469,10.29469,0,0,1-6.75394-1.03229c-.02435-.00778-.04061-.00768-.05678-.02363a9.9992,9.9992,0,0,1-2.29847-1.6997L5.64981,37.67881a5.63478,5.63478,0,0,1,.07476-8.04063l2.46728-2.43431a9.30712,9.30712,0,0,1,13.03915-.118l-2.42241-2.39006c-2.95532-2.91585-2.18287-7.11972-.5142-11.29951a37.46059,37.46059,0,0,1,6.4207-10.46181,3.53137,3.53137,0,0,1,2.57555-.93183A3.86181,3.86181,0,0,1,29.89545,3.177a8.92784,8.92784,0,0,1,1.10374,1.36485,13.61694,13.61694,0,0,1,1.01843,1.76763,27.81058,27.81058,0,0,1,2.07923,5.995c.13342.55351.25032,1.1233.351,1.6932a30.31638,30.31638,0,0,1,.31985,9.42A13.85418,13.85418,0,0,1,31.20405,31.58634Z"/></svg>