<svg xmlns="http://www.w3.org/2000/svg" viewBox="0 0 48 48"><linearGradient id="LaWXTdRjgwQCoLeM1hRAJa" x1="24" x2="24" y1="15.873" y2="41.985" gradientUnits="userSpaceOnUse"><stop offset="0" stop-color="#2aa4f4"/><stop offset="1" stop-color="#007ad9"/></linearGradient><path fill="url(#LaWXTdRjgwQCoLeM1hRAJa)" d="M42,17c-1.657,0-3-1-3-1s-1.343,1-3,1s-3-1-3-1s-1.343,1-3,1s-3-1-3-1s-1.343,1-3,1s-3-1-3-1	s-1.343,1-3,1s-3-1-3-1s-1.343,1-3,1s-3-1-3-1s-1.343,1-3,1s-3-1-3-1v22c0,2.209,1.791,4,4,4h34c2.209,0,4-1.791,4-4V16	C45,16,43.657,17,42,17z"/><linearGradient id="LaWXTdRjgwQCoLeM1hRAJb" x1="24" x2="24" y1="15.873" y2="41.985" gradientUnits="userSpaceOnUse"><stop offset="0" stop-color="#0078d3"/><stop offset="1" stop-color="#0858a1"/></linearGradient><path fill="url(#LaWXTdRjgwQCoLeM1hRAJb)" d="M42,17c-1.657,0-3-1-3-1s-1.343,1-3,1s-3-1-3-1s-1.343,1-3,1s-3-1-3-1s-1.343,1-3,1s-3-1-3-1	s-1.343,1-3,1s-3-1-3-1s-1.343,1-3,1s-3-1-3-1s-1.343,1-3,1s-3-1-3-1v22c0,2.209,1.791,4,4,4h34c2.209,0,4-1.791,4-4V16	C45,16,43.657,17,42,17z"/><path d="M36.026,22.137c-0.441-0.702-1.198-1.121-2.026-1.121s-1.585,0.419-2.025,1.119	C29.337,26.322,28,29.304,28,31c0,3.309,2.691,6,6,6s6-2.691,6-6C40,29.304,38.663,26.322,36.026,22.137z" opacity=".05"/><path d="M35.18,22.668c-0.514-0.817-1.847-0.816-2.358-0.001C31.078,25.435,29,29.126,29,31	c0,2.757,2.243,5,5,5s5-2.243,5-5C39,29.126,36.922,25.435,35.18,22.668z" opacity=".07"/><path d="M18,23c3.309,0,6-2.691,6-6c-1.657,0-3-1-3-1s-1.343,1-3,1s-3-1-3-1s-1.343,1-3,1	C12,20.309,14.691,23,18,23z" opacity=".05"/><path d="M18,22c2.757,0,5-2.243,5-5c0-0.038-0.013-0.086-0.015-0.125C21.83,16.609,21,16,21,16s-1.343,1-3,1	s-3-1-3-1s-0.83,0.609-1.985,0.875C13.013,16.914,13,16.962,13,17C13,19.757,15.243,22,18,22z" opacity=".07"/><linearGradient id="LaWXTdRjgwQCoLeM1hRAJc" x1="32.85" x2="34.59" y1="23.137" y2="35.137" gradientUnits="userSpaceOnUse"><stop offset="0" stop-color="#6df"/><stop offset=".214" stop-color="#5ed6fc"/><stop offset=".555" stop-color="#47c2f3"/><stop offset=".978" stop-color="#21a2e6"/><stop offset="1" stop-color="#1fa0e5"/></linearGradient><path fill="url(#LaWXTdRjgwQCoLeM1hRAJc)" d="M38,31c0,2.209-1.791,4-4,4s-4-1.791-4-4c0-1.817,2.707-6.275,3.667-7.8	c0.156-0.247,0.51-0.247,0.666,0C35.293,24.725,38,29.183,38,31z"/><linearGradient id="LaWXTdRjgwQCoLeM1hRAJd" x1="16.85" x2="18.59" y1="9.137" y2="21.137" gradientUnits="userSpaceOnUse"><stop offset="0" stop-color="#6df"/><stop offset=".214" stop-color="#5ed6fc"/><stop offset=".555" stop-color="#47c2f3"/><stop offset=".978" stop-color="#21a2e6"/><stop offset="1" stop-color="#1fa0e5"/></linearGradient><path fill="url(#LaWXTdRjgwQCoLeM1hRAJd)" d="M22,17c0,2.209-1.791,4-4,4s-4-1.791-4-4c0-1.817,2.707-6.275,3.667-7.8	c0.156-0.247,0.51-0.247,0.666,0C19.293,10.725,22,15.183,22,17z"/></svg>