<svg xmlns="http://www.w3.org/2000/svg" viewBox="0 0 48 48"><linearGradient id="mcuHwvIO6ZIIFz_KA0cnaa" x1="32.627" x2="40.068" y1="18.627" y2="26.067" gradientUnits="userSpaceOnUse"><stop offset="0" stop-color="#ffcf54"/><stop offset=".261" stop-color="#fdcb4d"/><stop offset=".639" stop-color="#f7c13a"/><stop offset="1" stop-color="#f0b421"/></linearGradient><circle cx="36" cy="22" r="5" fill="url(#mcuHwvIO6ZIIFz_KA0cnaa)"/><linearGradient id="mcuHwvIO6ZIIFz_KA0cnab" x1="8.627" x2="16.067" y1="18.627" y2="26.067" gradientUnits="userSpaceOnUse"><stop offset="0" stop-color="#ffcf54"/><stop offset=".261" stop-color="#fdcb4d"/><stop offset=".639" stop-color="#f7c13a"/><stop offset="1" stop-color="#f0b421"/></linearGradient><circle cx="12" cy="22" r="5" fill="url(#mcuHwvIO6ZIIFz_KA0cnab)"/><linearGradient id="mcuHwvIO6ZIIFz_KA0cnac" x1="7.706" x2="14.459" y1="30.132" y2="43.506" gradientUnits="userSpaceOnUse"><stop offset="0" stop-color="#32bdef"/><stop offset="1" stop-color="#1ea2e4"/></linearGradient><path fill="url(#mcuHwvIO6ZIIFz_KA0cnac)" d="M12,29c-4.418,0-8,3.582-8,8v4.923C4,42.518,4.482,43,5.077,43h13.846	C19.518,43,20,42.518,20,41.923V37C20,32.582,16.418,29,12,29z"/><linearGradient id="mcuHwvIO6ZIIFz_KA0cnad" x1="31.706" x2="38.459" y1="30.132" y2="43.506" gradientUnits="userSpaceOnUse"><stop offset="0" stop-color="#32bdef"/><stop offset="1" stop-color="#1ea2e4"/></linearGradient><path fill="url(#mcuHwvIO6ZIIFz_KA0cnad)" d="M36,29c-4.418,0-8,3.582-8,8v4.923C28,42.518,28.482,43,29.077,43h13.846	C43.518,43,44,42.518,44,41.923V37C44,32.582,40.418,29,36,29z"/><linearGradient id="mcuHwvIO6ZIIFz_KA0cnae" x1="20.608" x2="27.584" y1="11.608" y2="18.584" gradientUnits="userSpaceOnUse"><stop offset="0" stop-color="#ffcf54"/><stop offset=".261" stop-color="#fdcb4d"/><stop offset=".639" stop-color="#f7c13a"/><stop offset="1" stop-color="#f0b421"/></linearGradient><circle cx="24" cy="15" r="5" fill="url(#mcuHwvIO6ZIIFz_KA0cnae)"/><linearGradient id="mcuHwvIO6ZIIFz_KA0cnaf" x1="32.608" x2="39.584" y1="6.608" y2="13.584" gradientUnits="userSpaceOnUse"><stop offset="0" stop-color="#ffcf54"/><stop offset=".261" stop-color="#fdcb4d"/><stop offset=".639" stop-color="#f7c13a"/><stop offset="1" stop-color="#f0b421"/></linearGradient><circle cx="36" cy="10" r="5" fill="url(#mcuHwvIO6ZIIFz_KA0cnaf)"/><linearGradient id="mcuHwvIO6ZIIFz_KA0cnag" x1="8.608" x2="15.584" y1="6.608" y2="13.584" gradientUnits="userSpaceOnUse"><stop offset="0" stop-color="#ffcf54"/><stop offset=".261" stop-color="#fdcb4d"/><stop offset=".639" stop-color="#f7c13a"/><stop offset="1" stop-color="#f0b421"/></linearGradient><circle cx="12" cy="10" r="5" fill="url(#mcuHwvIO6ZIIFz_KA0cnag)"/></svg>