<svg xmlns="http://www.w3.org/2000/svg" viewBox="0 0 48 48"><linearGradient id="Sk_W6tWQfxPywWh_j7aT7a" x1="32.139" x2="38.608" y1="11.207" y2="39.082" gradientUnits="userSpaceOnUse"><stop offset="0" stop-color="#0d61a9"/><stop offset="1" stop-color="#16528c"/></linearGradient><path fill="url(#Sk_W6tWQfxPywWh_j7aT7a)" d="M37,17c-4.418,0-8,3.582-8,8v15c0,1.105,0.895,2,2,2h12c1.105,0,2-0.895,2-2V25	C45,20.582,41.418,17,37,17z"/><linearGradient id="Sk_W6tWQfxPywWh_j7aT7b" x1="20.241" x2="26.658" y1="14.457" y2="42.105" gradientUnits="userSpaceOnUse"><stop offset="0" stop-color="#0d61a9"/><stop offset="1" stop-color="#16528c"/></linearGradient><path fill="url(#Sk_W6tWQfxPywWh_j7aT7b)" d="M24,14c-4.418,0-8,3.582-8,8v18c0,1.105,0.895,2,2,2h12c1.105,0,2-0.895,2-2V22	C32,17.582,28.418,14,24,14z"/><linearGradient id="Sk_W6tWQfxPywWh_j7aT7c" x1="7.575" x2="14.044" y1="17.396" y2="45.271" gradientUnits="userSpaceOnUse"><stop offset="0" stop-color="#0d61a9"/><stop offset="1" stop-color="#16528c"/></linearGradient><path fill="url(#Sk_W6tWQfxPywWh_j7aT7c)" d="M11,17c-4.418,0-8,3.582-8,8v15c0,1.105,0.895,2,2,2h12c1.105,0,2-0.895,2-2V25	C19,20.582,15.418,17,11,17z"/><linearGradient id="Sk_W6tWQfxPywWh_j7aT7d" x1="34.286" x2="39.867" y1="8.286" y2="13.867" gradientUnits="userSpaceOnUse"><stop offset="0" stop-color="#0d61a9"/><stop offset="1" stop-color="#16528c"/></linearGradient><circle cx="37" cy="11" r="4" fill="url(#Sk_W6tWQfxPywWh_j7aT7d)"/><linearGradient id="Sk_W6tWQfxPywWh_j7aT7e" x1="8.286" x2="13.867" y1="8.286" y2="13.867" gradientUnits="userSpaceOnUse"><stop offset="0" stop-color="#0d61a9"/><stop offset="1" stop-color="#16528c"/></linearGradient><circle cx="11" cy="11" r="4" fill="url(#Sk_W6tWQfxPywWh_j7aT7e)"/><linearGradient id="Sk_W6tWQfxPywWh_j7aT7f" x1="21.286" x2="26.867" y1="5.286" y2="10.867" gradientUnits="userSpaceOnUse"><stop offset="0" stop-color="#0d61a9"/><stop offset="1" stop-color="#16528c"/></linearGradient><circle cx="24" cy="8" r="4" fill="url(#Sk_W6tWQfxPywWh_j7aT7f)"/><linearGradient id="Sk_W6tWQfxPywWh_j7aT7g" x1="21.286" x2="26.867" y1="21.286" y2="26.867" gradientUnits="userSpaceOnUse"><stop offset="0" stop-color="#32bdef"/><stop offset="1" stop-color="#1ea2e4"/></linearGradient><circle cx="24" cy="24" r="4" fill="url(#Sk_W6tWQfxPywWh_j7aT7g)"/><linearGradient id="Sk_W6tWQfxPywWh_j7aT7h" x1="20.614" x2="25.451" y1="30.601" y2="42.319" gradientUnits="userSpaceOnUse"><stop offset="0" stop-color="#32bdef"/><stop offset="1" stop-color="#1ea2e4"/></linearGradient><path fill="url(#Sk_W6tWQfxPywWh_j7aT7h)" d="M23.467,30.017C19.215,30.293,16,34.013,16,38.274V41c0,0.552,0.448,1,1,1h14	c0.552,0,1-0.448,1-1v-3C32,33.405,28.127,29.716,23.467,30.017z"/></svg>