<svg xmlns="http://www.w3.org/2000/svg" viewBox="0 0 48 48"><linearGradient id="oiUmmQXExHwEIUkIknBuFa" x1="4.768" x2="11.47" y1="3.83" y2="10.404" gradientUnits="userSpaceOnUse"><stop offset="0" stop-color="#32bdef"/><stop offset="1" stop-color="#1ea2e4"/></linearGradient><circle cx="8" cy="7" r="4" fill="url(#oiUmmQXExHwEIUkIknBuFa)"/><linearGradient id="oiUmmQXExHwEIUkIknBuFb" x1="38.722" x2="42.551" y1="22.367" y2="27.26" gradientUnits="userSpaceOnUse"><stop offset="0" stop-color="#32bdef"/><stop offset="1" stop-color="#1ea2e4"/></linearGradient><circle cx="40" cy="24" r="4" fill="url(#oiUmmQXExHwEIUkIknBuFb)"/><linearGradient id="oiUmmQXExHwEIUkIknBuFc" x1="13.388" x2="6.289" y1="16.27" y2="44.022" gradientUnits="userSpaceOnUse"><stop offset="0" stop-color="#5c65d6"/><stop offset=".999" stop-color="#464eb0"/></linearGradient><path fill="url(#oiUmmQXExHwEIUkIknBuFc)" d="M8.5,35.444h-1c-0.276,0-0.5,0.224-0.5,0.5v2.777c0,0.276,0.224,0.5,0.5,0.5h1 c0.276,0,0.5-0.224,0.5-0.5v-2.777C9,35.668,8.776,35.444,8.5,35.444z"/><linearGradient id="oiUmmQXExHwEIUkIknBuFd" x1="9.949" x2="2.85" y1="14.603" y2="42.355" gradientUnits="userSpaceOnUse"><stop offset="0" stop-color="#5c65d6"/><stop offset=".999" stop-color="#464eb0"/></linearGradient><path fill="url(#oiUmmQXExHwEIUkIknBuFd)" d="M8.5,20.333h-1c-0.276,0-0.5,0.224-0.5,0.5v2.777c0,0.276,0.224,0.5,0.5,0.5h1 c0.276,0,0.5-0.224,0.5-0.5v-2.777C9,20.557,8.776,20.333,8.5,20.333z"/><linearGradient id="oiUmmQXExHwEIUkIknBuFe" x1="11.669" x2="4.569" y1="15.437" y2="43.188" gradientUnits="userSpaceOnUse"><stop offset="0" stop-color="#5c65d6"/><stop offset=".999" stop-color="#464eb0"/></linearGradient><path fill="url(#oiUmmQXExHwEIUkIknBuFe)" d="M8.5,27.889h-1c-0.276,0-0.5,0.224-0.5,0.5v2.777c0,0.276,0.224,0.5,0.5,0.5h1 c0.276,0,0.5-0.224,0.5-0.5v-2.777C9,28.113,8.776,27.889,8.5,27.889z"/><linearGradient id="oiUmmQXExHwEIUkIknBuFf" x1="8.229" x2="1.13" y1="13.77" y2="41.522" gradientUnits="userSpaceOnUse"><stop offset="0" stop-color="#5c65d6"/><stop offset=".999" stop-color="#464eb0"/></linearGradient><path fill="url(#oiUmmQXExHwEIUkIknBuFf)" d="M8.5,12.777h-1c-0.276,0-0.5,0.224-0.5,0.5v2.777c0,0.276,0.224,0.5,0.5,0.5h1 c0.276,0,0.5-0.224,0.5-0.5v-2.777C9,13.001,8.776,12.777,8.5,12.777z"/><linearGradient id="oiUmmQXExHwEIUkIknBuFg" x1="14.827" x2="8.348" y1="19.378" y2="44.706" gradientUnits="userSpaceOnUse"><stop offset="0" stop-color="#5c65d6"/><stop offset=".999" stop-color="#464eb0"/></linearGradient><path fill="url(#oiUmmQXExHwEIUkIknBuFg)" d="M7,43.516v2.41c0,0.398,0.442,0.636,0.774,0.418l2.028-1.331 c0.231-0.152,0.295-0.462,0.144-0.692l-0.681-1.037c-0.089-0.136-0.24-0.22-0.402-0.225l-1.348-0.042 C7.234,43.007,7,43.234,7,43.516z"/><linearGradient id="oiUmmQXExHwEIUkIknBuFh" x1="30.178" x2="23.432" y1="20.705" y2="47.079" gradientUnits="userSpaceOnUse"><stop offset="0" stop-color="#5c65d6"/><stop offset=".999" stop-color="#464eb0"/></linearGradient><path fill="url(#oiUmmQXExHwEIUkIknBuFh)" d="M25.317,33.037l0.549,0.836c0.152,0.231,0.461,0.295,0.692,0.144l2.349-1.541 c0.231-0.152,0.295-0.462,0.144-0.692l-0.549-0.836c-0.152-0.231-0.461-0.295-0.692-0.144l-2.349,1.541 C25.23,32.496,25.166,32.806,25.317,33.037z"/><linearGradient id="oiUmmQXExHwEIUkIknBuFi" x1="35.29" x2="28.543" y1="21.437" y2="47.81" gradientUnits="userSpaceOnUse"><stop offset="0" stop-color="#5c65d6"/><stop offset=".999" stop-color="#464eb0"/></linearGradient><path fill="url(#oiUmmQXExHwEIUkIknBuFi)" d="M34.177,26.625l-2.348,1.541c-0.231,0.152-0.295,0.462-0.144,0.692l0.549,0.836 c0.152,0.231,0.462,0.295,0.692,0.144l2.348-1.541c0.231-0.152,0.295-0.462,0.144-0.692l-0.549-0.836 C34.718,26.538,34.408,26.473,34.177,26.625z"/><linearGradient id="oiUmmQXExHwEIUkIknBuFj" x1="25.067" x2="18.32" y1="19.974" y2="46.347" gradientUnits="userSpaceOnUse"><stop offset="0" stop-color="#5c65d6"/><stop offset=".999" stop-color="#464eb0"/></linearGradient><path fill="url(#oiUmmQXExHwEIUkIknBuFj)" d="M18.95,37.217l0.549,0.836c0.152,0.231,0.462,0.295,0.692,0.144l2.348-1.541 c0.231-0.152,0.295-0.462,0.144-0.692l-0.549-0.836c-0.152-0.231-0.462-0.295-0.692-0.144l-2.348,1.541 C18.863,36.676,18.799,36.986,18.95,37.217z"/><linearGradient id="oiUmmQXExHwEIUkIknBuFk" x1="19.955" x2="13.208" y1="19.242" y2="45.615" gradientUnits="userSpaceOnUse"><stop offset="0" stop-color="#5c65d6"/><stop offset=".999" stop-color="#464eb0"/></linearGradient><path fill="url(#oiUmmQXExHwEIUkIknBuFk)" d="M12.582,41.396l0.549,0.836c0.152,0.231,0.462,0.295,0.692,0.144l2.348-1.541 c0.231-0.152,0.295-0.462,0.144-0.692l-0.549-0.836c-0.152-0.231-0.462-0.295-0.692-0.144l-2.348,1.541 C12.495,40.855,12.43,41.165,12.582,41.396z"/><linearGradient id="oiUmmQXExHwEIUkIknBuFl" x1="13.177" x2="25.518" y1="19.592" y2="30.06" gradientUnits="userSpaceOnUse"><stop offset="0" stop-color="#f44f5a"/><stop offset=".443" stop-color="#ee3d4a"/><stop offset="1" stop-color="#e52030"/></linearGradient><path fill="url(#oiUmmQXExHwEIUkIknBuFl)" d="M25,24c-0.24,0-0.451,0.096-0.624,0.237l0.001-0.015l-1.709,1.722	c-2.912-2.813-6.749-4.586-10.836-4.894c-0.571-0.047-1.031,0.372-1.072,0.922c-0.042,0.551,0.371,1.031,0.922,1.072	c3.611,0.271,6.986,1.852,9.561,4.336l-2.099,2.134C19.06,29.66,19,29.82,19,30c0,0.553,0.448,1,1,1h5c0.553,0,1-0.447,1-1v-5	C26,24.448,25.553,24,25,24z"/></svg>