<svg xmlns="http://www.w3.org/2000/svg" xmlns:xlink="http://www.w3.org/1999/xlink" data-name="Слой 1" viewBox="0 0 48 48"><defs><linearGradient id="k9M4qxDSWkZIBUeCjnRLKa" x1="13.414" x2="27.337" y1="13.856" y2="52.109" data-name="Безымянный градиент 16" gradientUnits="userSpaceOnUse"><stop offset="0" stop-color="#e38101"/><stop offset="1" stop-color="#fed100"/></linearGradient><linearGradient id="k9M4qxDSWkZIBUeCjnRLKb" x1="18.603" x2="32.499" y1="11.984" y2="50.161" xlink:href="#k9M4qxDSWkZIBUeCjnRLKa"/></defs><path fill="url(#k9M4qxDSWkZIBUeCjnRLKa)" d="M35,44H13s8-4,8-24c0-1.5,6-1.5,6,0C27,40,35,44,35,44Z"/><path fill="#64717c" d="M24,35a19.3863,19.3863,0,0,1-4.82275-.57275C16.48389,33.72461,15,32.50732,15,31c0-1.7002,1.978-3.07373,5.2915-3.67383a21.37382,21.37382,0,0,1,7.42432.00147C31.022,27.92627,33,29.2998,33,31c0,1.50732-1.48389,2.72461-4.17773,3.42773A19.40282,19.40282,0,0,1,24,35Zm0-6a18.38614,18.38614,0,0,0-3.34473.29248C18.10156,29.75537,17,30.647,17,31c0,.24854.67529.96875,2.68262,1.49219a18.94622,18.94622,0,0,0,8.63427.00049C30.32471,31.96875,31,31.24854,31,31c0-.353-1.10156-1.24463-3.648-1.70605A18.39232,18.39232,0,0,0,24,29Z"/><path fill="url(#k9M4qxDSWkZIBUeCjnRLKb)" d="M27.9895,31c-.17163-.8454-.32666-1.74048-.45947-2.69A61.1002,61.1002,0,0,1,27,20c0-1.5-6-1.5-6,0a61.1002,61.1002,0,0,1-.53,8.31c-.13281.94952-.28784,1.8446-.45947,2.69Z"/><circle cx="10" cy="16" r="5" fill="#889097"/><circle cx="38.5" cy="14.5" r="4.5" fill="#889097"/><circle cx="15" cy="11" r="6" fill="#889097"/><circle cx="35" cy="20" r="3" fill="#889097"/><circle cx="34" cy="16" r="3" fill="#889097"/><circle cx="33" cy="11" r="5" fill="#889097"/><circle cx="28.5" cy="19.5" r="5.5" fill="#889097"/><circle cx="18.5" cy="16.536" r="7.5" fill="#889097"/><circle cx="23.5" cy="10.5" r="7.5" fill="#889097"/></svg>