<svg xmlns="http://www.w3.org/2000/svg" xmlns:xlink="http://www.w3.org/1999/xlink" data-name="Слой 1" viewBox="0 0 48 48"><defs><linearGradient id="gF4ACyDBj8a5zPMo7BoOLb" x1="24.236" x2="29.454" y1="3.762" y2="40.349" data-name="Безымянный градиент 101" gradientUnits="userSpaceOnUse"><stop offset="0" stop-color="#21ad64"/><stop offset="1" stop-color="#088242"/></linearGradient><linearGradient id="gF4ACyDBj8a5zPMo7BoOLa" x1="16.685" x2="34.595" y1="50.752" y2="1.545" data-name="Безымянный градиент 137" gradientUnits="userSpaceOnUse"><stop offset="0" stop-color="#ffda94"/><stop offset="1" stop-color="#fff0ce"/></linearGradient><linearGradient id="gF4ACyDBj8a5zPMo7BoOLc" x1="-5.199" x2="22.083" y1="74.755" y2="-.202" xlink:href="#gF4ACyDBj8a5zPMo7BoOLa"/><linearGradient id="gF4ACyDBj8a5zPMo7BoOLd" x1="18.865" x2="18.865" y1="33.875" y2="55.059" data-name="Безымянный градиент 102" gradientUnits="userSpaceOnUse"><stop offset="0" stop-color="#f5b967"/><stop offset="1" stop-color="#eba84b"/></linearGradient></defs><path fill="#107c42" d="M24.0083,20.5a1.99988,1.99988,0,0,1-.2749-3.98047c.40918-.06152,9.96924-1.49707,9.96924-1.49707a1.99977,1.99977,0,1,1,.59472,3.95508c-10.04,1.50879-10.04,1.50879-10.11328,1.51465C24.125,20.49805,24.06641,20.5,24.0083,20.5Z"/><path fill="url(#gF4ACyDBj8a5zPMo7BoOLb)" d="M37.99881,13.14526a3.00136,3.00136,0,0,0-3.45486-3.1101l-3.28456.5053a6.08712,6.08712,0,0,1-5.871-2.557,6.375,6.375,0,0,0-6.70356-2.85808,7.11609,7.11609,0,0,0-5.5518,8.243l3.98173,22.83379a6.99516,6.99516,0,0,0,8.87613,5.51157A7.2056,7.2056,0,0,0,30.856,33.50683L28.17239,18.1174a1,1,0,0,1,.83308-1.16016l6.33245-.97421A3.08068,3.08068,0,0,0,37.99881,13.14526Z"/><path fill="#343434" d="M26,14.3v.03a.67.67,0,0,1-.67.67h-2a.44017.44017,0,0,1-.16-.02,1.29767,1.29767,0,0,1-1.15-1.15.43985.43985,0,0,1-.02-.16v-2a.67.67,0,0,1,.67-.67h.03A3.30323,3.30323,0,0,1,26,14.3Z"/><path fill="#fff" d="M24,14a.99846.99846,0,0,1-.83.98,1.29767,1.29767,0,0,1-1.15-1.15A.997.997,0,0,1,24,14Z"/><path fill="url(#gF4ACyDBj8a5zPMo7BoOLa)" d="M39.99,29.01C39.71,39.88,32.66,45,24,45S8.29,39.88,8.01,29.01L11,31l4-4,4,3.25L24.01,26,29,30.25,33,27l4,4Z"/><path fill="url(#gF4ACyDBj8a5zPMo7BoOLc)" d="M27.04,5.61,26,7H22l-2,3-4,1-2,4-2.47.62A9.25067,9.25067,0,0,1,11,12.5,9.49965,9.49965,0,0,1,27.04,5.61Z"/><path d="M30.03,28.77l-.1-.56-.91.74005-4.36-3.71-.65-.55-.65.55-4.37,3.71-3.36-2.73-.3-.24.13.74.13.76L19,30.25,24.01,26,29,30.25l1.13-.92Z" opacity=".05"/><path d="M30.03,28.77l-1.02.83-4.68-3.98-.32-.28-.32.28-4.7,3.98-3.53-2.88.13.76L19,30.25,24.01,26,29,30.25l1.13-.92Z" opacity=".07"/><path d="M25.39,7.98c-.12-.16-.24-.32-.37-.48-.14-.17-.29-.34-.44-.5H22l-2,3-4,1-2,4-.56.14.08.49.09.5.63-.16.45-.11.2-.41,1.8-3.59,3.55-.89.38-.09.21-.33L22.54,8h2.87C25.4,7.99,25.39,7.99,25.39,7.98Z" opacity=".05"/><path d="M24.58,7H22l-2,3-4,1-2,4-.56.14.08.49.6-.15.22-.05.11-.21,1.89-3.79,3.78-.94.19-.05.11-.16L22.27,7.5h2.75C24.88,7.33,24.73,7.16,24.58,7Z" opacity=".07"/><path fill="url(#gF4ACyDBj8a5zPMo7BoOLd)" d="M18,38a2,2,0,1,1,2-2A2,2,0,0,1,18,38ZM9.5,34a3.30883,3.30883,0,0,0-.77.09,14.90392,14.90392,0,0,0,3.13,5.98A3.45033,3.45033,0,0,0,13,37.5,3.50386,3.50386,0,0,0,9.5,34Zm15,4a4.5,4.5,0,0,0-3.92,6.71A19.09193,19.09193,0,0,0,24,45a19.71965,19.71965,0,0,0,4.53-.51A4.49009,4.49009,0,0,0,24.5,38Z"/></svg>