<svg xmlns="http://www.w3.org/2000/svg" viewBox="0 0 48 48"><path fill="#50e6ff" d="M39,16v25c0,1.105-0.895,2-2,2H11c-1.105,0-2-0.895-2-2V7c0-1.105,0.895-2,2-2h17L39,16z"/><linearGradient id="_rnrzRmyCORmBgGe4G1aPa" x1="28.529" x2="33.6" y1="-2829.362" y2="-2824.29" gradientTransform="matrix(1 0 0 -1 0 -2813.89)" gradientUnits="userSpaceOnUse"><stop offset="0" stop-color="#3079d6"/><stop offset="1" stop-color="#297cd2"/></linearGradient><path fill="url(#_rnrzRmyCORmBgGe4G1aPa)" d="M28,5v9c0,1.105,0.895,2,2,2h9L28,5z"/><path fill="#e52030" d="M25.391,31h-3.083l-0.893-2.794h-4.466L16.065,31H13l4.571-12.558h3.354L25.391,31z M20.768,26.035 l-1.349-4.221c-0.099-0.315-0.169-0.692-0.21-1.13h-0.07c-0.029,0.368-0.102,0.733-0.219,1.095l-1.366,4.256H20.768z"/><path fill="#e52030" d="M35,26.753h-3.372v3.372H29.86v-3.372h-3.389v-1.778h3.389v-3.389h1.769v3.389H35V26.753z"/></svg>