<svg xmlns="http://www.w3.org/2000/svg" viewBox="0 0 48 48"><linearGradient id="vhpJi4h4h_EDljEA1cr~sa" x1="9" x2="9" y1="24.223" y2="4.728" gradientUnits="userSpaceOnUse"><stop offset="0" stop-color="#dfe9f2"/><stop offset=".391" stop-color="#d6e0e9"/><stop offset="1" stop-color="#bfc8d1"/></linearGradient><rect width="2" height="18" x="8" y="8" fill="url(#vhpJi4h4h_EDljEA1cr~sa)"/><path fill="#64717c" d="M27,24c-0.482,0-2-0.602-2-2c0-0.093-0.029-0.177-0.053-0.263L25.8,20.6	c0.332-0.441,0.242-1.068-0.2-1.399c-0.441-0.331-1.067-0.243-1.399,0.2l-3,4c-0.332,0.441-0.242,1.068,0.2,1.399	c0.18,0.135,0.39,0.2,0.599,0.2c0.305,0,0.604-0.138,0.801-0.4l0.63-0.84C24.221,25.251,25.926,26,27,26c0.553,0,1-0.447,1-1	S27.553,24,27,24z"/><linearGradient id="vhpJi4h4h_EDljEA1cr~sb" x1="17.424" x2="28.322" y1="14.311" y2="44.252" gradientUnits="userSpaceOnUse"><stop offset="0" stop-color="#ffcf54"/><stop offset=".261" stop-color="#fdcb4d"/><stop offset=".639" stop-color="#f7c13a"/><stop offset="1" stop-color="#f0b421"/></linearGradient><path fill="url(#vhpJi4h4h_EDljEA1cr~sb)" d="M28.778,21.137c-0.457-0.085-0.908,0.165-1.091,0.593l-2.427,5.664	C25.102,27.762,24.741,28,24.341,28h-6.774c-0.351,0-0.677-0.184-0.857-0.486l-2.126-3.543C14.221,23.369,13.57,23,12.868,23H10	c-3.866,0-7,3.134-7,7c0,3.866,3.134,7,7,7h29c2.761,0,5-2.239,5-5C44,25.295,34.824,22.26,28.778,21.137z"/><path fill="#64717c" d="M15.198,25l-8.125-1.762C6.446,23.099,6,22.543,6,21.901v0c0-0.935,0.916-1.596,1.803-1.3	l5.497,1.766C14.433,22.745,15.198,23.806,15.198,25L15.198,25z"/><path fill="#64717c" d="M42,41H6c-1.657,0-3-1.343-3-3v0c0-1.657,1.343-3,3-3h36c1.657,0,3,1.343,3,3v0	C45,39.657,43.657,41,42,41z"/><linearGradient id="vhpJi4h4h_EDljEA1cr~sc" x1="2" x2="46" y1="38" y2="38" gradientUnits="userSpaceOnUse"><stop offset="0" stop-color="#a1aab3"/><stop offset="1" stop-color="#8f979e"/></linearGradient><path fill="url(#vhpJi4h4h_EDljEA1cr~sc)" d="M45,39H3c-0.552,0-1-0.448-1-1l0,0c0-0.552,0.448-1,1-1h42c0.552,0,1,0.448,1,1l0,0	C46,38.552,45.552,39,45,39z"/></svg>