<svg xmlns="http://www.w3.org/2000/svg" data-name="Слой 1" viewBox="0 0 48 48"><defs><linearGradient id="BBSrGjLjuLqeU4K0JRU7fa" x1="16.104" x2="23.912" y1="12.951" y2="20.651" data-name="Безымянный градиент 237" gradientUnits="userSpaceOnUse"><stop offset=".282" stop-color="#ffc430"/><stop offset=".401" stop-color="#f8bd2d"/><stop offset=".574" stop-color="#e5aa23"/><stop offset=".78" stop-color="#c58a14"/><stop offset="1" stop-color="#9c6000"/></linearGradient><linearGradient id="BBSrGjLjuLqeU4K0JRU7fb" x1="20.472" x2="44.346" y1="35.451" y2="10.657" data-name="Безымянный градиент 236" gradientUnits="userSpaceOnUse"><stop offset="0" stop-color="#ffc430"/><stop offset=".41" stop-color="#fec130"/><stop offset=".72" stop-color="#fcb730"/><stop offset=".998" stop-color="#f7a72f"/><stop offset="1" stop-color="#f7a72f"/></linearGradient><linearGradient id="BBSrGjLjuLqeU4K0JRU7fc" x1="294.682" x2="294.684" y1="-1746.09" y2="-1746.09" data-name="Безымянный градиент 193" gradientTransform="scale(-1 1) rotate(80.68 -896.039 -1053.477)" gradientUnits="userSpaceOnUse"><stop offset="0" stop-color="#ffc430"/><stop offset=".57" stop-color="#f8bd29"/><stop offset="1" stop-color="#f0b421"/></linearGradient></defs><path fill="url(#BBSrGjLjuLqeU4K0JRU7fa)" d="M21.1,14.6499C21.48,16.28,18.22,17.85,21.87,19.99H11.82a12.97011,12.97011,0,0,0-.81313-2.14429.49975.49975,0,0,1,.12342-.59395l1.69856-1.45265a.49706.49706,0,0,1,.49227-.08513A5.06268,5.06268,0,0,0,15,16a5.00824,5.00824,0,0,0,5-5,3.774,3.774,0,0,0-.09482-.87853.51313.51313,0,0,1,.15816-.50159L21.66,8.25A2.14193,2.14193,0,0,1,24,10.6,4.00006,4.00006,0,0,1,21.1,14.6499Z"/><path fill="url(#BBSrGjLjuLqeU4K0JRU7fb)" d="M28.46,30.99l-.09,1H41.5a2.496,2.496,0,0,1,2.489,2.73955A2.58859,2.58859,0,0,1,41.36891,36.99H27.92l-.1,1H36a2.00094,2.00094,0,0,1,1.97463,2.32421A2.07006,2.07006,0,0,1,35.8979,41.99H12a6,6,0,0,1-6-6V33.36786a.51374.51374,0,0,1,.39989-.489A3.5033,3.5033,0,0,0,9,29.5a3.46737,3.46737,0,0,0-.71351-2.11446.49419.49419,0,0,1,.19938-.77093A5.66318,5.66318,0,0,0,12.02,21.33a5.184,5.184,0,0,0-.2-1.34H39.5a2.497,2.497,0,0,1,2.48887,2.76083A2.61205,2.61205,0,0,1,39.34528,24.99H29l-.09,1H42.5a2.496,2.496,0,0,1,2.489,2.73955A2.58859,2.58859,0,0,1,42.36891,30.99Z"/><circle cx="39.5" cy="22.485" r="1.5" fill="#fff0c9"/><circle cx="42.5" cy="28.485" r="1.5" fill="#fff0c9"/><circle cx="41.5" cy="34.485" r="1.5" fill="#fff0c9"/><circle cx="36" cy="39.985" r="1" fill="#fff0c9"/><path fill="url(#BBSrGjLjuLqeU4K0JRU7fc)" d="M19.725,9.345l.019.005.001-.002Z"/><path fill="#00c92c" d="M4,21.33333A2.5921,2.5921,0,0,0,6.51019,24a2.5921,2.5921,0,0,0,2.51019-2.66667C9.02038,19.86067,6.51019,16,6.51019,16S4,19.86067,4,21.33333Z"/><path fill="#00c92c" d="M13,11a1.998,1.998,0,1,0,3.99592,0c0-1.1045-1.998-4-1.998-4S13,9.8955,13,11Z"/></svg>