<svg xmlns="http://www.w3.org/2000/svg" xmlns:xlink="http://www.w3.org/1999/xlink" data-name="Слой 1" viewBox="0 0 48 48"><defs><linearGradient id="UZIUOBYW3Qcms2FR0bTXKa" x1="16" x2="24" y1="-365" y2="-365" data-name="Безымянный градиент 105" gradientTransform="matrix(1 0 0 -1 0 -356)" gradientUnits="userSpaceOnUse"><stop offset="0" stop-color="#ffcf54"/><stop offset=".261" stop-color="#fdcb4d"/><stop offset=".639" stop-color="#f7c13a"/><stop offset="1" stop-color="#f0b421"/></linearGradient><linearGradient id="UZIUOBYW3Qcms2FR0bTXKb" x1="32" x2="40" xlink:href="#UZIUOBYW3Qcms2FR0bTXKa"/><linearGradient id="UZIUOBYW3Qcms2FR0bTXKc" x1="37" x2="37" y1="16.793" y2="29.665" data-name="Безымянный градиент 146" gradientUnits="userSpaceOnUse"><stop offset="0" stop-color="#35c1f1"/><stop offset=".8" stop-color="#4adefc"/><stop offset="1" stop-color="#50e6ff"/></linearGradient><linearGradient id="UZIUOBYW3Qcms2FR0bTXKd" x1="30.487" x2="30.487" y1="22.989" y2="33.594" data-name="Безымянный градиент 87" gradientTransform="rotate(-45 30.487 27.503)" gradientUnits="userSpaceOnUse"><stop offset="0" stop-color="#c26715"/><stop offset=".346" stop-color="#be6015"/><stop offset=".686" stop-color="#b54e16"/><stop offset=".979" stop-color="#ad3f16"/></linearGradient></defs><path fill="#42a4ed" d="M29,41.5A1.5,1.5,0,1,0,30.49925,40,1.49991,1.49991,0,0,0,29,41.5Z"/><path fill="#35c1f1" d="M38,41.5A1.5,1.5,0,1,0,39.49925,40,1.49991,1.49991,0,0,0,38,41.5Z"/><path fill="#35c1f1" d="M20,41.5A1.5,1.5,0,1,0,21.49925,40,1.49991,1.49991,0,0,0,20,41.5Z"/><path fill="#35c1f1" d="M8,41.5A1.5,1.5,0,1,0,9.49925,40,1.49991,1.49991,0,0,0,8,41.5Z"/><path fill="#35c1f1" d="M6,25.5A1.5,1.5,0,1,0,7.49925,24,1.49991,1.49991,0,0,0,6,25.5Z"/><path fill="url(#UZIUOBYW3Qcms2FR0bTXKa)" d="M16,9a4,4,0,1,0,3.998-4A3.99975,3.99975,0,0,0,16,9Z"/><path fill="url(#UZIUOBYW3Qcms2FR0bTXKb)" d="M32,9a4,4,0,1,0,3.998-4A3.99975,3.99975,0,0,0,32,9Z"/><path fill="#35c1f1" d="M27,25.5A1.5,1.5,0,1,0,28.49925,24,1.49991,1.49991,0,0,0,27,25.5Z"/><path fill="#42a4ed" d="M29.10812,40.93981,32,33.5,31.5,27,36,30l-.91444,4.57219a4.00016,4.00016,0,0,1-.26133.82711l-2.96809,6.74254Z"/><circle cx="35" cy="17" r="3" fill="#35c1f1"/><path fill="#35c1f1" d="M32.00259,16.87421l-.851,9.45817a4,4,0,0,0,.93,2.94591L37,35l1.01943,6.742,2.9758-.36242L40.0823,33.693a4.00007,4.00007,0,0,0-.39437-1.3171L37,27V18Z"/><path fill="url(#UZIUOBYW3Qcms2FR0bTXKc)" d="M38.97638,28.26544l.00525-.00091L38,22.5V17H35v6.5l1.02606,5.27985.00214-.00037a1.49636,1.49636,0,1,0,2.94818-.514Z"/><rect width="4.496" height="3.135" x="28.239" y="25.936" fill="url(#UZIUOBYW3Qcms2FR0bTXKd)" rx=".5" transform="rotate(45 30.487 27.503)"/><path fill="#35c1f1" d="M28.5,28a.49856.49856,0,0,1-.43066-.24609l-.88477-1.5a.49994.49994,0,0,1,.86133-.50782l.88476,1.5A.5.5,0,0,1,28.5,28Z"/><path fill="#35c1f1" d="M6.06942,25.04771l1.74272-6.36193a2,2,0,0,1,.76646-1.09907l4.72007-3.37147a4,4,0,0,1,3.6703-.512l3.36464,1.20166a4,4,0,0,1,2.347,2.22851L24.5,21.5l4.73233,2.69067-1.3728,2.6731L22.63693,24.294a2,2,0,0,1-.95066-.92145L20,20l-5-2.5L11,20,8.91392,26.00206Z"/><path fill="#35c1f1" d="M8.22253,40.71345,12,33l-.87547-6.12832A3.99984,3.99984,0,0,1,11.253,25.1566L14,16l7,1-2.5,9.4L16,27v6.39445a2,2,0,0,1-.3359,1.1094l-4.90128,7.806Z"/><path fill="#35c1f1" d="M18,25.5a59.18325,59.18325,0,0,0,3.69392,5.571,1.99269,1.99269,0,0,1,.359.95843L23,41.5l-2.988.19039L18.5,33.5,14,28Z"/><path d="M33.54,26.92,31.3,24.68l-.06.66-.06.64,1.65,1.65a.495.495,0,0,1,0,.71l-1.14,1.14.05.66.05.61a1.16,1.16,0,0,0,.24-.2l1.51-1.5A1.52118,1.52118,0,0,0,33.54,26.92Z" opacity=".05"/><path d="M33.19,27.28l-1.95-1.94-.06.64,1.65,1.65a.495.495,0,0,1,0,.71l-1.14,1.14.05.66,1.45-1.45A.99587.99587,0,0,0,33.19,27.28Z" opacity=".07"/></svg>