<svg xmlns="http://www.w3.org/2000/svg" xmlns:xlink="http://www.w3.org/1999/xlink" data-name="Слой 1" viewBox="0 0 48 48"><defs><linearGradient id="ptnjRCiaFEyWtPRuNFChra" x1="-1.424" x2="10.908" y1="24.978" y2="24.978" data-name="Безымянный градиент 123" gradientUnits="userSpaceOnUse"><stop offset="0" stop-color="#f44f5a"/><stop offset=".443" stop-color="#ee3d4a"/><stop offset="1" stop-color="#e52030"/></linearGradient><linearGradient id="ptnjRCiaFEyWtPRuNFChrb" x1="20.642" x2="26.022" y1="42.524" y2="33.573" xlink:href="#ptnjRCiaFEyWtPRuNFChra"/><linearGradient id="ptnjRCiaFEyWtPRuNFChrc" x1="17.23" x2="26.132" y1="9.394" y2="21.231" xlink:href="#ptnjRCiaFEyWtPRuNFChra"/><linearGradient id="ptnjRCiaFEyWtPRuNFChrd" x1="11.841" x2="17.221" y1="37.233" y2="28.282" xlink:href="#ptnjRCiaFEyWtPRuNFChra"/><linearGradient id="ptnjRCiaFEyWtPRuNFChre" x1="-3.065" x2="56.311" y1="25.505" y2="25.505" data-name="Безымянный градиент 147" gradientUnits="userSpaceOnUse"><stop offset="0" stop-color="#dfe9f2"/><stop offset=".391" stop-color="#d6e0e9"/><stop offset="1" stop-color="#bfc8d1"/></linearGradient><linearGradient id="ptnjRCiaFEyWtPRuNFChrf" x1="41" x2="43" y1="24" y2="24" xlink:href="#ptnjRCiaFEyWtPRuNFChra"/><linearGradient id="ptnjRCiaFEyWtPRuNFChrg" x1="22.804" x2="35.66" y1="30.147" y2="30.147" xlink:href="#ptnjRCiaFEyWtPRuNFChra"/></defs><path fill="url(#ptnjRCiaFEyWtPRuNFChra)" d="M9,26.75V23.20411L2.70714,17.274A1.01122,1.01122,0,0,0,1,17.93089v4.28243a1.70044,1.70044,0,0,0,.83366,1.43927C2.38248,23.99308,3,24.48567,3,24.97827s-.61756.98518-1.16635,1.32567A1.70046,1.70046,0,0,0,1,27.74322v4.28242a1.01122,1.01122,0,0,0,1.7071.65692Z"/><path fill="url(#ptnjRCiaFEyWtPRuNFChrb)" d="M22,38.45248l.03822-2.91415A.512.512,0,0,1,22.5,35,2.25064,2.25064,0,0,0,25,33l3,.70465c0,2.94219-2.4,5.04437-5.39893,5.29339A.55139.55139,0,0,1,22,38.45248Z"/><path fill="url(#ptnjRCiaFEyWtPRuNFChrc)" d="M17.66194,16.60671l3.044-7.39248a.5.5,0,0,1,.82531-.1535L29,18l-7,2-4.13777-2.77709A.5.5,0,0,1,17.66194,16.60671Z"/><path fill="url(#ptnjRCiaFEyWtPRuNFChrd)" d="M13,28v6.50519a.5002.5002,0,0,0,.77038.41554L20,30.964Z"/><path fill="url(#ptnjRCiaFEyWtPRuNFChre)" d="M46.59,26.21l-.09.09009a22.38927,22.38927,0,0,1-5,4.02991c-.53.31994-1.05.61-1.58.88a26.37415,26.37415,0,0,1-3.42,1.46,23.641,23.641,0,0,1-10,1.26,19.03954,19.03954,0,0,1-5-1.36987c-1.67-.71008-3.33-1.55-5-2.33008A43.12419,43.12419,0,0,0,6.5,27l-.14-.03A2.01387,2.01387,0,0,1,6.5,23a39.96133,39.96133,0,0,0,10-2.68994c3.33-1.34009,6.67-2.94006,10-3.24a26.7422,26.7422,0,0,1,10,1.08984A28.84055,28.84055,0,0,1,39.6,19.28c.64.28,1.27.58,1.9.90991a22.08444,22.08444,0,0,1,5,3.51A1.79089,1.79089,0,0,1,46.59,26.21Z"/><path fill="#bfc8d1" d="M46.59,26.21l-.09.09009a22.38927,22.38927,0,0,1-5,4.02991c-.53.31994-1.05.61-1.58.88A11.01306,11.01306,0,0,1,39.6,19.28c.64.28,1.27.58,1.9.90991a22.08444,22.08444,0,0,1,5,3.51A1.79089,1.79089,0,0,1,46.59,26.21Z"/><circle cx="42" cy="24" r="1" fill="url(#ptnjRCiaFEyWtPRuNFChrf)"/><path fill="url(#ptnjRCiaFEyWtPRuNFChrg)" d="M29.1842,32.27732l6.0216-2.012A1.16263,1.16263,0,0,0,36,29.16264h0A1.16264,1.16264,0,0,0,34.83736,28H29a1,1,0,0,0-1,1v2.29443A1,1,0,0,0,29.1842,32.27732Z"/></svg>