<svg xmlns="http://www.w3.org/2000/svg" viewBox="0 0 48 48"><linearGradient id="gsUwKagot_qqzJvknfp7oa" x1="17.258" x2="30.352" y1="-6.122" y2="37.271" gradientUnits="userSpaceOnUse"><stop offset="0" stop-color="#7dd8f3"/><stop offset="1" stop-color="#45b0d0"/></linearGradient><path fill="url(#gsUwKagot_qqzJvknfp7oa)" d="M36.5,12h-6c-0.276,0-0.5,0.224-0.5,0.5v6c0,0.276,0.224,0.5,0.5,0.5H32v3.149	c0,0.497-2.004,1.805-2.967,2.434c-1,0.652-2.073,1.422-3.033,2.289V10h1.191c0.372,0,0.613-0.391,0.447-0.724l-2.691-5.382	c-0.184-0.369-0.71-0.369-0.894,0l-2.691,5.382C21.196,9.609,21.437,10,21.809,10H23v21.365c-1.325-1.089-2.846-2.049-4.033-2.823	C18.004,27.913,16,26.605,16,26.108V22.65c1.403-0.67,2.298-2.231,1.908-3.961c-0.286-1.269-1.312-2.303-2.58-2.594	C13.036,15.569,11,17.297,11,19.5c0,1.394,0.821,2.587,2,3.15V26c0,2.122,2.102,3.493,4.328,4.945C19.518,32.375,23,33.995,23,36	v1.276c-1.95,0.693-3.291,2.673-2.946,4.931c0.276,1.806,1.679,3.313,3.467,3.69C26.434,46.511,29,44.305,29,41.5	c0-1.956-1.256-3.605-3-4.224V32c0-2.005,2.482-3.625,4.672-5.055C32.898,25.493,35,24.122,35,22v-3h1.5c0.276,0,0.5-0.224,0.5-0.5	v-6C37,12.224,36.776,12,36.5,12z"/></svg>