<svg xmlns="http://www.w3.org/2000/svg" viewBox="0 0 48 48"><linearGradient id="SqV1NW9rRsNjDR09JgNj7a" x1="16.037" x2="31.123" y1="654.802" y2="618.804" gradientTransform="matrix(1 0 0 -1 0 662)" gradientUnits="userSpaceOnUse"><stop offset="0" stop-color="#eba84b"/><stop offset="1" stop-color="#d97218"/></linearGradient><path fill="url(#SqV1NW9rRsNjDR09JgNj7a)" d="M40,42H8c-1.1,0-2-0.9-2-2V12h36v28C42,41.1,41.1,42,40,42z"/><path fill="#fabb62" d="M43,12H5V8c0-1.1,0.9-2,2-2h34c1.1,0,2,0.9,2,2V12z"/><polygon fill="#fdb700" points="38,28 40.329,29.307 43,29.34 44.364,31.636 46.66,33 46.693,35.671 48,38 46.693,40.329 46.66,43 44.364,44.364 43,46.66 40.329,46.693 38,48 35.671,46.693 33,46.66 31.636,44.364 29.34,43 29.307,40.329 28,38 29.307,35.671 29.34,33 31.636,31.636 33,29.34 35.671,29.307"/><linearGradient id="SqV1NW9rRsNjDR09JgNj7b" x1="31" x2="45" y1="624" y2="624" gradientTransform="matrix(1 0 0 -1 0 662)" gradientUnits="userSpaceOnUse"><stop offset="0" stop-color="#fede00"/><stop offset="1" stop-color="#ffd000"/></linearGradient><circle cx="38" cy="38" r="7" fill="url(#SqV1NW9rRsNjDR09JgNj7b)"/></svg>