<svg xmlns="http://www.w3.org/2000/svg" viewBox="0 0 48 48"><linearGradient id="YYo2pems2ostT0BQ0Y1Yha" x1="20.981" x2="26.839" y1="5.246" y2="43.579" gradientUnits="userSpaceOnUse"><stop offset="0" stop-color="#ff6181"/><stop offset="1" stop-color="#c41f40"/></linearGradient><path fill="url(#YYo2pems2ostT0BQ0Y1Yha)" d="M43,25c0-2.817-1.169-5.357-3.042-7.174C39.985,17.554,40,17.279,40,17	c0-3.927-2.831-7.186-6.562-7.864C33.134,6.806,31.163,5,28.75,5C26.127,5,24,7.127,24,9.75C24,7.127,21.873,5,19.25,5	c-2.413,0-4.384,1.806-4.688,4.136C10.831,9.814,8,13.073,8,17c0,0.279,0.015,0.554,0.042,0.826C6.169,19.643,5,22.183,5,25	c0,2.821,1.173,5.365,3.052,7.183C8.02,32.451,8,32.723,8,33c0,3.665,2.819,6.668,6.406,6.97C15.171,41.751,16.939,43,19,43	c2.761,0,5-2.239,5-5c0,2.761,2.239,5,5,5c2.061,0,3.829-1.249,4.594-3.03C37.181,39.668,40,36.665,40,33	c0-0.277-0.02-0.549-0.052-0.817C41.827,30.365,43,27.821,43,25z"/><path d="M23.247,29h1.464c0.891,0,1.612-0.698,1.641-1.59l0.372-11.718c0.014-0.441-0.155-0.876-0.462-1.193	C25.954,14.182,25.525,14,25.083,14h-2.189c-0.449,0-0.868,0.177-1.179,0.498c-0.311,0.321-0.475,0.745-0.461,1.192l0.352,11.717	C21.633,28.301,22.353,29,23.247,29z" opacity=".05"/><path d="M26.073,30.004c-0.548-0.499-1.242-0.753-2.062-0.753c-0.806,0-1.497,0.247-2.053,0.735	c-0.587,0.515-0.897,1.207-0.897,2.003c0,0.763,0.301,1.446,0.868,1.976c0.557,0.521,1.257,0.784,2.083,0.784	c0.83,0,1.528-0.258,2.075-0.767c0.559-0.52,0.854-1.209,0.854-1.993C26.94,31.209,26.641,30.522,26.073,30.004z" opacity=".05"/><path d="M25.736,30.374c-0.453-0.413-1.034-0.623-1.726-0.623c-0.681,0-1.261,0.206-1.724,0.611	c-0.482,0.423-0.727,0.97-0.727,1.627c0,0.63,0.239,1.172,0.71,1.61c0.461,0.431,1.046,0.649,1.741,0.649	c0.7,0,1.283-0.213,1.734-0.633c0.461-0.429,0.695-0.977,0.695-1.627C26.44,31.344,26.203,30.8,25.736,30.374z" opacity=".07"/><path d="M23.247,28.5h1.464c0.62,0,1.121-0.485,1.141-1.105l0.372-11.718h0	c0.009-0.312-0.104-0.606-0.322-0.83c-0.217-0.224-0.507-0.347-0.819-0.347h-2.189c-0.312,0-0.604,0.123-0.82,0.346	c-0.216,0.224-0.33,0.518-0.321,0.829l0.352,11.718C22.125,28.014,22.625,28.5,23.247,28.5z" opacity=".07"/><path fill="#fff" d="M24.011,33.749c-0.565,0-1.032-0.171-1.399-0.514c-0.368-0.343-0.551-0.758-0.551-1.246 c0-0.509,0.185-0.926,0.557-1.251c0.371-0.325,0.836-0.487,1.394-0.487c0.565,0,1.029,0.164,1.389,0.493 c0.361,0.329,0.541,0.744,0.541,1.246c0,0.509-0.178,0.929-0.535,1.261C25.048,33.582,24.583,33.749,24.011,33.749z M25.724,15.661 l-0.372,11.718C25.341,27.725,25.057,28,24.711,28h-1.465c-0.347,0-0.63-0.275-0.641-0.622L22.254,15.66 C22.243,15.297,22.531,15,22.895,15h2.189C25.445,15,25.735,15.3,25.724,15.661z"/></svg>