<svg xmlns="http://www.w3.org/2000/svg" viewBox="0 0 48 48"><linearGradient id="eXGu_wNJhrTjSIOoreU3Oa" x1="19.441" x2="36.766" y1="227.059" y2="209.734" gradientTransform="matrix(1 0 0 -1 0 254)" gradientUnits="userSpaceOnUse"><stop offset="0" stop-color="#1d59b3"/><stop offset="1" stop-color="#195bbc"/></linearGradient><path fill="url(#eXGu_wNJhrTjSIOoreU3Oa)" d="M42,39H15c-1.1,0-2-0.9-2-2v-2c0-1.1,0.9-2,2-2h27c1.1,0,2,0.9,2,2v2C44,38.1,43.1,39,42,39z"/><linearGradient id="eXGu_wNJhrTjSIOoreU3Ob" x1="19.68" x2="37.505" y1="251.32" y2="233.495" gradientTransform="matrix(1 0 0 -1 0 254)" gradientUnits="userSpaceOnUse"><stop offset="0" stop-color="#1d59b3"/><stop offset="1" stop-color="#195bbc"/></linearGradient><path fill="url(#eXGu_wNJhrTjSIOoreU3Ob)" d="M43,15H15c-1.1,0-2-0.9-2-2v-2c0-1.1,0.9-2,2-2h28c1.1,0,2,0.9,2,2v2C45,14.1,44.1,15,43,15z"/><linearGradient id="eXGu_wNJhrTjSIOoreU3Oc" x1="3.477" x2="8.302" y1="244.523" y2="239.698" gradientTransform="matrix(1 0 0 -1 0 254)" gradientUnits="userSpaceOnUse"><stop offset=".003" stop-color="#42a3f2"/><stop offset="1" stop-color="#42a4eb"/></linearGradient><path fill="url(#eXGu_wNJhrTjSIOoreU3Oc)" d="M7,15H5c-1.1,0-2-0.9-2-2v-2c0-1.1,0.9-2,2-2h2c1.1,0,2,0.9,2,2v2C9,14.1,8.1,15,7,15z"/><linearGradient id="eXGu_wNJhrTjSIOoreU3Od" x1="19.68" x2="37.505" y1="239.32" y2="221.495" gradientTransform="matrix(1 0 0 -1 0 254)" gradientUnits="userSpaceOnUse"><stop offset="0" stop-color="#1d59b3"/><stop offset="1" stop-color="#195bbc"/></linearGradient><path fill="url(#eXGu_wNJhrTjSIOoreU3Od)" d="M43,27H15c-1.1,0-2-0.9-2-2v-2c0-1.1,0.9-2,2-2h28c1.1,0,2,0.9,2,2v2C45,26.1,44.1,27,43,27z"/><linearGradient id="eXGu_wNJhrTjSIOoreU3Oe" x1="3.477" x2="8.302" y1="232.523" y2="227.698" gradientTransform="matrix(1 0 0 -1 0 254)" gradientUnits="userSpaceOnUse"><stop offset="0" stop-color="#42a3f2"/><stop offset="1" stop-color="#42a4eb"/></linearGradient><path fill="url(#eXGu_wNJhrTjSIOoreU3Oe)" d="M7,27H5c-1.1,0-2-0.9-2-2v-2c0-1.1,0.9-2,2-2h2c1.1,0,2,0.9,2,2v2C9,26.1,8.1,27,7,27z"/><linearGradient id="eXGu_wNJhrTjSIOoreU3Of" x1="3.477" x2="8.302" y1="220.523" y2="215.698" gradientTransform="matrix(1 0 0 -1 0 254)" gradientUnits="userSpaceOnUse"><stop offset="0" stop-color="#42a3f2"/><stop offset="1" stop-color="#42a4eb"/></linearGradient><path fill="url(#eXGu_wNJhrTjSIOoreU3Of)" d="M7,39H5c-1.1,0-2-0.9-2-2v-2c0-1.1,0.9-2,2-2h2c1.1,0,2,0.9,2,2v2C9,38.1,8.1,39,7,39z"/><path fill="#199be2" d="M44.992,43.224l-1.768,1.768l2.935,2.935c0.098,0.098,0.256,0.098,0.354,0l1.414-1.414	c0.098-0.098,0.098-0.256,0-0.354L44.992,43.224z"/><radialGradient id="eXGu_wNJhrTjSIOoreU3Og" cx="37.012" cy="-440.952" r="9.802" gradientTransform="translate(0 478)" gradientUnits="userSpaceOnUse"><stop offset=".693" stop-color="#006185"/><stop offset=".921" stop-color="#35c1f1"/></radialGradient><polygon fill="url(#eXGu_wNJhrTjSIOoreU3Og)" points="42.8,41.033 41.033,42.8 43.224,44.992 44.992,43.224"/><radialGradient id="eXGu_wNJhrTjSIOoreU3Oh" cx="35.457" cy="36.936" r="8.514" gradientUnits="userSpaceOnUse"><stop offset="0"/><stop offset=".979" stop-opacity="0"/></radialGradient><path fill="url(#eXGu_wNJhrTjSIOoreU3Oh)" d="M42,33H27.841C27.303,34.226,27,35.578,27,37c0,0.685,0.07,1.354,0.202,2H42c1.1,0,2-0.9,2-2	v-2C44,33.9,43.1,33,42,33z"/><linearGradient id="eXGu_wNJhrTjSIOoreU3Oi" x1="28.924" x2="40.541" y1="26.735" y2="41.501" gradientUnits="userSpaceOnUse"><stop offset="0" stop-color="#a3ffff"/><stop offset=".223" stop-color="#9dfbff"/><stop offset=".53" stop-color="#8bf1ff"/><stop offset=".885" stop-color="#6ee0ff"/><stop offset="1" stop-color="#63daff"/></linearGradient><circle cx="37" cy="37" r="8" fill="url(#eXGu_wNJhrTjSIOoreU3Oi)"/></svg>