<svg xmlns="http://www.w3.org/2000/svg" viewBox="0 0 48 48"><linearGradient id="fbA420VDpLXoNOia6mV5-a" x1="19.792" x2="43.611" y1="9.325" y2="45.686" gradientUnits="userSpaceOnUse"><stop offset="0" stop-color="#dfe9f2"/><stop offset=".998" stop-color="#9ea7b0"/></linearGradient><path fill="url(#fbA420VDpLXoNOia6mV5-a)" d="M24,4v40c11.046,0,20-8.954,20-20S35.046,4,24,4z"/><linearGradient id="fbA420VDpLXoNOia6mV5-b" x1="4" x2="24" y1="24" y2="24" gradientUnits="userSpaceOnUse"><stop offset="0" stop-color="#10753d"/><stop offset="1" stop-color="#088242"/></linearGradient><path fill="url(#fbA420VDpLXoNOia6mV5-b)" d="M4,24c0,11.046,8.954,20,20,20V4C12.954,4,4,12.954,4,24z"/><linearGradient id="fbA420VDpLXoNOia6mV5-c" x1="21.958" x2="29.355" y1="20.629" y2="34.129" gradientUnits="userSpaceOnUse"><stop offset=".008" stop-color="#f44f5a"/><stop offset=".447" stop-color="#ee3d4a"/><stop offset="1" stop-color="#e52030"/></linearGradient><path fill="url(#fbA420VDpLXoNOia6mV5-c)" d="M30.734,20c-2.211-3.824-7.102-5.137-10.926-2.926c-3.828,2.207-5.137,7.102-2.93,10.926	s7.102,5.137,10.926,2.926c1.215-0.699,2.227-1.711,2.93-2.926c-2.211,2.758-6.238,3.203-8.996,0.996	c-2.758-2.211-3.203-6.238-0.996-8.996c2.211-2.758,6.238-3.203,8.996-0.996C30.105,19.301,30.437,19.633,30.734,20 M31.199,24.215	L24,21.867L28.48,28v-7.57L24,26.559L31.199,24.215z"/></svg>