<svg xmlns="http://www.w3.org/2000/svg" viewBox="0 0 48 48"><path fill="#185c37" d="M42.798,5.312c0,0-4.927,0.307-8.854,4.223s-4.234,8.829-4.234,8.829s4.927-0.307,8.854-4.223	S42.798,5.312,42.798,5.312z"/><path fill="#107c42" d="M30.576,17.549c0,0,2.69,4.111,7.688,1.278s6.17-8.955,6.17-8.955L30.576,17.549z"/><path fill="#107c42" d="M29.71,18.364c0,0-3.304-3.547-0.463-8.531c2.841-4.984,8.932-6.057,8.932-6.057L29.71,18.364z"/><path fill="#33c481" d="M29.71,18.364c0,0-3.889-2.933-2.31-8.445c1.58-5.513,6.929-6.91,6.929-6.91L29.71,18.364z"/><path fill="#33c481" d="M29.602,18.257c0,0,2.941,3.879,8.469,2.303S45,13.651,45,13.651L29.602,18.257z"/><linearGradient id="ezlCkgEFchb~2dkkOQ5Bja" x1="19.061" x2="19.061" y1="66.417" y2="29.076" gradientUnits="userSpaceOnUse"><stop offset="0" stop-color="#e38101"/><stop offset="1" stop-color="#fed100"/></linearGradient><path fill="url(#ezlCkgEFchb~2dkkOQ5Bja)" d="M34.91,29v0.01c-0.03,0.14-0.06,0.28-0.09,0.41c-0.04,0.16-0.09,0.31-0.14,0.46	c-0.09,0.36-0.22,0.71-0.36,1.06c-0.01,0.02-0.02,0.04-0.03,0.06c-0.06,0.15-0.13,0.29-0.2,0.44c-0.49,1.07-1.19,2.08-2.08,2.96	L28.4,38L28,38.4L26.4,40L26,40.39l-1.51,1.51c-0.55,0.56-1.15,1.03-1.77,1.43c0,0,0,0-0.01-0.01c-0.03,0.03-0.06,0.05-0.09,0.07	c-1.12,0.7-2.36,1.18-3.62,1.42c-0.1,0.02-0.2,0.04-0.3,0.06c-0.18,0.02-0.35,0.04-0.54,0.06C17.77,44.98,17.39,45,17,45	c-2.49,0.02-5-0.85-7-2.59c-0.19-0.16-0.37-0.33-0.55-0.51L8,40.45L7.54,40l-1.43-1.43C5.92,38.39,5.75,38.2,5.58,38	c-1.75-2.01-2.6-4.51-2.58-7c0-0.19,0-0.38,0.02-0.56c0.01-0.18,0.02-0.37,0.05-0.56c0.02-0.15,0.04-0.31,0.06-0.48	c0.02-0.13,0.04-0.26,0.07-0.4c0.24-1.21,0.69-2.41,1.37-3.5c0.03-0.04,0.04-0.06,0.06-0.09c0.16-0.27,0.35-0.52,0.54-0.77	c0.28-0.37,0.6-0.73,0.94-1.07L7.68,22L8,21.69l2-2l3.63-3.62c0.88-0.88,1.89-1.58,2.97-2.07c0.13-0.07,0.26-0.13,0.4-0.19	c0.38-0.17,0.76-0.31,1.16-0.42c0.19-0.05,0.39-0.11,0.58-0.15c0.09-0.02,0.17-0.04,0.26-0.05c2.23-0.46,4.6-0.21,6.69,0.8	c0.14,0.07,0.28,0.14,0.42,0.21c0.44,0.23,0.88,0.5,1.29,0.8c0.21,0.14,0.41,0.3,0.6,0.46c0.23,0.19,0.45,0.39,0.67,0.61l3.34,3.33	c0.19,0.19,0.38,0.39,0.55,0.6c0.19,0.21,0.36,0.44,0.52,0.67c0.32,0.43,0.59,0.87,0.83,1.33c0.07,0.12,0.13,0.25,0.19,0.37	C35.1,24.45,35.36,26.78,34.91,29z"/><path fill="#e38101" d="M34.91,29v0.01c-0.03,0.14-0.06,0.28-0.09,0.41c-0.04,0.16-0.09,0.31-0.14,0.46 c-0.09,0.36-0.22,0.71-0.36,1.06c-0.01,0.02-0.02,0.04-0.03,0.06H3c0-0.19,0-0.38,0.02-0.56c0.01-0.18,0.03-0.37,0.06-0.56 c0.02-0.15,0.04-0.31,0.06-0.48c0.02-0.13,0.05-0.26,0.08-0.4H34.91z"/><path fill="#e38101" d="M19,13.19v31.62c-0.1,0.02-0.2,0.04-0.3,0.06c-0.18,0.02-0.35,0.04-0.54,0.06 C17.77,44.98,17.39,45,17,45V13.81c0.38-0.17,0.76-0.31,1.16-0.42c0.19-0.05,0.39-0.11,0.58-0.15C18.83,13.22,18.91,13.2,19,13.19z"/><path fill="#e38101" d="M33.91,22H7.68L8,21.69L9.69,20h22.87c0.19,0.21,0.36,0.44,0.52,0.67 C33.4,21.1,33.67,21.54,33.91,22z"/><path fill="#e38101" d="M28,15.46V38.4L26.4,40L26,40.39V14.64c0-0.16,0.04-0.31,0.11-0.44c0.44,0.23,0.88,0.5,1.29,0.8 C27.61,15.14,27.81,15.3,28,15.46z"/><path fill="#e38101" d="M28.4,38L28,38.4L26.4,40H7.54l-1.43-1.43C5.92,38.39,5.75,38.2,5.58,38H28.4z"/><path fill="#e38101" d="M10,19.69v22.72c-0.19-0.16-0.37-0.33-0.55-0.51L8,40.45V21.69L10,19.69z"/></svg>