<svg xmlns="http://www.w3.org/2000/svg" data-name="Слой 1" viewBox="0 0 48 48"><rect width="36" height="36" x="6" y="6" fill="#0d62ab" rx="2"/><path fill="#0078d4" d="M24,41A17,17,0,1,1,41,24,17.019,17.019,0,0,1,24,41ZM24,9A15,15,0,1,0,39,24,15.01672,15.01672,0,0,0,24,9Z"/><path fill="#199be2" d="M24,36A12,12,0,1,1,36,24,12.01343,12.01343,0,0,1,24,36Zm0-22A10,10,0,1,0,34,24,10.01146,10.01146,0,0,0,24,14Z"/><path fill="#35c1f1" d="M24,31.25A7.25,7.25,0,1,1,31.25,24,7.258,7.258,0,0,1,24,31.25Zm0-12.5A5.25,5.25,0,1,0,29.25,24,5.25605,5.25605,0,0,0,24,18.75Z"/><circle cx="24" cy="24" r="2" fill="#50e6ff"/></svg>