<svg xmlns="http://www.w3.org/2000/svg" viewBox="0 0 48 48"><linearGradient id="ZmMliuxCIMdkVdSigfTXya" x1="21.906" x2="21.906" y1="40" y2="22.662" gradientUnits="userSpaceOnUse"><stop offset="0" stop-color="#92a3b0"/><stop offset=".015" stop-color="#a3b5c4"/><stop offset=".032" stop-color="#aec2d1"/><stop offset=".046" stop-color="#b2c6d6"/></linearGradient><path fill="url(#ZmMliuxCIMdkVdSigfTXya)" d="M12.001,40c-0.299,0-0.595-0.133-0.792-0.388c-0.338-0.437-0.258-1.064,0.179-1.403	l19.812-15.338c0.438-0.337,1.064-0.258,1.403,0.179c0.338,0.437,0.258,1.064-0.179,1.403L12.612,39.791	C12.43,39.932,12.215,40,12.001,40z"/><linearGradient id="ZmMliuxCIMdkVdSigfTXyb" x1="-782.753" x2="-782.753" y1="38" y2="22.003" gradientTransform="matrix(-1 0 0 1 -761 0)" gradientUnits="userSpaceOnUse"><stop offset="0" stop-color="#92a3b0"/><stop offset=".015" stop-color="#a3b5c4"/><stop offset=".032" stop-color="#aec2d1"/><stop offset=".046" stop-color="#b2c6d6"/></linearGradient><path fill="url(#ZmMliuxCIMdkVdSigfTXyb)" d="M33.999,38c-0.168,0-0.339-0.042-0.495-0.132L9.011,23.872	c-0.479-0.274-0.646-0.885-0.372-1.364c0.273-0.479,0.883-0.648,1.364-0.372l24.493,13.996c0.479,0.274,0.646,0.885,0.372,1.364	C34.684,37.819,34.347,38,33.999,38z"/><circle cx="12" cy="39" r="4" fill="#5c5f61"/><circle cx="12" cy="39" r="2" fill="#fff"/><circle cx="34" cy="37" r="6" fill="#5c5f61"/><path fill="#fff" d="M34,33c-2.209,0-4,1.791-4,4c0,2.209,1.791,4,4,4s4-1.791,4-4C38,34.791,36.209,33,34,33z M34,39	c-1.105,0-2-0.895-2-2c0-1.105,0.895-2,2-2s2,0.895,2,2C36,38.105,35.105,39,34,39z"/><linearGradient id="ZmMliuxCIMdkVdSigfTXyc" x1="15.544" x2="15.544" y1="19" y2="3.043" gradientUnits="userSpaceOnUse"><stop offset="0" stop-color="#42a3f2"/><stop offset="1" stop-color="#42a4eb"/></linearGradient><path fill="url(#ZmMliuxCIMdkVdSigfTXyc)" d="M8.58,19l-1.474-0.638L10.063,7.62l1.305-1.512l11.361-3.065l1.253,1.088L22,19H8.58z"/><linearGradient id="ZmMliuxCIMdkVdSigfTXyd" x1="-813" x2="-813" y1="-385" y2="-387" gradientTransform="rotate(180 -402 -184)" gradientUnits="userSpaceOnUse"><stop offset="0" stop-color="#42a3f2"/><stop offset="1" stop-color="#42a4eb"/></linearGradient><path fill="url(#ZmMliuxCIMdkVdSigfTXyd)" d="M7,19c0-1.105,0.895-2,2-2s2,0.895,2,2H7z"/><linearGradient id="ZmMliuxCIMdkVdSigfTXye" x1="12" x2="12" y1="10" y2="6" gradientUnits="userSpaceOnUse"><stop offset="0" stop-color="#42a3f2"/><stop offset="1" stop-color="#42a4eb"/></linearGradient><circle cx="12" cy="8" r="2" fill="url(#ZmMliuxCIMdkVdSigfTXye)"/><linearGradient id="ZmMliuxCIMdkVdSigfTXyf" x1="23" x2="23" y1="5" y2="3" gradientUnits="userSpaceOnUse"><stop offset="0" stop-color="#42a3f2"/><stop offset="1" stop-color="#42a4eb"/></linearGradient><circle cx="23" cy="4" r="1" fill="url(#ZmMliuxCIMdkVdSigfTXyf)"/><linearGradient id="ZmMliuxCIMdkVdSigfTXyg" x1="23.5" x2="23.5" y1="28" y2="19" gradientUnits="userSpaceOnUse"><stop offset="0" stop-color="#3079d6"/><stop offset="1" stop-color="#297cd2"/></linearGradient><path fill="url(#ZmMliuxCIMdkVdSigfTXyg)" d="M38,28H9c-1.105,0-2-0.895-2-2v-7h32c0.552,0,1,0.448,1,1v6C40,27.105,39.105,28,38,28z"/><linearGradient id="ZmMliuxCIMdkVdSigfTXyh" x1="30.965" x2="33.051" y1="6.316" y2="11.726" gradientUnits="userSpaceOnUse"><stop offset="0" stop-color="#ffcf54"/><stop offset=".261" stop-color="#fdcb4d"/><stop offset=".639" stop-color="#f7c13a"/><stop offset="1" stop-color="#f0b421"/></linearGradient><path fill="url(#ZmMliuxCIMdkVdSigfTXyh)" d="M29,9c0,1.656,1.343,3,2.999,3C33.658,12,35,10.656,35,9s-1.342-3-3.001-3	C30.343,6,29,7.344,29,9z"/><linearGradient id="ZmMliuxCIMdkVdSigfTXyi" x1="30.716" x2="32.209" y1="14.264" y2="19.42" gradientUnits="userSpaceOnUse"><stop offset="0" stop-color="#ffcf54"/><stop offset=".261" stop-color="#fdcb4d"/><stop offset=".639" stop-color="#f7c13a"/><stop offset="1" stop-color="#f0b421"/></linearGradient><path fill="url(#ZmMliuxCIMdkVdSigfTXyi)" d="M38,19H26l0.357-1.784C26.731,15.346,28.372,14,30.279,14h3.442	c1.907,0,3.548,1.346,3.922,3.216L38,19z"/></svg>