<svg xmlns="http://www.w3.org/2000/svg" data-name="Слой 1" viewBox="0 0 48 48"><defs><linearGradient id="UOj5MXof~jW2DaJpAaSgoa" x1="20.044" x2="31.131" y1="27.219" y2="57.68" data-name="Безымянный градиент 148" gradientUnits="userSpaceOnUse"><stop offset="0" stop-color="#6d6d6d"/><stop offset=".126" stop-color="#626262"/><stop offset=".987" stop-color="#464646"/><stop offset=".998" stop-color="#454545"/></linearGradient></defs><path fill="#00c92c" d="M16,24.99952a4,4,0,0,1-8,0C8,22.79967,12,18,12,18S16,22.79967,16,24.99952Z"/><path fill="#35c1f1" d="M42.11,26.84a4.985,4.985,0,0,1-6.95,1.27L20.52,18l-6.29-4.34009L19.77,5.35a.25167.25167,0,0,1,.07.04L38.1,18l2.74,1.89A4.99291,4.99291,0,0,1,42.11,26.84Z"/><path fill="#00c92c" d="M42.11,26.84a4.985,4.985,0,0,1-6.95,1.27L20.52,18H38.1l2.74,1.89A4.99291,4.99291,0,0,1,42.11,26.84Z"/><path fill="#50e6ff" d="M13.99805,16a2.0001,2.0001,0,0,1-1.65332-3.12207l.23047-.33984,5.75488-8.63868a2,2,0,0,1,3.33984,2.20118l-.23047.34961-5.78418,8.67187A1.99867,1.99867,0,0,1,13.99805,16Z"/><circle cx="38" cy="25" r="2" fill="#9af5b2"/><circle cx="34" cy="21" r="1" fill="#9af5b2"/><path fill="url(#UOj5MXof~jW2DaJpAaSgoa)" d="M24.224,34a.50776.50776,0,0,0-.47323.34965,3.97446,3.97446,0,0,1-6.10006,1.87923.49667.49667,0,0,0-.70449.14574A5.98446,5.98446,0,0,1,6.17,34.39455.49892.49892,0,0,0,5.68847,34H4a1,1,0,0,0-1,1v6a2,2,0,0,0,2,2H43a2,2,0,0,0,2-2V35a1,1,0,0,0-1-1Z"/></svg>