<svg xmlns="http://www.w3.org/2000/svg" viewBox="0 0 48 48"><linearGradient id="DvNeUf7S7YsDjSsnZdiKda" x1="24" x2="24" y1="25.652" y2="41.562" gradientUnits="userSpaceOnUse"><stop offset="0" stop-color="#333"/><stop offset="1" stop-color="#333" stop-opacity="0"/></linearGradient><path fill="url(#DvNeUf7S7YsDjSsnZdiKda)" d="M29,34c0,1.897-2,4-5,4s-5-2.103-5-4c0-2.637,0-7.035,0-7.035h10C29,26.965,29,31.363,29,34z"/><linearGradient id="DvNeUf7S7YsDjSsnZdiKdb" x1="5.972" x2="37.987" y1="29.354" y2="47.838" gradientUnits="userSpaceOnUse"><stop offset="0" stop-color="#889097"/><stop offset="1" stop-color="#4c5963"/></linearGradient><path fill="url(#DvNeUf7S7YsDjSsnZdiKdb)" d="M40,40.86V42c0,1.1-0.9,2-2,2H10c-1.1,0-2-0.9-2-2v-1.14c0-3.36,2.8-6.54,7.06-8.46	c1.24-0.55,2.59-1,4.04-1.31c1.54-0.34,3.19-0.52,4.9-0.52s3.36,0.18,4.9,0.52c1.45,0.31,2.8,0.76,4.04,1.31	C37.2,34.32,40,37.5,40,40.86z"/><radialGradient id="DvNeUf7S7YsDjSsnZdiKdc" cx="-935.602" cy="95.93" r="15.849" gradientTransform="matrix(-.9136 0 0 -.9667 -830.766 113.736)" gradientUnits="userSpaceOnUse"><stop offset="0" stop-color="#eba84b"/><stop offset=".255" stop-color="#e8a044"/><stop offset=".641" stop-color="#e18b30"/><stop offset="1" stop-color="#d97218"/></radialGradient><path fill="url(#DvNeUf7S7YsDjSsnZdiKdc)" d="M24,10c4,0,8,2,8,8c0,0.723,0,5.529,0,6.301C32,27.526,27.101,32,24,32s-8-4.474-8-7.698	c0-0.772,0-5.579,0-6.302C16,12,20,10,24,10z"/><path fill="#64717c" d="M29,34c0,1.897-2,4-5,4s-5-2.103-5-4c0-2.637,0-7.035,0-7.035h10C29,26.965,29,31.363,29,34z"/><linearGradient id="DvNeUf7S7YsDjSsnZdiKdd" x1="8.948" x2="37.208" y1="6.445" y2="34.705" gradientUnits="userSpaceOnUse"><stop offset="0" stop-color="#889097"/><stop offset="1" stop-color="#4c5963"/></linearGradient><path fill="url(#DvNeUf7S7YsDjSsnZdiKdd)" d="M36,19v5c0,3.32-1.34,6.32-3.51,8.49S27.32,36,24,36c-6.63,0-12-5.37-12-12v-5	c0-5.9,4.26-10.81,9.87-11.81C22.56,7.06,23.27,7,24,7s1.44,0.07,2.13,0.19c2.47,0.44,4.67,1.63,6.36,3.32	C34.66,12.68,36,15.68,36,19z"/><linearGradient id="DvNeUf7S7YsDjSsnZdiKde" x1="37.974" x2="20.721" y1="29.004" y2="11.751" gradientUnits="userSpaceOnUse"><stop offset="0" stop-color="#333"/><stop offset="1" stop-color="#333" stop-opacity="0"/></linearGradient><path fill="url(#DvNeUf7S7YsDjSsnZdiKde)" d="M30,19l-6-4l-6,4c0-2.18,0.63-8.56,3.87-11.81C22.56,7.06,23.27,7,24,7s1.44,0.07,2.13,0.19	C29.37,10.44,30,16.82,30,19z"/><linearGradient id="DvNeUf7S7YsDjSsnZdiKdf" x1="9.028" x2="25.501" y1="15.347" y2="31.821" gradientUnits="userSpaceOnUse"><stop offset="0" stop-color="#333"/><stop offset="1" stop-color="#333" stop-opacity="0"/></linearGradient><path fill="url(#DvNeUf7S7YsDjSsnZdiKdf)" d="M32.49,32.49C30.32,34.66,27.32,36,24,36c-5.25-2.75-6-9-6-11h7L32.49,32.49z"/><linearGradient id="DvNeUf7S7YsDjSsnZdiKdg" x1="12.929" x2="30.929" y1="32.02" y2="29.183" gradientUnits="userSpaceOnUse"><stop offset="0" stop-color="#333"/><stop offset="1" stop-color="#333" stop-opacity="0"/></linearGradient><path fill="url(#DvNeUf7S7YsDjSsnZdiKdg)" d="M25,30c0.75,1.25,6.25,3.25,10,1c2-3,2-4,2-4H26L25,30z"/><radialGradient id="DvNeUf7S7YsDjSsnZdiKdh" cx="24.109" cy="21.804" r="10.5" gradientUnits="userSpaceOnUse"><stop offset="0" stop-color="#eba84b"/><stop offset=".255" stop-color="#e8a044"/><stop offset=".641" stop-color="#e18b30"/><stop offset="1" stop-color="#d97218"/></radialGradient><path fill="url(#DvNeUf7S7YsDjSsnZdiKdh)" d="M25,30h-2c-2.761,0-5-2.239-5-5v-6c0-2.761,2.239-5,5-5h2c2.761,0,5,2.239,5,5v6	C30,27.761,27.761,30,25,30z"/><path d="M25,15c2.206,0,4,1.794,4,4v6c0,2.206-1.794,4-4,4h-2c-2.206,0-4-1.794-4-4v-6c0-2.206,1.794-4,4-4H25 M25,14h-2 c-2.761,0-5,2.239-5,5v6c0,2.761,2.239,5,5,5h2c2.761,0,5-2.239,5-5v-6C30,16.239,27.761,14,25,14L25,14z" opacity=".05"/><path d="M25,14.5c2.481,0,4.5,2.019,4.5,4.5v6c0,2.481-2.019,4.5-4.5,4.5h-2c-2.481,0-4.5-2.019-4.5-4.5v-6 c0-2.481,2.019-4.5,4.5-4.5H25 M25,14h-2c-2.761,0-5,2.239-5,5v6c0,2.761,2.239,5,5,5h2c2.761,0,5-2.239,5-5v-6 C30,16.239,27.761,14,25,14L25,14z" opacity=".07"/></svg>