<svg xmlns="http://www.w3.org/2000/svg" xmlns:xlink="http://www.w3.org/1999/xlink" data-name="Слой 1" viewBox="0 0 48 48"><defs><linearGradient id="WVyubGRlvuSqOilFvxiusa" x1="9.908" x2="22.93" y1="13.158" y2="26.18" data-name="Безымянный градиент 24" gradientUnits="userSpaceOnUse"><stop offset=".487" stop-color="#c26715"/><stop offset=".637" stop-color="#be6015"/><stop offset=".85" stop-color="#b54e16"/><stop offset=".979" stop-color="#ad3f16"/></linearGradient><linearGradient id="WVyubGRlvuSqOilFvxiusb" x1="2.739" x2="14.772" y1="7.739" y2="19.772" gradientUnits="userSpaceOnUse"><stop offset="0" stop-color="#a34f27"/><stop offset=".587" stop-color="#8b3817"/><stop offset="1" stop-color="#802d10"/></linearGradient><linearGradient id="WVyubGRlvuSqOilFvxiusc" x1="25" x2="25" y1="23.565" y2="39.612" xlink:href="#WVyubGRlvuSqOilFvxiusa"/><linearGradient id="WVyubGRlvuSqOilFvxiusd" x1="25" x2="25" y1="31.391" y2="42.813" xlink:href="#WVyubGRlvuSqOilFvxiusb"/><linearGradient id="WVyubGRlvuSqOilFvxiuse" x1="12" x2="12" y1="24.87" y2="52.274" xlink:href="#WVyubGRlvuSqOilFvxiusa"/><linearGradient id="WVyubGRlvuSqOilFvxiusf" x1="12" x2="12" y1="31.391" y2="42.813" xlink:href="#WVyubGRlvuSqOilFvxiusb"/><linearGradient id="WVyubGRlvuSqOilFvxiusg" x1="38" x2="38" y1="24.87" y2="52.274" xlink:href="#WVyubGRlvuSqOilFvxiusa"/><linearGradient id="WVyubGRlvuSqOilFvxiush" x1="38" x2="38" y1="31.391" y2="42.813" xlink:href="#WVyubGRlvuSqOilFvxiusb"/><linearGradient id="WVyubGRlvuSqOilFvxiusi" x1="14.239" x2="31.909" y1="7.916" y2="7.916" data-name="Безымянный градиент 155" gradientUnits="userSpaceOnUse"><stop offset="0" stop-color="#3079d6"/><stop offset="1" stop-color="#297cd2"/></linearGradient></defs><path fill="url(#WVyubGRlvuSqOilFvxiusa)" d="M24.5,29.25a1.49514,1.49514,0,0,1-1.06055-.43945l-16-16a1.49984,1.49984,0,0,1,2.1211-2.1211l16,16A1.5,1.5,0,0,1,24.5,29.25Z"/><path fill="url(#WVyubGRlvuSqOilFvxiusb)" d="M7.26684,8.26684l6.96632,6.96632a.999.999,0,0,1-.3558,1.64555c-1.73227.63734-4.77,1.22861-7.12736-1.12871S4.984,10.35491,5.62129,8.62264A.999.999,0,0,1,7.26684,8.26684Z"/><path fill="url(#WVyubGRlvuSqOilFvxiusc)" d="M34,38a.99676.99676,0,0,1-.707-.293L25,29.41406l-8.293,8.293A.99989.99989,0,0,1,15.293,36.293l9-9a.99962.99962,0,0,1,1.41406,0l9,9A1,1,0,0,1,34,38Z"/><path fill="url(#WVyubGRlvuSqOilFvxiusc)" d="M25,38.75a1,1,0,0,1-1-1V20a1,1,0,0,1,2,0V37.75A1,1,0,0,1,25,38.75Z"/><rect width="22" height="4" x="14" y="37" fill="url(#WVyubGRlvuSqOilFvxiusd)"/><circle cx="12" cy="39" r="5" fill="url(#WVyubGRlvuSqOilFvxiuse)"/><circle cx="12" cy="39" r="2" fill="url(#WVyubGRlvuSqOilFvxiusf)"/><circle cx="38" cy="39" r="5" fill="url(#WVyubGRlvuSqOilFvxiusg)"/><circle cx="38" cy="39" r="2" fill="url(#WVyubGRlvuSqOilFvxiush)"/><path fill="url(#WVyubGRlvuSqOilFvxiusi)" d="M15,11a1,1,0,0,1-.707-1.707C18.40234,5.18311,25.39111,4.417,30.124,5.00781a.99991.99991,0,0,1-.248,1.98438C26.42188,6.55957,19.55664,6.85742,15.707,10.707A.99676.99676,0,0,1,15,11Z"/><path fill="#64717c" d="M34.54074,8.43492l1.90692,2.68065a2.44276,2.44276,0,0,0,3.70971.06153L42.5141,8.15222a2.23092,2.23092,0,0,0-.62536-3.30864L39.9624,3.52722a3.276,3.276,0,0,0-3.78479.14078l-1.01627.83336A2.825,2.825,0,0,0,34.54074,8.43492Z"/></svg>