<svg xmlns="http://www.w3.org/2000/svg" viewBox="0 0 48 48"><path fill="#50e6ff" d="M40.004,41.969L8.031,42c-1.099,0.001-1.999-0.897-2-1.996L6,8.031c-0.001-1.099,0.897-1.999,1.996-2	L39.969,6c1.099-0.001,1.999,0.897,2,1.996L42,39.969C42.001,41.068,41.103,41.968,40.004,41.969z"/><path fill="#0078d4" d="M14,15h-4c-0.552,0-1-0.448-1-1v-4c0-0.552,0.448-1,1-1h4c0.552,0,1,0.448,1,1v4	C15,14.552,14.552,15,14,15z"/><path fill="#35c1f1" d="M22,15h-4c-0.552,0-1-0.448-1-1v-4c0-0.552,0.448-1,1-1h4c0.552,0,1,0.448,1,1v4	C23,14.552,22.552,15,22,15z"/><path fill="#35c1f1" d="M30,15h-4c-0.552,0-1-0.448-1-1v-4c0-0.552,0.448-1,1-1h4c0.552,0,1,0.448,1,1v4	C31,14.552,30.552,15,30,15z"/><path fill="#35c1f1" d="M38,15h-4c-0.552,0-1-0.448-1-1v-4c0-0.552,0.448-1,1-1h4c0.552,0,1,0.448,1,1v4	C39,14.552,38.552,15,38,15z"/><path fill="#35c1f1" d="M14,23h-4c-0.552,0-1-0.448-1-1v-4c0-0.552,0.448-1,1-1h4c0.552,0,1,0.448,1,1v4	C15,22.552,14.552,23,14,23z"/><path fill="#0078d4" d="M22,23h-4c-0.552,0-1-0.448-1-1v-4c0-0.552,0.448-1,1-1h4c0.552,0,1,0.448,1,1v4	C23,22.552,22.552,23,22,23z"/><path fill="#35c1f1" d="M30,23h-4c-0.552,0-1-0.448-1-1v-4c0-0.552,0.448-1,1-1h4c0.552,0,1,0.448,1,1v4	C31,22.552,30.552,23,30,23z"/><path fill="#35c1f1" d="M38,23h-4c-0.552,0-1-0.448-1-1v-4c0-0.552,0.448-1,1-1h4c0.552,0,1,0.448,1,1v4	C39,22.552,38.552,23,38,23z"/><path fill="#35c1f1" d="M14,31h-4c-0.552,0-1-0.448-1-1v-4c0-0.552,0.448-1,1-1h4c0.552,0,1,0.448,1,1v4	C15,30.552,14.552,31,14,31z"/><path fill="#35c1f1" d="M22,31h-4c-0.552,0-1-0.448-1-1v-4c0-0.552,0.448-1,1-1h4c0.552,0,1,0.448,1,1v4	C23,30.552,22.552,31,22,31z"/><path fill="#0078d4" d="M30,31h-4c-0.552,0-1-0.448-1-1v-4c0-0.552,0.448-1,1-1h4c0.552,0,1,0.448,1,1v4	C31,30.552,30.552,31,30,31z"/><path fill="#35c1f1" d="M38,31h-4c-0.552,0-1-0.448-1-1v-4c0-0.552,0.448-1,1-1h4c0.552,0,1,0.448,1,1v4	C39,30.552,38.552,31,38,31z"/><path fill="#35c1f1" d="M14,39h-4c-0.552,0-1-0.448-1-1v-4c0-0.552,0.448-1,1-1h4c0.552,0,1,0.448,1,1v4	C15,38.552,14.552,39,14,39z"/><path fill="#35c1f1" d="M22,39h-4c-0.552,0-1-0.448-1-1v-4c0-0.552,0.448-1,1-1h4c0.552,0,1,0.448,1,1v4	C23,38.552,22.552,39,22,39z"/><path fill="#35c1f1" d="M30,39h-4c-0.552,0-1-0.448-1-1v-4c0-0.552,0.448-1,1-1h4c0.552,0,1,0.448,1,1v4	C31,38.552,30.552,39,30,39z"/><path fill="#0078d4" d="M38,39h-4c-0.552,0-1-0.448-1-1v-4c0-0.552,0.448-1,1-1h4c0.552,0,1,0.448,1,1v4	C39,38.552,38.552,39,38,39z"/></svg>