<svg xmlns="http://www.w3.org/2000/svg" viewBox="0 0 48 48"><linearGradient id="mJphujwQiuvnriVZrCRKja" x1="15.775" x2="33.488" y1="-.718" y2="47.947" gradientUnits="userSpaceOnUse"><stop offset="0" stop-color="#f9f9f9"/><stop offset=".26" stop-color="#f0f1f2"/><stop offset=".678" stop-color="#d9dcdf"/><stop offset="1" stop-color="#c2c8cc"/></linearGradient><polygon fill="url(#mJphujwQiuvnriVZrCRKja)" points="24,40 37,33 40,19 31.343,8 16.657,8 8,19 11,33"/><linearGradient id="mJphujwQiuvnriVZrCRKjb" x1="15.787" x2="33.496" y1="2.487" y2="51.143" gradientUnits="userSpaceOnUse"><stop offset="0" stop-color="#6d6d6d"/><stop offset=".126" stop-color="#626262"/><stop offset=".987" stop-color="#464646"/><stop offset=".998" stop-color="#454545"/></linearGradient><path fill="url(#mJphujwQiuvnriVZrCRKjb)" d="M38.216,32.097l2.495-11.643c2.45-1.124,4.658-2.125,5.66-2.526l-0.742-1.857	c-0.933,0.374-2.766,1.199-4.936,2.192L32.638,8.028c1.726-2.952,3.195-5.469,3.227-5.524l-1.729-1.008	C34.104,1.551,32.642,4.057,30.922,7H17.828c-0.493-1.709-1.114-3.486-1.905-5.385l-1.846,0.77c0.737,1.768,1.319,3.422,1.783,5.01	L7.454,18.076c-1.681,0.011-3.253-0.019-4.532-0.046C2.155,18.014,1.502,18,1,18v2c0.49,0,1.13,0.014,1.88,0.029	c1.112,0.024,2.434,0.052,3.864,0.052c0.151,0,0.311-0.003,0.464-0.003L9.79,32.123c-2.128,1.901-4.429,3.768-6.344,5.044	l1.109,1.664c1.829-1.219,4.047-2.991,6.161-4.85l12.421,6.688C23.06,42.683,23,44.766,23,47h2c0-2.284,0.063-4.418,0.144-6.48	l12.125-6.529c1.405,1.454,2.829,2.797,4.117,3.799l1.229-1.579C41.22,35.127,39.69,33.657,38.216,32.097z M36.56,30.283	c-1.989-2.255-3.714-4.472-4.615-5.823c1.684-0.748,4.062-1.842,6.376-2.907c0.041-0.019,0.081-0.037,0.122-0.056L36.56,30.283z M38.823,19.121c-0.441,0.203-0.887,0.408-1.338,0.616c-2.401,1.105-4.862,2.237-6.537,2.977l-3.299-6.186	c0.807-1.359,2.361-4.007,3.904-6.644L38.823,19.121z M24.316,28.769l-6.239-3.328l0.823-6.585l7.059-1.246l3.31,6.206	L24.316,28.769z M29.752,9c-1.553,2.653-3.102,5.294-3.876,6.595l-6.797,1.2c0.127-2.52-0.109-5.072-0.732-7.794H29.752z M16.487,9.833c0.556,2.58,0.747,4.992,0.577,7.372c-2.112,0.493-4.596,0.717-7.019,0.812L16.487,9.833z M9.247,20.046	c2.541-0.07,5.221-0.268,7.583-0.746l-0.793,6.343c-0.692,1.063-2.425,2.916-4.538,4.912L9.247,20.046z M12.294,32.561	c2.124-1.964,3.979-3.889,5.017-5.262l6.177,3.295c-0.016,2.141-0.107,4.378-0.213,6.749c-0.016,0.365-0.032,0.737-0.048,1.105	L12.294,32.561z M25.24,38.197c0.011-0.254,0.022-0.512,0.033-0.765c0.109-2.457,0.207-4.777,0.218-7.009l4.816-4.816	c1.133,1.693,3.231,4.337,5.544,6.876L25.24,38.197z"/><linearGradient id="mJphujwQiuvnriVZrCRKjc" x1="24.287" x2="24.287" y1="8.739" y2="29.283" gradientUnits="userSpaceOnUse"><stop offset="0" stop-color="#f44f5a"/><stop offset=".443" stop-color="#ee3d4a"/><stop offset="1" stop-color="#e52030"/></linearGradient><path fill="url(#mJphujwQiuvnriVZrCRKjc)" d="M39.303,18.697c-1.236-1.236-3.72-0.755-5.549,1.074c-1.039,1.039-1.625,2.286-1.726,3.399	C30.995,24.158,30.006,25,29.002,25c-0.565-0.028-2.089-1.515-2.999-2.403C23.903,20.549,21.291,18,18,18	c-2.979,0-5.374,2.456-8.148,5.299c-0.413,0.423-0.834,0.854-1.266,1.287l2.828,2.828c0.443-0.443,0.877-0.887,1.3-1.321	C14.678,24.081,16.708,22,18,22c1.663,0,3.547,1.838,5.209,3.46C25.075,27.28,26.838,29,29,29c2.563,0,4.4-1.602,5.888-3.033	c1.098-0.116,2.319-0.699,3.341-1.721C40.058,22.417,40.539,19.933,39.303,18.697z"/><path d="M40.01,17.99c-0.64-0.64-1.51-0.98-2.52-0.98c-1.5,0-3.16,0.77-4.44,2.05c-1.05,1.05-1.75,2.35-1.97,3.63 c-0.55,0.52-1.36,1.22-1.97,1.3c-0.53-0.27-1.93-1.64-2.41-2.11C24.47,19.71,21.7,17,18,17c-3.4,0-5.93,2.59-8.86,5.6l-0.09,0.09 C8.71,23.04,8.36,23.4,8,23.76l0.12,0.58l0.14,0.63l0.19,0.89l2.26,2.26l0.7,0.71l0.71-0.71c0.45-0.45,0.88-0.89,1.31-1.33 C14.9,25.28,17.13,23,18,23c1.26,0,3.06,1.76,4.51,3.17C24.44,28.06,26.43,30,29,30c2.76,0,4.73-1.55,6.35-3.09 c1.26-0.22,2.55-0.92,3.59-1.96c0.44-0.44,0.81-0.91,1.11-1.4l0.66-3.1c0.09-0.04,0.18-0.08,0.27-0.12 C40.95,19.42,40.63,18.61,40.01,17.99z M29,29c-2.16,0-3.92-1.72-5.79-3.54C21.55,23.84,19.66,22,18,22 c-1.29,0-3.32,2.08-5.29,4.09c-0.42,0.44-0.85,0.88-1.3,1.32l-2.82-2.82c0.43-0.44,0.85-0.87,1.26-1.29 C12.63,20.46,15.02,18,18,18c3.29,0,5.9,2.55,8,4.6c0.91,0.89,2.44,2.37,3,2.4c1.01,0,2-0.84,3.03-1.83 c0.1-1.11,0.68-2.36,1.72-3.4c1.15-1.14,2.55-1.76,3.74-1.76c0.71,0,1.35,0.22,1.81,0.69c1.24,1.23,0.76,3.72-1.07,5.55 c-1.02,1.02-2.24,1.6-3.34,1.72C33.4,27.4,31.56,29,29,29z" opacity=".05"/><path d="M39.66,18.34c-0.55-0.54-1.3-0.83-2.17-0.83c-1.37,0-2.9,0.71-4.09,1.91c-1.02,1.02-1.69,2.29-1.85,3.51 C30.7,23.74,29.8,24.5,29,24.5c-0.42-0.08-2.1-1.72-2.65-2.26c-2.16-2.11-4.86-4.74-8.35-4.74c-3.19,0-5.65,2.52-8.5,5.45 l-0.09,0.09c-0.39,0.39-0.78,0.79-1.18,1.19l-0.11,0.11l0.14,0.63l2.8,2.8l0.35,0.35l0.36-0.35c0.44-0.45,0.88-0.89,1.3-1.33 c1.72-1.76,3.85-3.94,4.93-3.94c1.46,0,3.26,1.76,4.86,3.32c1.94,1.89,3.77,3.68,6.14,3.68c2.64,0,4.54-1.56,6.11-3.06 c1.22-0.17,2.47-0.84,3.47-1.84c0.96-0.95,1.6-2.11,1.83-3.26C40.64,20.13,40.38,19.06,39.66,18.34z M38.23,24.25 c-1.02,1.02-2.24,1.6-3.34,1.72C33.4,27.4,31.56,29,29,29c-2.16,0-3.92-1.72-5.79-3.54C21.55,23.84,19.66,22,18,22 c-1.29,0-3.32,2.08-5.29,4.09c-0.42,0.44-0.85,0.88-1.3,1.32l-2.82-2.82c0.43-0.44,0.85-0.87,1.26-1.29 C12.63,20.46,15.02,18,18,18c3.29,0,5.9,2.55,8,4.6c0.91,0.89,2.44,2.37,3,2.4c1.01,0,2-0.84,3.03-1.83 c0.1-1.11,0.68-2.36,1.72-3.4c1.15-1.14,2.55-1.76,3.74-1.76c0.71,0,1.35,0.22,1.81,0.69C40.54,19.93,40.06,22.42,38.23,24.25z" opacity=".07"/></svg>