<svg xmlns="http://www.w3.org/2000/svg" viewBox="0 0 48 48"><linearGradient id="ZmZFrIMYZ6RgXrNkoG46Ea" x1="24.01" x2="24.01" y1="1391.868" y2="1419.883" gradientTransform="translate(0 -1370)" gradientUnits="userSpaceOnUse"><stop offset="0" stop-color="#21ad64"/><stop offset="1" stop-color="#088242"/></linearGradient><path fill="url(#ZmZFrIMYZ6RgXrNkoG46Ea)" d="M43.61,20.26L43.2,23l-0.06,0.4l-2.35,15.73C40.62,40.21,39.7,41,38.61,41H9.39	c-1.09,0-2.01-0.79-2.18-1.87L4.88,23.4L4.82,23l-0.41-2.74C4.31,19.59,4.82,19,5.5,19h37.02C43.2,19,43.71,19.59,43.61,20.26z"/><path fill="#33c481" d="M43.61,20.26c0.1-0.67-0.41-1.26-1.09-1.26H5.5c-0.68,0-1.19,0.59-1.09,1.26L4.82,23H43.2	L43.61,20.26z"/><path fill="#107c42" d="M20.5,39L20.5,39c-0.828,0-1.5-0.672-1.5-1.5v-11c0-0.828,0.672-1.5,1.5-1.5l0,0	c0.828,0,1.5,0.672,1.5,1.5v11C22,38.328,21.328,39,20.5,39z"/><path fill="#107c42" d="M13.5,39L13.5,39c-0.828,0-1.5-0.672-1.5-1.5v-11c0-0.828,0.672-1.5,1.5-1.5l0,0	c0.828,0,1.5,0.672,1.5,1.5v11C15,38.328,14.328,39,13.5,39z"/><path fill="#107c42" d="M27.5,39L27.5,39c-0.828,0-1.5-0.672-1.5-1.5v-11c0-0.828,0.672-1.5,1.5-1.5l0,0	c0.828,0,1.5,0.672,1.5,1.5v11C29,38.328,28.328,39,27.5,39z"/><path fill="#107c42" d="M34.5,39L34.5,39c-0.828,0-1.5-0.672-1.5-1.5v-11c0-0.828,0.672-1.5,1.5-1.5l0,0	c0.828,0,1.5,0.672,1.5,1.5v11C36,38.328,35.328,39,34.5,39z"/><linearGradient id="ZmZFrIMYZ6RgXrNkoG46Eb" x1="25.564" x2="21.645" y1="-444.9" y2="-426.633" gradientTransform="matrix(1 0 0 -1 0 -426)" gradientUnits="userSpaceOnUse"><stop offset="0" stop-color="#32bdef"/><stop offset="1" stop-color="#1ea2e4"/></linearGradient><path fill="url(#ZmZFrIMYZ6RgXrNkoG46Eb)" d="M29.393,11H26V1c0-0.552-0.448-1-1-1h-2c-0.552,0-1,0.448-1,1v10h-3.393	c-0.54,0-0.81,0.653-0.428,1.034l4.964,4.964c0.473,0.473,1.241,0.473,1.714,0l4.964-4.964C30.203,11.653,29.933,11,29.393,11z"/></svg>