<svg xmlns="http://www.w3.org/2000/svg" viewBox="0 0 48 48"><linearGradient id="sltf3xKyc9V~aInIlOPKoa" x1="11" x2="37" y1="24" y2="24" gradientUnits="userSpaceOnUse"><stop offset="0" stop-color="#ae4cd5"/><stop offset="1" stop-color="#ac4ad5"/></linearGradient><path fill="url(#sltf3xKyc9V~aInIlOPKoa)" d="M14,41h-2c-0.552,0-1-0.448-1-1V8c0-0.552,0.448-1,1-1l14.688,0	c5.196,0,9.756,3.833,10.263,9.005C37.534,21.946,32.829,27,27,27H15v13C15,40.552,14.552,41,14,41z M15,23h12c3.3,0,6-2.7,6-6	s-2.7-6-6-6H15V23z"/><linearGradient id="sltf3xKyc9V~aInIlOPKob" x1="15" x2="37" y1="32" y2="32" gradientUnits="userSpaceOnUse"><stop offset="0" stop-color="#ae4cd5"/><stop offset="1" stop-color="#ac4ad5"/></linearGradient><path fill="url(#sltf3xKyc9V~aInIlOPKob)" d="M36,41h-2c-0.552,0-1-0.448-1-1v-7c0-3.3-2.7-6-6-6H15v-4h12c5.5,0,10,4.5,10,10v7	C37,40.552,36.552,41,36,41z"/></svg>