<svg xmlns="http://www.w3.org/2000/svg" viewBox="0 0 48 48"><path fill="#456e7b" d="M45,12v6h-3.56c-0.43,0-0.81,0.27-0.95,0.68L39.05,23H8.95l-1.44-4.32C7.37,18.27,6.99,18,6.56,18H3	v-6h3.65c0.41,0,0.77-0.25,0.92-0.63l0.75-1.86C8.93,7.99,10.39,7,12.03,7h23.94c1.64,0,3.1,0.99,3.71,2.52l0.75,1.85	c0.15,0.38,0.51,0.63,0.92,0.63H45z"/><linearGradient id="VKg~MQK3tmn0KI3Fboxm5a" x1="23.792" x2="24.683" y1="5.297" y2="38.33" gradientUnits="userSpaceOnUse"><stop offset="0" stop-color="#f29100"/><stop offset="1" stop-color="#e84e1b"/></linearGradient><path fill="url(#VKg~MQK3tmn0KI3Fboxm5a)" d="M3,14h3.646c1.233,0,2.326-0.74,2.785-1.886l0.743-1.858C10.479,9.493,11.208,9,12.03,9 h23.938c0.822,0,1.552,0.494,1.856,1.258l0.743,1.857C39.027,13.26,40.12,14,41.354,14H45c0.553,0,1-0.448,1-1s-0.447-1-1-1h-3.646 c-0.411,0-0.775-0.247-0.928-0.628l-0.743-1.856C39.072,7.987,37.614,7,35.969,7H12.03c-1.645,0-3.102,0.986-3.713,2.514 l-0.743,1.858C7.422,11.753,7.058,12,6.646,12H3c-0.553,0-1,0.448-1,1S2.447,14,3,14z"/><linearGradient id="VKg~MQK3tmn0KI3Fboxm5b" x1="24" x2="24" y1="19.418" y2="34.004" gradientUnits="userSpaceOnUse"><stop offset="0" stop-color="#f29100"/><stop offset="1" stop-color="#e84e1b"/></linearGradient><path fill="url(#VKg~MQK3tmn0KI3Fboxm5b)" d="M45,16h-3.558c-1.293,0-2.438,0.825-2.846,2.052l-0.661,1.984 C37.013,20.57,35.616,21.176,34,21c-2.38-0.259-2.906-1.962-5-2c-2.284-0.042-2.633,1.967-5,2c-2.363,0.033-2.62-1.96-5-2 c-2.471-0.042-3.297,2.088-6,2c-1.253-0.041-2.262-0.537-2.933-0.961l-0.662-1.987C8.996,16.825,7.852,16,6.558,16H3 c-0.553,0-1,0.448-1,1s0.447,1,1,1h3.558c0.432,0,0.813,0.275,0.95,0.685l3.228,9.684c0.297,0.892,1.007,1.601,1.889,1.895 l10.428,3.581c0.047,0.016,0.095,0.022,0.143,0.035c-0.007,0.008-0.016,0.02-0.024,0.028c0.282,0.002,0.564,0.001,0.846,0.008 c0.278,0.003,0.556,0.011,0.834,0.016c-0.014-0.016-0.031-0.037-0.045-0.053c0.051-0.014,0.102-0.021,0.153-0.038l10.409-3.575 c0.892-0.296,1.602-1.005,1.898-1.897l3.228-9.684C40.63,18.275,41.012,18,41.442,18H45c0.553,0,1-0.448,1-1S45.553,16,45,16z"/><path fill="#a0b2b6" d="M46,13c0,0.55-0.45,1-1,1h-3.65c-1.23,0-2.32-0.74-2.78-1.89l-0.74-1.85C37.52,9.49,36.79,9,35.97,9	H12.03c-0.82,0-1.55,0.49-1.86,1.26l-0.74,1.85C8.97,13.26,7.88,14,6.65,14H3c-0.55,0-1-0.45-1-1s0.45-1,1-1h3.65	c0.41,0,0.77-0.25,0.92-0.63l0.75-1.86C8.93,7.99,10.39,7,12.03,7h23.94c1.64,0,3.1,0.99,3.71,2.52l0.75,1.85	c0.15,0.38,0.51,0.63,0.92,0.63H45C45.55,12,46,12.45,46,13z"/><path fill="#a0b2b6" d="M46,17c0,0.55-0.45,1-1,1h-3.56c-0.43,0-0.81,0.27-0.95,0.68L39.05,23l-1.78,5.37	c-0.3,0.89-1.01,1.6-1.9,1.9l-10.41,3.57C24.64,33.95,24.32,34,24,34s-0.64-0.05-0.95-0.16l-10.43-3.58c-0.88-0.29-1.59-1-1.88-1.89	L8.95,23l-1.44-4.32C7.37,18.27,6.99,18,6.56,18H3c-0.55,0-1-0.45-1-1s0.45-1,1-1h3.56C7.85,16,9,16.82,9.4,18.05L11.05,23	l1.58,4.74c0.1,0.29,0.34,0.53,0.63,0.63l10.43,3.58c0.2,0.07,0.42,0.07,0.63,0l10.41-3.58c0.3-0.1,0.54-0.34,0.64-0.63L36.95,23	l1.65-4.95C39,16.82,40.15,16,41.44,16H45C45.55,16,46,16.45,46,17z"/><linearGradient id="VKg~MQK3tmn0KI3Fboxm5c" x1="23.892" x2="24.09" y1="36.544" y2="46.533" gradientUnits="userSpaceOnUse"><stop offset="0" stop-color="#f29100"/><stop offset="1" stop-color="#e84e1b"/></linearGradient><path fill="url(#VKg~MQK3tmn0KI3Fboxm5c)" d="M28,42c0,2.209-1.791,4-4,4s-4-1.791-4-4c0-3,4-7,4-7S28,39,28,42z"/></svg>