<svg xmlns="http://www.w3.org/2000/svg" viewBox="0 0 48 48"><path fill="#ffb74d" d="M30,42v-2.602l2.602,0.5c2.898,0.602,5.598-1.5,5.797-4.398L39,29l2.898-1.199 c1-0.402,1.402-1.602,0.801-2.602L39,19c-0.602-7.602-4.898-15-16-15C11.602,4,6,12.398,6,21c0,3.699,1.301,6.898,3.301,9.602 c1.801,2.5,2.699,5.5,2.699,8.5V42c0,1.105,0.895,2,2,2h14C29.105,44,30,43.105,30,42z"/><path d="M26.302,10C25.033,10,24,11.033,24,12.302V17c0-1.373-0.415-3.308-0.718-4.72 c-0.084-0.392-0.159-0.742-0.213-1.023C22.928,10.528,22.289,10,21.548,10c-0.751,0-1.378,0.537-1.519,1.247 C19.897,10.537,19.261,10,18.509,10c-0.764,0-1.397,0.529-1.538,1.251C16.833,10.539,16.204,10,15.452,10 c-0.741,0-1.38,0.528-1.521,1.255c-0.054,0.283-0.129,0.633-0.213,1.025C13.415,13.692,13,15.627,13,17 c0,3.452,1.933,5.024,3,5.629V30.5c0,1.378,1.122,2.5,2.5,2.5s2.5-1.122,2.5-2.5v-7.871c1.067-0.605,3-2.178,3-5.629v13.5 c0,1.378,1.122,2.5,2.5,2.5s2.5-1.122,2.5-2.5v-5.02l1.025-0.995l0.029-0.028l0.027-0.031C30.674,23.749,31,22.88,31,21.98V20 c0-4.092-1.923-7.606-2.75-8.927C27.829,10.401,27.101,10,26.302,10L26.302,10z" opacity=".05"/><path d="M26.302,10.5c-0.994,0-1.802,0.809-1.802,1.802V30.5c0,1.103,0.897,2,2,2s2-0.897,2-2v-5.231 l1.176-1.142c0.541-0.616,0.824-1.368,0.824-2.147V20c0-3.962-1.87-7.377-2.674-8.662C27.497,10.813,26.928,10.5,26.302,10.5 L26.302,10.5z M21.548,10.5c-0.578,0-1.048,0.47-1.048,1.048v4.807c0,0.08-0.065,0.145-0.145,0.145 c-0.074,0-0.136-0.055-0.144-0.129l-0.661-4.951c-0.058-0.52-0.506-0.921-1.041-0.921c-0.553,0-1.001,0.401-1.06,0.933 l-0.659,4.928c-0.009,0.084-0.071,0.139-0.145,0.139c-0.08,0-0.145-0.065-0.145-0.145v-4.807c0-0.578-0.47-1.048-1.048-1.048 c-0.502,0-0.935,0.358-1.03,0.85c-0.054,0.285-0.13,0.639-0.215,1.035C13.908,13.775,13.5,15.68,13.5,17 c0,3.526,2.144,4.916,3,5.33v8.17c0,1.103,0.897,2,2,2s2-0.897,2-2v-8.17c0.856-0.414,3-1.804,3-5.33 c0-1.32-0.408-3.225-0.707-4.615c-0.085-0.396-0.161-0.75-0.215-1.034C22.483,10.858,22.05,10.5,21.548,10.5L21.548,10.5z" opacity=".07"/><path fill="#0078d4" d="M27.402,11.604C28.22,12.91,30,16.191,30,20v1.98c0,0.657-0.239,1.293-0.672,1.788L28,25.058V30.5 c0,0.828-0.672,1.5-1.5,1.5S25,31.328,25,30.5V12.302C25,11.583,25.583,11,26.302,11h0C26.75,11,27.165,11.224,27.402,11.604z M23,17c0,4-3,5-3,5v8.5c0,0.828-0.672,1.5-1.5,1.5S17,31.328,17,30.5V22c0,0-3-1-3-5c0-1.638,0.671-4.287,0.913-5.555 C14.963,11.186,15.189,11,15.452,11C15.755,11,16,11.245,16,11.548v4.807C16,16.711,16.289,17,16.645,17 c0.329,0,0.605-0.247,0.641-0.573l0.66-4.939C17.977,11.21,18.211,11,18.491,11H18.5h0.009c0.28,0,0.514,0.21,0.545,0.487 l0.66,4.939C19.75,16.753,20.026,17,20.355,17C20.711,17,21,16.711,21,16.355v-4.807C21,11.245,21.245,11,21.548,11 c0.263,0,0.489,0.186,0.539,0.445C22.329,12.713,23,15.362,23,17z"/></svg>