<svg xmlns="http://www.w3.org/2000/svg" viewBox="0 0 48 48"><linearGradient id="292ZNU5MPmDF0766Lv66ba" x1="19.19" x2="26.613" y1="3.655" y2="44.409" gradientUnits="userSpaceOnUse"><stop offset="0" stop-color="#f44f5a"/><stop offset=".443" stop-color="#ee3d4a"/><stop offset="1" stop-color="#e52030"/></linearGradient><path fill="url(#292ZNU5MPmDF0766Lv66ba)" d="M39,30c0,8.284-6.716,15-15,15S9,38.284,9,30C9,20.515,20.152,6.935,23.224,3.374	c0.411-0.477,1.14-0.477,1.551,0C27.848,6.935,39,20.515,39,30z"/><linearGradient id="292ZNU5MPmDF0766Lv66bb" x1="21.114" x2="25.568" y1="20.193" y2="44.646" gradientUnits="userSpaceOnUse"><stop offset="0" stop-color="#fed100"/><stop offset=".156" stop-color="#fdcb00"/><stop offset=".365" stop-color="#f9ba00"/><stop offset=".604" stop-color="#f29e00"/><stop offset=".863" stop-color="#e97701"/><stop offset="1" stop-color="#e36001"/></linearGradient><path fill="url(#292ZNU5MPmDF0766Lv66bb)" d="M33,36c0,4.971-4.029,9-9,9s-9-4.029-9-9c0-5.691,6.691-13.839,8.535-15.976	c0.247-0.286,0.684-0.286,0.931,0C26.309,22.161,33,30.309,33,36z"/></svg>