<svg xmlns="http://www.w3.org/2000/svg" viewBox="0 0 48 48"><linearGradient id="1Kd4~ghL9xorQMmPuLc3Wa" x1="9.858" x2="38.387" y1="-27.858" y2="-56.387" gradientTransform="matrix(1 0 0 -1 0 -18)" gradientUnits="userSpaceOnUse"><stop offset="0" stop-color="#00bffe"/><stop offset="1" stop-color="#1d55c4"/></linearGradient><path fill="url(#1Kd4~ghL9xorQMmPuLc3Wa)" d="M44,24c0,11.045-8.955,20-20,20S4,35.045,4,24S12.955,4,24,4S44,12.955,44,24z"/><linearGradient id="1Kd4~ghL9xorQMmPuLc3Wb" x1="3.988" x2="32.392" y1="5.578" y2="41.323" gradientUnits="userSpaceOnUse"><stop offset="0" stop-color="#84e1fe"/><stop offset="1" stop-color="#167cf7"/></linearGradient><path fill="url(#1Kd4~ghL9xorQMmPuLc3Wb)" d="M25.818,34.089c-0.515-0.198-2.008-2.009-2.174-2.173c-0.171-0.164-0.933-0.38-1.286-0.31	s-2.008,1.15-2.474,1.239c-0.461,0.089-0.865-0.314-1.084-0.929c-0.22-0.615-0.605-3.102-0.296-3.727	c0.309-0.625,3.564-3.005,4.248-3.005c0.686,0,1.17,2.136,1.878,2.276c0.708,0.14,0.394-1.887,1.286-1.859	c0.892,0.028,1.676,3.102,1.676,3.102s0.973,1.549,0.892,2.075c-0.085,0.521-1.107,2.717-1.385,2.999	C26.826,34.06,26.333,34.286,25.818,34.089z"/><linearGradient id="1Kd4~ghL9xorQMmPuLc3Wc" x1="8.126" x2="36.531" y1="2.29" y2="38.034" gradientUnits="userSpaceOnUse"><stop offset="0" stop-color="#84e1fe"/><stop offset="1" stop-color="#167cf7"/></linearGradient><path fill="url(#1Kd4~ghL9xorQMmPuLc3Wc)" d="M32.445,34.874c-0.339,0-0.67-0.159-0.879-0.456c-0.339-0.482-0.222-1.147,0.259-1.489	c-0.084-0.097-0.18-0.201-0.268-0.288c-0.427-0.41-0.443-1.084-0.034-1.511c0.406-0.427,1.084-0.443,1.511-0.042	c0.515,0.489,1.113,1.226,1.063,1.983c-0.054,0.858-0.811,1.452-1.042,1.611C32.867,34.811,32.659,34.874,32.445,34.874z"/><linearGradient id="1Kd4~ghL9xorQMmPuLc3Wd" x1="4.696" x2="33.101" y1="5.015" y2="40.76" gradientUnits="userSpaceOnUse"><stop offset="0" stop-color="#84e1fe"/><stop offset="1" stop-color="#167cf7"/></linearGradient><path fill="url(#1Kd4~ghL9xorQMmPuLc3Wd)" d="M28.523,38.58c-0.302,0-0.605-0.122-0.831-0.357c-0.442-0.456-0.433-1.187,0.027-1.63	l2.18-2.103c0.46-0.447,1.192-0.433,1.634,0.027c0.442,0.46,0.429,1.192-0.027,1.634l-2.18,2.103	C29.099,38.471,28.811,38.58,28.523,38.58z"/><linearGradient id="1Kd4~ghL9xorQMmPuLc3We" x1="3.571" x2="31.975" y1="5.91" y2="41.654" gradientUnits="userSpaceOnUse"><stop offset="0" stop-color="#84e1fe"/><stop offset="1" stop-color="#167cf7"/></linearGradient><path fill="url(#1Kd4~ghL9xorQMmPuLc3We)" d="M23.031,8.35c-0.695,0.046-1.69,0.489-1.854,0.448c-0.159-0.042-0.419-0.226-0.569-0.276	c-0.155-0.054-1.966,0.138-2.36,0.264c-0.397,0.121-1.213,0.745-1.603,0.707c-0.385-0.042-0.213-0.498-0.423-0.531	c-0.209-0.034-0.95,0.482-1.519,0.469c-0.569-0.012-1.13-0.816-2.042-0.962c-0.32-0.054-0.684-0.15-1.34,0.066	C6.852,12.204,4,17.768,4,24c0,3.671,1.006,7.099,2.732,10.056c0.022-0.052,0.047-0.104,0.058-0.154	c0.12-0.569-0.369-3.853-0.391-4.468c-0.021-0.62,0.959-2.887,0.598-3.159c-0.364-0.272-0.644,0.339-0.887,0.159	c-0.242-0.176-1.565-1.762-1.686-2.055c-0.117-0.297-0.46-1.406-0.1-1.473c0.36-0.071,1.988,2.009,2.289,2.184	c0.301,0.172,0.565,0.025,0.887-0.163c0.318-0.189,0.728-1.394,0.498-1.632c-0.23-0.239-2.226-0.946-2.042-1.247	c0.18-0.301,2.029,0.109,2.029,0.109s1.067-0.008,1.561,0.23c0.489,0.242,1.071,1.703,1.465,2.046	c0.397,0.343,1.209,0.841,1.364,0.569c0.155-0.272-0.377-1.067-0.368-1.406c0.008-0.334,0.816-1.782,1.218-1.891	c0.397-0.109,1.051,0.577,1.335,1.009c0.285,0.427,1.255,2.293,1.67,2.272c0.414-0.021,0.657-1.678,0.46-2.046	c-0.196-0.373-1.097-0.858-1.088-1.427c0.008-0.574,0.795,0.1,1.189-0.104c0.393-0.201,1.167-2.252,0.954-2.891	c-0.218-0.64-0.925-0.942-0.92-1.327c0-0.385,1.891-0.933,2.36-1.339c0.469-0.402,0.695-1.469,0.515-1.85s-0.85-0.69-0.854-1.347	c-0.008-0.653,2.641-2.243,2.959-2.063c0.314,0.18-0.097,2.431,0.38,2.54c0.477,0.113,0.414-1.963,0.673-2.603	c0.255-0.644,2.164-1.268,2.189-1.682C25.077,8.438,23.725,8.3,23.031,8.35z"/><linearGradient id="1Kd4~ghL9xorQMmPuLc3Wf" x1="19.243" x2="47.647" y1="-6.544" y2="29.201" gradientUnits="userSpaceOnUse"><stop offset="0" stop-color="#84e1fe"/><stop offset="1" stop-color="#167cf7"/></linearGradient><path fill="url(#1Kd4~ghL9xorQMmPuLc3Wf)" d="M39.527,25.09c0.531-0.088-1.57-3.092-1.495-3.632c0.075-0.535,1.029-0.799,1.615-0.419	c0.59,0.38,1.708,2.195,2.101,1.853c0.393-0.347-0.085-1.813,0.14-2.198c0.12-0.206,0.846-0.68,1.597-1.146	c-0.243-1.067-0.565-2.104-0.971-3.099c-0.608-0.008-1.189-0.024-1.252-0.054c-0.143-0.063-1.031-0.515-0.893-1.009	c0.101-0.356,0.927-0.313,1.476-0.383c-0.904-1.789-2.062-3.423-3.437-4.853c-0.227,0.251-0.471,0.464-0.669,0.495	c-0.518,0.08-2.443-0.972-2.766-1.035c-0.322-0.058-1.318,0.52-1.816,0.512c-0.498-0.012-1.614-1.402-1.89-1.543	c-0.281-0.146-1.297-0.209-1.561-0.067c-0.259,0.146-0.69,1.029-0.544,1.498c0.143,0.473,0.558,1.236,0.507,1.486	c-0.046,0.247-1.055,0.736-1.109,1.201c-0.058,0.46,2.417-0.579,2.981-0.584c0.565-0.005,1.009,0.008,1.222,0.259	c0.209,0.255,2.341,2.896,2.5,3.607c0.163,0.716-0.007,2.049,0.172,2.552c0.177,0.502,0.479,1.494,0.479,1.494l1.791,3.419	C37.705,23.445,38.999,25.177,39.527,25.09z"/><linearGradient id="1Kd4~ghL9xorQMmPuLc3Wg" x1="13.056" x2="41.461" y1="-1.628" y2="34.117" gradientUnits="userSpaceOnUse"><stop offset="0" stop-color="#84e1fe"/><stop offset="1" stop-color="#167cf7"/></linearGradient><path fill="url(#1Kd4~ghL9xorQMmPuLc3Wg)" d="M42.714,25.193c-0.189-0.072-1.672,0.308-1.957,0.673c-0.29,0.366-0.189,0.897-0.457,1.061	s-0.838-0.198-1.089,0.307c-0.25,0.505,0.163,2.408,0.377,2.757c0.216,0.349,0.68,0.56,0.79,1.015	c0.11,0.455-0.531,1.338-0.531,1.338l-2.984,4.024c0,0-0.526,1.035-0.517,1.561c0.009,0.53,0.448,0.804,0.724,0.703	c0.276-0.096,0.566-1.178,0.566-1.178s0.93-1.183,1.51-1.528c0.464-0.282,0.896-0.418,1.287-0.54	c1.727-2.488,2.889-5.388,3.34-8.521C43.384,26.194,42.846,25.243,42.714,25.193z"/></svg>