<svg xmlns="http://www.w3.org/2000/svg" xmlns:xlink="http://www.w3.org/1999/xlink" data-name="Слой 1" viewBox="0 0 48 48"><defs><linearGradient id="bThkXtM6aneBsNwPlw1~Pa" x1="34.774" x2="24.901" y1="16" y2="16" data-name="Безымянный градиент 17" gradientUnits="userSpaceOnUse"><stop offset="0" stop-color="#a1aab3"/><stop offset="1" stop-color="#8f979e"/></linearGradient><linearGradient id="bThkXtM6aneBsNwPlw1~Pb" x1="34.774" x2="24.901" y1="11" y2="11" xlink:href="#bThkXtM6aneBsNwPlw1~Pa"/><linearGradient id="bThkXtM6aneBsNwPlw1~Pc" x1="20.436" x2="42.977" y1="34" y2="34" data-name="Безымянный градиент 96" gradientUnits="userSpaceOnUse"><stop offset=".04" stop-color="#64717c"/><stop offset=".337" stop-color="#8f979e"/><stop offset=".744" stop-color="#99a1a9"/><stop offset="1" stop-color="#a1aab3"/></linearGradient><linearGradient id="bThkXtM6aneBsNwPlw1~Pd" x1="25.049" x2="26.271" y1="3.472" y2="9.537" xlink:href="#bThkXtM6aneBsNwPlw1~Pa"/><linearGradient id="bThkXtM6aneBsNwPlw1~Pe" x1="11.812" x2="19.736" y1="9.578" y2="51.643" xlink:href="#bThkXtM6aneBsNwPlw1~Pa"/></defs><path fill="url(#bThkXtM6aneBsNwPlw1~Pa)" d="M28.5,17h-6a.5.5,0,0,1,0-1h5.88184l1.89453-.94727a.50006.50006,0,0,1,.44726.89454l-2,1A.50687.50687,0,0,1,28.5,17Z"/><path fill="url(#bThkXtM6aneBsNwPlw1~Pb)" d="M29.5,12h-4a.5.5,0,0,1,0-1h3.88184l1.89453-.94727a.50006.50006,0,0,1,.44726.89454l-2,1A.50687.50687,0,0,1,29.5,12Z"/><ellipse cx="33" cy="10.5" fill="#64717c" rx="2" ry="1.5"/><ellipse cx="32" cy="15.5" fill="#64717c" rx="2" ry="1.5"/><path fill="url(#bThkXtM6aneBsNwPlw1~Pc)" d="M21.75,26H40a0,0,0,0,1,0,0V40a2,2,0,0,1-2,2H21.75a0,0,0,0,1,0,0V26A0,0,0,0,1,21.75,26Z"/><path fill="#64717c" d="M26.414,16.58678,24,19l-1-4.25L24,13V7.7498L27,7.751v7.42139A2,2,0,0,1,26.414,16.58678Z"/><path fill="url(#bThkXtM6aneBsNwPlw1~Pd)" d="M22.70428,5.00095h5.59144a.70594.70594,0,0,1,.49917,1.20511L27,8.001H24L22.20511,6.20606A.70594.70594,0,0,1,22.70428,5.00095Z"/><path fill="#64717c" d="M24,26H40.625A1.375,1.375,0,0,1,42,27.375v0a1.375,1.375,0,0,1-1.375,1.375H24a0,0,0,0,1,0,0V26a0,0,0,0,1,0,0Z"/><rect width="18" height="31" x="6" y="11" fill="url(#bThkXtM6aneBsNwPlw1~Pe)" rx="2"/><path d="M12,32a4,4,0,1,1-4,4,4,4,0,0,1,4-4m0-1a5,5,0,1,0,5,5,5.00566,5.00566,0,0,0-5-5Z" opacity=".05"/><path d="M12,32a4,4,0,1,1-4,4,4,4,0,0,1,4-4m0-.5A4.5,4.5,0,1,0,16.5,36,4.50509,4.50509,0,0,0,12,31.5Z" opacity=".07"/><circle cx="12" cy="36" r="4" fill="#64717c"/><g><path d="M18,16a1,1,0,0,1,1,1v2a1,1,0,0,1-1,1H12a1,1,0,0,1-1-1V17a1,1,0,0,1,1-1h6m0-1H12a2.00228,2.00228,0,0,0-2,2v2a2.00228,2.00228,0,0,0,2,2h6a2.00228,2.00228,0,0,0,2-2V17a2.00228,2.00228,0,0,0-2-2Z" opacity=".05"/><path d="M18,16a1,1,0,0,1,1,1v2a1,1,0,0,1-1,1H12a1,1,0,0,1-1-1V17a1,1,0,0,1,1-1h6m0-.5H12A1.50171,1.50171,0,0,0,10.5,17v2A1.50171,1.50171,0,0,0,12,20.5h6A1.50171,1.50171,0,0,0,19.5,19V17A1.50171,1.50171,0,0,0,18,15.5Z" opacity=".07"/><rect width="8" height="4" x="11" y="16" fill="#fff" rx="1"/></g></svg>