<svg xmlns="http://www.w3.org/2000/svg" baseProfile="basic" viewBox="0 0 48 48"><linearGradient id="cDn9LsDH9SvzWOHa59E9Xa" x1="14.396" x2="30.694" y1="24" y2="24" gradientUnits="userSpaceOnUse"><stop offset="0" stop-color="#32bdef"/><stop offset="1" stop-color="#1ea2e4"/></linearGradient><path fill="url(#cDn9LsDH9SvzWOHa59E9Xa)" fill-rule="evenodd" d="M24.178,18.822	c-1.548,0-2.803,1.255-2.803,2.803v4.782c0,0.875-0.709,1.584-1.584,1.584h-5.395v1.187h6.416c1.548,0,2.803-1.255,2.803-2.803	v-4.782c0-0.875,0.709-1.584,1.584-1.584l5.495,0v-1.187H24.178z" clip-rule="evenodd"/><linearGradient id="cDn9LsDH9SvzWOHa59E9Xb" x1="0" x2="15.134" y1="24" y2="24" gradientUnits="userSpaceOnUse"><stop offset="0" stop-color="#32bdef"/><stop offset="1" stop-color="#1ea2e4"/></linearGradient><path fill="url(#cDn9LsDH9SvzWOHa59E9Xb)" fill-rule="evenodd" d="M0,18.822v1.187h11.269	c0.898,0,1.626,0.728,1.626,1.626c0,0.898-0.728,1.626-1.626,1.626H2.803C1.255,23.262,0,24.516,0,26.064v3.114h2.24v-3.145	c0-0.875,0.709-1.584,1.584-1.584h8.497c1.554,0,2.813-1.26,2.813-2.813c0-1.554-1.26-2.813-2.813-2.813H0z" clip-rule="evenodd"/><linearGradient id="cDn9LsDH9SvzWOHa59E9Xc" x1="32.852" x2="48" y1="24" y2="24" gradientUnits="userSpaceOnUse"><stop offset="0" stop-color="#32bdef"/><stop offset="1" stop-color="#1ea2e4"/></linearGradient><path fill="url(#cDn9LsDH9SvzWOHa59E9Xc)" fill-rule="evenodd" d="M32.852,18.822v3.867	c0,0.972,0.788,1.76,1.76,1.76h9.377c0.978,0,1.771,0.793,1.771,1.771c0,0.978-0.793,1.771-1.771,1.771H32.852v1.187h12.189	c1.634,0,2.958-1.324,2.958-2.958c0-1.634-1.324-2.958-2.958-2.958h-9.242c-0.391,0-0.707-0.317-0.707-0.707v-2.545h12.502v-1.187	H32.852z" clip-rule="evenodd"/></svg>