<svg xmlns="http://www.w3.org/2000/svg" viewBox="0 0 48 48"><path fill="#c74343" d="M6,23c-2.206,0-4-1.794-4-4c0-0.552,0.447-1,1-1s1,0.448,1,1c0,1.103,0.897,2,2,2s2-0.897,2-2	c0-0.552,0.447-1,1-1s1,0.448,1,1C10,21.206,8.206,23,6,23z"/><linearGradient id="TO2C57YIj_o3h4Wd3fCKJa" x1="19.617" x2="37.667" y1="11.877" y2="43.063" gradientUnits="userSpaceOnUse"><stop offset="0" stop-color="#f05964"/><stop offset="1" stop-color="#d4414c"/></linearGradient><path fill="url(#TO2C57YIj_o3h4Wd3fCKJa)" d="M37,34l-8,2l5.974,7.263C35.358,43.73,35.93,44,36.535,44h0c1.275,0,2.232-1.167,1.982-2.417	L37,34z"/><linearGradient id="TO2C57YIj_o3h4Wd3fCKJb" x1="3.337" x2="20.857" y1="21.587" y2="51.859" gradientUnits="userSpaceOnUse"><stop offset="0" stop-color="#f05964"/><stop offset="1" stop-color="#d4414c"/></linearGradient><path fill="url(#TO2C57YIj_o3h4Wd3fCKJb)" d="M10,34l8,2l-5.439,7.252C12.208,43.723,11.654,44,11.065,44h0c-1.106,0-1.97-0.955-1.86-2.055	L10,34z"/><linearGradient id="TO2C57YIj_o3h4Wd3fCKJc" x1="27.287" x2="44.808" y1="5.303" y2="35.576" gradientUnits="userSpaceOnUse"><stop offset="0" stop-color="#f05964"/><stop offset="1" stop-color="#d4414c"/></linearGradient><path fill="url(#TO2C57YIj_o3h4Wd3fCKJc)" d="M44,22l-3,0l-4.55,13.309l7.493-4.166C45.213,30.438,46,29.099,46,27.647V24	C46,22.895,45.105,22,44,22z"/><linearGradient id="TO2C57YIj_o3h4Wd3fCKJd" x1="30" x2="49.041" y1="3.725" y2="36.624" gradientUnits="userSpaceOnUse"><stop offset="0" stop-color="#f05964"/><stop offset="1" stop-color="#d4414c"/></linearGradient><path fill="url(#TO2C57YIj_o3h4Wd3fCKJd)" d="M30,15c3-7,9-7,9-7l-1,9L30,15z"/><linearGradient id="TO2C57YIj_o3h4Wd3fCKJe" x1="16.198" x2="34.655" y1="12.519" y2="44.41" gradientUnits="userSpaceOnUse"><stop offset="0" stop-color="#f05964"/><stop offset="1" stop-color="#d4414c"/></linearGradient><ellipse cx="24" cy="26" fill="url(#TO2C57YIj_o3h4Wd3fCKJe)" rx="19" ry="16"/><radialGradient id="TO2C57YIj_o3h4Wd3fCKJf" cx="36.5" cy="23.5" r="2.5" gradientUnits="userSpaceOnUse"><stop offset="0"/><stop offset="1" stop-opacity="0"/></radialGradient><circle cx="36.5" cy="23.5" r="2.5" fill="url(#TO2C57YIj_o3h4Wd3fCKJf)" opacity=".3"/><path fill="#fff" d="M36.5,22c-0.828,0-1.5,0.672-1.5,1.5s0.672,1.5,1.5,1.5s1.5-0.672,1.5-1.5S37.328,22,36.5,22z"/><path fill="#c23b44" d="M26.5,13h-11c-0.828,0-1.5,0.672-1.5,1.5v0c0,0.828,0.672,1.5,1.5,1.5h11c0.828,0,1.5-0.672,1.5-1.5	v0C28,13.672,27.328,13,26.5,13z"/><linearGradient id="TO2C57YIj_o3h4Wd3fCKJg" x1="16.198" x2="25.937" y1="5.193" y2="14.932" gradientUnits="userSpaceOnUse"><stop offset="0" stop-color="#fede00"/><stop offset="1" stop-color="#ffd000"/></linearGradient><path fill="url(#TO2C57YIj_o3h4Wd3fCKJg)" d="M17.408,16h7.184C26.631,14.777,28,12.551,28,10c0-3.866-3.134-7-7-7s-7,3.134-7,7	C14,12.551,15.369,14.777,17.408,16z"/><circle cx="21" cy="10" r="5" fill="#f5be00"/></svg>