<svg xmlns="http://www.w3.org/2000/svg" viewBox="0 0 48 48"><path fill="#35c1f1" d="M40,43H22V7h18c1.105,0,2,0.895,2,2v32C42,42.105,41.105,43,40,43z"/><path fill="#199be2" d="M14.447,3.224C14.306,3.153,14.153,3.118,14,3.118v36c0.153,0,0.306,0.035,0.447,0.106L22,43V7	L14.447,3.224z"/><path fill="#50e6ff" d="M13.553,3.224L7.106,6.447C6.428,6.786,6,7.479,6,8.236v33.146c0,0.743,0.782,1.227,1.447,0.894	l6.106-3.053c0.141-0.07,0.294-0.106,0.447-0.106v-36C13.847,3.118,13.694,3.153,13.553,3.224z"/><path fill="#1a7ecf" d="M29,17c3.859,0,7,3.141,7,7s-3.141,7-7,7h-3c-0.553,0-1,0.447-1,1s0.447,1,1,1h3c4.963,0,9-4.037,9-9	s-4.037-9-9-9h-6.764L22,14.882V17H29z"/><polygon fill="#235199" points="14,13.118 21.764,17 22,17 22,14.882 14,10.882"/><linearGradient id="9AF92T_OJbFfxv6tn_6fJa" x1="34.5" x2="39.5" y1="24" y2="24" gradientUnits="userSpaceOnUse"><stop offset="0" stop-color="#c965eb"/><stop offset="1" stop-color="#c767e5"/></linearGradient><circle cx="37" cy="24" r="2.5" fill="url(#9AF92T_OJbFfxv6tn_6fJa)"/><linearGradient id="9AF92T_OJbFfxv6tn_6fJb" x1="23.5" x2="28.5" y1="32" y2="32" gradientUnits="userSpaceOnUse"><stop offset="0" stop-color="#c965eb"/><stop offset="1" stop-color="#c767e5"/></linearGradient><circle cx="26" cy="32" r="2.5" fill="url(#9AF92T_OJbFfxv6tn_6fJb)"/><linearGradient id="9AF92T_OJbFfxv6tn_6fJc" x1="16.466" x2="20.534" y1="14.235" y2="14.235" gradientUnits="userSpaceOnUse"><stop offset="0" stop-color="#ae4cd5"/><stop offset="1" stop-color="#ac4ad5"/></linearGradient><path fill="url(#9AF92T_OJbFfxv6tn_6fJc)" d="M20.533,15.273c0,1.497-0.91,2.246-2.033,1.673s-2.033-2.252-2.033-3.75	s0.91-2.246,2.033-1.673S20.533,13.776,20.533,15.273z"/><polygon fill="#199be2" points="8,13.885 8,16.122 14,13.118 14,10.882"/></svg>