<svg xmlns="http://www.w3.org/2000/svg" viewBox="0 0 48 48"><linearGradient id="7pmjlVaD8BrRAtGb6Hq45a" x1="37" x2="37" y1="346.555" y2="360.08" gradientTransform="matrix(0 1 -1 0 388.11 0)" gradientUnits="userSpaceOnUse"><stop offset=".365" stop-color="#199ae0"/><stop offset=".699" stop-color="#1898de"/><stop offset=".819" stop-color="#1691d8"/><stop offset=".905" stop-color="#1186cc"/><stop offset=".974" stop-color="#0a75bc"/><stop offset="1" stop-color="#076cb3"/></linearGradient><path fill="url(#7pmjlVaD8BrRAtGb6Hq45a)" d="M25.168,45.516L40.644,30.04c0.753-0.753,0.22-2.04-0.845-2.04H27l-7.517,11.832 c-0.645,0.645-0.645,1.69,0,2.335l3.349,3.349C23.477,46.161,24.523,46.161,25.168,45.516z"/><linearGradient id="7pmjlVaD8BrRAtGb6Hq45b" x1="42.293" x2="5.135" y1="370.108" y2="370.108" gradientTransform="matrix(0 1 -1 0 388.11 0)" gradientUnits="userSpaceOnUse"><stop offset="0" stop-color="#1ea2e4"/><stop offset="1" stop-color="#32bdef"/></linearGradient><path fill="url(#7pmjlVaD8BrRAtGb6Hq45b)" d="M25.167,45.516l3.349-3.349C28.839,41.845,29,41.423,29,41V4c0-1.105-0.895-2-2-2h-6 c-1.105,0-2,0.895-2,2v24H8.201c-1.065,0-1.598,1.287-0.845,2.04l15.476,15.476C23.477,46.161,24.523,46.161,25.167,45.516z"/></svg>