<svg xmlns="http://www.w3.org/2000/svg" viewBox="0 0 48 48"><path fill="#50e6ff" d="M39,16v25c0,1.105-0.895,2-2,2H11c-1.105,0-2-0.895-2-2V7c0-1.105,0.895-2,2-2h17L39,16z"/><linearGradient id="qrlH7dJK9L4bs84LMsr9Fa" x1="28.529" x2="33.6" y1="102.528" y2="107.6" gradientTransform="matrix(1 0 0 -1 0 118)" gradientUnits="userSpaceOnUse"><stop offset="0" stop-color="#3079d6"/><stop offset="1" stop-color="#297cd2"/></linearGradient><path fill="url(#qrlH7dJK9L4bs84LMsr9Fa)" d="M28,5v9c0,1.105,0.895,2,2,2h9L28,5z"/><linearGradient id="qrlH7dJK9L4bs84LMsr9Fb" x1="15" x2="30.551" y1="90" y2="90" gradientTransform="matrix(1 0 0 -1 0 118)" gradientUnits="userSpaceOnUse"><stop offset="0" stop-color="#42a3f2"/><stop offset="1" stop-color="#42a4eb"/></linearGradient><path fill="url(#qrlH7dJK9L4bs84LMsr9Fb)" d="M24,19c-4.949,0-9,4.051-9,9s4.051,9,9,9c2.6,0,4.949-1.1,6.551-2.849L24,28V19z"/><linearGradient id="qrlH7dJK9L4bs84LMsr9Fc" x1="24" x2="33" y1="94.5" y2="94.5" gradientTransform="matrix(1 0 0 -1 0 118)" gradientUnits="userSpaceOnUse"><stop offset="0" stop-color="#3079d6"/><stop offset="1" stop-color="#297cd2"/></linearGradient><path fill="url(#qrlH7dJK9L4bs84LMsr9Fc)" d="M33,28c0-4.949-4.051-9-9-9v9H33z"/><linearGradient id="qrlH7dJK9L4bs84LMsr9Fd" x1="24" x2="33" y1="86.925" y2="86.925" gradientTransform="matrix(1 0 0 -1 0 118)" gradientUnits="userSpaceOnUse"><stop offset="0" stop-color="#1d59b3"/><stop offset="1" stop-color="#195bbc"/></linearGradient><path fill="url(#qrlH7dJK9L4bs84LMsr9Fd)" d="M24,28l6.551,6.151C32.051,32.551,33,30.4,33,28H24z"/><path d="M34,33c-1.654,0-3,1.346-3,3v7h6c1.105,0,2-0.895,2-2v-8H34z" opacity=".05"/><path d="M34,33.5c-1.378,0-2.5,1.122-2.5,2.5v7H37c1.105,0,2-0.895,2-2v-7.5H34z" opacity=".07"/><linearGradient id="qrlH7dJK9L4bs84LMsr9Fe" x1="38.205" x2="39.892" y1="34.431" y2="48.367" gradientUnits="userSpaceOnUse"><stop offset="0" stop-color="#f44f5a"/><stop offset=".443" stop-color="#ee3d4a"/><stop offset="1" stop-color="#e52030"/></linearGradient><path fill="url(#qrlH7dJK9L4bs84LMsr9Fe)" d="M44,48H34c-1.105,0-2-0.895-2-2V36c0-1.105,0.895-2,2-2h10c1.105,0,2,0.895,2,2v10	C46,47.105,45.105,48,44,48z"/></svg>