<svg xmlns="http://www.w3.org/2000/svg" viewBox="0 0 48 48"><linearGradient id="uym3bkAz2VWOJGhjNrjvja" x1="10.001" x2="42.701" y1="9.476" y2="42.239" gradientUnits="userSpaceOnUse"><stop offset="0" stop-color="#480b7a"/><stop offset=".005" stop-color="#4b0c7d"/><stop offset=".053" stop-color="#64159d"/><stop offset=".286" stop-color="#781db5"/><stop offset=".324" stop-color="#8622c6"/><stop offset=".415" stop-color="#8e25d1"/><stop offset=".622" stop-color="#9126d4"/></linearGradient><path fill="url(#uym3bkAz2VWOJGhjNrjvja)" d="M40,30h-2.625L40,9c0-1.105-0.895-2-2-2h-4c-1.105,0-2,0.895-2,2l-2.625,21H8 c-1.105,0-2,0.895-2,2v4c0,1.104,0.895,2,2,2h20.375L28,41c0,1.104,0.895,2,2,2h4c1.105,0,2-0.896,2-2l0.375-3H40 c1.105,0,2-0.896,2-2v-4C42,30.895,41.105,30,40,30z"/><linearGradient id="uym3bkAz2VWOJGhjNrjvjb" x1="17.933" x2="41.716" y1="17.74" y2="43.342" gradientUnits="userSpaceOnUse"><stop offset="0" stop-color="#bd4ff4"/><stop offset=".587" stop-color="#a235ec"/><stop offset="1" stop-color="#8c20e5"/></linearGradient><path fill="url(#uym3bkAz2VWOJGhjNrjvjb)" d="M42,12H21.625L22,9c0-1.105-0.895-2-2-2h-4c-1.105,0-2,0.895-2,2l-0.375,3H10 c-1.105,0-2,0.895-2,2v4c0,1.104,0.895,2,2,2h2.625L10,41c0,1.104,0.895,2,2,2h4c1.105,0,2-0.896,2-2l2.625-21H42 c1.105,0,2-0.896,2-2v-4C44,12.895,43.105,12,42,12z"/></svg>