<svg xmlns="http://www.w3.org/2000/svg" viewBox="0 0 48 48"><radialGradient id="Afif9pfg7Iv75ee8MwYeva" cx="6.919" cy="776.629" r="23.827" gradientTransform="matrix(1.0244 0 0 1.0645 43.797 -792.235)" gradientUnits="userSpaceOnUse"><stop offset="0" stop-color="#bd8af5"/><stop offset=".137" stop-color="#b88bf5"/><stop offset=".309" stop-color="#a88ff3"/><stop offset=".499" stop-color="#8f96f2"/><stop offset=".702" stop-color="#6b9eef"/><stop offset=".913" stop-color="#3eaaec"/><stop offset="1" stop-color="#29afea"/></radialGradient><path fill="url(#Afif9pfg7Iv75ee8MwYeva)" d="M43,41H5c-1.105,0-2-0.895-2-2V10c0-1.105,0.895-2,2-2h38c1.105,0,2,0.895,2,2v29 C45,40.105,44.105,41,43,41z"/><path d="M39.388,41L24.984,26.589c-0.127-0.127-0.287-0.218-0.463-0.264 l-3.99-1.004c-0.338-0.081-0.701,0.021-0.945,0.265c-0.249,0.249-0.349,0.614-0.262,0.951l1.003,3.982 c0.043,0.176,0.134,0.337,0.263,0.466L30.605,41H39.388z" opacity=".05"/><path d="M38.681,41l-14.05-14.058c-0.063-0.063-0.144-0.109-0.231-0.132 l-3.984-1.003c-0.168-0.04-0.352,0.008-0.476,0.132s-0.175,0.305-0.131,0.476l1.004,3.985c0.021,0.088,0.067,0.168,0.131,0.231 L31.312,41H38.681z" opacity=".07"/><path fill="#fff" d="M41,16h-2c-0.552,0-1-0.448-1-1v-2c0-0.552,0.448-1,1-1h2c0.552,0,1,0.448,1,1v2 C42,15.552,41.552,16,41,16z"/><path fill="#fff" d="M41,23h-2c-0.552,0-1-0.448-1-1v-2c0-0.552,0.448-1,1-1h2c0.552,0,1,0.448,1,1v2 C42,22.552,41.552,23,41,23z"/><path fill="#fff" d="M41,30h-2c-0.552,0-1-0.448-1-1v-2c0-0.552,0.448-1,1-1h2c0.552,0,1,0.448,1,1v2 C42,29.552,41.552,30,41,30z"/><path fill="#fff" d="M41,37h-2c-0.552,0-1-0.448-1-1v-2c0-0.552,0.448-1,1-1h2c0.552,0,1,0.448,1,1v2 C42,36.552,41.552,37,41,37z"/><path fill="#fff" d="M9,16H7c-0.552,0-1-0.448-1-1v-2c0-0.552,0.448-1,1-1h2c0.552,0,1,0.448,1,1v2 C10,15.552,9.552,16,9,16z"/><path fill="#fff" d="M9,23H7c-0.552,0-1-0.448-1-1v-2c0-0.552,0.448-1,1-1h2c0.552,0,1,0.448,1,1v2 C10,22.552,9.552,23,9,23z"/><path fill="#fff" d="M9,30H7c-0.552,0-1-0.448-1-1v-2c0-0.552,0.448-1,1-1h2c0.552,0,1,0.448,1,1v2 C10,29.552,9.552,30,9,30z"/><path fill="#fff" d="M9,37H7c-0.552,0-1-0.448-1-1v-2c0-0.552,0.448-1,1-1h2c0.552,0,1,0.448,1,1v2 C10,36.552,9.552,37,9,37z"/><path fill="#c94f60" d="M39.566,47.488l1.921-1.922c0.293-0.292,0.293-0.768,0-1.061l-0.905-0.904l-2.981,2.981l0.904,0.905 C38.799,47.78,39.273,47.78,39.566,47.488"/><path fill="#f0f0f0" d="M24.277,27.296l-3.984-1.003l1.003,3.985l3.456,0.418L24.277,27.296z"/><path fill="#edbe00" d="M35.059,44.04L21.297,30.278l2.981-2.981L38.04,41.059L35.059,44.04z"/><linearGradient id="Afif9pfg7Iv75ee8MwYevb" x1="84.526" x2="84.526" y1="1185.898" y2="1191.387" gradientTransform="rotate(90 633.5 592.793)" gradientUnits="userSpaceOnUse"><stop offset="0" stop-color="#dedede"/><stop offset="1" stop-color="#d6d6d6"/></linearGradient><path fill="url(#Afif9pfg7Iv75ee8MwYevb)" d="M38.04,41.056l2.544,2.543l-2.981,2.983l-2.544-2.543L38.04,41.056z"/><path fill="#787878" d="M22.308,26.801l-2.015-0.508l0.508,2.014L22.308,26.801z"/></svg>