<svg xmlns="http://www.w3.org/2000/svg" viewBox="0 0 48 48"><linearGradient id="y3yXD3CT~pf1B2AOPAO4sa" x1="12.686" x2="35.58" y1="-430.592" y2="-467.841" gradientTransform="matrix(1 0 0 -1 0 -426)" gradientUnits="userSpaceOnUse"><stop offset="0" stop-color="#37c6d0"/><stop offset="1" stop-color="#1a9ba1"/></linearGradient><path fill="url(#y3yXD3CT~pf1B2AOPAO4sa)" d="M42,8H6c-1.105,0-2,0.895-2,2v26c0,1.105,0.895,2,2,2h8v7.998 c0,0.891,1.077,1.337,1.707,0.707L24.412,38H42c1.105,0,2-0.895,2-2V10C44,8.895,43.105,8,42,8z"/><g opacity=".05"><path d="M18.329,20.5c-0.268-0.463-0.698-0.794-1.215-0.933c-0.387-0.104-0.785-0.089-1.153,0.036C15.776,18.69,14.967,18,14,18 c-0.968,0-1.776,0.69-1.961,1.604c-0.37-0.125-0.769-0.137-1.154-0.037c-0.516,0.139-0.946,0.47-1.214,0.933 c-0.268,0.462-0.339,1.001-0.2,1.518c0.104,0.386,0.314,0.725,0.607,0.981c-0.294,0.258-0.505,0.597-0.608,0.983 c-0.138,0.517-0.066,1.056,0.2,1.518c0.267,0.463,0.698,0.793,1.213,0.931c0.386,0.104,0.785,0.093,1.156-0.035 C12.224,27.31,13.032,28,14,28c0.967,0,1.776-0.69,1.961-1.604c0.366,0.122,0.767,0.137,1.154,0.036 c0.516-0.139,0.946-0.47,1.214-0.933c0.268-0.462,0.339-1.001,0.2-1.518c-0.104-0.387-0.314-0.725-0.608-0.982 c0.294-0.258,0.506-0.597,0.609-0.983C18.668,21.5,18.597,20.961,18.329,20.5z"/><path d="M28.329,20.5c-0.268-0.463-0.698-0.794-1.215-0.933c-0.387-0.104-0.785-0.089-1.153,0.036C25.776,18.69,24.967,18,24,18 s-1.776,0.69-1.961,1.604c-0.369-0.125-0.768-0.137-1.154-0.036c-0.516,0.139-0.946,0.47-1.214,0.933 c-0.268,0.462-0.339,1.001-0.2,1.518c0.104,0.386,0.314,0.725,0.607,0.981c-0.294,0.258-0.505,0.597-0.608,0.983 c-0.138,0.517-0.066,1.056,0.2,1.518c0.267,0.463,0.698,0.793,1.213,0.931c0.388,0.105,0.787,0.09,1.156-0.035 C22.224,27.31,23.032,28,24,28c0.967,0,1.776-0.69,1.961-1.604c0.366,0.122,0.764,0.137,1.154,0.036 c0.516-0.139,0.946-0.47,1.214-0.933c0.268-0.462,0.339-1.001,0.2-1.518c-0.104-0.387-0.314-0.725-0.608-0.982 c0.294-0.258,0.506-0.597,0.609-0.983C28.668,21.5,28.597,20.961,28.329,20.5z"/><path d="M37.92,22.999c0.7-0.616,0.894-1.662,0.41-2.498c-0.267-0.463-0.698-0.795-1.216-0.935 c-0.389-0.104-0.786-0.09-1.154,0.036C35.775,18.689,34.967,18,34,18c-0.968,0-1.776,0.69-1.961,1.604 c-0.367-0.127-0.766-0.141-1.15-0.037c-0.519,0.138-0.951,0.469-1.219,0.933c-0.268,0.462-0.339,1.001-0.2,1.521 c0.104,0.385,0.315,0.723,0.607,0.979c-0.293,0.258-0.504,0.596-0.607,0.981c-0.139,0.517-0.067,1.056,0.2,1.518 c0.268,0.463,0.698,0.794,1.217,0.933c0.388,0.103,0.785,0.088,1.152-0.037C32.223,27.31,33.032,28,34,28 c0.967,0,1.776-0.69,1.961-1.604c0.367,0.125,0.766,0.138,1.153,0.036c0.517-0.139,0.948-0.47,1.214-0.932 c0.268-0.461,0.339-1,0.201-1.518C38.426,23.597,38.214,23.258,37.92,22.999z"/></g><g opacity=".07"><path d="M18.047,21.888c0.104-0.387,0.051-0.791-0.15-1.138c-0.2-0.347-0.523-0.596-0.91-0.699 c-0.391-0.104-0.792-0.05-1.139,0.15l-0.348,0.2V20c0-0.827-0.673-1.5-1.5-1.5s-1.5,0.673-1.5,1.5v0.401l-0.348-0.2 c-0.348-0.2-0.748-0.254-1.139-0.15c-0.387,0.104-0.71,0.353-0.91,0.699c-0.414,0.716-0.168,1.636,0.549,2.049L11,23l-0.349,0.2 c-0.347,0.2-0.595,0.524-0.698,0.911c-0.104,0.388-0.051,0.792,0.149,1.139s0.523,0.595,0.911,0.698 c0.386,0.104,0.792,0.05,1.138-0.15l0.349-0.201V26c0,0.827,0.673,1.5,1.5,1.5s1.5-0.673,1.5-1.5v-0.401l0.348,0.2 c0.347,0.2,0.748,0.253,1.139,0.15c0.387-0.104,0.71-0.353,0.91-0.699c0.414-0.716,0.168-1.636-0.549-2.049L16.999,23l0.348-0.201 C17.694,22.599,17.943,22.275,18.047,21.888z"/><path d="M28.047,21.888c0.104-0.387,0.051-0.791-0.15-1.138c-0.2-0.347-0.523-0.596-0.91-0.699 c-0.392-0.104-0.793-0.05-1.139,0.15l-0.348,0.2V20c0-0.827-0.673-1.5-1.5-1.5s-1.5,0.673-1.5,1.5v0.401l-0.348-0.2 c-0.347-0.2-0.749-0.254-1.139-0.15c-0.387,0.104-0.71,0.353-0.91,0.699c-0.414,0.716-0.168,1.636,0.549,2.049L21,23l-0.349,0.2 c-0.347,0.2-0.595,0.524-0.698,0.911c-0.104,0.388-0.051,0.792,0.149,1.139s0.523,0.595,0.911,0.698 c0.387,0.104,0.791,0.05,1.138-0.15l0.349-0.201V26c0,0.827,0.673,1.5,1.5,1.5s1.5-0.673,1.5-1.5v-0.401l0.348,0.2 c0.346,0.2,0.747,0.253,1.139,0.15c0.387-0.104,0.71-0.353,0.91-0.699c0.414-0.716,0.168-1.636-0.549-2.049L26.999,23l0.348-0.201 C27.694,22.599,27.943,22.275,28.047,21.888z"/><path d="M38.046,24.112c-0.104-0.388-0.352-0.711-0.698-0.911L36.998,23l0.35-0.202c0.716-0.414,0.962-1.333,0.549-2.048 c-0.2-0.348-0.523-0.596-0.911-0.7c-0.388-0.104-0.791-0.051-1.138,0.15L35.5,20.4V20c0-0.827-0.673-1.5-1.5-1.5 s-1.5,0.673-1.5,1.5v0.403l-0.349-0.201c-0.716-0.417-1.636-0.168-2.049,0.548c-0.201,0.348-0.254,0.752-0.15,1.14 c0.104,0.387,0.353,0.71,0.699,0.909L30.998,23l-0.347,0.2c-0.717,0.413-0.963,1.333-0.549,2.049 c0.2,0.347,0.523,0.596,0.91,0.699c0.39,0.102,0.792,0.05,1.139-0.15l0.349-0.201V26c0,0.827,0.673,1.5,1.5,1.5s1.5-0.673,1.5-1.5 v-0.401l0.348,0.2c0.345,0.2,0.75,0.253,1.138,0.15c0.388-0.104,0.711-0.353,0.91-0.699C38.097,24.903,38.149,24.5,38.046,24.112z"/></g><path fill="#fff" d="M17.098,23.634L16,23l1.098-0.634c0.478-0.276,0.642-0.888,0.366-1.366 c-0.276-0.478-0.888-0.642-1.366-0.366L15,21.267V20c0-0.552-0.448-1-1-1s-1,0.448-1,1v1.268l-1.098-0.634 c-0.478-0.276-1.09-0.112-1.366,0.366c-0.276,0.478-0.112,1.09,0.366,1.366L12,23l-1.098,0.634 C10.424,23.91,10.26,24.521,10.536,25c0.276,0.478,0.888,0.642,1.366,0.366L13,24.732V26c0,0.552,0.448,1,1,1s1-0.448,1-1v-1.268 l1.098,0.634c0.478,0.276,1.09,0.112,1.366-0.366C17.74,24.522,17.576,23.91,17.098,23.634z"/><path fill="#fff" d="M27.098,23.634L26,23l1.098-0.634c0.478-0.276,0.642-0.888,0.366-1.366 c-0.276-0.478-0.888-0.642-1.366-0.366L25,21.267V20c0-0.552-0.448-1-1-1s-1,0.448-1,1v1.268l-1.098-0.634 c-0.478-0.276-1.09-0.112-1.366,0.366c-0.276,0.478-0.112,1.09,0.366,1.366L22,23l-1.098,0.634 C20.424,23.91,20.26,24.521,20.536,25c0.276,0.478,0.888,0.642,1.366,0.366L23,24.732V26c0,0.552,0.448,1,1,1s1-0.448,1-1v-1.268 l1.098,0.634c0.478,0.276,1.09,0.112,1.366-0.366C27.74,24.522,27.576,23.91,27.098,23.634z"/><path fill="#fff" d="M37.097,23.634L35.998,23l1.099-0.635c0.478-0.276,0.642-0.888,0.366-1.366 c-0.276-0.478-0.888-0.642-1.366-0.366L35,21.267V20c0-0.552-0.448-1-1-1s-1,0.448-1,1v1.269l-1.099-0.634 c-0.478-0.276-1.09-0.112-1.366,0.366s-0.112,1.09,0.366,1.366L31.998,23l-1.097,0.633c-0.478,0.276-0.642,0.888-0.366,1.366 c0.276,0.478,0.888,0.642,1.366,0.366L33,24.731V26c0,0.552,0.448,1,1,1s1-0.448,1-1v-1.267l1.097,0.633 c0.478,0.276,1.09,0.112,1.366-0.366C37.739,24.522,37.576,23.911,37.097,23.634z"/></svg>