<svg xmlns="http://www.w3.org/2000/svg" xmlns:xlink="http://www.w3.org/1999/xlink" data-name="Слой 1" viewBox="0 0 48 48"><defs><linearGradient id="kR4IZGTng4glbkdGPeqIlb" x1="-948.143" x2="-948.143" y1="-244.695" y2="-247.837" data-name="Безымянный градиент 138" gradientTransform="matrix(0 -1 -1 0 -209.723 -924.143)" gradientUnits="userSpaceOnUse"><stop offset=".441" stop-color="#999998"/><stop offset=".653" stop-color="#c1c1c0"/><stop offset=".88" stop-color="#e5e5e5"/><stop offset="1" stop-color="#f3f3f3"/></linearGradient><linearGradient id="kR4IZGTng4glbkdGPeqIlc" x1="3.638" x2="15.691" y1="-1408.572" y2="-1441.405" data-name="Безымянный градиент 136" gradientTransform="matrix(1 0 0 -1 0 -1400)" gradientUnits="userSpaceOnUse"><stop offset="0" stop-color="#0176d0"/><stop offset="1" stop-color="#16538c"/></linearGradient><linearGradient id="kR4IZGTng4glbkdGPeqIld" x1="16.78" x2="31.215" y1="-1405.154" y2="-1444.475" gradientTransform="matrix(1 0 0 -1 0 -1400)" gradientUnits="userSpaceOnUse"><stop offset="0" stop-color="#a8e2f7"/><stop offset="1" stop-color="#47c1ff"/></linearGradient><linearGradient id="kR4IZGTng4glbkdGPeqIla" x1="18.271" x2="22.358" y1="31.537" y2="31.537" data-name="Безымянный градиент 155" gradientUnits="userSpaceOnUse"><stop offset="0" stop-color="#3079d6"/><stop offset="1" stop-color="#297cd2"/></linearGradient><linearGradient id="kR4IZGTng4glbkdGPeqIle" x1="24.282" x2="31.187" y1="28.19" y2="28.19" xlink:href="#kR4IZGTng4glbkdGPeqIla"/><linearGradient id="kR4IZGTng4glbkdGPeqIlf" x1="14.314" x2="18.613" y1="27.686" y2="27.686" xlink:href="#kR4IZGTng4glbkdGPeqIla"/><linearGradient id="kR4IZGTng4glbkdGPeqIlg" x1="14.631" x2="24.989" y1="20.266" y2="20.266" xlink:href="#kR4IZGTng4glbkdGPeqIla"/><linearGradient id="kR4IZGTng4glbkdGPeqIlh" x1="16.979" x2="33" y1="23.01" y2="23.01" data-name="Безымянный градиент 159" gradientUnits="userSpaceOnUse"><stop offset="0" stop-color="#42a3f2"/><stop offset="1" stop-color="#42a4eb"/></linearGradient></defs><path fill="#1783bd" d="M41,6V42a1.99945,1.99945,0,0,1-2,2H34V4h5A1.99945,1.99945,0,0,1,41,6Z"/><path fill="url(#kR4IZGTng4glbkdGPeqIlb)" d="M39,6V42a1.99945,1.99945,0,0,1-2,2H31V4h6A1.99945,1.99945,0,0,1,39,6Z"/><path fill="url(#kR4IZGTng4glbkdGPeqIlc)" d="M7,6V42a1.99945,1.99945,0,0,0,2,2h2V4H9A1.99945,1.99945,0,0,0,7,6Z"/><path fill="url(#kR4IZGTng4glbkdGPeqIld)" d="M35,4H11V44H35a1.99945,1.99945,0,0,0,2-2V6A1.99945,1.99945,0,0,0,35,4Z"/><g><g opacity=".05"><path d="M21.44138,29.38678l.865,2.595a.99984.99984,0,0,1-.241,1.024l-.534.534a.50021.50021,0,0,1-.77-.076l-2.49-3.735,3.17-.342m.69387-1.08069-.80114.08649-3.17.342-1.63951.17682.91472,1.37207,2.49,3.735a1.50019,1.50019,0,0,0,2.30916.2284l.534-.534a1.98954,1.98954,0,0,0,.48258-2.0473l-.865-2.595-.25481-.76447Z"/><path d="M27.81738,23.01074l3.303,8.586a1.0002,1.0002,0,0,1-.226,1.066l-.56.56a.49961.49961,0,0,1-.744-.041l-5.308-6.635,3.535-3.536m.38079-1.79529-1.088,1.08826-3.535,3.536-.63271.63294.559.69879,5.308,6.635a1.49963,1.49963,0,0,0,2.232.12341l.56-.56a2.00159,2.00159,0,0,0,.45219-2.13226l-3.303-8.58594-.55253-1.43622Z"/><path d="M15.70193,25.64233a.99971.99971,0,0,1,.31644.0514l2.595.86505-.342,3.17-3.735-2.49a.50093.50093,0,0,1-.076-.77l.534-.534a1.00231,1.00231,0,0,1,.70755-.29242m0-1a1.98962,1.98962,0,0,0-1.41337.584l-.53528.53522a1.501,1.501,0,0,0,.22543,2.30725l3.738,2.49194,1.37206.91473.17687-1.63952.342-3.17.08643-.80109-.76442-.25482-2.595-.86505a1.99681,1.99681,0,0,0-.63268-.10273Z"/><path d="M16.04457,16.814a.99922.99922,0,0,1,.35881.06671l8.586,3.302-3.536,3.536-6.635-5.308a.49959.49959,0,0,1-.041-.744l.56-.56a.99987.99987,0,0,1,.70721-.29272m0-1a1.98716,1.98716,0,0,0-1.41429.58557l-.56.56006a1.49953,1.49953,0,0,0,.12415,2.23254l6.63427,5.30743.69891.55915.63288-.63294,3.536-3.536,1.0881-1.08807-1.43626-.55237-8.586-3.302a1.9918,1.9918,0,0,0-.71776-.13336Z"/><path d="M31.00037,15a1.99926,1.99926,0,0,1,1.413,3.41376l-12.021,12.021a1.9997,1.9997,0,0,1-2.828-2.828l12.022-12.021A1.99345,1.99345,0,0,1,31.00037,15m0-1a2.98017,2.98017,0,0,0-2.12112.87866L16.85729,26.8996a2.9997,2.9997,0,1,0,4.24219,4.24225l12.021-12.021A2.99926,2.99926,0,0,0,31.00037,14Z"/></g><g opacity=".07"><path d="M21.44138,29.38678l.865,2.595a.99984.99984,0,0,1-.241,1.024l-.534.534a.50021.50021,0,0,1-.77-.076l-2.49-3.735,3.17-.342m.34693-.54034-.40056.04321-3.17.342-.81975.08844.45736.686,2.49,3.735a1.00022,1.00022,0,0,0,1.53957.15222l.534-.534a1.49242,1.49242,0,0,0,.36179-1.5357l-.865-2.595-.12741-.3822Z"/><path d="M27.81738,23.01074l3.303,8.586a1.0002,1.0002,0,0,1-.226,1.066l-.56.56a.49961.49961,0,0,1-.744-.041l-5.308-6.635,3.535-3.536m.1904-.89764-.544.54413-3.535,3.536-.31636.31646.27953.34937,5.308,6.635a.99955.99955,0,0,0,1.488.08221l.56-.55993a1.5012,1.5012,0,0,0,.3391-1.59918l-3.303-8.58594-.27626-.71814Z"/><path d="M15.70193,25.64233a.99971.99971,0,0,1,.31644.0514l2.595.86505-.342,3.17-3.735-2.49a.50093.50093,0,0,1-.076-.77l.534-.534a1.00231,1.00231,0,0,1,.70755-.29242m0-.5a1.49292,1.49292,0,0,0-1.06046.43824l-.53465.5346a1.001,1.001,0,0,0,.15073,1.53864l3.73648,2.491.686.45733.08844-.8197.342-3.17.04321-.40058-.38221-.12744-2.595-.865a1.49935,1.49935,0,0,0-.47456-.077Z"/><path d="M16.04457,16.814a.99922.99922,0,0,1,.35881.06671l8.586,3.302-3.536,3.536-6.635-5.308a.49959.49959,0,0,1-.041-.744l.56-.56a.99987.99987,0,0,1,.70721-.29272m0-.5a1.49039,1.49039,0,0,0-1.06074.43914l-.56.56a.99962.99962,0,0,0,.08258,1.48834L21.141,24.10919l.34946.27954.31644-.3164,3.536-3.536.54405-.54407-.71812-.27619-8.586-3.302a1.49384,1.49384,0,0,0-.53829-.1Z"/><path d="M31.00037,15a1.99926,1.99926,0,0,1,1.413,3.41376l-12.021,12.021a1.9997,1.9997,0,0,1-2.828-2.828l12.022-12.021A1.99345,1.99345,0,0,1,31.00037,15m0-.5a2.48331,2.48331,0,0,0-1.76756.73218l-12.022,12.021a2.49971,2.49971,0,1,0,3.5351,3.53516l12.021-12.021A2.49925,2.49925,0,0,0,31.00037,14.5Z"/></g><path fill="url(#kR4IZGTng4glbkdGPeqIla)" d="M18.27137,29.72875l2.49,3.735a.50019.50019,0,0,0,.77.076l.534-.534a.99985.99985,0,0,0,.241-1.024l-.865-2.595Z"/><path fill="url(#kR4IZGTng4glbkdGPeqIle)" d="M24.28237,26.54675l5.308,6.635a.49955.49955,0,0,0,.744.041l.56-.56a1.00012,1.00012,0,0,0,.226-1.066l-3.303-8.586Z"/><path fill="url(#kR4IZGTng4glbkdGPeqIlf)" d="M18.61337,26.55875l-2.595-.865a1.00193,1.00193,0,0,0-1.024.241l-.534.534a.50091.50091,0,0,0,.076.77l3.735,2.49Z"/><path fill="url(#kR4IZGTng4glbkdGPeqIlg)" d="M24.98937,20.18275l-8.586-3.302a1.00012,1.00012,0,0,0-1.066.226l-.56.56a.49955.49955,0,0,0,.041.744l6.635,5.308Z"/><path fill="url(#kR4IZGTng4glbkdGPeqIlh)" d="M32.41437,15.58575a1.99957,1.99957,0,0,0-2.828,0l-12.022,12.021a1.9997,1.9997,0,0,0,2.828,2.828l12.021-12.021A1.99865,1.99865,0,0,0,32.41437,15.58575Z"/></g></svg>