<svg xmlns="http://www.w3.org/2000/svg" viewBox="0 0 48 48"><path fill="#21a366" d="M22,21c0-4-2-12-2-12s-2,8-2,12s0,15,0,15h4C22,36,22,25,22,21z"/><path fill="#21a366" d="M30,19c0-4-2-12-2-12s-2,8-2,12s0,19,0,19h4C30,38,30,23,30,19z"/><path fill="#21a366" d="M38,21c0-4-2-12-2-12s-2,8-2,12s0,15,0,15h4C38,36,38,25,38,21z"/><path fill="#21a366" d="M14,23c0-4-2-12-2-12s-2,8-2,12s0,13,0,13h4C14,36,14,27,14,23z"/><path fill="#33c481" d="M40,5c0,0-2,8-2,12s0,14,0,14c0,1.105-0.895,2-2,2s-2-0.895-2-2c0,0,0-6,0-10S32,9,32,9s-2,8-2,12	s0,15,0,15c0,1.105-0.895,2-2,2s-2-0.895-2-2c0,0,0-15,0-19S24,5,24,5s-2,8-2,12s0,14,0,14c0,1.105-0.895,2-2,2s-2-0.895-2-2	c0,0,0-8,0-12S16,7,16,7s-2,8-2,12s0,15,0,15c0,1.105-0.895,2-2,2s-2-0.895-2-2c0,0,0-13,0-17S8,5,8,5s-2,8-2,12s0,23,0,23	c0,1.105,0.895,2,2,2h32c1.105,0,2-0.895,2-2c0,0,0-19,0-23S40,5,40,5z"/></svg>