<svg xmlns="http://www.w3.org/2000/svg" viewBox="0 0 48 48"><radialGradient id="lSeNJTvlok8jRcjIYKmhea" cx="24" cy="24" r="20" gradientUnits="userSpaceOnUse"><stop offset="0" stop-color="#0370c8"/><stop offset=".484" stop-color="#036fc5"/><stop offset=".775" stop-color="#036abd"/><stop offset="1" stop-color="#0362b0"/></radialGradient><path fill="url(#lSeNJTvlok8jRcjIYKmhea)" d="M24,4C12.954,4,4,12.954,4,24s8.954,20,20,20s20-8.954,20-20S35.046,4,24,4z"/><path d="M35.337,19.614c-0.65-0.182-1.35,0-1.824,0.477l-4.319,4.32c-1.544,1.544-4.059,1.545-5.604,0	c-1.545-1.545-1.545-4.059,0-5.604l4.32-4.32c0.475-0.475,0.657-1.173,0.477-1.823c-0.181-0.649-0.676-1.132-1.325-1.292	c-1.796-0.44-3.628-0.49-5.452-0.148c-5.625,1.061-9.958,5.75-10.538,11.406c-0.184,1.799,0.017,3.575,0.538,5.245l-5.345,5.345	c2.127,4.083,5.611,7.343,9.866,9.166l5.598-5.598c0.749,0.133,1.512,0.21,2.284,0.21c0.452,0,0.906-0.023,1.362-0.07	c5.654-0.581,10.344-4.915,11.402-10.54c0.343-1.822,0.293-3.655-0.148-5.45C36.468,20.291,35.985,19.795,35.337,19.614z" opacity=".05"/><path d="M35.202,20.096c-0.473-0.131-0.988,0.001-1.336,0.349l-4.319,4.32c-1.739,1.739-4.57,1.74-6.312,0	c-1.739-1.74-1.739-4.571,0-6.311l4.32-4.32c0.348-0.347,0.481-0.858,0.349-1.334c-0.132-0.473-0.492-0.824-0.964-0.94	c-1.725-0.425-3.487-0.473-5.239-0.142c-5.409,1.02-9.576,5.528-10.133,10.965c-0.189,1.836,0.03,3.65,0.603,5.339l-5.665,5.665	c2.06,3.712,5.271,6.687,9.146,8.472l5.899-5.9c0.804,0.16,1.627,0.242,2.46,0.242c0.435,0,0.872-0.022,1.31-0.067	c5.437-0.559,9.944-4.726,10.963-10.135c0.329-1.751,0.281-3.514-0.143-5.238C36.026,20.587,35.675,20.228,35.202,20.096z" opacity=".07"/><radialGradient id="lSeNJTvlok8jRcjIYKmheb" cx="24.014" cy="23.915" r="14.275" gradientUnits="userSpaceOnUse"><stop offset=".773" stop-color="#787f85"/><stop offset=".811" stop-color="#8a9399"/><stop offset=".894" stop-color="#afb9c1"/><stop offset=".96" stop-color="#c6d1da"/><stop offset="1" stop-color="#cedae3"/></radialGradient><path fill="url(#lSeNJTvlok8jRcjIYKmheb)" d="M6.773,34.125c1.976,3.354,4.895,6.073,8.401,7.802l7.248-7.248l-8.102-8.102L6.773,34.125z"/><linearGradient id="lSeNJTvlok8jRcjIYKmhec" x1="32.787" x2="15.431" y1="15.213" y2="32.569" gradientUnits="userSpaceOnUse"><stop offset="0" stop-color="#bfcad4"/><stop offset="1" stop-color="#e6e6e6"/></linearGradient><path fill="url(#lSeNJTvlok8jRcjIYKmhec)" d="M29.9,25.118c-1.938,1.938-5.08,1.938-7.018,0c-1.938-1.938-1.938-5.08,0-7.018	c0.473-0.473,2.379-2.379,4.32-4.32c0.466-0.466,0.259-1.279-0.38-1.436c-1.574-0.387-3.267-0.468-5.028-0.136	c-5.165,0.974-9.193,5.296-9.729,10.525c-0.782,7.624,5.581,13.986,13.205,13.202c5.228-0.537,9.55-4.565,10.522-9.73	c0.332-1.761,0.25-3.453-0.137-5.026c-0.157-0.639-0.97-0.846-1.436-0.38C32.279,22.739,30.373,24.645,29.9,25.118z"/></svg>