<svg xmlns="http://www.w3.org/2000/svg" viewBox="0 0 48 48"><path fill="#50e6ff" d="M2,14.875v24.25C2,40.161,2.938,41,4.095,41h39.81C45.062,41,46,40.161,46,39.125v-24.25	C46,13.839,45.062,13,43.905,13H4.095C2.938,13,2,13.839,2,14.875z"/><rect width="11" height="28" x="24" y="13" fill="#199be2"/><rect width="2" height="28" x="12" y="13" fill="#35c1f1"/><linearGradient id="nLL21a9XF9TSsT18HZxCba" x1="-516.609" x2="-511.478" y1="2319.966" y2="2329.194" gradientTransform="translate(544.006 -2319.035)" gradientUnits="userSpaceOnUse"><stop offset="0" stop-color="#c965eb"/><stop offset="1" stop-color="#c767e5"/></linearGradient><path fill="url(#nLL21a9XF9TSsT18HZxCba)" d="M35.293,4.008H23.707c-0.629,0-0.943,0.76-0.499,1.204l5.419,5.419	c0.482,0.482,1.264,0.482,1.746,0l5.419-5.419C36.236,4.768,35.922,4.008,35.293,4.008z"/></svg>