<svg xmlns="http://www.w3.org/2000/svg" viewBox="0 0 48 48"><path fill="#ee3c49" d="M39.671,9.043l-3.557-2.176c-0.667-0.408-1.538-0.198-1.945,0.469l-0.566,0.926 c-0.826,1.35-0.614,3.03,0.391,4.152l-3.738,6.11l1.706,1.044l3.738-6.11c1.456,0.384,3.048-0.192,3.874-1.543l0.566-0.926 C40.547,10.322,40.337,9.451,39.671,9.043z M37.867,10.87c-0.432,0.707-1.356,0.929-2.062,0.497 c-0.707-0.432-0.929-1.356-0.497-2.062l0.261-0.427l2.559,1.565L37.867,10.87z"/><radialGradient id="Mn~bpmfVPxzOqopWm1yrBa" cx="24" cy="18.5" r="13.532" gradientUnits="userSpaceOnUse"><stop offset="0" stop-color="#ffcf54"/><stop offset=".261" stop-color="#fdcb4d"/><stop offset=".639" stop-color="#f7c13a"/><stop offset="1" stop-color="#f0b421"/></radialGradient><path fill="url(#Mn~bpmfVPxzOqopWm1yrBa)" d="M6,25l15.295-12.113c1.494-1.183,3.916-1.183,5.41,0L42,25H6z"/><path fill="#ee3c49" d="M43,42H5c-0.552,0-1-0.448-1-1V29h40v12C44,41.552,43.552,42,43,42z"/><path fill="#21ad64" d="M45,30H3c-0.552,0-1-0.448-1-1v-4c0-0.552,0.448-1,1-1h42c0.552,0,1,0.448,1,1v4 C46,29.552,45.552,30,45,30z"/><circle cx="22" cy="17" r="1" fill="#d6a121"/><circle cx="18" cy="20" r="1" fill="#d6a121"/><circle cx="23" cy="21" r="1" fill="#d6a121"/></svg>