<svg xmlns="http://www.w3.org/2000/svg" viewBox="0 0 48 48"><path fill="#199be2" d="M20,38c-1.105,0-2,0.895-2,2s0.895,2,2,2s2-0.895,2-2S21.105,38,20,38z"/><path fill="#199be2" d="M21.195,22h-9.569l8.836,8.544l-2.385,8.984l3.784,1.179l3.466-9.941	c0.381-1.093,0.225-2.301-0.422-3.261L21.195,22z"/><linearGradient id="Q9lk~1EV1q8edmPz8N1fRa" x1="38.584" x2="46.789" y1="47.071" y2="47.071" gradientTransform="rotate(45.001 54 40)" gradientUnits="userSpaceOnUse"><stop offset="0" stop-color="#d43a02"/><stop offset="1" stop-color="#b9360c"/></linearGradient><path fill="url(#Q9lk~1EV1q8edmPz8N1fRa)" d="M43.901,39.901c-2.901,2.901-6.527,2.176-7.252,1.45s-1.45-4.351,1.45-7.252	s6.527-2.176,7.252-1.45S46.802,37,43.901,39.901z"/><linearGradient id="Q9lk~1EV1q8edmPz8N1fRb" x1="35" x2="45" y1="9" y2="9" gradientUnits="userSpaceOnUse"><stop offset="0" stop-color="#ffcf54"/><stop offset=".261" stop-color="#fdcb4d"/><stop offset=".639" stop-color="#f7c13a"/><stop offset="1" stop-color="#f0b421"/></linearGradient><path fill="url(#Q9lk~1EV1q8edmPz8N1fRb)" d="M35,9c0,2.76,2.238,5,4.998,5C42.764,14,45,11.76,45,9s-2.236-5-5.002-5	C37.238,4,35,6.24,35,9z"/><path fill="#35c1f1" d="M8,18c0,2.76,2.238,5,4.998,5C15.764,23,18,20.76,18,18s-2.236-5-5.002-5C10.238,13,8,15.24,8,18z"/><path fill="#35c1f1" d="M25,18c0,2.76,2.238,5,4.998,5C32.764,23,35,20.76,35,18s-2.236-5-5.002-5C27.238,13,25,15.24,25,18z"/><path fill="#35c1f1" d="M41.5,32c-0.828,0-1.5,0.672-1.5,1.5s0.672,1.5,1.5,1.5s1.5-0.672,1.5-1.5S42.328,32,41.5,32z"/><path fill="#35c1f1" d="M4,38c-1.105,0-2,0.895-2,2s0.895,2,2,2s2-0.895,2-2S5.105,38,4,38z"/><rect width="17" height="10" x="13" y="13" fill="#35c1f1"/><path fill="#35c1f1" d="M31.884,29.591l8.816,5.167l1.69-2.458L35,26.405V18h-6.621l2.09,9.639	C30.647,28.459,31.16,29.167,31.884,29.591z"/><path fill="#35c1f1" d="M14.804,32.176L5.376,41.44L2.537,38.66l7.195-9.027L8.02,18.389L16,18v11.323	C16,30.396,15.569,31.424,14.804,32.176z"/></svg>