<svg xmlns="http://www.w3.org/2000/svg" viewBox="0 0 48 48"><linearGradient id="5UHryes3Lhsrbwxf3eQa5a" x1="14.194" x2="32.96" y1="3.813" y2="55.373" gradientUnits="userSpaceOnUse"><stop offset="0" stop-color="#21ad64"/><stop offset="1" stop-color="#088242"/></linearGradient><path fill="url(#5UHryes3Lhsrbwxf3eQa5a)" d="M41.48,29.73c0.49,0.43,0.58,0.94,0.56,1.3c-0.07,1.07-1.14,2.14-1.92,2.68	c0.15,0.47,0.14,0.9-0.02,1.3c-0.44,1.03-1.83,1.46-2.94,1.8c-0.14,0.05-0.27,0.09-0.4,0.13c-0.31,0.26-1.59,1.3-3.53,2.45	c-0.7,0.41-1.48,0.84-2.34,1.25c0.09,0.1,0.19,0.19,0.29,0.28c0.95,0.88,2.18,2.01,2.87,3.08H5V16.91l2.56-2.2	C8.78,10.45,12.11,6,18.5,6c2.87,0,4.75,1.12,5.94,2.43l0.1-0.06C26.02,7.37,28.06,6,31,6c2.68,0,4.87,2.42,6.46,4.19	c0.33,0.36,0.63,0.69,0.89,0.96c0.04,0.03,2.93,2.96,4.13,5.24c0.29,0.4,0.47,0.87,0.51,1.4C43,17.86,43,17.93,43,18l0.01,0.36	c0.04,1.5,0.09,3.53-4.31,6.29C40.47,27.3,41.35,28.67,41.48,29.73z"/><radialGradient id="5UHryes3Lhsrbwxf3eQa5b" cx="38.141" cy="18.13" r="8.837" gradientUnits="userSpaceOnUse"><stop offset="0" stop-color="#f9f9f9"/><stop offset=".26" stop-color="#f0f1f2"/><stop offset=".678" stop-color="#d9dcdf"/><stop offset="1" stop-color="#c2c8cc"/></radialGradient><ellipse cx="36" cy="18" fill="url(#5UHryes3Lhsrbwxf3eQa5b)" rx="6.5" ry="3.5"/><radialGradient id="5UHryes3Lhsrbwxf3eQa5c" cx="24.902" cy="17.38" r="11.707" gradientUnits="userSpaceOnUse"><stop offset="0" stop-color="#f9f9f9"/><stop offset=".26" stop-color="#f0f1f2"/><stop offset=".678" stop-color="#d9dcdf"/><stop offset="1" stop-color="#c2c8cc"/></radialGradient><path fill="url(#5UHryes3Lhsrbwxf3eQa5c)" d="M23,13.5c2,0,6.5,0.5,6.5,4s-4,4-6,4	s-6.5-1-7.5-2s-2.5-0.5-2.5-1S17.5,13.5,23,13.5z"/><circle cx="38.25" cy="18.25" r="1.75" fill="#343434"/><circle cx="25" cy="18" r="2" fill="#343434"/><path fill="#c2620e" d="M32.5,32c3.5,0,5-2,8-2c2.5,0,0,3-1,3.5c0.6,1.51-1,2.5-3,3s-8,0-9.5-0.5s-6.5-1.5-8-1.5	S12.5,36,12.5,33s4-3,4.5-3C20,30,29.5,32,32.5,32z"/><path fill="#343434" d="M29.6,15.68c-0.43-0.85-1.17-1.52-2.19-1.97c-0.46-0.21-0.97-0.37-1.54-0.48	C25.16,13.08,24.37,13,23.5,13c-4.21,0-7.85,2.14-9.85,4.15c-0.51,0.51-0.96,1.05-0.77,1.59c0.19,0.55,0.83,0.62,1.57,0.71	c0.61,0.07,1.31,0.16,1.77,0.47c1.51,1,4.6,2.08,6.78,2.08c2.45,0,5.03-0.62,6.26-2.23C29.73,19.16,30,18.41,30,17.5	C30,16.83,29.86,16.22,29.6,15.68z M23,21c-1.97,0-4.86-1.01-6.22-1.92c-0.67-0.44-1.52-0.54-2.21-0.62	c-0.21-0.03-0.48-0.06-0.66-0.1c0.07-0.1,0.2-0.26,0.44-0.51C16.22,15.99,19.6,14,23.5,14c1.65,0,5.5,0.34,5.5,3.5	C29,20.75,24.41,21,23,21z"/><path fill="#343434" d="M42.99,17.79c-0.04-0.53-0.22-1-0.51-1.4c-0.51-0.73-1.36-1.27-2.29-1.65	C38.89,14.21,37.44,14,36.5,14c-2.94,0-5.72,0.24-6.9,1.68c-0.38,0.47-0.6,1.07-0.6,1.82c0,1,0.08,1.73,0.26,2.27	c0.06,0.23,0.15,0.43,0.26,0.6c0.18,0.33,0.42,0.57,0.73,0.77c0.16,0.11,0.33,0.21,0.53,0.31C31.88,22,34.34,22,36.5,22	c1.34,0,3.71-0.43,5.19-1.57C42.47,19.83,43,19.04,43,18C43,17.93,43,17.86,42.99,17.79z M36.5,21c-1.85,0-4.38,0-5.28-0.45	C30.49,20.18,30,19.94,30,17.5c0-1.8,1.82-2.5,6.5-2.5c1.6,0,4.23,0.66,5.16,1.98c0.02,0.02,0.03,0.05,0.04,0.07	c0.15,0.23,0.25,0.48,0.28,0.75C41.99,17.87,42,17.94,42,18C42,20,38.47,21,36.5,21z"/><path fill="#343434" d="M26.49,12.42v0.01c0.05,0.27-0.14,0.52-0.41,0.56c-0.27,0.05-0.53-0.13-0.57-0.41	c-0.01-0.07-0.11-0.61-0.4-1.33C24.41,9.6,22.67,7,18.5,7C9.93,7,8,15.52,8,18.5C8,18.78,7.78,19,7.5,19S7,18.78,7,18.5	c0-0.67,0.06-1.39,0.19-2.14c0.08-0.54,0.21-1.09,0.37-1.65C8.78,10.45,12.11,6,18.5,6c2.87,0,4.75,1.12,5.94,2.43	c0.24,0.25,0.45,0.52,0.64,0.78c0.56,0.79,0.91,1.58,1.12,2.18c0.17,0.47,0.25,0.82,0.27,0.96C26.48,12.39,26.49,12.42,26.49,12.42z"/><path fill="#343434" d="M8.33,15.38l-1.14,0.98L5,18.23v-1.32l2.56-2.2l0.11-0.09c0.21-0.18,0.53-0.15,0.71,0.05	C8.56,14.88,8.54,15.2,8.33,15.38z"/><path fill="#343434" d="M27,14.5c-0.177,0-0.349-0.094-0.439-0.261c-1.219-2.234-3.363-2.975-4.947-3.203	c-3.22-0.463-6.689,0.747-7.761,1.817c-0.195,0.195-0.512,0.195-0.707,0s-0.195-0.512,0-0.707c1.41-1.41,5.206-2.591,8.61-2.1	c2.596,0.373,4.561,1.658,5.682,3.714c0.132,0.242,0.043,0.546-0.2,0.678C27.164,14.48,27.082,14.5,27,14.5z"/><linearGradient id="5UHryes3Lhsrbwxf3eQa5d" x1="5" x2="34.05" y1="41.5" y2="41.5" gradientUnits="userSpaceOnUse"><stop offset=".002" stop-color="#427fdb"/><stop offset=".397" stop-color="#2668cb"/><stop offset=".763" stop-color="#1358bf"/><stop offset="1" stop-color="#0c52bb"/></linearGradient><path fill="url(#5UHryes3Lhsrbwxf3eQa5d)" d="M34.05,44H5v-4.73	c2.31,1.13,9.58,3.23,16,3.23c7,0,11.5-3.5,11.5-3.5l0.73,0.39c-0.7,0.41-1.48,0.84-2.34,1.25c0.09,0.1,0.19,0.19,0.29,0.28	C32.13,41.8,33.36,42.93,34.05,44z"/><path fill="#343434" d="M41.48,29.73c0.01,0.09,0.02,0.18,0.02,0.27c0,0.28-0.22,0.5-0.5,0.5c-0.1,0-0.2-0.03-0.28-0.08	c-0.13-0.09-0.22-0.24-0.22-0.42c0-0.21-0.07-0.47-0.19-0.78c-0.37-0.88-1.21-2.17-2.48-4.07c-0.08-0.12-0.17-0.24-0.25-0.37	c-0.07-0.12-0.1-0.26-0.07-0.39c0.03-0.12,0.11-0.23,0.21-0.31c0.01,0,0.01-0.01,0.02-0.01c2.44-1.46,3.5-2.64,3.95-3.64	c0.35-0.78,0.33-1.44,0.32-2.04C42,18.25,42,18.13,42,18c0-0.24-0.11-0.57-0.3-0.95c-0.01-0.02-0.02-0.05-0.04-0.07	c-0.32-0.64-0.86-1.43-1.47-2.24c-0.8-1.03-1.74-2.09-2.54-2.89c-0.28-0.27-0.59-0.61-0.93-0.99C35.25,9.23,33.24,7,31,7	c-2.64,0-4.45,1.22-5.9,2.2l-0.02,0.01l-0.3,0.21c-0.23,0.15-0.54,0.09-0.7-0.14c-0.15-0.23-0.09-0.54,0.14-0.7l0.22-0.15l0.1-0.06	C26.02,7.37,28.06,6,31,6c2.68,0,4.87,2.42,6.46,4.19c0.33,0.36,0.63,0.69,0.89,0.96c0.04,0.03,2.93,2.96,4.13,5.24	c0.27,0.51,0.46,0.99,0.51,1.4C43,17.86,43,17.93,43,18l0.01,0.36c0.04,1.5,0.09,3.53-4.31,6.29C40.47,27.3,41.35,28.67,41.48,29.73	z"/><path fill="#343434" d="M42.04,31.03c0.02-0.36-0.07-0.87-0.56-1.3c-0.06-0.05-0.13-0.1-0.2-0.15	c-0.33-0.22-0.65-0.33-0.97-0.36c-0.79-0.07-1.58,0.34-2.46,0.79c-1.28,0.66-2.87,1.49-5.35,1.49c-2.54,0-6.35-0.64-9.71-1.21	c-2.51-0.42-4.68-0.79-5.79-0.79c-3.04,0-5,1.37-5,3.5c0,0.69,0.24,1.24,0.72,1.63c0.88,0.72,2.48,0.84,4.88,0.36	c1.64-0.32,5.36,0.55,8.34,1.25c1.32,0.31,2.57,0.6,3.48,0.75c1.48,0.25,2.89,0.37,4.12,0.37c0.35,0,0.69-0.01,1.01-0.03	c0.83-0.05,1.55-0.17,2.11-0.36c0.03-0.01,0.06-0.02,0.1-0.03c0.13-0.04,0.26-0.08,0.4-0.13c1.11-0.34,2.5-0.77,2.94-1.8	c0.16-0.4,0.17-0.83,0.02-1.3C40.9,33.17,41.97,32.1,42.04,31.03z M39.28,33.05c-0.12,0.06-0.21,0.17-0.25,0.29	c-0.05,0.13-0.04,0.27,0.02,0.38c0.07,0.14,0.12,0.28,0.15,0.4c0.05,0.19,0.04,0.35-0.02,0.5c-0.26,0.6-1.4,0.96-2.32,1.24	c-0.17,0.06-0.34,0.11-0.5,0.16c-0.02,0-0.04,0.01-0.06,0.02c-1.39,0.45-3.9,0.44-6.72-0.03c-0.87-0.15-2.1-0.44-3.41-0.75	c-2.71-0.63-5.72-1.34-7.71-1.34c-0.4,0-0.75,0.03-1.06,0.09c-2,0.4-3.44,0.35-4.04-0.15C13.11,33.66,13,33.39,13,33	c0-1.84,2.07-2.5,4-2.5c1.03,0,3.16,0.36,5.62,0.78c3.4,0.57,7.26,1.22,9.88,1.22c2.72,0,4.51-0.92,5.81-1.6	c1.23-0.64,1.79-0.9,2.41-0.48c0.3,0.19,0.33,0.4,0.32,0.55C40.99,31.69,39.95,32.71,39.28,33.05z"/><path fill="#343434" d="M34.5,35c-2.907,0-7.259-0.812-11.099-1.529c-3.159-0.589-6.422-1.202-7.28-0.985	c-0.267,0.062-0.54-0.097-0.606-0.364c-0.067-0.268,0.096-0.539,0.364-0.606c1.011-0.257,3.589,0.205,7.706,0.974	C27.381,33.196,31.685,34,34.5,34c1.202,0,3.012-0.364,4.842-0.975c0.264-0.088,0.545,0.056,0.632,0.316	c0.087,0.262-0.054,0.545-0.316,0.633C38.733,34.283,36.378,35,34.5,35z"/><path fill="#343434" d="M37,13c-0.075,0-0.151-0.017-0.223-0.053c-0.88-0.439-7.207-1.933-10.58-0.487	c-0.252,0.107-0.548-0.009-0.656-0.263c-0.109-0.254,0.009-0.548,0.263-0.657c3.718-1.594,10.437,0.021,11.42,0.513	c0.247,0.124,0.347,0.424,0.224,0.671C37.359,12.898,37.183,13,37,13z"/><path fill="#343434" d="M36.83,36.88c-0.01,0.01-0.03,0.03-0.07,0.06c-0.42,0.35-2.65,2.15-5.87,3.7	c-0.32,0.16-0.65,0.31-0.99,0.46c-2.44,1.06-5.34,1.9-8.4,1.9C13.15,43,7.08,40.7,5,39.78v-1.09C6.47,39.38,12.66,42,21.5,42	c5.49,0,10.56-2.94,13.05-4.67c1.01-0.69,1.6-1.19,1.62-1.21c0.04-0.03,0.08-0.06,0.13-0.08c0.02-0.01,0.04-0.02,0.06-0.02	c0.18-0.05,0.39,0,0.52,0.15C37.06,36.38,37.04,36.7,36.83,36.88z"/><path fill="#343434" d="M34.05,44h-1.23c-0.66-0.82-1.61-1.69-2.32-2.34c-0.22-0.21-0.42-0.39-0.6-0.56	c-0.09-0.09-0.18-0.17-0.25-0.25c-0.2-0.19-0.2-0.51,0-0.7c0.19-0.2,0.51-0.2,0.7,0c0.15,0.14,0.34,0.31,0.54,0.49	c0.09,0.1,0.19,0.19,0.29,0.28C32.13,41.8,33.36,42.93,34.05,44z"/><path fill="#343434" d="M13.5,37.5c-1.257,0-2.881-1.645-3.447-2.776c-0.124-0.247-0.023-0.547,0.224-0.671	c0.247-0.125,0.547-0.022,0.671,0.224c0.465,0.93,1.838,2.224,2.553,2.224c0.276,0,0.5,0.224,0.5,0.5S13.776,37.5,13.5,37.5z"/><path fill="#343434" d="M25.61,40.49C23.97,40.85,22.26,41,20.55,41C13.98,41,7.41,38.78,5,37.77v-1.1	c1.78,0.74,11.91,4.72,20.39,2.84c0.27-0.05,0.54,0.11,0.6,0.38C26.05,40.16,25.88,40.43,25.61,40.49z"/><path fill="#343434" d="M34.677,25.63c-1.104,0-2.039-0.108-2.239-0.134c-0.274-0.034-0.468-0.284-0.434-0.558	c0.035-0.273,0.28-0.471,0.558-0.435c1.062,0.133,4.059,0.314,5.161-0.42c0.23-0.153,0.54-0.092,0.693,0.139	c0.153,0.229,0.091,0.54-0.139,0.693C37.419,25.488,35.938,25.63,34.677,25.63z"/><path fill="#343434" d="M33.5,27c-0.184,0-0.36-0.102-0.448-0.276c-0.454-0.908-1.369-1.822-2.276-2.276	c-0.247-0.124-0.347-0.424-0.224-0.671c0.124-0.246,0.423-0.348,0.671-0.224c1.103,0.552,2.172,1.621,2.724,2.724	c0.124,0.247,0.023,0.547-0.224,0.671C33.652,26.983,33.576,27,33.5,27z"/><path fill="#343434" d="M23.5,24c-2.6,0-6.7-1.032-8.277-2.084c-0.23-0.153-0.292-0.464-0.139-0.693	c0.152-0.229,0.462-0.293,0.693-0.139C17.201,22.033,21.098,23,23.5,23c0.276,0,0.5,0.224,0.5,0.5S23.776,24,23.5,24z"/><path fill="#343434" d="M26,23.5c-0.276,0-0.5-0.224-0.5-0.5s0.224-0.5,0.5-0.5c0.837,0,3.11-0.911,3.526-2.158	c0.087-0.261,0.369-0.404,0.632-0.316c0.262,0.088,0.403,0.371,0.316,0.633C29.896,22.394,27.211,23.5,26,23.5z"/><path fill="#343434" d="M21.5,26.5c-0.276,0-0.5-0.224-0.5-0.5s0.224-0.5,0.5-0.5c1.335,0,4.19-1.437,5.084-2.777	c0.153-0.23,0.462-0.293,0.693-0.139c0.23,0.153,0.292,0.464,0.139,0.693C26.31,24.938,23.145,26.5,21.5,26.5z"/><path fill="#fff" d="M10,15c0,0.5-1,2-1,2.5s0.5,1,1,1s1-0.5,1-1S10,17,10.5,16s0.5-1.5,0-1.5S10,15,10,15z"/><path fill="#fff" d="M6.5,20.5c-0.5,0-1,0.5-1,1s0.5,1,1,1S7.5,20.5,6.5,20.5z"/><path fill="#fff" d="M14,10.5c-0.5,0-1-0.5-1-1s0.5-1,1-1s-0.5,1,0,1S15,10.5,14,10.5z"/><path fill="#fff" d="M32.5,9.5c0,0.5,0.5,1,1,1c1,0,1-1.5,0-2S33,8.5,33,9S32.5,9,32.5,9.5z"/><circle cx="24.5" cy="18.5" r=".5" fill="#fff"/><circle cx="38" cy="18.5" r=".5" fill="#fff"/><circle cx="24.25" cy="17.25" r=".25" fill="#fff"/><circle cx="38.25" cy="17.25" r=".25" fill="#fff"/><circle cx="38.75" cy="19.25" r=".25" fill="#fff"/><circle cx="25.75" cy="19.25" r=".25" fill="#fff"/></svg>