<svg xmlns="http://www.w3.org/2000/svg" viewBox="0 0 48 48"><linearGradient id="egyBMvsB_JABfM4C72B~_a" x1="23.418" x2="25.915" y1="9.414" y2="41.968" gradientUnits="userSpaceOnUse"><stop offset="0" stop-color="#2aa4f4"/><stop offset="1" stop-color="#007ad9"/></linearGradient><path fill="url(#egyBMvsB_JABfM4C72B~_a)" d="M10.533,17l2.272,26.213C12.913,44.229,13.771,45,14.793,45h18.414 c1.022,0,1.88-0.771,1.989-1.787L37.467,17H10.533z"/><linearGradient id="egyBMvsB_JABfM4C72B~_b" x1="23.897" x2="26.408" y1="9.62" y2="43.37" gradientUnits="userSpaceOnUse"><stop offset="0" stop-color="#32bdef"/><stop offset=".38" stop-color="#2fb9ed"/><stop offset=".787" stop-color="#25ace8"/><stop offset="1" stop-color="#1ea2e4"/></linearGradient><path fill="url(#egyBMvsB_JABfM4C72B~_b)" d="M37.467,17L38,11.087C38.051,10.503,37.59,10,37.004,10H10.996 C10.41,10,9.949,10.503,10,11.087L10.533,17H37.467z"/><circle cx="22.5" cy="25.5" r="1.5" fill="#50e6ff"/><circle cx="28.5" cy="3.5" r="1.5" fill="#50e6ff"/><circle cx="23.5" cy="6.5" r="1.5" fill="#50e6ff"/><circle cx="28" cy="21" r="1" fill="#50e6ff"/><circle cx="24" cy="1" r="1" fill="#50e6ff"/><circle cx="26.5" cy="32.5" r="1.5" fill="#50e6ff"/><circle cx="20" cy="34" r="1" fill="#50e6ff"/><circle cx="25" cy="39" r="1" fill="#50e6ff"/></svg>