<svg xmlns="http://www.w3.org/2000/svg" data-name="Слой 1" viewBox="0 0 48 48"><defs><linearGradient id="8bHp8rbY~p704Y3rUhqB2a" x1="14.7" x2="4.972" y1="2.052" y2="28.779" data-name="Новый образец градиентной зал 2" gradientUnits="userSpaceOnUse"><stop offset="0" stop-color="#2aa4f4"/><stop offset="1" stop-color="#007ad9"/></linearGradient></defs><path fill="#889097" d="M11,24V42a1,1,0,0,1-2,0V24a1,1,0,0,1,2,0Z"/><path fill="#64717c" d="M34.999,40a1.00007,1.00007,0,0,1-.97949-.80371L30.18066,20H27.81934L23.98047,39.19629a.99993.99993,0,0,1-1.96094-.39258l4-20A1.00018,1.00018,0,0,1,27,18h4a1.00018,1.00018,0,0,1,.98047.80371l4,20a1.0003,1.0003,0,0,1-.78418,1.17676A1.01583,1.01583,0,0,1,34.999,40Z"/><path fill="#64717c" d="M23,40a1,1,0,0,1-.64746-1.76172l9.17383-7.79785L25.543,24.457A.99989.99989,0,0,1,26.957,23.043l6.75,6.75a.99972.99972,0,0,1-.05957,1.46875l-10,8.5A.99334.99334,0,0,1,23,40Z"/><path fill="#64717c" d="M35,40a.99334.99334,0,0,1-.64746-.23828l-10-8.501A.99972.99972,0,0,1,24.293,29.792l6.75-6.749A.99989.99989,0,0,1,32.457,24.457l-5.9834,5.98242,9.17383,7.79883A1,1,0,0,1,35,40Z"/><path fill="#889097" d="M43.94,23.44l-.69,1.88a.99257.99257,0,0,1-1.28.59L15.46,16.2l-.48-.18-.49-.18-1.58-.58L14.28,11.5l1.72.63.5.18.5.19,26.34,9.66A.99766.99766,0,0,1,43.94,23.44Z"/><path fill="url(#8bHp8rbY~p704Y3rUhqB2a)" d="M9.60971,27h0A1.45072,1.45072,0,0,1,8.52,26.50425,15.69394,15.69394,0,0,1,5,16,11.70348,11.70348,0,0,1,13.43835,4.34722,2.0135,2.0135,0,0,1,16,6.27269v6.94242a1.99085,1.99085,0,0,1-.49208,1.31271,19.1463,19.1463,0,0,0-4.46349,11.132A1.43806,1.43806,0,0,1,9.60971,27Z"/><path fill="#64717c" d="M38.001,40a.98765.98765,0,0,1-.125-.00781,1.00009,1.00009,0,0,1-.86817-1.11621l2-16a.99991.99991,0,0,1,1.98438.248l-2,16A1.00045,1.00045,0,0,1,38.001,40Z"/><path fill="#889097" d="M21,38H39a2,2,0,0,1,2,2v3a0,0,0,0,1,0,0H19a0,0,0,0,1,0,0V40A2,2,0,0,1,21,38Z"/><path d="M16.5,12.31l-.5-.18v1.09a1.991,1.991,0,0,1-.49,1.31,13.91019,13.91019,0,0,0-1.02,1.31l.49.18.48.18c.3-.42.58-.77.8-1.02A2.95016,2.95016,0,0,0,17,13.22V12.5ZM9.61,27A1.43329,1.43329,0,0,1,9,26.86v1.06a2.49006,2.49006,0,0,0,.61.08A2.45971,2.45971,0,0,0,11,27.57V25.93A1.43727,1.43727,0,0,1,9.61,27Z" opacity=".05"/><path d="M16,12.13v1.09a1.991,1.991,0,0,1-.49,1.31,13.91019,13.91019,0,0,0-1.02,1.31l.49.18a14.05665,14.05665,0,0,1,.91-1.16,2.54071,2.54071,0,0,0,.61-1.64v-.91ZM9.61,27A1.43329,1.43329,0,0,1,9,26.86v.54a1.77454,1.77454,0,0,0,.61.1A1.90962,1.90962,0,0,0,11,26.91v-.98A1.43727,1.43727,0,0,1,9.61,27Z" opacity=".07"/></svg>