<svg xmlns="http://www.w3.org/2000/svg" viewBox="0 0 48 48"><path fill="#06c" d="M44,42h-8c-0.276,0-0.539-0.114-0.728-0.314l-32-34C2.893,7.283,2.913,6.65,3.314,6.272	C3.718,5.894,4.35,5.913,4.728,6.314L36.432,40H44c0.552,0,1,0.448,1,1S44.552,42,44,42z"/><circle cx="24" cy="24" r="1" fill="#64717c"/><circle cx="28" cy="24" r="1" fill="#64717c"/><circle cx="32" cy="24" r="1" fill="#64717c"/><circle cx="36" cy="24" r="1" fill="#64717c"/><circle cx="40" cy="24" r="1" fill="#64717c"/><circle cx="44" cy="24" r="1" fill="#64717c"/><circle cx="4" cy="24" r="1" fill="#64717c"/><circle cx="8" cy="24" r="1" fill="#64717c"/><circle cx="12" cy="24" r="1" fill="#64717c"/><circle cx="16" cy="24" r="1" fill="#64717c"/><circle cx="20" cy="24" r="1" fill="#64717c"/></svg>