<svg xmlns="http://www.w3.org/2000/svg" viewBox="0 0 48 48"><linearGradient id="YblwLqqysINhq1QxF5SKIa" x1="39.001" x2="41.528" y1="29.5" y2="29.5" gradientUnits="userSpaceOnUse"><stop offset="0" stop-color="#c48f0c"/><stop offset=".251" stop-color="#d19b16"/><stop offset=".619" stop-color="#dca51f"/><stop offset="1" stop-color="#e0a922"/></linearGradient><path fill="url(#YblwLqqysINhq1QxF5SKIa)" d="M38.999,25H38v9h1.333c0.975,0,1.808-0.703,1.972-1.664l0.653-3.832	C42.269,26.672,40.857,25,38.999,25z"/><linearGradient id="YblwLqqysINhq1QxF5SKIb" x1="-609" x2="-606.472" y1="29.5" y2="29.5" gradientTransform="matrix(-1 0 0 1 -600 0)" gradientUnits="userSpaceOnUse"><stop offset="0" stop-color="#c48f0c"/><stop offset=".251" stop-color="#d19b16"/><stop offset=".619" stop-color="#dca51f"/><stop offset="1" stop-color="#e0a922"/></linearGradient><path fill="url(#YblwLqqysINhq1QxF5SKIb)" d="M9.001,25H10v9H8.667c-0.975,0-1.808-0.703-1.972-1.664l-0.653-3.832	C5.731,26.672,7.143,25,9.001,25z"/><radialGradient id="YblwLqqysINhq1QxF5SKIc" cx="24" cy="25.5" r="17.396" gradientUnits="userSpaceOnUse"><stop offset="0" stop-color="#ffcf54"/><stop offset=".261" stop-color="#fdcb4d"/><stop offset=".639" stop-color="#f7c13a"/><stop offset="1" stop-color="#f0b421"/></radialGradient><path fill="url(#YblwLqqysINhq1QxF5SKIc)" d="M24,6C16.598,6,9,9,9,25c0,1.281,0,5.92,0,7.288C9,38,18,45,24,45s15-7,15-12.712	c0-1.368,0-6.007,0-7.288C39,9,31.402,6,24,6z"/><path fill="#33c481" d="M38.443,18.264c-0.585-3.157-1.603-5.533-2.915-7.313C29.92,23.665,16.742,31.597,9.662,35.093	c0.74,1.703,2.053,3.398,3.682,4.896C20.386,36.415,31.636,29.359,38.443,18.264z"/><path fill="#21a366" d="M35.859,11.419c-1.295-1.936-2.913-3.223-4.704-4.055C25.581,19.356,14.846,26.285,9,29.322	c0,1.238,0,2.391,0,2.966c0,1.077,0.321,2.2,0.881,3.313C15.648,32.905,28.669,25.535,35.859,11.419z"/><path fill="#107c41" d="M39,26.56c0-0.668,0-1.228,0-1.56c0-3.365-0.34-6.149-0.939-8.457	c-6.129,12.809-18.989,20.314-24.955,23.23c1.652,1.568,3.639,2.922,5.647,3.863C24.499,40.502,32.787,34.954,39,26.56z"/><linearGradient id="YblwLqqysINhq1QxF5SKId" x1="19.576" x2="27.384" y1="3.94" y2="32.824" gradientUnits="userSpaceOnUse"><stop offset="0" stop-color="#889097"/><stop offset=".331" stop-color="#848c94"/><stop offset=".669" stop-color="#78828b"/><stop offset="1" stop-color="#64717c"/></linearGradient><path fill="url(#YblwLqqysINhq1QxF5SKId)" d="M24,4c-7.982,0-10,3-10,3c-3.245,0.479-7,4.566-7,10c0,3.032,0.653,4.439,2,12 c1-12,2-16,4-16c3,0,3,2,11.778,2C29.801,15,32,13,34,13c5,0,5,14.108,5,16c0.806-7.405,1-9.351,1-12C40,10.712,35.383,4,24,4z"/><g><linearGradient id="YblwLqqysINhq1QxF5SKIe" x1="25.498" x2="25.498" y1="13.478" y2="2.752" gradientUnits="userSpaceOnUse"><stop offset="0" stop-color="#889097"/><stop offset=".331" stop-color="#848c94"/><stop offset=".669" stop-color="#78828b"/><stop offset="1" stop-color="#64717c"/></linearGradient><path fill="url(#YblwLqqysINhq1QxF5SKIe)" d="M24,3c-7.982,0-10,4-10,4c-0.08,2.125,1,4,1,4s1.46,3,9.778,3C29.801,14,37,11.003,37,3 C37,3,35.383,3,24,3z"/></g></svg>