<svg xmlns="http://www.w3.org/2000/svg" viewBox="0 0 48 48"><linearGradient id="ajYPt46MIqz08SZIwoelxa" x1="24" x2="24" y1="13.821" y2="6.499" gradientTransform="matrix(1 0 0 -1 0 50)" gradientUnits="userSpaceOnUse"><stop offset="0" stop-color="#33c481"/><stop offset="1" stop-color="#21a366"/></linearGradient><path fill="url(#ajYPt46MIqz08SZIwoelxa)" d="M42,43H6c-0.6,0-1-0.4-1-1v-4c0-0.6,0.4-1,1-1h36c0.6,0,1,0.4,1,1v4C43,42.6,42.6,43,42,43z"/><linearGradient id="ajYPt46MIqz08SZIwoelxb" x1="24" x2="24" y1="25.684" y2="19.582" gradientTransform="matrix(1 0 0 -1 0 50)" gradientUnits="userSpaceOnUse"><stop offset="0" stop-color="#33c481"/><stop offset="1" stop-color="#21a366"/></linearGradient><path fill="url(#ajYPt46MIqz08SZIwoelxb)" d="M42,30H6c-0.6,0-1-0.4-1-1v-3c0-0.6,0.4-1,1-1h36c0.6,0,1,0.4,1,1v3C43,29.6,42.6,30,42,30z"/><linearGradient id="ajYPt46MIqz08SZIwoelxc" x1="24" x2="24" y1="36.547" y2="31.666" gradientTransform="matrix(1 0 0 -1 0 50)" gradientUnits="userSpaceOnUse"><stop offset="0" stop-color="#33c481"/><stop offset="1" stop-color="#21a366"/></linearGradient><path fill="url(#ajYPt46MIqz08SZIwoelxc)" d="M42,18H6c-0.6,0-1-0.4-1-1v-2c0-0.6,0.4-1,1-1h36c0.6,0,1,0.4,1,1v2C43,17.6,42.6,18,42,18z"/><linearGradient id="ajYPt46MIqz08SZIwoelxd" x1="24" x2="24" y1="45.411" y2="41.749" gradientTransform="matrix(1 0 0 -1 0 50)" gradientUnits="userSpaceOnUse"><stop offset="0" stop-color="#33c481"/><stop offset="1" stop-color="#21a366"/></linearGradient><path fill="url(#ajYPt46MIqz08SZIwoelxd)" d="M42,8H6C5.4,8,5,7.6,5,7V6c0-0.6,0.4-1,1-1h36c0.6,0,1,0.4,1,1v1C43,7.6,42.6,8,42,8z"/></svg>