<svg xmlns="http://www.w3.org/2000/svg" viewBox="0 0 48 48"><linearGradient id="hs2w10uzJqq_1HkRVJX1Ha" x1="3.043" x2="42.124" y1="3.043" y2="42.124" gradientUnits="userSpaceOnUse"><stop offset="0" stop-color="#eba84b"/><stop offset="1" stop-color="#d97218"/></linearGradient><path fill="url(#hs2w10uzJqq_1HkRVJX1Ha)" d="M6,40V8c0-1.1,0.9-2,2-2h32c1.1,0,2,0.9,2,2v32c0,1.1-0.9,2-2,2H8C6.9,42,6,41.1,6,40z"/><path fill="#fff8e6" d="M29,11H19V6h10V11z"/><rect width="10" height="2" x="10" y="37" fill="#b14716"/><polygon fill="#b14716" points="11,32 11,35 13,35 13,32 14,32 12,30 10,32"/><polygon fill="#b14716" points="17,32 17,35 19,35 19,32 20,32 18,30 16,32"/><path d="M38.822,30.166c-0.269-0.554-0.937-1.113-1.822-1.113c-1.022,0-1.623,0.7-1.769,1.019L27.744,42H40	c1.1,0,2-0.9,2-2v-4.775L38.822,30.166z" opacity=".05"/><path d="M38.372,30.385c-0.15-0.309-0.607-0.832-1.372-0.832s-1.222,0.523-1.345,0.784L28.333,42H40	c1.1,0,2-0.9,2-2v-3.839L38.372,30.385z" opacity=".07"/><linearGradient id="hs2w10uzJqq_1HkRVJX1Hb" x1="-137.298" x2="43.76" y1="-270.828" y2="-478.488" gradientTransform="matrix(1 0 0 -1 0 -426)" gradientUnits="userSpaceOnUse"><stop offset="0" stop-color="#ffda1c"/><stop offset="1" stop-color="#feb705"/></linearGradient><path fill="url(#hs2w10uzJqq_1HkRVJX1Hb)" d="M47.808,46.348l-9.886-15.745c0,0-0.266-0.55-0.922-0.55s-0.922,0.55-0.922,0.55	l-9.886,15.745c0,0-0.192,0.257-0.192,0.604C26,47.531,26.469,48,27.048,48h19.905C47.531,48,48,47.531,48,46.952	C48,46.605,47.808,46.348,47.808,46.348z"/><radialGradient id="hs2w10uzJqq_1HkRVJX1Hc" cx="33.956" cy="-461.314" r="11.714" gradientTransform="matrix(1 0 0 -1 0 -426)" gradientUnits="userSpaceOnUse"><stop offset="0" stop-color="#4b4b4b"/><stop offset=".531" stop-color="#393939"/><stop offset="1" stop-color="#252525"/></radialGradient><path fill="url(#hs2w10uzJqq_1HkRVJX1Hc)" d="M37.007,45.905c-0.383,0-0.7-0.116-0.949-0.349s-0.374-0.514-0.374-0.845	c0-0.345,0.126-0.628,0.378-0.849c0.251-0.221,0.567-0.331,0.945-0.331c0.383,0,0.698,0.112,0.942,0.334	c0.245,0.223,0.367,0.504,0.367,0.845c0,0.345-0.121,0.63-0.363,0.855C37.711,45.792,37.395,45.905,37.007,45.905z M38.171,35.806	l-0.252,6.377c-0.008,0.195-0.168,0.349-0.363,0.349h-1.141c-0.195,0-0.356-0.155-0.363-0.35l-0.238-6.377	c-0.008-0.206,0.157-0.377,0.363-0.377h1.632C38.015,35.429,38.18,35.6,38.171,35.806z"/></svg>