<svg xmlns="http://www.w3.org/2000/svg" viewBox="0 0 48 48"><linearGradient id="NmrbgP3Adom4n70evsgAca" x1="33.511" x2="33.511" y1="11.123" y2="16.284" gradientTransform="matrix(1 0 0 -1 0 48)" gradientUnits="userSpaceOnUse"><stop offset="0" stop-color="#0077d2"/><stop offset="1" stop-color="#0b59a2"/></linearGradient><path fill="url(#NmrbgP3Adom4n70evsgAca)" d="M34,41h-7.977c-0.553,0-1-0.448-1-1s0.447-1,1-1H34c3.309,0,6-2.691,6-6v-2	c0-0.552,0.447-1,1-1s1,0.448,1,1v2C42,37.411,38.411,41,34,41z"/><linearGradient id="NmrbgP3Adom4n70evsgAcb" x1="43" x2="43" y1="26.307" y2="6.059" gradientTransform="matrix(1 0 0 -1 0 48)" gradientUnits="userSpaceOnUse"><stop offset="0" stop-color="#0077d2"/><stop offset="1" stop-color="#0b59a2"/></linearGradient><path fill="url(#NmrbgP3Adom4n70evsgAcb)" d="M41.5,21H39v10h2.5c3.038,0,5.5-2.239,5.5-5S44.538,21,41.5,21z"/><linearGradient id="NmrbgP3Adom4n70evsgAcc" x1="5" x2="5" y1="26.307" y2="6.059" gradientTransform="matrix(1 0 0 -1 0 48)" gradientUnits="userSpaceOnUse"><stop offset="0" stop-color="#0077d2"/><stop offset="1" stop-color="#0b59a2"/></linearGradient><path fill="url(#NmrbgP3Adom4n70evsgAcc)" d="M6.5,21H9v10H6.5C3.462,31,1,28.761,1,26S3.462,21,6.5,21z"/><linearGradient id="NmrbgP3Adom4n70evsgAcd" x1="24.135" x2="23.799" y1="40.218" y2="30.962" gradientTransform="matrix(1 0 0 -1 0 48)" gradientUnits="userSpaceOnUse"><stop offset="0" stop-color="#0077d2"/><stop offset="1" stop-color="#0b59a2"/></linearGradient><path fill="url(#NmrbgP3Adom4n70evsgAcd)" d="M24,16c-0.553,0-1-0.448-1-1V8c0-0.552,0.447-1,1-1s1,0.448,1,1v7C25,15.552,24.553,16,24,16z"/><path fill="#199be2" d="M34,39H14c-3.314,0-6-2.686-6-6V19c0-3.314,2.686-6,6-6h20c3.314,0,6,2.686,6,6v14	C40,36.314,37.314,39,34,39z"/><linearGradient id="NmrbgP3Adom4n70evsgAce" x1="24" x2="24" y1="28.198" y2="8.031" gradientTransform="matrix(1 0 0 -1 0 48)" gradientUnits="userSpaceOnUse"><stop offset="0" stop-color="#0077d2"/><stop offset="1" stop-color="#0b59a2"/></linearGradient><path fill="url(#NmrbgP3Adom4n70evsgAce)" d="M12,29.867v-7.733C12,20.403,13.403,19,15.133,19h17.733C34.597,19,36,20.403,36,22.133v7.733	C36,31.597,34.597,33,32.867,33H15.133C13.403,33,12,31.597,12,29.867z"/><linearGradient id="NmrbgP3Adom4n70evsgAcf" x1="24" x2="24" y1="42.923" y2="39.147" gradientTransform="matrix(1 0 0 -1 0 48)" gradientUnits="userSpaceOnUse"><stop offset="0" stop-color="#0077d2"/><stop offset="1" stop-color="#0b59a2"/></linearGradient><path fill="url(#NmrbgP3Adom4n70evsgAcf)" d="M24,5L24,5c1.105,0,2,0.895,2,2l0,0c0,1.105-0.895,2-2,2l0,0c-1.105,0-2-0.895-2-2l0,0	C22,5.895,22.895,5,24,5z"/><path d="M18,31c-1.654,0-3-1.346-3-3v-4c0-1.654,1.346-3,3-3s3,1.346,3,3v4	C21,29.654,19.654,31,18,31z" opacity=".05"/><path d="M18,30.5c-1.379,0-2.5-1.122-2.5-2.5v-4c0-1.378,1.121-2.5,2.5-2.5	s2.5,1.122,2.5,2.5v4C20.5,29.378,19.379,30.5,18,30.5z" opacity=".07"/><path fill="#50e6ff" d="M18,22L18,22c1.105,0,2,0.895,2,2v4c0,1.105-0.895,2-2,2l0,0c-1.105,0-2-0.895-2-2v-4	C16,22.895,16.895,22,18,22z"/><path d="M30,31c-1.654,0-3-1.346-3-3v-4c0-1.654,1.346-3,3-3s3,1.346,3,3v4	C33,29.654,31.654,31,30,31z" opacity=".05"/><path d="M30,30.5c-1.379,0-2.5-1.122-2.5-2.5v-4c0-1.378,1.121-2.5,2.5-2.5	s2.5,1.122,2.5,2.5v4C32.5,29.378,31.379,30.5,30,30.5z" opacity=".07"/><path fill="#50e6ff" d="M30,22L30,22c1.105,0,2,0.895,2,2v4c0,1.105-0.895,2-2,2l0,0c-1.105,0-2-0.895-2-2v-4	C28,22.895,28.895,22,30,22z"/><path d="M28,39h-8c0-1.1,0.9-2,2-2h4C27.1,37,28,37.9,28,39z" opacity=".05"/><path d="M27.5,39h-7c0-0.83,0.67-1.5,1.5-1.5h4C26.83,37.5,27.5,38.17,27.5,39z" opacity=".07"/><linearGradient id="NmrbgP3Adom4n70evsgAcg" x1="24" x2="24" y1="9.779" y2="5.608" gradientTransform="matrix(1 0 0 -1 0 48)" gradientUnits="userSpaceOnUse"><stop offset="0" stop-color="#4c4c4c"/><stop offset="1" stop-color="#343434"/></linearGradient><path fill="url(#NmrbgP3Adom4n70evsgAcg)" d="M26,42h-4c-0.552,0-1-0.448-1-1v-2c0-0.552,0.448-1,1-1h4c0.552,0,1,0.448,1,1v2	C27,41.552,26.552,42,26,42z"/></svg>