<svg xmlns="http://www.w3.org/2000/svg" baseProfile="basic" viewBox="0 0 48 48"><radialGradient id="Is4lgtef9ibjW0gXTJJu5a" cx="14.627" cy="15.933" r="19.48" gradientUnits="userSpaceOnUse"><stop offset="0" stop-color="#006185"/><stop offset=".417" stop-color="#35c1f1"/></radialGradient><path fill="url(#Is4lgtef9ibjW0gXTJJu5a)" d="M20,12.7c0,0,0,20.217,0,20.603S19.568,35,16.5,35S13,33.695,13,33.303s0-16.053,0-16.053	L20,12.7z"/><linearGradient id="Is4lgtef9ibjW0gXTJJu5b" x1="8.663" x2="15.84" y1="2.027" y2="24.313" gradientUnits="userSpaceOnUse"><stop offset="0" stop-color="#a3ffff"/><stop offset=".223" stop-color="#9dfbff"/><stop offset=".53" stop-color="#8bf1ff"/><stop offset=".885" stop-color="#6ee0ff"/><stop offset="1" stop-color="#63daff"/></linearGradient><path fill="url(#Is4lgtef9ibjW0gXTJJu5b)" d="M13.956,1C9.157,1,0,7.46,0,13.534C0,21.434,6.469,24,8.677,24C15.716,24,24,17.157,24,11.118	C24,4.034,18.436,1,13.956,1z"/><linearGradient id="Is4lgtef9ibjW0gXTJJu5c" x1="9.295" x2="3.525" y1="18.383" y2="16.104" gradientUnits="userSpaceOnUse"><stop offset="0" stop-color="#6d7479"/><stop offset="1" stop-color="#323538"/></linearGradient><path fill="url(#Is4lgtef9ibjW0gXTJJu5c)" d="M7.42,15.58c1.249,1.899,1.388,4.017,0.311,4.731s-2.962-0.247-4.211-2.146	c-1.249-1.899-1.388-4.017-0.311-4.731S6.172,13.681,7.42,15.58z"/><linearGradient id="Is4lgtef9ibjW0gXTJJu5d" x1="13.774" x2="17.419" y1="6.749" y2="11.588" gradientUnits="userSpaceOnUse"><stop offset="0" stop-color="#6d7479"/><stop offset="1" stop-color="#323538"/></linearGradient><path fill="url(#Is4lgtef9ibjW0gXTJJu5d)" d="M12.569,12.174L12.569,12.174c-0.815-1.187-0.517-2.809,0.666-3.629l2.672-1.851	c1.182-0.819,2.804-0.521,3.618,0.664l0.002,0.003c0.814,1.185,0.517,2.806-0.665,3.624l-2.675,1.853	C15.005,13.657,13.383,13.359,12.569,12.174z"/><ellipse cx="17.426" cy="8.911" fill="#1d2021" rx="1.594" ry="1.601"/><radialGradient id="Is4lgtef9ibjW0gXTJJu5e" cx="262.627" cy="27.933" r="19.48" gradientTransform="matrix(-1 0 0 1 296 0)" gradientUnits="userSpaceOnUse"><stop offset="0" stop-color="#006185"/><stop offset=".417" stop-color="#35c1f1"/></radialGradient><path fill="url(#Is4lgtef9ibjW0gXTJJu5e)" d="M28,24.7c0,0,0,20.217,0,20.603S28.432,47,31.5,47s3.5-1.305,3.5-1.697s0-16.053,0-16.053	L28,24.7z"/><linearGradient id="Is4lgtef9ibjW0gXTJJu5f" x1="30.975" x2="40.571" y1="12.768" y2="34.976" gradientUnits="userSpaceOnUse"><stop offset="0" stop-color="#a3ffff"/><stop offset=".223" stop-color="#9dfbff"/><stop offset=".53" stop-color="#8bf1ff"/><stop offset=".885" stop-color="#6ee0ff"/><stop offset="1" stop-color="#63daff"/></linearGradient><path fill="url(#Is4lgtef9ibjW0gXTJJu5f)" d="M34.044,13C38.843,13,48,19.46,48,25.534C48,33.434,41.531,36,39.323,36	C32.284,36,24,29.157,24,23.118C24,16.034,29.564,13,34.044,13z"/><linearGradient id="Is4lgtef9ibjW0gXTJJu5g" x1="44.14" x2="41.306" y1="32.715" y2="25.952" gradientUnits="userSpaceOnUse"><stop offset="0" stop-color="#6d7479"/><stop offset="1" stop-color="#323538"/></linearGradient><path fill="url(#Is4lgtef9ibjW0gXTJJu5g)" d="M40.58,27.58c-1.249,1.899-1.388,4.017-0.311,4.731c1.077,0.714,2.962-0.247,4.211-2.146	c1.249-1.899,1.388-4.017,0.311-4.731C43.714,24.72,41.828,25.681,40.58,27.58z"/><linearGradient id="Is4lgtef9ibjW0gXTJJu5h" x1="30.979" x2="33.375" y1="16.392" y2="29.612" gradientUnits="userSpaceOnUse"><stop offset="0" stop-color="#6d7479"/><stop offset="1" stop-color="#323538"/></linearGradient><path fill="url(#Is4lgtef9ibjW0gXTJJu5h)" d="M35.431,24.174L35.431,24.174c0.815-1.187,0.517-2.809-0.666-3.629l-2.672-1.851	c-1.182-0.819-2.804-0.521-3.618,0.664l0,0c-0.815,1.187-0.517,2.809,0.666,3.629l2.672,1.851	C32.995,25.657,34.617,25.359,35.431,24.174z"/><ellipse cx="30.574" cy="20.911" fill="#1d2021" rx="1.594" ry="1.601"/></svg>