<svg xmlns="http://www.w3.org/2000/svg" viewBox="0 0 48 48"><linearGradient id="DyyYvhAhw43CbWsbEaRHya" x1="12.323" x2="37.152" y1="-5.677" y2="19.152" gradientUnits="userSpaceOnUse"><stop offset="0" stop-color="#4c4c4c"/><stop offset="1" stop-color="#343434"/></linearGradient><rect width="2" height="6" x="23" y="3" fill="url(#DyyYvhAhw43CbWsbEaRHya)"/><linearGradient id="DyyYvhAhw43CbWsbEaRHyb" x1="8.783" x2="29.976" y1="-7.217" y2="13.976" gradientTransform="rotate(90 20.75 6)" gradientUnits="userSpaceOnUse"><stop offset="0" stop-color="#4c4c4c"/><stop offset="1" stop-color="#343434"/></linearGradient><path fill="url(#DyyYvhAhw43CbWsbEaRHyb)" d="M21,4L21,4c0-0.552,0.448-1,1-1h4c0.552,0,1,0.448,1,1v0c0,0.552-0.448,1-1,1h-4	C21.448,5,21,4.552,21,4z"/><linearGradient id="DyyYvhAhw43CbWsbEaRHyc" x1="6" x2="42" y1="27" y2="27" gradientUnits="userSpaceOnUse"><stop offset="0" stop-color="#00bffe"/><stop offset="1" stop-color="#1d55c4"/></linearGradient><path fill="url(#DyyYvhAhw43CbWsbEaRHyc)" d="M41.55,23.02c-0.62-2.77-1.88-5.3-3.62-7.42c-0.76-0.92-1.61-1.77-2.53-2.53 c-2.12-1.74-4.65-3-7.42-3.62C26.7,9.15,25.37,9,24,9s-2.7,0.15-3.98,0.45c-2.77,0.62-5.3,1.88-7.42,3.62 c-0.92,0.76-1.77,1.61-2.53,2.53c-1.74,2.12-3,4.65-3.62,7.42C6.15,24.3,6,25.63,6,27s0.15,2.7,0.45,3.98 c0.62,2.77,1.88,5.3,3.62,7.42c0.76,0.92,1.61,1.77,2.53,2.53c2.12,1.74,4.65,3,7.42,3.62C21.3,44.85,22.63,45,24,45 s2.7-0.15,3.98-0.45c2.77-0.62,5.3-1.88,7.42-3.62c0.92-0.76,1.77-1.61,2.53-2.53c1.74-2.12,3-4.65,3.62-7.42 C41.85,29.7,42,28.37,42,27S41.85,24.3,41.55,23.02z"/><path fill="#0078d4" d="M12.14,38.86c0.14,0.7,0.29,1.39,0.46,2.07c-0.92-0.76-1.77-1.61-2.53-2.53 C10.75,38.57,11.44,38.72,12.14,38.86z"/><path fill="#0078d4" d="M35.86,38.86c0.7-0.14,1.39-0.29,2.07-0.46c-0.76,0.92-1.61,1.77-2.53,2.53 C35.57,40.25,35.72,39.56,35.86,38.86z"/><path fill="#0078d4" d="M35.4,13.07c0.92,0.76,1.77,1.61,2.53,2.53c-0.68-0.17-1.37-0.32-2.07-0.46 C35.72,14.44,35.57,13.75,35.4,13.07z"/><path fill="#0078d4" d="M12.6,13.07c-0.17,0.68-0.32,1.37-0.46,2.07c-0.7,0.14-1.39,0.29-2.07,0.46 C10.83,14.68,11.68,13.83,12.6,13.07z"/><linearGradient id="DyyYvhAhw43CbWsbEaRHyd" x1="-2.29" x2="33.423" y1="22.04" y2="57.753" gradientUnits="userSpaceOnUse"><stop offset="0" stop-color="#84e1fe"/><stop offset="1" stop-color="#167cf7"/></linearGradient><path fill="url(#DyyYvhAhw43CbWsbEaRHyd)" d="M19.51,39.84c0.15,1.67,0.31,3.24,0.51,4.71c-2.77-0.62-5.3-1.88-7.42-3.62 c-0.17-0.68-0.32-1.37-0.46-2.07C14.45,39.33,16.93,39.66,19.51,39.84z"/><linearGradient id="DyyYvhAhw43CbWsbEaRHye" x1=".905" x2="36.618" y1="18.845" y2="54.558" gradientUnits="userSpaceOnUse"><stop offset="0" stop-color="#84e1fe"/><stop offset="1" stop-color="#167cf7"/></linearGradient><path fill="url(#DyyYvhAhw43CbWsbEaRHye)" d="M28.49,39.84c-0.15,1.67-0.31,3.24-0.51,4.71C26.7,44.85,25.37,45,24,45 s-2.7-0.15-3.98-0.45c-0.2-1.47-0.36-3.04-0.51-4.71C20.97,39.95,22.47,40,24,40S27.03,39.95,28.49,39.84z"/><linearGradient id="DyyYvhAhw43CbWsbEaRHyf" x1="4.982" x2="40.696" y1="14.768" y2="50.48" gradientUnits="userSpaceOnUse"><stop offset="0" stop-color="#84e1fe"/><stop offset="1" stop-color="#167cf7"/></linearGradient><path fill="url(#DyyYvhAhw43CbWsbEaRHyf)" d="M35.86,38.86c-0.14,0.7-0.29,1.39-0.46,2.07c-2.12,1.74-4.65,3-7.42,3.62 c0.2-1.47,0.36-3.04,0.51-4.71C31.07,39.66,33.55,39.33,35.86,38.86z"/><linearGradient id="DyyYvhAhw43CbWsbEaRHyg" x1="11.768" x2="47.48" y1="7.982" y2="43.696" gradientUnits="userSpaceOnUse"><stop offset="0" stop-color="#84e1fe"/><stop offset="1" stop-color="#167cf7"/></linearGradient><path fill="url(#DyyYvhAhw43CbWsbEaRHyg)" d="M41.55,30.98c-0.62,2.77-1.88,5.3-3.62,7.42c-0.68,0.17-1.37,0.32-2.07,0.46 c0.47-2.31,0.8-4.79,0.98-7.37C38.51,31.34,40.08,31.18,41.55,30.98z"/><linearGradient id="DyyYvhAhw43CbWsbEaRHyh" x1="8.375" x2="44.088" y1="11.375" y2="47.088" gradientUnits="userSpaceOnUse"><stop offset="0" stop-color="#84e1fe"/><stop offset="1" stop-color="#167cf7"/></linearGradient><path fill="url(#DyyYvhAhw43CbWsbEaRHyh)" d="M36.84,31.49c-0.18,2.58-0.51,5.06-0.98,7.37c-2.31,0.47-4.79,0.8-7.37,0.98 c0.2-2.46,0.36-5.12,0.44-7.91C31.72,31.85,34.38,31.69,36.84,31.49z"/><path fill="#0078d4" d="M28.93,31.93c-0.08,2.79-0.24,5.45-0.44,7.91C27.03,39.95,25.53,40,24,40s-3.03-0.05-4.49-0.16 c-0.2-2.46-0.36-5.12-0.44-7.91C20.67,31.98,22.32,32,24,32S27.33,31.98,28.93,31.93z"/><linearGradient id="DyyYvhAhw43CbWsbEaRHyi" x1="-.02" x2="35.693" y1="19.77" y2="55.483" gradientUnits="userSpaceOnUse"><stop offset="0" stop-color="#84e1fe"/><stop offset="1" stop-color="#167cf7"/></linearGradient><path fill="url(#DyyYvhAhw43CbWsbEaRHyi)" d="M19.07,31.93c0.08,2.79,0.24,5.45,0.44,7.91c-2.58-0.18-5.06-0.51-7.37-0.98 c-0.47-2.31-0.8-4.79-0.98-7.37C13.62,31.69,16.28,31.85,19.07,31.93z"/><linearGradient id="DyyYvhAhw43CbWsbEaRHyj" x1="-2.29" x2="33.423" y1="22.04" y2="57.753" gradientUnits="userSpaceOnUse"><stop offset="0" stop-color="#84e1fe"/><stop offset="1" stop-color="#167cf7"/></linearGradient><path fill="url(#DyyYvhAhw43CbWsbEaRHyj)" d="M11.16,31.49c0.18,2.58,0.51,5.06,0.98,7.37c-0.7-0.14-1.39-0.29-2.07-0.46 c-1.74-2.12-3-4.65-3.62-7.42C7.92,31.18,9.49,31.34,11.16,31.49z"/><linearGradient id="DyyYvhAhw43CbWsbEaRHyk" x1="15.845" x2="51.558" y1="3.905" y2="39.618" gradientUnits="userSpaceOnUse"><stop offset="0" stop-color="#84e1fe"/><stop offset="1" stop-color="#167cf7"/></linearGradient><path fill="url(#DyyYvhAhw43CbWsbEaRHyk)" d="M41.55,23.02C41.85,24.3,42,25.63,42,27s-0.15,2.7-0.45,3.98 c-1.47,0.2-3.04,0.36-4.71,0.51C36.95,30.03,37,28.53,37,27s-0.05-3.03-0.16-4.49C38.51,22.66,40.08,22.82,41.55,23.02z"/><linearGradient id="DyyYvhAhw43CbWsbEaRHyl" x1="12.707" x2="48.42" y1="7.043" y2="42.755" gradientUnits="userSpaceOnUse"><stop offset="0" stop-color="#84e1fe"/><stop offset="1" stop-color="#167cf7"/></linearGradient><path fill="url(#DyyYvhAhw43CbWsbEaRHyl)" d="M36.84,22.51C36.95,23.97,37,25.47,37,27s-0.05,3.03-0.16,4.49 c-2.46,0.2-5.12,0.36-7.91,0.44C28.98,30.33,29,28.68,29,27s-0.02-3.33-0.07-4.93C31.72,22.15,34.38,22.31,36.84,22.51z"/><linearGradient id="DyyYvhAhw43CbWsbEaRHym" x1="8.375" x2="44.088" y1="11.375" y2="47.088" gradientUnits="userSpaceOnUse"><stop offset="0" stop-color="#84e1fe"/><stop offset="1" stop-color="#167cf7"/></linearGradient><path fill="url(#DyyYvhAhw43CbWsbEaRHym)" d="M28.93,22.07C28.98,23.67,29,25.32,29,27s-0.02,3.33-0.07,4.93C27.33,31.98,25.68,32,24,32 s-3.33-0.02-4.93-0.07C19.02,30.33,19,28.68,19,27s0.02-3.33,0.07-4.93C20.67,22.02,22.32,22,24,22S27.33,22.02,28.93,22.07z"/><path fill="#0078d4" d="M19.07,22.07C19.02,23.67,19,25.32,19,27s0.02,3.33,0.07,4.93c-2.79-0.08-5.45-0.24-7.91-0.44 C11.05,30.03,11,28.53,11,27s0.05-3.03,0.16-4.49C13.62,22.31,16.28,22.15,19.07,22.07z"/><linearGradient id="DyyYvhAhw43CbWsbEaRHyn" x1=".905" x2="36.618" y1="18.845" y2="54.558" gradientUnits="userSpaceOnUse"><stop offset="0" stop-color="#84e1fe"/><stop offset="1" stop-color="#167cf7"/></linearGradient><path fill="url(#DyyYvhAhw43CbWsbEaRHyn)" d="M11.16,31.49c-1.67-0.15-3.24-0.31-4.71-0.51C6.15,29.7,6,28.37,6,27s0.15-2.7,0.45-3.98 c1.47-0.2,3.04-0.36,4.71-0.51C11.05,23.97,11,25.47,11,27S11.05,30.03,11.16,31.49z"/><linearGradient id="DyyYvhAhw43CbWsbEaRHyo" x1="19.04" x2="54.753" y1=".71" y2="36.423" gradientUnits="userSpaceOnUse"><stop offset="0" stop-color="#84e1fe"/><stop offset="1" stop-color="#167cf7"/></linearGradient><path fill="url(#DyyYvhAhw43CbWsbEaRHyo)" d="M37.93,15.6c1.74,2.12,3,4.65,3.62,7.42c-1.47-0.2-3.04-0.36-4.71-0.51 c-0.18-2.58-0.51-5.06-0.98-7.37C36.56,15.28,37.25,15.43,37.93,15.6z"/><path fill="#0078d4" d="M28.49,14.16c2.58,0.18,5.06,0.51,7.37,0.98c0.47,2.31,0.8,4.79,0.98,7.37 c-2.46-0.2-5.12-0.36-7.91-0.44C28.85,19.28,28.69,16.62,28.49,14.16z"/><linearGradient id="DyyYvhAhw43CbWsbEaRHyp" x1="19.04" x2="54.753" y1=".71" y2="36.423" gradientUnits="userSpaceOnUse"><stop offset="0" stop-color="#84e1fe"/><stop offset="1" stop-color="#167cf7"/></linearGradient><path fill="url(#DyyYvhAhw43CbWsbEaRHyp)" d="M27.98,9.45c2.77,0.62,5.3,1.88,7.42,3.62c0.17,0.68,0.32,1.37,0.46,2.07 c-2.31-0.47-4.79-0.8-7.37-0.98C28.34,12.49,28.18,10.92,27.98,9.45z"/><linearGradient id="DyyYvhAhw43CbWsbEaRHyq" x1="12.707" x2="48.42" y1="7.043" y2="42.755" gradientUnits="userSpaceOnUse"><stop offset="0" stop-color="#84e1fe"/><stop offset="1" stop-color="#167cf7"/></linearGradient><path fill="url(#DyyYvhAhw43CbWsbEaRHyq)" d="M28.49,14.16c0.2,2.46,0.36,5.12,0.44,7.91C27.33,22.02,25.68,22,24,22 s-3.33,0.02-4.93,0.07c0.08-2.79,0.24-5.45,0.44-7.91C20.97,14.05,22.47,14,24,14S27.03,14.05,28.49,14.16z"/><linearGradient id="DyyYvhAhw43CbWsbEaRHyr" x1="15.845" x2="51.558" y1="3.905" y2="39.618" gradientUnits="userSpaceOnUse"><stop offset="0" stop-color="#84e1fe"/><stop offset="1" stop-color="#167cf7"/></linearGradient><path fill="url(#DyyYvhAhw43CbWsbEaRHyr)" d="M27.98,9.45c0.2,1.47,0.36,3.04,0.51,4.71C27.03,14.05,25.53,14,24,14 s-3.03,0.05-4.49,0.16c0.15-1.67,0.31-3.24,0.51-4.71C21.3,9.15,22.63,9,24,9S26.7,9.15,27.98,9.45z"/><linearGradient id="DyyYvhAhw43CbWsbEaRHys" x1="8.375" x2="44.088" y1="11.375" y2="47.088" gradientUnits="userSpaceOnUse"><stop offset="0" stop-color="#84e1fe"/><stop offset="1" stop-color="#167cf7"/></linearGradient><path fill="url(#DyyYvhAhw43CbWsbEaRHys)" d="M19.51,14.16c-0.2,2.46-0.36,5.12-0.44,7.91c-2.79,0.08-5.45,0.24-7.91,0.44 c0.18-2.58,0.51-5.06,0.98-7.37C14.45,14.67,16.93,14.34,19.51,14.16z"/><path fill="#0078d4" d="M20.02,9.45c-0.2,1.47-0.36,3.04-0.51,4.71c-2.58,0.18-5.06,0.51-7.37,0.98 c0.14-0.7,0.29-1.39,0.46-2.07C14.72,11.33,17.25,10.07,20.02,9.45z"/><linearGradient id="DyyYvhAhw43CbWsbEaRHyt" x1="4.982" x2="40.696" y1="14.768" y2="50.48" gradientUnits="userSpaceOnUse"><stop offset="0" stop-color="#84e1fe"/><stop offset="1" stop-color="#167cf7"/></linearGradient><path fill="url(#DyyYvhAhw43CbWsbEaRHyt)" d="M12.14,15.14c-0.47,2.31-0.8,4.79-0.98,7.37c-1.67,0.15-3.24,0.31-4.71,0.51 c0.62-2.77,1.88-5.3,3.62-7.42C10.75,15.43,11.44,15.28,12.14,15.14z"/><path fill="#0078d4" d="M37.37,30.94c0.08-1.25,0.13-2.57,0.13-3.94s-0.05-2.69-0.13-3.94c1.66,0.16,2.96,0.3,4.1,0.45 l0.19,0.03c-0.06-0.35-0.14-0.7-0.23-1.04c-1.15-0.16-2.46-0.3-4.13-0.45c-0.16-2.17-0.44-4.27-0.81-6.26 c0.44,0.1,0.89,0.19,1.34,0.3l0.58,0.12c-0.33-0.43-0.67-0.85-1.04-1.25c-0.36-0.09-0.73-0.17-1.09-0.24 c-0.07-0.36-0.15-0.72-0.23-1.09c-0.42-0.38-0.86-0.74-1.32-1.08l0.19,0.64c0.1,0.43,0.19,0.88,0.29,1.32 c-1.99-0.37-4.09-0.65-6.26-0.81c-0.15-1.67-0.29-2.98-0.45-4.13c-0.35-0.09-0.7-0.17-1.05-0.23l0.03,0.18 c0.16,1.15,0.3,2.45,0.46,4.11c-2.52-0.16-5.36-0.16-7.88,0c0.16-1.66,0.3-2.96,0.46-4.11l0.03-0.18c-0.35,0.06-0.7,0.14-1.05,0.23 c-0.16,1.15-0.3,2.46-0.45,4.13c-2.182,0.16-4.267,0.448-6.262,0.824c0.097-0.453,0.19-0.905,0.302-1.364l0.09-0.53 c-0.43,0.31-0.84,0.65-1.23,1.02c-0.085,0.354-0.158,0.71-0.231,1.068c-0.367,0.073-0.734,0.147-1.089,0.232 c-0.37,0.4-0.71,0.82-1.03,1.26l0.59-0.13c0.432-0.103,0.879-0.195,1.322-0.29c-0.372,1.988-0.65,4.092-0.816,6.26 c-1.663,0.154-2.967,0.294-4.126,0.45c-0.09,0.35-0.17,0.7-0.23,1.05l0.18-0.03c1.147-0.161,2.451-0.307,4.107-0.457 C10.546,24.314,10.5,25.624,10.5,27c0,1.379,0.046,2.69,0.128,3.937c-1.66-0.15-2.962-0.295-4.098-0.447l-0.19-0.03 c0.06,0.35,0.14,0.7,0.23,1.04c1.151,0.156,2.455,0.297,4.127,0.451c0.166,2.172,0.444,4.273,0.815,6.258 c-0.449-0.096-0.897-0.188-1.352-0.299L9.61,37.8c0.31,0.43,0.65,0.84,1.02,1.24c0.355,0.093,0.722,0.166,1.089,0.239 c0.073,0.361,0.146,0.724,0.231,1.071c0.4,0.38,0.81,0.72,1.24,1.03l-0.11-0.57c-0.104-0.436-0.197-0.887-0.293-1.334 c1.997,0.375,4.089,0.664,6.263,0.824c0.15,1.66,0.29,2.96,0.45,4.13c0.35,0.09,0.7,0.17,1.06,0.23l-0.04-0.18 c-0.16-1.15-0.3-2.45-0.46-4.11c1.25,0.08,2.57,0.13,3.94,0.13s2.69-0.05,3.94-0.13c-0.16,1.66-0.3,2.96-0.45,4.08l-0.04,0.21 c0.35-0.06,0.7-0.14,1.05-0.23c0.16-1.15,0.3-2.46,0.45-4.13c2.17-0.16,4.27-0.44,6.26-0.81c-0.1,0.45-0.19,0.89-0.3,1.35 l-0.11,0.55c0.43-0.31,0.84-0.65,1.24-1.02c0.09-0.36,0.17-0.72,0.24-1.09c0.36-0.07,0.73-0.15,1.09-0.24 c0.37-0.39,0.7-0.8,1.02-1.23l-0.58,0.11c-0.43,0.1-0.88,0.19-1.32,0.29c0.37-1.99,0.65-4.09,0.81-6.26 c1.66-0.15,2.97-0.29,4.13-0.45c0.09-0.35,0.17-0.7,0.23-1.05l-0.18,0.03C40.33,30.64,39.03,30.78,37.37,30.94z M11.5,27 c0-1.402,0.047-2.744,0.135-4.02c2.35-0.182,4.674-0.315,6.925-0.39C18.52,23.95,18.5,25.4,18.5,27c0,1.6,0.02,3.05,0.06,4.41 c-2.253-0.075-4.579-0.209-6.924-0.391C11.547,29.748,11.5,28.405,11.5,27z M12.568,38.425c-0.399-2.02-0.682-4.167-0.859-6.395 c2.337,0.182,4.649,0.306,6.881,0.38c0.07,2.23,0.2,4.54,0.38,6.88C16.737,39.119,14.595,38.823,12.568,38.425z M18.59,21.59 c-2.232,0.074-4.544,0.204-6.882,0.38c0.176-2.224,0.46-4.373,0.859-6.396c2.027-0.397,4.17-0.694,6.402-0.865 C18.79,17.05,18.66,19.35,18.59,21.59z M19.98,14.64c2.55-0.18,5.48-0.18,8.04,0c0.19,2.35,0.32,4.67,0.39,6.92 C27.05,21.52,25.6,21.5,24,21.5s-3.05,0.02-4.41,0.06C19.66,19.31,19.79,16.99,19.98,14.64z M28.02,39.36 c-2.55,0.18-5.48,0.18-8.04,0c-0.19-2.35-0.32-4.67-0.39-6.92c1.36,0.04,2.81,0.06,4.41,0.06s3.05-0.02,4.41-0.06 C28.33,34.69,28.21,37.02,28.02,39.36z M28.44,31.44c-1.37,0.04-2.82,0.06-4.44,0.06s-3.07-0.02-4.44-0.06 c-0.04-1.37-0.06-2.82-0.06-4.44s0.02-3.07,0.06-4.44c1.37-0.04,2.82-0.06,4.44-0.06s3.07,0.02,4.44,0.06 c0.04,1.37,0.06,2.82,0.06,4.44S28.48,30.07,28.44,31.44z M35.43,15.57c0.4,2.02,0.69,4.17,0.86,6.4 c-2.34-0.18-4.64-0.31-6.88-0.38c-0.07-2.23-0.2-4.54-0.38-6.88C31.26,14.88,33.41,15.17,35.43,15.57z M35.43,38.43 c-2.02,0.4-4.17,0.69-6.4,0.86c0.18-2.34,0.31-4.64,0.38-6.88c2.23-0.07,4.54-0.2,6.88-0.38C36.12,34.26,35.83,36.41,35.43,38.43z M36.36,31.02c-2.35,0.19-4.67,0.32-6.92,0.39c0.04-1.36,0.06-2.81,0.06-4.41c0-1.6-0.02-3.05-0.06-4.41 c2.25,0.08,4.58,0.2,6.92,0.39c0.09,1.27,0.14,2.61,0.14,4.02C36.5,28.4,36.45,29.75,36.36,31.02z"/><g><path fill="#f9f9f9" d="M14.482,16.348l1.043,3.128l3.128,1.043c0.463,0.154,0.463,0.81,0,0.964l-3.128,1.043l-1.043,3.128 c-0.154,0.463-0.81,0.463-0.964,0l-1.043-3.128l-3.128-1.043c-0.463-0.154-0.463-0.81,0-0.964l3.128-1.043l1.043-3.128 C13.672,15.884,14.328,15.884,14.482,16.348z"/><path fill="#f9f9f9" d="M35.289,18.209l0.626,1.876l1.876,0.626c0.278,0.093,0.278,0.486,0,0.579l-1.876,0.626l-0.626,1.876 c-0.093,0.278-0.486,0.278-0.579,0l-0.626-1.876l-1.876-0.626c-0.278-0.093-0.278-0.486,0-0.579l1.876-0.626l0.626-1.876 C34.805,17.93,35.198,17.93,35.289,18.209z"/><path fill="#f9f9f9" d="M28.741,28.174l0.522,1.563l1.563,0.522c0.232,0.077,0.232,0.405,0,0.482l-1.563,0.522l-0.522,1.563 c-0.078,0.232-0.405,0.232-0.483,0l-0.522-1.563l-1.563-0.522c-0.232-0.077-0.232-0.405,0-0.483l1.563-0.522l0.522-1.563 C28.337,27.942,28.665,27.942,28.741,28.174z"/></g></svg>