<svg xmlns="http://www.w3.org/2000/svg" viewBox="0 0 48 48"><linearGradient id="cL8JCd2buqBvasaPgkSU5a" x1="12.686" x2="35.58" y1="4.592" y2="41.841" gradientUnits="userSpaceOnUse"><stop offset="0" stop-color="#33bef0"/><stop offset="1" stop-color="#0a85d9"/></linearGradient><path fill="url(#cL8JCd2buqBvasaPgkSU5a)" d="M42,8H6c-1.105,0-2,0.895-2,2v26c0,1.105,0.895,2,2,2h8v7.998	c0,0.891,1.077,1.337,1.707,0.707L24.412,38H42c1.105,0,2-0.895,2-2V10C44,8.895,43.105,8,42,8z"/><radialGradient id="cL8JCd2buqBvasaPgkSU5b" cx="14" cy="17" r="2.5" gradientUnits="userSpaceOnUse"><stop offset="0"/><stop offset="1" stop-opacity="0"/></radialGradient><circle cx="14" cy="17" r="2.5" fill="url(#cL8JCd2buqBvasaPgkSU5b)" opacity=".3"/><circle cx="14" cy="17" r="1.5" fill="#fff"/><radialGradient id="cL8JCd2buqBvasaPgkSU5c" cx="14" cy="23" r="2.5" gradientUnits="userSpaceOnUse"><stop offset="0"/><stop offset="1" stop-opacity="0"/></radialGradient><circle cx="14" cy="23" r="2.5" fill="url(#cL8JCd2buqBvasaPgkSU5c)" opacity=".3"/><circle cx="14" cy="23" r="1.5" fill="#fff"/><radialGradient id="cL8JCd2buqBvasaPgkSU5d" cx="14" cy="29" r="2.5" gradientUnits="userSpaceOnUse"><stop offset="0"/><stop offset="1" stop-opacity="0"/></radialGradient><circle cx="14" cy="29" r="2.5" fill="url(#cL8JCd2buqBvasaPgkSU5d)" opacity=".3"/><circle cx="14" cy="29" r="1.5" fill="#fff"/><path d="M18,16v2c0,0.552,0.448,1,1,1h17c0.552,0,1-0.448,1-1v-2c0-0.552-0.448-1-1-1H19	C18.448,15,18,15.448,18,16z" opacity=".05"/><path d="M35.909,18.5H19.091c-0.326,0-0.591-0.265-0.591-0.591v-1.818c0-0.326,0.265-0.591,0.591-0.591	h16.818c0.326,0,0.591,0.265,0.591,0.591v1.818C36.5,18.235,36.235,18.5,35.909,18.5z" opacity=".07"/><rect width="17" height="2" x="19" y="16" fill="#fff"/><path d="M18,22v2c0,0.552,0.448,1,1,1h17c0.552,0,1-0.448,1-1v-2c0-0.552-0.448-1-1-1H19	C18.448,21,18,21.448,18,22z" opacity=".05"/><path d="M35.909,24.5H19.091c-0.326,0-0.591-0.265-0.591-0.591v-1.818c0-0.326,0.265-0.591,0.591-0.591	h16.818c0.326,0,0.591,0.265,0.591,0.591v1.818C36.5,24.235,36.235,24.5,35.909,24.5z" opacity=".07"/><rect width="17" height="2" x="19" y="22" fill="#fff"/><path d="M18,28v2c0,0.552,0.448,1,1,1h17c0.552,0,1-0.448,1-1v-2c0-0.552-0.448-1-1-1H19	C18.448,27,18,27.448,18,28z" opacity=".05"/><path d="M35.909,30.5H19.091c-0.326,0-0.591-0.265-0.591-0.591v-1.818c0-0.326,0.265-0.591,0.591-0.591	h16.818c0.326,0,0.591,0.265,0.591,0.591v1.818C36.5,30.235,36.235,30.5,35.909,30.5z" opacity=".07"/><rect width="17" height="2" x="19" y="28" fill="#fff"/></svg>