<svg xmlns="http://www.w3.org/2000/svg" baseProfile="basic" viewBox="0 0 48 48"><linearGradient id="hztXjutGv7WgUFWTbUfMZa" x1="8" x2="40" y1="24" y2="24" gradientUnits="userSpaceOnUse"><stop offset=".639" stop-color="#6d7882"/><stop offset=".674" stop-color="#45494d"/></linearGradient><path fill="url(#hztXjutGv7WgUFWTbUfMZa)" d="M38.181,3.817l-8.63-0.784c-0.367-0.033-0.736-0.041-1.105-0.024L9.905,3.892	C8.839,3.943,8,4.822,8,5.89v36.238c0,1.068,0.839,1.947,1.905,1.998l18.182,0.866c0.606,0.029,1.214-0.011,1.812-0.12l8.459-1.538	C39.309,43.16,40,42.332,40,41.365V5.809C40,4.775,39.211,3.911,38.181,3.817z"/><linearGradient id="hztXjutGv7WgUFWTbUfMZb" x1="13.97" x2="12.171" y1="32" y2="32" gradientUnits="userSpaceOnUse"><stop offset="0" stop-color="#4c4c4c"/><stop offset="1" stop-color="#343434"/></linearGradient><path fill="url(#hztXjutGv7WgUFWTbUfMZb)" d="M13,22c-0.552,0-1,0.447-1,1v18c0,0.553,0.448,1,1,1s1-0.447,1-1V23	C14,22.447,13.552,22,13,22z"/><linearGradient id="hztXjutGv7WgUFWTbUfMZc" x1="13" x2="13" y1="8.026" y2="11.788" gradientUnits="userSpaceOnUse"><stop offset="0" stop-color="#4c4c4c"/><stop offset="1" stop-color="#343434"/></linearGradient><circle cx="13" cy="10" r="2" fill="url(#hztXjutGv7WgUFWTbUfMZc)"/></svg>