<svg xmlns="http://www.w3.org/2000/svg" data-name="Слой 1" viewBox="0 0 48 48"><defs><linearGradient id="kONQ18RlSB0ooGl84_mUAa" x1="32" x2="40" y1="-17" y2="-17" data-name="Безымянный градиент 9" gradientTransform="matrix(1 0 0 -1 0 -8)" gradientUnits="userSpaceOnUse"><stop offset="0" stop-color="#ffcf54"/><stop offset=".261" stop-color="#fdcb4d"/><stop offset=".639" stop-color="#f7c13a"/><stop offset="1" stop-color="#f0b421"/></linearGradient><linearGradient id="kONQ18RlSB0ooGl84_mUAb" x1="20.5" x2="20.5" y1="39.853" y2="44.48" data-name="Безымянный градиент 172" gradientUnits="userSpaceOnUse"><stop offset="0" stop-color="#b9360c"/><stop offset=".537" stop-color="#b5350c"/><stop offset=".999" stop-color="#ab320b"/></linearGradient></defs><circle cx="38.5" cy="24.5" r="1.5" fill="#199be2"/><path fill="#199be2" d="M39.10181,23.12561,35,21l-2.223-6.32032L30.5,19l2.19293,3.94727a2,2,0,0,0,.87607.82849l4.34,2.10331Z"/><circle cx="13.5" cy="41.5" r="1.5" fill="#199be2"/><path fill="url(#kONQ18RlSB0ooGl84_mUAa)" d="M32,9a4,4,0,1,0,3.998-4A3.99975,3.99975,0,0,0,32,9Z"/><path fill="#199be2" d="M12.37061,40.51281l2.25848,1.97463,6.92113-7.5a2,2,0,0,0,.51921-1.147L23,25H18v8Z"/><circle cx="21" cy="22" r="4" fill="#35c1f1"/><circle cx="8.5" cy="15.5" r="1.5" fill="#35c1f1"/><path fill="#35c1f1" d="M9.92,15.01578l-2.7826,1.11227L9.58157,24.557A2,2,0,0,0,11.50244,26H21l-3-6-5,2Z"/><rect width="7" height="3" x="17" y="40" fill="url(#kONQ18RlSB0ooGl84_mUAb)" rx="1"/><polygon fill="#35c1f1" points="18.519 18.862 26.595 12.804 31.171 19.36 23.165 25.364 18.519 18.862"/><circle cx="29" cy="16" r="4" fill="#35c1f1"/><circle cx="35.5" cy="29.5" r="1.5" fill="#35c1f1"/><path fill="#35c1f1" d="M34.52882,30.6432l1.81255-2.38514L32,24.5l1-8.163L28,19l.89186,6.243a2.00005,2.00005,0,0,0,.69368,1.24871Z"/></svg>