<svg xmlns="http://www.w3.org/2000/svg" viewBox="0 0 48 48"><radialGradient id="xvncYEARGWHNMofB1CC3Va" cx="23.754" cy="-1391.295" r="13.71" gradientTransform="matrix(1 0 0 -1 0 -1369.89)" gradientUnits="userSpaceOnUse"><stop offset=".376" stop-color="#261103"/><stop offset=".68" stop-color="#431d06"/><stop offset="1" stop-color="#662c09"/></radialGradient><path fill="url(#xvncYEARGWHNMofB1CC3Va)" d="M24,9C13.704,9,11.15,25.625,11.15,25.625c0,2.96,1.375,5.553,4.253,6.24 C17.869,32.454,20.972,33,24,33s6.131-0.546,8.596-1.134c2.879-0.687,4.253-3.281,4.253-6.24C36.85,25.625,34.296,9,24,9z"/><linearGradient id="xvncYEARGWHNMofB1CC3Vb" x1="20.766" x2="25.05" y1="-1399.898" y2="-1414.636" gradientTransform="matrix(1 0 0 -1 0 -1369.89)" gradientUnits="userSpaceOnUse"><stop offset="0" stop-color="#33bef0"/><stop offset="1" stop-color="#0a85d9"/></linearGradient><path fill="url(#xvncYEARGWHNMofB1CC3Vb)" d="M24,30.571c-8.837,0-16,4.921-16,10.286V42c0,1.105,0.895,2,2,2h28c1.105,0,2-0.895,2-2 v-1.143C40,35.492,32.837,30.571,24,30.571z"/><path fill="#d6a121" d="M29,31.035c0,1.897-2,4-5,4s-5-2.103-5-4C19,28.398,19,24,19,24h10C29,24,29,28.398,29,31.035z"/><radialGradient id="xvncYEARGWHNMofB1CC3Vc" cx="-1603.791" cy="-1420.09" r="10.729" gradientTransform="matrix(-.9136 0 0 -.9667 -1441.205 -1352.766)" gradientUnits="userSpaceOnUse"><stop offset="0" stop-color="#ffcf54"/><stop offset=".261" stop-color="#fdcb4d"/><stop offset=".639" stop-color="#f7c13a"/><stop offset="1" stop-color="#f0b421"/></radialGradient><path fill="url(#xvncYEARGWHNMofB1CC3Vc)" d="M24,8.071c3.948,0,8,0.693,8,9.722c0,0.723,0,5.736,0,6.508C32,27.526,27.101,32,24,32 s-8-4.474-8-7.698c0-0.772,0-5.785,0-6.508C16,9,20.052,8.071,24,8.071z"/><radialGradient id="xvncYEARGWHNMofB1CC3Vd" cx="16.884" cy="-1375.364" r="32.342" gradientTransform="matrix(1 0 0 -1 0 -1369.89)" gradientUnits="userSpaceOnUse"><stop offset="0" stop-color="#c26715"/><stop offset=".508" stop-color="#b85515"/><stop offset="1" stop-color="#ad3f16"/></radialGradient><path fill="url(#xvncYEARGWHNMofB1CC3Vd)" d="M24,5c-5.188,0-6,3-6,3c-2.109,0.311-7,1-7,17.478c0,3.801,1.903,5.197,2.6,5.603 C11,16.717,20.576,19.036,19,10c4.046,11.813,16.293,0.054,15.871,20.734C36.077,29.817,37,27.977,37,25.478 C37,11.672,31.399,5,24,5z"/><radialGradient id="xvncYEARGWHNMofB1CC3Ve" cx="38.936" cy="38.159" r="12.816" gradientUnits="userSpaceOnUse"><stop offset="0"/><stop offset="1" stop-opacity="0"/></radialGradient><path fill="url(#xvncYEARGWHNMofB1CC3Ve)" d="M40,42v-1.143c0-4.463-4.963-8.608-11.717-9.879C26.853,32.953,26,35.374,26,38 c0,2.188,0.595,4.234,1.618,6H38C39.105,44,40,43.105,40,42z"/><linearGradient id="xvncYEARGWHNMofB1CC3Vf" x1="34.09" x2="44.027" y1="-1401.059" y2="-1418.42" gradientTransform="matrix(1 0 0 -1 0 -1369.89)" gradientUnits="userSpaceOnUse"><stop offset="0" stop-color="#21ad64"/><stop offset="1" stop-color="#088242"/></linearGradient><circle cx="38" cy="38" r="10" fill="url(#xvncYEARGWHNMofB1CC3Vf)"/><path fill="#fff" d="M38.5,43h-1c-0.276,0-0.5-0.224-0.5-0.5v-9c0-0.276,0.224-0.5,0.5-0.5h1c0.276,0,0.5,0.224,0.5,0.5 v9C39,42.776,38.776,43,38.5,43z"/><path fill="#fff" d="M33,38.5v-1c0-0.276,0.224-0.5,0.5-0.5h9c0.276,0,0.5,0.224,0.5,0.5v1c0,0.276-0.224,0.5-0.5,0.5 h-9C33.224,39,33,38.776,33,38.5z"/></svg>