<svg xmlns="http://www.w3.org/2000/svg" viewBox="0 0 48 48"><linearGradient id="7XWsh8KIOI1UWM_5ppbOOa" x1="24" x2="24" y1="39" y2="41.995" gradientUnits="userSpaceOnUse"><stop offset="0" stop-color="#eba600"/><stop offset="1" stop-color="#c28200"/></linearGradient><path fill="url(#7XWsh8KIOI1UWM_5ppbOOa)" d="M35.5,39h-23c-0.828,0-1.5,0.672-1.5,1.5c0,0.828,0.672,1.5,1.5,1.5h23	c0.828,0,1.5-0.672,1.5-1.5C37,39.672,36.328,39,35.5,39z"/><linearGradient id="7XWsh8KIOI1UWM_5ppbOOb" x1="35.205" x2="25.604" y1="24.5" y2="24.5" gradientUnits="userSpaceOnUse"><stop offset="0" stop-color="#4c4c4c"/><stop offset="1" stop-color="#444"/></linearGradient><path fill="url(#7XWsh8KIOI1UWM_5ppbOOb)" d="M27,22.51C27,17,31,14,31,13v-2c0-0.552-0.448-1-1-1h-1v2c0,0.552-0.448,1-1,1s-1-0.448-1-1	v-1c0-0.552-0.448-1-1-1h-2v29h11C35,39,27,33,27,22.51z"/><linearGradient id="7XWsh8KIOI1UWM_5ppbOOc" x1="18.5" x2="18.5" y1="9.868" y2="39.195" gradientUnits="userSpaceOnUse"><stop offset="0" stop-color="#636363"/><stop offset="1" stop-color="#444"/></linearGradient><path fill="url(#7XWsh8KIOI1UWM_5ppbOOc)" d="M22,10c-0.552,0-1,0.448-1,1v1c0,0.552-0.448,1-1,1s-1-0.448-1-1v-2h-1c-0.552,0-1,0.448-1,1	v2c0,1,4,4,4,9.51C21,33,13,39,13,39h11V10H22z"/></svg>