<svg xmlns="http://www.w3.org/2000/svg" viewBox="0 0 48 48"><linearGradient id="phgZNgNGKyxMSxS5tsmI5a" x1="24" x2="24" y1="4" y2="19.663" gradientUnits="userSpaceOnUse"><stop offset="0" stop-color="#cf1928"/><stop offset="1" stop-color="#b31523"/></linearGradient><path fill="url(#phgZNgNGKyxMSxS5tsmI5a)" d="M44,24c0-2.804-1.653-5.216-4.034-6.333C39.987,17.447,40,17.225,40,17c0-3.866-3.134-7-7-7	c-0.292,0-0.578,0.023-0.86,0.058C31.09,6.555,27.845,4,24,4s-7.09,2.555-8.14,6.058C15.578,10.023,15.292,10,15,10	c-3.866,0-7,3.134-7,7c0,0.225,0.013,0.447,0.034,0.667C5.653,18.784,4,21.196,4,24c0,1.664,0.583,3.19,1.553,4.392	C4.6,29.302,4,30.578,4,32c0,2.761,2.239,5,5,5c0.712,0,1.387-0.154,2-0.422c0-1.656,0-3.094,0-3.778C11,25.4,16.6,19,24,19	s13,6.4,13,13.8c0,0.684,0,2.122,0,3.778C37.613,36.846,38.288,37,39,37c2.761,0,5-2.239,5-5c0-1.422-0.6-2.698-1.553-3.608	C43.417,27.19,44,25.664,44,24z"/><linearGradient id="phgZNgNGKyxMSxS5tsmI5b" x1="24" x2="24" y1="17" y2="39.07" gradientUnits="userSpaceOnUse"><stop offset="0" stop-color="#fede00"/><stop offset="1" stop-color="#ffd000"/></linearGradient><path fill="url(#phgZNgNGKyxMSxS5tsmI5b)" d="M24,17L24,17c-8.6,0-15,7.4-15,16v7h2v-6c0.3-3,3-7.3,13-11.5C34,26.8,36.6,31,37,34v6h2v-7	C39,24.4,32.6,17,24,17z"/><linearGradient id="phgZNgNGKyxMSxS5tsmI5c" x1="24" x2="24" y1="35" y2="19" gradientUnits="userSpaceOnUse"><stop offset="0" stop-color="#f44f5a"/><stop offset=".443" stop-color="#ee3d4a"/><stop offset="1" stop-color="#e52030"/></linearGradient><path fill="url(#phgZNgNGKyxMSxS5tsmI5c)" d="M24,26c8.9,0,13,9,13,9s0,0,0-2.2C37,25.4,31.4,19,24,19s-13,6.4-13,13.8c0,2.2,0,2.2,0,2.2	S15.1,26,24,26z"/><linearGradient id="phgZNgNGKyxMSxS5tsmI5d" x1="24" x2="24" y1="35.904" y2="39.904" gradientUnits="userSpaceOnUse"><stop offset="0" stop-color="#cf1928"/><stop offset="1" stop-color="#b31523"/></linearGradient><path fill="url(#phgZNgNGKyxMSxS5tsmI5d)" d="M38,38c-1.105,0-2,0.895-2,2s0.895,2,2,2s2-0.895,2-2S39.105,38,38,38z M10,38	c-1.105,0-2,0.895-2,2s0.895,2,2,2s2-0.895,2-2S11.105,38,10,38z"/><linearGradient id="phgZNgNGKyxMSxS5tsmI5e" x1="24" x2="24" y1="42" y2="45" gradientUnits="userSpaceOnUse"><stop offset="0" stop-color="#f44f5a"/><stop offset=".443" stop-color="#ee3d4a"/><stop offset="1" stop-color="#e52030"/></linearGradient><path fill="url(#phgZNgNGKyxMSxS5tsmI5e)" d="M10,42c-0.828,0-1.5,0.672-1.5,1.5S9.172,45,10,45s1.5-0.672,1.5-1.5S10.828,42,10,42z M38,42	c-0.828,0-1.5,0.672-1.5,1.5S37.172,45,38,45s1.5-0.672,1.5-1.5S38.828,42,38,42z"/><linearGradient id="phgZNgNGKyxMSxS5tsmI5f" x1="24" x2="24" y1="8.5" y2="14.258" gradientUnits="userSpaceOnUse"><stop offset="0" stop-color="#fede00"/><stop offset="1" stop-color="#ffd000"/></linearGradient><circle cx="24" cy="11.5" r="3" fill="url(#phgZNgNGKyxMSxS5tsmI5f)"/><linearGradient id="phgZNgNGKyxMSxS5tsmI5g" x1="34.5" x2="34.5" y1="13.5" y2="17.338" gradientUnits="userSpaceOnUse"><stop offset="0" stop-color="#fede00"/><stop offset="1" stop-color="#ffd000"/></linearGradient><circle cx="34.5" cy="15.5" r="2" fill="url(#phgZNgNGKyxMSxS5tsmI5g)"/><linearGradient id="phgZNgNGKyxMSxS5tsmI5h" x1="13.5" x2="13.5" y1="13.5" y2="17.338" gradientUnits="userSpaceOnUse"><stop offset="0" stop-color="#fede00"/><stop offset="1" stop-color="#ffd000"/></linearGradient><circle cx="13.5" cy="15.5" r="2" fill="url(#phgZNgNGKyxMSxS5tsmI5h)"/><linearGradient id="phgZNgNGKyxMSxS5tsmI5i" x1="8" x2="8" y1="21.5" y2="24.379" gradientUnits="userSpaceOnUse"><stop offset="0" stop-color="#fede00"/><stop offset="1" stop-color="#ffd000"/></linearGradient><circle cx="8" cy="23" r="1.5" fill="url(#phgZNgNGKyxMSxS5tsmI5i)"/><linearGradient id="phgZNgNGKyxMSxS5tsmI5j" x1="40" x2="40" y1="21.5" y2="24.379" gradientUnits="userSpaceOnUse"><stop offset="0" stop-color="#fede00"/><stop offset="1" stop-color="#ffd000"/></linearGradient><circle cx="40" cy="23" r="1.5" fill="url(#phgZNgNGKyxMSxS5tsmI5j)"/></svg>