<svg xmlns="http://www.w3.org/2000/svg" viewBox="0 0 48 48"><path fill="#313131" d="M47.859,32.026l-0.325-1.237c-0.074-0.28-0.265-0.515-0.525-0.643	c-0.139-0.068-0.291-0.103-0.442-0.103c-0.029,0-0.058,0.001-0.087,0.004v-5.97c0-0.296-0.131-0.577-0.358-0.767	c-0.181-0.151-0.409-0.233-0.642-0.233c-0.059,0-0.118,0.005-0.176,0.016l-2.093,0.375c-0.044-0.058-0.095-0.11-0.151-0.158	c-0.181-0.151-0.409-0.233-0.642-0.233c-0.059,0-0.118,0.005-0.176,0.016l-2.233,0.4c-0.477,0.085-0.824,0.5-0.824,0.984v0.779	c-0.482-0.361-1.05-0.612-1.671-0.756c-2.365-3.558-5.625-6.072-9.238-7.219l1.064-1.531c0.37-0.53,0.41-1.21,0.1-1.77	c-0.32-0.57-0.91-0.92-1.56-0.87l-2.15,0.1l-1.3-1.72c-0.39-0.52-1.03-0.77-1.66-0.64c-0.64,0.12-1.14,0.59-1.31,1.21l-0.57,2.08	l-2.04,0.71c-0.61,0.21-1.04,0.74-1.12,1.38c-0.069,0.55,0.148,1.074,0.549,1.442c-2.957,1.201-5.588,3.349-7.535,6.234	c-0.061-0.151-0.149-0.289-0.277-0.396c-0.181-0.151-0.408-0.232-0.641-0.232c-0.06,0-0.119,0.005-0.179,0.016l-2.2,0.4	c-0.476,0.086-0.821,0.5-0.821,0.984h-0.17c-0.157,0-0.306,0.036-0.438,0.101c-0.623-0.187-1.279-0.286-1.913-0.286	c-2.32,0-3.878,1.28-3.878,3.185c0,0.906,0.325,1.547,0.789,2.008c-0.133,0.103-0.24,0.239-0.309,0.398l-0.6,1.4	c-0.149,0.348-0.088,0.751,0.156,1.04c0.79,0.932,2.453,1.349,3.751,1.349c1.454,0,2.601-0.475,3.29-1.295	c0.553,0.795,1.411,1.279,2.443,1.299l0.102,0.001c1.054,0,1.891-0.319,2.457-0.629c0.452,0.331,1.132,0.628,2.12,0.628	c0.89,0,1.618-0.283,2.165-0.639c0.416,0.364,1.012,0.639,1.835,0.639c0.448,0,0.89-0.089,1.284-0.25	c0.101,0.034,0.208,0.051,0.316,0.051l2.2-0.001c0.552,0,1-0.448,1-1v-3.824c-0.002-0.094,0.047-0.454,0.169-0.569	c0.008,0.007,0.016,0.016,0.024,0.024c0.031,0.031,0.066,0.055,0.1,0.081c-0.06,0.363-0.093,0.744-0.093,1.144	c0,2.477,1.645,4.274,3.911,4.274c0.875,0,1.605-0.296,2.152-0.658c0.458,0.405,1.098,0.728,1.936,0.728	c1.039,0,1.83-0.273,2.357-0.542c0.833,0.565,1.778,0.656,2.627,0.656c1.169,0,2.382-0.438,3.266-1.35	c0.559,0.835,1.483,1.236,2.188,1.236c0.741,0,1.299-0.136,1.703-0.298c0.333,0.179,0.765,0.298,1.3,0.298	c1.199,0,2.385-0.652,2.516-0.727C47.779,32.927,47.974,32.465,47.859,32.026z M15.716,29.606c0,0.528-0.306,0.673-0.516,0.7h-0.054	c-0.188,0-0.626,0-0.626-1.187c0-0.559,0.136-1.131,1.146-1.131c0.017,0,0.034,0,0.05,0V29.606z M28.638,29.606	c0,0.528-0.305,0.673-0.515,0.7h-0.054c-0.188,0-0.626,0-0.626-1.187c0-0.559,0.136-1.131,1.146-1.131c0.017,0,0.033,0,0.05,0	L28.638,29.606L28.638,29.606z M32.826,25.932v-2.055c0-0.552-0.448-1-1-1h-2.2c-0.552,0-1,0.448-1,1v0.653	c-0.24-0.033-0.506-0.053-0.8-0.053c-0.842,0-1.594,0.21-2.229,0.592c-0.089-0.095-0.197-0.175-0.324-0.231	c-0.067-0.029-0.674-0.29-1.417-0.29c-0.385,0-0.745,0.069-1.07,0.202c-0.165-0.111-0.359-0.171-0.56-0.171	c-0.015,0-2.244,0.099-2.244,0.099c-0.337,0.015-0.628,0.195-0.798,0.46c-0.957-0.457-2.22-0.728-3.403-0.728	c-0.981,0-2.313,0.18-3.397,0.974c-0.125-0.408-0.504-0.705-0.953-0.707c1.98-3.025,4.742-5.216,7.84-6.31l1.01,0.662l0.04,2.16	c0.01,0.64,0.39,1.22,0.97,1.49c0.23,0.11,0.48,0.16,0.72,0.16c0.37,0,0.74-0.13,1.05-0.37l1.68-1.35l2.07,0.63	c0.61,0.19,1.27,0.01,1.71-0.46c0.45-0.48,0.58-1.14,0.35-1.75l-0.433-1.151c2.983,1.062,5.693,3.131,7.774,5.994	C34.854,24.437,33.653,25.01,32.826,25.932z M36.319,30.272c-0.327,0-0.692-0.479-0.692-1.12s0.366-1.12,0.692-1.12	s0.692,0.479,0.692,1.12S36.646,30.272,36.319,30.272z"/><linearGradient id="JQEEIdK2dVGnIT1MdnnETa" x1="20.315" x2="29.379" y1="39.861" y2="24.641" gradientTransform="matrix(1 0 0 -1 0 50)" gradientUnits="userSpaceOnUse"><stop offset="0" stop-color="#fed100"/><stop offset="1" stop-color="#e36001"/></linearGradient><path fill="url(#JQEEIdK2dVGnIT1MdnnETa)" d="M23.629,12.091c-0.133-0.175-0.328-0.271-0.54-0.271c-0.045,0-0.09,0.004-0.136,0.013	c-0.262,0.051-0.461,0.234-0.532,0.492l-0.71,2.585l-2.534,0.882c-0.252,0.087-0.422,0.297-0.455,0.562s0.08,0.511,0.303,0.658	l2.24,1.474l0.055,2.683c0.005,0.267,0.153,0.493,0.395,0.606c0.241,0.112,0.509,0.082,0.718-0.085l2.095-1.675l2.567,0.777	c0.256,0.077,0.517,0.007,0.699-0.188c0.182-0.194,0.234-0.46,0.141-0.709l-0.945-2.511l1.532-2.2	c0.152-0.22,0.166-0.489,0.037-0.724c-0.128-0.233-0.35-0.352-0.631-0.354l-2.679,0.123L23.629,12.091z"/><linearGradient id="JQEEIdK2dVGnIT1MdnnETb" x1="23.759" x2="23.759" y1="36.365" y2="30.02" gradientTransform="matrix(1 0 0 -1 0 50)" gradientUnits="userSpaceOnUse"><stop offset="0" stop-color="#ffd869"/><stop offset="1" stop-color="#fec52b"/></linearGradient><path fill="url(#JQEEIdK2dVGnIT1MdnnETb)" d="M24.3,18.83l-1.439,1.15c-0.225,0.18-0.558,0.024-0.564-0.264l-0.037-1.842l-1.539-1.013	c-0.24-0.158-0.195-0.523,0.077-0.618l1.74-0.605l0.488-1.776c0.076-0.277,0.438-0.347,0.611-0.118l1.113,1.468l1.84-0.084	c0.287-0.013,0.465,0.309,0.301,0.545l-1.052,1.512l0.649,1.724c0.101,0.269-0.15,0.538-0.425,0.455L24.3,18.83z"/><linearGradient id="JQEEIdK2dVGnIT1MdnnETc" x1="12.947" x2="12.947" y1="25.685" y2="17.224" gradientTransform="matrix(1 0 0 -1 0 50)" gradientUnits="userSpaceOnUse"><stop offset="0" stop-color="#ffd869"/><stop offset="1" stop-color="#fec52b"/></linearGradient><path fill="url(#JQEEIdK2dVGnIT1MdnnETc)" d="M22.226,26.678V25.58l-2.2,0.098v5.293c0,0-1.2,0.842-1.2,0.012v-4.905 c-1.6-0.8-4.641-1.109-6.19,0.4c-1.621,1.579-0.921,4.133-0.921,4.133s-0.289,0.467-1.089,0.467s-0.8-0.6-0.8-0.6v-3.6h1.6v-1.2 h-1.6v-1.4l-2.2,0.4v1h-1.17v0.331c-2.191-1.007-5.229-0.585-5.229,1.669c0,2.574,3.831,1.942,3.831,2.837 c0,1.284-2.334,1.072-3.431-0.037l-0.6,1.4c1.081,1.276,6,1.8,6-1.4c0-2.72-3.676-1.86-3.6-3c0.076-1.147,2.137-0.552,2.622,0.165 l0.443-0.765h1.135v3.341c0,1.421,0.72,2.631,2.141,2.659c1.646,0.032,2.674-0.929,2.674-0.929s0.455,0.93,1.985,0.93 c1.6,0,2.35-1.172,2.35-1.172s0.217,1.172,1.65,1.172c0.712,0,1.337-0.319,1.6-0.671v0.472l2.2-0.001v-3.8c0,0-0.032-1.367,1-1.6 c0.474-0.107,0.697,0.125,0.893,0.317l0.748-1.842C24.867,25.752,22.954,24.902,22.226,26.678z M16.716,29.606 c0,1.477-1.311,1.7-1.516,1.7c-0.204,0-1.681,0.078-1.681-2.186c0-2.263,2.118-2.331,3.196-1.962 C16.716,27.158,16.716,28.13,16.716,29.606z"/><linearGradient id="JQEEIdK2dVGnIT1MdnnETd" x1="32.205" x2="32.205" y1="26.082" y2="17.117" gradientTransform="matrix(1 0 0 -1 0 50)" gradientUnits="userSpaceOnUse"><stop offset="0" stop-color="#ffd869"/><stop offset="1" stop-color="#fec52b"/></linearGradient><path fill="url(#JQEEIdK2dVGnIT1MdnnETd)" d="M36.411,25.362c-2.084,0-3.773,1.552-3.773,3.714c0,0.811,0.161,1.53,0.38,1.931 c-0.452,0.201-1.192,0.55-1.192-0.129v-7.001h-2.2v2c0,0-0.612-0.4-1.8-0.4c-1.988,0-3.4,1.479-3.4,4.055 c0,2.022,1.279,3.275,2.911,3.275c1.497,0,2.288-1.13,2.288-1.13s0.476,1.2,1.8,1.2c1.6,0,2.447-0.789,2.447-0.789 c0.635,0.719,1.43,0.903,2.538,0.903c1.837,0,3.573-1.245,3.573-3.914C39.985,26.843,38.495,25.362,36.411,25.362z M29.638,29.606 c0,1.477-1.311,1.7-1.515,1.7s-1.681,0.078-1.681-2.186c0-2.263,2.118-2.331,3.196-1.962C29.638,27.158,29.638,28.13,29.638,29.606 z M36.319,31.272c-0.934,0-1.692-0.949-1.692-2.12s0.758-2.12,1.692-2.12c0.934,0,1.692,0.949,1.692,2.12 S37.253,31.272,36.319,31.272z"/><linearGradient id="JQEEIdK2dVGnIT1MdnnETe" x1="43.538" x2="43.538" y1="25.884" y2="17.226" gradientTransform="matrix(1 0 0 -1 0 50)" gradientUnits="userSpaceOnUse"><stop offset="0" stop-color="#ffd869"/><stop offset="1" stop-color="#fec52b"/></linearGradient><path fill="url(#JQEEIdK2dVGnIT1MdnnETe)" d="M46.567,31.043c-0.317,0.133-1.087,0.666-1.087-0.409v-6.557l-2.233,0.4v6.785 c-0.711,0.176-0.829-0.018-0.829-0.688v-6.498l-2.233,0.4v4.799v1.657c0,1.383,1.084,1.944,1.681,1.944 c1.322,0,1.822-0.516,1.822-0.516s0.212,0.516,1.181,0.516s2.023-0.597,2.023-0.597L46.567,31.043z"/></svg>