<svg xmlns="http://www.w3.org/2000/svg" xmlns:xlink="http://www.w3.org/1999/xlink" data-name="Layer 1" viewBox="0 0 48 48"><defs><linearGradient id="9wzX9PX7Ifwf1u5AcD3PKa" x1="17.417" x2="27.182" y1="19.187" y2="47.834" data-name="Новый образец градиентной зал 3" gradientUnits="userSpaceOnUse"><stop offset="0" stop-color="#32bdef"/><stop offset="1" stop-color="#1ea2e4"/></linearGradient><linearGradient id="9wzX9PX7Ifwf1u5AcD3PKd" x1="22.099" x2="31.864" y1="17.591" y2="46.238" xlink:href="#9wzX9PX7Ifwf1u5AcD3PKa"/><linearGradient id="9wzX9PX7Ifwf1u5AcD3PKb" x1="14.159" x2="26.159" y1="18.301" y2="50.301" data-name="Новый образец градиентной зал 2" gradientUnits="userSpaceOnUse"><stop offset="0" stop-color="#2aa4f4"/><stop offset="1" stop-color="#007ad9"/></linearGradient><linearGradient id="9wzX9PX7Ifwf1u5AcD3PKe" x1="21.571" x2="33.571" y1="15.521" y2="47.521" xlink:href="#9wzX9PX7Ifwf1u5AcD3PKb"/><linearGradient id="9wzX9PX7Ifwf1u5AcD3PKf" x1="17.297" x2="29.297" y1="17.124" y2="49.124" xlink:href="#9wzX9PX7Ifwf1u5AcD3PKb"/><linearGradient id="9wzX9PX7Ifwf1u5AcD3PKg" x1="15.737" x2="25.502" y1="19.759" y2="48.406" xlink:href="#9wzX9PX7Ifwf1u5AcD3PKa"/><radialGradient id="9wzX9PX7Ifwf1u5AcD3PKc" cx="-70.526" cy="147.172" r="29.407" gradientTransform="matrix(0 -.96241 .93233 0 -117.434 -57.004)" gradientUnits="userSpaceOnUse"><stop offset="0" stop-color="#dfe9f2"/><stop offset=".391" stop-color="#d6e0e9"/><stop offset="1" stop-color="#bfc8d1"/></radialGradient></defs><rect width="4" height="7" x="22" y="35" fill="url(#9wzX9PX7Ifwf1u5AcD3PKa)"/><path fill="url(#9wzX9PX7Ifwf1u5AcD3PKc)" d="M36,21c0-8.83656-5.37258-19-12-19S12,12.16344,12,21s5.37258,13,12,13S36,29.83656,36,21Z"/><path fill="url(#9wzX9PX7Ifwf1u5AcD3PKd)" d="M24,35c6.62742,0,12-5.8203,12-13H12C12,29.1797,17.37258,35,24,35Z"/><path fill="url(#9wzX9PX7Ifwf1u5AcD3PKb)" d="M24,40a5,5,0,0,0-5,5H29A5,5,0,0,0,24,40Z"/><rect width="26" height="2" x="11" y="21" fill="url(#9wzX9PX7Ifwf1u5AcD3PKe)" rx="1"/><rect width="10" height="2" x="19" y="34" fill="url(#9wzX9PX7Ifwf1u5AcD3PKf)" rx="1"/><rect width="14" height="2" x="17" y="43" fill="url(#9wzX9PX7Ifwf1u5AcD3PKg)" rx="1"/></svg>