<svg xmlns="http://www.w3.org/2000/svg" viewBox="0 0 48 48"><linearGradient id="8vB8Xx7G5wxXW_nvUNqWka" x1="24" x2="24" y1="45" y2="39.999" gradientUnits="userSpaceOnUse"><stop offset="0" stop-color="#a34f27"/><stop offset=".587" stop-color="#8b3817"/><stop offset="1" stop-color="#802d10"/></linearGradient><path fill="url(#8vB8Xx7G5wxXW_nvUNqWka)" d="M27,45c-0.256,0-0.512-0.098-0.707-0.293L24,42.414l-2.293,2.293	c-0.391,0.391-1.023,0.391-1.414,0s-0.391-1.023,0-1.414l3-3c0.391-0.391,1.023-0.391,1.414,0l3,3c0.391,0.391,0.391,1.023,0,1.414	C27.512,44.903,27.256,45,27,45z"/><linearGradient id="8vB8Xx7G5wxXW_nvUNqWkb" x1="24" x2="24" y1="41.443" y2="14.446" gradientUnits="userSpaceOnUse"><stop offset="0" stop-color="#a34f27"/><stop offset=".587" stop-color="#8b3817"/><stop offset="1" stop-color="#802d10"/></linearGradient><path fill="url(#8vB8Xx7G5wxXW_nvUNqWkb)" d="M37.999,26.013C37.992,33.727,31.715,40,24,40s-13.992-6.273-13.999-13.987h-2	C8.008,34.829,15.182,42,24,42s15.992-7.171,15.999-15.987H37.999z"/><linearGradient id="8vB8Xx7G5wxXW_nvUNqWkc" x1="24" x2="24" y1="2.658" y2="31" gradientUnits="userSpaceOnUse"><stop offset="0" stop-color="#eba84b"/><stop offset="1" stop-color="#d97218"/></linearGradient><path fill="url(#8vB8Xx7G5wxXW_nvUNqWkc)" d="M48,23c-0.863,1.277-11,8-24,8c-14,0-23.137-6.723-24-8L22.683,3.152	c0.754-0.66,1.88-0.66,2.634,0L48,23z"/><linearGradient id="8vB8Xx7G5wxXW_nvUNqWkd" x1="14" x2="14" y1="11.467" y2="16.263" gradientUnits="userSpaceOnUse"><stop offset="0" stop-color="#a34f27"/><stop offset=".587" stop-color="#8b3817"/><stop offset="1" stop-color="#802d10"/></linearGradient><path fill="url(#8vB8Xx7G5wxXW_nvUNqWkd)" d="M19,16c0.552,0,1-0.448,1-1c0-0.552-0.448-1-1-1h-8.714L8,16H19z"/><linearGradient id="8vB8Xx7G5wxXW_nvUNqWke" x1="18.286" x2="18.286" y1="7.42" y2="12.063" gradientUnits="userSpaceOnUse"><stop offset="0" stop-color="#a34f27"/><stop offset=".587" stop-color="#8b3817"/><stop offset="1" stop-color="#802d10"/></linearGradient><path fill="url(#8vB8Xx7G5wxXW_nvUNqWke)" d="M23,10h-8.143l-2.286,2H23c0.552,0,1-0.448,1-1C24,10.448,23.552,10,23,10z"/></svg>