<svg xmlns="http://www.w3.org/2000/svg" viewBox="0 0 48 48"><path fill="#d43a02" d="M24,11c-3.309,0-6,2.691-6,6s2.691,6,6,6s6-2.691,6-6S27.309,11,24,11z M20,17	c0-1.859,1.28-3.411,3-3.858v7.483c0,0.082,0.008,0.161,0.017,0.238C21.288,20.422,20,18.865,20,17z M24.983,20.863	C24.992,20.786,25,20.707,25,20.625v-7.483c1.72,0.447,3,1.999,3,3.858C28,18.865,26.712,20.422,24.983,20.863z"/><path fill="#64717c" d="M38,22c-2-4-8-6-14-6s-12,2-14,6c-1.482,2.964,6.268,6,14,6S39.482,24.964,38,22z"/><linearGradient id="lBBjJSbIrd5hjFL3x19Z1a" x1="24" x2="24" y1="12.674" y2="39.682" gradientUnits="userSpaceOnUse"><stop offset="0" stop-color="#f09701"/><stop offset="1" stop-color="#e36001"/></linearGradient><path fill="url(#lBBjJSbIrd5hjFL3x19Z1a)" d="M38,32H10c-2.761,0-5-2.239-5-5v0c0-2.761,2.239-5,5-5h28c2.761,0,5,2.239,5,5v0	C43,29.761,40.761,32,38,32z"/><path fill="#d43a02" d="M43,28H5c-0.552,0-1-0.448-1-1v0c0-0.552,0.448-1,1-1h38c0.552,0,1,0.448,1,1v0	C44,27.552,43.552,28,43,28z"/><linearGradient id="lBBjJSbIrd5hjFL3x19Z1b" x1="24" x2="24" y1="20.272" y2="45.523" gradientUnits="userSpaceOnUse"><stop offset="0" stop-color="#2aa4f4"/><stop offset="1" stop-color="#007ad9"/></linearGradient><path fill="url(#lBBjJSbIrd5hjFL3x19Z1b)" d="M42,31c-1.657,0-3-1-3-1s-1.343,1-3,1s-3-1-3-1s-1.343,1-3,1s-3-1-3-1s-1.343,1-3,1s-3-1-3-1	s-1.343,1-3,1s-3-1-3-1s-1.343,1-3,1s-3-1-3-1s-1.343,1-3,1s-3-1-3-1v11c0,1.105,0.895,2,2,2h38c1.105,0,2-0.895,2-2V30	C45,30,43.657,31,42,31z"/></svg>