<svg xmlns="http://www.w3.org/2000/svg" viewBox="0 0 48 48"><radialGradient id="RO02Qm4M0hsPbbu02oOGGa" cx="39.144" cy="-1186.992" r="23.827" gradientTransform="matrix(1.0244 0 0 -1.0645 10.785 -1229.066)" gradientUnits="userSpaceOnUse"><stop offset="0" stop-color="#bd8af5"/><stop offset=".137" stop-color="#b88bf5"/><stop offset=".309" stop-color="#a88ff3"/><stop offset=".499" stop-color="#8f96f2"/><stop offset=".702" stop-color="#6b9eef"/><stop offset=".913" stop-color="#3eaaec"/><stop offset="1" stop-color="#29afea"/></radialGradient><path fill="url(#RO02Qm4M0hsPbbu02oOGGa)" d="M43,41H5c-1.105,0-2-0.895-2-2V10c0-1.105,0.895-2,2-2h38c1.105,0,2,0.895,2,2v29 C45,40.105,44.105,41,43,41z"/><path d="M31.262,18.896c-1.474,0-2.623,0.568-3.416,1.688c-0.216,0.304-0.389,0.659-0.541,1.039 c-0.045-0.195-0.094-0.387-0.169-0.567c-0.194-0.466-0.481-0.868-0.853-1.195c-0.361-0.32-0.798-0.565-1.299-0.729 c-0.472-0.156-1.003-0.235-1.579-0.235c-1.206,0-2.308,0.317-3.277,0.945c-0.009,0.006-0.015,0.014-0.023,0.019 c-0.092-0.457-0.478-0.809-0.961-0.809h-6.463c-0.551,0-1,0.448-1,1v1.671c0,0.552,0.449,1,1,1h2.574 c-0.051,0.093-0.101,0.186-0.15,0.278c-0.331,0.623-0.637,1.27-0.908,1.922c-0.271,0.65-0.515,1.339-0.726,2.046 c-0.208,0.7-0.378,1.441-0.507,2.204c-0.049,0.291,0.032,0.586,0.223,0.813c0.19,0.225,0.469,0.354,0.763,0.354h2.137 c0.492,0,0.917-0.367,0.989-0.854c0.107-0.723,0.245-1.4,0.411-2.014c0.165-0.615,0.369-1.233,0.606-1.837 c0.24-0.609,0.519-1.233,0.831-1.854c0.226-0.451,0.481-0.933,0.749-1.428v0.128c0,0.392,0.23,0.749,0.584,0.909 c0.356,0.165,0.776,0.103,1.072-0.155c0.547-0.475,1.082-0.706,1.636-0.706c0.237,0,0.341,0.041,0.346,0.032 c0.006,0.019,0.021,0.069,0.021,0.173c0,0.081-0.012,0.148-0.037,0.215c-0.031,0.081-0.086,0.172-0.16,0.264 c-0.103,0.129-0.235,0.261-0.392,0.396c-0.184,0.159-0.399,0.325-0.646,0.502c-0.272,0.195-0.559,0.414-0.862,0.657 c-0.341,0.274-0.659,0.594-0.945,0.948c-0.299,0.37-0.549,0.793-0.745,1.256c-0.211,0.499-0.318,1.061-0.318,1.668v0.699 c0,0.552,0.449,1,1,1h6.178c0.551,0,1-0.448,1-1v-1.086c0.899,1.886,2.552,2.248,3.676,2.248c1.44,0,2.569-0.565,3.353-1.681 c0.708-1.005,1.066-2.415,1.066-4.189C35.5,19.641,32.845,18.896,31.262,18.896z M31.131,22.534 c0.114,0.244,0.283,0.881,0.283,2.16c0,1.287-0.166,1.911-0.283,2.151c-0.104-0.196-0.288-0.73-0.288-2.054 C30.844,23.384,31.04,22.745,31.131,22.534z M26.405,26.642h-1.548c0.243-0.173,0.479-0.351,0.707-0.532 c0.342-0.273,0.649-0.578,0.912-0.906c0.108-0.135,0.201-0.281,0.293-0.428c0,0.024-0.004,0.045-0.004,0.069 c0,0.76,0.071,1.409,0.186,1.982C26.791,26.719,26.61,26.642,26.405,26.642z" opacity=".05"/><path d="M19.645,20.051v1.179c0,0.085-0.021,0.168-0.063,0.242c-0.411,0.741-0.779,1.437-1.104,2.084 c-0.319,0.636-0.604,1.273-0.849,1.895c-0.243,0.619-0.453,1.255-0.624,1.891c-0.171,0.636-0.313,1.332-0.422,2.07 c-0.036,0.245-0.247,0.427-0.495,0.427h-2.137c-0.147,0-0.287-0.064-0.382-0.177c-0.095-0.112-0.136-0.261-0.111-0.406 c0.125-0.739,0.29-1.461,0.493-2.145c0.205-0.688,0.442-1.359,0.708-1.996c0.266-0.64,0.565-1.271,0.888-1.879 c0.182-0.341,0.371-0.68,0.564-1.014h-3.429c-0.276,0-0.5-0.224-0.5-0.5v-1.671c0-0.276,0.224-0.5,0.5-0.5h6.463 C19.421,19.551,19.645,19.774,19.645,20.051z M24.338,26.395c0.316-0.218,0.621-0.443,0.914-0.677 c0.312-0.248,0.592-0.525,0.833-0.827c0.249-0.311,0.45-0.659,0.6-1.036c0.154-0.39,0.232-0.835,0.232-1.323 c0-0.466-0.082-0.897-0.242-1.283c-0.165-0.396-0.408-0.736-0.723-1.014c-0.309-0.273-0.687-0.485-1.124-0.629 c-0.422-0.14-0.901-0.21-1.422-0.21c-1.107,0-2.119,0.291-3.004,0.864c-0.143,0.093-0.229,0.25-0.229,0.42v1.8 c0,0.196,0.114,0.374,0.293,0.455c0.176,0.081,0.387,0.051,0.535-0.078c0.642-0.558,1.284-0.829,1.964-0.829 c0.327,0,0.567,0.061,0.694,0.176c0.042,0.038,0.172,0.155,0.172,0.529c0,0.143-0.023,0.271-0.07,0.394 c-0.05,0.13-0.13,0.265-0.237,0.398c-0.12,0.149-0.273,0.305-0.455,0.461c-0.194,0.168-0.421,0.344-0.682,0.53 c-0.265,0.19-0.545,0.404-0.84,0.641c-0.313,0.252-0.605,0.546-0.869,0.873c-0.271,0.335-0.497,0.718-0.674,1.136 c-0.185,0.438-0.279,0.934-0.279,1.474v0.699c0,0.276,0.224,0.5,0.5,0.5h6.178c0.276,0,0.5-0.224,0.5-0.5v-1.696 c0-0.276-0.224-0.5-0.5-0.5h-3.04c0.116-0.105,0.247-0.213,0.39-0.321C23.943,26.679,24.14,26.535,24.338,26.395z M35,24.63 c0,1.67-0.328,2.982-0.975,3.901C33.339,29.506,32.349,30,31.081,30c-1.741,0-3.816-0.895-3.816-5.156 c0-1.709,0.333-3.045,0.989-3.971c0.694-0.98,1.706-1.478,3.008-1.478C32.967,19.396,35,20.304,35,24.63z M31.171,21.956 c-0.518,0-0.828,1.061-0.828,2.836c0,1.678,0.292,2.641,0.802,2.641c0.481,0,0.769-1.023,0.769-2.738 C31.915,23.005,31.63,21.956,31.171,21.956z" opacity=".07"/><path fill="#fff" d="M41,15h-2c-0.552,0-1-0.448-1-1v-2c0-0.552,0.448-1,1-1h2c0.552,0,1,0.448,1,1v2 C42,14.552,41.552,15,41,15z"/><path fill="#fff" d="M10,12v2c0,0.552-0.448,1-1,1H7c-0.552,0-1-0.448-1-1v-2c0-0.552,0.448-1,1-1h2 C9.552,11,10,11.448,10,12z"/><path fill="#fff" d="M18,12v2c0,0.552-0.448,1-1,1h-2c-0.552,0-1-0.448-1-1v-2c0-0.552,0.448-1,1-1h2 C17.552,11,18,11.448,18,12z"/><path fill="#fff" d="M26,12v2c0,0.552-0.448,1-1,1h-2c-0.552,0-1-0.448-1-1v-2c0-0.552,0.448-1,1-1h2 C25.552,11,26,11.448,26,12z"/><path fill="#fff" d="M34,12v2c0,0.552-0.448,1-1,1h-2c-0.552,0-1-0.448-1-1v-2c0-0.552,0.448-1,1-1h2 C33.552,11,34,11.448,34,12z"/><path fill="#fff" d="M41,38h-2c-0.552,0-1-0.448-1-1v-2c0-0.552,0.448-1,1-1h2c0.552,0,1,0.448,1,1v2 C42,37.552,41.552,38,41,38z"/><path fill="#fff" d="M10,35v2c0,0.552-0.448,1-1,1H7c-0.552,0-1-0.448-1-1v-2c0-0.552,0.448-1,1-1h2 C9.552,34,10,34.448,10,35z"/><path fill="#fff" d="M18,35v2c0,0.552-0.448,1-1,1h-2c-0.552,0-1-0.448-1-1v-2c0-0.552,0.448-1,1-1h2 C17.552,34,18,34.448,18,35z"/><path fill="#fff" d="M26,35v2c0,0.552-0.448,1-1,1h-2c-0.552,0-1-0.448-1-1v-2c0-0.552,0.448-1,1-1h2 C25.552,34,26,34.448,26,35z"/><path fill="#fff" d="M34,35v2c0,0.552-0.448,1-1,1h-2c-0.552,0-1-0.448-1-1v-2c0-0.552,0.448-1,1-1h2 C33.552,34,34,34.448,34,35z"/><path fill="#fff" d="M19.145,21.23c-0.414,0.747-0.786,1.447-1.114,2.102c-0.328,0.654-0.617,1.3-0.868,1.936 s-0.464,1.284-0.641,1.943c-0.177,0.658-0.322,1.368-0.434,2.127h-2.137c0.121-0.721,0.281-1.416,0.479-2.085 s0.429-1.318,0.69-1.946c0.261-0.628,0.55-1.24,0.868-1.836s0.653-1.179,1.007-1.749h-4.313v-1.671h6.463V21.23z"/><path fill="#fff" d="M22.467,27.641h3.938v1.697h-6.178v-0.699c0-0.475,0.08-0.901,0.24-1.279 c0.16-0.378,0.361-0.717,0.602-1.017c0.242-0.3,0.506-0.566,0.793-0.797c0.287-0.231,0.56-0.439,0.819-0.625 c0.272-0.194,0.511-0.38,0.716-0.557s0.378-0.353,0.518-0.528c0.14-0.175,0.245-0.352,0.314-0.531s0.104-0.37,0.104-0.573 c0-0.397-0.112-0.697-0.337-0.9s-0.568-0.304-1.03-0.304c-0.799,0-1.563,0.317-2.293,0.952v-1.8 c0.807-0.522,1.718-0.784,2.733-0.784c0.471,0,0.893,0.062,1.266,0.185c0.373,0.123,0.69,0.299,0.949,0.528 c0.259,0.229,0.457,0.506,0.593,0.832s0.204,0.69,0.204,1.091c0,0.427-0.066,0.807-0.198,1.14 c-0.132,0.332-0.307,0.635-0.525,0.907s-0.47,0.521-0.754,0.748s-0.581,0.446-0.887,0.657c-0.207,0.147-0.407,0.293-0.599,0.437 s-0.362,0.287-0.508,0.427s-0.263,0.277-0.35,0.411C22.51,27.393,22.467,27.52,22.467,27.641z"/><path fill="#fff" d="M31.081,29.5c-2.211,0-3.316-1.552-3.316-4.656c0-1.61,0.299-2.838,0.897-3.682 c0.598-0.844,1.465-1.266,2.6-1.266c2.159,0,3.238,1.578,3.238,4.734c0,1.572-0.295,2.776-0.884,3.614 C33.027,29.081,32.181,29.5,31.081,29.5z M31.171,21.456c-0.885,0-1.328,1.112-1.328,3.335c0,2.094,0.434,3.141,1.302,3.141 c0.846,0,1.269-1.079,1.269-3.238S32,21.456,31.171,21.456z"/></svg>