<svg xmlns="http://www.w3.org/2000/svg" viewBox="0 0 48 48"><path fill="#fac500" d="M37,19c-0.552,0-1-0.447-1-1V6c0-0.553,0.448-1,1-1s1,0.447,1,1v12C38,18.553,37.552,19,37,19z"/><path fill="#fac500" d="M43,13H31c-0.552,0-1-0.447-1-1s0.448-1,1-1h12c0.552,0,1,0.447,1,1S43.552,13,43,13z"/><path fill="#fac500" d="M32.757,17.242c-0.256,0-0.512-0.098-0.707-0.293c-0.391-0.391-0.391-1.023,0-1.414l8.485-8.484 c0.391-0.391,1.023-0.391,1.414,0s0.391,1.023,0,1.414l-8.485,8.484C33.269,17.145,33.013,17.242,32.757,17.242z"/><path fill="#fac500" d="M41.243,17.242c-0.256,0-0.512-0.098-0.707-0.293L32.05,8.465c-0.391-0.391-0.391-1.023,0-1.414 s1.023-0.391,1.414,0l8.485,8.484c0.391,0.391,0.391,1.023,0,1.414C41.754,17.145,41.499,17.242,41.243,17.242z"/><circle cx="37" cy="12" r="5" fill="#fac500"/><linearGradient id="5o1oSy_ok0J9MMyb8tQnEa" x1="2" x2="42" y1="28.899" y2="28.899" gradientUnits="userSpaceOnUse"><stop offset="0" stop-color="#c26715"/><stop offset=".508" stop-color="#b85515"/><stop offset="1" stop-color="#ad3f16"/></linearGradient><path fill="url(#5o1oSy_ok0J9MMyb8tQnEa)" d="M18.715,16.715c-1.223-1.223-3.206-1.223-4.429,0L2,29v11c0,1.105,0.895,2,2,2h38 L18.715,16.715z"/><path fill="#d6742d" d="M44,42c1.105,0,2-0.895,2-2v-5L33.715,22.715c-1.223-1.223-3.206-1.223-4.429,0L12,42H44z"/></svg>