<svg xmlns="http://www.w3.org/2000/svg" baseProfile="basic" viewBox="0 0 48 48"><linearGradient id="2_DlChTtBFJV9F1o4ygG-a" x1="39.546" x2="43.406" y1="327.424" y2="318.94" gradientTransform="matrix(1 0 0 -1 0 340)" gradientUnits="userSpaceOnUse"><stop offset="0" stop-color="#f44f5a"/><stop offset=".443" stop-color="#ee3d4a"/><stop offset="1" stop-color="#e52030"/></linearGradient><path fill="url(#2_DlChTtBFJV9F1o4ygG-a)" d="M45,18c0-1.244-1.689-4.281-2.533-5.72c-0.209-0.357-0.726-0.357-0.935,0	C40.689,13.719,39,16.756,39,18c0,1.658,1.343,3,3,3S45,19.658,45,18z"/><linearGradient id="2_DlChTtBFJV9F1o4ygG-b" x1="10.962" x2="14.077" y1="38.038" y2="34.923" gradientTransform="rotate(180 24.5 23.5)" gradientUnits="userSpaceOnUse"><stop offset=".503" stop-color="#a1aab3"/><stop offset=".658" stop-color="#9ea7af"/><stop offset=".796" stop-color="#949da5"/><stop offset=".928" stop-color="#848c92"/><stop offset="1" stop-color="#787f85"/></linearGradient><polygon fill="url(#2_DlChTtBFJV9F1o4ygG-b)" points="33,12.5 34.5,14 41.5,7 42,5 40,5.5"/><linearGradient id="2_DlChTtBFJV9F1o4ygG-c" x1="10.75" x2="10.75" y1="30.527" y2="45.542" gradientUnits="userSpaceOnUse"><stop offset="0" stop-color="#2aa4f4"/><stop offset="1" stop-color="#007ad9"/></linearGradient><polygon fill="url(#2_DlChTtBFJV9F1o4ygG-c)" points="5.5,37.5 6.21,36.79 6.56,36.44 9.79,33.21 10.15,32.85 10.5,32.5 12,31 16,35 14.5,36.5 14.15,36.85 13.79,37.21 10.56,40.44 10.21,40.79 9.5,41.5"/><linearGradient id="2_DlChTtBFJV9F1o4ygG-d" x1="19.837" x2="28.983" y1="12.741" y2="44.24" gradientUnits="userSpaceOnUse"><stop offset="0" stop-color="#32bdef"/><stop offset="1" stop-color="#1ea2e4"/></linearGradient><path fill="url(#2_DlChTtBFJV9F1o4ygG-d)" d="M9.72,28.28l14.66-14.66	c0.41-0.41,0.92-0.69,1.47-0.81l7.61-1.69c0.34-0.08,0.69,0.03,0.93,0.27l1.22,1.22c0.24,0.24,0.35,0.59,0.27,0.93l-1.69,7.61	c-0.12,0.55-0.4,1.06-0.81,1.47L18.72,37.28c-0.95,0.95-2.49,0.95-3.44,0l-5.56-5.56C8.77,30.77,8.77,29.23,9.72,28.28z"/><linearGradient id="2_DlChTtBFJV9F1o4ygG-e" x1="28.047" x2="37.193" y1="10.357" y2="41.857" gradientUnits="userSpaceOnUse"><stop offset="0" stop-color="#f44f5a"/><stop offset=".443" stop-color="#ee3d4a"/><stop offset="1" stop-color="#e52030"/></linearGradient><path fill="url(#2_DlChTtBFJV9F1o4ygG-e)" d="M22.5,15.5l1.88-1.88	c0.41-0.41,0.92-0.69,1.47-0.81l7.61-1.69c0.34-0.08,0.69,0.03,0.93,0.27l1.22,1.22c0.24,0.24,0.35,0.59,0.27,0.93l-1.69,7.61	c-0.12,0.55-0.4,1.06-0.81,1.47L31.5,24.5L22.5,15.5z"/><rect width="2" height="5.657" x="12.5" y="25.672" fill="#0370c8" transform="rotate(-45.001 13.5 28.5)"/><rect width="2" height="4.243" x="15" y="22.879" fill="#0370c8" transform="rotate(-45.001 16 25)"/><rect width="2" height="5.657" x="18.5" y="19.672" fill="#0370c8" transform="rotate(-45.001 19.5 22.5)"/><rect width="2" height="4.243" x="21" y="16.879" fill="#0370c8" transform="rotate(-45.001 22 19)"/><g><path d="M10.21,40.79l0.35-0.35l0.35-0.35l-4-4l-0.35,0.35l-0.35,0.35L10.21,40.79z" opacity=".05"/><path d="M10.21,40.79l0.35-0.35l-4-4l-0.35,0.35L10.21,40.79z" opacity=".07"/></g><path fill="#0370c8" d="M4,35c0.256,0,0.512,0.098,0.707,0.293l7,7c0.391,0.391,0.391,1.023,0,1.414s-1.023,0.391-1.414,0	l-7-7c-0.391-0.391-0.391-1.023,0-1.414C3.488,35.098,3.744,35,4,35z"/><g><path d="M13.79,37.21l0.36-0.36l0.35-0.35l-4-4l-0.35,0.35l-0.36,0.36L13.79,37.21z" opacity=".05"/><path d="M14.15,36.85l0.35-0.35l-4-4l-0.35,0.35L14.15,36.85z" opacity=".07"/></g></svg>