<svg xmlns="http://www.w3.org/2000/svg" viewBox="0 0 48 48"><radialGradient id="r6HlBTaG3AEkZb339TmsPa" cx="35.8" cy="8.959" r="12.791" gradientUnits="userSpaceOnUse"><stop offset="0" stop-color="#9e6fd9"/><stop offset=".173" stop-color="#aa73c7"/><stop offset=".522" stop-color="#ca7f97"/><stop offset="1" stop-color="#fc914d"/></radialGradient><path fill="url(#r6HlBTaG3AEkZb339TmsPa)" d="M24.529,19.513l-1.73-1.001l7.379-12.756c1.083-1.951,2.844-3.468,4.95-4.257l3.931-1.475	c0.19-0.071,0.402,0.025,0.474,0.215l0.444,1.183c0.071,0.19-0.025,0.402-0.215,0.474l-3.932,1.475	c-1.662,0.623-3.052,1.819-3.913,3.37L24.529,19.513z"/><linearGradient id="r6HlBTaG3AEkZb339TmsPb" x1="23.392" x2="24.429" y1="9.317" y2="17.313" gradientUnits="userSpaceOnUse"><stop offset="0" stop-color="#c8d2de"/><stop offset="1" stop-color="#8f979e"/></linearGradient><path fill="url(#r6HlBTaG3AEkZb339TmsPb)" d="M34.464,10.35C34.186,9.542,33.427,9,32.573,9H24h-8.575c-0.854,0-1.614,0.542-1.892,1.35	L12.28,14h23.439L34.464,10.35z"/><linearGradient id="r6HlBTaG3AEkZb339TmsPc" x1="17.586" x2="30.024" y1="12.795" y2="42.854" gradientUnits="userSpaceOnUse"><stop offset="0" stop-color="#ca4e2a"/><stop offset="1" stop-color="#b63016"/></linearGradient><path fill="url(#r6HlBTaG3AEkZb339TmsPc)" d="M16.301,44h15.399c0.643,0,1.285-0.141,1.848-0.451C39.197,40.43,43,34.641,43,28	c0-8-7.281-14-7.281-14H12.28c0,0-7.28,6-7.28,14c0,6.641,3.803,12.43,9.452,15.549C15.016,43.859,15.657,44,16.301,44z"/></svg>