<svg xmlns="http://www.w3.org/2000/svg" viewBox="0 0 48 48"><linearGradient id="_GYgCJFiT8uK5A9BM5oJ9a" x1="19.269" x2="30.928" y1="4.096" y2="44.351" gradientUnits="userSpaceOnUse"><stop offset="0" stop-color="#737b80"/><stop offset="1" stop-color="#575c61"/></linearGradient><path fill="url(#_GYgCJFiT8uK5A9BM5oJ9a)" d="M25.794,35.293l11.468-9.483C37.73,25.424,38,24.849,38,24.244v-7.495 C35.606,3.539,24,3.93,24,3.93S12.394,3.539,10,16.748v7.496c0,0.606,0.27,1.18,0.737,1.567l11.468,9.483 C23.247,36.155,24.753,36.154,25.794,35.293z M16,17.21c1.624-6.501,8-6.59,8-6.59s6.376,0.089,8,6.59v4.861H16V17.21z"/><linearGradient id="_GYgCJFiT8uK5A9BM5oJ9b" x1="15.33" x2="26.989" y1="5.237" y2="45.492" gradientUnits="userSpaceOnUse"><stop offset="0" stop-color="#737b80"/><stop offset="1" stop-color="#575c61"/></linearGradient><path fill="url(#_GYgCJFiT8uK5A9BM5oJ9b)" d="M27.045,36.7c-0.883,0.723-1.964,1.084-3.045,1.084s-2.163-0.361-3.045-1.084L10,27.723V42.5 c0,0,0.079,1.571,1.781,1.571c1.701,0,12.22,0,12.22,0s10.518,0,12.219,0C37.921,44.071,38,42.5,38,42.5V27.722L27.045,36.7z"/></svg>