<svg xmlns="http://www.w3.org/2000/svg" xmlns:xlink="http://www.w3.org/1999/xlink" data-name="Слой 1" viewBox="0 0 48 48"><defs><linearGradient id="C2lpMBXlrSTxqmA73NTNka" x1="8.547" x2="33.777" y1="1.117" y2="70.437" data-name="Безымянный градиент 143" gradientUnits="userSpaceOnUse"><stop offset="0" stop-color="#889097"/><stop offset="1" stop-color="#4c5963"/></linearGradient><linearGradient id="C2lpMBXlrSTxqmA73NTNkb" x1="19.761" x2="44.684" y1="-2.913" y2="65.562" xlink:href="#C2lpMBXlrSTxqmA73NTNka"/></defs><path fill="url(#C2lpMBXlrSTxqmA73NTNka)" d="M38.49615,45.23572C32.61523,36.21539,26,22.50586,26,7H22c0,15.50586-6.61523,29.21539-12.49615,38.23572a.49388.49388,0,0,0,.42.76428H13.7536a1.99449,1.99449,0,0,0,1.79279-1.11365C17.09412,41.726,19.5625,37,24,37s6.90588,4.72595,8.45361,7.88635A1.99449,1.99449,0,0,0,34.2464,46h3.82971A.49388.49388,0,0,0,38.49615,45.23572ZM24,14.99952,24.75,22h-1.5ZM21,32l2-8h2l2,8Z"/><path fill="#889097" d="M24,7a1,1,0,0,1-1-1V2a1,1,0,0,1,2,0V6A1,1,0,0,1,24,7Z"/><rect width="12" height="2" x="18" y="22" fill="#889097" rx="1"/><rect width="20" height="2" x="14" y="32" fill="#889097" rx="1"/><path fill="url(#C2lpMBXlrSTxqmA73NTNkb)" d="M24,5h0a3,3,0,0,1,3,3v2a0,0,0,0,1,0,0H21a0,0,0,0,1,0,0V8A3,3,0,0,1,24,5Z"/><rect width="8" height="3" x="20" y="8" fill="#889097" rx="1.5"/></svg>