<svg xmlns="http://www.w3.org/2000/svg" viewBox="0 0 48 48"><linearGradient id="Bs1EzAX8TXZ9yFbgM5wQ4a" x1="19.738" x2="27.079" y1="2.444" y2="44.08" gradientUnits="userSpaceOnUse"><stop offset="0" stop-color="#a235d4"/><stop offset=".441" stop-color="#a033d1"/><stop offset=".702" stop-color="#982cc9"/><stop offset=".915" stop-color="#8b21bb"/><stop offset="1" stop-color="#831bb3"/></linearGradient><path fill="url(#Bs1EzAX8TXZ9yFbgM5wQ4a)" d="M10,43V5c0-0.552,0.448-1,1-1h13.541c4.457,0,7.883,0.818,10.279,2.455 c2.395,1.636,3.593,3.942,3.593,6.918c0,2.157-0.729,4.045-2.186,5.662c-1.458,1.619-3.32,2.743-5.586,3.376v0.112 c2.842,0.353,5.112,1.404,6.811,3.153C39.151,27.422,40,29.551,40,32.061c0,3.663-1.309,6.569-3.927,8.717 C33.454,42.926,29.879,44,25.349,44H11C10.448,44,10,43.552,10,43z M18.998,10.639v9.484h3.955c1.857,0,3.319-0.45,4.388-1.353 s1.602-2.143,1.602-3.724c0-2.938-2.191-4.407-6.574-4.407H18.998z M18.998,26.817v10.544h4.874c2.08,0,3.709-0.483,4.889-1.45 c1.179-0.967,1.768-2.287,1.768-3.961c0-1.599-0.581-2.854-1.741-3.766c-1.16-0.91-2.781-1.366-4.861-1.366H18.998z"/></svg>