<svg xmlns="http://www.w3.org/2000/svg" id="Layer_1" x="0" y="0" version="1.1" viewBox="0 0 48 48" xml:space="preserve"><path fill="#c48c00" d="M30,33H18v-2h12V33z M25,10h-2v15h2V10z M29,10L27,10l-0.5,15l2,0.1L29,10z M33,10.1l-2-0.1l-1,15l2,0.1	L33,10.1z M21.5,25L21,10L19,10l0.5,15L21.5,25z M18,24.9l-1-15l-2,0.1l1,15L18,24.9z"/><path fill="#edbe00" d="M17.5,43h-2c-0.3,0-0.5-0.2-0.5-0.5V29h3v13.5C18,42.8,17.8,43,17.5,43z"/><path fill="#edbe00" d="M33,29h-3v13.5c0,0.3,0.2,0.5,0.5,0.5h2c0.3,0,0.5-0.2,0.5-0.5V29z"/><rect width="3" height="1" x="30" y="29" opacity=".05"/><rect width="3" height=".5" x="30" y="29" opacity=".07"/><rect width="3" height="1" x="15" y="29" opacity=".05"/><rect width="3" height=".5" x="15" y="29" opacity=".07"/><linearGradient id="SVGID_1_" x1="13" x2="35" y1="26" y2="26" gradientUnits="userSpaceOnUse"><stop offset="0" stop-color="#912fbd"/><stop offset="1" stop-color="#9332bf"/></linearGradient><path fill="url(#SVGID_1_)" d="M14,29h20c0.6,0,1-0.4,1-1v-1.9c0-0.8-0.5-1.5-1.2-1.8C32.4,23.8,29.6,23,24,23s-8.4,0.8-9.8,1.3	c-0.7,0.3-1.2,1-1.2,1.8V28C13,28.6,13.4,29,14,29z"/><g opacity=".05"><path d="M30.9,11.3c0.8,0.1,1.5,0.2,2,0.3l0.1-1.5l-2-0.1L30.9,11.3z"/><path d="M23,11c0.3,0,0.7,0,1,0s0.7,0,1,0v-1h-2V11z"/><path d="M17,9.9l-2,0.1l0.1,1.5c0.5-0.1,1.2-0.2,2-0.3L17,9.9z"/><path d="M21,10L19,10l0,1.1c0.6,0,1.3-0.1,2-0.1L21,10z"/><path d="M27,10l0,1.1c0.7,0,1.4,0.1,2,0.1l0-1.1L27,10z"/></g><g opacity=".07"><path d="M30.9,10.8c0.8,0.1,1.5,0.2,2,0.3l0.1-1l-2-0.1L30.9,10.8z"/><path d="M27,10l0,0.6c0.7,0,1.4,0.1,2,0.1l0-0.6L27,10z"/><path d="M17,9.9l-2,0.1l0.1,1c0.5-0.1,1.2-0.2,2-0.3L17,9.9z"/><path d="M23,10.5c0.3,0,0.7,0,1,0s0.7,0,1,0V10h-2V10.5z"/><path d="M21,10L19,10l0,0.6c0.6,0,1.3-0.1,2-0.1L21,10z"/></g><path fill="#edbe00" d="M35,9.8c0,0.6-0.6,1.1-1.2,1C32.2,10.4,29,10,24,10s-8.2,0.4-9.8,0.7c-0.6,0.1-1.2-0.4-1.2-1v-3	c0-0.5,0.3-0.9,0.8-1C15.3,5.5,18.8,5,24,5s8.7,0.5,10.2,0.8c0.5,0.1,0.8,0.5,0.8,1V9.8z"/></svg>