<svg xmlns="http://www.w3.org/2000/svg" xmlns:xlink="http://www.w3.org/1999/xlink" data-name="Слой 1" viewBox="0 0 48 48"><defs><linearGradient id="VOXCTtKdIEsTW9t58GzLaa" x1="18.387" x2="29.104" y1="17.577" y2="47.023" data-name="Безымянный градиент 147" gradientUnits="userSpaceOnUse"><stop offset="0" stop-color="#dfe9f2"/><stop offset=".391" stop-color="#d6e0e9"/><stop offset="1" stop-color="#bfc8d1"/></linearGradient><linearGradient id="VOXCTtKdIEsTW9t58GzLab" x1="18.389" x2="29.105" y1="17.579" y2="47.022" xlink:href="#VOXCTtKdIEsTW9t58GzLaa"/><linearGradient id="VOXCTtKdIEsTW9t58GzLac" x1="17.57" x2="30.201" y1="6.333" y2="41.037" data-name="Новый образец градиентной зал 2" gradientUnits="userSpaceOnUse"><stop offset="0" stop-color="#2aa4f4"/><stop offset="1" stop-color="#007ad9"/></linearGradient><linearGradient id="VOXCTtKdIEsTW9t58GzLad" x1="17.865" x2="29.092" y1="-1.858" y2="28.989" gradientUnits="userSpaceOnUse"><stop offset="0" stop-color="#4caf50"/><stop offset=".489" stop-color="#4aaf50"/><stop offset=".665" stop-color="#43ad50"/><stop offset=".79" stop-color="#38aa50"/><stop offset=".892" stop-color="#27a550"/><stop offset=".978" stop-color="#11a050"/><stop offset="1" stop-color="#0a9e50"/></linearGradient></defs><path fill="url(#VOXCTtKdIEsTW9t58GzLaa)" d="M41.5056,33.86491,25.00209,43.41983a2,2,0,0,1-2.00418,0L6.495,33.86528a1,1,0,0,1,.00013-1.73092l16.51069-9.55578a2,2,0,0,1,2.00431.00037l16.49563,9.55523A1,1,0,0,1,41.5056,33.86491Z"/><path fill="url(#VOXCTtKdIEsTW9t58GzLab)" d="M41.51,33.86,25,43.42a1.9869,1.9869,0,0,1-2,0L6.5,33.87a1.0044,1.0044,0,0,1,0-1.74l5.27-3.05,1-.58,10.24-5.92a1.9869,1.9869,0,0,1,2,0L35.24,28.5l.49.29.5.29,5.28,3.05A1.00329,1.00329,0,0,1,41.51,33.86Z"/><path fill="url(#VOXCTtKdIEsTW9t58GzLac)" d="M41.5056,24.86566,25.00209,34.42057a2,2,0,0,1-2.00418,0L6.495,24.866a1,1,0,0,1,.00013-1.73092l16.51069-9.55578a2,2,0,0,1,2.00431.00037l16.49563,9.55523A1,1,0,0,1,41.5056,24.86566Z"/><path d="M35.73,28.79l-.49-.29L25,34.42a1.98672,1.98672,0,0,1-2,0L12.77,28.5l-1,.58L22.5,35.29a3.01237,3.01237,0,0,0,3,0l10.73-6.21Z" opacity=".05"/><path d="M35.24,28.5,25,34.42a1.98672,1.98672,0,0,1-2,0L12.77,28.5l-.5.29,10.48,6.06a2.46767,2.46767,0,0,0,2.5,0l10.48-6.06Z" opacity=".07"/><path fill="url(#VOXCTtKdIEsTW9t58GzLad)" d="M41.5056,15.86491,25.00209,25.41983a2,2,0,0,1-2.00418,0L6.495,15.86528a1,1,0,0,1,.00013-1.73092L23.00585,4.57858a2,2,0,0,1,2.00431.00037l16.49563,9.55523A1,1,0,0,1,41.5056,15.86491Z"/><g><path d="M35.23,19.5,25,25.42a1.98672,1.98672,0,0,1-2,0L12.78,19.5l-1,.58L22.5,26.29a3.01237,3.01237,0,0,0,3,0l10.73-6.21Z" opacity=".05"/><path d="M35.23,19.5,25,25.42a1.98672,1.98672,0,0,1-2,0L12.78,19.5l-.5.29,10.47,6.06a2.46767,2.46767,0,0,0,2.5,0l10.48-6.06Z" opacity=".07"/></g></svg>