<svg xmlns="http://www.w3.org/2000/svg" xmlns:xlink="http://www.w3.org/1999/xlink" data-name="Layer 1" viewBox="0 0 48 48"><defs><linearGradient id="~U15NRjUrHt9uLULx4CqKc" x1="4.826" x2="48.601" y1="34.517" y2="34.517" data-name="Безымянный градиент 9" gradientUnits="userSpaceOnUse"><stop offset=".002" stop-color="#454545"/><stop offset=".013" stop-color="#464646"/><stop offset=".874" stop-color="#626262"/><stop offset="1" stop-color="#6d6d6d"/></linearGradient><linearGradient id="~U15NRjUrHt9uLULx4CqKa" x1="45.5" x2="13.183" y1="1.517" y2="33.833" data-name="Новый образец градиентной зал 6" gradientTransform="rotate(-45 27.904 19.113)" gradientUnits="userSpaceOnUse"><stop offset="0" stop-color="#eba84b"/><stop offset="1" stop-color="#d97218"/></linearGradient><linearGradient id="~U15NRjUrHt9uLULx4CqKd" x1="45.727" x2="29.212" y1=".634" y2="17.149" xlink:href="#~U15NRjUrHt9uLULx4CqKa"/><linearGradient id="~U15NRjUrHt9uLULx4CqKb" x1="12.5" x2="12.5" y1="52.017" y2="11.027" gradientUnits="userSpaceOnUse"><stop offset="0" stop-color="#ffda94"/><stop offset="1" stop-color="#fff0ce"/></linearGradient><linearGradient id="~U15NRjUrHt9uLULx4CqKe" x1="12" x2="12" y1="35.973" y2="-16.034" xlink:href="#~U15NRjUrHt9uLULx4CqKb"/></defs><path fill="url(#~U15NRjUrHt9uLULx4CqKc)" d="M22.5,44.01654h13a9.49163,9.49163,0,0,0,9.5-9.5,2.08821,2.08821,0,0,0-.01-.25,9.27656,9.27656,0,0,0-.56-2.99,9.496,9.496,0,0,0-8.93-6.26h-13a9.5,9.5,0,0,0,0,19Z"/><path fill="#343434" d="M35,39.51654a1.50008,1.50008,0,0,0-1.5-1.5,4.32074,4.32074,0,0,0-2.43945.71387,1.54487,1.54487,0,0,1-1.792-.00049,4.5213,4.5213,0,0,0-4.876.00049,1.37234,1.37234,0,0,1-.89258.28613,1.5,1.5,0,1,0,0,3,4.31589,4.31589,0,0,0,2.4375-.71386,1.53979,1.53979,0,0,1,1.78809,0,4.52471,4.52471,0,0,0,4.87793.00049A1.38158,1.38158,0,0,1,33.5,41.01654,1.50007,1.50007,0,0,0,35,39.51654Zm4.24-5.14a6.27121,6.27121,0,0,0,5.52,0c.08-.04.16-.08.23-.11a9.27656,9.27656,0,0,0-.56-2.99,7.30712,7.30712,0,0,0-.94.38,3.26359,3.26359,0,0,1-2.98,0,6.27112,6.27112,0,0,0-5.52,0,2.80491,2.80491,0,0,1-1.49.36,1.5,1.5,0,0,0,0,3,5.81334,5.81334,0,0,0,2.76-.64,3.26351,3.26351,0,0,1,2.98,0Z"/><rect width="19" height="32" x="18.404" y="3.113" fill="url(#~U15NRjUrHt9uLULx4CqKa)" rx="9.5" transform="rotate(45 27.904 19.113)"/><path fill="url(#~U15NRjUrHt9uLULx4CqKd)" d="M30.19319,11.09075a8.26145,8.26145,0,0,1-1.888,2.72239,8.26143,8.26143,0,0,1-2.72238,1.888,5.4787,5.4787,0,0,0-1.87381,1.294,1.5,1.5,0,0,1-2.12132-2.12132,8.26123,8.26123,0,0,1,2.72239-1.888,5.47859,5.47859,0,0,0,1.8738-1.294,5.4787,5.4787,0,0,0,1.294-1.87381,8.26145,8.26145,0,0,1,1.888-2.72239,8.26143,8.26143,0,0,1,2.72238-1.888c.13435-.06366.26163-.12024.3889-.191a9.573,9.573,0,0,1,3.80424.76373,1.12466,1.12466,0,0,1-.198.25454,8.26145,8.26145,0,0,1-2.72239,1.888,5.47859,5.47859,0,0,0-1.8738,1.294A5.47859,5.47859,0,0,0,30.19319,11.09075Zm.58691,12.97544a1.38161,1.38161,0,0,1,.83658-.43124,4.52466,4.52466,0,0,0,3.44887-3.44956A1.53983,1.53983,0,0,1,36.32992,18.921a4.31588,4.31588,0,0,0,2.22835-1.21879A1.5,1.5,0,0,0,36.437,15.58091a1.37238,1.37238,0,0,1-.83347.42882,4.52132,4.52132,0,0,0-3.44818,3.44749,1.54485,1.54485,0,0,1-1.26679,1.26747,4.32077,4.32077,0,0,0-2.22973,1.22018,1.5,1.5,0,1,0,2.12132,2.12132Zm-9.36917.88388a2.80472,2.80472,0,0,1,1.30813-.799A5.81328,5.81328,0,0,0,25.12324,22.652a1.5,1.5,0,0,0-2.12132-2.12132,2.80488,2.80488,0,0,1-1.30813.799,6.27114,6.27114,0,0,0-3.90324,3.90324,2.80484,2.80484,0,0,1-.799,1.30813,2.805,2.805,0,0,1-1.30813.799,7.30666,7.30666,0,0,0-.93339.396,9.27665,9.27665,0,0,0,1.71826,2.51022c.07074-.02826.15559-.05658.2404-.08485a5.77953,5.77953,0,0,0,2.40418-1.49906A5.77937,5.77937,0,0,0,20.6119,26.2582,2.805,2.805,0,0,1,21.41093,24.95007Z"/><path fill="url(#~U15NRjUrHt9uLULx4CqKb)" d="M22,17.51654v13a9.49163,9.49163,0,0,1-9.5,9.5,2.08813,2.08813,0,0,1-.25-.01,9.27672,9.27672,0,0,1-2.99-.56,9.496,9.496,0,0,1-6.26-8.93v-13a9.5,9.5,0,0,1,19,0Z"/><path fill="url(#~U15NRjUrHt9uLULx4CqKe)" d="M8.41,16.75653a8.2614,8.2614,0,0,1,.59,3.26,8.26136,8.26136,0,0,1-.59,3.26,5.47873,5.47873,0,0,0-.41,2.24,1.5,1.5,0,0,1-3,0,8.2614,8.2614,0,0,1,.59-3.26,5.47866,5.47866,0,0,0,.41-2.24,5.47873,5.47873,0,0,0-.41-2.24,8.26136,8.26136,0,0,1-.59-3.26,8.2614,8.2614,0,0,1,.59-3.26c.05-.14.1-.27.14-.41a9.57312,9.57312,0,0,1,3.23-2.15,1.12457,1.12457,0,0,1,.04.32,8.26136,8.26136,0,0,1-.59,3.26,5.47873,5.47873,0,0,0-.41,2.24A5.47866,5.47866,0,0,0,8.41,16.75653Zm9.59,8.76a1.38166,1.38166,0,0,1,.28662-.89648,4.52465,4.52465,0,0,0-.00049-4.87793,1.53983,1.53983,0,0,1,0-1.78809A4.31588,4.31588,0,0,0,19,15.51654a1.5,1.5,0,1,0-3,0,1.37238,1.37238,0,0,1-.28613.89258,4.52132,4.52132,0,0,0-.00049,4.876,1.54486,1.54486,0,0,1,.00049,1.792A4.32074,4.32074,0,0,0,15,25.51654a1.5,1.5,0,0,0,3,0Zm-6,7.25a2.80467,2.80467,0,0,1,.36-1.49,5.81339,5.81339,0,0,0,.64-2.76,1.5,1.5,0,0,0-3,0,2.80482,2.80482,0,0,1-.36,1.49,6.27121,6.27121,0,0,0,0,5.52,3.26351,3.26351,0,0,1,0,2.98,7.30823,7.30823,0,0,0-.38.94,9.27672,9.27672,0,0,0,2.99.56c.03-.07.07-.15.11-.23a6.27121,6.27121,0,0,0,0-5.52A2.80482,2.80482,0,0,1,12,32.76654Z"/><path d="M21.49,12.08655l-.73.73a9.47137,9.47137,0,0,1,1.24,4.7v13a9.49432,9.49432,0,0,1-7.41,9.27c.1.15.19995.29.31.44s.23.29.35.43005a10.488,10.488,0,0,0,7.75-10.14v-13A10.51744,10.51744,0,0,0,21.49,12.08655Z" opacity=".05"/><path d="M21.12,12.45655l-.36.36a9.47137,9.47137,0,0,1,1.24,4.7v13a9.49432,9.49432,0,0,1-7.41,9.27c.1.15.19995.29.31.44a10.01185,10.01185,0,0,0,7.6-9.71v-13A9.86347,9.86347,0,0,0,21.12,12.45655Z" opacity=".07"/></svg>