<svg xmlns="http://www.w3.org/2000/svg" viewBox="0 0 48 48"><linearGradient id="9r_Dr~EwGFKz~drQnbLQka" x1="40.001" x2="40.001" y1="34" y2="25" gradientUnits="userSpaceOnUse"><stop offset=".065" stop-color="#0d7044"/><stop offset=".506" stop-color="#11945a"/></linearGradient><path fill="url(#9r_Dr~EwGFKz~drQnbLQka)" d="M38.999,25H38v9h1.333c0.975,0,1.808-0.703,1.972-1.664l0.653-3.832 C42.269,26.672,40.857,25,38.999,25z"/><linearGradient id="9r_Dr~EwGFKz~drQnbLQkb" x1="8" x2="8" y1="34" y2="25" gradientUnits="userSpaceOnUse"><stop offset=".065" stop-color="#0d7044"/><stop offset=".506" stop-color="#11945a"/></linearGradient><path fill="url(#9r_Dr~EwGFKz~drQnbLQkb)" d="M9.001,25H10v9H8.667c-0.975,0-1.808-0.703-1.972-1.664l-0.653-3.832 C5.731,26.672,7.143,25,9.001,25z"/><path fill="#33c481" d="M24,6C16.598,6,9,9,9,25c0,1.281,0,5.92,0,7.288C9,38,18,45,24,45s15-7,15-12.712 c0-1.368,0-6.007,0-7.288C39,9,31.402,6,24,6z"/><radialGradient id="9r_Dr~EwGFKz~drQnbLQkc" cx="5.114" cy="26.983" r="55.678" gradientUnits="userSpaceOnUse"><stop offset="0" stop-color="#c26715"/><stop offset=".508" stop-color="#b85515"/><stop offset="1" stop-color="#ad3f16"/></radialGradient><path fill="url(#9r_Dr~EwGFKz~drQnbLQkc)" d="M44.319,21.49c-1.383-1.413-1.856-2.583-2.315-3.716c-0.166-0.409-0.334-0.823-0.538-1.234 c0.235,0.1,0.477,0.199,0.728,0.294c0.94,0.357,2.061,0.028,2.549-0.851c0.609-1.097,0.088-2.432-1.041-2.855 C40.886,12.071,39.355,9.533,37.735,8C35.089,5.498,32.354,2.91,25,2.91c-0.093,0-0.181,0.015-0.271,0.027 C24.484,2.93,24.252,2.91,24,2.91c-7.982,0-10,3-10,3c-1.826,0.269-3.812,2.771-5.201,4.922c-0.761,0.745-1.444,1.481-2.087,2.177 c-1.242,1.345-2.32,2.513-3.477,3.135c-0.913,0.491-1.467,1.522-1.128,2.501c0.404,1.167,1.72,1.676,2.788,1.144 c0.371-0.186,0.724-0.395,1.062-0.623c-0.092,0.759-0.384,1.414-1.301,2.35c-0.653,0.666-0.866,1.696-0.384,2.495 C4.669,24.67,5.335,25,6,25c0.512,0,1.024-0.195,1.414-0.586c0.215-0.215,0.406-0.426,0.587-0.634C8.276,25.13,8.608,26.799,9,29 c1-12,2-16,4-16c1.117,0,1.823,0.277,2.718,0.625c0.77,0.299,1.282,1.04,1.282,1.866l0,2.009c0,0.828,0.672,1.5,1.5,1.5h0 c0.828,0,1.5-0.672,1.5-1.5v-1.143c0-0.855,0.727-1.53,1.579-1.468l0.031,0.002c0.784,0.058,1.39,0.71,1.39,1.496l0,3.109 c0,0.828,0.672,1.5,1.5,1.5h0c0.828,0,1.5-0.672,1.5-1.5l0-3.214c0-0.733,0.537-1.356,1.263-1.463l0.04-0.006 C28.197,14.682,29,15.375,29,16.279V17c0,0.828,0.672,1.5,1.5,1.5h0c0.828,0,1.5-0.672,1.5-1.5l0-1.997 c0-1.059,0.825-1.961,1.883-2.001C33.922,13.001,33.961,13,34,13c5,0,5,14.108,5,16c0.337-3.1,0.567-5.236,0.72-6.875 c0.465,0.717,1.06,1.483,1.866,2.289C41.976,24.805,42.488,25,43,25c0.565,0,1.131-0.238,1.532-0.714 C45.216,23.474,45.062,22.249,44.319,21.49z"/><ellipse cx="30" cy="27" fill="#f7c13a" rx="4" ry="3"/><circle cx="31.17" cy="26.83" r="1.17" fill="#fff"/><path fill="#f7c13a" d="M23,26.65C23,28.5,21.21,30,19,30s-4-1.5-4-3.35c0-0.6,0.86-1.12,2.01-1.42 c0.01,0,0.03-0.01,0.04-0.01c0.9-0.21,1.84-0.22,2.28-0.22h0.07C21.26,25.09,23,25.79,23,26.65z"/><path fill="#fff" d="M19.34,25.17c0,0.65-0.52,1.17-1.17,1.17c-0.63,0-1.14-0.49-1.16-1.11c0.01,0,0.03-0.01,0.04-0.01 c0.9-0.21,1.84-0.22,2.28-0.22C19.34,25.06,19.34,25.11,19.34,25.17z"/><path fill="#889097" d="M24.56,31C23.699,31,23,32.437,23,34.211s0.699,0,1.56,0c0.861,0,1.56,1.774,1.56,0 S25.421,31,24.56,31z"/><linearGradient id="9r_Dr~EwGFKz~drQnbLQkd" x1="29.797" x2="36.81" y1="34.313" y2="46.46" gradientUnits="userSpaceOnUse"><stop offset="0" stop-color="#f44f5a"/><stop offset=".443" stop-color="#ee3d4a"/><stop offset="1" stop-color="#e52030"/></linearGradient><path fill="url(#9r_Dr~EwGFKz~drQnbLQkd)" d="M39,29c0,2.242-1.722,3.274-2.205,3.455H33.92c-0.861,0-1.56,0.699-1.56,1.56 s-0.699,1.56-1.56,1.56h-1.56c-0.861,0-1.56,0.699-1.56,1.56v1.56c0,0.861-0.699,1.56-1.56,1.56h-0.234 c-1.594,0-2.886,1.292-2.886,2.886v0.234c0,0.861,0.699,1.56,1.56,1.56c4.483,0,7.842-1.995,10.177-4.398 c-0.402,1.892-0.73,4.433-0.73,4.878c0,0.861,0.612,1.582,1.473,1.582c0.861,0,1.526-0.721,1.526-1.582 c0-0.437-0.367-2.916-0.763-4.781c-0.187-0.886-0.014-1.811,0.488-2.565c0.668-1.003,1.175-1.986,1.524-2.848 C39.37,33.238,39,29,39,29z"/></svg>