<svg xmlns="http://www.w3.org/2000/svg" xmlns:xlink="http://www.w3.org/1999/xlink" data-name="Слой 1" viewBox="0 0 48 48"><defs><linearGradient id="d~GtWh4Fqgnzvv6eB5voBa" x1="15.5" x2="27.676" y1="13.62" y2="47.072" data-name="Безымянный градиент 60" gradientUnits="userSpaceOnUse"><stop offset="0" stop-color="#8521b0"/><stop offset="1" stop-color="#64129a"/></linearGradient><linearGradient id="d~GtWh4Fqgnzvv6eB5voBc" x1="19.275" x2="23.512" y1="13.273" y2="24.914" data-name="Безымянный градиент 72" gradientUnits="userSpaceOnUse"><stop offset="0" stop-color="#ac4ad5"/><stop offset="1" stop-color="#ae4cd5"/></linearGradient><linearGradient id="d~GtWh4Fqgnzvv6eB5voBd" x1="22" x2="22" y1="20.641" y2="12.352" xlink:href="#d~GtWh4Fqgnzvv6eB5voBa"/><linearGradient id="d~GtWh4Fqgnzvv6eB5voBb" x1="15.881" x2="27.18" y1="5.852" y2="22.434" gradientUnits="userSpaceOnUse"><stop offset="0" stop-color="#ffcf54"/><stop offset=".261" stop-color="#fdcb4d"/><stop offset=".639" stop-color="#f7c13a"/><stop offset="1" stop-color="#f0b421"/></linearGradient><linearGradient id="d~GtWh4Fqgnzvv6eB5voBe" x1="12.201" x2="23.5" y1="8.36" y2="24.941" xlink:href="#d~GtWh4Fqgnzvv6eB5voBb"/><linearGradient id="d~GtWh4Fqgnzvv6eB5voBf" x1="8.556" x2="19.855" y1="10.843" y2="27.425" xlink:href="#d~GtWh4Fqgnzvv6eB5voBb"/><linearGradient id="d~GtWh4Fqgnzvv6eB5voBg" x1="21.607" x2="24.085" y1="6.924" y2="13.968" xlink:href="#d~GtWh4Fqgnzvv6eB5voBb"/><linearGradient id="d~GtWh4Fqgnzvv6eB5voBh" x1="33.176" x2="35.654" y1="2.853" y2="9.897" gradientUnits="userSpaceOnUse"><stop offset="0" stop-color="#6d6d6d"/><stop offset=".126" stop-color="#626262"/><stop offset=".886" stop-color="#464646"/><stop offset="1" stop-color="#454545"/></linearGradient></defs><path fill="url(#d~GtWh4Fqgnzvv6eB5voBa)" d="M34.00025,42a.97735.97735,0,0,1-1,1h-22a.97735.97735,0,0,1-1-1l.81-19,.19-5,11-1,11,1,.19,5Z"/><polygon fill="url(#d~GtWh4Fqgnzvv6eB5voBc)" points="33.19 23 10.81 23 11 18 22 17 33 18 33.19 23"/><rect width="30" height="2" x="7" y="16" fill="url(#d~GtWh4Fqgnzvv6eB5voBd)" rx="1"/><path fill="url(#d~GtWh4Fqgnzvv6eB5voBb)" d="M24.64434,17.10441l.31294.93853.93853.31294a.15246.15246,0,0,1,0,.28924l-.93853.313-.31294.93852a.15246.15246,0,0,1-.28924,0l-.31294-.93852-.93853-.313a.15246.15246,0,0,1,0-.28924l.93853-.31294.31294-.93853A.15236.15236,0,0,1,24.64434,17.10441Z"/><path fill="url(#d~GtWh4Fqgnzvv6eB5voBe)" d="M14.2895,8.2085l.626,1.876,1.876.626a.30523.30523,0,0,1,0,.579l-1.876.626-.626,1.876a.30523.30523,0,0,1-.579,0l-.626-1.876-1.876-.626a.30523.30523,0,0,1,0-.579l1.876-.626.626-1.876A.30489.30489,0,0,1,14.2895,8.2085Z"/><path fill="url(#d~GtWh4Fqgnzvv6eB5voBf)" d="M16.741,20.17413l.522,1.563,1.563.522a.2539.2539,0,0,1,0,.482l-1.563.522-.522,1.563a.2546.2546,0,0,1-.483,0l-.522-1.563-1.563-.522a.25459.25459,0,0,1,0-.483l1.563-.522.522-1.563A.25476.25476,0,0,1,16.741,20.17413Z"/><path fill="url(#d~GtWh4Fqgnzvv6eB5voBg)" d="M25.29,12.68994l-4.04,1.29a.49391.49391,0,0,1-.62-.32007L20.02,11.77a.49176.49176,0,0,1,.33-.62012L24.42,9.85l1.87486.88507Z"/><path fill="url(#d~GtWh4Fqgnzvv6eB5voBh)" d="M45.15,6.35l-19.86,6.34-.87-2.84L44.25,3.52a.49384.49384,0,0,1,.62.31995l.61,1.89A.49159.49159,0,0,1,45.15,6.35Z"/></svg>