<svg xmlns="http://www.w3.org/2000/svg" viewBox="0 0 48 48"><path fill="#195bbc" d="M12,28H6c-1.105,0-2,0.895-2,2v12c0,1.105,0.895,2,2,2h6c1.105,0,2-0.895,2-2V30	C14,28.895,13.105,28,12,28z"/><path fill="#195bbc" d="M42,28h-6c-1.105,0-2,0.895-2,2v12c0,1.105,0.895,2,2,2h6c1.105,0,2-0.895,2-2V30	C44,28.895,43.105,28,42,28z"/><linearGradient id="aZ6inMWPS0DkpVTqHJrS4a" x1="24" x2="24" y1="19.934" y2="4.8" gradientUnits="userSpaceOnUse"><stop offset="0" stop-color="#42a3f2"/><stop offset="1" stop-color="#42a4eb"/></linearGradient><path fill="url(#aZ6inMWPS0DkpVTqHJrS4a)" d="M16,20h16c1.105,0,2-0.895,2-2V6c0-1.105-0.895-2-2-2H16c-1.105,0-2,0.895-2,2v12	C14,19.105,14.895,20,16,20z"/><path fill="#35c1f1" d="M28.924,36.617C28.77,36.243,28.404,36,28,36h-3V24.5c0-0.276-0.224-0.5-0.5-0.5h-1	c-0.276,0-0.5,0.224-0.5,0.5V36h-3c-0.404,0-0.77,0.243-0.924,0.617c-0.155,0.374-0.069,0.804,0.217,1.09l4,4	C23.488,41.902,23.744,42,24,42s0.512-0.098,0.707-0.293l4-4C28.993,37.421,29.079,36.991,28.924,36.617z"/></svg>