<svg xmlns="http://www.w3.org/2000/svg" viewBox="0 0 48 48"><radialGradient id="MylfaIAUDNFYuUJ1AOyIHa" cx="23" cy="18.445" r="17.426" gradientUnits="userSpaceOnUse"><stop offset="0" stop-color="#d41727"/><stop offset=".419" stop-color="#d71b2a"/><stop offset=".792" stop-color="#e12534"/><stop offset="1" stop-color="#ea2f3d"/></radialGradient><path fill="url(#MylfaIAUDNFYuUJ1AOyIHa)" d="M19,16h-6c-1.52,0-5,0.25-5,5c0,10,10,14,10,14h1V16z"/><linearGradient id="MylfaIAUDNFYuUJ1AOyIHb" x1="23.157" x2="33.414" y1="4.303" y2="35.074" gradientUnits="userSpaceOnUse"><stop offset="0" stop-color="#f44f5a"/><stop offset=".443" stop-color="#ee3d4a"/><stop offset="1" stop-color="#e52030"/></linearGradient><path fill="url(#MylfaIAUDNFYuUJ1AOyIHb)" d="M27,5C16.17,5,14.19,8.78,14,16c0,12,4,19,4,19h20c0,0,4-7.979,4-19C42,8.78,37.83,5,27,5z"/><path fill="#cf1928" d="M38,35H18v6c0,1.105,0.895,2,2,2h16c1.105,0,2-0.895,2-2V35z"/></svg>