<svg xmlns="http://www.w3.org/2000/svg" viewBox="0 0 48 48"><linearGradient id="sPqoFnhh0OCvJYtJ1a80ha" x1="28" x2="28" y1="2.12" y2="18.227" gradientUnits="userSpaceOnUse"><stop offset="0" stop-color="#afb6bc"/><stop offset="1" stop-color="#9aa0a5"/></linearGradient><path fill="url(#sPqoFnhh0OCvJYtJ1a80ha)" d="M28,1c-1.657,0-3,1.343-3,3l1,13h4l1-13C31,2.343,29.657,1,28,1z"/><linearGradient id="sPqoFnhh0OCvJYtJ1a80hb" x1="20" x2="20" y1="2.12" y2="18.227" gradientUnits="userSpaceOnUse"><stop offset="0" stop-color="#afb6bc"/><stop offset="1" stop-color="#9aa0a5"/></linearGradient><path fill="url(#sPqoFnhh0OCvJYtJ1a80hb)" d="M20,1c-1.657,0-3,1.343-3,3l1,13h4l1-13C23,2.343,21.657,1,20,1z"/><linearGradient id="sPqoFnhh0OCvJYtJ1a80hc" x1="17.5" x2="29.675" y1="13.62" y2="47.072" gradientUnits="userSpaceOnUse"><stop offset="0" stop-color="#8521b0"/><stop offset="1" stop-color="#64129a"/></linearGradient><path fill="url(#sPqoFnhh0OCvJYtJ1a80hc)" d="M36,42c0.02,0.62-0.5,1-1,1H13c-0.5,0-1.02-0.38-1-1l0.81-19L13,18l11-1l11,1l0.19,5L36,42z"/><linearGradient id="sPqoFnhh0OCvJYtJ1a80hd" x1="21.275" x2="25.512" y1="13.273" y2="24.914" gradientUnits="userSpaceOnUse"><stop offset="0" stop-color="#ac4ad5"/><stop offset="1" stop-color="#ae4cd5"/></linearGradient><polygon fill="url(#sPqoFnhh0OCvJYtJ1a80hd)" points="35.19,23 12.81,23 13,18 24,17 35,18"/><linearGradient id="sPqoFnhh0OCvJYtJ1a80he" x1="24" x2="24" y1="20.641" y2="12.352" gradientUnits="userSpaceOnUse"><stop offset="0" stop-color="#8521b0"/><stop offset="1" stop-color="#64129a"/></linearGradient><path fill="url(#sPqoFnhh0OCvJYtJ1a80he)" d="M38,18H10c-0.552,0-1-0.448-1-1v0c0-0.552,0.448-1,1-1h28c0.552,0,1,0.448,1,1v0	C39,17.552,38.552,18,38,18z"/><polygon points="17.85,15 22.15,15 22.12,15.5 22.08,16 17.92,16 17.88,15.5" opacity=".05"/><polygon points="30.15,15 30.12,15.5 30.08,16 25.92,16 25.88,15.5 25.85,15" opacity=".05"/><polygon points="17.88,15.5 22.12,15.5 22.08,16 17.92,16" opacity=".07"/><polygon points="30.12,15.5 30.08,16 25.92,16 25.88,15.5" opacity=".07"/></svg>