<svg xmlns="http://www.w3.org/2000/svg" baseProfile="basic" viewBox="0 0 48 48"><linearGradient id="nGmH9Fy3EyznKn9QqcqZYa" x1="8.663" x2="38.122" y1="814.051" y2="789.195" gradientTransform="matrix(1 0 0 -1 0 822.11)" gradientUnits="userSpaceOnUse"><stop offset="0" stop-color="#a1aab3"/><stop offset="1" stop-color="#8f979e"/></linearGradient><path fill="url(#nGmH9Fy3EyznKn9QqcqZYa)" d="M41,35H7c-1.105,0-2-0.895-2-2V9c0-1.105,0.895-2,2-2h34c1.105,0,2,0.895,2,2v24	C43,34.105,42.105,35,41,35z"/><radialGradient id="nGmH9Fy3EyznKn9QqcqZYb" cx="497.29" cy="739.773" r="86.245" gradientTransform="matrix(.8095 0 0 -.7188 -355.474 590.683)" gradientUnits="userSpaceOnUse"><stop offset=".323" stop-color="#23d9d6"/><stop offset=".427" stop-color="#23d4d7"/><stop offset=".542" stop-color="#21c7dc"/><stop offset=".664" stop-color="#1fb0e2"/><stop offset=".789" stop-color="#1c91ec"/><stop offset=".917" stop-color="#1969f8"/><stop offset=".944" stop-color="#1860fb"/></radialGradient><rect width="34" height="24" x="7" y="9" fill="url(#nGmH9Fy3EyznKn9QqcqZYb)"/><linearGradient id="nGmH9Fy3EyznKn9QqcqZYc" x1="24" x2="24" y1="787.125" y2="780.096" gradientTransform="matrix(1 0 0 -1 0 822.11)" gradientUnits="userSpaceOnUse"><stop offset="0" stop-color="#484b4f"/><stop offset=".23" stop-color="#656d75"/><stop offset=".367" stop-color="#727d86"/></linearGradient><path fill="url(#nGmH9Fy3EyznKn9QqcqZYc)" d="M33,38h-5v-3h-8v3h-5c-0.552,0-1,0.448-1,1v2c0,0.552,0.448,1,1,1h18c0.552,0,1-0.448,1-1v-2	C34,38.448,33.552,38,33,38z"/><radialGradient id="nGmH9Fy3EyznKn9QqcqZYd" cx="38.175" cy="9.884" r="12.06" gradientUnits="userSpaceOnUse"><stop offset="0"/><stop offset=".979" stop-opacity="0"/></radialGradient><path fill="url(#nGmH9Fy3EyznKn9QqcqZYd)" d="M43,7v13.49C41.34,21.45,39.42,22,37.37,22C31.1,22,26,16.95,26,10.75	c0-1.32,0.24-2.57,0.66-3.75H43z"/><linearGradient id="nGmH9Fy3EyznKn9QqcqZYe" x1="30.929" x2="45.071" y1="1696.819" y2="1710.961" gradientTransform="translate(0 -1693.89)" gradientUnits="userSpaceOnUse"><stop offset="0" stop-color="#f0f0f0"/><stop offset="1" stop-color="#bbc1c4"/></linearGradient><path fill="url(#nGmH9Fy3EyznKn9QqcqZYe)" d="M48,10c0,5.522-4.478,10-10,10s-10-4.478-10-10S32.478,0,38,0S48,4.478,48,10z"/><linearGradient id="nGmH9Fy3EyznKn9QqcqZYf" x1="37.916" x2="46.024" y1="819.874" y2="806.939" gradientTransform="matrix(1 0 0 -1 0 822.11)" gradientUnits="userSpaceOnUse"><stop offset="0" stop-color="#21ad64"/><stop offset="1" stop-color="#088242"/></linearGradient><path fill="url(#nGmH9Fy3EyznKn9QqcqZYf)" d="M43.305,4.792L42.103,3.59c-0.122-0.122-0.319-0.122-0.44,0l-3.939,3.939	c-0.122,0.122-0.122,0.319,0,0.44l3.939,3.939c0.122,0.122,0.319,0.122,0.44,0l1.202-1.202c0.122-0.122,0.122-0.319,0-0.44	l-2.517-2.517l2.517-2.517C43.427,5.111,43.427,4.913,43.305,4.792z"/><linearGradient id="nGmH9Fy3EyznKn9QqcqZYg" x1="31.072" x2="39.18" y1="815.533" y2="802.597" gradientTransform="matrix(1 0 0 -1 0 822.11)" gradientUnits="userSpaceOnUse"><stop offset="0" stop-color="#21ad64"/><stop offset="1" stop-color="#088242"/></linearGradient><path fill="url(#nGmH9Fy3EyznKn9QqcqZYg)" d="M32.695,9.734l2.517,2.517l-2.517,2.517c-0.122,0.122-0.122,0.319,0,0.44l1.202,1.202	c0.122,0.122,0.319,0.122,0.44,0l3.939-3.939c0.122-0.122,0.122-0.319,0-0.44l-3.939-3.939c-0.122-0.122-0.319-0.122-0.44,0	l-1.202,1.202C32.573,9.415,32.573,9.612,32.695,9.734z"/></svg>