<svg xmlns="http://www.w3.org/2000/svg" id="Layer_1" x="0" y="0" version="1.1" viewBox="0 0 48 48" xml:space="preserve"><linearGradient id="SVGID_1_" x1="1.403" x2="10.261" y1="46.594" y2="37.736" gradientUnits="userSpaceOnUse"><stop offset="0" stop-color="#eba600"/><stop offset=".538" stop-color="#e9a400"/><stop offset=".732" stop-color="#e29e00"/><stop offset=".869" stop-color="#d79400"/><stop offset=".98" stop-color="#c68500"/><stop offset="1" stop-color="#c28200"/></linearGradient><path fill="url(#SVGID_1_)" d="M9.2,36l-7.6,5c-1.7,1.2-2.2,3.5-1,5.2c0.1,0.2,0.3,0.4,0.5,0.6l0,0c1.5,1.5,3.9,1.5,5.3,0	c0.2-0.2,0.3-0.4,0.5-0.6l5-7.6L9.2,36z"/><linearGradient id="SVGID_2_" x1="46.853" x2="37.311" y1="1.087" y2="10.852" gradientUnits="userSpaceOnUse"><stop offset="0" stop-color="#eba600"/><stop offset=".538" stop-color="#e9a400"/><stop offset=".732" stop-color="#e29e00"/><stop offset=".869" stop-color="#d79400"/><stop offset=".98" stop-color="#c68500"/><stop offset="1" stop-color="#c28200"/></linearGradient><path fill="url(#SVGID_2_)" d="M47.4,1.7c-0.1-0.2-0.3-0.4-0.5-0.6l0,0c-1.5-1.5-3.9-1.5-5.3,0c-0.2,0.2-0.3,0.4-0.5,0.6l-5,7.6l2.7,2.7l7.6-5	C48.1,5.8,48.5,3.4,47.4,1.7z"/><radialGradient id="SVGID_3_" cx="23.521" cy="24.383" r="6.605" gradientTransform="matrix(.7134 .7008 -2.1463 2.1849 59.076 -45.375)" gradientUnits="userSpaceOnUse"><stop offset="0" stop-color="#fede00"/><stop offset=".519" stop-color="#fecc00"/><stop offset="1" stop-color="#ffb700"/></radialGradient><path fill="url(#SVGID_3_)" d="M40.1,13.3l-5.3-5.3c-1-1-2.6-1-3.6,0c0,0,0,0,0,0L7.9,31.1c-1,1-1,2.6,0,3.6c0,0,0,0,0,0l5.3,5.3	c1,1,2.6,1,3.6,0c0,0,0,0,0,0l23.2-23.2C41,15.9,41,14.3,40.1,13.3C40.1,13.3,40.1,13.3,40.1,13.3z"/></svg>