<svg xmlns="http://www.w3.org/2000/svg" data-name="Layer 1" viewBox="0 0 48 48"><defs><linearGradient id="TEaV4108R32JcB7UW~eYza" x1="30.5" x2="30.5" y1="33.827" y2="10.658" data-name="Безымянный градиент 95" gradientUnits="userSpaceOnUse"><stop offset="0" stop-color="#f9f9f9"/><stop offset=".548" stop-color="#d8dcde"/><stop offset="1" stop-color="#c2c8cc"/></linearGradient><linearGradient id="TEaV4108R32JcB7UW~eYzb" x1="20.5" x2="20.5" y1="31.118" y2="8.351" data-name="Новый образец градиентной зал 5" gradientUnits="userSpaceOnUse"><stop offset="0" stop-color="#f9f9f9"/><stop offset=".26" stop-color="#f0f1f2"/><stop offset=".678" stop-color="#d9dcdf"/><stop offset="1" stop-color="#c2c8cc"/></linearGradient><linearGradient id="TEaV4108R32JcB7UW~eYzc" x1="24" x2="24" y1="40.162" y2="44.224" gradientUnits="userSpaceOnUse"><stop offset=".023" stop-color="#692a15"/><stop offset=".344" stop-color="#802d10"/><stop offset="1" stop-color="#8b3817"/></linearGradient><linearGradient id="TEaV4108R32JcB7UW~eYzd" x1="24" x2="24" y1="21.426" y2="44.684" gradientUnits="userSpaceOnUse"><stop offset="0" stop-color="#a34f27"/><stop offset=".587" stop-color="#8b3817"/><stop offset="1" stop-color="#802d10"/></linearGradient></defs><path fill="url(#TEaV4108R32JcB7UW~eYza)" d="M28.827,10.77915,17.25,25h26.5L32.17305,10.77915A2.18582,2.18582,0,0,0,28.827,10.77915Z"/><path fill="url(#TEaV4108R32JcB7UW~eYzb)" d="M19.01546,8.64441,4.25,25h32.5L21.98454,8.64441A2,2,0,0,0,19.01546,8.64441Z"/><circle cx="17" cy="16" r="1" fill="#fff"/><circle cx="14" cy="20" r="1" fill="#fff"/><circle cx="20" cy="19" r="1" fill="#fff"/><path fill="url(#TEaV4108R32JcB7UW~eYzc)" d="M15,38H33a0,0,0,0,1,0,0v4a2,2,0,0,1-2,2H17a2,2,0,0,1-2-2V38A0,0,0,0,1,15,38Z"/><path fill="url(#TEaV4108R32JcB7UW~eYzd)" d="M5,23H43a1,1,0,0,1,1,1v0A17,17,0,0,1,27,41H21A17,17,0,0,1,4,24v0A1,1,0,0,1,5,23Z"/></svg>