<svg xmlns="http://www.w3.org/2000/svg" viewBox="0 0 48 48"><linearGradient id="w2yFk3ZT6m5LynLCin7z3a" x1="24" x2="24" y1="-1.529" y2="73.331" gradientUnits="userSpaceOnUse"><stop offset="0" stop-color="#21ad64"/><stop offset="1" stop-color="#088242"/></linearGradient><path fill="url(#w2yFk3ZT6m5LynLCin7z3a)" d="M7,5h34c1.105,0,2,0.895,2,2v34c0,1.105-0.895,2-2,2H7c-1.105,0-2-0.895-2-2V7	C5,5.895,5.895,5,7,5z"/><g opacity=".05"><path d="M10.962,17c0.276,0,0.5,0.224,0.5,0.5v8.376h0.037l3.322-4.145c0.095-0.118,0.238-0.187,0.39-0.187h1.251 c0.427,0,0.658,0.501,0.38,0.825l-3.2,3.737l3.53,4.067c0.281,0.324,0.051,0.828-0.378,0.828h-1.381 c-0.151,0-0.294-0.068-0.389-0.185l-3.526-4.358h-0.037v4.044c0,0.276-0.224,0.5-0.5,0.5H9.811c-0.276,0-0.5-0.224-0.5-0.5V17.5 c0-0.276,0.224-0.5,0.5-0.5H10.962 M10.962,16H9.811c-0.827,0-1.5,0.673-1.5,1.5v13.001c0,0.827,0.673,1.5,1.5,1.5h1.151 c0.827,0,1.5-0.673,1.5-1.5v-1.263l1.785,2.207c0.286,0.354,0.711,0.557,1.166,0.557h1.381c0.595,0,1.118-0.336,1.365-0.878 c0.247-0.541,0.158-1.156-0.232-1.606l-2.965-3.416l2.64-3.082c0.386-0.45,0.471-1.064,0.223-1.603 c-0.248-0.538-0.77-0.873-1.363-0.873h-1.251c-0.458,0-0.884,0.205-1.17,0.562l-1.579,1.97V17.5 C12.462,16.673,11.789,16,10.962,16L10.962,16z"/><path d="M23.03,21.32c0.72,0,1.38,0.11,1.96,0.32c0.2,0.08,0.32,0.27,0.32,0.48v0.77c0,0.298-0.24,0.497-0.507,0.497 c-0.074,0-0.149-0.015-0.223-0.048c-0.44-0.21-0.9-0.31-1.38-0.31c-0.9,0-1.65,0.31-2.22,0.92c-0.58,0.61-0.87,1.41-0.87,2.41 c0,0.97,0.27,1.75,0.82,2.31c0.54,0.57,1.27,0.85,2.19,0.85c0.58,0,1.13-0.15,1.66-0.46c0.008-0.006,0.04-0.02,0.04-0.02 c0.04-0.02,0.08-0.03,0.13-0.03c0.19,0,0.35,0.15,0.35,0.34v0.91c0,0.19-0.1,0.37-0.27,0.45c-0.7,0.34-1.51,0.51-2.42,0.51 c-1.4,0-2.54-0.44-3.4-1.31c-0.86-0.88-1.29-2.02-1.29-3.42c0-1.55,0.46-2.8,1.39-3.75C20.23,21.79,21.47,21.32,23.03,21.32 M23.03,20.32c-1.837,0-3.33,0.58-4.438,1.724c-1.108,1.132-1.672,2.629-1.672,4.446c0,1.664,0.53,3.05,1.575,4.119 c1.058,1.07,2.441,1.611,4.115,1.611c1.062,0,2.023-0.205,2.857-0.611c0.502-0.236,0.833-0.768,0.833-1.349v-0.91 c0-0.739-0.606-1.34-1.35-1.34c-0.189,0-0.371,0.04-0.54,0.118l-0.114,0.049l-0.053,0.039c-0.361,0.205-0.729,0.304-1.122,0.304 c-0.651,0-1.117-0.171-1.464-0.538c-0.371-0.378-0.546-0.905-0.546-1.622c0-0.737,0.195-1.3,0.595-1.721 c0.385-0.412,0.872-0.609,1.495-0.609c0.339,0,0.65,0.07,0.949,0.213c0.226,0.1,0.437,0.145,0.653,0.145 c0.845,0,1.507-0.658,1.507-1.497v-0.77c0-0.625-0.372-1.178-0.949-1.409C24.635,20.448,23.861,20.32,23.03,20.32L23.03,20.32z"/><path d="M31.1,21.32c2.39,0,3.58,1.18,3.58,3.53v5.65c0,0.28-0.22,0.5-0.5,0.5H33.1c-0.27,0-0.5-0.22-0.5-0.5v-0.98h-0.03 c-0.66,1.14-1.61,1.7-2.88,1.7c-0.93,0-1.65-0.25-2.18-0.75c-0.53-0.51-0.79-1.18-0.79-2.01c0-1.78,1.03-2.83,3.08-3.12l2.81-0.4 c0-1.35-0.64-2.02-1.92-2.02c-0.95,0-1.82,0.28-2.61,0.83c-0.02,0.02-0.05,0.04-0.08,0.05s-0.06,0.02-0.1,0.02 c-0.14,0-0.26-0.11-0.26-0.25v-1.06c0-0.19,0.1-0.36,0.27-0.45C28.84,21.57,29.91,21.32,31.1,21.32 M30.35,29.6 c0.65,0,1.19-0.23,1.62-0.69c0.43-0.46,0.64-1.04,0.64-1.73v-0.82l-1.98,0.27c-0.62,0.08-1.08,0.23-1.39,0.45 c-0.31,0.22-0.47,0.6-0.47,1.15c0,0.4,0.14,0.73,0.43,0.98C29.49,29.47,29.87,29.6,30.35,29.6 M31.1,20.32 c-1.349,0-2.579,0.288-3.656,0.855c-0.496,0.263-0.804,0.774-0.804,1.335v1.06c0,0.689,0.565,1.25,1.26,1.25 c0.025,0,0.05-0.001,0.073-0.002c-1.921,0.874-2.253,2.573-2.253,3.642c0,1.112,0.369,2.03,1.097,2.731 c0.726,0.685,1.691,1.029,2.873,1.029c0.884,0,1.672-0.227,2.341-0.669C32.303,31.828,32.682,32,33.1,32h1.08 c0.827,0,1.5-0.673,1.5-1.5v-5.65C35.68,21.929,34.053,20.32,31.1,20.32L31.1,20.32z M28.69,24.544 c0.617-0.42,1.272-0.624,2-0.624c0.326,0,0.557,0.036,0.705,0.183l-1.736,0.247c-0.361,0.051-0.691,0.122-0.99,0.211 C28.676,24.555,28.683,24.549,28.69,24.544L28.69,24.544z M30.35,28.6c-0.332,0-0.441-0.098-0.482-0.135 c-0.054-0.046-0.098-0.084-0.098-0.235c0-0.26,0.054-0.339,0.055-0.34c0.092-0.064,0.345-0.192,0.933-0.268l0.827-0.113 c-0.047,0.286-0.16,0.519-0.346,0.718C30.998,28.485,30.724,28.6,30.35,28.6L30.35,28.6z"/><path d="M38.189,17c0.276,0,0.5,0.224,0.5,0.5v13.001c0,0.276-0.224,0.5-0.5,0.5h-1.151c-0.276,0-0.5-0.224-0.5-0.5V17.5 c0-0.276,0.224-0.5,0.5-0.5H38.189 M38.189,16h-1.151c-0.827,0-1.5,0.673-1.5,1.5v13.001c0,0.827,0.673,1.5,1.5,1.5h1.151 c0.827,0,1.5-0.673,1.5-1.5V17.5C39.689,16.673,39.016,16,38.189,16L38.189,16z"/></g><g opacity=".07"><path d="M10.962,17c0.276,0,0.5,0.224,0.5,0.5v8.376h0.037l3.322-4.145c0.095-0.118,0.238-0.187,0.39-0.187h1.251 c0.427,0,0.658,0.501,0.38,0.825l-3.2,3.737l3.53,4.067c0.281,0.324,0.051,0.828-0.378,0.828h-1.381 c-0.151,0-0.294-0.068-0.389-0.185l-3.526-4.358h-0.037v4.044c0,0.276-0.224,0.5-0.5,0.5H9.811c-0.276,0-0.5-0.224-0.5-0.5V17.5 c0-0.276,0.224-0.5,0.5-0.5H10.962 M10.962,16.5H9.811c-0.551,0-1,0.449-1,1v13.001c0,0.551,0.449,1,1,1h1.151 c0.551,0,1-0.449,1-1v-2.676l2.674,3.305c0.191,0.236,0.474,0.371,0.777,0.371h1.381c0.397,0,0.745-0.224,0.91-0.585 s0.105-0.771-0.155-1.07l-3.247-3.742l2.92-3.41c0.257-0.3,0.314-0.71,0.149-1.068c-0.165-0.359-0.513-0.582-0.908-0.582h-1.251 c-0.305,0-0.59,0.137-0.78,0.375l-2.469,3.08V17.5C11.962,16.949,11.513,16.5,10.962,16.5L10.962,16.5z"/><path d="M23.03,21.32c0.72,0,1.38,0.11,1.96,0.32c0.2,0.08,0.32,0.27,0.32,0.48v0.77c0,0.298-0.24,0.497-0.507,0.497 c-0.074,0-0.149-0.015-0.223-0.048c-0.44-0.21-0.9-0.31-1.38-0.31c-0.9,0-1.65,0.31-2.22,0.92c-0.58,0.61-0.87,1.41-0.87,2.41 c0,0.97,0.27,1.75,0.82,2.31c0.54,0.57,1.27,0.85,2.19,0.85c0.58,0,1.13-0.15,1.66-0.46c0.008-0.006,0.04-0.02,0.04-0.02 c0.04-0.02,0.08-0.03,0.13-0.03c0.19,0,0.35,0.15,0.35,0.34v0.91c0,0.19-0.1,0.37-0.27,0.45c-0.7,0.34-1.51,0.51-2.42,0.51 c-1.4,0-2.54-0.44-3.4-1.31c-0.86-0.88-1.29-2.02-1.29-3.42c0-1.55,0.46-2.8,1.39-3.75C20.23,21.79,21.47,21.32,23.03,21.32 M23.03,20.82c-1.697,0-3.069,0.529-4.079,1.572c-1.015,1.037-1.531,2.416-1.531,4.098c0,1.529,0.482,2.797,1.432,3.769 c0.959,0.97,2.222,1.461,3.758,1.461c0.985,0,1.873-0.188,2.639-0.56c0.333-0.156,0.551-0.511,0.551-0.9v-0.91 c0-0.463-0.381-0.84-0.85-0.84c-0.127,0-0.242,0.027-0.354,0.083l-0.051,0.025l-0.017,0.012l-0.001-0.001 c-0.45,0.263-0.911,0.392-1.408,0.392c-0.787,0-1.385-0.227-1.827-0.694c-0.455-0.464-0.683-1.123-0.683-1.966 c0-0.872,0.24-1.547,0.732-2.065c0.475-0.508,1.099-0.765,1.858-0.765c0.415,0,0.796,0.085,1.165,0.261 c0.149,0.066,0.292,0.096,0.438,0.096c0.565,0,1.007-0.438,1.007-0.997v-0.77c0-0.42-0.249-0.79-0.634-0.944 C24.519,20.938,23.802,20.82,23.03,20.82L23.03,20.82z"/><path d="M31.1,21.32c2.39,0,3.58,1.18,3.58,3.53v5.65c0,0.28-0.22,0.5-0.5,0.5H33.1c-0.27,0-0.5-0.22-0.5-0.5v-0.98h-0.03 c-0.66,1.14-1.61,1.7-2.88,1.7c-0.93,0-1.65-0.25-2.18-0.75c-0.53-0.51-0.79-1.18-0.79-2.01c0-1.78,1.03-2.83,3.08-3.12l2.81-0.4 c0-1.35-0.64-2.02-1.92-2.02c-0.95,0-1.82,0.28-2.61,0.83c-0.02,0.02-0.05,0.04-0.08,0.05s-0.06,0.02-0.1,0.02 c-0.14,0-0.26-0.11-0.26-0.25v-1.06c0-0.19,0.1-0.36,0.27-0.45C28.84,21.57,29.91,21.32,31.1,21.32 M30.35,29.6 c0.65,0,1.19-0.23,1.62-0.69c0.43-0.46,0.64-1.04,0.64-1.73v-0.82l-1.98,0.27c-0.62,0.08-1.08,0.23-1.39,0.45 c-0.31,0.22-0.47,0.6-0.47,1.15c0,0.4,0.14,0.73,0.43,0.98C29.49,29.47,29.87,29.6,30.35,29.6 M31.1,20.82 c-1.267,0-2.418,0.268-3.423,0.798c-0.331,0.175-0.537,0.517-0.537,0.892v1.06c0,0.414,0.341,0.75,0.76,0.75 c0.121,0,0.21-0.03,0.258-0.046c0.083-0.028,0.163-0.073,0.232-0.13c0.699-0.48,1.473-0.724,2.3-0.724 c0.862,0,1.288,0.322,1.393,1.09l-2.354,0.335c-2.901,0.41-3.51,2.192-3.51,3.615c0,0.971,0.317,1.768,0.943,2.37 c0.627,0.591,1.476,0.89,2.527,0.89c0.977,0,1.803-0.298,2.466-0.889C32.293,31.22,32.664,31.5,33.1,31.5h1.08 c0.561,0,1-0.439,1-1v-5.65C35.18,22.214,33.769,20.82,31.1,20.82L31.1,20.82z M30.35,29.1c-0.352,0-0.619-0.086-0.816-0.262 c-0.182-0.157-0.264-0.348-0.264-0.608c0-0.558,0.195-0.697,0.259-0.742c0.242-0.172,0.634-0.293,1.165-0.362l1.416-0.193v0.247 c0,0.571-0.165,1.025-0.505,1.388C31.27,28.926,30.86,29.1,30.35,29.1L30.35,29.1z"/><path d="M38.189,17c0.276,0,0.5,0.224,0.5,0.5v13.001c0,0.276-0.224,0.5-0.5,0.5h-1.151c-0.276,0-0.5-0.224-0.5-0.5V17.5 c0-0.276,0.224-0.5,0.5-0.5H38.189 M38.189,16.5h-1.151c-0.551,0-1,0.449-1,1v13.001c0,0.551,0.449,1,1,1h1.151 c0.551,0,1-0.449,1-1V17.5C39.189,16.949,38.741,16.5,38.189,16.5L38.189,16.5z"/></g><path fill="#fff" d="M16.794,31.001h-1.381c-0.151,0-0.294-0.068-0.389-0.186l-3.526-4.358h-0.037v4.044 c0,0.276-0.224,0.5-0.5,0.5H9.811c-0.276,0-0.5-0.224-0.5-0.5V17.5c0-0.276,0.224-0.5,0.5-0.5h1.151c0.276,0,0.5,0.224,0.5,0.5 v8.376h0.037l3.322-4.145c0.095-0.118,0.238-0.187,0.39-0.187h1.251c0.427,0,0.658,0.501,0.38,0.825l-3.2,3.737l3.53,4.067 C17.453,30.497,17.223,31.001,16.794,31.001z"/><path fill="#fff" d="M23.2,23.03c0.48,0,0.94,0.1,1.38,0.31c0.34,0.15,0.73-0.07,0.73-0.45v-0.77 c0-0.21-0.12-0.4-0.32-0.48c-0.58-0.21-1.24-0.32-1.96-0.32c-1.56,0-2.8,0.47-3.72,1.42c-0.93,0.95-1.39,2.2-1.39,3.75 c0,1.4,0.43,2.54,1.29,3.42c0.86,0.87,2,1.31,3.4,1.31c0.91,0,1.72-0.17,2.42-0.51c0.17-0.08,0.27-0.26,0.27-0.45v-0.91 c0-0.19-0.16-0.34-0.35-0.34c-0.05,0-0.09,0.01-0.13,0.03c0,0-0.032,0.014-0.04,0.02c-0.53,0.31-1.08,0.46-1.66,0.46 c-0.92,0-1.65-0.28-2.19-0.85c-0.55-0.56-0.82-1.34-0.82-2.31c0-1,0.29-1.8,0.87-2.41C21.55,23.34,22.3,23.03,23.2,23.03z"/><path fill="#fff" d="M31.1,21.32c-1.19,0-2.26,0.25-3.19,0.74c-0.17,0.09-0.27,0.26-0.27,0.45v1.06 c0,0.14,0.12,0.25,0.26,0.25c0.04,0,0.07-0.01,0.1-0.02s0.06-0.03,0.08-0.05c0.79-0.55,1.66-0.83,2.61-0.83 c1.28,0,1.92,0.67,1.92,2.02l-2.81,0.4c-2.05,0.29-3.08,1.34-3.08,3.12c0,0.83,0.26,1.5,0.79,2.01c0.53,0.5,1.25,0.75,2.18,0.75 c1.27,0,2.22-0.56,2.88-1.7h0.03v0.98c0,0.28,0.23,0.5,0.5,0.5h1.08c0.28,0,0.5-0.22,0.5-0.5v-5.65 C34.68,22.5,33.49,21.32,31.1,21.32z M32.61,27.18c0,0.69-0.21,1.27-0.64,1.73c-0.43,0.46-0.97,0.69-1.62,0.69 c-0.48,0-0.86-0.13-1.15-0.39c-0.29-0.25-0.43-0.58-0.43-0.98c0-0.55,0.16-0.93,0.47-1.15c0.31-0.22,0.77-0.37,1.39-0.45 l1.98-0.27V27.18z"/><path fill="#fff" d="M38.189,31.001h-1.151c-0.276,0-0.5-0.224-0.5-0.5V17.5c0-0.276,0.224-0.5,0.5-0.5h1.151 c0.276,0,0.5,0.224,0.5,0.5v13.001C38.689,30.777,38.465,31.001,38.189,31.001z"/></svg>