<svg xmlns="http://www.w3.org/2000/svg" viewBox="0 0 48 48"><linearGradient id="8RhtkDhDqHskTzRqZRRVpa" x1="15.981" x2="18.326" y1="12.005" y2="16.558" gradientUnits="userSpaceOnUse"><stop offset="0" stop-color="#ffcf54"/><stop offset=".261" stop-color="#fdcb4d"/><stop offset=".639" stop-color="#f7c13a"/><stop offset="1" stop-color="#f0b421"/></linearGradient><path fill="url(#8RhtkDhDqHskTzRqZRRVpa)" d="M16.497,14l1.206-1.594c0.488-0.669,0.342-1.608-0.328-2.096 c-0.136-0.1-0.285-0.166-0.438-0.214l0.964-1.299c0.165-0.222,0.118-0.535-0.104-0.699c-0.222-0.163-0.534-0.117-0.699,0.104 l-4.831,6.416c-0.488,0.669-0.342,1.608,0.328,2.096c0.268,0.196,0.579,0.285,0.887,0.284c0.006,0,0.012,0.002,0.018,0.002H23v-3 H16.497z"/><linearGradient id="8RhtkDhDqHskTzRqZRRVpb" x1="16.812" x2="16.102" y1="15.045" y2="14.379" gradientUnits="userSpaceOnUse"><stop offset="0" stop-color="#f0b421" stop-opacity="0"/><stop offset=".512" stop-color="#e9ab12" stop-opacity=".512"/><stop offset="1" stop-color="#e09f00"/></linearGradient><path fill="url(#8RhtkDhDqHskTzRqZRRVpb)" d="M15.203,15.444L16.497,14l1.244,0.008C17.741,14.008,16.711,15.121,15.203,15.444z"/><linearGradient id="8RhtkDhDqHskTzRqZRRVpc" x1="27.536" x2="28.024" y1="13.474" y2="22.165" gradientUnits="userSpaceOnUse"><stop offset="0" stop-color="#32bdef"/><stop offset="1" stop-color="#1ea2e4"/></linearGradient><path fill="url(#8RhtkDhDqHskTzRqZRRVpc)" d="M25.334,14H24v9h8v-2.333C32,16.991,29.009,14,25.334,14z"/><linearGradient id="8RhtkDhDqHskTzRqZRRVpd" x1="22.651" x2="25.348" y1="-974.284" y2="-981.715" gradientTransform="matrix(1 0 0 -1 0 -970)" gradientUnits="userSpaceOnUse"><stop offset="0" stop-color="#ffcf54"/><stop offset=".261" stop-color="#fdcb4d"/><stop offset=".639" stop-color="#f7c13a"/><stop offset="1" stop-color="#f0b421"/></linearGradient><path fill="url(#8RhtkDhDqHskTzRqZRRVpd)" d="M24,12c-2.2,0-4-1.8-4-4s1.8-4,4-4s4,1.8,4,4S26.2,12,24,12"/><path fill="#0d61a9" d="M29,30h-4v12c0,1.105,0.895,2,2,2l0,0c1.105,0,2-0.895,2-2V30z"/><path fill="#0d61a9" d="M23,30h-4v12c0,1.105,0.895,2,2,2l0,0c1.105,0,2-0.895,2-2V30z"/><path fill="#0d61a9" d="M19,27v5h4c0-0.552,0.448-1,1-1s1,0.448,1,1h4v-5H19z"/><linearGradient id="8RhtkDhDqHskTzRqZRRVpe" x1="29.23" x2="32.904" y1="-992.589" y2="-1000.753" gradientTransform="matrix(1 0 0 -1 0 -970)" gradientUnits="userSpaceOnUse"><stop offset="0" stop-color="#ffcf54"/><stop offset=".261" stop-color="#fdcb4d"/><stop offset=".639" stop-color="#f7c13a"/><stop offset="1" stop-color="#f0b421"/></linearGradient><path fill="url(#8RhtkDhDqHskTzRqZRRVpe)" d="M32,21h-3c0,0,0,8.221,0,8.5c0,0.828,0.672,1.5,1.5,1.5s1.5-0.672,1.5-1.5 C32,29.221,32,33.279,32,21z"/><linearGradient id="8RhtkDhDqHskTzRqZRRVpf" x1="22.361" x2="24.372" y1="13.903" y2="24.63" gradientUnits="userSpaceOnUse"><stop offset="0" stop-color="#32bdef"/><stop offset="1" stop-color="#1ea2e4"/></linearGradient><path fill="url(#8RhtkDhDqHskTzRqZRRVpf)" d="M25,14h-2h-4h-2v3h2v10h10v-9C29,15.791,27.209,14,25,14z"/></svg>