<svg xmlns="http://www.w3.org/2000/svg" viewBox="0 0 48 48"><linearGradient id="ZbUG3w~2JHeswiBBLgOuMa" x1="10.5" x2="10.5" y1="10.235" y2="22.77" gradientUnits="userSpaceOnUse"><stop offset="0" stop-color="#ffcf7b"/><stop offset=".196" stop-color="#fecd76"/><stop offset=".439" stop-color="#fac666"/><stop offset=".709" stop-color="#f3bc4d"/><stop offset=".995" stop-color="#eaad2a"/><stop offset="1" stop-color="#eaad29"/></linearGradient><path fill="url(#ZbUG3w~2JHeswiBBLgOuMa)" d="M10.5,23.5c-2.211,0-5.5-1.598-5.5-6c0-3.196,2.57-6,5.5-6c3.341,0,5.5,2.159,5.5,5.5	c0,0.828-0.671,1.5-1.5,1.5S13,17.828,13,17c0-1.073-0.259-2.5-2.5-2.5c-1.156,0-2.5,1.311-2.5,3c0,2.855,2.083,3,2.5,3	c0.829,0,1.5,0.672,1.5,1.5S11.329,23.5,10.5,23.5z"/><path fill="#bd8215" d="M29,44h5v0c0-1.105-0.895-2-2-2h-4v1C28,43.552,28.448,44,29,44z"/><path fill="#bd8215" d="M33,30l-1,14h-3c-0.55,0-1-0.45-1-1v-5.5V31L33,30z"/><path fill="#bd8215" d="M13,36l-1,8H9c-0.55,0-1-0.45-1-1v-7H13z"/><path fill="#bd8215" d="M9,44h5v0c0-1.105-0.895-2-2-2H8v1C8,43.552,8.448,44,9,44z"/><path fill="#bd8215" d="M8,36l1-4l-1-4l10,3c-1,2-2,4-5,5H8z"/><linearGradient id="ZbUG3w~2JHeswiBBLgOuMb" x1="21.5" x2="21.5" y1="-6.35" y2="17.605" gradientUnits="userSpaceOnUse"><stop offset="0" stop-color="#ffcf7b"/><stop offset=".196" stop-color="#fecd76"/><stop offset=".439" stop-color="#fac666"/><stop offset=".709" stop-color="#f3bc4d"/><stop offset=".995" stop-color="#eaad2a"/><stop offset="1" stop-color="#eaad29"/></linearGradient><path fill="url(#ZbUG3w~2JHeswiBBLgOuMb)" d="M38,17c-0.67,3.33-1.63,6.58-2.89,9.73L34,29.25c-0.73,1.83-2.39,3.3-4.02,4.15	c-1.76,0.93-3.87,1.2-5.92,0.62L16,31c-1,2-3,4-6,5l-0.78,6.01L9,44H6c-0.55,0-1-0.45-1-1v-6.51c0-0.16,0.01-0.32,0.03-0.49	c0.02-0.16,0.05-0.32,0.09-0.48l0.76-3.03c0.08-0.32,0.08-0.66,0-0.98L5,28v-0.44c0-4.79,3.76-8.75,8.55-8.99l8.55-0.53	c0.57-0.02,1.1-0.3,1.46-0.74L31,8l5.44,7L38,17z"/><linearGradient id="ZbUG3w~2JHeswiBBLgOuMc" x1="5" x2="11" y1="43" y2="43" gradientUnits="userSpaceOnUse"><stop offset="0" stop-color="#ffcf7b"/><stop offset=".196" stop-color="#fecd76"/><stop offset=".439" stop-color="#fac666"/><stop offset=".709" stop-color="#f3bc4d"/><stop offset=".995" stop-color="#eaad2a"/><stop offset="1" stop-color="#eaad29"/></linearGradient><path fill="url(#ZbUG3w~2JHeswiBBLgOuMc)" d="M11,44H6c-0.55,0-1-0.45-1-1v-1h4c0.08,0,0.15,0,0.22,0.01c0.46,0.05,0.88,0.26,1.19,0.58	C10.78,42.95,11,43.45,11,44z"/><linearGradient id="ZbUG3w~2JHeswiBBLgOuMd" x1="36" x2="36" y1="-7.147" y2="18.139" gradientUnits="userSpaceOnUse"><stop offset="0" stop-color="#ffcf7b"/><stop offset=".196" stop-color="#fecd76"/><stop offset=".439" stop-color="#fac666"/><stop offset=".709" stop-color="#f3bc4d"/><stop offset=".995" stop-color="#eaad2a"/><stop offset="1" stop-color="#eaad29"/></linearGradient><path fill="url(#ZbUG3w~2JHeswiBBLgOuMd)" d="M41,17h-4c-1.77,0-3.37-0.77-4.46-2C31.58,13.94,31,12.54,31,11V8h5.42	c1.89,0,3.49,1.31,3.9,3.11c0.04,0.15,0.06,0.3,0.08,0.45L40.78,15L41,17z"/><linearGradient id="ZbUG3w~2JHeswiBBLgOuMe" x1="42.185" x2="42.185" y1="-7.147" y2="18.139" gradientUnits="userSpaceOnUse"><stop offset="0" stop-color="#ffcf7b"/><stop offset=".196" stop-color="#fecd76"/><stop offset=".439" stop-color="#fac666"/><stop offset=".709" stop-color="#f3bc4d"/><stop offset=".995" stop-color="#eaad2a"/><stop offset="1" stop-color="#eaad29"/></linearGradient><path fill="url(#ZbUG3w~2JHeswiBBLgOuMe)" d="M45.17,14.11L44.5,15l-0.3,0.4C43.44,16.41,42.26,17,41,17h-2l0.33-2L40,11l0.32,0.11	l4.36,1.45C45.33,12.78,45.58,13.56,45.17,14.11z"/><linearGradient id="ZbUG3w~2JHeswiBBLgOuMf" x1="33.5" x2="33.5" y1="-7.147" y2="18.139" gradientUnits="userSpaceOnUse"><stop offset="0" stop-color="#ffcf7b"/><stop offset=".196" stop-color="#fecd76"/><stop offset=".439" stop-color="#fac666"/><stop offset=".709" stop-color="#f3bc4d"/><stop offset=".995" stop-color="#eaad2a"/><stop offset="1" stop-color="#eaad29"/></linearGradient><path fill="url(#ZbUG3w~2JHeswiBBLgOuMf)" d="M31,8h4l1-5C36,3,32,4,31,8z"/><linearGradient id="ZbUG3w~2JHeswiBBLgOuMg" x1="13" x2="16" y1="20" y2="20" gradientUnits="userSpaceOnUse"><stop offset="0" stop-color="#ffcf7b"/><stop offset=".196" stop-color="#fecd76"/><stop offset=".439" stop-color="#fac666"/><stop offset=".709" stop-color="#f3bc4d"/><stop offset=".995" stop-color="#eaad2a"/><stop offset="1" stop-color="#eaad29"/></linearGradient><path fill="url(#ZbUG3w~2JHeswiBBLgOuMg)" d="M16,17v3c0,1.66-1.34,3-3,3v-6H16z"/><linearGradient id="ZbUG3w~2JHeswiBBLgOuMh" x1="28.5" x2="28.5" y1="48.097" y2="6.701" gradientUnits="userSpaceOnUse"><stop offset="0" stop-color="#ffda94"/><stop offset="1" stop-color="#fff0ce"/></linearGradient><path fill="url(#ZbUG3w~2JHeswiBBLgOuMh)" d="M31,31l-1,13h-3c-0.55,0-1-0.45-1-1v-5.5V31H31z"/><linearGradient id="ZbUG3w~2JHeswiBBLgOuMi" x1="29" x2="29" y1="48.412" y2="3.832" gradientUnits="userSpaceOnUse"><stop offset="0" stop-color="#ffda94"/><stop offset="1" stop-color="#fff0ce"/></linearGradient><path fill="url(#ZbUG3w~2JHeswiBBLgOuMi)" d="M27,44h5v0c0-1.105-0.895-2-2-2h-4v1C26,43.552,26.448,44,27,44z"/><linearGradient id="ZbUG3w~2JHeswiBBLgOuMj" x1="35.25" x2="35.25" y1="48.586" y2="6.305" gradientUnits="userSpaceOnUse"><stop offset="0" stop-color="#ffda94"/><stop offset="1" stop-color="#fff0ce"/></linearGradient><path fill="url(#ZbUG3w~2JHeswiBBLgOuMj)" d="M44.5,15l-0.3,0.4C43.445,16.407,42.259,17,41,17h-3c-0.67,3.33-1.63,6.58-2.89,9.73	L34,29.25c-0.73,1.83-2.39,3.3-4.02,4.15L26,31v-5c0-2.209,1.791-4,4-4h1c1.105,0,2-0.895,2-2v0c0-2.761,2.239-5,5-5H44.5z"/><linearGradient id="ZbUG3w~2JHeswiBBLgOuMk" x1="8" x2="8" y1="47.922" y2="8.295" gradientUnits="userSpaceOnUse"><stop offset="0" stop-color="#ffda94"/><stop offset="1" stop-color="#fff0ce"/></linearGradient><path fill="url(#ZbUG3w~2JHeswiBBLgOuMk)" d="M11,44H6c-0.55,0-1-0.45-1-1v-6.51c0-0.16,0.01-0.32,0.03-0.49H10l-0.78,6.01	c0.46,0.05,0.88,0.26,1.19,0.58C10.78,42.95,11,43.45,11,44z"/><linearGradient id="ZbUG3w~2JHeswiBBLgOuMl" x1="14.5" x2="14.5" y1="17.059" y2="22.731" gradientUnits="userSpaceOnUse"><stop offset="0" stop-color="#ffda94"/><stop offset="1" stop-color="#fff0ce"/></linearGradient><path fill="url(#ZbUG3w~2JHeswiBBLgOuMl)" d="M16,17v3c0,1.66-1.34,3-3,3v-6H16z"/><circle cx="38" cy="12" r="1" fill="#5c2415"/><path fill="#5c2415" d="M45.26,13.98C44.54,13.86,44,13.25,44,12.5c0-0.06,0-0.11,0.02-0.16l0.66,0.22	C45.28,12.76,45.54,13.44,45.26,13.98z"/></svg>