<svg xmlns="http://www.w3.org/2000/svg" viewBox="0 0 48 48"><path fill="#c28200" d="M15,27c-0.553,0-1-0.447-1-1C14,10.583,26.086,3.832,26.601,3.552c0.484-0.262,1.091-0.085,1.354,0.4	c0.265,0.484,0.086,1.092-0.397,1.356C27.441,5.372,16,11.801,16,26C16,26.553,15.553,27,15,27z"/><path fill="#c28200" d="M32,27c-0.553,0-1-0.447-1-1c0-14.376-4.723-20.305-4.771-20.363c-0.35-0.426-0.29-1.055,0.135-1.406	c0.423-0.351,1.052-0.294,1.404,0.129C27.981,4.616,33,10.812,33,26C33,26.553,32.553,27,32,27z"/><linearGradient id="gWwlwBOPduuuDXDPFhzx0a" x1="29.908" x2="34.561" y1="23.61" y2="41.406" gradientUnits="userSpaceOnUse"><stop offset="0" stop-color="#e83c67"/><stop offset=".423" stop-color="#c5214a"/><stop offset=".773" stop-color="#b01038"/><stop offset="1" stop-color="#a80a31"/></linearGradient><path fill="url(#gWwlwBOPduuuDXDPFhzx0a)" d="M36.5,24c-2.381,0-3.248,1-4.5,1s-2.119-1-4.5-1c-1.423,0-6.5,0.491-6.5,8	c0,4.971,5.201,10,11,10s11-5.029,11-10C43,24.491,37.923,24,36.5,24z"/><radialGradient id="gWwlwBOPduuuDXDPFhzx0b" cx="15.513" cy="31.657" r="14.365" gradientUnits="userSpaceOnUse"><stop offset="0"/><stop offset="1" stop-opacity="0"/></radialGradient><path fill="url(#gWwlwBOPduuuDXDPFhzx0b)" d="M21,32c0,3.325,2.333,6.668,5.61,8.523C28.699,38.107,30,35.115,30,32	c0-3.735-1.031-6.273-2.302-7.99C27.629,24.009,27.571,24,27.5,24C26.077,24,21,24.491,21,32z"/><linearGradient id="gWwlwBOPduuuDXDPFhzx0c" x1="12.908" x2="17.561" y1="23.61" y2="41.406" gradientUnits="userSpaceOnUse"><stop offset=".002" stop-color="#f44f78"/><stop offset=".397" stop-color="#e4305d"/><stop offset=".763" stop-color="#d81b4a"/><stop offset="1" stop-color="#d41343"/></linearGradient><path fill="url(#gWwlwBOPduuuDXDPFhzx0c)" d="M19.5,24c-2.381,0-3.248,1-4.5,1s-2.119-1-4.5-1C9.077,24,4,24.491,4,32	c0,4.971,5.201,10,11,10s11-5.029,11-10C26,24.491,20.923,24,19.5,24z"/><path fill="#33c481" d="M28.778,13.831c-4.308-4.3-2.32-10.253-2.32-10.253l13.254,13.229	C39.712,16.808,33.085,18.131,28.778,13.831z"/><path fill="#21a366" d="M26.458,3.579c0,0,5.633-2.315,10.272,2.315s2.982,10.914,2.982,10.914L26.458,3.579z"/></svg>