<svg xmlns="http://www.w3.org/2000/svg" viewBox="0 0 48 48"><linearGradient id="tYd9YO72uqRYEyn696qo6a" x1="39.219" x2="39.465" y1="25.483" y2="31.457" gradientUnits="userSpaceOnUse"><stop offset="0" stop-color="#63daff"/><stop offset="1" stop-color="#6fa2ce"/></linearGradient><path fill="url(#tYd9YO72uqRYEyn696qo6a)" d="M46.957,31.149l-15.032-0.511l0.67-4.883l9.287,0.415	C41.883,26.17,45.936,25.851,46.957,31.149z"/><path fill="#115e9e" d="M41.596,27.064c0,0,1.596,1.564,2.074,3.926c-0.957,0.032-4.213-0.096-4.213-0.096	S40.415,27.223,41.596,27.064z"/><linearGradient id="tYd9YO72uqRYEyn696qo6b" x1="34.589" x2="35.233" y1="25.26" y2="40.924" gradientUnits="userSpaceOnUse"><stop offset="0" stop-color="#63daff"/><stop offset="1" stop-color="#6fa2ce"/></linearGradient><path fill="url(#tYd9YO72uqRYEyn696qo6b)" d="M27.968,25.532l14.521,0.702c0,0-1.628,0-2.681,4.851s-2.904,10.021-5.362,9.862	c-2.457-0.16-7.117-1.085-7.117-1.085L27.968,25.532z"/><path fill="#199be2" d="M39.234,26.074c-0.511,0.16-1.827,1.792-2.904,5.33c-1.117,3.67-1.979,7.819-4.819,8.617	c-2.84,0.798-4.691-10.628-4.691-10.628l0.734-3.894L39.234,26.074z"/><path fill="#82ecff" d="M36.17,28.915c0,0,0.511-1.628,1.883-2.936c-3.383-0.096-10.819-0.447-10.819-0.447l0.894,3.096	L36.17,28.915z"/><linearGradient id="tYd9YO72uqRYEyn696qo6c" x1="32.279" x2="30.392" y1="28.176" y2="35.632" gradientUnits="userSpaceOnUse"><stop offset=".033" stop-color="#8bf1ff"/><stop offset="1" stop-color="#6ab7e1"/></linearGradient><path fill="url(#tYd9YO72uqRYEyn696qo6c)" d="M35.723,29.872c0,0-1.34,7.181-3.606,8.968c-2.266,1.787-4.085-9.415-4.085-9.415	L35.723,29.872z"/><path fill="#fff" d="M43.454,28.57c-0.282-0.511-0.518-0.867-0.518-0.867s0.766,0.032,1.436,0.032	c0.256,0.269,0.463,0.546,0.643,0.819L43.454,28.57z M44.013,29.721c0.113,0.271,0.216,0.546,0.288,0.814	c0.694,0.048,1.604,0.04,1.604,0.04s-0.069-0.351-0.27-0.854H44.013z M38.24,32.762l-1.433-0.061	c-0.192,0.575-0.401,1.178-0.621,1.78l1.54,0.012C37.896,33.928,38.067,33.346,38.24,32.762z M39.314,29.451l-1.438-0.04	c-0.025,0.071-0.053,0.132-0.078,0.206c-0.132,0.403-0.309,0.971-0.52,1.636c0.476,0,0.973,0,1.424,0	C38.902,30.619,39.106,30.007,39.314,29.451z M34.848,37.644c0.584,0,1.236,0,1.816,0c0.06-0.138,0.119-0.279,0.177-0.431	c0.142-0.376,0.286-0.798,0.43-1.245h-1.659C35.365,36.568,35.109,37.134,34.848,37.644z M38.28,28.452c0.495,0,0.998,0,1.445,0	c0.3-0.667,0.61-1.195,0.931-1.5l-1.325-0.037C39.077,27.172,38.673,27.664,38.28,28.452z M34.156,38.811	c-0.265,0.374-0.531,0.668-0.794,0.827c-1.787,1.085,0.766,0.862,0.766,0.862s0.936-0.185,1.882-1.625L34.156,38.811z"/><linearGradient id="tYd9YO72uqRYEyn696qo6d" x1="17.18" x2="18.567" y1="5.39" y2="39.133" gradientUnits="userSpaceOnUse"><stop offset="0" stop-color="#63daff"/><stop offset="1" stop-color="#6fa2ce"/></linearGradient><path fill="url(#tYd9YO72uqRYEyn696qo6d)" d="M6.617,7.915C-2.064,19.149,1,37,7,38l28,3c-8.851,0.298-8.157-25.207-0.944-33.037	L6.617,7.915z"/><linearGradient id="tYd9YO72uqRYEyn696qo6e" x1="17.004" x2="18.772" y1="12.761" y2="38.279" gradientUnits="userSpaceOnUse"><stop offset="0" stop-color="#199be2"/><stop offset="1" stop-color="#0e4482"/></linearGradient><path fill="url(#tYd9YO72uqRYEyn696qo6e)" d="M9.928,7.939C1.247,19.173,4.255,35.25,9.761,38.314l20.202,2.106	c-7.324-6.223-6.391-22.548,0.12-32.457L9.928,7.939z"/><path fill="#82ecff" d="M6.134,18.03C6.88,14.952,8.129,11.851,10,8.968l18.527,0.096c-1.767,2.99-2.991,6.224-3.737,9.471	L6.134,18.03z M6.372,32.071c0.821,2.491,2.069,4.508,3.675,5.716l18.096,1.867c-1.44-1.688-2.518-3.857-3.228-6.316L6.372,32.071z M24.476,20.032L5.829,19.383c-0.787,4.064-0.67,8.009,0.144,11.298l18.569,1.208C23.752,28.294,23.716,24.182,24.476,20.032z"/><path fill="#e52030" d="M16.731,18.317c0.128-0.545,0.29-1.051,0.29-1.051l-1.277,0.862l-0.223-0.989l-1.628,0.638	c0,0,0.16-0.351,0.766-1.34c-1.021,0.543-2.553,1.021-2.553,1.021s-0.032-0.383,0.83-1.34c-1.5,0.798-2.777,0.638-2.777,0.638	s0.128-0.479,2.138-1.979c-1.085,0.287-1.691-0.064-1.691-0.064l0.926-0.67l-0.798-0.191c0,0,1.181-1.245,2.936-1.883	c-1.436,0.128-3.223-0.287-3.223-0.287s0.351-0.287,1.691-0.862c-0.606-0.319-0.83-0.862-0.83-0.862s0.351-0.351,1.915-0.479	c-0.3-0.086-0.462-0.336-0.542-0.497l15.845,0.082c-1.767,2.99-2.991,6.224-3.737,9.471l-0.541-0.015	c-0.399-0.507-0.94-1.304-1.514-2.467c0.163,0.962,0.16,1.841,0.128,2.43l-4.124-0.112l-0.185-0.69c0,0-0.256,0.333-0.691,0.667	L16.731,18.317z"/><radialGradient id="tYd9YO72uqRYEyn696qo6f" cx="21.535" cy="12.1" r="9.882" gradientUnits="userSpaceOnUse"><stop offset="0" stop-color="#ff6701"/><stop offset=".457" stop-color="#ff6f01"/><stop offset="1" stop-color="#fed100"/></radialGradient><path fill="url(#tYd9YO72uqRYEyn696qo6f)" d="M16.987,17.377l3.545-5.186l-0.798,0.415l-5.089,3.854c0.005-0.009,0.009-0.015,0.015-0.024	c-0.641,0.34-1.482,0.655-2.02,0.843l1.957-2.247l-3.356,1.663c-0.648,0.108-1.08,0.06-1.08,0.06s0.135-0.439,1.845-1.753	l5.176-2.428l-5.976,1.39l-0.471-0.113c0,0,1.031-1.073,2.588-1.737l3.188-0.688l-5.004,0.445c-0.619-0.087-1.06-0.189-1.06-0.189	s0.351-0.287,1.691-0.862c-0.606-0.319-0.83-0.862-0.83-0.862s0.185-0.174,0.834-0.321l6.059,0.194l-5.073-0.846l15.314,0.079	l-3.858,0.83l0.064,0.223l3.41-0.181c-0.411,0.749-0.79,1.51-1.136,2.282l-2.721-1.016l-0.064,0.319l2.364,1.661	c-0.196,0.478-0.375,0.96-0.548,1.444l-2.869-2.721l-0.191,0.16l2.523,4.126c-0.237,0.779-0.448,1.561-0.627,2.344l-0.282-0.008	l-2.092-6.304l-0.16,0.16c0,0.07-0.307,3.977-0.472,6.07l-1.331-0.036l0.622-5.939l-2.765,5.475	c-0.112,0.115-0.272,0.254-0.453,0.393l-1.124-0.03C16.825,17.924,16.933,17.551,16.987,17.377z"/><path fill="#e52030" d="M24.476,20.032c-0.628,3.433-0.704,6.835-0.267,9.945l-0.868-0.296l0.606,1.66l-1.436-0.447	c0,0,0.023,0.486-0.095,0.857l-1.294-0.084c-0.719-0.578-1.387-1.379-1.387-1.379l0.075,1.294L7.438,30.776	c0.266-0.467,0.884-1.44,1.796-2.212c-1.021,0.351-2.043,0.255-2.043,0.255l1.053-1.149c0,0-0.351-0.064-1.404-0.415	c0.606-0.83,2.745-2.298,2.745-2.298s-2.074,0.191-3.67-0.287c0.287-0.287,1.564-0.926,1.564-0.926s-1.062-0.254-2.042-1.618	c0.002-0.017,0.004-0.034,0.006-0.051c0.833-0.219,2.164-0.405,2.164-0.405l-2.022-0.82c0.056-0.396,0.126-0.795,0.199-1.194	l1.576-0.22L24.476,20.032z"/><radialGradient id="tYd9YO72uqRYEyn696qo6g" cx="18.323" cy="40.327" r="7.155" gradientUnits="userSpaceOnUse"><stop offset="0" stop-color="#e52030"/><stop offset="1" stop-color="#ff6701"/></radialGradient><path fill="url(#tYd9YO72uqRYEyn696qo6g)" d="M21.082,33.076l-0.773,0.562l0.07-0.61l-1.768-0.121l-0.472,1.21l-0.643-1.286l-3.748-0.256	l0.498,1.095l-1.723-0.989l0.223,1.245l-1.787-1.085l0.957,2.202c0,0-1.628-0.926-1.755-0.734c-0.128,0.191,0.957,1.723,0.957,1.723	l-1.053-0.319l1.021,1.149l-2.327-0.314c0.4,0.472,0.828,0.892,1.289,1.239l18.096,1.867c-0.264-0.309-0.502-0.651-0.741-0.991	l-2.371-0.078l2.112-0.267c-0.269-0.408-0.513-0.846-0.749-1.292l-2.512,0.378c0,0,0.479-0.16,1.468-1.468	c0.173-0.228,0.254-0.412,0.277-0.562c-0.058-0.144-0.117-0.286-0.172-0.432c-0.331-0.25-0.998-0.219-0.998-0.219l0.698-0.674	c-0.066-0.203-0.143-0.398-0.204-0.605l-1.802,0.801l0.477-0.995L21.082,33.076z"/><radialGradient id="tYd9YO72uqRYEyn696qo6h" cx="17.158" cy="23.583" r="10.979" gradientUnits="userSpaceOnUse"><stop offset="0" stop-color="#ff6701"/><stop offset=".457" stop-color="#ff6f01"/><stop offset="1" stop-color="#fed100"/></radialGradient><path fill="url(#tYd9YO72uqRYEyn696qo6h)" d="M23.938,31.316l0.009,0.024l-0.034-0.011C23.92,31.325,23.93,31.321,23.938,31.316z M7.191,28.819c0,0,0.056,0.004,0.143,0.008l-0.059-0.1L7.191,28.819z M19.032,24.096c1.961,0.564,4.048,0.938,4.914,1.082	c0.02-0.808,0.071-1.625,0.154-2.449l-5.355,0.154l5.487-1.319c0.07-0.509,0.151-1.02,0.244-1.532l-2.664-0.093l-3.355,2.082	l-0.223-0.255l2.332-1.87l-1.841-0.064l-0.906,1.424L17.5,20.968l0.369-1.166l-4.762-0.166l2.35,2.034l-0.319,0.191l-3.15-2.264	L7.36,19.436l-1.576,0.22c-0.073,0.399-0.143,0.798-0.199,1.194l0.695,0.282l6.944,1.24l-7.399-0.388	c-0.134,0.03-0.262,0.06-0.382,0.091c-0.002,0.016-0.004,0.033-0.006,0.049c0.628,0.874,1.285,1.292,1.679,1.479l4.959-0.243	l-5.019,0.602c-0.399,0.212-0.962,0.527-1.141,0.706c1.596,0.479,3.67,0.287,3.67,0.287s-2.138,1.468-2.745,2.298	c0.599,0.2,0.965,0.304,1.174,0.359c1.237-0.238,3.259-0.855,5.656-2.466c-2.196,1.733-3.616,2.817-4.513,3.486	c-0.869,0.761-1.459,1.689-1.719,2.141l1.959,0.127l2.167-2.308l-0.982,2.385l0.98,0.064c1.515-1.637,3.64-4.81,3.64-4.81	l-0.959,4.985l1.799,0.117c0.497-1.691,0.692-5.102,0.692-5.102l0.844,5.202l1.858,0.121c-0.243-2.294-1.521-5.929-1.521-5.929	l3.416,6.052l1.089,0.071c0.072-0.229,0.091-0.501,0.093-0.675c-1.207-2.085-3.129-5.289-3.129-5.289l4.478,4.071l0.348,0.118	c-0.154-1.097-0.245-2.23-0.268-3.389C22.6,25.903,20.229,24.694,19.032,24.096z"/><path fill="#fea300" d="M18.681,37.053c-1.452-0.172-1.971,0.901-2.133,1.405l5.168,0.533	C21.366,37.769,20.251,37.239,18.681,37.053z"/><path fill="#fff" d="M2.985,16.978l1.877,0.064c-0.19,0.744-0.349,1.504-0.484,2.275L2.462,19.27	C2.611,18.488,2.787,17.722,2.985,16.978z M27.971,19.888c0.131-0.683,0.282-1.365,0.456-2.046l-1.906-0.065	c-0.166,0.685-0.31,1.374-0.435,2.065L27.971,19.888z M27.819,31.233c-0.115-0.615-0.205-1.24-0.277-1.871l-1.864-0.124	c0.067,0.644,0.153,1.276,0.262,1.893L27.819,31.233z M27.708,21.439l-1.863-0.08c-0.108,0.784-0.188,1.567-0.243,2.346l1.853,0.059	C27.512,22.991,27.595,22.216,27.708,21.439z M27.514,36.23c0.26,0.547,0.546,1.065,0.858,1.551l1.84,0.166	c-0.282-0.505-0.546-1.021-0.785-1.553L27.514,36.23z M7.175,10.98l-1.856-0.021C5.001,11.54,4.693,12.171,4.4,12.852l1.864,0.003	C6.545,12.199,6.853,11.578,7.175,10.98z M29.008,38.69c0.281,0.36,0.583,0.69,0.898,1.002l1.495,0.135	c-0.23-0.317-0.445-0.646-0.655-0.978L29.008,38.69z M27.37,25.337l-1.841-0.081c-0.02,0.81-0.012,1.611,0.027,2.399l1.859,0.101	C27.368,26.957,27.35,26.152,27.37,25.337z M26.937,16.233l1.92,0.029c0.181-0.598,0.375-1.194,0.588-1.786l-1.935-0.039	C27.301,15.029,27.113,15.629,26.937,16.233z M4.191,20.424l-1.915-0.083c-0.134,0.861-0.238,1.735-0.299,2.615l1.979,0.063	C4.001,22.149,4.073,21.282,4.191,20.424z M6.817,35.833c-0.29-0.473-0.569-0.953-0.812-1.452L4.13,34.22	c0.292,0.507,0.623,0.992,0.981,1.459L6.817,35.833z M6.84,37.532c0.511,0.128,1.308,0.191,1.308,0.191	c-0.268-0.322-0.497-0.669-0.737-1.009l-1.548-0.142C6.171,36.905,6.491,37.228,6.84,37.532z M31.363,10.066	c0.315-0.613,0.619-1.148,0.969-1.744l-1.891,0.024c-0.355,0.555-0.687,1.13-1.004,1.717L31.363,10.066z M5.433,33.026	c-0.222-0.566-0.415-1.144-0.585-1.732l-2.039-0.136c0.184,0.589,0.401,1.164,0.65,1.723L5.433,33.026z M7.717,10.03	c0.352-0.579,0.716-1.134,1.102-1.636c-0.894,0.032-1.723,0-1.723,0c-0.412,0.437-0.828,0.989-1.235,1.633L7.717,10.03z M4.508,29.966c-0.158-0.713-0.282-1.435-0.375-2.166l-2.055-0.137c0.087,0.742,0.213,1.474,0.379,2.192L4.508,29.966z M5.818,14	l-1.866-0.038c-0.232,0.611-0.45,1.251-0.652,1.913l1.879,0.028C5.372,15.252,5.585,14.618,5.818,14z M28.105,12.888l1.962,0.003	c0.228-0.554,0.473-1.101,0.729-1.645l-1.954-0.022C28.58,11.768,28.337,12.324,28.105,12.888z M3.917,24.302l-1.995-0.088	c-0.017,0.721-0.005,1.442,0.038,2.158l2.026,0.11C3.933,25.758,3.913,25.03,3.917,24.302z M28.761,34.743	c-0.218-0.617-0.409-1.247-0.575-1.89l-1.906-0.127c0.161,0.648,0.348,1.275,0.562,1.876L28.761,34.743z"/><path fill="#fea300" d="M19.415,23.649c-0.319,1.979-1.851,2.17-2.872,2.266c-1.021,0.096-2.649-0.734-2.489-2.521	c0.16-1.787,1.436-2.457,2.617-2.521C18.009,20.8,19.734,21.67,19.415,23.649z"/><path fill="#fea300" d="M24.204,9h-3.489c-0.593,0.296-1.169,0.723-1.523,1.34c-0.989,1.723,0.894,2.362,1.66,2.298	c0,0,2.457,0.383,3.702-1.564C25.17,10.109,24.767,9.435,24.204,9z"/><path fill="#ffd731" d="M34.007,12.177c-1.828,1.876-2.999,4.271-3.706,6.781c-0.69,2.523-0.99,5.162-0.964,7.796	c0.034,2.629,0.358,5.283,1.161,7.75c0.404,1.223,0.926,2.416,1.646,3.383c0.712,0.975,1.65,1.644,2.583,1.561l-0.125,0.018	c1.642-0.307,2.781-1.788,3.457-3.583c0.695-1.79,1.064-3.779,1.499-5.777c0.223-1.002,0.441-2.019,0.797-3.035	c0.37-0.991,0.794-2.099,1.862-2.88c0.525-0.367,1.214-0.586,1.906-0.473c0.685,0.11,1.227,0.486,1.642,0.884	c0.827,0.828,1.31,1.776,1.714,2.793c0.1,0.251-0.023,0.535-0.274,0.635c-0.242,0.096-0.515-0.015-0.624-0.248l-0.014-0.031	c-0.391-0.848-0.942-1.709-1.594-2.29c-0.675-0.605-1.377-0.683-1.987-0.202c-0.595,0.455-0.975,1.355-1.247,2.262	c-0.27,0.923-0.473,1.902-0.659,2.894c-0.379,1.985-0.687,4.036-1.409,6.073c-0.368,1.012-0.85,2.037-1.618,2.939	c-0.748,0.912-1.876,1.601-3.056,1.85c-0.039,0.008-0.086,0.015-0.125,0.018c-0.89,0.072-1.809-0.188-2.509-0.642	c-0.713-0.446-1.268-1.024-1.727-1.629c-0.918-1.219-1.5-2.559-1.965-3.911c-0.899-2.716-1.291-5.531-1.315-8.345	c0.001-2.81,0.358-5.647,1.301-8.329c0.91-2.668,2.426-5.252,4.708-6.999c0.215-0.165,0.523-0.124,0.688,0.091	c0.15,0.196,0.13,0.469-0.038,0.641L34.007,12.177z"/></svg>