<svg xmlns="http://www.w3.org/2000/svg" viewBox="0 0 48 48"><linearGradient id="Npa89l7Y9uIWeuKxTwLita" x1="38.001" x2="40.528" y1="25.5" y2="25.5" gradientUnits="userSpaceOnUse"><stop offset="0" stop-color="#c48f0c"/><stop offset=".251" stop-color="#d19b16"/><stop offset=".619" stop-color="#dca51f"/><stop offset="1" stop-color="#e0a922"/></linearGradient><path fill="url(#Npa89l7Y9uIWeuKxTwLita)" d="M37.999,21H37v9h1.333c0.975,0,1.808-0.703,1.972-1.664l0.653-3.832	C41.269,22.672,39.857,21,37.999,21z"/><linearGradient id="Npa89l7Y9uIWeuKxTwLitb" x1="-882" x2="-879.472" y1="25.5" y2="25.5" gradientTransform="matrix(-1 0 0 1 -872 0)" gradientUnits="userSpaceOnUse"><stop offset="0" stop-color="#c48f0c"/><stop offset=".251" stop-color="#d19b16"/><stop offset=".619" stop-color="#dca51f"/><stop offset="1" stop-color="#e0a922"/></linearGradient><path fill="url(#Npa89l7Y9uIWeuKxTwLitb)" d="M10.001,21H11v9H9.667c-0.975,0-1.808-0.703-1.972-1.664l-0.653-3.832	C6.731,22.672,8.143,21,10.001,21z"/><radialGradient id="Npa89l7Y9uIWeuKxTwLitc" cx="24" cy="25.172" r="16.796" gradientTransform="translate(.8 1.467) scale(.9667)" gradientUnits="userSpaceOnUse"><stop offset="0" stop-color="#ffcf54"/><stop offset=".261" stop-color="#fdcb4d"/><stop offset=".639" stop-color="#f7c13a"/><stop offset="1" stop-color="#f0b421"/></radialGradient><path fill="url(#Npa89l7Y9uIWeuKxTwLitc)" d="M24,7.6c-6.908,0-14,2.8-14,17.733c0,1.195,0,5.525,0,6.802C10,37.467,18.4,44,24,44	s14-6.533,14-11.865c0-1.277,0-5.607,0-6.802C38,10.4,30.908,7.6,24,7.6z"/><linearGradient id="Npa89l7Y9uIWeuKxTwLitd" x1="24" x2="24" y1="31.031" y2="45.619" gradientUnits="userSpaceOnUse"><stop offset="0" stop-color="#c26715"/><stop offset=".508" stop-color="#b85515"/><stop offset="1" stop-color="#ad3f16"/></linearGradient><path fill="url(#Npa89l7Y9uIWeuKxTwLitd)" d="M27,31h-6c-2.2,0-4,1.8-4,4v4.4c0,3.1,2.5,5.6,5.6,5.6h2.8c3.1,0,5.6-2.5,5.6-5.6V35	C31,32.8,29.2,31,27,31z M29,38l-3,3v-2c0-1.1-0.9-2-2-2s-2,0.9-2,2v2l-3-3v-1c0-1.1,0.9-2,2-2h6c1.1,0,2,0.9,2,2V38z"/><linearGradient id="Npa89l7Y9uIWeuKxTwLite" x1="24.022" x2="24.022" y1="10.891" y2="20.033" gradientUnits="userSpaceOnUse"><stop offset="0" stop-color="#6d7479"/><stop offset="1" stop-color="#323538"/></linearGradient><path fill="url(#Npa89l7Y9uIWeuKxTwLite)" d="M11,15H2.7c-0.7,0-0.9,0.8-0.4,1.2C4.9,17.6,12.7,20,24,20s19.1-2.4,21.7-3.8	c0.6-0.4,0.3-1.2-0.4-1.2H37H11z"/><linearGradient id="Npa89l7Y9uIWeuKxTwLitf" x1="24" x2="24" y1="3.161" y2="15.03" gradientUnits="userSpaceOnUse"><stop offset="0" stop-color="#6d7479"/><stop offset="1" stop-color="#323538"/></linearGradient><path fill="url(#Npa89l7Y9uIWeuKxTwLitf)" d="M36.2,4.2C36.1,3.5,35.8,3,35,3c-2.1,0-6.7,0-11,0s-8.3,0-11,0c-0.8,0-1.1,0.5-1.2,1.2L11,15	h26L36.2,4.2z"/><path fill="#33c481" d="M11.3,11L11,15h13h13l-0.3-4H11.3z"/><linearGradient id="Npa89l7Y9uIWeuKxTwLitg" x1="24" x2="24" y1="20.942" y2="23.041" gradientUnits="userSpaceOnUse"><stop offset="0" stop-color="#6d7479"/><stop offset=".22" stop-color="#585d62"/><stop offset=".503" stop-color="#43474b"/><stop offset=".769" stop-color="#363a3d"/><stop offset="1" stop-color="#323538"/></linearGradient><path fill="url(#Npa89l7Y9uIWeuKxTwLitg)" d="M10.066,23h27.868c-0.038-0.697-0.095-1.362-0.168-2H10.234	C10.161,21.638,10.104,22.303,10.066,23z"/><linearGradient id="Npa89l7Y9uIWeuKxTwLith" x1="24.014" x2="24.014" y1="20.798" y2="28.142" gradientUnits="userSpaceOnUse"><stop offset="0" stop-color="#6d7479"/><stop offset=".22" stop-color="#585d62"/><stop offset=".503" stop-color="#43474b"/><stop offset=".769" stop-color="#363a3d"/><stop offset="1" stop-color="#323538"/></linearGradient><path fill="url(#Npa89l7Y9uIWeuKxTwLith)" d="M12.53,21c-0.768,0-1.323,0.734-1.114,1.473L12.5,26.3c0.3,1,1.2,1.7,2.3,1.7h4.5	c1,0,2-0.6,2.4-1.5c0,0,1-1.9,1.7-3.2c0.3-0.6,1.1-0.5,1.4,0l1.6,3.2c0.5,0.9,1.4,1.5,2.4,1.5h4.5c1.1,0,2-0.7,2.3-1.7l1.016-3.847	C36.81,21.719,36.256,21,35.497,21H12.53z"/></svg>