<svg xmlns="http://www.w3.org/2000/svg" viewBox="0 0 48 48"><path fill="#c48c00" d="M44,37H4v5c0,1.105,0.895,2,2,2h36c1.105,0,2-0.895,2-2V37z"/><path fill="#fad500" d="M44,23H4v-5c0-1.105,0.895-2,2-2h36c1.105,0,2,0.895,2,2V23z"/><rect width="40" height="7" x="4" y="23" fill="#edbe00"/><rect width="40" height="7" x="4" y="30" fill="#e3a600"/><linearGradient id="Z973wY~I~HLj0Shrcm60La" x1="24" x2="24" y1="1653.373" y2="1645.155" gradientTransform="translate(0 -1618)" gradientUnits="userSpaceOnUse"><stop offset="0" stop-color="#4b4b4b"/><stop offset="1" stop-color="#3b3b3b"/></linearGradient><path fill="url(#Z973wY~I~HLj0Shrcm60La)" d="M27,29c0-1.657-1.343-3-3-3s-3,1.343-3,3c0,1.304,0.837,2.403,2,2.816V35c0,0.552,0.448,1,1,1	s1-0.448,1-1v-3.184C26.163,31.403,27,30.304,27,29z"/><linearGradient id="Z973wY~I~HLj0Shrcm60Lb" x1="23.814" x2="23.814" y1="1633.647" y2="1617.704" gradientTransform="translate(0 -1618)" gradientUnits="userSpaceOnUse"><stop offset="0" stop-color="#92a3b0"/><stop offset=".015" stop-color="#a3b5c4"/><stop offset=".032" stop-color="#aec2d1"/><stop offset=".046" stop-color="#b2c6d6"/></linearGradient><path fill="url(#Z973wY~I~HLj0Shrcm60Lb)" d="M32.472,10h4.157C35.274,4.27,30.145,0,24,0c-7.18,0-13,5.82-13,13v3h4v-3	c0-4.971,4.029-9,9-9C27.916,4,31.236,6.507,32.472,10z"/><path d="M44,28.78V42c0,1.1-0.9,2-2,2H28.78C27.65,42.27,27,40.22,27,38	c0-6.07,4.93-11,11-11C40.22,27,42.27,27.65,44,28.78z" opacity=".05"/><path d="M44,29.39V42c0,1.1-0.9,2-2,2H29.39c-1.19-1.7-1.89-3.77-1.89-6	c0-5.79,4.71-10.5,10.5-10.5C40.23,27.5,42.3,28.2,44,29.39z" opacity=".07"/><linearGradient id="Z973wY~I~HLj0Shrcm60Lc" x1="30.929" x2="45.071" y1="1648.929" y2="1663.071" gradientTransform="translate(0 -1618)" gradientUnits="userSpaceOnUse"><stop offset="0" stop-color="#21ad64"/><stop offset="1" stop-color="#088242"/></linearGradient><path fill="url(#Z973wY~I~HLj0Shrcm60Lc)" d="M48,38c0,5.522-4.478,10-10,10s-10-4.478-10-10s4.478-10,10-10S48,32.478,48,38z"/><path fill="#fff" d="M36.646,42.354l-4-4c-0.195-0.195-0.195-0.512,0-0.707l0.707-0.707c0.195-0.195,0.512-0.195,0.707,0	L37,39.879l5.439-5.439c0.195-0.195,0.512-0.195,0.707,0l0.707,0.707c0.195,0.195,0.195,0.512,0,0.707l-6.5,6.5	C37.158,42.549,36.842,42.549,36.646,42.354z"/></svg>