<svg xmlns="http://www.w3.org/2000/svg" viewBox="0 0 48 48"><linearGradient id="umD7RKmKnAJYhwGFilT1xa" x1="-1645.197" x2="-1681.257" y1="1206.244" y2="1132.309" gradientTransform="translate(1672 -1150)" gradientUnits="userSpaceOnUse"><stop offset="0" stop-color="#fafafb"/><stop offset="0" stop-color="#f6f7f8"/><stop offset=".059" stop-color="#ebecee"/><stop offset=".781" stop-color="#d8dcdf"/><stop offset="1" stop-color="#c8cdd1"/></linearGradient><path fill="url(#umD7RKmKnAJYhwGFilT1xa)" d="M8,5H6C5.72,5,5.48,5.11,5.29,5.29C5.11,5.48,5,5.72,5,6v26.17c0,0.45,0.15,0.89,0.43,1.24 l6.97,8.83c0.17,0.21,0.37,0.38,0.6,0.51c0.29,0.16,0.63,0.25,0.97,0.25H16V13L8,5z"/><linearGradient id="umD7RKmKnAJYhwGFilT1xb" x1="-1612.835" x2="-1677.207" y1="1168.585" y2="1154.314" gradientTransform="translate(1672 -1150)" gradientUnits="userSpaceOnUse"><stop offset="0" stop-color="#c8cdd1"/><stop offset=".168" stop-color="#d8dcdf"/><stop offset=".217" stop-color="#dcdfe2"/><stop offset=".412" stop-color="#e7e9eb"/><stop offset=".623" stop-color="#ebecee"/><stop offset="1" stop-color="#f6f7f8"/><stop offset="1" stop-color="#fafafb"/></linearGradient><path fill="url(#umD7RKmKnAJYhwGFilT1xb)" d="M42.75,13c-0.13-0.23-0.3-0.43-0.51-0.6l-8.83-6.97C33.06,5.15,32.62,5,32.17,5H6 C5.72,5,5.48,5.11,5.29,5.29L13,13v3h30v-2.03C43,13.63,42.91,13.29,42.75,13z"/><linearGradient id="umD7RKmKnAJYhwGFilT1xc" x1="-1635.942" x2="-1661.792" y1="1194.65" y2="1141.649" gradientTransform="translate(1672 -1150)" gradientUnits="userSpaceOnUse"><stop offset="0" stop-color="#32bdef"/><stop offset="1" stop-color="#1ea2e4"/></linearGradient><path fill="url(#umD7RKmKnAJYhwGFilT1xc)" d="M42.75,13H13v29.75c0.29,0.16,0.63,0.25,0.97,0.25H42c0.55,0,1-0.45,1-1V13.97 C43,13.63,42.91,13.29,42.75,13z"/></svg>