<svg xmlns="http://www.w3.org/2000/svg" xmlns:xlink="http://www.w3.org/1999/xlink" data-name="Слой 1" viewBox="0 0 48 48"><defs><linearGradient id="tLv3Ujx9vu1v0imxyWXjfc" x1="24" x2="24" y1="-9.118" y2="52.471" gradientUnits="userSpaceOnUse"><stop offset="0" stop-color="#ffcf7b"/><stop offset=".196" stop-color="#fecd76"/><stop offset=".439" stop-color="#fac666"/><stop offset=".709" stop-color="#f3bc4d"/><stop offset=".995" stop-color="#eaad2a"/><stop offset="1" stop-color="#eaad29"/></linearGradient><linearGradient id="tLv3Ujx9vu1v0imxyWXjfd" x1="24" x2="24" y1="-5.059" y2="17.984" gradientUnits="userSpaceOnUse"><stop offset="0" stop-color="#d4943b"/><stop offset="1" stop-color="#c2620e"/></linearGradient><linearGradient id="tLv3Ujx9vu1v0imxyWXjfe" x1="22" x2="22" y1="21.118" y2="31.647" data-name="Безымянный градиент 134" gradientUnits="userSpaceOnUse"><stop offset="0" stop-color="#889097"/><stop offset="1" stop-color="#4c5963"/></linearGradient><linearGradient id="tLv3Ujx9vu1v0imxyWXjfa" x1="25" x2="25" y1="17.294" y2="42.018" data-name="Безымянный градиент 77" gradientUnits="userSpaceOnUse"><stop offset="0" stop-color="#afb6bc"/><stop offset="1" stop-color="#9aa0a5"/></linearGradient><linearGradient id="tLv3Ujx9vu1v0imxyWXjff" x1="18" x2="18" y1="17.294" y2="42.018" xlink:href="#tLv3Ujx9vu1v0imxyWXjfa"/><linearGradient id="tLv3Ujx9vu1v0imxyWXjfb" x1="27" x2="27" y1="22.449" y2="26.854" data-name="Безымянный градиент 90" gradientUnits="userSpaceOnUse"><stop offset="0" stop-color="#6d7479"/><stop offset=".425" stop-color="#565c60"/><stop offset="1" stop-color="#323538"/></linearGradient><linearGradient id="tLv3Ujx9vu1v0imxyWXjfg" x1="33" x2="33" y1="22.449" y2="26.854" xlink:href="#tLv3Ujx9vu1v0imxyWXjfb"/><linearGradient id="tLv3Ujx9vu1v0imxyWXjfh" x1="18" x2="18" y1="18.368" y2="35.442" data-name="Безымянный градиент 61" gradientUnits="userSpaceOnUse"><stop offset="0" stop-color="#ffa1a6"/><stop offset=".187" stop-color="#fd909c"/><stop offset="1" stop-color="#f24472"/></linearGradient></defs><path fill="url(#tLv3Ujx9vu1v0imxyWXjfc)" d="M40,43H8a1.99945,1.99945,0,0,1-2-2V20L24,3,42,20V41A1.99945,1.99945,0,0,1,40,43Z"/><path fill="url(#tLv3Ujx9vu1v0imxyWXjfd)" d="M44.495,19.507,25.326,2.503a1.99929,1.99929,0,0,0-2.652,0L3.505,19.507a.99869.99869,0,0,0-.064,1.43l1.636,1.745a.9995.9995,0,0,0,1.39.067L24,7.428,41.533,22.75a1.0005,1.0005,0,0,0,1.39-.067l1.636-1.745A.99983.99983,0,0,0,44.495,19.507Z"/><path d="M41.53,22.75,24,7.43,6.47,22.75a.98744.98744,0,0,1-.47.23v1a1.94356,1.94356,0,0,0,1.13-.48L24,8.76,40.87,23.5a1.94356,1.94356,0,0,0,1.13.48v-1A.98744.98744,0,0,1,41.53,22.75Z" opacity=".05"/><path d="M41.53,22.75,24,7.43,6.47,22.75a.98744.98744,0,0,1-.47.23v.51a1.47631,1.47631,0,0,0,.8-.37L24,8.09,41.2,23.13a1.5363,1.5363,0,0,0,.8.36v-.51A.98744.98744,0,0,1,41.53,22.75Z" opacity=".07"/><circle cx="22" cy="27" r="4" fill="url(#tLv3Ujx9vu1v0imxyWXjfe)"/><path fill="url(#tLv3Ujx9vu1v0imxyWXjfa)" d="M33,26H21a5,5,0,0,0,0,10c8,0,13-5,13-9Z"/><path fill="url(#tLv3Ujx9vu1v0imxyWXjff)" d="M22,27a4,4,0,1,0-4,4A4,4,0,0,1,22,27Z"/><circle cx="27" cy="29" r="1" fill="url(#tLv3Ujx9vu1v0imxyWXjfb)"/><circle cx="33" cy="27" r="1" fill="url(#tLv3Ujx9vu1v0imxyWXjfg)"/><circle cx="18" cy="27" r="2" fill="url(#tLv3Ujx9vu1v0imxyWXjfh)"/><g><path d="M22,23a3.99072,3.99072,0,0,1,3.85858,3H33a1,1,0,0,1,1,1c0,4-5,9-13,9a5,5,0,0,1-5-5,4.8994,4.8994,0,0,1,.053-.526A3.98343,3.98343,0,1,1,20,23.55469,3.96,3.96,0,0,1,22,23m0-1a4.85015,4.85015,0,0,0-2,.43176A4.85015,4.85015,0,0,0,18,22a4.98548,4.98548,0,0,0-2.99991,8.97827L15,31a6.00684,6.00684,0,0,0,6,6c8.2504,0,14-5.27014,14-10a2.00228,2.00228,0,0,0-2-2H26.56836A4.98834,4.98834,0,0,0,22,22Z" opacity=".05"/><path d="M22,23a3.99072,3.99072,0,0,1,3.85858,3H33a1,1,0,0,1,1,1c0,4-5,9-13,9a5,5,0,0,1-5-5,4.8994,4.8994,0,0,1,.053-.526A3.98343,3.98343,0,1,1,20,23.55469,3.96,3.96,0,0,1,22,23m0-.5a4.38466,4.38466,0,0,0-2,.48572A4.38466,4.38466,0,0,0,18,22.5a4.48616,4.48616,0,0,0-2.48334,8.23145A2.43011,2.43011,0,0,0,15.5,31,5.50623,5.50623,0,0,0,21,36.5c7.95575,0,13.5-5.00659,13.5-9.5A1.50168,1.50168,0,0,0,33,25.5H26.22821A4.49049,4.49049,0,0,0,22,22.5Z" opacity=".07"/></g></svg>