<svg xmlns="http://www.w3.org/2000/svg" viewBox="0 0 48 48"><linearGradient id="vPz17Lu49Cq1W_VzWCEVpa" x1="24" x2="24" y1="37.937" y2="7.937" gradientTransform="matrix(1 0 0 -1 0 50)" gradientUnits="userSpaceOnUse"><stop offset="0" stop-color="#f0f0f0"/><stop offset="1" stop-color="#bbc1c4"/></linearGradient><path fill="url(#vPz17Lu49Cq1W_VzWCEVpa)" d="M6,40V12h36v28c0,1.1-0.9,2-2,2H8C6.9,42,6,41.1,6,40z"/><linearGradient id="vPz17Lu49Cq1W_VzWCEVpb" x1="6.42" x2="41.198" y1="43.392" y2="36.32" gradientTransform="matrix(1 0 0 -1 0 50)" gradientUnits="userSpaceOnUse"><stop offset="0" stop-color="#0077d2"/><stop offset="1" stop-color="#0b59a2"/></linearGradient><path fill="url(#vPz17Lu49Cq1W_VzWCEVpb)" d="M42,8v6H6V8c0-1.1,0.9-2,2-2h32C41.1,6,42,6.9,42,8z"/><path d="M35.5,12.5L35.5,12.5c-1.657,0-3-1.343-3-3V6h6v3.5	C38.5,11.157,37.157,12.5,35.5,12.5z" opacity=".05"/><path d="M35.5,11.75L35.5,11.75c-1.243,0-2.25-1.007-2.25-2.25V6h4.5v3.5	C37.75,10.743,36.743,11.75,35.5,11.75z" opacity=".07"/><path d="M12.5,12.5L12.5,12.5c-1.657,0-3-1.343-3-3V6h6v3.5	C15.5,11.157,14.157,12.5,12.5,12.5z" opacity=".05"/><path d="M12.5,11.75L12.5,11.75c-1.243,0-2.25-1.007-2.25-2.25V6h4.5v3.5	C14.75,10.743,13.743,11.75,12.5,11.75z" opacity=".07"/><path fill="#3ccbf4" d="M12.5,11L12.5,11c-0.828,0-1.5-0.672-1.5-1.5v-4C11,4.672,11.672,4,12.5,4l0,0	C13.328,4,14,4.672,14,5.5v4C14,10.328,13.328,11,12.5,11z"/><path fill="#3ccbf4" d="M35.5,11L35.5,11c-0.828,0-1.5-0.672-1.5-1.5v-4C34,4.672,34.672,4,35.5,4l0,0	C36.328,4,37,4.672,37,5.5v4C37,10.328,36.328,11,35.5,11z"/><linearGradient id="vPz17Lu49Cq1W_VzWCEVpc" x1="18.491" x2="28.361" y1="18.535" y2="36.197" gradientUnits="userSpaceOnUse"><stop offset="0" stop-color="#0077d2"/><stop offset="1" stop-color="#0b59a2"/></linearGradient><path fill="url(#vPz17Lu49Cq1W_VzWCEVpc)" d="M31.768,31.723l-1.213-0.7l0.795-0.213c0.533-0.143,0.85-0.69,0.707-1.225	c-0.143-0.533-0.691-0.851-1.225-0.707l-2.727,0.73L26,28.393l2.106-1.216l2.726,0.73c0.087,0.023,0.174,0.034,0.26,0.034	c0.441,0,0.846-0.294,0.965-0.741c0.143-0.533-0.174-1.082-0.707-1.225l-0.795-0.213l1.213-0.7c0.479-0.276,0.643-0.888,0.366-1.366	c-0.277-0.479-0.89-0.643-1.366-0.366l-1.213,0.7l0.213-0.795c0.143-0.533-0.174-1.082-0.707-1.225	c-0.532-0.141-1.081,0.173-1.225,0.707l-0.731,2.726L25,26.66v-2.432l1.996-1.996c0.391-0.39,0.391-1.023,0-1.414	s-1.023-0.391-1.414,0L25,21.401V20c0-0.552-0.447-1-1-1s-1,0.448-1,1v1.401l-0.582-0.582c-0.391-0.391-1.023-0.391-1.414,0	s-0.391,1.024,0,1.414L23,24.229v2.432l-2.105-1.216l-0.731-2.726c-0.144-0.534-0.691-0.849-1.225-0.707	c-0.533,0.143-0.85,0.691-0.707,1.225l0.213,0.795l-1.213-0.7c-0.478-0.276-1.09-0.112-1.366,0.366	c-0.276,0.478-0.112,1.09,0.366,1.366l1.213,0.7l-0.795,0.213c-0.533,0.143-0.85,0.691-0.707,1.225	c0.119,0.447,0.523,0.741,0.965,0.741c0.086,0,0.173-0.011,0.26-0.034l2.726-0.73L22,28.393l-2.105,1.215l-2.727-0.73	c-0.532-0.144-1.082,0.174-1.225,0.707c-0.143,0.534,0.174,1.082,0.707,1.225l0.795,0.213l-1.213,0.7	c-0.479,0.276-0.643,0.888-0.366,1.366c0.186,0.321,0.521,0.5,0.867,0.5c0.17,0,0.342-0.043,0.499-0.134l1.213-0.7l-0.213,0.794	c-0.143,0.533,0.174,1.082,0.707,1.225c0.087,0.023,0.174,0.034,0.26,0.034c0.441,0,0.846-0.294,0.965-0.741l0.73-2.726L23,30.125	v2.431l-1.996,1.996c-0.391,0.391-0.391,1.023,0,1.414s1.023,0.391,1.414,0L23,35.384v1.4c0,0.553,0.447,1,1,1s1-0.447,1-1v-1.4	l0.582,0.582c0.195,0.195,0.451,0.293,0.707,0.293s0.512-0.098,0.707-0.293c0.391-0.391,0.391-1.023,0-1.414L25,32.556v-2.431	l2.106,1.216l0.73,2.726c0.119,0.447,0.523,0.741,0.965,0.741c0.086,0,0.173-0.011,0.26-0.034c0.533-0.143,0.85-0.691,0.707-1.225	l-0.213-0.794l1.213,0.7c0.157,0.091,0.329,0.134,0.499,0.134c0.346,0,0.682-0.179,0.867-0.5	C32.41,32.61,32.246,31.999,31.768,31.723z"/></svg>