<svg xmlns="http://www.w3.org/2000/svg" viewBox="0 0 48 48"><linearGradient id="exKkb8Sp_15pXsTjHigv2a" x1="8.771" x2="33.852" y1="9.612" y2="34.694" gradientUnits="userSpaceOnUse"><stop offset="0" stop-color="#889097"/><stop offset=".331" stop-color="#848c94"/><stop offset=".669" stop-color="#78828b"/><stop offset="1" stop-color="#64717c"/></linearGradient><path fill="url(#exKkb8Sp_15pXsTjHigv2a)" d="M29,6.721V5H19v1.721c0,1.907-1.346,3.548-3.216,3.922l-7.606,1.521	c-2.264,0.453-3.675,2.722-3.08,4.953l6.506,24.398C11.838,42.391,12.63,43,13.537,43h20.927c0.906,0,1.699-0.609,1.932-1.485	l6.506-24.398c0.595-2.231-0.817-4.5-3.08-4.953l-7.606-1.521C30.346,10.269,29,8.628,29,6.721z"/><path d="M26.407,19.779c4.41-0.816,8.021-3.792,9.684-7.997c0.045-0.113,0.075-0.228,0.099-0.344	l-3.973-0.795c-1.157,2.611-3.434,4.507-6.209,5.13C25.46,15.279,24.743,15,24,15s-1.46,0.279-2.008,0.773	c-2.775-0.623-5.052-2.52-6.209-5.13l-3.973,0.795c0.023,0.116,0.054,0.232,0.099,0.344c1.663,4.205,5.273,7.181,9.684,7.997	c0.12,0.162,0.256,0.312,0.407,0.447v0.616L18.466,25.1c-0.463,0.557-0.461,1.365,0.005,1.922l4.379,5.226	c0.286,0.341,0.705,0.537,1.15,0.537s0.864-0.195,1.148-0.536l4.383-5.228c0.465-0.557,0.466-1.364,0.003-1.921L26,20.843v-0.616	C26.151,20.091,26.287,19.941,26.407,19.779z" opacity=".05"/><path d="M26.113,19.323c4.337-0.73,7.882-3.602,9.513-7.725c0.034-0.085,0.056-0.172,0.073-0.259	l-2.979-0.596c-1.247,2.909-3.779,4.973-6.873,5.574C25.377,15.801,24.707,15.5,24,15.5s-1.377,0.301-1.847,0.818	c-3.094-0.602-5.626-2.665-6.873-5.574l-2.979,0.596c0.017,0.087,0.04,0.174,0.073,0.259c1.631,4.123,5.176,6.994,9.513,7.725	c0.161,0.258,0.369,0.483,0.613,0.667v1.033l-3.649,4.396c-0.309,0.371-0.308,0.91,0.003,1.281l4.38,5.226	c0.19,0.228,0.47,0.358,0.767,0.358s0.576-0.131,0.766-0.357l4.382-5.227c0.31-0.371,0.311-0.91,0.002-1.281L25.5,21.023V19.99	C25.744,19.807,25.952,19.581,26.113,19.323z" opacity=".07"/><path fill="none" stroke="#edbe00" stroke-linecap="round" stroke-linejoin="round" stroke-miterlimit="10" stroke-width="2" d="M34.232,11.047C32.62,15.119,28.646,18,24,18s-8.62-2.881-10.232-6.953"/><path fill="#edbe00" d="M23.615,20.463l-4.38,5.275c-0.154,0.186-0.154,0.455,0.001,0.641l4.38,5.226	c0.2,0.238,0.567,0.238,0.766,0l4.38-5.226c0.155-0.185,0.156-0.455,0.001-0.641l-4.38-5.275	C24.185,20.222,23.815,20.222,23.615,20.463z"/><polygon fill="#35c1f1" points="20.271,26.057 24,21.564 27.729,26.057 24,30.506"/><line x1="24" x2="24" y1="18" y2="21.226" fill="none" stroke="#edbe00" stroke-miterlimit="10" stroke-width="2"/><circle cx="24" cy="18" r="2" fill="#fad500"/><polygon fill="#0078d4" points="27.712,26.035 24,21.564 24,26.035"/><polygon fill="#0078d4" points="20.271,26.051 23.982,30.522 23.982,26.051"/><polygon fill="#50e6ff" points="22.072,26.046 24,23.723 25.928,26.046 24,28.347"/></svg>