<svg xmlns="http://www.w3.org/2000/svg" viewBox="0 0 48 48"><linearGradient id="ctyk~mKCp7YA2DA9WnLoFa" x1="41.379" x2="41.379" y1="-594.401" y2="-610.059" gradientTransform="matrix(1 0 0 -1 0 -588)" gradientUnits="userSpaceOnUse"><stop offset="0" stop-color="#889097"/><stop offset="1" stop-color="#4c5963"/></linearGradient><path fill="url(#ctyk~mKCp7YA2DA9WnLoFa)" d="M39,10c-1,0,4.004,4.698,4.004,4.698S45,11,43,7C42,7,41,10,39,10z"/><linearGradient id="ctyk~mKCp7YA2DA9WnLoFb" x1="31.621" x2="31.621" y1="-594.401" y2="-610.059" gradientTransform="matrix(1 0 0 -1 0 -588)" gradientUnits="userSpaceOnUse"><stop offset="0" stop-color="#889097"/><stop offset="1" stop-color="#4c5963"/></linearGradient><path fill="url(#ctyk~mKCp7YA2DA9WnLoFb)" d="M34,10c1,0-4.004,4.698-4.004,4.698S28,11,30,7C31,7,32,10,34,10z"/><linearGradient id="ctyk~mKCp7YA2DA9WnLoFc" x1="36.5" x2="36.5" y1="-596.065" y2="-632.635" gradientTransform="matrix(1 0 0 -1 0 -588)" gradientUnits="userSpaceOnUse"><stop offset="0" stop-color="#889097"/><stop offset="1" stop-color="#4c5963"/></linearGradient><ellipse cx="36.5" cy="15.5" fill="url(#ctyk~mKCp7YA2DA9WnLoFc)" rx="7.5" ry="6.5"/><path fill="#f7c13a" d="M32,14l3,1c0,0.49-0.586,1-1.325,1C32.928,16,32,15.5,32,14.373V14z"/><path fill="#f7c13a" d="M41,14l-3,1c0,0.49,0.586,1,1.325,1C40.072,16,41,15.5,41,14.373V14z"/><linearGradient id="ctyk~mKCp7YA2DA9WnLoFd" x1="13.5" x2="13.5" y1="-7.471" y2="70.001" gradientUnits="userSpaceOnUse"><stop offset="0" stop-color="#889097"/><stop offset="1" stop-color="#4c5963"/></linearGradient><path fill="url(#ctyk~mKCp7YA2DA9WnLoFd)" d="M14.5,21C11.091,21,5,17.825,5,11.5c0-3.484,1.907-6.458,5.101-7.954	c3.632-1.7,7.985-1.01,11.359,1.802c0.637,0.53,0.723,1.476,0.192,2.113c-0.531,0.636-1.478,0.723-2.112,0.192	c-2.952-2.46-6.153-2.332-8.167-1.39C9.261,7.252,8,9.21,8,11.5c0,4.501,4.71,6.5,6.5,6.5c0.828,0,1.5,0.671,1.5,1.5	S15.328,21,14.5,21z"/><linearGradient id="ctyk~mKCp7YA2DA9WnLoFe" x1="24" x2="24" y1="-7.471" y2="70.001" gradientUnits="userSpaceOnUse"><stop offset="0" stop-color="#889097"/><stop offset="1" stop-color="#4c5963"/></linearGradient><path fill="url(#ctyk~mKCp7YA2DA9WnLoFe)" d="M36,27.25V43c0,1.1-0.9,2-2,2s-2-0.9-2-2V32.5c0-0.83-0.67-1.5-1.5-1.5S29,31.67,29,32.5V43	c0,1.1-0.9,2-2,2s-2-0.9-2-2v-7c0-1.54-0.26-3.08-1-4.21C23.32,30.71,22.2,30,20.5,30c-1.71,0-2.82,0.71-3.5,2.14	c-0.74,1.5-1,3.79-1,6.86v4c0,1.1-0.9,2-2,2s-2-0.9-2-2V26c0-9,7-15,12-15C30,11,36,15.5,36,27.25z"/><g opacity=".05"><path d="M29.12,11.11c0,0.2,0.02,0.39,0.04,0.58c0.02,0.21,0.05,0.42,0.09,0.61c2.9,1.57,5.29,4.64,6.27,9.64 c0.17,0.02,0.34,0.04,0.52,0.04C36.19,22,36.35,22,36.5,22h0.06C35.48,16.09,32.55,12.68,29.12,11.11z"/></g><g opacity=".07"><path d="M29.16,11.69c0.02,0.21,0.05,0.42,0.09,0.61c2.9,1.57,5.29,4.64,6.27,9.64c0.17,0.02,0.34,0.04,0.52,0.04 C35.01,16.48,32.33,13.25,29.16,11.69z"/></g><linearGradient id="ctyk~mKCp7YA2DA9WnLoFf" x1="20.5" x2="20.5" y1="16.177" y2="43.265" gradientUnits="userSpaceOnUse"><stop offset="0" stop-color="#afb6bc"/><stop offset=".925" stop-color="#9aa0a5"/></linearGradient><path fill="url(#ctyk~mKCp7YA2DA9WnLoFf)" d="M24,22.5v9.29C23.32,30.71,22.2,30,20.5,30c-1.71,0-2.82,0.71-3.5,2.14V22.5	c0-1.93,1.57-3.5,3.5-3.5S24,20.57,24,22.5z"/><linearGradient id="ctyk~mKCp7YA2DA9WnLoFg" x1="20.47" x2="20.47" y1="19.059" y2="22.127" gradientUnits="userSpaceOnUse"><stop offset="0" stop-color="#889097"/><stop offset="1" stop-color="#4c5963"/></linearGradient><path fill="url(#ctyk~mKCp7YA2DA9WnLoFg)" d="M20.845,22.155L20.47,22.53l-0.375-0.375c-0.207-0.207-0.543-0.207-0.75,0	s-0.207,0.543,0,0.75l0.375,0.375l-0.375,0.375c-0.207,0.207-0.207,0.543,0,0.75s0.543,0.207,0.75,0l0.375-0.375l0.375,0.375	c0.207,0.207,0.543,0.207,0.75,0s0.207-0.543,0-0.75L21.22,23.28l0.375-0.375c0.207-0.207,0.207-0.543,0-0.75	S21.052,21.948,20.845,22.155z"/></svg>