<svg xmlns="http://www.w3.org/2000/svg" viewBox="0 0 48 48"><linearGradient id="RzZWS_ATrbRtIxufHJdGMa" x1="-308.751" x2="36.906" y1="464.874" y2="68.433" gradientTransform="matrix(1 0 0 -1 0 118)" gradientUnits="userSpaceOnUse"><stop offset="0" stop-color="#ffda1c"/><stop offset="1" stop-color="#feb705"/></linearGradient><path fill="url(#RzZWS_ATrbRtIxufHJdGMa)" d="M44.634,37.846L25.76,7.787c0,0-0.508-1.05-1.76-1.05s-1.76,1.05-1.76,1.05L3.366,37.846	C3.366,37.846,3,38.337,3,39c0,1.105,0.895,2,2,2h38c1.105,0,2-0.895,2-2C45,38.337,44.634,37.846,44.634,37.846z"/><path d="M24.001,18c0.133,0,0.266,0.057,0.362,0.17C25.796,19.867,31,26.336,31,30.854	C31,34.801,27.867,38,24,38s-7-3.199-7-7.146c0-4.518,5.204-10.987,6.638-12.684C23.735,18.057,23.868,18,24.001,18 M24.001,17.5	c-0.286,0-0.557,0.127-0.744,0.347c-1.585,1.875-6.757,8.355-6.757,13.007c0,4.216,3.365,7.646,7.5,7.646s7.5-3.43,7.5-7.646	c0-4.65-5.171-11.131-6.756-13.007C24.558,17.627,24.287,17.5,24.001,17.5L24.001,17.5z" opacity=".07"/><path d="M24.001,17.5c0.286,0,0.557,0.127,0.744,0.348c1.585,1.876,6.756,8.357,6.756,13.007c0,4.216-3.365,7.646-7.5,7.646 s-7.5-3.43-7.5-7.646c0-4.653,5.171-11.132,6.757-13.007C23.444,17.627,23.715,17.5,24.001,17.5 M24.001,17 c-0.433,0-0.843,0.191-1.125,0.524C21.262,19.432,16,26.032,16,30.854C16,35.346,19.589,39,24,39s8-3.654,8-8.146 c0-4.819-5.261-11.421-6.874-13.33C24.844,17.191,24.434,17,24.001,17L24.001,17z" opacity=".05"/><linearGradient id="RzZWS_ATrbRtIxufHJdGMb" x1="22.707" x2="26.242" y1="37.979" y2="18.572" gradientUnits="userSpaceOnUse"><stop offset="0" stop-color="#f44f5a"/><stop offset=".443" stop-color="#ee3d4a"/><stop offset="1" stop-color="#e52030"/></linearGradient><path fill="url(#RzZWS_ATrbRtIxufHJdGMb)" d="M31,30.85c0,2.18-0.96,4.14-2.47,5.44c-0.4,0.36-0.84,0.67-1.32,0.91 c-0.83,0.44-1.75,0.72-2.74,0.77C24.32,37.99,24.16,38,24,38s-0.31-0.01-0.46-0.03c-0.99-0.05-1.92-0.32-2.75-0.77 c-0.48-0.24-0.92-0.55-1.32-0.91c-1.51-1.3-2.47-3.26-2.47-5.44c0-4.51,5.2-10.98,6.64-12.68c0.19-0.23,0.53-0.23,0.72,0 C25.8,19.87,31,26.34,31,30.85z"/><path fill="#fff" d="M28.2,33.71c0,2.21-1.63,4.03-3.73,4.26C24.32,37.99,24.16,38,24,38s-0.31-0.01-0.46-0.03 c-2.1-0.23-3.74-2.05-3.74-4.26c0-2.71,3.12-6.59,3.98-7.61C23.84,26.04,23.92,26,24,26s0.16,0.04,0.22,0.1 C25.08,27.12,28.2,31,28.2,33.71z"/><path d="M24.6,25.78c-0.15-0.18-0.37-0.28-0.6-0.28s-0.45,0.1-0.6,0.28c-0.96,1.14-4.1,5.07-4.1,7.93	c0,1.37,0.57,2.62,1.49,3.49c0.83,0.45,1.76,0.72,2.75,0.77c-2.1-0.23-3.74-2.05-3.74-4.26c0-2.71,3.12-6.59,3.98-7.61	C23.84,26.03,23.92,26,24,26s0.16,0.03,0.22,0.1c0.86,1.02,3.98,4.9,3.98,7.61c0,2.21-1.63,4.03-3.73,4.26	c0.99-0.05,1.91-0.33,2.74-0.77c0.92-0.87,1.49-2.12,1.49-3.49C28.7,30.86,25.56,26.92,24.6,25.78z" opacity=".07"/><g opacity=".05"><path d="M24.98,25.46C24.74,25.17,24.38,25,24,25s-0.74,0.17-0.98,0.46c-0.99,1.17-4.22,5.22-4.22,8.25c0,0.94,0.24,1.82,0.67,2.58 c0.4,0.36,0.84,0.67,1.32,0.91c-0.92-0.87-1.49-2.12-1.49-3.49c0-2.86,3.14-6.79,4.1-7.93c0.15-0.18,0.37-0.28,0.6-0.28 s0.45,0.1,0.6,0.28c0.96,1.14,4.1,5.08,4.1,7.93c0,1.37-0.57,2.62-1.49,3.49c0.48-0.24,0.92-0.55,1.32-0.91 c0.43-0.76,0.67-1.64,0.67-2.58C29.2,30.69,25.97,26.63,24.98,25.46z"/></g></svg>