<svg xmlns="http://www.w3.org/2000/svg" viewBox="0 0 48 48"><path fill="#50e6ff" d="M39,16v25c0,1.105-0.895,2-2,2H11c-1.105,0-2-0.895-2-2V7c0-1.105,0.895-2,2-2h17L39,16z"/><linearGradient id="FNZ682UYKVi6ZSgRGL6M_a" x1="28.529" x2="33.6" y1="374.529" y2="379.6" gradientTransform="matrix(1 0 0 -1 0 390)" gradientUnits="userSpaceOnUse"><stop offset="0" stop-color="#3079d6"/><stop offset="1" stop-color="#297cd2"/></linearGradient><path fill="url(#FNZ682UYKVi6ZSgRGL6M_a)" d="M28,5v9c0,1.105,0.895,2,2,2h9L28,5z"/><polygon fill="#0d62ab" points="27,31.414 21,25.414 15.707,30.707 14.293,29.293 21,22.586 27,28.586 32.293,23.293 33.707,24.707"/><circle cx="33" cy="24" r="2" fill="#199be2"/><circle cx="27" cy="30" r="2" fill="#199be2"/><circle cx="21" cy="24" r="2" fill="#199be2"/><circle cx="15" cy="30" r="2" fill="#199be2"/><radialGradient id="FNZ682UYKVi6ZSgRGL6M_b" cx="38.003" cy="38.011" r="11.764" gradientUnits="userSpaceOnUse"><stop offset=".348"/><stop offset=".936" stop-opacity=".098"/><stop offset="1" stop-opacity="0"/></radialGradient><path fill="url(#FNZ682UYKVi6ZSgRGL6M_b)" d="M38,26c-6.627,0-12,5.373-12,12c0,1.787,0.401,3.476,1.102,5H37	c1.105,0,2-0.895,2-2V26.05C38.669,26.023,38.338,26,38,26z" opacity=".3"/><linearGradient id="FNZ682UYKVi6ZSgRGL6M_c" x1="30.929" x2="45.071" y1="30.929" y2="45.071" gradientUnits="userSpaceOnUse"><stop offset="0" stop-color="#f44f5a"/><stop offset=".443" stop-color="#ee3d4a"/><stop offset="1" stop-color="#e52030"/></linearGradient><path fill="url(#FNZ682UYKVi6ZSgRGL6M_c)" d="M48,38c0,5.522-4.478,10-10,10s-10-4.478-10-10s4.478-10,10-10S48,32.478,48,38z"/><path fill="#fff" d="M41.536,33.757l0.707,0.707c0.195,0.195,0.195,0.512,0,0.707l-7.071,7.071	c-0.195,0.195-0.512,0.195-0.707,0l-0.707-0.707c-0.195-0.195-0.195-0.512,0-0.707l7.071-7.071	C41.024,33.562,41.34,33.562,41.536,33.757z"/><path fill="#fff" d="M42.243,41.536l-0.707,0.707c-0.195,0.195-0.512,0.195-0.707,0l-7.071-7.071	c-0.195-0.195-0.195-0.512,0-0.707l0.707-0.707c0.195-0.195,0.512-0.195,0.707,0l7.071,7.071	C42.438,41.024,42.438,41.34,42.243,41.536z"/></svg>