<svg xmlns="http://www.w3.org/2000/svg" data-name="Слой 1" viewBox="0 0 48 48"><defs><linearGradient id="8Q6oDTdLTVxebViGPdMcka" x1="11.839" x2="33.041" y1="3.901" y2="62.152" data-name="Безымянный градиент 101" gradientUnits="userSpaceOnUse"><stop offset="0" stop-color="#21ad64"/><stop offset="1" stop-color="#088242"/></linearGradient><linearGradient id="8Q6oDTdLTVxebViGPdMckb" x1="18.164" x2="30.544" y1="8.337" y2="56.353" gradientUnits="userSpaceOnUse"><stop offset="0" stop-color="#a34f27"/><stop offset=".587" stop-color="#8b3817"/><stop offset="1" stop-color="#802d10"/></linearGradient></defs><path fill="url(#8Q6oDTdLTVxebViGPdMcka)" d="M45,42H3C3,30.15,6.08,22.56,9.79,17.79a22.476,22.476,0,0,1,2.06-2.31c2.73-2.72,4.91-4.17,7.3-4.89A17.10617,17.10617,0,0,1,24,10h.09c4.72.01,7.68,1.11,12.06,5.48a22.476,22.476,0,0,1,2.06,2.31C41.92,22.56,45,30.15,45,42Z"/><path fill="#33c481" d="M38.21,17.79l-.79581.79581a2,2,0,0,1-2.82842,0l-1.17158-1.17158a2,2,0,0,0-2.82842,0l-1.17158,1.17158a2,2,0,0,1-2.82842,0l-1.17158-1.17158a2,2,0,0,0-2.82842,0l-1.17158,1.17158a2,2,0,0,1-2.82842,0l-1.17158-1.17158a2,2,0,0,0-2.82842,0l-1.17158,1.17158a2,2,0,0,1-2.82842,0L9.79,17.79a22.476,22.476,0,0,1,2.06-2.31C16.26,11.08,19.23,10,24,10s7.74,1.08,12.15,5.48A22.476,22.476,0,0,1,38.21,17.79Z"/><path fill="url(#8Q6oDTdLTVxebViGPdMckb)" d="M38.98,42H17.95C15.93,40.72,13,38.22,13,34.5c0-6.37,11-10.13076,11-15.50075,0-3.27-2.38-6.36925-4.85-8.40928A17.10617,17.10617,0,0,1,24,10h.09C26.41,11.61,31,15.16,31,19c0,7.16-4.97,10.31-2,15C31.57,38.05,36.02,40.7,38.98,42Z"/></svg>