<svg xmlns="http://www.w3.org/2000/svg" viewBox="0 0 48 48"><linearGradient id="37HP6ehUctc9lKD4~s9QEa" x1="24" x2="24" y1="19.503" y2="11.882" gradientUnits="userSpaceOnUse"><stop offset="0" stop-color="#c26715"/><stop offset=".508" stop-color="#b85515"/><stop offset="1" stop-color="#ad3f16"/></linearGradient><path fill="url(#37HP6ehUctc9lKD4~s9QEa)" d="M45.447,20H2.553c-0.727,0-1.211-0.752-0.91-1.414l3.824-8.414C5.792,9.458,6.504,9,7.288,9	h33.424c0.784,0,1.496,0.458,1.821,1.172l3.824,8.414C46.658,19.248,46.174,20,45.447,20z"/><linearGradient id="37HP6ehUctc9lKD4~s9QEb" x1="15.322" x2="31.427" y1="249.208" y2="210.778" gradientTransform="matrix(1 0 0 -1 0 254)" gradientUnits="userSpaceOnUse"><stop offset="0" stop-color="#eba84b"/><stop offset="1" stop-color="#d97218"/></linearGradient><path fill="url(#37HP6ehUctc9lKD4~s9QEb)" d="M41,42H7c-0.55,0-1-0.45-1-1V10c0-0.552,0.448-1,1-1h34c0.552,0,1,0.448,1,1v31	C42,41.55,41.55,42,41,42z"/><path fill="#633412" d="M20,13h8c0.552,0,1,0.448,1,1l0,0c0,0.552-0.448,1-1,1h-8c-0.552,0-1-0.448-1-1l0,0	C19,13.448,19.448,13,20,13z"/><radialGradient id="37HP6ehUctc9lKD4~s9QEc" cx="38.255" cy="38.298" r="12.362" gradientUnits="userSpaceOnUse"><stop offset="0"/><stop offset="1" stop-opacity="0"/></radialGradient><path fill="url(#37HP6ehUctc9lKD4~s9QEc)" d="M38,26c-6.617,0-12,5.383-12,12c0,1.404,0.255,2.747,0.7,4H40c1.1,0,2-0.9,2-2V26.7	C40.747,26.255,39.404,26,38,26z"/><linearGradient id="37HP6ehUctc9lKD4~s9QEd" x1="28" x2="48" y1="216" y2="216" gradientTransform="matrix(1 0 0 -1 0 254)" gradientUnits="userSpaceOnUse"><stop offset="0" stop-color="#21ad64"/><stop offset="1" stop-color="#088242"/></linearGradient><circle cx="38" cy="38" r="10" fill="url(#37HP6ehUctc9lKD4~s9QEd)"/><path fill="#fff" d="M38.5,43h-1c-0.276,0-0.5-0.224-0.5-0.5v-9c0-0.276,0.224-0.5,0.5-0.5h1c0.276,0,0.5,0.224,0.5,0.5v9	C39,42.776,38.776,43,38.5,43z"/><path fill="#fff" d="M33,38.5v-1c0-0.276,0.224-0.5,0.5-0.5h9c0.276,0,0.5,0.224,0.5,0.5v1c0,0.276-0.224,0.5-0.5,0.5h-9	C33.224,39,33,38.776,33,38.5z"/></svg>