<svg xmlns="http://www.w3.org/2000/svg" viewBox="0 0 48 48"><linearGradient id="a_q4UFJxRjfV5~8Tje4Vha" x1="-97.035" x2="-97.035" y1="-116.214" y2="-111.804" gradientTransform="matrix(0 -1 -1 0 -86 -86)" gradientUnits="userSpaceOnUse"><stop offset=".365" stop-color="#199ae0"/><stop offset=".699" stop-color="#1898de"/><stop offset=".819" stop-color="#1691d8"/><stop offset=".905" stop-color="#1186cc"/><stop offset=".974" stop-color="#0a75bc"/><stop offset="1" stop-color="#076cb3"/></linearGradient><path fill="url(#a_q4UFJxRjfV5~8Tje4Vha)" d="M25,14.071V8h4.864c0.445,0,0.669,0.539,0.354,0.854L25,14.071z"/><linearGradient id="a_q4UFJxRjfV5~8Tje4Vhb" x1="-94.325" x2="-90.846" y1="-97.919" y2="-121.834" gradientTransform="matrix(0 -1 -1 0 -86 -86)" gradientUnits="userSpaceOnUse"><stop offset="0" stop-color="#32bdef"/><stop offset="1" stop-color="#1ea2e4"/></linearGradient><path fill="url(#a_q4UFJxRjfV5~8Tje4Vhb)" d="M26,11h-4V3c0-0.552,0.448-1,1-1h2c0.552,0,1,0.448,1,1V11z"/><linearGradient id="a_q4UFJxRjfV5~8Tje4Vhc" x1="-99.656" x2="-93.447" y1="-91.086" y2="-133.776" gradientTransform="matrix(0 -1 -1 0 -86 -86)" gradientUnits="userSpaceOnUse"><stop offset="0" stop-color="#32bdef"/><stop offset="1" stop-color="#1ea2e4"/></linearGradient><path fill="url(#a_q4UFJxRjfV5~8Tje4Vhc)" d="M25.707,13.364l-1,1c-0.391,0.391-1.024,0.391-1.414,0l-5.51-5.51	C17.468,8.539,17.691,8,18.136,8H26v4.657C26,12.922,25.895,13.176,25.707,13.364z"/><linearGradient id="a_q4UFJxRjfV5~8Tje4Vhd" x1="-551.035" x2="-551.035" y1="-116.214" y2="-111.804" gradientTransform="rotate(90 -337 251)" gradientUnits="userSpaceOnUse"><stop offset=".365" stop-color="#199ae0"/><stop offset=".699" stop-color="#1898de"/><stop offset=".819" stop-color="#1691d8"/><stop offset=".905" stop-color="#1186cc"/><stop offset=".974" stop-color="#0a75bc"/><stop offset="1" stop-color="#076cb3"/></linearGradient><path fill="url(#a_q4UFJxRjfV5~8Tje4Vhd)" d="M25,33.929V40h4.864c0.445,0,0.669-0.539,0.354-0.854L25,33.929z"/><linearGradient id="a_q4UFJxRjfV5~8Tje4Vhe" x1="-548.325" x2="-544.846" y1="-97.919" y2="-121.834" gradientTransform="rotate(90 -337 251)" gradientUnits="userSpaceOnUse"><stop offset="0" stop-color="#32bdef"/><stop offset="1" stop-color="#1ea2e4"/></linearGradient><path fill="url(#a_q4UFJxRjfV5~8Tje4Vhe)" d="M26,37h-4v8c0,0.552,0.448,1,1,1h2c0.552,0,1-0.448,1-1V37z"/><linearGradient id="a_q4UFJxRjfV5~8Tje4Vhf" x1="-553.656" x2="-547.446" y1="-91.086" y2="-133.776" gradientTransform="rotate(90 -337 251)" gradientUnits="userSpaceOnUse"><stop offset="0" stop-color="#32bdef"/><stop offset="1" stop-color="#1ea2e4"/></linearGradient><path fill="url(#a_q4UFJxRjfV5~8Tje4Vhf)" d="M25.707,34.636l-1-1c-0.391-0.391-1.024-0.391-1.414,0l-5.51,5.51	C17.468,39.461,17.691,40,18.136,40H26v-4.657C26,35.078,25.895,34.824,25.707,34.636z"/><path fill="#727d86" d="M45,25v-2c0-0.55-0.45-1-1-1H4c-0.55,0-1,0.45-1,1v2c0,0.55,0.45,1,1,1h40C44.55,26,45,25.55,45,25z"/><path fill="#727d86" d="M45,32v-2c0-0.55-0.45-1-1-1H4c-0.55,0-1,0.45-1,1v2c0,0.55,0.45,1,1,1h40C44.55,33,45,32.55,45,32z"/><path fill="#727d86" d="M45,16v2c0,0.55-0.45,1-1,1H4c-0.55,0-1-0.45-1-1v-2c0-0.55,0.45-1,1-1h40C44.55,15,45,15.45,45,16z"/></svg>