<svg xmlns="http://www.w3.org/2000/svg" viewBox="0 0 48 48"><linearGradient id="qENZI_pyIMlqqMz3zG8YUa" x1="6.435" x2="23.682" y1="41.565" y2="24.318" gradientUnits="userSpaceOnUse"><stop offset=".503" stop-color="#a1aab3"/><stop offset=".658" stop-color="#9ea7af"/><stop offset=".796" stop-color="#949da5"/><stop offset=".928" stop-color="#848c92"/><stop offset="1" stop-color="#787f85"/></linearGradient><path fill="url(#qENZI_pyIMlqqMz3zG8YUa)" d="M28.5,26.579L21.421,19.5L10.917,30.004C7.089,30.049,4,33.162,4,37c0,3.866,3.134,7,7,7	c3.838,0,6.951-3.09,6.996-6.917L28.5,26.579z"/><linearGradient id="qENZI_pyIMlqqMz3zG8YUb" x1="22.841" x2="39.548" y1="8.002" y2="24.709" gradientUnits="userSpaceOnUse"><stop offset="0" stop-color="#a1aab3"/><stop offset="1" stop-color="#8f979e"/></linearGradient><path fill="url(#qENZI_pyIMlqqMz3zG8YUb)" d="M37.9,17.118c-1.938,1.938-5.08,1.938-7.018,0c-1.938-1.938-1.938-5.08,0-7.018	c0.473-0.473,2.379-2.379,4.32-4.32c0.466-0.466,0.259-1.279-0.38-1.436c-1.574-0.387-3.267-0.468-5.028-0.136	c-5.165,0.974-9.193,5.296-9.729,10.525c-0.782,7.624,5.581,13.986,13.205,13.202c5.228-0.537,9.55-4.565,10.522-9.73	c0.332-1.761,0.25-3.453-0.137-5.026c-0.157-0.639-0.97-0.846-1.436-0.38C40.279,14.739,38.373,16.645,37.9,17.118z"/><linearGradient id="qENZI_pyIMlqqMz3zG8YUc" x1="13.789" x2="8.182" y1="39.789" y2="34.182" gradientUnits="userSpaceOnUse"><stop offset="0" stop-color="#fff"/><stop offset=".242" stop-color="#f2f2f2"/><stop offset="1" stop-color="#ccc"/></linearGradient><circle cx="11" cy="37" r="4" fill="url(#qENZI_pyIMlqqMz3zG8YUc)"/><linearGradient id="qENZI_pyIMlqqMz3zG8YUd" x1="9.129" x2="12.411" y1="35.129" y2="38.411" gradientUnits="userSpaceOnUse"><stop offset="0" stop-color="#0d61a9"/><stop offset=".363" stop-color="#0e5fa4"/><stop offset=".78" stop-color="#135796"/><stop offset="1" stop-color="#16528c"/></linearGradient><circle cx="11" cy="37" r="2" fill="url(#qENZI_pyIMlqqMz3zG8YUd)"/></svg>