<svg xmlns="http://www.w3.org/2000/svg" viewBox="0 0 48 48"><radialGradient id="NZfPLV9E4UwV8rqhq0sHJa" cx="23.754" cy="-1259.295" r="13.71" gradientTransform="matrix(1 0 0 -1 0 -1237.89)" gradientUnits="userSpaceOnUse"><stop offset=".376" stop-color="#261103"/><stop offset=".68" stop-color="#431d06"/><stop offset="1" stop-color="#662c09"/></radialGradient><path fill="url(#NZfPLV9E4UwV8rqhq0sHJa)" d="M24,9C13.704,9,11.15,25.625,11.15,25.625c0,2.96,1.375,5.553,4.253,6.24 C17.869,32.454,20.972,33,24,33s6.131-0.546,8.596-1.134c2.879-0.687,4.253-3.281,4.253-6.24C36.85,25.625,34.296,9,24,9z"/><linearGradient id="NZfPLV9E4UwV8rqhq0sHJb" x1="20.766" x2="25.05" y1="-1267.898" y2="-1282.636" gradientTransform="matrix(1 0 0 -1 0 -1237.89)" gradientUnits="userSpaceOnUse"><stop offset="0" stop-color="#33bef0"/><stop offset="1" stop-color="#0a85d9"/></linearGradient><path fill="url(#NZfPLV9E4UwV8rqhq0sHJb)" d="M24,30.571c-8.837,0-16,4.921-16,10.286V42c0,1.105,0.895,2,2,2h28c1.105,0,2-0.895,2-2 v-1.143C40,35.492,32.837,30.571,24,30.571z"/><path fill="#d6a121" d="M29,32c0,1.897-2,4-5,4s-5-2.103-5-4c0-2.637,0-7.035,0-7.035h10C29,24.965,29,29.363,29,32z"/><radialGradient id="NZfPLV9E4UwV8rqhq0sHJc" cx="-1318.929" cy="-1285.816" r="10.729" gradientTransform="matrix(-.9136 0 0 -.9667 -1180.955 -1222.963)" gradientUnits="userSpaceOnUse"><stop offset="0" stop-color="#ffcf54"/><stop offset=".261" stop-color="#fdcb4d"/><stop offset=".639" stop-color="#f7c13a"/><stop offset="1" stop-color="#f0b421"/></radialGradient><path fill="url(#NZfPLV9E4UwV8rqhq0sHJc)" d="M24,8.071c3.948,0,8,0.693,8,9.722c0,0.723,0,5.736,0,6.508C32,27.526,27.101,32,24,32 s-8-4.474-8-7.698c0-0.772,0-5.785,0-6.508C16,9,20.052,8.071,24,8.071z"/><radialGradient id="NZfPLV9E4UwV8rqhq0sHJd" cx="16.884" cy="-1243.364" r="32.342" gradientTransform="matrix(1 0 0 -1 0 -1237.89)" gradientUnits="userSpaceOnUse"><stop offset="0" stop-color="#c26715"/><stop offset=".508" stop-color="#b85515"/><stop offset="1" stop-color="#ad3f16"/></radialGradient><path fill="url(#NZfPLV9E4UwV8rqhq0sHJd)" d="M24,5c-5.188,0-6,3-6,3c-2.109,0.311-7,1-7,17.478c0,3.801,1.903,5.197,2.6,5.603 C11,16.717,20.576,19.036,19,10c4.046,11.813,16.293,0.054,15.871,20.734C36.077,29.817,37,27.977,37,25.478 C37,11.672,31.399,5,24,5z"/><path d="M27.724,44h7.671l4.447-4.448c-0.412-1.906-1.693-3.705-3.606-5.186 L28.1,42.503L27.724,44z" opacity=".05"/><path d="M36.619,34.691l-7.924,7.925l-0.2,0.367l0,0h-0.001L28.239,44h6.449 l4.987-4.988C39.223,37.439,38.154,35.954,36.619,34.691z" opacity=".07"/><path fill="#c94f60" d="M47.781,29.141l-1.922-1.921c-0.292-0.293-0.768-0.293-1.061,0l-0.904,0.905l2.981,2.981 l0.905-0.904C48.073,29.908,48.073,29.434,47.781,29.141"/><path fill="#f0f0f0" d="M29.003,43.016L28,47l3.985-1.003l0.418-3.456L29.003,43.016z"/><path fill="#edbe00" d="M44.333,33.648L31.985,45.996l-2.981-2.981l12.348-12.348L44.333,33.648z"/><linearGradient id="NZfPLV9E4UwV8rqhq0sHJe" x1="44.112" x2="44.112" y1="-1266.202" y2="-1271.691" gradientTransform="matrix(1 0 0 -1 0 -1237.89)" gradientUnits="userSpaceOnUse"><stop offset="0" stop-color="#dedede"/><stop offset="1" stop-color="#d6d6d6"/></linearGradient><path fill="url(#NZfPLV9E4UwV8rqhq0sHJe)" d="M41.349,30.667l2.543-2.544l2.983,2.981l-2.543,2.544L41.349,30.667z"/><path fill="#787878" d="M28.508,44.985L28,47l2.014-0.508L28.508,44.985z"/></svg>