<svg xmlns="http://www.w3.org/2000/svg" viewBox="0 0 48 48"><path fill="#50e6ff" d="M39,16v25c0,1.105-0.895,2-2,2H11c-1.105,0-2-0.895-2-2V7c0-1.105,0.895-2,2-2h17L39,16z"/><linearGradient id="eLnvhSz1J~ePx_rNz1U3ea" x1="28.529" x2="33.6" y1="238.529" y2="243.6" gradientTransform="matrix(1 0 0 -1 0 254)" gradientUnits="userSpaceOnUse"><stop offset="0" stop-color="#3079d6"/><stop offset="1" stop-color="#297cd2"/></linearGradient><path fill="url(#eLnvhSz1J~ePx_rNz1U3ea)" d="M28,5v9c0,1.105,0.895,2,2,2h9L28,5z"/><path fill="#057093" d="M32.5,21h-17c-0.276,0-0.5-0.224-0.5-0.5v-1c0-0.276,0.224-0.5,0.5-0.5h17c0.276,0,0.5,0.224,0.5,0.5	v1C33,20.776,32.776,21,32.5,21z"/><path fill="#057093" d="M30.5,25h-15c-0.276,0-0.5-0.224-0.5-0.5v-1c0-0.276,0.224-0.5,0.5-0.5h15c0.276,0,0.5,0.224,0.5,0.5	v1C31,24.776,30.776,25,30.5,25z"/><path fill="#057093" d="M32.5,29h-17c-0.276,0-0.5-0.224-0.5-0.5v-1c0-0.276,0.224-0.5,0.5-0.5h17c0.276,0,0.5,0.224,0.5,0.5	v1C33,28.776,32.776,29,32.5,29z"/><path fill="#057093" d="M30.5,33h-15c-0.276,0-0.5-0.224-0.5-0.5v-1c0-0.276,0.224-0.5,0.5-0.5h15c0.276,0,0.5,0.224,0.5,0.5	v1C31,32.776,30.776,33,30.5,33z"/><linearGradient id="eLnvhSz1J~ePx_rNz1U3eb" x1="33" x2="48" y1="209.5" y2="209.5" gradientTransform="matrix(1 0 0 -1 0 254)" gradientUnits="userSpaceOnUse"><stop offset="0" stop-color="#11408a"/><stop offset="1" stop-color="#103f8f"/></linearGradient><path fill="url(#eLnvhSz1J~ePx_rNz1U3eb)" d="M48,41H33c0,0,0,4.328,0,4.5c0,1.381,3.358,2.5,7.5,2.5s7.5-1.119,7.5-2.5	C48,45.328,48,41,48,41z"/><linearGradient id="eLnvhSz1J~ePx_rNz1U3ec" x1="33" x2="48" y1="214.25" y2="214.25" gradientTransform="matrix(1 0 0 -1 0 254)" gradientUnits="userSpaceOnUse"><stop offset="0" stop-color="#1d59b3"/><stop offset="1" stop-color="#195bbc"/></linearGradient><path fill="url(#eLnvhSz1J~ePx_rNz1U3ec)" d="M48,36H33c0,0,0,4.828,0,5c0,1.381,3.358,2.5,7.5,2.5S48,42.381,48,41C48,40.828,48,36,48,36z"/><linearGradient id="eLnvhSz1J~ePx_rNz1U3ed" x1="33" x2="48" y1="219.125" y2="219.125" gradientTransform="matrix(1 0 0 -1 0 254)" gradientUnits="userSpaceOnUse"><stop offset="0" stop-color="#3079d6"/><stop offset="1" stop-color="#297cd2"/></linearGradient><path fill="url(#eLnvhSz1J~ePx_rNz1U3ed)" d="M48,31.25H33c0,0,0,4.578,0,4.75c0,1.381,3.358,2.5,7.5,2.5S48,37.381,48,36	C48,35.828,48,31.25,48,31.25z"/><linearGradient id="eLnvhSz1J~ePx_rNz1U3ee" x1="33" x2="48" y1="222.75" y2="222.75" gradientTransform="matrix(1 0 0 -1 0 254)" gradientUnits="userSpaceOnUse"><stop offset="0" stop-color="#42a3f2"/><stop offset="1" stop-color="#42a4eb"/></linearGradient><ellipse cx="40.5" cy="31.25" fill="url(#eLnvhSz1J~ePx_rNz1U3ee)" rx="7.5" ry="2.25"/></svg>