<svg xmlns="http://www.w3.org/2000/svg" xmlns:xlink="http://www.w3.org/1999/xlink" data-name="Слой 1" viewBox="0 0 48 48"><defs><linearGradient id="Z25HGdYbf4uPf3CvoAbOnc" x1="23.5" x2="23.5" y1="-.533" y2="46.294" data-name="Безымянный градиент 8" gradientUnits="userSpaceOnUse"><stop offset="0" stop-color="#dfe9f2"/><stop offset=".391" stop-color="#d6e0e9"/><stop offset="1" stop-color="#bfc8d1"/></linearGradient><linearGradient id="Z25HGdYbf4uPf3CvoAbOna" x1="14.641" x2="27.476" y1="7.198" y2="42.462" data-name="Безымянный градиент 16" gradientUnits="userSpaceOnUse"><stop offset="0" stop-color="#42a3f2"/><stop offset="1" stop-color="#42a4eb"/></linearGradient><linearGradient id="Z25HGdYbf4uPf3CvoAbOnb" x1="15" x2="33" y1="33" y2="33" data-name="Безымянный градиент 12" gradientUnits="userSpaceOnUse"><stop offset="0" stop-color="#3079d6"/><stop offset="1" stop-color="#297cd2"/></linearGradient><linearGradient id="Z25HGdYbf4uPf3CvoAbOnd" x1="33.291" x2="47.156" y1="-.516" y2="37.578" xlink:href="#Z25HGdYbf4uPf3CvoAbOna"/><linearGradient id="Z25HGdYbf4uPf3CvoAbOne" x1=".992" x2="15.29" y1="9.241" y2="48.525" xlink:href="#Z25HGdYbf4uPf3CvoAbOna"/><linearGradient id="Z25HGdYbf4uPf3CvoAbOnf" x1="24" x2="24" y1="29.368" y2="9.338" xlink:href="#Z25HGdYbf4uPf3CvoAbOnb"/></defs><path fill="url(#Z25HGdYbf4uPf3CvoAbOnc)" d="M44.16608,26.93286A2.994,2.994,0,0,1,42,32L5.62628,35.93231a2.99276,2.99276,0,0,1-1.42407-5.8114A3.4307,3.4307,0,0,1,3.37,25.96271,2.95792,2.95792,0,0,1,3,26a2.9939,2.9939,0,0,1-.45117-5.95453A2.47618,2.47618,0,0,1,4.1933,16.03088,2.97571,2.97571,0,0,1,7,12c.01746,0,.03351.00482.0509.00513A3.41253,3.41253,0,0,1,11.00513,8.0509C11.00482,8.03351,11,8.01746,11,8a3,3,0,0,1,3-3,2.9687,2.9687,0,0,1,1.31195.31409,2.48545,2.48545,0,0,1,4.64813.78991,3.48106,3.48106,0,0,1,5.4.38807,2.96471,2.96471,0,0,1,2.75549-.27247A2.98449,2.98449,0,0,1,33.806,5.9668,2.99127,2.99127,0,0,1,38.7804,9.11554,2.992,2.992,0,0,1,41,12c0,.01752-.00488.03375-.00519.05121a2.49537,2.49537,0,0,1,1.81439,4.56994,2.93731,2.93731,0,0,1,.9975,3.40979,3.48815,3.48815,0,0,1,.35938,6.90192ZM27,2.5A1.5,1.5,0,1,0,25.5,4,1.5,1.5,0,0,0,27,2.5ZM10,5A2,2,0,1,0,8,7,2,2,0,0,0,10,5ZM5,8A1,1,0,1,0,4,9,1,1,0,0,0,5,8ZM43,8a1,1,0,1,0-1,1A1,1,0,0,0,43,8Z"/><path fill="#565b5e" d="M13,42V35H6v7a1.00036,1.00036,0,0,0,1,1h5A1.00036,1.00036,0,0,0,13,42Z"/><path fill="#565b5e" d="M42,42V35H35v7a1.00036,1.00036,0,0,0,1,1h5A1.00036,1.00036,0,0,0,42,42Z"/><path fill="url(#Z25HGdYbf4uPf3CvoAbOna)" d="M39,24l-2.59806-9.52623A2,2,0,0,0,34.47241,13H13.52759a2,2,0,0,0-1.92953,1.47377L9,24,6.6,27.2A3,3,0,0,0,6,29v8a2,2,0,0,0,2,2H40a2,2,0,0,0,2-2V29a3,3,0,0,0-.6-1.8Z"/><circle cx="10.5" cy="31.5" r="2.5" fill="#fff"/><circle cx="37.5" cy="31.5" r="2.5" fill="#fff"/><path fill="url(#Z25HGdYbf4uPf3CvoAbOnb)" d="M15,31l1.497,2.9944A2.04957,2.04957,0,0,0,18.354,35H29.646a2.04957,2.04957,0,0,0,1.857-1.0056L33,31Z"/><path fill="url(#Z25HGdYbf4uPf3CvoAbOnd)" d="M43,25H39V23a1.99945,1.99945,0,0,1,2-2h3a1.00036,1.00036,0,0,1,1,1v1A1.99945,1.99945,0,0,1,43,25Z"/><path fill="url(#Z25HGdYbf4uPf3CvoAbOne)" d="M5,25H9V23a1.99945,1.99945,0,0,0-2-2H4a1.00036,1.00036,0,0,0-1,1v1A1.99945,1.99945,0,0,0,5,25Z"/><path fill="url(#Z25HGdYbf4uPf3CvoAbOnf)" d="M36.75,25l-2.183-8.485A1.99718,1.99718,0,0,0,32.627,15H15.373a1.99718,1.99718,0,0,0-1.94,1.515L11.25,25Z"/><circle cx="23" cy="14" r="2" fill="#fff"/><circle cx="27.5" cy="10.5" r="1.5" fill="#fff"/><circle cx="9" cy="22" r="2" fill="#fff"/><circle cx="16" cy="10" r="1" fill="#fff"/><circle cx="41" cy="21" r="1" fill="#fff"/></svg>