<svg xmlns="http://www.w3.org/2000/svg" viewBox="0 0 48 48"><linearGradient id="sxf49pB3p48aIn_QG0n8Wa" x1="10" x2="46" y1="27" y2="27" gradientUnits="userSpaceOnUse"><stop offset="0" stop-color="#c26715"/><stop offset=".508" stop-color="#b85515"/><stop offset="1" stop-color="#ad3f16"/></linearGradient><path fill="url(#sxf49pB3p48aIn_QG0n8Wa)" d="M44,41H12c-1.105,0-2-0.895-2-2V15c0-1.105,0.895-2,2-2h32c1.105,0,2,0.895,2,2v24 C46,40.105,45.105,41,44,41z"/><linearGradient id="sxf49pB3p48aIn_QG0n8Wb" x1="2" x2="38" y1="20" y2="20" gradientUnits="userSpaceOnUse"><stop offset="0" stop-color="#ffd869"/><stop offset="1" stop-color="#f5aa00"/></linearGradient><path fill="url(#sxf49pB3p48aIn_QG0n8Wb)" d="M36,34H4c-1.105,0-2-0.895-2-2V8c0-1.105,0.895-2,2-2h32c1.105,0,2,0.895,2,2v24 C38,33.105,37.105,34,36,34z"/><path fill="#d6742d" d="M34,25l-6.427-6.427c-0.69-0.69-1.805-0.705-2.513-0.034l-5.394,5.11V30H33c0.552,0,1-0.448,1-1V25z"/><circle cx="30.5" cy="13.5" r="2" fill="#fff"/><linearGradient id="sxf49pB3p48aIn_QG0n8Wc" x1="15.778" x2="15.778" y1="-713.97" y2="-728.244" gradientTransform="matrix(1 0 0 -1 0 -698)" gradientUnits="userSpaceOnUse"><stop offset="0" stop-color="#c26715"/><stop offset=".508" stop-color="#b85515"/><stop offset="1" stop-color="#ad3f16"/></linearGradient><path fill="url(#sxf49pB3p48aIn_QG0n8Wc)" d="M25.556,30L14.215,16.659c-0.862-0.862-2.252-0.88-3.137-0.042L6,21.427V29 c0,0.552,0.448,1,1,1H25.556z"/></svg>