<svg xmlns="http://www.w3.org/2000/svg" xmlns:xlink="http://www.w3.org/1999/xlink" data-name="Слой 1" viewBox="0 0 48 48"><defs><linearGradient id="XisldmcSZSIGExNf1SIxKb" x1="11" x2="11" y1="4" y2="22" data-name="Безымянный градиент 70" gradientUnits="userSpaceOnUse"><stop offset="0" stop-color="#6d6d6d"/><stop offset=".126" stop-color="#626262"/><stop offset=".987" stop-color="#464646"/><stop offset=".998" stop-color="#454545"/></linearGradient><linearGradient id="XisldmcSZSIGExNf1SIxKc" x1="8.255" x2="15.889" y1="5.457" y2="26.433" data-name="Безымянный градиент 147" gradientUnits="userSpaceOnUse"><stop offset="0" stop-color="#dfe9f2"/><stop offset=".391" stop-color="#d6e0e9"/><stop offset="1" stop-color="#bfc8d1"/></linearGradient><linearGradient id="XisldmcSZSIGExNf1SIxKa" x1="33.478" x2="48.74" y1="24.24" y2="24.24" data-name="Безымянный градиент 105" gradientUnits="userSpaceOnUse"><stop offset="0" stop-color="#ffcf54"/><stop offset=".261" stop-color="#fdcb4d"/><stop offset=".639" stop-color="#f7c13a"/><stop offset="1" stop-color="#f0b421"/></linearGradient><linearGradient id="XisldmcSZSIGExNf1SIxKd" x1="29.688" x2="12.33" y1="18" y2="18" xlink:href="#XisldmcSZSIGExNf1SIxKa"/><linearGradient id="XisldmcSZSIGExNf1SIxKe" x1="35" x2="43" y1="-598" y2="-598" gradientTransform="matrix(1 0 0 -1 0 -588)" xlink:href="#XisldmcSZSIGExNf1SIxKa"/><linearGradient id="XisldmcSZSIGExNf1SIxKf" x1="31.5" x2="31.5" y1="-16.957" y2="46.568" data-name="Безымянный градиент 160" gradientUnits="userSpaceOnUse"><stop offset="0" stop-color="#f09701"/><stop offset="1" stop-color="#e36001"/></linearGradient></defs><rect width="16" height="18" x="3" y="4" fill="url(#XisldmcSZSIGExNf1SIxKb)" rx="2"/><path fill="url(#XisldmcSZSIGExNf1SIxKc)" d="M15.707,11.293A1.71685,1.71685,0,0,1,15.01953,10H19a1,1,0,0,0,0-2H15V4a1,1,0,0,0-2,0V9c0,1.55664,0,2.41406,1.293,3.707A.99989.99989,0,0,0,15.707,11.293ZM9,8V4A1,1,0,0,0,7,4V8H3a1,1,0,0,0,0,2H7a1,1,0,0,0,2,0A1,1,0,0,0,9,8Zm.707,5.293a.99962.99962,0,0,0-1.41406,0A4.14332,4.14332,0,0,0,7.036,16H3a1,1,0,0,0,0,2H7v4a1,1,0,0,0,2,0V18a.99583.99583,0,0,0,.04578-1.99078A2.16335,2.16335,0,0,1,9.707,14.707.99962.99962,0,0,0,9.707,13.293Z"/><path fill="url(#XisldmcSZSIGExNf1SIxKa)" d="M47,25.5A1.498,1.498,0,0,1,45.5,27H38.98a2.01326,2.01326,0,0,1-1.44-.61L36.28,25.08l-.53-1.33L37.5,21.5l1.18-.02,1.26,1.83,4.06.5,1.5.19A1.498,1.498,0,0,1,47,25.5Z"/><path fill="url(#XisldmcSZSIGExNf1SIxKd)" d="M27,14l-1,4.28-1.59-.09L19,21.36l-.74.43a1.52062,1.52062,0,0,1-.76.21A1.498,1.498,0,0,1,16,20.5a1.45671,1.45671,0,0,1,.52-1.12l-.01-.01L19,17.46l3.96-3.05A2.03584,2.03584,0,0,1,24.18,14Z"/><path fill="#c2620e" d="M25.676,26.36l-4.758,6.104L12.5,34a1.5,1.5,0,0,0,0,3l8.774.183a1.9979,1.9979,0,0,0,1.291-.438L30.998,30Z"/><path fill="url(#XisldmcSZSIGExNf1SIxKe)" d="M35,10a4,4,0,1,0,3.998-4A3.99975,3.99975,0,0,0,35,10Z"/><path fill="url(#XisldmcSZSIGExNf1SIxKf)" d="M39.94,23.31l-1.26-1.83-1.78-2.6A4.16043,4.16043,0,0,0,37,18a4.06547,4.06547,0,0,0-.03-.5A4.0071,4.0071,0,0,0,33,14H24.18a2.03584,2.03584,0,0,0-1.22.41L19,17.46v3.9l5.41-3.17,1.59.09,2.31.13-2.9,5.08-1,1.75v.02A4.084,4.084,0,0,0,24,27a3.9882,3.9882,0,0,0,1.03,2.66l.00995.02.08.09a1.14184,1.14184,0,0,1,.11.11l5.67,5.64,2.15,9.37.00744-.00122A1.49651,1.49651,0,0,0,36,44.5c0-.03369-.00775-.06525-.01-.09839L36,44.4l-.64-10.2a2.07223,2.07223,0,0,0-.19-.74L32.25,27.5l2.35-4.18.4.42,1.28,1.34L37.54,26.39a2.01326,2.01326,0,0,0,1.44.61H44V23.81Z"/><path d="M18.39,16.67,15.9,18.58l-.68.91A2.3262,2.3262,0,0,0,15,20.5a2.50311,2.50311,0,0,0,.5,1.5H17a2.45726,2.45726,0,0,0,.28-.02A1.489,1.489,0,0,1,16,20.5a1.45671,1.45671,0,0,1,.52-1.12l-.01-.01L19,17.46V16.2Z" opacity=".05"/><path d="M19,16.82l-.31.24-2.48,1.91-.38.43a2.00327,2.00327,0,0,0-.33,1.1,1.9756,1.9756,0,0,0,.69,1.5H17a2.45726,2.45726,0,0,0,.28-.02A1.489,1.489,0,0,1,16,20.5a1.45671,1.45671,0,0,1,.52-1.12l-.01-.01L19,17.46Z" opacity=".07"/></svg>