<svg xmlns="http://www.w3.org/2000/svg" viewBox="0 0 48 48"><linearGradient id="kksFHkHT74tQftaNhnOOYa" x1="-662.222" x2="-649.148" y1="7.003" y2="42.718" gradientTransform="matrix(-1 0 0 1 -632 0)" gradientUnits="userSpaceOnUse"><stop offset="0" stop-color="#0d61a9"/><stop offset="1" stop-color="#16528c"/></linearGradient><path fill="url(#kksFHkHT74tQftaNhnOOYa)" d="M4,24c0,11.045,8.955,20,20,20s20-8.955,20-20S35.045,4,24,4S4,12.955,4,24z"/><path d="M20,24v-8c0-1.105,0.895-2,2-2h4c1.105,0,2,0.895,2,2v8h3.648c1.336,0,2.006,1.616,1.061,2.561 l-7.295,7.295c-0.781,0.781-2.047,0.781-2.828,0l-7.295-7.295C14.346,25.616,15.015,24,16.352,24H20z" opacity=".05"/><path d="M20.5,24.5V16c0-0.828,0.672-1.5,1.5-1.5h4c0.828,0,1.5,0.672,1.5,1.5v8.5h4.021 c0.938,0,1.408,1.134,0.745,1.798l-7.129,7.13c-0.627,0.627-1.644,0.627-2.271,0l-7.129-7.13c-0.663-0.663-0.194-1.798,0.745-1.798 H20.5z" opacity=".07"/><path fill="#50e6ff" d="M16.607,25H21v-9c0-0.552,0.448-1,1-1h4c0.552,0,1,0.448,1,1v9h4.393c0.54,0,0.81,0.653,0.428,1.034 l-6.964,6.964c-0.473,0.473-1.241,0.473-1.714,0l-6.964-6.964C15.797,25.653,16.067,25,16.607,25z"/></svg>