<svg xmlns="http://www.w3.org/2000/svg" viewBox="0 0 48 48"><path fill="#d6a121" d="M15,4c0,0-10,6.4-10,13.8c0,6.7,6,10.2,12.1,10.4h13.8c6,0,12.1-3.6,12.1-10.4C43,10.6,33,4,33,4H15z"/><linearGradient id="wQIBC1UrJJKpU7vXPqwrBa" x1="24" x2="24" y1="5.079" y2="36.294" gradientUnits="userSpaceOnUse"><stop offset="0" stop-color="#ffcf54"/><stop offset=".261" stop-color="#fdcb4d"/><stop offset=".639" stop-color="#f7c13a"/><stop offset="1" stop-color="#f0b421"/></linearGradient><path fill="url(#wQIBC1UrJJKpU7vXPqwrBa)" d="M15,4c0,0,2,6,2,17c0,6,0,15,0,15h7h7c0,0,0-9,0-15c0-11,2-17,2-17H15z"/><linearGradient id="wQIBC1UrJJKpU7vXPqwrBb" x1="24" x2="24" y1="25.89" y2="44.635" gradientUnits="userSpaceOnUse"><stop offset="0" stop-color="#ffcf54"/><stop offset=".261" stop-color="#fdcb4d"/><stop offset=".639" stop-color="#f7c13a"/><stop offset="1" stop-color="#f0b421"/></linearGradient><path fill="url(#wQIBC1UrJJKpU7vXPqwrBb)" d="M24,42L24,42c-3.9,0-7-3.1-7-7v-3c0-3.3,2.7-6,6-6h2c3.3,0,6,2.7,6,6v3C31,38.9,27.9,42,24,42	z"/><linearGradient id="wQIBC1UrJJKpU7vXPqwrBc" x1="24" x2="24" y1="28.411" y2="44.507" gradientUnits="userSpaceOnUse"><stop offset="0" stop-color="#f05964"/><stop offset="1" stop-color="#d4414c"/></linearGradient><path fill="url(#wQIBC1UrJJKpU7vXPqwrBc)" d="M24,44L24,44c-3.9,0-7-3.1-7-7v-2c0-3.9,3.1-7,7-7l0,0c3.9,0,7,3.1,7,7v2	C31,40.9,27.9,44,24,44z"/><linearGradient id="wQIBC1UrJJKpU7vXPqwrBd" x1="24" x2="24" y1="28.423" y2="43.491" gradientUnits="userSpaceOnUse"><stop offset="0" stop-color="#f05964"/><stop offset=".5" stop-color="#ee5762"/><stop offset=".684" stop-color="#e7525d"/><stop offset=".815" stop-color="#db4853"/><stop offset=".921" stop-color="#cb3a45"/><stop offset="1" stop-color="#b82a35"/></linearGradient><path fill="url(#wQIBC1UrJJKpU7vXPqwrBd)" d="M24.1,44h-0.2c-0.5,0-0.9-0.4-0.9-0.9V42c0-0.6,0.4-1,1-1l0,0c0.6,0,1,0.4,1,1v1.1	C25,43.6,24.6,44,24.1,44z"/></svg>