<svg xmlns="http://www.w3.org/2000/svg" id="Layer_1" x="0" y="0" version="1.1" viewBox="0 0 48 48" xml:space="preserve"><linearGradient id="SVGID_1_" x1="42.193" x2="36.146" y1="5.895" y2="11.941" gradientUnits="userSpaceOnUse"><stop offset="0" stop-color="#ad3f16"/><stop offset=".414" stop-color="#ab3e16"/><stop offset=".622" stop-color="#a33914"/><stop offset=".785" stop-color="#963011"/><stop offset=".923" stop-color="#83240e"/><stop offset="1" stop-color="#751b0b"/></linearGradient><path fill="url(#SVGID_1_)" d="M38.4,13.9l-4.2-4.2l2.3-2.3c0.5-0.5,1.3-0.5,1.7,0l2.5,2.5c0.5,0.5,0.5,1.3,0,1.7L38.4,13.9z"/><linearGradient id="SVGID_2_" x1="41.453" x2="18.133" y1="3.329" y2="30.052" gradientUnits="userSpaceOnUse"><stop offset="0" stop-color="#21a366"/><stop offset="1" stop-color="#107c42"/></linearGradient><path fill="url(#SVGID_2_)" d="M34.2,18.2l4.6-4.6l-4.2-4.2l-4.6,4.6c-1,1-2.2,1.6-3.5,1.9l-3.3,0.7c-1.1,0.1-2.1,0.6-2.9,1.3L7.3,30.9	c-0.6,0.6-0.5,1.5,0.1,2.2l7.6,7.6c0.6,0.6,1.6,0.7,2.2,0.1l13.1-13.1c0.8-0.8,1.2-1.8,1.3-2.9l0.7-3.3	C32.6,20.3,33.2,19.1,34.2,18.2z"/><rect width="6" height="2" x="33" y="11.1" fill="#185c37" transform="rotate(45.001 35.96 12.128)"/><path d="M15,40.7c0.6,0.6,1.6,0.7,2.2,0.1l13.1-13.1c0.6-0.6,1-1.3,1.2-2C31,25.9,30.5,26,30,26	c-1.3,0-2.4-0.8-2.4-0.8L27,24.8l-0.6,0.4c0,0-1.1,0.8-2.4,0.8s-2.4-0.8-2.4-0.8L21,24.8l-0.6,0.4c0,0-1.1,0.8-2.4,0.8	s-2.4-0.8-2.4-0.8L15,24.8l-0.6,0.4c0,0-1,0.7-2.2,0.8l-4.9,4.9c-0.6,0.6-0.5,1.5,0.1,2.2L15,40.7z" opacity=".05"/><path d="M15,40.7c0.6,0.6,1.6,0.7,2.2,0.1l13.1-13.1c0.4-0.4,0.7-0.9,1-1.4c-0.4,0.1-0.8,0.2-1.2,0.2	c-1.5,0-2.7-0.9-2.7-0.9L27,25.4l-0.3,0.2c0,0-1.2,0.9-2.7,0.9s-2.7-0.9-2.7-0.9L21,25.4l-0.3,0.2c0,0-1.2,0.9-2.7,0.9	s-2.7-0.9-2.7-0.9L15,25.4l-0.3,0.2c0,0-1.2,0.9-2.7,0.9c-0.1,0-0.2,0-0.3,0l-4.4,4.4c-0.6,0.6-0.5,1.5,0.1,2.2L15,40.7z" opacity=".07"/><linearGradient id="SVGID_3_" x1="24" x2="24" y1="-179.922" y2="-195.99" gradientTransform="matrix(1 0 0 -1 0 -154)" gradientUnits="userSpaceOnUse"><stop offset="0" stop-color="#2aa4f4"/><stop offset="1" stop-color="#007ad9"/></linearGradient><path fill="url(#SVGID_3_)" d="M42,27c-1.7,0-3-1-3-1s-1.3,1-3,1s-3-1-3-1s-1.3,1-3,1s-3-1-3-1s-1.3,1-3,1s-3-1-3-1s-1.3,1-3,1s-3-1-3-1	s-1.3,1-3,1s-3-1-3-1s-1.3,1-3,1s-3-1-3-1v14c0,1.1,0.9,2,2,2h22h9h7c1.1,0,2-0.9,2-2V26C45,26,43.7,27,42,27z"/></svg>