<svg xmlns="http://www.w3.org/2000/svg" viewBox="0 0 48 48"><linearGradient id="4SpSKuILVEfBm9VkYFua1a" x1="17.24" x2="31.462" y1="12.236" y2="36.983" gradientUnits="userSpaceOnUse"><stop offset=".008" stop-color="#f44f5a"/><stop offset=".447" stop-color="#ee3d4a"/><stop offset="1" stop-color="#e52030"/></linearGradient><path fill="url(#4SpSKuILVEfBm9VkYFua1a)" d="M24,4c-5.592,0-10.642,2.301-14.271,6h28.543C34.642,6.301,29.592,4,24,4z M38.271,38H9.729	c3.629,3.699,8.679,6,14.271,6S34.642,41.699,38.271,38z"/><linearGradient id="4SpSKuILVEfBm9VkYFua1b" x1="20.265" x2="36.986" y1="16.52" y2="50.01" gradientUnits="userSpaceOnUse"><stop offset="0" stop-color="#dfe9f2"/><stop offset=".998" stop-color="#9ea7b0"/></linearGradient><path fill="url(#4SpSKuILVEfBm9VkYFua1b)" d="M42.716,31H5.284c0.989,2.642,2.505,5.024,4.444,7h28.543	C40.21,36.024,41.727,33.642,42.716,31z M38.271,10H9.729c-1.939,1.976-3.455,4.358-4.444,7h37.431	C41.727,14.358,40.21,11.976,38.271,10z"/><linearGradient id="4SpSKuILVEfBm9VkYFua1c" x1="15.608" x2="36.905" y1="10.658" y2="44.517" gradientUnits="userSpaceOnUse"><stop offset="0" stop-color="#0d61a9"/><stop offset="1" stop-color="#16528c"/></linearGradient><path fill="url(#4SpSKuILVEfBm9VkYFua1c)" d="M44,24c0-2.467-0.468-4.818-1.284-7H5.284C4.468,19.182,4,21.533,4,24s0.468,4.818,1.284,7	h37.431C43.532,28.818,44,26.467,44,24z"/></svg>