<svg xmlns="http://www.w3.org/2000/svg" viewBox="0 0 48 48"><linearGradient id="OLaglxDx56RJxJTZTMF18a" x1="8" x2="40" y1="31.208" y2="31.208" gradientUnits="userSpaceOnUse"><stop offset="0" stop-color="#912fbd"/><stop offset="1" stop-color="#9332bf"/></linearGradient><path fill="url(#OLaglxDx56RJxJTZTMF18a)" d="M40,23.04v2.324c0,0.388-0.224,0.741-0.576,0.905L8.811,40.62C8.433,40.797,8,40.522,8,40.105	v-3.588c0-0.315,0.182-0.602,0.468-0.736l29.685-13.915C39.013,21.463,40,22.09,40,23.04z"/><linearGradient id="OLaglxDx56RJxJTZTMF18b" x1="8" x2="40" y1="16.315" y2="16.315" gradientUnits="userSpaceOnUse"><stop offset="0" stop-color="#ae4cd5"/><stop offset="1" stop-color="#ac4ad5"/></linearGradient><path fill="url(#OLaglxDx56RJxJTZTMF18b)" d="M39.349,26.305C39.664,26.163,40,25.911,40,25.336c0-0.375,0-3.7,0-3.7	c0-0.388-0.224-0.741-0.576-0.905L8.811,6.38C8.433,6.203,8,6.478,8,6.895v3.588c0,0.315,0.182,0.602,0.468,0.736	c0,0,30.278,14.193,30.465,14.281C39.702,25.858,39.349,26.305,39.349,26.305z"/></svg>