<svg xmlns="http://www.w3.org/2000/svg" viewBox="0 0 48 48"><linearGradient id="NBncjWKvHgcgr3RKHz2Ooa" x1="21.443" x2="38" y1="39.995" y2="39.995" gradientUnits="userSpaceOnUse"><stop offset="0" stop-color="#1d59b3"/><stop offset="1" stop-color="#195bbc"/></linearGradient><path fill="url(#NBncjWKvHgcgr3RKHz2Ooa)" d="M37.066,43h-5.333l-2.92,3.64c-0.44,0.549-1.306,0.431-1.584-0.214L21.443,33h12.47l4,8.677	C38.198,42.295,37.747,43,37.066,43z"/><linearGradient id="NBncjWKvHgcgr3RKHz2Oob" x1="11" x2="27.657" y1="39.998" y2="39.998" gradientUnits="userSpaceOnUse"><stop offset="0" stop-color="#3079d6"/><stop offset="1" stop-color="#297cd2"/></linearGradient><path fill="url(#NBncjWKvHgcgr3RKHz2Oob)" d="M27.657,33l-5.882,13.438c-0.281,0.642-1.144,0.757-1.582,0.21L17.267,43h-5.333	c-0.681,0-1.132-0.705-0.847-1.323l4-8.677H27.657z"/><path fill="#fdb700" d="M25.982,4.518l2.117,1.187l2.427,0.03c1.411,0.017,2.712,0.768,3.432,1.982l1.239,2.086l2.086,1.239	c1.213,0.721,1.964,2.021,1.982,3.432l0.03,2.427l1.187,2.117c0.69,1.231,0.69,2.732,0,3.963l-1.187,2.117l-0.03,2.427	c-0.017,1.411-0.768,2.712-1.982,3.432l-2.086,1.239l-1.239,2.086c-0.721,1.213-2.021,1.964-3.432,1.982l-2.427,0.03l-2.117,1.187	c-1.231,0.69-2.732,0.69-3.963,0l-2.117-1.187l-2.427-0.03c-1.411-0.017-2.712-0.768-3.432-1.982l-1.239-2.086l-2.086-1.239	c-1.213-0.721-1.964-2.021-1.982-3.432l-0.03-2.427l-1.187-2.117c-0.69-1.231-0.69-2.732,0-3.963l1.187-2.117l0.03-2.427	c0.017-1.411,0.768-2.712,1.982-3.432l2.086-1.239l1.239-2.086c0.721-1.213,2.021-1.964,3.432-1.982l2.427-0.03l2.117-1.187	C23.249,3.827,24.751,3.827,25.982,4.518z"/><linearGradient id="NBncjWKvHgcgr3RKHz2Ooc" x1="11" x2="37" y1="21" y2="21" gradientUnits="userSpaceOnUse"><stop offset="0" stop-color="#fede00"/><stop offset="1" stop-color="#ffd000"/></linearGradient><circle cx="24" cy="21" r="13" fill="url(#NBncjWKvHgcgr3RKHz2Ooc)"/></svg>