<svg xmlns="http://www.w3.org/2000/svg" viewBox="0 0 48 48"><linearGradient id="kKPRiLM7zFgZFiY1qawt8a" x1="19.519" x2="24.425" y1="4.474" y2="32.298" gradientUnits="userSpaceOnUse"><stop offset="0" stop-color="#eceff1"/><stop offset="1" stop-color="#cfd8dc"/></linearGradient><path fill="url(#kKPRiLM7zFgZFiY1qawt8a)" d="M13.897,30.456c-1.397-2.177-2.117-4.828-1.838-7.659c0.542-5.493,4.924-10.014,10.4-10.701	c4.51-0.566,8.607,1.395,11.086,4.652c0.163,0.214,0.46,0.268,0.681,0.114l5.743-4.007c0.231-0.161,0.289-0.486,0.122-0.713	C36.05,6.667,29.295,3.317,21.803,4.118C12.827,5.076,5.48,12.148,4.208,21.084C3.471,26.26,4.735,31.11,7.317,35.012	c0.155,0.234,0.478,0.291,0.709,0.13l5.744-4.008C13.991,30.98,14.043,30.683,13.897,30.456z"/><linearGradient id="kKPRiLM7zFgZFiY1qawt8b" x1="25.305" x2="29.544" y1="19.295" y2="43.337" gradientUnits="userSpaceOnUse"><stop offset="0" stop-color="#6d9fd9"/><stop offset=".344" stop-color="#6294ce"/><stop offset=".955" stop-color="#4676b0"/><stop offset="1" stop-color="#4474ad"/></linearGradient><path fill="url(#kKPRiLM7zFgZFiY1qawt8b)" d="M41.841,16.427L25.125,28.09	C24.724,28.37,24.922,29,25.411,29h9.484c-1.901,4.124-6.063,7-10.895,7c-2.481,0-4.783-0.765-6.698-2.061	c-0.171-0.115-0.391-0.118-0.56,0l-5.993,4.181c-0.264,0.184-0.294,0.573-0.054,0.788c4.028,3.599,9.508,5.606,15.465,4.978	c9.009-0.95,16.381-8.057,17.639-17.028c0.51-3.637,0.026-7.111-1.202-10.21C42.479,16.349,42.105,16.243,41.841,16.427z"/></svg>