<svg xmlns="http://www.w3.org/2000/svg" viewBox="0 0 48 48"><linearGradient id="iCKXIOPdkM~UA8JX4zrana" x1="39.001" x2="41.528" y1="29.5" y2="29.5" gradientUnits="userSpaceOnUse"><stop offset="0" stop-color="#c48f0c"/><stop offset=".251" stop-color="#d19b16"/><stop offset=".619" stop-color="#dca51f"/><stop offset="1" stop-color="#e0a922"/></linearGradient><path fill="url(#iCKXIOPdkM~UA8JX4zrana)" d="M38.999,25H38v9h1.333c0.975,0,1.808-0.703,1.972-1.664l0.653-3.832	C42.269,26.672,40.857,25,38.999,25z"/><linearGradient id="iCKXIOPdkM~UA8JX4zranb" x1="-201" x2="-198.472" y1="29.5" y2="29.5" gradientTransform="matrix(-1 0 0 1 -192 0)" gradientUnits="userSpaceOnUse"><stop offset="0" stop-color="#c48f0c"/><stop offset=".251" stop-color="#d19b16"/><stop offset=".619" stop-color="#dca51f"/><stop offset="1" stop-color="#e0a922"/></linearGradient><path fill="url(#iCKXIOPdkM~UA8JX4zranb)" d="M9.001,25H10v9H8.667c-0.975,0-1.808-0.703-1.972-1.664l-0.653-3.832	C5.731,26.672,7.143,25,9.001,25z"/><radialGradient id="iCKXIOPdkM~UA8JX4zranc" cx="24" cy="25.5" r="17.396" gradientUnits="userSpaceOnUse"><stop offset="0" stop-color="#ffcf54"/><stop offset=".261" stop-color="#fdcb4d"/><stop offset=".639" stop-color="#f7c13a"/><stop offset="1" stop-color="#f0b421"/></radialGradient><path fill="url(#iCKXIOPdkM~UA8JX4zranc)" d="M24,6C16.598,6,9,9,9,25c0,1.281,0,5.92,0,7.288C9,38,18,45,24,45s15-7,15-12.712	c0-1.368,0-6.007,0-7.288C39,9,31.402,6,24,6z"/><radialGradient id="iCKXIOPdkM~UA8JX4zrand" cx="9.386" cy="5.933" r="42.765" gradientUnits="userSpaceOnUse"><stop offset="0" stop-color="#c26715"/><stop offset=".508" stop-color="#b85515"/><stop offset="1" stop-color="#ad3f16"/></radialGradient><path fill="url(#iCKXIOPdkM~UA8JX4zrand)" d="M24,4c-7.982,0-10,3-10,3c-3.245,0.479-7,4.566-7,10c0,3.032,0.653,4.439,2,12c1-12,2-16,4-16	c3,0,3,2,11.778,2C29.801,15,32,13,34,13c5,0,5,14.108,5,16c0.806-7.405,1-9.351,1-12C40,10.712,35.383,4,24,4z"/><radialGradient id="iCKXIOPdkM~UA8JX4zrane" cx="20.832" cy="9.178" r="53.981" gradientUnits="userSpaceOnUse"><stop offset="0" stop-color="#c26715"/><stop offset=".508" stop-color="#b85515"/><stop offset="1" stop-color="#ad3f16"/></radialGradient><path fill="url(#iCKXIOPdkM~UA8JX4zrane)" d="M24,3c-7.982,0-10,4-10,4c-0.08,2.125,1,4,1,4s1.46,3,9.778,3C29.801,14,37,11.003,37,3	C37,3,35.383,3,24,3z"/></svg>