<svg xmlns="http://www.w3.org/2000/svg" viewBox="0 0 48 48"><path fill="#b2c6d6" d="M7.398,43.989c-0.24,0-0.48-0.086-0.671-0.26c-0.409-0.371-0.44-1.003-0.069-1.412l13.601-14.989 C20.449,27.119,20.718,27,21,27h5c0.552,0,1,0.447,1,1s-0.448,1-1,1h-4.557L8.14,43.661C7.942,43.879,7.671,43.989,7.398,43.989z"/><path fill="#b2c6d6" d="M15.489,43.846c-0.248,0-0.496-0.091-0.689-0.275l-8.713-8.282c-0.4-0.38-0.417-1.014-0.036-1.414 c0.381-0.398,1.015-0.416,1.414-0.035l8.713,8.282c0.4,0.38,0.417,1.014,0.036,1.414C16.018,43.741,15.753,43.846,15.489,43.846z"/><circle cx="7.5" cy="42.5" r="2.5" fill="#5c5f61"/><circle cx="15.5" cy="42.5" r="2.5" fill="#5c5f61"/><linearGradient id="cM9JvWUqzru1dU5ZG6N~pa" x1="3" x2="11" y1="27" y2="27" gradientUnits="userSpaceOnUse"><stop offset="0" stop-color="#42a3f2"/><stop offset="1" stop-color="#42a4eb"/></linearGradient><path fill="url(#cM9JvWUqzru1dU5ZG6N~pa)" d="M5.229,23.962L11,23v8l-8-1l1.927-5.78C4.972,24.085,5.088,23.985,5.229,23.962z"/><linearGradient id="cM9JvWUqzru1dU5ZG6N~pb" x1="3" x2="20.48" y1="33" y2="33" gradientUnits="userSpaceOnUse"><stop offset="0" stop-color="#3079d6"/><stop offset="1" stop-color="#297cd2"/></linearGradient><path fill="url(#cM9JvWUqzru1dU5ZG6N~pb)" d="M17.039,36H6.442c-0.861,0-1.625-0.551-1.897-1.368L3,30h17.48l-1.544,4.632 C18.664,35.449,17.9,36,17.039,36z"/><linearGradient id="cM9JvWUqzru1dU5ZG6N~pc" x1="28.758" x2="30.652" y1="20.455" y2="28.228" gradientUnits="userSpaceOnUse"><stop offset="0" stop-color="#ffcf54"/><stop offset=".261" stop-color="#fdcb4d"/><stop offset=".639" stop-color="#f7c13a"/><stop offset="1" stop-color="#f0b421"/></linearGradient><path fill="url(#cM9JvWUqzru1dU5ZG6N~pc)" d="M27,29.5c-0.384,0-0.768-0.146-1.061-0.439c-0.586-0.586-0.586-1.535,0-2.121l3.218-3.219 l1.395-5.115c0.218-0.8,1.043-1.271,1.842-1.053c0.799,0.218,1.271,1.043,1.053,1.842l-1.5,5.5 c-0.069,0.252-0.202,0.481-0.387,0.666l-3.5,3.5C27.768,29.354,27.384,29.5,27,29.5z"/><path fill="#b55017" d="M33.632,5.761c0,0-1.631,2.473-1.631,5.407c0,0.427,0.227,0.809,0.57,0.962C34.526,13,37,13,37,13 V6.01L33.632,5.761z"/><path fill="#b55017" d="M40.453,5.892c0,0,1.546,2.294,1.546,5.275c0,0.427-0.227,0.809-0.57,0.962C39.474,13,37,13,37,13 V6.01L40.453,5.892z"/><linearGradient id="cM9JvWUqzru1dU5ZG6N~pd" x1="35.651" x2="38.348" y1="-703.284" y2="-710.715" gradientTransform="matrix(1 0 0 -1 0 -698)" gradientUnits="userSpaceOnUse"><stop offset="0" stop-color="#ffcf54"/><stop offset=".261" stop-color="#fdcb4d"/><stop offset=".639" stop-color="#f7c13a"/><stop offset="1" stop-color="#f0b421"/></linearGradient><path fill="url(#cM9JvWUqzru1dU5ZG6N~pd)" d="M37,13c-2.2,0-4-1.8-4-4s1.8-4,4-4s4,1.8,4,4S39.2,13,37,13"/><linearGradient id="cM9JvWUqzru1dU5ZG6N~pe" x1="39.518" x2="42.597" y1="-734.98" y2="-742.727" gradientTransform="matrix(1 0 0 -1 0 -698)" gradientUnits="userSpaceOnUse"><stop offset="0" stop-color="#ffcf54"/><stop offset=".261" stop-color="#fdcb4d"/><stop offset=".639" stop-color="#f7c13a"/><stop offset="1" stop-color="#f0b421"/></linearGradient><path fill="url(#cM9JvWUqzru1dU5ZG6N~pe)" d="M42,33h-4v10c0,1.105,0.895,2,2,2l0,0c1.105,0,2-0.895,2-2V33z"/><linearGradient id="cM9JvWUqzru1dU5ZG6N~pf" x1="33.518" x2="36.597" y1="-734.98" y2="-742.727" gradientTransform="matrix(1 0 0 -1 0 -698)" gradientUnits="userSpaceOnUse"><stop offset="0" stop-color="#ffcf54"/><stop offset=".261" stop-color="#fdcb4d"/><stop offset=".639" stop-color="#f7c13a"/><stop offset="1" stop-color="#f0b421"/></linearGradient><path fill="url(#cM9JvWUqzru1dU5ZG6N~pf)" d="M36,33h-4v10c0,1.105,0.895,2,2,2l0,0c1.105,0,2-0.895,2-2V33z"/><linearGradient id="cM9JvWUqzru1dU5ZG6N~pg" x1="41.914" x2="45.928" y1="1474.998" y2="1483.916" gradientTransform="translate(0 -1452.11)" gradientUnits="userSpaceOnUse"><stop offset="0" stop-color="#ffcf54"/><stop offset=".261" stop-color="#fdcb4d"/><stop offset=".639" stop-color="#f7c13a"/><stop offset="1" stop-color="#f0b421"/></linearGradient><path fill="url(#cM9JvWUqzru1dU5ZG6N~pg)" d="M45,22l-3-1c0,0,0,9.221,0,9.5c0,0.828,0.672,1.5,1.5,1.5s1.5-0.672,1.5-1.5 C45,30.221,45,34.279,45,22z"/><linearGradient id="cM9JvWUqzru1dU5ZG6N~ph" x1="36.237" x2="38.157" y1="-711.711" y2="-731.666" gradientTransform="matrix(1 0 0 -1 0 -698)" gradientUnits="userSpaceOnUse"><stop offset="0" stop-color="#f44f5a"/><stop offset=".443" stop-color="#ee3d4a"/><stop offset="1" stop-color="#e52030"/></linearGradient><path fill="url(#cM9JvWUqzru1dU5ZG6N~ph)" d="M45,21.666C45,17.984,42.016,15,38.334,15H38h-2h-0.333c-2.743,0-4.715,1.739-5.305,4.149 c-0.21,0.858-0.383,1.58-0.622,2.362l2.265,0.682l-1.827,11.655C30.084,34.454,30.553,35,31.166,35h11.669 c0.613,0,1.082-0.546,0.988-1.152L42,22h3V21.666z"/><path fill="#b55017" d="M33,9c1.011-0.18,2.128-0.658,3-2.5c0.947,1.682,3.388,2.38,5,2.5c0-1.25,0.112-5-4-5 C32.926,4,33,7.75,33,9z"/></svg>