<svg xmlns="http://www.w3.org/2000/svg" viewBox="0 0 48 48"><path fill="#881421" d="M9,17c-0.847,0-1.633-0.542-1.904-1.392c-0.336-1.052,0.243-2.176,1.295-2.513	C8.912,12.928,21.385,9,39,9c1.104,0,2,0.896,2,2s-0.896,2-2,2c-16.953,0-29.269,3.866-29.392,3.905C9.406,16.97,9.202,17,9,17z"/><path fill="#881421" d="M14,24c-1.104,0-2-0.896-2-2s0.896-2,2-2c11.359,0,19.229-2.848,19.308-2.876	c1.034-0.381,2.186,0.148,2.567,1.184c0.383,1.035-0.146,2.184-1.18,2.568C34.351,21.003,26.122,24,14,24z"/><path fill="#881421" d="M16,43c-5.299,0-9-2.878-9-7c0-4.187,3.617-7,9-7c1.959,0,3.988,0.234,6,0.62V7c0-1.104,0.896-2,2-2	s2,0.896,2,2v23.572c7.348,2.069,13.591,5.471,13.964,5.676c0.968,0.532,1.32,1.748,0.789,2.715c-0.533,0.969-1.751,1.32-2.716,0.79	c-0.083-0.046-5.696-3.1-12.296-5.085C24.639,40.1,20.205,43,16,43z M16,33c-2.307,0-5,0.786-5,3c0,2.061,2.592,3,5,3	c1.849,0,5.164-1.161,5.867-5.327C19.884,33.258,17.891,33,16,33z"/></svg>