<svg xmlns="http://www.w3.org/2000/svg" viewBox="0 0 48 48"><path fill="#641d8c" d="M42,36H6c-1.104,0-2-0.896-2-2s0.896-2,2-2h36c1.104,0,2,0.896,2,2S43.104,36,42,36z"/><path fill="#641d8c" d="M42,16H6c-1.104,0-2-0.896-2-2s0.896-2,2-2h36c1.104,0,2,0.896,2,2S43.104,16,42,16z"/><path fill="#7d22b3" d="M34,44c-1.104,0-2-0.896-2-2V6c0-1.104,0.896-2,2-2s2,0.896,2,2v36C36,43.104,35.104,44,34,44z"/><path fill="#7d22b3" d="M14,44c-1.104,0-2-0.896-2-2V6c0-1.104,0.896-2,2-2s2,0.896,2,2v36C16,43.104,15.104,44,14,44z"/><path fill="#ac4ad5" d="M32,18c-0.512,0-1.023-0.195-1.414-0.586c-0.781-0.781-0.781-2.047,0-2.828l4-4	c0.781-0.781,2.047-0.781,2.828,0s0.781,2.047,0,2.828l-4,4C33.023,17.805,32.512,18,32,18z"/><path fill="#ac4ad5" d="M12,18c-0.512,0-1.023-0.195-1.414-0.586c-0.781-0.781-0.781-2.047,0-2.828l4-4	c0.781-0.781,2.047-0.781,2.828,0s0.781,2.047,0,2.828l-4,4C13.023,17.805,12.512,18,12,18z"/><path fill="#ac4ad5" d="M32,38c-0.512,0-1.023-0.195-1.414-0.586c-0.781-0.781-0.781-2.047,0-2.828l4-4	c0.781-0.781,2.047-0.781,2.828,0s0.781,2.047,0,2.828l-4,4C33.023,37.805,32.512,38,32,38z"/><path fill="#ac4ad5" d="M12,38c-0.512,0-1.023-0.195-1.414-0.586c-0.781-0.781-0.781-2.047,0-2.828l4-4	c0.781-0.781,2.047-0.781,2.828,0s0.781,2.047,0,2.828l-4,4C13.023,37.805,12.512,38,12,38z"/></svg>