<svg xmlns="http://www.w3.org/2000/svg" viewBox="0 0 48 48"><linearGradient id="T6ZIFOpvCPcgUM6G9zLFma" x1="23.988" x2="23.988" y1="42.467" y2="22.265" gradientUnits="userSpaceOnUse"><stop offset="0" stop-color="#464646"/><stop offset="1" stop-color="#343434"/></linearGradient><path fill="url(#T6ZIFOpvCPcgUM6G9zLFma)" d="M32.04,30.82C32.01,30.88,32,30.94,32,31c0,0.08,0.01,0.16,0.04,0.24	c0.01,0.04,0.02,0.08,0.05,0.11c0.02,0.04,0.04,0.07,0.06,0.11c0.3,0.45,1.02,0.74,1.76,1.06c0.06,0.02,0.11,0.05,0.16,0.07	C35.05,33.02,36,33.52,36,34.5c0,2.12-5.76,2.8-7.51,4.49C28.18,39.29,28,39.62,28,40c0,0.06,0.01,0.13,0.03,0.18	c0,0.01,0,0.01,0,0.01c0.03,0.1,0.08,0.18,0.16,0.24c0.12,0.12,0.28,0.22,0.46,0.3c0.12,0.05,0.24,0.1,0.36,0.14	c0.62,0.23,1.27,0.35,0.99,0.63c-0.75,0.75-4,2.5-7,2.5c-2,0-1.5-2-2.5-3S16,40.5,16,39c0-0.29,0.16-0.57,0.4-0.86	c0.01-0.02,0.02-0.05,0.06-0.08C17.05,37.38,18,36.69,18,36c0-0.17-0.07-0.34-0.21-0.5C16.37,33.74,8,32.37,8,31	c0-0.39,0.68-0.78,1.52-1.17c0.03-0.02,0.06-0.04,0.1-0.05c1.06-0.49,2.32-0.97,2.73-1.46c0.1-0.1,0.15-0.21,0.15-0.32	c0-0.04-0.01-0.09-0.03-0.13C12.07,26.91,7.39,25.96,5,25c-2.5-1-2.5-2-1-3.5c2-2,9.73-10.23,15-15.5c2-2,3-3,5-3c1.5,0,3,1,4,2	s13,13.5,14.5,15s2.5,2.5,2.5,3.5c0,4.08-10.68,5.28-12.68,6.96C32.18,30.58,32.09,30.69,32.04,30.82z"/><linearGradient id="T6ZIFOpvCPcgUM6G9zLFmb" x1="23.989" x2="23.989" y1="41.098" y2="26.717" gradientUnits="userSpaceOnUse"><stop offset="0" stop-color="#6d6d6d"/><stop offset=".126" stop-color="#626262"/><stop offset=".886" stop-color="#464646"/><stop offset="1" stop-color="#454545"/></linearGradient><path fill="url(#T6ZIFOpvCPcgUM6G9zLFmb)" d="M32.04,30.82C32.01,30.88,32,30.94,32,31	c0,0.08,0.01,0.16,0.04,0.24c0.01,0.04,0.03,0.08,0.05,0.11c0.02,0.04,0.04,0.07,0.06,0.11c0.31,0.44,1.06,0.74,1.76,1.06	c0.06,0.02,0.11,0.05,0.16,0.07c0.76,0.36,1.43,0.75,1.43,1.41c0,2.26-9.47,2.5-7.01,4.99L28.5,39c-0.44,0.55-0.55,0.92-0.47,1.18	c0,0.01,0,0.01,0,0.01c0.03,0.1,0.08,0.18,0.16,0.24c0.11,0.13,0.28,0.22,0.46,0.3c0.12,0.05,0.24,0.1,0.36,0.14	c-0.68,0.68-3.3,1.63-6.01,1.63c-1.5,0-1.1-1.6-2-2.5c-0.85-0.85-5-1.02-4.6-1.86c0.01-0.02,0.02-0.05,0.06-0.08	C17.05,37.38,18,36.69,18,36c0-0.17-0.07-0.34-0.21-0.5c1.93-2.65-8.79-3.65-8.79-5c0-0.24,0.21-0.46,0.52-0.67	c0.03-0.02,0.06-0.04,0.1-0.05c0.83-0.52,2.26-0.95,2.73-1.46c0.1-0.1,0.15-0.21,0.15-0.32c0-0.04-0.01-0.09-0.03-0.13	c-0.29-0.9-3.47-2.15-5.62-3.02c-0.55-0.22-0.97-0.44-1.26-0.67c-0.91-0.7-0.66-1.46,0.36-2.48c1.06-1.06,3.91-4.08,7.05-7.34	c2.2-2.29,4.53-4.7,6.49-6.65C21.29,5.9,22.19,5,24,5c0.88,0,1.75,0.38,2.51,0.88c0.41,0.29,0.78,0.6,1.1,0.92	c0.39,0.4,2.63,2.72,5.16,5.35c3.33,3.45,7.15,7.42,7.92,8.19c1.36,1.36,2.26,2.26,2.26,3.16c0,3.65-8.84,5.34-10.63,6.96	C32.18,30.58,32.08,30.7,32.04,30.82z"/><linearGradient id="T6ZIFOpvCPcgUM6G9zLFmc" x1="13.406" x2="20.645" y1="10.368" y2="23.575" gradientUnits="userSpaceOnUse"><stop offset="0" stop-color="#6d6d6d"/><stop offset=".561" stop-color="#626262"/><stop offset="1" stop-color="#464646"/></linearGradient><path fill="url(#T6ZIFOpvCPcgUM6G9zLFmc)" d="M26.51,5.88L15,26.5	c0,0-6.98-1.64-9.41-2.32c-0.91-0.7-0.66-1.46,0.36-2.48c1.06-1.06,3.91-4.08,7.05-7.34c2.2-2.29,4.53-4.7,6.49-6.65	C21.29,5.9,22.19,5,24,5C24.88,5,25.75,5.38,26.51,5.88z"/><linearGradient id="T6ZIFOpvCPcgUM6G9zLFmd" x1="17.67" x2="23.958" y1="26.553" y2="32.841" gradientUnits="userSpaceOnUse"><stop offset="0" stop-color="#f9f9f9"/><stop offset=".26" stop-color="#f0f1f2"/><stop offset=".678" stop-color="#d9dcdf"/><stop offset="1" stop-color="#c2c8cc"/></linearGradient><path fill="url(#T6ZIFOpvCPcgUM6G9zLFmd)" d="M16.558,28.9	c-0.158-0.109-0.066-0.359,0.125-0.341c1.721,0.159,6.214,0.639,7.817,1.441c1,0.5,0.081,1.5-1.5,1.5	C21.178,31.5,18.527,30.256,16.558,28.9z"/><linearGradient id="T6ZIFOpvCPcgUM6G9zLFme" x1="13.75" x2="13.75" y1="44.179" y2="32.413" gradientUnits="userSpaceOnUse"><stop offset="0" stop-color="#464646"/><stop offset="1" stop-color="#343434"/></linearGradient><path fill="url(#T6ZIFOpvCPcgUM6G9zLFme)" d="M16,37c0,0.5-1.5,2.5-2.5,2.5s-2-0.5-2-1.5	c0-0.25,0.12-0.49,0.32-0.73c0-0.01,0-0.01,0.01-0.01c0.61-0.7,1.92-1.26,2.67-1.26c0.47,0,0.83,0.11,1.08,0.28	C15.86,36.47,16,36.74,16,37z"/><linearGradient id="T6ZIFOpvCPcgUM6G9zLFmf" x1="13.691" x2="13.691" y1="34.984" y2="39.337" gradientUnits="userSpaceOnUse"><stop offset="0" stop-color="#6d6d6d"/><stop offset=".561" stop-color="#626262"/><stop offset="1" stop-color="#464646"/></linearGradient><path fill="url(#T6ZIFOpvCPcgUM6G9zLFmf)" d="M15.58,36.28C15.63,37.18,13.91,38,13,38	c-0.82,0-1.3-0.34-1.18-0.73c0-0.01,0-0.01,0.01-0.01c0.61-0.7,1.92-1.26,2.67-1.26C14.97,36,15.33,36.11,15.58,36.28z"/><linearGradient id="T6ZIFOpvCPcgUM6G9zLFmg" x1="40.75" x2="40.75" y1="44.179" y2="32.413" gradientUnits="userSpaceOnUse"><stop offset="0" stop-color="#464646"/><stop offset="1" stop-color="#343434"/></linearGradient><path fill="url(#T6ZIFOpvCPcgUM6G9zLFmg)" d="M43.5,34.5c0,0.5-2,1-2.5,1s-3,0-3-1	c0-0.23,0.33-0.57,0.82-0.86C39.39,33.29,40.19,33,41,33c0.8,0,1.46,0.29,1.9,0.63C43.28,33.93,43.5,34.27,43.5,34.5z"/><linearGradient id="T6ZIFOpvCPcgUM6G9zLFmh" x1="40.86" x2="40.86" y1="34.984" y2="39.337" gradientUnits="userSpaceOnUse"><stop offset="0" stop-color="#6d6d6d"/><stop offset=".561" stop-color="#626262"/><stop offset="1" stop-color="#464646"/></linearGradient><path fill="url(#T6ZIFOpvCPcgUM6G9zLFmh)" d="M42.9,33.63C42.57,33.85,41.97,34,41,34	c-1.36,0-1.98-0.15-2.18-0.36C39.39,33.29,40.19,33,41,33C41.8,33,42.46,33.29,42.9,33.63z"/><linearGradient id="T6ZIFOpvCPcgUM6G9zLFmi" x1="37.933" x2="37.933" y1="44.179" y2="32.413" gradientUnits="userSpaceOnUse"><stop offset="0" stop-color="#464646"/><stop offset="1" stop-color="#343434"/></linearGradient><path fill="url(#T6ZIFOpvCPcgUM6G9zLFmi)" d="M38,39c-0.5,0-1.5-0.5-1.5-1.5	c0-0.2,0.02-0.38,0.06-0.54c0.16-0.62,0.64-0.86,1.44-0.46c0.27,0.13,0.56,0.37,0.81,0.65C39.51,37.92,39.84,39,38,39z"/><linearGradient id="T6ZIFOpvCPcgUM6G9zLFmj" x1="37.685" x2="37.685" y1="34.984" y2="39.337" gradientUnits="userSpaceOnUse"><stop offset="0" stop-color="#6d6d6d"/><stop offset=".561" stop-color="#626262"/><stop offset="1" stop-color="#464646"/></linearGradient><path fill="url(#T6ZIFOpvCPcgUM6G9zLFmj)" d="M38.81,37.15	c-0.75,0.53-1.86,0.2-2.25-0.19c0.16-0.62,0.64-0.86,1.44-0.46C38.27,36.63,38.56,36.87,38.81,37.15z"/><linearGradient id="T6ZIFOpvCPcgUM6G9zLFmk" x1="17.365" x2="23.683" y1="7.896" y2="14.214" gradientUnits="userSpaceOnUse"><stop offset="0" stop-color="#f9f9f9"/><stop offset=".26" stop-color="#f0f1f2"/><stop offset=".678" stop-color="#d9dcdf"/><stop offset="1" stop-color="#c2c8cc"/></linearGradient><path fill="url(#T6ZIFOpvCPcgUM6G9zLFmk)" d="M32.77,12.15L32.5,13.5l-3-2L29,15	l-2.5-1.5l-4,2.5l-0.57-1.91L21,11l-2,4.5h-4.93c-0.59,0-1.07-0.48-1.07-1.07v-0.07c2.2-2.29,4.53-4.7,6.49-6.65	C21.29,5.9,22.19,5,24,5c0.88,0,1.75,0.38,2.51,0.88c0.41,0.29,0.78,0.6,1.1,0.92C28,7.2,30.24,9.52,32.77,12.15z"/><linearGradient id="T6ZIFOpvCPcgUM6G9zLFml" x1="15.257" x2="27.527" y1="5.879" y2="18.148" gradientUnits="userSpaceOnUse"><stop offset="0" stop-color="#f9f9f9"/><stop offset=".26" stop-color="#f0f1f2"/><stop offset=".678" stop-color="#d9dcdf"/><stop offset="1" stop-color="#c2c8cc"/></linearGradient><path fill="url(#T6ZIFOpvCPcgUM6G9zLFml)" d="M26.51,5.88l-4.58,8.21L21,11l-2,4.5h-4.93	c-0.59,0-1.07-0.48-1.07-1.07v-0.07c2.2-2.29,4.53-4.7,6.49-6.65C21.29,5.9,22.19,5,24,5C24.88,5,25.75,5.38,26.51,5.88z"/></svg>