<svg xmlns="http://www.w3.org/2000/svg" data-name="Слой 1" viewBox="0 0 48 48"><defs><linearGradient id="Xlp27ruTOPArP_wRJQagma" x1="24" x2="24" y1="-3.978" y2="49.827" gradientUnits="userSpaceOnUse"><stop offset="0" stop-color="#a34f27"/><stop offset=".587" stop-color="#8b3817"/><stop offset="1" stop-color="#802d10"/></linearGradient><linearGradient id="Xlp27ruTOPArP_wRJQagmb" x1="24" x2="24" y1="6.098" y2="50.937" data-name="Безымянный градиент 129" gradientUnits="userSpaceOnUse"><stop offset="0" stop-color="#ffd869"/><stop offset="1" stop-color="#fec52b"/></linearGradient></defs><path fill="url(#Xlp27ruTOPArP_wRJQagma)" d="M41,22c0-8.56041-7.61116-18-17-18S7,13.43959,7,22s7.61116,13,17,13S41,30.56041,41,22Z"/><path fill="#343434" d="M13,21h1.5a.50018.50018,0,0,0,.5-.5v-.023A2.477,2.477,0,0,0,12.523,18H12.5a.50018.50018,0,0,0-.5.5V20A1.00036,1.00036,0,0,0,13,21Z"/><path fill="#343434" d="M35,21H33.5a.50018.50018,0,0,1-.5-.5v-.023A2.477,2.477,0,0,1,35.477,18H35.5a.50018.50018,0,0,1,.5.5V20A1.00036,1.00036,0,0,1,35,21Z"/><path fill="#5c2415" d="M28.5,21a2.48152,2.48152,0,0,0-.61493.08521,3.98875,3.98875,0,0,0-7.77014,0,2.49753,2.49753,0,1,0,1.32953,3.96838,3.9235,3.9235,0,0,0,5.11108,0A2.49538,2.49538,0,1,0,28.5,21Z"/><path fill="url(#Xlp27ruTOPArP_wRJQagmb)" d="M32,32V28c0-4-4-5-8-5s-8,1-8,5v4c0,5-2,5-2,8s5.75,5,10,5,10-2,10-5S32,37,32,32Z"/><ellipse cx="27" cy="38" fill="#bd8215" rx="1" ry="2"/><ellipse cx="21" cy="38" fill="#bd8215" rx="1" ry="2"/><path d="M33,32V28a5.1962,5.1962,0,0,0-1.17-3.43994A3.45924,3.45924,0,0,0,32,23.5,3.5074,3.5074,0,0,0,28.58,20a4.9961,4.9961,0,0,0-9.16,0A3.5074,3.5074,0,0,0,16,23.5a3.45924,3.45924,0,0,0,.17,1.06006A5.1962,5.1962,0,0,0,15,28v4c0,.49-.02.92993-.05,1.33a4.75591,4.75591,0,0,0,.47.20007q.24006.08991.48.17993A12.41,12.41,0,0,0,16,32V28a4.139,4.139,0,0,1,1.36-3.23A2.47543,2.47543,0,0,1,17,23.5,2.50091,2.50091,0,0,1,19.5,21a2.04812,2.04812,0,0,1,.61.09,3.99358,3.99358,0,0,1,7.78,0A2.04812,2.04812,0,0,1,28.5,21,2.50091,2.50091,0,0,1,31,23.5a2.47543,2.47543,0,0,1-.36,1.27A4.139,4.139,0,0,1,32,28v4a12.41,12.41,0,0,0,.1,1.71q.24-.09009.48-.17993a4.75591,4.75591,0,0,0,.47-.20007C33.02,32.92993,33,32.49,33,32Z" opacity=".05"/><path d="M32.5,32V28a4.64847,4.64847,0,0,0-1.25-3.33008A2.79789,2.79789,0,0,0,31.5,23.5a3.00879,3.00879,0,0,0-3-3,2.25813,2.25813,0,0,0-.26.01,4.49129,4.49129,0,0,0-8.48,0,2.25813,2.25813,0,0,0-.26-.01,3.00879,3.00879,0,0,0-3,3,2.79789,2.79789,0,0,0,.25,1.16992A4.64847,4.64847,0,0,0,15.5,28v4a13.756,13.756,0,0,1-.08,1.53q.24006.08991.48.17993A12.41,12.41,0,0,0,16,32V28a4.139,4.139,0,0,1,1.36-3.23A2.47543,2.47543,0,0,1,17,23.5,2.50091,2.50091,0,0,1,19.5,21a2.04812,2.04812,0,0,1,.61.09,3.99358,3.99358,0,0,1,7.78,0A2.04812,2.04812,0,0,1,28.5,21,2.50091,2.50091,0,0,1,31,23.5a2.47543,2.47543,0,0,1-.36,1.27A4.139,4.139,0,0,1,32,28v4a12.41,12.41,0,0,0,.1,1.71q.24-.09009.48-.17993A13.756,13.756,0,0,1,32.5,32Z" opacity=".07"/></svg>