<svg xmlns="http://www.w3.org/2000/svg" viewBox="0 0 48 48"><path fill="#185c37" d="M43.569,16.636L16,41v3h6c4.651-0.015,11.371-1.006,16.183-5.817	C46.262,30.103,43.569,16.636,43.569,16.636z"/><path fill="#107c42" d="M16.636,43.569c0,0-3.367-12.793,5.387-21.546s21.546-5.387,21.546-5.387L16.636,43.569z"/><radialGradient id="T5ijcTMQyhPgjbGmdgKema" cx="5.912" cy="24.596" r="24.049" gradientUnits="userSpaceOnUse"><stop offset=".841" stop-opacity=".2"/><stop offset="1" stop-opacity="0"/></radialGradient><path fill="url(#T5ijcTMQyhPgjbGmdgKema)" d="M30,25c0-2.676-0.461-5.146-1.203-7.396c-2.335,0.919-4.671,2.317-6.774,4.419	c-6.261,6.261-6.321,14.588-5.847,18.822L16,41v3h3.742C23.604,41.198,30,35.041,30,25z"/><path fill="#33c481" d="M28,25c0,13-12,19-12,19V4C16,4,28,12,28,25z"/><path fill="#21a366" d="M16,44c0,0-12-5-12-19S16,4,16,4V44z"/></svg>