<svg xmlns="http://www.w3.org/2000/svg" viewBox="0 0 48 48"><linearGradient id="QkxGt8PaAiJwtxQL2e9rNa" x1="24" x2="24" y1="5.313" y2="43.974" gradientUnits="userSpaceOnUse"><stop offset="0" stop-color="#737b80"/><stop offset="1" stop-color="#575c61"/></linearGradient><path fill="url(#QkxGt8PaAiJwtxQL2e9rNa)" d="M39,44H9c-1.105,0-2-0.895-2-2V6c0-1.105,0.895-2,2-2h30c1.105,0,2,0.895,2,2v36	C41,43.105,40.105,44,39,44z"/><path d="M29.172,6c0.53,0,1.039,0.211,1.414,0.586l7.828,7.828C38.789,14.789,39,15.298,39,15.828V41c0,0.552-0.448,1-1,1H10 c-0.552,0-1-0.448-1-1V7c0-0.552,0.448-1,1-1H29.172 M29.172,5H10C8.897,5,8,5.897,8,7v34c0,1.103,0.897,2,2,2h28 c1.103,0,2-0.897,2-2V15.828c0-0.801-0.312-1.555-0.879-2.121l-7.828-7.828C30.726,5.312,29.973,5,29.172,5L29.172,5z" opacity=".05"/><path d="M29.172,6c0.53,0,1.039,0.211,1.414,0.586l7.828,7.828C38.789,14.789,39,15.298,39,15.828V41c0,0.552-0.448,1-1,1H10 c-0.552,0-1-0.448-1-1V7c0-0.552,0.448-1,1-1H29.172 M29.172,5.5H10C9.173,5.5,8.5,6.173,8.5,7v34c0,0.827,0.673,1.5,1.5,1.5h28 c0.827,0,1.5-0.673,1.5-1.5V15.828c0-0.668-0.26-1.296-0.732-1.768l-7.828-7.828C30.467,5.76,29.839,5.5,29.172,5.5L29.172,5.5z" opacity=".07"/><linearGradient id="QkxGt8PaAiJwtxQL2e9rNb" x1="24" x2="24" y1="18.333" y2="61.003" gradientUnits="userSpaceOnUse"><stop offset="0" stop-color="#f9f9f9"/><stop offset=".26" stop-color="#f0f1f2"/><stop offset=".678" stop-color="#d9dcdf"/><stop offset="1" stop-color="#c2c8cc"/></linearGradient><path fill="url(#QkxGt8PaAiJwtxQL2e9rNb)" d="M10,6C9.448,6,9,6.448,9,7v34c0,0.552,0.448,1,1,1h28c0.552,0,1-0.448,1-1V15.828 c0-0.53-0.211-1.039-0.586-1.414l-7.828-7.828C30.211,6.211,29.702,6,29.172,6H10z"/><linearGradient id="QkxGt8PaAiJwtxQL2e9rNc" x1="24" x2="24" y1="32.467" y2="43.307" gradientUnits="userSpaceOnUse"><stop offset="0" stop-color="#737b80"/><stop offset="1" stop-color="#575c61"/></linearGradient><path fill="url(#QkxGt8PaAiJwtxQL2e9rNc)" d="M33.951,37H14.049C13.47,37,13,36.53,13,35.951V22.049C13,21.47,13.47,21,14.049,21h19.902	C34.53,21,35,21.47,35,22.049v13.902C35,36.53,34.53,37,33.951,37z"/><path fill="#fff" d="M24,27h2l2,3.003L30,27h2l-3,4l3,4h-2l-2-3l-2,3h-2l3-4L24,27z"/><polygon fill="#fff" points="19,35.236 16.382,30 15,30 15,28 17.618,28 19,30.764 22.882,23 33,23 33,25 24.118,25"/></svg>