<svg xmlns="http://www.w3.org/2000/svg" viewBox="0 0 48 48"><linearGradient id="EliNBJkabpXYjGjxbwYFda" x1="20" x2="20" y1="47.488" y2="37.428" gradientUnits="userSpaceOnUse"><stop offset="0" stop-color="#ffcf54"/><stop offset=".261" stop-color="#fdcb4d"/><stop offset=".639" stop-color="#f7c13a"/><stop offset="1" stop-color="#f0b421"/></linearGradient><polygon fill="url(#EliNBJkabpXYjGjxbwYFda)" points="21.011,43 18,43 18.989,38 22,38"/><linearGradient id="EliNBJkabpXYjGjxbwYFdb" x1="20.5" x2="20.5" y1="41.147" y2="37.822" gradientUnits="userSpaceOnUse"><stop offset="0" stop-color="#f44f5a"/><stop offset=".443" stop-color="#ee3d4a"/><stop offset="1" stop-color="#e52030"/></linearGradient><circle cx="20.5" cy="34.5" r="4.5" fill="url(#EliNBJkabpXYjGjxbwYFdb)"/><linearGradient id="EliNBJkabpXYjGjxbwYFdc" x1="40.602" x2="27.895" y1="43.359" y2="36.686" gradientUnits="userSpaceOnUse"><stop offset="0" stop-color="#21ad64"/><stop offset="1" stop-color="#088242"/></linearGradient><path fill="url(#EliNBJkabpXYjGjxbwYFdc)" d="M30.096,35.292l9.388,5.074c0.618,0.334,0.696,1.162,0.149,1.577l0,0	c-1.624,1.23-3.868,1.401-5.716,0.434l-12.163-6.365L30.096,35.292z"/><linearGradient id="EliNBJkabpXYjGjxbwYFdd" x1="43.495" x2="33.191" y1="41.047" y2="36.214" gradientUnits="userSpaceOnUse"><stop offset="0" stop-color="#f44f5a"/><stop offset=".443" stop-color="#ee3d4a"/><stop offset="1" stop-color="#e52030"/></linearGradient><path fill="url(#EliNBJkabpXYjGjxbwYFdd)" d="M32.877,34l10.377,2.493c0.683,0.164,0.971,0.944,0.549,1.485l0,0	c-1.254,1.606-3.378,2.347-5.413,1.887L25,36.838L32.877,34z"/><linearGradient id="EliNBJkabpXYjGjxbwYFde" x1="19.5" x2="19.5" y1="3.069" y2="33.219" gradientUnits="userSpaceOnUse"><stop offset="0" stop-color="#f44f5a"/><stop offset=".443" stop-color="#ee3d4a"/><stop offset="1" stop-color="#e52030"/></linearGradient><path fill="url(#EliNBJkabpXYjGjxbwYFde)" d="M33,34c-2.9,2.51-6.37,4-10.5,4C13.39,38,6,30.609,6,21.5c0-3.39,1.03-6.55,2.78-9.17	C11.66,8.029,15,6,22,6c0.15-0.01-3.03,15.229-3.3,15.089L33,34z"/><linearGradient id="EliNBJkabpXYjGjxbwYFdf" x1="22" x2="22" y1="3.062" y2="33.286" gradientUnits="userSpaceOnUse"><stop offset="0" stop-color="#f44f5a"/><stop offset=".443" stop-color="#ee3d4a"/><stop offset="1" stop-color="#e52030"/></linearGradient><path fill="url(#EliNBJkabpXYjGjxbwYFdf)" d="M30,14c0,4.37-3.53,7.94-7.89,8H22c-0.98,0-1.92-0.18-2.79-0.51	c-0.27-0.1-0.53-0.22-0.79-0.35c-0.57-0.28-1.11-0.64-1.6-1.05c-0.56-0.48-1.06-1.05-1.47-1.67C14.5,17.16,14,15.63,14,14	c0-4.27,3.36-7.77,7.58-7.99C21.72,6,21.86,6,22,6c3.08,0,5.76,1.75,7.09,4.32c0.15,0.29,0.29,0.58,0.4,0.89	C29.82,12.08,30,13.02,30,14z"/><linearGradient id="EliNBJkabpXYjGjxbwYFdg" x1="25" x2="25" y1="7.796" y2="30.464" gradientUnits="userSpaceOnUse"><stop offset="0" stop-color="#f9f9f9"/><stop offset="1" stop-color="#c2c8cc"/></linearGradient><path fill="url(#EliNBJkabpXYjGjxbwYFdg)" d="M30,14c0,1.06-0.21,2.07-0.59,3c-1.18,2.9-4,4.95-7.3,5c-0.35-0.34-0.66-0.72-0.93-1.13	C20.44,19.77,20,18.42,20,17c0-3.74,2.94-6.8,6.63-6.99C26.75,10,26.88,10,27,10c0.72,0,1.43,0.11,2.09,0.32	c0.15,0.29,0.29,0.58,0.4,0.89C29.82,12.08,30,13.02,30,14z"/><linearGradient id="EliNBJkabpXYjGjxbwYFdh" x1="23" x2="25" y1="12.999" y2="12.999" gradientUnits="userSpaceOnUse"><stop offset=".002" stop-color="#454545"/><stop offset=".013" stop-color="#464646"/><stop offset=".875" stop-color="#626262"/><stop offset="1" stop-color="#6d6d6d"/></linearGradient><circle cx="24" cy="13" r="1" fill="url(#EliNBJkabpXYjGjxbwYFdh)"/><linearGradient id="EliNBJkabpXYjGjxbwYFdi" x1="7.807" x2="33.696" y1="27.034" y2="27.034" gradientUnits="userSpaceOnUse"><stop offset="0" stop-color="#21ad64"/><stop offset="1" stop-color="#088242"/></linearGradient><path fill="url(#EliNBJkabpXYjGjxbwYFdi)" d="M29.62,32.529C27.66,34.07,25.19,35,22.5,35C16.15,35,11,29.849,11,23.5	c0-0.19,0.01-0.37,0.02-0.55c0.01-0.14,0.02-0.28,0.04-0.42c0.36-3.2,4.28-4.58,6.66-2.41l10.23,9.31l1.72,1.56	C30.13,31.409,30.1,32.14,29.62,32.529z"/><linearGradient id="EliNBJkabpXYjGjxbwYFdj" x1="18.5" x2="18.5" y1="47.488" y2="37.428" gradientUnits="userSpaceOnUse"><stop offset="0" stop-color="#ffcf54"/><stop offset=".261" stop-color="#fdcb4d"/><stop offset=".639" stop-color="#f7c13a"/><stop offset="1" stop-color="#f0b421"/></linearGradient><path fill="url(#EliNBJkabpXYjGjxbwYFdj)" d="M14.974,45c-0.373,0-0.728-0.222-0.89-0.594c-0.218-0.505,0.003-1.096,0.494-1.32	C16.156,42.365,17.832,42,19.558,42h2.469C22.564,42,23,42.447,23,43s-0.436,1-0.973,1h-2.469c-1.452,0-2.862,0.308-4.19,0.914	C15.24,44.972,15.106,45,14.974,45z"/><linearGradient id="EliNBJkabpXYjGjxbwYFdk" x1="9.239" x2="30.184" y1="25.659" y2="25.659" gradientUnits="userSpaceOnUse"><stop offset="0" stop-color="#ffcf54"/><stop offset=".261" stop-color="#fdcb4d"/><stop offset=".639" stop-color="#f7c13a"/><stop offset="1" stop-color="#f0b421"/></linearGradient><path fill="url(#EliNBJkabpXYjGjxbwYFdk)" d="M27.95,29.43c-1.8,1.75-4.25,2.82-6.95,2.82c-5.28,0-9.61-4.1-9.98-9.3	c0.01-0.14,0.02-0.28,0.04-0.42c0.04-0.37,0.13-0.71,0.26-1.03c0.98-2.44,4.29-3.3,6.4-1.38l8.28,7.54L27.95,29.43z"/><linearGradient id="EliNBJkabpXYjGjxbwYFdl" x1="12.997" x2="24.525" y1="19.895" y2="31.423" gradientUnits="userSpaceOnUse"><stop offset="0" stop-color="#f44f5a"/><stop offset=".443" stop-color="#ee3d4a"/><stop offset="1" stop-color="#e52030"/></linearGradient><path fill="url(#EliNBJkabpXYjGjxbwYFdl)" d="M26,27.659C24.53,28.51,22.82,29,21,29c-4.66,0-8.57-3.19-9.68-7.5	c0.98-2.44,4.29-3.3,6.4-1.38L26,27.659z"/><linearGradient id="EliNBJkabpXYjGjxbwYFdm" x1="30.5" x2="30.5" y1="6.937" y2="27.346" gradientUnits="userSpaceOnUse"><stop offset="0" stop-color="#ffcf54"/><stop offset=".261" stop-color="#fdcb4d"/><stop offset=".639" stop-color="#f7c13a"/><stop offset="1" stop-color="#f0b421"/></linearGradient><path fill="url(#EliNBJkabpXYjGjxbwYFdm)" d="M27,10v14c3.866,0,7-3.134,7-7C34,13.133,30.866,10,27,10z"/></svg>