<svg xmlns="http://www.w3.org/2000/svg" viewBox="0 0 48 48"><linearGradient id="MmWIWarPo6R4EP1ONMbSRa" x1="20.526" x2="27.474" y1="657.699" y2="618.301" gradientTransform="matrix(1 0 0 -1 0 662)" gradientUnits="userSpaceOnUse"><stop offset="0" stop-color="#6d6d6d"/><stop offset=".438" stop-color="#626262"/><stop offset=".998" stop-color="#454545"/></linearGradient><path fill="url(#MmWIWarPo6R4EP1ONMbSRa)" d="M44,24c0,11.045-8.955,20-20,20S4,35.045,4,24S12.955,4,24,4S44,12.955,44,24z"/><path d="M34.793,31.504l-8.049-18.537c0,0-0.302-0.662-0.332-0.715c-0.271-0.472-0.678-0.834-1.178-1.05	c-0.614-0.264-1.295-0.271-1.913-0.024c-0.62,0.248-1.106,0.723-1.368,1.335l-8.841,20.592c-0.181,0.421-0.139,0.901,0.113,1.284	C13.478,34.771,13.902,35,14.36,35h2.226c0.701,0,1.332-0.416,1.608-1.06l3.165-7.371l9.552,7.861C31.357,34.798,31.922,35,32.5,35	c0.546,0,1.065-0.174,1.506-0.504C34.932,33.798,35.255,32.567,34.793,31.504z M26.071,23.973l-2.658-2.188l0.85-1.979	L26.071,23.973z" opacity=".05"/><path d="M34.335,31.703l-8.048-18.532c0,0-0.278-0.618-0.309-0.67c-0.217-0.377-0.541-0.667-0.94-0.839	c-0.493-0.21-1.037-0.217-1.531-0.019c-0.496,0.198-0.885,0.578-1.094,1.068l-8.841,20.592c-0.114,0.266-0.088,0.569,0.071,0.811	c0.159,0.241,0.427,0.386,0.717,0.386h2.226c0.501,0,0.951-0.297,1.148-0.757l3.428-7.983l10.067,8.284	c0.356,0.293,0.808,0.456,1.271,0.456c0.437,0,0.853-0.139,1.204-0.403C34.445,33.538,34.704,32.554,34.335,31.703z M24.261,18.545	l3.097,7.133l-4.552-3.745L24.261,18.545z" opacity=".05"/><path fill="#fff" d="M33.876,31.902l-8.045-18.527c0,0-0.257-0.575-0.286-0.625c-0.155-0.27-0.395-0.495-0.703-0.628	c-0.765-0.327-1.645,0.025-1.97,0.787L14.031,33.5c-0.102,0.236,0.072,0.5,0.329,0.5h2.226c0.3,0,0.571-0.179,0.689-0.454	l3.69-8.595l10.581,8.707C31.823,33.886,32.161,34,32.5,34c0.317,0,0.635-0.101,0.903-0.302	C33.956,33.281,34.152,32.539,33.876,31.902z M22.198,22.08l2.059-4.796l4.385,10.099L22.198,22.08z"/></svg>