<svg xmlns="http://www.w3.org/2000/svg" viewBox="0 0 48 48"><circle cx="13" cy="13" r="7" fill="#33c481"/><linearGradient id="aft_UDmLNVxsaRjydVUuta" x1="28" x2="42" y1="13" y2="13" gradientUnits="userSpaceOnUse"><stop offset="0" stop-color="#42a3f2"/><stop offset="1" stop-color="#42a4eb"/></linearGradient><path fill="url(#aft_UDmLNVxsaRjydVUuta)" d="M40.133,20H29.867C28.836,20,28,19.164,28,18.133V7.867C28,6.836,28.836,6,29.867,6h10.267	C41.164,6,42,6.836,42,7.867v10.267C42,19.164,41.164,20,40.133,20z"/><linearGradient id="aft_UDmLNVxsaRjydVUutb" x1="27.35" x2="42.65" y1="34.679" y2="34.679" gradientUnits="userSpaceOnUse"><stop offset="0" stop-color="#c965eb"/><stop offset="1" stop-color="#c767e5"/></linearGradient><path fill="url(#aft_UDmLNVxsaRjydVUutb)" d="M34.454,27.536l-6.721,4.883c-0.325,0.236-0.462,0.656-0.337,1.038l2.567,7.901	C30.087,41.741,30.444,42,30.846,42h8.308c0.402,0,0.759-0.259,0.883-0.642l2.567-7.901c0.124-0.383-0.012-0.802-0.337-1.038	l-6.721-4.883C35.22,27.299,34.78,27.299,34.454,27.536z"/><path fill="#ed6c47" d="M11.715,28.666L4.832,40.613C4.477,41.23,4.922,42,5.634,42H19.4c0.712,0,1.157-0.77,0.801-1.387	l-6.883-11.947C12.962,28.049,12.071,28.049,11.715,28.666z"/></svg>