<svg xmlns="http://www.w3.org/2000/svg" viewBox="0 0 48 48"><linearGradient id="w5oICk6pdvTR1bbAPs0sua" x1="24" x2="24" y1="29.056" y2="40.983" gradientUnits="userSpaceOnUse"><stop offset="0" stop-color="#0d61a9"/><stop offset="1" stop-color="#16528c"/></linearGradient><path fill="url(#w5oICk6pdvTR1bbAPs0sua)" d="M42.362,38.203l1.364-8.034C42.913,30.65,40.361,32,37.333,32c-3.682,0-6.667-2-6.667-2	S27.682,32,24,32s-6.667-2-6.667-2s-2.985,2-6.667,2c-3.027,0-5.579-1.35-6.392-1.831l1.364,8.034C5.913,39.818,7.312,41,8.95,41	h30.1C40.688,41,42.087,39.818,42.362,38.203z"/><linearGradient id="w5oICk6pdvTR1bbAPs0sub" x1="22.253" x2="25.052" y1="2.801" y2="19.291" gradientUnits="userSpaceOnUse"><stop offset="0" stop-color="#fcfcfc"/><stop offset="1" stop-color="#c3c9cd"/></linearGradient><path fill="url(#w5oICk6pdvTR1bbAPs0sub)" d="M30.5,6c-0.215,0-0.427,0.012-0.637,0.032C28.382,4.044,26.02,2.75,23.35,2.75	c-3.713,0-6.838,2.494-7.808,5.896C12.982,8.97,11,11.151,11,13.8c0,2.872,2.328,5.2,5.2,5.2c1.182,0,13.07,0,14.3,0	c3.59,0,6.5-2.91,6.5-6.5C37,8.91,34.09,6,30.5,6z"/><linearGradient id="w5oICk6pdvTR1bbAPs0suc" x1="24" x2="24" y1="22.971" y2="28.997" gradientUnits="userSpaceOnUse"><stop offset="0" stop-color="#2aa4f4"/><stop offset="1" stop-color="#007ad9"/></linearGradient><path fill="url(#w5oICk6pdvTR1bbAPs0suc)" d="M26,27c0,1.105-0.895,2-2,2s-2-0.895-2-2c0-2,2-4,2-4S26,25,26,27z"/><linearGradient id="w5oICk6pdvTR1bbAPs0sud" x1="31.5" x2="31.5" y1="21.478" y2="25.997" gradientUnits="userSpaceOnUse"><stop offset="0" stop-color="#2aa4f4"/><stop offset="1" stop-color="#007ad9"/></linearGradient><path fill="url(#w5oICk6pdvTR1bbAPs0sud)" d="M33,24.5c0,0.828-0.672,1.5-1.5,1.5S30,25.328,30,24.5c0-1.5,1.5-3,1.5-3S33,23,33,24.5z"/><linearGradient id="w5oICk6pdvTR1bbAPs0sue" x1="16.5" x2="16.5" y1="22.478" y2="26.997" gradientUnits="userSpaceOnUse"><stop offset="0" stop-color="#2aa4f4"/><stop offset="1" stop-color="#007ad9"/></linearGradient><path fill="url(#w5oICk6pdvTR1bbAPs0sue)" d="M18,25.5c0,0.828-0.672,1.5-1.5,1.5c-0.828,0-1.5-0.672-1.5-1.5c0-1.5,1.5-3,1.5-3	S18,24,18,25.5z"/><linearGradient id="w5oICk6pdvTR1bbAPs0suf" x1="3" x2="45" y1="34" y2="34" gradientUnits="userSpaceOnUse"><stop offset="0" stop-color="#42a3f2"/><stop offset="1" stop-color="#42a4eb"/></linearGradient><path fill="url(#w5oICk6pdvTR1bbAPs0suf)" d="M44.5,26h-1.013c-0.245,0-0.455,0.178-0.494,0.42l-1.919,11.898	C40.919,39.288,40.082,40,39.1,40H8.9c-0.982,0-1.818-0.712-1.974-1.682L5.007,26.42C4.968,26.178,4.758,26,4.513,26H3.5	c-0.308,0-0.543,0.276-0.494,0.58l1.944,12.057C5.263,40.575,6.937,42,8.9,42h30.2c1.963,0,3.636-1.425,3.949-3.363l1.944-12.057	C45.043,26.276,44.808,26,44.5,26z"/></svg>