<svg xmlns="http://www.w3.org/2000/svg" viewBox="0 0 48 48"><path fill="#c48c00" d="M6,36v6c0,0.552,0.448,1,1,1h3c0-1.105,0.895-2,2-2h24c1.105,0,2,0.895,2,2h3c0.552,0,1-0.448,1-1v-6	H6z"/><path fill="#edbe00" d="M24,39H8c-1.105,0-2-0.895-2-2V7c0-1.105,0.895-2,2-2h16V39z"/><path fill="#e3a600" d="M24,5h16c1.105,0,2,0.895,2,2v30c0,1.105-0.895,2-2,2H24V5z"/><linearGradient id="SB~gcGdx56XVujhCkWeR2a" x1="27.538" x2="29.559" y1="23.538" y2="25.559" gradientUnits="userSpaceOnUse"><stop offset="0" stop-color="#4b4b4b"/><stop offset="1" stop-color="#3b3b3b"/></linearGradient><circle cx="28.5" cy="24.5" r="1.5" fill="url(#SB~gcGdx56XVujhCkWeR2a)"/><linearGradient id="SB~gcGdx56XVujhCkWeR2b" x1="18.538" x2="20.559" y1="23.538" y2="25.559" gradientUnits="userSpaceOnUse"><stop offset="0" stop-color="#4b4b4b"/><stop offset="1" stop-color="#3b3b3b"/></linearGradient><circle cx="19.5" cy="24.5" r="1.5" fill="url(#SB~gcGdx56XVujhCkWeR2b)"/></svg>