<svg xmlns="http://www.w3.org/2000/svg" viewBox="0 0 48 48"><linearGradient id="Rrl~8E_RJTJinN7FuQ6Bma" x1="23.607" x2="23.607" y1="6.169" y2="42.056" gradientTransform="translate(.37 -.01)" gradientUnits="userSpaceOnUse"><stop offset="0" stop-color="#199ae0"/><stop offset="1" stop-color="#0782d8"/></linearGradient><path fill="url(#Rrl~8E_RJTJinN7FuQ6Bma)" d="M39.002,41.97L9.033,41.999c-1.65,0.002-3.001-1.347-3.003-2.997L6.001,9.033	C5.999,7.383,7.348,6.031,8.998,6.03l29.969-0.029c1.65-0.002,3.001,1.347,3.003,2.997l0.029,29.969	C42.001,40.617,40.652,41.969,39.002,41.97z"/><path d="M30.748,15.058L30.748,15.058C29.205,13.692,27.09,13,24.462,13h-5.535	C17.864,13,17,13.864,17,14.927v20.146C17,36.136,17.864,37,18.927,37h2.36c1.062,0,1.927-0.864,1.927-1.927v-5.688h0.728	c2.729,0,4.963-0.787,6.64-2.339c1.721-1.592,2.594-3.646,2.594-6.107C33.175,18.463,32.358,16.483,30.748,15.058z M26.849,21.052	c0,1.039-0.355,1.468-0.622,1.7c-0.486,0.422-1.339,0.645-2.467,0.645h-0.546v-4.408h0.841	C26.849,18.988,26.849,20.181,26.849,21.052z" opacity=".05"/><path d="M30.417,15.432L30.417,15.432c-1.449-1.282-3.452-1.932-5.955-1.932h-5.535	c-0.787,0-1.427,0.64-1.427,1.427v20.146c0,0.787,0.64,1.427,1.427,1.427h2.36c0.787,0,1.427-0.64,1.427-1.427v-6.188h1.228	c2.6,0,4.719-0.742,6.301-2.206c1.614-1.493,2.433-3.425,2.433-5.74C32.675,18.612,31.915,16.759,30.417,15.432z M27.349,21.052	c0,0.934-0.26,1.612-0.795,2.077c-0.586,0.51-1.526,0.768-2.794,0.768h-1.046v-5.408h1.341	C26.949,18.488,27.349,19.721,27.349,21.052z" opacity=".07"/><path fill="#fff" d="M30.085,15.806C28.731,14.608,26.839,14,24.462,14h-5.536C18.414,14,18,14.415,18,14.927v20.147	C18,35.585,18.414,36,18.927,36h2.361c0.512,0,0.927-0.415,0.927-0.927v-6.688h1.728c2.469,0,4.475-0.698,5.961-2.073	c1.507-1.394,2.272-3.202,2.272-5.373C32.174,18.761,31.471,17.034,30.085,15.806z M22.214,17.988h1.841	c3.362,0,3.794,1.637,3.794,3.064c0,1.086-0.317,1.889-0.967,2.455c-0.68,0.59-1.729,0.89-3.122,0.89h-1.546V17.988z"/></svg>