<svg xmlns="http://www.w3.org/2000/svg" viewBox="0 0 48 48"><linearGradient id="8LphVAk~ZHK_5PyTm6GmDa" x1="24" x2="24" y1="3.91" y2="10.199" gradientUnits="userSpaceOnUse"><stop offset="0" stop-color="#d43a02"/><stop offset="1" stop-color="#b9360c"/></linearGradient><path fill="url(#8LphVAk~ZHK_5PyTm6GmDa)" d="M42,10H6c-1.105,0-2-0.895-2-2V6c0-1.105,0.895-2,2-2h36c1.105,0,2,0.895,2,2v2	C44,9.105,43.105,10,42,10z"/><path fill="#35c1f1" d="M32,10.001v10.004c0.303-0.033,0.625,0.12,0.731,0.479l3.211,10.918	c0.15,0.511,0.646,0.685,1.058,0.565V10.001H32z"/><path fill="#35c1f1" d="M18,10.001V19c0.474,0.046,0.923,0.35,1.045,0.927l4.659,21.963c0.15,0.706,0.716,1.068,1.296,1.094	V10.001H18z"/><path fill="#35c1f1" d="M7,10.001l4.343,24.319c0.068,0.384,0.349,0.597,0.657,0.652V10.001H7z"/><rect width="7" height=".001" x="25" y="10" fill="#0078d4"/><path fill="#0078d4" d="M25,10.001v32.983c0.615,0.028,1.245-0.322,1.419-1.067l4.992-21.396	c0.074-0.318,0.324-0.488,0.588-0.517V10.001H25z"/><path fill="#0078d4" d="M37.593,31.296L41,10.001h-4v21.966C37.287,31.883,37.534,31.662,37.593,31.296z"/><rect width="6" height=".001" x="12" y="10" fill="#0078d4"/><path fill="#0078d4" d="M12,10.001v24.971c0.387,0.07,0.82-0.116,0.944-0.589l3.785-14.509	C16.897,19.228,17.464,18.948,18,19v-8.999H12z"/></svg>