<svg xmlns="http://www.w3.org/2000/svg" viewBox="0 0 48 48"><linearGradient id="lbZIQkaZ5TtnkYJYiZ_Yxa" x1="24" x2="24" y1="654.016" y2="645.747" gradientTransform="matrix(1 0 0 -1 0 660.724)" gradientUnits="userSpaceOnUse"><stop offset="0" stop-color="#eba600"/><stop offset="1" stop-color="#c28200"/></linearGradient><path fill="url(#lbZIQkaZ5TtnkYJYiZ_Yxa)" d="M24.414,10.414l-2.536-2.536C21.316,7.316,20.553,7,19.757,7H5C3.895,7,3,7.895,3,9v30 c0,1.105,0.895,2,2,2h38c1.105,0,2-0.895,2-2V13c0-1.105-0.895-2-2-2H25.828C25.298,11,24.789,10.789,24.414,10.414z"/><linearGradient id="lbZIQkaZ5TtnkYJYiZ_Yxb" x1="24" x2="24" y1="649.87" y2="619.741" gradientTransform="matrix(1 0 0 -1 0 660.724)" gradientUnits="userSpaceOnUse"><stop offset="0" stop-color="#ffd869"/><stop offset="1" stop-color="#fec52b"/></linearGradient><path fill="url(#lbZIQkaZ5TtnkYJYiZ_Yxb)" d="M21.586,14.414l3.268-3.268C24.947,11.053,25.074,11,25.207,11H43c1.105,0,2,0.895,2,2v26 c0,1.105-0.895,2-2,2H5c-1.105,0-2-0.895-2-2V15.5C3,15.224,3.224,15,3.5,15h16.672C20.702,15,21.211,14.789,21.586,14.414z"/><linearGradient id="lbZIQkaZ5TtnkYJYiZ_Yxc" x1="16.929" x2="31.194" y1="639.795" y2="625.531" gradientTransform="matrix(1 0 0 -1 0 660.724)" gradientUnits="userSpaceOnUse"><stop offset="0" stop-color="#00bffe"/><stop offset="1" stop-color="#1d55c4"/></linearGradient><path fill="url(#lbZIQkaZ5TtnkYJYiZ_Yxc)" d="M34,28c0,5.522-4.478,10-10,10s-10-4.478-10-10s4.478-10,10-10S34,22.477,34,28z"/><linearGradient id="lbZIQkaZ5TtnkYJYiZ_Yxd" x1="17.102" x2="31.312" y1="639.884" y2="625.674" gradientTransform="matrix(1 0 0 -1 0 660.724)" gradientUnits="userSpaceOnUse"><stop offset="0" stop-color="#84e1fe"/><stop offset="1" stop-color="#167cf7"/></linearGradient><path fill="url(#lbZIQkaZ5TtnkYJYiZ_Yxd)" d="M23.885,33.254c0.115,0.341,0,0.798-0.115,1.028c-0.112,0.342-0.227,0.799-0.456,1.026 c-0.227,0.229-0.457,0.344-0.684,0.458c-0.342,0.227-0.571,0.683-0.913,1.028c0,0.112-0.457,0.693-0.571,0.693 c-0.042,0.022-0.083,0.043-0.124,0.063c-0.674-0.21-1.314-0.494-1.919-0.834c-0.004-0.012-0.008-0.024-0.013-0.036 c0-0.115-0.112-0.8-0.112-0.913c-0.115-0.343-0.229-0.8-0.344-1.142c-0.227-0.571-0.684-1.142-0.684-1.826 c0-0.572,0.113-1.14-0.229-1.599c-0.456-0.571-1.369-0.571-1.826-0.913c-0.686-0.456-1.369-1.14-1.711-1.826 c-0.082-0.135-0.137-0.26-0.182-0.384C14.003,28.05,14,28.026,14,28c0-2.678,1.059-5.105,2.774-6.9 c0.938-0.759,2.767-1.108,3.878-0.773c0.342,0.113,1.573,0.848,1.573,1.191c0,0.115,0,0.115-0.115,0.229 c-0.112,0.115-0.227,0.115-0.342,0.115c-0.342,0-1.42-0.249-1.535-0.364c-0.686-0.229-1.712,1.255-1.826,1.712 c-0.115,0.344-0.115,1.142,0.456,1.257c0.342,0,1.907-1.328,2.137-1.443c0.913-0.112,1.618,0.67,1.848,1.471 c0.342,0.913-1.587,1.795-2.274,2.025c-0.227,0.115-0.341-0.115-0.571,0c-0.569,0.227-0.906,0.737-0.974,1.42 c-0.057,0.577-0.115,1.14-0.227,1.712c-0.115,0-0.349-0.002-0.349-0.116v-0.227c0-0.344-0.115-0.801-0.456-0.915 c-0.115-0.112-0.276,0.068-0.391,0.068c-0.342,0-0.684-0.344-1.025-0.115c-0.229,0.227-0.457,0.571-0.457,0.913 c0,0.115,0,0.229,0.113,0.342c0.229,0.115,0.456-0.112,0.686,0c0.227,0,0.227,0.229,0.227,0.344 c0.229,0.342,0.456,0.799,0.8,0.913h2.282c0.342,0.115,0.913,0.227,1.142,0.457c0.112,0.227,0.112,0.456,0.227,0.684 c0.571,0.571,1.254,0.571,1.94,0.8C23.771,32.912,23.885,33.024,23.885,33.254z M30.262,20.21c-0.051,0.015-0.101,0.029-0.15,0.05 c-0.342,0.115-1.235,1.762-1.463,2.104c-0.115,0.115-0.227,0.342-0.115,0.456c0,0.115,0.115,0.115,0.229,0.115 c0.227,0.115,0.258,0.162,0.487,0.274c0.115,0,0.227,0.115,0.115,0.229c0,0,0,0.115-0.115,0.115 c-0.571,0.571-1.142,1.028-1.712,1.597c-0.115,0.116-0.191,0.345-0.191,0.457c0,0.115,0.076,0.115,0.076,0.229 s-0.115,0.115-0.229,0.227c-0.227,0.115-0.457,0.229-0.571,0.344c-0.112,0.227,0,0.571-0.112,0.799 c-0.115,0.571-0.458,1.028-0.686,1.599c-0.229,0.342-0.434,0.684-0.663,1.028c0,0.456-0.115,0.799,0.115,1.14 c0.571,0.8,1.714,0.035,2.513,0.376c0.227,0.115,0.423,0.135,0.571,0.342c0.284,0.393,0.318,1.223,0.433,1.566 c0.112,0.457,0.227,0.913,0.456,1.369c0.114,0.566,0.337,1.132,0.453,1.583C32.298,34.402,34,31.401,34,28 C34,24.849,32.539,22.043,30.262,20.21z M26.304,20.678c0.34-0.219,0.568-0.654,0.682-0.98c0.111-0.219,0.453-0.654,0.34-0.98 c-0.089-0.17-0.448-0.272-0.712-0.361C25.779,18.132,24.906,18,24,18c-0.23,0-0.455,0.019-0.681,0.035 c-0.191,0.066-0.354,0.178-0.417,0.357c-0.114,0.544,0.34,0.435,0.793,0.544c0,0,0.114,0.871,0.114,0.981 c0.114,0.545-0.227,0.871-0.227,1.414c0,0.328,0,0.872,0.227,1.09h0.114c0.114,0,0.226-0.11,0.453-0.216 c0.34-0.219,0.682-0.545,1.021-0.764C25.737,21.223,26.076,20.896,26.304,20.678z"/></svg>