<svg xmlns="http://www.w3.org/2000/svg" viewBox="0 0 48 48"><path fill="#50e6ff" d="M14,41c0,0.552,0.448,1,1,1h25c1.105,0,2-0.895,2-2V8c0-1.105-0.895-2-2-2H15c-0.552,0-1,0.448-1,1	V41z"/><linearGradient id="aF6QZjBsa_n2UXgxFd1v9a" x1="25.465" x2="4.018" y1="41.195" y2="10.429" gradientUnits="userSpaceOnUse"><stop offset="0" stop-color="#1951a8"/><stop offset=".175" stop-color="#1955b0"/><stop offset=".505" stop-color="#195ab9"/><stop offset="1" stop-color="#195bbc"/></linearGradient><path fill="url(#aF6QZjBsa_n2UXgxFd1v9a)" d="M20,6H8C6.895,6,6,6.895,6,8v32c0,1.105,0.895,2,2,2h12V6z"/><linearGradient id="aF6QZjBsa_n2UXgxFd1v9b" x1="8.298" x2="11.154" y1="8.298" y2="11.154" gradientUnits="userSpaceOnUse"><stop offset="0" stop-color="#ffc430"/><stop offset=".41" stop-color="#fec130"/><stop offset=".72" stop-color="#fcb730"/><stop offset=".998" stop-color="#f7a72f"/><stop offset="1" stop-color="#f7a72f"/></linearGradient><path fill="url(#aF6QZjBsa_n2UXgxFd1v9b)" d="M10,8c-1.105,0-2,0.895-2,2s0.895,2,2,2s2-0.895,2-2S11.105,8,10,8z"/><linearGradient id="aF6QZjBsa_n2UXgxFd1v9c" x1="14.282" x2="17.131" y1="8.282" y2="11.131" gradientUnits="userSpaceOnUse"><stop offset="0" stop-color="#9dffce"/><stop offset="1" stop-color="#50d18d"/></linearGradient><path fill="url(#aF6QZjBsa_n2UXgxFd1v9c)" d="M16,8c-1.105,0-2,0.895-2,2s0.895,2,2,2s2-0.895,2-2S17.105,8,16,8z"/><linearGradient id="aF6QZjBsa_n2UXgxFd1v9d" x1="8" x2="18" y1="15" y2="15" gradientUnits="userSpaceOnUse"><stop offset="0" stop-color="#7dd8f3"/><stop offset="1" stop-color="#45b0d0"/></linearGradient><path fill="url(#aF6QZjBsa_n2UXgxFd1v9d)" d="M17.5,16h-9C8.224,16,8,15.776,8,15.5v-1C8,14.224,8.224,14,8.5,14h9	c0.276,0,0.5,0.224,0.5,0.5v1C18,15.776,17.776,16,17.5,16z"/></svg>