<svg xmlns="http://www.w3.org/2000/svg" viewBox="0 0 48 48"><linearGradient id="0jherFstc0qdfZsmugamFa" x1="20.15" x2="28.08" y1="-611.833" y2="-566.86" gradientTransform="translate(0 614)" gradientUnits="userSpaceOnUse"><stop offset="0" stop-color="#889097"/><stop offset=".679" stop-color="#5f6b74"/><stop offset="1" stop-color="#4c5963"/></linearGradient><path fill="url(#0jherFstc0qdfZsmugamFa)" d="M41,5H7C5.895,5,5,5.895,5,7v34c0,1.105,0.895,2,2,2h34c1.105,0,2-0.895,2-2V7	C43,5.895,42.105,5,41,5z"/><linearGradient id="0jherFstc0qdfZsmugamFb" x1="20.983" x2="27.017" y1="655.113" y2="620.887" gradientTransform="matrix(1 0 0 -1 0 662)" gradientUnits="userSpaceOnUse"><stop offset="0" stop-color="#fafafb"/><stop offset=".293" stop-color="#f6f7f8"/><stop offset=".566" stop-color="#ebecee"/><stop offset=".832" stop-color="#d8dcdf"/><stop offset="1" stop-color="#c8cdd1"/></linearGradient><rect width="30" height="30" x="9" y="9" fill="url(#0jherFstc0qdfZsmugamFb)"/><linearGradient id="0jherFstc0qdfZsmugamFc" x1="16.508" x2="32.169" y1="645.492" y2="629.831" gradientTransform="matrix(1 0 0 -1 0 662)" gradientUnits="userSpaceOnUse"><stop offset="0" stop-color="#889097"/><stop offset=".331" stop-color="#848c94"/><stop offset=".669" stop-color="#78828b"/><stop offset="1" stop-color="#64717c"/></linearGradient><path fill="url(#0jherFstc0qdfZsmugamFc)" d="M34.687,21.434c-1.312,0.167-2.656-0.448-3.359-1.665c-0.702-1.217-0.563-2.688,0.237-3.741 c-1.242-1.18-2.755-2.073-4.441-2.571c-0.51,1.222-1.716,2.082-3.123,2.082s-2.613-0.86-3.123-2.082 c-1.686,0.499-3.199,1.392-4.441,2.571c0.8,1.053,0.939,2.524,0.237,3.741c-0.702,1.217-2.047,1.832-3.359,1.665 C13.116,22.259,13,23.115,13,24c0,0.885,0.116,1.741,0.313,2.566c1.312-0.167,2.656,0.448,3.359,1.665 c0.702,1.217,0.563,2.688-0.237,3.741c1.242,1.18,2.755,2.073,4.441,2.571c0.51-1.222,1.716-2.082,3.123-2.082 s2.613,0.86,3.123,2.082c1.686-0.499,3.199-1.392,4.441-2.571c-0.8-1.053-0.94-2.524-0.237-3.741 c0.702-1.217,2.047-1.832,3.359-1.665C34.884,25.741,35,24.885,35,24C35,23.115,34.884,22.259,34.687,21.434z"/><linearGradient id="0jherFstc0qdfZsmugamFd" x1="28.127" x2="19.818" y1="633.873" y2="642.182" gradientTransform="matrix(1 0 0 -1 0 662)" gradientUnits="userSpaceOnUse"><stop offset="0" stop-color="#fff"/><stop offset=".242" stop-color="#f2f2f2"/><stop offset="1" stop-color="#ccc"/></linearGradient><circle cx="24" cy="24" r="5.923" fill="url(#0jherFstc0qdfZsmugamFd)"/><linearGradient id="0jherFstc0qdfZsmugamFe" x1="20.626" x2="26.544" y1="641.374" y2="635.456" gradientTransform="matrix(1 0 0 -1 0 662)" gradientUnits="userSpaceOnUse"><stop offset="0" stop-color="#0d61a9"/><stop offset=".363" stop-color="#0e5fa4"/><stop offset=".78" stop-color="#135796"/><stop offset="1" stop-color="#16528c"/></linearGradient><circle cx="24" cy="24" r="3.605" fill="url(#0jherFstc0qdfZsmugamFe)"/><linearGradient id="0jherFstc0qdfZsmugamFf" x1="16.508" x2="32.169" y1="645.492" y2="629.831" gradientTransform="matrix(1 0 0 -1 0 662)" gradientUnits="userSpaceOnUse"><stop offset="0" stop-color="#889097"/><stop offset=".331" stop-color="#848c94"/><stop offset=".669" stop-color="#78828b"/><stop offset="1" stop-color="#64717c"/></linearGradient><path fill="url(#0jherFstc0qdfZsmugamFf)" d="M34.687,21.434c-1.312,0.167-2.656-0.448-3.359-1.665c-0.702-1.217-0.563-2.688,0.237-3.741 c-1.242-1.18-2.755-2.073-4.441-2.571c-0.51,1.222-1.716,2.082-3.123,2.082s-2.613-0.86-3.123-2.082 c-1.686,0.499-3.199,1.392-4.441,2.571c0.8,1.053,0.939,2.524,0.237,3.741c-0.702,1.217-2.047,1.832-3.359,1.665 C13.116,22.259,13,23.115,13,24c0,0.885,0.116,1.741,0.313,2.566c1.312-0.167,2.656,0.448,3.359,1.665 c0.702,1.217,0.563,2.688-0.237,3.741c1.242,1.18,2.755,2.073,4.441,2.571c0.51-1.222,1.716-2.082,3.123-2.082 s2.613,0.86,3.123,2.082c1.686-0.499,3.199-1.392,4.441-2.571c-0.8-1.053-0.94-2.524-0.237-3.741 c0.702-1.217,2.047-1.832,3.359-1.665C34.884,25.741,35,24.885,35,24C35,23.115,34.884,22.259,34.687,21.434z"/><linearGradient id="0jherFstc0qdfZsmugamFg" x1="28.127" x2="19.818" y1="633.873" y2="642.182" gradientTransform="matrix(1 0 0 -1 0 662)" gradientUnits="userSpaceOnUse"><stop offset="0" stop-color="#fff"/><stop offset=".242" stop-color="#f2f2f2"/><stop offset="1" stop-color="#ccc"/></linearGradient><circle cx="24" cy="24" r="5.923" fill="url(#0jherFstc0qdfZsmugamFg)"/><linearGradient id="0jherFstc0qdfZsmugamFh" x1="20.833" x2="26.389" y1="641.167" y2="635.611" gradientTransform="matrix(1 0 0 -1 0 662)" gradientUnits="userSpaceOnUse"><stop offset="0" stop-color="#0d61a9"/><stop offset=".363" stop-color="#0e5fa4"/><stop offset=".78" stop-color="#135796"/><stop offset="1" stop-color="#16528c"/></linearGradient><circle cx="24" cy="24" r="3.385" fill="url(#0jherFstc0qdfZsmugamFh)"/><radialGradient id="0jherFstc0qdfZsmugamFi" cx="38.032" cy="38.16" r="12.139" gradientUnits="userSpaceOnUse"><stop offset="0"/><stop offset="1" stop-opacity="0"/></radialGradient><path fill="url(#0jherFstc0qdfZsmugamFi)" d="M38,26c-6.617,0-12,5.383-12,12c0,1.786,0.403,3.476,1.105,5H41c1.105,0,2-0.895,2-2V27.105	C41.476,26.403,39.786,26,38,26z"/><linearGradient id="0jherFstc0qdfZsmugamFj" x1="30.929" x2="45.071" y1="631.071" y2="616.929" gradientTransform="matrix(1 0 0 -1 0 662)" gradientUnits="userSpaceOnUse"><stop offset="0" stop-color="#f44f5a"/><stop offset=".443" stop-color="#ee3d4a"/><stop offset="1" stop-color="#e52030"/></linearGradient><path fill="url(#0jherFstc0qdfZsmugamFj)" d="M48,38c0,5.522-4.478,10-10,10s-10-4.478-10-10s4.478-10,10-10S48,32.478,48,38z"/><path fill="#fff" d="M41.536,33.757l0.707,0.707c0.195,0.195,0.195,0.512,0,0.707l-7.071,7.071	c-0.195,0.195-0.512,0.195-0.707,0l-0.707-0.707c-0.195-0.195-0.195-0.512,0-0.707l7.071-7.071	C41.024,33.562,41.34,33.562,41.536,33.757z"/><path fill="#fff" d="M42.243,41.536l-0.707,0.707c-0.195,0.195-0.512,0.195-0.707,0l-7.071-7.071	c-0.195-0.195-0.195-0.512,0-0.707l0.707-0.707c0.195-0.195,0.512-0.195,0.707,0l7.071,7.071	C42.438,41.024,42.438,41.34,42.243,41.536z"/></svg>