<svg xmlns="http://www.w3.org/2000/svg" viewBox="0 0 48 48"><linearGradient id="UpcASOqyHrPhCm1EGzxHba" x1="12.014" x2="30.756" y1="23.537" y2="42.279" gradientUnits="userSpaceOnUse"><stop offset="0" stop-color="#25b03b"/><stop offset=".288" stop-color="#22a637"/><stop offset=".774" stop-color="#188c2b"/><stop offset="1" stop-color="#137d25"/></linearGradient><path fill="url(#UpcASOqyHrPhCm1EGzxHba)" d="M28.001,19h-8.002c0,16.944-10,9.713-10,23c0,0,0.546,2,14.001,2c13.455,0,14.001-2,14.001-2 C38.001,28.713,28.001,35.944,28.001,19z"/><linearGradient id="UpcASOqyHrPhCm1EGzxHbb" x1="14.65" x2="31.973" y1="4.694" y2="22.017" gradientUnits="userSpaceOnUse"><stop offset=".425" stop-color="#25b03b"/><stop offset=".632" stop-color="#20a135"/><stop offset="1" stop-color="#137d25"/></linearGradient><path fill="url(#UpcASOqyHrPhCm1EGzxHbb)" d="M28.289,15.524 C29.936,14.243,31,12.248,31,10c0-3.866-3.134-7-7-7s-7,3.134-7,7c0,2.248,1.064,4.243,2.711,5.524 c-1.229,0.826-2.459,1.652-3.689,2.478c0.03,0.428,0.113,0.997,0.332,1.634c0.197,0.573,0.446,1.032,0.663,1.371l6.984-0.01 l6.981,0.01c0.217-0.339,0.466-0.798,0.663-1.371c0.219-0.637,0.302-1.206,0.332-1.634C30.748,17.176,29.519,16.35,28.289,15.524z"/><path fill="#4ddb63" d="M24.683,4.727c0.372,0.973-0.526,2.556-2.006,3.536c-1.48,0.979-2.982,0.984-3.354,0.011 s0.526-2.556,2.006-3.536S24.31,3.753,24.683,4.727z"/></svg>