<svg xmlns="http://www.w3.org/2000/svg" viewBox="0 0 48 48"><path fill="#edbe00" d="M43,36H29V14h10.559c0.86,0,1.625,0.551,1.897,1.368L45,26v8C45,35.105,44.105,36,43,36"/><linearGradient id="kXlv6~4fusmd39WAtjpVja" x1="6.441" x2="24.98" y1="6.868" y2="35.245" gradientUnits="userSpaceOnUse"><stop offset="0" stop-color="#bd4ff4"/><stop offset=".587" stop-color="#a235ec"/><stop offset="1" stop-color="#8c20e5"/></linearGradient><path fill="url(#kXlv6~4fusmd39WAtjpVja)" d="M29,36H5c-1.105,0-2-0.895-2-2V9c0-1.105,0.895-2,2-2h22c1.105,0,2,0.895,2,2V36z"/><path fill="#586169" d="M42,36c0,2.761-2.238,5-5,5s-5-2.239-5-5s2.238-5,5-5S42,33.239,42,36"/><path fill="#586169" d="M18,36c0,2.761-2.239,5-5,5s-5-2.239-5-5s2.239-5,5-5S18,33.239,18,36"/><path fill="#999" d="M39,36c0,1.105-0.895,2-2,2s-2-0.895-2-2s0.895-2,2-2S39,34.895,39,36"/><path fill="#999" d="M15,36c0,1.105-0.895,2-2,2s-2-0.895-2-2s0.895-2,2-2S15,34.895,15,36"/><path fill="#ad8b00" d="M41,25h-7c-0.552,0-1-0.448-1-1v-7c0-0.552,0.448-1,1-1h5c0.432,0,0.813,0.275,0.949,0.684l2,6	C41.982,22.786,42,22.893,42,23v1C42,24.552,41.552,25,41,25"/><radialGradient id="kXlv6~4fusmd39WAtjpVjb" cx="15.5" cy="19.5" r="9.5" gradientUnits="userSpaceOnUse"><stop offset="0"/><stop offset="1" stop-opacity="0"/></radialGradient><circle cx="15.5" cy="19.5" r="9.5" fill="url(#kXlv6~4fusmd39WAtjpVjb)"/><radialGradient id="kXlv6~4fusmd39WAtjpVjc" cx="15.445" cy="11.197" r="18.942" gradientUnits="userSpaceOnUse"><stop offset="0" stop-color="#fafafb"/><stop offset="1" stop-color="#c8cdd1"/></radialGradient><circle cx="15.5" cy="19.5" r="8.5" fill="url(#kXlv6~4fusmd39WAtjpVjc)"/><path fill="#45494d" d="M15.5,20c-0.128,0-0.256-0.049-0.354-0.146c-0.195-0.195-0.195-0.512,0-0.707l4.496-4.496	c0.195-0.195,0.512-0.195,0.707,0s0.195,0.512,0,0.707l-4.496,4.496C15.756,19.951,15.628,20,15.5,20z"/><path fill="#45494d" d="M15.499,20.125c-0.094,0-0.188-0.021-0.278-0.066l-5.299-2.649c-0.309-0.154-0.435-0.529-0.279-0.838	c0.155-0.31,0.532-0.434,0.838-0.279l5.299,2.649c0.309,0.154,0.435,0.529,0.279,0.838C15.949,19.998,15.729,20.125,15.499,20.125z"/><circle cx="15.5" cy="19.5" r="1.5" fill="#1e2021"/></svg>