<svg xmlns="http://www.w3.org/2000/svg" viewBox="0 0 48 48"><linearGradient id="WfhFGXDwxbhH8Gjmwq51wa" x1="13.698" x2="26" y1="8" y2="8" gradientUnits="userSpaceOnUse"><stop offset="0" stop-color="#42a3f2"/><stop offset="1" stop-color="#42a4eb"/></linearGradient><path fill="url(#WfhFGXDwxbhH8Gjmwq51wa)" d="M14.333,8.387l-0.555-0.857c-0.152-0.236-0.079-0.558,0.161-0.704C16.806,5.091,18.81,5,19,5	h5v2h-5c0,0-1.608,0.089-3.98,1.535C14.787,8.677,14.481,8.616,14.333,8.387z M22,9h4v2h-4V9z"/><path fill="#50e6ff" d="M35,25v-3c0-4.4-3.6-8-8-8h-6c-4.4,0-8,3.6-8,8v3H35z"/><linearGradient id="WfhFGXDwxbhH8Gjmwq51wb" x1="19.224" x2="27.578" y1="15.368" y2="45.575" gradientUnits="userSpaceOnUse"><stop offset="0" stop-color="#d160f6"/><stop offset="1" stop-color="#b22bdb"/></linearGradient><path fill="url(#WfhFGXDwxbhH8Gjmwq51wb)" d="M13,22v21c0,1.105,0.895,2,2,2h18c1.105,0,2-0.895,2-2V22H13z"/><path fill="#35c1f1" d="M27,8.5V4c0-0.552-0.448-1-1-1h-4c-0.552,0-1,0.448-1,1v4.5C21,8.776,21.224,9,21.5,9h5	C26.776,9,27,8.776,27,8.5z"/><path fill="#35c1f1" d="M28,14v-2c0-0.6-0.4-1-1-1h-6c-0.6,0-1,0.4-1,1v2H28z"/><path fill="#771aa7" d="M23,22v18.5c0,0.276,0.224,0.5,0.5,0.5h1c0.276,0,0.5-0.224,0.5-0.5V22H23z"/><linearGradient id="WfhFGXDwxbhH8Gjmwq51wc" x1="23" x2="25" y1="18" y2="18" gradientUnits="userSpaceOnUse"><stop offset="0" stop-color="#42a3f2"/><stop offset="1" stop-color="#42a4eb"/></linearGradient><rect width="2" height="8" x="23" y="14" fill="url(#WfhFGXDwxbhH8Gjmwq51wc)"/></svg>