<svg xmlns="http://www.w3.org/2000/svg" viewBox="0 0 48 48"><path fill="#038387" d="M12,33v7c0,1.105,0.895,2,2,2h22c1.105,0,2-0.895,2-2v-7H12z"/><path fill="#37c6d0" d="M36,6H14c-1.105,0-2,0.895-2,2v16.005h26V8C38,6.895,37.105,6,36,6z"/><path fill="#1a9ba1" d="M12,24h26v9H12V24z"/><linearGradient id="~wKCAGg9GN4waVdrsQFW9a" x1="38" x2="44" y1="24" y2="24" gradientUnits="userSpaceOnUse"><stop offset="0" stop-color="#00696b"/><stop offset=".155" stop-color="#00787a"/><stop offset=".307" stop-color="#008183"/></linearGradient><path fill="url(#~wKCAGg9GN4waVdrsQFW9a)" d="M42,39h-4V9h4c1.105,0,2,0.895,2,2v26C44,38.105,43.105,39,42,39z"/><path d="M22.319,13H12v24h10.319C24.352,37,26,35.352,26,33.319V16.681C26,14.648,24.352,13,22.319,13z" opacity=".05"/><path d="M22.213,36H12V13.333h10.213c1.724,0,3.121,1.397,3.121,3.121v16.425	C25.333,34.603,23.936,36,22.213,36z" opacity=".07"/><path d="M22.106,35H12V13.667h10.106c1.414,0,2.56,1.146,2.56,2.56V32.44C24.667,33.854,23.52,35,22.106,35z" opacity=".09"/><linearGradient id="~wKCAGg9GN4waVdrsQFW9b" x1="4.673" x2="23.249" y1="14.673" y2="33.249" gradientUnits="userSpaceOnUse"><stop offset="0" stop-color="#058e91"/><stop offset="1" stop-color="#027175"/></linearGradient><path fill="url(#~wKCAGg9GN4waVdrsQFW9b)" d="M22,34H6c-1.105,0-2-0.895-2-2V16c0-1.105,0.895-2,2-2h16c1.105,0,2,0.895,2,2v16	C24,33.105,23.105,34,22,34z"/><path fill="#fff" d="M14.673,19.012H10v10h2.024v-3.521H14.3c1.876,0,3.397-1.521,3.397-3.397v-0.058	C17.697,20.366,16.343,19.012,14.673,19.012z M15.57,22.358c0,0.859-0.697,1.556-1.556,1.556h-1.99v-3.325h1.99	c0.859,0,1.556,0.697,1.556,1.556V22.358z"/></svg>