<svg xmlns="http://www.w3.org/2000/svg" viewBox="0 0 48 48"><linearGradient id="veGWVcbzevkjJC~~V521Ua" x1="9.813" x2="38.269" y1="108.106" y2="79.65" gradientTransform="matrix(1 0 0 -1 0 118)" gradientUnits="userSpaceOnUse"><stop offset="0" stop-color="#f44f5a"/><stop offset=".443" stop-color="#ee3d4a"/><stop offset="1" stop-color="#e52030"/></linearGradient><path fill="url(#veGWVcbzevkjJC~~V521Ua)" d="M44.163,24.122c0,11.112-9.01,20.122-20.122,20.122S3.919,35.234,3.919,24.122	S12.929,4,24.041,4S44.163,13.01,44.163,24.122z"/><path d="M28.509,36c-0.534,0-1.032-0.288-1.299-0.75L24.179,30H19v4.5c0,0.827-0.673,1.5-1.5,1.5h-2	c-0.827,0-1.5-0.673-1.5-1.5V30h-1.5c-0.827,0-1.5-0.673-1.5-1.5v-2c0-0.827,0.673-1.5,1.5-1.5c-0.827,0-1.5-0.673-1.5-1.5v-2	c0-0.827,0.673-1.5,1.5-1.5H14v-6.5c0-0.827,0.673-1.5,1.5-1.5h3.194c0.536,0,1.034,0.288,1.3,0.752L24.179,20H29v-6.5	c0-0.827,0.673-1.5,1.5-1.5h2c0.827,0,1.5,0.673,1.5,1.5V20h1.5c0.827,0,1.5,0.673,1.5,1.5v2c0,0.827-0.673,1.5-1.5,1.5l0,0	c0.827,0,1.5,0.673,1.5,1.5v2c0,0.827-0.673,1.5-1.5,1.5H34v4.5c0,0.827-0.673,1.5-1.5,1.5H28.509z M27.065,25" opacity=".05"/><path d="M28.509,35.5c-0.356,0-0.688-0.191-0.866-0.5l-3.175-5.5H18.5v5c0,0.551-0.449,1-1,1h-2	c-0.551,0-1-0.449-1-1v-5h-2c-0.551,0-1-0.449-1-1v-2c0-0.551,0.449-1,1-1h2v-1h-2c-0.551,0-1-0.449-1-1v-2c0-0.551,0.449-1,1-1h2	v-7c0-0.551,0.449-1,1-1h3.194c0.357,0,0.689,0.192,0.866,0.501l4.33,7.499h5.61v-7c0-0.551,0.449-1,1-1h2c0.551,0,1,0.449,1,1v7h2	c0.551,0,1,0.449,1,1v2c0,0.551-0.449,1-1,1h-2v1h2c0.551,0,1,0.449,1,1v2c0,0.551-0.449,1-1,1h-2v5c0,0.551-0.449,1-1,1H28.509z M29.5,30.217V29.5h-0.414L29.5,30.217z M29.5,25.5v-1h-3.3l0.577,1H29.5z M22.158,25.5l-0.577-1H18.5v1H22.158z M19.271,20.5	L18.5,19.164V20.5H19.271z" opacity=".07"/><path fill="#fff" d="M35.5,24c0.276,0,0.5-0.224,0.5-0.5v-2c0-0.276-0.224-0.5-0.5-0.5H33v-7.5c0-0.276-0.224-0.5-0.5-0.5	h-2c-0.276,0-0.5,0.224-0.5,0.5V21h-6.398l-4.474-7.75C19.038,13.095,18.873,13,18.694,13H15.5c-0.276,0-0.5,0.224-0.5,0.5V21h-2.5	c-0.276,0-0.5,0.224-0.5,0.5v2c0,0.276,0.224,0.5,0.5,0.5H15v2h-2.5c-0.276,0-0.5,0.224-0.5,0.5v2c0,0.276,0.224,0.5,0.5,0.5H15v5.5	c0,0.276,0.224,0.5,0.5,0.5h2c0.276,0,0.5-0.224,0.5-0.5V29h6.756l3.32,5.75C28.165,34.905,28.33,35,28.509,35H32.5	c0.276,0,0.5-0.224,0.5-0.5V29h2.5c0.276,0,0.5-0.224,0.5-0.5v-2c0-0.276-0.224-0.5-0.5-0.5H33v-2H35.5z M18,17.298L20.137,21H18	V17.298z M18,26v-2h3.87l1.155,2H18z M30,32.082L28.22,29H30V32.082z M30,26h-3.512l-1.155-2H30V26z"/></svg>