<svg xmlns="http://www.w3.org/2000/svg" viewBox="0 0 48 48"><path fill="#28a8ea" d="M43,8v9.757c0,0.796-0.316,1.559-0.879,2.121L20.879,41.121C20.316,41.684,19.553,42,18.757,42H9	c-1.105,0-2-0.895-2-2v-9.757c0-0.796,0.316-1.559,0.879-2.121L29.121,6.879C29.684,6.316,30.447,6,31.243,6H41	C42.105,6,43,6.895,43,8z"/><path fill="#0078d4" d="M43,30.24V40c0,1.105-0.895,2-2,2h-9.76c-0.794,0-1.556-0.315-2.117-0.877L25,37v-8	c0-2.761,2.239-5,5-5h8l4.123,4.123C42.685,28.685,43,29.446,43,30.24z"/><path fill="#50d9ff" d="M7,17.76V8c0-1.105,0.895-2,2-2h9.76c0.794,0,1.556,0.315,2.117,0.877L25,11v8c0,2.761-2.239,5-5,5	h-8l-4.123-4.123C7.315,19.315,7,18.554,7,17.76z"/><path d="M21.319,13H7v24h14.319C23.352,37,25,35.352,25,33.319V16.681C25,14.648,23.352,13,21.319,13z" opacity=".05"/><path d="M21.213,36H7V13.333h14.213c1.724,0,3.121,1.397,3.121,3.121v16.425	C24.333,34.603,22.936,36,21.213,36z" opacity=".07"/><path d="M21.106,35H7V13.667h14.106c1.414,0,2.56,1.146,2.56,2.56V32.44C23.667,33.854,22.52,35,21.106,35z" opacity=".09"/><linearGradient id="_A5CxrPmvj_opSvbtLArAa" x1="3.713" x2="22.707" y1="14.713" y2="33.707" gradientUnits="userSpaceOnUse"><stop offset="0" stop-color="#1683d9"/><stop offset="1" stop-color="#0b66cb"/></linearGradient><path fill="url(#_A5CxrPmvj_opSvbtLArAa)" d="M21,34H5c-1.105,0-2-0.895-2-2V16c0-1.105,0.895-2,2-2h16c1.105,0,2,0.895,2,2v16	C23,33.105,22.105,34,21,34z"/><path fill="#fff" d="M16.023,20.625h-4.317v2.524h4.041v1.618h-4.041v2.622h4.547V29H9.747V19h6.276L16.023,20.625z"/></svg>