<svg xmlns="http://www.w3.org/2000/svg" viewBox="0 0 48 48"><linearGradient id="zAjPVhStIie9_4cbYDbeTa" x1="14.786" x2="33.076" y1="31.187" y2="49.477" gradientUnits="userSpaceOnUse"><stop offset="0" stop-color="#0d61a9"/><stop offset="1" stop-color="#16528c"/></linearGradient><path fill="url(#zAjPVhStIie9_4cbYDbeTa)" d="M24,30.571c-8.837,0-16,4.921-16,10.286V42c0,1.105,0.895,2,2,2h28c1.105,0,2-0.895,2-2	v-1.143C40,35.492,32.837,30.571,24,30.571z"/><path fill="#fff" d="M29,30.079C29,37.991,24,42,24,42s-5-4.009-5-11.921C19,27.442,19,26,19,26h10	C29,26,29,27.442,29,30.079z"/><path fill="#fff" d="M29,30.079C29,37.991,24,42,24,42s-5-4.009-5-11.921C19,27.442,19,26,19,26h10	C29,26,29,27.442,29,30.079z"/><path fill="#d6a121" d="M29,30c0,1.897-5,4-5,4s-5-2.103-5-4c0-2.637,0-7.035,0-7.035h10C29,22.965,29,27.363,29,30z"/><path fill="#d32f2f" d="M22,35l1,1l-0.781,4.047C23.187,41.339,24,42,24,42s0.813-0.661,1.781-1.953L25,36l1-1l-2-1L22,35z"/><linearGradient id="zAjPVhStIie9_4cbYDbeTb" x1="32.917" x2="34.251" y1="20" y2="20" gradientUnits="userSpaceOnUse"><stop offset="0" stop-color="#c48f0c"/><stop offset=".251" stop-color="#d19b16"/><stop offset=".619" stop-color="#dca51f"/><stop offset="1" stop-color="#e0a922"/></linearGradient><path fill="url(#zAjPVhStIie9_4cbYDbeTb)" d="M32.916,18h-0.527v4h0.703c0.515,0,0.954-0.312,1.041-0.74l0.344-1.703	C34.642,18.743,33.897,18,32.916,18z"/><linearGradient id="zAjPVhStIie9_4cbYDbeTc" x1="-887.083" x2="-885.749" y1="20" y2="20" gradientTransform="matrix(-1 0 0 1 -872 0)" gradientUnits="userSpaceOnUse"><stop offset="0" stop-color="#c48f0c"/><stop offset=".251" stop-color="#d19b16"/><stop offset=".619" stop-color="#dca51f"/><stop offset="1" stop-color="#e0a922"/></linearGradient><path fill="url(#zAjPVhStIie9_4cbYDbeTc)" d="M15.084,18h0.527v4h-0.703c-0.515,0-0.954-0.312-1.041-0.74l-0.344-1.703	C13.358,18.743,14.103,18,15.084,18z"/><radialGradient id="zAjPVhStIie9_4cbYDbeTd" cx="42.259" cy="26.849" r="12.224" gradientTransform="translate(-13.257 -4.971) scale(.8816)" gradientUnits="userSpaceOnUse"><stop offset="0" stop-color="#ffcf54"/><stop offset=".261" stop-color="#fdcb4d"/><stop offset=".639" stop-color="#f7c13a"/><stop offset="1" stop-color="#f0b421"/></radialGradient><path fill="url(#zAjPVhStIie9_4cbYDbeTd)" d="M24,6.4c-4.441,0-9,0.675-9,10.275c0,0.768,0,5.877,0,6.698C15,26.8,20.4,31,24,31	s9-4.2,9-7.627c0-0.821,0-5.929,0-6.698C33,7.075,28.441,6.4,24,6.4z"/><radialGradient id="zAjPVhStIie9_4cbYDbeTe" cx="32.557" cy="13.197" r="28.915" gradientTransform="translate(-13.257 -4.971) scale(.8816)" gradientUnits="userSpaceOnUse"><stop offset="0" stop-color="#c26715"/><stop offset=".508" stop-color="#b85515"/><stop offset="1" stop-color="#ad3f16"/></radialGradient><path fill="url(#zAjPVhStIie9_4cbYDbeTe)" d="M24,5.545c-4.354,0-5,1.636-5,1.636c-1.77,0.261-5,2.854-5,5.818c0,1.654,0.265,2.876,1,7	c0.545-6.545,2.249-9,4-9c1.267,0,2.273,1,5,1c2.303,0,2.875-1,5-1c3,0,4,7.968,4,9c0.601-3.01,1-5.555,1-7	C34,9.57,30.209,5.545,24,5.545z"/><radialGradient id="zAjPVhStIie9_4cbYDbeTf" cx="47.238" cy="15.133" r="33.398" gradientTransform="matrix(.8431 0 0 .8816 -17.262 -4.971)" gradientUnits="userSpaceOnUse"><stop offset="0" stop-color="#c26715"/><stop offset=".508" stop-color="#b85515"/><stop offset="1" stop-color="#ad3f16"/></radialGradient><path fill="url(#zAjPVhStIie9_4cbYDbeTf)" d="M24.219,5c-4.164,0-5.216,2.182-5.216,2.182c-0.042,1.159,0.522,2.182,0.522,2.182	S20.285,11,24.625,11C27.245,11,31,9.365,31,5C31,5,30.157,5,24.219,5z"/></svg>