<svg xmlns="http://www.w3.org/2000/svg" xmlns:xlink="http://www.w3.org/1999/xlink" data-name="Layer 1" viewBox="0 0 48 48"><defs><linearGradient id="tZ~kdjPxWzMguwO3RTPj9a" x1="23.999" x2="23.999" y1="-6.979" y2="62.426" gradientUnits="userSpaceOnUse"><stop offset="0" stop-color="#fed100"/><stop offset="1" stop-color="#e36001"/></linearGradient><linearGradient id="tZ~kdjPxWzMguwO3RTPj9b" x1="30.35" x2="30.35" y1="-11.218" y2="42.308" xlink:href="#tZ~kdjPxWzMguwO3RTPj9a"/><linearGradient id="tZ~kdjPxWzMguwO3RTPj9c" x1="17.651" x2="17.651" y1="-11.218" y2="42.308" xlink:href="#tZ~kdjPxWzMguwO3RTPj9a"/><linearGradient id="tZ~kdjPxWzMguwO3RTPj9d" x1="23.999" x2="23.999" y1="-11.218" y2="42.308" xlink:href="#tZ~kdjPxWzMguwO3RTPj9a"/></defs><ellipse cx="24" cy="3.999" fill="#21a366" rx="2" ry="3"/><path fill="url(#tZ~kdjPxWzMguwO3RTPj9a)" d="M38,31.9992a13.99631,13.99631,0,0,1-7.28,12.28,13.81436,13.81436,0,0,1-3.96,1.45c-.21.04-.42.08-.63.11a14.05437,14.05437,0,0,1-2.84.14,11.67967,11.67967,0,0,1-1.45-.15c-.2-.03-.39-.06995-.59-.11a13.75928,13.75928,0,0,1-3.88-1.41,13.96907,13.96907,0,0,1-3.93-21.5,10.1281,10.1281,0,0,0,2.56-6.66v-5.15a6.91053,6.91053,0,0,1,1.84-4.72,6.83208,6.83208,0,0,1,3.46-2.07,4.528,4.528,0,0,1,.53-.11,6.44466,6.44466,0,0,1,1.17-.1h2a6.44466,6.44466,0,0,1,1.17.1,4.528,4.528,0,0,1,.53.11,6.83208,6.83208,0,0,1,3.46,2.07,6.91053,6.91053,0,0,1,1.84,4.72v5.15a10.098,10.098,0,0,0,2.53,6.64A13.90731,13.90731,0,0,1,38,31.9992Z"/><path fill="url(#tZ~kdjPxWzMguwO3RTPj9b)" d="M31.64,22.29919c-.72-1.29-.69-3.11-.66-5.03.01-.42.02-.85.02-1.27v-5a13.68573,13.68573,0,0,0-.84-4.72,6.83208,6.83208,0,0,0-3.46-2.07,10.35725,10.35725,0,0,1,2.3,6.79v5c0,.41-.01.82-.02,1.24-.03,2.1-.07,4.27.92,6.04a18.07882,18.07882,0,0,1,2.1,8.72c0,5.96-2.27,11.52-5.24,13.73a13.81436,13.81436,0,0,0,3.96-1.45A23.677,23.677,0,0,0,34,31.9992,20.06215,20.06215,0,0,0,31.64,22.29919Z"/><path fill="url(#tZ~kdjPxWzMguwO3RTPj9c)" d="M16.03,33.16918a18.3344,18.3344,0,0,1,2.06-9.87c1-1.78.96-3.98.92-6.1,0-.4-.01-.80005-.01-1.2v-5a10.35725,10.35725,0,0,1,2.3-6.79,6.83208,6.83208,0,0,0-3.46,2.07,13.68573,13.68573,0,0,0-.84,4.72v5c0,.41.01.83.01,1.24.04,1.94.07,3.77-.67,5.09a20.23856,20.23856,0,0,0-2.3,10.95,23.49069,23.49069,0,0,0,3.33,11.03,13.75928,13.75928,0,0,0,3.88,1.41C18.36,43.51916,16.31,38.1292,16.03,33.16918Z"/><path fill="url(#tZ~kdjPxWzMguwO3RTPj9d)" d="M27.24,22.59918a30.90708,30.90708,0,0,1-.25-5.34l.01-6.26a24.86266,24.86266,0,0,0-.83-6.9,6.44466,6.44466,0,0,0-1.17-.1H23a6.44466,6.44466,0,0,0-1.17.1,24.86266,24.86266,0,0,0-.83,6.9v6.23a29.70784,29.70784,0,0,1-.25,5.4,55.09172,55.09172,0,0,0-.74,10.62c.01.45.18,8.59,1.83,12.58a11.67967,11.67967,0,0,0,1.45.15,14.05437,14.05437,0,0,0,2.84-.14c1.49-3.56,1.87-10.59,1.87-13.84A53.20168,53.20168,0,0,0,27.24,22.59918Zm-3.25,23.18c-.8-1.3-1.86-6.27-1.98-12.57a52.44389,52.44389,0,0,1,.71-10.21,31.64585,31.64585,0,0,0,.28-5.79v-6.21c0-4,.62-6.24,1-6.93.38.69,1,2.93,1,6.93l-.01,6.25a32.70208,32.70208,0,0,0,.28,5.72,50.90692,50.90692,0,0,1,.73,9.03C26,39.26916,24.78,44.45916,23.99,45.77917Z"/></svg>