<svg xmlns="http://www.w3.org/2000/svg" viewBox="0 0 48 48"><linearGradient id="l4886X3yGcz6zxdDnwATJa" x1="12.686" x2="35.58" y1="4.592" y2="41.841" gradientUnits="userSpaceOnUse"><stop offset="0" stop-color="#21ad64"/><stop offset="1" stop-color="#088242"/></linearGradient><path fill="url(#l4886X3yGcz6zxdDnwATJa)" d="M42,8H6c-1.105,0-2,0.895-2,2v26c0,1.105,0.895,2,2,2h8v7.998	c0,0.891,1.077,1.337,1.707,0.707L24.412,38H42c1.105,0,2-0.895,2-2V10C44,8.895,43.105,8,42,8z"/><path fill="#fff" d="M27,17H15c-1.103,0-2,0.897-2,2v8c0,1.103,0.897,2,2,2h12c1.103,0,2-0.897,2-2v-8	C29,17.897,28.103,17,27,17z"/><path fill="#fff" d="M35.742,18.062c-0.159-0.088-0.354-0.083-0.507,0.014l-4,2.5C31.089,20.667,31,20.828,31,21v4	c0,0.172,0.089,0.333,0.235,0.424l4,2.5C35.315,27.975,35.408,28,35.5,28c0.083,0,0.167-0.021,0.242-0.062	C35.901,27.849,36,27.682,36,27.5v-9C36,18.318,35.901,18.151,35.742,18.062z"/></svg>