<svg xmlns="http://www.w3.org/2000/svg" viewBox="0 0 48 48"><linearGradient id="ol_JkVnDjWEeUNheAaUf6a" x1="27" x2="27" y1="5.441" y2="26.845" gradientUnits="userSpaceOnUse"><stop offset="0" stop-color="#21ad64"/><stop offset="1" stop-color="#088242"/></linearGradient><path fill="url(#ol_JkVnDjWEeUNheAaUf6a)" d="M35.6,17.47C35.847,17.034,36,16.537,36,16c0-1.657-1.343-3-3-3c0-1.657-1.343-3-3-3	c0-1.657-1.343-3-3-3s-3,1.343-3,3c-1.657,0-3,1.343-3,3c-1.657,0-3,1.343-3,3c0,0.537,0.153,1.034,0.4,1.47	C17.561,18.002,17,18.933,17,20c0,1.657,1.343,3,3,3h14c1.657,0,3-1.343,3-3C37,18.933,36.439,18.002,35.6,17.47z"/><linearGradient id="ol_JkVnDjWEeUNheAaUf6b" x1="15.5" x2="15.5" y1="2.588" y2="30.715" gradientUnits="userSpaceOnUse"><stop offset="0" stop-color="#ffcf7b"/><stop offset=".196" stop-color="#fecd76"/><stop offset=".439" stop-color="#fac666"/><stop offset=".709" stop-color="#f3bc4d"/><stop offset=".995" stop-color="#eaad2a"/><stop offset="1" stop-color="#eaad29"/></linearGradient><path fill="url(#ol_JkVnDjWEeUNheAaUf6b)" d="M20,21h-9V7.5C11,5.015,13.015,3,15.5,3h0C17.985,3,20,5.015,20,7.5V21z"/><linearGradient id="ol_JkVnDjWEeUNheAaUf6c" x1="23.956" x2="23.956" y1="19.647" y2="49.922" gradientUnits="userSpaceOnUse"><stop offset="0" stop-color="#eba84b"/><stop offset="1" stop-color="#d97218"/></linearGradient><path fill="url(#ol_JkVnDjWEeUNheAaUf6c)" d="M38.75,42.78c0.13,1.18-0.79,2.22-1.98,2.22H11.36c-1.23,0-2.18-1.11-1.97-2.33l0.99-4.71	L11,35L9.14,22.12C9.07,21.53,9.53,21,10.13,21h27.65c0.63,0,1.1,0.58,0.98,1.2L37,31l0.44,2.94L38.75,42.78z"/><linearGradient id="ol_JkVnDjWEeUNheAaUf6d" x1="28" x2="28" y1="14.5" y2="24.478" gradientUnits="userSpaceOnUse"><stop offset="0" stop-color="#f9f9f9"/><stop offset=".251" stop-color="#f1f2f3"/><stop offset=".631" stop-color="#dde0e2"/><stop offset="1" stop-color="#c2c8cc"/></linearGradient><polygon fill="url(#ol_JkVnDjWEeUNheAaUf6d)" points="32,21 24,21 26,14 30,14"/><linearGradient id="ol_JkVnDjWEeUNheAaUf6e" x1="28" x2="28" y1="12.103" y2="15.898" gradientUnits="userSpaceOnUse"><stop offset="0" stop-color="#32bdef"/><stop offset="1" stop-color="#1ea2e4"/></linearGradient><path fill="url(#ol_JkVnDjWEeUNheAaUf6e)" d="M30,15h-4c-0.552,0-1-0.448-1-1v0c0-0.552,0.448-1,1-1h4c0.552,0,1,0.448,1,1v0	C31,14.552,30.552,15,30,15z"/><path fill="#e38101" d="M16.397,10.397c-0.953,0.953-2.181,1.396-2.904,1.585c-0.321,0.087-0.566-0.159-0.479-0.479	c0.015-0.051,0.03-0.108,0.045-0.165c0.21-0.731,0.656-1.855,1.54-2.739c0.884-0.884,2.002-1.33,2.736-1.537	c0.06-0.018,0.117-0.033,0.168-0.048c0.321-0.087,0.566,0.159,0.479,0.479C17.794,8.216,17.35,9.444,16.397,10.397z"/><path fill="#e38101" d="M16.397,17.397c-0.953,0.953-2.181,1.396-2.904,1.585c-0.321,0.087-0.566-0.159-0.479-0.479	c0.015-0.051,0.03-0.108,0.045-0.165c0.21-0.731,0.656-1.855,1.54-2.739c0.884-0.884,2.002-1.33,2.736-1.537	c0.06-0.018,0.117-0.033,0.168-0.048c0.321-0.087,0.566,0.159,0.479,0.479C17.794,15.216,17.35,16.444,16.397,17.397z"/><linearGradient id="ol_JkVnDjWEeUNheAaUf6f" x1="13.689" x2="13.689" y1="25.162" y2="47.729" gradientUnits="userSpaceOnUse"><stop offset="0" stop-color="#c26715"/><stop offset="0" stop-color="#c26715"/><stop offset=".51" stop-color="#b85515"/><stop offset="1" stop-color="#ad3f16"/></linearGradient><path fill="url(#ol_JkVnDjWEeUNheAaUf6f)" d="M16.53,37.31l-6.15,0.65L11,35l5.6,1.33C17.17,36.46,17.11,37.25,16.53,37.31z"/><linearGradient id="ol_JkVnDjWEeUNheAaUf6g" x1="34.221" x2="34.221" y1="25.162" y2="47.729" gradientUnits="userSpaceOnUse"><stop offset="0" stop-color="#c26715"/><stop offset="0" stop-color="#c26715"/><stop offset=".51" stop-color="#b85515"/><stop offset="1" stop-color="#ad3f16"/></linearGradient><path fill="url(#ol_JkVnDjWEeUNheAaUf6g)" d="M37.44,33.94l-5.97-0.63c-0.58-0.06-0.64-0.85-0.07-0.98L37,31L37.44,33.94z"/></svg>