<svg xmlns="http://www.w3.org/2000/svg" viewBox="0 0 48 48"><path fill="#ffac00" d="M0.318,22.7c-0.124,0.089-0.177,0.248-0.131,0.393c0.047,0.145,0.182,0.244,0.334,0.244	c1.334,0,3.409,0,3.409,0s0.737-4.776,1.007-6.525c0.008-0.05,0.051-0.087,0.102-0.088c0.051,0,0.094,0.036,0.103,0.086	c0.228,1.341,0.758,4.465,0.992,5.848c0.067,0.392,0.406,0.679,0.804,0.679c0.161,0,0.328,0,0.478,0c0.298,0,0.569-0.171,0.696-0.44	c0.602-1.265,2.334-4.907,2.964-6.23c0.02-0.042,0.067-0.063,0.112-0.051c0.045,0.012,0.074,0.055,0.07,0.101	c-0.156,1.664-0.623,6.62-0.623,6.62h2.698c0.132,0,0.251-0.079,0.302-0.201c0.051-0.122,0.024-0.262-0.069-0.356	c-0.363-0.369-0.773-0.785-0.773-0.785s0.529-5.677,0.692-7.423c0.012-0.129-0.031-0.258-0.118-0.354	c-0.087-0.096-0.211-0.151-0.341-0.151c-0.521,0-1.326,0-1.829,0c-0.282,0-0.541,0.157-0.671,0.407	c-0.678,1.305-2.754,5.296-2.754,5.296s-0.784-3.733-1.083-5.159c-0.067-0.317-0.346-0.544-0.671-0.544c-0.525,0-1.304,0-1.806,0	c-0.285,0-0.532,0.2-0.591,0.479c-0.343,1.624-1.439,6.821-1.439,6.821S1.124,22.125,0.318,22.7z"/><path fill="#ffac00" d="M23.371,14.907c0-0.368,0.299-0.667,0.667-0.667c1.156,0,3.411,0,3.411,0	c0.501,0.01,1.933,0.559,2.055,1.822c0.031,0.247,0.037,0.482,0.001,0.7c0,0,0.01,1.115-1.429,1.498c0,0,1.841,0.438,2.098,1.778	c0,0,0.191,0.945-0.048,1.58c0,0-0.518,1.686-2.377,1.718c0,0-2.566,0-3.769,0c-0.161,0-0.316-0.064-0.43-0.178	c-0.114-0.114-0.178-0.269-0.178-0.43C23.371,21.092,23.371,16.609,23.371,14.907z"/><path fill="#fff" d="M25.412,21.871v-2.168h1.645c0,0,0.896,0.374,0.896,1.057c0,0-0.02,0.85-0.896,1.111H25.412z"/><path fill="#fff" d="M25.396,17.442v-1.881l1.365-0.019c0,0,0.721,0.373,0.706,0.983c0,0,0.054,0.902-0.801,0.916H25.396 z"/><path fill="#ffac00" d="M30.601,15.569c0,0-0.273-0.481-0.5-0.882c-0.063-0.111-0.062-0.246,0.002-0.356	c0.064-0.11,0.181-0.177,0.308-0.177c0.616,0,1.56,0,2.179,0c0.138,0,0.267,0.069,0.343,0.184c0.076,0.115,0.09,0.26,0.037,0.388	c-0.164,0.392-0.353,0.843-0.353,0.843l0.291,6.425c0,0,0.332,0.419,0.625,0.788c0.081,0.103,0.097,0.243,0.04,0.361	c-0.057,0.118-0.177,0.193-0.308,0.193c-0.708,0-1.785,0-2.449,0c-0.128,0-0.247-0.066-0.315-0.174	c-0.068-0.108-0.076-0.244-0.02-0.359c0.204-0.425,0.456-0.95,0.456-0.95L30.601,15.569z"/><path fill="#ffac00" d="M34.937,23.337c-0.248,0-0.455-0.191-0.474-0.439c-0.116-1.519-0.501-6.547-0.628-8.206	c-0.011-0.138,0.037-0.275,0.131-0.377c0.094-0.102,0.227-0.16,0.366-0.16c0.304,0,0.679,0,0.969,0c0.26,0,0.478,0.199,0.5,0.459	c0.135,1.563,0.569,6.587,0.569,6.587h3.006c0.286,0,0.525,0.216,0.554,0.5c0.035,0.343,0.082,0.796,0.117,1.139	c0.013,0.127-0.028,0.254-0.114,0.348c-0.086,0.095-0.207,0.149-0.335,0.149C38.515,23.337,35.964,23.337,34.937,23.337z"/><path fill="#ffac00" d="M40.568,23.337l-1.342-9.268c0,0,3.541-0.101,4.675-0.133c0.209-0.006,0.403,0.112,0.493,0.301	c0.081,0.17,0.165,0.345,0.165,0.345s-0.043,0.256-0.081,0.488c-0.036,0.215-0.216,0.375-0.433,0.385	c-0.802,0.038-2.622,0.125-2.622,0.125l0.285,1.882c0,0,1.729-0.033,2.571-0.049c0.273-0.005,0.523,0.154,0.635,0.404	c0.081,0.183,0.159,0.357,0.159,0.357s-0.037,0.322-0.068,0.6c-0.026,0.229-0.216,0.403-0.446,0.41	c-0.795,0.024-2.493,0.074-2.493,0.074l0.214,2.025h3.393c0,0,1.253,0.884,2.114,1.492c0.11,0.078,0.157,0.217,0.116,0.346	c-0.041,0.128-0.16,0.215-0.294,0.215C45.473,23.337,40.568,23.337,40.568,23.337z"/><path fill="#ffac00" d="M3.427,25.527c0,0,0.101-0.781,0.156-1.204c0.02-0.151,0.15-0.262,0.302-0.259	c0.338,0.008,0.922,0.021,1.312,0.03c0.1,0.002,0.194,0.048,0.258,0.125c0.064,0.077,0.091,0.178,0.075,0.277	c-0.059,0.358-0.136,0.831-0.136,0.831l-0.827,5.447h3.08l-0.299,1.643c0,0-2.969,0.21-4.401,0.311	c-0.182,0.013-0.36-0.059-0.483-0.194c-0.123-0.135-0.176-0.319-0.146-0.499C2.634,30.184,3.427,25.527,3.427,25.527z"/><path fill="#ffac00" d="M8.604,31.658c-0.176,0-0.343-0.076-0.458-0.209c-0.115-0.133-0.166-0.309-0.141-0.483	c0.204-1.401,0.664-4.556,0.861-5.911c0.053-0.367,0.368-0.639,0.739-0.639c0.803,0,2.159,0,2.913,0c0.14,0,0.273,0.059,0.367,0.163	c0.094,0.104,0.139,0.242,0.125,0.382c-0.013,0.133-0.028,0.275-0.041,0.404c-0.026,0.262-0.247,0.461-0.51,0.461	c-0.44,0-1.096,0-1.53,0c-0.254,0-0.467,0.191-0.495,0.443c-0.014,0.127-0.03,0.268-0.045,0.402	c-0.016,0.146,0.03,0.291,0.127,0.401c0.097,0.11,0.236,0.173,0.383,0.175c0.388,0.005,0.894,0.011,1.254,0.016	c0.117,0.001,0.227,0.052,0.305,0.139c0.078,0.087,0.115,0.203,0.103,0.319c-0.015,0.148-0.033,0.314-0.048,0.462	c-0.027,0.26-0.242,0.461-0.504,0.471c-0.416,0.015-1.028,0.037-1.447,0.052c-0.268,0.01-0.489,0.212-0.524,0.477	C10.021,29.325,10,29.485,9.98,29.638c-0.02,0.157,0.028,0.314,0.133,0.433c0.105,0.118,0.256,0.185,0.414,0.183	c0.41-0.004,0.946-0.01,1.367-0.015c0.176-0.002,0.345,0.07,0.465,0.199c0.12,0.129,0.181,0.302,0.167,0.478	c-0.006,0.072-0.012,0.145-0.017,0.215c-0.024,0.298-0.272,0.527-0.571,0.527C11.113,31.658,9.522,31.658,8.604,31.658z"/><path fill="#ffac00" d="M19.293,25.47c-0.016,0.177-0.111,0.337-0.259,0.435c-0.148,0.098-0.332,0.125-0.501,0.072	c-0.585-0.215-1.461-0.386-2.225-0.07c-1.487,0.617-2.141,2.804-0.844,3.913c0,0,0.88,0.725,2.192,0.212c0,0,0.057-0.51,0.098-0.887	c0.011-0.103-0.02-0.206-0.087-0.285c-0.067-0.079-0.164-0.127-0.267-0.132c-0.137-0.007-0.293-0.015-0.44-0.022	c-0.144-0.007-0.279-0.073-0.374-0.182c-0.095-0.109-0.141-0.252-0.128-0.395c0.009-0.099,0.018-0.201,0.027-0.299	c0.026-0.296,0.274-0.523,0.571-0.524c0.516-0.001,1.304-0.003,1.845-0.005c0.157,0,0.307,0.063,0.416,0.176	c0.109,0.113,0.167,0.265,0.162,0.421c-0.025,0.699-0.066,1.849-0.091,2.544c-0.014,0.391-0.244,0.741-0.598,0.908	c-0.763,0.303-2.144,0.727-3.615,0.307c0,0-2.001-0.334-2.11-3.251c0.028-1.243,0.74-3.823,3.264-4.002c0,0,1.536-0.126,2.494,0.057	c0.312,0.12,0.506,0.433,0.476,0.765C19.308,25.308,19.301,25.389,19.293,25.47z"/><path fill="#ffac00" d="M21.175,31.544c-0.187,0-0.367-0.075-0.497-0.209c-0.131-0.134-0.202-0.315-0.198-0.502	c0.03-1.37,0.097-4.361,0.127-5.721c0.009-0.388,0.325-0.697,0.713-0.697c0.823,0,2.17,0,2.88,0c0.261,0,0.472,0.211,0.472,0.472	c0,0.103,0,0.212,0,0.314c0,0.259-0.21,0.469-0.469,0.469c-0.44,0-1.093,0-1.521,0c-0.115,0-0.225,0.046-0.307,0.127	c-0.081,0.081-0.127,0.192-0.127,0.307c0,0.186,0,0.405,0,0.596c0,0.128,0.051,0.25,0.141,0.341c0.09,0.09,0.213,0.141,0.341,0.141	c0.336,0,0.786,0,1.145,0c0.332,0,0.603,0.266,0.609,0.597c0.001,0.065,0.003,0.131,0.004,0.196c0.003,0.167-0.06,0.329-0.177,0.449	c-0.116,0.12-0.276,0.189-0.443,0.191c-0.421,0.005-0.962,0.012-1.32,0.016c-0.214,0.003-0.386,0.177-0.386,0.391	c0,0.19,0,0.419,0,0.614c0,0.236,0.189,0.43,0.425,0.434c0.467,0.01,1.219,0.025,1.738,0.036c0.319,0.007,0.574,0.267,0.574,0.586	c0,0.076,0,0.154,0,0.231c0,0.343-0.278,0.621-0.621,0.621C23.463,31.544,22.034,31.544,21.175,31.544z"/><path fill="#ffac00" d="M26.252,31.544c-0.17,0-0.332-0.067-0.453-0.187c-0.12-0.12-0.187-0.283-0.187-0.453	c0-1.33,0-4.384,0-5.775c0-0.394,0.32-0.714,0.714-0.714c0.26,0,0.539,0,0.74,0c0.179,0,0.348,0.086,0.453,0.231	c0.673,0.928,3.14,4.332,3.14,4.332s-0.126-2.634-0.187-3.9c-0.008-0.173,0.055-0.342,0.174-0.467	c0.119-0.125,0.285-0.196,0.458-0.196c0.106,0,0.216,0,0.321,0c0.349,0,0.637,0.274,0.654,0.623	c0.063,1.288,0.208,4.245,0.279,5.686c0.01,0.214-0.067,0.422-0.215,0.577c-0.148,0.155-0.352,0.243-0.566,0.243	c-0.45,0-0.918,0-0.918,0l-3.507-4.933c0,0,0.089,3.075,0.126,4.369c0.004,0.148-0.052,0.292-0.155,0.398	c-0.103,0.106-0.245,0.166-0.393,0.166C26.577,31.544,26.41,31.544,26.252,31.544z"/><path fill="#ffac00" d="M34.444,31.544c-0.447,0-0.819-0.341-0.859-0.786c-0.117-1.334-0.355-4.031-0.479-5.44	c-0.02-0.232,0.057-0.462,0.215-0.633c0.157-0.172,0.379-0.27,0.612-0.27c0.997,0,2.458,0,2.458,0s2.082,0.114,3.051,1.939	c0,0,0.884,1.568,0.285,3.308c0,0-0.428,1.454-2.224,1.882H34.444z"/><path fill="#fff" d="M35.605,30.147c-0.2,0-0.366-0.154-0.381-0.353c-0.06-0.759-0.202-2.552-0.273-3.445 c-0.011-0.135,0.036-0.269,0.128-0.369c0.092-0.1,0.222-0.156,0.357-0.156c0.406,0,0.899,0,0.899,0s1.625,0.644,1.682,2.298 c0,0,0.228,1.397-1.141,2.025H35.605z"/><path fill="#ffac00" d="M41.01,32.129c-0.247-0.102-0.412-0.338-0.422-0.605c-0.017-0.22-0.028-0.496-0.037-0.742	c-0.005-0.135,0.063-0.263,0.179-0.334c0.115-0.071,0.26-0.074,0.378-0.008c0.38,0.158,0.979,0.34,1.87,0.477	c0.641,0.099,1.517-0.643,0.519-1.311c0,0-1.523-0.681-1.973-0.971c0,0-1.466-0.913-1.588-1.825c0,0-0.52-1.625,1.006-2.212	c0.345-0.133,0.587-0.195,1.048-0.235c0,0,1.991,0.033,2.811,0.046c0.085,0.001,0.165,0.041,0.217,0.108	c0.053,0.067,0.072,0.154,0.054,0.237c-0.109,0.483-0.296,1.312-0.296,1.312s-0.743-0.229-1.912-0.241	c-0.731-0.007-1.702,0.598-0.667,1.138c0.33,0.173,1.266,0.692,2.264,1.245c0,0,1.541,0.771,1.454,2.51c0,0-0.006,1.278-1.483,1.74	C44.433,32.456,42.821,32.868,41.01,32.129z"/><path fill="#ffac00" d="M22.642,19.168c-0.212,2.503-2.394,4.362-4.873,4.152c-2.479-0.21-4.318-2.409-4.106-4.912	c0.212-2.503,2.394-4.362,4.873-4.152C21.016,14.466,22.854,16.665,22.642,19.168"/><path fill="#fff" d="M20.518,19.188c0.273-1.682-0.553-3.216-1.845-3.426c-1.292-0.21-2.561,0.984-2.835,2.666 c-0.273,1.682,0.553,3.216,1.845,3.426C18.976,22.064,20.245,20.87,20.518,19.188z"/><path fill="#8b024f" d="M25.892,34.63h-0.259v0.605h0.259c0.21,0,0.356-0.053,0.437-0.16 c0.028-0.037,0.043-0.079,0.043-0.126c0-0.113-0.044-0.196-0.131-0.247C26.161,34.654,26.045,34.63,25.892,34.63z"/><path fill="#8b024f" d="M26.279,34.199c0.024-0.034,0.036-0.077,0.036-0.128c0-0.084-0.042-0.148-0.125-0.191 c-0.077-0.04-0.176-0.06-0.299-0.06h-0.259v0.517h0.259C26.084,34.338,26.214,34.291,26.279,34.199z"/><polygon fill="#8b024f" points="28.375,34.774 28.835,34.774 28.605,33.976"/><path fill="#8b024f" d="M37.478,34.015c-0.243-0.272-0.533-0.596-0.713-0.798c-0.111-0.124-0.276-0.195-0.449-0.195 c-2.552,0-22.069,0-24.656,0c-0.179,0-0.348,0.075-0.46,0.203c-0.176,0.201-0.451,0.516-0.685,0.783 c-0.247,0.282-0.229,0.69,0.042,0.953c0.313,0.304,0.702,0.682,0.908,0.881c0.091,0.088,0.217,0.138,0.349,0.138 c2.227-0.005,21.732-0.047,24.274-0.053c0.175,0,0.342-0.064,0.466-0.178c0.218-0.2,0.58-0.532,0.875-0.803 C37.703,34.693,37.725,34.29,37.478,34.015z M13.316,35.537V33.51h0.929c0.245,0,0.466,0.032,0.664,0.095 c0.169,0.054,0.289,0.137,0.361,0.251c0.039,0.06,0.059,0.132,0.059,0.215c0,0.136-0.073,0.245-0.22,0.327 c-0.061,0.034-0.134,0.061-0.217,0.079c0.138,0.026,0.255,0.077,0.352,0.154c0.063,0.052,0.111,0.119,0.141,0.2 c0.015,0.042,0.023,0.089,0.023,0.141c0,0.128-0.049,0.237-0.148,0.327c-0.077,0.07-0.185,0.126-0.325,0.168 c-0.158,0.047-0.314,0.071-0.47,0.071H13.316z M13.986,34.338h0.259c0.193,0,0.322-0.046,0.388-0.139 c0.024-0.034,0.036-0.077,0.036-0.128c0-0.084-0.042-0.148-0.125-0.191c-0.077-0.04-0.176-0.06-0.299-0.06h-0.259V34.338z M13.986,35.235h0.259c0.21,0,0.356-0.053,0.437-0.16c0.028-0.037,0.043-0.079,0.043-0.126c0-0.113-0.044-0.196-0.131-0.247 c-0.079-0.047-0.195-0.071-0.348-0.071h-0.259V35.235z M16.632,35.072l-0.151,0.466h-0.646l0.7-2.026h0.854l0.69,2.026h-0.653 l-0.145-0.466H16.632z M16.958,33.976l-0.23,0.799h0.46L16.958,33.976z M19.297,33.51l0.824,1.362V33.51h0.621v2.027h-0.667 l-0.854-1.298v1.298H18.6V33.51H19.297z M22.272,35.563c-0.274,0-0.506-0.047-0.698-0.142s-0.287-0.209-0.287-0.341v-1.106 c0-0.135,0.096-0.249,0.289-0.343c0.193-0.094,0.425-0.141,0.696-0.141c0.274,0,0.506,0.047,0.696,0.142 c0.191,0.095,0.286,0.209,0.286,0.343v0.231h-0.644v-0.238c0-0.048-0.035-0.09-0.105-0.124c-0.07-0.035-0.154-0.052-0.253-0.052 c-0.099,0-0.182,0.017-0.251,0.052c-0.069,0.034-0.104,0.076-0.104,0.124v1.109c0,0.048,0.035,0.09,0.104,0.124 c0.069,0.034,0.153,0.051,0.251,0.051c0.098,0,0.183-0.017,0.253-0.051c0.07-0.034,0.105-0.075,0.105-0.123v-0.398h-0.345v-0.307 h0.989v0.708c0,0.135-0.096,0.249-0.289,0.343C22.773,35.516,22.542,35.563,22.272,35.563 M26.907,35.298 c-0.077,0.07-0.185,0.126-0.325,0.168c-0.158,0.047-0.314,0.071-0.47,0.071h-1.15l0.007-2.062l0.923,0.035 c0.245,0.009,0.466,0.032,0.664,0.095c0.169,0.054,0.289,0.137,0.361,0.251c0.039,0.06,0.059,0.132,0.059,0.215 c0,0.136-0.073,0.245-0.22,0.327c-0.061,0.034-0.134,0.061-0.217,0.079c0.138,0.026,0.255,0.077,0.352,0.154 c0.063,0.052,0.11,0.119,0.141,0.2c0.015,0.042,0.023,0.089,0.023,0.141C27.054,35.1,27.005,35.209,26.907,35.298z M29.072,35.537 l-0.145-0.466h-0.648l-0.151,0.466h-0.646l0.704-2.04l0.849,0.015l0.69,2.026H29.072z M32.388,35.537h-0.667l-0.854-1.298v1.298 h-0.621V33.51h0.697l0.824,1.362V33.51h0.621V35.537z M34.901,34.205h-0.644v-0.238c0-0.048-0.035-0.09-0.105-0.124 c-0.07-0.035-0.154-0.052-0.253-0.052c-0.099,0-0.182,0.017-0.251,0.052c-0.069,0.034-0.103,0.076-0.103,0.124v1.109 c0,0.049,0.034,0.09,0.103,0.124c0.069,0.034,0.153,0.051,0.251,0.051c0.099,0,0.183-0.017,0.253-0.051 c0.07-0.034,0.105-0.075,0.105-0.123v-0.398h-0.345v-0.307h0.989v0.708c0,0.135-0.096,0.249-0.289,0.343 c-0.193,0.094-0.424,0.141-0.693,0.141c-0.274,0-0.506-0.047-0.698-0.142s-0.287-0.208-0.287-0.341v-1.106 c0-0.135,0.096-0.249,0.289-0.343c0.193-0.094,0.425-0.141,0.696-0.141c0.274,0,0.506,0.047,0.696,0.142 c0.19,0.095,0.286,0.209,0.286,0.343V34.205z"/></svg>