<svg xmlns="http://www.w3.org/2000/svg" xmlns:xlink="http://www.w3.org/1999/xlink" data-name="Слой 1" viewBox="0 0 48 48"><defs><linearGradient id="hr~sOgABuYaGB4jVzeZVva" x1="19" x2="23" y1="10.5" y2="10.5" data-name="Безымянный градиент 14" gradientUnits="userSpaceOnUse"><stop offset="0" stop-color="#42a3f2"/><stop offset="1" stop-color="#42a4eb"/></linearGradient><linearGradient id="hr~sOgABuYaGB4jVzeZVvc" x1="23.25" x2="27.25" y1="9.25" y2="9.25" xlink:href="#hr~sOgABuYaGB4jVzeZVva"/><linearGradient id="hr~sOgABuYaGB4jVzeZVvb" x1="18" x2="30" y1="21" y2="21" data-name="Безымянный градиент 5" gradientUnits="userSpaceOnUse"><stop offset="0" stop-color="#3079d6"/><stop offset="1" stop-color="#297cd2"/></linearGradient><linearGradient id="hr~sOgABuYaGB4jVzeZVvd" x1="9.991" x2="38.003" y1="32" y2="32" xlink:href="#hr~sOgABuYaGB4jVzeZVva"/><linearGradient id="hr~sOgABuYaGB4jVzeZVve" x1="25" x2="35.971" y1="27.514" y2="27.514" xlink:href="#hr~sOgABuYaGB4jVzeZVvb"/><linearGradient id="hr~sOgABuYaGB4jVzeZVvf" x1="12.017" x2="23" y1="27.501" y2="27.501" xlink:href="#hr~sOgABuYaGB4jVzeZVvb"/></defs><circle cx="21" cy="10.5" r="2" fill="url(#hr~sOgABuYaGB4jVzeZVva)"/><circle cx="25.25" cy="9.25" r="2" fill="url(#hr~sOgABuYaGB4jVzeZVvc)"/><line x1="44" x2="4" y1="6" y2="18" fill="#64717c"/><path fill="#64717c" d="M3.99951,19a1,1,0,0,1-.28662-1.958l40-12a1.00011,1.00011,0,1,1,.57422,1.916l-40,12A1.01245,1.01245,0,0,1,3.99951,19Z"/><path fill="#889097" d="M23.999,21a.99981.99981,0,0,1-.81591-1.57715c2.66552-3.77637.09082-7.92285-.80762-8.6416a1.00018,1.00018,0,0,1,1.249-1.5625c1.67529,1.34082,4.48975,6.68652,1.19238,11.3584A.99984.99984,0,0,1,23.999,21Z"/><rect width="12" height="4" x="18" y="19" fill="url(#hr~sOgABuYaGB4jVzeZVvb)" rx="2"/><path fill="url(#hr~sOgABuYaGB4jVzeZVvd)" d="M33.82632,21H14.16986a1.95036,1.95036,0,0,0-1.74131,1.029,21.61,21.61,0,0,0-.003,19.93576,1.96151,1.96151,0,0,0,1.74823,1.02958L33.81317,43a1.96135,1.96135,0,0,0,1.74892-1.02893,21.62384,21.62384,0,0,0,.05849-19.846A2.02288,2.02288,0,0,0,33.82632,21Z"/><g><path fill="url(#hr~sOgABuYaGB4jVzeZVve)" d="M26,32h8.96678a.995.995,0,0,0,1.00269-1.03038,19.6137,19.6137,0,0,0-1.864-7.3565,1.00846,1.00846,0,0,0-.90871-.56692l-7.1943-.01751a1,1,0,0,0-1.00243,1V31A1,1,0,0,0,26,32Z"/><path fill="url(#hr~sOgABuYaGB4jVzeZVvf)" d="M22.00244,23.019l-7.1704-.01746a1.00873,1.00873,0,0,0-.91128.56168,19.535,19.535,0,0,0-1.902,7.40518A.99516.99516,0,0,0,13.02154,32H22a1,1,0,0,0,1-1V24.019A1,1,0,0,0,22.00244,23.019Z"/></g></svg>