<svg xmlns="http://www.w3.org/2000/svg" viewBox="0 0 48 48"><linearGradient id="K4~mdl_dMQR0vgg8ptcY_a" x1="9.858" x2="38.142" y1="380.142" y2="351.858" gradientTransform="matrix(1 0 0 -1 0 390)" gradientUnits="userSpaceOnUse"><stop offset="0" stop-color="#f44f5a"/><stop offset=".443" stop-color="#ee3d4a"/><stop offset="1" stop-color="#e52030"/></linearGradient><path fill="url(#K4~mdl_dMQR0vgg8ptcY_a)" d="M44,24c0,11.045-8.955,20-20,20S4,35.045,4,24S12.955,4,24,4S44,12.955,44,24z"/><path d="M13.091,28C11.937,28,11,27.103,11,26v-4c0-1.103,0.937-2,2.091-2h21.818C36.062,20,37,20.897,37,22	v4c0,1.103-0.938,2-2.091,2H13.091z" opacity=".05"/><path d="M13.091,27.5c-0.877,0-1.591-0.673-1.591-1.5v-4c0-0.827,0.714-1.5,1.591-1.5h21.818	c0.877,0,1.591,0.673,1.591,1.5v4c0,0.827-0.714,1.5-1.591,1.5H13.091z" opacity=".05"/><path fill="#fff" d="M36,22v4c0,0.552-0.489,1-1.091,1H13.091C12.489,27,12,26.552,12,26v-4c0-0.552,0.489-1,1.091-1	h21.818C35.511,21,36,21.448,36,22z"/></svg>