<svg xmlns="http://www.w3.org/2000/svg" viewBox="0 0 48 48"><linearGradient id="1~WE0Lz3GgLZUex~1j_nwa" x1="10.281" x2="24.742" y1="1.322" y2="16.996" gradientUnits="userSpaceOnUse"><stop offset="0" stop-color="#196de5"/><stop offset="1" stop-color="#1351c8"/></linearGradient><path fill="url(#1~WE0Lz3GgLZUex~1j_nwa)" d="M4.662,6.941c-0.001,0-0.003,0-0.004,0c-1.42,0-2.179,1.675-1.241,2.743L16,24L30.869,7.159 c-0.241-0.101-0.501-0.16-0.768-0.161L4.662,6.941z"/><linearGradient id="1~WE0Lz3GgLZUex~1j_nwb" x1="17.184" x2="27.74" y1="23.368" y2="36.213" gradientUnits="userSpaceOnUse"><stop offset="0" stop-color="#4d9fff"/><stop offset="1" stop-color="#1667eb"/></linearGradient><path fill="url(#1~WE0Lz3GgLZUex~1j_nwb)" d="M38.056,14.996l-6.46-7.322c-0.202-0.229-0.452-0.401-0.727-0.516L16,24L3.457,38.215 c-0.951,1.078-0.192,2.769,1.24,2.782l10.785-0.007L38.056,14.996z"/><linearGradient id="1~WE0Lz3GgLZUex~1j_nwc" x1="27.324" x2="33.437" y1="27.209" y2="37.448" gradientUnits="userSpaceOnUse"><stop offset="0" stop-color="#70bcfd"/><stop offset="1" stop-color="#4a9ff9"/></linearGradient><path fill="url(#1~WE0Lz3GgLZUex~1j_nwc)" d="M44.217,21.982l-6.161-6.985L15.482,41l14.796-0.01c0.506-0.046,0.98-0.273,1.319-0.658 l12.62-14.308C45.236,24.87,45.236,23.137,44.217,21.982z"/><path d="M16,24L30.869,7.159c-0.241-0.101-0.501-0.16-0.768-0.161l-0.423-0.001 L15.336,23.245L16,24z" opacity=".05"/><path d="M15.669,23.624L16,24L30.869,7.159c-0.173-0.073-0.358-0.114-0.546-0.137 L15.669,23.624z" opacity=".07"/></svg>