<svg xmlns="http://www.w3.org/2000/svg" viewBox="0 0 48 48"><linearGradient id="~g_yFoIRDul53PRFq4I16a" x1="6.414" x2="33.377" y1="465.552" y2="485.245" gradientTransform="translate(0 -451.89)" gradientUnits="userSpaceOnUse"><stop offset="0" stop-color="#28afea"/><stop offset="1" stop-color="#047ed6"/></linearGradient><path fill="url(#~g_yFoIRDul53PRFq4I16a)" d="M6,40V12h36v28c0,1.1-0.9,2-2,2H8C6.9,42,6,41.1,6,40z"/><polygon points="37.395,42 42,37.394 42,28.601 28.604,42" opacity=".05"/><polygon points="36.688,42 42,36.687 42,29.308 29.311,42" opacity=".07"/><linearGradient id="~g_yFoIRDul53PRFq4I16b" x1="6.42" x2="41.198" y1="458.498" y2="465.57" gradientTransform="translate(0 -451.89)" gradientUnits="userSpaceOnUse"><stop offset="0" stop-color="#0077d2"/><stop offset="1" stop-color="#0b59a2"/></linearGradient><path fill="url(#~g_yFoIRDul53PRFq4I16b)" d="M42,8v6H6V8c0-1.1,0.9-2,2-2h32C41.1,6,42,6.9,42,8z"/><path d="M35.5,12.5L35.5,12.5c-1.657,0-3-1.343-3-3V6h6v3.5 C38.5,11.157,37.157,12.5,35.5,12.5z" opacity=".05"/><path d="M35.5,11.75L35.5,11.75c-1.243,0-2.25-1.007-2.25-2.25V6h4.5v3.5 C37.75,10.743,36.743,11.75,35.5,11.75z" opacity=".07"/><path d="M12.5,12.5L12.5,12.5c-1.657,0-3-1.343-3-3V6h6v3.5 C15.5,11.157,14.157,12.5,12.5,12.5z" opacity=".05"/><path d="M12.5,11.75L12.5,11.75c-1.243,0-2.25-1.007-2.25-2.25V6h4.5v3.5 C14.75,10.743,13.743,11.75,12.5,11.75z" opacity=".07"/><path fill="#3ccbf4" d="M12.5,11L12.5,11c-0.828,0-1.5-0.672-1.5-1.5v-4C11,4.672,11.672,4,12.5,4l0,0 C13.328,4,14,4.672,14,5.5v4C14,10.328,13.328,11,12.5,11z"/><path fill="#fff" d="M38,19.5v3c0,0.276-0.224,0.5-0.5,0.5h-3c-0.276,0-0.5-0.224-0.5-0.5v-3c0-0.276,0.224-0.5,0.5-0.5 h3C37.776,19,38,19.224,38,19.5z M30,19.5v3c0,0.276-0.224,0.5-0.5,0.5h-3c-0.276,0-0.5-0.224-0.5-0.5v-3 c0-0.276,0.224-0.5,0.5-0.5h3C29.776,19,30,19.224,30,19.5z M22,19.5v3c0,0.276-0.224,0.5-0.5,0.5h-3c-0.276,0-0.5-0.224-0.5-0.5 v-3c0-0.276,0.224-0.5,0.5-0.5h3C21.776,19,22,19.224,22,19.5z"/><path fill="#fff" d="M38,26.5v3c0,0.276-0.224,0.5-0.5,0.5h-3c-0.276,0-0.5-0.224-0.5-0.5v-3c0-0.276,0.224-0.5,0.5-0.5 h3C37.776,26,38,26.224,38,26.5z M30,26.5v3c0,0.276-0.224,0.5-0.5,0.5h-3c-0.276,0-0.5-0.224-0.5-0.5v-3 c0-0.276,0.224-0.5,0.5-0.5h3C29.776,26,30,26.224,30,26.5z M22,26.5v3c0,0.276-0.224,0.5-0.5,0.5h-3c-0.276,0-0.5-0.224-0.5-0.5 v-3c0-0.276,0.224-0.5,0.5-0.5h3C21.776,26,22,26.224,22,26.5z M14,26.5v3c0,0.276-0.224,0.5-0.5,0.5h-3 c-0.276,0-0.5-0.224-0.5-0.5v-3c0-0.276,0.224-0.5,0.5-0.5h3C13.776,26,14,26.224,14,26.5z"/><path fill="#fff" d="M30,33.5v3c0,0.276-0.224,0.5-0.5,0.5h-3c-0.276,0-0.5-0.224-0.5-0.5v-3c0-0.276,0.224-0.5,0.5-0.5 h3C29.776,33,30,33.224,30,33.5z M22,33.5v3c0,0.276-0.224,0.5-0.5,0.5h-3c-0.276,0-0.5-0.224-0.5-0.5v-3 c0-0.276,0.224-0.5,0.5-0.5h3C21.776,33,22,33.224,22,33.5z M14,33.5v3c0,0.276-0.224,0.5-0.5,0.5h-3c-0.276,0-0.5-0.224-0.5-0.5 v-3c0-0.276,0.224-0.5,0.5-0.5h3C13.776,33,14,33.224,14,33.5z"/><path fill="#3ccbf4" d="M35.5,11L35.5,11c-0.828,0-1.5-0.672-1.5-1.5v-4C34,4.672,34.672,4,35.5,4l0,0 C36.328,4,37,4.672,37,5.5v4C37,10.328,36.328,11,35.5,11z"/><path fill="#c94f60" d="M47.781,29.141l-1.922-1.921c-0.292-0.293-0.768-0.293-1.061,0l-0.904,0.905l2.981,2.981 l0.905-0.904C48.073,29.908,48.073,29.434,47.781,29.141"/><path fill="#f0f0f0" d="M29.003,43.016L28,47l3.985-1.003l0.418-3.456L29.003,43.016z"/><path fill="#edbe00" d="M44.333,33.648L31.985,45.996l-2.981-2.981l12.348-12.348L44.333,33.648z"/><linearGradient id="~g_yFoIRDul53PRFq4I16c" x1="44.112" x2="44.112" y1="-864.202" y2="-869.691" gradientTransform="matrix(1 0 0 -1 0 -835.89)" gradientUnits="userSpaceOnUse"><stop offset="0" stop-color="#dedede"/><stop offset="1" stop-color="#d6d6d6"/></linearGradient><path fill="url(#~g_yFoIRDul53PRFq4I16c)" d="M41.349,30.667l2.543-2.544l2.983,2.981l-2.543,2.544L41.349,30.667z"/><path fill="#787878" d="M28.508,44.985L28,47l2.014-0.508L28.508,44.985z"/></svg>