<svg xmlns="http://www.w3.org/2000/svg" data-name="Слой 1" viewBox="0 0 48 48"><defs><linearGradient id="kDJXmu_c8_Ylle6rGxx5Ma" x1="10.531" x2="27.482" y1="4.992" y2="51.563" data-name="Безымянный градиент 138" gradientUnits="userSpaceOnUse"><stop offset="0" stop-color="#6d6d6d"/><stop offset=".126" stop-color="#626262"/><stop offset=".987" stop-color="#464646"/><stop offset=".998" stop-color="#454545"/></linearGradient><linearGradient id="kDJXmu_c8_Ylle6rGxx5Mb" x1="18.357" x2="24.573" y1="-2800.995" y2="-2836.249" data-name="Безымянный градиент 134" gradientTransform="matrix(1 0 0 -1 0 -2792)" gradientUnits="userSpaceOnUse"><stop offset="0" stop-color="#ffda1c"/><stop offset="1" stop-color="#feb705"/></linearGradient><radialGradient id="kDJXmu_c8_Ylle6rGxx5Mc" cx="17.152" cy="21.478" r="22.308" data-name="Безымянный градиент 133" gradientUnits="userSpaceOnUse"><stop offset="0" stop-color="#4b4b4b"/><stop offset=".531" stop-color="#393939"/><stop offset="1" stop-color="#252525"/></radialGradient></defs><path fill="url(#kDJXmu_c8_Ylle6rGxx5Ma)" d="M24.00043,4A1.96747,1.96747,0,0,0,22.2731,5.00878L1.82176,41.00568A2.00136,2.00136,0,0,0,3.54909,44H44.45078a2.001,2.001,0,0,0,1.72733-2.99432L25.72776,5.00878A1.96745,1.96745,0,0,0,24.00043,4Z"/><polygon fill="url(#kDJXmu_c8_Ylle6rGxx5Mb)" points="5 41 24.001 8 43 41 5 41"/><path fill="url(#kDJXmu_c8_Ylle6rGxx5Mc)" d="M33,31H31V24a.99943.99943,0,0,0-1-1H26a1.00129,1.00129,0,0,0-.78125.375l-4,5A1.0018,1.0018,0,0,0,21,29.00488L21.01331,32H19V23H17V36H13l-2,2h8V34h2v2a1,1,0,0,0,1,1,2,2,0,0,0,4,0h4.0918a1.5001,1.5001,0,1,0,2.8164,0H33a1,1,0,0,0,1-1V32A1,1,0,0,0,33,31Zm-9.98651,1L23.002,29.34863,26.48047,25H29v6l-1,1Z"/></svg>