<svg xmlns="http://www.w3.org/2000/svg" viewBox="0 0 48 48"><path fill="#1b9de2" d="M15,1.5C15,0.672,14.328,0,13.5,0S12,0.672,12,1.5C12,1.676,12,12,12,12h3C15,12,15,1.676,15,1.5z"/><path fill="#50e6ff" d="M34,4H14c-1.105,0-2,0.895-2,2v36c0,1.105,0.895,2,2,2h20c1.105,0,2-0.895,2-2V6	C36,4.895,35.105,4,34,4z"/><path fill="#0c63ad" d="M26.5,6c-0.065,0-4.935,0-5,0C21.224,6,21,6.224,21,6.5C21,6.776,21.224,7,21.5,7	c0.065,0,4.935,0,5,0C26.776,7,27,6.776,27,6.5C27,6.224,26.776,6,26.5,6z"/><path fill="#0078d4" d="M32,21H16c-0.552,0-1-0.448-1-1V10c0-0.552,0.448-1,1-1h16c0.552,0,1,0.448,1,1v10	C33,20.552,32.552,21,32,21z"/><circle cx="24" cy="26" r="2" fill="#1b9de2"/><circle cx="30" cy="26" r="2" fill="#1b9de2"/><circle cx="18" cy="26" r="2" fill="#1b9de2"/><circle cx="24" cy="32" r="2" fill="#1b9de2"/><circle cx="30" cy="32" r="2" fill="#1b9de2"/><circle cx="18" cy="32" r="2" fill="#1b9de2"/><circle cx="24" cy="38" r="2" fill="#1b9de2"/><circle cx="30" cy="38" r="2" fill="#1b9de2"/><circle cx="18" cy="38" r="2" fill="#1b9de2"/></svg>