<svg xmlns="http://www.w3.org/2000/svg" viewBox="0 0 48 48"><linearGradient id="Pc7gKrZO_wAWI2QBTIN8Ka" x1="2.234" x2="13.54" y1="24" y2="24" gradientUnits="userSpaceOnUse"><stop offset="0" stop-color="#f44f5a"/><stop offset=".443" stop-color="#ee3d4a"/><stop offset="1" stop-color="#e52030"/></linearGradient><path fill="url(#Pc7gKrZO_wAWI2QBTIN8Ka)" d="M10,9h11.585c1.617,0,2.623,1.362,2.246,3.039l-5.394,23.927 c-0.381,1.671-2,3.034-3.618,3.034H3.235c-1.369-0.001-2.302-0.98-2.325-2.296c-0.004-0.237,0.021-0.484,0.079-0.739l5.396-23.927 C6.762,10.362,8.381,9,10,9"/><linearGradient id="Pc7gKrZO_wAWI2QBTIN8Kb" x1="13.128" x2="26.645" y1="24" y2="24" gradientUnits="userSpaceOnUse"><stop offset="0" stop-color="#0077d2"/><stop offset="1" stop-color="#0b59a2"/></linearGradient><path fill="url(#Pc7gKrZO_wAWI2QBTIN8Kb)" d="M20.5,9h13.47c1.657,0,0.91,1.362,0.52,3.039l-5.527,23.928 C28.575,37.637,28.696,39,27.035,39H13.38c-1.39,0-2.336-0.955-2.379-2.246c-0.008-0.251,0.018-0.516,0.081-0.788l5.711-23.928 C17.187,10.362,18.657,9,20.316,9"/><linearGradient id="Pc7gKrZO_wAWI2QBTIN8Kc" x1="24" x2="47" y1="24" y2="24" gradientUnits="userSpaceOnUse"><stop offset="0" stop-color="#37c6d0"/><stop offset="1" stop-color="#1a9ba1"/></linearGradient><path fill="url(#Pc7gKrZO_wAWI2QBTIN8Kc)" d="M33.273,9h11.401c1.183,0,2.039,0.727,2.266,1.773c0.044,0.204,0.064,0.42,0.059,0.645 c-0.005,0.2-0.031,0.408-0.079,0.62l-5.393,23.928C41.146,37.637,39.525,39,37.906,39h-11.58c-1.355,0-2.279-0.953-2.324-2.241 c-0.009-0.253,0.016-0.518,0.078-0.792l5.578-23.928C30.036,10.362,31.653,9,33.273,9z"/><path fill="#fefefe" d="M19.364,18.117c-0.325-0.195-0.905-0.134-1.302,0.135c-0.396,0.263-0.45,0.636-0.126,0.833	c0.319,0.189,0.902,0.134,1.296-0.137C19.626,18.68,19.685,18.31,19.364,18.117z M42.308,19.376l-1.171,2.048L40.874,19l-1.24,0.294	l0.454,3.963l-1.415,2.293c-0.038,0.054-0.072,0.091-0.119,0.107c-0.052,0.025-0.118,0.03-0.21,0.03h-0.04L38,26.624l0.75,0.001	c0.53-0.002,0.904-0.288,1.092-0.625L44,19L42.308,19.376z M22.157,25l-0.404,0.701C21.666,25.854,21.518,26,21.19,26h-0.201	l-0.282,0.875h0.668c0.787,0,1.158-0.431,1.158-0.431h2.086l0.301-0.933h-1.752l0.28-0.51L22.157,25z M10.416,19.885	c-0.194,0.75-0.341,1.24-0.679,1.585c-0.233,0.238-0.593,0.351-0.923,0.35c-0.493,0-0.91-0.311-0.883-0.823	c0.002-0.038,0.007-0.078,0.014-0.119C8.187,19.531,9.242,16,9.242,16H7.275l-1.02,4.03c0,0-0.25,0.968-0.255,1.379	c-0.004,0.313,0.047,0.569,0.164,0.785C6.54,22.879,7.652,23,8.288,23c1.088,0,1.731-0.104,2.257-0.424	c0.839-0.51,1.082-1.2,1.341-2.175C12.178,19.305,13,16,13,16h-1.595C11.405,16,10.417,19.883,10.416,19.885z M13.701,23	l0.705-2.869C14.559,20.065,14.709,20,14.851,20c0.338,0,0.414,0.281,0.397,0.393C15.234,20.529,14.658,23,14.658,23h1.404	l0.491-2.068c0.204-0.764,0.307-1.152,0.177-1.468C16.594,19.111,16.246,19,15.924,19c-0.21,0-0.596,0.073-0.946,0.234	c-0.127,0.061-0.247,0.132-0.374,0.202l0.103-0.438l-1.493,0.234L12.25,23H13.701z M25.576,23l0.705-2.869	C26.434,20.065,26.584,20,26.726,20c0.338,0,0.414,0.281,0.397,0.393C27.109,20.529,26.533,23,26.533,23h1.404l0.491-2.068	c0.204-0.764,0.307-1.152,0.177-1.468C28.469,19.111,28.121,19,27.799,19c-0.21,0-0.596,0.073-0.946,0.234	c-0.127,0.061-0.247,0.132-0.374,0.202l0.103-0.438l-1.493,0.234L24.125,23H25.576z M17,23h1.451l0.75-3l-1.486,0.22L17,23z M35.424,16.62c-0.414-0.603-1.269-0.615-2.257-0.62c-0.001,0-0.727,0-0.727,0h-1.614L29,23h1.579l0.665-2.5h0.294	c1.007,0,1.972-0.014,2.809-0.618c0.585-0.426,1.033-0.992,1.228-1.757c0.05-0.187,0.09-0.41,0.096-0.633	C35.678,17.199,35.588,16.847,35.424,16.62z M33.742,18.19c-0.115,0.467-0.428,0.86-0.822,1.049	c-0.324,0.16-0.721,0.137-1.125,0.136h-0.252L32.175,17c0.142,0,0.38,0,0.62,0c0.75,0,0.988,0.477,0.986,0.875	C33.781,17.978,33.768,18.084,33.742,18.19z M28.47,29c0,0-0.075,0.219-0.099,0.293c-0.02,0.063-0.1,0.207-0.327,0.207h-0.419V29	H26.5v2.5c-0.007,0.183,0.179,0.5,0.998,0.5h0.932l0.286-0.876l-0.84,0.001c-0.25,0-0.245-0.116-0.248-0.3	c-0.003-0.2-0.003-0.575-0.003-0.575h0.794c0.73,0,0.89-0.606,0.946-0.787L29.474,29H28.47z"/><path fill="#fefefe" d="M28.824,25c-1.502,0-1.795,0.67-1.795,0.67L27.235,25h-1.21l-1.979,6.083	c-0.021,0.07-0.048,0.18-0.046,0.299C24.006,31.664,24.174,32,24.964,32l0.718-0.001L26.002,31c0,0-0.36,0-0.485,0	c-0.157,0-0.125-0.13-0.125-0.13l0.709-2.152h1.778c1.47,0,1.743-0.9,1.875-1.31L30.538,25C30.538,25,29.369,25,28.824,25z M28.298,28h-2.001l0.206-0.604h2.005L28.298,28z M28.822,26.518c0,0-1.012-0.01-1.175,0.02c-0.717,0.124-1.018,0.508-1.018,0.508	L26.967,26h2.023L28.822,26.518z M37.507,19.234c0,0-0.01,0.04-0.028,0.111C37.325,19.179,37.07,19,36.668,19	c-0.5,0-0.937,0.179-1.45,0.617c-0.451,0.39-0.677,0.926-0.811,1.439c-0.052,0.19-0.083,0.491-0.083,0.694	c0,1.25,1.082,1.25,1.345,1.25c0.395,0,0.71-0.151,0.965-0.347C36.602,22.776,36.543,23,36.543,23h1.451L39,19L37.507,19.234z M36.098,22.116c-0.063,0-0.438,0-0.429-0.411c0.004-0.203,0.052-0.43,0.125-0.691c0.17-0.608,0.399-1.139,1-1.139	c0.47,0,0.461,0.377,0.26,1.133c-0.058,0.217-0.221,0.609-0.348,0.8C36.521,22.086,36.31,22.116,36.098,22.116z M23.768,19.493	C23.471,19.12,22.93,19.001,22.366,19c-0.339,0-1.149,0.031-1.796,0.579c-0.465,0.396-0.69,0.934-0.831,1.449	c-0.142,0.525-0.316,1.471,0.596,1.824C20.616,22.968,21.025,23,21.29,23c0.675,0.001,1.372-0.174,1.908-0.695	c0.413-0.422,0.614-1.051,0.685-1.31C24.114,20.138,23.964,19.737,23.768,19.493z M21.429,22.115c-0.063,0-0.438,0-0.429-0.411	c0.004-0.203,0.06-0.471,0.125-0.691c0.169-0.572,0.4-1.139,1-1.139c0.47,0,0.461,0.377,0.26,1.133	c-0.058,0.217-0.221,0.609-0.348,0.8C21.852,22.086,21.641,22.116,21.429,22.115z M20.847,27.115L20.556,28h0.846l-0.248,0.769	h-0.848L20,29.706h0.845l-0.536,1.639c-0.072,0.217-0.075,0.654,0.738,0.654h1.627L23,31c0,0-0.931,0-1.181,0	s-0.183-0.177-0.183-0.177l0.368-1.132h1.746l0.302-0.921h-1.747L22.56,28h1.713l0.297-0.885H20.847z M39.7,27.916L40,27h-4.037	l-0.294,0.916h1.211l-0.247,0.743h-1.232l-0.263,0.812h1.082l-0.963,1.265C35.18,30.847,35.017,31,34.749,31h-0.486l0.095-0.289	H33.94L35.479,26h0.547l0.172-0.518c0,0,0,0.381,0,0.517c0,0.434,0.125,0.626,0.821,0.626h0.478L37.8,25.69h-0.223	c-0.147,0.003-0.217-0.044-0.205-0.138V25c0,0-0.799,0-1.25,0c-1.175,0-1.903,0.055-2.193,0.132	c-0.351,0.09-0.807,0.357-0.807,0.357L33.279,25H31.98l-1.862,5.722h-0.28L29.52,31.69h2.874L32.293,32h1.229l0.1-0.31h0.402	L33.919,32h1.02c0.259,0,0.468-0.058,0.642-0.155c0.182-0.101,0.325-0.244,0.447-0.407l0.756-1.006l0.115,1.055	C36.928,31.679,37.002,32,37.791,32h0.568l0.329-1h-0.371c-0.265,0-0.322-0.195-0.337-0.297l-0.132-1.024h-0.615l0.25-0.208h1.703	l0.268-0.812h-1.585l0.251-0.743L39.7,27.916z M32.964,26h1.303l-0.278,0.853c0,0-0.462,0.028-0.693,0.08	c-0.393,0.09-0.72,0.248-0.72,0.248L32.964,26z M32.729,30.722h-1.306l0.347-1.064h1.303L32.729,30.722z M33.408,28.622	c0,0-0.346,0.043-0.574,0.095C32.435,28.832,31.979,29,31.979,29l0.4-1.218h1.308L33.408,28.622z"/></svg>