<svg xmlns="http://www.w3.org/2000/svg" viewBox="0 0 48 48"><linearGradient id="~9ZjuIMsv~Z9Ku8~hYFtSa" x1="-7.018" x2="39.387" y1="9.308" y2="33.533" gradientUnits="userSpaceOnUse"><stop offset="0" stop-color="#6f8793"/><stop offset=".909" stop-color="#546778"/></linearGradient><path fill="url(#~9ZjuIMsv~Z9Ku8~hYFtSa)" d="M44.5,41h-41C2.119,41,1,39.881,1,38.5v-31C1,6.119,2.119,5,3.5,5h11.597 c1.519,0,2.955,0.69,3.904,1.877L21.5,10h23c1.381,0,2.5,1.119,2.5,2.5v26C47,39.881,45.881,41,44.5,41z"/><linearGradient id="~9ZjuIMsv~Z9Ku8~hYFtSb" x1="16.865" x2="44.965" y1="39.287" y2="39.792" gradientUnits="userSpaceOnUse"><stop offset="0" stop-color="#3c525d"/><stop offset=".464" stop-color="#25333e"/></linearGradient><path fill="url(#~9ZjuIMsv~Z9Ku8~hYFtSb)" d="M1,37.875V38.5C1,39.881,2.119,41,3.5,41h41c1.381,0,2.5-1.119,2.5-2.5v-0.625H1z"/><linearGradient id="~9ZjuIMsv~Z9Ku8~hYFtSc" x1="-4.879" x2="35.968" y1="12.764" y2="30.778" gradientUnits="userSpaceOnUse"><stop offset=".34" stop-color="#c3d1de"/><stop offset=".549" stop-color="#becddc"/><stop offset=".789" stop-color="#b0c3d5"/><stop offset="1" stop-color="#9eb5cd"/></linearGradient><path fill="url(#~9ZjuIMsv~Z9Ku8~hYFtSc)" d="M44.5,11h-23l-1.237,0.824C19.114,12.591,17.763,13,16.381,13H3.5C2.119,13,1,14.119,1,15.5 v22C1,38.881,2.119,40,3.5,40h41c1.381,0,2.5-1.119,2.5-2.5v-24C47,12.119,45.881,11,44.5,11z"/><radialGradient id="~9ZjuIMsv~Z9Ku8~hYFtSd" cx="37.836" cy="49.317" r="53.875" gradientUnits="userSpaceOnUse"><stop offset=".199" stop-color="#728aa4"/><stop offset=".601" stop-color="#95b0cb"/><stop offset=".81" stop-color="#a8bcd0"/><stop offset="1" stop-color="#b4c4d3"/></radialGradient><path fill="url(#~9ZjuIMsv~Z9Ku8~hYFtSd)" d="M44.5,40h-41C2.119,40,1,38.881,1,37.5v-21C1,15.119,2.119,14,3.5,14h13.256 c1.382,0,2.733-0.409,3.883-1.176L21.875,12H44.5c1.381,0,2.5,1.119,2.5,2.5v23C47,38.881,45.881,40,44.5,40z"/><g><path d="M12,24c0-1.103,0.897-2,2-2h9c1.103,0,2,0.897,2,2s-0.897,2-2,2h-9C12.897,26,12,25.103,12,24z M14,21h9c1.103,0,2-0.897,2-2s-0.897-2-2-2h-9c-1.103,0-2,0.897-2,2S12.897,21,14,21z M34,32H14c-1.103,0-2,0.897-2,2s0.897,2,2,2 h20c1.103,0,2-0.897,2-2S35.103,32,34,32z M34,27H14c-1.103,0-2,0.897-2,2s0.897,2,2,2h20c1.103,0,2-0.897,2-2S35.103,27,34,27z M36,19v5c0,1.103-0.897,2-2,2h-5c-1.103,0-2-0.897-2-2v-5c0-1.103,0.897-2,2-2h5C35.103,17,36,17.897,36,19z M34,19h-5v5h5V19z" opacity=".05"/><path d="M14,20.5h9c0.827,0,1.5-0.673,1.5-1.5s-0.673-1.5-1.5-1.5h-9c-0.827,0-1.5,0.673-1.5,1.5 S13.173,20.5,14,20.5z M34,32.5H14c-0.827,0-1.5,0.673-1.5,1.5s0.673,1.5,1.5,1.5h20c0.827,0,1.5-0.673,1.5-1.5 S34.827,32.5,34,32.5z M34,17.5h-5c-0.827,0-1.5,0.673-1.5,1.5v5c0,0.827,0.673,1.5,1.5,1.5h5c0.827,0,1.5-0.673,1.5-1.5v-5 C35.5,18.173,34.827,17.5,34,17.5z M34,27.5H14c-0.827,0-1.5,0.673-1.5,1.5s0.673,1.5,1.5,1.5h20c0.827,0,1.5-0.673,1.5-1.5 S34.827,27.5,34,27.5z M14,25.5h9c0.827,0,1.5-0.673,1.5-1.5s-0.673-1.5-1.5-1.5h-9c-0.827,0-1.5,0.673-1.5,1.5 S13.173,25.5,14,25.5z" opacity=".07"/><path fill="#fff" d="M35,34c0,0.552-0.448,1-1,1H14c-0.552,0-1-0.448-1-1s0.448-1,1-1h20C34.552,33,35,33.448,35,34z M34,28H14c-0.552,0-1,0.448-1,1s0.448,1,1,1h20c0.552,0,1-0.448,1-1S34.552,28,34,28z M14,25h9c0.552,0,1-0.448,1-1s-0.448-1-1-1 h-9c-0.552,0-1,0.448-1,1S13.448,25,14,25z M14,20h9c0.552,0,1-0.448,1-1s-0.448-1-1-1h-9c-0.552,0-1,0.448-1,1S13.448,20,14,20z M34,18h-5c-0.552,0-1,0.448-1,1v5c0,0.552,0.448,1,1,1h5c0.552,0,1-0.448,1-1v-5C35,18.448,34.552,18,34,18z"/></g></svg>