<svg xmlns="http://www.w3.org/2000/svg" viewBox="0 0 48 48"><linearGradient id="w1B5_I7Am54sLBMlX4VGKa" x1="38.045" x2="30.272" y1="10" y2="10" gradientUnits="userSpaceOnUse"><stop offset="0" stop-color="#ffcf54"/><stop offset=".261" stop-color="#fdcb4d"/><stop offset=".639" stop-color="#f7c13a"/><stop offset="1" stop-color="#f0b421"/></linearGradient><path fill="url(#w1B5_I7Am54sLBMlX4VGKa)" d="M37.5,11H30V9h6.5c0.828,0,1.5,0.672,1.5,1.5v0C38,10.776,37.776,11,37.5,11z"/><linearGradient id="w1B5_I7Am54sLBMlX4VGKb" x1="37.409" x2="26.36" y1="42.5" y2="42.5" gradientUnits="userSpaceOnUse"><stop offset="0" stop-color="#ffcf54"/><stop offset=".261" stop-color="#fdcb4d"/><stop offset=".639" stop-color="#f7c13a"/><stop offset="1" stop-color="#f0b421"/></linearGradient><path fill="url(#w1B5_I7Am54sLBMlX4VGKb)" d="M33.628,41.236L33.628,41.236c-0.903-0.253-1.869-0.303-2.803-0.147L26,42l-2,2h12v0	C36,42.746,35.045,41.632,33.628,41.236z"/><linearGradient id="w1B5_I7Am54sLBMlX4VGKc" x1="19.87" x2="19.87" y1="51.182" y2=".287" gradientUnits="userSpaceOnUse"><stop offset=".002" stop-color="#454545"/><stop offset=".013" stop-color="#464646"/><stop offset=".562" stop-color="#626262"/><stop offset="1" stop-color="#6d6d6d"/></linearGradient><path fill="url(#w1B5_I7Am54sLBMlX4VGKc)" d="M30.74,6H30c-2.21,0-4,1.79-4,4c0,0,0,3.9,0,5l-2,29H9.5c-0.44,0-0.67-0.54-0.35-0.85	l4.26-4.27C13.79,38.5,14,38,14,37.47V22c0-1.94,0.73-2.98,2-4.25c1.27-1.27,2.06-2.5,3.99-2.5c0.56,0,1.01-0.45,1.01-1V9.74	c0-3.09,2.53-5.81,5.63-5.74c1.47,0.03,2.8,0.65,3.76,1.61C30.51,5.73,30.63,5.86,30.74,6z"/><linearGradient id="w1B5_I7Am54sLBMlX4VGKd" x1="28.5" x2="28.5" y1="4.955" y2="54.531" gradientUnits="userSpaceOnUse"><stop offset="0" stop-color="#f9f9f9"/><stop offset=".966" stop-color="#c4c9cd"/><stop offset="1" stop-color="#c2c8cc"/></linearGradient><path fill="url(#w1B5_I7Am54sLBMlX4VGKd)" d="M32,15V9.5c0-1.33-0.47-2.55-1.26-3.5H29c-2.209,0-4,1.791-4,4v5c-1.1,0-2,0.9-2,2v26	c0,0.552,0.448,1,1,1c9,0,10-10,10-17C34,18.5,32,15,32,15z"/><linearGradient id="w1B5_I7Am54sLBMlX4VGKe" x1="18" x2="18" y1="25.068" y2="-12.121" gradientUnits="userSpaceOnUse"><stop offset=".002" stop-color="#454545"/><stop offset=".013" stop-color="#464646"/><stop offset=".562" stop-color="#626262"/><stop offset="1" stop-color="#6d6d6d"/></linearGradient><path fill="url(#w1B5_I7Am54sLBMlX4VGKe)" d="M18.815,35.753l-1.877,0.997C15.606,37.458,14,36.492,14,34.984V22c0-3.866,3.134-7,7-7h0	c0.552,0,1,0.448,1,1v14.454C22,32.674,20.775,34.712,18.815,35.753z"/><linearGradient id="w1B5_I7Am54sLBMlX4VGKf" x1="27" x2="29" y1="9" y2="9" gradientUnits="userSpaceOnUse"><stop offset=".002" stop-color="#454545"/><stop offset=".013" stop-color="#464646"/><stop offset=".562" stop-color="#626262"/><stop offset="1" stop-color="#6d6d6d"/></linearGradient><circle cx="28" cy="9" r="1" fill="url(#w1B5_I7Am54sLBMlX4VGKf)"/></svg>