<svg xmlns="http://www.w3.org/2000/svg" viewBox="0 0 48 48"><linearGradient id="hh3XMWghlf1DzNZgr~uK4a" x1="24" x2="24" y1="5" y2="46.86" gradientUnits="userSpaceOnUse"><stop offset="0" stop-color="#f44f5a"/><stop offset=".443" stop-color="#ee3d4a"/><stop offset="1" stop-color="#e52030"/></linearGradient><path fill="url(#hh3XMWghlf1DzNZgr~uK4a)" d="M38.241,26.728c-0.282-0.222-0.417-0.576-0.368-0.931C37.952,25.209,38,24.61,38,24	c0-0.61-0.048-1.209-0.127-1.797c-0.048-0.356,0.086-0.71,0.368-0.931l3.531-2.772c0.391-0.307,0.497-0.856,0.249-1.287	l-3.133-5.426c-0.249-0.431-0.777-0.613-1.239-0.428l-4.161,1.67c-0.33,0.132-0.698,0.072-0.98-0.144	c-0.954-0.729-2.008-1.332-3.133-1.799c-0.328-0.136-0.566-0.426-0.616-0.778l-0.636-4.45C28.052,5.366,27.63,5,27.133,5h-6.265	c-0.498,0-0.92,0.366-0.99,0.859l-0.636,4.45c-0.05,0.352-0.288,0.642-0.616,0.778c-1.125,0.467-2.179,1.07-3.133,1.799	c-0.282,0.216-0.651,0.276-0.98,0.144l-4.161-1.67c-0.462-0.185-0.99-0.003-1.239,0.428l-3.133,5.426	C5.73,17.644,5.836,18.192,6.228,18.5l3.531,2.772c0.282,0.222,0.417,0.576,0.368,0.931C10.048,22.791,10,23.39,10,24	c0,0.61,0.048,1.209,0.127,1.797c0.048,0.356-0.086,0.71-0.368,0.931L6.228,29.5c-0.391,0.307-0.497,0.856-0.249,1.287l3.133,5.426	c0.249,0.431,0.777,0.613,1.239,0.428l4.161-1.67c0.33-0.132,0.698-0.072,0.98,0.144c0.954,0.729,2.008,1.332,3.133,1.799	c0.328,0.136,0.566,0.426,0.616,0.778l0.636,4.45C19.948,42.634,20.37,43,20.867,43h6.265c0.498,0,0.92-0.366,0.99-0.859l0.636-4.45	c0.05-0.352,0.288-0.642,0.616-0.778c1.125-0.467,2.179-1.07,3.133-1.799c0.282-0.216,0.651-0.276,0.98-0.144l4.161,1.67	c0.462,0.185,0.99,0.003,1.239-0.428l3.133-5.426c0.249-0.431,0.143-0.979-0.249-1.287L38.241,26.728z"/><path d="M21,18l10,6l-10,6V18 M20,16.234V18v12v1.766l1.514-0.909l10-6L32.944,24l-1.429-0.857l-10-6L20,16.234L20,16.234z" opacity=".05"/><path d="M21,18l10,6l-10,6V18 M20.5,17.117V18v12v0.883l0.757-0.454l10-6L31.972,24l-0.715-0.429l-10-6L20.5,17.117L20.5,17.117z" opacity=".07"/><polygon fill="#fff" points="21,18 21,30 31,24"/></svg>