<svg xmlns="http://www.w3.org/2000/svg" viewBox="0 0 48 48"><linearGradient id="etCpzzR~V6xvDWAKL1di1a" x1="23" x2="23" y1="428.505" y2="436.288" gradientTransform="translate(0 -421.78)" gradientUnits="userSpaceOnUse"><stop offset="0" stop-color="#eba600"/><stop offset="1" stop-color="#c28200"/></linearGradient><path fill="url(#etCpzzR~V6xvDWAKL1di1a)" d="M22.414,10.414l-2.536-2.536C19.316,7.316,18.553,7,17.757,7H5C3.895,7,3,7.895,3,9v7.8L5,39	h38l0-26l-17.421-2h-1.75C23.298,11,22.789,10.789,22.414,10.414z"/><linearGradient id="etCpzzR~V6xvDWAKL1di1b" x1="24" x2="24" y1="432.634" y2="462.763" gradientTransform="translate(0 -421.78)" gradientUnits="userSpaceOnUse"><stop offset="0" stop-color="#ffd869"/><stop offset="1" stop-color="#fec52b"/></linearGradient><path fill="url(#etCpzzR~V6xvDWAKL1di1b)" d="M20.586,14.414l3.268-3.268C23.947,11.053,24.074,11,24.207,11h4.103L45,27.387V39	c0,1.105-0.895,2-2,2H5c-1.105,0-2-0.895-2-2V15.5C3,15.224,3.224,15,3.5,15h15.672C19.702,15,20.211,14.789,20.586,14.414z"/><path d="M32.58,33.82c-0.32,0.74-1.02,1.19-1.83,1.19H28V41h-8v-5.99h-2.75	c-0.81,0-1.51-0.45-1.83-1.19c-0.33-0.73-0.2-1.55,0.34-2.15l6.01-6.68C22.34,24.36,23.15,24,24,24s1.66,0.36,2.23,0.99l6.01,6.68	C32.78,32.27,32.91,33.09,32.58,33.82z" opacity=".05"/><path d="M32.12,33.62c-0.24,0.55-0.76,0.89-1.37,0.89H27.5V41h-7v-6.49h-3.25	c-0.61,0-1.13-0.34-1.37-0.89c-0.25-0.55-0.15-1.17,0.25-1.61l6.01-6.68c0.48-0.53,1.15-0.83,1.86-0.83s1.38,0.3,1.86,0.83	l6.01,6.68C32.27,32.45,32.37,33.07,32.12,33.62z" opacity=".07"/><linearGradient id="etCpzzR~V6xvDWAKL1di1c" x1="-1247.915" x2="-1237.369" y1="1062.749" y2="1043.785" gradientTransform="matrix(-1 0 0 1 -1218 -1017.88)" gradientUnits="userSpaceOnUse"><stop offset="0" stop-color="#007ad9"/><stop offset="1" stop-color="#2aa4f4"/></linearGradient><path fill="url(#etCpzzR~V6xvDWAKL1di1c)" d="M17.245,34.01H21v10c0,0.552,0.448,1,1,1h4c0.552,0,1-0.448,1-1v-10h3.755	c0.866,0,1.322-1.025,0.743-1.669l-6.011-6.679c-0.794-0.883-2.179-0.883-2.973,0l-6.011,6.679	C15.923,32.985,16.38,34.01,17.245,34.01z"/><path d="M45,22.99v6.98C44.66,29.99,44.33,30,44,30c-4.78,0-9.3-1.88-12.72-5.28	c-3.62-3.64-5.53-8.63-5.25-13.72h6.98v0.04c-0.11,3.03,0.99,6.03,3.02,8.23C38.2,21.64,41.29,23,44.5,23c0.16,0,0.3,0,0.44-0.01H45	z" opacity=".05"/><path d="M45,23.49v5.98c-0.34,0.02-0.67,0.03-1,0.03c-4.65,0-9.04-1.82-12.36-5.14	c-3.53-3.53-5.39-8.4-5.11-13.36h5.98v0.02c-0.12,3.16,1.03,6.29,3.15,8.59c2.27,2.47,5.49,3.89,8.84,3.89h0.03	c0.14,0,0.29,0,0.44-0.01H45z" opacity=".07"/><linearGradient id="etCpzzR~V6xvDWAKL1di1d" x1="27" x2="45" y1="27.89" y2="27.89" gradientTransform="matrix(1 0 0 -1 0 47.89)" gradientUnits="userSpaceOnUse"><stop offset="0" stop-color="#7819a2"/><stop offset="1" stop-color="#771aa9"/></linearGradient><path fill="url(#etCpzzR~V6xvDWAKL1di1d)" d="M31.99,24.01c-3.298-3.309-5.254-7.936-4.961-13.01h4.981c-0.12,3.29,1.05,6.53,3.28,8.95	C37.65,22.52,41.01,24,44.5,24c0.16,0,0.33,0,0.5-0.01v4.981C39.926,29.264,35.299,27.308,31.99,24.01z"/><path fill="#a238c2" d="M31,11.5c0-0.17,0-0.34,0.01-0.5h5.01c-0.13,2.3,0.67,4.56,2.21,6.25C39.84,19,42.12,20,44.5,20	c0.17,0,0.33,0,0.5-0.02v5.01C44.84,25,44.67,25,44.5,25C37.06,25,31,18.94,31,11.5z"/><path fill="#ba54d9" d="M35,11.5c0-0.17,0-0.33,0.01-0.5h5.08c0.2,1.26,0.8,2.38,1.67,3.24c0.86,0.87,1.98,1.47,3.24,1.67	v5.08C44.83,21,44.67,21,44.5,21C39.26,21,35,16.74,35,11.5z"/><path fill="#c767e5" d="M39.021,11.008c0.003-0.003,0.005-0.005,0.009-0.008H43c1.105,0,2,0.893,2,1.998v3.944	c-0.004,0.036-0.004,0.036-0.008,0.037C41.565,17.276,38.724,14.436,39.021,11.008z"/></svg>