<svg xmlns="http://www.w3.org/2000/svg" viewBox="0 0 48 48"><radialGradient id="_vEEEL2xDaQl2s2S_U7z7a" cx="25.951" cy="25.065" r="25.463" gradientUnits="userSpaceOnUse"><stop offset="0" stop-color="#007ad9"/><stop offset="1" stop-color="#2aa4f4"/></radialGradient><path fill="url(#_vEEEL2xDaQl2s2S_U7z7a)" d="M26.287,1.259L28.997,13h-6l2.709-11.741C25.777,0.951,26.216,0.951,26.287,1.259z M9.004,8.418l6.386,10.218l4.243-4.243L9.415,8.007C9.146,7.84,8.836,8.15,9.004,8.418z M2.256,25.291L13.997,28v-6L2.256,24.709	C1.948,24.781,1.948,25.219,2.256,25.291z M9.415,41.993l10.218-6.386l-4.243-4.243L9.004,41.582	C8.836,41.85,9.146,42.16,9.415,41.993z M42.579,8.007l-10.218,6.386l4.243,4.243l6.386-10.218	C43.157,8.15,42.847,7.84,42.579,8.007z"/><radialGradient id="_vEEEL2xDaQl2s2S_U7z7b" cx="19.293" cy="-779.593" r="44.502" gradientTransform="matrix(1 0 0 -1 0 -767.89)" gradientUnits="userSpaceOnUse"><stop offset="0" stop-color="#ffcf54"/><stop offset=".261" stop-color="#fdcb4d"/><stop offset=".639" stop-color="#f7c13a"/><stop offset="1" stop-color="#f0b421"/></radialGradient><path fill="url(#_vEEEL2xDaQl2s2S_U7z7b)" d="M31.997,40.25l2.25,0.75c2.274,0.471,4.25-1.25,4.407-3.587l0.343-5.163l2.402-0.875	c0.784-0.314,1.098-1.255,0.627-2.039L38.997,24.5c-0.47-5.96-4-12-12.5-12s-13.5,5.756-13.5,12.5c0,2.901,1.269,6.453,2.838,8.571	c1.412,1.96,2.162,4.077,2.162,6.429v2.5c0,0.867,0.657,1.5,1.523,1.5h10.978c0.867,0,1.498-0.633,1.498-1.5V40.25z"/><circle cx="34.5" cy="25.5" r="1.5" fill="#2b1d1d"/><path fill="none" stroke="#eba600" stroke-linecap="round" stroke-linejoin="round" stroke-miterlimit="10" stroke-width="2" d="M24,25	c-3-1-6.75,4-1,7"/></svg>