<svg xmlns="http://www.w3.org/2000/svg" viewBox="0 0 48 48"><linearGradient id="hwIhT5PUoHxm6tK5ERtb5a" x1="32.047" x2="11.642" y1="33.778" y2="13.372" gradientUnits="userSpaceOnUse"><stop offset="0" stop-color="#c2c8cc"/><stop offset="1" stop-color="#f9f9f9"/></linearGradient><path fill="url(#hwIhT5PUoHxm6tK5ERtb5a)" d="M28.992,7.63c-1.4-0.46-2.73-0.66-3.99-0.59c-0.33,0.02-0.66,0.06-0.99,0.11	c-1.44,0.25-2.81,0.86-4.16,1.89c-0.94,0.7-1.87,1.6-2.8,2.71c-0.43,0.51-0.97,1.14-1.57,1.85c-0.18,0.21-0.38,0.44-0.57,0.67	c-0.72,0.83-1.52,1.75-2.34,2.71c-1.66,1.93-3.47,4.01-5.06,5.84c-1.3,1.5-2.46,2.83-3.28,3.77c-0.69,0.79-0.64,1.99,0.11,2.73	L6.052,31l14.95,13.5c1.1,0.92,2.78,0.41,3.2-0.96l0.7-2.66l1.01-3.88l1.06-4.06l1.03-3.94l-0.08-0.17l-0.11-0.24	c-0.01,0-0.01,0-0.01-0.01l-2.47-5.34l-2.69-5.82l1.72-1.41l3.17-2.59l0.52-0.42l1.58-4.04C29.842,8.42,29.542,7.81,28.992,7.63z"/><linearGradient id="hwIhT5PUoHxm6tK5ERtb5b" x1="30.69" x2="9.65" y1="28.841" y2="7.802" gradientUnits="userSpaceOnUse"><stop offset=".002" stop-color="#454545"/><stop offset=".013" stop-color="#464646"/><stop offset=".875" stop-color="#626262"/><stop offset="1" stop-color="#6d6d6d"/></linearGradient><path fill="url(#hwIhT5PUoHxm6tK5ERtb5b)" d="M28.002,29l-1.03,3.94c-1.26,0-5.85-3.45-9.45-11.33c-0.36-0.77-0.7-1.58-1.03-2.44	c-0.58-1.5-1.11-3.13-1.58-4.9c0.19-0.23,0.39-0.46,0.57-0.67c0.6-0.71,1.14-1.34,1.57-1.85c0.93-1.11,1.86-2.01,2.8-2.71	c0.05,1.66,0.28,3.58,0.65,5.58c0.24,1.26,0.54,2.56,0.89,3.82c1.39,4.94,3.65,9.46,6.53,10.39L28.002,29z"/><linearGradient id="hwIhT5PUoHxm6tK5ERtb5c" x1="38.145" x2="17.105" y1="21.386" y2=".346" gradientUnits="userSpaceOnUse"><stop offset=".002" stop-color="#454545"/><stop offset=".013" stop-color="#464646"/><stop offset=".875" stop-color="#626262"/><stop offset="1" stop-color="#6d6d6d"/></linearGradient><path fill="url(#hwIhT5PUoHxm6tK5ERtb5c)" d="M29.632,8.96L28.052,13l-0.52,0.42L25.002,13V7.04c1.26-0.07,2.59,0.13,3.99,0.59	C29.542,7.81,29.842,8.42,29.632,8.96z"/><path fill="#cdd2d6" d="M26.002,6c-3,1-5,4-5,8h5V6z"/><path fill="#cdd2d6" d="M44.462,28.65c-0.71,1.17-1.96,1.86-3.27,1.86c-0.27,0-0.54-0.03-0.81-0.09l-2.38-0.51l-2.72-0.59	L33.802,29c0,0-1.19,0.68-3.28,0.92h-0.01c-0.45,0.05-0.93,0.08-1.46,0.08c-0.36,0-0.69-0.01-0.99-0.04	c-2.25-0.18-3.06-0.96-3.06-0.96c-0.65-0.49-1.2-0.98-1.65-1.5c-0.83-0.93-1.37-1.95-1.72-3.21c-0.39-1.43-0.54-3.17-0.59-5.45	c-0.04-1.39-0.04-2.99-0.04-4.84l4.05-3.25l7.66,3.11c0.1,0.04,0.2,0.09,0.29,0.15c0.11,0.07,0.22,0.15,0.32,0.24l1.52,1.4	l5.63,5.19l0.94,0.87l1.68,1.54l0.69,0.64C45.102,25.12,45.382,27.11,44.462,28.65z"/><linearGradient id="hwIhT5PUoHxm6tK5ERtb5d" x1="29.002" x2="32.002" y1="19" y2="19" gradientUnits="userSpaceOnUse"><stop offset="0" stop-color="#4c4c4c"/><stop offset="1" stop-color="#343434"/></linearGradient><path fill="url(#hwIhT5PUoHxm6tK5ERtb5d)" d="M31.002,20c-1.455,0-2-2-2-2s1.448,0,2,0s1,0.448,1,1S31.554,20,31.002,20z"/><linearGradient id="hwIhT5PUoHxm6tK5ERtb5e" x1="34.301" x2="46.401" y1="35.505" y2="23.405" gradientUnits="userSpaceOnUse"><stop offset=".002" stop-color="#454545"/><stop offset=".013" stop-color="#464646"/><stop offset=".875" stop-color="#626262"/><stop offset="1" stop-color="#6d6d6d"/></linearGradient><path fill="url(#hwIhT5PUoHxm6tK5ERtb5e)" d="M44.462,28.65c-0.71,1.17-1.96,1.86-3.27,1.86c-0.27,0-0.54-0.03-0.81-0.09l-2.38-0.51	c0.04-1.76,1.22-3.24,2.82-3.73c0.65-0.2,1.16-0.71,1.36-1.36c0.18-0.59,0.5-1.13,0.91-1.57l0.69,0.64	C45.102,25.12,45.382,27.11,44.462,28.65z"/><linearGradient id="hwIhT5PUoHxm6tK5ERtb5f" x1="30.204" x2="42.304" y1="31.408" y2="19.309" gradientUnits="userSpaceOnUse"><stop offset=".002" stop-color="#454545"/><stop offset=".013" stop-color="#464646"/><stop offset=".875" stop-color="#626262"/><stop offset="1" stop-color="#6d6d6d"/></linearGradient><path fill="url(#hwIhT5PUoHxm6tK5ERtb5f)" d="M41.412,21.71c-0.68,1.22-1.14,2.66-2.41,3.29c-2.33,1.16-3.31,2.85-3.72,4.32L33.802,29	c0,0-1.19,0.68-3.28,0.92c0.7-2.15,2.26-5.28,5.48-5.92c1.39-0.28,2.76-2.07,4.47-3.16L41.412,21.71z"/><linearGradient id="hwIhT5PUoHxm6tK5ERtb5g" x1="26.574" x2="38.674" y1="27.778" y2="15.678" gradientUnits="userSpaceOnUse"><stop offset=".002" stop-color="#454545"/><stop offset=".013" stop-color="#464646"/><stop offset=".875" stop-color="#626262"/><stop offset="1" stop-color="#6d6d6d"/></linearGradient><path fill="url(#hwIhT5PUoHxm6tK5ERtb5g)" d="M32.002,23c-0.7,0.46-3.54,2.65-3.94,6.96c-1.807,0-3.102-0.943-3.102-0.943	c-0.65-0.49-1.158-0.997-1.608-1.517C24.292,26.23,27.182,23,32.002,23z"/><linearGradient id="hwIhT5PUoHxm6tK5ERtb5h" x1="23.791" x2="35.891" y1="24.995" y2="12.895" gradientUnits="userSpaceOnUse"><stop offset=".002" stop-color="#454545"/><stop offset=".013" stop-color="#464646"/><stop offset=".875" stop-color="#626262"/><stop offset="1" stop-color="#6d6d6d"/></linearGradient><path fill="url(#hwIhT5PUoHxm6tK5ERtb5h)" d="M34.842,15.65c-0.42,0.58-1.02,1.08-1.84,1.35c0,0,0.35-1.42,0-2.99	c0.11,0.07,0.22,0.15,0.32,0.24L34.842,15.65z"/><linearGradient id="hwIhT5PUoHxm6tK5ERtb5i" x1="21.369" x2="33.468" y1="22.573" y2="10.473" gradientUnits="userSpaceOnUse"><stop offset=".002" stop-color="#454545"/><stop offset=".013" stop-color="#464646"/><stop offset=".875" stop-color="#626262"/><stop offset="1" stop-color="#6d6d6d"/></linearGradient><path fill="url(#hwIhT5PUoHxm6tK5ERtb5i)" d="M27.002,21c-1.68,0-4.06,0.7-5.37,3.29c-0.434-1.41-0.59-3.154-0.59-5.45	C22.772,18.85,25.232,19.23,27.002,21z"/><linearGradient id="hwIhT5PUoHxm6tK5ERtb5j" x1="23.797" x2="2.757" y1="35.734" y2="14.694" gradientUnits="userSpaceOnUse"><stop offset=".002" stop-color="#454545"/><stop offset=".013" stop-color="#464646"/><stop offset=".875" stop-color="#626262"/><stop offset="1" stop-color="#6d6d6d"/></linearGradient><path fill="url(#hwIhT5PUoHxm6tK5ERtb5j)" d="M25.912,37l-1.01,3.88c-3.93-0.8-10.53-5.53-14.96-13.06c-0.15-0.24-0.29-0.49-0.43-0.74	c-0.75-1.34-1.42-2.76-2-4.26c1.59-1.83,3.4-3.91,5.06-5.84c0.36,1.52,0.89,3.18,1.54,4.88c0.24,0.63,0.5,1.26,0.78,1.9	C17.742,30.37,22.192,36.89,25.912,37z"/></svg>