<svg xmlns="http://www.w3.org/2000/svg" viewBox="0 0 48 48"><linearGradient id="lf6c68szn6uj9L9f_wEgYa" x1="14" x2="34" y1="36.5" y2="36.5" gradientUnits="userSpaceOnUse"><stop offset="0" stop-color="#4b4b4b"/><stop offset="1" stop-color="#3b3b3b"/></linearGradient><path fill="url(#lf6c68szn6uj9L9f_wEgYa)" d="M14,32v5.143C14,39.273,18.477,41,24,41s10-1.727,10-3.857V32H14z"/><linearGradient id="lf6c68szn6uj9L9f_wEgYb" x1="26.913" x2="21.085" y1="33.031" y2="22.301" gradientUnits="userSpaceOnUse"><stop offset="0" stop-color="#455a64"/><stop offset="1" stop-color="#889097"/></linearGradient><path fill="url(#lf6c68szn6uj9L9f_wEgYb)" d="M11,25v5c0,2.209,5.82,4,13,4s13-1.791,13-4v-5H11z"/><linearGradient id="lf6c68szn6uj9L9f_wEgYc" x1="25.121" x2="6.867" y1="25.345" y2="19.734" gradientUnits="userSpaceOnUse"><stop offset="0" stop-color="#455a64"/><stop offset="1" stop-color="#889097"/></linearGradient><ellipse cx="24" cy="25" fill="url(#lf6c68szn6uj9L9f_wEgYc)" rx="13" ry="4"/><linearGradient id="lf6c68szn6uj9L9f_wEgYd" x1="13" x2="35" y1="23.5" y2="23.5" gradientUnits="userSpaceOnUse"><stop offset="0" stop-color="#4b4b4b"/><stop offset="1" stop-color="#3b3b3b"/></linearGradient><path fill="url(#lf6c68szn6uj9L9f_wEgYd)" d="M13,20v4c0,1.657,4.925,3,11,3s11-1.343,11-3v-4H13z"/><linearGradient id="lf6c68szn6uj9L9f_wEgYe" x1="30.766" x2="14.332" y1="23.011" y2="7.996" gradientUnits="userSpaceOnUse"><stop offset="0" stop-color="#455a64"/><stop offset="1" stop-color="#889097"/></linearGradient><path fill="url(#lf6c68szn6uj9L9f_wEgYe)" d="M11,13v7c0,2.209,5.82,4,13,4s13-1.791,13-4v-7H11z"/><linearGradient id="lf6c68szn6uj9L9f_wEgYf" x1="16.664" x2="31.742" y1="7.298" y2="19.017" gradientUnits="userSpaceOnUse"><stop offset="0" stop-color="#4b4b4b"/><stop offset="1" stop-color="#3b3b3b"/></linearGradient><ellipse cx="24" cy="13" fill="url(#lf6c68szn6uj9L9f_wEgYf)" rx="13" ry="4"/><radialGradient id="lf6c68szn6uj9L9f_wEgYg" cx="38.488" cy="54.111" r="13.937" gradientTransform="matrix(.7692 0 0 .5243 -10.154 -17.551)" gradientUnits="userSpaceOnUse"><stop offset="0" stop-color="#bd8af5"/><stop offset=".137" stop-color="#b88bf5"/><stop offset=".309" stop-color="#a88ff3"/><stop offset=".499" stop-color="#8f96f2"/><stop offset=".702" stop-color="#6b9eef"/><stop offset=".913" stop-color="#3eaaec"/><stop offset="1" stop-color="#29afea"/></radialGradient><ellipse cx="24" cy="13.5" fill="url(#lf6c68szn6uj9L9f_wEgYg)" rx="10" ry="2.5"/></svg>