<svg xmlns="http://www.w3.org/2000/svg" viewBox="0 0 48 48"><linearGradient id="TTgOjAeljJ3G4I9GB0xyfa" x1="-8.071" x2="16.556" y1="40.035" y2="64.662" gradientTransform="translate(11.828 -36.276)" gradientUnits="userSpaceOnUse"><stop offset="0" stop-color="#21ad64"/><stop offset="1" stop-color="#088242"/></linearGradient><path fill="url(#TTgOjAeljJ3G4I9GB0xyfa)" d="M2.998,3c0,0,0,11.314,7.354,18.668c7.92,7.92,18.668,7.354,18.668,7.354	s0.566-10.748-7.354-18.668C14.312,3,2.998,3,2.998,3z"/><linearGradient id="TTgOjAeljJ3G4I9GB0xyfb" x1="10.428" x2="-6.487" y1="-5.475" y2="11.439" gradientTransform="rotate(-45.001 29.425 -9.4)" gradientUnits="userSpaceOnUse"><stop offset="0" stop-color="#9dffce"/><stop offset="1" stop-color="#50d18d"/></linearGradient><path fill="url(#TTgOjAeljJ3G4I9GB0xyfb)" d="M13.443,8.202c-0.553,0-1,0.448-1,1v1.828L8.514,7.101c-0.391-0.391-1.023-0.391-1.414,0	s-0.391,1.023,0,1.414l5.548,5.548c0.061,0.084,0.132,0.155,0.217,0.217l2.427,2.428h-2.536c-0.552,0-1,0.447-1,1	c0,0.552,0.447,1,1,1h4.536L29.02,30.436c0.195,0.195,0.451,0.293,0.707,0.293c0.256,0,0.512-0.098,0.707-0.293	c0.391-0.391,0.391-1.023,0-1.414L14.443,13.03l0-3.828C14.443,8.65,13.995,8.202,13.443,8.202z"/><path d="M20.954,17.902c1.271-1.271,2.655-2.345,4.086-3.279	c-0.348-0.561-0.726-1.119-1.137-1.671c-1.521,1.003-2.994,2.168-4.363,3.537c-2.529,2.529-4.387,5.279-5.759,8.009	c0.577,0.392,1.157,0.751,1.739,1.078C16.809,22.947,18.553,20.303,20.954,17.902z" opacity=".05"/><path d="M19.894,16.841c-2.493,2.493-4.322,5.23-5.67,7.954	c0.283,0.184,0.568,0.358,0.852,0.526c1.309-2.661,3.091-5.339,5.525-7.773c1.299-1.299,2.706-2.41,4.166-3.363	c-0.178-0.274-0.365-0.548-0.559-0.82C22.697,14.351,21.239,15.496,19.894,16.841z" opacity=".07"/><linearGradient id="TTgOjAeljJ3G4I9GB0xyfc" x1="35.334" x2="35.334" y1="15.673" y2="63.673" gradientTransform="rotate(45.001 49.425 23.5)" gradientUnits="userSpaceOnUse"><stop offset="0" stop-color="#33c481"/><stop offset="1" stop-color="#21a366"/></linearGradient><path fill="url(#TTgOjAeljJ3G4I9GB0xyfc)" d="M44.996,8.002c0,0-15.157-0.4-24.749,9.192c-10.33,10.33-9.192,24.749-9.192,24.749	s14.419,1.138,24.749-9.192C45.395,23.159,44.996,8.002,44.996,8.002z"/><linearGradient id="TTgOjAeljJ3G4I9GB0xyfd" x1="34.959" x2="34.959" y1="21.673" y2="66.673" gradientTransform="rotate(45.001 49.425 23.5)" gradientUnits="userSpaceOnUse"><stop offset="0" stop-color="#9dffce"/><stop offset="1" stop-color="#50d18d"/></linearGradient><path fill="url(#TTgOjAeljJ3G4I9GB0xyfd)" d="M25.843,35.58c0-0.552-0.447-1-1-1h-5.011L32.682,21.73h5.243c0.552,0,1-0.447,1-1	s-0.447-1-1-1h-3.243l6.071-6.071c0.39-0.39,0.391-1.023,0-1.414s-1.024-0.39-1.414,0L25.49,26.094v-6.071c0-0.552-0.447-1-1-1	s-1,0.447-1,1v8.071L8.933,42.651c-0.39,0.39-0.391,1.023,0,1.414c0.391,0.391,1.024,0.39,1.414,0l7.485-7.485h7.01	C25.396,36.579,25.843,36.132,25.843,35.58z"/></svg>