<svg xmlns="http://www.w3.org/2000/svg" xmlns:xlink="http://www.w3.org/1999/xlink" data-name="Слой 1" viewBox="0 0 48 48"><defs><linearGradient id="lB47gs~bEfLWT0b94TQx4a" x1="37.614" x2="46.49" y1="28" y2="28" data-name="Безымянный градиент 155" gradientUnits="userSpaceOnUse"><stop offset="0" stop-color="#3079d6"/><stop offset="1" stop-color="#297cd2"/></linearGradient><linearGradient id="lB47gs~bEfLWT0b94TQx4b" x1="34" x2="36" y1="29" y2="29" xlink:href="#lB47gs~bEfLWT0b94TQx4a"/><linearGradient id="lB47gs~bEfLWT0b94TQx4c" x1="30" x2="32" y1="29" y2="29" xlink:href="#lB47gs~bEfLWT0b94TQx4a"/><linearGradient id="lB47gs~bEfLWT0b94TQx4d" x1="26" x2="28" y1="29" y2="29" xlink:href="#lB47gs~bEfLWT0b94TQx4a"/><linearGradient id="lB47gs~bEfLWT0b94TQx4e" x1="22" x2="24" y1="29" y2="29" xlink:href="#lB47gs~bEfLWT0b94TQx4a"/></defs><path fill="#35c1f1" d="M22,19a.99762.99762,0,0,1-.3457-.06152l-19-7a1.00013,1.00013,0,1,1,.6914-1.877l19,7A1,1,0,0,1,22,19Z"/><path fill="#35c1f1" d="M47,23a1.00968,1.00968,0,0,1-.35156-.06348l-16-6a1.00033,1.00033,0,0,1,.70312-1.873l16,6A1.00012,1.00012,0,0,1,47,23Z"/><path fill="#0370c8" d="M39,17h0a1,1,0,0,1,1,1v5a0,0,0,0,1,0,0H38a0,0,0,0,1,0,0V18a1,1,0,0,1,1-1Z"/><path fill="#0370c8" d="M38.5,38a.49971.49971,0,0,1-.5-.5v-4a.5.5,0,0,1,1,0v4A.49971.49971,0,0,1,38.5,38Z"/><path fill="#0370c8" d="M12,12h0a1,1,0,0,1,1,1v5a0,0,0,0,1,0,0H11a0,0,0,0,1,0,0V13a1,1,0,0,1,1-1Z"/><path fill="#42a4ed" d="M43.74,35H15.46a3.99758,3.99758,0,0,1-2.58-.94L2.59,25.42a2.36047,2.36047,0,0,1-.78-2.31L3.35,16.3a1.65369,1.65369,0,0,1,2.14-1.21l8.76,2.98a4.06355,4.06355,0,0,1,2,1.50995L17.92,22l.35.5.35.5L20,25H30l5.58-2.79a1.97431,1.97431,0,0,1,.89-.21h3.29a1.99993,1.99993,0,0,1,1.79,1.11L43,26l3.17,3.57a3.18635,3.18635,0,0,1,.32.43A3.26062,3.26062,0,0,1,43.74,35Z"/><path fill="url(#lB47gs~bEfLWT0b94TQx4a)" d="M46.49,30H41.47a4.02022,4.02022,0,0,1-3.58-2.21l-.17-.34a1.0022,1.0022,0,0,1,.9-1.45H43l3.17,3.57A3.18635,3.18635,0,0,1,46.49,30Z"/><circle cx="35" cy="29" r="1" fill="url(#lB47gs~bEfLWT0b94TQx4b)"/><circle cx="31" cy="29" r="1" fill="url(#lB47gs~bEfLWT0b94TQx4c)"/><circle cx="27" cy="29" r="1" fill="url(#lB47gs~bEfLWT0b94TQx4d)"/><path fill="#0370c8" d="M20.5,38a.5.5,0,0,1-.35352-.85352L22,35.293V33.5a.5.5,0,0,1,1,0v2a.49965.49965,0,0,1-.14648.35352l-2,2A.49842.49842,0,0,1,20.5,38Z"/><circle cx="23" cy="29" r="1" fill="url(#lB47gs~bEfLWT0b94TQx4e)"/><path fill="#35c1f1" d="M19,33.92353h0a1.07647,1.07647,0,0,1,.91279-1.064l9.9593-1.5322A1.84705,1.84705,0,0,1,32,33.15294h0A1.847,1.847,0,0,1,30.153,35H20.07647A1.07647,1.07647,0,0,1,19,33.92353Z"/><rect width="8" height="3" x="16" y="23" fill="#35c1f1" rx="1.5"/><path d="M30.16,30.31a3.26015,3.26015,0,0,0-.44.03l-9.96,1.53A2.07882,2.07882,0,0,0,18.3,35h1.78a1.07649,1.07649,0,0,1-.17-2.14l9.96-1.53a1.41789,1.41789,0,0,1,.29-.02A1.845,1.845,0,1,1,30.15,35h2.16A2.79755,2.79755,0,0,0,33,33.15,2.84447,2.84447,0,0,0,30.16,30.31Z" opacity=".05"/><path d="M30.16,30.81a2.1778,2.1778,0,0,0-.36.02l-9.96,1.54A1.568,1.568,0,0,0,18.93,35h1.15a1.07649,1.07649,0,0,1-.17-2.14l9.96-1.53a1.41789,1.41789,0,0,1,.29-.02A1.845,1.845,0,1,1,30.15,35h1.44A2.33853,2.33853,0,0,0,30.16,30.81Z" opacity=".07"/><path d="M23.91,25a1.49532,1.49532,0,0,1-1.41,1h-5a1.5,1.5,0,0,1,0-3h1.12l-.35-.5-.35-.5H17.5a2.5,2.5,0,0,0,0,5h5a2.50023,2.50023,0,0,0,2.45-2Z" opacity=".05"/><path d="M23.91,25a1.49532,1.49532,0,0,1-1.41,1h-5a1.5,1.5,0,0,1,0-3h1.12l-.35-.5H17.5a2,2,0,0,0,0,4h5A1.9955,1.9955,0,0,0,24.43,25Z" opacity=".07"/><circle cx="38.5" cy="37.5" r="1.5" fill="#42a4ed"/><circle cx="20.5" cy="37.5" r="1.5" fill="#42a4ed"/></svg>