<svg xmlns="http://www.w3.org/2000/svg" viewBox="0 0 48 48"><path fill="#35c1f1" d="M40,43H22V7h18c1.105,0,2,0.895,2,2v32C42,42.105,41.105,43,40,43z"/><path fill="#199be2" d="M14.447,3.224C14.306,3.153,14.153,3.118,14,3.118v36c0.153,0,0.306,0.035,0.447,0.106L22,43V7	L14.447,3.224z"/><path fill="#50e6ff" d="M13.553,3.224L7.106,6.447C6.428,6.786,6,7.479,6,8.236v33.146c0,0.743,0.782,1.227,1.447,0.894	l6.106-3.053c0.141-0.07,0.294-0.106,0.447-0.106v-36C13.847,3.118,13.694,3.153,13.553,3.224z"/><path d="M31.451,14c-1.848,0-4.147,0.935-5.167,1.395	c-0.326,0.147-0.53,0.469-0.53,0.826v4.551c0,0.574,0.671,0.881,1.104,0.505c0.957-0.831,2.45-1.821,4.131-1.821	c0.495,0,1.085,0.156,1.085,0.899c0,1.961-3.945,2.66-3.945,6.821c0,0.548,0.259,1.506,0.434,2.089	c0.088,0.293,0.356,0.495,0.663,0.494l4.304-0.011c0.495-0.001,0.838-0.528,0.598-0.961c-0.273-0.492-0.377-1.018-0.377-1.214	c0-0.792,0.388-1.335,1.411-2.202c1.301-1.103,3.083-2.613,3.083-5.597C38.244,16.159,35.705,14,31.451,14z" opacity=".05"/><path d="M26.646,15.732c0.897-0.443,2.781-1.232,4.806-1.232	c4.987,0,6.293,3.046,6.293,5.276c0,2.734-1.593,4.102-2.879,5.192c-0.848,0.719-1.424,1.257-1.64,1.971	c-0.079,0.261-0.06,0.715,0.109,1.144c0.204,0.516,0.745,1.173-0.529,1.173l-3.283,0.005c-0.332,0-0.524-0.187-0.577-0.37	c-0.103-0.353-0.231-0.883-0.278-1.38c-0.022-0.235-0.03-0.456-0.019-0.648c0.221-3.694,3.926-4.187,3.926-6.507	c0-0.692-0.413-0.97-0.809-1.124c-0.595-0.233-1.284-0.19-1.668-0.099c-0.933,0.222-1.773,0.599-2.423,1.027	c-0.451,0.297-0.987,0.271-1.149,0.101c-0.114,0.083-0.272-0.509-0.272-0.65v-3.127c0-0.06,0.016-0.245,0.033-0.3	C26.346,15.995,26.459,15.824,26.646,15.732z" opacity=".07"/><path d="M31.332,30.026c-1.57,0-3.24,1.043-3.24,2.975	c0,1.948,1.67,2.999,3.24,2.999c1.887,0,3.204-1.233,3.204-2.999C34.535,31.048,32.924,30.026,31.332,30.026z" opacity=".05"/><path d="M31.332,35.5c-1.33,0-2.74-0.865-2.74-2.499	c0-1.626,1.433-2.475,2.74-2.475c1.318,0,2.704,0.803,2.704,2.475C34.035,34.579,32.819,35.5,31.332,35.5z" opacity=".07"/><path fill="#fff" d="M29.406,28.761c-0.088-0.229-0.277-0.91-0.277-1.583c0-3.832,3.945-3.979,3.945-6.821	c0-1.789-1.768-1.9-2.085-1.9c-2.008,0-3.576,1.148-4.235,1.728v-3.971C27.433,15.809,28.982,15,31.451,15	c5.72,0,5.792,3.932,5.792,4.776c0,4.539-4.684,4.875-4.684,7.784c0,0.607,0.22,1.051,0.317,1.201L29.406,28.761z M31.332,35	c-1.089,0-2.24-0.679-2.24-1.999s1.196-1.975,2.24-1.975c1.044,0,2.204,0.585,2.204,1.975C33.535,34.391,32.421,35,31.332,35z"/></svg>