<svg xmlns="http://www.w3.org/2000/svg" viewBox="0 0 48 48"><linearGradient id="qVVWs_doyIf~ju4pZTqcpa" x1="13.963" x2="33.864" y1="6.616" y2="41.086" gradientUnits="userSpaceOnUse"><stop offset="0" stop-color="#889097"/><stop offset="1" stop-color="#4c5963"/></linearGradient><circle cx="24" cy="24" r="20" fill="url(#qVVWs_doyIf~ju4pZTqcpa)"/><path fill="#1d1d1b" d="M26.5,37H19c-2.206,0-4-1.794-4-4V15c0-2.206,1.794-4,4-4h6.5c4.136,0,7.5,3.364,7.5,7.5 c0,1.271-0.314,2.497-0.917,3.594C33.925,23.701,35,26.032,35,28.5C35,33.187,31.187,37,26.5,37z M19,13c-1.103,0-2,0.897-2,2v18 c0,1.103,0.897,2,2,2h7.5c3.584,0,6.5-2.916,6.5-6.5c0-2.133-1.053-4.134-2.815-5.352l-0.845-0.583l0.605-0.829 C30.636,20.791,31,19.671,31,18.5c0-3.033-2.468-5.5-5.5-5.5H19z M26.5,33H19v-9h7.5c2.481,0,4.5,2.019,4.5,4.5 S28.981,33,26.5,33z M21,31h5.5c1.379,0,2.5-1.122,2.5-2.5S27.879,26,26.5,26H21V31z M25.5,22H19v-7h6.5c1.93,0,3.5,1.57,3.5,3.5 S27.43,22,25.5,22z M21,20h4.5c0.827,0,1.5-0.673,1.5-1.5S26.327,17,25.5,17H21V20z" opacity=".05"/><path d="M26.5,36.5H19c-1.93,0-3.5-1.57-3.5-3.5V15c0-1.93,1.57-3.5,3.5-3.5h6.5c3.859,0,7,3.14,7,7 c0,1.325-0.366,2.597-1.063,3.708c1.927,1.514,3.063,3.831,3.063,6.292C34.5,32.911,30.911,36.5,26.5,36.5z M19,12.5 c-1.379,0-2.5,1.122-2.5,2.5v18c0,1.378,1.121,2.5,2.5,2.5h7.5c3.859,0,7-3.14,7-7c0-2.298-1.133-4.452-3.031-5.763l-0.422-0.292 l0.302-0.415c0.753-1.031,1.151-2.252,1.151-3.53c0-3.309-2.691-6-6-6H19z M26.5,32.5h-7v-8h7c2.206,0,4,1.794,4,4 S28.706,32.5,26.5,32.5z M20.5,31.5h6c1.654,0,3-1.346,3-3s-1.346-3-3-3h-6V31.5z M25.5,21.5h-6v-6h6c1.654,0,3,1.346,3,3 S27.154,21.5,25.5,21.5z M20.5,20.5h5c1.103,0,2-0.897,2-2s-0.897-2-2-2h-5V20.5z" opacity=".07"/><path fill="#f44e5a" d="M26.5,36H19c-1.654,0-3-1.346-3-3V15c0-1.654,1.346-3,3-3h6.5c3.584,0,6.5,2.916,6.5,6.5 c0,1.429-0.463,2.751-1.247,3.825C32.713,23.679,34,25.942,34,28.5C34,32.636,30.636,36,26.5,36z M20,32h6.5 c1.93,0,3.5-1.57,3.5-3.5S28.43,25,26.5,25H20V32z M20,21h5.5c1.379,0,2.5-1.122,2.5-2.5S26.879,16,25.5,16H20V21z"/></svg>