<svg xmlns="http://www.w3.org/2000/svg" viewBox="0 0 48 48"><linearGradient id="f7GAkCu4yl7qwwkXEvYOya" x1="14" x2="14" y1="1103.125" y2="1112.81" gradientTransform="translate(0 -1082)" gradientUnits="userSpaceOnUse"><stop offset="0" stop-color="#ffcf54"/><stop offset=".261" stop-color="#fdcb4d"/><stop offset=".639" stop-color="#f7c13a"/><stop offset="1" stop-color="#f0b421"/></linearGradient><path fill="url(#f7GAkCu4yl7qwwkXEvYOya)" d="M14,22c2.209,0,4,1.791,4,4s-1.791,4-4,4s-4-1.791-4-4S11.791,22,14,22"/><path fill="#f3e5f5" d="M20,35H8c-0.552,0.001-0.999-0.446-1-0.998C7,34.001,7,34.001,7,34v-3	c-0.001-0.552,0.446-0.999,0.998-1C7.999,30,7.999,30,8,30h12c0.552-0.001,0.999,0.446,1,0.998c0,0.001,0,0.001,0,0.002v3	c0.001,0.552-0.446,0.999-0.998,1C20.001,35,20.001,35,20,35z"/><linearGradient id="f7GAkCu4yl7qwwkXEvYOyb" x1="19" x2="44" y1="1111" y2="1111" gradientTransform="translate(0 -1082)" gradientUnits="userSpaceOnUse"><stop offset="0" stop-color="#c965eb"/><stop offset="1" stop-color="#c767e5"/></linearGradient><path fill="url(#f7GAkCu4yl7qwwkXEvYOyb)" d="M44,34H19v-9c0-0.552,0.448-1,1-1h22c1.105,0,2,0.895,2,2V34z"/><linearGradient id="f7GAkCu4yl7qwwkXEvYOyc" x1="4" x2="44" y1="1112" y2="1112" gradientTransform="translate(0 -1082)" gradientUnits="userSpaceOnUse"><stop offset="0" stop-color="#7819a2"/><stop offset="1" stop-color="#771aa9"/></linearGradient><path fill="url(#f7GAkCu4yl7qwwkXEvYOyc)" d="M8,42H5c-0.552,0-1-0.448-1-1V20.5C4,19.119,5.119,18,6.5,18l0,0C7.881,18,9,19.119,9,20.5V33	h34c0.552,0,1,0.448,1,1v7c0,0.552-0.448,1-1,1h-3c-0.552,0-1-0.448-1-1v-3H9v3C9,41.552,8.552,42,8,42z"/><path fill="#50e6ff" d="M39.018,6c0,0-13.967,0-14.018,0c-2,0-6,4.015-6,4.015v2.007c0,0,3.893,4.016,6,3.978	c0.068-0.001,14.018,0,14.018,0C41.77,16,44,13.761,44,11S41.77,6,39.018,6z"/><path fill="#199be2" d="M25,6h2v2.5C27,8.776,26.776,9,26.5,9h-1C25.224,9,25,8.776,25,8.5V6z M29,6h2v2.5	C31,8.776,30.776,9,30.5,9h-1C29.224,9,29,8.776,29,8.5V6z M33,6h2v2.5C35,8.776,34.776,9,34.5,9h-1C33.224,9,33,8.776,33,8.5V6z M37,6h2v2.5C39,8.776,38.776,9,38.5,9h-1C37.224,9,37,8.776,37,8.5V6z"/><linearGradient id="f7GAkCu4yl7qwwkXEvYOyd" x1="19" x2="39" y1="11" y2="11" gradientUnits="userSpaceOnUse"><stop offset="0" stop-color="#f45560"/><stop offset=".897" stop-color="#cf1928"/></linearGradient><path fill="url(#f7GAkCu4yl7qwwkXEvYOyd)" d="M19,10h19.5c0.276,0,0.5,0.224,0.5,0.5v1c0,0.276-0.224,0.5-0.5,0.5H19V10z"/><path fill="#636a6f" d="M19,10h-4c-0.553,0-1,0.447-1,1s0.447,1,1,1h4V10z"/></svg>