<svg xmlns="http://www.w3.org/2000/svg" viewBox="0 0 48 48"><linearGradient id="bnWLBkMwU~8SlCBa2VroIa" x1="31.999" x2="31.999" y1="11.309" y2="24.1" gradientUnits="userSpaceOnUse"><stop offset="0" stop-color="#a1aab3"/><stop offset="1" stop-color="#8f979e"/></linearGradient><path fill="url(#bnWLBkMwU~8SlCBa2VroIa)" d="M22,26c-0.537,0-1.073-0.215-1.467-0.641c-0.751-0.81-0.703-2.075,0.107-2.826l10.541-9.773 c0.318-0.295,0.303-0.769,0.183-1.113C31.123,10.96,31,10.236,31,9.5c0-1.965,0.875-3.804,2.401-5.045 c1.526-1.241,3.52-1.719,5.475-1.313c2.552,0.533,4.569,2.62,5.021,5.194c0.518,2.938-1.005,5.849-3.702,7.079 c-1.004,0.457-2.191,0.017-2.649-0.989c-0.458-1.005-0.016-2.191,0.989-2.649c0.878-0.401,1.659-1.406,1.422-2.748 c-0.169-0.963-0.95-1.772-1.898-1.971c-0.781-0.161-1.539,0.016-2.135,0.5C35.337,8.036,35,8.744,35,9.5 c0,0.284,0.047,0.562,0.139,0.824c0.677,1.937,0.191,4.043-1.238,5.368L23.36,25.467C22.975,25.823,22.487,26,22,26z"/><linearGradient id="bnWLBkMwU~8SlCBa2VroIb" x1="18.18" x2="18.18" y1="20.026" y2="48.099" gradientUnits="userSpaceOnUse"><stop offset="0" stop-color="#f44f5a"/><stop offset=".443" stop-color="#ee3d4a"/><stop offset="1" stop-color="#e52030"/></linearGradient><path fill="url(#bnWLBkMwU~8SlCBa2VroIb)" d="M31.892,19.351l-1.209-3.634c-0.279-0.84-1.044-1.417-1.925-1.484 c-3.119-0.237-5.126-1.254-6.746-2.707C21.624,11.178,21.115,11,20.595,11h-4.831c-0.52,0-1.029,0.178-1.416,0.526 c-1.62,1.453-3.627,2.47-6.746,2.707c-0.881,0.067-1.645,0.645-1.925,1.484l-1.209,3.634c-0.286,0.86,0.012,1.778,0.69,2.378 c3.879,3.437,3.879,10.147,0,13.584c-0.677,0.6-0.976,1.519-0.69,2.378l1.203,3.616c0.279,0.838,1.033,1.441,1.914,1.486 c3.404,0.174,6.978,0.967,9.434,2.433c0.723,0.431,1.598,0.431,2.32,0c2.456-1.466,6.03-2.259,9.434-2.433 c0.881-0.045,1.635-0.648,1.914-1.486l1.203-3.616c0.286-0.86-0.012-1.778-0.69-2.378c-3.879-3.437-3.879-10.147,0-13.584 C31.88,21.129,32.178,20.21,31.892,19.351z"/><linearGradient id="bnWLBkMwU~8SlCBa2VroIc" x1="18.18" x2="18.18" y1="13.785" y2="41.363" gradientUnits="userSpaceOnUse"><stop offset="0" stop-color="#fede00"/><stop offset="1" stop-color="#f5aa00"/></linearGradient><path fill="url(#bnWLBkMwU~8SlCBa2VroIc)" d="M19.087,16.5h-1.815c-0.208,0-0.409,0.069-0.577,0.191c-1.463,1.06-3.072,1.843-4.848,2.355 c-0.64,0.185-0.916,0.927-0.56,1.489c1.471,2.319,2.278,5.088,2.278,7.986c0,2.801-0.754,5.484-2.133,7.755 c-0.37,0.609-0.027,1.387,0.674,1.513c1.789,0.322,3.777,0.839,5.677,1.667c0.253,0.11,0.538,0.11,0.791,0 c1.901-0.828,3.888-1.345,5.677-1.667c0.701-0.126,1.044-0.904,0.674-1.513c-1.38-2.271-2.133-4.953-2.133-7.755 c0-2.898,0.807-5.667,2.278-7.985c0.357-0.562,0.08-1.305-0.56-1.489c-1.775-0.512-3.382-1.294-4.847-2.355 C19.496,16.569,19.295,16.5,19.087,16.5z"/></svg>