<svg xmlns="http://www.w3.org/2000/svg" viewBox="0 0 48 48"><linearGradient id="jgNJjmG0L9TJPi9ucEUIAa" x1="24" x2="24" y1="37.218" y2="12.877" gradientTransform="matrix(1 0 0 -1 0 47.89)" gradientUnits="userSpaceOnUse"><stop offset="0" stop-color="#2aa4f4"/><stop offset=".347" stop-color="#27a1f2"/><stop offset=".585" stop-color="#1e98ec"/><stop offset=".791" stop-color="#0f89e3"/><stop offset=".927" stop-color="#007ad9"/></linearGradient><path fill="url(#jgNJjmG0L9TJPi9ucEUIAa)" d="M38,33.924H10l1.851-20.288C12.039,11.577,13.766,10,15.834,10h16.332	c2.068,0,3.796,1.577,3.983,3.637L38,33.924z"/><linearGradient id="jgNJjmG0L9TJPi9ucEUIAb" x1="24.044" x2="23.771" y1="12.864" y2="-5.062" gradientTransform="matrix(1 0 0 -1 0 47.89)" gradientUnits="userSpaceOnUse"><stop offset="0" stop-color="#2aa4f4"/><stop offset=".347" stop-color="#27a1f2"/><stop offset=".585" stop-color="#1e98ec"/><stop offset=".791" stop-color="#0f89e3"/><stop offset=".927" stop-color="#007ad9"/></linearGradient><path fill="url(#jgNJjmG0L9TJPi9ucEUIAb)" d="M36,44h-1l-1-1l-1,1h-2l-1-1l-1,1h-2l-1-1l-1,1h-2l-1-1l-1,1h-2l-1-1l-1,1h-2l-1-1l-1,1h-1	c-1.105,0-2-0.895-2-2v-8.143c0-1.105,0.895-2,2-2h24c1.105,0,2,0.895,2,2V42C38,43.105,37.105,44,36,44z"/><linearGradient id="jgNJjmG0L9TJPi9ucEUIAc" x1="13.856" x2="14.175" y1="9.178" y2="3.577" gradientTransform="matrix(1 0 0 -1 0 47.89)" gradientUnits="userSpaceOnUse"><stop offset="0" stop-color="#fede00"/><stop offset=".567" stop-color="#fed900"/><stop offset="1" stop-color="#ffd000"/></linearGradient><path fill="url(#jgNJjmG0L9TJPi9ucEUIAc)" d="M14.5,38h-1c-0.276,0-0.5,0.224-0.5,0.5V44h2v-5.5C15,38.224,14.776,38,14.5,38z"/><linearGradient id="jgNJjmG0L9TJPi9ucEUIAd" x1="17.856" x2="18.175" y1="9.178" y2="3.577" gradientTransform="matrix(1 0 0 -1 0 47.89)" gradientUnits="userSpaceOnUse"><stop offset="0" stop-color="#fede00"/><stop offset=".567" stop-color="#fed900"/><stop offset="1" stop-color="#ffd000"/></linearGradient><path fill="url(#jgNJjmG0L9TJPi9ucEUIAd)" d="M18.5,38h-1c-0.276,0-0.5,0.224-0.5,0.5V44h2v-5.5C19,38.224,18.776,38,18.5,38z"/><linearGradient id="jgNJjmG0L9TJPi9ucEUIAe" x1="21.856" x2="22.175" y1="9.178" y2="3.577" gradientTransform="matrix(1 0 0 -1 0 47.89)" gradientUnits="userSpaceOnUse"><stop offset="0" stop-color="#fede00"/><stop offset=".567" stop-color="#fed900"/><stop offset="1" stop-color="#ffd000"/></linearGradient><path fill="url(#jgNJjmG0L9TJPi9ucEUIAe)" d="M22.5,38h-1c-0.276,0-0.5,0.224-0.5,0.5V44h2v-5.5C23,38.224,22.776,38,22.5,38z"/><linearGradient id="jgNJjmG0L9TJPi9ucEUIAf" x1="25.856" x2="26.175" y1="9.178" y2="3.577" gradientTransform="matrix(1 0 0 -1 0 47.89)" gradientUnits="userSpaceOnUse"><stop offset="0" stop-color="#fede00"/><stop offset=".567" stop-color="#fed900"/><stop offset="1" stop-color="#ffd000"/></linearGradient><path fill="url(#jgNJjmG0L9TJPi9ucEUIAf)" d="M26.5,38h-1c-0.276,0-0.5,0.224-0.5,0.5V44h2v-5.5C27,38.224,26.776,38,26.5,38z"/><linearGradient id="jgNJjmG0L9TJPi9ucEUIAg" x1="29.856" x2="30.175" y1="9.178" y2="3.577" gradientTransform="matrix(1 0 0 -1 0 47.89)" gradientUnits="userSpaceOnUse"><stop offset="0" stop-color="#fede00"/><stop offset=".567" stop-color="#fed900"/><stop offset="1" stop-color="#ffd000"/></linearGradient><path fill="url(#jgNJjmG0L9TJPi9ucEUIAg)" d="M30.5,38h-1c-0.276,0-0.5,0.224-0.5,0.5V44h2v-5.5C31,38.224,30.776,38,30.5,38z"/><linearGradient id="jgNJjmG0L9TJPi9ucEUIAh" x1="33.856" x2="34.175" y1="9.178" y2="3.577" gradientTransform="matrix(1 0 0 -1 0 47.89)" gradientUnits="userSpaceOnUse"><stop offset="0" stop-color="#fede00"/><stop offset=".567" stop-color="#fed900"/><stop offset="1" stop-color="#ffd000"/></linearGradient><path fill="url(#jgNJjmG0L9TJPi9ucEUIAh)" d="M34.5,38h-1c-0.276,0-0.5,0.224-0.5,0.5V44h2v-5.5C35,38.224,34.776,38,34.5,38z"/><path d="M33,30.945V34c0,1.1-0.9,2-2,2H17c-1.1,0-2-0.9-2-2v-3.008	c0-0.328,0.016-0.655,0.048-0.981l0.712-7.221c0.11-1.02,0.96-1.79,1.99-1.79h0.41l1.186-11h9.309l1.186,11h0.41	c1.03,0,1.88,0.77,1.99,1.79l0.711,7.168C32.984,30.286,33,30.615,33,30.945z" opacity=".05"/><path d="M32.5,30.995V34c0,0.828-0.672,1.5-1.5,1.5H17c-0.828,0-1.5-0.672-1.5-1.5	v-3.005c0-0.33,0.016-0.659,0.049-0.987l0.711-7.168c0.08-0.76,0.72-1.34,1.49-1.34h0.86L19.845,10h8.311l1.235,11.5h0.86	c0.77,0,1.41,0.58,1.49,1.34l0.711,7.168C32.484,30.336,32.5,30.665,32.5,30.995z" opacity=".07"/><linearGradient id="jgNJjmG0L9TJPi9ucEUIAi" x1="24" x2="24" y1="33.402" y2="18.233" gradientTransform="matrix(1 0 0 -1 0 47.89)" gradientUnits="userSpaceOnUse"><stop offset="0" stop-color="#0d61a9"/><stop offset=".604" stop-color="#0d61a9"/><stop offset=".765" stop-color="#0e5fa6"/><stop offset=".889" stop-color="#115a9c"/><stop offset="1" stop-color="#16528c"/></linearGradient><path fill="url(#jgNJjmG0L9TJPi9ucEUIAi)" d="M31.247,22.895C31.193,22.386,30.764,22,30.253,22h-1.309L26.977,3.785	C26.867,2.77,26.01,2,24.988,2h-1.977c-1.021,0-1.879,0.77-1.988,1.785L19.056,22h-1.309c-0.512,0-0.941,0.386-0.994,0.895L16,30h16	L31.247,22.895z"/><path fill="#0078d4" d="M17,29h14c0.552,0,1,0.448,1,1v4c0,0.552-0.448,1-1,1H17c-0.552,0-1-0.448-1-1v-4	C16,29.448,16.448,29,17,29z"/></svg>