<svg xmlns="http://www.w3.org/2000/svg" viewBox="0 0 48 48"><linearGradient id="gkSbZr05rIjqmHc4~qLR8a" x1="24" x2="24" y1="-3.13" y2="48.66" gradientUnits="userSpaceOnUse"><stop offset="0" stop-color="#d4943b"/><stop offset="1" stop-color="#c2620e"/><stop offset="1" stop-color="#c2620e"/></linearGradient><path fill="url(#gkSbZr05rIjqmHc4~qLR8a)" d="M43,39H5c-1.105,0-2-0.895-2-2V11c0-1.105,0.895-2,2-2h38c1.105,0,2,0.895,2,2v26	C45,38.105,44.105,39,43,39z"/><radialGradient id="gkSbZr05rIjqmHc4~qLR8b" cx="20" cy="24" r="14" gradientUnits="userSpaceOnUse"><stop offset=".931"/><stop offset="1" stop-opacity="0"/></radialGradient><circle cx="20" cy="24" r="14" fill="url(#gkSbZr05rIjqmHc4~qLR8b)" opacity=".15"/><linearGradient id="gkSbZr05rIjqmHc4~qLR8c" x1="20" x2="20" y1="37.077" y2="11.59" gradientUnits="userSpaceOnUse"><stop offset=".002" stop-color="#454545"/><stop offset=".013" stop-color="#464646"/><stop offset=".875" stop-color="#626262"/><stop offset="1" stop-color="#6d6d6d"/></linearGradient><circle cx="20" cy="24" r="13" fill="url(#gkSbZr05rIjqmHc4~qLR8c)"/><radialGradient id="gkSbZr05rIjqmHc4~qLR8d" cx="20" cy="24" r="6" gradientUnits="userSpaceOnUse"><stop offset=".828"/><stop offset="1" stop-opacity="0"/></radialGradient><circle cx="20" cy="24" r="6" fill="url(#gkSbZr05rIjqmHc4~qLR8d)" opacity=".15"/><circle cx="20" cy="24" r="5" fill="#42a4ed"/><linearGradient id="gkSbZr05rIjqmHc4~qLR8e" x1="20" x2="20" y1="17.674" y2="27.459" gradientUnits="userSpaceOnUse"><stop offset="0" stop-color="#2aa4f4"/><stop offset="1" stop-color="#007ad9"/></linearGradient><circle cx="20" cy="24" r="4" fill="url(#gkSbZr05rIjqmHc4~qLR8e)"/><linearGradient id="gkSbZr05rIjqmHc4~qLR8f" x1="20" x2="20" y1="22.816" y2="24.872" gradientUnits="userSpaceOnUse"><stop offset="0" stop-color="#4c4c4c"/><stop offset="1" stop-color="#343434"/></linearGradient><circle cx="20" cy="24" r="1" fill="url(#gkSbZr05rIjqmHc4~qLR8f)"/><linearGradient id="gkSbZr05rIjqmHc4~qLR8g" x1="38" x2="38" y1="11.364" y2="31.63" gradientUnits="userSpaceOnUse"><stop offset=".503" stop-color="#a1aab3"/><stop offset=".658" stop-color="#9ea7af"/><stop offset=".796" stop-color="#949da5"/><stop offset=".928" stop-color="#848c92"/><stop offset="1" stop-color="#787f85"/></linearGradient><path fill="url(#gkSbZr05rIjqmHc4~qLR8g)" d="M38,11L38,11c-0.552,0-1,0.448-1,1v20h2V12C39,11.448,38.552,11,38,11z"/><linearGradient id="gkSbZr05rIjqmHc4~qLR8h" x1="38" x2="38" y1="18.391" y2="12.095" gradientUnits="userSpaceOnUse"><stop offset=".002" stop-color="#454545"/><stop offset=".013" stop-color="#464646"/><stop offset=".875" stop-color="#626262"/><stop offset="1" stop-color="#6d6d6d"/></linearGradient><path fill="url(#gkSbZr05rIjqmHc4~qLR8h)" d="M38,13L38,13c-1.105,0-2,0.895-2,2v0c0,1.105,0.895,2,2,2h0c1.105,0,2-0.895,2-2v0	C40,13.895,39.105,13,38,13z"/><linearGradient id="gkSbZr05rIjqmHc4~qLR8i" x1="38" x2="38" y1="37.565" y2="25.334" gradientUnits="userSpaceOnUse"><stop offset=".002" stop-color="#454545"/><stop offset=".013" stop-color="#464646"/><stop offset=".875" stop-color="#626262"/><stop offset="1" stop-color="#6d6d6d"/></linearGradient><path fill="url(#gkSbZr05rIjqmHc4~qLR8i)" d="M39,31h-2c-0.552,0-1,0.448-1,1v4c0,0.552,0.448,1,1,1h2c0.552,0,1-0.448,1-1v-4	C40,31.448,39.552,31,39,31z"/><path d="M38,11c0.552,0,1,0.448,1,1v1.277c0.595,0.346,1,0.984,1,1.723c0,0.738-0.405,1.376-1,1.723V31c0.552,0,1,0.448,1,1v4 c0,0.552-0.448,1-1,1h-2c-0.552,0-1-0.448-1-1v-4c0-0.552,0.448-1,1-1V16.723c-0.595-0.346-1-0.984-1-1.723 c0-0.738,0.405-1.376,1-1.723V12C37,11.448,37.448,11,38,11 M38,10c-1.103,0-2,0.897-2,2v0.775c-0.628,0.563-1,1.372-1,2.225 s0.372,1.662,1,2.225v13.043c-0.597,0.346-1,0.993-1,1.732v4c0,1.103,0.897,2,2,2h2c1.103,0,2-0.897,2-2v-4 c0-0.739-0.403-1.385-1-1.732V17.225c0.628-0.563,1-1.372,1-2.225s-0.372-1.662-1-2.225V12C40,10.897,39.103,10,38,10L38,10z" opacity=".05"/><path d="M38,11c0.552,0,1,0.448,1,1v1.277c0.595,0.346,1,0.984,1,1.723c0,0.738-0.405,1.376-1,1.723V31c0.552,0,1,0.448,1,1v4 c0,0.552-0.448,1-1,1h-2c-0.552,0-1-0.448-1-1v-4c0-0.552,0.448-1,1-1V16.723c-0.595-0.346-1-0.984-1-1.723 c0-0.738,0.405-1.376,1-1.723V12C37,11.448,37.448,11,38,11 M38,10.5c-0.827,0-1.5,0.673-1.5,1.5v1.01c-0.623,0.47-1,1.208-1,1.99 s0.377,1.52,1,1.99v13.596c-0.582,0.206-1,0.762-1,1.414v4c0,0.827,0.673,1.5,1.5,1.5h2c0.827,0,1.5-0.673,1.5-1.5v-4 c0-0.652-0.418-1.208-1-1.414V16.99c0.623-0.47,1-1.208,1-1.99s-0.377-1.52-1-1.99V12C39.5,11.173,38.827,10.5,38,10.5L38,10.5z" opacity=".07"/></svg>