<svg xmlns="http://www.w3.org/2000/svg" viewBox="0 0 48 48"><linearGradient id="2q6M~MRGvLJDWymwGWlW~a" x1="25.029" x2="44.082" y1="22.501" y2="22.501" gradientUnits="userSpaceOnUse"><stop offset=".002" stop-color="#454545"/><stop offset=".013" stop-color="#464646"/><stop offset=".875" stop-color="#626262"/><stop offset="1" stop-color="#6d6d6d"/></linearGradient><path fill="url(#2q6M~MRGvLJDWymwGWlW~a)" d="M41,28c-0.13,0-0.262-0.025-0.388-0.078l-4.75-2c-0.185-0.078-0.342-0.209-0.451-0.377	l-3.046-4.687l-6.64-1.896c-0.531-0.152-0.839-0.706-0.688-1.236c0.152-0.532,0.711-0.833,1.236-0.688l7,2	c0.232,0.066,0.433,0.215,0.564,0.417l3.082,4.742l4.467,1.881c0.51,0.215,0.748,0.801,0.534,1.31C41.761,27.771,41.39,28,41,28z"/><linearGradient id="2q6M~MRGvLJDWymwGWlW~b" x1="25.029" x2="44.082" y1="30.5" y2="30.5" gradientUnits="userSpaceOnUse"><stop offset=".002" stop-color="#454545"/><stop offset=".013" stop-color="#464646"/><stop offset=".875" stop-color="#626262"/><stop offset="1" stop-color="#6d6d6d"/></linearGradient><path fill="url(#2q6M~MRGvLJDWymwGWlW~b)" d="M39.999,42c-0.219,0-0.439-0.071-0.624-0.219l-5-4c-0.207-0.166-0.34-0.407-0.369-0.671	l-0.961-8.651l-7.752-7.752c-0.391-0.391-0.391-1.023,0-1.414s1.023-0.391,1.414,0l8,8c0.16,0.16,0.262,0.371,0.287,0.597	l0.954,8.588l4.677,3.741c0.431,0.346,0.501,0.975,0.156,1.406C40.583,41.871,40.293,42,39.999,42z"/><linearGradient id="2q6M~MRGvLJDWymwGWlW~c" x1="23.309" x2="4.509" y1="22.501" y2="22.501" gradientUnits="userSpaceOnUse"><stop offset=".002" stop-color="#454545"/><stop offset=".013" stop-color="#464646"/><stop offset=".875" stop-color="#626262"/><stop offset="1" stop-color="#6d6d6d"/></linearGradient><path fill="url(#2q6M~MRGvLJDWymwGWlW~c)" d="M7,28c-0.39,0-0.761-0.229-0.922-0.612c-0.214-0.509,0.024-1.095,0.534-1.31l4.467-1.881	l3.082-4.742c0.132-0.202,0.332-0.351,0.564-0.417l7-2c0.527-0.145,1.084,0.155,1.236,0.688c0.151,0.53-0.156,1.084-0.688,1.236	l-6.64,1.896l-3.046,4.687c-0.109,0.168-0.267,0.299-0.451,0.377l-4.75,2C7.262,27.975,7.13,28,7,28z"/><linearGradient id="2q6M~MRGvLJDWymwGWlW~d" x1="23.309" x2="4.509" y1="30.5" y2="30.5" gradientUnits="userSpaceOnUse"><stop offset=".002" stop-color="#454545"/><stop offset=".013" stop-color="#464646"/><stop offset=".875" stop-color="#626262"/><stop offset="1" stop-color="#6d6d6d"/></linearGradient><path fill="url(#2q6M~MRGvLJDWymwGWlW~d)" d="M8.001,42c-0.294,0-0.584-0.128-0.782-0.375c-0.345-0.432-0.274-1.061,0.156-1.406	l4.677-3.741l0.954-8.588c0.025-0.226,0.127-0.437,0.287-0.597l8-8c0.391-0.391,1.023-0.391,1.414,0s0.391,1.023,0,1.414	l-7.752,7.752l-0.961,8.651c-0.029,0.264-0.162,0.505-0.369,0.671l-5,4C8.44,41.929,8.22,42,8.001,42z"/><linearGradient id="2q6M~MRGvLJDWymwGWlW~e" x1="19" x2="19" y1="9.971" y2="3.195" gradientUnits="userSpaceOnUse"><stop offset=".002" stop-color="#454545"/><stop offset=".013" stop-color="#464646"/><stop offset=".875" stop-color="#626262"/><stop offset="1" stop-color="#6d6d6d"/></linearGradient><path fill="url(#2q6M~MRGvLJDWymwGWlW~e)" d="M22,10c-0.419,0-0.809-0.265-0.948-0.684L20.14,6.582c-0.436-0.32-1.719-0.994-3.585,0.25	c-0.461,0.305-1.082,0.182-1.387-0.277c-0.307-0.46-0.183-1.08,0.277-1.387c2.912-1.942,5.37-0.767,6.262,0.125	c0.109,0.109,0.192,0.243,0.241,0.391l1,3c0.175,0.524-0.108,1.091-0.632,1.265C22.211,9.983,22.104,10,22,10z"/><linearGradient id="2q6M~MRGvLJDWymwGWlW~f" x1="29" x2="29" y1="9.971" y2="3.195" gradientUnits="userSpaceOnUse"><stop offset=".002" stop-color="#454545"/><stop offset=".013" stop-color="#464646"/><stop offset=".875" stop-color="#626262"/><stop offset="1" stop-color="#6d6d6d"/></linearGradient><path fill="url(#2q6M~MRGvLJDWymwGWlW~f)" d="M26,10c-0.104,0-0.211-0.017-0.316-0.052c-0.523-0.174-0.807-0.74-0.632-1.265l1-3	c0.049-0.147,0.132-0.281,0.241-0.391c0.893-0.892,3.35-2.064,6.262-0.125c0.46,0.307,0.584,0.927,0.277,1.387	c-0.306,0.459-0.927,0.582-1.387,0.277c-1.863-1.243-3.159-0.556-3.586-0.249l-0.911,2.733C26.809,9.735,26.419,10,26,10z"/><linearGradient id="2q6M~MRGvLJDWymwGWlW~g" x1="23.309" x2="4.509" y1="12" y2="12" gradientUnits="userSpaceOnUse"><stop offset=".002" stop-color="#454545"/><stop offset=".013" stop-color="#464646"/><stop offset=".875" stop-color="#626262"/><stop offset="1" stop-color="#6d6d6d"/></linearGradient><path fill="url(#2q6M~MRGvLJDWymwGWlW~g)" d="M20.001,17c-0.065,0-0.131-0.006-0.197-0.02l-5-1c-0.396-0.079-0.705-0.389-0.784-0.784	l-0.904-4.521L9.553,8.895C9.059,8.647,8.858,8.047,9.105,7.553c0.248-0.494,0.848-0.692,1.342-0.447l4,2	c0.276,0.138,0.473,0.396,0.533,0.698l0.869,4.347l4.347,0.869c0.541,0.108,0.893,0.635,0.784,1.177	C20.886,16.672,20.468,17,20.001,17z"/><linearGradient id="2q6M~MRGvLJDWymwGWlW~h" x1="25.029" x2="44.082" y1="12" y2="12" gradientUnits="userSpaceOnUse"><stop offset=".002" stop-color="#454545"/><stop offset=".013" stop-color="#464646"/><stop offset=".875" stop-color="#626262"/><stop offset="1" stop-color="#6d6d6d"/></linearGradient><path fill="url(#2q6M~MRGvLJDWymwGWlW~h)" d="M27.999,17c-0.467,0-0.885-0.328-0.979-0.804c-0.108-0.542,0.243-1.068,0.784-1.177	l4.347-0.869l0.869-4.347c0.061-0.303,0.257-0.561,0.533-0.698l4-2c0.494-0.245,1.094-0.047,1.342,0.447	c0.247,0.494,0.047,1.095-0.447,1.342l-3.563,1.781l-0.904,4.521c-0.079,0.396-0.389,0.705-0.784,0.784l-5,1	C28.13,16.994,28.063,17,27.999,17z"/><linearGradient id="2q6M~MRGvLJDWymwGWlW~i" x1="24" x2="24" y1="4.059" y2="16.569" gradientUnits="userSpaceOnUse"><stop offset="0" stop-color="#eba600"/><stop offset="1" stop-color="#c28200"/></linearGradient><path fill="url(#2q6M~MRGvLJDWymwGWlW~i)" d="M29,12.556c0-2.762-3.232-5.557-5-5.557s-5,2.795-5,5.557S21.239,17,24,17	S29,15.317,29,12.556z"/><linearGradient id="2q6M~MRGvLJDWymwGWlW~j" x1="24" x2="24" y1="17.868" y2="5.339" gradientUnits="userSpaceOnUse"><stop offset=".002" stop-color="#454545"/><stop offset=".013" stop-color="#464646"/><stop offset=".875" stop-color="#626262"/><stop offset="1" stop-color="#6d6d6d"/></linearGradient><path fill="url(#2q6M~MRGvLJDWymwGWlW~j)" d="M29,16c0-2.761-2.239-5-5-5s-5,2.239-5,5s2.239,8,5,8S29,18.761,29,16z"/><path fill="#5c2415" d="M24,45c-0.276,0-0.5-0.224-0.5-0.5v-3.498c0-0.276,0.224-0.5,0.5-0.5s0.5,0.224,0.5,0.5V44.5	C24.5,44.776,24.276,45,24,45z"/><linearGradient id="2q6M~MRGvLJDWymwGWlW~k" x1="24" x2="24" y1="43.708" y2="11.01" gradientUnits="userSpaceOnUse"><stop offset="0" stop-color="#eba600"/><stop offset="1" stop-color="#c28200"/></linearGradient><path fill="url(#2q6M~MRGvLJDWymwGWlW~k)" d="M31,30.002c0,1-0.15,2.01-0.41,3c-0.26,1.04-0.65,2.05-1.11,3c-0.53,1.1-1.15,2.12-1.8,3	c-1.36,1.81-2.8,3-3.68,3s-2.32-1.19-3.68-3c-0.65-0.88-1.27-1.9-1.8-3c-0.46-0.95-0.85-1.96-1.11-3c-0.26-0.99-0.41-2-0.41-3	c0-1.09,0.11-2.09,0.32-3c0.26-1.16,0.68-2.16,1.24-3c1.27-1.96,3.24-3,5.44-3s4.17,1.04,5.44,3c0.56,0.84,0.98,1.84,1.24,3	C30.89,27.912,31,28.912,31,30.002z"/><path fill="#5c2415" d="M30.68,27.002H17.32c0.26-1.16,0.68-2.16,1.24-3h10.88C30,24.842,30.42,25.842,30.68,27.002z"/><path fill="#5c2415" d="M31,30.002c0,1-0.15,2.01-0.41,3H17.41c-0.26-0.99-0.41-2-0.41-3H31z"/><path fill="#5c2415" d="M29.48,36.002c-0.53,1.1-1.15,2.12-1.8,3h-7.36c-0.65-0.88-1.27-1.9-1.8-3H29.48z"/><linearGradient id="2q6M~MRGvLJDWymwGWlW~l" x1="13.5" x2="13.5" y1="26.778" y2="12.423" gradientUnits="userSpaceOnUse"><stop offset="0" stop-color="#32bdef"/><stop offset="1" stop-color="#1ea2e4"/></linearGradient><path fill="url(#2q6M~MRGvLJDWymwGWlW~l)" d="M23,16c0-2-11.239-2-14-2s-5,2.239-5,5s2.239,5,5,5S23,20,23,16z"/><linearGradient id="2q6M~MRGvLJDWymwGWlW~m" x1="-7.5" x2="-7.5" y1="26.778" y2="12.423" gradientTransform="matrix(-1 0 0 1 27 0)" gradientUnits="userSpaceOnUse"><stop offset="0" stop-color="#32bdef"/><stop offset="1" stop-color="#1ea2e4"/></linearGradient><path fill="url(#2q6M~MRGvLJDWymwGWlW~m)" d="M25,16c0-2,11.239-2,14-2s5,2.239,5,5s-2.239,5-5,5S25,20,25,16z"/></svg>