<svg xmlns="http://www.w3.org/2000/svg" viewBox="0 0 48 48"><linearGradient id="sLBHQe5BzSshJBjhAChbUa" x1="17.15" x2="24.693" y1="4.403" y2="47.181" gradientUnits="userSpaceOnUse"><stop offset="0" stop-color="#a235d4"/><stop offset=".441" stop-color="#a033d1"/><stop offset=".702" stop-color="#982cc9"/><stop offset=".915" stop-color="#8b21bb"/><stop offset="1" stop-color="#831bb3"/></linearGradient><path fill="url(#sLBHQe5BzSshJBjhAChbUa)" d="M34.646,44h8.022c0.518,0,0.88-0.513,0.707-1.001L29.741,4.665C29.6,4.266,29.222,4,28.799,4 h-9.278c-0.42,0-0.796,0.263-0.94,0.658L4.627,42.993C4.449,43.483,4.811,44,5.332,44h7.955c0.438,0,0.825-0.285,0.955-0.703 L16.818,35h14.259l2.614,8.3C33.823,43.717,34.209,44,34.646,44z M18.991,28l4.905-15.798L28.872,28H18.991z"/></svg>