<svg xmlns="http://www.w3.org/2000/svg" viewBox="0 0 48 48"><linearGradient id="s~UkdAylC2AaDwtv1IQqka" x1="32.314" x2="35.685" y1="1456.465" y2="1465.754" gradientTransform="translate(0 -1452.11)" gradientUnits="userSpaceOnUse"><stop offset="0" stop-color="#ffcf54"/><stop offset=".261" stop-color="#fdcb4d"/><stop offset=".639" stop-color="#f7c13a"/><stop offset="1" stop-color="#f0b421"/></linearGradient><path fill="url(#s~UkdAylC2AaDwtv1IQqka)" d="M34,14c-2.75,0-5-2.25-5-5s2.25-5,5-5s5,2.25,5,5S36.75,14,34,14"/><linearGradient id="s~UkdAylC2AaDwtv1IQqkb" x1="36.518" x2="39.597" y1="-1137.98" y2="-1145.727" gradientTransform="matrix(1 0 0 -1 0 -1102)" gradientUnits="userSpaceOnUse"><stop offset="0" stop-color="#ffcf54"/><stop offset=".261" stop-color="#fdcb4d"/><stop offset=".639" stop-color="#f7c13a"/><stop offset="1" stop-color="#f0b421"/></linearGradient><path fill="url(#s~UkdAylC2AaDwtv1IQqkb)" d="M39,32h-4v10c0,1.105,0.895,2,2,2l0,0c1.105,0,2-0.895,2-2V32z"/><linearGradient id="s~UkdAylC2AaDwtv1IQqkc" x1="30.518" x2="33.597" y1="-1137.98" y2="-1145.727" gradientTransform="matrix(1 0 0 -1 0 -1102)" gradientUnits="userSpaceOnUse"><stop offset="0" stop-color="#ffcf54"/><stop offset=".261" stop-color="#fdcb4d"/><stop offset=".639" stop-color="#f7c13a"/><stop offset="1" stop-color="#f0b421"/></linearGradient><path fill="url(#s~UkdAylC2AaDwtv1IQqkc)" d="M33,32h-4v10c0,1.105,0.895,2,2,2l0,0c1.105,0,2-0.895,2-2V32z"/><linearGradient id="s~UkdAylC2AaDwtv1IQqkd" x1="38.914" x2="42.928" y1="1475.998" y2="1484.916" gradientTransform="translate(0 -1452.11)" gradientUnits="userSpaceOnUse"><stop offset="0" stop-color="#ffcf54"/><stop offset=".261" stop-color="#fdcb4d"/><stop offset=".639" stop-color="#f7c13a"/><stop offset="1" stop-color="#f0b421"/></linearGradient><path fill="url(#s~UkdAylC2AaDwtv1IQqkd)" d="M42,23l-3-1c0,0,0,9.221,0,9.5c0,0.828,0.672,1.5,1.5,1.5s1.5-0.672,1.5-1.5 C42,31.221,42,35.279,42,23z"/><linearGradient id="s~UkdAylC2AaDwtv1IQqke" x1="26.417" x2="30.091" y1="1476.615" y2="1484.779" gradientTransform="translate(0 -1452.11)" gradientUnits="userSpaceOnUse"><stop offset="0" stop-color="#ffcf54"/><stop offset=".261" stop-color="#fdcb4d"/><stop offset=".639" stop-color="#f7c13a"/><stop offset="1" stop-color="#f0b421"/></linearGradient><path fill="url(#s~UkdAylC2AaDwtv1IQqke)" d="M29,22l-3,1c0,0,0,8.221,0,8.5c0,0.828,0.672,1.5,1.5,1.5s1.5-0.672,1.5-1.5 C29,31.221,29,34.279,29,22z"/><linearGradient id="s~UkdAylC2AaDwtv1IQqkf" x1="33.234" x2="35.154" y1="-1116.709" y2="-1136.666" gradientTransform="matrix(1 0 0 -1 0 -1102)" gradientUnits="userSpaceOnUse"><stop offset="0" stop-color="#21ad64"/><stop offset="1" stop-color="#088242"/></linearGradient><path fill="url(#s~UkdAylC2AaDwtv1IQqkf)" d="M42,22.666C42,18.984,39.016,16,35.334,16H35h-2h-0.333C28.985,16,26,18.985,26,22.667V23h3 l-1.823,11.848C27.084,35.454,27.553,36,28.166,36h11.669c0.613,0,1.082-0.546,0.988-1.152L39,23h3V22.666z"/><radialGradient id="s~UkdAylC2AaDwtv1IQqkg" cx="33.809" cy="-1106.187" r="7.637" gradientTransform="matrix(1 0 0 -1 0 -1102)" gradientUnits="userSpaceOnUse"><stop offset="0" stop-color="#c26715"/><stop offset=".508" stop-color="#b85515"/><stop offset="1" stop-color="#ad3f16"/></radialGradient><path fill="url(#s~UkdAylC2AaDwtv1IQqkg)" d="M38.898,8C38.432,5.725,36.408,4,34,4s-4.432,1.725-4.898,4c2.324,0.115,3.93-0.582,4.898-2 c1.148,1.288,1.982,1.979,4,2C38.057,8,38.84,8,38.898,8z"/><path fill="#b55017" d="M38,7.001c1.819,0,5,0.716,5,5.999h-3c0,0,0-5-2-5V7.001z"/><path fill="#b55017" d="M30,8c-2,0-2,5-2,5h-3c0-5.283,3.181-5.999,5-5.999V8z"/><linearGradient id="s~UkdAylC2AaDwtv1IQqkh" x1="12.314" x2="15.685" y1="1456.465" y2="1465.754" gradientTransform="translate(0 -1452.11)" gradientUnits="userSpaceOnUse"><stop offset="0" stop-color="#ffcf54"/><stop offset=".261" stop-color="#fdcb4d"/><stop offset=".639" stop-color="#f7c13a"/><stop offset="1" stop-color="#f0b421"/></linearGradient><path fill="url(#s~UkdAylC2AaDwtv1IQqkh)" d="M14,14c-2.75,0-5-2.25-5-5s2.25-5,5-5s5,2.25,5,5S16.75,14,14,14"/><linearGradient id="s~UkdAylC2AaDwtv1IQqki" x1="16.518" x2="19.597" y1="-1137.98" y2="-1145.727" gradientTransform="matrix(1 0 0 -1 0 -1102)" gradientUnits="userSpaceOnUse"><stop offset="0" stop-color="#ffcf54"/><stop offset=".261" stop-color="#fdcb4d"/><stop offset=".639" stop-color="#f7c13a"/><stop offset="1" stop-color="#f0b421"/></linearGradient><path fill="url(#s~UkdAylC2AaDwtv1IQqki)" d="M19,32h-4v10c0,1.105,0.895,2,2,2l0,0c1.105,0,2-0.895,2-2V32z"/><linearGradient id="s~UkdAylC2AaDwtv1IQqkj" x1="10.518" x2="13.597" y1="-1137.98" y2="-1145.727" gradientTransform="matrix(1 0 0 -1 0 -1102)" gradientUnits="userSpaceOnUse"><stop offset="0" stop-color="#ffcf54"/><stop offset=".261" stop-color="#fdcb4d"/><stop offset=".639" stop-color="#f7c13a"/><stop offset="1" stop-color="#f0b421"/></linearGradient><path fill="url(#s~UkdAylC2AaDwtv1IQqkj)" d="M13,32H9v10c0,1.105,0.895,2,2,2l0,0c1.105,0,2-0.895,2-2V32z"/><linearGradient id="s~UkdAylC2AaDwtv1IQqkk" x1="18.914" x2="22.928" y1="1475.998" y2="1484.916" gradientTransform="translate(0 -1452.11)" gradientUnits="userSpaceOnUse"><stop offset="0" stop-color="#ffcf54"/><stop offset=".261" stop-color="#fdcb4d"/><stop offset=".639" stop-color="#f7c13a"/><stop offset="1" stop-color="#f0b421"/></linearGradient><path fill="url(#s~UkdAylC2AaDwtv1IQqkk)" d="M22,23l-3-1c0,0,0,9.221,0,9.5c0,0.828,0.672,1.5,1.5,1.5s1.5-0.672,1.5-1.5 C22,31.221,22,35.279,22,23z"/><linearGradient id="s~UkdAylC2AaDwtv1IQqkl" x1="6.417" x2="10.091" y1="1476.615" y2="1484.779" gradientTransform="translate(0 -1452.11)" gradientUnits="userSpaceOnUse"><stop offset="0" stop-color="#ffcf54"/><stop offset=".261" stop-color="#fdcb4d"/><stop offset=".639" stop-color="#f7c13a"/><stop offset="1" stop-color="#f0b421"/></linearGradient><path fill="url(#s~UkdAylC2AaDwtv1IQqkl)" d="M9,22l-3,1c0,0,0,8.221,0,8.5C6,32.328,6.672,33,7.5,33S9,32.328,9,31.5 C9,31.221,9,34.279,9,22z"/><linearGradient id="s~UkdAylC2AaDwtv1IQqkm" x1="13.234" x2="15.154" y1="-1116.709" y2="-1136.666" gradientTransform="matrix(1 0 0 -1 0 -1102)" gradientUnits="userSpaceOnUse"><stop offset="0" stop-color="#21ad64"/><stop offset="1" stop-color="#088242"/></linearGradient><path fill="url(#s~UkdAylC2AaDwtv1IQqkm)" d="M22,22.666C22,18.984,19.016,16,15.334,16H15h-2h-0.333C8.985,16,6,18.985,6,22.667V23h3 L7.177,34.848C7.084,35.454,7.553,36,8.166,36h11.669c0.613,0,1.082-0.546,0.988-1.152L19,23h3V22.666z"/><radialGradient id="s~UkdAylC2AaDwtv1IQqkn" cx="13.809" cy="-1106.187" r="7.637" gradientTransform="matrix(1 0 0 -1 0 -1102)" gradientUnits="userSpaceOnUse"><stop offset="0" stop-color="#c26715"/><stop offset=".508" stop-color="#b85515"/><stop offset="1" stop-color="#ad3f16"/></radialGradient><path fill="url(#s~UkdAylC2AaDwtv1IQqkn)" d="M18.898,8C18.432,5.725,16.408,4,14,4S9.568,5.725,9.102,8c2.324,0.115,3.93-0.582,4.898-2 c1.148,1.288,1.982,1.979,4,2C18.057,8,18.84,8,18.898,8z"/><path fill="#b55017" d="M18,7.001c1.819,0,5,0.716,5,5.999h-3c0,0,0-5-2-5V7.001z"/><path fill="#b55017" d="M10,8c-2,0-2,5-2,5H5c0-5.283,3.181-5.999,5-5.999V8z"/></svg>