<svg xmlns="http://www.w3.org/2000/svg" id="Layer_1" x="0" y="0" version="1.1" viewBox="0 0 48 48" xml:space="preserve"><path fill="#50e6ff" d="M9.3,41.3l-3.2,0.6l0.6-3.2c0-0.2,0.1-0.4,0.3-0.5l11.6-11.6l2.8,2.8L9.8,41C9.7,41.2,9.5,41.3,9.3,41.3z"/><rect width="3" height="4" x="17.4" y="27.1" fill="#35c1f1" transform="rotate(-45.001 18.95 29.05)"/><polygon fill="#61e3a7" points="28.5,26.8 21.2,19.5 27.3,7.2 40.8,20.7"/><polygon fill="#33c481" points="26.7,32.3 28.5,26.8 21.2,19.5 15.7,21.3"/><path fill="#21a366" d="M26.4,35.7L12.3,21.6l0.1-0.1c1.5-1.5,3.9-1.5,5.4,0l8.8,8.8c1.5,1.5,1.5,3.9,0,5.4L26.4,35.7z"/><path fill="#21a366" d="M36.5,21.9L26.1,11.5c-1.4-1.4-1.4-3.8,0-5.2l0.2-0.2l15.6,15.6l-0.2,0.2C40.3,23.3,37.9,23.3,36.5,21.9z"/></svg>