<svg xmlns="http://www.w3.org/2000/svg" viewBox="0 0 48 48"><ellipse cx="24" cy="11.5" fill="#5059c9" rx="15" ry="8.5"/><linearGradient id="WZJzcfXlRV2cK~UTaiTfBa" x1="14.786" x2="33.076" y1="31.187" y2="49.477" gradientUnits="userSpaceOnUse"><stop offset="0" stop-color="#5961c3"/><stop offset="1" stop-color="#3a41ac"/></linearGradient><path fill="url(#WZJzcfXlRV2cK~UTaiTfBa)" d="M24,30.571c-8.837,0-16,4.921-16,10.286V42c0,1.105,0.895,2,2,2h28c1.105,0,2-0.895,2-2	v-1.143C40,35.492,32.837,30.571,24,30.571z"/><path fill="#fff" d="M29,30.079C29,37.991,24,42,24,42s-5-4.009-5-11.921C19,27.442,19,26,19,26h10	C29,26,29,27.442,29,30.079z"/><path fill="#fff" d="M29,30.079C29,37.991,24,42,24,42s-5-4.009-5-11.921C19,27.442,19,26,19,26h10	C29,26,29,27.442,29,30.079z"/><path fill="#d6a121" d="M29,30c0,1.897-5,4-5,4s-5-2.103-5-4c0-2.637,0-7.035,0-7.035h10C29,22.965,29,27.363,29,30z"/><path fill="#3a41ac" d="M22,35l1,1l-0.781,4.088C23.187,41.379,24,42.04,24,42.04s0.813-0.661,1.781-1.953L25,36l1-1l-2-1	L22,35z"/><linearGradient id="WZJzcfXlRV2cK~UTaiTfBb" x1="32.917" x2="34.251" y1="20" y2="20" gradientUnits="userSpaceOnUse"><stop offset="0" stop-color="#c48f0c"/><stop offset=".251" stop-color="#d19b16"/><stop offset=".619" stop-color="#dca51f"/><stop offset="1" stop-color="#e0a922"/></linearGradient><path fill="url(#WZJzcfXlRV2cK~UTaiTfBb)" d="M32.916,18h-0.527v4h0.703c0.515,0,0.954-0.312,1.041-0.74l0.344-1.703	C34.642,18.743,33.897,18,32.916,18z"/><linearGradient id="WZJzcfXlRV2cK~UTaiTfBc" x1="336.917" x2="338.251" y1="20" y2="20" gradientTransform="matrix(-1 0 0 1 352 0)" gradientUnits="userSpaceOnUse"><stop offset="0" stop-color="#c48f0c"/><stop offset=".251" stop-color="#d19b16"/><stop offset=".619" stop-color="#dca51f"/><stop offset="1" stop-color="#e0a922"/></linearGradient><path fill="url(#WZJzcfXlRV2cK~UTaiTfBc)" d="M15.084,18h0.527v4h-0.703c-0.515,0-0.954-0.312-1.041-0.74l-0.344-1.703	C13.358,18.743,14.103,18,15.084,18z"/><radialGradient id="WZJzcfXlRV2cK~UTaiTfBd" cx="-39.907" cy="-5.655" r="10.074" gradientTransform="translate(59.184 27.224) scale(.8816)" gradientUnits="userSpaceOnUse"><stop offset="0" stop-color="#ffcf54"/><stop offset=".261" stop-color="#fdcb4d"/><stop offset=".639" stop-color="#f7c13a"/><stop offset="1" stop-color="#f0b421"/></radialGradient><path fill="url(#WZJzcfXlRV2cK~UTaiTfBd)" d="M15.205,13.477C15.071,14.414,15,15.475,15,16.675c0,0.768,0,5.877,0,6.698	C15,26.8,20.4,31,24,31s9-4.2,9-7.627c0-0.821,0-5.929,0-6.698c0-0.945-0.044-1.804-0.128-2.585L15.205,13.477z"/><radialGradient id="WZJzcfXlRV2cK~UTaiTfBe" cx="-49.61" cy="-18.089" r="25.945" gradientTransform="translate(59.184 27.224) scale(.8816)" gradientUnits="userSpaceOnUse"><stop offset="0" stop-color="#c26715"/><stop offset=".508" stop-color="#b85515"/><stop offset="1" stop-color="#ad3f16"/></radialGradient><path fill="url(#WZJzcfXlRV2cK~UTaiTfBe)" d="M24,10.545c-8,0-10,2.491-10,5.455c0,1,0,3,1,4c0-3,1-8,4-8c1.267,0,2.273,2,5,2	c2.303,0,2.875-2,5-2c3,0,4,5,4,8c1-1,1-4,1-4C34,12.57,32,10.545,24,10.545z"/><ellipse cx="24" cy="15" fill="#5059c9" rx="8" ry="4"/><path fill="#7b83eb" d="M24,10c-5.523,0-10,0.959-10,2.143V16c0,0,1-1,10-1s10,1,10,1v-3.857C34,10.959,29.523,10,24,10z"/><linearGradient id="WZJzcfXlRV2cK~UTaiTfBf" x1="25.686" x2="23.235" y1="10.687" y2="13.242" gradientUnits="userSpaceOnUse"><stop offset="0" stop-color="#e5a505"/><stop offset=".011" stop-color="#e9a804"/><stop offset=".061" stop-color="#f4b102"/><stop offset=".133" stop-color="#fbb600"/><stop offset=".331" stop-color="#fdb700"/></linearGradient><path fill="url(#WZJzcfXlRV2cK~UTaiTfBf)" d="M26,11l-2-1v4h0c1.105,0,2-0.895,2-2V11z"/><linearGradient id="WZJzcfXlRV2cK~UTaiTfBg" x1="24.734" x2="22.356" y1="10.692" y2="13.171" gradientUnits="userSpaceOnUse"><stop offset="0" stop-color="#fede00"/><stop offset="1" stop-color="#ffd000"/></linearGradient><path fill="url(#WZJzcfXlRV2cK~UTaiTfBg)" d="M24,10l-2,1v1c0,1.105,0.895,2,2,2h0V10z"/></svg>