<svg xmlns="http://www.w3.org/2000/svg" viewBox="0 0 48 48"><linearGradient id="XSHfec3HZevinUFKwqThka" x1="11.272" x2="36.948" y1="9.272" y2="34.948" gradientUnits="userSpaceOnUse"><stop offset="0" stop-color="#00bffe"/><stop offset="1" stop-color="#1d55c4"/></linearGradient><path fill="url(#XSHfec3HZevinUFKwqThka)" d="M42,22c0,9.94-8.06,18-18,18S6,31.94,6,22S14.059,4,24,4S42,12.059,42,22z"/><linearGradient id="XSHfec3HZevinUFKwqThkb" x1="12.016" x2="39.965" y1="5.892" y2="33.842" gradientUnits="userSpaceOnUse"><stop offset="0" stop-color="#84e1fe"/><stop offset="1" stop-color="#167cf7"/></linearGradient><path fill="url(#XSHfec3HZevinUFKwqThkb)" d="M33.024,28.404l0.679,0.582v0.679l-0.873,0.97c-0.097,0.097-0.194,0.291-0.291,0.388	l-0.679,1.455c-0.097,0.194-0.291,0.485-0.485,0.582l-1.455,1.164l-0.097,0.097l-1.65,1.455l-0.582,0.485l-0.679,0.388l-0.388,0.194	l-0.582,0.485l-0.291,1.532l-0.859,1.12l-0.301-1.06l-0.296-1.107l0.388-0.679l-0.097-0.873l0.485-0.776l0.291-1.844	c0.097-0.679-0.194-1.358-0.776-1.747c-0.291-0.194-0.485-0.485-0.679-0.776l-0.582-1.358l-0.582-0.388v-0.485l0.194-0.582	l0.097-0.582l0.776-0.679l-1.164-1.067c-0.097-0.097-0.097-0.097-0.194-0.194l-0.873-0.679c0,0-0.097,0-0.097-0.097l-1.455-0.97	c-0.097-0.097-0.194-0.097-0.388-0.194l-0.873-0.291c-0.097,0-0.194-0.097-0.291-0.097l-1.552-0.873	c-0.194-0.097-0.388-0.291-0.485-0.485l-0.97-1.261c-0.097-0.194-0.194-0.291-0.291-0.485l-0.679-1.941	c-0.097-0.194-0.194-0.388-0.291-0.485l-0.097-0.194c-0.194-0.291-0.388-0.679-0.388-1.067v-0.485c0-0.194,0-0.388,0.097-0.582	l0.679-1.747c0.097-0.291,0.097-0.582,0.097-0.873l-0.485-3.202L13.23,9.58l-1.067,0.679L11.968,9.58l2.135-1.553V7.542l1.164-0.485	c0.388-0.194,0.776-0.194,1.164-0.097l3.784,0.97l0.776,0.097l1.261-0.097L22.35,8.61l-1.844,2.038l0.291,0.776l0.582-0.097	l1.358,0.776l0.679-0.291l0.194-2.038h0.776l1.261,0.582c0.291,0.097,0.582,0.388,0.776,0.679l0.194,0.291	c0.097,0.097,0.194,0.291,0.388,0.388l0.776,0.679c0.194,0.194,0.291,0.291,0.485,0.485l0.776,1.455l-0.388,0.388l-1.261,0.388	l-0.776,0.097l-1.358,0.97l-0.097,0.097l-0.388,0.291c-0.291,0.194-0.485,0.485-0.582,0.776l-0.097,0.194	c-0.097,0.291-0.291,0.582-0.485,0.776l-1.164,1.067l-0.485,0.291l-3.299,0.582l-0.097,0.291c-0.097,0.485,0,1.067,0.388,1.455	l0.582,0.679c0.194,0.194,0.485,0.388,0.776,0.485l0.97,0.388c0.194,0.097,0.388,0.194,0.582,0.388l1.941,1.844l0.388-0.485	l0.485-0.291c0.388-0.194,0.776-0.291,1.164-0.194l1.552,0.291l0.582,0.388l1.649,0.873l3.202,1.844	C32.927,28.21,33.024,28.307,33.024,28.404z M27.105,8.319l0.388,0.776l1.067,1.067l0.582,0.291l0.291-0.291V8.416l0.485-0.679	l0.194-0.485l-1.747-1.455c-0.194-0.194-0.388-0.291-0.679-0.388L27.008,5.02c-0.388-0.194-0.679-0.291-1.067-0.291	c-0.485,0-0.873,0-1.358,0.194L24.194,5.02L24,5.505l0.582,0.582L27.105,8.319z M38.458,15.984l-0.194-1.65l0.679-0.291l0.873,1.747	l0.858-0.555c-1.619-3.985-4.621-7.251-8.413-9.216l3.189,6.084l2.038,1.844v0.582l-0.485,0.194l0.485,1.747h0.679L38.458,15.984z M37.822,33.524C40.428,30.401,42,26.385,42,22c0-1.675-0.246-3.29-0.675-4.829l-0.539-0.217l-0.194,0.679l-0.776-0.97l-1.261,0.485	l-0.679,0.776l0.291,0.776l-0.582,0.776v4.075l1.261,1.747l0.776-0.388l0.582-0.679l0.485,0.388	c0.097,2.329-2.519,7.683-2.519,7.683L37.822,33.524z"/><linearGradient id="XSHfec3HZevinUFKwqThkc" x1="29.268" x2="44.742" y1="23.821" y2="39.754" gradientUnits="userSpaceOnUse"><stop offset="0" stop-color="#eba600"/><stop offset="1" stop-color="#c28200"/></linearGradient><path fill="url(#XSHfec3HZevinUFKwqThkc)" d="M42,42H31V22h12c0.552,0,1,0.448,1,1v17C44,41.105,43.105,42,42,42z"/><linearGradient id="XSHfec3HZevinUFKwqThkd" x1="7.152" x2="29.982" y1="19.721" y2="43.229" gradientUnits="userSpaceOnUse"><stop offset="0" stop-color="#ffd869"/><stop offset="1" stop-color="#fec52b"/></linearGradient><path fill="url(#XSHfec3HZevinUFKwqThkd)" d="M31,42H6c-1.105,0-2-0.895-2-2V23c0-0.552,0.448-1,1-1h28v18C33,41.105,32.105,42,31,42z"/><linearGradient id="XSHfec3HZevinUFKwqThke" x1="17.154" x2="17.154" y1="27.74" y2="-3.971" gradientUnits="userSpaceOnUse"><stop offset="0" stop-color="#eba600"/><stop offset="1" stop-color="#c28200"/></linearGradient><path fill="url(#XSHfec3HZevinUFKwqThke)" d="M33,22H4.618c-0.379,0-0.725,0.214-0.894,0.553l-2.362,4.724C1.196,27.609,1.437,28,1.809,28	h27.573c0.379,0,0.725-0.214,0.894-0.553L33,22z"/><linearGradient id="XSHfec3HZevinUFKwqThkf" x1="39.846" x2="39.846" y1="27.729" y2="23.572" gradientUnits="userSpaceOnUse"><stop offset="0" stop-color="#ffd869"/><stop offset="1" stop-color="#fec52b"/></linearGradient><path fill="url(#XSHfec3HZevinUFKwqThkf)" d="M33,22h10.382c0.379,0,0.725,0.214,0.894,0.553l2.362,4.724	C46.804,27.609,46.563,28,46.191,28h-9.573c-0.379,0-0.725-0.214-0.894-0.553L33,22z"/></svg>