<svg xmlns="http://www.w3.org/2000/svg" viewBox="0 0 48 48"><path fill="#50e6ff" d="M39,16v25c0,1.105-0.895,2-2,2H11c-1.105,0-2-0.895-2-2V7c0-1.105,0.895-2,2-2h17L39,16z"/><linearGradient id="vi5ah8KrUu8L9yJQMfjO4a" x1="28.529" x2="33.6" y1="238.529" y2="243.6" gradientTransform="matrix(1 0 0 -1 0 254)" gradientUnits="userSpaceOnUse"><stop offset="0" stop-color="#3079d6"/><stop offset="1" stop-color="#297cd2"/></linearGradient><path fill="url(#vi5ah8KrUu8L9yJQMfjO4a)" d="M28,5v9c0,1.105,0.895,2,2,2h9L28,5z"/><polygon fill="#0d62ab" points="27,31.414 21,25.414 15.707,30.707 14.293,29.293 21,22.586 27,28.586 32.293,23.293 33.707,24.707"/><circle cx="33" cy="24" r="2" fill="#199be2"/><circle cx="27" cy="30" r="2" fill="#199be2"/><circle cx="21" cy="24" r="2" fill="#199be2"/><path d="M34,33c-1.654,0-3,1.346-3,3v7h6c1.105,0,2-0.895,2-2v-8H34z" opacity=".05"/><circle cx="15" cy="30" r="2" fill="#199be2"/><path d="M34,33.5c-1.378,0-2.5,1.122-2.5,2.5v7H37c1.105,0,2-0.895,2-2v-7.5H34z" opacity=".07"/><linearGradient id="vi5ah8KrUu8L9yJQMfjO4b" x1="38.205" x2="39.892" y1="34.431" y2="48.367" gradientUnits="userSpaceOnUse"><stop offset="0" stop-color="#f44f5a"/><stop offset=".443" stop-color="#ee3d4a"/><stop offset="1" stop-color="#e52030"/></linearGradient><path fill="url(#vi5ah8KrUu8L9yJQMfjO4b)" d="M44,48H34c-1.105,0-2-0.895-2-2V36c0-1.105,0.895-2,2-2h10c1.105,0,2,0.895,2,2v10	C46,47.105,45.105,48,44,48z"/></svg>