<svg xmlns="http://www.w3.org/2000/svg" width="48" height="48" viewBox="0 0 48 48"><linearGradient id="h8~zI4Wfyd9hPwGoFMDIxa" x1="23.909" x2="24.093" y1="41.596" y2="5.911" gradientUnits="userSpaceOnUse"><stop offset="0" stop-color="#9c55d4"/><stop offset=".002" stop-color="#9c55d4"/><stop offset=".003" stop-color="#9c55d4"/><stop offset=".111" stop-color="#9753d1"/><stop offset=".242" stop-color="#884ec8"/><stop offset=".383" stop-color="#7046ba"/><stop offset=".521" stop-color="#513ca7"/><stop offset=".672" stop-color="#3c359a"/><stop offset=".756" stop-color="#2e3192"/><stop offset="1" stop-color="#2e3192"/></linearGradient><path fill="url(#h8~zI4Wfyd9hPwGoFMDIxa)" d="M35,42H13c-3.866,0-7-3.134-7-7V13c0-3.866,3.134-7,7-7h22c3.866,0,7,3.134,7,7v22 C42,38.866,38.866,42,35,42z"/><path d="M40.531,19.866c-0.157-0.506-0.619-0.846-1.151-0.846H28.507L25.139,8.662	C24.975,8.173,24.517,7.845,24,7.845s-0.975,0.328-1.142,0.826L19.493,19.02H8.62c-0.532,0-0.994,0.34-1.151,0.846	c-0.156,0.503,0.031,1.041,0.443,1.323l8.802,6.403l-3.368,10.35c-0.116,0.372-0.053,0.763,0.176,1.074	c0.371,0.505,1.104,0.659,1.677,0.264L24,32.886l8.822,6.407c0.203,0.14,0.439,0.214,0.685,0.214c0.382,0,0.745-0.184,0.972-0.492	c0.229-0.311,0.292-0.703,0.173-1.084l-3.365-10.339l8.779-6.387C40.5,20.907,40.688,20.369,40.531,19.866z M25,27h-4l0.003-3H25V27	z M27.7,25.344v-0.688l0.3-0.13v0.949L27.7,25.344z" opacity=".05"/><path d="M40.054,20.014c-0.092-0.295-0.362-0.494-0.674-0.494H28.144L24.664,8.821	C24.568,8.536,24.302,8.345,24,8.345s-0.568,0.191-0.666,0.48L19.856,19.52H8.62c-0.312,0-0.582,0.199-0.674,0.494	c-0.091,0.292,0.019,0.605,0.26,0.77l9.096,6.616l-3.479,10.69c-0.068,0.218-0.03,0.447,0.103,0.628	c0.217,0.295,0.646,0.385,0.979,0.156L24,32.268l9.105,6.613c0.12,0.083,0.259,0.126,0.401,0.126c0.224,0,0.436-0.108,0.568-0.288	c0.133-0.182,0.171-0.411,0.101-0.634L30.698,27.4l9.085-6.608C40.035,20.619,40.145,20.306,40.054,20.014z M25,27.5h-4	c-0.275,0-0.5-0.224-0.5-0.5v-3c0-0.276,0.225-0.5,0.5-0.5h4c0.275,0,0.5,0.224,0.5,0.5v3C25.5,27.276,25.275,27.5,25,27.5z M27.2,25.672v-1.345l1.3-0.565v2.475L27.2,25.672z" opacity=".07"/><path fill="#fff" d="M39.38,20.02h-11.6L24.19,8.98c-0.06-0.18-0.32-0.18-0.38,0l-3.59,11.04H8.62	c-0.2,0-0.28,0.25-0.12,0.36l9.39,6.83L14.3,38.24c-0.06,0.19,0.15,0.34,0.31,0.23L24,31.65l9.39,6.82	c0.16,0.11,0.37-0.04,0.31-0.23l-3.59-11.03l9.39-6.83C39.66,20.27,39.58,20.02,39.38,20.02z M19.5,24.8h-1v-1.3h1V24.8z M26,27	c0,0.55-0.45,1-1,1h-4c-0.55,0-1-0.45-1-1v-3c0-0.55,0.45-1,1-1h4c0.55,0,1,0.45,1,1V27z M29,27l-2.3-1v-2l2.3-1V27z"/></svg>