<svg xmlns="http://www.w3.org/2000/svg" xmlns:xlink="http://www.w3.org/1999/xlink" data-name="Слой 1" viewBox="0 0 48 48"><defs><linearGradient id="DiUIxiJkfX4QFfr_eXLlxg" x1="24" x2="24" y1="-1.304" y2="30.669" xlink:href="#DiUIxiJkfX4QFfr_eXLlxa"/><linearGradient id="DiUIxiJkfX4QFfr_eXLlxa" x1="12" x2="12" y1=".75" y2="17.688" data-name="Безымянный градиент 23" gradientUnits="userSpaceOnUse"><stop offset="0" stop-color="#d43a02"/><stop offset="1" stop-color="#b9360c"/></linearGradient><linearGradient id="DiUIxiJkfX4QFfr_eXLlxb" x1="24" x2="24" y1="24.62" y2="55.167" data-name="Безымянный градиент 107" gradientUnits="userSpaceOnUse"><stop offset="0" stop-color="#eba600"/><stop offset="1" stop-color="#c28200"/></linearGradient><linearGradient id="DiUIxiJkfX4QFfr_eXLlxe" x1="9" x2="9" y1="24.62" y2="55.167" xlink:href="#DiUIxiJkfX4QFfr_eXLlxb"/><linearGradient id="DiUIxiJkfX4QFfr_eXLlxf" x1="39" x2="39" y1="24.62" y2="55.167" xlink:href="#DiUIxiJkfX4QFfr_eXLlxb"/><linearGradient id="DiUIxiJkfX4QFfr_eXLlxd" x1="36" x2="36" y2="17.688" xlink:href="#DiUIxiJkfX4QFfr_eXLlxa"/><linearGradient id="DiUIxiJkfX4QFfr_eXLlxh" x1="8.343" x2="8.343" y1="-1.304" y2="30.669" xlink:href="#DiUIxiJkfX4QFfr_eXLlxa"/><linearGradient id="DiUIxiJkfX4QFfr_eXLlxi" x1="39.657" x2="39.657" y1="-1.304" y2="30.669" xlink:href="#DiUIxiJkfX4QFfr_eXLlxa"/><linearGradient id="DiUIxiJkfX4QFfr_eXLlxc" x1="6.519" x2="23.223" y1="13.441" y2="59.336" data-name="Безымянный градиент 9" gradientUnits="userSpaceOnUse"><stop offset="0" stop-color="#ffcf54"/><stop offset=".261" stop-color="#fdcb4d"/><stop offset=".639" stop-color="#f7c13a"/><stop offset="1" stop-color="#f0b421"/></linearGradient><linearGradient id="DiUIxiJkfX4QFfr_eXLlxj" x1="28.436" x2="45.141" y1="7.719" y2="53.614" xlink:href="#DiUIxiJkfX4QFfr_eXLlxc"/><linearGradient id="DiUIxiJkfX4QFfr_eXLlxk" x1="22.348" x2="27.716" y1="20.348" y2="25.716" xlink:href="#DiUIxiJkfX4QFfr_eXLlxb"/></defs><path fill="url(#DiUIxiJkfX4QFfr_eXLlxa)" d="M9,14l3,1,3-1L12.4872,2.37852a.5.5,0,0,0-.9744,0Z"/><path fill="url(#DiUIxiJkfX4QFfr_eXLlxd)" d="M35.5128,2.37852,33,14l3,1,3-1L36.4872,2.37852A.5.5,0,0,0,35.5128,2.37852Z"/><polygon fill="url(#DiUIxiJkfX4QFfr_eXLlxb)" points="35 21 24 12 13 21 13 43 35 43 35 21"/><polygon fill="url(#DiUIxiJkfX4QFfr_eXLlxe)" points="14 21 4 27.032 4 43 14 43 14 21"/><polygon fill="url(#DiUIxiJkfX4QFfr_eXLlxf)" points="34 21 44 27.032 44 43 34 43 34 21"/><path fill="url(#DiUIxiJkfX4QFfr_eXLlxg)" d="M34.36719,21.77441,24,13.292,13.63281,21.77441l-1.26562-1.54882,11-9a1.00034,1.00034,0,0,1,1.26562,0l11,9Z"/><path fill="url(#DiUIxiJkfX4QFfr_eXLlxh)" d="M2.75964,28.427l-.51955-.85452a.5.5,0,0,1,.16726-.68685l11.07312-6.74016,1.03906,1.709L3.44685,28.59439A.5.5,0,0,1,2.75964,28.427Z"/><path fill="url(#DiUIxiJkfX4QFfr_eXLlxi)" d="M44.55315,28.59439l-11.07268-6.7399,1.03906-1.709,11.07312,6.74016a.5.5,0,0,1,.16726.68685l-.51955.85452A.5.5,0,0,1,44.55315,28.59439Z"/><rect width="6" height="29" x="9" y="14" fill="url(#DiUIxiJkfX4QFfr_eXLlxc)"/><rect width="6" height="29" x="33" y="14" fill="url(#DiUIxiJkfX4QFfr_eXLlxj)"/><path fill="#c28200" d="M12,29h0a1,1,0,0,1,1,1V41a0,0,0,0,1,0,0H11a0,0,0,0,1,0,0V30A1,1,0,0,1,12,29Z"/><path fill="#c28200" d="M12,16h0a1,1,0,0,1,1,1v9a0,0,0,0,1,0,0H11a0,0,0,0,1,0,0V17A1,1,0,0,1,12,16Z"/><path fill="#c28200" d="M36,29h0a1,1,0,0,1,1,1V41a0,0,0,0,1,0,0H35a0,0,0,0,1,0,0V30A1,1,0,0,1,36,29Z"/><path fill="#c28200" d="M36,16h0a1,1,0,0,1,1,1v9a0,0,0,0,1,0,0H35a0,0,0,0,1,0,0V17A1,1,0,0,1,36,16Z"/><path fill="#c28200" d="M24,29h0a4,4,0,0,1,4,4V43a0,0,0,0,1,0,0H20a0,0,0,0,1,0,0V33A4,4,0,0,1,24,29Z"/><path d="M24,18a4,4,0,1,1-4,4,4,4,0,0,1,4-4m0-1a5,5,0,1,0,5,5,5.00565,5.00565,0,0,0-5-5Z" opacity=".05"/><path d="M24,18a4,4,0,1,1-4,4,4,4,0,0,1,4-4m0-.5A4.5,4.5,0,1,0,28.5,22,4.50508,4.50508,0,0,0,24,17.5Z" opacity=".07"/><circle cx="24" cy="22" r="4" fill="#c28200"/><circle cx="24" cy="22" r="2" fill="url(#DiUIxiJkfX4QFfr_eXLlxk)"/><g><path d="M15,18.08V43h1V17.26Zm-7,5.4V43H9V22.87l-.5.31Z" opacity=".05"/><path d="M15,18.08V43h.5V17.67ZM8.5,43H9V22.87l-.5.31Z" opacity=".07"/></g><g><path d="M32,17.26V43h1V18.08Zm7.5,5.92-.5-.31V43h1V23.48Z" opacity=".05"/><path d="M32.5,17.67V43H33V18.08Zm6.5,5.2V43h.5V23.18Z" opacity=".07"/></g></svg>