<svg xmlns="http://www.w3.org/2000/svg" viewBox="0 0 48 48"><path fill="#881421" d="M35,27h4.022c0.326,0,0.652-0.326,0.652-0.652L40,17.652C40,17.326,39.674,17,39.348,17H36L35,27z"/><path fill="#881421" d="M10,17H8.652C8.326,17,8,17.326,8,17.652l0.326,8.696C8.326,26.674,8.652,27,8.978,27H11L10,17z"/><linearGradient id="DAk9adhERswTIHMmm8YWsa" x1="23.208" x2="25.492" y1="3.086" y2="44.773" gradientUnits="userSpaceOnUse"><stop offset="0" stop-color="#e52030"/><stop offset=".393" stop-color="#d32030"/><stop offset="1" stop-color="#af2031"/></linearGradient><path fill="url(#DAk9adhERswTIHMmm8YWsa)" d="M39,17.491c-0.214-1.575-0.536-8.19-2.143-10.29C31.179,2.792,24,3.002,24,3.002	s-7.179-0.21-12.857,4.2c-1.5,2.1-2.036,8.715-2.143,10.29l0.536,9.66v0.21c0,0,2.036,8.715,2.893,10.185	c0.964,1.89,3.857,5.46,6.214,6.825C19.607,44.895,22.179,45,24,45c2.036,0,4.5-0.21,5.357-0.63c2.357-1.155,5.143-4.83,6.214-6.825	c0.857-1.47,2.893-10.185,2.893-10.185v-0.21L39,17.491z"/><path fill="#ffd000" d="M35.081,28.059c-0.511,0.619-3.472,6.395-3.472,6.395s-0.511,2.269,0,4.332	c0.511,2.063-0.511,2.269-0.511,2.269L29.872,42.5l-2.247-0.928h-6.843L18.536,42.5l-1.226-1.444c0,0-0.919-0.206-0.511-2.269	c0.511-2.063,0-4.332,0-4.332s-3.472-5.673-3.983-6.395C12.306,27.44,12,25.17,12,25.17l1.226-3.61l-0.306-10.934	c0,0,0.919-1.444,2.247-2.372C16.289,7.428,19.455,6.5,19.455,6.5l1.123,8.046c0,0,0.306,1.754,0.306,1.857	c0,0.206,1.123,0.516,1.123,0.516h4.187c0,0,1.123-0.309,1.123-0.516s0.306-1.857,0.306-1.857L28.749,6.5	c0,0,3.166,0.825,4.289,1.754c0.919,0.928,2.043,2.372,2.043,2.372l-0.306,10.831L36,25.067	C35.898,25.17,35.591,27.44,35.081,28.059z"/><path fill="#35c1f1" d="M25.68,26.311c0,0,0.63,0.945,0.84,1.155c0.21,0.315,0.63,0.315,0.63,0.315l3.255-0.21	c0,0,0.63,0,0.945-0.315c0.525-0.21,2.31-1.26,3.15-1.785c0.315-0.21,0-0.525,0-0.525l-1.26-0.945c0,0-0.21-0.21-0.525,0	c-0.945,0.315-3.885,1.575-6.72,1.785C25.155,25.891,25.68,26.311,25.68,26.311z"/><path fill="#35c1f1" d="M22.32,26.311c0,0-0.63,0.945-0.84,1.155c-0.21,0.315-0.63,0.315-0.63,0.315l-3.255-0.21	c0,0-0.63,0-0.945-0.315c-0.525-0.21-2.31-1.26-3.15-1.785c-0.315-0.21,0-0.525,0-0.525l1.26-0.945c0,0,0.21-0.21,0.525,0	c0.945,0.315,3.885,1.575,6.72,1.785C22.845,25.891,22.32,26.311,22.32,26.311z"/><path fill="#b5f5ff" d="M27.78,26.836h2.73l2.625-1.575L32.4,24.106c-1.05,0.42-3.15,1.26-5.355,1.575L27.78,26.836z M20.955,25.681c-2.205-0.315-4.305-1.155-5.355-1.575l-0.735,1.155l2.625,1.575h2.73L20.955,25.681z"/></svg>