<svg xmlns="http://www.w3.org/2000/svg" viewBox="0 0 48 48"><linearGradient id="d2i_8uPTiPo~ebvEIVXyua" x1="21.313" x2="25.618" y1="6.079" y2="31.448" gradientUnits="userSpaceOnUse"><stop offset="0" stop-color="#fcfcfc"/><stop offset="1" stop-color="#c3c9cd"/></linearGradient><path fill="url(#d2i_8uPTiPo~ebvEIVXyua)" d="M34,11c-0.331,0-0.657,0.018-0.98,0.049C30.741,7.99,27.108,6,23,6	c-5.713,0-10.52,3.837-12.012,9.071C7.049,15.569,4,18.925,4,23c0,4.418,3.582,8,8,8c1.818,0,20.107,0,22,0c5.523,0,10-4.477,10-10	C44,15.477,39.523,11,34,11z"/><linearGradient id="d2i_8uPTiPo~ebvEIVXyub" x1="20.069" x2="20.721" y1="33.551" y2="38.051" gradientUnits="userSpaceOnUse"><stop offset="0" stop-color="#2aa4f4"/><stop offset=".595" stop-color="#0f80e3"/><stop offset="1" stop-color="#006dd9"/></linearGradient><path fill="url(#d2i_8uPTiPo~ebvEIVXyub)" d="M22,36.5c0,0.828-0.672,1.5-1.5,1.5S19,37.328,19,36.5c0-0.681,1.015-2.353,1.375-2.925	c0.058-0.093,0.191-0.093,0.25,0C20.985,34.147,22,35.819,22,36.5z"/><linearGradient id="d2i_8uPTiPo~ebvEIVXyuc" x1="18.712" x2="19.148" y1="41.034" y2="44.034" gradientUnits="userSpaceOnUse"><stop offset="0" stop-color="#2aa4f4"/><stop offset=".595" stop-color="#0f80e3"/><stop offset="1" stop-color="#006dd9"/></linearGradient><path fill="url(#d2i_8uPTiPo~ebvEIVXyuc)" d="M20,43c0,0.552-0.448,1-1,1s-1-0.448-1-1c0-0.454,0.677-1.569,0.917-1.95	c0.039-0.062,0.128-0.062,0.166,0C19.323,41.431,20,42.546,20,43z"/><linearGradient id="d2i_8uPTiPo~ebvEIVXyud" x1="8.069" x2="8.721" y1="33.551" y2="38.051" gradientUnits="userSpaceOnUse"><stop offset="0" stop-color="#2aa4f4"/><stop offset=".595" stop-color="#0f80e3"/><stop offset="1" stop-color="#006dd9"/></linearGradient><path fill="url(#d2i_8uPTiPo~ebvEIVXyud)" d="M10,36.5c0,0.828-0.672,1.5-1.5,1.5S7,37.328,7,36.5c0-0.681,1.015-2.353,1.375-2.925	c0.058-0.093,0.191-0.093,0.25,0C8.985,34.147,10,35.819,10,36.5z"/><linearGradient id="d2i_8uPTiPo~ebvEIVXyue" x1="6.713" x2="7.148" y1="41.034" y2="44.034" gradientUnits="userSpaceOnUse"><stop offset="0" stop-color="#2aa4f4"/><stop offset=".595" stop-color="#0f80e3"/><stop offset="1" stop-color="#006dd9"/></linearGradient><path fill="url(#d2i_8uPTiPo~ebvEIVXyue)" d="M8,43c0,0.552-0.448,1-1,1s-1-0.448-1-1c0-0.454,0.677-1.569,0.917-1.95	c0.039-0.062,0.128-0.062,0.166,0C7.323,41.431,8,42.546,8,43z"/><linearGradient id="d2i_8uPTiPo~ebvEIVXyuf" x1="33.069" x2="33.721" y1="33.551" y2="38.051" gradientUnits="userSpaceOnUse"><stop offset="0" stop-color="#2aa4f4"/><stop offset=".595" stop-color="#0f80e3"/><stop offset="1" stop-color="#006dd9"/></linearGradient><path fill="url(#d2i_8uPTiPo~ebvEIVXyuf)" d="M35,36.5c0,0.828-0.672,1.5-1.5,1.5S32,37.328,32,36.5c0-0.681,1.015-2.353,1.375-2.925	c0.058-0.093,0.191-0.093,0.25,0C33.985,34.147,35,35.819,35,36.5z"/><linearGradient id="d2i_8uPTiPo~ebvEIVXyug" x1="31.712" x2="32.148" y1="41.034" y2="44.034" gradientUnits="userSpaceOnUse"><stop offset="0" stop-color="#2aa4f4"/><stop offset=".595" stop-color="#0f80e3"/><stop offset="1" stop-color="#006dd9"/></linearGradient><path fill="url(#d2i_8uPTiPo~ebvEIVXyug)" d="M33,43c0,0.552-0.448,1-1,1s-1-0.448-1-1c0-0.454,0.677-1.569,0.917-1.95	c0.039-0.062,0.128-0.062,0.166,0C32.323,41.431,33,42.546,33,43z"/><linearGradient id="d2i_8uPTiPo~ebvEIVXyuh" x1="14.713" x2="15.148" y1="34.034" y2="37.034" gradientUnits="userSpaceOnUse"><stop offset="0" stop-color="#2aa4f4"/><stop offset=".595" stop-color="#0f80e3"/><stop offset="1" stop-color="#006dd9"/></linearGradient><path fill="url(#d2i_8uPTiPo~ebvEIVXyuh)" d="M16,36c0,0.552-0.448,1-1,1s-1-0.448-1-1c0-0.454,0.677-1.569,0.917-1.95	c0.039-0.062,0.128-0.062,0.166,0C15.323,34.431,16,35.546,16,36z"/><linearGradient id="d2i_8uPTiPo~ebvEIVXyui" x1="13.069" x2="13.721" y1="40.551" y2="45.051" gradientUnits="userSpaceOnUse"><stop offset="0" stop-color="#2aa4f4"/><stop offset=".595" stop-color="#0f80e3"/><stop offset="1" stop-color="#006dd9"/></linearGradient><path fill="url(#d2i_8uPTiPo~ebvEIVXyui)" d="M15,43.5c0,0.828-0.672,1.5-1.5,1.5S12,44.328,12,43.5c0-0.681,1.015-2.353,1.375-2.925	c0.058-0.093,0.191-0.093,0.25,0C13.985,41.147,15,42.819,15,43.5z"/><linearGradient id="d2i_8uPTiPo~ebvEIVXyuj" x1="26.712" x2="27.148" y1="34.034" y2="37.034" gradientUnits="userSpaceOnUse"><stop offset="0" stop-color="#2aa4f4"/><stop offset=".595" stop-color="#0f80e3"/><stop offset="1" stop-color="#006dd9"/></linearGradient><path fill="url(#d2i_8uPTiPo~ebvEIVXyuj)" d="M28,36c0,0.552-0.448,1-1,1s-1-0.448-1-1c0-0.454,0.677-1.569,0.917-1.95	c0.039-0.062,0.128-0.062,0.166,0C27.323,34.431,28,35.546,28,36z"/><linearGradient id="d2i_8uPTiPo~ebvEIVXyuk" x1="25.069" x2="25.721" y1="40.551" y2="45.051" gradientUnits="userSpaceOnUse"><stop offset="0" stop-color="#2aa4f4"/><stop offset=".595" stop-color="#0f80e3"/><stop offset="1" stop-color="#006dd9"/></linearGradient><path fill="url(#d2i_8uPTiPo~ebvEIVXyuk)" d="M27,43.5c0,0.828-0.672,1.5-1.5,1.5S24,44.328,24,43.5c0-0.681,1.015-2.353,1.375-2.925	c0.058-0.093,0.191-0.093,0.25,0C25.985,41.147,27,42.819,27,43.5z"/><linearGradient id="d2i_8uPTiPo~ebvEIVXyul" x1="39.712" x2="40.148" y1="34.034" y2="37.034" gradientUnits="userSpaceOnUse"><stop offset="0" stop-color="#2aa4f4"/><stop offset=".595" stop-color="#0f80e3"/><stop offset="1" stop-color="#006dd9"/></linearGradient><path fill="url(#d2i_8uPTiPo~ebvEIVXyul)" d="M41,36c0,0.552-0.448,1-1,1s-1-0.448-1-1c0-0.454,0.677-1.569,0.917-1.95	c0.039-0.062,0.128-0.062,0.166,0C40.323,34.431,41,35.546,41,36z"/><linearGradient id="d2i_8uPTiPo~ebvEIVXyum" x1="38.069" x2="38.721" y1="40.551" y2="45.051" gradientUnits="userSpaceOnUse"><stop offset="0" stop-color="#2aa4f4"/><stop offset=".595" stop-color="#0f80e3"/><stop offset="1" stop-color="#006dd9"/></linearGradient><path fill="url(#d2i_8uPTiPo~ebvEIVXyum)" d="M40,43.5c0,0.828-0.672,1.5-1.5,1.5S37,44.328,37,43.5c0-0.681,1.015-2.353,1.375-2.925	c0.058-0.093,0.191-0.093,0.25,0C38.985,41.147,40,42.819,40,43.5z"/></svg>