<svg xmlns="http://www.w3.org/2000/svg" viewBox="0 0 48 48"><path fill="#1a9ba1" d="M25.168,2.484l15.849,15.849c0.645,0.645,0.645,1.69,0,2.335l-3.349,3.349	c-0.645,0.645-1.69,0.645-2.335,0L19.484,8.168c-0.645-0.645-0.645-1.69,0-2.335l3.349-3.349	C23.477,1.839,24.523,1.839,25.168,2.484z"/><path fill="#37c6d0" d="M28.516,8.168L12.667,24.016c-0.645,0.645-1.69,0.645-2.335,0l-3.349-3.349 c-0.645-0.645-0.645-1.69,0-2.335L22.833,2.484c0.645-0.645,1.69-0.645,2.335,0l3.349,3.349 C29.161,6.477,29.161,7.523,28.516,8.168z"/><path fill="#37c6d0" d="M29,44V7l-10,3v34c0,1.105,0.895,2,2,2h6C28.105,46,29,45.105,29,44z"/></svg>