<svg xmlns="http://www.w3.org/2000/svg" viewBox="0 0 48 48"><path fill="#fc92a7" d="M6,40V12h36v28c0,1.1-0.9,2-2,2H8C6.9,42,6,41.1,6,40z"/><path d="M33.585,23.247H30.65c-0.551,0-1,0.448-1,1v5.463 c0,0.38-0.081,0.676-0.233,0.854c-0.107,0.124-0.235,0.207-0.51,0.207c-0.297,0-0.604,0-0.604-1.023v-5.5c0-0.552-0.449-1-1-1 h-2.937c-0.551,0-1,0.448-1,1v4.267c-0.028-0.088-0.042-0.186-0.075-0.271c-0.21-0.526-0.516-1.001-0.907-1.408 c-0.364-0.379-0.804-0.722-1.308-1.021c-0.461-0.272-0.987-0.533-1.566-0.775c-0.37-0.153-0.702-0.301-0.997-0.445 c-0.258-0.126-0.474-0.252-0.643-0.376c-0.151-0.111-0.226-0.198-0.271-0.31c0.014-0.021,0.049-0.063,0.129-0.113 c0.069-0.042,0.197-0.104,0.411-0.153c0.372-0.086,0.842-0.095,1.359-0.026c0.233,0.032,0.469,0.082,0.702,0.146 c0.231,0.064,0.457,0.146,0.678,0.245c0.207,0.092,0.398,0.199,0.572,0.32c0.309,0.211,0.704,0.233,1.032,0.062 c0.33-0.175,0.535-0.514,0.535-0.886v-2.787c0-0.411-0.258-0.786-0.643-0.934c-0.52-0.199-1.089-0.348-1.692-0.442 c-1.1-0.17-2.794-0.229-4.251,0.118c-0.748,0.181-1.419,0.469-1.996,0.856c-0.611,0.409-1.102,0.94-1.458,1.576 c-0.363,0.648-0.547,1.417-0.547,2.283c0,1.12,0.335,2.099,0.995,2.907c0.615,0.754,1.533,1.388,2.731,1.887 c0.397,0.162,0.768,0.323,1.109,0.479c0.301,0.137,0.562,0.279,0.775,0.424c0.158,0.105,0.282,0.219,0.36,0.326 c0.023,0.031,0.034,0.056,0.021,0.156c0,0-0.019,0.031-0.088,0.076c-0.067,0.043-0.192,0.104-0.407,0.155 c-0.506,0.126-1.454,0.112-2.341-0.206c-0.52-0.186-1.01-0.471-1.457-0.846c-0.297-0.25-0.715-0.305-1.066-0.141 c-0.351,0.164-0.577,0.52-0.577,0.906v2.983c0,0.377,0.208,0.718,0.544,0.891c0.57,0.292,1.24,0.511,1.992,0.651 c0.719,0.136,1.485,0.204,2.277,0.204c0.783,0,1.538-0.076,2.244-0.227c0.758-0.161,1.44-0.436,2.029-0.816 c0.62-0.401,1.118-0.934,1.481-1.582c0.182-0.327,0.319-0.689,0.411-1.082c0.491,3.184,2.785,3.707,4.219,3.707 c0.814,0,1.551-0.197,2.201-0.588c0.184,0.217,0.458,0.354,0.764,0.354h2.936c0.551,0,1-0.448,1-1v-9.546 C34.585,23.695,34.137,23.247,33.585,23.247z" opacity=".05"/><g opacity=".07"><path d="M22.024,27.182c-0.334-0.348-0.739-0.662-1.202-0.937c-0.442-0.262-0.947-0.512-1.502-0.744 c-0.381-0.157-0.723-0.31-1.025-0.458c-0.286-0.14-0.527-0.281-0.718-0.422c-0.168-0.123-0.297-0.249-0.382-0.377 c-0.062-0.093-0.092-0.198-0.092-0.323c0-0.109,0.025-0.2,0.079-0.284c0.064-0.1,0.161-0.19,0.289-0.269 c0.146-0.089,0.334-0.161,0.56-0.214c0.43-0.099,0.958-0.11,1.539-0.034c0.255,0.035,0.512,0.089,0.768,0.159 c0.255,0.071,0.504,0.161,0.747,0.27c0.235,0.104,0.454,0.227,0.651,0.364c0.153,0.104,0.352,0.119,0.517,0.032 c0.165-0.087,0.268-0.257,0.268-0.443v-2.787c0-0.207-0.128-0.393-0.321-0.467c-0.487-0.187-1.022-0.326-1.59-0.415 c-1.144-0.178-2.737-0.205-4.057,0.11c-0.688,0.166-1.306,0.43-1.835,0.785c-0.546,0.366-0.983,0.84-1.299,1.405 c-0.321,0.573-0.483,1.26-0.483,2.039c0,1.002,0.297,1.874,0.882,2.591c0.563,0.689,1.414,1.274,2.533,1.74 c0.404,0.165,0.78,0.328,1.128,0.486c0.327,0.149,0.612,0.306,0.847,0.464c0.209,0.141,0.372,0.291,0.485,0.447 c0.088,0.121,0.129,0.25,0.129,0.405c0,0.105-0.025,0.2-0.077,0.291c-0.051,0.091-0.138,0.176-0.257,0.253 c-0.142,0.09-0.329,0.164-0.556,0.219c-0.666,0.161-1.718,0.104-2.627-0.222c-0.576-0.206-1.118-0.521-1.61-0.934 c-0.148-0.125-0.357-0.152-0.533-0.07s-0.289,0.259-0.289,0.453v2.983c0,0.188,0.105,0.359,0.272,0.445 c0.526,0.27,1.151,0.474,1.856,0.605c0.69,0.13,1.425,0.195,2.185,0.195c0.747,0,1.466-0.072,2.14-0.216 c0.698-0.148,1.324-0.399,1.861-0.746c0.551-0.357,0.993-0.83,1.316-1.406c0.323-0.58,0.487-1.294,0.487-2.122 c0-0.601-0.093-1.141-0.278-1.607C22.641,27.963,22.371,27.543,22.024,27.182z"/><path d="M33.585,23.747H30.65c-0.276,0-0.5,0.224-0.5,0.5v5.463c0,0.508-0.12,0.905-0.354,1.18 c-0.224,0.26-0.506,0.381-0.889,0.381c-0.546,0-1.104-0.181-1.104-1.523v-5.5c0-0.276-0.224-0.5-0.5-0.5h-2.937 c-0.276,0-0.5,0.224-0.5,0.5v5.762c0,3.733,2.077,4.518,3.818,4.518c0.951,0,1.775-0.3,2.465-0.896v0.162 c0,0.276,0.224,0.5,0.5,0.5h2.936c0.276,0,0.5-0.224,0.5-0.5v-9.546C34.085,23.971,33.862,23.747,33.585,23.747z"/></g><linearGradient id="QscrwVzV6p~873v8J~nlja" x1="6.42" x2="41.198" y1="-842.498" y2="-849.57" gradientTransform="matrix(1 0 0 -1 0 -835.89)" gradientUnits="userSpaceOnUse"><stop offset="0" stop-color="#f44f5a"/><stop offset=".443" stop-color="#ee3d4a"/><stop offset="1" stop-color="#e52030"/></linearGradient><path fill="url(#QscrwVzV6p~873v8J~nlja)" d="M42,8v6H6V8c0-1.1,0.9-2,2-2h32C41.1,6,42,6.9,42,8z"/><path d="M35.5,12.5L35.5,12.5c-1.657,0-3-1.343-3-3V6h6v3.5 C38.5,11.157,37.157,12.5,35.5,12.5z" opacity=".05"/><path d="M35.5,11.75L35.5,11.75c-1.243,0-2.25-1.007-2.25-2.25V6h4.5v3.5 C37.75,10.743,36.743,11.75,35.5,11.75z" opacity=".07"/><path d="M12.5,12.5L12.5,12.5c-1.657,0-3-1.343-3-3V6h6v3.5 C15.5,11.157,14.157,12.5,12.5,12.5z" opacity=".05"/><path d="M12.5,11.75L12.5,11.75c-1.243,0-2.25-1.007-2.25-2.25V6h4.5v3.5 C14.75,10.743,13.743,11.75,12.5,11.75z" opacity=".07"/><path fill="#3ccbf4" d="M12.5,11L12.5,11c-0.828,0-1.5-0.672-1.5-1.5v-4C11,4.672,11.672,4,12.5,4l0,0 C13.328,4,14,4.672,14,5.5v4C14,10.328,13.328,11,12.5,11z"/><path fill="#3ccbf4" d="M35.5,11L35.5,11c-0.828,0-1.5-0.672-1.5-1.5v-4C34,4.672,34.672,4,35.5,4l0,0 C36.328,4,37,4.672,37,5.5v4C37,10.328,36.328,11,35.5,11z"/><path fill="#fff" d="M13.488,33.28v-2.983c0.541,0.454,1.128,0.794,1.763,1.021c0.634,0.227,1.273,0.34,1.92,0.34 c0.379,0,0.71-0.034,0.993-0.103c0.282-0.068,0.519-0.163,0.708-0.284s0.331-0.264,0.424-0.429 c0.094-0.165,0.141-0.344,0.141-0.536c0-0.261-0.075-0.494-0.225-0.699c-0.148-0.205-0.353-0.395-0.61-0.568 s-0.563-0.342-0.918-0.504c-0.354-0.161-0.736-0.326-1.146-0.494c-1.044-0.435-1.822-0.966-2.335-1.594s-0.77-1.386-0.77-2.274 c0-0.696,0.14-1.294,0.42-1.795c0.279-0.5,0.66-0.911,1.142-1.234s1.039-0.562,1.673-0.714c0.635-0.151,1.306-0.228,2.014-0.228 c0.696,0,1.313,0.042,1.851,0.125c0.537,0.084,1.033,0.214,1.487,0.388v2.787c-0.224-0.155-0.468-0.292-0.732-0.41 c-0.264-0.118-0.536-0.216-0.815-0.294c-0.279-0.077-0.558-0.135-0.834-0.173c-0.276-0.037-0.539-0.056-0.788-0.056 c-0.342,0-0.652,0.033-0.932,0.098c-0.28,0.065-0.517,0.157-0.709,0.275s-0.342,0.26-0.447,0.424 c-0.105,0.165-0.158,0.35-0.158,0.555c0,0.224,0.059,0.425,0.177,0.602s0.286,0.345,0.504,0.503 c0.217,0.159,0.481,0.314,0.792,0.467s0.662,0.309,1.054,0.471c0.534,0.224,1.014,0.461,1.439,0.713s0.791,0.536,1.096,0.853 c0.305,0.317,0.537,0.68,0.699,1.086c0.161,0.407,0.242,0.882,0.242,1.422c0,0.746-0.142,1.372-0.424,1.879 c-0.283,0.506-0.667,0.916-1.151,1.23c-0.485,0.313-1.049,0.539-1.692,0.676c-0.643,0.137-1.322,0.205-2.036,0.205 c-0.733,0-1.432-0.063-2.093-0.187C14.546,33.716,13.973,33.529,13.488,33.28z"/><path fill="#fff" d="M33.585,33.793H30.65v-1.454h-0.047c-0.728,1.125-1.7,1.688-2.918,1.688 c-2.213,0-3.318-1.34-3.318-4.018v-5.762h2.937v5.5c0,1.349,0.534,2.023,1.604,2.023c0.527,0,0.95-0.186,1.268-0.555 c0.316-0.37,0.476-0.872,0.476-1.506v-5.463h2.936V33.793z"/></svg>