<svg xmlns="http://www.w3.org/2000/svg" viewBox="0 0 48 48"><linearGradient id="ezlDhhGYguQkVYBgxtcBfa" x1="6" x2="42" y1="2862" y2="2862" gradientTransform="translate(0 -2820)" gradientUnits="userSpaceOnUse"><stop offset="0" stop-color="#c8d3de"/><stop offset="1" stop-color="#c8d3de"/></linearGradient><path fill="url(#ezlDhhGYguQkVYBgxtcBfa)" d="M42,40H6v2c0,1.105,0.895,2,2,2h32c1.105,0,2-0.895,2-2V40z"/><linearGradient id="ezlDhhGYguQkVYBgxtcBfb" x1="14.095" x2="31.385" y1="2831.338" y2="2864.787" gradientTransform="translate(0 -2820)" gradientUnits="userSpaceOnUse"><stop offset="0" stop-color="#fcfcfc"/><stop offset=".495" stop-color="#f4f4f4"/><stop offset=".946" stop-color="#e8e8e8"/><stop offset="1" stop-color="#e8e8e8"/></linearGradient><path fill="url(#ezlDhhGYguQkVYBgxtcBfb)" d="M42,40H6V21L24,4l18,17V40z"/><path fill="#de490d" d="M19,26h10c0.552,0,1,0.448,1,1v17H18V27C18,26.448,18.448,26,19,26z"/><path d="M24,5c-0.474,0-0.948,0.168-1.326,0.503l-5.359,4.811L6,21v5.39l18-15.962	L42,26.39V21L30.685,10.314l-5.359-4.811C24.948,5.168,24.474,5,24,5z" opacity=".05"/><path d="M24,4c-0.474,0-0.948,0.167-1.326,0.5l-5.359,4.784L6,19.909v5.359	L24,9.397l18,15.871v-5.359L30.685,9.284L25.326,4.5C24.948,4.167,24.474,4,24,4z" opacity=".07"/><linearGradient id="ezlDhhGYguQkVYBgxtcBfc" x1="24" x2="24" y1="2822.684" y2="2844.696" gradientTransform="translate(0 -2820)" gradientUnits="userSpaceOnUse"><stop offset="0" stop-color="#d43a02"/><stop offset="1" stop-color="#b9360c"/></linearGradient><path fill="url(#ezlDhhGYguQkVYBgxtcBfc)" d="M44.495,20.507L25.326,3.503C24.948,3.168,24.474,3,24,3s-0.948,0.168-1.326,0.503	L3.505,20.507c-0.42,0.374-0.449,1.02-0.064,1.43l1.636,1.745c0.369,0.394,0.984,0.424,1.39,0.067L24,8.428L41.533,23.75	c0.405,0.356,1.021,0.327,1.39-0.067l1.636-1.745C44.944,21.527,44.915,20.881,44.495,20.507z"/><linearGradient id="ezlDhhGYguQkVYBgxtcBfd" x1="35.909" x2="38.636" y1="1801.118" y2="1810.499" gradientTransform="translate(0 -1762)" gradientUnits="userSpaceOnUse"><stop offset="0" stop-color="#33bef0"/><stop offset="1" stop-color="#0a85d9"/></linearGradient><path fill="url(#ezlDhhGYguQkVYBgxtcBfd)" d="M38,39.429c-5.523,0-10,3.254-10,6.607V47c0,0.552,0.448,1,1,1h18c0.552,0,1-0.448,1-1v-0.964	C48,42.683,43.523,39.429,38,39.429z"/><path fill="#d6a121" d="M41,39.6c0,1.138-1.2,2.4-3,2.4s-3-1.262-3-2.4c0-1.582,0-4.221,0-4.221h6	C41,35.379,41,38.018,41,39.6z"/><linearGradient id="ezlDhhGYguQkVYBgxtcBfe" x1="42.756" x2="43.804" y1="1796.5" y2="1796.5" gradientTransform="translate(0 -1762)" gradientUnits="userSpaceOnUse"><stop offset="0" stop-color="#c48f0c"/><stop offset=".251" stop-color="#d19b16"/><stop offset=".619" stop-color="#dca51f"/><stop offset="1" stop-color="#e0a922"/></linearGradient><path fill="url(#ezlDhhGYguQkVYBgxtcBfe)" d="M43.095,33h-0.754v3h0.855c0.294,0,0.545-0.234,0.595-0.555l0.197-1.277	C44.081,33.557,43.655,33,43.095,33z"/><linearGradient id="ezlDhhGYguQkVYBgxtcBff" x1="-3301.733" x2="-3300.685" y1="1796.5" y2="1796.5" gradientTransform="matrix(-1 0 0 1 -3268.49 -1762)" gradientUnits="userSpaceOnUse"><stop offset="0" stop-color="#c48f0c"/><stop offset=".251" stop-color="#d19b16"/><stop offset=".619" stop-color="#dca51f"/><stop offset="1" stop-color="#e0a922"/></linearGradient><path fill="url(#ezlDhhGYguQkVYBgxtcBff)" d="M32.905,33h0.754v3h-0.855c-0.294,0-0.545-0.234-0.595-0.555l-0.197-1.277	C31.919,33.557,32.345,33,32.905,33z"/><radialGradient id="ezlDhhGYguQkVYBgxtcBfg" cx="318.019" cy="2056.474" r="7.438" gradientTransform="matrix(.805 0 0 .805 -218.005 -1622.295)" gradientUnits="userSpaceOnUse"><stop offset="0" stop-color="#ffcf54"/><stop offset=".261" stop-color="#fdcb4d"/><stop offset=".639" stop-color="#f7c13a"/><stop offset="1" stop-color="#f0b421"/></radialGradient><path fill="url(#ezlDhhGYguQkVYBgxtcBfg)" d="M38,26.333c-2.467,0-5,0.375-5,5.708c0,0.427,0,3.265,0,3.721C33,37.667,36,40,38,40	s5-2.333,5-4.237c0-0.456,0-3.294,0-3.721C43,26.708,40.467,26.333,38,26.333z"/><radialGradient id="ezlDhhGYguQkVYBgxtcBfh" cx="311.642" cy="1948.576" r="19.47" gradientTransform="matrix(.805 0 0 .8669 -218.005 -1663.447)" gradientUnits="userSpaceOnUse"><stop offset="0" stop-color="#c26715"/><stop offset=".508" stop-color="#b85515"/><stop offset="1" stop-color="#ad3f16"/></radialGradient><path fill="url(#ezlDhhGYguQkVYBgxtcBfh)" d="M38,25c-2.387,0-3,1-3,1c-1.429,0-3,0.945-3,4c0,1.113,0.286,2.692,1,5	c0.341-4.406,1.048-6.587,2.143-6.587C35.935,28.413,36.646,29,38,29s2.362-0.587,2.857-0.587C42.732,28.413,43,34.305,43,35	c0.714-2.308,1-4.027,1-5C44,26.92,41.881,25,38,25z"/><radialGradient id="ezlDhhGYguQkVYBgxtcBfi" cx="383.998" cy="2049.124" r="21.61" gradientTransform="matrix(.7698 0 0 .805 -258.523 -1622.295)" gradientUnits="userSpaceOnUse"><stop offset="0" stop-color="#c26715"/><stop offset=".508" stop-color="#b85515"/><stop offset="1" stop-color="#ad3f16"/></radialGradient><path fill="url(#ezlDhhGYguQkVYBgxtcBfi)" d="M38,25c-2.602,0-3,1-3,1c-0.026,0.724,0.143,1.286,0.143,1.286S35.589,29,38.301,29	C39.939,29,42,27.728,42,25C42,25,41.711,25,38,25z"/></svg>