<svg xmlns="http://www.w3.org/2000/svg" viewBox="0 0 48 48"><linearGradient id="huOYi7niIm4nibUNBi~Dba" x1="35.815" x2="36.963" y1="5.168" y2="14.737" gradientUnits="userSpaceOnUse"><stop offset="0" stop-color="#e36001"/><stop offset="1" stop-color="#ffb840"/></linearGradient><path fill="url(#huOYi7niIm4nibUNBi~Dba)" d="M30,13h12c0.552,0,1-0.448,1-1V9c0-2.209-1.791-4-4-4h-9V13z"/><linearGradient id="huOYi7niIm4nibUNBi~Dbb" x1="22.904" x2="28.665" y1="4.841" y2="52.337" gradientUnits="userSpaceOnUse"><stop offset="0" stop-color="#ffc563"/><stop offset=".221" stop-color="#ffbe52"/><stop offset=".656" stop-color="#ffaa27"/><stop offset="1" stop-color="#f90"/></linearGradient><path fill="url(#huOYi7niIm4nibUNBi~Dbb)" d="M39,5H15c-2.209,0-4,1.791-4,4v18l3,1l-1,0.333L11,29v10c0,2.209,1.791,4,4,4h16 c2.209,0,4-1.791,4-4v-4l-4-1l4-1V23l-2-1l2-1v-2l-5-1l5-1V9C35,6.791,36.791,5,39,5z"/><linearGradient id="huOYi7niIm4nibUNBi~Dbc" x1="17.612" x2="18.049" y1="30.015" y2="42.441" gradientUnits="userSpaceOnUse"><stop offset="0" stop-color="#ffb840"/><stop offset="1" stop-color="#e36001"/></linearGradient><path fill="url(#huOYi7niIm4nibUNBi~Dbc)" d="M31,43H9c-2.209,0-4-1.791-4-4v-2c0-0.552,0.448-1,1-1h20c0.552,0,1,0.448,1,1v2 C27,41.209,28.791,43,31,43z"/><path fill="#e88913" d="M18,14h10c0.552,0,1,0.448,1,1v0c0,0.552-0.448,1-1,1H18c-0.552,0-1-0.448-1-1v0 C17,14.448,17.448,14,18,14z M18,19h6c0.552,0,1,0.448,1,1v0c0,0.552-0.448,1-1,1h-6c-0.552,0-1-0.448-1-1v0 C17,19.448,17.448,19,18,19z M18,24h10c0.552,0,1,0.448,1,1v0c0,0.552-0.448,1-1,1H18c-0.552,0-1-0.448-1-1v0 C17,24.448,17.448,24,18,24z M18,29h6c0.552,0,1,0.448,1,1v0c0,0.552-0.448,1-1,1h-6c-0.552,0-1-0.448-1-1v0 C17,29.448,17.448,29,18,29z"/></svg>