<svg xmlns="http://www.w3.org/2000/svg" viewBox="0 0 48 48"><path fill="#1a9ba1" d="M41.127,7.92c0,0-3.733-0.318-6.658,1.138s-8.941,5.465-7.932,7.045	c0.986-0.744,2.096-0.245,2.637,0.315c0.351,0.363,1.961,2.067,3.049,3.219c0.604,0.64,1.563,0.791,2.335,0.368l7.438-4.077	c0.807-0.442,1.19-1.391,0.917-2.269L41.127,7.92z"/><path fill="#1a9ba1" d="M7.92,41.127c0,0-0.318-3.733,1.138-6.658c1.456-2.925,5.465-8.941,7.045-7.932	c-0.744,0.986-0.245,2.096,0.315,2.637c0.363,0.351,2.067,1.961,3.219,3.049c0.64,0.604,0.791,1.563,0.368,2.335l-4.077,7.438	c-0.442,0.807-1.391,1.19-2.269,0.917L7.92,41.127z"/><path fill="#37c6d0" d="M20.986,20.986C15.07,26.901,10.734,33.789,7.92,41.127l-1.848-1.07	c-0.905-0.524-1.313-1.633-0.927-2.605c2.819-7.092,7.089-13.741,12.827-19.48S30.361,7.964,37.453,5.145	c0.972-0.386,2.081,0.022,2.605,0.927l1.07,1.848C33.789,10.734,26.901,15.07,20.986,20.986z"/></svg>