<svg xmlns="http://www.w3.org/2000/svg" viewBox="0 0 48 48"><linearGradient id="406O_duflFHR9YzEufztqa" x1="37.604" x2="37.604" y1="6.455" y2="20.555" gradientUnits="userSpaceOnUse"><stop offset="0" stop-color="#636363"/><stop offset=".998" stop-color="#3b3b3b"/></linearGradient><path fill="url(#406O_duflFHR9YzEufztqa)" d="M32.907,10C36,10,39,7,41,7c1,0,2,1,2,2c0,5-2.715,10.257-5,11C38,20,29.813,10,32.907,10z"/><linearGradient id="406O_duflFHR9YzEufztqb" x1="37.604" x2="37.604" y1="6.455" y2="20.555" gradientTransform="matrix(-1 0 0 1 48 0)" gradientUnits="userSpaceOnUse"><stop offset="0" stop-color="#636363"/><stop offset=".998" stop-color="#3b3b3b"/></linearGradient><path fill="url(#406O_duflFHR9YzEufztqb)" d="M10,20c-2.285-0.743-5-6-5-11c0-1,1-2,2-2c2,0,5,3,8.093,3S10,20,10,20z"/><linearGradient id="406O_duflFHR9YzEufztqc" x1="24" x2="24" y1="6.233" y2="44.344" gradientUnits="userSpaceOnUse"><stop offset="0" stop-color="#636363"/><stop offset=".998" stop-color="#3b3b3b"/></linearGradient><path fill="url(#406O_duflFHR9YzEufztqc)" d="M39,18c0-5.472-7-11-15-11S9,12.528,9,18c0,0-4,5-4,12c0,3,3,8,10,8c0,0,2.993,5,9,5s9-5,9-5	c7,0,10-5,10-8C43,23,39,18,39,18z"/><path fill="#a3621e" d="M34,21.831C34,23.333,32.763,24,31.767,24C30.782,24,30,23.32,30,22.667l4-1.333V21.831z"/><path fill="#a3621e" d="M14,21.333l4,1.333C18,23.32,17.218,24,16.233,24C15.237,24,14,23.333,14,21.831V21.333z"/><linearGradient id="406O_duflFHR9YzEufztqd" x1="24" x2="24" y1="27.44" y2="43.184" gradientUnits="userSpaceOnUse"><stop offset="0" stop-color="#666"/><stop offset="1" stop-color="#636363"/></linearGradient><path fill="url(#406O_duflFHR9YzEufztqd)" d="M29,27.676l-5-0.172l-5,0.172c0,0-5,4.324-5,9.324c0,2.19,6.667,7,10,7s10-4.81,10-7	C34,32,29,27.676,29,27.676z"/><path fill="#3d3d3d" d="M24,35.667c0,0-2,1.333-4,1.333c0,0,1,1,4,1s4-1,4-1C26,37,24,35.667,24,35.667z"/><linearGradient id="406O_duflFHR9YzEufztqe" x1="24" x2="24" y1="8.045" y2="25.831" gradientUnits="userSpaceOnUse"><stop offset="0" stop-color="#636363"/><stop offset=".998" stop-color="#3b3b3b"/></linearGradient><path fill="url(#406O_duflFHR9YzEufztqe)" d="M26.001,9.086C25.348,9.035,24.685,9,24,9s-1.348,0.035-2.001,0.086	c-0.01,10.824-1.814,16.245-2.619,18.126C19.149,27.752,24,27,24,27s4.851,0.752,4.62,0.212	C27.816,25.331,26.011,19.909,26.001,9.086z"/><linearGradient id="406O_duflFHR9YzEufztqf" x1="24" x2="24" y1="26.035" y2="30.149" gradientUnits="userSpaceOnUse"><stop offset="0" stop-color="#2f2f2f"/><stop offset="1" stop-color="#242424"/></linearGradient><path fill="url(#406O_duflFHR9YzEufztqf)" d="M24,26c-2.885,0-5,0.677-5,1.676C19,28.07,21.57,30,24,30s5-1.93,5-2.324	C29,26.677,26.885,26,24,26z"/></svg>