<svg xmlns="http://www.w3.org/2000/svg" viewBox="0 0 48 48"><linearGradient id="yje3rNopXIsqdISsN8ywpa" x1="32.012" x2="15.881" y1="387.988" y2="404.119" gradientTransform="matrix(1 0 0 -1 0 420)" gradientUnits="userSpaceOnUse"><stop offset="0" stop-color="#fff"/><stop offset=".58" stop-color="#f1f1f1"/><stop offset="1" stop-color="#ccc"/></linearGradient><circle cx="24" cy="24" r="11.5" fill="url(#yje3rNopXIsqdISsN8ywpa)"/><linearGradient id="yje3rNopXIsqdISsN8ywpb" x1="5.327" x2="38.083" y1="414.656" y2="381.901" gradientTransform="matrix(1 0 0 -1 0 420)" gradientUnits="userSpaceOnUse"><stop offset="0" stop-color="#859098"/><stop offset=".331" stop-color="#818c95"/><stop offset=".669" stop-color="#74828c"/><stop offset="1" stop-color="#5e727d"/></linearGradient><path fill="url(#yje3rNopXIsqdISsN8ywpb)" d="M43.407,19.243c-2.389-0.029-4.702-1.274-5.983-3.493c-1.233-2.136-1.208-4.649-0.162-6.693	c-2.125-1.887-4.642-3.339-7.43-4.188C28.577,6.756,26.435,8,24,8s-4.577-1.244-5.831-3.131c-2.788,0.849-5.305,2.301-7.43,4.188	c1.046,2.044,1.071,4.557-0.162,6.693c-1.281,2.219-3.594,3.464-5.983,3.493C4.22,20.77,4,22.358,4,24	c0,1.284,0.133,2.535,0.364,3.752c2.469-0.051,4.891,1.208,6.213,3.498c1.368,2.37,1.187,5.204-0.22,7.345	c2.082,1.947,4.573,3.456,7.34,4.375C18.827,40.624,21.221,39,24,39s5.173,1.624,6.303,3.971c2.767-0.919,5.258-2.428,7.34-4.375	c-1.407-2.141-1.588-4.975-0.22-7.345c1.322-2.29,3.743-3.549,6.213-3.498C43.867,26.535,44,25.284,44,24	C44,22.358,43.78,20.77,43.407,19.243z M24,34.5c-5.799,0-10.5-4.701-10.5-10.5S18.201,13.5,24,13.5S34.5,18.201,34.5,24	S29.799,34.5,24,34.5z"/><linearGradient id="yje3rNopXIsqdISsN8ywpc" x1="23.981" x2="24.047" y1="16.382" y2="32.404" gradientUnits="userSpaceOnUse"><stop offset="0" stop-color="#f29100"/><stop offset="1" stop-color="#e84e1b"/></linearGradient><path fill="url(#yje3rNopXIsqdISsN8ywpc)" d="M24,15c-1.104,0-2,0.896-2,2v8c0,1.104,0.896,2,2,2s2-0.896,2-2v-8C26,15.896,25.104,15,24,15	z"/><linearGradient id="yje3rNopXIsqdISsN8ywpd" x1="23.94" x2="24.006" y1="16.382" y2="32.404" gradientUnits="userSpaceOnUse"><stop offset="0" stop-color="#f29100"/><stop offset="1" stop-color="#e84e1b"/></linearGradient><circle cx="24" cy="31" r="2" fill="url(#yje3rNopXIsqdISsN8ywpd)"/></svg>