<svg xmlns="http://www.w3.org/2000/svg" data-name="Слой 1" viewBox="0 0 48 48"><defs><linearGradient id="LKqGfJ9qWZdWqVnt6qTGPa" x1="28.157" x2="41.068" y1="17.946" y2="53.418" data-name="Безымянный градиент 100" gradientUnits="userSpaceOnUse"><stop offset="0" stop-color="#21ad64"/><stop offset="1" stop-color="#088242"/></linearGradient></defs><path fill="#0078d4" d="M21,38A17,17,0,1,1,38,21,17.019,17.019,0,0,1,21,38ZM21,6A15,15,0,1,0,36,21,15.01672,15.01672,0,0,0,21,6Z"/><path fill="#199be2" d="M21,33A12,12,0,1,1,33,21,12.01343,12.01343,0,0,1,21,33Zm0-22A10,10,0,1,0,31,21,10.01146,10.01146,0,0,0,21,11Z"/><path fill="#35c1f1" d="M21,28.25A7.25,7.25,0,1,1,28.25,21,7.258,7.258,0,0,1,21,28.25Zm0-12.5A5.25,5.25,0,1,0,26.25,21,5.25605,5.25605,0,0,0,21,15.75Z"/><circle cx="21" cy="21" r="2" fill="#50e6ff"/><path fill="url(#LKqGfJ9qWZdWqVnt6qTGPa)" d="M44,26V42a2.00591,2.00591,0,0,1-2,2H26a2.00591,2.00591,0,0,1-2-2V31.83a2.00616,2.00616,0,0,1,.59-1.42L30.41,24.59A2.00614,2.00614,0,0,1,31.83,24H42A2.00587,2.00587,0,0,1,44,26Z"/><path fill="#50d18d" d="M44,40v2H28a1.003,1.003,0,0,1-1-1V33a1.03276,1.03276,0,0,1,.29-.71l5-5A1.03276,1.03276,0,0,1,33,27h7a1.003,1.003,0,0,1,1,1v8a1.003,1.003,0,0,1-1,1H33a1,1,0,0,1,0-2h6V29H33.41L29,33.41V40Z"/><path fill="#50d18d" d="M32,36V34.82843a2,2,0,0,1,.58579-1.41422l.82842-.82842A2,2,0,0,1,34.82843,32H36a1,1,0,0,1,1,1v4H33A1,1,0,0,1,32,36Z"/></svg>