<svg xmlns="http://www.w3.org/2000/svg" viewBox="0 0 48 48"><linearGradient id="wZjjXHXM7ElenaeHGMUo5a" x1="24" x2="24" y1="48" y2="19" gradientUnits="userSpaceOnUse"><stop offset=".108" stop-color="#0d7044"/><stop offset=".433" stop-color="#11945a"/></linearGradient><path fill="url(#wZjjXHXM7ElenaeHGMUo5a)" d="M24,19L5,43.167c0,0,6.333,4.833,19,4.833s19-4.833,19-4.833L24,19z"/><linearGradient id="wZjjXHXM7ElenaeHGMUo5b" x1="24" x2="24" y1="36" y2="14" gradientUnits="userSpaceOnUse"><stop offset=".108" stop-color="#0d7044"/><stop offset=".433" stop-color="#11945a"/></linearGradient><path fill="url(#wZjjXHXM7ElenaeHGMUo5b)" d="M40,32.33c0,0-5.33,3.67-16,3.67S8,32.33,8,32.33l7.29-8.35l0.36-0.42l0.38-0.43L24,14 l7.97,9.13l0.38,0.43l0.36,0.42L40,32.33z"/><linearGradient id="wZjjXHXM7ElenaeHGMUo5c" x1="24" x2="24" y1="24" y2="8.05" gradientUnits="userSpaceOnUse"><stop offset=".108" stop-color="#0d7044"/><stop offset=".433" stop-color="#11945a"/></linearGradient><path fill="url(#wZjjXHXM7ElenaeHGMUo5c)" d="M36,21.72c0,0-1.34,0.76-4.03,1.41C30.02,23.6,27.37,24,24,24s-6.02-0.4-7.97-0.87 C13.34,22.48,12,21.72,12,21.72l8.54-9.73l0.9-1.03l0.91-1.03l0.91-1.04L24,8.05l0.74,0.84l0.91,1.04l0.91,1.03l0.9,1.03L36,21.72z"/><path d="M27.14,6.87L30,4.13l-4-0.55L24,0l-2,3.58l-4,0.55l2.86,2.74L20.28,11l2.07-1.07l-0.91,1.03L24,9.64l2.56,1.32l-0.91-1.03 L27.72,11L27.14,6.87z M24.74,8.89L24,8.51l-0.74,0.38l-2.35,1.22l0.48-3.42l-2.3-2.21l3.22-0.44L24,1.02l1.69,3.02l3.22,0.44 l-2.3,2.21l0.48,3.42L24.74,8.89z" opacity=".07"/><path fill="#edbe00" d="M24,0l2,3.576l4,0.549l-2.858,2.749L27.718,11L24,9.076L20.282,11l0.577-4.126L18,4.126l4-0.549 L24,0z"/><path fill="#50e6ff" d="M22,15c-1.105,0-2,0.895-2,2s0.895,2,2,2s2-0.895,2-2S23.105,15,22,15z M27.5,18 c-0.828,0-1.5,0.672-1.5,1.5s0.672,1.5,1.5,1.5s1.5-0.672,1.5-1.5S28.328,18,27.5,18z M24,42c-0.552,0-1,0.448-1,1s0.448,1,1,1 s1-0.448,1-1S24.552,42,24,42z M34,39c-1.105,0-2,0.895-2,2s0.895,2,2,2s2-0.895,2-2S35.105,39,34,39z M16.5,39 c-0.828,0-1.5,0.672-1.5,1.5s0.672,1.5,1.5,1.5s1.5-0.672,1.5-1.5S17.328,39,16.5,39z"/><path fill="#edbe00" d="M18.5,27c-0.828,0-1.5,0.672-1.5,1.5s0.672,1.5,1.5,1.5s1.5-0.672,1.5-1.5S19.328,27,18.5,27z M23,31c-0.552,0-1,0.448-1,1s0.448,1,1,1s1-0.448,1-1S23.552,31,23,31z M29.5,29c-0.828,0-1.5,0.672-1.5,1.5s0.672,1.5,1.5,1.5 s1.5-0.672,1.5-1.5S30.328,29,29.5,29z"/><path d="M26.56,10.96l-0.91-1.03L24,9.08l-1.65,0.85l-0.91,1.03l-0.9,1.03L24,10.2l3.46,1.79L26.56,10.96z" opacity=".05"/></svg>