<svg xmlns="http://www.w3.org/2000/svg" viewBox="0 0 48 48"><linearGradient id="XNokL6TehLvx5hUPT5ynCa" x1="15.738" x2="32.107" y1="36.038" y2="5.254" gradientTransform="matrix(1 0 0 -1 0 50)" gradientUnits="userSpaceOnUse"><stop offset="0" stop-color="#a1aab3"/><stop offset="1" stop-color="#8f979e"/></linearGradient><path fill="url(#XNokL6TehLvx5hUPT5ynCa)" d="M39,16v27c0,1.105-0.895,2-2,2H11c-1.105,0-2-0.895-2-2V16c0-1.105,0.895-2,2-2h26	C38.105,14,39,14.895,39,16z"/><rect width="24" height="7" x="12" y="14" fill="#666"/><path fill="#666" d="M35.077,22H12.923C12.413,22,12,21.552,12,21l0,0c0-0.552,0.413-1,0.923-1h22.154	C35.587,20,36,20.448,36,21l0,0C36,21.552,35.587,22,35.077,22z"/><linearGradient id="XNokL6TehLvx5hUPT5ynCb" x1="24" x2="24" y1="47.33" y2="27.723" gradientTransform="matrix(1 0 0 -1 0 50)" gradientUnits="userSpaceOnUse"><stop offset="0" stop-color="#0077d2"/><stop offset=".693" stop-color="#0077d2"/><stop offset=".781" stop-color="#0272ca"/><stop offset=".92" stop-color="#0763b2"/><stop offset="1" stop-color="#0b59a2"/></linearGradient><path fill="url(#XNokL6TehLvx5hUPT5ynCb)" d="M34,22H14V4c0-1.105,0.895-2,2-2h16c1.105,0,2,0.895,2,2V22z"/><path d="M21.33,42C20.045,42,19,40.955,19,39.67v-5.34	c0-1.285,1.045-2.33,2.33-2.33h5.34c1.285,0,2.33,1.045,2.33,2.33v5.34c0,1.285-1.045,2.33-2.33,2.33H21.33z" opacity=".05"/><path d="M21.33,41.5c-1.009,0-1.83-0.821-1.83-1.83v-5.34	c0-1.009,0.821-1.83,1.83-1.83h5.34c1.009,0,1.83,0.821,1.83,1.83v5.34c0,1.009-0.821,1.83-1.83,1.83H21.33z" opacity=".07"/><linearGradient id="XNokL6TehLvx5hUPT5ynCc" x1="21.848" x2="26.018" y1="17.047" y2="9.204" gradientTransform="matrix(1 0 0 -1 0 50)" gradientUnits="userSpaceOnUse"><stop offset="0" stop-color="#ffda1c"/><stop offset="1" stop-color="#feb705"/></linearGradient><path fill="url(#XNokL6TehLvx5hUPT5ynCc)" d="M22,33v3.5h-2v-2.17C20,33.6,20.6,33,21.33,33H22z M20,39.67C20,40.4,20.6,41,21.33,41H22	v-3.5h-2V39.67z M23,33v3.5h2V33H23z M23,41h2v-3.5h-2V41z M26.67,33H26v3.5h2v-2.17C28,33.6,27.4,33,26.67,33z M26,41h0.67	C27.4,41,28,40.4,28,39.67V37.5h-2V41z"/><radialGradient id="XNokL6TehLvx5hUPT5ynCd" cx="19" cy="38" r="3" gradientTransform="matrix(1 0 0 -1 0 50)" gradientUnits="userSpaceOnUse"><stop offset="0"/><stop offset=".009" stop-opacity=".991"/><stop offset=".98" stop-opacity="0"/></radialGradient><circle cx="19" cy="12" r="3" fill="url(#XNokL6TehLvx5hUPT5ynCd)"/><linearGradient id="XNokL6TehLvx5hUPT5ynCe" x1="15.792" x2="31.852" y1="38" y2="38" gradientTransform="matrix(1 0 0 -1 0 50)" gradientUnits="userSpaceOnUse"><stop offset="0" stop-color="#75daff"/><stop offset="1" stop-color="#1ea2e4"/></linearGradient><circle cx="19" cy="12" r="2.25" fill="url(#XNokL6TehLvx5hUPT5ynCe)"/><path d="M26.429,16.529C23.986,16.529,22,14.497,22,12s1.986-4.529,4.429-4.529	h2.799c1.042,0,1.89,0.844,1.89,1.882v5.295c0,1.038-0.848,1.882-1.89,1.882h-2.799V16.529z" opacity=".05"/><path d="M26.429,16.029c-2.166,0-3.929-1.808-3.929-4.029s1.763-4.029,3.929-4.029	h2.799c0.767,0,1.39,0.62,1.39,1.382v5.295c0,0.762-0.623,1.382-1.39,1.382h-2.799V16.029z" opacity=".07"/><linearGradient id="XNokL6TehLvx5hUPT5ynCf" x1="15.825" x2="31.701" y1="38" y2="38" gradientTransform="matrix(1 0 0 -1 0 50)" gradientUnits="userSpaceOnUse"><stop offset="0" stop-color="#75daff"/><stop offset="1" stop-color="#1ea2e4"/></linearGradient><path fill="url(#XNokL6TehLvx5hUPT5ynCf)" d="M23,12c0,1.949,1.535,3.529,3.428,3.529h2.8c0.491,0,0.89-0.395,0.89-0.882V9.353	c0-0.487-0.398-0.882-0.89-0.882h-2.8C24.535,8.471,23,10.051,23,12z"/></svg>