<svg xmlns="http://www.w3.org/2000/svg" viewBox="0 0 48 48"><linearGradient id="PFA0oThhv0wCEUrlYkebPa" x1="10.517" x2="36.546" y1="787.122" y2="823.141" gradientTransform="translate(0 -781.78)" gradientUnits="userSpaceOnUse"><stop offset="0" stop-color="#2aa4f4"/><stop offset="1" stop-color="#007ad9"/></linearGradient><path fill="url(#PFA0oThhv0wCEUrlYkebPa)" d="M36,4H12c-1.105,0-2,0.895-2,2v36c0,1.105,0.895,2,2,2h24c1.105,0,2-0.895,2-2V6	C38,4.895,37.105,4,36,4z"/><radialGradient id="PFA0oThhv0wCEUrlYkebPb" cx="24" cy="818.78" r="3" gradientTransform="translate(0 -781.78)" gradientUnits="userSpaceOnUse"><stop offset=".582" stop-opacity=".2"/><stop offset="1" stop-opacity="0"/></radialGradient><circle cx="24" cy="37" r="3" fill="url(#PFA0oThhv0wCEUrlYkebPb)"/><circle cx="24" cy="37" r="2" fill="#fff"/><linearGradient id="PFA0oThhv0wCEUrlYkebPc" x1="14" x2="34" y1="792.78" y2="792.78" gradientTransform="translate(0 -781.78)" gradientUnits="userSpaceOnUse"><stop offset="0" stop-color="#1d59b3"/><stop offset="1" stop-color="#195bbc"/></linearGradient><path fill="url(#PFA0oThhv0wCEUrlYkebPc)" d="M33.5,14h-19c-0.276,0-0.5-0.224-0.5-0.5v-5C14,8.224,14.224,8,14.5,8h19	C33.776,8,34,8.224,34,8.5v5C34,13.776,33.776,14,33.5,14z"/><circle cx="31" cy="11" r="1" fill="#50e6ff"/><linearGradient id="PFA0oThhv0wCEUrlYkebPd" x1="14" x2="34" y1="800.78" y2="800.78" gradientTransform="translate(0 -781.78)" gradientUnits="userSpaceOnUse"><stop offset="0" stop-color="#1d59b3"/><stop offset="1" stop-color="#195bbc"/></linearGradient><path fill="url(#PFA0oThhv0wCEUrlYkebPd)" d="M33.5,22h-19c-0.276,0-0.5-0.224-0.5-0.5v-5c0-0.276,0.224-0.5,0.5-0.5h19	c0.276,0,0.5,0.224,0.5,0.5v5C34,21.776,33.776,22,33.5,22z"/><circle cx="31" cy="19" r="1" fill="#50e6ff"/><linearGradient id="PFA0oThhv0wCEUrlYkebPe" x1="14" x2="34" y1="808.78" y2="808.78" gradientTransform="translate(0 -781.78)" gradientUnits="userSpaceOnUse"><stop offset="0" stop-color="#1d59b3"/><stop offset="1" stop-color="#195bbc"/></linearGradient><path fill="url(#PFA0oThhv0wCEUrlYkebPe)" d="M33.5,30h-19c-0.276,0-0.5-0.224-0.5-0.5v-5c0-0.276,0.224-0.5,0.5-0.5h19	c0.276,0,0.5,0.224,0.5,0.5v5C34,29.776,33.776,30,33.5,30z"/><circle cx="31" cy="27" r="1" fill="#50e6ff"/><linearGradient id="PFA0oThhv0wCEUrlYkebPf" x1="38" x2="38" y1="813.643" y2="817.534" gradientTransform="translate(0 -781.78)" gradientUnits="userSpaceOnUse"><stop offset="0" stop-color="#eba600"/><stop offset="1" stop-color="#c28200"/></linearGradient><path fill="url(#PFA0oThhv0wCEUrlYkebPf)" d="M38.707,33.707l-1.268-1.268C37.158,32.158,36.777,32,36.379,32H29c-0.552,0-1,0.447-1,1v14	c0,0.552,0.448,1,1,1h18c0.552,0,1-0.448,1-1V35c0-0.552-0.448-1-1-1h-7.586C39.149,34,38.895,33.895,38.707,33.707z"/><linearGradient id="PFA0oThhv0wCEUrlYkebPg" x1="38" x2="38" y1="815.712" y2="829.772" gradientTransform="translate(0 -781.78)" gradientUnits="userSpaceOnUse"><stop offset="0" stop-color="#ffd869"/><stop offset="1" stop-color="#fec52b"/></linearGradient><path fill="url(#PFA0oThhv0wCEUrlYkebPg)" d="M37.293,35.707l1.634-1.634C38.973,34.027,39.037,34,39.104,34H46c0.552,0,2,1.448,2,2v11	c0,0.552-0.448,1-1,1H29c-0.552,0-1-0.448-1-1V36.25c0-0.138,0.112-0.25,0.25-0.25h8.336C36.851,36,37.105,35.895,37.293,35.707z"/><path fill="#a238c2" d="M48,38.97v2.01C47.84,40.99,47.67,41,47.5,41c-3.58,0-6.5-2.92-6.5-6.5c0-0.17,0.01-0.34,0.02-0.5	h2.01L45,37C45,37,47.84,38.99,48,38.97z"/><path fill="#ba54d9" d="M48,36.95v2.02C47.84,38.99,47.67,39,47.5,39c-2.48,0-4.5-2.02-4.5-4.5c0-0.17,0.01-0.34,0.03-0.5	h2.02C45.02,34.16,46,36,46,36L48,36.95z"/><path fill="#c767e5" d="M48,35v1.951c-1.768,0.343-3.295-1.183-2.951-2.951H47C47.552,34,48,34.448,48,35z"/></svg>