<svg xmlns="http://www.w3.org/2000/svg" viewBox="0 0 48 48"><path fill="#50e6ff" d="M5,19h38v20H5V19z"/><path fill="#35c1f1" d="M5,39h38v1c0,1.105-0.895,2-2,2H7c-1.105,0-2-0.895-2-2V39z"/><linearGradient id="SIHrT3be0NXAEujKTOOWfa" x1="23" x2="25" y1="32.5" y2="32.5" gradientUnits="userSpaceOnUse"><stop offset="0" stop-color="#3079d6"/><stop offset="1" stop-color="#297cd2"/></linearGradient><path fill="url(#SIHrT3be0NXAEujKTOOWfa)" d="M23,26h2v13h-2V26z"/><path fill="#0078d4" d="M41,6H7C5.9,6,5,6.9,5,8v2h38V8C43,6.9,42.1,6,41,6z"/><path fill="#0078d4" d="M42,16H6l-3,3v1c0,1.105,0.895,2,2,2h38c1.105,0,2-0.895,2-2v-1L42,16z"/><polygon fill="#199be2" points="43,10 5,10 3,19 45,19"/><linearGradient id="SIHrT3be0NXAEujKTOOWfb" x1="23" x2="25" y1="40.5" y2="40.5" gradientUnits="userSpaceOnUse"><stop offset="0" stop-color="#1d59b3"/><stop offset="1" stop-color="#195bbc"/></linearGradient><rect width="2" height="3" x="23" y="39" fill="url(#SIHrT3be0NXAEujKTOOWfb)"/><path fill="#199be2" d="M25,26h10c0.552,0,1,0.448,1,1v12H25V26z"/><rect width="11" height="3" x="25" y="39" fill="#0078d4"/><path fill="#199be2" d="M13,26h10v13H12V27C12,26.448,12.448,26,13,26z"/><rect width="11" height="3" x="12" y="39" fill="#0078d4"/><circle cx="28" cy="35" r="1" fill="#0078d4"/><circle cx="20" cy="35" r="1" fill="#0078d4"/></svg>