<svg xmlns="http://www.w3.org/2000/svg" baseProfile="basic" viewBox="0 0 48 48"><path d="M35.406,28.281L22.797,40.891c-0.259,0.259-0.679,0.259-0.938,0L9.25,28.281c-0.259-0.259-0.259-0.679,0-0.938	l12.609-12.609c0.259-0.259,0.679-0.259,0.938,0l12.609,12.609C35.665,27.603,35.665,28.022,35.406,28.281z"/><linearGradient id="gz9GHKndcsM8d-BuC8rVYa" x1="21.016" x2="21.016" y1="14.152" y2="40.724" gradientUnits="userSpaceOnUse"><stop offset="0" stop-color="#ffd747"/><stop offset=".365" stop-color="#ffd645"/><stop offset=".594" stop-color="#fed43e"/><stop offset=".779" stop-color="#fccf33"/><stop offset=".879" stop-color="#fac922"/><stop offset=".964" stop-color="#f7c10c"/><stop offset="1" stop-color="#f5bc00"/></linearGradient><path fill="url(#gz9GHKndcsM8d-BuC8rVYa)" d="M34.117,27.883L21.461,40.539c-0.246,0.246-0.645,0.246-0.891,0L7.914,27.883	c-0.246-0.246-0.246-0.645,0-0.891L20.57,14.336c0.246-0.246,0.645-0.246,0.891,0l12.656,12.656	C34.363,27.238,34.363,27.637,34.117,27.883z"/><path d="M45.962,20.274l-0.863,4.954l-2.102-0.103l0.317-5L45.962,20.274z M42.392,26.737l1.619-1.261l1.262,1.619l-1.619,1.261	L42.392,26.737z"/><path d="M2.854,30.451c0.061-0.814,0.061-4.099,0.061-4.468v-2.041c0-0.246-0.031-3.945-0.061-4.39c1.258,0,5.111-0.169,6.722-0.23	l0.062,2.533l-3.377,0.077v2.364c0.338,0,1.366-0.092,3.085-0.138l0.046,2.426l-3.131-0.031v1.304c0,0.246,0.015,2.38,0.015,2.595	H2.854z"/><path d="M13.097,28.692c0,0.53,0.042,4.06,0.07,4.27h-3.112c0.056-0.335,0.028-4.759,0.028-5.052v-1.144	c0-0.418-0.028-3.446-0.069-3.712c1.912,0,3.851,0.028,5.106,0.195c2.065,0.265,3.182,1.075,3.182,2.358	c0,1.144-0.712,2.023-1.8,2.79c0.419,0.475,2.554,2.638,2.917,3.084l-2.554,1.926c-0.321-0.53-3.028-4.451-3.405-5.065	c0.614-0.363,1.605-1.13,1.605-2.065c0-0.656-0.461-1.284-1.968-1.298V28.692z"/><path d="M26.978,32.962c0.028-0.363,0.042-2.344,0.042-3.865V25.44c-0.67,0-2.651,0.07-3.084,0.084v-2.442	c0.628,0.056,3.935,0.111,4.089,0.111h1.214c0.266,0,3.308-0.056,3.991-0.111v2.442c-0.265-0.014-2.847-0.084-3.07-0.084v3.879	c0,1.437,0.014,3.363,0.042,3.642H26.978z"/><path d="M33.13,19.58c0.628,0.084,7.759,0.307,8.415,0.349l0.055,0.14c-0.348,0.642-4.339,7.131-4.507,7.382	c0.824,0,3.935-0.042,4.326-0.098l-0.056,2.54c-0.349,0-8.163-0.14-8.777-0.14l-0.07-0.139c0.642-0.991,4.312-6.963,4.619-7.466	c-0.474,0-3.656-0.125-4.061-0.125L33.13,19.58z"/><path d="M20.162,22.447c0.628-0.093,1.325-0.186,1.837-0.279l-0.372-1.898h1.751c-0.014,0.251-0.055,2.512-0.055,4.186v1.507	c0,1.396,0.041,3.893,0.055,4.214H20.14c0.028-0.614,0.042-3.879,0.042-4.242v-1.507C20.182,24.312,20.172,23.394,20.162,22.447z"/><linearGradient id="gz9GHKndcsM8d-BuC8rVYb" x1="5.325" x2="5.325" y1="29.223" y2="18.094" gradientUnits="userSpaceOnUse"><stop offset="0" stop-color="#f73100"/><stop offset=".13" stop-color="#f7390a"/><stop offset=".349" stop-color="#f7461b"/><stop offset=".656" stop-color="#f7552d"/><stop offset="1" stop-color="#f7572f"/></linearGradient><path fill="url(#gz9GHKndcsM8d-BuC8rVYb)" d="M8.718,20.626l-0.062-2.532c-1.611,0.061-5.464,0.23-6.723,0.23 c0.031,0.445,0.062,4.144,0.062,4.39v2.042c0,0.369,0,3.653-0.062,4.467h3.423c0-0.215-0.015-2.349-0.015-2.594v-1.305l3.132,0.031 l-0.046-2.425c-1.719,0.046-2.747,0.138-3.085,0.138v-2.364L8.718,20.626z"/><linearGradient id="gz9GHKndcsM8d-BuC8rVYc" x1="13.88" x2="13.88" y1="32.292" y2="21.938" gradientUnits="userSpaceOnUse"><stop offset="0" stop-color="#f73100"/><stop offset=".13" stop-color="#f7390a"/><stop offset=".349" stop-color="#f7461b"/><stop offset=".656" stop-color="#f7552d"/><stop offset="1" stop-color="#f7572f"/></linearGradient><path fill="url(#gz9GHKndcsM8d-BuC8rVYc)" d="M17.465,24.492c0-1.284-1.116-2.093-3.181-2.358c-1.256-0.168-3.195-0.196-5.107-0.196 c0.041,0.265,0.069,3.293,0.069,3.712v1.144c0,0.293,0.028,4.716-0.028,5.051h3.112c-0.028-0.209-0.07-3.74-0.07-4.27v-3.712 c1.507,0.015,1.967,0.642,1.967,1.298c0,0.935-0.99,1.703-1.604,2.065c0.377,0.613,3.084,4.535,3.404,5.065l2.554-1.926 c-0.363-0.446-2.498-2.609-2.917-3.083C16.754,26.516,17.465,25.636,17.465,24.492z"/><linearGradient id="gz9GHKndcsM8d-BuC8rVYd" x1="27.746" x2="27.746" y1="31.846" y2="21.966" gradientUnits="userSpaceOnUse"><stop offset="0" stop-color="#f73100"/><stop offset=".13" stop-color="#f7390a"/><stop offset=".349" stop-color="#f7461b"/><stop offset=".656" stop-color="#f7552d"/><stop offset="1" stop-color="#f7572f"/></linearGradient><path fill="url(#gz9GHKndcsM8d-BuC8rVYd)" d="M29.323,24.325c0.223,0,2.805,0.07,3.07,0.084v-2.443c-0.683,0.056-3.726,0.112-3.991,0.112 h-1.213c-0.154,0-3.461-0.056-4.09-0.112v2.443c0.433-0.014,2.414-0.084,3.085-0.084v3.656c0,1.521-0.015,3.503-0.043,3.865h3.224 c-0.028-0.279-0.042-2.205-0.042-3.643V24.325z"/><linearGradient id="gz9GHKndcsM8d-BuC8rVYe" x1="36.221" x2="36.221" y1="28.776" y2="18.464" gradientUnits="userSpaceOnUse"><stop offset="0" stop-color="#f73100"/><stop offset=".13" stop-color="#f7390a"/><stop offset=".349" stop-color="#f7461b"/><stop offset=".656" stop-color="#f7552d"/><stop offset="1" stop-color="#f7572f"/></linearGradient><path fill="url(#gz9GHKndcsM8d-BuC8rVYe)" d="M40.708,18.813c-0.656-0.042-7.787-0.265-8.415-0.349l-0.056,2.442 c0.404,0,3.586,0.125,4.061,0.125c-0.307,0.502-3.977,6.475-4.619,7.466l0.07,0.139c0.614,0,8.429,0.14,8.778,0.14l0.055-2.54 c-0.39,0.055-3.502,0.098-4.325,0.098c0.167-0.252,4.159-6.74,4.508-7.382L40.708,18.813z"/><linearGradient id="gz9GHKndcsM8d-BuC8rVYf" x1="20.91" x2="20.91" y1="29.055" y2="19.148" gradientUnits="userSpaceOnUse"><stop offset="0" stop-color="#f73100"/><stop offset=".13" stop-color="#f7390a"/><stop offset=".349" stop-color="#f7461b"/><stop offset=".656" stop-color="#f7552d"/><stop offset="1" stop-color="#f7572f"/></linearGradient><path fill="url(#gz9GHKndcsM8d-BuC8rVYf)" d="M22.529,19.148h-1.751l0.372,1.898c-0.511,0.093-1.21,0.185-1.837,0.279 c0.01,0.946,0.021,1.864,0.021,1.981v1.507c0,0.363-0.014,3.628-0.042,4.242h3.238c-0.014-0.321-0.056-2.818-0.056-4.214v-1.507 C22.473,21.659,22.515,19.399,22.529,19.148z"/><linearGradient id="gz9GHKndcsM8d-BuC8rVYg" x1="43.363" x2="43.363" y1="24.739" y2="19.637" gradientUnits="userSpaceOnUse"><stop offset="0" stop-color="#f73100"/><stop offset=".13" stop-color="#f7390a"/><stop offset=".349" stop-color="#f7461b"/><stop offset=".656" stop-color="#f7552d"/><stop offset="1" stop-color="#f7572f"/></linearGradient><polygon fill="url(#gz9GHKndcsM8d-BuC8rVYg)" points="44.846,19.785 42.198,19.637 41.881,24.636 43.983,24.739"/><linearGradient id="gz9GHKndcsM8d-BuC8rVYh" x1="42.716" x2="42.716" y1="27.867" y2="24.987" gradientUnits="userSpaceOnUse"><stop offset="0" stop-color="#f73100"/><stop offset=".13" stop-color="#f7390a"/><stop offset=".349" stop-color="#f7461b"/><stop offset=".656" stop-color="#f7552d"/><stop offset="1" stop-color="#f7572f"/></linearGradient><polygon fill="url(#gz9GHKndcsM8d-BuC8rVYh)" points="41.276,26.248 42.537,27.867 44.157,26.606 42.895,24.987"/></svg>