<svg xmlns="http://www.w3.org/2000/svg" viewBox="0 0 48 48"><linearGradient id="RgVdRFq7rWOvo2fA8gGzCa" x1="8.05" x2="39.95" y1="39.95" y2="8.05" gradientUnits="userSpaceOnUse"><stop offset="0" stop-color="#d523d3"/><stop offset=".132" stop-color="#bc43da"/><stop offset=".44" stop-color="#8588ea"/><stop offset=".698" stop-color="#5dbbf5"/><stop offset=".892" stop-color="#44dafc"/><stop offset="1" stop-color="#3be6ff"/></linearGradient><path fill="url(#RgVdRFq7rWOvo2fA8gGzCa)" d="M35,6H13c-3.866,0-7,3.134-7,7v22c0,3.866,3.134,7,7,7h22c3.866,0,7-3.134,7-7V13 C42,9.134,38.866,6,35,6z"/><path fill="#fff" d="M25,26c-2.757,0-5-2.243-5-5s2.243-5,5-5s5,2.243,5,5S27.757,26,25,26z M25,18c-1.654,0-3,1.346-3,3 s1.346,3,3,3s3-1.346,3-3S26.654,18,25,18z"/><path fill="#fff" d="M25,30c-4.963,0-9-4.038-9-9s4.037-9,9-9s9,4.038,9,9S29.963,30,25,30z M25,14c-3.859,0-7,3.14-7,7 s3.141,7,7,7s7-3.14,7-7S28.859,14,25,14z"/><path fill="#fff" d="M19,36c-1.654,0-3-1.346-3-3V21h2v12c0,0.551,0.448,1,1,1s1-0.449,1-1v-5h2v5 C22,34.654,20.654,36,19,36z"/></svg>