<svg xmlns="http://www.w3.org/2000/svg" xmlns:xlink="http://www.w3.org/1999/xlink" data-name="Слой 1" viewBox="0 0 48 48"><defs><linearGradient id="utAEUQz5wQFi4D9uieedrb" x1="24" x2="24" y1="13.52" y2="46.926" data-name="Безымянный градиент 216" gradientUnits="userSpaceOnUse"><stop offset="0" stop-color="#b9360c"/><stop offset=".537" stop-color="#b5350c"/><stop offset=".999" stop-color="#ab320b"/></linearGradient><linearGradient id="utAEUQz5wQFi4D9uieedra" x1="12.663" x2="20.643" y1="25.76" y2="47.685" data-name="Безымянный градиент 129" gradientUnits="userSpaceOnUse"><stop offset="0" stop-color="#ffd869"/><stop offset="1" stop-color="#fec52b"/></linearGradient><linearGradient id="utAEUQz5wQFi4D9uieedrc" x1="28.897" x2="36.877" y1="20.937" y2="42.862" xlink:href="#utAEUQz5wQFi4D9uieedra"/><linearGradient id="utAEUQz5wQFi4D9uieedrd" x1="22.5" x2="22.5" y1="10.5" y2="18.654" data-name="Безымянный градиент 121" gradientUnits="userSpaceOnUse"><stop offset="0" stop-color="#f44f5a"/><stop offset=".443" stop-color="#ee3d4a"/><stop offset="1" stop-color="#e52030"/></linearGradient></defs><path fill="url(#utAEUQz5wQFi4D9uieedrb)" d="M45,19V40.16A1.93072,1.93072,0,0,1,43,42H5a1.93072,1.93072,0,0,1-2-1.84V19Z"/><path d="M20.89,30.05a1.52152,1.52152,0,0,0-.33-1.67l-5.11-4.79A2.04256,2.04256,0,0,0,14.01,23a2.06465,2.06465,0,0,0-1.47.61L7.48,28.35a1.55128,1.55128,0,0,0-.35,1.7A1.52311,1.52311,0,0,0,8.55,31h2.74a30.27068,30.27068,0,0,0,1.32,3.55c.99,2.4,2.12,5.12,2.12,7.45h1c0-2.53-1.17-5.35-2.19995-7.83A22.486,22.486,0,0,1,12.08,30H8.55a.53853.53853,0,0,1-.38-.92l5.08-4.77a1.05785,1.05785,0,0,1,.76-.31,1.07455,1.07455,0,0,1,.76.31l5.08,4.77a.53851.53851,0,0,1-.38.92H16.2c.25.75.65,1.73,1.03,2.64,1.11,2.69,2.5,6.03,2.5,9.36h1c0-3.53-1.43-6.98-2.58-9.75-.17-.4-.35-.83-.51-1.25h1.83A1.52316,1.52316,0,0,0,20.89,30.05Z" opacity=".05"/><path d="M20.21,28.73l-5.1-4.78A1.56934,1.56934,0,0,0,12.9,23.96L7.83,28.72a1.034,1.034,0,0,0,.72,1.78h3.13a26.34581,26.34581,0,0,0,1.39,3.86c1.01,2.44,2.16,5.21,2.16,7.64h.5c0-2.53-1.17-5.35-2.19995-7.83A22.486,22.486,0,0,1,12.08,30H8.55a.53853.53853,0,0,1-.38-.92l5.08-4.77a1.05785,1.05785,0,0,1,.76-.31,1.07455,1.07455,0,0,1,.76.31l5.08,4.77a.53851.53851,0,0,1-.38.92H16.2c.25.75.65,1.73,1.03,2.64,1.11,2.69,2.5,6.03,2.5,9.36h.5c0-3.43-1.41-6.83-2.54-9.56-.26-.63-.55-1.32-.78-1.94h2.56a1.03452,1.03452,0,0,0,.96-.64A1.04865,1.04865,0,0,0,20.21,28.73Z" opacity=".07"/><path fill="url(#utAEUQz5wQFi4D9uieedra)" d="M19.85248,29.08313l-5.08417-4.76855a1.07425,1.07425,0,0,0-1.5191,0l-5.082,4.76855A.53707.53707,0,0,0,8.54694,30h3.53729a22.28523,22.28523,0,0,0,1.448,4.169c1.03125,2.48437,2.20019,5.30078,2.20019,7.831h4c0-3.32715-1.38916-6.6748-2.50537-9.36426-.375-.90375-.77966-1.88122-1.0227-2.63574h3.26837A.53709.53709,0,0,0,19.85248,29.08313Z"/><path d="M38.88,30.05a1.5215,1.5215,0,0,0-.33-1.67l-5.11-4.79A2.04256,2.04256,0,0,0,32,23a2.06441,2.06441,0,0,0-1.47.61L25.47,28.35a1.55126,1.55126,0,0,0-.35,1.7,1.51311,1.51311,0,0,0,1.42.95h2.75a30.27068,30.27068,0,0,0,1.32,3.55c.99,2.4,2.12,5.12,2.12,7.45h1c0-2.53-1.17-5.35-2.19995-7.83A22.486,22.486,0,0,1,30.08,30H26.54a.53853.53853,0,0,1-.38-.92l5.08-4.77A1.05785,1.05785,0,0,1,32,24a1.07455,1.07455,0,0,1,.76.31l5.08,4.77a.53853.53853,0,0,1-.38.92H34.2c.25.75.65,1.73,1.03,2.64,1.11005,2.69,2.5,6.03,2.5,9.36h1c0-3.53-1.43-6.98-2.58-9.75-.17-.4-.35-.83-.51-1.25h1.82A1.52308,1.52308,0,0,0,38.88,30.05Z" opacity=".05"/><path d="M38.2,28.73l-5.1-4.78A1.54162,1.54162,0,0,0,32,23.5a1.573,1.573,0,0,0-1.12.46l-5.07,4.76a1.05335,1.05335,0,0,0-.23,1.14,1.0345,1.0345,0,0,0,.96.64h3.14a26.34581,26.34581,0,0,0,1.39,3.86c1.01,2.44,2.16,5.21,2.16,7.64h.5c0-2.53-1.17-5.35-2.19995-7.83A22.486,22.486,0,0,1,30.08,30H26.54a.53853.53853,0,0,1-.38-.92l5.08-4.77A1.05785,1.05785,0,0,1,32,24a1.07455,1.07455,0,0,1,.76.31l5.08,4.77a.53853.53853,0,0,1-.38.92H34.2c.25.75.65,1.73,1.03,2.64,1.11005,2.69,2.5,6.03,2.5,9.36h.5c0-3.43-1.41-6.83-2.54-9.56-.26-.63-.55-1.32-.78-1.94h2.55a1.0345,1.0345,0,0,0,.96-.64A1.04865,1.04865,0,0,0,38.2,28.73Z" opacity=".07"/><path fill="url(#utAEUQz5wQFi4D9uieedrc)" d="M37.84161,29.08313l-5.08416-4.76855a1.07426,1.07426,0,0,0-1.51911,0l-5.082,4.76855A.53708.53708,0,0,0,26.53607,30h3.54816a22.28523,22.28523,0,0,0,1.448,4.169c1.03125,2.48437,2.20019,5.30078,2.20019,7.831h4c0-3.32715-1.38916-6.6748-2.50537-9.36426-.375-.90375-.77966-1.88122-1.0227-2.63574h3.2575A.5371.5371,0,0,0,37.84161,29.08313Z"/><path fill="url(#utAEUQz5wQFi4D9uieedrd)" d="M17,12H29a0,0,0,0,1,0,0v7a0,0,0,0,1,0,0H16a0,0,0,0,1,0,0V13A1,1,0,0,1,17,12Z"/><path fill="#b31523" d="M32,19H28l.96179-11.54152A.5.5,0,0,1,29.46007,7h1.07986a.5.5,0,0,1,.49828.45848Z"/><rect width="3" height="3" x="18" y="14" fill="#b31523"/><rect width="3" height="3" x="23" y="14" fill="#b31523"/></svg>