<svg xmlns="http://www.w3.org/2000/svg" viewBox="0 0 48 48"><linearGradient id="Gz~ZYVxUrNNLaTVE3hsSqa" x1="10" x2="38" y1="39.5" y2="39.5" gradientUnits="userSpaceOnUse"><stop offset="0" stop-color="#33bef0"/><stop offset="1" stop-color="#22a5e2"/></linearGradient><ellipse cx="24" cy="39.5" fill="url(#Gz~ZYVxUrNNLaTVE3hsSqa)" rx="14" ry="4.5"/><linearGradient id="Gz~ZYVxUrNNLaTVE3hsSqb" x1="22.651" x2="25.348" y1="2.284" y2="9.715" gradientUnits="userSpaceOnUse"><stop offset="0" stop-color="#ffcf54"/><stop offset=".261" stop-color="#fdcb4d"/><stop offset=".639" stop-color="#f7c13a"/><stop offset="1" stop-color="#f0b421"/></linearGradient><path fill="url(#Gz~ZYVxUrNNLaTVE3hsSqb)" d="M24,10c-2.2,0-4-1.8-4-4s1.8-4,4-4s4,1.8,4,4S26.2,10,24,10"/><path fill="#0d61a9" d="M19,25l0.941,15.062C19.974,40.589,20.411,41,20.939,41h6.121c0.528,0,0.965-0.411,0.998-0.938L29,25	H19z"/><linearGradient id="Gz~ZYVxUrNNLaTVE3hsSqc" x1="22.591" x2="24.472" y1="12.075" y2="22.01" gradientUnits="userSpaceOnUse"><stop offset="0" stop-color="#32bdef"/><stop offset="1" stop-color="#1ea2e4"/></linearGradient><path fill="url(#Gz~ZYVxUrNNLaTVE3hsSqc)" d="M16,21v-2.333C16,14.991,18.991,12,22.667,12h2.667C29.009,12,32,14.991,32,18.667V21H16z"/><linearGradient id="Gz~ZYVxUrNNLaTVE3hsSqd" x1="22.474" x2="25.356" y1="12.25" y2="27.471" gradientUnits="userSpaceOnUse"><stop offset="0" stop-color="#32bdef"/><stop offset="1" stop-color="#1ea2e4"/></linearGradient><path fill="url(#Gz~ZYVxUrNNLaTVE3hsSqd)" d="M25,12h-2c-2.209,0-4,1.791-4,4v9h10v-9C29,13.791,27.209,12,25,12z"/><linearGradient id="Gz~ZYVxUrNNLaTVE3hsSqe" x1="29.23" x2="32.904" y1="20.589" y2="28.753" gradientUnits="userSpaceOnUse"><stop offset="0" stop-color="#ffcf54"/><stop offset=".261" stop-color="#fdcb4d"/><stop offset=".639" stop-color="#f7c13a"/><stop offset="1" stop-color="#f0b421"/></linearGradient><path fill="url(#Gz~ZYVxUrNNLaTVE3hsSqe)" d="M32,19h-3c0,0,0,8.221,0,8.5c0,0.828,0.672,1.5,1.5,1.5s1.5-0.672,1.5-1.5	C32,27.221,32,31.279,32,19z"/><linearGradient id="Gz~ZYVxUrNNLaTVE3hsSqf" x1="16.23" x2="19.904" y1="20.589" y2="28.753" gradientUnits="userSpaceOnUse"><stop offset="0" stop-color="#ffcf54"/><stop offset=".261" stop-color="#fdcb4d"/><stop offset=".639" stop-color="#f7c13a"/><stop offset="1" stop-color="#f0b421"/></linearGradient><path fill="url(#Gz~ZYVxUrNNLaTVE3hsSqf)" d="M19,19h-3c0,0,0,8.221,0,8.5c0,0.828,0.672,1.5,1.5,1.5s1.5-0.672,1.5-1.5	C19,27.221,19,31.279,19,19z"/></svg>