<svg xmlns="http://www.w3.org/2000/svg" viewBox="0 0 48 48"><path fill="#64717c" d="M29,14h-7c-0.552,0-1-0.448-1-1s0.448-1,1-1h6V6c0-0.552,0.447-1,1-1s1,0.448,1,1v7 C30,13.552,29.553,14,29,14z"/><path fill="#64717c" d="M32,27c-0.553,0-1-0.447-1-1V15c0-0.551-0.448-1-1-1h-2c-0.553,0-1-0.448-1-1s0.447-1,1-1h2 c1.654,0,3,1.346,3,3v11C33,26.553,32.553,27,32,27z"/><path fill="#64717c" d="M27,24h-4c-0.552,0-1-0.448-1-1s0.448-1,1-1h3v-4c0-0.552,0.447-1,1-1s1,0.448,1,1v5 C28,23.552,27.553,24,27,24z"/><path fill="#64717c" d="M28,41c-0.553,0-1-0.447-1-1v-3c0-0.552-0.448-1-1-1h-5c-0.552,0-1-0.447-1-1s0.448-1,1-1h5 c1.654,0,3,1.346,3,3v3C29,40.553,28.553,41,28,41z"/><path fill="#64717c" d="M35,32h-6c-1.654,0-3-1.346-3-3v-6c0-0.552,0.447-1,1-1s1,0.448,1,1v6c0,0.552,0.448,1,1,1h6 c0.552,0,1-0.448,1-1v-5c0-1.654,1.346-3,3-3h1c0.553,0,1,0.448,1,1s-0.447,1-1,1h-1c-0.552,0-1,0.449-1,1v5 C38,30.654,36.654,32,35,32z"/><linearGradient id="k2YFeuzVMIW77swZK4mMia" x1="26.586" x2="29.414" y1="8.414" y2="5.586" gradientTransform="matrix(1 0 0 -1 0 48)" gradientUnits="userSpaceOnUse"><stop offset="0" stop-color="#4fe5ff"/><stop offset="1" stop-color="#2eb7ed"/></linearGradient><path fill="url(#k2YFeuzVMIW77swZK4mMia)" d="M28,39c1.104,0,2,0.896,2,2s-0.896,2-2,2s-2-0.896-2-2S26.896,39,28,39"/><linearGradient id="k2YFeuzVMIW77swZK4mMib" x1="39.586" x2="42.414" y1="27.414" y2="24.586" gradientTransform="matrix(1 0 0 -1 0 48)" gradientUnits="userSpaceOnUse"><stop offset="0" stop-color="#4fe5ff"/><stop offset="1" stop-color="#2eb7ed"/></linearGradient><path fill="url(#k2YFeuzVMIW77swZK4mMib)" d="M41,24c1.104,0,2-0.896,2-2s-0.896-2-2-2s-2,0.896-2,2S39.896,24,41,24"/><linearGradient id="k2YFeuzVMIW77swZK4mMic" x1="30.586" x2="33.414" y1="23.414" y2="20.586" gradientTransform="matrix(1 0 0 -1 0 48)" gradientUnits="userSpaceOnUse"><stop offset="0" stop-color="#4fe5ff"/><stop offset="1" stop-color="#2eb7ed"/></linearGradient><path fill="url(#k2YFeuzVMIW77swZK4mMic)" d="M32,28c1.104,0,2-0.896,2-2s-0.896-2-2-2s-2,0.896-2,2S30.896,28,32,28"/><linearGradient id="k2YFeuzVMIW77swZK4mMid" x1="25.586" x2="28.414" y1="31.414" y2="28.586" gradientTransform="matrix(1 0 0 -1 0 48)" gradientUnits="userSpaceOnUse"><stop offset="0" stop-color="#4fe5ff"/><stop offset="1" stop-color="#2eb7ed"/></linearGradient><path fill="url(#k2YFeuzVMIW77swZK4mMid)" d="M27,20c1.104,0,2-0.896,2-2s-0.896-2-2-2s-2,0.896-2,2S25.896,20,27,20"/><linearGradient id="k2YFeuzVMIW77swZK4mMie" x1="27.586" x2="30.414" y1="42.414" y2="39.586" gradientTransform="matrix(1 0 0 -1 0 48)" gradientUnits="userSpaceOnUse"><stop offset="0" stop-color="#4fe5ff"/><stop offset="1" stop-color="#2eb7ed"/></linearGradient><path fill="url(#k2YFeuzVMIW77swZK4mMie)" d="M29,9c1.104,0,2-0.896,2-2s-0.896-2-2-2s-2,0.896-2,2S27.896,9,29,9"/><path fill="#64717c" d="M37,37h-3c-1.654,0-3-1.346-3-3v-3c0-0.553,0.447-1,1-1s1,0.447,1,1v3c0,0.552,0.448,1,1,1h3 c0.553,0,1,0.447,1,1S37.553,37,37,37z"/><linearGradient id="k2YFeuzVMIW77swZK4mMif" x1="35.586" x2="38.414" y1="13.414" y2="10.586" gradientTransform="matrix(1 0 0 -1 0 48)" gradientUnits="userSpaceOnUse"><stop offset="0" stop-color="#4fe5ff"/><stop offset="1" stop-color="#2eb7ed"/></linearGradient><path fill="url(#k2YFeuzVMIW77swZK4mMif)" d="M37,34c1.104,0,2,0.896,2,2s-0.896,2-2,2s-2-0.896-2-2S35.896,34,37,34"/><path fill="#64717c" d="M37,18h-5c-0.553,0-1-0.448-1-1s0.447-1,1-1h5c0.553,0,1,0.448,1,1S37.553,18,37,18z"/><linearGradient id="k2YFeuzVMIW77swZK4mMig" x1="35.586" x2="38.414" y1="32.414" y2="29.586" gradientTransform="matrix(1 0 0 -1 0 48)" gradientUnits="userSpaceOnUse"><stop offset="0" stop-color="#4fe5ff"/><stop offset="1" stop-color="#2eb7ed"/></linearGradient><path fill="url(#k2YFeuzVMIW77swZK4mMig)" d="M37,15c1.104,0,2,0.896,2,2s-0.896,2-2,2s-2-0.896-2-2S35.896,15,37,15"/><linearGradient id="k2YFeuzVMIW77swZK4mMih" x1="11.05" x2="23.315" y1="247.244" y2="208.066" gradientTransform="matrix(1 0 0 -1 0 254)" gradientUnits="userSpaceOnUse"><stop offset="0" stop-color="#ffa1a6"/><stop offset="1" stop-color="#f24472"/></linearGradient><path fill="url(#k2YFeuzVMIW77swZK4mMih)" d="M24,9.75C24,7.127,21.873,5,19.25,5c-2.413,0-4.384,1.806-4.688,4.136	C10.831,9.814,8,13.073,8,17c0,0.279,0.015,0.554,0.042,0.826C6.169,19.643,5,22.183,5,25c0,2.821,1.173,5.365,3.052,7.183	C8.02,32.451,8,32.723,8,33c0,3.665,2.819,6.668,6.406,6.97C15.171,41.751,16.939,43,19,43c2.761,0,5-2.239,5-5	C24,37.617,24,10.438,24,9.75z"/><linearGradient id="k2YFeuzVMIW77swZK4mMii" x1="14.806" x2="29.064" y1="246.969" y2="211.253" gradientTransform="matrix(1 0 0 -1 0 254)" gradientUnits="userSpaceOnUse"><stop offset="0" stop-color="#ff6181"/><stop offset="1" stop-color="#c41f40"/></linearGradient><path fill="url(#k2YFeuzVMIW77swZK4mMii)" d="M17.123,19h0.002c0.471,0,0.856-0.338,0.969-0.795c0.28-1.134,1.154-1.851,2.12-2.103	c0.453-0.119,0.786-0.5,0.786-0.968v-0.258c0-0.471-0.338-0.856-0.795-0.969c-1.134-0.28-1.851-1.154-2.103-2.12	C17.983,11.333,17.602,11,17.134,11h-0.011c-0.655,0-1.129,0.622-0.967,1.257c0.285,1.121,0.946,2.076,1.839,2.743	c-0.894,0.666-1.554,1.621-1.839,2.743C15.994,18.378,16.468,19,17.123,19z"/><linearGradient id="k2YFeuzVMIW77swZK4mMij" x1="8.959" x2="23.711" y1="244.265" y2="207.313" gradientTransform="matrix(1 0 0 -1 0 254)" gradientUnits="userSpaceOnUse"><stop offset="0" stop-color="#ff6181"/><stop offset="1" stop-color="#c41f40"/></linearGradient><path fill="url(#k2YFeuzVMIW77swZK4mMij)" d="M18.912,24L18.912,24c-0.493,0-0.895,0.367-0.985,0.852c-0.279,1.508-1.307,2.096-2.24,2.138	c-1.059-0.505-2.256-0.829-3.586-0.944C11.513,25.996,11,26.453,11,27.043l0,0c0,0.507,0.38,0.952,0.886,0.989	c2.766,0.204,4.722,1.394,5.832,3.547c0.227,0.439,0.762,0.621,1.223,0.444l0,0c0.562-0.216,0.806-0.881,0.523-1.413	c-0.453-0.851-1.023-1.589-1.693-2.214c1.03-0.602,1.865-1.667,2.136-3.254C20.009,24.543,19.519,24,18.912,24z"/></svg>