<svg xmlns="http://www.w3.org/2000/svg" xmlns:xlink="http://www.w3.org/1999/xlink" data-name="Слой 1" viewBox="0 0 48 48"><defs><radialGradient id="hky9nnbIvxjiU2aWbTMdZa" cx="21.717" cy="5.217" r="10.326" data-name="Безымянный градиент 111" gradientUnits="userSpaceOnUse"><stop offset="0" stop-color="#d43a02"/><stop offset="1" stop-color="#b9360c"/></radialGradient><radialGradient id="hky9nnbIvxjiU2aWbTMdZb" cx="7.283" cy="12.457" r="4.826" xlink:href="#hky9nnbIvxjiU2aWbTMdZa"/><radialGradient id="hky9nnbIvxjiU2aWbTMdZc" cx="39.022" cy="12.897" r="5.458" xlink:href="#hky9nnbIvxjiU2aWbTMdZa"/><linearGradient id="hky9nnbIvxjiU2aWbTMdZd" x1="24" x2="24" y1="10.717" y2="33.89" data-name="Безымянный градиент 107" gradientUnits="userSpaceOnUse"><stop offset="0" stop-color="#eba600"/><stop offset="1" stop-color="#c28200"/></linearGradient><linearGradient id="hky9nnbIvxjiU2aWbTMdZe" x1="17.439" x2="30.561" y1="11.473" y2="47.527" data-name="Безымянный градиент 19" gradientUnits="userSpaceOnUse"><stop offset="0" stop-color="#ffcf54"/><stop offset=".261" stop-color="#fdcb4d"/><stop offset=".639" stop-color="#f7c13a"/><stop offset="1" stop-color="#f0b421"/></linearGradient><linearGradient id="hky9nnbIvxjiU2aWbTMdZf" x1="21.154" x2="25.837" y1="31.649" y2="44.515" data-name="Безымянный градиент 23" xlink:href="#hky9nnbIvxjiU2aWbTMdZa"/></defs><path fill="url(#hky9nnbIvxjiU2aWbTMdZa)" d="M15,12l8.38606-6.79079a1,1,0,0,1,1.22788,0L33,12l-9,1Z"/><path fill="url(#hky9nnbIvxjiU2aWbTMdZb)" d="M5,16l2.64645-2.85269a.5.5,0,0,1,.7071,0L11,16,8,17Z"/><path fill="url(#hky9nnbIvxjiU2aWbTMdZc)" d="M37,16l2.64645-2.85269a.5.5,0,0,1,.7071,0L43,16l-3,1Z"/><rect width="18" height="10" x="15" y="12" fill="url(#hky9nnbIvxjiU2aWbTMdZd)"/><path fill="#c28200" d="M24,14h0a2,2,0,0,1,2,2v6a0,0,0,0,1,0,0H22a0,0,0,0,1,0,0V16A2,2,0,0,1,24,14Z"/><path fill="#c28200" d="M18.5,14h0A1.5,1.5,0,0,1,20,15.5V22a0,0,0,0,1,0,0H17a0,0,0,0,1,0,0V15.5A1.5,1.5,0,0,1,18.5,14Z"/><path fill="#c28200" d="M29.5,14h0A1.5,1.5,0,0,1,31,15.5V22a0,0,0,0,1,0,0H28a0,0,0,0,1,0,0V15.5A1.5,1.5,0,0,1,29.5,14Z"/><polygon fill="url(#hky9nnbIvxjiU2aWbTMdZe)" points="43 16 37 16 37 21 11 21 11 16 5 16 5 43 43 43 43 16"/><path fill="url(#hky9nnbIvxjiU2aWbTMdZf)" d="M24,31h0a6,6,0,0,1,6,6v6a0,0,0,0,1,0,0H18a0,0,0,0,1,0,0V37a6,6,0,0,1,6-6Z"/><path fill="#c28200" d="M8,18H8a1,1,0,0,1,1,1v7a0,0,0,0,1,0,0H7a0,0,0,0,1,0,0V19A1,1,0,0,1,8,18Z"/><path fill="#c28200" d="M40,18h0a1,1,0,0,1,1,1v7a0,0,0,0,1,0,0H39a0,0,0,0,1,0,0V19A1,1,0,0,1,40,18Z"/><path fill="#c28200" d="M29,23h0a1,1,0,0,1,1,1v3a0,0,0,0,1,0,0H28a0,0,0,0,1,0,0V24A1,1,0,0,1,29,23Z"/><path fill="#c28200" d="M24,23h0a1,1,0,0,1,1,1v3a0,0,0,0,1,0,0H23a0,0,0,0,1,0,0V24A1,1,0,0,1,24,23Z"/><path fill="#c28200" d="M19,23h0a1,1,0,0,1,1,1v3a0,0,0,0,1,0,0H18a0,0,0,0,1,0,0V24A1,1,0,0,1,19,23Z"/><rect width="18" height="1" x="15" y="20" opacity=".05"/><rect width="18" height=".5" x="15" y="20.5" opacity=".07"/></svg>