<svg xmlns="http://www.w3.org/2000/svg" viewBox="0 0 48 48"><linearGradient id="Dxf4HfAZk4mM1mNMta77na" x1="6.362" x2="41.172" y1="6.362" y2="41.172" gradientUnits="userSpaceOnUse"><stop offset="0" stop-color="#737be6"/><stop offset="1" stop-color="#4750b3"/></linearGradient><path fill="url(#Dxf4HfAZk4mM1mNMta77na)" d="M43.125,11H4.875C3.287,11,2,12.115,2,13.492v21.017C2,35.885,3.287,37,4.875,37h38.25	C44.713,37,46,35.885,46,34.508V13.492C46,12.115,44.713,11,43.125,11z"/><path d="M38.313,17.749h-1.234c-0.827,0-1.5,0.673-1.5,1.5v3.291l-2.68-4.111	c-0.278-0.426-0.748-0.68-1.256-0.68h-1.778c-0.827,0-1.5,0.673-1.5,1.5v1.038c-0.502-1.302-1.745-2.538-4.658-2.538h-3.206	c-0.559,0-1.048,0.308-1.305,0.763c-0.026-0.046-0.054-0.091-0.085-0.134c-0.281-0.394-0.737-0.629-1.221-0.629h-1.402	c-0.658,0-1.249,0.439-1.437,1.069l-1.358,4.544l-1.361-4.544c-0.192-0.64-0.769-1.069-1.437-1.069H9.417	c-0.482,0-0.938,0.234-1.22,0.627c-0.281,0.394-0.355,0.9-0.2,1.356l3.233,9.502c0.207,0.608,0.777,1.017,1.42,1.017h1.966	c0.64,0,1.21-0.406,1.418-1.011l2.966-8.611v8.122c0,0.827,0.673,1.5,1.5,1.5h1.366c0.827,0,1.5-0.673,1.5-1.5v-2.117h0.128	c1.508,0,2.752-0.41,3.696-1.221c0.536-0.461,0.928-1.001,1.174-1.615v4.953c0,0.827,0.673,1.5,1.5,1.5h1.234	c0.827,0,1.5-0.673,1.5-1.5V25.24l2.843,4.334c0.279,0.424,0.748,0.677,1.254,0.677h1.618c0.827,0,1.5-0.673,1.5-1.5v-9.502	C39.813,18.422,39.14,17.749,38.313,17.749z M23.367,22.838v-1.271c0.82,0.013,0.82,0.268,0.82,0.616	C24.187,22.554,24.187,22.824,23.367,22.838z" opacity=".05"/><path d="M12.651,29.751c-0.428,0-0.809-0.272-0.946-0.678l-3.234-9.502c-0.104-0.305-0.054-0.643,0.133-0.904	c0.188-0.262,0.491-0.418,0.813-0.418h1.479c0.445,0,0.83,0.286,0.958,0.713l1.841,6.145l1.836-6.145	c0.125-0.42,0.52-0.713,0.958-0.713h1.402c0.322,0,0.626,0.156,0.814,0.419s0.236,0.602,0.131,0.906l-3.273,9.503	c-0.139,0.403-0.519,0.674-0.945,0.674H12.651z" opacity=".07"/><path fill="#fff" d="M18.363,19.412l-3.274,9.502c-0.07,0.202-0.259,0.337-0.473,0.337h-1.966	c-0.214,0-0.404-0.136-0.473-0.339L8.944,19.41c-0.11-0.324,0.131-0.661,0.473-0.661h1.478c0.221,0,0.416,0.145,0.479,0.356	l2.083,6.952c0.117,0.396,0.188,0.746,0.212,1.047h0.044c0.034-0.326,0.11-0.686,0.227-1.076l2.069-6.922	c0.063-0.212,0.258-0.357,0.479-0.357h1.402C18.234,18.749,18.475,19.087,18.363,19.412z"/><path d="M20.501,29.751c-0.551,0-1-0.448-1-1v-9.502c0-0.552,0.449-1,1-1h3.206	c3.694,0,4.47,2.091,4.47,3.846c0,1.202-0.442,2.19-1.313,2.939c-0.85,0.729-1.983,1.1-3.37,1.1h-0.628v2.617c0,0.552-0.449,1-1,1	H20.501z M23.297,23.339c1.221,0,1.39-0.556,1.39-1.156c0-0.58-0.168-1.117-1.39-1.117h-0.43v2.273H23.297z" opacity=".07"/><path fill="#fff" d="M22.367,25.634v3.117c0,0.276-0.224,0.5-0.5,0.5h-1.366c-0.276,0-0.5-0.224-0.5-0.5v-9.502	c0-0.276,0.224-0.5,0.5-0.5h3.206c2.646,0,3.97,1.115,3.97,3.346c0,1.055-0.38,1.908-1.139,2.561	c-0.76,0.652-1.774,0.979-3.043,0.979H22.367z M22.367,20.565v3.273h0.93c1.26,0,1.89-0.551,1.89-1.656	c0-1.078-0.63-1.617-1.89-1.617H22.367z"/><path d="M36.696,29.751c-0.338,0-0.65-0.169-0.836-0.451l-3.761-5.733v5.185c0,0.552-0.449,1-1,1h-1.234	c-0.551,0-1-0.448-1-1v-9.502c0-0.552,0.449-1,1-1h1.778c0.339,0,0.653,0.17,0.838,0.453l3.599,5.521v-4.974c0-0.552,0.449-1,1-1	h1.234c0.551,0,1,0.448,1,1v9.502c0,0.552-0.449,1-1,1H36.696z" opacity=".07"/><path fill="#fff" d="M38.313,29.251h-1.618c-0.169,0-0.326-0.085-0.418-0.226l-4.181-6.374	c-0.254-0.385-0.43-0.676-0.527-0.871H31.54c0.039,0.371,0.059,0.938,0.059,1.699v5.271c0,0.276-0.224,0.5-0.5,0.5h-1.234	c-0.276,0-0.5-0.224-0.5-0.5v-9.502c0-0.276,0.224-0.5,0.5-0.5h1.778c0.169,0,0.327,0.085,0.419,0.227l4.02,6.166	c0.19,0.289,0.366,0.574,0.527,0.857h0.029c-0.039-0.244-0.059-0.725-0.059-1.443v-5.307c0-0.276,0.224-0.5,0.5-0.5h1.234	c0.276,0,0.5,0.224,0.5,0.5v9.502C38.813,29.027,38.589,29.251,38.313,29.251z"/></svg>