<svg xmlns="http://www.w3.org/2000/svg" viewBox="0 0 48 48"><path fill="#ccc" d="M5,19h38v19H5V19z"/><path fill="#999" d="M5,38h38v2c0,1.105-0.895,2-2,2H7c-1.105,0-2-0.895-2-2V38z"/><linearGradient id="XIYuQ7ghe_fN78r1BfDC0a" x1="27" x2="38" y1="31.5" y2="31.5" gradientUnits="userSpaceOnUse"><stop offset="0" stop-color="#3079d6"/><stop offset="1" stop-color="#297cd2"/></linearGradient><path fill="url(#XIYuQ7ghe_fN78r1BfDC0a)" d="M27,25h11v13H27V25z"/><linearGradient id="XIYuQ7ghe_fN78r1BfDC0b" x1="10" x2="22" y1="29.5" y2="29.5" gradientUnits="userSpaceOnUse"><stop offset="0" stop-color="#3079d6"/><stop offset="1" stop-color="#297cd2"/></linearGradient><path fill="url(#XIYuQ7ghe_fN78r1BfDC0b)" d="M10,25h12v9H10V25z"/><path fill="#bf2336" d="M41,6H7C5.9,6,5,6.9,5,8v2h38V8C43,6.9,42.1,6,41,6z"/><path fill="#bf2336" d="M42,16H6l-3,3v1c0,1.105,0.895,2,2,2h38c1.105,0,2-0.895,2-2v-1L42,16z"/><polygon fill="#c94f60" points="43,10 5,10 3,19 45,19"/><linearGradient id="XIYuQ7ghe_fN78r1BfDC0c" x1="27" x2="38" y1="40" y2="40" gradientUnits="userSpaceOnUse"><stop offset="0" stop-color="#1d59b3"/><stop offset="1" stop-color="#195bbc"/></linearGradient><rect width="11" height="4" x="27" y="38" fill="url(#XIYuQ7ghe_fN78r1BfDC0c)"/></svg>