<svg xmlns="http://www.w3.org/2000/svg" xmlns:xlink="http://www.w3.org/1999/xlink" data-name="Слой 1" viewBox="0 0 48 48"><defs><linearGradient id="ycLYacUGRhYqxOfP1foPOb" x1="24" x2="24" y1="557.216" y2="532.1" data-name="Безымянный градиент 58" gradientTransform="matrix(1 0 0 -1 0 572)" gradientUnits="userSpaceOnUse"><stop offset=".9" stop-color="#6d7882"/><stop offset=".917" stop-color="#45494d"/></linearGradient><linearGradient id="ycLYacUGRhYqxOfP1foPOc" x1="37.325" x2="38.813" y1="550.674" y2="549.187" data-name="Безымянный градиент 57" gradientTransform="matrix(1 0 0 -1 0 572)" gradientUnits="userSpaceOnUse"><stop offset="0" stop-color="#32bdef"/><stop offset="1" stop-color="#1ea2e4"/></linearGradient><linearGradient id="ycLYacUGRhYqxOfP1foPOa" x1="24" x2="24" y1="8.008" y2="12.028" data-name="Безымянный градиент 59" gradientUnits="userSpaceOnUse"><stop offset="0" stop-color="#c965eb"/><stop offset="1" stop-color="#c767e5"/></linearGradient><linearGradient id="ycLYacUGRhYqxOfP1foPOd" y1=".019" y2="10.07" xlink:href="#ycLYacUGRhYqxOfP1foPOa"/></defs><path fill="url(#ycLYacUGRhYqxOfP1foPOb)" d="M42,40H6a2.00588,2.00588,0,0,1-2-2V17a2.00588,2.00588,0,0,1,2-2H42a2.00588,2.00588,0,0,1,2,2V38A2.00588,2.00588,0,0,1,42,40Z"/><path fill="#252525" d="M38.5,33H9.5A1.50055,1.50055,0,0,1,8,31.5H8A1.50055,1.50055,0,0,1,9.5,30h29A1.50055,1.50055,0,0,1,40,31.5h0A1.50055,1.50055,0,0,1,38.5,33Z"/><path fill="#50e6ff" d="M35,43H13a1.99945,1.99945,0,0,1-2-2V32H37v9A1.99945,1.99945,0,0,1,35,43Z"/><path fill="#0076d7" d="M40,15H8V11a1.00036,1.00036,0,0,1,1-1H39a1.00036,1.00036,0,0,1,1,1Z"/><path fill="#50e6ff" d="M13,5H35a1.99945,1.99945,0,0,1,2,2v8H11V7A1.99945,1.99945,0,0,1,13,5Z"/><rect width="26" height="2" x="11" y="30" fill="#199ae0"/><circle cx="37.958" cy="22.024" r="2" fill="#eef2f3"/><circle cx="38" cy="22" r="1" fill="url(#ycLYacUGRhYqxOfP1foPOc)"/><path fill="url(#ycLYacUGRhYqxOfP1foPOa)" d="M27.3957,8H20.6043a.38124.38124,0,0,0-.26947.651l3.12556,3.12557a.76345.76345,0,0,0,1.07922,0l3.12556-3.12557A.38124.38124,0,0,0,27.3957,8Z"/><rect width="2" height="10" x="23" fill="url(#ycLYacUGRhYqxOfP1foPOd)" rx=".5"/></svg>