<svg xmlns="http://www.w3.org/2000/svg" data-name="Слой 1" viewBox="0 0 48 48"><defs><radialGradient id="jWXjf_oY4vqG9XDfNvmxTc" cx="-29.748" cy="2729.305" r="5.928" data-name="Безымянный градиент 13" gradientTransform="matrix(1.0799 0 0 1 56.009 -2712)" gradientUnits="userSpaceOnUse"><stop offset=".376" stop-color="#261103"/><stop offset=".68" stop-color="#431d06"/><stop offset="1" stop-color="#662c09"/></radialGradient><radialGradient id="jWXjf_oY4vqG9XDfNvmxTe" cx="75.215" cy="-1615.355" r="4.998" data-name="Безымянный градиент 12" gradientTransform="matrix(.9935 0 0 -.92 -50.726 -1469.124)" gradientUnits="userSpaceOnUse"><stop offset="0" stop-color="#ffcf54"/><stop offset=".261" stop-color="#fdcb4d"/><stop offset=".639" stop-color="#f7c13a"/><stop offset="1" stop-color="#f0b421"/></radialGradient><radialGradient id="jWXjf_oY4vqG9XDfNvmxTf" cx="81.039" cy="2914.314" r="15.761" data-name="Безымянный градиент 6" gradientTransform="matrix(.9744 0 0 .9023 -58.248 -2619.356)" gradientUnits="userSpaceOnUse"><stop offset="0" stop-color="#c26715"/><stop offset=".508" stop-color="#b85515"/><stop offset="1" stop-color="#ad3f16"/></radialGradient><linearGradient id="jWXjf_oY4vqG9XDfNvmxTa" x1="24" x2="24" y1="1.609" y2="8.962" data-name="Безымянный градиент 147" gradientUnits="userSpaceOnUse"><stop offset="0" stop-color="#dfe9f2"/><stop offset=".391" stop-color="#d6e0e9"/><stop offset="1" stop-color="#bfc8d1"/></linearGradient><linearGradient id="jWXjf_oY4vqG9XDfNvmxTb" x1="16.082" x2="32.88" y1="3.246" y2="49.398" data-name="Безымянный градиент 3" gradientUnits="userSpaceOnUse"><stop offset="0" stop-color="#33bef0"/><stop offset="1" stop-color="#22a5e2"/></linearGradient><linearGradient id="jWXjf_oY4vqG9XDfNvmxTd" x1="15.451" x2="31.667" y1="21.947" y2="31.31" data-name="Безымянный градиент 2" gradientUnits="userSpaceOnUse"><stop offset="0" stop-color="#0176d0"/><stop offset="1" stop-color="#16538c"/></linearGradient></defs><path fill="#1783bd" d="M35,3V39a1.99945,1.99945,0,0,1-2,2H28L11,5,33,1A1.99945,1.99945,0,0,1,35,3Z"/><path fill="url(#jWXjf_oY4vqG9XDfNvmxTa)" d="M37,5V41a1.99945,1.99945,0,0,1-2,2H29L11,5,35,3A1.99945,1.99945,0,0,1,37,5Z"/><path fill="url(#jWXjf_oY4vqG9XDfNvmxTb)" d="M37,5H11A1.99944,1.99944,0,0,0,9,7V43a1.99947,1.99947,0,0,0,2,2H37a1.99947,1.99947,0,0,0,2-2V7A1.99944,1.99944,0,0,0,37,5Z"/><path fill="url(#jWXjf_oY4vqG9XDfNvmxTc)" d="M24,11.941c-4.807,0-6,7.189-6,7.189a2.559,2.559,0,0,0,1.986,2.698,19.145,19.145,0,0,0,4.014.49,19.21147,19.21147,0,0,0,4.014-.49A2.55967,2.55967,0,0,0,30,19.13S28.807,11.941,24,11.941Z"/><path fill="url(#jWXjf_oY4vqG9XDfNvmxTd)" d="M24,22.286c-4.418,0-8,2.46-8,5.143V28a1.00036,1.00036,0,0,0,1,1H31a1.00036,1.00036,0,0,0,1-1v-.571C32,24.746,28.418,22.286,24,22.286Z"/><path fill="#d6a121" d="M26,23.4c0,.759-1.132,1.6-2,1.6s-2-.841-2-1.6V20.586h4Z"/><path fill="url(#jWXjf_oY4vqG9XDfNvmxTe)" d="M24,11.505c-1.85,0-3.75.26-3.75,3.964v4.089c0,1.322,2.25,2.943,3.75,2.943s3.75-1.62,3.75-2.943V15.469C27.75,11.765,25.85,11.505,24,11.505Z"/><path fill="url(#jWXjf_oY4vqG9XDfNvmxTf)" d="M24,10c-2.476,0-2.727,1.515-2.727,1.515C20.266,11.653,18,11.62,18,19.092c0,1.784.88,2.336,1.49,2.57-1.674-5.831,3.081-5.143,2.329-9.136,1.931,5.221,8.486,1.686,6.692,9.136a2.71157,2.71157,0,0,0,1.49-2.57C30,12.99,27.531,10,24,10Z"/><rect width="20" height="2" x="14" y="32" fill="#1b9de2" rx=".5"/><rect width="14" height="2" x="17" y="36" fill="#1b9de2" rx=".5"/><g><path d="M24,10c3.531,0,6,2.99,6.001,9.092,0,.0108-.0019.02148-.002.03229L30,19.13a2.801,2.801,0,0,1-.85236,2.121c-.02435.02313-.05206.0415-.07733.06335a2.2671,2.2671,0,0,1-.20648.16144,1.91629,1.91629,0,0,1-.21667.11639,2.59654,2.59654,0,0,1-.63318.23584c-.60462.13343-1.29322.2594-2.014.35126v.28534c3.44836.60358,6,2.7016,6,4.96442V28a1.00036,1.00036,0,0,1-1,1H17a1.00036,1.00036,0,0,1-1-1v-.571c0-2.26276,2.55164-4.36078,6-4.96436v-.285c-.72076-.09174-1.40936-.21765-2.014-.35163a2.66018,2.66018,0,0,1-.5357-.18335,2.22658,2.22658,0,0,1-1.41693-2.02771A3.60957,3.60957,0,0,1,18,19.13l.00177-.00988L18,19.092c0-7.472,2.266-7.439,3.273-7.577,0,0,.251-1.515,2.727-1.515m0-1c-2.10181,0-3.02769.92277-3.42619,1.613C18.73909,11.00061,17,12.52817,17,19.092v.04852a4.632,4.632,0,0,0,.04251.61127,3.25436,3.25436,0,0,0,1.76183,2.69817C16.49094,23.59,15,25.44387,15,27.429V28a2.00227,2.00227,0,0,0,2,2H31a2.00227,2.00227,0,0,0,2-2v-.571c0-1.989-1.497-3.84633-3.81815-4.98587a2.32748,2.32748,0,0,0,.23344-.13318,2.759,2.759,0,0,0,.26142-.19923l.006-.005.04169-.035a1.3001,1.3001,0,0,0,.112-.09475A3.76689,3.76689,0,0,0,31,19.14788l.001-.0559C31,12.77264,28.38278,9,24,9Z" opacity=".05"/><path d="M24,10c3.531,0,6,2.99,6.001,9.092,0,.0108-.0019.02148-.002.03229L30,19.13a2.801,2.801,0,0,1-.85236,2.121c-.02435.02313-.05206.0415-.07733.06335a2.2671,2.2671,0,0,1-.20648.16144,1.91629,1.91629,0,0,1-.21667.11639,2.59654,2.59654,0,0,1-.63318.23584c-.60462.13343-1.29322.2594-2.014.35126v.28534c3.44836.60358,6,2.7016,6,4.96442V28a1.00036,1.00036,0,0,1-1,1H17a1.00036,1.00036,0,0,1-1-1v-.571c0-2.26276,2.55164-4.36078,6-4.96436v-.285c-.72076-.09174-1.40936-.21765-2.014-.35163a2.66018,2.66018,0,0,1-.5357-.18335,2.22658,2.22658,0,0,1-1.41693-2.02771A3.60957,3.60957,0,0,1,18,19.13l.00177-.00988L18,19.092c0-7.472,2.266-7.439,3.273-7.577,0,0,.251-1.515,2.727-1.515m0-.5c-2.10373,0-2.84695.99839-3.09875,1.56119C19.18936,11.33887,17.5,12.61393,17.5,19.092v.02419l.00037.00442L17.5,19.13a4.12593,4.12593,0,0,0,.038.55436,2.73389,2.73389,0,0,0,1.72712,2.42471,3.05131,3.05131,0,0,0,.613.20715q.1833.04062.36725.07828C17.417,23.34846,15.5,25.31178,15.5,27.429V28A1.5017,1.5017,0,0,0,17,29.5H31A1.5017,1.5017,0,0,0,32.5,28v-.571c0-2.11736-1.91711-4.0808-4.74586-5.03469q.18392-.03755.36759-.07808a3.06353,3.06353,0,0,0,.75388-.27933,1.8638,1.8638,0,0,0,.48-.30945l.003-.0025.03874-.03242a1.21187,1.21187,0,0,0,.09466-.07905A3.285,3.285,0,0,0,30.5,19.13v-.04476l-.00112-.0062C30.48636,13.06573,28.05831,9.5,24,9.5Z" opacity=".07"/></g></svg>