<svg xmlns="http://www.w3.org/2000/svg" viewBox="0 0 48 48"><linearGradient id="DVugsgjoBNMAmjEKyS7Vka" x1="9.635" x2="12.204" y1="5.726" y2="15.655" gradientUnits="userSpaceOnUse"><stop offset="0" stop-color="#2aa4f4"/><stop offset="1" stop-color="#007ad9"/></linearGradient><path fill="url(#DVugsgjoBNMAmjEKyS7Vka)" d="M14,16H8c-1.1,0-2-0.9-2-2V8c0-1.1,0.9-2,2-2h6c1.1,0,2,0.9,2,2v6C16,15.1,15.1,16,14,16z"/><linearGradient id="DVugsgjoBNMAmjEKyS7Vkb" x1="35.635" x2="38.205" y1="5.726" y2="15.655" gradientUnits="userSpaceOnUse"><stop offset="0" stop-color="#2aa4f4"/><stop offset="1" stop-color="#007ad9"/></linearGradient><path fill="url(#DVugsgjoBNMAmjEKyS7Vkb)" d="M40,16h-6c-1.1,0-2-0.9-2-2V8c0-1.1,0.9-2,2-2h6c1.1,0,2,0.9,2,2v6C42,15.1,41.1,16,40,16z"/><linearGradient id="DVugsgjoBNMAmjEKyS7Vkc" x1="9.635" x2="12.204" y1="31.726" y2="41.654" gradientUnits="userSpaceOnUse"><stop offset="0" stop-color="#2aa4f4"/><stop offset="1" stop-color="#007ad9"/></linearGradient><path fill="url(#DVugsgjoBNMAmjEKyS7Vkc)" d="M14,42H8c-1.1,0-2-0.9-2-2v-6c0-1.1,0.9-2,2-2h6c1.1,0,2,0.9,2,2v6C16,41.1,15.1,42,14,42z"/><linearGradient id="DVugsgjoBNMAmjEKyS7Vkd" x1="35.635" x2="38.205" y1="31.726" y2="41.654" gradientUnits="userSpaceOnUse"><stop offset="0" stop-color="#2aa4f4"/><stop offset="1" stop-color="#007ad9"/></linearGradient><path fill="url(#DVugsgjoBNMAmjEKyS7Vkd)" d="M40,42h-6c-1.1,0-2-0.9-2-2v-6c0-1.1,0.9-2,2-2h6c1.1,0,2,0.9,2,2v6C42,41.1,41.1,42,40,42z"/><circle cx="22" cy="11" r="1" fill="#abb4be"/><circle cx="26" cy="11" r="1" fill="#abb4be"/><circle cx="30" cy="11" r="1" fill="#abb4be"/><circle cx="18" cy="11" r="1" fill="#abb4be"/><circle cx="22" cy="37" r="1" fill="#abb4be"/><circle cx="26" cy="37" r="1" fill="#abb4be"/><circle cx="30" cy="37" r="1" fill="#abb4be"/><circle cx="37" cy="30" r="1" fill="#abb4be"/><circle cx="37" cy="26" r="1" fill="#abb4be"/><circle cx="37" cy="22" r="1" fill="#abb4be"/><circle cx="37" cy="18" r="1" fill="#abb4be"/><circle cx="11" cy="30" r="1" fill="#abb4be"/><circle cx="11" cy="26" r="1" fill="#abb4be"/><circle cx="11" cy="22" r="1" fill="#abb4be"/><circle cx="11" cy="18" r="1" fill="#abb4be"/><circle cx="18" cy="37" r="1" fill="#abb4be"/></svg>