<svg xmlns="http://www.w3.org/2000/svg" viewBox="0 0 48 48"><linearGradient id="Cf1gd4e0nv6FiYf3zbMB_a" x1="24" x2="24" y1="5.375" y2="28.927" gradientUnits="userSpaceOnUse"><stop offset="0" stop-color="#fed100"/><stop offset="1" stop-color="#e38101"/></linearGradient><path fill="url(#Cf1gd4e0nv6FiYf3zbMB_a)" d="M25,4h-2c-0.552,0-1,0.448-1,1v26c0,0.552,0.448,1,1,1h2c0.552,0,1-0.448,1-1V5	C26,4.448,25.552,4,25,4z"/><linearGradient id="Cf1gd4e0nv6FiYf3zbMB_b" x1="20" x2="20" y1="5.375" y2="28.927" gradientUnits="userSpaceOnUse"><stop offset="0" stop-color="#fed100"/><stop offset="1" stop-color="#e38101"/></linearGradient><path fill="url(#Cf1gd4e0nv6FiYf3zbMB_b)" d="M21,6h-2c-0.552,0-1,0.448-1,1v26c0,0.552,0.448,1,1,1h2c0.552,0,1-0.448,1-1V7	C22,6.448,21.552,6,21,6z"/><linearGradient id="Cf1gd4e0nv6FiYf3zbMB_c" x1="16" x2="16" y1="5.375" y2="28.927" gradientUnits="userSpaceOnUse"><stop offset="0" stop-color="#fed100"/><stop offset="1" stop-color="#e38101"/></linearGradient><path fill="url(#Cf1gd4e0nv6FiYf3zbMB_c)" d="M17,8h-2c-0.552,0-1,0.448-1,1v18c0,0.552,0.448,1,1,1h2c0.552,0,1-0.448,1-1V9	C18,8.448,17.552,8,17,8z"/><linearGradient id="Cf1gd4e0nv6FiYf3zbMB_d" x1="12" x2="12" y1="5.375" y2="28.927" gradientUnits="userSpaceOnUse"><stop offset="0" stop-color="#fed100"/><stop offset="1" stop-color="#e38101"/></linearGradient><path fill="url(#Cf1gd4e0nv6FiYf3zbMB_d)" d="M13,10h-2c-0.552,0-1,0.448-1,1v18c0,0.552,0.448,1,1,1h2c0.552,0,1-0.448,1-1V11	C14,10.448,13.552,10,13,10z"/><linearGradient id="Cf1gd4e0nv6FiYf3zbMB_e" x1="36" x2="36" y1="5.375" y2="28.927" gradientTransform="matrix(-1 0 0 1 64 0)" gradientUnits="userSpaceOnUse"><stop offset="0" stop-color="#fed100"/><stop offset="1" stop-color="#e38101"/></linearGradient><path fill="url(#Cf1gd4e0nv6FiYf3zbMB_e)" d="M27,6h2c0.552,0,1,0.448,1,1v26c0,0.552-0.448,1-1,1h-2c-0.552,0-1-0.448-1-1V7	C26,6.448,26.448,6,27,6z"/><linearGradient id="Cf1gd4e0nv6FiYf3zbMB_f" x1="32" x2="32" y1="5.375" y2="28.927" gradientTransform="matrix(-1 0 0 1 64 0)" gradientUnits="userSpaceOnUse"><stop offset="0" stop-color="#fed100"/><stop offset="1" stop-color="#e38101"/></linearGradient><path fill="url(#Cf1gd4e0nv6FiYf3zbMB_f)" d="M31,8h2c0.552,0,1,0.448,1,1v18c0,0.552-0.448,1-1,1h-2c-0.552,0-1-0.448-1-1V9	C30,8.448,30.448,8,31,8z"/><linearGradient id="Cf1gd4e0nv6FiYf3zbMB_g" x1="28" x2="28" y1="5.375" y2="28.927" gradientTransform="matrix(-1 0 0 1 64 0)" gradientUnits="userSpaceOnUse"><stop offset="0" stop-color="#fed100"/><stop offset="1" stop-color="#e38101"/></linearGradient><path fill="url(#Cf1gd4e0nv6FiYf3zbMB_g)" d="M35,10h2c0.552,0,1,0.448,1,1v18c0,0.552-0.448,1-1,1h-2c-0.552,0-1-0.448-1-1V11	C34,10.448,34.448,10,35,10z"/><linearGradient id="Cf1gd4e0nv6FiYf3zbMB_h" x1="21" x2="21" y1="19.25" y2="38.042" gradientUnits="userSpaceOnUse"><stop offset="0" stop-color="#fed100"/><stop offset="1" stop-color="#e38101"/></linearGradient><path fill="url(#Cf1gd4e0nv6FiYf3zbMB_h)" d="M22,10h-2c-0.552,0-1,0.448-1,1v27c0,0.552,0.448,1,1,1h2c0.552,0,1-0.448,1-1V11	C23,10.448,22.552,10,22,10z"/><linearGradient id="Cf1gd4e0nv6FiYf3zbMB_i" x1="15" x2="15" y1="19.25" y2="38.042" gradientUnits="userSpaceOnUse"><stop offset="0" stop-color="#fed100"/><stop offset="1" stop-color="#e38101"/></linearGradient><path fill="url(#Cf1gd4e0nv6FiYf3zbMB_i)" d="M16,15h-2c-0.552,0-1,0.448-1,1v22c0,0.552,0.448,1,1,1h2c0.552,0,1-0.448,1-1V16	C17,15.448,16.552,15,16,15z"/><linearGradient id="Cf1gd4e0nv6FiYf3zbMB_j" x1="33" x2="33" y1="19.25" y2="38.042" gradientUnits="userSpaceOnUse"><stop offset="0" stop-color="#fed100"/><stop offset="1" stop-color="#e38101"/></linearGradient><path fill="url(#Cf1gd4e0nv6FiYf3zbMB_j)" d="M34,15h-2c-0.552,0-1,0.448-1,1v22c0,0.552,0.448,1,1,1h2c0.552,0,1-0.448,1-1V16	C35,15.448,34.552,15,34,15z"/><linearGradient id="Cf1gd4e0nv6FiYf3zbMB_k" x1="27" x2="27" y1="19.25" y2="38.042" gradientUnits="userSpaceOnUse"><stop offset="0" stop-color="#fed100"/><stop offset="1" stop-color="#e38101"/></linearGradient><path fill="url(#Cf1gd4e0nv6FiYf3zbMB_k)" d="M28,13h-2c-0.552,0-1,0.448-1,1v24c0,0.552,0.448,1,1,1h2c0.552,0,1-0.448,1-1V14	C29,13.448,28.552,13,28,13z"/><path d="M35.78,18c-0.89,0-1.68,0.59-1.92,1.45c-0.58,2.03-3,8.68-9.86,8.68s-9.28-6.65-9.86-8.68C13.9,18.59,13.11,18,12.22,18H10 v1h2.22c0.45,0,0.84,0.29,0.96,0.72c0.44,1.54,1.75,5.2,4.8,7.47v0.01c0.01,0,0.01,0,0.02,0.01c1.53,1.13,3.5,1.92,6,1.92 s4.47-0.79,6-1.92c0.01-0.01,0.01-0.01,0.02-0.01v-0.01c3.05-2.27,4.36-5.93,4.8-7.47c0.12-0.43,0.51-0.72,0.96-0.72H38v-1H35.78z" opacity=".05"/><path d="M35.78,18.5c-0.67,0-1.26,0.44-1.44,1.08c-0.6,2.12-3.13,9.05-10.34,9.05s-9.74-6.93-10.34-9.05 c-0.18-0.64-0.77-1.08-1.44-1.08H10V19h2.22c0.45,0,0.84,0.29,0.96,0.72c0.44,1.54,1.75,5.2,4.8,7.47v0.01c0.01,0,0.01,0,0.02,0.01 c1.53,1.13,3.5,1.92,6,1.92s4.47-0.79,6-1.92c0.01-0.01,0.01-0.01,0.02-0.01v-0.01c3.05-2.27,4.36-5.93,4.8-7.47 c0.12-0.43,0.51-0.72,0.96-0.72H38v-0.5H35.78z" opacity=".07"/><linearGradient id="Cf1gd4e0nv6FiYf3zbMB_l" x1="24" x2="24" y1="15.125" y2="40.255" gradientUnits="userSpaceOnUse"><stop offset="0" stop-color="#f44f5a"/><stop offset=".443" stop-color="#ee3d4a"/><stop offset="1" stop-color="#e52030"/></linearGradient><path fill="url(#Cf1gd4e0nv6FiYf3zbMB_l)" d="M35.778,19c-0.445,0-0.838,0.29-0.959,0.718c-0.656,2.312-3.285,9.413-10.819,9.413	s-10.163-7.101-10.819-9.413C13.059,19.29,12.667,19,12.222,19H8.001c-0.626,0-1.099,0.567-0.983,1.182	c0.722,3.836,3.227,16.049,4.441,22.365c0.299,1.559,1.738,2.615,3.296,2.431C20.275,44.328,24,44.328,24,44.328	s3.725,0,9.246,0.652c1.557,0.184,2.996-0.873,3.296-2.431c1.213-6.316,3.72-18.53,4.442-22.365C41.099,19.567,40.626,19,40,19	H35.778z"/></svg>