<svg xmlns="http://www.w3.org/2000/svg" viewBox="0 0 48 48"><path fill="#184f85" d="M37.068,36.089l-21.678,3.822l0.478,2.71c0.176,0.998,1.127,1.664,2.125,1.488l18.065-3.185	c0.998-0.176,1.664-1.127,1.488-2.125L37.068,36.089z"/><rect width="22.012" height="6.42" x="14.666" y="31.629" fill="#0078d4" transform="rotate(-10.003 25.677 34.85)"/><rect width="22.012" height="9.172" x="13.313" y="22.575" fill="#1b9de2" transform="rotate(-10.003 24.323 27.17)"/><rect width="22.012" height="12.84" x="11.401" y="9.902" fill="#35c1f1" transform="rotate(-10.003 22.412 16.329)"/><path fill="#50e6ff" d="M32.131,8.089l-21.678,3.822l-0.478-2.71c-0.176-0.998,0.49-1.949,1.488-2.125l18.065-3.185	c0.998-0.176,1.949,0.49,2.125,1.488L32.131,8.089z"/><circle cx="17.281" cy="8.379" r=".688" fill="#0c63ad"/><path fill="#0c63ad" d="M23.936,6.507c-0.175,0.031-4.341,0.765-4.516,0.796c-0.374,0.066-0.624,0.423-0.558,0.797	c0.066,0.374,0.423,0.624,0.797,0.558C19.834,8.627,24,7.893,24.175,7.862c0.374-0.066,0.624-0.423,0.558-0.797	C24.667,6.691,24.31,6.441,23.936,6.507z"/><linearGradient id="QNYATkUalUUHEqNs9J8Nua" x1="37.423" x2="39.393" y1="22.409" y2="22.062" gradientUnits="userSpaceOnUse"><stop offset="0" stop-color="#c965eb"/><stop offset="1" stop-color="#c767e5"/></linearGradient><path fill="url(#QNYATkUalUUHEqNs9J8Nua)" d="M40.318,34.074c-0.477,0-0.898-0.341-0.984-0.826L35.512,11.57	c-0.096-0.544,0.267-1.062,0.811-1.158c0.548-0.099,1.062,0.267,1.159,0.811L41.304,32.9c0.096,0.544-0.267,1.062-0.811,1.158	C40.434,34.069,40.375,34.074,40.318,34.074z"/><linearGradient id="QNYATkUalUUHEqNs9J8Nub" x1="8.563" x2="10.533" y1="28.077" y2="27.73" gradientUnits="userSpaceOnUse"><stop offset="0" stop-color="#c965eb"/><stop offset="1" stop-color="#c767e5"/></linearGradient><path fill="url(#QNYATkUalUUHEqNs9J8Nub)" d="M11.458,39.742c-0.477,0-0.898-0.341-0.984-0.826L6.652,17.238	c-0.096-0.544,0.267-1.062,0.811-1.158c0.548-0.1,1.062,0.267,1.159,0.811l3.822,21.678c0.096,0.544-0.267,1.062-0.811,1.158	C11.574,39.737,11.516,39.742,11.458,39.742z"/><linearGradient id="QNYATkUalUUHEqNs9J8Nuc" x1="42.011" x2="43.981" y1="22.41" y2="22.062" gradientUnits="userSpaceOnUse"><stop offset="0" stop-color="#c965eb"/><stop offset="1" stop-color="#c767e5"/></linearGradient><path fill="url(#QNYATkUalUUHEqNs9J8Nuc)" d="M44.113,29.575c-0.477,0-0.898-0.341-0.984-0.826L40.894,16.07	c-0.096-0.544,0.267-1.062,0.811-1.158c0.544-0.1,1.062,0.267,1.159,0.811l2.236,12.679c0.096,0.544-0.267,1.062-0.811,1.158	C44.229,29.57,44.171,29.575,44.113,29.575z"/><linearGradient id="QNYATkUalUUHEqNs9J8Nud" x1="4.047" x2="6.017" y1="28.873" y2="28.526" gradientUnits="userSpaceOnUse"><stop offset="0" stop-color="#c965eb"/><stop offset="1" stop-color="#c767e5"/></linearGradient><path fill="url(#QNYATkUalUUHEqNs9J8Nud)" d="M6.149,36.039c-0.477,0-0.898-0.341-0.984-0.826L2.93,22.534	c-0.096-0.544,0.268-1.062,0.811-1.158c0.545-0.099,1.063,0.267,1.159,0.811l2.235,12.679c0.096,0.544-0.268,1.062-0.811,1.158	C6.265,36.034,6.207,36.039,6.149,36.039z"/></svg>