<svg xmlns="http://www.w3.org/2000/svg" viewBox="0 0 48 48"><linearGradient id="aOo1qY_IkvSqRixIn6Z9~a" x1="24" x2="24" y1="-160.708" y2="-168.977" gradientTransform="matrix(1 0 0 -1 0 -154)" gradientUnits="userSpaceOnUse"><stop offset="0" stop-color="#eba600"/><stop offset="1" stop-color="#c28200"/></linearGradient><path fill="url(#aOo1qY_IkvSqRixIn6Z9~a)" d="M24.414,10.414l-2.536-2.536C21.316,7.316,20.553,7,19.757,7H5C3.895,7,3,7.895,3,9v30	c0,1.105,0.895,2,2,2h38c1.105,0,2-0.895,2-2V13c0-1.105-0.895-2-2-2H25.828C25.298,11,24.789,10.789,24.414,10.414z"/><linearGradient id="aOo1qY_IkvSqRixIn6Z9~b" x1="24" x2="24" y1="-164.854" y2="-194.983" gradientTransform="matrix(1 0 0 -1 0 -154)" gradientUnits="userSpaceOnUse"><stop offset="0" stop-color="#ffd869"/><stop offset="1" stop-color="#fec52b"/></linearGradient><path fill="url(#aOo1qY_IkvSqRixIn6Z9~b)" d="M21.586,14.414l3.268-3.268C24.947,11.053,25.074,11,25.207,11H43c1.105,0,2,0.895,2,2v26	c0,1.105-0.895,2-2,2H5c-1.105,0-2-0.895-2-2V15.5C3,15.224,3.224,15,3.5,15h16.672C20.702,15,21.211,14.789,21.586,14.414z"/><radialGradient id="aOo1qY_IkvSqRixIn6Z9~c" cx="17.031" cy="-174.719" r="20.458" gradientTransform="matrix(1 0 0 -1 0 -154)" gradientUnits="userSpaceOnUse"><stop offset="0" stop-color="#6fcefc"/><stop offset="1" stop-color="#167cf7"/></radialGradient><path fill="url(#aOo1qY_IkvSqRixIn6Z9~c)" d="M34,28c0,5.522-4.478,10-10,10s-10-4.478-10-10s4.478-10,10-10S34,22.478,34,28z"/><radialGradient id="aOo1qY_IkvSqRixIn6Z9~d" cx="18.638" cy="22" r="19.54" gradientUnits="userSpaceOnUse"><stop offset=".001" stop-color="#54c0f5"/><stop offset=".998" stop-color="#0b69db"/></radialGradient><path fill="url(#aOo1qY_IkvSqRixIn6Z9~d)" d="M32.562,28c0-1.139-0.171-2.229-0.471-3.25h1.358c-0.179-0.519-0.391-1.023-0.648-1.5h-1.263	c-1.448-3.139-4.283-5.276-7.537-5.276s-6.089,2.138-7.537,5.276h-1.263c-0.258,0.477-0.47,0.981-0.648,1.5h1.358	c-0.3,1.021-0.471,2.111-0.471,3.25s0.171,2.229,0.471,3.25h-1.358c0.179,0.519,0.39,1.023,0.648,1.5h1.263	c1.448,3.139,4.283,5.276,7.537,5.276s6.089-2.138,7.537-5.276h1.263c0.258-0.477,0.47-0.981,0.648-1.5h-1.358	C32.391,30.229,32.562,29.139,32.562,28z M31.062,28c0,1.151-0.192,2.247-0.536,3.25h-2.57c0.138-1.051,0.212-2.15,0.212-3.25	s-0.074-2.199-0.212-3.25h2.57C30.87,25.753,31.062,26.849,31.062,28z M24,36.526c-0.702,0-1.608-1.392-2.163-3.776h4.326	C25.608,35.134,24.702,36.526,24,36.526z M21.558,31.25c-0.14-0.975-0.226-2.061-0.226-3.25s0.085-2.275,0.226-3.25h4.884	c0.14,0.975,0.226,2.061,0.226,3.25s-0.085,2.275-0.226,3.25H21.558z M24,19.474c0.702,0,1.608,1.392,2.163,3.776h-4.326	C22.392,20.866,23.298,19.474,24,19.474z M29.861,23.25h-2.157c-0.249-1.198-0.598-2.276-1.044-3.143	C27.968,20.752,29.082,21.853,29.861,23.25z M21.339,20.107c-0.446,0.868-0.795,1.945-1.044,3.143h-2.157	C18.918,21.853,20.032,20.752,21.339,20.107z M16.938,28c0-1.151,0.192-2.247,0.536-3.25h2.57c-0.138,1.051-0.212,2.15-0.212,3.25	s0.074,2.199,0.212,3.25h-2.57C17.13,30.247,16.938,29.151,16.938,28z M18.139,32.75h2.157c0.249,1.198,0.598,2.276,1.044,3.143	C20.032,35.248,18.918,34.147,18.139,32.75z M26.661,35.893c0.446-0.868,0.795-1.945,1.044-3.143h2.157	C29.082,34.147,27.968,35.248,26.661,35.893z"/></svg>