<svg xmlns="http://www.w3.org/2000/svg" viewBox="0 0 48 48"><linearGradient id="xIvcCaJQXUkd3ArSQiZiwa" x1="24.32" x2="23.589" y1="39.08" y2="4.607" gradientUnits="userSpaceOnUse"><stop offset="0" stop-color="#0d62ab"/><stop offset="1" stop-color="#007ad9"/></linearGradient><path fill="url(#xIvcCaJQXUkd3ArSQiZiwa)" d="M26,6v6c0,1.104-0.895,2-2,2s-2-0.896-2-2V6c0-1.105,0.895-2,2-2S26,4.895,26,6z M24,34 c-1.105,0-2,0.895-2,2v6c0,1.104,0.895,2,2,2s2-0.896,2-2v-6C26,34.895,25.105,34,24,34z M33.899,16.929l4.243-4.243 c0.781-0.781,0.781-2.047,0-2.828c-0.781-0.781-2.047-0.781-2.828,0L31.071,14.1c-0.781,0.781-0.781,2.047,0,2.828 C31.852,17.71,33.118,17.71,33.899,16.929z M14.101,31.071l-4.243,4.243c-0.781,0.781-0.781,2.047,0,2.828l0,0 c0.781,0.781,2.047,0.781,2.828,0l4.243-4.243c0.781-0.781,0.781-2.047,0-2.828C16.148,30.29,14.882,30.29,14.101,31.071z M12.686,9.858c-0.781-0.781-2.047-0.781-2.828,0c-0.781,0.781-0.781,2.047,0,2.828l4.243,4.243c0.781,0.781,2.047,0.781,2.828,0 c0.781-0.781,0.781-2.047,0-2.828L12.686,9.858z M33.899,31.071c-0.781-0.781-2.047-0.781-2.828,0 c-0.781,0.781-0.781,2.047,0,2.828l4.243,4.243c0.781,0.781,2.047,0.781,2.828,0l0,0c0.781-0.781,0.781-2.047,0-2.828 L33.899,31.071z M14,24c0-1.105-0.895-2-2-2H6c-1.105,0-2,0.895-2,2c0,1.104,0.895,2,2,2h6C13.105,26,14,25.104,14,24z M42,22h-6 c-1.105,0-2,0.895-2,2c0,1.104,0.895,2,2,2h6c1.105,0,2-0.896,2-2C44,22.895,43.105,22,42,22z"/><path fill="#35c1f1" d="M18.743,8.855c0.213,0.509-0.027,1.095-0.536,1.309c-0.509,0.213-1.095-0.027-1.309-0.536 l-1.159-2.767c-0.213-0.509,0.027-1.095,0.536-1.309c0.509-0.213,1.095,0.027,1.309,0.536L18.743,8.855z M31.102,38.372 c-0.213-0.509-0.799-0.749-1.309-0.536c-0.509,0.213-0.749,0.799-0.536,1.309l1.159,2.767c0.213,0.51,0.799,0.75,1.309,0.536 c0.509-0.213,0.75-0.799,0.536-1.309L31.102,38.372z M9.549,17.06l-2.78-1.127c-0.512-0.208-1.095,0.039-1.302,0.551 s0.039,1.095,0.551,1.302l2.78,1.128c0.512,0.208,1.095-0.039,1.302-0.551S10.061,17.267,9.549,17.06z M41.983,30.215l-2.78-1.128 c-0.512-0.208-1.095,0.039-1.302,0.551c-0.208,0.512,0.039,1.095,0.551,1.303l2.78,1.128c0.512,0.208,1.095-0.039,1.302-0.551 C42.741,31.005,42.495,30.422,41.983,30.215z M31.725,5.552c-0.509-0.213-1.095,0.027-1.309,0.536l-1.159,2.767 c-0.213,0.509,0.027,1.095,0.536,1.309c0.509,0.213,1.095-0.027,1.309-0.536l1.159-2.767C32.474,6.351,32.234,5.765,31.725,5.552z M18.207,37.836c-0.509-0.213-1.095,0.027-1.309,0.536l-1.159,2.767c-0.213,0.51,0.027,1.095,0.536,1.309 c0.509,0.213,1.095-0.027,1.309-0.536l1.159-2.767C18.956,38.635,18.716,38.049,18.207,37.836z M39.203,18.913l2.78-1.128 c0.512-0.208,0.758-0.791,0.551-1.302s-0.791-0.758-1.302-0.551l-2.78,1.127c-0.512,0.208-0.758,0.791-0.551,1.303 S38.691,19.121,39.203,18.913z M8.797,29.087l-2.78,1.128c-0.512,0.208-0.758,0.791-0.551,1.302 c0.208,0.512,0.791,0.758,1.302,0.551l2.78-1.128c0.512-0.208,0.758-0.791,0.551-1.303C9.892,29.126,9.309,28.879,8.797,29.087z"/></svg>