<svg xmlns="http://www.w3.org/2000/svg" viewBox="0 0 48 48"><linearGradient id="SZe3GT847YyXOe8QBN_Vca" x1="21.231" x2="26.606" y1="1746.444" y2="1776.639" gradientTransform="translate(0 -1738)" gradientUnits="userSpaceOnUse"><stop offset="0" stop-color="#0370c8"/><stop offset=".484" stop-color="#036fc5"/><stop offset=".775" stop-color="#036abd"/><stop offset="1" stop-color="#0362b0"/></linearGradient><path fill="url(#SZe3GT847YyXOe8QBN_Vca)" d="M7,9h34c1.105,0,2,0.895,2,2v26c0,1.105-0.895,2-2,2H7c-1.105,0-2-0.895-2-2V11	C5,9.895,5.895,9,7,9z"/><path d="M22,29c0-3.314-2.686-6-6-6s-6,2.686-6,6v3c0,1.105,0.895,2,2,2h8	c1.105,0,2-0.895,2-2V29z" opacity=".05"/><path d="M16,23.5c-3.038,0-5.5,2.462-5.5,5.5c0,0.114,0,3,0,3	c0,0.828,0.672,1.5,1.5,1.5h8c0.828,0,1.5-0.672,1.5-1.5c0,0,0-2.897,0-3C21.5,25.962,19.038,23.5,16,23.5z" opacity=".07"/><path d="M36,20c-0.366,0-9.634,0-10,0c-1.105,0-2,0.895-2,2s0.895,2,2,2	c0.366,0,9.634,0,10,0c1.105,0,2-0.895,2-2S37.105,20,36,20z" opacity=".05"/><path d="M26,20.5c-0.828,0-1.5,0.672-1.5,1.5l0,0c0,0.828,0.672,1.5,1.5,1.5	c0.183,0,9.817,0,10,0c0.828,0,1.5-0.672,1.5-1.5l0,0c0-0.828-0.672-1.5-1.5-1.5C35.817,20.5,26.183,20.5,26,20.5z" opacity=".07"/><path d="M36,25c-0.366,0-9.634,0-10,0c-1.105,0-2,0.895-2,2s0.895,2,2,2	c0.366,0,9.634,0,10,0c1.105,0,2-0.895,2-2S37.105,25,36,25z" opacity=".05"/><path d="M26,25.5c-0.828,0-1.5,0.672-1.5,1.5l0,0c0,0.828,0.672,1.5,1.5,1.5	c0.183,0,9.817,0,10,0c0.828,0,1.5-0.672,1.5-1.5l0,0c0-0.828-0.672-1.5-1.5-1.5C35.817,25.5,26.183,25.5,26,25.5z" opacity=".07"/><radialGradient id="SZe3GT847YyXOe8QBN_Vcb" cx="16" cy="1757" r="4" gradientTransform="translate(0 -1738)" gradientUnits="userSpaceOnUse"><stop offset="0"/><stop offset=".009" stop-opacity=".991"/><stop offset="1" stop-opacity="0"/></radialGradient><circle cx="16" cy="19" r="4" fill="url(#SZe3GT847YyXOe8QBN_Vcb)"/><linearGradient id="SZe3GT847YyXOe8QBN_Vcc" x1="23.289" x2="24.843" y1="1743.034" y2="1751.704" gradientTransform="translate(0 -1738)" gradientUnits="userSpaceOnUse"><stop offset="0" stop-color="#75daff"/><stop offset="1" stop-color="#1ea2e4"/></linearGradient><path fill="url(#SZe3GT847YyXOe8QBN_Vcc)" d="M27,5h-6c-0.552,0-1,0.448-1,1v6c0,0.552,0.448,1,1,1h6c0.552,0,1-0.448,1-1V6	C28,5.448,27.552,5,27,5z M24,11c-0.552,0-1-0.448-1-1s0.448-1,1-1s1,0.448,1,1S24.552,11,24,11z"/><linearGradient id="SZe3GT847YyXOe8QBN_Vcd" x1="13.594" x2="16.499" y1="1754.42" y2="1771.212" gradientTransform="translate(0 -1738)" gradientUnits="userSpaceOnUse"><stop offset="0" stop-color="#75daff"/><stop offset="1" stop-color="#1ea2e4"/></linearGradient><path fill="url(#SZe3GT847YyXOe8QBN_Vcd)" d="M13,19c0-1.657,1.343-3,3-3s3,1.343,3,3s-1.343,3-3,3S13,20.657,13,19z M16,24	c-2.761,0-5,2.239-5,5v3c0,0.552,0.448,1,1,1h8c0.552,0,1-0.448,1-1v-3C21,26.239,18.761,24,16,24z"/><path fill="#75daff" d="M36,26H26c-0.552,0-1,0.448-1,1l0,0c0,0.552,0.448,1,1,1h10c0.552,0,1-0.448,1-1l0,0	C37,26.448,36.552,26,36,26z"/><path fill="#75daff" d="M36,21H26c-0.552,0-1,0.448-1,1l0,0c0,0.552,0.448,1,1,1h10c0.552,0,1-0.448,1-1l0,0	C37,21.448,36.552,21,36,21z"/><path d="M43,35.96V37c0,1.1-0.9,2-2,2H30.08l5.69-9.01	C35.92,29.68,36.5,29,37.5,29c0.87,0,1.52,0.54,1.78,1.08L43,35.96z" opacity=".05"/><path d="M43,36.89V37c0,1.1-0.9,2-2,2H30.66l5.54-8.75	c0.12-0.25,0.56-0.75,1.3-0.75s1.18,0.5,1.33,0.8L43,36.89z" opacity=".07"/><linearGradient id="SZe3GT847YyXOe8QBN_Vce" x1="-128.064" x2="43.918" y1="1592.06" y2="1789.309" gradientTransform="translate(0 -1738)" gradientUnits="userSpaceOnUse"><stop offset="0" stop-color="#ffda1c"/><stop offset="1" stop-color="#feb705"/></linearGradient><path fill="url(#SZe3GT847YyXOe8QBN_Vce)" d="M47.817,45.435L38.38,30.521c0,0-0.254-0.521-0.88-0.521s-0.88,0.521-0.88,0.521	l-9.437,14.914c0,0-0.183,0.244-0.183,0.573C27,46.556,27.448,47,28,47h19c0.552,0,1-0.444,1-0.992	C48,45.679,47.817,45.435,47.817,45.435z"/><radialGradient id="SZe3GT847YyXOe8QBN_Vcf" cx="34.889" cy="1754.934" r="10.021" gradientTransform="matrix(1 0 0 1.0323 0 -1776.726)" gradientUnits="userSpaceOnUse"><stop offset="0" stop-color="#4b4b4b"/><stop offset=".531" stop-color="#393939"/><stop offset="1" stop-color="#252525"/></radialGradient><path fill="url(#SZe3GT847YyXOe8QBN_Vcf)" d="M37.506,45c-0.323,0-0.59-0.098-0.8-0.294s-0.315-0.433-0.315-0.712	c0-0.291,0.106-0.529,0.318-0.715C36.921,43.093,37.187,43,37.506,43c0.323,0,0.588,0.094,0.794,0.282	c0.206,0.188,0.309,0.425,0.309,0.712c0,0.291-0.102,0.531-0.306,0.721C38.099,44.905,37.833,45,37.506,45z M38.618,35.372	l-0.241,6.284C38.37,41.848,38.217,42,38.031,42h-1.09c-0.186,0-0.34-0.152-0.346-0.345l-0.228-6.284	C36.36,35.169,36.518,35,36.714,35h1.558C38.468,35,38.626,35.169,38.618,35.372z"/></svg>