<svg xmlns="http://www.w3.org/2000/svg" viewBox="0 0 48 48"><radialGradient id="rVPGOfNYRTVleRwa7UqR6a" cx="23.969" cy="24.081" r="21.986" gradientUnits="userSpaceOnUse"><stop offset=".724" stop-color="#ffed54"/><stop offset=".779" stop-color="#ffe649"/><stop offset=".877" stop-color="#ffd22d"/><stop offset="1" stop-color="#ffb300"/></radialGradient><path fill="url(#rVPGOfNYRTVleRwa7UqR6a)" d="M37.214,8.229l-0.283-2.028l-2.016,0.357c-1.32,0.234-2.635-0.436-3.222-1.641l-0.896-1.841	L28.992,4.04c-1.183,0.631-2.641,0.4-3.571-0.566L24,2l-1.421,1.474c-0.93,0.965-2.388,1.196-3.571,0.566l-1.807-0.963l-0.896,1.841	c-0.586,1.205-1.902,1.875-3.222,1.641l-2.016-0.357l-0.283,2.028c-0.185,1.328-1.229,2.371-2.557,2.557l-2.028,0.283l0.357,2.016	c0.234,1.32-0.436,2.635-1.641,3.221l-1.841,0.896l0.963,1.807c0.631,1.183,0.4,2.641-0.566,3.571L2,24l1.474,1.421	c0.965,0.93,1.196,2.388,0.566,3.571l-0.963,1.807l1.841,0.896c1.205,0.586,1.876,1.902,1.641,3.222l-0.357,2.016l2.028,0.283	c0.664,0.093,1.257,0.4,1.707,0.85L38.064,9.936C37.614,9.486,37.307,8.893,37.214,8.229z"/><linearGradient id="rVPGOfNYRTVleRwa7UqR6b" x1="12.248" x2="37.159" y1="12.248" y2="37.159" gradientUnits="userSpaceOnUse"><stop offset="0" stop-color="#fed100"/><stop offset="1" stop-color="#e36001"/></linearGradient><path fill="url(#rVPGOfNYRTVleRwa7UqR6b)" d="M24,7C14.611,7,7,14.611,7,24c0,4.694,1.903,8.944,4.979,12.021l24.042-24.042	C32.944,8.903,28.694,7,24,7z"/><radialGradient id="rVPGOfNYRTVleRwa7UqR6c" cx="14.677" cy="16.477" r="32.921" gradientUnits="userSpaceOnUse"><stop offset="0" stop-color="#a6f2ff"/><stop offset="1" stop-color="#0083c4"/></radialGradient><path fill="url(#rVPGOfNYRTVleRwa7UqR6c)" d="M24,44c11.046,0,20-8.954,20-20c0-5.523-2.239-10.523-5.858-14.142L9.858,38.142	C13.477,41.761,18.477,44,24,44z"/><radialGradient id="rVPGOfNYRTVleRwa7UqR6d" cx="37.033" cy="22.438" r="2.592" gradientUnits="userSpaceOnUse"><stop offset="0" stop-color="#60b5e0" stop-opacity="0"/><stop offset=".327" stop-color="#48a2d0" stop-opacity=".327"/><stop offset=".747" stop-color="#2e8dbe" stop-opacity=".747"/><stop offset="1" stop-color="#2586b8"/></radialGradient><path fill="url(#rVPGOfNYRTVleRwa7UqR6d)" d="M36.5,20c-0.828,0-1.5,0.672-1.5,1.5s0.672,1.5,1.5,1.5s1.5-0.672,1.5-1.5S37.328,20,36.5,20z"/><linearGradient id="rVPGOfNYRTVleRwa7UqR6e" x1="3" x2="45" y1="24" y2="24" gradientUnits="userSpaceOnUse"><stop offset="0" stop-color="#c965eb"/><stop offset="1" stop-color="#c767e5"/></linearGradient><path fill="url(#rVPGOfNYRTVleRwa7UqR6e)" d="M5.266,44.888L44.888,5.266c0.149-0.149,0.149-0.39,0-0.539l-1.616-1.616	c-0.149-0.149-0.39-0.149-0.539,0L3.112,42.734c-0.149,0.149-0.149,0.39,0,0.539l1.616,1.616	C4.876,45.037,5.118,45.037,5.266,44.888z"/></svg>