<svg xmlns="http://www.w3.org/2000/svg" viewBox="0 0 48 48"><linearGradient id="V90WcekKm2TIxr27y2a0ca" x1="22.955" x2="22.955" y1="-2.152" y2="18.497" gradientUnits="userSpaceOnUse"><stop offset="0" stop-color="#6d6d6d"/><stop offset=".126" stop-color="#626262"/><stop offset=".886" stop-color="#464646"/><stop offset="1" stop-color="#454545"/></linearGradient><path fill="url(#V90WcekKm2TIxr27y2a0ca)" d="M13,32l-1,0.5L10.5,26C8,23.5,6,15,11,10.5c0.5-1,0.5-3,0-3.5c1.5,0,2,1,2,1c1-2,11-4.5,11-7	c6,1.5,9,4,12,8c0.5,0,1.5-0.5,2-1c-0.5,1-1.5,4.5-2,5c0.5,0,1-1,2-1c-2,2,0.5,5-1.5,6.5C34.46,20.03,13,32,13,32z"/><linearGradient id="V90WcekKm2TIxr27y2a0cb" x1="31.524" x2="15.97" y1="2.437" y2="50.959" gradientUnits="userSpaceOnUse"><stop offset=".025" stop-color="#fcbe9b"/><stop offset=".52" stop-color="#fdc19b"/><stop offset="1" stop-color="#c57d5e"/></linearGradient><path fill="url(#V90WcekKm2TIxr27y2a0cb)" d="M36.5,24.5c0,0.5,0.5,2,0.5,3.5	c0,1-0.5,2.5-1.5,3v1.5c0,0-2.5,2-3,5c0,2-1.5,4-3.5,4.5c0,1-2,4-6.5,4c-8.5,0-11-6-11.5-8c1-1.5,2.5-5.5,2-10c-0.5-0.5-2-2-2-4	s1-3,2-3s2,0.5,3,2.5L16.5,12L26,8.5c0,0,7,2.5,8.5,4.5c0.8,1.07,1.46,2.99,1.89,4.77c0.15,0.6,0.28,1.18,0.37,1.72	C36.92,20.34,37,21.07,37,21.5C37,23,36.5,24,36.5,24.5z"/><path fill="#343434" d="M25,19.5c1-0.5,4-1,6.5-1c-1-0.5-3-1-4.5-1C26,18,25.5,18.5,25,19.5z"/><path fill="#343434" d="M36.76,19.49c-0.57-0.57-1.42-0.83-2.26,0.01c0-0.44,0.39-2.07,1.89-1.73	C36.54,18.37,36.67,18.95,36.76,19.49z"/><linearGradient id="V90WcekKm2TIxr27y2a0cc" x1="24.722" x2="24.722" y1="-2.152" y2="18.497" gradientUnits="userSpaceOnUse"><stop offset="0" stop-color="#6d6d6d"/><stop offset=".126" stop-color="#626262"/><stop offset=".886" stop-color="#464646"/><stop offset="1" stop-color="#454545"/></linearGradient><path fill="url(#V90WcekKm2TIxr27y2a0cc)" d="M35,11c0,0,1,1,0,2.5	c-1.5,0-5.5-1.5-6.5-2.5c-1.5,1.5-5,2-7.5,2v2l1.5,2.5c0,0-1.5,2.5-3,4c0.5,1,1,7,1,8.5c0,0-1.5-0.5-3-0.5c0-5.5-1-5.5-1.5-6L14,15	l3-6l10.5-1.5L35,11z"/><linearGradient id="V90WcekKm2TIxr27y2a0cd" x1="13.375" x2="13.375" y1="-2.152" y2="18.497" gradientUnits="userSpaceOnUse"><stop offset="0" stop-color="#6d6d6d"/><stop offset=".126" stop-color="#626262"/><stop offset=".886" stop-color="#464646"/><stop offset="1" stop-color="#454545"/></linearGradient><path fill="url(#V90WcekKm2TIxr27y2a0cd)" d="M13,32l1-0.5l0.5-2.5c-1-0.5-1.5-1-1.5-1	C12,29,12,31,13,32z"/><path fill="#ab7354" d="M28.75,40.37c-0.629,0-1.259-0.172-1.604-0.517c-0.195-0.195-0.195-0.512,0-0.707	s0.512-0.195,0.707,0c0.302,0.301,1.491,0.301,1.793,0c0.195-0.195,0.512-0.195,0.707,0s0.195,0.512,0,0.707	C30.009,40.198,29.379,40.37,28.75,40.37z"/><path fill="#ab7354" d="M25.043,44.049c-5.229,0-6.842-4.364-7.018-4.891c-0.087-0.262,0.054-0.545,0.316-0.633	c0.264-0.089,0.545,0.055,0.632,0.316c0.161,0.481,1.726,4.679,6.976,4.161c0.278-0.027,0.52,0.173,0.547,0.447	s-0.173,0.52-0.448,0.547C25.701,44.032,25.365,44.049,25.043,44.049z"/><path fill="#ab7354" d="M33,30c-0.276,0-0.5-0.224-0.5-0.5S32.724,29,33,29c0.519,0,1.5-0.209,1.5-1	c0-0.224-0.287-0.924-0.54-1.541c-0.712-1.74-1.688-4.123-0.908-5.683c0.124-0.246,0.423-0.348,0.671-0.224	c0.247,0.124,0.347,0.424,0.224,0.671c-0.577,1.153,0.335,3.382,0.939,4.856C35.278,27.038,35.5,27.6,35.5,28	C35.5,29.313,34.242,30,33,30z"/><path fill="#ab7354" d="M31,30c-0.771,0-1.5-0.729-1.5-1.5c0-0.276,0.224-0.5,0.5-0.5s0.5,0.224,0.5,0.5	c0,0.225,0.276,0.5,0.5,0.5c0.276,0,0.5,0.224,0.5,0.5S31.276,30,31,30z"/><path fill="#fff" d="M30,22c0,0.6-0.55,0.88-1.26,0.94C27.69,23.02,26.3,22.6,26,22c0.3-0.6,1.69-1.02,2.74-0.94	C29.45,21.12,30,21.4,30,22z"/><path fill="#fff" d="M37,22.22c0,0.61-0.74,0.79-1.5,0.71c-0.65-0.07-1.32-0.35-1.5-0.71c0.24-0.48,1.36-0.8,2.16-0.7	C36.64,21.58,37,21.8,37,22.22z"/><path fill="#343434" d="M30,22c0,0.6-0.55,0.88-1.26,0.94c-0.16-0.28-0.24-0.6-0.24-0.94c0-0.34,0.08-0.66,0.24-0.94	C29.45,21.12,30,21.4,30,22z"/><path fill="#343434" d="M37,22.22c0,0.61-0.74,0.79-1.5,0.71c0.02-0.56,0.27-1.06,0.66-1.41C36.64,21.58,37,21.8,37,22.22z"/><path fill="#ab7354" d="M13.5,27c-0.128,0-0.256-0.049-0.354-0.146c-0.466-0.466-1.228-2.181-1.046-3.302	c0.097-0.595,0.421-0.871,0.676-0.999c0.43-0.213,0.875-0.201,1.253,0.032C14.715,23.009,15,24.041,15,24.5	c0,0.276-0.224,0.5-0.5,0.5S14,24.776,14,24.5c0-0.253-0.214-0.891-0.496-1.064c-0.055-0.034-0.127-0.065-0.28,0.012	c-0.025,0.013-0.102,0.051-0.136,0.265c-0.122,0.753,0.486,2.154,0.766,2.435c0.195,0.195,0.195,0.512,0,0.707	C13.756,26.951,13.628,27,13.5,27z"/><path fill="#f0676f" d="M28,34c1,0,1.829-1.276,2.5-1.5c1.5-0.5,5-1,5,0c0,1.5-2,2.5-2,2.5c0.5,1.5,0,3.5-2,3.5S29,35,28,34z"/><path fill="#5c2415" d="M29,34.5c1,0.5,1.5,2,2,2s1,0,1.5,0s0-1.5,0.5-2s1.618-1.5,0.5-1.5c-1,0-2,0.5-2.5,0.5	S30,34.5,29,34.5z"/></svg>