<svg xmlns="http://www.w3.org/2000/svg" viewBox="0 0 48 48"><linearGradient id="pVU1I~b459NomkSqp~mdfa" x1="9.561" x2="38.397" y1="20.885" y2="20.885" gradientUnits="userSpaceOnUse"><stop offset="0" stop-color="#199be2"/><stop offset=".044" stop-color="#1494df"/><stop offset=".167" stop-color="#0984d9"/><stop offset=".31" stop-color="#027bd5"/><stop offset=".512" stop-color="#0078d4"/><stop offset=".708" stop-color="#027bd5"/><stop offset=".842" stop-color="#0884d9"/><stop offset=".956" stop-color="#1393df"/><stop offset="1" stop-color="#199be2"/></linearGradient><path fill="url(#pVU1I~b459NomkSqp~mdfa)" d="M7.546,14.5c1.025-1.777,3.349-2.73,6.6-2.73c0.351,0,0.711,0.011,1.083,0.034	c4.064,0.244,8.777,1.807,13.272,4.402c4.495,2.595,8.206,5.895,10.449,9.292c1.621,2.456,2.302,4.699,2.016,6.502	c0.669,0,1.338,0,2.007,0c0.248-2.239-0.536-4.85-2.355-7.604c-2.411-3.651-6.359-7.175-11.118-9.923	c-4.758-2.747-9.784-4.404-14.152-4.667c-4.616-0.275-8,1.035-9.535,3.693C5.543,13.969,5.36,14.476,5.219,15	c0.698,0,1.467,0,2.103,0C7.392,14.831,7.455,14.658,7.546,14.5z"/><linearGradient id="pVU1I~b459NomkSqp~mdfb" x1="30.044" x2="30.611" y1="6.979" y2="40.794" gradientUnits="userSpaceOnUse"><stop offset="0" stop-color="#199be2"/><stop offset=".019" stop-color="#1697e0"/><stop offset=".134" stop-color="#0a86da"/><stop offset=".257" stop-color="#027bd5"/><stop offset=".401" stop-color="#0078d4"/><stop offset=".689" stop-color="#027ad5"/><stop offset=".829" stop-color="#0782d8"/><stop offset=".935" stop-color="#108fdd"/><stop offset="1" stop-color="#199be2"/></linearGradient><path fill="url(#pVU1I~b459NomkSqp~mdfb)" d="M26,3.35c0,0.76,0,1.415,0,2.162c3.953,1.982,7,9.636,7,18.487s-3.047,16.506-7,18.487	c0,0.747,0,1.402,0,2.162c5.18-1.75,9-10.183,9-20.65S31.18,5.1,26,3.35z"/><linearGradient id="pVU1I~b459NomkSqp~mdfc" x1="9.458" x2="37.47" y1="25.615" y2="25.615" gradientUnits="userSpaceOnUse"><stop offset="0" stop-color="#199be2"/><stop offset=".512" stop-color="#0078d4"/><stop offset=".68" stop-color="#0580d7"/><stop offset=".936" stop-color="#1495df"/><stop offset="1" stop-color="#199be2"/></linearGradient><path fill="url(#pVU1I~b459NomkSqp~mdfc)" d="M42.187,13.5c-0.103-0.178-0.235-0.334-0.354-0.5c-1.007,0-1.818,0-2.852,0	c0.625,0.406,1.129,0.902,1.474,1.5c1.137,1.968,0.602,4.81-1.505,8.001c-2.243,3.397-5.954,6.698-10.449,9.292	c-4.495,2.595-9.208,4.159-13.272,4.402c-3.812,0.231-6.546-0.728-7.682-2.696c-0.562-0.974-0.713-2.162-0.469-3.5	c-0.635,0-1.37,0-2.018,0c-0.24,1.671,0.003,3.198,0.754,4.5c1.4,2.425,4.341,3.729,8.349,3.729c0.386,0,0.781-0.012,1.186-0.037	c4.368-0.262,9.394-1.919,14.152-4.667c4.758-2.748,8.707-6.271,11.118-9.923C43.164,19.747,43.721,16.158,42.187,13.5z"/><linearGradient id="pVU1I~b459NomkSqp~mdfd" x1="6.128" x2="37.866" y1="21.436" y2="35.313" gradientUnits="userSpaceOnUse"><stop offset=".016" stop-color="#199be2"/><stop offset=".136" stop-color="#38b0ec"/><stop offset=".289" stop-color="#59c7f6"/><stop offset=".416" stop-color="#6ed5fd"/><stop offset=".501" stop-color="#75daff"/><stop offset=".589" stop-color="#6dd5fd"/><stop offset=".722" stop-color="#58c6f6"/><stop offset=".884" stop-color="#35aeeb"/><stop offset=".997" stop-color="#199be2"/></linearGradient><path fill="url(#pVU1I~b459NomkSqp~mdfd)" d="M40.965,32c-0.086,0.541-0.249,1.046-0.511,1.5c-1.136,1.968-3.868,2.925-7.682,2.696	c-4.064-0.244-8.777-1.807-13.272-4.402c-4.495-2.595-8.206-5.895-10.449-9.292C7.113,19.566,6.523,16.936,7.322,15	c-0.636,0-1.405,0-2.103,0c-0.658,2.442,0.066,5.427,2.163,8.603c2.411,3.651,6.359,7.175,11.118,9.923	c4.758,2.747,9.784,4.404,14.152,4.667c0.405,0.024,0.8,0.037,1.186,0.037c4.007,0,6.948-1.305,8.349-3.729	c0.439-0.76,0.687-1.603,0.786-2.5C42.303,32,41.634,32,40.965,32z"/><linearGradient id="pVU1I~b459NomkSqp~mdfe" x1="20.068" x2="19.363" y1="7.152" y2="40.595" gradientUnits="userSpaceOnUse"><stop offset="0" stop-color="#199be2"/><stop offset=".219" stop-color="#48bbf1"/><stop offset=".401" stop-color="#69d2fb"/><stop offset=".501" stop-color="#75daff"/><stop offset=".729" stop-color="#4dbff2"/><stop offset=".997" stop-color="#199be2"/></linearGradient><path fill="url(#pVU1I~b459NomkSqp~mdfe)" d="M24,43c-4.878,0-9-8.701-9-19s4.122-19,9-19c0.686,0,1.354,0.189,2,0.513	c0-0.747,0-1.402,0-2.162C25.352,3.131,24.686,3,24,3c-6.168,0-11,9.224-11,21s4.832,21,11,21c0.686,0,1.352-0.131,2-0.35	c0-0.76,0-1.415,0-2.162C25.354,42.811,24.686,43,24,43z"/><linearGradient id="pVU1I~b459NomkSqp~mdff" x1="6.224" x2="38.853" y1="22.59" y2="15.872" gradientUnits="userSpaceOnUse"><stop offset="0" stop-color="#199be2"/><stop offset=".088" stop-color="#38b0ec"/><stop offset=".201" stop-color="#59c7f6"/><stop offset=".294" stop-color="#6ed5fd"/><stop offset=".357" stop-color="#75daff"/><stop offset=".47" stop-color="#6dd5fd"/><stop offset=".642" stop-color="#58c6f6"/><stop offset=".851" stop-color="#35aeeb"/><stop offset=".997" stop-color="#199be2"/></linearGradient><path fill="url(#pVU1I~b459NomkSqp~mdff)" d="M9.051,25.499c2.243-3.397,5.954-6.698,10.449-9.292c4.495-2.595,9.208-4.159,13.272-4.402	c0.371-0.022,0.732-0.034,1.083-0.034c2.157,0,3.894,0.429,5.126,1.23c1.034,0,1.845,0,2.852,0c-1.662-2.311-4.879-3.453-9.18-3.193	c-4.368,0.262-9.394,1.919-14.152,4.667c-4.758,2.748-8.707,6.271-11.118,9.923C6.083,26.364,5.309,28.26,5.059,30	c0.648,0,1.383,0,2.018,0C7.326,28.634,7.986,27.111,9.051,25.499z"/><linearGradient id="pVU1I~b459NomkSqp~mdfg" x1="21.036" x2="26.484" y1="20.813" y2="26.671" gradientUnits="userSpaceOnUse"><stop offset="0" stop-color="#ffcf54"/><stop offset=".261" stop-color="#fdcb4d"/><stop offset=".639" stop-color="#f7c13a"/><stop offset="1" stop-color="#f0b421"/></linearGradient><path fill="url(#pVU1I~b459NomkSqp~mdfg)" d="M20,24c0,2.192,1.791,3.97,4,3.97s4-1.777,4-3.97s-1.791-3.97-4-3.97	c-0.001,0-0.001,0-0.002,0C21.79,20.031,20,21.808,20,24z"/></svg>