<svg xmlns="http://www.w3.org/2000/svg" viewBox="0 0 48 48"><path fill="#d4d4d4" d="M41,4H21c-1.105,0-2,0.895-2,2v36c0,1.105,0.895,2,2,2h20c1.105,0,2-0.895,2-2V6 C43,4.895,42.105,4,41,4z"/><radialGradient id="W4c7jaz_KXMHPMVE3Q3jEa" cx="23.761" cy="9.234" r="39.942" gradientUnits="userSpaceOnUse"><stop offset="0" stop-color="#4b4b4b"/><stop offset=".531" stop-color="#393939"/><stop offset="1" stop-color="#252525"/></radialGradient><path fill="url(#W4c7jaz_KXMHPMVE3Q3jEa)" d="M21,41V7c0-0.552,0.448-1,1-1h18c0.552,0,1,0.448,1,1v34c0,0.552-0.448,1-1,1H22 C21.448,42,21,41.552,21,41z"/><radialGradient id="W4c7jaz_KXMHPMVE3Q3jEb" cx="31" cy="13" r="3" gradientUnits="userSpaceOnUse"><stop offset=".582" stop-opacity=".2"/><stop offset="1" stop-opacity="0"/></radialGradient><circle cx="31" cy="13" r="3" fill="url(#W4c7jaz_KXMHPMVE3Q3jEb)"/><linearGradient id="W4c7jaz_KXMHPMVE3Q3jEc" x1="30.262" x2="32.154" y1="11.588" y2="15.208" gradientUnits="userSpaceOnUse"><stop offset="0" stop-color="#2ded89"/><stop offset="1" stop-color="#0cc262"/></linearGradient><circle cx="31" cy="13" r="2" fill="url(#W4c7jaz_KXMHPMVE3Q3jEc)"/><path d="M40,7v34H22V7H40 M40,6H22c-0.552,0-1,0.448-1,1v34c0,0.552,0.448,1,1,1h18c0.552,0,1-0.448,1-1V7 C41,6.448,40.552,6,40,6L40,6z" opacity=".05"/><path d="M40,6.5c0.276,0,0.5,0.224,0.5,0.5v34c0,0.276-0.224,0.5-0.5,0.5H22c-0.276,0-0.5-0.224-0.5-0.5V7 c0-0.276,0.224-0.5,0.5-0.5H40 M40,6H22c-0.552,0-1,0.448-1,1v34c0,0.552,0.448,1,1,1h18c0.552,0,1-0.448,1-1V7 C41,6.448,40.552,6,40,6L40,6z" opacity=".07"/><path fill="#7d7d7d" d="M23.5,23h-9c-0.828,0-1.5,0.672-1.5,1.5V26l6,1l6-1v-1.5C25,23.672,24.328,23,23.5,23z"/><path fill="#ccc" d="M34,32v-2.172c0-0.53-0.211-1.039-0.586-1.414l-1.828-1.828C31.211,26.211,30.702,26,30.172,26 H7.828c-0.53,0-1.039,0.211-1.414,0.586l-1.828,1.828C4.211,28.789,4,29.298,4,29.828V32l15,1L34,32z"/><linearGradient id="W4c7jaz_KXMHPMVE3Q3jEd" x1="19" x2="19" y1="32.028" y2="44.087" gradientUnits="userSpaceOnUse"><stop offset=".734" stop-color="#a0a0a0"/><stop offset=".79" stop-color="#9e9e9e"/><stop offset=".81" stop-color="#979797"/><stop offset=".824" stop-color="#8c8c8c"/><stop offset=".832" stop-color="#818181"/></linearGradient><path fill="url(#W4c7jaz_KXMHPMVE3Q3jEd)" d="M4,32h30v10c0,1.105-0.895,2-2,2H6c-1.105,0-2-0.895-2-2V32z"/><path d="M12,30c0.552,0,1,0.448,1,1v4c0,0.552-0.448,1-1,1h-2c-0.552,0-1-0.448-1-1v-4c0-0.552,0.448-1,1-1 H12 M12,29h-2c-1.103,0-2,0.897-2,2v4c0,1.103,0.897,2,2,2h2c1.103,0,2-0.897,2-2v-4C14,29.897,13.103,29,12,29L12,29z" opacity=".05"/><path d="M12,30c0.552,0,1,0.448,1,1v4c0,0.552-0.448,1-1,1h-2c-0.552,0-1-0.448-1-1v-4c0-0.552,0.448-1,1-1 H12 M12,29.5h-2c-0.827,0-1.5,0.673-1.5,1.5v4c0,0.827,0.673,1.5,1.5,1.5h2c0.827,0,1.5-0.673,1.5-1.5v-4 C13.5,30.173,12.827,29.5,12,29.5L12,29.5z" opacity=".07"/><path d="M28,30c0.552,0,1,0.448,1,1v4c0,0.552-0.448,1-1,1h-2c-0.552,0-1-0.448-1-1v-4c0-0.552,0.448-1,1-1 H28 M28,29h-2c-1.103,0-2,0.897-2,2v4c0,1.103,0.897,2,2,2h2c1.103,0,2-0.897,2-2v-4C30,29.897,29.103,29,28,29L28,29z" opacity=".05"/><path d="M28,30c0.552,0,1,0.448,1,1v4c0,0.552-0.448,1-1,1h-2c-0.552,0-1-0.448-1-1v-4c0-0.552,0.448-1,1-1 H28 M28,29.5h-2c-0.827,0-1.5,0.673-1.5,1.5v4c0,0.827,0.673,1.5,1.5,1.5h2c0.827,0,1.5-0.673,1.5-1.5v-4 C29.5,30.173,28.827,29.5,28,29.5L28,29.5z" opacity=".07"/><linearGradient id="W4c7jaz_KXMHPMVE3Q3jEe" x1="25" x2="29" y1="33" y2="33" gradientUnits="userSpaceOnUse"><stop offset="0" stop-color="#5e5e5e"/><stop offset="1" stop-color="#545454"/></linearGradient><path fill="url(#W4c7jaz_KXMHPMVE3Q3jEe)" d="M26,30h2c0.552,0,1,0.448,1,1v4c0,0.552-0.448,1-1,1h-2c-0.552,0-1-0.448-1-1v-4 C25,30.448,25.448,30,26,30z"/><linearGradient id="W4c7jaz_KXMHPMVE3Q3jEf" x1="9" x2="13" y1="33" y2="33" gradientUnits="userSpaceOnUse"><stop offset="0" stop-color="#5e5e5e"/><stop offset="1" stop-color="#545454"/></linearGradient><path fill="url(#W4c7jaz_KXMHPMVE3Q3jEf)" d="M10,30h2c0.552,0,1,0.448,1,1v4c0,0.552-0.448,1-1,1h-2c-0.552,0-1-0.448-1-1v-4 C9,30.448,9.448,30,10,30z"/></svg>