<svg xmlns="http://www.w3.org/2000/svg" xmlns:xlink="http://www.w3.org/1999/xlink" data-name="Слой 1" viewBox="0 0 48 48"><defs><linearGradient id="m855U3dFslu_DCsiZIyUub" x1="6" x2="42" y1="-1557" y2="-1557" gradientTransform="matrix(1 0 0 -1 0 -1516)" gradientUnits="userSpaceOnUse"><stop offset="0" stop-color="#c8d3de"/><stop offset="1" stop-color="#c8d3de"/></linearGradient><linearGradient id="m855U3dFslu_DCsiZIyUuc" x1="14.095" x2="31.385" y1="-1526.338" y2="-1559.787" gradientTransform="matrix(1 0 0 -1 0 -1516)" gradientUnits="userSpaceOnUse"><stop offset="0" stop-color="#fcfcfc"/><stop offset=".495" stop-color="#f4f4f4"/><stop offset=".946" stop-color="#e8e8e8"/><stop offset="1" stop-color="#e8e8e8"/></linearGradient><linearGradient id="m855U3dFslu_DCsiZIyUud" x1="24" x2="24" y1="-1517.684" y2="-1539.696" gradientTransform="matrix(1 0 0 -1 0 -1516)" gradientUnits="userSpaceOnUse"><stop offset="0" stop-color="#d43a02"/><stop offset="1" stop-color="#b9360c"/></linearGradient><linearGradient id="m855U3dFslu_DCsiZIyUua" x1="18.88" x2="23.493" y1="26.12" y2="21.507" gradientUnits="userSpaceOnUse"><stop offset="0" stop-color="#3079d6"/><stop offset="1" stop-color="#297cd2"/></linearGradient><linearGradient id="m855U3dFslu_DCsiZIyUue" x1="19.523" x2="23.003" y1="21.959" y2="18.479" xlink:href="#m855U3dFslu_DCsiZIyUua"/><linearGradient id="m855U3dFslu_DCsiZIyUuf" x1="17.165" x2="30.368" y1="38.128" y2="24.925" xlink:href="#m855U3dFslu_DCsiZIyUua"/><linearGradient id="m855U3dFslu_DCsiZIyUug" x1="19.087" x2="24.096" y1="26.087" y2="31.096" data-name="Новый образец градиентной зал 3" gradientUnits="userSpaceOnUse"><stop offset="0" stop-color="#32bdef"/><stop offset="1" stop-color="#1ea2e4"/></linearGradient></defs><path fill="url(#m855U3dFslu_DCsiZIyUub)" d="M42,39H6v2a1.99945,1.99945,0,0,0,2,2H40a1.99945,1.99945,0,0,0,2-2Z"/><path fill="url(#m855U3dFslu_DCsiZIyUuc)" d="M42,39H6V20L24,3,42,20Z"/><path style="isolation:isolate" d="M24,4a1.99525,1.99525,0,0,0-1.326.503L17.315,9.314,6,20v5.39L24,9.428,42,25.39V20L30.685,9.314,25.326,4.503A1.99525,1.99525,0,0,0,24,4Z" opacity=".05"/><path style="isolation:isolate" d="M24,3a2.00219,2.00219,0,0,0-1.326.5L17.315,8.284,6,18.909v5.359L24,8.397,42,24.268V18.909L30.685,8.284,25.326,3.5A2.00219,2.00219,0,0,0,24,3Z" opacity=".07"/><path fill="url(#m855U3dFslu_DCsiZIyUud)" d="M44.495,19.507,25.326,2.503a1.99929,1.99929,0,0,0-2.652,0L3.505,19.507a.99869.99869,0,0,0-.064,1.43l1.636,1.745a.9995.9995,0,0,0,1.39.067L24,7.428,41.533,22.75a1.0005,1.0005,0,0,0,1.39-.067l1.636-1.745A.99983.99983,0,0,0,44.495,19.507Z"/><rect width="3" height="5" x="20" y="21" fill="url(#m855U3dFslu_DCsiZIyUua)"/><path fill="url(#m855U3dFslu_DCsiZIyUue)" d="M21.5,18h0A2.5,2.5,0,0,1,24,20.5v0a0,0,0,0,1,0,0H19a0,0,0,0,1,0,0v0A2.5,2.5,0,0,1,21.5,18Z"/><path fill="url(#m855U3dFslu_DCsiZIyUuf)" d="M14,26a1,1,0,0,0-1,1v3a1,1,0,0,0,1,1H28a2,2,0,0,1,2,2v3h5V32a6,6,0,0,0-6-6Z"/><rect width="9" height="9" x="17" y="24" fill="url(#m855U3dFslu_DCsiZIyUug)" rx="1"/><rect width="11" height="2" x="16" y="20" fill="#35c1f1" rx=".5"/><rect width="7" height="2" x="29" y="35" fill="#35c1f1" rx=".5"/><rect width="3" height="1" x="20" y="23" opacity=".05"/><rect width="3" height=".5" x="20" y="23.5" opacity=".07"/><rect width="5" height="1" x="14" y="28" opacity=".05" transform="rotate(-90 16.5 28.5)"/><rect width="5" height=".5" x="14.25" y="28.25" opacity=".07" transform="rotate(-90 16.75 28.5)"/><rect width="5" height="1" x="24" y="28" opacity=".05" transform="rotate(90 26.5 28.5)"/><rect width="5" height=".5" x="23.75" y="28.25" opacity=".07" transform="rotate(90 26.25 28.5)"/></svg>