<svg xmlns="http://www.w3.org/2000/svg" viewBox="0 0 48 48"><linearGradient id="mkFXQXDY6R5oUTZ79cHk9a" x1="24" x2="24" y1="2.992" y2="8.339" gradientUnits="userSpaceOnUse"><stop offset="0" stop-color="#fede00"/><stop offset="1" stop-color="#ffd000"/></linearGradient><path fill="url(#mkFXQXDY6R5oUTZ79cHk9a)" d="M26,8.333h-4V5c0-1.105,0.895-2,2-2h0c1.105,0,2,0.895,2,2V8.333z"/><path fill="#f5be00" d="M39,23c0-8.284-6.716-15-15-15S9,14.716,9,23c0,0.39,0,13,0,13h30C39,36,39,23.39,39,23z"/><linearGradient id="mkFXQXDY6R5oUTZ79cHk9b" x1="24" x2="24" y1="34.993" y2="40.005" gradientUnits="userSpaceOnUse"><stop offset="0" stop-color="#fede00"/><stop offset="1" stop-color="#ffd000"/></linearGradient><path fill="url(#mkFXQXDY6R5oUTZ79cHk9b)" d="M39,35H9l-3.875,1.55C4.445,36.822,4,37.48,4,38.211v0C4,39.199,4.801,40,5.789,40h36.422	C43.199,40,44,39.199,44,38.211v0c0-0.731-0.445-1.389-1.125-1.661L39,35z"/><linearGradient id="mkFXQXDY6R5oUTZ79cHk9c" x1="24" x2="24" y1="43.919" y2="39.859" gradientUnits="userSpaceOnUse"><stop offset=".486" stop-color="#fbc300"/><stop offset="1" stop-color="#dbaa00"/></linearGradient><path fill="url(#mkFXQXDY6R5oUTZ79cHk9c)" d="M28,40c0,2.209-1.791,4-4,4s-4-1.791-4-4H28z"/><path fill="#cf1928" d="M33.177,12c-1.158,0-4.242-1.11-9.165-2.931C19.086,10.891,15.997,12,14.823,12	C12.715,12,11,10.206,11,8s1.715-4,3.823-4c1.164,0,4.255,1.112,9.188,2.937C28.942,5.113,32.027,4,33.177,4C35.285,4,37,5.794,37,8	S35.285,12,33.177,12z M26.905,8.003C29.687,9.018,32.502,10,33.177,10C34.182,10,35,9.103,35,8s-0.818-2-1.823-2	C32.51,6,29.683,6.988,26.905,8.003z M14.823,6C13.818,6,13,6.897,13,8s0.818,2,1.823,2c0.688,0,3.501-0.979,6.294-1.997	C18.327,6.985,15.503,6,14.823,6z"/></svg>