<svg xmlns="http://www.w3.org/2000/svg" viewBox="0 0 48 48"><linearGradient id="sGHLCsCJzVXlVwUEInvdBa" x1="-1767.32" x2="-1734.053" y1="737.337" y2="709.269" gradientTransform="rotate(180 -863 372.362)" gradientUnits="userSpaceOnUse"><stop offset="0" stop-color="#a1aab3"/><stop offset="1" stop-color="#8f979e"/></linearGradient><path fill="url(#sGHLCsCJzVXlVwUEInvdBa)" d="M4,37h40c1.105,0,2-0.895,2-2V9c0-1.105-0.895-2-2-2H4C2.895,7,2,7.895,2,9v26	C2,36.105,2.895,37,4,37z"/><linearGradient id="sGHLCsCJzVXlVwUEInvdBb" x1="19.999" x2="28.44" y1="735.615" y2="708.417" gradientTransform="matrix(1 0 0 -1 0 744.724)" gradientUnits="userSpaceOnUse"><stop offset="0" stop-color="#6d7479"/><stop offset="1" stop-color="#323538"/></linearGradient><rect width="40" height="26" x="4" y="9" fill="url(#sGHLCsCJzVXlVwUEInvdBb)"/><linearGradient id="sGHLCsCJzVXlVwUEInvdBc" x1="24" x2="24" y1="707.732" y2="703.716" gradientTransform="matrix(1 0 0 -1 0 744.724)" gradientUnits="userSpaceOnUse"><stop offset="0" stop-color="#484b4f"/><stop offset=".23" stop-color="#656d75"/><stop offset=".367" stop-color="#727d86"/></linearGradient><path fill="url(#sGHLCsCJzVXlVwUEInvdBc)" d="M37.5,39H30v-2H18v2h-7.5	c-0.276,0-0.5,0.224-0.5,0.5v1c0,0.276,0.224,0.5,0.5,0.5h27c0.276,0,0.5-0.224,0.5-0.5v-1C38,39.224,37.776,39,37.5,39z"/><path fill="#30dc80" d="M8,31h32c0-4.86-2.175-9.205-5.594-12.139l3.32-4.245c0.34-0.435,0.263-1.063-0.172-1.404	c-0.437-0.342-1.065-0.262-1.404,0.171l-3.338,4.267C30.284,15.979,27.258,15,24,15c-3.275,0-6.318,0.988-8.854,2.677l-3.358-4.293	c-0.34-0.434-0.969-0.513-1.404-0.171c-0.435,0.34-0.512,0.969-0.172,1.404l3.346,4.278C10.16,21.828,8,26.158,8,31z M32.5,24	c0.828,0,1.5,0.672,1.5,1.5S33.328,27,32.5,27S31,26.328,31,25.5S31.672,24,32.5,24z M15.5,24c0.828,0,1.5,0.672,1.5,1.5	S16.328,27,15.5,27S14,26.328,14,25.5S14.672,24,15.5,24z"/><path d="M36.938,13c0.215,0,0.432,0.069,0.616,0.213	c0.435,0.34,0.512,0.969,0.172,1.404l-3.32,4.245C37.825,21.795,40,26.14,40,31H8c0-4.842,2.16-9.172,5.558-12.106l-3.346-4.278	c-0.34-0.435-0.263-1.063,0.172-1.404c0.183-0.143,0.4-0.213,0.615-0.213c0.298,0,0.592,0.132,0.789,0.384l3.358,4.293	C17.682,15.988,20.725,15,24,15c3.258,0,6.284,0.979,8.812,2.651l3.338-4.267C36.346,13.132,36.64,13,36.938,13 M32.5,27	c0.828,0,1.5-0.672,1.5-1.5S33.328,24,32.5,24S31,24.672,31,25.5S31.672,27,32.5,27 M15.5,27c0.828,0,1.5-0.672,1.5-1.5	S16.328,24,15.5,24S14,24.672,14,25.5S14.672,27,15.5,27 M36.938,12.5c-0.465,0-0.897,0.21-1.183,0.576l-3.057,3.908	C30.084,15.358,27.087,14.5,24,14.5c-3.107,0-6.119,0.866-8.742,2.509l-3.077-3.933c-0.287-0.366-0.718-0.576-1.183-0.576	c-0.338,0-0.657,0.11-0.923,0.319c-0.65,0.509-0.766,1.454-0.257,2.105l3.057,3.908C9.453,21.962,7.5,26.369,7.5,31	c0,0.276,0.224,0.5,0.5,0.5h32c0.276,0,0.5-0.224,0.5-0.5c0-4.651-1.966-9.071-5.41-12.202l3.03-3.874	c0.509-0.651,0.393-1.596-0.257-2.105C37.595,12.61,37.276,12.5,36.938,12.5L36.938,12.5z M32.5,26.5c-0.551,0-1-0.449-1-1	s0.449-1,1-1s1,0.449,1,1S33.051,26.5,32.5,26.5L32.5,26.5z M15.5,26.5c-0.551,0-1-0.449-1-1s0.449-1,1-1s1,0.449,1,1	S16.051,26.5,15.5,26.5L15.5,26.5z" opacity=".07"/><path d="M40,32H8c-0.552,0-1-0.449-1-1c0-4.595,1.89-9.022,5.2-12.22l-2.775-3.548c-0.679-0.868-0.525-2.127,0.342-2.807 c0.846-0.662,2.148-0.5,2.809,0.342l2.804,3.583C17.988,14.812,20.959,14,24,14c3.022,0,5.978,0.803,8.577,2.327l2.785-3.56 C35.744,12.28,36.317,12,36.937,12c0.001,0,0.002,0,0.003,0c0.45,0,0.877,0.147,1.231,0.425c0.867,0.679,1.021,1.938,0.342,2.807 l-2.747,3.513C39.098,21.945,41,26.385,41,31C41,31.551,40.552,32,40,32z M10.999,13c-0.225,0-0.438,0.074-0.616,0.213 c-0.434,0.339-0.51,0.969-0.171,1.403l3.342,4.273l-0.341,0.312C9.899,22.23,8,26.531,8,31h32c0-4.488-1.912-8.801-5.246-11.832 l-0.344-0.312l3.315-4.239c0.339-0.434,0.262-1.064-0.172-1.404C37.377,13.073,37.164,13,36.938,13h-0.001c0,0,0,0-0.001,0 c-0.31,0-0.596,0.14-0.787,0.384l-3.334,4.262l-0.382-0.237C29.901,15.833,26.985,15,24,15c-3.004,0-5.935,0.841-8.476,2.433 l-0.382,0.239l-3.354-4.288C11.597,13.14,11.31,13,10.999,13z M32.5,27c-0.827,0-1.5-0.673-1.5-1.5s0.673-1.5,1.5-1.5 s1.5,0.673,1.5,1.5S33.327,27,32.5,27z M32.5,25c-0.275,0-0.5,0.224-0.5,0.5s0.225,0.5,0.5,0.5s0.5-0.224,0.5-0.5 S32.775,25,32.5,25z M15.5,27c-0.827,0-1.5-0.673-1.5-1.5s0.673-1.5,1.5-1.5s1.5,0.673,1.5,1.5S16.327,27,15.5,27z M15.5,25 c-0.275,0-0.5,0.224-0.5,0.5s0.225,0.5,0.5,0.5s0.5-0.224,0.5-0.5S15.775,25,15.5,25z" opacity=".07"/></svg>