<svg xmlns="http://www.w3.org/2000/svg" xmlns:xlink="http://www.w3.org/1999/xlink" data-name="Слой 1" viewBox="0 0 48 48"><defs><linearGradient id="nV1tXr~X7nnSIdVBQoBiLa" x1="5" x2="5" y1="21.326" y2="7.846" data-name="Безымянный градиент 115" gradientUnits="userSpaceOnUse"><stop offset="0" stop-color="#eba84b"/><stop offset=".255" stop-color="#e8a044"/><stop offset=".641" stop-color="#e18b30"/><stop offset="1" stop-color="#d97218"/></linearGradient><linearGradient id="nV1tXr~X7nnSIdVBQoBiLc" x1="43" x2="43" y1="21.326" y2="7.846" xlink:href="#nV1tXr~X7nnSIdVBQoBiLa"/><linearGradient id="nV1tXr~X7nnSIdVBQoBiLd" x1="26" x2="26" y1="44.435" y2="34.834" xlink:href="#nV1tXr~X7nnSIdVBQoBiLa"/><linearGradient id="nV1tXr~X7nnSIdVBQoBiLe" x1="22" x2="22" y1="43.391" y2="36.543" data-name="Безымянный градиент 155" gradientUnits="userSpaceOnUse"><stop offset="0" stop-color="#eba84b"/><stop offset="1" stop-color="#d97218"/></linearGradient><linearGradient id="nV1tXr~X7nnSIdVBQoBiLf" x1="24" x2="24" y1="6.217" y2="63.088" xlink:href="#nV1tXr~X7nnSIdVBQoBiLa"/><linearGradient id="nV1tXr~X7nnSIdVBQoBiLb" x1="17" x2="17" y1="33.935" y2="17.677" data-name="Безымянный градиент 18" gradientUnits="userSpaceOnUse"><stop offset=".002" stop-color="#454545"/><stop offset=".013" stop-color="#464646"/><stop offset=".874" stop-color="#626262"/><stop offset="1" stop-color="#6d6d6d"/></linearGradient><linearGradient id="nV1tXr~X7nnSIdVBQoBiLg" x1="31" x2="31" y1="33.935" y2="17.677" xlink:href="#nV1tXr~X7nnSIdVBQoBiLb"/></defs><path fill="#c2620e" d="M17,14a.99943.99943,0,0,1-1-1A5,5,0,0,0,6,13a1,1,0,0,1-2,0,7,7,0,0,1,14,0A.99943.99943,0,0,1,17,14Z"/><path fill="#c2620e" d="M43,14a.99943.99943,0,0,1-1-1,5,5,0,0,0-10,0,1,1,0,0,1-2,0,7,7,0,0,1,14,0A.99943.99943,0,0,1,43,14Z"/><circle cx="5" cy="13" r="2" fill="url(#nV1tXr~X7nnSIdVBQoBiLa)"/><circle cx="43" cy="13" r="2" fill="url(#nV1tXr~X7nnSIdVBQoBiLc)"/><path fill="#c2620e" d="M13,35v4a5,5,0,0,0,5,5h0a9.472,9.472,0,0,1-1-4.236V35Z"/><path fill="#c2620e" d="M35,35v4a5,5,0,0,1-5,5h0a9.472,9.472,0,0,0,1-4.236V35Z"/><path fill="url(#nV1tXr~X7nnSIdVBQoBiLd)" d="M24,36h4a0,0,0,0,1,0,0v4a2,2,0,0,1-2,2h0a2,2,0,0,1-2-2V36A0,0,0,0,1,24,36Z"/><path fill="url(#nV1tXr~X7nnSIdVBQoBiLe)" d="M20,36h4a0,0,0,0,1,0,0v3a2,2,0,0,1-2,2h0a2,2,0,0,1-2-2V36A0,0,0,0,1,20,36Z"/><path fill="url(#nV1tXr~X7nnSIdVBQoBiLf)" d="M33.94313,37A1.969,1.969,0,0,0,35.69,35.97491,28.52511,28.52511,0,0,0,39,23c0-9-6.7157-15-15-15S9,14,9,23a28.52511,28.52511,0,0,0,3.31,12.97491A1.969,1.969,0,0,0,14.05687,37Z"/><circle cx="17" cy="29" r="2" fill="#fff"/><circle cx="31" cy="29" r="2" fill="#fff"/><path fill="url(#nV1tXr~X7nnSIdVBQoBiLb)" d="M17,27a1.977,1.977,0,0,0-.58374.09674.99635.99635,0,1,1-1.31952,1.31946A1.97743,1.97743,0,0,0,15,29a2,2,0,1,0,2-2Z"/><path fill="url(#nV1tXr~X7nnSIdVBQoBiLg)" d="M31,27a1.977,1.977,0,0,0-.58374.09674.99635.99635,0,1,1-1.31952,1.31946A1.97743,1.97743,0,0,0,29,29a2,2,0,1,0,2-2Z"/></svg>