<svg xmlns="http://www.w3.org/2000/svg" viewBox="0 0 48 48"><linearGradient id="2WoppoSiH2KFtCmkCVqZUa" x1="20.766" x2="25.05" y1="30.008" y2="44.746" gradientUnits="userSpaceOnUse"><stop offset="0" stop-color="#33bef0"/><stop offset="1" stop-color="#0a85d9"/></linearGradient><path fill="url(#2WoppoSiH2KFtCmkCVqZUa)" d="M24,30.571c-8.837,0-16,4.921-16,10.286V42c0,1.105,0.895,2,2,2h28c1.105,0,2-0.895,2-2	v-1.143C40,35.492,32.837,30.571,24,30.571z"/><path fill="#d6a121" d="M29,31c0,1.897-2,4-5,4s-5-2.103-5-4c0-2.637,0-7.035,0-7.035h10C29,23.965,29,28.363,29,31z"/><linearGradient id="2WoppoSiH2KFtCmkCVqZUb" x1="32.917" x2="34.251" y1="20" y2="20" gradientUnits="userSpaceOnUse"><stop offset="0" stop-color="#c48f0c"/><stop offset=".251" stop-color="#d19b16"/><stop offset=".619" stop-color="#dca51f"/><stop offset="1" stop-color="#e0a922"/></linearGradient><path fill="url(#2WoppoSiH2KFtCmkCVqZUb)" d="M32.916,18h-0.527v4h0.703c0.515,0,0.954-0.312,1.041-0.74l0.344-1.703	C34.642,18.743,33.897,18,32.916,18z"/><linearGradient id="2WoppoSiH2KFtCmkCVqZUc" x1="-615.083" x2="-613.749" y1="20" y2="20" gradientTransform="matrix(-1 0 0 1 -600 0)" gradientUnits="userSpaceOnUse"><stop offset="0" stop-color="#c48f0c"/><stop offset=".251" stop-color="#d19b16"/><stop offset=".619" stop-color="#dca51f"/><stop offset="1" stop-color="#e0a922"/></linearGradient><path fill="url(#2WoppoSiH2KFtCmkCVqZUc)" d="M15.084,18h0.527v4h-0.703c-0.515,0-0.954-0.312-1.041-0.74l-0.344-1.703	C13.358,18.743,14.103,18,15.084,18z"/><radialGradient id="2WoppoSiH2KFtCmkCVqZUd" cx="24" cy="17.72" r="12.224" gradientTransform="translate(2.84 3.078) scale(.8816)" gradientUnits="userSpaceOnUse"><stop offset="0" stop-color="#ffcf54"/><stop offset=".261" stop-color="#fdcb4d"/><stop offset=".639" stop-color="#f7c13a"/><stop offset="1" stop-color="#f0b421"/></radialGradient><path fill="url(#2WoppoSiH2KFtCmkCVqZUd)" d="M24,6.4c-4.441,0-9,0.675-9,10.275c0,0.768,0,5.877,0,6.698C15,26.8,20.4,31,24,31	s9-4.2,9-7.627c0-0.821,0-5.929,0-6.698C33,7.075,28.441,6.4,24,6.4z"/><radialGradient id="2WoppoSiH2KFtCmkCVqZUe" cx="14.297" cy="4.067" r="28.915" gradientTransform="translate(2.84 3.078) scale(.8816)" gradientUnits="userSpaceOnUse"><stop offset="0" stop-color="#c26715"/><stop offset=".508" stop-color="#b85515"/><stop offset="1" stop-color="#ad3f16"/></radialGradient><path fill="url(#2WoppoSiH2KFtCmkCVqZUe)" d="M24,5.545c-4.354,0-5,1.636-5,1.636c-1.77,0.261-5,2.854-5,5.818c0,1.654,0.265,2.876,1,7	c0.545-6.545,2.249-9,4-9c1.267,0,2.273,1,5,1c2.303,0,2.875-1,5-1c3,0,4,7.968,4,9c0.601-3.01,1-5.555,1-7	C34,9.57,30.209,5.545,24,5.545z"/><radialGradient id="2WoppoSiH2KFtCmkCVqZUf" cx="21.937" cy="6.003" r="33.398" gradientTransform="matrix(.8431 0 0 .8816 4.07 3.078)" gradientUnits="userSpaceOnUse"><stop offset="0" stop-color="#c26715"/><stop offset=".508" stop-color="#b85515"/><stop offset="1" stop-color="#ad3f16"/></radialGradient><path fill="url(#2WoppoSiH2KFtCmkCVqZUf)" d="M24.219,5c-4.164,0-5.216,2.182-5.216,2.182c-0.042,1.159,0.522,2.182,0.522,2.182	S20.285,11,24.625,11C27.245,11,31,9.365,31,5C31,5,30.157,5,24.219,5z"/><path d="M27.724,44h7.671l4.447-4.448c-0.412-1.906-1.693-3.705-3.606-5.186l-8.136,8.137L27.724,44z" opacity=".05"/><path d="M36.619,34.691l-7.924,7.925l-0.2,0.367l0,0l-0.001,0L28.239,44h6.449l4.987-4.988	C39.223,37.439,38.154,35.954,36.619,34.691z" opacity=".07"/><path fill="#c94f60" d="M47.781,29.141l-1.922-1.921c-0.292-0.293-0.768-0.293-1.061,0l-0.904,0.905l2.981,2.981l0.905-0.904	C48.073,29.908,48.073,29.434,47.781,29.141"/><path fill="#f0f0f0" d="M29.003,43.016L28,47l3.985-1.003l0.418-3.456L29.003,43.016z"/><path fill="#edbe00" d="M44.333,33.648L31.985,45.996l-2.981-2.981l12.348-12.348L44.333,33.648z"/><linearGradient id="2WoppoSiH2KFtCmkCVqZUg" x1="44.112" x2="44.112" y1="28.312" y2="33.801" gradientUnits="userSpaceOnUse"><stop offset="0" stop-color="#dedede"/><stop offset="1" stop-color="#d6d6d6"/></linearGradient><path fill="url(#2WoppoSiH2KFtCmkCVqZUg)" d="M41.349,30.667l2.543-2.544l2.983,2.981l-2.543,2.544L41.349,30.667z"/><path fill="#787878" d="M28.508,44.985L28,47l2.014-0.508L28.508,44.985z"/></svg>