<svg xmlns="http://www.w3.org/2000/svg" viewBox="0 0 48 48"><linearGradient id="qwamNSwhehDvINrcbwgqDa" x1="10.957" x2="25.528" y1="8.571" y2="28.078" gradientUnits="userSpaceOnUse"><stop offset="0" stop-color="#0d61a9"/><stop offset="1" stop-color="#16528c"/></linearGradient><path fill="url(#qwamNSwhehDvINrcbwgqDa)" d="M30,30H6c-1.657,0-3-1.343-3-3V9c0-1.657,1.343-3,3-3h24c1.657,0,3,1.343,3,3v18	C33,28.657,31.657,30,30,30z"/><path fill="#50e6ff" d="M42.1,42H18.9c-1.602,0-2.9-1.287-2.9-2.875v-17.25C16,20.287,17.298,19,18.9,19h23.2	c1.602,0,2.9,1.287,2.9,2.875v17.25C45,40.713,43.702,42,42.1,42z"/><path fill="#199be2" d="M22,6.5v1C22,7.776,22.224,8,22.5,8h3C25.776,8,26,7.776,26,7.5v-1C26,6.224,25.776,6,25.5,6h-3	C22.224,6,22,6.224,22,6.5z"/><path fill="#199be2" d="M16.5,8h3C19.776,8,20,7.776,20,7.5v-1C20,6.224,19.776,6,19.5,6h-3C16.224,6,16,6.224,16,6.5v1	C16,7.776,16.224,8,16.5,8z"/><path fill="#199be2" d="M10.5,8h3C13.776,8,14,7.776,14,7.5v-1C14,6.224,13.776,6,13.5,6h-3C10.224,6,10,6.224,10,6.5v1	C10,7.776,10.224,8,10.5,8z"/><path fill="#199be2" d="M3.5,17h1C4.776,17,5,16.776,5,16.5v-3C5,13.224,4.776,13,4.5,13h-1C3.224,13,3,13.224,3,13.5v3	C3,16.776,3.224,17,3.5,17z"/><path fill="#199be2" d="M28.5,8H31v2.5c0,0.276,0.224,0.5,0.5,0.5h1c0.276,0,0.5-0.224,0.5-0.5V8c0-1.105-0.895-2-2-2h-2.5	C28.224,6,28,6.224,28,6.5v1C28,7.776,28.224,8,28.5,8z"/><path fill="#199be2" d="M5,22.5v-3C5,19.224,4.776,19,4.5,19h-1C3.224,19,3,19.224,3,19.5v3C3,22.776,3.224,23,3.5,23h1	C4.776,23,5,22.776,5,22.5z"/><path fill="#199be2" d="M5,10.5V8h2.5C7.776,8,8,7.776,8,7.5v-1C8,6.224,7.776,6,7.5,6H5C3.895,6,3,6.895,3,8v2.5	C3,10.776,3.224,11,3.5,11h1C4.776,11,5,10.776,5,10.5z"/><path fill="#199be2" d="M31,13.5v3c0,0.276,0.224,0.5,0.5,0.5h1c0.276,0,0.5-0.224,0.5-0.5v-3c0-0.276-0.224-0.5-0.5-0.5h-1	C31.224,13,31,13.224,31,13.5z"/><path fill="#199be2" d="M10,28.5v1c0,0.276,0.224,0.5,0.5,0.5h3c0.276,0,0.5-0.224,0.5-0.5v-1c0-0.276-0.224-0.5-0.5-0.5h-3	C10.224,28,10,28.224,10,28.5z"/><path fill="#199be2" d="M4.5,25h-1C3.224,25,3,25.224,3,25.5V28c0,1.105,0.895,2,2,2h2.5C7.776,30,8,29.776,8,29.5v-1	C8,28.224,7.776,28,7.5,28H5v-2.5C5,25.224,4.776,25,4.5,25z"/><path d="M32.331,39c-0.555,0-1.055-0.328-1.274-0.837l-1.185-2.726l-1.582,1.319	c-0.254,0.21-0.569,0.324-0.892,0.324c-0.771,0-1.398-0.626-1.398-1.396V24.388c0-0.555,0.329-1.055,0.839-1.273	C27.009,23.039,27.196,23,27.391,23c0.368,0,0.715,0.145,0.978,0.407l7.895,7.895c0.388,0.386,0.513,0.946,0.325,1.463	c-0.186,0.516-0.642,0.866-1.189,0.913l-1.601,0.144l1.153,2.652c0.146,0.342,0.152,0.718,0.017,1.063	c-0.135,0.344-0.397,0.615-0.738,0.764l-1.346,0.585C32.712,38.961,32.524,39,32.331,39z" opacity=".05"/><path d="M32.331,38.5c-0.354,0-0.675-0.21-0.815-0.535l-1.451-3.339l-2.095,1.747	c-0.163,0.135-0.365,0.208-0.571,0.208c-0.495,0-0.898-0.402-0.898-0.896V24.388c0-0.354,0.21-0.674,0.536-0.813	c0.11-0.049,0.23-0.074,0.354-0.074c0.234,0,0.456,0.093,0.624,0.261l7.895,7.895c0.249,0.248,0.329,0.607,0.209,0.938	c-0.119,0.331-0.412,0.556-0.763,0.586l-2.293,0.206l1.43,3.287c0.094,0.218,0.098,0.459,0.011,0.68s-0.255,0.394-0.473,0.488	l-1.346,0.585C32.572,38.476,32.453,38.5,32.331,38.5L32.331,38.5z" opacity=".07"/><path fill="#fff" d="M35.556,32.009l-7.895-7.895c-0.124-0.124-0.292-0.14-0.428-0.081C27.102,24.09,27,24.218,27,24.388	v11.297c0,0.335,0.391,0.518,0.649,0.304l2.608-2.175l1.718,3.953c0.085,0.196,0.314,0.286,0.51,0.201l1.347-0.586	c0.196-0.085,0.286-0.314,0.201-0.51l-1.705-3.923l2.984-0.267C35.646,32.652,35.794,32.246,35.556,32.009z"/></svg>