<svg xmlns="http://www.w3.org/2000/svg" viewBox="0 0 48 48"><radialGradient id="rs~gGS_vpmfRMk7q2PZ~va" cx="22.091" cy="-260.035" r="19.624" gradientTransform="matrix(1 0 0 -1 0 -240)" gradientUnits="userSpaceOnUse"><stop offset=".376" stop-color="#261103"/><stop offset=".68" stop-color="#431d06"/><stop offset="1" stop-color="#662c09"/></radialGradient><path fill="url(#rs~gGS_vpmfRMk7q2PZ~va)" d="M24,9C13.704,9,11.15,25.625,11.15,25.625c0,2.96,1.375,5.553,4.253,6.24	C17.869,32.454,20.972,33,24,33s6.131-0.546,8.596-1.134c2.879-0.687,4.253-3.281,4.253-6.24C36.85,25.625,34.296,9,24,9z"/><radialGradient id="rs~gGS_vpmfRMk7q2PZ~vb" cx="24" cy="40.098" r="26.592" gradientUnits="userSpaceOnUse"><stop offset="0" stop-color="#eba84b"/><stop offset=".255" stop-color="#e8a044"/><stop offset=".641" stop-color="#e18b30"/><stop offset="1" stop-color="#d97218"/></radialGradient><path fill="url(#rs~gGS_vpmfRMk7q2PZ~vb)" d="M24,30.571c-8.837,0-16,4.921-16,10.286V42c0,1.105,0.895,2,2,2h28c1.105,0,2-0.895,2-2	v-1.143C40,35.492,32.837,30.571,24,30.571z"/><path fill="#e5852e" d="M29,34c0,1.897-2,4-5,4s-5-2.103-5-4c0-2.637,0-7.035,0-7.035h10C29,26.965,29,31.363,29,34z"/><radialGradient id="rs~gGS_vpmfRMk7q2PZ~vc" cx="24.234" cy="22.391" r="22.163" gradientUnits="userSpaceOnUse"><stop offset="0" stop-color="#eba84b"/><stop offset=".255" stop-color="#e8a044"/><stop offset=".641" stop-color="#e18b30"/><stop offset="1" stop-color="#d97218"/></radialGradient><path fill="url(#rs~gGS_vpmfRMk7q2PZ~vc)" d="M24,8.071c3.948,0,8,0.693,8,9.722c0,0.723,0,5.736,0,6.508C32,27.526,27.101,32,24,32	s-8-4.474-8-7.698c0-0.772,0-5.785,0-6.508C16,9,20.052,8.071,24,8.071z"/><path fill="#e53935" d="M25,26c-0.75,0-1,1-1,1s-0.042-1-1-1s-3,1-3,1s2.2,2,4,2s4-2,4-2S25.75,26,25,26z"/><path fill="#e0e0e0" d="M22,20c0,0-1.343,1-3,1s-3-0.833-3-1c0-0.828,0.343-2,2-2S22,20,22,20z"/><path fill="#3e2723" d="M19,19c1.657,0,3,1,3,1s-1.063-1.563-3-2s-3,0-3,0v2C16.413,19.419,17.695,19,19,19z"/><path fill="#212121" d="M18,20c0,0.551,0.448,1,1,1s1-0.449,1-1s-0.448-1-1-1S18,19.449,18,20"/><path fill="#e0e0e0" d="M26,20c0,0,1.343,1,3,1s3-0.75,3-1c0-0.828-0.343-2-2-2S26,20,26,20z"/><path fill="#3e2723" d="M29,19c-1.657,0-3,1-3,1s1.063-1.563,3-2s3,0,3,0v2C31.587,19.419,30.304,19,29,19z"/><path fill="#212121" d="M30,20c0,0.551-0.448,1-1,1s-1-0.449-1-1s0.448-1,1-1S30,19.449,30,20"/><path fill="#662c09" d="M22,17.971C21.75,17,18.75,15,16,15.5c0,1,0,1.471,0,1.471S19.25,16.5,22,17.971z"/><path fill="#662c09" d="M26,17.971C26.25,17,29.25,15,32,15.5c0,1,0,1.471,0,1.471S28.75,16.5,26,17.971z"/><linearGradient id="rs~gGS_vpmfRMk7q2PZ~vd" x1="24" x2="24" y1="44.794" y2="36.33" gradientUnits="userSpaceOnUse"><stop offset="0" stop-color="#ffda94"/><stop offset="1" stop-color="#fff0ce"/></linearGradient><path fill="url(#rs~gGS_vpmfRMk7q2PZ~vd)" d="M31,38c-2.025,0-4.045,1.226-5.146,3.041C25.5,41.625,24.888,42,24.206,42h-0.412	c-0.682,0-1.294-0.375-1.648-0.959C21.045,39.226,19.025,38,17,38c-2.209,0-4,2.686-4,6h9h1h2h1.25H35C35,40.686,33.209,38,31,38z"/><path fill="#c0392b" d="M23,26c-0.958,0-3,1-3,1h4C24,27,23.958,26,23,26z M24,27h4c0,0-2.25-1-3-1S24,27,24,27z"/><radialGradient id="rs~gGS_vpmfRMk7q2PZ~ve" cx="24.087" cy="4.685" r="34.449" gradientUnits="userSpaceOnUse"><stop offset="0" stop-color="#a34f27"/><stop offset=".587" stop-color="#8b3817"/><stop offset="1" stop-color="#802d10"/></radialGradient><path fill="url(#rs~gGS_vpmfRMk7q2PZ~ve)" d="M45,38.625c0-1.248-0.631-2.348-1.591-3c0.96-0.652,1.591-1.752,1.591-3	c0-1.289-0.677-2.413-1.69-3.056C43.738,28.988,44,28.277,44,27.5c0-1.499-0.947-2.768-2.271-3.267C41.899,23.856,42,23.441,42,23	c0-1.339-0.883-2.46-2.094-2.846C39.452,16.863,36.92,5,24,5S8.548,16.863,8.094,20.154C6.883,20.54,6,21.661,6,23	c0,0.441,0.101,0.856,0.271,1.233C4.947,24.732,4,26.001,4,27.5c0,0.777,0.262,1.488,0.69,2.069C3.677,30.212,3,31.336,3,32.625	c0,1.248,0.631,2.348,1.591,3C3.631,36.277,3,37.377,3,38.625c0,1.394,0.795,2.589,1.948,3.196C4.367,42.368,4,43.139,4,44h3.75H10	h2.25H16c0-1.122-0.624-2.089-1.536-2.604C15.391,40.767,16,39.705,16,38.5c0-1.281-0.696-2.39-1.723-3	c1.027-0.61,1.723-1.719,1.723-3c0-0.981-0.406-1.865-1.056-2.5C15.594,29.365,16,28.481,16,27.5c0-0.7-0.211-1.349-0.565-1.896	C16.379,24.949,17,23.861,17,22.625c0-0.907-0.345-1.726-0.896-2.362C16.528,16.688,18.418,13,24,13s7.472,3.688,7.896,7.263	C31.345,20.899,31,21.718,31,22.625c0,1.236,0.621,2.324,1.565,2.979C32.211,26.151,32,26.8,32,27.5c0,0.981,0.406,1.865,1.056,2.5	C32.406,30.635,32,31.519,32,32.5c0,1.281,0.696,2.39,1.723,3C32.696,36.11,32,37.219,32,38.5c0,1.205,0.609,2.267,1.536,2.896	C32.624,41.911,32,42.878,32,44h3.75H38h2.25H44c0-0.861-0.367-1.632-0.948-2.179C44.205,41.214,45,40.019,45,38.625z"/></svg>