<svg xmlns="http://www.w3.org/2000/svg" viewBox="0 0 48 48"><radialGradient id="8WrMA5HQvgu8JpUvPKb9Pa" cx="23.608" cy="19.519" r="23.672" gradientUnits="userSpaceOnUse"><stop offset=".655" stop-color="#076cb3"/><stop offset=".746" stop-color="#138cd2"/><stop offset=".886" stop-color="#199ae0"/><stop offset="1" stop-color="#1898de"/></radialGradient><path fill="url(#8WrMA5HQvgu8JpUvPKb9Pa)" d="M10.557,7.798L3.16,8.453c-0.524,0.046-0.73,0.703-0.327,1.04l4.629,3.876L10.557,7.798z"/><radialGradient id="8WrMA5HQvgu8JpUvPKb9Pb" cx="24.04" cy="22.204" r="24.951" gradientUnits="userSpaceOnUse"><stop offset=".766" stop-color="#076cb3"/><stop offset=".848" stop-color="#138cd2"/><stop offset=".961" stop-color="#199ae0"/><stop offset="1" stop-color="#1898de"/></radialGradient><path fill="url(#8WrMA5HQvgu8JpUvPKb9Pb)" d="M17.125,40.26l5.016,6.481c0.322,0.416,0.985,0.235,1.052-0.286l0.717-5.629L17.125,40.26z"/><radialGradient id="8WrMA5HQvgu8JpUvPKb9Pc" cx="24.109" cy="21.788" r="24.224" gradientUnits="userSpaceOnUse"><stop offset=".643" stop-color="#076cb3"/><stop offset=".792" stop-color="#138cd2"/><stop offset=".908" stop-color="#199ae0"/><stop offset="1" stop-color="#1898de"/></radialGradient><path fill="url(#8WrMA5HQvgu8JpUvPKb9Pc)" d="M44.609,9.151L39.58,11.37l3.319,4.979l2.499-6.445C45.588,9.414,45.09,8.939,44.609,9.151z"/><linearGradient id="8WrMA5HQvgu8JpUvPKb9Pd" x1="23.075" x2="30.163" y1="27.179" y2="-13.022" gradientUnits="userSpaceOnUse"><stop offset="0" stop-color="#1ea2e4"/><stop offset="1" stop-color="#32bdef"/></linearGradient><path fill="url(#8WrMA5HQvgu8JpUvPKb9Pd)" d="M43.867,24.078c-0.324,3.135-1.371,6.055-2.971,8.591c-3.104,4.937-8.444,8.418-14.243,9.136 c-0.225,0.03-0.445,0.074-0.672,0.096C25.329,41.964,24.669,42,24,42c-2.216,0-4.341-0.375-6.334-1.041l-1.392-1.798 c-0.267-0.345-0.204-0.841,0.141-1.108l7.581-5.867c0.416-0.322,1.013,0.02,0.946,0.541L24.4,36.981 c7.455-0.197,13.543-5.825,14.462-13.079C38.927,23.392,39.342,23,39.856,23h3.013C43.452,23,43.927,23.498,43.867,24.078z M18.715,7.969C20.359,7.346,22.138,7,24,7c4.89,0,9.226,2.344,11.963,5.966l-4.015,1.772c-0.481,0.212-0.465,0.9,0.025,1.09 l8.937,3.465c0.407,0.158,0.864-0.044,1.022-0.451l1.126-2.904c-0.573-1.802-1.393-3.493-2.422-5.033l-0.022,0.01 c-0.883-1.323-1.92-2.535-3.083-3.611C33.411,3.461,27.622,1.516,22.015,2.1c-1.946,0.197-3.808,0.678-5.55,1.392 c-0.569,0.233-0.815,0.903-0.507,1.436l1.511,2.616C17.719,7.978,18.247,8.146,18.715,7.969z M12.708,7.607L9.856,7.86 c-1.361,1.361-2.526,2.918-3.45,4.624l0.016,0.013c-0.16,0.294-0.308,0.594-0.454,0.897c-3.576,7.217-2.134,16.448,3.44,22.253 c0.434,0.463,0.889,0.907,1.365,1.327c0.014,0.013,0.028,0.026,0.043,0.039c0.481,0.421,1.223,0.314,1.542-0.24l1.53-2.65 c0.236-0.408,0.145-0.916-0.197-1.24C10.805,30.15,9,26.288,9,22c0-2.218,0.485-4.32,1.35-6.213l3.094,2.59 c0.403,0.337,1.013,0.019,0.966-0.504l-0.846-9.548C13.526,7.89,13.143,7.569,12.708,7.607z"/></svg>