<svg xmlns="http://www.w3.org/2000/svg" viewBox="0 0 48 48"><linearGradient id="mtuDdk9cuEGTitvi7Vz2Ta" x1="13.798" x2="42.909" y1="32" y2="32" gradientUnits="userSpaceOnUse"><stop offset="0" stop-color="#701f94"/><stop offset=".106" stop-color="#7e26a5"/><stop offset=".242" stop-color="#892bb3"/><stop offset=".412" stop-color="#8f2ebb"/><stop offset=".727" stop-color="#912fbd"/></linearGradient><path fill="url(#mtuDdk9cuEGTitvi7Vz2Ta)" d="M42.643,31.357l-9.091-9.091C33.378,22.092,33.145,22,32.909,22 c-0.117,0-0.235,0.023-0.348,0.069C32.221,22.21,32,22.541,32,22.909V28H13.798l0.198,7.996L32,36v5.091 c0,0.368,0.221,0.699,0.561,0.84c0.341,0.14,0.731,0.063,0.991-0.197l9.091-9.091C42.998,32.288,42.998,31.712,42.643,31.357z"/><linearGradient id="mtuDdk9cuEGTitvi7Vz2Tb" x1="62.909" x2="62.909" y1="35.999" y2="7" gradientTransform="matrix(-1 0 0 1 72.91 0)" gradientUnits="userSpaceOnUse"><stop offset="0" stop-color="#ae4cd5"/><stop offset="1" stop-color="#ac4ad5"/></linearGradient><path fill="url(#mtuDdk9cuEGTitvi7Vz2Tb)" d="M14,8.967v27.032l-5.657-5.595C6.843,28.929,6,26.928,6,24.841V8.967C6,7.881,6.895,7,8,7h4 C13.105,7,14,7.881,14,8.967z"/></svg>