<svg xmlns="http://www.w3.org/2000/svg" viewBox="0 0 48 48"><path fill="#1a9ba1" d="M5.692,6.963c0,0-0.318,3.733,1.138,6.658s5.465,8.941,7.045,7.932 c-0.744-0.986-0.245-2.096,0.315-2.637c0.363-0.351,2.067-1.961,3.219-3.049c0.64-0.604,0.791-1.563,0.368-2.335L13.7,6.094 c-0.442-0.807-1.391-1.19-2.269-0.917L5.692,6.963z"/><path fill="#1a9ba1" d="M38.899,40.17c0,0-3.733,0.318-6.658-1.138s-8.941-5.465-7.932-7.045 c0.986,0.744,2.096,0.245,2.637-0.315c0.351-0.363,1.961-2.067,3.049-3.219c0.604-0.64,1.563-0.791,2.335-0.368l7.438,4.077 c0.807,0.442,1.19,1.391,0.917,2.269L38.899,40.17z"/><path fill="#37c6d0" d="M18.758,27.104C24.674,33.02,31.561,37.356,38.9,40.169l-1.07,1.848 c-0.524,0.905-1.633,1.313-2.605,0.927c-7.092-2.819-13.741-7.089-19.48-12.827S5.736,17.729,2.917,10.637 c-0.386-0.971,0.022-2.08,0.927-2.604l1.848-1.07C8.506,14.301,12.842,21.189,18.758,27.104z"/><linearGradient id="eYXbYJyN2mFrM6S7_vZ9ja" x1="248.125" x2="248.125" y1="1481.314" y2="1470.352" gradientTransform="matrix(-1 0 0 1 284.625 -1460.776)" gradientUnits="userSpaceOnUse"><stop offset=".478" stop-color="#ad4bd5"/><stop offset=".758" stop-color="#9f3dc8"/><stop offset=".787" stop-color="#9a38c4"/><stop offset=".868" stop-color="#9533c0"/><stop offset="1" stop-color="#912fbd"/></linearGradient><path fill="url(#eYXbYJyN2mFrM6S7_vZ9ja)" d="M39,11v10.072C39,21.585,38.585,22,38.072,22h-3.143C34.416,22,34,21.584,34,21.071V11H39z"/><linearGradient id="eYXbYJyN2mFrM6S7_vZ9jb" x1="-1169.376" x2="-1152.533" y1="-105.275" y2="-105.275" gradientTransform="matrix(1 0 0 -1 1191.553 -96.775)" gradientUnits="userSpaceOnUse"><stop offset="0" stop-color="#c965eb"/><stop offset="1" stop-color="#c767e5"/></linearGradient><path fill="url(#eYXbYJyN2mFrM6S7_vZ9jb)" d="M39.021,11l-3.285-3.113C34.458,6.675,32.763,6,31.001,6H29V3.122 c0-0.433-0.512-0.661-0.834-0.372L22.45,7.888c-0.363,0.327-0.363,0.896,0,1.223l5.716,5.138C28.488,14.538,29,14.31,29,13.877V11 H39.021z"/></svg>