<svg xmlns="http://www.w3.org/2000/svg" viewBox="0 0 48 48"><radialGradient id="gU1WHg1bqcVaABlqZK82ca" cx="14.961" cy="2.99" r="56.266" gradientUnits="userSpaceOnUse"><stop offset="0" stop-color="#ffcf54"/><stop offset=".261" stop-color="#fdcb4d"/><stop offset=".639" stop-color="#f7c13a"/><stop offset="1" stop-color="#f0b421"/></radialGradient><path fill="url(#gU1WHg1bqcVaABlqZK82ca)" d="M31,39.4l2.6,0.5c2.9,0.6,5.6-1.5,5.8-4.4L40,29l2.9-1.2c1-0.4,1.4-1.6,0.8-2.6L40,19	c-0.6-7.6-4.9-15-16-15C13,4,7,11.4,7,20c0,3.7,1.3,7.9,3.3,10.6c1.8,2.5,2.7,5.5,2.7,8.5v2.8c0,1.105,0.895,2,2,2h14	c1.105,0,2-0.895,2-2V39.4z"/><radialGradient id="gU1WHg1bqcVaABlqZK82cb" cx="15" cy="12" r="11" gradientUnits="userSpaceOnUse"><stop offset=".385" stop-color="#2ebbff"/><stop offset="1" stop-color="#037cd6"/></radialGradient><circle cx="15" cy="12" r="11" fill="url(#gU1WHg1bqcVaABlqZK82cb)"/><radialGradient id="gU1WHg1bqcVaABlqZK82cc" cx="13.79" cy="20.9" r="5.902" gradientTransform="translate(1 .286) scale(.9286)" gradientUnits="userSpaceOnUse"><stop offset="0" stop-color="#6e757b"/><stop offset="1" stop-color="#4a4e52"/></radialGradient><path fill="url(#gU1WHg1bqcVaABlqZK82cc)" d="M17.571,20h-5.143c0,0.366,0,1.429,0,1.429C12.429,22.849,13.58,24,15,24	s2.571-1.151,2.571-2.571C17.571,21.429,17.571,20.366,17.571,20z"/><path fill="#fefefe" d="M21,11c0-3.314-2.686-6-6-6s-6,2.686-6,6c0,3,3.429,5.571,3.429,8.571V20h5.143v-0.429	C17.571,16.571,21,14,21,11z"/></svg>