<svg xmlns="http://www.w3.org/2000/svg" viewBox="0 0 48 48"><linearGradient id="LSTPtvpw6aDveMqxoZwJwa" x1="17.122" x2="36.237" y1="114.058" y2="75.508" gradientTransform="matrix(1 0 0 -1 0 118)" gradientUnits="userSpaceOnUse"><stop offset="0" stop-color="#32bdef"/><stop offset="1" stop-color="#1ea2e4"/></linearGradient><path fill="url(#LSTPtvpw6aDveMqxoZwJwa)" d="M23.828,6.172L6.2,23.8c-1.574,1.574-1.574,4.126,0,5.7l12.3,12.3	c1.574,1.574,4.126,1.574,5.7,0l17.628-17.628c0.75-0.75,1.172-1.768,1.172-2.828V9c0-2.2-1.8-4-4-4H26.657	C25.596,5,24.579,5.421,23.828,6.172z M37,13c-1.1,0-2-0.9-2-2s0.9-2,2-2s2,0.9,2,2S38.1,13,37,13"/><radialGradient id="LSTPtvpw6aDveMqxoZwJwb" cx="37.659" cy="37.785" r="11.463" gradientUnits="userSpaceOnUse"><stop offset=".642"/><stop offset=".936" stop-opacity=".098"/><stop offset="1" stop-opacity="0"/></radialGradient><path fill="url(#LSTPtvpw6aDveMqxoZwJwb)" d="M38,26c-6.627,0-12,5.373-12,12	c0,0.629,0.058,1.244,0.154,1.846l13.692-13.692C39.244,26.058,38.629,26,38,26z" opacity=".3"/><linearGradient id="LSTPtvpw6aDveMqxoZwJwc" x1="30.929" x2="45.071" y1="87.071" y2="72.929" gradientTransform="matrix(1 0 0 -1 0 118)" gradientUnits="userSpaceOnUse"><stop offset="0" stop-color="#f44f5a"/><stop offset=".443" stop-color="#ee3d4a"/><stop offset="1" stop-color="#e52030"/></linearGradient><path fill="url(#LSTPtvpw6aDveMqxoZwJwc)" d="M48,38c0,5.522-4.478,10-10,10s-10-4.478-10-10s4.478-10,10-10S48,32.478,48,38z"/><path fill="#fff" d="M41.536,33.757l0.707,0.707c0.195,0.195,0.195,0.512,0,0.707l-7.071,7.071	c-0.195,0.195-0.512,0.195-0.707,0l-0.707-0.707c-0.195-0.195-0.195-0.512,0-0.707l7.071-7.071	C41.024,33.562,41.34,33.562,41.536,33.757z"/><path fill="#fff" d="M42.243,41.536l-0.707,0.707c-0.195,0.195-0.512,0.195-0.707,0l-7.071-7.071	c-0.195-0.195-0.195-0.512,0-0.707l0.707-0.707c0.195-0.195,0.512-0.195,0.707,0l7.071,7.071	C42.438,41.024,42.438,41.34,42.243,41.536z"/></svg>