<svg xmlns="http://www.w3.org/2000/svg" id="Layer_1" x="0" y="0" version="1.1" viewBox="0 0 48 48" xml:space="preserve"><linearGradient id="SVGID_1_" x1="21.516" x2="45.592" y1="1049.638" y2="1085.673" gradientTransform="translate(0 -1032)" gradientUnits="userSpaceOnUse"><stop offset="0" stop-color="#28afea"/><stop offset="1" stop-color="#0b88da"/></linearGradient><path fill="url(#SVGID_1_)" d="M9,26l36-14.3V38c0,1.1-0.9,2-2,2H9V26z"/><linearGradient id="SVGID_2_" x1="1.408" x2="36.331" y1="1056.41" y2="1078.164" gradientTransform="translate(0 -1032)" gradientUnits="userSpaceOnUse"><stop offset="0" stop-color="#28afea"/><stop offset="1" stop-color="#0b88da"/></linearGradient><path fill="url(#SVGID_2_)" d="M3,11.7V38c0,1.1,0.9,2,2,2h38c0.5,0,0.9-0.2,1.3-0.5L3,11.7z"/><path d="M3,11h42v1.7L27.7,26.1c-2.2,1.7-5.2,1.7-7.4,0L3,12.7V11z" opacity=".05"/><path d="M43,40c1.1,0,2-0.9,2-2V28h-1c-1.1,0-2,0.9-2,2v6h-3v-1c0-1.1-0.9-2-2-2h-3c-1.1,0-2,0.9-2,2v1h-3	c-1.1,0-2,0.9-2,2v2H43z" opacity=".05"/><path d="M43,40c1.1,0,2-0.9,2-2v-9.5h-1c-0.8,0-1.5,0.7-1.5,1.5v6.5h-4V35c0-0.8-0.7-1.5-1.5-1.5h-3	c-0.8,0-1.5,0.7-1.5,1.5v1.5H29c-0.8,0-1.5,0.7-1.5,1.5v2H43z" opacity=".07"/><path d="M3,10.5h42v1.7L27,25.3c-1.8,1.3-4.2,1.3-5.9,0L3,12.2V10.5z" opacity=".07"/><path fill="#50e6ff" d="M5,8h38c1.1,0,2,0.9,2,2v1.7L26.3,24.5c-1.4,0.9-3.1,0.9-4.5,0L3,11.7V10C3,8.9,3.9,8,5,8z"/><path fill="#ed6c47" d="M48,48h-5V30c0-0.6,0.4-1,1-1h3c0.6,0,1,0.4,1,1V48z"/><rect width="5" height="11" x="38" y="37" fill="#cf1928"/><path fill="#cf1928" d="M33,48h-5V38c0-0.6,0.4-1,1-1h4V48z"/><path fill="#ed6c47" d="M38,48h-5V35c0-0.6,0.4-1,1-1h3c0.6,0,1,0.4,1,1V48z"/></svg>