<svg xmlns="http://www.w3.org/2000/svg" xmlns:xlink="http://www.w3.org/1999/xlink" data-name="Слой 1" viewBox="0 0 48 48"><defs><linearGradient id="IxgIVrvrZVp8YzV9B9xrva" x1="16.5" x2="16.5" y1="24.337" y2="30.881" data-name="Новый образец градиентной зал 3" gradientUnits="userSpaceOnUse"><stop offset="0" stop-color="#32bdef"/><stop offset="1" stop-color="#1ea2e4"/></linearGradient><linearGradient id="IxgIVrvrZVp8YzV9B9xrvb" x1="16.5" x2="16.5" y1="26.652" y2="38.158" xlink:href="#IxgIVrvrZVp8YzV9B9xrva"/><linearGradient id="IxgIVrvrZVp8YzV9B9xrvc" x1="14.798" x2="20.994" y1="30.833" y2="48.963" data-name="Безымянный градиент 73" gradientUnits="userSpaceOnUse"><stop offset="0" stop-color="#9332bf"/><stop offset="1" stop-color="#912fbd"/></linearGradient></defs><path fill="#eb6773" d="M34.64552,2.50663a8.27239,8.27239,0,0,0-1.22017,1.00628L23.51326,13.425a9.47345,9.47345,0,0,0-1.88481,9.94726h0a9.47342,9.47342,0,0,0,9.94726-1.8848l9.91209-9.91209a8.26,8.26,0,0,0,.956-1.147C43.89944,8.32038,36.74349,1.0898,34.64552,2.50663Z"/><path fill="#e52030" d="M26.78834,10.1492l-3.2758,3.2758a9.47344,9.47344,0,0,0-1.8848,9.94726h0L27.364,17.636Z"/><path fill="#e52030" d="M34.8508,18.21166l-3.2758,3.2758a9.47346,9.47346,0,0,1-9.94726,1.8848h0L27.364,17.636Z"/><path fill="#f09ca2" d="M43.70205,2.75425l-.229-.96106a.3593.3593,0,0,0-.26628-.26628l-.96107-.229A9.42616,9.42616,0,0,0,34.1474,2.872l.56989,7.41075,7.41074.56989A9.42565,9.42565,0,0,0,43.70205,2.75425Z"/><path fill="#b31523" d="M10.29289,33.293,38.14645,6.14656a.5.5,0,0,1,.7071.70711L11.70711,34.70722a1.00009,1.00009,0,0,1-1.43241-1.396Z"/><path fill="url(#IxgIVrvrZVp8YzV9B9xrva)" d="M22,26.00011v4H11v-4a1.003,1.003,0,0,1,1-1h9a.38965.38965,0,0,1,.15.02A.99143.99143,0,0,1,22,26.00011Z"/><path fill="url(#IxgIVrvrZVp8YzV9B9xrvb)" d="M22.581,45.00011H10.419a2,2,0,0,1-1.88771-1.3393L6.18561,36.959a3.46772,3.46772,0,0,1,.71679-3.48878L11,29.00011H22l4.0976,4.47011a3.46772,3.46772,0,0,1,.71679,3.48878l-2.34564,6.70181A2,2,0,0,1,22.581,45.00011Z"/><path fill="#199be2" d="M21.15,25.02007l-3.88,3.98-.97,1-4.59,4.71a1.00418,1.00418,0,1,1-1.44-1.4.02147.02147,0,0,0,.02-.02l3.38-3.29,1.02-1,4.11-4H21A.38965.38965,0,0,1,21.15,25.02007Z"/><path fill="url(#IxgIVrvrZVp8YzV9B9xrvc)" d="M25.66669,33.00011H7.33331l-.43091.4701A3.46763,3.46763,0,0,0,6.18561,36.959l2.34564,6.70184a2.00007,2.00007,0,0,0,1.8877,1.33929h12.1621a2.00007,2.00007,0,0,0,1.8877-1.33929L26.81439,36.959a3.46763,3.46763,0,0,0-.71679-3.48877Z"/></svg>