<svg xmlns="http://www.w3.org/2000/svg" viewBox="0 0 48 48"><path fill="#35c1f1" d="M24,47L24,47c-3.866,0-7-3.134-7-7V5h14v35C31,43.866,27.866,47,24,47z"/><path fill="#50e6ff" d="M31,5H17c-1.105,0-2-0.895-2-2v0c0-1.105,0.895-2,2-2h14c1.105,0,2,0.895,2,2v0 C33,4.105,32.105,5,31,5z"/><path fill="#00c92c" d="M17,16v24c0,3.866,3.134,7,7,7s7-3.134,7-7V16H17z"/><circle cx="26" cy="30" r="3" fill="#9af5b2"/><circle cx="22" cy="22" r="2" fill="#9af5b2"/><circle cx="23.5" cy="37.5" r="1.5" fill="#9af5b2"/></svg>