<svg xmlns="http://www.w3.org/2000/svg" id="Layer_1" x="0" y="0" version="1.1" viewBox="0 0 48 48" xml:space="preserve"><linearGradient id="SVGID_1_" x1="3.965" x2="43.922" y1="4.413" y2="43.477" gradientUnits="userSpaceOnUse"><stop offset="0" stop-color="#7dd8f3"/><stop offset="1" stop-color="#45b0d0"/></linearGradient><path fill="url(#SVGID_1_)" d="M40,42H8c-1.1,0-2-0.9-2-2V8c0-1.1,0.9-2,2-2h32c1.1,0,2,0.9,2,2v32C42,41.1,41.1,42,40,42z"/><g opacity=".05"><path d="M25.7,22h-2.3v-4.1h-4.3V20c-0.6-1.1-1.8-2.1-4.4-2.1H10v12.4h4.3v-3.6h0.1c1.5,0,2.7-0.4,3.7-1.2c0.4-0.4,0.7-0.8,1-1.3v6 h4.3V26h2.3v4.2h4.3V17.8h-4.3V22z M14.3,22.8v-1.2c0.8,0,0.8,0.3,0.8,0.6C15.1,22.6,15.1,22.8,14.3,22.8z"/><path d="M35.1,17.8h-4.7v12.4h4.3v-3.6h0.1c1.5,0,2.7-0.4,3.7-1.2c1-0.8,1.5-1.9,1.5-3.3C40,20.5,39.4,17.8,35.1,17.8z M34.8,22.8 v-1.2c0.8,0,0.8,0.3,0.8,0.6C35.5,22.6,35.5,22.8,34.8,22.8z"/></g><path d="M10.5,29.7V18.3h4.2c3.6,0,4.4,2.1,4.4,3.8c0,1.2-0.4,2.2-1.3,2.9c-0.8,0.7-2,1.1-3.3,1.1h-0.6v3.6H10.5z M14.3,23.3c1.2,0,1.4-0.5,1.4-1.1c0-0.6-0.2-1.1-1.4-1.1h-0.4v2.2H14.3z" opacity=".07"/><path fill="#fff" d="M13.3,25.6v3.6H11V18.8h3.7c2.6,0,3.9,1.1,3.9,3.3c0,1-0.4,1.9-1.1,2.5s-1.7,1-3,1H13.3z M13.3,20.6v3.2h0.9	c1.2,0,1.9-0.5,1.9-1.6c0-1.1-0.6-1.6-1.9-1.6H13.3z"/><polygon points="26.2,29.7 26.2,25.5 22.9,25.5 22.9,29.7 19.6,29.7 19.6,18.3 22.9,18.3 22.9,22.5 26.2,22.5 26.2,18.3 29.6,18.3 29.6,29.7" opacity=".07"/><path fill="#fff" d="M29.1,29.2h-2.3V25h-4.3v4.2h-2.3V18.8h2.3V23h4.3v-4.1h2.3V29.2z"/><path d="M30.9,29.7V18.3h4.2c3.6,0,4.4,2.1,4.4,3.8c0,1.2-0.4,2.2-1.3,2.9c-0.8,0.7-2,1.1-3.3,1.1h-0.6v3.6H30.9z M34.7,23.3c1.2,0,1.4-0.5,1.4-1.1c0-0.6-0.2-1.1-1.4-1.1h-0.4v2.2H34.7z" opacity=".07"/><path fill="#fff" d="M33.8,25.6v3.6h-2.3V18.8h3.7c2.6,0,3.9,1.1,3.9,3.3c0,1-0.4,1.9-1.1,2.5c-0.7,0.6-1.7,1-3,1H33.8z M33.8,20.6	v3.2h0.9c1.2,0,1.9-0.5,1.9-1.6c0-1.1-0.6-1.6-1.9-1.6H33.8z"/></svg>