<svg xmlns="http://www.w3.org/2000/svg" viewBox="0 0 48 48"><path fill="#f5be00" d="M30.191,18.883l-1.62-1.172l2.462-3.403l1.62,1.172L30.191,18.883z"/><path fill="#fee119" d="M32.421,16.508l-2.292-1.658c-0.458-0.332-0.553-0.924-0.222-1.382	c0.332-0.458,0.924-0.553,1.382-0.222l2.292,1.658c0.458,0.332,0.553,0.924,0.222,1.382c-0.166,0.229-0.347,0.36-0.644,0.407	C32.863,16.741,32.65,16.674,32.421,16.508z"/><path fill="#f5be00" d="M34.722,23.692l-1.414-1.414l2.97-2.97l1.414,1.414L34.722,23.692z"/><path fill="#fee119" d="M37.3,21.7l-2-2c-0.4-0.4-0.4-1,0-1.4c0.4-0.4,1-0.4,1.4,0l2,2c0.4,0.4,0.4,1,0,1.4	C38.5,21.9,38.3,22,38,22S37.5,21.9,37.3,21.7z"/><path fill="#f5be00" d="M37.014,28.462l-0.703-1.873l3.932-1.475l0.703,1.873L37.014,28.462z"/><path fill="#fee119" d="M40.185,27.715l-0.994-2.648c-0.199-0.53,0.049-1.076,0.579-1.275	c0.53-0.199,1.076,0.049,1.275,0.579l0.994,2.648c0.199,0.53-0.049,1.076-0.579,1.275c-0.265,0.099-0.488,0.108-0.761-0.016	C40.425,28.153,40.284,27.979,40.185,27.715z"/><path fill="#d35230" d="M18,19H9V6.5C9,6.224,9.224,6,9.5,6h8C17.776,6,18,6.224,18,6.5V19z"/><path fill="#d35230" d="M39,34H9V13h9C29.598,13,39,22.402,39,34L39,34z"/><path fill="#ed6c47" d="M39.997,33H8.003C6.897,33,6,33.897,6,35.003V41.5C6,41.776,6.224,42,6.5,42h35	c0.276,0,0.5-0.224,0.5-0.5v-6.497C42,33.897,41.103,33,39.997,33z"/><path fill="#5c2415" d="M11,20c0,1.105,0.895,2,2,2c1.105,0,2-0.895,2-2s-0.895-2-2-2C11.895,18,11,18.895,11,20z"/><path fill="#f5be00" d="M18.3,27.7l-6-7c-0.4-0.4-0.3-1,0.1-1.4s1-0.3,1.4,0.1l6,7c0.4,0.4,0.3,1-0.1,1.4	C19.5,27.9,19.2,28,19,28C18.7,28,18.4,27.9,18.3,27.7z"/><path fill="#fee119" d="M17,27c0,1.105,0.895,2,2,2s2-0.895,2-2s-0.895-2-2-2S17,25.895,17,27z"/><path fill="#ff8f6b" d="M41.5,42h-35C6.224,42,6,41.776,6,41.5V40h36v1.5C42,41.776,41.776,42,41.5,42z"/><path fill="#ed6c47" d="M18,8H9V6.5C9,6.224,9.224,6,9.5,6h8C17.776,6,18,6.224,18,6.5V8z"/></svg>