<svg xmlns="http://www.w3.org/2000/svg" viewBox="0 0 48 48"><path fill="#50e6ff" d="M39,42H11c-3.3,0-6-2.7-6-6V8c0-1.1,0.9-2,2-2h32c1.1,0,2,0.9,2,2v32C41,41.1,40.1,42,39,42z"/><path fill="#007ad9" d="M23,42H7c-1.1,0-2-0.9-2-2V24c0-1.1,0.9-2,2-2h16c1.1,0,2,0.9,2,2v16C25,41.1,24.1,42,23,42z"/><path fill="#007ad9" d="M21.586,22.757l11.213-11.213l2.657,2.657L24.243,25.414L21.586,22.757z"/><path fill="#007ad9" d="M37,17.793V11c0-0.552-0.448-1-1-1h-6.793c-0.445,0-0.669,0.539-0.354,0.854l7.293,7.293	C36.461,18.461,37,18.238,37,17.793z"/></svg>