<svg xmlns="http://www.w3.org/2000/svg" viewBox="0 0 48 48"><linearGradient id="XoOnSvL8oxac7zBj_qdTUa" x1="6.776" x2="20.174" y1="109.247" y2="95.849" gradientTransform="matrix(1 0 0 -1 0 118)" gradientUnits="userSpaceOnUse"><stop offset="0" stop-color="#d43a02"/><stop offset="1" stop-color="#b9360c"/></linearGradient><path fill="url(#XoOnSvL8oxac7zBj_qdTUa)" d="M20.266,22.052c1.659-1.706,2.684-4.032,2.684-6.599c0-5.233-4.242-9.475-9.475-9.475	S4,10.221,4,15.454c0,2.567,1.025,4.892,2.684,6.599c0.009,0.009,6.047,6.053,6.047,6.053c0.411,0.411,1.078,0.411,1.489,0	C14.22,28.105,20.258,22.062,20.266,22.052z"/><radialGradient id="XoOnSvL8oxac7zBj_qdTUb" cx="78.546" cy="62.778" r="4.738" gradientTransform="matrix(.9333 0 0 -.9333 -59.831 74.045)" gradientUnits="userSpaceOnUse"><stop offset=".177"/><stop offset="1" stop-opacity="0"/></radialGradient><circle cx="13.475" cy="15.454" r="4.422" fill="url(#XoOnSvL8oxac7zBj_qdTUb)"/><circle cx="13.475" cy="15.454" r="3.79" fill="#f9f9f9"/><linearGradient id="XoOnSvL8oxac7zBj_qdTUc" x1="27.826" x2="41.224" y1="95.982" y2="82.584" gradientTransform="matrix(1 0 0 -1 0 118)" gradientUnits="userSpaceOnUse"><stop offset="0" stop-color="#33bef0"/><stop offset="1" stop-color="#0a85d9"/></linearGradient><path fill="url(#XoOnSvL8oxac7zBj_qdTUc)" d="M41.316,35.317C42.975,33.611,44,31.286,44,28.719c0-5.233-4.242-9.475-9.475-9.475	s-9.475,4.242-9.475,9.475c0,2.567,1.025,4.892,2.684,6.599c0.009,0.009,6.047,6.053,6.047,6.053c0.411,0.411,1.078,0.411,1.489,0	C35.27,41.37,41.308,35.327,41.316,35.317z"/><radialGradient id="XoOnSvL8oxac7zBj_qdTUd" cx="101.1" cy="48.565" r="4.738" gradientTransform="matrix(.9333 0 0 -.9333 -59.831 74.045)" gradientUnits="userSpaceOnUse"><stop offset=".177"/><stop offset="1" stop-opacity="0"/></radialGradient><circle cx="34.525" cy="28.719" r="4.422" fill="url(#XoOnSvL8oxac7zBj_qdTUd)"/><circle cx="34.525" cy="28.719" r="3.79" fill="#f9f9f9"/></svg>