<svg xmlns="http://www.w3.org/2000/svg" viewBox="0 0 48 48"><linearGradient id="TGohdboeFZ5qh_QRnsMyCa" x1="23.429" x2="29.454" y1="15.209" y2="38.742" gradientTransform="rotate(44.998 41.13 11.02) scale(1.4286 1.2501)" gradientUnits="userSpaceOnUse"><stop offset="0" stop-color="#32bdef"/><stop offset="1" stop-color="#1ea2e4"/></linearGradient><path fill="url(#TGohdboeFZ5qh_QRnsMyCa)" d="M22,4L3.586,22.414C2.88,23.12,2.818,24.218,3.388,25H43L22,4z"/><linearGradient id="TGohdboeFZ5qh_QRnsMyCb" x1="23.822" x2="29.847" y1="15.108" y2="38.641" gradientTransform="rotate(44.998 41.13 11.02) scale(1.4286 1.2501)" gradientUnits="userSpaceOnUse"><stop offset="0" stop-color="#32bdef"/><stop offset="1" stop-color="#1ea2e4"/></linearGradient><path fill="url(#TGohdboeFZ5qh_QRnsMyCb)" d="M21.757,43.414c0.781,0.781,2.047,0.781,2.828,0L43,25H3.388	c0.061,0.084,0.123,0.167,0.198,0.243L21.757,43.414z"/><linearGradient id="TGohdboeFZ5qh_QRnsMyCc" x1="23.194" x2="23.194" y1="24.891" y2="44.547" gradientUnits="userSpaceOnUse"><stop offset="0" stop-color="#d160f6"/><stop offset="1" stop-color="#c545ed"/></linearGradient><path fill="url(#TGohdboeFZ5qh_QRnsMyCc)" d="M21.757,43.414c0.781,0.781,2.047,0.781,2.828,0L43,25H3.388	c0.061,0.084,0.123,0.167,0.198,0.243L21.757,43.414z"/><linearGradient id="TGohdboeFZ5qh_QRnsMyCd" x1="43" x2="43" y1="34.677" y2="44.209" gradientUnits="userSpaceOnUse"><stop offset="0" stop-color="#d160f6"/><stop offset="1" stop-color="#c545ed"/></linearGradient><path fill="url(#TGohdboeFZ5qh_QRnsMyCd)" d="M46,41c0-1.244-1.689-4.281-2.533-5.72c-0.209-0.357-0.726-0.357-0.935,0	C41.689,36.719,40,39.756,40,41c0,1.658,1.343,3,3,3S46,42.658,46,41z"/><linearGradient id="TGohdboeFZ5qh_QRnsMyCe" x1="33.15" x2="31.697" y1="13.85" y2="15.303" gradientUnits="userSpaceOnUse"><stop offset="0" stop-color="#2aa4f4"/><stop offset="1" stop-color="#007ad9"/></linearGradient><path fill="url(#TGohdboeFZ5qh_QRnsMyCe)" d="M43,26c-0.256,0-0.512-0.098-0.707-0.293l-21-21c-0.391-0.391-0.391-1.023,0-1.414	s1.023-0.391,1.414,0l21,21c0.391,0.391,0.391,1.023,0,1.414C43.512,25.902,43.256,26,43,26z"/></svg>