<svg xmlns="http://www.w3.org/2000/svg" baseProfile="basic" viewBox="0 0 48 48"><path fill="#999" d="M1,20v18c0,1.657,1.343,3,3,3h40c1.657,0,3-1.343,3-3V20H1z"/><path fill="#cad2d9" d="M43.908,23c2.157,0,3.649-2.154,2.892-4.173l-3.462-9.231C42.753,8.034,41.261,7,39.594,7H8.406	c-1.667,0-3.16,1.034-3.745,2.596l-3.462,9.231C0.442,20.846,1.935,23,4.092,23H43.908z"/><linearGradient id="E40PcuDlgo4vBMLkjIJRIa" x1="24" x2="24" y1="16.703" y2="11.315" gradientUnits="userSpaceOnUse"><stop offset="0" stop-color="#4c4c4c"/><stop offset="1" stop-color="#343434"/></linearGradient><path fill="url(#E40PcuDlgo4vBMLkjIJRIa)" d="M29.279,13.047c-0.062,0.017-1.524,0.37-1.524,1.151c0.068,0.892,1.846,1.205,1.875,1.205 c-0.029,0.017-0.267,0.426-0.972,0.855C28.099,16.627,27.478,17,26.536,17c-0.896,0-1.218-0.247-2.252-0.247 c-1.11,0-1.425,0.247-2.274,0.247c-0.943,0-1.61-0.393-2.199-0.759c-0.765-0.479-1.417-1.231-1.44-1.953 c-0.016-0.382,0.154-0.759,0.584-1.078c0.605-0.446,1.684-0.749,2.865-0.759c0.904-0.013,1.708,0.27,2.258,0.27 c0.529,0,1.518-0.27,2.637-0.27C27.195,12.451,28.481,12.514,29.279,13.047z M24,12.374c-0.16-0.349,0.283-0.699,0.697-0.922 C25.226,11.183,26.061,11,26.781,11c0.045,0.349-0.246,0.693-0.767,0.942C25.548,12.212,24.744,12.414,24,12.374z"/><linearGradient id="E40PcuDlgo4vBMLkjIJRIb" x1="21" x2="21" y1="37.079" y2="35.363" gradientUnits="userSpaceOnUse"><stop offset="0" stop-color="#4c4c4c"/><stop offset="1" stop-color="#343434"/></linearGradient><path fill="url(#E40PcuDlgo4vBMLkjIJRIb)" d="M26,35c-0.186,0-9.814,0-10,0c-0.552,0-1,0.448-1,1c0,0.552,0.448,1,1,1c0.186,0,9.814,0,10,0	c0.552,0,1-0.448,1-1C27,35.448,26.552,35,26,35z"/><linearGradient id="E40PcuDlgo4vBMLkjIJRIc" x1="12.62" x2="10.18" y1="38.978" y2="33.74" gradientUnits="userSpaceOnUse"><stop offset="0" stop-color="#4c4c4c"/><stop offset="1" stop-color="#343434"/></linearGradient><path fill="url(#E40PcuDlgo4vBMLkjIJRIc)" d="M12,37c0-0.186,0-2.814,0-3c0-0.552-0.448-1-1-1c-0.552,0-1,0.448-1,1c0,0.186,0,2.814,0,3	c0,0.552,0.448,1,1,1C11.552,38,12,37.552,12,37z"/><linearGradient id="E40PcuDlgo4vBMLkjIJRId" x1="8.62" x2="6.18" y1="38.978" y2="33.74" gradientUnits="userSpaceOnUse"><stop offset="0" stop-color="#4c4c4c"/><stop offset="1" stop-color="#343434"/></linearGradient><path fill="url(#E40PcuDlgo4vBMLkjIJRId)" d="M8,37c0-0.186,0-2.814,0-3c0-0.552-0.448-1-1-1c-0.552,0-1,0.448-1,1c0,0.186,0,2.814,0,3	c0,0.552,0.448,1,1,1C7.552,38,8,37.552,8,37z"/><g><circle cx="41" cy="36" r="1" fill="#fff"/><path d="M41,35c0.552,0,1,0.448,1,1s-0.448,1-1,1s-1-0.448-1-1S40.448,35,41,35 M41,34c-1.103,0-2,0.897-2,2s0.897,2,2,2 s2-0.897,2-2S42.103,34,41,34L41,34z" opacity=".05"/><path d="M41,35c0.552,0,1,0.448,1,1s-0.448,1-1,1s-1-0.448-1-1S40.448,35,41,35 M41,34.5c-0.827,0-1.5,0.673-1.5,1.5 s0.673,1.5,1.5,1.5s1.5-0.673,1.5-1.5S41.827,34.5,41,34.5L41,34.5z" opacity=".07"/></g></svg>