<svg xmlns="http://www.w3.org/2000/svg" viewBox="0 0 48 48"><path fill="#21a366" d="M42,7H24v34h18c1.105,0,2-0.895,2-2V9C44,7.895,43.105,7,42,7z"/><path fill="#33c481" d="M24,7H6C4.895,7,4,7.895,4,9v30c0,1.105,0.895,2,2,2h18V7z"/><path fill="#33c481" d="M21,39c0,1.657,1.343,3,3,3v-6C22.343,36,21,37.343,21,39z"/><path fill="#21a366" d="M27,39c0-1.657-1.343-3-3-3v6C25.657,42,27,40.657,27,39z"/><path fill="#fff" d="M24,7H7C6.448,7,6,7.448,6,8v30c0,0.552,0.448,1,1,1h17V7z"/><path fill="#f0f0f0" d="M41,7H24v32h17c0.552,0,1-0.448,1-1V8C42,7.448,41.552,7,41,7z"/><path fill="#33c481" d="M20.5,19h-11C9.224,19,9,18.776,9,18.5v-1C9,17.224,9.224,17,9.5,17h11c0.276,0,0.5,0.224,0.5,0.5v1	C21,18.776,20.776,19,20.5,19z"/><path fill="#33c481" d="M20.5,23h-11C9.224,23,9,22.776,9,22.5v-1C9,21.224,9.224,21,9.5,21h11c0.276,0,0.5,0.224,0.5,0.5v1	C21,22.776,20.776,23,20.5,23z"/><path fill="#33c481" d="M20.5,27h-11C9.224,27,9,26.776,9,26.5v-1C9,25.224,9.224,25,9.5,25h11c0.276,0,0.5,0.224,0.5,0.5v1	C21,26.776,20.776,27,20.5,27z"/><path fill="#33c481" d="M18.5,31h-9C9.224,31,9,30.776,9,30.5v-1C9,29.224,9.224,29,9.5,29h9c0.276,0,0.5,0.224,0.5,0.5v1	C19,30.776,18.776,31,18.5,31z"/><path fill="#107c42" d="M37.986,27.184c0-4.883-7.209-3.93-7.209-6.815c0-1.506,1.693-1.586,2.223-1.586	c1.273,0,2.501,0.341,3.437,0.78c0.295,0.138,0.634-0.066,0.634-0.392v-1.421c0-0.477-0.179-0.759-0.465-0.87	c-0.642-0.25-1.564-0.432-2.927-0.477v-1.564c0-0.187-0.152-0.339-0.339-0.339h-0.679c-0.187,0-0.339,0.152-0.339,0.339v1.589	c-2.115,0.207-4.307,1.4-4.307,4.177c0,5.062,7.209,4.058,7.209,6.724c0,0.838-0.535,1.56-2.223,1.56	c-1.696,0-3.255-0.592-4.118-1.034c-0.29-0.149-0.632,0.067-0.632,0.393v1.618c0,0.31,0.187,0.586,0.472,0.707	c1.022,0.434,2.393,0.763,3.599,0.859v1.728c0,0.187,0.152,0.339,0.339,0.339h0.679c0.187,0,0.339-0.152,0.339-0.339v-1.725	C36.842,31.172,37.986,29.054,37.986,27.184z"/></svg>