<svg xmlns="http://www.w3.org/2000/svg" xmlns:xlink="http://www.w3.org/1999/xlink" data-name="Слой 1" viewBox="0 0 48 48"><defs><linearGradient id="B8kl1XVyr2AW6nBYA7k1Xa" x1="7.447" x2="18.867" y1="15.494" y2="46.87" data-name="Безымянный градиент 121" gradientUnits="userSpaceOnUse"><stop offset="0" stop-color="#f44f5a"/><stop offset=".443" stop-color="#ee3d4a"/><stop offset="1" stop-color="#e52030"/></linearGradient><linearGradient id="B8kl1XVyr2AW6nBYA7k1Xc" x1="2.497" x2="13.917" y1="17.601" y2="48.978" xlink:href="#B8kl1XVyr2AW6nBYA7k1Xa"/><radialGradient id="B8kl1XVyr2AW6nBYA7k1Xb" cx="20.354" cy="27.528" r="33.318" data-name="Безымянный градиент 106" gradientUnits="userSpaceOnUse"><stop offset="0" stop-color="#dfe9f2"/><stop offset=".391" stop-color="#d6e0e9"/><stop offset="1" stop-color="#bfc8d1"/></radialGradient></defs><path fill="url(#B8kl1XVyr2AW6nBYA7k1Xb)" d="M35.48145,43.40332a4.383,4.383,0,0,1-1.96485-.50879l-12-6A1.00038,1.00038,0,0,1,20.96387,36V27.41406l-4.15528-4.15527L13.794,25.06836a4.01412,4.01412,0,0,1-3.63477.24609L4.57031,22.919a3.02134,3.02134,0,0,1-1.2666-4.06934c.59766-1.44238,1.81934-2.18555,2.97656-1.79785l4.36621,1.74414,2.08594-2.60742A6.10727,6.10727,0,0,1,9.96387,11a5.7731,5.7731,0,0,1,5.5-6,5.77311,5.77311,0,0,1,5.5,6v.0166l4.98437-2.21582a4.00875,4.00875,0,0,1,4.02442.45606l6.59082,4.94336a.9769.9769,0,0,1,.10742.09277,3.20175,3.20175,0,0,1-.07227,4.31933,2.95191,2.95191,0,0,1-4.20312.2129l-4.55176-2.73145-1.17383.3916,3.92871,4.71387,5.1045,2.55176,4.49218-5.3916c.01953-.02247.04-.04493.06153-.06641a2.96552,2.96552,0,0,1,4.09863-.02637c1.60937,1.25684,2.62793,3.81153,1.46582,5.748a.93878.93878,0,0,1-.08594.12109L40.18555,30.875a4.01126,4.01126,0,0,1-4.71192,1.1123l-5.82812-2.58984-.52539,2.10059,8.3291,4.62793c1.65918.82812,1.90723,3.50488.99414,5.33007a3.42473,3.42473,0,0,1-1.88867,1.76465A3.14085,3.14085,0,0,1,35.48145,43.40332ZM22.96387,35.38184l11.44726,5.72363a1.90391,1.90391,0,0,0,1.46582.23437,1.50733,1.50733,0,0,0,.77735-.77832c.53613-1.07129.30566-2.44531-.1377-2.667L27.47852,32.874a.99879.99879,0,0,1-.48438-1.11621l1-4a1.00019,1.00019,0,0,1,1.376-.67187l6.916,3.07324a2.00339,2.00339,0,0,0,2.35645-.55566l5.49609-6.67383c.51465-.9541-.1084-2.37989-1.01367-3.08594-.58008-.45312-1.05859-.50684-1.42676-.16309l-4.96582,5.96a1.00429,1.00429,0,0,1-1.21582.2539l-6-3a1.01458,1.01458,0,0,1-.32129-.2539l-5-6a1.00017,1.00017,0,0,1,.45215-1.58887l3-1a.99.99,0,0,1,.83106.09082l5,3a1.23191,1.23191,0,0,1,.11035.07617c.60644.48633,1.11914.50684,1.51953.06055a1.2699,1.2699,0,0,0,.18555-1.53125l-6.52051-4.8916a2.00313,2.00313,0,0,0-2.0127-.22754l-6.66992,2.96484a1.00052,1.00052,0,0,1-1.3584-1.2207A4.41077,4.41077,0,0,0,18.96387,11a3.77932,3.77932,0,0,0-3.5-4,3.77932,3.77932,0,0,0-3.5,4,3.933,3.933,0,0,0,2.63183,3.85547,1.00035,1.00035,0,0,1,.498,1.584L11.74512,20.625a1.00619,1.00619,0,0,1-1.15235.30371l-5-2a2.12446,2.12446,0,0,0-.57714,1.18262.86167.86167,0,0,0,.3955.99414l5.53614,2.37109a2.01,2.01,0,0,0,1.81836-.123l3.68359-2.21094a.99754.99754,0,0,1,1.22168.15039l5,5a.99928.99928,0,0,1,.293.707Z"/><path fill="url(#B8kl1XVyr2AW6nBYA7k1Xa)" d="M16.964,27A7.99654,7.99654,0,0,0,9.032,34.00684C9.00882,34.00641,8.98728,34,8.964,34a4.00006,4.00006,0,1,0,2.673,6.95667A7.99635,7.99635,0,1,0,16.964,27Z"/><circle cx="6.464" cy="28.5" r="1.5" fill="url(#B8kl1XVyr2AW6nBYA7k1Xc)"/></svg>