<svg xmlns="http://www.w3.org/2000/svg" viewBox="0 0 48 48"><linearGradient id="d2J1LH0~lKNWrWAWFkXx8a" x1="8" x2="37" y1="39" y2="39" gradientUnits="userSpaceOnUse"><stop offset="0" stop-color="#c26715"/><stop offset=".508" stop-color="#b85515"/><stop offset="1" stop-color="#ad3f16"/></linearGradient><path fill="url(#d2J1LH0~lKNWrWAWFkXx8a)" d="M35.002,44c0.903,0,1.723-0.617,1.942-1.534c0.258-1.074-0.403-2.154-1.478-2.412l-25-6	c-1.08-0.255-2.154,0.405-2.411,1.478c-0.258,1.074,0.403,2.154,1.478,2.412l25,6C34.69,43.982,34.848,44,35.002,44z"/><path fill="#d6742d" d="M12.998,44c-0.903,0-1.723-0.617-1.942-1.534c-0.258-1.074,0.403-2.154,1.478-2.412l25-6	c1.08-0.255,2.154,0.405,2.411,1.478c0.258,1.074-0.403,2.154-1.478,2.412l-25,6C13.31,43.982,13.153,44,12.998,44z"/><linearGradient id="d2J1LH0~lKNWrWAWFkXx8b" x1="19.955" x2="26.294" y1="3.685" y2="38.487" gradientUnits="userSpaceOnUse"><stop offset="0" stop-color="#f44f5a"/><stop offset=".443" stop-color="#ee3d4a"/><stop offset="1" stop-color="#e52030"/></linearGradient><path fill="url(#d2J1LH0~lKNWrWAWFkXx8b)" d="M21.422,4.533C21.408,4.484,21.4,4.397,21.4,4.333c0-0.479,0.388-0.867,0.867-0.867	c0.204,0,0.346,0.076,0.402,0.098c1.06,0.414,8.338,3.846,6.655,13.769c2.444-1.473,1.57-4.333,2.37-4.333	c0.3,0,0.423,0.112,0.607,0.375C34.975,17.191,37,21.742,37,26c0,7.18-5.82,13-13,13c-7.895,0-13-6.65-13-13	C11,15.438,23.448,13.488,21.422,4.533z"/><linearGradient id="d2J1LH0~lKNWrWAWFkXx8c" x1="21.141" x2="26.507" y1="14.27" y2="43.574" gradientUnits="userSpaceOnUse"><stop offset="0" stop-color="#fed100"/><stop offset="1" stop-color="#e36001"/></linearGradient><path fill="url(#d2J1LH0~lKNWrWAWFkXx8c)" d="M23.666,16.188c0,0-0.221-0.188-0.541-0.188c-0.483,0-0.875,0.392-0.875,0.875	c0.875,5.25-5.25,7-5.25,13.125c0,3.866,3.134,7,7,7s7-3.134,7-7C31,25.012,26.607,18.355,23.666,16.188z"/></svg>