<svg xmlns="http://www.w3.org/2000/svg" viewBox="0 0 48 48"><linearGradient id="EcE5GyAympdrcvbFPvppba" x1="16.86" x2="29.576" y1="1491.533" y2="1531.546" gradientTransform="translate(0 -1490)" gradientUnits="userSpaceOnUse"><stop offset="0" stop-color="#c77740"/><stop offset="1" stop-color="#b0622b"/></linearGradient><path fill="url(#EcE5GyAympdrcvbFPvppba)" d="M38,4H26c0,1.105-0.895,2-2,2s-2-0.895-2-2H10C8.895,4,8,4.895,8,6v36c0,1.105,0.895,2,2,2h28	c1.105,0,2-0.895,2-2V6C40,4.895,39.105,4,38,4z"/><linearGradient id="EcE5GyAympdrcvbFPvppbb" x1="24" x2="24" y1="1526.966" y2="1530.893" gradientTransform="translate(0 -1490)" gradientUnits="userSpaceOnUse"><stop offset=".442" stop-color="#878786"/><stop offset=".594" stop-color="#9f9f9e"/><stop offset=".859" stop-color="#c3c3c3"/><stop offset="1" stop-color="#d1d1d1"/></linearGradient><path fill="url(#EcE5GyAympdrcvbFPvppbb)" d="M37,42H11c-0.552,0-1-0.448-1-1v-9h28v9C38,41.552,37.552,42,37,42z"/><path fill="#f3f3f3" d="M37,40H11c-0.552,0-1-0.448-1-1V7c0-0.552,0.448-1,1-1h26c0.552,0,1,0.448,1,1v32	C38,39.552,37.552,40,37,40z"/><linearGradient id="EcE5GyAympdrcvbFPvppbc" x1="-3296.93" x2="-3295.046" y1="-274.928" y2="-267.091" gradientTransform="rotate(180 -1636 -132.5)" gradientUnits="userSpaceOnUse"><stop offset="0" stop-color="#c3cdd9"/><stop offset="1" stop-color="#9fa7b0"/></linearGradient><path fill="url(#EcE5GyAympdrcvbFPvppbc)" d="M31,8V4h-4.184C26.403,2.837,25.304,2,24,2s-2.403,0.837-2.816,2H17v4c0,0.552,0.448,1,1,1h12	C30.552,9,31,8.552,31,8z M24,4c0.552,0,1,0.448,1,1s-0.448,1-1,1s-1-0.448-1-1S23.448,4,24,4z"/><path d="M18.526,44H38c1.105,0,2-0.895,2-2V13H23.125	c-2.04,0-3.429,1.528-4.906,3.375L18,16.648v26.703l0.22,0.273C18.323,43.754,18.424,43.875,18.526,44z" opacity=".05"/><path d="M23.125,13.5c-1.817,0-3.12,1.443-4.516,3.188L18.5,16.824v26.351	l0.109,0.137c0.189,0.236,0.376,0.465,0.563,0.688H38c1.105,0,2-0.895,2-2V13.5H23.125z" opacity=".05"/><path fill="#50e6ff" d="M38,46H25l-6-3V17l6.5-3h12l6.5,3v26L38,46z"/><linearGradient id="EcE5GyAympdrcvbFPvppbd" x1="42.212" x2="42.788" y1="25.133" y2="21.867" gradientTransform="matrix(1 0 0 -1 0 50)" gradientUnits="userSpaceOnUse"><stop offset="0" stop-color="#199ae0"/><stop offset="1" stop-color="#199ae0"/></linearGradient><path fill="url(#EcE5GyAympdrcvbFPvppbd)" d="M43.5,25h-2c-0.276,0-0.5,0.224-0.5,0.5v2c0,0.276,0.224,0.5,0.5,0.5h2	c0.276,0,0.5-0.224,0.5-0.5v-2C44,25.224,43.776,25,43.5,25z"/><linearGradient id="EcE5GyAympdrcvbFPvppbe" x1="42.212" x2="42.788" y1="18.133" y2="14.867" gradientTransform="matrix(1 0 0 -1 0 50)" gradientUnits="userSpaceOnUse"><stop offset="0" stop-color="#199ae0"/><stop offset="1" stop-color="#199ae0"/></linearGradient><path fill="url(#EcE5GyAympdrcvbFPvppbe)" d="M43.5,32h-2c-0.276,0-0.5,0.224-0.5,0.5v2c0,0.276,0.224,0.5,0.5,0.5h2	c0.276,0,0.5-0.224,0.5-0.5v-2C44,32.224,43.776,32,43.5,32z"/><linearGradient id="EcE5GyAympdrcvbFPvppbf" x1="20.212" x2="20.788" y1="25.133" y2="21.867" gradientTransform="matrix(1 0 0 -1 0 50)" gradientUnits="userSpaceOnUse"><stop offset="0" stop-color="#199ae0"/><stop offset="1" stop-color="#199ae0"/></linearGradient><path fill="url(#EcE5GyAympdrcvbFPvppbf)" d="M21.5,25h-2c-0.276,0-0.5,0.224-0.5,0.5v2c0,0.276,0.224,0.5,0.5,0.5h2	c0.276,0,0.5-0.224,0.5-0.5v-2C22,25.224,21.776,25,21.5,25z"/><linearGradient id="EcE5GyAympdrcvbFPvppbg" x1="20.212" x2="20.788" y1="18.133" y2="14.867" gradientTransform="matrix(1 0 0 -1 0 50)" gradientUnits="userSpaceOnUse"><stop offset="0" stop-color="#199ae0"/><stop offset="1" stop-color="#199ae0"/></linearGradient><path fill="url(#EcE5GyAympdrcvbFPvppbg)" d="M21.5,32h-2c-0.276,0-0.5,0.224-0.5,0.5v2c0,0.276,0.224,0.5,0.5,0.5h2	c0.276,0,0.5-0.224,0.5-0.5v-2C22,32.224,21.776,32,21.5,32z"/><linearGradient id="EcE5GyAympdrcvbFPvppbh" x1="-2499.896" x2="-2499.896" y1="1166" y2="1170" gradientTransform="matrix(-1 0 0 1 -2479.396 -1127)" gradientUnits="userSpaceOnUse"><stop offset=".478" stop-color="#199ae0"/><stop offset=".868" stop-color="#1186cc"/><stop offset="1" stop-color="#076cb3"/></linearGradient><path fill="url(#EcE5GyAympdrcvbFPvppbh)" d="M19.5,39h2c0.276,0,0.5,0.224,0.5,0.5V43h-3v-3.5C19,39.224,19.224,39,19.5,39z"/><linearGradient id="EcE5GyAympdrcvbFPvppbi" x1="-931.895" x2="-931.895" y1="1166" y2="1170" gradientTransform="translate(974.395 -1127)" gradientUnits="userSpaceOnUse"><stop offset=".478" stop-color="#199ae0"/><stop offset=".868" stop-color="#1186cc"/><stop offset="1" stop-color="#076cb3"/></linearGradient><path fill="url(#EcE5GyAympdrcvbFPvppbi)" d="M43.5,39h-2c-0.276,0-0.5,0.224-0.5,0.5V43h3v-3.5C44,39.224,43.776,39,43.5,39z"/><linearGradient id="EcE5GyAympdrcvbFPvppbj" x1="-2499.896" x2="-2499.896" y1="41" y2="45" gradientTransform="rotate(180 -1239.698 31)" gradientUnits="userSpaceOnUse"><stop offset=".478" stop-color="#199ae0"/><stop offset=".868" stop-color="#1186cc"/><stop offset="1" stop-color="#076cb3"/></linearGradient><path fill="url(#EcE5GyAympdrcvbFPvppbj)" d="M19.5,21h2c0.276,0,0.5-0.224,0.5-0.5V17h-3v3.5C19,20.776,19.224,21,19.5,21z"/><linearGradient id="EcE5GyAympdrcvbFPvppbk" x1="-931.895" x2="-931.895" y1="41" y2="45" gradientTransform="matrix(1 0 0 -1 974.395 62)" gradientUnits="userSpaceOnUse"><stop offset=".478" stop-color="#199ae0"/><stop offset=".868" stop-color="#1186cc"/><stop offset="1" stop-color="#076cb3"/></linearGradient><path fill="url(#EcE5GyAympdrcvbFPvppbk)" d="M43.5,21h-2c-0.276,0-0.5-0.224-0.5-0.5V17h3v3.5C44,20.776,43.776,21,43.5,21z"/><linearGradient id="EcE5GyAympdrcvbFPvppbl" x1="19.913" x2="33.865" y1="85.712" y2="6.585" gradientTransform="matrix(1 0 0 -1 0 50)" gradientUnits="userSpaceOnUse"><stop offset="0" stop-color="#32bdef"/><stop offset=".661" stop-color="#25abe8"/><stop offset="1" stop-color="#1ea2e4"/></linearGradient><path fill="url(#EcE5GyAympdrcvbFPvppbl)" d="M32.5,17h-2c-0.276,0-0.5-0.224-0.5-0.5v-2c0-0.276,0.224-0.5,0.5-0.5h2	c0.276,0,0.5,0.224,0.5,0.5v2C33,16.776,32.776,17,32.5,17z M33,45.5v-2c0-0.276-0.224-0.5-0.5-0.5h-2c-0.276,0-0.5,0.224-0.5,0.5v2	c0,0.276,0.224,0.5,0.5,0.5h2C32.776,46,33,45.776,33,45.5z M25.5,43H19c1.5,1.875,2.625,3,4.125,3H25.5c0.276,0,0.5-0.224,0.5-0.5	v-2C26,43.224,25.776,43,25.5,43z M37,43.5v2c0,0.276,0.224,0.5,0.5,0.5h2.375c1.5,0,2.625-1.125,4.125-3h-6.5	C37.224,43,37,43.224,37,43.5z M26,16.5v-2c0-0.276-0.224-0.5-0.5-0.5h-2.375c-1.5,0-2.625,1.125-4.125,3h6.5	C25.776,17,26,16.776,26,16.5z M37.5,17H44c-1.5-1.875-2.625-3-4.125-3H37.5c-0.276,0-0.5,0.224-0.5,0.5v2	C37,16.776,37.224,17,37.5,17z M32.5,17h-2c-0.276,0-0.5-0.224-0.5-0.5v-2c0-0.276,0.224-0.5,0.5-0.5h2c0.276,0,0.5,0.224,0.5,0.5v2	C33,16.776,32.776,17,32.5,17z M33,45.5v-2c0-0.276-0.224-0.5-0.5-0.5h-2c-0.276,0-0.5,0.224-0.5,0.5v2c0,0.276,0.224,0.5,0.5,0.5h2	C32.776,46,33,45.776,33,45.5z M25.5,43H19c1.5,1.875,2.625,3,4.125,3H25.5c0.276,0,0.5-0.224,0.5-0.5v-2	C26,43.224,25.776,43,25.5,43z M37,43.5v2c0,0.276,0.224,0.5,0.5,0.5h2.375c1.5,0,2.625-1.125,4.125-3h-6.5	C37.224,43,37,43.224,37,43.5z M26,16.5v-2c0-0.276-0.224-0.5-0.5-0.5h-2.375c-1.5,0-2.625,1.125-4.125,3h6.5	C25.776,17,26,16.776,26,16.5z M37.5,17H44c-1.5-1.875-2.625-3-4.125-3H37.5c-0.276,0-0.5,0.224-0.5,0.5v2	C37,16.776,37.224,17,37.5,17z"/></svg>