<svg xmlns="http://www.w3.org/2000/svg" viewBox="0 0 48 48"><linearGradient id="aaRJu2FPXYbaSzgjmYJNTa" x1="4.744" x2="33.084" y1="4.494" y2="32.664" gradientUnits="userSpaceOnUse"><stop offset="0" stop-color="#737b80"/><stop offset=".473" stop-color="#686f74"/><stop offset="1" stop-color="#575c61"/></linearGradient><path fill="url(#aaRJu2FPXYbaSzgjmYJNTa)" d="M21.465,40.662c-5.652,0-10.765-2.445-13.403-7.015C3.759,26.195,7.64,15.87,16.713,10.632 s19.955-3.437,24.258,4.016l0,0c4.302,7.453,0.421,17.777-8.651,23.016C28.811,39.689,25.03,40.662,21.465,40.662z M27.589,9.623 c-3.227,0-6.671,0.891-9.876,2.741C9.595,17.051,6.042,26.15,9.794,32.647c3.751,6.497,13.408,7.971,21.526,3.284 c8.118-4.687,11.67-13.786,7.919-20.284C36.969,11.715,32.535,9.623,27.589,9.623z"/><path d="M17.789,12.324c3.184-1.821,6.599-2.701,9.8-2.701c0.136,0,0.268,0.018,0.403,0.022	C27.994,9.596,28,9.549,28,9.5c0-0.651-0.12-1.273-0.328-1.853c-3.472-0.019-7.146,0.886-10.586,2.789	C17.203,11.117,17.445,11.753,17.789,12.324z" opacity=".05"/><path d="M17.569,10.184c0.095,0.688,0.324,1.329,0.671,1.898c3.02-1.633,6.225-2.438,9.247-2.455	C27.488,9.583,27.5,9.543,27.5,9.5c0-0.658-0.135-1.282-0.367-1.858C23.984,7.711,20.69,8.551,17.569,10.184z" opacity=".07"/><path d="M42.699,20.538c-0.114-2.058-0.671-4.061-1.727-5.891c-0.873-1.511-2.027-2.777-3.371-3.812	c-0.58,0.362-1.087,0.828-1.496,1.373c1.26,0.916,2.337,2.057,3.135,3.439c0.953,1.651,1.43,3.47,1.485,5.341	C41.423,20.96,42.09,20.805,42.699,20.538z" opacity=".05"/><path d="M40.971,14.647c-0.778-1.347-1.776-2.502-2.934-3.472c-0.6,0.343-1.122,0.8-1.533,1.351	c1.083,0.862,2.025,1.89,2.735,3.121c0.866,1.5,1.326,3.142,1.447,4.834c0.7-0.026,1.358-0.196,1.956-0.482	C42.466,18.132,41.934,16.316,40.971,14.647z" opacity=".07"/><circle cx="22.5" cy="9.5" r="3.5" fill="#7b83eb"/><linearGradient id="aaRJu2FPXYbaSzgjmYJNTb" x1="18.351" x2="26.095" y1="5.168" y2="13.253" gradientUnits="userSpaceOnUse"><stop offset="0" stop-color="#4c4c4c"/><stop offset="1" stop-color="#343434"/></linearGradient><path fill="url(#aaRJu2FPXYbaSzgjmYJNTb)" d="M22.5,14c-2.481,0-4.5-2.019-4.5-4.5S20.019,5,22.5,5S27,7.019,27,9.5S24.981,14,22.5,14z M22.5,7C21.122,7,20,8.122,20,9.5s1.122,2.5,2.5,2.5S25,10.878,25,9.5S23.878,7,22.5,7z"/><path d="M40.403,29.63c-0.471-0.474-1.028-0.86-1.645-1.139c-1.574,2.835-4.039,5.421-7.243,7.318	c0.285,0.614,0.677,1.167,1.157,1.633C36.055,35.405,38.683,32.661,40.403,29.63z" opacity=".05"/><path d="M40.143,30.098c-0.458-0.491-1.008-0.892-1.63-1.167c-1.504,2.534-3.739,4.838-6.569,6.606	c0.278,0.62,0.681,1.166,1.173,1.622C36.114,35.262,38.504,32.811,40.143,30.098z" opacity=".07"/><path d="M12.007,35.339c-0.401,0.569-0.696,1.216-0.859,1.915c2.754,2.236,6.405,3.409,10.317,3.409	c0.031,0,0.062-0.003,0.093-0.003c0.264-0.616,0.414-1.291,0.435-1.998C18.132,38.78,14.556,37.625,12.007,35.339z" opacity=".05"/><path d="M21.484,38.658c-3.477,0.007-6.702-1.01-9.104-2.982c-0.389,0.566-0.659,1.215-0.788,1.915	c2.582,1.927,5.874,2.972,9.403,3.058C21.287,40.041,21.461,39.371,21.484,38.658z" opacity=".07"/><path d="M10.294,19.771c-0.572-0.339-1.209-0.576-1.889-0.69c-1.87,3.491-2.534,7.315-1.759,10.846	C6.925,29.971,7.209,30,7.5,30c0.403,0,0.795-0.047,1.174-0.129C7.84,26.623,8.471,23.035,10.294,19.771z" opacity=".05"/><path d="M10.044,20.219c-0.571-0.341-1.213-0.565-1.901-0.654c-1.589,3.184-2.186,6.619-1.614,9.837	C6.843,29.464,7.167,29.5,7.5,29.5c0.367,0,0.723-0.045,1.068-0.121C7.945,26.413,8.496,23.197,10.044,20.219z" opacity=".07"/><circle cx="40.5" cy="15.5" r="3.5" fill="#7b83eb"/><linearGradient id="aaRJu2FPXYbaSzgjmYJNTc" x1="36.351" x2="44.095" y1="11.168" y2="19.253" gradientUnits="userSpaceOnUse"><stop offset="0" stop-color="#4c4c4c"/><stop offset="1" stop-color="#343434"/></linearGradient><path fill="url(#aaRJu2FPXYbaSzgjmYJNTc)" d="M40.5,20c-2.481,0-4.5-2.019-4.5-4.5s2.019-4.5,4.5-4.5s4.5,2.019,4.5,4.5S42.981,20,40.5,20z M40.5,13c-1.378,0-2.5,1.122-2.5,2.5s1.122,2.5,2.5,2.5s2.5-1.122,2.5-2.5S41.878,13,40.5,13z"/><circle cx="36.5" cy="33.5" r="3.5" fill="#7b83eb"/><linearGradient id="aaRJu2FPXYbaSzgjmYJNTd" x1="32.351" x2="40.095" y1="29.168" y2="37.253" gradientUnits="userSpaceOnUse"><stop offset="0" stop-color="#4c4c4c"/><stop offset="1" stop-color="#343434"/></linearGradient><path fill="url(#aaRJu2FPXYbaSzgjmYJNTd)" d="M36.5,38c-2.481,0-4.5-2.019-4.5-4.5s2.019-4.5,4.5-4.5s4.5,2.019,4.5,4.5S38.981,38,36.5,38z M36.5,31c-1.378,0-2.5,1.122-2.5,2.5s1.122,2.5,2.5,2.5s2.5-1.122,2.5-2.5S37.878,31,36.5,31z"/><circle cx="16.5" cy="38.5" r="3.5" fill="#7b83eb"/><linearGradient id="aaRJu2FPXYbaSzgjmYJNTe" x1="12.351" x2="20.095" y1="34.168" y2="42.253" gradientUnits="userSpaceOnUse"><stop offset="0" stop-color="#4c4c4c"/><stop offset="1" stop-color="#343434"/></linearGradient><path fill="url(#aaRJu2FPXYbaSzgjmYJNTe)" d="M16.5,43c-2.481,0-4.5-2.019-4.5-4.5s2.019-4.5,4.5-4.5s4.5,2.019,4.5,4.5S18.981,43,16.5,43z M16.5,36c-1.378,0-2.5,1.122-2.5,2.5s1.122,2.5,2.5,2.5s2.5-1.122,2.5-2.5S17.878,36,16.5,36z"/><circle cx="7.5" cy="24.5" r="3.5" fill="#7b83eb"/><linearGradient id="aaRJu2FPXYbaSzgjmYJNTf" x1="3.351" x2="11.095" y1="20.168" y2="28.253" gradientUnits="userSpaceOnUse"><stop offset="0" stop-color="#4c4c4c"/><stop offset="1" stop-color="#343434"/></linearGradient><path fill="url(#aaRJu2FPXYbaSzgjmYJNTf)" d="M7.5,29C5.019,29,3,26.981,3,24.5S5.019,20,7.5,20s4.5,2.019,4.5,4.5S9.981,29,7.5,29z M7.5,22C6.122,22,5,23.122,5,24.5S6.122,27,7.5,27s2.5-1.122,2.5-2.5S8.878,22,7.5,22z"/></svg>