<svg xmlns="http://www.w3.org/2000/svg" viewBox="0 0 48 48"><linearGradient id="RmeI65p1BLAzZoS3EnTJLa" x1="24.861" x2="48.35" y1="-3.417" y2="23.306" gradientUnits="userSpaceOnUse"><stop offset="0" stop-color="#737b80"/><stop offset="1" stop-color="#575c61"/></linearGradient><path fill="url(#RmeI65p1BLAzZoS3EnTJLa)" d="M33.489,8.797c1.328,0,2.404-1.074,2.404-2.398C35.893,5.074,34.816,4,33.489,4 c-1.328,0-2.405,1.074-2.405,2.398C31.084,7.723,32.161,8.797,33.489,8.797z"/><linearGradient id="RmeI65p1BLAzZoS3EnTJLb" x1="9.589" x2="33.078" y1="10.007" y2="36.73" gradientUnits="userSpaceOnUse"><stop offset="0" stop-color="#737b80"/><stop offset="1" stop-color="#575c61"/></linearGradient><path fill="url(#RmeI65p1BLAzZoS3EnTJLb)" d="M36.194,42.672c1.328,0,2.405-1.074,2.405-2.398c0-1.325-1.077-2.398-2.405-2.398 c-1.328,0-2.404,1.074-2.404,2.398C33.789,41.599,34.866,42.672,36.194,42.672z"/><linearGradient id="RmeI65p1BLAzZoS3EnTJLc" x1="22.085" x2="45.574" y1="-.977" y2="25.747" gradientUnits="userSpaceOnUse"><stop offset="0" stop-color="#737b80"/><stop offset="1" stop-color="#575c61"/></linearGradient><path fill="url(#RmeI65p1BLAzZoS3EnTJLc)" d="M34.176,14.792c1.115,0,2.018-0.901,2.018-2.013c0-1.112-0.903-2.013-2.018-2.013 c-1.115,0-2.018,0.901-2.018,2.013C32.158,13.891,33.062,14.792,34.176,14.792z"/><linearGradient id="RmeI65p1BLAzZoS3EnTJLd" x1="24.73" x2="48.22" y1="-3.302" y2="23.421" gradientUnits="userSpaceOnUse"><stop offset="0" stop-color="#737b80"/><stop offset="1" stop-color="#575c61"/></linearGradient><path fill="url(#RmeI65p1BLAzZoS3EnTJLd)" d="M39.543,15.563c1.114,0,2.018-0.901,2.018-2.013c0-1.112-0.904-2.013-2.018-2.013 c-1.115,0-2.018,0.901-2.018,2.013C37.525,14.662,38.429,15.563,39.543,15.563z"/><linearGradient id="RmeI65p1BLAzZoS3EnTJLe" x1="19.022" x2="42.511" y1="1.716" y2="28.439" gradientUnits="userSpaceOnUse"><stop offset="0" stop-color="#737b80"/><stop offset="1" stop-color="#575c61"/></linearGradient><path fill="url(#RmeI65p1BLAzZoS3EnTJLe)" d="M33.489,19.889c0.949,0,1.718-0.767,1.718-1.713c0-0.946-0.769-1.713-1.718-1.713 c-0.949,0-1.717,0.767-1.717,1.713C31.772,19.122,32.541,19.889,33.489,19.889z"/><linearGradient id="RmeI65p1BLAzZoS3EnTJLf" x1="21.688" x2="45.178" y1="-.628" y2="26.095" gradientUnits="userSpaceOnUse"><stop offset="0" stop-color="#737b80"/><stop offset="1" stop-color="#575c61"/></linearGradient><path fill="url(#RmeI65p1BLAzZoS3EnTJLf)" d="M38.856,20.617c0.949,0,1.717-0.767,1.717-1.713s-0.769-1.713-1.717-1.713 c-0.949,0-1.717,0.767-1.717,1.713S37.908,20.617,38.856,20.617z"/><linearGradient id="RmeI65p1BLAzZoS3EnTJLg" x1="23.282" x2="46.771" y1="-2.029" y2="24.694" gradientUnits="userSpaceOnUse"><stop offset="0" stop-color="#737b80"/><stop offset="1" stop-color="#575c61"/></linearGradient><path fill="url(#RmeI65p1BLAzZoS3EnTJLg)" d="M43.15,22.287c0.948,0,1.717-0.767,1.717-1.713c0-0.946-0.769-1.713-1.717-1.713 c-0.949,0-1.718,0.767-1.718,1.713C41.432,21.52,42.201,22.287,43.15,22.287z"/><linearGradient id="RmeI65p1BLAzZoS3EnTJLh" x1="18.647" x2="42.137" y1="2.045" y2="28.768" gradientUnits="userSpaceOnUse"><stop offset="0" stop-color="#737b80"/><stop offset="1" stop-color="#575c61"/></linearGradient><path fill="url(#RmeI65p1BLAzZoS3EnTJLh)" d="M37.268,24.728c0.83,0,1.503-0.671,1.503-1.499c0-0.828-0.673-1.499-1.503-1.499 c-0.83,0-1.503,0.671-1.503,1.499C35.765,24.057,36.438,24.728,37.268,24.728z"/><linearGradient id="RmeI65p1BLAzZoS3EnTJLi" x1="15.98" x2="39.469" y1="4.389" y2="31.113" gradientUnits="userSpaceOnUse"><stop offset="0" stop-color="#737b80"/><stop offset="1" stop-color="#575c61"/></linearGradient><path fill="url(#RmeI65p1BLAzZoS3EnTJLi)" d="M31.9,24c0.83,0,1.503-0.671,1.503-1.499c0-0.828-0.673-1.499-1.503-1.499 s-1.503,0.671-1.503,1.499C30.397,23.329,31.07,24,31.9,24z"/><linearGradient id="RmeI65p1BLAzZoS3EnTJLj" x1="20.265" x2="43.755" y1=".623" y2="27.346" gradientUnits="userSpaceOnUse"><stop offset="0" stop-color="#737b80"/><stop offset="1" stop-color="#575c61"/></linearGradient><path fill="url(#RmeI65p1BLAzZoS3EnTJLj)" d="M41.604,26.398c0.83,0,1.503-0.671,1.503-1.499c0-0.828-0.673-1.499-1.503-1.499 s-1.503,0.671-1.503,1.499C40.101,25.727,40.774,26.398,41.604,26.398z"/><linearGradient id="RmeI65p1BLAzZoS3EnTJLk" x1="15.78" x2="39.269" y1="4.566" y2="31.289" gradientUnits="userSpaceOnUse"><stop offset="0" stop-color="#737b80"/><stop offset="1" stop-color="#575c61"/></linearGradient><path fill="url(#RmeI65p1BLAzZoS3EnTJLk)" d="M35.121,27.854c0.711,0,1.288-0.575,1.288-1.285c0-0.71-0.577-1.285-1.288-1.285 c-0.711,0-1.288,0.575-1.288,1.285C33.833,27.279,34.409,27.854,35.121,27.854z"/><linearGradient id="RmeI65p1BLAzZoS3EnTJLl" x1="17.419" x2="40.908" y1="3.124" y2="29.848" gradientUnits="userSpaceOnUse"><stop offset="0" stop-color="#737b80"/><stop offset="1" stop-color="#575c61"/></linearGradient><path fill="url(#RmeI65p1BLAzZoS3EnTJLl)" d="M39.458,29.482c0.711,0,1.288-0.575,1.288-1.285c0-0.71-0.577-1.285-1.288-1.285 c-0.711,0-1.288,0.575-1.288,1.285C38.17,28.907,38.746,29.482,39.458,29.482z"/><linearGradient id="RmeI65p1BLAzZoS3EnTJLm" x1="13.158" x2="36.648" y1="6.869" y2="33.593" gradientUnits="userSpaceOnUse"><stop offset="0" stop-color="#737b80"/><stop offset="1" stop-color="#575c61"/></linearGradient><path fill="url(#RmeI65p1BLAzZoS3EnTJLm)" d="M29.796,27.083c0.711,0,1.288-0.575,1.288-1.285c0-0.71-0.577-1.285-1.288-1.285 c-0.711,0-1.288,0.575-1.288,1.285C28.508,26.507,29.085,27.083,29.796,27.083z"/><linearGradient id="RmeI65p1BLAzZoS3EnTJLn" x1="13.3" x2="36.789" y1="6.745" y2="33.468" gradientUnits="userSpaceOnUse"><stop offset="0" stop-color="#737b80"/><stop offset="1" stop-color="#575c61"/></linearGradient><path fill="url(#RmeI65p1BLAzZoS3EnTJLn)" d="M32.759,29.953c0.593,0,1.073-0.479,1.073-1.071c0-0.591-0.481-1.071-1.073-1.071 c-0.593,0-1.073,0.479-1.073,1.071C31.685,29.474,32.166,29.953,32.759,29.953z"/><linearGradient id="RmeI65p1BLAzZoS3EnTJLo" x1="12.813" x2="36.303" y1="7.173" y2="33.896" gradientUnits="userSpaceOnUse"><stop offset="0" stop-color="#737b80"/><stop offset="1" stop-color="#575c61"/></linearGradient><path fill="url(#RmeI65p1BLAzZoS3EnTJLo)" d="M34.606,32.908c0.522,0,0.945-0.422,0.945-0.942c0-0.52-0.423-0.942-0.945-0.942 c-0.522,0-0.945,0.422-0.945,0.942C33.661,32.486,34.084,32.908,34.606,32.908z"/><linearGradient id="RmeI65p1BLAzZoS3EnTJLp" x1="11.147" x2="34.636" y1="8.637" y2="35.361" gradientUnits="userSpaceOnUse"><stop offset="0" stop-color="#737b80"/><stop offset="1" stop-color="#575c61"/></linearGradient><path fill="url(#RmeI65p1BLAzZoS3EnTJLp)" d="M32.33,33.508c0.427,0,0.773-0.345,0.773-0.771c0-0.426-0.346-0.771-0.773-0.771 c-0.427,0-0.773,0.345-0.773,0.771C31.557,33.163,31.903,33.508,32.33,33.508z"/><linearGradient id="RmeI65p1BLAzZoS3EnTJLq" x1="11.197" x2="34.687" y1="8.593" y2="35.316" gradientUnits="userSpaceOnUse"><stop offset="0" stop-color="#737b80"/><stop offset="1" stop-color="#575c61"/></linearGradient><path fill="url(#RmeI65p1BLAzZoS3EnTJLq)" d="M30.311,31.28c0.522,0,0.945-0.422,0.945-0.942c0-0.52-0.423-0.942-0.945-0.942 c-0.522,0-0.945,0.422-0.945,0.942C29.366,30.858,29.789,31.28,30.311,31.28z"/><linearGradient id="RmeI65p1BLAzZoS3EnTJLr" x1="10.633" x2="34.123" y1="9.089" y2="35.812" gradientUnits="userSpaceOnUse"><stop offset="0" stop-color="#737b80"/><stop offset="1" stop-color="#575c61"/></linearGradient><path fill="url(#RmeI65p1BLAzZoS3EnTJLr)" d="M27.392,29.225c0.593,0,1.073-0.479,1.073-1.071s-0.481-1.071-1.073-1.071 c-0.593,0-1.073,0.479-1.073,1.071S26.799,29.225,27.392,29.225z"/><linearGradient id="RmeI65p1BLAzZoS3EnTJLs" x1="14.602" x2="38.091" y1="5.601" y2="32.324" gradientUnits="userSpaceOnUse"><stop offset="0" stop-color="#737b80"/><stop offset="1" stop-color="#575c61"/></linearGradient><path fill="url(#RmeI65p1BLAzZoS3EnTJLs)" d="M27.348,21.173c0.593,0,1.073-0.479,1.073-1.071s-0.481-1.071-1.073-1.071 c-0.593,0-1.073,0.479-1.073,1.071S26.756,21.173,27.348,21.173z"/><linearGradient id="RmeI65p1BLAzZoS3EnTJLt" x1="16.673" x2="40.163" y1="3.78" y2="30.503" gradientUnits="userSpaceOnUse"><stop offset="0" stop-color="#737b80"/><stop offset="1" stop-color="#575c61"/></linearGradient><path fill="url(#RmeI65p1BLAzZoS3EnTJLt)" d="M27.821,17.405c0.522,0,0.945-0.422,0.945-0.942c0-0.52-0.423-0.942-0.945-0.942 c-0.522,0-0.945,0.422-0.945,0.942C26.876,16.983,27.299,17.405,27.821,17.405z"/><linearGradient id="RmeI65p1BLAzZoS3EnTJLu" x1="18.699" x2="42.189" y1="1.999" y2="28.723" gradientUnits="userSpaceOnUse"><stop offset="0" stop-color="#737b80"/><stop offset="1" stop-color="#575c61"/></linearGradient><path fill="url(#RmeI65p1BLAzZoS3EnTJLu)" d="M28.852,14.321c0.427,0,0.773-0.345,0.773-0.771c0-0.426-0.346-0.771-0.773-0.771 c-0.427,0-0.773,0.345-0.773,0.771C28.079,13.976,28.426,14.321,28.852,14.321z"/><linearGradient id="RmeI65p1BLAzZoS3EnTJLv" x1="18.488" x2="41.978" y1="2.185" y2="28.908" gradientUnits="userSpaceOnUse"><stop offset="0" stop-color="#737b80"/><stop offset="1" stop-color="#575c61"/></linearGradient><path fill="url(#RmeI65p1BLAzZoS3EnTJLv)" d="M27.048,12.865c0.522,0,0.945-0.422,0.945-0.942s-0.423-0.942-0.945-0.942 c-0.522,0-0.945,0.422-0.945,0.942S26.527,12.865,27.048,12.865z"/><linearGradient id="RmeI65p1BLAzZoS3EnTJLw" x1="14.916" x2="38.405" y1="5.325" y2="32.048" gradientUnits="userSpaceOnUse"><stop offset="0" stop-color="#737b80"/><stop offset="1" stop-color="#575c61"/></linearGradient><path fill="url(#RmeI65p1BLAzZoS3EnTJLw)" d="M37.052,31.58c0.593,0,1.073-0.479,1.073-1.071c0-0.591-0.481-1.071-1.073-1.071 c-0.593,0-1.073,0.479-1.073,1.071C35.979,31.1,36.459,31.58,37.052,31.58z"/><linearGradient id="RmeI65p1BLAzZoS3EnTJLx" x1="17.787" x2="41.277" y1="2.801" y2="29.524" gradientUnits="userSpaceOnUse"><stop offset="0" stop-color="#737b80"/><stop offset="1" stop-color="#575c61"/></linearGradient><path fill="url(#RmeI65p1BLAzZoS3EnTJLx)" d="M24.601,11.623c0.593,0,1.073-0.479,1.073-1.071c0-0.591-0.481-1.071-1.073-1.071 c-0.593,0-1.073,0.479-1.073,1.071C23.528,11.144,24.008,11.623,24.601,11.623z"/><linearGradient id="RmeI65p1BLAzZoS3EnTJLy" x1="15.948" x2="39.438" y1="4.417" y2="31.141" gradientUnits="userSpaceOnUse"><stop offset="0" stop-color="#737b80"/><stop offset="1" stop-color="#575c61"/></linearGradient><path fill="url(#RmeI65p1BLAzZoS3EnTJLy)" d="M25.331,16.163c0.593,0,1.073-0.479,1.073-1.071c0-0.591-0.481-1.071-1.073-1.071 c-0.593,0-1.073,0.479-1.073,1.071C24.258,15.684,24.738,16.163,25.331,16.163z"/><linearGradient id="RmeI65p1BLAzZoS3EnTJLz" x1="13.231" x2="36.721" y1="6.805" y2="33.529" gradientUnits="userSpaceOnUse"><stop offset="0" stop-color="#737b80"/><stop offset="1" stop-color="#575c61"/></linearGradient><path fill="url(#RmeI65p1BLAzZoS3EnTJLz)" d="M24.129,20.488c0.711,0,1.288-0.575,1.288-1.285c0-0.71-0.577-1.285-1.288-1.285 c-0.711,0-1.288,0.575-1.288,1.285C22.841,19.913,23.417,20.488,24.129,20.488z"/><linearGradient id="RmeI65p1BLAzZoS3EnTJLA" x1="11.133" x2="34.623" y1="8.649" y2="35.373" gradientUnits="userSpaceOnUse"><stop offset="0" stop-color="#737b80"/><stop offset="1" stop-color="#575c61"/></linearGradient><path fill="url(#RmeI65p1BLAzZoS3EnTJLA)" d="M20.221,20.488c0.83,0,1.503-0.671,1.503-1.499c0-0.828-0.673-1.499-1.503-1.499 c-0.83,0-1.503,0.671-1.503,1.499C18.719,19.817,19.391,20.488,20.221,20.488z"/><linearGradient id="RmeI65p1BLAzZoS3EnTJLB" x1="8.162" x2="31.651" y1="11.261" y2="37.984" gradientUnits="userSpaceOnUse"><stop offset="0" stop-color="#737b80"/><stop offset="1" stop-color="#575c61"/></linearGradient><path fill="url(#RmeI65p1BLAzZoS3EnTJLB)" d="M15.67,21.516c0.949,0,1.717-0.767,1.717-1.713s-0.769-1.713-1.717-1.713 c-0.949,0-1.717,0.767-1.717,1.713S14.722,21.516,15.67,21.516z"/><linearGradient id="RmeI65p1BLAzZoS3EnTJLC" x1="4.291" x2="27.78" y1="14.664" y2="41.387" gradientUnits="userSpaceOnUse"><stop offset="0" stop-color="#737b80"/><stop offset="1" stop-color="#575c61"/></linearGradient><path fill="url(#RmeI65p1BLAzZoS3EnTJLC)" d="M10.69,23.957c1.115,0,2.018-0.901,2.018-2.013s-0.903-2.013-2.018-2.013 c-1.115,0-2.018,0.901-2.018,2.013S9.575,23.957,10.69,23.957z"/><linearGradient id="RmeI65p1BLAzZoS3EnTJLD" x1="-.464" x2="23.026" y1="18.843" y2="45.566" gradientUnits="userSpaceOnUse"><stop offset="0" stop-color="#737b80"/><stop offset="1" stop-color="#575c61"/></linearGradient><path fill="url(#RmeI65p1BLAzZoS3EnTJLD)" d="M5.537,28.068c1.328,0,2.404-1.074,2.404-2.398s-1.077-2.398-2.404-2.398 c-1.328,0-2.404,1.074-2.404,2.398S4.209,28.068,5.537,28.068z"/><linearGradient id="RmeI65p1BLAzZoS3EnTJLE" x1="5.637" x2="29.126" y1="13.481" y2="40.204" gradientUnits="userSpaceOnUse"><stop offset="0" stop-color="#737b80"/><stop offset="1" stop-color="#575c61"/></linearGradient><path fill="url(#RmeI65p1BLAzZoS3EnTJLE)" d="M8.672,18.946c1.115,0,2.018-0.901,2.018-2.013s-0.903-2.013-2.018-2.013 c-1.115,0-2.018,0.901-2.018,2.013S7.557,18.946,8.672,18.946z"/><linearGradient id="RmeI65p1BLAzZoS3EnTJLF" x1="9.508" x2="32.998" y1="10.078" y2="36.801" gradientUnits="userSpaceOnUse"><stop offset="0" stop-color="#737b80"/><stop offset="1" stop-color="#575c61"/></linearGradient><path fill="url(#RmeI65p1BLAzZoS3EnTJLF)" d="M13.652,16.505c0.949,0,1.717-0.767,1.717-1.713c0-0.946-0.769-1.713-1.717-1.713 c-0.949,0-1.717,0.767-1.717,1.713C11.935,15.738,12.704,16.505,13.652,16.505z"/><linearGradient id="RmeI65p1BLAzZoS3EnTJLG" x1="11.348" x2="34.837" y1="8.461" y2="35.185" gradientUnits="userSpaceOnUse"><stop offset="0" stop-color="#737b80"/><stop offset="1" stop-color="#575c61"/></linearGradient><path fill="url(#RmeI65p1BLAzZoS3EnTJLG)" d="M12.922,11.965c0.949,0,1.717-0.767,1.717-1.713c0-0.946-0.769-1.713-1.717-1.713 c-0.949,0-1.718,0.767-1.718,1.713C11.204,11.199,11.973,11.965,12.922,11.965z"/><linearGradient id="RmeI65p1BLAzZoS3EnTJLH" x1="14.319" x2="37.808" y1="5.849" y2="32.573" gradientUnits="userSpaceOnUse"><stop offset="0" stop-color="#737b80"/><stop offset="1" stop-color="#575c61"/></linearGradient><path fill="url(#RmeI65p1BLAzZoS3EnTJLH)" d="M17.474,10.938c0.83,0,1.503-0.671,1.503-1.499c0-0.828-0.673-1.499-1.503-1.499 s-1.503,0.671-1.503,1.499C15.971,10.267,16.644,10.938,17.474,10.938z"/><linearGradient id="RmeI65p1BLAzZoS3EnTJLI" x1="16.416" x2="39.906" y1="4.006" y2="30.729" gradientUnits="userSpaceOnUse"><stop offset="0" stop-color="#737b80"/><stop offset="1" stop-color="#575c61"/></linearGradient><path fill="url(#RmeI65p1BLAzZoS3EnTJLI)" d="M21.38,10.938c0.711,0,1.288-0.575,1.288-1.285c0-0.71-0.577-1.285-1.288-1.285 c-0.711,0-1.288,0.575-1.288,1.285C20.092,10.363,20.669,10.938,21.38,10.938z"/><linearGradient id="RmeI65p1BLAzZoS3EnTJLJ" x1="14.578" x2="38.067" y1="5.622" y2="32.345" gradientUnits="userSpaceOnUse"><stop offset="0" stop-color="#737b80"/><stop offset="1" stop-color="#575c61"/></linearGradient><path fill="url(#RmeI65p1BLAzZoS3EnTJLJ)" d="M22.111,15.477c0.711,0,1.288-0.575,1.288-1.285c0-0.71-0.577-1.285-1.288-1.285 s-1.288,0.575-1.288,1.285C20.823,14.902,21.399,15.477,22.111,15.477z"/><linearGradient id="RmeI65p1BLAzZoS3EnTJLK" x1="12.458" x2="35.947" y1="7.485" y2="34.209" gradientUnits="userSpaceOnUse"><stop offset="0" stop-color="#737b80"/><stop offset="1" stop-color="#575c61"/></linearGradient><path fill="url(#RmeI65p1BLAzZoS3EnTJLK)" d="M18.203,15.521c0.83,0,1.503-0.671,1.503-1.499c0-0.828-0.673-1.499-1.503-1.499 c-0.83,0-1.503,0.671-1.503,1.499C16.7,14.849,17.373,15.521,18.203,15.521z"/><linearGradient id="RmeI65p1BLAzZoS3EnTJLL" x1="4.05" x2="27.539" y1="14.876" y2="41.599" gradientUnits="userSpaceOnUse"><stop offset="0" stop-color="#737b80"/><stop offset="1" stop-color="#575c61"/></linearGradient><path fill="url(#RmeI65p1BLAzZoS3EnTJLL)" d="M13.952,26.912c0.427,0,0.773-0.345,0.773-0.771c0-0.426-0.346-0.771-0.773-0.771 c-0.427,0-0.773,0.345-0.773,0.771C13.179,26.567,13.525,26.912,13.952,26.912z"/><linearGradient id="RmeI65p1BLAzZoS3EnTJLM" x1="6.07" x2="29.559" y1="13.1" y2="39.823" gradientUnits="userSpaceOnUse"><stop offset="0" stop-color="#737b80"/><stop offset="1" stop-color="#575c61"/></linearGradient><path fill="url(#RmeI65p1BLAzZoS3EnTJLM)" d="M17.044,26.527c0.522,0,0.945-0.422,0.945-0.942s-0.423-0.942-0.945-0.942 c-0.522,0-0.945,0.422-0.945,0.942S16.522,26.527,17.044,26.527z"/><linearGradient id="RmeI65p1BLAzZoS3EnTJLN" x1="8.684" x2="32.173" y1="10.802" y2="37.526" gradientUnits="userSpaceOnUse"><stop offset="0" stop-color="#737b80"/><stop offset="1" stop-color="#575c61"/></linearGradient><path fill="url(#RmeI65p1BLAzZoS3EnTJLN)" d="M20.435,25.242c0.593,0,1.073-0.479,1.073-1.071c0-0.591-0.481-1.071-1.073-1.071 c-0.593,0-1.073,0.479-1.073,1.071C19.362,24.763,19.843,25.242,20.435,25.242z"/><linearGradient id="RmeI65p1BLAzZoS3EnTJLO" x1="7.552" x2="31.042" y1="11.797" y2="38.52" gradientUnits="userSpaceOnUse"><stop offset="0" stop-color="#737b80"/><stop offset="1" stop-color="#575c61"/></linearGradient><path fill="url(#RmeI65p1BLAzZoS3EnTJLO)" d="M21.252,28.668c0.711,0,1.288-0.575,1.288-1.285s-0.577-1.285-1.288-1.285 c-0.711,0-1.288,0.575-1.288,1.285S20.541,28.668,21.252,28.668z"/><linearGradient id="RmeI65p1BLAzZoS3EnTJLP" x1="4.718" x2="28.207" y1="14.289" y2="41.012" gradientUnits="userSpaceOnUse"><stop offset="0" stop-color="#737b80"/><stop offset="1" stop-color="#575c61"/></linearGradient><path fill="url(#RmeI65p1BLAzZoS3EnTJLP)" d="M17.13,29.481c0.593,0,1.073-0.479,1.073-1.071c0-0.591-0.481-1.071-1.073-1.071 c-0.593,0-1.073,0.479-1.073,1.071C16.057,29.002,16.538,29.481,17.13,29.481z"/><linearGradient id="RmeI65p1BLAzZoS3EnTJLQ" x1="2.616" x2="26.105" y1="16.136" y2="42.859" gradientUnits="userSpaceOnUse"><stop offset="0" stop-color="#737b80"/><stop offset="1" stop-color="#575c61"/></linearGradient><path fill="url(#RmeI65p1BLAzZoS3EnTJLQ)" d="M13.48,29.438c0.522,0,0.945-0.422,0.945-0.942s-0.423-0.942-0.945-0.942 c-0.522,0-0.945,0.422-0.945,0.942S12.959,29.438,13.48,29.438z"/><linearGradient id="RmeI65p1BLAzZoS3EnTJLR" x1="1.238" x2="24.727" y1="17.347" y2="44.071" gradientUnits="userSpaceOnUse"><stop offset="0" stop-color="#737b80"/><stop offset="1" stop-color="#575c61"/></linearGradient><path fill="url(#RmeI65p1BLAzZoS3EnTJLR)" d="M13.522,32.394c0.593,0,1.073-0.479,1.073-1.071c0-0.591-0.481-1.071-1.073-1.071 c-0.593,0-1.073,0.479-1.073,1.071C12.449,31.915,12.93,32.394,13.522,32.394z"/><linearGradient id="RmeI65p1BLAzZoS3EnTJLS" x1="3.539" x2="27.029" y1="15.324" y2="42.048" gradientUnits="userSpaceOnUse"><stop offset="0" stop-color="#737b80"/><stop offset="1" stop-color="#575c61"/></linearGradient><path fill="url(#RmeI65p1BLAzZoS3EnTJLS)" d="M17.903,32.95c0.711,0,1.288-0.575,1.288-1.285c0-0.71-0.577-1.285-1.288-1.285 c-0.711,0-1.288,0.575-1.288,1.285C16.615,32.375,17.191,32.95,17.903,32.95z"/><linearGradient id="RmeI65p1BLAzZoS3EnTJLT" x1="6.804" x2="30.294" y1="12.454" y2="39.178" gradientUnits="userSpaceOnUse"><stop offset="0" stop-color="#737b80"/><stop offset="1" stop-color="#575c61"/></linearGradient><path fill="url(#RmeI65p1BLAzZoS3EnTJLT)" d="M23.013,32.394c0.83,0,1.503-0.671,1.503-1.499c0-0.828-0.673-1.499-1.503-1.499 c-0.83,0-1.503,0.671-1.503,1.499C21.51,31.723,22.183,32.394,23.013,32.394z"/><linearGradient id="RmeI65p1BLAzZoS3EnTJLU" x1="6.758" x2="30.247" y1="12.495" y2="39.219" gradientUnits="userSpaceOnUse"><stop offset="0" stop-color="#737b80"/><stop offset="1" stop-color="#575c61"/></linearGradient><path fill="url(#RmeI65p1BLAzZoS3EnTJLU)" d="M26.018,36.12c0.949,0,1.717-0.767,1.717-1.713c0-0.946-0.769-1.713-1.717-1.713 c-0.949,0-1.717,0.767-1.717,1.713C24.3,35.353,25.069,36.12,26.018,36.12z"/><linearGradient id="RmeI65p1BLAzZoS3EnTJLV" x1="2.836" x2="26.326" y1="15.942" y2="42.666" gradientUnits="userSpaceOnUse"><stop offset="0" stop-color="#737b80"/><stop offset="1" stop-color="#575c61"/></linearGradient><path fill="url(#RmeI65p1BLAzZoS3EnTJLV)" d="M19.706,36.634c0.83,0,1.503-0.671,1.503-1.499c0-0.828-0.673-1.499-1.503-1.499 s-1.503,0.671-1.503,1.499C18.203,35.963,18.876,36.634,19.706,36.634z"/><linearGradient id="RmeI65p1BLAzZoS3EnTJLW" x1="-.618" x2="22.872" y1="18.979" y2="45.702" gradientUnits="userSpaceOnUse"><stop offset="0" stop-color="#737b80"/><stop offset="1" stop-color="#575c61"/></linearGradient><path fill="url(#RmeI65p1BLAzZoS3EnTJLW)" d="M16.143,39.545c0.83,0,1.503-0.671,1.503-1.499c0-0.828-0.673-1.499-1.503-1.499 c-0.83,0-1.503,0.671-1.503,1.499C14.64,38.874,15.313,39.545,16.143,39.545z"/><linearGradient id="RmeI65p1BLAzZoS3EnTJLX" x1="-.71" x2="22.78" y1="19.059" y2="45.783" gradientUnits="userSpaceOnUse"><stop offset="0" stop-color="#737b80"/><stop offset="1" stop-color="#575c61"/></linearGradient><path fill="url(#RmeI65p1BLAzZoS3EnTJLX)" d="M19.105,43.315c0.949,0,1.718-0.767,1.718-1.713c0-0.946-0.769-1.713-1.718-1.713 c-0.949,0-1.717,0.767-1.717,1.713C17.387,42.548,18.156,43.315,19.105,43.315z"/><linearGradient id="RmeI65p1BLAzZoS3EnTJLY" x1="3.556" x2="27.046" y1="15.31" y2="42.033" gradientUnits="userSpaceOnUse"><stop offset="0" stop-color="#737b80"/><stop offset="1" stop-color="#575c61"/></linearGradient><path fill="url(#RmeI65p1BLAzZoS3EnTJLY)" d="M27.005,44c1.115,0,2.018-0.901,2.018-2.013s-0.903-2.013-2.018-2.013 c-1.115,0-2.018,0.901-2.018,2.013S25.891,44,27.005,44z"/><linearGradient id="RmeI65p1BLAzZoS3EnTJLZ" x1="2.746" x2="26.235" y1="16.022" y2="42.745" gradientUnits="userSpaceOnUse"><stop offset="0" stop-color="#737b80"/><stop offset="1" stop-color="#575c61"/></linearGradient><path fill="url(#RmeI65p1BLAzZoS3EnTJLZ)" d="M22.669,40.402c0.949,0,1.718-0.767,1.718-1.713c0-0.946-0.769-1.713-1.718-1.713 c-0.948,0-1.717,0.767-1.717,1.713C20.952,39.635,21.721,40.402,22.669,40.402z"/><linearGradient id="RmeI65p1BLAzZoS3EnTJLaa" x1="7.546" x2="31.035" y1="11.803" y2="38.526" gradientUnits="userSpaceOnUse"><stop offset="0" stop-color="#737b80"/><stop offset="1" stop-color="#575c61"/></linearGradient><path fill="url(#RmeI65p1BLAzZoS3EnTJLaa)" d="M30.312,39.717c1.115,0,2.018-0.901,2.018-2.013c0-1.112-0.904-2.013-2.018-2.013 c-1.114,0-2.018,0.901-2.018,2.013C28.294,38.816,29.198,39.717,30.312,39.717z"/><linearGradient id="RmeI65p1BLAzZoS3EnTJLab" x1=".085" x2="23.574" y1="18.361" y2="45.084" gradientUnits="userSpaceOnUse"><stop offset="0" stop-color="#737b80"/><stop offset="1" stop-color="#575c61"/></linearGradient><path fill="url(#RmeI65p1BLAzZoS3EnTJLab)" d="M14.339,35.863c0.711,0,1.288-0.575,1.288-1.285c0-0.71-0.577-1.285-1.288-1.285 c-0.711,0-1.288,0.575-1.288,1.285C13.051,35.288,13.628,35.863,14.339,35.863z"/></svg>