<svg xmlns="http://www.w3.org/2000/svg" viewBox="0 0 48 48"><linearGradient id="GhNH9guUYeLaz1LxpZXYKa" x1="9.858" x2="38.142" y1="108.142" y2="79.858" gradientTransform="matrix(1 0 0 -1 0 118)" gradientUnits="userSpaceOnUse"><stop offset="0" stop-color="#889097"/><stop offset="1" stop-color="#64717c"/></linearGradient><circle cx="24" cy="24" r="20" fill="url(#GhNH9guUYeLaz1LxpZXYKa)"/><radialGradient id="GhNH9guUYeLaz1LxpZXYKb" cx="24" cy="94" r="19" gradientTransform="matrix(1 0 0 -1 0 118)" gradientUnits="userSpaceOnUse"><stop offset="0"/><stop offset="1" stop-opacity="0"/></radialGradient><circle cx="24" cy="24" r="19" fill="url(#GhNH9guUYeLaz1LxpZXYKb)"/><radialGradient id="GhNH9guUYeLaz1LxpZXYKc" cx="23.89" cy="110.606" r="37.883" gradientTransform="matrix(1 0 0 -1 0 118)" gradientUnits="userSpaceOnUse"><stop offset="0" stop-color="#fafafb"/><stop offset="1" stop-color="#c8cdd1"/></radialGradient><circle cx="24" cy="24" r="17" fill="url(#GhNH9guUYeLaz1LxpZXYKc)"/><linearGradient id="GhNH9guUYeLaz1LxpZXYKd" x1="16.544" x2="31.778" y1="14.064" y2="33.809" gradientUnits="userSpaceOnUse"><stop offset="0" stop-color="#6d7479"/><stop offset=".32" stop-color="#565b60"/><stop offset=".752" stop-color="#3c3f43"/><stop offset="1" stop-color="#323538"/></linearGradient><path fill="url(#GhNH9guUYeLaz1LxpZXYKd)" d="M32.589,13c-2.636,1.357-4.952,3.385-7.12,5.355c-0.267,0.242-0.807,0.605-0.911,0.858	c-0.084,0.205-0.07,0.549-0.106,0.812c-0.037,0.265-0.068,0.55-0.106,0.786c-0.081,0.506-0.156,1.007-0.468,1.352	c-0.378-0.304-0.354-1.084-0.48-1.687c-0.083-0.029-0.129,0.085-0.188,0.142c-0.472,0.461-1.032,1-1.517,1.465	c-0.18,1.245-0.352,2.578-0.639,3.754c-0.088,0.362-0.169,0.781-0.437,1.014c-0.323-0.573-0.34-1.571-0.349-2.475	c-0.004-0.351-0.048-0.704-0.029-1.038c-0.081-0.034-0.164,0.095-0.236,0.169c-0.213,0.22-0.489,0.512-0.696,0.743	c0.09,1.349,0.292,3.04,0.209,4.51c-0.019,0.351-0.055,0.794-0.226,0.819c-0.257,0.037-0.599-0.97-0.675-1.182	c-0.185-0.523-0.292-0.948-0.441-1.429c-0.098-0.037-0.13,0.11-0.162,0.165c-0.465,0.778-0.502,2.046-0.414,3.377	c-0.433-0.92-0.938-1.753-1.512-2.505c-0.124-0.163-0.217-0.121-0.137,0.072c0.356,0.861,0.67,1.885,0.938,2.865	c-0.511-0.722-1.296-1.253-2.151-1.673c-0.285-0.14-0.367,0.023-0.132,0.248c0.58,0.552,1.103,1.171,1.64,1.775	c-0.32,0.348-0.551,1.093-0.279,1.706c0.106-0.209,0.191-0.403,0.334-0.643c0.098-0.164,0.254-0.491,0.491-0.47	c0.232,0.021,0.403,0.609,0.318,0.942c-0.177,0.692-0.949,1.492-1.245,1.936c-0.124,0.186-0.124,0.315,0.02,0.183	c0.647-0.587,1.287-1.205,1.722-1.968c0.552,0.485,1.245,0.805,1.981,1.073c0.241,0.087,0.25,0.006,0.016-0.145	c-0.229-0.147-0.444-0.315-0.627-0.514c-0.352-0.381-0.736-0.896-0.718-1.544c0.215,0.054,0.215,0.262,0.315,0.398	c0.568,0.782,1.724,1.06,2.893,1.187c0.226,0.025,0.223-0.065,0.02-0.126c-1.1-0.33-2.008-0.886-2.425-2.025	c1.989,0.286,5.028,0.67,6.79-0.371c-2.223,0.021-4.296-0.135-6.359-0.304c0.634-1.071,2.503-1.259,4.146-1.282	c0.405-0.006,0.926,0.125,1.177,0.034c0.127-0.045,0.294-0.401,0.412-0.57c0.928-1.33,1.871-2.635,2.708-3.953	c-0.628-0.018-1.375,0.108-1.703-0.265c0.221-0.504,0.947-0.608,1.657-0.616c0.154-0.001,0.323,0.048,0.465-0.001	c0.199-0.07,0.585-0.666,0.785-0.93c0.724-0.949,1.527-2.002,2.203-2.883c0.485-0.634,0.984-1.285,1.389-2.005	c0.4-0.711,0.779-1.58,0.799-2.542C33.555,14.467,33.17,13.516,32.589,13z M26.104,23.047c-1.511,1.927-3.218,3.692-4.811,5.48	c2.746-4.108,5.857-7.869,9-11.598C28.922,18.985,27.621,21.111,26.104,23.047z"/></svg>