<svg xmlns="http://www.w3.org/2000/svg" viewBox="0 0 48 48"><linearGradient id="mEAqsZ9KKV2y3wnbiHtBYa" x1="18.881" x2="29.834" y1="-32.232" y2="29.883" gradientUnits="userSpaceOnUse"><stop offset="0" stop-color="#f9f9f9"/><stop offset="1" stop-color="#c2c8cc"/></linearGradient><path fill="url(#mEAqsZ9KKV2y3wnbiHtBYa)" d="M35.82,43.283c-0.158,0.53-0.714,0.831-1.244,0.673l-21.084-6.282 c-0.53-0.158-0.831-0.714-0.673-1.244l9.138-30.668c0.158-0.53,0.714-0.831,1.244-0.673l21.084,6.282 c0.53,0.158,0.831,0.714,0.673,1.244L35.82,43.283z"/><linearGradient id="mEAqsZ9KKV2y3wnbiHtBYb" x1="26.093" x2="32.657" y1="8.666" y2="45.894" gradientUnits="userSpaceOnUse"><stop offset="0" stop-color="#436dcd"/><stop offset=".124" stop-color="#3560b6"/><stop offset=".288" stop-color="#26539e"/><stop offset=".462" stop-color="#1c498c"/><stop offset=".651" stop-color="#164482"/><stop offset=".881" stop-color="#14427f"/></linearGradient><polygon fill="url(#mEAqsZ9KKV2y3wnbiHtBYb)" points="34.76,39.837 15.593,34.126 23.017,9.209 42.185,14.92"/><linearGradient id="mEAqsZ9KKV2y3wnbiHtBYc" x1="27.297" x2="32.976" y1="16.341" y2="48.546" gradientUnits="userSpaceOnUse"><stop offset="0" stop-color="#bac0ff"/><stop offset=".191" stop-color="#b7bdfd"/><stop offset=".352" stop-color="#acb3f8"/><stop offset=".504" stop-color="#9ba1ef"/><stop offset=".649" stop-color="#8289e2"/><stop offset=".789" stop-color="#626bd2"/><stop offset=".856" stop-color="#5059c9"/></linearGradient><path fill="url(#mEAqsZ9KKV2y3wnbiHtBYc)" d="M30.331,27.561 c-2.514-0.749-3.945-3.395-3.196-5.909c0.649-2.179,2.723-3.538,4.901-3.376c-0.364-0.183-0.745-0.342-1.149-0.462 c-3.705-1.104-7.603,1.005-8.707,4.71c-1.104,3.705,1.005,7.603,4.71,8.707c3.705,1.104,7.603-1.005,8.707-4.71 c0.12-0.404,0.196-0.81,0.242-1.214C34.783,27.219,32.51,28.211,30.331,27.561z"/><linearGradient id="mEAqsZ9KKV2y3wnbiHtBYd" x1="29.63" x2="32.653" y1="22.695" y2="22.695" gradientUnits="userSpaceOnUse"><stop offset="0" stop-color="#f9f9f9"/><stop offset="1" stop-color="#c2c8cc"/></linearGradient><polygon fill="url(#mEAqsZ9KKV2y3wnbiHtBYd)" points="31.468,21.118 31.654,22.203 32.653,22.666 31.677,23.178 31.546,24.271 30.758,23.502 29.678,23.715 30.166,22.727 29.63,21.766 30.719,21.925"/><linearGradient id="mEAqsZ9KKV2y3wnbiHtBYe" x1="34.993" x2="38.016" y1="22.206" y2="22.206" gradientUnits="userSpaceOnUse"><stop offset="0" stop-color="#f9f9f9"/><stop offset="1" stop-color="#c2c8cc"/></linearGradient><polygon fill="url(#mEAqsZ9KKV2y3wnbiHtBYe)" points="36.831,20.629 37.016,21.715 38.016,22.177 37.04,22.689 36.909,23.782 36.121,23.013 35.041,23.226 35.529,22.239 34.993,21.277 36.082,21.436"/><linearGradient id="mEAqsZ9KKV2y3wnbiHtBYf" x1="34.458" x2="37.481" y1="16.829" y2="16.829" gradientUnits="userSpaceOnUse"><stop offset="0" stop-color="#f9f9f9"/><stop offset="1" stop-color="#c2c8cc"/></linearGradient><polygon fill="url(#mEAqsZ9KKV2y3wnbiHtBYf)" points="36.297,15.252 36.482,16.338 37.481,16.801 36.506,17.312 36.374,18.406 35.586,17.636 34.506,17.849 34.994,16.862 34.458,15.9 35.548,16.06"/><g><path d="M29,6.82V37c0,0.55-0.45,1-1,1H14.6l3.35,1H28c1.1,0,2-0.9,2-2V7.11L29,6.82z" opacity=".05"/><path d="M29.5,6.97V37c0,0.83-0.67,1.5-1.5,1.5H16.28L14.6,38l-1.11-0.33c-0.13-0.03-0.24-0.09-0.33-0.17H28 c0.28,0,0.5-0.22,0.5-0.5V6.67L29,6.82L29.5,6.97z" opacity=".07"/><linearGradient id="mEAqsZ9KKV2y3wnbiHtBYg" x1="12.345" x2="24.517" y1="-5.4" y2="63.633" gradientUnits="userSpaceOnUse"><stop offset="0" stop-color="#f9f9f9"/><stop offset=".193" stop-color="#e6e8e9"/><stop offset=".46" stop-color="#d2d6d9"/><stop offset=".729" stop-color="#c6cccf"/><stop offset="1" stop-color="#c2c8cc"/></linearGradient><path fill="url(#mEAqsZ9KKV2y3wnbiHtBYg)" d="M29,37c0,0.553-0.447,1-1,1H6 c-0.553,0-1-0.447-1-1V5c0-0.553,0.447-1,1-1h22c0.553,0,1,0.447,1,1V37z"/><linearGradient id="mEAqsZ9KKV2y3wnbiHtBYh" x1="14.475" x2="19.525" y1="6.682" y2="35.318" gradientUnits="userSpaceOnUse"><stop offset="0" stop-color="#32bdef"/><stop offset="1" stop-color="#1ea2e4"/></linearGradient><rect width="20" height="26" x="7" y="8" fill="url(#mEAqsZ9KKV2y3wnbiHtBYh)"/><radialGradient id="mEAqsZ9KKV2y3wnbiHtBYi" cx="17" cy="1391" r="8" gradientTransform="translate(0 -1370)" gradientUnits="userSpaceOnUse"><stop offset=".724" stop-color="#ffed54"/><stop offset=".779" stop-color="#ffe649"/><stop offset=".877" stop-color="#ffd22d"/><stop offset="1" stop-color="#ffb300"/></radialGradient><path fill="url(#mEAqsZ9KKV2y3wnbiHtBYi)" d="M17,13l0.517,0.536 c0.338,0.35,0.869,0.434,1.298,0.206l0.657-0.35l0.326,0.67c0.214,0.438,0.691,0.682,1.171,0.597l0.734-0.13l0.102,0.738 c0.067,0.482,0.446,0.862,0.93,0.93l0.738,0.102l-0.13,0.734c-0.086,0.48,0.158,0.958,0.597,1.171l0.67,0.326l-0.35,0.657 c-0.23,0.43-0.146,0.96,0.206,1.298L25,21l-0.536,0.517c-0.35,0.338-0.434,0.869-0.206,1.298l0.35,0.657l-0.67,0.326 c-0.438,0.214-0.682,0.691-0.597,1.171l0.13,0.734l-0.738,0.102c-0.482,0.067-0.862,0.446-0.93,0.93l-0.102,0.738l-0.734-0.13 c-0.48-0.086-0.958,0.158-1.171,0.597l-0.326,0.67l-0.657-0.35c-0.43-0.23-0.96-0.146-1.298,0.206L17,29l-0.517-0.536 c-0.338-0.35-0.869-0.434-1.298-0.206l-0.657,0.35l-0.326-0.67c-0.214-0.438-0.691-0.682-1.171-0.597l-0.733,0.13l-0.102-0.738 c-0.067-0.482-0.446-0.862-0.93-0.93l-0.738-0.102l0.13-0.734c0.086-0.48-0.158-0.958-0.597-1.171L9.39,23.47l0.35-0.657 c0.23-0.43,0.146-0.96-0.206-1.298L9,21l0.536-0.517c0.35-0.338,0.434-0.869,0.206-1.298l-0.35-0.657l0.67-0.326 c0.438-0.214,0.682-0.691,0.597-1.171l-0.13-0.733l0.738-0.102c0.482-0.067,0.862-0.446,0.93-0.93l0.102-0.738l0.734,0.13 c0.48,0.086,0.958-0.158,1.171-0.597l0.326-0.67l0.657,0.35c0.43,0.23,0.96,0.146,1.298-0.206L17,13z"/><linearGradient id="mEAqsZ9KKV2y3wnbiHtBYj" x1="12.321" x2="20.529" y1="1386.321" y2="1394.529" gradientTransform="translate(0 -1370)" gradientUnits="userSpaceOnUse"><stop offset="0" stop-color="#fed100"/><stop offset="1" stop-color="#e36001"/></linearGradient><path fill="url(#mEAqsZ9KKV2y3wnbiHtBYj)" d="M17,16c-2.762,0-5,2.238-5,5s2.238,5,5,5 s5-2.239,5-5S19.761,16,17,16z"/></g></svg>