<svg xmlns="http://www.w3.org/2000/svg" viewBox="0 0 48 48"><path fill="#50e6ff" d="M4,38V15h40v23c0,1.1-0.9,2-2,2H6C4.9,40,4,39.1,4,38z"/><linearGradient id="MqVhU1sfjlQVDaqGzMfPxa" x1="4.614" x2="42.936" y1="-198.259" y2="-190.467" gradientTransform="translate(0 206)" gradientUnits="userSpaceOnUse"><stop offset="0" stop-color="#0077d2"/><stop offset="1" stop-color="#0b59a2"/></linearGradient><path fill="url(#MqVhU1sfjlQVDaqGzMfPxa)" d="M44,10v5H4v-5c0-1.1,0.9-2,2-2h36C43.1,8,44,8.9,44,10z"/><linearGradient id="MqVhU1sfjlQVDaqGzMfPxb" x1="16" x2="42" y1="-194.5" y2="-194.5" gradientTransform="translate(0 206)" gradientUnits="userSpaceOnUse"><stop offset="0" stop-color="#7dd8f3"/><stop offset="1" stop-color="#45b0d0"/></linearGradient><path fill="url(#MqVhU1sfjlQVDaqGzMfPxb)" d="M16.5,13h25c0.276,0,0.5-0.224,0.5-0.5v-2c0-0.276-0.224-0.5-0.5-0.5h-25	c-0.276,0-0.5,0.224-0.5,0.5v2C16,12.776,16.224,13,16.5,13z"/><linearGradient id="MqVhU1sfjlQVDaqGzMfPxc" x1="6.751" x2="8.032" y1="-195.584" y2="-193.731" gradientTransform="translate(0 206)" gradientUnits="userSpaceOnUse"><stop offset="0" stop-color="#ffc430"/><stop offset=".41" stop-color="#fec130"/><stop offset=".72" stop-color="#fcb730"/><stop offset=".998" stop-color="#f7a72f"/><stop offset="1" stop-color="#f7a72f"/></linearGradient><circle cx="7.5" cy="11.5" r="1.5" fill="url(#MqVhU1sfjlQVDaqGzMfPxc)"/><linearGradient id="MqVhU1sfjlQVDaqGzMfPxd" x1="11.751" x2="13.032" y1="-195.584" y2="-193.731" gradientTransform="translate(0 206)" gradientUnits="userSpaceOnUse"><stop offset="0" stop-color="#9dffce"/><stop offset="1" stop-color="#50d18d"/></linearGradient><circle cx="12.5" cy="11.5" r="1.5" fill="url(#MqVhU1sfjlQVDaqGzMfPxd)"/></svg>