<svg xmlns="http://www.w3.org/2000/svg" viewBox="0 0 48 48"><linearGradient id="PuukGod4ThQQZFRfabagxa" x1="10.69" x2="-2.426" y1="24" y2="24" gradientUnits="userSpaceOnUse"><stop offset="0" stop-color="#f44f5a"/><stop offset=".443" stop-color="#ee3d4a"/><stop offset="1" stop-color="#e52030"/></linearGradient><path fill="url(#PuukGod4ThQQZFRfabagxa)" d="M10,24c0,0-3.59,5.29-6,6.67C3.63,30.88,3.29,31,3,31c-1.1,0-2-3.13-2-7s0.9-7,2-7	c0.29,0,0.63,0.12,1,0.33C6.41,18.71,10,24,10,24z"/><path fill="#b31523" d="M4,17.33v13.34C3.63,30.88,3.29,31,3,31c-1.1,0-2-3.13-2-7s0.9-7,2-7C3.29,17,3.63,17.12,4,17.33z"/><path fill="#b31523" d="M11,24v-7.981c0-3.483,4.121-5.311,6.691-2.968L22,16.98L11,24z"/><path fill="#b31523" d="M22,18v-7.981c0-3.483,4.121-5.311,6.691-2.968L38,16L22,18z"/><path fill="#b31523" d="M11,24v7.981c0,3.483,4.121,5.311,6.691,2.968L22,31.02L11,24z"/><path fill="#b31523" d="M22,30v7.981c0,3.483,4.121,5.311,6.691,2.968L38,32L22,30z"/><linearGradient id="PuukGod4ThQQZFRfabagxb" x1="2.977" x2="49.57" y1="24" y2="24" gradientUnits="userSpaceOnUse"><stop offset="0" stop-color="#f44f5a"/><stop offset=".443" stop-color="#ee3d4a"/><stop offset="1" stop-color="#e52030"/></linearGradient><path fill="url(#PuukGod4ThQQZFRfabagxb)" d="M46.82,24.52c-1.34,1.73-6.17,7.33-12.82,9.56c-0.96,0.32-1.96,0.57-3,0.73	C30.19,34.93,29.37,35,28.53,35c-1.95,0-3.8-0.28-5.53-0.74c-1.04-0.28-2.04-0.63-3-1.03c-3.27-1.37-5.98-3.32-8-5.08	c-1.31-1.13-2.32-2.19-3-2.95C8.35,24.46,8,24,8,24s0.34-0.52,1-1.33c0.67-0.81,1.68-1.93,3-3.1c1.96-1.76,4.64-3.67,8-4.97	c0.94-0.37,1.94-0.69,3-0.94c1.7-0.42,3.55-0.66,5.53-0.66c0.84,0,1.66,0.07,2.47,0.19c1.04,0.16,2.04,0.41,3,0.73	c6.65,2.23,11.48,7.83,12.82,9.56C47.06,23.8,47.06,24.2,46.82,24.52z"/><linearGradient id="PuukGod4ThQQZFRfabagxc" x1="41" x2="43" y1="23" y2="23" gradientUnits="userSpaceOnUse"><stop offset="0" stop-color="#4c4c4c"/><stop offset="1" stop-color="#343434"/></linearGradient><circle cx="42" cy="23" r="1" fill="url(#PuukGod4ThQQZFRfabagxc)"/><linearGradient id="PuukGod4ThQQZFRfabagxd" x1="10.5" x2="10.5" y1="10.159" y2="49.092" gradientUnits="userSpaceOnUse"><stop offset="0" stop-color="#f9f9f9"/><stop offset="1" stop-color="#c2c8cc"/></linearGradient><path fill="url(#PuukGod4ThQQZFRfabagxd)" d="M12,19.57v8.58c-1.31-1.13-2.32-2.19-3-2.95v-2.53C9.67,21.86,10.68,20.74,12,19.57z"/><linearGradient id="PuukGod4ThQQZFRfabagxe" x1="21.5" x2="21.5" y1="10.159" y2="49.092" gradientUnits="userSpaceOnUse"><stop offset="0" stop-color="#f9f9f9"/><stop offset="1" stop-color="#c2c8cc"/></linearGradient><path fill="url(#PuukGod4ThQQZFRfabagxe)" d="M23,13.66v20.6c-1.04-0.28-2.04-0.63-3-1.03V14.6C20.94,14.23,21.94,13.91,23,13.66z"/><linearGradient id="PuukGod4ThQQZFRfabagxf" x1="32.5" x2="32.5" y1="10.159" y2="49.092" gradientUnits="userSpaceOnUse"><stop offset="0" stop-color="#f9f9f9"/><stop offset="1" stop-color="#c2c8cc"/></linearGradient><path fill="url(#PuukGod4ThQQZFRfabagxf)" d="M34,13.92v20.16c-0.96,0.32-1.96,0.57-3,0.73V13.19C32.04,13.35,33.04,13.6,34,13.92z"/></svg>