<svg xmlns="http://www.w3.org/2000/svg" viewBox="0 0 48 48"><linearGradient id="XPMiSNy6b6~MeYTERMxgda" x1="4.232" x2="39.112" y1="71.827" y2="-2.975" gradientTransform="matrix(1 0 0 -1 0 50)" gradientUnits="userSpaceOnUse"><stop offset="0" stop-color="#fed100"/><stop offset=".033" stop-color="#fcca00"/><stop offset=".221" stop-color="#f3a400"/><stop offset=".408" stop-color="#ec8601"/><stop offset=".592" stop-color="#e77101"/><stop offset=".771" stop-color="#e46401"/><stop offset=".941" stop-color="#e36001"/></linearGradient><path fill="url(#XPMiSNy6b6~MeYTERMxgda)" d="M27,20c-3.87,0-7,3.13-7,7s3.13,7,7,7s7-3.13,7-7S30.87,20,27,20z M27,29c-1.1,0-2-0.9-2-2 s0.9-2,2-2s2,0.9,2,2S28.1,29,27,29z"/><linearGradient id="XPMiSNy6b6~MeYTERMxgdb" x1="-2.215" x2="32.67" y1="67.339" y2="-7.471" gradientTransform="matrix(1 0 0 -1 0 50)" gradientUnits="userSpaceOnUse"><stop offset="0" stop-color="#fed100"/><stop offset=".033" stop-color="#fcca00"/><stop offset=".221" stop-color="#f3a400"/><stop offset=".408" stop-color="#ec8601"/><stop offset=".592" stop-color="#e77101"/><stop offset=".771" stop-color="#e46401"/><stop offset=".941" stop-color="#e36001"/></linearGradient><circle cx="11" cy="11" r="3" fill="url(#XPMiSNy6b6~MeYTERMxgdb)"/><linearGradient id="XPMiSNy6b6~MeYTERMxgdc" x1="-1.053" x2="37.328" y1="77.208" y2="-5.1" gradientTransform="matrix(1 0 0 -1 0 50)" gradientUnits="userSpaceOnUse"><stop offset="0" stop-color="#fed100"/><stop offset=".033" stop-color="#fcca00"/><stop offset=".221" stop-color="#f3a400"/><stop offset=".408" stop-color="#ec8601"/><stop offset=".592" stop-color="#e77101"/><stop offset=".771" stop-color="#e46401"/><stop offset=".941" stop-color="#e36001"/></linearGradient><path fill="url(#XPMiSNy6b6~MeYTERMxgdc)" d="M30,10.28V6c0-1.657-1.343-3-3-3s-3,1.343-3,3v4.28C17.019,11.525,11.525,17.019,10.28,24H6 c-1.657,0-3,1.343-3,3s1.343,3,3,3h4.28c1.419,7.956,8.355,14,16.72,14c9.39,0,17-7.61,17-17C44,18.635,37.956,11.699,30,10.28z M27,38c-6.061,0-11-4.939-11-11s4.939-11,11-11s11,4.939,11,11S33.061,38,27,38z"/></svg>