<svg xmlns="http://www.w3.org/2000/svg" viewBox="0 0 48 48"><path fill="#455a64" d="M22.245,46h-6.489C14.786,46,14,45.214,14,44.245V41h10v3.245C24,45.214,23.214,46,22.245,46z"/><path fill="#455a64" d="M28,10H10v14c0,0.552,0.448,1,1,1h16c0.552,0,1-0.448,1-1V10z"/><linearGradient id="~~bbD8IVifNBajdYfYX44a" x1="22.269" x2="24.691" y1="17.739" y2="34.691" gradientUnits="userSpaceOnUse"><stop offset="0" stop-color="#889097"/><stop offset="1" stop-color="#455a64"/></linearGradient><path fill="url(#~~bbD8IVifNBajdYfYX44a)" d="M40.176,18.097c-4.38-0.724-8.206,2.694-8.175,6.954C32.008,26.14,31.066,27,29.977,27L28,27 c0,0-2,0.1-2-2H12c0,0-0.2,2-2,2H9.5C5.358,27,2,30.358,2,34.5v0C2,38.642,5.358,42,9.5,42H15h19h4.245 C42.528,42,46,38.528,46,34.245V30l0-4.802C46,21.746,43.581,18.66,40.176,18.097z"/><path fill="#455a64" d="M26,3H12c-0.552,0-1,0.448-1,1v2c0,0.552,0.448,1,1,1h14c0.552,0,1-0.448,1-1V4 C27,3.448,26.552,3,26,3z"/><linearGradient id="~~bbD8IVifNBajdYfYX44b" x1="36" x2="42" y1="23.5" y2="23.5" gradientUnits="userSpaceOnUse"><stop offset="0" stop-color="#4b4b4b"/><stop offset="1" stop-color="#3b3b3b"/></linearGradient><ellipse cx="39" cy="23.5" fill="url(#~~bbD8IVifNBajdYfYX44b)" rx="3" ry="2.5"/><linearGradient id="~~bbD8IVifNBajdYfYX44c" x1="38" x2="38" y1="27.968" y2="37.968" gradientUnits="userSpaceOnUse"><stop offset="0" stop-color="#a1aab3"/><stop offset="1" stop-color="#8f979e"/></linearGradient><circle cx="38" cy="34" r="5" fill="url(#~~bbD8IVifNBajdYfYX44c)"/><linearGradient id="~~bbD8IVifNBajdYfYX44d" x1="38" x2="38" y1="30.381" y2="36.381" gradientUnits="userSpaceOnUse"><stop offset="0" stop-color="#4b4b4b"/><stop offset="1" stop-color="#3b3b3b"/></linearGradient><circle cx="38" cy="34" r="3" fill="url(#~~bbD8IVifNBajdYfYX44d)"/><linearGradient id="~~bbD8IVifNBajdYfYX44e" x1="19" x2="19" y1="28.541" y2="46.423" gradientUnits="userSpaceOnUse"><stop offset="0" stop-color="#889097"/><stop offset="1" stop-color="#64717c"/></linearGradient><path fill="url(#~~bbD8IVifNBajdYfYX44e)" d="M24.4,24c-0.2-0.6-0.8-1-1.4-1h-4h-3.9c-0.6,0-1.2,0.4-1.4,1C11,31.3,11,41,11,41 c0,0.5,0.5,1,1,1h7h7c0.5,0,1-0.5,1-1C27,41,27,31.3,24.4,24z"/><path fill="#c0c9cc" d="M16,31h6c0.552,0,1,0.448,1,1v5c0,0.552-0.448,1-1,1h-6c-0.552,0-1-0.448-1-1v-5 C15,31.448,15.448,31,16,31z"/><path fill="#455a64" d="M17,31h4v7h-4V31z"/><linearGradient id="~~bbD8IVifNBajdYfYX44f" x1="19" x2="18.999" y1="8.751" y2="17.544" gradientUnits="userSpaceOnUse"><stop offset="0" stop-color="#a1aab3"/><stop offset="1" stop-color="#8f979e"/></linearGradient><path fill="url(#~~bbD8IVifNBajdYfYX44f)" d="M28,11H10c-0.552,0-1-0.448-1-1V7c0-0.552,0.448-1,1-1h18c0.552,0,1,0.448,1,1v3 C29,10.552,28.552,11,28,11z"/><linearGradient id="~~bbD8IVifNBajdYfYX44g" x1="9" x2="29" y1="17.5" y2="17.5" gradientUnits="userSpaceOnUse"><stop offset="0" stop-color="#a1aab3"/><stop offset="1" stop-color="#8f979e"/></linearGradient><path fill="url(#~~bbD8IVifNBajdYfYX44g)" d="M28,20H10c-0.552,0-1-0.448-1-1v-3c0-0.552,0.448-1,1-1h18c0.552,0,1,0.448,1,1v3 C29,19.552,28.552,20,28,20z"/></svg>