<svg xmlns="http://www.w3.org/2000/svg" id="Layer_1" x="0" y="0" version="1.1" viewBox="0 0 48 48" xml:space="preserve"><linearGradient id="SVGID_1_" x1="7.196" x2="39.472" y1="1168.822" y2="1196.054" gradientTransform="translate(0 -1162)" gradientUnits="userSpaceOnUse"><stop offset="0" stop-color="#a1aab3"/><stop offset="1" stop-color="#8f979e"/></linearGradient><path fill="url(#SVGID_1_)" d="M43,36H5c-1.1,0-2-0.9-2-2V8c0-1.1,0.9-2,2-2h38c1.1,0,2,0.9,2,2v26C45,35.1,44.1,36,43,36z"/><linearGradient id="SVGID_2_" x1="24" x2="24" y1="1197.987" y2="1204.012" gradientTransform="translate(0 -1162)" gradientUnits="userSpaceOnUse"><stop offset="0" stop-color="#a1aab3"/><stop offset="1" stop-color="#8f979e"/></linearGradient><path fill="url(#SVGID_2_)" d="M33,40v-4H15v4L0,39.7V41c0,0.6,0.4,1,1,1h46c0.6,0,1-0.4,1-1v-1.3L33,40z"/><linearGradient id="SVGID_3_" x1="23.999" x2="23.999" y1="1197.991" y2="1202.008" gradientTransform="translate(0 -1162)" gradientUnits="userSpaceOnUse"><stop offset="0" stop-color="#484b4f"/><stop offset=".028" stop-color="#565b61"/><stop offset=".066" stop-color="#626a72"/><stop offset=".114" stop-color="#6b757d"/><stop offset=".181" stop-color="#717b84"/><stop offset=".367" stop-color="#727d86"/></linearGradient><path fill="url(#SVGID_3_)" d="M47.9,39.5L45,36.6c-0.4-0.4-0.9-0.6-1.4-0.6H4.4c-0.5,0-1,0.2-1.4,0.6l-2.9,2.9C-0.1,39.7,0,40,0.3,40h17.1	c0.4,0,0.7-0.2,0.9-0.6l0.4-0.9c0.2-0.3,0.5-0.6,0.9-0.6h8.8c0.4,0,0.7,0.2,0.9,0.6l0.4,0.9c0.2,0.3,0.5,0.6,0.9,0.6h17.1	C48,40,48.1,39.7,47.9,39.5z"/><radialGradient id="SVGID_4_" cx="42.958" cy="85.808" r="34.553" gradientTransform="matrix(1 0 0 -1.0833 0 127.167)" gradientUnits="userSpaceOnUse"><stop offset="0" stop-color="#9e6fd9"/><stop offset=".173" stop-color="#aa73c7"/><stop offset=".522" stop-color="#ca7f97"/><stop offset="1" stop-color="#fc914d"/></radialGradient><path fill="url(#SVGID_4_)" d="M43,8H5v26h38V8z"/><radialGradient id="SVGID_5_" cx="37.883" cy="10.17" r="12.249" gradientUnits="userSpaceOnUse"><stop offset="0"/><stop offset=".979" stop-opacity="0"/></radialGradient><path fill="url(#SVGID_5_)" d="M43,6H26.7C26.3,7.3,26,8.6,26,10c0,6.6,5.4,12,12,12c2.6,0,5-0.8,7-2.3V8C45,6.9,44.1,6,43,6z"/><linearGradient id="SVGID_6_" x1="28" x2="48" y1="108" y2="108" gradientTransform="matrix(1 0 0 -1 0 118)" gradientUnits="userSpaceOnUse"><stop offset="0" stop-color="#21ad64"/><stop offset="1" stop-color="#088242"/></linearGradient><circle cx="38" cy="10" r="10" fill="url(#SVGID_6_)"/><path d="M37.8,18c-0.7,0-1.3-0.6-1.3-1.3v-0.4c-0.7-0.1-1.4-0.3-2-0.6c-0.6-0.3-1-0.8-1-1.4v-1.2	c0-0.7,0.6-1.3,1.3-1.3c0.2,0,0.4,0,0.6,0.1c0.3,0.2,1.4,0.7,2.6,0.7c0.5,0,0.6-0.1,0.6-0.1c-0.1-0.2-1-0.5-1.4-0.7	c-1.6-0.6-3.9-1.5-3.9-4.3c0-2,1.2-3.4,3.2-3.9V3.3c0-0.7,0.6-1.3,1.3-1.3h0.5c0.7,0,1.3,0.6,1.3,1.3v0.2c0.6,0.1,1.1,0.2,1.5,0.3	c0.2,0.1,1,0.5,1,1.6v1c0,0.7-0.6,1.3-1.3,1.3c-0.2,0-0.4,0-0.6-0.1c-0.4-0.2-1.2-0.5-2.1-0.5c-0.2,0-0.6,0-0.6,0.2	c0,0.2,1,0.6,1.5,0.8c1.5,0.6,3.8,1.5,3.8,4.2c0,1.5-0.8,3.4-3.2,4v0.4c0,0.7-0.6,1.3-1.3,1.3H37.8z" opacity=".05"/><path d="M37.8,17.5c-0.4,0-0.8-0.3-0.8-0.8v-0.8c-0.8-0.1-1.7-0.3-2.3-0.6c-0.4-0.2-0.7-0.6-0.7-1v-1.2	c0-0.5,0.4-0.8,0.8-0.8c0.1,0,0.3,0,0.4,0.1c0.3,0.2,1.5,0.7,2.8,0.7c1.1,0,1.1-0.5,1.1-0.6c0-0.4-0.6-0.7-1.7-1.1	c-1.5-0.6-3.6-1.3-3.6-3.8c0-2.2,1.6-3.2,3.2-3.5V3.3c0-0.4,0.3-0.8,0.8-0.8h0.5c0.4,0,0.8,0.3,0.8,0.8v0.7c0.8,0.1,1.4,0.2,1.8,0.4	c0.2,0.1,0.7,0.3,0.7,1.1v1c0,0.5-0.4,0.8-0.8,0.8c-0.1,0-0.2,0-0.4-0.1C39.9,7,39,6.7,38,6.7c-0.8,0-1.1,0.2-1.1,0.7	c0,0.5,0.7,0.8,1.8,1.3c1.5,0.6,3.5,1.4,3.5,3.7c0,1.4-0.8,3.2-3.2,3.6v0.8c0,0.4-0.3,0.8-0.8,0.8H37.8z" opacity=".05"/><path fill="#fff" d="M41.7,12.3c0-3.6-5.3-2.9-5.3-5c0-1.1,1.2-1.2,1.6-1.2c0.9,0,1.8,0.3,2.5,0.6c0.2,0.1,0.5,0,0.5-0.3v-1	c0-0.4-0.1-0.6-0.3-0.6c-0.5-0.2-1.2-0.3-2.2-0.4V3.3c0-0.1-0.1-0.3-0.3-0.3h-0.5c-0.1,0-0.3,0.1-0.3,0.3v1.2	c-1.6,0.2-3.2,1-3.2,3.1c0,3.7,5.3,3,5.3,5c0,0.6-0.4,1.2-1.6,1.2c-1.3,0-2.4-0.4-3-0.8c-0.2-0.1-0.5,0-0.5,0.3v1.2	c0,0.2,0.1,0.4,0.3,0.5c0.8,0.3,1.8,0.6,2.7,0.6v1.3c0,0.1,0.1,0.3,0.3,0.3h0.5c0.1,0,0.3-0.1,0.3-0.3v-1.3	C40.8,15.3,41.7,13.7,41.7,12.3z"/></svg>