<svg xmlns="http://www.w3.org/2000/svg" viewBox="0 0 48 48"><linearGradient id="IppF6Q0kjfsSaVhse0KSVa" x1="17" x2="17" y1="12.435" y2="37.09" gradientUnits="userSpaceOnUse"><stop offset="0" stop-color="#e83c67"/><stop offset=".423" stop-color="#c5214a"/><stop offset=".773" stop-color="#b01038"/><stop offset="1" stop-color="#a80a31"/></linearGradient><circle cx="17" cy="24" r="8" fill="url(#IppF6Q0kjfsSaVhse0KSVa)"/><linearGradient id="IppF6Q0kjfsSaVhse0KSVb" x1="31" x2="31" y1="12.435" y2="37.09" gradientUnits="userSpaceOnUse"><stop offset="0" stop-color="#e83c67"/><stop offset=".423" stop-color="#c5214a"/><stop offset=".773" stop-color="#b01038"/><stop offset="1" stop-color="#a80a31"/></linearGradient><circle cx="31" cy="24" r="8" fill="url(#IppF6Q0kjfsSaVhse0KSVb)"/><path fill="#eba600" d="M25,6v8h-2V6c0-0.55,0.45-1,1-1S25,5.45,25,6z"/><path fill="#eba600" d="M22,7h4c0.552,0,1,0.448,1,1v0c0,0.552-0.448,1-1,1h-4c-0.552,0-1-0.448-1-1v0	C21,7.448,21.448,7,22,7z"/><linearGradient id="IppF6Q0kjfsSaVhse0KSVc" x1="24" x2="24" y1="7.935" y2="39.704" gradientUnits="userSpaceOnUse"><stop offset="0" stop-color="#ffd869"/><stop offset="1" stop-color="#fec52b"/></linearGradient><circle cx="24" cy="15" r="4" fill="url(#IppF6Q0kjfsSaVhse0KSVc)"/><linearGradient id="IppF6Q0kjfsSaVhse0KSVd" x1="24" x2="24" y1="7.935" y2="39.704" gradientUnits="userSpaceOnUse"><stop offset="0" stop-color="#ffd869"/><stop offset="1" stop-color="#fec52b"/></linearGradient><rect width="28" height="7" x="10" y="30" fill="url(#IppF6Q0kjfsSaVhse0KSVd)"/><linearGradient id="IppF6Q0kjfsSaVhse0KSVe" x1="24" x2="24" y1="7.935" y2="39.704" gradientUnits="userSpaceOnUse"><stop offset="0" stop-color="#ffd869"/><stop offset="1" stop-color="#fec52b"/></linearGradient><path fill="url(#IppF6Q0kjfsSaVhse0KSVe)" d="M15,14c1.46,0,2.83,0.39,4.01,1.09c0.17,0.09,0.34,0.2,0.51,0.33	c0.2,0.12,0.39,0.26,0.57,0.42c0.42,0.34,0.81,0.73,1.15,1.16h2.41c-0.82-1.41-1.98-2.61-3.36-3.47c-0.14-0.1-0.29-0.18-0.44-0.27	c-0.14-0.08-0.29-0.16-0.45-0.23C18.08,12.37,16.57,12,15,12C9.49,12,5,16.49,5,22s4.49,10,10,10c2.24,0,4.31-0.75,5.98-2H15	c-4.41,0-8-3.59-8-8C7,17.59,10.59,14,15,14z M33,12c-1.57,0-3.07,0.37-4.4,1.03c-0.15,0.07-0.3,0.15-0.45,0.23	c-0.15,0.09-0.3,0.17-0.44,0.27c-1.38,0.86-2.54,2.06-3.36,3.47h2.42c0.34-0.43,0.72-0.82,1.14-1.15c0.18-0.16,0.37-0.31,0.57-0.43	c0.17-0.13,0.34-0.24,0.51-0.33C30.17,14.39,31.54,14,33,14c4.41,0,8,3.59,8,8c0,4.41-3.59,8-8,8h-5.98c1.67,1.25,3.74,2,5.98,2	c5.51,0,10-4.49,10-10S38.51,12,33,12z"/><linearGradient id="IppF6Q0kjfsSaVhse0KSVf" x1="24" x2="24" y1="7.935" y2="39.704" gradientUnits="userSpaceOnUse"><stop offset="0" stop-color="#ffd869"/><stop offset="1" stop-color="#fec52b"/></linearGradient><rect width="4" height="13" x="22" y="18" fill="url(#IppF6Q0kjfsSaVhse0KSVf)"/><linearGradient id="IppF6Q0kjfsSaVhse0KSVg" x1="21.951" x2="26.697" y1="30.951" y2="35.697" gradientUnits="userSpaceOnUse"><stop offset="0" stop-color="#e83c67"/><stop offset=".423" stop-color="#c5214a"/><stop offset=".773" stop-color="#b01038"/><stop offset="1" stop-color="#a80a31"/></linearGradient><path fill="url(#IppF6Q0kjfsSaVhse0KSVg)" d="M22.578,34.612l-0.715-1.2c-0.151-0.253-0.151-0.57,0-0.823l0.715-1.2 C22.721,31.147,22.98,31,23.259,31h1.483c0.279,0,0.537,0.147,0.681,0.388l0.715,1.2c0.151,0.253,0.151,0.57,0,0.823l-0.715,1.2 C25.279,34.853,25.02,35,24.741,35h-1.483C22.98,35,22.721,34.853,22.578,34.612z"/><linearGradient id="IppF6Q0kjfsSaVhse0KSVh" x1="8.639" x2="41.713" y1="30.631" y2="49.727" gradientUnits="userSpaceOnUse"><stop offset="0" stop-color="#dfe9f2"/><stop offset=".391" stop-color="#d6e0e9"/><stop offset="1" stop-color="#bfc8d1"/></linearGradient><path fill="url(#IppF6Q0kjfsSaVhse0KSVh)" d="M37.5,43h-27C9.119,43,8,41.881,8,40.5v-2c0-1.381,1.119-2.5,2.5-2.5h27	c1.381,0,2.5,1.119,2.5,2.5v2C40,41.881,38.881,43,37.5,43z"/><path fill="#64717c" d="M23,39c0-0.553,0.447-1,1-1s1,0.447,1,1c0,0.553-1,2-1,2S23,39.553,23,39z"/><path fill="#64717c" d="M29,39c0-0.553,0.447-1,1-1s1,0.447,1,1c0,0.553-1,2-1,2S29,39.553,29,39z"/><path fill="#64717c" d="M11,39c0-0.553,0.447-1,1-1s1,0.447,1,1c0,0.553-1,2-1,2S11,39.553,11,39z"/><path fill="#64717c" d="M17,39c0-0.553,0.447-1,1-1s1,0.447,1,1c0,0.553-1,2-1,2S17,39.553,17,39z"/><path fill="#64717c" d="M35,39c0-0.553,0.447-1,1-1s1,0.447,1,1c0,0.553-1,2-1,2S35,39.553,35,39z"/><linearGradient id="IppF6Q0kjfsSaVhse0KSVi" x1="13.478" x2="15.174" y1="32.478" y2="34.175" gradientUnits="userSpaceOnUse"><stop offset=".002" stop-color="#f44f78"/><stop offset=".397" stop-color="#e4305d"/><stop offset=".763" stop-color="#d81b4a"/><stop offset="1" stop-color="#d41343"/></linearGradient><polygon fill="url(#IppF6Q0kjfsSaVhse0KSVi)" points="14,34 12.999,33 14,32 15,33"/><linearGradient id="IppF6Q0kjfsSaVhse0KSVj" x1="17.478" x2="19.174" y1="32.478" y2="34.175" gradientUnits="userSpaceOnUse"><stop offset=".002" stop-color="#f44f78"/><stop offset=".397" stop-color="#e4305d"/><stop offset=".763" stop-color="#d81b4a"/><stop offset="1" stop-color="#d41343"/></linearGradient><polygon fill="url(#IppF6Q0kjfsSaVhse0KSVj)" points="18,34 16.999,33 18,32 19,33"/><linearGradient id="IppF6Q0kjfsSaVhse0KSVk" x1="29.479" x2="31.175" y1="32.478" y2="34.175" gradientUnits="userSpaceOnUse"><stop offset=".002" stop-color="#f44f78"/><stop offset=".397" stop-color="#e4305d"/><stop offset=".763" stop-color="#d81b4a"/><stop offset="1" stop-color="#d41343"/></linearGradient><polygon fill="url(#IppF6Q0kjfsSaVhse0KSVk)" points="30.001,34 29,33 30.001,32 31.001,33"/><linearGradient id="IppF6Q0kjfsSaVhse0KSVl" x1="33.479" x2="35.175" y1="32.478" y2="34.175" gradientUnits="userSpaceOnUse"><stop offset=".002" stop-color="#f44f78"/><stop offset=".397" stop-color="#e4305d"/><stop offset=".763" stop-color="#d81b4a"/><stop offset="1" stop-color="#d41343"/></linearGradient><polygon fill="url(#IppF6Q0kjfsSaVhse0KSVl)" points="34.001,34 33,33 34.001,32 35.001,33"/><path d="M24,19c-0.73,0-1.41-0.2-2-0.54v1.13c0.61,0.26,1.29,0.41,2,0.41s1.39-0.15,2-0.41v-1.13C25.41,18.8,24.73,19,24,19z M19.85,13.26c-0.14-0.08-0.29-0.16-0.45-0.23C19.14,13.64,19,14.3,19,15c0,0.03,0,0.06,0.01,0.09c0.17,0.09,0.34,0.2,0.51,0.33 c0.2,0.12,0.39,0.26,0.57,0.42C20.03,15.57,20,15.29,20,15c0-0.52,0.1-1.02,0.29-1.47C20.15,13.43,20,13.35,19.85,13.26z M28.6,13.03c-0.15,0.07-0.3,0.15-0.45,0.23c-0.15,0.09-0.3,0.17-0.44,0.27C27.9,13.98,28,14.48,28,15c0,0.29-0.03,0.58-0.09,0.85 c0.18-0.16,0.37-0.31,0.57-0.43c0.17-0.13,0.34-0.24,0.51-0.33C29,15.06,29,15.03,29,15C29,14.3,28.86,13.64,28.6,13.03z M24,10 c-0.34,0-0.68,0.03-1,0.1v1.03c0.32-0.09,0.65-0.13,1-0.13s0.68,0.04,1,0.13V10.1C24.68,10.03,24.34,10,24,10z" opacity=".05"/><path d="M24,19c-0.73,0-1.41-0.2-2-0.54v0.57c0.6,0.3,1.28,0.47,2,0.47s1.4-0.17,2-0.47v-0.57C25.41,18.8,24.73,19,24,19z M19.85,13.26C19.62,13.8,19.5,14.38,19.5,15c0,0.14,0.01,0.28,0.02,0.42c0.2,0.12,0.39,0.26,0.57,0.42 C20.03,15.57,20,15.29,20,15c0-0.52,0.1-1.02,0.29-1.47C20.15,13.43,20,13.35,19.85,13.26z M28.15,13.26 c-0.15,0.09-0.3,0.17-0.44,0.27C27.9,13.98,28,14.48,28,15c0,0.29-0.03,0.58-0.09,0.85c0.18-0.16,0.37-0.31,0.57-0.43 c0.01-0.14,0.02-0.28,0.02-0.42C28.5,14.38,28.38,13.8,28.15,13.26z M24,10.5c-0.34,0-0.68,0.04-1,0.12v0.51 c0.32-0.09,0.65-0.13,1-0.13s0.68,0.04,1,0.13v-0.51C24.68,10.54,24.34,10.5,24,10.5z" opacity=".07"/><g><path d="M37.5,35h-27c-0.17,0-0.34,0.01-0.5,0.04v1.01c0.16-0.03,0.33-0.05,0.5-0.05h27c0.17,0,0.34,0.02,0.5,0.05v-1.01 C37.84,35.01,37.67,35,37.5,35z" opacity=".05"/><path d="M37.5,35.5h-27c-0.17,0-0.34,0.01-0.5,0.05v0.5c0.16-0.03,0.33-0.05,0.5-0.05h27c0.17,0,0.34,0.02,0.5,0.05v-0.5 C37.84,35.51,37.67,35.5,37.5,35.5z" opacity=".07"/></g></svg>