<svg xmlns="http://www.w3.org/2000/svg" viewBox="0 0 48 48"><linearGradient id="~fQkVL1UcXWSx56Kb0thOa" x1="39.673" x2="46.065" y1="25.7" y2="26.743" gradientUnits="userSpaceOnUse"><stop offset="0" stop-color="#8c20e5"/><stop offset=".528" stop-color="#a235ec"/><stop offset="1" stop-color="#bd4ff4"/></linearGradient><path fill="url(#~fQkVL1UcXWSx56Kb0thOa)" d="M38.994,33.011c-0.387,0-0.755-0.226-0.918-0.604c-0.219-0.508,0.015-1.096,0.521-1.314	l5.167-2.229c0.73-0.315,1.205-1.033,1.208-1.829l0.02-5.02c0.001-0.269-0.104-0.521-0.294-0.712	c-0.191-0.189-0.475-0.302-0.712-0.292l-2.953,0.017c-0.002,0-0.004,0-0.006,0c-0.55,0-0.997-0.444-1-0.994	c-0.003-0.553,0.442-1.003,0.994-1.006l2.954-0.017c0.006,0,0.011,0,0.017,0c0.801,0,1.552,0.311,2.119,0.877	c0.571,0.57,0.884,1.328,0.881,2.135l-0.02,5.02c-0.007,1.592-0.955,3.027-2.415,3.657l-5.167,2.229	C39.261,32.984,39.127,33.011,38.994,33.011z"/><linearGradient id="~fQkVL1UcXWSx56Kb0thOb" x1="15" x2="15" y1="35.696" y2="39.137" gradientUnits="userSpaceOnUse"><stop offset=".018" stop-color="#005ab3"/><stop offset=".497" stop-color="#007ad9"/><stop offset="1" stop-color="#2aa4f4"/></linearGradient><path fill="url(#~fQkVL1UcXWSx56Kb0thOb)" d="M20,39H10c-0.552,0-1-0.448-1-1v-4h12v4C21,38.552,20.552,39,20,39z"/><linearGradient id="~fQkVL1UcXWSx56Kb0thOc" x1="14.99" x2="14.99" y1="-600.938" y2="-621.49" gradientTransform="matrix(1 0 0 -1 0 -588)" gradientUnits="userSpaceOnUse"><stop offset="0" stop-color="#fed100"/><stop offset="1" stop-color="#e38101"/></linearGradient><path fill="url(#~fQkVL1UcXWSx56Kb0thOc)" d="M26.554,22.95c0-1.597-1.294-2.891-2.891-2.891c0-1.996-1.618-3.614-3.614-3.614	c-0.303,0-0.593,0.048-0.874,0.119c-0.176-0.076-0.369-0.119-0.572-0.119c0-0.799-0.647-1.446-1.446-1.446	c-0.434,0-0.819,0.195-1.084,0.499C15.809,15.195,15.425,15,14.99,15c-0.694,0-1.273,0.489-1.412,1.142	c-0.434-0.26-0.936-0.419-1.479-0.419c-1.356,0-2.485,0.937-2.798,2.196c-0.149-0.017-0.301-0.028-0.455-0.028	c-2.074,0-3.775,1.589-3.957,3.616c-0.007-0.001-0.012-0.002-0.018-0.002c-1.597,0-2.891,1.294-2.891,2.891	c0,1.597,1.294,2.891,2.891,2.891c1.166,0,2.164-0.694,2.621-1.687c0.423,0.153,0.877,0.241,1.354,0.241	c0.961,0,1.842-0.341,2.53-0.909c0.687,0.567,1.568,0.909,2.53,0.909s1.842-0.341,2.53-0.909c0.687,0.567,1.568,0.909,2.53,0.909	c0.982,0,1.878-0.357,2.572-0.947c0.528,0.578,1.281,0.947,2.126,0.947c0.653,0,1.248-0.224,1.732-0.589	c0.264,0.356,0.683,0.589,1.159,0.589c0.799,0,1.446-0.647,1.446-1.446S27.353,22.95,26.554,22.95z"/><linearGradient id="~fQkVL1UcXWSx56Kb0thOd" x1="14.971" x2="14.971" y1="-612.184" y2="-623.657" gradientTransform="matrix(1 0 0 -1 0 -588)" gradientUnits="userSpaceOnUse"><stop offset="0" stop-color="#2aa4f4"/><stop offset="1" stop-color="#007ad9"/></linearGradient><path fill="url(#~fQkVL1UcXWSx56Kb0thOd)" d="M28.206,24H1.735C1.329,24,1,24.329,1,24.735l0,0C1,31.233,6.267,36.5,12.765,36.5h4.412	c6.498,0,11.765-5.267,11.765-11.765l0,0C28.941,24.329,28.612,24,28.206,24z"/><linearGradient id="~fQkVL1UcXWSx56Kb0thOe" x1="30.753" x2="36.542" y1="-600.732" y2="-626.853" gradientTransform="matrix(1 0 0 -1 0 -588)" gradientUnits="userSpaceOnUse"><stop offset="0" stop-color="#bd4ff4"/><stop offset=".587" stop-color="#a235ec"/><stop offset="1" stop-color="#8c20e5"/></linearGradient><path fill="url(#~fQkVL1UcXWSx56Kb0thOe)" d="M37.372,39H26.641c-0.703,0-1.299-0.52-1.393-1.217l-3.242-23.986	C21.95,13.375,22.278,13,22.703,13H41.31c0.426,0,0.753,0.375,0.696,0.797l-3.242,23.986C38.67,38.48,38.075,39,37.372,39z"/><linearGradient id="~fQkVL1UcXWSx56Kb0thOf" x1="-.667" x2="49.339" y1="865.5" y2="865.5" gradientTransform="translate(0 -826)" gradientUnits="userSpaceOnUse"><stop offset="0" stop-color="#dfe9f2"/><stop offset=".391" stop-color="#d6e0e9"/><stop offset="1" stop-color="#bfc8d1"/></linearGradient><path fill="url(#~fQkVL1UcXWSx56Kb0thOf)" d="M41.942,41H6.058c-0.857,0-1.618-0.545-1.894-1.356l-0.111-0.327	C3.833,38.669,4.324,38,5.02,38h37.96c0.696,0,1.187,0.669,0.967,1.316l-0.111,0.327C43.56,40.455,42.799,41,41.942,41z"/><path fill="#cdd0d2" d="M27,9c-0.553,0-1-0.447-1-1V4c0-0.553,0.447-1,1-1s1,0.447,1,1v4C28,8.553,27.553,9,27,9z"/><path fill="#cdd0d2" d="M37,9c-0.553,0-1-0.447-1-1V4c0-0.553,0.447-1,1-1s1,0.447,1,1v4C38,8.553,37.553,9,37,9z"/><path fill="#cdd0d2" d="M32,11c-0.553,0-1-0.447-1-1V7c0-0.553,0.447-1,1-1c0.553,0,1,0.447,1,1v3C33,10.553,32.553,11,32,11	z"/><path d="M22.5,17.41c-0.17-0.16-0.36-0.31-0.57-0.43c-0.17-0.11-0.35-0.2-0.53-0.27l2.39,17.75c0.16-0.11,0.31-0.22,0.46-0.33 c0.16-0.12,0.31-0.24,0.46-0.37L22.5,17.41z" opacity=".05"/><path d="M22.5,17.41c-0.17-0.16-0.36-0.31-0.57-0.43l2.32,17.15c0.16-0.12,0.31-0.24,0.46-0.37L22.5,17.41z" opacity=".07"/></svg>