<svg xmlns="http://www.w3.org/2000/svg" id="Layer_1" x="0" y="0" version="1.1" viewBox="0 0 48 48" xml:space="preserve"><linearGradient id="SVGID_1_" x1="9.009" x2="38.092" y1="519.64" y2="480.734" gradientTransform="matrix(1 0 0 -1 0 526)" gradientUnits="userSpaceOnUse"><stop offset="0" stop-color="#ffda1c"/><stop offset="1" stop-color="#feb705"/></linearGradient><path fill="url(#SVGID_1_)" d="M24.9,5.2l5.5,12.3l13.4,1.4c0.9,0.1,1.2,1.2,0.6,1.7l-10,9l2.8,13.2c0.2,0.8-0.7,1.5-1.5,1.1L24,37.1	l-11.7,6.7c-0.8,0.4-1.7-0.2-1.5-1.1l2.8-13.2l-10-9C3,20,3.4,19,4.2,18.9l13.4-1.4l5.5-12.3C23.4,4.4,24.6,4.4,24.9,5.2z"/><path fill="#e52030" d="M44.9,42.7L5.3,3.1C5.1,3,4.9,3,4.7,3.1L3.1,4.7C3,4.9,3,5.1,3.1,5.3l39.6,39.6c0.1,0.1,0.4,0.1,0.5,0l1.6-1.6	C45,43.1,45,42.9,44.9,42.7z"/></svg>