<svg xmlns="http://www.w3.org/2000/svg" data-name="Слой 1" viewBox="0 0 48 48"><defs><linearGradient id="d0Hy4VsYmxpAu0sCDwALfa" x1="11.186" x2="36.814" y1="26.942" y2="26.942" data-name="Безымянный градиент 155" gradientUnits="userSpaceOnUse"><stop offset="0" stop-color="#3079d6"/><stop offset="1" stop-color="#297cd2"/></linearGradient><linearGradient id="d0Hy4VsYmxpAu0sCDwALfb" x1="16" x2="30" y1="43.491" y2="43.491" data-name="Безымянный градиент 207" gradientUnits="userSpaceOnUse"><stop offset="0" stop-color="#c26715"/><stop offset=".508" stop-color="#b85515"/><stop offset="1" stop-color="#ad3f16"/></linearGradient><linearGradient id="d0Hy4VsYmxpAu0sCDwALfc" x1="22.122" x2="25.065" y1="-2123.593" y2="-2139.752" data-name="Безымянный градиент 212" gradientTransform="matrix(1 0 0 -1 0 -2096)" gradientUnits="userSpaceOnUse"><stop offset="0" stop-color="#f44f5a"/><stop offset=".443" stop-color="#ee3d4a"/><stop offset="1" stop-color="#e52030"/></linearGradient><linearGradient id="d0Hy4VsYmxpAu0sCDwALfd" x1="22.673" x2="25.164" y1="-2128.508" y2="-2142.114" data-name="Безымянный градиент 209" gradientTransform="matrix(1 0 0 -1 0 -2096)" gradientUnits="userSpaceOnUse"><stop offset="0" stop-color="#fed100"/><stop offset="1" stop-color="#e36001"/></linearGradient></defs><path fill="#50e6ff" d="M22.222,5.08427,6.271,36.056A1.88923,1.88923,0,0,0,7.75,38.991h32.5a1.88923,1.88923,0,0,0,1.479-2.935L25.77805,5.08427A2,2,0,0,0,22.222,5.08427Z"/><path fill="url(#d0Hy4VsYmxpAu0sCDwALfa)" d="M23.10811,15.46016,11.18625,38.97167h25.6275L24.89189,15.46016A1,1,0,0,0,23.10811,15.46016Z"/><line x1="29" x2="17" y1="44.991" y2="41.991" fill="none" stroke="url(#d0Hy4VsYmxpAu0sCDwALfb)" stroke-linecap="round" stroke-linejoin="round" stroke-width="2"/><line x1="19" x2="31" y1="44.991" y2="41.991" fill="none" stroke="#d6742d" stroke-linecap="round" stroke-linejoin="round" stroke-width="2"/><path fill="url(#d0Hy4VsYmxpAu0sCDwALfc)" d="M22.80748,27.98642a.40522.40522,0,0,1,.39088-.49545.44263.44263,0,0,1,.18595.0455c.49033.19224,3.857,1.78587,3.07844,6.39356,1.13053-.684.72624-2.012,1.0963-2.012.13877,0,.19567.052.28078.17413a10.80691,10.80691,0,0,1,2.17364,5.86235,6.01351,6.01351,0,1,1-12.02694,0C17.98653,33.0501,23.74466,32.14462,22.80748,27.98642Z"/><path fill="url(#d0Hy4VsYmxpAu0sCDwALfd)" d="M23.8455,33.39835a.41762.41762,0,0,0-.25025-.08729.40568.40568,0,0,0-.40476.4063c.40476,2.4378-2.42851,3.25041-2.42851,6.09451a3.238,3.238,0,1,0,6.476,0C27.238,37.49572,25.20593,34.40459,23.8455,33.39835Z"/></svg>