<svg xmlns="http://www.w3.org/2000/svg" viewBox="0 0 48 48"><linearGradient id="2w_6OSg8MZ2Hq11RUognNa" x1="20.375" x2="27.596" y1="4.761" y2="37.108" gradientUnits="userSpaceOnUse"><stop offset="0" stop-color="#0d61a9"/><stop offset="1" stop-color="#16528c"/></linearGradient><path fill="url(#2w_6OSg8MZ2Hq11RUognNa)" d="M42,5H6C4.895,5,4,5.895,4,7v28c0,1.105,0.895,2,2,2h36c1.105,0,2-0.895,2-2V7	C44,5.895,43.105,5,42,5z"/><radialGradient id="2w_6OSg8MZ2Hq11RUognNb" cx="25.018" cy="47.564" r="43.654" gradientUnits="userSpaceOnUse"><stop offset="0" stop-color="#4b4b4b"/><stop offset=".531" stop-color="#393939"/><stop offset="1" stop-color="#252525"/></radialGradient><rect width="34" height="26" x="7" y="8" fill="url(#2w_6OSg8MZ2Hq11RUognNb)"/><linearGradient id="2w_6OSg8MZ2Hq11RUognNc" x1="27.5" x2="27.5" y1="6.314" y2="48.486" gradientUnits="userSpaceOnUse"><stop offset="0" stop-color="#7179d1"/><stop offset="1" stop-color="#5961c3"/></linearGradient><circle cx="27.5" cy="46.5" r="1.5" fill="url(#2w_6OSg8MZ2Hq11RUognNc)"/><linearGradient id="2w_6OSg8MZ2Hq11RUognNd" x1="32" x2="32" y1="6.314" y2="48.486" gradientUnits="userSpaceOnUse"><stop offset="0" stop-color="#7179d1"/><stop offset="1" stop-color="#5961c3"/></linearGradient><circle cx="32" cy="38" r="2" fill="url(#2w_6OSg8MZ2Hq11RUognNd)"/><linearGradient id="2w_6OSg8MZ2Hq11RUognNe" x1="12.5" x2="12.5" y1="7.314" y2="49.486" gradientUnits="userSpaceOnUse"><stop offset="0" stop-color="#7179d1"/><stop offset="1" stop-color="#5961c3"/></linearGradient><circle cx="12.5" cy="35.5" r="1.5" fill="url(#2w_6OSg8MZ2Hq11RUognNe)"/><linearGradient id="2w_6OSg8MZ2Hq11RUognNf" x1="27.5" x2="27.5" y1="6.314" y2="48.486" gradientUnits="userSpaceOnUse"><stop offset="0" stop-color="#7179d1"/><stop offset="1" stop-color="#5961c3"/></linearGradient><circle cx="27.5" cy="7.5" r="1.5" fill="url(#2w_6OSg8MZ2Hq11RUognNf)"/><linearGradient id="2w_6OSg8MZ2Hq11RUognNg" x1="15.392" x2="20.987" y1="11.392" y2="16.987" gradientUnits="userSpaceOnUse"><stop offset="0" stop-color="#ffcf54"/><stop offset=".261" stop-color="#fdcb4d"/><stop offset=".639" stop-color="#f7c13a"/><stop offset="1" stop-color="#f0b421"/></linearGradient><path fill="url(#2w_6OSg8MZ2Hq11RUognNg)" d="M14,14c0,2.208,1.79,4,3.998,4C20.211,18,22,16.208,22,14s-1.789-4-4.002-4	C15.79,10,14,11.792,14,14z"/><linearGradient id="2w_6OSg8MZ2Hq11RUognNh" x1="26" x2="26" y1="6.314" y2="48.486" gradientUnits="userSpaceOnUse"><stop offset="0" stop-color="#7179d1"/><stop offset="1" stop-color="#5961c3"/></linearGradient><circle cx="26" cy="31" r="4" fill="url(#2w_6OSg8MZ2Hq11RUognNh)"/><linearGradient id="2w_6OSg8MZ2Hq11RUognNi" x1="24.566" x2="24.566" y1="6.314" y2="48.486" gradientUnits="userSpaceOnUse"><stop offset="0" stop-color="#7179d1"/><stop offset="1" stop-color="#5961c3"/></linearGradient><path fill="url(#2w_6OSg8MZ2Hq11RUognNi)" d="M31.574,34h6.371l-7.875-4.896l-3.924-7.914l3.522-3.271c0.662-0.614,0.965-1.524,0.804-2.412	L28.924,6.95l-2.952,0.535l0.945,7.852l-7.744,5.218c-0.973,0.656-1.758,1.555-2.276,2.609l-5.711,11.623l2.668,1.359L19.434,27	l2.884,5.565l1.497,1.786l5.663,3.654l-3.438,8.152l2.735,1.13l4.916-8.224l-0.113-2.287L31.574,34z"/></svg>