<svg xmlns="http://www.w3.org/2000/svg" xmlns:xlink="http://www.w3.org/1999/xlink" data-name="Слой 1" viewBox="0 0 48 48"><defs><linearGradient id="gJYIz0uC982~Z2FXXElpaa" x1="28" x2="36" y1="562" y2="562" data-name="Безымянный градиент 9" gradientTransform="matrix(1 0 0 -1 0 572)" gradientUnits="userSpaceOnUse"><stop offset="0" stop-color="#ffcf54"/><stop offset=".261" stop-color="#fdcb4d"/><stop offset=".639" stop-color="#f7c13a"/><stop offset="1" stop-color="#f0b421"/></linearGradient><linearGradient id="gJYIz0uC982~Z2FXXElpab" x1="9" x2="17" y1="561" y2="561" xlink:href="#gJYIz0uC982~Z2FXXElpaa"/></defs><path fill="url(#gJYIz0uC982~Z2FXXElpaa)" d="M28,10a4,4,0,1,0,3.998-4A3.99975,3.99975,0,0,0,28,10Z"/><path fill="url(#gJYIz0uC982~Z2FXXElpab)" d="M9,11a4,4,0,1,0,3.998-4A3.99975,3.99975,0,0,0,9,11Z"/><circle cx="10.5" cy="42.5" r="1.5" fill="#35c1f1"/><circle cx="15.5" cy="42.5" r="1.5" fill="#35c1f1"/><circle cx="23.5" cy="28.5" r="1.5" fill="#35c1f1"/><circle cx="24.5" cy="42.5" r="1.5" fill="#35c1f1"/><circle cx="39.5" cy="42.5" r="1.5" fill="#35c1f1"/><circle cx="42.5" cy="5.5" r="1.5" fill="#35c1f1"/><circle cx="5.5" cy="7.5" r="1.5" fill="#35c1f1"/><circle cx="19.5" cy="5.5" r="1.5" fill="#35c1f1"/><path fill="#35c1f1" d="M17.43634,22.2l5.16-9.4599a2,2,0,0,0,.15577-1.54588l-1.78331-6-2.92853.65222L19.5,11.5l-2.32273,3.87122a2,2,0,0,1-1.43214.9509L11.99,16.85858a2,2,0,0,1-1.69706-.56569L7,13V7.5H4v5.84526A2,2,0,0,0,4.38719,14.528l4.77608,6.51284L6.80992,26.21819a5.99994,5.99994,0,0,0-.41337,3.69846L9.01787,42.73224,12,42.5l-.9929-13.00377L12,29l4,5.5-1.9531,7.62658,2.8911.80159,2.81211-8.19953a2,2,0,0,0-.05355-1.43666L17,27Z"/><path fill="#35c1f1" d="M37,27l.51471-6.17645L43.90289,6.03208,41.14783,4.93157l-5.049,9.45326a2,2,0,0,1-1.51606,1.04232l-3.57793.44725a3.99992,3.99992,0,0,0-1.8288.71417l-5.47232,3.9088a2,2,0,0,0-.8195,1.35959l-.86771,6.42L25,28.72283l.9-5.50182,3.58545-1.56146L29,27l-3.717,6.50474a4,4,0,0,0-.41629,1.04988L23.04883,42.119l2.88373.82706L28,36l5-6,4,6,1,6.5h3l-.45179-7.68039a4,4,0,0,0-.41539-1.554Z"/></svg>