<svg xmlns="http://www.w3.org/2000/svg" viewBox="0 0 48 48"><rect width="5" height="1.969" x="28" y="28.031" fill="#9ca5ad"/><rect width="3" height="31" x="32" y="6" fill="#9ca5ad"/><path fill="#943921" d="M19,24.5L19,24.5c0-0.828-0.672-1.5-1.5-1.5H10v3h7.5C18.328,26,19,25.328,19,24.5z"/><path fill="#943921" d="M11.5,16L11.5,16c-0.828,0-1.5,0.672-1.5,1.5V25h3v-7.5C13,16.672,12.328,16,11.5,16z"/><path fill="#9ca5ad" d="M27.5,33.5c-0.828,0-1.5-0.672-1.5-1.5V21.328c0-0.131-0.054-0.26-0.146-0.354L15.025,10.146	C14.933,10.053,14.804,10,14.672,10H10.5c-0.276,0-0.5,0.224-0.5,0.5V26c0,0.828-0.671,1.5-1.5,1.5S7,26.828,7,26V10.5	C7,8.57,8.57,7,10.5,7h4.172c0.935,0,1.814,0.364,2.475,1.025l10.828,10.829C28.636,19.515,29,20.394,29,21.328V32	C29,32.828,28.328,33.5,27.5,33.5z"/><path fill="#37474f" d="M25,33c-2.209,0-4,1.791-4,4s1.791,4,4,4s4-1.791,4-4S27.209,33,25,33z"/><linearGradient id="haIikbFL8R99tB1lQMiWIa" x1="6.589" x2="19.828" y1="24.715" y2="11.476" gradientTransform="matrix(1 0 0 -1 0 47.89)" gradientUnits="userSpaceOnUse"><stop offset="0" stop-color="#ffcf54"/><stop offset=".261" stop-color="#fdcb4d"/><stop offset=".639" stop-color="#f7c13a"/><stop offset="1" stop-color="#f0b421"/></linearGradient><path fill="url(#haIikbFL8R99tB1lQMiWIa)" d="M13.828,26c-0.53,0-1.039-0.211-1.414-0.586L11.2,24.2C10.4,23.4,9.4,23,8.4,23H4	c-1.105,0-2,0.895-2,2v12h27v-9c0-1.105-0.895-2-2-2H13.828z"/><circle cx="7" cy="37" r="5" fill="#586169"/><circle cx="23.5" cy="35.5" r="6.5" fill="#586169"/><circle cx="23.5" cy="35.5" r="2.5" fill="#999"/><circle cx="7" cy="37" r="2" fill="#999"/><polygon fill="#9ca5ad" points="47,37 34,37 34,34 42.667,34"/></svg>