<svg xmlns="http://www.w3.org/2000/svg" viewBox="0 0 48 48"><linearGradient id="PscYfiqV46UHZtnXZzTGQa" x1="22.861" x2="30.28" y1="48.46" y2="6.386" gradientTransform="matrix(1 0 0 -1 0 50)" gradientUnits="userSpaceOnUse"><stop offset="0" stop-color="#a235d4"/><stop offset=".441" stop-color="#a033d1"/><stop offset=".702" stop-color="#982cc9"/><stop offset=".915" stop-color="#8b21bb"/><stop offset="1" stop-color="#831bb3"/></linearGradient><path fill="url(#PscYfiqV46UHZtnXZzTGQa)" d="M39,12H29v31c0,0.552-0.448,1-1,1h-8c-0.552,0-1-0.448-1-1V12H9c-0.552,0-1-0.448-1-1V5 c0-0.552,0.448-1,1-1h30c0.552,0,1,0.448,1,1v6C40,11.552,39.552,12,39,12z"/><rect width="10" height="6" x="19" y="23" opacity=".05"/><rect width="10" height="5" x="19" y="23.5" opacity=".05"/><linearGradient id="PscYfiqV46UHZtnXZzTGQb" x1="21.088" x2="32.052" y1="1237.658" y2="1261.537" gradientTransform="translate(0 -1218)" gradientUnits="userSpaceOnUse"><stop offset="0" stop-color="#fed100"/><stop offset="1" stop-color="#e36001"/></linearGradient><path fill="url(#PscYfiqV46UHZtnXZzTGQb)" d="M36,24H12c-0.552,0-1,0.448-1,1v2c0,0.552,0.448,1,1,1h24c0.552,0,1-0.448,1-1v-2 C37,24.448,36.552,24,36,24z"/></svg>