<svg xmlns="http://www.w3.org/2000/svg" viewBox="0 0 48 48"><linearGradient id="azhJc9f7T~RT3~0KTpE_ba" x1="24" x2="24" y1="-.955" y2="60.329" gradientUnits="userSpaceOnUse"><stop offset="0" stop-color="#a34f27"/><stop offset=".587" stop-color="#8b3817"/><stop offset="1" stop-color="#802d10"/></linearGradient><path fill="url(#azhJc9f7T~RT3~0KTpE_ba)" d="M23,13.5c0,3.59-2.178,6.5-4.865,6.5S14,17.09,14,13.5c0-2.434,1.449-4.552,3.22-5.666	c0.457-1.309,1.618-2.697,3.249-3.687C21.133,3.744,22,4.217,22,4.978v3.108C22.81,9.251,23,11.24,23,13.5z M30.78,7.834	c-0.457-1.309-1.618-2.697-3.249-3.687C26.867,3.744,26,4.217,26,4.978v3.108c-0.81,1.165-1,3.154-1,5.414	c0,3.59,2.178,6.5,4.865,6.5S34,17.09,34,13.5C34,11.066,32.551,8.948,30.78,7.834z M31,35c-2-1-2-4-2-4c0-2.761-2.239-5-5-5	s-5,2.239-5,5c0,1.75-1.5,3-2.5,3c-3.038,0-5.5,2.462-5.5,5.5c0,3.038,2.462,5.5,5.5,5.5c4.25,0,5.5-2,7.5-2	c0.182,0,0.384,0.032,0.584,0.063C26.234,43.392,27.409,45,31,45c2.761,0,5-2.239,5-5S33.761,35,31,35z M14,22	c-0.85-0.85-0.989-2.411-2.236-2.864c-0.216-0.939-0.617-2.029-1.37-2.962c-0.188-0.232-0.601-0.232-0.789,0	c-1.05,1.301-1.428,2.92-1.552,3.986C6.811,21.251,6,23.01,6,25c0,3.314,2.239,6,5,6c2,0,1.743-1.733,3-3c1.43-1.441,2-1.5,2-3	C16,24,15,23,14,22z M39.946,20.16c-0.123-1.066-0.502-2.684-1.552-3.986c-0.188-0.232-0.601-0.232-0.789,0	c-0.752,0.933-1.154,2.023-1.37,2.962C34.989,19.589,34.85,21.15,34,22c-1,1-2,2-2,3c0,1.5,0.57,1.559,2,3c1.257,1.267,1,3,3,3	c2.761,0,5-2.686,5-6C42,23.01,41.189,21.251,39.946,20.16z"/></svg>