<svg xmlns="http://www.w3.org/2000/svg" viewBox="0 0 48 48"><radialGradient id="96AdmtD060Wk~9Xd48wB4a" cx="25.602" cy="23.92" r="20.731" gradientUnits="userSpaceOnUse"><stop offset=".642" stop-color="#3a41ac"/><stop offset="1" stop-color="#5961c3"/></radialGradient><path fill="url(#96AdmtD060Wk~9Xd48wB4a)" d="M17.5,21.5c0,0-14.649-5.198-15.924-18.81c-0.06-0.643,0.475-1.174,1.117-1.111 C16.248,2.91,20.5,18.5,20.5,18.5L17.5,21.5z M33,8c-3,0-5.429,10.5-5.429,10.5l3,3c0,0,7.272-3.254,11.443-11.342 C42.522,9.174,42.107,8,41,8H33z"/><linearGradient id="96AdmtD060Wk~9Xd48wB4b" x1="24" x2="24" y1="12.096" y2="36.096" gradientUnits="userSpaceOnUse"><stop offset="0" stop-color="#7b83eb"/><stop offset="1" stop-color="#5961c3"/></linearGradient><path fill="url(#96AdmtD060Wk~9Xd48wB4b)" d="M33.706,31.212c0.001-0.071,0.009-0.141,0.009-0.212c0-6.627-4.349-14-9.714-14 s-9.714,7.373-9.714,14c0,0.072,0.008,0.141,0.009,0.212C12.857,32.233,12,33.635,12,35.5C12,40.194,17.373,46,24,46 s12-5.806,12-10.5C36,33.635,35.143,32.233,33.706,31.212z"/><linearGradient id="96AdmtD060Wk~9Xd48wB4c" x1="38.495" x2="38.495" y1="10.955" y2="19.216" gradientUnits="userSpaceOnUse"><stop offset="0" stop-color="#7b83eb"/><stop offset="1" stop-color="#5961c3"/></linearGradient><path fill="url(#96AdmtD060Wk~9Xd48wB4c)" d="M33,8c0,0,3.443,0.861,7.134,11.365c0.311,0.885,1.563,0.903,1.881,0.021 C43.475,15.334,45.619,8,42,8"/><circle cx="20.5" cy="27.5" r="1.5" fill="#292c61"/><circle cx="27.5" cy="27.5" r="1.5" fill="#292c61"/><ellipse cx="24" cy="34.5" fill="#292c61" rx="4" ry="2.5"/><path fill="#292c61" d="M24,46c0.338,0,0.669-0.029,1-0.059V35h-2v10.954C23.33,45.984,23.663,46,24,46z"/></svg>