<svg xmlns="http://www.w3.org/2000/svg" viewBox="0 0 48 48"><linearGradient id="XWsMzyFl3rvMbUBpl76Uza" x1="24" x2="24" y1="52.05" y2="34.248" gradientUnits="userSpaceOnUse"><stop offset="0" stop-color="#ffcf7b"/><stop offset=".196" stop-color="#fecd76"/><stop offset=".439" stop-color="#fac666"/><stop offset=".709" stop-color="#f3bc4d"/><stop offset=".995" stop-color="#eaad2a"/><stop offset="1" stop-color="#eaad29"/></linearGradient><path fill="url(#XWsMzyFl3rvMbUBpl76Uza)" d="M17.586,42.549L14,31l10-2l10,2l-3.586,11.549C30.169,43.408,29.384,44,28.491,44h-8.983	C18.616,44,17.831,43.408,17.586,42.549z"/><path fill="#343434" d="M18.544,40.632L15,31l9-2l9,2l-3.544,9.632C29.184,41.449,28.419,42,27.558,42h-7.117	C19.581,42,18.816,41.449,18.544,40.632z"/><linearGradient id="XWsMzyFl3rvMbUBpl76Uzb" x1="27" x2="27" y1="50.156" y2="34.331" gradientUnits="userSpaceOnUse"><stop offset="0" stop-color="#ffcf7b"/><stop offset=".196" stop-color="#fecd76"/><stop offset=".439" stop-color="#fac666"/><stop offset=".709" stop-color="#f3bc4d"/><stop offset=".995" stop-color="#eaad2a"/><stop offset="1" stop-color="#eaad29"/></linearGradient><path fill="url(#XWsMzyFl3rvMbUBpl76Uzb)" d="M27,38L27,38c0.828,0,1.5,0.672,1.5,1.5V43h-3v-3.5C25.5,38.672,26.172,38,27,38z"/><linearGradient id="XWsMzyFl3rvMbUBpl76Uzc" x1="21" x2="21" y1="50.156" y2="34.331" gradientUnits="userSpaceOnUse"><stop offset="0" stop-color="#ffcf7b"/><stop offset=".196" stop-color="#fecd76"/><stop offset=".439" stop-color="#fac666"/><stop offset=".709" stop-color="#f3bc4d"/><stop offset=".995" stop-color="#eaad2a"/><stop offset="1" stop-color="#eaad29"/></linearGradient><path fill="url(#XWsMzyFl3rvMbUBpl76Uzc)" d="M21,38L21,38c0.828,0,1.5,0.672,1.5,1.5V43h-3v-3.5C19.5,38.672,20.172,38,21,38z"/><linearGradient id="XWsMzyFl3rvMbUBpl76Uzd" x1="24" x2="24" y1="50.156" y2="34.331" gradientUnits="userSpaceOnUse"><stop offset="0" stop-color="#ffcf7b"/><stop offset=".196" stop-color="#fecd76"/><stop offset=".439" stop-color="#fac666"/><stop offset=".709" stop-color="#f3bc4d"/><stop offset=".995" stop-color="#eaad2a"/><stop offset="1" stop-color="#eaad29"/></linearGradient><path fill="url(#XWsMzyFl3rvMbUBpl76Uzd)" d="M24,38L24,38c0.828,0,1.5,0.672,1.5,1.5V43h-3v-3.5C22.5,38.672,23.172,38,24,38z"/><linearGradient id="XWsMzyFl3rvMbUBpl76Uze" x1="24" x2="24" y1="8.285" y2="45.834" gradientUnits="userSpaceOnUse"><stop offset="0" stop-color="#ffcf7b"/><stop offset=".196" stop-color="#fecd76"/><stop offset=".439" stop-color="#fac666"/><stop offset=".709" stop-color="#f3bc4d"/><stop offset=".995" stop-color="#eaad2a"/><stop offset="1" stop-color="#eaad29"/></linearGradient><path fill="url(#XWsMzyFl3rvMbUBpl76Uze)" d="M24.789,5H24h-0.789C15.789,5,9,9.923,9,18.128c0,5.744,2.75,7.622,3,7.872v2c0,3.5,5,4,5,4v1	v1.25c0,0.966,0.784,1.75,1.75,1.75s1.75-0.784,1.75-1.75c0,0.966,0.784,1.75,1.75,1.75S24,35.216,24,34.25	c0,0.966,0.784,1.75,1.75,1.75s1.75-0.784,1.75-1.75c0,0.966,0.784,1.75,1.75,1.75S31,35.216,31,34.25V33v-1c0,0,5-0.5,5-4v-2	c0.25-0.25,3-2.128,3-7.872C39,9.923,32.211,5,24.789,5z"/><path d="M23.996,27C24.74,27.342,26,29.74,26,31.041C26,31.658,25.656,32,25.198,32c-0.63,0-1.088-1.301-1.202-1.849 c0,0.685-0.458,1.849-1.202,1.849c-0.458,0-0.802-0.342-0.802-0.959C21.992,29.74,23.252,27.205,23.996,27 M24.082,25.939 l-0.352,0.097c-1.443,0.398-2.738,3.642-2.738,5.005c0,1.135,0.758,1.959,1.802,1.959c0.494,0,0.912-0.205,1.246-0.521 C24.342,32.786,24.723,33,25.198,33C26.242,33,27,32.176,27,31.041c0-1.519-1.362-4.387-2.586-4.95L24.082,25.939L24.082,25.939z" opacity=".05"/><path d="M23.996,27C24.74,27.342,26,29.74,26,31.041C26,31.658,25.656,32,25.198,32c-0.63,0-1.088-1.301-1.202-1.849 c0,0.685-0.458,1.849-1.202,1.849c-0.458,0-0.802-0.342-0.802-0.959C21.992,29.74,23.252,27.205,23.996,27 M24.039,26.469 l-0.176,0.049c-1.115,0.308-2.371,3.178-2.371,4.523c0,0.859,0.535,1.459,1.302,1.459c0.553,0,0.972-0.359,1.256-0.825 c0.267,0.446,0.643,0.825,1.149,0.825c0.766,0,1.302-0.6,1.302-1.459c0-1.446-1.33-4.051-2.295-4.495L24.039,26.469L24.039,26.469 z" opacity=".07"/><path fill="#343434" d="M26,31.041C26,31.658,25.656,32,25.198,32c-0.63,0-1.088-1.301-1.202-1.849 c0,0.685-0.458,1.849-1.202,1.849c-0.458,0-0.802-0.342-0.802-0.959c0-1.301,1.26-3.836,2.004-4.041 C24.74,27.342,26,29.74,26,31.041z"/><path d="M15.707,21.5c0.879,0,2.113,0.325,3.337,0.981c2.04,1.094,3.286,2.697,2.879,3.412C21.152,27.239,19.711,28,18.224,28 c-0.693,0-1.396-0.165-2.046-0.513c-2.04-1.094-2.779-3.583-1.648-5.556C14.693,21.644,15.122,21.5,15.707,21.5 M15.707,20.5 c-1.25,0-1.802,0.508-2.046,0.934c-0.675,1.177-0.841,2.543-0.468,3.844c0.381,1.328,1.273,2.425,2.512,3.09 C16.477,28.782,17.348,29,18.224,29c1.895,0,3.645-1,4.567-2.61c0.159-0.279,0.309-0.744,0.125-1.384 c-0.328-1.138-1.661-2.475-3.398-3.406C18.213,20.901,16.824,20.5,15.707,20.5L15.707,20.5z" opacity=".05"/><path d="M15.707,21.5c0.879,0,2.113,0.325,3.337,0.981c2.04,1.094,3.286,2.697,2.879,3.412C21.152,27.239,19.711,28,18.224,28 c-0.693,0-1.396-0.165-2.046-0.513c-2.04-1.094-2.779-3.583-1.648-5.556C14.693,21.644,15.122,21.5,15.707,21.5 M15.707,21 c-1.01,0-1.434,0.371-1.611,0.682c-0.607,1.06-0.757,2.288-0.422,3.458c0.343,1.197,1.148,2.187,2.268,2.787 c0.699,0.375,1.488,0.573,2.282,0.573c1.716,0,3.3-0.904,4.133-2.358c0.111-0.194,0.214-0.524,0.078-0.997 c-0.288-0.999-1.555-2.247-3.154-3.104C18.065,21.389,16.729,21,15.707,21L15.707,21z" opacity=".07"/><path fill="#343434" d="M19.045,22.481c-2.04-1.094-4.106-1.267-4.515-0.551c-1.131,1.973-0.392,4.463,1.648,5.556 c2.045,1.095,4.614,0.379,5.745-1.594C22.33,25.179,21.085,23.575,19.045,22.481z"/><path d="M32.293,21.5c0.586,0,1.014,0.144,1.177,0.43c1.131,1.973,0.392,4.463-1.648,5.556C31.172,27.835,30.469,28,29.776,28 c-1.487,0-2.928-0.761-3.7-2.107c-0.407-0.714,0.838-2.318,2.879-3.412C30.18,21.825,31.414,21.5,32.293,21.5 M32.293,20.5 c-1.117,0-2.506,0.401-3.81,1.1c-1.737,0.931-3.071,2.268-3.398,3.406c-0.184,0.64-0.035,1.105,0.123,1.382 C26.132,28,27.882,29,29.776,29c0.875,0,1.746-0.218,2.518-0.632c1.24-0.665,2.132-1.762,2.513-3.09 c0.373-1.301,0.206-2.667-0.469-3.845C34.095,21.008,33.542,20.5,32.293,20.5L32.293,20.5z" opacity=".05"/><path d="M32.293,21.5c0.586,0,1.014,0.144,1.177,0.43c1.131,1.973,0.392,4.463-1.648,5.556C31.172,27.835,30.469,28,29.776,28 c-1.487,0-2.928-0.761-3.7-2.107c-0.407-0.714,0.838-2.318,2.879-3.412C30.18,21.825,31.414,21.5,32.293,21.5 M32.293,21 c-1.022,0-2.358,0.389-3.574,1.041c-1.599,0.857-2.866,2.104-3.154,3.104c-0.136,0.473-0.033,0.803,0.077,0.996 c0.834,1.456,2.418,2.359,4.134,2.359c0.793,0,1.582-0.198,2.282-0.572c1.12-0.6,1.925-1.59,2.268-2.787 c0.335-1.17,0.185-2.399-0.422-3.459C33.726,21.371,33.302,21,32.293,21L32.293,21z" opacity=".07"/><path fill="#343434" d="M26.077,25.893c1.131,1.973,3.7,2.689,5.745,1.594c2.04-1.094,2.779-3.583,1.648-5.556 c-0.409-0.716-2.475-0.543-4.515,0.551C26.915,23.575,25.67,25.179,26.077,25.893z"/><linearGradient id="XWsMzyFl3rvMbUBpl76Uzf" x1="9.621" x2="9.621" y1="-1.88" y2="30.466" gradientUnits="userSpaceOnUse"><stop offset="0" stop-color="#6d6d6d"/><stop offset=".126" stop-color="#626262"/><stop offset=".886" stop-color="#464646"/><stop offset="1" stop-color="#454545"/></linearGradient><path fill="url(#XWsMzyFl3rvMbUBpl76Uzf)" d="M8.353,36.773c-2.256-1.781-4.333-3.928-5.855-6.572c-1.515-2.626-2.459-5.788-2.219-9.134	c0.207-3.321,1.762-6.804,4.507-9.212c2.739-2.43,6.349-3.571,9.754-3.833l0.118-0.009c2.22-0.171,4.158,1.487,4.329,3.703	c0.171,2.216-1.49,4.15-3.71,4.321c-0.242,0.019-0.504,0.012-0.737-0.011c-2.091-0.223-4.13,0.027-5.797,0.995	c-1.651,0.964-2.943,2.648-3.507,4.774c-0.577,2.118-0.393,4.593,0.442,6.931c0.828,2.353,2.264,4.568,4.022,6.567l0.029,0.033	c0.366,0.416,0.324,1.049-0.092,1.414C9.268,37.065,8.726,37.068,8.353,36.773z"/><linearGradient id="XWsMzyFl3rvMbUBpl76Uzg" x1="38.375" x2="38.375" y1="-1.88" y2="30.466" gradientUnits="userSpaceOnUse"><stop offset="0" stop-color="#6d6d6d"/><stop offset=".126" stop-color="#626262"/><stop offset=".886" stop-color="#464646"/><stop offset="1" stop-color="#454545"/></linearGradient><path fill="url(#XWsMzyFl3rvMbUBpl76Uzg)" d="M39.642,36.784c2.255-1.781,4.331-3.929,5.853-6.575c1.514-2.627,2.458-5.791,2.218-9.138	c-0.207-3.322-1.761-6.806-4.505-9.216c-2.737-2.431-6.346-3.573-9.75-3.835l-0.118-0.009c-2.219-0.171-4.156,1.488-4.327,3.704	c-0.171,2.216,1.489,4.151,3.708,4.322c0.242,0.019,0.503,0.012,0.737-0.011c2.09-0.223,4.128,0.027,5.794,0.996	c1.651,0.965,2.942,2.649,3.505,4.776c0.576,2.119,0.393,4.594-0.442,6.934c-0.828,2.353-2.263,4.57-4.021,6.57l-0.029,0.033	c-0.366,0.416-0.324,1.05,0.092,1.415C38.727,37.076,39.269,37.079,39.642,36.784z"/><g><path d="M31,32v2.25c0,0.97-0.78,1.75-1.75,1.75s-1.75-0.78-1.75-1.75c0,0.97-0.78,1.75-1.75,1.75S24,35.22,24,34.25 c0,0.97-0.78,1.75-1.75,1.75s-1.75-0.78-1.75-1.75c0,0.97-0.78,1.75-1.75,1.75S17,35.22,17,34.25V32c0,0-1.58-0.16-2.97-0.92 l0.2,0.65l0.19,0.63C15,32.6,15.56,32.74,16,32.84v1.41c0,1.52,1.23,2.75,2.75,2.75c0.66,0,1.27-0.24,1.75-0.63 c0.48,0.39,1.09,0.63,1.75,0.63s1.27-0.24,1.75-0.63c0.48,0.39,1.09,0.63,1.75,0.63s1.27-0.24,1.75-0.63 c0.48,0.39,1.09,0.63,1.75,0.63c1.52,0,2.75-1.23,2.75-2.75v-1.41c0.44-0.1,1-0.24,1.58-0.48l0.19-0.63l0.2-0.65 C32.58,31.84,31,32,31,32z" opacity=".05"/><path d="M31,32v2.25c0,0.97-0.78,1.75-1.75,1.75s-1.75-0.78-1.75-1.75c0,0.97-0.78,1.75-1.75,1.75S24,35.22,24,34.25 c0,0.97-0.78,1.75-1.75,1.75s-1.75-0.78-1.75-1.75c0,0.97-0.78,1.75-1.75,1.75S17,35.22,17,34.25V32c0,0-1.58-0.16-2.97-0.92 l0.2,0.65c0.77,0.37,1.58,0.6,2.27,0.71v1.81c0,1.24,1.01,2.25,2.25,2.25c0.71,0,1.34-0.33,1.75-0.84 c0.41,0.51,1.04,0.84,1.75,0.84s1.34-0.33,1.75-0.84c0.41,0.51,1.04,0.84,1.75,0.84s1.34-0.33,1.75-0.84 c0.41,0.51,1.04,0.84,1.75,0.84c1.24,0,2.25-1.01,2.25-2.25v-1.81c0.69-0.11,1.5-0.34,2.27-0.71l0.2-0.65C32.58,31.84,31,32,31,32 z" opacity=".07"/></g></svg>