<svg xmlns="http://www.w3.org/2000/svg" data-name="Слой 1" viewBox="0 0 48 48"><defs><linearGradient id="VdP8f_UI1q8OVzZgSaIbTa" x1="15.478" x2="34.518" y1=".586" y2="52.898" gradientUnits="userSpaceOnUse"><stop offset=".002" stop-color="#427fdb"/><stop offset=".397" stop-color="#2668cb"/><stop offset=".763" stop-color="#1358bf"/><stop offset="1" stop-color="#0c52bb"/></linearGradient></defs><circle cx="24" cy="24" r="20" fill="url(#VdP8f_UI1q8OVzZgSaIbTa)"/><path fill="#fff" d="M24,9a4,4,0,1,0,4,4A3.99891,3.99891,0,0,0,24,9Zm0,6a2,2,0,1,1,2-2A2.00591,2.00591,0,0,1,24,15Z"/><path fill="#fff" d="M33,13H26a2,2,0,0,1-4,0H15a2,2,0,0,0-2,2V35a2.00006,2.00006,0,0,0,2,2H33a2.00006,2.00006,0,0,0,2-2V15A2,2,0,0,0,33,13Zm-2.16852,9.80629-7.48943,7.52446a.57476.57476,0,0,1-.81465,0l-4.60888-4.63044a.58115.58115,0,0,1,0-.81846l.81465-.81847a.57444.57444,0,0,1,.81459,0l3.38753,3.40217,6.267-6.29619a.57444.57444,0,0,1,.81459,0l.81465.81847A.58115.58115,0,0,1,30.83148,22.80629Z"/></svg>