<svg xmlns="http://www.w3.org/2000/svg" viewBox="0 0 48 48"><path fill="#1783bd" d="M41,6v36c0,1.105-0.895,2-2,2h-5V4h5C40.105,4,41,4.895,41,6z"/><linearGradient id="oX~VEA1IU2krvOSenljMUa" x1="-456.143" x2="-456.143" y1="-121.305" y2="-118.163" gradientTransform="rotate(-90 -137.933 -294.21)" gradientUnits="userSpaceOnUse"><stop offset=".441" stop-color="#999998"/><stop offset=".653" stop-color="#c1c1c0"/><stop offset=".88" stop-color="#e5e5e5"/><stop offset="1" stop-color="#f3f3f3"/></linearGradient><path fill="url(#oX~VEA1IU2krvOSenljMUa)" d="M39,6v36c0,1.105-0.895,2-2,2h-6V4h6C38.105,4,39,4.895,39,6z"/><linearGradient id="oX~VEA1IU2krvOSenljMUb" x1="3.638" x2="15.691" y1="-85.428" y2="-52.595" gradientTransform="translate(0 94)" gradientUnits="userSpaceOnUse"><stop offset="0" stop-color="#0176d0"/><stop offset="1" stop-color="#16538c"/></linearGradient><path fill="url(#oX~VEA1IU2krvOSenljMUb)" d="M7,6v36c0,1.105,0.895,2,2,2h2V4H9C7.895,4,7,4.895,7,6z"/><linearGradient id="oX~VEA1IU2krvOSenljMUc" x1="16.78" x2="31.215" y1="-88.846" y2="-49.525" gradientTransform="translate(0 94)" gradientUnits="userSpaceOnUse"><stop offset="0" stop-color="#33bef0"/><stop offset="1" stop-color="#22a5e2"/></linearGradient><path fill="url(#oX~VEA1IU2krvOSenljMUc)" d="M35,4H11v40h24c1.105,0,2-0.895,2-2V6C37,4.895,36.105,4,35,4z"/><radialGradient id="oX~VEA1IU2krvOSenljMUd" cx="24" cy="-76" r="5" gradientTransform="translate(0 94)" gradientUnits="userSpaceOnUse"><stop offset=".486"/><stop offset="1" stop-opacity="0"/></radialGradient><circle cx="24" cy="18" r="5" fill="url(#oX~VEA1IU2krvOSenljMUd)" opacity=".15"/><path d="M17,31v2.114C17,34.155,17.845,35,18.886,35h10.227	C30.155,35,31,34.155,31,33.114V31c0-5-3.134-8-7-8S17,26,17,31z" opacity=".05"/><path d="M17.5,30.626v2.431c0,0.797,0.646,1.443,1.443,1.443h10.114	c0.797,0,1.443-0.646,1.443-1.443V30.5c0-4.188-2.96-7.05-6.592-6.999C20.333,23.551,17.5,26.483,17.5,30.626z" opacity=".07"/><circle cx="24" cy="18" r="4" fill="#fff"/><path fill="#fff" d="M30,30c0-3.375-2.787-6.099-6.185-5.997C20.532,24.101,18,26.966,18,30.252V33c0,0.552,0.448,1,1,1	h10c0.552,0,1-0.448,1-1V30z"/><path fill="#199be2" d="M44.992,43.224l-1.768,1.768l2.935,2.935c0.098,0.098,0.256,0.098,0.354,0l1.414-1.414	c0.098-0.098,0.098-0.256,0-0.354L44.992,43.224z"/><radialGradient id="oX~VEA1IU2krvOSenljMUe" cx="36.968" cy="36.777" r="9.545" gradientUnits="userSpaceOnUse"><stop offset="0"/><stop offset="1" stop-opacity="0"/></radialGradient><path fill="url(#oX~VEA1IU2krvOSenljMUe)" d="M37,27c-5.514,0-10,4.486-10,10c0,2.724,1.098,5.195,2.871,7H34h1h4c1.105,0,2-0.895,2-2	V27.841C39.774,27.303,38.422,27,37,27z"/><radialGradient id="oX~VEA1IU2krvOSenljMUf" cx="37.012" cy="830.952" r="9.802" gradientTransform="matrix(1 0 0 -1 0 868)" gradientUnits="userSpaceOnUse"><stop offset=".693" stop-color="#006185"/><stop offset=".921" stop-color="#35c1f1"/></radialGradient><polygon fill="url(#oX~VEA1IU2krvOSenljMUf)" points="42.8,41.033 41.033,42.8 43.224,44.992 44.992,43.224"/><linearGradient id="oX~VEA1IU2krvOSenljMUg" x1="31.455" x2="42.669" y1="836.545" y2="825.331" gradientTransform="matrix(1 0 0 -1 0 868)" gradientUnits="userSpaceOnUse"><stop offset="0" stop-color="#a3ffff"/><stop offset=".223" stop-color="#9dfbff"/><stop offset=".53" stop-color="#8bf1ff"/><stop offset=".885" stop-color="#6ee0ff"/><stop offset="1" stop-color="#63daff"/></linearGradient><circle cx="37" cy="37" r="8" fill="url(#oX~VEA1IU2krvOSenljMUg)"/></svg>