<svg xmlns="http://www.w3.org/2000/svg" xmlns:xlink="http://www.w3.org/1999/xlink" data-name="Слой 1" viewBox="0 0 48 48"><defs><linearGradient id="zz74wyJBKf2OmEVqbe8B1a" x1="24" x2="24" y1="-5.687" y2="45.908" data-name="Безымянный градиент 128" gradientUnits="userSpaceOnUse"><stop offset="0" stop-color="#fed100"/><stop offset="1" stop-color="#e38101"/></linearGradient><linearGradient id="zz74wyJBKf2OmEVqbe8B1b" x1="24" x2="24" y1="19.721" y2="52.3" xlink:href="#zz74wyJBKf2OmEVqbe8B1a"/></defs><rect width="32" height="35" x="8" y="9" fill="#50e6ff" rx="2"/><path fill="#e52030" d="M14.51883,7h4.96234A.59321.59321,0,0,0,19.844,6l-2.0752-2.17368a1.058,1.058,0,0,0-1.53768,0L14.156,6A.59321.59321,0,0,0,14.51883,7Z"/><path fill="#199be2" d="M28.51883,3.49515h4.96234a.59321.59321,0,0,1,.36287,1l-2.0752,2.17368a1.058,1.058,0,0,1-1.53768,0L28.156,4.49515A.59321.59321,0,0,1,28.51883,3.49515Z"/><rect width="2" height="35" x="23" y="9" fill="#199be2"/><polygon fill="url(#zz74wyJBKf2OmEVqbe8B1a)" points="40 15.53 40 19 27 26.5 24 28.23 8 37.47 8 34 21 26.5 24 24.77 40 15.53"/><polygon fill="url(#zz74wyJBKf2OmEVqbe8B1b)" points="40 34 40 37.47 24 28.23 21 26.5 8 19 8 15.53 24 24.77 27 26.5 40 34"/></svg>