<svg xmlns="http://www.w3.org/2000/svg" viewBox="0 0 48 48"><polygon fill="#bd8215" points="27,42 25,42 24,33 26,33"/><path fill="#bd8215" d="M31.103,40.368L31.103,40.368c-0.723-0.241-1.495-0.289-2.242-0.14L25,41v1c0,0.552,0.448,1,1,1h7v0	C33,41.806,32.236,40.745,31.103,40.368z"/><radialGradient id="hCWoGrdo3ba1duo27HuWca" cx="23.097" cy="26.25" r="21.639" gradientUnits="userSpaceOnUse"><stop offset="0" stop-color="#ad3f16"/><stop offset=".49" stop-color="#b85515"/><stop offset="1" stop-color="#c26715"/><stop offset="1" stop-color="#c26715"/></radialGradient><path fill="url(#hCWoGrdo3ba1duo27HuWca)" d="M30,26v-6h-1c2.75,0,5.03-0.75,6.5-2.1c2.32,1.51,6.5,3.04,6.5,8.1H30z"/><radialGradient id="hCWoGrdo3ba1duo27HuWcb" cx="27.344" cy="44.813" r="11.808" gradientUnits="userSpaceOnUse"><stop offset="0" stop-color="#ffcf54"/><stop offset=".261" stop-color="#fdcb4d"/><stop offset=".639" stop-color="#f7c13a"/><stop offset="1" stop-color="#f0b421"/></radialGradient><polygon fill="url(#hCWoGrdo3ba1duo27HuWcb)" points="25,42 23,42 22,33 24,33"/><radialGradient id="hCWoGrdo3ba1duo27HuWcc" cx="23.864" cy="27.682" r="21.639" gradientUnits="userSpaceOnUse"><stop offset="0" stop-color="#ad3f16"/><stop offset=".49" stop-color="#b85515"/><stop offset="1" stop-color="#c26715"/><stop offset="1" stop-color="#c26715"/></radialGradient><ellipse cx="26" cy="26" fill="url(#hCWoGrdo3ba1duo27HuWcc)" rx="16" ry="9"/><linearGradient id="hCWoGrdo3ba1duo27HuWcd" x1="45.75" x2="35.465" y1="11.5" y2="11.5" gradientUnits="userSpaceOnUse"><stop offset="0" stop-color="#ffcf54"/><stop offset=".261" stop-color="#fdcb4d"/><stop offset=".639" stop-color="#f7c13a"/><stop offset="1" stop-color="#f0b421"/></linearGradient><path fill="url(#hCWoGrdo3ba1duo27HuWcd)" d="M37,9c0,0,1,2,3,2s3,0.25,3,1s0,2-9,2C34,11,37,9,37,9z"/><linearGradient id="hCWoGrdo3ba1duo27HuWce" x1="32" x2="32" y1=".068" y2="21.731" gradientUnits="userSpaceOnUse"><stop offset="0" stop-color="#21ad64"/><stop offset="1" stop-color="#088242"/></linearGradient><path fill="url(#hCWoGrdo3ba1duo27HuWce)" d="M34,16c0,0.17,0.03,0.34,0.09,0.49C32.52,17.87,29.92,18,29,18h-2V9c0-2.76,2.24-5,5-5	s5,2.24,5,5C37,13,34,14,34,16z"/><linearGradient id="hCWoGrdo3ba1duo27HuWcf" x1="33" x2="35" y1="9" y2="9" gradientUnits="userSpaceOnUse"><stop offset="0" stop-color="#4c4c4c"/><stop offset="1" stop-color="#343434"/></linearGradient><circle cx="34" cy="9" r="1" fill="url(#hCWoGrdo3ba1duo27HuWcf)"/><linearGradient id="hCWoGrdo3ba1duo27HuWcg" x1="36.008" x2="29.309" y1="16.166" y2="18.979" gradientUnits="userSpaceOnUse"><stop offset="0" stop-color="#f9f9f9"/><stop offset="1" stop-color="#c2c8cc"/></linearGradient><path fill="url(#hCWoGrdo3ba1duo27HuWcg)" d="M35.5,17.9C34.03,19.25,31.75,20,29,20h-2v-2h2c0.92,0,3.52-0.13,5.09-1.51	C34.29,17.02,34.81,17.46,35.5,17.9z"/><path d="M34.22,19.16C33.08,17.21,30.88,16,28.48,16H27v1h1.48c4.14,0,6.79,3.98,4.9,7.32C30.78,28.9,25.82,32,20.12,32 c-3.5,0-6.72-1.17-9.29-3.15c0.27,0.47,0.61,0.92,1.02,1.35c0.47,0.51,1.04,0.99,1.68,1.44c2.01,0.88,4.24,1.36,6.59,1.36 c5.85,0,11.27-3.14,14.13-8.19C35.25,23.03,35.24,20.92,34.22,19.16z" opacity=".05"/><path d="M33.79,19.41c-1.07-1.82-3.05-2.91-5.31-2.91H27V17h1.48c4.14,0,6.79,3.98,4.9,7.32C30.78,28.9,25.82,32,20.12,32 c-3.5,0-6.72-1.17-9.29-3.15c0.27,0.47,0.61,0.92,1.02,1.35c2.41,1.46,5.24,2.3,8.27,2.3c5.67,0,10.92-3.04,13.69-7.94 C34.74,22.92,34.73,21.04,33.79,19.41z" opacity=".07"/><linearGradient id="hCWoGrdo3ba1duo27HuWch" x1="19.5" x2="19.5" y1="8.932" y2="39.657" gradientUnits="userSpaceOnUse"><stop offset="0" stop-color="#d4943b"/><stop offset="1" stop-color="#c2620e"/><stop offset="1" stop-color="#c2620e"/></linearGradient><path fill="url(#hCWoGrdo3ba1duo27HuWch)" d="M20.123,32c5.695,0,10.658-3.099,13.255-7.683C35.27,20.977,32.622,17,28.478,17	c-7.254,0-18.206,0-22.1,0c-0.813,0-1.441,0.634-1.374,1.368C5.704,26.011,12.206,32,20.123,32z"/><radialGradient id="hCWoGrdo3ba1duo27HuWci" cx="27.964" cy="42.982" r="13.494" gradientUnits="userSpaceOnUse"><stop offset="0" stop-color="#ffcf54"/><stop offset=".261" stop-color="#fdcb4d"/><stop offset=".639" stop-color="#f7c13a"/><stop offset="1" stop-color="#f0b421"/></radialGradient><path fill="url(#hCWoGrdo3ba1duo27HuWci)" d="M29.103,40.368L29.103,40.368c-0.723-0.241-1.495-0.289-2.242-0.14L23,41v1	c0,0.552,0.448,1,1,1h7v0C31,41.806,30.236,40.745,29.103,40.368z"/></svg>