<svg xmlns="http://www.w3.org/2000/svg" viewBox="0 0 48 48"><linearGradient id="de_YfT2Vsbs9nMpraW~Jma" x1="15.002" x2="33.584" y1="519.506" y2="483.353" gradientTransform="matrix(1 0 0 -1 0 526)" gradientUnits="userSpaceOnUse"><stop offset="0" stop-color="#33d7f0"/><stop offset="1" stop-color="#0083c4"/></linearGradient><path fill="url(#de_YfT2Vsbs9nMpraW~Jma)" d="M44,24c0,11.045-8.955,20-20,20S4,35.045,4,24S12.955,4,24,4S44,12.955,44,24z"/><linearGradient id="de_YfT2Vsbs9nMpraW~Jmb" x1="15.002" x2="33.584" y1="519.506" y2="483.353" gradientTransform="matrix(1 0 0 -1 0 526)" gradientUnits="userSpaceOnUse"><stop offset="0" stop-color="#33d7f0"/><stop offset="1" stop-color="#0083c4"/></linearGradient><path fill="url(#de_YfT2Vsbs9nMpraW~Jmb)" d="M44,24c0,11.045-8.955,20-20,20S4,35.045,4,24S12.955,4,24,4S44,12.955,44,24z"/><linearGradient id="de_YfT2Vsbs9nMpraW~Jmc" x1="39.38" x2="42.324" y1="493.693" y2="496.705" gradientTransform="matrix(1 0 0 -1 0 526)" gradientUnits="userSpaceOnUse"><stop offset="0" stop-opacity="0"/><stop offset="1" stop-opacity=".3"/></linearGradient><path fill="url(#de_YfT2Vsbs9nMpraW~Jmc)" d="M41.188,34.188c0.904-1.521,1.609-3.168,2.086-4.914L41,27l-3.5,3.5L41.188,34.188z"/><linearGradient id="de_YfT2Vsbs9nMpraW~Jmd" x1="-298.62" x2="-295.676" y1="15.693" y2="18.705" gradientTransform="matrix(-1 0 0 1 -290 0)" gradientUnits="userSpaceOnUse"><stop offset="0" stop-opacity="0"/><stop offset="1" stop-opacity=".3"/></linearGradient><path fill="url(#de_YfT2Vsbs9nMpraW~Jmd)" d="M6.812,13.812c-0.904,1.521-1.609,3.168-2.086,4.914L7,21l3.5-3.5L6.812,13.812z"/><linearGradient id="de_YfT2Vsbs9nMpraW~Jme" x1="19.33" x2="28.669" y1="6.877" y2="41.12" gradientUnits="userSpaceOnUse"><stop offset="0" stop-color="#0d61a9"/><stop offset="1" stop-color="#16528c"/></linearGradient><path fill="url(#de_YfT2Vsbs9nMpraW~Jme)" d="M39.757,24H42c0-9.941-8.059-18-18-18C15.303,6,8.048,12.167,6.367,20.367l2.39,2.39	C9.216,23.216,8.891,24,8.243,24H6c0,9.941,8.059,18,18,18c8.697,0,15.952-6.167,17.633-14.367l-2.39-2.39	C38.784,24.784,39.109,24,39.757,24z"/><path d="M21.724,18.649c0-0.887,0.766-1.337,2.276-1.337	c2.08,0,3.8,0.661,4.641,1.055C29.162,18.612,31,18.954,31,16.885V14.79c0-1.534-0.926-2.06-1.324-2.215	c-0.967-0.376-2.176-0.613-3.676-0.72V10.5C26,9.673,25.327,9,24.5,9h-1C22.673,9,22,9.673,22,10.5v1.473	c-3.216,0.588-6.348,2.681-6.348,7.025c0,8.694,10.624,7.945,10.624,9.909c0,0.355,0,1.299-2.276,1.299	c-2.644,0-4.965-1.082-5.613-1.413C17.876,28.53,16,28.34,16,30.262v2.383c0,0.856,0.512,1.626,1.305,1.963	c1.341,0.57,3.071,1.024,4.695,1.243V37.5c0,0.827,0.673,1.5,1.5,1.5h1c0.827,0,1.5-0.673,1.5-1.5v-1.658	c4.664-0.776,6.348-4.261,6.348-7.149C32.348,20.202,21.724,21.55,21.724,18.649z" opacity=".05"/><path d="M21.224,18.649c0-1.553,1.631-1.837,2.776-1.837	c1.977,0,3.743,0.582,4.853,1.103c0.478,0.224,1.647,0.244,1.647-1.03V14.79c0-1.118-0.595-1.59-1.005-1.749	c-0.957-0.372-2.241-0.625-3.995-0.711V10.5c0-0.552-0.448-1-1-1h-1c-0.552,0-1,0.448-1,1v1.907	c-3.166,0.446-6.348,2.372-6.348,6.59c0,8.077,10.624,6.963,10.624,9.909c0,0.795-0.394,1.799-2.776,1.799	c-2.572,0-4.881-0.977-5.84-1.468c-0.469-0.241-1.66-0.177-1.66,1.024v2.384c0,0.657,0.394,1.245,1.001,1.503	c1.424,0.605,3.299,1.074,4.999,1.254V37.5c0,0.552,0.448,1,1,1h1c0.552,0,1-0.448,1-1v-2.1c4.663-0.583,6.348-3.886,6.348-6.708	C31.848,20.849,21.224,22.225,21.224,18.649z" opacity=".07"/><path fill="#fff" d="M31.348,28.692c0-7.196-10.624-5.791-10.624-10.043c0-2.22,2.495-2.337,3.276-2.337	c1.875,0,3.685,0.503,5.065,1.15C29.5,17.667,30,17.365,30,16.885V14.79c0-0.702-0.264-1.119-0.686-1.283	c-0.946-0.368-2.305-0.636-4.314-0.703V10.5c0-0.276-0.224-0.5-0.5-0.5h-1c-0.276,0-0.5,0.224-0.5,0.5v2.342	c-3.116,0.305-6.348,2.063-6.348,6.156c0,7.46,10.624,5.981,10.624,9.909c0,1.235-0.789,2.299-3.276,2.299	c-2.5,0-4.797-0.872-6.068-1.523C17.504,29.464,17,29.781,17,30.261v2.384c0,0.457,0.275,0.864,0.696,1.042	c1.506,0.64,3.527,1.124,5.304,1.266V37.5c0,0.276,0.224,0.5,0.5,0.5h1c0.276,0,0.5-0.224,0.5-0.5v-2.541	C29.663,34.569,31.348,31.448,31.348,28.692z"/></svg>