<svg xmlns="http://www.w3.org/2000/svg" viewBox="0 0 48 48"><path fill="#71003f" d="M13,25v9.7h22V25H13z M24,27c0.86,0,1.63,0.24,2.17,0.63C25.61,27.86,24.89,28,24,28	s-1.61-0.14-2.17-0.37C22.37,27.24,23.14,27,24,27z"/><path fill="#fabfc7" d="M13,18c0,2.36,0.62,4.82,1.71,7c0.37,0.77,0.81,1.5,1.29,2.17c0.31,0.45,0.65,0.87,1,1.27	c1.16,1.31,2.51,2.34,4,2.95c0.95,0.39,1.96,0.61,3,0.61s2.05-0.22,3-0.61c1.49-0.61,2.84-1.64,4-2.95c0.35-0.4,0.69-0.82,1-1.27	c0.48-0.67,0.92-1.4,1.29-2.17c1.09-2.18,1.71-4.64,1.71-7C35,11.37,13,11.37,13,18z M24,28c-0.89,0-1.61-0.14-2.17-0.37	C22.37,27.24,23.14,27,24,27s1.63,0.24,2.17,0.63C25.61,27.86,24.89,28,24,28z"/><linearGradient id="uljkGoqR4YfT3vVtLG8bSa" x1="13.464" x2="24.892" y1="3.702" y2="33.831" gradientUnits="userSpaceOnUse"><stop offset="0" stop-color="#f28aaf"/><stop offset="1" stop-color="#ef4c96"/></linearGradient><path fill="url(#uljkGoqR4YfT3vVtLG8bSa)" d="M42,26v15.76C42,43,41,44,39.76,44H32V21c0,0,0-3-8-3s-8,3-8,3v23H8.24C7,44,6,43,6,41.76V26	c0-4.3,0.89-7.87,2.37-10.75c0.04-0.08,0.09-0.17,0.14-0.25c0.09-0.17,0.18-0.34,0.28-0.5c0.1-0.17,0.2-0.34,0.3-0.5H9.1	c0-0.01,0-0.01,0-0.02c0.73-1.16,1.56-2.18,2.49-3.08l0.01-0.01c0.23-0.23,0.46-0.45,0.7-0.66c0.24-0.21,0.49-0.41,0.74-0.6	c1.8-1.39,3.83-2.37,5.96-2.95c0.8-0.23,1.6-0.39,2.42-0.5h0.01c0.23-0.04,0.46-0.06,0.7-0.08c0.22-0.03,0.44-0.05,0.66-0.06	C23.19,6.01,23.6,6,24,6c0.39,0,0.78,0.01,1.17,0.03c0.21,0.01,0.43,0.02,0.64,0.04c0.23,0.02,0.46,0.04,0.69,0.07h0.01	c3.37,0.38,6.43,1.54,8.92,3.54c0.01,0,0.01,0.01,0.01,0.01c0.26,0.2,0.51,0.42,0.76,0.64c0.25,0.23,0.5,0.48,0.74,0.73l0.01,0.01	c0.83,0.86,1.56,1.83,2.19,2.92h0.01C39.16,14,39.16,14,39.16,14c0.09,0.16,0.18,0.32,0.27,0.49c0.09,0.16,0.18,0.33,0.26,0.5	c0.04,0.07,0.08,0.15,0.12,0.23C41.21,18.1,42,21.68,42,26z"/><linearGradient id="uljkGoqR4YfT3vVtLG8bSb" x1="23.425" x2="24.347" y1="3.865" y2="17.302" gradientUnits="userSpaceOnUse"><stop offset=".491" stop-color="#fac600"/><stop offset="1" stop-color="#d66b00"/></linearGradient><path fill="url(#uljkGoqR4YfT3vVtLG8bSb)" d="M39.15,13.99h-0.01c-0.03-0.01-0.08-0.02-0.16-0.04c-0.07-0.02-0.17-0.04-0.3-0.07	c-0.03-0.01-0.05-0.02-0.08-0.03c-0.08-0.02-0.16-0.04-0.25-0.06c-0.03,0-0.07-0.01-0.1-0.02c-0.07-0.02-0.14-0.03-0.21-0.05	c-0.05-0.02-0.1-0.03-0.16-0.04c-0.16-0.04-0.33-0.08-0.51-0.12c-0.39-0.09-0.84-0.18-1.33-0.28c-0.23-0.05-0.48-0.1-0.73-0.15	c-0.23-0.04-0.48-0.08-0.73-0.13c-0.17-0.03-0.35-0.06-0.53-0.09c-0.39-0.07-0.81-0.14-1.24-0.2c-0.43-0.07-0.87-0.13-1.33-0.19	c-0.2-0.03-0.41-0.06-0.62-0.08c-0.03-0.01-0.07-0.01-0.11-0.01c-0.26-0.04-0.53-0.07-0.8-0.1c-0.12-0.01-0.25-0.02-0.37-0.03	c-0.17-0.02-0.34-0.03-0.51-0.05c-0.62-0.06-1.26-0.11-1.91-0.15C26.14,12.04,25.08,12,24,12c-0.41,0-0.82,0-1.22,0.02	c-0.34,0-0.69,0.02-1.02,0.03c-0.06,0-0.11,0.01-0.17,0.01c-0.19,0.01-0.38,0.02-0.56,0.03c-0.21,0.01-0.42,0.02-0.63,0.04	c-0.46,0.03-0.92,0.06-1.37,0.11c-0.04,0-0.07,0.01-0.11,0.01c-0.38,0.03-0.76,0.07-1.13,0.12c-0.11,0-0.22,0.02-0.33,0.03	c-0.34,0.04-0.66,0.08-0.98,0.13c-0.2,0.02-0.4,0.05-0.59,0.08c-0.66,0.09-1.29,0.19-1.87,0.3c-0.11,0.02-0.21,0.04-0.32,0.06	c-0.34,0.06-0.66,0.12-0.97,0.18c-0.38,0.07-0.74,0.15-1.06,0.22c-0.2,0.05-0.39,0.09-0.57,0.13c-0.07,0.02-0.13,0.03-0.19,0.04	c-0.16,0.03-0.32,0.07-0.46,0.11c-0.1,0.02-0.2,0.05-0.28,0.07c-0.07,0.01-0.15,0.03-0.21,0.05c-0.07,0.02-0.13,0.03-0.19,0.05	c-0.1,0.02-0.19,0.05-0.26,0.07c-0.06,0.02-0.11,0.03-0.16,0.04c-0.08,0.02-0.14,0.04-0.18,0.05C9.13,13.99,9.11,14,9.1,14H9.09	c0,0,0-0.01,0.01-0.02c0.01-0.03,0.02-0.08,0.04-0.15c0.02-0.07,0.05-0.16,0.08-0.26c0.04-0.11,0.07-0.22,0.12-0.35	c0.03-0.09,0.06-0.18,0.09-0.28c0.07-0.16,0.14-0.34,0.21-0.51c0.06-0.13,0.13-0.26,0.19-0.37c0.13-0.24,0.27-0.44,0.42-0.56	c0.1-0.08,0.21-0.16,0.33-0.22c0.1-0.06,0.21-0.11,0.32-0.16c0.06-0.03,0.13-0.05,0.19-0.07c0.07-0.03,0.14-0.05,0.22-0.07	c0.09-0.03,0.18-0.06,0.28-0.08l0.01-0.01c0.45-0.12,0.94-0.2,1.46-0.25c0.02-0.01,0.04-0.01,0.06-0.01	c0.61-0.06,1.25-0.11,1.87-0.15c0.19-0.02,0.37-0.03,0.55-0.05c0.2-0.01,0.39-0.03,0.58-0.06c0.21-0.02,0.42-0.05,0.63-0.08	c0.19-0.03,0.37-0.06,0.55-0.1c0.09-0.02,0.18-0.04,0.26-0.06c0.15-0.04,0.3-0.08,0.44-0.13c0.22-0.08,0.44-0.17,0.65-0.27	c0.05-0.02,0.09-0.04,0.14-0.06c0.2-0.1,0.39-0.21,0.58-0.32c0.22-0.13,0.42-0.26,0.62-0.41c0.18-0.13,0.36-0.26,0.53-0.4	c0.15-0.12,0.29-0.25,0.42-0.37c0.12-0.11,0.24-0.22,0.35-0.35c0.15-0.14,0.3-0.29,0.43-0.44c0.1-0.11,0.2-0.23,0.31-0.35	c0.28-0.34,0.54-0.67,0.76-0.99c0.26-0.38,0.49-0.73,0.66-1.03h0.01c0.01-0.03,0.03-0.06,0.05-0.09c0.02-0.05,0.05-0.09,0.07-0.13	c0.04-0.07,0.08-0.13,0.11-0.2c0,0,0-0.01,0.01-0.01c0.05-0.09,0.09-0.17,0.13-0.24C23.94,4.12,24,4,24,4s0.17,0.4,0.52,1.01	c0,0.01,0.01,0.01,0.01,0.02c0.06,0.09,0.11,0.19,0.18,0.29c0.13,0.21,0.27,0.44,0.44,0.68c0.01,0.01,0.01,0.02,0.02,0.03	c0.3,0.43,0.65,0.89,1.06,1.34c0.13,0.15,0.27,0.3,0.43,0.45c0.1,0.11,0.2,0.21,0.31,0.31c0.12,0.11,0.24,0.22,0.37,0.33	c0.03,0.02,0.06,0.05,0.09,0.07c0.16,0.14,0.33,0.27,0.5,0.39c0.22,0.16,0.45,0.3,0.68,0.44c0.24,0.14,0.49,0.26,0.74,0.38	c0.01,0.01,0.03,0.01,0.04,0.02c0.2,0.09,0.4,0.17,0.61,0.24c0.18,0.06,0.37,0.11,0.58,0.16h0.01c0.18,0.05,0.36,0.08,0.55,0.11	c0.25,0.04,0.52,0.08,0.79,0.1c0.34,0.04,0.69,0.07,1.04,0.1c0.83,0.06,1.68,0.11,2.45,0.22c0.03,0.01,0.06,0.01,0.09,0.01	c0.09,0.02,0.17,0.04,0.26,0.05c0.25,0.05,0.49,0.1,0.72,0.17c0.11,0.02,0.22,0.06,0.33,0.1c0.04,0.01,0.08,0.02,0.12,0.04	l0.01,0.01c0.06,0.01,0.11,0.04,0.17,0.07c0.01,0,0.02,0.01,0.03,0.01c0.09,0.04,0.18,0.08,0.27,0.13c0.12,0.07,0.23,0.14,0.33,0.22	c0.12,0.09,0.24,0.24,0.36,0.42c0.04,0.06,0.08,0.12,0.12,0.18c0.05,0.06,0.09,0.13,0.12,0.2c0.04,0.07,0.08,0.14,0.12,0.21	C38.84,13.18,39.13,13.92,39.15,13.99z"/><linearGradient id="uljkGoqR4YfT3vVtLG8bSc" x1="22.5" x2="25.5" y1="3.5" y2="3.5" gradientUnits="userSpaceOnUse"><stop offset="0" stop-color="#2e9f4e"/><stop offset="1" stop-color="#1c7130"/></linearGradient><path fill="url(#uljkGoqR4YfT3vVtLG8bSc)" d="M24,2c-0.828,0-1.5,0.672-1.5,1.5S23.172,5,24,5s1.5-0.672,1.5-1.5S24.828,2,24,2z"/><path fill="#272727" d="M19,22c-0.55,0-1,0.45-1,1s0.45,1,1,1s1-0.45,1-1S19.55,22,19,22z M29,22c-0.55,0-1,0.45-1,1 s0.45,1,1,1s1-0.45,1-1S29.55,22,29,22z M24,25.42c-2.22,0-4-0.92-4,0c0,0.67,0.49,1.67,1.83,2.21C22.37,27.24,23.14,27,24,27 s1.63,0.24,2.17,0.63c1.34-0.54,1.83-1.54,1.83-2.21C28,24.5,26.21,25.42,24,25.42z"/><path fill="#d75b60" d="M26.17,27.63C25.61,27.86,24.89,28,24,28s-1.61-0.14-2.17-0.37C22.37,27.24,23.14,27,24,27	S25.63,27.24,26.17,27.63z"/><path fill="#151515" d="M9.09,14H9.1c0-0.01,0-0.01,0-0.02C9.09,13.99,9.09,14,9.09,14z" opacity=".05"/><path fill="#151515" d="M39.43,14.49c-0.09-0.17-0.18-0.33-0.27-0.49c0,0,0,0-0.01-0.01h-0.01	c-0.03-0.01-0.08-0.02-0.16-0.04c-0.07-0.02-0.17-0.04-0.3-0.07c-0.03-0.01-0.05-0.02-0.08-0.03c-0.08-0.02-0.16-0.04-0.25-0.06	c-0.03,0-0.07-0.01-0.1-0.02c-0.07-0.02-0.14-0.03-0.21-0.05c-0.05-0.02-0.1-0.03-0.16-0.04c-0.16-0.04-0.33-0.08-0.51-0.12	c-0.39-0.09-0.84-0.18-1.33-0.28c-0.23-0.05-0.48-0.1-0.73-0.15c-0.23-0.04-0.48-0.08-0.73-0.13c-0.17-0.03-0.35-0.06-0.53-0.09	c-0.39-0.07-0.81-0.14-1.24-0.2c-0.43-0.07-0.87-0.13-1.33-0.19c-0.2-0.03-0.41-0.06-0.62-0.08c-0.03-0.01-0.07-0.01-0.11-0.01	c-0.26-0.04-0.53-0.07-0.8-0.1c-0.12-0.01-0.25-0.02-0.37-0.03c-0.17-0.02-0.34-0.03-0.51-0.05c-0.62-0.06-1.26-0.11-1.91-0.15	C26.14,12.04,25.08,12,24,12c-0.41,0-0.82,0-1.22,0.02c-0.34,0-0.69,0.02-1.02,0.03c-0.06,0-0.11,0.01-0.17,0.01	c-0.19,0.01-0.38,0.02-0.56,0.03c-0.21,0.01-0.42,0.02-0.63,0.04c-0.46,0.03-0.92,0.06-1.37,0.11c-0.04,0-0.07,0.01-0.11,0.01	c-0.38,0.03-0.76,0.07-1.13,0.12c-0.11,0-0.22,0.02-0.33,0.03c-0.34,0.04-0.66,0.08-0.98,0.13c-0.2,0.02-0.4,0.05-0.59,0.08	c-0.66,0.09-1.29,0.19-1.87,0.3c-0.11,0.02-0.21,0.04-0.32,0.06c-0.34,0.06-0.66,0.12-0.97,0.18c-0.38,0.07-0.74,0.15-1.06,0.22	c-0.2,0.05-0.39,0.09-0.57,0.13c-0.07,0.02-0.13,0.03-0.19,0.04c-0.16,0.03-0.32,0.07-0.46,0.11c-0.1,0.02-0.2,0.05-0.28,0.07	c-0.07,0.01-0.15,0.03-0.21,0.05c-0.07,0.02-0.13,0.03-0.19,0.05c-0.1,0.02-0.19,0.05-0.26,0.07c-0.06,0.02-0.11,0.03-0.16,0.04	c-0.08,0.02-0.14,0.04-0.18,0.05C9.13,13.99,9.11,14,9.1,14H9.09c-0.1,0.16-0.2,0.33-0.3,0.5c-0.1,0.16-0.19,0.33-0.28,0.5h0.74	l0.19-0.06l0.07-0.02l0.08-0.02c0.04-0.01,0.13-0.03,0.24-0.06l0.02-0.01c0.03-0.01,0.07-0.02,0.12-0.03l0.06-0.01l0.06-0.02	c0.06-0.02,0.1-0.03,0.14-0.04l0.08-0.02l0.04-0.01l0.06-0.01l0.1-0.03c0.04-0.01,0.09-0.02,0.14-0.03l0.04-0.01l0.03-0.01	c0.12-0.03,0.25-0.06,0.37-0.09c0.07-0.01,0.15-0.02,0.25-0.05l0.09-0.02c0.16-0.03,0.32-0.07,0.48-0.11l0.05-0.01	c0.29-0.06,0.61-0.13,0.95-0.2c0.31-0.06,0.63-0.12,0.96-0.18l0.18-0.03l0.15-0.03c0.55-0.1,1.16-0.2,1.83-0.29	c0.19-0.03,0.37-0.06,0.55-0.07l0.03-0.01h0.02c0.31-0.05,0.62-0.09,0.95-0.13l0.11-0.01c0.03,0,0.07-0.01,0.1-0.01h0.06l0.07-0.01	c0.35-0.05,0.7-0.08,1.06-0.11c0.03,0,0.07-0.01,0.1-0.01h0.01l0.05-0.01c0.44-0.04,0.88-0.07,1.33-0.1	c0.22-0.02,0.41-0.03,0.61-0.04l0.54-0.03c0.05,0,0.1,0,0.15-0.01l0.35-0.01c0.22-0.01,0.44-0.02,0.66-0.02h0.05	C23.2,13,23.57,13,23.95,13H24c0.96,0,1.98,0.03,3.1,0.1c0.64,0.04,1.27,0.09,1.87,0.15c0.08,0,0.17,0.01,0.27,0.02	c0.07,0.01,0.15,0.01,0.22,0.02l0.23,0.02l0.18,0.02c0.23,0.02,0.48,0.05,0.73,0.09l0.07,0.01h0.04l0.06,0.01	c0.19,0.01,0.38,0.04,0.56,0.07c0.47,0.06,0.9,0.12,1.32,0.19c0.44,0.06,0.85,0.13,1.22,0.19l0.54,0.09	c0.17,0.04,0.37,0.07,0.56,0.11l0.17,0.03c0.22,0.04,0.46,0.09,0.69,0.14l0.2,0.04c0.41,0.08,0.78,0.16,1.12,0.23	c0.17,0.04,0.34,0.08,0.49,0.12l0.04,0.01l0.03,0.01h0.01l0.05,0.01c0.05,0.02,0.11,0.03,0.17,0.04c0.08,0.03,0.17,0.05,0.25,0.06	c0.04,0.01,0.08,0.02,0.11,0.03c0.02,0,0.04,0.01,0.06,0.02l0.05,0.01l0.05,0.01l0.12,0.03c0.05,0.01,0.09,0.02,0.13,0.03l0.12,0.03	l0.15,0.05h0.71C39.61,14.82,39.52,14.65,39.43,14.49z" opacity=".05"/><path fill="#151515" d="M39.16,14c0,0,0,0-0.01-0.01h-0.01c-0.03-0.01-0.08-0.02-0.16-0.04	c-0.07-0.02-0.17-0.04-0.3-0.07c-0.03-0.01-0.05-0.02-0.08-0.03c-0.08-0.02-0.16-0.04-0.25-0.06c-0.03,0-0.07-0.01-0.1-0.02	c-0.07-0.02-0.14-0.03-0.21-0.05c-0.05-0.02-0.1-0.03-0.16-0.04c-0.16-0.04-0.33-0.08-0.51-0.12c-0.39-0.09-0.84-0.18-1.33-0.28	c-0.23-0.05-0.48-0.1-0.73-0.15c-0.23-0.04-0.48-0.08-0.73-0.13c-0.17-0.03-0.35-0.06-0.53-0.09c-0.39-0.07-0.81-0.14-1.24-0.2	c-0.43-0.07-0.87-0.13-1.33-0.19c-0.2-0.03-0.41-0.06-0.62-0.08c-0.03-0.01-0.07-0.01-0.11-0.01c-0.26-0.04-0.53-0.07-0.8-0.1	c-0.12-0.01-0.25-0.02-0.37-0.03c-0.17-0.02-0.34-0.03-0.51-0.05c-0.62-0.06-1.26-0.11-1.91-0.15C26.14,12.04,25.08,12,24,12	c-0.41,0-0.82,0-1.22,0.02c-0.34,0-0.69,0.02-1.02,0.03c-0.06,0-0.11,0.01-0.17,0.01c-0.19,0.01-0.38,0.02-0.56,0.03	c-0.21,0.01-0.42,0.02-0.63,0.04c-0.46,0.03-0.92,0.06-1.37,0.11c-0.04,0-0.07,0.01-0.11,0.01c-0.38,0.03-0.76,0.07-1.13,0.12	c-0.11,0-0.22,0.02-0.33,0.03c-0.34,0.04-0.66,0.08-0.98,0.13c-0.2,0.02-0.4,0.05-0.59,0.08c-0.66,0.09-1.29,0.19-1.87,0.3	c-0.11,0.02-0.21,0.04-0.32,0.06c-0.34,0.06-0.66,0.12-0.97,0.18c-0.38,0.07-0.74,0.15-1.06,0.22c-0.2,0.05-0.39,0.09-0.57,0.13	c-0.07,0.02-0.13,0.03-0.19,0.04c-0.16,0.03-0.32,0.07-0.46,0.11c-0.1,0.02-0.2,0.05-0.28,0.07c-0.07,0.01-0.15,0.03-0.21,0.05	c-0.07,0.02-0.13,0.03-0.19,0.05c-0.1,0.02-0.19,0.05-0.26,0.07c-0.06,0.02-0.11,0.03-0.16,0.04c-0.08,0.02-0.14,0.04-0.18,0.05	C9.13,13.99,9.11,14,9.1,14H9.09c-0.1,0.16-0.2,0.33-0.3,0.5h0.38l0.11-0.03l0.09-0.03l0.1-0.02c0.05-0.01,0.12-0.03,0.2-0.06	l0.04-0.01c0.04-0.01,0.1-0.03,0.16-0.04L9.9,14.3l0.03-0.01c0.02,0,0.04-0.01,0.06-0.01l0.11-0.03c0.05-0.02,0.1-0.03,0.14-0.04	h0.05l0.09-0.03c0.05-0.01,0.11-0.03,0.17-0.04c0.16-0.05,0.31-0.08,0.45-0.11c0.07-0.01,0.15-0.02,0.24-0.05l0.08-0.02	c0.15-0.03,0.31-0.06,0.47-0.1l0.06-0.02c0.3-0.06,0.63-0.13,0.97-0.2c0.31-0.06,0.63-0.12,0.97-0.18l0.17-0.03l0.15-0.03	c0.55-0.1,1.18-0.2,1.85-0.29c0.19-0.03,0.38-0.06,0.57-0.08c0.34-0.06,0.65-0.09,0.99-0.13l0.11-0.02c0.05,0,0.11-0.01,0.16-0.01	h0.07c0.36-0.05,0.73-0.09,1.1-0.12c0.02,0,0.05-0.01,0.09-0.01c0.48-0.05,0.93-0.08,1.38-0.11c0.22-0.02,0.42-0.03,0.62-0.04	l0.57-0.03c0.02,0,0.06,0,0.1-0.01h0.06l0.32-0.01c0.23-0.01,0.45-0.02,0.68-0.02c0.41-0.02,0.8-0.02,1.2-0.02c0,0,0.01,0,0.02,0	c0.97,0,2,0.03,3.13,0.1c0.65,0.04,1.29,0.09,1.89,0.15c0.08,0.01,0.17,0.02,0.26,0.02c0.08,0.01,0.16,0.02,0.24,0.03l0.21,0.01	l0.18,0.02c0.25,0.03,0.51,0.06,0.76,0.09l0.04,0.01h0.05l0.05,0.01c0.2,0.02,0.4,0.05,0.6,0.07c0.46,0.07,0.89,0.12,1.32,0.19	c0.43,0.06,0.85,0.13,1.23,0.2l0.53,0.09c0.18,0.04,0.38,0.07,0.56,0.1l0.17,0.03c0.24,0.05,0.49,0.1,0.71,0.15l0.2,0.04	c0.41,0.08,0.79,0.16,1.13,0.24c0.18,0.04,0.34,0.08,0.5,0.12c0.06,0.01,0.08,0.01,0.1,0.01c0.09,0.03,0.13,0.04,0.18,0.05	l0.07,0.02c0.05,0.02,0.11,0.03,0.17,0.04c0.07,0.01,0.13,0.03,0.19,0.04l0.05,0.02l0.17,0.04c0.06,0.02,0.11,0.03,0.15,0.04	l0.1,0.03l0.08,0.02l0.12,0.01h0.29C39.34,14.32,39.25,14.16,39.16,14z" opacity=".05"/><path fill="#151515" d="M24,18c-8,0-8,3-8,3v19l0.5-0.6l0.5-0.6V21.05c0.11-0.59,1.55-2.05,7-2.05	s6.89,1.46,7,2.05V38.8l0.5,0.6L32,40V21C32,21,32,18,24,18z" opacity=".05"/><path fill="#151515" d="M24,18c-8,0-8,3-8,3v19l0.5-0.6V21c0-0.01,0.23-2.5,7.5-2.5s7.5,2.49,7.5,2.51V39.4	L32,40V21C32,21,32,18,24,18z" opacity=".05"/><path fill="#e34880" d="M32,40v4H16v-4l5-6h6L32,40z"/><path fill="#fabfc7" d="M32,41h4v3h-4V41z M12,41h4v3h-4V41z"/><linearGradient id="uljkGoqR4YfT3vVtLG8bSd" x1="24" x2="24" y1="33.231" y2="36.89" gradientUnits="userSpaceOnUse"><stop offset="0" stop-color="#805fc3"/><stop offset="1" stop-color="#59228a"/></linearGradient><path fill="url(#uljkGoqR4YfT3vVtLG8bSd)" d="M32,41.99V40c2.09,0,2-1,4-1v2C36,41,36.1,41.86,32,41.99z M16,40v1.99	C11.9,41.86,12,41,12,41v-2C14,39,14,40,16,40z M27,34h-6l-2.62,3.14C19.09,37.68,20,38,21,38c1.2,0,2.27-0.46,3-1.19	c0.73,0.73,1.8,1.19,3,1.19c1,0,1.91-0.32,2.62-0.86L27,34z"/><path fill="#de2568" d="M17,33c-0.17,0-0.34,0-0.5,0.01c-0.17,0-0.34,0.01-0.5,0.02c-4,0.27-4,2.26-4,5.97c2,0,2,1,4,1 l0.5-0.6l0.5-0.6l3.6-4.32C20.18,33.61,19.08,33,17,33z M32,33.03c-0.16-0.01-0.33-0.02-0.5-0.02C31.34,33,31.17,33,31,33 c-2.08,0-3.18,0.61-3.6,1.48L31,38.8l0.5,0.6L32,40c2.09,0,2-1,4-1C36,35.29,36,33.3,32,33.03z"/><path fill="#fabfc7" d="M21,30h6v4c-0.338,0.254-1.423,1-3,1c-0.423,0-1.738-0.054-3-1C21,32.667,21,31.333,21,30z"/></svg>