<svg xmlns="http://www.w3.org/2000/svg" viewBox="0 0 48 48"><linearGradient id="71y2gTzD7p8GwVVl6y6eza" x1="18.875" x2="29.125" y1="38.725" y2="9.275" gradientTransform="rotate(-10.936 24 24.001)" gradientUnits="userSpaceOnUse"><stop offset="0" stop-color="#92a3b0"/><stop offset=".336" stop-color="#a3b5c4"/><stop offset=".686" stop-color="#aec2d1"/><stop offset="1" stop-color="#b2c6d6"/></linearGradient><path fill="url(#71y2gTzD7p8GwVVl6y6eza)" d="M40.533,13.758L14.727,6.905c-0.424-0.113-0.856,0.138-0.969,0.562L6.905,33.273	c-0.113,0.424,0.138,0.856,0.562,0.969l25.806,6.853c0.424,0.113,0.856-0.138,0.969-0.562l6.853-25.806	C41.208,14.303,40.957,13.871,40.533,13.758z M27.643,22.025l-1.46,5.496c-0.023,0.087-0.122,0.144-0.209,0.121l-5.496-1.46	c-0.087-0.023-0.144-0.122-0.121-0.209l1.46-5.496c0.023-0.087,0.122-0.144,0.209-0.121l5.496,1.46	C27.609,21.84,27.666,21.938,27.643,22.025z"/></svg>