<svg xmlns="http://www.w3.org/2000/svg" viewBox="0 0 48 48"><linearGradient id="-l4CInXdU-ine51ZiYBc0a" x1="19.975" x2="37.296" y1="24.355" y2="49.869" gradientUnits="userSpaceOnUse"><stop offset="0" stop-color="#21ad64"/><stop offset="1" stop-color="#088242"/></linearGradient><path fill="url(#-l4CInXdU-ine51ZiYBc0a)" d="M42.838,30.667H12V31v2v2v2v2v0.973C15.345,42.49,19.491,44,24,44	C32.704,44,40.089,38.429,42.838,30.667z"/><path fill="#f0f4f7" d="M10,17h2v2h-2V17z M10,13h2v2h-2V13z M8,15h2v2H8V15z M8,23h2v2H8V23z M10,21h2v2h-2V21z M10,25h2v2	h-2V25z M8,27h2v2H8V27z M8,19h2v2H8V19z M6,17h2v2H6V17z M10,33h2v2h-2V33z M6,15.326C5.737,15.871,5.498,16.429,5.284,17H6V15.326	z M10,29v2h2v-0.333V29H10z M12,11V9h-1.198C10.531,9.239,10.258,9.476,10,9.729V11H12z M5.284,31	C5.498,31.571,5.737,32.129,6,32.674V31H5.284z M8,31h2v2H8V31z M6,27H4.249c0.102,0.679,0.238,1.345,0.407,2H6V27z M6,23H4.05	C4.034,23.333,4,23.662,4,24s0.034,0.667,0.05,1H6V23z M10,13v-2H8.82C8.533,11.335,8.264,11.683,8,12.036V13H10z M6,21h2v2H6V21z M6,19H4.656c-0.169,0.655-0.304,1.321-0.407,2H6V19z M8,33H6.157c0.348,0.689,0.725,1.36,1.148,2H8V33z M10,35H8v0.964	C8.264,36.317,8.533,36.665,8.82,37H10V35z M8,13H7.305c-0.423,0.64-0.8,1.311-1.148,2H8V13z M6,29h2v2H6V29z M6,25h2v2H6V25z M12,37h-2v1.271c0.258,0.253,0.531,0.49,0.802,0.729H12V37z"/><linearGradient id="-l4CInXdU-ine51ZiYBc0b" x1="13.839" x2="37.084" y1="9.783" y2="42.274" gradientUnits="userSpaceOnUse"><stop offset=".008" stop-color="#f44f5a"/><stop offset=".447" stop-color="#ee3d4a"/><stop offset="1" stop-color="#e52030"/></linearGradient><path fill="url(#-l4CInXdU-ine51ZiYBc0b)" d="M8,12.036C7.763,12.354,7.524,12.669,7.305,13H8V12.036z M10,9.729	C9.587,10.134,9.197,10.56,8.82,11H10V9.729z M12,8.027C11.588,8.337,11.188,8.66,10.802,9H12V8.027z M10,11h2v2h-2V11z M8,17v-2	H6.157C6.103,15.108,6.052,15.217,6,15.326V17H8z M8,13h2v2H8V13z M10,15h2v2h-2V15z M6,17H5.284c-0.244,0.652-0.453,1.318-0.629,2	H6V17z M6,19h2v2H6V19z M8,17h2v2H8V17z M10,19h2v2h-2V19z M6,21H4.249c-0.099,0.657-0.165,1.324-0.199,2H6V21z M6,23h2v2H6V23z M8,21h2v2H8V21z M10,23h2v2h-2V23z M6,25H4.05c0.034,0.676,0.099,1.343,0.199,2H6V25z M6,27h2v2H6V27z M8,25h2v2H8V25z M10,27h2v2	h-2V27z M6,29H4.656c0.176,0.682,0.385,1.348,0.629,2H6V29z M8,31H6v1.674C6.052,32.783,6.103,32.892,6.157,33H8V31z M8,29h2v2H8V29	z M10,31h2v2h-2V31z M7.305,35C7.524,35.331,7.763,35.646,8,35.964V35H7.305z M8,33h2v2H8V33z M10,35h2v2h-2V35z M8.82,37	c0.377,0.439,0.767,0.866,1.18,1.271V37H8.82z M10.802,39c0.386,0.34,0.786,0.663,1.198,0.973V39H10.802z M12,11v2v2v2v2v2v2v2v2v2	v1.667h30.838C43.577,28.579,44,26.341,44,24c0-11.046-8.954-20-20-20c-4.509,0-8.655,1.51-12,4.027V9V11z"/></svg>