<svg xmlns="http://www.w3.org/2000/svg" viewBox="0 0 48 48"><linearGradient id="DDEeb~a3crreMy1GytaDCa" x1="14.207" x2="30.992" y1="1.853" y2="47.971" gradientUnits="userSpaceOnUse"><stop offset="0" stop-color="#f44f5a"/><stop offset=".443" stop-color="#ee3d4a"/><stop offset="1" stop-color="#e52030"/></linearGradient><path fill="url(#DDEeb~a3crreMy1GytaDCa)" d="M24,2L24,2C15.716,2,9,8.716,9,17v26c0,0.552,0.448,1,1,1h28c0.552,0,1-0.448,1-1V17	C39,8.716,32.284,2,24,2z"/><circle cx="24" cy="40" r="4" fill="#f09ca2"/><circle cx="24" cy="40" r="2" fill="#343434"/><circle cx="24" cy="27" r="4" fill="#f09ca2"/><circle cx="24" cy="27" r="2" fill="#343434"/><circle cx="24" cy="21" r="4" fill="#f09ca2"/><circle cx="24" cy="21" r="2" fill="#343434"/><circle cx="24" cy="14" r="2" fill="#343434"/><circle cx="24" cy="6" r="2" fill="#343434"/><circle cx="13" cy="40" r="4" fill="#f09ca2"/><circle cx="13" cy="40" r="2" fill="#343434"/><circle cx="35" cy="40" r="4" fill="#f09ca2"/><circle cx="35" cy="40" r="2" fill="#343434"/><path fill="#f09ca2" d="M24,31c-6.065,0-11-4.935-11-11S17.935,9,24,9s11,4.935,11,11S30.065,31,24,31z M24,11	c-4.962,0-9,4.037-9,9s4.038,9,9,9s9-4.037,9-9S28.962,11,24,11z"/></svg>