<svg xmlns="http://www.w3.org/2000/svg" viewBox="0 0 48 48"><linearGradient id="29i7EGsvAp5jqtpE8H-LAa" x1="8.934" x2="8.934" y1="7.043" y2="45.014" gradientUnits="userSpaceOnUse"><stop offset="0" stop-color="#889097"/><stop offset="1" stop-color="#4c5963"/></linearGradient><path fill="url(#29i7EGsvAp5jqtpE8H-LAa)" d="M11.07,19.01L9,24l-0.42-0.21L8.1,23.54l-0.03-0.01c-0.17-0.09-0.33-0.19-0.46-0.32	c-0.39-0.36-0.63-0.86-0.65-1.4L6.8,16.74c-0.01-0.21,0.01-0.42,0.05-0.62c0.14-0.83,0.64-1.57,1.38-2.03l0.25-0.15l0.55-0.35	l0.59-0.35L10,13l0.9,5.04L11.07,19.01z"/><linearGradient id="29i7EGsvAp5jqtpE8H-LAb" x1="39.066" x2="39.066" y1="7.043" y2="45.014" gradientUnits="userSpaceOnUse"><stop offset="0" stop-color="#889097"/><stop offset="1" stop-color="#4c5963"/></linearGradient><path fill="url(#29i7EGsvAp5jqtpE8H-LAb)" d="M41.2,16.74l-0.16,5.07	c-0.02,0.54-0.26,1.04-0.65,1.4c-0.13,0.13-0.29,0.23-0.46,0.32l-0.03,0.01l-0.48,0.25L39,24l-2.07-4.99l0.17-0.97L38,13l0.38,0.24	l0.59,0.35l0.55,0.35l0.25,0.15c0.74,0.46,1.24,1.2,1.38,2.03C41.19,16.32,41.21,16.53,41.2,16.74z"/><linearGradient id="29i7EGsvAp5jqtpE8H-LAc" x1="8.875" x2="8.875" y1="1.826" y2="44.263" gradientUnits="userSpaceOnUse"><stop offset="0" stop-color="#a1aab3"/><stop offset="1" stop-color="#8f979e"/></linearGradient><path fill="url(#29i7EGsvAp5jqtpE8H-LAc)" d="M10,13l0.9,5.04	c-1.59-0.55-2.96-1.2-4.05-1.92c0.14-0.83,0.64-1.57,1.38-2.03L10,13z"/><linearGradient id="29i7EGsvAp5jqtpE8H-LAd" x1="39.125" x2="39.125" y1="1.826" y2="44.263" gradientUnits="userSpaceOnUse"><stop offset="0" stop-color="#a1aab3"/><stop offset="1" stop-color="#8f979e"/></linearGradient><path fill="url(#29i7EGsvAp5jqtpE8H-LAd)" d="M41.15,16.12	c-1.09,0.72-2.46,1.37-4.05,1.92L38,13l1.77,1.09C40.51,14.55,41.01,15.29,41.15,16.12z"/><linearGradient id="29i7EGsvAp5jqtpE8H-LAe" x1="24" x2="24" y1="36.13" y2="50.167" gradientUnits="userSpaceOnUse"><stop offset="0" stop-color="#6d6d6d"/><stop offset=".126" stop-color="#626262"/><stop offset=".886" stop-color="#464646"/><stop offset="1" stop-color="#454545"/></linearGradient><path fill="url(#29i7EGsvAp5jqtpE8H-LAe)" d="M24,31c-6.08,0-11,1.86-11,6c0,3,6,9,11,9	s11-6,11-9C35,32.86,30.08,31,24,31z"/><linearGradient id="29i7EGsvAp5jqtpE8H-LAf" x1="24" x2="24" y1="1.826" y2="44.263" gradientUnits="userSpaceOnUse"><stop offset="0" stop-color="#a1aab3"/><stop offset="1" stop-color="#8f979e"/></linearGradient><path fill="url(#29i7EGsvAp5jqtpE8H-LAf)" d="M39.56,33.52	c-0.03,0.65-0.37,1.24-0.93,1.59c-2.09,1.29-6.61,3.32-10.62,4.31c-0.97,0.24-1.92,0.42-2.78,0.5C24.8,39.98,24.39,40,24,40	s-0.8-0.02-1.23-0.08c-0.86-0.08-1.81-0.26-2.78-0.5c-4.01-0.99-8.53-3.02-10.62-4.31c-0.39-0.25-0.68-0.61-0.82-1.03	c-0.06-0.18-0.1-0.37-0.11-0.56c-0.15-3.03-0.04-7.54,0.32-12.38c0.16-2.19,0.38-4.44,0.65-6.66c0-0.03,0.01-0.05,0.01-0.08	c0.77-6.39,6.13-11.21,12.52-11.39C22.06,3,22.19,3,22.32,3h3.36c0.13,0,0.26,0,0.38,0.01c6.39,0.18,11.75,5,12.52,11.39	c0,0.03,0.01,0.05,0.01,0.08c0.27,2.22,0.49,4.47,0.65,6.66C39.6,25.98,39.71,30.49,39.56,33.52z"/><path fill="#889097" d="M19.99,39.42c-4.01-0.99-8.53-3.02-10.62-4.31c-0.39-0.25-0.68-0.61-0.82-1.03	C8.81,31.31,10.2,28.35,12,27C19,25.5,22.25,38,19.99,39.42z"/><path fill="#889097" d="M28.01,39.42c4.01-0.99,8.53-3.02,10.62-4.31c0.39-0.25,0.68-0.61,0.82-1.03	C39.19,31.31,37.8,28.35,36,27C29,25.5,25.75,38,28.01,39.42z"/><path fill="#889097" d="M26.06,3.01C25.94,3,25.81,3,25.68,3H24h-1.68c-0.13,0-0.26,0-0.38,0.01L21,19h3h3L26.06,3.01z"/><linearGradient id="29i7EGsvAp5jqtpE8H-LAg" x1="14.659" x2="14.659" y1="7.043" y2="45.014" gradientUnits="userSpaceOnUse"><stop offset="0" stop-color="#889097"/><stop offset="1" stop-color="#4c5963"/></linearGradient><path fill="url(#29i7EGsvAp5jqtpE8H-LAg)" d="M8.76,21.14C10,22,12,24,12,27	c3,0,7.99,6,7.99,12.42C21.25,34.75,21.5,21.14,8.76,21.14z"/><path fill="#bfc8d1" d="M25,3v12c0,0.55-0.45,1-1,1s-1-0.45-1-1V3H25z"/><linearGradient id="29i7EGsvAp5jqtpE8H-LAh" x1="33.341" x2="33.341" y1="7.043" y2="45.014" gradientUnits="userSpaceOnUse"><stop offset="0" stop-color="#889097"/><stop offset="1" stop-color="#4c5963"/></linearGradient><path fill="url(#29i7EGsvAp5jqtpE8H-LAh)" d="M39.24,21.14C38,22,36,24,36,27	c-3,0-7.99,6-7.99,12.42C26.75,34.75,26.5,21.14,39.24,21.14z"/><path fill="#bfc8d1" d="M38.59,14.48C34.06,17.06,26.91,18,24,18s-10.06-0.94-14.59-3.52c-0.27,2.22-0.49,4.47-0.65,6.66	c6.48,1.35,11.07,8.01,11.23,18.28c0.97,0.24,1.92,0.42,2.78,0.5c0.386-0.182,0.84-0.5,1.23-0.5s0.712,0.244,1.23,0.5	c0.86-0.08,1.81-0.26,2.78-0.5c0.16-10.27,4.75-16.93,11.23-18.28C39.08,18.95,38.86,16.7,38.59,14.48z"/><linearGradient id="29i7EGsvAp5jqtpE8H-LAi" x1="24" x2="24" y1="11.087" y2="35.802" gradientUnits="userSpaceOnUse"><stop offset="0" stop-color="#6d6d6d"/><stop offset=".126" stop-color="#626262"/><stop offset=".886" stop-color="#464646"/><stop offset="1" stop-color="#454545"/></linearGradient><path fill="url(#29i7EGsvAp5jqtpE8H-LAi)" d="M10.5,17l0.57,2.01	c0.27,0.93,0.98,1.68,1.9,2L13,21.02l2,0.7l1,0.35l2.43,0.85c0.2,0.07,0.39,0.15,0.57,0.24c1.55,0.78,2.62,2.32,2.76,4.09l0.99,12.5	l0.02,0.17C23.2,39.98,23.61,40,24,40s0.8-0.02,1.23-0.08l0.02-0.17l0.99-12.5c0.16-1.98,1.47-3.67,3.33-4.33l5.46-1.91	c0.92-0.32,1.63-1.07,1.9-2L37.5,17C31,20,26,20,24,20c-0.99,0-2.72,0-5-0.37c-0.92-0.14-1.92-0.35-3-0.64	c-0.33-0.08-0.66-0.17-1-0.28c-0.64-0.19-1.31-0.41-2-0.67C12.2,17.74,11.36,17.4,10.5,17z"/><path d="M28.01,39.42c-0.97,0.24-1.92,0.42-2.78,0.5C24.8,39.98,24.39,40,24,40s-0.8-0.02-1.23-0.08 c-0.86-0.08-1.81-0.26-2.78-0.5c-2.35-0.58-4.88-1.52-6.99-2.46V37c0,0.17,0.02,0.35,0.06,0.54c0.03,0.19,0.09,0.39,0.17,0.61 c2.04,0.87,4.36,1.7,6.52,2.24c1.09,0.27,2.07,0.45,2.93,0.53C23.06,40.97,23.51,41,24,41s0.94-0.03,1.37-0.09 c0.81-0.07,1.79-0.25,2.88-0.52c2.16-0.54,4.49-1.37,6.52-2.24c0.08-0.22,0.14-0.42,0.17-0.61C34.98,37.35,35,37.17,35,37v-0.04 C32.89,37.9,30.36,38.84,28.01,39.42z" opacity=".05"/><path d="M28.01,39.42c-0.97,0.24-1.92,0.42-2.78,0.5C24.8,39.98,24.39,40,24,40s-0.8-0.02-1.23-0.08 c-0.86-0.08-1.81-0.26-2.78-0.5c-2.35-0.58-4.88-1.52-6.99-2.46V37c0,0.17,0.02,0.35,0.06,0.54c2.1,0.92,4.54,1.81,6.81,2.37 c1.06,0.26,2.02,0.43,2.85,0.51c0.39,0.05,0.81,0.08,1.28,0.08s0.89-0.03,1.3-0.08c0.81-0.08,1.77-0.25,2.83-0.51 c2.27-0.56,4.71-1.45,6.81-2.37C34.98,37.35,35,37.17,35,37v-0.04C32.89,37.9,30.36,38.84,28.01,39.42z" opacity=".07"/><g><path d="M40.24,21.07c-0.16-2.18-0.38-4.42-0.65-6.65v-0.04l-0.02-0.09v-0.01c-0.01-0.11-0.03-0.23-0.05-0.34l-0.55-0.35 l-0.59-0.35c0.09,0.38,0.15,0.77,0.2,1.16c0,0.03,0.01,0.05,0.01,0.08c0.27,2.22,0.49,4.47,0.65,6.66 c0.07,0.9,0.13,1.78,0.18,2.65l0.48-0.25l0.03-0.01c0.17-0.09,0.33-0.19,0.46-0.32C40.34,22.51,40.29,21.79,40.24,21.07z M8.48,13.94c-0.02,0.11-0.04,0.23-0.05,0.34v0.01c-0.01,0.03-0.01,0.07-0.02,0.1c-0.27,2.24-0.49,4.49-0.65,6.68 c-0.05,0.72-0.1,1.44-0.15,2.14c0.13,0.13,0.29,0.23,0.46,0.32l0.03,0.01l0.48,0.25c0.05-0.87,0.11-1.75,0.18-2.65 c0.16-2.19,0.38-4.44,0.65-6.66c0-0.03,0.01-0.05,0.01-0.08c0.05-0.39,0.11-0.78,0.2-1.16l-0.59,0.35L8.48,13.94z" opacity=".05"/><path d="M39.74,21.1c-0.16-2.18-0.38-4.42-0.65-6.65v-0.02l-0.01-0.06v-0.03c-0.03-0.25-0.07-0.5-0.11-0.75l-0.59-0.35 c0.09,0.38,0.15,0.77,0.2,1.16c0,0.03,0.01,0.05,0.01,0.08c0.27,2.22,0.49,4.47,0.65,6.66c0.07,0.9,0.13,1.78,0.18,2.65l0.48-0.25 C39.86,22.74,39.8,21.92,39.74,21.1z M8.92,14.34v0.02c0,0.03-0.01,0.05-0.01,0.08c-0.27,2.23-0.49,4.48-0.65,6.66 c-0.06,0.82-0.12,1.64-0.16,2.44l0.48,0.25c0.05-0.87,0.11-1.75,0.18-2.65c0.16-2.19,0.38-4.44,0.65-6.66 c0-0.03,0.01-0.05,0.01-0.08c0.05-0.39,0.11-0.78,0.2-1.16l-0.59,0.35C8.99,13.84,8.95,14.09,8.92,14.34z" opacity=".07"/></g></svg>