<svg xmlns="http://www.w3.org/2000/svg" viewBox="0 0 48 48"><path fill="#33c481" d="M39,28v15l4.828-4.828c0.75-0.75,1.172-1.768,1.172-2.828V28c0-0.552-0.448-1-1-1h-4	C39.448,27,39,27.448,39,28z"/><rect width="30" height="6" x="9" y="37" fill="#107c42"/><path fill="#33c481" d="M9,28v15l-4.828-4.828C3.421,37.421,3,36.404,3,35.343V28c0-0.552,0.448-1,1-1h4	C8.552,27,9,27.448,9,28z"/><path fill="#61e3a7" d="M31.393,30H27v-5c0-0.552-0.448-1-1-1h-4c-0.552,0-1,0.448-1,1v5h-4.393	c-0.54,0-0.81,0.653-0.428,1.034l6.964,6.964c0.473,0.473,1.241,0.473,1.714,0l6.964-6.964C32.203,30.653,31.933,30,31.393,30z"/><linearGradient id="3MZfn6Clf71B_EF5bvrXna" x1="16.45" x2="31.762" y1="7.45" y2="22.762" gradientUnits="userSpaceOnUse"><stop offset="0" stop-color="#fede00"/><stop offset="1" stop-color="#ffd000"/></linearGradient><circle cx="24" cy="15" r="11" fill="url(#3MZfn6Clf71B_EF5bvrXna)"/><circle cx="24" cy="15" r="8.8" fill="#f5be00"/><path fill="#fee119" d="M21.544,19.054v-1.64c0.595,0.365,1.229,0.547,1.901,0.547c0.506,0,0.902-0.12,1.187-0.361 c0.285-0.241,0.428-0.568,0.428-0.981c0-0.863-0.609-1.294-1.828-1.294c-0.397,0-0.877,0.036-1.439,0.109V10.57h4.822v1.567h-3.182 v1.743c0.255-0.024,0.496-0.036,0.723-0.036c0.895,0,1.595,0.235,2.101,0.704c0.506,0.47,0.759,1.102,0.759,1.895 c0,0.878-0.302,1.596-0.905,2.152c-0.603,0.557-1.421,0.835-2.454,0.835C22.819,19.43,22.115,19.305,21.544,19.054z"/></svg>