<svg xmlns="http://www.w3.org/2000/svg" data-name="Слой 1" viewBox="0 0 48 48"><defs><linearGradient id="fYHbdbxAEOCg87jfOrAqsa" x1="15.478" x2="34.518" y1=".586" y2="52.898" gradientUnits="userSpaceOnUse"><stop offset=".002" stop-color="#427fdb"/><stop offset=".397" stop-color="#2668cb"/><stop offset=".763" stop-color="#1358bf"/><stop offset="1" stop-color="#0c52bb"/></linearGradient></defs><circle cx="24" cy="24" r="20" fill="url(#fYHbdbxAEOCg87jfOrAqsa)"/><path fill="#fff" d="M37,24V21.03a1.97277,1.97277,0,0,0-.7-1.52A7.57694,7.57694,0,0,1,34,16a6.90239,6.90239,0,0,1,.44-4.97A.73219.73219,0,0,0,33.77,10H30.24a1.99982,1.99982,0,0,0-1.79,1.11L25,17v4H23V17l-3.45-5.89A1.99982,1.99982,0,0,0,17.76,10H14.23a.73219.73219,0,0,0-.67,1.03A6.90239,6.90239,0,0,1,14,16a7.57694,7.57694,0,0,1-2.3,3.51,1.97277,1.97277,0,0,0-.7,1.52V24h9v2H11v3h9v2H11v3a2.00591,2.00591,0,0,0,2,2H23V34h2v2H35a2.00591,2.00591,0,0,0,2-2V31H28V29h9V26H28V24ZM26,31H22V29h4Zm0-5H22V24h4Z"/></svg>