<svg xmlns="http://www.w3.org/2000/svg" xmlns:xlink="http://www.w3.org/1999/xlink" data-name="Слой 1" viewBox="0 0 48 48"><defs><linearGradient id="P_fiPz2zMYZy3flAUhmlXa" x1="31.999" x2="31.999" y1="-43.358" y2="3.957" gradientUnits="userSpaceOnUse"><stop offset="0" stop-color="#d4943b"/><stop offset="1" stop-color="#c2620e"/></linearGradient><linearGradient id="P_fiPz2zMYZy3flAUhmlXc" x1="35.936" x2="35.936" y1="6.444" y2="56.259" xlink:href="#P_fiPz2zMYZy3flAUhmlXa"/><linearGradient id="P_fiPz2zMYZy3flAUhmlXd" x1="17" x2="17" y1="-43.358" y2="3.957" xlink:href="#P_fiPz2zMYZy3flAUhmlXa"/><linearGradient id="P_fiPz2zMYZy3flAUhmlXe" x1="20.937" x2="20.937" y1="6.444" y2="56.259" xlink:href="#P_fiPz2zMYZy3flAUhmlXa"/><radialGradient id="P_fiPz2zMYZy3flAUhmlXb" cx="18.5" cy="14.5" r="2.5" data-name="Безымянный градиент 167" gradientUnits="userSpaceOnUse"><stop offset=".587" stop-opacity=".2"/><stop offset=".913" stop-opacity="0"/></radialGradient><radialGradient id="P_fiPz2zMYZy3flAUhmlXf" cx="18.5" cy="21.5" r="2.5" xlink:href="#P_fiPz2zMYZy3flAUhmlXb"/><radialGradient id="P_fiPz2zMYZy3flAUhmlXg" cx="18.5" cy="28.5" r="2.5" xlink:href="#P_fiPz2zMYZy3flAUhmlXb"/></defs><path fill="#5c2415" d="M31.999,44a5.00589,5.00589,0,0,1-5-5V34a1.50008,1.50008,0,0,1,1.5-1.5h7a1.50007,1.50007,0,0,1,1.5,1.5v5A5.00588,5.00588,0,0,1,31.999,44Zm-2-9.5V39a2.00219,2.00219,0,0,0,1.99952,2H31.999a2.00229,2.00229,0,0,0,2-2V34.5Z"/><path fill="#5c2415" d="M17,44a5.00588,5.00588,0,0,1-5-5V34a1.50008,1.50008,0,0,1,1.5-1.5h7A1.50008,1.50008,0,0,1,22,34v5A5.00588,5.00588,0,0,1,17,44Zm-2-9.5V39a2,2,0,0,0,4,0V34.5Z"/><path fill="url(#P_fiPz2zMYZy3flAUhmlXa)" d="M41.86878,7.12l-1.76,28a1.98758,1.98758,0,0,1-1.99,1.88h-12.24a1.98756,1.98756,0,0,1-1.99-1.88l-1.76-28a1.99522,1.99522,0,0,1,1.99-2.12h15.76A1.99523,1.99523,0,0,1,41.86878,7.12Z"/><path fill="url(#P_fiPz2zMYZy3flAUhmlXc)" d="M41.86878,7.12l-1.76,28a1.98758,1.98758,0,0,1-1.99,1.88h-8.12V5h9.88A1.99523,1.99523,0,0,1,41.86878,7.12Z"/><path fill="url(#P_fiPz2zMYZy3flAUhmlXd)" d="M26.87,7.12l-1.76,28A1.98758,1.98758,0,0,1,23.12,37H10.88a1.98758,1.98758,0,0,1-1.99-1.88l-1.76-28A1.99523,1.99523,0,0,1,9.12,5H24.88A1.99523,1.99523,0,0,1,26.87,7.12Z"/><path fill="url(#P_fiPz2zMYZy3flAUhmlXe)" d="M26.87,7.12l-1.76,28A1.98758,1.98758,0,0,1,23.12,37H15V5h9.88A1.99523,1.99523,0,0,1,26.87,7.12Z"/><path d="M27.11,5H24.88a1.99523,1.99523,0,0,1,1.99,2.12l-1.76,28a1.997,1.997,0,0,1-.61,1.33,1.691,1.691,0,0,0,.41.29,1.45989,1.45989,0,0,0,.5.2,3.00286,3.00286,0,0,0,.7-1.76l1.76-28A3.01085,3.01085,0,0,0,27.11,5Z" opacity=".05"/><path d="M26.69,5.28A2.68921,2.68921,0,0,0,26.38,5h-1.5a1.99523,1.99523,0,0,1,1.99,2.12l-1.76,28a1.997,1.997,0,0,1-.61,1.33,1.691,1.691,0,0,0,.41.29,2.50594,2.50594,0,0,0,.7-1.59009l1.76-28A2.48766,2.48766,0,0,0,26.69,5.28Z" opacity=".07"/><g><circle cx="18.5" cy="14.5" r="2.5" fill="url(#P_fiPz2zMYZy3flAUhmlXb)"/><circle cx="18.5" cy="21.5" r="2.5" fill="url(#P_fiPz2zMYZy3flAUhmlXf)"/><circle cx="18.5" cy="28.5" r="2.5" fill="url(#P_fiPz2zMYZy3flAUhmlXg)"/><circle cx="18.5" cy="14.5" r="1.5" fill="#fed100"/><circle cx="18.5" cy="21.5" r="1.5" fill="#fed100"/><circle cx="18.5" cy="28.5" r="1.5" fill="#fed100"/></g></svg>