<svg xmlns="http://www.w3.org/2000/svg" viewBox="0 0 48 48"><linearGradient id="Y2yYubhdQmoJ1ZOKIH69va" x1="9.858" x2="38.142" y1="9.858" y2="38.142" gradientUnits="userSpaceOnUse"><stop offset="0" stop-color="#a84fcf"/><stop offset="1" stop-color="#7615b5"/></linearGradient><path fill="url(#Y2yYubhdQmoJ1ZOKIH69va)" d="M44,24c0,11.045-8.955,20-20,20S4,35.045,4,24S12.955,4,24,4S44,12.955,44,24z"/><path d="M27.002,11c0.657,0,1.319,0.215,1.872,0.657c1.294,1.035,1.503,2.923,0.469,4.217L22.842,24	l6.501,8.126c1.035,1.294,0.825,3.182-0.469,4.217c-1.295,1.035-3.182,0.824-4.217-0.469l-8-10c-0.876-1.096-0.876-2.652,0-3.748	l8-10C25.25,11.385,26.122,11,27.002,11z" opacity=".05"/><path d="M27.002,11.5c0.548,0,1.099,0.179,1.56,0.548c1.078,0.863,1.253,2.436,0.39,3.514L22.201,24	l6.751,8.438c0.863,1.078,0.688,2.651-0.39,3.514c-1.079,0.863-2.651,0.687-3.514-0.39l-8-10c-0.73-0.913-0.73-2.21,0-3.124l8-10	C25.542,11.821,26.268,11.5,27.002,11.5z" opacity=".07"/><path fill="#fff" d="M27.001,12c0.438,0,0.879,0.143,1.248,0.438c0.862,0.69,1.002,1.948,0.312,2.811l-7,8.75l7,8.75	c0.69,0.863,0.55,2.121-0.312,2.811c-0.863,0.691-2.121,0.55-2.811-0.312l-8-10c-0.584-0.73-0.584-1.769,0-2.499l8-10	C25.833,12.257,26.415,12,27.001,12z"/></svg>