<svg xmlns="http://www.w3.org/2000/svg" baseProfile="basic" viewBox="0 0 48 48"><linearGradient id="Jdw2VHlJJbpWWyWJ6LrvFa" x1="8.962" x2="12.077" y1="39.038" y2="35.923" gradientUnits="userSpaceOnUse"><stop offset=".503" stop-color="#a1aab3"/><stop offset=".658" stop-color="#9ea7af"/><stop offset=".796" stop-color="#949da5"/><stop offset=".928" stop-color="#848c92"/><stop offset="1" stop-color="#787f85"/></linearGradient><polygon fill="url(#Jdw2VHlJJbpWWyWJ6LrvFa)" points="14,35.5 12.5,34 5.5,41 5,43 7,42.5"/><linearGradient id="Jdw2VHlJJbpWWyWJ6LrvFb" x1="36.25" x2="36.25" y1="4.957" y2="25.672" gradientUnits="userSpaceOnUse"><stop offset="0" stop-color="#2aa4f4"/><stop offset="1" stop-color="#007ad9"/></linearGradient><polygon fill="url(#Jdw2VHlJJbpWWyWJ6LrvFb)" points="41.5,10.5 40.79,11.21 40.44,11.56 37.21,14.79 36.85,15.15 36.5,15.5 35,17 31,13 32.5,11.5 32.85,11.15 33.21,10.79 36.44,7.56 36.79,7.21 37.5,6.5"/><linearGradient id="Jdw2VHlJJbpWWyWJ6LrvFc" x1="24.543" x2="24.543" y1="13.5" y2="46.398" gradientUnits="userSpaceOnUse"><stop offset="0" stop-color="#32bdef"/><stop offset="1" stop-color="#1ea2e4"/></linearGradient><path fill="url(#Jdw2VHlJJbpWWyWJ6LrvFc)" d="M37.28,19.72L22.62,34.38	c-0.41,0.41-0.92,0.69-1.47,0.81l-7.61,1.69c-0.34,0.08-0.69-0.03-0.93-0.27l-1.22-1.22c-0.24-0.24-0.35-0.59-0.27-0.93l1.69-7.61	c0.12-0.55,0.4-1.06,0.81-1.47l14.66-14.66c0.95-0.95,2.49-0.95,3.44,0l5.56,5.56C38.23,17.23,38.23,18.77,37.28,19.72z"/><linearGradient id="Jdw2VHlJJbpWWyWJ6LrvFd" x1="11.852" x2="21.408" y1="17.343" y2="43.599" gradientUnits="userSpaceOnUse"><stop offset="0" stop-color="#2aa4f4"/><stop offset="1" stop-color="#007ad9"/></linearGradient><path fill="url(#Jdw2VHlJJbpWWyWJ6LrvFd)" d="M24.5,32.5l-1.88,1.88	c-0.41,0.41-0.92,0.69-1.47,0.81l-7.61,1.69c-0.34,0.08-0.69-0.03-0.93-0.27l-1.22-1.22c-0.24-0.24-0.35-0.59-0.27-0.93l1.69-7.61	c0.12-0.55,0.4-1.06,0.81-1.47l1.88-1.88L24.5,32.5z"/><rect width="2" height="5.657" x="19" y="20.172" fill="#0370c8" transform="rotate(-45.001 20 23)"/><rect width="2" height="4.243" x="21.5" y="17.379" fill="#0370c8" transform="rotate(-45.001 22.5 19.5)"/><rect width="2" height="5.657" x="25" y="14.172" fill="#0370c8" transform="rotate(-45.001 26 17)"/><rect width="2" height="4.243" x="27.5" y="11.379" fill="#0370c8" transform="rotate(-45.001 28.5 13.5)"/><g><path d="M36.79,7.21l-0.35,0.35l-0.35,0.35l4,4l0.35-0.35l0.35-0.35L36.79,7.21z" opacity=".05"/><path d="M36.79,7.21l-0.35,0.35l4,4l0.35-0.35L36.79,7.21z" opacity=".07"/></g><path fill="#0370c8" d="M43,13c-0.256,0-0.512-0.098-0.707-0.293l-7-7c-0.391-0.391-0.391-1.023,0-1.414s1.023-0.391,1.414,0	l7,7c0.391,0.391,0.391,1.023,0,1.414C43.512,12.902,43.256,13,43,13z"/><g><path d="M33.21,10.79l-0.36,0.36L32.5,11.5l4,4l0.35-0.35l0.36-0.36L33.21,10.79z" opacity=".05"/><path d="M32.85,11.15L32.5,11.5l4,4l0.35-0.35L32.85,11.15z" opacity=".07"/></g></svg>