<svg xmlns="http://www.w3.org/2000/svg" viewBox="0 0 48 48"><radialGradient id="B46nq0jNJ7iChWOKt2~Kna" cx="14.961" cy="2.99" r="56.266" gradientUnits="userSpaceOnUse"><stop offset="0" stop-color="#ffcf54"/><stop offset=".261" stop-color="#fdcb4d"/><stop offset=".639" stop-color="#f7c13a"/><stop offset="1" stop-color="#f0b421"/></radialGradient><path fill="url(#B46nq0jNJ7iChWOKt2~Kna)" d="M31,39.4l2.6,0.5c2.9,0.6,5.6-1.5,5.8-4.4L40,29l2.9-1.2c1-0.4,1.4-1.6,0.8-2.6L40,19	c-0.6-7.6-4.9-15-16-15C13,4,7,11.4,7,20c0,3.7,1.3,7.9,3.3,10.6c1.8,2.5,2.7,5.5,2.7,8.5v2.8c0,1.105,0.895,2,2,2h14	c1.105,0,2-0.895,2-2V39.4z"/><linearGradient id="B46nq0jNJ7iChWOKt2~Knb" x1="5.86" x2="17.891" y1="3.7" y2="23.539" gradientUnits="userSpaceOnUse"><stop offset="0" stop-color="#7dd8f3"/><stop offset="1" stop-color="#45b0d0"/></linearGradient><path fill="url(#B46nq0jNJ7iChWOKt2~Knb)" d="M19,23H4c-0.552,0-1-0.448-1-1V4c0-0.552,0.448-1,1-1l15,0c0.552,0,1,0.448,1,1v18	C20,22.552,19.552,23,19,23z"/><linearGradient id="B46nq0jNJ7iChWOKt2~Knc" x1="10" x2="10" y1="19.699" y2="23.007" gradientUnits="userSpaceOnUse"><stop offset="0" stop-color="#0176d0"/><stop offset="1" stop-color="#16538c"/></linearGradient><path fill="url(#B46nq0jNJ7iChWOKt2~Knc)" d="M18,22v-1.5c0-0.552-0.448-1-1-1H2c-0.552,0-1,0.448-1,1V22c0,0.552,0.448,1,1,1h17	C18.448,23,18,22.552,18,22z"/><path fill="#0078d4" d="M11.5,15.5c-0.256,0-0.512-0.098-0.707-0.293L9,13.414l-1.293,1.293	c-0.391,0.391-1.023,0.391-1.414,0s-0.391-1.023,0-1.414l2-2c0.391-0.391,1.023-0.391,1.414,0l1.793,1.793l2.293-2.293	c0.391-0.391,1.023-0.391,1.414,0s0.391,1.023,0,1.414l-3,3C12.012,15.402,11.756,15.5,11.5,15.5z"/><path fill="#0078d4" d="M16,13.587v-3.014C16,10.256,15.744,10,15.427,10h-3.014c-0.367,0-0.551,0.444-0.292,0.704	l3.174,3.174C15.556,14.138,16,13.954,16,13.587z"/></svg>