<svg xmlns="http://www.w3.org/2000/svg" xmlns:xlink="http://www.w3.org/1999/xlink" data-name="Слой 1" viewBox="0 0 48 48"><defs><linearGradient id="sQcdKeEo5DhhT2pejt1vya" x1="10" x2="15" y1="42.5" y2="42.5" data-name="Безымянный градиент 69" gradientUnits="userSpaceOnUse"><stop offset="0" stop-color="#3079d6"/><stop offset="1" stop-color="#297cd2"/></linearGradient><linearGradient id="sQcdKeEo5DhhT2pejt1vyk" x1="29.866" x2="31.561" y1="13.132" y2="17.788" data-name="Безымянный градиент 150" gradientUnits="userSpaceOnUse"><stop offset="0" stop-color="#ffd869"/><stop offset="1" stop-color="#fec52b"/></linearGradient><linearGradient id="sQcdKeEo5DhhT2pejt1vyd" x1="24" x2="24" y1="-2.217" y2="57.752" gradientUnits="userSpaceOnUse"><stop offset="0" stop-color="#a8e2f7"/><stop offset="1" stop-color="#47c1ff"/></linearGradient><linearGradient id="sQcdKeEo5DhhT2pejt1vye" x1="25.349" x2="35.887" y1="13.257" y2="42.21" data-name="Безымянный градиент 152" gradientUnits="userSpaceOnUse"><stop offset="0" stop-color="#21ad64"/><stop offset="1" stop-color="#088242"/></linearGradient><linearGradient id="sQcdKeEo5DhhT2pejt1vyf" x1="28.128" x2="33.328" y1="20.951" y2="35.241" data-name="Безымянный градиент 149" gradientUnits="userSpaceOnUse"><stop offset="0" stop-color="#ffdfb3"/><stop offset="1" stop-color="#ffc999"/></linearGradient><linearGradient id="sQcdKeEo5DhhT2pejt1vyc" x1="33" x2="38" xlink:href="#sQcdKeEo5DhhT2pejt1vya"/><linearGradient id="sQcdKeEo5DhhT2pejt1vyj" x1="16" x2="16" y1="14.739" y2="18.559" data-name="Безымянный градиент 146" gradientUnits="userSpaceOnUse"><stop offset="0" stop-color="#0d61a9"/><stop offset=".364" stop-color="#0e5fa4"/><stop offset=".769" stop-color="#135897"/><stop offset="1" stop-color="#16528c"/></linearGradient><linearGradient id="sQcdKeEo5DhhT2pejt1vyh" x1="16" x2="16" y1="16.353" y2="25.407" data-name="Безымянный градиент 148" gradientUnits="userSpaceOnUse"><stop offset="0" stop-color="#32bdef"/><stop offset="1" stop-color="#1ea2e4"/></linearGradient><linearGradient id="sQcdKeEo5DhhT2pejt1vyi" x1="9.933" x2="19.722" y1="13.419" y2="40.315" data-name="Безымянный градиент 145" gradientUnits="userSpaceOnUse"><stop offset="0" stop-color="#2aa4f4"/><stop offset="1" stop-color="#007ad9"/></linearGradient><radialGradient id="sQcdKeEo5DhhT2pejt1vyg" cx="27.962" cy="5.446" r="11.112" xlink:href="#sQcdKeEo5DhhT2pejt1vyb"/><radialGradient id="sQcdKeEo5DhhT2pejt1vyb" cx="29.283" cy="8.674" r="11.243" data-name="Безымянный градиент 151" gradientUnits="userSpaceOnUse"><stop offset="0" stop-color="#de3a4d"/><stop offset=".185" stop-color="#d8374a"/><stop offset=".435" stop-color="#c73041"/><stop offset=".722" stop-color="#aa2333"/><stop offset="1" stop-color="#881421"/></radialGradient></defs><path fill="url(#sQcdKeEo5DhhT2pejt1vya)" d="M10,41h5a0,0,0,0,1,0,0v2a1,1,0,0,1-1,1H11a1,1,0,0,1-1-1V41A0,0,0,0,1,10,41Z"/><path fill="url(#sQcdKeEo5DhhT2pejt1vyc)" d="M33,41h5a0,0,0,0,1,0,0v2a1,1,0,0,1-1,1H34a1,1,0,0,1-1-1V41A0,0,0,0,1,33,41Z"/><rect width="36" height="36" x="6" y="6" fill="url(#sQcdKeEo5DhhT2pejt1vyd)" rx="2"/><path fill="url(#sQcdKeEo5DhhT2pejt1vye)" d="M36.9,22.79l-.85,15.27a.99831.99831,0,0,1-1,.94h-8.1a.99831.99831,0,0,1-1-.94L25.1,22.79a4.01178,4.01178,0,0,1,1.16-3.05l2.15-2.15a2.01659,2.01659,0,0,0,.41-.59,1.96824,1.96824,0,0,0,.18-.83V11h4v5.17a1.96824,1.96824,0,0,0,.18.83,2.01659,2.01659,0,0,0,.41.59l2.15,2.15A4.01178,4.01178,0,0,1,36.9,22.79Z"/><path d="M31,22a2.99121,2.99121,0,0,1,2.81628,2H34.5a.5.5,0,0,1,.49513.56958l-.47343,9.95313A.5.5,0,0,1,34.02222,35H27.97871a.501.501,0,0,1-.50041-.47729l-.46969-9.9303A.5.5,0,0,1,27.5,24h.68372A2.99121,2.99121,0,0,1,31,22m0-1a3.99829,3.99829,0,0,0-3.4512,2H27.5a1.5,1.5,0,0,0-1.48785,1.6908L26.47942,34.57A1.49905,1.49905,0,0,0,27.97871,36h6.04351a1.49762,1.49762,0,0,0,1.49846-1.43182l.47172-9.91736A1.5,1.5,0,0,0,34.5,23h-.04878A3.99832,3.99832,0,0,0,31,21Z" opacity=".05"/><path d="M31,22a2.99121,2.99121,0,0,1,2.81628,2H34.5a.5.5,0,0,1,.49513.56958l-.47343,9.95313A.5.5,0,0,1,34.02222,35H27.97871a.501.501,0,0,1-.50041-.47729l-.46969-9.9303A.5.5,0,0,1,27.5,24h.68372A2.99121,2.99121,0,0,1,31,22m0-.5a3.49961,3.49961,0,0,0-3.14969,2H27.5a1,1,0,0,0-.98947,1.14484l.46834,9.90149a.99968.99968,0,0,0,.99984.95367h6.04351a.99839.99839,0,0,0,.999-.95459l.47339-9.95209a.9692.9692,0,0,0-.23989-.74939A.99964.99964,0,0,0,34.5,23.5h-.35031A3.4996,3.4996,0,0,0,31,21.5Z" opacity=".07"/><path fill="url(#sQcdKeEo5DhhT2pejt1vyf)" d="M33.81628,24a2.98286,2.98286,0,0,0-5.63256,0H27.5a.5.5,0,0,0-.49139.59238l.46969,9.93032A.501.501,0,0,0,27.97871,35h6.0435a.5.5,0,0,0,.49949-.4773l.47344-9.95314A.5.5,0,0,0,34.5,24Z"/><path fill="url(#sQcdKeEo5DhhT2pejt1vyb)" d="M33.18,17H28.82a1.96824,1.96824,0,0,0,.18-.83V11h4v5.17A1.96824,1.96824,0,0,0,33.18,17Z"/><rect width="6" height="3" x="28" y="9" fill="url(#sQcdKeEo5DhhT2pejt1vyg)" rx="1"/><path fill="url(#sQcdKeEo5DhhT2pejt1vyh)" d="M21,21.87v3.59a1.01245,1.01245,0,0,1-.45.84l-.43.28a.51431.51431,0,0,0,0,.84l.43.28a1.01242,1.01242,0,0,1,.45.84V38a1.003,1.003,0,0,1-1,1H12a1.003,1.003,0,0,1-1-1V28.54a1.01242,1.01242,0,0,1,.45-.84l.43-.28a.51431.51431,0,0,0,0-.84l-.43-.28a1.01245,1.01245,0,0,1-.45-.84V21.87a1.97567,1.97567,0,0,1,.64-1.46l2.86-2.66h3l2.86,2.66A1.97567,1.97567,0,0,1,21,21.87Z"/><path fill="url(#sQcdKeEo5DhhT2pejt1vyi)" d="M20.12,26.58a.51431.51431,0,0,0,0,.84l.43.28a1.01242,1.01242,0,0,1,.45.84V38a1.003,1.003,0,0,1-1,1H12a1.003,1.003,0,0,1-1-1V28.54a1.01242,1.01242,0,0,1,.45-.84l.43-.28a.51431.51431,0,0,0,0-.84l-.43-.28a1.01245,1.01245,0,0,1-.45-.84V22H21v3.46a1.01245,1.01245,0,0,1-.45.84Z"/><rect width="4" height="2" x="14" y="16" fill="url(#sQcdKeEo5DhhT2pejt1vyj)" rx=".5"/><path fill="url(#sQcdKeEo5DhhT2pejt1vyk)" d="M33.18,17H28.82a1.96824,1.96824,0,0,0,.18-.83V15h4v1.17A1.96824,1.96824,0,0,0,33.18,17Z"/></svg>