<svg xmlns="http://www.w3.org/2000/svg" xmlns:xlink="http://www.w3.org/1999/xlink" data-name="Слой 1" viewBox="0 0 48 48"><defs><linearGradient id="IyKiiBNzFMvvIl4sicbiaa" x1="4.071" x2="13.415" y1="10.5" y2="10.5" data-name="Безымянный градиент 85" gradientUnits="userSpaceOnUse"><stop offset="0" stop-color="#889097"/><stop offset="1" stop-color="#64717c"/></linearGradient><linearGradient id="IyKiiBNzFMvvIl4sicbiab" x1="6.859" x2="15.679" y1="10.5" y2="10.5" data-name="Безымянный градиент 144" gradientUnits="userSpaceOnUse"><stop offset=".012" stop-color="#f3653d"/><stop offset=".326" stop-color="#f05b31"/><stop offset=".523" stop-color="#ee552a"/><stop offset=".764" stop-color="#ed5328"/><stop offset=".986" stop-color="#cc3b26"/></linearGradient><linearGradient id="IyKiiBNzFMvvIl4sicbiac" x1="44.179" x2="34.463" gradientTransform="rotate(180 39.5 10.5)" xlink:href="#IyKiiBNzFMvvIl4sicbiaa"/><linearGradient id="IyKiiBNzFMvvIl4sicbiad" x1="39.239" x2="32.581" gradientTransform="rotate(180 34 10.5)" xlink:href="#IyKiiBNzFMvvIl4sicbiab"/><linearGradient id="IyKiiBNzFMvvIl4sicbiae" x1="24" x2="24" y1="47.842" y2="31.226" data-name="Безымянный градиент 25" gradientUnits="userSpaceOnUse"><stop offset=".087" stop-color="#dfe9f2"/><stop offset=".291" stop-color="#d6e0e9"/><stop offset=".619" stop-color="#bfc8d1"/><stop offset=".768" stop-color="#889097"/></linearGradient><linearGradient id="IyKiiBNzFMvvIl4sicbiaf" x1="24" x2="24" y1="36.103" y2="29.623" xlink:href="#IyKiiBNzFMvvIl4sicbiab"/><linearGradient id="IyKiiBNzFMvvIl4sicbiag" x1="24" x2="24" y1="30.918" y2="22.459" xlink:href="#IyKiiBNzFMvvIl4sicbiab"/><linearGradient id="IyKiiBNzFMvvIl4sicbiah" x1="20.181" x2="29.892" y1=".655" y2="27.337" data-name="Безымянный градиент 64" gradientUnits="userSpaceOnUse"><stop offset=".012" stop-color="#f3653d"/><stop offset=".326" stop-color="#f05b31"/><stop offset=".523" stop-color="#ee552a"/><stop offset="1" stop-color="#ed5328"/></linearGradient></defs><path fill="url(#IyKiiBNzFMvvIl4sicbiaa)" d="M5.5,9H13a0,0,0,0,1,0,0v3a0,0,0,0,1,0,0H5.5A1.5,1.5,0,0,1,4,10.5v0A1.5,1.5,0,0,1,5.5,9Z"/><path fill="url(#IyKiiBNzFMvvIl4sicbiab)" d="M13,8h3a0,0,0,0,1,0,0v5a0,0,0,0,1,0,0H13a1,1,0,0,1-1-1V9A1,1,0,0,1,13,8Z"/><path fill="url(#IyKiiBNzFMvvIl4sicbiac)" d="M36.5,9H44a0,0,0,0,1,0,0v3a0,0,0,0,1,0,0H36.5A1.5,1.5,0,0,1,35,10.5v0A1.5,1.5,0,0,1,36.5,9Z" transform="rotate(-180 39.5 10.5)"/><path fill="url(#IyKiiBNzFMvvIl4sicbiad)" d="M33,8h3a0,0,0,0,1,0,0v5a0,0,0,0,1,0,0H33a1,1,0,0,1-1-1V9A1,1,0,0,1,33,8Z" transform="rotate(-180 34 10.5)"/><polygon fill="url(#IyKiiBNzFMvvIl4sicbiae)" points="25 45 24 46 23 45 23 33.75 25 33.75 25 45"/><path fill="url(#IyKiiBNzFMvvIl4sicbiaf)" d="M22,29h4a0,0,0,0,1,0,0v6a1,1,0,0,1-1,1H23a1,1,0,0,1-1-1V29A0,0,0,0,1,22,29Z"/><path fill="url(#IyKiiBNzFMvvIl4sicbiag)" d="M21,22h6a0,0,0,0,1,0,0v7a1,1,0,0,1-1,1H22a1,1,0,0,1-1-1V22A0,0,0,0,1,21,22Z"/><path fill="url(#IyKiiBNzFMvvIl4sicbiah)" d="M28,23H20a1,1,0,0,1-1-1V21l-3.56174-4.45217A2,2,0,0,1,15,15.29844V7a2,2,0,0,1,2-2H31a2,2,0,0,1,2,2v8.29844a2,2,0,0,1-.43826,1.24939L29,21v1A1,1,0,0,1,28,23Z"/><g opacity=".05"><path d="M28,7a1,1,0,0,1,0,2H20a1,1,0,0,1,0-2h8m0-1H20a2,2,0,0,0,0,4h8a2,2,0,0,0,0-4Z"/><path d="M28,11a1,1,0,0,1,0,2H20a1,1,0,0,1,0-2h8m0-1H20a2,2,0,0,0,0,4h8a2,2,0,0,0,0-4Z"/><path d="M28,15a1,1,0,0,1,0,2H20a1,1,0,0,1,0-2h8m0-1H20a2,2,0,0,0,0,4h8a2,2,0,0,0,0-4Z"/></g><g opacity=".07"><path d="M28,7a1,1,0,0,1,0,2H20a1,1,0,0,1,0-2h8m0-.5H20a1.5,1.5,0,0,0,0,3h8a1.5,1.5,0,0,0,0-3Z"/><path d="M28,11a1,1,0,0,1,0,2H20a1,1,0,0,1,0-2h8m0-.5H20a1.5,1.5,0,0,0,0,3h8a1.5,1.5,0,0,0,0-3Z"/><path d="M28,15a1,1,0,0,1,0,2H20a1,1,0,0,1,0-2h8m0-.5H20a1.5,1.5,0,0,0,0,3h8a1.5,1.5,0,0,0,0-3Z"/></g><rect width="10" height="2" x="19" y="7" fill="#f6eca5" rx="1"/><rect width="10" height="2" x="19" y="11" fill="#f6eca5" rx="1"/><rect width="10" height="2" x="19" y="15" fill="#f6eca5" rx="1"/></svg>