<svg xmlns="http://www.w3.org/2000/svg" viewBox="0 0 48 48"><linearGradient id="XW1NQge8X35DR3VmkV1oRa" x1="11.57" x2="36.244" y1="38.799" y2="13.392" gradientTransform="matrix(1 0 0 -1 0 50)" gradientUnits="userSpaceOnUse"><stop offset="0" stop-color="#ffd869"/><stop offset="1" stop-color="#fec52b"/></linearGradient><circle cx="24" cy="24" r="18" fill="url(#XW1NQge8X35DR3VmkV1oRa)"/><linearGradient id="XW1NQge8X35DR3VmkV1oRb" x1="15.423" x2="32.98" y1="43.297" y2="7.89" gradientTransform="matrix(1 0 0 -1 0 50)" gradientUnits="userSpaceOnUse"><stop offset="0" stop-color="#f44f5a"/><stop offset=".443" stop-color="#ee3d4a"/><stop offset="1" stop-color="#e52030"/></linearGradient><path fill="url(#XW1NQge8X35DR3VmkV1oRb)" d="M7,32h34c1.105,0,2-0.895,2-2V18c0-1.105-0.895-2-2-2H7c-1.105,0-2,0.895-2,2v12	C5,31.105,5.895,32,7,32z"/><path fill="#fff" d="M16.52,28h-1.91l-3.463-5.279c-0.203-0.309-0.344-0.541-0.422-0.697h-0.023 c0.031,0.297,0.047,0.75,0.047,1.359V28H8.961v-8.402H11l3.334,5.115c0.152,0.23,0.293,0.459,0.422,0.686h0.023 c-0.031-0.195-0.047-0.58-0.047-1.154v-4.646h1.787V28H16.52z"/><path fill="#fff" d="M23.48,28h-5.039v-8.402h4.846v1.541h-2.953v1.869h2.748v1.535h-2.748v1.922h3.146V28z"/><path fill="#fff" d="M36.061,19.598L33.84,28h-2.098l-1.395-5.391c-0.074-0.281-0.119-0.596-0.135-0.943h-0.023 c-0.035,0.383-0.086,0.697-0.152,0.943L28.607,28h-2.186l-2.209-8.402h2.068l1.184,5.596c0.051,0.238,0.088,0.559,0.111,0.961 h0.035c0.016-0.301,0.072-0.629,0.17-0.984l1.523-5.572h2.027l1.377,5.643c0.051,0.207,0.096,0.508,0.135,0.902h0.023 c0.016-0.309,0.057-0.621,0.123-0.938l1.16-5.607h1.913V19.598z"/><path fill="#fff" d="M38.135,28.135c-0.313,0-0.57-0.095-0.773-0.284s-0.305-0.419-0.305-0.688 c0-0.281,0.103-0.512,0.308-0.691s0.462-0.27,0.771-0.27c0.313,0,0.568,0.091,0.768,0.272s0.299,0.411,0.299,0.688 c0,0.281-0.099,0.514-0.296,0.697S38.451,28.135,38.135,28.135z M39.096,19.598l-0.229,5.789h-1.5l-0.217-5.789H39.096z"/><path d="M7.893,16h32.214c-0.169-0.339-0.345-0.673-0.535-1H8.428	C8.238,15.327,8.062,15.661,7.893,16z" opacity=".05"/><path d="M7.893,16h32.214c-0.082-0.165-0.154-0.337-0.241-0.5H8.134	C8.047,15.663,7.976,15.835,7.893,16z" opacity=".07"/><path d="M40.107,32H7.893c0.169,0.339,0.345,0.673,0.535,1h31.145	C39.762,32.673,39.938,32.339,40.107,32z" opacity=".05"/><path d="M40.107,32H7.893c0.082,0.166,0.154,0.337,0.241,0.5h31.732	C39.953,32.337,40.024,32.166,40.107,32z" opacity=".07"/></svg>