<svg xmlns="http://www.w3.org/2000/svg" viewBox="0 0 48 48"><linearGradient id="teNYQzxsQNd05QTOZTMA9a" x1="4.9" x2="45.838" y1="8.716" y2="32.351" gradientUnits="userSpaceOnUse"><stop offset="0" stop-color="#ffcf54"/><stop offset=".261" stop-color="#fdcb4d"/><stop offset=".639" stop-color="#f7c13a"/><stop offset="1" stop-color="#f0b421"/></linearGradient><path fill="url(#teNYQzxsQNd05QTOZTMA9a)" d="M39.992,23.999c2.388-2.795,5.307-6.743,6.85-9.829c0.37-0.741,0.07-1.642-0.671-2.013	c-0.74-0.368-1.642-0.069-2.013,0.671c-1.38,2.759-3.984,6.304-6.194,8.923c-2.652-2.711-9.48-8.752-17.714-8.752	c-10.384,0-18.558,9.628-18.9,10.037c-0.466,0.558-0.466,1.368,0,1.926c0.343,0.409,8.517,10.037,18.9,10.037	c8.234,0,15.062-6.041,17.714-8.752c2.211,2.619,4.815,6.164,6.194,8.923c0.263,0.525,0.793,0.829,1.343,0.829	c0.226,0,0.454-0.051,0.67-0.158c0.741-0.371,1.041-1.271,0.671-2.013C45.299,30.742,42.38,26.795,39.992,23.999z M20.25,31.999	c-7.179,0-13.452-5.685-15.709-8c2.257-2.315,8.53-8,15.709-8s13.452,5.685,15.709,8C33.702,26.315,27.429,31.999,20.25,31.999z"/></svg>