<svg xmlns="http://www.w3.org/2000/svg" viewBox="0 0 48 48"><radialGradient id="FTziMtrVP0bDD43cA52kAa" cx="23.787" cy="32.569" r="16.794" gradientTransform="matrix(1 0 0 .6428 0 11.634)" gradientUnits="userSpaceOnUse"><stop offset="0" stop-color="#fbd9b4"/><stop offset=".37" stop-color="#f8d4ad"/><stop offset=".922" stop-color="#f1c598"/><stop offset=".997" stop-color="#f0c395"/></radialGradient><ellipse cx="24" cy="28" fill="url(#FTziMtrVP0bDD43cA52kAa)" rx="19" ry="18"/><path fill="#fff" d="M24,26.282c0.014,3.429-2.702,6.59-6.031,6.715c-3.289,0.123-5.434-2.791-4.882-6.177	c0.5-3.068,3.084-5.482,5.836-5.644C21.703,21.011,23.987,23.181,24,26.282z"/><path fill="#fff" d="M24,26.283c-0.014,3.429,2.702,6.589,6.031,6.714c3.289,0.123,5.434-2.791,4.882-6.176	c-0.5-3.067-3.084-5.481-5.836-5.644C26.297,21.013,24.013,23.182,24,26.283z"/><linearGradient id="FTziMtrVP0bDD43cA52kAb" x1="22.383" x2="27.892" y1="5.574" y2="37.09" gradientUnits="userSpaceOnUse"><stop offset="0" stop-color="#57c526"/><stop offset=".359" stop-color="#53bd25"/><stop offset=".719" stop-color="#4db022"/></linearGradient><path fill="url(#FTziMtrVP0bDD43cA52kAb)" d="M43,21H5V9c0-2.209,1.791-4,4-4h30	c2.209,0,4,1.791,4,4V21z"/><path d="M43,18.57c-0.77-0.69-1.52-1.07-2.21-1.07c-0.1,0-0.195,0.018-0.29,0.033	V13c0-0.827-0.673-1.5-1.5-1.5H9c-0.827,0-1.5,0.673-1.5,1.5v4.533C7.405,17.518,7.31,17.5,7.21,17.5c-0.69,0-1.44,0.38-2.21,1.07	V21l19-3l19,3V18.57z" opacity=".07"/><path d="M43,17.93c-0.677-0.542-1.352-0.849-2-0.906V13c0-1.103-0.897-2-2-2H9	c-1.103,0-2,0.897-2,2v4.024c-0.648,0.057-1.323,0.365-2,0.906V21l19-3l19,3V17.93z" opacity=".05"/><linearGradient id="FTziMtrVP0bDD43cA52kAc" x1="1.392" x2="6.901" y1="9.244" y2="40.76" gradientUnits="userSpaceOnUse"><stop offset=".144" stop-color="#57c526"/><stop offset=".431" stop-color="#53bd25"/><stop offset=".719" stop-color="#4db022"/></linearGradient><path fill="url(#FTziMtrVP0bDD43cA52kAc)" d="M8.33,26.194	C6.96,31.381,3.978,36,1.805,36s-2.382-4.619-0.638-9.806C2.746,21.496,5.393,18,7.208,18S9.572,21.496,8.33,26.194z"/><linearGradient id="FTziMtrVP0bDD43cA52kAd" x1="39.235" x2="44.744" y1="2.629" y2="34.145" gradientUnits="userSpaceOnUse"><stop offset=".144" stop-color="#57c526"/><stop offset=".431" stop-color="#53bd25"/><stop offset=".719" stop-color="#4db022"/></linearGradient><path fill="url(#FTziMtrVP0bDD43cA52kAd)" d="M39.67,26.194	C41.04,31.381,44.022,36,46.195,36s2.382-4.619,0.638-9.806C45.254,21.496,42.607,18,40.792,18	C38.976,18,38.428,21.496,39.67,26.194z"/><linearGradient id="FTziMtrVP0bDD43cA52kAe" x1="22.632" x2="25.369" y1="9.581" y2="25.102" gradientUnits="userSpaceOnUse"><stop offset=".144" stop-color="#27b341"/><stop offset=".398" stop-color="#25ab3e"/><stop offset=".719" stop-color="#229a38"/></linearGradient><path fill="url(#FTziMtrVP0bDD43cA52kAe)" d="M40,21.68c0,0.652-0.608,1.132-1.24,0.97	C36.519,22.076,31.336,21,24,21s-12.519,1.076-14.76,1.65C8.608,22.811,8,22.332,8,21.68V13c0-0.552,0.448-1,1-1h30	c0.552,0,1,0.448,1,1V21.68z"/><circle cx="21" cy="28" r="1" fill="#212121"/><circle cx="27" cy="28" r="1" fill="#212121"/><path fill="#212121" d="M24.748,42c-2.456,0-4.215-1.111-4.288-1.159c-0.465-0.298-0.6-0.917-0.301-1.381	c0.298-0.466,0.917-0.601,1.381-0.301C21.55,39.165,22.901,40,24.748,40c1.539,0,2.777-0.63,2.79-0.637	c0.489-0.251,1.093-0.063,1.348,0.425c0.254,0.489,0.068,1.09-0.42,1.347C28.398,41.17,26.798,42,24.748,42z"/></svg>