<svg xmlns="http://www.w3.org/2000/svg" viewBox="0 0 48 48"><path fill="#25a2e5" d="M25,8h-2V5c0-0.552,0.448-1,1-1h0c0.552,0,1,0.448,1,1V8z"/><path fill="#35c1f1" d="M29,12H19V8c0-0.552,0.448-1,1-1h8c0.552,0,1,0.448,1,1V12z"/><linearGradient id="LqOKsyxnX_RDion9RWOo_a" x1="24" x2="24" y1="10.028" y2="17.837" gradientUnits="userSpaceOnUse"><stop offset="0" stop-color="#d43a02"/><stop offset="1" stop-color="#b9360c"/></linearGradient><path fill="url(#LqOKsyxnX_RDion9RWOo_a)" d="M29,18H19c0,0-3-2-3-6l8-2l8,2C32,16,29,18,29,18z"/><linearGradient id="LqOKsyxnX_RDion9RWOo_b" x1="24" x2="24" y1="15.873" y2="41.985" gradientUnits="userSpaceOnUse"><stop offset="0" stop-color="#2aa4f4"/><stop offset="1" stop-color="#007ad9"/></linearGradient><path fill="url(#LqOKsyxnX_RDion9RWOo_b)" d="M42,17c-1.657,0-3-1-3-1s-1.343,1-3,1s-3-1-3-1s-1.343,1-3,1s-3-1-3-1s-1.343,1-3,1s-3-1-3-1	s-1.343,1-3,1s-3-1-3-1s-1.343,1-3,1s-3-1-3-1s-1.343,1-3,1s-3-1-3-1v22c0,2.209,1.791,4,4,4h34c2.209,0,4-1.791,4-4V16	C45,16,43.657,17,42,17z"/><path fill="#64717c" d="M6,12H4c-0.553,0-1-0.448-1-1s0.447-1,1-1h2c0.553,0,1,0.448,1,1S6.553,12,6,12z"/><path fill="#64717c" d="M6,18H4c-0.553,0-1-0.448-1-1s0.447-1,1-1h2c0.553,0,1,0.448,1,1S6.553,18,6,18z"/><path fill="#64717c" d="M6,24H4c-0.553,0-1-0.448-1-1s0.447-1,1-1h2c0.553,0,1,0.448,1,1S6.553,24,6,24z"/><path fill="#64717c" d="M6,30H4c-0.553,0-1-0.448-1-1s0.447-1,1-1h2c0.553,0,1,0.448,1,1S6.553,30,6,30z"/><path fill="#64717c" d="M6,36H4c-0.553,0-1-0.448-1-1s0.447-1,1-1h2c0.553,0,1,0.448,1,1S6.553,36,6,36z"/><path fill="#abb4be" d="M7,42H4c-0.553,0-1-0.448-1-1V5c0-0.552,0.447-1,1-1h3c0.553,0,1,0.448,1,1S7.553,6,7,6H5v34h2	c0.553,0,1,0.448,1,1S7.553,42,7,42z"/></svg>