<svg xmlns="http://www.w3.org/2000/svg" viewBox="0 0 48 48"><linearGradient id="nsOMBVl73uTIInMRZ5oila" x1="6.414" x2="41.774" y1="-169.552" y2="-195.378" gradientTransform="matrix(1 0 0 -1 0 -155.89)" gradientUnits="userSpaceOnUse"><stop offset="0" stop-color="#28afea"/><stop offset="1" stop-color="#047ed6"/></linearGradient><path fill="url(#nsOMBVl73uTIInMRZ5oila)" d="M6,40V12h36v28c0,1.1-0.9,2-2,2H8C6.9,42,6,41.1,6,40z"/><path d="M29.942,27.834L29.942,27.834c-0.25-0.731-0.612-1.372-1.076-1.906 c-0.474-0.541-1.053-0.968-1.724-1.268c-1.246-0.553-2.893-0.571-4.137-0.138c0.118-0.239,0.255-0.454,0.408-0.642 c0.254-0.312,0.549-0.545,0.903-0.714c0.346-0.165,0.746-0.249,1.189-0.249c0.781,0,1.511,0.189,2.164,0.562 c0.309,0.177,0.691,0.177,1-0.004c0.307-0.178,0.497-0.51,0.497-0.864v-2.952c0-0.402-0.239-0.764-0.609-0.92 c-0.818-0.348-1.89-0.517-3.275-0.517c-1.265,0-2.429,0.254-3.459,0.756c-1.026,0.501-1.912,1.218-2.632,2.13 c-0.704,0.893-1.252,1.973-1.626,3.21c-0.366,1.213-0.552,2.572-0.552,4.04c0,1.257,0.145,2.405,0.429,3.414 c0.295,1.044,0.733,1.946,1.302,2.683c0.585,0.759,1.315,1.349,2.171,1.752c0.842,0.397,1.8,0.599,2.847,0.599 c0.936,0,1.815-0.171,2.613-0.509c0.798-0.337,1.498-0.811,2.082-1.407c0.583-0.597,1.042-1.307,1.365-2.11 c0.322-0.803,0.485-1.673,0.485-2.587C30.309,29.341,30.186,28.548,29.942,27.834z M22.615,30.26c0-0.244,0.033-0.465,0.099-0.656 c0.06-0.176,0.137-0.314,0.243-0.438c0.091-0.106,0.194-0.184,0.328-0.245c0.127-0.059,0.28-0.088,0.455-0.088 c0.47,0,1.113,0,1.113,1.583c0,0.298-0.035,0.571-0.104,0.81c-0.062,0.209-0.146,0.383-0.249,0.516 c-0.094,0.121-0.197,0.207-0.324,0.272c-0.235,0.119-0.574,0.116-0.791-0.007c-0.141-0.08-0.257-0.187-0.367-0.335 c-0.122-0.165-0.219-0.365-0.288-0.597C22.653,30.826,22.615,30.553,22.615,30.26z" opacity=".05"/><path d="M29.469,27.995c-0.229-0.668-0.558-1.253-0.979-1.738 c-0.426-0.487-0.946-0.87-1.549-1.14c-0.6-0.266-1.273-0.4-2.004-0.4c-1.105,0-2.04,0.271-2.794,0.806 c0.042-0.201,0.094-0.396,0.154-0.58c0.177-0.537,0.422-1.001,0.729-1.378c0.302-0.37,0.653-0.647,1.075-0.849 c0.413-0.197,0.886-0.298,1.405-0.298c0.869,0,1.681,0.211,2.414,0.628c0.154,0.089,0.346,0.087,0.498-0.002 c0.154-0.09,0.249-0.255,0.249-0.433v-2.952c0-0.2-0.12-0.382-0.305-0.46c-0.755-0.32-1.763-0.477-3.08-0.477 c-1.188,0-2.278,0.237-3.239,0.705c-0.958,0.468-1.786,1.138-2.459,1.99c-0.665,0.843-1.184,1.867-1.54,3.045 c-0.352,1.165-0.53,2.476-0.53,3.896c0,1.21,0.138,2.313,0.41,3.278c0.277,0.981,0.686,1.826,1.216,2.513 c0.537,0.696,1.206,1.236,1.988,1.605c0.774,0.365,1.66,0.551,2.634,0.551c0.869,0,1.683-0.158,2.419-0.47 c0.735-0.311,1.381-0.746,1.919-1.296c0.536-0.549,0.96-1.204,1.259-1.947c0.298-0.742,0.449-1.55,0.449-2.4 C29.809,29.396,29.694,28.657,29.469,27.995z M23.74,28.333c0.751,0,1.613,0.236,1.613,2.083c0,0.345-0.042,0.665-0.125,0.95 c-0.079,0.27-0.191,0.499-0.334,0.683c-0.139,0.178-0.299,0.312-0.492,0.41c-0.366,0.187-0.884,0.2-1.265-0.018 c-0.201-0.114-0.371-0.269-0.522-0.473c-0.155-0.21-0.278-0.461-0.364-0.748c-0.09-0.295-0.136-0.618-0.136-0.961 c0-0.3,0.042-0.574,0.125-0.817c0.08-0.235,0.189-0.432,0.337-0.602c0.138-0.161,0.301-0.283,0.499-0.374 C23.27,28.378,23.493,28.333,23.74,28.333z" opacity=".07"/><linearGradient id="nsOMBVl73uTIInMRZ5oilb" x1="6.42" x2="41.198" y1="-162.498" y2="-169.57" gradientTransform="matrix(1 0 0 -1 0 -155.89)" gradientUnits="userSpaceOnUse"><stop offset="0" stop-color="#0077d2"/><stop offset="1" stop-color="#0b59a2"/></linearGradient><path fill="url(#nsOMBVl73uTIInMRZ5oilb)" d="M42,8v6H6V8c0-1.1,0.9-2,2-2h32C41.1,6,42,6.9,42,8z"/><path d="M35.5,12.5L35.5,12.5c-1.657,0-3-1.343-3-3V6h6v3.5 C38.5,11.157,37.157,12.5,35.5,12.5z" opacity=".05"/><path d="M35.5,11.75L35.5,11.75c-1.243,0-2.25-1.007-2.25-2.25V6h4.5v3.5 C37.75,10.743,36.743,11.75,35.5,11.75z" opacity=".07"/><path d="M12.5,12.5L12.5,12.5c-1.657,0-3-1.343-3-3V6h6v3.5 C15.5,11.157,14.157,12.5,12.5,12.5z" opacity=".05"/><path d="M12.5,11.75L12.5,11.75c-1.243,0-2.25-1.007-2.25-2.25V6h4.5v3.5 C14.75,10.743,13.743,11.75,12.5,11.75z" opacity=".07"/><path fill="#3ccbf4" d="M12.5,11L12.5,11c-0.828,0-1.5-0.672-1.5-1.5v-4C11,4.672,11.672,4,12.5,4l0,0 C13.328,4,14,4.672,14,5.5v4C14,10.328,13.328,11,12.5,11z"/><path fill="#3ccbf4" d="M35.5,11L35.5,11c-0.828,0-1.5-0.672-1.5-1.5v-4C34,4.672,34.672,4,35.5,4l0,0 C36.328,4,37,4.672,37,5.5v4C37,10.328,36.328,11,35.5,11z"/><path fill="#fff" d="M29.309,30.192c0,0.79-0.138,1.528-0.413,2.214c-0.276,0.687-0.66,1.28-1.152,1.784 c-0.492,0.503-1.077,0.898-1.756,1.185c-0.678,0.287-1.42,0.431-2.225,0.431c-0.902,0-1.709-0.167-2.421-0.503 s-1.314-0.822-1.806-1.459c-0.492-0.638-0.869-1.419-1.13-2.343c-0.261-0.925-0.392-1.972-0.392-3.143 c0-1.379,0.17-2.629,0.509-3.751c0.34-1.122,0.824-2.082,1.454-2.88s1.392-1.414,2.286-1.851c0.895-0.436,1.901-0.654,3.02-0.654 c1.237,0,2.199,0.146,2.885,0.437v2.952c-0.813-0.462-1.699-0.693-2.661-0.693c-0.597,0-1.137,0.115-1.621,0.347 c-0.485,0.231-0.9,0.559-1.247,0.983c-0.347,0.426-0.619,0.938-0.816,1.538c-0.197,0.6-0.304,1.269-0.318,2.007h0.067 c0.76-1.051,1.882-1.576,3.365-1.576c0.663,0,1.264,0.119,1.801,0.357c0.536,0.239,0.995,0.576,1.375,1.012 c0.38,0.437,0.675,0.96,0.884,1.571C29.204,28.769,29.309,29.447,29.309,30.192z M25.854,30.416c0-1.722-0.704-2.583-2.113-2.583 c-0.32,0-0.611,0.06-0.872,0.179c-0.262,0.12-0.485,0.287-0.671,0.504c-0.187,0.216-0.33,0.471-0.431,0.766 s-0.151,0.62-0.151,0.979c0,0.396,0.053,0.764,0.157,1.106c0.104,0.344,0.251,0.644,0.441,0.9c0.19,0.258,0.415,0.461,0.677,0.609 c0.261,0.149,0.552,0.224,0.872,0.224s0.609-0.064,0.866-0.195c0.258-0.131,0.478-0.313,0.66-0.548 c0.183-0.235,0.322-0.519,0.419-0.85C25.805,31.175,25.854,30.812,25.854,30.416z"/></svg>