<svg xmlns="http://www.w3.org/2000/svg" viewBox="0 0 48 48"><linearGradient id="VqeAoZ12JwOv5vsmkxI1Na" x1="13" x2="13" y1="39.074" y2="24.639" gradientUnits="userSpaceOnUse"><stop offset="0" stop-color="#32bdef"/><stop offset="1" stop-color="#1ea2e4"/></linearGradient><path fill="url(#VqeAoZ12JwOv5vsmkxI1Na)" d="M4.588,15C3.159,15,2,16.159,2,17.588L22.17,37.72c0.505,0.505,1.168,0.758,1.83,0.758V15	H4.588z"/><linearGradient id="VqeAoZ12JwOv5vsmkxI1Nb" x1="35" x2="35" y1="39.074" y2="24.639" gradientUnits="userSpaceOnUse"><stop offset=".365" stop-color="#199ae0"/><stop offset=".699" stop-color="#1898de"/><stop offset=".819" stop-color="#1691d8"/><stop offset=".905" stop-color="#1186cc"/><stop offset=".974" stop-color="#0a75bc"/><stop offset="1" stop-color="#076cb3"/></linearGradient><path fill="url(#VqeAoZ12JwOv5vsmkxI1Nb)" d="M46,17.588C46,16.159,44.841,15,43.412,15H24v23.478c0.662,0,1.325-0.253,1.83-0.758	L46,17.588z"/><path fill="#199ae0" d="M46,17.588C46,16.159,44.841,15,43.412,15H24v23.478c0.662,0,1.325-0.253,1.83-0.758L46,17.588z"/></svg>