<svg xmlns="http://www.w3.org/2000/svg" viewBox="0 0 48 48"><linearGradient id="0odx_cZN5lWqw8nafNg1ta" x1="21" x2="21" y1="22" y2="26" gradientUnits="userSpaceOnUse"><stop offset="0" stop-color="#889097"/><stop offset="1" stop-color="#4c5963"/></linearGradient><path fill="url(#0odx_cZN5lWqw8nafNg1ta)" d="M11,22h20c0.552,0,1,0.448,1,1v2c0,0.552-0.448,1-1,1H11c-0.552,0-1-0.448-1-1v-2 C10,22.448,10.448,22,11,22z"/><linearGradient id="0odx_cZN5lWqw8nafNg1tb" x1="24" x2="24" y1="30" y2="34" gradientUnits="userSpaceOnUse"><stop offset="0" stop-color="#889097"/><stop offset="1" stop-color="#4c5963"/></linearGradient><path fill="url(#0odx_cZN5lWqw8nafNg1tb)" d="M11,30h26c0.552,0,1,0.448,1,1v2c0,0.552-0.448,1-1,1H11c-0.552,0-1-0.448-1-1v-2 C10,30.448,10.448,30,11,30z"/><linearGradient id="0odx_cZN5lWqw8nafNg1tc" x1="24" x2="24" y1="14" y2="18" gradientUnits="userSpaceOnUse"><stop offset="0" stop-color="#889097"/><stop offset="1" stop-color="#4c5963"/></linearGradient><path fill="url(#0odx_cZN5lWqw8nafNg1tc)" d="M11,14h26c0.552,0,1,0.448,1,1v2c0,0.552-0.448,1-1,1H11c-0.552,0-1-0.448-1-1v-2 C10,14.448,10.448,14,11,14z"/><linearGradient id="0odx_cZN5lWqw8nafNg1td" x1="-226.895" x2="-226.895" y1="9.5" y2="3.5" gradientTransform="matrix(0 -1 -1 0 45.5 -218.895)" gradientUnits="userSpaceOnUse"><stop offset=".478" stop-color="#ad4bd5"/><stop offset=".758" stop-color="#9f3dc8"/><stop offset=".787" stop-color="#9a38c4"/><stop offset=".868" stop-color="#9533c0"/><stop offset="1" stop-color="#912fbd"/></linearGradient><path fill="url(#0odx_cZN5lWqw8nafNg1td)" d="M36,7v2c0,0.552,0.448,1,1,1h5V6h-5C36.448,6,36,6.448,36,7z"/><linearGradient id="0odx_cZN5lWqw8nafNg1te" x1="-30" x2="-26" y1="24" y2="24" gradientTransform="matrix(-1 0 0 1 16 0)" gradientUnits="userSpaceOnUse"><stop offset="0" stop-color="#c965eb"/><stop offset="1" stop-color="#c767e5"/></linearGradient><path fill="url(#0odx_cZN5lWqw8nafNg1te)" d="M46,11.5V31v5.5c0,2-1.5,3.5-4,5.5V31V6C44.5,8,46,9.5,46,11.5z"/><linearGradient id="0odx_cZN5lWqw8nafNg1tf" x1="-216.895" x2="-216.895" y1="9.5" y2="3.5" gradientTransform="rotate(90 -105.698 151.198)" gradientUnits="userSpaceOnUse"><stop offset=".478" stop-color="#ad4bd5"/><stop offset=".758" stop-color="#9f3dc8"/><stop offset=".787" stop-color="#9a38c4"/><stop offset=".868" stop-color="#9533c0"/><stop offset="1" stop-color="#912fbd"/></linearGradient><path fill="url(#0odx_cZN5lWqw8nafNg1tf)" d="M36,41v-2c0-0.552,0.448-1,1-1h5v4h-5C36.448,42,36,41.552,36,41z"/><linearGradient id="0odx_cZN5lWqw8nafNg1tg" x1="-226.895" x2="-226.895" y1="41.5" y2="35.5" gradientTransform="rotate(-90 -124.198 -94.698)" gradientUnits="userSpaceOnUse"><stop offset=".478" stop-color="#ad4bd5"/><stop offset=".758" stop-color="#9f3dc8"/><stop offset=".787" stop-color="#9a38c4"/><stop offset=".868" stop-color="#9533c0"/><stop offset="1" stop-color="#912fbd"/></linearGradient><path fill="url(#0odx_cZN5lWqw8nafNg1tg)" d="M12,7v2c0,0.552-0.448,1-1,1H6V6h5C11.552,6,12,6.448,12,7z"/><linearGradient id="0odx_cZN5lWqw8nafNg1th" x1="2" x2="6" y1="24" y2="24" gradientUnits="userSpaceOnUse"><stop offset="0" stop-color="#c965eb"/><stop offset="1" stop-color="#c767e5"/></linearGradient><path fill="url(#0odx_cZN5lWqw8nafNg1th)" d="M2,11.5V31v5.5c0,2,1.5,3.5,4,5.5V31V6C3.5,8,2,9.5,2,11.5z"/><linearGradient id="0odx_cZN5lWqw8nafNg1ti" x1="-216.895" x2="-216.895" y1="41.5" y2="35.5" gradientTransform="matrix(0 1 1 0 -29.5 256.896)" gradientUnits="userSpaceOnUse"><stop offset=".478" stop-color="#ad4bd5"/><stop offset=".758" stop-color="#9f3dc8"/><stop offset=".787" stop-color="#9a38c4"/><stop offset=".868" stop-color="#9533c0"/><stop offset="1" stop-color="#912fbd"/></linearGradient><path fill="url(#0odx_cZN5lWqw8nafNg1ti)" d="M12,41v-2c0-0.552-0.448-1-1-1H6v4h5C11.552,42,12,41.552,12,41z"/></svg>