<svg xmlns="http://www.w3.org/2000/svg" id="Layer_1" x="0" y="0" version="1.1" viewBox="0 0 48 48" xml:space="preserve"><path fill="#d7dadd" d="M17,30H9v-7c0.1,0,2.6-1,4.8-1c1.2,0,2.3,0.2,3.2,0.7c3.2,1.5,4.9,5.8,5,6c0.2,0.5-0.5,1.4-0.5,1.4H17z"/><linearGradient id="SVGID_1_" x1="7" x2="21" y1="32.5" y2="32.5" gradientUnits="userSpaceOnUse"><stop offset="0" stop-color="#c965eb"/><stop offset="1" stop-color="#c767e5"/></linearGradient><path fill="url(#SVGID_1_)" d="M20,35H8c-0.6,0-1-0.4-1-1c0,0,0,0,0,0v-3c0-0.6,0.4-1,1-1c0,0,0,0,0,0h12c0.6,0,1,0.4,1,1c0,0,0,0,0,0v3	C21,34.6,20.6,35,20,35C20,35,20,35,20,35z"/><linearGradient id="SVGID_2_" x1="19" x2="44" y1="991" y2="991" gradientTransform="translate(0 -962)" gradientUnits="userSpaceOnUse"><stop offset="0" stop-color="#c965eb"/><stop offset="1" stop-color="#c767e5"/></linearGradient><path fill="url(#SVGID_2_)" d="M44,34H19v-9c0-0.6,0.4-1,1-1h22c1.1,0,2,0.9,2,2V34z"/><linearGradient id="SVGID_3_" x1="4" x2="44" y1="992" y2="992" gradientTransform="translate(0 -962)" gradientUnits="userSpaceOnUse"><stop offset="0" stop-color="#7819a2"/><stop offset="1" stop-color="#771aa9"/></linearGradient><path fill="url(#SVGID_3_)" d="M8,42H5c-0.6,0-1-0.4-1-1V20.5C4,19.1,5.1,18,6.5,18l0,0C7.9,18,9,19.1,9,20.5V33h34c0.6,0,1,0.4,1,1v7	c0,0.6-0.4,1-1,1h-3c-0.6,0-1-0.4-1-1v-3H9v3C9,41.6,8.6,42,8,42z"/><linearGradient id="SVGID_4_" x1="18.633" x2="29.709" y1="6.633" y2="17.709" gradientUnits="userSpaceOnUse"><stop offset="0" stop-color="#33bef0"/><stop offset="1" stop-color="#0a85d9"/></linearGradient><path fill="url(#SVGID_4_)" d="M25,6c-3.9,0-7,3.1-7,7s3.1,7,7,7s7-3.1,7-7S28.9,6,25,6z"/><path d="M21.9,16.9v-1.5c0-0.5,0.1-0.9,0.2-1.3c0.1-0.3,0.3-0.7,0.6-0.9c0.2-0.3,0.4-0.5,0.7-0.7	c0.2-0.2,0.4-0.3,0.6-0.5c0.2-0.1,0.3-0.2,0.4-0.3c0.1,0,0.1-0.1,0.2-0.1c-0.2,0-0.5,0.2-0.7,0.4l-1.7,1.4v-4l0.5-0.3	c0.7-0.5,1.5-0.7,2.4-0.7c0.4,0,0.8,0.1,1.2,0.2c0.4,0.1,0.7,0.3,1,0.6c0.3,0.3,0.5,0.6,0.7,0.9c0.1,0.3,0.2,0.7,0.2,1.1	c0,0.4-0.1,0.8-0.2,1.1c-0.1,0.3-0.3,0.6-0.5,0.9c-0.1,0.2-0.3,0.3-0.4,0.5h1.1v3.2H21.9z" opacity=".05"/><path d="M22.4,16.4v-1c0-0.4,0.1-0.7,0.2-1.1c0.1-0.3,0.3-0.6,0.5-0.8c0.2-0.2,0.4-0.4,0.6-0.6	c0.2-0.2,0.4-0.3,0.6-0.4c0.2-0.1,0.3-0.2,0.5-0.4c0.1-0.1,0.2-0.2,0.3-0.3c0.1-0.1,0.1-0.2,0.1-0.2c0-0.1,0-0.1,0-0.2	c0-0.1,0-0.2-0.1-0.2c0,0-0.1-0.1-0.4-0.1c-0.4,0-0.8,0.2-1.2,0.5l-0.8,0.7V9.7l0.2-0.1c0.6-0.4,1.3-0.6,2.1-0.6	c0.4,0,0.7,0.1,1,0.1c0.3,0.1,0.6,0.3,0.8,0.5c0.2,0.2,0.4,0.5,0.5,0.7c0.1,0.3,0.2,0.6,0.2,0.9c0,0.4-0.1,0.7-0.2,1	c-0.1,0.3-0.3,0.5-0.4,0.7c-0.2,0.2-0.4,0.4-0.6,0.6c-0.2,0.2-0.4,0.3-0.6,0.5c-0.1,0.1-0.2,0.1-0.3,0.2h2.1v2.2H22.4z" opacity=".07"/><path fill="#fff" d="M24.4,14.7h2.7v1.2h-4.2v-0.5c0-0.3,0.1-0.6,0.2-0.9c0.1-0.3,0.2-0.5,0.4-0.7c0.2-0.2,0.3-0.4,0.5-0.5	c0.2-0.2,0.4-0.3,0.6-0.4c0.2-0.1,0.3-0.3,0.5-0.4s0.3-0.2,0.4-0.4c0.1-0.1,0.2-0.2,0.2-0.4c0-0.1,0.1-0.3,0.1-0.4	c0-0.3-0.1-0.5-0.2-0.6c-0.2-0.1-0.4-0.2-0.7-0.2c-0.5,0-1.1,0.2-1.6,0.6V10c0.5-0.4,1.2-0.5,1.9-0.5c0.3,0,0.6,0,0.9,0.1	c0.3,0.1,0.5,0.2,0.6,0.4s0.3,0.3,0.4,0.6c0.1,0.2,0.1,0.5,0.1,0.7c0,0.3,0,0.5-0.1,0.8c-0.1,0.2-0.2,0.4-0.4,0.6	c-0.1,0.2-0.3,0.4-0.5,0.5c-0.2,0.2-0.4,0.3-0.6,0.4c-0.1,0.1-0.3,0.2-0.4,0.3c-0.1,0.1-0.2,0.2-0.3,0.3c-0.1,0.1-0.2,0.2-0.2,0.3	S24.4,14.6,24.4,14.7z"/></svg>