<svg xmlns="http://www.w3.org/2000/svg" viewBox="0 0 48 48"><linearGradient id="8KGYC_~GZQLbzly83OR0ja" x1="26.855" x2="38.828" y1="4.428" y2="16.401" gradientUnits="userSpaceOnUse"><stop offset="0" stop-color="#eba84b"/><stop offset=".255" stop-color="#e8a044"/><stop offset=".641" stop-color="#e18b30"/><stop offset="1" stop-color="#d97218"/></linearGradient><polygon fill="url(#8KGYC_~GZQLbzly83OR0ja)" points="32.385,12.786 35.213,9.958 38.042,12.786 35.213,15.615"/><linearGradient id="8KGYC_~GZQLbzly83OR0jb" x1="13.42" x2="25.393" y1="17.862" y2="29.835" gradientUnits="userSpaceOnUse"><stop offset="0" stop-color="#eba84b"/><stop offset=".255" stop-color="#e8a044"/><stop offset=".641" stop-color="#e18b30"/><stop offset="1" stop-color="#d97218"/></linearGradient><polygon fill="url(#8KGYC_~GZQLbzly83OR0jb)" points="32.386,12.786 35.214,15.614 12.587,39.656 9.758,38.242 8.344,35.413"/><linearGradient id="8KGYC_~GZQLbzly83OR0jc" x1="30.456" x2="42.428" y1=".827" y2="12.8" gradientUnits="userSpaceOnUse"><stop offset="0" stop-color="#eba84b"/><stop offset=".255" stop-color="#e8a044"/><stop offset=".641" stop-color="#e18b30"/><stop offset="1" stop-color="#d97218"/></linearGradient><path fill="url(#8KGYC_~GZQLbzly83OR0jc)" d="M41,7c-1.5-1.5-3-2.5-3.75-1.75c-0.5,0.5-0.288,2.962-2.035,4.708l2.828,2.828	c1.746-1.746,4.207-1.536,4.707-2.036C43.5,10,42.5,8.5,41,7z"/><linearGradient id="8KGYC_~GZQLbzly83OR0jd" x1="5.204" x2="11.601" y1="36.904" y2="43.3" gradientUnits="userSpaceOnUse"><stop offset="0" stop-color="#eba84b"/><stop offset=".255" stop-color="#e8a044"/><stop offset=".641" stop-color="#e18b30"/><stop offset="1" stop-color="#d97218"/></linearGradient><path fill="url(#8KGYC_~GZQLbzly83OR0jd)" d="M8.765,43H8.62c-0.525,0-1.029-0.209-1.4-0.58l-1.64-1.64C5.209,40.408,5,39.904,5,39.38	v-0.145c0-1.125,0.636-2.153,1.641-2.656L7.8,36l4.2,4.2l-0.579,1.158C10.918,42.364,9.889,43,8.765,43z"/><linearGradient id="8KGYC_~GZQLbzly83OR0je" x1="13.022" x2="23.351" y1="26.022" y2="36.351" gradientUnits="userSpaceOnUse"><stop offset="0" stop-color="#f5b967"/><stop offset="1" stop-color="#eba84b"/></linearGradient><path fill="url(#8KGYC_~GZQLbzly83OR0je)" d="M18.28,33.563l-3.807-3.806c-0.631-0.631-0.631-1.654,0-2.283l0,0	c0.631-0.631,1.654-0.631,2.283,0l3.807,3.807c0.631,0.631,0.631,1.654,0,2.283l0,0C19.932,34.193,18.91,34.193,18.28,33.563z"/><linearGradient id="8KGYC_~GZQLbzly83OR0jf" x1="29.022" x2="39.351" y1="10.022" y2="20.351" gradientUnits="userSpaceOnUse"><stop offset="0" stop-color="#f5b967"/><stop offset="1" stop-color="#eba84b"/></linearGradient><path fill="url(#8KGYC_~GZQLbzly83OR0jf)" d="M34.232,16.696l-2.928-2.928c-0.405-0.405-0.405-1.06,0-1.464l0,0	c0.405-0.405,1.06-0.405,1.464,0l2.928,2.928c0.405,0.405,0.405,1.06,0,1.464l0,0C35.292,17.1,34.636,17.1,34.232,16.696z"/><path fill="#5c2415" d="M15.707,32.293c-0.391-0.391-1.024-0.391-1.414,0l-1.414,1.414v0.001l-0.001-0.001l-1.335,1.335	l1.414,1.414l1.335-1.335l0,0h0.001l1.414-1.414C16.098,33.317,16.098,32.684,15.707,32.293z"/><linearGradient id="8KGYC_~GZQLbzly83OR0jg" x1="6.021" x2="16.351" y1="33.022" y2="43.351" gradientUnits="userSpaceOnUse"><stop offset="0" stop-color="#f5b967"/><stop offset="1" stop-color="#eba84b"/></linearGradient><path fill="url(#8KGYC_~GZQLbzly83OR0jg)" d="M8.916,34.332l4.753,4.753c0.438,0.438,0.438,1.147,0,1.584l0,0	c-0.438,0.438-1.147,0.438-1.584,0l-4.753-4.752c-0.438-0.438-0.438-1.147,0-1.584l0,0C7.769,33.895,8.478,33.895,8.916,34.332z"/><circle cx="23" cy="25" r="1" fill="#5c2415"/><circle cx="26.011" cy="21.989" r=".989" fill="#5c2415"/><circle cx="20.5" cy="27.5" r=".5" fill="#5c2415"/><circle cx="29" cy="19" r="1" fill="#5c2415"/><circle cx="31.5" cy="16.5" r=".5" fill="#5c2415"/><linearGradient id="8KGYC_~GZQLbzly83OR0jh" x1="32.022" x2="42.351" y1="7.022" y2="17.351" gradientUnits="userSpaceOnUse"><stop offset="0" stop-color="#f5b967"/><stop offset="1" stop-color="#eba84b"/></linearGradient><path fill="url(#8KGYC_~GZQLbzly83OR0jh)" d="M37.232,13.696l-2.928-2.928c-0.405-0.405-0.405-1.06,0-1.464l0,0	c0.405-0.405,1.06-0.405,1.464,0l2.928,2.928c0.405,0.405,0.405,1.06,0,1.464l0,0C38.292,14.101,37.637,14.101,37.232,13.696z"/></svg>