<svg xmlns="http://www.w3.org/2000/svg" viewBox="0 0 48 48"><linearGradient id="iA_uvn7IVjL0MCJt3Mwzea" x1="34.454" x2="17.372" y1="43.454" y2="26.372" gradientUnits="userSpaceOnUse"><stop offset=".365" stop-color="#199ae0"/><stop offset=".699" stop-color="#1898de"/><stop offset=".819" stop-color="#1691d8"/><stop offset=".905" stop-color="#1186cc"/><stop offset=".974" stop-color="#0a75bc"/><stop offset="1" stop-color="#076cb3"/></linearGradient><path fill="url(#iA_uvn7IVjL0MCJt3Mwzea)" d="M9.58,25.401L28.599,44.42c0.774,0.774,2.028,0.774,2.802,0l4.019-4.019	c0.774-0.774,0.774-2.028,0-2.802L16.401,18.58c-0.774-0.774-2.028-0.774-2.802,0L9.58,22.599	C8.807,23.373,8.807,24.627,9.58,25.401z"/><linearGradient id="iA_uvn7IVjL0MCJt3Mwzeb" x1="11.719" x2="33.715" y1="27.281" y2="5.285" gradientUnits="userSpaceOnUse"><stop offset="0" stop-color="#32bdef"/><stop offset="1" stop-color="#1ea2e4"/></linearGradient><path fill="url(#iA_uvn7IVjL0MCJt3Mwzeb)" d="M16.401,29.42L35.42,10.401c0.774-0.774,0.774-2.028,0-2.802L31.401,3.58	c-0.774-0.774-2.028-0.774-2.802,0L9.58,22.599c-0.774,0.774-0.774,2.028,0,2.802l4.019,4.019	C14.373,30.193,15.627,30.193,16.401,29.42z"/></svg>