<svg xmlns="http://www.w3.org/2000/svg" xmlns:xlink="http://www.w3.org/1999/xlink" data-name="Слой 1" viewBox="0 0 48 48"><defs><linearGradient id="fCheyBLvIQEE2rqlXaUo6a" x1="10.215" x2="35.911" y1="6.35" y2="32.046" data-name="Безымянный градиент 99" gradientUnits="userSpaceOnUse"><stop offset="0" stop-color="#d39239"/><stop offset="1" stop-color="#c36511"/></linearGradient><linearGradient id="fCheyBLvIQEE2rqlXaUo6b" x1="-1.987" x2="23.709" y1="18.552" y2="44.248" xlink:href="#fCheyBLvIQEE2rqlXaUo6a"/></defs><path fill="url(#fCheyBLvIQEE2rqlXaUo6a)" d="M13,32.25l-.76721,2.877a2.00007,2.00007,0,0,0,.26837,1.62473l.90511,1.35765A2,2,0,0,0,15.07037,39h4.51542a1,1,0,0,1,.7071.29289l.97079.97079a2,2,0,0,0,1.76179.55536l13.43584-2.724a2,2,0,0,0,.954-.451l5.88626-5.04537A2,2,0,0,0,44,31.08013V26.60555a2,2,0,0,0-.3359-1.1094l-1.20935-1.814a1,1,0,0,1,.12494-1.26181l.83452-.83452A2,2,0,0,0,44,20.17157V17.82843a2,2,0,0,0-.58579-1.41422l-1.12132-1.12132A1,1,0,0,1,42,14.58579V12.07037a2,2,0,0,0-.8906-1.6641l-1.6641-1.1094A1,1,0,0,1,39,8.46482V7.33939A2,2,0,0,0,37.7615,5.49L34.75,4.25Z"/><path fill="#d39239" d="M32.60555,4h1.15838a2,2,0,0,1,1.78886,1.10557l.23606.47214A2,2,0,0,1,36,6.47214v3.69943a2,2,0,0,1-.58579,1.41422l-.12132.12132A1,1,0,0,0,35,12.41421v1.17158a1,1,0,0,0,.29289.7071l1.12132,1.12132A2,2,0,0,1,37,16.82843v4.99476a2,2,0,0,1-1.02871,1.74832l-7.45693,4.14274A1,1,0,0,0,28,28.5884v1.90873a.93961.93961,0,0,1-.41841.78181s-1.81733.80946-2.1845.94715l-7.05751,2.64657A2,2,0,0,1,17.63733,35h-1.8089a2,2,0,0,1-1.41422-.58579l-.82842-.82842A2,2,0,0,1,13,32.17157V30.24621a2,2,0,0,0-.05971-.48507L12.3137,27.2548a4,4,0,0,1,.16666-2.45571L13.857,21.35762A2,2,0,0,0,14,20.61484v-6.875a2,2,0,0,1,.48149-1.30158l4.91987-5.73985A2,2,0,0,1,20.91987,6h7.47458a2,2,0,0,0,1.1094-.3359l1.9923-1.3282A2,2,0,0,1,32.60555,4Z"/><path fill="#c36511" d="M18.10127,13.32379l.52707-1.55914a1.95427,1.95427,0,0,1,.9896-1.12511l2.9088-1.43411A1.9962,1.9962,0,0,1,23.40927,9h.14009a1.97124,1.97124,0,0,1,1.87213,1.33054l.48866,1.44551a.99787.99787,0,0,0,.245.39088l.26686.26314A1.93219,1.93219,0,0,1,27,13.806v.25875a1.93583,1.93583,0,0,1-.74063,1.51948L22.46981,18.5736A1.991,1.991,0,0,1,21.237,19h0a1.97343,1.97343,0,0,1-1.83226-1.2232l-1.26363-3.115A1.9205,1.9205,0,0,1,18.10127,13.32379Z"/><path fill="#c36511" d="M28,20.69722V19.33333a1.04086,1.04086,0,0,1,.18849-.6L29.13091,17.4a.9253.9253,0,0,1,.75395-.4h.36a.93835.93835,0,0,1,.84294.55279l.506.70284a.94612.94612,0,0,0,.45088.34162l.31076.10991a1.01122,1.01122,0,0,1,.61627,1.19122l-.98718,3.41785A.949.949,0,0,1,31.09045,24h-.70122a.92923.92923,0,0,1-.78415-.4453l-1.4468-2.30278A1.044,1.044,0,0,1,28,20.69722Z"/><path fill="url(#fCheyBLvIQEE2rqlXaUo6b)" d="M24,32.82843v6.19725a2,2,0,0,1-.76722,1.57488l-3.79967,2.97432A2.00007,2.00007,0,0,1,18.20032,44H9a2,2,0,0,1-1.6-.8l-2-2.66667a2,2,0,0,1-.4-1.2V38l1-3.75L14.25,28,19,25.75l1.09.25,1.115.58378a2,2,0,0,1,1.01261,1.28677l.71518,2.86074a1,1,0,0,0,.263.46457l.21835.21835A2,2,0,0,1,24,32.82843Z"/><path fill="#d39239" d="M21,29.29665v2.87492a2,2,0,0,1-.58579,1.41422l-.29946.29946a.99978.99978,0,0,0-.18732.2599l-1.37464,2.74928A2,2,0,0,1,16.76393,38H14.88478a2,2,0,0,0-1.15337.36606l-3.02029,2.132a1.99115,1.99115,0,0,1-1.55761.32478c-.6958-.14509-1.70163-.35351-2.55037-.52428A1.99848,1.99848,0,0,1,5,38.33778v-.44193A2.05239,2.05239,0,0,0,4.435,36.418L3.565,35.522A2,2,0,0,1,3,34.12883v-4.389a2,2,0,0,1,.48149-1.30158L8.31174,22.803a2,2,0,0,1,1.73937-.68618l7.04729.783a2,2,0,0,1,1.42016.84451l1.39049,1.9959a1.99978,1.99978,0,0,1,.27287.56273l.732,2.41316A1.99974,1.99974,0,0,1,21,29.29665Z"/><path fill="#c36511" d="M12,32.30278v1.36389a1.04086,1.04086,0,0,1-.18849.6L10.86909,35.6a.9253.9253,0,0,1-.75395.4h-.36a.93835.93835,0,0,1-.84294-.55279l-.506-.70284a.94612.94612,0,0,0-.45088-.34162l-.31076-.10991a1.01122,1.01122,0,0,1-.61627-1.19122l.98718-3.41785A.949.949,0,0,1,8.90955,29h.70122a.92923.92923,0,0,1,.78415.4453l1.4468,2.30278A1.044,1.044,0,0,1,12,32.30278Z"/><path fill="#c36511" d="M17.955,30.27048l-.23425.62366a.81435.81435,0,0,1-.43982.45l-1.2928.57365A.96919.96919,0,0,1,15.59588,32h-.06226a.87478.87478,0,0,1-.83206-.53221l-.21718-.57821a.3959.3959,0,0,0-.10889-.15635l-.1186-.10526A.73674.73674,0,0,1,14,30.0776v-.10351a.749.749,0,0,1,.32917-.60778l1.68425-1.19575A.94917.94917,0,0,1,16.56132,28h0a.88294.88294,0,0,1,.81434.48928l.56161,1.246A.69665.69665,0,0,1,17.955,30.27048Z"/><path d="M24.12,30.71l-.22-.22-.71-2.86a2.98829,2.98829,0,0,0-1.52-1.93l-.9-.47c-.01-.02-.03-.04-.04-.06l-1.39-2a2.98212,2.98212,0,0,0-2.13-1.26l-3.42-.38-.19.48-.19.48,3.69.41a1.999,1.999,0,0,1,1.42.84l1.39,2a1.92168,1.92168,0,0,1,.12006.25l.06.01,1.12.58A2.04727,2.04727,0,0,1,22.22,27.87l.71,2.86a1.05656,1.05656,0,0,0,.27.47l.21.21A2.00616,2.00616,0,0,1,24,32.83v6.2a1.98477,1.98477,0,0,1-.77,1.57l-.29.23a.27854.27854,0,0,0,.09-.00995l.87-.18.71-.14A2.88728,2.88728,0,0,0,25,39.03v-6.2A2.95573,2.95573,0,0,0,24.12,30.71Z" opacity=".05"/><path d="M23.77,31.06l-.22-.22a.4784.4784,0,0,1-.13-.23l-.72-2.86a2.4945,2.4945,0,0,0-1.26-1.61L20.4,25.6a1.09824,1.09824,0,0,0-.08-.15l-1.39-1.99a2.50924,2.50924,0,0,0-1.78-1.06L13.6,22.01l-.19.48,3.69.41a1.999,1.999,0,0,1,1.42.84l1.39,2a1.92168,1.92168,0,0,1,.12006.25l.06.01,1.12.58A2.04727,2.04727,0,0,1,22.22,27.87l.71,2.86a1.05656,1.05656,0,0,0,.27.47l.21.21A2.00616,2.00616,0,0,1,24,32.83v6.2a1.98477,1.98477,0,0,1-.77,1.57l-.29.23a.27854.27854,0,0,0,.09-.00995l.87-.18a2.41474,2.41474,0,0,0,.6-1.61v-6.2A2.48815,2.48815,0,0,0,23.77,31.06Z" opacity=".07"/></svg>