<svg xmlns="http://www.w3.org/2000/svg" viewBox="0 0 48 48"><linearGradient id="cd7gfTqD5WitZA3x4nTlPa" x1="16.86" x2="29.576" y1="1.533" y2="41.546" gradientUnits="userSpaceOnUse"><stop offset="0" stop-color="#c77740"/><stop offset="1" stop-color="#b0622b"/></linearGradient><path fill="url(#cd7gfTqD5WitZA3x4nTlPa)" d="M38,4H26c0,1.105-0.895,2-2,2s-2-0.895-2-2H10C8.895,4,8,4.895,8,6v36c0,1.105,0.895,2,2,2h28	c1.105,0,2-0.895,2-2V6C40,4.895,39.105,4,38,4z"/><linearGradient id="cd7gfTqD5WitZA3x4nTlPb" x1="24" x2="24" y1="36.966" y2="40.893" gradientUnits="userSpaceOnUse"><stop offset=".442" stop-color="#878786"/><stop offset=".594" stop-color="#9f9f9e"/><stop offset=".859" stop-color="#c3c3c3"/><stop offset="1" stop-color="#d1d1d1"/></linearGradient><path fill="url(#cd7gfTqD5WitZA3x4nTlPb)" d="M37,42H11c-0.552,0-1-0.448-1-1v-9h28v9C38,41.552,37.552,42,37,42z"/><path fill="#f3f3f3" d="M37,40H11c-0.552,0-1-0.448-1-1V7c0-0.552,0.448-1,1-1h26c0.552,0,1,0.448,1,1v32	C38,39.552,37.552,40,37,40z"/><linearGradient id="cd7gfTqD5WitZA3x4nTlPc" x1="159.07" x2="160.954" y1="-812.928" y2="-805.091" gradientTransform="rotate(180 92 -401.5)" gradientUnits="userSpaceOnUse"><stop offset="0" stop-color="#c3cdd9"/><stop offset="1" stop-color="#9fa7b0"/></linearGradient><path fill="url(#cd7gfTqD5WitZA3x4nTlPc)" d="M31,8V4h-4.184C26.403,2.837,25.304,2,24,2s-2.403,0.837-2.816,2H17v4c0,0.552,0.448,1,1,1h12	C30.552,9,31,8.552,31,8z M24,4c0.552,0,1,0.448,1,1c0,0.552-0.448,1-1,1s-1-0.448-1-1C23,4.448,23.448,4,24,4z"/><path fill="#35c1f1" d="M26,12.5V21h-3v-8.5c0-0.276,0.224-0.5,0.5-0.5h2C25.776,12,26,12.224,26,12.5z"/><path fill="#199be2" d="M23,14v7h-3v-6.5c0-0.276,0.224-0.5,0.5-0.5H23z"/><path fill="#0078d4" d="M20,16v5h-3v-4.5c0-0.276,0.224-0.5,0.5-0.5H20z"/><path fill="#0d62ab" d="M17,18v3h-3v-2.5c0-0.276,0.224-0.5,0.5-0.5H17z"/><path fill="#d35230" d="M15,31c0,2.761,2.239,5,5,5s5-2.239,5-5h-5H15z"/><path fill="#ff8f6b" d="M20,26v5h5C25,28.239,22.761,26,20,26z"/><path fill="#ed6c47" d="M20,26c-2.761,0-5,2.239-5,5h5V26z"/><path d="M40,22H29c-1.105,0-2,0.895-2,2v18c0,1.105,0.895,2,2,2h11V22z" opacity=".05"/><path d="M40,23H29.5c-0.828,0-1.5,0.672-1.5,1.5v18c0,0.828,0.672,1.5,1.5,1.5H40V23z" opacity=".07"/><linearGradient id="cd7gfTqD5WitZA3x4nTlPd" x1="29.591" x2="42.928" y1="24.439" y2="42.896" gradientUnits="userSpaceOnUse"><stop offset="0" stop-color="#899198"/><stop offset="1" stop-color="#787e85"/></linearGradient><path fill="url(#cd7gfTqD5WitZA3x4nTlPd)" d="M43,24H30c-0.552,0-1,0.448-1,1v18c0,0.552,0.448,1,1,1h13c0.552,0,1-0.448,1-1V25	C44,24.448,43.552,24,43,24z"/><linearGradient id="cd7gfTqD5WitZA3x4nTlPe" x1="32.248" x2="41.669" y1="25.53" y2="29.894" gradientUnits="userSpaceOnUse"><stop offset="0" stop-color="#4fe5ff"/><stop offset="1" stop-color="#2eb7ed"/></linearGradient><path fill="url(#cd7gfTqD5WitZA3x4nTlPe)" d="M41.5,29h-10c-0.276,0-0.5-0.224-0.5-0.5v-2c0-0.276,0.224-0.5,0.5-0.5h10	c0.276,0,0.5,0.224,0.5,0.5v2C42,28.776,41.776,29,41.5,29z"/><path fill="#cad2d9" d="M37.5,34h-2c-0.276,0-0.5-0.224-0.5-0.5v-2c0-0.276,0.224-0.5,0.5-0.5h2c0.276,0,0.5,0.224,0.5,0.5v2	C38,33.776,37.776,34,37.5,34z"/><path fill="#cad2d9" d="M33.5,34h-2c-0.276,0-0.5-0.224-0.5-0.5v-2c0-0.276,0.224-0.5,0.5-0.5h2c0.276,0,0.5,0.224,0.5,0.5v2	C34,33.776,33.776,34,33.5,34z"/><path fill="#cad2d9" d="M37.5,38h-2c-0.276,0-0.5-0.224-0.5-0.5v-2c0-0.276,0.224-0.5,0.5-0.5h2c0.276,0,0.5,0.224,0.5,0.5v2	C38,37.776,37.776,38,37.5,38z"/><path fill="#cad2d9" d="M33.5,38h-2c-0.276,0-0.5-0.224-0.5-0.5v-2c0-0.276,0.224-0.5,0.5-0.5h2c0.276,0,0.5,0.224,0.5,0.5v2	C34,37.776,33.776,38,33.5,38z"/><path fill="#cad2d9" d="M37.5,42h-2c-0.276,0-0.5-0.224-0.5-0.5v-2c0-0.276,0.224-0.5,0.5-0.5h2c0.276,0,0.5,0.224,0.5,0.5v2	C38,41.776,37.776,42,37.5,42z"/><path fill="#cad2d9" d="M33.5,42h-2c-0.276,0-0.5-0.224-0.5-0.5v-2c0-0.276,0.224-0.5,0.5-0.5h2c0.276,0,0.5,0.224,0.5,0.5v2	C34,41.776,33.776,42,33.5,42z"/><path fill="#cad2d9" d="M41.5,34h-2c-0.276,0-0.5-0.224-0.5-0.5v-2c0-0.276,0.224-0.5,0.5-0.5h2c0.276,0,0.5,0.224,0.5,0.5v2	C42,33.776,41.776,34,41.5,34z"/><linearGradient id="cd7gfTqD5WitZA3x4nTlPf" x1="40.5" x2="40.5" y1="35.275" y2="41.821" gradientUnits="userSpaceOnUse"><stop offset="0" stop-color="#11498a"/><stop offset="1" stop-color="#0f417a"/></linearGradient><path fill="url(#cd7gfTqD5WitZA3x4nTlPf)" d="M41.5,42h-2c-0.276,0-0.5-0.224-0.5-0.5v-6c0-0.276,0.224-0.5,0.5-0.5h2	c0.276,0,0.5,0.224,0.5,0.5v6C42,41.776,41.776,42,41.5,42z"/><path fill="#e0e0e0" d="M33.5,17h-5c-0.276,0-0.5-0.224-0.5-0.5v-1c0-0.276,0.224-0.5,0.5-0.5h5c0.276,0,0.5,0.224,0.5,0.5v1	C34,16.776,33.776,17,33.5,17z"/><path fill="#e0e0e0" d="M33.5,21h-5c-0.276,0-0.5-0.224-0.5-0.5v-1c0-0.276,0.224-0.5,0.5-0.5h5c0.276,0,0.5,0.224,0.5,0.5v1	C34,20.776,33.776,21,33.5,21z"/></svg>