<svg xmlns="http://www.w3.org/2000/svg" xmlns:xlink="http://www.w3.org/1999/xlink" data-name="Layer 1" viewBox="0 0 48 48"><defs><linearGradient id="mF9pf00t1I1XqmiY28Wl5a" x1="24" x2="24" y1="44.408" y2="27.326" gradientUnits="userSpaceOnUse"><stop offset="0" stop-color="#ffcf7b"/><stop offset=".196" stop-color="#fecd76"/><stop offset=".439" stop-color="#fac666"/><stop offset=".709" stop-color="#f3bc4d"/><stop offset=".995" stop-color="#eaad2a"/><stop offset="1" stop-color="#eaad29"/></linearGradient><linearGradient id="mF9pf00t1I1XqmiY28Wl5b" x1="24" x2="24" y1="45.908" y2="31.63" data-name="Безымянный градиент 111" gradientUnits="userSpaceOnUse"><stop offset="0" stop-color="#eba84b"/><stop offset=".255" stop-color="#e8a044"/><stop offset=".641" stop-color="#e18b30"/><stop offset="1" stop-color="#d97218"/></linearGradient><linearGradient id="mF9pf00t1I1XqmiY28Wl5c" x1="24" x2="24" y1="38.082" y2="27.842" data-name="Безымянный градиент 105" gradientUnits="userSpaceOnUse"><stop offset="0" stop-color="#f44f5a"/><stop offset=".443" stop-color="#ee3d4a"/><stop offset="1" stop-color="#e52030"/></linearGradient><linearGradient id="mF9pf00t1I1XqmiY28Wl5d" x1="24" x2="24" y1="31.43" y2="18.712" data-name="Безымянный градиент 23" gradientUnits="userSpaceOnUse"><stop offset="0" stop-color="#33c481"/><stop offset=".22" stop-color="#27ac6c"/><stop offset=".521" stop-color="#1b9255"/><stop offset=".791" stop-color="#138247"/><stop offset="1" stop-color="#107c42"/></linearGradient><linearGradient id="mF9pf00t1I1XqmiY28Wl5e" x1="18.07" x2="27.396" y1="10.525" y2="29.177" xlink:href="#mF9pf00t1I1XqmiY28Wl5a"/></defs><path fill="url(#mF9pf00t1I1XqmiY28Wl5a)" d="M44,31.01654c0-7.732-8.95431-17-20-17s-20,9.268-20,17,8.95431,11,20,11S44,38.74853,44,31.01654Z"/><path fill="url(#mF9pf00t1I1XqmiY28Wl5b)" d="M41,29.37369c0-6.07514-7.61116-13.35715-17-13.35715S7,23.29855,7,29.37369s7.61116,8.64285,17,8.64285S41,35.44882,41,29.37369Z"/><path fill="url(#mF9pf00t1I1XqmiY28Wl5c)" d="M39,26.94512c0-4.97057-6.71573-10.92858-15-10.92858S9,21.97455,9,26.94512s6.71573,7.07142,15,7.07142S39,31.91568,39,26.94512Z"/><path fill="url(#mF9pf00t1I1XqmiY28Wl5d)" d="M37,19.01654a4.97985,4.97985,0,0,0-3.5,1.43518,4.95192,4.95192,0,0,0-6.5-.41253,4.91166,4.91166,0,0,0-6,0,4.95192,4.95192,0,0,0-6.5.41253,5,5,0,1,0,0,7.12964,4.95193,4.95193,0,0,0,6.5.41254,4.9117,4.9117,0,0,0,6,0,4.95193,4.95193,0,0,0,6.5-.41254A4.99826,4.99826,0,1,0,37,19.01654Z"/><path fill="url(#mF9pf00t1I1XqmiY28Wl5e)" d="M24,11.01654h0c-11,0-21,5-21,12H3a2,2,0,0,0,2,2H43a2,2,0,0,0,2-2h0C45,16.01654,35,11.01654,24,11.01654Z"/></svg>