<svg xmlns="http://www.w3.org/2000/svg" viewBox="0 0 48 48"><path fill="#ff8f6b" d="M39.66,7.938c-3.466-3.259-9.071-3.194-12.465,0.14c-1.542,1.514-2.421,3.444-2.639,5.432	c-0.305,2.786-1.471,5.405-3.453,7.387L19.5,22.5l6,6l1.604-1.604c1.944-1.944,4.496-3.183,7.235-3.437	c2.016-0.187,3.982-1.052,5.526-2.596C43.445,17.282,43.377,11.433,39.66,7.938z"/><linearGradient id="clMz_CFJ00RInVYb9Tinda" x1="5" x2="22" y1="34.5" y2="34.5" gradientUnits="userSpaceOnUse"><stop offset="0" stop-color="#1d59b3"/><stop offset="1" stop-color="#195bbc"/></linearGradient><path fill="url(#clMz_CFJ00RInVYb9Tinda)" d="M13.5,43C8.813,43,5,39.187,5,34.5S8.813,26,13.5,26s8.5,3.813,8.5,8.5S18.187,43,13.5,43z M13.5,28C9.916,28,7,30.916,7,34.5S9.916,41,13.5,41s6.5-2.916,6.5-6.5S17.084,28,13.5,28z"/><linearGradient id="clMz_CFJ00RInVYb9Tindb" x1="9.344" x2="18.643" y1="30.831" y2="30.831" gradientTransform="rotate(45.001 62.65 -21.745) scale(4.8334 1.528)" gradientUnits="userSpaceOnUse"><stop offset="0" stop-color="#3079d6"/><stop offset="1" stop-color="#297cd2"/></linearGradient><path fill="url(#clMz_CFJ00RInVYb9Tindb)" d="M13.589,30.375l4.036,4.036c0.586,0.565,1.433,0.747,2.179,0.444L24,33.18l-9.182-9.182	l-1.673,4.197C12.843,28.942,13.024,29.789,13.589,30.375z"/><linearGradient id="clMz_CFJ00RInVYb9Tindc" x1="21.5" x2="21.5" y1="37.905" y2="16.15" gradientUnits="userSpaceOnUse"><stop offset="0" stop-color="#42a3f2"/><stop offset="1" stop-color="#42a4eb"/></linearGradient><path fill="url(#clMz_CFJ00RInVYb9Tindc)" d="M32.121,32.879c-0.586-0.586-16.414-16.414-17-17c-1.172-1.172-3.071-1.172-4.243,0	s-1.172,3.071,0,4.243c0.586,0.586,16.414,16.414,17,17c1.172,1.172,3.071,1.172,4.243,0C33.293,35.95,33.293,34.05,32.121,32.879z"/></svg>