<svg xmlns="http://www.w3.org/2000/svg" viewBox="0 0 48 48"><path fill="#50e6ff" d="M4,38V15h40v23c0,1.1-0.9,2-2,2H6C4.9,40,4,39.1,4,38z"/><linearGradient id="7eWTrmKzdL8zSg5Auf1_ma" x1="4.614" x2="42.936" y1="-198.259" y2="-190.467" gradientTransform="translate(0 206)" gradientUnits="userSpaceOnUse"><stop offset="0" stop-color="#0077d2"/><stop offset="1" stop-color="#0b59a2"/></linearGradient><path fill="url(#7eWTrmKzdL8zSg5Auf1_ma)" d="M44,10v5H4v-5c0-1.1,0.9-2,2-2h36C43.1,8,44,8.9,44,10z"/><linearGradient id="7eWTrmKzdL8zSg5Auf1_mb" x1="6.751" x2="8.032" y1="-195.584" y2="-193.731" gradientTransform="translate(0 206)" gradientUnits="userSpaceOnUse"><stop offset="0" stop-color="#75daff"/><stop offset="1" stop-color="#49bef1"/></linearGradient><circle cx="7.5" cy="11.5" r="1.5" fill="url(#7eWTrmKzdL8zSg5Auf1_mb)"/><path d="M43.838,31.5h-0.006c-0.24-0.333-0.498-0.646-0.771-0.939L44,29.621v-2.239	C43.725,27.135,43.373,27,43,27c-0.4,0-0.777,0.156-1.061,0.439l-1.3,1.299C39.645,28.248,38.59,28,37.5,28s-2.145,0.248-3.14,0.738	l-1.3-1.299C32.777,27.156,32.4,27,32,27s-0.777,0.156-1.061,0.439s-0.438,0.659-0.438,1.061s0.155,0.777,0.438,1.061l1,1	c-0.273,0.293-0.531,0.606-0.771,0.939h-0.026l-0.294,0.459c-0.239,0.37-0.46,0.764-0.657,1.174l-1.059-0.494	C28.933,32.547,28.72,32.5,28.5,32.5c-0.582,0-1.116,0.341-1.359,0.867c-0.17,0.364-0.188,0.773-0.049,1.149	c0.139,0.377,0.414,0.677,0.775,0.843l1.375,0.642c-0.129,0.653-0.207,1.323-0.232,1.999H27.5c-0.827,0-1.5,0.673-1.5,1.5	c0,0.175,0.031,0.344,0.086,0.5H42c1.1,0,2-0.9,2-2v-6.264L43.838,31.5z" opacity=".05"/><path d="M44,38v-5.33c-0.086-0.15-0.175-0.297-0.268-0.44L43.577,32h-0.005	c-0.365-0.534-0.772-1.017-1.216-1.442l1.351-1.351c0.39-0.39,0.39-1.024,0-1.414C43.519,27.604,43.267,27.5,43,27.5	s-0.519,0.104-0.707,0.293l-1.56,1.559C39.715,28.786,38.628,28.5,37.5,28.5s-2.215,0.286-3.233,0.852l-1.56-1.559	C32.519,27.604,32.267,27.5,32,27.5s-0.519,0.104-0.707,0.293c-0.39,0.39-0.39,1.024,0,1.414l1.351,1.351	C32.2,30.983,31.793,31.466,31.428,32h-0.013l-0.147,0.229c-0.315,0.489-0.594,1.016-0.831,1.57l-1.515-0.707	C28.789,33.031,28.646,33,28.5,33c-0.388,0-0.744,0.228-0.906,0.578c-0.113,0.243-0.125,0.515-0.032,0.767	c0.092,0.25,0.275,0.45,0.517,0.562l1.736,0.81C29.605,36.618,29.5,37.552,29.5,38.5h-2c-0.552,0-1,0.448-1,1	c0,0.182,0.049,0.353,0.134,0.5H42C43.1,40,44,39.1,44,38z" opacity=".07"/><linearGradient id="7eWTrmKzdL8zSg5Auf1_mc" x1="11.751" x2="13.032" y1="-195.584" y2="-193.731" gradientTransform="translate(0 206)" gradientUnits="userSpaceOnUse"><stop offset="0" stop-color="#75daff"/><stop offset="1" stop-color="#49bef1"/></linearGradient><circle cx="12.5" cy="11.5" r="1.5" fill="url(#7eWTrmKzdL8zSg5Auf1_mc)"/><linearGradient id="7eWTrmKzdL8zSg5Auf1_md" x1="16.751" x2="18.032" y1="-195.584" y2="-193.731" gradientTransform="translate(0 206)" gradientUnits="userSpaceOnUse"><stop offset="0" stop-color="#75daff"/><stop offset="1" stop-color="#49bef1"/></linearGradient><circle cx="17.5" cy="11.5" r="1.5" fill="url(#7eWTrmKzdL8zSg5Auf1_md)"/><linearGradient id="7eWTrmKzdL8zSg5Auf1_me" x1="-452.986" x2="-456.295" y1="-465.5" y2="-465.5" gradientTransform="rotate(180 -213 -213)" gradientUnits="userSpaceOnUse"><stop offset="0" stop-color="#6d7479"/><stop offset=".425" stop-color="#565c60"/><stop offset="1" stop-color="#323538"/></linearGradient><path fill="url(#7eWTrmKzdL8zSg5Auf1_me)" d="M27.5,40H32c0.276,0,0.5-0.224,0.5-0.5S32.276,39,32,39h-4.5c-0.276,0-0.5,0.224-0.5,0.5 S27.224,40,27.5,40z"/><linearGradient id="7eWTrmKzdL8zSg5Auf1_mf" x1="79.013" x2="75.705" y1="31.5" y2="31.5" gradientTransform="translate(-31 8)" gradientUnits="userSpaceOnUse"><stop offset="0" stop-color="#6d7479"/><stop offset=".425" stop-color="#565c60"/><stop offset="1" stop-color="#323538"/></linearGradient><path fill="url(#7eWTrmKzdL8zSg5Auf1_mf)" d="M47.5,39H43c-0.276,0-0.5,0.224-0.5,0.5S42.724,40,43,40h4.5c0.276,0,0.5-0.224,0.5-0.5 S47.776,39,47.5,39z"/><linearGradient id="7eWTrmKzdL8zSg5Auf1_mg" x1="46.964" x2="44.333" y1="-459.895" y2="-461.005" gradientTransform="matrix(1 0 0 -1 0 -426)" gradientUnits="userSpaceOnUse"><stop offset="0" stop-color="#6d7479"/><stop offset=".425" stop-color="#565c60"/><stop offset="1" stop-color="#323538"/></linearGradient><path fill="url(#7eWTrmKzdL8zSg5Auf1_mg)" d="M46.711,34.453l-4.078,1.902c-0.25,0.117-0.548,0.008-0.664-0.242 c-0.117-0.25-0.008-0.548,0.242-0.665l4.079-1.902c0.25-0.117,0.548-0.009,0.665,0.242C47.069,34.039,46.962,34.337,46.711,34.453z"/><linearGradient id="7eWTrmKzdL8zSg5Auf1_mh" x1="46.533" x2="44.313" y1="-470.868" y2="-469.588" gradientTransform="matrix(1 0 0 -1 0 -426)" gradientUnits="userSpaceOnUse"><stop offset="0" stop-color="#6d7479"/><stop offset=".425" stop-color="#565c60"/><stop offset="1" stop-color="#323538"/></linearGradient><path fill="url(#7eWTrmKzdL8zSg5Auf1_mh)" d="M46.319,44.398l-3.686-2.581c-0.226-0.159-0.538-0.104-0.697,0.123 c-0.159,0.226-0.104,0.538,0.123,0.696l3.686,2.581c0.226,0.159,0.538,0.104,0.696-0.123S46.546,44.556,46.319,44.398z"/><linearGradient id="7eWTrmKzdL8zSg5Auf1_mi" x1="-454.036" x2="-456.667" y1="-459.895" y2="-461.005" gradientTransform="rotate(180 -213 -213)" gradientUnits="userSpaceOnUse"><stop offset="0" stop-color="#6d7479"/><stop offset=".425" stop-color="#565c60"/><stop offset="1" stop-color="#323538"/></linearGradient><path fill="url(#7eWTrmKzdL8zSg5Auf1_mi)" d="M28.289,34.453l4.079,1.902c0.25,0.117,0.548,0.008,0.664-0.242 c0.117-0.25,0.009-0.548-0.242-0.665l-4.079-1.902c-0.25-0.117-0.548-0.009-0.665,0.242C27.931,34.039,28.038,34.337,28.289,34.453 z"/><linearGradient id="7eWTrmKzdL8zSg5Auf1_mj" x1="-454.466" x2="-456.688" y1="-470.868" y2="-469.588" gradientTransform="rotate(180 -213 -213)" gradientUnits="userSpaceOnUse"><stop offset="0" stop-color="#6d7479"/><stop offset=".425" stop-color="#565c60"/><stop offset="1" stop-color="#323538"/></linearGradient><path fill="url(#7eWTrmKzdL8zSg5Auf1_mj)" d="M28.681,44.398l3.686-2.581c0.226-0.159,0.538-0.104,0.696,0.123 c0.159,0.226,0.104,0.538-0.123,0.696l-3.686,2.581c-0.226,0.159-0.538,0.104-0.697-0.123 C28.399,44.868,28.455,44.556,28.681,44.398z"/><linearGradient id="7eWTrmKzdL8zSg5Auf1_mk" x1="32.029" x2="33.608" y1="-453.856" y2="-456.36" gradientTransform="matrix(1 0 0 -1 0 -426)" gradientUnits="userSpaceOnUse"><stop offset="0" stop-color="#6d7479"/><stop offset=".425" stop-color="#565c60"/><stop offset="1" stop-color="#323538"/></linearGradient><path fill="url(#7eWTrmKzdL8zSg5Auf1_mk)" d="M34.043,31.25l-2.396-2.396c-0.195-0.195-0.195-0.512,0-0.707l0,0 c0.195-0.195,0.512-0.195,0.707,0l2.396,2.396L34.043,31.25z"/><linearGradient id="7eWTrmKzdL8zSg5Auf1_ml" x1="43.165" x2="41.308" y1="-454.063" y2="-456.293" gradientTransform="matrix(1 0 0 -1 0 -426)" gradientUnits="userSpaceOnUse"><stop offset="0" stop-color="#6d7479"/><stop offset=".425" stop-color="#565c60"/><stop offset="1" stop-color="#323538"/></linearGradient><path fill="url(#7eWTrmKzdL8zSg5Auf1_ml)" d="M40.957,31.25l2.396-2.396c0.195-0.195,0.195-0.512,0-0.707l0,0 c-0.195-0.195-0.512-0.195-0.707,0l-2.396,2.396L40.957,31.25z"/><linearGradient id="7eWTrmKzdL8zSg5Auf1_mm" x1="37.5" x2="37.5" y1="-458.565" y2="-473.83" gradientTransform="matrix(1 0 0 -1 0 -426)" gradientUnits="userSpaceOnUse"><stop offset="0" stop-color="#fed100"/><stop offset="1" stop-color="#e36001"/></linearGradient><path fill="url(#7eWTrmKzdL8zSg5Auf1_mm)" d="M31.687,32.5C30.633,34.136,30,36.224,30,38.5c0,5.246,3.358,9.5,7.5,9.5s7.5-4.254,7.5-9.5 c0-2.276-0.633-4.364-1.688-6H31.687z"/><linearGradient id="7eWTrmKzdL8zSg5Auf1_mn" x1="37.5" x2="37.5" y1="-459.622" y2="-474.303" gradientTransform="matrix(1 0 0 -1 0 -426)" gradientUnits="userSpaceOnUse"><stop offset="0" stop-color="#dbb500"/><stop offset=".998" stop-color="#b54c01"/></linearGradient><path fill="url(#7eWTrmKzdL8zSg5Auf1_mn)" d="M37,47.968C37.166,47.982,37.331,48,37.5,48s0.334-0.018,0.5-0.032V33.75h-1V47.968z"/><linearGradient id="7eWTrmKzdL8zSg5Auf1_mo" x1="37.5" x2="37.5" y1="-455.08" y2="-460.658" gradientTransform="matrix(1 0 0 -1 0 -426)" gradientUnits="userSpaceOnUse"><stop offset="0" stop-color="#6d7479"/><stop offset=".512" stop-color="#4d5256"/><stop offset="1" stop-color="#323538"/></linearGradient><path fill="url(#7eWTrmKzdL8zSg5Auf1_mo)" d="M37.5,34.5c2.242,0,4.325-0.581,6.064-1.575C42.201,30.55,39.995,29,37.5,29 s-4.701,1.55-6.064,3.925C33.175,33.919,35.258,34.5,37.5,34.5z"/></svg>