<svg xmlns="http://www.w3.org/2000/svg" viewBox="0 0 48 48"><linearGradient id="ayfyR93P_EfwoNGNtPtqJa" x1="14.5" x2="14.5" y1="4.268" y2="45.342" gradientUnits="userSpaceOnUse"><stop offset="0" stop-color="#7b83eb"/><stop offset="1" stop-color="#5961c3"/></linearGradient><path fill="url(#ayfyR93P_EfwoNGNtPtqJa)" d="M6,10c-0.552,0-1,0.448-1,1c0,0,0,5.856,0,9c0,1.378,0.178,2.712,0.493,4	c2.935,12.007,18.08,19.907,18.08,19.907l0.004-0.008C23.706,43.96,23.847,44,24,44V4C17.278,4,17.122,10,6,10z"/><linearGradient id="ayfyR93P_EfwoNGNtPtqJb" x1="16.541" x2="41.139" y1="3.882" y2="37.903" gradientUnits="userSpaceOnUse"><stop offset="0" stop-color="#7b83eb"/><stop offset="1" stop-color="#5961c3"/></linearGradient><path fill="url(#ayfyR93P_EfwoNGNtPtqJb)" d="M24.427,43.907c0,0,15.144-7.9,18.08-19.907C42.822,22.712,43,21.378,43,20c0-3.144,0-9,0-9	c0-0.552-0.448-1-1-1c-11.122,0-11.278-6-18-6v40c0.153,0,0.294-0.04,0.423-0.102L24.427,43.907z"/><linearGradient id="ayfyR93P_EfwoNGNtPtqJc" x1="33.5" x2="33.5" y1="3.818" y2="46.154" gradientUnits="userSpaceOnUse"><stop offset="0" stop-color="#5c65d6"/><stop offset=".999" stop-color="#464eb0"/></linearGradient><path fill="url(#ayfyR93P_EfwoNGNtPtqJc)" d="M24.427,43.907c0,0,15.144-7.9,18.08-19.907C42.822,22.712,43,21.378,43,20c0-3.144,0-9,0-9	c0-0.552-0.448-1-1-1c-11.122,0-11.278-6-18-6v40c0.153,0,0.294-0.04,0.423-0.102L24.427,43.907z"/><linearGradient id="ayfyR93P_EfwoNGNtPtqJd" x1="15.295" x2="36.897" y1="7.561" y2="36.652" gradientUnits="userSpaceOnUse"><stop offset="0" stop-color="#ec3745"/><stop offset="1" stop-color="#e52030"/></linearGradient><path fill="url(#ayfyR93P_EfwoNGNtPtqJd)" d="M24,8c1.641,0,2.445,0.504,4.266,1.745c2.256,1.538,5.226,3.561,10.734,4.112V20	c0,0.996-0.127,2.022-0.379,3.05c-1.981,8.103-11.075,14.328-14.622,16.487c-1.383-0.842-3.606-2.3-5.922-4.253	c-3.28-2.766-7.451-7.133-8.698-12.234C9.127,22.022,9,20.996,9,20v-6.143c5.508-0.551,8.478-2.574,10.734-4.112	C21.555,8.504,22.359,8,24,8"/><linearGradient id="ayfyR93P_EfwoNGNtPtqJe" x1="11.867" x2="33.321" y1="10.117" y2="39.009" gradientUnits="userSpaceOnUse"><stop offset="0" stop-color="#f44f5a"/><stop offset="1" stop-color="#f0434f"/></linearGradient><path fill="url(#ayfyR93P_EfwoNGNtPtqJe)" d="M24,8l-0.001,31.537c-1.383-0.842-3.606-2.3-5.922-4.253	c-3.28-2.766-7.451-7.133-8.698-12.234C9.127,22.022,9,20.996,9,20v-6.143c5.508-0.551,8.478-2.574,10.734-4.112	C21.555,8.504,22.359,8,24,8"/><rect width="2.828" height="2.828" x="15.586" y="15.586" fill="#fff" transform="rotate(45.001 17 17)"/><linearGradient id="ayfyR93P_EfwoNGNtPtqJf" x1="26" x2="30" y1="31" y2="31" gradientUnits="userSpaceOnUse"><stop offset="0" stop-color="#dfe9f2"/><stop offset=".391" stop-color="#d6e0e9"/><stop offset="1" stop-color="#bfc8d1"/></linearGradient><polygon fill="url(#ayfyR93P_EfwoNGNtPtqJf)" points="28,33 26,31 28,29 30,31"/><path fill="#fff" d="M11.08,27.22c0.473,0.837,1.005,1.642,1.576,2.409L24,25.375v-3L11.08,27.22z"/><linearGradient id="ayfyR93P_EfwoNGNtPtqJg" x1="24" x2="39" y1="21.063" y2="21.063" gradientUnits="userSpaceOnUse"><stop offset="0" stop-color="#dfe9f2"/><stop offset=".391" stop-color="#d6e0e9"/><stop offset="1" stop-color="#bfc8d1"/></linearGradient><polygon fill="url(#ayfyR93P_EfwoNGNtPtqJg)" points="39,16.75 24,22.375 24,25.375 39,19.75"/></svg>