<svg xmlns="http://www.w3.org/2000/svg" id="Layer_1" x="0" y="0" version="1.1" viewBox="0 0 48 48" xml:space="preserve"><linearGradient id="SVGID_1_" x1="354.031" x2="382.11" y1="-228.031" y2="-256.11" gradientTransform="rotate(90 63 -281)" gradientUnits="userSpaceOnUse"><stop offset="0" stop-color="#fede00"/><stop offset=".519" stop-color="#fecc00"/><stop offset="1" stop-color="#ffb700"/></linearGradient><path fill="url(#SVGID_1_)" d="M24,44c11,0,20-9,20-20S35,4,24,4S4,13,4,24S13,44,24,44z"/><path fill="#343434" d="M20,23c-0.3,0-0.7-0.2-0.9-0.5c-0.5-0.9-1.5-1.5-2.6-1.5s-2.1,0.6-2.6,1.5c-0.3,0.5-0.9,0.6-1.4,0.4 c-0.5-0.3-0.6-0.9-0.4-1.4c0.9-1.5,2.6-2.5,4.3-2.5s3.4,1,4.3,2.5c0.3,0.5,0.1,1.1-0.4,1.4C20.3,23,20.1,23,20,23z"/><path fill="#343434" d="M35,23c-0.3,0-0.7-0.2-0.9-0.5c-0.5-0.9-1.5-1.5-2.6-1.5s-2.1,0.6-2.6,1.5c-0.3,0.5-0.9,0.6-1.4,0.4 c-0.5-0.3-0.6-0.9-0.4-1.4c0.9-1.5,2.6-2.5,4.3-2.5s3.4,1,4.3,2.5c0.3,0.5,0.1,1.1-0.4,1.4C35.3,23,35.1,23,35,23z"/><linearGradient id="SVGID_2_" x1="37.609" x2="44.491" y1="1129.286" y2="1139.884" gradientTransform="translate(0 -1098)" gradientUnits="userSpaceOnUse"><stop offset="0" stop-color="#f44f5a"/><stop offset=".443" stop-color="#ee3d4a"/><stop offset="1" stop-color="#e52030"/></linearGradient><path fill="url(#SVGID_2_)" d="M40.5,34c0,0,1.7-1.9,3.7-1.9c2.1,0,3.7,1.7,3.7,3.7c0,1.3-1.2,2.5-1.2,2.5L41.1,44c-0.3,0.3-0.9,0.3-1.3,0	l-5.6-5.6c0,0-1.2-1.2-1.2-2.5c0-2,1.7-3.7,3.7-3.7C38.8,32.1,40.5,34,40.5,34z"/><path fill="#343434" d="M25,38c0-0.3,0.2-0.7,0.5-0.9c0.9-0.5,1.5-1.5,1.5-2.6s-0.6-2.1-1.5-2.6c-0.5-0.3-0.6-0.9-0.4-1.4 c0.3-0.5,0.9-0.6,1.4-0.4c1.5,0.9,2.5,2.6,2.5,4.3s-1,3.4-2.5,4.3c-0.5,0.3-1.1,0.1-1.4-0.4C25.1,38.3,25,38.1,25,38z"/></svg>