<svg xmlns="http://www.w3.org/2000/svg" viewBox="0 0 48 48"><path fill="#50e6ff" d="M40,6H8C6.895,6,6,6.895,6,8v32c0,1.105,0.895,2,2,2h32c1.105,0,2-0.895,2-2V8	C42,6.895,41.105,6,40,6z"/><path fill="#33c481" d="M24,16.421C24,13.979,22.021,12,19.579,12c-2.056,0-3.778,1.405-4.273,3.305L24,24	C24,24,24,18.476,24,16.421z"/><path fill="#33c481" d="M24,31.579C24,34.021,25.979,36,28.421,36c2.056,0,3.778-1.405,4.273-3.305L24,24	C24,24,24,29.524,24,31.579z"/><path fill="#33c481" d="M31.579,24C34.021,24,36,22.021,36,19.579c0-2.056-1.405-3.778-3.305-4.273L24,24	C24,24,29.524,24,31.579,24z"/><path fill="#33c481" d="M16.421,24C13.979,24,12,25.979,12,28.421c0,2.056,1.405,3.778,3.305,4.273L24,24	C24,24,18.476,24,16.421,24z"/><path fill="#21a366" d="M24,16.421C24,13.979,25.979,12,28.421,12c2.056,0,3.778,1.405,4.273,3.305L24,24	C24,24,24,18.476,24,16.421z"/><path fill="#21a366" d="M24,31.579C24,34.021,22.021,36,19.579,36c-2.056,0-3.778-1.405-4.273-3.305L24,24	C24,24,24,29.524,24,31.579z"/><path fill="#21a366" d="M16.421,24C13.979,24,12,22.021,12,19.579c0-2.056,1.405-3.778,3.305-4.273L24,24	C24,24,18.476,24,16.421,24z"/><path fill="#21a366" d="M31.579,24C34.021,24,36,25.979,36,28.421c0,2.056-1.405,3.778-3.305,4.273L24,24	C24,24,29.524,24,31.579,24z"/><radialGradient id="UIckiOUl0cp0ifh4_JYrGa" cx="37.66" cy="37.489" r="11.469" gradientUnits="userSpaceOnUse"><stop offset="0"/><stop offset=".979" stop-opacity="0"/></radialGradient><path fill="url(#UIckiOUl0cp0ifh4_JYrGa)" d="M38,26c-6.617,0-12,5.383-12,12c0,1.404,0.255,2.747,0.7,4H40c1.105,0,2-0.895,2-2V26.7	C40.747,26.255,39.404,26,38,26z"/><linearGradient id="UIckiOUl0cp0ifh4_JYrGb" x1="28" x2="48" y1="-32" y2="-32" gradientTransform="translate(0 70)" gradientUnits="userSpaceOnUse"><stop offset="0" stop-color="#f44f5a"/><stop offset=".443" stop-color="#ee3d4a"/><stop offset="1" stop-color="#e52030"/></linearGradient><circle cx="38" cy="38" r="10" fill="url(#UIckiOUl0cp0ifh4_JYrGb)"/><path fill="#fff" d="M41.536,33.757l0.707,0.707c0.195,0.195,0.195,0.512,0,0.707l-7.071,7.071	c-0.195,0.195-0.512,0.195-0.707,0l-0.707-0.707c-0.195-0.195-0.195-0.512,0-0.707l7.071-7.071	C41.024,33.562,41.34,33.562,41.536,33.757z"/><path fill="#fff" d="M42.243,41.536l-0.707,0.707c-0.195,0.195-0.512,0.195-0.707,0l-7.071-7.071	c-0.195-0.195-0.195-0.512,0-0.707l0.707-0.707c0.195-0.195,0.512-0.195,0.707,0l7.071,7.071	C42.438,41.024,42.438,41.34,42.243,41.536z"/></svg>