<svg xmlns="http://www.w3.org/2000/svg" viewBox="0 0 48 48"><linearGradient id="IcAyYIr4gtXxzvndUbPlpa" x1="26.93" x2="35.301" y1="-1247.819" y2="-1256.191" gradientTransform="matrix(1 0 0 -1 0 -1237.89)" gradientUnits="userSpaceOnUse"><stop offset="0" stop-color="#0d61a9"/><stop offset="1" stop-color="#16528c"/></linearGradient><circle cx="31" cy="14" r="6" fill="url(#IcAyYIr4gtXxzvndUbPlpa)"/><linearGradient id="IcAyYIr4gtXxzvndUbPlpb" x1="28.307" x2="32.973" y1="-1260.849" y2="-1284.175" gradientTransform="matrix(1 0 0 -1 0 -1237.89)" gradientUnits="userSpaceOnUse"><stop offset="0" stop-color="#0d61a9"/><stop offset="1" stop-color="#16528c"/></linearGradient><path fill="url(#IcAyYIr4gtXxzvndUbPlpb)" d="M31,22c-5.523,0-10,4.365-10,9.75v10.083C21,43.03,21.994,44,23.222,44h15.556 C40.006,44,41,43.03,41,41.833V31.75C41,26.365,36.523,22,31,22z"/><linearGradient id="IcAyYIr4gtXxzvndUbPlpc" x1="12.93" x2="21.301" y1="-1243.819" y2="-1252.191" gradientTransform="matrix(1 0 0 -1 0 -1237.89)" gradientUnits="userSpaceOnUse"><stop offset="0" stop-color="#32bdef"/><stop offset="1" stop-color="#1ea2e4"/></linearGradient><circle cx="17" cy="10" r="6" fill="url(#IcAyYIr4gtXxzvndUbPlpc)"/><linearGradient id="IcAyYIr4gtXxzvndUbPlpd" x1="13.943" x2="19.392" y1="-1257.027" y2="-1284.272" gradientTransform="matrix(1 0 0 -1 0 -1237.89)" gradientUnits="userSpaceOnUse"><stop offset="0" stop-color="#32bdef"/><stop offset="1" stop-color="#1ea2e4"/></linearGradient><path fill="url(#IcAyYIr4gtXxzvndUbPlpd)" d="M17,18c-5.523,0-10,4.365-10,9.75v14.083C7,43.03,7.994,44,9.222,44h15.556 C26.006,44,27,43.03,27,41.833V27.75C27,22.365,22.523,18,17,18z"/></svg>