<svg xmlns="http://www.w3.org/2000/svg" baseProfile="basic" viewBox="0 0 48 48"><rect width="14" height="10" x="17" y="33" fill="#999"/><linearGradient id="ClKmunEb5sS_yhXzvm-pTa" x1="21.776" x2="27.049" y1="8.297" y2="38.413" gradientUnits="userSpaceOnUse"><stop offset="0" stop-color="#4c4c4c"/><stop offset="1" stop-color="#343434"/></linearGradient><path fill="url(#ClKmunEb5sS_yhXzvm-pTa)" d="M47,36H1c-0.552,0-1-0.448-1-1V7c0-0.552,0.448-1,1-1h46c0.552,0,1,0.448,1,1v28	C48,35.552,47.552,36,47,36z"/><radialGradient id="ClKmunEb5sS_yhXzvm-pTb" cx="12.872" cy="6.499" r="43.892" gradientUnits="userSpaceOnUse"><stop offset="0" stop-color="#bd8af5"/><stop offset=".137" stop-color="#b88bf5"/><stop offset=".309" stop-color="#a88ff3"/><stop offset=".499" stop-color="#8f96f2"/><stop offset=".702" stop-color="#6b9eef"/><stop offset=".913" stop-color="#3eaaec"/><stop offset="1" stop-color="#29afea"/></radialGradient><rect width="46" height="28" x="1" y="7" fill="url(#ClKmunEb5sS_yhXzvm-pTb)"/><path fill="#cad2d9" d="M31.5,44h-15c-0.276,0-0.5-0.224-0.5-0.5v-1c0-0.276,0.224-0.5,0.5-0.5h15c0.276,0,0.5,0.224,0.5,0.5	v1C32,43.776,31.776,44,31.5,44z"/></svg>