<svg xmlns="http://www.w3.org/2000/svg" data-name="Слой 1" viewBox="0 0 48 48"><defs><linearGradient id="llM04X~EOgTELfhiukhxNa" x1="16" x2="47" y1="26.25" y2="26.25" data-name="Новый образец градиентной зал 3" gradientUnits="userSpaceOnUse"><stop offset="0" stop-color="#32bdef"/><stop offset="1" stop-color="#1ea2e4"/></linearGradient><linearGradient id="llM04X~EOgTELfhiukhxNb" x1="6" x2="26" y1="32.5" y2="32.5" data-name="Безымянный градиент 5" gradientUnits="userSpaceOnUse"><stop offset="0" stop-color="#3079d6"/><stop offset="1" stop-color="#297cd2"/></linearGradient></defs><path fill="url(#llM04X~EOgTELfhiukhxNa)" d="M46.696,22.44434l-4.265-6.8545a2.00028,2.00028,0,0,0-1.22089-.88659l-8.735-2.14575A1.99207,1.99207,0,0,0,32,12.5H16V40H46a1.0022,1.0022,0,0,0,1-1.00439V23.50916A2.01576,2.01576,0,0,0,46.696,22.44434Z"/><path fill="#50e6ff" d="M25.2101,14.70324l-8.735-2.14573a1.99128,1.99128,0,0,0-.95022,0l-8.735,2.14573a2.00043,2.00043,0,0,0-1.22088.88669l-4.265,6.8545A2.0156,2.0156,0,0,0,1,23.50916V38.99553A1.00224,1.00224,0,0,0,2,40H30a1.00224,1.00224,0,0,0,1-1.00447V23.50916a2.0156,2.0156,0,0,0-.304-1.06473l-4.265-6.8545A2.00043,2.00043,0,0,0,25.2101,14.70324Z"/><path fill="url(#llM04X~EOgTELfhiukhxNb)" d="M8,25H24a2,2,0,0,1,2,2V40a0,0,0,0,1,0,0H6a0,0,0,0,1,0,0V27A2,2,0,0,1,8,25Z"/></svg>