<svg xmlns="http://www.w3.org/2000/svg" viewBox="0 0 48 48"><linearGradient id="LejYCxIWtA2IKW_1qWfLQa" x1="16.659" x2="33.758" y1="-.171" y2="46.811" gradientUnits="userSpaceOnUse"><stop offset="0" stop-color="#ffd869"/><stop offset="1" stop-color="#fec52b"/></linearGradient><path fill="url(#LejYCxIWtA2IKW_1qWfLQa)" d="M37,15h-8V6c0-1.105-0.895-2-2-2h-6c-1.105,0-2,0.895-2,2v9h-8c-1.105,0-2,0.895-2,2v6	c0,1.105,0.895,2,2,2h8v17c0,1.105,0.895,2,2,2h6c1.105,0,2-0.895,2-2V25h8c1.105,0,2-0.895,2-2v-6C39,15.895,38.105,15,37,15z"/><path fill="#eba600" d="M23,7h2c0.552,0,1,0.448,1,1v32c0,0.552-0.448,1-1,1h-2c-0.552,0-1-0.448-1-1V8 C22,7.448,22.448,7,23,7z"/><path fill="#eba600" d="M13,18h22c0.552,0,1,0.448,1,1v2c0,0.552-0.448,1-1,1H13c-0.552,0-1-0.448-1-1v-2 C12,18.448,12.448,18,13,18z"/></svg>