<svg xmlns="http://www.w3.org/2000/svg" viewBox="0 0 48 48"><path fill="#2d5eab" d="M25,14h-2c-0.552,0-1-0.448-1-1V5c0-0.552,0.448-1,1-1h2c0.552,0,1,0.448,1,1v8	C26,13.552,25.552,14,25,14z"/><path fill="#199be2" d="M25,44h-2c-0.552,0-1-0.448-1-1v-8c0-0.552,0.448-1,1-1h2c0.552,0,1,0.448,1,1v8	C26,43.552,25.552,44,25,44z"/><path fill="#0d62ab" d="M34,25v-2c0-0.552,0.448-1,1-1h8c0.552,0,1,0.448,1,1v2c0,0.552-0.448,1-1,1h-8	C34.448,26,34,25.552,34,25z"/><path fill="#50e6ff" d="M4,25v-2c0-0.552,0.448-1,1-1h8c0.552,0,1,0.448,1,1v2c0,0.552-0.448,1-1,1H5C4.448,26,4,25.552,4,25	z"/><path fill="#2d5eab" d="M31.778,17.636l-1.414-1.414c-0.391-0.391-0.391-1.024,0-1.414l5.657-5.657	c0.391-0.391,1.024-0.391,1.414,0l1.414,1.414c0.391,0.391,0.391,1.024,0,1.414l-5.657,5.657	C32.802,18.027,32.169,18.027,31.778,17.636z"/><path fill="#35c1f1" d="M10.565,38.849l-1.414-1.414c-0.391-0.391-0.391-1.024,0-1.414l5.657-5.657	c0.391-0.391,1.024-0.391,1.414,0l1.414,1.414c0.391,0.391,0.391,1.024,0,1.414l-5.657,5.657	C11.589,39.24,10.955,39.24,10.565,38.849z"/><path fill="#0078d4" d="M30.364,31.778l1.414-1.414c0.391-0.391,1.024-0.391,1.414,0l5.657,5.657	c0.391,0.391,0.391,1.024,0,1.414l-1.414,1.414c-0.391,0.391-1.024,0.391-1.414,0l-5.657-5.657	C29.973,32.802,29.973,32.169,30.364,31.778z"/><path fill="#2d5eab" d="M9.151,10.565l1.414-1.414c0.391-0.391,1.024-0.391,1.414,0l5.657,5.657	c0.391,0.391,0.391,1.024,0,1.414l-1.414,1.414c-0.391,0.391-1.024,0.391-1.414,0l-5.657-5.657	C8.76,11.589,8.76,10.955,9.151,10.565z"/></svg>