<svg xmlns="http://www.w3.org/2000/svg" viewBox="0 0 48 48"><linearGradient id="hYk1xsan9yl56aIsBmmopa" x1="-529.969" x2="-501.89" y1="111.969" y2="83.89" gradientTransform="rotate(90 -209 331)" gradientUnits="userSpaceOnUse"><stop offset="0" stop-color="#fede00"/><stop offset=".519" stop-color="#fecc00"/><stop offset="1" stop-color="#ffb700"/></linearGradient><path fill="url(#hYk1xsan9yl56aIsBmmopa)" d="M24,44c11.045,0,20-8.955,20-20S35.045,4,24,4S4,12.955,4,24S12.955,44,24,44z"/><circle cx="16" cy="22" r="4" fill="#fff"/><circle cx="32" cy="22" r="4" fill="#fff"/><circle cx="16" cy="22" r="2" fill="#343434"/><circle cx="32" cy="22" r="2" fill="#343434"/><path fill="#343434" d="M31.751,31.684c0.365,0.414,0.325,1.046-0.09,1.411c-2.125,1.871-4.846,2.901-7.661,2.901	s-5.536-1.03-7.66-2.901c-0.415-0.365-0.455-0.997-0.09-1.411c0.364-0.415,0.996-0.455,1.411-0.09	c1.759,1.549,4.01,2.402,6.339,2.402s4.58-0.853,6.34-2.402c0.19-0.168,0.425-0.25,0.66-0.25	C31.277,31.344,31.553,31.459,31.751,31.684z"/></svg>