<svg xmlns="http://www.w3.org/2000/svg" xmlns:xlink="http://www.w3.org/1999/xlink" data-name="Слой 1" viewBox="0 0 48 48"><defs><linearGradient id="6I4aGFT8WcO6NTRs_FXTwa" x1="21.736" x2="36.753" y1="17.537" y2="17.537" data-name="Безымянный градиент 105" gradientUnits="userSpaceOnUse"><stop offset="0" stop-color="#ffcf54"/><stop offset=".261" stop-color="#fdcb4d"/><stop offset=".639" stop-color="#f7c13a"/><stop offset="1" stop-color="#f0b421"/></linearGradient><linearGradient id="6I4aGFT8WcO6NTRs_FXTwb" x1="21.927" x2="21.927" y1="27.158" y2="44.889" xlink:href="#6I4aGFT8WcO6NTRs_FXTwa"/><linearGradient id="6I4aGFT8WcO6NTRs_FXTwc" x1="17" x2="17" y1="30.288" y2="47.228" xlink:href="#6I4aGFT8WcO6NTRs_FXTwa"/><linearGradient id="6I4aGFT8WcO6NTRs_FXTwd" x1="14.388" x2="23.686" y1="11.438" y2="36.984" data-name="Безымянный градиент 109" gradientUnits="userSpaceOnUse"><stop offset="0" stop-color="#f44f5a"/><stop offset=".443" stop-color="#ee3d4a"/><stop offset="1" stop-color="#e52030"/></linearGradient><linearGradient id="6I4aGFT8WcO6NTRs_FXTwe" x1="12.809" x2="12.809" y1="15.712" y2="30.453" xlink:href="#6I4aGFT8WcO6NTRs_FXTwa"/><radialGradient id="6I4aGFT8WcO6NTRs_FXTwf" cx="18.788" cy="16.554" r="5.25" data-name="Безымянный градиент 136" xlink:href="#6I4aGFT8WcO6NTRs_FXTwa"/><radialGradient id="6I4aGFT8WcO6NTRs_FXTwg" cx="-687.17" cy="-481.665" r="4.019" data-name="Безымянный градиент 123" gradientTransform="matrix(-.9136 0 0 -.9667 -608.788 -456.607)" xlink:href="#6I4aGFT8WcO6NTRs_FXTwa"/><radialGradient id="6I4aGFT8WcO6NTRs_FXTwh" cx="18.87" cy="9.971" r="6.872" data-name="Безымянный градиент 132" gradientUnits="userSpaceOnUse"><stop offset="0" stop-color="#f09701"/><stop offset="1" stop-color="#e36001"/></radialGradient></defs><path fill="url(#6I4aGFT8WcO6NTRs_FXTwa)" d="M34,15.5a1.49669,1.49669,0,0,0-2.53064-1.08545l-.0022-.00232-.01971.02039-.0177.01837L28,18l-4.5-3L23,19l4.22711,1.86353a2,2,0,0,0,2.29128-.35757l4.02049-3.924-.00177-.00183A1.49276,1.49276,0,0,0,34,15.5Z"/><path fill="url(#6I4aGFT8WcO6NTRs_FXTwb)" d="M24.76892,33.2298,23.5,29H19l2.5,4.5-2.35693,5.3598.00421.00214a1.49426,1.49426,0,0,0,2.663,1.35437l.00623.00317,2.81714-5.50372A1.99974,1.99974,0,0,0,24.76892,33.2298Z"/><path fill="#b83c1f" d="M19,5.57143c-3.96,0-4.94231,6.53125-4.94231,6.53125a2.30788,2.30788,0,0,0,1.63577,2.45143A14.39537,14.39537,0,0,0,19,15a14.411,14.411,0,0,0,3.30615-.4455,2.30775,2.30775,0,0,0,1.63577-2.45143C23.94231,12.10268,22.96,5.57143,19,5.57143Z"/><path fill="url(#6I4aGFT8WcO6NTRs_FXTwc)" d="M15,29l1,13.5a1.5,1.5,0,0,0,3,0V29Z"/><path fill="url(#6I4aGFT8WcO6NTRs_FXTwd)" d="M23.86,30H14.14a1.15807,1.15807,0,0,1-1.09-1.55L15,24l-.24-4.38L13.5,18l1-3s.66-.22,1.52-.45a17.41791,17.41791,0,0,1,2.7-.54,3.92193,3.92193,0,0,1,.56006,0,17.41791,17.41791,0,0,1,2.7.54c.86.23,1.52.45,1.52.45L23,24l1.95,4.45A1.15807,1.15807,0,0,1,23.86,30Z"/><rect width="3" height="41" x="34" y="3" fill="#64717c" rx=".5"/><path fill="url(#6I4aGFT8WcO6NTRs_FXTwe)" d="M16,24.5A1.498,1.498,0,0,1,14.5,26a1.40967,1.40967,0,0,1-.35-.05h-.01a1.49483,1.49483,0,0,1-.76-.46l-3.27-3.73a1.99744,1.99744,0,0,1-.04-2.58L14.5,15l.11306,2.0089L14.76,19.62,13,20.5l1.75,2.01.18.21.62.71c.02.02.03.04.05.06l.11.12v.01A1.47368,1.47368,0,0,1,16,24.5Z"/><path fill="url(#6I4aGFT8WcO6NTRs_FXTwf)" d="M21.98,14.55l-.19,1.7A1.844,1.844,0,0,1,20.07,18H17.93a1.844,1.844,0,0,1-1.72-1.75l-.19-1.7a17.41791,17.41791,0,0,1,2.7-.54,3.92193,3.92193,0,0,1,.56006,0A17.41791,17.41791,0,0,1,21.98,14.55Z"/><path fill="#d6a121" d="M20.5,14.7899A1.406,1.406,0,0,1,18.98737,16a1.406,1.406,0,0,1-1.51263-1.2101V12.66163H20.5Z"/><path fill="url(#6I4aGFT8WcO6NTRs_FXTwg)" d="M19.00306,4.53577c1.479,0,2.99694.25961,2.99694,3.642v2.438C22,11.824,20.16475,13.5,19.00306,13.5s-2.99694-1.676-2.99694-2.88381v-2.438C16.00612,4.88379,17.52407,4.53577,19.00306,4.53577Z"/><path fill="url(#6I4aGFT8WcO6NTRs_FXTwh)" d="M19,4c-1.99538,0-2.30769,1.17857-2.30769,1.17857C15.88115,5.30075,14,5.57143,14,12.04493a2.3476,2.3476,0,0,0,1,2.20118c-1-5.643,2.68308-4.732,2.07692-8.28182,1.55616,4.64082,6.26654.02121,6.10423,8.1455A2.57226,2.57226,0,0,0,24,12.04493C24,6.62114,21.84577,4,19,4Z"/></svg>