<svg xmlns="http://www.w3.org/2000/svg" viewBox="0 0 48 48"><linearGradient id="ypSyVXVQOI6v1d~UaF23Ca" x1="9.858" x2="38.142" y1="9.858" y2="38.142" gradientUnits="userSpaceOnUse"><stop offset="0" stop-color="#f44f5a"/><stop offset=".443" stop-color="#ee3d4a"/><stop offset="1" stop-color="#e52030"/></linearGradient><path fill="url(#ypSyVXVQOI6v1d~UaF23Ca)" d="M44,24c0,11.045-8.955,20-20,20S4,35.045,4,24S12.955,4,24,4S44,12.955,44,24z"/><linearGradient id="ypSyVXVQOI6v1d~UaF23Cb" x1="12.879" x2="35.169" y1="12.879" y2="35.169" gradientUnits="userSpaceOnUse"><stop offset="0" stop-color="#fafafb"/><stop offset="1" stop-color="#c8cdd1"/></linearGradient><circle cx="24" cy="24" r="16" fill="url(#ypSyVXVQOI6v1d~UaF23Cb)"/><linearGradient id="ypSyVXVQOI6v1d~UaF23Cc" x1="15.515" x2="32.485" y1="15.515" y2="32.485" gradientUnits="userSpaceOnUse"><stop offset="0" stop-color="#f44f5a"/><stop offset=".443" stop-color="#ee3d4a"/><stop offset="1" stop-color="#e52030"/></linearGradient><path fill="url(#ypSyVXVQOI6v1d~UaF23Cc)" d="M36,24c0,6.627-5.373,12-12,12s-12-5.373-12-12s5.373-12,12-12S36,17.373,36,24z"/><linearGradient id="ypSyVXVQOI6v1d~UaF23Cd" x1="18.439" x2="29.585" y1="18.439" y2="29.585" gradientUnits="userSpaceOnUse"><stop offset="0" stop-color="#fafafb"/><stop offset="1" stop-color="#c8cdd1"/></linearGradient><circle cx="24" cy="24" r="8" fill="url(#ypSyVXVQOI6v1d~UaF23Cd)"/><linearGradient id="ypSyVXVQOI6v1d~UaF23Ce" x1="21.172" x2="26.828" y1="21.172" y2="26.828" gradientUnits="userSpaceOnUse"><stop offset="0" stop-color="#f44f5a"/><stop offset=".443" stop-color="#ee3d4a"/><stop offset="1" stop-color="#e52030"/></linearGradient><path fill="url(#ypSyVXVQOI6v1d~UaF23Ce)" d="M28,24c0,2.209-1.791,4-4,4s-4-1.791-4-4s1.791-4,4-4S28,21.791,28,24z"/><path d="M36.655,8.517L23.198,21.974c-0.781,0.781-0.781,2.047,0,2.828c0.39,0.391,0.902,0.586,1.414,0.586	s1.024-0.195,1.414-0.586l13.457-13.457C38.636,10.311,37.689,9.364,36.655,8.517z" opacity=".05"/><path d="M37.028,8.851L23.246,22.633c-0.586,0.586-0.586,1.535,0,2.121c0.293,0.293,0.677,0.439,1.061,0.439	s0.768-0.146,1.061-0.439l13.782-13.782C38.502,10.207,37.793,9.498,37.028,8.851z" opacity=".07"/><linearGradient id="ypSyVXVQOI6v1d~UaF23Cf" x1="35.003" x2="43.997" y1="8.502" y2="8.502" gradientUnits="userSpaceOnUse"><stop offset="0" stop-color="#3079d6"/><stop offset="1" stop-color="#297cd2"/></linearGradient><path fill="url(#ypSyVXVQOI6v1d~UaF23Cf)" d="M35.003,12.997V9.243c0-0.796,0.316-1.559,0.879-2.121l2.907-2.907	c0.447-0.447,1.212-0.131,1.212,0.502V8h3.284c0.633,0,0.95,0.765,0.502,1.212l-2.908,2.908c-0.563,0.563-1.327,0.879-2.123,0.879	L35.003,12.997z"/><path fill="#edbe00" d="M24,25c-0.256,0-0.512-0.098-0.707-0.293c-0.391-0.391-0.391-1.023,0-1.414l17-17	c0.391-0.391,1.023-0.391,1.414,0s0.391,1.023,0,1.414l-17,17C24.512,24.902,24.256,25,24,25z"/></svg>