<svg xmlns="http://www.w3.org/2000/svg" viewBox="0 0 48 48"><linearGradient id="e3nkjA6wFMoRvs9UxiBc8a" x1="41.018" x2="45.176" y1="26" y2="26" gradientUnits="userSpaceOnUse"><stop offset="0" stop-color="#3537b0"/><stop offset="1" stop-color="#4646cf"/></linearGradient><path fill="url(#e3nkjA6wFMoRvs9UxiBc8a)" d="M43,11h-3v30h3c1.105,0,2-0.895,2-2V13C45,11.895,44.105,11,43,11z"/><path fill="#5286ff" d="M41,39V9c0-1.105-0.895-2-2-2H5C3.895,7,3,7.895,3,9v30c0,1.105,0.895,2,2,2h38	C41.895,41,41,40.105,41,39z"/><path fill="#fff" d="M37,17H7c-0.552,0-1-0.448-1-1v-2c0-0.552,0.448-1,1-1h30c0.552,0,1,0.448,1,1v2	C38,16.552,37.552,17,37,17z"/><path fill="#fff" d="M19,36H7c-0.552,0-1-0.448-1-1V22c0-0.552,0.448-1,1-1h12c0.552,0,1,0.448,1,1v13	C20,35.552,19.552,36,19,36z"/><path fill="#fff" d="M38,24H24v-2c0-0.552,0.448-1,1-1h12c0.552,0,1,0.448,1,1V24z"/><rect width="14" height="3" x="24" y="24" fill="#e6eeff"/><rect width="14" height="3" x="24" y="27" fill="#ccdcff"/><path d="M21,41h24V29H23c-1.105,0-2,0.895-2,2V41z" opacity=".07"/><path d="M20,41h25V28H23c-1.657,0-3,1.343-3,3V41z" opacity=".05"/><rect width="14" height="3" x="24" y="30" fill="#b3cbff"/><path fill="#9abaff" d="M37,36H25c-0.552,0-1-0.448-1-1v-2h14v2C38,35.552,37.552,36,37,36z"/><path fill="#0362b0" d="M23,30h24c0.552,0,1,0.448,1,1v16c0,0.552-0.448,1-1,1H23c-0.552,0-1-0.448-1-1V31	C22,30.448,22.448,30,23,30z"/><linearGradient id="e3nkjA6wFMoRvs9UxiBc8b" x1="34.275" x2="35.682" y1="32.111" y2="33.994" gradientUnits="userSpaceOnUse"><stop offset="0" stop-color="#ffda1c"/><stop offset="1" stop-color="#feb705"/></linearGradient><path fill="url(#e3nkjA6wFMoRvs9UxiBc8b)" d="M35.044,32.054l0.265,0.595l0.647,0.068c0.042,0.004,0.058,0.056,0.027,0.084L35.5,33.237	l0.135,0.637c0.009,0.041-0.035,0.073-0.072,0.052L35,33.601l-0.564,0.325c-0.036,0.021-0.08-0.011-0.072-0.052l0.135-0.637	l-0.484-0.436c-0.031-0.028-0.014-0.08,0.027-0.084l0.647-0.068l0.265-0.595C34.973,32.016,35.027,32.016,35.044,32.054z"/><linearGradient id="e3nkjA6wFMoRvs9UxiBc8c" x1="40.275" x2="41.682" y1="38.132" y2="40.015" gradientUnits="userSpaceOnUse"><stop offset="0" stop-color="#ffda1c"/><stop offset="1" stop-color="#feb705"/></linearGradient><path fill="url(#e3nkjA6wFMoRvs9UxiBc8c)" d="M41.044,38.075l0.265,0.595l0.647,0.068c0.042,0.004,0.058,0.056,0.027,0.084L41.5,39.258	l0.135,0.637c0.009,0.041-0.035,0.073-0.072,0.052L41,39.622l-0.564,0.325c-0.036,0.021-0.08-0.011-0.072-0.052l0.135-0.637	l-0.484-0.436c-0.031-0.028-0.014-0.08,0.027-0.084l0.647-0.068l0.265-0.595C40.973,38.037,41.027,38.037,41.044,38.075z"/><linearGradient id="e3nkjA6wFMoRvs9UxiBc8d" x1="28.275" x2="29.682" y1="38.132" y2="40.015" gradientUnits="userSpaceOnUse"><stop offset="0" stop-color="#ffda1c"/><stop offset="1" stop-color="#feb705"/></linearGradient><path fill="url(#e3nkjA6wFMoRvs9UxiBc8d)" d="M29.044,38.075l0.265,0.595l0.647,0.068c0.042,0.004,0.058,0.056,0.027,0.084L29.5,39.258	l0.135,0.637c0.009,0.041-0.035,0.073-0.072,0.052L29,39.622l-0.564,0.325c-0.036,0.021-0.08-0.011-0.072-0.052l0.135-0.637	l-0.484-0.436c-0.031-0.028-0.014-0.08,0.027-0.084l0.647-0.068l0.265-0.595C28.973,38.037,29.027,38.037,29.044,38.075z"/><linearGradient id="e3nkjA6wFMoRvs9UxiBc8e" x1="34.275" x2="35.682" y1="44.111" y2="45.994" gradientUnits="userSpaceOnUse"><stop offset="0" stop-color="#ffda1c"/><stop offset="1" stop-color="#feb705"/></linearGradient><path fill="url(#e3nkjA6wFMoRvs9UxiBc8e)" d="M35.044,44.054l0.265,0.595l0.647,0.068c0.042,0.004,0.058,0.056,0.027,0.084L35.5,45.237	l0.135,0.637c0.009,0.041-0.035,0.073-0.072,0.052L35,45.601l-0.564,0.325c-0.036,0.021-0.08-0.011-0.072-0.052l0.135-0.637	l-0.484-0.436c-0.031-0.028-0.014-0.08,0.027-0.084l0.647-0.068l0.265-0.595C34.973,44.016,35.027,44.016,35.044,44.054z"/><linearGradient id="e3nkjA6wFMoRvs9UxiBc8f" x1="34.275" x2="35.682" y1="32.111" y2="33.994" gradientTransform="rotate(-30 34.998 38.98)" gradientUnits="userSpaceOnUse"><stop offset="0" stop-color="#ffda1c"/><stop offset="1" stop-color="#feb705"/></linearGradient><path fill="url(#e3nkjA6wFMoRvs9UxiBc8f)" d="M31.576,32.96l0.527,0.382l0.595-0.264c0.038-0.017,0.079,0.019,0.066,0.059l-0.201,0.619	l0.435,0.484c0.028,0.031,0.006,0.081-0.036,0.081l-0.651,0l-0.326,0.564c-0.021,0.036-0.075,0.031-0.088-0.009l-0.201-0.619	l-0.637-0.136c-0.041-0.009-0.052-0.062-0.018-0.086l0.526-0.383l-0.068-0.647C31.495,32.963,31.542,32.935,31.576,32.96z"/><linearGradient id="e3nkjA6wFMoRvs9UxiBc8g" x1="40.275" x2="41.682" y1="38.132" y2="40.015" gradientTransform="rotate(-30 34.998 38.98)" gradientUnits="userSpaceOnUse"><stop offset="0" stop-color="#ffda1c"/><stop offset="1" stop-color="#feb705"/></linearGradient><path fill="url(#e3nkjA6wFMoRvs9UxiBc8g)" d="M39.782,35.174l0.527,0.382l0.595-0.264c0.038-0.017,0.079,0.019,0.066,0.059l-0.201,0.619	l0.435,0.484c0.028,0.031,0.006,0.081-0.036,0.081l-0.651,0l-0.326,0.564c-0.021,0.036-0.075,0.031-0.088-0.009l-0.201-0.619	l-0.637-0.136c-0.041-0.009-0.052-0.062-0.018-0.086l0.526-0.383l-0.068-0.647C39.702,35.177,39.749,35.15,39.782,35.174z"/><linearGradient id="e3nkjA6wFMoRvs9UxiBc8h" x1="28.275" x2="29.682" y1="38.132" y2="40.015" gradientTransform="rotate(-30 34.998 38.98)" gradientUnits="userSpaceOnUse"><stop offset="0" stop-color="#ffda1c"/><stop offset="1" stop-color="#feb705"/></linearGradient><path fill="url(#e3nkjA6wFMoRvs9UxiBc8h)" d="M29.39,41.174l0.527,0.382l0.595-0.264c0.038-0.017,0.079,0.019,0.066,0.059l-0.201,0.619	l0.435,0.484c0.028,0.031,0.006,0.081-0.036,0.081l-0.651,0l-0.326,0.564c-0.021,0.036-0.075,0.031-0.088-0.009l-0.201-0.619	l-0.637-0.136c-0.041-0.009-0.052-0.062-0.018-0.086l0.526-0.383l-0.068-0.647C29.309,41.177,29.356,41.15,29.39,41.174z"/><linearGradient id="e3nkjA6wFMoRvs9UxiBc8i" x1="34.275" x2="35.682" y1="44.111" y2="45.994" gradientTransform="rotate(-30 34.998 38.98)" gradientUnits="userSpaceOnUse"><stop offset="0" stop-color="#ffda1c"/><stop offset="1" stop-color="#feb705"/></linearGradient><path fill="url(#e3nkjA6wFMoRvs9UxiBc8i)" d="M37.576,43.352l0.527,0.382l0.595-0.264c0.038-0.017,0.079,0.019,0.066,0.059l-0.201,0.619	l0.435,0.484c0.028,0.031,0.006,0.081-0.036,0.081l-0.651,0l-0.326,0.564c-0.021,0.036-0.075,0.031-0.088-0.009l-0.201-0.619	l-0.637-0.136c-0.041-0.009-0.052-0.062-0.018-0.086l0.526-0.383l-0.068-0.647C37.495,43.355,37.542,43.328,37.576,43.352z"/><linearGradient id="e3nkjA6wFMoRvs9UxiBc8j" x1="34.275" x2="35.682" y1="32.111" y2="33.994" gradientTransform="rotate(-60 34.994 39.057)" gradientUnits="userSpaceOnUse"><stop offset="0" stop-color="#ffda1c"/><stop offset="1" stop-color="#feb705"/></linearGradient><path fill="url(#e3nkjA6wFMoRvs9UxiBc8j)" d="M28.955,35.511l0.647,0.068l0.383-0.526c0.025-0.034,0.078-0.023,0.086,0.018l0.136,0.637	l0.619,0.201c0.04,0.013,0.045,0.067,0.009,0.088l-0.564,0.326l0,0.651c0,0.042-0.05,0.064-0.081,0.036l-0.484-0.435l-0.619,0.201	c-0.04,0.013-0.076-0.027-0.059-0.066l0.264-0.595l-0.382-0.527C28.886,35.554,28.913,35.507,28.955,35.511z"/><linearGradient id="e3nkjA6wFMoRvs9UxiBc8k" x1="40.275" x2="41.682" y1="38.132" y2="40.015" gradientTransform="rotate(-60 34.994 39.057)" gradientUnits="userSpaceOnUse"><stop offset="0" stop-color="#ffda1c"/><stop offset="1" stop-color="#feb705"/></linearGradient><path fill="url(#e3nkjA6wFMoRvs9UxiBc8k)" d="M37.169,33.325l0.647,0.068l0.383-0.526c0.025-0.034,0.078-0.023,0.086,0.018l0.136,0.637	l0.619,0.201c0.04,0.013,0.045,0.067,0.009,0.088l-0.564,0.326l0,0.651c0,0.042-0.05,0.064-0.081,0.036l-0.484-0.435l-0.619,0.201	c-0.04,0.013-0.076-0.027-0.059-0.066l0.264-0.595l-0.382-0.527C37.1,33.368,37.128,33.321,37.169,33.325z"/><linearGradient id="e3nkjA6wFMoRvs9UxiBc8l" x1="28.275" x2="29.682" y1="38.132" y2="40.015" gradientTransform="rotate(-60 34.994 39.057)" gradientUnits="userSpaceOnUse"><stop offset="0" stop-color="#ffda1c"/><stop offset="1" stop-color="#feb705"/></linearGradient><path fill="url(#e3nkjA6wFMoRvs9UxiBc8l)" d="M31.169,43.718l0.647,0.068l0.383-0.526c0.025-0.034,0.078-0.023,0.086,0.018l0.136,0.637	l0.619,0.201c0.04,0.013,0.045,0.067,0.009,0.088l-0.564,0.326l0,0.651c0,0.042-0.05,0.064-0.081,0.036l-0.484-0.435l-0.619,0.201	c-0.04,0.013-0.076-0.027-0.059-0.066l0.264-0.595l-0.382-0.527C31.1,43.76,31.128,43.713,31.169,43.718z"/><linearGradient id="e3nkjA6wFMoRvs9UxiBc8m" x1="34.275" x2="35.682" y1="44.111" y2="45.994" gradientTransform="rotate(-60 34.994 39.057)" gradientUnits="userSpaceOnUse"><stop offset="0" stop-color="#ffda1c"/><stop offset="1" stop-color="#feb705"/></linearGradient><path fill="url(#e3nkjA6wFMoRvs9UxiBc8m)" d="M39.347,41.511l0.647,0.068l0.383-0.526c0.025-0.034,0.078-0.023,0.086,0.018l0.136,0.637	l0.619,0.201c0.04,0.013,0.045,0.067,0.009,0.088l-0.564,0.326l0,0.651c0,0.042-0.05,0.064-0.081,0.036l-0.484-0.435l-0.619,0.201	c-0.04,0.013-0.076-0.027-0.059-0.066l0.264-0.595l-0.382-0.527C39.279,41.554,39.306,41.507,39.347,41.511z"/></svg>