<svg xmlns="http://www.w3.org/2000/svg" viewBox="0 0 48 48"><path fill="#50e6ff" d="M37,5c0,0.552-0.448,1-1,1s-1-0.448-1-1h-2c0,0.552-0.448,1-1,1s-1-0.448-1-1h-2c0,0.552-0.448,1-1,1	s-1-0.448-1-1h-2c0,0.552-0.448,1-1,1s-1-0.448-1-1h-2c0,0.552-0.448,1-1,1s-1-0.448-1-1h-2c0,0.552-0.448,1-1,1s-1-0.448-1-1h-2	c0,0.552-0.448,1-1,1s-1-0.448-1-1h-1C9.448,5,9,5.448,9,6v35c0,1.105,0.895,2,2,2h26c1.105,0,2-0.895,2-2V6c0-0.552-0.448-1-1-1H37	z"/><path fill="#057093" d="M34.5,13h-21c-0.276,0-0.5-0.224-0.5-0.5v-2c0-0.276,0.224-0.5,0.5-0.5h21c0.276,0,0.5,0.224,0.5,0.5	v2C35,12.776,34.776,13,34.5,13z"/><path fill="#057093" d="M34.5,20h-2c-0.276,0-0.5-0.224-0.5-0.5v-1c0-0.276,0.224-0.5,0.5-0.5h2c0.276,0,0.5,0.224,0.5,0.5v1	C35,19.776,34.776,20,34.5,20z"/><path fill="#057093" d="M26.5,20h-13c-0.276,0-0.5-0.224-0.5-0.5v-1c0-0.276,0.224-0.5,0.5-0.5h13c0.276,0,0.5,0.224,0.5,0.5	v1C27,19.776,26.776,20,26.5,20z"/><path fill="#057093" d="M34.5,24h-2c-0.276,0-0.5-0.224-0.5-0.5v-1c0-0.276,0.224-0.5,0.5-0.5h2c0.276,0,0.5,0.224,0.5,0.5v1	C35,23.776,34.776,24,34.5,24z"/><path fill="#057093" d="M23.5,24h-10c-0.276,0-0.5-0.224-0.5-0.5v-1c0-0.276,0.224-0.5,0.5-0.5h10c0.276,0,0.5,0.224,0.5,0.5	v1C24,23.776,23.776,24,23.5,24z"/><path fill="#057093" d="M34.5,28h-2c-0.276,0-0.5-0.224-0.5-0.5v-1c0-0.276,0.224-0.5,0.5-0.5h2c0.276,0,0.5,0.224,0.5,0.5v1	C35,27.776,34.776,28,34.5,28z"/><path fill="#057093" d="M26.5,28h-13c-0.276,0-0.5-0.224-0.5-0.5v-1c0-0.276,0.224-0.5,0.5-0.5h13c0.276,0,0.5,0.224,0.5,0.5	v1C27,27.776,26.776,28,26.5,28z"/><path fill="#057093" d="M34.5,32h-2c-0.276,0-0.5-0.224-0.5-0.5v-1c0-0.276,0.224-0.5,0.5-0.5h2c0.276,0,0.5,0.224,0.5,0.5v1	C35,31.776,34.776,32,34.5,32z"/><path fill="#057093" d="M23.5,32h-10c-0.276,0-0.5-0.224-0.5-0.5v-1c0-0.276,0.224-0.5,0.5-0.5h10c0.276,0,0.5,0.224,0.5,0.5	v1C24,31.776,23.776,32,23.5,32z"/><path fill="#057093" d="M34.5,38h-4c-0.276,0-0.5-0.224-0.5-0.5v-1c0-0.276,0.224-0.5,0.5-0.5h4c0.276,0,0.5,0.224,0.5,0.5v1	C35,37.776,34.776,38,34.5,38z"/><path fill="#057093" d="M26.5,38h-9c-0.276,0-0.5-0.224-0.5-0.5v-1c0-0.276,0.224-0.5,0.5-0.5h9c0.276,0,0.5,0.224,0.5,0.5v1	C27,37.776,26.776,38,26.5,38z"/><radialGradient id="rt770weBvGbCunIs1rzD~a" cx="37.691" cy="37.904" r="11.977" gradientUnits="userSpaceOnUse"><stop offset="0"/><stop offset=".979" stop-opacity="0"/></radialGradient><path fill="url(#rt770weBvGbCunIs1rzD~a)" d="M38,26c-6.617,0-12,5.383-12,12c0,1.786,0.403,3.476,1.105,5H37c1.105,0,2-0.895,2-2V26.051	C38.669,26.023,38.338,26,38,26z"/><linearGradient id="rt770weBvGbCunIs1rzD~b" x1="28" x2="48" y1="-32" y2="-32" gradientTransform="translate(0 70)" gradientUnits="userSpaceOnUse"><stop offset="0" stop-color="#21ad64"/><stop offset="1" stop-color="#088242"/></linearGradient><circle cx="38" cy="38" r="10" fill="url(#rt770weBvGbCunIs1rzD~b)"/><path d="M37.75,46.002c-0.689,0-1.25-0.561-1.25-1.25v-0.396	c-0.724-0.129-1.449-0.337-2.043-0.589c-0.583-0.25-0.958-0.816-0.958-1.443v-1.191c0-0.73,0.593-1.325,1.322-1.325	c0.206,0,0.413,0.05,0.598,0.144c0.301,0.154,1.37,0.653,2.581,0.653c0.522,0,0.644-0.113,0.645-0.115	c-0.098-0.199-0.966-0.521-1.383-0.675c-1.567-0.58-3.937-1.457-3.937-4.315c0-1.966,1.178-3.404,3.174-3.915V31.25	c0-0.689,0.561-1.25,1.25-1.25h0.5c0.689,0,1.25,0.561,1.25,1.25v0.222c0.593,0.068,1.093,0.184,1.52,0.35	C41.25,31.913,42,32.293,42,33.396v1.047c0,0.729-0.594,1.322-1.324,1.322c-0.197,0-0.389-0.043-0.569-0.128	c-0.382-0.179-1.165-0.48-2.107-0.48c-0.237,0-0.638,0.036-0.638,0.168c0,0.24,0.976,0.619,1.5,0.822	c1.52,0.591,3.813,1.482,3.813,4.2c0,1.514-0.841,3.408-3.174,3.982v0.422c0,0.689-0.561,1.25-1.25,1.25L37.75,46.002L37.75,46.002z" opacity=".05"/><path d="M37.75,45.502c-0.413,0-0.75-0.336-0.75-0.75v-0.824	c-0.814-0.109-1.665-0.332-2.348-0.622c-0.397-0.17-0.653-0.556-0.653-0.982v-1.191c0-0.455,0.369-0.825,0.822-0.825	c0.128,0,0.257,0.031,0.371,0.089c0.325,0.167,1.483,0.708,2.808,0.708c1.138,0,1.138-0.472,1.138-0.65	c0-0.446-0.643-0.716-1.702-1.109c-1.523-0.564-3.61-1.337-3.61-3.847c0-2.172,1.565-3.218,3.174-3.513V31.25	c0-0.414,0.337-0.75,0.75-0.75h0.5c0.413,0,0.75,0.336,0.75,0.75v0.678c0.75,0.053,1.354,0.172,1.838,0.36	c0.2,0.079,0.663,0.342,0.663,1.108v1.047c0,0.453-0.37,0.822-0.824,0.822c-0.124,0-0.243-0.027-0.356-0.081	c-0.42-0.197-1.28-0.527-2.32-0.527c-0.755,0-1.138,0.225-1.138,0.668c0,0.543,0.688,0.849,1.819,1.289	c1.474,0.573,3.493,1.357,3.493,3.734c0,1.444-0.842,3.187-3.174,3.575v0.83c0,0.414-0.337,0.75-0.75,0.75H37.75V45.502z" opacity=".05"/><path fill="#fff" d="M41.674,40.347c0-3.599-5.313-2.896-5.313-5.022c0-1.11,1.248-1.169,1.638-1.169	c0.938,0,1.843,0.252,2.533,0.575C40.75,34.834,41,34.683,41,34.443v-1.047c0-0.351-0.132-0.559-0.343-0.642	c-0.473-0.184-1.152-0.319-2.157-0.352V31.25c0-0.138-0.112-0.25-0.25-0.25h-0.5c-0.138,0-0.25,0.112-0.25,0.25v1.171	c-1.559,0.152-3.174,1.032-3.174,3.078c0,3.731,5.313,2.99,5.313,4.955c0,0.618-0.395,1.15-1.638,1.15	c-1.25,0-2.399-0.436-3.034-0.762c-0.214-0.109-0.466,0.049-0.466,0.289v1.192c0,0.228,0.138,0.432,0.349,0.522	c0.753,0.32,1.763,0.562,2.652,0.633v1.273c0,0.138,0.112,0.25,0.25,0.25h0.5c0.138,0,0.25-0.112,0.25-0.25V43.48	C40.832,43.286,41.674,41.725,41.674,40.347z"/></svg>