<svg xmlns="http://www.w3.org/2000/svg" viewBox="0 0 48 48"><linearGradient id="cPt6VdceCM2m8gnTC7Tcra" x1="24" x2="39.939" y1="10.5" y2="10.5" gradientUnits="userSpaceOnUse"><stop offset="0" stop-color="#0d61a9"/><stop offset="1" stop-color="#16528c"/></linearGradient><path fill="url(#cPt6VdceCM2m8gnTC7Tcra)" d="M39.719,11.03l-4.34,4.34c-0.279,0.279-0.755,0.082-0.755-0.312v-2.682h-10	c-0.345,0-0.625-0.28-0.625-0.625v-2.5c0-0.345,0.28-0.625,0.625-0.625h10V5.943c0-0.394,0.476-0.591,0.755-0.312l4.34,4.34	C40.012,10.263,40.012,10.738,39.719,11.03z"/><linearGradient id="cPt6VdceCM2m8gnTC7Tcrb" x1="15.576" x2="21.614" y1="-566.81" y2="-578.561" gradientTransform="matrix(1 0 0 -1 0 -562)" gradientUnits="userSpaceOnUse"><stop offset="0" stop-color="#75daff"/><stop offset="1" stop-color="#1ea2e4"/></linearGradient><path fill="url(#cPt6VdceCM2m8gnTC7Tcrb)" d="M25,10.5c0,3.589-2.911,6.5-6.5,6.5S12,14.089,12,10.5S14.911,4,18.5,4S25,6.911,25,10.5z"/><linearGradient id="cPt6VdceCM2m8gnTC7Tcrc" x1="140.988" x2="140.99" y1="-482.401" y2="-482.401" gradientTransform="scale(1 -1) rotate(-9.317 2835.7 568.6)" gradientUnits="userSpaceOnUse"><stop offset="0" stop-color="#ffc430"/><stop offset=".57" stop-color="#f8bd29"/><stop offset="1" stop-color="#f0b421"/></linearGradient><path fill="url(#cPt6VdceCM2m8gnTC7Tcrc)" d="M6.36,32.275c0.001-0.007,0.004-0.012,0.005-0.019l-0.002-0.001L6.36,32.275z"/><linearGradient id="cPt6VdceCM2m8gnTC7Tcrd" x1="17.991" x2="42.564" y1="-586.044" y2="-611.562" gradientTransform="matrix(1 0 0 -1 0 -562)" gradientUnits="userSpaceOnUse"><stop offset="0" stop-color="#ffc430"/><stop offset=".41" stop-color="#fec130"/><stop offset=".72" stop-color="#fcb730"/><stop offset=".998" stop-color="#f7a72f"/><stop offset="1" stop-color="#f7a72f"/></linearGradient><path fill="url(#cPt6VdceCM2m8gnTC7Tcrd)" d="M33.738,21.902L21,20V9.643c0-1.308-0.941-2.499-2.242-2.63C17.261,6.863,16,8.034,16,9.5	c0,0.237,0,32.468,0,32.468c1.461,1.3,3.347,2.032,5.314,2.032H32c3.314,0,6-2.686,6-6V26.847	C38,24.371,36.188,22.268,33.738,21.902z"/><linearGradient id="cPt6VdceCM2m8gnTC7Tcre" x1="21.912" x2="20.163" y1="-584.981" y2="-584.029" gradientTransform="matrix(1 0 0 -1 0 -562)" gradientUnits="userSpaceOnUse"><stop offset=".282" stop-color="#ffc430"/><stop offset=".401" stop-color="#f8bd2d"/><stop offset=".574" stop-color="#e5aa23"/><stop offset=".78" stop-color="#c58a14"/><stop offset="1" stop-color="#9c6000"/></linearGradient><polygon fill="url(#cPt6VdceCM2m8gnTC7Tcre)" points="21,20 21,26 23.61,20.39"/><circle cx="18.5" cy="9.5" r="1.5" fill="#fff0c9"/><linearGradient id="cPt6VdceCM2m8gnTC7Tcrf" x1="-42.984" x2="-34.537" y1="-1605.152" y2="-1596.822" gradientTransform="matrix(1 0 0 -1 52.373 -1570.646)" gradientUnits="userSpaceOnUse"><stop offset=".282" stop-color="#ffc430"/><stop offset=".401" stop-color="#f8bd2d"/><stop offset=".574" stop-color="#e5aa23"/><stop offset=".78" stop-color="#c58a14"/><stop offset="1" stop-color="#9c6000"/></linearGradient><path fill="url(#cPt6VdceCM2m8gnTC7Tcrf)" d="M6.023,25c-1.72,0-2.498,1.068-2.498,2.492L15.61,41.621 c0.124,0.124,0.259,0.236,0.389,0.352V27.268c-2.273,3.88-3.939,0.407-5.67,0.81C10.33,28.078,9.61,25,6.023,25z"/></svg>