<svg xmlns="http://www.w3.org/2000/svg" viewBox="0 0 48 48"><path fill="#33c481" d="M26.52,13.332C23.622,18.351,24,24,24,24s-3.15-4.704-3.15-10.5C20.85,7.704,24,3,24,3	s2.751,4.105,3.118,9.376C26.909,12.681,26.709,13.006,26.52,13.332z"/><path fill="#21a366" d="M21.478,13.332C18.578,8.31,13.5,5.813,13.5,5.813s-0.377,5.646,2.522,10.668S24,24,24,24	S24.377,18.354,21.478,13.332z"/><path fill="#33c481" d="M16.482,16.022C11.46,13.123,5.813,13.5,5.813,13.5s2.496,5.078,7.518,7.978S24,24,24,24	S21.504,18.922,16.482,16.022z"/><path fill="#21a366" d="M13.5,20.85C7.701,20.85,3,24,3,24s4.701,3.15,10.5,3.15S24,24,24,24S19.299,20.85,13.5,20.85z"/><path fill="#33c481" d="M13.332,26.522C8.31,29.422,5.813,34.5,5.813,34.5s5.646,0.377,10.668-2.522S24,24,24,24	S18.354,23.623,13.332,26.522z"/><path fill="#21a366" d="M16.022,31.518C13.123,36.54,13.5,42.187,13.5,42.187s5.078-2.496,7.978-7.518S24,24,24,24	S18.922,26.496,16.022,31.518z"/><path fill="#33c481" d="M20.85,34.5C20.85,40.299,24,45,24,45s3.15-4.701,3.15-10.5S24,24,24,24S20.85,28.701,20.85,34.5z"/><path fill="#21a366" d="M26.522,34.668c2.899,5.022,7.978,7.518,7.978,7.518s0.377-5.646-2.522-10.668S24,24,24,24	S23.623,29.646,26.522,34.668z"/><path fill="#33c481" d="M31.518,31.978C36.54,34.877,42.187,34.5,42.187,34.5s-2.496-5.078-7.518-7.978S24,24,24,24	S26.496,29.078,31.518,31.978z"/><path fill="#21a366" d="M34.5,27.15C40.299,27.15,45,24,45,24s-4.701-3.15-10.5-3.15S24,24,24,24S28.701,27.15,34.5,27.15z"/><path fill="#33c481" d="M34.668,21.478c5.022-2.899,7.518-7.978,7.518-7.978s-5.646-0.377-10.668,2.522S24,24,24,24	S29.646,24.377,34.668,21.478z"/><path fill="#33c481" d="M27.15,13.5c0,5.617-2.961,10.206-3.139,10.489C24,24,24,24,24,24s-0.378-5.649,2.52-10.668	c0.189-0.325,0.388-0.651,0.598-0.955C27.139,12.744,27.15,13.122,27.15,13.5z"/><path fill="#21a366" d="M31.98,16.482c-2.803,4.862-7.665,7.361-7.969,7.508c0.178-0.284,3.139-4.872,3.139-10.489	c0-0.378-0.011-0.756-0.032-1.124c2.94-4.378,7.382-6.563,7.382-6.563S34.878,11.463,31.98,16.482z"/><path fill="#e52030" d="M44.888,42.733L5.266,3.112c-0.149-0.149-0.39-0.149-0.539,0L3.112,4.728	c-0.149,0.149-0.149,0.39,0,0.539l39.622,39.622c0.149,0.149,0.39,0.149,0.539,0l1.616-1.616	C45.037,43.123,45.037,42.881,44.888,42.733z"/></svg>