<svg xmlns="http://www.w3.org/2000/svg" id="Layer_1" x="0" y="0" version="1.1" viewBox="0 0 48 48" xml:space="preserve"><radialGradient id="SVGID_1_" cx="23.617" cy="-453.953" r="21.338" gradientTransform="matrix(1 0 0 -1 0 -426)" gradientUnits="userSpaceOnUse"><stop offset=".376" stop-color="#261103"/><stop offset=".68" stop-color="#431d06"/><stop offset="1" stop-color="#662c09"/></radialGradient><path fill="url(#SVGID_1_)" d="M24,8.6C8,8.6,4,34.5,4,34.5c0,4.6,2.1,8.6,6.6,9.7C14.5,45.2,19.3,46,24,46s9.5-0.8,13.4-1.8	c4.5-1.1,6.6-5.1,6.6-9.7C44,34.5,40,8.6,24,8.6z"/><radialGradient id="SVGID_2_" cx="-2036.891" cy="-460.418" r="16.757" gradientTransform="rotate(180 -972.531 -209.61) scale(.9667)" gradientUnits="userSpaceOnUse"><stop offset="0" stop-color="#ffcf54"/><stop offset=".261" stop-color="#fdcb4d"/><stop offset=".639" stop-color="#f7c13a"/><stop offset="1" stop-color="#f0b421"/></radialGradient><path fill="url(#SVGID_2_)" d="M24,7.7c6.9,0,14,2.8,14,17.7c0,1.2,0,4.5,0,5.8C38,36.6,29.4,44,24,44s-14-7.4-14-12.7c0-1.3,0-4.6,0-5.8	C10,10.5,17.1,7.7,24,7.7z"/><radialGradient id="SVGID_3_" cx="13.053" cy="-429.729" r="49.757" gradientTransform="matrix(1 0 0 -1 0 -426)" gradientUnits="userSpaceOnUse"><stop offset="0" stop-color="#c26715"/><stop offset=".508" stop-color="#b85515"/><stop offset="1" stop-color="#ad3f16"/></radialGradient><path fill="url(#SVGID_3_)" d="M24,3c-8,0-10,5-10,5C10.8,8.5,4,13,4,34.5c0,5.8,2.9,8,4,8.6C0.2,20.3,18,23,15.4,10.3	c7.6,16.9,32.2,2,25.3,32.3c1.9-1.4,3.3-4.2,3.3-8.1C44,13.3,35.4,3,24,3z"/><path fill="#2b1d1d" d="M29,38c0,0.6-0.4,1-1,1h-8c-0.6,0-1-0.4-1-1c0-0.7,0.2-1.4,0.6-2c1-1.4,2.7-2.1,4.4-2c1.3,0,2.6,0.4,3.6,1.2	c0.3,0.2,0.5,0.5,0.8,0.8C28.8,36.6,29,37.3,29,38z"/><radialGradient id="SVGID_4_" cx="23.734" cy="-462.4" r="4.376" gradientTransform="matrix(1 0 0 -1 0 -426)" gradientUnits="userSpaceOnUse"><stop offset="0" stop-color="#fff"/><stop offset=".209" stop-color="#f8f8f8"/><stop offset=".514" stop-color="#e4e4e4"/><stop offset=".877" stop-color="#c4c4c4"/><stop offset="1" stop-color="#b8b8b8"/></radialGradient><path fill="url(#SVGID_4_)" d="M28.4,36h-8.8c1-1.4,2.7-2.1,4.4-2c1.3,0,2.6,0.4,3.6,1.2C27.9,35.4,28.2,35.7,28.4,36z"/><path fill="#2b1d1d" d="M31.1,28.1c-1.2,0.4-2.6-0.2-3-1.4l4.4-1.6C33,26.3,32.4,27.6,31.1,28.1z"/><path fill="#343434" d="M27.1,27.1c-0.6,0-1-0.4-1-1c0-0.4,0.3-0.8,0.7-0.9l6-2c0.5-0.2,1.1,0.1,1.3,0.6c0.2,0.5-0.1,1.1-0.6,1.3 c0,0,0,0,0,0l-6,2C27.3,27.1,27.2,27.1,27.1,27.1z"/><path fill="#2b1d1d" d="M16.9,28.1c1.2,0.4,2.6-0.2,3-1.4l-4.4-1.6C15,26.3,15.6,27.6,16.9,28.1z"/><path fill="#343434" d="M20.6,27l-6-2c0,0,0,0,0,0c-0.5-0.2-0.8-0.7-0.6-1.3c0.2-0.5,0.7-0.8,1.3-0.6l6,2c0.4,0.1,0.7,0.5,0.7,0.9 c0,0.6-0.4,1-1,1C20.8,27.1,20.7,27.1,20.6,27z"/></svg>