<svg xmlns="http://www.w3.org/2000/svg" viewBox="0 0 48 48"><linearGradient id="ftaSoKHMMPY6hctYuY7ola" x1="24" x2="24" y1="116.007" y2="110.995" gradientTransform="matrix(1 0 0 -1 0 118)" gradientUnits="userSpaceOnUse"><stop offset="0" stop-color="#fede00"/><stop offset="1" stop-color="#ffd000"/></linearGradient><path fill="url(#ftaSoKHMMPY6hctYuY7ola)" d="M27,7h-6V5c0-1.657,1.343-3,3-3l0,0c1.657,0,3,1.343,3,3V7z"/><path fill="#f5be00" d="M39,21c0-8.284-6.716-15-15-15S9,12.716,9,21c0,0.39,0,13,0,13h30C39,34,39,21.39,39,21z"/><linearGradient id="ftaSoKHMMPY6hctYuY7olb" x1="24" x2="24" y1="84.007" y2="78.995" gradientTransform="matrix(1 0 0 -1 0 118)" gradientUnits="userSpaceOnUse"><stop offset="0" stop-color="#fede00"/><stop offset="1" stop-color="#ffd000"/></linearGradient><path fill="url(#ftaSoKHMMPY6hctYuY7olb)" d="M39,34H9l-3.875,1.55C4.445,35.822,4,36.48,4,37.211l0,0C4,38.199,4.801,39,5.789,39h36.422	C43.199,39,44,38.199,44,37.211l0,0c0-0.731-0.445-1.389-1.125-1.661L39,34z"/><linearGradient id="ftaSoKHMMPY6hctYuY7olc" x1="24" x2="24" y1="75.081" y2="79.141" gradientTransform="matrix(1 0 0 -1 0 118)" gradientUnits="userSpaceOnUse"><stop offset=".486" stop-color="#fbc300"/><stop offset="1" stop-color="#dbaa00"/></linearGradient><path fill="url(#ftaSoKHMMPY6hctYuY7olc)" d="M28,39c0,2.209-1.791,4-4,4s-4-1.791-4-4H28z"/><linearGradient id="ftaSoKHMMPY6hctYuY7old" x1="28" x2="48" y1="38" y2="38" gradientUnits="userSpaceOnUse"><stop offset="0" stop-color="#21ad64"/><stop offset="1" stop-color="#088242"/></linearGradient><circle cx="38" cy="38" r="10" fill="url(#ftaSoKHMMPY6hctYuY7old)"/><path fill="#fff" d="M38.5,43h-1c-0.276,0-0.5-0.224-0.5-0.5v-9c0-0.276,0.224-0.5,0.5-0.5h1c0.276,0,0.5,0.224,0.5,0.5v9	C39,42.776,38.776,43,38.5,43z"/><path fill="#fff" d="M33,38.5v-1c0-0.276,0.224-0.5,0.5-0.5h9c0.276,0,0.5,0.224,0.5,0.5v1c0,0.276-0.224,0.5-0.5,0.5h-9	C33.224,39,33,38.776,33,38.5z"/></svg>