<svg xmlns="http://www.w3.org/2000/svg" viewBox="0 0 48 48"><linearGradient id="f2slISU3Z~p0SufcfDsS~a" x1="157.668" x2="165.719" y1="-1936.776" y2="-1965.51" gradientTransform="matrix(1 0 0 -1 -137.638 -1926.945)" gradientUnits="userSpaceOnUse"><stop offset="0" stop-color="#75daff"/><stop offset="1" stop-color="#1ea2e4"/></linearGradient><path fill="url(#f2slISU3Z~p0SufcfDsS~a)" d="M43.125,9H4.875C3.287,9,2,10.287,2,11.875v24.25C2,37.713,3.287,39,4.875,39h38.25 C44.713,39,46,37.713,46,36.125v-24.25C46,10.287,44.713,9,43.125,9z"/><path fill="#1d59b3" d="M30.124,23.156c0,1.546-0.171,2.927-0.511,4.145c-0.34,1.218-0.835,2.247-1.487,3.089 c-0.652,0.842-1.446,1.487-2.385,1.936C24.803,32.775,23.739,33,22.549,33c-1.424,0-2.65-0.227-3.678-0.68v-3.156 c0.914,0.599,2.015,0.898,3.301,0.898c1.319,0,2.35-0.449,3.095-1.347c0.744-0.898,1.121-2.197,1.129-3.896l-0.073-0.024 c-0.769,1.141-1.938,1.711-3.508,1.711c-0.712,0-1.37-0.134-1.973-0.401c-0.603-0.267-1.124-0.637-1.565-1.11 c-0.441-0.474-0.785-1.038-1.032-1.693c-0.247-0.655-0.37-1.375-0.37-2.16c0-0.914,0.15-1.748,0.449-2.5 c0.299-0.753,0.718-1.4,1.256-1.942c0.538-0.542,1.184-0.961,1.936-1.256C22.27,15.148,23.103,15,24.018,15 c0.947,0,1.796,0.184,2.549,0.553c0.753,0.368,1.393,0.9,1.924,1.596c0.53,0.696,0.935,1.55,1.214,2.561 C29.984,20.721,30.124,21.87,30.124,23.156z M26.251,21.117c0-0.445-0.057-0.864-0.17-1.256c-0.114-0.392-0.271-0.73-0.473-1.013 c-0.202-0.283-0.449-0.508-0.74-0.673c-0.291-0.166-0.611-0.249-0.959-0.249c-0.332,0-0.637,0.073-0.916,0.218 c-0.28,0.146-0.52,0.346-0.722,0.601c-0.202,0.255-0.36,0.561-0.473,0.917c-0.114,0.356-0.17,0.74-0.17,1.153 c0,0.453,0.056,0.856,0.17,1.207c0.113,0.352,0.273,0.65,0.479,0.892c0.207,0.243,0.455,0.427,0.747,0.553 c0.291,0.125,0.615,0.188,0.971,0.188c0.34,0,0.647-0.067,0.922-0.201c0.275-0.133,0.512-0.313,0.71-0.54 c0.199-0.226,0.352-0.493,0.461-0.801C26.197,21.805,26.251,21.474,26.251,21.117z"/></svg>