<svg xmlns="http://www.w3.org/2000/svg" viewBox="0 0 48 48"><linearGradient id="v3TYecNuGa9gOT4IR9GBQa" x1="19.249" x2="30.878" y1="13.645" y2="41.817" gradientUnits="userSpaceOnUse"><stop offset="0" stop-color="#f44f5a"/><stop offset=".443" stop-color="#ee3d4a"/><stop offset="1" stop-color="#e52030"/></linearGradient><path fill="url(#v3TYecNuGa9gOT4IR9GBQa)" d="M42,42H10c-1.105,0-2-0.895-2-2V20c0-1.105,0.895-2,2-2h32c1.105,0,2,0.895,2,2v20	C44,41.105,43.105,42,42,42z"/><linearGradient id="v3TYecNuGa9gOT4IR9GBQb" x1="64.391" x2="66.301" y1="92.814" y2="97.441" gradientTransform="rotate(-90 11 91.5)" gradientUnits="userSpaceOnUse"><stop offset="0" stop-color="#ff6b75"/><stop offset=".651" stop-color="#ff5965"/><stop offset="1" stop-color="#ff4d5b"/></linearGradient><path fill="url(#v3TYecNuGa9gOT4IR9GBQb)" d="M18,37L18,37c0,0.552-0.448,1-1,1h-4c-0.552,0-1-0.448-1-1l0,0c0-0.552,0.448-1,1-1h4	C17.552,36,18,36.448,18,37z"/><linearGradient id="v3TYecNuGa9gOT4IR9GBQc" x1="64.391" x2="66.301" y1="99.814" y2="104.441" gradientTransform="rotate(-90 11 91.5)" gradientUnits="userSpaceOnUse"><stop offset="0" stop-color="#ff6b75"/><stop offset=".651" stop-color="#ff5965"/><stop offset="1" stop-color="#ff4d5b"/></linearGradient><path fill="url(#v3TYecNuGa9gOT4IR9GBQc)" d="M25,37L25,37c0,0.552-0.448,1-1,1h-4c-0.552,0-1-0.448-1-1l0,0c0-0.552,0.448-1,1-1h4	C24.552,36,25,36.448,25,37z"/><linearGradient id="v3TYecNuGa9gOT4IR9GBQd" x1="64.391" x2="66.301" y1="106.814" y2="111.441" gradientTransform="rotate(-90 11 91.5)" gradientUnits="userSpaceOnUse"><stop offset="0" stop-color="#ff6b75"/><stop offset=".651" stop-color="#ff5965"/><stop offset="1" stop-color="#ff4d5b"/></linearGradient><path fill="url(#v3TYecNuGa9gOT4IR9GBQd)" d="M32,37L32,37c0,0.552-0.448,1-1,1h-4c-0.552,0-1-0.448-1-1l0,0c0-0.552,0.448-1,1-1h4	C31.552,36,32,36.448,32,37z"/><linearGradient id="v3TYecNuGa9gOT4IR9GBQe" x1="64.391" x2="66.301" y1="113.814" y2="118.441" gradientTransform="rotate(-90 11 91.5)" gradientUnits="userSpaceOnUse"><stop offset="0" stop-color="#ff6b75"/><stop offset=".651" stop-color="#ff5965"/><stop offset="1" stop-color="#ff4d5b"/></linearGradient><path fill="url(#v3TYecNuGa9gOT4IR9GBQe)" d="M39,37L39,37c0,0.552-0.448,1-1,1h-4c-0.552,0-1-0.448-1-1l0,0c0-0.552,0.448-1,1-1h4	C38.552,36,39,36.448,39,37z"/><path d="M42,18H8v14h30.319C40.352,32,42,30.352,42,28.319V18z" opacity=".05"/><path d="M41,18H8v13h30.161C39.729,31,41,29.729,41,28.161V18z" opacity=".07"/><linearGradient id="v3TYecNuGa9gOT4IR9GBQf" x1="15.249" x2="26.878" y1="1.645" y2="29.817" gradientUnits="userSpaceOnUse"><stop offset="0" stop-color="#32bdef"/><stop offset="1" stop-color="#1ea2e4"/></linearGradient><path fill="url(#v3TYecNuGa9gOT4IR9GBQf)" d="M38,30H6c-1.105,0-2-0.895-2-2V8c0-1.105,0.895-2,2-2h32c1.105,0,2,0.895,2,2v20	C40,29.105,39.105,30,38,30z"/><linearGradient id="v3TYecNuGa9gOT4IR9GBQg" x1="76.391" x2="78.301" y1="88.814" y2="93.441" gradientTransform="rotate(-90 11 91.5)" gradientUnits="userSpaceOnUse"><stop offset="0" stop-color="#5bc8ef"/><stop offset="1" stop-color="#42befc"/></linearGradient><path fill="url(#v3TYecNuGa9gOT4IR9GBQg)" d="M14,25L14,25c0,0.552-0.448,1-1,1H9c-0.552,0-1-0.448-1-1v0c0-0.552,0.448-1,1-1h4	C13.552,24,14,24.448,14,25z"/><linearGradient id="v3TYecNuGa9gOT4IR9GBQh" x1="76.391" x2="78.301" y1="95.814" y2="100.441" gradientTransform="rotate(-90 11 91.5)" gradientUnits="userSpaceOnUse"><stop offset="0" stop-color="#5bc8ef"/><stop offset="1" stop-color="#42befc"/></linearGradient><path fill="url(#v3TYecNuGa9gOT4IR9GBQh)" d="M21,25L21,25c0,0.552-0.448,1-1,1h-4c-0.552,0-1-0.448-1-1v0c0-0.552,0.448-1,1-1h4	C20.552,24,21,24.448,21,25z"/><linearGradient id="v3TYecNuGa9gOT4IR9GBQi" x1="76.391" x2="78.301" y1="102.814" y2="107.441" gradientTransform="rotate(-90 11 91.5)" gradientUnits="userSpaceOnUse"><stop offset="0" stop-color="#5bc8ef"/><stop offset="1" stop-color="#42befc"/></linearGradient><path fill="url(#v3TYecNuGa9gOT4IR9GBQi)" d="M28,25L28,25c0,0.552-0.448,1-1,1h-4c-0.552,0-1-0.448-1-1v0c0-0.552,0.448-1,1-1h4	C27.552,24,28,24.448,28,25z"/><linearGradient id="v3TYecNuGa9gOT4IR9GBQj" x1="76.391" x2="78.301" y1="109.814" y2="114.441" gradientTransform="rotate(-90 11 91.5)" gradientUnits="userSpaceOnUse"><stop offset="0" stop-color="#5bc8ef"/><stop offset="1" stop-color="#42befc"/></linearGradient><path fill="url(#v3TYecNuGa9gOT4IR9GBQj)" d="M35,25L35,25c0,0.552-0.448,1-1,1h-4c-0.552,0-1-0.448-1-1v0c0-0.552,0.448-1,1-1h4	C34.552,24,35,24.448,35,25z"/><path fill="#bbd2de" d="M31.868,19h4.263C36.611,19,37,18.611,37,18.132v-4.263C37,13.389,36.611,13,36.132,13h-4.263	C31.389,13,31,13.389,31,13.868v4.263C31,18.611,31.389,19,31.868,19z"/></svg>