<svg xmlns="http://www.w3.org/2000/svg" id="Layer_1" x="0" y="0" version="1.1" viewBox="0 0 48 48" xml:space="preserve"><linearGradient id="SVGID_1_" x1="8.663" x2="38.122" y1="-197.941" y2="-173.085" gradientTransform="translate(0 206)" gradientUnits="userSpaceOnUse"><stop offset="0" stop-color="#a1aab3"/><stop offset="1" stop-color="#8f979e"/></linearGradient><path fill="url(#SVGID_1_)" d="M41,35H7c-1.1,0-2-0.9-2-2V9c0-1.1,0.9-2,2-2h34c1.1,0,2,0.9,2,2v24C43,34.1,42.1,35,41,35z"/><radialGradient id="SVGID_2_" cx="286.669" cy="-62.592" r="86.245" gradientTransform="matrix(.8095 0 0 .7188 -184.976 103.925)" gradientUnits="userSpaceOnUse"><stop offset=".14" stop-color="#33c481"/><stop offset=".368" stop-color="#33c481"/><stop offset=".546" stop-color="#30c07c"/><stop offset=".664" stop-color="#21ad64"/><stop offset=".818" stop-color="#21ad64"/><stop offset=".971" stop-color="#088242"/><stop offset="1" stop-color="#088242"/></radialGradient><rect width="34" height="24" x="7" y="9" fill="url(#SVGID_2_)"/><linearGradient id="SVGID_3_" x1="24" x2="24" y1="-171.015" y2="-163.986" gradientTransform="translate(0 206)" gradientUnits="userSpaceOnUse"><stop offset="0" stop-color="#484b4f"/><stop offset=".23" stop-color="#656d75"/><stop offset=".367" stop-color="#727d86"/></linearGradient><path fill="url(#SVGID_3_)" d="M33,38h-5v-3h-8v3h-5c-0.6,0-1,0.4-1,1v2c0,0.6,0.4,1,1,1h18c0.6,0,1-0.4,1-1v-2C34,38.4,33.6,38,33,38z"/><path d="M22.4,29c-0.4,0-0.8-0.1-1.2-0.4c0,0-0.1,0-0.1-0.1L14.7,22c-0.3-0.3-0.5-0.8-0.5-1.3s0.2-1,0.5-1.3l1.7-1.7	c0.3-0.3,0.8-0.5,1.3-0.5s1,0.2,1.3,0.5l3.4,3.4l8.5-8.5c0.3-0.3,0.8-0.5,1.3-0.5s1,0.2,1.3,0.5l1.7,1.7c0.3,0.3,0.5,0.8,0.5,1.3	c0,0.5-0.2,1-0.5,1.3L23.7,28.5C23.4,28.8,22.9,29,22.4,29z" opacity=".05"/><path d="M35,14.6l-1.7-1.7c-0.3-0.3-0.6-0.4-1-0.4s-0.7,0.1-1,0.4l-8.9,8.9L18.7,18c-0.3-0.3-0.6-0.4-1-0.4	s-0.7,0.1-1,0.4L15,19.8c-0.5,0.5-0.5,1.4,0,1.9l6.4,6.4c0,0,0.1,0,0.1,0.1c0.2,0.2,0.5,0.3,0.8,0.3c0.4,0,0.7-0.1,1-0.4L35,16.5	C35.5,16,35.5,15.1,35,14.6z" opacity=".07"/><linearGradient id="SVGID_4_" x1="14.059" x2="21.862" y1="644.942" y2="637.138" gradientTransform="matrix(1 0 0 -1 0 662)" gradientUnits="userSpaceOnUse"><stop offset="0" stop-color="#fff"/><stop offset=".433" stop-color="#f2f2f2"/><stop offset=".91" stop-color="#ccc"/></linearGradient><path fill="url(#SVGID_4_)" d="M21.8,27.8l-6.4-6.4c-0.3-0.3-0.3-0.9,0-1.2l1.7-1.7c0.3-0.3,0.9-0.3,1.2,0l6.4,6.4c0.3,0.3,0.3,0.9,0,1.2	L23,27.8C22.7,28.1,22.2,28.1,21.8,27.8z"/><path fill="#f5f6f7" d="M20.1,24.8l11.6-11.6c0.3-0.3,0.9-0.3,1.2,0l1.7,1.7c0.3,0.3,0.3,0.9,0,1.2L23,27.8c-0.3,0.3-0.9,0.3-1.2,0	L20.1,26C19.8,25.7,19.8,25.2,20.1,24.8z"/></svg>