<svg xmlns="http://www.w3.org/2000/svg" viewBox="0 0 48 48"><linearGradient id="o5kBVvlyxPufWa2zv9eA8a" x1="13.963" x2="33.864" y1="6.616" y2="41.086" gradientUnits="userSpaceOnUse"><stop offset="0" stop-color="#889097"/><stop offset="1" stop-color="#4c5963"/></linearGradient><circle cx="24" cy="24" r="20" fill="url(#o5kBVvlyxPufWa2zv9eA8a)"/><path fill="#1d1d1b" d="M24,38c-1.654,0-3-1.346-3-3v-8.126l-6.531-10.263c-0.888-1.396-0.475-3.254,0.92-4.142 c1.399-0.887,3.255-0.474,4.142,0.921L24,20.412l4.469-7.022c0.888-1.395,2.746-1.807,4.141-0.921l0.001,0 c1.396,0.888,1.808,2.746,0.92,4.142L27,26.874V35C27,36.654,25.654,38,24,38z M16.999,14c-0.184,0-0.37,0.05-0.536,0.156 c-0.465,0.296-0.603,0.916-0.307,1.381L23,26.292V35c0,0.551,0.449,1,1,1s1-0.449,1-1v-8.708l6.844-10.755 c0.296-0.465,0.159-1.083-0.306-1.38l0,0c-0.465-0.295-1.085-0.158-1.382,0.307L24,24.138l-6.156-9.675 C17.653,14.164,17.33,14,16.999,14z" opacity=".05"/><path d="M24,37.5c-1.378,0-2.5-1.122-2.5-2.5v-8.272l-6.609-10.386c-0.74-1.163-0.396-2.711,0.767-3.452 c1.163-0.739,2.711-0.395,3.452,0.767L24,21.344l4.891-7.686c0.74-1.162,2.288-1.507,3.451-0.767h0 c1.163,0.74,1.507,2.289,0.767,3.452L26.5,26.728V35C26.5,36.378,25.378,37.5,24,37.5z M16.998,13.5 c-0.275,0-0.554,0.076-0.803,0.234c-0.697,0.444-0.904,1.373-0.46,2.071L22.5,26.437V35c0,0.827,0.673,1.5,1.5,1.5 s1.5-0.673,1.5-1.5v-8.563l6.766-10.632c0.444-0.698,0.237-1.626-0.46-2.071l0,0c-0.698-0.443-1.626-0.236-2.071,0.46L24,23.206 l-5.734-9.011C17.98,13.746,17.494,13.5,16.998,13.5z" opacity=".07"/><path fill="#fec52b" d="M32.074,13.312c-0.933-0.593-2.168-0.318-2.761,0.614L24,22.275l-5.313-8.349 c-0.593-0.932-1.829-1.207-2.761-0.614c-0.932,0.593-1.207,1.83-0.614,2.761L22,26.582V35c0,1.104,0.896,2,2,2s2-0.896,2-2v-8.418 l6.687-10.509C33.28,15.142,33.006,13.906,32.074,13.312z"/></svg>