<svg xmlns="http://www.w3.org/2000/svg" data-name="Слой 1" viewBox="0 0 48 48"><defs><linearGradient id="Q0aktpUBJSWnoqhSJ2AUba" x1="16.173" x2="40.137" y1="7.586" y2="73.427" data-name="Безымянный градиент 143" gradientUnits="userSpaceOnUse"><stop offset="0" stop-color="#889097"/><stop offset="1" stop-color="#4c5963"/></linearGradient><linearGradient id="Q0aktpUBJSWnoqhSJ2AUbb" x1="18.007" x2="31.146" y1="12.033" y2="48.134" data-name="Безымянный градиент 89" gradientUnits="userSpaceOnUse"><stop offset="0" stop-color="#56626b"/><stop offset="1" stop-color="#5d6a74"/></linearGradient></defs><path fill="url(#Q0aktpUBJSWnoqhSJ2AUba)" d="M39.95747,16.9998A5,5,0,0,1,35,12V6a1,1,0,0,0-1-1H30.92161a.99043.99043,0,0,0-.9816.85146,6.00085,6.00085,0,0,1-11.88,0A.99043.99043,0,0,0,17.07839,5H14a1,1,0,0,0-1,1v6a5,5,0,0,1-4.95747,4.9998A1.01846,1.01846,0,0,0,7,18V40a2,2,0,0,0,2,2H39a2,2,0,0,0,2-2V18A1.01846,1.01846,0,0,0,39.95747,16.9998Z"/><rect width="34" height="3" x="7" y="23" fill="#343434"/><rect width="34" height="3" x="7" y="31" fill="#343434"/><rect width="3" height="5" x="6" y="22" fill="#64717c" rx="1"/><rect width="3" height="5" x="6" y="30" fill="#64717c" rx="1"/><rect width="3" height="5" x="39" y="22" fill="#64717c" rx="1"/><rect width="3" height="5" x="39" y="30" fill="#64717c" rx="1"/><path d="M30,19a2,2,0,0,1,2,2V36a2,2,0,0,1-2,2H18a2,2,0,0,1-2-2V21a2,2,0,0,1,2-2H30m0-1H18a3.00339,3.00339,0,0,0-3,3V36a3.00339,3.00339,0,0,0,3,3H30a3.00339,3.00339,0,0,0,3-3V21a3.00339,3.00339,0,0,0-3-3Z" opacity=".05"/><path d="M30,19a2,2,0,0,1,2,2V36a2,2,0,0,1-2,2H18a2,2,0,0,1-2-2V21a2,2,0,0,1,2-2H30m0-.5H18A2.50283,2.50283,0,0,0,15.5,21V36A2.50283,2.50283,0,0,0,18,38.5H30A2.50283,2.50283,0,0,0,32.5,36V21A2.50283,2.50283,0,0,0,30,18.5Z" opacity=".07"/><rect width="16" height="19" x="16" y="19" fill="url(#Q0aktpUBJSWnoqhSJ2AUbb)" rx="2"/></svg>