<svg xmlns="http://www.w3.org/2000/svg" viewBox="0 0 48 48"><path fill="#0d3592" d="M18,24c0,8.284,6.716,15,15,15s15-6.716,15-15S41.284,9,33,9S18,15.716,18,24z"/><linearGradient id="hufhGqCHE_DeNhLok_c_ua" x1="126.775" x2="148.534" y1="13.183" y2="32.436" gradientTransform="matrix(-1 0 0 1 154 0)" gradientUnits="userSpaceOnUse"><stop offset="0" stop-color="#2b92f3"/><stop offset="1" stop-color="#1166d2"/></linearGradient><path fill="url(#hufhGqCHE_DeNhLok_c_ua)" d="M0,24c0,8.284,6.716,15,15,15s15-6.716,15-15S23.284,9,15,9S0,15.716,0,24z"/><path fill="#0d3592" d="M18,24c0,4.17,1.74,7.9,4.47,10.64c0.48,0.49,0.99,0.94,1.53,1.36c0.04-0.04,0.09-0.07,0.13-0.1	c0.18-0.15,0.36-0.29,0.53-0.44c2.78-2.41,4.73-5.75,5.22-9.56c0.04-0.33,0.07-0.67,0.09-1.01C29.99,24.6,30,24.3,30,24	s-0.01-0.6-0.03-0.89c-0.02-0.35-0.05-0.69-0.1-1.02c-0.07-0.56-0.17-1.11-0.3-1.65c-0.07-0.29-0.15-0.57-0.24-0.85	c-0.26-0.84-0.59-1.65-0.98-2.41c-0.13-0.26-0.27-0.51-0.41-0.76c-0.15-0.25-0.3-0.49-0.46-0.73c-0.15-0.22-0.3-0.44-0.46-0.66	c-0.15-0.2-0.29-0.38-0.45-0.57c-0.14-0.16-0.28-0.32-0.42-0.48c-0.02-0.03-0.05-0.06-0.08-0.09c-0.15-0.17-0.31-0.33-0.47-0.49	c-0.15-0.15-0.31-0.3-0.47-0.46C24.77,12.61,24.4,12.3,24,12c-0.54,0.42-1.05,0.87-1.53,1.36C19.74,16.1,18,19.83,18,24z"/><path fill="#105cbd" d="M22.47,34.64c0.48,0.49,0.99,0.94,1.53,1.36c0.04-0.04,0.09-0.07,0.13-0.1	c0.18-0.15,0.36-0.29,0.53-0.44c2.81-2.36,4.73-5.73,5.22-9.56c0.04-0.33,0.07-0.67,0.09-1.01C29.99,24.6,30,24.3,30,24	s-0.01-0.6-0.03-0.89c-0.02-0.35-0.05-0.69-0.1-1.02c-0.06-0.56-0.16-1.11-0.3-1.65c-0.07-0.29-0.15-0.57-0.24-0.85	c-0.25-0.84-0.58-1.64-0.98-2.41c-0.13-0.26-0.27-0.51-0.41-0.76c-0.15-0.25-0.3-0.49-0.46-0.73c-0.15-0.22-0.3-0.44-0.46-0.66	c-0.15-0.2-0.29-0.38-0.45-0.57c-0.14-0.16-0.28-0.32-0.42-0.48c-0.02-0.03-0.05-0.06-0.08-0.09c-0.15-0.17-0.31-0.33-0.47-0.49	c-0.15-0.15-0.31-0.3-0.47-0.46C24.77,12.61,24.4,12.3,24,12c-0.54,0.42-1.05,0.87-1.53,1.36C25.81,15.72,28,19.61,28,24	S25.81,32.28,22.47,34.64z"/></svg>