<svg xmlns="http://www.w3.org/2000/svg" viewBox="0 0 48 48"><linearGradient id="I2vg6QP4VWcp_cFDGjiLsa" x1="14.871" x2="33.453" y1="6.33" y2="42.484" gradientTransform="translate(.108 .186)" gradientUnits="userSpaceOnUse"><stop offset="0" stop-color="#f44f5a"/><stop offset=".443" stop-color="#ee3d4a"/><stop offset="1" stop-color="#e52030"/></linearGradient><path fill="url(#I2vg6QP4VWcp_cFDGjiLsa)" d="M44,23.981C44.011,35.026,35.064,43.989,24.019,44C12.974,44.011,4.011,35.064,4,24.019	C3.989,12.974,12.936,4.011,23.981,4C35.026,3.989,43.989,12.936,44,23.981z"/><path fill="#fff" d="M16,34c-3.3,0-6-2.7-6-6v-6h4v6c0,1.1,0.9,2,2,2s2-0.9,2-2v-6.1h4V28C22,31.3,19.3,34,16,34z"/><path fill="#fff" d="M20,25.1c-1.1,0-2-0.9-2-2V18c0-3.3,2.7-6,6-6s6,2.7,6,6v3c0,1.1-0.9,2-2,2s-2-0.9-2-2v-3 c0-1.1-0.9-2-2-2s-2,0.9-2,2v5.1C22,24.2,21.1,25.1,20,25.1z M34,22v6c0,1.1-0.9,2-2,2s-2-0.9-2-2v-3.6c-0.6,0.3-1.3,0.6-2,0.6 s-1.4-0.2-2-0.6V28c0,3.3,2.7,6,6,6s6-2.7,6-6v-6H34z"/></svg>