<svg xmlns="http://www.w3.org/2000/svg" id="Layer_1" x="0" y="0" version="1.1" viewBox="0 0 48 48" xml:space="preserve"><linearGradient id="SVGID_1_" x1="21.516" x2="45.592" y1="1049.638" y2="1085.673" gradientTransform="translate(0 -1032)" gradientUnits="userSpaceOnUse"><stop offset="0" stop-color="#28afea"/><stop offset="1" stop-color="#0b88da"/></linearGradient><path fill="url(#SVGID_1_)" d="M9,26l36-14.3V38c0,1.1-0.9,2-2,2H9V26z"/><linearGradient id="SVGID_2_" x1="1.408" x2="36.331" y1="1056.41" y2="1078.164" gradientTransform="translate(0 -1032)" gradientUnits="userSpaceOnUse"><stop offset="0" stop-color="#28afea"/><stop offset="1" stop-color="#0b88da"/></linearGradient><path fill="url(#SVGID_2_)" d="M3,11.7V38c0,1.1,0.9,2,2,2h38c0.5,0,0.9-0.2,1.3-0.5L3,11.7z"/><path d="M3,11h42v1.7L27.7,26.1c-2.2,1.7-5.2,1.7-7.4,0L3,12.7V11z" opacity=".05"/><path d="M3,10.5h42v1.7L27,25.3c-1.8,1.3-4.2,1.3-5.9,0L3,12.2V10.5z" opacity=".07"/><path fill="#50e6ff" d="M5,8h38c1.1,0,2,0.9,2,2v1.7L26.3,24.5c-1.4,0.9-3.1,0.9-4.5,0L3,11.7V10C3,8.9,3.9,8,5,8z"/><radialGradient id="SVGID_3_" cx="37.628" cy="37.638" r="11.271" gradientUnits="userSpaceOnUse"><stop offset="0"/><stop offset="1" stop-opacity="0"/></radialGradient><path fill="url(#SVGID_3_)" d="M38,26c-6.6,0-12,5.4-12,12c0,0.7,0.1,1.3,0.2,2H43c1.1,0,2-0.9,2-2v-9.7C43,26.8,40.6,26,38,26z"/><linearGradient id="SVGID_4_" x1="30.929" x2="45.071" y1="-48.929" y2="-63.071" gradientTransform="matrix(1 0 0 -1 0 -18)" gradientUnits="userSpaceOnUse"><stop offset="0" stop-color="#889097"/><stop offset="1" stop-color="#64717c"/></linearGradient><circle cx="38" cy="38" r="10" fill="url(#SVGID_4_)"/><radialGradient id="SVGID_5_" cx="38" cy="-56" r="9" gradientTransform="matrix(1 0 0 -1 0 -18)" gradientUnits="userSpaceOnUse"><stop offset="0"/><stop offset="1" stop-opacity="0"/></radialGradient><circle cx="38" cy="38" r="9" fill="url(#SVGID_5_)"/><radialGradient id="SVGID_6_" cx="37.948" cy="-48.186" r="17.828" gradientTransform="matrix(1 0 0 -1 0 -18)" gradientUnits="userSpaceOnUse"><stop offset="0" stop-color="#fafafb"/><stop offset="1" stop-color="#c8cdd1"/></radialGradient><circle cx="38" cy="38" r="8" fill="url(#SVGID_6_)"/><path fill="#d83b01" d="M40.9,43.7c-0.2,0.1-0.4,0-0.5-0.2l-2.7-5.3c-0.1-0.2,0-0.4,0.2-0.5c0.2-0.1,0.4,0,0.5,0.2l2.7,5.3	C41.2,43.3,41.1,43.6,40.9,43.7z"/><path fill="#45494d" d="M38,38.4c-0.1,0-0.2,0-0.3-0.1c-0.1-0.1-0.1-0.4,0-0.5l4.2-4.2c0.1-0.1,0.4-0.1,0.5,0s0.1,0.4,0,0.5l-4.2,4.2	C38.2,38.3,38.1,38.4,38,38.4z"/><path fill="#45494d" d="M38,38.6c-0.1,0-0.2,0-0.3-0.1l-3.9-1.9c-0.3-0.1-0.4-0.5-0.3-0.8c0.1-0.3,0.5-0.4,0.8-0.3l3.9,1.9	c0.3,0.1,0.4,0.5,0.3,0.8C38.5,38.5,38.2,38.6,38,38.6z"/><circle cx="38" cy="38" r="1" fill="#1e2021"/></svg>