<svg xmlns="http://www.w3.org/2000/svg" viewBox="0 0 48 48"><radialGradient id="CHuzbYsr5qCGlr1MNTdrba" cx="36.884" cy="11.248" r="14.227" gradientUnits="userSpaceOnUse"><stop offset=".706" stop-color="#787f85"/><stop offset=".713" stop-color="#7a8187"/><stop offset=".793" stop-color="#90989f"/><stop offset=".868" stop-color="#9da5ae"/><stop offset=".93" stop-color="#a1aab3"/></radialGradient><path fill="url(#CHuzbYsr5qCGlr1MNTdrba)" d="M27.318,14.318c-0.352,0.352-20.648,20.648-21,21c-1.757,1.757-1.757,4.607,0,6.364 c1.757,1.757,4.607,1.757,6.364,0c0.352-0.352,20.648-20.648,21-21L27.318,14.318z"/><circle cx="10" cy="38" r="3" fill="#fff"/><linearGradient id="CHuzbYsr5qCGlr1MNTdrbb" x1="8.129" x2="11.411" y1="36.129" y2="39.411" gradientUnits="userSpaceOnUse"><stop offset="0" stop-color="#0d61a9"/><stop offset=".363" stop-color="#0e5fa4"/><stop offset=".78" stop-color="#135796"/><stop offset="1" stop-color="#16528c"/></linearGradient><circle cx="10" cy="38" r="2" fill="url(#CHuzbYsr5qCGlr1MNTdrbb)"/><linearGradient id="CHuzbYsr5qCGlr1MNTdrbc" x1="29.131" x2="41.661" y1="6.002" y2="18.532" gradientUnits="userSpaceOnUse"><stop offset="0" stop-color="#a1aab3"/><stop offset="1" stop-color="#8f979e"/></linearGradient><path fill="url(#CHuzbYsr5qCGlr1MNTdrbc)" d="M40.425,12.838c-1.453,1.453-3.81,1.453-5.263,0c-1.453-1.453-1.453-3.81,0-5.263 c0.355-0.355,1.784-1.784,3.24-3.24c0.349-0.349,0.194-0.959-0.285-1.077c-1.18-0.29-2.45-0.351-3.771-0.102 c-3.874,0.73-6.895,3.972-7.297,7.893c-0.586,5.718,4.186,10.489,9.904,9.902c3.921-0.403,7.162-3.424,7.892-7.298 c0.249-1.321,0.188-2.59-0.102-3.77c-0.118-0.48-0.728-0.635-1.077-0.285C42.209,11.054,40.78,12.484,40.425,12.838z"/><linearGradient id="CHuzbYsr5qCGlr1MNTdrbd" x1="14.679" x2="23.597" y1="13.564" y2="40.453" gradientUnits="userSpaceOnUse"><stop offset="0" stop-color="#ffcf54"/><stop offset=".261" stop-color="#fdcb4d"/><stop offset=".639" stop-color="#f7c13a"/><stop offset="1" stop-color="#f0b421"/></linearGradient><path fill="url(#CHuzbYsr5qCGlr1MNTdrbd)" d="M16.705,38.237L6.524,28.3l0.291-7.883l5.775-5.785l5.49-1.402L26,15.636l-2.445,2.445	l8.591,8.824L16.705,38.237z"/><linearGradient id="CHuzbYsr5qCGlr1MNTdrbe" x1="20.469" x2="29.385" y1="12.308" y2="39.192" gradientUnits="userSpaceOnUse"><stop offset="0" stop-color="#ffcf54"/><stop offset=".261" stop-color="#fdcb4d"/><stop offset=".639" stop-color="#f7c13a"/><stop offset="1" stop-color="#f0b421"/></linearGradient><path fill="url(#CHuzbYsr5qCGlr1MNTdrbe)" d="M27,29c-1.657,0-3,1.343-3,3s1.343,3,3,3c1.657,0,3-1.343,3-3S28.657,29,27,29z"/><linearGradient id="CHuzbYsr5qCGlr1MNTdrbf" x1="23.469" x2="32.385" y1="9.308" y2="36.192" gradientUnits="userSpaceOnUse"><stop offset="0" stop-color="#ffcf54"/><stop offset=".261" stop-color="#fdcb4d"/><stop offset=".639" stop-color="#f7c13a"/><stop offset="1" stop-color="#f0b421"/></linearGradient><path fill="url(#CHuzbYsr5qCGlr1MNTdrbf)" d="M30,26c-1.657,0-3,1.343-3,3s1.343,3,3,3c1.657,0,3-1.343,3-3S31.657,26,30,26z"/><linearGradient id="CHuzbYsr5qCGlr1MNTdrbg" x1="16.019" x2="24.935" y1="13.95" y2="40.834" gradientUnits="userSpaceOnUse"><stop offset="0" stop-color="#ffcf54"/><stop offset=".261" stop-color="#fdcb4d"/><stop offset=".639" stop-color="#f7c13a"/><stop offset="1" stop-color="#f0b421"/></linearGradient><circle cx="23" cy="35" r="3" fill="url(#CHuzbYsr5qCGlr1MNTdrbg)"/><linearGradient id="CHuzbYsr5qCGlr1MNTdrbh" x1="7.437" x2="18.334" y1="15.264" y2="48.122" gradientUnits="userSpaceOnUse"><stop offset="0" stop-color="#ffcf54"/><stop offset=".261" stop-color="#fdcb4d"/><stop offset=".639" stop-color="#f7c13a"/><stop offset="1" stop-color="#f0b421"/></linearGradient><circle cx="10.5" cy="24.5" r="5.5" fill="url(#CHuzbYsr5qCGlr1MNTdrbh)"/><linearGradient id="CHuzbYsr5qCGlr1MNTdrbi" x1="13.437" x2="24.334" y1="9.264" y2="42.122" gradientUnits="userSpaceOnUse"><stop offset="0" stop-color="#ffcf54"/><stop offset=".261" stop-color="#fdcb4d"/><stop offset=".639" stop-color="#f7c13a"/><stop offset="1" stop-color="#f0b421"/></linearGradient><circle cx="16.5" cy="18.5" r="5.5" fill="url(#CHuzbYsr5qCGlr1MNTdrbi)"/><linearGradient id="CHuzbYsr5qCGlr1MNTdrbj" x1="10.409" x2="20.316" y1="12.104" y2="41.975" gradientUnits="userSpaceOnUse"><stop offset="0" stop-color="#ffcf54"/><stop offset=".261" stop-color="#fdcb4d"/><stop offset=".639" stop-color="#f7c13a"/><stop offset="1" stop-color="#f0b421"/></linearGradient><circle cx="18.5" cy="36.5" r="2.5" fill="url(#CHuzbYsr5qCGlr1MNTdrbj)"/></svg>