<svg xmlns="http://www.w3.org/2000/svg" xmlns:xlink="http://www.w3.org/1999/xlink" data-name="Слой 1" viewBox="0 0 48 48"><defs><linearGradient id="265jt_01Qxe7s~yGt9mtIa" x1="18.865" x2="29.135" y1="14.391" y2="42.609" data-name="Безымянный градиент 17" gradientUnits="userSpaceOnUse"><stop offset="0" stop-color="#a1aab3"/><stop offset="1" stop-color="#8f979e"/></linearGradient><linearGradient id="265jt_01Qxe7s~yGt9mtIb" x1="24" x2="24" y1="8.576" y2="11.755" xlink:href="#265jt_01Qxe7s~yGt9mtIa"/><linearGradient id="265jt_01Qxe7s~yGt9mtIc" x1="10.045" x2="27.819" y1="-2.973" y2="45.86" data-name="Безымянный градиент 121" gradientUnits="userSpaceOnUse"><stop offset="0" stop-color="#f44f5a"/><stop offset=".443" stop-color="#ee3d4a"/><stop offset="1" stop-color="#e52030"/></linearGradient><linearGradient id="265jt_01Qxe7s~yGt9mtId" x1="22.223" x2="24.424" y1="-4.33" y2="5.99" data-name="Безымянный градиент 143" gradientUnits="userSpaceOnUse"><stop offset="0" stop-color="#889097"/><stop offset="1" stop-color="#4c5963"/></linearGradient></defs><rect width="4" height="30.5" x="22" y="13.25" fill="url(#265jt_01Qxe7s~yGt9mtIa)"/><path d="M22,23.92v1.13l2,1.05,2-1.05V23.92l-2,1.05Zm2-5.41L22,19.65V20.8l2-1.14,2,1.14V19.65ZM22,34.83v1.1l2,.89,2-.89v-1.1l-2,.89Zm2-6.48L22,29.4v1.13l2-1.05,2,1.05V29.4Zm-2-4.43v1.13l2,1.05,2-1.05V23.92l-2,1.05Zm2-5.41L22,19.65V20.8l2-1.14,2,1.14V19.65ZM22,34.83v1.1l2,.89,2-.89v-1.1l-2,.89Zm2-6.48L22,29.4v1.13l2-1.05,2,1.05V29.4Zm-2-4.43v1.13l2,1.05,2-1.05V23.92l-2,1.05Zm2-5.41L22,19.65V20.8l2-1.14,2,1.14V19.65ZM22,34.83v1.1l2,.89,2-.89v-1.1l-2,.89Zm2-6.48L22,29.4v1.13l2-1.05,2,1.05V29.4ZM22,39.9V41l2-.89L26,41V39.9L24,39.01Zm2-24.85-2-1.14v1.15l2,1.15,2-1.15V13.91Z" opacity=".05"/><path d="M22,24.48v.57l2,1.05,2-1.05v-.57l-2,1.05Zm2-5.97L22,19.65v.57l2-1.14,2,1.14v-.57ZM22,35.38v.55l2,.89,2-.89v-.55l-2,.89Zm2-7.03L22,29.4v.57l2-1.05,2,1.05V29.4Zm-2-3.87v.57l2,1.05,2-1.05v-.57l-2,1.05Zm2-5.97L22,19.65v.57l2-1.14,2,1.14v-.57ZM22,35.38v.55l2,.89,2-.89v-.55l-2,.89Zm2-7.03L22,29.4v.57l2-1.05,2,1.05V29.4Zm-2-3.87v.57l2,1.05,2-1.05v-.57l-2,1.05Zm2-5.97L22,19.65v.57l2-1.14,2,1.14v-.57ZM22,35.38v.55l2,.89,2-.89v-.55l-2,.89Zm2-7.03L22,29.4v.57l2-1.05,2,1.05V29.4ZM22,39.9v.55l2-.89,2,.89V39.9L24,39.01Zm2-24.27-2-1.14v.57l2,1.15,2-1.15v-.57Z" opacity=".07"/><path fill="url(#265jt_01Qxe7s~yGt9mtIb)" d="M23,9h2a2,2,0,0,1,2,2v2a0,0,0,0,1,0,0H21a0,0,0,0,1,0,0V11A2,2,0,0,1,23,9Z"/><path fill="url(#265jt_01Qxe7s~yGt9mtIc)" d="M37.97949,43.25293l-5-30A1.4996,1.4996,0,0,0,31.5,12h-15a1.49961,1.49961,0,0,0-1.47949,1.25293l-5,30A1.49977,1.49977,0,0,0,11.5,45h25a1.49977,1.49977,0,0,0,1.47949-1.74707ZM17.77051,15h.08911l4.12506,2.35712-5.092,2.90966ZM32.71094,32.92773,24,36.8197l-8.71094-3.892L24,28.35461ZM17.08008,22.46289,24,18.50873l6.91992,3.95416L24,26.09558Zm9.07147,4.76221L31.775,24.27289l1.07843,6.47046ZM30.22949,15l.87781,5.26678-5.092-2.90966L30.14038,15ZM24,16.20551,21.89038,15h4.21924Zm-7.775,8.06738,5.62341,2.95221-6.70184,3.51825ZM14.47791,34.7558,21.54846,37.915,13.34009,41.5824ZM24,39.01038,30.6911,42H17.3089Zm2.45154-1.0954,7.07055-3.15918,1.13782,6.8266Z"/><path fill="url(#265jt_01Qxe7s~yGt9mtId)" d="M28.41968,1.58325a2.00614,2.00614,0,0,0-2.837.00861,5.15071,5.15071,0,0,0-.89654,4.01459.148.148,0,0,0,.033.05444.13382.13382,0,0,0,.18914-.00055c.007-.007.01368-.01709.01947-.02423.75971-1.20056,2.32734-.05982,3.48334-1.21582A2.01545,2.01545,0,0,0,28.41968,1.58325ZM19.58032,3.63348a2.01545,2.01545,0,0,0,.00861,2.837c1.156,1.156,2.72363.01526,3.48334,1.21588.00579.00708.01245.01715.01947.02417a.13382.13382,0,0,0,.18914.00055.148.148,0,0,0,.033-.05444,5.15076,5.15076,0,0,0-.89654-4.01459A2.00619,2.00619,0,0,0,19.58032,3.63348Z"/><rect width="6" height="1" x="21" y="11" opacity=".05"/><rect width="6" height=".5" x="21" y="11.5" opacity=".07"/></svg>