<svg xmlns="http://www.w3.org/2000/svg" data-name="Слой 1" viewBox="0 0 48 48"><defs><linearGradient id="tZBd9UiqXUT7mnleVvSbCa" x1="14.242" x2="30.172" y1="-132.358" y2="-162.695" data-name="Безымянный градиент 20" gradientTransform="matrix(1 0 0 -1 0 -124)" gradientUnits="userSpaceOnUse"><stop offset="0" stop-color="#2aa4f4"/><stop offset="1" stop-color="#007ad9"/></linearGradient><linearGradient id="tZBd9UiqXUT7mnleVvSbCb" x1="24.5" x2="24.5" y1="-37.112" y2="-24.052" data-name="Безымянный градиент 19" gradientTransform="translate(0 70)" gradientUnits="userSpaceOnUse"><stop offset=".9" stop-color="#6d7882"/><stop offset=".917" stop-color="#45494d"/></linearGradient></defs><path fill="url(#tZBd9UiqXUT7mnleVvSbCa)" d="M48,26A11.99669,11.99669,0,0,1,36,38H9.5A9.50212,9.50212,0,0,1,7.45,19.22a16.0056,16.0056,0,0,1,28.79-5.21A11.98419,11.98419,0,0,1,48,26Z"/><path fill="#0553a4" d="M32,35H17a.94477.94477,0,0,1-1-1V31a.94477.94477,0,0,1,1-1H32a.94477.94477,0,0,1,1,1v3A.94477.94477,0,0,1,32,35Z"/><path fill="#50e6ff" d="M19,28H30a1.02782,1.02782,0,0,1,1,1.1v4.2H18V29.1A1.02782,1.02782,0,0,1,19,28Z"/><path fill="url(#tZBd9UiqXUT7mnleVvSbCb)" d="M34,46H15a1.00209,1.00209,0,0,1-1-1V34a1.00209,1.00209,0,0,1,1-1H34a1.00209,1.00209,0,0,1,1,1V45A1.07539,1.07539,0,0,1,34,46Z"/><path fill="#252525" d="M32.1,43H16.9a1.00209,1.00209,0,0,1-1-1h0a1.00209,1.00209,0,0,1,1-1H32a1.00209,1.00209,0,0,1,1,1h0A.98655.98655,0,0,1,32.1,43Z"/><path fill="#50e6ff" d="M30,48H19a.94477.94477,0,0,1-1-1V41.6H31V47A.94477.94477,0,0,1,30,48Z"/><rect width="13" height="1" x="18" y="41" fill="#199ae0"/><circle cx="32" cy="37" r="1" fill="#eef2f3"/><g><path d="M34,32V31a1.93312,1.93312,0,0,0-2-2,2.10708,2.10708,0,0,0-.61-1.42A1.9581,1.9581,0,0,0,30,27H19a2.02522,2.02522,0,0,0-2,2,1.93312,1.93312,0,0,0-2,2v1a2.00587,2.00587,0,0,0-2,2v4h1V34a1.00206,1.00206,0,0,1,1-1h1V31a.94476.94476,0,0,1,1-1h1v-.9A1.02783,1.02783,0,0,1,19,28H30a1.02783,1.02783,0,0,1,1,1.1V30h1a.94476.94476,0,0,1,1,1v2h1a1.0021,1.0021,0,0,1,1,1v4h1V34A2.00587,2.00587,0,0,0,34,32Z" opacity=".05"/><path d="M34,32.5h-.5V31A1.44984,1.44984,0,0,0,32,29.5h-.5v-.4A1.51663,1.51663,0,0,0,30,27.5H19a1.51663,1.51663,0,0,0-1.5,1.6v.4H17A1.44984,1.44984,0,0,0,15.5,31v1.5H15A1.498,1.498,0,0,0,13.5,34v4H14V34a1.00206,1.00206,0,0,1,1-1h1V31a.94476.94476,0,0,1,1-1h1v-.9A1.02783,1.02783,0,0,1,19,28H30a1.02783,1.02783,0,0,1,1,1.1V30h1a.94476.94476,0,0,1,1,1v2h1a1.0021,1.0021,0,0,1,1,1v4h.5V34A1.498,1.498,0,0,0,34,32.5Z" opacity=".07"/></g></svg>