<svg xmlns="http://www.w3.org/2000/svg" viewBox="0 0 48 48"><linearGradient id="XODjG520wsC26Q0BKE972a" x1="14.242" x2="30.172" y1="8.358" y2="38.695" gradientUnits="userSpaceOnUse"><stop offset="0" stop-color="#2aa4f4"/><stop offset="1" stop-color="#007ad9"/></linearGradient><path fill="url(#XODjG520wsC26Q0BKE972a)" d="M48,26c0,6.63-5.37,12-12,12c-1.8,0-24.66,0-26.5,0C4.25,38,0,33.75,0,28.5	c0-4.54,3.18-8.34,7.45-9.28C9.15,12.21,15.46,7,23,7c5.51,0,10.36,2.78,13.24,7.01C42.76,14.13,48,19.45,48,26z"/><path d="M24.179,28.926C23.945,28.363,23.401,28,22.793,28H22V17.5c0-0.827-0.673-1.5-1.5-1.5h-1	c-0.827,0-1.5,0.673-1.5,1.5V28h-0.793c-0.608,0-1.152,0.363-1.386,0.926c-0.233,0.562-0.105,1.203,0.325,1.635l2.793,2.793	c0.292,0.293,0.676,0.438,1.061,0.438s0.768-0.146,1.061-0.438l2.793-2.793C24.284,30.129,24.412,29.487,24.179,28.926z" opacity=".05"/><path d="M23.717,29.117c-0.156-0.375-0.518-0.617-0.924-0.617H21.5v-11c0-0.552-0.449-1-1-1h-1	c-0.551,0-1,0.448-1,1v11h-1.293c-0.406,0-0.768,0.242-0.924,0.617c-0.155,0.374-0.07,0.803,0.217,1.09L19.293,33	c0.195,0.195,0.451,0.292,0.707,0.292s0.512-0.097,0.707-0.292l2.793-2.793C23.787,29.92,23.872,29.491,23.717,29.117z" opacity=".07"/><path fill="#fff" d="M22.793,29H21V17.5c0-0.276-0.224-0.5-0.5-0.5h-1c-0.276,0-0.5,0.224-0.5,0.5V29h-1.793	c-0.445,0-0.669,0.539-0.354,0.854l2.793,2.793c0.195,0.195,0.512,0.195,0.707,0l2.793-2.793C23.461,29.539,23.238,29,22.793,29z"/><path d="M23.821,20.074C24.055,20.637,24.599,21,25.207,21H26v10.5c0,0.827,0.673,1.5,1.5,1.5h1	c0.827,0,1.5-0.673,1.5-1.5V21h0.793c0.608,0,1.152-0.363,1.386-0.926c0.233-0.562,0.105-1.203-0.325-1.635l-2.793-2.793	c-0.292-0.293-0.676-0.438-1.061-0.438s-0.768,0.146-1.061,0.438l-2.793,2.793C23.716,18.871,23.588,19.513,23.821,20.074z" opacity=".05"/><path d="M24.283,19.883c0.156,0.375,0.518,0.617,0.924,0.617H26.5v11c0,0.552,0.449,1,1,1h1	c0.551,0,1-0.448,1-1v-11h1.293c0.406,0,0.768-0.242,0.924-0.617c0.155-0.374,0.07-0.803-0.217-1.09L28.707,16	c-0.195-0.195-0.451-0.292-0.707-0.292S27.488,15.805,27.293,16L24.5,18.793C24.213,19.08,24.128,19.509,24.283,19.883z" opacity=".07"/><path fill="#fff" d="M25.207,20H27v11.5c0,0.276,0.224,0.5,0.5,0.5h1c0.276,0,0.5-0.224,0.5-0.5V20h1.793	c0.445,0,0.669-0.539,0.354-0.854l-2.793-2.793c-0.195-0.195-0.512-0.195-0.707,0l-2.793,2.793C24.539,19.461,24.762,20,25.207,20z"/></svg>