<svg xmlns="http://www.w3.org/2000/svg" viewBox="0 0 48 48"><linearGradient id="stg5SEW~JSP5I8ZshrTQUa" x1="13" x2="23" y1="36" y2="36" gradientUnits="userSpaceOnUse"><stop offset="0" stop-color="#c965eb"/><stop offset="1" stop-color="#c767e5"/></linearGradient><path fill="url(#stg5SEW~JSP5I8ZshrTQUa)" d="M14,30h8c0.552,0,1,0.448,1,1v1.586c0,0.265-0.105,0.52-0.293,0.707L17,39h5	c0.552,0,1,0.448,1,1v1c0,0.552-0.448,1-1,1h-8c-0.552,0-1-0.448-1-1v-1.589c0-0.263,0.104-0.516,0.289-0.703L18.938,33H14	c-0.552,0-1-0.448-1-1v-1C13,30.448,13.448,30,14,30z"/><linearGradient id="stg5SEW~JSP5I8ZshrTQUb" x1="28" x2="40" y1="23.5" y2="23.5" gradientUnits="userSpaceOnUse"><stop offset="0" stop-color="#ae4cd5"/><stop offset="1" stop-color="#ac4ad5"/></linearGradient><path fill="url(#stg5SEW~JSP5I8ZshrTQUb)" d="M29,16h10c0.552,0,1,0.448,1,1v1.609c0,0.251-0.095,0.494-0.265,0.679L31.687,28H39	c0.552,0,1,0.448,1,1v1c0,0.552-0.448,1-1,1H29c-0.552,0-1-0.448-1-1v-1.622c0-0.244,0.089-0.479,0.25-0.661L35.938,19H29	c-0.552,0-1-0.448-1-1v-1C28,16.448,28.448,16,29,16z"/><linearGradient id="stg5SEW~JSP5I8ZshrTQUc" x1="8" x2="24.046" y1="16" y2="16" gradientUnits="userSpaceOnUse"><stop offset="0" stop-color="#912fbd"/><stop offset="1" stop-color="#9332bf"/></linearGradient><path fill="url(#stg5SEW~JSP5I8ZshrTQUc)" d="M19,10H9c-0.552,0-1-0.448-1-1V7c0-0.552,0.448-1,1-1h14.046c0.558,0,1.009,0.457,1,1.015	l-0.04,2.604c-0.004,0.245-0.097,0.48-0.263,0.66L13,22h10c0.552,0,1,0.448,1,1v2c0,0.552-0.448,1-1,1H9c-0.552,0-1-0.448-1-1v-2.55	c0-0.249,0.093-0.49,0.261-0.674L19,10z"/></svg>