<svg xmlns="http://www.w3.org/2000/svg" viewBox="0 0 48 48"><linearGradient id="xpydBQZPQYZ5P16cC16~4a" x1="24" x2="24" y1="8.605" y2="22.667" gradientUnits="userSpaceOnUse"><stop offset=".002" stop-color="#427fdb"/><stop offset=".397" stop-color="#2668cb"/><stop offset=".763" stop-color="#1358bf"/><stop offset="1" stop-color="#0c52bb"/></linearGradient><ellipse cx="24" cy="14.017" fill="url(#xpydBQZPQYZ5P16cC16~4a)" rx="2" ry="4"/><linearGradient id="xpydBQZPQYZ5P16cC16~4b" x1="24" x2="24" y1="14.605" y2="47.019" gradientUnits="userSpaceOnUse"><stop offset="0" stop-color="#32bdef"/><stop offset="1" stop-color="#1ea2e4"/></linearGradient><path fill="url(#xpydBQZPQYZ5P16cC16~4b)" d="M43.999,40.033c0-0.007,0.001-0.014,0.001-0.021c0-13.995-6-25.995-20-25.995	s-20,12-20,25.995c0,0.007,0.001,0.014,0.001,0.021H43.999z"/><linearGradient id="xpydBQZPQYZ5P16cC16~4c" x1="24" x2="24" y1="38.37" y2="44.668" gradientUnits="userSpaceOnUse"><stop offset="0" stop-color="#a8e2f7"/><stop offset="1" stop-color="#47c1ff"/></linearGradient><path fill="url(#xpydBQZPQYZ5P16cC16~4c)" d="M44.5,42.017h-41c-0.828,0-1.5-0.672-1.5-1.5l0,0c0-0.828,0.672-1.5,1.5-1.5h41	c0.828,0,1.5,0.672,1.5,1.5l0,0C46,41.345,45.328,42.017,44.5,42.017z"/><g opacity=".05"><path d="M29,23.017v10H19v-10H29 M30,22.017h-1H19h-1v1v10v1h1h10h1v-1v-10V22.017L30,22.017z"/><path d="M24,20.945l7.071,7.071L24,35.088l-7.071-7.071L24,20.945 M24,19.531l-0.707,0.707l-7.071,7.071l-0.707,0.707l0.707,0.707 l7.071,7.071L24,36.502l0.707-0.707l7.071-7.071l0.707-0.707l-0.707-0.707l-7.071-7.071L24,19.531L24,19.531z"/></g><g opacity=".07"><path d="M29,23.017v10H19v-10H29 M29.5,22.517H29H19h-0.5v0.5v10v0.5H19h10h0.5v-0.5v-10V22.517L29.5,22.517z"/><path d="M24,20.945l7.071,7.071L24,35.088l-7.071-7.071L24,20.945 M24,20.238l-0.354,0.354l-7.071,7.071l-0.354,0.354l0.354,0.354 l7.071,7.071L24,35.795l0.354-0.354l7.071-7.071l0.354-0.354l-0.354-0.354l-7.071-7.071L24,20.238L24,20.238z"/></g><rect width="10" height="10" x="19" y="23.017" fill="#fff"/><rect width="10" height="10" x="19" y="23.017" fill="#fff" transform="rotate(-45.001 24 28.017)"/></svg>