<svg xmlns="http://www.w3.org/2000/svg" viewBox="0 0 48 48"><linearGradient id="y0KUQPJfyYKx6wpgbJT1Ba" x1="21.505" x2="28.093" y1="4.041" y2="56.745" gradientUnits="userSpaceOnUse"><stop offset="0" stop-color="#33bef0"/><stop offset=".048" stop-color="#30baee"/><stop offset=".429" stop-color="#1b9de3"/><stop offset=".76" stop-color="#0f8bdc"/><stop offset="1" stop-color="#0a85d9"/></linearGradient><circle cx="24" cy="24" r="20" fill="url(#y0KUQPJfyYKx6wpgbJT1Ba)"/><linearGradient id="y0KUQPJfyYKx6wpgbJT1Bb" x1="6.541" x2="12.406" y1="29.296" y2="35.093" gradientUnits="userSpaceOnUse"><stop offset="0" stop-color="#a4e140"/><stop offset="1" stop-color="#66ab30"/></linearGradient><path fill="url(#y0KUQPJfyYKx6wpgbJT1Bb)" d="M6.741,28.671 c3.678-1.014,8.016,0.029,9.612,5.818c0,0-1.68,2.293-2.335,2.543c-5.9-5.722-10.579-3.319-11.018-4.909 C2.645,30.837,3.905,29.452,6.741,28.671z"/><linearGradient id="y0KUQPJfyYKx6wpgbJT1Bc" x1="34.242" x2="44.946" y1="24.732" y2="24.732" gradientUnits="userSpaceOnUse"><stop offset="0" stop-color="#66ab30"/><stop offset="1" stop-color="#a4e140"/></linearGradient><path fill="url(#y0KUQPJfyYKx6wpgbJT1Bc)" d="M39.938,19.523 c-3.678,1.014-6.87,4.131-5.275,9.92c0,0,2.848,0.971,3.539,0.85c2.136-7.937,7.156-8.132,6.717-9.722 C44.565,19.285,42.773,18.742,39.938,19.523z"/><path fill="#424242" d="M11,20.771c0,0-1.411-2.099-3.088-2.628c-0.935-0.295-2.047-0.069-3.091,0.217 c-0.228,0.776-0.399,1.574-0.532,2.385c0.438,0.332,0.942,0.635,1.519,0.816c0.074,0.023,0.142,0.038,0.214,0.058 c-0.745,0.724-1.331,1.763-2.019,2.351C4.001,23.981,4,23.99,4,24c0,0.219,0.026,0.432,0.033,0.65 c0.794,0.253,2.117,0.538,3.397,0.186c3.529-0.973,3.93-3.486,3.93-3.486s-0.305-0.113-0.769-0.239 C10.861,20.921,11,20.771,11,20.771z"/><path fill="#a4e140" d="M17.959,15.123c0.532,0.239,3.028,0.036,3.028,0.036c2.468-4.345,0.528-7.511-2.233-9.079 c-0.679-0.385-1.291-0.627-1.84-0.765c-0.834,0.317-1.652,0.668-2.428,1.089C14.855,7.523,17.868,9.202,17.959,15.123z"/><linearGradient id="y0KUQPJfyYKx6wpgbJT1Bd" x1="19.011" x2="29.933" y1="9.007" y2="46.119" gradientUnits="userSpaceOnUse"><stop offset="0" stop-color="#a4e140"/><stop offset=".253" stop-color="#9ddc3e"/><stop offset=".612" stop-color="#8bce3a"/><stop offset="1" stop-color="#6fba34"/></linearGradient><path fill="url(#y0KUQPJfyYKx6wpgbJT1Bd)" d="M33.318,12.572 C32.3,8.878,28.48,6.708,24.786,7.726l-11.075,3.052c-3.694,1.018-5.864,4.838-4.846,8.532l6.618,22.766 C18.07,43.297,20.95,44,24,44c6.604,0,12.443-3.215,16.085-8.151L33.318,12.572z"/><linearGradient id="y0KUQPJfyYKx6wpgbJT1Be" x1="19.949" x2="22.309" y1="11.163" y2="18.242" gradientUnits="userSpaceOnUse"><stop offset="0" stop-color="#636363"/><stop offset=".168" stop-color="#5b5b5b"/><stop offset=".646" stop-color="#4a4a4a"/><stop offset="1" stop-color="#444"/></linearGradient><path fill="url(#y0KUQPJfyYKx6wpgbJT1Be)" d="M34.937,14.786 c-0.103-0.374-0.355-0.666-0.672-0.836c0.161-0.298,0.214-0.655,0.117-1.007c-0.111-0.403-0.395-0.707-0.747-0.869 c0.254-0.327,0.36-0.763,0.242-1.193C33.714,10.29,33.183,9.905,32.6,9.89l-0.005-0.018C32.309,9.87,27.32,9.859,19.9,11.903 c-7.243,1.996-11.446,4.899-11.446,4.899c-0.144,1.948,1.419,6.163,1.419,6.163c0.054-0.032,5.346-3.194,11.712-4.949 c6.536-1.801,12.686-1.787,12.745-1.786C34.813,15.916,35.098,15.371,34.937,14.786z"/><circle cx="16.754" cy="24.03" r=".906" fill="#424242"/><circle cx="28.971" cy="20.663" r=".906" fill="#424242"/><linearGradient id="y0KUQPJfyYKx6wpgbJT1Bf" x1="22.638" x2="25.019" y1="21.468" y2="30.259" gradientUnits="userSpaceOnUse"><stop offset="0" stop-color="#636363"/><stop offset=".402" stop-color="#5a5a5a"/><stop offset="1" stop-color="#444"/></linearGradient><path fill="url(#y0KUQPJfyYKx6wpgbJT1Bf)" d="M32.711,24.006 c0.568,2.061-0.873,7.139-6.966,8.818c-6.116,1.685-9.926-1.922-10.5-4.005c-0.798-2.896,3.347-1.55,8.573-2.989 C29.057,24.386,31.916,21.121,32.711,24.006z"/><path fill="#ffadc8" d="M25.623,32.388c2.589-0.713,4.213-2.479,5.324-3.927c-0.827-1.325-2.44-2.021-4.023-1.585 c-1.049,0.289-1.849,1.018-2.288,1.926c-0.842-0.556-1.902-0.772-2.952-0.483c-1.587,0.437-2.618,1.867-2.644,3.434 C20.734,32.424,23.027,33.103,25.623,32.388z"/><path fill="#fff" d="M22.838,30.806c-0.513,0.141-0.928,0.454-1.219,0.853c-0.395-0.716-1.238-1.098-2.061-0.871 c-0.672,0.185-1.142,0.728-1.281,1.365c1.79,0.998,4.302,1.53,7.421,0.682c-0.01-0.148-0.035-0.298-0.076-0.447 C25.29,31.182,24.043,30.474,22.838,30.806z"/><path fill="#fff" d="M25.786,32.811c3.104-0.867,4.989-2.617,6.017-4.395c-0.445-0.471-1.123-0.693-1.791-0.508 c-0.823,0.227-1.351,0.987-1.324,1.804c-0.454-0.194-0.971-0.25-1.484-0.108c-1.206,0.332-1.914,1.579-1.582,2.785 C25.664,32.537,25.719,32.678,25.786,32.811z"/><polygon fill="#fff" points="25.699,32.835 25.786,32.811 25.699,32.432 25.574,32.379 25.489,32.612"/></svg>