<svg xmlns="http://www.w3.org/2000/svg" viewBox="0 0 48 48"><linearGradient id="K_Pplihjq2HJzAWv1OltNa" x1="16.36" x2="45.816" y1="-73.441" y2="-121.861" gradientTransform="matrix(1 0 0 -1 0 -62)" gradientUnits="userSpaceOnUse"><stop offset="0" stop-color="#dfe9f2"/><stop offset=".998" stop-color="#9ea7b0"/></linearGradient><path fill="url(#K_Pplihjq2HJzAWv1OltNa)" d="M44,24c0-11.045-8.955-20-20-20S4,12.955,4,24s8.955,20,20,20S44,35.045,44,24z"/><linearGradient id="K_Pplihjq2HJzAWv1OltNb" x1="16.239" x2="36.296" y1="14.379" y2="39.243" gradientUnits="userSpaceOnUse"><stop offset="0" stop-color="#0d61a9"/><stop offset="1" stop-color="#16528c"/></linearGradient><path fill="url(#K_Pplihjq2HJzAWv1OltNb)" d="M39.973,36H8.027c1.141,1.517,2.49,2.862,4.009,4h23.927	C37.483,38.862,38.831,37.517,39.973,36z M35.964,8H12.036c-1.519,1.138-2.868,2.483-4.009,4h31.946	C38.831,10.483,37.483,9.138,35.964,8z M17.008,28h4.668l1.461,2.504L24,31.984l0.863-1.48L26.324,28h4.668l-0.879-1.504L28.656,24	l1.457-2.496L30.992,20h-4.668l-1.461-2.504L24,16.016l-0.863,1.48L21.676,20h-4.668l0.879,1.504L19.344,24l-1.457,2.496L17.008,28z M24,30l-1.168-2h2.332L24,30z M22.25,27l-1.75-3l1.75-3h3.5l1.75,3l-1.75,3H22.25z M29.25,27h-2.344l1.172-2.008L29.25,27z M29.25,21l-1.172,2.008L26.906,21H29.25z M24,18l1.168,2h-2.332L24,18z M18.75,21h2.344l-1.172,2.008L18.75,21z M19.922,24.992	L21.094,27H18.75L19.922,24.992z"/></svg>