<svg xmlns="http://www.w3.org/2000/svg" viewBox="0 0 48 48"><linearGradient id="XpIeNzLIhOS4WvBcgRtAXa" x1="5.825" x2="38.123" y1="4.317" y2="39.295" gradientUnits="userSpaceOnUse"><stop offset="0" stop-color="#7dd8f3"/><stop offset="1" stop-color="#45b0d0"/></linearGradient><path fill="url(#XpIeNzLIhOS4WvBcgRtAXa)" d="M40,6H8C6.895,6,6,6.895,6,8v32c0,1.105,0.895,2,2,2h32c1.105,0,2-0.895,2-2V8	C42,6.895,41.105,6,40,6z"/><path d="M36.791,24.382v-7.687h-3.589l-0.266,0.59c-0.258,0.572-0.582,1.185-0.965,1.819	c-0.395,0.653-0.824,1.307-1.276,1.942c-0.456,0.643-0.941,1.287-1.442,1.913c-0.347,0.433-0.686,0.837-1.021,1.228	c-0.027-0.094-0.04-0.196-0.071-0.286c-0.205-0.586-0.507-1.095-0.896-1.512c-0.396-0.426-0.877-0.755-1.429-0.977	c-0.536-0.217-1.136-0.327-1.781-0.327c-0.419,0-0.813,0.048-1.182,0.143c0.083-0.167,0.177-0.316,0.279-0.447	c0.19-0.243,0.407-0.42,0.663-0.542c0.257-0.124,0.536-0.184,0.853-0.184c0.312,0,0.584,0.035,0.809,0.104	c0.264,0.082,0.515,0.183,0.746,0.301l1.455,0.742v-4.002l-0.573-0.27c-0.308-0.146-0.684-0.253-1.149-0.331	c-0.419-0.069-0.886-0.104-1.387-0.104c-0.869,0-1.69,0.185-2.441,0.547c-0.754,0.363-1.416,0.897-1.967,1.588	c-0.339,0.425-0.627,0.92-0.873,1.467h-3.523l-1.298,2.319l-1.233-2.319H8.577l3.354,5.308l-3.6,5.192h4.713l1.294-2.243	l1.273,2.243h4.683l-3.466-5.203l1.737-2.639c-0.062,0.5-0.102,1.021-0.102,1.57c0,0.993,0.114,1.888,0.339,2.659	c0.234,0.803,0.576,1.494,1.018,2.054c0.46,0.582,1.019,1.028,1.659,1.325c0.631,0.293,1.327,0.441,2.068,0.441	c0.688,0,1.34-0.124,1.938-0.369c0.603-0.249,1.133-0.604,1.577-1.058c0.386-0.398,0.687-0.873,0.924-1.396h4.936v2.615h3.868	v-2.615h1.769v-3.602H36.791z M24.432,26.544c-0.049,0.158-0.117,0.292-0.202,0.399c-0.067,0.085-0.149,0.149-0.259,0.201	c-0.106,0.051-0.243,0.077-0.406,0.077c-0.167,0-0.296-0.029-0.395-0.089c-0.139-0.085-0.244-0.185-0.332-0.314	c-0.102-0.149-0.18-0.319-0.23-0.505c-0.057-0.209-0.085-0.414-0.085-0.607c0-0.147,0.025-0.295,0.074-0.437	c0.044-0.128,0.104-0.232,0.188-0.327c0.084-0.094,0.184-0.167,0.314-0.229c0.116-0.055,0.267-0.083,0.448-0.083	c0.186,0,0.343,0.027,0.456,0.078c0.104,0.047,0.183,0.106,0.249,0.188c0.076,0.095,0.137,0.219,0.18,0.37	c0.055,0.193,0.083,0.417,0.083,0.664C24.516,26.154,24.487,26.361,24.432,26.544z M32.923,24.382h-0.4	c0.132-0.176,0.265-0.356,0.4-0.542V24.382z" opacity=".05"/><polygon points="15.902,30.099 14.342,27.35 12.755,30.099 9.286,30.099 12.53,25.419 9.484,20.599 12.933,20.599 14.455,23.461 16.058,20.599 19.388,20.599 16.229,25.397 19.36,30.099" opacity=".07"/><path fill="#fff" d="M18.46,21.099l-2.831,4.3l2.798,4.2h-2.233l-1.494-2.632c-0.094-0.16-0.205-0.365-0.332-0.614h-0.033	c-0.022,0.05-0.139,0.255-0.349,0.614l-1.52,2.632h-2.225l2.889-4.167l-2.738-4.333h2.24l1.47,2.764	c0.11,0.205,0.219,0.415,0.323,0.631h0.025l1.9-3.395H18.46z"/><path d="M23.548,30.306c-0.668,0-1.293-0.133-1.857-0.395c-0.571-0.265-1.067-0.662-1.478-1.181	c-0.401-0.509-0.714-1.143-0.93-1.883c-0.212-0.726-0.319-1.574-0.319-2.519c0-1.146,0.141-2.181,0.417-3.077	c0.279-0.908,0.673-1.684,1.17-2.306c0.503-0.631,1.105-1.119,1.793-1.45c0.684-0.331,1.433-0.498,2.225-0.498	c0.474,0,0.912,0.033,1.306,0.098c0.419,0.07,0.751,0.165,1.017,0.29l0.287,0.135v2.869l-0.728-0.371	c-0.255-0.13-0.532-0.242-0.826-0.333c-0.271-0.084-0.593-0.127-0.956-0.127c-0.394,0-0.743,0.076-1.069,0.233	c-0.326,0.156-0.601,0.379-0.84,0.684c-0.246,0.313-0.444,0.71-0.588,1.182c-0.045,0.146-0.083,0.3-0.115,0.462	c0.076-0.048,0.154-0.093,0.235-0.135c0.504-0.264,1.098-0.397,1.764-0.397c0.581,0,1.117,0.098,1.594,0.291	c0.483,0.194,0.904,0.481,1.25,0.854c0.342,0.367,0.607,0.816,0.79,1.337c0.178,0.507,0.269,1.081,0.269,1.705	c0,0.659-0.11,1.271-0.329,1.821c-0.22,0.549-0.53,1.033-0.924,1.438c-0.396,0.405-0.87,0.722-1.409,0.944	C24.758,30.194,24.171,30.306,23.548,30.306z M23.548,24.13c-0.256,0-0.479,0.044-0.662,0.131c-0.191,0.09-0.347,0.205-0.475,0.349	c-0.128,0.145-0.222,0.307-0.287,0.495c-0.067,0.195-0.102,0.397-0.102,0.601c0,0.237,0.034,0.485,0.103,0.738	c0.065,0.24,0.166,0.461,0.3,0.657c0.127,0.186,0.285,0.336,0.484,0.458c0.179,0.109,0.393,0.163,0.655,0.163	c0.238,0,0.447-0.042,0.622-0.126c0.177-0.084,0.319-0.196,0.435-0.341c0.124-0.155,0.221-0.344,0.288-0.562	c0.07-0.231,0.106-0.488,0.106-0.762c0-0.293-0.034-0.563-0.103-0.802c-0.061-0.215-0.152-0.399-0.272-0.547	c-0.114-0.142-0.255-0.25-0.432-0.329C24.029,24.171,23.807,24.13,23.548,24.13z" opacity=".07"/><path fill="#fff" d="M27.457,25.771c0,0.598-0.098,1.143-0.294,1.636c-0.196,0.492-0.47,0.917-0.817,1.274	c-0.35,0.356-0.763,0.633-1.241,0.83c-0.479,0.196-0.998,0.294-1.557,0.294c-0.598,0-1.146-0.116-1.647-0.349	s-0.933-0.578-1.295-1.037c-0.362-0.46-0.644-1.031-0.843-1.714c-0.199-0.684-0.299-1.477-0.299-2.379	c0-1.101,0.132-2.078,0.395-2.93c0.263-0.853,0.624-1.566,1.083-2.142c0.459-0.576,0.999-1.013,1.619-1.312	c0.619-0.299,1.289-0.448,2.008-0.448c0.449,0,0.856,0.03,1.225,0.091c0.368,0.062,0.663,0.145,0.885,0.249v1.735	c-0.283-0.145-0.584-0.266-0.905-0.365s-0.688-0.149-1.104-0.149c-0.465,0-0.894,0.094-1.286,0.282	c-0.393,0.188-0.731,0.463-1.017,0.826c-0.285,0.362-0.51,0.811-0.673,1.345c-0.163,0.533-0.247,1.149-0.253,1.847h0.05	c0.255-0.394,0.599-0.703,1.033-0.93c0.435-0.228,0.945-0.341,1.532-0.341c0.52,0,0.988,0.085,1.406,0.254	c0.418,0.168,0.775,0.412,1.071,0.73c0.296,0.317,0.524,0.705,0.685,1.162C27.377,24.688,27.457,25.202,27.457,25.771z M25.516,25.93c0-0.344-0.041-0.656-0.121-0.938s-0.202-0.524-0.365-0.726c-0.163-0.202-0.368-0.358-0.614-0.47	c-0.246-0.11-0.535-0.166-0.867-0.166s-0.624,0.06-0.876,0.179s-0.463,0.275-0.635,0.469c-0.172,0.194-0.3,0.415-0.386,0.664	s-0.129,0.504-0.129,0.764c0,0.282,0.04,0.571,0.12,0.868c0.08,0.296,0.203,0.565,0.369,0.809c0.166,0.244,0.378,0.444,0.636,0.603	c0.257,0.157,0.563,0.236,0.917,0.236c0.315,0,0.595-0.059,0.838-0.175c0.244-0.116,0.447-0.276,0.61-0.481	c0.163-0.204,0.288-0.446,0.374-0.726C25.473,26.559,25.516,26.256,25.516,25.93z"/><path d="M33.423,30.099v-2.615h-5.387v-2.309l0.126-0.142c0.482-0.542,0.976-1.129,1.481-1.76	c0.507-0.634,0.998-1.285,1.46-1.936c0.462-0.65,0.897-1.314,1.296-1.974c0.394-0.653,0.728-1.283,0.993-1.873l0.133-0.295h2.766	v7.687h1.769v2.602h-1.769v2.615H33.423z M33.423,24.882v-2.67c-0.296,0.468-0.592,0.905-0.884,1.307	c-0.355,0.486-0.697,0.942-1.024,1.364H33.423z" opacity=".07"/><path fill="#fff" d="M35.791,17.695v7.687h1.769v1.602h-1.769v2.615h-1.868v-2.615h-5.387v-1.618	c0.487-0.548,0.986-1.142,1.498-1.78c0.512-0.64,1.005-1.293,1.478-1.959c0.474-0.667,0.912-1.336,1.315-2.005	c0.404-0.67,0.745-1.312,1.021-1.926H35.791z M33.923,25.382v-4.997c-0.603,1.084-1.199,2.03-1.788,2.839	c-0.59,0.808-1.142,1.527-1.656,2.158H33.923z"/></svg>