<svg xmlns="http://www.w3.org/2000/svg" data-name="Слой 1" viewBox="0 0 48 48"><rect width="2" height="9" x="22" y="13" fill="#0370c8"/><rect width="2" height="9" x="34" y="13" fill="#0370c8"/><circle cx="37" cy="12" r="2" fill="#42a4ed"/><path fill="#42a4ed" d="M18.7466,13.0324C21.7466,12.0324,31.25,10,37,10v4s-11.8403.23033-17.8403.98033A5.557,5.557,0,0,0,18.7466,13.0324Z"/><path fill="#35c1f1" d="M1.19577,16.64518,4,25.88687,11,23,6.29912,16.41876A1,1,0,0,0,5.48538,16H1.67423A.5.5,0,0,0,1.19577,16.64518Z"/><rect width="2" height="18" x="45" y="17" fill="#35c1f1" rx="1"/><path fill="#0370c8" d="M45,24H42v4h3a2,2,0,0,0,0-4Z"/><path fill="#0370c8" d="M31,31c0,.25,1,7,1,7H31l-4-7Z"/><circle cx="32" cy="38" r="3" fill="#565b5e"/><circle cx="32" cy="38" r="1" fill="#889097"/><path fill="#42a4ed" d="M44,23v6a4,4,0,0,1-4,4H34.288l-.568-.04L6.83,29.15A3.29844,3.29844,0,0,1,4,25.89a3.29159,3.29159,0,0,1,2.86-3.27l16.33257-2.49743a.98389.98389,0,0,1,1.05322.57263A5.471,5.471,0,0,0,29,24a4.99839,4.99839,0,0,0,4.92654-4.1468.99969.99969,0,0,1,.9761-.84833C36.59892,19,40,19,40,19A3.99887,3.99887,0,0,1,44,23Z"/><circle cx="19" cy="14" r="1" fill="#42a4ed"/></svg>