<svg xmlns="http://www.w3.org/2000/svg" viewBox="0 0 48 48"><linearGradient id="y4HKxAIvvNM2O1m2JNJ3ca" x1="256.213" x2="284.496" y1="237.293" y2="209.01" gradientTransform="scale(1 -1) rotate(-45 -151.155 396.958)" gradientUnits="userSpaceOnUse"><stop offset="0" stop-color="#33d7f0"/><stop offset="1" stop-color="#0083c4"/></linearGradient><path fill="url(#y4HKxAIvvNM2O1m2JNJ3ca)" d="M38.142,38.142c-7.81,7.81-20.474,7.81-28.284,0s-7.81-20.474,0-28.284s20.474-7.81,28.284,0 S45.952,30.332,38.142,38.142z"/><path d="M26.828,21.172l-5.657-5.657c-0.781-0.781-2.047-0.781-2.828,0 l-2.828,2.828c-0.781,0.781-0.781,2.047,0,2.828l5.657,5.657l-2.58,2.58c-0.945,0.945-0.276,2.561,1.061,2.561l10.317,0 c1.104,0,2-0.895,2-2V19.653c0-1.336-1.616-2.006-2.561-1.061L26.828,21.172z" opacity=".05"/><path d="M26.828,21.879l-6.01-6.01c-0.585-0.585-1.536-0.585-2.121,0 l-2.828,2.828c-0.585,0.585-0.585,1.536,0,2.121l6.01,6.01l-2.843,2.843c-0.663,0.663-0.194,1.797,0.745,1.798l10.083,0.001 c0.887,0,1.606-0.719,1.606-1.606l-0.001-10.083c0-0.938-1.134-1.409-1.798-0.745L26.828,21.879z" opacity=".07"/><path fill="#fff" d="M29.935,19.479l-3.106,3.106l-6.364-6.364c-0.39-0.39-1.024-0.39-1.414,0l-2.828,2.828 c-0.39,0.39-0.39,1.024,0,1.414l6.364,6.364l-3.106,3.106c-0.382,0.382-0.111,1.034,0.429,1.034h9.849 c0.669,0,1.212-0.543,1.212-1.212v-9.849C30.969,19.368,30.317,19.098,29.935,19.479z"/></svg>