<svg xmlns="http://www.w3.org/2000/svg" width="48" height="48" viewBox="0 0 48 48"><linearGradient id="tEBbpn7efiWnzOeK0owZfa" x1="6" x2="42" y1="24" y2="24" gradientUnits="userSpaceOnUse"><stop offset="0" stop-color="#fede00"/><stop offset="1" stop-color="#ffd000"/></linearGradient><path fill="url(#tEBbpn7efiWnzOeK0owZfa)" d="M9,42h23l10-10V9c0-1.7-1.3-3-3-3H9C7.3,6,6,7.3,6,9v30C6,40.7,7.3,42,9,42z"/><path d="M23.641,10.006c-5.281,0.183-9.605,4.634-9.641,9.924c-0.023,3.703,1.877,7.008,5,8.774V35.5	c0,0.827,0.673,1.5,1.5,1.5H21v0.5c0,0.827,0.673,1.5,1.5,1.5h3c0.827,0,1.5-0.673,1.5-1.5V37h0.5c0.827,0,1.5-0.673,1.5-1.5v-6.81	c3.143-1.851,5-5.057,5-8.69C34,14.366,29.291,9.836,23.641,10.006z M21.777,25.474C19.447,24.524,18,22.389,18,19.9	c0-3.364,2.636-6,6-6s6,2.636,6,6c0,2.489-1.447,4.625-3.849,5.606L25,26.083V29h-2v-2.917L21.777,25.474z" opacity=".05"/><path d="M31,42v-8.8c0-1.215,0.985-2.2,2.2-2.2H42v1l-9.997,10H31z" opacity=".05"/><path d="M23.657,10.506c-5.017,0.173-9.124,4.402-9.157,9.427c-0.023,3.619,1.885,6.836,5,8.474V35.5	c0,0.551,0.448,1,1,1h1v1c0,0.551,0.448,1,1,1h3c0.552,0,1-0.449,1-1v-1h1c0.552,0,1-0.449,1-1v-7.1c3.137-1.736,5-4.854,5-8.4	C33.5,14.647,29.063,10.3,23.657,10.506z M21.589,25.937C19.066,24.909,17.5,22.596,17.5,19.9c0-3.645,2.855-6.5,6.5-6.5	s6.5,2.855,6.5,6.5c0,2.696-1.566,5.009-4.124,6.053L25.5,26.392V29.5h-3v-3.108L21.589,25.937z M25.5,32.5v1h-3v-1H25.5z" opacity=".07"/><path fill="#fff" d="M23.675,11.006c-4.749,0.164-8.643,4.179-8.674,8.931c-0.023,3.526,1.881,6.654,5,8.163v7.4 c0,0.276,0.224,0.5,0.5,0.5H22v1.5c0,0.276,0.224,0.5,0.5,0.5h3c0.276,0,0.5-0.224,0.5-0.5V36h1.5c0.276,0,0.5-0.224,0.5-0.5v-7.4 c3.1-1.6,5-4.6,5-8.1C33,14.892,28.825,10.828,23.675,11.006z M22,34v-2h4v2H22z M26.6,26.4L26,26.7V30h-4v-3.3l-0.6-0.3 c-2.7-1.1-4.4-3.6-4.4-6.5c0-3.9,3.1-7,7-7s7,3.1,7,7C31,22.8,29.3,25.3,26.6,26.4z"/><path d="M31.5,42v-8.4c0-1.16,0.94-2.1,2.1-2.1H42V32L32,42H31.5z" opacity=".07"/><path fill="#fee119" d="M32,42v-8c0-1.105,0.895-2,2-2h8L32,42z"/></svg>