<svg xmlns="http://www.w3.org/2000/svg" viewBox="0 0 48 48"><rect width="12.64" height="3" x="27.086" y="12.235" fill="#ccc" transform="rotate(-45.001 33.406 13.736)"/><circle cx="39" cy="10.267" r="2" fill="#ccc"/><circle cx="37" cy="8.017" r="2" fill="#ccc"/><rect width="3" height="12.64" x="13.094" y="5.166" fill="#ccc" transform="rotate(-45.001 14.594 11.485)"/><linearGradient id="pEJh3fLeynGkMDArOwaDPa" x1="10.309" x2="24.929" y1="7.325" y2="21.945" gradientUnits="userSpaceOnUse"><stop offset="0" stop-color="#a34f27"/><stop offset=".587" stop-color="#8b3817"/><stop offset="1" stop-color="#802d10"/></linearGradient><path fill="url(#pEJh3fLeynGkMDArOwaDPa)" d="M23.351,11.175c-2.734-2.734-7.008-2.892-9.546-0.354s-2.38,6.812,0.354,9.546	s7.008,2.892,9.546,0.354S26.085,13.909,23.351,11.175z"/><linearGradient id="pEJh3fLeynGkMDArOwaDPb" x1="23.191" x2="34.102" y1="11.708" y2="22.619" gradientUnits="userSpaceOnUse"><stop offset="0" stop-color="#a34f27"/><stop offset=".587" stop-color="#8b3817"/><stop offset="1" stop-color="#802d10"/></linearGradient><path fill="url(#pEJh3fLeynGkMDArOwaDPb)" d="M24.658,13.175c2.734-2.734,7.008-2.892,9.546-0.354c2.538,2.538,2.38,6.812-0.354,9.546	c-2.734,2.734-7.008,2.892-9.546,0.354S21.925,15.909,24.658,13.175z"/><linearGradient id="pEJh3fLeynGkMDArOwaDPc" x1="24" x2="24" y1="4.324" y2="47.118" gradientUnits="userSpaceOnUse"><stop offset="0" stop-color="#f9f9f9"/><stop offset=".26" stop-color="#f0f1f2"/><stop offset=".678" stop-color="#d9dcdf"/><stop offset="1" stop-color="#c2c8cc"/></linearGradient><path fill="url(#pEJh3fLeynGkMDArOwaDPc)" d="M40.99,18.21l-0.34,3.12l-1,8.67l-1.52,13.1c-0.12,1.09-1.04,1.92-2.13,1.92H12	c-1.09,0-2.01-0.83-2.13-1.92L8.35,30l-1-8.67l-0.34-3.12c-0.07-0.63,0.42-1.19,1.07-1.19h31.84	C40.57,17.02,41.06,17.58,40.99,18.21z"/><circle cx="9" cy="8.017" r="2" fill="#ccc"/><circle cx="11" cy="6.017" r="2" fill="#ccc"/><linearGradient id="pEJh3fLeynGkMDArOwaDPd" x1="32.563" x2="32.563" y1="18.353" y2="29.915" gradientUnits="userSpaceOnUse"><stop offset="0" stop-color="#f44f5a"/><stop offset=".443" stop-color="#ee3d4a"/><stop offset="1" stop-color="#e52030"/></linearGradient><path fill="url(#pEJh3fLeynGkMDArOwaDPd)" d="M30.154,21.207c-1.068,0.76-1.659,1.786-1.656,2.812c0.005,1.522,1.313,2.987,4.341,2.978 c0.752-0.005,1.415-0.076,2.018-0.173c0.176-0.027,0.348-0.057,0.512-0.089l0.352-1.416c-0.587,0.184-1.328,0.338-1.923,0.34 c-1.613,0.005-2.695-0.896-2.697-2.077c-0.002-0.629,0.272-1.182,0.769-1.587c0.532-0.433,1.317-0.695,2.298-0.695 c0.777,0,1.231,0.202,1.541,0.491c0.062,0.057,0.12,0.116,0.17,0.178h0.253l0.495-1.671c-0.509-0.159-1.265-0.292-2.062-0.3 C32.709,19.975,31.202,20.462,30.154,21.207"/><linearGradient id="pEJh3fLeynGkMDArOwaDPe" x1="25.546" x2="25.546" y1="18.353" y2="29.915" gradientUnits="userSpaceOnUse"><stop offset="0" stop-color="#f44f5a"/><stop offset=".443" stop-color="#ee3d4a"/><stop offset="1" stop-color="#e52030"/></linearGradient><path fill="url(#pEJh3fLeynGkMDArOwaDPe)" d="M28.03,21.469c0.218,0,0.398,0.076,0.52,0.176c0.103,0.085,0.166,0.186,0.166,0.273h0.249 l0.482-1.855h-6.546l-0.096,0.363l-0.023,0.088c0,0,0.717,0.078,0.497,0.766l-1.634,5.712l2.779,0.006h0.488l0.124-0.49 c0,0-0.611-0.141-0.451-0.685c0.008-0.034,0.238-0.846,0.375-1.334c0.061-0.211,0.105-0.362,0.105-0.362l1.496-0.001 c0.245,0,0.432,0.043,0.577,0.097c0.299,0.11,0.415,0.278,0.415,0.278l0.434-1.698h-2.522l0.272-0.97l0.103-0.362L28.03,21.469 L28.03,21.469z"/><linearGradient id="pEJh3fLeynGkMDArOwaDPf" x1="16.826" x2="16.826" y1="18.353" y2="29.915" gradientUnits="userSpaceOnUse"><stop offset="0" stop-color="#f44f5a"/><stop offset=".443" stop-color="#ee3d4a"/><stop offset="1" stop-color="#e52030"/></linearGradient><path fill="url(#pEJh3fLeynGkMDArOwaDPf)" d="M20.075,25.971c-0.194-0.199-1.876-2.718-1.876-2.718l2.974-2.289l0.099-0.076 c0.133-0.107,0.258-0.183,0.368-0.238c0.316-0.156,0.52-0.134,0.52-0.134l0.119-0.456l-3.823,0.006l-0.095,0.361l-0.023,0.09 c0.26,0.017,0.622,0.241,0.326,0.507c-0.039,0.032-3.073,2.261-3.073,2.261l0.023-0.079l0.631-2.197 c0.133-0.439,0.624-0.492,0.624-0.492l0.12-0.452l-3.65,0.001l-0.094,0.361l-0.024,0.09c0.175,0.043,0.673,0.137,0.5,0.766 c-1.218,4.233-1.079,3.814-1.161,4.045c-0.273,1.003-0.682,1.142-0.928,1.167c-0.054,0.005-0.1,0.005-0.134,0.006l-0.05,0.19 l-0.075,0.299h3.332h0.486l0.128-0.497c0,0-0.606-0.115-0.491-0.535c0.059-0.211,0.212-0.747,0.347-1.22 c0.131-0.459,0.247-0.861,0.247-0.861c0.662,1.021,0.814,1.147,1.614,2.201c0.735,0.976,1.521,0.929,3.419,0.918 c0.155-0.001,0.315-0.002,0.487-0.002l0.126-0.488C20.586,26.507,20.267,26.169,20.075,25.971"/><linearGradient id="pEJh3fLeynGkMDArOwaDPg" x1="34.31" x2="34.31" y1="27.265" y2="50.648" gradientUnits="userSpaceOnUse"><stop offset="0" stop-color="#f44f5a"/><stop offset=".443" stop-color="#ee3d4a"/><stop offset="1" stop-color="#e52030"/></linearGradient><path fill="url(#pEJh3fLeynGkMDArOwaDPg)" d="M39.65,30l-1.52,13.1c-0.12,1.09-1.04,1.92-2.13,1.92h-7.03V32c0-1.105,0.895-2,2-2H39.65z"/><linearGradient id="pEJh3fLeynGkMDArOwaDPh" x1="13.675" x2="13.675" y1="27.265" y2="50.648" gradientUnits="userSpaceOnUse"><stop offset="0" stop-color="#f44f5a"/><stop offset=".443" stop-color="#ee3d4a"/><stop offset="1" stop-color="#e52030"/></linearGradient><path fill="url(#pEJh3fLeynGkMDArOwaDPh)" d="M19,32v13.02h-7c-1.09,0-2.01-0.83-2.13-1.92L8.35,30H17C18.105,30,19,30.895,19,32z"/></svg>