<svg xmlns="http://www.w3.org/2000/svg" viewBox="0 0 48 48"><path fill="#50e6ff" d="M40,42H8c-1.105,0-2-0.895-2-2V8c0-1.105,0.895-2,2-2h32c1.105,0,2,0.895,2,2v32 C42,41.105,41.105,42,40,42z"/><radialGradient id="BSIPOEt2hGIIMJ~1E6D7wa" cx="23.754" cy="-2360.405" r="13.71" gradientTransform="matrix(1 0 0 -1 0 -2336)" gradientUnits="userSpaceOnUse"><stop offset=".376" stop-color="#261103"/><stop offset=".68" stop-color="#431d06"/><stop offset="1" stop-color="#662c09"/></radialGradient><path fill="url(#BSIPOEt2hGIIMJ~1E6D7wa)" d="M24,12c-10.296,0-12.85,16.625-12.85,16.625c0,2.96,1.375,5.553,4.253,6.24 C18.216,35.569,21.101,35.949,24,36c2.899-0.051,5.783-0.431,8.596-1.134c2.879-0.687,4.253-3.281,4.253-6.24 C36.85,28.625,34.296,12,24,12z"/><linearGradient id="BSIPOEt2hGIIMJ~1E6D7wb" x1="16.166" x2="31.717" y1="49.481" y2="33.931" gradientUnits="userSpaceOnUse"><stop offset="0" stop-color="#f44f5a"/><stop offset=".443" stop-color="#ee3d4a"/><stop offset="1" stop-color="#e52030"/></linearGradient><path fill="url(#BSIPOEt2hGIIMJ~1E6D7wb)" d="M39.315,42c-1.984-4.135-8.087-7.429-15.315-7.429S10.669,37.865,8.685,42H39.315z"/><path fill="#d6a121" d="M29,35.725C29,37.278,26.17,39,24,39s-5-1.722-5-3.275c0-2.159,0-5.76,0-5.76h10 C29,29.965,29,33.566,29,35.725z"/><radialGradient id="BSIPOEt2hGIIMJ~1E6D7wc" cx="-3235.453" cy="-2419.283" r="10.72" gradientTransform="matrix(-.9136 0 0 -.9667 -2931.91 -2315.686)" gradientUnits="userSpaceOnUse"><stop offset="0" stop-color="#ffcf54"/><stop offset=".261" stop-color="#fdcb4d"/><stop offset=".639" stop-color="#f7c13a"/><stop offset="1" stop-color="#f0b421"/></radialGradient><path fill="url(#BSIPOEt2hGIIMJ~1E6D7wc)" d="M24,11.071c3.948,0,8,0.693,8,9.722v6.508C32,30.526,27.101,35,24,35s-8-4.474-8-7.698 v-6.508C16,12,20.052,11.071,24,11.071z"/><radialGradient id="BSIPOEt2hGIIMJ~1E6D7wd" cx="16.884" cy="-2344.474" r="32.342" gradientTransform="matrix(1 0 0 -1 0 -2336)" gradientUnits="userSpaceOnUse"><stop offset="0" stop-color="#c26715"/><stop offset=".508" stop-color="#b85515"/><stop offset="1" stop-color="#ad3f16"/></radialGradient><path fill="url(#BSIPOEt2hGIIMJ~1E6D7wd)" d="M24,8c-5.188,0-6,3-6,3c-2.109,0.311-7,1-7,17.478c0,3.801,1.903,5.197,2.6,5.603 C11,19.717,20.576,22.036,19,13c4.046,11.813,16.293,0.054,15.871,20.734c1.479-1.332,2.264-3.27,2.129-5.256 C37,14.672,31.399,8,24,8z"/></svg>