<svg xmlns="http://www.w3.org/2000/svg" viewBox="0 0 48 48"><linearGradient id="rBETDVzSX2nSxeJ9AmXkUa" x1="31.424" x2="33.314" y1="28.216" y2="41.008" gradientUnits="userSpaceOnUse"><stop offset="0" stop-color="#fede00"/><stop offset="1" stop-color="#ffd000"/></linearGradient><path fill="url(#rBETDVzSX2nSxeJ9AmXkUa)" d="M44,30H20c0,0.702,0,3.298,0,4c0,3.314,5.373,6,12,6s12-2.686,12-6C44,33.298,44,30.702,44,30	z"/><linearGradient id="rBETDVzSX2nSxeJ9AmXkUb" x1="31.424" x2="33.314" y1="24.216" y2="37.008" gradientUnits="userSpaceOnUse"><stop offset="0" stop-color="#e5a505"/><stop offset=".116" stop-color="#eaa804"/><stop offset=".595" stop-color="#f8b301"/><stop offset="1" stop-color="#fdb700"/></linearGradient><path fill="url(#rBETDVzSX2nSxeJ9AmXkUb)" d="M44,26H20c0,0.702,0,3.298,0,4c0,3.314,5.373,6,12,6s12-2.686,12-6C44,29.298,44,26.702,44,26	z"/><linearGradient id="rBETDVzSX2nSxeJ9AmXkUc" x1="31.424" x2="33.314" y1="20.216" y2="33.008" gradientUnits="userSpaceOnUse"><stop offset="0" stop-color="#fede00"/><stop offset="1" stop-color="#ffd000"/></linearGradient><path fill="url(#rBETDVzSX2nSxeJ9AmXkUc)" d="M44,22H20c0,0.702,0,3.298,0,4c0,3.314,5.373,6,12,6s12-2.686,12-6C44,25.298,44,22.702,44,22	z"/><linearGradient id="rBETDVzSX2nSxeJ9AmXkUd" x1="31.424" x2="33.314" y1="16.216" y2="29.008" gradientUnits="userSpaceOnUse"><stop offset="0" stop-color="#e5a505"/><stop offset=".116" stop-color="#eaa804"/><stop offset=".595" stop-color="#f8b301"/><stop offset="1" stop-color="#fdb700"/></linearGradient><path fill="url(#rBETDVzSX2nSxeJ9AmXkUd)" d="M44,18H20c0,0.702,0,3.298,0,4c0,3.314,5.373,6,12,6s12-2.686,12-6C44,21.298,44,18.702,44,18	z"/><linearGradient id="rBETDVzSX2nSxeJ9AmXkUe" x1="31.424" x2="33.314" y1="12.216" y2="25.008" gradientUnits="userSpaceOnUse"><stop offset="0" stop-color="#fede00"/><stop offset="1" stop-color="#ffd000"/></linearGradient><path fill="url(#rBETDVzSX2nSxeJ9AmXkUe)" d="M44,14H20c0,0.702,0,3.298,0,4c0,3.314,5.373,6,12,6s12-2.686,12-6C44,17.298,44,14.702,44,14	z"/><linearGradient id="rBETDVzSX2nSxeJ9AmXkUf" x1="31.424" x2="33.314" y1="8.216" y2="21.008" gradientUnits="userSpaceOnUse"><stop offset="0" stop-color="#e5a505"/><stop offset=".116" stop-color="#eaa804"/><stop offset=".595" stop-color="#f8b301"/><stop offset="1" stop-color="#fdb700"/></linearGradient><path fill="url(#rBETDVzSX2nSxeJ9AmXkUf)" d="M44,10H20c0,0.702,0,3.298,0,4c0,3.314,5.373,6,12,6s12-2.686,12-6C44,13.298,44,10.702,44,10	z"/><linearGradient id="rBETDVzSX2nSxeJ9AmXkUg" x1="25.459" x2="38.684" y1="3.459" y2="16.684" gradientUnits="userSpaceOnUse"><stop offset="0" stop-color="#fede00"/><stop offset="1" stop-color="#ffd000"/></linearGradient><ellipse cx="32" cy="10" fill="url(#rBETDVzSX2nSxeJ9AmXkUg)" rx="12" ry="6"/><ellipse cx="32" cy="10" fill="#ffc800" rx="9" ry="4"/><path d="M20,18.312c0,6.768,0,15.262,0,15.688c0,2.908,4.137,5.331,9.628,5.882	C29.863,39.281,30,38.654,30,38V26C30,22.241,25.907,19.249,20,18.312z" opacity=".05"/><path d="M20,19.328C20,25.9,20,33.595,20,34c0,2.721,3.625,5.015,8.59,5.751C28.848,39.192,29,38.608,29,38	V26C29,22.83,25.273,20.217,20,19.328z" opacity=".07"/><linearGradient id="rBETDVzSX2nSxeJ9AmXkUh" x1="15.424" x2="17.314" y1="32.216" y2="45.008" gradientUnits="userSpaceOnUse"><stop offset="0" stop-color="#e5a505"/><stop offset=".116" stop-color="#eaa804"/><stop offset=".595" stop-color="#f8b301"/><stop offset="1" stop-color="#fdb700"/></linearGradient><path fill="url(#rBETDVzSX2nSxeJ9AmXkUh)" d="M28,34H4c0,0.702,0,3.298,0,4c0,3.314,5.373,6,12,6s12-2.686,12-6C28,37.298,28,34.702,28,34z"/><linearGradient id="rBETDVzSX2nSxeJ9AmXkUi" x1="15.424" x2="17.314" y1="28.216" y2="41.008" gradientUnits="userSpaceOnUse"><stop offset="0" stop-color="#fede00"/><stop offset="1" stop-color="#ffd000"/></linearGradient><path fill="url(#rBETDVzSX2nSxeJ9AmXkUi)" d="M28,30H4c0,0.702,0,3.298,0,4c0,3.314,5.373,6,12,6s12-2.686,12-6C28,33.298,28,30.702,28,30z"/><linearGradient id="rBETDVzSX2nSxeJ9AmXkUj" x1="15.424" x2="17.314" y1="24.216" y2="37.008" gradientUnits="userSpaceOnUse"><stop offset="0" stop-color="#e5a505"/><stop offset=".116" stop-color="#eaa804"/><stop offset=".595" stop-color="#f8b301"/><stop offset="1" stop-color="#fdb700"/></linearGradient><path fill="url(#rBETDVzSX2nSxeJ9AmXkUj)" d="M28,26H4c0,0.702,0,3.298,0,4c0,3.314,5.373,6,12,6s12-2.686,12-6C28,29.298,28,26.702,28,26	z"/><linearGradient id="rBETDVzSX2nSxeJ9AmXkUk" x1="9.459" x2="22.684" y1="19.459" y2="32.684" gradientUnits="userSpaceOnUse"><stop offset="0" stop-color="#fede00"/><stop offset="1" stop-color="#ffd000"/></linearGradient><ellipse cx="16" cy="26" fill="url(#rBETDVzSX2nSxeJ9AmXkUk)" rx="12" ry="6"/><ellipse cx="16" cy="26" fill="#ffc800" rx="9" ry="4"/></svg>