<svg xmlns="http://www.w3.org/2000/svg" xmlns:xlink="http://www.w3.org/1999/xlink" data-name="Слой 1" viewBox="0 0 48 48"><defs><linearGradient id="cjiuzgfwuA4MwIRLjtsb~a" x1="-13.584" x2="88.842" y1="-75.868" y2="205.546" data-name="Безымянный градиент 14" gradientUnits="userSpaceOnUse"><stop offset="0" stop-color="#42a3f2"/><stop offset="1" stop-color="#42a4eb"/></linearGradient><linearGradient id="cjiuzgfwuA4MwIRLjtsb~d" x1=".992" x2="15.29" y1="6.241" y2="45.525" xlink:href="#cjiuzgfwuA4MwIRLjtsb~a"/><linearGradient id="cjiuzgfwuA4MwIRLjtsb~e" x1="152.992" x2="167.29" y1="6.241" y2="45.525" gradientTransform="matrix(-1 0 0 1 200 0)" xlink:href="#cjiuzgfwuA4MwIRLjtsb~a"/><linearGradient id="cjiuzgfwuA4MwIRLjtsb~b" x1="11.25" x2="36.75" y1="14" y2="14" data-name="Безымянный градиент 5" gradientUnits="userSpaceOnUse"><stop offset="0" stop-color="#3079d6"/><stop offset="1" stop-color="#297cd2"/></linearGradient><linearGradient id="cjiuzgfwuA4MwIRLjtsb~f" x1="17" x2="31" y1="-1240" y2="-1240" gradientTransform="matrix(1 0 0 -1 0 -1210)" xlink:href="#cjiuzgfwuA4MwIRLjtsb~b"/><linearGradient id="cjiuzgfwuA4MwIRLjtsb~c" x1="17" x2="17" y1="11.344" y2="18.608" data-name="Безымянный градиент 2" gradientUnits="userSpaceOnUse"><stop offset="0" stop-color="#ffcf54"/><stop offset=".261" stop-color="#fdcb4d"/><stop offset=".639" stop-color="#f7c13a"/><stop offset="1" stop-color="#f0b421"/></linearGradient><linearGradient id="cjiuzgfwuA4MwIRLjtsb~g" x1="31" x2="31" y2="18.608" xlink:href="#cjiuzgfwuA4MwIRLjtsb~c"/></defs><path fill="#565b5e" d="M8,36h8a0,0,0,0,1,0,0v6a1,1,0,0,1-1,1H9a1,1,0,0,1-1-1V36A0,0,0,0,1,8,36Z"/><path fill="#565b5e" d="M32,36h8a0,0,0,0,1,0,0v6a1,1,0,0,1-1,1H33a1,1,0,0,1-1-1V36A0,0,0,0,1,32,36Z"/><path fill="url(#cjiuzgfwuA4MwIRLjtsb~a)" d="M38,39H10a2,2,0,0,1-2-2V22.49242a4,4,0,0,1,.11943-.97014L11.62127,7.51493A2,2,0,0,1,13.56155,6h20.8769a2,2,0,0,1,1.94028,1.51493l3.50184,14.00735A4,4,0,0,1,40,22.49242V37A2,2,0,0,1,38,39Z"/><path fill="url(#cjiuzgfwuA4MwIRLjtsb~d)" d="M5,22H9V20a1.99945,1.99945,0,0,0-2-2H4a1.00036,1.00036,0,0,0-1,1v1A1.99945,1.99945,0,0,0,5,22Z"/><path fill="url(#cjiuzgfwuA4MwIRLjtsb~e)" d="M43,22H39V20a1.99945,1.99945,0,0,1,2-2h3a1.00036,1.00036,0,0,1,1,1v1A1.99945,1.99945,0,0,1,43,22Z"/><path fill="url(#cjiuzgfwuA4MwIRLjtsb~b)" d="M33.20324,8H14.79676a1,1,0,0,0-.97474.77662L11.25,20h25.5L34.178,8.77662A1,1,0,0,0,33.20324,8Z"/><path fill="url(#cjiuzgfwuA4MwIRLjtsb~f)" d="M28.30575,33h-8.6115a2,2,0,0,1-1.97278-1.6712L17,27H31l-.72147,4.3288A2,2,0,0,1,28.30575,33Z"/><circle cx="12.5" cy="26.5" r="2.5" fill="#fff"/><circle cx="35.5" cy="26.5" r="2.5" fill="#fff"/><path fill="url(#cjiuzgfwuA4MwIRLjtsb~c)" d="M17,12a3,3,0,1,1-3,3,3.00061,3.00061,0,0,1,3-3"/><path fill="url(#cjiuzgfwuA4MwIRLjtsb~g)" d="M31,12a3,3,0,1,1-3,3,3.00061,3.00061,0,0,1,3-3"/><path fill="#f09801" d="M24,10a2.5,2.5,0,1,1-2.5,2.5A2.50051,2.50051,0,0,1,24,10"/></svg>