<svg xmlns="http://www.w3.org/2000/svg" baseProfile="basic" viewBox="0 0 48 48"><linearGradient id="4kEJSSrScpdGtsCmGFXgoa" x1="19.391" x2="28.507" y1=".368" y2="47.108" gradientUnits="userSpaceOnUse"><stop offset="0" stop-color="#889097"/><stop offset=".331" stop-color="#848c94"/><stop offset=".669" stop-color="#78828b"/><stop offset="1" stop-color="#64717c"/></linearGradient><path fill="url(#4kEJSSrScpdGtsCmGFXgoa)" d="M12,45V3c0-1.105,0.895-2,2-2h20c1.105,0,2,0.895,2,2v42c0,1.105-0.895,2-2,2H14	C12.895,47,12,46.105,12,45z"/><linearGradient id="4kEJSSrScpdGtsCmGFXgob" x1="18.664" x2="29.324" y1="1.669" y2="46.28" gradientUnits="userSpaceOnUse"><stop offset="0" stop-color="#9dffce"/><stop offset="1" stop-color="#50d18d"/></linearGradient><path fill="url(#4kEJSSrScpdGtsCmGFXgob)" d="M34,2h-8.333l-0.35,1.051C25.127,3.618,24.597,4,24,4s-1.127-0.382-1.316-0.949L22.333,2H14	c-0.552,0-1,0.448-1,1v42c0,0.552,0.448,1,1,1h20c0.552,0,1-0.448,1-1V3C35,2.448,34.552,2,34,2z"/></svg>