<svg xmlns="http://www.w3.org/2000/svg" xmlns:xlink="http://www.w3.org/1999/xlink" data-name="Слой 1" viewBox="0 0 48 48"><defs><linearGradient id="qdYzDQ981W2jvOcH7~lXJg" x1="14" x2="22" y1="14" y2="14" xlink:href="#qdYzDQ981W2jvOcH7~lXJa"/><linearGradient id="qdYzDQ981W2jvOcH7~lXJa" x1="4" x2="44" y1="24" y2="24" data-name="Безымянный градиент 155" gradientUnits="userSpaceOnUse"><stop offset="0" stop-color="#3079d6"/><stop offset="1" stop-color="#297cd2"/></linearGradient><linearGradient id="qdYzDQ981W2jvOcH7~lXJc" x1="8" x2="22" xlink:href="#qdYzDQ981W2jvOcH7~lXJa"/><linearGradient id="qdYzDQ981W2jvOcH7~lXJd" x1="26" x2="40" xlink:href="#qdYzDQ981W2jvOcH7~lXJa"/><linearGradient id="qdYzDQ981W2jvOcH7~lXJe" x1="11" x2="22" y1="19" y2="19" xlink:href="#qdYzDQ981W2jvOcH7~lXJa"/><linearGradient id="qdYzDQ981W2jvOcH7~lXJf" x1="26" x2="37" y1="19" y2="19" xlink:href="#qdYzDQ981W2jvOcH7~lXJa"/><linearGradient id="qdYzDQ981W2jvOcH7~lXJb" x1="18.097" x2="37.005" y1="7.782" y2="59.73" data-name="Новый образец градиентной зал 3" gradientUnits="userSpaceOnUse"><stop offset="0" stop-color="#32bdef"/><stop offset="1" stop-color="#1ea2e4"/></linearGradient><linearGradient id="qdYzDQ981W2jvOcH7~lXJh" x1="26" x2="34" y1="14" y2="14" xlink:href="#qdYzDQ981W2jvOcH7~lXJa"/><linearGradient id="qdYzDQ981W2jvOcH7~lXJi" x1="14" x2="22" y1="34" y2="34" xlink:href="#qdYzDQ981W2jvOcH7~lXJa"/><linearGradient id="qdYzDQ981W2jvOcH7~lXJj" x1="26" x2="34" y1="34" y2="34" xlink:href="#qdYzDQ981W2jvOcH7~lXJa"/><linearGradient id="qdYzDQ981W2jvOcH7~lXJk" x1="11" x2="22" y1="29" y2="29" xlink:href="#qdYzDQ981W2jvOcH7~lXJa"/><linearGradient id="qdYzDQ981W2jvOcH7~lXJl" x1="26" x2="37" y1="29" y2="29" xlink:href="#qdYzDQ981W2jvOcH7~lXJa"/></defs><circle cx="24" cy="24" r="20" fill="url(#qdYzDQ981W2jvOcH7~lXJa)"/><path fill="url(#qdYzDQ981W2jvOcH7~lXJb)" d="M28.93789,6.7a1.0094,1.0094,0,0,0-1.20175.67769,3.97269,3.97269,0,0,1-7.47228,0A1.0094,1.0094,0,0,0,19.06211,6.7a17.98748,17.98748,0,0,0,0,34.6,1.00939,1.00939,0,0,0,1.20175-.67768,3.97269,3.97269,0,0,1,7.47228,0A1.00939,1.00939,0,0,0,28.93789,41.3a17.98748,17.98748,0,0,0,0-34.6Z"/><rect width="14" height="2" x="8" y="23" fill="url(#qdYzDQ981W2jvOcH7~lXJc)" rx="1"/><rect width="14" height="2" x="26" y="23" fill="url(#qdYzDQ981W2jvOcH7~lXJd)" rx="1"/><rect width="11" height="2" x="11" y="18" fill="url(#qdYzDQ981W2jvOcH7~lXJe)" rx="1"/><rect width="11" height="2" x="26" y="18" fill="url(#qdYzDQ981W2jvOcH7~lXJf)" rx="1"/><rect width="8" height="2" x="14" y="13" fill="url(#qdYzDQ981W2jvOcH7~lXJg)" rx="1"/><rect width="8" height="2" x="26" y="13" fill="url(#qdYzDQ981W2jvOcH7~lXJh)" rx="1"/><rect width="8" height="2" x="14" y="33" fill="url(#qdYzDQ981W2jvOcH7~lXJi)" rx="1"/><rect width="8" height="2" x="26" y="33" fill="url(#qdYzDQ981W2jvOcH7~lXJj)" rx="1"/><rect width="11" height="2" x="11" y="28" fill="url(#qdYzDQ981W2jvOcH7~lXJk)" rx="1"/><rect width="11" height="2" x="26" y="28" fill="url(#qdYzDQ981W2jvOcH7~lXJl)" rx="1"/></svg>