<svg xmlns="http://www.w3.org/2000/svg" viewBox="0 0 48 48"><linearGradient id="kU2Pf7fJ4Npf6I5Cdshs5a" x1="-801.969" x2="-773.89" y1="-160.031" y2="-188.11" gradientTransform="rotate(90 -481 331)" gradientUnits="userSpaceOnUse"><stop offset="0" stop-color="#fede00"/><stop offset=".519" stop-color="#fecc00"/><stop offset="1" stop-color="#ffb700"/></linearGradient><path fill="url(#kU2Pf7fJ4Npf6I5Cdshs5a)" d="M24,44c11.045,0,20-8.955,20-20S35.045,4,24,4S4,12.955,4,24S12.955,44,24,44z"/><path fill="#343434" d="M24,39L24,39c-4.418,0-8-3.582-8-8v0c0-0.552,0.448-1,1-1h14c0.552,0,1,0.448,1,1v0	C32,35.418,28.418,39,24,39z"/><path fill="#fff" d="M29.537,32H18.463C18.207,32,18,31.793,18,31.537V30h12v1.537C30,31.793,29.793,32,29.537,32z"/><linearGradient id="kU2Pf7fJ4Npf6I5Cdshs5b" x1="24" x2="24" y1="41.204" y2="36.008" gradientUnits="userSpaceOnUse"><stop offset="0" stop-color="#f05964"/><stop offset="1" stop-color="#d4414c"/></linearGradient><path fill="url(#kU2Pf7fJ4Npf6I5Cdshs5b)" d="M19.208,37.395C20.545,38.398,22.2,39,24,39s3.455-0.602,4.792-1.605	C27.697,35.942,25.96,35,24,35S20.303,35.942,19.208,37.395z"/><path fill="#343434" d="M19.966,23c-0.345,0-0.681-0.179-0.866-0.499C18.563,21.575,17.567,21,16.5,21s-2.063,0.575-2.6,1.5 c-0.277,0.478-0.891,0.64-1.366,0.364c-0.479-0.277-0.642-0.889-0.364-1.367C13.063,19.957,14.722,19,16.5,19 s3.438,0.958,4.33,2.498c0.277,0.478,0.114,1.09-0.364,1.367C20.309,22.956,20.136,23,19.966,23z"/><path fill="#343434" d="M34.966,23c-0.345,0-0.681-0.179-0.866-0.499C33.563,21.575,32.567,21,31.5,21s-2.063,0.575-2.6,1.5 c-0.277,0.478-0.891,0.64-1.366,0.364c-0.479-0.277-0.642-0.889-0.364-1.367C28.063,19.957,29.722,19,31.5,19 s3.438,0.958,4.33,2.498c0.277,0.478,0.114,1.09-0.364,1.367C35.309,22.956,35.136,23,34.966,23z"/></svg>