<svg xmlns="http://www.w3.org/2000/svg" viewBox="0 0 48 48"><linearGradient id="VejFBfrIpdsg5PVuYJ2qMa" x1="33.572" x2="37.391" y1="11.209" y2="33.57" gradientUnits="userSpaceOnUse"><stop offset="0" stop-color="#d69400"/><stop offset=".057" stop-color="#d49200"/><stop offset=".554" stop-color="#c78600"/><stop offset="1" stop-color="#c28200"/></linearGradient><rect width="7" height="23" x="32" y="11" fill="url(#VejFBfrIpdsg5PVuYJ2qMa)"/><linearGradient id="VejFBfrIpdsg5PVuYJ2qMb" x1="12.686" x2="35.58" y1="-295.592" y2="-332.841" gradientTransform="matrix(1 0 0 -1 0 -290)" gradientUnits="userSpaceOnUse"><stop offset="0" stop-color="#ffd869"/><stop offset="1" stop-color="#fec52b"/></linearGradient><path fill="url(#VejFBfrIpdsg5PVuYJ2qMb)" d="M44,20.023V11c0-1.105-0.895-2-2-2H6c-1.105,0-2,0.895-2,2v9.023C5.208,20.935,6,22.37,6,24	s-0.792,3.065-2,3.977V37c0,1.105,0.895,2,2,2h36c1.105,0,2-0.895,2-2v-9.023c-1.208-0.913-2-2.347-2-3.977S42.792,20.935,44,20.023	z M35,37c-0.552,0-1-0.448-1-1s0.448-1,1-1s1,0.448,1,1S35.552,37,35,37z M35,33c-0.552,0-1-0.448-1-1c0-0.552,0.448-1,1-1	s1,0.448,1,1C36,32.552,35.552,33,35,33z M35,29c-0.552,0-1-0.448-1-1s0.448-1,1-1s1,0.448,1,1S35.552,29,35,29z M35,25	c-0.552,0-1-0.448-1-1s0.448-1,1-1s1,0.448,1,1S35.552,25,35,25z M35,21c-0.552,0-1-0.448-1-1s0.448-1,1-1s1,0.448,1,1	S35.552,21,35,21z M35,17c-0.552,0-1-0.448-1-1s0.448-1,1-1s1,0.448,1,1S35.552,17,35,17z M35,13c-0.552,0-1-0.448-1-1s0.448-1,1-1	s1,0.448,1,1S35.552,13,35,13z"/><linearGradient id="VejFBfrIpdsg5PVuYJ2qMc" x1="25.775" x2="29.348" y1="4.382" y2="33.149" gradientUnits="userSpaceOnUse"><stop offset="0" stop-color="#d69400"/><stop offset=".057" stop-color="#d49200"/><stop offset=".554" stop-color="#c78600"/><stop offset="1" stop-color="#c28200"/></linearGradient><path fill="url(#VejFBfrIpdsg5PVuYJ2qMc)" d="M42.62,9l-0.847-4.262c-0.215-1.084-1.268-1.787-2.352-1.572L10.077,9H42.62z M32.945,6.493	c0.541-0.108,1.068,0.244,1.176,0.786c0.108,0.541-0.244,1.068-0.786,1.176c-0.541,0.108-1.068-0.244-1.176-0.786	S32.404,6.6,32.945,6.493z"/></svg>