<svg xmlns="http://www.w3.org/2000/svg" viewBox="0 0 48 48"><linearGradient id="GLoWVCweYxHOzh8KPutIpa" x1="17.29" x2="24.846" y1="6.871" y2="42.836" gradientUnits="userSpaceOnUse"><stop offset="0" stop-color="#8795a1"/><stop offset="1" stop-color="#6d7882"/></linearGradient><path fill="url(#GLoWVCweYxHOzh8KPutIpa)" d="M45.963,39.618l-6.222-32C39.558,6.678,38.734,6,37.777,6H10.223	C9.266,6,8.442,6.678,8.26,7.618l-6.222,32C1.797,40.853,2.743,42,4.001,42h39.999C45.257,42,46.203,40.853,45.963,39.618z"/><path fill="#fdd835" d="M25.116,8.385L25,6h-2l-0.116,2.385C22.868,8.72,23.135,9,23.47,9h1.06 C24.865,9,25.132,8.72,25.116,8.385z"/><path fill="#fdd835" d="M22.729,11.558l-0.235,4.827C22.478,16.72,22.745,17,23.08,17h1.84c0.335,0,0.602-0.28,0.586-0.615 l-0.235-4.827C25.255,11.246,24.998,11,24.685,11h-1.369C23.002,11,22.745,11.246,22.729,11.558z"/><path fill="#fdd835" d="M21.706,32.558L21.246,42h5.507l-0.46-9.442C26.278,32.246,26.021,32,25.708,32h-3.415 C21.979,32,21.722,32.246,21.706,32.558z"/><path fill="#fdd835" d="M26.042,27.385l-0.333-6.827C25.694,20.246,25.436,20,25.123,20h-2.246 c-0.313,0-0.571,0.246-0.586,0.558l-0.333,6.827C21.942,27.72,22.209,28,22.544,28h2.911C25.791,28,26.058,27.72,26.042,27.385z"/></svg>