<svg xmlns="http://www.w3.org/2000/svg" viewBox="0 0 48 48"><path fill="#1b9de2" d="M36,9H12v34c0,1.105,0.895,2,2,2h20c1.105,0,2-0.895,2-2V9z"/><linearGradient id="yGirD4NtTtdPTsk1IVB6pa" x1="12" x2="36" y1="6.5" y2="6.5" gradientUnits="userSpaceOnUse"><stop offset="0" stop-color="#464eb0"/><stop offset="1" stop-color="#343b9e"/></linearGradient><path fill="url(#yGirD4NtTtdPTsk1IVB6pa)" d="M36,9H12V6c0-1.105,0.895-2,2-2h20c1.105,0,2,0.895,2,2V9z"/><circle cx="20" cy="6.5" r=".75" fill="#6d75cf"/><path fill="#6d75cf" d="M27.5,5.75c-0.194,0-4.806,0-5,0c-0.414,0-0.75,0.336-0.75,0.75s0.336,0.75,0.75,0.75	c0.194,0,4.806,0,5,0c0.414,0,0.75-0.336,0.75-0.75S27.914,5.75,27.5,5.75z"/><path fill="#353c9f" d="M35,14H13l-3,3v1c0,1.105,0.895,2,2,2h24c1.105,0,2-0.895,2-2v-1L35,14z"/><polygon fill="#6d75cf" points="36,9 12,9 10,17 38,17"/><radialGradient id="yGirD4NtTtdPTsk1IVB6pb" cx="38.191" cy="38.101" r="11.965" gradientUnits="userSpaceOnUse"><stop offset="0"/><stop offset="1" stop-opacity="0"/></radialGradient><path fill="url(#yGirD4NtTtdPTsk1IVB6pb)" d="M26,38c0,2.614,0.849,5.027,2.273,7H34c1.105,0,2-0.895,2-2V26.181	C30.334,27.137,26,32.066,26,38z"/><linearGradient id="yGirD4NtTtdPTsk1IVB6pc" x1="31.136" x2="45.056" y1="-321.136" y2="-335.056" gradientTransform="matrix(1 0 0 -1 0 -290)" gradientUnits="userSpaceOnUse"><stop offset="0" stop-color="#fede00"/><stop offset="1" stop-color="#ffd000"/></linearGradient><circle cx="38" cy="38" r="10" fill="url(#yGirD4NtTtdPTsk1IVB6pc)"/><circle cx="38" cy="38" r="8" fill="#f5be00"/><path fill="#fee119" d="M35.767,41.685v-1.49c0.541,0.331,1.117,0.497,1.728,0.497c0.46,0,0.82-0.109,1.079-0.328	c0.259-0.219,0.389-0.516,0.389-0.892c0-0.784-0.554-1.176-1.662-1.176c-0.361,0-0.797,0.033-1.309,0.099v-4.423h4.384v1.425h-2.893	v1.584c0.232-0.022,0.451-0.033,0.657-0.033c0.813,0,1.45,0.214,1.91,0.64c0.46,0.427,0.69,1.002,0.69,1.723	c0,0.798-0.274,1.451-0.823,1.957c-0.548,0.507-1.292,0.759-2.231,0.759C36.926,42.028,36.286,41.914,35.767,41.685z"/></svg>