<svg xmlns="http://www.w3.org/2000/svg" viewBox="0 0 48 48"><linearGradient id="4sLJPAgylYnt7jp9wQaHMa" x1="5.48" x2="12.48" y1="13.98" y2="6.98" gradientTransform="matrix(1 0 0 -1 0 50)" gradientUnits="userSpaceOnUse"><stop offset="0" stop-color="#33bef0"/><stop offset="1" stop-color="#0a85d9"/></linearGradient><path fill="url(#4sLJPAgylYnt7jp9wQaHMa)" d="M15.5,40l-7-7l-4.625,4.625c-0.94,0.94-0.719,2.517,0.443,3.163l5.363,2.98	c0.781,0.434,1.754,0.297,2.385-0.334L15.5,40z"/><linearGradient id="4sLJPAgylYnt7jp9wQaHMb" x1="10.5" x2="24.5" y1="26" y2="12" gradientTransform="matrix(1 0 0 -1 0 50)" gradientUnits="userSpaceOnUse"><stop offset="0" stop-color="#c3cdd9"/><stop offset="1" stop-color="#9fa7b0"/></linearGradient><polygon fill="url(#4sLJPAgylYnt7jp9wQaHMb)" points="23.5,25 15,19.5 11,28.5 7,32.5 16,41.5 20,37.5 29,33.5"/><linearGradient id="4sLJPAgylYnt7jp9wQaHMc" x1="18.619" x2="32.627" y1="34.13" y2="20.122" gradientTransform="matrix(1 0 0 -1 0 50)" gradientUnits="userSpaceOnUse"><stop offset="0" stop-color="#33bef0"/><stop offset="1" stop-color="#0a85d9"/></linearGradient><path fill="url(#4sLJPAgylYnt7jp9wQaHMc)" d="M20.989,13.5L15,19.5l14,14l6-5.995L29.5,19.5L20.989,13.5z"/><path fill="#58646e" d="M44.412,15.298L33.196,4.081c-0.774-0.774-2.03-0.774-2.805,0L21,13.5l14,14l9.412-9.398	C45.187,17.328,45.187,16.072,44.412,15.298z"/></svg>