<svg xmlns="http://www.w3.org/2000/svg" viewBox="0 0 48 48"><linearGradient id="UV7PDTBXPVjhYT5oy~jPMa" x1="1" x2="20" y1="20.5" y2="20.5" gradientUnits="userSpaceOnUse"><stop offset="0" stop-color="#afb6bc"/><stop offset=".925" stop-color="#9aa0a5"/></linearGradient><path fill="url(#UV7PDTBXPVjhYT5oy~jPMa)" d="M1,7l15.526,8.843c0.941,0.579,1.6,1.521,1.822,2.603L20,27.75L1,34V7z"/><path fill="#cdd2d6" d="M1,9l13.526,8.093c0.941,0.579,1.6,1.521,1.822,2.603L18,27.75L1,33V9z"/><path fill="#cdd2d6" d="M14,26.5c-3.97,0-10.283,1.737-13,3.5v7c3,2,7.315,2,10.875,2c6.42,0,11.625-3.562,11.625-7.289	S22,26.5,14,26.5z"/><linearGradient id="UV7PDTBXPVjhYT5oy~jPMb" x1="47.077" x2="35.65" y1="22.003" y2="22.003" gradientUnits="userSpaceOnUse"><stop offset="0" stop-color="#f44f5a"/><stop offset=".443" stop-color="#ee3d4a"/><stop offset="1" stop-color="#e52030"/></linearGradient><path fill="url(#UV7PDTBXPVjhYT5oy~jPMb)" d="M33.01,24l13.441-1.34c0.756-0.128,0.72-1.244-0.043-1.321l-9.404-1.334L33.01,24z"/><circle cx="33.01" cy="20.005" r="3.995" fill="#cdd2d6"/><linearGradient id="UV7PDTBXPVjhYT5oy~jPMc" x1="34" x2="34" y1="18.91" y2="21.571" gradientUnits="userSpaceOnUse"><stop offset="0" stop-color="#4c4c4c"/><stop offset="1" stop-color="#343434"/></linearGradient><circle cx="34" cy="20" r="1" fill="url(#UV7PDTBXPVjhYT5oy~jPMc)"/><path fill="#cdd2d6" d="M33,20h-4c0,5.757-1.122,8-4,8h-1c-1,0-3.425-0.817-4-0.982C20,27.768,20,34,20,34h4h1	c4.529,0,7.408-3.298,7.912-11.347C32.995,21.588,33,20.646,33,20z"/></svg>