<svg xmlns="http://www.w3.org/2000/svg" viewBox="0 0 48 48"><linearGradient id="kVvZ~5W4DJU7EeGJ0Ta_Da" x1="7.617" x2="37.05" y1="7.617" y2="37.05" gradientUnits="userSpaceOnUse"><stop offset="0" stop-color="#bd4ff4"/><stop offset=".587" stop-color="#a235ec"/><stop offset="1" stop-color="#8c20e5"/></linearGradient><path fill="url(#kVvZ~5W4DJU7EeGJ0Ta_Da)" d="M40,20c1.105,0,2-0.895,2-2v-2c0-1.105-0.895-2-2-2h-6V8.001c0-1.105-0.895-2-2-2h-2	c-1.105,0-2,0.895-2,2V14h-8V8.001c0-1.105-0.895-2-2-2h-2c-1.105,0-2,0.895-2,2V14H8c-1.105,0-2,0.895-2,2v2c0,1.105,0.895,2,2,2h6	v8H8c-1.105,0-2,0.895-2,2v2c0,1.105,0.895,2,2,2h6v6c0,1.105,0.895,2,2,2h2c1.105,0,2-0.895,2-2v-6h8v6c0,1.105,0.895,2,2,2h2	c1.105,0,2-0.895,2-2v-6h6c1.105,0,2-0.895,2-2v-2c0-1.105-0.895-2-2-2h-6v-8H40z M28,28h-8v-8h8V28z"/></svg>