<svg xmlns="http://www.w3.org/2000/svg" viewBox="0 0 48 48"><linearGradient id="reiPlCbNGsfU2_SHwBkena" x1="22.854" x2="25.12" y1="10.986" y2="50.897" gradientUnits="userSpaceOnUse"><stop offset="0" stop-color="#eba600"/><stop offset="1" stop-color="#c28200"/></linearGradient><path fill="url(#reiPlCbNGsfU2_SHwBkena)" d="M27.707,21.293L22.414,16l5-5h-2.828l-4.293,4.293c-0.391,0.391-0.391,1.023,0,1.414	L25.586,22l-5.293,5.293c-0.391,0.391-0.391,1.023,0,1.414l5.345,5.346l-5.396,6.297c-0.36,0.419-0.312,1.05,0.108,1.409	C20.538,41.921,20.77,42,21,42c0.281,0,0.562-0.118,0.759-0.35l6-7c0.341-0.396,0.317-0.988-0.052-1.357L22.414,28l5.293-5.293	C28.098,22.316,28.098,21.684,27.707,21.293z"/><linearGradient id="reiPlCbNGsfU2_SHwBkenb" x1="22.502" x2="25.437" y1="-2.261" y2="46.26" gradientUnits="userSpaceOnUse"><stop offset="0" stop-color="#ffcf54"/><stop offset=".261" stop-color="#fdcb4d"/><stop offset=".639" stop-color="#f7c13a"/><stop offset="1" stop-color="#f0b421"/></linearGradient><path fill="url(#reiPlCbNGsfU2_SHwBkenb)" d="M27,42h-6c-0.553,0-1-0.447-1-1V4c0-0.266,0.105-0.52,0.293-0.707l3-3	c0.391-0.391,1.023-0.391,1.414,0l3,3C27.895,3.48,28,3.734,28,4v37C28,41.553,27.553,42,27,42z M22,40h4V4.414l-2-2l-2,2V40z"/><path fill="#e52030" d="M35,6H13c-0.552,0-1,0.448-1,1v6h24V7C36,6.448,35.552,6,35,6z"/><linearGradient id="reiPlCbNGsfU2_SHwBkenc" x1="24" x2="24" y1="29.87" y2="45.918" gradientUnits="userSpaceOnUse"><stop offset="0" stop-color="#f44f5a"/><stop offset=".443" stop-color="#ee3d4a"/><stop offset="1" stop-color="#e52030"/></linearGradient><path fill="url(#reiPlCbNGsfU2_SHwBkenc)" d="M33,40H15c-1.105,0-2,0.895-2,2v3h22v-3C35,40.895,34.105,40,33,40z"/><path fill="#b31523" d="M18,13h-3V8.5C15,8.224,15.224,8,15.5,8h2C17.776,8,18,8.224,18,8.5V13z"/><path fill="#b31523" d="M23,13h-3V8.5C20,8.224,20.224,8,20.5,8h2C22.776,8,23,8.224,23,8.5V13z"/><path fill="#b31523" d="M28,13h-3V8.5C25,8.224,25.224,8,25.5,8h2C27.776,8,28,8.224,28,8.5V13z"/><path fill="#b31523" d="M33,13h-3V8.5C30,8.224,30.224,8,30.5,8h2C32.776,8,33,8.224,33,8.5V13z"/><linearGradient id="reiPlCbNGsfU2_SHwBkend" x1="24" x2="24" y1="8.984" y2="23.625" gradientUnits="userSpaceOnUse"><stop offset="0" stop-color="#f44f5a"/><stop offset=".443" stop-color="#ee3d4a"/><stop offset="1" stop-color="#e52030"/></linearGradient><path fill="url(#reiPlCbNGsfU2_SHwBkend)" d="M37,12H11c-0.552,0-1,0.448-1,1v3c0,0.552,0.448,1,1,1h26c0.552,0,1-0.448,1-1v-3	C38,12.448,37.552,12,37,12z"/><path fill="#e52030" d="M30,12h3v2.5c0,0.276-0.224,0.5-0.5,0.5h-2c-0.276,0-0.5-0.224-0.5-0.5V12z"/><path fill="#e52030" d="M25,12h3v2.5c0,0.276-0.224,0.5-0.5,0.5h-2c-0.276,0-0.5-0.224-0.5-0.5V12z"/><path fill="#e52030" d="M20,12h3v2.5c0,0.276-0.224,0.5-0.5,0.5h-2c-0.276,0-0.5-0.224-0.5-0.5V12z"/><path fill="#e52030" d="M15,12h3v2.5c0,0.276-0.224,0.5-0.5,0.5h-2c-0.276,0-0.5-0.224-0.5-0.5V12z"/><rect width="24" height="1" x="12" y="11" opacity=".05"/><rect width="24" height=".5" x="12" y="11.5" opacity=".07"/></svg>