<svg xmlns="http://www.w3.org/2000/svg" viewBox="0 0 48 48"><linearGradient id="tt4iC5d8TkNBzFwx6pvc3a" x1="24" x2="24" y1="21.663" y2="46.736" gradientUnits="userSpaceOnUse"><stop offset="0" stop-color="#889097"/><stop offset="1" stop-color="#4c5963"/></linearGradient><path fill="url(#tt4iC5d8TkNBzFwx6pvc3a)" d="M41,25H7L0.084,39.599C-0.205,40.26,0.279,41,1,41h46c0.721,0,1.205-0.74,0.916-1.401L41,25z"/><path fill="#c4401c" d="M24,25H9V8c0-0.552,0.448-1,1-1h12c0.552,0,1,0.448,1,1v6L24,25z"/><linearGradient id="tt4iC5d8TkNBzFwx6pvc3b" x1="5" x2="24" y1="28" y2="28" gradientUnits="userSpaceOnUse"><stop offset="0" stop-color="#42a3f2"/><stop offset="1" stop-color="#42a4eb"/></linearGradient><path fill="url(#tt4iC5d8TkNBzFwx6pvc3b)" d="M24,37H5V20c0-0.552,0.448-1,1-1h18V37z"/><linearGradient id="tt4iC5d8TkNBzFwx6pvc3c" x1="22.973" x2="47.077" y1="24" y2="24" gradientUnits="userSpaceOnUse"><stop offset="0" stop-color="#0d61a9"/><stop offset=".482" stop-color="#0d60a7"/><stop offset=".711" stop-color="#0f5c9f"/><stop offset=".886" stop-color="#125592"/><stop offset="1" stop-color="#154e85"/></linearGradient><path fill="url(#tt4iC5d8TkNBzFwx6pvc3c)" d="M37,37H23V12c0-0.552,0.448-1,1-1h12c0.552,0,1,0.448,1,1V37z"/><linearGradient id="tt4iC5d8TkNBzFwx6pvc3d" x1="28.5" x2="51.8" y1="28" y2="28" gradientUnits="userSpaceOnUse"><stop offset="0" stop-color="#ffcf54"/><stop offset=".261" stop-color="#fdcb4d"/><stop offset=".639" stop-color="#f7c13a"/><stop offset="1" stop-color="#f0b421"/></linearGradient><path fill="url(#tt4iC5d8TkNBzFwx6pvc3d)" d="M43,37H29V20c0-0.552,0.448-1,1-1h12c0.552,0,1,0.448,1,1V37z"/><rect width="2" height="2" x="19" y="13" fill="#ff8f6b"/><rect width="2" height="2" x="15" y="13" fill="#ff8f6b"/><rect width="2" height="2" x="11" y="13" fill="#ff8f6b"/><rect width="2" height="2" x="19" y="17" fill="#ff8f6b"/><rect width="2" height="2" x="15" y="17" fill="#ff8f6b"/><rect width="2" height="2" x="11" y="17" fill="#ff8f6b"/><rect width="2" height="2" x="19" y="9" fill="#ff8f6b"/><rect width="2" height="2" x="15" y="9" fill="#ff8f6b"/><rect width="2" height="2" x="11" y="9" fill="#ff8f6b"/><rect width="2" height="2" x="35" y="21" fill="#c28200"/><rect width="2" height="2" x="39" y="21" fill="#c28200"/><rect width="2" height="2" x="31" y="21" fill="#c28200"/><rect width="2" height="2" x="35" y="25" fill="#c28200"/><rect width="2" height="2" x="39" y="25" fill="#c28200"/><rect width="2" height="2" x="31" y="25" fill="#c28200"/><rect width="2" height="2" x="35" y="29" fill="#c28200"/><rect width="2" height="2" x="39" y="29" fill="#c28200"/><rect width="2" height="2" x="31" y="29" fill="#c28200"/><rect width="2" height="2" x="35" y="33" fill="#c28200"/><rect width="2" height="2" x="39" y="33" fill="#c28200"/><rect width="2" height="2" x="31" y="33" fill="#c28200"/><linearGradient id="tt4iC5d8TkNBzFwx6pvc3e" x1="10.71" x2="18.536" y1="18.962" y2="40.462" gradientUnits="userSpaceOnUse"><stop offset="0" stop-color="#1d59b3"/><stop offset="1" stop-color="#195bbc"/></linearGradient><path fill="url(#tt4iC5d8TkNBzFwx6pvc3e)" d="M21,23h-2v-2h2V23z M17,21h-2v2h2V21z M13,21h-2v2h2V21z M9,21H7v2h2V21z M21,25h-2v2h2V25z M17,25h-2v2h2V25z M13,25h-2v2h2V25z M9,25H7v2h2V25z M21,29h-2v2h2V29z M17,29h-2v2h2V29z M13,29h-2v2h2V29z M9,29H7v2h2V29z M21,33h-2v2h2V33z M17,33h-2v2h2V33z M13,33h-2v2h2V33z M9,33H7v2h2V33z"/><linearGradient id="tt4iC5d8TkNBzFwx6pvc3f" x1="25.704" x2="36.144" y1="12.197" y2="40.881" gradientUnits="userSpaceOnUse"><stop offset="0" stop-color="#32bdef"/><stop offset="1" stop-color="#1ea2e4"/></linearGradient><path fill="url(#tt4iC5d8TkNBzFwx6pvc3f)" d="M27,19h-2v-2h2V19z M27,21h-2v2h2V21z M27,25h-2v2h2V25z M27,29h-2v2h2V29z M27,33h-2v2h2V33z M31,17h-2v2h2V17z M35,17h-2v2h2V17z M27,13h-2v2h2V13z M31,13h-2v2h2V13z M35,13h-2v2h2V13z"/><path d="M30,18c-1.1,0-2,0.9-2,2v17h1V20c0-0.55,0.45-1,1-1h7v-1H30z" opacity=".05"/><path d="M30,18.5c-0.83,0-1.5,0.67-1.5,1.5v17H29V20c0-0.55,0.45-1,1-1h7v-0.5H30z" opacity=".07"/><g><path d="M22,12v25h1V10.27C22.4,10.62,22,11.26,22,12z" opacity=".05"/><path d="M22.5,12v25H23V10.89C22.69,11.16,22.5,11.56,22.5,12z" opacity=".07"/></g></svg>