<svg xmlns="http://www.w3.org/2000/svg" viewBox="0 0 48 48"><path fill="#64717c" d="M20.5,26h-17C2.672,26,2,25.328,2,24.5v0C2,23.672,2.672,23,3.5,23h17c0.828,0,1.5,0.672,1.5,1.5v0	C22,25.328,21.328,26,20.5,26z"/><path fill="#64717c" d="M44.5,26h-17c-0.828,0-1.5-0.672-1.5-1.5v0c0-0.828,0.672-1.5,1.5-1.5h17c0.828,0,1.5,0.672,1.5,1.5	v0C46,25.328,45.328,26,44.5,26z"/><linearGradient id="TDf4A1IMqZK5DngNKyOyfa" x1="8" x2="20" y1="12.5" y2="12.5" gradientUnits="userSpaceOnUse"><stop offset="0" stop-color="#fede00"/><stop offset="1" stop-color="#ffd000"/></linearGradient><ellipse cx="14" cy="12.5" fill="url(#TDf4A1IMqZK5DngNKyOyfa)" rx="6" ry="4.5"/><ellipse cx="14" cy="12.5" fill="#f5be00" rx="4" ry="2.5"/><linearGradient id="TDf4A1IMqZK5DngNKyOyfb" x1="28" x2="40" y1="13" y2="13" gradientUnits="userSpaceOnUse"><stop offset="0" stop-color="#fede00"/><stop offset="1" stop-color="#ffd000"/></linearGradient><ellipse cx="34" cy="13" fill="url(#TDf4A1IMqZK5DngNKyOyfb)" rx="6" ry="5"/><ellipse cx="34" cy="13" fill="#f5be00" rx="4" ry="3"/><linearGradient id="TDf4A1IMqZK5DngNKyOyfc" x1="21" x2="33" y1="12.5" y2="12.5" gradientUnits="userSpaceOnUse"><stop offset="0" stop-color="#fede00"/><stop offset="1" stop-color="#ffd000"/></linearGradient><ellipse cx="27" cy="12.5" fill="url(#TDf4A1IMqZK5DngNKyOyfc)" rx="6" ry="5.5"/><ellipse cx="27" cy="12.5" fill="#f5be00" rx="4" ry="3.5"/><linearGradient id="TDf4A1IMqZK5DngNKyOyfd" x1="15" x2="27" y1="11" y2="11" gradientUnits="userSpaceOnUse"><stop offset="0" stop-color="#fede00"/><stop offset="1" stop-color="#ffd000"/></linearGradient><circle cx="21" cy="11" r="6" fill="url(#TDf4A1IMqZK5DngNKyOyfd)"/><circle cx="21" cy="11" r="4" fill="#f5be00"/><radialGradient id="TDf4A1IMqZK5DngNKyOyfe" cx="12.859" cy="24.011" r="35.62" gradientUnits="userSpaceOnUse"><stop offset="0" stop-color="#a1aab3"/><stop offset="1" stop-color="#8f979e"/></radialGradient><path fill="url(#TDf4A1IMqZK5DngNKyOyfe)" d="M43,27c0,5.03-1.96,9.61-5.16,13c-0.01,0.01-0.02,0.02-0.03,0.03	c-1.05,1.14-2.25,2.13-3.57,2.97H13.77c-1.32-0.83-2.52-1.83-3.58-2.97c-0.01-0.01-0.02-0.02-0.03-0.03C6.96,36.61,5,32.03,5,27	c0-3.72,1.07-7.19,2.92-10.12c0.66-1.04,1.4-2,2.24-2.88h27.68c0.84,0.88,1.58,1.84,2.24,2.88C41.93,19.81,43,23.28,43,27z"/><path fill="#64717c" d="M42,15.5c0,0.62-0.402,1.16-0.974,1.38C40.835,16.96,40.634,17,40.412,17H7.588	c-0.222,0-0.424-0.04-0.614-0.12C6.402,16.66,6,16.12,6,15.5C6,14.67,6.709,14,7.588,14h32.824C41.291,14,42,14.67,42,15.5z"/><path fill="#64717c" d="M39,41.5L39,41.5c0,0.828-0.672,1.5-1.5,1.5h-27C9.672,43,9,42.328,9,41.5l0,0	c0-0.828,0.672-1.5,1.5-1.5h27C38.328,40,39,40.672,39,41.5z"/><path d="M40,13c0,0.17-0.01,0.34-0.03,0.5c-0.02,0.17-0.05,0.33-0.09,0.5H8.35c-0.09-0.16-0.15-0.33-0.2-0.5	C8.1,13.33,8.06,13.17,8.04,13H40z" opacity=".05"/><path d="M39.97,13.5c-0.02,0.17-0.05,0.33-0.09,0.5H8.35c-0.09-0.16-0.15-0.33-0.2-0.5H39.97z" opacity=".07"/></svg>