<svg xmlns="http://www.w3.org/2000/svg" viewBox="0 0 48 48"><linearGradient id="e2clmhQOahEdep5TSP4Aca" x1="5.887" x2="1.008" y1="29" y2="29" gradientUnits="userSpaceOnUse"><stop offset="0" stop-color="#c48f0c"/><stop offset=".251" stop-color="#d19b16"/><stop offset=".619" stop-color="#dca51f"/><stop offset="1" stop-color="#e0a922"/></linearGradient><path fill="url(#e2clmhQOahEdep5TSP4Aca)" d="M7,33H6.123c-1.835,0-3.435-1.249-3.881-3.03l0,0C1.611,27.446,3.521,25,6.123,25H7V33z"/><linearGradient id="e2clmhQOahEdep5TSP4Acb" x1="41.894" x2="46.773" y1="29" y2="29" gradientUnits="userSpaceOnUse"><stop offset="0" stop-color="#c48f0c"/><stop offset=".251" stop-color="#d19b16"/><stop offset=".672" stop-color="#dca51f"/><stop offset="1" stop-color="#e0a922"/></linearGradient><path fill="url(#e2clmhQOahEdep5TSP4Acb)" d="M41,33h0.877c1.835,0,3.435-1.249,3.881-3.03v0c0.631-2.525-1.278-4.97-3.881-4.97H41V33z"/><radialGradient id="e2clmhQOahEdep5TSP4Acc" cx="24" cy="27" r="18" gradientUnits="userSpaceOnUse"><stop offset="0" stop-color="#ffcf54"/><stop offset=".261" stop-color="#fdcb4d"/><stop offset=".639" stop-color="#f7c13a"/><stop offset="1" stop-color="#f0b421"/></radialGradient><path fill="url(#e2clmhQOahEdep5TSP4Acc)" d="M42,28c0,9.941-8.059,17-18,17S6,37.941,6,28S14.059,9,24,9S42,18.059,42,28z"/><ellipse cx="30" cy="23.5" fill="#2b1d1d" rx="2" ry="1.5"/><ellipse cx="18" cy="23.5" fill="#2b1d1d" rx="2" ry="1.5"/><radialGradient id="e2clmhQOahEdep5TSP4Acd" cx="125.185" cy="-544.169" r="32.832" gradientTransform="matrix(.8617 0 0 -.8816 -85.302 -470.406)" gradientUnits="userSpaceOnUse"><stop offset="0" stop-color="#c26715"/><stop offset=".508" stop-color="#b85515"/><stop offset="1" stop-color="#ad3f16"/></radialGradient><path fill="url(#e2clmhQOahEdep5TSP4Acd)" d="M23.063,6c-4.652-0.91-6.132,6,0,6C25.741,12,31,10.365,31,6C31,6,28.173,7,23.063,6z"/><path fill="#2b1d1d" d="M31,31c-0.711,0-2.738,2.079-7,2.079S17.711,31,17,31s-1,0.31-1,1c0,1.187,3.621,6,8,6s8-4.813,8-6 C32,31.31,31.711,31,31,31z"/></svg>