<svg xmlns="http://www.w3.org/2000/svg" viewBox="0 0 48 48"><linearGradient id="zz1GOA4JkmzM8RkQaPPlua" x1="6.809" x2="39.842" y1="5.958" y2="39.584" gradientUnits="userSpaceOnUse"><stop offset="0" stop-color="#767e84"/><stop offset="1" stop-color="#3c4751"/></linearGradient><path fill="url(#zz1GOA4JkmzM8RkQaPPlua)" d="M24.648,4c0.121,0,0.222,0.001,0.29,0.002c0.52,0.008,1.23,0.109,1.857,0.198	c0.314,0.045,0.616,0.088,0.883,0.119c0.164,0.024,0.715,0.227,1.043,0.348C29.468,4.941,32,6.875,32,6.875	c-1.168-1.51-1.068-1.8-1-1.875c0.204-0.224,1.343,0.15,2.125,0.875c0.418,0.388,0.771,0.845,1.468,1.07C34.711,6.983,34.839,7,35,7	h0.375C34.963,6.246,34.942,6.044,35,6c0.047-0.036,0.178,0.009,1.054,0.747c0.39,0.328,0.704,0.605,0.914,0.794L37,7.583	l0.036,0.039c1.411,1.495,2.095,2.462,2.595,3.169c0.339,0.48,0.945,0.822,1.243,1.21C41.225,12.454,42,14,42,14	c-0.07-0.459-0.12-0.96,0-0.998c0.201-0.064,0.844,1.175,1.25,2.373C43.569,16.316,44,19,44,19s-0.25-0.625-1-0.875	C43,19,44,21,44,24.002v4.27c0,0.919-0.297,1.794-0.718,2.611c-0.231,0.45-0.368,0.966-0.496,1.505	c-0.328,1.372-0.605,2.294-1.444,2.593L41,35.002l-0.08,0.277c-0.533,0.662-0.994,1.351-1.439,2.018	c-1.446,2.163-2.495,3.705-4.481,3.705c-1.041,0-2.044,0.167-2.441,0.559c-0.144,0.142-0.254,0.312-0.336,0.487	c-0.315,0.668-0.843,1.222-1.557,1.409c-1.087,0.285-2.903,0.544-6.665,0.544c-5,0-9.4-1.756-12.262-4.545	c-0.965-0.785-2.272-1.669-2.857-2.273c-0.488-0.64-1.215-1.569-2.137-2.667C5.556,33.103,4.795,32.305,5,32	c0.149-0.221,0.733-0.071,1,0c1.756,0.468,2.737,1.731,4,3c0.684,0.687,1.701,1.628,3.091,2.638C12.729,37.116,12.214,36.221,12,35	c-0.089-0.508-0.159-0.909,0-1c0.367-0.21,1.355,1.557,3,3c3.198,2.806,7.272,2.981,8,3c1.445,0.037,2.866-0.165,3.448-0.313	C27.361,39.455,27.803,39.153,29,39c4.875-0.625,7.492-5.439,8.214-6.816c0.05-0.096,0.202-1.02,0.24-1.092	c0.368-0.376,0.463-1.167,0.607-2.371C38.17,27.815,39,26.75,39,25.625c0-0.45-0.16-0.8-0.352-1.058	c-0.38-0.511-0.651-1.092-0.685-1.728c-0.058-1.091-0.207-2.768-0.588-4.214C37.25,18.151,36.738,16.409,34,13v1.002	c-2.125-1.127-3.668-2.545-4.125-2.752C28.435,10.599,26.831,10,25,10c-4,0-4.625,1-8,2c0.887-0.147,1.908-0.262,2,0	c0.119,0.34-1.503,0.821-3,2.125c-2.14,1.864-4,5.035-4,7.875c0,3-2.485,4-4,4c-2.453,0-4-2-4-4c0-1.133,0.45-2.5,0.886-3.425	c0.411-0.873,0.799-1.697,0.795-2.581c0.031-0.106,0.274-0.383,0.435-0.566c0.2-0.228,0.427-0.487,0.633-0.789	c0.866-1.271,1.771-2.517,2.858-3.604c0.507-0.507,0.877-0.889,0.888-0.9c0.162-0.171,0.324-0.304,0.511-0.457	c0.324-0.265,0.728-0.594,1.221-1.205l0.423-0.525c0.798-0.428,2.222-1.035,2.776-1.271c0.342-0.146,0.602-0.258,0.716-0.313	L19.75,5.75C19.966,5.75,20,5.238,20,5c0-0.081,0.014-0.129,0.041-0.162c0.086-0.101,0.242-0.11,0.283-0.111	c0.374-0.015,0.836-0.388,2.157-0.6C23.262,4.001,23.912,4.001,24.648,4z"/></svg>