<svg xmlns="http://www.w3.org/2000/svg" viewBox="0 0 48 48"><linearGradient id="ysn1unf5lBYPr67X3W0Sxa" x1="16.86" x2="29.576" y1="-19.533" y2="-59.546" gradientTransform="matrix(1 0 0 -1 0 -18)" gradientUnits="userSpaceOnUse"><stop offset="0" stop-color="#c77740"/><stop offset="1" stop-color="#b0622b"/></linearGradient><path fill="url(#ysn1unf5lBYPr67X3W0Sxa)" d="M38,4H26c0,1.105-0.895,2-2,2s-2-0.895-2-2H10C8.895,4,8,4.895,8,6v36c0,1.105,0.895,2,2,2h28	c1.105,0,2-0.895,2-2V6C40,4.895,39.105,4,38,4z"/><linearGradient id="ysn1unf5lBYPr67X3W0Sxb" x1="24" x2="24" y1="-54.966" y2="-58.893" gradientTransform="matrix(1 0 0 -1 0 -18)" gradientUnits="userSpaceOnUse"><stop offset=".442" stop-color="#878786"/><stop offset=".594" stop-color="#9f9f9e"/><stop offset=".859" stop-color="#c3c3c3"/><stop offset="1" stop-color="#d1d1d1"/></linearGradient><path fill="url(#ysn1unf5lBYPr67X3W0Sxb)" d="M37,42H11c-0.552,0-1-0.448-1-1v-9h28v9C38,41.552,37.552,42,37,42z"/><path fill="#f3f3f3" d="M37,40H11c-0.552,0-1-0.448-1-1V7c0-0.552,0.448-1,1-1h26c0.552,0,1,0.448,1,1v32	C38,39.552,37.552,40,37,40z"/><linearGradient id="ysn1unf5lBYPr67X3W0Sxc" x1="501.07" x2="502.954" y1="860.928" y2="853.091" gradientTransform="matrix(-1 0 0 1 526 -851)" gradientUnits="userSpaceOnUse"><stop offset="0" stop-color="#c3cdd9"/><stop offset="1" stop-color="#9fa7b0"/></linearGradient><path fill="url(#ysn1unf5lBYPr67X3W0Sxc)" d="M31,8V4h-4.184C26.403,2.837,25.304,2,24,2s-2.403,0.837-2.816,2H17v4c0,0.552,0.448,1,1,1h12	C30.552,9,31,8.552,31,8z M24,4c0.552,0,1,0.448,1,1s-0.448,1-1,1s-1-0.448-1-1S23.448,4,24,4z"/><linearGradient id="ysn1unf5lBYPr67X3W0Sxd" x1="22.967" x2="24.321" y1="27.32" y2="34.261" gradientUnits="userSpaceOnUse"><stop offset="0" stop-color="#33bef0"/><stop offset="1" stop-color="#0a85d9"/></linearGradient><path fill="url(#ysn1unf5lBYPr67X3W0Sxd)" d="M24,27.286c-4.418,0-8,2.46-8,5.143V33c0,0.552,0.448,1,1,1h14c0.552,0,1-0.448,1-1v-0.571	C32,29.746,28.418,27.286,24,27.286z"/><path fill="#d6a121" d="M26,28.4c0,0.759-1.132,1.6-2,1.6s-2-0.841-2-1.6c0-1.055,0-2.814,0-2.814h4	C26,25.586,26,27.345,26,28.4z"/><linearGradient id="ysn1unf5lBYPr67X3W0Sxe" x1="27.94" x2="28.97" y1="22.75" y2="22.75" gradientUnits="userSpaceOnUse"><stop offset="0" stop-color="#c48f0c"/><stop offset=".251" stop-color="#d19b16"/><stop offset=".619" stop-color="#dca51f"/><stop offset="1" stop-color="#e0a922"/></linearGradient><path fill="url(#ysn1unf5lBYPr67X3W0Sxe)" d="M28.208,21.5h-0.264V24h0.352c0.257,0,0.477-0.195,0.52-0.462l0.172-1.064	C29.071,21.964,28.698,21.5,28.208,21.5z"/><linearGradient id="ysn1unf5lBYPr67X3W0Sxf" x1="20.072" x2="19.026" y1="22.75" y2="22.75" gradientUnits="userSpaceOnUse"><stop offset="0" stop-color="#c48f0c"/><stop offset=".251" stop-color="#d19b16"/><stop offset=".619" stop-color="#dca51f"/><stop offset="1" stop-color="#e0a922"/></linearGradient><path fill="url(#ysn1unf5lBYPr67X3W0Sxf)" d="M19.792,21.5h0.264V24h-0.352c-0.257,0-0.477-0.195-0.52-0.462l-0.172-1.064	C18.929,21.964,19.302,21.5,19.792,21.5z"/><radialGradient id="ysn1unf5lBYPr67X3W0Sxg" cx="-21.648" cy="38.985" r="6.112" gradientTransform="translate(40.965 -8.518) scale(.7837)" gradientUnits="userSpaceOnUse"><stop offset="0" stop-color="#ffcf54"/><stop offset=".261" stop-color="#fdcb4d"/><stop offset=".639" stop-color="#f7c13a"/><stop offset="1" stop-color="#f0b421"/></radialGradient><path fill="url(#ysn1unf5lBYPr67X3W0Sxg)" d="M24,16.567c-1.974,0-4,0.3-4,4.567c0,0.342,0,2.612,0,2.977c0,1.523,2.4,3.39,4,3.39	s4-1.867,4-3.39c0-0.365,0-2.635,0-2.977C28,16.867,25.974,16.567,24,16.567z"/><radialGradient id="ysn1unf5lBYPr67X3W0Sxh" cx="-26.499" cy="32.484" r="15.002" gradientTransform="translate(43.086 -13.02) scale(.8816)" gradientUnits="userSpaceOnUse"><stop offset="0" stop-color="#c26715"/><stop offset=".508" stop-color="#b85515"/><stop offset="1" stop-color="#ad3f16"/></radialGradient><path fill="url(#ysn1unf5lBYPr67X3W0Sxh)" d="M24,15c-2.177,0-2.5,0.818-2.5,0.818C20.615,15.949,19,16.499,19,19c0,0.827,0.407,2.89,1,4	c0.273-3.273,0.624-5,1.5-5c0.633,0,1.136-1,2.5-1c1.151,0,1.437,1,2.5,1c1.5,0,1.5,4.484,1.5,5c0.644-1.153,1-3.278,1-4	C29,16.477,27.105,15,24,15z"/><radialGradient id="ysn1unf5lBYPr67X3W0Sxi" cx="-40.707" cy="33.694" r="19.272" gradientTransform="matrix(.8431 0 0 .8816 57.401 -13.02)" gradientUnits="userSpaceOnUse"><stop offset="0" stop-color="#c26715"/><stop offset=".508" stop-color="#b85515"/><stop offset="1" stop-color="#ad3f16"/></radialGradient><path fill="url(#ysn1unf5lBYPr67X3W0Sxi)" d="M23,15c-1.996,0-2,2-2,2c-0.024,0.676,0.469,1,3,1c1.528,0,4-0.454,4-3C28,15,26.464,15,23,15	z"/></svg>