<svg xmlns="http://www.w3.org/2000/svg" data-name="Слой 1" viewBox="0 0 48 48"><defs><linearGradient id="4D_ze7476hS7xPRa_cq4va" x1="15.193" x2="30.204" y1="1.123" y2="42.366" data-name="Безымянный градиент 62" gradientUnits="userSpaceOnUse"><stop offset="0" stop-color="#889097"/><stop offset="1" stop-color="#4c5963"/></linearGradient><linearGradient id="4D_ze7476hS7xPRa_cq4vb" x1="29.007" x2="5.822" y1="45.176" y2="34.611" data-name="Безымянный градиент 147" gradientUnits="userSpaceOnUse"><stop offset="0" stop-color="#dfe9f2"/><stop offset=".391" stop-color="#d6e0e9"/><stop offset="1" stop-color="#bfc8d1"/></linearGradient></defs><path fill="url(#4D_ze7476hS7xPRa_cq4va)" d="M37.0498,8.84375A20.00026,20.00026,0,0,0,4,24a19.83462,19.83462,0,0,0,6.11133,14.3916,2.00011,2.00011,0,1,0,2.77734-2.8789A16.00012,16.00012,0,0,1,24,8a16.1144,16.1144,0,0,1,10.45117,3.88477A11.82989,11.82989,0,0,1,38,20.5C38,28.97852,31.80078,32,26,32c-5.70117,0-10-3.43945-10-8a8.00917,8.00917,0,0,1,8-8,6.766,6.766,0,0,1,4.72363,1.792,4.5861,4.5861,0,0,1,.88965,4.53614,2.67472,2.67472,0,0,1-1.64294,1.37866,3.99016,3.99016,0,1,0-4.3739,4.25244A2.01624,2.01624,0,0,0,24,28h2c4.69141,0,6.55078-2.499,7.24219-3.98828A8.56071,8.56071,0,0,0,31.77637,15.208C29.90137,12.99219,26.51953,12,24,12A12.01312,12.01312,0,0,0,12,24c0,6.84082,6.01855,12,14,12,7.96387,0,16-4.793,16-15.5A15.80025,15.80025,0,0,0,37.0498,8.84375Z"/><path fill="url(#4D_ze7476hS7xPRa_cq4vb)" d="M24,44a19.8971,19.8971,0,0,1-13.88867-5.60937,1.99941,1.99941,0,0,1,2.77734-2.877A15.92468,15.92468,0,0,0,24,40a2,2,0,0,1,0,4Z"/></svg>