<svg xmlns="http://www.w3.org/2000/svg" viewBox="0 0 48 48"><linearGradient id="jpBmjBTjVO4nkcPPogmeWa" x1="4.432" x2="17.933" y1="23.995" y2="23.995" gradientUnits="userSpaceOnUse"><stop offset="0" stop-color="#199ae0"/><stop offset="1" stop-color="#0782d8"/></linearGradient><path fill="url(#jpBmjBTjVO4nkcPPogmeWa)" d="M14.22,41.8c-1.06,0.09-2.11,0.14-3.15,0.17C9.94,42,9,41.1,9,39.97c0,0,2-6.97,2-15.97	S9,8.02,9,8.02c0-1.12,0.92-2.02,2.05-2c1.14,0.02,2.24,0.05,3.31,0.11C13.57,6.39,13,7.14,13,8.02c0,0,2,6.98,2,15.98	s-2,15.97-2,15.97C13,40.79,13.5,41.5,14.22,41.8z"/><linearGradient id="jpBmjBTjVO4nkcPPogmeWb" x1="16.568" x2="36.557" y1="23.965" y2="23.965" gradientUnits="userSpaceOnUse"><stop offset="0" stop-color="#eba600"/><stop offset="1" stop-color="#c28200"/></linearGradient><path fill="url(#jpBmjBTjVO4nkcPPogmeWb)" d="M42,24v4c-2.62,8.73-15.64,12.89-27.78,13.8C13.5,41.5,13,40.79,13,39.97c0,0,2-6.97,2-15.97	S13,8.02,13,8.02c0-0.88,0.57-1.63,1.36-1.89h0.01C24.75,6.66,31.98,8.98,38,15L42,24z"/><linearGradient id="jpBmjBTjVO4nkcPPogmeWc" x1="-.273" x2="9.688" y1="23.991" y2="23.991" gradientUnits="userSpaceOnUse"><stop offset="0" stop-color="#199ae0"/><stop offset="1" stop-color="#0782d8"/></linearGradient><path fill="url(#jpBmjBTjVO4nkcPPogmeWc)" d="M8.994,23.991C8.994,23.991,9,23.983,9,23.983H8.988c-0.132-0.185-5.015-7-6.988-7	l-0.021,0.021C1.437,17.016,1,17.455,1,18v5.983V24v5.983c0,0.545,0.437,0.984,0.979,0.996L2,31c1.973,0,6.856-6.815,6.988-7H9	C9,24,8.994,23.992,8.994,23.991z"/><linearGradient id="jpBmjBTjVO4nkcPPogmeWd" x1="26.5" x2="26.5" y1="5.886" y2="44.075" gradientUnits="userSpaceOnUse"><stop offset="0" stop-color="#ffcf54"/><stop offset=".261" stop-color="#fdcb4d"/><stop offset=".639" stop-color="#f7c13a"/><stop offset="1" stop-color="#f0b421"/></linearGradient><path fill="url(#jpBmjBTjVO4nkcPPogmeWd)" d="M47,24c0,2.97-1.83,5.7-4.61,7.89c-1.44,1.14-3.13,2.12-4.95,2.92	C34.29,36.19,30.75,37,27.48,37C19.93,37,6,26.79,6,24c0-2.79,13.93-13,21.48-13c5.26,0,8.74,2.1,11.35,4.89	c1.27,1.36,2.33,2.88,3.29,4.4c0.53,0.85,1.15,1.36,1.77,1.7C45.46,22.85,47,22.62,47,24z"/><linearGradient id="jpBmjBTjVO4nkcPPogmeWe" x1="38.945" x2="38.945" y1="15.773" y2="40.194" gradientUnits="userSpaceOnUse"><stop offset="0" stop-color="#199ae0"/><stop offset="1" stop-color="#0782d8"/></linearGradient><path fill="url(#jpBmjBTjVO4nkcPPogmeWe)" d="M42,28.75c0,1.08,0.13,2.13,0.39,3.14c-1.44,1.14-3.13,2.12-4.95,2.92	C35.31,32.5,34,29.4,34,26c0-4.08,1.88-7.73,4.83-10.11c1.27,1.36,2.33,2.88,3.29,4.4c0.53,0.85,1.15,1.36,1.77,1.7	C42.69,23.96,42,26.27,42,28.75z"/><linearGradient id="jpBmjBTjVO4nkcPPogmeWf" x1="39" x2="41" y1="23" y2="23" gradientUnits="userSpaceOnUse"><stop offset="0" stop-color="#4c4c4c"/><stop offset="1" stop-color="#343434"/></linearGradient><circle cx="40" cy="23" r="1" fill="url(#jpBmjBTjVO4nkcPPogmeWf)"/></svg>