<svg xmlns="http://www.w3.org/2000/svg" viewBox="0 0 48 48"><linearGradient id="87A1il4WPXIObdF3LC9eDa" x1="24.951" x2="30.112" y1="6.725" y2="26.407" gradientTransform="rotate(4.44 26.638 24.214)" gradientUnits="userSpaceOnUse"><stop offset="0" stop-color="#f44f5a"/><stop offset=".443" stop-color="#ee3d4a"/><stop offset="1" stop-color="#e52030"/></linearGradient><path fill="url(#87A1il4WPXIObdF3LC9eDa)" d="M43.405,20.439L29.705,7.274c-0.796-0.765-2.063-0.74-2.828,0.056L13.891,20.846	l15.534,16.975l14.037-14.555C44.227,22.47,44.202,21.204,43.405,20.439z"/><linearGradient id="87A1il4WPXIObdF3LC9eDb" x1="33.298" x2="27.723" y1="28.528" y2="29.762" gradientTransform="rotate(4.44 26.638 24.214)" gradientUnits="userSpaceOnUse"><stop offset="0" stop-color="#889097"/><stop offset="1" stop-color="#4c5963"/></linearGradient><polygon fill="url(#87A1il4WPXIObdF3LC9eDb)" points="22.813,41.23 7.963,26.962 13.843,20.843 30.428,36.778 26.533,40.832"/><path d="M27.693,39.624l8.299-24.587c0.183-0.542,0.201-1.111,0.071-1.654l-2.39-2.296l-7.857-2.652	L13.891,20.846l0.321,0.351l-0.369-0.355l-5.88,6.119L22.813,41.23l3.72-0.398L27.693,39.624z" opacity=".05"/><path d="M35.391,12.967c-0.296-0.598-0.808-1.045-1.44-1.259l-8.517-2.875L13.891,20.846l0.321,0.351	l-0.369-0.355l-5.88,6.119L22.813,41.23l3.72-0.398l0.345-0.359c0.002-0.005,0.004-0.009,0.006-0.014l8.635-25.582	C35.732,14.244,35.687,13.566,35.391,12.967z" opacity=".07"/><linearGradient id="87A1il4WPXIObdF3LC9eDc" x1="11.61" x2="23.1" y1="6.338" y2="23.104" gradientTransform="rotate(1.621 19.819 24.275)" gradientUnits="userSpaceOnUse"><stop offset="0" stop-color="#bd4ff4"/><stop offset=".587" stop-color="#a235ec"/><stop offset="1" stop-color="#8c20e5"/></linearGradient><path fill="url(#87A1il4WPXIObdF3LC9eDc)" d="M33.79,12.182L15.788,6.106c-1.047-0.353-2.181,0.209-2.535,1.255L6.857,26.31l21.792,7.356	l6.396-18.95C35.399,13.67,34.837,12.535,33.79,12.182z"/><linearGradient id="87A1il4WPXIObdF3LC9eDd" x1="28.816" x2="18.316" y1="31.096" y2="33.426" gradientUnits="userSpaceOnUse"><stop offset="0" stop-color="#889097"/><stop offset=".679" stop-color="#5f6b74"/><stop offset="1" stop-color="#4c5963"/></linearGradient><path fill="url(#87A1il4WPXIObdF3LC9eDd)" d="M23.876,41.554L3.984,34.84c-0.003-0.001-0.005-0.005-0.004-0.008l2.876-8.521l21.792,7.356	l-2.239,6.632C26.057,41.345,24.922,41.907,23.876,41.554z"/><path d="M25.02,10H12.363L6.857,26.31l2.507,10.345l14.512,4.899c1.047,0.353,2.181-0.209,2.535-1.255	l1.609-4.768V13C28.02,11.346,26.674,10,25.02,10z" opacity=".05"/><path d="M25.02,10.5H12.194L6.857,26.31l1.633,10.05l15.386,5.193c1.047,0.353,2.181-0.209,2.535-1.255	l1.109-3.286V13C27.52,11.622,26.398,10.5,25.02,10.5z" opacity=".07"/><linearGradient id="87A1il4WPXIObdF3LC9eDe" x1="4.2" x2="22.793" y1="11.266" y2="29.859" gradientUnits="userSpaceOnUse"><stop offset="0" stop-color="#33bef0"/><stop offset="1" stop-color="#0a85d9"/></linearGradient><path fill="url(#87A1il4WPXIObdF3LC9eDe)" d="M25.02,11l-19,0c-1.105,0-2,0.895-2,2l0,20l23,0l0-20C27.02,11.895,26.124,11,25.02,11z"/><linearGradient id="87A1il4WPXIObdF3LC9eDf" x1="1.133" x2="18.707" y1="21.994" y2="40.207" gradientUnits="userSpaceOnUse"><stop offset="0" stop-color="#f9f9f9"/><stop offset=".966" stop-color="#c4c9cd"/><stop offset="1" stop-color="#c2c8cc"/></linearGradient><path fill="url(#87A1il4WPXIObdF3LC9eDf)" d="M25.02,42l-19,0c-1.105,0-2-0.895-2-2l0-7l23,0l0,7C27.02,41.105,26.124,42,25.02,42z"/><circle cx="24" cy="39" r="1.414" fill="#505d66"/></svg>