<svg xmlns="http://www.w3.org/2000/svg" viewBox="0 0 48 48"><linearGradient id="mhQAhHYwJL3i~nmyxUHVOa" x1="24" x2="24" y1="41.351" y2="20.858" gradientUnits="userSpaceOnUse"><stop offset="0" stop-color="#d29c17"/><stop offset="1" stop-color="#edbe00"/></linearGradient><path fill="url(#mhQAhHYwJL3i~nmyxUHVOa)" d="M39,40H9c-2.761,0-5-2.239-5-5V14c0-2.761,2.239-5,5-5h30c2.761,0,5,2.239,5,5v21 C44,37.761,41.761,40,39,40z"/><linearGradient id="mhQAhHYwJL3i~nmyxUHVOb" x1="24" x2="24" y1="48.713" y2="21.21" gradientUnits="userSpaceOnUse"><stop offset="0" stop-color="#edbe00"/><stop offset="1" stop-color="#fede00"/></linearGradient><path fill="url(#mhQAhHYwJL3i~nmyxUHVOb)" d="M22,36c0,1.458-0.398,2.822-1.082,4h-3.948C18.194,39.088,19,37.641,19,36 c0-2.757-2.243-5-5-5H4v-3h7v-6H4v-3h11.5c0.827,0,1.5-0.673,1.5-1.5S16.327,16,15.5,16h-2v-3h2c2.481,0,4.5,2.019,4.5,4.5 S17.981,22,15.5,22H14v6C18.411,28,22,31.589,22,36z M44,22v-3H32.5c-0.827,0-1.5-0.673-1.5-1.5s0.673-1.5,1.5-1.5h2v-3h-2 c-2.481,0-4.5,2.019-4.5,4.5s2.019,4.5,4.5,4.5H34v6c-4.411,0-8,3.589-8,8c0,1.458,0.398,2.822,1.082,4h3.948 C29.806,39.088,29,37.641,29,36c0-2.757,2.243-5,5-5h10v-3h-7v-6H44z"/></svg>