<svg xmlns="http://www.w3.org/2000/svg" viewBox="0 0 48 48"><linearGradient id="iV2FsTAEhKqukc4KkzN_6a" x1="24" x2="24" y1="-3.638" y2="12.878" gradientUnits="userSpaceOnUse"><stop offset="0" stop-color="#fafafb"/><stop offset="1" stop-color="#c8cdd1"/></linearGradient><path fill="url(#iV2FsTAEhKqukc4KkzN_6a)" d="M24,4c-4,0-4,2-8,2c0,3,2,2,2,6h12c0-4,2-3,2-6C28,6,28,4,24,4z"/><linearGradient id="iV2FsTAEhKqukc4KkzN_6b" x1=".909" x2="39.183" y1="5.772" y2="44.046" gradientUnits="userSpaceOnUse"><stop offset="0" stop-color="#fafafb"/><stop offset="1" stop-color="#c8cdd1"/></linearGradient><path fill="url(#iV2FsTAEhKqukc4KkzN_6b)" d="M41,31c0,9.389-7.611,10-17,10S7,40.389,7,31s7.611-20,17-20S41,21.611,41,31z"/><line x1="18" x2="30" y1="12" y2="12" fill="none" stroke="#8f979e" stroke-linecap="round" stroke-linejoin="round" stroke-width="2"/><linearGradient id="iV2FsTAEhKqukc4KkzN_6c" x1="18.762" x2="29.808" y1="22.004" y2="33.049" gradientUnits="userSpaceOnUse"><stop offset="0" stop-color="#0077d2"/><stop offset="1" stop-color="#0b59a2"/></linearGradient><path fill="url(#iV2FsTAEhKqukc4KkzN_6c)" d="M26.418,20H20.5c-0.276,0-0.5,0.224-0.5,0.5V30h-0.5c-0.276,0-0.5,0.224-0.5,0.5v1	c0,0.276,0.224,0.5,0.5,0.5H20v2.5c0,0.276,0.224,0.5,0.5,0.5h1c0.276,0,0.5-0.224,0.5-0.5V32h3.5c0.276,0,0.5-0.224,0.5-0.5v-1	c0-0.276-0.224-0.5-0.5-0.5H22v-2h4.641c2.318,0,4.18-1.996,3.968-4.367C30.422,21.535,28.524,20,26.418,20z M28.618,24.306	C28.468,25.312,27.508,26,26.491,26H22v-4h4.649C27.846,22,28.803,23.07,28.618,24.306z"/></svg>