<svg xmlns="http://www.w3.org/2000/svg" viewBox="0 0 48 48"><linearGradient id="X9Ii~E3fodl1GsT1_pgMJa" x1="9.899" x2="38.183" y1="108.02" y2="79.736" gradientTransform="matrix(1 0 0 -1 0 118)" gradientUnits="userSpaceOnUse"><stop offset="0" stop-color="#f44f5a"/><stop offset=".443" stop-color="#ee3d4a"/><stop offset="1" stop-color="#e52030"/></linearGradient><path fill="url(#X9Ii~E3fodl1GsT1_pgMJa)" d="M44.041,24.122c0,11.045-8.955,20-20,20s-20-8.955-20-20s8.955-20,20-20	S44.041,13.077,44.041,24.122z"/><path d="M14.049,28C12.919,28,12,27.081,12,25.951v-3.902C12,20.919,12.919,20,14.049,20h19.902	C35.081,20,36,20.919,36,22.049v3.902C36,27.081,35.081,28,33.951,28H14.049z" opacity=".05"/><path d="M14.049,27.5c-0.854,0-1.549-0.695-1.549-1.549v-3.902c0-0.854,0.694-1.549,1.549-1.549h19.902	c0.854,0,1.549,0.695,1.549,1.549v3.902c0,0.854-0.694,1.549-1.549,1.549H14.049z" opacity=".05"/><path fill="#fff" d="M33.951,27H14.049C13.47,27,13,26.53,13,25.951v-3.902C13,21.47,13.47,21,14.049,21h19.902	C34.53,21,35,21.47,35,22.049v3.902C35,26.53,34.53,27,33.951,27z"/></svg>