<svg xmlns="http://www.w3.org/2000/svg" viewBox="0 0 48 48"><linearGradient id="jOCNn6VZs2QA~n9JLE~s0a" x1="21.57" x2="26.456" y1="6.825" y2="41.353" gradientUnits="userSpaceOnUse"><stop offset="0" stop-color="#0d61a9"/><stop offset="1" stop-color="#16528c"/></linearGradient><path fill="url(#jOCNn6VZs2QA~n9JLE~s0a)" d="M42,7H6C4.895,7,4,7.895,4,9v30c0,1.105,0.895,2,2,2h36c1.105,0,2-0.895,2-2V9	C44,7.895,43.105,7,42,7z"/><linearGradient id="jOCNn6VZs2QA~n9JLE~s0b" x1="10" x2="18" y1="24" y2="24" gradientUnits="userSpaceOnUse"><stop offset="0" stop-color="#ffd869"/><stop offset="1" stop-color="#fec52b"/></linearGradient><path fill="url(#jOCNn6VZs2QA~n9JLE~s0b)" d="M17,28h-6c-0.552,0-1-0.448-1-1v-6c0-0.552,0.448-1,1-1h6c0.552,0,1,0.448,1,1v6	C18,27.552,17.552,28,17,28z"/><polygon fill="#50e6ff" points="8,26 6,24 8,22"/><radialGradient id="jOCNn6VZs2QA~n9JLE~s0c" cx="22.135" cy="36.45" r="5.225" gradientTransform="translate(9.818 -16.88) scale(.9569)" gradientUnits="userSpaceOnUse"><stop offset="0"/><stop offset="1" stop-opacity="0"/></radialGradient><circle cx="31" cy="18" r="5" fill="url(#jOCNn6VZs2QA~n9JLE~s0c)"/><linearGradient id="jOCNn6VZs2QA~n9JLE~s0d" x1="28.286" x2="33.867" y1="15.286" y2="20.867" gradientUnits="userSpaceOnUse"><stop offset="0" stop-color="#75daff"/><stop offset="1" stop-color="#1ea2e4"/></linearGradient><circle cx="31" cy="18" r="4" fill="url(#jOCNn6VZs2QA~n9JLE~s0d)"/><path d="M31,23c-4.411,0-8,3.589-8,8v2.125C23,34.159,23.841,35,24.875,35h12.25	C38.159,35,39,34.159,39,33.125V31C39,26.589,35.411,23,31,23z" opacity=".05"/><path d="M31,23.5c-4.136,0-7.5,3.364-7.5,7.5v2.125c0,0.758,0.617,1.375,1.375,1.375h12.25	c0.758,0,1.375-0.617,1.375-1.375V31C38.5,26.864,35.136,23.5,31,23.5z" opacity=".07"/><linearGradient id="jOCNn6VZs2QA~n9JLE~s0e" x1="29.283" x2="31.497" y1="24.364" y2="33.833" gradientUnits="userSpaceOnUse"><stop offset="0" stop-color="#75daff"/><stop offset="1" stop-color="#1ea2e4"/></linearGradient><path fill="url(#jOCNn6VZs2QA~n9JLE~s0e)" d="M38,31c0-3.866-3.134-7-7-7s-7,3.134-7,7c0,0.605,0,2.125,0,2.125	C24,33.608,24.392,34,24.875,34h12.25C37.608,34,38,33.608,38,33.125C38,33.125,38,31.605,38,31z"/></svg>