<svg xmlns="http://www.w3.org/2000/svg" data-name="Слой 1" viewBox="0 0 48 48"><rect width="36" height="7" x="6" y="6" fill="#343434" rx="3.5"/><path fill="#50e6ff" d="M35,42H13a1.99945,1.99945,0,0,1-2-2V31H37v9A1.99945,1.99945,0,0,1,35,42Z"/><path fill="#199ae0" d="M35,40H13a1.99945,1.99945,0,0,1-2-2V29H37v9A1.99945,1.99945,0,0,1,35,40Z"/><path fill="#50e6ff" d="M35,38H13a1.99945,1.99945,0,0,1-2-2V10H37V36A1.99945,1.99945,0,0,1,35,38Z"/><rect width="26" height="2" x="11" y="9" fill="#199ae0"/></svg>