<svg xmlns="http://www.w3.org/2000/svg" viewBox="0 0 48 48"><linearGradient id="wNpsM5vAUjrtZKceBnS6pa" x1="23.625" x2="46.127" y1="26.375" y2="3.873" gradientUnits="userSpaceOnUse"><stop offset="0" stop-color="#d69525"/><stop offset=".361" stop-color="#eaae2b"/><stop offset=".686" stop-color="#f3bc4d"/><stop offset=".992" stop-color="#fac666"/></linearGradient><circle cx="29.5" cy="20.5" r="15.5" fill="url(#wNpsM5vAUjrtZKceBnS6pa)"/><radialGradient id="wNpsM5vAUjrtZKceBnS6pb" cx="19.529" cy="27.059" r="16.533" gradientUnits="userSpaceOnUse"><stop offset="0"/><stop offset=".661" stop-color="#121010" stop-opacity=".5"/><stop offset="1" stop-opacity="0"/></radialGradient><path fill="url(#wNpsM5vAUjrtZKceBnS6pb)" d="M36,27.5c0,2.8-0.66,5.44-1.83,7.78	C32.7,35.75,31.13,36,29.5,36C20.94,36,14,29.06,14,20.5c0-4.05,1.56-7.74,4.1-10.49C18.23,10,18.37,10,18.5,10	C28.16,10,36,17.84,36,27.5z" opacity=".3"/><linearGradient id="wNpsM5vAUjrtZKceBnS6pc" x1="3" x2="34" y1="27.5" y2="27.5" gradientUnits="userSpaceOnUse"><stop offset="0" stop-color="#ffcf7b"/><stop offset=".196" stop-color="#fecd76"/><stop offset=".439" stop-color="#fac666"/><stop offset=".709" stop-color="#f3bc4d"/><stop offset=".995" stop-color="#eaad2a"/><stop offset="1" stop-color="#eaad29"/></linearGradient><circle cx="18.5" cy="27.5" r="15.5" fill="url(#wNpsM5vAUjrtZKceBnS6pc)"/><radialGradient id="wNpsM5vAUjrtZKceBnS6pd" cx="10.5" cy="198" r="3" gradientTransform="matrix(1 0 0 -1 0 224)" gradientUnits="userSpaceOnUse"><stop offset="0"/><stop offset=".661" stop-color="#121010" stop-opacity=".5"/><stop offset="1" stop-opacity="0"/></radialGradient><circle cx="10.5" cy="26" r="3" fill="url(#wNpsM5vAUjrtZKceBnS6pd)" opacity=".3"/><radialGradient id="wNpsM5vAUjrtZKceBnS6pe" cx="15" cy="205.5" r="1.5" gradientTransform="matrix(1 0 0 -1 0 224)" gradientUnits="userSpaceOnUse"><stop offset="0"/><stop offset=".661" stop-color="#121010" stop-opacity=".5"/><stop offset="1" stop-opacity="0"/></radialGradient><circle cx="15" cy="18.5" r="1.5" fill="url(#wNpsM5vAUjrtZKceBnS6pe)" opacity=".3"/><radialGradient id="wNpsM5vAUjrtZKceBnS6pf" cx="18.5" cy="196" r="2" gradientTransform="matrix(1 0 0 -1 0 224)" gradientUnits="userSpaceOnUse"><stop offset="0"/><stop offset=".661" stop-color="#121010" stop-opacity=".5"/><stop offset="1" stop-opacity="0"/></radialGradient><circle cx="18.5" cy="28" r="2" fill="url(#wNpsM5vAUjrtZKceBnS6pf)" opacity=".3"/><radialGradient id="wNpsM5vAUjrtZKceBnS6pg" cx="14" cy="188.5" r="2.5" gradientTransform="matrix(1 0 0 -1 0 224)" gradientUnits="userSpaceOnUse"><stop offset="0"/><stop offset=".661" stop-color="#121010" stop-opacity=".5"/><stop offset="1" stop-opacity="0"/></radialGradient><circle cx="14" cy="35.5" r="2.5" fill="url(#wNpsM5vAUjrtZKceBnS6pg)" opacity=".3"/><radialGradient id="wNpsM5vAUjrtZKceBnS6ph" cx="23.5" cy="187" r="3" gradientTransform="matrix(1 0 0 -1 0 224)" gradientUnits="userSpaceOnUse"><stop offset="0"/><stop offset=".661" stop-color="#121010" stop-opacity=".5"/><stop offset="1" stop-opacity="0"/></radialGradient><circle cx="23.5" cy="37" r="3" fill="url(#wNpsM5vAUjrtZKceBnS6ph)" opacity=".3"/><radialGradient id="wNpsM5vAUjrtZKceBnS6pi" cx="25" cy="201.5" r="2.5" gradientTransform="matrix(1 0 0 -1 0 224)" gradientUnits="userSpaceOnUse"><stop offset="0"/><stop offset=".661" stop-color="#121010" stop-opacity=".5"/><stop offset="1" stop-opacity="0"/></radialGradient><circle cx="25" cy="22.5" r="2.5" fill="url(#wNpsM5vAUjrtZKceBnS6pi)" opacity=".3"/><radialGradient id="wNpsM5vAUjrtZKceBnS6pj" cx="28" cy="193.5" r="1.5" gradientTransform="matrix(1 0 0 -1 0 224)" gradientUnits="userSpaceOnUse"><stop offset="0"/><stop offset=".661" stop-color="#121010" stop-opacity=".5"/><stop offset="1" stop-opacity="0"/></radialGradient><circle cx="28" cy="30.5" r="1.5" fill="url(#wNpsM5vAUjrtZKceBnS6pj)" opacity=".3"/><linearGradient id="wNpsM5vAUjrtZKceBnS6pk" x1="8" x2="29" y1="196" y2="196" gradientTransform="matrix(1 0 0 -1 0 224)" gradientUnits="userSpaceOnUse"><stop offset="0" stop-color="#c26715"/><stop offset="0" stop-color="#c26715"/><stop offset=".51" stop-color="#b85515"/><stop offset="1" stop-color="#ad3f16"/></linearGradient><path fill="url(#wNpsM5vAUjrtZKceBnS6pk)" d="M10.538,22.923C9.136,22.923,8,24.059,8,25.462S9.136,28,10.538,28s2.538-1.136,2.538-2.538	S11.941,22.923,10.538,22.923z M23.538,33.923c-1.402,0-2.538,1.136-2.538,2.538S22.136,39,23.538,39s2.538-1.136,2.538-2.538	S24.941,33.923,23.538,33.923z M14,33c-1.105,0-2,0.895-2,2s0.895,2,2,2s2-0.895,2-2S15.105,33,14,33z M25,20c-1.105,0-2,0.895-2,2	s0.895,2,2,2s2-0.895,2-2S26.105,20,25,20z M18.5,26c-0.828,0-1.5,0.672-1.5,1.5s0.672,1.5,1.5,1.5s1.5-0.672,1.5-1.5	S19.328,26,18.5,26z M28,29c-0.552,0-1,0.448-1,1s0.448,1,1,1s1-0.448,1-1S28.552,29,28,29z M15,17c-0.552,0-1,0.448-1,1	s0.448,1,1,1s1-0.448,1-1S15.552,17,15,17z"/><radialGradient id="wNpsM5vAUjrtZKceBnS6pl" cx="37" cy="204" r="3" gradientTransform="matrix(1 0 0 -1 0 224)" gradientUnits="userSpaceOnUse"><stop offset="0"/><stop offset=".661" stop-color="#121010" stop-opacity=".5"/><stop offset="1" stop-opacity="0"/></radialGradient><circle cx="37" cy="20" r="3" fill="url(#wNpsM5vAUjrtZKceBnS6pl)" opacity=".3"/><radialGradient id="wNpsM5vAUjrtZKceBnS6pm" cx="38.5" cy="196.5" r="1.5" gradientTransform="matrix(1 0 0 -1 0 224)" gradientUnits="userSpaceOnUse"><stop offset="0"/><stop offset=".661" stop-color="#121010" stop-opacity=".5"/><stop offset="1" stop-opacity="0"/></radialGradient><circle cx="38.5" cy="27.5" r="1.5" fill="url(#wNpsM5vAUjrtZKceBnS6pm)" opacity=".3"/><radialGradient id="wNpsM5vAUjrtZKceBnS6pn" cx="30.5" cy="214.5" r="2.5" gradientTransform="matrix(1 0 0 -1 0 224)" gradientUnits="userSpaceOnUse"><stop offset="0"/><stop offset=".661" stop-color="#121010" stop-opacity=".5"/><stop offset="1" stop-opacity="0"/></radialGradient><circle cx="30.5" cy="9.5" r="2.5" fill="url(#wNpsM5vAUjrtZKceBnS6pn)" opacity=".3"/><radialGradient id="wNpsM5vAUjrtZKceBnS6po" cx="39.5" cy="210.5" r="1.5" gradientTransform="matrix(1 0 0 -1 0 224)" gradientUnits="userSpaceOnUse"><stop offset="0"/><stop offset=".661" stop-color="#121010" stop-opacity=".5"/><stop offset="1" stop-opacity="0"/></radialGradient><circle cx="39.5" cy="13.5" r="1.5" fill="url(#wNpsM5vAUjrtZKceBnS6po)" opacity=".3"/><radialGradient id="wNpsM5vAUjrtZKceBnS6pp" cx="23.5" cy="213.5" r="1.5" gradientTransform="matrix(1 0 0 -1 0 224)" gradientUnits="userSpaceOnUse"><stop offset="0"/><stop offset=".661" stop-color="#121010" stop-opacity=".5"/><stop offset="1" stop-opacity="0"/></radialGradient><circle cx="23.5" cy="10.5" r="1.5" fill="url(#wNpsM5vAUjrtZKceBnS6pp)" opacity=".3"/><linearGradient id="wNpsM5vAUjrtZKceBnS6pq" x1="37.917" x2="32.401" y1="11.583" y2="17.099" gradientUnits="userSpaceOnUse"><stop offset="0" stop-color="#c26715"/><stop offset="0" stop-color="#c26715"/><stop offset=".51" stop-color="#b85515"/><stop offset="1" stop-color="#ad3f16"/></linearGradient><path fill="url(#wNpsM5vAUjrtZKceBnS6pq)" d="M37.038,16.923c-1.402,0-2.538,1.136-2.538,2.538S35.636,22,37.038,22	s2.538-1.136,2.538-2.538S38.441,16.923,37.038,16.923z M30.5,7c-1.105,0-2,0.895-2,2s0.895,2,2,2s2-0.895,2-2S31.605,7,30.5,7z M39.5,12c-0.552,0-1,0.448-1,1s0.448,1,1,1s1-0.448,1-1S40.052,12,39.5,12z M23.5,9c-0.552,0-1,0.448-1,1s0.448,1,1,1s1-0.448,1-1	S24.052,9,23.5,9z M38.5,26c-0.552,0-1,0.448-1,1s0.448,1,1,1s1-0.448,1-1S39.052,26,38.5,26z"/></svg>