<svg xmlns="http://www.w3.org/2000/svg" viewBox="0 0 48 48"><path fill="#50e6ff" d="M44,7h-1c0,0.552-0.448,1-1,1s-1-0.448-1-1h-2c0,0.552-0.448,1-1,1s-1-0.448-1-1h-2	c0,0.552-0.448,1-1,1s-1-0.448-1-1h-2c0,0.552-0.448,1-1,1s-1-0.448-1-1h-2c0,0.552-0.448,1-1,1s-1-0.448-1-1h-2	c0,0.552-0.448,1-1,1s-1-0.448-1-1h-2c0,0.552-0.448,1-1,1s-1-0.448-1-1h-2c0,0.552-0.448,1-1,1s-1-0.448-1-1h-2	c0,0.552-0.448,1-1,1S9,7.552,9,7H7c0,0.552-0.448,1-1,1S5,7.552,5,7H4C3.448,7,3,7.448,3,8v31c0,1.105,0.895,2,2,2h38	c1.105,0,2-0.895,2-2V8C45,7.448,44.552,7,44,7z"/><path fill="#199be2" d="M23.5,17h-15C8.224,17,8,16.776,8,16.5v-1C8,15.224,8.224,15,8.5,15h15c0.276,0,0.5,0.224,0.5,0.5v1	C24,16.776,23.776,17,23.5,17z"/><path fill="#199be2" d="M20.5,21h-12C8.224,21,8,20.776,8,20.5v-1C8,19.224,8.224,19,8.5,19h12c0.276,0,0.5,0.224,0.5,0.5v1	C21,20.776,20.776,21,20.5,21z"/><path fill="#0078d4" d="M40.773,28.687c0-5.654-8.348-4.55-8.348-7.891c0-1.744,1.96-1.836,2.574-1.836	c1.473,0,2.896,0.395,3.98,0.904c0.342,0.16,0.734-0.077,0.734-0.454v-1.645c0-0.552-0.208-0.879-0.539-1.008	c-0.744-0.289-1.811-0.5-3.39-0.552v-1.811c0-0.217-0.176-0.393-0.393-0.393h-0.786c-0.217,0-0.393,0.176-0.393,0.393v1.84	c-2.448,0.239-4.988,1.621-4.988,4.837c0,5.861,8.347,4.699,8.347,7.786c0,0.97-0.62,1.807-2.574,1.807	c-1.964,0-3.769-0.686-4.768-1.197c-0.336-0.172-0.732,0.077-0.732,0.455v1.873c0,0.359,0.216,0.679,0.547,0.819	c1.184,0.503,2.771,0.883,4.167,0.995v2.001c0,0.217,0.176,0.393,0.393,0.393h0.786c0.217,0,0.393-0.176,0.393-0.393V33.61	C39.449,33.305,40.773,30.852,40.773,28.687z"/><path fill="#199be2" d="M14,36c-0.472,0-0.886-0.221-1.137-0.605c-0.169-0.26-0.255-0.583-0.255-0.96	c0-0.655,0.349-1.797,0.904-2.939c-0.153-1.007-0.442-2.084-0.901-2.863C12.317,28.132,12.083,28,12,28	c-1.043,0-1.823,2.192-2.019,3.192c-0.106,0.542-0.625,0.894-1.174,0.789c-0.542-0.106-0.896-0.632-0.789-1.174	C8.115,30.316,9.045,26,12,26c1.502,0,2.457,1.476,3.012,3.174C15.634,28.473,16.32,28,17,28c1.993,0,2.648,2.312,3.127,4.001	c0.017,0.058,0.034,0.119,0.052,0.181c0.043-0.085,0.084-0.167,0.121-0.242c0.638-1.285,1.361-2.74,2.7-2.74c0.553,0,1,0.448,1,1	c0,0.524-0.403,0.955-0.917,0.997c-0.28,0.2-0.741,1.127-0.992,1.633C21.513,33.995,21.013,35,20,35	c-1.102,0-1.424-1.137-1.797-2.453C18.006,31.85,17.481,30,17,30c-0.324,0.125-0.91,0.947-1.423,1.868	c0.051,0.46,0.074,0.883,0.074,1.238c0,0.672-0.069,1.231-0.207,1.662C15.09,35.88,14.316,36,14,36z"/></svg>