<svg xmlns="http://www.w3.org/2000/svg" viewBox="0 0 48 48"><linearGradient id="q1j2Af3bOQ_52wSqo4_Vxa" x1="24" x2="24" y1="19.959" y2="24.39" gradientUnits="userSpaceOnUse"><stop offset="0" stop-color="#899198"/><stop offset="1" stop-color="#787e85"/></linearGradient><path fill="url(#q1j2Af3bOQ_52wSqo4_Vxa)" d="M44,24H4c-0.552,0-1-0.448-1-1v-2c0-0.552,0.448-1,1-1h40c0.552,0,1,0.448,1,1v2	C45,23.552,44.552,24,44,24z"/><path fill="#35c1f1" d="M8,32H6c-0.552,0-1-0.448-1-1V13c0-0.552,0.448-1,1-1h2c0.552,0,1,0.448,1,1v18	C9,31.552,8.552,32,8,32z"/><path fill="#1b9de2" d="M16,38h-6c-0.552,0-1-0.448-1-1V7c0-0.552,0.448-1,1-1h6c0.552,0,1,0.448,1,1v30	C17,37.552,16.552,38,16,38z"/><path fill="#35c1f1" d="M40,12h2c0.552,0,1,0.448,1,1v18c0,0.552-0.448,1-1,1h-2c-0.552,0-1-0.448-1-1V13	C39,12.448,39.448,12,40,12z"/><path fill="#1b9de2" d="M32,6h6c0.552,0,1,0.448,1,1v30c0,0.552-0.448,1-1,1h-6c-0.552,0-1-0.448-1-1V7	C31,6.448,31.448,6,32,6z"/></svg>