<svg xmlns="http://www.w3.org/2000/svg" viewBox="0 0 48 48"><linearGradient id="tq6yjqShdkwkCaEvwtbwHa" x1="20.439" x2="27.561" y1="3.806" y2="44.194" gradientUnits="userSpaceOnUse"><stop offset="0" stop-color="#33bef0"/><stop offset="1" stop-color="#22a5e2"/></linearGradient><path fill="url(#tq6yjqShdkwkCaEvwtbwHa)" d="M40.004,41.969L8.031,42c-1.099,0.001-1.999-0.897-2-1.996L6,8.031 c-0.001-1.099,0.897-1.999,1.996-2L39.969,6c1.099-0.001,1.999,0.897,2,1.996L42,39.969C42.001,41.068,41.103,41.968,40.004,41.969 z"/><linearGradient id="tq6yjqShdkwkCaEvwtbwHb" x1="20.988" x2="27.012" y1="6.915" y2="41.085" gradientUnits="userSpaceOnUse"><stop offset="0" stop-color="#fafafb"/><stop offset=".293" stop-color="#f6f7f8"/><stop offset=".566" stop-color="#ebecee"/><stop offset=".832" stop-color="#d8dcdf"/><stop offset="1" stop-color="#c8cdd1"/></linearGradient><path fill="url(#tq6yjqShdkwkCaEvwtbwHb)" d="M38.971,9L39,38.971L9.029,39L9,9.029L38.971,9"/><linearGradient id="tq6yjqShdkwkCaEvwtbwHc" x1="6.823" x2="8.177" y1="36.663" y2="44.337" gradientUnits="userSpaceOnUse"><stop offset="0" stop-color="#3079d6"/><stop offset="1" stop-color="#297cd2"/></linearGradient><path fill="url(#tq6yjqShdkwkCaEvwtbwHc)" d="M5,37h5c0.552,0,1,0.448,1,1v5c0,0.552-0.448,1-1,1H5c-0.552,0-1-0.448-1-1v-5 C4,37.448,4.448,37,5,37z"/><linearGradient id="tq6yjqShdkwkCaEvwtbwHd" x1="39.828" x2="41.172" y1="36.689" y2="44.311" gradientUnits="userSpaceOnUse"><stop offset="0" stop-color="#3079d6"/><stop offset="1" stop-color="#297cd2"/></linearGradient><path fill="url(#tq6yjqShdkwkCaEvwtbwHd)" d="M38.167,37h4.667C43.478,37,44,37.522,44,38.167v4.667C44,43.478,43.478,44,42.833,44h-4.667 C37.522,44,37,43.478,37,42.833v-4.667C37,37.522,37.522,37,38.167,37z"/><linearGradient id="tq6yjqShdkwkCaEvwtbwHe" x1="6.823" x2="8.177" y1="3.663" y2="11.337" gradientUnits="userSpaceOnUse"><stop offset="0" stop-color="#3079d6"/><stop offset="1" stop-color="#297cd2"/></linearGradient><path fill="url(#tq6yjqShdkwkCaEvwtbwHe)" d="M5,4h5c0.552,0,1,0.448,1,1v5c0,0.552-0.448,1-1,1H5c-0.552,0-1-0.448-1-1V5 C4,4.448,4.448,4,5,4z"/><linearGradient id="tq6yjqShdkwkCaEvwtbwHf" x1="39.823" x2="41.177" y1="3.663" y2="11.337" gradientUnits="userSpaceOnUse"><stop offset="0" stop-color="#3079d6"/><stop offset="1" stop-color="#297cd2"/></linearGradient><path fill="url(#tq6yjqShdkwkCaEvwtbwHf)" d="M38,4h5c0.552,0,1,0.448,1,1v5c0,0.552-0.448,1-1,1h-5c-0.552,0-1-0.448-1-1V5 C37,4.448,37.448,4,38,4z"/><linearGradient id="tq6yjqShdkwkCaEvwtbwHg" x1="26.848" x2="29.152" y1="21.467" y2="34.533" gradientUnits="userSpaceOnUse"><stop offset="0" stop-color="#a235d4"/><stop offset=".441" stop-color="#a033d1"/><stop offset=".702" stop-color="#982cc9"/><stop offset=".915" stop-color="#8b21bb"/><stop offset="1" stop-color="#831bb3"/></linearGradient><path fill="url(#tq6yjqShdkwkCaEvwtbwHg)" d="M32,34h-8c-1.105,0-2-0.895-2-2v-8c0-1.105,0.895-2,2-2h8c1.105,0,2,0.895,2,2v8 C34,33.105,33.105,34,32,34z"/><path d="M24,27h-2v-3c0-1.105,0.895-2,2-2h3v2C27,25.657,25.657,27,24,27z" opacity=".05"/><path d="M24,26.5h-2V24c0-1.105,0.895-2,2-2h2.5v2C26.5,25.381,25.381,26.5,24,26.5z" opacity=".05"/><linearGradient id="tq6yjqShdkwkCaEvwtbwHh" x1="18.848" x2="21.152" y1="13.467" y2="26.533" gradientUnits="userSpaceOnUse"><stop offset="0" stop-color="#c965eb"/><stop offset="1" stop-color="#c767e5"/></linearGradient><path fill="url(#tq6yjqShdkwkCaEvwtbwHh)" d="M24,26h-8c-1.105,0-2-0.895-2-2v-8c0-1.105,0.895-2,2-2h8c1.105,0,2,0.895,2,2v8 C26,25.105,25.105,26,24,26z"/></svg>