<svg xmlns="http://www.w3.org/2000/svg" viewBox="0 0 48 48"><linearGradient id="jUezJHHtSXZCV~wonIrZna" x1="9.858" x2="38.142" y1="-27.858" y2="-56.142" gradientTransform="matrix(1 0 0 -1 0 -18)" gradientUnits="userSpaceOnUse"><stop offset="0" stop-color="#75daff"/><stop offset="1" stop-color="#1ea2e4"/></linearGradient><path fill="url(#jUezJHHtSXZCV~wonIrZna)" d="M44,24c0,11.045-8.955,20-20,20S4,35.045,4,24S12.955,4,24,4S44,12.955,44,24z"/><radialGradient id="jUezJHHtSXZCV~wonIrZnb" cx="24" cy="-42" r="18.5" gradientTransform="matrix(1 0 0 -1 0 -18)" gradientUnits="userSpaceOnUse"><stop offset="0"/><stop offset="1" stop-opacity="0"/></radialGradient><circle cx="24" cy="24" r="18.5" fill="url(#jUezJHHtSXZCV~wonIrZnb)"/><radialGradient id="jUezJHHtSXZCV~wonIrZnc" cx="23.89" cy="-25.394" r="37.883" gradientTransform="matrix(1 0 0 -1 0 -18)" gradientUnits="userSpaceOnUse"><stop offset="0" stop-color="#fafafb"/><stop offset="1" stop-color="#c8cdd1"/></radialGradient><circle cx="24" cy="24" r="17" fill="url(#jUezJHHtSXZCV~wonIrZnc)"/><linearGradient id="jUezJHHtSXZCV~wonIrZnd" x1="22.022" x2="24.055" y1="-29.424" y2="-50.013" gradientTransform="scale(1 -1) rotate(-45 45.728 -32.5)" gradientUnits="userSpaceOnUse"><stop offset="0" stop-color="#33d7f0"/><stop offset="1" stop-color="#0083c4"/></linearGradient><path fill="url(#jUezJHHtSXZCV~wonIrZnd)" d="M25.451,35.568l7.235-19.303c0.145-0.401,0.061-0.867-0.261-1.189 c-0.322-0.322-0.788-0.407-1.189-0.261l-19.303,7.235c-0.137,0.056-0.266,0.139-0.377,0.25c-0.443,0.443-0.443,1.162,0,1.605 c0.078,0.078,0.167,0.138,0.26,0.189l7.365,4.226l4.226,7.365c0.051,0.093,0.11,0.182,0.189,0.26c0.443,0.443,1.162,0.443,1.605,0 C25.312,35.833,25.395,35.705,25.451,35.568z"/><linearGradient id="jUezJHHtSXZCV~wonIrZne" x1="23.894" x2="23.997" y1="-44.328" y2="-50.385" gradientTransform="scale(1 -1) rotate(-45 45.728 -32.5)" gradientUnits="userSpaceOnUse"><stop offset="0" stop-color="#007ad9"/><stop offset="1" stop-color="#0065b3"/></linearGradient><path fill="url(#jUezJHHtSXZCV~wonIrZne)" d="M22.14,25.814l-0.002,0c-0.02-0.111-0.062-0.219-0.148-0.304s-0.193-0.128-0.304-0.148 l0-0.002c0,0-9.943-1.307-9.871-1.267l7.365,4.226l4.226,7.365C23.446,35.757,22.14,25.814,22.14,25.814z"/></svg>