<svg xmlns="http://www.w3.org/2000/svg" viewBox="0 0 48 48"><linearGradient id="UtISvpxMUfFA8FG~W7zoCa" x1="24" x2="24" y1="-3.638" y2="12.878" gradientUnits="userSpaceOnUse"><stop offset="0" stop-color="#f44f5a"/><stop offset=".443" stop-color="#ee3d4a"/><stop offset="1" stop-color="#e52030"/></linearGradient><path fill="url(#UtISvpxMUfFA8FG~W7zoCa)" d="M24,4c-4,0-4,2-8,2c0,3,2,2,2,6h12c0-4,2-3,2-6C28,6,28,4,24,4z"/><linearGradient id="UtISvpxMUfFA8FG~W7zoCb" x1=".909" x2="39.183" y1="5.772" y2="44.046" gradientUnits="userSpaceOnUse"><stop offset="0" stop-color="#f44f5a"/><stop offset=".443" stop-color="#ee3d4a"/><stop offset="1" stop-color="#e52030"/></linearGradient><path fill="url(#UtISvpxMUfFA8FG~W7zoCb)" d="M41,31c0,9.389-7.611,10-17,10S7,40.389,7,31s7.611-20,17-20S41,21.611,41,31z"/><line x1="18" x2="30" y1="12" y2="12" fill="none" stroke="#8f979e" stroke-linecap="round" stroke-linejoin="round" stroke-width="2"/><path d="M26.22,37c-0.35,0-0.691-0.124-0.961-0.349l-6.719-5.599C18.197,30.769,18,30.349,18,29.901V28.5	c0-0.827,0.673-1.5,1.5-1.5h0.156c-0.827,0-1.5-0.673-1.5-1.5v-1c0-0.827,0.673-1.5,1.5-1.5H19.5c-0.827,0-1.5-0.673-1.5-1.5v-1	c0-0.827,0.673-1.5,1.5-1.5c0,0,2.793,0.001,2.832,0.003l0.047-0.014l0.195,0.014L30.5,19c0.827,0,1.5,0.673,1.5,1.5v1	c0,0.827-0.673,1.5-1.5,1.5l0,0c0.827,0,1.5,0.673,1.5,1.5v1c0,0.827-0.673,1.5-1.5,1.5h-2.298c-0.648,1.697-2.1,3.045-3.896,3.652	l4.435,3.696c0.491,0.407,0.668,1.06,0.45,1.661C28.974,36.611,28.42,37,27.781,37H26.22z" opacity=".05"/><path d="M26.22,36.5c-0.234,0-0.461-0.083-0.641-0.232l-6.72-5.599c-0.229-0.189-0.36-0.47-0.36-0.768V28.5	c0-0.552,0.449-1,1-1h2.875c0.748,0,1.672-0.347,2.264-1h-4.983c-0.551,0-1-0.448-1-1v-1c0-0.552,0.449-1,1-1h4.983	c-0.592-0.653-1.517-1-2.265-1H19.5c-0.551,0-1-0.448-1-1v-1c0-0.552,0.449-1,1-1h2.714c0.058,0,0.115,0.003,0.173,0.007	l0.066-0.019L22.5,19.5h8c0.551,0,1,0.448,1,1v1c0,0.552-0.449,1-1,1h-3.082c0.179,0.319,0.322,0.653,0.428,1H30.5	c0.551,0,1,0.448,1,1v1c0,0.552-0.449,1-1,1h-2.655c-0.614,1.997-2.456,3.534-4.61,3.911l5.186,4.321	c0.327,0.271,0.445,0.707,0.3,1.107c-0.145,0.401-0.514,0.66-0.94,0.66H26.22z" opacity=".07"/><path fill="#fff" d="M30.5,22c0.276,0,0.5-0.224,0.5-0.5v-1c0-0.276-0.224-0.5-0.5-0.5h-8	c-0.019,0-0.036,0.009-0.055,0.011C22.368,20.008,22.291,20,22.214,20H19.5c-0.276,0-0.5,0.224-0.5,0.5v1c0,0.276,0.224,0.5,0.5,0.5	h2.875c1.148,0,2.636,0.697,3.164,2h-5.883c-0.276,0-0.5,0.224-0.5,0.5v1c0,0.276,0.224,0.5,0.5,0.5h5.883	c-0.528,1.303-2.017,2-3.164,2H19.5c-0.276,0-0.5,0.224-0.5,0.5v1.401c0,0.148,0.066,0.289,0.18,0.384l6.72,5.599	C25.99,35.959,26.103,36,26.22,36h1.56c0.468,0,0.679-0.585,0.32-0.884L21.961,30h0.254c2.286,0,4.712-1.571,5.246-4h3.04	c0.276,0,0.5-0.224,0.5-0.5v-1c0-0.276-0.224-0.5-0.5-0.5h-3.04c-0.167-0.758-0.518-1.431-0.992-2H30.5z"/></svg>