<svg xmlns="http://www.w3.org/2000/svg" viewBox="0 0 48 48"><path fill="#50e6ff" d="M41.992,26.981l-0.013-13.992C41.975,9.125,38.84,5.996,34.976,6L12.989,6.021 C9.125,6.025,5.996,9.16,6,13.024l0.013,13.992l0.008,7.995C6.025,38.875,9.16,42.004,13.024,42l21.987-0.021 c3.864-0.004,6.993-3.139,6.989-7.003L41.992,26.981z"/><linearGradient id="__doHZ612DGdOnHGdP~Xla" x1="-359.015" x2="-351.015" y1="-469.109" y2="-469.109" gradientTransform="matrix(1 0 0 -1 389.237 -429.109)" gradientUnits="userSpaceOnUse"><stop offset=".273" stop-color="#912fbd"/><stop offset=".588" stop-color="#8f2ebb"/><stop offset=".758" stop-color="#892bb3"/><stop offset=".894" stop-color="#7e26a5"/><stop offset="1" stop-color="#701f94"/></linearGradient><path fill="url(#__doHZ612DGdOnHGdP~Xla)" d="M37.996,38l-6.997,0.007c-0.552,0.001-1,0.449-0.999,1.001L30.003,42L38,41.992L37.996,38z"/><linearGradient id="__doHZ612DGdOnHGdP~Xlb" x1="37.864" x2="42.067" y1="-728.088" y2="-739.997" gradientTransform="matrix(1 0 0 -1 -.022 -698.206)" gradientUnits="userSpaceOnUse"><stop offset="0" stop-color="#ae4cd5"/><stop offset="1" stop-color="#ac4ad5"/></linearGradient><path fill="url(#__doHZ612DGdOnHGdP~Xlb)" d="M38,31.004l0.011,11l3.405-3.416c0.374-0.376,0.584-0.885,0.584-1.415L41.993,30 l-2.994,0.003C38.447,30.004,37.999,30.452,38,31.004z"/><linearGradient id="__doHZ612DGdOnHGdP~Xlc" x1="-2397.014" x2="-2389.014" y1="617.46" y2="617.46" gradientTransform="matrix(-1 0 0 1 -2378.594 -609.46)" gradientUnits="userSpaceOnUse"><stop offset=".273" stop-color="#912fbd"/><stop offset=".588" stop-color="#8f2ebb"/><stop offset=".758" stop-color="#892bb3"/><stop offset=".894" stop-color="#7e26a5"/><stop offset="1" stop-color="#701f94"/></linearGradient><path fill="url(#__doHZ612DGdOnHGdP~Xlc)" d="M10.004,10l6.997-0.007c0.552-0.001,1-0.449,0.999-1.001L17.997,6L10,6.008L10.004,10z"/><linearGradient id="__doHZ612DGdOnHGdP~Xld" x1="-1999.703" x2="-1995.5" y1="358.523" y2="346.613" gradientTransform="matrix(-1 0 0 1 -1989.464 -340.176)" gradientUnits="userSpaceOnUse"><stop offset="0" stop-color="#ae4cd5"/><stop offset="1" stop-color="#ac4ad5"/></linearGradient><path fill="url(#__doHZ612DGdOnHGdP~Xld)" d="M10,16.996L9.989,5.995L6.583,9.413C6.209,9.788,5.999,10.296,6,10.826L6.007,18l2.994-0.003 C9.553,17.996,10.001,17.548,10,16.996z"/><linearGradient id="__doHZ612DGdOnHGdP~Xle" x1="-2419.925" x2="-2411.925" y1="-469.67" y2="-469.67" gradientTransform="rotate(180 -1201.086 -214.252)" gradientUnits="userSpaceOnUse"><stop offset=".273" stop-color="#912fbd"/><stop offset=".588" stop-color="#8f2ebb"/><stop offset=".758" stop-color="#892bb3"/><stop offset=".894" stop-color="#7e26a5"/><stop offset="1" stop-color="#701f94"/></linearGradient><path fill="url(#__doHZ612DGdOnHGdP~Xle)" d="M9.996,38.007l7-0.007c0.552-0.001,1,0.445,1.001,0.995L18,41.992L10,42L9.996,38.007z"/><linearGradient id="__doHZ612DGdOnHGdP~Xlf" x1="-2023.099" x2="-2018.897" y1="-728.995" y2="-740.902" gradientTransform="rotate(180 -1006.651 -349.082)" gradientUnits="userSpaceOnUse"><stop offset="0" stop-color="#ae4cd5"/><stop offset="1" stop-color="#ac4ad5"/></linearGradient><path fill="url(#__doHZ612DGdOnHGdP~Xlf)" d="M9.989,30.999L10,41.997l-3.408-3.41c-0.374-0.375-0.585-0.883-0.585-1.414L6,30.003 L8.993,30C9.542,29.999,9.988,30.447,9.989,30.999z"/><linearGradient id="__doHZ612DGdOnHGdP~Xlg" x1="-336.041" x2="-328.041" y1="618.636" y2="618.636" gradientTransform="translate(365.45 -610.955)" gradientUnits="userSpaceOnUse"><stop offset=".273" stop-color="#912fbd"/><stop offset=".588" stop-color="#8f2ebb"/><stop offset=".758" stop-color="#892bb3"/><stop offset=".894" stop-color="#7e26a5"/><stop offset="1" stop-color="#701f94"/></linearGradient><path fill="url(#__doHZ612DGdOnHGdP~Xlg)" d="M38.004,9.993l-7,0.007c-0.552,0.001-1-0.445-1.001-0.995L30,6.008L38,6L38.004,9.993z"/><linearGradient id="__doHZ612DGdOnHGdP~Xlh" x1="60.785" x2="64.987" y1="359.31" y2="347.403" gradientTransform="translate(-23.292 -341.108)" gradientUnits="userSpaceOnUse"><stop offset="0" stop-color="#ae4cd5"/><stop offset="1" stop-color="#ac4ad5"/></linearGradient><path fill="url(#__doHZ612DGdOnHGdP~Xlh)" d="M38.011,17L38,6.003l3.407,3.41c0.374,0.375,0.585,0.884,0.586,1.414L42,17.997L39.008,18 C38.458,18.001,38.012,17.553,38.011,17z"/></svg>