<svg xmlns="http://www.w3.org/2000/svg" viewBox="0 0 48 48"><linearGradient id="YH2IaTfG6eUbA1Vrma0jga" x1="15.002" x2="33.584" y1="6.494" y2="42.647" gradientUnits="userSpaceOnUse"><stop offset="0" stop-color="#33d7f0"/><stop offset="1" stop-color="#0083c4"/></linearGradient><path fill="url(#YH2IaTfG6eUbA1Vrma0jga)" d="M44,24c0,11.045-8.955,20-20,20S4,35.045,4,24S12.955,4,24,4S44,12.955,44,24z"/><linearGradient id="YH2IaTfG6eUbA1Vrma0jgb" x1="15.002" x2="33.584" y1="6.494" y2="42.647" gradientUnits="userSpaceOnUse"><stop offset="0" stop-color="#33d7f0"/><stop offset="1" stop-color="#0083c4"/></linearGradient><path fill="url(#YH2IaTfG6eUbA1Vrma0jgb)" d="M44,24c0,11.045-8.955,20-20,20S4,35.045,4,24S12.955,4,24,4S44,12.955,44,24z"/><linearGradient id="YH2IaTfG6eUbA1Vrma0jgc" x1="39.38" x2="42.324" y1="32.307" y2="29.295" gradientUnits="userSpaceOnUse"><stop offset="0" stop-opacity="0"/><stop offset="1" stop-opacity=".3"/></linearGradient><path fill="url(#YH2IaTfG6eUbA1Vrma0jgc)" d="M41.188,34.188c0.904-1.521,1.609-3.168,2.086-4.914L41,27l-3.5,3.5L41.188,34.188z"/><linearGradient id="YH2IaTfG6eUbA1Vrma0jgd" x1="39.38" x2="42.324" y1="32.307" y2="29.295" gradientTransform="rotate(180 24 24)" gradientUnits="userSpaceOnUse"><stop offset="0" stop-opacity="0"/><stop offset="1" stop-opacity=".3"/></linearGradient><path fill="url(#YH2IaTfG6eUbA1Vrma0jgd)" d="M6.812,13.812c-0.904,1.521-1.609,3.168-2.086,4.914L7,21l3.5-3.5L6.812,13.812z"/><linearGradient id="YH2IaTfG6eUbA1Vrma0jge" x1="12.013" x2="37.021" y1="12.013" y2="37.021" gradientUnits="userSpaceOnUse"><stop offset="0" stop-color="#4b4b4b"/><stop offset=".531" stop-color="#393939"/><stop offset="1" stop-color="#252525"/></linearGradient><path fill="url(#YH2IaTfG6eUbA1Vrma0jge)" d="M39.757,24H42c0-9.941-8.059-18-18-18C15.303,6,8.048,12.167,6.367,20.367l2.39,2.39	C9.216,23.216,8.891,24,8.243,24H6c0,9.941,8.059,18,18,18c8.697,0,15.952-6.167,17.633-14.367l-2.39-2.39	C38.784,24.784,39.109,24,39.757,24z"/><linearGradient id="YH2IaTfG6eUbA1Vrma0jgf" x1="31.134" x2="32.706" y1="26" y2="26" gradientUnits="userSpaceOnUse"><stop offset="0" stop-color="#c48f0c"/><stop offset=".251" stop-color="#d19b16"/><stop offset=".619" stop-color="#dca51f"/><stop offset="1" stop-color="#e0a922"/></linearGradient><path fill="url(#YH2IaTfG6eUbA1Vrma0jgf)" d="M31.643,24h-1.132v4h1.282c0.441,0,0.818-0.312,0.892-0.74l0.295-1.703	C33.121,24.743,32.483,24,31.643,24z"/><linearGradient id="YH2IaTfG6eUbA1Vrma0jgg" x1="32.644" x2="34.217" y1="26" y2="26" gradientTransform="matrix(-1 0 0 1 49.51 0)" gradientUnits="userSpaceOnUse"><stop offset="0" stop-color="#c48f0c"/><stop offset=".251" stop-color="#d19b16"/><stop offset=".619" stop-color="#dca51f"/><stop offset="1" stop-color="#e0a922"/></linearGradient><path fill="url(#YH2IaTfG6eUbA1Vrma0jgg)" d="M16.357,24h1.132v4h-1.282c-0.441,0-0.818-0.312-0.892-0.74l-0.295-1.703	C14.879,24.743,15.517,24,16.357,24z"/><radialGradient id="YH2IaTfG6eUbA1Vrma0jgh" cx="-39.907" cy="-2.032" r="9.508" gradientTransform="translate(59.184 27.224) scale(.8816)" gradientUnits="userSpaceOnUse"><stop offset="0" stop-color="#ffcf54"/><stop offset=".261" stop-color="#fdcb4d"/><stop offset=".639" stop-color="#f7c13a"/><stop offset="1" stop-color="#f0b421"/></radialGradient><path fill="url(#YH2IaTfG6eUbA1Vrma0jgh)" d="M24,15.867c-3.454,0-7,0.525-7,7.992c0,0.598,0,4.571,0,5.209C17,31.733,21.2,35,24,35	s7-3.267,7-5.932c0-0.638,0-4.612,0-5.209C31,16.392,27.454,15.867,24,15.867z"/><radialGradient id="YH2IaTfG6eUbA1Vrma0jgi" cx="-48.155" cy="-13.86" r="25.074" gradientTransform="translate(59.184 27.224) scale(.8816)" gradientUnits="userSpaceOnUse"><stop offset="0" stop-color="#c26715"/><stop offset=".508" stop-color="#b85515"/><stop offset="1" stop-color="#ad3f16"/></radialGradient><path fill="url(#YH2IaTfG6eUbA1Vrma0jgi)" d="M24,14c-3.342,0-4,1-4,1c-2,0-4.5,2.029-4.5,6c0,1.447,0.5,3,1.5,6c0.477-5.727,1.467-9,3-9	c1.108,0,1.614,1,4,1c2.015,0,2-1,4-1c2.625,0,3,8.097,3,9c1-3,1.5-4.736,1.5-6C32.5,16.996,29.433,14,24,14z"/><radialGradient id="YH2IaTfG6eUbA1Vrma0jgj" cx="-66.149" cy="-12.79" r="27.989" gradientTransform="matrix(.8431 0 0 .8816 78.734 27.224)" gradientUnits="userSpaceOnUse"><stop offset="0" stop-color="#c26715"/><stop offset=".508" stop-color="#b85515"/><stop offset="1" stop-color="#ad3f16"/></radialGradient><path fill="url(#YH2IaTfG6eUbA1Vrma0jgj)" d="M24.066,13C20.423,13,20,15,20,15c-0.037,1.014,0,2,0,2s0.625,1.25,4.422,1.25	C26.714,18.25,30,16.82,30,13C30,13,29.262,13,24.066,13z"/></svg>