<svg xmlns="http://www.w3.org/2000/svg" viewBox="0 0 48 48"><linearGradient id="YIijnlL2UFmcJlmc61Jxua" x1="12.686" x2="35.58" y1="249.408" y2="212.159" gradientTransform="matrix(1 0 0 -1 0 254)" gradientUnits="userSpaceOnUse"><stop offset="0" stop-color="#33bef0"/><stop offset="1" stop-color="#0a85d9"/></linearGradient><path fill="url(#YIijnlL2UFmcJlmc61Jxua)" d="M42,8H6c-1.105,0-2,0.895-2,2v26c0,1.105,0.895,2,2,2h8v7.998	c0,0.891,1.077,1.337,1.707,0.707L24.412,38H42c1.105,0,2-0.895,2-2V10C44,8.895,43.105,8,42,8z"/><path d="M43.5,32c-1.927,0-3.546,1.092-4.5,1.924C38.046,33.092,36.427,32,34.5,32	c-1.473,0-2.858,0.595-3.9,1.674c-1.032,1.068-1.6,2.476-1.599,3.963c0,0.123,0.023,0.242,0.036,0.363H42c1.105,0,2-0.895,2-2	v-3.974C43.835,32.011,43.669,32,43.5,32z" opacity=".05"/><path d="M43.5,32.5c-2.053,0-3.768,1.399-4.5,2.102c-0.732-0.703-2.447-2.102-4.5-2.102	c-1.336,0-2.594,0.541-3.541,1.521c-0.94,0.974-1.459,2.258-1.458,3.616c0,0.123,0.024,0.242,0.038,0.363H42c1.105,0,2-0.895,2-2	v-3.448C43.833,32.535,43.671,32.5,43.5,32.5z" opacity=".07"/><linearGradient id="YIijnlL2UFmcJlmc61Jxub" x1="35.502" x2="43.968" y1="1130.041" y2="1143.08" gradientTransform="translate(0 -1098)" gradientUnits="userSpaceOnUse"><stop offset="0" stop-color="#f44f5a"/><stop offset=".443" stop-color="#ee3d4a"/><stop offset="1" stop-color="#e52030"/></linearGradient><path fill="url(#YIijnlL2UFmcJlmc61Jxub)" d="M39,35.319c0,0,2.015-2.319,4.5-2.319s4.5,2.105,4.5,4.637c0,1.57-1.5,3.091-1.5,3.091	l-6.741,6.947c-0.419,0.432-1.099,0.432-1.518,0l-6.74-6.947c0,0-1.5-1.522-1.5-3.091C30,35.105,32.015,33,34.5,33	S39,35.319,39,35.319z"/></svg>