<svg xmlns="http://www.w3.org/2000/svg" viewBox="0 0 48 48"><linearGradient id="ySIQd~lnpISXTdRy6hbp9a" x1="88.75" x2="88.75" y1="24.25" y2="54.25" gradientTransform="translate(-97.333 -28.333) scale(1.3333)" gradientUnits="userSpaceOnUse"><stop offset="0" stop-color="#fafafb"/><stop offset="1" stop-color="#c8cdd1"/></linearGradient><path fill="url(#ySIQd~lnpISXTdRy6hbp9a)" d="M38,24c0,11.046-2.954,20-14,20S4,35.046,4,24S12.954,4,24,4S38,12.954,38,24z"/><linearGradient id="ySIQd~lnpISXTdRy6hbp9b" x1="29" x2="29" y1="4.02" y2="44" gradientUnits="userSpaceOnUse"><stop offset="0" stop-color="#4c4c4c"/><stop offset="1" stop-color="#343434"/></linearGradient><path fill="url(#ySIQd~lnpISXTdRy6hbp9b)" d="M24,11c-1.66,0-3,1.34-3,3s1.34,3,3,3s3-1.34,3-3S25.66,11,24,11z M24.61,4.02 C29.85,4.34,34,8.69,34,14c0,5.52-4.48,10-10,10s-10,4.48-10,10c0,5.31,4.15,9.66,9.39,9.98C23.59,43.99,23.79,44,24,44 c11.05,0,20-8.95,20-20C44,13.15,35.38,4.33,24.61,4.02z M24,37c-1.66,0-3-1.34-3-3c0-1.66,1.34-3,3-3s3,1.34,3,3 C27,35.66,25.66,37,24,37z"/></svg>