<svg xmlns="http://www.w3.org/2000/svg" viewBox="0 0 48 48"><linearGradient id="_2SJJIeKbCI21aukX1Rxva" x1="40.854" x2="45.561" y1="21.146" y2="25.854" gradientUnits="userSpaceOnUse"><stop offset="0" stop-color="#889097"/><stop offset="1" stop-color="#64717c"/></linearGradient><path fill="url(#_2SJJIeKbCI21aukX1Rxva)" d="M44,27h-2v-7h2c0.552,0,1,0.448,1,1v5C45,26.552,44.552,27,44,27z"/><linearGradient id="_2SJJIeKbCI21aukX1Rxvb" x1="11" x2="37" y1="24" y2="24" gradientUnits="userSpaceOnUse"><stop offset="0" stop-color="#42a3f2"/><stop offset="1" stop-color="#42a4eb"/></linearGradient><path fill="url(#_2SJJIeKbCI21aukX1Rxvb)" d="M13,3h22c1.105,0,2,0.895,2,2v38c0,1.105-0.895,2-2,2H13c-1.105,0-2-0.895-2-2V5	C11,3.895,11.895,3,13,3z"/><linearGradient id="_2SJJIeKbCI21aukX1Rxvc" x1="10.565" x2="37.435" y1="10.565" y2="37.435" gradientUnits="userSpaceOnUse"><stop offset="0" stop-color="#889097"/><stop offset="1" stop-color="#64717c"/></linearGradient><circle cx="24" cy="24" r="19" fill="url(#_2SJJIeKbCI21aukX1Rxvc)"/><radialGradient id="_2SJJIeKbCI21aukX1Rxvd" cx="24" cy="24" r="17.5" gradientUnits="userSpaceOnUse"><stop offset="0"/><stop offset="1" stop-opacity="0"/></radialGradient><circle cx="24" cy="24" r="17.5" fill="url(#_2SJJIeKbCI21aukX1Rxvd)"/><radialGradient id="_2SJJIeKbCI21aukX1Rxve" cx="23.896" cy="8.371" r="35.655" gradientUnits="userSpaceOnUse"><stop offset="0" stop-color="#fafafb"/><stop offset="1" stop-color="#c8cdd1"/></radialGradient><circle cx="24" cy="24" r="16" fill="url(#_2SJJIeKbCI21aukX1Rxve)"/><path fill="#d83b01" d="M24,36.75c-0.414,0-0.75-0.336-0.75-0.75V24c0-0.414,0.336-0.75,0.75-0.75s0.75,0.336,0.75,0.75v12	C24.75,36.414,24.414,36.75,24,36.75z"/><path fill="#45494d" d="M24,24.75c-0.192,0-0.384-0.073-0.53-0.22c-0.293-0.293-0.293-0.768,0-1.061l8.485-8.485	c0.293-0.293,0.768-0.293,1.061,0s0.293,0.768,0,1.061L24.53,24.53C24.384,24.677,24.192,24.75,24,24.75z"/><path fill="#45494d" d="M23.999,25.25c-0.181,0-0.365-0.039-0.54-0.123l-7.787-3.735c-0.623-0.299-0.885-1.045-0.586-1.668	c0.298-0.622,1.043-0.887,1.667-0.586l7.787,3.735c0.623,0.299,0.885,1.045,0.586,1.668C24.912,24.988,24.465,25.25,23.999,25.25z"/><circle cx="24" cy="24" r="2" fill="#1e2021"/></svg>