<svg xmlns="http://www.w3.org/2000/svg" viewBox="0 0 48 48"><linearGradient id="Wqmonia~ogNqUGrqIORxga" x1="22.651" x2="25.348" y1="4.284" y2="11.715" gradientUnits="userSpaceOnUse"><stop offset="0" stop-color="#ffcf54"/><stop offset=".261" stop-color="#fdcb4d"/><stop offset=".639" stop-color="#f7c13a"/><stop offset="1" stop-color="#f0b421"/></linearGradient><path fill="url(#Wqmonia~ogNqUGrqIORxga)" d="M24,12c-2.2,0-4-1.8-4-4s1.8-4,4-4s4,1.8,4,4S26.2,12,24,12"/><path fill="#0d61a9" d="M29,30h-4v12c0,1.105,0.895,2,2,2h0c1.105,0,2-0.895,2-2V30z"/><path fill="#0d61a9" d="M23,30h-4v12c0,1.105,0.895,2,2,2h0c1.105,0,2-0.895,2-2V30z"/><path fill="#0d61a9" d="M19,27v5h4c0-0.552,0.448-1,1-1s1,0.448,1,1h4v-5H19z"/><linearGradient id="Wqmonia~ogNqUGrqIORxgb" x1="22.591" x2="24.472" y1="14.075" y2="24.01" gradientUnits="userSpaceOnUse"><stop offset="0" stop-color="#32bdef"/><stop offset="1" stop-color="#1ea2e4"/></linearGradient><path fill="url(#Wqmonia~ogNqUGrqIORxgb)" d="M16,23v-2.333C16,16.991,18.991,14,22.667,14h2.667C29.009,14,32,16.991,32,20.667V23H16z"/><linearGradient id="Wqmonia~ogNqUGrqIORxgc" x1="22.474" x2="25.356" y1="14.25" y2="29.471" gradientUnits="userSpaceOnUse"><stop offset="0" stop-color="#32bdef"/><stop offset="1" stop-color="#1ea2e4"/></linearGradient><path fill="url(#Wqmonia~ogNqUGrqIORxgc)" d="M25,14h-2c-2.209,0-4,1.791-4,4v9h10v-9C29,15.791,27.209,14,25,14z"/><linearGradient id="Wqmonia~ogNqUGrqIORxgd" x1="29.23" x2="32.904" y1="22.589" y2="30.753" gradientUnits="userSpaceOnUse"><stop offset="0" stop-color="#ffcf54"/><stop offset=".261" stop-color="#fdcb4d"/><stop offset=".639" stop-color="#f7c13a"/><stop offset="1" stop-color="#f0b421"/></linearGradient><path fill="url(#Wqmonia~ogNqUGrqIORxgd)" d="M32,21h-3c0,0,0,8.221,0,8.5c0,0.828,0.672,1.5,1.5,1.5s1.5-0.672,1.5-1.5	C32,29.221,32,33.279,32,21z"/><linearGradient id="Wqmonia~ogNqUGrqIORxge" x1="16.23" x2="19.904" y1="22.589" y2="30.753" gradientUnits="userSpaceOnUse"><stop offset="0" stop-color="#ffcf54"/><stop offset=".261" stop-color="#fdcb4d"/><stop offset=".639" stop-color="#f7c13a"/><stop offset="1" stop-color="#f0b421"/></linearGradient><path fill="url(#Wqmonia~ogNqUGrqIORxge)" d="M19,21h-3c0,0,0,8.221,0,8.5c0,0.828,0.672,1.5,1.5,1.5s1.5-0.672,1.5-1.5	C19,29.221,19,33.279,19,21z"/></svg>