<svg xmlns="http://www.w3.org/2000/svg" viewBox="0 0 48 48"><path fill="#c767e5" d="M42.991,9.131L42.991,9.131c0,0.459-0.28,0.882-0.712,1.036C38.619,11.472,33,16.271,33,24	c0,1.328,0.227,2,0.74,2c0.601,0,1.554-1,4.26-1c3.289,0,7,2.622,7,7.059C45,35.942,42.088,40,37,40c-4.135,0-10-3.083-10-12.093	c0-12.478,9.397-17.774,14.432-19.811C42.175,7.796,42.991,8.329,42.991,9.131z"/><path fill="#c767e5" d="M18.991,9.131L18.991,9.131c0,0.459-0.28,0.882-0.712,1.036C14.619,11.472,9,16.271,9,24	c0,1.328,0.227,2,0.74,2c0.601,0,1.554-1,4.26-1c3.289,0,7,2.622,7,7.059C21,35.942,18.088,40,13,40C8.865,40,3,36.917,3,27.907	c0-12.478,9.397-17.774,14.432-19.811C18.175,7.796,18.991,8.329,18.991,9.131z"/></svg>