<svg xmlns="http://www.w3.org/2000/svg" viewBox="0 0 48 48"><path fill="#35c1f1" d="M24,28c-0.553,0-1-0.447-1-1v-3c0-0.553,0.447-1,1-1s1,0.447,1,1v3C25,27.553,24.553,28,24,28z"/><path fill="#35c1f1" d="M24,44c-0.553,0-1-0.447-1-1V31c0-0.553,0.447-1,1-1s1,0.447,1,1v12C25,43.553,24.553,44,24,44z"/><path fill="#35c1f1" d="M28,43.543c-0.553,0-1-0.447-1-1V40c0-0.553,0.447-1,1-1s1,0.447,1,1v2.543	C29,43.096,28.553,43.543,28,43.543z"/><path fill="#35c1f1" d="M20,43.543c-0.553,0-1-0.447-1-1V24c0-2.757,2.243-5,5-5s5,2.243,5,5v12c0,0.553-0.447,1-1,1	s-1-0.447-1-1V24c0-1.654-1.346-3-3-3s-3,1.346-3,3v18.543C21,43.096,20.553,43.543,20,43.543z"/><path fill="#35c1f1" d="M32,29c-0.553,0-1-0.447-1-1v-4c0-3.859-3.141-7-7-7c-0.969,0-1.913,0.198-2.806,0.59	c-0.507,0.222-1.095-0.01-1.317-0.515c-0.222-0.506,0.009-1.096,0.515-1.317C21.539,15.255,22.753,15,24,15c4.963,0,9,4.037,9,9v4	C33,28.553,32.553,29,32,29z"/><path fill="#35c1f1" d="M32,42.131c-0.553,0-1-0.447-1-1V32c0-0.553,0.447-1,1-1s1,0.447,1,1v9.131	C33,41.684,32.553,42.131,32,42.131z"/><path fill="#35c1f1" d="M16,42.131c-0.553,0-1-0.447-1-1V24c0-1.979,0.639-3.863,1.848-5.448	c0.334-0.438,0.962-0.525,1.401-0.188c0.439,0.335,0.523,0.962,0.188,1.401C17.497,20.998,17,22.462,17,24v17.131	C17,41.684,16.553,42.131,16,42.131z"/><path fill="#35c1f1" d="M36,39.678c-0.553,0-1-0.447-1-1V24c0-6.065-4.935-11-11-11s-11,4.935-11,11v4c0,0.553-0.447,1-1,1	s-1-0.447-1-1v-4c0-7.168,5.832-13,13-13s13,5.832,13,13v14.678C37,39.23,36.553,39.678,36,39.678z"/><path fill="#35c1f1" d="M12,39.678c-0.553,0-1-0.447-1-1V32c0-0.553,0.447-1,1-1s1,0.447,1,1v6.678	C13,39.23,12.553,39.678,12,39.678z"/><path fill="#35c1f1" d="M40,35c-0.553,0-1-0.447-1-1V24c0-4.225-1.812-8.281-4.97-11.13c-0.41-0.369-0.442-1.002-0.072-1.412	s1.002-0.442,1.412-0.072C38.948,14.612,41,19.21,41,24v10C41,34.553,40.553,35,40,35z"/><path fill="#35c1f1" d="M10.142,17.025c-0.17,0-0.342-0.043-0.499-0.134C9.164,16.615,9,16.004,9.276,15.525	C12.311,10.267,17.952,7,24,7c2.747,0,5.38,0.646,7.828,1.919c0.489,0.255,0.68,0.858,0.425,1.349	c-0.255,0.488-0.859,0.68-1.349,0.425C28.745,9.569,26.422,9,24,9c-5.335,0-10.313,2.884-12.991,7.525	C10.823,16.846,10.487,17.025,10.142,17.025z"/><path fill="#35c1f1" d="M8,35c-0.553,0-1-0.447-1-1V24c0-1.472,0.206-2.977,0.613-4.474c0.146-0.532,0.697-0.851,1.228-0.702	c0.532,0.145,0.847,0.694,0.702,1.228C9.183,21.377,9,22.706,9,24v10C9,34.553,8.553,35,8,35z"/><path fill="#35c1f1" d="M44,28c-0.553,0-1-0.447-1-1v-3c0-0.735-0.056-1.512-0.176-2.445	c-0.07-0.548,0.317-1.049,0.865-1.119c0.554-0.062,1.049,0.317,1.119,0.865C44.939,22.319,45,23.178,45,24v3	C45,27.553,44.553,28,44,28z"/><path fill="#35c1f1" d="M4,27c-0.553,0-1-0.447-1-1v-2c0-4.608,1.484-8.996,4.294-12.688c0.335-0.439,0.962-0.524,1.401-0.19	c0.439,0.335,0.524,0.962,0.19,1.401C6.344,15.864,5,19.832,5,24v2C5,26.553,4.553,27,4,27z"/><path fill="#35c1f1" d="M42.894,18.487c-0.415,0-0.803-0.26-0.945-0.674C39.306,10.149,32.093,5,24,5	c-4.599,0-9.047,1.683-12.524,4.738c-0.415,0.364-1.047,0.323-1.411-0.091C9.699,9.232,9.74,8.601,10.155,8.236	C13.999,4.859,18.915,3,24,3c8.946,0,16.919,5.691,19.839,14.161c0.18,0.522-0.098,1.092-0.619,1.271	C43.111,18.47,43.002,18.487,42.894,18.487z"/></svg>