<svg xmlns="http://www.w3.org/2000/svg" viewBox="0 0 48 48"><path fill="#cf5a00" d="M41,45H7c-0.552,0-1-0.448-1-1v-2h36v2C42,44.552,41.552,45,41,45z"/><radialGradient id="m8iQuiuF1ivyhRlKBKJdca" cx="24.167" cy="25.333" r="28.964" gradientTransform="matrix(1 0 0 .702 0 7.549)" gradientUnits="userSpaceOnUse"><stop offset="0" stop-color="#ed6b00"/><stop offset=".451" stop-color="#f28104"/><stop offset=".7" stop-color="#f7931e"/><stop offset=".777" stop-color="#f79b20"/><stop offset=".895" stop-color="#f5b026"/><stop offset="1" stop-color="#f4c92c"/></radialGradient><path fill="url(#m8iQuiuF1ivyhRlKBKJdca)" d="M36.294,29H11.706c-0.411,0-0.781,0.252-0.931,0.635L6.07,41.634 C5.813,42.291,6.297,43,7.001,43h33.999c0.704,0,1.187-0.708,0.93-1.363l-4.706-12.002C37.074,29.252,36.705,29,36.294,29z"/><radialGradient id="m8iQuiuF1ivyhRlKBKJdcb" cx="23.959" cy="23.583" r="24.459" gradientTransform="matrix(1 0 0 .862 0 3.255)" gradientUnits="userSpaceOnUse"><stop offset=".419" stop-color="#c04e00"/><stop offset=".539" stop-color="#c55300"/><stop offset=".684" stop-color="#d46100"/><stop offset=".781" stop-color="#e26f00"/><stop offset=".826" stop-color="#ed6b00" stop-opacity="0"/><stop offset="1" stop-color="#ed6b00" stop-opacity=".063"/></radialGradient><path fill="url(#m8iQuiuF1ivyhRlKBKJdcb)" d="M36.294,29H11.706c-0.411,0-0.781,0.252-0.931,0.635L6.07,41.634 C5.813,42.291,6.297,43,7.001,43h33.999c0.704,0,1.187-0.708,0.93-1.363l-4.706-12.002C37.074,29.252,36.705,29,36.294,29z"/><radialGradient id="m8iQuiuF1ivyhRlKBKJdcc" cx="24.042" cy="35.583" r="11.5" gradientTransform="matrix(1 0 0 .3623 0 22.691)" gradientUnits="userSpaceOnUse"><stop offset=".948" stop-color="#a1451a"/><stop offset=".959" stop-color="#a64818" stop-opacity=".806"/><stop offset=".972" stop-color="#b54f13" stop-opacity=".571"/><stop offset=".986" stop-color="#cd5b0b" stop-opacity=".316"/><stop offset="1" stop-color="#ed6b00" stop-opacity=".063"/></radialGradient><path fill="url(#m8iQuiuF1ivyhRlKBKJdcc)" d="M24,40.5c-6.449,0-11.5-2.196-11.5-5s5.051-5,11.5-5s11.5,2.196,11.5,5S30.449,40.5,24,40.5 z"/><radialGradient id="m8iQuiuF1ivyhRlKBKJdcd" cx="13.719" cy="35.865" r="11.912" gradientTransform="matrix(-.8804 0 0 -.3623 35.158 48.859)" gradientUnits="userSpaceOnUse"><stop offset=".338" stop-color="#c04e00"/><stop offset=".473" stop-color="#c55300"/><stop offset=".636" stop-color="#d46200"/><stop offset=".813" stop-color="#ec7900"/><stop offset=".842" stop-color="#f17e00"/><stop offset=".967" stop-color="#f17e00" stop-opacity="0"/></radialGradient><path fill="url(#m8iQuiuF1ivyhRlKBKJdcd)" d="M23.284,40.5c-5.362,0-10.265-1.931-10.265-4.735S18.322,30.5,24,30.5 s10.125,2.196,10.125,5S28.962,40.5,23.284,40.5z"/><path fill="#ed6b00" d="M13.625,33c8.166-29.28,0,0,8.166-29.28C21.911,3.291,22.306,3,22.751,3h2.497 c0.445,0,0.84,0.291,0.96,0.72c8.166,29.28,0,0,8.166,29.28C34.652,33.993,35,35.201,35,35.5c0,2.485-4.925,4.5-11,4.5 s-11-2.015-11-4.5C13,35.201,13.348,33.993,13.625,33z"/><linearGradient id="m8iQuiuF1ivyhRlKBKJdce" x1="-9.318" x2="40.192" y1="13.001" y2="25.99" gradientUnits="userSpaceOnUse"><stop offset=".539" stop-color="#c04e00"/><stop offset=".554" stop-color="#d36100"/><stop offset=".575" stop-color="#e97600"/><stop offset=".588" stop-color="#f17e00"/><stop offset=".647" stop-color="#f17e00"/><stop offset=".744" stop-color="#e77400" stop-opacity="0"/></linearGradient><path fill="url(#m8iQuiuF1ivyhRlKBKJdce)" d="M34.375,33c-8.166-29.28,0,0-8.166-29.28C26.089,3.291,25.694,3,25.249,3h-2.497 c-0.445,0-0.84,0.291-0.96,0.72c-8.166,29.28,0,0-8.166,29.28C13.348,33.993,13,35.201,13,35.5c0,2.485,4.925,4.5,11,4.5 s11-2.015,11-4.5C35,35.201,34.652,33.993,34.375,33z"/><linearGradient id="m8iQuiuF1ivyhRlKBKJdcf" x1="125.717" x2="175.31" y1="12.969" y2="25.638" gradientTransform="matrix(-1 0 0 1 184 0)" gradientUnits="userSpaceOnUse"><stop offset=".563" stop-color="#a1451a"/><stop offset=".565" stop-color="#a54719"/><stop offset=".581" stop-color="#c25b0e"/><stop offset=".597" stop-color="#d66906"/><stop offset=".613" stop-color="#e37102"/><stop offset=".628" stop-color="#e77400"/><stop offset=".718" stop-color="#ed6b00" stop-opacity="0"/><stop offset="1" stop-color="#ed6b00" stop-opacity=".063"/></linearGradient><path fill="url(#m8iQuiuF1ivyhRlKBKJdcf)" d="M13.625,33c8.166-29.28,0,0,8.166-29.28C21.911,3.291,22.306,3,22.751,3h2.497 c0.445,0,0.84,0.291,0.96,0.72c8.166,29.28,0,0,8.166,29.28C34.652,33.993,35,35.201,35,35.5c0,2.485-4.925,4.5-11,4.5 s-11-2.015-11-4.5C13,35.201,13.348,33.993,13.625,33z"/><radialGradient id="m8iQuiuF1ivyhRlKBKJdcg" cx="24.01" cy="2.552" r="2.662" gradientTransform="matrix(1 0 0 .3693 0 1.61)" gradientUnits="userSpaceOnUse"><stop offset=".653" stop-color="#c04e00"/><stop offset=".746" stop-color="#c95700" stop-opacity=".663"/><stop offset=".896" stop-color="#e16e00" stop-opacity=".116"/><stop offset=".927" stop-color="#e77400" stop-opacity="0"/></radialGradient><path fill="url(#m8iQuiuF1ivyhRlKBKJdcg)" d="M22.158,3.195C22.461,3.374,23.172,3.5,24,3.5s1.539-0.126,1.842-0.305 C25.674,3.072,25.468,3,25.249,3h-2.497C22.532,3,22.326,3.072,22.158,3.195z"/><g><path fill="#ccc" d="M33.821,31C33.918,31.347,32,34,24,34s-9.918-2.653-9.821-3c0.849-3.043,1.488-5.35,1.981-7.1 c0.04,0.06,0.09,0.13,0.14,0.19C16.68,24.54,18.37,26,24,26s7.32-1.46,7.7-1.91c0.05-0.06,0.1-0.13,0.14-0.19 C32.334,25.65,32.972,27.957,33.821,31z M27.55,8.51C26.61,8.81,25.45,9,24,9s-2.61-0.19-3.55-0.49c-0.3,1.07-1.98,7.1-2.02,7.24 v0.01c0,0.19,1.63,1.24,5.57,1.24c3.89,0,5.53-1.02,5.57-1.23C29.57,15.76,27.67,8.95,27.55,8.51z"/><linearGradient id="m8iQuiuF1ivyhRlKBKJdch" x1="19.367" x2="38.477" y1="22.326" y2="17.753" gradientUnits="userSpaceOnUse"><stop offset="0" stop-color="#f2f2f2" stop-opacity=".06"/><stop offset=".42" stop-color="#ccc"/><stop offset=".454" stop-color="#c4c4c4"/><stop offset=".506" stop-color="#afafaf"/><stop offset=".57" stop-color="#8d8d8d"/><stop offset=".63" stop-color="#666"/></linearGradient><path fill="url(#m8iQuiuF1ivyhRlKBKJdch)" d="M33.821,31C33.918,31.347,32,34,24,34s-9.918-2.653-9.821-3 c0.849-3.043,1.488-5.35,1.981-7.1c0.04,0.06,0.09,0.13,0.14,0.19C16.68,24.54,18.37,26,24,26s7.32-1.46,7.7-1.91 c0.05-0.06,0.1-0.13,0.14-0.19C32.334,25.65,32.972,27.957,33.821,31z M27.55,8.51C26.61,8.81,25.45,9,24,9s-2.61-0.19-3.55-0.49 c-0.3,1.07-1.98,7.1-2.02,7.24v0.01c0,0.19,1.63,1.24,5.57,1.24c3.89,0,5.53-1.02,5.57-1.23C29.57,15.76,27.67,8.95,27.55,8.51z"/><linearGradient id="m8iQuiuF1ivyhRlKBKJdci" x1="6.155" x2="35.115" y1="17.11" y2="23.76" gradientUnits="userSpaceOnUse"><stop offset=".362" stop-color="#666"/><stop offset=".42" stop-color="#8d8d8d" stop-opacity=".712"/><stop offset=".48" stop-color="#afafaf" stop-opacity=".411"/><stop offset=".53" stop-color="#c4c4c4" stop-opacity=".163"/><stop offset=".563" stop-color="#ccc" stop-opacity="0"/><stop offset="1" stop-color="#f2f2f2" stop-opacity=".06"/></linearGradient><path fill="url(#m8iQuiuF1ivyhRlKBKJdci)" d="M33.821,31C33.918,31.347,32,34,24,34s-9.918-2.653-9.821-3 c0.849-3.043,1.488-5.35,1.981-7.1c0.04,0.06,0.09,0.13,0.14,0.19C16.68,24.54,18.37,26,24,26s7.32-1.46,7.7-1.91 c0.05-0.06,0.1-0.13,0.14-0.19C32.334,25.65,32.972,27.957,33.821,31z M27.55,8.51C26.61,8.81,25.45,9,24,9s-2.61-0.19-3.55-0.49 c-0.3,1.07-1.98,7.1-2.02,7.24v0.01c0,0.19,1.63,1.24,5.57,1.24c3.89,0,5.53-1.02,5.57-1.23C29.57,15.76,27.67,8.95,27.55,8.51z"/></g></svg>