<svg xmlns="http://www.w3.org/2000/svg" data-name="Слой 1" viewBox="0 0 48 48"><defs><linearGradient id="MEuXsbxA8YvTLH~iqyEA2a" x1="24" x2="24" y1="2.854" y2="51.743" data-name="Безымянный градиент 50" gradientUnits="userSpaceOnUse"><stop offset="0" stop-color="#2aa4f4"/><stop offset="1" stop-color="#007ad9"/></linearGradient></defs><path fill="#33c481" d="M31.58871,35.195A17.22519,17.22519,0,0,1,32.9607,43a17.24824,17.24824,0,0,1-4.549-6.489,17.2253,17.2253,0,0,1-1.372-7.805A17.23568,17.23568,0,0,1,31.58871,35.195Z"/><path fill="#21a366" d="M32.0007,43a.99909.99909,0,0,1-1-1V11a1,1,0,0,1,2,0V42A.99908.99908,0,0,1,32.0007,43Z"/><path fill="#c26715" d="M32.0007,24a2.00073,2.00073,0,0,1-2-2V14a2,2,0,1,1,4,0v8A2.00073,2.00073,0,0,1,32.0007,24Z"/><path fill="#107c42" d="M36.6677,34.667A18.91345,18.91345,0,0,0,32.0007,42a18.91322,18.91322,0,0,0,7.333-4.667A18.9133,18.9133,0,0,0,44.0007,30,18.9133,18.9133,0,0,0,36.6677,34.667Z"/><path fill="#33c481" d="M33.6477,31.894A20.12,20.12,0,0,0,32.04671,41a20.11014,20.11014,0,0,0,5.307-7.571,20.12007,20.12007,0,0,0,1.601-9.106A20.11022,20.11022,0,0,0,33.6477,31.894Z"/><path fill="url(#MEuXsbxA8YvTLH~iqyEA2a)" d="M5,5c4.22222,2.11111,10.55556,6.86111,10.55556,11.61111S5,26.375,5,33.5c0,6.33333,7.38889,9.5,7.38889,9.5H43S27.16667,39.30556,22.94444,32.44444c-3.22576-5.24186,2.11112-9.5,2.11112-15.83333S11.33333,5,11.33333,5Z"/></svg>