<svg xmlns="http://www.w3.org/2000/svg" viewBox="0 0 48 48"><path fill="#1a9ba1" d="M27,31.736l18-12.822l-0.58-0.814c-1.602-2.249-4.724-2.774-6.973-1.171L23.307,27L8.241,27	c-3.259,0-6.105,2.496-6.236,5.752c-0.142,3.526,2.76,6.411,6.292,6.24c2.91-0.14,5.376-2.471,5.671-5.37	c0.006-0.057,0.011-0.114,0.015-0.171c0.086-1.169,1.095-2.042,2.256-1.887L27,33V31.736z M8,36c-1.657,0-3-1.343-3-3	c0-1.657,1.343-3,3-3s3,1.343,3,3C11,34.657,9.657,36,8,36z"/><path fill="#37c6d0" d="M26.132,27l-7.489-6.054c-0.914-0.739-0.963-2.071-0.178-2.944c1.125-1.251,1.731-2.976,1.477-4.842	c-0.362-2.662-2.565-4.812-5.234-5.118C11.078,7.625,8,10.453,8,14c0,1.918,0.903,3.622,2.304,4.72l13.241,12.866	C24.478,32.493,25.728,33,27.029,33H42c2.209,0,4-1.791,4-4v-2H26.132z M14,11c1.657,0,3,1.343,3,3c0,1.657-1.343,3-3,3	s-3-1.343-3-3C11,12.343,12.343,11,14,11z"/><rect width="12" height="2" x="34" y="27" fill="#62e6f0"/><path fill="#008183" d="M26.001,29c-0.552,0-1,0.448-1,1s0.448,1,1,1s1-0.448,1-1S26.553,29,26.001,29z"/></svg>