<svg xmlns="http://www.w3.org/2000/svg" viewBox="0 0 48 48"><path fill="#50e6ff" d="M4,38V15h40v23c0,1.1-0.9,2-2,2H6C4.9,40,4,39.1,4,38z"/><linearGradient id="WrrC3OXxsrkYQqnMGHFg3a" x1="4.614" x2="42.936" y1="-297.741" y2="-305.533" gradientTransform="matrix(1 0 0 -1 0 -290)" gradientUnits="userSpaceOnUse"><stop offset="0" stop-color="#0077d2"/><stop offset="1" stop-color="#0b59a2"/></linearGradient><path fill="url(#WrrC3OXxsrkYQqnMGHFg3a)" d="M44,10v5H4v-5c0-1.1,0.9-2,2-2h36C43.1,8,44,8.9,44,10z"/><linearGradient id="WrrC3OXxsrkYQqnMGHFg3b" x1="16" x2="42" y1="-301.5" y2="-301.5" gradientTransform="matrix(1 0 0 -1 0 -290)" gradientUnits="userSpaceOnUse"><stop offset="0" stop-color="#7dd8f3"/><stop offset="1" stop-color="#45b0d0"/></linearGradient><path fill="url(#WrrC3OXxsrkYQqnMGHFg3b)" d="M16.5,13h25c0.276,0,0.5-0.224,0.5-0.5v-2c0-0.276-0.224-0.5-0.5-0.5h-25	c-0.276,0-0.5,0.224-0.5,0.5v2C16,12.776,16.224,13,16.5,13z"/><linearGradient id="WrrC3OXxsrkYQqnMGHFg3c" x1="6.751" x2="8.032" y1="-300.416" y2="-302.269" gradientTransform="matrix(1 0 0 -1 0 -290)" gradientUnits="userSpaceOnUse"><stop offset="0" stop-color="#75daff"/><stop offset="1" stop-color="#49bef1"/></linearGradient><circle cx="7.5" cy="11.5" r="1.5" fill="url(#WrrC3OXxsrkYQqnMGHFg3c)"/><linearGradient id="WrrC3OXxsrkYQqnMGHFg3d" x1="11.751" x2="13.032" y1="-300.416" y2="-302.269" gradientTransform="matrix(1 0 0 -1 0 -290)" gradientUnits="userSpaceOnUse"><stop offset="0" stop-color="#75daff"/><stop offset="1" stop-color="#49bef1"/></linearGradient><circle cx="12.5" cy="11.5" r="1.5" fill="url(#WrrC3OXxsrkYQqnMGHFg3d)"/><polygon fill="#0d62ab" points="27,32.414 20,25.414 12.707,32.707 11.293,31.293 20,22.586 27,29.586 35.293,21.293 36.707,22.707"/><circle cx="36" cy="22" r="2" fill="#199be2"/><circle cx="27" cy="31" r="2" fill="#199be2"/><circle cx="20" cy="24" r="2" fill="#199be2"/><circle cx="12" cy="32" r="2" fill="#199be2"/></svg>