<svg xmlns="http://www.w3.org/2000/svg" viewBox="0 0 48 48"><linearGradient id="4qcaxWXgwgJIVPte1rMgga" x1="29.721" x2="34.976" y1="6.453" y2="25.802" gradientUnits="userSpaceOnUse"><stop offset="0" stop-color="#636363"/><stop offset=".36" stop-color="#585858"/><stop offset=".987" stop-color="#3c3c3c"/><stop offset=".998" stop-color="#3b3b3b"/></linearGradient><circle cx="32.247" cy="15.753" r="9.753" fill="url(#4qcaxWXgwgJIVPte1rMgga)"/><linearGradient id="4qcaxWXgwgJIVPte1rMggb" x1="416.911" x2="433.018" y1="205.954" y2="205.954" gradientTransform="rotate(45 443.747 -520.18) scale(1.2513 .7357)" gradientUnits="userSpaceOnUse"><stop offset="0" stop-color="#889097"/><stop offset="1" stop-color="#64717c"/></linearGradient><path fill="url(#4qcaxWXgwgJIVPte1rMggb)" d="M36.976,24.337L23.663,11.024c-0.122-0.122-0.145-0.312-0.055-0.459l0.627-1.034	c0.126-0.208,0.414-0.243,0.586-0.071l13.72,13.72c0.172,0.172,0.137,0.459-0.071,0.586l-1.034,0.627	C37.288,24.482,37.098,24.459,36.976,24.337z"/><linearGradient id="4qcaxWXgwgJIVPte1rMggc" x1="18.369" x2="18.369" y1="42.656" y2="17.643" gradientUnits="userSpaceOnUse"><stop offset="0" stop-color="#889097"/><stop offset="1" stop-color="#64717c"/></linearGradient><path fill="url(#4qcaxWXgwgJIVPte1rMggc)" d="M21.738,17.262C19.977,22.545,8.913,34.03,6.294,36.699c-0.351,0.357-0.393,0.91-0.096,1.313	c0.325,0.441,0.871,1.095,1.783,2.007c0.912,0.912,1.566,1.459,2.007,1.783c0.403,0.297,0.955,0.255,1.313-0.096	c2.67-2.62,14.155-13.683,19.438-15.444L21.738,17.262z"/><linearGradient id="4qcaxWXgwgJIVPte1rMggd" x1="538.088" x2="555.711" y1="563.839" y2="563.839" gradientTransform="matrix(.5413 .5413 -.3497 .3497 -72.167 -471.872)" gradientUnits="userSpaceOnUse"><stop offset="0" stop-color="#889097"/><stop offset="1" stop-color="#64717c"/></linearGradient><path fill="url(#4qcaxWXgwgJIVPte1rMggd)" d="M30.659,26.309l-8.967-8.967c-0.158-0.158-0.158-0.413,0-0.571l0.42-0.42	c0.158-0.158,0.413-0.158,0.571,0l8.967,8.967c0.158,0.158,0.158,0.413,0,0.571l-0.42,0.42	C31.072,26.466,30.816,26.466,30.659,26.309z"/><linearGradient id="4qcaxWXgwgJIVPte1rMgge" x1="23.399" x2="18.754" y1="24.601" y2="29.246" gradientUnits="userSpaceOnUse"><stop offset="0" stop-color="#4c4c4c"/><stop offset="1" stop-color="#343434"/></linearGradient><path fill="url(#4qcaxWXgwgJIVPte1rMgge)" d="M23.414,24.586c-0.781-0.781-2.047-0.781-2.828,0c-0.391,0.391-1.609,1.609-2,2	c-0.781,0.781-0.781,2.047,0,2.828c0.781,0.781,2.047,0.781,2.828,0c0.391-0.391,1.609-1.609,2-2	C24.195,26.633,24.195,25.367,23.414,24.586z"/><circle cx="22" cy="26" r="1.5" fill="#ccc"/></svg>