<svg xmlns="http://www.w3.org/2000/svg" viewBox="0 0 48 48"><linearGradient id="mPmGPTsjH0BiVxkqleZo4a" x1="20.081" x2="19.471" y1="37.5" y2="37.5" gradientUnits="userSpaceOnUse"><stop offset="0" stop-color="#310000"/><stop offset=".092" stop-color="#501503"/><stop offset=".228" stop-color="#782f06"/><stop offset=".369" stop-color="#984408"/><stop offset=".513" stop-color="#b2550a"/><stop offset=".663" stop-color="#c4610c"/><stop offset=".82" stop-color="#cf680d"/><stop offset="1" stop-color="#d26a0d"/></linearGradient><path fill="url(#mPmGPTsjH0BiVxkqleZo4a)" d="M20,37c0,1,0,1,0,1l-0.61-0.3C19.84,37.32,20,37,20,37z"/><linearGradient id="mPmGPTsjH0BiVxkqleZo4b" x1="21.813" x2="16.813" y1="37.5" y2="37.5" gradientUnits="userSpaceOnUse"><stop offset=".1" stop-color="#310000"/><stop offset=".183" stop-color="#501503"/><stop offset=".305" stop-color="#782f06"/><stop offset=".432" stop-color="#984408"/><stop offset=".562" stop-color="#b2550a"/><stop offset=".696" stop-color="#c4610c"/><stop offset=".838" stop-color="#cf680d"/><stop offset="1" stop-color="#d26a0d"/></linearGradient><path fill="url(#mPmGPTsjH0BiVxkqleZo4b)" d="M20,36v1c0,0-0.16,0.32-0.61,0.7C18.72,38.28,17.4,39,15,39l2-2h2C19,37,20,37,20,36z"/><linearGradient id="mPmGPTsjH0BiVxkqleZo4c" x1="33" x2="28" y1="12.384" y2="12.384" gradientUnits="userSpaceOnUse"><stop offset="0" stop-color="#310000"/><stop offset=".092" stop-color="#501503"/><stop offset=".228" stop-color="#782f06"/><stop offset=".369" stop-color="#984408"/><stop offset=".513" stop-color="#b2550a"/><stop offset=".663" stop-color="#c4610c"/><stop offset=".82" stop-color="#cf680d"/><stop offset="1" stop-color="#d26a0d"/></linearGradient><path fill="url(#mPmGPTsjH0BiVxkqleZo4c)" d="M33,10l-2,3l0,0c-2,0-2,2-2,2h-1v-3l0.61-0.3C28.5,11.09,28.53,10.41,29,10	C29.59,9.48,31.52,10,33,10z"/><radialGradient id="mPmGPTsjH0BiVxkqleZo4d" cx="24.5" cy="42.5" r="6.801" fx="23.414" fy="46.586" gradientUnits="userSpaceOnUse"><stop offset="0" stop-color="#310000"/><stop offset=".193" stop-color="#5c2c15"/><stop offset=".357" stop-color="#7d4e24"/><stop offset=".451" stop-color="#976124"/><stop offset=".622" stop-color="#c18025"/><stop offset=".776" stop-color="#e09625"/><stop offset=".907" stop-color="#f2a325"/><stop offset="1" stop-color="#f9a825"/></radialGradient><path fill="url(#mPmGPTsjH0BiVxkqleZo4d)" d="M34,44c0,0-3-3-10-3s-9,3-9,3C20.661,42.755,27.035,42.829,34,44z"/><path d="M32,37l2,2L32,37z"/><linearGradient id="mPmGPTsjH0BiVxkqleZo4e" x1="31.5" x2="31.5" y1="36" y2="39.12" gradientUnits="userSpaceOnUse"><stop offset=".271" stop-color="#a64d19"/><stop offset=".333" stop-color="#b7621e"/><stop offset=".44" stop-color="#cf7f26"/><stop offset=".553" stop-color="#e2952c"/><stop offset=".676" stop-color="#efa630"/><stop offset=".814" stop-color="#f7af32"/><stop offset="1" stop-color="#f9b233"/></linearGradient><path fill="url(#mPmGPTsjH0BiVxkqleZo4e)" d="M34,39c-4,0-5-2-5-2v-1.12c0,0.87,1,1.12,1.12,1.12H32L34,39z"/><linearGradient id="mPmGPTsjH0BiVxkqleZo4f" x1="21.293" x2="16.293" y1="12.5" y2="12.5" gradientUnits="userSpaceOnUse"><stop offset="0" stop-color="#eba600"/><stop offset=".299" stop-color="#e6a200"/><stop offset=".643" stop-color="#d89600"/><stop offset="1" stop-color="#c28200"/></linearGradient><path fill="url(#mPmGPTsjH0BiVxkqleZo4f)" d="M20,11v4c0,0,0-2-2-2h-1l-2-3C18,10,20,11,20,11z"/><linearGradient id="mPmGPTsjH0BiVxkqleZo4g" x1="24" x2="24" y1="35.083" y2="3.083" gradientUnits="userSpaceOnUse"><stop offset=".043" stop-color="#a64d19"/><stop offset=".373" stop-color="#c66118"/><stop offset=".779" stop-color="#e87717"/><stop offset="1" stop-color="#f57f17"/></linearGradient><path fill="url(#mPmGPTsjH0BiVxkqleZo4g)" d="M33,5v5c0,0-4,0-4,3s0,24,0,24l-9-24c0,0-1-3-5-3V5C20.72,5.99,26.72,6.01,33,5z"/><linearGradient id="mPmGPTsjH0BiVxkqleZo4h" x1="32.25" x2="14.25" y1="6.5" y2="6.5" gradientUnits="userSpaceOnUse"><stop offset="0" stop-color="#a64d19"/><stop offset=".122" stop-color="#b45615"/><stop offset=".509" stop-color="#dd710a"/><stop offset=".815" stop-color="#f68203"/><stop offset="1" stop-color="#f80"/></linearGradient><path fill="url(#mPmGPTsjH0BiVxkqleZo4h)" d="M33,5c0,0-3,3-9,3s-9-3-9-3C20.72,5.99,26.72,6.01,33,5z"/><path fill="#fff" d="M33.009,5.009c-1.157,1.148-2.644,1.919-4.188,2.432C27.267,7.942,25.635,8.2,24,8.225 c-1.635-0.027-3.267-0.282-4.82-0.784c-1.545-0.513-3.031-1.285-4.189-2.432l0.018-0.018c1.205,1.076,2.695,1.789,4.223,2.286 C20.774,7.748,22.388,7.974,24,7.975c1.612-0.001,3.226-0.228,4.769-0.698c1.527-0.497,3.017-1.21,4.223-2.285L33.009,5.009z"/><path fill="#fff" d="M20,13c1.581,3.97,3.075,7.972,4.603,11.961c1.536,3.987,2.973,8.01,4.464,12.013l-0.003-0.007 c0.223,0.383,0.578,0.704,0.952,0.965c0.38,0.261,0.8,0.462,1.237,0.617c0.435,0.164,0.894,0.255,1.352,0.336 c0.462,0.068,0.927,0.1,1.395,0.114c-0.467,0.001-0.935-0.016-1.401-0.07c-0.463-0.067-0.928-0.144-1.374-0.296 c-0.889-0.283-1.764-0.77-2.289-1.602l-0.001-0.002l-0.002-0.005c-1.509-3.997-3.072-7.973-4.536-11.986 C22.925,21.028,21.419,17.03,20,13z"/><radialGradient id="mPmGPTsjH0BiVxkqleZo4i" cx="24.5" cy="27" r="13.77" fx="19.213" fy="22.827" gradientTransform="matrix(1 0 0 1.7066 0 -19.077)" gradientUnits="userSpaceOnUse"><stop offset="0" stop-color="#f4c186"/><stop offset=".072" stop-color="#f2bf81"/><stop offset=".155" stop-color="#edb873"/><stop offset=".179" stop-color="#ebb66e"/><stop offset=".26" stop-color="#e8b266"/><stop offset=".387" stop-color="#e0a84f"/><stop offset=".543" stop-color="#d2962b"/><stop offset=".699" stop-color="#c28200"/></radialGradient><path fill="url(#mPmGPTsjH0BiVxkqleZo4i)" d="M34,39c0,2,0,5,0,5s-4-3-10-3s-9,3-9,3v-5c0,0,5,0,5-3V15c0,0,0-2-2-2h-1l-2-3c4,0,5,3,5,3	l9,24C29,37,30,39,34,39z"/></svg>