<svg xmlns="http://www.w3.org/2000/svg" viewBox="0 0 48 48"><linearGradient id="sMug_DZbWUhTQ6Uh0uTRra" x1="8.663" x2="38.122" y1="517.941" y2="493.085" gradientTransform="matrix(1 0 0 -1 0 526)" gradientUnits="userSpaceOnUse"><stop offset="0" stop-color="#a1aab3"/><stop offset="1" stop-color="#8f979e"/></linearGradient><path fill="url(#sMug_DZbWUhTQ6Uh0uTRra)" d="M41,35H7c-1.105,0-2-0.895-2-2V9c0-1.105,0.895-2,2-2h34c1.105,0,2,0.895,2,2v24	C43,34.105,42.105,35,41,35z"/><radialGradient id="sMug_DZbWUhTQ6Uh0uTRrb" cx=".272" cy="541.031" r="86.245" gradientTransform="matrix(.8095 0 0 -.7188 46.862 447.827)" gradientUnits="userSpaceOnUse"><stop offset=".323" stop-color="#23d9d6"/><stop offset=".427" stop-color="#23d4d7"/><stop offset=".542" stop-color="#21c7dc"/><stop offset=".664" stop-color="#1fb0e2"/><stop offset=".789" stop-color="#1c91ec"/><stop offset=".917" stop-color="#1969f8"/><stop offset=".944" stop-color="#1860fb"/></radialGradient><rect width="34" height="24" x="7" y="9" fill="url(#sMug_DZbWUhTQ6Uh0uTRrb)"/><path d="M42.361,22.514c-1.214-2.532-3.024-4.183-3.105-4.256l-0.67-0.605l-0.67,0.605	c-0.082,0.074-1.892,1.724-3.106,4.256c-1.273-0.804-2.314-1.187-2.363-1.205l-0.861-0.313l-0.388,0.83	c-0.085,0.183-2.072,4.52-0.291,8.563c0.992,2.256,2.696,3.716,4.129,4.612H41c1.105,0,2-0.895,2-2V22.135	C42.796,22.25,42.584,22.373,42.361,22.514z" opacity=".05"/><path d="M42.147,23.255c-1.153-2.734-3.137-4.545-3.227-4.626l-0.335-0.303l-0.335,0.303	c-0.09,0.081-2.073,1.892-3.227,4.625c-1.432-0.99-2.689-1.454-2.749-1.476l-0.43-0.157l-0.194,0.415	c-0.082,0.174-1.975,4.316-0.286,8.15c1.12,2.544,3.194,4.032,4.661,4.813H41c0.061,0,0.118-0.013,0.177-0.018	c0.474-0.254,1.008-0.584,1.553-0.997C42.897,33.693,43,33.36,43,33V22.713C42.728,22.873,42.443,23.05,42.147,23.255z" opacity=".07"/><linearGradient id="sMug_DZbWUhTQ6Uh0uTRrc" x1="24" x2="24" y1="491.015" y2="483.986" gradientTransform="matrix(1 0 0 -1 0 526)" gradientUnits="userSpaceOnUse"><stop offset="0" stop-color="#484b4f"/><stop offset=".23" stop-color="#656d75"/><stop offset=".367" stop-color="#727d86"/></linearGradient><path fill="url(#sMug_DZbWUhTQ6Uh0uTRrc)" d="M33,38h-5v-3h-8v3h-5c-0.552,0-1,0.448-1,1v2c0,0.552,0.448,1,1,1h18c0.552,0,1-0.448,1-1v-2	C34,38.448,33.552,38,33,38z"/><linearGradient id="sMug_DZbWUhTQ6Uh0uTRrd" x1="46.336" x2="41.453" y1="22.822" y2="29.843" gradientUnits="userSpaceOnUse"><stop offset="0" stop-color="#21ad64"/><stop offset="1" stop-color="#088242"/></linearGradient><path fill="url(#sMug_DZbWUhTQ6Uh0uTRrd)" d="M39.066,27.502c-1.74,3.954,0.282,7.738,0.282,7.738s4.26-1.299,6-5.253	c1.616-3.671-0.282-7.738-0.282-7.738S40.682,23.831,39.066,27.502z"/><path d="M39.066,27.502c-1.74,3.954,0.282,7.737,0.282,7.737s0.282-0.087,0.728-0.281	c1.241-1.31,3.379-4.118,3.379-7.958c0-1.286-0.28-2.484-0.691-3.56C41.445,24.293,39.894,25.622,39.066,27.502z" opacity=".05"/><path d="M39.066,27.502c-1.522,3.457-0.167,6.783,0.197,7.565c0.995-0.935,3.691-3.856,3.691-8.066	c0-1.176-0.244-2.279-0.611-3.275C41.128,24.58,39.807,25.819,39.066,27.502z" opacity=".07"/><linearGradient id="sMug_DZbWUhTQ6Uh0uTRre" x1="29.105" x2="34.275" y1="20.587" y2="27.8" gradientUnits="userSpaceOnUse"><stop offset="0" stop-color="#21ad64"/><stop offset="1" stop-color="#088242"/></linearGradient><path fill="url(#sMug_DZbWUhTQ6Uh0uTRre)" d="M32.104,22.249c0,0-1.898,4.066-0.282,7.738c1.74,3.954,6,5.253,6,5.253	s2.022-3.784,0.282-7.738C36.488,23.831,32.104,22.249,32.104,22.249z"/><path d="M38.105,27.502c-0.828-1.88-2.379-3.208-3.698-4.061c-0.411,1.076-0.691,2.274-0.691,3.56	c0,3.839,2.138,6.648,3.379,7.958c0.445,0.193,0.728,0.281,0.728,0.281S39.845,31.455,38.105,27.502z" opacity=".05"/><path d="M38.105,27.502c-0.741-1.683-2.062-2.922-3.277-3.776c-0.367,0.996-0.611,2.099-0.611,3.275	c0,4.21,2.695,7.13,3.691,8.066C38.272,34.285,39.626,30.958,38.105,27.502z" opacity=".07"/><path fill="#33c481" d="M38.585,19c0,0-3.869,3.479-3.869,8.001c0,4.87,3.869,8.001,3.869,8.001s3.869-3.131,3.869-8.001	C42.454,22.479,38.585,19,38.585,19z"/><path fill="#21a366" d="M38.585,19c0,0-0.036,0.033-0.085,0.081v15.848c0.05,0.043,0.085,0.073,0.085,0.073	s3.869-3.131,3.869-8.001C42.454,22.479,38.585,19,38.585,19z"/><linearGradient id="sMug_DZbWUhTQ6Uh0uTRrf" x1="32.732" x2="44.439" y1="488.207" y2="488.207" gradientTransform="matrix(1 0 0 -1 0 526)" gradientUnits="userSpaceOnUse"><stop offset="0" stop-color="#b9360c"/><stop offset=".537" stop-color="#b5350c"/><stop offset=".999" stop-color="#ab320b"/></linearGradient><path fill="url(#sMug_DZbWUhTQ6Uh0uTRrf)" d="M42.335,42h-7.499c-0.562,0-1.038-0.416-1.112-0.974l-0.992-7.441h11.707l-0.992,7.441	C43.373,41.584,42.897,42,42.335,42z"/><path fill="#d43a02" d="M32,33.5v-1c0-0.276,0.255-0.5,0.568-0.5h11.863C44.745,32,45,32.224,45,32.5v1	c0,0.276-0.255,0.5-0.568,0.5H32.568C32.255,34,32,33.776,32,33.5z"/></svg>