<svg xmlns="http://www.w3.org/2000/svg" viewBox="0 0 48 48"><linearGradient id="l5srUUsVPEX4lMkbCnVk2a" x1="23" x2="23" y1="26.25" y2="54.257" gradientUnits="userSpaceOnUse"><stop offset="0" stop-color="#fed100"/><stop offset="1" stop-color="#e38101"/></linearGradient><path fill="url(#l5srUUsVPEX4lMkbCnVk2a)" d="M5.113,41.663L18.27,8c12.297,0.946,19.865,12.297,22.703,21.757L6.331,42.928	C5.54,43.248,4.763,42.441,5.113,41.663z"/><linearGradient id="l5srUUsVPEX4lMkbCnVk2b" x1="15.925" x2="54.821" y1="12.545" y2="51.441" gradientUnits="userSpaceOnUse"><stop offset="0" stop-color="#e83c67"/><stop offset=".423" stop-color="#c5214a"/><stop offset=".773" stop-color="#b01038"/><stop offset="1" stop-color="#a80a31"/></linearGradient><path fill="url(#l5srUUsVPEX4lMkbCnVk2b)" d="M21,12.999c0,2.76-2.24,5-5,5c-0.54,0-1.06-0.09-1.55-0.24l3.64-9.3	C19.81,9.249,21,10.989,21,12.999z"/><path d="M38.1,30.62c-2.56-8.54-9.35-18.81-20.06-19.63c-0.3-0.02-0.59-0.09-0.86-0.2L17,11.26l-0.19,0.47 c0.37,0.14,0.75,0.23,1.15,0.26c10.21,0.78,16.71,10.68,19.18,18.92c0.03,0.09,0.06,0.18,0.1,0.27L37.7,31l0.48-0.18 C38.14,30.76,38.12,30.69,38.1,30.62z" opacity=".05"/><path d="M38.1,30.62c-2.56-8.54-9.35-18.81-20.06-19.63c-0.3-0.02-0.59-0.09-0.86-0.2L17,11.26c0.31,0.13,0.65,0.2,1,0.23 c10.46,0.8,17.1,10.88,19.62,19.27c0.02,0.08,0.05,0.16,0.08,0.24l0.48-0.18C38.14,30.76,38.12,30.69,38.1,30.62z" opacity=".07"/><linearGradient id="l5srUUsVPEX4lMkbCnVk2c" x1="11.23" x2="47.792" y1="-2.647" y2="33.916" gradientUnits="userSpaceOnUse"><stop offset="0" stop-color="#d4943b"/><stop offset="1" stop-color="#c2620e"/><stop offset="1" stop-color="#c2620e"/></linearGradient><path fill="url(#l5srUUsVPEX4lMkbCnVk2c)" d="M40.972,32.758c-1.291,0-2.482-0.839-2.873-2.139c-2.562-8.54-9.353-18.804-20.059-19.627	c-1.652-0.127-2.888-1.569-2.761-3.221c0.127-1.652,1.582-2.891,3.221-2.761c13.736,1.057,22.239,13.527,25.346,23.886	c0.476,1.587-0.424,3.26-2.012,3.736C41.548,32.716,41.257,32.758,40.972,32.758z"/><linearGradient id="l5srUUsVPEX4lMkbCnVk2d" x1="14.735" x2="53.631" y1="13.735" y2="52.63" gradientUnits="userSpaceOnUse"><stop offset="0" stop-color="#e83c67"/><stop offset=".423" stop-color="#c5214a"/><stop offset=".773" stop-color="#b01038"/><stop offset="1" stop-color="#a80a31"/></linearGradient><circle cx="24" cy="22.999" r="5" fill="url(#l5srUUsVPEX4lMkbCnVk2d)"/><linearGradient id="l5srUUsVPEX4lMkbCnVk2e" x1="7.838" x2="46.734" y1="20.632" y2="59.528" gradientUnits="userSpaceOnUse"><stop offset="0" stop-color="#e83c67"/><stop offset=".423" stop-color="#c5214a"/><stop offset=".773" stop-color="#b01038"/><stop offset="1" stop-color="#a80a31"/></linearGradient><path fill="url(#l5srUUsVPEX4lMkbCnVk2e)" d="M17,24.999c0,2.76-2.24,5-5,5c-0.77,0-1.49-0.17-2.14-0.48l3.63-9.3	C15.52,20.859,17,22.759,17,24.999z"/><linearGradient id="l5srUUsVPEX4lMkbCnVk2f" x1="13.324" x2="52.22" y1="15.146" y2="54.041" gradientUnits="userSpaceOnUse"><stop offset="0" stop-color="#e83c67"/><stop offset=".423" stop-color="#c5214a"/><stop offset=".773" stop-color="#b01038"/><stop offset="1" stop-color="#a80a31"/></linearGradient><path fill="url(#l5srUUsVPEX4lMkbCnVk2f)" d="M35.83,31.709l-9.29,3.54c-0.35-0.67-0.54-1.44-0.54-2.25c0-2.76,2.24-5,5-5	C33.31,27.999,35.26,29.579,35.83,31.709z"/><linearGradient id="l5srUUsVPEX4lMkbCnVk2g" x1="5.735" x2="44.631" y1="22.735" y2="61.63" gradientUnits="userSpaceOnUse"><stop offset="0" stop-color="#e83c67"/><stop offset=".423" stop-color="#c5214a"/><stop offset=".773" stop-color="#b01038"/><stop offset="1" stop-color="#a80a31"/></linearGradient><path fill="url(#l5srUUsVPEX4lMkbCnVk2g)" d="M24,35.999c0,0.07,0,0.15-0.01,0.22l-8.58,3.26c-0.87-0.9-1.41-2.13-1.41-3.48	c0-2.76,2.24-5,5-5S24,33.239,24,35.999z"/><linearGradient id="l5srUUsVPEX4lMkbCnVk2h" x1="-1.351" x2="37.545" y1="29.821" y2="68.716" gradientUnits="userSpaceOnUse"><stop offset="0" stop-color="#e83c67"/><stop offset=".423" stop-color="#c5214a"/><stop offset=".773" stop-color="#b01038"/><stop offset="1" stop-color="#a80a31"/></linearGradient><path fill="url(#l5srUUsVPEX4lMkbCnVk2h)" d="M12,38.999c0,0.68-0.14,1.33-0.38,1.92l-5.29,2.01c-0.79,0.32-1.57-0.49-1.22-1.27l2.95-7.55	C10.31,34.599,12,36.599,12,38.999z"/></svg>