<svg xmlns="http://www.w3.org/2000/svg" viewBox="0 0 48 48"><linearGradient id="0gpvJ2i0SG3L_Ulqv6AyRa" x1="18.248" x2="29.358" y1="5.147" y2="35.671" gradientUnits="userSpaceOnUse"><stop offset="0" stop-color="#4caf50"/><stop offset=".31" stop-color="#38aa50"/><stop offset=".691" stop-color="#27a550"/><stop offset="1" stop-color="#0a9e50"/></linearGradient><path fill="url(#0gpvJ2i0SG3L_Ulqv6AyRa)" d="M36.99,10.18L34.54,35L34,40.5H14L13.46,35l-2.45-24.82C10.9,9.01,11.82,8,13,8h22	C36.18,8,37.1,9.01,36.99,10.18z"/><linearGradient id="0gpvJ2i0SG3L_Ulqv6AyRb" x1="24" x2="24" y1="27.799" y2="43.603" gradientUnits="userSpaceOnUse"><stop offset="0" stop-color="#a34f27"/><stop offset=".587" stop-color="#8b3817"/><stop offset="1" stop-color="#802d10"/></linearGradient><polygon fill="url(#0gpvJ2i0SG3L_Ulqv6AyRb)" points="34.54,35 34,40.5 14,40.5 13.46,35"/><linearGradient id="0gpvJ2i0SG3L_Ulqv6AyRc" x1="7.231" x2="41.122" y1="24.59" y2="44.157" gradientUnits="userSpaceOnUse"><stop offset="0" stop-color="#4caf50"/><stop offset=".31" stop-color="#38aa50"/><stop offset=".691" stop-color="#27a550"/><stop offset="1" stop-color="#0a9e50"/></linearGradient><path fill="url(#0gpvJ2i0SG3L_Ulqv6AyRc)" d="M24,43c-13.632,0-19.493-8.297-19.736-8.65c-0.469-0.683-0.296-1.616,0.387-2.086	c0.682-0.466,1.611-0.297,2.082,0.382l0,0C6.942,32.945,12.016,40,24,40s17.058-7.055,17.268-7.354	c0.474-0.678,1.405-0.845,2.086-0.376c0.679,0.471,0.851,1.399,0.383,2.08C43.493,34.703,37.632,43,24,43z"/><path d="M28,34c0.553,0,1,0.447,1,1v5c0,0.553-0.447,1-1,1h-8c-0.553,0-1-0.447-1-1v-5c0-0.553,0.447-1,1-1H28 M21,39h6v-3h-6V39 M28,33h-8c-1.103,0-2,0.897-2,2v5c0,1.103,0.897,2,2,2h8c1.103,0,2-0.897,2-2v-5C30,33.897,29.103,33,28,33L28,33z M22,37h4v1h-4 V37L22,37z" opacity=".05"/><path d="M28,34c0.553,0,1,0.447,1,1v5c0,0.553-0.447,1-1,1h-8c-0.553,0-1-0.447-1-1v-5c0-0.553,0.447-1,1-1H28 M21,39h6v-3h-6V39 M28,33.5h-8c-0.827,0-1.5,0.673-1.5,1.5v5c0,0.827,0.673,1.5,1.5,1.5h8c0.827,0,1.5-0.673,1.5-1.5v-5 C29.5,34.173,28.827,33.5,28,33.5L28,33.5z M21.5,36.5h5v2h-5V36.5L21.5,36.5z" opacity=".07"/><linearGradient id="0gpvJ2i0SG3L_Ulqv6AyRd" x1="16.603" x2="33.611" y1="30.103" y2="47.111" gradientUnits="userSpaceOnUse"><stop offset="0" stop-color="#fed100"/><stop offset="1" stop-color="#e38101"/></linearGradient><path fill="url(#0gpvJ2i0SG3L_Ulqv6AyRd)" d="M28,41h-8c-0.553,0-1-0.447-1-1v-5c0-0.553,0.447-1,1-1h8c0.553,0,1,0.447,1,1v5 C29,40.553,28.553,41,28,41z M21,39h6v-3h-6V39z"/></svg>