<svg xmlns="http://www.w3.org/2000/svg" viewBox="0 0 48 48"><path fill="#64717c" d="M8.016,40.917c-0.552,0-0.999-0.447-1-0.999c-0.001-0.552,0.446-1,0.999-1.001l33-0.032h0.001	c0.552,0,0.999,0.447,1,0.999c0.001,0.552-0.446,1-0.999,1.001L8.016,40.917L8.016,40.917z"/><linearGradient id="jCz2JBdROo5fyG~S_1vgka" x1="10.759" x2="13.552" y1="38.759" y2="41.552" gradientTransform="translate(-4.022 -.072)" gradientUnits="userSpaceOnUse"><stop offset="0" stop-color="#33d7f0"/><stop offset="1" stop-color="#0083c4"/></linearGradient><circle cx="8.016" cy="39.917" r="2" fill="url(#jCz2JBdROo5fyG~S_1vgka)"/><path fill="#199be2" d="M40.012,36.291l0.007,7.19c0,0.36,0.436,0.54,0.69,0.285l3.306-3.313	c0.315-0.316,0.315-0.827-0.001-1.143l-3.313-3.306C40.447,35.75,40.012,35.931,40.012,36.291z"/><circle cx="8.011" cy="34.917" r="1" fill="#64717c"/><circle cx="8.007" cy="30.917" r="1" fill="#64717c"/><circle cx="8.003" cy="26.917" r="1" fill="#64717c"/><circle cx="7.999" cy="22.917" r="1" fill="#64717c"/><circle cx="7.996" cy="18.917" r="1" fill="#64717c"/><circle cx="7.992" cy="14.917" r="1" fill="#64717c"/><circle cx="7.988" cy="10.917" r="1" fill="#64717c"/><path fill="#199be2" d="M4.39,7.92l7.19-0.007c0.36,0,0.54-0.436,0.285-0.69L8.553,3.917C8.237,3.602,7.725,3.602,7.41,3.918	L4.104,7.231C3.849,7.486,4.03,7.921,4.39,7.92z"/></svg>