<svg xmlns="http://www.w3.org/2000/svg" viewBox="0 0 48 48"><linearGradient id="ZoGhzEH3x6KKtF6W01jLJa" x1="11.343" x2="36.571" y1="5.812" y2="31.04" gradientUnits="userSpaceOnUse"><stop offset="0" stop-color="#0176d0"/><stop offset="1" stop-color="#16538c"/></linearGradient><path fill="url(#ZoGhzEH3x6KKtF6W01jLJa)" d="M37.549,28.191c-1.344-0.776-2.856-1.001-4.355-1.053c-1.257-0.044-3.133-0.85-3.133-3.137	c0-1.704,1.381-3.076,3.134-3.137c1.499-0.052,3.011-0.277,4.354-1.053c3.796-2.192,5.097-7.045,2.905-10.841	c-2.192-3.796-7.045-5.097-10.841-2.905c-2.456,1.418-3.968,4.038-3.968,6.873c0,1.538,0.547,2.953,1.245,4.265	c0.587,1.104,0.884,3.153-1.129,4.315c-1.497,0.865-3.366,0.317-4.3-1.177c-0.788-1.262-1.74-2.444-3.073-3.214	c-3.796-2.192-8.65-0.891-10.841,2.905s-0.891,8.65,2.905,10.841c2.456,1.418,5.481,1.418,7.936,0	c1.332-0.769,2.284-1.951,3.072-3.212c0.647-1.036,2.263-2.355,4.3-1.178c1.495,0.864,1.957,2.757,1.128,4.316	c-0.698,1.312-1.244,2.727-1.244,4.264c0,4.383,3.553,7.936,7.936,7.936s7.936-3.553,7.936-7.936	C41.517,32.228,40.004,29.608,37.549,28.191z"/></svg>