<svg xmlns="http://www.w3.org/2000/svg" viewBox="0 0 48 48"><linearGradient id="G5j9QTmIclbVKQSO6bD~sa" x1="24" x2="24" y1="5.935" y2="15" gradientUnits="userSpaceOnUse"><stop offset="0" stop-color="#4fe5ff"/><stop offset="1" stop-color="#2eb7ed"/></linearGradient><polygon fill="url(#G5j9QTmIclbVKQSO6bD~sa)" points="24,5.935 5,15 43,15"/><linearGradient id="G5j9QTmIclbVKQSO6bD~sb" x1="21.476" x2="25.532" y1="5.577" y2="20.716" gradientUnits="userSpaceOnUse"><stop offset="0" stop-color="#32bdef"/><stop offset="1" stop-color="#1ea2e4"/></linearGradient><path fill="url(#G5j9QTmIclbVKQSO6bD~sb)" d="M43,16H5c-0.484,0-0.899-0.348-0.984-0.824C3.931,14.698,4.2,14.23,4.655,14.062l19-9.065	c0.223-0.082,0.469-0.082,0.691,0l19,9.065c0.455,0.168,0.724,0.637,0.639,1.114C43.899,15.652,43.484,16,43,16z M10,14h28L24,7	L10,14z"/><linearGradient id="G5j9QTmIclbVKQSO6bD~sc" x1="23.482" x2="24.518" y1="9.068" y2="12.932" gradientUnits="userSpaceOnUse"><stop offset="0" stop-color="#16538c"/><stop offset="1" stop-color="#0176d0"/></linearGradient><circle cx="24" cy="11" r="2" fill="url(#G5j9QTmIclbVKQSO6bD~sc)"/><linearGradient id="G5j9QTmIclbVKQSO6bD~sd" x1="24" x2="24" y1="36" y2="16" gradientUnits="userSpaceOnUse"><stop offset="0" stop-color="#0176d0"/><stop offset="1" stop-color="#16538c"/></linearGradient><rect width="28" height="20" x="10" y="16" fill="url(#G5j9QTmIclbVKQSO6bD~sd)"/><linearGradient id="G5j9QTmIclbVKQSO6bD~se" x1="8.866" x2="13.134" y1="18.036" y2="33.964" gradientUnits="userSpaceOnUse"><stop offset="0" stop-color="#32bdef"/><stop offset="1" stop-color="#1ea2e4"/></linearGradient><rect width="4" height="16" x="9" y="18" fill="url(#G5j9QTmIclbVKQSO6bD~se)"/><linearGradient id="G5j9QTmIclbVKQSO6bD~sf" x1="11" x2="11" y1="34" y2="36" gradientUnits="userSpaceOnUse"><stop offset=".365" stop-color="#32bdef"/><stop offset=".49" stop-color="#2fb7e9"/><stop offset=".66" stop-color="#26a5d7"/><stop offset=".854" stop-color="#1789bb"/><stop offset="1" stop-color="#096fa1"/></linearGradient><path fill="url(#G5j9QTmIclbVKQSO6bD~sf)" d="M13,34H9c-0.552,0-1,0.448-1,1v1h6v-1C14,34.448,13.552,34,13,34z"/><linearGradient id="G5j9QTmIclbVKQSO6bD~sg" x1="11" x2="11" y1="18" y2="16" gradientUnits="userSpaceOnUse"><stop offset=".365" stop-color="#32bdef"/><stop offset=".49" stop-color="#2fb7e9"/><stop offset=".66" stop-color="#26a5d7"/><stop offset=".854" stop-color="#1789bb"/><stop offset="1" stop-color="#096fa1"/></linearGradient><path fill="url(#G5j9QTmIclbVKQSO6bD~sg)" d="M14,16H8v1c0,0.552,0.448,1,1,1h4c0.552,0,1-0.448,1-1V16z"/><linearGradient id="G5j9QTmIclbVKQSO6bD~sh" x1="34.866" x2="39.134" y1="18.036" y2="33.964" gradientUnits="userSpaceOnUse"><stop offset="0" stop-color="#32bdef"/><stop offset="1" stop-color="#1ea2e4"/></linearGradient><rect width="4" height="16" x="35" y="18" fill="url(#G5j9QTmIclbVKQSO6bD~sh)"/><linearGradient id="G5j9QTmIclbVKQSO6bD~si" x1="37" x2="37" y1="34" y2="36" gradientUnits="userSpaceOnUse"><stop offset=".365" stop-color="#32bdef"/><stop offset=".49" stop-color="#2fb7e9"/><stop offset=".66" stop-color="#26a5d7"/><stop offset=".854" stop-color="#1789bb"/><stop offset="1" stop-color="#096fa1"/></linearGradient><path fill="url(#G5j9QTmIclbVKQSO6bD~si)" d="M39,34h-4c-0.552,0-1,0.448-1,1v1h6v-1C40,34.448,39.552,34,39,34z"/><linearGradient id="G5j9QTmIclbVKQSO6bD~sj" x1="37" x2="37" y1="18" y2="16" gradientUnits="userSpaceOnUse"><stop offset=".365" stop-color="#32bdef"/><stop offset=".49" stop-color="#2fb7e9"/><stop offset=".66" stop-color="#26a5d7"/><stop offset=".854" stop-color="#1789bb"/><stop offset="1" stop-color="#096fa1"/></linearGradient><path fill="url(#G5j9QTmIclbVKQSO6bD~sj)" d="M40,16h-6v1c0,0.552,0.448,1,1,1h4c0.552,0,1-0.448,1-1V16z"/><linearGradient id="G5j9QTmIclbVKQSO6bD~sk" x1="21.866" x2="26.134" y1="18.036" y2="33.964" gradientUnits="userSpaceOnUse"><stop offset="0" stop-color="#32bdef"/><stop offset="1" stop-color="#1ea2e4"/></linearGradient><rect width="4" height="16" x="22" y="18" fill="url(#G5j9QTmIclbVKQSO6bD~sk)"/><linearGradient id="G5j9QTmIclbVKQSO6bD~sl" x1="24" x2="24" y1="34" y2="36" gradientUnits="userSpaceOnUse"><stop offset=".365" stop-color="#32bdef"/><stop offset=".49" stop-color="#2fb7e9"/><stop offset=".66" stop-color="#26a5d7"/><stop offset=".854" stop-color="#1789bb"/><stop offset="1" stop-color="#096fa1"/></linearGradient><path fill="url(#G5j9QTmIclbVKQSO6bD~sl)" d="M26,34h-4c-0.552,0-1,0.448-1,1v1h6v-1C27,34.448,26.552,34,26,34z"/><linearGradient id="G5j9QTmIclbVKQSO6bD~sm" x1="24" x2="24" y1="18" y2="16" gradientUnits="userSpaceOnUse"><stop offset=".365" stop-color="#32bdef"/><stop offset=".49" stop-color="#2fb7e9"/><stop offset=".66" stop-color="#26a5d7"/><stop offset=".854" stop-color="#1789bb"/><stop offset="1" stop-color="#096fa1"/></linearGradient><path fill="url(#G5j9QTmIclbVKQSO6bD~sm)" d="M27,16h-6v1c0,0.552,0.448,1,1,1h4c0.552,0,1-0.448,1-1V16z"/><linearGradient id="G5j9QTmIclbVKQSO6bD~sn" x1="24" x2="24" y1="36" y2="39" gradientUnits="userSpaceOnUse"><stop offset="0" stop-color="#4fe5ff"/><stop offset="1" stop-color="#2eb7ed"/></linearGradient><path fill="url(#G5j9QTmIclbVKQSO6bD~sn)" d="M6,39h36v-2c0-0.552-0.448-1-1-1H7c-0.552,0-1,0.448-1,1V39z"/><linearGradient id="G5j9QTmIclbVKQSO6bD~so" x1="24" x2="24" y1="39" y2="42" gradientUnits="userSpaceOnUse"><stop offset="0" stop-color="#4fe5ff"/><stop offset="1" stop-color="#2eb7ed"/></linearGradient><path fill="url(#G5j9QTmIclbVKQSO6bD~so)" d="M4,42h40v-2c0-0.552-0.448-1-1-1H5c-0.552,0-1,0.448-1,1V42z"/></svg>