<svg xmlns="http://www.w3.org/2000/svg" viewBox="0 0 48 48"><linearGradient id="TJtzLgY8gkUkWAcZVcOMUa" x1="15.002" x2="33.584" y1="6.494" y2="42.647" gradientUnits="userSpaceOnUse"><stop offset="0" stop-color="#0d61a9"/><stop offset="1" stop-color="#16528c"/></linearGradient><path fill="url(#TJtzLgY8gkUkWAcZVcOMUa)" d="M44,24c0,11.045-8.955,20-20,20S4,35.045,4,24S12.955,4,24,4S44,12.955,44,24z"/><linearGradient id="TJtzLgY8gkUkWAcZVcOMUb" x1="24" x2="24" y1="6.225" y2="21.107" gradientUnits="userSpaceOnUse"><stop offset=".478" stop-color="#1aa1eb"/><stop offset=".718" stop-color="#199fea"/><stop offset=".804" stop-color="#1798e6"/><stop offset=".865" stop-color="#138ddf"/><stop offset=".914" stop-color="#0d7cd6"/><stop offset=".95" stop-color="#076acc"/></linearGradient><path fill="url(#TJtzLgY8gkUkWAcZVcOMUb)" d="M6.27,21h35.46C40.299,12.491,32.916,6,24,6S7.701,12.491,6.27,21z"/><linearGradient id="TJtzLgY8gkUkWAcZVcOMUc" x1="24" x2="24" y1="6.225" y2="21.107" gradientTransform="rotate(-45.001 24 24)" gradientUnits="userSpaceOnUse"><stop offset=".478" stop-color="#1aa1eb"/><stop offset=".718" stop-color="#199fea"/><stop offset=".804" stop-color="#1798e6"/><stop offset=".865" stop-color="#138ddf"/><stop offset=".914" stop-color="#0d7cd6"/><stop offset=".95" stop-color="#076acc"/></linearGradient><path fill="url(#TJtzLgY8gkUkWAcZVcOMUc)" d="M9.342,34.416L34.416,9.342c-7.029-5.005-16.839-4.374-23.144,1.93S4.337,27.387,9.342,34.416	z"/><linearGradient id="TJtzLgY8gkUkWAcZVcOMUd" x1="24" x2="24" y1="6.225" y2="21.107" gradientTransform="rotate(-90 24 24)" gradientUnits="userSpaceOnUse"><stop offset=".478" stop-color="#1aa1eb"/><stop offset=".718" stop-color="#199fea"/><stop offset=".804" stop-color="#1798e6"/><stop offset=".865" stop-color="#138ddf"/><stop offset=".914" stop-color="#0d7cd6"/><stop offset=".95" stop-color="#076acc"/></linearGradient><path fill="url(#TJtzLgY8gkUkWAcZVcOMUd)" d="M21,41.73V6.27C12.491,7.701,6,15.084,6,24S12.491,40.299,21,41.73z"/><linearGradient id="TJtzLgY8gkUkWAcZVcOMUe" x1="24" x2="24" y1="6.225" y2="21.107" gradientTransform="rotate(-134.999 24 24)" gradientUnits="userSpaceOnUse"><stop offset=".478" stop-color="#1aa1eb"/><stop offset=".718" stop-color="#199fea"/><stop offset=".804" stop-color="#1798e6"/><stop offset=".865" stop-color="#138ddf"/><stop offset=".914" stop-color="#0d7cd6"/><stop offset=".95" stop-color="#076acc"/></linearGradient><path fill="url(#TJtzLgY8gkUkWAcZVcOMUe)" d="M34.416,38.658L9.342,13.584c-5.005,7.029-4.374,16.839,1.93,23.144	S27.387,43.663,34.416,38.658z"/><linearGradient id="TJtzLgY8gkUkWAcZVcOMUf" x1="24" x2="24" y1="6.225" y2="21.107" gradientTransform="rotate(180 24 24)" gradientUnits="userSpaceOnUse"><stop offset=".478" stop-color="#1aa1eb"/><stop offset=".718" stop-color="#199fea"/><stop offset=".804" stop-color="#1798e6"/><stop offset=".865" stop-color="#138ddf"/><stop offset=".914" stop-color="#0d7cd6"/><stop offset=".95" stop-color="#076acc"/></linearGradient><path fill="url(#TJtzLgY8gkUkWAcZVcOMUf)" d="M41.73,27H6.27C7.701,35.509,15.084,42,24,42S40.299,35.509,41.73,27z"/><linearGradient id="TJtzLgY8gkUkWAcZVcOMUg" x1="35.333" x2="24.274" y1="38.398" y2="27.339" gradientUnits="userSpaceOnUse"><stop offset=".478" stop-color="#1aa1eb"/><stop offset=".718" stop-color="#199fea"/><stop offset=".804" stop-color="#1798e6"/><stop offset=".865" stop-color="#138ddf"/><stop offset=".914" stop-color="#0d7cd6"/><stop offset=".95" stop-color="#076acc"/></linearGradient><path fill="url(#TJtzLgY8gkUkWAcZVcOMUg)" d="M29.243,23L13.584,38.658c7.029,5.005,16.839,4.374,23.144-1.93	c3.771-3.771,5.496-8.794,5.215-13.728H29.243z"/><linearGradient id="TJtzLgY8gkUkWAcZVcOMUh" x1="41.907" x2="26.89" y1="31.365" y2="31.365" gradientUnits="userSpaceOnUse"><stop offset=".478" stop-color="#1aa1eb"/><stop offset=".718" stop-color="#199fea"/><stop offset=".804" stop-color="#1798e6"/><stop offset=".865" stop-color="#138ddf"/><stop offset=".914" stop-color="#0d7cd6"/><stop offset=".95" stop-color="#076acc"/></linearGradient><path fill="url(#TJtzLgY8gkUkWAcZVcOMUh)" d="M41.73,21H27v20.73c8.509-1.431,15-8.814,15-17.73C42,22,41.73,21,41.73,21z"/><linearGradient id="TJtzLgY8gkUkWAcZVcOMUi" x1="40.97" x2="31.775" y1="18.689" y2="27.883" gradientUnits="userSpaceOnUse"><stop offset=".478" stop-color="#1aa1eb"/><stop offset=".718" stop-color="#199fea"/><stop offset=".804" stop-color="#1798e6"/><stop offset=".865" stop-color="#138ddf"/><stop offset=".914" stop-color="#0d7cd6"/><stop offset=".95" stop-color="#076acc"/></linearGradient><path fill="url(#TJtzLgY8gkUkWAcZVcOMUi)" d="M25.243,21l13.416,13.416c2.822-3.964,3.851-8.811,3.083-13.416H25.243z"/></svg>