<svg xmlns="http://www.w3.org/2000/svg" viewBox="0 0 48 48"><path fill="#1a9ba1" d="M36.592,31.425c0,2.676-0.99,4.839-2.969,6.487c-1.98,1.649-4.618,2.473-7.915,2.473 c-1.752,0-3.58-0.269-5.484-0.807V47c0,0.552-0.448,1-1,1h-6.815c-0.552,0-1-0.448-1-1V19.402c0-3.49,1.062-6.263,3.187-8.319 S19.589,8,23.203,8c2.469,0,4.601,0.369,6.394,1.107c1.793,0.738,3.159,1.776,4.097,3.114s1.407,2.883,1.407,4.635 c0,1.504-0.421,2.821-1.262,3.952c-0.842,1.131-2.083,1.987-3.725,2.566v0.083c1.987,0.593,3.563,1.611,4.728,3.052 S36.592,29.59,36.592,31.425z M27.652,30.845c0-1.131-0.528-2.042-1.583-2.732c-0.864-0.565-1.957-0.898-3.279-1.001 c-0.515-0.04-0.912-0.475-0.912-0.992v-3.954c0-0.506,0.384-0.935,0.887-0.987c2.264-0.234,3.396-1.42,3.396-3.557 c0-0.952-0.262-1.721-0.786-2.307c-0.524-0.586-1.207-0.879-2.049-0.879c-1.021,0-1.793,0.383-2.318,1.148 c-0.524,0.766-0.786,1.797-0.786,3.094V32.79c1.283,0.759,2.559,1.138,3.828,1.138c1.131,0,2.014-0.279,2.649-0.838 C27.335,32.532,27.652,31.783,27.652,30.845z"/></svg>