<svg xmlns="http://www.w3.org/2000/svg" viewBox="0 0 48 48"><linearGradient id="flu5ChBUF0G5HCmjsNBH2a" x1="4" x2="44" y1="1506" y2="1506" gradientTransform="translate(0 -1490)" gradientUnits="userSpaceOnUse"><stop offset="0" stop-color="#912fbd"/><stop offset="1" stop-color="#9332bf"/></linearGradient><path fill="url(#flu5ChBUF0G5HCmjsNBH2a)" d="M44,23c0,1.657-1.343,3-3,3H7c-1.657,0-3-1.343-3-3V9c0-1.657,1.343-3,3-3h34	c1.657,0,3,1.343,3,3V23z"/><path fill="#f3e5f5" d="M40,24v-7.353c0-0.256-0.11-0.497-0.303-0.664C39.465,15.78,37.563,14,32.531,14	s-6.996,1.78-7.229,1.983C25.11,16.15,25,16.392,25,16.647V22L40,24z M8,24v-7.353c0-0.256,0.11-0.497,0.303-0.664	C8.535,15.78,10.438,14,15.469,14s6.996,1.78,7.229,1.983C22.89,16.15,23,16.392,23,16.647V22L8,24z"/><linearGradient id="flu5ChBUF0G5HCmjsNBH2b" x1="24" x2="24" y1="1531.969" y2="1522.834" gradientTransform="translate(0 -1490)" gradientUnits="userSpaceOnUse"><stop offset="0" stop-color="#7819a2"/><stop offset="1" stop-color="#771aa9"/></linearGradient><path fill="url(#flu5ChBUF0G5HCmjsNBH2b)" d="M45,42h-4c-0.552,0-1-0.448-1-1v-3H8v3c0,0.552-0.448,1-1,1H3c-0.552,0-1-0.448-1-1v-8h44v8	C46,41.552,45.552,42,45,42z"/><linearGradient id="flu5ChBUF0G5HCmjsNBH2c" x1="2" x2="46" y1="1516.5" y2="1516.5" gradientTransform="translate(0 -1490)" gradientUnits="userSpaceOnUse"><stop offset="0" stop-color="#c965eb"/><stop offset="1" stop-color="#c767e5"/></linearGradient><path fill="url(#flu5ChBUF0G5HCmjsNBH2c)" d="M46,33H2v-1.636C2,22.374,5.252,20,23.526,20C40.959,20,46,21.915,46,31.364V33z"/></svg>