<svg xmlns="http://www.w3.org/2000/svg" viewBox="0 0 48 48"><path fill="#1b9de2" d="M36,9H12v34c0,1.105,0.895,2,2,2h20c1.105,0,2-0.895,2-2V9z"/><path fill="#50e6ff" d="M36,9H12V6c0-1.105,0.895-2,2-2h20c1.105,0,2,0.895,2,2V9z"/><circle cx="20" cy="6.5" r=".75" fill="#0c63ad"/><path fill="#0c63ad" d="M27.5,5.75c-0.194,0-4.806,0-5,0c-0.414,0-0.75,0.336-0.75,0.75c0,0.414,0.336,0.75,0.75,0.75	c0.194,0,4.806,0,5,0c0.414,0,0.75-0.336,0.75-0.75C28.25,6.086,27.914,5.75,27.5,5.75z"/><path d="M25.147,23.62c-1.693-0.657-2.722-1.108-2.722-1.824c0-0.207,0-0.836,1.574-0.836	c1.594,0,2.912,0.507,3.555,0.809c0.476,0.223,1.021,0.188,1.463-0.091c0.436-0.276,0.696-0.751,0.696-1.269v-1.646	c0-1.338-0.822-1.802-1.176-1.939c-0.736-0.287-1.643-0.473-2.752-0.564v-0.867c0-0.768-0.625-1.393-1.393-1.393h-0.786	c-0.768,0-1.393,0.625-1.393,1.393v0.98c-2.552,0.521-4.987,2.229-4.987,5.696c0,4.093,3.36,5.337,5.813,6.245	c1.531,0.567,2.534,0.98,2.534,1.541c0,0.241,0,0.807-1.574,0.807c-2.032,0-3.814-0.832-4.312-1.088	c-0.468-0.238-1.017-0.219-1.465,0.057C17.77,29.907,17.5,30.39,17.5,30.92v1.873c0,0.76,0.455,1.442,1.156,1.738	c1.037,0.441,2.316,0.785,3.558,0.967v1.109c0,0.768,0.625,1.393,1.393,1.393h0.786c0.768,0,1.393-0.625,1.393-1.393v-1.123	c3.66-0.688,4.988-3.479,4.988-5.798C30.773,25.806,27.521,24.542,25.147,23.62z" opacity=".05"/><path d="M24.966,24.087c-1.885-0.732-3.041-1.235-3.041-2.291c0-1.104,1.128-1.336,2.074-1.336	c1.69,0,3.086,0.536,3.768,0.856c0.318,0.148,0.687,0.128,0.982-0.061c0.291-0.185,0.464-0.501,0.464-0.847v-1.646	c0-0.992-0.537-1.349-0.857-1.474c-0.789-0.307-1.797-0.492-3.071-0.564v-1.333c0-0.492-0.4-0.893-0.893-0.893h-0.786	c-0.493,0-0.893,0.4-0.893,0.893v1.398c-2.489,0.383-4.987,1.939-4.987,5.278c0,3.744,3.042,4.871,5.487,5.776	c1.773,0.657,2.86,1.105,2.86,2.01c0,0.323,0,1.307-2.074,1.307c-2.144,0-4.017-0.874-4.541-1.143	c-0.311-0.158-0.677-0.146-0.977,0.038C18.181,30.242,18,30.564,18,30.92v1.873c0,0.559,0.334,1.061,0.852,1.278	c1.101,0.468,2.542,0.834,3.862,0.988v1.548c0,0.492,0.4,0.893,0.893,0.893h0.786c0.493,0,0.893-0.4,0.893-0.893v-1.549	c3.67-0.503,4.988-3.17,4.988-5.372C30.273,26.147,27.331,25.005,24.966,24.087z" opacity=".07"/><path fill="#fff" d="M29.773,29.687c0-5.654-8.348-4.55-8.348-7.891c0-1.744,1.96-1.836,2.574-1.836	c1.474,0,2.896,0.395,3.98,0.904c0.342,0.16,0.734-0.077,0.734-0.454v-1.645c0-0.552-0.208-0.879-0.539-1.008	c-0.744-0.289-1.811-0.5-3.39-0.552v-1.811c0-0.217-0.176-0.393-0.393-0.393h-0.786c-0.217,0-0.393,0.176-0.393,0.393v1.84	c-2.448,0.239-4.988,1.621-4.988,4.837c0,5.861,8.347,4.699,8.347,7.786c0,0.97-0.62,1.807-2.574,1.807	c-1.964,0-3.769-0.686-4.768-1.197c-0.336-0.172-0.732,0.077-0.732,0.455v1.873c0,0.359,0.216,0.679,0.547,0.819	c1.184,0.503,2.771,0.883,4.167,0.995v2.001c0,0.217,0.176,0.393,0.393,0.393h0.786c0.217,0,0.393-0.176,0.393-0.393V34.61	C28.449,34.305,29.773,31.852,29.773,29.687z"/></svg>