<svg xmlns="http://www.w3.org/2000/svg" viewBox="0 0 48 48"><linearGradient id="t214lDsm8~EthXpQZKLFva" x1="25.306" x2="42.974" y1="352.829" y2="371.021" gradientTransform="rotate(-45.001 -384.006 192.996)" gradientUnits="userSpaceOnUse"><stop offset="0" stop-color="#eba600"/><stop offset="1" stop-color="#c28200"/></linearGradient><path fill="url(#t214lDsm8~EthXpQZKLFva)" d="M43.559,23.441l-6.147,6.147l-19-19l6.147-6.147c0.618-0.617,1.618-0.618,2.235,0	l16.765,16.765C44.176,21.823,44.176,22.824,43.559,23.441z"/><linearGradient id="t214lDsm8~EthXpQZKLFvb" x1="7.71" x2="31.192" y1="349.702" y2="373.881" gradientTransform="rotate(-45.001 -384.006 192.996)" gradientUnits="userSpaceOnUse"><stop offset="0" stop-color="#ffd869"/><stop offset="1" stop-color="#fec52b"/></linearGradient><path fill="url(#t214lDsm8~EthXpQZKLFvb)" d="M37.412,29.588L23.441,43.559c-0.618,0.618-1.618,0.618-2.235,0L3.882,26.235	c-0.308-0.308-0.308-0.809,0-1.118l14.529-14.529c0.618-0.617,1.618-0.618,2.235,0l16.765,16.765	C38.029,27.97,38.029,28.971,37.412,29.588z"/><path fill="#fff8e6" d="M8.912,20.088l5.029-5.029l2.794,2.794l-5.029,5.029L8.912,20.088z"/><path fill="#e52030" d="M44.888,42.734L5.266,3.112c-0.149-0.149-0.39-0.149-0.539,0L3.112,4.728	c-0.149,0.149-0.149,0.39,0,0.539l39.622,39.622c0.149,0.149,0.39,0.149,0.539,0l1.616-1.616	C45.037,43.124,45.037,42.882,44.888,42.734z"/></svg>