<svg xmlns="http://www.w3.org/2000/svg" viewBox="0 0 48 48"><path fill="#4a52bd" d="M28,17h-2v-6h2c0.552,0,1,0.448,1,1v4C29,16.552,28.552,17,28,17z"/><path fill="#4a52bd" d="M28,37h-2v-6h2c0.552,0,1,0.448,1,1v4C29,36.552,28.552,37,28,37z"/><linearGradient id="OegY5_8q_rCfJpJg_qfida" x1="35.965" x2="40.151" y1="5.965" y2="10.151" gradientUnits="userSpaceOnUse"><stop offset="0" stop-color="#32bdef"/><stop offset="1" stop-color="#1ea2e4"/></linearGradient><circle cx="38" cy="8" r="3" fill="url(#OegY5_8q_rCfJpJg_qfida)"/><linearGradient id="OegY5_8q_rCfJpJg_qfidb" x1="36.92" x2="38.664" y1="13.35" y2="22.07" gradientUnits="userSpaceOnUse"><stop offset="0" stop-color="#32bdef"/><stop offset="1" stop-color="#1ea2e4"/></linearGradient><path fill="url(#OegY5_8q_rCfJpJg_qfidb)" d="M38,13c-2.761,0-5,2.239-5,5v1.889C33,20.503,33.497,21,34.111,21h7.778	C42.503,21,43,20.503,43,19.889V18C43,15.239,40.761,13,38,13z"/><linearGradient id="OegY5_8q_rCfJpJg_qfidc" x1="35.965" x2="40.151" y1="27.965" y2="32.151" gradientUnits="userSpaceOnUse"><stop offset="0" stop-color="#32bdef"/><stop offset="1" stop-color="#1ea2e4"/></linearGradient><circle cx="38" cy="30" r="3" fill="url(#OegY5_8q_rCfJpJg_qfidc)"/><linearGradient id="OegY5_8q_rCfJpJg_qfidd" x1="36.92" x2="38.664" y1="35.35" y2="44.07" gradientUnits="userSpaceOnUse"><stop offset="0" stop-color="#32bdef"/><stop offset="1" stop-color="#1ea2e4"/></linearGradient><path fill="url(#OegY5_8q_rCfJpJg_qfidd)" d="M38,35c-2.761,0-5,2.239-5,5v1.889C33,42.503,33.497,43,34.111,43h7.778	C42.503,43,43,42.503,43,41.889V40C43,37.239,40.761,35,38,35z"/><path fill="#7b83eb" d="M10,24L10,24c0-3.866,3.134-7,7-7h9v-6h-9C9.82,11,4,16.82,4,24v0c0,7.18,5.82,13,13,13h9v-6h-9	C13.134,31,10,27.866,10,24z"/></svg>