<svg xmlns="http://www.w3.org/2000/svg" viewBox="0 0 48 48"><path fill="#b31523" d="M17,20.017c-2.968,0-12,0-12-8c0-0.553,0.448-1,1-1s1,0.447,1,1c0,5.318,5.344,6,10,6	c0.552,0,1,0.447,1,1S17.552,20.017,17,20.017z"/><path fill="#b31523" d="M24,20.017c-0.552,0-1-0.447-1-1s0.448-1,1-1c4.656,0,10-0.682,10-6c0-0.553,0.448-1,1-1s1,0.447,1,1	C36,20.017,26.968,20.017,24,20.017z"/><path fill="#b31523" d="M19.999,14.017c-0.19,0-0.383-0.055-0.554-0.168C16,11.552,16,7.138,16,5.017c0-0.553,0.448-1,1-1	s1,0.447,1,1c0,1.91,0,5.465,2.555,7.168c0.459,0.307,0.583,0.927,0.277,1.387C20.639,13.86,20.322,14.017,19.999,14.017z"/><path fill="#b31523" d="M21.001,14.017c-0.323,0-0.64-0.156-0.833-0.445c-0.306-0.46-0.182-1.08,0.277-1.387	C23,10.481,23,6.927,23,5.017c0-0.553,0.448-1,1-1s1,0.447,1,1c0,2.121,0,6.535-3.445,8.832	C21.384,13.962,21.191,14.017,21.001,14.017z"/><path fill="#b31523" d="M10.162,26.017H5c-0.552,0-1-0.447-1-1s0.448-1,1-1h4.838l5.846-1.948	c0.526-0.175,1.091,0.108,1.265,0.632c0.175,0.524-0.108,1.091-0.632,1.265L10.162,26.017z"/><path fill="#b31523" d="M11.277,31.017H6c-0.552,0-1-0.447-1-1s0.448-1,1-1h4.723l4.762-2.857	c0.473-0.284,1.088-0.131,1.372,0.343c0.284,0.474,0.131,1.088-0.343,1.372L11.277,31.017z"/><circle cx="20.5" cy="41.017" r="3" fill="#b31523"/><circle cx="16" cy="41.017" r="3" fill="#b31523"/><circle cx="25" cy="41.017" r="3" fill="#b31523"/><linearGradient id="O2z09Dgs0HaJXwC~8zWD0a" x1="20.5" x2="20.5" y1="6.546" y2="41.498" gradientUnits="userSpaceOnUse"><stop offset="0" stop-color="#f44f5a"/><stop offset=".431" stop-color="#ee3d4a"/><stop offset="1" stop-color="#e52030"/></linearGradient><path fill="url(#O2z09Dgs0HaJXwC~8zWD0a)" d="M24,27.017h-7c-1.667,3.335-1.945,7.364-0.253,11.509c0.618,1.515,2.117,2.491,3.753,2.491h0	c1.636,0,3.134-0.976,3.753-2.491C25.945,34.381,25.667,30.351,24,27.017z"/><linearGradient id="O2z09Dgs0HaJXwC~8zWD0b" x1="20.5" x2="20.5" y1="8.664" y2="41.952" gradientUnits="userSpaceOnUse"><stop offset="0" stop-color="#f44f5a"/><stop offset=".431" stop-color="#ee3d4a"/><stop offset="1" stop-color="#e52030"/></linearGradient><path fill="url(#O2z09Dgs0HaJXwC~8zWD0b)" d="M26,24.06c0-5.523-3.385-13.043-5.5-13.043S15,18.537,15,24.06s2.462,6.957,5.5,6.957	S26,29.583,26,24.06z"/><ellipse cx="36.5" cy="39.267" fill="#b31523" rx="2.947" ry="1.621" transform="rotate(-39.367 36.505 39.269)"/><ellipse cx="36.5" cy="41.766" fill="#b31523" rx="1.621" ry="2.947" transform="rotate(-50.632 36.497 41.763)"/><path fill="#b31523" d="M26,32.017c0.915,1.237,2.144,2,3.5,2s2.585-0.763,3.5-2H26z"/><path fill="#b31523" d="M27,36.017c0.915,1.237,2.144,2,3.5,2s2.585-0.763,3.5-2H27z"/><linearGradient id="O2z09Dgs0HaJXwC~8zWD0c" x1="16.913" x2="45.015" y1="31.52" y2="31.52" gradientUnits="userSpaceOnUse"><stop offset="0" stop-color="#f44f5a"/><stop offset=".431" stop-color="#ee3d4a"/><stop offset="1" stop-color="#e52030"/></linearGradient><path fill="url(#O2z09Dgs0HaJXwC~8zWD0c)" d="M34.241,39.375l-0.106-0.017c-2.124-0.337-4.253-1.217-5.684-2.444 c-0.714-0.611-1.215-1.304-1.447-1.966c-0.237-0.666-0.246-1.295-0.105-1.993c0.136-0.75,0.447-1.345,0.82-1.711 c0.375-0.377,0.826-0.631,1.418-0.847c0.587-0.211,1.313-0.353,2.082-0.393c0.764-0.042,2.262,0.184,2.917,0.184v-9.171 c-1.311,0-3.714,0.442-5.163,0.957c-1.441,0.52-2.856,1.241-4.147,2.279c-1.285,1.027-2.429,2.427-3.092,4.039 c-0.677,1.615-0.839,3.312-0.674,4.856c0.141,1.589,0.733,3.241,1.714,4.532c0.971,1.303,2.231,2.228,3.505,2.863 c1.282,0.638,2.599,1.019,3.909,1.245c1.313,0.221,2.623,0.291,3.948,0.19c0.593-0.045,1.1-0.49,1.197-1.102 C35.445,40.161,34.957,39.489,34.241,39.375z"/><path fill="#eb6773" d="M40.72,21.017h-6.585c-2.534,0-4.588,2.053-4.588,4.586c0,2.532,2.054,4.586,4.588,4.586 c3.933,0,6.333-2.57,7.191-5.422l0.617-2.053C42.196,21.869,41.58,21.017,40.72,21.017z"/><ellipse cx="35" cy="23.021" fill="#343434" rx="1" ry=".997"/><path fill="#eb6773" d="M27.718,31.242c-0.374,0.367-0.682,0.963-0.819,1.71c-0.079,0.373-0.111,0.721-0.085,1.068 c-1.226,0.753-3.847,0.753-5.696-0.406c-0.026-0.157-0.046-0.308-0.059-0.465c-0.164-1.546,0-3.243,0.675-4.854 c0.557-1.356,1.462-2.568,2.497-3.524C24.277,27.567,25.588,30.843,27.718,31.242z"/><path fill="#eb6773" d="M31.487,38.645c0.655,1.369,0.655,2.679,0,3.315c-0.433-0.039-0.865-0.098-1.298-0.17 c-1.311-0.229-2.628-0.609-3.913-1.245c-0.596-0.295-1.186-0.655-1.743-1.087c2.366-0.098,3.677-1.408,4.221-2.299 C29.527,37.76,30.471,38.265,31.487,38.645z"/><g><path fill="#b31523" d="M31.46,8.476c2.398,2.398,4.46,4.46,4.46,4.46s-4.775,0.652-7.173-1.746s-1.628-7.056-1.628-7.056 S29.062,6.078,31.46,8.476z"/><path fill="#d9414f" d="M34.173,5.763c2.398,2.398,1.746,7.173,1.746,7.173s-2.062-2.062-4.46-4.46 s-4.342-4.342-4.342-4.342S31.775,3.365,34.173,5.763z"/></g><g><path fill="#b31523" d="M9.54,8.476c-2.398,2.398-4.46,4.46-4.46,4.46s4.775,0.652,7.173-1.746s1.628-7.056,1.628-7.056 S11.938,6.078,9.54,8.476z"/><path fill="#d9414f" d="M6.827,5.763c-2.398,2.398-1.746,7.173-1.746,7.173s2.062-2.062,4.46-4.46s4.342-4.342,4.342-4.342 S9.225,3.365,6.827,5.763z"/></g><g><path d="M26.28,40.547c-1.28-0.64-2.54-1.56-3.51-2.87c-0.98-1.29-1.57-2.94-1.71-4.53c-0.17-1.54,0-3.24,0.67-4.85 c0.67-1.62,1.81-3.02,3.1-4.04c0.37-0.3,0.76-0.57,1.15-0.82c0-0.19-0.01-0.39-0.03-0.58c-0.01-0.18-0.03-0.37-0.06-0.55 c-0.6,0.35-1.16,0.74-1.69,1.17c-1.5,1.2-2.71,2.78-3.39,4.44c-0.69,1.63-0.94,3.48-0.74,5.34c0.16,1.83,0.84,3.62,1.91,5.03 c0.96,1.3,2.26,2.36,3.85,3.15c0.61,0.3,1.25,0.56,1.92,0.77c0.07-0.15,0.12-0.3,0.16-0.46c0.04-0.17,0.07-0.34,0.08-0.51 C27.42,41.057,26.84,40.827,26.28,40.547z" opacity=".05"/><path d="M26.28,40.547c-1.28-0.64-2.54-1.56-3.51-2.87c-0.98-1.29-1.57-2.94-1.71-4.53c-0.17-1.54,0-3.24,0.67-4.85 c0.67-1.62,1.81-3.02,3.1-4.04c0.37-0.3,0.76-0.57,1.15-0.82c0-0.19-0.01-0.39-0.03-0.58c-0.51,0.31-0.98,0.64-1.44,1.01 c-1.44,1.15-2.59,2.65-3.24,4.24c-0.65,1.55-0.9,3.32-0.71,5.1c0.16,1.72,0.82,3.46,1.82,4.78c0.92,1.23,2.16,2.25,3.67,3 c0.6,0.3,1.21,0.55,1.86,0.76c0.04-0.17,0.07-0.34,0.08-0.51C27.42,41.057,26.84,40.827,26.28,40.547z" opacity=".07"/></g></svg>