<svg xmlns="http://www.w3.org/2000/svg" viewBox="0 0 48 48"><linearGradient id="KT8D~YJMJRIkxGMitDZBfa" x1="25" x2="25" y1="36.197" y2="9.702" gradientTransform="matrix(1 0 0 -1 0 47.89)" gradientUnits="userSpaceOnUse"><stop offset="0" stop-color="#21ad64"/><stop offset="1" stop-color="#088242"/></linearGradient><path fill="url(#KT8D~YJMJRIkxGMitDZBfa)" d="M46,13v22c0,1.11-0.9,2-2,2h-1l-1-1l-1,1h-3l-1-1l-1,1h-1l-1-1l-1,1h-1l-1-1l-1,1h-1l-1-1	l-1,1h-2c-0.552,0-1-0.448-1-1v-2c0-0.55-0.45-1-1-1h-8c-0.55,0-1,0.45-1,1v2c0,0.552-0.448,1-1,1H4V11h40C45.1,11,46,11.9,46,13z"/><path fill="#edbe00" d="M28.5,33h-1c-0.276,0-0.5,0.224-0.5,0.5V37h2v-3.5C29,33.224,28.776,33,28.5,33z"/><path fill="#edbe00" d="M31.5,33h-1c-0.276,0-0.5,0.224-0.5,0.5V37h2v-3.5C32,33.224,31.776,33,31.5,33z"/><path fill="#edbe00" d="M34.5,33h-1c-0.276,0-0.5,0.224-0.5,0.5V37h2v-3.5C35,33.224,34.776,33,34.5,33z"/><path fill="#edbe00" d="M37.5,33h-1c-0.276,0-0.5,0.224-0.5,0.5V37h2v-3.5C38,33.224,37.776,33,37.5,33z"/><path fill="#edbe00" d="M42.5,33h-1c-0.276,0-0.5,0.224-0.5,0.5V37h2v-3.5C43,33.224,42.776,33,42.5,33z"/><path d="M12,17v20H4V15h6C11.1,15,12,15.9,12,17z" opacity=".05"/><path d="M11.5,17v20H4l0.5-21.5H10C10.83,15.5,11.5,16.17,11.5,17z" opacity=".07"/><linearGradient id="KT8D~YJMJRIkxGMitDZBfb" x1="-2.531" x2="14.598" y1="33.94" y2="1.724" gradientTransform="matrix(1 0 0 -1 0 47.89)" gradientUnits="userSpaceOnUse"><stop offset="0" stop-color="#899198"/><stop offset="1" stop-color="#787e85"/></linearGradient><path fill="url(#KT8D~YJMJRIkxGMitDZBfb)" d="M10,16H5V8c0-1.657-1.343-3-3-3H0v2h2c0.552,0,1,0.448,1,1v39h2v-7h5c0.552,0,1-0.448,1-1V17	C11,16.448,10.552,16,10,16z"/><path fill="#ccc" d="M30.5,16h1c0.276,0,0.5,0.224,0.5,0.5v11c0,0.276-0.224,0.5-0.5,0.5h-1c-0.276,0-0.5-0.224-0.5-0.5	v-11C30,16.224,30.224,16,30.5,16z"/><path fill="#ccc" d="M27.5,16h1c0.276,0,0.5,0.224,0.5,0.5v11c0,0.276-0.224,0.5-0.5,0.5h-1c-0.276,0-0.5-0.224-0.5-0.5	v-11C27,16.224,27.224,16,27.5,16z"/><path fill="#ccc" d="M33.5,16h1c0.276,0,0.5,0.224,0.5,0.5v11c0,0.276-0.224,0.5-0.5,0.5h-1c-0.276,0-0.5-0.224-0.5-0.5	v-11C33,16.224,33.224,16,33.5,16z"/><path fill="#ccc" d="M37,21.5v1c0,0.276-0.224,0.5-0.5,0.5h-11c-0.276,0-0.5-0.224-0.5-0.5v-1c0-0.276,0.224-0.5,0.5-0.5	h11C36.776,21,37,21.224,37,21.5z"/><path fill="#ccc" d="M37,18.5v1c0,0.276-0.224,0.5-0.5,0.5h-11c-0.276,0-0.5-0.224-0.5-0.5v-1c0-0.276,0.224-0.5,0.5-0.5	h11C36.776,18,37,18.224,37,18.5z"/><path fill="#ccc" d="M37,24.5v1c0,0.276-0.224,0.5-0.5,0.5h-11c-0.276,0-0.5-0.224-0.5-0.5v-1c0-0.276,0.224-0.5,0.5-0.5	h11C36.776,24,37,24.224,37,24.5z"/><linearGradient id="KT8D~YJMJRIkxGMitDZBfc" x1="28.273" x2="34.35" y1="31.039" y2="19.563" gradientTransform="matrix(1 0 0 -1 0 47.89)" gradientUnits="userSpaceOnUse"><stop offset="0" stop-color="#4c4c4c"/><stop offset="1" stop-color="#343434"/></linearGradient><path fill="url(#KT8D~YJMJRIkxGMitDZBfc)" d="M27,17h8c0.552,0,1,0.448,1,1v8c0,0.552-0.448,1-1,1h-8c-0.552,0-1-0.448-1-1v-8	C26,17.448,26.448,17,27,17z"/><path d="M17,21c-1.103,0-2-0.897-2-2v-4c0-1.103,0.897-2,2-2h4	c1.103,0,2,0.897,2,2v4c0,1.103-0.897,2-2,2H17z" opacity=".05"/><path d="M17,20.5c-0.827,0-1.5-0.673-1.5-1.5v-4c0-0.827,0.673-1.5,1.5-1.5h4	c0.827,0,1.5,0.673,1.5,1.5v4c0,0.827-0.673,1.5-1.5,1.5H17z" opacity=".07"/><linearGradient id="KT8D~YJMJRIkxGMitDZBfd" x1="18.098" x2="19.815" y1="555.59" y2="561.663" gradientTransform="translate(0 -541.78)" gradientUnits="userSpaceOnUse"><stop offset="0" stop-color="#4c4c4c"/><stop offset="1" stop-color="#343434"/></linearGradient><path fill="url(#KT8D~YJMJRIkxGMitDZBfd)" d="M21,20h-4c-0.552,0-1-0.448-1-1v-4c0-0.552,0.448-1,1-1h4c0.552,0,1,0.448,1,1v4	C22,19.552,21.552,20,21,20z"/><path d="M17,31c-1.103,0-2-0.897-2-2v-4c0-1.103,0.897-2,2-2h4	c1.103,0,2,0.897,2,2v4c0,1.103-0.897,2-2,2H17z" opacity=".05"/><path d="M17,30.5c-0.827,0-1.5-0.673-1.5-1.5v-4c0-0.827,0.673-1.5,1.5-1.5h4	c0.827,0,1.5,0.673,1.5,1.5v4c0,0.827-0.673,1.5-1.5,1.5H17z" opacity=".07"/><linearGradient id="KT8D~YJMJRIkxGMitDZBfe" x1="18.098" x2="19.815" y1="565.59" y2="571.663" gradientTransform="translate(0 -541.78)" gradientUnits="userSpaceOnUse"><stop offset="0" stop-color="#4c4c4c"/><stop offset="1" stop-color="#343434"/></linearGradient><path fill="url(#KT8D~YJMJRIkxGMitDZBfe)" d="M21,30h-4c-0.552,0-1-0.448-1-1v-4c0-0.552,0.448-1,1-1h4c0.552,0,1,0.448,1,1v4	C22,29.552,21.552,30,21,30z"/><radialGradient id="KT8D~YJMJRIkxGMitDZBff" cx="42" cy="25.39" r="2.5" gradientTransform="matrix(1 0 0 -1 0 47.89)" gradientUnits="userSpaceOnUse"><stop offset="0"/><stop offset="1" stop-opacity="0"/></radialGradient><circle cx="42" cy="22.5" r="2.5" fill="url(#KT8D~YJMJRIkxGMitDZBff)"/><linearGradient id="KT8D~YJMJRIkxGMitDZBfg" x1="41.381" x2="43.119" y1="27.055" y2="23.786" gradientTransform="matrix(1 0 0 -1 0 47.89)" gradientUnits="userSpaceOnUse"><stop offset="0" stop-color="#4c4c4c"/><stop offset="1" stop-color="#343434"/></linearGradient><circle cx="42" cy="22" r="2" fill="url(#KT8D~YJMJRIkxGMitDZBfg)"/></svg>