<svg xmlns="http://www.w3.org/2000/svg" viewBox="0 0 48 48"><path fill="#199be2" d="M7.558,33.266C10.598,32.118,11,31.112,11,27c0,0,0,0,0-3h8v2c0,2.209-1.791,4-4,4h0	c-1.105,0-2,0.895-2,2v5C13,37,10.253,34.451,7.558,33.266z"/><circle cx="37.5" cy="41.5" r="2.5" fill="#0078d4"/><path fill="#0078d4" d="M36,4h-1h-9c-0.552,0-1,0.447-1,1s0.448,1,1,1h9c0.552,0,1,0.448,1,1c0,0.552-0.448,1-1,1h-9	c-0.552,0-1,0.447-1,1s0.448,1,1,1h9c0.552,0,1,0.448,1,1c0,0.552-0.448,1-1,1h-9c-0.552,0-1,0.447-1,1s0.448,1,1,1h9	c0.552,0,1,0.448,1,1c0,0.552-0.448,1-1,1h-9c-0.552,0-1,0.447-1,1s0.448,1,1,1h9c0.552,0,1,0.448,1,1c0,0.552-0.448,1-1,1h-9	c-0.552,0-1,0.447-1,1s0.448,1,1,1h9c0.552,0,1,0.448,1,1c0,0.552-0.448,1-1,1h-9c-0.552,0-1,0.447-1,1s0.448,1,1,1h7	c1.105,0,2,0.895,2,2v13.5h5V8C40,5.791,38.209,4,36,4z"/><path fill="#35c1f1" d="M21,36c-2.209,0-4,1.791-4,4c0,2.209,1.791,4,4,4s4-1.791,4-4C25,37.791,23.209,36,21,36z M21,42	c-1.105,0-2-0.895-2-2c0-1.105,0.895-2,2-2s2,0.895,2,2C23,41.105,22.105,42,21,42z"/><path fill="#35c1f1" d="M22.442,36.266C19.402,35.118,19,34.112,19,30c0,0,0-4,0-7c0-1.88-1.571-11.221-2.744-17.934	c-0.246-1.408-2.267-1.408-2.513,0C12.571,11.779,11,21.12,11,23v3c0,2.209,1.791,4,4,4h0c1.105,0,2,0.895,2,2v8	C17,40,19.747,37.451,22.442,36.266z"/><circle cx="15" cy="26" r="2" fill="#0078d4"/><path fill="#199be2" d="M9,33c-2.209,0-4,1.791-4,4c0,0.531,0,2.469,0,3c0,2.209,1.791,4,4,4s4-1.791,4-4	c0-0.531,0-2.469,0-3C13,34.791,11.209,33,9,33z M11,40c0,1.105-0.895,2-2,2s-2-0.895-2-2v-3c0-1.105,0.895-2,2-2s2,0.895,2,2V40z"/></svg>