<svg xmlns="http://www.w3.org/2000/svg" viewBox="0 0 48 48"><path fill="#616161" d="M6,13.5C6,9.358,9.358,6,13.5,6h21c4.142,0,7.5,3.358,7.5,7.5v21c0,4.142-3.358,7.5-7.5,7.5h-21 C9.358,42,6,38.642,6,34.5V13.5z"/><path fill="#fff" fill-rule="evenodd" d="M14.399,12.327c0.191-0.58,1.011-0.58,1.202,0 c0.439,1.336,1.487,2.383,2.822,2.822c0.58,0.191,0.58,1.011,0,1.202c-1.336,0.439-2.383,1.487-2.822,2.822 c-0.191,0.58-1.011,0.58-1.202,0c-0.439-1.336-1.487-2.383-2.822-2.822c-0.58-0.191-0.58-1.011,0-1.202 C12.912,14.71,13.96,13.662,14.399,12.327z" clip-rule="evenodd"/><path fill="#fff" fill-rule="evenodd" d="M29.962,14.166c-0.226-0.687-1.199-0.687-1.425,0l-1.058,3.216 c-0.521,1.584-1.763,2.826-3.347,3.347l-3.216,1.058c-0.688,0.226-0.688,1.199,0,1.425l3.216,1.058 c1.584,0.521,2.826,1.763,3.347,3.347l1.058,3.216c0.226,0.688,1.199,0.688,1.425,0l1.058-3.216 c0.521-1.584,1.763-2.826,3.347-3.347l3.216-1.058c0.688-0.226,0.688-1.199,0-1.425l-3.216-1.058 c-1.584-0.521-2.826-1.763-3.347-3.347L29.962,14.166z" clip-rule="evenodd"/><path fill="#fff" fill-rule="evenodd" d="M18.712,27.666c-0.226-0.687-1.199-0.687-1.425,0l-0.13,0.394 c-0.521,1.584-1.763,2.826-3.347,3.347l-0.394,0.13c-0.688,0.226-0.688,1.199,0,1.425l0.394,0.13 c1.584,0.521,2.826,1.763,3.347,3.347l0.13,0.395c0.226,0.688,1.199,0.688,1.425,0l0.13-0.395c0.521-1.584,1.763-2.826,3.347-3.347 l0.394-0.13c0.688-0.226,0.688-1.199,0-1.425l-0.394-0.13c-1.584-0.521-2.826-1.763-3.347-3.347L18.712,27.666z" clip-rule="evenodd"/></svg>