<svg xmlns="http://www.w3.org/2000/svg" viewBox="0 0 48 48"><linearGradient id="2fp6~G8ZiVb79yh6aTr62a" x1="19.309" x2="18.899" y1="11.78" y2="39.703" gradientTransform="translate(-.354 -.146)" gradientUnits="userSpaceOnUse"><stop offset="0" stop-color="#ffd869"/><stop offset="1" stop-color="#fec52b"/></linearGradient><path fill="url(#2fp6~G8ZiVb79yh6aTr62a)" d="M37.076,10.596L32.28,5.765c-0.578-0.583-1.516-0.583-2.095,0L19.662,16.37 c-0.478,0.481-0.886,1.033-1.167,1.653c-2.776,6.143-6.762,6.333-11.301,10.904c-3.715,3.742-5.409,6.296-7.011,9.259 c-0.374,0.692-0.158,1.56,0.502,1.983l4.878,3.126c0.777,0.498,1.815,0.166,2.159-0.695c3.223-8.045,9.415-12.998,15.231-16.732 c1.96-1.258,3.771-2.731,5.414-4.386l8.709-8.777C37.654,12.123,37.654,11.179,37.076,10.596z"/><linearGradient id="2fp6~G8ZiVb79yh6aTr62b" x1="35.783" x2="38.226" y1="6.245" y2="21.81" gradientTransform="translate(-.354 -.146)" gradientUnits="userSpaceOnUse"><stop offset="0" stop-color="#889097"/><stop offset=".331" stop-color="#848c94"/><stop offset=".669" stop-color="#78828b"/><stop offset="1" stop-color="#64717c"/></linearGradient><path fill="url(#2fp6~G8ZiVb79yh6aTr62b)" d="M34.351,25.427c-0.775-6.652-2.862-9.014-8.922-15.13c-0.481-0.485-0.48-1.268,0.002-1.753 l5.32-5.358c0.487-0.491,1.281-0.491,1.768,0l7.884,7.941c1.617,1.629,4.652,3.644,6.895,4.654 c0.537,0.242,0.829,0.837,0.652,1.398c-1.369,4.33-7.263,8.663-12.313,9.271C35.001,26.526,34.425,26.06,34.351,25.427z"/><linearGradient id="2fp6~G8ZiVb79yh6aTr62c" x1="32.829" x2="38.959" y1="6.383" y2="6.383" gradientTransform="translate(-.354 -.146)" gradientUnits="userSpaceOnUse"><stop offset="0" stop-color="#a1aab3"/><stop offset="1" stop-color="#8f979e"/></linearGradient><path fill="url(#2fp6~G8ZiVb79yh6aTr62c)" d="M38.424,9.148c0.054,0.055,0.124,0.113,0.181,0.168l-6.087-6.131 c-0.012-0.013-0.029-0.016-0.042-0.028L38.424,9.148z"/><linearGradient id="2fp6~G8ZiVb79yh6aTr62d" x1="34.563" x2="48.354" y1="20.937" y2="20.937" gradientTransform="translate(-.354 -.146)" gradientUnits="userSpaceOnUse"><stop offset="0" stop-color="#a1aab3"/><stop offset="1" stop-color="#8f979e"/></linearGradient><path fill="url(#2fp6~G8ZiVb79yh6aTr62d)" d="M47.296,15.781c-0.411-0.185-0.853-0.413-1.304-0.657 c-1.275,4.199-6.832,8.408-11.782,9.254c0.051,0.339,0.099,0.685,0.141,1.049c0.074,0.634,0.65,1.1,1.284,1.024 c5.051-0.608,10.945-4.941,12.313-9.271C48.126,16.618,47.833,16.022,47.296,15.781z"/></svg>