<svg xmlns="http://www.w3.org/2000/svg" data-name="Слой 1" viewBox="0 0 48 48"><defs><linearGradient id="CysI3a6K4sMb6v9e03HRda" x1="16.24" x2="31.385" y1="5.222" y2="46.833" data-name="Безымянный градиент 123" gradientUnits="userSpaceOnUse"><stop offset="0" stop-color="#f44f5a"/><stop offset=".443" stop-color="#ee3d4a"/><stop offset="1" stop-color="#e52030"/></linearGradient><linearGradient id="CysI3a6K4sMb6v9e03HRdb" x1="11" x2="37" y1="23.005" y2="23.005" data-name="Безымянный градиент 14" gradientUnits="userSpaceOnUse"><stop offset="0" stop-color="#42a3f2"/><stop offset="1" stop-color="#42a4eb"/></linearGradient><linearGradient id="CysI3a6K4sMb6v9e03HRdc" x1="11" x2="37" y1="18.505" y2="18.505" data-name="Безымянный градиент 3" gradientUnits="userSpaceOnUse"><stop offset="0" stop-color="#1d59b3"/><stop offset="1" stop-color="#195bbc"/></linearGradient></defs><path fill="#565b5e" d="M22.58,9.815a.9593.9593,0,0,1-.58.19.996.996,0,0,1-.81-.42l-3.71-5.19c.75-.1,1.52-.17,2.29-.23l3.04,4.26A.99375.99375,0,0,1,22.58,9.815Z"/><path fill="#565b5e" d="M30.52,4.395l-3.71,5.19a.996.996,0,0,1-.81.42.9593.9593,0,0,1-.58-.19.99375.99375,0,0,1-.23-1.39l3.04-4.26C29,4.225,29.77,4.295,30.52,4.395Z"/><path fill="#565b5e" d="M34.99818,45.00508a.99916.99916,0,0,1-.81494-.41894l-5-7A1.00008,1.00008,0,1,1,30.81117,36.424l5,7a1,1,0,0,1-.813,1.581Z"/><path fill="#565b5e" d="M13.00182,45.00508a1,1,0,0,1-.813-1.581l5-7a1.00008,1.00008,0,1,1,1.62793,1.16211l-5,7A.99916.99916,0,0,1,13.00182,45.00508Z"/><path fill="#bd2f2f" d="M19,8.005H29a2,2,0,0,1,2,2v1a0,0,0,0,1,0,0H17a0,0,0,0,1,0,0v-1a2,2,0,0,1,2-2Z"/><path fill="url(#CysI3a6K4sMb6v9e03HRda)" d="M39,14.005a2.97977,2.97977,0,0,0-2.70333-2.93678A67.075,67.075,0,0,0,24,10.005a67.35538,67.35538,0,0,0-12.29667,1.06322A2.97977,2.97977,0,0,0,9,14.005V39.32932A1.67611,1.67611,0,0,0,10.66667,41.005H37.33333A1.67611,1.67611,0,0,0,39,39.32932Z"/><circle cx="12.994" cy="35.005" r="2" fill="#fff"/><circle cx="35" cy="35.005" r="2" fill="#fff"/><path fill="#fff" d="M27,12.005H21a1,1,0,0,0,0,2h6a1,1,0,0,0,0-2Z"/><rect width="26" height="14" x="11" y="16.005" fill="url(#CysI3a6K4sMb6v9e03HRdb)" rx="2"/><path fill="url(#CysI3a6K4sMb6v9e03HRdc)" d="M13,16.005H35a2,2,0,0,1,2,2v3a0,0,0,0,1,0,0H11a0,0,0,0,1,0,0v-3A2,2,0,0,1,13,16.005Z"/><path fill="#565b5e" d="M38,7.00537a1.00289,1.00289,0,0,1-.31738-.05224,36.73487,36.73487,0,0,0-7.28076-1.56495c-.7461-.09961-1.498-.16748-2.24952-.22607a52.969,52.969,0,0,0-8.30371,0c-.75244.05859-1.50439.12646-2.23633.22412a36.79779,36.79779,0,0,0-7.29492,1.5669.99995.99995,0,0,1-.63476-1.89649,38.71544,38.71544,0,0,1,7.6792-1.65478c.7539-.10059,1.542-.17237,2.33056-.23389a54.93268,54.93268,0,0,1,8.61621,0c.7876.06152,1.57569.1333,2.34375.23584a38.65318,38.65318,0,0,1,7.665,1.65283A1.00028,1.00028,0,0,1,38,7.00537Z"/></svg>