<svg xmlns="http://www.w3.org/2000/svg" id="Layer_1" x="0" y="0" version="1.1" viewBox="0 0 48 48" xml:space="preserve"><linearGradient id="SVGID_1_" x1="21.516" x2="45.592" y1="1049.638" y2="1085.673" gradientTransform="translate(0 -1032)" gradientUnits="userSpaceOnUse"><stop offset="0" stop-color="#28afea"/><stop offset="1" stop-color="#0b88da"/></linearGradient><path fill="url(#SVGID_1_)" d="M9,26l36-14.3V38c0,1.1-0.9,2-2,2H9V26z"/><linearGradient id="SVGID_2_" x1="1.408" x2="36.331" y1="1056.41" y2="1078.164" gradientTransform="translate(0 -1032)" gradientUnits="userSpaceOnUse"><stop offset="0" stop-color="#28afea"/><stop offset="1" stop-color="#0b88da"/></linearGradient><path fill="url(#SVGID_2_)" d="M3,11.7V38c0,1.1,0.9,2,2,2h38c0.5,0,0.9-0.2,1.3-0.5L3,11.7z"/><path d="M3,11h42v1.7L27.7,26.1c-2.2,1.7-5.2,1.7-7.4,0L3,12.7V11z" opacity=".05"/><path d="M3,10.5h42v1.7L27,25.3c-1.8,1.3-4.2,1.3-5.9,0L3,12.2V10.5z" opacity=".07"/><path fill="#50e6ff" d="M5,8h38c1.1,0,2,0.9,2,2v1.7L26.3,24.5c-1.4,0.9-3.1,0.9-4.5,0L3,11.7V10C3,8.9,3.9,8,5,8z"/><path d="M3.3,17.5C5,19.1,7.2,20,9.5,20H12v3.3c0,0.7,0.4,1.3,1.1,1.6c0.2,0.1,0.4,0.1,0.7,0.1c0.5,0,0.9-0.2,1.2-0.5	l7-7.1c0.8-0.8,0.8-2,0-2.8L15.4,8h-3.2C12.1,8.2,12,8.5,12,8.7V12H7V8H5c-1.1,0-2,0.9-2,2v7.2L3.3,17.5z" opacity=".05"/><path d="M3.7,17.2c1.6,1.5,3.7,2.3,5.8,2.3h3v3.8c0,0.5,0.3,0.9,0.8,1.1c0.1,0.1,0.3,0.1,0.5,0.1	c0.3,0,0.6-0.1,0.9-0.4l7-7.1c0.6-0.6,0.6-1.5,0-2.1L14.7,8h-2c-0.2,0.2-0.2,0.5-0.2,0.7v3.8h-6V8H5c-1.1,0-2,0.9-2,2v6.5L3.7,17.2z" opacity=".07"/><linearGradient id="SVGID_3_" x1="3" x2="3" y1="-635.727" y2="-626.758" gradientTransform="translate(0 639)" gradientUnits="userSpaceOnUse"><stop offset=".478" stop-color="#ad4bd5"/><stop offset=".758" stop-color="#9f3dc8"/><stop offset=".787" stop-color="#9a38c4"/><stop offset=".868" stop-color="#9533c0"/><stop offset="1" stop-color="#912fbd"/></linearGradient><path fill="url(#SVGID_3_)" d="M6,13V5.1C6,4.5,5.5,4,4.9,4H1.1C0.5,4,0,4.5,0,5.1V13H6z"/><linearGradient id="SVGID_4_" x1="0" x2="21.526" y1="-623" y2="-623" gradientTransform="translate(0 639)" gradientUnits="userSpaceOnUse"><stop offset="0" stop-color="#c965eb"/><stop offset="1" stop-color="#c767e5"/></linearGradient><path fill="url(#SVGID_4_)" d="M14.2,23.8c-0.2,0.2-0.5,0.3-0.8,0.2c-0.3-0.1-0.4-0.4-0.4-0.7V19H9.5c-2,0-4-0.8-5.5-2.2L0,13h13V8.7	c0-0.3,0.2-0.6,0.4-0.7C13.5,8,13.6,8,13.7,8c0.2,0,0.4,0.1,0.5,0.2l7,7.1c0.4,0.4,0.4,1,0,1.4L14.2,23.8z"/></svg>