<svg xmlns="http://www.w3.org/2000/svg" viewBox="0 0 48 48"><path fill="#64717c" d="M38,8h2v2c0,0.552,0.448,1,1,1l0,0c0.552,0,1-0.448,1-1V8c0-1.1-0.9-2-2-2h-2c-0.552,0-1,0.448-1,1 v0C37,7.552,37.448,8,38,8z"/><path fill="#64717c" d="M8,10V8h2c0.552,0,1-0.448,1-1v0c0-0.552-0.448-1-1-1H8C6.9,6,6,6.9,6,8v2c0,0.552,0.448,1,1,1h0 C7.552,11,8,10.552,8,10z"/><path fill="#64717c" d="M40,38v2h-2c-0.552,0-1,0.448-1,1l0,0c0,0.552,0.448,1,1,1h2c1.1,0,2-0.9,2-2v-2 c0-0.552-0.448-1-1-1l0,0C40.448,37,40,37.448,40,38z"/><path fill="#64717c" d="M10,40H8v-2c0-0.552-0.448-1-1-1h0c-0.552,0-1,0.448-1,1v2c0,1.1,0.9,2,2,2h2c0.552,0,1-0.448,1-1 l0,0C11,40.448,10.552,40,10,40z"/><circle cx="14" cy="7" r="1" fill="#64717c"/><circle cx="18" cy="7" r="1" fill="#64717c"/><circle cx="22" cy="7" r="1" fill="#64717c"/><circle cx="30" cy="7" r="1" fill="#64717c"/><circle cx="34" cy="7" r="1" fill="#64717c"/><circle cx="26" cy="7" r="1" fill="#64717c"/><circle cx="14" cy="41" r="1" fill="#64717c"/><circle cx="18" cy="41" r="1" fill="#64717c"/><circle cx="22" cy="41" r="1" fill="#64717c"/><circle cx="30" cy="41" r="1" fill="#64717c"/><circle cx="34" cy="41" r="1" fill="#64717c"/><circle cx="26" cy="41" r="1" fill="#64717c"/><circle cx="41" cy="14" r="1" fill="#64717c"/><circle cx="41" cy="18" r="1" fill="#64717c"/><circle cx="41" cy="22" r="1" fill="#64717c"/><circle cx="41" cy="30" r="1" fill="#64717c"/><circle cx="41" cy="34" r="1" fill="#64717c"/><circle cx="41" cy="26" r="1" fill="#64717c"/><circle cx="7" cy="14" r="1" fill="#64717c"/><circle cx="7" cy="18" r="1" fill="#64717c"/><circle cx="7" cy="22" r="1" fill="#64717c"/><circle cx="7" cy="30" r="1" fill="#64717c"/><circle cx="7" cy="34" r="1" fill="#64717c"/><circle cx="7" cy="26" r="1" fill="#64717c"/><path fill="#007ad9" d="M36.5,28h-25c-0.275,0-0.5-0.225-0.5-0.5v-1c0-0.275,0.225-0.5,0.5-0.5h25c0.275,0,0.5,0.225,0.5,0.5	v1C37,27.775,36.775,28,36.5,28z"/><path fill="#007ad9" d="M32.5,22h-21c-0.275,0-0.5-0.225-0.5-0.5v-1c0-0.275,0.225-0.5,0.5-0.5h21c0.275,0,0.5,0.225,0.5,0.5	v1C33,21.775,32.775,22,32.5,22z"/><path fill="#007ad9" d="M36.5,16h-25c-0.275,0-0.5-0.225-0.5-0.5v-1c0-0.275,0.225-0.5,0.5-0.5h25c0.275,0,0.5,0.225,0.5,0.5	v1C37,15.775,36.775,16,36.5,16z"/><path fill="#007ad9" d="M32.5,34h-21c-0.275,0-0.5-0.225-0.5-0.5v-1c0-0.275,0.225-0.5,0.5-0.5h21c0.275,0,0.5,0.225,0.5,0.5	v1C33,33.775,32.775,34,32.5,34z"/></svg>