<svg xmlns="http://www.w3.org/2000/svg" viewBox="0 0 48 48"><linearGradient id="nLCNwKU0gLpRun69YVzYKa" x1="-92.715" x2="-58.017" y1="23.099" y2="41.912" gradientTransform="matrix(0 1 1 0 -1.777 111.777)" gradientUnits="userSpaceOnUse"><stop offset="0" stop-color="#dfe9f2"/><stop offset=".998" stop-color="#9ea7b0"/></linearGradient><path fill="url(#nLCNwKU0gLpRun69YVzYKa)" d="M24,44c2.467,0,4.818-0.468,7-1.284V5.284C28.818,4.468,26.467,4,24,4s-4.818,0.468-7,1.284	v37.431C19.182,43.532,21.533,44,24,44z"/><linearGradient id="nLCNwKU0gLpRun69YVzYKb" x1="-95.614" x2="-59.191" y1="12.035" y2="27.849" gradientTransform="matrix(0 1 1 0 -1.777 111.777)" gradientUnits="userSpaceOnUse"><stop offset="0" stop-color="#21ad64"/><stop offset="1" stop-color="#088242"/></linearGradient><path fill="url(#nLCNwKU0gLpRun69YVzYKb)" d="M17,42.716V5.284C9.412,8.125,4,15.421,4,24S9.412,39.875,17,42.716z"/><linearGradient id="nLCNwKU0gLpRun69YVzYKc" x1="-97.776" x2="-60.647" y1="32.834" y2="46.442" gradientTransform="matrix(0 1 1 0 -1.777 111.777)" gradientUnits="userSpaceOnUse"><stop offset="0" stop-color="#f09701"/><stop offset="1" stop-color="#e36001"/></linearGradient><path fill="url(#nLCNwKU0gLpRun69YVzYKc)" d="M44,24c0-8.579-5.412-15.875-13-18.716v37.431C38.588,39.875,44,32.579,44,24z"/></svg>