<svg xmlns="http://www.w3.org/2000/svg" xmlns:xlink="http://www.w3.org/1999/xlink" data-name="Слой 1" viewBox="0 0 48 48"><defs><linearGradient id="cTP_CIYX8BybifclIZf_Rd" x1="24" x2="24" y1="3.457" y2="47.302" gradientUnits="userSpaceOnUse"><stop offset="0" stop-color="#a8e2f7"/><stop offset="1" stop-color="#47c1ff"/></linearGradient><linearGradient id="cTP_CIYX8BybifclIZf_Re" x1="24" x2="24" y1="-6.228" y2="32.151" data-name="Новый образец градиентной зал 2" gradientUnits="userSpaceOnUse"><stop offset="0" stop-color="#2aa4f4"/><stop offset="1" stop-color="#007ad9"/></linearGradient><linearGradient id="cTP_CIYX8BybifclIZf_Ra" x1="13.255" x2="15.688" y1="18.48" y2="20.914" data-name="Безымянный градиент 106" gradientUnits="userSpaceOnUse"><stop offset="0" stop-color="#c26715"/><stop offset=".51" stop-color="#b85515"/><stop offset="1" stop-color="#ad3f16"/></linearGradient><linearGradient id="cTP_CIYX8BybifclIZf_Rf" x1="25.374" x2="23.133" y1="18.852" y2="21.093" xlink:href="#cTP_CIYX8BybifclIZf_Ra"/><linearGradient id="cTP_CIYX8BybifclIZf_Rg" x1="19.5" x2="19.5" y1="11.302" y2="30.328" gradientUnits="userSpaceOnUse"><stop offset="0" stop-color="#d4943b"/><stop offset="1" stop-color="#c2620e"/></linearGradient><linearGradient id="cTP_CIYX8BybifclIZf_Rb" x1="34" x2="34" y1="32.744" y2="26.945" data-name="Безымянный градиент 100" gradientUnits="userSpaceOnUse"><stop offset="0" stop-color="#4c5963"/><stop offset="1" stop-color="#889097"/></linearGradient><linearGradient id="cTP_CIYX8BybifclIZf_Rh" x1="24.509" x2="24.509" y1="32.744" y2="26.945" gradientTransform="matrix(-1 0 0 1 50.518 0)" xlink:href="#cTP_CIYX8BybifclIZf_Rb"/><linearGradient id="cTP_CIYX8BybifclIZf_Ri" x1="30" x2="30" y1="40.717" y2="28.428" xlink:href="#cTP_CIYX8BybifclIZf_Rb"/><linearGradient id="cTP_CIYX8BybifclIZf_Rc" x1="30.75" x2="30.75" y1="34.936" y2="39.358" data-name="Безымянный градиент 11" gradientUnits="userSpaceOnUse"><stop offset="0" stop-color="#a1aab3"/><stop offset="1" stop-color="#8f979e"/></linearGradient><linearGradient id="cTP_CIYX8BybifclIZf_Rj" x1="29.25" x2="29.25" y1="34.936" y2="39.358" xlink:href="#cTP_CIYX8BybifclIZf_Rc"/></defs><path fill="url(#cTP_CIYX8BybifclIZf_Rd)" d="M40,43H8a1.99945,1.99945,0,0,1-2-2V20L24,3,42,20V41A1.99945,1.99945,0,0,1,40,43Z"/><path fill="url(#cTP_CIYX8BybifclIZf_Re)" d="M44.495,19.507,25.326,2.503a1.99929,1.99929,0,0,0-2.652,0L3.505,19.507a.99869.99869,0,0,0-.064,1.43l1.636,1.745a.9995.9995,0,0,0,1.39.067L24,7.428,41.533,22.75a1.0005,1.0005,0,0,0,1.39-.067l1.636-1.745A.99983.99983,0,0,0,44.495,19.507Z"/><path d="M41.53,22.75,24,7.43,6.47,22.75a.98744.98744,0,0,1-.47.23v1a1.94356,1.94356,0,0,0,1.13-.48L24,8.76,40.87,23.5a1.94356,1.94356,0,0,0,1.13.48v-1A.98744.98744,0,0,1,41.53,22.75Z" opacity=".05"/><path d="M41.53,22.75,24,7.43,6.47,22.75a.98744.98744,0,0,1-.47.23v.51a1.47631,1.47631,0,0,0,.8-.37L24,8.09,41.2,23.13a1.5363,1.5363,0,0,0,.8.36v-.51A.98744.98744,0,0,1,41.53,22.75Z" opacity=".07"/><path fill="url(#cTP_CIYX8BybifclIZf_Ra)" d="M13.65239,23.97492,19.25,22.115V19H16a3.05913,3.05913,0,0,0-3,3.115v1.36544A.50347.50347,0,0,0,13.65239,23.97492Z"/><path fill="url(#cTP_CIYX8BybifclIZf_Rf)" d="M25.34761,23.97492,19.75,22.115V19H23a3.05913,3.05913,0,0,1,3,3.115v1.36544A.50346.50346,0,0,1,25.34761,23.97492Z"/><path fill="url(#cTP_CIYX8BybifclIZf_Rg)" d="M24.5,24.77071v-.54605a5.12255,5.12255,0,0,0-7.28576-4.7064A4.755,4.755,0,0,0,14.5,23.72245l0,1.04826a.97117.97117,0,0,1-.29945.71322,3.758,3.758,0,0,0-1.157,3.33435A3.99116,3.99116,0,0,0,16.86871,32H21.6198a4.156,4.156,0,0,0,4.33712-3.18486,3.7578,3.7578,0,0,0-1.15453-3.32847A.97629.97629,0,0,1,24.5,24.77071Z"/><path fill="url(#cTP_CIYX8BybifclIZf_Rb)" d="M32.10525,30.4c-.79649,0,3.18912,3.7584,3.18912,3.7584A7.1372,7.1372,0,0,0,35.29119,28C34.4947,28,33.69822,30.4,32.10525,30.4Z"/><path fill="url(#cTP_CIYX8BybifclIZf_Rh)" d="M27.91194,30.4c.8,0-3.2032,3.7584-3.2032,3.7584A7.10933,7.10933,0,0,1,24.71194,28C25.51194,28,26.31194,30.4,27.91194,30.4Z"/><ellipse cx="30" cy="34.5" fill="url(#cTP_CIYX8BybifclIZf_Ri)" rx="6" ry="5.5"/><rect width="1" height="5" x="19" y="27" fill="#5c2415"/><path fill="#5c2415" d="M21,26.8c0-.55229-.67157-.8-1.5-.8s-1.5.24771-1.5.8a1.5375,1.5375,0,0,0,3,0Z"/><circle cx="16.75" cy="24.749" r=".75" fill="#5c2415"/><circle cx="22.25" cy="24.75" r=".75" fill="#5c2415"/><circle cx="27.75" cy="33.25" r=".75" fill="#5c2415"/><circle cx="32.25" cy="33.25" r=".75" fill="#5c2415"/><circle cx="30.75" cy="36.75" r="1.25" fill="url(#cTP_CIYX8BybifclIZf_Rc)"/><circle cx="29.25" cy="36.75" r="1.25" fill="url(#cTP_CIYX8BybifclIZf_Rj)"/><path fill="#d9414f" d="M31,35.6c0-.41421-.44772-.6-1-.6s-1,.18579-1,.6a1.00556,1.00556,0,0,0,2,0Z"/><g><path d="M23,19a3.05913,3.05913,0,0,1,3,3.115v1.36548A.51028.51028,0,0,1,25.50079,24a.48554.48554,0,0,1-.15319-.02509l-.88294-.29339a5.26411,5.26411,0,0,1,.03534.54315v.546a.97628.97628,0,0,0,.30237.71594,3.75771,3.75771,0,0,1,1.15454,3.32849c-.01221.08222-.04388.15931-.06262.23993a5.90256,5.90256,0,0,0,.81537.84845,6.444,6.444,0,0,1,6.588.004C34.15186,29.20667,34.72424,28,35.2912,28a6.94934,6.94934,0,0,1,.45563,4.92358A5.07263,5.07263,0,0,1,36,34.49994,5.76636,5.76636,0,0,1,30,40a5.76636,5.76636,0,0,1-6-5.50006,5.07261,5.07261,0,0,1,.25379-1.57849,7.4697,7.4697,0,0,1-.24195-1.51654A4.97968,4.97968,0,0,1,21.61981,32h-4.7511a3.99114,3.99114,0,0,1-3.82513-3.18176,3.758,3.758,0,0,1,1.15692-3.33435.971.971,0,0,0,.29944-.7132L14.5,23.72241c0-.01013.0022-.01977.00226-.02991l-.84985.28241A.48554.48554,0,0,1,13.49922,24,.51029.51029,0,0,1,13,23.48047V22.115A3.05913,3.05913,0,0,1,16,19h3.25v.00812c.06646-.00177.13286-.003.19916-.003.10071,0,.20114.0028.30084.01056V19H23m0-1H16a4.06334,4.06334,0,0,0-4,4.115v1.36548a1.51548,1.51548,0,0,0,1.28474,1.504,4.78181,4.78181,0,0,0-1.23015,3.98175A4.96772,4.96772,0,0,0,16.86871,33h4.7511a6.16547,6.16547,0,0,0,1.5752-.20331q.01089.05.02241.09992A6.05255,6.05255,0,0,0,23,34.49994,6.77161,6.77161,0,0,0,30,41a6.77161,6.77161,0,0,0,7-6.50006,6.052,6.052,0,0,0-.21692-1.6012,7.88384,7.88384,0,0,0-.59667-5.34436L35.91045,27H35.2912c-.8085,0-1.32866.64307-1.8317,1.265-.11281.13947-.22729.281-.34377.4151a7.47751,7.47751,0,0,0-6.13234-.04467A4.78556,4.78556,0,0,0,25.714,24.98468,1.51536,1.51536,0,0,0,27,23.48047V22.115A4.06334,4.06334,0,0,0,23,18Z" opacity=".05"/><path d="M23,19a3.05913,3.05913,0,0,1,3,3.115v1.36548A.51028.51028,0,0,1,25.50079,24a.48554.48554,0,0,1-.15319-.02509l-.88294-.29339a5.26411,5.26411,0,0,1,.03534.54315v.546a.97628.97628,0,0,0,.30237.71594,3.75771,3.75771,0,0,1,1.15454,3.32849c-.01221.08222-.04388.15931-.06262.23993a5.90256,5.90256,0,0,0,.81537.84845,6.444,6.444,0,0,1,6.588.004C34.15186,29.20667,34.72424,28,35.2912,28a6.94934,6.94934,0,0,1,.45563,4.92358A5.07263,5.07263,0,0,1,36,34.49994,5.76636,5.76636,0,0,1,30,40a5.76636,5.76636,0,0,1-6-5.50006,5.07261,5.07261,0,0,1,.25379-1.57849,7.4697,7.4697,0,0,1-.24195-1.51654A4.97968,4.97968,0,0,1,21.61981,32h-4.7511a3.99114,3.99114,0,0,1-3.82513-3.18176,3.758,3.758,0,0,1,1.15692-3.33435.971.971,0,0,0,.29944-.7132L14.5,23.72241c0-.01013.0022-.01977.00226-.02991l-.84985.28241A.48554.48554,0,0,1,13.49922,24,.51029.51029,0,0,1,13,23.48047V22.115A3.05913,3.05913,0,0,1,16,19h3.25v.00812c.06646-.00177.13286-.003.19916-.003.10071,0,.20114.0028.30084.01056V19H23m0-.5H16a3.56293,3.56293,0,0,0-3.5,3.615v1.36548A1.0107,1.0107,0,0,0,13.49922,24.5a.98384.98384,0,0,0,.31078-.0506l.19077-.06335-.00083.38458a.47184.47184,0,0,1-.14008.34723,4.28488,4.28488,0,0,0-1.31078,3.77435A4.51143,4.51143,0,0,0,16.86871,32.5h4.7511a5.60348,5.60348,0,0,0,1.9649-.35156c.03742.25433.08733.508.14948.75964A5.56465,5.56465,0,0,0,23.5,34.49994,6.2722,6.2722,0,0,0,30,40.5a6.2722,6.2722,0,0,0,6.5-6.00006,5.56478,5.56478,0,0,0-.23364-1.58978,7.41123,7.41123,0,0,0-.52755-5.133l-.138-.27716H35.2912c-.56984,0-.97445.50024-1.443,1.07947a9.21358,9.21358,0,0,1-.61943.71466,6.95986,6.95986,0,0,0-6.452-.00263c-.10642-.10449-.21638-.22284-.333-.35839l.00769-.04456A4.28534,4.28534,0,0,0,25.14343,25.121.47733.47733,0,0,1,25,24.77069v-.3844l.18993.06311a.98423.98423,0,0,0,.31086.0506A1.01069,1.01069,0,0,0,26.5,23.48047V22.115A3.56293,3.56293,0,0,0,23,18.5Z" opacity=".07"/></g></svg>