<svg xmlns="http://www.w3.org/2000/svg" viewBox="0 0 48 48"><linearGradient id="1wmFsIvERi_gxLrPgEp1La" x1="9.076" x2="39.718" y1="9.076" y2="39.718" gradientUnits="userSpaceOnUse"><stop offset="0" stop-color="#ffd869"/><stop offset="1" stop-color="#fec52b"/></linearGradient><path fill="url(#1wmFsIvERi_gxLrPgEp1La)" d="M24,4C12.954,4,4,12.954,4,24c0,11.046,8.954,20,20,20s20-8.954,20-20	C44,12.954,35.046,4,24,4z M39.862,22H26V8.138C33.234,9.042,38.958,14.766,39.862,22z M22,8.138V22H8.138	C9.042,14.766,14.766,9.042,22,8.138z M8.138,26H22v13.862C14.766,38.958,9.042,33.234,8.138,26z M26,39.862V26h13.862	C38.958,33.234,33.234,38.958,26,39.862z"/></svg>