<svg xmlns="http://www.w3.org/2000/svg" viewBox="0 0 48 48"><linearGradient id="tfrYlycdvLg84Lp3Gdz1Za" x1="17" x2="17" y1="29.027" y2="30.972" gradientUnits="userSpaceOnUse"><stop offset="0" stop-color="#a1aab3"/><stop offset="1" stop-color="#8f979e"/></linearGradient><path fill="url(#tfrYlycdvLg84Lp3Gdz1Za)" d="M11,32H9V10c0-4.411,3.589-8,8-8s8,3.589,8,8v1h-2v-1c0-3.309-2.691-6-6-6s-6,2.691-6,6V32z"/><path fill="#50e6ff" d="M30,13H18v-0.412C18,10.053,20.571,8,24,8l0,0c3.429,0,6,2.055,6,4.588L30,13z"/><path fill="#199be2" d="M30.5,15h-13c-0.276,0-0.5-0.224-0.5-0.5V13c0-0.276,0.224-0.5,0.5-0.5h13c0.276,0,0.5,0.224,0.5,0.5	v1.5C31,14.776,30.776,15,30.5,15z"/><linearGradient id="tfrYlycdvLg84Lp3Gdz1Zb" x1="24" x2="24" y1="12.065" y2="39.66" gradientUnits="userSpaceOnUse"><stop offset="0" stop-color="#2aa4f4"/><stop offset=".595" stop-color="#0f80e3"/><stop offset="1" stop-color="#006dd9"/></linearGradient><path fill="url(#tfrYlycdvLg84Lp3Gdz1Zb)" d="M18,18c-0.552,0-1-0.448-1-1s0.448-1,1-1	s1,0.448,1,1S18.552,18,18,18z M23,18c0-0.552-0.448-1-1-1s-1,0.448-1,1s0.448,1,1,1S23,18.552,23,18z M31,18c0-0.552-0.448-1-1-1	s-1,0.448-1,1s0.448,1,1,1S31,18.552,31,18z M19,21c0-0.552-0.448-1-1-1s-1,0.448-1,1s0.448,1,1,1S19,21.552,19,21z M23,22	c0-0.552-0.448-1-1-1s-1,0.448-1,1s0.448,1,1,1S23,22.552,23,22z M31,22c0-0.552-0.448-1-1-1s-1,0.448-1,1s0.448,1,1,1	S31,22.552,31,22z M19,25c0-0.552-0.448-1-1-1s-1,0.448-1,1s0.448,1,1,1S19,25.552,19,25z M23,26c0-0.552-0.448-1-1-1s-1,0.448-1,1	s0.448,1,1,1S23,26.552,23,26z M31,26c0-0.552-0.448-1-1-1s-1,0.448-1,1s0.448,1,1,1S31,26.552,31,26z M19,29c0-0.552-0.448-1-1-1	s-1,0.448-1,1s0.448,1,1,1S19,29.552,19,29z M23,30c0-0.552-0.448-1-1-1s-1,0.448-1,1s0.448,1,1,1S23,30.552,23,30z M23,34	c0-0.552-0.448-1-1-1s-1,0.448-1,1s0.448,1,1,1S23,34.552,23,34z M27,17c0-0.552-0.448-1-1-1s-1,0.448-1,1s0.448,1,1,1	S27,17.552,27,17z M27,21c0-0.552-0.448-1-1-1s-1,0.448-1,1s0.448,1,1,1S27,21.552,27,21z M27,25c0-0.552-0.448-1-1-1s-1,0.448-1,1	s0.448,1,1,1S27,25.552,27,25z M27,29c0-0.552-0.448-1-1-1s-1,0.448-1,1s0.448,1,1,1S27,29.552,27,29z M27,33c0-0.552-0.448-1-1-1	s-1,0.448-1,1s0.448,1,1,1S27,33.552,27,33z M31,30c0-0.552-0.448-1-1-1s-1,0.448-1,1s0.448,1,1,1S31,30.552,31,30z"/><path fill="#50e6ff" d="M32,43H16c-5.523,0-10-4.477-10-10v-1.82c0-0.618,0.555-1.088,1.164-0.986l7.69,1.615	c0.65,0.108,1.2,0.526,1.479,1.123C17.009,34.379,18.932,37,24,37s6.991-2.621,7.667-4.068c0.279-0.597,0.829-1.015,1.479-1.123	l7.69-1.615C41.445,30.092,42,30.563,42,31.18V33C42,38.523,37.523,43,32,43z"/></svg>