<svg xmlns="http://www.w3.org/2000/svg" viewBox="0 0 48 48"><linearGradient id="YOeleuzcctOWyzpUD_AdFa" x1="20" x2="20" y1="6.094" y2="34.03" gradientUnits="userSpaceOnUse"><stop offset="0" stop-color="#0d61a9"/><stop offset="1" stop-color="#16528c"/></linearGradient><path fill="url(#YOeleuzcctOWyzpUD_AdFa)" d="M32,34H8c-1.1,0-2-0.9-2-2V8c0-1.1,0.9-2,2-2h24c1.1,0,2,0.9,2,2v24C34,33.1,33.1,34,32,34z"/><linearGradient id="YOeleuzcctOWyzpUD_AdFb" x1="24" x2="24" y1="10.094" y2="38.03" gradientUnits="userSpaceOnUse"><stop offset="0" stop-color="#199ae0"/><stop offset="1" stop-color="#0782d8"/></linearGradient><path fill="url(#YOeleuzcctOWyzpUD_AdFb)" d="M36,38H12c-1.1,0-2-0.9-2-2V12c0-1.1,0.9-2,2-2h24c1.1,0,2,0.9,2,2v24C38,37.1,37.1,38,36,38z"/><linearGradient id="YOeleuzcctOWyzpUD_AdFc" x1="28" x2="28" y1="14.094" y2="42.03" gradientUnits="userSpaceOnUse"><stop offset="0" stop-color="#32bdef"/><stop offset="1" stop-color="#1ea2e4"/></linearGradient><path fill="url(#YOeleuzcctOWyzpUD_AdFc)" d="M40,42H16c-1.1,0-2-0.9-2-2V16c0-1.1,0.9-2,2-2h24c1.1,0,2,0.9,2,2v24C42,41.1,41.1,42,40,42z"/><path d="M30.094,25.251L25.124,24c-0.679-0.171-1.295,0.445-1.124,1.124l1.252,4.97L37.158,42H40	c1.1,0,2-0.9,2-2v-2.843L30.094,25.251z" opacity=".05"/><path d="M29.838,25.702l-4.263-1.073c-0.571-0.144-1.09,0.374-0.946,0.946l1.074,4.264L37.865,42H40	c1.1,0,2-0.9,2-2v-2.136L29.838,25.702z" opacity=".07"/><path fill="#c94f60" d="M45.538,47.748l2.209-2.21c0.337-0.336,0.337-0.883,0-1.22l-1.041-1.04l-3.428,3.428l1.04,1.041	C44.655,48.084,45.201,48.084,45.538,47.748"/><path fill="#f0f0f0" d="M29.582,26.153L25,25l1.154,4.582l3.975,0.481L29.582,26.153z"/><path fill="#edbe00" d="M40.355,43.783l-14.2-14.2l3.429-3.429l14.2,14.2L40.355,43.783z"/><linearGradient id="YOeleuzcctOWyzpUD_AdFd" x1="44.529" x2="44.529" y1="28.509" y2="34.821" gradientTransform="rotate(90 38 37)" gradientUnits="userSpaceOnUse"><stop offset="0" stop-color="#dedede"/><stop offset="1" stop-color="#d6d6d6"/></linearGradient><path fill="url(#YOeleuzcctOWyzpUD_AdFd)" d="M43.783,40.351l2.926,2.924l-3.428,3.431l-2.926-2.924L43.783,40.351z"/><path fill="#787878" d="M27.317,25.584L25,25l0.584,2.316L27.317,25.584z"/></svg>