<svg xmlns="http://www.w3.org/2000/svg" data-name="Слой 1" viewBox="0 0 48 48"><defs><linearGradient id="WN5Ww2rAssjxxo0~BHYu2a" x1="14.926" x2="29.72" y1="4.338" y2="44.984" data-name="Безымянный градиент 306" gradientUnits="userSpaceOnUse"><stop offset="0" stop-color="#f44f5a"/><stop offset=".443" stop-color="#ee3d4a"/><stop offset="1" stop-color="#e52030"/></linearGradient></defs><path fill="#33c481" d="M14.381,10.284c-3.692-3.685-1.988-8.788-1.988-8.788L23.754,12.835C23.753,12.835,18.073,13.969,14.381,10.284Z"/><path fill="#21a366" d="M12.393,1.496A8.40162,8.40162,0,0,1,21.198,3.48c3.977,3.968,2.556,9.355,2.556,9.355Z"/><path fill="#c28200" d="M24,13a.99909.99909,0,0,1-1-1c0-6.341,3.158-9.572,3.293-9.707a.99985.99985,0,1,1,1.414,1.414C27.684,3.731,25,6.533,25,12A.99909.99909,0,0,1,24,13Z"/><path fill="url(#WN5Ww2rAssjxxo0~BHYu2a)" d="M39,27.0023a6.93881,6.93881,0,0,1,.66815-2.97756.97043.97043,0,0,0-.65878-1.32089,6.99477,6.99477,0,0,1-3.1213-11.48709.99781.99781,0,0,0-.42171-1.60847A10.14666,10.14666,0,0,0,32,9c-4,0-6,2.466-8,2.466S20,9,16,9C9,9,4,16,4,23c0,9,7,20,15.5,20,1.249,0,3.5-.76,4.5-.76s3.251.76,4.5.76c5.33309,0,10.07468-4.33076,12.86826-9.78049a.978.978,0,0,0-.1874-1.14915A6.96783,6.96783,0,0,1,39,27.0023Z"/></svg>