<svg xmlns="http://www.w3.org/2000/svg" viewBox="0 0 48 48"><linearGradient id="pMc4wNm0GAtHvXZKWku~ia" x1="23" x2="25" y1="20.5" y2="20.5" gradientUnits="userSpaceOnUse"><stop offset="0" stop-color="#92a3b0"/><stop offset=".015" stop-color="#a3b5c4"/><stop offset=".032" stop-color="#aec2d1"/><stop offset=".046" stop-color="#b2c6d6"/></linearGradient><path fill="url(#pMc4wNm0GAtHvXZKWku~ia)" d="M24,36c-0.553,0-1-0.447-1-1V6c0-0.553,0.447-1,1-1s1,0.447,1,1v29C25,35.553,24.553,36,24,36	z"/><linearGradient id="pMc4wNm0GAtHvXZKWku~ib" x1="28.687" x2="39.131" y1="-568.93" y2="-589.25" gradientTransform="matrix(1 -.00096 -.00096 -1 -.073 -562.369)" gradientUnits="userSpaceOnUse"><stop offset="0" stop-color="#c965eb"/><stop offset="1" stop-color="#c767e5"/></linearGradient><path fill="url(#pMc4wNm0GAtHvXZKWku~ib)" d="M44,23.981l-5,0.038C39,24.019,30,9,23.981,9C41,9,44,23.981,44,23.981z"/><linearGradient id="pMc4wNm0GAtHvXZKWku~ic" x1="31.731" x2="31.731" y1="-587.93" y2="-571.85" gradientTransform="matrix(1 0 0 -1 0 -562)" gradientUnits="userSpaceOnUse"><stop offset="0" stop-color="#ae4cd5"/><stop offset="1" stop-color="#ac4ad5"/></linearGradient><path fill="url(#pMc4wNm0GAtHvXZKWku~ic)" d="M40,24c0,0-2.239,2-5,2s-5-2-5-2S21.239,9,24,9C35,9,40,21,40,24z"/><linearGradient id="pMc4wNm0GAtHvXZKWku~id" x1="-561.851" x2="-551.407" y1="-568.362" y2="-588.682" gradientTransform="rotate(-180 -271.368 -281.054)" gradientUnits="userSpaceOnUse"><stop offset="0" stop-color="#c965eb"/><stop offset="1" stop-color="#c767e5"/></linearGradient><path fill="url(#pMc4wNm0GAtHvXZKWku~id)" d="M4,23.981l5,0.038C9,24.019,18,9,24.019,9C7,9,4,23.981,4,23.981z"/><linearGradient id="pMc4wNm0GAtHvXZKWku~ie" x1="-558.807" x2="-558.807" y1="-587.93" y2="-571.85" gradientTransform="rotate(180 -271.27 -281)" gradientUnits="userSpaceOnUse"><stop offset="0" stop-color="#ae4cd5"/><stop offset="1" stop-color="#ac4ad5"/></linearGradient><path fill="url(#pMc4wNm0GAtHvXZKWku~ie)" d="M8,24c0,0,2.239,2,5,2s5-2,5-2s8.761-15,6-15C13,9,8,21,8,24z"/><linearGradient id="pMc4wNm0GAtHvXZKWku~if" x1="13" x2="13" y1="-587.984" y2="-584.2" gradientTransform="matrix(1 0 0 -1 0 -562)" gradientUnits="userSpaceOnUse"><stop offset="0" stop-color="#ae4cd5"/><stop offset="1" stop-color="#ac4ad5"/></linearGradient><path fill="url(#pMc4wNm0GAtHvXZKWku~if)" d="M18,24c0,0-2.239,2-5,2s-5-2-5-2s2.239-2,5-2S18,24,18,24z"/><linearGradient id="pMc4wNm0GAtHvXZKWku~ig" x1="-1032.5" x2="-1032.5" y1="-586.992" y2="-585.1" gradientTransform="matrix(-.4 0 0 -1 -371 -562)" gradientUnits="userSpaceOnUse"><stop offset="0" stop-color="#c965eb"/><stop offset="1" stop-color="#c767e5"/></linearGradient><path fill="url(#pMc4wNm0GAtHvXZKWku~ig)" d="M40,24c0,0,0.895,1,2,1s2-1,2-1s-0.895-1-2-1S40,24,40,24z"/><linearGradient id="pMc4wNm0GAtHvXZKWku~ih" x1="-942.5" x2="-942.5" y1="-586.992" y2="-585.1" gradientTransform="matrix(-.4 0 0 -1 -371 -562)" gradientUnits="userSpaceOnUse"><stop offset="0" stop-color="#c965eb"/><stop offset="1" stop-color="#c767e5"/></linearGradient><path fill="url(#pMc4wNm0GAtHvXZKWku~ih)" d="M4,24c0,0,0.895,1,2,1s2-1,2-1s-0.895-1-2-1S4,24,4,24z"/><linearGradient id="pMc4wNm0GAtHvXZKWku~ii" x1="24" x2="24" y1="-587.93" y2="-571.85" gradientTransform="matrix(1 0 0 -1 0 -562)" gradientUnits="userSpaceOnUse"><stop offset="0" stop-color="#c965eb"/><stop offset="1" stop-color="#c767e5"/></linearGradient><path fill="url(#pMc4wNm0GAtHvXZKWku~ii)" d="M30,24c0,0-2.686,2-6,2s-6-2-6-2c0-14,6-15,6-15S30,10,30,24z"/><path fill="#64717c" d="M20.631,43c-2.009,0-3.752-1.36-4.238-3.31l-0.362-1.447c-0.135-0.536,0.191-1.079,0.727-1.213	c0.54-0.137,1.079,0.191,1.213,0.727l0.362,1.448C18.597,40.262,19.542,41,20.631,41C21.938,41,23,39.938,23,38.631V35	c0-0.553,0.447-1,1-1s1,0.447,1,1v3.631C25,41.04,23.04,43,20.631,43z"/><linearGradient id="pMc4wNm0GAtHvXZKWku~ij" x1="6.068" x2="6.721" y1="7.548" y2="12.051" gradientUnits="userSpaceOnUse"><stop offset="0" stop-color="#2aa4f4"/><stop offset=".595" stop-color="#0f80e3"/><stop offset="1" stop-color="#006dd9"/></linearGradient><path fill="url(#pMc4wNm0GAtHvXZKWku~ij)" d="M8,10.5C8,11.328,7.328,12,6.5,12S5,11.328,5,10.5s1.5-3,1.5-3S8,9.672,8,10.5z"/><linearGradient id="pMc4wNm0GAtHvXZKWku~ik" x1="42.068" x2="42.721" y1="7.548" y2="12.051" gradientUnits="userSpaceOnUse"><stop offset="0" stop-color="#2aa4f4"/><stop offset=".595" stop-color="#0f80e3"/><stop offset="1" stop-color="#006dd9"/></linearGradient><path fill="url(#pMc4wNm0GAtHvXZKWku~ik)" d="M44,10.5c0,0.828-0.672,1.5-1.5,1.5S41,11.328,41,10.5s1.5-3,1.5-3S44,9.672,44,10.5z"/><linearGradient id="pMc4wNm0GAtHvXZKWku~il" x1="34.712" x2="35.148" y1="4.032" y2="7.034" gradientUnits="userSpaceOnUse"><stop offset="0" stop-color="#2aa4f4"/><stop offset=".595" stop-color="#0f80e3"/><stop offset="1" stop-color="#006dd9"/></linearGradient><path fill="url(#pMc4wNm0GAtHvXZKWku~il)" d="M36,6c0,0.552-0.448,1-1,1s-1-0.448-1-1s1-2,1-2S36,5.448,36,6z"/><linearGradient id="pMc4wNm0GAtHvXZKWku~im" x1="13.712" x2="14.148" y1="4.032" y2="7.034" gradientUnits="userSpaceOnUse"><stop offset="0" stop-color="#2aa4f4"/><stop offset=".595" stop-color="#0f80e3"/><stop offset="1" stop-color="#006dd9"/></linearGradient><path fill="url(#pMc4wNm0GAtHvXZKWku~im)" d="M15,6c0,0.552-0.448,1-1,1s-1-0.448-1-1s1-2,1-2S15,5.448,15,6z"/></svg>