<svg xmlns="http://www.w3.org/2000/svg" viewBox="0 0 48 48"><linearGradient id="cMP6mGZxfhQSJvPXn12Hba" x1="17.338" x2="43.505" y1="-73.201" y2="-123.474" gradientTransform="matrix(1 0 0 -1 0 -62)" gradientUnits="userSpaceOnUse"><stop offset="0" stop-color="#dfe9f2"/><stop offset=".998" stop-color="#9ea7b0"/></linearGradient><path fill="url(#cMP6mGZxfhQSJvPXn12Hba)" d="M44,24c0-11.045-8.955-20-20-20S4,12.955,4,24s8.955,20,20,20S44,35.045,44,24z"/><linearGradient id="cMP6mGZxfhQSJvPXn12Hbb" x1="10.516" x2="36.187" y1="11.244" y2="35.549" gradientUnits="userSpaceOnUse"><stop offset="0" stop-color="#2196f3"/><stop offset="1" stop-color="#0d61a9"/></linearGradient><path fill="url(#cMP6mGZxfhQSJvPXn12Hbb)" d="M39.973,12C36.323,7.15,30.537,4,24,4c-6.17,0-11.683,2.797-15.352,7.189L10,12H39.973z M39.973,36H10l-1.352,0.811C12.317,41.203,17.83,44,24,44C30.537,44,36.323,40.85,39.973,36z M30,24l-6.667,4h20.265	C43.861,26.707,44,25.37,44,24s-0.139-2.707-0.402-4H23.333L30,24z"/><linearGradient id="cMP6mGZxfhQSJvPXn12Hbc" x1="3.467" x2="19.84" y1="10.846" y2="31.043" gradientUnits="userSpaceOnUse"><stop offset=".008" stop-color="#f44f5a"/><stop offset=".501" stop-color="#ee3d4a"/><stop offset="1" stop-color="#e52030"/></linearGradient><path fill="url(#cMP6mGZxfhQSJvPXn12Hbc)" d="M23.333,28L30,24l-6.667-4L10,12l-1.352-0.811C5.749,14.659,4,19.124,4,24	s1.749,9.341,4.648,12.811L10,36L23.333,28z"/><path fill="#f0f4f7" d="M13,19l1.117,3.723h3.613l-2.922,1.84L15.926,28L13,25.875L10.074,28l1.117-3.438l-2.922-1.84h3.613	L13,19z"/></svg>