<svg xmlns="http://www.w3.org/2000/svg" viewBox="0 0 48 48"><linearGradient id="hMzy_rK~4J9uZ5i7W8rZAa" x1="7.788" x2="37.405" y1="5.862" y2="35.65" gradientUnits="userSpaceOnUse"><stop offset="0" stop-color="#5c65d6"/><stop offset=".999" stop-color="#464eb0"/></linearGradient><path fill="url(#hMzy_rK~4J9uZ5i7W8rZAa)" d="M46,29.412V17.096c0-0.064-0.006-0.127-0.017-0.19l-0.155-0.855	c-0.05-0.273-0.205-0.516-0.431-0.676l-0.77-0.544c-0.231-0.163-0.387-0.411-0.434-0.69l-0.102-0.603	c-0.057-0.338,0.053-0.683,0.296-0.926L45,12v-1H24.053c-0.035,0-0.07-0.002-0.105-0.005L5.072,9.107	C4.483,9.048,3.96,9.484,3.911,10.074l-1.818,21.82c-0.05,0.603,0.413,1.125,1.017,1.147L29,34h5l0.268,0.714	c0.07,0.187,0.191,0.35,0.35,0.471l1.895,1.444c0.301,0.23,0.702,0.281,1.052,0.135l0.664-0.278c0.07-0.029,0.144-0.051,0.219-0.065	l1.84-0.336c0.294-0.054,0.597,0.019,0.835,0.201l0.457,0.35c0.119,0.091,0.255,0.155,0.401,0.19l1.269,0.3l0.75,0.5L45,39h1	l-0.825-1.649c-0.113-0.226-0.142-0.486-0.08-0.731l0.759-3.037c0.09-0.361-0.016-0.743-0.279-1.007L45.31,32.31	c-0.199-0.199-0.31-0.468-0.31-0.75v-0.348c0-0.365,0.188-0.705,0.498-0.899l0.004-0.002C45.812,30.118,46,29.778,46,29.412z"/></svg>