<svg xmlns="http://www.w3.org/2000/svg" id="Layer_1" x="0" y="0" version="1.1" viewBox="0 0 48 48" xml:space="preserve"><linearGradient id="SVGID_1_" x1="21.516" x2="45.592" y1="1049.638" y2="1085.673" gradientTransform="translate(0 -1032)" gradientUnits="userSpaceOnUse"><stop offset="0" stop-color="#5059c9"/><stop offset=".999" stop-color="#4750b3"/></linearGradient><path fill="url(#SVGID_1_)" d="M9,26l36-14.3V38c0,1.1-0.9,2-2,2H9V26z"/><linearGradient id="SVGID_2_" x1="1.408" x2="36.331" y1="1056.41" y2="1078.164" gradientTransform="translate(0 -1032)" gradientUnits="userSpaceOnUse"><stop offset="0" stop-color="#5961c3"/><stop offset="1" stop-color="#3a41ac"/></linearGradient><path fill="url(#SVGID_2_)" d="M3,11.7V38c0,1.1,0.9,2,2,2h38c0.5,0,0.9-0.2,1.3-0.5L3,11.7z"/><path d="M3,11h42v1.7L27.7,26.1c-2.2,1.7-5.2,1.7-7.4,0L3,12.7V11z" opacity=".05"/><path d="M3,10.5h42v1.7L27,25.3c-1.8,1.3-4.2,1.3-5.9,0L3,12.2V10.5z" opacity=".07"/><path fill="#7b83eb" d="M5,8h38c1.1,0,2,0.9,2,2v1.7L26.3,24.5c-1.4,0.9-3.1,0.9-4.5,0L3,11.7V10C3,8.9,3.9,8,5,8z"/><path d="M43,40c0.1,0,0.3,0,0.4,0c0.1,0,0.2,0,0.2-0.1c0,0,0.1,0,0.1,0c0.1,0,0.2-0.1,0.3-0.1c0,0,0,0,0,0	c0.6-0.3,1-1,1-1.7v-1l-8.9-5.7C35.8,31.1,35.4,31,35,31c-0.3,0-0.7,0.1-1,0.2c-0.6,0.4-1,1-1,1.8v7H43z" opacity=".05"/><path d="M43,40c0.1,0,0.3,0,0.4,0c0.1,0,0.2,0,0.2-0.1c0,0,0.1,0,0.1,0c0.1,0,0.2-0.1,0.3-0.1c0,0,0,0,0,0	c0.6-0.3,1-1,1-1.7v-0.4l-9.2-5.9c-0.2-0.2-0.5-0.2-0.8-0.2c-0.3,0-0.5,0.1-0.7,0.2c-0.5,0.3-0.8,0.8-0.8,1.3v7H43z" opacity=".07"/><linearGradient id="SVGID_3_" x1="38.716" x2="41.041" y1="494.133" y2="478.972" gradientTransform="matrix(1 0 0 -1 0 526)" gradientUnits="userSpaceOnUse"><stop offset="0" stop-color="#2aa4f4"/><stop offset="1" stop-color="#007ad9"/></linearGradient><path fill="url(#SVGID_3_)" d="M46.5,39.2l-11-7c-0.3-0.2-0.7-0.2-1,0C34.2,32.3,34,32.6,34,33v14c0,0.4,0.2,0.7,0.5,0.9	C34.7,48,34.8,48,35,48c0.2,0,0.4-0.1,0.5-0.2l11-7c0.3-0.2,0.5-0.5,0.5-0.8S46.8,39.3,46.5,39.2z"/></svg>