<svg xmlns="http://www.w3.org/2000/svg" viewBox="0 0 48 48"><linearGradient id="BDUQ6MOyFNr8FAOyTwnM9a" x1="-.688" x2="54.844" y1=".845" y2="52.93" gradientUnits="userSpaceOnUse"><stop offset="0" stop-color="#fed100"/><stop offset="1" stop-color="#e36001"/></linearGradient><path fill="url(#BDUQ6MOyFNr8FAOyTwnM9a)" d="M42,40c0,1.105-0.895,2-2,2H8c-1.105,0-2-0.895-2-2V8c0-1.105,0.895-2,2-2h32	c1.105,0,2,0.895,2,2V40z"/><path d="M29.363,39c-0.823,0-1.594-0.317-2.17-0.893L24,34.914l-3.193,3.193C20.256,38.658,19.411,39,18.6,39	c-0.873,0-1.615-0.3-2.207-0.893c-1.194-1.34-1.186-3.229,0-4.414l2.808-2.808c-0.92-0.337-1.833-0.784-2.726-1.333	c-1.454-0.873-1.92-2.788-1.033-4.266c0.561-0.936,1.552-1.494,2.651-1.494c0.569,0,1.13,0.156,1.622,0.451	c1.274,0.791,2.754,1.207,4.285,1.207s3.008-0.415,4.272-1.199c0.502-0.301,1.065-0.458,1.634-0.458c1.099,0,2.09,0.558,2.651,1.493	c0.887,1.479,0.418,3.396-1.043,4.272c-0.812,0.542-1.735,1.002-2.697,1.346l2.79,2.79c1.194,1.341,1.186,3.229,0,4.414	C30.954,38.69,30.165,39,29.363,39z M24,25c-4.486,0-8-3.514-8-8s3.514-8,8-8s8,3.514,8,8S28.486,25,24,25z M24,15	c-1.14,0-2,0.86-2,2s0.86,2,2,2s2-0.86,2-2S25.14,15,24,15z" opacity=".05"/><path d="M29.363,38.5c-0.69,0-1.335-0.265-1.816-0.747L24,34.207l-3.546,3.546	c-0.46,0.46-1.171,0.747-1.854,0.747c-0.734,0-1.358-0.251-1.854-0.747c-1.004-1.127-0.995-2.712,0-3.707l3.38-3.38	c-1.13-0.337-2.286-0.861-3.389-1.54c-1.221-0.732-1.611-2.341-0.867-3.583c0.47-0.783,1.301-1.25,2.222-1.25	c0.479,0,0.951,0.131,1.364,0.379c1.35,0.838,2.918,1.278,4.542,1.278s3.192-0.44,4.536-1.274c0.42-0.252,0.892-0.383,1.371-0.383	c0.921,0,1.752,0.468,2.222,1.25c0.745,1.242,0.354,2.851-0.872,3.586c-1.019,0.68-2.175,1.209-3.374,1.548l3.37,3.37	c1.004,1.128,0.996,2.712,0,3.707C30.705,38.242,30.042,38.5,29.363,38.5z M24,24.5c-4.206,0-7.5-3.294-7.5-7.5s3.294-7.5,7.5-7.5	s7.5,3.294,7.5,7.5S28.206,24.5,24,24.5z M24,14.5c-1.425,0-2.5,1.075-2.5,2.5s1.075,2.5,2.5,2.5s2.5-1.075,2.5-2.5	S25.425,14.5,24,14.5z" opacity=".07"/><path fill="#fff" d="M26.9,30.4c1.5-0.3,2.9-0.9,4.1-1.7c1-0.6,1.3-1.9,0.7-2.9c-0.6-1-1.9-1.3-2.9-0.7	c-2.9,1.8-6.7,1.8-9.6,0c-1-0.6-2.3-0.3-2.9,0.7S16,28.1,17,28.7c1.3,0.8,2.7,1.4,4.1,1.7l-4,4c-0.8,0.8-0.8,2.1,0,3	c0.4,0.4,0.9,0.6,1.5,0.6c0.5,0,1.1-0.2,1.5-0.6l3.9-3.9l3.9,3.9c0.8,0.8,2.1,0.8,3,0c0.8-0.8,0.8-2.1,0-3L26.9,30.4z M24,10	c-3.9,0-7,3.1-7,7s3.1,7,7,7s7-3.1,7-7S27.9,10,24,10z M24,20c-1.7,0-3-1.3-3-3s1.3-3,3-3s3,1.3,3,3S25.7,20,24,20z"/></svg>