<svg xmlns="http://www.w3.org/2000/svg" viewBox="0 0 48 48"><linearGradient id="zK9A36nuQCSPwrxlfvE_Da" x1="24" x2="24" y1="519.879" y2="483.961" gradientTransform="matrix(1 0 0 -1 0 526)" gradientUnits="userSpaceOnUse"><stop offset="0" stop-color="#f44f5a"/><stop offset=".443" stop-color="#ee3d4a"/><stop offset="1" stop-color="#e52030"/></linearGradient><path fill="url(#zK9A36nuQCSPwrxlfvE_Da)" d="M40,42H8c-1.1,0-2-0.9-2-2V8c0-1.1,0.9-2,2-2h32c1.1,0,2,0.9,2,2v32C42,41.1,41.1,42,40,42z"/><linearGradient id="zK9A36nuQCSPwrxlfvE_Db" x1="12.043" x2="36.196" y1="517.57" y2="485.594" gradientTransform="matrix(1 0 0 -1 0 526)" gradientUnits="userSpaceOnUse"><stop offset="0" stop-color="#fede00"/><stop offset=".519" stop-color="#fecc00"/><stop offset="1" stop-color="#ffb700"/></linearGradient><path fill="url(#zK9A36nuQCSPwrxlfvE_Db)" d="M23.47,11.903l-3.181,7.135l-7.768,0.82c-0.5,0.053-0.701,0.672-0.328,1.009l5.803,5.229	l-1.62,7.643c-0.104,0.492,0.423,0.875,0.858,0.623L24,30.459l6.767,3.903c0.435,0.251,0.962-0.132,0.858-0.623l-1.62-7.643	l5.803-5.229c0.373-0.336,0.172-0.956-0.328-1.009l-7.768-0.82l-3.181-7.135C24.326,11.444,23.674,11.444,23.47,11.903z"/></svg>