<svg xmlns="http://www.w3.org/2000/svg" viewBox="0 0 48 48"><linearGradient id="LoH6szQjhJsiorI7EvkHva" x1="24" x2="24" y1="2.978" y2="12.658" gradientUnits="userSpaceOnUse"><stop offset="0" stop-color="#636363"/><stop offset="1" stop-color="#444"/></linearGradient><path fill="url(#LoH6szQjhJsiorI7EvkHva)" d="M32,15h-2v-4c0-3.309-2.691-6-6-6s-6,2.691-6,6v4h-2v-4c0-4.411,3.589-8,8-8s8,3.589,8,8V15 z"/><linearGradient id="LoH6szQjhJsiorI7EvkHvb" x1="7.041" x2="8.139" y1="27.24" y2="39.917" gradientUnits="userSpaceOnUse"><stop offset=".404" stop-color="#636363"/><stop offset="1" stop-color="#444"/></linearGradient><path fill="url(#LoH6szQjhJsiorI7EvkHvb)" d="M10,40H7c-1.105,0-2-0.895-2-2v-9c0-1.105,0.895-2,2-2h3V40z"/><linearGradient id="LoH6szQjhJsiorI7EvkHvc" x1="40.074" x2="40.776" y1="27.102" y2="39.232" gradientUnits="userSpaceOnUse"><stop offset=".404" stop-color="#636363"/><stop offset="1" stop-color="#444"/></linearGradient><path fill="url(#LoH6szQjhJsiorI7EvkHvc)" d="M41,40h-3V27h3c1.105,0,2,0.895,2,2v9C43,39.105,42.105,40,41,40z"/><linearGradient id="LoH6szQjhJsiorI7EvkHvd" x1="21.89" x2="25.024" y1="8.207" y2="44.612" gradientUnits="userSpaceOnUse"><stop offset="0" stop-color="#ffda1c"/><stop offset="1" stop-color="#feb705"/></linearGradient><path fill="url(#LoH6szQjhJsiorI7EvkHvd)" d="M37,45H11c-1.105,0-2-0.895-2-2V23c0-8.284,6.716-15,15-15h0c8.284,0,15,6.716,15,15v20 C39,44.105,38.105,45,37,45z"/><linearGradient id="LoH6szQjhJsiorI7EvkHve" x1="24" x2="24" y1="11.067" y2="24.016" gradientUnits="userSpaceOnUse"><stop offset="0" stop-color="#636363"/><stop offset="1" stop-color="#444"/></linearGradient><path fill="url(#LoH6szQjhJsiorI7EvkHve)" d="M35,24c-0.552,0-1-0.448-1-1c0-5.514-4.486-10-10-10s-10,4.486-10,10c0,0.552-0.448,1-1,1 s-1-0.448-1-1c0-6.617,5.383-12,12-12s12,5.383,12,12C36,23.552,35.552,24,35,24z"/><linearGradient id="LoH6szQjhJsiorI7EvkHvf" x1="23.334" x2="24.81" y1="23.629" y2="46.615" gradientUnits="userSpaceOnUse"><stop offset=".1" stop-color="#636363"/><stop offset=".5" stop-color="#616161"/><stop offset=".666" stop-color="#5a5a5a"/><stop offset=".789" stop-color="#4e4e4e"/><stop offset=".85" stop-color="#444"/></linearGradient><path fill="url(#LoH6szQjhJsiorI7EvkHvf)" d="M32,41H16c-1.105,0-2-0.895-2-2V29c0-1.105,0.895-2,2-2h16c1.105,0,2,0.895,2,2v10 C34,40.105,33.105,41,32,41z"/><linearGradient id="LoH6szQjhJsiorI7EvkHvg" x1="24" x2="24" y1="25.983" y2="31.707" gradientUnits="userSpaceOnUse"><stop offset="0" stop-color="#636363"/><stop offset="1" stop-color="#444"/></linearGradient><path fill="url(#LoH6szQjhJsiorI7EvkHvg)" d="M31,32H17c-1.657,0-3-1.343-3-3v0c0-1.105,0.895-2,2-2h16c1.105,0,2,0.895,2,2v0 C34,30.657,32.657,32,31,32z"/></svg>