<svg xmlns="http://www.w3.org/2000/svg" data-name="Layer 1" viewBox="0 0 48 48"><defs><linearGradient id="vlAjsj6HfU2nQpqqcdOnzb" x1="4.769" x2="17.453" y1="-477.769" y2="-490.453" data-name="Безымянный градиент 92" gradientTransform="matrix(1 0 0 -1 0 -472)" gradientUnits="userSpaceOnUse"><stop offset="0" stop-color="#fed100"/><stop offset="1" stop-color="#e36001"/></linearGradient><linearGradient id="vlAjsj6HfU2nQpqqcdOnzc" x1="27.5" x2="27.5" y1="17.941" y2="28.488" gradientUnits="userSpaceOnUse"><stop offset=".002" stop-color="#427fdb"/><stop offset=".397" stop-color="#2668cb"/><stop offset=".763" stop-color="#1358bf"/><stop offset="1" stop-color="#0c52bb"/></linearGradient><linearGradient id="vlAjsj6HfU2nQpqqcdOnzd" x1="12.28" x2="41.28" y1="26.526" y2="46.409" data-name="Безымянный градиент 33" gradientUnits="userSpaceOnUse"><stop offset="0" stop-color="#32bdef"/><stop offset="1" stop-color="#1ea2e4"/></linearGradient><linearGradient id="vlAjsj6HfU2nQpqqcdOnze" x1="27.5" x2="27.5" y1="42.589" y2="46.753" gradientUnits="userSpaceOnUse"><stop offset="0" stop-color="#a8e2f7"/><stop offset="1" stop-color="#47c1ff"/></linearGradient><radialGradient id="vlAjsj6HfU2nQpqqcdOnza" cx="11.941" cy="-485" r="10" data-name="Безымянный градиент 148" gradientTransform="matrix(1 0 0 -1 .059 -472)" gradientUnits="userSpaceOnUse"><stop offset=".724" stop-color="#ffed54"/><stop offset=".779" stop-color="#ffe649"/><stop offset=".877" stop-color="#ffd22d"/><stop offset="1" stop-color="#ffb300"/></radialGradient></defs><path fill="url(#vlAjsj6HfU2nQpqqcdOnza)" d="M12,3l.64591.67a1.36408,1.36408,0,0,0,1.62318.25727l.82136-.43772.40728.83681a1.36335,1.36335,0,0,0,1.46454.74591L17.87864,4.91l.12863.92182a1.364,1.364,0,0,0,1.16227,1.16227l.92182.12864-.16227.91636A1.36428,1.36428,0,0,0,20.675,9.50364l.83682.40727-.43773.82136a1.36276,1.36276,0,0,0,.25727,1.62318L22,13l-.67.64591a1.36408,1.36408,0,0,0-.25727,1.62318l.43772.82136-.83681.40728a1.36335,1.36335,0,0,0-.74591,1.46454l.16227.91637-.92182.12863a1.364,1.364,0,0,0-1.16227,1.16227l-.12864.92182-.91636-.16227a1.36428,1.36428,0,0,0-1.46455.74591l-.40727.83682-.82136-.43773a1.36276,1.36276,0,0,0-1.62318.25727L12,23l-.64591-.67a1.36408,1.36408,0,0,0-1.62318-.25727l-.82136.43772-.40728-.83681a1.36335,1.36335,0,0,0-1.46454-.74591L6.12136,21.09l-.12863-.92182a1.364,1.364,0,0,0-1.16228-1.16227l-.92181-.12864.16227-.91636A1.36428,1.36428,0,0,0,3.325,16.49636l-.83682-.40727.43773-.82136a1.36276,1.36276,0,0,0-.25727-1.62318L2,13l.67-.64591a1.36408,1.36408,0,0,0,.25727-1.62318l-.43772-.82136.83681-.40728a1.36335,1.36335,0,0,0,.74591-1.46454L3.91,7.12136l.92182-.12863A1.364,1.364,0,0,0,5.99409,5.83045l.12864-.92181.91636.16227A1.36428,1.36428,0,0,0,8.50364,4.325l.40727-.83682.82136.43773a1.36276,1.36276,0,0,0,1.62318-.25727Z"/><path fill="url(#vlAjsj6HfU2nQpqqcdOnzb)" d="M12,5.27273A7.72727,7.72727,0,1,0,19.72727,13,7.72717,7.72717,0,0,0,12,5.27273Z"/><ellipse cx="27.5" cy="22" fill="url(#vlAjsj6HfU2nQpqqcdOnzc)" rx="1.5" ry="3"/><path fill="url(#vlAjsj6HfU2nQpqqcdOnzd)" d="M44.04889,44.01654l.00071-.01819C44.0496,32.155,39.08472,22,27.5,22S10.9504,32.155,10.9504,43.99835l.00071.01819Z"/><rect width="37" height="1.983" x="9" y="43.017" fill="url(#vlAjsj6HfU2nQpqqcdOnze)" rx=".992"/></svg>