<svg xmlns="http://www.w3.org/2000/svg" viewBox="0 0 48 48"><linearGradient id="arHm~y4289wRqAfsM0rBSa" x1="18.81" x2="41.529" y1="18.896" y2="41.614" gradientUnits="userSpaceOnUse"><stop offset="0" stop-color="#eba600"/><stop offset="1" stop-color="#c28200"/></linearGradient><path fill="url(#arHm~y4289wRqAfsM0rBSa)" d="M39,42H16V14h23c1.105,0,2,0.895,2,2v24C41,41.105,40.105,42,39,42z"/><linearGradient id="arHm~y4289wRqAfsM0rBSb" x1="6.263" x2="35.728" y1="14.763" y2="44.228" gradientUnits="userSpaceOnUse"><stop offset="0" stop-color="#ffd869"/><stop offset="1" stop-color="#fec52b"/></linearGradient><path fill="url(#arHm~y4289wRqAfsM0rBSb)" d="M30,42H9c-1.105,0-2-0.895-2-2V16c0-1.105,0.895-2,2-2h21c1.105,0,2,0.895,2,2v24	C32,41.105,31.105,42,30,42z"/><path fill="#fff8e6" d="M16,14h7v4h-7V14z"/><path fill="#35c1f1" d="M24,9c-0.553,0-1-0.447-1-1V1c0-0.553,0.447-1,1-1s1,0.447,1,1v7C25,8.553,24.553,9,24,9z"/><path fill="#35c1f1" d="M18,10c-0.553,0-1-0.447-1-1V4c0-0.553,0.447-1,1-1s1,0.447,1,1v5C19,9.553,18.553,10,18,10z"/><path fill="#35c1f1" d="M30,10c-0.553,0-1-0.447-1-1V4c0-0.553,0.447-1,1-1s1,0.447,1,1v5C31,9.553,30.553,10,30,10z"/><path fill="#35c1f1" d="M36,12c-0.553,0-1-0.447-1-1V7c0-0.553,0.447-1,1-1s1,0.447,1,1v4C37,11.553,36.553,12,36,12z"/><path fill="#35c1f1" d="M12,12c-0.553,0-1-0.447-1-1V7c0-0.553,0.447-1,1-1s1,0.447,1,1v4C13,11.553,12.553,12,12,12z"/></svg>