<svg xmlns="http://www.w3.org/2000/svg" viewBox="0 0 48 48"><linearGradient id="F8Qh9BTWF9YB8~OpDTBaoa" x1="10.334" x2="39.526" y1="12.406" y2="40.746" gradientUnits="userSpaceOnUse"><stop offset="0" stop-color="#f24f5a"/><stop offset=".443" stop-color="#ec3d4b"/><stop offset="1" stop-color="#e42430"/></linearGradient><path fill="url(#F8Qh9BTWF9YB8~OpDTBaoa)" d="M38.65,41.36C36.6,43.76,33.62,45,30.61,45c-2.31,0-4.64-0.73-6.57-2.24l-9.23-6.62	C12.4,34.25,11,31.43,11,28.45V13h20v5.87c0,2.59,1.26,5.02,3.37,6.52l2.82,1.99C41.63,30.86,42.28,37.11,38.65,41.36z"/><path fill="#b11a23" d="M12.154,22.931c-0.392,0-0.775,0.031-1.154,0.076v5.442c0,2.978,1.398,5.8,3.809,7.686l3.297,2.365	c2.004-1.619,3.279-4.037,3.279-6.742C21.385,26.883,17.251,22.931,12.154,22.931z"/><linearGradient id="F8Qh9BTWF9YB8~OpDTBaob" x1="21" x2="21" y1="14" y2="6" gradientUnits="userSpaceOnUse"><stop offset="0" stop-color="#dfe9f2"/><stop offset=".391" stop-color="#d6e0e9"/><stop offset="1" stop-color="#bfc8d1"/></linearGradient><path fill="url(#F8Qh9BTWF9YB8~OpDTBaob)" d="M33,8.29v3.42c0,1.17-0.87,2.13-2,2.27C30.91,13.99,30.81,14,30.71,14H11.29	c-0.1,0-0.2-0.01-0.29-0.02c-1.13-0.14-2-1.1-2-2.27V8.29C9,7.02,10.02,6,11.29,6h19.42C31.98,6,33,7.02,33,8.29z"/><path d="M30.71,14H11.29c-0.1,0-0.2-0.01-0.29-0.02v1C11.1,15,11.19,15,11.29,15	h19.42c0.1,0,0.19,0,0.29-0.02v-1C30.91,13.99,30.81,14,30.71,14z" opacity=".07"/><path d="M30.71,14H11.29c-0.1,0-0.2-0.01-0.29-0.02v0.51	c0.1,0.01,0.19,0.01,0.29,0.01h19.42c0.1,0,0.19,0,0.29-0.01v-0.51C30.91,13.99,30.81,14,30.71,14z" opacity=".07"/></svg>