<svg xmlns="http://www.w3.org/2000/svg" viewBox="0 0 48 48"><rect width="36" height="2" x="6" y="23" fill="#64717c" transform="rotate(-30 23.999 24)"/><rect width="36" height="2" x="6" y="23" fill="#64717c" transform="rotate(-150 24 24)"/><rect width="36" height="2" x="6" y="23" fill="#64717c" transform="rotate(90 24 24)"/><linearGradient id="0DygTLIEEL~00oaA3juYSa" x1="15.498" x2="32.375" y1="15.246" y2="32.623" gradientUnits="userSpaceOnUse"><stop offset="0" stop-color="#ffd869"/><stop offset="1" stop-color="#fec52b"/></linearGradient><path fill="url(#0DygTLIEEL~00oaA3juYSa)" d="M32,33H16c-0.55,0-1-0.45-1-1V16c0-0.55,0.45-1,1-1h16c0.55,0,1,0.45,1,1v16	C33,32.55,32.55,33,32,33z"/><path fill="#fff8e6" d="M22,15h4v3h-4V15z"/><rect width="6" height="1" x="25" y="30" fill="#6b5f41"/><polygon fill="#6b5f41" points="30.5,27.5 29.5,26.5 28.5,27.5 29,27.5 29,29 30,29 30,27.5"/><polygon fill="#6b5f41" points="27.5,27.5 26.5,26.5 25.5,27.5 26,27.5 26,29 27,29 27,27.5"/><linearGradient id="0DygTLIEEL~00oaA3juYSb" x1="22.011" x2="26.212" y1="4.011" y2="8.213" gradientUnits="userSpaceOnUse"><stop offset="0" stop-color="#33bef0"/><stop offset="1" stop-color="#0a85d9"/></linearGradient><circle cx="24" cy="6" r="3" fill="url(#0DygTLIEEL~00oaA3juYSb)"/><linearGradient id="0DygTLIEEL~00oaA3juYSc" x1="6.011" x2="10.213" y1="13.011" y2="17.212" gradientUnits="userSpaceOnUse"><stop offset="0" stop-color="#33bef0"/><stop offset="1" stop-color="#0a85d9"/></linearGradient><circle cx="8" cy="15" r="3" fill="url(#0DygTLIEEL~00oaA3juYSc)"/><linearGradient id="0DygTLIEEL~00oaA3juYSd" x1="6.011" x2="10.213" y1="31.011" y2="35.212" gradientUnits="userSpaceOnUse"><stop offset="0" stop-color="#33bef0"/><stop offset="1" stop-color="#0a85d9"/></linearGradient><circle cx="8" cy="33" r="3" fill="url(#0DygTLIEEL~00oaA3juYSd)"/><linearGradient id="0DygTLIEEL~00oaA3juYSe" x1="38.011" x2="42.212" y1="13.011" y2="17.212" gradientUnits="userSpaceOnUse"><stop offset="0" stop-color="#33bef0"/><stop offset="1" stop-color="#0a85d9"/></linearGradient><circle cx="40" cy="15" r="3" fill="url(#0DygTLIEEL~00oaA3juYSe)"/><linearGradient id="0DygTLIEEL~00oaA3juYSf" x1="38.011" x2="42.212" y1="31.011" y2="35.212" gradientUnits="userSpaceOnUse"><stop offset="0" stop-color="#33bef0"/><stop offset="1" stop-color="#0a85d9"/></linearGradient><circle cx="40" cy="33" r="3" fill="url(#0DygTLIEEL~00oaA3juYSf)"/><linearGradient id="0DygTLIEEL~00oaA3juYSg" x1="22.011" x2="26.212" y1="40.011" y2="44.212" gradientUnits="userSpaceOnUse"><stop offset="0" stop-color="#33bef0"/><stop offset="1" stop-color="#0a85d9"/></linearGradient><circle cx="24" cy="42" r="3" fill="url(#0DygTLIEEL~00oaA3juYSg)"/></svg>