<svg xmlns="http://www.w3.org/2000/svg" xmlns:xlink="http://www.w3.org/1999/xlink" data-name="Слой 1" viewBox="0 0 48 48"><defs><linearGradient id="wU7hN2KPM0LILI5acbihXb" x1="26" x2="34" y1="217" y2="217" data-name="Безымянный градиент 19" gradientTransform="matrix(1 0 0 -1 0 224)" gradientUnits="userSpaceOnUse"><stop offset="0" stop-color="#ffcf54"/><stop offset=".261" stop-color="#fdcb4d"/><stop offset=".639" stop-color="#f7c13a"/><stop offset="1" stop-color="#f0b421"/></linearGradient><linearGradient id="wU7hN2KPM0LILI5acbihXc" x1="12.963" x2="18.677" y1="168.849" y2="180.928" data-name="Безымянный градиент 28" gradientTransform="translate(0 -138)" gradientUnits="userSpaceOnUse"><stop offset="0" stop-color="#c965eb"/><stop offset="1" stop-color="#c767e5"/></linearGradient><linearGradient id="wU7hN2KPM0LILI5acbihXa" x1="13.977" x2="16.348" y1="28.837" y2="33.85" data-name="Безымянный градиент 72" gradientUnits="userSpaceOnUse"><stop offset="0" stop-color="#ac4ad5"/><stop offset="1" stop-color="#ae4cd5"/></linearGradient><linearGradient id="wU7hN2KPM0LILI5acbihXd" x1="19.743" x2="22.571" y1="33.45" y2="33.45" gradientTransform="translate(-5.157 2.55)" xlink:href="#wU7hN2KPM0LILI5acbihXa"/></defs><path fill="url(#wU7hN2KPM0LILI5acbihXb)" d="M26,7a4,4,0,1,0,3.998-4A3.99975,3.99975,0,0,0,26,7Z"/><rect width="2.828" height="2.828" x="11.586" y="28.586" fill="#e52030" transform="rotate(45 13 30)"/><path fill="url(#wU7hN2KPM0LILI5acbihXc)" d="M20.5,30.5,19.47374,41.7874A1.33333,1.33333,0,0,1,18.14589,43H11.85375a1.33333,1.33333,0,0,1-1.32786-1.21265L9.5,30.5Z"/><rect width="12" height="2" x="9" y="30" fill="url(#wU7hN2KPM0LILI5acbihXa)" rx="1"/><rect width="2.828" height="2.828" x="15.586" y="24.586" fill="#b31523" transform="rotate(45 17 26)"/><rect width="2.828" height="2.828" x="14.586" y="34.586" fill="url(#wU7hN2KPM0LILI5acbihXd)" transform="rotate(45 16 36)"/><path fill="#35c1f1" d="M28.5,40A1.5,1.5,0,1,0,30,41.5,1.50055,1.50055,0,0,0,28.5,40Z"/><path fill="#35c1f1" d="M16.5,20A1.5,1.5,0,1,0,18,21.5,1.50055,1.50055,0,0,0,16.5,20Z"/><path fill="#35c1f1" d="M32.5,40A1.5,1.5,0,1,0,34,41.5,1.50055,1.50055,0,0,0,32.5,40Z"/><path fill="#35c1f1" d="M16.5,23V20l5.5-.5,1.95-3.16868A7,7,0,0,1,29.91157,13H31a6,6,0,0,1,6,6v8a2,2,0,0,1-2,2h0L34,41.5,32.5,43h-4L27,41.5,26.5,20l-1.90031,2.28037A2,2,0,0,1,23.06325,23Z"/></svg>