<svg xmlns="http://www.w3.org/2000/svg" xmlns:xlink="http://www.w3.org/1999/xlink" data-name="Слой 1" viewBox="0 0 48 48"><defs><linearGradient id="mBymFWUhubchYR0SsJPN_d" x1="29" x2="40" y1="12.5" y2="12.5" data-name="Безымянный градиент 2" gradientUnits="userSpaceOnUse"><stop offset="0" stop-color="#ffcf54"/><stop offset=".261" stop-color="#fdcb4d"/><stop offset=".639" stop-color="#f7c13a"/><stop offset="1" stop-color="#f0b421"/></linearGradient><linearGradient id="mBymFWUhubchYR0SsJPN_b" x1="29" x2="29" y1="17.288" y2="56.123" gradientUnits="userSpaceOnUse"><stop offset=".002" stop-color="#427fdb"/><stop offset=".397" stop-color="#2668cb"/><stop offset=".763" stop-color="#1358bf"/><stop offset="1" stop-color="#0c52bb"/></linearGradient><linearGradient id="mBymFWUhubchYR0SsJPN_a" x1="46.082" x2="22.237" y1="37.5" y2="37.5" data-name="Новый образец градиентной зал 5" gradientUnits="userSpaceOnUse"><stop offset="0" stop-color="#f9f9f9"/><stop offset=".26" stop-color="#f0f1f2"/><stop offset=".678" stop-color="#d9dcdf"/><stop offset="1" stop-color="#c2c8cc"/></linearGradient><linearGradient id="mBymFWUhubchYR0SsJPN_e" x1="46.082" x2="22.237" y1="28" y2="28" xlink:href="#mBymFWUhubchYR0SsJPN_a"/><linearGradient id="mBymFWUhubchYR0SsJPN_f" x1="40.5" x2="40.5" y1="19.572" y2="41.192" data-name="Безымянный градиент 58" gradientUnits="userSpaceOnUse"><stop offset="0" stop-color="#427fdb"/><stop offset=".485" stop-color="#2668cb"/><stop offset=".67" stop-color="#1358bf"/><stop offset=".842" stop-color="#0c52bb"/></linearGradient><linearGradient id="mBymFWUhubchYR0SsJPN_g" x1="28.461" x2="34.055" y1="1.74" y2="7.333" xlink:href="#mBymFWUhubchYR0SsJPN_b"/><linearGradient id="mBymFWUhubchYR0SsJPN_h" x1="18.891" x2="33.788" y1="10.5" y2="10.5" data-name="Безымянный градиент 143" gradientUnits="userSpaceOnUse"><stop offset="0" stop-color="#889097"/><stop offset="1" stop-color="#4c5963"/></linearGradient><linearGradient id="mBymFWUhubchYR0SsJPN_c" x1="14.5" x2="14.5" y1="38.043" y2="44.647" gradientUnits="userSpaceOnUse"><stop offset="0" stop-color="#d4943b"/><stop offset="1" stop-color="#c2620e"/></linearGradient><linearGradient id="mBymFWUhubchYR0SsJPN_i" x1="3.418" x2="9.305" y1="31" y2="31" gradientTransform="rotate(-90 6 31)" xlink:href="#mBymFWUhubchYR0SsJPN_c"/></defs><path fill="url(#mBymFWUhubchYR0SsJPN_d)" d="M40,12.5a4.06691,4.06691,0,0,1-.03.5A5.49206,5.49206,0,0,1,29.03,13a4.17752,4.17752,0,0,1,0-1,5.4045,5.4045,0,0,1,1.23-3,3.70935,3.70935,0,0,1,.47-.5,4.91506,4.91506,0,0,1,.61-.5A5.49271,5.49271,0,0,1,37.66,8a4.91506,4.91506,0,0,1,.61005.5,3.70935,3.70935,0,0,1,.47.5,5.4045,5.4045,0,0,1,1.23,3A4.06547,4.06547,0,0,1,40,12.5Z"/><path fill="url(#mBymFWUhubchYR0SsJPN_b)" d="M39,20H31.89081a10.00007,10.00007,0,0,0-7.8935,3.8606L15,39.25h5L27,29V43H43V24A4,4,0,0,0,39,20Z"/><rect width="15" height="3" x="27" y="36" fill="url(#mBymFWUhubchYR0SsJPN_a)"/><polygon fill="url(#mBymFWUhubchYR0SsJPN_e)" points="27 36 35 20 38 20 30 36 27 36"/><polygon fill="url(#mBymFWUhubchYR0SsJPN_f)" points="38 24 43 24 43 43 39 43 38 24"/><path fill="url(#mBymFWUhubchYR0SsJPN_g)" d="M39,6.001S33,4.999,28,4a1.35116,1.35116,0,0,0-.37433.07556l-.02515.00989A.894.894,0,0,0,27,5c0,1,2,4,2,4H40V7.001A.97939.97939,0,0,0,39,6.001Z"/><path fill="url(#mBymFWUhubchYR0SsJPN_h)" d="M29,9l-2.14645,2.14645A.5.5,0,0,0,27.20711,12H40V9Z"/><path d="M39.97,12H29.03a4.17752,4.17752,0,0,0,0,1H39.97a4.17752,4.17752,0,0,0,0-1Z" opacity=".05"/><path d="M39.97,12H29.03a4.06547,4.06547,0,0,0-.03.5H40A4.06547,4.06547,0,0,0,39.97,12Z" opacity=".07"/><path fill="url(#mBymFWUhubchYR0SsJPN_c)" d="M7,39H22a1,1,0,0,1,1,1v1a2,2,0,0,1-2,2H8a2,2,0,0,1-2-2V40A1,1,0,0,1,7,39Z"/><path fill="url(#mBymFWUhubchYR0SsJPN_i)" d="M-2,29H14a1,1,0,0,1,1,1v1a2,2,0,0,1-2,2H-1a2,2,0,0,1-2-2V30A1,1,0,0,1-2,29Z" transform="rotate(90 6 31)"/><g><path d="M8,39a1.003,1.003,0,0,1-1,1H6v1H7a2.00591,2.00591,0,0,0,2-2Z" opacity=".05"/><path d="M8,39a1.003,1.003,0,0,1-1,1H6v.5H7A1.498,1.498,0,0,0,8.5,39Z" opacity=".07"/></g></svg>