<svg xmlns="http://www.w3.org/2000/svg" data-name="Слой 1" viewBox="0 0 48 48"><defs><linearGradient id="rLJlwOCtFGybrKyNT3989a" x1="23.999" x2="23.999" y1="2197.682" y2="2191.189" data-name="Безымянный градиент 258" gradientTransform="translate(0 -2154)" gradientUnits="userSpaceOnUse"><stop offset="0" stop-color="#c26715"/><stop offset=".508" stop-color="#b85515"/><stop offset="1" stop-color="#ad3f16"/></linearGradient></defs><path fill="url(#rLJlwOCtFGybrKyNT3989a)" d="M20.999,35h6v8a1.00036,1.00036,0,0,1-1,1h-4a1.00036,1.00036,0,0,1-1-1Z"/><path fill="#107c42" d="M23.99695,12.873,9.312,34.239A1.76174,1.76174,0,0,0,10.763,37H37.235a1.75942,1.75942,0,0,0,1.451-2.757Z"/><path fill="#21a366" d="M23.999,7.839,13.286,24.301A1.74559,1.74559,0,0,0,14.751,27H33.247a1.74789,1.74789,0,0,0,1.465-2.703Z"/><path fill="#33c481" d="M22.61316,4.316l-5.374,9.11A1.70534,1.70534,0,0,0,18.70716,16h10.582a1.70922,1.70922,0,0,0,1.472-2.575l-5.374-9.11A1.61166,1.61166,0,0,0,22.61316,4.316Z"/></svg>