<svg xmlns="http://www.w3.org/2000/svg" xmlns:xlink="http://www.w3.org/1999/xlink" data-name="Слой 1" viewBox="0 0 48 48"><defs><linearGradient id="Lro_SrV9WARZ5PJgNKuV8b" x1="37.772" x2="21.825" y1="2.871" y2="18.818" data-name="Безымянный градиент 144" gradientTransform="rotate(90 23.997 23.638)" gradientUnits="userSpaceOnUse"><stop offset=".149" stop-color="#a1aab3"/><stop offset=".408" stop-color="#9ea7af"/><stop offset=".632" stop-color="#949da5"/><stop offset=".817" stop-color="#929ba3"/><stop offset=".883" stop-color="#8d959c"/><stop offset=".926" stop-color="#848c92"/><stop offset=".974" stop-color="#787f85"/></linearGradient><linearGradient id="Lro_SrV9WARZ5PJgNKuV8c" x1="44.396" x2="13.585" y1="4.475" y2="21.152" data-name="Безымянный градиент 14" gradientTransform="rotate(90 23.997 23.638)" gradientUnits="userSpaceOnUse"><stop offset=".087" stop-color="#dfe9f2"/><stop offset=".291" stop-color="#d6e0e9"/><stop offset=".662" stop-color="#bfc8d1"/><stop offset=".741" stop-color="#889097"/></linearGradient><linearGradient id="Lro_SrV9WARZ5PJgNKuV8d" x1="12.895" x2="20.686" y1="18.912" y2="26.703" data-name="Безымянный градиент 87" gradientTransform="rotate(90 23.997 23.638)" gradientUnits="userSpaceOnUse"><stop offset="0" stop-color="#c26715"/><stop offset=".346" stop-color="#be6015"/><stop offset=".686" stop-color="#b54e16"/><stop offset=".979" stop-color="#ad3f16"/></linearGradient><linearGradient id="Lro_SrV9WARZ5PJgNKuV8e" x1="6.733" x2="25.614" y1="27.689" y2="6.748" data-name="Безымянный градиент 110" gradientUnits="userSpaceOnUse"><stop offset="0" stop-color="#ffcf54"/><stop offset=".261" stop-color="#fdcb4d"/><stop offset=".639" stop-color="#f7c13a"/><stop offset="1" stop-color="#f0b421"/></linearGradient><linearGradient id="Lro_SrV9WARZ5PJgNKuV8a" x1="38.319" x2="42.479" y1="31.172" y2="42.603" data-name="Безымянный градиент 121" gradientUnits="userSpaceOnUse"><stop offset="0" stop-color="#f44f5a"/><stop offset=".443" stop-color="#ee3d4a"/><stop offset="1" stop-color="#e52030"/></linearGradient><linearGradient id="Lro_SrV9WARZ5PJgNKuV8f" x1="38.078" x2="42.447" y1="30.065" y2="42.068" xlink:href="#Lro_SrV9WARZ5PJgNKuV8a"/></defs><path fill="url(#Lro_SrV9WARZ5PJgNKuV8b)" d="M45.70586,36.7396l-1.71652-4.19042L31.616,20.14062l-.7499.375L22.3608,11.89625s-.77165-.29546-1.06711,0l-1.30107,1.87024c-.29471.29621.45519,3.07908.7499,3.37454l7.499,6.37413V25.015s8.57283,6.81732,11.13073,9.37372A8.04873,8.04873,0,0,0,45.70586,36.7396Z"/><path fill="url(#Lro_SrV9WARZ5PJgNKuV8c)" d="M46.98893,39.87193l-1.28307-3.13232A8.0481,8.0481,0,0,1,39.373,34.38943c-2.5579-2.5564-9.93539-9.9354-11.27171-11.271l-.23472.77164-.97056.97056a.74712.74712,0,0,0-.0041,1.05624c3.57453,3.598,9.72337,9.98254,11.027,11.28763C41.65416,40.93828,46.98893,39.87193,46.98893,39.87193Z"/><path fill="url(#Lro_SrV9WARZ5PJgNKuV8d)" d="M31.616,20.14062l-9.86556-9.86556a.8952.8952,0,0,0-1.266,0l-2.681,2.681a.89086.89086,0,0,0-.18824.99857,20.56915,20.56915,0,0,0,10.25135,9.93545Z"/><path fill="url(#Lro_SrV9WARZ5PJgNKuV8e)" d="M32.33311,13.92931a2.65265,2.65265,0,0,0-2.136-.75861A3.10181,3.10181,0,0,0,26.527,9.03349a3.0974,3.0974,0,0,0-3.04248-3.88226A3.11266,3.11266,0,0,0,18.1688,2.91264l-5.428,5.428S9.753,6.29222,6.43608,9.60917c-1.49762,1.49762-1.42889,3.65705-1.42889,12.40369L2.5858,24.43425a2,2,0,0,0,0,2.82843l6.17157,6.17157a2.00009,2.00009,0,0,0,2.82843,0l3.51733-3.51734a8.87939,8.87939,0,0,0,7.53125-2.51172l9.69873-9.69872A2.67075,2.67075,0,0,0,32.33311,13.92931Z"/><path fill="url(#Lro_SrV9WARZ5PJgNKuV8a)" d="M44,44.01286a1,1,0,0,1-2,0,6.612,6.612,0,0,1,1-2A6.612,6.612,0,0,1,44,44.01286Z"/><path fill="url(#Lro_SrV9WARZ5PJgNKuV8f)" d="M46.99,39.87285l-1.28-3.13-.62-1.5a3.80486,3.80486,0,0,0-.7.98,1.4109,1.4109,0,0,1-1.27.79H41.98069a1.688,1.688,0,0,1-1.46169-.94948,1.9992,1.9992,0,0,0-1.759-1.05051h-.77932a1.688,1.688,0,0,1-1.46169-.94949,1.9992,1.9992,0,0,0-1.759-1.05051h-.92c1.9,1.96,3.49,3.6,4.08,4.19.24063.20949.08.81.08.81-.174.966-1,2.732-1,3.5a1.5,1.5,0,0,0,3,0c0-.6312-.77434-2.17136-.95432-3.14229a.10954.10954,0,0,1,.176-.09982A11.21993,11.21993,0,0,0,46.99,39.87285Z"/></svg>