<svg xmlns="http://www.w3.org/2000/svg" viewBox="0 0 48 48"><linearGradient id="FN_Kuk2AnNn2xvDkrV7l_a" x1="12.686" x2="35.58" y1="-431.592" y2="-468.841" gradientTransform="matrix(1 0 0 -1 0 -426)" gradientUnits="userSpaceOnUse"><stop offset="0" stop-color="#ffd869"/><stop offset="1" stop-color="#fec52b"/></linearGradient><path fill="url(#FN_Kuk2AnNn2xvDkrV7l_a)" d="M44,20.023V11c0-1.105-0.895-2-2-2H6c-1.105,0-2,0.895-2,2v9.023C5.208,20.935,6,22.37,6,24	s-0.792,3.065-2,3.977V37c0,1.105,0.895,2,2,2h36c1.105,0,2-0.895,2-2v-9.023c-1.208-0.913-2-2.347-2-3.977S42.792,20.935,44,20.023	z M35,37c-0.552,0-1-0.448-1-1s0.448-1,1-1s1,0.448,1,1S35.552,37,35,37z M35,33c-0.552,0-1-0.448-1-1c0-0.552,0.448-1,1-1	s1,0.448,1,1C36,32.552,35.552,33,35,33z M35,29c-0.552,0-1-0.448-1-1s0.448-1,1-1s1,0.448,1,1S35.552,29,35,29z M35,25	c-0.552,0-1-0.448-1-1s0.448-1,1-1s1,0.448,1,1S35.552,25,35,25z M35,21c-0.552,0-1-0.448-1-1s0.448-1,1-1s1,0.448,1,1	S35.552,21,35,21z M35,17c-0.552,0-1-0.448-1-1s0.448-1,1-1s1,0.448,1,1S35.552,17,35,17z M35,13c-0.552,0-1-0.448-1-1s0.448-1,1-1	s1,0.448,1,1S35.552,13,35,13z"/><linearGradient id="FN_Kuk2AnNn2xvDkrV7l_b" x1="20.256" x2="22.466" y1="15.104" y2="34.999" gradientUnits="userSpaceOnUse"><stop offset="0" stop-color="#f44f5a"/><stop offset=".443" stop-color="#ee3d4a"/><stop offset="1" stop-color="#e52030"/></linearGradient><path fill="url(#FN_Kuk2AnNn2xvDkrV7l_b)" d="M20.63,15.834l-2.223,4.989l-5.431,0.574c-0.35,0.038-0.49,0.47-0.23,0.706l4.056,3.655	L15.67,31.1c-0.073,0.344,0.296,0.611,0.6,0.435l4.729-2.729l4.73,2.729c0.304,0.175,0.673-0.093,0.6-0.435l-1.132-5.343	l4.056-3.655c0.261-0.234,0.12-0.668-0.23-0.706l-5.431-0.574l-2.223-4.989C21.229,15.512,20.774,15.512,20.63,15.834z"/></svg>