<svg xmlns="http://www.w3.org/2000/svg" viewBox="0 0 48 48"><linearGradient id="KAjaC_nvXbBdwXtpFTDlwa" x1="14.618" x2="31.289" y1="2.401" y2="48.204" gradientUnits="userSpaceOnUse"><stop offset="0" stop-color="#2aa4f4"/><stop offset="1" stop-color="#007ad9"/></linearGradient><path fill="url(#KAjaC_nvXbBdwXtpFTDlwa)" d="M37,15L24,4L11,15v26c0,1.105,0.895,2,2,2h22c1.105,0,2-0.895,2-2V15z"/><linearGradient id="KAjaC_nvXbBdwXtpFTDlwb" x1="24" x2="24" y1="-7.251" y2="22.631" gradientUnits="userSpaceOnUse"><stop offset="0" stop-color="#0176d0"/><stop offset="1" stop-color="#16538c"/></linearGradient><path fill="url(#KAjaC_nvXbBdwXtpFTDlwb)" d="M39.128,14.923L24.979,2.371C24.7,2.124,24.35,2,24,2s-0.7,0.124-0.979,0.371L8.872,14.923	c-0.31,0.276-0.331,0.753-0.047,1.056l1.208,1.288c0.272,0.291,0.726,0.313,1.026,0.049L24,6.007l12.942,11.31	c0.299,0.263,0.754,0.241,1.026-0.049l1.208-1.288C39.459,15.675,39.438,15.199,39.128,14.923z"/><linearGradient id="KAjaC_nvXbBdwXtpFTDlwc" x1="24" x2="24" y1="14.94" y2="28.648" gradientUnits="userSpaceOnUse"><stop offset="0" stop-color="#0176d0"/><stop offset="1" stop-color="#16538c"/></linearGradient><path fill="url(#KAjaC_nvXbBdwXtpFTDlwc)" d="M38,27H10c-0.552,0-1-0.448-1-1v0c0-0.552,0.448-1,1-1h28c0.552,0,1,0.448,1,1v0	C39,26.552,38.552,27,38,27z"/><path d="M24.033,30c1.148,0,2.039,0.267,2.671,0.802c0.632,0.535,0.948,1.288,0.948,2.259c0,0.972-0.33,1.767-0.99,2.385 c-0.66,0.618-1.553,0.927-2.678,0.927h-1.332v3.172c0,0.251-0.204,0.455-0.455,0.455h-0.744C21.204,40,21,39.797,21,39.545v-9.091 C21,30.203,21.204,30,21.455,30H24.033 M22.653,35.021h1.074c0.711,0,1.253-0.165,1.625-0.495s0.558-0.795,0.558-1.395 c0-1.176-0.683-1.764-2.05-1.764h-1.206V35.021 M24.033,29h-2.579C20.653,29,20,29.653,20,30.455v9.091 C20,40.347,20.653,41,21.455,41h0.744c0.802,0,1.455-0.653,1.455-1.455v-2.172h0.332c1.382,0,2.513-0.403,3.361-1.198 c0.867-0.812,1.307-1.86,1.307-3.115c0-1.275-0.438-2.292-1.303-3.023C26.535,29.349,25.419,29,24.033,29L24.033,29z M23.653,32.367h0.206c1.05,0,1.05,0.371,1.05,0.764c0,0.45-0.161,0.593-0.222,0.647c-0.226,0.201-0.648,0.243-0.961,0.243h-0.074 V32.367L23.653,32.367z" opacity=".05"/><path d="M24.033,30c1.148,0,2.039,0.267,2.671,0.802c0.632,0.535,0.948,1.288,0.948,2.259c0,0.972-0.33,1.767-0.99,2.385 c-0.66,0.618-1.553,0.927-2.678,0.927h-1.332v3.172c0,0.251-0.204,0.455-0.455,0.455h-0.744C21.204,40,21,39.797,21,39.545v-9.091 C21,30.203,21.204,30,21.455,30H24.033 M22.653,35.021h1.074c0.711,0,1.253-0.165,1.625-0.495s0.558-0.795,0.558-1.395 c0-1.176-0.683-1.764-2.05-1.764h-1.206V35.021 M24.033,29.5h-2.579c-0.526,0-0.955,0.428-0.955,0.955v9.091 c0,0.526,0.428,0.955,0.955,0.955h0.744c0.526,0,0.955-0.428,0.955-0.955v-2.672h0.832c1.251,0,2.267-0.357,3.02-1.063 c0.762-0.714,1.148-1.639,1.148-2.75c0-1.121-0.379-2.01-1.126-2.641C26.305,29.81,25.298,29.5,24.033,29.5L24.033,29.5z M23.153,31.867h0.706c1.366,0,1.55,0.639,1.55,1.264c0,0.454-0.128,0.788-0.39,1.021c-0.276,0.245-0.711,0.369-1.293,0.369 h-0.574V31.867L23.153,31.867z" opacity=".07"/><path fill="#fff" d="M22.653,36.374v3.172c0,0.251-0.204,0.455-0.455,0.455h-0.744C21.204,40,21,39.796,21,39.545 v-9.091C21,30.204,21.204,30,21.455,30h2.579c1.148,0,2.039,0.267,2.671,0.802c0.632,0.535,0.948,1.288,0.948,2.259 s-0.33,1.767-0.99,2.385s-1.553,0.927-2.678,0.927H22.653z M22.653,31.367v3.654h1.074c0.711,0,1.253-0.165,1.625-0.495 c0.372-0.33,0.558-0.795,0.558-1.395c0-1.176-0.683-1.764-2.05-1.764H22.653z"/><g><path d="M25,12v9.545C25,21.797,24.796,22,24.545,22h-0.673c-0.251,0-0.455-0.203-0.455-0.455v-7.608 c-0.286,0.205-0.595,0.379-0.924,0.522s-0.706,0.269-1.129,0.379v-1.351c0.264-0.086,0.518-0.177,0.764-0.273 c0.246-0.095,0.488-0.202,0.726-0.321c0.239-0.118,0.48-0.25,0.723-0.396c0.243-0.146,0.495-0.311,0.754-0.498H25 M26,11h-1 h-0.668h-0.322l-0.262,0.188c-0.235,0.169-0.465,0.321-0.683,0.451c-0.22,0.132-0.438,0.251-0.654,0.358 c-0.211,0.105-0.428,0.2-0.645,0.285c-0.229,0.089-0.467,0.174-0.713,0.255l-0.689,0.226v0.725v1.351v1.291l1.25-0.323 c0.284-0.073,0.552-0.155,0.803-0.244v5.983c0,0.802,0.652,1.455,1.455,1.455h0.673C25.348,23,26,22.347,26,21.545V12V11L26,11z" opacity=".05"/><path d="M25,12v9.545C25,21.797,24.796,22,24.545,22h-0.673c-0.251,0-0.455-0.203-0.455-0.455v-7.608 c-0.286,0.205-0.595,0.379-0.924,0.522s-0.706,0.269-1.129,0.379v-1.351c0.264-0.086,0.518-0.177,0.764-0.273 c0.246-0.095,0.488-0.202,0.726-0.321c0.239-0.118,0.48-0.25,0.723-0.396c0.243-0.146,0.495-0.311,0.754-0.498H25 M25.5,11.5H25 h-0.668H24.17l-0.131,0.094c-0.247,0.177-0.488,0.337-0.718,0.475c-0.232,0.139-0.461,0.264-0.688,0.377 c-0.224,0.111-0.455,0.213-0.686,0.303c-0.237,0.092-0.484,0.18-0.739,0.264l-0.344,0.113v0.362v1.351v0.645l0.625-0.161 c0.446-0.115,0.851-0.251,1.203-0.404c0.076-0.033,0.151-0.068,0.225-0.104v6.732c0,0.526,0.428,0.955,0.955,0.955h0.673 c0.526,0,0.955-0.428,0.955-0.955V12V11.5L25.5,11.5z" opacity=".07"/><path fill="#fff" d="M25,12v9.545C25,21.796,24.796,22,24.545,22h-0.673c-0.251,0-0.455-0.204-0.455-0.455v-7.608 c-0.286,0.205-0.595,0.379-0.924,0.522c-0.33,0.143-0.706,0.269-1.129,0.379v-1.351c0.264-0.086,0.518-0.177,0.764-0.273 c0.246-0.095,0.488-0.202,0.726-0.321c0.239-0.118,0.48-0.25,0.723-0.396c0.243-0.146,0.495-0.312,0.754-0.498H25z"/></g></svg>