<svg xmlns="http://www.w3.org/2000/svg" viewBox="0 0 48 48"><linearGradient id="fxit7lt5b0QVrz3MsY0b0a" x1="12.686" x2="35.58" y1="-566.592" y2="-603.841" gradientTransform="matrix(1 0 0 -1 0 -562)" gradientUnits="userSpaceOnUse"><stop offset="0" stop-color="#33bef0"/><stop offset="1" stop-color="#0a85d9"/></linearGradient><path fill="url(#fxit7lt5b0QVrz3MsY0b0a)" d="M42,8H6c-1.105,0-2,0.895-2,2v26c0,1.105,0.895,2,2,2h8v7.998	c0,0.891,1.077,1.337,1.707,0.707L24.412,38H42c1.105,0,2-0.895,2-2V10C44,8.895,43.105,8,42,8z"/><path d="M28.11,29.877c-1.105,0-2.005-0.898-2.005-2.002V26H14c-1.103,0-2-0.897-2-2v-2c0-1.103,0.897-2,2-2	h12.105v-1.875c0-1.104,0.899-2.002,2.005-2.002c0.468,0,0.907,0.16,1.271,0.462l5.893,4.873C35.735,21.84,36,22.401,36,23	s-0.265,1.16-0.726,1.541l-5.896,4.876C29.018,29.718,28.578,29.877,28.11,29.877z" opacity=".05"/><path d="M28.11,29.377c-0.83,0-1.505-0.674-1.505-1.502V25.5H14c-0.827,0-1.5-0.673-1.5-1.5v-2	c0-0.827,0.673-1.5,1.5-1.5h12.605v-2.375c0-0.828,0.675-1.502,1.505-1.502c0.349,0,0.678,0.119,0.951,0.347l5.895,4.874	C35.302,22.13,35.5,22.551,35.5,23s-0.198,0.87-0.544,1.156l-5.896,4.875C28.788,29.258,28.459,29.377,28.11,29.377L28.11,29.377z" opacity=".07"/><path fill="#fff" d="M34.637,22.229l-5.895-4.875c-0.652-0.539-1.637-0.076-1.637,0.771V21H14c-0.552,0-1,0.448-1,1v2	c0,0.552,0.448,1,1,1h13.105v2.875c0,0.846,0.985,1.31,1.637,0.771l5.895-4.875C35.121,23.371,35.121,22.629,34.637,22.229z"/></svg>