<svg xmlns="http://www.w3.org/2000/svg" viewBox="0 0 48 48"><path fill="#5059c9" d="M41,7v34c0,1.105-0.895,2-2,2h-5V5h5C40.105,5,41,5.895,41,7z"/><linearGradient id="mdr6grtt3W7fJ4PxBPxxka" x1="799.856" x2="799.856" y1="520.695" y2="523.837" gradientTransform="rotate(-90 169.067 654.79)" gradientUnits="userSpaceOnUse"><stop offset=".441" stop-color="#999998"/><stop offset=".653" stop-color="#c1c1c0"/><stop offset=".88" stop-color="#e5e5e5"/><stop offset="1" stop-color="#f3f3f3"/></linearGradient><path fill="url(#mdr6grtt3W7fJ4PxBPxxka)" d="M39,7v34c0,1.105-0.895,2-2,2h-6V5h6C38.105,5,39,5.895,39,7z"/><linearGradient id="mdr6grtt3W7fJ4PxBPxxkb" x1="3.918" x2="15.381" y1="9.336" y2="40.562" gradientUnits="userSpaceOnUse"><stop offset="0" stop-color="#5961c3"/><stop offset="1" stop-color="#3a41ac"/></linearGradient><path fill="url(#mdr6grtt3W7fJ4PxBPxxkb)" d="M7,7v34c0,1.105,0.895,2,2,2h2V5H9C7.895,5,7,5.895,7,7z"/><path fill="#7b83eb" d="M35,5H11v38h24c1.105,0,2-0.895,2-2V7C37,5.895,36.105,5,35,5z"/><linearGradient id="mdr6grtt3W7fJ4PxBPxxkc" x1="18" x2="18" y1="47.879" y2="42.778" gradientUnits="userSpaceOnUse"><stop offset="0" stop-color="#f44f5a"/><stop offset=".443" stop-color="#ee3d4a"/><stop offset="1" stop-color="#e52030"/></linearGradient><path fill="url(#mdr6grtt3W7fJ4PxBPxxkc)" d="M22,43h-8v4.499c0,0.372,0.391,0.613,0.724,0.447L18,46.308l3.276,1.638	C21.609,48.113,22,47.871,22,47.499V43z"/><linearGradient id="mdr6grtt3W7fJ4PxBPxxkd" x1="17" x2="17" y1="13.021" y2="17.098" gradientUnits="userSpaceOnUse"><stop offset="0" stop-color="#9dffce"/><stop offset="1" stop-color="#50d18d"/></linearGradient><circle cx="17" cy="15" r="2" fill="url(#mdr6grtt3W7fJ4PxBPxxkd)"/><linearGradient id="mdr6grtt3W7fJ4PxBPxxke" x1="17" x2="17" y1="21.02" y2="25.098" gradientUnits="userSpaceOnUse"><stop offset="0" stop-color="#9dffce"/><stop offset="1" stop-color="#50d18d"/></linearGradient><circle cx="17" cy="23" r="2" fill="url(#mdr6grtt3W7fJ4PxBPxxke)"/><linearGradient id="mdr6grtt3W7fJ4PxBPxxkf" x1="17" x2="17" y1="29.02" y2="33.098" gradientUnits="userSpaceOnUse"><stop offset="0" stop-color="#9dffce"/><stop offset="1" stop-color="#50d18d"/></linearGradient><circle cx="17" cy="31" r="2" fill="url(#mdr6grtt3W7fJ4PxBPxxkf)"/></svg>