<svg xmlns="http://www.w3.org/2000/svg" viewBox="0 0 48 48"><linearGradient id="rgpmTTNLdSAIS7Vk6w5QVa" x1="25.5" x2="25.5" y1="3.727" y2="52.003" gradientUnits="userSpaceOnUse"><stop offset="0" stop-color="#21ad64"/><stop offset="1" stop-color="#088242"/></linearGradient><path fill="url(#rgpmTTNLdSAIS7Vk6w5QVa)" d="M36.587,12.262C35.939,10.927,34.583,10,33,10c-1.989,0-3.626,1.456-3.935,3.358	c-2.451,1.604-3.854,4.059-11.148,4.059C10.438,17.417,6,21.184,6,27.167S10.438,38,17.917,38c16.023,0,20.457-7.374,20.578-15.888	C41.729,21.177,45,19.427,45,17.417C45,15.005,40.293,12.963,36.587,12.262z"/><path fill="#21ad64" d="M39,39h-5c-0.055-0.154-3.747-4.71-3.747-4.71c-0.092-0.115-0.128-0.265-0.1-0.41l0.817-4.086	c0.163-0.813-0.364-1.603-1.176-1.765c-0.813-0.165-1.603,0.364-1.765,1.176l-0.818,4.087c-0.203,1.017,0.052,2.064,0.699,2.872	l3.418,4.272C31.625,40.807,32.06,41,32.5,41v0H39c0.552,0,1-0.448,1-1C40,39.448,39.552,39,39,39z"/><linearGradient id="rgpmTTNLdSAIS7Vk6w5QVb" x1="31" x2="35" y1="14" y2="14" gradientUnits="userSpaceOnUse"><stop offset="0" stop-color="#4c4c4c"/><stop offset="1" stop-color="#343434"/></linearGradient><circle cx="33" cy="14" r="2" fill="url(#rgpmTTNLdSAIS7Vk6w5QVb)"/><path fill="#21ad64" d="M25.052,38.91l-6.953-0.662C21.576,36.916,24,33.951,24,30.5c0-4.694-4.477-8.5-10-8.5	S4,25.806,4,30.5c0,1.814,0.674,3.492,1.814,4.873l-0.18,0.36C5.217,36.566,5,37.485,5,38.416V39c0,1.105,0.895,2,2,2h17.953	C25.531,41,26,40.531,26,39.952C26,39.412,25.589,38.961,25.052,38.91z"/></svg>