<svg xmlns="http://www.w3.org/2000/svg" viewBox="0 0 48 48"><radialGradient id="ItZi5pXk4uw9ckdDFLLsla" cx="29.48" cy="15.626" r="13.906" gradientTransform="matrix(1 0 0 .9927 0 .044)" gradientUnits="userSpaceOnUse"><stop offset=".15" stop-color="#343b9e"/><stop offset=".433" stop-color="#3c43a6"/><stop offset=".874" stop-color="#5259bc"/><stop offset="1" stop-color="#5961c3"/></radialGradient><path fill="url(#ItZi5pXk4uw9ckdDFLLsla)" d="M30,11.738l4.643-5.387c0.346-0.402,0.95-0.472,1.366-0.142C37.116,7.088,39,9.13,39,12.848	c0,4.909-5,6.831-5,6.831L30,11.738z"/><radialGradient id="ItZi5pXk4uw9ckdDFLLslb" cx="42.48" cy="15.626" r="13.906" gradientTransform="matrix(-1 0 0 .9927 61 .044)" gradientUnits="userSpaceOnUse"><stop offset=".15" stop-color="#343b9e"/><stop offset=".433" stop-color="#3c43a6"/><stop offset=".874" stop-color="#5259bc"/><stop offset="1" stop-color="#5961c3"/></radialGradient><path fill="url(#ItZi5pXk4uw9ckdDFLLslb)" d="M14,19.679c0,0-5-1.922-5-6.831c0-3.718,1.884-5.76,2.991-6.639	c0.416-0.33,1.019-0.26,1.366,0.142L18,11.738L14,19.679z"/><linearGradient id="ItZi5pXk4uw9ckdDFLLslc" x1="21.893" x2="25.815" y1="9.08" y2="41.766" gradientUnits="userSpaceOnUse"><stop offset="0" stop-color="#5961c3"/><stop offset="1" stop-color="#3a41ac"/></linearGradient><path fill="url(#ItZi5pXk4uw9ckdDFLLslc)" d="M35,18.248C35,12.125,30.213,9,27,9c-1.944,0-3,1-3,1s-1.056-1-3-1c-3.213,0-8,3.125-8,9.248	c0,0-4,2.039-4,8.752c0,4.3,7,4.4,7,4.4c0,1.952,2.361,8.6,8,8.6s8-6.845,8-8.6c1.778,0,7-0.366,7-4.4	C39,20.288,35,18.248,35,18.248z"/><path fill="#767bcf" d="M41,31.432l-10,0.419c-0.47,0.02-0.867-0.345-0.886-0.815s0.345-0.867,0.815-0.886	c0.023-0.001,0.048-0.001,0.071,0l10,0.419c0.239,0.01,0.424,0.211,0.414,0.45C41.404,31.244,41.222,31.422,41,31.432z"/><path fill="#767bcf" d="M37.895,36.419l-8.102-1.594c-0.462-0.091-0.762-0.539-0.671-1s0.539-0.762,1-0.671	c0.028,0.006,0.057,0.013,0.084,0.021l7.898,2.406c0.228,0.07,0.357,0.311,0.288,0.54C38.327,36.334,38.11,36.46,37.895,36.419z"/><path fill="#767bcf" d="M7,31.432l10,0.419c0.47,0.02,0.867-0.345,0.886-0.815s-0.345-0.867-0.815-0.886	c-0.023-0.001-0.048-0.001-0.071,0L7,30.568c-0.239,0.01-0.424,0.211-0.414,0.45C6.596,31.244,6.778,31.422,7,31.432z"/><path fill="#767bcf" d="M10.105,36.419l8.102-1.594c0.462-0.091,0.762-0.539,0.671-1s-0.539-0.762-1-0.671	c-0.028,0.006-0.057,0.013-0.084,0.021l-7.898,2.406c-0.228,0.07-0.357,0.311-0.288,0.54C9.673,36.334,9.89,36.46,10.105,36.419z"/><circle cx="28.5" cy="23.5" r="1.5" fill="#292c61"/><circle cx="19.5" cy="23.5" r="1.5" fill="#292c61"/><linearGradient id="ItZi5pXk4uw9ckdDFLLsld" x1="24" x2="24" y1="35.717" y2="31.408" gradientUnits="userSpaceOnUse"><stop offset="0" stop-color="#7b83eb"/><stop offset=".744" stop-color="#5961c3"/><stop offset="1" stop-color="#434ab3"/></linearGradient><path fill="url(#ItZi5pXk4uw9ckdDFLLsld)" d="M24,36c-1.657,0-3-1.169-3-1.997S22.343,33,24,33s3,0.175,3,1.003S25.657,36,24,36z"/></svg>