<svg xmlns="http://www.w3.org/2000/svg" data-name="Слой 1" viewBox="0 0 48 48"><defs><linearGradient id="Uir_z0DwfFtJ8yNnmGrv~a" x1="10.531" x2="27.482" y1="4.992" y2="51.563" data-name="Безымянный градиент 138" gradientUnits="userSpaceOnUse"><stop offset="0" stop-color="#6d6d6d"/><stop offset=".126" stop-color="#626262"/><stop offset=".987" stop-color="#464646"/><stop offset=".998" stop-color="#454545"/></linearGradient><linearGradient id="Uir_z0DwfFtJ8yNnmGrv~b" x1="18.357" x2="24.573" y1="-2452.995" y2="-2488.249" data-name="Безымянный градиент 134" gradientTransform="matrix(1 0 0 -1 0 -2444)" gradientUnits="userSpaceOnUse"><stop offset="0" stop-color="#ffda1c"/><stop offset="1" stop-color="#feb705"/></linearGradient><linearGradient id="Uir_z0DwfFtJ8yNnmGrv~c" x1="865.248" x2="865.25" y1="-1486.497" y2="-1486.497" data-name="Безымянный градиент 193" gradientTransform="rotate(80.68 -434.995 -1231.655)" gradientUnits="userSpaceOnUse"><stop offset="0" stop-color="#ffc430"/><stop offset=".57" stop-color="#f8bd29"/><stop offset="1" stop-color="#f0b421"/></linearGradient><radialGradient id="Uir_z0DwfFtJ8yNnmGrv~d" cx="17.348" cy="23.348" r="19.839" data-name="Безымянный градиент 133" gradientUnits="userSpaceOnUse"><stop offset="0" stop-color="#4b4b4b"/><stop offset=".531" stop-color="#393939"/><stop offset="1" stop-color="#252525"/></radialGradient></defs><path fill="url(#Uir_z0DwfFtJ8yNnmGrv~a)" d="M24.00043,4A1.96747,1.96747,0,0,0,22.2731,5.00878L1.82176,41.00568A2.00136,2.00136,0,0,0,3.54909,44H44.45078a2.001,2.001,0,0,0,1.72733-2.99432L25.72776,5.00878A1.96745,1.96745,0,0,0,24.00043,4Z"/><polygon fill="url(#Uir_z0DwfFtJ8yNnmGrv~b)" points="5 41 24.001 8 43 41 5 41"/><path fill="url(#Uir_z0DwfFtJ8yNnmGrv~c)" d="M27.06169,10.14262l-.01548.00407-.00082-.00163Z"/><path fill="url(#Uir_z0DwfFtJ8yNnmGrv~d)" d="M32.9386,29a1.71641,1.71641,0,0,0-1.72479,1.33228c-.78376-.26246-1.3144,1.14917-2.21381-.33423V22a1,1,0,0,0-2,0v4.25L26,26V20a1,1,0,0,0-2,0v6l-1,.25V21a1,1,0,0,0-2,0v5.74243L20,27V22.5a.5.5,0,0,0-1,0V30h2l-1-1,8.95831.99536v.0083L23.25,30.5,24.5,32H19v3a2.00006,2.00006,0,0,0,2,2v4h6V36.959A3.40134,3.40134,0,0,0,29,36v-.04077c.0321-.03076.06262-.06006.09814-.09595L34,30.0658A.99823.99823,0,0,0,32.9386,29ZM17,30a1.00291,1.00291,0,0,1-1-1V21.89l-2,3.48V29a3.00887,3.00887,0,0,0,3,3h2V30Z"/></svg>