<svg xmlns="http://www.w3.org/2000/svg" viewBox="0 0 48 48"><path fill="#6ad7fc" d="M36,14.217V8H12v6.217c0,4.574,3.113,8.562,7.551,9.671L20,24l-0.449,0.112	C15.113,25.222,12,29.209,12,33.783V40h24v-6.217c0-4.574-3.113-8.562-7.551-9.671L28,24l0.449-0.112	C32.887,22.778,36,18.791,36,14.217z"/><linearGradient id="1Qkvnwv_~bZVAEIrNtREWa" x1="11" x2="37" y1="9.5" y2="9.5" gradientUnits="userSpaceOnUse"><stop offset="0" stop-color="#3079d6"/><stop offset="1" stop-color="#297cd2"/></linearGradient><path fill="url(#1Qkvnwv_~bZVAEIrNtREWa)" d="M36,11H12c-0.552,0-1-0.448-1-1V8h26v2C37,10.552,36.552,11,36,11z"/><linearGradient id="1Qkvnwv_~bZVAEIrNtREWb" x1="9" x2="39" y1="6.5" y2="6.5" gradientUnits="userSpaceOnUse"><stop offset="0" stop-color="#42a3f2"/><stop offset="1" stop-color="#42a4eb"/></linearGradient><path fill="url(#1Qkvnwv_~bZVAEIrNtREWb)" d="M38,8H10C9.448,8,9,7.552,9,7V6c0-0.552,0.448-1,1-1h28c0.552,0,1,0.448,1,1v1	C39,7.552,38.552,8,38,8z"/><linearGradient id="1Qkvnwv_~bZVAEIrNtREWc" x1="24" x2="24" y1="16.715" y2="23.806" gradientUnits="userSpaceOnUse"><stop offset="0" stop-color="#eba84b"/><stop offset="1" stop-color="#d97218"/></linearGradient><path fill="url(#1Qkvnwv_~bZVAEIrNtREWc)" d="M15,18c0,3,8,6,9,6s9-3,9-6H15z"/><linearGradient id="1Qkvnwv_~bZVAEIrNtREWd" x1="24" x2="24" y1="21.788" y2="39.515" gradientUnits="userSpaceOnUse"><stop offset="0" stop-color="#eba84b"/><stop offset="1" stop-color="#d97218"/></linearGradient><path fill="url(#1Qkvnwv_~bZVAEIrNtREWd)" d="M24.965,32.175C24.976,32.116,25,32.062,25,32c0-0.552-0.448-1-1-1s-1,0.448-1,1 c0,0.062,0.024,0.116,0.035,0.175C20.621,32.877,16,35.714,16,40h16C32,35.714,27.379,32.877,24.965,32.175z M24,30 c0.552,0,1-0.448,1-1c0-0.552-0.448-1-1-1s-1,0.448-1,1C23,29.552,23.448,30,24,30z M24,27c0.552,0,1-0.448,1-1 c0-0.552-0.448-1-1-1s-1,0.448-1,1C23,26.552,23.448,27,24,27z"/><linearGradient id="1Qkvnwv_~bZVAEIrNtREWe" x1="11" x2="37" y1="-22.5" y2="-22.5" gradientTransform="rotate(180 24 8)" gradientUnits="userSpaceOnUse"><stop offset="0" stop-color="#3079d6"/><stop offset="1" stop-color="#297cd2"/></linearGradient><path fill="url(#1Qkvnwv_~bZVAEIrNtREWe)" d="M12,37h24c0.552,0,1,0.448,1,1v2H11v-2C11,37.448,11.448,37,12,37z"/><linearGradient id="1Qkvnwv_~bZVAEIrNtREWf" x1="9" x2="39" y1="-25.5" y2="-25.5" gradientTransform="rotate(180 24 8)" gradientUnits="userSpaceOnUse"><stop offset="0" stop-color="#42a3f2"/><stop offset="1" stop-color="#42a4eb"/></linearGradient><path fill="url(#1Qkvnwv_~bZVAEIrNtREWf)" d="M10,40h28c0.552,0,1,0.448,1,1v1c0,0.552-0.448,1-1,1H10c-0.552,0-1-0.448-1-1v-1	C9,40.448,9.448,40,10,40z"/></svg>