<svg xmlns="http://www.w3.org/2000/svg" viewBox="0 0 48 48"><linearGradient id="TqZnR8dnn4fwMiTLAhS6Ja" x1="21.649" x2="30.211" y1="6.312" y2="51.431" gradientUnits="userSpaceOnUse"><stop offset="0" stop-color="#70371b"/><stop offset="1" stop-color="#401608"/></linearGradient><path fill="url(#TqZnR8dnn4fwMiTLAhS6Ja)" d="M14,14c0,4.912,3,14.088,3,19v9h14v-9c0-4.912,3-14.088,3-19c0-2.641-0.388-5.088-0.821-7 H14.821C14.387,8.912,14,11.359,14,14z"/><linearGradient id="TqZnR8dnn4fwMiTLAhS6Jb" x1="24" x2="24" y1="3.498" y2="6.711" gradientUnits="userSpaceOnUse"><stop offset="0" stop-color="#f0ddaf"/><stop offset="1" stop-color="#ffda94"/></linearGradient><path fill="url(#TqZnR8dnn4fwMiTLAhS6Jb)" d="M16.701,3c-0.428,0-0.807,0.269-0.946,0.675C15.522,4.356,15.158,5.517,14.821,7h18.357 c-0.336-1.483-0.701-2.644-0.934-3.325C32.106,3.269,31.727,3,31.299,3H16.701z"/><linearGradient id="TqZnR8dnn4fwMiTLAhS6Jc" x1="24" x2="24" y1="42.37" y2="44.262" gradientUnits="userSpaceOnUse"><stop offset="0" stop-color="#32bdef"/><stop offset="1" stop-color="#1ea2e4"/></linearGradient><path fill="url(#TqZnR8dnn4fwMiTLAhS6Jc)" d="M17,42v1c0,1.105,0.895,2,2,2h10c1.105,0,2-0.895,2-2v-1H17z"/></svg>