<svg xmlns="http://www.w3.org/2000/svg" viewBox="0 0 48 48"><linearGradient id="xPXEMT6e1kq8oSBzAqPuVa" x1="20.21" x2="34.481" y1="-460.745" y2="-491.827" gradientTransform="matrix(1 0 0 -1 0 -426)" gradientUnits="userSpaceOnUse"><stop offset="0" stop-color="#fed100"/><stop offset="1" stop-color="#e36001"/></linearGradient><path fill="url(#xPXEMT6e1kq8oSBzAqPuVa)" d="M41,41H7c-0.553,0-1,0.447-1,1v2c0,0.552,0.447,1,1,1h34c0.552,0,1-0.448,1-1v-2 C42,41.447,41.552,41,41,41z"/><linearGradient id="xPXEMT6e1kq8oSBzAqPuVb" x1="21.647" x2="28.113" y1=".942" y2="37.614" gradientUnits="userSpaceOnUse"><stop offset="0" stop-color="#a235d4"/><stop offset=".441" stop-color="#a033d1"/><stop offset=".702" stop-color="#982cc9"/><stop offset=".915" stop-color="#8b21bb"/><stop offset="1" stop-color="#831bb3"/></linearGradient><path fill="url(#xPXEMT6e1kq8oSBzAqPuVb)" d="M37.929,3H32c-0.552,0-1,0.448-1,1v18.272C31,28.09,28.688,31,24.065,31 C19.354,31,17,27.988,17,21.961V4c0-0.552-0.448-1-1-1h-5.929C9.48,3,9,3.48,9,4.071v17.967C9,32.679,13.923,38,23.772,38 C33.924,38,39,32.553,39,21.658V4.071C39,3.48,38.52,3,37.929,3z"/></svg>