<svg xmlns="http://www.w3.org/2000/svg" data-name="Слой 1" viewBox="0 0 48 48"><defs><linearGradient id="7vQa7ObIm8PnjZIFbaHvQa" x1="16.707" x2="32.11" y1="4.707" y2="20.11" data-name="Безымянный градиент 101" gradientUnits="userSpaceOnUse"><stop offset="0" stop-color="#21ad64"/><stop offset="1" stop-color="#088242"/></linearGradient><linearGradient id="7vQa7ObIm8PnjZIFbaHvQb" x1="14" x2="14" y1="21.125" y2="30.81" data-name="Безымянный градиент 2" gradientUnits="userSpaceOnUse"><stop offset="0" stop-color="#ffcf54"/><stop offset=".261" stop-color="#fdcb4d"/><stop offset=".639" stop-color="#f7c13a"/><stop offset="1" stop-color="#f0b421"/></linearGradient><linearGradient id="7vQa7ObIm8PnjZIFbaHvQc" x1="19" x2="44" y1="29" y2="29" data-name="Безымянный градиент 41" gradientUnits="userSpaceOnUse"><stop offset="0" stop-color="#c965eb"/><stop offset="1" stop-color="#c767e5"/></linearGradient><linearGradient id="7vQa7ObIm8PnjZIFbaHvQd" x1="4" x2="44" y1="30" y2="30" data-name="Безымянный градиент 42" gradientUnits="userSpaceOnUse"><stop offset="0" stop-color="#7819a2"/><stop offset="1" stop-color="#771aa9"/></linearGradient></defs><path fill="url(#7vQa7ObIm8PnjZIFbaHvQa)" d="M25,6a7,7,0,1,0,7,7A7,7,0,0,0,25,6Z"/><path fill="url(#7vQa7ObIm8PnjZIFbaHvQb)" d="M14,22a4,4,0,1,1-4,4,4.00082,4.00082,0,0,1,4-4"/><path fill="#f3e5f5" d="M20,35H8a.99909.99909,0,0,1-1-1V31a.99909.99909,0,0,1,1-1H20a.99909.99909,0,0,1,1,1v3A.99909.99909,0,0,1,20,35Z"/><path fill="url(#7vQa7ObIm8PnjZIFbaHvQc)" d="M44,34H19V25a1,1,0,0,1,1-1H42a2,2,0,0,1,2,2Z"/><path fill="url(#7vQa7ObIm8PnjZIFbaHvQd)" d="M8,42H5a1,1,0,0,1-1-1V20.5A2.5,2.5,0,0,1,6.5,18h0A2.5,2.5,0,0,1,9,20.5V33H43a1,1,0,0,1,1,1v7a1,1,0,0,1-1,1H40a1,1,0,0,1-1-1V38H9v3A1,1,0,0,1,8,42Z"/><path fill="#fff" d="M25,11h0a1,1,0,0,1,1,1v5a1,1,0,0,1-1,1h0a1,1,0,0,1-1-1V12A1,1,0,0,1,25,11Zm0-3a1,1,0,1,0,1,1A1,1,0,0,0,25,8Z"/></svg>