<svg xmlns="http://www.w3.org/2000/svg" id="Layer_1" x="0" y="0" version="1.1" viewBox="0 0 48 48" xml:space="preserve"><linearGradient id="SVGID_1_" x1="-257.969" x2="-229.89" y1="-432.031" y2="-460.11" gradientTransform="rotate(90 -345 -77)" gradientUnits="userSpaceOnUse"><stop offset="0" stop-color="#fede00"/><stop offset=".519" stop-color="#fecc00"/><stop offset="1" stop-color="#ffb700"/></linearGradient><path fill="url(#SVGID_1_)" d="M24,44c11,0,20-9,20-20S35,4,24,4S4,13,4,24S13,44,24,44z"/><circle cx="16" cy="22" r="4" fill="#fff"/><circle cx="32" cy="22" r="4" fill="#fff"/><circle cx="16" cy="22" r="2" fill="#343434"/><circle cx="32" cy="22" r="2" fill="#343434"/><path fill="#343434" d="M27.3,36c-1.2,0-2.4-0.6-3.3-1.7c-0.9,1.1-2,1.7-3.3,1.7c-1.5,0-3-0.9-3.9-2.5c-0.3-0.5-0.1-1.1,0.4-1.4 c0.5-0.3,1.1-0.1,1.4,0.4c0.5,0.9,1.3,1.5,2.1,1.5c0.9,0,1.8-0.8,2.3-2c0.2-0.4,0.5-0.6,0.9-0.6s0.8,0.2,0.9,0.6 c0.5,1.2,1.4,2,2.3,2c0.8,0,1.6-0.5,2.1-1.5c0.3-0.5,0.9-0.7,1.4-0.4c0.5,0.3,0.7,0.9,0.4,1.4C30.2,35.1,28.8,36,27.3,36z"/></svg>