<svg xmlns="http://www.w3.org/2000/svg" viewBox="0 0 48 48"><radialGradient id="7B6aTrDiHlfO0pwsEmIWXa" cx="32.118" cy="16.65" r="10.297" gradientTransform="matrix(-1 0 0 1 46 0)" gradientUnits="userSpaceOnUse"><stop offset=".229" stop-color="#343b9e"/><stop offset="1" stop-color="#5961c3"/></radialGradient><path fill="url(#7B6aTrDiHlfO0pwsEmIWXa)" d="M16.688,8.583C9.886,8.583,9.355,7,8.198,7S6,9.244,6,11.634c0,4.88,4.75,6.449,4.75,6.449	L16.688,8.583z"/><radialGradient id="7B6aTrDiHlfO0pwsEmIWXb" cx="34.118" cy="16.65" r="10.297" gradientUnits="userSpaceOnUse"><stop offset=".229" stop-color="#343b9e"/><stop offset="1" stop-color="#5961c3"/></radialGradient><path fill="url(#7B6aTrDiHlfO0pwsEmIWXb)" d="M37.25,18.083c0,0,4.75-1.569,4.75-6.449C42,9.244,40.96,7,39.802,7	c-1.157,0-1.688,1.583-8.49,1.583L37.25,18.083z"/><path fill="#7b83eb" d="M37.409,17.083c0,0,2.591-1.003,2.591-4.121C40,11.434,39.433,10,38.801,10	c-0.631,0-0.921,1.012-4.631,1.012L37.409,17.083z"/><path fill="#7b83eb" d="M13.83,11.012c-3.711,0-4-1.012-4.631-1.012S8,11.434,8,12.962c0,3.119,2.591,4.121,2.591,4.121	L13.83,11.012z"/><linearGradient id="7B6aTrDiHlfO0pwsEmIWXc" x1="21.719" x2="25.291" y1="6.423" y2="44.05" gradientTransform="matrix(-1 0 0 1 48 0)" gradientUnits="userSpaceOnUse"><stop offset="0" stop-color="#5961c3"/><stop offset="1" stop-color="#3a41ac"/></linearGradient><path fill="url(#7B6aTrDiHlfO0pwsEmIWXc)" d="M8.035,18.667C8.035,18.667,11.333,6,24,6s15.965,12.667,15.965,12.667S43,23.974,43,31	c0,2.503-5.127,4.154-12,7c0,0-2,4-7,4s-7-4-7-4c-6.873-2.846-12-4.497-12-7C5,23.974,8.035,18.667,8.035,18.667z"/><linearGradient id="7B6aTrDiHlfO0pwsEmIWXd" x1="24" x2="24" y1="38.969" y2="34.667" gradientUnits="userSpaceOnUse"><stop offset="0" stop-color="#7b83eb"/><stop offset=".744" stop-color="#5961c3"/><stop offset="1" stop-color="#434ab3"/></linearGradient><path fill="url(#7B6aTrDiHlfO0pwsEmIWXd)" d="M28,35c0,2.208-1.791,4-4,4s-4-1.792-4-4H28z"/><path fill="#292c61" d="M30,22c0-0.828,0.672-1.5,1.5-1.5s3,0,3,0s-0.818,3-3,3C30.672,23.5,30,22.828,30,22z"/><linearGradient id="7B6aTrDiHlfO0pwsEmIWXe" x1="38.049" x2="42.115" y1="22.792" y2="21.756" gradientUnits="userSpaceOnUse"><stop offset="0" stop-color="#7b83eb"/><stop offset="1" stop-color="#4f56bb"/></linearGradient><path fill="url(#7B6aTrDiHlfO0pwsEmIWXe)" d="M41.732,22.964c-0.299-0.956-0.609-1.773-0.887-2.436l-2.506,3.132	c-0.211,0.264,0.065,0.636,0.379,0.511L41.732,22.964z"/><linearGradient id="7B6aTrDiHlfO0pwsEmIWXf" x1="39.107" x2="43.388" y1="27.548" y2="26.457" gradientUnits="userSpaceOnUse"><stop offset="0" stop-color="#7b83eb"/><stop offset="1" stop-color="#4f56bb"/></linearGradient><path fill="url(#7B6aTrDiHlfO0pwsEmIWXf)" d="M42.805,27.935c-0.128-1.049-0.307-2.043-0.521-2.956l-2.843,3.554	c-0.239,0.298,0.074,0.719,0.428,0.577L42.805,27.935z"/><linearGradient id="7B6aTrDiHlfO0pwsEmIWXg" x1="38.049" x2="42.115" y1="22.792" y2="21.756" gradientTransform="matrix(-1 0 0 1 48 0)" gradientUnits="userSpaceOnUse"><stop offset="0" stop-color="#7b83eb"/><stop offset="1" stop-color="#4f56bb"/></linearGradient><path fill="url(#7B6aTrDiHlfO0pwsEmIWXg)" d="M6.268,22.964c0.299-0.956,0.609-1.773,0.887-2.436l2.506,3.132	c0.211,0.264-0.065,0.636-0.379,0.511L6.268,22.964z"/><linearGradient id="7B6aTrDiHlfO0pwsEmIWXh" x1="39.107" x2="43.388" y1="27.548" y2="26.457" gradientTransform="matrix(-1 0 0 1 48 0)" gradientUnits="userSpaceOnUse"><stop offset="0" stop-color="#7b83eb"/><stop offset="1" stop-color="#4f56bb"/></linearGradient><path fill="url(#7B6aTrDiHlfO0pwsEmIWXh)" d="M5.195,27.935c0.128-1.049,0.307-2.043,0.521-2.956l2.843,3.554	c0.239,0.298-0.074,0.719-0.428,0.577L5.195,27.935z"/><path fill="#292c61" d="M16.5,23.5c-2.182,0-3-3-3-3s2.172,0,3,0c0.828,0,1.5,0.672,1.5,1.5C18,22.828,17.328,23.5,16.5,23.5	z"/><linearGradient id="7B6aTrDiHlfO0pwsEmIWXi" x1="24" x2="24" y1="26.742" y2="13.946" gradientTransform="matrix(-1 0 0 1 48 0)" gradientUnits="userSpaceOnUse"><stop offset="0" stop-color="#7b83eb"/><stop offset=".744" stop-color="#5961c3"/><stop offset="1" stop-color="#434ab3"/></linearGradient><path fill="url(#7B6aTrDiHlfO0pwsEmIWXi)" d="M20,26c1.33-1.821,1-10,1-10h6c0,0-0.33,8.179,1,10c2.897,0,6,4,6,4c0,4.75-3.559,5-10,5	s-10-0.25-10-5C14,30,17.103,26,20,26z"/><path fill="#7b83eb" d="M19,13c0,0,1.033-1.544,3.398-2H17c0,0,2.325-2,7-2s7,2,7,2h-5.398C28.009,11.508,29,13,29,13H19z"/><linearGradient id="7B6aTrDiHlfO0pwsEmIWXj" x1="24" x2="24" y1="28.252" y2="32.934" gradientUnits="userSpaceOnUse"><stop offset=".229" stop-color="#3a41ac"/><stop offset="1" stop-color="#5961c3"/></linearGradient><path fill="url(#7B6aTrDiHlfO0pwsEmIWXj)" d="M23.59,32.659L23,29.492c-0.103-0.552,0.261-1.083,0.814-1.186	c0.552-0.103,1.083,0.261,1.186,0.814c0.023,0.126,0.022,0.254,0,0.373l-0.59,3.167c-0.042,0.227-0.26,0.376-0.487,0.334	C23.75,32.96,23.621,32.823,23.59,32.659z"/><path fill="#292c61" d="M20,26c0,3.094,2.749,4,4,4s4-0.906,4-4H20z"/></svg>