<svg xmlns="http://www.w3.org/2000/svg" id="Layer_1" x="0" y="0" version="1.1" viewBox="0 0 48 48" xml:space="preserve"><linearGradient id="SVGID_1_" x1="18.989" x2="38.479" y1="-31.85" y2="-61.021" gradientTransform="matrix(1 0 0 -1 0 -18)" gradientUnits="userSpaceOnUse"><stop offset="0" stop-color="#5059c9"/><stop offset=".999" stop-color="#4750b3"/></linearGradient><path fill="url(#SVGID_1_)" d="M8.9,20.6L38,9v21.3c0,0.9-0.7,1.6-1.6,1.6H8.9V20.6z"/><linearGradient id="SVGID_2_" x1="2.697" x2="30.999" y1="-37.328" y2="-54.958" gradientTransform="matrix(1 0 0 -1 0 -18)" gradientUnits="userSpaceOnUse"><stop offset="0" stop-color="#5961c3"/><stop offset="1" stop-color="#3a41ac"/></linearGradient><path fill="url(#SVGID_2_)" d="M4,9v21.4C4,31.3,4.7,32,5.6,32h30.8c0.4,0,0.8-0.1,1-0.4L4,9z"/><path fill="#7b83eb" d="M5.6,6h30.8C37.3,6,38,6.8,38,7.7V9L22.8,19.4c-1.1,0.7-2.5,0.7-3.6,0L4,9V7.7C4,6.8,4.7,6,5.6,6z"/><path d="M37,12H10.6C9.2,12,8,13.2,8,14.6V29h1l28-16V12z" opacity=".05"/><path d="M37,12.5H10.6c-1.2,0-2.1,1-2.1,2.1V29H10l27-16V12.5z" opacity=".07"/><linearGradient id="SVGID_3_" x1="23.989" x2="43.479" y1="-38.85" y2="-68.021" gradientTransform="matrix(1 0 0 -1 0 -18)" gradientUnits="userSpaceOnUse"><stop offset="0" stop-color="#28afea"/><stop offset="1" stop-color="#0b88da"/></linearGradient><path fill="url(#SVGID_3_)" d="M13.9,27.6L43,16v21.3c0,0.9-0.7,1.6-1.6,1.6H13.9V27.6z"/><linearGradient id="SVGID_4_" x1="7.711" x2="35.982" y1="-44.332" y2="-61.942" gradientTransform="matrix(1 0 0 -1 0 -18)" gradientUnits="userSpaceOnUse"><stop offset="0" stop-color="#28afea"/><stop offset="1" stop-color="#0b88da"/></linearGradient><path fill="url(#SVGID_4_)" d="M9,16v21.3c0,0.9,0.7,1.6,1.6,1.6h30.8c0.4,0,0.8-0.1,1-0.4L9,16z"/><path d="M9,15.5h34v1.4L29,28c-1.8,1.4-4.2,1.4-6,0L9,16.9V15.5z" opacity=".05"/><path d="M9,15.1h34v1.4L28.4,27.2c-1.4,1.1-3.4,1.1-4.8,0L9,16.5V15.1z" opacity=".07"/><radialGradient id="SVGID_5_" cx="37.904" cy="38.093" r="12.354" gradientUnits="userSpaceOnUse"><stop offset="0"/><stop offset=".979" stop-opacity="0"/></radialGradient><path fill="url(#SVGID_5_)" d="M38,26c-6.6,0-12,5.4-12,12c0,0.3,0,0.6,0,1h15.3c0.2,0,0.4,0,0.5-0.1c0,0,0,0,0,0c0.6-0.2,1-0.8,1-1.5V27.1	C41.5,26.4,39.8,26,38,26z"/><path fill="#50e6ff" d="M10.6,13h30.8c0.9,0,1.6,0.7,1.6,1.6V16L27.8,26.4c-1.1,0.7-2.5,0.7-3.6,0L9,16v-1.4C9,13.8,9.7,13,10.6,13z"/><linearGradient id="SVGID_6_" x1="30.929" x2="45.071" y1="-48.929" y2="-63.071" gradientTransform="matrix(1 0 0 -1 0 -18)" gradientUnits="userSpaceOnUse"><stop offset="0" stop-color="#f44f5a"/><stop offset=".443" stop-color="#ee3d4a"/><stop offset="1" stop-color="#e52030"/></linearGradient><path fill="url(#SVGID_6_)" d="M48,38c0,5.5-4.5,10-10,10s-10-4.5-10-10s4.5-10,10-10S48,32.5,48,38z"/><path fill="#fff" d="M41.5,33.8l0.7,0.7c0.2,0.2,0.2,0.5,0,0.7l-7.1,7.1c-0.2,0.2-0.5,0.2-0.7,0l-0.7-0.7c-0.2-0.2-0.2-0.5,0-0.7	l7.1-7.1C41,33.6,41.3,33.6,41.5,33.8z"/><path fill="#fff" d="M42.2,41.5l-0.7,0.7c-0.2,0.2-0.5,0.2-0.7,0l-7.1-7.1c-0.2-0.2-0.2-0.5,0-0.7l0.7-0.7c0.2-0.2,0.5-0.2,0.7,0	l7.1,7.1C42.4,41,42.4,41.3,42.2,41.5z"/></svg>