<svg xmlns="http://www.w3.org/2000/svg" id="Layer_1" x="0" y="0" version="1.1" viewBox="0 0 48 48" xml:space="preserve"><linearGradient id="SVGID_1_" x1="6" x2="8" y1="25" y2="25" gradientUnits="userSpaceOnUse"><stop offset="0" stop-color="#3079d6"/><stop offset="1" stop-color="#297cd2"/></linearGradient><path fill="url(#SVGID_1_)" d="M6.5,6h1C7.8,6,8,6.2,8,6.5v37C8,43.8,7.8,44,7.5,44h-1C6.2,44,6,43.8,6,43.5v-37C6,6.2,6.2,6,6.5,6z"/><path fill="#50e6ff" d="M8,6v23c16.5-7,16.6,7,34,0V6C24.6,13,24.5-1,8,6z"/><path fill="#e52030" d="M44.9,42.7L5.3,3.1C5.1,3,4.9,3,4.7,3.1L3.1,4.7C3,4.9,3,5.1,3.1,5.3l39.6,39.6c0.1,0.1,0.4,0.1,0.5,0l1.6-1.6	C45,43.1,45,42.9,44.9,42.7z"/></svg>