<svg xmlns="http://www.w3.org/2000/svg" viewBox="0 0 48 48"><linearGradient id="_rzH9o95oht9DWr1~BloAa" x1="16.357" x2="37.894" y1="68.683" y2="103.724" gradientTransform="matrix(-1 0 0 1 50 -66)" gradientUnits="userSpaceOnUse"><stop offset="0" stop-color="#0176d0"/><stop offset="1" stop-color="#16538c"/></linearGradient><path fill="url(#_rzH9o95oht9DWr1~BloAa)" d="M4,7.867v24.266C4,33.165,4.85,34,5.9,34h34.2c1.05,0,1.9-0.835,1.9-1.866V7.867	C42,6.835,41.15,6,40.1,6H5.9C4.85,6,4,6.835,4,7.867z"/><path d="M42,34V8H8.949C7.323,8,6,9.322,6,10.948V34H42z" opacity=".05"/><path d="M42,34V8.5H8.949C7.599,8.5,6.5,9.598,6.5,10.948V34H42z" opacity=".07"/><linearGradient id="_rzH9o95oht9DWr1~BloAb" x1="12.522" x2="34.736" y1="71.639" y2="107.781" gradientTransform="matrix(-1 0 0 1 50 -66)" gradientUnits="userSpaceOnUse"><stop offset="0" stop-color="#33bef0"/><stop offset="1" stop-color="#0a85d9"/></linearGradient><path fill="url(#_rzH9o95oht9DWr1~BloAb)" d="M7,10.949v25.102C7,37.128,7.872,38,8.949,38h16.986l8.402,8.402	C34.951,47.016,36,46.581,36,45.713V38h8.051C45.128,38,46,37.128,46,36.052V10.949C46,9.872,45.128,9,44.051,9H8.949	C7.872,9,7,9.872,7,10.949z"/><path fill="#e52030" d="M44.888,42.734L5.266,3.112c-0.149-0.149-0.39-0.149-0.539,0L3.112,4.728	c-0.149,0.149-0.149,0.39,0,0.539l39.622,39.622c0.149,0.149,0.39,0.149,0.539,0l1.616-1.616	C45.037,43.124,45.037,42.882,44.888,42.734z"/></svg>