<svg xmlns="http://www.w3.org/2000/svg" viewBox="0 0 48 48"><polygon fill="#166fd2" points="41.079,22.292 40.09,24 18.09,24 18.09,10.159 21.539,8.439"/><circle cx="20.249" cy="10.159" r="2.159" fill="#166fd2"/><polygon fill="#105cbd" points="41.079,25.708 40.09,24 18.09,24 18.09,37.841 21.539,39.561"/><circle cx="20.249" cy="37.841" r="2.159" fill="#105cbd"/><circle cx="39.749" cy="24" r="2.159" fill="#166fd2"/><path fill="#166fd2" d="M12.092,8h-4c-1.105,0-2,0.895-2,2v14h8V10C14.092,8.895,13.197,8,12.092,8z"/><path fill="#105cbd" d="M8.092,40h4c1.105,0,2-0.895,2-2V24h-8v14C6.092,39.105,6.988,40,8.092,40z"/><path fill="#105cbd" d="M39.749,26.159c1.192,0,2.159-0.967,2.159-2.159H37.59C37.59,25.192,38.556,26.159,39.749,26.159z"/></svg>