<svg xmlns="http://www.w3.org/2000/svg" viewBox="0 0 48 48"><linearGradient id="Xr7ZOoI4OZDLq707j99V2a" x1="13.332" x2="44.012" y1="44.063" y2="-13.638" gradientTransform="matrix(1 0 0 -1 0 48)" gradientUnits="userSpaceOnUse"><stop offset="0" stop-color="#f7ab40"/><stop offset=".332" stop-color="#f4a73c"/><stop offset=".844" stop-color="#ed992f"/><stop offset="1" stop-color="#e2861d"/></linearGradient><path fill="url(#Xr7ZOoI4OZDLq707j99V2a)" d="M38,4H10C8.895,4,8,4.895,8,6v36c0,1.105,0.895,2,2,2h28c1.105,0,2-0.895,2-2V6	C40,4.895,39.105,4,38,4z"/><path d="M40,6v2.24l-1.57,3.13c-0.5,1-1.51,1.63-2.64,1.63H12.21	c-1.13,0-2.14-0.63-2.64-1.63L8,8.24V6c0-1.1,0.9-2,2-2h28C39.1,4,40,4.9,40,6z" opacity=".05"/><path d="M40,6v1.12l-2.01,4.02c-0.42,0.84-1.26,1.36-2.2,1.36H12.21	c-0.94,0-1.78-0.52-2.2-1.36L8,7.12V6c0-1.1,0.9-2,2-2h28C39.1,4,40,4.9,40,6z" opacity=".07"/><linearGradient id="Xr7ZOoI4OZDLq707j99V2b" x1="1.734" x2="43.628" y1="83.976" y2="5.185" gradientTransform="matrix(1 0 0 -1 0 48)" gradientUnits="userSpaceOnUse"><stop offset="0" stop-color="#eba84b"/><stop offset="1" stop-color="#d97218"/></linearGradient><path fill="url(#Xr7ZOoI4OZDLq707j99V2b)" d="M40,6l-2.46,4.92C37.209,11.582,36.532,12,35.792,12H12.208c-0.74,0-1.417-0.418-1.748-1.08	L8,6c0-1.1,0.9-2,2-2h28C39.1,4,40,4.9,40,6z"/><path d="M40,39.76V42c0,1.1-0.9,2-2,2H10c-1.1,0-2-0.9-2-2v-2.24l1.55-3.1	c0.51-1.02,1.54-1.66,2.69-1.66h23.52c1.15,0,2.18,0.64,2.69,1.66L40,39.76z" opacity=".05"/><path d="M40,40.88V42c0,1.1-0.9,2-2,2H10c-1.1,0-2-0.9-2-2v-1.12l2-4	c0.43-0.85,1.28-1.38,2.24-1.38h23.52c0.96,0,1.81,0.53,2.24,1.38L40,40.88z" opacity=".07"/><linearGradient id="Xr7ZOoI4OZDLq707j99V2c" x1="3.479" x2="39.576" y1="44.493" y2="-23.395" gradientTransform="matrix(1 0 0 -1 0 48)" gradientUnits="userSpaceOnUse"><stop offset="0" stop-color="#eba84b"/><stop offset="1" stop-color="#d97218"/></linearGradient><path fill="url(#Xr7ZOoI4OZDLq707j99V2c)" d="M40,42l-2.447-4.894C37.214,36.428,36.521,36,35.764,36H12.236	c-0.758,0-1.45,0.428-1.789,1.106L8,42c0,1.1,0.9,2,2,2h28C39.1,44,40,43.1,40,42z"/><rect width="2" height="9" x="23" y="8" fill="#f6eca5"/><linearGradient id="Xr7ZOoI4OZDLq707j99V2d" x1="23.464" x2="26.123" y1="41.008" y2="36.006" gradientTransform="matrix(1 0 0 -1 0 48)" gradientUnits="userSpaceOnUse"><stop offset="0" stop-color="#f44f5a"/><stop offset=".443" stop-color="#ee3d4a"/><stop offset="1" stop-color="#e52030"/></linearGradient><circle cx="24" cy="8" r="2" fill="url(#Xr7ZOoI4OZDLq707j99V2d)"/><linearGradient id="Xr7ZOoI4OZDLq707j99V2e" x1="23.072" x2="25.732" y1="32.745" y2="27.743" gradientTransform="matrix(1 0 0 -1 0 48)" gradientUnits="userSpaceOnUse"><stop offset="0" stop-color="#f44f5a"/><stop offset=".443" stop-color="#ee3d4a"/><stop offset="1" stop-color="#e52030"/></linearGradient><circle cx="24" cy="17" r="2" fill="url(#Xr7ZOoI4OZDLq707j99V2e)"/></svg>