<svg xmlns="http://www.w3.org/2000/svg" viewBox="0 0 48 48"><path fill="#64717c" d="M32,32H7V7h25V32z M9,30h21V9H9V30z"/><polygon fill="#64717c" points="41,42 16,42 16,31 18,31 18,40 39,40 39,19 31,19 31,17 41,17"/><linearGradient id="sVICzTQeKwDhzjIYm6DPYa" x1="6.011" x2="10.213" y1="6.011" y2="10.213" gradientUnits="userSpaceOnUse"><stop offset="0" stop-color="#33bef0"/><stop offset="1" stop-color="#0a85d9"/></linearGradient><circle cx="8" cy="8" r="3" fill="url(#sVICzTQeKwDhzjIYm6DPYa)"/><linearGradient id="sVICzTQeKwDhzjIYm6DPYb" x1="29.011" x2="33.212" y1="6.011" y2="10.213" gradientUnits="userSpaceOnUse"><stop offset="0" stop-color="#33bef0"/><stop offset="1" stop-color="#0a85d9"/></linearGradient><circle cx="31" cy="8" r="3" fill="url(#sVICzTQeKwDhzjIYm6DPYb)"/><linearGradient id="sVICzTQeKwDhzjIYm6DPYc" x1="6.011" x2="10.213" y1="29.011" y2="33.212" gradientUnits="userSpaceOnUse"><stop offset="0" stop-color="#33bef0"/><stop offset="1" stop-color="#0a85d9"/></linearGradient><circle cx="8" cy="31" r="3" fill="url(#sVICzTQeKwDhzjIYm6DPYc)"/><linearGradient id="sVICzTQeKwDhzjIYm6DPYd" x1="29.011" x2="33.212" y1="29.011" y2="33.212" gradientUnits="userSpaceOnUse"><stop offset="0" stop-color="#33bef0"/><stop offset="1" stop-color="#0a85d9"/></linearGradient><circle cx="31" cy="31" r="3" fill="url(#sVICzTQeKwDhzjIYm6DPYd)"/><linearGradient id="sVICzTQeKwDhzjIYm6DPYe" x1="15.011" x2="19.212" y1="38.011" y2="42.212" gradientUnits="userSpaceOnUse"><stop offset="0" stop-color="#33bef0"/><stop offset="1" stop-color="#0a85d9"/></linearGradient><circle cx="17" cy="40" r="3" fill="url(#sVICzTQeKwDhzjIYm6DPYe)"/><linearGradient id="sVICzTQeKwDhzjIYm6DPYf" x1="38.011" x2="42.212" y1="38.011" y2="42.212" gradientUnits="userSpaceOnUse"><stop offset="0" stop-color="#33bef0"/><stop offset="1" stop-color="#0a85d9"/></linearGradient><circle cx="40" cy="40" r="3" fill="url(#sVICzTQeKwDhzjIYm6DPYf)"/><linearGradient id="sVICzTQeKwDhzjIYm6DPYg" x1="38.011" x2="42.212" y1="15.011" y2="19.212" gradientUnits="userSpaceOnUse"><stop offset="0" stop-color="#33bef0"/><stop offset="1" stop-color="#0a85d9"/></linearGradient><circle cx="40" cy="17" r="3" fill="url(#sVICzTQeKwDhzjIYm6DPYg)"/></svg>