<svg xmlns="http://www.w3.org/2000/svg" data-name="Layer 1" viewBox="0 0 48 48"><defs><linearGradient id="BaPM~rDFo3YC0QWo15woGa" x1="12.389" x2="34.183" y1="5.859" y2="64.977" gradientUnits="userSpaceOnUse"><stop offset="0" stop-color="#fed100"/><stop offset="1" stop-color="#e38101"/></linearGradient></defs><path fill="url(#BaPM~rDFo3YC0QWo15woGa)" d="M40.03,41.05c-1.39.29-2.75.56-4.07.78-.68.12-1.34.23-2,.32A64.46629,64.46629,0,0,1,7.9,41.09a3.83676,3.83676,0,0,1-2.69-5.04A111.4649,111.4649,0,0,1,20.92,7.55a3.83148,3.83148,0,0,1,6.16,0A111.85328,111.85328,0,0,1,42.77,36,3.82855,3.82855,0,0,1,40.03,41.05Z"/><path fill="#e38101" d="M35.96,41.83c-.68.12-1.34.23-2,.32-.33-10.41-3.62-18.11-9.54-22.34a.99625.99625,0,0,1,1.16-1.62C31.98,22.75,35.55,30.9,35.96,41.83Z"/><circle cx="10" cy="34" r="1" fill="#e38101"/><circle cx="16" cy="31" r="1" fill="#e38101"/><circle cx="26" cy="11" r="1" fill="#e38101"/><circle cx="15" cy="38" r="1" fill="#e38101"/><circle cx="22" cy="14" r="1" fill="#e38101"/></svg>