<svg xmlns="http://www.w3.org/2000/svg" viewBox="0 0 48 48"><circle cx="9.275" cy="18.347" r="1.786" fill="#c98e00"/><polygon fill="#c98e00" points="10.655,28.213 11.061,18.35 7.506,18.168 6.187,29.9"/><linearGradient id="67CdQw3yZRzXSnFOM6DCLa" x1="26.417" x2="27.693" y1="226.949" y2="229.149" gradientTransform="scale(-1) rotate(67.5 201.023 70.42)" gradientUnits="userSpaceOnUse"><stop offset="0" stop-color="#f0b421" stop-opacity="0"/><stop offset=".512" stop-color="#e9ab12" stop-opacity=".512"/><stop offset="1" stop-color="#e09f00"/></linearGradient><path fill="url(#67CdQw3yZRzXSnFOM6DCLa)" d="M6.492,27.823l6.281,6.329l2.317-0.96c-4.27-4.625-4.809-5.164-5.191-5.976l-1.066-0.71	C8.222,27.739,6.492,27.823,6.492,27.823z"/><circle cx="38.725" cy="18.347" r="1.786" fill="#c98e00"/><polygon fill="#c98e00" points="41.813,29.9 40.494,18.168 36.939,18.35 37.345,28.213"/><linearGradient id="67CdQw3yZRzXSnFOM6DCLb" x1="34.7" x2="35.976" y1="206.951" y2="209.151" gradientTransform="scale(1 -1) rotate(67.5 214.2 90.14)" gradientUnits="userSpaceOnUse"><stop offset="0" stop-color="#f0b421" stop-opacity="0"/><stop offset=".512" stop-color="#e9ab12" stop-opacity=".512"/><stop offset="1" stop-color="#e09f00"/></linearGradient><path fill="url(#67CdQw3yZRzXSnFOM6DCLb)" d="M39.167,26.506l-1.066,0.71c-0.383,0.812-0.922,1.352-5.191,5.976l2.317,0.96l6.281-6.329	C41.508,27.823,39.778,27.739,39.167,26.506z"/><linearGradient id="67CdQw3yZRzXSnFOM6DCLc" x1="25.942" x2="43.642" y1="28.427" y2="28.427" gradientUnits="userSpaceOnUse"><stop offset="0" stop-color="#ffcf54"/><stop offset=".261" stop-color="#fdcb4d"/><stop offset=".639" stop-color="#f7c13a"/><stop offset="1" stop-color="#f0b421"/></linearGradient><path fill="url(#67CdQw3yZRzXSnFOM6DCLc)" d="M34.941,42l0.003-4.088l8.158-8.231l0-0.001c0.172-0.166,0.314-0.367,0.411-0.601	c0.119-0.287,0.149-0.586,0.117-0.875l0.004-0.011l-1.317-11.732l-0.002,0c-0.065-0.631-0.457-1.21-1.085-1.47	c-0.911-0.378-1.956,0.055-2.333,0.966c-0.093,0.224-0.136,0.457-0.135,0.685l-0.001,0l0,0.009c0,0.002,0,0.003,0,0.005l0.405,9.85	l-1.07,0.717c0.377-0.911-0.055-1.956-0.966-2.333c-0.614-0.254-1.284-0.134-1.774,0.245l-0.009-0.007l-8.262,7.132l-0.007,0.016	c-0.361,0.338-0.662,0.749-0.864,1.236c-0.196,0.474-0.278,0.965-0.267,1.447l-0.006,0.015V42H34.941z"/><linearGradient id="67CdQw3yZRzXSnFOM6DCLd" x1="19.9" x2="27.509" y1="249.785" y2="231.626" gradientTransform="matrix(1 0 0 -1 0 254)" gradientUnits="userSpaceOnUse"><stop offset="0" stop-color="#eba84b"/><stop offset="1" stop-color="#d97218"/></linearGradient><path fill="url(#67CdQw3yZRzXSnFOM6DCLd)" d="M31.552,22H16.448C16.202,22,16,21.798,16,21.552V6.448C16,6.201,16.201,6,16.448,6h15.104	C31.799,6,32,6.201,32,6.448v15.104C32,21.798,31.798,22,31.552,22z"/><rect width="4" height="2" x="22" y="6" fill="#fabb62"/><linearGradient id="67CdQw3yZRzXSnFOM6DCLe" x1="4.358" x2="22.058" y1="28.427" y2="28.427" gradientUnits="userSpaceOnUse"><stop offset="0" stop-color="#ffcf54"/><stop offset=".261" stop-color="#fdcb4d"/><stop offset=".639" stop-color="#f7c13a"/><stop offset="1" stop-color="#f0b421"/></linearGradient><path fill="url(#67CdQw3yZRzXSnFOM6DCLe)" d="M13.059,42h8.999v-7.026l-0.006-0.015c0.011-0.482-0.071-0.973-0.267-1.447	c-0.201-0.486-0.503-0.898-0.864-1.236l-0.007-0.016l-8.262-7.132l-0.009,0.007c-0.49-0.379-1.16-0.499-1.774-0.245	c-0.911,0.378-1.344,1.422-0.966,2.333l-1.07-0.717l0.405-9.85c0-0.002,0-0.003,0-0.005l0-0.009l-0.001,0	c0.001-0.228-0.042-0.461-0.135-0.685c-0.378-0.911-1.422-1.344-2.333-0.966c-0.628,0.26-1.02,0.839-1.085,1.47l-0.002,0	L4.366,28.193l0.004,0.011c-0.032,0.289-0.001,0.588,0.117,0.875c0.097,0.234,0.239,0.435,0.411,0.601l0,0.001l8.158,8.231	L13.059,42z"/><circle cx="11.553" cy="26.54" r="1.071" fill="#ffde87"/><circle cx="36.447" cy="26.54" r="1.071" fill="#ffde87"/></svg>