<svg xmlns="http://www.w3.org/2000/svg" viewBox="0 0 48 48"><linearGradient id="dtztpUEis4g3Zwxjw4qw8a" x1="10.59" x2="32.356" y1="7.713" y2="41.028" gradientUnits="userSpaceOnUse"><stop offset="0" stop-color="#fede00"/><stop offset="1" stop-color="#ffd000"/></linearGradient><path fill="url(#dtztpUEis4g3Zwxjw4qw8a)" d="M37.921,11H4c-1.105,0-2,0.895-2,2v22c0,1.105,0.895,2,2,2h40c1.105,0,2-0.895,2-2v-8	l-5.27-14.053C40.291,11.776,39.172,11,37.921,11z"/><path fill="#586169" d="M43,37c0,2.761-2.238,5-5,5s-5-2.239-5-5s2.238-5,5-5S43,34.239,43,37"/><path fill="#586169" d="M17,37c0,2.761-2.239,5-5,5s-5-2.239-5-5s2.239-5,5-5S17,34.239,17,37"/><path fill="#999" d="M40,37c0,1.105-0.895,2-2,2s-2-0.895-2-2s0.895-2,2-2S40,35.895,40,37"/><path fill="#999" d="M14,37c0,1.105-0.895,2-2,2s-2-0.895-2-2s0.895-2,2-2S14,35.895,14,37"/><circle cx="16" cy="22" r="7" fill="#fff"/><linearGradient id="dtztpUEis4g3Zwxjw4qw8b" x1="16" x2="16" y1="18.013" y2="26.11" gradientUnits="userSpaceOnUse"><stop offset="0" stop-color="#f44f5a"/><stop offset=".443" stop-color="#ee3d4a"/><stop offset="1" stop-color="#e52030"/></linearGradient><path fill="url(#dtztpUEis4g3Zwxjw4qw8b)" d="M19.5,21H17v-2.5c0-0.276-0.224-0.5-0.5-0.5h-1c-0.276,0-0.5,0.224-0.5,0.5V21h-2.5	c-0.276,0-0.5,0.224-0.5,0.5v1c0,0.276,0.224,0.5,0.5,0.5H15v2.5c0,0.276,0.224,0.5,0.5,0.5h1c0.276,0,0.5-0.224,0.5-0.5V23h2.5	c0.276,0,0.5-0.224,0.5-0.5v-1C20,21.224,19.776,21,19.5,21z"/><linearGradient id="dtztpUEis4g3Zwxjw4qw8c" x1="29.5" x2="29.5" y1="5.94" y2="20.175" gradientUnits="userSpaceOnUse"><stop offset="0" stop-color="#f44f5a"/><stop offset=".443" stop-color="#ee3d4a"/><stop offset="1" stop-color="#e52030"/></linearGradient><path fill="url(#dtztpUEis4g3Zwxjw4qw8c)" d="M29.61,7H28v4h3l-0.905-3.621C30.039,7.156,29.839,7,29.61,7z"/><path fill="#cf1928" d="M26.39,7H28v4h-3l0.905-3.621C25.961,7.156,26.161,7,26.39,7z"/><linearGradient id="dtztpUEis4g3Zwxjw4qw8d" x1="42.166" x2="33.108" y1="25.435" y2="15.836" gradientUnits="userSpaceOnUse"><stop offset="0" stop-color="#3079d6"/><stop offset="1" stop-color="#297cd2"/></linearGradient><path fill="url(#dtztpUEis4g3Zwxjw4qw8d)" d="M32,15v7c0,0.552,0.448,1,1,1h2.382c0.379,0,0.725,0.214,0.894,0.553l0.447,0.894	C36.893,24.786,37.239,25,37.618,25H41c0.552,0,1-0.448,1-1v-1.163l-2.81-8.163C39.051,14.271,38.671,14,38.244,14H33	C32.448,14,32,14.448,32,15z"/></svg>