<svg xmlns="http://www.w3.org/2000/svg" viewBox="0 0 48 48"><radialGradient id="s5JNctiIqLfQGXw7l__7ba" cx="24" cy="24" r="19.506" gradientUnits="userSpaceOnUse"><stop offset="0" stop-color="#ffcf54"/><stop offset=".261" stop-color="#fdcb4d"/><stop offset=".639" stop-color="#f7c13a"/><stop offset="1" stop-color="#f0b421"/></radialGradient><path fill="url(#s5JNctiIqLfQGXw7l__7ba)" d="M43.987,6.185C44.1,5.46,43.451,4.858,42.739,5.03C40.135,5.657,34.378,8.12,29.14,17.71 c-1.869-0.441-3.838-0.646-5.14-0.646s-3.27,0.205-5.14,0.646C13.622,8.12,7.865,5.657,5.261,5.03 C4.549,4.858,3.9,5.46,4.013,6.185c1.244,8.027,6.622,13.168,8.899,15.025c-1.353,1.807-1.875,4.084-1.875,6.855 c0,3.983-1.037,4.316-1.037,6.97C10,38.864,15.185,43,24,43s14-4.136,14-7.966c0-2.654-1.037-2.987-1.037-6.97 c0-2.771-0.522-5.048-1.875-6.855C37.366,19.353,42.743,14.212,43.987,6.185z"/><linearGradient id="s5JNctiIqLfQGXw7l__7bb" x1="41.474" x2="41.474" y1="5" y2="14.319" gradientUnits="userSpaceOnUse"><stop offset="0" stop-color="#636363"/><stop offset="1" stop-color="#444"/></linearGradient><path fill="url(#s5JNctiIqLfQGXw7l__7bb)" d="M42.739,5.03c-0.921,0.222-2.242,0.684-3.79,1.6c0.871,1.637,1.765,4.131,2.07,7.69 c1.337-2.246,2.477-4.961,2.969-8.134C44.1,5.46,43.451,4.858,42.739,5.03z"/><linearGradient id="s5JNctiIqLfQGXw7l__7bc" x1="6.526" x2="6.526" y1="5" y2="14.319" gradientUnits="userSpaceOnUse"><stop offset="0" stop-color="#636363"/><stop offset="1" stop-color="#444"/></linearGradient><path fill="url(#s5JNctiIqLfQGXw7l__7bc)" d="M5.261,5.03C4.549,4.858,3.9,5.46,4.013,6.185c0.492,3.173,1.633,5.887,2.969,8.134 c0.305-3.558,1.198-6.053,2.07-7.69C7.503,5.713,6.182,5.252,5.261,5.03z"/><linearGradient id="s5JNctiIqLfQGXw7l__7bd" x1="18.354" x2="14.865" y1="26.646" y2="30.135" gradientUnits="userSpaceOnUse"><stop offset="0" stop-color="#636363"/><stop offset="1" stop-color="#444"/></linearGradient><circle cx="16.5" cy="28.5" r="2.5" fill="url(#s5JNctiIqLfQGXw7l__7bd)"/><linearGradient id="s5JNctiIqLfQGXw7l__7be" x1="29.359" x2="33.303" y1="26.359" y2="30.303" gradientUnits="userSpaceOnUse"><stop offset="0" stop-color="#636363"/><stop offset="1" stop-color="#444"/></linearGradient><circle cx="31.5" cy="28.5" r="2.5" fill="url(#s5JNctiIqLfQGXw7l__7be)"/><linearGradient id="s5JNctiIqLfQGXw7l__7bf" x1="24" x2="24" y1="30" y2="33" gradientUnits="userSpaceOnUse"><stop offset="0" stop-color="#636363"/><stop offset="1" stop-color="#444"/></linearGradient><path fill="url(#s5JNctiIqLfQGXw7l__7bf)" d="M22.774,30h2.451c0.689,0,1.033,0.901,0.546,1.428l-1.226,1.327 c-0.302,0.327-0.791,0.327-1.093,0l-1.226-1.327C21.741,30.901,22.086,30,22.774,30z"/><linearGradient id="s5JNctiIqLfQGXw7l__7bg" x1="35.5" x2="35.5" y1="32" y2="39.66" gradientUnits="userSpaceOnUse"><stop offset="0" stop-color="#f45560"/><stop offset="1" stop-color="#cf1928"/></linearGradient><path fill="url(#s5JNctiIqLfQGXw7l__7bg)" d="M33,36c0,1.638,0.986,3.041,2.395,3.66C37.086,38.278,38,36.632,38,35.034 c0-1.327-0.259-2.073-0.518-2.986C37.322,32.029,37.165,32,37,32C34.791,32,33,33.791,33,36z"/><linearGradient id="s5JNctiIqLfQGXw7l__7bh" x1="12.5" x2="12.5" y1="32" y2="39.66" gradientUnits="userSpaceOnUse"><stop offset="0" stop-color="#f45560"/><stop offset="1" stop-color="#cf1928"/></linearGradient><path fill="url(#s5JNctiIqLfQGXw7l__7bh)" d="M15,36c0-2.209-1.791-4-4-4c-0.165,0-0.322,0.029-0.482,0.049 C10.259,32.961,10,33.708,10,35.034c0,1.597,0.914,3.244,2.605,4.625C14.014,39.041,15,37.638,15,36z"/><circle cx="17" cy="28" r="1" fill="#fff"/><circle cx="31" cy="28" r="1" fill="#fff"/><linearGradient id="s5JNctiIqLfQGXw7l__7bi" x1="24" x2="24" y1="41" y2="34" gradientUnits="userSpaceOnUse"><stop offset="0" stop-color="#f45560"/><stop offset="1" stop-color="#cf1928"/></linearGradient><path fill="url(#s5JNctiIqLfQGXw7l__7bi)" d="M24,34c-1.488,0.983-4,0.875-4,0.875C20,39.25,23.007,41,24,41c1.006,0,4-1.75,4-6.125 C28,34.875,25.501,34.992,24,34z"/><linearGradient id="s5JNctiIqLfQGXw7l__7bj" x1="24.001" x2="24.001" y1="36" y2="41" gradientUnits="userSpaceOnUse"><stop offset="0" stop-color="#e880a1"/><stop offset="1" stop-color="#e85482"/></linearGradient><path fill="url(#s5JNctiIqLfQGXw7l__7bj)" d="M24,36c-1.401,0-2.663,0.579-3.571,1.507C21.294,39.964,23.238,41,24,41 c0.772,0,2.71-1.036,3.572-3.491C26.664,36.58,25.401,36,24,36z"/></svg>