<svg xmlns="http://www.w3.org/2000/svg" viewBox="0 0 48 48"><linearGradient id="xtqSr2w7kFlGdlcxCtcjCa" x1="43.862" x2="3.407" y1="25" y2="25" gradientUnits="userSpaceOnUse"><stop offset="0" stop-color="#0068b8"/><stop offset="1" stop-color="#004d94"/></linearGradient><path fill="url(#xtqSr2w7kFlGdlcxCtcjCa)" d="M4,10h38c1.105,0,2,0.895,2,2v26c0,1.105-0.895,2-2,2H11c-3.866,0-7-3.134-7-7V10z"/><linearGradient id="xtqSr2w7kFlGdlcxCtcjCb" x1="4.159" x2="15.268" y1="18.5" y2="18.5" gradientUnits="userSpaceOnUse"><stop offset="0" stop-color="#28afea"/><stop offset="1" stop-color="#0b88da"/></linearGradient><path fill="url(#xtqSr2w7kFlGdlcxCtcjCb)" d="M11,26h2c1.105,0,2-0.895,2-2V6c0-1.105-0.895-2-2-2h-2c-3.866,0-7,3.134-7,7v22	C4,29.134,7.134,26,11,26z"/><path fill="#35c1f1" d="M18.5,31h19c0.276,0,0.5,0.224,0.5,0.5v1c0,0.276-0.224,0.5-0.5,0.5h-19c-0.276,0-0.5-0.224-0.5-0.5	v-1C18,31.224,18.224,31,18.5,31z"/><path fill="#35c1f1" d="M19.353,27.353l-0.707-0.707c-0.195-0.195-0.195-0.512,0-0.707l6.5-6.5	c0.195-0.195,0.512-0.195,0.707,0l3.646,3.646l5.293-5.293l1.414,1.414l-6.353,6.353c-0.195,0.195-0.512,0.195-0.707,0L25.5,21.914	l-5.439,5.439C19.865,27.549,19.549,27.549,19.353,27.353z"/><path fill="#35c1f1" d="M32.854,16.854l4.293,4.293C37.461,21.461,38,21.238,38,20.793V16.5c0-0.276-0.224-0.5-0.5-0.5	h-4.293C32.762,16,32.539,16.539,32.854,16.854z"/></svg>