<svg xmlns="http://www.w3.org/2000/svg" viewBox="0 0 48 48"><linearGradient id="GwIZlxxwpYmU_Jz_f3O4Va" x1="13.727" x2="31.78" y1="-2684.626" y2="-2719.552" gradientTransform="matrix(1 0 0 -1 0 -2674)" gradientUnits="userSpaceOnUse"><stop offset="0" stop-color="#fcfcfc"/><stop offset=".495" stop-color="#f4f4f4"/><stop offset=".946" stop-color="#e8e8e8"/><stop offset="1" stop-color="#e8e8e8"/></linearGradient><path fill="url(#GwIZlxxwpYmU_Jz_f3O4Va)" d="M42,41H6V20L24,3l18,17V41z"/><linearGradient id="GwIZlxxwpYmU_Jz_f3O4Vb" x1="6" x2="42" y1="-2715" y2="-2715" gradientTransform="matrix(1 0 0 -1 0 -2674)" gradientUnits="userSpaceOnUse"><stop offset="0" stop-color="#c8d3de"/><stop offset="1" stop-color="#c8d3de"/></linearGradient><path fill="url(#GwIZlxxwpYmU_Jz_f3O4Vb)" d="M42,39H6v2c0,1.105,0.895,2,2,2h32c1.105,0,2-0.895,2-2V39z"/><path d="M24,4c-0.474,0-0.948,0.168-1.326,0.503l-5.359,4.811L6,20v5.39L24,9.428	L42,25.39V20L30.685,9.314l-5.359-4.811C24.948,4.168,24.474,4,24,4z" opacity=".05"/><path d="M24,3c-0.474,0-0.948,0.167-1.326,0.5l-5.359,4.784L6,18.909v5.359	L24,8.397l18,15.871v-5.359L30.685,8.284L25.326,3.5C24.948,3.167,24.474,3,24,3z" opacity=".07"/><linearGradient id="GwIZlxxwpYmU_Jz_f3O4Vc" x1="24" x2="24" y1="-2675.684" y2="-2697.696" gradientTransform="matrix(1 0 0 -1 0 -2674)" gradientUnits="userSpaceOnUse"><stop offset="0" stop-color="#7819a2"/><stop offset="1" stop-color="#771aa9"/></linearGradient><path fill="url(#GwIZlxxwpYmU_Jz_f3O4Vc)" d="M44.495,19.507L25.326,2.503C24.948,2.168,24.474,2,24,2s-0.948,0.168-1.326,0.503	L3.505,19.507c-0.42,0.374-0.449,1.02-0.064,1.43l1.636,1.745c0.369,0.394,0.984,0.424,1.39,0.067L24,7.428L41.533,22.75	c0.405,0.356,1.021,0.327,1.39-0.067l1.636-1.745C44.944,20.527,44.915,19.881,44.495,19.507z"/><linearGradient id="GwIZlxxwpYmU_Jz_f3O4Vd" x1="15.5" x2="15.5" y1="18.453" y2="24.506" gradientUnits="userSpaceOnUse"><stop offset="0" stop-color="#ffcf54"/><stop offset=".261" stop-color="#fdcb4d"/><stop offset=".639" stop-color="#f7c13a"/><stop offset="1" stop-color="#f0b421"/></linearGradient><path fill="url(#GwIZlxxwpYmU_Jz_f3O4Vd)" d="M15.5,19c1.381,0,2.5,1.12,2.5,2.5c0,1.381-1.119,2.5-2.5,2.5S13,22.881,13,21.5 C13,20.12,14.119,19,15.5,19"/><linearGradient id="GwIZlxxwpYmU_Jz_f3O4Ve" x1="15.5" x2="15.5" y1="29.453" y2="35.506" gradientUnits="userSpaceOnUse"><stop offset="0" stop-color="#ffcf54"/><stop offset=".261" stop-color="#fdcb4d"/><stop offset=".639" stop-color="#f7c13a"/><stop offset="1" stop-color="#f0b421"/></linearGradient><path fill="url(#GwIZlxxwpYmU_Jz_f3O4Ve)" d="M15.5,30c1.381,0,2.5,1.12,2.5,2.5c0,1.381-1.119,2.5-2.5,2.5S13,33.881,13,32.5 C13,31.12,14.119,30,15.5,30"/><linearGradient id="GwIZlxxwpYmU_Jz_f3O4Vf" x1="26.5" x2="26.5" y1="18.663" y2="25.515" gradientUnits="userSpaceOnUse"><stop offset="0" stop-color="#c965eb"/><stop offset="1" stop-color="#c767e5"/></linearGradient><path fill="url(#GwIZlxxwpYmU_Jz_f3O4Vf)" d="M34,25.25H19V20c0-0.552,0.448-1,1-1h13c0.552,0,1,0.448,1,1V25.25z"/><linearGradient id="GwIZlxxwpYmU_Jz_f3O4Vg" x1="26.5" x2="26.5" y1="29.864" y2="35.932" gradientUnits="userSpaceOnUse"><stop offset="0" stop-color="#c965eb"/><stop offset="1" stop-color="#c767e5"/></linearGradient><path fill="url(#GwIZlxxwpYmU_Jz_f3O4Vg)" d="M34,36.25H19V31c0-0.552,0.448-1,1-1h13c0.552,0,1,0.448,1,1V36.25z"/><linearGradient id="GwIZlxxwpYmU_Jz_f3O4Vh" x1="23.5" x2="23.5" y1="26.88" y2="23.497" gradientUnits="userSpaceOnUse"><stop offset="0" stop-color="#7819a2"/><stop offset="1" stop-color="#771aa9"/></linearGradient><path fill="url(#GwIZlxxwpYmU_Jz_f3O4Vh)" d="M33,27H14c-0.552,0-1-0.448-1-1v-1c0-0.552,0.448-1,1-1h19c0.552,0,1,0.448,1,1v1 C34,26.552,33.552,27,33,27z"/><linearGradient id="GwIZlxxwpYmU_Jz_f3O4Vi" x1="23.5" x2="23.5" y1="37.788" y2="34.475" gradientUnits="userSpaceOnUse"><stop offset="0" stop-color="#7819a2"/><stop offset="1" stop-color="#771aa9"/></linearGradient><path fill="url(#GwIZlxxwpYmU_Jz_f3O4Vi)" d="M33,38H14c-0.552,0-1-0.448-1-1v-1c0-0.552,0.448-1,1-1h19c0.552,0,1,0.448,1,1v1 C34,37.552,33.552,38,33,38z"/></svg>