<svg xmlns="http://www.w3.org/2000/svg" viewBox="0 0 48 48"><linearGradient id="_KGsrLmmKcLQizuR1xE6ea" x1="14.493" x2="24.132" y1="10.229" y2="30.899" gradientUnits="userSpaceOnUse"><stop offset="0" stop-color="#f44f5a"/><stop offset=".45" stop-color="#ee3d4a"/><stop offset="1" stop-color="#bf1237"/></linearGradient><polygon fill="url(#_KGsrLmmKcLQizuR1xE6ea)" points="22.66,30.57 15.085,13.404 16.915,12.596 24.49,29.762"/><path fill="#586169" d="M11,40c-5,0-9-4-9-9s4-9,9-9s9,4,9,9S16,40,11,40z M11,24c-3.9,0-7,3.1-7,7s3.1,7,7,7s7-3.1,7-7 S14.9,24,11,24z"/><path fill="#586169" d="M37,40c-5,0-9-4-9-9s4-9,9-9s9,4,9,9S42,40,37,40z M37,24c-3.9,0-7,3.1-7,7s3.1,7,7,7s7-3.1,7-7 S40.9,24,37,24z"/><linearGradient id="_KGsrLmmKcLQizuR1xE6eb" x1="9.849" x2="30.512" y1="19.3" y2="28.936" gradientUnits="userSpaceOnUse"><stop offset="0" stop-color="#f44f5a"/><stop offset=".4" stop-color="#ee3d4a"/><stop offset="1" stop-color="#ba1035"/></linearGradient><path fill="url(#_KGsrLmmKcLQizuR1xE6eb)" d="M23,32H11c-0.352,0-0.678-0.185-0.858-0.487s-0.188-0.677-0.022-0.987l7-13 C17.294,17.202,17.632,17,18,17h13c0.362,0,0.696,0.196,0.873,0.512s0.169,0.703-0.021,1.012l-8,13C23.67,31.82,23.348,32,23,32z M12.674,30h9.768l6.769-11H18.598L12.674,30z"/><circle cx="11.044" cy="31" r="2" fill="#999"/><path fill="#565b5e" d="M14.792,14.979c-0.517,0.076-1.042-0.059-1.463-0.377l-0.922-0.696C11.624,13.29,12.046,12,13.03,12 h2.956h3.921c0.596,0,1.079,0.483,1.079,1.078v0c0,0.531-0.386,0.982-0.91,1.065L14.792,14.979z"/><linearGradient id="_KGsrLmmKcLQizuR1xE6ec" x1="28.716" x2="39.48" y1="6.605" y2="29.689" gradientUnits="userSpaceOnUse"><stop offset="0" stop-color="#f44f5a"/><stop offset=".4" stop-color="#ee3d4a"/><stop offset="1" stop-color="#bd1237"/></linearGradient><path fill="url(#_KGsrLmmKcLQizuR1xE6ec)" d="M31.365,14.689l1.6-0.4C34.164,13.99,35,12.918,35,11.685C35,10.204,33.796,9,32.315,9H30v2 h2.315C32.693,11,33,11.307,33,11.685c0,0.314-0.214,0.588-0.519,0.664l-2.724,0.681c-0.536,0.134-0.862,0.677-0.728,1.213 c0.012,0.049,0.04,0.088,0.058,0.133l-0.013,0.005l7,17l1.85-0.762L31.365,14.689z"/><path fill="#565b5e" d="M31,11h-4c-0.552,0-1-0.448-1-1v0c0-0.552,0.448-1,1-1h4V11z"/><circle cx="37" cy="31" r="2" fill="#999"/></svg>