<svg xmlns="http://www.w3.org/2000/svg" viewBox="0 0 48 48"><linearGradient id="xAzqSUEh7EV~6x8To5Jwxa" x1="11.274" x2="36.726" y1="652.729" y2="627.276" gradientTransform="matrix(1 0 0 -1 0 662)" gradientUnits="userSpaceOnUse"><stop offset="0" stop-color="#bd4ff4"/><stop offset=".587" stop-color="#a235ec"/><stop offset="1" stop-color="#8c20e5"/></linearGradient><path fill="url(#xAzqSUEh7EV~6x8To5Jwxa)" d="M36.902,34.536C40.052,31.294,42,26.877,42,22c0-9.94-8.06-18-18-18S6,12.06,6,22	c0,4.877,1.948,9.294,5.098,12.536c0.018,0.019,0.03,0.04,0.048,0.059l0.059,0.059c0.047,0.048,0.094,0.095,0.142,0.142	l11.239,11.239c0.781,0.781,2.047,0.781,2.828,0l11.239-11.239c0.048-0.047,0.095-0.094,0.142-0.142l0.059-0.059	C36.873,34.576,36.885,34.554,36.902,34.536z"/><circle cx="24" cy="22" r="4" opacity=".05"/><circle cx="24" cy="22" r="3.5" opacity=".07"/><circle cx="24" cy="22" r="3" fill="#fff"/><path d="M17.664,30.133c-0.603,0-1.168-0.266-1.553-0.729C14.403,27.341,13.5,24.781,13.5,22	c0-2.843,0.938-5.444,2.713-7.523c0.384-0.451,0.943-0.709,1.535-0.709c0.559,0,1.076,0.224,1.459,0.629l0.688,0.734	c0.69,0.732,0.728,1.864,0.086,2.632C19.013,18.924,18.5,20.389,18.5,22c0,1.577,0.493,3.018,1.426,4.167	c0.631,0.778,0.578,1.91-0.125,2.633l-0.697,0.722C18.724,29.916,18.212,30.133,17.664,30.133z" opacity=".05"/><path d="M17.664,29.633c-0.453,0-0.879-0.2-1.168-0.549C14.863,27.113,14,24.664,14,22	c0-2.722,0.896-5.211,2.593-7.198c0.289-0.339,0.71-0.534,1.155-0.534c0.419,0,0.808,0.167,1.095,0.472l0.688,0.733	c0.518,0.549,0.546,1.396,0.066,1.969C18.553,18.694,18,20.27,18,22c0,1.692,0.531,3.242,1.537,4.482	c0.472,0.581,0.432,1.428-0.095,1.97l-0.698,0.723C18.459,29.47,18.075,29.633,17.664,29.633z" opacity=".07"/><path fill="#fff" d="M18.385,28.828c-0.418,0.432-1.12,0.4-1.503-0.063C15.338,26.902,14.5,24.54,14.5,22	c0-2.594,0.87-4.995,2.473-6.874c0.391-0.458,1.093-0.482,1.506-0.043l0.689,0.733c0.341,0.363,0.366,0.924,0.047,1.306	C18.104,18.452,17.5,20.154,17.5,22c0,1.806,0.58,3.48,1.649,4.797c0.314,0.387,0.283,0.949-0.064,1.307L18.385,28.828z"/><path d="M30.114,30.133c-0.548,0-1.06-0.217-1.439-0.61L27.976,28.8c-0.701-0.723-0.754-1.855-0.121-2.633	c0.932-1.149,1.424-2.59,1.424-4.167c0-1.611-0.513-3.076-1.481-4.237c-0.641-0.767-0.604-1.898,0.086-2.632l0.689-0.733	c0.382-0.406,0.899-0.63,1.458-0.63c0.592,0,1.151,0.258,1.536,0.708c1.774,2.079,2.712,4.68,2.712,7.523	c0,2.781-0.903,5.341-2.611,7.402C31.283,29.867,30.717,30.133,30.114,30.133z" opacity=".05"/><path d="M30.114,29.633c-0.411,0-0.795-0.163-1.08-0.458l-0.699-0.723c-0.525-0.542-0.565-1.389-0.093-1.97	c1.005-1.24,1.536-2.79,1.536-4.482c0-1.73-0.553-3.306-1.598-4.557c-0.479-0.573-0.45-1.419,0.066-1.969l0.689-0.733	c0.286-0.304,0.675-0.472,1.094-0.472c0.445,0,0.866,0.194,1.155,0.533c1.696,1.987,2.593,4.476,2.593,7.199	c0,2.664-0.863,5.113-2.496,7.083C30.993,29.433,30.567,29.633,30.114,29.633z" opacity=".07"/><path fill="#fff" d="M29.394,28.828l-0.7-0.723c-0.347-0.359-0.378-0.92-0.064-1.307c1.068-1.318,1.649-2.991,1.649-4.797	c0-1.847-0.603-3.549-1.714-4.878c-0.319-0.382-0.294-0.943,0.047-1.306l0.689-0.733c0.412-0.438,1.115-0.415,1.505,0.043	c1.602,1.878,2.473,4.279,2.473,6.874c0,2.54-0.838,4.902-2.381,6.765C30.514,29.227,29.812,29.26,29.394,28.828z"/></svg>