<svg xmlns="http://www.w3.org/2000/svg" viewBox="0 0 48 48"><linearGradient id="Zt5eIsGJ0Hw7ZO3EwCUb1a" x1="24" x2="24" y1="8.979" y2="6.308" gradientUnits="userSpaceOnUse"><stop offset="0" stop-color="#b33f20"/><stop offset=".129" stop-color="#c74724"/><stop offset=".295" stop-color="#d94f29"/><stop offset=".469" stop-color="#e4532b"/><stop offset=".659" stop-color="#e8552c"/></linearGradient><path fill="url(#Zt5eIsGJ0Hw7ZO3EwCUb1a)" d="M28.5,6h-9C18.672,6,18,6.672,18,7.5V9h12V7.5C30,6.672,29.328,6,28.5,6z"/><linearGradient id="Zt5eIsGJ0Hw7ZO3EwCUb1b" x1="24" x2="24" y1="9.047" y2="39.193" gradientUnits="userSpaceOnUse"><stop offset="0" stop-color="#fc7d5b"/><stop offset=".06" stop-color="#f8734f"/><stop offset=".18" stop-color="#f3653d"/><stop offset=".326" stop-color="#f05b31"/><stop offset=".523" stop-color="#ee552a"/><stop offset="1" stop-color="#ed5328"/></linearGradient><path fill="url(#Zt5eIsGJ0Hw7ZO3EwCUb1b)" d="M42,9H6c-1.1,0-2,0.9-2,2v28c0,1.1,0.9,2,2,2h36c1.1,0,2-0.9,2-2V11C44,9.9,43.1,9,42,9z"/><rect width="2" height="32" x="37" y="9" fill="#fabb62"/><rect width="2" height="32" x="9" y="9" fill="#fabb62"/><path fill="#fff" d="M34.655,26.336l-8.319,8.319c-0.459,0.459-1.204,0.459-1.664,0l-3.328-3.328	c-0.459-0.459-0.459-1.204,0-1.664l8.319-8.319c0.459-0.459,1.204-0.459,1.664,0l3.328,3.328	C35.115,25.132,35.115,25.877,34.655,26.336z"/><path fill="#37c6d0" d="M30.496,23.341l2.163,2.163l-7.155,7.155l-2.163-2.163L30.496,23.341"/><circle cx="20" cy="20" r="4" fill="#fff"/><linearGradient id="Zt5eIsGJ0Hw7ZO3EwCUb1c" x1="18" x2="22" y1="20" y2="20" gradientUnits="userSpaceOnUse"><stop offset="0" stop-color="#fede00"/><stop offset="1" stop-color="#ffd000"/></linearGradient><circle cx="20" cy="20" r="2" fill="url(#Zt5eIsGJ0Hw7ZO3EwCUb1c)"/></svg>