<svg xmlns="http://www.w3.org/2000/svg" viewBox="0 0 48 48"><linearGradient id="pSj9RRVBZeRra9vSBlvSEa" x1="11.422" x2="74.369" y1="-9.198" y2="53.749" gradientUnits="userSpaceOnUse"><stop offset="0" stop-color="#a235d4"/><stop offset=".441" stop-color="#a033d1"/><stop offset=".702" stop-color="#982cc9"/><stop offset=".915" stop-color="#8b21bb"/><stop offset="1" stop-color="#831bb3"/></linearGradient><path fill="url(#pSj9RRVBZeRra9vSBlvSEa)" d="M44,24l-1,1h-5.04c0.03-0.33,0.04-0.66,0.04-1c0-7.73-6.27-14-14-14 c-0.34,0-0.67,0.01-1,0.04V5l1-1c5.52,0,10.52,2.24,14.14,5.86C42.04,13.76,44,18.88,44,24z"/><path fill="#ff8db6" d="M44,24c0,5.52-2.24,10.52-5.86,14.14C34.24,42.04,29.12,44,24,44l-1-1v-5.04 c0.33,0.03,0.66,0.04,1,0.04c7.39,0,13.45-5.74,13.96-13c0.03-0.33,0.04-0.66,0.04-1H44z"/><linearGradient id="pSj9RRVBZeRra9vSBlvSEb" x1=".834" x2="20.834" y1="21.454" y2="41.454" gradientUnits="userSpaceOnUse"><stop offset="0" stop-color="#28afea"/><stop offset="1" stop-color="#0b88da"/></linearGradient><path fill="url(#pSj9RRVBZeRra9vSBlvSEb)" d="M24,38v6c-5.52,0-10.52-2.24-14.14-5.86C5.95,34.24,4,29.12,4,24l1-1h5.04 C10.01,23.33,10,23.66,10,24c0,7.39,5.74,13.45,13,13.96C23.33,37.99,23.66,38,24,38z"/><linearGradient id="pSj9RRVBZeRra9vSBlvSEc" x1="9.86" x2="29.384" y1="9.86" y2="29.384" gradientUnits="userSpaceOnUse"><stop offset="0" stop-color="#ffd747"/><stop offset=".482" stop-color="#ffd645"/><stop offset="1" stop-color="#f5bc00"/></linearGradient><path fill="url(#pSj9RRVBZeRra9vSBlvSEc)" d="M24,4v6c-0.34,0-0.67,0.01-1,0.04C16.07,10.53,10.53,16.07,10.04,23 C10.01,23.33,10,23.66,10,24H4c0-5.52,2.24-10.52,5.86-14.14C13.76,5.95,18.88,4,24,4z"/></svg>