<svg xmlns="http://www.w3.org/2000/svg" data-name="Слой 1" viewBox="0 0 48 48"><rect width="32" height="35" x="8" y="9" fill="#50e6ff" rx="2" transform="rotate(180 24 26.5)"/><path fill="#e52030" d="M14.51883,7h4.96234A.59321.59321,0,0,0,19.844,6l-2.0752-2.17368a1.058,1.058,0,0,0-1.53768,0L14.156,6A.59321.59321,0,0,0,14.51883,7Z"/><path fill="#199be2" d="M28.51883,3.49515h4.96234a.59321.59321,0,0,1,.36287,1l-2.0752,2.17368a1.058,1.058,0,0,1-1.53768,0L28.156,4.49515A.59321.59321,0,0,1,28.51883,3.49515Z"/><path fill="#199be2" d="M17,18a3,3,0,1,0-3-3A3,3,0,0,0,17,18Zm2,2H15a3,3,0,0,0-3,3v8a1,1,0,0,0,2,0v9a1,1,0,0,0,2,0V32a1,1,0,0,1,2,0v8a1,1,0,0,0,2,0V31a1,1,0,0,0,2,0V23A3,3,0,0,0,19,20Z"/><path fill="#199be2" d="M33,20H29a3,3,0,0,0-3,3v8a1,1,0,0,0,2,0v9a1,1,0,0,0,2,0V32a1,1,0,0,1,2,0v8a1,1,0,0,0,2,0V31a1,1,0,0,0,2,0V23A3,3,0,0,0,33,20Zm-2-2a3,3,0,1,0-3-3A3,3,0,0,0,31,18Z"/></svg>