<svg xmlns="http://www.w3.org/2000/svg" data-name="Слой 1" viewBox="0 0 48 48"><defs><linearGradient id="gz6ln_TQXs_9gZczDpu2Ja" x1="24" x2="24" y1="-952" y2="-964" data-name="Безымянный градиент 87" gradientTransform="matrix(1 0 0 -1 0 -936)" gradientUnits="userSpaceOnUse"><stop offset="0" stop-color="#999"/><stop offset=".23" stop-color="#999"/><stop offset=".367" stop-color="#999"/></linearGradient><linearGradient id="gz6ln_TQXs_9gZczDpu2Jb" x1="24" x2="24" y1="-976" y2="-971" data-name="Безымянный градиент 85" gradientTransform="matrix(1 0 0 -1 0 -936)" gradientUnits="userSpaceOnUse"><stop offset="0" stop-color="#889097"/><stop offset="1" stop-color="#64717c"/></linearGradient><linearGradient id="gz6ln_TQXs_9gZczDpu2Jc" x1="5" x2="43" y1="-966.5" y2="-966.5" data-name="Безымянный градиент 84" gradientTransform="matrix(1 0 0 -1 0 -936)" gradientUnits="userSpaceOnUse"><stop offset="0" stop-color="#cdd2d6"/><stop offset=".512" stop-color="#b2b9bf"/><stop offset="1" stop-color="#9ca5ad"/></linearGradient><linearGradient id="gz6ln_TQXs_9gZczDpu2Jd" x1="30.929" x2="45.071" y1="-966.929" y2="-981.071" data-name="Безымянный градиент 51" gradientTransform="matrix(1 0 0 -1 0 -936)" gradientUnits="userSpaceOnUse"><stop offset="0" stop-color="#f44f5a"/><stop offset=".443" stop-color="#ee3d4a"/><stop offset="1" stop-color="#e52030"/></linearGradient></defs><path fill="#586169" d="M8.5,42h0A1.50055,1.50055,0,0,1,7,40.5V38h3v2.5A1.50055,1.50055,0,0,1,8.5,42Z"/><path fill="#586169" d="M39.5,42h0A1.50055,1.50055,0,0,1,38,40.5V38h3v2.5A1.50055,1.50055,0,0,1,39.5,42Z"/><rect width="4" height="12" x="22" y="16" fill="url(#gz6ln_TQXs_9gZczDpu2Ja)"/><rect width="38" height="5" x="5" y="35" fill="url(#gz6ln_TQXs_9gZczDpu2Jb)"/><polygon fill="url(#gz6ln_TQXs_9gZczDpu2Jc)" points="43 35 5 35 11 26 37 26 43 35"/><path fill="#586169" d="M31,16H17a1.99945,1.99945,0,0,1-2-2V9a1.99945,1.99945,0,0,1,2-2H31a1.99945,1.99945,0,0,1,2,2v5A1.99945,1.99945,0,0,1,31,16Z"/><rect width="7" height="3" x="23" y="10" fill="#50e6ff"/><path style="isolation:isolate" d="M42,33.5V40H27.19A10.19714,10.19714,0,0,1,27,38,10.99741,10.99741,0,0,1,37.67,27.01l.33.49Z" opacity=".05"/><path style="isolation:isolate" d="M42,33.5V40H27.69a10.93912,10.93912,0,0,1-.19-2A10.51152,10.51152,0,0,1,38,27.5Z" opacity=".07"/><path fill="url(#gz6ln_TQXs_9gZczDpu2Jd)" d="M48,38A10,10,0,1,1,38,28,10.00109,10.00109,0,0,1,48,38Z"/><path fill="#fff" d="M41.536,33.757l.707.707a.50035.50035,0,0,1,0,.707l-7.071,7.071a.50035.50035,0,0,1-.707,0l-.707-.707a.50035.50035,0,0,1,0-.707l7.071-7.071A.50035.50035,0,0,1,41.536,33.757Z"/><path fill="#fff" d="M42.243,41.536l-.707.707a.50035.50035,0,0,1-.707,0l-7.071-7.071a.50035.50035,0,0,1,0-.707l.707-.707a.50035.50035,0,0,1,.707,0l7.071,7.071A.50035.50035,0,0,1,42.243,41.536Z"/></svg>