<svg xmlns="http://www.w3.org/2000/svg" viewBox="0 0 48 48"><linearGradient id="gWoMevv100AjYXs8kiECYa" x1="14.676" x2="22.573" y1="1.06" y2="16.425" gradientUnits="userSpaceOnUse"><stop offset="0" stop-color="#0d61a9"/><stop offset="1" stop-color="#16528c"/></linearGradient><path fill="url(#gWoMevv100AjYXs8kiECYa)" d="M27,8.5c0,4.694-3.806,8.5-8.5,8.5S10,13.194,10,8.5S13.806,0,18.5,0	C23.194,0,27,3.806,27,8.5z"/><linearGradient id="gWoMevv100AjYXs8kiECYb" x1="15.576" x2="21.615" y1="2.81" y2="14.56" gradientUnits="userSpaceOnUse"><stop offset="0" stop-color="#199ae0"/><stop offset="1" stop-color="#0782d8"/></linearGradient><path fill="url(#gWoMevv100AjYXs8kiECYb)" d="M25,8.5c0,3.59-2.91,6.5-6.5,6.5S12,12.09,12,8.5S14.91,2,18.5,2S25,4.91,25,8.5z"/><linearGradient id="gWoMevv100AjYXs8kiECYc" x1="16.476" x2="20.656" y1="4.561" y2="12.696" gradientUnits="userSpaceOnUse"><stop offset="0" stop-color="#75daff"/><stop offset="1" stop-color="#1ea2e4"/></linearGradient><path fill="url(#gWoMevv100AjYXs8kiECYc)" d="M23,8.5c0,2.485-2.015,4.5-4.5,4.5S14,10.985,14,8.5S16.015,4,18.5,4S23,6.015,23,8.5z"/><linearGradient id="gWoMevv100AjYXs8kiECYd" x1="16.17" x2="16.172" y1="32.118" y2="32.118" gradientTransform="rotate(9.32 16.497 -28.498)" gradientUnits="userSpaceOnUse"><stop offset="0" stop-color="#ffc430"/><stop offset=".57" stop-color="#f8bd29"/><stop offset="1" stop-color="#f0b421"/></linearGradient><path fill="url(#gWoMevv100AjYXs8kiECYd)" d="M6.36,31.275c0.001-0.007,0.004-0.012,0.005-0.019l-0.002-0.001L6.36,31.275z"/><linearGradient id="gWoMevv100AjYXs8kiECYe" x1="17.991" x2="42.564" y1="23.044" y2="48.562" gradientUnits="userSpaceOnUse"><stop offset="0" stop-color="#ffc430"/><stop offset=".41" stop-color="#fec130"/><stop offset=".72" stop-color="#fcb730"/><stop offset=".998" stop-color="#f7a72f"/><stop offset="1" stop-color="#f7a72f"/></linearGradient><path fill="url(#gWoMevv100AjYXs8kiECYe)" d="M33.738,20.902L21,19l0-10.357c0-1.308-0.941-2.499-2.242-2.63C17.261,5.863,16,7.034,16,8.5 c0,0.237,0,32.468,0,32.468C17.461,42.268,19.347,43,21.314,43H32c3.314,0,6-2.686,6-6V25.847 C38,23.371,36.188,21.268,33.738,20.902z"/><linearGradient id="gWoMevv100AjYXs8kiECYf" x1="21.912" x2="20.163" y1="21.981" y2="21.029" gradientUnits="userSpaceOnUse"><stop offset=".282" stop-color="#ffc430"/><stop offset=".401" stop-color="#f8bd2d"/><stop offset=".574" stop-color="#e5aa23"/><stop offset=".78" stop-color="#c58a14"/><stop offset="1" stop-color="#9c6000"/></linearGradient><polygon fill="url(#gWoMevv100AjYXs8kiECYf)" points="21,19 21,25 23.61,19.39"/><circle cx="18.5" cy="8.5" r="1.5" fill="#fff0c9"/><g><linearGradient id="gWoMevv100AjYXs8kiECYg" x1="-42.983" x2="-34.536" y1="1042.153" y2="1033.823" gradientTransform="translate(52.373 -1008.646)" gradientUnits="userSpaceOnUse"><stop offset=".282" stop-color="#ffc430"/><stop offset=".401" stop-color="#f8bd2d"/><stop offset=".574" stop-color="#e5aa23"/><stop offset=".78" stop-color="#c58a14"/><stop offset="1" stop-color="#9c6000"/></linearGradient><path fill="url(#gWoMevv100AjYXs8kiECYg)" d="M6.023,24c-1.72,0-2.498,1.068-2.498,2.492l12.085,14.129 c0.124,0.124,0.259,0.236,0.389,0.352V26.268c-2.273,3.88-3.939,0.407-5.67,0.81C10.33,27.078,9.61,24,6.023,24z"/></g></svg>