<svg xmlns="http://www.w3.org/2000/svg" viewBox="0 0 48 48"><linearGradient id="ShZ1lKHqPFT9BBS6wT3Q_a" x1="24" x2="24" y1="32.523" y2="41.936" gradientUnits="userSpaceOnUse"><stop offset="0" stop-color="#2778f2"/><stop offset="1" stop-color="#195bbc"/></linearGradient><path fill="url(#ShZ1lKHqPFT9BBS6wT3Q_a)" d="M40,33H8c-2.209,0-4,1.791-4,4v0c0,2.209,1.791,4,4,4h32c2.209,0,4-1.791,4-4v0	C44,34.791,42.209,33,40,33z"/><linearGradient id="ShZ1lKHqPFT9BBS6wT3Q_b" x1="24" x2="24" y1="25.027" y2="33.009" gradientUnits="userSpaceOnUse"><stop offset="0" stop-color="#27cc76"/><stop offset="1" stop-color="#088242"/></linearGradient><path fill="url(#ShZ1lKHqPFT9BBS6wT3Q_b)" d="M37,25H11c-2.209,0-4,1.791-4,4v0c0,2.209,1.791,4,4,4h26c2.209,0,4-1.791,4-4v0	C41,26.791,39.209,25,37,25z"/><linearGradient id="ShZ1lKHqPFT9BBS6wT3Q_c" x1="24" x2="24" y1="17.284" y2="24.87" gradientUnits="userSpaceOnUse"><stop offset="0" stop-color="#fede00"/><stop offset=".375" stop-color="#f6cc02"/><stop offset="1" stop-color="#e5a505"/></linearGradient><path fill="url(#ShZ1lKHqPFT9BBS6wT3Q_c)" d="M34,25H14c-2.209,0-4-1.791-4-4v0c0-2.209,1.791-4,4-4h20c2.209,0,4,1.791,4,4v0	C38,23.209,36.209,25,34,25z"/><linearGradient id="ShZ1lKHqPFT9BBS6wT3Q_d" x1="24" x2="24" y1="5.382" y2="12.438" gradientUnits="userSpaceOnUse"><stop offset="0" stop-color="#eba84b"/><stop offset=".252" stop-color="#e9a144"/><stop offset=".624" stop-color="#e28d31"/><stop offset="1" stop-color="#d97218"/></linearGradient><path fill="url(#ShZ1lKHqPFT9BBS6wT3Q_d)" d="M27,11h-6V6c0-0.552,0.448-1,1-1h4c0.552,0,1,0.448,1,1V11z"/><linearGradient id="ShZ1lKHqPFT9BBS6wT3Q_e" x1="24" x2="24" y1="9.027" y2="17.009" gradientUnits="userSpaceOnUse"><stop offset="0" stop-color="#f44f5a"/><stop offset=".443" stop-color="#ee3d4a"/><stop offset="1" stop-color="#e52030"/></linearGradient><path fill="url(#ShZ1lKHqPFT9BBS6wT3Q_e)" d="M31,17H17c-2.209,0-4-1.791-4-4v0c0-2.209,1.791-4,4-4h14c2.209,0,4,1.791,4,4v0	C35,15.209,33.209,17,31,17z"/></svg>