<svg xmlns="http://www.w3.org/2000/svg" viewBox="0 0 48 48"><linearGradient id="ssYo2_G6_lrXAD6cTwfU1a" x1="4.614" x2="42.936" y1="110.259" y2="102.467" gradientTransform="matrix(1 0 0 -1 0 118)" gradientUnits="userSpaceOnUse"><stop offset="0" stop-color="#0077d2"/><stop offset="1" stop-color="#0b59a2"/></linearGradient><path fill="url(#ssYo2_G6_lrXAD6cTwfU1a)" d="M44,10v5H4v-5c0-1.1,0.9-2,2-2h36C43.1,8,44,8.9,44,10z"/><linearGradient id="ssYo2_G6_lrXAD6cTwfU1b" x1="13.275" x2="31.78" y1="107.204" y2="80.436" gradientTransform="matrix(1 0 0 -1 0 118)" gradientUnits="userSpaceOnUse"><stop offset="0" stop-color="#7dd8f3"/><stop offset="1" stop-color="#45b0d0"/></linearGradient><path fill="url(#ssYo2_G6_lrXAD6cTwfU1b)" d="M4,38V14h40v24c0,1.1-0.9,2-2,2H6C4.9,40,4,39.1,4,38z"/><path d="M23,36c-1.103,0-2-0.897-2-2v-4h-4c-1.103,0-2-0.897-2-2v-2c0-1.103,0.897-2,2-2h4v-4	c0-1.103,0.897-2,2-2h2c1.103,0,2,0.897,2,2v4h4c1.103,0,2,0.897,2,2v2c0,1.103-0.897,2-2,2h-4v4c0,1.103-0.897,2-2,2H23z" opacity=".05"/><path d="M23,35.5c-0.827,0-1.5-0.673-1.5-1.5v-4.5H17c-0.827,0-1.5-0.673-1.5-1.5v-2	c0-0.827,0.673-1.5,1.5-1.5h4.5V20c0-0.827,0.673-1.5,1.5-1.5h2c0.827,0,1.5,0.673,1.5,1.5v4.5H31c0.827,0,1.5,0.673,1.5,1.5v2	c0,0.827-0.673,1.5-1.5,1.5h-4.5V34c0,0.827-0.673,1.5-1.5,1.5H23z" opacity=".07"/><path fill="#fff" d="M31,25h-5v-5c0-0.552-0.448-1-1-1h-2c-0.552,0-1,0.448-1,1v5h-5c-0.552,0-1,0.448-1,1v2	c0,0.552,0.448,1,1,1h5v5c0,0.552,0.448,1,1,1h2c0.552,0,1-0.448,1-1v-5h5c0.552,0,1-0.448,1-1v-2C32,25.448,31.552,25,31,25z"/></svg>