<svg xmlns="http://www.w3.org/2000/svg" viewBox="0 0 48 48"><path fill="#007ad9" d="M41,26.1C41,37.697,33.388,45,24,45S7,37.697,7,26.1S14.612,3,24,3S41,14.503,41,26.1z"/><linearGradient id="IJAf5tgeCHQxo0Kj46bG_a" x1="16.835" x2="31.496" y1="10.095" y2="42.197" gradientUnits="userSpaceOnUse"><stop offset="0" stop-color="#32bdef"/><stop offset="1" stop-color="#1ea2e4"/></linearGradient><path fill="url(#IJAf5tgeCHQxo0Kj46bG_a)" d="M36.564,11H11.436c0.459-0.703,0.95-1.369,1.465-2h22.197	C35.614,9.631,36.105,10.297,36.564,11z M11.218,39h25.564c0.509-0.625,0.984-1.287,1.411-2H9.807	C10.234,37.713,10.709,38.375,11.218,39z M40.819,23H7.181C7.063,24.027,7,25.063,7,26.1c0,0.307,0.027,0.599,0.037,0.9h33.926	C40.973,26.699,41,26.407,41,26.1C41,25.063,40.937,24.027,40.819,23z"/><linearGradient id="IJAf5tgeCHQxo0Kj46bG_b" x1="24" x2="24" y1="15.005" y2="22.947" gradientUnits="userSpaceOnUse"><stop offset="0" stop-color="#32bdef"/><stop offset="1" stop-color="#1ea2e4"/></linearGradient><circle cx="24" cy="17" r="2" fill="url(#IJAf5tgeCHQxo0Kj46bG_b)"/><linearGradient id="IJAf5tgeCHQxo0Kj46bG_c" x1="32" x2="32" y1="15.005" y2="22.947" gradientUnits="userSpaceOnUse"><stop offset="0" stop-color="#32bdef"/><stop offset="1" stop-color="#1ea2e4"/></linearGradient><circle cx="32" cy="17" r="2" fill="url(#IJAf5tgeCHQxo0Kj46bG_c)"/><linearGradient id="IJAf5tgeCHQxo0Kj46bG_d" x1="37.431" x2="37.431" y1="15.146" y2="23.088" gradientTransform="matrix(.6604 .0712 .0712 .9301 12.035 -1.607)" gradientUnits="userSpaceOnUse"><stop offset="0" stop-color="#32bdef"/><stop offset="1" stop-color="#1ea2e4"/></linearGradient><path fill="url(#IJAf5tgeCHQxo0Kj46bG_d)" d="M38.921,16.765c0.255,1.029,0.037,1.968-0.486,2.098c-0.523,0.13-1.154-0.599-1.409-1.629	c-0.255-1.029-0.037-1.968,0.486-2.098C38.036,15.007,38.666,15.736,38.921,16.765z"/><linearGradient id="IJAf5tgeCHQxo0Kj46bG_e" x1="32" x2="32" y1="15.005" y2="22.947" gradientTransform="matrix(-1 0 0 1 48 0)" gradientUnits="userSpaceOnUse"><stop offset="0" stop-color="#32bdef"/><stop offset="1" stop-color="#1ea2e4"/></linearGradient><circle cx="16" cy="17" r="2" fill="url(#IJAf5tgeCHQxo0Kj46bG_e)"/><linearGradient id="IJAf5tgeCHQxo0Kj46bG_f" x1="37.431" x2="37.431" y1="15.146" y2="23.088" gradientTransform="matrix(-.6604 .0712 -.0712 .9301 35.965 -1.607)" gradientUnits="userSpaceOnUse"><stop offset="0" stop-color="#32bdef"/><stop offset="1" stop-color="#1ea2e4"/></linearGradient><path fill="url(#IJAf5tgeCHQxo0Kj46bG_f)" d="M9.079,16.765c-0.255,1.029-0.037,1.968,0.486,2.098s1.154-0.599,1.409-1.629	c0.255-1.029,0.037-1.968-0.486-2.098C9.964,15.007,9.334,15.736,9.079,16.765z"/><linearGradient id="IJAf5tgeCHQxo0Kj46bG_g" x1="24" x2="24" y1="36.005" y2="43.947" gradientTransform="rotate(180 24 35)" gradientUnits="userSpaceOnUse"><stop offset="0" stop-color="#32bdef"/><stop offset="1" stop-color="#1ea2e4"/></linearGradient><circle cx="24" cy="32" r="2" fill="url(#IJAf5tgeCHQxo0Kj46bG_g)"/><linearGradient id="IJAf5tgeCHQxo0Kj46bG_h" x1="32" x2="32" y1="36.005" y2="43.947" gradientTransform="rotate(180 24 35)" gradientUnits="userSpaceOnUse"><stop offset="0" stop-color="#32bdef"/><stop offset="1" stop-color="#1ea2e4"/></linearGradient><circle cx="16" cy="32" r="2" fill="url(#IJAf5tgeCHQxo0Kj46bG_h)"/><linearGradient id="IJAf5tgeCHQxo0Kj46bG_i" x1="34.978" x2="34.978" y1="37.913" y2="45.854" gradientTransform="matrix(-.6604 -.0712 -.0712 -.9301 35.965 71.607)" gradientUnits="userSpaceOnUse"><stop offset="0" stop-color="#32bdef"/><stop offset="1" stop-color="#1ea2e4"/></linearGradient><path fill="url(#IJAf5tgeCHQxo0Kj46bG_i)" d="M9.079,32.235c-0.255-1.029-0.037-1.968,0.486-2.098s1.154,0.599,1.409,1.629	s0.037,1.968-0.486,2.098C9.964,33.993,9.334,33.264,9.079,32.235z"/><linearGradient id="IJAf5tgeCHQxo0Kj46bG_j" x1="32" x2="32" y1="36.005" y2="43.947" gradientTransform="matrix(1 0 0 -1 0 70)" gradientUnits="userSpaceOnUse"><stop offset="0" stop-color="#32bdef"/><stop offset="1" stop-color="#1ea2e4"/></linearGradient><circle cx="32" cy="32" r="2" fill="url(#IJAf5tgeCHQxo0Kj46bG_j)"/><linearGradient id="IJAf5tgeCHQxo0Kj46bG_k" x1="34.978" x2="34.978" y1="37.913" y2="45.854" gradientTransform="matrix(.6604 -.0712 .0712 -.9301 12.035 71.607)" gradientUnits="userSpaceOnUse"><stop offset="0" stop-color="#32bdef"/><stop offset="1" stop-color="#1ea2e4"/></linearGradient><path fill="url(#IJAf5tgeCHQxo0Kj46bG_k)" d="M38.921,32.235c0.255-1.029,0.037-1.968-0.486-2.098c-0.523-0.13-1.154,0.599-1.409,1.629	c-0.255,1.029-0.037,1.968,0.486,2.098C38.036,33.993,38.666,33.264,38.921,32.235z"/></svg>