<svg xmlns="http://www.w3.org/2000/svg" viewBox="0 0 48 48"><linearGradient id="fCfYIDxBTrXSOyBNIfjnBa" x1="7" x2="14" y1="24" y2="24" gradientUnits="userSpaceOnUse"><stop offset=".112" stop-color="#35c1f1"/><stop offset=".281" stop-color="#32bded"/><stop offset=".466" stop-color="#29b1df"/><stop offset=".656" stop-color="#1a9dca"/><stop offset=".732" stop-color="#1393bf"/></linearGradient><path fill="url(#fCfYIDxBTrXSOyBNIfjnBa)" d="M14,5v38H9c-1.105,0-2-0.895-2-2V7c0-1.105,0.895-2,2-2H14z"/><path fill="#50e6ff" d="M41,7v34c0,1.105-0.895,2-2,2H13c-1.105,0-2-0.895-2-2V7c0-1.105,0.895-2,2-2h26	C40.105,5,41,5.895,41,7z"/><circle cx="19" cy="13" r="2" fill="#057093"/><path fill="#057093" d="M19,16c-1.657,0-3,1.343-3,3v1.4c0,0.331,0.269,0.6,0.6,0.6h4.8c0.331,0,0.6-0.269,0.6-0.6V19	C22,17.343,20.657,16,19,16z"/><path fill="#057093" d="M30,28H17c-0.552,0-1,0.448-1,1l0,0c0,0.552,0.448,1,1,1h13c0.552,0,1-0.448,1-1l0,0	C31,28.448,30.552,28,30,28z"/><path fill="#057093" d="M35,24H17c-0.552,0-1,0.448-1,1l0,0c0,0.552,0.448,1,1,1h18c0.552,0,1-0.448,1-1l0,0	C36,24.448,35.552,24,35,24z"/><path fill="#057093" d="M30,36H17c-0.552,0-1,0.448-1,1l0,0c0,0.552,0.448,1,1,1h13c0.552,0,1-0.448,1-1l0,0	C31,36.448,30.552,36,30,36z"/><path fill="#057093" d="M30,32H17c-0.552,0-1,0.448-1,1l0,0c0,0.552,0.448,1,1,1h13c0.552,0,1-0.448,1-1l0,0	C31,32.448,30.552,32,30,32z"/><path fill="#057093" d="M35,16h-8c-0.552,0-1,0.448-1,1l0,0c0,0.552,0.448,1,1,1h8c0.552,0,1-0.448,1-1l0,0	C36,16.448,35.552,16,35,16z"/><path fill="#057093" d="M35,12h-8c-0.552,0-1,0.448-1,1l0,0c0,0.552,0.448,1,1,1h8c0.552,0,1-0.448,1-1l0,0	C36,12.448,35.552,12,35,12z"/><linearGradient id="fCfYIDxBTrXSOyBNIfjnBb" x1="33" x2="48" y1="617.5" y2="617.5" gradientTransform="matrix(1 0 0 -1 0 662)" gradientUnits="userSpaceOnUse"><stop offset="0" stop-color="#11408a"/><stop offset="1" stop-color="#103f8f"/></linearGradient><path fill="url(#fCfYIDxBTrXSOyBNIfjnBb)" d="M48,41H33c0,0,0,4.328,0,4.5c0,1.381,3.358,2.5,7.5,2.5s7.5-1.119,7.5-2.5	C48,45.328,48,41,48,41z"/><linearGradient id="fCfYIDxBTrXSOyBNIfjnBc" x1="33" x2="48" y1="622.25" y2="622.25" gradientTransform="matrix(1 0 0 -1 0 662)" gradientUnits="userSpaceOnUse"><stop offset="0" stop-color="#1d59b3"/><stop offset="1" stop-color="#195bbc"/></linearGradient><path fill="url(#fCfYIDxBTrXSOyBNIfjnBc)" d="M48,36H33c0,0,0,4.828,0,5c0,1.381,3.358,2.5,7.5,2.5S48,42.381,48,41C48,40.828,48,36,48,36z"/><linearGradient id="fCfYIDxBTrXSOyBNIfjnBd" x1="33" x2="48" y1="627.125" y2="627.125" gradientTransform="matrix(1 0 0 -1 0 662)" gradientUnits="userSpaceOnUse"><stop offset="0" stop-color="#3079d6"/><stop offset="1" stop-color="#297cd2"/></linearGradient><path fill="url(#fCfYIDxBTrXSOyBNIfjnBd)" d="M48,31.25H33c0,0,0,4.578,0,4.75c0,1.381,3.358,2.5,7.5,2.5S48,37.381,48,36	C48,35.828,48,31.25,48,31.25z"/><linearGradient id="fCfYIDxBTrXSOyBNIfjnBe" x1="33" x2="48" y1="630.75" y2="630.75" gradientTransform="matrix(1 0 0 -1 0 662)" gradientUnits="userSpaceOnUse"><stop offset="0" stop-color="#42a3f2"/><stop offset="1" stop-color="#42a4eb"/></linearGradient><ellipse cx="40.5" cy="31.25" fill="url(#fCfYIDxBTrXSOyBNIfjnBe)" rx="7.5" ry="2.25"/></svg>