<svg xmlns="http://www.w3.org/2000/svg" viewBox="0 0 48 48"><linearGradient id="JQ17YRYHG4_Iso5zb0xLza" x1="15" x2="15" y1="36.142" y2="12.898" gradientUnits="userSpaceOnUse"><stop offset=".002" stop-color="#454545"/><stop offset=".013" stop-color="#464646"/><stop offset=".562" stop-color="#626262"/><stop offset="1" stop-color="#6d6d6d"/></linearGradient><path fill="url(#JQ17YRYHG4_Iso5zb0xLza)" d="M19,30.67V39h-8V24h1.33c0.23,0,0.45,0.01,0.67,0.03C16.37,24.37,19,27.22,19,30.67z"/><linearGradient id="JQ17YRYHG4_Iso5zb0xLzb" x1="-3.5" x2="-3.5" y1="42.647" y2="36.719" gradientTransform="matrix(-1 0 0 1 14 0)" gradientUnits="userSpaceOnUse"><stop offset="0" stop-color="#ffcf54"/><stop offset=".261" stop-color="#fdcb4d"/><stop offset=".639" stop-color="#f7c13a"/><stop offset="1" stop-color="#f0b421"/></linearGradient><path fill="url(#JQ17YRYHG4_Iso5zb0xLzb)" d="M16,39h3v0.5c0,0.828-0.672,1.5-1.5,1.5h0c-0.828,0-1.5-0.672-1.5-1.5V39z"/><linearGradient id="JQ17YRYHG4_Iso5zb0xLzc" x1="9.682" x2="12.379" y1="209.716" y2="202.285" gradientTransform="matrix(1 0 0 -1 0 224)" gradientUnits="userSpaceOnUse"><stop offset="0" stop-color="#ffcf54"/><stop offset=".261" stop-color="#fdcb4d"/><stop offset=".639" stop-color="#f7c13a"/><stop offset="1" stop-color="#f0b421"/></linearGradient><path fill="url(#JQ17YRYHG4_Iso5zb0xLzc)" d="M11.03,22c-2.2,0-4-1.8-4-4s1.8-4,4-4s4,1.8,4,4S13.23,22,11.03,22"/><linearGradient id="JQ17YRYHG4_Iso5zb0xLzd" x1="7" x2="7" y1="36.142" y2="12.898" gradientUnits="userSpaceOnUse"><stop offset=".002" stop-color="#454545"/><stop offset=".013" stop-color="#464646"/><stop offset=".562" stop-color="#626262"/><stop offset="1" stop-color="#6d6d6d"/></linearGradient><path fill="url(#JQ17YRYHG4_Iso5zb0xLzd)" d="M11,24v15H3v-8.33c0-3.46,2.64-6.3,6.01-6.64C9.23,24.01,9.45,24,9.67,24H11z"/><linearGradient id="JQ17YRYHG4_Iso5zb0xLze" x1="11" x2="11" y1="33.841" y2="12.714" gradientUnits="userSpaceOnUse"><stop offset=".002" stop-color="#454545"/><stop offset=".013" stop-color="#464646"/><stop offset=".562" stop-color="#626262"/><stop offset="1" stop-color="#6d6d6d"/></linearGradient><path fill="url(#JQ17YRYHG4_Iso5zb0xLze)" d="M16,28l-0.02,11l-0.01,5H6V28c0-1.87,1.29-3.45,3.03-3.88C9.34,24.04,9.67,24,10,24h2	c0.33,0,0.66,0.04,0.97,0.12C14.71,24.55,16,26.13,16,28z"/><linearGradient id="JQ17YRYHG4_Iso5zb0xLzf" x1="11.005" x2="11.005" y1="34" y2="22.12" gradientUnits="userSpaceOnUse"><stop offset="0" stop-color="#f9f9f9"/><stop offset="1" stop-color="#c2c8cc"/></linearGradient><path fill="url(#JQ17YRYHG4_Iso5zb0xLzf)" d="M13,24.03l-0.03,0.09L11.03,32L11,31.88l-1.97-7.76l-0.02-0.09C9.23,24.01,9.45,24,9.67,24	h2.66C12.56,24,12.78,24.01,13,24.03z"/><linearGradient id="JQ17YRYHG4_Iso5zb0xLzg" x1="4.5" x2="4.5" y1="42.647" y2="36.719" gradientUnits="userSpaceOnUse"><stop offset="0" stop-color="#ffcf54"/><stop offset=".261" stop-color="#fdcb4d"/><stop offset=".639" stop-color="#f7c13a"/><stop offset="1" stop-color="#f0b421"/></linearGradient><path fill="url(#JQ17YRYHG4_Iso5zb0xLzg)" d="M6,39H3v0.5C3,40.328,3.672,41,4.5,41h0C5.328,41,6,40.328,6,39.5V39z"/><circle cx="11" cy="20" r="1" fill="#997119"/><linearGradient id="JQ17YRYHG4_Iso5zb0xLzh" x1="207.215" x2="207.215" y1="-29.16" y2="-31.376" gradientTransform="rotate(90 81.467 -101.5)" gradientUnits="userSpaceOnUse"><stop offset=".002" stop-color="#3b3b3b"/><stop offset=".013" stop-color="#3c3c3c"/><stop offset=".562" stop-color="#585858"/><stop offset="1" stop-color="#636363"/></linearGradient><path fill="url(#JQ17YRYHG4_Iso5zb0xLzh)" d="M10.72,23.803l-0.492-0.251C9.895,23.382,9.5,23.624,9.5,23.997v0.502 c0,0.373,0.395,0.615,0.727,0.445l0.492-0.251C11.083,24.508,11.083,23.988,10.72,23.803z"/><linearGradient id="JQ17YRYHG4_Iso5zb0xLzi" x1="207.215" x2="207.215" y1="-169.659" y2="-171.875" gradientTransform="matrix(0 1 1 0 182.524 -182.967)" gradientUnits="userSpaceOnUse"><stop offset=".002" stop-color="#3b3b3b"/><stop offset=".013" stop-color="#3c3c3c"/><stop offset=".562" stop-color="#585858"/><stop offset="1" stop-color="#636363"/></linearGradient><path fill="url(#JQ17YRYHG4_Iso5zb0xLzi)" d="M11.273,23.803l0.492-0.251c0.333-0.17,0.727,0.072,0.727,0.445v0.502 c0,0.373-0.395,0.615-0.727,0.445l-0.492-0.251C10.909,24.508,10.909,23.988,11.273,23.803z"/><linearGradient id="JQ17YRYHG4_Iso5zb0xLzj" x1="10.999" x2="10.999" y1="25.003" y2="23.521" gradientUnits="userSpaceOnUse"><stop offset=".002" stop-color="#3b3b3b"/><stop offset=".013" stop-color="#3c3c3c"/><stop offset=".562" stop-color="#585858"/><stop offset="1" stop-color="#636363"/></linearGradient><circle cx="10.999" cy="24.255" r=".499" fill="url(#JQ17YRYHG4_Iso5zb0xLzj)"/><linearGradient id="JQ17YRYHG4_Iso5zb0xLzk" x1="41" x2="41" y1="36.142" y2="12.898" gradientUnits="userSpaceOnUse"><stop offset=".002" stop-color="#454545"/><stop offset=".013" stop-color="#464646"/><stop offset=".562" stop-color="#626262"/><stop offset="1" stop-color="#6d6d6d"/></linearGradient><path fill="url(#JQ17YRYHG4_Iso5zb0xLzk)" d="M45,30.67V39h-8V24h1.33c0.23,0,0.45,0.01,0.67,0.03C42.37,24.37,45,27.22,45,30.67z"/><linearGradient id="JQ17YRYHG4_Iso5zb0xLzl" x1="-29.5" x2="-29.5" y1="42.647" y2="36.719" gradientTransform="matrix(-1 0 0 1 14 0)" gradientUnits="userSpaceOnUse"><stop offset="0" stop-color="#ffcf54"/><stop offset=".261" stop-color="#fdcb4d"/><stop offset=".639" stop-color="#f7c13a"/><stop offset="1" stop-color="#f0b421"/></linearGradient><path fill="url(#JQ17YRYHG4_Iso5zb0xLzl)" d="M42,39h3v0.5c0,0.828-0.672,1.5-1.5,1.5l0,0c-0.828,0-1.5-0.672-1.5-1.5V39z"/><linearGradient id="JQ17YRYHG4_Iso5zb0xLzm" x1="35.682" x2="38.379" y1="209.716" y2="202.285" gradientTransform="matrix(1 0 0 -1 0 224)" gradientUnits="userSpaceOnUse"><stop offset="0" stop-color="#ffcf54"/><stop offset=".261" stop-color="#fdcb4d"/><stop offset=".639" stop-color="#f7c13a"/><stop offset="1" stop-color="#f0b421"/></linearGradient><path fill="url(#JQ17YRYHG4_Iso5zb0xLzm)" d="M37.03,22c-2.2,0-4-1.8-4-4s1.8-4,4-4s4,1.8,4,4S39.23,22,37.03,22"/><linearGradient id="JQ17YRYHG4_Iso5zb0xLzn" x1="33" x2="33" y1="36.142" y2="12.898" gradientUnits="userSpaceOnUse"><stop offset=".002" stop-color="#454545"/><stop offset=".013" stop-color="#464646"/><stop offset=".562" stop-color="#626262"/><stop offset="1" stop-color="#6d6d6d"/></linearGradient><path fill="url(#JQ17YRYHG4_Iso5zb0xLzn)" d="M37,24v15h-8v-8.33c0-3.46,2.64-6.3,6.01-6.64c0.22-0.02,0.44-0.03,0.66-0.03H37z"/><linearGradient id="JQ17YRYHG4_Iso5zb0xLzo" x1="37" x2="37" y1="33.841" y2="12.714" gradientUnits="userSpaceOnUse"><stop offset=".002" stop-color="#454545"/><stop offset=".013" stop-color="#464646"/><stop offset=".562" stop-color="#626262"/><stop offset="1" stop-color="#6d6d6d"/></linearGradient><path fill="url(#JQ17YRYHG4_Iso5zb0xLzo)" d="M42,28l-0.02,11l-0.01,5H32V28c0-1.87,1.29-3.45,3.03-3.88C35.34,24.04,35.67,24,36,24h2	c0.33,0,0.66,0.04,0.97,0.12C40.71,24.55,42,26.13,42,28z"/><linearGradient id="JQ17YRYHG4_Iso5zb0xLzp" x1="37.005" x2="37.005" y1="34" y2="22.12" gradientUnits="userSpaceOnUse"><stop offset="0" stop-color="#f9f9f9"/><stop offset="1" stop-color="#c2c8cc"/></linearGradient><path fill="url(#JQ17YRYHG4_Iso5zb0xLzp)" d="M39,24.03l-0.03,0.09L37.03,32L37,31.88l-1.97-7.76l-0.02-0.09	c0.22-0.02,0.44-0.03,0.66-0.03h2.66C38.56,24,38.78,24.01,39,24.03z"/><linearGradient id="JQ17YRYHG4_Iso5zb0xLzq" x1="30.5" x2="30.5" y1="42.647" y2="36.719" gradientUnits="userSpaceOnUse"><stop offset="0" stop-color="#ffcf54"/><stop offset=".261" stop-color="#fdcb4d"/><stop offset=".639" stop-color="#f7c13a"/><stop offset="1" stop-color="#f0b421"/></linearGradient><path fill="url(#JQ17YRYHG4_Iso5zb0xLzq)" d="M32,39h-3v0.5c0,0.828,0.672,1.5,1.5,1.5h0c0.828,0,1.5-0.672,1.5-1.5V39z"/><circle cx="37" cy="20" r="1" fill="#997119"/><linearGradient id="JQ17YRYHG4_Iso5zb0xLzr" x1="207.215" x2="207.215" y1="-55.16" y2="-57.376" gradientTransform="rotate(90 81.467 -101.5)" gradientUnits="userSpaceOnUse"><stop offset=".002" stop-color="#3b3b3b"/><stop offset=".013" stop-color="#3c3c3c"/><stop offset=".562" stop-color="#585858"/><stop offset="1" stop-color="#636363"/></linearGradient><path fill="url(#JQ17YRYHG4_Iso5zb0xLzr)" d="M36.72,23.803l-0.492-0.251c-0.333-0.17-0.727,0.072-0.727,0.445v0.502 c0,0.373,0.395,0.615,0.727,0.445l0.492-0.251C37.083,24.508,37.083,23.988,36.72,23.803z"/><linearGradient id="JQ17YRYHG4_Iso5zb0xLzs" x1="207.215" x2="207.215" y1="-143.659" y2="-145.875" gradientTransform="matrix(0 1 1 0 182.524 -182.967)" gradientUnits="userSpaceOnUse"><stop offset=".002" stop-color="#3b3b3b"/><stop offset=".013" stop-color="#3c3c3c"/><stop offset=".562" stop-color="#585858"/><stop offset="1" stop-color="#636363"/></linearGradient><path fill="url(#JQ17YRYHG4_Iso5zb0xLzs)" d="M37.273,23.803l0.492-0.251c0.333-0.17,0.727,0.072,0.727,0.445v0.502 c0,0.373-0.395,0.615-0.727,0.445l-0.492-0.251C36.909,24.508,36.909,23.988,37.273,23.803z"/><linearGradient id="JQ17YRYHG4_Iso5zb0xLzt" x1="36.999" x2="36.999" y1="25.003" y2="23.521" gradientUnits="userSpaceOnUse"><stop offset=".002" stop-color="#3b3b3b"/><stop offset=".013" stop-color="#3c3c3c"/><stop offset=".562" stop-color="#585858"/><stop offset="1" stop-color="#636363"/></linearGradient><circle cx="36.999" cy="24.255" r=".499" fill="url(#JQ17YRYHG4_Iso5zb0xLzt)"/><g><linearGradient id="JQ17YRYHG4_Iso5zb0xLzu" x1="28" x2="28" y1="42.971" y2="19.307" gradientUnits="userSpaceOnUse"><stop offset=".002" stop-color="#454545"/><stop offset=".013" stop-color="#464646"/><stop offset=".562" stop-color="#626262"/><stop offset="1" stop-color="#6d6d6d"/></linearGradient><path fill="url(#JQ17YRYHG4_Iso5zb0xLzu)" d="M32,30.67V39h-8V24h1.33c0.23,0,0.45,0.01,0.67,0.03C29.37,24.37,32,27.22,32,30.67z"/><linearGradient id="JQ17YRYHG4_Iso5zb0xLzv" x1="-16.5" x2="-16.5" y1="42.647" y2="36.719" gradientTransform="matrix(-1 0 0 1 14 0)" gradientUnits="userSpaceOnUse"><stop offset="0" stop-color="#ffcf54"/><stop offset=".261" stop-color="#fdcb4d"/><stop offset=".639" stop-color="#f7c13a"/><stop offset="1" stop-color="#f0b421"/></linearGradient><path fill="url(#JQ17YRYHG4_Iso5zb0xLzv)" d="M29,39h3v0.5c0,0.828-0.672,1.5-1.5,1.5h0c-0.828,0-1.5-0.672-1.5-1.5V39z"/><linearGradient id="JQ17YRYHG4_Iso5zb0xLzw" x1="22.682" x2="25.379" y1="209.716" y2="202.285" gradientTransform="matrix(1 0 0 -1 0 224)" gradientUnits="userSpaceOnUse"><stop offset="0" stop-color="#ffcf54"/><stop offset=".261" stop-color="#fdcb4d"/><stop offset=".639" stop-color="#f7c13a"/><stop offset="1" stop-color="#f0b421"/></linearGradient><path fill="url(#JQ17YRYHG4_Iso5zb0xLzw)" d="M24.03,22c-2.2,0-4-1.8-4-4s1.8-4,4-4s4,1.8,4,4S26.23,22,24.03,22"/><linearGradient id="JQ17YRYHG4_Iso5zb0xLzx" x1="20" x2="20" y1="42.971" y2="19.307" gradientUnits="userSpaceOnUse"><stop offset=".002" stop-color="#454545"/><stop offset=".013" stop-color="#464646"/><stop offset=".562" stop-color="#626262"/><stop offset="1" stop-color="#6d6d6d"/></linearGradient><path fill="url(#JQ17YRYHG4_Iso5zb0xLzx)" d="M24,24v15h-8v-8.33c0-3.46,2.64-6.3,6.01-6.64c0.22-0.02,0.44-0.03,0.66-0.03H24z"/><linearGradient id="JQ17YRYHG4_Iso5zb0xLzy" x1="24" x2="24" y1="63.255" y2="1.815" gradientUnits="userSpaceOnUse"><stop offset=".002" stop-color="#454545"/><stop offset=".013" stop-color="#464646"/><stop offset=".562" stop-color="#626262"/><stop offset="1" stop-color="#6d6d6d"/></linearGradient><path fill="url(#JQ17YRYHG4_Iso5zb0xLzy)" d="M29,28l-0.02,11l-0.01,5H19V28c0-1.87,1.29-3.45,3.03-3.88C22.34,24.04,22.67,24,23,24h2 c0.33,0,0.66,0.04,0.97,0.12C27.71,24.55,29,26.13,29,28z"/><linearGradient id="JQ17YRYHG4_Iso5zb0xLzz" x1="24.005" x2="24.005" y1="34" y2="22.12" gradientUnits="userSpaceOnUse"><stop offset="0" stop-color="#f9f9f9"/><stop offset="1" stop-color="#c2c8cc"/></linearGradient><path fill="url(#JQ17YRYHG4_Iso5zb0xLzz)" d="M26,24.03l-0.03,0.09L24.03,32L24,31.88l-1.97-7.76l-0.02-0.09 c0.22-0.02,0.44-0.03,0.66-0.03h2.66C25.56,24,25.78,24.01,26,24.03z"/><linearGradient id="JQ17YRYHG4_Iso5zb0xLzA" x1="17.5" x2="17.5" y1="42.647" y2="36.719" gradientUnits="userSpaceOnUse"><stop offset="0" stop-color="#ffcf54"/><stop offset=".261" stop-color="#fdcb4d"/><stop offset=".639" stop-color="#f7c13a"/><stop offset="1" stop-color="#f0b421"/></linearGradient><path fill="url(#JQ17YRYHG4_Iso5zb0xLzA)" d="M19,39h-3v0.5c0,0.828,0.672,1.5,1.5,1.5h0c0.828,0,1.5-0.672,1.5-1.5V39z"/><circle cx="24" cy="20" r="1" fill="#997119"/><linearGradient id="JQ17YRYHG4_Iso5zb0xLzB" x1="207.215" x2="207.215" y1="-42.16" y2="-44.376" gradientTransform="rotate(90 81.467 -101.5)" gradientUnits="userSpaceOnUse"><stop offset=".002" stop-color="#3b3b3b"/><stop offset=".013" stop-color="#3c3c3c"/><stop offset=".562" stop-color="#585858"/><stop offset="1" stop-color="#636363"/></linearGradient><path fill="url(#JQ17YRYHG4_Iso5zb0xLzB)" d="M23.72,23.803l-0.492-0.251c-0.333-0.17-0.727,0.072-0.727,0.445v0.502 c0,0.373,0.395,0.615,0.727,0.445l0.492-0.251C24.083,24.508,24.083,23.988,23.72,23.803z"/><linearGradient id="JQ17YRYHG4_Iso5zb0xLzC" x1="207.215" x2="207.215" y1="-156.659" y2="-158.875" gradientTransform="matrix(0 1 1 0 182.524 -182.967)" gradientUnits="userSpaceOnUse"><stop offset=".002" stop-color="#3b3b3b"/><stop offset=".013" stop-color="#3c3c3c"/><stop offset=".562" stop-color="#585858"/><stop offset="1" stop-color="#636363"/></linearGradient><path fill="url(#JQ17YRYHG4_Iso5zb0xLzC)" d="M24.273,23.803l0.492-0.251c0.333-0.17,0.727,0.072,0.727,0.445v0.502 c0,0.373-0.395,0.615-0.727,0.445l-0.492-0.251C23.909,24.508,23.909,23.988,24.273,23.803z"/><linearGradient id="JQ17YRYHG4_Iso5zb0xLzD" x1="23.999" x2="23.999" y1="25.003" y2="23.521" gradientUnits="userSpaceOnUse"><stop offset=".002" stop-color="#3b3b3b"/><stop offset=".013" stop-color="#3c3c3c"/><stop offset=".562" stop-color="#585858"/><stop offset="1" stop-color="#636363"/></linearGradient><circle cx="23.999" cy="24.255" r=".499" fill="url(#JQ17YRYHG4_Iso5zb0xLzD)"/></g><linearGradient id="JQ17YRYHG4_Iso5zb0xLzE" x1="18.5" x2="18.5" y1="14.588" y2="5.123" gradientUnits="userSpaceOnUse"><stop offset="0" stop-color="#ed3675"/><stop offset="1" stop-color="#ca1b4d"/></linearGradient><path fill="url(#JQ17YRYHG4_Iso5zb0xLzE)" d="M21,7.5C21,7.224,20.776,7,20.5,7h-2C18.224,7,18,7.224,18,7.5V9v1.092	C17.843,10.036,17.676,10,17.5,10c-0.828,0-1.5,0.672-1.5,1.5s0.672,1.5,1.5,1.5s1.5-0.672,1.5-1.5V9h1.5C20.776,9,21,8.776,21,8.5	V7.5z"/><linearGradient id="JQ17YRYHG4_Iso5zb0xLzF" x1="32" x2="32" y1="14.094" y2="1.615" gradientUnits="userSpaceOnUse"><stop offset="0" stop-color="#ed3675"/><stop offset="1" stop-color="#ca1b4d"/></linearGradient><path fill="url(#JQ17YRYHG4_Iso5zb0xLzF)" d="M30.418,4.93C30.177,4.971,30,5.179,30,5.424V7v2.092C29.843,9.036,29.676,9,29.5,9	C28.672,9,28,9.672,28,10.5s0.672,1.5,1.5,1.5s1.5-0.672,1.5-1.5V6.833l4-0.667v1.925C34.843,8.036,34.676,8,34.5,8	C33.672,8,33,8.672,33,9.5s0.672,1.5,1.5,1.5S36,10.328,36,9.5V6V4.59c0-0.309-0.277-0.544-0.582-0.493L30.418,4.93z"/></svg>