<svg xmlns="http://www.w3.org/2000/svg" xmlns:xlink="http://www.w3.org/1999/xlink" data-name="Слой 1" viewBox="0 0 48 48"><defs><linearGradient id="66xh0LjnhOrad6XRuGQdNa" x1="5.001" x2="6.89" y1="20.043" y2="25.232" data-name="Безымянный градиент 155" gradientUnits="userSpaceOnUse"><stop offset="0" stop-color="#3079d6"/><stop offset="1" stop-color="#297cd2"/></linearGradient><linearGradient id="66xh0LjnhOrad6XRuGQdNb" x1="9.5" x2="-.205" y1="29.5" y2="29.5" data-name="Безымянный градиент 147" gradientUnits="userSpaceOnUse"><stop offset="0" stop-color="#dfe9f2"/><stop offset=".391" stop-color="#d6e0e9"/><stop offset="1" stop-color="#bfc8d1"/></linearGradient><linearGradient id="66xh0LjnhOrad6XRuGQdNd" x1="4" x2="12" y1="32.5" y2="32.5" xlink:href="#66xh0LjnhOrad6XRuGQdNa"/><linearGradient id="66xh0LjnhOrad6XRuGQdNe" x1="16" x2="36" y1="33.125" y2="33.125" xlink:href="#66xh0LjnhOrad6XRuGQdNa"/><linearGradient id="66xh0LjnhOrad6XRuGQdNf" x1="22" x2="22" y1="16.261" y2="2.338" xlink:href="#66xh0LjnhOrad6XRuGQdNb"/><linearGradient id="66xh0LjnhOrad6XRuGQdNc" x1="21" x2="21" y1="13.717" y2="21.935" data-name="Новый образец градиентной зал 3" gradientUnits="userSpaceOnUse"><stop offset="0" stop-color="#32bdef"/><stop offset="1" stop-color="#1ea2e4"/></linearGradient><linearGradient id="66xh0LjnhOrad6XRuGQdNg" x1="14" x2="29" y1="21" y2="21" xlink:href="#66xh0LjnhOrad6XRuGQdNa"/><linearGradient id="66xh0LjnhOrad6XRuGQdNh" x1="20.424" x2="30.44" y1="12.963" y2="40.481" xlink:href="#66xh0LjnhOrad6XRuGQdNc"/></defs><path fill="url(#66xh0LjnhOrad6XRuGQdNa)" d="M4,21H8a1,1,0,0,1,1,1v1.75a0,0,0,0,1,0,0H3a0,0,0,0,1,0,0V22A1,1,0,0,1,4,21Z"/><path fill="url(#66xh0LjnhOrad6XRuGQdNb)" d="M8.5,29H2v-.5a.5.5,0,0,0-1,0v2a.5.5,0,0,0,1,0V30H8.5a.5.5,0,0,0,0-1Z"/><path fill="url(#66xh0LjnhOrad6XRuGQdNd)" d="M11,31H5c-.55231,0-1,.67157-1,1.5S4.44769,34,5,34h6a1,1,0,0,0,1-1V32A1,1,0,0,0,11,31Z"/><path fill="url(#66xh0LjnhOrad6XRuGQdNe)" d="M16,31.25H36a0,0,0,0,1,0,0V33a2,2,0,0,1-2,2H18a2,2,0,0,1-2-2V31.25A0,0,0,0,1,16,31.25Z"/><path fill="url(#66xh0LjnhOrad6XRuGQdNf)" d="M21,17a.99974.99974,0,0,1-1-1V11a2.84041,2.84041,0,0,1,3-3,1,1,0,0,1,0,2c-.70117,0-1,.29883-1,1v5A.99974.99974,0,0,1,21,17Z"/><path fill="url(#66xh0LjnhOrad6XRuGQdNc)" d="M20,15h2a1,1,0,0,1,1,1v3a0,0,0,0,1,0,0H19a0,0,0,0,1,0,0V16A1,1,0,0,1,20,15Z"/><path fill="url(#66xh0LjnhOrad6XRuGQdNg)" d="M24,18H18.48062a1,1,0,0,0-.78086.3753L14,23l7,1,8-1V21a1,1,0,0,0-1-1H26a1,1,0,0,1-1-1h0A1,1,0,0,0,24,18Z"/><path fill="url(#66xh0LjnhOrad6XRuGQdNh)" d="M11.77259,33H39a9,9,0,0,0,9-9V22a1,1,0,0,0-1-1H41.23607a1.00013,1.00013,0,0,0-.44722.10557L37.211,22.8945a1.00013,1.00013,0,0,1-.44692.10557l-36.1333.01032a.62971.62971,0,0,0-.42315,1.09589l10.22041,8.37433A2,2,0,0,0,11.77259,33Z"/></svg>