<svg xmlns="http://www.w3.org/2000/svg" viewBox="0 0 48 48"><path fill="#50e6ff" d="M28,5H11C9.895,5,9,5.895,9,7v22h5v14h23c1.105,0,2-0.895,2-2V16L28,5z"/><linearGradient id="xOFSXxVukTEzPOE90~uVua" x1="28.529" x2="33.6" y1="-190.529" y2="-195.6" gradientTransform="translate(0 206)" gradientUnits="userSpaceOnUse"><stop offset="0" stop-color="#3079d6"/><stop offset="1" stop-color="#297cd2"/></linearGradient><path fill="url(#xOFSXxVukTEzPOE90~uVua)" d="M28,5v9c0,1.105,0.895,2,2,2h9L28,5z"/><rect width="4" height="12" x="9" y="7" fill="#d6a121"/><linearGradient id="xOFSXxVukTEzPOE90~uVub" x1="11" x2="11" y1="43.93" y2="31.193" gradientUnits="userSpaceOnUse"><stop offset="0" stop-color="#8795a1"/><stop offset="1" stop-color="#6d7882"/></linearGradient><path fill="url(#xOFSXxVukTEzPOE90~uVub)" d="M6,27v3v2v10c0,1.105,0.895,2,2,2s2-0.895,2-2V32c0-0.552,0.448-1,1-1s1,0.448,1,1v10	c0,1.105,0.895,2,2,2s2-0.895,2-2V32v-2v-3H6z"/><linearGradient id="xOFSXxVukTEzPOE90~uVuc" x1="11" x2="11" y1="14.247" y2="27.273" gradientUnits="userSpaceOnUse"><stop offset="0" stop-color="#8795a1"/><stop offset=".077" stop-color="#84929d"/><stop offset="1" stop-color="#626c75"/></linearGradient><path fill="url(#xOFSXxVukTEzPOE90~uVuc)" d="M3,31V20.667C3,16.991,5.991,14,9.667,14h2.667C16.009,14,19,16.991,19,20.667V31H3z"/><linearGradient id="xOFSXxVukTEzPOE90~uVud" x1="11" x2="11" y1="14.442" y2="31.211" gradientUnits="userSpaceOnUse"><stop offset="0" stop-color="#8795a1"/><stop offset="1" stop-color="#6d7882"/></linearGradient><path fill="url(#xOFSXxVukTEzPOE90~uVud)" d="M12,14h-2c-2.209,0-4,1.791-4,4v13h10V18C16,15.791,14.209,14,12,14z"/><linearGradient id="xOFSXxVukTEzPOE90~uVue" x1="17.259" x2="18.216" y1="-320.875" y2="-323.003" gradientTransform="matrix(1 0 0 -1 0 -290)" gradientUnits="userSpaceOnUse"><stop offset="0" stop-color="#ffcf54"/><stop offset=".261" stop-color="#fdcb4d"/><stop offset=".639" stop-color="#f7c13a"/><stop offset="1" stop-color="#f0b421"/></linearGradient><path fill="url(#xOFSXxVukTEzPOE90~uVue)" d="M19,31h-3c0,0,0,0.221,0,0.5c0,0.828,0.672,1.5,1.5,1.5s1.5-0.672,1.5-1.5	C19,31.221,19,31,19,31z"/><linearGradient id="xOFSXxVukTEzPOE90~uVuf" x1="4.259" x2="5.216" y1="-320.875" y2="-323.003" gradientTransform="matrix(1 0 0 -1 0 -290)" gradientUnits="userSpaceOnUse"><stop offset="0" stop-color="#ffcf54"/><stop offset=".261" stop-color="#fdcb4d"/><stop offset=".639" stop-color="#f7c13a"/><stop offset="1" stop-color="#f0b421"/></linearGradient><path fill="url(#xOFSXxVukTEzPOE90~uVuf)" d="M6,31H3c0,0,0,0.221,0,0.5C3,32.328,3.672,33,4.5,33S6,32.328,6,31.5C6,31.221,6,31,6,31z"/><path fill="#fff" d="M11,22l1.992-7.967C12.775,14.012,12.556,14,12.334,14H9.667c-0.222,0-0.442,0.012-0.659,0.033L11,22	z"/><polygon fill="#d32f2f" points="10,14.5 10.5,15 10.11,18.442 11,22 11.89,18.442 11.5,15 12,14.5 11,14"/><linearGradient id="xOFSXxVukTEzPOE90~uVug" x1="14.397" x2="14.905" y1="9.238" y2="9.238" gradientUnits="userSpaceOnUse"><stop offset="0" stop-color="#c48f0c"/><stop offset=".251" stop-color="#d19b16"/><stop offset=".619" stop-color="#dca51f"/><stop offset="1" stop-color="#e0a922"/></linearGradient><path fill="url(#xOFSXxVukTEzPOE90~uVug)" d="M14.397,8.476h-0.201V10h0.268c0.196,0,0.364-0.119,0.396-0.282l0.131-0.649	C15.054,8.759,14.77,8.476,14.397,8.476z"/><linearGradient id="xOFSXxVukTEzPOE90~uVuh" x1="-743.603" x2="-743.095" y1="9.238" y2="9.238" gradientTransform="matrix(-1 0 0 1 -736 0)" gradientUnits="userSpaceOnUse"><stop offset="0" stop-color="#c48f0c"/><stop offset=".251" stop-color="#d19b16"/><stop offset=".619" stop-color="#dca51f"/><stop offset="1" stop-color="#e0a922"/></linearGradient><path fill="url(#xOFSXxVukTEzPOE90~uVuh)" d="M7.603,8.476h0.201V10H7.536C7.34,10,7.173,9.881,7.14,9.718L7.009,9.069	C6.946,8.759,7.23,8.476,7.603,8.476z"/><radialGradient id="xOFSXxVukTEzPOE90~uVui" cx="74.439" cy="41.216" r="6.246" gradientTransform="translate(-37.041 -18.1) scale(.6454)" gradientUnits="userSpaceOnUse"><stop offset="0" stop-color="#ffcf54"/><stop offset=".261" stop-color="#fdcb4d"/><stop offset=".639" stop-color="#f7c13a"/><stop offset="1" stop-color="#f0b421"/></radialGradient><path fill="url(#xOFSXxVukTEzPOE90~uVui)" d="M11,4C9.273,4,7.5,4,7.5,6.304c0,0.299,0,3.411,0,3.73C7.5,11.367,9.6,13,11,13	s3.5-1.633,3.5-2.966c0-0.319,0-3.431,0-3.73C14.5,4,12.727,4,11,4z"/><radialGradient id="xOFSXxVukTEzPOE90~uVuj" cx="69.137" cy="33.846" r="15.722" gradientTransform="translate(-37.041 -18.1) scale(.6454)" gradientUnits="userSpaceOnUse"><stop offset="0" stop-color="#c26715"/><stop offset=".508" stop-color="#b85515"/><stop offset="1" stop-color="#ad3f16"/></radialGradient><path fill="url(#xOFSXxVukTEzPOE90~uVuj)" d="M11,3.303c-1.659,0-1.905,0.623-1.905,0.623C8.421,4.026,7,5,7,7v2h1	c0.208-2.494,0.428-3.619,1.095-3.619c0.483,0,0.866,0.381,1.905,0.381c0.877,0,1.095-0.381,1.905-0.381C14.048,5.381,14,8.607,14,9	h1c0,0,0-1.584,0-2C15,5,13.365,3.303,11,3.303z"/><radialGradient id="xOFSXxVukTEzPOE90~uVuk" cx="78.598" cy="34.83" r="17.38" gradientTransform="matrix(.6172 0 0 .6454 -38.057 -18.1)" gradientUnits="userSpaceOnUse"><stop offset="0" stop-color="#c26715"/><stop offset=".508" stop-color="#b85515"/><stop offset="1" stop-color="#ad3f16"/></radialGradient><path fill="url(#xOFSXxVukTEzPOE90~uVuk)" d="M11.083,3.095c-1.586,0-1.987,0.831-1.987,0.831C9.08,4.368,9.295,4.758,9.295,4.758	s0.29,0.623,1.943,0.623c0.998,0,2.429-0.623,2.429-2.286C13.667,3.095,13.345,3.095,11.083,3.095z"/></svg>