<svg xmlns="http://www.w3.org/2000/svg" viewBox="0 0 48 48"><linearGradient id="OY51ZQaWw10MQX_Yc6Q2Ya" x1="39.001" x2="41.528" y1="29.5" y2="29.5" gradientUnits="userSpaceOnUse"><stop offset="0" stop-color="#c48f0c"/><stop offset=".251" stop-color="#d19b16"/><stop offset=".619" stop-color="#dca51f"/><stop offset="1" stop-color="#e0a922"/></linearGradient><path fill="url(#OY51ZQaWw10MQX_Yc6Q2Ya)" d="M38.999,25H38v9h1.333c0.975,0,1.808-0.703,1.972-1.664l0.653-3.832	C42.269,26.672,40.857,25,38.999,25z"/><linearGradient id="OY51ZQaWw10MQX_Yc6Q2Yb" x1="343" x2="345.528" y1="29.5" y2="29.5" gradientTransform="matrix(-1 0 0 1 352 0)" gradientUnits="userSpaceOnUse"><stop offset="0" stop-color="#c48f0c"/><stop offset=".251" stop-color="#d19b16"/><stop offset=".619" stop-color="#dca51f"/><stop offset="1" stop-color="#e0a922"/></linearGradient><path fill="url(#OY51ZQaWw10MQX_Yc6Q2Yb)" d="M9.001,25H10v9H8.667c-0.975,0-1.808-0.703-1.972-1.664l-0.653-3.832	C5.731,26.672,7.143,25,9.001,25z"/><radialGradient id="OY51ZQaWw10MQX_Yc6Q2Yc" cx="24" cy="25.5" r="17.396" gradientUnits="userSpaceOnUse"><stop offset="0" stop-color="#ffcf54"/><stop offset=".261" stop-color="#fdcb4d"/><stop offset=".639" stop-color="#f7c13a"/><stop offset="1" stop-color="#f0b421"/></radialGradient><path fill="url(#OY51ZQaWw10MQX_Yc6Q2Yc)" d="M24,6C16.598,6,9,9,9,25c0,1.281,0,5.92,0,7.288C9,38,18,45,24,45s15-7,15-12.712	c0-1.368,0-6.007,0-7.288C39,9,31.402,6,24,6z"/><radialGradient id="OY51ZQaWw10MQX_Yc6Q2Yd" cx="9.386" cy="5.933" r="42.765" gradientUnits="userSpaceOnUse"><stop offset="0" stop-color="#c26715"/><stop offset=".508" stop-color="#b85515"/><stop offset="1" stop-color="#ad3f16"/></radialGradient><path fill="url(#OY51ZQaWw10MQX_Yc6Q2Yd)" d="M24,4c-7.982,0-10,3-10,3c-3.245,0.479-7,4.566-7,10c0,3.032,0.653,4.439,2,12c1-12,2-16,4-16	c3,0,3,2,11.778,2C29.801,15,32,13,34,13c5,0,5,14.108,5,16c0.806-7.405,1-9.351,1-12C40,10.712,35.383,4,24,4z"/><radialGradient id="OY51ZQaWw10MQX_Yc6Q2Ye" cx="20.832" cy="9.178" r="53.981" gradientUnits="userSpaceOnUse"><stop offset="0" stop-color="#c26715"/><stop offset=".508" stop-color="#b85515"/><stop offset="1" stop-color="#ad3f16"/></radialGradient><path fill="url(#OY51ZQaWw10MQX_Yc6Q2Ye)" d="M24,3c-7.982,0-10,4-10,4c-0.08,2.125,1,4,1,4s1.46,3,9.778,3C29.801,14,37,11.003,37,3	C37,3,35.383,3,24,3z"/><circle cx="44" cy="10" r="1" fill="#edbe00"/><circle cx="41" cy="6" r="1" fill="#edbe00"/><circle cx="45" cy="15" r="1" fill="#edbe00"/><circle cx="4" cy="10" r="1" fill="#edbe00"/><circle cx="7" cy="6" r="1" fill="#edbe00"/><circle cx="3" cy="15" r="1" fill="#edbe00"/><path fill="#2b1d1d" d="M31,33c-0.711,0-2.738,2.079-7,2.079S17.711,33,17,33s-1,0.31-1,1c0,1.187,3.621,7,8,7s8-5.813,8-7	C32,33.31,31.711,33,31,33z"/><radialGradient id="OY51ZQaWw10MQX_Yc6Q2Yf" cx="24.082" cy="33.287" r="5.264" gradientUnits="userSpaceOnUse"><stop offset="0" stop-color="#fff"/><stop offset=".209" stop-color="#f8f8f8"/><stop offset=".514" stop-color="#e4e4e4"/><stop offset=".877" stop-color="#c4c4c4"/><stop offset="1" stop-color="#b8b8b8"/></radialGradient><path fill="url(#OY51ZQaWw10MQX_Yc6Q2Yf)" d="M29.616,35.348C29.859,35.156,30,34.869,30,34.559v-1.139C28.897,34.006,27.017,35,24,35	s-4.897-0.994-6-1.579v1.139c0,0.309,0.141,0.596,0.384,0.789C19.104,35.921,20.876,37,24,37S28.896,35.921,29.616,35.348z"/><linearGradient id="OY51ZQaWw10MQX_Yc6Q2Yg" x1="30" x2="30" y1="23.963" y2="26.281" gradientUnits="userSpaceOnUse"><stop offset="0" stop-color="#c48f0c"/><stop offset=".251" stop-color="#d19b16"/><stop offset=".619" stop-color="#dca51f"/><stop offset="1" stop-color="#e0a922"/></linearGradient><path fill="url(#OY51ZQaWw10MQX_Yc6Q2Yg)" d="M30,25.575c1.4,0,2.742,0.238,4,0.659C33.165,24.897,31.692,24,30,24s-3.165,0.897-4,2.234	C27.258,25.813,28.6,25.575,30,25.575z"/><linearGradient id="OY51ZQaWw10MQX_Yc6Q2Yh" x1="18" x2="18" y1="23.963" y2="26.281" gradientUnits="userSpaceOnUse"><stop offset="0" stop-color="#c48f0c"/><stop offset=".251" stop-color="#d19b16"/><stop offset=".619" stop-color="#dca51f"/><stop offset="1" stop-color="#e0a922"/></linearGradient><path fill="url(#OY51ZQaWw10MQX_Yc6Q2Yh)" d="M18,25.575c1.4,0,2.742,0.238,4,0.659C21.165,24.897,19.692,24,18,24s-3.165,0.897-4,2.234	C15.258,25.813,16.6,25.575,18,25.575z"/></svg>