<svg xmlns="http://www.w3.org/2000/svg" baseProfile="basic" viewBox="0 0 48 48"><linearGradient id="CuwDdzEYa9OwS0KauNx7Ca" x1="6.822" x2="35.494" y1="-2.542" y2="43.343" gradientUnits="userSpaceOnUse"><stop offset="0" stop-color="#9fa7b0"/><stop offset="1" stop-color="#c3cdd9"/></linearGradient><path fill="url(#CuwDdzEYa9OwS0KauNx7Ca)" d="M8.491,28.884c0.109,0.918,0.69,2.108,1.203,3.127H9.222H6.111	c-0.233,0-0.459-0.023-0.669-0.078c-1.097-0.233-1.968-1.05-2.294-2.1C3.047,29.537,3,29.226,3,28.899v-7.34	c0-0.856,0.7-1.556,1.556-1.556H6V18.01c0-3.173,0.928-5.629,4-6.01h1.016c-0.824,1.828-1.793,3.879-1.793,6.01v7H9.23	c-0.482,1.034-0.786,2.077-0.786,3.111C8.444,28.355,8.46,28.611,8.491,28.884z M39.51,28.884c-0.109,0.918-0.69,2.108-1.203,3.127	h0.472h3.111c0.233,0,0.459-0.023,0.669-0.078c1.097-0.233,1.968-1.05,2.294-2.1c0.101-0.296,0.148-0.607,0.148-0.933v-7.34	c0-0.856-0.7-1.556-1.556-1.556h-1.444V18.01c0-3.173-0.928-5.629-4-6.01h-1.016c0.824,1.828,1.793,3.879,1.793,6.01v7H38.77	c0.482,1.034,0.786,2.077,0.786,3.111C39.557,28.355,39.541,28.611,39.51,28.884z"/><path d="M41,27.81c0,1.02-0.28,2.64-1.04,4.19H8.05C7.28,30.46,7,28.83,7,27.81c0-1.11,0.3-2.27,0.91-3.55 C7.93,24.2,7.97,24.14,8,24.07v-6.29c0-1.93,0.34-3.8,1.02-5.56c0.3-0.1,0.63-0.18,0.98-0.22h28c0.35,0.04,0.67,0.11,0.97,0.22 c0.68,1.75,1.03,3.62,1.03,5.56v6.29c0.04,0.08,0.07,0.13,0.1,0.19C40.7,25.54,41,26.7,41,27.81z" opacity=".05"/><path d="M40.5,27.81c0,0.98-0.27,2.56-1.04,4.06c-0.02,0.04-0.04,0.09-0.07,0.13H8.61c-0.03-0.04-0.05-0.09-0.07-0.13 c-0.77-1.5-1.04-3.08-1.04-4.06c0-1.04,0.28-2.13,0.86-3.34c0.03-0.08,0.08-0.16,0.12-0.24L8.5,24.2v-6.42 c0-1.99,0.38-3.91,1.13-5.71C9.75,12.03,9.87,12.02,10,12h28c0.13,0.02,0.25,0.03,0.37,0.07c0.75,1.8,1.13,3.72,1.13,5.71v6.42 l0.02,0.03c0.04,0.08,0.09,0.16,0.12,0.24C40.22,25.68,40.5,26.77,40.5,27.81z" opacity=".07"/><linearGradient id="CuwDdzEYa9OwS0KauNx7Cb" x1="15.383" x2="30.604" y1="5.664" y2="30.022" gradientUnits="userSpaceOnUse"><stop offset="0" stop-color="#6d7882"/><stop offset="1" stop-color="#8f979e"/></linearGradient><path fill="url(#CuwDdzEYa9OwS0KauNx7Cb)" d="M39,17.776v7h-0.008c-0.608-1.299-1.484-2.59-2.361-3.889	c-1.579-2.333-6.632-4.918-12.639-4.918c-6.961,0-11.053,3.111-12.632,5.444c-0.876,1.299-1.753,2.59-2.361,3.889v-0.526v-7	c0-2.131,0.458-4.169,1.295-5.997c0.466-1.027,1.042-1.991,1.721-2.87C14.739,5.324,19.097,2.998,24,2.998	c4.895,0,9.253,2.318,11.984,5.903c0.679,0.887,1.255,1.851,1.721,2.878C38.542,13.607,39,15.645,39,17.776z"/><radialGradient id="CuwDdzEYa9OwS0KauNx7Cc" cx="24.177" cy="9.099" r="35.786" gradientUnits="userSpaceOnUse"><stop offset="0" stop-color="#fafafb"/><stop offset="1" stop-color="#c8cdd1"/></radialGradient><path fill="url(#CuwDdzEYa9OwS0KauNx7Cc)" d="M39.192,24.688c-0.616-1.305-1.504-2.602-2.392-3.906c-1.009-1.479-1.519-4.189-1.717-5.987	c-0.112-1.019-0.964-1.791-1.988-1.792L14.924,13c-1.036,0-1.915,0.786-2.001,1.819c-0.152,1.836-0.58,4.29-1.723,5.963	c-0.888,1.305-1.776,2.602-2.392,3.906C8.312,25.727,8,26.774,8,27.813c0,1.023,0.304,2.5,0.984,3.828	c0.872,1.719,2.368,3.203,4.616,3.203c3.024,0,3.16,3.57,3.344,5.985C17,41.619,17,42.275,17,42.658c0,1.371,7,1.363,7,1.363	s7,0.008,7-1.363c0-0.383,0-1.039,0.056-1.828c0.184-2.414,0.32-5.985,3.344-5.985c2.248,0,3.744-1.484,4.616-3.203	C39.696,30.313,40,28.837,40,27.813C40,26.774,39.688,25.727,39.192,24.688z"/><linearGradient id="CuwDdzEYa9OwS0KauNx7Cd" x1="15.588" x2="30.934" y1="14.487" y2="39.045" gradientUnits="userSpaceOnUse"><stop offset="0" stop-color="#6d7479"/><stop offset=".051" stop-color="#696f74"/><stop offset=".447" stop-color="#4b5053"/><stop offset=".777" stop-color="#393c3f"/><stop offset="1" stop-color="#323538"/></linearGradient><path fill="url(#CuwDdzEYa9OwS0KauNx7Cd)" d="M26.984,35.846c0,0.742-0.513,1.154-1.197,1.154c-0.94,0-1.624-1.567-1.795-2.226	c0,0.825-0.684,2.226-1.795,2.226C21.513,37,21,36.588,21,35.846c0-1.567,1.881-4.617,2.992-4.865	C25.104,31.393,26.984,34.279,26.984,35.846z M19.434,22.818c-2.714-1-5.126,0.3-5.93,2.9c-1.307,3.8,0.201,5.6,1.407,6	c3.216,0.9,5.93-0.3,6.834-3.3C22.449,26.518,21.645,23.618,19.434,22.818L19.434,22.818z M28.559,22.818	c-2.211,0.8-3.015,3.7-2.312,5.6c0.905,3,3.618,4.2,6.834,3.3c1.206-0.4,2.714-2.2,1.407-6	C33.685,23.118,31.273,21.818,28.559,22.818L28.559,22.818z"/></svg>