<svg xmlns="http://www.w3.org/2000/svg" id="Layer_1" x="0" y="0" version="1.1" viewBox="0 0 48 48" xml:space="preserve"><linearGradient id="SVGID_1_" x1="18.633" x2="29.709" y1="6.633" y2="17.709" gradientUnits="userSpaceOnUse"><stop offset="0" stop-color="#33bef0"/><stop offset="1" stop-color="#0a85d9"/></linearGradient><path fill="url(#SVGID_1_)" d="M25,6c-3.9,0-7,3.1-7,7s3.1,7,7,7s7-3.1,7-7S28.9,6,25,6z"/><path fill="#d7dadd" d="M17,30H9v-7c0.1,0,2.6-1,4.8-1c1.2,0,2.3,0.2,3.2,0.7c3.2,1.5,4.9,5.8,5,6c0.2,0.5-0.5,1.4-0.5,1.4H17z"/><linearGradient id="SVGID_2_" x1="7" x2="21" y1="32.5" y2="32.5" gradientUnits="userSpaceOnUse"><stop offset="0" stop-color="#c965eb"/><stop offset="1" stop-color="#c767e5"/></linearGradient><path fill="url(#SVGID_2_)" d="M20,35H8c-0.6,0-1-0.4-1-1c0,0,0,0,0,0v-3c0-0.6,0.4-1,1-1c0,0,0,0,0,0h12c0.6,0,1,0.4,1,1c0,0,0,0,0,0v3	C21,34.6,20.6,35,20,35C20,35,20,35,20,35z"/><linearGradient id="SVGID_3_" x1="19" x2="44" y1="991" y2="991" gradientTransform="translate(0 -962)" gradientUnits="userSpaceOnUse"><stop offset="0" stop-color="#c965eb"/><stop offset="1" stop-color="#c767e5"/></linearGradient><path fill="url(#SVGID_3_)" d="M44,34H19v-9c0-0.6,0.4-1,1-1h22c1.1,0,2,0.9,2,2V34z"/><linearGradient id="SVGID_4_" x1="4" x2="44" y1="992" y2="992" gradientTransform="translate(0 -962)" gradientUnits="userSpaceOnUse"><stop offset="0" stop-color="#7819a2"/><stop offset="1" stop-color="#771aa9"/></linearGradient><path fill="url(#SVGID_4_)" d="M8,42H5c-0.6,0-1-0.4-1-1V20.5C4,19.1,5.1,18,6.5,18l0,0C7.9,18,9,19.1,9,20.5V33h34c0.6,0,1,0.4,1,1v7	c0,0.6-0.4,1-1,1h-3c-0.6,0-1-0.4-1-1v-3H9v3C9,41.6,8.6,42,8,42z"/><path d="M24.4,17.2v-1.3h-2.7v-2.5l0.3-0.3c0.2-0.3,0.5-0.5,0.7-0.9c0.2-0.3,0.5-0.6,0.7-1c0.2-0.3,0.4-0.6,0.6-1	c0.2-0.3,0.3-0.6,0.5-0.9l0.3-0.6h2.9v4h0.8v3h-0.8v1.3H24.4z" opacity=".05"/><path d="M24.9,16.7v-1.3h-2.7v-1.8l0.1-0.1c0.2-0.3,0.5-0.6,0.7-0.9c0.3-0.3,0.5-0.6,0.7-1c0.2-0.3,0.5-0.7,0.7-1	c0.2-0.3,0.4-0.6,0.5-0.9L25,9.3h2.1v4h0.8v2h-0.8v1.3H24.9z" opacity=".07"/><path fill="#fff" d="M26.6,9.8v4h0.8v1h-0.8v1.3h-1.3v-1.3h-2.7v-1.1c0.2-0.3,0.5-0.6,0.8-0.9c0.3-0.3,0.5-0.7,0.8-1s0.5-0.7,0.7-1	c0.2-0.3,0.4-0.7,0.5-1H26.6z M23.9,13.8h1.5v-2.2c-0.1,0.2-0.2,0.4-0.3,0.6c-0.1,0.2-0.2,0.4-0.4,0.6c-0.1,0.2-0.3,0.4-0.4,0.5	C24.1,13.5,24,13.7,23.9,13.8z"/></svg>