<svg xmlns="http://www.w3.org/2000/svg" viewBox="0 0 48 48"><linearGradient id="Mu3fXa15Xg97WVokVx8L7a" x1="12.707" x2="20.138" y1="6.84" y2="43.532" gradientUnits="userSpaceOnUse"><stop offset="0" stop-color="#ffd869"/><stop offset="1" stop-color="#fec52b"/></linearGradient><path fill="url(#Mu3fXa15Xg97WVokVx8L7a)" d="M15,30.281c0,1.979-1,3.428-1,6.719c0,3.314,1.343,6,3,6s3-2.686,3-6c0-3.291-1-4.739-1-6.719	c0-1.073,1.19-2.494,2.64-4.281h-9.28C13.81,27.787,15,29.209,15,30.281z"/><linearGradient id="Mu3fXa15Xg97WVokVx8L7b" x1="15.056" x2="22.487" y1="6.364" y2="43.056" gradientUnits="userSpaceOnUse"><stop offset="0" stop-color="#ffd869"/><stop offset="1" stop-color="#fec52b"/></linearGradient><path fill="url(#Mu3fXa15Xg97WVokVx8L7b)" d="M8,16c0,0.684,0.054,1.352,0.152,2h17.695C25.946,17.352,26,16.684,26,16	c0-1.413-0.226-2.759-0.623-4H8.623C8.226,13.241,8,14.587,8,16z"/><path fill="#d35230" d="M17,5c-3.815,0-7.067,2.905-8.377,7h16.754C24.067,7.905,20.815,5,17,5z"/><linearGradient id="Mu3fXa15Xg97WVokVx8L7c" x1="17" x2="17" y1="17.971" y2="28.823" gradientUnits="userSpaceOnUse"><stop offset="0" stop-color="#18939a"/><stop offset=".41" stop-color="#168c93"/><stop offset="1" stop-color="#117981"/></linearGradient><path fill="url(#Mu3fXa15Xg97WVokVx8L7c)" d="M10.333,23.371c0.672,0.951,1.376,1.827,2.027,2.629h9.28	c0.651-0.802,1.355-1.678,2.027-2.629c1.097-1.482,1.871-3.326,2.181-5.371H8.152C8.463,20.045,9.236,21.889,10.333,23.371z"/><linearGradient id="Mu3fXa15Xg97WVokVx8L7d" x1="33.122" x2="44.827" y1="4.604" y2="40.088" gradientUnits="userSpaceOnUse"><stop offset="0" stop-color="#ffd869"/><stop offset="1" stop-color="#fec52b"/></linearGradient><path fill="url(#Mu3fXa15Xg97WVokVx8L7d)" d="M39,17.719c0-1.979,1-3.428,1-6.719c0-3.314-1.343-6-3-6s-3,2.686-3,6	c0,3.291,1,4.739,1,6.719c0,0.864-0.773,1.956-1.831,3.281h7.663C39.773,19.674,39,18.583,39,17.719z"/><linearGradient id="Mu3fXa15Xg97WVokVx8L7e" x1="27.552" x2="39.257" y1="6.441" y2="41.925" gradientUnits="userSpaceOnUse"><stop offset="0" stop-color="#ffd869"/><stop offset="1" stop-color="#fec52b"/></linearGradient><path fill="url(#Mu3fXa15Xg97WVokVx8L7e)" d="M37,43c4.118,0,7.583-3.385,8.652-8H28.348C29.417,39.615,32.882,43,37,43z"/><linearGradient id="Mu3fXa15Xg97WVokVx8L7f" x1="37" x2="37" y1="13.297" y2="36.806" gradientUnits="userSpaceOnUse"><stop offset="0" stop-color="#fed100"/><stop offset="1" stop-color="#e36001"/></linearGradient><path fill="url(#Mu3fXa15Xg97WVokVx8L7f)" d="M45.656,29H28.344C28.122,29.953,28,30.959,28,32c0,1.041,0.126,2.045,0.348,3h17.305	C45.874,34.045,46,33.041,46,32C46,30.959,45.878,29.953,45.656,29z"/><path fill="#af2031" d="M28.344,29h17.312c-0.384-1.646-1.074-3.135-1.989-4.371c-0.963-1.363-1.99-2.571-2.835-3.629h-7.663	c-0.845,1.059-1.872,2.266-2.835,3.629C29.418,25.865,28.728,27.354,28.344,29z"/></svg>