<svg xmlns="http://www.w3.org/2000/svg" viewBox="0 0 48 48"><path fill="#50e6ff" d="M39,16v25c0,1.105-0.895,2-2,2H11c-1.105,0-2-0.895-2-2V7c0-1.105,0.895-2,2-2h17L39,16z"/><linearGradient id="Zn4t3JrF3UjEknh2U8sk6a" x1="28.529" x2="33.6" y1="374.528" y2="379.6" gradientTransform="matrix(1 0 0 -1 0 390)" gradientUnits="userSpaceOnUse"><stop offset="0" stop-color="#3079d6"/><stop offset="1" stop-color="#297cd2"/></linearGradient><path fill="url(#Zn4t3JrF3UjEknh2U8sk6a)" d="M28,5v9c0,1.105,0.895,2,2,2h9L28,5z"/><linearGradient id="Zn4t3JrF3UjEknh2U8sk6b" x1="16" x2="32.356" y1="28.031" y2="28.031" gradientUnits="userSpaceOnUse"><stop offset="0" stop-color="#c965eb"/><stop offset="1" stop-color="#c767e5"/></linearGradient><path fill="url(#Zn4t3JrF3UjEknh2U8sk6b)" d="M26,22.644V26h-9.25C16.336,26,16,26.336,16,26.75v2.5c0,0.414,0.336,0.75,0.75,0.75H26v3.418	c0,0.541,0.654,0.811,1.035,0.427l4.994-5.021c0.436-0.439,0.436-1.148,0-1.586l-4.994-5.021C26.654,21.833,26,22.103,26,22.644z"/></svg>