<svg xmlns="http://www.w3.org/2000/svg" viewBox="0 0 48 48"><linearGradient id="8e1TCYvH4XiBCD5aeGrTRa" x1="16.242" x2="30.925" y1="246.478" y2="211.507" gradientTransform="matrix(1 0 0 -1 0 254)" gradientUnits="userSpaceOnUse"><stop offset="0" stop-color="#7dd8f3"/><stop offset="1" stop-color="#45b0d0"/></linearGradient><path fill="url(#8e1TCYvH4XiBCD5aeGrTRa)" d="M43,11H23.828c-0.53,0-1.039-0.211-1.414-0.586l-2.536-2.536C19.316,7.316,18.553,7,17.757,7	H5C3.895,7,3,7.895,3,9v30c0,1.105,0.895,2,2,2h8c0-1.105,0.895-2,2-2s2,0.895,2,2h14c0-1.105,0.895-2,2-2s2,0.895,2,2h8	c1.105,0,2-0.895,2-2V13C45,11.895,44.105,11,43,11z"/><path d="M33.005,27.947l-3.524-1.931c-0.764-0.419-1.715-0.269-2.313,0.365	c-0.483,0.512-1.186,1.256-1.431,1.498c-0.9-0.699-1.706-1.406-2.458-2.158c-0.771-0.77-1.497-1.599-2.167-2.461	c0.189-0.182,0.974-0.923,1.508-1.427c0.633-0.598,0.783-1.549,0.364-2.314l-1.931-3.521c-0.436-0.797-1.382-1.182-2.25-0.91	l-2.718,0.846l-1.079,0.596c-0.856,0.496-1.229,1.557-0.867,2.469c1.43,3.598,3.549,6.816,6.298,9.564	c2.75,2.75,5.968,4.868,9.566,6.299c0.234,0.093,0.479,0.137,0.721,0.137c0.699,0,1.379-0.37,1.748-1.006l0.506-0.875l0.935-2.921	C34.183,29.329,33.801,28.383,33.005,27.947z" opacity=".05"/><path d="M32.765,28.385l-3.523-1.931c-0.566-0.309-1.269-0.198-1.71,0.27	c-0.513,0.544-1.274,1.349-1.44,1.521c-0.003,0.003-0.281,0.286-0.515,0.142c-0.976-0.748-1.843-1.504-2.65-2.312	c-0.805-0.804-1.561-1.671-2.284-2.61c-0.171-0.273,0.112-0.552,0.114-0.555c0.171-0.166,0.977-0.926,1.521-1.44	c0.468-0.442,0.579-1.145,0.27-1.71l-1.931-3.522c-0.322-0.589-1.02-0.872-1.662-0.672l-2.718,0.846l-0.978,0.552	c-0.644,0.372-0.924,1.168-0.653,1.851c1.405,3.535,3.487,6.696,6.188,9.396c2.701,2.701,5.863,4.783,9.396,6.188	c0.175,0.069,0.358,0.103,0.539,0.103c0.524,0,1.035-0.278,1.312-0.756l0.506-0.875l0.891-2.82	C33.635,29.406,33.353,28.708,32.765,28.385z" opacity=".07"/><path fill="#fff" d="M32.524,28.824l-3.523-1.931c-0.366-0.2-0.82-0.129-1.106,0.174	c-0.515,0.546-1.278,1.353-1.444,1.525c-0.244,0.252-0.73,0.472-1.179,0.191c-0.937-0.718-1.842-1.497-2.699-2.355	c-0.857-0.857-1.636-1.762-2.354-2.698c-0.282-0.449-0.062-0.936,0.19-1.18c0.172-0.166,0.979-0.929,1.525-1.444	c0.303-0.286,0.375-0.74,0.174-1.106l-1.931-3.523c-0.209-0.382-0.659-0.564-1.075-0.434l-2.718,0.846l-0.875,0.507	c-0.429,0.248-0.622,0.774-0.439,1.233c1.335,3.359,3.358,6.509,6.076,9.227c2.718,2.718,5.868,4.741,9.227,6.076	c0.46,0.183,0.986-0.01,1.234-0.439l0.507-0.875c0,0,0,0,0,0l0.846-2.718C33.088,29.483,32.907,29.033,32.524,28.824z"/></svg>