<svg xmlns="http://www.w3.org/2000/svg" viewBox="0 0 48 48"><path fill="#199be2" d="M19,23h-4v2h4c0.552,0,1-0.448,1-1C20,23.448,19.552,23,19,23z"/><path fill="#199be2" d="M19,19h-4v2h4c0.552,0,1-0.448,1-1C20,19.448,19.552,19,19,19z"/><path fill="#199be2" d="M19,15h-4v2h4c0.552,0,1-0.448,1-1C20,15.448,19.552,15,19,15z"/><path fill="#199be2" d="M19,11h-4v2h4c0.552,0,1-0.448,1-1C20,11.448,19.552,11,19,11z"/><path fill="#199be2" d="M19,7h-4v2h4c0.552,0,1-0.448,1-1C20,7.448,19.552,7,19,7z"/><path fill="#35c1f1" d="M19,26.947V5c0-0.552-0.448-1-1-1h-6c-0.552,0-1,0.448-1,1v21.947C8.039,28.421,6,31.469,6,35	c0,4.971,4.029,9,9,9s9-4.029,9-9C24,31.468,21.961,28.42,19,26.947z"/><circle cx="15" cy="35" r="6" fill="#af2031"/><rect width="2" height="16" x="14" y="15" fill="#af2031"/><rect width="2" height="8" x="14" y="7" fill="#1b9de2"/><linearGradient id="d72uZuDxXsqdHbvj65U~Ha" x1="36" x2="36" y1="2.831" y2="42.864" gradientUnits="userSpaceOnUse"><stop offset="0" stop-color="#0078d3"/><stop offset="1" stop-color="#0858a1"/></linearGradient><path fill="url(#d72uZuDxXsqdHbvj65U~Ha)" d="M30.607,11H34v31c0,0.552,0.448,1,1,1h2c0.552,0,1-0.448,1-1V11h3.393	c0.54,0,0.81-0.653,0.428-1.034l-4.964-4.964c-0.473-0.473-1.241-0.473-1.714,0l-4.964,4.964C29.797,10.347,30.067,11,30.607,11z"/></svg>