<svg xmlns="http://www.w3.org/2000/svg" viewBox="0 0 48 48"><linearGradient id="VA1DyrC4VYVThlFtIuXS0a" x1="6" x2="42" y1="-313" y2="-313" gradientTransform="matrix(1 0 0 -1 0 -290)" gradientUnits="userSpaceOnUse"><stop offset="0" stop-color="#11408a"/><stop offset="1" stop-color="#103f8f"/></linearGradient><path fill="url(#VA1DyrC4VYVThlFtIuXS0a)" d="M40,43H8c-1.105,0-2-0.895-2-2V20L24,3l18,17v21C42,42.105,41.105,43,40,43z"/><path d="M24,4c-0.474,0-0.948,0.168-1.326,0.503l-5.359,4.811L6,20v5.39L24,9.428	L42,25.39V20L30.685,9.314l-5.359-4.811C24.948,4.168,24.474,4,24,4z" opacity=".05"/><path d="M24,40.992c-0.534,0-1.036-0.208-1.414-0.586L11.272,29.093c-0.377-0.376-0.585-0.878-0.585-1.414	s0.208-1.038,0.586-1.415c3.38-3.381,7.899-5.248,12.725-5.256c4.828,0.008,9.349,1.875,12.729,5.257	c0.377,0.376,0.585,0.878,0.585,1.414s-0.208,1.038-0.586,1.415L25.414,40.406C25.036,40.784,24.534,40.992,24,40.992z" opacity=".05"/><path d="M24,40.492c-0.4,0-0.777-0.156-1.061-0.439L11.626,28.739c-0.283-0.282-0.438-0.659-0.438-1.061	s0.155-0.778,0.438-1.061c3.287-3.288,7.682-5.103,12.373-5.11c4.693,0.008,9.088,1.822,12.375,5.11	c0.283,0.282,0.438,0.659,0.438,1.061s-0.155,0.778-0.438,1.061L25.061,40.053C24.777,40.336,24.4,40.492,24,40.492z" opacity=".07"/><path d="M24,3c-0.474,0-0.948,0.167-1.326,0.5l-5.359,4.784L6,18.909v5.359	L24,8.397l18,15.871v-5.359L30.685,8.284L25.326,3.5C24.948,3.167,24.474,3,24,3z" opacity=".07"/><linearGradient id="VA1DyrC4VYVThlFtIuXS0b" x1="3.17" x2="44.83" y1="-302.5" y2="-302.5" gradientTransform="matrix(1 0 0 -1 0 -290)" gradientUnits="userSpaceOnUse"><stop offset="0" stop-color="#1d59b3"/><stop offset="1" stop-color="#195bbc"/></linearGradient><path fill="url(#VA1DyrC4VYVThlFtIuXS0b)" d="M44.495,19.507L25.326,2.503C24.948,2.168,24.474,2,24,2s-0.948,0.168-1.326,0.503	L3.505,19.507c-0.42,0.374-0.449,1.02-0.064,1.43l1.636,1.745c0.369,0.394,0.984,0.424,1.39,0.067L24,7.428L41.533,22.75	c0.405,0.356,1.021,0.327,1.39-0.067l1.636-1.745C44.944,20.527,44.915,19.881,44.495,19.507z"/><path fill="#0078d4" d="M36.021,26.972c0.389,0.389,0.389,1.025,0,1.414l-2.836,2.835c-2.242-2.411-5.36-3.875-8.648-4.009 c-3.486-0.148-6.908,1.181-9.376,3.649c-0.113,0.113-0.233,0.233-0.346,0.361l-2.835-2.835c-0.389-0.389-0.389-1.025,0-1.414 c3.309-3.309,7.658-4.957,12.021-4.964C28.363,22.015,32.712,23.662,36.021,26.972z"/><path fill="#1b9de2" d="M33.546,30.154c0.12,0.12,0.24,0.24,0.346,0.361l-3.543,3.543c-1.534-1.718-3.698-2.751-5.982-2.857 c-2.376-0.099-4.695,0.806-6.378,2.489c-0.12,0.12-0.233,0.233-0.339,0.368l-3.543-3.543c0.106-0.12,0.226-0.24,0.346-0.361 C19.715,24.893,28.285,24.893,33.546,30.154z"/><path fill="#35c1f1" d="M30.718,32.982c0.12,0.12,0.233,0.233,0.346,0.361l-3.592,3.592c-1.032-0.75-2.249-1.117-3.472-1.11 c-1.223-0.007-2.44,0.361-3.472,1.11l-3.592-3.592c0.113-0.127,0.226-0.24,0.346-0.361C20.988,29.277,27.012,29.277,30.718,32.982z"/><path fill="#50e6ff" d="M28.222,36.173c0,0.004,0,0.007-0.001,0.012L24.707,39.7c-0.39,0.39-1.024,0.39-1.414,0 l-3.514-3.514c0-0.004,0-0.007-0.001-0.012C21.991,33.54,26.008,33.539,28.222,36.173z"/></svg>