<svg xmlns="http://www.w3.org/2000/svg" viewBox="0 0 48 48"><linearGradient id="ghMlpEUX3vs9~ABjxgtEXa" x1="24" x2="24" y1="-38.957" y2="-37.199" gradientTransform="matrix(1 0 0 -1 0 -18)" gradientUnits="userSpaceOnUse"><stop offset="0" stop-color="#484b4f"/><stop offset=".23" stop-color="#656d75"/><stop offset=".367" stop-color="#727d86"/></linearGradient><path fill="url(#ghMlpEUX3vs9~ABjxgtEXa)" d="M30,22.142h-2V20c0-2.206-1.794-4-4-4s-4,1.794-4,4v1.958h-2V20c0-3.309,2.691-6,6-6 s6,2.691,6,6V22.142z"/><path fill="#c48c00" d="M32.25,33h-16.5C15.336,33,15,32.664,15,32.25V30h18v2.25C33,32.664,32.664,33,32.25,33z"/><rect width="18" height="3" x="15" y="27" fill="#e3a600"/><rect width="18" height="3" x="15" y="24" fill="#edbe00"/><path fill="#fad500" d="M33,24H15v-2.25c0-0.414,0.336-0.75,0.75-0.75h16.5c0.414,0,0.75,0.336,0.75,0.75V24z"/><linearGradient id="ghMlpEUX3vs9~ABjxgtEXb" x1="24" x2="24" y1="-47.851" y2="-42.766" gradientTransform="matrix(1 0 0 -1 0 -18)" gradientUnits="userSpaceOnUse"><stop offset="0" stop-color="#4b4b4b"/><stop offset="1" stop-color="#3b3b3b"/></linearGradient><path fill="url(#ghMlpEUX3vs9~ABjxgtEXb)" d="M26,26c0-1.105-0.895-2-2-2s-2,0.895-2,2c0,0.738,0.405,1.376,1,1.723V30 c0,0.552,0.448,1,1,1s1-0.448,1-1v-2.277C25.595,27.376,26,26.738,26,26z"/><path fill="#199be2" d="M47.897,22.559C47.729,22.217,47.381,22,47,22H37c-0.381,0-0.729,0.217-0.897,0.559 c-0.168,0.342-0.128,0.749,0.104,1.051l5,6.5C41.396,30.355,41.689,30.5,42,30.5s0.604-0.145,0.793-0.391l5-6.5 C48.025,23.308,48.065,22.9,47.897,22.559z"/><path fill="#199be2" d="M15.445,9.309c8.487-4.936,19.264-1.702,23.69,6.921c1.116,2.175,1.708,4.477,1.839,6.77h2.982 c-0.4-8.09-5.697-15.464-13.878-18.069C20.086,1.752,9.071,7.037,5.335,16.835C1.217,27.634,7.029,39.536,17.888,43.029 c4.257,1.369,8.637,1.232,12.567-0.11c0.566-0.193,0.813-0.861,0.54-1.393l-0.461-0.898c-0.229-0.446-0.747-0.639-1.222-0.482 c-8.216,2.708-17.458-1.21-20.986-9.592C5.052,22.775,8.149,13.55,15.445,9.309z"/></svg>