<svg xmlns="http://www.w3.org/2000/svg" baseProfile="basic" viewBox="0 0 48 48"><linearGradient id="qp_sfMo9Mu5tPNJIzNtisa" x1="24" x2="24" y1="9.149" y2="3.23" gradientTransform="matrix(1 0 0 -1 0 47.89)" gradientUnits="userSpaceOnUse"><stop offset="0" stop-color="#484b4f"/><stop offset=".427" stop-color="#656d75"/><stop offset=".798" stop-color="#727d86"/></linearGradient><path fill="url(#qp_sfMo9Mu5tPNJIzNtisa)" d="M41,42H7v-5h34V42z"/><linearGradient id="qp_sfMo9Mu5tPNJIzNtisb" x1="-36" x2="-36" y1="47.149" y2="41.23" gradientTransform="matrix(-1 0 0 1 -12 -36.89)" gradientUnits="userSpaceOnUse"><stop offset="0" stop-color="#484b4f"/><stop offset=".427" stop-color="#656d75"/><stop offset=".798" stop-color="#727d86"/></linearGradient><path fill="url(#qp_sfMo9Mu5tPNJIzNtisb)" d="M7,7h34v5H7V7z"/><linearGradient id="qp_sfMo9Mu5tPNJIzNtisc" x1="24" x2="24" y1="12.384" y2="10.221" gradientTransform="matrix(1 0 0 -1 0 47.89)" gradientUnits="userSpaceOnUse"><stop offset="0" stop-color="#484b4f"/><stop offset=".427" stop-color="#656d75"/><stop offset=".798" stop-color="#727d86"/></linearGradient><path fill="url(#qp_sfMo9Mu5tPNJIzNtisc)" d="M41,38H7v-3h34V38z"/><linearGradient id="qp_sfMo9Mu5tPNJIzNtisd" x1="24" x2="24" y1="36.384" y2="34.376" gradientTransform="matrix(-1 0 0 1 48 -22.89)" gradientUnits="userSpaceOnUse"><stop offset="0" stop-color="#484b4f"/><stop offset=".427" stop-color="#656d75"/><stop offset=".798" stop-color="#727d86"/></linearGradient><path fill="url(#qp_sfMo9Mu5tPNJIzNtisd)" d="M7,11h34v3H7V11z"/><linearGradient id="qp_sfMo9Mu5tPNJIzNtise" x1="10.23" x2="34.808" y1="35.008" y2="14.271" gradientTransform="matrix(1 0 0 -1 0 47.89)" gradientUnits="userSpaceOnUse"><stop offset="0" stop-color="#c3cdd9"/><stop offset="1" stop-color="#9fa7b0"/></linearGradient><path fill="url(#qp_sfMo9Mu5tPNJIzNtise)" d="M41,36H7V13h34V36z"/><linearGradient id="qp_sfMo9Mu5tPNJIzNtisf" x1="33" x2="33" y1="16.955" y2="13.404" gradientUnits="userSpaceOnUse"><stop offset="0" stop-color="#737b80"/><stop offset=".473" stop-color="#686f74"/><stop offset="1" stop-color="#575c61"/></linearGradient><path fill="url(#qp_sfMo9Mu5tPNJIzNtisf)" d="M38.515,18h-11.03	C27.217,18,27,17.783,27,17.515v-2.03C27,15.217,27.217,15,27.485,15h11.03C38.783,15,39,15.217,39,15.485v2.03	C39,17.783,38.783,18,38.515,18z"/><path fill="#50e6ff" d="M31.563,34h-4.126C27.196,34,27,33.804,27,33.563v-1.126C27,32.196,27.196,32,27.437,32h4.126	C31.804,32,32,32.196,32,32.437v1.126C32,33.804,31.804,34,31.563,34z"/><path fill="#50e6ff" d="M38.563,34h-4.126C34.196,34,34,33.804,34,33.563v-1.126C34,32.196,34.196,32,34.437,32h4.126	C38.804,32,39,32.196,39,32.437v1.126C39,33.804,38.804,34,38.563,34z"/><path d="M23.874,31H10.126C9.504,31,9,30.496,9,29.874V19.126C9,18.504,9.504,18,10.126,18h13.748	C24.496,18,25,18.504,25,19.126v10.748C25,30.496,24.496,31,23.874,31z" opacity=".05"/><path d="M23.654,30.472H10.346c-0.479,0-0.867-0.388-0.867-0.867V19.395c0-0.479,0.388-0.867,0.867-0.867	h13.309c0.479,0,0.867,0.388,0.867,0.867v10.209C24.521,30.084,24.133,30.472,23.654,30.472z" opacity=".07"/><path fill="#61e3a7" d="M23.215,30H10.785C10.352,30,10,29.648,10,29.215v-9.429C10,19.352,10.352,19,10.785,19h12.429	C23.648,19,24,19.352,24,19.785v9.429C24,29.648,23.648,30,23.215,30z"/><linearGradient id="qp_sfMo9Mu5tPNJIzNtisg" x1="31.768" x2="34.541" y1="21.59" y2="29.651" gradientUnits="userSpaceOnUse"><stop offset="0" stop-color="#737b80"/><stop offset=".473" stop-color="#686f74"/><stop offset="1" stop-color="#575c61"/></linearGradient><path fill="url(#qp_sfMo9Mu5tPNJIzNtisg)" d="M36,22.434l2.657,2.737L36,27.909V22.434z M35.657,22.081L33,19.343l-2.657,2.737H35.657z M30,22.434l-2.657,2.737L30,27.909V22.434z M30.343,28.263L33,31l2.657-2.737	H30.343z"/><circle cx="10" cy="40" r="1" fill="#fff"/><circle cx="13" cy="40" r="1" fill="#fff"/><circle cx="18" cy="40" r="1" fill="#fff"/><circle cx="21" cy="40" r="1" fill="#fff"/><circle cx="24" cy="9" r="1" fill="#fff"/><circle cx="11" cy="9" r="1" fill="#fff"/><circle cx="37" cy="9" r="1" fill="#fff"/><circle cx="27" cy="40" r="1" fill="#fff"/><circle cx="30" cy="40" r="1" fill="#fff"/><circle cx="35" cy="40" r="1" fill="#fff"/><circle cx="38" cy="40" r="1" fill="#fff"/></svg>