<svg xmlns="http://www.w3.org/2000/svg" viewBox="0 0 48 48"><linearGradient id="748nUjdUULCqvAjtAD1QWa" x1="13.811" x2="32.628" y1="2.779" y2="54.478" gradientUnits="userSpaceOnUse"><stop offset="0" stop-color="#c26715"/><stop offset=".508" stop-color="#b85515"/><stop offset="1" stop-color="#ad3f16"/></linearGradient><path fill="url(#748nUjdUULCqvAjtAD1QWa)" d="M19,31c0,2.76,5,5,5,5s5-2.24,5-5s-2.24-5-5-5S19,28.24,19,31z"/><path fill="#b83c1f" d="M19,31c0,2.76,5,5,5,5V26C21.24,26,19,28.24,19,31z"/><linearGradient id="748nUjdUULCqvAjtAD1QWb" x1="16.446" x2="35.263" y1="1.972" y2="53.67" gradientUnits="userSpaceOnUse"><stop offset="0" stop-color="#c26715"/><stop offset=".508" stop-color="#b85515"/><stop offset="1" stop-color="#ad3f16"/></linearGradient><path fill="url(#748nUjdUULCqvAjtAD1QWb)" d="M30,23c0,3.31-6,6-6,6s-6-2.69-6-6	s2.69-6,6-6S30,19.69,30,23z"/><path fill="#b83c1f" d="M30,23c0,3.31-6,6-6,6V17C27.31,17,30,19.69,30,23z"/><linearGradient id="748nUjdUULCqvAjtAD1QWc" x1="19.409" x2="38.227" y1="1.066" y2="52.768" gradientUnits="userSpaceOnUse"><stop offset="0" stop-color="#c26715"/><stop offset=".508" stop-color="#b85515"/><stop offset="1" stop-color="#ad3f16"/></linearGradient><path fill="url(#748nUjdUULCqvAjtAD1QWc)" d="M17,14c0,3.87,7,7,7,7s7-3.13,7-7	s-3.13-7-7-7S17,10.13,17,14z"/><path fill="#b83c1f" d="M17,14c0,3.87,7,7,7,7V7C20.13,7,17,10.13,17,14z"/><linearGradient id="748nUjdUULCqvAjtAD1QWd" x1="22.034" x2="42.922" y1="-1.058" y2="56.331" gradientUnits="userSpaceOnUse"><stop offset="0" stop-color="#c26715"/><stop offset=".508" stop-color="#b85515"/><stop offset="1" stop-color="#ad3f16"/></linearGradient><path fill="url(#748nUjdUULCqvAjtAD1QWd)" d="M32,4c0,4.42-8,8-8,8s-8-3.58-8-8H32z"/><path fill="#b83c1f" d="M32,4c0,4.42-8,8-8,8V4H32z"/><linearGradient id="748nUjdUULCqvAjtAD1QWe" x1="10.867" x2="29.47" y1="4.17" y2="55.28" gradientUnits="userSpaceOnUse"><stop offset="0" stop-color="#c26715"/><stop offset=".508" stop-color="#b85515"/><stop offset="1" stop-color="#ad3f16"/></linearGradient><path fill="url(#748nUjdUULCqvAjtAD1QWe)" d="M27,40.5c0-2.761-1.343-4.5-3-4.5	s-3,1.739-3,4.5s3,5.5,3,5.5S27,43.261,27,40.5z"/><linearGradient id="748nUjdUULCqvAjtAD1QWf" x1="21.065" x2="27.783" y1="32.565" y2="39.283" gradientUnits="userSpaceOnUse"><stop offset="0" stop-color="#33bef0"/><stop offset="1" stop-color="#0a85d9"/></linearGradient><path fill="url(#748nUjdUULCqvAjtAD1QWf)" d="M25.5,37h-3c-0.828,0-1.5-0.672-1.5-1.5	l0,0c0-0.828,0.672-1.5,1.5-1.5h3c0.828,0,1.5,0.672,1.5,1.5l0,0C27,36.328,26.328,37,25.5,37z"/><path d="M25.5,33h-3c-0.74,0-1.41,0.32-1.87,0.84c0.13,0.12,0.26,0.23,0.39,0.33c0.13,0.11,0.26,0.21,0.39,0.3 C21.68,34.18,22.07,34,22.5,34h3c0.43,0,0.82,0.18,1.09,0.47c0.13-0.09,0.26-0.19,0.39-0.3c0.13-0.1,0.26-0.21,0.39-0.33 C26.91,33.32,26.24,33,25.5,33z M25.91,36.94C25.78,36.98,25.64,37,25.5,37h-3c-0.14,0-0.28-0.02-0.41-0.06 c-0.11,0.13-0.21,0.27-0.3,0.43c-0.09,0.13-0.17,0.28-0.25,0.44c0.3,0.12,0.62,0.19,0.96,0.19h3c0.34,0,0.66-0.07,0.96-0.19 c-0.08-0.16-0.16-0.31-0.25-0.44C26.12,37.21,26.02,37.07,25.91,36.94z" opacity=".05"/><path d="M25.5,33.5h-3c-0.59,0-1.12,0.26-1.48,0.67c0.13,0.11,0.26,0.21,0.39,0.3C21.68,34.18,22.07,34,22.5,34h3 c0.43,0,0.82,0.18,1.09,0.47c0.13-0.09,0.26-0.19,0.39-0.3C26.62,33.76,26.09,33.5,25.5,33.5z M25.5,37h-3 c-0.14,0-0.28-0.02-0.41-0.06c-0.11,0.13-0.21,0.27-0.3,0.43c0.22,0.08,0.46,0.13,0.71,0.13h3c0.25,0,0.49-0.05,0.71-0.13 c-0.09-0.16-0.19-0.3-0.3-0.43C25.78,36.98,25.64,37,25.5,37z" opacity=".07"/></svg>