<svg xmlns="http://www.w3.org/2000/svg" viewBox="0 0 48 48"><linearGradient id="HXPQEgWEdkoBEWJsvz7IWa" x1="12.05" x2="26.62" y1="8.158" y2="48.188" gradientUnits="userSpaceOnUse"><stop offset="0" stop-color="#9631cc"/><stop offset="1" stop-color="#7717a2"/></linearGradient><path fill="url(#HXPQEgWEdkoBEWJsvz7IWa)" d="M39.5,42.32C39.15,42.73,38.62,43,38,43H10c-1.46,0-2.42-1.51-1.81-2.84l1.66-3.49l1.82-3.82	l2.06-4.3l1.82-3.82l2.05-4.31l1.82-3.82l2.06-4.3l1.82-3.82L24,7l1.99,4.17l5.14,10.78l5.81,12.17l2.88,6.04	C40.17,40.93,40,41.76,39.5,42.32z"/><linearGradient id="HXPQEgWEdkoBEWJsvz7IWb" x1="19.533" x2="25.773" y1="2.533" y2="8.773" gradientUnits="userSpaceOnUse"><stop offset="0" stop-color="#9631cc"/><stop offset="1" stop-color="#7717a2"/></linearGradient><circle cx="24" cy="7" r="3" fill="url(#HXPQEgWEdkoBEWJsvz7IWb)"/><path d="M25.5,10.15L25.29,9.7C24.9,9.89,24.46,10,24,10s-0.89-0.1-1.28-0.29l-0.22,0.45l-0.21,0.45C22.81,10.86,23.39,11,24,11 s1.2-0.14,1.72-0.4L25.5,10.15z" opacity=".05"/><path d="M25.29,9.7C24.9,9.89,24.46,10,24,10s-0.89-0.1-1.28-0.29l-0.22,0.45c0.45,0.22,0.96,0.34,1.5,0.34s1.05-0.12,1.5-0.35 L25.29,9.7z" opacity=".07"/><linearGradient id="HXPQEgWEdkoBEWJsvz7IWc" x1="19.922" x2="34.551" y1="21.707" y2="61.9" gradientUnits="userSpaceOnUse"><stop offset="0" stop-color="#fed100"/><stop offset="1" stop-color="#e38101"/></linearGradient><path fill="url(#HXPQEgWEdkoBEWJsvz7IWc)" d="M20.669,28l1.95,3.95l4.359,0.633l-3.154,3.075L24.568,40l-3.899-2.05L16.77,40l0.745-4.342	l-3.154-3.075l4.359-0.633L20.669,28z M26.18,22.975L24,23.292l1.577,1.537L25.205,27l1.95-1.025L29.104,27l-0.372-2.171	l1.577-1.537l-2.18-0.317L27.154,21L26.18,22.975z M31.18,36.975L29,37.292l1.577,1.537L30.205,41l1.95-1.025L34.104,41	l-0.372-2.171l1.577-1.537l-2.18-0.317L32.154,35L31.18,36.975z M24,16.44l-3.27-0.48l-0.51-1.03l-0.8,1.67l-1.82,3.82l-0.58,1.22	l2.25-1.18L22.19,22l-0.56-3.26L24,16.44z"/></svg>