<svg xmlns="http://www.w3.org/2000/svg" viewBox="0 0 48 48"><path fill="#4d5155" d="M4,40L4,40c0-1.657,1.343-3,3-3h34c1.657,0,3,1.343,3,3l0,0c0,1.657-1.343,3-3,3H7	C5.343,43,4,41.657,4,40z"/><linearGradient id="92c1V~rj8aGzpWcRi_A_ja" x1="21.046" x2="32.107" y1="-567.331" y2="-603.441" gradientTransform="rotate(180 24 -281)" gradientUnits="userSpaceOnUse"><stop offset="0" stop-color="#ffc430"/><stop offset=".52" stop-color="#fbb730"/><stop offset="1" stop-color="#f7a72f"/></linearGradient><path fill="url(#92c1V~rj8aGzpWcRi_A_ja)" d="M28.333,5H11l-0.995,9.801L16,18h18v10l4.585-8.224l-0.445-4.254L28.333,5z"/><linearGradient id="92c1V~rj8aGzpWcRi_A_jb" x1="9.631" x2="22.921" y1="-569" y2="-612.388" gradientTransform="rotate(180 24 -281)" gradientUnits="userSpaceOnUse"><stop offset="0" stop-color="#ffc430"/><stop offset=".52" stop-color="#fbb730"/><stop offset="1" stop-color="#f7a72f"/></linearGradient><path fill="url(#92c1V~rj8aGzpWcRi_A_jb)" d="M31,18c0,2.209,1.791,4,4,4s4-1.791,4-4s-1.791-4-4-4S31,15.791,31,18z"/><linearGradient id="92c1V~rj8aGzpWcRi_A_jc" x1="28.788" x2="45.401" y1="-563.25" y2="-617.485" gradientTransform="rotate(180 24 -281)" gradientUnits="userSpaceOnUse"><stop offset="0" stop-color="#ffc430"/><stop offset=".52" stop-color="#fbb730"/><stop offset="1" stop-color="#f7a72f"/></linearGradient><path fill="url(#92c1V~rj8aGzpWcRi_A_jc)" d="M10,15c0,2.761,2.239,5,5,5s5-2.239,5-5s-2.239-5-5-5S10,12.239,10,15z"/><path fill="#37c6d0" d="M14,20v23h20V20c0-1.105-0.895-2-2-2H16C14.895,18,14,18.895,14,20z"/><linearGradient id="92c1V~rj8aGzpWcRi_A_jd" x1="25.542" x2="36.341" y1="-567.653" y2="-599.978" gradientTransform="rotate(180 24 -281)" gradientUnits="userSpaceOnUse"><stop offset="0" stop-color="#ffc430"/><stop offset=".52" stop-color="#fbb730"/><stop offset="1" stop-color="#f7a72f"/></linearGradient><polygon fill="url(#92c1V~rj8aGzpWcRi_A_jd)" points="10.462,17.097 16.499,29.887 23.686,26.443 18.72,13.525"/><linearGradient id="92c1V~rj8aGzpWcRi_A_je" x1="20.271" x2="32.881" y1="-566.667" y2="-604.734" gradientTransform="rotate(180 24 -281)" gradientUnits="userSpaceOnUse"><stop offset="0" stop-color="#ffc430"/><stop offset=".52" stop-color="#fbb730"/><stop offset="1" stop-color="#f7a72f"/></linearGradient><path fill="url(#92c1V~rj8aGzpWcRi_A_je)" d="M16,28c0,2.209,1.791,4,4,4s4-1.791,4-4s-1.791-4-4-4S16,25.791,16,28z"/><circle cx="20" cy="28" r="2" fill="#fff0c9"/></svg>