<svg xmlns="http://www.w3.org/2000/svg" xmlns:xlink="http://www.w3.org/1999/xlink" data-name="Слой 1" viewBox="0 0 48 48"><defs><linearGradient id="loQ1Nx2A_qcDJ8vzpzS_9a" x1="8.377" x2="18.223" y1="-.268" y2="26.784" data-name="Безымянный градиент 64" gradientUnits="userSpaceOnUse"><stop offset="0" stop-color="#7b83eb"/><stop offset="1" stop-color="#5961c3"/></linearGradient><linearGradient id="loQ1Nx2A_qcDJ8vzpzS_9b" x1="28.4" x2="38.802" y1="18.367" y2="46.947" xlink:href="#loQ1Nx2A_qcDJ8vzpzS_9a"/></defs><path fill="#5961c3" d="M34,14l1-.5,1,.5a3.00883,3.00883,0,0,1-3,3l-1,.5L31,17H29a3.00883,3.00883,0,0,1-3-3V12a3.00879,3.00879,0,0,1,3-3h4a3.00879,3.00879,0,0,1,3,3l-1,.5L34,12a1.003,1.003,0,0,0-1-1H29a1.003,1.003,0,0,0-1,1v2a1.003,1.003,0,0,0,1,1h2l1-.5,1,.5A1.003,1.003,0,0,0,34,14Z"/><path fill="#3940a4" d="M28,14H24a1,1,0,0,1,0-2h4a1,1,0,0,1,0,2Z"/><path fill="#3940a4" d="M39,15v4a3.00883,3.00883,0,0,1-3,3H34a3.00883,3.00883,0,0,1-3-3V17h2v2a1.003,1.003,0,0,0,1,1h2a1.003,1.003,0,0,0,1-1V15a1.003,1.003,0,0,0-1-1H34a1.003,1.003,0,0,0-1,1H31a3.00879,3.00879,0,0,1,3-3h2A3.00879,3.00879,0,0,1,39,15Z"/><path fill="#5961c3" d="M35,25a.99974.99974,0,0,1-1-1V20a1,1,0,0,1,2,0v4A.99974.99974,0,0,1,35,25Z"/><path fill="url(#loQ1Nx2A_qcDJ8vzpzS_9a)" d="M22,8H19.95123A9.46043,9.46043,0,0,0,11.5,2C6.26172,2,2,6.93457,2,13s4.26172,11,9.5,11a9.46043,9.46043,0,0,0,8.45123-6H22a2,2,0,0,0,2-2V10A2,2,0,0,0,22,8ZM11.5,20C8.46729,20,6,16.85938,6,13s2.46729-7,5.5-7S17,9.14063,17,13,14.53271,20,11.5,20Z"/><circle cx="20.5" cy="13" r="1.5" fill="#3940a4"/><path fill="url(#loQ1Nx2A_qcDJ8vzpzS_9b)" d="M40,28.04877V26a2,2,0,0,0-2-2H32a2,2,0,0,0-2,2v2.04877A9.46043,9.46043,0,0,0,24,36.5c0,5.23828,4.93457,9.5,11,9.5s11-4.26172,11-9.5A9.46043,9.46043,0,0,0,40,28.04877ZM35,42c-3.85986,0-7-2.46777-7-5.5S31.14014,31,35,31s7,2.46777,7,5.5S38.85986,42,35,42Z"/><circle cx="35" cy="27.5" r="1.5" fill="#3940a4"/></svg>