<svg xmlns="http://www.w3.org/2000/svg" viewBox="0 0 48 48"><linearGradient id="4W0fM2leLzbp0HPymelfwa" x1="9.67" x2="31.285" y1="9.363" y2="35.233" gradientUnits="userSpaceOnUse"><stop offset="0" stop-color="#f24f5a"/><stop offset=".443" stop-color="#ec3d4b"/><stop offset="1" stop-color="#e42430"/></linearGradient><path fill="url(#4W0fM2leLzbp0HPymelfwa)" d="M37,15.84c0,0.71-0.07,1.42-0.21,2.11c-0.15,0.7-0.36,1.39-0.64,2.05	c-0.46,1.07-1.09,2.07-1.87,2.95c-0.16,0.19-0.33,0.37-0.51,0.55L32.35,25l-2.82,2.97l-1.95,2.06l-2.8,2.95l-1.93,2.04l-2.8,2.96	l-1.94,2.04l-1.97,2.08l-0.05,0.05C15.55,42.67,14.81,43,14,43c-1.65,0-2.99-1.33-3-2.98c0-0.01,0-0.01,0-0.02	c0-0.73,0.27-1.4,0.72-1.92l-0.02-0.01l0.09-0.09l0.04-0.04c0.03-0.03,0.06-0.06,0.09-0.09l2.71-2.83l1.95-2.04l2.83-2.95l1.97-2.06	L24.23,25l1.96-2.05L29.02,20l0.15-0.16c0.57-0.57,1.06-1.19,1.38-1.89C30.84,17.36,31,16.71,31,16c0-0.01,0-0.01,0-0.02	c0-0.71-0.16-1.39-0.43-2.01c-0.2-0.45-0.46-0.87-0.79-1.24c-0.45-0.52-1.01-0.95-1.64-1.25c-0.32-0.15-0.66-0.27-1.01-0.35	c-0.06-0.01-0.11-0.02-0.17-0.03c-0.12-0.03-0.25-0.05-0.38-0.06C26.39,11.01,26.2,11,26,11c-0.13,0-0.26,0-0.38,0.02	c-0.06,0-0.13,0.01-0.19,0.02c-0.01-0.01-0.03,0-0.04,0c-0.11,0-0.2,0.02-0.3,0.04v0.01c-0.43,0.07-0.81,0.22-1.17,0.44	c-0.27,0.15-0.53,0.34-0.78,0.57c-0.03,0.03-0.07,0.06-0.09,0.09c-0.03,0.03-0.07,0.07-0.11,0.1c-0.04,0.02-0.07,0.05-0.11,0.09	c-0.01,0-0.01,0.01-0.02,0.01c0,0,0-0.01-0.01-0.01c-0.06,0.05-0.13,0.1-0.19,0.14c-0.07,0.04-0.14,0.08-0.21,0.12	c-0.07,0.04-0.13,0.07-0.2,0.1C21.83,12.91,21.43,13,21,13c-1.66,0-3-1.34-3-3c0-0.86,0.36-1.62,0.94-2.17V7.82	c0.39-0.35,0.8-0.67,1.23-0.96c0.57-0.39,1.17-0.72,1.79-0.99C23.26,5.31,24.67,5,26.13,5h0.1c0.68,0.01,1.36,0.07,2.01,0.21	c1.62,0.31,3.13,0.99,4.45,2.01c0.39,0.29,0.76,0.61,1.11,0.96c0.13,0.13,0.26,0.27,0.39,0.41c1.01,1.11,1.77,2.41,2.24,3.8	c0.22,0.65,0.38,1.32,0.47,2C36.97,14.87,37,15.35,37,15.84z"/><linearGradient id="4W0fM2leLzbp0HPymelfwb" x1="30.137" x2="32.71" y1="8.934" y2="11.689" gradientUnits="userSpaceOnUse"><stop offset="0" stop-color="#f7f7f7"/><stop offset=".26" stop-color="#eeeff0"/><stop offset=".678" stop-color="#d7dadd"/><stop offset="1" stop-color="#c0c6ca"/></linearGradient><path fill="url(#4W0fM2leLzbp0HPymelfwb)" d="M34.19,8.59l-4.41,4.14c-0.45-0.52-1.01-0.95-1.64-1.25l4.55-4.26	c0.39,0.29,0.76,0.61,1.11,0.96C33.93,8.31,34.06,8.45,34.19,8.59z"/><linearGradient id="4W0fM2leLzbp0HPymelfwc" x1="16.797" x2="24.068" y1="30.886" y2="38.673" gradientUnits="userSpaceOnUse"><stop offset="0" stop-color="#f7f7f7"/><stop offset=".26" stop-color="#eeeff0"/><stop offset=".678" stop-color="#d7dadd"/><stop offset="1" stop-color="#c0c6ca"/></linearGradient><polygon fill="url(#4W0fM2leLzbp0HPymelfwc)" points="24.78,32.98 22.85,35.02 14.63,35.02 16.58,32.98"/><linearGradient id="4W0fM2leLzbp0HPymelfwd" x1="24.057" x2="30.486" y1="5.357" y2="12.242" gradientUnits="userSpaceOnUse"><stop offset="0" stop-color="#f7f7f7"/><stop offset=".26" stop-color="#eeeff0"/><stop offset=".678" stop-color="#d7dadd"/><stop offset="1" stop-color="#c0c6ca"/></linearGradient><path fill="url(#4W0fM2leLzbp0HPymelfwd)" d="M28.24,5.21l-1.11,5.92v0.01c-0.18-0.04-0.37-0.08-0.55-0.1C26.39,11.01,26.2,11,26,11	c-0.13,0-0.26,0-0.38,0.02c-0.06,0-0.13,0.01-0.19,0.02c-0.01-0.01-0.03,0-0.04,0c-0.1,0.01-0.2,0.03-0.3,0.05v-0.01L26.23,5	C26.91,5.01,27.59,5.07,28.24,5.21z"/><linearGradient id="4W0fM2leLzbp0HPymelfwe" x1="26.384" x2="33.569" y1="20.9" y2="28.596" gradientUnits="userSpaceOnUse"><stop offset="0" stop-color="#f7f7f7"/><stop offset=".26" stop-color="#eeeff0"/><stop offset=".678" stop-color="#d7dadd"/><stop offset="1" stop-color="#c0c6ca"/></linearGradient><path fill="url(#4W0fM2leLzbp0HPymelfwe)" d="M34.28,22.95c-0.16,0.19-0.33,0.37-0.51,0.55L32.35,25h-8.12l1.96-2.05H34.28z"/><linearGradient id="4W0fM2leLzbp0HPymelfwf" x1="21.579" x2="28.808" y1="25.904" y2="33.646" gradientUnits="userSpaceOnUse"><stop offset="0" stop-color="#f7f7f7"/><stop offset=".26" stop-color="#eeeff0"/><stop offset=".678" stop-color="#d7dadd"/><stop offset="1" stop-color="#c0c6ca"/></linearGradient><polygon fill="url(#4W0fM2leLzbp0HPymelfwf)" points="29.53,27.97 27.58,30.03 19.41,30.03 21.38,27.97"/><linearGradient id="4W0fM2leLzbp0HPymelfwg" x1="12.328" x2="19.642" y1="35.576" y2="43.409" gradientUnits="userSpaceOnUse"><stop offset="0" stop-color="#f7f7f7"/><stop offset=".26" stop-color="#eeeff0"/><stop offset=".678" stop-color="#d7dadd"/><stop offset="1" stop-color="#c0c6ca"/></linearGradient><path fill="url(#4W0fM2leLzbp0HPymelfwg)" d="M20.05,37.98l-1.94,2.04H11c0-0.01,0-0.01,0-0.02c0-0.73,0.27-1.4,0.72-1.92l-0.02-0.01	l0.09-0.09H20.05z"/><linearGradient id="4W0fM2leLzbp0HPymelfwh" x1="18.993" x2="26.529" y1="5.999" y2="14.069" gradientUnits="userSpaceOnUse"><stop offset="0" stop-color="#f7f7f7"/><stop offset=".26" stop-color="#eeeff0"/><stop offset=".678" stop-color="#d7dadd"/><stop offset="1" stop-color="#c0c6ca"/></linearGradient><path fill="url(#4W0fM2leLzbp0HPymelfwh)" d="M23.92,11.53v0.01c-0.26,0.16-0.51,0.33-0.75,0.55c-0.04,0.04-0.08,0.07-0.12,0.1	c-0.03,0.03-0.07,0.07-0.11,0.1c-0.03,0.03-0.06,0.06-0.1,0.1l-0.01-0.01c-0.01,0-0.01,0.01-0.02,0.01	c-0.06,0.05-0.13,0.09-0.2,0.13c-0.07,0.04-0.14,0.08-0.21,0.12c-0.07,0.04-0.13,0.07-0.2,0.1l-2.03-5.88	c0.57-0.39,1.17-0.72,1.79-0.99L23.92,11.53z"/><linearGradient id="4W0fM2leLzbp0HPymelfwi" x1="31.387" x2="37.217" y1="11.691" y2="17.936" gradientUnits="userSpaceOnUse"><stop offset="0" stop-color="#f7f7f7"/><stop offset=".26" stop-color="#eeeff0"/><stop offset=".678" stop-color="#d7dadd"/><stop offset="1" stop-color="#c0c6ca"/></linearGradient><path fill="url(#4W0fM2leLzbp0HPymelfwi)" d="M36.9,14.39L31,15.98c0-0.71-0.16-1.39-0.43-2.01l5.86-1.58	C36.65,13.04,36.81,13.71,36.9,14.39z"/><linearGradient id="4W0fM2leLzbp0HPymelfwj" x1="30.427" x2="37.131" y1="16.321" y2="23.501" gradientUnits="userSpaceOnUse"><stop offset="0" stop-color="#f7f7f7"/><stop offset=".26" stop-color="#eeeff0"/><stop offset=".678" stop-color="#d7dadd"/><stop offset="1" stop-color="#c0c6ca"/></linearGradient><path fill="url(#4W0fM2leLzbp0HPymelfwj)" d="M36.79,17.95c-0.15,0.7-0.36,1.39-0.64,2.05h-7.13l0.15-0.16c0.57-0.57,1.06-1.19,1.38-1.89	H36.79z"/></svg>