<svg xmlns="http://www.w3.org/2000/svg" viewBox="0 0 48 48"><linearGradient id="vbx95Vx7g3ERLQOdQjBYba" x1="6.414" x2="41.774" y1="36.338" y2="10.512" gradientTransform="matrix(1 0 0 -1 0 50)" gradientUnits="userSpaceOnUse"><stop offset="0" stop-color="#28afea"/><stop offset="1" stop-color="#047ed6"/></linearGradient><path fill="url(#vbx95Vx7g3ERLQOdQjBYba)" d="M6,40V12h36v28c0,1.1-0.9,2-2,2H8C6.9,42,6,41.1,6,40z"/><linearGradient id="vbx95Vx7g3ERLQOdQjBYbb" x1="6.42" x2="41.198" y1="43.392" y2="36.32" gradientTransform="matrix(1 0 0 -1 0 50)" gradientUnits="userSpaceOnUse"><stop offset="0" stop-color="#0077d2"/><stop offset="1" stop-color="#0b59a2"/></linearGradient><path fill="url(#vbx95Vx7g3ERLQOdQjBYbb)" d="M42,8v6H6V8c0-1.1,0.9-2,2-2h32C41.1,6,42,6.9,42,8z"/><path d="M35.5,12.5L35.5,12.5c-1.657,0-3-1.343-3-3V6h6v3.5	C38.5,11.157,37.157,12.5,35.5,12.5z" opacity=".05"/><path d="M35.5,11.75L35.5,11.75c-1.243,0-2.25-1.007-2.25-2.25V6h4.5v3.5	C37.75,10.743,36.743,11.75,35.5,11.75z" opacity=".07"/><path d="M12.5,12.5L12.5,12.5c-1.657,0-3-1.343-3-3V6h6v3.5	C15.5,11.157,14.157,12.5,12.5,12.5z" opacity=".05"/><path d="M12.5,11.75L12.5,11.75c-1.243,0-2.25-1.007-2.25-2.25V6h4.5v3.5	C14.75,10.743,13.743,11.75,12.5,11.75z" opacity=".07"/><path fill="#3ccbf4" d="M12.5,11L12.5,11c-0.828,0-1.5-0.672-1.5-1.5v-4C11,4.672,11.672,4,12.5,4l0,0	C13.328,4,14,4.672,14,5.5v4C14,10.328,13.328,11,12.5,11z"/><path fill="#3ccbf4" d="M35.5,11L35.5,11c-0.828,0-1.5-0.672-1.5-1.5v-4C34,4.672,34.672,4,35.5,4l0,0	C36.328,4,37,4.672,37,5.5v4C37,10.328,36.328,11,35.5,11z"/><path fill="#fff" d="M19.813,31.901h-2.406l-0.697-2.181h-3.486l-0.69,2.181H10.14l3.568-9.803h2.618L19.813,31.901z M16.204,28.025l-1.053-3.295c-0.077-0.246-0.132-0.54-0.164-0.882h-0.055c-0.022,0.287-0.08,0.572-0.171,0.854l-1.066,3.322 H16.204z"/><path fill="#fff" d="M23.245,28.524v3.377h-2.208v-9.803h3.459c2.47,0,3.705,1.041,3.705,3.124 c0,0.984-0.354,1.78-1.062,2.39c-0.709,0.607-1.656,0.912-2.841,0.912H23.245z M23.245,23.794v3.056h0.868 c1.176,0,1.764-0.515,1.764-1.545c0-1.007-0.588-1.511-1.764-1.511H23.245z"/><path fill="#fff" d="M37.86,31.901h-2.536l-1.524-2.522c-0.114-0.191-0.224-0.362-0.328-0.513s-0.211-0.279-0.317-0.387 c-0.107-0.106-0.219-0.188-0.336-0.246c-0.115-0.057-0.242-0.085-0.379-0.085h-0.595v3.753h-2.208v-9.803h3.5 c2.379,0,3.568,0.889,3.568,2.666c0,0.342-0.053,0.657-0.157,0.947c-0.104,0.289-0.253,0.55-0.444,0.782s-0.423,0.433-0.693,0.602 c-0.271,0.169-0.573,0.301-0.906,0.396v0.027c0.146,0.046,0.287,0.12,0.424,0.222c0.137,0.104,0.269,0.223,0.396,0.359 s0.25,0.283,0.365,0.441c0.117,0.156,0.223,0.311,0.318,0.461L37.86,31.901z M31.844,23.753v2.728h0.957 c0.474,0,0.854-0.137,1.142-0.41c0.292-0.278,0.438-0.622,0.438-1.032c0-0.856-0.513-1.285-1.538-1.285H31.844z"/></svg>