<svg xmlns="http://www.w3.org/2000/svg" viewBox="0 0 48 48"><path fill="#0078d4" d="M44,11.268c-0.957-0.552-2.18-0.225-2.732,0.732c-0.03,0.051-0.047,0.106-0.071,0.159l-0.009-0.004	l-5.98,11.587l0.004,0.003C35.08,23.967,35,24.223,35,24.5c0,0.828,0.672,1.5,1.5,1.5c0.518,0,0.974-0.262,1.244-0.662l6.901-11.187	l-0.014-0.01c0.033-0.048,0.072-0.09,0.101-0.141C45.284,13.044,44.957,11.821,44,11.268z"/><linearGradient id="aLWCcppT2jynfEAVqZ8QSa" x1="23" x2="23" y1="41" y2="45.986" gradientUnits="userSpaceOnUse"><stop offset=".023" stop-color="#692a15"/><stop offset=".344" stop-color="#802d10"/><stop offset="1" stop-color="#8b3817"/></linearGradient><path fill="url(#aLWCcppT2jynfEAVqZ8QSa)" d="M32,39H14v4c0,1.105,0.895,2,2,2h14c1.105,0,2-0.895,2-2V39z"/><linearGradient id="aLWCcppT2jynfEAVqZ8QSb" x1="23" x2="23" y1="22.427" y2="45.684" gradientUnits="userSpaceOnUse"><stop offset="0" stop-color="#a34f27"/><stop offset=".587" stop-color="#8b3817"/><stop offset="1" stop-color="#802d10"/></linearGradient><path fill="url(#aLWCcppT2jynfEAVqZ8QSb)" d="M26,42h-6c-9.389,0-17-7.611-17-17v0c0-0.552,0.448-1,1-1h38c0.552,0,1,0.448,1,1v0	C43,34.389,35.389,42,26,42z"/><path fill="#cf1928" d="M22,22c-0.553,0-1-0.447-1-1V10c0-0.553,0.447-1,1-1s1,0.447,1,1v11C23,21.553,22.553,22,22,22z"/><path fill="#cf1928" d="M16,22c-0.553,0-1-0.447-1-1v-6c0-0.553,0.447-1,1-1s1,0.447,1,1v6C17,21.553,16.553,22,16,22z"/><path fill="#cf1928" d="M28,22c-0.553,0-1-0.447-1-1v-6c0-0.553,0.447-1,1-1s1,0.447,1,1v6C29,21.553,28.553,22,28,22z"/></svg>