<svg xmlns="http://www.w3.org/2000/svg" viewBox="0 0 48 48"><linearGradient id="Ka0_I8btYrCGfeGvU_44Va" x1="9.858" x2="38.142" y1="304.142" y2="275.858" gradientTransform="matrix(1 0 0 -1 0 314)" gradientUnits="userSpaceOnUse"><stop offset="0" stop-color="#36b0ed"/><stop offset="1" stop-color="#1771d2"/></linearGradient><path fill="url(#Ka0_I8btYrCGfeGvU_44Va)" d="M44,24c0,11.045-8.955,20-20,20S4,35.045,4,24S12.955,4,24,4S44,12.955,44,24z"/><path fill="#fff" d="M35.432,23.169l-9.879-6.586C24.889,16.141,24,16.617,24,17.414v4.134l-7.447-4.965	C15.889,16.141,15,16.617,15,17.414v13.457c0,0.676,0.752,1.078,1.314,0.705L24,26.453v4.419c0,0.676,0.752,1.078,1.314,0.705	l10.118-6.745C36.025,24.436,36.025,23.565,35.432,23.169z"/><path fill="#151515" d="M25.001,16.414c0.186,0,0.376,0.053,0.551,0.169l9.879,6.586c0.593,0.395,0.593,1.267,0,1.662 l-10.118,6.745c-0.148,0.098-0.309,0.143-0.466,0.143c-0.44,0-0.848-0.349-0.848-0.847v-4.419l-7.686,5.124 c-0.148,0.098-0.309,0.143-0.466,0.143c-0.44,0-0.848-0.349-0.848-0.847V17.414c0-0.588,0.482-1.001,1.002-1 c0.186,0,0.376,0.053,0.551,0.169L24,21.548v-4.134C24,16.827,24.482,16.414,25.001,16.414 M25.001,15.914 c-0.828,0-1.501,0.673-1.501,1.5v3.2l-6.67-4.446c-0.249-0.166-0.535-0.253-0.828-0.253c-0.382,0-0.762,0.152-1.04,0.418 C14.664,16.615,14.5,17,14.5,17.414v13.457c0,0.743,0.605,1.347,1.348,1.347c0.263,0,0.52-0.078,0.742-0.226l6.909-4.606v3.485 c0,0.743,0.605,1.347,1.348,1.347c0.263,0,0.52-0.078,0.742-0.226l10.118-6.746c0.418-0.279,0.667-0.745,0.667-1.247 c0-0.502-0.249-0.969-0.667-1.247l-9.879-6.586C25.581,16.001,25.295,15.914,25.001,15.914L25.001,15.914z" opacity=".05"/><path fill="#151515" d="M25.001,16.414c0.186,0,0.376,0.053,0.551,0.169l9.879,6.586c0.593,0.395,0.593,1.267,0,1.662 l-10.118,6.745c-0.148,0.098-0.309,0.143-0.466,0.143c-0.44,0-0.848-0.349-0.848-0.847v-4.419l-7.686,5.124 c-0.148,0.098-0.309,0.143-0.466,0.143c-0.44,0-0.848-0.349-0.848-0.847V17.414c0-0.588,0.482-1.001,1.002-1 c0.186,0,0.376,0.053,0.551,0.169L24,21.548v-4.134C24,16.827,24.482,16.414,25.001,16.414 M25.001,15.414 c-1.104,0-2.001,0.897-2.001,2v2.266l-5.892-3.928c-0.331-0.221-0.713-0.337-1.106-0.337c-0.517,0-1.009,0.197-1.385,0.556 C14.219,16.348,14,16.861,14,17.414v13.457c0,1.019,0.829,1.847,1.848,1.847c0.362,0,0.714-0.107,1.019-0.31L23,28.321v2.551 c0,1.019,0.829,1.847,1.848,1.847c0.362,0,0.714-0.107,1.019-0.31l10.119-6.746c0.557-0.372,0.89-0.993,0.89-1.663 c0-0.67-0.333-1.292-0.89-1.663l-9.879-6.586C25.776,15.531,25.394,15.414,25.001,15.414L25.001,15.414z" opacity=".05"/></svg>