<svg xmlns="http://www.w3.org/2000/svg" viewBox="0 0 48 48"><linearGradient id="5hpjI2WuwO0QF_5yRNnJ6a" x1="33.079" x2="33.224" y1="18.059" y2="20.928" gradientTransform="matrix(1 0 0 -1 0 50)" gradientUnits="userSpaceOnUse"><stop offset="0" stop-color="#4b4b4b"/><stop offset=".531" stop-color="#393939"/><stop offset="1" stop-color="#252525"/></linearGradient><path fill="url(#5hpjI2WuwO0QF_5yRNnJ6a)" d="M38,35H27c-0.552,0-1-0.447-1-1s0.448-1,1-1h11v-4.294c0-0.553,0.448-1,1-1s1,0.447,1,1V33	C40,34.103,39.103,35,38,35z"/><linearGradient id="5hpjI2WuwO0QF_5yRNnJ6b" x1="6" x2="29" y1="9" y2="9" gradientTransform="matrix(1 0 0 -1 0 50)" gradientUnits="userSpaceOnUse"><stop offset="0" stop-color="#c8d3de"/><stop offset="1" stop-color="#c8d3de"/></linearGradient><path fill="url(#5hpjI2WuwO0QF_5yRNnJ6b)" d="M29,39v2c0,1.1-0.9,2-2,2H7c-0.552,0-1-0.448-1-1v-3H29z"/><linearGradient id="5hpjI2WuwO0QF_5yRNnJ6c" x1="9.466" x2="24.191" y1="11.098" y2="39.585" gradientTransform="matrix(1 0 0 -1 0 50)" gradientUnits="userSpaceOnUse"><stop offset="0" stop-color="#fcfcfc"/><stop offset=".495" stop-color="#f4f4f4"/><stop offset=".946" stop-color="#e8e8e8"/><stop offset="1" stop-color="#e8e8e8"/></linearGradient><polygon fill="url(#5hpjI2WuwO0QF_5yRNnJ6c)" points="29,20 29,39 6,39 6,7.72 11,3 17.68,9.31"/><path d="M29,20v5.39L11,9.43l-5,4.43V7.79L9.67,4.5C10.05,4.17,10.53,4,11,4	s0.95,0.17,1.33,0.5l5.35,4.81L29,20z" opacity=".05"/><path d="M29,18.91v5.36L11,8.4l-5,4.41V6.77L9.67,3.5C10.05,3.17,10.53,3,11,3	s0.95,0.17,1.33,0.5l5.35,4.78L29,18.91z" opacity=".07"/><linearGradient id="5hpjI2WuwO0QF_5yRNnJ6d" x1="18.915" x2="18.915" y1="26.682" y2="48.697" gradientTransform="matrix(1 0 0 -1 0 50)" gradientUnits="userSpaceOnUse"><stop offset="0" stop-color="#d43a02"/><stop offset="1" stop-color="#b9360c"/></linearGradient><path fill="url(#5hpjI2WuwO0QF_5yRNnJ6d)" d="M31.56,20.94l-1.64,1.74c-0.25,0.27-0.6,0.37-0.92,0.3c-0.17-0.03-0.33-0.11-0.47-0.23	L11,7.43L6,11.8V6.209c0-0.286,0.122-0.558,0.336-0.748L9.67,2.5C10.05,2.17,10.53,2,11,2s0.95,0.17,1.33,0.5l19.16,17.01	C31.92,19.88,31.94,20.53,31.56,20.94z"/><linearGradient id="5hpjI2WuwO0QF_5yRNnJ6e" x1="12.173" x2="20.459" y1="1402.173" y2="1410.459" gradientTransform="translate(0 -1378)" gradientUnits="userSpaceOnUse"><stop offset="0" stop-color="#33bef0"/><stop offset="1" stop-color="#0a85d9"/></linearGradient><path fill="url(#5hpjI2WuwO0QF_5yRNnJ6e)" d="M13.5,24h6c0.828,0,1.5,0.672,1.5,1.5v6c0,0.828-0.672,1.5-1.5,1.5h-6	c-0.828,0-1.5-0.672-1.5-1.5v-6C12,24.672,12.672,24,13.5,24z"/><linearGradient id="5hpjI2WuwO0QF_5yRNnJ6f" x1="39" x2="39" y1="28.083" y2="18.046" gradientTransform="matrix(1 0 0 -1 0 50)" gradientUnits="userSpaceOnUse"><stop offset="0" stop-color="#4b4b4b"/><stop offset=".531" stop-color="#393939"/><stop offset="1" stop-color="#252525"/></linearGradient><circle cx="39" cy="24.5" r="4.5" fill="url(#5hpjI2WuwO0QF_5yRNnJ6f)"/><linearGradient id="5hpjI2WuwO0QF_5yRNnJ6g" x1="39" x2="39" y1="27.605" y2="21.385" gradientTransform="matrix(1 0 0 -1 0 50)" gradientUnits="userSpaceOnUse"><stop offset=".074" stop-color="#21cc72"/><stop offset=".666" stop-color="#0f9750"/><stop offset="1" stop-color="#088242"/></linearGradient><circle cx="39" cy="24.5" r="2.5" fill="url(#5hpjI2WuwO0QF_5yRNnJ6g)"/></svg>