<svg xmlns="http://www.w3.org/2000/svg" viewBox="0 0 48 48"><linearGradient id="zDYo73wfy4RKU33J0H_4Ya" x1="7.883" x2="23.997" y1="-1136.658" y2="-1152.772" gradientTransform="matrix(1 0 0 -1 0 -1103.89)" gradientUnits="userSpaceOnUse"><stop offset="0" stop-color="#33bef0"/><stop offset="1" stop-color="#0a85d9"/></linearGradient><path fill="url(#zDYo73wfy4RKU33J0H_4Ya)" d="M16,32c-7.732,0-14,4.556-14,9.25v1.25C2,43.328,2.672,44,3.5,44h25 c0.828,0,1.5-0.672,1.5-1.5v-1.25C30,36.556,23.732,32,16,32z"/><path fill="#d6a121" d="M20.5,34.4c0,1.707-2.547,3.6-4.5,3.6s-4.5-1.892-4.5-3.6c0-2.374,0-6.332,0-6.332h9 C20.5,28.068,20.5,32.026,20.5,34.4z"/><linearGradient id="zDYo73wfy4RKU33J0H_4Yb" x1="23.917" x2="25.251" y1="-1128.89" y2="-1128.89" gradientTransform="matrix(1 0 0 -1 0 -1103.89)" gradientUnits="userSpaceOnUse"><stop offset="0" stop-color="#c48f0c"/><stop offset=".251" stop-color="#d19b16"/><stop offset=".619" stop-color="#dca51f"/><stop offset="1" stop-color="#e0a922"/></linearGradient><path fill="url(#zDYo73wfy4RKU33J0H_4Yb)" d="M23.916,23h-0.527v4h0.703c0.515,0,0.954-0.312,1.041-0.74l0.344-1.703 C25.642,23.743,24.897,23,23.916,23z"/><linearGradient id="zDYo73wfy4RKU33J0H_4Yc" x1="-678.083" x2="-676.749" y1="-1128.89" y2="-1128.89" gradientTransform="rotate(180 -335 -551.945)" gradientUnits="userSpaceOnUse"><stop offset="0" stop-color="#c48f0c"/><stop offset=".251" stop-color="#d19b16"/><stop offset=".619" stop-color="#dca51f"/><stop offset="1" stop-color="#e0a922"/></linearGradient><path fill="url(#zDYo73wfy4RKU33J0H_4Yc)" d="M8.084,23h0.527v4H7.908c-0.515,0-0.954-0.312-1.041-0.74l-0.344-1.703 C6.358,23.743,7.103,23,8.084,23z"/><radialGradient id="zDYo73wfy4RKU33J0H_4Yd" cx="19.629" cy="-1283.48" r="10.866" gradientTransform="matrix(.8816 0 0 -.8816 -1.305 -1109.45)" gradientUnits="userSpaceOnUse"><stop offset="0" stop-color="#ffcf54"/><stop offset=".261" stop-color="#fdcb4d"/><stop offset=".639" stop-color="#f7c13a"/><stop offset="1" stop-color="#f0b421"/></radialGradient><path fill="url(#zDYo73wfy4RKU33J0H_4Yd)" d="M16,11.133c-3.948,0-8,0.6-8,9.133c0,0.683,0,5.224,0,5.954C8,29.266,12.8,33,16,33 s8-3.733,8-6.78c0-0.73,0-5.271,0-5.954C24,11.733,19.948,11.133,16,11.133z"/><radialGradient id="zDYo73wfy4RKU33J0H_4Ye" cx="10.897" cy="-1271.019" r="26.716" gradientTransform="matrix(.8816 0 0 -.8816 -1.305 -1109.45)" gradientUnits="userSpaceOnUse"><stop offset="0" stop-color="#c26715"/><stop offset=".508" stop-color="#b85515"/><stop offset="1" stop-color="#ad3f16"/></radialGradient><path fill="url(#zDYo73wfy4RKU33J0H_4Ye)" d="M16,10c-3,0-5,2-5,2c-1.593,0.235-4,1-4,5c0,1.488,0.339,3.288,1,7 c0.491-5.891,1.924-9.091,3.5-9.091c1.14,0,2.045,0.9,4.5,0.9c2.072,0,2.587-0.9,4.5-0.9c2.7,0,3.5,8.162,3.5,9.091 c0.541-2.709,1-5.7,1-7C25,13.913,21.588,10,16,10z"/><radialGradient id="zDYo73wfy4RKU33J0H_4Yf" cx="18.701" cy="-1273.136" r="31.147" gradientTransform="matrix(.8431 0 0 -.8816 -1.425 -1109.45)" gradientUnits="userSpaceOnUse"><stop offset="0" stop-color="#c26715"/><stop offset=".508" stop-color="#b85515"/><stop offset="1" stop-color="#ad3f16"/></radialGradient><path fill="url(#zDYo73wfy4RKU33J0H_4Yf)" d="M16.316,10C12,10,11,12,11,12c-0.037,1.014,1.208,1.818,1.208,1.818 s0.666,1.432,4.463,1.432c2.293,0,5.578-1.43,5.578-5.25C22.25,10,21.512,10,16.316,10z"/><linearGradient id="zDYo73wfy4RKU33J0H_4Yg" x1="31.096" x2="42.161" y1="-1105.761" y2="-1123.764" gradientTransform="matrix(1 0 0 -1 0 -1103.89)" gradientUnits="userSpaceOnUse"><stop offset="0" stop-color="#21ad64"/><stop offset="1" stop-color="#088242"/></linearGradient><path fill="url(#zDYo73wfy4RKU33J0H_4Yg)" d="M45,3H29c-1.105,0-2,0.895-2,2v11c0,1.105,0.895,2,2,2h1v5.257 c0,0.502,0.644,0.65,0.924,0.265L35,18h10c1.105,0,2-0.895,2-2V5C47,3.895,46.105,3,45,3z"/></svg>