<svg xmlns="http://www.w3.org/2000/svg" viewBox="0 0 48 48"><linearGradient id="47sbhVaa0DjZQZGvyicGva" x1="10.233" x2="10.233" y1="35.348" y2="23.795" gradientUnits="userSpaceOnUse"><stop offset=".365" stop-color="#199ae0"/><stop offset=".699" stop-color="#1898de"/><stop offset=".819" stop-color="#1691d8"/><stop offset=".905" stop-color="#1186cc"/><stop offset=".974" stop-color="#0a75bc"/><stop offset="1" stop-color="#076cb3"/></linearGradient><path fill="url(#47sbhVaa0DjZQZGvyicGva)" d="M18,22.732c-4.698-0.622-16.028-2.077-15.516-1.565l13.474,13.474	C16.711,35.395,18,34.862,18,33.796V22.732z"/><linearGradient id="47sbhVaa0DjZQZGvyicGvb" x1="17.557" x2="36.867" y1="36.015" y2="16.705" gradientUnits="userSpaceOnUse"><stop offset="0" stop-color="#32bdef"/><stop offset="1" stop-color="#1ea2e4"/></linearGradient><path fill="url(#47sbhVaa0DjZQZGvyicGvb)" d="M28,15H18V6.204c0-1.066-1.289-1.6-2.042-0.846L2.485,18.831 c-0.646,0.646-0.646,1.693,0,2.338l3.347,3.347C6.155,24.839,6.577,25,7,25h21c3.314,0,6,2.686,6,6v10c0,1.105,0.895,2,2,2h6 c1.105,0,2-0.895,2-2V31C44,22.163,36.837,15,28,15z"/></svg>