<svg xmlns="http://www.w3.org/2000/svg" viewBox="0 0 48 48"><linearGradient id="ze3KYeNK1b4tivx9ptLN_a" x1="6.414" x2="41.774" y1="13.662" y2="39.488" gradientUnits="userSpaceOnUse"><stop offset="0" stop-color="#28afea"/><stop offset="1" stop-color="#047ed6"/></linearGradient><path fill="url(#ze3KYeNK1b4tivx9ptLN_a)" d="M6,40V12h36v28c0,1.1-0.9,2-2,2H8C6.9,42,6,41.1,6,40z"/><path d="M26.148,32.739c-0.559-0.51-1.277-0.769-2.135-0.769c-0.844,0-1.562,0.254-2.134,0.755	c-0.592,0.518-0.892,1.189-0.892,1.996c0,0.774,0.294,1.439,0.873,1.979c0.568,0.531,1.293,0.8,2.152,0.8	c0.868,0,1.59-0.262,2.146-0.779c0.565-0.526,0.853-1.199,0.853-2C27.012,33.928,26.722,33.261,26.148,32.739z" opacity=".07"/><path d="M26.485,32.37c-0.449-0.411-0.982-0.682-1.593-0.812c1.017-0.059,1.833-0.874,1.88-1.904l0.443-9.562	c0.025-0.543-0.176-1.081-0.552-1.474C26.289,18.226,25.762,18,25.218,18h-2.465c-0.543,0-1.07,0.225-1.445,0.618	c-0.376,0.392-0.577,0.928-0.553,1.47l0.42,9.562c0.046,1.056,0.898,1.887,1.949,1.912c-0.595,0.128-1.122,0.392-1.574,0.788	c-0.694,0.609-1.062,1.429-1.062,2.372c0,0.905,0.357,1.716,1.031,2.344C22.185,37.686,23.023,38,24.014,38	c0.999,0,1.836-0.307,2.485-0.913c0.662-0.616,1.013-1.434,1.013-2.366C27.512,33.795,27.157,32.982,26.485,32.37z" opacity=".05"/><linearGradient id="ze3KYeNK1b4tivx9ptLN_b" x1="6.42" x2="41.198" y1="6.608" y2="13.68" gradientUnits="userSpaceOnUse"><stop offset="0" stop-color="#0077d2"/><stop offset="1" stop-color="#0b59a2"/></linearGradient><path fill="url(#ze3KYeNK1b4tivx9ptLN_b)" d="M42,8v6H6V8c0-1.1,0.9-2,2-2h32C41.1,6,42,6.9,42,8z"/><path d="M35.5,12.5L35.5,12.5c-1.657,0-3-1.343-3-3V6h6v3.5C38.5,11.157,37.157,12.5,35.5,12.5z" opacity=".05"/><path d="M35.5,11.75L35.5,11.75c-1.243,0-2.25-1.007-2.25-2.25V6h4.5v3.5	C37.75,10.743,36.743,11.75,35.5,11.75z" opacity=".07"/><path d="M12.5,12.5L12.5,12.5c-1.657,0-3-1.343-3-3V6h6v3.5C15.5,11.157,14.157,12.5,12.5,12.5z" opacity=".05"/><path d="M12.5,11.75L12.5,11.75c-1.243,0-2.25-1.007-2.25-2.25V6h4.5v3.5	C14.75,10.743,13.743,11.75,12.5,11.75z" opacity=".07"/><path fill="#3ccbf4" d="M12.5,11L12.5,11c-0.828,0-1.5-0.672-1.5-1.5v-4C11,4.672,11.672,4,12.5,4h0	C13.328,4,14,4.672,14,5.5v4C14,10.328,13.328,11,12.5,11z"/><path fill="#3ccbf4" d="M35.5,11L35.5,11c-0.828,0-1.5-0.672-1.5-1.5v-4C34,4.672,34.672,4,35.5,4l0,0	C36.328,4,37,4.672,37,5.5v4C37,10.328,36.328,11,35.5,11z"/><path d="M23.173,31.062h1.602c0.804,0,1.462-0.628,1.498-1.431l0.443-9.562	c0.02-0.413-0.127-0.806-0.413-1.105S25.632,18.5,25.218,18.5h-2.465c-0.414,0-0.799,0.165-1.084,0.463	c-0.286,0.298-0.433,0.69-0.415,1.103l0.42,9.562C21.71,30.432,22.368,31.062,23.173,31.062z" opacity=".07"/><path fill="#fff" d="M24.014,37c-0.732,0-1.336-0.222-1.812-0.666c-0.476-0.444-0.714-0.981-0.714-1.613 c0-0.659,0.24-1.199,0.721-1.62c0.48-0.421,1.082-0.631,1.805-0.631c0.732,0,1.332,0.213,1.798,0.638 c0.467,0.426,0.7,0.963,0.7,1.613c0,0.659-0.231,1.203-0.693,1.633S24.755,37,24.014,37z M26.216,20.046l-0.443,9.562 c-0.025,0.534-0.465,0.954-0.999,0.954h-1.602c-0.535,0-0.976-0.421-0.999-0.956l-0.42-9.562C21.728,19.475,22.183,19,22.753,19 h2.465C25.788,19,26.243,19.476,26.216,20.046z"/></svg>