<svg xmlns="http://www.w3.org/2000/svg" viewBox="0 0 48 48"><linearGradient id="Y9F4Cke5MOeXH8aW2ELbaa" x1="24" x2="24" y1="5" y2="43.468" gradientUnits="userSpaceOnUse"><stop offset="0" stop-color="#a8e2f7"/><stop offset="1" stop-color="#47c1ff"/></linearGradient><path fill="url(#Y9F4Cke5MOeXH8aW2ELbaa)" d="M42,16.5c0-4.7-3.8-8.5-8.5-8.5c-1.1,0-2.1,0.2-3.1,0.6c-1.5-2.2-4-3.6-6.9-3.6	c-2.7,0-5.2,1.3-6.7,3.3C16,8.1,15.3,8,14.5,8C9.8,8,6,11.8,6,16.5c0,3.8,2.5,7.1,6,8.1V43h24V24.6C39.5,23.6,42,20.3,42,16.5z"/><linearGradient id="Y9F4Cke5MOeXH8aW2ELbab" x1="24" x2="24" y1="28" y2="39" gradientUnits="userSpaceOnUse"><stop offset=".002" stop-color="#427fdb"/><stop offset=".397" stop-color="#2668cb"/><stop offset=".763" stop-color="#1358bf"/><stop offset="1" stop-color="#0c52bb"/></linearGradient><path fill="url(#Y9F4Cke5MOeXH8aW2ELbab)" d="M18,39L18,39c-0.6,0-1-0.5-1-1v-9c0-0.5,0.4-1,1-1l0,0c0.5,0,1,0.4,1,1v9	C19,38.5,18.6,39,18,39z M25,38v-9c0-0.5-0.4-1-1-1l0,0c-0.5,0-1,0.4-1,1v9c0,0.5,0.4,1,1,1l0,0C24.6,39,25,38.5,25,38z M31,38v-9	c0-0.5-0.4-1-1-1l0,0c-0.5,0-1,0.4-1,1v9c0,0.5,0.4,1,1,1l0,0C30.6,39,31,38.5,31,38z"/><linearGradient id="Y9F4Cke5MOeXH8aW2ELbac" x1="24" x2="24" y1="32.818" y2="43.376" gradientUnits="userSpaceOnUse"><stop offset="0" stop-color="#32bdef"/><stop offset="1" stop-color="#1ea2e4"/></linearGradient><path fill="url(#Y9F4Cke5MOeXH8aW2ELbac)" d="M12,37h24v6H12V37z"/><rect width="24" height="1" x="12" y="36" fill="#231f20" opacity=".05"/><rect width="24" height=".5" x="12" y="36.5" fill="#231f20" opacity=".07"/></svg>