<svg xmlns="http://www.w3.org/2000/svg" viewBox="0 0 48 48"><linearGradient id="q81dqehHWrgyhAQSBh2D_a" x1="12.446" x2="15.554" y1="5.185" y2="22.815" gradientUnits="userSpaceOnUse"><stop offset="0" stop-color="#199ae0"/><stop offset="1" stop-color="#0782d8"/></linearGradient><path fill="url(#q81dqehHWrgyhAQSBh2D_a)" d="M22,20V8c0-1.105-0.895-2-2-2H8C6.895,6,6,6.895,6,8v12c0,1.105,0.895,2,2,2h12 C21.105,22,22,21.105,22,20z"/><linearGradient id="q81dqehHWrgyhAQSBh2D_b" x1="32.446" x2="35.554" y1="25.185" y2="42.815" gradientUnits="userSpaceOnUse"><stop offset="0" stop-color="#21ad64"/><stop offset="1" stop-color="#088242"/></linearGradient><path fill="url(#q81dqehHWrgyhAQSBh2D_b)" d="M42,28v12c0,1.1-0.9,2-2,2H28c-1.1,0-2-0.9-2-2V28c0-1.1,0.9-2,2-2h12C41.1,26,42,26.9,42,28 z"/><linearGradient id="q81dqehHWrgyhAQSBh2D_c" x1="12.412" x2="15.684" y1="24.992" y2="43.548" gradientUnits="userSpaceOnUse"><stop offset="0" stop-color="#a235d4"/><stop offset=".441" stop-color="#a033d1"/><stop offset=".702" stop-color="#982cc9"/><stop offset=".915" stop-color="#8b21bb"/><stop offset="1" stop-color="#831bb3"/></linearGradient><path fill="url(#q81dqehHWrgyhAQSBh2D_c)" d="M20,26H8c-1.105,0-2,0.895-2,2v12c0,1.105,0.895,2,2,2h12c1.105,0,2-0.895,2-2V28 C22,26.895,21.105,26,20,26z"/><linearGradient id="q81dqehHWrgyhAQSBh2D_d" x1="32.637" x2="36.902" y1="6.272" y2="30.456" gradientUnits="userSpaceOnUse"><stop offset=".002" stop-color="#f44f78"/><stop offset=".397" stop-color="#e4305d"/><stop offset=".763" stop-color="#d81b4a"/><stop offset="1" stop-color="#d41343"/></linearGradient><path fill="url(#q81dqehHWrgyhAQSBh2D_d)" d="M40,6H28c-1.105,0-2,0.895-2,2v12c0,1.105,0.895,2,2,2h12c1.105,0,2-0.895,2-2V8 C42,6.895,41.105,6,40,6L40,6z"/><linearGradient id="q81dqehHWrgyhAQSBh2D_e" x1="32.72" x2="34.294" y1="9.741" y2="18.669" gradientUnits="userSpaceOnUse"><stop offset="0" stop-color="#fec60f"/><stop offset="1" stop-color="#feb705"/></linearGradient><path fill="url(#q81dqehHWrgyhAQSBh2D_e)" d="M38.852,16.476l-4-6.5c-0.363-0.592-1.34-0.592-1.703,0l-4,6.5 c-0.19,0.309-0.198,0.695-0.021,1.012S29.638,18,30,18h8c0.362,0,0.696-0.196,0.873-0.512S39.042,16.785,38.852,16.476z"/><linearGradient id="q81dqehHWrgyhAQSBh2D_f" x1="13.142" x2="14.858" y1="29.136" y2="38.864" gradientUnits="userSpaceOnUse"><stop offset="0" stop-color="#fec60f"/><stop offset="1" stop-color="#feb705"/></linearGradient><path fill="url(#q81dqehHWrgyhAQSBh2D_f)" d="M18.707,33.293l-4-4c-0.391-0.391-1.023-0.391-1.414,0l-4,4 c-0.391,0.391-0.391,1.023,0,1.414l4,4C13.488,38.902,13.744,39,14,39s0.512-0.098,0.707-0.293l4-4 C19.098,34.316,19.098,33.684,18.707,33.293z"/><linearGradient id="q81dqehHWrgyhAQSBh2D_g" x1="33.311" x2="35.097" y1="29.147" y2="39.275" gradientUnits="userSpaceOnUse"><stop offset="0" stop-color="#ffda1c"/><stop offset="1" stop-color="#feb705"/></linearGradient><path fill="url(#q81dqehHWrgyhAQSBh2D_g)" d="M39.105,32.745c-0.115-0.354-0.418-0.614-0.785-0.675l-2.338-0.391l-1.092-2.134 c-0.344-0.668-1.438-0.668-1.781,0l-1.092,2.134l-2.338,0.391c-0.367,0.062-0.67,0.322-0.785,0.675 c-0.116,0.354-0.025,0.743,0.234,1.009l1.671,1.714l-0.357,2.384c-0.055,0.37,0.101,0.74,0.404,0.959 c0.304,0.218,0.704,0.25,1.037,0.081L34,37.819l2.116,1.073C36.259,38.964,36.414,39,36.568,39c0.206,0,0.411-0.064,0.585-0.189 c0.304-0.219,0.459-0.589,0.404-0.959L37.2,35.468l1.671-1.714C39.131,33.487,39.222,33.099,39.105,32.745z"/><linearGradient id="q81dqehHWrgyhAQSBh2D_h" x1="13.142" x2="14.858" y1="9.136" y2="18.864" gradientUnits="userSpaceOnUse"><stop offset="0" stop-color="#fec60f"/><stop offset="1" stop-color="#feb705"/></linearGradient><path fill="url(#q81dqehHWrgyhAQSBh2D_h)" d="M17.964,11.134l-3.464-2c-0.309-0.179-0.691-0.179-1,0l-3.464,2 c-0.31,0.179-0.5,0.509-0.5,0.866v4c0,0.357,0.19,0.688,0.5,0.866l3.464,2C13.654,18.955,13.827,19,14,19s0.346-0.044,0.5-0.134 l3.464-2c0.31-0.179,0.5-0.509,0.5-0.866v-4C18.464,11.643,18.273,11.313,17.964,11.134z"/></svg>