<svg xmlns="http://www.w3.org/2000/svg" viewBox="0 0 48 48"><path fill="#b31523" d="M13.579,6.017H8.421c-0.336,0-0.536,0.445-0.35,0.777L11,11.017l2.929-4.223	C14.115,6.462,13.915,6.017,13.579,6.017z"/><path fill="#b31523" d="M43,39.095v-5.157c0-0.336-0.445-0.536-0.777-0.35L38,36.517l4.223,2.929	C42.555,39.632,43,39.431,43,39.095z"/><linearGradient id="4d8_K3G_EtQfPOaeqNabXa" x1="21.999" x2="21.999" y1="3.605" y2="51.574" gradientUnits="userSpaceOnUse"><stop offset="0" stop-color="#f44f5a"/><stop offset=".443" stop-color="#ee3d4a"/><stop offset="1" stop-color="#e52030"/></linearGradient><path fill="url(#4d8_K3G_EtQfPOaeqNabXa)" d="M32.5,30.017c-2.306,0.014-4.515-0.208-6.458-0.755c-1.947-0.545-3.593-1.401-4.904-2.556	c-1.313-1.154-2.335-2.635-3.04-4.461c-0.694-1.828-1.051-3.967-1.098-6.228c0-3.314-2.686-6-6-6s-6,2.686-6,6	c-0.032,3.353,0.372,6.865,1.559,10.343c1.184,3.465,3.256,6.865,6.083,9.516c2.812,2.671,6.256,4.51,9.679,5.582	c3.44,1.084,6.869,1.486,10.178,1.56c3.59,0,6.5-2.91,6.5-6.5S36.09,30.017,32.5,30.017z"/></svg>