<svg xmlns="http://www.w3.org/2000/svg" viewBox="0 0 48 48"><linearGradient id="57o5N5SumdGaEgm_f1mkOa" x1="7" x2="41" y1="-170" y2="-170" gradientTransform="matrix(1 0 0 -1 0 -154)" gradientUnits="userSpaceOnUse"><stop offset="0" stop-color="#912fbd"/><stop offset="1" stop-color="#9332bf"/></linearGradient><path fill="url(#57o5N5SumdGaEgm_f1mkOa)" d="M41,23c0,1.657-1.343,3-3,3H10c-1.657,0-3-1.343-3-3V9c0-1.657,1.343-3,3-3h28	c1.657,0,3,1.343,3,3V23z"/><path fill="#f3e5f5" d="M12,27V15.235c0-0.41,0.176-0.795,0.485-1.062C12.856,13.848,15.901,11,23.95,11	s11.194,2.848,11.566,3.173C35.824,14.44,36,14.827,36,15.235V23.8L12,27z"/><linearGradient id="57o5N5SumdGaEgm_f1mkOb" x1="24" x2="24" y1="-195.969" y2="-186.834" gradientTransform="matrix(1 0 0 -1 0 -154)" gradientUnits="userSpaceOnUse"><stop offset="0" stop-color="#7819a2"/><stop offset="1" stop-color="#771aa9"/></linearGradient><path fill="url(#57o5N5SumdGaEgm_f1mkOb)" d="M43,42h-4c-0.552,0-1-0.448-1-1v-3H10v3c0,0.552-0.448,1-1,1H5c-0.552,0-1-0.448-1-1v-8h40v8	C44,41.552,43.552,42,43,42z"/><linearGradient id="57o5N5SumdGaEgm_f1mkOc" x1="4" x2="44" y1="-180.5" y2="-180.5" gradientTransform="matrix(1 0 0 -1 0 -154)" gradientUnits="userSpaceOnUse"><stop offset="0" stop-color="#c965eb"/><stop offset="1" stop-color="#c767e5"/></linearGradient><path fill="url(#57o5N5SumdGaEgm_f1mkOc)" d="M44,33H4v-0.873C4,22.534,6.956,20,23.569,20C39.417,20,44,22.043,44,32.127V33z"/></svg>