<svg xmlns="http://www.w3.org/2000/svg" data-name="Слой 1" viewBox="0 0 48 48"><defs><radialGradient id="SiFdEedqP~K1uIDISBsqTb" cx="40.283" cy="34.176" r="20.181" data-name="Безымянный градиент 276" gradientUnits="userSpaceOnUse"><stop offset="0" stop-color="#fed100"/><stop offset="1" stop-color="#e38101"/></radialGradient><linearGradient id="SiFdEedqP~K1uIDISBsqTa" x1="21.076" x2="33.215" y1="2.517" y2="35.869" data-name="Новый образец градиентной зал 2" gradientUnits="userSpaceOnUse"><stop offset="0" stop-color="#2aa4f4"/><stop offset="1" stop-color="#007ad9"/></linearGradient></defs><path fill="#21a366" d="M7.001,46.0023a1,1,0,0,1-.51563-1.85742A9.97458,9.97458,0,0,0,11,36.0023c0-5.72265-2.23535-9.77051-4.39844-13.68457C4.75,18.96422,3,15.79625,3,12.0023c0-4.12109,2.46777-7,6-7,3.5166,0,5.3916,1.91406,7.76563,4.33789.2998.30664.6123.626.9414.95508A.99989.99989,0,0,1,16.293,11.70933c-.334-.334-.65137-.6582-.957-.96972C13.05371,8.40953,11.67578,7.0023,9,7.0023c-2.39258,0-4,2.00977-4,5,0,3.27832,1.55371,6.0918,3.35254,9.34863C10.53125,25.29429,13,29.764,13,36.0023a12.0072,12.0072,0,0,1-5.48535,9.85742A.99631.99631,0,0,1,7.001,46.0023Z"/><path fill="url(#SiFdEedqP~K1uIDISBsqTa)" d="M42,20.0825l-5.32324-5.32318h0l-4.4607-4.46081A11.257,11.257,0,0,0,16.29614,26.21824l3.57373,3.57367.88721.88721,5.32324,5.32318s2.58863-6.78247-.67993-9.96643l-.00024.00012.00024-.00012h0C27.1748,27.81022,34.04,28.0424,34.04,28.0424S33.808,21.177,32.03357,19.40263h0l.00037-.00036-.00037.00036C35.21753,22.67125,42,20.0825,42,20.0825Z"/><path fill="url(#SiFdEedqP~K1uIDISBsqTb)" d="M31,33.0023a1,1,0,1,1,1-1A1,1,0,0,1,31,33.0023Zm6-2a1,1,0,1,0-1,1A1,1,0,0,0,37,31.0023Zm-1,4a1,1,0,1,0-1,1A1,1,0,0,0,36,35.0023Zm-1,5a1,1,0,1,0-1,1A1,1,0,0,0,35,40.0023Zm-4-2a1,1,0,1,0-1,1A1,1,0,0,0,31,38.0023Zm7-14a1,1,0,1,0-1,1A1,1,0,0,0,38,24.0023Zm2,4a1,1,0,1,0-1,1A1,1,0,0,0,40,28.0023Zm1,5a1,1,0,1,0-1,1A1,1,0,0,0,41,33.0023Zm1.75,4a1,1,0,1,0-1,1A1,1,0,0,0,42.75,37.0023Zm-3.75,1a1,1,0,1,0-1,1A1,1,0,0,0,39,38.0023Zm5-12a1,1,0,1,0-1,1A1,1,0,0,0,44,26.0023Zm-2-3a1,1,0,1,0-1,1A1,1,0,0,0,42,23.0023Zm2,7a1,1,0,1,0-1,1A1,1,0,0,0,44,30.0023Z"/></svg>