<svg xmlns="http://www.w3.org/2000/svg" viewBox="0 0 48 48"><linearGradient id="Sa-8LRw-A76Xx10hMuMdGa" x1="18.787" x2="29.96" y1="9.67" y2="40.37" gradientUnits="userSpaceOnUse"><stop offset="0" stop-color="#dfe9f2"/><stop offset="1" stop-color="#bfc8d1"/></linearGradient><path fill="url(#Sa-8LRw-A76Xx10hMuMdGa)" d="M44,24c0,1.72-0.22,3.4-0.63,5c-0.27,1.03-0.62,2.04-1.04,3c-0.3,0.69-0.64,1.36-1.02,2H6.69	c-0.38-0.64-0.72-1.31-1.02-2c-0.42-0.96-0.77-1.97-1.04-3C4.22,27.4,4,25.72,4,24c0-2.09,0.32-4.1,0.92-6	c0.32-1.04,0.73-2.04,1.22-3c0.35-0.69,0.73-1.36,1.16-2h33.4c0.43,0.64,0.81,1.31,1.16,2c0.49,0.96,0.9,1.96,1.22,3	C43.68,19.9,44,21.91,44,24z"/><linearGradient id="Sa-8LRw-A76Xx10hMuMdGb" x1="17.272" x2="30.358" y1="5.414" y2="41.367" gradientUnits="userSpaceOnUse"><stop offset="0" stop-color="#f44f5a"/><stop offset=".443" stop-color="#ee3d4a"/><stop offset="1" stop-color="#e52030"/></linearGradient><path fill="url(#Sa-8LRw-A76Xx10hMuMdGb)" d="M44,24c0,1.72-0.22,3.4-0.63,5H4.63	C4.22,27.4,4,25.72,4,24c0-2.09,0.32-4.1,0.92-6h38.16C43.68,19.9,44,21.91,44,24z"/><linearGradient id="Sa-8LRw-A76Xx10hMuMdGc" x1="14.058" x2="42.823" y1="4.345" y2="33.11" gradientUnits="userSpaceOnUse"><stop offset="0" stop-color="#21ad64"/><stop offset="1" stop-color="#088242"/></linearGradient><path fill="url(#Sa-8LRw-A76Xx10hMuMdGc)" d="M41.86,15H6.14c0.35-0.69,0.73-1.36,1.16-2	c3.57-5.43,9.72-9,16.7-9s13.13,3.57,16.7,9C41.13,13.64,41.51,14.31,41.86,15z"/><linearGradient id="Sa-8LRw-A76Xx10hMuMdGd" x1="5.049" x2="34.946" y1="14.022" y2="43.919" gradientUnits="userSpaceOnUse"><stop offset="0" stop-color="#21ad64"/><stop offset="1" stop-color="#088242"/></linearGradient><path fill="url(#Sa-8LRw-A76Xx10hMuMdGd)" d="M42.33,32c-0.3,0.69-0.64,1.36-1.02,2	C37.86,39.98,31.4,44,24,44S10.14,39.98,6.69,34c-0.38-0.64-0.72-1.31-1.02-2H42.33z"/><linearGradient id="Sa-8LRw-A76Xx10hMuMdGe" x1="24" x2="24" y1="17.761" y2="29.293" gradientUnits="userSpaceOnUse"><stop offset="0" stop-color="#ffd000"/><stop offset="1" stop-color="#ffc107"/></linearGradient><path fill="url(#Sa-8LRw-A76Xx10hMuMdGe)" d="M24,19l1.108,3.548h3.588l-2.902,2.014	L26.902,28L24,25.875L21.098,28l1.108-3.437l-2.902-2.014h3.588L24,19z"/></svg>