<svg xmlns="http://www.w3.org/2000/svg" xmlns:xlink="http://www.w3.org/1999/xlink" data-name="Слой 1" viewBox="0 0 48 48"><defs><linearGradient id="rZEzx75UUeKOPC67d9yuJb" x1="24" x2="24" y1="-2.217" y2="48.065" data-name="Новый образец градиентной зал 2" gradientUnits="userSpaceOnUse"><stop offset="0" stop-color="#2aa4f4"/><stop offset="1" stop-color="#007ad9"/></linearGradient><linearGradient id="rZEzx75UUeKOPC67d9yuJc" x1="24" x2="24" y1="-10.533" y2="29.95" data-name="Безымянный градиент 90" gradientUnits="userSpaceOnUse"><stop offset="0" stop-color="#0176d0"/><stop offset="1" stop-color="#16538c"/></linearGradient><linearGradient id="rZEzx75UUeKOPC67d9yuJa" x1="21" x2="21" y1="21.853" y2="54.187" data-name="Безымянный градиент 129" gradientUnits="userSpaceOnUse"><stop offset="0" stop-color="#ffd869"/><stop offset="1" stop-color="#fec52b"/></linearGradient><linearGradient id="rZEzx75UUeKOPC67d9yuJd" x1="28" x2="28" y1="15.788" y2="28.725" xlink:href="#rZEzx75UUeKOPC67d9yuJa"/><linearGradient id="rZEzx75UUeKOPC67d9yuJe" x1="24" x2="24" y1="21.967" y2="30.114" data-name="Безымянный градиент 79" gradientUnits="userSpaceOnUse"><stop offset="0" stop-color="#faf8e5"/><stop offset="1" stop-color="#faeeac"/></linearGradient></defs><path fill="url(#rZEzx75UUeKOPC67d9yuJb)" d="M24,3,6,20V41a1.99947,1.99947,0,0,0,2,2H40a1.99947,1.99947,0,0,0,2-2V20Z"/><path style="isolation:isolate" d="M24,4a1.99525,1.99525,0,0,0-1.326.503L17.315,9.314,6,20v5.39L24,9.428,42,25.39V20L30.685,9.314,25.326,4.503A1.99525,1.99525,0,0,0,24,4Z" opacity=".05"/><path style="isolation:isolate" d="M24,3a2.00219,2.00219,0,0,0-1.326.5L17.315,8.284,6,18.909v5.359L24,8.397,42,24.268V18.909L30.685,8.284,25.326,3.5A2.00219,2.00219,0,0,0,24,3Z" opacity=".07"/><path fill="url(#rZEzx75UUeKOPC67d9yuJc)" d="M44.495,19.507,25.326,2.503a1.99929,1.99929,0,0,0-2.652,0L3.505,19.507a.99869.99869,0,0,0-.064,1.43l1.636,1.745a.9995.9995,0,0,0,1.39.067L24,7.428,41.533,22.75a1.0005,1.0005,0,0,0,1.39-.067l1.636-1.745A.99983.99983,0,0,0,44.495,19.507Z"/><path fill="url(#rZEzx75UUeKOPC67d9yuJa)" d="M24,20l2,9.5L24,39a1.11152,1.11152,0,0,1-.435-.105C21.675,37.99,16,36.55,16,31.23c0-3.2.96-4.115.96-6.555a7.36325,7.36325,0,0,0-.8-2.885c-.095-.195-.055-.42.19-.675l.9-.935a.51449.51449,0,0,1,.655-.06,6.22491,6.22491,0,0,0,5.805-.03A.52105.52105,0,0,1,24,20Z"/><path fill="url(#rZEzx75UUeKOPC67d9yuJd)" d="M32,31.23c0,5.33-5.615,6.77-7.555,7.675A1.06361,1.06361,0,0,1,24,39V20a.52105.52105,0,0,1,.29.09,6.25372,6.25372,0,0,0,5.805.035.50248.50248,0,0,1,.655.06l1,1.03a.50968.50968,0,0,1,.09.575,7.36325,7.36325,0,0,0-.8,2.885C31.04,27.215,32,28.03,32,31.23Z"/><path d="M24.00024,26a.17539.17539,0,0,1,.16236.10529l.973,2.18278,2.37643.25084a.17787.17787,0,0,1,.10035.30876l-1.77524,1.59947.49542,2.338a.17719.17719,0,0,1-.26248.19055l-2.07-1.19387-2.06964,1.19387A.1761.1761,0,0,1,21.84164,33a.178.178,0,0,1-.1737-.2149l.49542-2.338-1.77524-1.59947a.17785.17785,0,0,1,.10034-.30876l2.37644-.25084.973-2.18278A.17539.17539,0,0,1,24.00024,26m0-1a1.179,1.179,0,0,0-1.07562.69791l-.73828,1.65623-1.80286.19029a1.17786,1.17786,0,0,0-.66616,2.04488l1.3482,1.21472-.37585,1.77376A1.177,1.177,0,0,0,22.43155,33.841l1.56857-.90482,1.57035.90569a1.17752,1.17752,0,0,0,1.74026-1.26462L26.935,30.804l1.34677-1.21342a1.17787,1.17787,0,0,0-.66355-2.046l-1.804-.19043-.73819-1.656A1.1789,1.1789,0,0,0,24.00024,25Z" opacity=".05"/><path d="M24.00024,26a.17539.17539,0,0,1,.16236.10529l.973,2.18278,2.37643.25084a.17787.17787,0,0,1,.10035.30876l-1.77524,1.59947.49542,2.338a.17719.17719,0,0,1-.26248.19055l-2.07-1.19387-2.06964,1.19387A.1761.1761,0,0,1,21.84164,33a.178.178,0,0,1-.1737-.2149l.49542-2.338-1.77524-1.59947a.17785.17785,0,0,1,.10034-.30876l2.37644-.25084.973-2.18278A.17539.17539,0,0,1,24.00024,26m0-.5a.67847.67847,0,0,0-.619.4016l-.85563,1.91951-2.08966.22056a.67784.67784,0,0,0-.38324,1.17682l1.56171,1.40709-.43564,2.05586a.677.677,0,0,0,1.0022.72689L24.00009,32.359l1.82016,1.04978a.6775.6775,0,0,0,1.00137-.72759l-.43557-2.05558,1.561-1.40647a.67785.67785,0,0,0-.38193-1.17738l-2.09027-.22064-.85559-1.91939a.67832.67832,0,0,0-.619-.40172Z" opacity=".07"/><path fill="url(#rZEzx75UUeKOPC67d9yuJe)" d="M23.83789,26.10529l-.973,2.18279-2.37645.25082a.17786.17786,0,0,0-.10033.30878l1.77524,1.59946-.49543,2.33795a.17751.17751,0,0,0,.26249.19056l2.06963-1.19387,2.07,1.19386a.17766.17766,0,0,0,.26249-.19055l-.49543-2.33795,1.77524-1.59946a.17788.17788,0,0,0-.10033-.30877l-2.37645-.25083-.973-2.18279A.17783.17783,0,0,0,23.83789,26.10529Z"/><g><path d="M24,20a.52111.52111,0,0,1,.29.09,5.29274,5.29274,0,0,0,2.91177.73191A5.5249,5.5249,0,0,0,30.095,20.125a.54232.54232,0,0,1,.30033-.09351A.483.483,0,0,1,30.75,20.185l1,1.03a.50973.50973,0,0,1,.09.575,7.36258,7.36258,0,0,0-.8,2.885c0,2.54.96,3.355.96,6.555,0,5.33-5.615,6.77-7.555,7.675A1.06354,1.06354,0,0,1,24,39a1.11181,1.11181,0,0,1-.435-.105C21.675,37.99,16,36.55,16,31.23c0-3.2.96-4.115.96-6.555a7.3636,7.3636,0,0,0-.8-2.885c-.095-.195-.055-.42.19-.675l.9-.935a.49128.49128,0,0,1,.356-.14981A.55469.55469,0,0,1,17.905,20.12a5.513,5.513,0,0,0,2.9.7031A5.26956,5.26956,0,0,0,23.71,20.09.52092.52092,0,0,1,24,20m0-1a1.51893,1.51893,0,0,0-.84473.258,4.35677,4.35677,0,0,1-2.35028.56515,4.5874,4.5874,0,0,1-2.34662-.53607,1.56358,1.56358,0,0,0-.85241-.25683,1.48423,1.48423,0,0,0-1.073.45273l-.90344.93858a1.5624,1.5624,0,0,0-.36847,1.80653A6.58867,6.58867,0,0,1,15.96,24.675a9.3112,9.3112,0,0,1-.39944,2.5535A14.3207,14.3207,0,0,0,15,31.23c0,5.25348,4.86707,7.226,7.20605,8.1739.362.14669.67923.27434.9271.393a2.12563,2.12563,0,0,0,.83346.20253h.00428a2.10144,2.10144,0,0,0,.89517-.18745c.24588-.11469.55179-.23694.89825-.37619C28.11292,38.49181,33,36.52747,33,31.23a13.8991,13.8991,0,0,0-.55408-3.937A9.32242,9.32242,0,0,1,32.04,24.675a6.58683,6.58683,0,0,1,.69913-2.44733,1.50271,1.50271,0,0,0-.25888-1.69583L31.46747,19.4884a1.46715,1.46715,0,0,0-1.07211-.45691,1.53779,1.53779,0,0,0-.8552.26157,4.60224,4.60224,0,0,1-2.33835.52882,4.38512,4.38512,0,0,1-2.33551-.54919A1.54012,1.54012,0,0,0,24,19Z" opacity=".05"/><path d="M24,20a.52111.52111,0,0,1,.29.09,5.29274,5.29274,0,0,0,2.91177.73191A5.5249,5.5249,0,0,0,30.095,20.125a.54232.54232,0,0,1,.30033-.09351A.483.483,0,0,1,30.75,20.185l1,1.03a.50973.50973,0,0,1,.09.575,7.36258,7.36258,0,0,0-.8,2.885c0,2.54.96,3.355.96,6.555,0,5.33-5.615,6.77-7.555,7.675A1.06354,1.06354,0,0,1,24,39a1.11181,1.11181,0,0,1-.435-.105C21.675,37.99,16,36.55,16,31.23c0-3.2.96-4.115.96-6.555a7.3636,7.3636,0,0,0-.8-2.885c-.095-.195-.055-.42.19-.675l.9-.935a.49128.49128,0,0,1,.356-.14981A.55469.55469,0,0,1,17.905,20.12a5.513,5.513,0,0,0,2.9.7031A5.26956,5.26956,0,0,0,23.71,20.09.52092.52092,0,0,1,24,20m0-.5a1.02043,1.02043,0,0,0-.56735.174,4.79084,4.79084,0,0,1-2.62766.64913,5.01607,5.01607,0,0,1-2.62329-.61959,1.05824,1.05824,0,0,0-.57574-.17331.98809.98809,0,0,0-.71445.30125l-.9017.9368a1.04165,1.04165,0,0,0-.27924,1.24077A6.93,6.93,0,0,1,16.46,24.675a9.71252,9.71252,0,0,1-.4154,2.67877A13.88946,13.88946,0,0,0,15.5,31.23c0,4.91661,4.48459,6.73409,6.89386,7.71051.373.15117.6998.28314.9552.40544a1.62153,1.62153,0,0,0,.63425.1538h.0021a1.58224,1.58224,0,0,0,.67014-.14124c.25183-.11748.56616-.24345.9223-.38661C27.997,37.99951,32.5,36.18956,32.5,31.23a13.46676,13.46676,0,0,0-.53778-3.81036A9.85886,9.85886,0,0,1,31.54,24.675a6.9278,6.9278,0,0,1,.74957-2.66617,1.00628,1.00628,0,0,0-.17447-1.13542l-1.00641-1.03671a.97558.97558,0,0,0-.71337-.3052,1.03932,1.03932,0,0,0-.57776.17754,5.02888,5.02888,0,0,1-2.61579.61285,4.81246,4.81246,0,0,1-2.62365-.64056A1.03132,1.03132,0,0,0,24,19.5Z" opacity=".07"/></g></svg>