<svg xmlns="http://www.w3.org/2000/svg" viewBox="0 0 48 48"><path fill="#64717c" d="M27.5,7C20.044,7,14,9.239,14,12v27c0,2.761,6.044,5,13.5,5S41,41.761,41,39V12	C41,9.239,34.956,7,27.5,7z M27.5,17c-1.381,0-2.5-1.119-2.5-2.5c0-1.381,1.119-2.5,2.5-2.5s2.5,1.119,2.5,2.5	C30,15.881,28.881,17,27.5,17z"/><path d="M41,13.391c-0.217-0.29-0.449-0.586-0.715-0.893c-1.4-1.617-3.322-3.24-5.551-4.715	C32.641,7.29,30.164,7,27.5,7C20.044,7,14,9.239,14,12v27c0,2.761,6.044,5,13.5,5c0.482,0,0.957-0.01,1.426-0.028	c0.138-0.178,0.263-0.357,0.361-0.536L41,22.118V13.391z M27.5,17c-1.381,0-2.5-1.119-2.5-2.5c0-1.381,1.119-2.5,2.5-2.5	s2.5,1.119,2.5,2.5C30,15.881,28.881,17,27.5,17z" opacity=".05"/><path d="M41,15.242c-0.366-0.671-0.847-1.369-1.472-2.09c-1.774-2.049-4.433-4.116-7.513-5.86	C30.602,7.107,29.086,7,27.5,7C20.044,7,14,9.239,14,12v27c0,2.753,6.007,4.985,13.431,4.999c0.415-0.279,0.749-0.625,0.979-1.044	L41,20.041V15.242z M27.5,17c-1.381,0-2.5-1.119-2.5-2.5c0-1.381,1.119-2.5,2.5-2.5s2.5,1.119,2.5,2.5C30,15.881,28.881,17,27.5,17z" opacity=".07"/><path fill="#90a4ae" d="M31.112,7.927c-6.535-3.59-12.91-4.539-14.239-2.119L3.871,29.472	c-1.33,2.42,2.89,7.293,9.424,10.883c6.535,3.59,12.91,4.539,14.239,2.119L40.536,18.81C41.865,16.39,37.646,11.517,31.112,7.927z M26.296,16.691c-1.21-0.665-1.652-2.185-0.987-3.395c0.665-1.21,2.185-1.652,3.395-0.987c1.21,0.665,1.652,2.185,0.987,3.395	C29.026,16.914,27.506,17.356,26.296,16.691z"/><path fill="#64717c" d="M14.473,34.016c-0.163,0-0.328-0.04-0.48-0.124c-0.484-0.266-0.661-0.874-0.395-1.358l6.742-12.27	c0.266-0.484,0.872-0.662,1.358-0.395c0.484,0.266,0.661,0.874,0.395,1.358l-6.742,12.27C15.168,33.829,14.826,34.016,14.473,34.016	z"/><path fill="#64717c" d="M18.855,36.423c-0.163,0-0.328-0.04-0.48-0.124c-0.484-0.266-0.661-0.874-0.395-1.358l4.815-8.764	c0.266-0.484,0.872-0.662,1.358-0.395c0.484,0.266,0.661,0.874,0.395,1.358l-4.815,8.764C19.551,36.236,19.208,36.423,18.855,36.423	z"/><circle cx="28" cy="13" r="1" fill="#b5bfc9"/><circle cx="28" cy="10" r="1" fill="#b5bfc9"/><circle cx="28" cy="7" r="1" fill="#b5bfc9"/><circle cx="28" cy="4" r="1" fill="#b5bfc9"/><circle cx="28" cy="1" r="1" fill="#b5bfc9"/></svg>