<svg xmlns="http://www.w3.org/2000/svg" viewBox="0 0 48 48"><path fill="#64717c" d="M24,25c-0.552,0-1-0.448-1-1V11c0-0.552,0.448-1,1-1s1,0.448,1,1v13C25,24.552,24.552,25,24,25z"/><linearGradient id="s6FVO6uOZ4AqITiMs9hO3a" x1="22.564" x2="25.362" y1="23.884" y2="41.644" gradientUnits="userSpaceOnUse"><stop offset="0" stop-color="#0078d3"/><stop offset="1" stop-color="#0858a1"/></linearGradient><path fill="url(#s6FVO6uOZ4AqITiMs9hO3a)" d="M9,26c0-1.1,0.9-2,2-2h26c1.1,0,2,0.9,2,2v14c0,1.1-0.9,2-2,2H11c-1.1,0-2-0.9-2-2V26z"/><path fill="#eee" d="M18.029,38h11.942c0.646,0,1.252-0.312,1.627-0.838l2.955-4.136c0.83-1.162,0.466-2.789-0.778-3.489	c-6.01-3.378-13.534-3.368-19.545,0.002c-1.246,0.698-1.61,2.328-0.78,3.49l2.952,4.133C16.777,37.688,17.383,38,18.029,38z"/><linearGradient id="s6FVO6uOZ4AqITiMs9hO3b" x1="30.135" x2="40.123" y1="7.135" y2="17.123" gradientUnits="userSpaceOnUse"><stop offset="0" stop-color="#f44f5a"/><stop offset=".443" stop-color="#ee3d4a"/><stop offset="1" stop-color="#e52030"/></linearGradient><circle cx="35" cy="12" r="7" fill="url(#s6FVO6uOZ4AqITiMs9hO3b)"/><linearGradient id="s6FVO6uOZ4AqITiMs9hO3c" x1="8.135" x2="18.123" y1="7.135" y2="17.123" gradientUnits="userSpaceOnUse"><stop offset="0" stop-color="#f44f5a"/><stop offset=".443" stop-color="#ee3d4a"/><stop offset="1" stop-color="#e52030"/></linearGradient><circle cx="13" cy="12" r="7" fill="url(#s6FVO6uOZ4AqITiMs9hO3c)"/><linearGradient id="s6FVO6uOZ4AqITiMs9hO3d" x1="18.525" x2="29.679" y1="6.525" y2="17.679" gradientUnits="userSpaceOnUse"><stop offset="0" stop-color="#33d7f0"/><stop offset="1" stop-color="#0083c4"/></linearGradient><path fill="url(#s6FVO6uOZ4AqITiMs9hO3d)" d="M24,4c-4.418,0-8,3.582-8,8s3.582,8,8,8s8-3.582,8-8S28.418,4,24,4z"/><path d="M24.47,10.5c0.361,0,0.69,0.062,0.981,0.184c0.405,0.169,0.863,0.126,1.223-0.114	c0.354-0.235,0.564-0.63,0.564-1.057V8.578c0-0.624-0.412-1.176-1.001-1.343C25.687,7.079,25.046,7,24.329,7	c-3.015,0-5.121,2.124-5.121,5.165c0,2.938,1.892,4.835,4.819,4.835c0.906,0,1.69-0.125,2.333-0.374	c0.526-0.204,0.879-0.726,0.879-1.301v-0.871c0-0.43-0.213-0.827-0.57-1.063c-0.364-0.239-0.824-0.281-1.23-0.106	c-0.331,0.141-0.68,0.21-1.066,0.21c-1.1,0-1.331-0.791-1.331-1.455C23.042,10.767,23.818,10.5,24.47,10.5z" opacity=".05"/><path d="M24.47,10c0.428,0,0.822,0.075,1.174,0.223c0.251,0.105,0.532,0.08,0.753-0.069	c0.214-0.142,0.341-0.381,0.341-0.64V8.578c0-0.401-0.262-0.756-0.638-0.862C25.596,7.573,25,7.5,24.329,7.5	c-3.175,0-4.621,2.418-4.621,4.665c0,3.196,2.231,4.335,4.319,4.335c0.844,0,1.568-0.114,2.152-0.34	c0.335-0.129,0.56-0.465,0.56-0.834v-0.871c0-0.261-0.129-0.502-0.346-0.646c-0.225-0.148-0.509-0.173-0.758-0.064	c-0.389,0.167-0.814,0.25-1.263,0.25c-1.699,0-1.831-1.496-1.831-1.955C22.542,10.146,24.018,10,24.47,10z" opacity=".07"/><path fill="#fff" d="M26.239,15.326c0,0.16-0.091,0.311-0.24,0.368C25.47,15.898,24.813,16,24.027,16 c-1.947,0-3.819-1.063-3.819-3.835C20.208,9.956,21.6,8,24.329,8c0.627,0,1.172,0.066,1.635,0.197 c0.167,0.047,0.275,0.208,0.275,0.381v0.935c0,0.206-0.212,0.327-0.402,0.247C25.422,9.587,24.966,9.5,24.47,9.5 c-0.932,0-2.428,0.5-2.428,2.541c0,1.28,0.709,2.454,2.33,2.454c0.52,0,1.006-0.097,1.459-0.291 c0.193-0.082,0.407,0.041,0.407,0.25V15.326z"/><path fill="#64717c" d="M25.674,37l2.706-5.026c0.262-0.486,0.08-1.093-0.406-1.354c-0.486-0.263-1.093-0.081-1.354,0.406	L23.403,37H25.674z"/><path fill="#abb4be" d="M26,38h-4c0-1.105,0.895-2,2-2S26,36.895,26,38z"/></svg>