<svg xmlns="http://www.w3.org/2000/svg" viewBox="0 0 48 48"><linearGradient id="eNMhM4Smcv4SRpR7OSx1Va" x1="24" x2="24" y1="9.477" y2="51.085" gradientUnits="userSpaceOnUse"><stop offset="0" stop-color="#199ae0"/><stop offset="1" stop-color="#0782d8"/></linearGradient><path fill="url(#eNMhM4Smcv4SRpR7OSx1Va)" d="M42.9,10h-2.15H7.25H5.1C3.945,10,3,10.89,3,12v11v1v1v1v11c0,1.11,0.945,2,2.1,2h2.15H40.75	h2.15c1.155,0,2.1-0.89,2.1-2V26v-1v-1v-1V12C45,10.89,44.055,10,42.9,10z"/><linearGradient id="eNMhM4Smcv4SRpR7OSx1Vb" x1="11" x2="11" y1="16.568" y2="37.857" gradientUnits="userSpaceOnUse"><stop offset="0" stop-color="#f9f9f9"/><stop offset=".276" stop-color="#eff0f1"/><stop offset=".746" stop-color="#d3d8da"/><stop offset="1" stop-color="#c2c8cc"/></linearGradient><path fill="url(#eNMhM4Smcv4SRpR7OSx1Vb)" d="M16,32H6c-0.552,0-1-0.448-1-1V19c0-0.552,0.448-1,1-1h10c0.552,0,1,0.448,1,1v12	C17,31.552,16.552,32,16,32z"/><linearGradient id="eNMhM4Smcv4SRpR7OSx1Vc" x1="24" x2="24" y1="25.568" y2="33.75" gradientUnits="userSpaceOnUse"><stop offset="0" stop-color="#f44f5a"/><stop offset=".443" stop-color="#ee3d4a"/><stop offset="1" stop-color="#e52030"/></linearGradient><path fill="url(#eNMhM4Smcv4SRpR7OSx1Vc)" d="M28,32h-8c-0.552,0-1-0.448-1-1v-3h10v3C29,31.552,28.552,32,28,32z"/><linearGradient id="eNMhM4Smcv4SRpR7OSx1Vd" x1="24" x2="24" y1="17.25" y2="32.129" gradientUnits="userSpaceOnUse"><stop offset="0" stop-color="#f9f9f9"/><stop offset=".276" stop-color="#eff0f1"/><stop offset=".746" stop-color="#d3d8da"/><stop offset="1" stop-color="#c2c8cc"/></linearGradient><path fill="url(#eNMhM4Smcv4SRpR7OSx1Vd)" d="M29,28H19v-9c0-0.552,0.448-1,1-1h8c0.552,0,1,0.448,1,1V28z"/><linearGradient id="eNMhM4Smcv4SRpR7OSx1Ve" x1="37" x2="37" y1="16.568" y2="37.857" gradientUnits="userSpaceOnUse"><stop offset="0" stop-color="#f9f9f9"/><stop offset=".276" stop-color="#eff0f1"/><stop offset=".746" stop-color="#d3d8da"/><stop offset="1" stop-color="#c2c8cc"/></linearGradient><path fill="url(#eNMhM4Smcv4SRpR7OSx1Ve)" d="M43,19v12c0,0.552-0.448,1-1,1H32c-0.552,0-1-0.448-1-1V19c0-0.552,0.448-1,1-1h10	C42.552,18,43,18.448,43,19z"/><linearGradient id="eNMhM4Smcv4SRpR7OSx1Vf" x1="35" x2="35" y1="17.046" y2="34.312" gradientUnits="userSpaceOnUse"><stop offset="0" stop-color="#4c4c4c"/><stop offset="1" stop-color="#343434"/></linearGradient><path fill="url(#eNMhM4Smcv4SRpR7OSx1Vf)" d="M39,25c0,3.02-1.67,5.65-4.14,7H32c-0.552,0-1-0.448-1-1V19c0-0.552,0.448-1,1-1h2.86	C37.33,19.35,39,21.98,39,25z"/><linearGradient id="eNMhM4Smcv4SRpR7OSx1Vg" x1="13" x2="13" y1="17.046" y2="34.312" gradientUnits="userSpaceOnUse"><stop offset="0" stop-color="#4c4c4c"/><stop offset="1" stop-color="#343434"/></linearGradient><path fill="url(#eNMhM4Smcv4SRpR7OSx1Vg)" d="M17,19v12c0,0.552-0.448,1-1,1h-2.86C10.67,30.65,9,28.02,9,25c0-3.02,1.67-5.65,4.14-7H16	C16.552,18,17,18.448,17,19z"/><linearGradient id="eNMhM4Smcv4SRpR7OSx1Vh" x1="16" x2="16" y1="22.909" y2="28.093" gradientUnits="userSpaceOnUse"><stop offset="0" stop-color="#f9f9f9"/><stop offset=".276" stop-color="#eff0f1"/><stop offset=".746" stop-color="#d3d8da"/><stop offset="1" stop-color="#c2c8cc"/></linearGradient><path fill="url(#eNMhM4Smcv4SRpR7OSx1Vh)" d="M17,23v4c-1.1,0-2-0.9-2-2C15,23.9,15.9,23,17,23z"/><linearGradient id="eNMhM4Smcv4SRpR7OSx1Vi" x1="32" x2="32" y1="22.909" y2="28.093" gradientUnits="userSpaceOnUse"><stop offset="0" stop-color="#f9f9f9"/><stop offset=".276" stop-color="#eff0f1"/><stop offset=".746" stop-color="#d3d8da"/><stop offset="1" stop-color="#c2c8cc"/></linearGradient><path fill="url(#eNMhM4Smcv4SRpR7OSx1Vi)" d="M33,25c0,1.1-0.9,2-2,2v-4C32.1,23,33,23.9,33,25z"/></svg>