<svg xmlns="http://www.w3.org/2000/svg" viewBox="0 0 48 48"><linearGradient id="bZsWzL7T~hfjDSAahF9lpa" x1="26.195" x2="42.324" y1="29.733" y2="38.002" gradientTransform="rotate(45.001 36.241 29.61)" gradientUnits="userSpaceOnUse"><stop offset="0" stop-color="#a1aab3"/><stop offset="1" stop-color="#8f979e"/></linearGradient><path fill="url(#bZsWzL7T~hfjDSAahF9lpa)" d="M45.577,10.72c-0.978-2.554-2.285-4.859-3.824-6.861c-0.506-0.658-1.541-0.077-1.229,0.696 c0.306,0.76,0.579,1.546,0.815,2.357c3.008,10.353-1.152,20.687-9.293,23.083c-3.834,1.128-7.875,0.154-12.429-3.765l-0.932-0.947 c-0.647-0.657-1.695-0.657-2.342,0l-5.138,5.22l2.103,2.136l3.757-3.817c6.551,8.199,14.2,10.173,20.397,7.927 C46.229,33.571,49.862,21.917,45.577,10.72z"/><path fill="#ad570d" d="M1.734,42.248L1.734,42.248c-1.355-1.377-1.355-3.608,0-4.985l8.763-8.902l4.907,4.985l-8.763,8.902 C5.286,43.624,3.089,43.624,1.734,42.248z"/><linearGradient id="bZsWzL7T~hfjDSAahF9lpb" x1="143.636" x2="150.647" y1="210.651" y2="210.651" gradientTransform="rotate(45.001 297.083 -41.234)" gradientUnits="userSpaceOnUse"><stop offset="0" stop-color="#dd7d22"/><stop offset="1" stop-color="#d97218"/></linearGradient><polygon fill="url(#bZsWzL7T~hfjDSAahF9lpb)" points="14.703,34.058 9.796,29.073 11.198,27.649 16.105,32.634"/></svg>