<svg xmlns="http://www.w3.org/2000/svg" viewBox="0 0 48 48"><linearGradient id="wHuTtm~zrbiY1TYzRN~uka" x1="24" x2="24" y1="518.016" y2="509.747" gradientTransform="matrix(1 0 0 -1 0 524.724)" gradientUnits="userSpaceOnUse"><stop offset="0" stop-color="#eba600"/><stop offset="1" stop-color="#c28200"/></linearGradient><path fill="url(#wHuTtm~zrbiY1TYzRN~uka)" d="M24.414,10.414l-2.536-2.536C21.316,7.316,20.553,7,19.757,7H5C3.895,7,3,7.895,3,9v30 c0,1.105,0.895,2,2,2h38c1.105,0,2-0.895,2-2V13c0-1.105-0.895-2-2-2H25.828C25.298,11,24.789,10.789,24.414,10.414z"/><linearGradient id="wHuTtm~zrbiY1TYzRN~ukb" x1="24" x2="24" y1="513.87" y2="483.741" gradientTransform="matrix(1 0 0 -1 0 524.724)" gradientUnits="userSpaceOnUse"><stop offset="0" stop-color="#ffd869"/><stop offset="1" stop-color="#fec52b"/></linearGradient><path fill="url(#wHuTtm~zrbiY1TYzRN~ukb)" d="M21.586,14.414l3.268-3.268C24.947,11.053,25.074,11,25.207,11H43c1.105,0,2,0.895,2,2v26 c0,1.105-0.895,2-2,2H5c-1.105,0-2-0.895-2-2V15.5C3,15.224,3.224,15,3.5,15h16.672C20.702,15,21.211,14.789,21.586,14.414z"/><linearGradient id="wHuTtm~zrbiY1TYzRN~ukc" x1="22.318" x2="25.605" y1="18.141" y2="37.405" gradientUnits="userSpaceOnUse"><stop offset="0" stop-color="#f44f5a"/><stop offset=".443" stop-color="#ee3d4a"/><stop offset="1" stop-color="#e52030"/></linearGradient><circle cx="24" cy="28" r="10" fill="url(#wHuTtm~zrbiY1TYzRN~ukc)"/><path fill="#fff" d="M30,26.5h-4.5V22c0-0.276-0.224-0.5-0.5-0.5h-2c-0.276,0-0.5,0.224-0.5,0.5v4.5H18 c-0.276,0-0.5,0.224-0.5,0.5v2c0,0.276,0.224,0.5,0.5,0.5h4.5V34c0,0.276,0.224,0.5,0.5,0.5h2c0.276,0,0.5-0.224,0.5-0.5v-4.5H30 c0.276,0,0.5-0.224,0.5-0.5v-2C30.5,26.724,30.276,26.5,30,26.5z"/></svg>