<svg xmlns="http://www.w3.org/2000/svg" viewBox="0 0 48 48"><linearGradient id="ksAlC_rs0bhzRdAzdaxJaa" x1="10.071" x2="37.929" y1="4.108" y2="43.892" gradientUnits="userSpaceOnUse"><stop offset="0" stop-color="#899198"/><stop offset="1" stop-color="#787e85"/></linearGradient><path fill="url(#ksAlC_rs0bhzRdAzdaxJaa)" d="M40,42H8c-1.105,0-2-0.895-2-2V8c0-1.105,0.895-2,2-2h32c1.105,0,2,0.895,2,2v32	C42,41.105,41.105,42,40,42z"/><path fill="#cad2d9" d="M38.235,23H26.765C25.79,23,25,22.21,25,21.235V9.765C25,8.79,25.79,8,26.765,8h11.471	C39.21,8,40,8.79,40,9.765v11.471C40,22.21,39.21,23,38.235,23z"/><path fill="#cad2d9" d="M38.235,40H26.765C25.79,40,25,39.21,25,38.235V26.765C25,25.79,25.79,25,26.765,25h11.471	C39.21,25,40,25.79,40,26.765v11.471C40,39.21,39.21,40,38.235,40z"/><path fill="#cad2d9" d="M21.235,40H9.765C8.79,40,8,39.21,8,38.235V26.765C8,25.79,8.79,25,9.765,25h11.471	C22.21,25,23,25.79,23,26.765v11.471C23,39.21,22.21,40,21.235,40z"/><path fill="#cad2d9" d="M21.235,23H9.765C8.79,23,8,22.21,8,21.235V9.765C8,8.79,8.79,8,9.765,8h11.471	C22.21,8,23,8.79,23,9.765v11.471C23,22.21,22.21,23,21.235,23z"/><path fill="#fff" d="M35.5,17h-6c-0.829,0-1.5-0.671-1.5-1.5s0.671-1.5,1.5-1.5h6c0.829,0,1.5,0.671,1.5,1.5	S36.329,17,35.5,17z"/><path fill="#fff" d="M18.5,17H17v1.5c0,0.829-0.671,1.5-1.5,1.5S14,19.329,14,18.5V17h-1.5c-0.829,0-1.5-0.671-1.5-1.5	s0.671-1.5,1.5-1.5H14v-1.5c0-0.829,0.671-1.5,1.5-1.5s1.5,0.671,1.5,1.5V14h1.5c0.829,0,1.5,0.671,1.5,1.5S19.329,17,18.5,17z"/><path fill="#fff" d="M19.507,34.117c0.659,0.658,0.659,1.728,0,2.386c-0.33,0.331-0.762,0.495-1.194,0.495	c-0.432,0-0.864-0.164-1.194-0.494l-1.619-1.62l-1.619,1.619c-0.33,0.331-0.762,0.495-1.194,0.495c-0.432,0-0.864-0.164-1.194-0.494	c-0.659-0.658-0.659-1.728,0-2.386l1.619-1.619l-1.619-1.619c-0.659-0.658-0.659-1.728,0-2.386c0.659-0.659,1.727-0.659,2.386,0	l1.619,1.619l1.619-1.619c0.659-0.659,1.727-0.659,2.386,0c0.659,0.658,0.659,1.728,0,2.386l-1.618,1.618L19.507,34.117z"/><path fill="#fff" d="M35.5,37h-6c-0.829,0-1.5-0.671-1.5-1.5s0.671-1.5,1.5-1.5h6c0.829,0,1.5,0.671,1.5,1.5	S36.329,37,35.5,37z"/><path fill="#fff" d="M35.5,31h-6c-0.829,0-1.5-0.671-1.5-1.5s0.671-1.5,1.5-1.5h6c0.829,0,1.5,0.671,1.5,1.5	S36.329,31,35.5,31z"/></svg>