<svg xmlns="http://www.w3.org/2000/svg" id="Layer_1" x="0" y="0" version="1.1" viewBox="0 0 48 48" xml:space="preserve"><linearGradient id="SVGID_1_" x1="24.011" x2="24.011" y1="36.277" y2="32.634" gradientUnits="userSpaceOnUse"><stop offset="0" stop-color="#484b4f"/><stop offset=".23" stop-color="#656d75"/><stop offset=".367" stop-color="#727d86"/></linearGradient><rect width="2" height="3.1" x="23" y="32.9" fill="url(#SVGID_1_)"/><path fill="#21a366" d="M29,39h-3v-2c0-0.6-0.4-1-1-1h-2c-0.6,0-1,0.4-1,1v2h-3c-0.6,0-1,0.4-1,1v2c0,0.6,0.4,1,1,1h10	c0.6,0,1-0.4,1-1v-2C30,39.4,29.6,39,29,39z"/><linearGradient id="SVGID_2_" x1="21.872" x2="42.657" y1="1045.535" y2="1076.644" gradientTransform="translate(0 -1032)" gradientUnits="userSpaceOnUse"><stop offset="0" stop-color="#28afea"/><stop offset="1" stop-color="#0b88da"/></linearGradient><path fill="url(#SVGID_2_)" d="M11.1,20.7L42,8.2v23c0,1-0.8,1.7-1.7,1.7H11.1V20.7z"/><rect width="2" height="1.9" x="23" y="32" opacity=".05"/><rect width="2" height="1.4" x="23" y="32" opacity=".07"/><linearGradient id="SVGID_3_" x1="4.377" x2="34.855" y1="1050.674" y2="1069.659" gradientTransform="translate(0 -1032)" gradientUnits="userSpaceOnUse"><stop offset="0" stop-color="#28afea"/><stop offset="1" stop-color="#0b88da"/></linearGradient><path fill="url(#SVGID_3_)" d="M6,7.2v24c0,1,0.8,1.7,1.7,1.7h32.6c0.4,0,0.8-0.2,1.1-0.4L6,7.2z"/><path d="M6,7.6h36v1.5L27.2,20.6c-1.9,1.4-4.5,1.4-6.3,0L6,9.1V7.6z" opacity=".05"/><path d="M6,7.2h36v1.5L26.5,19.9C25,21,23,21,21.5,19.9L6,8.6V7.2z" opacity=".07"/><path fill="#50e6ff" d="M7.7,5h32.6C41.2,5,42,5.8,42,6.8v1.5L25.9,19.1c-1.2,0.8-2.7,0.8-3.9,0L6,8.2V6.8C6,5.8,6.8,5,7.7,5z"/><linearGradient id="SVGID_4_" x1="30" x2="42" y1="41" y2="41" gradientUnits="userSpaceOnUse"><stop offset="0" stop-color="#484b4f"/><stop offset=".23" stop-color="#656d75"/><stop offset=".367" stop-color="#727d86"/></linearGradient><path fill="url(#SVGID_4_)" d="M41,40H30v2h11c0.6,0,1-0.4,1-1S41.6,40,41,40z"/><linearGradient id="SVGID_5_" x1="19.532" x2="31.532" y1="41" y2="41" gradientTransform="matrix(-1 0 0 1 37.532 0)" gradientUnits="userSpaceOnUse"><stop offset="0" stop-color="#484b4f"/><stop offset=".23" stop-color="#656d75"/><stop offset=".367" stop-color="#727d86"/></linearGradient><path fill="url(#SVGID_5_)" d="M7,40h11v2H7c-0.6,0-1-0.4-1-1S6.4,40,7,40z"/></svg>