<svg xmlns="http://www.w3.org/2000/svg" viewBox="0 0 48 48"><linearGradient id="2Izs4qIDbFi2MqKwGTgYBa" x1="-.161" x2="43.414" y1="3.52" y2="40.457" gradientUnits="userSpaceOnUse"><stop offset="0" stop-color="#21ad64"/><stop offset="1" stop-color="#088242"/></linearGradient><circle cx="24" cy="24" r="20" fill="url(#2Izs4qIDbFi2MqKwGTgYBa)"/><path d="M25.122,35.732c-5.846,0-10.426-4.999-10.426-11.382V13.916c0-0.83,0.677-1.506,1.509-1.506	c7.978,0.395,14.01,3.123,17.011,7.685c2.082,3.162,2.483,6.9,1.129,10.526c-0.77,2.025-1.6,3.244-2.962,4.349	c-0.168,0.192-0.54,0.345-0.914,0.345c-0.769,0-1.394-0.626-1.394-1.395c0-0.148,0.024-0.296,0.071-0.438l0.025-0.163	c0.061-0.396,0.131-0.849,0.15-1.075c0.107-1.296,0.064-2.817-0.329-4.417c0.435,2.628-0.048,5.084-1.414,7.146	c-0.243,0.366-0.649,0.617-1.086,0.671C26.041,35.702,25.578,35.732,25.122,35.732z" opacity=".05"/><path d="M25.122,35.232c-5.566,0-9.926-4.78-9.926-10.882V13.916c0-0.555,0.453-1.006,1.009-1.006	c7.807,0.387,13.683,3.035,16.594,7.459c1.991,3.025,2.375,6.604,1.079,10.077c-0.734,1.932-1.521,3.091-2.809,4.135	c-0.121,0.133-0.356,0.233-0.599,0.233c-0.493,0-0.894-0.401-0.894-0.895c0-0.107,0.02-0.214,0.058-0.316	c0.068-0.445,0.163-1.043,0.187-1.318c0.253-3.049-0.279-8.072-5.315-12.075c1.925,2.08,3.258,4.447,3.836,6.902	c0.66,2.803,0.252,5.425-1.178,7.584c-0.162,0.245-0.436,0.415-0.73,0.451C25.996,35.204,25.554,35.232,25.122,35.232z" opacity=".07"/><path fill="#fff" d="M16.23,13.412c-0.286-0.014-0.533,0.218-0.533,0.505V24.35c0,5.935,4.493,11.095,10.676,10.301	c0.15-0.019,0.292-0.106,0.375-0.232c3.488-5.266,0.264-13.269-7.582-17.793c9.141,3.66,11.625,10.035,11.154,15.701	c-0.024,0.284-0.121,0.899-0.217,1.453c-0.017,0.044-0.026,0.091-0.026,0.14c0,0.217,0.176,0.394,0.394,0.394	c0.112,0,0.212-0.047,0.284-0.121c1.266-1.027,1.978-2.139,2.655-3.921C36.252,22.654,30.693,14.129,16.23,13.412z"/></svg>