<svg xmlns="http://www.w3.org/2000/svg" viewBox="0 0 48 48"><linearGradient id="X5E_p6BOO8t57BpBeCe_Va" x1="29.068" x2="29.068" y1="6.343" y2="34.25" gradientTransform="translate(-.088 -.206)" gradientUnits="userSpaceOnUse"><stop offset="0" stop-color="#0d61a9"/><stop offset="1" stop-color="#16528c"/></linearGradient><path fill="url(#X5E_p6BOO8t57BpBeCe_Va)" d="M44.004,33.969L14.031,34c-1.099,0.001-1.999-0.897-2-1.996L12,8.031	c-0.001-1.099,0.897-1.999,1.996-2L43.969,6c1.099-0.001,1.999,0.897,2,1.996L46,31.969C46.001,33.068,45.103,33.968,44.004,33.969z"/><path fill="#35c1f1" d="M37.293,14.707l-2.147-2.147c-0.195-0.195-0.195-0.512,0-0.707l0.707-0.707	c0.195-0.195,0.512-0.195,0.707,0l1.44,1.44l3.412-3.412c0.195-0.195,0.512-0.195,0.707,0l0.707,0.707	c0.195,0.195,0.195,0.512,0,0.707l-4.119,4.119C38.317,15.097,37.683,15.097,37.293,14.707z"/><path fill="#35c1f1" d="M18.5,14h13c0.276,0,0.5-0.224,0.5-0.5v-1c0-0.276-0.224-0.5-0.5-0.5h-13c-0.276,0-0.5,0.224-0.5,0.5	v1C18,13.776,18.224,14,18.5,14z"/><path fill="#35c1f1" d="M37.293,21.707l-2.147-2.147c-0.195-0.195-0.195-0.512,0-0.707l0.707-0.707	c0.195-0.195,0.512-0.195,0.707,0l1.44,1.44l3.412-3.412c0.195-0.195,0.512-0.195,0.707,0l0.707,0.707	c0.195,0.195,0.195,0.512,0,0.707l-4.119,4.119C38.317,22.097,37.683,22.097,37.293,21.707z"/><path fill="#35c1f1" d="M18.5,21h13c0.276,0,0.5-0.224,0.5-0.5v-1c0-0.276-0.224-0.5-0.5-0.5h-13c-0.276,0-0.5,0.224-0.5,0.5	v1C18,20.776,18.224,21,18.5,21z"/><path fill="#35c1f1" d="M37.293,28.707l-2.147-2.147c-0.195-0.195-0.195-0.512,0-0.707l0.707-0.707	c0.195-0.195,0.512-0.195,0.707,0l1.44,1.44l3.412-3.412c0.195-0.195,0.512-0.195,0.707,0l0.707,0.707	c0.195,0.195,0.195,0.512,0,0.707l-4.119,4.119C38.317,29.097,37.683,29.097,37.293,28.707z"/><path fill="#35c1f1" d="M18.5,28h13c0.276,0,0.5-0.224,0.5-0.5v-1c0-0.276-0.224-0.5-0.5-0.5h-13c-0.276,0-0.5,0.224-0.5,0.5	v1C18,27.776,18.224,28,18.5,28z"/><linearGradient id="X5E_p6BOO8t57BpBeCe_Vb" x1="7.882" x2="23.996" y1="31.768" y2="47.882" gradientUnits="userSpaceOnUse"><stop offset="0" stop-color="#33bef0"/><stop offset="1" stop-color="#0a85d9"/></linearGradient><path fill="url(#X5E_p6BOO8t57BpBeCe_Vb)" d="M16,31c-7.732,0-14,4.556-14,9.25v1.25C2,42.328,2.672,43,3.5,43h25	c0.828,0,1.5-0.672,1.5-1.5v-1.25C30,35.556,23.732,31,16,31z"/><path fill="#d6a121" d="M20.5,33.4c0,1.707-2.547,3.6-4.5,3.6s-4.5-1.892-4.5-3.6c0-2.374,0-6.332,0-6.332h9	C20.5,27.068,20.5,31.026,20.5,33.4z"/><linearGradient id="X5E_p6BOO8t57BpBeCe_Vc" x1="23.917" x2="25.251" y1="24" y2="24" gradientUnits="userSpaceOnUse"><stop offset="0" stop-color="#c48f0c"/><stop offset=".251" stop-color="#d19b16"/><stop offset=".619" stop-color="#dca51f"/><stop offset="1" stop-color="#e0a922"/></linearGradient><path fill="url(#X5E_p6BOO8t57BpBeCe_Vc)" d="M23.916,22h-0.527v4h0.703c0.515,0,0.954-0.312,1.041-0.74l0.344-1.703	C25.642,22.743,24.897,22,23.916,22z"/><linearGradient id="X5E_p6BOO8t57BpBeCe_Vd" x1="-744.083" x2="-742.749" y1="24" y2="24" gradientTransform="matrix(-1 0 0 1 -736 0)" gradientUnits="userSpaceOnUse"><stop offset="0" stop-color="#c48f0c"/><stop offset=".251" stop-color="#d19b16"/><stop offset=".619" stop-color="#dca51f"/><stop offset="1" stop-color="#e0a922"/></linearGradient><path fill="url(#X5E_p6BOO8t57BpBeCe_Vd)" d="M8.084,22h0.527v4H7.908c-0.515,0-0.954-0.312-1.041-0.74l-0.344-1.703	C6.358,22.743,7.103,22,8.084,22z"/><radialGradient id="X5E_p6BOO8t57BpBeCe_Ve" cx="24.056" cy="-6.985" r="10.866" gradientTransform="translate(-5.208 27.224) scale(.8816)" gradientUnits="userSpaceOnUse"><stop offset="0" stop-color="#ffcf54"/><stop offset=".261" stop-color="#fdcb4d"/><stop offset=".639" stop-color="#f7c13a"/><stop offset="1" stop-color="#f0b421"/></radialGradient><path fill="url(#X5E_p6BOO8t57BpBeCe_Ve)" d="M16,10.133c-3.948,0-8,0.6-8,9.133c0,0.683,0,5.224,0,5.954C8,28.267,12.8,32,16,32	s8-3.733,8-6.78c0-0.73,0-5.271,0-5.954C24,10.733,19.948,10.133,16,10.133z"/><radialGradient id="X5E_p6BOO8t57BpBeCe_Vf" cx="15.323" cy="-19.444" r="26.716" gradientTransform="translate(-5.208 27.224) scale(.8816)" gradientUnits="userSpaceOnUse"><stop offset="0" stop-color="#c26715"/><stop offset=".508" stop-color="#b85515"/><stop offset="1" stop-color="#ad3f16"/></radialGradient><path fill="url(#X5E_p6BOO8t57BpBeCe_Vf)" d="M16,9c-3,0-5,2-5,2c-1.593,0.235-4,1-4,5c0,1.488,0.339,3.288,1,7	c0.491-5.891,1.924-9.091,3.5-9.091c1.14,0,2.045,0.9,4.5,0.9c2.072,0,2.587-0.9,4.5-0.9c2.7,0,3.5,8.162,3.5,9.091	c0.541-2.709,1-5.7,1-7C25,12.913,21.588,9,16,9z"/><radialGradient id="X5E_p6BOO8t57BpBeCe_Vg" cx="24.834" cy="-17.327" r="31.147" gradientTransform="matrix(.8431 0 0 .8816 -6.596 27.224)" gradientUnits="userSpaceOnUse"><stop offset="0" stop-color="#c26715"/><stop offset=".508" stop-color="#b85515"/><stop offset="1" stop-color="#ad3f16"/></radialGradient><path fill="url(#X5E_p6BOO8t57BpBeCe_Vg)" d="M16.316,9C12,9,11,11,11,11c-0.037,1.014,1.208,1.818,1.208,1.818s0.666,1.432,4.463,1.432	c2.293,0,5.578-1.43,5.578-5.25C22.25,9,21.512,9,16.316,9z"/></svg>