<svg xmlns="http://www.w3.org/2000/svg" viewBox="0 0 48 48"><path fill="#59d19a" d="M6.987,5l2.127,17.123c0.068,0.548,0.568,0.937,1.116,0.869l13.893-1.726	c0.548-0.068,0.937-0.568,0.869-1.116L23.11,5H6.987z"/><path fill="#21a366" d="M6.987,5l1.634,13.154l15.878-1.973L23.11,5H6.987z M11.728,10.714	c0.548-0.068,1.048,0.321,1.116,0.869c0.068,0.548-0.321,1.048-0.869,1.116c-0.548,0.068-1.048-0.321-1.116-0.869	C10.79,11.281,11.18,10.782,11.728,10.714z M12.344,15.676c-0.548,0.068-1.048-0.321-1.116-0.869	c-0.068-0.548,0.321-1.048,0.869-1.116s1.048,0.321,1.116,0.869C13.281,15.108,12.892,15.608,12.344,15.676z"/><circle cx="8.5" cy="31.5" r="2.5" fill="#c98e00"/><polygon fill="#c98e00" points="21.789,41.683 7.32,33.693 9.46,29.191 22,35"/><linearGradient id="vnAyrqTjx5btPVYjnIybEa" x1="3" x2="45" y1="33" y2="33" gradientTransform="matrix(-1 0 0 1 48 0)" gradientUnits="userSpaceOnUse"><stop offset="0" stop-color="#ffcf54"/><stop offset=".261" stop-color="#fdcb4d"/><stop offset=".639" stop-color="#f7c13a"/><stop offset="1" stop-color="#f0b421"/></linearGradient><path fill="url(#vnAyrqTjx5btPVYjnIybEa)" d="M3,32.5C3,31.119,4.119,30,5.5,30c0.34,0,0.664,0.069,0.959,0.192l0.001-0.001l0.011,0.005 c0.002,0.001,0.004,0.002,0.006,0.003L19,36l1.5-1c-1.381,0-2.5-1.119-2.5-2.5c0-0.93,0.514-1.732,1.267-2.163l-0.004-0.016 l13.651-6.866l0.025,0C33.569,23.169,34.263,23,35,23c0.718,0,1.397,0.157,2.015,0.43l0.022,0L45,27v13l-8.09-3.718L20.998,42.79 l-0.001,0C20.691,42.924,20.355,43,20,43c-0.435,0-0.838-0.121-1.195-0.317l-0.017-0.001L4.32,34.693l0.001-0.002 C3.538,34.269,3,33.452,3,32.5z"/><circle cx="20.5" cy="32.5" r="1.5" fill="#ffde87"/><linearGradient id="vnAyrqTjx5btPVYjnIybEb" x1="22.337" x2="24.123" y1="36.368" y2="33.288" gradientTransform="matrix(-1 0 0 1 48 0)" gradientUnits="userSpaceOnUse"><stop offset="0" stop-color="#f0b421" stop-opacity="0"/><stop offset=".512" stop-color="#e9ab12" stop-opacity=".512"/><stop offset="1" stop-color="#e09f00"/></linearGradient><path fill="url(#vnAyrqTjx5btPVYjnIybEb)" d="M19,36l1.489-0.998c1.255-0.06,2.242-0.468,10.511-3.513V35l-11.551,4.734	C19.449,39.734,20.267,37.451,19,36z"/><path fill="#61e3a7" d="M6,22V5h16v17c0,0.552-0.448,1-1,1H7C6.448,23,6,22.552,6,22z"/><path fill="#33c481" d="M18.463,5C17.365,6.225,15.775,7,14,7s-3.365-0.775-4.463-2H6v13h16V5H18.463z M10,16	c-0.552,0-1-0.448-1-1c0-0.552,0.448-1,1-1s1,0.448,1,1C11,15.552,10.552,16,10,16z M10,13c-0.552,0-1-0.448-1-1	c0-0.552,0.448-1,1-1s1,0.448,1,1C11,12.552,10.552,13,10,13z"/></svg>