<svg xmlns="http://www.w3.org/2000/svg" viewBox="0 0 48 48"><linearGradient id="ppOnCc5~kI9Td60YisT0Da" x1="15.358" x2="10.582" y1="7.965" y2="7.965" gradientUnits="userSpaceOnUse"><stop offset=".365" stop-color="#199ae0"/><stop offset=".699" stop-color="#1898de"/><stop offset=".819" stop-color="#1691d8"/><stop offset=".905" stop-color="#1186cc"/><stop offset=".974" stop-color="#0a75bc"/><stop offset="1" stop-color="#076cb3"/></linearGradient><path fill="url(#ppOnCc5~kI9Td60YisT0Da)" d="M10,4.929V11h4.864c0.445,0,0.669-0.539,0.354-0.854L10,4.929z"/><linearGradient id="ppOnCc5~kI9Td60YisT0Db" x1="45.292" x2="40.793" y1="40.035" y2="40.035" gradientUnits="userSpaceOnUse"><stop offset=".365" stop-color="#199ae0"/><stop offset=".699" stop-color="#1898de"/><stop offset=".819" stop-color="#1691d8"/><stop offset=".905" stop-color="#1186cc"/><stop offset=".974" stop-color="#0a75bc"/><stop offset="1" stop-color="#076cb3"/></linearGradient><path fill="url(#ppOnCc5~kI9Td60YisT0Db)" d="M40,43.071V37h4.864c0.445,0,0.669,0.539,0.354,0.854L40,43.071z"/><linearGradient id="ppOnCc5~kI9Td60YisT0Dc" x1="-32.579" x2="26.935" y1="-204.36" y2="35.848" gradientUnits="userSpaceOnUse"><stop offset="0" stop-color="#32bdef"/><stop offset="1" stop-color="#1ea2e4"/></linearGradient><path fill="url(#ppOnCc5~kI9Td60YisT0Dc)" d="M31.5,7c-5.24,0-9.5,4.26-9.5,9.5v15c0,3.03-2.47,5.5-5.5,5.5S11,34.53,11,31.5V6.343 c0-0.265-0.105-0.52-0.293-0.707l-1-1c-0.391-0.391-1.024-0.391-1.414,0l-5.51,5.51C2.468,10.461,2.691,11,3.136,11H7v20.5 c0,5.24,4.26,9.5,9.5,9.5s9.5-4.26,9.5-9.5v-15c0-3.03,2.47-5.5,5.5-5.5s5.5,2.47,5.5,5.5V37h-3.864 c-0.445,0-0.669,0.539-0.354,0.854l5.51,5.51c0.391,0.391,1.024,0.391,1.414,0l1-1C40.895,42.176,41,41.922,41,41.657V16.5 C41,11.26,36.74,7,31.5,7z"/></svg>