<svg xmlns="http://www.w3.org/2000/svg" data-name="Слой 1" viewBox="0 0 48 48"><defs><linearGradient id="LSg2_k7Fyap4pnBdNmXKwa" x1="24" x2="24" y1="221.067" y2="189.116" data-name="Безымянный градиент 36" gradientTransform="matrix(1 0 0 -1 0 224)" gradientUnits="userSpaceOnUse"><stop offset="0" stop-color="#2aa4f4"/><stop offset="1" stop-color="#007ad9"/></linearGradient><linearGradient id="LSg2_k7Fyap4pnBdNmXKwb" x1="24" x2="24" y1="207.587" y2="189.253" data-name="Безымянный градиент 35" gradientTransform="matrix(1 0 0 -1 0 224)" gradientUnits="userSpaceOnUse"><stop offset="0" stop-color="#a3ffff"/><stop offset=".223" stop-color="#9dfbff"/><stop offset=".53" stop-color="#8bf1ff"/><stop offset=".885" stop-color="#6ee0ff"/><stop offset="1" stop-color="#63daff"/></linearGradient><linearGradient id="LSg2_k7Fyap4pnBdNmXKwc" x1="24" x2="24" y1="38.783" y2="48.893" data-name="Безымянный градиент 143" gradientUnits="userSpaceOnUse"><stop offset="0" stop-color="#889097"/><stop offset="1" stop-color="#4c5963"/></linearGradient></defs><path fill="url(#LSg2_k7Fyap4pnBdNmXKwa)" d="M21.71917,3.96A.79892.79892,0,0,1,21.7,3.78049.774.774,0,0,1,22.46667,3a.8417.8417,0,0,1,.35573.0882c.93763.37307,7.3761,3.4638,5.88723,12.3996,2.162-1.326,1.3892-3.90243,2.09607-3.90243.266,0,.37413.10068.53667.33717C33.70907,15.35981,35.5,19.45815,35.5,23.29268A11.60532,11.60532,0,0,1,24,35,11.66189,11.66189,0,0,1,12.5,23.29268C12.5,13.78088,23.51163,12.02478,21.71917,3.96Z"/><path fill="url(#LSg2_k7Fyap4pnBdNmXKwb)" d="M23.69044,16.16942A.85342.85342,0,0,0,23.1875,16a.80258.80258,0,0,0-.8125.79167c.8125,4.75-4.875,6.33333-4.875,11.875a6.50219,6.50219,0,0,0,13,0C30.5,24.15417,26.42044,18.13037,23.69044,16.16942Z"/><path fill="url(#LSg2_k7Fyap4pnBdNmXKwc)" d="M11,37H37a4,4,0,0,1,4,4v0a2,2,0,0,1-2,2H9a2,2,0,0,1-2-2v0a4,4,0,0,1,4-4Z"/><path fill="#64717c" d="M23,37h2a0,0,0,0,1,0,0v3a1,1,0,0,1-1,1h0a1,1,0,0,1-1-1V37A0,0,0,0,1,23,37Z"/><path fill="#64717c" d="M18,37h2a0,0,0,0,1,0,0v3a1,1,0,0,1-1,1h0a1,1,0,0,1-1-1V37A0,0,0,0,1,18,37Z"/><path fill="#64717c" d="M13,37h2a0,0,0,0,1,0,0v3a1,1,0,0,1-1,1h0a1,1,0,0,1-1-1V37a0,0,0,0,1,0,0Z"/><path fill="#64717c" d="M33,37h2a0,0,0,0,1,0,0v3a1,1,0,0,1-1,1h0a1,1,0,0,1-1-1V37A0,0,0,0,1,33,37Z"/><path fill="#64717c" d="M28,37h2a0,0,0,0,1,0,0v3a1,1,0,0,1-1,1h0a1,1,0,0,1-1-1V37A0,0,0,0,1,28,37Z"/></svg>