<svg xmlns="http://www.w3.org/2000/svg" viewBox="0 0 48 48"><linearGradient id="4GP7tCui1GaylZ2kXZOVAa" x1="24" x2="24" y1="10.282" y2="44.032" gradientUnits="userSpaceOnUse"><stop offset="0" stop-color="#fede00"/><stop offset="1" stop-color="#f5aa00"/></linearGradient><path fill="url(#4GP7tCui1GaylZ2kXZOVAa)" d="M2.078,11h43.844C47.07,11,48,11.868,48,12.939v23.121C48,37.132,47.07,38,45.922,38H2.078 C0.93,38,0,37.132,0,36.061V12.939C0,11.868,0.93,11,2.078,11z"/><path fill="#b65e11" d="M34,23L34,23c-0.552,0-1-0.448-1-1V11h2v11C35,22.552,34.552,23,34,23z"/><path fill="#b65e11" d="M39,18L39,18c-0.552,0-1-0.448-1-1v-6h2v6C40,17.552,39.552,18,39,18z"/><path fill="#b65e11" d="M24,23L24,23c-0.552,0-1-0.448-1-1V11h2v11C25,22.552,24.552,23,24,23z"/><path fill="#b65e11" d="M29,18L29,18c-0.552,0-1-0.448-1-1v-6h2v6C30,17.552,29.552,18,29,18z"/><path fill="#b65e11" d="M14,23L14,23c-0.552,0-1-0.448-1-1V11h2v11C15,22.552,14.552,23,14,23z"/><path fill="#b65e11" d="M19,18L19,18c-0.552,0-1-0.448-1-1v-6h2v6C20,17.552,19.552,18,19,18z"/><path fill="#b65e11" d="M4,23L4,23c-0.552,0-1-0.448-1-1V11h2v11C5,22.552,4.552,23,4,23z"/><path fill="#b65e11" d="M9,18L9,18c-0.552,0-1-0.448-1-1v-6h2v6C10,17.552,9.552,18,9,18z"/><path fill="#b65e11" d="M44,23L44,23c-0.552,0-1-0.448-1-1V11h2v11C45,22.552,44.552,23,44,23z"/></svg>