<svg xmlns="http://www.w3.org/2000/svg" viewBox="0 0 48 48"><path fill="#199be2" d="M11.272,9.858l2.121,2.121c0.391,0.391,0.39,1.024,0,1.414s-1.023,0.391-1.414,0l-2.121-2.121 c-0.391-0.391-0.39-1.024,0-1.414S10.881,9.467,11.272,9.858z"/><path fill="#199be2" d="M8.03,13.658l2.6,1.496c0.479,0.276,0.643,0.887,0.368,1.365c-0.275,0.478-0.886,0.644-1.365,0.368 l-2.6-1.496c-0.479-0.276-0.643-0.887-0.368-1.365C6.939,13.548,7.55,13.383,8.03,13.658z"/><path fill="#199be2" d="M16.522,10.999c-0.478,0.275-1.09,0.111-1.365-0.368l-1.496-2.6c-0.276-0.479-0.11-1.09,0.368-1.365 c0.478-0.275,1.09-0.111,1.365,0.368l1.496,2.6C17.166,10.113,17,10.724,16.522,10.999z"/><path fill="#199be2" d="M20.12,9.512c-0.533,0.143-1.082-0.173-1.225-0.707l-0.776-2.898 c-0.143-0.534,0.174-1.082,0.707-1.225s1.082,0.173,1.225,0.707l0.776,2.898C20.97,8.821,20.653,9.369,20.12,9.512z"/><path fill="#199be2" d="M36.729,38.139l-2.121-2.121c-0.391-0.391-0.39-1.024,0-1.414c0.39-0.39,1.023-0.391,1.414,0 l2.121,2.121c0.391,0.391,0.39,1.024,0,1.414C37.753,38.53,37.12,38.53,36.729,38.139z"/><path fill="#199be2" d="M39.972,34.339l-2.6-1.496c-0.479-0.276-0.643-0.887-0.368-1.365 c0.275-0.478,0.886-0.644,1.365-0.368l2.6,1.496c0.479,0.276,0.643,0.887,0.368,1.365C41.062,34.449,40.451,34.614,39.972,34.339z"/><path fill="#199be2" d="M31.48,36.998c0.478-0.275,1.09-0.111,1.365,0.368l1.496,2.6c0.276,0.479,0.11,1.09-0.368,1.365 c-0.478,0.275-1.09,0.111-1.365-0.368l-1.496-2.6C30.836,37.884,31.001,37.274,31.48,36.998z"/><path fill="#199be2" d="M27.882,38.485c0.533-0.143,1.082,0.173,1.225,0.707l0.776,2.898 c0.143,0.534-0.174,1.082-0.707,1.225c-0.533,0.143-1.082-0.173-1.225-0.707l-0.776-2.898 C27.032,39.176,27.349,38.628,27.882,38.485z"/><path fill="#199be2" d="M24.502,8.89c0.025,0.004,0.051,0.006,0.077,0.007c8.002,0.299,14.405,6.823,14.528,14.869	c0.02-0.009,0.036-0.02,0.056-0.029c1.508-0.672,3.156-0.79,4.797-0.634C43.495,12.646,35.024,4.27,24.516,4.006	C24.234,3.999,24,4.232,24,4.515c0,0,0,3.829,0,3.834C24,8.652,24.224,8.85,24.502,8.89z"/><path fill="#199be2" d="M40.994,26.848l-4.63-4.628c-0.305-0.305-0.089-0.827,0.343-0.827l9.943-0.002	c0.43,0,0.646,0.521,0.341,0.826l-4.628,4.63C41.985,27.225,41.372,27.226,40.994,26.848z"/><path fill="#199be2" d="M23.488,39.108c-0.026-0.002-0.051-0.004-0.077-0.005c-8.002-0.299-14.405-6.823-14.528-14.869	c-0.02,0.009-0.036,0.02-0.056,0.029c-1.508,0.672-3.156,0.79-4.797,0.634c0.465,10.456,8.936,18.832,19.444,19.096	c0.283,0.007,0.516-0.225,0.516-0.508v-3.834c-0.014-0.156-0.044-0.299-0.163-0.412C23.732,39.151,23.612,39.12,23.488,39.108z"/><path fill="#199be2" d="M6.996,21.153l4.63,4.628c0.305,0.305,0.089,0.827-0.343,0.827l-9.943,0.002	c-0.43,0-0.646-0.521-0.341-0.826l4.628-4.63C6.004,20.775,6.617,20.775,6.996,21.153z"/></svg>