<svg xmlns="http://www.w3.org/2000/svg" viewBox="0 0 48 48"><path fill="#50e6ff" d="M40,6H8C6.895,6,6,6.895,6,8v32c0,1.105,0.895,2,2,2h32c1.105,0,2-0.895,2-2V8 C42,6.895,41.105,6,40,6z"/><path fill="#057093" d="M35.5,14h-23c-0.276,0-0.5-0.224-0.5-0.5v-1c0-0.276,0.224-0.5,0.5-0.5h23 c0.276,0,0.5,0.224,0.5,0.5v1C36,13.776,35.776,14,35.5,14z"/><path fill="#057093" d="M33.5,20h-21c-0.276,0-0.5-0.224-0.5-0.5v-1c0-0.276,0.224-0.5,0.5-0.5h21 c0.276,0,0.5,0.224,0.5,0.5v1C34,19.776,33.776,20,33.5,20z"/><path fill="#057093" d="M35.5,26h-23c-0.276,0-0.5-0.224-0.5-0.5v-1c0-0.276,0.224-0.5,0.5-0.5h23 c0.276,0,0.5,0.224,0.5,0.5v1C36,25.776,35.776,26,35.5,26z"/><path fill="#057093" d="M32,32H12.5c-0.276,0-0.5-0.224-0.5-0.5v-1c0-0.276,0.224-0.5,0.5-0.5H30L32,32z"/><path d="M35.094,30.251L30.124,29c-0.679-0.171-1.295,0.445-1.124,1.124 l1.252,4.97L37.158,42H40c1.1,0,2-0.9,2-2v-2.843L35.094,30.251z" opacity=".05"/><path d="M34.838,30.702l-4.716-1.187c-0.367-0.092-0.699,0.24-0.607,0.607 l1.188,4.717L37.865,42H40c1.1,0,2-0.9,2-2v-2.136L34.838,30.702z" opacity=".07"/><path fill="#c94f60" d="M45.538,47.748l2.209-2.21c0.337-0.336,0.337-0.883,0-1.22l-1.041-1.04l-3.428,3.428l1.04,1.041"/><path fill="#f0f0f0" d="M34.582,31.153L30,30l1.154,4.582l3.975,0.481L34.582,31.153z"/><path fill="#edbe00" d="M40.355,43.783l-9.2-9.2l3.429-3.429l9.2,9.2L40.355,43.783z"/><linearGradient id="Dt_bqH3F6qvhdO8JNISYTa" x1="-87.472" x2="-87.472" y1="1303.491" y2="1297.179" gradientTransform="matrix(0 1 1 0 -1257 131)" gradientUnits="userSpaceOnUse"><stop offset="0" stop-color="#dedede"/><stop offset="1" stop-color="#d6d6d6"/></linearGradient><path fill="url(#Dt_bqH3F6qvhdO8JNISYTa)" d="M43.783,40.351l2.926,2.924l-3.428,3.431l-2.926-2.924L43.783,40.351z"/><path fill="#787878" d="M32.317,30.584L30,30l0.584,2.316L32.317,30.584z"/></svg>