<svg xmlns="http://www.w3.org/2000/svg" viewBox="0 0 48 48"><linearGradient id="Gz3W459TE9TZUw8nSN6mka" x1="17.484" x2="34.222" y1="62.953" y2="-31.974" gradientTransform="matrix(1 0 0 -1 0 50)" gradientUnits="userSpaceOnUse"><stop offset=".105" stop-color="#f9f9f9"/><stop offset=".277" stop-color="#e6e8e9"/><stop offset=".517" stop-color="#d2d6d9"/><stop offset=".758" stop-color="#c6cccf"/><stop offset="1" stop-color="#c2c8cc"/></linearGradient><path fill="url(#Gz3W459TE9TZUw8nSN6mka)" d="M42,37c0,2.762-2.238,5-5,5H11c-2.761,0-5-2.238-5-5V11c0-2.762,2.239-5,5-5h26	c2.762,0,5,2.238,5,5v16l-1,1.436L42,29V37z"/><path fill="#bdbdbd" d="M36,38H12c-0.552,0-1-0.448-1-1l0,0c0-0.552,0.448-1,1-1h24c0.552,0,1,0.448,1,1l0,0	C37,37.552,36.552,38,36,38z"/><path d="M13.5,21c0-5.252,5.127-8,7.875-8c2.539,0,4.398,1.519,4.588,3.649	C25.653,15.095,23.331,14,21.375,14C18.976,14,13.5,16.404,13.5,21z M20.316,28.315l-1.214,0.683l1.371,0.245	c0.08,0.014,0.167,0.019,0.247,0.032c4.441-2.858,7.794-6.863,8.891-10.418C28.542,22.175,25.287,25.521,20.316,28.315z M25,32.5	c-3.398,0-6.298-0.668-8.62-1.987l-0.218-0.124l-0.229,0.101c-1.994,0.872-3.827,1.535-5.417,2.022L6,35l0.08-0.01	c0.04,0,0.08,0,0.12-0.01c0.08,0,0.16-0.01,0.24-0.02c0.03,0,0.06-0.01,0.1-0.01c2.23-0.3,5.95-1.88,9.57-3.45	c2.43,1.33,5.42,2,8.89,2c9.58,0,14.92-2.61,17-3.92V29l-0.5-0.286C39.539,29.961,34.389,32.5,25,32.5z M14.9,29.548l-0.486-0.427	C10.782,25.934,10.5,21.717,10.5,20.5c0-5.203,4.723-11,11.5-11c-7.37,0-12.5,5.32-12.5,11c0,1.27,0.28,5.53,3.78,8.93l0.782,0.675	c0.101-0.067,0.202-0.126,0.303-0.194L14.9,29.548z" opacity=".07"/><path d="M41,28.436L42,29v1.17C39.71,31.54,34.32,34,25,34	c-3.45,0-6.45-0.65-8.92-1.94c-3.66,1.56-7.31,2.67-9.54,2.89c-0.04,0-0.07,0.01-0.1,0.01c-0.08,0.01-0.16,0.02-0.24,0.02	c-0.04,0.01-0.08,0.01-0.12,0.01L6,35l7.88-4.25l-0.06-0.06l-1.32-1.34C9.26,25.88,9,21.73,9,20.5C9,14.59,14.34,9,22,9v1	c-6.482,0-11,5.534-11,10.5c0,1.164,0.27,5.197,3.744,8.245l1.447,1.085l0.436,0.248C18.873,31.354,21.689,32,25,32	C34.004,32,39.056,29.614,41,28.436z M22.121,28.948C27.048,25.481,30.5,20.424,30.5,16.5h-1c0,3.864-3.437,8.011-9.429,11.38	l-2.428,1.366c0,0,3.062,0.529,3.219,0.552c0.325-0.201,0.663-0.422,1.013-0.673C21.959,29.068,22.121,28.948,22.121,28.948z M26.5,17c0-2.607-2.155-4.5-5.125-4.5C18.452,12.5,13,15.419,13,21h1c0-4.268,5.15-6.5,7.375-6.5c1.811,0,4.125,1.051,4.125,2.5	H26.5z" opacity=".05"/><path fill="#fff" d="M42,20.943l-0.766,0.914C41.166,21.938,34.26,30,24,30c-1.581,0-2.978-0.311-4.195-0.83	C25.668,26.052,30.5,21.5,30.5,16.5C30.5,12,27.383,9,22,9c-7.072,0-12,6.061-12,11.5c0,2.639,1.027,6.314,4.084,8.997	C11.381,31.327,8.642,32.928,6,34c1.93-0.047,5.846-1.176,10.133-3.053C18.324,32.192,21.214,33,25,33	c9.964,0,15.262-2.858,17-4.015V20.943z M14,21c0-3.561,2.511-5.981,4.875-7c0.905-0.39,1.788-0.5,2.5-0.5	c2.39,0,4.125,1.472,4.125,3.5c0,2.533-3.694,6.661-8.476,10.367C15.036,25.529,14,23.052,14,21z"/><linearGradient id="Gz3W459TE9TZUw8nSN6mkb" x1="12.078" x2="39.245" y1="28.037" y2="27.525" gradientTransform="matrix(1 0 0 -1 0 50)" gradientUnits="userSpaceOnUse"><stop offset="0" stop-color="#c00"/><stop offset="1" stop-color="#f63e3e"/></linearGradient><path fill="url(#Gz3W459TE9TZUw8nSN6mkb)" d="M42,20c0,0-7.625,9-18.5,9	c-9,0-10.5-6-10.5-8c0-4.875,4.125-9,8.375-9c3.25,0,5.25,1.75,5.25,4.625C26.625,22,16.375,29.75,6,34c0,0,3.287-0.84,7.375-2.625	C20.102,28.439,29,22.845,29,16.625c0-4-2.5-6.625-7-6.625c-6.5,0-11,5.625-11,10.5C11,23.625,13,32,25,32s17-5,17-5V20z"/></svg>