<svg xmlns="http://www.w3.org/2000/svg" viewBox="0 0 48 48"><linearGradient id="jGVyRZNwxnEHO~mfr~wELa" x1="20.269" x2="27.731" y1="2.88" y2="45.201" gradientUnits="userSpaceOnUse"><stop offset="0" stop-color="#33bef0"/><stop offset="1" stop-color="#22a5e2"/></linearGradient><path fill="url(#jGVyRZNwxnEHO~mfr~wELa)" d="M34.369,4.081H13.631c-0.715,0-1.375,0.381-1.732,1L1.53,23.041 c-0.357,0.619-0.357,1.381,0,2L11.899,43c0.357,0.619,1.018,1,1.732,1h20.738c0.715,0,1.375-0.381,1.732-1L46.47,25.041 c0.357-0.619,0.357-1.381,0-2L36.101,5.081C35.744,4.463,35.083,4.081,34.369,4.081z"/><linearGradient id="jGVyRZNwxnEHO~mfr~wELb" x1="20.993" x2="27.007" y1="6.987" y2="41.094" gradientUnits="userSpaceOnUse"><stop offset="0" stop-color="#fafafb"/><stop offset=".293" stop-color="#f6f7f8"/><stop offset=".566" stop-color="#ebecee"/><stop offset=".832" stop-color="#d8dcdf"/><stop offset="1" stop-color="#c8cdd1"/></linearGradient><path fill="url(#jGVyRZNwxnEHO~mfr~wELb)" d="M33.214,8.081l9.214,15.959L33.214,40H14.786L5.572,24.041l9.214-15.959H33.214"/></svg>