<svg xmlns="http://www.w3.org/2000/svg" data-name="Слой 1" viewBox="0 0 48 48"><defs><linearGradient id="BU4hRlHsiAyffIqBHU5y3a" x1="28.489" x2="23.651" y1="30" y2="30" data-name="Безымянный градиент 92" gradientUnits="userSpaceOnUse"><stop offset="0" stop-color="#737b80"/><stop offset="1" stop-color="#575c61"/></linearGradient><linearGradient id="BU4hRlHsiAyffIqBHU5y3b" x1="5.467" x2="10.695" y1="31.5" y2="31.5" data-name="Безымянный градиент 116" gradientUnits="userSpaceOnUse"><stop offset="0" stop-color="#eba600"/><stop offset=".232" stop-color="#e4a000"/><stop offset=".569" stop-color="#d18f00"/><stop offset=".767" stop-color="#c28200"/></linearGradient><linearGradient id="BU4hRlHsiAyffIqBHU5y3c" x1="5.467" x2="10.695" y1="40.5" y2="40.5" data-name="Безымянный градиент 127" gradientUnits="userSpaceOnUse"><stop offset="0" stop-color="#eba600"/><stop offset=".236" stop-color="#e4a000"/><stop offset=".587" stop-color="#d08e00"/><stop offset=".773" stop-color="#c28200"/></linearGradient><linearGradient id="BU4hRlHsiAyffIqBHU5y3d" x1="13" x2="25" y1="36" y2="36" data-name="Безымянный градиент 90" gradientUnits="userSpaceOnUse"><stop offset="0" stop-color="#899198"/><stop offset="1" stop-color="#787e85"/></linearGradient><linearGradient id="BU4hRlHsiAyffIqBHU5y3f" x1="24.578" x2="39.351" y1="-1058.578" y2="-1073.351" data-name="Безымянный градиент 97" gradientTransform="matrix(1 0 0 -1 0 -1052)" gradientUnits="userSpaceOnUse"><stop offset="0" stop-color="#fed100"/><stop offset="1" stop-color="#e36001"/></linearGradient><radialGradient id="BU4hRlHsiAyffIqBHU5y3e" cx="33" cy="-1067" r="11.392" data-name="Безымянный градиент 98" gradientTransform="matrix(1 0 0 -1 0 -1052)" gradientUnits="userSpaceOnUse"><stop offset=".724" stop-color="#ffed54"/><stop offset=".779" stop-color="#ffe649"/><stop offset=".877" stop-color="#ffd22d"/><stop offset="1" stop-color="#ffb300"/></radialGradient></defs><path fill="url(#BU4hRlHsiAyffIqBHU5y3a)" d="M29,37H24a1,1,0,0,1,0-2h5a3.00328,3.00328,0,0,0,3-3V24a1,1,0,0,1,2,0v8A5.00588,5.00588,0,0,1,29,37Z"/><path fill="url(#BU4hRlHsiAyffIqBHU5y3b)" d="M5.5,30H10a0,0,0,0,1,0,0v3a0,0,0,0,1,0,0H5.5A1.5,1.5,0,0,1,4,31.5v0A1.5,1.5,0,0,1,5.5,30Z"/><path fill="url(#BU4hRlHsiAyffIqBHU5y3c)" d="M5.5,39H10a0,0,0,0,1,0,0v3a0,0,0,0,1,0,0H5.5A1.5,1.5,0,0,1,4,40.5v0A1.5,1.5,0,0,1,5.5,39Z"/><path fill="url(#BU4hRlHsiAyffIqBHU5y3d)" d="M13,29h5a7,7,0,0,1,7,7v0a7,7,0,0,1-7,7H13a0,0,0,0,1,0,0V29a0,0,0,0,1,0,0Z"/><path fill="#ccc" d="M10,27h2a2,2,0,0,1,2,2V43a2,2,0,0,1-2,2H10a1,1,0,0,1-1-1V28A1,1,0,0,1,10,27Z"/><path fill="url(#BU4hRlHsiAyffIqBHU5y3e)" d="M33,3l.77509.804a1.63694,1.63694,0,0,0,1.94782.30873l.98564-.52528.48872,1.00419a1.63605,1.63605,0,0,0,1.75746.89509L40.05436,5.292l.15437,1.10618a1.63674,1.63674,0,0,0,1.39472,1.39473l1.10619.15436-.19473,1.09964A1.63712,1.63712,0,0,0,43.41,10.80436l1.00418.48873-.52527.98564a1.63533,1.63533,0,0,0,.30873,1.94782L45,15l-.804.77509a1.63694,1.63694,0,0,0-.30873,1.94782l.52528.98564-1.00419.48872a1.63605,1.63605,0,0,0-.89509,1.75746l.19473,1.09963-1.10618.15437a1.63675,1.63675,0,0,0-1.39473,1.39472l-.15436,1.10619-1.09964-.19473a1.63712,1.63712,0,0,0-1.75745.89509l-.48873,1.00418-.98564-.52527a1.63531,1.63531,0,0,0-1.94781.30873L33,27l-.77509-.804a1.63694,1.63694,0,0,0-1.94782-.30873l-.98564.52528-.48872-1.00419a1.63605,1.63605,0,0,0-1.75746-.89509l-1.09963.19473-.15437-1.10618a1.63675,1.63675,0,0,0-1.39472-1.39473l-1.10619-.15436.19473-1.09964A1.63712,1.63712,0,0,0,22.59,19.19564l-1.00418-.48873.52527-.98564a1.63531,1.63531,0,0,0-.30873-1.94781L21,15l.804-.77509a1.63694,1.63694,0,0,0,.30873-1.94782l-.52528-.98564,1.00419-.48872a1.63605,1.63605,0,0,0,.89509-1.75746L23.292,7.94564l1.10618-.15437a1.63674,1.63674,0,0,0,1.39473-1.39472l.15436-1.10619,1.09964.19473A1.63712,1.63712,0,0,0,28.80436,4.59l.48873-1.00418.98564.52527a1.63533,1.63533,0,0,0,1.94782-.30873Z"/><path fill="url(#BU4hRlHsiAyffIqBHU5y3f)" d="M33,6a9,9,0,1,0,9,9A8.99989,8.99989,0,0,0,33,6Z"/><rect width="1" height="14" x="14" y="29" opacity=".05"/><rect width=".5" height="14" x="14" y="29" opacity=".07"/></svg>