<svg xmlns="http://www.w3.org/2000/svg" viewBox="0 0 48 48"><path fill="#ed6c47" d="M43.125,9H4.875C3.287,9,2,10.287,2,11.875v24.25C2,37.713,3.287,39,4.875,39h38.25	C44.713,39,46,37.713,46,36.125v-24.25C46,10.287,44.713,9,43.125,9z"/><path d="M22.098,15.998h-1.979c-0.827,0-1.5,0.673-1.5,1.5v5.679l-4.087-6.271	c-0.371-0.568-0.997-0.908-1.676-0.908H10.5c-0.827,0-1.5,0.673-1.5,1.5v13.004c0,0.827,0.673,1.5,1.5,1.5h1.979	c0.827,0,1.5-0.673,1.5-1.5v-5.964l4.304,6.562c0.371,0.565,0.996,0.902,1.672,0.902h2.144c0.827,0,1.5-0.673,1.5-1.5V17.498	C23.598,16.671,22.925,15.998,22.098,15.998z" opacity=".05"/><path d="M39.614,29.999l-4.626-13.006c-0.213-0.595-0.78-0.995-1.412-0.995h-3.038	c-0.627,0-1.192,0.396-1.409,0.987L24.395,29.99c-0.166,0.46-0.098,0.973,0.183,1.373s0.739,0.639,1.228,0.639h2.338	c0.657,0,1.232-0.421,1.43-1.047l0.655-2.068h3.518l0.663,2.073c0.2,0.623,0.774,1.042,1.429,1.042H38.2	c0.486,0,0.944-0.237,1.225-0.634C39.706,30.971,39.777,30.46,39.614,29.999z M31.963,23.148l0.421,1.316H31.54L31.963,23.148z" opacity=".05"/><path d="M22.098,16.498h-1.979c-0.552,0-1,0.448-1,1v7.244c0,0.04,0,0.079,0,0.117l-5.006-7.681	c-0.278-0.426-0.748-0.681-1.257-0.681H10.5c-0.552,0-1,0.448-1,1v13.004c0,0.552,0.448,1,1,1h1.979c0.552,0,1-0.448,1-1v-7.195	c0-0.153-0.001-0.302-0.002-0.444l5.224,7.963c0.278,0.424,0.747,0.677,1.254,0.677h2.144c0.552,0,1-0.448,1-1V17.498	C23.098,16.946,22.649,16.498,22.098,16.498z" opacity=".07"/><path d="M39.143,30.166l-4.625-13.005c-0.142-0.396-0.521-0.663-0.941-0.663h-3.038	c-0.418,0-0.795,0.264-0.939,0.658l-4.733,13.005c-0.111,0.306-0.066,0.648,0.121,0.915c0.187,0.267,0.493,0.426,0.818,0.426h2.338	c0.438,0,0.821-0.28,0.953-0.697l0.766-2.418h4.249l0.773,2.42c0.134,0.416,0.517,0.695,0.953,0.695H38.2	c0.324,0,0.63-0.158,0.816-0.423C39.204,30.814,39.252,30.474,39.143,30.166z M33.068,24.965h-2.214l1.109-3.456L33.068,24.965z" opacity=".07"/><path fill="#fff" d="M22.098,31.002h-2.144c-0.337,0-0.651-0.17-0.836-0.452l-5.475-8.347	c-0.339-0.515-0.573-0.901-0.703-1.162H12.9c0.052,0.495,0.078,1.25,0.078,2.266v7.195c0,0.276-0.224,0.5-0.5,0.5H10.5	c-0.276,0-0.5-0.224-0.5-0.5V17.498c0-0.276,0.224-0.5,0.5-0.5h2.357c0.338,0,0.653,0.171,0.838,0.454l5.261,8.071	c0.254,0.384,0.488,0.765,0.703,1.143h0.039c-0.052-0.325-0.078-0.967-0.078-1.924v-7.244c0-0.276,0.224-0.5,0.5-0.5h1.979	c0.276,0,0.5,0.224,0.5,0.5v13.004C22.598,30.778,22.374,31.002,22.098,31.002z"/><path fill="#fff" d="M38.201,31.002h-2.364c-0.217,0-0.41-0.141-0.476-0.348l-0.885-2.768h-4.98l-0.876,2.766	c-0.066,0.208-0.259,0.349-0.477,0.349h-2.338c-0.347,0-0.589-0.345-0.47-0.671l4.734-13.004c0.072-0.198,0.26-0.329,0.47-0.329	h3.037c0.212,0,0.4,0.133,0.471,0.332l4.625,13.004C38.788,30.66,38.546,31.002,38.201,31.002z M33.753,25.465l-1.504-4.707	c-0.11-0.352-0.188-0.771-0.234-1.26h-0.078c-0.032,0.41-0.114,0.817-0.244,1.221l-1.523,4.746H33.753z"/></svg>