<svg xmlns="http://www.w3.org/2000/svg" viewBox="0 0 48 48"><linearGradient id="8gatER_8kAQiPwT_TiKaca" x1="6.414" x2="41.774" y1="-169.552" y2="-195.378" gradientTransform="matrix(1 0 0 -1 0 -155.89)" gradientUnits="userSpaceOnUse"><stop offset="0" stop-color="#28afea"/><stop offset="1" stop-color="#047ed6"/></linearGradient><path fill="url(#8gatER_8kAQiPwT_TiKaca)" d="M6,40V12h36v28c0,1.1-0.9,2-2,2H8C6.9,42,6,41.1,6,40z"/><path d="M29.306,27.643c-0.262-0.272-0.556-0.512-0.88-0.717 c1.091-0.892,1.662-2.194,1.662-3.817c0-1.489-0.586-2.718-1.74-3.651c-1.093-0.883-2.593-1.33-4.459-1.33 c-1.65,0-3.127,0.322-4.386,0.958c-0.34,0.171-0.551,0.513-0.551,0.893v2.885c0,0.371,0.204,0.71,0.534,0.886 c0.331,0.173,0.726,0.148,1.03-0.061c0.839-0.574,1.702-0.865,2.566-0.865c1.404,0,1.404,0.509,1.404,0.957 c0,0.351,0,1.079-2.131,1.079h-1.375c-0.552,0-1,0.448-1,1v2.706c0,0.552,0.448,1,1,1h1.487c0.894,0,1.578,0.145,2.037,0.432 c0.329,0.204,0.463,0.438,0.463,0.806c0,0.378-0.112,0.634-0.364,0.828c-0.322,0.248-0.826,0.374-1.499,0.374 c-1.209,0-2.274-0.33-3.169-0.983c-0.306-0.223-0.708-0.252-1.04-0.082c-0.338,0.171-0.548,0.513-0.548,0.892v3.075 c0,0.375,0.207,0.716,0.541,0.889c1.176,0.607,2.688,0.916,4.496,0.916c2.153,0,3.891-0.513,5.162-1.525 c1.342-1.068,2.021-2.528,2.021-4.339C30.569,29.591,30.145,28.514,29.306,27.643z" opacity=".05"/><path d="M28.945,27.989c-0.414-0.431-0.914-0.767-1.496-1.006 c1.405-0.776,2.139-2.093,2.139-3.875c0-1.331-0.523-2.429-1.555-3.263c-1.001-0.809-2.396-1.219-4.145-1.219 c-1.571,0-2.971,0.304-4.161,0.904c-0.169,0.085-0.275,0.258-0.275,0.446v2.885c0,0.186,0.103,0.355,0.267,0.442 c0.164,0.086,0.362,0.076,0.516-0.029c0.924-0.633,1.883-0.953,2.849-0.953c1.678,0,1.904,0.736,1.904,1.457 c0,0.432,0,1.579-2.631,1.579h-1.375c-0.276,0-0.5,0.224-0.5,0.5v2.706c0,0.276,0.224,0.5,0.5,0.5h1.487 c0.987,0,1.762,0.17,2.301,0.507c0.478,0.296,0.699,0.688,0.699,1.23c0,0.534-0.184,0.935-0.56,1.225 c-0.412,0.317-1.019,0.478-1.804,0.478c-1.316,0-2.481-0.362-3.462-1.078c-0.152-0.11-0.354-0.127-0.521-0.041 c-0.168,0.085-0.273,0.257-0.273,0.445v3.075c0,0.187,0.104,0.358,0.271,0.444c1.104,0.57,2.539,0.86,4.267,0.86 c2.038,0,3.67-0.477,4.851-1.416c1.216-0.969,1.833-2.297,1.833-3.948C30.069,29.725,29.691,28.764,28.945,27.989z" opacity=".05"/><linearGradient id="8gatER_8kAQiPwT_TiKacb" x1="6.42" x2="41.198" y1="-162.498" y2="-169.57" gradientTransform="matrix(1 0 0 -1 0 -155.89)" gradientUnits="userSpaceOnUse"><stop offset="0" stop-color="#0077d2"/><stop offset="1" stop-color="#0b59a2"/></linearGradient><path fill="url(#8gatER_8kAQiPwT_TiKacb)" d="M42,8v6H6V8c0-1.1,0.9-2,2-2h32C41.1,6,42,6.9,42,8z"/><path d="M35.5,12.5L35.5,12.5c-1.657,0-3-1.343-3-3V6h6v3.5 C38.5,11.157,37.157,12.5,35.5,12.5z" opacity=".05"/><path d="M35.5,11.75L35.5,11.75c-1.243,0-2.25-1.007-2.25-2.25V6h4.5v3.5 C37.75,10.743,36.743,11.75,35.5,11.75z" opacity=".07"/><path d="M12.5,12.5L12.5,12.5c-1.657,0-3-1.343-3-3V6h6v3.5 C15.5,11.157,14.157,12.5,12.5,12.5z" opacity=".05"/><path d="M12.5,11.75L12.5,11.75c-1.243,0-2.25-1.007-2.25-2.25V6h4.5v3.5 C14.75,10.743,13.743,11.75,12.5,11.75z" opacity=".07"/><path fill="#3ccbf4" d="M12.5,11L12.5,11c-0.828,0-1.5-0.672-1.5-1.5v-4C11,4.672,11.672,4,12.5,4l0,0 C13.328,4,14,4.672,14,5.5v4C14,10.328,13.328,11,12.5,11z"/><path fill="#3ccbf4" d="M35.5,11L35.5,11c-0.828,0-1.5-0.672-1.5-1.5v-4C34,4.672,34.672,4,35.5,4l0,0 C36.328,4,37,4.672,37,5.5v4C37,10.328,36.328,11,35.5,11z"/><path fill="#fff" d="M19.349,34.905V31.83c1.073,0.782,2.326,1.174,3.757,1.174c0.902,0,1.604-0.193,2.108-0.581 c0.503-0.388,0.755-0.929,0.755-1.621c0-0.716-0.312-1.268-0.935-1.655c-0.622-0.388-1.478-0.582-2.565-0.582h-1.487v-2.706h1.375 c2.087,0,3.131-0.692,3.131-2.079c0-1.305-0.801-1.957-2.404-1.957c-1.073,0-2.117,0.347-3.131,1.04v-2.885 c1.126-0.567,2.438-0.851,3.937-0.851c1.64,0,2.916,0.369,3.83,1.107c0.913,0.738,1.369,1.696,1.369,2.874 c0,2.095-1.063,3.406-3.187,3.936v0.056c1.133,0.143,2.027,0.554,2.684,1.236c0.656,0.682,0.984,1.519,0.984,2.51 c0,1.499-0.548,2.684-1.645,3.557c-1.096,0.872-2.608,1.308-4.539,1.308C21.73,35.71,20.385,35.441,19.349,34.905z"/></svg>