<svg xmlns="http://www.w3.org/2000/svg" id="Layer_1" x="0" y="0" version="1.1" viewBox="0 0 48 48" xml:space="preserve"><linearGradient id="SVGID_1_" x1="13.48" x2="31.634" y1="-301.593" y2="-327.853" gradientTransform="matrix(1 0 0 -1 0 -290)" gradientUnits="userSpaceOnUse"><stop offset="0" stop-color="#7dd8f3"/><stop offset="1" stop-color="#45b0d0"/></linearGradient><path fill="url(#SVGID_1_)" d="M4,38V15h40v23c0,1.1-0.9,2-2,2H6C4.9,40,4,39.1,4,38z"/><linearGradient id="SVGID_2_" x1="4.614" x2="42.936" y1="-297.741" y2="-305.533" gradientTransform="matrix(1 0 0 -1 0 -290)" gradientUnits="userSpaceOnUse"><stop offset="0" stop-color="#0077d2"/><stop offset="1" stop-color="#0b59a2"/></linearGradient><path fill="url(#SVGID_2_)" d="M44,10v5H4v-5c0-1.1,0.9-2,2-2h36C43.1,8,44,8.9,44,10z"/><linearGradient id="SVGID_3_" x1="16" x2="42" y1="-301.5" y2="-301.5" gradientTransform="matrix(1 0 0 -1 0 -290)" gradientUnits="userSpaceOnUse"><stop offset="0" stop-color="#7dd8f3"/><stop offset="1" stop-color="#45b0d0"/></linearGradient><path fill="url(#SVGID_3_)" d="M16.5,13h25c0.3,0,0.5-0.2,0.5-0.5v-2c0-0.3-0.2-0.5-0.5-0.5h-25c-0.3,0-0.5,0.2-0.5,0.5v2	C16,12.8,16.2,13,16.5,13z"/><linearGradient id="SVGID_4_" x1="6.751" x2="8.032" y1="-300.416" y2="-302.269" gradientTransform="matrix(1 0 0 -1 0 -290)" gradientUnits="userSpaceOnUse"><stop offset="0" stop-color="#75daff"/><stop offset="1" stop-color="#49bef1"/></linearGradient><circle cx="7.5" cy="11.5" r="1.5" fill="url(#SVGID_4_)"/><linearGradient id="SVGID_5_" x1="11.751" x2="13.032" y1="-300.416" y2="-302.269" gradientTransform="matrix(1 0 0 -1 0 -290)" gradientUnits="userSpaceOnUse"><stop offset="0" stop-color="#75daff"/><stop offset="1" stop-color="#49bef1"/></linearGradient><circle cx="12.5" cy="11.5" r="1.5" fill="url(#SVGID_5_)"/><path fill="#184f85" d="M12.2,18.8V26h-1.5v-5.4c-0.1,0.1-0.2,0.1-0.3,0.2c-0.1,0.1-0.2,0.1-0.4,0.2c-0.1,0.1-0.3,0.1-0.4,0.1 c-0.1,0-0.3,0.1-0.4,0.1v-1.3c0.4-0.1,0.8-0.3,1.1-0.4s0.7-0.4,1-0.6H12.2z"/><path fill="#184f85" d="M17.1,26.1c-1.7,0-2.5-1.2-2.5-3.5c0-1.2,0.2-2.1,0.7-2.8c0.5-0.6,1.1-1,2-1c1.6,0,2.4,1.2,2.4,3.6 c0,1.2-0.2,2.1-0.7,2.7C18.6,25.8,18,26.1,17.1,26.1z M17.2,20.1c-0.7,0-1,0.8-1,2.5c0,1.6,0.3,2.4,1,2.4c0.6,0,1-0.8,1-2.4 S17.8,20.1,17.2,20.1z"/><path fill="#184f85" d="M24,26.1c-1.7,0-2.5-1.2-2.5-3.5c0-1.2,0.2-2.1,0.7-2.8c0.5-0.6,1.1-1,2-1c1.6,0,2.4,1.2,2.4,3.6 c0,1.2-0.2,2.1-0.7,2.7C25.4,25.8,24.8,26.1,24,26.1z M24,20.1c-0.7,0-1,0.8-1,2.5c0,1.6,0.3,2.4,1,2.4c0.6,0,1-0.8,1-2.4 S24.7,20.1,24,20.1z"/><path fill="#184f85" d="M31.2,18.8V26h-1.5v-5.4c-0.1,0.1-0.2,0.1-0.3,0.2c-0.1,0.1-0.2,0.1-0.4,0.2c-0.1,0.1-0.3,0.1-0.4,0.1 c-0.1,0-0.3,0.1-0.4,0.1v-1.3c0.4-0.1,0.8-0.3,1.1-0.4s0.7-0.4,1-0.6H31.2z"/><path fill="#184f85" d="M37.4,18.8V26h-1.5v-5.4c-0.1,0.1-0.2,0.1-0.3,0.2c-0.1,0.1-0.2,0.1-0.4,0.2c-0.1,0.1-0.3,0.1-0.4,0.1 c-0.1,0-0.3,0.1-0.4,0.1v-1.3c0.4-0.1,0.8-0.3,1.1-0.4s0.7-0.4,1-0.6H37.4z"/><g><path fill="#184f85" d="M11.2,36.1c-1.7,0-2.5-1.2-2.5-3.5c0-1.2,0.2-2.1,0.7-2.8c0.5-0.6,1.1-1,2-1c1.6,0,2.4,1.2,2.4,3.6 c0,1.2-0.2,2.1-0.7,2.7C12.7,35.8,12,36.1,11.2,36.1z M11.3,30.1c-0.7,0-1,0.8-1,2.5c0,1.6,0.3,2.4,1,2.4c0.6,0,1-0.8,1-2.4 S11.9,30.1,11.3,30.1z"/><path fill="#184f85" d="M18.7,28.8V36h-1.5v-5.4c-0.1,0.1-0.2,0.1-0.3,0.2c-0.1,0.1-0.2,0.1-0.4,0.2c-0.1,0.1-0.3,0.1-0.4,0.1 c-0.1,0-0.3,0.1-0.4,0.1v-1.3c0.4-0.1,0.8-0.3,1.1-0.4s0.7-0.4,1-0.6H18.7z"/><path fill="#184f85" d="M23.6,36.1c-1.7,0-2.5-1.2-2.5-3.5c0-1.2,0.2-2.1,0.7-2.8c0.5-0.6,1.1-1,2-1c1.6,0,2.4,1.2,2.4,3.6 c0,1.2-0.2,2.1-0.7,2.7C25,35.8,24.4,36.1,23.6,36.1z M23.6,30.1c-0.7,0-1,0.8-1,2.5c0,1.6,0.3,2.4,1,2.4c0.6,0,1-0.8,1-2.4 S24.3,30.1,23.6,30.1z"/><path fill="#184f85" d="M30,36.1c-1.7,0-2.5-1.2-2.5-3.5c0-1.2,0.2-2.1,0.7-2.8c0.5-0.6,1.1-1,2-1c1.6,0,2.4,1.2,2.4,3.6 c0,1.2-0.2,2.1-0.7,2.7C31.4,35.8,30.8,36.1,30,36.1z M30,30.1c-0.7,0-1,0.8-1,2.5c0,1.6,0.3,2.4,1,2.4c0.6,0,1-0.8,1-2.4 S30.7,30.1,30,30.1z"/><path fill="#184f85" d="M37.4,28.8V36h-1.5v-5.4c-0.1,0.1-0.2,0.1-0.3,0.2c-0.1,0.1-0.2,0.1-0.4,0.2c-0.1,0.1-0.3,0.1-0.4,0.1 c-0.1,0-0.3,0.1-0.4,0.1v-1.3c0.4-0.1,0.8-0.3,1.1-0.4s0.7-0.4,1-0.6H37.4z"/></g></svg>