<svg xmlns="http://www.w3.org/2000/svg" viewBox="0 0 48 48"><linearGradient id="r243YaEXkSn9wlZCC93Mca" x1="17.93" x2="34.352" y1="10.439" y2="46.838" gradientUnits="userSpaceOnUse"><stop offset="0" stop-color="#70c7ff"/><stop offset="1" stop-color="#4ab0ff"/></linearGradient><path fill="url(#r243YaEXkSn9wlZCC93Mca)" d="M32,37v3H20v-9h9v-3h6v9 M20,31h-3v6l-3,0.001v-6h-3v-12h3v-6L17,13v-2.999h3v-3h9V10h3v3 l3,0.001v6h3V25h-6v3H20"/><linearGradient id="r243YaEXkSn9wlZCC93Mcb" x1="15.964" x2="31.335" y1="4.034" y2="41.787" gradientUnits="userSpaceOnUse"><stop offset="0" stop-color="#2aa4f4"/><stop offset="1" stop-color="#007ad9"/></linearGradient><path fill="url(#r243YaEXkSn9wlZCC93Mcb)" d="M21,4.001h7c0.552,0,1,0.448,1,1v2h-9v-2C20,4.449,20.448,4.001,21,4.001z M18,7.001h2v3h-3 v-2C17,7.449,17.448,7.001,18,7.001z M15,10.001h2v3h-3v-2C14,10.449,14.448,10.001,15,10.001z M12,13.001h2v6h-3v-5 C11,13.449,11.448,13.001,12,13.001z M9,19h2v12H9c-0.552,0-1-0.448-1-1V20C8,19.448,8.448,19,9,19z M11,31.001h3V37h-2 c-0.552,0-1-0.448-1-1V31.001z M14,37h3v3h-2c-0.552,0-1-0.448-1-1V37z M17,40h15v2c0,0.552-0.448,1-1,1H18c-0.552,0-1-0.448-1-1 V40z M32,37h3v2c0,0.552-0.448,1-1,1h-2V37z M35,31h3v5c0,0.552-0.448,1-1,1h-2V31z M38,19h2c0.552,0,1,0.448,1,1v10 c0,0.552-0.448,1-1,1h-2V19z M35,13h2c0.552,0,1,0.448,1,1v5h-3V13z M32,10h2c0.552,0,1,0.448,1,1v2h-3V10z M29,7.001h2 c0.552,0,1,0.448,1,1v2h-3V7.001z"/><linearGradient id="r243YaEXkSn9wlZCC93Mcc" x1="19.959" x2="31.42" y1="19.201" y2="37.134" gradientUnits="userSpaceOnUse"><stop offset="0" stop-color="#2aa4f4"/><stop offset="1" stop-color="#138ae8"/></linearGradient><path fill="url(#r243YaEXkSn9wlZCC93Mcc)" d="M32,25h6v3h-6V25z M29,31h3v6h-3V31z M17,31h3v6h-3V31z"/><linearGradient id="r243YaEXkSn9wlZCC93Mcd" x1="18.055" x2="36.032" y1="11.883" y2="37.757" gradientUnits="userSpaceOnUse"><stop offset="0" stop-color="#c9eaff"/><stop offset=".125" stop-color="#c1e7ff"/><stop offset=".314" stop-color="#adddff"/><stop offset=".544" stop-color="#8aceff"/><stop offset=".803" stop-color="#5cb8ff"/><stop offset="1" stop-color="#33a6ff"/></linearGradient><path fill="url(#r243YaEXkSn9wlZCC93Mcd)" d="M23,16h6v3h-6V16z M29,10h3v3h-3V10z M17,13h3v3h-3V13z M17,22h3v3h-3V22z M14,25h3v3h-3V25 z"/><g><linearGradient id="r243YaEXkSn9wlZCC93Mce" x1="15.367" x2="30.03" y1="14.377" y2="38.091" gradientUnits="userSpaceOnUse"><stop offset="0" stop-color="#3fb2fc"/><stop offset="1" stop-color="#2599f5"/></linearGradient><path fill="url(#r243YaEXkSn9wlZCC93Mce)" d="M17,37h3v3h-3V37z M29,37h3v3h-3V37z M32,34h3v3h-3V34z M35,28h3v3h-3V28z M17,25h3v3h-3V25 z M29,19h3v9h-3V19z M20,28h9v3h-9V28z"/></g><g><path fill="#fff" d="M20,7h9v3h-9V7z M17,10.001h3V13h-3V10.001z M14,13h3v6h-3V13z M11,19h3v12h-3V19z M20,16h3v3h-3 V16z M17,19h3v3h-3V19z"/><path fill="#e0f2f1" d="M26,13h3v3h-3V13z"/></g></svg>