<svg xmlns="http://www.w3.org/2000/svg" id="Layer_1" x="0" y="0" version="1.1" viewBox="0 0 48 48" xml:space="preserve"><linearGradient id="SVGID_1_" x1="12.686" x2="35.58" y1="-22.592" y2="-59.841" gradientTransform="matrix(1 0 0 -1 0 -18)" gradientUnits="userSpaceOnUse"><stop offset="0" stop-color="#f44f5a"/><stop offset=".443" stop-color="#ee3d4a"/><stop offset="1" stop-color="#e52030"/></linearGradient><path fill="url(#SVGID_1_)" d="M42,8H6c-1.1,0-2,0.9-2,2v26c0,1.1,0.9,2,2,2h8v8c0,0.9,1.1,1.3,1.7,0.7l8.7-8.7H42c1.1,0,2-0.9,2-2V10	C44,8.9,43.1,8,42,8z"/><path d="M38.2,23.8c-0.2-0.4-0.4-0.8-0.8-1.2c-0.3-0.3-0.7-0.6-1.1-0.8c-0.4-0.2-0.8-0.4-1.3-0.6	c-0.3-0.1-0.5-0.2-0.8-0.3c-0.2-0.1-0.3-0.2-0.5-0.3c0,0,0,0,0,0c0,0,0.1,0,0.2,0c0.1,0,0.3-0.1,0.5-0.1c0.2,0,0.3,0,0.5,0	c0.2,0,0.3,0.1,0.5,0.1c0.2,0,0.3,0.1,0.5,0.2c0.1,0.1,0.3,0.1,0.4,0.2l1.6,1.1v-4.8L37.4,17c-0.4-0.2-0.9-0.3-1.4-0.4	c-0.5-0.1-1-0.1-1.6-0.1c-0.6,0-1.2,0.1-1.8,0.2c-0.6,0.1-1.2,0.4-1.6,0.7c-0.5,0.3-0.9,0.8-1.2,1.3c-0.2,0.3-0.3,0.6-0.4,1	c-0.3-0.5-0.6-1-1-1.5c-1.1-1.2-2.6-1.8-4.4-1.8c-1.9,0-3.4,0.6-4.6,1.9c-0.5,0.6-1,1.3-1.2,2v-3.1L17.6,17	c-0.4-0.2-0.9-0.3-1.4-0.4c-0.5-0.1-1-0.1-1.6-0.1c-0.6,0-1.2,0.1-1.8,0.2c-0.6,0.1-1.2,0.4-1.6,0.7c-0.5,0.3-0.9,0.8-1.2,1.3	c-0.3,0.5-0.5,1.2-0.5,1.9c0,0.9,0.3,1.7,0.8,2.4c0.5,0.6,1.3,1.1,2.2,1.5c0.3,0.1,0.6,0.3,0.9,0.4c0.2,0.1,0.4,0.2,0.6,0.3	c0.1,0,0.1,0.1,0.2,0.1c0,0-0.1,0-0.2,0.1c-0.1,0-0.3,0.1-0.5,0.1c-0.4,0-0.8-0.1-1.2-0.2c-0.4-0.1-0.7-0.3-1.1-0.6l-1.6-1.4v5.1	l0.5,0.3c0.5,0.2,1,0.4,1.6,0.5c0.6,0.1,1.2,0.2,1.8,0.2c0.6,0,1.2-0.1,1.8-0.2c0.6-0.1,1.2-0.4,1.7-0.7c0.5-0.3,0.9-0.8,1.2-1.3	c0.1-0.3,0.3-0.5,0.3-0.9c0.2,0.5,0.5,0.9,0.9,1.3c1.1,1.2,2.6,1.8,4.4,1.8c1.8,0,3.3-0.6,4.5-1.8c0.4-0.4,0.7-0.9,1-1.4v2.3	l0.5,0.3c0.5,0.2,1,0.4,1.6,0.5c0.6,0.1,1.2,0.2,1.8,0.2c0.6,0,1.2-0.1,1.8-0.2c0.6-0.1,1.2-0.4,1.7-0.7c0.5-0.3,0.9-0.8,1.2-1.3	c0.3-0.5,0.5-1.2,0.5-2C38.5,24.7,38.4,24.2,38.2,23.8z M17.7,22.6c-0.3-0.3-0.7-0.6-1.1-0.8c-0.4-0.2-0.8-0.4-1.3-0.6	c-0.3-0.1-0.5-0.2-0.8-0.3c-0.2-0.1-0.3-0.2-0.5-0.3c0,0,0,0,0,0c0,0,0.1,0,0.2,0c0.1,0,0.3-0.1,0.5-0.1c0.2,0,0.3,0,0.5,0	c0.2,0,0.3,0.1,0.5,0.1c0.2,0,0.3,0.1,0.5,0.2c0.1,0.1,0.3,0.1,0.4,0.2l1.2,0.8c0,0.3-0.1,0.6-0.1,1C17.8,22.7,17.7,22.7,17.7,22.6z M25.1,24.9c-0.3,0.3-0.7,0.5-1.2,0.5c-0.5,0-0.8-0.2-1.1-0.5c-0.3-0.4-0.5-1-0.5-1.8c0-0.8,0.2-1.4,0.5-1.9	c0.3-0.4,0.7-0.6,1.2-0.6c0.5,0,0.8,0.2,1.1,0.5c0.3,0.4,0.5,1.1,0.5,1.9C25.6,23.9,25.4,24.5,25.1,24.9z M33.8,25.5	c-0.1,0-0.3,0.1-0.6,0.1c-0.4,0-0.8-0.1-1.2-0.2c-0.4-0.1-0.7-0.3-1.1-0.6l-1-0.8c0-0.3,0.1-0.6,0.1-0.9c0,0,0,0.1,0.1,0.1	c0.5,0.6,1.3,1.1,2.2,1.5c0.3,0.1,0.6,0.3,0.9,0.4c0.2,0.1,0.4,0.2,0.6,0.3c0.1,0,0.1,0.1,0.2,0.1C33.9,25.5,33.8,25.5,33.8,25.5z" opacity=".05"/><path d="M13.5,28.9c-0.6,0-1.2-0.1-1.7-0.2c-0.6-0.1-1.1-0.3-1.5-0.5L10,28.2v-3.7l0.8,0.7c0.4,0.3,0.8,0.6,1.2,0.7	c0.4,0.2,0.9,0.2,1.3,0.2c0.3,0,0.5,0,0.7-0.1c0.2,0,0.3-0.1,0.4-0.2c0.1-0.1,0.1-0.1,0.2-0.2c0-0.1,0-0.1,0-0.2	c0-0.1,0-0.2-0.1-0.3c-0.1-0.1-0.2-0.2-0.4-0.3c-0.2-0.1-0.4-0.2-0.6-0.4c-0.3-0.1-0.6-0.3-0.9-0.4c-0.9-0.4-1.6-0.8-2-1.4	c-0.5-0.6-0.7-1.3-0.7-2.1c0-0.6,0.1-1.2,0.4-1.7c0.3-0.5,0.6-0.8,1.1-1.1c0.4-0.3,0.9-0.5,1.5-0.6c0.5-0.1,1.1-0.2,1.7-0.2	c0.6,0,1.1,0,1.5,0.1c0.5,0.1,0.9,0.2,1.3,0.3l0.3,0.1v3.5L17,20.6c-0.2-0.1-0.3-0.2-0.5-0.3c-0.2-0.1-0.4-0.2-0.6-0.2	C15.7,20,15.5,20,15.3,20c-0.2,0-0.4,0-0.6,0c-0.2,0-0.4,0-0.6,0.1c-0.2,0-0.3,0.1-0.4,0.2c-0.1,0.1-0.2,0.1-0.2,0.2	c0,0,0,0.1,0,0.2c0,0.1,0,0.1,0.1,0.2c0.1,0.1,0.2,0.2,0.3,0.3c0.1,0.1,0.3,0.2,0.5,0.3c0.2,0.1,0.5,0.2,0.8,0.4	c0.5,0.2,0.8,0.4,1.2,0.6c0.4,0.2,0.7,0.5,1,0.8c0.3,0.3,0.5,0.6,0.7,1c0.1,0.4,0.2,0.8,0.2,1.3c0,0.7-0.1,1.2-0.4,1.7	c-0.3,0.5-0.6,0.9-1.1,1.1c-0.4,0.3-0.9,0.5-1.5,0.6C14.7,28.9,14.1,28.9,13.5,28.9z" opacity=".07"/><path fill="#fff" d="M10.5,27.8v-2.3c0.4,0.4,0.9,0.6,1.4,0.8c0.5,0.2,1,0.3,1.5,0.3c0.3,0,0.6,0,0.8-0.1c0.2-0.1,0.4-0.1,0.6-0.2	c0.1-0.1,0.3-0.2,0.3-0.3c0.1-0.1,0.1-0.3,0.1-0.4c0-0.2-0.1-0.4-0.2-0.5c-0.1-0.2-0.3-0.3-0.5-0.4c-0.2-0.1-0.4-0.3-0.7-0.4	s-0.6-0.3-0.9-0.4c-0.8-0.3-1.4-0.8-1.8-1.3c-0.4-0.5-0.6-1.1-0.6-1.8c0-0.5,0.1-1,0.3-1.4c0.2-0.4,0.5-0.7,0.9-1	c0.4-0.3,0.8-0.4,1.3-0.6c0.5-0.1,1-0.2,1.6-0.2c0.5,0,1,0,1.5,0.1c0.4,0.1,0.8,0.2,1.2,0.3v2.2c-0.2-0.1-0.4-0.2-0.6-0.3	c-0.2-0.1-0.4-0.2-0.6-0.2c-0.2-0.1-0.4-0.1-0.7-0.1c-0.2,0-0.4,0-0.6,0c-0.3,0-0.5,0-0.7,0.1c-0.2,0.1-0.4,0.1-0.6,0.2	s-0.3,0.2-0.4,0.3C13,20.2,13,20.3,13,20.5c0,0.2,0,0.3,0.1,0.5c0.1,0.1,0.2,0.3,0.4,0.4c0.2,0.1,0.4,0.2,0.6,0.4	c0.2,0.1,0.5,0.2,0.8,0.4c0.4,0.2,0.8,0.4,1.1,0.6c0.3,0.2,0.6,0.4,0.9,0.7s0.4,0.5,0.5,0.9c0.1,0.3,0.2,0.7,0.2,1.1	c0,0.6-0.1,1.1-0.3,1.5c-0.2,0.4-0.5,0.7-0.9,1c-0.4,0.2-0.8,0.4-1.3,0.5c-0.5,0.1-1,0.2-1.6,0.2c-0.6,0-1.1,0-1.6-0.1	C11.4,28.2,10.9,28,10.5,27.8z"/><path d="M23.9,28.9c-1.6,0-3-0.5-4-1.6c-1-1.1-1.6-2.5-1.6-4.2c0-1.8,0.5-3.3,1.6-4.4c1.1-1.1,2.5-1.7,4.2-1.7	c1.6,0,3,0.5,4,1.6c1,1.1,1.5,2.5,1.5,4.2c0,1.8-0.5,3.2-1.6,4.3C26.9,28.4,25.6,28.9,23.9,28.9z M24,20.1c-0.7,0-1.2,0.2-1.6,0.7	c-0.4,0.5-0.6,1.3-0.6,2.2c0,0.9,0.2,1.6,0.6,2.2c0.4,0.5,0.9,0.7,1.5,0.7c0.7,0,1.2-0.2,1.6-0.7c0.4-0.5,0.6-1.2,0.6-2.1	c0-1-0.2-1.7-0.6-2.2C25.1,20.3,24.6,20.1,24,20.1z" opacity=".07"/><path fill="#fff" d="M23.9,28.4c-1.5,0-2.7-0.5-3.7-1.5c-0.9-1-1.4-2.3-1.4-3.8c0-1.7,0.5-3,1.4-4s2.2-1.5,3.8-1.5	c1.5,0,2.7,0.5,3.6,1.5c0.9,1,1.4,2.3,1.4,3.9c0,1.7-0.5,3-1.4,4C26.7,27.9,25.4,28.4,23.9,28.4z M24,19.6c-0.8,0-1.5,0.3-2,0.9	c-0.5,0.6-0.7,1.4-0.7,2.5c0,1,0.2,1.9,0.7,2.5s1.1,0.9,1.9,0.9c0.8,0,1.5-0.3,1.9-0.9c0.5-0.6,0.7-1.4,0.7-2.5	c0-1.1-0.2-1.9-0.7-2.5S24.8,19.6,24,19.6z"/><path d="M33.3,28.9c-0.6,0-1.2-0.1-1.7-0.2c-0.6-0.1-1.1-0.3-1.5-0.5l-0.3-0.1v-3.7l0.8,0.7c0.4,0.3,0.8,0.6,1.2,0.7	c0.4,0.2,0.9,0.2,1.3,0.2c0.3,0,0.5,0,0.7-0.1c0.2,0,0.3-0.1,0.4-0.2c0.1-0.1,0.1-0.1,0.2-0.2c0-0.1,0-0.1,0-0.2	c0-0.1,0-0.2-0.1-0.3c-0.1-0.1-0.2-0.2-0.4-0.3c-0.2-0.1-0.4-0.2-0.6-0.4c-0.3-0.1-0.6-0.3-0.9-0.4c-0.9-0.4-1.6-0.8-2-1.4	c-0.5-0.6-0.7-1.3-0.7-2.1c0-0.6,0.1-1.2,0.4-1.7c0.3-0.5,0.6-0.8,1.1-1.1c0.4-0.3,0.9-0.5,1.5-0.6c0.5-0.1,1.1-0.2,1.7-0.2	c0.6,0,1.1,0,1.5,0.1c0.5,0.1,0.9,0.2,1.3,0.3l0.3,0.1v3.5l-0.8-0.6c-0.1-0.1-0.3-0.2-0.5-0.3c-0.2-0.1-0.4-0.2-0.6-0.2	C35.5,20,35.3,20,35.1,20c-0.2,0-0.4,0-0.6,0c-0.2,0-0.4,0-0.6,0.1c-0.2,0-0.3,0.1-0.4,0.2c-0.1,0.1-0.2,0.1-0.2,0.2	c0,0,0,0.1,0,0.2c0,0.1,0,0.1,0.1,0.2c0.1,0.1,0.2,0.2,0.3,0.3c0.1,0.1,0.3,0.2,0.5,0.3c0.2,0.1,0.5,0.2,0.8,0.4	c0.5,0.2,0.8,0.4,1.2,0.6c0.4,0.2,0.7,0.5,1,0.8c0.3,0.3,0.5,0.6,0.7,1c0.1,0.4,0.2,0.8,0.2,1.3c0,0.7-0.1,1.2-0.4,1.7	c-0.3,0.5-0.6,0.9-1.1,1.1c-0.4,0.3-0.9,0.5-1.5,0.6C34.5,28.9,33.9,28.9,33.3,28.9z" opacity=".07"/><path fill="#fff" d="M30.3,27.8v-2.3c0.4,0.4,0.9,0.6,1.4,0.8c0.5,0.2,1,0.3,1.5,0.3c0.3,0,0.6,0,0.8-0.1c0.2-0.1,0.4-0.1,0.6-0.2	c0.1-0.1,0.3-0.2,0.3-0.3c0.1-0.1,0.1-0.3,0.1-0.4c0-0.2-0.1-0.4-0.2-0.5c-0.1-0.2-0.3-0.3-0.5-0.4c-0.2-0.1-0.4-0.3-0.7-0.4	s-0.6-0.3-0.9-0.4c-0.8-0.3-1.4-0.8-1.8-1.3c-0.4-0.5-0.6-1.1-0.6-1.8c0-0.5,0.1-1,0.3-1.4c0.2-0.4,0.5-0.7,0.9-1	c0.4-0.3,0.8-0.4,1.3-0.6c0.5-0.1,1-0.2,1.6-0.2c0.5,0,1,0,1.5,0.1c0.4,0.1,0.8,0.2,1.2,0.3v2.2c-0.2-0.1-0.4-0.2-0.6-0.3	c-0.2-0.1-0.4-0.2-0.6-0.2c-0.2-0.1-0.4-0.1-0.7-0.1c-0.2,0-0.4,0-0.6,0c-0.3,0-0.5,0-0.7,0.1c-0.2,0.1-0.4,0.1-0.6,0.2	s-0.3,0.2-0.4,0.3c-0.1,0.1-0.1,0.3-0.1,0.4c0,0.2,0,0.3,0.1,0.5c0.1,0.1,0.2,0.3,0.4,0.4c0.2,0.1,0.4,0.2,0.6,0.4	c0.2,0.1,0.5,0.2,0.8,0.4c0.4,0.2,0.8,0.4,1.1,0.6c0.3,0.2,0.6,0.4,0.9,0.7s0.4,0.5,0.5,0.9c0.1,0.3,0.2,0.7,0.2,1.1	c0,0.6-0.1,1.1-0.3,1.5c-0.2,0.4-0.5,0.7-0.9,1c-0.4,0.2-0.8,0.4-1.3,0.5c-0.5,0.1-1,0.2-1.6,0.2c-0.6,0-1.1,0-1.6-0.1	C31.2,28.2,30.7,28,30.3,27.8z"/></svg>