<svg xmlns="http://www.w3.org/2000/svg" viewBox="0 0 48 48"><radialGradient id="6V8k7gji1pWJMvix459VGa" cx="23.709" cy="3074.26" r="13.71" gradientTransform="translate(0 -3053.67)" gradientUnits="userSpaceOnUse"><stop offset=".376" stop-color="#261103"/><stop offset=".68" stop-color="#431d06"/><stop offset="1" stop-color="#662c09"/></radialGradient><path fill="url(#6V8k7gji1pWJMvix459VGa)" d="M23.955,8.185c-10.296,0-12.85,16.625-12.85,16.625c0,2.96,1.375,5.553,4.253,6.24 c2.466,0.589,5.569,1.135,8.597,1.135s6.131-0.546,8.596-1.134c2.879-0.687,4.253-3.281,4.253-6.24 C36.805,24.81,34.251,8.185,23.955,8.185z"/><linearGradient id="6V8k7gji1pWJMvix459VGb" x1="20.721" x2="25.005" y1="3082.863" y2="3097.601" gradientTransform="translate(0 -3053.67)" gradientUnits="userSpaceOnUse"><stop offset="0" stop-color="#33bef0"/><stop offset="1" stop-color="#0a85d9"/></linearGradient><path fill="url(#6V8k7gji1pWJMvix459VGb)" d="M23.955,29.756 c-8.837,0-16,4.921-16,10.286v1.143c0,1.105,0.895,2,2,2h28c1.105,0,2-0.895,2-2v-1.143C39.955,34.677,32.792,29.756,23.955,29.756 z"/><path fill="#d6a121" d="M28.955,30.22c0,1.897-2,4-5,4s-5-2.103-5-4c0-2.637,0-7.035,0-7.035h10 C28.955,23.185,28.955,27.583,28.955,30.22z"/><radialGradient id="6V8k7gji1pWJMvix459VGc" cx="-2301.234" cy="3132.369" r="10.729" gradientTransform="matrix(-.9136 0 0 .9667 -2078.434 -3008.84)" gradientUnits="userSpaceOnUse"><stop offset="0" stop-color="#ffcf54"/><stop offset=".261" stop-color="#fdcb4d"/><stop offset=".639" stop-color="#f7c13a"/><stop offset="1" stop-color="#f0b421"/></radialGradient><path fill="url(#6V8k7gji1pWJMvix459VGc)" d="M23.955,7.256c3.948,0,8,0.693,8,9.722 c0,0.723,0,5.736,0,6.508c0,3.225-4.899,7.699-8,7.699s-8-4.474-8-7.698c0-0.772,0-5.785,0-6.508 C15.955,8.185,20.007,7.256,23.955,7.256z"/><radialGradient id="6V8k7gji1pWJMvix459VGd" cx="16.839" cy="3058.329" r="32.342" gradientTransform="translate(0 -3053.67)" gradientUnits="userSpaceOnUse"><stop offset="0" stop-color="#c26715"/><stop offset=".508" stop-color="#b85515"/><stop offset="1" stop-color="#ad3f16"/></radialGradient><path fill="url(#6V8k7gji1pWJMvix459VGd)" d="M23.955,4.185c-5.188,0-6,3-6,3 c-2.109,0.311-7,1-7,17.478c0,3.801,1.903,5.197,2.6,5.603c-2.6-14.364,6.976-12.045,5.4-21.081 c4.046,11.813,16.293,0.054,15.871,20.734c1.206-0.917,2.129-2.757,2.129-5.256C36.955,10.857,31.354,4.185,23.955,4.185z"/><linearGradient id="6V8k7gji1pWJMvix459VGe" x1="23.831" x2="24.765" y1="26.969" y2="43.638" gradientUnits="userSpaceOnUse"><stop offset="0" stop-color="#8795a1"/><stop offset="1" stop-color="#6d7882"/></linearGradient><path fill="url(#6V8k7gji1pWJMvix459VGe)" d="M8.19,27.185h31.531 c1.192,0,2.119,1.036,1.988,2.221l-1.556,14c-0.113,1.013-0.969,1.779-1.988,1.779H9.745c-1.019,0-1.875-0.766-1.988-1.779 l-1.556-14C6.07,28.222,6.998,27.185,8.19,27.185z"/><path fill="none" stroke="#1d1d1b" stroke-width="2" d="M30.145,30.434c-0.426-0.428-1.041-0.5-1.482-0.059 c-2.053,1.756-3.55,3-4.933,4.401l0,0c-0.843,0.854-1.305,1.331-2.14,2.772c-0.051-0.037-0.088-0.063-0.088-0.063 c-1.969-0.641-2.424,0.617-2.698,1.782c-0.19,0.809-0.583,2.032-1.216,2.705c-0.14,0.149,0.003,0.425,0.222,0.433 c3.185,0.118,5.525-0.911,5.419-3.086c1.485-0.877,1.958-1.348,2.816-2.217l0,0c1.383-1.402,2.514-3.018,4.161-5.176 C30.556,31.576,30.571,30.862,30.145,30.434z" opacity=".05"/><path fill="none" stroke="#000" d="M30.145,30.434c-0.426-0.428-1.041-0.5-1.482-0.059 c-2.053,1.756-3.55,3-4.933,4.401l0,0c-0.843,0.854-1.305,1.331-2.14,2.772c-0.051-0.037-0.088-0.063-0.088-0.063 c-1.969-0.641-2.424,0.617-2.698,1.782c-0.19,0.809-0.583,2.032-1.216,2.705c-0.14,0.149,0.003,0.425,0.222,0.433 c3.185,0.118,5.525-0.911,5.419-3.086c1.485-0.877,1.958-1.348,2.816-2.217l0,0c1.383-1.402,2.514-3.018,4.161-5.176 C30.556,31.576,30.571,30.862,30.145,30.434z" opacity=".07"/><g><linearGradient id="6V8k7gji1pWJMvix459VGf" x1="23.469" x2="23.608" y1="3614.567" y2="3616.953" gradientTransform="translate(.195 -3577.614)" gradientUnits="userSpaceOnUse"><stop offset="0" stop-color="#c3cdd9"/><stop offset="1" stop-color="#9fa7b0"/></linearGradient><path fill="url(#6V8k7gji1pWJMvix459VGf)" d="M26.045,37.101 c-0.922,0.934-1.383,1.402-3.151,2.415l-1.543-1.55c0.997-1.789,1.458-2.256,2.38-3.19L26.045,37.101z"/><linearGradient id="6V8k7gji1pWJMvix459VGg" x1="25.983" x2="26.082" y1="33.407" y2="35.089" gradientTransform="rotate(-45.001 26.225 31.642)" gradientUnits="userSpaceOnUse"><stop offset="0" stop-color="#f44f5a"/><stop offset=".443" stop-color="#ee3d4a"/><stop offset="1" stop-color="#e52030"/></linearGradient><path fill="url(#6V8k7gji1pWJMvix459VGg)" d="M30.145,30.434 c-0.426-0.428-1.041-0.5-1.481-0.059c-2.053,1.756-3.55,3-4.933,4.401l2.315,2.326c1.383-1.402,2.514-3.018,4.161-5.176 C30.556,31.576,30.571,30.862,30.145,30.434z"/><linearGradient id="6V8k7gji1pWJMvix459VGh" x1="17.167" x2="22.87" y1="3616.243" y2="3616.243" gradientTransform="translate(.366 -3576.38)" gradientUnits="userSpaceOnUse"><stop offset="0" stop-color="#fed100"/><stop offset="1" stop-color="#e36001"/></linearGradient><path fill="url(#6V8k7gji1pWJMvix459VGh)" d="M17.811,42.405 c-0.218-0.008-0.362-0.284-0.222-0.433c0.633-0.673,1.026-1.896,1.216-2.705c0.274-1.164,0.729-2.423,2.698-1.782 c0,0,1.256,0.866,1.726,1.776C23.382,41.477,21.024,42.525,17.811,42.405z"/></g></svg>