<svg xmlns="http://www.w3.org/2000/svg" viewBox="0 0 48 48"><linearGradient id="juOnq5JENOi_QYViuJ00Ya" x1="13.025" x2="17.132" y1="45.902" y2="22.613" gradientTransform="matrix(1 0 0 -1 0 50)" gradientUnits="userSpaceOnUse"><stop offset="0" stop-color="#ffcf54"/><stop offset=".261" stop-color="#fdcb4d"/><stop offset=".639" stop-color="#f7c13a"/><stop offset="1" stop-color="#f0b421"/></linearGradient><path fill="url(#juOnq5JENOi_QYViuJ00Ya)" d="M25,26H7V6c0-0.552,0.448-1,1-1h5c6.627,0,12,5.373,12,12V26z"/><linearGradient id="juOnq5JENOi_QYViuJ00Yb" x1="30.627" x2="34.19" y1="26.169" y2="5.96" gradientTransform="matrix(1 0 0 -1 0 50)" gradientUnits="userSpaceOnUse"><stop offset="0" stop-color="#3ebeb0"/><stop offset="1" stop-color="#37a595"/></linearGradient><path fill="url(#juOnq5JENOi_QYViuJ00Yb)" d="M24,43h16c0.552,0,1-0.448,1-1V26	c0-0.552-0.448-1-1-1H24V43z"/><linearGradient id="juOnq5JENOi_QYViuJ00Yc" x1="24.488" x2="28.206" y1="27.414" y2="6.326" gradientTransform="matrix(1 0 0 -1 0 50)" gradientUnits="userSpaceOnUse"><stop offset="0" stop-color="#39b0a3"/><stop offset="1" stop-color="#2b8275"/></linearGradient><rect width="5" height="18" x="24" y="25" fill="url(#juOnq5JENOi_QYViuJ00Yc)"/><linearGradient id="juOnq5JENOi_QYViuJ00Yd" x1="15.514" x2="19.136" y1="26.501" y2="5.966" gradientTransform="matrix(1 0 0 -1 0 50)" gradientUnits="userSpaceOnUse"><stop offset="0" stop-color="#6d6d6d"/><stop offset=".438" stop-color="#626262"/><stop offset=".998" stop-color="#454545"/></linearGradient><path fill="url(#juOnq5JENOi_QYViuJ00Yd)" d="M25,25H7v1c0,9.389,7.611,17,17,17h1V25z"/></svg>