<svg xmlns="http://www.w3.org/2000/svg" id="Layer_1" x="0" y="0" version="1.1" viewBox="0 0 48 48" xml:space="preserve"><linearGradient id="SVGID_1_" x1="13.069" x2="31.926" y1="108.001" y2="80.725" gradientTransform="matrix(1 0 0 -1 0 118)" gradientUnits="userSpaceOnUse"><stop offset="0" stop-color="#7dd8f3"/><stop offset="1" stop-color="#45b0d0"/></linearGradient><path fill="url(#SVGID_1_)" d="M4,38V13h40v25c0,1.1-0.9,2-2,2H6C4.9,40,4,39.1,4,38z"/><path d="M32.7,20.9v3.6H31v-3.6h-4.1v6.5c0-0.1,0-0.2-0.1-0.3c-0.2-0.4-0.4-0.8-0.7-1.1c-0.3-0.3-0.6-0.5-1-0.7	c-0.3-0.2-0.7-0.4-1.1-0.5c-0.2-0.1-0.5-0.2-0.7-0.3c-0.1,0-0.1-0.1-0.2-0.1c0.1,0,0.2,0,0.2,0c0.1,0,0.3,0,0.4,0	c0.1,0,0.3,0,0.4,0.1c0.1,0,0.3,0.1,0.4,0.1c0.1,0.1,0.2,0.1,0.3,0.2l1.6,1.1v-4.5L26,21.2c-0.4-0.1-0.8-0.3-1.2-0.3	c-0.4-0.1-0.9-0.1-1.4-0.1c-0.6,0-1.1,0.1-1.6,0.2c-0.5,0.1-1,0.3-1.5,0.6c-0.5,0.3-0.8,0.7-1.1,1.2c-0.1,0.2-0.1,0.3-0.2,0.5v-1.8	l-0.6-0.2c-0.4-0.1-0.8-0.3-1.2-0.3c-0.4-0.1-0.9-0.1-1.4-0.1c-0.6,0-1.1,0.1-1.6,0.2c-0.5,0.1-1,0.3-1.5,0.6	c-0.5,0.3-0.8,0.7-1.1,1.2c-0.3,0.5-0.4,1.1-0.4,1.7c0,0.8,0.3,1.6,0.7,2.2c0.5,0.6,1.1,1,2,1.4c0.3,0.1,0.5,0.2,0.7,0.3	c0.1,0.1,0.3,0.1,0.4,0.2c-0.1,0-0.2,0-0.3,0c-0.3,0-0.6-0.1-1-0.2c-0.3-0.1-0.6-0.3-0.9-0.5l-1.6-1.4v4.8l0.5,0.3	c0.4,0.2,0.9,0.4,1.4,0.5c0.5,0.1,1.1,0.1,1.6,0.1c0.6,0,1.1-0.1,1.6-0.2c0.6-0.1,1.1-0.3,1.5-0.6c0.4-0.2,0.7-0.6,0.9-1v0.8	l0.5,0.3c0.4,0.2,0.9,0.4,1.4,0.5c0.5,0.1,1.1,0.1,1.6,0.1c0.6,0,1.1-0.1,1.6-0.2c0.6-0.1,1.1-0.3,1.5-0.6c0.5-0.3,0.8-0.7,1.1-1.2	c0.1-0.2,0.2-0.4,0.3-0.7V32H31v-3.7h1.8V32h4.1V20.9H32.7z M22.4,28.6c-0.3,0-0.6-0.1-1-0.2c-0.3-0.1-0.6-0.3-0.9-0.5l-1.6-1.4	c-0.1-0.2-0.2-0.3-0.4-0.5c-0.3-0.3-0.6-0.5-1-0.7c-0.3-0.2-0.7-0.4-1.1-0.5c-0.2-0.1-0.5-0.2-0.7-0.3c-0.1,0-0.1-0.1-0.2-0.1	c0.1,0,0.2,0,0.2,0c0.1,0,0.3,0,0.4,0c0.1,0,0.3,0,0.4,0.1c0.1,0,0.3,0.1,0.4,0.1c0.1,0.1,0.2,0.1,0.3,0.2l1.6,1.1v-0.2	c0.1,0.3,0.3,0.6,0.5,0.9c0.5,0.6,1.1,1,2,1.4c0.3,0.1,0.5,0.2,0.7,0.3c0.1,0.1,0.3,0.1,0.4,0.2C22.6,28.6,22.5,28.6,22.4,28.6z" opacity=".05"/><linearGradient id="SVGID_2_" x1="4.808" x2="42.75" y1="111.22" y2="103.505" gradientTransform="matrix(1 0 0 -1 0 118)" gradientUnits="userSpaceOnUse"><stop offset="0" stop-color="#0077d2"/><stop offset="1" stop-color="#0b59a2"/></linearGradient><path fill="url(#SVGID_2_)" d="M44,10v3H4v-3c0-1.1,0.9-2,2-2h36C43.1,8,44,8.9,44,10z"/><path d="M14.8,31.7c-0.5,0-1,0-1.5-0.1c-0.5-0.1-0.9-0.2-1.3-0.4L11.7,31v-3.4l0.8,0.7c0.3,0.3,0.7,0.5,1,0.6	c0.4,0.1,0.8,0.2,1.1,0.2c0.2,0,0.4,0,0.6-0.1c0.1,0,0.2-0.1,0.3-0.1c0.1,0,0.1-0.1,0.1-0.1c0,0,0-0.1,0-0.1c0-0.1,0-0.1-0.1-0.2	c-0.1-0.1-0.2-0.2-0.3-0.3c-0.2-0.1-0.3-0.2-0.6-0.3c-0.2-0.1-0.5-0.2-0.8-0.3c-0.8-0.3-1.4-0.7-1.8-1.2c-0.4-0.5-0.6-1.1-0.6-1.9	c0-0.6,0.1-1,0.3-1.5c0.2-0.4,0.5-0.8,0.9-1c0.4-0.3,0.8-0.4,1.3-0.6c0.5-0.1,1-0.2,1.5-0.2c0.5,0,0.9,0,1.3,0.1	c0.4,0.1,0.8,0.2,1.1,0.3l0.3,0.1V25l-0.8-0.5c-0.1-0.1-0.3-0.2-0.4-0.2c-0.2-0.1-0.3-0.1-0.5-0.2c-0.2,0-0.3-0.1-0.5-0.1	c-0.2,0-0.3,0-0.5,0c-0.2,0-0.4,0-0.5,0.1c-0.1,0-0.2,0.1-0.3,0.1c-0.1,0-0.1,0.1-0.1,0.1c0,0,0,0.1,0,0.1c0,0.1,0,0.1,0,0.1	c0,0.1,0.1,0.1,0.2,0.2c0.1,0.1,0.3,0.2,0.5,0.3c0.2,0.1,0.4,0.2,0.7,0.3c0.4,0.2,0.7,0.3,1,0.5c0.3,0.2,0.6,0.4,0.9,0.7	c0.3,0.3,0.4,0.6,0.6,0.9c0.1,0.3,0.2,0.7,0.2,1.2c0,0.6-0.1,1.1-0.4,1.5c-0.2,0.4-0.6,0.8-0.9,1c-0.4,0.2-0.8,0.4-1.3,0.5	C15.9,31.7,15.4,31.7,14.8,31.7z" opacity=".07"/><path fill="#fff" d="M12.2,30.7v-2c0.4,0.3,0.8,0.5,1.2,0.7c0.4,0.2,0.9,0.2,1.3,0.2c0.3,0,0.5,0,0.7-0.1s0.4-0.1,0.5-0.2	c0.1-0.1,0.2-0.2,0.3-0.3c0.1-0.1,0.1-0.2,0.1-0.4c0-0.2-0.1-0.3-0.2-0.5s-0.2-0.3-0.4-0.4s-0.4-0.2-0.6-0.3s-0.5-0.2-0.8-0.3	c-0.7-0.3-1.2-0.7-1.6-1.1c-0.3-0.4-0.5-0.9-0.5-1.5c0-0.5,0.1-0.9,0.3-1.2c0.2-0.3,0.5-0.6,0.8-0.8s0.7-0.4,1.1-0.5	c0.4-0.1,0.9-0.2,1.4-0.2c0.5,0,0.9,0,1.3,0.1c0.4,0.1,0.7,0.1,1,0.3V24c-0.2-0.1-0.3-0.2-0.5-0.3s-0.4-0.1-0.6-0.2	c-0.2-0.1-0.4-0.1-0.6-0.1s-0.4,0-0.5,0c-0.2,0-0.4,0-0.6,0.1c-0.2,0-0.4,0.1-0.5,0.2c-0.1,0.1-0.2,0.2-0.3,0.3	c-0.1,0.1-0.1,0.2-0.1,0.4c0,0.2,0,0.3,0.1,0.4c0.1,0.1,0.2,0.2,0.3,0.3c0.1,0.1,0.3,0.2,0.5,0.3c0.2,0.1,0.5,0.2,0.7,0.3	c0.4,0.2,0.7,0.3,1,0.5c0.3,0.2,0.5,0.4,0.7,0.6c0.2,0.2,0.4,0.5,0.5,0.7c0.1,0.3,0.2,0.6,0.2,1c0,0.5-0.1,0.9-0.3,1.3	c-0.2,0.3-0.5,0.6-0.8,0.8c-0.3,0.2-0.7,0.4-1.2,0.5c-0.4,0.1-0.9,0.1-1.4,0.1c-0.5,0-1,0-1.4-0.1C13,31,12.6,30.9,12.2,30.7z"/><path d="M22.5,31.7c-0.5,0-1,0-1.5-0.1c-0.5-0.1-0.9-0.2-1.3-0.4L19.4,31v-3.4l0.8,0.7c0.3,0.3,0.7,0.5,1,0.6	c0.4,0.1,0.8,0.2,1.1,0.2c0.2,0,0.4,0,0.6-0.1c0.1,0,0.2-0.1,0.3-0.1c0.1,0,0.1-0.1,0.1-0.1c0,0,0-0.1,0-0.1c0-0.1,0-0.1-0.1-0.2	c-0.1-0.1-0.2-0.2-0.3-0.3c-0.2-0.1-0.3-0.2-0.6-0.3c-0.2-0.1-0.5-0.2-0.8-0.3c-0.8-0.3-1.4-0.7-1.8-1.2c-0.4-0.5-0.6-1.1-0.6-1.9	c0-0.6,0.1-1,0.3-1.5c0.2-0.4,0.5-0.8,0.9-1c0.4-0.3,0.8-0.4,1.3-0.6c0.5-0.1,1-0.2,1.5-0.2c0.5,0,0.9,0,1.3,0.1	c0.4,0.1,0.8,0.2,1.1,0.3l0.3,0.1V25l-0.8-0.5c-0.1-0.1-0.3-0.2-0.4-0.2c-0.2-0.1-0.3-0.1-0.5-0.2c-0.2,0-0.3-0.1-0.5-0.1	c-0.2,0-0.3,0-0.5,0c-0.2,0-0.4,0-0.5,0.1c-0.1,0-0.2,0.1-0.3,0.1c-0.1,0-0.1,0.1-0.1,0.1c0,0,0,0.1,0,0.1c0,0.1,0,0.1,0,0.1	c0,0.1,0.1,0.1,0.2,0.2c0.1,0.1,0.3,0.2,0.5,0.3c0.2,0.1,0.4,0.2,0.7,0.3c0.4,0.2,0.7,0.3,1,0.5c0.3,0.2,0.6,0.4,0.9,0.7	c0.3,0.3,0.4,0.6,0.6,0.9c0.1,0.3,0.2,0.7,0.2,1.2c0,0.6-0.1,1.1-0.4,1.5c-0.2,0.4-0.6,0.8-0.9,1c-0.4,0.2-0.8,0.4-1.3,0.5	C23.5,31.7,23,31.7,22.5,31.7z" opacity=".07"/><path fill="#fff" d="M19.9,30.7v-2c0.4,0.3,0.8,0.5,1.2,0.7c0.4,0.2,0.9,0.2,1.3,0.2c0.3,0,0.5,0,0.7-0.1s0.4-0.1,0.5-0.2	c0.1-0.1,0.2-0.2,0.3-0.3c0.1-0.1,0.1-0.2,0.1-0.4c0-0.2-0.1-0.3-0.2-0.5s-0.2-0.3-0.4-0.4s-0.4-0.2-0.6-0.3s-0.5-0.2-0.8-0.3	c-0.7-0.3-1.2-0.7-1.6-1.1c-0.3-0.4-0.5-0.9-0.5-1.5c0-0.5,0.1-0.9,0.3-1.2c0.2-0.3,0.5-0.6,0.8-0.8s0.7-0.4,1.1-0.5	c0.4-0.1,0.9-0.2,1.4-0.2c0.5,0,0.9,0,1.3,0.1c0.4,0.1,0.7,0.1,1,0.3V24c-0.2-0.1-0.3-0.2-0.5-0.3s-0.4-0.1-0.6-0.2	c-0.2-0.1-0.4-0.1-0.6-0.1s-0.4,0-0.5,0c-0.2,0-0.4,0-0.6,0.1c-0.2,0-0.4,0.1-0.5,0.2c-0.1,0.1-0.2,0.2-0.3,0.3	C22,24.1,22,24.2,22,24.3c0,0.2,0,0.3,0.1,0.4c0.1,0.1,0.2,0.2,0.3,0.3c0.1,0.1,0.3,0.2,0.5,0.3c0.2,0.1,0.5,0.2,0.7,0.3	c0.4,0.2,0.7,0.3,1,0.5c0.3,0.2,0.5,0.4,0.7,0.6c0.2,0.2,0.4,0.5,0.5,0.7c0.1,0.3,0.2,0.6,0.2,1c0,0.5-0.1,0.9-0.3,1.3	c-0.2,0.3-0.5,0.6-0.8,0.8c-0.3,0.2-0.7,0.4-1.2,0.5c-0.4,0.1-0.9,0.1-1.4,0.1c-0.5,0-1,0-1.4-0.1C20.6,31,20.2,30.9,19.9,30.7z"/><polygon points="33.2,31.5 33.2,27.8 30.5,27.8 30.5,31.5 27.4,31.5 27.4,21.4 30.5,21.4 30.5,25.1 33.2,25.1 33.2,21.4 36.3,21.4 36.3,31.5" opacity=".07"/><path fill="#fff" d="M35.8,31h-2.1v-3.7H30V31h-2.1v-9.1H30v3.6h3.8v-3.6h2.1V31z"/></svg>