<svg xmlns="http://www.w3.org/2000/svg" viewBox="0 0 48 48"><linearGradient id="3H94O154hKPHXqI~wQpj1a" x1="6.414" x2="41.774" y1="-169.552" y2="-195.378" gradientTransform="matrix(1 0 0 -1 0 -155.89)" gradientUnits="userSpaceOnUse"><stop offset="0" stop-color="#28afea"/><stop offset="1" stop-color="#047ed6"/></linearGradient><path fill="url(#3H94O154hKPHXqI~wQpj1a)" d="M6,40V12h36v28c0,1.1-0.9,2-2,2H8C6.9,42,6,41.1,6,40z"/><path d="M28.614,26.114L28.614,26.114c-1.121-1.038-2.651-1.563-4.55-1.563 c-0.13,0-0.267,0.002-0.41,0.006l0.08-1.148h4.858c0.552,0,1-0.448,1-1v-2.885c0-0.552-0.448-1-1-1h-8.487 c-0.524,0-0.963,0.41-0.998,0.934l-0.604,8.945c-0.02,0.297,0.093,0.585,0.31,0.792c0.215,0.202,0.501,0.297,0.805,0.269 c1.038-0.122,1.962-0.184,2.746-0.184c2.366,0,2.366,0.934,2.366,1.382c0,0.461-0.138,0.792-0.433,1.041 c-0.338,0.285-0.857,0.43-1.542,0.43c-1.046,0-2.048-0.289-2.979-0.86c-0.305-0.184-0.69-0.193-1.01-0.018 c-0.315,0.177-0.511,0.511-0.511,0.872v3.019c0,0.396,0.234,0.756,0.598,0.916c1.172,0.516,2.617,0.777,4.294,0.777 c2.152,0,3.9-0.606,5.195-1.803c1.319-1.217,1.988-2.798,1.988-4.698C30.331,28.594,29.753,27.173,28.614,26.114z" opacity=".05"/><path d="M28.273,26.48c-1.024-0.948-2.44-1.43-4.209-1.43 c-0.282,0-0.598,0.01-0.948,0.029l0.151-2.172h5.325c0.276,0,0.5-0.224,0.5-0.5v-2.885c0-0.276-0.224-0.5-0.5-0.5h-8.487 c-0.263,0-0.481,0.204-0.499,0.467l-0.604,8.945c-0.01,0.147,0.047,0.293,0.154,0.396c0.108,0.103,0.257,0.15,0.402,0.135 c1.06-0.124,2.004-0.187,2.805-0.187c2.569,0,2.866,1.074,2.866,1.882c0,0.611-0.2,1.077-0.61,1.424 c-0.431,0.362-1.058,0.547-1.864,0.547c-1.139,0-2.229-0.313-3.239-0.933c-0.154-0.094-0.347-0.097-0.505-0.01 c-0.158,0.089-0.256,0.256-0.256,0.437v3.019c0,0.198,0.117,0.378,0.299,0.458c1.109,0.488,2.486,0.735,4.093,0.735 c2.021,0,3.656-0.562,4.856-1.67c1.213-1.119,1.827-2.576,1.827-4.331C29.831,28.738,29.308,27.441,28.273,26.48z" opacity=".07"/><linearGradient id="3H94O154hKPHXqI~wQpj1b" x1="6.42" x2="41.198" y1="-162.498" y2="-169.57" gradientTransform="matrix(1 0 0 -1 0 -155.89)" gradientUnits="userSpaceOnUse"><stop offset="0" stop-color="#0077d2"/><stop offset="1" stop-color="#0b59a2"/></linearGradient><path fill="url(#3H94O154hKPHXqI~wQpj1b)" d="M42,8v6H6V8c0-1.1,0.9-2,2-2h32C41.1,6,42,6.9,42,8z"/><path d="M35.5,12.5L35.5,12.5c-1.657,0-3-1.343-3-3V6h6v3.5 C38.5,11.157,37.157,12.5,35.5,12.5z" opacity=".05"/><path d="M35.5,11.75L35.5,11.75c-1.243,0-2.25-1.007-2.25-2.25V6h4.5v3.5 C37.75,10.743,36.743,11.75,35.5,11.75z" opacity=".07"/><path d="M12.5,12.5L12.5,12.5c-1.657,0-3-1.343-3-3V6h6v3.5 C15.5,11.157,14.157,12.5,12.5,12.5z" opacity=".05"/><path d="M12.5,11.75L12.5,11.75c-1.243,0-2.25-1.007-2.25-2.25V6h4.5v3.5 C14.75,10.743,13.743,11.75,12.5,11.75z" opacity=".07"/><path fill="#3ccbf4" d="M12.5,11L12.5,11c-0.828,0-1.5-0.672-1.5-1.5v-4C11,4.672,11.672,4,12.5,4l0,0 C13.328,4,14,4.672,14,5.5v4C14,10.328,13.328,11,12.5,11z"/><path fill="#3ccbf4" d="M35.5,11L35.5,11c-0.828,0-1.5-0.672-1.5-1.5v-4C34,4.672,34.672,4,35.5,4l0,0 C36.328,4,37,4.672,37,5.5v4C37,10.328,36.328,11,35.5,11z"/><path fill="#fff" d="M19.256,35.145v-3.019c1.096,0.671,2.263,1.006,3.5,1.006c0.932,0,1.661-0.222,2.187-0.665 s0.788-1.046,0.788-1.806c0-1.588-1.122-2.382-3.366-2.382c-0.827,0-1.781,0.063-2.862,0.189l0.604-8.945h8.487v2.885h-5.792 l-0.224,3.21c0.574-0.045,1.069-0.067,1.487-0.067c1.647,0,2.937,0.433,3.869,1.297c0.932,0.865,1.397,2.028,1.397,3.489 c0,1.617-0.556,2.938-1.666,3.964c-1.111,1.025-2.616,1.537-4.518,1.537C21.604,35.838,20.308,35.607,19.256,35.145z"/></svg>