<svg xmlns="http://www.w3.org/2000/svg" viewBox="0 0 48 48"><radialGradient id="Ij8toFFkF1M~aJ~0UZ0iYa" cx="23.617" cy="27.953" r="21.338" gradientUnits="userSpaceOnUse"><stop offset=".376" stop-color="#261103"/><stop offset=".68" stop-color="#431d06"/><stop offset="1" stop-color="#662c09"/></radialGradient><path fill="url(#Ij8toFFkF1M~aJ~0UZ0iYa)" d="M24,8.645c-16.026,0-20,25.877-20,25.877c0,4.607,2.139,8.643,6.62,9.713	C14.457,45.151,19.286,46,24,46s9.543-0.849,13.38-1.766c4.481-1.07,6.62-5.106,6.62-9.713C44,34.521,40.026,8.645,24,8.645z"/><radialGradient id="Ij8toFFkF1M~aJ~0UZ0iYb" cx="-529.379" cy="25.172" r="16.758" gradientTransform="matrix(-.9667 0 0 .9667 -487.733 1.533)" gradientUnits="userSpaceOnUse"><stop offset="0" stop-color="#ffcf54"/><stop offset=".261" stop-color="#fdcb4d"/><stop offset=".639" stop-color="#f7c13a"/><stop offset="1" stop-color="#f0b421"/></radialGradient><path fill="url(#Ij8toFFkF1M~aJ~0UZ0iYb)" d="M24,7.733c6.908,0,14,2.8,14,17.733c0,1.195,0,4.525,0,5.802C38,36.6,29.426,44,24,44	s-14-7.4-14-12.731c0-1.277,0-4.607,0-5.802C10,10.533,17.092,7.733,24,7.733z"/><radialGradient id="Ij8toFFkF1M~aJ~0UZ0iYc" cx="13.053" cy="3.729" r="49.757" gradientUnits="userSpaceOnUse"><stop offset="0" stop-color="#c26715"/><stop offset=".508" stop-color="#b85515"/><stop offset="1" stop-color="#ad3f16"/></radialGradient><path fill="url(#Ij8toFFkF1M~aJ~0UZ0iYc)" d="M24,3c-7.982,0-10,5-10,5C10.755,8.479,4,12.978,4,34.505c0,5.848,2.928,7.995,4,8.62	c-7.76-22.812,10.021-20.171,7.375-32.872C22.996,27.187,47,15,40.724,42.591C42.58,41.18,44,38.349,44,34.505	C44,13.265,35.383,3,24,3z"/><path fill="#727d86" d="M38,40H24v-2h14c1.654,0,3-1.346,3-3v-7h2v7C43,37.757,40.757,40,38,40z"/><linearGradient id="Ij8toFFkF1M~aJ~0UZ0iYd" x1="21.879" x2="26.121" y1="36.879" y2="41.121" gradientUnits="userSpaceOnUse"><stop offset="0" stop-color="#33bef0"/><stop offset="1" stop-color="#0a85d9"/></linearGradient><path fill="url(#Ij8toFFkF1M~aJ~0UZ0iYd)" d="M27,39c0,1.657-1.343,3-3,3s-3-1.343-3-3s1.343-3,3-3S27,37.343,27,39z"/><path fill="#727d86" d="M23,4h2c8.837,0,16,7.163,16,16v7h2v-7c0-9.941-8.059-18-18-18h-2c-0.552,0-1,0.448-1,1v0	C22,3.552,22.448,4,23,4z"/><path fill="#5c6369" d="M43,23l1.414,1.414C44.789,24.789,45,25.298,45,25.828v5.343c0,0.53-0.211,1.039-0.586,1.414L43,34	V23z"/><path fill="#727d86" d="M43,34h-3c-1.105,0-2-0.895-2-2v-7c0-1.105,0.895-2,2-2h3V34z"/><linearGradient id="Ij8toFFkF1M~aJ~0UZ0iYe" x1="38.75" x2="45.25" y1="25.25" y2="31.75" gradientUnits="userSpaceOnUse"><stop offset="0" stop-color="#33bef0"/><stop offset="1" stop-color="#0a85d9"/></linearGradient><rect width="2" height="11" x="41" y="23" fill="url(#Ij8toFFkF1M~aJ~0UZ0iYe)"/></svg>