<svg xmlns="http://www.w3.org/2000/svg" viewBox="0 0 48 48"><path fill="#50e6ff" d="M40,6H8C6.895,6,6,6.895,6,8v30c0,1.105,0.895,2,2,2h32c1.105,0,2-0.895,2-2V8 C42,6.895,41.105,6,40,6z"/><linearGradient id="k7ujsySgGxE7kXpQVtTw5a" x1="18" x2="42" y1="32.093" y2="32.093" gradientUnits="userSpaceOnUse"><stop offset="0" stop-color="#3ccbf4"/><stop offset="1" stop-color="#1fa0e5"/></linearGradient><path fill="url(#k7ujsySgGxE7kXpQVtTw5a)" d="M32.065,23.065c-1.149-1.149-3.005-1.174-4.185-0.057L18,32.368V42h22c1.105,0,2-0.895,2-2 v-7L32.065,23.065z"/><circle cx="30.5" cy="14.5" r="3.5" fill="#fff8de"/><linearGradient id="k7ujsySgGxE7kXpQVtTw5b" x1="23.91" x2="23.91" y1="18.186" y2="42" gradientUnits="userSpaceOnUse"><stop offset="0" stop-color="#28afea"/><stop offset="1" stop-color="#0b88da"/></linearGradient><path fill="url(#k7ujsySgGxE7kXpQVtTw5b)" d="M8,42h32c0.811,0,1.507-0.485,1.82-1.18L20.065,19.065c-1.149-1.149-3.005-1.174-4.185-0.057 L6,28.368V40C6,41.105,6.895,42,8,42z"/><polygon points="42,29.6 42,38.4 38.4,42 29.6,42" opacity=".05"/><polygon points="42,30.31 42,37.69 37.69,42 30.31,42" opacity=".07"/><path fill="#c94f60" d="M47.781,30.141l-1.922-1.921c-0.292-0.293-0.768-0.293-1.061,0l-0.904,0.905l2.981,2.981 l0.905-0.904C48.073,30.908,48.073,30.434,47.781,30.141"/><path fill="#f0f0f0" d="M29.003,44.016L28,48l3.985-1.003l0.418-3.456L29.003,44.016z"/><path fill="#edbe00" d="M44.333,34.648L31.985,46.996l-2.981-2.981l12.348-12.348L44.333,34.648z"/><linearGradient id="k7ujsySgGxE7kXpQVtTw5c" x1="44.112" x2="44.112" y1="360.688" y2="355.199" gradientTransform="matrix(1 0 0 -1 0 390)" gradientUnits="userSpaceOnUse"><stop offset="0" stop-color="#dedede"/><stop offset="1" stop-color="#d6d6d6"/></linearGradient><path fill="url(#k7ujsySgGxE7kXpQVtTw5c)" d="M41.349,31.667l2.543-2.544l2.983,2.981l-2.543,2.544L41.349,31.667z"/><path fill="#787878" d="M28.508,45.985L28,48l2.014-0.508L28.508,45.985z"/></svg>