<svg xmlns="http://www.w3.org/2000/svg" viewBox="0 0 48 48"><linearGradient id="aCCWyHxy8UvvDJ1nQKwDda" x1="3" x2="3" y1="35" y2="17" gradientUnits="userSpaceOnUse"><stop offset=".643" stop-color="#afb6bc"/><stop offset="1" stop-color="#9aa0a5"/></linearGradient><path fill="url(#aCCWyHxy8UvvDJ1nQKwDda)" d="M6,19.477v6.195c0,0-1,9.351-3.059,9.328C2,34.993,0.402,26.728,0,20.718C0,18.241,1,17,3,17 C4,17,6,17.427,6,19.477"/><linearGradient id="aCCWyHxy8UvvDJ1nQKwDdb" x1="19" x2="19" y1="28" y2="13" gradientUnits="userSpaceOnUse"><stop offset=".643" stop-color="#afb6bc"/><stop offset="1" stop-color="#9aa0a5"/></linearGradient><path fill="url(#aCCWyHxy8UvvDJ1nQKwDdb)" d="M21.5,28h-5c-1.381,0-2.5-1.119-2.5-2.5V18c0-2.761,2.239-5,5-5l0,0c2.761,0,5,2.239,5,5v7.5 C24,26.881,22.881,28,21.5,28z"/><linearGradient id="aCCWyHxy8UvvDJ1nQKwDdc" x1="29" x2="29" y1="28" y2="13" gradientUnits="userSpaceOnUse"><stop offset=".643" stop-color="#afb6bc"/><stop offset="1" stop-color="#9aa0a5"/></linearGradient><path fill="url(#aCCWyHxy8UvvDJ1nQKwDdc)" d="M31.5,28h-5c-1.381,0-2.5-1.119-2.5-2.5V18c0-2.761,2.239-5,5-5l0,0c2.761,0,5,2.239,5,5v7.5 C34,26.881,32.881,28,31.5,28z"/><linearGradient id="aCCWyHxy8UvvDJ1nQKwDdd" x1="38" x2="38" y1="27" y2="15" gradientUnits="userSpaceOnUse"><stop offset=".643" stop-color="#afb6bc"/><stop offset="1" stop-color="#9aa0a5"/></linearGradient><path fill="url(#aCCWyHxy8UvvDJ1nQKwDdd)" d="M39.714,27h-3.429C35.023,27,34,25.926,34,24.6v-5.4c0-2.32,1.791-4.2,4-4.2l0,0 c2.209,0,4,1.88,4,4.2v5.4C42,25.926,40.977,27,39.714,27z"/><linearGradient id="aCCWyHxy8UvvDJ1nQKwDde" x1="10" x2="10" y1="27" y2="15" gradientUnits="userSpaceOnUse"><stop offset=".643" stop-color="#afb6bc"/><stop offset="1" stop-color="#9aa0a5"/></linearGradient><path fill="url(#aCCWyHxy8UvvDJ1nQKwDde)" d="M11.714,27H8.286C7.023,27,6,25.926,6,24.6v-5.4c0-2.32,1.791-4.2,4-4.2l0,0 c2.209,0,4,1.88,4,4.2v5.4C14,25.926,12.977,27,11.714,27z"/><linearGradient id="aCCWyHxy8UvvDJ1nQKwDdf" x1="45" x2="45" y1="35" y2="17" gradientUnits="userSpaceOnUse"><stop offset=".643" stop-color="#afb6bc"/><stop offset="1" stop-color="#9aa0a5"/></linearGradient><path fill="url(#aCCWyHxy8UvvDJ1nQKwDdf)" d="M42,19.477C42,17.427,44,17,45,17c2,0,3,1.241,3,3.718c-0.402,6.01-2,14.274-2.941,14.282 C43,35.022,42,25.673,42,25.673V19.477"/></svg>