<svg xmlns="http://www.w3.org/2000/svg" viewBox="0 0 48 48"><linearGradient id="Psx5ChtuIQHBdx~X6PO7Ca" x1="8.242" x2="40.029" y1="-.75" y2="37.421" gradientUnits="userSpaceOnUse"><stop offset="0" stop-color="#5c65d6"/><stop offset=".999" stop-color="#464eb0"/></linearGradient><path fill="url(#Psx5ChtuIQHBdx~X6PO7Ca)" d="M21.36,44l-1.235-0.182L19,43l-2,0.75L14.75,44l-1.125-0.75L13,42l0.461-1l1.274-0.832	c0,0,0.2-0.1,0.265-0.168c0.017-0.019,0-0.25,0-0.25l-0.105-1.125c0,0-0.143-0.48-0.27-0.625c-0.037,0.141-1.125,1.625-1.125,1.625	L12.125,40H10.75l-0.548-0.875L10,38v-2.875L9.779,34.41l-3.098-4.984l-0.698-1.551L6,25.75l-0.25-0.538L4,21.843l-1.514-3.436l0,0	C2.204,17.578,2,15,2,15l1-1h1l0.625-0.5l1.376-2.981L6.5,9l2.625-1.785L11,7h1.125L14,7.25c0,0,0.961,0.756,1,0.75l1.25-0.625	l1.375-0.625c0,0,1.373-0.746,1.777-0.747l0.614-0.001L20.125,6L22.5,7H24h0.875L26,8l0.5,1l1.625,0.291l1.25,0.77l0.333,0.456	L31,11h1l-0.635-0.564L30.25,9.375L30,8.125L31,7l0.901-0.323l0.587-0.304l0.576-0.487l0.686-0.533L34.875,5l0.875,0.21l1,0.915	L38.5,7l1.625-0.25l1.5-0.875l0.986-1.461L43,4h0.625l0.264,0.375L44,5v2l-0.378,1.106L43,8.625v1.75L44,13l0.875,1.25l0.882,1.706	L46,17.696l-0.375,1.929L45,21l0.5,0.5l0.5,1.957l-0.701,2.886l-0.924,1.031L43,28h-0.875l-0.06,0.201l-1.183,1l-1.258,0.607L38,30	v2.75l-0.25,1l-1,0.25l-1.23-1.291L34,32l-0.702,0.591L33,33.375l0.833,2.265l0.794,0.582l0.749,0.55c0,0,0.309,0.364,0.417,0.603	C35.922,37.66,36,38.429,36,38.429v1.196L35,40h-2.25l-1.375-1L30.5,39.75L28.625,40H27.5l-0.25,1.348l-0.646,0.874l-1.229,0.644	L24.25,43l-1.098,0.327l-0.685,0.33L21.36,44z M15.178,41.649L15.178,41.649L15.178,41.649z M14.196,37.894L14.196,37.894	L14.196,37.894z M31.942,10.966L31.942,10.966L31.942,10.966z"/></svg>