<svg xmlns="http://www.w3.org/2000/svg" viewBox="0 0 48 48"><linearGradient id="G2KCRoOkxknyaobVSaI3ha" x1="-5.385" x2="66.913" y1="10.444" y2="43.798" gradientUnits="userSpaceOnUse"><stop offset="0" stop-color="#33d7f0"/><stop offset=".187" stop-color="#2fd1ed"/><stop offset=".445" stop-color="#24bfe3"/><stop offset=".744" stop-color="#13a2d4"/><stop offset="1" stop-color="#0083c4"/></linearGradient><path fill="url(#G2KCRoOkxknyaobVSaI3ha)" d="M43,8H5c-1.105,0-2,0.895-2,2v28c0,1.105,0.895,2,2,2h38c1.105,0,2-0.895,2-2V10 C45,8.895,44.105,8,43,8z"/><circle cx="16" cy="21" r="8" fill="#0370c8"/><linearGradient id="G2KCRoOkxknyaobVSaI3hb" x1="18.287" x2="21.887" y1="12.6" y2="24.489" gradientUnits="userSpaceOnUse"><stop offset="0" stop-color="#fed100"/><stop offset="1" stop-color="#e36001"/></linearGradient><path fill="url(#G2KCRoOkxknyaobVSaI3hb)" d="M16,20l0-6.93c0-0.599,0.525-1.074,1.12-1c1.974,0.248,3.823,1.145,5.244,2.566 c1.421,1.421,2.318,3.27,2.566,5.244c0.075,0.595-0.4,1.12-1,1.12L17,21C16.448,21,16,20.552,16,20z"/><path fill="#0370c8" d="M38.5,36H24l-1-1l1-1h14.5c0.276,0,0.5,0.224,0.5,0.5v1C39,35.776,38.776,36,38.5,36z"/><linearGradient id="G2KCRoOkxknyaobVSaI3hc" x1="13.734" x2="21.96" y1="31.545" y2="41.348" gradientUnits="userSpaceOnUse"><stop offset="0" stop-color="#fed100"/><stop offset="1" stop-color="#e36001"/></linearGradient><path fill="url(#G2KCRoOkxknyaobVSaI3hc)" d="M24,34v2H9.5C9.224,36,9,35.776,9,35.5v-1C9,34.224,9.224,34,9.5,34H24z"/><linearGradient id="G2KCRoOkxknyaobVSaI3hd" x1="32.296" x2="36.704" y1="11.874" y2="17.126" gradientUnits="userSpaceOnUse"><stop offset="0" stop-color="#fed100"/><stop offset="1" stop-color="#e36001"/></linearGradient><path fill="url(#G2KCRoOkxknyaobVSaI3hd)" d="M37.5,16h-6c-0.828,0-1.5-0.672-1.5-1.5v0c0-0.828,0.672-1.5,1.5-1.5h6 c0.828,0,1.5,0.672,1.5,1.5v0C39,15.328,38.328,16,37.5,16z"/><path fill="#0370c8" d="M37.5,22h-6c-0.828,0-1.5-0.672-1.5-1.5v0c0-0.828,0.672-1.5,1.5-1.5h6c0.828,0,1.5,0.672,1.5,1.5v0 C39,21.328,38.328,22,37.5,22z"/><path fill="#0370c8" d="M37.5,28h-6c-0.828,0-1.5-0.672-1.5-1.5v0c0-0.828,0.672-1.5,1.5-1.5h6c0.828,0,1.5,0.672,1.5,1.5v0 C39,27.328,38.328,28,37.5,28z"/></svg>