<svg xmlns="http://www.w3.org/2000/svg" viewBox="0 0 48 48"><path fill="#727d86" d="M23.531,46.212L23.531,46.212c-0.284-0.328-0.324-0.798-0.095-1.166C23.705,44.611,24,43.923,24,43 c0-0.5-0.4-1-0.8-1.5c-0.5-0.7-1.2-1.7-1.2-2.9c0-0.8,0.2-1.5,0.5-2.2c0.203-0.473,0.36-0.947,0.44-1.513 C23.012,34.385,23.42,34,23.927,34h0.001c0.62,0,1.077,0.563,0.978,1.176c-0.131,0.808-0.366,1.439-0.505,1.924 c-0.2,0.5-0.4,1-0.4,1.5c0,0.6,0.4,1.1,0.8,1.7C25.4,41,26,41.9,26,43c0,1.374-0.447,2.413-0.883,3.102 C24.762,46.663,23.965,46.714,23.531,46.212z"/><path fill="#c61c31" d="M26.278,35h-4.557c-0.349,0-0.591-0.349-0.468-0.676L22.5,31h3l1.247,3.324 C26.869,34.651,26.628,35,26.278,35z"/><linearGradient id="M_7ouz5NjcN6tJhbGGEyva" x1="10" x2="38" y1="16.5" y2="16.5" gradientUnits="userSpaceOnUse"><stop offset="0" stop-color="#f44f5a"/><stop offset=".443" stop-color="#ee3d4a"/><stop offset=".731" stop-color="#e92e3d"/><stop offset="1" stop-color="#e52030"/></linearGradient><path fill="url(#M_7ouz5NjcN6tJhbGGEyva)" d="M24,32c-7.933,0-14-10.903-14-17.959C10,6.879,16.3,1,24,1s14,5.879,14,13.041 C38,21.097,31.933,32,24,32z"/></svg>