<svg xmlns="http://www.w3.org/2000/svg" data-name="Слой 1" viewBox="0 0 48 48"><defs><linearGradient id="_hq4pS4S5HOjfzztgFEA7a" x1="15.913" x2="36.178" y1="15.913" y2="36.178" data-name="Безымянный градиент 3" gradientUnits="userSpaceOnUse"><stop offset="0" stop-color="#fff"/><stop offset=".242" stop-color="#f2f2f2"/><stop offset="1" stop-color="#ccc"/></linearGradient><linearGradient id="_hq4pS4S5HOjfzztgFEA7b" x1="12.138" x2="31.536" y1="12.155" y2="31.554" data-name="Новый образец градиентной зал 3" gradientUnits="userSpaceOnUse"><stop offset="0" stop-color="#32bdef"/><stop offset="1" stop-color="#1ea2e4"/></linearGradient></defs><circle cx="24" cy="24" r="13" fill="url(#_hq4pS4S5HOjfzztgFEA7a)"/><path fill="url(#_hq4pS4S5HOjfzztgFEA7b)" d="M28.677,43.327a6.98827,6.98827,0,0,1,10.186-6.145,19.94709,19.94709,0,0,0,4.188-7.43,6.99611,6.99611,0,0,1,0-11.663,19.947,19.947,0,0,0-4.188-7.43A6.98827,6.98827,0,0,1,28.677,4.514a19.42119,19.42119,0,0,0-8.509-.23A6.994,6.994,0,0,1,9.325,10.277a19.9581,19.9581,0,0,0-4.375,7.34,6.98812,6.98812,0,0,1-.001,12.606,19.9581,19.9581,0,0,0,4.375,7.34,6.994,6.994,0,0,1,10.843,5.993,19.44355,19.44355,0,0,0,8.51-.229ZM23.92,35.92a11.96255,11.96255,0,0,1-4.59-.913l3.66-5.166a6.06689,6.06689,0,0,0,.93.079,5.99624,5.99624,0,0,0,5.651-4H35.74A11.99378,11.99378,0,0,1,23.92,35.92Zm11.82-14H29.571a5.99722,5.99722,0,0,0-5.651-4,6.06689,6.06689,0,0,0-.93.079l-3.66-5.166A11.98728,11.98728,0,0,1,35.74,21.92Zm-23.82,2a11.9595,11.9595,0,0,1,4.023-8.948l3.509,4.953a5.97489,5.97489,0,0,0,0,7.99l-3.509,4.953A11.9595,11.9595,0,0,1,11.92,23.92Z"/></svg>