<svg xmlns="http://www.w3.org/2000/svg" viewBox="0 0 48 48"><path fill="#b63016" d="M22.946,3.732C22.827,3.313,22.457,3,22,3c-0.552,0-1,0.448-1,1l-0.394,10.951l4.168,0.265	l0.265-3.265L22.946,3.732z"/><linearGradient id="6ixc_phMLPHbqE9AEpRv9a" x1="17.626" x2="25.668" y1="3.518" y2="42.901" gradientUnits="userSpaceOnUse"><stop offset=".001" stop-color="#ca4e2a"/><stop offset=".378" stop-color="#c84a28"/><stop offset=".717" stop-color="#c03f20"/><stop offset="1" stop-color="#b63016"/></linearGradient><path fill="url(#6ixc_phMLPHbqE9AEpRv9a)" d="M42,34c0-4.098-5.671-10.532-11.308-13.538c-0.305-0.685-1.11-1.881-1.538-5.385	C29.154,12.202,28,3.016,28,3c0-0.552-0.448-1-1-1s-1,0.448-1,1c0,0.003-2.018,11-2.018,11C17.037,14,13,14,13,19l-8.999-0.006	c-0.552,0-1.001,0.447-1.001,1V21c0,4.541,9.978,1.978,14,6c3.98,3.98,0.568,9.9,7.153,14.348c0,0,0.933,0.652,1.847,0.652	c0.948,0,1.972-0.155,2.73-0.461s12.078-5.712,12.078-5.712C41.509,35.516,42,34.816,42,34z"/><rect width="4" height="2" x="26" y="44" fill="#edbe00"/><path fill="#edbe00" d="M17.443,19.777c-1.285,0-2.135-1.285-2.135-1.285l4.615-1.108	C19.923,17.386,19.615,19.777,17.443,19.777z"/><linearGradient id="6ixc_phMLPHbqE9AEpRv9b" x1="26" x2="42" y1="24.136" y2="24.136" gradientUnits="userSpaceOnUse"><stop offset="0" stop-color="#1d59b3"/><stop offset="1" stop-color="#195bbc"/></linearGradient><path fill="url(#6ixc_phMLPHbqE9AEpRv9b)" d="M30,14.273v14.385C41,28.658,42,34,42,34C42,21.508,32.888,15.295,30,14.273z"/><linearGradient id="6ixc_phMLPHbqE9AEpRv9c" x1="26" x2="42" y1="27" y2="27" gradientUnits="userSpaceOnUse"><stop offset="0" stop-color="#3079d6"/><stop offset="1" stop-color="#297cd2"/></linearGradient><path fill="url(#6ixc_phMLPHbqE9AEpRv9c)" d="M29.132,14c0,0-0.132,6-3.132,7v19h4V28.658V14.273C29.456,14.08,29.132,14,29.132,14z"/><linearGradient id="6ixc_phMLPHbqE9AEpRv9d" x1="20.275" x2="30" y1="29" y2="29" gradientUnits="userSpaceOnUse"><stop offset="0" stop-color="#3079d6"/><stop offset="1" stop-color="#297cd2"/></linearGradient><path fill="url(#6ixc_phMLPHbqE9AEpRv9d)" d="M29.132,14c0,0-0.132,6-3.132,7v23h4V28.658V14.273C29.456,14.08,29.132,14,29.132,14z"/></svg>