<svg xmlns="http://www.w3.org/2000/svg" viewBox="0 0 48 48"><linearGradient id="EgXiuGkRZKI5-lb-7oYsma" x1="24" x2="24" y1="18" y2="42" gradientUnits="userSpaceOnUse"><stop offset="0" stop-color="#32bdef"/><stop offset=".38" stop-color="#2fb9ed"/><stop offset=".787" stop-color="#25ace8"/><stop offset="1" stop-color="#1ea2e4"/></linearGradient><path fill="url(#EgXiuGkRZKI5-lb-7oYsma)" d="M42.816,35.855l-2.615-11.118c-0.214-0.908-0.851-1.675-1.702-2.054L31,19.35V18h-2H19h-2 v1.35l-7.499,3.333c-0.852,0.378-1.488,1.146-1.702,2.054L5.184,35.855c-0.352,1.496-0.007,3.045,0.947,4.25S8.514,42,10.051,42 h27.898c1.537,0,2.966-0.691,3.92-1.896S43.168,37.351,42.816,35.855z"/><path fill="#50e6ff" d="M40.734,27H7.267l-2.083,8.855c-0.352,1.496-0.007,3.045,0.947,4.25S8.514,42,10.051,42h27.898 c1.537,0,2.966-0.691,3.92-1.896s1.299-2.753,0.947-4.25L40.734,27z"/><circle cx="35" cy="33" r="2" fill="#43cad1"/><circle cx="13" cy="33" r="2" fill="#43cad1"/><circle cx="29" cy="38" r="1" fill="#43cad1"/><linearGradient id="EgXiuGkRZKI5-lb-7oYsmb" x1="22" x2="22" y1="10.872" y2="38" gradientUnits="userSpaceOnUse"><stop offset="0" stop-color="#889097"/><stop offset="1" stop-color="#64717c"/></linearGradient><path fill="url(#EgXiuGkRZKI5-lb-7oYsmb)" d="M20.5,38h-1c-0.828,0-1.5-0.671-1.5-1.5s0.672-1.5,1.5-1.5h1c1.379,0,2.5-1.122,2.5-2.5 V12.372c0-0.829,0.672-1.5,1.5-1.5s1.5,0.671,1.5,1.5V32.5C26,35.533,23.532,38,20.5,38z"/><g><linearGradient id="EgXiuGkRZKI5-lb-7oYsmc" x1="24.5" x2="24.5" y1="5" y2="13" gradientUnits="userSpaceOnUse"><stop offset="0" stop-color="#f05964"/><stop offset="1" stop-color="#d4414c"/></linearGradient><path fill="url(#EgXiuGkRZKI5-lb-7oYsmc)" d="M24.5,5c0,0-3.5,2-3.5,5c0,1.657,1.567,3,3.5,3s3.5-1.343,3.5-3C28,7,24.5,5,24.5,5z"/><linearGradient id="EgXiuGkRZKI5-lb-7oYsmd" x1="24.5" x2="24.5" y1="8" y2="13" gradientUnits="userSpaceOnUse"><stop offset="0" stop-color="#fede00"/><stop offset="1" stop-color="#f5aa00"/></linearGradient><path fill="url(#EgXiuGkRZKI5-lb-7oYsmd)" d="M24.5,8c0,0-2.5,1.25-2.5,3.125C22,12.161,23.119,13,24.5,13s2.5-0.839,2.5-1.875 C27,9.25,24.5,8,24.5,8z"/></g><path fill="#50e6ff" d="M17.332,37.775c2.475,0.935,4.985,1.278,7.661-0.333 c3.128-1.884,4.015-6.363,4.25-10.442H17.309c0.03,0.593,0.024,1.194-0.052,1.799c-0.294,2.329-0.449,5.24-0.21,7.596 C17.095,36.87,17.2,37.327,17.332,37.775z" opacity=".25"/><g><linearGradient id="EgXiuGkRZKI5-lb-7oYsme" x1="24" x2="24" y1="18" y2="15" gradientUnits="userSpaceOnUse"><stop offset=".115" stop-color="#0d62ab"/><stop offset="1" stop-color="#007ad9"/></linearGradient><path fill="url(#EgXiuGkRZKI5-lb-7oYsme)" d="M31.5,18h-15c-0.828,0-1.5-0.671-1.5-1.5s0.672-1.5,1.5-1.5h15c0.828,0,1.5,0.671,1.5,1.5 S32.328,18,31.5,18z"/></g></svg>