<svg xmlns="http://www.w3.org/2000/svg" baseProfile="basic" viewBox="0 0 48 48"><path fill="#e6655e" d="M24,4C12.355,4,8.436,13,8.436,13S13.168,9,24,9s15.564,4,15.564,4S35.645,4,24,4z"/><linearGradient id="akVkkdnuu8HsiGjKDkJFYa" x1="43.649" x2="44.423" y1="23.755" y2="29.804" gradientUnits="userSpaceOnUse"><stop offset="0" stop-color="#a1aab3"/><stop offset="1" stop-color="#8f979e"/></linearGradient><path fill="url(#akVkkdnuu8HsiGjKDkJFYa)" d="M44.13,30H43v-7h2v6.13C45,29.611,44.611,30,44.13,30z"/><path fill="#e6433a" d="M24,2C12.435,2,3.027,10.972,3.027,22h2.996c0-9.376,8.064-17.004,17.977-17.004	S41.977,12.624,41.977,22h2.996C44.973,10.972,35.565,2,24,2z"/><linearGradient id="akVkkdnuu8HsiGjKDkJFYb" x1="43.318" x2="43.734" y1="21.933" y2="23.862" gradientUnits="userSpaceOnUse"><stop offset="0" stop-color="#a1aab3"/><stop offset="1" stop-color="#8f979e"/></linearGradient><path fill="url(#akVkkdnuu8HsiGjKDkJFYb)" d="M44.5,24h-2c-0.276,0-0.5-0.224-0.5-0.5V22h3v1.5C45,23.776,44.776,24,44.5,24z"/><linearGradient id="akVkkdnuu8HsiGjKDkJFYc" x1="82.649" x2="83.423" y1="23.755" y2="29.804" gradientTransform="matrix(-1 0 0 1 87 0)" gradientUnits="userSpaceOnUse"><stop offset="0" stop-color="#a1aab3"/><stop offset="1" stop-color="#8f979e"/></linearGradient><path fill="url(#akVkkdnuu8HsiGjKDkJFYc)" d="M3.87,30H5v-7H3v6.13C3,29.611,3.389,30,3.87,30z"/><linearGradient id="akVkkdnuu8HsiGjKDkJFYd" x1="82.318" x2="82.734" y1="21.933" y2="23.862" gradientTransform="matrix(-1 0 0 1 87 0)" gradientUnits="userSpaceOnUse"><stop offset="0" stop-color="#a1aab3"/><stop offset="1" stop-color="#8f979e"/></linearGradient><path fill="url(#akVkkdnuu8HsiGjKDkJFYd)" d="M3.5,24h2C5.776,24,6,23.776,6,23.5V22H3v1.5C3,23.776,3.224,24,3.5,24z"/><linearGradient id="akVkkdnuu8HsiGjKDkJFYe" x1="3.714" x2="13.693" y1="27.439" y2="45.354" gradientUnits="userSpaceOnUse"><stop offset="0" stop-color="#fc928d"/><stop offset="1" stop-color="#fc6d65"/></linearGradient><path fill="url(#akVkkdnuu8HsiGjKDkJFYe)" d="M15.174,43.369c-0.463,0.364-0.232,0.868-0.417,1.305c-0.244,0.578-0.83,1.214-1.649,1.315	C9.386,46.448,3.429,32.866,3.035,29.671c-0.294-2.38,1.371-2.76,1.67-2.797c1.151-0.142,1.573,0.686,2.433,0.521L15.174,43.369z"/><linearGradient id="akVkkdnuu8HsiGjKDkJFYf" x1="8.301" x2="17.605" y1="25.686" y2="43.487" gradientUnits="userSpaceOnUse"><stop offset="0" stop-color="#fc6d65"/><stop offset="1" stop-color="#e6433a"/></linearGradient><path fill="url(#akVkkdnuu8HsiGjKDkJFYf)" d="M10.383,35.234c-1.253-2.414-2.974-5.823-3.346-6.843c-0.535-1.468,0.046-2.819,1.693-3.022	c2.303-0.284,4.064,3.317,6.252,7.478c2.16,4.109,5.339,10.607,2.02,11.016c-1.675,0.207-2.143-0.385-3.009-1.804	C13.128,40.64,11.636,37.648,10.383,35.234z"/><ellipse cx="13.883" cy="33.337" fill="#e6433a" rx=".508" ry="5.469" transform="rotate(-28.526 13.883 33.334)"/><linearGradient id="akVkkdnuu8HsiGjKDkJFYg" x1="3.714" x2="13.693" y1="27.439" y2="45.354" gradientTransform="matrix(-1 0 0 1 48 0)" gradientUnits="userSpaceOnUse"><stop offset="0" stop-color="#fc928d"/><stop offset="1" stop-color="#fc6d65"/></linearGradient><path fill="url(#akVkkdnuu8HsiGjKDkJFYg)" d="M32.826,43.369c0.463,0.364,0.232,0.868,0.417,1.305c0.244,0.578,0.83,1.214,1.649,1.315	c3.722,0.459,9.679-13.122,10.073-16.318c0.294-2.38-1.371-2.76-1.67-2.797c-1.151-0.142-1.573,0.686-2.433,0.521L32.826,43.369z"/><linearGradient id="akVkkdnuu8HsiGjKDkJFYh" x1="8.301" x2="17.605" y1="25.686" y2="43.487" gradientTransform="matrix(-1 0 0 1 48 0)" gradientUnits="userSpaceOnUse"><stop offset="0" stop-color="#fc6d65"/><stop offset="1" stop-color="#e6433a"/></linearGradient><path fill="url(#akVkkdnuu8HsiGjKDkJFYh)" d="M37.617,35.234c1.253-2.414,2.974-5.823,3.346-6.843c0.535-1.468-0.046-2.819-1.693-3.022	c-2.303-0.284-4.064,3.317-6.252,7.478c-2.16,4.109-5.339,10.607-2.02,11.016c1.675,0.207,2.143-0.385,3.009-1.804	C34.872,40.64,36.364,37.648,37.617,35.234z"/><ellipse cx="34.117" cy="33.337" fill="#e6433a" rx="5.469" ry=".508" transform="rotate(-61.471 34.119 33.336)"/></svg>