<svg xmlns="http://www.w3.org/2000/svg" xmlns:xlink="http://www.w3.org/1999/xlink" data-name="Слой 1" viewBox="0 0 48 48"><defs><linearGradient id="vLrJiooEZORiCs8O~TMeda" x1="24" x2="24" y1="2.163" y2="12.429" data-name="Безымянный градиент 135" gradientUnits="userSpaceOnUse"><stop offset="0" stop-color="#33bef0"/><stop offset="1" stop-color="#22a5e2"/></linearGradient><linearGradient id="vLrJiooEZORiCs8O~TMedb" x1="16.157" x2="30.823" y1="9.034" y2="49.328" xlink:href="#vLrJiooEZORiCs8O~TMeda"/><linearGradient id="vLrJiooEZORiCs8O~TMedc" x1="24" x2="24" y1="37.609" y2="15.812" data-name="Безымянный градиент 189" gradientUnits="userSpaceOnUse"><stop offset="0" stop-color="#0c52bb"/><stop offset=".53" stop-color="#1358bf"/><stop offset="1" stop-color="#2668cb"/></linearGradient></defs><path fill="url(#vLrJiooEZORiCs8O~TMeda)" d="M28,13H20a.99969.99969,0,0,1-.9458-1.32422L20.99463,6.0166a3.24814,3.24814,0,0,1,6.01123,0l1.93994,5.65918A.99969.99969,0,0,1,28,13Zm-6.6001-2h5.2002L25.11377,6.665a1.26475,1.26475,0,0,0-2.227,0Z"/><path fill="url(#vLrJiooEZORiCs8O~TMedb)" d="M40.98923,33.75578a1.86862,1.86862,0,0,0-.00246-.32539L38.37345,12.65224A1.88725,1.88725,0,0,0,36.49968,11H11.49928a1.888,1.888,0,0,0-1.87377,1.65224L7.01226,33.43039a1.8693,1.8693,0,0,0-.00221.32539H7V41.097a1.89216,1.89216,0,0,0,1.88888,1.89638H39.11112A1.8922,1.8922,0,0,0,41,41.097V33.75578Z"/><path fill="url(#vLrJiooEZORiCs8O~TMedc)" d="M38.69,32.21a1.05682,1.05682,0,0,1-1.05,1.18994H10.36A1.05682,1.05682,0,0,1,9.31,32.21l1.22-9.6499.71-5.64014.35-2.74a1.054,1.054,0,0,1,.58-.80993.93967.93967,0,0,1,.47-.12H35.36a.93967.93967,0,0,1,.47.12,1.054,1.054,0,0,1,.58.80993l1.06,8.38013Z"/></svg>