<svg xmlns="http://www.w3.org/2000/svg" xmlns:xlink="http://www.w3.org/1999/xlink" data-name="Layer 1" viewBox="0 0 48 48"><defs><linearGradient id="TjsZ1rjdnqwD5zPqtQlN7a" x1="30.5" x2="30.5" y1="28.604" y2="5.431" data-name="Безымянный градиент 161" gradientUnits="userSpaceOnUse"><stop offset="0" stop-color="#9e351a"/><stop offset=".198" stop-color="#b43d1d"/><stop offset=".4" stop-color="#c54320"/><stop offset=".613" stop-color="#d04722"/><stop offset=".82" stop-color="#d74923"/><stop offset="1" stop-color="#d94a23"/></linearGradient><linearGradient id="TjsZ1rjdnqwD5zPqtQlN7b" x1="20.5" x2="20.5" y1="28.277" y2="14.486" xlink:href="#TjsZ1rjdnqwD5zPqtQlN7a"/><linearGradient id="TjsZ1rjdnqwD5zPqtQlN7c" x1="24" x2="24" y1="40.162" y2="44.224" gradientUnits="userSpaceOnUse"><stop offset=".023" stop-color="#692a15"/><stop offset=".344" stop-color="#802d10"/><stop offset="1" stop-color="#8b3817"/></linearGradient><linearGradient id="TjsZ1rjdnqwD5zPqtQlN7d" x1="24" x2="24" y1="21.426" y2="44.684" gradientUnits="userSpaceOnUse"><stop offset="0" stop-color="#a34f27"/><stop offset=".587" stop-color="#8b3817"/><stop offset="1" stop-color="#802d10"/></linearGradient></defs><path fill="url(#TjsZ1rjdnqwD5zPqtQlN7a)" d="M28.827,10.77915,17.25,25h26.5L32.17305,10.77915A2.18582,2.18582,0,0,0,28.827,10.77915Z"/><path fill="url(#TjsZ1rjdnqwD5zPqtQlN7b)" d="M19.01546,8.64441,4.25,25h32.5L21.98454,8.64441A2,2,0,0,0,19.01546,8.64441Z"/><path fill="url(#TjsZ1rjdnqwD5zPqtQlN7c)" d="M15,38H33a0,0,0,0,1,0,0v4a2,2,0,0,1-2,2H17a2,2,0,0,1-2-2V38A0,0,0,0,1,15,38Z"/><path fill="url(#TjsZ1rjdnqwD5zPqtQlN7d)" d="M5,23H43a1,1,0,0,1,1,1v0A17,17,0,0,1,27,41H21A17,17,0,0,1,4,24v0A1,1,0,0,1,5,23Z"/></svg>