<svg xmlns="http://www.w3.org/2000/svg" viewBox="0 0 48 48"><linearGradient id="NkdXuu4_1JfYnb6tFQL_aa" x1="16.86" x2="29.576" y1="1.533" y2="41.546" gradientUnits="userSpaceOnUse"><stop offset="0" stop-color="#c77740"/><stop offset="1" stop-color="#b0622b"/></linearGradient><path fill="url(#NkdXuu4_1JfYnb6tFQL_aa)" d="M38,4H26c0,1.105-0.895,2-2,2s-2-0.895-2-2H10C8.895,4,8,4.895,8,6v36c0,1.105,0.895,2,2,2h28	c1.105,0,2-0.895,2-2V6C40,4.895,39.105,4,38,4z"/><linearGradient id="NkdXuu4_1JfYnb6tFQL_ab" x1="24" x2="24" y1="36.966" y2="40.893" gradientUnits="userSpaceOnUse"><stop offset=".442" stop-color="#878786"/><stop offset=".594" stop-color="#9f9f9e"/><stop offset=".859" stop-color="#c3c3c3"/><stop offset="1" stop-color="#d1d1d1"/></linearGradient><path fill="url(#NkdXuu4_1JfYnb6tFQL_ab)" d="M37,42H11c-0.552,0-1-0.448-1-1v-9h28v9C38,41.552,37.552,42,37,42z"/><path fill="#f3f3f3" d="M37,40H11c-0.552,0-1-0.448-1-1V7c0-0.552,0.448-1,1-1h26c0.552,0,1,0.448,1,1v32	C38,39.552,37.552,40,37,40z"/><linearGradient id="NkdXuu4_1JfYnb6tFQL_ac" x1="-520.93" x2="-519.046" y1="-268.928" y2="-261.091" gradientTransform="rotate(180 -248 -129.5)" gradientUnits="userSpaceOnUse"><stop offset="0" stop-color="#c3cdd9"/><stop offset="1" stop-color="#9fa7b0"/></linearGradient><path fill="url(#NkdXuu4_1JfYnb6tFQL_ac)" d="M31,8V4h-4.184C26.403,2.837,25.304,2,24,2s-2.403,0.837-2.816,2H17v4c0,0.552,0.448,1,1,1h12	C30.552,9,31,8.552,31,8z M24,4c0.552,0,1,0.448,1,1c0,0.552-0.448,1-1,1s-1-0.448-1-1C23,4.448,23.448,4,24,4z"/><path fill="#195bbc" d="M32.5,26h-11c-0.276,0-0.5-0.224-0.5-0.5v-1c0-0.276,0.224-0.5,0.5-0.5h11c0.276,0,0.5,0.224,0.5,0.5	v1C33,25.776,32.776,26,32.5,26z"/><path fill="#195bbc" d="M18,27h-2c-0.552,0-1-0.448-1-1v-2c0-0.552,0.448-1,1-1h2c0.552,0,1,0.448,1,1v2	C19,26.552,18.552,27,18,27z"/><path fill="#195bbc" d="M32.5,19h-11c-0.276,0-0.5-0.224-0.5-0.5v-1c0-0.276,0.224-0.5,0.5-0.5h11c0.276,0,0.5,0.224,0.5,0.5	v1C33,18.776,32.776,19,32.5,19z"/><path fill="#195bbc" d="M18,20h-2c-0.552,0-1-0.448-1-1v-2c0-0.552,0.448-1,1-1h2c0.552,0,1,0.448,1,1v2	C19,19.552,18.552,20,18,20z"/><path fill="#42a4eb" d="M32.5,33h-11c-0.276,0-0.5-0.224-0.5-0.5v-1c0-0.276,0.224-0.5,0.5-0.5h11c0.276,0,0.5,0.224,0.5,0.5	v1C33,32.776,32.776,33,32.5,33z"/><path fill="#42a4eb" d="M18,34h-2c-0.552,0-1-0.448-1-1v-2c0-0.552,0.448-1,1-1h2c0.552,0,1,0.448,1,1v2	C19,33.552,18.552,34,18,34z"/></svg>