<svg xmlns="http://www.w3.org/2000/svg" xmlns:xlink="http://www.w3.org/1999/xlink" data-name="Слой 1" viewBox="0 0 48 48"><defs><linearGradient id="R3gv6Sg7_73SMH0qkNZBGb" x1="17.853" x2="34.861" y1="17.603" y2="34.611" data-name="Безымянный градиент 91" gradientUnits="userSpaceOnUse"><stop offset="0" stop-color="#eba84b"/><stop offset="1" stop-color="#d97218"/></linearGradient><linearGradient id="R3gv6Sg7_73SMH0qkNZBGc" x1="16.126" x2="27.523" y1="22.866" y2="26.045" data-name="Безымянный градиент 105" gradientUnits="userSpaceOnUse"><stop offset="0" stop-color="#c26715" stop-opacity="0"/><stop offset=".168" stop-color="#c26715" stop-opacity=".019"/><stop offset=".317" stop-color="#c16615" stop-opacity=".078"/><stop offset=".458" stop-color="#c06415" stop-opacity=".176"/><stop offset=".594" stop-color="#bf6115" stop-opacity=".314"/><stop offset=".727" stop-color="#bd5e15" stop-opacity=".493"/><stop offset=".858" stop-color="#bb5a15" stop-opacity=".711"/><stop offset=".984" stop-color="#b85615" stop-opacity=".966"/><stop offset="1" stop-color="#b85515"/></linearGradient><linearGradient id="R3gv6Sg7_73SMH0qkNZBGa" x1="14.493" x2="45.211" y1="6.344" y2="26.627" data-name="Безымянный градиент 90" gradientUnits="userSpaceOnUse"><stop offset="0" stop-color="#c26715" stop-opacity="0"/><stop offset="1" stop-color="#b85515"/></linearGradient><linearGradient id="R3gv6Sg7_73SMH0qkNZBGd" x1="1.672" x2="32.389" y1="25.762" y2="46.044" xlink:href="#R3gv6Sg7_73SMH0qkNZBGa"/></defs><path fill="url(#R3gv6Sg7_73SMH0qkNZBGb)" d="M43,7.6,40.1,4.7C38.8,6,37.6,7.3,36.5,8.5a13.53956,13.53956,0,0,0-5-2.4,7.99926,7.99926,0,0,0-7.8,2.2c-2.4,2.4-3.2,5-4,8-.32,1.22-.65,2.5-1.14,3.91q-.165.48-.36.99005a27.236,27.236,0,0,0-4.81.37A9.53271,9.53271,0,0,0,8.2,23.9,8.30319,8.30319,0,0,0,6,31.7a14.11585,14.11585,0,0,0,2.3,4.8c-1,1.1-2.1,2.2-3.3,3.4l2.9,2.8c1.08-1.18005,2.16-2.26,3.25-3.34.02-.02.03-.04.05-.06a12.45016,12.45016,0,0,0,4.9,2.4,7.99954,7.99954,0,0,0,7.8-2.2c2-2,2.7-4.5,3.6-7.4.5-1.6,1-3.3,1.8-5.3,3.4.2,7.5-.3,10.1-2.9,3.6-3.6,2.8-8.69995,0-12.5C40.5,10.2,41.7,8.9,43,7.6ZM10.9,33.4a8.71812,8.71812,0,0,1-1-2.5A4.10069,4.10069,0,0,1,11,26.8a5.20216,5.20216,0,0,1,2.72-1.19A16.849,16.849,0,0,1,16.4,25.3q-.45006.87-1.02,1.83A46.04771,46.04771,0,0,1,10.9,33.4ZM23.5,31c-.7,2.6-1.3,4.4-2.6,5.7-2.2,2.2-5.2,1-7.2-.4a54.34049,54.34049,0,0,0,6.06-8.85c.36-.67.67-1.32.94-1.95,1,.1,1.8.3,2.6.4.3.1.9.2,1.7.4C24.4,28.1,23.9,29.6,23.5,31Zm3.2-8.6a11.379,11.379,0,0,1-2.3-.5h-.2a8.7484,8.7484,0,0,0-1.79-.3H22.4c.14-.36.27-.71.38-1.06.36-1.1.59-2.15.81995-3.14.7-2.8,1.3-4.69995,2.9-6.3A4.1007,4.1007,0,0,1,30.6,10a7.74375,7.74375,0,0,1,3.2,1.5A56.34852,56.34852,0,0,0,26.7,22.4Zm9.8-1.2A8.2272,8.2272,0,0,1,31,22.9a50.432,50.432,0,0,1,5.6-8.3C37.8,16.5,38.5,19.1,36.5,21.2Z"/><path fill="url(#R3gv6Sg7_73SMH0qkNZBGc)" d="M26.7,22.4c-.42.91-1.41,3.17-1.7,3.9-.8-.2-1.4-.3-1.7-.4-.8-.1-1.6-.3-2.6-.4a28.19252,28.19252,0,0,0-4.3-.2,16.849,16.849,0,0,0-2.68005.31l-.33-4.04a27.236,27.236,0,0,1,4.81-.37,25.20228,25.20228,0,0,1,4.2.4,8.89959,8.89959,0,0,1,1.8.3h.2A11.379,11.379,0,0,0,26.7,22.4Z"/><path fill="url(#R3gv6Sg7_73SMH0qkNZBGa)" d="M39.4,11.4a27.26426,27.26426,0,0,0-2.9-2.9,13.53956,13.53956,0,0,0-5-2.4,7.99926,7.99926,0,0,0-7.8,2.2c-2.4,2.4-3.2,5-4,8-.32,1.22-.65,2.5-1.14,3.91q-.165.48-.36.99005a38.02443,38.02443,0,0,1,4.2.4c.14-.36.27-.71.38-1.06.36-1.1.59-2.15.81995-3.14.7-2.8,1.3-4.69995,2.9-6.3A4.1007,4.1007,0,0,1,30.6,10a7.74375,7.74375,0,0,1,3.2,1.5,16.60433,16.60433,0,0,1,2.8,3.1c1.2,1.9,1.9,4.5-.1,6.6A8.2272,8.2272,0,0,1,31,22.9c-.31.58-1.7,3.9-1.7,3.9,3.4.2,7.5-.3,10.1-2.9C43,20.3,42.2,15.2,39.4,11.4Z"/><path fill="url(#R3gv6Sg7_73SMH0qkNZBGd)" d="M20.7,25.5c-.27.63-.58,1.28-.94,1.95A54.34049,54.34049,0,0,1,13.7,36.3s-1.97,2.47-2.5,3c-.02.02-.03.04-.05.06-1.09,1.08-2.17,2.16-3.25,3.34L5,39.9c1.2-1.2,2.3-2.3,3.3-3.4,0,0,2.05-2.25,2.6-3.1a46.04771,46.04771,0,0,0,4.48-6.27q.57-.96,1.02-1.83C17.51,25.29,20.14,25.43,20.7,25.5Z"/></svg>