<svg xmlns="http://www.w3.org/2000/svg" viewBox="0 0 48 48"><linearGradient id="t2ISSDd3dEzLvkKjdhSHba" x1="24" x2="24" y1="6.203" y2="57.716" gradientUnits="userSpaceOnUse"><stop offset="0" stop-color="#fed100"/><stop offset=".327" stop-color="#f6ba00"/><stop offset="1" stop-color="#e38101"/></linearGradient><path fill="url(#t2ISSDd3dEzLvkKjdhSHba)" d="M39,13H9v27c0,2.209,1.791,4,4,4h22c2.209,0,4-1.791,4-4V13z"/><linearGradient id="t2ISSDd3dEzLvkKjdhSHbb" x1="24.008" x2="24.008" y1="19.412" y2="48.155" gradientUnits="userSpaceOnUse"><stop offset="0" stop-color="#f09801"/><stop offset="1" stop-color="#e36001"/></linearGradient><path fill="url(#t2ISSDd3dEzLvkKjdhSHbb)" d="M21.869,26.503l2.007,3.5c0.177,0.308,0.177,0.687,0,0.995l-2.007,3.5	C21.691,34.808,21.36,35,21.002,35h-4.002c-0.358,0-0.689-0.192-0.867-0.503l-2.007-3.5c-0.177-0.308-0.177-0.687,0-0.995l2.007-3.5	C16.31,26.192,16.641,26,16.999,26h4.002C21.36,26,21.691,26.192,21.869,26.503z M31.013,21h-4.011	c-0.358,0-0.689,0.191-0.867,0.502l-2.01,3.5c-0.177,0.308-0.177,0.688,0,0.996l2.01,3.5C26.314,29.809,26.645,30,27.003,30h4.011	c0.358,0,0.689-0.191,0.867-0.502l2.01-3.5c0.177-0.308,0.177-0.688,0-0.996l-2.01-3.5C31.702,21.191,31.371,21,31.013,21z M31.013,32h-4.011c-0.358,0-0.689,0.191-0.867,0.502l-2.01,3.5c-0.177,0.308-0.177,0.688,0,0.996l2.01,3.5	C26.314,40.809,26.645,41,27.003,41h4.011c0.358,0,0.689-0.191,0.867-0.502l2.01-3.5c0.177-0.308,0.177-0.688,0-0.996l-2.01-3.5	C31.702,32.191,31.371,32,31.013,32z"/><linearGradient id="t2ISSDd3dEzLvkKjdhSHbc" x1="24" x2="24" y1="23.941" y2="5.577" gradientUnits="userSpaceOnUse"><stop offset=".07" stop-color="#a8e2f7"/><stop offset="1" stop-color="#47c1ff"/></linearGradient><path fill="url(#t2ISSDd3dEzLvkKjdhSHbc)" d="M39.657,11.387L37,9H11l-2.657,2.387c-1.093,0.982-1.6,2.525-1.118,3.913	c0.009,0.026,0.018,0.052,0.028,0.078c0.463,1.256,1.546,2.241,2.854,2.525c1.481,0.322,2.846-0.181,3.755-1.129	C14.361,16.254,15.075,16,15.795,16h0c0.78,0,1.515,0.331,2.051,0.898C19.027,18.149,21.337,19,24,19s4.973-0.851,6.154-2.102	C30.69,16.331,31.424,16,32.205,16h0c0.72,0,1.434,0.254,1.933,0.773c0.91,0.948,2.274,1.452,3.755,1.129	c1.308-0.284,2.391-1.269,2.854-2.525c0.01-0.026,0.019-0.052,0.028-0.078C41.257,13.913,40.749,12.369,39.657,11.387z"/><linearGradient id="t2ISSDd3dEzLvkKjdhSHbd" x1="9" x2="38.65" y1="7" y2="7" gradientUnits="userSpaceOnUse"><stop offset="0" stop-color="#32bdef"/><stop offset="1" stop-color="#1ea2e4"/></linearGradient><path fill="url(#t2ISSDd3dEzLvkKjdhSHbd)" d="M37,5H11C9.895,5,9,5.895,9,7v0c0,1.105,0.895,2,2,2h26c1.105,0,2-0.895,2-2v0	C39,5.895,38.105,5,37,5z"/></svg>