<svg xmlns="http://www.w3.org/2000/svg" viewBox="0 0 48 48"><linearGradient id="VQfNIgKqDIGlzGMWhELUNa" x1="21.933" x2="24.642" y1="30.639" y2="44.521" gradientUnits="userSpaceOnUse"><stop offset="0" stop-color="#20afb5"/><stop offset="1" stop-color="#16979d"/></linearGradient><path fill="url(#VQfNIgKqDIGlzGMWhELUNa)" d="M24,30.571c-8.837,0-16,4.921-16,10.286V42c0,1.105,0.895,2,2,2h28c1.105,0,2-0.895,2-2	v-1.143C40,35.492,32.837,30.571,24,30.571z"/><path fill="#d6a121" d="M29,33c0,1.897-2.83,4-5,4s-5-2.103-5-4c0-2.637,0-7.035,0-7.035h10C29,25.965,29,30.363,29,33z"/><linearGradient id="VQfNIgKqDIGlzGMWhELUNb" x1="32.917" x2="34.251" y1="20" y2="20" gradientUnits="userSpaceOnUse"><stop offset="0" stop-color="#c48f0c"/><stop offset=".251" stop-color="#d19b16"/><stop offset=".619" stop-color="#dca51f"/><stop offset="1" stop-color="#e0a922"/></linearGradient><path fill="url(#VQfNIgKqDIGlzGMWhELUNb)" d="M32.916,18h-0.527v4h0.703c0.515,0,0.954-0.312,1.041-0.74l0.344-1.703	C34.642,18.743,33.897,18,32.916,18z"/><linearGradient id="VQfNIgKqDIGlzGMWhELUNc" x1="-343.083" x2="-341.749" y1="20" y2="20" gradientTransform="matrix(-1 0 0 1 -328 0)" gradientUnits="userSpaceOnUse"><stop offset="0" stop-color="#c48f0c"/><stop offset=".251" stop-color="#d19b16"/><stop offset=".619" stop-color="#dca51f"/><stop offset="1" stop-color="#e0a922"/></linearGradient><path fill="url(#VQfNIgKqDIGlzGMWhELUNc)" d="M15.084,18h0.527v4h-0.703c-0.515,0-0.954-0.312-1.041-0.74l-0.344-1.703	C13.358,18.743,14.103,18,15.084,18z"/><radialGradient id="VQfNIgKqDIGlzGMWhELUNd" cx="5.741" cy="17.72" r="12.224" gradientTransform="translate(18.939 3.078) scale(.8816)" gradientUnits="userSpaceOnUse"><stop offset="0" stop-color="#ffcf54"/><stop offset=".261" stop-color="#fdcb4d"/><stop offset=".639" stop-color="#f7c13a"/><stop offset="1" stop-color="#f0b421"/></radialGradient><path fill="url(#VQfNIgKqDIGlzGMWhELUNd)" d="M24,6.4c-4.441,0-9,0.675-9,10.275c0,0.768,0,5.877,0,6.698C15,26.8,20.4,31,24,31	s9-4.2,9-7.627c0-0.821,0-5.929,0-6.698C33,7.075,28.441,6.4,24,6.4z"/><radialGradient id="VQfNIgKqDIGlzGMWhELUNe" cx="-3.962" cy="4.067" r="28.915" gradientTransform="translate(18.939 3.078) scale(.8816)" gradientUnits="userSpaceOnUse"><stop offset="0" stop-color="#c26715"/><stop offset=".508" stop-color="#b85515"/><stop offset="1" stop-color="#ad3f16"/></radialGradient><path fill="url(#VQfNIgKqDIGlzGMWhELUNe)" d="M24,5.545c-4.354,0-5,1.636-5,1.636c-1.77,0.261-5,2.854-5,5.818c0,1.654,0.265,2.876,1,7	c0.545-6.545,2.249-9,4-9c1.267,0,2.273,1,5,1c2.303,0,2.875-1,5-1c3,0,4,7.968,4,9c0.601-3.01,1-5.555,1-7	C34,9.57,30.209,5.545,24,5.545z"/><radialGradient id="VQfNIgKqDIGlzGMWhELUNf" cx="-3.364" cy="6.003" r="33.398" gradientTransform="matrix(.8431 0 0 .8816 25.402 3.078)" gradientUnits="userSpaceOnUse"><stop offset="0" stop-color="#c26715"/><stop offset=".508" stop-color="#b85515"/><stop offset="1" stop-color="#ad3f16"/></radialGradient><path fill="url(#VQfNIgKqDIGlzGMWhELUNf)" d="M24.219,5c-4.164,0-5.216,2.182-5.216,2.182c-0.042,1.159,0.522,2.182,0.522,2.182	S20.285,11,24.625,11C27.245,11,31,9.365,31,5C31,5,30.157,5,24.219,5z"/><linearGradient id="VQfNIgKqDIGlzGMWhELUNg" x1="40.5" x2="40.5" y1="7.128" y2="23.841" gradientUnits="userSpaceOnUse"><stop offset="0" stop-color="#33bef0"/><stop offset="1" stop-color="#0a85d9"/></linearGradient><path fill="url(#VQfNIgKqDIGlzGMWhELUNg)" d="M47,7H34c-0.552,0-1,0.448-1,1v14.398c0,0.495,0.656,0.67,0.903,0.242L36,19h11	c0.552,0,1-0.448,1-1V8C48,7.448,47.552,7,47,7z"/></svg>