<svg xmlns="http://www.w3.org/2000/svg" data-name="Слой 1" viewBox="0 0 48 48"><defs><linearGradient id="Gk5~Bq5yWf5IAIUoIq_jda" x1="3.815" x2="3.815" y1="15.723" y2="22.602" data-name="Безымянный градиент 54" gradientTransform="rotate(-45 6.99 19.5)" gradientUnits="userSpaceOnUse"><stop offset="0" stop-color="#dfe9f2"/><stop offset=".569" stop-color="#d6e0e9"/><stop offset=".806" stop-color="#bfc8d1"/></linearGradient><linearGradient id="Gk5~Bq5yWf5IAIUoIq_jdb" x1="36" x2="43" y1="12" y2="12" data-name="Безымянный градиент 53" gradientUnits="userSpaceOnUse"><stop offset="0" stop-color="#dedede"/><stop offset="1" stop-color="#d6d6d6"/></linearGradient><linearGradient id="Gk5~Bq5yWf5IAIUoIq_jdc" x1="19.576" x2="31.762" y1="15.453" y2="48.932" data-name="Новый образец градиентной зал 2" gradientUnits="userSpaceOnUse"><stop offset="0" stop-color="#2aa4f4"/><stop offset="1" stop-color="#007ad9"/></linearGradient><linearGradient id="Gk5~Bq5yWf5IAIUoIq_jdd" x1="24.069" x2="26.055" y1="22.813" y2="31.748" data-name="Безымянный градиент 147" gradientUnits="userSpaceOnUse"><stop offset="0" stop-color="#dfe9f2"/><stop offset=".391" stop-color="#d6e0e9"/><stop offset="1" stop-color="#bfc8d1"/></linearGradient></defs><path fill="url(#Gk5~Bq5yWf5IAIUoIq_jda)" d="M7.38319,22.74326,5.74326,24.38319,1.7282,21.50933a1.89753,1.89753,0,0,1-.11473-2.89585h0a1.89753,1.89753,0,0,1,2.89585.11473Z"/><polygon fill="#f0f0f0" points="10 11.5 10 12.5 8 14 6 13.2 3 12 6 10.8 8 10 10 11.5"/><polygon fill="#edbe00" points="38 12 36 14 8 14 8 10 36 10 38 12"/><polygon fill="url(#Gk5~Bq5yWf5IAIUoIq_jdb)" points="43 12 42 14 36 14 36 10 42 10 43 12"/><path fill="#c94f60" d="M42,10h2a1,1,0,0,1,1,1v2a1,1,0,0,1-1,1H42a0,0,0,0,1,0,0V10A0,0,0,0,1,42,10Z"/><path fill="url(#Gk5~Bq5yWf5IAIUoIq_jdc)" d="M7,22H43a2,2,0,0,1,2,2V36a6,6,0,0,1-6,6H11a6,6,0,0,1-6-6V24A2,2,0,0,1,7,22Z"/><path d="M40,26a1,1,0,0,1,0,2H10a1,1,0,0,1,0-2H40m0-1H10a2,2,0,0,0,0,4H40a2,2,0,0,0,0-4Z" opacity=".05"/><path d="M40,26a1,1,0,0,1,0,2H10a1,1,0,0,1,0-2H40m0-.5H10a1.5,1.5,0,0,0,0,3H40a1.5,1.5,0,0,0,0-3Z" opacity=".07"/><rect width="32" height="2" x="9" y="26" fill="url(#Gk5~Bq5yWf5IAIUoIq_jdd)" rx="1"/><polygon fill="#787878" points="5 11.2 3 12 5 12.8 5 11.2"/></svg>