<svg xmlns="http://www.w3.org/2000/svg" viewBox="0 0 48 48"><path fill="#d35230" d="M41,6v36c0,1.105-0.895,2-2,2h-5V4h5C40.105,4,41,4.895,41,6z"/><linearGradient id="wF_flmyLL7miAVofbsCUFa" x1="-140.143" x2="-140.143" y1="644.695" y2="647.837" gradientTransform="rotate(-90 -362.933 246.79)" gradientUnits="userSpaceOnUse"><stop offset=".441" stop-color="#999998"/><stop offset=".653" stop-color="#c1c1c0"/><stop offset=".88" stop-color="#e5e5e5"/><stop offset="1" stop-color="#f3f3f3"/></linearGradient><path fill="url(#wF_flmyLL7miAVofbsCUFa)" d="M39,6v36c0,1.105-0.895,2-2,2h-6V4h6C38.105,4,39,4.895,39,6z"/><linearGradient id="wF_flmyLL7miAVofbsCUFb" x1="3.638" x2="15.691" y1="1026.572" y2="1059.405" gradientTransform="translate(0 -1018)" gradientUnits="userSpaceOnUse"><stop offset="0" stop-color="#ca4e2a"/><stop offset="1" stop-color="#b63016"/></linearGradient><path fill="url(#wF_flmyLL7miAVofbsCUFb)" d="M7,6v36c0,1.105,0.895,2,2,2h2V4H9C7.895,4,7,4.895,7,6z"/><path fill="#ed6c47" d="M35,4H11v40h24c1.105,0,2-0.895,2-2V6C37,4.895,36.105,4,35,4z"/><linearGradient id="wF_flmyLL7miAVofbsCUFc" x1="15.079" x2="24.187" y1="-.511" y2="24.514" gradientUnits="userSpaceOnUse"><stop offset="0" stop-color="#ffd869"/><stop offset="1" stop-color="#fec52b"/></linearGradient><path fill="url(#wF_flmyLL7miAVofbsCUFc)" d="M35,42H13V6h22V42z M15,40h18V8H15V40z"/><linearGradient id="wF_flmyLL7miAVofbsCUFd" x1="15.394" x2="24.178" y1=".362" y2="24.496" gradientUnits="userSpaceOnUse"><stop offset="0" stop-color="#ffd869"/><stop offset="1" stop-color="#fec52b"/></linearGradient><path fill="url(#wF_flmyLL7miAVofbsCUFd)" d="M29.996,23l-0.027,2c0,0.553-0.445,1-0.995,1H28v2h-2.035v1c0,0.553-0.447,1-1,1h-1.969	c-0.552,0-1-0.447-1-1v-1H20v-2h-1.004C18.446,26,18,25.553,18,25l0.027-2c0-0.553,0.446-1,0.996-1H20v-2h1.996v-1	c0-0.553,0.448-1,1-1h1.969c0.553,0,1,0.447,1,1v1H28v2h1C29.551,22,29.996,22.447,29.996,23z M23.996,16.998c1.104,0,2,0.104,2-1	s-2-2-2-2s-2,0.896-2,2C21.996,17.103,22.892,16.998,23.996,16.998z M23.996,31c1.104,0,2-0.104,2,1s-2,2-2,2s-2-0.896-2-2	S22.892,31,23.996,31z"/></svg>