<svg xmlns="http://www.w3.org/2000/svg" viewBox="0 0 48 48"><path fill="#35c1f1" d="M32.187,24c0-3.608-1.618-6.831-4.161-9.005c-0.402-0.344-1-0.331-1.374,0.044l-3.405,3.405	c1.996,1.051,3.359,3.143,3.359,5.556s-1.363,4.505-3.359,5.556l3.405,3.405c0.374,0.374,0.972,0.388,1.374,0.044	C30.569,30.831,32.187,27.608,32.187,24z"/><path fill="#50e6ff" d="M17.69,24l5.556,5.556c1.996-1.051,3.359-3.143,3.359-5.556s-1.363-4.505-3.359-5.556L17.69,24z"/><path fill="#5c6369" d="M12,32H8c-1.105,0-2-0.895-2-2V18c0-1.105,0.895-2,2-2h4V32z"/><polygon fill="#727d86" points="21,42 12,32 12,16 21,6"/><linearGradient id="unwwrye2p~wg0hRe~Inxaa" x1="12.403" x2="28.927" y1="11.868" y2="32.757" gradientUnits="userSpaceOnUse"><stop offset="0" stop-color="#a1aab3"/><stop offset="1" stop-color="#8f979e"/></linearGradient><path fill="url(#unwwrye2p~wg0hRe~Inxaa)" d="M22,5L22,5c-0.552,0-1,0.448-1,1v36c0,0.552,0.448,1,1,1h0c0.552,0,1-0.448,1-1V6	C23,5.448,22.552,5,22,5z"/></svg>