<svg xmlns="http://www.w3.org/2000/svg" viewBox="0 0 48 48"><path fill="#0d3592" d="M15,8C6.716,8,0,14.716,0,23s6.716,15,15,15s15-6.716,15-15S23.284,8,15,8z"/><linearGradient id="y50ACVToa_J4gQ2xvv4UJa" x1="20.775" x2="42.534" y1="12.183" y2="31.436" gradientUnits="userSpaceOnUse"><stop offset="0" stop-color="#2b92f3"/><stop offset="1" stop-color="#1166d2"/></linearGradient><path fill="url(#y50ACVToa_J4gQ2xvv4UJa)" d="M33,8c-8.284,0-15,6.716-15,15s6.716,15,15,15s15-6.716,15-15S41.284,8,33,8z"/><path fill="#0d3592" d="M30,23c0,4.17-1.74,7.9-4.47,10.64C25.05,34.13,24.54,34.58,24,35c-0.04-0.04-0.09-0.07-0.13-0.1	c-0.18-0.15-0.36-0.29-0.53-0.44c-2.78-2.41-4.73-5.75-5.22-9.56c-0.04-0.33-0.07-0.67-0.09-1.01C18.01,23.6,18,23.3,18,23	s0.01-0.6,0.03-0.89c0.02-0.35,0.05-0.69,0.1-1.02c0.07-0.56,0.17-1.11,0.3-1.65c0.07-0.29,0.15-0.57,0.24-0.85	c0.26-0.84,0.59-1.65,0.98-2.41c0.13-0.26,0.27-0.51,0.41-0.76c0.15-0.25,0.3-0.49,0.46-0.73c0.15-0.22,0.3-0.44,0.46-0.66	c0.15-0.2,0.29-0.38,0.45-0.57c0.14-0.16,0.28-0.32,0.42-0.48c0.02-0.03,0.05-0.06,0.08-0.09c0.15-0.17,0.31-0.33,0.47-0.49	c0.15-0.15,0.31-0.3,0.47-0.46C23.23,11.61,23.6,11.3,24,11c0.54,0.42,1.05,0.87,1.53,1.36C28.26,15.1,30,18.83,30,23z"/><path fill="#105cbd" d="M20,23c0-4.39,2.19-8.28,5.53-10.64C25.05,11.87,24.54,11.42,24,11c-0.4,0.3-0.77,0.61-1.13,0.94	c-0.16,0.16-0.32,0.31-0.47,0.46c-0.16,0.16-0.32,0.32-0.47,0.49c-0.03,0.03-0.06,0.06-0.08,0.09c-0.14,0.16-0.28,0.32-0.42,0.48	c-0.16,0.19-0.3,0.37-0.45,0.57c-0.16,0.22-0.31,0.44-0.46,0.66c-0.16,0.24-0.31,0.48-0.46,0.73c-0.14,0.25-0.28,0.5-0.41,0.76	c-0.4,0.77-0.73,1.57-0.98,2.41c-0.09,0.28-0.17,0.56-0.24,0.85c-0.14,0.54-0.24,1.09-0.3,1.65c-0.05,0.33-0.08,0.67-0.1,1.02	C18.01,22.4,18,22.7,18,23s0.01,0.6,0.03,0.89c0.02,0.34,0.05,0.68,0.09,1.01c0.49,3.83,2.41,7.2,5.22,9.56	c0.17,0.15,0.35,0.29,0.53,0.44c0.04,0.03,0.09,0.06,0.13,0.1c0.54-0.42,1.05-0.87,1.53-1.36C22.19,31.28,20,27.39,20,23z"/></svg>