<svg xmlns="http://www.w3.org/2000/svg" viewBox="0 0 48 48"><path fill="#0d62ab" d="M7,7v21c0,0.552,0.448,1,1,1h18c0.552,0,1-0.448,1-1V7c0-1.105-0.895-2-2-2H9C7.895,5,7,5.895,7,7z"/><rect width="2" height="2" x="10" y="16" fill="#199be2"/><rect width="2" height="2" x="10" y="12" fill="#199be2"/><rect width="2" height="2" x="10" y="20" fill="#199be2"/><rect width="2" height="2" x="10" y="24" fill="#199be2"/><path fill="#0078d4" d="M27,9H7C6.447,9,6,8.552,6,8s0.447-1,1-1h20c0.553,0,1,0.448,1,1S27.553,9,27,9z"/><path fill="#199be2" d="M14,14v21c0,0.552,0.448,1,1,1h18c0.552,0,1-0.448,1-1V14c0-1.105-0.895-2-2-2H16 C14.895,12,14,12.895,14,14z"/><rect width="2" height="2" x="17" y="23" fill="#0078d4"/><rect width="2" height="2" x="17" y="19" fill="#0078d4"/><rect width="2" height="2" x="17" y="27" fill="#0078d4"/><rect width="2" height="2" x="17" y="31" fill="#0078d4"/><path fill="#35c1f1" d="M34,16H14c-0.553,0-1-0.448-1-1s0.447-1,1-1h20c0.553,0,1,0.448,1,1S34.553,16,34,16z"/><path fill="#35c1f1" d="M21,21v21c0,0.552,0.448,1,1,1h18c0.552,0,1-0.448,1-1V21c0-1.105-0.895-2-2-2H23	C21.895,19,21,19.895,21,21z"/><g><rect width="2" height="2" x="32" y="30" fill="#199be2"/><rect width="2" height="2" x="28" y="30" fill="#199be2"/><rect width="2" height="2" x="24" y="30" fill="#199be2"/><rect width="2" height="2" x="32" y="26" fill="#199be2"/><rect width="2" height="2" x="28" y="26" fill="#199be2"/><rect width="2" height="2" x="36" y="30" fill="#199be2"/><rect width="2" height="2" x="36" y="26" fill="#199be2"/><rect width="2" height="2" x="24" y="26" fill="#199be2"/><rect width="2" height="2" x="32" y="34" fill="#199be2"/><rect width="2" height="2" x="28" y="34" fill="#199be2"/><rect width="2" height="2" x="24" y="34" fill="#199be2"/><rect width="2" height="2" x="36" y="34" fill="#199be2"/><rect width="2" height="2" x="32" y="38" fill="#199be2"/><rect width="2" height="2" x="28" y="38" fill="#199be2"/><rect width="2" height="2" x="36" y="38" fill="#199be2"/><rect width="2" height="2" x="24" y="38" fill="#199be2"/></g><path fill="#50e6ff" d="M41,23H21c-0.553,0-1-0.448-1-1s0.447-1,1-1h20c0.553,0,1,0.448,1,1S41.553,23,41,23z"/></svg>