<svg xmlns="http://www.w3.org/2000/svg" viewBox="0 0 48 48"><path fill="#64717c" d="M38,8h2v2c0,0.6,0.4,1,1,1l0,0c0.6,0,1-0.4,1-1V8c0-1.1-0.9-2-2-2h-2c-0.6,0-1,0.4-1,1l0,0C37,7.6,37.4,8,38,8z"/><path fill="#64717c" d="M8,10V8h2c0.6,0,1-0.4,1-1l0,0c0-0.6-0.4-1-1-1H8C6.9,6,6,6.9,6,8v2c0,0.6,0.4,1,1,1l0,0C7.6,11,8,10.6,8,10z"/><path fill="#64717c" d="M40,38v2h-2c-0.6,0-1,0.4-1,1l0,0c0,0.6,0.4,1,1,1h2c1.1,0,2-0.9,2-2v-2c0-0.6-0.4-1-1-1l0,0	C40.4,37,40,37.4,40,38z"/><path fill="#64717c" d="M10,40H8v-2c0-0.6-0.4-1-1-1l0,0c-0.6,0-1,0.4-1,1v2c0,1.1,0.9,2,2,2h2c0.6,0,1-0.4,1-1l0,0	C11,40.4,10.6,40,10,40z"/><path fill="#64717c" d="M14,6c0.6,0,1,0.4,1,1s-0.4,1-1,1s-1-0.4-1-1S13.4,6,14,6z M17,7c0,0.6,0.4,1,1,1s1-0.4,1-1s-0.4-1-1-1	S17,6.4,17,7z M21,7c0,0.6,0.4,1,1,1s1-0.4,1-1s-0.4-1-1-1S21,6.4,21,7z M29,7c0,0.6,0.4,1,1,1s1-0.4,1-1s-0.4-1-1-1S29,6.4,29,7z M33,7c0,0.6,0.4,1,1,1s1-0.4,1-1s-0.4-1-1-1S33,6.4,33,7z M25,7c0,0.6,0.4,1,1,1s1-0.4,1-1s-0.4-1-1-1S25,6.4,25,7z"/><path fill="#64717c" d="M14,40c0.6,0,1,0.4,1,1s-0.4,1-1,1s-1-0.4-1-1S13.4,40,14,40z M17,41c0,0.6,0.4,1,1,1s1-0.4,1-1s-0.4-1-1-1	S17,40.4,17,41z M21,41c0,0.6,0.4,1,1,1s1-0.4,1-1s-0.4-1-1-1S21,40.4,21,41z M29,41c0,0.6,0.4,1,1,1s1-0.4,1-1s-0.4-1-1-1	S29,40.4,29,41z M33,41c0,0.6,0.4,1,1,1s1-0.4,1-1s-0.4-1-1-1S33,40.4,33,41z M25,41c0,0.6,0.4,1,1,1s1-0.4,1-1s-0.4-1-1-1	S25,40.4,25,41z"/><path fill="#64717c" d="M41,13c0.6,0,1,0.4,1,1s-0.4,1-1,1s-1-0.4-1-1S40.4,13,41,13z M40,18c0,0.6,0.4,1,1,1s1-0.4,1-1s-0.4-1-1-1	S40,17.4,40,18z M40,22c0,0.6,0.4,1,1,1s1-0.4,1-1s-0.4-1-1-1S40,21.4,40,22z M40,30c0,0.6,0.4,1,1,1s1-0.4,1-1s-0.4-1-1-1	S40,29.4,40,30z M40,34c0,0.6,0.4,1,1,1s1-0.4,1-1s-0.4-1-1-1S40,33.4,40,34z M40,26c0,0.6,0.4,1,1,1s1-0.4,1-1s-0.4-1-1-1	S40,25.4,40,26z"/><path fill="#64717c" d="M7,13c0.6,0,1,0.4,1,1s-0.4,1-1,1s-1-0.4-1-1S6.4,13,7,13z M6,18c0,0.6,0.4,1,1,1s1-0.4,1-1s-0.4-1-1-1	S6,17.4,6,18z M6,22c0,0.6,0.4,1,1,1s1-0.4,1-1s-0.4-1-1-1S6,21.4,6,22z M6,30c0,0.6,0.4,1,1,1s1-0.4,1-1s-0.4-1-1-1S6,29.4,6,30z M6,34c0,0.6,0.4,1,1,1s1-0.4,1-1s-0.4-1-1-1S6,33.4,6,34z M6,26c0,0.6,0.4,1,1,1s1-0.4,1-1s-0.4-1-1-1S6,25.4,6,26z"/></svg>