<svg xmlns="http://www.w3.org/2000/svg" viewBox="0 0 48 48"><linearGradient id="QpOqGZVHnSHn545VJt8Nia" x1="17.271" x2="30.19" y1="10.439" y2="36.476" gradientUnits="userSpaceOnUse"><stop offset="0" stop-color="#899198"/><stop offset="1" stop-color="#787e85"/></linearGradient><path fill="url(#QpOqGZVHnSHn545VJt8Nia)" d="M47,35V13c0-1.105-0.895-2-2-2H3c-1.105,0-2,0.895-2,2v22c0,1.105,0.895,2,2,2h42	C46.105,37,47,36.105,47,35z"/><path fill="#cad2d9" d="M4,21v-2c0-0.552,0.448-1,1-1h2c0.552,0,1,0.448,1,1v2c0,0.552-0.448,1-1,1H5C4.448,22,4,21.552,4,21	z"/><path fill="#cad2d9" d="M10,21v-2c0-0.552,0.448-1,1-1h2c0.552,0,1,0.448,1,1v2c0,0.552-0.448,1-1,1h-2	C10.448,22,10,21.552,10,21z"/><path fill="#cad2d9" d="M16,21v-2c0-0.552,0.448-1,1-1h2c0.552,0,1,0.448,1,1v2c0,0.552-0.448,1-1,1h-2	C16.448,22,16,21.552,16,21z"/><path fill="#cad2d9" d="M22,21v-2c0-0.552,0.448-1,1-1h2c0.552,0,1,0.448,1,1v2c0,0.552-0.448,1-1,1h-2	C22.448,22,22,21.552,22,21z"/><path fill="#cad2d9" d="M28,21v-2c0-0.552,0.448-1,1-1h2c0.552,0,1,0.448,1,1v2c0,0.552-0.448,1-1,1h-2	C28.448,22,28,21.552,28,21z"/><path fill="#cad2d9" d="M34,21v-2c0-0.552,0.448-1,1-1h2c0.552,0,1,0.448,1,1v2c0,0.552-0.448,1-1,1h-2	C34.448,22,34,21.552,34,21z"/><path fill="#cad2d9" d="M40,21v-2c0-0.552,0.448-1,1-1h2c0.552,0,1,0.448,1,1v2c0,0.552-0.448,1-1,1h-2	C40.448,22,40,21.552,40,21z"/><path fill="#cad2d9" d="M4,33v-2c0-0.552,0.448-1,1-1h2c0.552,0,1,0.448,1,1v2c0,0.552-0.448,1-1,1H5C4.448,34,4,33.552,4,33	z"/><path fill="#cad2d9" d="M10,33v-2c0-0.552,0.448-1,1-1h2c0.552,0,1,0.448,1,1v2c0,0.552-0.448,1-1,1h-2	C10.448,34,10,33.552,10,33z"/><path fill="#cad2d9" d="M16,33v-2c0-0.552,0.448-1,1-1h14c0.552,0,1,0.448,1,1v2c0,0.552-0.448,1-1,1H17	C16.448,34,16,33.552,16,33z"/><path fill="#cad2d9" d="M34,33v-2c0-0.552,0.448-1,1-1h2c0.552,0,1,0.448,1,1v2c0,0.552-0.448,1-1,1h-2	C34.448,34,34,33.552,34,33z"/><path fill="#cad2d9" d="M40,33v-2c0-0.552,0.448-1,1-1h2c0.552,0,1,0.448,1,1v2c0,0.552-0.448,1-1,1h-2	C40.448,34,40,33.552,40,33z"/><path fill="#cad2d9" d="M4,27v-2c0-0.552,0.448-1,1-1h5c0.552,0,1,0.448,1,1v2c0,0.552-0.448,1-1,1H5C4.448,28,4,27.552,4,27	z"/><path fill="#cad2d9" d="M13,27v-2c0-0.552,0.448-1,1-1h2c0.552,0,1,0.448,1,1v2c0,0.552-0.448,1-1,1h-2	C13.448,28,13,27.552,13,27z"/><path fill="#cad2d9" d="M19,27v-2c0-0.552,0.448-1,1-1h2c0.552,0,1,0.448,1,1v2c0,0.552-0.448,1-1,1h-2	C19.448,28,19,27.552,19,27z"/><path fill="#cad2d9" d="M25,27v-2c0-0.552,0.448-1,1-1h2c0.552,0,1,0.448,1,1v2c0,0.552-0.448,1-1,1h-2	C25.448,28,25,27.552,25,27z"/><path fill="#cad2d9" d="M31,27v-2c0-0.552,0.448-1,1-1h2c0.552,0,1,0.448,1,1v2c0,0.552-0.448,1-1,1h-2	C31.448,28,31,27.552,31,27z"/><path fill="#cad2d9" d="M37,27v-2c0-0.552,0.448-1,1-1h5c0.552,0,1,0.448,1,1v2c0,0.552-0.448,1-1,1h-5	C37.448,28,37,27.552,37,27z"/><circle cx="6" cy="15" r="1" fill="#cad2d9"/><circle cx="10" cy="15" r="1" fill="#cad2d9"/><circle cx="14" cy="15" r="1" fill="#cad2d9"/><circle cx="18" cy="15" r="1" fill="#cad2d9"/><circle cx="22" cy="15" r="1" fill="#cad2d9"/><circle cx="26" cy="15" r="1" fill="#cad2d9"/><circle cx="30" cy="15" r="1" fill="#cad2d9"/><circle cx="34" cy="15" r="1" fill="#cad2d9"/><circle cx="38" cy="15" r="1" fill="#cad2d9"/><circle cx="42" cy="15" r="1" fill="#cad2d9"/></svg>