<svg xmlns="http://www.w3.org/2000/svg" viewBox="0 0 48 48"><linearGradient id="a3GIsRaCRuWdrz1N3Onv2a" x1="14" x2="14" y1="2.059" y2="44.53" gradientUnits="userSpaceOnUse"><stop offset="0" stop-color="#d4943b"/><stop offset="1" stop-color="#c2620e"/><stop offset="1" stop-color="#c2620e"/></linearGradient><path fill="url(#a3GIsRaCRuWdrz1N3Onv2a)" d="M14,38c-4.561,0-8-3.01-8-7c0-2.24,0.934-4.43,2.437-5.712 c0.633-0.541,1.114-1.238,1.394-2.017c0.51-1.322,0.374-2.891-0.38-4.153c-0.154-0.271-0.344-0.532-0.56-0.768 C8.05,17.379,7,15.804,7,14.08c0-2.809,0.529-5.192,7-7.919c6.043,2.547,6.904,4.794,6.991,7.368l-0.003,0.551 c0,1.853-1.224,3.52-1.953,4.349c-0.216,0.261-0.376,0.471-0.508,0.697c-0.745,1.217-0.886,2.798-0.355,4.192 c0.307,0.778,0.785,1.451,1.392,1.969C21.066,26.57,22,28.76,22,31C22,34.99,18.561,38,14,38z"/><linearGradient id="a3GIsRaCRuWdrz1N3Onv2b" x1="14" x2="14" y1="2.176" y2="46.471" gradientUnits="userSpaceOnUse"><stop offset="0" stop-color="#eba84b"/><stop offset="1" stop-color="#d97218"/></linearGradient><path fill="url(#a3GIsRaCRuWdrz1N3Onv2b)" d="M20.862,23.766c-0.382-0.326-0.652-0.731-0.821-1.159c-0.304-0.799-0.247-1.721,0.214-2.475 c0.079-0.135,0.18-0.259,0.281-0.382c1.328-1.508,2.453-3.499,2.453-5.67H23c0-4.32-1.766-7.2-9-10.08C6.766,6.88,5,9.76,5,14.08 c0,2.149,1.114,4.118,2.419,5.625c0.124,0.135,0.225,0.281,0.315,0.439c0.45,0.754,0.518,1.665,0.214,2.452 c-0.158,0.439-0.427,0.844-0.81,1.17C5.135,25.476,4,28.278,4,31c0,5.164,4.409,9,10,9c5.591,0,10-3.836,10-9 C24,28.278,22.865,25.476,20.862,23.766z M21.839,29.4c-2.272,0.92-4.555,1.443-6.839,1.56v-7.011 c1.063-0.078,2.125-0.276,3.184-0.605c0.307,0.767,0.78,1.432,1.38,1.943C20.704,26.261,21.514,27.757,21.839,29.4z M19.035,18.429 c-0.216,0.261-0.376,0.471-0.508,0.697c-0.404,0.66-0.624,1.427-0.662,2.213c-0.96,0.323-1.914,0.532-2.866,0.616v-5.989 c1.987-0.117,3.972-0.587,5.95-1.398C20.764,16.221,19.7,17.673,19.035,18.429z M20.886,12.419 c-1.976,0.903-3.932,1.425-5.886,1.557V6.603C19.339,8.603,20.561,10.437,20.886,12.419z M13,6.604v7.371 c-1.953-0.132-3.91-0.654-5.886-1.557C7.439,10.437,8.664,8.603,13,6.604z M7.035,14.562c1.983,0.815,3.973,1.287,5.965,1.404 v5.989c-0.956-0.084-1.915-0.296-2.88-0.621c-0.044-0.77-0.264-1.537-0.669-2.216c-0.154-0.271-0.344-0.532-0.56-0.768 C8.129,17.471,7.204,16.094,7.035,14.562z M8.437,25.288c0.614-0.525,1.082-1.199,1.365-1.95c1.064,0.331,2.131,0.531,3.199,0.61 v7.011c-2.285-0.117-4.568-0.64-6.839-1.56C6.486,27.757,7.296,26.261,8.437,25.288z M6.027,31.496 c2.317,0.871,4.645,1.362,6.973,1.471v4.979C9.132,37.558,6.279,34.944,6.027,31.496z M15,37.945v-4.979 c2.329-0.109,4.656-0.6,6.973-1.471C21.721,34.944,18.868,37.558,15,37.945z"/><g><linearGradient id="a3GIsRaCRuWdrz1N3Onv2c" x1="25.919" x2="25.919" y1="28.25" y2="45.045" gradientUnits="userSpaceOnUse"><stop offset="0" stop-color="#eba84b"/><stop offset="1" stop-color="#d97218"/></linearGradient><path fill="url(#a3GIsRaCRuWdrz1N3Onv2c)" d="M10,35c0-4.561,3.01-8,7-8c2.24,0,4.43,0.934,5.712,2.437 c0.541,0.633,1.238,1.114,2.017,1.394c1.322,0.51,2.891,0.374,4.153-0.38c0.271-0.154,0.532-0.344,0.768-0.56 C30.621,29.05,32.196,28,33.92,28c2.809,0,5.192,0.529,7.919,7c-2.547,6.043-4.794,6.904-7.368,6.991l-0.551-0.003 c-1.853,0-3.52-1.224-4.349-1.953c-0.261-0.216-0.471-0.376-0.697-0.508c-1.217-0.745-2.798-0.886-4.192-0.355 c-0.778,0.307-1.451,0.785-1.969,1.392C21.43,42.066,19.24,43,17,43C13.01,43,10,39.561,10,35z"/><linearGradient id="a3GIsRaCRuWdrz1N3Onv2d" x1="26" x2="26" y1="25.559" y2="47.9" gradientUnits="userSpaceOnUse"><stop offset="0" stop-color="#ffcf7b"/><stop offset=".196" stop-color="#fecd76"/><stop offset=".439" stop-color="#fac666"/><stop offset=".709" stop-color="#f3bc4d"/><stop offset=".995" stop-color="#eaad2a"/><stop offset="1" stop-color="#eaad29"/></linearGradient><path fill="url(#a3GIsRaCRuWdrz1N3Onv2d)" d="M33.92,26c-2.149,0-4.118,1.114-5.625,2.419c-0.135,0.124-0.281,0.225-0.439,0.315 c-0.754,0.45-1.665,0.518-2.452,0.214c-0.439-0.158-0.844-0.428-1.17-0.81C22.524,26.135,19.722,25,17,25c-5.164,0-9,4.409-9,10 c0,5.591,3.836,10,9,10c2.722,0,5.524-1.135,7.234-3.138c0.326-0.383,0.731-0.652,1.159-0.821c0.799-0.304,1.721-0.247,2.475,0.214 c0.135,0.079,0.259,0.18,0.382,0.281c1.508,1.327,3.499,2.452,5.67,2.452V44c4.32,0,7.2-1.766,10.08-9 C41.12,27.766,38.24,26,33.92,26z M41.396,34h-7.372c0.132-1.953,0.654-3.91,1.558-5.886C37.563,28.439,39.397,29.664,41.396,34z M28.882,30.45c0.271-0.154,0.532-0.344,0.768-0.56c0.88-0.762,2.257-1.686,3.789-1.855c-0.815,1.983-1.287,3.973-1.404,5.965 h-5.99c0.084-0.956,0.296-1.915,0.621-2.88C27.436,31.076,28.203,30.856,28.882,30.45z M22.712,29.437 c0.525,0.614,1.199,1.082,1.95,1.365c-0.331,1.064-0.531,2.131-0.61,3.199H17.04c0.117-2.285,0.64-4.568,1.56-6.839 C20.243,27.486,21.739,28.296,22.712,29.437z M16.504,27.027c-0.871,2.317-1.362,4.644-1.471,6.973h-4.978 C10.442,30.132,13.056,27.279,16.504,27.027z M10.055,36h4.978c0.109,2.329,0.6,4.656,1.471,6.973 C13.056,42.721,10.442,39.868,10.055,36z M22.713,40.563c-0.974,1.14-2.47,1.95-4.113,2.276c-0.92-2.272-1.443-4.555-1.56-6.839 h7.012c0.078,1.063,0.276,2.125,0.604,3.184C23.889,39.491,23.225,39.964,22.713,40.563z M28.874,39.527 c-0.66-0.404-1.427-0.624-2.213-0.662c-0.323-0.96-0.532-1.914-0.616-2.866h5.99c0.117,1.987,0.587,3.972,1.398,5.95 c-1.653-0.186-3.106-1.25-3.861-1.915C29.311,39.819,29.101,39.659,28.874,39.527z M35.581,41.886 c-0.904-1.976-1.426-3.932-1.558-5.886h7.374C39.397,40.339,37.563,41.561,35.581,41.886z"/></g></svg>