<svg xmlns="http://www.w3.org/2000/svg" viewBox="0 0 48 48"><linearGradient id="~o4KAfQu_U39NfCTRuM5na" x1="9.276" x2="36.595" y1="3.152" y2="41.833" gradientUnits="userSpaceOnUse"><stop offset="0" stop-color="#889097"/><stop offset=".331" stop-color="#848c94"/><stop offset=".669" stop-color="#78828b"/><stop offset="1" stop-color="#64717c"/></linearGradient><path fill="url(#~o4KAfQu_U39NfCTRuM5na)" fill-rule="evenodd" d="M12,8.003l0.018,11.898l-3.677,5.454	C8.119,25.686,8,26.075,8,26.473V40c0,1.105,0.895,2,2,2h28c1.105,0,2-0.895,2-2V8c0-1.105-0.895-2-2-2H14	C12.894,6,11.998,6.897,12,8.003z" clip-rule="evenodd"/><path fill-rule="evenodd" d="M33.5,18c-0.827,0-1.5-0.673-1.5-1.5v-8	C32,7.673,32.673,7,33.5,7h3C37.327,7,38,7.673,38,8.5v8c0,0.827-0.673,1.5-1.5,1.5H33.5z" clip-rule="evenodd" opacity=".05"/><path fill-rule="evenodd" d="M33.5,17.5c-0.551,0-1-0.449-1-1v-8c0-0.551,0.449-1,1-1h3	c0.551,0,1,0.449,1,1v8c0,0.551-0.449,1-1,1H33.5z" clip-rule="evenodd" opacity=".07"/><linearGradient id="~o4KAfQu_U39NfCTRuM5nb" x1="35" x2="35" y1="4.469" y2="19.363" gradientUnits="userSpaceOnUse"><stop offset="0" stop-color="#ffda1c"/><stop offset="1" stop-color="#feb705"/></linearGradient><path fill="url(#~o4KAfQu_U39NfCTRuM5nb)" fill-rule="evenodd" d="M33.5,8h3C36.776,8,37,8.224,37,8.5v8	c0,0.276-0.224,0.5-0.5,0.5h-3c-0.276,0-0.5-0.224-0.5-0.5v-8C33,8.224,33.224,8,33.5,8z" clip-rule="evenodd"/><path fill-rule="evenodd" d="M27.5,18c-0.827,0-1.5-0.673-1.5-1.5v-8	C26,7.673,26.673,7,27.5,7h3C31.327,7,32,7.673,32,8.5v8c0,0.827-0.673,1.5-1.5,1.5H27.5z" clip-rule="evenodd" opacity=".05"/><path fill-rule="evenodd" d="M27.5,17.5c-0.551,0-1-0.449-1-1v-8c0-0.551,0.449-1,1-1h3	c0.551,0,1,0.449,1,1v8c0,0.551-0.449,1-1,1H27.5z" clip-rule="evenodd" opacity=".07"/><linearGradient id="~o4KAfQu_U39NfCTRuM5nc" x1="29" x2="29" y1="4.469" y2="19.363" gradientUnits="userSpaceOnUse"><stop offset="0" stop-color="#ffda1c"/><stop offset="1" stop-color="#feb705"/></linearGradient><path fill="url(#~o4KAfQu_U39NfCTRuM5nc)" fill-rule="evenodd" d="M27.5,8h3C30.776,8,31,8.224,31,8.5v8	c0,0.276-0.224,0.5-0.5,0.5h-3c-0.276,0-0.5-0.224-0.5-0.5v-8C27,8.224,27.224,8,27.5,8z" clip-rule="evenodd"/><path fill-rule="evenodd" d="M15.5,18c-0.827,0-1.5-0.673-1.5-1.5v-8	C14,7.673,14.673,7,15.5,7h3C19.327,7,20,7.673,20,8.5v8c0,0.827-0.673,1.5-1.5,1.5H15.5z" clip-rule="evenodd" opacity=".05"/><path fill-rule="evenodd" d="M15.5,17.5c-0.551,0-1-0.449-1-1v-8c0-0.551,0.449-1,1-1h3	c0.551,0,1,0.449,1,1v8c0,0.551-0.449,1-1,1H15.5z" clip-rule="evenodd" opacity=".07"/><linearGradient id="~o4KAfQu_U39NfCTRuM5nd" x1="17" x2="17" y1="4.469" y2="19.363" gradientUnits="userSpaceOnUse"><stop offset="0" stop-color="#ffda1c"/><stop offset="1" stop-color="#feb705"/></linearGradient><path fill="url(#~o4KAfQu_U39NfCTRuM5nd)" fill-rule="evenodd" d="M15.5,8h3C18.776,8,19,8.224,19,8.5v8	c0,0.276-0.224,0.5-0.5,0.5h-3c-0.276,0-0.5-0.224-0.5-0.5v-8C15,8.224,15.224,8,15.5,8z" clip-rule="evenodd"/><path fill-rule="evenodd" d="M21.5,18c-0.827,0-1.5-0.673-1.5-1.5v-8	C20,7.673,20.673,7,21.5,7h3C25.327,7,26,7.673,26,8.5v8c0,0.827-0.673,1.5-1.5,1.5H21.5z" clip-rule="evenodd" opacity=".05"/><path fill-rule="evenodd" d="M21.5,17.5c-0.551,0-1-0.449-1-1v-8c0-0.551,0.449-1,1-1h3	c0.551,0,1,0.449,1,1v8c0,0.551-0.449,1-1,1H21.5z" clip-rule="evenodd" opacity=".07"/><linearGradient id="~o4KAfQu_U39NfCTRuM5ne" x1="23" x2="23" y1="4.469" y2="19.363" gradientUnits="userSpaceOnUse"><stop offset="0" stop-color="#ffda1c"/><stop offset="1" stop-color="#feb705"/></linearGradient><path fill="url(#~o4KAfQu_U39NfCTRuM5ne)" fill-rule="evenodd" d="M21.5,8h3C24.776,8,25,8.224,25,8.5v8	c0,0.276-0.224,0.5-0.5,0.5h-3c-0.276,0-0.5-0.224-0.5-0.5v-8C21,8.224,21.224,8,21.5,8z" clip-rule="evenodd"/></svg>