<svg xmlns="http://www.w3.org/2000/svg" viewBox="0 0 48 48"><linearGradient id="lckXmd2GPDMzb79urDh0ja" x1="43.221" x2="6.109" y1="3.779" y2="40.891" gradientUnits="userSpaceOnUse"><stop offset="0" stop-color="#9a9a9a"/><stop offset=".302" stop-color="#929292"/><stop offset=".757" stop-color="#7e7e7e"/><stop offset="1" stop-color="#707070"/></linearGradient><path fill="url(#lckXmd2GPDMzb79urDh0ja)" d="M44,7L20,31l-4-4L33.657,9.343C35.157,7.843,37.192,7,39.314,7H44z"/><linearGradient id="lckXmd2GPDMzb79urDh0jb" x1="6" x2="21" y1="13.5" y2="13.5" gradientTransform="translate(-1)" gradientUnits="userSpaceOnUse"><stop offset="0" stop-color="#32bdef"/><stop offset="1" stop-color="#1ea2e4"/></linearGradient><path fill="url(#lckXmd2GPDMzb79urDh0jb)" d="M20,17l-3.267-3.267C16.906,13.182,17,12.6,17,12c0-3.257-2.744-6-6-6s-6,2.743-6,6 c0,3.256,2.744,6,6,6c0.6,0,1.182-0.094,1.733-0.267L16,21L20,17z M8,12c0-1.601,1.399-3,3-3s3,1.399,3,3c0,1.6-1.399,3-3,3 S8,13.6,8,12z"/><linearGradient id="lckXmd2GPDMzb79urDh0jc" x1="16" x2="44" y1="29" y2="29" gradientUnits="userSpaceOnUse"><stop offset="0" stop-color="#c9c9c9"/><stop offset="1" stop-color="#b3b3b3"/></linearGradient><path fill="url(#lckXmd2GPDMzb79urDh0jc)" d="M44,41L20,17l-4,4l17.657,17.657c1.5,1.5,3.535,2.343,5.657,2.343H44z"/><circle cx="23" cy="24" r="1" fill="#fff"/><polygon fill="#e6e6e6" points="44,41 30.5,27.5 29,29 41,41"/><g><linearGradient id="lckXmd2GPDMzb79urDh0jd" x1="5" x2="20" y1="34.5" y2="34.5" gradientUnits="userSpaceOnUse"><stop offset="0" stop-color="#199ae0"/><stop offset="1" stop-color="#0782d8"/></linearGradient><path fill="url(#lckXmd2GPDMzb79urDh0jd)" d="M20,31l-4-4l-3.267,3.267C12.182,30.094,11.6,30,11,30c-3.256,0-6,2.743-6,6 c0,3.256,2.744,6,6,6s6-2.744,6-6c0-0.6-0.094-1.182-0.267-1.733L20,31z M11,39c-1.601,0-3-1.4-3-3c0-1.601,1.399-3,3-3 s3,1.399,3,3C14,37.6,12.601,39,11,39z"/></g></svg>