<svg xmlns="http://www.w3.org/2000/svg" viewBox="0 0 48 48"><path fill="#d43a02" d="M32,30c-1.654,0-3-1.794-3-4s1.346-4,3-4s3,1.794,3,4S33.654,30,32,30z M32,23c-1.084,0-2,1.374-2,3	s0.916,3,2,3s2-1.374,2-3S33.084,23,32,23z"/><path fill="#d43a02" d="M16,30c-1.654,0-3-1.794-3-4s1.346-4,3-4s3,1.794,3,4S17.654,30,16,30z M16,23c-1.084,0-2,1.374-2,3	s0.916,3,2,3s2-1.374,2-3S17.084,23,16,23z"/><linearGradient id="JVRPWVxD42NHXYHIo307Ra" x1="7.42" x2="40.25" y1="30.193" y2="49.148" gradientUnits="userSpaceOnUse"><stop offset="0" stop-color="#ffcf54"/><stop offset=".261" stop-color="#fdcb4d"/><stop offset=".639" stop-color="#f7c13a"/><stop offset="1" stop-color="#f0b421"/></linearGradient><path fill="url(#JVRPWVxD42NHXYHIo307Ra)" d="M40,40.86V42c0,1.1-0.9,2-2,2H10c-1.1,0-2-0.9-2-2v-1.14c0-2.78,1.92-5.44,5-7.36	c0.7-0.43,1.45-0.83,2.26-1.18c0.24-0.11,0.49-0.21,0.74-0.3c2.35-0.91,5.08-1.45,8-1.45s5.65,0.54,8,1.45	c0.25,0.09,0.5,0.19,0.74,0.3c0.81,0.35,1.56,0.75,2.26,1.18C38.08,35.42,40,38.08,40,40.86z"/><linearGradient id="JVRPWVxD42NHXYHIo307Rb" x1="31.576" x2="34.025" y1="21" y2="21" gradientUnits="userSpaceOnUse"><stop offset="0" stop-color="#c48f0c"/><stop offset=".251" stop-color="#d19b16"/><stop offset=".619" stop-color="#dca51f"/><stop offset="1" stop-color="#e0a922"/></linearGradient><path fill="url(#JVRPWVxD42NHXYHIo307Rb)" d="M32.416,19h-0.527v4h0.703c0.515,0,0.954-0.312,1.041-0.74l0.344-1.703	C34.142,19.743,33.397,19,32.416,19z"/><linearGradient id="JVRPWVxD42NHXYHIo307Rc" x1="16.804" x2="13.204" y1="21" y2="21" gradientUnits="userSpaceOnUse"><stop offset="0" stop-color="#c48f0c"/><stop offset=".251" stop-color="#d19b16"/><stop offset=".619" stop-color="#dca51f"/><stop offset="1" stop-color="#e0a922"/></linearGradient><path fill="url(#JVRPWVxD42NHXYHIo307Rc)" d="M15.584,19h0.527v4h-0.703c-0.515,0-0.954-0.312-1.041-0.74l-0.344-1.703	C13.858,19.743,14.603,19,15.584,19z"/><path fill="#d6a121" d="M29,34c0,1.897-2,4-5,4s-5-2.103-5-4c0-2.637,0-7.035,0-7.035h10C29,26.965,29,31.363,29,34z"/><radialGradient id="JVRPWVxD42NHXYHIo307Rd" cx="24.234" cy="21.58" r="14.337" gradientUnits="userSpaceOnUse"><stop offset="0" stop-color="#ffcf54"/><stop offset=".261" stop-color="#fdcb4d"/><stop offset=".639" stop-color="#f7c13a"/><stop offset="1" stop-color="#f0b421"/></radialGradient><path fill="url(#JVRPWVxD42NHXYHIo307Rd)" d="M32,17.79v6.51c0,3.23-4.9,7.7-8,7.7s-8-4.47-8-7.7v-6.51c0-0.28,0.01-0.56,0.02-0.82	c0.03-0.53,0.08-1.03,0.16-1.49C17.01,10.53,19.5,8,24,8s6.99,2.53,7.82,7.48c0.08,0.46,0.13,0.96,0.16,1.49	C31.99,17.23,32,17.51,32,17.79z"/><path fill="#e53935" d="M25,26c-0.75,0-1,1-1,1s-0.042-1-1-1s-3,1-3,1s2.2,2,4,2s4-2,4-2S25.75,26,25,26z"/><path fill="#e0e0e0" d="M22,20c0,0-1.343,1-3,1s-3-0.833-3-1c0-0.828,0.343-2,2-2S22,20,22,20z"/><path fill="#3e2723" d="M19,19c1.657,0,3,1,3,1s-1.063-1.563-3-2s-3,0-3,0v2C16.413,19.419,17.695,19,19,19z"/><path fill="#212121" d="M18,20c0,0.551,0.448,1,1,1s1-0.449,1-1s-0.448-1-1-1S18,19.449,18,20"/><path fill="#e0e0e0" d="M26,20c0,0,1.343,1,3,1s3-0.75,3-1c0-0.828-0.343-2-2-2S26,20,26,20z"/><path fill="#3e2723" d="M29,19c-1.657,0-3,1-3,1s1.063-1.563,3-2s3,0,3,0v2C31.587,19.419,30.304,19,29,19z"/><path fill="#212121" d="M30,20c0,0.551-0.448,1-1,1s-1-0.449-1-1s0.448-1,1-1S30,19.449,30,20"/><path fill="#662c09" d="M22,17.97c-2.62-1.4-5.69-1.04-5.98-1c0.03-0.53,0.08-1.03,0.16-1.49	C18.88,15.09,21.76,17.02,22,17.97z"/><path fill="#662c09" d="M31.98,16.97c-0.29-0.04-3.36-0.4-5.98,1c0.24-0.95,3.12-2.88,5.82-2.49	C31.9,15.94,31.95,16.44,31.98,16.97z"/><path fill="#c0392b" d="M23,26c-0.958,0-3,1-3,1h4C24,27,23.958,26,23,26z M24,27h4c0,0-2.25-1-3-1S24,27,24,27z"/><linearGradient id="JVRPWVxD42NHXYHIo307Re" x1="24" x2="24" y1="3.842" y2="19.838" gradientUnits="userSpaceOnUse"><stop offset="0" stop-color="#6d6d6d"/><stop offset=".126" stop-color="#626262"/><stop offset=".886" stop-color="#464646"/><stop offset="1" stop-color="#454545"/></linearGradient><path fill="url(#JVRPWVxD42NHXYHIo307Re)" d="M24.007,7h-0.014c-4.496,0-8.294,2.521-8.43,7.015C15.516,15.562,15.625,17.25,16,19	c0-10.5,5-6,8-6s8-4.5,8,6c0.375-1.75,0.484-3.438,0.437-4.985C32.301,9.521,28.504,7,24.007,7z"/><linearGradient id="JVRPWVxD42NHXYHIo307Rf" x1="19.842" x2="26.511" y1="27.326" y2="45.648" gradientUnits="userSpaceOnUse"><stop offset="0" stop-color="#6d6d6d"/><stop offset=".126" stop-color="#626262"/><stop offset=".886" stop-color="#464646"/><stop offset="1" stop-color="#454545"/></linearGradient><path fill="url(#JVRPWVxD42NHXYHIo307Rf)" d="M35,33.5V44H13V33.5c0.7-0.43,1.45-0.83,2.26-1.18c0.24-0.11,0.49-0.21,0.74-0.3v7.62	c0.84-0.4,1.87-0.64,3-0.64c2.69,0,4.87,1.33,4.98,3h0.04c0.11-1.67,2.29-3,4.98-3c1.13,0,2.16,0.24,3,0.64v-7.62	c0.25,0.09,0.5,0.19,0.74,0.3C33.55,32.67,34.3,33.07,35,33.5z"/></svg>