<svg xmlns="http://www.w3.org/2000/svg" viewBox="0 0 48 48"><linearGradient id="0ZfVYJzFhTeD13EBrRf0Oa" x1="18.989" x2="38.479" y1="104.15" y2="74.979" gradientTransform="matrix(1 0 0 -1 0 118)" gradientUnits="userSpaceOnUse"><stop offset="0" stop-color="#5059c9"/><stop offset=".999" stop-color="#4750b3"/></linearGradient><path fill="url(#0ZfVYJzFhTeD13EBrRf0Oa)" d="M8.857,20.619L38,9.036v21.297c0,0.895-0.725,1.619-1.619,1.619H8.857V20.619z"/><linearGradient id="0ZfVYJzFhTeD13EBrRf0Ob" x1="2.697" x2="30.999" y1="98.672" y2="81.042" gradientTransform="matrix(1 0 0 -1 0 118)" gradientUnits="userSpaceOnUse"><stop offset="0" stop-color="#5961c3"/><stop offset="1" stop-color="#3a41ac"/></linearGradient><path fill="url(#0ZfVYJzFhTeD13EBrRf0Ob)" d="M4,9v21.381C4,31.275,4.725,32,5.619,32h30.762c0.397,0,0.757-0.149,1.039-0.387L4,9z"/><path fill="#7b83eb" d="M5.619,6.048h30.762C37.275,6.048,38,6.772,38,7.667v1.37L22.823,19.377	c-1.1,0.75-2.547,0.75-3.646,0L4,9.036v-1.37C4,6.772,4.725,6.048,5.619,6.048z"/><path d="M38,15H11.619C10.172,15,9,16.172,9,17.619V32h1l28-16V15z" opacity=".05"/><path d="M38,15.548H11.619c-1.169,0-2.119,0.95-2.119,2.119V32H11l27-16V15.548z" opacity=".07"/><linearGradient id="0ZfVYJzFhTeD13EBrRf0Oc" x1="24.989" x2="44.479" y1="94.15" y2="64.979" gradientTransform="matrix(1 0 0 -1 0 118)" gradientUnits="userSpaceOnUse"><stop offset="0" stop-color="#28afea"/><stop offset="1" stop-color="#0b88da"/></linearGradient><path fill="url(#0ZfVYJzFhTeD13EBrRf0Oc)" d="M14.857,30.619L44,19.036v21.297c0,0.895-0.725,1.619-1.619,1.619H14.857V30.619z"/><linearGradient id="0ZfVYJzFhTeD13EBrRf0Od" x1="8.711" x2="36.982" y1="88.668" y2="71.058" gradientTransform="matrix(1 0 0 -1 0 118)" gradientUnits="userSpaceOnUse"><stop offset="0" stop-color="#28afea"/><stop offset="1" stop-color="#0b88da"/></linearGradient><path fill="url(#0ZfVYJzFhTeD13EBrRf0Od)" d="M10,19.036v21.297c0,0.895,0.725,1.619,1.619,1.619h30.762c0.397,0,0.757-0.149,1.039-0.387	L10,19.036z"/><path d="M10,18.476h34v1.395L29.979,30.961c-1.753,1.386-4.205,1.386-5.958,0	L10,19.871V18.476z" opacity=".05"/><path d="M10,18.071h34v1.386L29.401,30.199c-1.426,1.068-3.376,1.068-4.802,0	L10,19.458V18.071z" opacity=".07"/><path fill="#50e6ff" d="M11.619,16.048h30.762c0.895,0,1.619,0.725,1.619,1.619v1.37L28.823,29.377	c-1.1,0.75-2.547,0.75-3.646,0L10,19.036v-1.37C10,16.772,10.725,16.048,11.619,16.048z"/><path d="M41.42,31.533C41.077,31.189,40.625,31,40.146,31c-1,0-1.813,0.812-1.813,1.809v3.524h-7	c-1.287,0-2.333,1.046-2.333,2.333v2.667c0,0.216,0.039,0.421,0.094,0.619h13.287c0.894,0,1.619-0.725,1.619-1.619v-6.221	L41.42,31.533z" opacity=".05"/><path d="M41.066,31.886c-0.248-0.249-0.574-0.386-0.919-0.386c-0.724,0-1.313,0.587-1.313,1.309v4.024h-7.5	c-1.011,0-1.833,0.822-1.833,1.833v2.667c0,0.218,0.045,0.425,0.115,0.619h12.766c0.894,0,1.619-0.725,1.619-1.619V34.82	L41.066,31.886z" opacity=".07"/><linearGradient id="0ZfVYJzFhTeD13EBrRf0Oe" x1="261.677" x2="261.677" y1="869.446" y2="851.553" gradientTransform="matrix(0 1 1 0 -821.677 -221.677)" gradientUnits="userSpaceOnUse"><stop offset="0" stop-color="#c965eb"/><stop offset="1" stop-color="#c767e5"/></linearGradient><path fill="url(#0ZfVYJzFhTeD13EBrRf0Oe)" d="M39.333,32.809v4.524h-8c-0.736,0-1.333,0.597-1.333,1.333v2.667	c0,0.736,0.597,1.333,1.333,1.333h8v4.524c0,0.72,0.871,1.08,1.379,0.571l6.619-6.619c0.631-0.631,0.631-1.655,0-2.285l-6.619-6.619	C40.204,31.729,39.333,32.089,39.333,32.809z"/></svg>