<svg xmlns="http://www.w3.org/2000/svg" viewBox="0 0 48 48"><path fill="none" stroke="#ffa000" stroke-linecap="round" stroke-miterlimit="10" stroke-width="2" d="M11.327,20.458	c3.614-1.807,6.325-6.325,7.229-10.843"/><path fill="none" stroke="#ffc100" stroke-linecap="round" stroke-miterlimit="10" stroke-width="2" d="M18.556,9.615	c-1.94,4.053-5.583,7.033-9.939,8.132"/><path fill="none" stroke="#ffa000" stroke-linecap="round" stroke-miterlimit="10" stroke-width="2" d="M14.038,23.169	c3.614-1.807,6.325-6.325,7.229-10.843"/><path fill="none" stroke="#ffa000" stroke-linecap="round" stroke-miterlimit="10" stroke-width="2" d="M16.749,25.879	c3.614-1.807,6.325-6.325,7.229-10.843"/><path fill="none" stroke="#ffc100" stroke-linecap="round" stroke-miterlimit="10" stroke-width="2" d="M21.267,12.326	c-1.94,4.053-5.583,7.033-9.939,8.132"/><path fill="none" stroke="#ffc100" stroke-linecap="round" stroke-miterlimit="10" stroke-width="2" d="M23.978,15.036	c-1.94,4.053-5.583,7.033-9.939,8.132"/><path fill="none" stroke="#ffa000" stroke-linecap="round" stroke-miterlimit="10" stroke-width="2" d="M19.46,28.59	c3.614-1.807,6.325-6.325,7.229-10.843"/><path fill="none" stroke="#ffa000" stroke-linecap="round" stroke-miterlimit="10" stroke-width="2" d="M22.17,31.301	c3.614-1.807,6.325-6.325,7.229-10.843"/><path fill="none" stroke="#ffc100" stroke-linecap="round" stroke-miterlimit="10" stroke-width="2" d="M26.688,17.747	c-1.94,4.053-5.583,7.033-9.939,8.132"/><path fill="none" stroke="#ffc100" stroke-linecap="round" stroke-miterlimit="10" stroke-width="2" d="M29.399,20.458	c-1.94,4.053-5.583,7.033-9.939,8.132"/><path fill="none" stroke="#ffa000" stroke-linecap="round" stroke-miterlimit="10" stroke-width="2" d="M24.881,34.011	c3.614-1.807,6.325-6.325,7.229-10.843"/><path fill="none" stroke="#ffc100" stroke-linecap="round" stroke-miterlimit="10" stroke-width="2" d="M32.11,23.169	c-1.94,4.053-5.583,7.033-9.939,8.132"/><path fill="none" stroke="#ffa000" stroke-linecap="round" stroke-miterlimit="10" stroke-width="2" d="M27.592,36.722	c3.614-1.807,6.325-6.325,7.229-10.843"/><path fill="none" stroke="#ffc100" stroke-linecap="round" stroke-miterlimit="10" stroke-width="2" d="M34.821,25.879	c-1.94,4.053-5.583,7.033-9.939,8.132"/><linearGradient id="0IITsmRysThOXI21mYOWQa" x1="44.04" x2="33.952" y1="44.432" y2="34.014" gradientUnits="userSpaceOnUse"><stop offset=".503" stop-color="#9eabb4"/><stop offset=".658" stop-color="#9ba8b0"/><stop offset=".796" stop-color="#919da6"/><stop offset=".928" stop-color="#818c93"/><stop offset="1" stop-color="#768085"/></linearGradient><path fill="url(#0IITsmRysThOXI21mYOWQa)" d="M37.531,30.397l2.033,2.033c0.372,0.372,0.271,1.084-0.226,1.581l-5.421,5.421	c-0.497,0.497-1.209,0.598-1.581,0.226l-2.033-2.033L37.531,30.397z"/><linearGradient id="0IITsmRysThOXI21mYOWQb" x1="3.968" x2="11.748" y1="3.875" y2="11.919" gradientUnits="userSpaceOnUse"><stop offset=".503" stop-color="#9eabb4"/><stop offset=".658" stop-color="#9ba8b0"/><stop offset=".796" stop-color="#919da6"/><stop offset=".928" stop-color="#818c93"/><stop offset="1" stop-color="#768085"/></linearGradient><path fill="url(#0IITsmRysThOXI21mYOWQb)" d="M5.002,5.097c-1.497,1.497-1.497,3.924,0,5.421l3.614,3.614l5.421-5.421l-3.614-3.614	C8.927,3.6,6.499,3.6,5.002,5.097z M9.52,9.615c-0.749,0.749-1.962,0.749-2.711,0c-0.749-0.749-0.749-1.962,0-2.711	s1.962-0.749,2.711,0C10.269,7.653,10.269,8.866,9.52,9.615z"/><linearGradient id="0IITsmRysThOXI21mYOWQc" x1="11.679" x2="16.36" y1="11.425" y2="17.227" gradientUnits="userSpaceOnUse"><stop offset=".503" stop-color="#9eabb4"/><stop offset=".658" stop-color="#9ba8b0"/><stop offset=".796" stop-color="#919da6"/><stop offset=".928" stop-color="#818c93"/><stop offset="1" stop-color="#768085"/></linearGradient><path fill="url(#0IITsmRysThOXI21mYOWQc)" d="M18.556,6.001l1.807,1.807c0.491,0.587,0.422,1.458-0.154,1.961L9.674,20.304	C9.171,20.88,8.3,20.948,7.713,20.458l-1.807-1.807c-0.491-0.587-0.422-1.458,0.154-1.961L16.595,6.154	C17.098,5.578,17.97,5.51,18.556,6.001z"/><linearGradient id="0IITsmRysThOXI21mYOWQd" x1="29.678" x2="35.099" y1="37.626" y2="37.626" gradientUnits="userSpaceOnUse"><stop offset=".503" stop-color="#9eabb4"/><stop offset=".658" stop-color="#9ba8b0"/><stop offset=".796" stop-color="#919da6"/><stop offset=".928" stop-color="#818c93"/><stop offset="1" stop-color="#768085"/></linearGradient><polygon fill="url(#0IITsmRysThOXI21mYOWQd)" points="34.821,38.529 38.435,34.915 40.242,36.722 36.628,40.337"/><linearGradient id="0IITsmRysThOXI21mYOWQe" x1="37.03" x2="43.36" y1="37.158" y2="43.422" gradientUnits="userSpaceOnUse"><stop offset=".503" stop-color="#9eabb4"/><stop offset=".658" stop-color="#9ba8b0"/><stop offset=".796" stop-color="#919da6"/><stop offset=".928" stop-color="#818c93"/><stop offset="1" stop-color="#768085"/></linearGradient><path fill="url(#0IITsmRysThOXI21mYOWQe)" d="M37.531,37.626c-1.497,1.497-1.497,3.924,0,5.421c1.497,1.497,3.924,1.497,5.421,0	c1.497-1.497,1.497-3.924,0-5.421C41.456,36.129,39.028,36.129,37.531,37.626z M41.597,41.692c-0.749,0.749-1.962,0.749-2.711,0	c-0.749-0.749-0.749-1.962,0-2.711c0.749-0.749,1.962-0.749,2.711,0C42.346,39.73,42.346,40.943,41.597,41.692z"/><linearGradient id="0IITsmRysThOXI21mYOWQf" x1="28.647" x2="36.87" y1="29.323" y2="36.165" gradientUnits="userSpaceOnUse"><stop offset=".503" stop-color="#9eabb4"/><stop offset=".658" stop-color="#9ba8b0"/><stop offset=".796" stop-color="#919da6"/><stop offset=".928" stop-color="#818c93"/><stop offset="1" stop-color="#768085"/></linearGradient><path fill="url(#0IITsmRysThOXI21mYOWQf)" d="M38.435,27.686l-1.807-1.807c-0.499-0.499-1.308-0.499-1.807,0l-4.518,4.518l-4.518,4.518	c-0.499,0.499-0.499,1.308,0,1.807l1.807,1.807c0.499,0.499,1.308,0.499,1.807,0l4.518-4.518l4.518-4.518	C38.934,28.995,38.934,28.185,38.435,27.686z"/></svg>