<svg xmlns="http://www.w3.org/2000/svg" viewBox="0 0 48 48"><linearGradient id="2CXaeetLACfYJWRI85e0Ma" x1="11.535" x2="32.422" y1="1382.128" y2="1421.41" gradientTransform="translate(0 -1378)" gradientUnits="userSpaceOnUse"><stop offset="0" stop-color="#0d61a9"/><stop offset="1" stop-color="#16528c"/></linearGradient><path fill="url(#2CXaeetLACfYJWRI85e0Ma)" d="M34,4H11C9.895,4,9,4.895,9,6v38h27V6C36,4.895,35.105,4,34,4z"/><linearGradient id="2CXaeetLACfYJWRI85e0Mb" x1="9.864" x2="34.258" y1="1385.513" y2="1419.272" gradientTransform="translate(0 -1378)" gradientUnits="userSpaceOnUse"><stop offset="0" stop-color="#2aa4f4"/><stop offset="1" stop-color="#007ad9"/></linearGradient><rect width="23" height="38" x="11" y="6" fill="url(#2CXaeetLACfYJWRI85e0Mb)"/><linearGradient id="2CXaeetLACfYJWRI85e0Mc" x1="37.566" x2="45.413" y1="44.019" y2="29.259" gradientTransform="matrix(1 0 0 -1 0 50)" gradientUnits="userSpaceOnUse"><stop offset="0" stop-color="#4c4c4c"/><stop offset="1" stop-color="#343434"/></linearGradient><path fill="url(#2CXaeetLACfYJWRI85e0Mc)" d="M43,15c0,0.552-0.448,1-1,1h-3c-0.552,0-1-0.448-1-1V8c0-0.552,0.448-1,1-1h3	c0.552,0,1,0.448,1,1V15z"/><linearGradient id="2CXaeetLACfYJWRI85e0Md" x1="39.815" x2="42.239" y1="41.788" y2="37.23" gradientTransform="matrix(1 0 0 -1 0 50)" gradientUnits="userSpaceOnUse"><stop offset=".037" stop-color="#21cc72"/><stop offset=".666" stop-color="#0f9750"/><stop offset="1" stop-color="#088242"/></linearGradient><path fill="url(#2CXaeetLACfYJWRI85e0Md)" d="M40.5,8C39.672,8,39,8.672,39,9.5s0.672,1.5,1.5,1.5S42,10.328,42,9.5S41.328,8,40.5,8z"/><radialGradient id="2CXaeetLACfYJWRI85e0Me" cx="29.5" cy="26" r="2" gradientTransform="matrix(1 0 0 -1 0 50)" gradientUnits="userSpaceOnUse"><stop offset="0"/><stop offset="1" stop-opacity="0"/></radialGradient><path fill="url(#2CXaeetLACfYJWRI85e0Me)" d="M31.5,24c0,1.1-0.9,2-2,2s-2-0.9-2-2s0.9-2,2-2S31.5,22.9,31.5,24z"/><linearGradient id="2CXaeetLACfYJWRI85e0Mf" x1="29.055" x2="30.459" y1="27.683" y2="23.947" gradientTransform="matrix(1 0 0 -1 0 50)" gradientUnits="userSpaceOnUse"><stop offset="0" stop-color="#0077d2"/><stop offset="1" stop-color="#0b59a2"/></linearGradient><path fill="url(#2CXaeetLACfYJWRI85e0Mf)" d="M31,23.5c0,0.825-0.675,1.5-1.5,1.5S28,24.325,28,23.5s0.675-1.5,1.5-1.5S31,22.675,31,23.5z"/><path d="M32,16c-1.103,0-2-0.897-2-2V9c0-1.103,0.897-2,2-2h2v9H32z" opacity=".05"/><path d="M32,15.5c-0.827,0-1.5-0.673-1.5-1.5V9c0-0.827,0.673-1.5,1.5-1.5h2v8H32z" opacity=".07"/><linearGradient id="2CXaeetLACfYJWRI85e0Mg" x1="30.517" x2="35.214" y1="42.605" y2="33.772" gradientTransform="matrix(1 0 0 -1 0 50)" gradientUnits="userSpaceOnUse"><stop offset="0" stop-color="#4c4c4c"/><stop offset="1" stop-color="#343434"/></linearGradient><path fill="url(#2CXaeetLACfYJWRI85e0Mg)" d="M32,15h2V8h-2c-0.552,0-1,0.448-1,1v5C31,14.552,31.448,15,32,15z"/></svg>