<svg xmlns="http://www.w3.org/2000/svg" viewBox="0 0 48 48"><linearGradient id="ftDS5RRGT15yV5PO7W8vYa" x1="15.5" x2="15.5" y1="-2.37" y2="43.283" gradientUnits="userSpaceOnUse"><stop offset="0" stop-color="#c26715"/><stop offset=".346" stop-color="#be6015"/><stop offset=".686" stop-color="#b54e16"/><stop offset=".979" stop-color="#ad3f16"/></linearGradient><path fill="url(#ftDS5RRGT15yV5PO7W8vYa)" d="M12.001,44c-0.06,0-0.121-0.005-0.182-0.017c-0.543-0.1-0.902-0.622-0.802-1.165l7-38	c0.1-0.543,0.62-0.902,1.165-0.802c0.543,0.1,0.902,0.622,0.802,1.165l-7,38C12.895,43.663,12.474,44,12.001,44z"/><linearGradient id="ftDS5RRGT15yV5PO7W8vYb" x1="32.5" x2="32.5" y1="-2.37" y2="43.283" gradientUnits="userSpaceOnUse"><stop offset="0" stop-color="#c26715"/><stop offset=".346" stop-color="#be6015"/><stop offset=".686" stop-color="#b54e16"/><stop offset=".979" stop-color="#ad3f16"/></linearGradient><path fill="url(#ftDS5RRGT15yV5PO7W8vYb)" d="M35.999,44c-0.473,0-0.894-0.337-0.982-0.819l-7-38c-0.1-0.543,0.259-1.064,0.802-1.165	c0.542-0.1,1.064,0.259,1.165,0.802l7,38c0.1,0.543-0.259,1.064-0.802,1.165C36.12,43.995,36.059,44,35.999,44z"/><linearGradient id="ftDS5RRGT15yV5PO7W8vYc" x1="24" x2="24" y1="-2.37" y2="43.283" gradientUnits="userSpaceOnUse"><stop offset="0" stop-color="#c26715"/><stop offset=".346" stop-color="#be6015"/><stop offset=".686" stop-color="#b54e16"/><stop offset=".979" stop-color="#ad3f16"/></linearGradient><path fill="url(#ftDS5RRGT15yV5PO7W8vYc)" d="M24,41c-0.552,0-1-0.448-1-1v-7c0-0.552,0.448-1,1-1s1,0.448,1,1v7C25,40.552,24.552,41,24,41	z"/><path fill="#50e6ff" d="M39,10H9c-0.552,0-1,0.448-1,1v22h32V11C40,10.448,39.552,10,39,10z"/><circle cx="34" cy="16" r="2" fill="#fff"/><linearGradient id="ftDS5RRGT15yV5PO7W8vYd" x1="21.666" x2="36" y1="24.023" y2="24.023" gradientUnits="userSpaceOnUse"><stop offset="0" stop-color="#3ccbf4"/><stop offset="1" stop-color="#1fa0e5"/></linearGradient><path fill="url(#ftDS5RRGT15yV5PO7W8vYd)" d="M36,26l-6.427-6.427c-0.69-0.69-1.805-0.705-2.513-0.034l-5.394,5.11V29H35	c0.552,0,1-0.448,1-1V26z"/><linearGradient id="ftDS5RRGT15yV5PO7W8vYe" x1="21.778" x2="21.778" y1="555.026" y2="542.791" gradientTransform="matrix(1 0 0 -1 0 572)" gradientUnits="userSpaceOnUse"><stop offset="0" stop-color="#28afea"/><stop offset="1" stop-color="#0b88da"/></linearGradient><path fill="url(#ftDS5RRGT15yV5PO7W8vYe)" d="M31.556,29L20.215,17.659c-0.862-0.862-2.252-0.88-3.137-0.042L12,22.427V28	c0,0.552,0.448,1,1,1H31.556z"/><linearGradient id="ftDS5RRGT15yV5PO7W8vYf" x1="24" x2="24" y1="27.565" y2="36.957" gradientUnits="userSpaceOnUse"><stop offset="0" stop-color="#d4943b"/><stop offset="1" stop-color="#c2620e"/><stop offset="1" stop-color="#c2620e"/></linearGradient><path fill="url(#ftDS5RRGT15yV5PO7W8vYf)" d="M42,32H6c-0.552,0-1,0.448-1,1l0,0c0,0.552,0.448,1,1,1h36c0.552,0,1-0.448,1-1l0,0	C43,32.448,42.552,32,42,32z"/><polygon points="12.64,34 14.67,34 14.58,34.5 14.49,35 12.46,35 12.55,34.5" opacity=".05"/><rect width="2" height="1" x="23" y="34" opacity=".05"/><polygon points="35.54,35 33.51,35 33.42,34.5 33.33,34 35.36,34 35.45,34.5" opacity=".05"/><polygon points="12.64,34 14.67,34 14.58,34.5 12.55,34.5" opacity=".07"/><rect width="2" height=".5" x="23" y="34" opacity=".07"/><rect width="32" height="1" x="8" y="31" opacity=".05"/><rect width="32" height=".5" x="8" y="31.5" opacity=".07"/><polygon points="17.25,9 19.28,9 19.18,9.5 19.09,10 17.07,10 17.16,9.5" opacity=".05"/><polygon points="30.93,10 28.91,10 28.82,9.5 28.72,9 30.75,9 30.84,9.5" opacity=".05"/><polygon points="17.16,9.5 19.18,9.5 19.09,10 17.07,10" opacity=".07"/><polygon points="30.93,10 28.91,10 28.82,9.5 30.84,9.5" opacity=".07"/><polygon points="35.45,34.5 33.42,34.5 33.33,34 35.36,34" opacity=".07"/></svg>