<svg xmlns="http://www.w3.org/2000/svg" xmlns:xlink="http://www.w3.org/1999/xlink" data-name="Layer 1" viewBox="0 0 48 48"><defs><linearGradient id="8zTZg810A6b9Djo5dN5eEa" x1="17" x2="17" y1="18.136" y2="2.89" data-name="Новый образец градиентной зал 5" gradientUnits="userSpaceOnUse"><stop offset="0" stop-color="#f9f9f9"/><stop offset=".26" stop-color="#f0f1f2"/><stop offset=".678" stop-color="#d9dcdf"/><stop offset="1" stop-color="#c2c8cc"/></linearGradient><linearGradient id="8zTZg810A6b9Djo5dN5eEb" x1="17.008" x2="17.008" y1="11.517" y2="48.183" xlink:href="#8zTZg810A6b9Djo5dN5eEa"/></defs><path fill="url(#8zTZg810A6b9Djo5dN5eEa)" d="M17,6.01654a12,12,0,0,0-12,12H29A12,12,0,0,0,17,6.01654Z"/><circle cx="11" cy="10.017" r="1" fill="#fff"/><circle cx="15" cy="12.017" r="1" fill="#fff"/><circle cx="15" cy="8.017" r="1" fill="#fff"/><rect width="18" height="4" x="27" y="14.009" fill="#35c1f1"/><path fill="#35c1f1" d="M18,27.00851h0c-8,0-15-6-15-12H3a1,1,0,0,1,1-1H31A13,13,0,0,1,18,27.00851Z"/><path fill="url(#8zTZg810A6b9Djo5dN5eEb)" d="M19,31.00851a1,1,0,1,1,1-1A1,1,0,0,1,19,31.00851Zm-3-1a1,1,0,1,0-1,1A1,1,0,0,0,16,30.00851Zm2,4a1,1,0,1,0-1,1A1,1,0,0,0,18,34.00851Zm4,0a1,1,0,1,0-1,1A1,1,0,0,0,22,34.00851Zm-8,0a1,1,0,1,0-1,1A1,1,0,0,0,14,34.00851Zm2,4a1,1,0,1,0-1,1A1,1,0,0,0,16,38.00851Zm4,0a1,1,0,1,0-1,1A1,1,0,0,0,20,38.00851Zm4,0a1,1,0,1,0-1,1A1,1,0,0,0,24,38.00851Zm-12,0a1,1,0,1,0-1,1A1,1,0,0,0,12,38.00851Zm2.008,4.008a1,1,0,1,0-1,1A1,1,0,0,0,14.008,42.01654Zm4,0a1,1,0,1,0-1,1A1,1,0,0,0,18.008,42.01654Zm4,0a1,1,0,1,0-1,1A1,1,0,0,0,22.008,42.01654Zm4,0a1,1,0,1,0-1,1A1,1,0,0,0,26.008,42.01654Zm-16,0a1,1,0,1,0-1,1A1,1,0,0,0,10.008,42.01654Z"/></svg>