<svg xmlns="http://www.w3.org/2000/svg" data-name="Слой 1" viewBox="0 0 48 48"><defs><linearGradient id="AxITaeYCLegxwcXFUYwTha" x1="24" x2="24" y1="24.37" y2="40.222" data-name="Безымянный градиент 18" gradientUnits="userSpaceOnUse"><stop offset=".503" stop-color="#a1aab3"/><stop offset=".658" stop-color="#9ea7af"/><stop offset=".796" stop-color="#949da5"/><stop offset=".928" stop-color="#848c92"/><stop offset="1" stop-color="#787f85"/></linearGradient></defs><path fill="#6d7882" d="M42,40H6a2.00588,2.00588,0,0,1-2-2V17a2.00588,2.00588,0,0,1,2-2H42a2.00588,2.00588,0,0,1,2,2V38A2.00588,2.00588,0,0,1,42,40Z"/><path fill="#0076d7" d="M40,15H8V11a1.00036,1.00036,0,0,1,1-1H39a1.00036,1.00036,0,0,1,1,1Z"/><path fill="#50e6ff" d="M13,5H35a1.99945,1.99945,0,0,1,2,2v8H11V7A1.99945,1.99945,0,0,1,13,5Z"/><path fill="#252525" d="M10,22H38a2,2,0,0,1,2,2v9a0,0,0,0,1,0,0H8a0,0,0,0,1,0,0V24A2,2,0,0,1,10,22Z"/><path fill="url(#AxITaeYCLegxwcXFUYwTha)" d="M42.348,40H5.652a2,2,0,0,1-1.964-1.62231L2.04317,29.82448A2.37581,2.37581,0,0,1,4.37623,27H43.62377a2.37581,2.37581,0,0,1,2.33306,2.82448L44.312,38.37769A2,2,0,0,1,42.348,40Z"/><rect width="40" height="1" x="4" y="26" opacity=".05"/><rect width="40" height=".5" x="4" y="26.5" opacity=".07"/></svg>