<svg xmlns="http://www.w3.org/2000/svg" xmlns:xlink="http://www.w3.org/1999/xlink" data-name="Слой 1" viewBox="0 0 48 48"><defs><radialGradient id="G8M7bXBf6tAmqfqybHbfcd" cx="23.754" cy="22.89" r="13.462" data-name="Безымянный градиент 31" gradientUnits="userSpaceOnUse"><stop offset=".376" stop-color="#261103"/><stop offset=".68" stop-color="#431d06"/><stop offset="1" stop-color="#662c09"/></radialGradient><radialGradient id="G8M7bXBf6tAmqfqybHbfcf" cx="24" cy="22.002" r="9.618" data-name="Безымянный градиент 157" xlink:href="#G8M7bXBf6tAmqfqybHbfca"/><radialGradient id="G8M7bXBf6tAmqfqybHbfcb" cx="12.85" cy="11.788" r="21.112" data-name="Безымянный градиент 156" gradientUnits="userSpaceOnUse"><stop offset="0" stop-color="#c26715"/><stop offset=".508" stop-color="#b85515"/><stop offset="1" stop-color="#ad3f16"/></radialGradient><radialGradient id="G8M7bXBf6tAmqfqybHbfcg" cx="23.182" cy="11.379" r="24.433" xlink:href="#G8M7bXBf6tAmqfqybHbfcb"/><linearGradient id="G8M7bXBf6tAmqfqybHbfca" x1="24" x2="24" y1=".584" y2="8.319" data-name="Безымянный градиент 125" gradientUnits="userSpaceOnUse"><stop offset="0" stop-color="#ffcf54"/><stop offset=".261" stop-color="#fdcb4d"/><stop offset=".639" stop-color="#f7c13a"/><stop offset="1" stop-color="#f0b421"/></linearGradient><linearGradient id="G8M7bXBf6tAmqfqybHbfcc" x2="24" y1="4.693" y2="23.523" xlink:href="#G8M7bXBf6tAmqfqybHbfca"/><linearGradient id="G8M7bXBf6tAmqfqybHbfce" x1="8.453" x2="38.342" y1="31.792" y2="49.049" gradientUnits="userSpaceOnUse"><stop offset=".002" stop-color="#427fdb"/><stop offset=".397" stop-color="#2668cb"/><stop offset=".763" stop-color="#1358bf"/><stop offset="1" stop-color="#0c52bb"/></linearGradient><linearGradient id="G8M7bXBf6tAmqfqybHbfch" x1="11.954" x2="36.799" y1="32.791" y2="47.136" data-name="Безымянный градиент 100" gradientUnits="userSpaceOnUse"><stop offset="0" stop-color="#21ad64"/><stop offset="1" stop-color="#088242"/></linearGradient></defs><path fill="url(#G8M7bXBf6tAmqfqybHbfca)" d="M32.5,4.0023a3.20367,3.20367,0,0,0-3-2c-3.5,0-3.5,1-5.5,1s-2-1-5.5-1a3.20367,3.20367,0,0,0-3,2l-1.5,5H34Z"/><ellipse cx="24" cy="15.252" fill="url(#G8M7bXBf6tAmqfqybHbfcc)" rx="18" ry="8"/><path fill="url(#G8M7bXBf6tAmqfqybHbfcd)" d="M36.85,26.63231c0,2.95-1.37,5.55-4.25,6.24a38.7556,38.7556,0,0,1-8.6,1.13,38.15527,38.15527,0,0,1-8.6-1.14c-2.88-.68-4.25-3.28-4.25-6.24a34.90757,34.90757,0,0,1,2.74-8.7,15.65961,15.65961,0,0,1,5.36-6.55,30.67486,30.67486,0,0,1,9.5,0,15.65961,15.65961,0,0,1,5.36,6.55A34.78726,34.78726,0,0,1,36.85,26.63231Z"/><path fill="url(#G8M7bXBf6tAmqfqybHbfce)" d="M24,31.5733c-8.837,0-16,4.921-16,10.286v1.143a1.99945,1.99945,0,0,0,2,2H38a1.99945,1.99945,0,0,0,2-2v-1.143C40,36.4943,32.837,31.5733,24,31.5733Z"/><path fill="#d6a121" d="M29,34.0023c0,1.897-2.83,4-5,4s-5-2.103-5-4v-7.035H29Z"/><path fill="#343434" d="M36,15.5023a1.90591,1.90591,0,0,1-.26.94,4.3282,4.3282,0,0,1-1.63,1.48,10.942,10.942,0,0,1-2.11.93c-.31006.11-.64.21-.98.3a25.00859,25.00859,0,0,1-4.36011.74005c-.84985.06994-1.75.11-2.65991.11s-1.81006-.04-2.65991-.11a23.74878,23.74878,0,0,1-4.95008-.92c-.13-.04-.26-.08-.39-.13a11.596,11.596,0,0,1-2.11-.92,3.43563,3.43563,0,0,1-1.86-2.11,1.62681,1.62681,0,0,1-.03-.31,2.58938,2.58938,0,0,1,.77-1.99c.90991-.89,2.58-1.27,4.72-1.79a.35553.35553,0,0,1,.1001-.02c.29992-.07.58984-.14.90991-.2a5.02173,5.02173,0,0,1,.56006-.09.12036.12036,0,0,1,.08-.01995c.03992-.01.06995-.01.11-.02a30.67486,30.67486,0,0,1,9.5,0c.26.04.51.08.75.13.34009.07.67993.15,1,.22a.03677.03677,0,0,0,.03.01,18.27139,18.27139,0,0,1,3.83,1.18A2.659,2.659,0,0,1,36,15.5023Z"/><path fill="url(#G8M7bXBf6tAmqfqybHbfcf)" d="M32,18.79228v6.51c0,3.23-4.9,7.7-8,7.7s-8-4.47-8-7.7v-6.51c0-3.41.61-5.64,1.59009-7.09.29992-.07.58984-.14.90991-.2a5.02173,5.02173,0,0,1,.56006-.09.12036.12036,0,0,1,.08-.01995,30.48822,30.48822,0,0,1,10.36.11c.34009.07.67993.15,1,.22C31.42993,13.17228,32,15.39232,32,18.79228Z"/><path fill="url(#G8M7bXBf6tAmqfqybHbfcb)" d="M19.06006,11.41227c.54993,3.85-1.01,5.56-2.67,7.56-2.03,2.45-4.20007,5.33-2.79,13.11-.7-.4-2.6-1.8-2.6-5.6a44.53073,44.53073,0,0,1,1.03-10.67,16.8752,16.8752,0,0,1,.74-2.3c.90991-.89,2.58-1.27,4.72-1.79.33008-.08.66-.15,1.01-.22A5.02173,5.02173,0,0,1,19.06006,11.41227Z"/><path fill="url(#G8M7bXBf6tAmqfqybHbfcg)" d="M37,26.48228a6.44466,6.44466,0,0,1-2.13,5.25c.16-7.84-1.5-11.02-3.85-12.58-3.77-2.52-9.3-.88-11.88-7.76a30.48822,30.48822,0,0,1,10.36.11c.35.07.7.15,1.03.23a18.27139,18.27139,0,0,1,3.83,1.18,21.63989,21.63989,0,0,1,1.38,3.53A36.05774,36.05774,0,0,1,37,26.48228Z"/><path fill="url(#G8M7bXBf6tAmqfqybHbfch)" d="M35,34.5023v10.5H13v-10.5a18.13668,18.13668,0,0,1,4-1.84v7.34H31v-7.34A18.13668,18.13668,0,0,1,35,34.5023Z"/><circle cx="15" cy="42.002" r="1" fill="#343434"/><circle cx="33" cy="42.002" r="1" fill="#343434"/></svg>