<svg xmlns="http://www.w3.org/2000/svg" data-name="Слой 1" viewBox="0 0 48 48"><defs><linearGradient id="kIZ5pb9CyTr_8B1DHfdeZa" x1="24" x2="24" y1="24.557" y2="38.137" data-name="Безымянный градиент 147" gradientUnits="userSpaceOnUse"><stop offset="0" stop-color="#dfe9f2"/><stop offset=".391" stop-color="#d6e0e9"/><stop offset="1" stop-color="#bfc8d1"/></linearGradient><linearGradient id="kIZ5pb9CyTr_8B1DHfdeZb" x1="24" x2="24" y1="-4864.956" y2="-4872.993" data-name="Безымянный градиент 12" gradientTransform="matrix(1 0 0 -1 0 -4829.995)" gradientUnits="userSpaceOnUse"><stop offset="0" stop-color="#2aa4f4"/><stop offset="1" stop-color="#007ad9"/></linearGradient></defs><path fill="#33c481" d="M35.9409,23.69511c3.33887-3.33887,3.67581-8.73469,3.67581-8.73469s-5.86874-1.20825-9.5811,2.51c-3.78167,3.7877-2.51,9.58109-2.51,9.58109S32.602,27.034,35.9409,23.69511Z"/><path fill="#21a366" d="M39.61662,14.96042l-13,13,.012.001-3.33374,3.33374a.99962.99962,0,0,0,0,1.41406c.19531.19532.50984.98841.70515.7931l4.54627-4.6305a4.07051,4.07051,0,0,1,2.2068-1.1206,10.86341,10.86341,0,0,0,5.8992-2.75525C40.24211,21.4061,39.61662,14.96042,39.61662,14.96042Z"/><path fill="#21a366" d="M20.427,10.07617a12.35732,12.35732,0,0,1,3.571,8.922c.008,2.472,0,7.004,0,7.004L6.368,6.24917S14.888,4.54817,20.427,10.07617Z"/><path fill="#33c481" d="M6.368,6.24917s-2.124,8.074,3.834,14.032c5.267,5.267,11.796,3.023,11.796,7.389v8.332h2v-10.51a3.99983,3.99983,0,0,0-1.175-2.832Z"/><path fill="url(#kIZ5pb9CyTr_8B1DHfdeZa)" d="M29,32.0023h0a1,1,0,0,1-1,1H20a1,1,0,0,1-1-1h0a2,2,0,0,0-2-2H5a2,2,0,0,0-2,2v7.75H45v-7.75a2,2,0,0,0-2-2H31A2,2,0,0,0,29,32.0023Z"/><path fill="url(#kIZ5pb9CyTr_8B1DHfdeZb)" d="M42,36a5.60654,5.60654,0,0,1-3-1,5.60654,5.60654,0,0,1-3,1,5.60654,5.60654,0,0,1-3-1,5.60654,5.60654,0,0,1-3,1,5.60654,5.60654,0,0,1-3-1,5.60654,5.60654,0,0,1-3,1,5.60654,5.60654,0,0,1-3-1,5.60654,5.60654,0,0,1-3,1,5.60654,5.60654,0,0,1-3-1,5.60654,5.60654,0,0,1-3,1,5.60654,5.60654,0,0,1-3-1,5.60654,5.60654,0,0,1-3,1,5.60654,5.60654,0,0,1-3-1v6.0023a1.99945,1.99945,0,0,0,2,2H43a1.99945,1.99945,0,0,0,2-2V35A5.60654,5.60654,0,0,1,42,36Z"/></svg>