<svg xmlns="http://www.w3.org/2000/svg" viewBox="0 0 48 48"><radialGradient id="~DUxJFAAsgG0EzHIhZv9Ha" cx="23.406" cy="21.576" r="15.717" gradientUnits="userSpaceOnUse"><stop offset="0" stop-color="#9e6fd9"/><stop offset=".173" stop-color="#aa73c7"/><stop offset=".522" stop-color="#ca7f97"/><stop offset="1" stop-color="#fc914d"/></radialGradient><path fill="url(#~DUxJFAAsgG0EzHIhZv9Ha)" d="M29.897,42.152L18.544,4.246c-0.101-0.337-0.376-0.6-0.718-0.684L15.38,2.956	c-0.268-0.066-0.432-0.337-0.365-0.605l0.24-0.971c0.066-0.268,0.337-0.432,0.605-0.365l2.446,0.605	c1.025,0.254,1.85,1.04,2.153,2.051l11.353,37.907L29.897,42.152z"/><path fill="#007ad9" d="M12,15l2.809,26.213C14.917,42.229,15.775,43,16.797,43h14.406c1.022,0,1.88-0.771,1.989-1.787L36,15	H12z"/><linearGradient id="~DUxJFAAsgG0EzHIhZv9Hb" x1="20.166" x2="24.283" y1="5.761" y2="14.511" gradientUnits="userSpaceOnUse"><stop offset="0" stop-color="#32bdef"/><stop offset="1" stop-color="#1ea2e4"/></linearGradient><path fill="url(#~DUxJFAAsgG0EzHIhZv9Hb)" d="M36.574,14c-1.252-3.629-4.004-6.552-7.534-8H18.959c-3.529,1.448-6.282,4.371-7.534,8H36.574	z"/><linearGradient id="~DUxJFAAsgG0EzHIhZv9Hc" x1="24" x2="24" y1="12.966" y2="15.125" gradientUnits="userSpaceOnUse"><stop offset="0" stop-color="#32bdef"/><stop offset="1" stop-color="#1ea2e4"/></linearGradient><path fill="url(#~DUxJFAAsgG0EzHIhZv9Hc)" d="M36,13H12c-0.552,0-1,0.448-1,1v1h26v-1C37,13.448,36.552,13,36,13z"/></svg>