<svg xmlns="http://www.w3.org/2000/svg" viewBox="0 0 48 48"><linearGradient id="TA8gJDC320v9~4Ug~8Lxfa" x1="9.858" x2="38.142" y1="9.858" y2="38.142" gradientUnits="userSpaceOnUse"><stop offset="0" stop-color="#33bef0"/><stop offset="1" stop-color="#0a85d9"/></linearGradient><path fill="url(#TA8gJDC320v9~4Ug~8Lxfa)" d="M44,24c0,11.045-8.955,20-20,20S4,35.045,4,24S12.955,4,24,4S44,12.955,44,24z"/><path d="M25,17v14c0,1.105,0.895,2,2,2h2c1.105,0,2-0.895,2-2V17c0-1.105-0.895-2-2-2h-2	C25.895,15,25,15.895,25,17z" opacity=".05"/><path d="M29,32.5h-2c-0.828,0-1.5-0.672-1.5-1.5V17c0-0.828,0.672-1.5,1.5-1.5h2c0.828,0,1.5,0.672,1.5,1.5	v14C30.5,31.828,29.828,32.5,29,32.5z" opacity=".07"/><path d="M17,17v14c0,1.105,0.895,2,2,2h2c1.105,0,2-0.895,2-2V17c0-1.105-0.895-2-2-2h-2	C17.895,15,17,15.895,17,17z" opacity=".05"/><path d="M21,32.5h-2c-0.828,0-1.5-0.672-1.5-1.5V17c0-0.828,0.672-1.5,1.5-1.5h2c0.828,0,1.5,0.672,1.5,1.5	v14C22.5,31.828,21.828,32.5,21,32.5z" opacity=".07"/><path fill="#fff" d="M22,17v14c0,0.552-0.448,1-1,1h-2c-0.552,0-1-0.448-1-1V17c0-0.552,0.448-1,1-1h2	C21.552,16,22,16.448,22,17z"/><path fill="#fff" d="M30,17v14c0,0.552-0.448,1-1,1h-2c-0.552,0-1-0.448-1-1V17c0-0.552,0.448-1,1-1h2	C29.552,16,30,16.448,30,17z"/></svg>