<svg xmlns="http://www.w3.org/2000/svg" data-name="Слой 1" viewBox="0 0 48 48"><defs><linearGradient id="5XMIWUSpmjx~CQ7KhqW1ca" x1="10" x2="18" y1="331" y2="331" data-name="Безымянный градиент 13" gradientTransform="matrix(1 0 0 -1 0 340)" gradientUnits="userSpaceOnUse"><stop offset="0" stop-color="#ffcf54"/><stop offset=".261" stop-color="#fdcb4d"/><stop offset=".639" stop-color="#f7c13a"/><stop offset="1" stop-color="#f0b421"/></linearGradient></defs><path fill="url(#5XMIWUSpmjx~CQ7KhqW1ca)" d="M10,9a4,4,0,1,0,3.998-4A3.99975,3.99975,0,0,0,10,9Z"/><circle cx="26.5" cy="6.5" r="1.5" fill="#35c1f1"/><circle cx="12.5" cy="26.5" r="1.5" fill="#35c1f1"/><circle cx="39.5" cy="15.5" r="1.5" fill="#35c1f1"/><circle cx="21.5" cy="42.5" r="1.5" fill="#35c1f1"/><path fill="#35c1f1" d="M25.022,6.2424,24,12l-4.94241.82374a4.00005,4.00005,0,0,0-1.88524.85785L10.44994,19.2177a2,2,0,0,0-.6798,1.98289l1.25974,5.59876,2.967-.39631L13.5,21.5,17,19l5-3,4.88179-.98977a1,1,0,0,0,.80042-.93813L28,6.5Z"/><polygon fill="#35c1f1" points="22.981 42.742 20 42.5 20 26 15 19 21.5 14.5 25.5 20.5 38.898 14.126 40.25 16.799 26 26 22.981 42.742"/></svg>