<svg xmlns="http://www.w3.org/2000/svg" viewBox="0 0 48 48"><linearGradient id="wHctXlciDAjRovC5PkzoHa" x1="30.148" x2="19.068" y1="811.049" y2="783.225" gradientTransform="matrix(1 0 0 -1 0 820.11)" gradientUnits="userSpaceOnUse"><stop offset="0" stop-color="#ec8601"/><stop offset=".592" stop-color="#e77101"/><stop offset=".771" stop-color="#e46401"/><stop offset=".941" stop-color="#e36001"/></linearGradient><path fill="url(#wHctXlciDAjRovC5PkzoHa)" d="M42,41H6c-1.657,0-3-1.343-3-3V11	c0-1.657,1.343-3,3-3h36c1.657,0,3,1.343,3,3v27C45,39.657,43.657,41,42,41z"/><linearGradient id="wHctXlciDAjRovC5PkzoHb" x1="24" x2="24" y1="33" y2="41" gradientUnits="userSpaceOnUse"><stop offset="0" stop-color="#eceff1"/><stop offset="1" stop-color="#cfd8dc"/></linearGradient><path fill="url(#wHctXlciDAjRovC5PkzoHb)" d="M42,41H6c-1.657,0-3-1.343-3-3v-2	c0-1.657,1.343-3,3-3h36c1.657,0,3,1.343,3,3v2C45,39.657,43.657,41,42,41z"/><path d="M30,34c-1.076,0-2.062,0.579-2.594,1.5H8c-0.827,0-1.5,0.673-1.5,1.5s0.673,1.5,1.5,1.5h19.406	C27.938,39.421,28.924,40,30,40c1.654,0,3-1.346,3-3C33,35.346,31.654,34,30,34z" opacity=".05"/><path fill="#fff" d="M3,11v4h42v-4c0-1.657-1.343-3-3-3H6C4.343,8,3,9.343,3,11z"/><path d="M30,33.5c-1.144,0-2.218,0.568-2.868,1.5H8c-1.103,0-2,0.897-2,2c0,1.103,0.897,2,2,2h19.132	c0.651,0.932,1.724,1.5,2.868,1.5c1.93,0,3.5-1.57,3.5-3.5C33.5,35.07,31.93,33.5,30,33.5z" opacity=".05"/><linearGradient id="wHctXlciDAjRovC5PkzoHc" x1="7.657" x2="5.889" y1="13.779" y2="9.338" gradientUnits="userSpaceOnUse"><stop offset="0" stop-color="#41474a"/><stop offset="1" stop-color="#323538"/></linearGradient><path fill="url(#wHctXlciDAjRovC5PkzoHc)" d="M6,8c-1.657,0-3,1.343-3,3v4h4l3.5-7H6z"/><linearGradient id="wHctXlciDAjRovC5PkzoHd" x1="25.227" x2="23.466" y1="13.954" y2="9.531" gradientUnits="userSpaceOnUse"><stop offset="0" stop-color="#41474a"/><stop offset="1" stop-color="#323538"/></linearGradient><polygon fill="url(#wHctXlciDAjRovC5PkzoHd)" points="23.5,8 20,15 25,15 28.5,8"/><linearGradient id="wHctXlciDAjRovC5PkzoHe" x1="16.227" x2="14.466" y1="13.954" y2="9.531" gradientUnits="userSpaceOnUse"><stop offset="0" stop-color="#41474a"/><stop offset="1" stop-color="#323538"/></linearGradient><polygon fill="url(#wHctXlciDAjRovC5PkzoHe)" points="14.5,8 11,15 16,15 19.5,8"/><linearGradient id="wHctXlciDAjRovC5PkzoHf" x1="42.403" x2="40.457" y1="14.979" y2="10.092" gradientUnits="userSpaceOnUse"><stop offset="0" stop-color="#41474a"/><stop offset="1" stop-color="#323538"/></linearGradient><path fill="url(#wHctXlciDAjRovC5PkzoHf)" d="M42,8h-0.5L38,15h7v-4 C45,9.343,43.657,8,42,8z"/><linearGradient id="wHctXlciDAjRovC5PkzoHg" x1="34.227" x2="32.466" y1="13.954" y2="9.531" gradientUnits="userSpaceOnUse"><stop offset="0" stop-color="#41474a"/><stop offset="1" stop-color="#323538"/></linearGradient><polygon fill="url(#wHctXlciDAjRovC5PkzoHg)" points="32.5,8 29,15 34,15 37.5,8"/><path d="M30.244,22.236L19.59,16.563c-0.296-0.158-0.634-0.242-0.976-0.242c-1.057,0-1.918,0.777-1.918,1.733	v11.894c0,0.972,0.843,1.733,1.919,1.733c0.34,0,0.677-0.083,0.973-0.24l10.655-5.674c0.654-0.348,1.06-1.025,1.06-1.765	C31.304,23.261,30.898,22.584,30.244,22.236z" opacity=".05"/><path d="M30.009,22.677l-10.654-5.673c-0.224-0.12-0.481-0.183-0.741-0.183c-0.782,0-1.418,0.553-1.418,1.233	v11.894c0,0.692,0.623,1.233,1.419,1.233c0.259,0,0.515-0.063,0.739-0.182l10.655-5.674c0.49-0.261,0.795-0.768,0.795-1.324	S30.499,22.938,30.009,22.677z" opacity=".05"/><path fill="#fff" d="M17.696,29.947V18.054c0-0.584,0.815-0.933,1.424-0.608l10.654,5.673	c0.707,0.376,0.707,1.389,0,1.765L19.12,30.557C18.511,30.88,17.696,30.532,17.696,29.947z"/><g><linearGradient id="wHctXlciDAjRovC5PkzoHh" x1="7" x2="31" y1="37" y2="37" gradientUnits="userSpaceOnUse"><stop offset="0" stop-color="#ec8601"/><stop offset=".592" stop-color="#e77101"/><stop offset=".771" stop-color="#e46401"/><stop offset=".952" stop-color="#e36001"/></linearGradient><path fill="url(#wHctXlciDAjRovC5PkzoHh)" d="M30,36H8c-0.553,0-1,0.448-1,1 s0.447,1,1,1h22c0.553,0,1-0.448,1-1S30.553,36,30,36z"/><linearGradient id="wHctXlciDAjRovC5PkzoHi" x1="27.5" x2="32.5" y1="37" y2="37" gradientUnits="userSpaceOnUse"><stop offset="0" stop-color="#e46401"/><stop offset=".952" stop-color="#e36001"/></linearGradient><circle cx="30" cy="37" r="2" fill="#fff" stroke="url(#wHctXlciDAjRovC5PkzoHi)" stroke-miterlimit="10"/></g></svg>