<svg xmlns="http://www.w3.org/2000/svg" viewBox="0 0 48 48"><circle cx="39.5" cy="31.5" r="2.5" fill="#c98e00"/><polygon fill="#c98e00" points="26.211,41.683 40.68,33.693 38.54,29.191 26,35"/><linearGradient id="EvwNrs7mnMxidANUaOijha" x1="3" x2="45" y1="-459" y2="-459" gradientTransform="matrix(1 0 0 -1 0 -426)" gradientUnits="userSpaceOnUse"><stop offset="0" stop-color="#ffcf54"/><stop offset=".261" stop-color="#fdcb4d"/><stop offset=".639" stop-color="#f7c13a"/><stop offset="1" stop-color="#f0b421"/></linearGradient><path fill="url(#EvwNrs7mnMxidANUaOijha)" d="M45,32.5c0-1.381-1.119-2.5-2.5-2.5c-0.34,0-0.664,0.069-0.959,0.192l-0.001-0.001 l-0.011,0.005c-0.002,0.001-0.004,0.002-0.006,0.003L29,36l-1.5-1c1.381,0,2.5-1.119,2.5-2.5c0-0.93-0.514-1.732-1.267-2.163 l0.004-0.016l-13.651-6.866h-0.025C14.431,23.169,13.737,23,13,23c-0.718,0-1.397,0.157-2.015,0.43h-0.022L3,27v13l8.09-3.718 l15.911,6.508h0.001C27.309,42.924,27.645,43,28,43c0.435,0,0.838-0.121,1.195-0.317l0.017-0.001l14.469-7.989l-0.001-0.002 C44.462,34.269,45,33.452,45,32.5z"/><circle cx="27.5" cy="32.5" r="1.5" fill="#ffde87"/><linearGradient id="EvwNrs7mnMxidANUaOijhb" x1="22.337" x2="24.122" y1="-462.368" y2="-459.288" gradientTransform="matrix(1 0 0 -1 0 -426)" gradientUnits="userSpaceOnUse"><stop offset="0" stop-color="#f0b421" stop-opacity="0"/><stop offset=".512" stop-color="#e9ab12" stop-opacity=".512"/><stop offset="1" stop-color="#e09f00"/></linearGradient><path fill="url(#EvwNrs7mnMxidANUaOijhb)" d="M29,36l-1.489-0.998c-1.255-0.06-2.242-0.468-10.511-3.513V35l11.551,4.734	C28.551,39.734,27.733,37.451,29,36z"/><linearGradient id="EvwNrs7mnMxidANUaOijhc" x1="31.5" x2="31.5" y1="-441.987" y2="-451.009" gradientTransform="matrix(1 0 0 -1 0 -426)" gradientUnits="userSpaceOnUse"><stop offset="0" stop-color="#e5a505"/><stop offset=".01" stop-color="#e9a804"/><stop offset=".06" stop-color="#f4b102"/><stop offset=".129" stop-color="#fbb600"/><stop offset=".323" stop-color="#fdb700"/></linearGradient><path fill="url(#EvwNrs7mnMxidANUaOijhc)" d="M33.5,22c0-0.407,0.198-0.766,0.5-0.994v-1.645c-0.298-0.173-0.5-0.492-0.5-0.861	c0-0.369,0.202-0.688,0.5-0.861V16h-5v7.505c0,0.316,0.126,0.62,0.349,0.844l0.301,0.301c0.224,0.224,0.528,0.35,0.844,0.35h2.011	c0.317,0,0.62-0.126,0.844-0.35l0.301-0.301c0.224-0.224,0.35-0.527,0.35-0.844v-0.511C33.698,22.766,33.5,22.407,33.5,22z"/><linearGradient id="EvwNrs7mnMxidANUaOijhd" x1="26.978" x2="35.358" y1="-430.476" y2="-442.659" gradientTransform="matrix(1 0 0 -1 0 -426)" gradientUnits="userSpaceOnUse"><stop offset="0" stop-color="#fede00"/><stop offset="1" stop-color="#ffd000"/></linearGradient><path fill="url(#EvwNrs7mnMxidANUaOijhd)" d="M38,9.5C38,5.91,35.09,3,31.5,3S25,5.91,25,9.5c0,0.169,0.013,0.334,0.025,0.5H25v4	c0,1.104,0.896,2,2,2h9c1.104,0,2-0.896,2-2v-4h-0.025C37.987,9.834,38,9.669,38,9.5z M31.5,6C32.881,6,34,7.119,34,8.5	S32.881,11,31.5,11C30.119,11,29,9.881,29,8.5S30.119,6,31.5,6z"/></svg>