<svg xmlns="http://www.w3.org/2000/svg" viewBox="0 0 48 48"><path fill="#50e6ff" d="M41.992,26.981l-0.013-13.992C41.975,9.125,38.84,5.996,34.976,6L12.989,6.021 C9.125,6.025,5.996,9.16,6,13.024l0.013,13.992l0.008,7.995C6.025,38.875,9.16,42.004,13.024,42l21.987-0.021 c3.864-0.004,6.993-3.139,6.989-7.003L41.992,26.981z"/><linearGradient id="T0DjWwM_MmQjAvM0PPurma" x1="23.094" x2="24.262" y1="14.187" y2="26.838" gradientUnits="userSpaceOnUse"><stop offset="0" stop-color="#1ea2e4"/><stop offset="1" stop-color="#007ad9"/></linearGradient><circle cx="24" cy="24" r="10" fill="url(#T0DjWwM_MmQjAvM0PPurma)"/><linearGradient id="T0DjWwM_MmQjAvM0PPurmb" x1="23.322" x2="24.921" y1="19.814" y2="29.687" gradientUnits="userSpaceOnUse"><stop offset="0" stop-color="#4b4b4b"/><stop offset=".531" stop-color="#393939"/><stop offset="1" stop-color="#252525"/></linearGradient><circle cx="24" cy="24" r="5" fill="url(#T0DjWwM_MmQjAvM0PPurmb)"/><circle cx="20.497" cy="20.274" r="1.5" fill="#fff"/><linearGradient id="T0DjWwM_MmQjAvM0PPurmc" x1="37.865" x2="42.066" y1="-1528.087" y2="-1539.993" gradientTransform="matrix(1 0 0 -1 -.022 -1498.206)" gradientUnits="userSpaceOnUse"><stop offset="0" stop-color="#2aa4f4"/><stop offset="1" stop-color="#007ad9"/></linearGradient><path fill="url(#T0DjWwM_MmQjAvM0PPurmc)" d="M38,31.004L38.011,42l3.404-3.414C41.79,38.21,42.001,37.7,42,37.169L41.993,30l-2.994,0.003 C38.447,30.004,37.999,30.452,38,31.004z"/><linearGradient id="T0DjWwM_MmQjAvM0PPurmd" x1="-1580.999" x2="-1573.013" y1="617.46" y2="617.46" gradientTransform="matrix(-1 0 0 1 -1562.594 -609.46)" gradientUnits="userSpaceOnUse"><stop offset=".266" stop-color="#199ae0"/><stop offset=".582" stop-color="#1898de"/><stop offset=".745" stop-color="#1590d6"/><stop offset=".873" stop-color="#1083c9"/><stop offset=".982" stop-color="#0870b7"/><stop offset="1" stop-color="#076cb3"/></linearGradient><path fill="url(#T0DjWwM_MmQjAvM0PPurmd)" d="M10.004,10l6.985-0.007c0.551-0.001,0.998-0.448,0.997-0.999L17.983,6L10,6.008L10.004,10z"/><linearGradient id="T0DjWwM_MmQjAvM0PPurme" x1="-1183.702" x2="-1179.501" y1="358.523" y2="346.618" gradientTransform="matrix(-1 0 0 1 -1173.464 -340.176)" gradientUnits="userSpaceOnUse"><stop offset="0" stop-color="#2aa4f4"/><stop offset="1" stop-color="#007ad9"/></linearGradient><path fill="url(#T0DjWwM_MmQjAvM0PPurme)" d="M10,16.995L9.989,6L6.583,9.417C6.209,9.791,5.999,10.3,6,10.831L6.007,18l2.996-0.003 C9.554,17.995,10,17.547,10,16.995z"/><linearGradient id="T0DjWwM_MmQjAvM0PPurmf" x1="-1206.719" x2="-1202.516" y1="-1528.597" y2="-1540.508" gradientTransform="rotate(180 -598.65 -749.082)" gradientUnits="userSpaceOnUse"><stop offset="0" stop-color="#2aa4f4"/><stop offset="1" stop-color="#007ad9"/></linearGradient><path fill="url(#T0DjWwM_MmQjAvM0PPurmf)" d="M10,30.991l0.011,11.006l-3.42-3.408c-0.378-0.376-0.59-0.887-0.591-1.42L5.993,30 l3.011-0.003C9.553,29.996,9.999,30.442,10,30.991z"/><linearGradient id="T0DjWwM_MmQjAvM0PPurmg" x1="-336.425" x2="-328.428" y1="618.244" y2="618.244" gradientTransform="translate(365.833 -610.563)" gradientUnits="userSpaceOnUse"><stop offset=".266" stop-color="#199ae0"/><stop offset=".582" stop-color="#1898de"/><stop offset=".745" stop-color="#1590d6"/><stop offset=".873" stop-color="#1083c9"/><stop offset=".982" stop-color="#0870b7"/><stop offset="1" stop-color="#076cb3"/></linearGradient><path fill="url(#T0DjWwM_MmQjAvM0PPurmg)" d="M38,9.993L31.003,10c-0.552,0.001-1-0.446-1-0.997L30,6.008L37.996,6L38,9.993z"/><linearGradient id="T0DjWwM_MmQjAvM0PPurmh" x1="60.398" x2="64.601" y1="358.924" y2="347.014" gradientTransform="translate(-22.908 -340.716)" gradientUnits="userSpaceOnUse"><stop offset="0" stop-color="#2aa4f4"/><stop offset="1" stop-color="#007ad9"/></linearGradient><path fill="url(#T0DjWwM_MmQjAvM0PPurmh)" d="M38,17.008L37.989,6.003l3.422,3.41c0.376,0.375,0.588,0.884,0.589,1.415L42.007,18 l-3.01,0.003C38.447,18.004,38.001,17.558,38,17.008z"/><linearGradient id="T0DjWwM_MmQjAvM0PPurmi" x1="18.001" x2="9.998" y1="39.996" y2="40.004" gradientUnits="userSpaceOnUse"><stop offset=".266" stop-color="#199ae0"/><stop offset=".582" stop-color="#1898de"/><stop offset=".745" stop-color="#1590d6"/><stop offset=".873" stop-color="#1083c9"/><stop offset=".982" stop-color="#0870b7"/><stop offset="1" stop-color="#076cb3"/></linearGradient><path fill="url(#T0DjWwM_MmQjAvM0PPurmi)" d="M10,38h6.984C17.545,38,18,38.455,18,39.016V42h-8V38z"/><linearGradient id="T0DjWwM_MmQjAvM0PPurmj" x1="17.997" x2="9.994" y1="39.992" y2="40" gradientTransform="matrix(-1 0 0 1 48 0)" gradientUnits="userSpaceOnUse"><stop offset=".266" stop-color="#199ae0"/><stop offset=".582" stop-color="#1898de"/><stop offset=".745" stop-color="#1590d6"/><stop offset=".873" stop-color="#1083c9"/><stop offset=".982" stop-color="#0870b7"/><stop offset="1" stop-color="#076cb3"/></linearGradient><path fill="url(#T0DjWwM_MmQjAvM0PPurmj)" d="M38,38h-6.984C30.455,38,30,38.455,30,39.016V42h8V38z"/></svg>