<svg xmlns="http://www.w3.org/2000/svg" viewBox="0 0 48 48"><linearGradient id="VmUexKOW4ygkezzWwc~Zja" x1="16.197" x2="38.605" y1="45.133" y2="2.988" gradientTransform="matrix(1 0 0 -1 0 48)" gradientUnits="userSpaceOnUse"><stop offset="0" stop-color="#0077d2"/><stop offset="1" stop-color="#0b59a2"/></linearGradient><path fill="url(#VmUexKOW4ygkezzWwc~Zja)" d="M42,10c-11.122,0-11.278-6-18-6s-6.878,6-18,6c-0.552,0-1,0.448-1,1c0,0,0,5.856,0,9	c0,1.378,0.178,2.712,0.493,4c2.936,12.007,18.08,19.907,18.08,19.907S23.784,44,24,44c0.203,0,0.427-0.093,0.427-0.093	s15.144-7.9,18.08-19.907C42.822,22.712,43,21.378,43,20c0-3.144,0-9,0-9C43,10.448,42.552,10,42,10z"/><path d="M17,32c-1.654,0-3-1.346-3-3V16c0-1.654,1.346-3,3-3h14	c1.654,0,3,1.346,3,3v13c0,1.654-1.346,3-3,3H17z" opacity=".05"/><path d="M31,13.5H17c-1.379,0-2.5,1.122-2.5,2.5c0,0.446,0,12.159,0,13	c0,1.378,1.121,2.5,2.5,2.5h14c1.379,0,2.5-1.122,2.5-2.5c0-0.882,0-12.523,0-13C33.5,14.622,32.379,13.5,31,13.5z" opacity=".07"/><linearGradient id="VmUexKOW4ygkezzWwc~Zjb" x1="19.427" x2="28.866" y1="33.354" y2="15.601" gradientTransform="matrix(1 0 0 -1 0 48)" gradientUnits="userSpaceOnUse"><stop offset="0" stop-color="#fcfcfc"/><stop offset=".495" stop-color="#f4f4f4"/><stop offset=".869" stop-color="#e8e8e8"/><stop offset="1" stop-color="#e8e8e8"/></linearGradient><path fill="url(#VmUexKOW4ygkezzWwc~Zjb)" d="M15,29V17h18v12c0,1.1-0.9,2-2,2H17C15.9,31,15,30.1,15,29z"/><linearGradient id="VmUexKOW4ygkezzWwc~Zjc" x1="22.151" x2="26.894" y1="-121.225" y2="-112.305" gradientTransform="translate(0 134)" gradientUnits="userSpaceOnUse"><stop offset="0" stop-color="#75daff"/><stop offset="1" stop-color="#1ea2e4"/></linearGradient><path fill="url(#VmUexKOW4ygkezzWwc~Zjc)" d="M33,16v1H15v-1c0-1.1,0.9-2,2-2h14C32.1,14,33,14.9,33,16z"/></svg>