<svg xmlns="http://www.w3.org/2000/svg" viewBox="0 0 48 48"><linearGradient id="7i5HNCqDiRqpulqiHG2kma" x1="24" x2="24" y1="1" y2="47" gradientUnits="userSpaceOnUse"><stop offset="0" stop-color="#afb6bc"/><stop offset=".925" stop-color="#9aa0a5"/></linearGradient><line x1="15.095" x2="32.905" y1="2" y2="46" fill="none" stroke="url(#7i5HNCqDiRqpulqiHG2kma)" stroke-linecap="round" stroke-linejoin="round" stroke-miterlimit="10" stroke-width="2"/><linearGradient id="7i5HNCqDiRqpulqiHG2kmb" x1="44.063" x2="44.063" y1="-47.437" y2="-1.437" gradientTransform="rotate(-45.001 92.5 24.001)" gradientUnits="userSpaceOnUse"><stop offset="0" stop-color="#afb6bc"/><stop offset=".925" stop-color="#9aa0a5"/></linearGradient><line x1="2.147" x2="45.853" y1="14.74" y2="33.26" fill="none" stroke="url(#7i5HNCqDiRqpulqiHG2kmb)" stroke-linecap="round" stroke-linejoin="round" stroke-miterlimit="10" stroke-width="2"/><linearGradient id="7i5HNCqDiRqpulqiHG2kmc" x1="92.5" x2="92.5" y1="-67.5" y2="-21.5" gradientTransform="rotate(-90 92.5 24)" gradientUnits="userSpaceOnUse"><stop offset="0" stop-color="#afb6bc"/><stop offset=".925" stop-color="#9aa0a5"/></linearGradient><line x1="2" x2="46" y1="32.905" y2="15.095" fill="none" stroke="url(#7i5HNCqDiRqpulqiHG2kmc)" stroke-linecap="round" stroke-linejoin="round" stroke-miterlimit="10" stroke-width="2"/><linearGradient id="7i5HNCqDiRqpulqiHG2kmd" x1="140.937" x2="140.937" y1="-47.437" y2="-1.437" gradientTransform="rotate(-134.999 92.5 24)" gradientUnits="userSpaceOnUse"><stop offset="0" stop-color="#afb6bc"/><stop offset=".925" stop-color="#9aa0a5"/></linearGradient><line x1="14.74" x2="33.26" y1="45.853" y2="2.147" fill="none" stroke="url(#7i5HNCqDiRqpulqiHG2kmd)" stroke-linecap="round" stroke-linejoin="round" stroke-miterlimit="10" stroke-width="2"/><linearGradient id="7i5HNCqDiRqpulqiHG2kme" x1="24" x2="24" y1="4.026" y2="43.974" gradientUnits="userSpaceOnUse"><stop offset="0" stop-color="#afb6bc"/><stop offset=".925" stop-color="#9aa0a5"/></linearGradient><path fill="none" stroke="url(#7i5HNCqDiRqpulqiHG2kme)" stroke-linecap="round" stroke-linejoin="round" stroke-miterlimit="10" stroke-width="2" d="M31.663,5.026L31.663,5.026l0.115,0.352c1.641,5.021,5.542,8.982,10.538,10.7l0.185,0.063l-0.243,0.501 c-2.256,4.646-2.256,10.07,0,14.717l0.243,0.501l-0.185,0.063c-4.996,1.717-8.897,5.678-10.538,10.7l-0.115,0.352l0,0 c-4.813-2.458-10.513-2.458-15.326,0l0,0l-0.115-0.352c-1.641-5.021-5.542-8.982-10.538-10.7L5.5,31.859l0.243-0.501 c2.256-4.646,2.256-10.07,0-14.717L5.5,16.141l0.185-0.063c4.996-1.717,8.897-5.678,10.538-10.7l0.115-0.352l0,0 C21.15,7.484,26.85,7.484,31.663,5.026z"/><linearGradient id="7i5HNCqDiRqpulqiHG2kmf" x1="24" x2="24" y1="11" y2="37" gradientUnits="userSpaceOnUse"><stop offset="0" stop-color="#afb6bc"/><stop offset=".925" stop-color="#9aa0a5"/></linearGradient><path fill="none" stroke="url(#7i5HNCqDiRqpulqiHG2kmf)" stroke-linecap="round" stroke-linejoin="round" stroke-miterlimit="10" stroke-width="2" d="M28.763,12L28.763,12l0.119,0.37c0.99,3.083,3.369,5.524,6.426,6.593l0.192,0.067l-0.249,0.521c-1.343,2.814-1.343,6.085,0,8.899 l0.249,0.521l-0.192,0.067c-3.057,1.069-5.435,3.51-6.426,6.593L28.763,36l0,0c-2.986-1.552-6.541-1.552-9.527,0l0,0l-0.119-0.37 c-0.99-3.083-3.369-5.524-6.426-6.593L12.5,28.971l0.249-0.521c1.343-2.814,1.343-6.085,0-8.899L12.5,19.029l0.192-0.067 c3.057-1.069,5.435-3.51,6.426-6.593L19.237,12l0,0C22.223,13.552,25.777,13.552,28.763,12z"/></svg>