<svg xmlns="http://www.w3.org/2000/svg" viewBox="0 0 48 48"><radialGradient id="j_X2blwpzdE_HWZwHlEh6a" cx="33.34" cy="13.468" r="6.469" gradientUnits="userSpaceOnUse"><stop offset="0" stop-color="#a3ffff"/><stop offset=".223" stop-color="#9dfbff"/><stop offset=".53" stop-color="#8bf1ff"/><stop offset=".885" stop-color="#6ee0ff"/><stop offset="1" stop-color="#63daff"/></radialGradient><circle cx="35" cy="15" r="5" fill="url(#j_X2blwpzdE_HWZwHlEh6a)"/><radialGradient id="j_X2blwpzdE_HWZwHlEh6b" cx="24.064" cy="9.319" r="3" gradientUnits="userSpaceOnUse"><stop offset="0" stop-color="#a3ffff"/><stop offset=".223" stop-color="#9dfbff"/><stop offset=".53" stop-color="#8bf1ff"/><stop offset=".885" stop-color="#6ee0ff"/><stop offset="1" stop-color="#63daff"/></radialGradient><circle cx="25" cy="10" r="3" fill="url(#j_X2blwpzdE_HWZwHlEh6b)"/><radialGradient id="j_X2blwpzdE_HWZwHlEh6c" cx="15.33" cy="6.5" r="2" gradientUnits="userSpaceOnUse"><stop offset="0" stop-color="#a3ffff"/><stop offset=".223" stop-color="#9dfbff"/><stop offset=".53" stop-color="#8bf1ff"/><stop offset=".885" stop-color="#6ee0ff"/><stop offset="1" stop-color="#63daff"/></radialGradient><circle cx="16" cy="7" r="2" fill="url(#j_X2blwpzdE_HWZwHlEh6c)"/><radialGradient id="j_X2blwpzdE_HWZwHlEh6d" cx="26.851" cy="16.894" r="4" gradientUnits="userSpaceOnUse"><stop offset="0" stop-color="#a3ffff"/><stop offset=".223" stop-color="#9dfbff"/><stop offset=".53" stop-color="#8bf1ff"/><stop offset=".885" stop-color="#6ee0ff"/><stop offset="1" stop-color="#63daff"/></radialGradient><path fill="url(#j_X2blwpzdE_HWZwHlEh6d)" d="M28,14c-2.209,0-4,1.791-4,4s1.791,4,4,4s4-1.791,4-4S30.209,14,28,14z"/><linearGradient id="j_X2blwpzdE_HWZwHlEh6e" x1="24" x2="24" y1="16.192" y2="42.561" gradientUnits="userSpaceOnUse"><stop offset="0" stop-color="#bd4ff4"/><stop offset=".587" stop-color="#a235ec"/><stop offset="1" stop-color="#8c20e5"/></linearGradient><path fill="url(#j_X2blwpzdE_HWZwHlEh6e)" d="M24,17c-9.389,0-17,5.82-17,13s7.611,13,17,13s17-5.82,17-13S33.389,17,24,17z"/><linearGradient id="j_X2blwpzdE_HWZwHlEh6f" x1="24" x2="24" y1="36.34" y2="25.962" gradientUnits="userSpaceOnUse"><stop offset="0" stop-color="#c965eb"/><stop offset="1" stop-color="#c767e5"/></linearGradient><path fill="url(#j_X2blwpzdE_HWZwHlEh6f)" d="M24,23c-4.971,0-9,3.134-9,7s4.029,7,9,7s9-3.134,9-7S28.971,23,24,23z"/></svg>