<svg xmlns="http://www.w3.org/2000/svg" viewBox="0 0 48 48"><linearGradient id="2smlDauMDDYuWAhoVAo7oa" x1="19" x2="45" y1="16.5" y2="16.5" gradientUnits="userSpaceOnUse"><stop offset="0" stop-color="#1951a8"/><stop offset=".175" stop-color="#1955b0"/><stop offset=".505" stop-color="#195ab9"/><stop offset="1" stop-color="#195bbc"/></linearGradient><path fill="url(#2smlDauMDDYuWAhoVAo7oa)" d="M45,25H19V8h23c1.657,0,3,1.343,3,3V25z"/><path fill="#50e6ff" d="M30.303,20.503l-6.771-10.65C22.865,8.706,21.639,8,20.312,8H6.724C4.667,8,3,9.667,3,11.724V37.14	C3,38.719,4.281,40,5.86,40H42.14c1.58,0,2.86-1.281,2.86-2.86V22c0-0.552-0.448-1-1-1H31.168	C30.812,21,30.483,20.811,30.303,20.503z"/><path fill="#0b5aa3" d="M20.5,13h-13C7.224,13,7,12.776,7,12.5v-1C7,11.224,7.224,11,7.5,11h13c0.276,0,0.5,0.224,0.5,0.5 v1C21,12.776,20.776,13,20.5,13z"/><path fill="#0b5aa3" d="M20.5,17h-13C7.224,17,7,16.776,7,16.5v-1C7,15.224,7.224,15,7.5,15h13c0.276,0,0.5,0.224,0.5,0.5 v1C21,16.776,20.776,17,20.5,17z"/><path fill="#0b5aa3" d="M20.5,21h-13C7.224,21,7,20.776,7,20.5v-1C7,19.224,7.224,19,7.5,19h13c0.276,0,0.5,0.224,0.5,0.5 v1C21,20.776,20.776,21,20.5,21z"/></svg>