<svg xmlns="http://www.w3.org/2000/svg" viewBox="0 0 48 48"><linearGradient id="6Q1NChrfkKc6YPfaK1qpba" x1="42.419" x2="22.803" y1="2.082" y2="21.697" gradientUnits="userSpaceOnUse"><stop offset="0" stop-color="#eba84b"/><stop offset="1" stop-color="#d97218"/></linearGradient><path fill="url(#6Q1NChrfkKc6YPfaK1qpba)" d="M38,3c-0.774,0-1.418,0.356-1.75,1l-0.034,0.081C35.444,5.935,33.906,7.365,32,8l4,5	l0.656-0.657c0.704-0.704,1.12-1.644,1.167-2.638l0.129-2.71C37.969,6.996,37.984,7,38,7c1.105,0,2-0.895,2-2	C40,3.895,39.105,3,38,3z"/><path fill="#5c2415" d="M34.93,30.367L34.93,30.367L32,15l-3,3v13c0,1.657,1.343,3,3,3s3-1.343,3-3	C35,30.783,34.974,30.572,34.93,30.367z"/><linearGradient id="6Q1NChrfkKc6YPfaK1qpbb" x1="20.652" x2="34.593" y1="23.848" y2="9.908" gradientUnits="userSpaceOnUse"><stop offset=".002" stop-color="#3b3b3b"/><stop offset=".013" stop-color="#3c3c3c"/><stop offset=".875" stop-color="#585858"/><stop offset="1" stop-color="#636363"/></linearGradient><polygon fill="url(#6Q1NChrfkKc6YPfaK1qpbb)" points="36.5,12.5 32,8 13.5,26.5 18,31"/><linearGradient id="6Q1NChrfkKc6YPfaK1qpbc" x1="37.026" x2="-2.604" y1="14.982" y2="54.612" gradientUnits="userSpaceOnUse"><stop offset="0" stop-color="#eba84b"/><stop offset="1" stop-color="#d97218"/></linearGradient><path fill="url(#6Q1NChrfkKc6YPfaK1qpbc)" d="M31.834,30.093l0.016,0.007L30.495,17.06l-0.014-0.007C30.376,15.352,28.977,14,27.25,14	c-0.701,0-1.346,0.227-1.876,0.604l-0.007-0.003l-11.701,7.206l0.015,0.007C10.275,23.93,8,27.695,8,32c0,6.627,5.373,12,12,12	s12-5.373,12-12C32,31.349,31.934,30.716,31.834,30.093z"/><linearGradient id="6Q1NChrfkKc6YPfaK1qpbd" x1="20.141" x2="30.482" y1="32.859" y2="22.518" gradientUnits="userSpaceOnUse"><stop offset=".002" stop-color="#3b3b3b"/><stop offset=".013" stop-color="#3c3c3c"/><stop offset=".875" stop-color="#585858"/><stop offset="1" stop-color="#636363"/></linearGradient><circle cx="23" cy="30" r="3" fill="url(#6Q1NChrfkKc6YPfaK1qpbd)"/><linearGradient id="6Q1NChrfkKc6YPfaK1qpbe" x1="21.38" x2="6.931" y1="22.62" y2="37.069" gradientUnits="userSpaceOnUse"><stop offset="0" stop-color="#c26715"/><stop offset=".346" stop-color="#be6015"/><stop offset=".686" stop-color="#b54e16"/><stop offset=".979" stop-color="#ad3f16"/></linearGradient><path fill="url(#6Q1NChrfkKc6YPfaK1qpbe)" d="M15,32c-0.256,0-0.512-0.098-0.707-0.293l-2-2c-0.391-0.391-0.391-1.023,0-1.414	s1.023-0.391,1.414,0l2,2c0.391,0.391,0.391,1.023,0,1.414C15.512,31.902,15.256,32,15,32z"/><linearGradient id="6Q1NChrfkKc6YPfaK1qpbf" x1="27.13" x2="12.681" y1="28.37" y2="42.819" gradientUnits="userSpaceOnUse"><stop offset="0" stop-color="#c26715"/><stop offset=".346" stop-color="#be6015"/><stop offset=".686" stop-color="#b54e16"/><stop offset=".979" stop-color="#ad3f16"/></linearGradient><path fill="url(#6Q1NChrfkKc6YPfaK1qpbf)" d="M23,40c-0.256,0-0.512-0.098-0.707-0.293c-0.783-0.782-2.253-1.183-3.811-1.607	c-1.89-0.515-3.844-1.047-5.189-2.393c-0.391-0.391-0.391-1.023,0-1.414s1.023-0.391,1.414,0c0.971,0.97,2.664,1.432,4.301,1.877	c1.741,0.475,3.541,0.965,4.699,2.123c0.391,0.391,0.391,1.023,0,1.414C23.512,39.902,23.256,40,23,40z"/></svg>