<svg xmlns="http://www.w3.org/2000/svg" viewBox="0 0 48 48"><linearGradient id="U_6-0vYzxWYOeQVLgmZHka" x1="24" x2="24" y1="13.269" y2="4.282" gradientUnits="userSpaceOnUse"><stop offset="0" stop-color="#dfe9f2"/><stop offset=".391" stop-color="#d6e0e9"/><stop offset="1" stop-color="#bfc8d1"/></linearGradient><path fill="url(#U_6-0vYzxWYOeQVLgmZHka)" d="M13,17h22V9.955C35,7.771,33.229,6,31.045,6H16.955C14.771,6,13,7.771,13,9.955V17z"/><rect width="22" height="2" x="13" y="11" opacity=".05"/><rect width="22" height="1.5" x="13" y="11.5" opacity=".07"/><linearGradient id="U_6-0vYzxWYOeQVLgmZHkb" x1="11" x2="37" y1="27" y2="27" gradientUnits="userSpaceOnUse"><stop offset="0" stop-color="#32bdef"/><stop offset="1" stop-color="#1ea2e4"/></linearGradient><path fill="url(#U_6-0vYzxWYOeQVLgmZHkb)" d="M11,42h26V14.034	C37,12.911,36.089,12,34.966,12H13.034C11.911,12,11,12.911,11,14.034V42z"/><rect width="26" height="2" x="11" y="36" opacity=".05"/><rect width="26" height="1.5" x="11" y="36.5" opacity=".07"/><linearGradient id="U_6-0vYzxWYOeQVLgmZHkc" x1="10" x2="38" y1="39.5" y2="39.5" gradientUnits="userSpaceOnUse"><stop offset="0" stop-color="#32bdef"/><stop offset="1" stop-color="#1ea2e4"/></linearGradient><path fill="url(#U_6-0vYzxWYOeQVLgmZHkc)" d="M11,42h26c0.552,0,1-0.448,1-1v-3	c0-0.552-0.448-1-1-1H11c-0.552,0-1,0.448-1,1v3C10,41.552,10.448,42,11,42z"/><linearGradient id="U_6-0vYzxWYOeQVLgmZHkd" x1="24" x2="24" y1="37.114" y2="43.189" gradientUnits="userSpaceOnUse"><stop offset="0" stop-color="#f9f9f9"/><stop offset=".26" stop-color="#f0f1f2"/><stop offset=".678" stop-color="#d9dcdf"/><stop offset="1" stop-color="#c2c8cc"/></linearGradient><path fill="url(#U_6-0vYzxWYOeQVLgmZHkd)" d="M19,42h10c0.552,0,1-0.448,1-1v-3	c0-0.552-0.448-1-1-1H19c-0.552,0-1,0.448-1,1v3C18,41.552,18.448,42,19,42z"/><rect width="4" height="5" x="22" y="37" fill="#fff" transform="rotate(180 24 39.5)"/><path d="M31.888,20C32.502,20,33,20.498,33,21.112v8.775C33,30.502,32.502,31,31.888,31H16.112C15.498,31,15,30.502,15,29.888 v-8.775C15,20.498,15.498,20,16.112,20H31.888 M31.888,19H16.112C14.948,19,14,19.948,14,21.112v8.775 C14,31.052,14.948,32,16.112,32h15.775C33.052,32,34,31.052,34,29.888v-8.775C34,19.948,33.052,19,31.888,19L31.888,19z" opacity=".05"/><path d="M31.888,20C32.502,20,33,20.498,33,21.112v8.775C33,30.502,32.502,31,31.888,31H16.112C15.498,31,15,30.502,15,29.888 v-8.775C15,20.498,15.498,20,16.112,20H31.888 M31.888,19.5H16.112c-0.889,0-1.612,0.723-1.612,1.612v8.775 c0,0.889,0.723,1.612,1.612,1.612h15.775c0.889,0,1.612-0.723,1.612-1.612v-8.775C33.5,20.223,32.777,19.5,31.888,19.5 L31.888,19.5z" opacity=".07"/><path fill="#50e6ff" d="M16.112,31h15.775C32.502,31,33,30.502,33,29.888v-8.775C33,20.498,32.502,20,31.888,20H16.112 C15.498,20,15,20.498,15,21.112v8.775C15,30.502,15.498,31,16.112,31z"/></svg>