<svg xmlns="http://www.w3.org/2000/svg" xmlns:xlink="http://www.w3.org/1999/xlink" data-name="Слой 1" viewBox="0 0 48 48"><defs><linearGradient id="eygzLMHBQgVEGMM2PAkfna" x1="28.022" x2="37.706" y1="-.414" y2="26.193" data-name="Безымянный градиент 40" gradientUnits="userSpaceOnUse"><stop offset="0" stop-color="#50e6ff"/><stop offset="1" stop-color="#35c1f1"/></linearGradient><linearGradient id="eygzLMHBQgVEGMM2PAkfnc" x1="6.872" x2="17.214" y1="12.415" y2="40.83" xlink:href="#eygzLMHBQgVEGMM2PAkfna"/><linearGradient id="eygzLMHBQgVEGMM2PAkfnb" x1="19" x2="25" y1="35.5" y2="35.5" data-name="Безымянный градиент 94" gradientUnits="userSpaceOnUse"><stop offset="0" stop-color="#ae4cd5"/><stop offset="1" stop-color="#ac4ad5"/></linearGradient><linearGradient id="eygzLMHBQgVEGMM2PAkfnd" x1="21" x2="23" y1="39" y2="39" xlink:href="#eygzLMHBQgVEGMM2PAkfnb"/><linearGradient id="eygzLMHBQgVEGMM2PAkfne" x1="39" x2="45" y1="19.5" y2="19.5" xlink:href="#eygzLMHBQgVEGMM2PAkfnb"/><linearGradient id="eygzLMHBQgVEGMM2PAkfnf" x1="41" x2="43" y1="23" y2="23" xlink:href="#eygzLMHBQgVEGMM2PAkfnb"/></defs><path fill="url(#eygzLMHBQgVEGMM2PAkfna)" d="M42,7.26875v17.4825A1.2684,1.2684,0,0,1,40.72,26H27.28A1.2684,1.2684,0,0,1,26,24.75125V7.26875A1.26838,1.26838,0,0,1,27.28,6.02H40.72A1.26838,1.26838,0,0,1,42,7.26875Z"/><path fill="#50e6ff" d="M32,15.25v17.5A1.269,1.269,0,0,1,30.72,34H17.28A1.269,1.269,0,0,1,16,32.75V15.25A1.269,1.269,0,0,1,17.28,14H30.72A1.269,1.269,0,0,1,32,15.25Z"/><path fill="#42a4ed" d="M22,23.25v17.5A1.269,1.269,0,0,1,20.72,42H7.28A1.269,1.269,0,0,1,6,40.75V23.25A1.269,1.269,0,0,1,7.28,22H20.72A1.269,1.269,0,0,1,22,23.25Z"/><rect width="16" height="20" x="6" y="22" fill="url(#eygzLMHBQgVEGMM2PAkfnc)" rx="1"/><path d="M21,21H16v1h5a1.003,1.003,0,0,1,1,1V34h1V23A2.00587,2.00587,0,0,0,21,21Z" opacity=".05"/><path d="M21,21.5H16V22h5a1.003,1.003,0,0,1,1,1V34h.5V23A1.498,1.498,0,0,0,21,21.5Z" opacity=".07"/><path d="M31,13H26v1h5a1.003,1.003,0,0,1,1,1V26h1V15A2.00587,2.00587,0,0,0,31,13Z" opacity=".05"/><path d="M31,13.5H26V14h5a1.003,1.003,0,0,1,1,1V26h.5V15A1.498,1.498,0,0,0,31,13.5Z" opacity=".07"/><path fill="url(#eygzLMHBQgVEGMM2PAkfnb)" d="M19.23087,37H24.769a.24225.24225,0,0,0,.15313-.42049l-2.673-2.48061a.3633.3633,0,0,0-.49832,0l-2.67306,2.48061A.24226.24226,0,0,0,19.23087,37Z"/><path fill="url(#eygzLMHBQgVEGMM2PAkfnd)" d="M21,36h2a0,0,0,0,1,0,0v5.5a.5.5,0,0,1-.5.5h-1a.5.5,0,0,1-.5-.5V36A0,0,0,0,1,21,36Z"/><path fill="url(#eygzLMHBQgVEGMM2PAkfne)" d="M39.23087,21H44.769a.24225.24225,0,0,0,.15313-.42049L42.24912,18.0989a.3633.3633,0,0,0-.49832,0l-2.67306,2.48061A.24226.24226,0,0,0,39.23087,21Z"/><path fill="url(#eygzLMHBQgVEGMM2PAkfnf)" d="M41,20h2a0,0,0,0,1,0,0v5.5a.5.5,0,0,1-.5.5h-1a.5.5,0,0,1-.5-.5V20A0,0,0,0,1,41,20Z"/></svg>