<svg xmlns="http://www.w3.org/2000/svg" viewBox="0 0 48 48"><linearGradient id="NmCuHTgcBdS1QSfwEL7GWa" x1="6.414" x2="41.774" y1="-305.552" y2="-331.378" gradientTransform="matrix(1 0 0 -1 0 -291.89)" gradientUnits="userSpaceOnUse"><stop offset="0" stop-color="#28afea"/><stop offset="1" stop-color="#047ed6"/></linearGradient><path fill="url(#NmCuHTgcBdS1QSfwEL7GWa)" d="M6,40V12h36v28c0,1.1-0.9,2-2,2H8C6.9,42,6,41.1,6,40z"/><g opacity=".05"><path d="M19.216,18.166H17.08c-0.218,0-0.433,0.073-0.605,0.205c-0.605,0.461-1.297,0.892-2.054,1.281 c-0.75,0.385-1.563,0.708-2.419,0.959c-0.423,0.124-0.719,0.519-0.719,0.959v2.974c0,0.285,0.122,0.558,0.338,0.749 c0.222,0.194,0.512,0.283,0.778,0.244c0.36-0.042,0.728-0.113,1.091-0.211c0.36-0.096,0.715-0.215,1.053-0.355 c0.051-0.021,0.102-0.042,0.151-0.063v10.651c0,0.552,0.448,1,1,1h3.521c0.552,0,1-0.448,1-1V19.166 C20.216,18.614,19.768,18.166,19.216,18.166z"/><path d="M34.031,26.114L34.031,26.114c-1.121-1.038-2.651-1.563-4.55-1.563c-0.13,0-0.267,0.002-0.41,0.006l0.08-1.148h4.858 c0.552,0,1-0.448,1-1v-2.885c0-0.552-0.448-1-1-1h-8.487c-0.524,0-0.963,0.41-0.998,0.934l-0.604,8.945 c-0.02,0.297,0.093,0.585,0.31,0.792c0.216,0.204,0.504,0.3,0.805,0.269c1.038-0.122,1.962-0.184,2.746-0.184 c2.366,0,2.366,0.934,2.366,1.382c0,0.461-0.138,0.792-0.433,1.041c-0.338,0.285-0.857,0.43-1.542,0.43 c-1.046,0-2.048-0.289-2.979-0.86c-0.305-0.185-0.69-0.193-1.01-0.018c-0.315,0.177-0.511,0.511-0.511,0.872v3.019 c0,0.396,0.234,0.756,0.598,0.916c1.172,0.516,2.617,0.777,4.294,0.777c2.152,0,3.9-0.606,5.195-1.803 c1.319-1.217,1.988-2.798,1.988-4.698C35.748,28.594,35.17,27.173,34.031,26.114z"/></g><g opacity=".07"><path d="M19.216,18.666H17.08c-0.109,0-0.216,0.036-0.303,0.103c-0.631,0.48-1.347,0.927-2.128,1.328 c-0.779,0.4-1.622,0.734-2.507,0.994c-0.213,0.063-0.359,0.258-0.359,0.479v2.974c0,0.143,0.062,0.279,0.168,0.374 c0.106,0.094,0.249,0.143,0.391,0.122c0.335-0.039,0.679-0.105,1.021-0.197c0.339-0.09,0.672-0.202,0.99-0.334 c0.296-0.122,0.579-0.259,0.842-0.408v11.458c0,0.276,0.224,0.5,0.5,0.5h3.521c0.276,0,0.5-0.224,0.5-0.5V19.166 C19.716,18.89,19.492,18.666,19.216,18.666z"/><path d="M33.69,26.48c-1.024-0.948-2.44-1.43-4.209-1.43c-0.282,0-0.598,0.01-0.948,0.029l0.151-2.172h5.325 c0.276,0,0.5-0.224,0.5-0.5v-2.885c0-0.276-0.224-0.5-0.5-0.5h-8.487c-0.263,0-0.481,0.204-0.499,0.467l-0.604,8.945 c-0.01,0.147,0.047,0.293,0.154,0.396c0.108,0.103,0.256,0.151,0.402,0.135c1.06-0.124,2.004-0.187,2.805-0.187 c2.569,0,2.866,1.074,2.866,1.882c0,0.611-0.2,1.077-0.61,1.424c-0.431,0.362-1.058,0.547-1.864,0.547 c-1.139,0-2.229-0.313-3.239-0.933c-0.154-0.094-0.347-0.097-0.505-0.01c-0.158,0.089-0.256,0.256-0.256,0.437v3.019 c0,0.198,0.117,0.378,0.299,0.458c1.109,0.488,2.486,0.735,4.093,0.735c2.021,0,3.656-0.562,4.856-1.67 c1.213-1.119,1.827-2.576,1.827-4.331C35.248,28.738,34.725,27.441,33.69,26.48z"/></g><linearGradient id="NmCuHTgcBdS1QSfwEL7GWb" x1="6.42" x2="41.198" y1="-298.498" y2="-305.57" gradientTransform="matrix(1 0 0 -1 0 -291.89)" gradientUnits="userSpaceOnUse"><stop offset="0" stop-color="#0077d2"/><stop offset="1" stop-color="#0b59a2"/></linearGradient><path fill="url(#NmCuHTgcBdS1QSfwEL7GWb)" d="M42,8v6H6V8c0-1.1,0.9-2,2-2h32C41.1,6,42,6.9,42,8z"/><path d="M35.5,12.5L35.5,12.5c-1.657,0-3-1.343-3-3V6h6v3.5 C38.5,11.157,37.157,12.5,35.5,12.5z" opacity=".05"/><path d="M35.5,11.75L35.5,11.75c-1.243,0-2.25-1.007-2.25-2.25V6h4.5v3.5 C37.75,10.743,36.743,11.75,35.5,11.75z" opacity=".07"/><path d="M12.5,12.5L12.5,12.5c-1.657,0-3-1.343-3-3V6h6v3.5 C15.5,11.157,14.157,12.5,12.5,12.5z" opacity=".05"/><path d="M12.5,11.75L12.5,11.75c-1.243,0-2.25-1.007-2.25-2.25V6h4.5v3.5 C14.75,10.743,13.743,11.75,12.5,11.75z" opacity=".07"/><path fill="#3ccbf4" d="M12.5,11L12.5,11c-0.828,0-1.5-0.672-1.5-1.5v-4C11,4.672,11.672,4,12.5,4l0,0 C13.328,4,14,4.672,14,5.5v4C14,10.328,13.328,11,12.5,11z"/><path fill="#3ccbf4" d="M35.5,11L35.5,11c-0.828,0-1.5-0.672-1.5-1.5v-4C34,4.672,34.672,4,35.5,4l0,0 C36.328,4,37,4.672,37,5.5v4C37,10.328,36.328,11,35.5,11z"/><path fill="#fff" d="M19.216,19.166v16.393h-3.521V23.146c-0.194,0.172-0.424,0.334-0.688,0.486 c-0.265,0.153-0.546,0.291-0.844,0.414s-0.607,0.228-0.928,0.313c-0.321,0.086-0.638,0.147-0.951,0.185V21.57 c0.917-0.269,1.782-0.611,2.595-1.029c0.813-0.417,1.547-0.876,2.202-1.375H19.216z"/><path fill="#fff" d="M24.673,35.145v-3.019c1.096,0.671,2.263,1.006,3.5,1.006c0.932,0,1.661-0.222,2.187-0.665 s0.788-1.046,0.788-1.806c0-1.588-1.122-2.382-3.366-2.382c-0.827,0-1.781,0.063-2.862,0.189l0.604-8.945h8.487v2.885h-5.792 l-0.224,3.21c0.574-0.045,1.069-0.067,1.487-0.067c1.647,0,2.937,0.433,3.869,1.297c0.932,0.865,1.397,2.028,1.397,3.489 c0,1.617-0.556,2.938-1.666,3.964c-1.111,1.025-2.616,1.537-4.518,1.537C27.021,35.838,25.725,35.607,24.673,35.145z"/></svg>