<svg xmlns="http://www.w3.org/2000/svg" viewBox="0 0 48 48"><path fill="#64717c" d="M24,42c-0.553,0-1-0.447-1-1V28c0-0.553,0.447-1,1-1s1,0.447,1,1v13C25,41.553,24.553,42,24,42z"/><path fill="#64717c" d="M37.001,39c-0.331,0-0.654-0.164-0.845-0.463l-7-11c-0.297-0.466-0.159-1.084,0.307-1.381	c0.468-0.295,1.085-0.158,1.381,0.307l7,11c0.297,0.466,0.159,1.084-0.307,1.381C37.37,38.949,37.185,39,37.001,39z"/><path fill="#64717c" d="M10.999,39c-0.184,0-0.369-0.051-0.536-0.156c-0.466-0.297-0.604-0.915-0.307-1.381l7-11	c0.296-0.464,0.915-0.601,1.381-0.307c0.466,0.297,0.604,0.915,0.307,1.381l-7,11C11.653,38.836,11.329,39,10.999,39z"/><linearGradient id="L2Kvooy8QufBJBXWETaQsa" x1="21.688" x2="24.693" y1="21.233" y2="31.571" gradientUnits="userSpaceOnUse"><stop offset="0" stop-color="#33bef0"/><stop offset="1" stop-color="#0a85d9"/></linearGradient><path fill="url(#L2Kvooy8QufBJBXWETaQsa)" d="M24,21.571c-6.075,0-11,3.579-11,7.268V30c0,0.552,0.448,1,1,1h20c0.552,0,1-0.448,1-1v-1.161	C35,25.151,30.075,21.571,24,21.571z"/><path fill="#d6a121" d="M27,23.6c0,1.138-1.2,2.4-3,2.4s-3-1.262-3-2.4c0-1.582,0-4.221,0-4.221h6	C27,19.379,27,22.018,27,23.6z"/><linearGradient id="L2Kvooy8QufBJBXWETaQsb" x1="29.548" x2="30.771" y1="15.5" y2="15.5" gradientUnits="userSpaceOnUse"><stop offset="0" stop-color="#c48f0c"/><stop offset=".251" stop-color="#d19b16"/><stop offset=".619" stop-color="#dca51f"/><stop offset="1" stop-color="#e0a922"/></linearGradient><path fill="url(#L2Kvooy8QufBJBXWETaQsb)" d="M29.944,14h-0.88v3h0.997c0.343,0,0.636-0.234,0.694-0.555l0.23-1.277	C31.094,14.557,30.598,14,29.944,14z"/><linearGradient id="L2Kvooy8QufBJBXWETaQsc" x1="-1192.941" x2="-1191.718" y1="15.5" y2="15.5" gradientTransform="matrix(-1 0 0 1 -1174.49 0)" gradientUnits="userSpaceOnUse"><stop offset="0" stop-color="#c48f0c"/><stop offset=".251" stop-color="#d19b16"/><stop offset=".619" stop-color="#dca51f"/><stop offset="1" stop-color="#e0a922"/></linearGradient><path fill="url(#L2Kvooy8QufBJBXWETaQsc)" d="M18.056,14h0.88v3h-0.997c-0.343,0-0.636-0.234-0.694-0.555l-0.23-1.277	C16.906,14.557,17.402,14,18.056,14z"/><radialGradient id="L2Kvooy8QufBJBXWETaQsd" cx="42.212" cy="45.895" r="7.503" gradientTransform="matrix(.92 0 0 .92 -14.834 -27.922)" gradientUnits="userSpaceOnUse"><stop offset="0" stop-color="#ffcf54"/><stop offset=".261" stop-color="#fdcb4d"/><stop offset=".639" stop-color="#f7c13a"/><stop offset="1" stop-color="#f0b421"/></radialGradient><path fill="url(#L2Kvooy8QufBJBXWETaQsd)" d="M24,6.6c-2.961,0-6,0.45-6,6.85c0,0.512,0,2.918,0,3.465C18,19.2,21.6,22,24,22s6-2.8,6-5.085	c0-0.547,0-2.953,0-3.465C30,7.05,26.961,6.6,24,6.6z"/><radialGradient id="L2Kvooy8QufBJBXWETaQse" cx="36.396" cy="61.005" r="21.807" gradientTransform="translate(-12.68 -45.595) scale(.8433)" gradientUnits="userSpaceOnUse"><stop offset="0" stop-color="#c26715"/><stop offset=".508" stop-color="#b85515"/><stop offset="1" stop-color="#ad3f16"/></radialGradient><path fill="url(#L2Kvooy8QufBJBXWETaQse)" d="M24,5c-2.194,0-3,1-3,1c-1.647,0-4,1.73-4,5c0,1.192,0.176,2.529,1,5	c0.393-4.717,1.444-6.706,2.706-6.706C21.052,9.294,21.795,10,24,10c1.659,0,2.042-0.706,3.294-0.706C29.456,9.294,30,15.256,30,16	c0.824-2.471,1-3.959,1-5C31,7.702,28.474,5,24,5z"/><radialGradient id="L2Kvooy8QufBJBXWETaQsf" cx="49.147" cy="8.374" r="22.414" gradientTransform="matrix(.8198 0 0 1.0222 -16.98 -.751)" gradientUnits="userSpaceOnUse"><stop offset="0" stop-color="#c26715"/><stop offset=".508" stop-color="#b85515"/><stop offset="1" stop-color="#ad3f16"/></radialGradient><path fill="url(#L2Kvooy8QufBJBXWETaQsf)" d="M24.04,5C21.806,5,21,5.706,21,6s0,2,0,2s-0.032,2,3,2c1.831,0,4.779-1.362,4.779-5	C28.779,5,28.19,5,24.04,5z"/><circle cx="24" cy="41" r="3" fill="#e36001"/><circle cx="37" cy="38" r="3" fill="#e36001"/><circle cx="11" cy="38" r="3" fill="#e36001"/></svg>