<svg xmlns="http://www.w3.org/2000/svg" viewBox="0 0 48 48"><linearGradient id="r4CPt732Fi~AJLoL_EurYa" x1="16.037" x2="31.123" y1="545.198" y2="581.196" gradientTransform="translate(0 -538)" gradientUnits="userSpaceOnUse"><stop offset="0" stop-color="#eba600"/><stop offset="1" stop-color="#c28200"/></linearGradient><path fill="url(#r4CPt732Fi~AJLoL_EurYa)" d="M40,42H8c-1.1,0-2-0.9-2-2V12h36v28C42,41.1,41.1,42,40,42z"/><rect width="10" height="2" x="28" y="37" fill="#b14716"/><polygon fill="#b14716" points="38,32 36,30 34,32 35,32 35,35 37,35 37,32"/><polygon fill="#b14716" points="32,32 30,30 28,32 29,32 29,35 31,35 31,32"/><linearGradient id="r4CPt732Fi~AJLoL_EurYb" x1="5" x2="43" y1="-435" y2="-435" gradientTransform="matrix(1 0 0 -1 0 -426)" gradientUnits="userSpaceOnUse"><stop offset="0" stop-color="#ffd869"/><stop offset="1" stop-color="#fec936"/></linearGradient><path fill="url(#r4CPt732Fi~AJLoL_EurYb)" d="M43,12H5V8c0-1.1,0.9-2,2-2h34c1.1,0,2,0.9,2,2V12z"/><path fill="#fff8e6" d="M19,6h10v9H19V6z"/></svg>