<svg xmlns="http://www.w3.org/2000/svg" viewBox="0 0 48 48"><path fill="none" stroke="#1a7ecf" stroke-linecap="round" stroke-linejoin="round" stroke-miterlimit="10" stroke-width="2" d="M39,11	v12c0,3.314-2.686,6-6,6H10.5C7.462,29,5,31.462,5,34.5v0c0,3.038,2.462,5.5,5.5,5.5H39"/><linearGradient id="4Bed96NSHh0HopGpMUAPXa" x1="37.201" x2="40.917" y1="249.501" y2="242.271" gradientTransform="matrix(1 0 0 -1 0 254)" gradientUnits="userSpaceOnUse"><stop offset="0" stop-color="#bd4ff4"/><stop offset=".587" stop-color="#a235ec"/><stop offset="1" stop-color="#8c20e5"/></linearGradient><path fill="url(#4Bed96NSHh0HopGpMUAPXa)" d="M43,8c0,2.209-1.791,4-4,4s-4-1.791-4-4s1.791-4,4-4S43,5.791,43,8z"/><linearGradient id="4Bed96NSHh0HopGpMUAPXb" x1="37.201" x2="40.917" y1="217.501" y2="210.271" gradientTransform="matrix(1 0 0 -1 0 254)" gradientUnits="userSpaceOnUse"><stop offset="0" stop-color="#bd4ff4"/><stop offset=".587" stop-color="#a235ec"/><stop offset="1" stop-color="#8c20e5"/></linearGradient><path fill="url(#4Bed96NSHh0HopGpMUAPXb)" d="M43,40c0,2.209-1.791,4-4,4s-4-1.791-4-4s1.791-4,4-4S43,37.791,43,40z"/><linearGradient id="4Bed96NSHh0HopGpMUAPXc" x1="10.223" x2="25.777" y1="246.779" y2="231.226" gradientTransform="matrix(1 0 0 -1 0 254)" gradientUnits="userSpaceOnUse"><stop offset="0" stop-color="#d43a02"/><stop offset="1" stop-color="#b9360c"/></linearGradient><path fill="url(#4Bed96NSHh0HopGpMUAPXc)" d="M25.885,22.66C27.81,20.68,29,17.98,29,15c0-6.075-4.925-11-11-11S7,8.925,7,15	c0,2.98,1.19,5.68,3.115,7.66c0.011,0.011,7.02,7.027,7.02,7.027c0.477,0.477,1.251,0.477,1.728,0	C18.864,29.688,25.874,22.672,25.885,22.66z"/><radialGradient id="4Bed96NSHh0HopGpMUAPXd" cx="18" cy="239" r="5.133" gradientTransform="matrix(1 0 0 -1 0 254)" gradientUnits="userSpaceOnUse"><stop offset=".177"/><stop offset="1" stop-opacity="0"/></radialGradient><circle cx="18" cy="15" r="5.133" fill="url(#4Bed96NSHh0HopGpMUAPXd)"/><circle cx="18" cy="15" r="4.4" fill="#f9f9f9"/></svg>