<svg xmlns="http://www.w3.org/2000/svg" viewBox="0 0 48 48"><path fill="#137d25" d="M42,40v-7h-9v9h7C41.105,42,42,41.105,42,40z"/><rect width="9" height="9" x="24" y="33" fill="#1a8c2c"/><rect width="9" height="9" x="15" y="33" fill="#1e9e32"/><rect width="9" height="9" x="24" y="24" fill="#1e9e32"/><path fill="#25b03b" d="M15,42v-9H6v7c0,1.105,0.895,2,2,2H15z"/><rect width="9" height="9" x="15" y="24" fill="#25b03b"/><rect width="9" height="9" x="24" y="15" fill="#25b03b"/><rect width="9" height="9" x="24" y="6" fill="#31c447"/><rect width="9" height="9" x="15" y="6" fill="#3fd155"/><path fill="#4ddb63" d="M15,15V6H8C6.895,6,6,6.895,6,8v7H15z"/><rect width="9" height="9" x="6" y="15" fill="#3fd155"/><rect width="9" height="9" x="15" y="15" fill="#31c447"/><rect width="9" height="9" x="6" y="24" fill="#31c447"/><rect width="9" height="9" x="33" y="24" fill="#1a8c2c"/><rect width="9" height="9" x="33" y="15" fill="#1e9e32"/><path fill="#25b03b" d="M33,15h9V8c0-1.105-0.895-2-2-2h-7V15z"/><radialGradient id="OFeT0s3pfN65mmreJUiYza" cx="31" cy="17" r="7" gradientUnits="userSpaceOnUse"><stop offset=".847"/><stop offset="1" stop-opacity="0"/></radialGradient><circle cx="31" cy="17" r="7" fill="url(#OFeT0s3pfN65mmreJUiYza)" opacity=".15"/><radialGradient id="OFeT0s3pfN65mmreJUiYzb" cx="31" cy="31" r="7" gradientUnits="userSpaceOnUse"><stop offset=".847"/><stop offset="1" stop-opacity="0"/></radialGradient><circle cx="31" cy="31" r="7" fill="url(#OFeT0s3pfN65mmreJUiYzb)" opacity=".15"/><radialGradient id="OFeT0s3pfN65mmreJUiYzc" cx="31" cy="17" r="7.328" gradientUnits="userSpaceOnUse"><stop offset="0" stop-color="#f7f7f7"/><stop offset=".747" stop-color="#f9f9f9"/><stop offset="1" stop-color="#fff"/></radialGradient><circle cx="31" cy="17" r="6" fill="url(#OFeT0s3pfN65mmreJUiYzc)"/><radialGradient id="OFeT0s3pfN65mmreJUiYzd" cx="31" cy="31" r="7.328" gradientUnits="userSpaceOnUse"><stop offset="0" stop-color="#f7f7f7"/><stop offset=".747" stop-color="#f9f9f9"/><stop offset="1" stop-color="#fff"/></radialGradient><circle cx="31" cy="31" r="6" fill="url(#OFeT0s3pfN65mmreJUiYzd)"/><path d="M22,10h-9c-1.105,0-2,0.895-2,2v24c0,1.105,0.895,2,2,2h9c1.105,0,2-0.895,2-2V12	C24,10.895,23.105,10,22,10z" opacity=".05"/><path d="M22,37.5h-9c-0.828,0-1.5-0.672-1.5-1.5V12c0-0.828,0.672-1.5,1.5-1.5h9c0.828,0,1.5,0.672,1.5,1.5	v24C23.5,36.828,22.828,37.5,22,37.5z" opacity=".07"/><radialGradient id="OFeT0s3pfN65mmreJUiYze" cx="17.5" cy="24" r="12.191" gradientUnits="userSpaceOnUse"><stop offset="0" stop-color="#f7f7f7"/><stop offset=".747" stop-color="#f9f9f9"/><stop offset="1" stop-color="#fff"/></radialGradient><path fill="url(#OFeT0s3pfN65mmreJUiYze)" d="M13,37h9c0.552,0,1-0.448,1-1V12c0-0.552-0.448-1-1-1h-9c-0.552,0-1,0.448-1,1v24	C12,36.552,12.448,37,13,37z"/></svg>