<svg xmlns="http://www.w3.org/2000/svg" viewBox="0 0 48 48"><linearGradient id="xeK6Wc6yQj9yWsZTGPX_ua" x1="15.456" x2="24.65" y1="5.027" y2="36.482" gradientUnits="userSpaceOnUse"><stop offset="0" stop-color="#889097"/><stop offset="1" stop-color="#4c5963"/></linearGradient><path fill="url(#xeK6Wc6yQj9yWsZTGPX_ua)" d="M14.886,25.646c-0.097,0.267-2.81-0.119-2.819,0.729c-0.021,1.974-0.575,7.629-0.988,9.625 H37.54C33.312,9.737,12.304,6,10.057,6C9.47,6,9.143,6.409,9.143,6.914c0,0,3.098,8.625,3.098,16.809 C12.241,24.648,14.983,25.378,14.886,25.646z"/><linearGradient id="xeK6Wc6yQj9yWsZTGPX_ub" x1="24" x2="24" y1="33.961" y2="41.995" gradientUnits="userSpaceOnUse"><stop offset="0" stop-color="#2aa4f4"/><stop offset="1" stop-color="#007ad9"/></linearGradient><path fill="url(#xeK6Wc6yQj9yWsZTGPX_ub)" d="M42,35c-1.657,0-3-1-3-1s-1.343,1-3,1s-3-1-3-1s-1.343,1-3,1s-3-1-3-1s-1.343,1-3,1s-3-1-3-1	s-1.343,1-3,1s-3-1-3-1s-1.343,1-3,1s-3-1-3-1s-1.343,1-3,1s-3-1-3-1v6c0,1.105,0.895,2,2,2h38c1.105,0,2-0.895,2-2v-6	C45,34,43.657,35,42,35z"/></svg>