<svg xmlns="http://www.w3.org/2000/svg" viewBox="0 0 48 48"><linearGradient id="d_P94ZvBVod~Px3awPGUIa" x1="24.194" x2="23.93" y1="8.49" y2="46.732" gradientUnits="userSpaceOnUse"><stop offset=".643" stop-color="#9bdbf5"/><stop offset=".852" stop-color="#69c4fb"/><stop offset="1" stop-color="#43b3ff"/></linearGradient><path fill="url(#d_P94ZvBVod~Px3awPGUIa)" d="M43,38h-1.67c-0.19,0-0.35,0.15-0.36,0.33c-0.01,0.24-0.02,0.47-0.04,0.7	c-0.2,2.82-2.62,4.97-5.45,4.97H12.37c-2.84,0-5.25-2.15-5.45-4.97c-0.02-0.23-0.03-0.46-0.04-0.7C6.87,38.15,6.71,38,6.52,38H5.35	c-0.26,0-0.43-0.28-0.32-0.51c1.73-3.7,1.98-4.43,1.9-6.15C6.92,31.15,6.76,31,6.57,31H5.39c-0.25,0-0.43-0.27-0.33-0.5	c2.06-4.67,5.69-7.04,6.82-11.13c0.44-1.62,1.44-2.94,2.84-3.94c0.14-0.1,0.28-0.19,0.42-0.29c0.14-0.09,0.29-0.18,0.44-0.26	c0.41-0.24,0.85-0.45,1.31-0.63c0.2-0.09,0.41-0.17,0.62-0.25c1.87-0.67,4.06-1,6.41-1c2.32,0,4.51,0.33,6.38,1	c0.29,0.1,0.58,0.21,0.85,0.34c0.44,0.18,0.85,0.39,1.24,0.62c0.15,0.08,0.29,0.17,0.43,0.26c0.14,0.1,0.28,0.19,0.41,0.29	c1.35,0.99,2.31,2.28,2.74,3.86c1.1,4.1,4.76,6.47,6.82,11.13c0.1,0.23-0.08,0.5-0.33,0.5h-1.19c-0.18,0-0.34,0.15-0.35,0.34	c-0.09,1.8,0.14,2.52,1.34,5.03L43,38z"/><linearGradient id="d_P94ZvBVod~Px3awPGUIb" x1="23.791" x2="24.055" y1="35.765" y2="30.096" gradientUnits="userSpaceOnUse"><stop offset=".002" stop-color="#356bd4"/><stop offset=".397" stop-color="#1f53c1"/><stop offset=".763" stop-color="#1144b3"/><stop offset="1" stop-color="#0d3eaf"/></linearGradient><path fill="url(#d_P94ZvBVod~Px3awPGUIb)" d="M34,31.31c-0.01,0.54-0.23,1-0.6,1.31C33.05,32.89,32.63,33,32.12,33	c-0.59,0-1.29-0.15-2.12-0.36V30l-2.09,2.09c-1.23-0.31-2.54-0.58-3.76-0.58c-1.35,0-2.78,0.27-4.07,0.57h-0.01L18,30v2.57	c-1.63,0.38-2.75,0.55-3.46-0.05C14.19,32.23,14,31.79,14,31.28c0-0.87,0.52-1.66,1.45-2.31L17,30v-1.86	c0.27-0.11,0.55-0.21,0.84-0.3L20,30v-2.68c1.21-0.21,2.55-0.32,4-0.32c1.27,0,2.67,0.12,4,0.37V30l2.11-2.11	c0.31,0.09,0.61,0.2,0.89,0.31V31l1.81-1.81c0.18,0.13,0.34,0.27,0.48,0.42C33.9,30.25,34.01,30.89,34,31.31z"/><path fill="#38b4ee" d="M36,25l-5-1l-1,2l-3-2l-3,16l-3-16l-3,2l-1-2l-5,1l5-11h14L36,25z"/><path fill="#aed5fa" d="M31.814,20.635l-5.856-1.308l0.969-0.424c0.233-0.148,0.302-0.457,0.154-0.69l-0.687-0.838	l5.856,1.308l-0.969,0.424c-0.233,0.148-0.302,0.457-0.154,0.69L31.814,20.635z"/><path fill="#aed5fa" d="M22.125,19.321l-5.839,1.382l0.687-0.805c0.145-0.235,0.072-0.543-0.163-0.688l-0.984-0.453	l5.839-1.382l-0.687,0.805c-0.145,0.235-0.072,0.543,0.163,0.688L22.125,19.321z"/><path fill="#272727" d="M19,21.023c-0.552-0.001-1.001,0.436-1.001,0.976s0.447,0.978,0.999,0.978c0.001,0,0.002,0,0.002,0 c0.552,0.001,1.001-0.436,1.001-0.976s-0.447-0.978-0.999-0.978C19.002,21.023,19.001,21.023,19,21.023z M29,21.023 c-0.552-0.001-1.001,0.436-1.001,0.976s0.447,0.978,0.999,0.978c0.001,0,0.002,0,0.002,0c0.552,0.001,1.001-0.436,1.001-0.976 s-0.447-0.978-0.999-0.978C29.002,21.023,29.001,21.023,29,21.023z"/><linearGradient id="d_P94ZvBVod~Px3awPGUIc" x1="22.297" x2="24.473" y1="-.348" y2="19.035" gradientUnits="userSpaceOnUse"><stop offset=".491" stop-color="#fac600"/><stop offset="1" stop-color="#d66b00"/></linearGradient><path fill="url(#d_P94ZvBVod~Px3awPGUIc)" d="M32.39,14.96c-0.02,0.06-0.07,0.11-0.14,0.13c-0.15,0.05-0.37,0.11-0.67,0.18	C30.37,15.57,27.94,16,24,16s-6.37-0.43-7.58-0.73c-0.3-0.08-0.52-0.14-0.67-0.19c-0.1-0.03-0.16-0.11-0.17-0.2	c-0.01-0.05-0.01-0.09,0.01-0.14l4.07-9.9c0.04-0.11,0.14-0.16,0.23-0.16c0.03,0,0.06,0,0.09,0.01c0.03,0.01,0.05,0.03,0.08,0.05	c0.05,0.04,0.08,0.09,0.09,0.16l0.68,4.08c0.01,0.07,0.05,0.12,0.09,0.16c0.05,0.03,0.11,0.05,0.17,0.05c0.07,0,0.15-0.03,0.2-0.09	c0.02-0.02,0.03-0.05,0.04-0.08l2.45-7.29c0.04-0.11,0.14-0.17,0.24-0.17c0.11,0,0.21,0.06,0.25,0.18l2.4,7.27	c0.04,0.12,0.14,0.17,0.25,0.17c0.11,0,0.23-0.07,0.25-0.21l0.68-4.07c0.02-0.14,0.14-0.22,0.26-0.22c0.09,0,0.19,0.05,0.23,0.16	l4.07,9.9C32.44,14.82,32.43,14.9,32.39,14.96z"/><path fill="#c22300" d="M23.704,8.296l-1.582,1.582C22.044,9.956,22,10.062,22,10.173v2.654 c0,0.111,0.044,0.217,0.122,0.296l1.582,1.582c0.163,0.163,0.428,0.163,0.591,0l1.582-1.582C25.956,13.044,26,12.938,26,12.827 v-2.654c0-0.111-0.044-0.217-0.122-0.296l-1.582-1.582C24.132,8.132,23.868,8.132,23.704,8.296z M30.565,10.272l1.548,1.344 c0.1,0.087,0.153,0.216,0.143,0.348L32.101,14l-1.532-1.363c-0.096-0.086-0.148-0.211-0.139-0.34L30.565,10.272z M17.423,10.278 l0.165,2.018c0.011,0.133-0.042,0.262-0.142,0.35l-1.546,1.344l-0.133-2.032c-0.008-0.129,0.043-0.255,0.14-0.341L17.423,10.278z"/><path fill="#151515" d="M32.39,14.96c-0.02,0.06-0.07,0.11-0.14,0.13c-0.15,0.05-0.37,0.11-0.67,0.18	C30.37,15.57,27.94,16,24,16s-6.37-0.43-7.58-0.73c-0.3-0.08-0.52-0.14-0.67-0.19c-0.1-0.03-0.16-0.11-0.17-0.2	c-0.15,0.08-0.3,0.17-0.44,0.26c0.07,0.19,0.24,0.35,0.47,0.42c0.14,0.05,0.37,0.11,0.68,0.19c1.13,0.28,3.62,0.75,7.71,0.75	s6.58-0.47,7.7-0.74c0.3-0.07,0.54-0.14,0.71-0.2c0.17-0.05,0.32-0.17,0.41-0.34C32.68,15.13,32.54,15.04,32.39,14.96z" opacity=".05"/><path fill="#151515" d="M32.39,14.96c-0.02,0.06-0.07,0.11-0.14,0.13c-0.15,0.05-0.37,0.11-0.67,0.18	C30.37,15.57,27.94,16,24,16s-6.37-0.43-7.58-0.73c-0.3-0.08-0.52-0.14-0.67-0.19c-0.1-0.03-0.16-0.11-0.17-0.2	c-0.3,0.17-0.59,0.35-0.86,0.55c0.15,0.29,0.41,0.51,0.73,0.61c0.14,0.04,0.32,0.1,0.55,0.15c1.24,0.33,3.8,0.81,8,0.81	s6.76-0.48,8-0.81c0.23-0.05,0.41-0.11,0.55-0.15c0.28-0.09,0.53-0.28,0.68-0.53C32.96,15.31,32.68,15.13,32.39,14.96z M21.29,9.1	c-0.09,0.11-0.26,0.12-0.37,0.04c0.05,0.04,0.11,0.06,0.17,0.06C21.16,9.2,21.24,9.17,21.29,9.1z" opacity=".05"/></svg>