<svg xmlns="http://www.w3.org/2000/svg" viewBox="0 0 48 48"><path fill="#33c481" d="M8,37h3v3H8V37z M11,19h3v3h-3V19z M14,22h3v6h-3V22z M17,28h3v3h-3V28z M20,31h6v3h-6V31z M26,34h3 v3h-3V34z"/><path fill="#323538" d="M12,31h2v3h-3v-2C11,31.448,11.448,31,12,31z M14,34h3v2c0,0.552-0.448,1-1,1h-2V34z"/><linearGradient id="7uofyUXynoI9V4LNlVy0~a" x1="2.439" x2="25.854" y1="22.146" y2="45.561" gradientUnits="userSpaceOnUse"><stop offset="0" stop-color="#21a366"/><stop offset="1" stop-color="#107c42"/></linearGradient><path fill="url(#7uofyUXynoI9V4LNlVy0~a)" d="M14,28h3v3h-3V28z M8,17v4c0,0.552,0.448,1,1,1h2v-3h3v-2c0-0.552-0.448-1-1-1H9 C8.448,16,8,16.448,8,17z M14,19h2c0.552,0,1,0.448,1,1v2h-3V19z M17,22h3v6h-3V22z M11,22h3v6h-2c-0.552,0-1-0.448-1-1V22z M20,28 h6v3h-6V28z M20,34h6v3h-6V34z M26,31h3v3h-3V31z M29,34v3h-3v2c0,0.552,0.448,1,1,1h4c0.552,0,1-0.448,1-1v-4c0-0.552-0.448-1-1-1 H29z M17,31h3v3h-3V31z M11,37v3H8v-3H11v-3H6c-0.552,0-1,0.448-1,1v7c0,0.552,0.448,1,1,1h7c0.552,0,1-0.448,1-1v-5H11z"/><path fill="#5bc8ef" d="M20,28v-6h3v-3h3v-3h3v-3h3v-3h3V7h6v6h-3v3h-3v3h-3v3h-3v3h-3v3H20z"/><path fill="#bf6415" d="M11,34h3v3h-3V34z M14,31h3v3h-3V31z"/><linearGradient id="7uofyUXynoI9V4LNlVy0~b" x1="21.625" x2="40.55" y1="5.918" y2="24.843" gradientUnits="userSpaceOnUse"><stop offset="0" stop-color="#2aa4f4"/><stop offset="1" stop-color="#007ad9"/></linearGradient><path fill="url(#7uofyUXynoI9V4LNlVy0~b)" d="M21,19h2v3h-3v-2C20,19.448,20.448,19,21,19z M27,13h2v3h-3v-2C26,13.448,26.448,13,27,13z M24,16h2v3h-3v-2C23,16.448,23.448,16,24,16z M30,10h2v3h-3v-2C29,10.448,29.448,10,30,10z M33,7h2v3h-3V8C32,7.448,32.448,7,33,7 z M35,5v2h6v6h2c0.552,0,1-0.448,1-1V5c0-0.552-0.448-1-1-1h-7C35.448,4,35,4.448,35,5z M26,25h3v2c0,0.552-0.448,1-1,1h-2V25z M32,19h3v2c0,0.552-0.448,1-1,1h-2V19z M29,22h3v2c0,0.552-0.448,1-1,1h-2V22z M35,16h3v2c0,0.552-0.448,1-1,1h-2V16z M38,13h3v2 c0,0.552-0.448,1-1,1h-2V13z M20,25h3v3h-3V25z M26,19h3v3h-3V19z M23,22h3v3h-3V22z M29,16h3v3h-3V16z M35,10h3v3h-3V10z M32,13h3 v3h-3V13z M38,7h3v3h-3V7z"/></svg>