<svg xmlns="http://www.w3.org/2000/svg" viewBox="0 0 48 48"><path fill="#64717c" d="M41,20c-0.552,0-1-0.447-1-1v-3c0-1.654-1.346-3-3-3h-3c-0.552,0-1-0.447-1-1s0.448-1,1-1h3	c2.757,0,5,2.243,5,5v3C42,19.553,41.552,20,41,20z"/><path fill="#64717c" d="M14,37h-3c-2.757,0-5-2.243-5-5v-3c0-0.553,0.448-1,1-1s1,0.447,1,1v3c0,1.654,1.346,3,3,3h3	c0.552,0,1,0.447,1,1S14.552,37,14,37z"/><linearGradient id="JXI4bifHHiSDC14g3XSVva" x1="11.26" x2="20.286" y1="251.195" y2="229.327" gradientTransform="matrix(1 0 0 -1 0 254)" gradientUnits="userSpaceOnUse"><stop offset="0" stop-color="#32bdef"/><stop offset="1" stop-color="#1ea2e4"/></linearGradient><path fill="url(#JXI4bifHHiSDC14g3XSVva)" d="M28.5,25h-24C3.672,25,3,24.279,3,23.389V7.611C3,6.721,3.672,6,4.5,6h24	C29.328,6,30,6.721,30,7.611v15.778C30,24.279,29.328,25,28.5,25z"/><linearGradient id="JXI4bifHHiSDC14g3XSVvb" x1="26.26" x2="35.286" y1="234.195" y2="212.327" gradientTransform="matrix(1 0 0 -1 0 254)" gradientUnits="userSpaceOnUse"><stop offset="0" stop-color="#f44f5a"/><stop offset=".443" stop-color="#ee3d4a"/><stop offset="1" stop-color="#e52030"/></linearGradient><path fill="url(#JXI4bifHHiSDC14g3XSVvb)" d="M43.5,42h-24c-0.828,0-1.5-0.721-1.5-1.611V24.611C18,23.721,18.672,23,19.5,23h24	c0.828,0,1.5,0.721,1.5,1.611v15.778C45,41.279,44.328,42,43.5,42z"/><linearGradient id="JXI4bifHHiSDC14g3XSVvc" x1="3" x2="30" y1="243.5" y2="243.5" gradientTransform="matrix(1 0 0 -1 0 254)" gradientUnits="userSpaceOnUse"><stop offset="0" stop-color="#45494d"/><stop offset="1" stop-color="#6d7479"/></linearGradient><rect width="27" height="3" x="3" y="9" fill="url(#JXI4bifHHiSDC14g3XSVvc)"/><path fill="#a8e7ff" d="M27.5,16h-22C5.224,16,5,15.776,5,15.5v-1C5,14.224,5.224,14,5.5,14h22c0.276,0,0.5,0.224,0.5,0.5v1	C28,15.776,27.776,16,27.5,16z"/><linearGradient id="JXI4bifHHiSDC14g3XSVvd" x1="18" x2="45" y1="226.5" y2="226.5" gradientTransform="matrix(1 0 0 -1 0 254)" gradientUnits="userSpaceOnUse"><stop offset="0" stop-color="#45494d"/><stop offset="1" stop-color="#6d7479"/></linearGradient><rect width="27" height="3" x="18" y="26" fill="url(#JXI4bifHHiSDC14g3XSVvd)"/><path fill="#ff6771" d="M42.5,33h-22c-0.276,0-0.5-0.224-0.5-0.5v-1c0-0.276,0.224-0.5,0.5-0.5h22c0.276,0,0.5,0.224,0.5,0.5	v1C43,32.776,42.776,33,42.5,33z"/></svg>