<svg xmlns="http://www.w3.org/2000/svg" viewBox="0 0 48 48"><linearGradient id="vLMwOwjn4I~51PnzCmZJia" x1="24" x2="24" y1="-294.147" y2="-302.179" gradientTransform="matrix(1 0 0 -1 0 -290)" gradientUnits="userSpaceOnUse"><stop offset="0" stop-color="#0176d0"/><stop offset="1" stop-color="#16538c"/></linearGradient><path fill="url(#vLMwOwjn4I~51PnzCmZJia)" d="M24,4c-4,0-4,2-8,2c0,3,2,2,2,6h12c0-4,2-3,2-6C28,6,28,4,24,4z"/><linearGradient id="vLMwOwjn4I~51PnzCmZJib" x1="8.397" x2="35.767" y1="-303.26" y2="-330.63" gradientTransform="matrix(1 0 0 -1 0 -290)" gradientUnits="userSpaceOnUse"><stop offset="0" stop-color="#0176d0"/><stop offset="1" stop-color="#16538c"/></linearGradient><path fill="url(#vLMwOwjn4I~51PnzCmZJib)" d="M41,31c0,9.389-7.611,10-17,10S7,40.389,7,31s7.611-20,17-20S41,21.611,41,31z"/><line x1="18" x2="30" y1="12" y2="12" fill="none" stroke="#8f979e" stroke-linecap="round" stroke-linejoin="round" stroke-width="2"/><path d="M19.734,35.021c-0.894,0-1.621-0.728-1.621-1.621v-1.28c0-0.713,0.456-1.334,1.134-1.546	c0.688-0.218,0.933-0.59,0.933-1.42v-0.152h-0.246c-0.894,0-1.621-0.728-1.621-1.621v-1.337c0-0.894,0.728-1.62,1.621-1.62h0.246	v-0.787c0-1.598,0.489-2.946,1.453-4.009c1.007-1.108,2.311-1.67,3.874-1.67c0.956,0,1.85,0.175,2.655,0.52	c0.6,0.259,0.985,0.844,0.985,1.491v1.469c0,0.577-0.311,1.114-0.81,1.402c-0.241,0.142-0.523,0.219-0.811,0.219	c-0.282,0-0.56-0.074-0.804-0.214c-0.387-0.219-0.779-0.326-1.198-0.326c-0.245,0-0.55,0-0.55,1.288v0.616h1.185	c0.894,0,1.621,0.727,1.621,1.62v1.337c0,0.894-0.728,1.621-1.621,1.621h-1.186c-0.011,0.515-0.075,1-0.194,1.45h3.485	c0.435,0,0.842,0.17,1.148,0.478c0.306,0.306,0.474,0.714,0.473,1.147V33.4c0,0.894-0.728,1.621-1.621,1.621H19.734z" opacity=".05"/><path d="M19.734,34.521c-0.618,0-1.121-0.503-1.121-1.121v-1.28c0-0.492,0.314-0.922,0.783-1.068	c0.899-0.285,1.283-0.853,1.283-1.897v-0.652h-0.746c-0.618,0-1.121-0.503-1.121-1.121v-1.337c0-0.617,0.503-1.12,1.121-1.12h0.746	v-1.287c0-1.47,0.445-2.705,1.323-3.673c0.908-0.999,2.087-1.506,3.504-1.506c0.888,0,1.715,0.161,2.459,0.479	c0.414,0.179,0.682,0.583,0.682,1.031v1.469c0,0.398-0.214,0.77-0.56,0.969c-0.167,0.099-0.362,0.152-0.561,0.152	c-0.194,0-0.387-0.051-0.556-0.147c-0.465-0.264-0.938-0.393-1.446-0.393c-0.393,0-1.05,0-1.05,1.788v1.116h1.685	c0.618,0,1.121,0.503,1.121,1.12v1.337c0,0.618-0.503,1.121-1.121,1.121h-1.685v0.358c0,0.781-0.132,1.481-0.395,2.092h4.185	c0.3,0,0.582,0.117,0.794,0.33c0.212,0.212,0.328,0.494,0.327,0.793V33.4c0,0.618-0.503,1.121-1.121,1.121H19.734z" opacity=".07"/><path fill="#fff" d="M28.266,31.451h-5.039c0.498-0.685,0.749-1.552,0.749-2.592v-0.858h2.185	c0.343,0,0.621-0.278,0.621-0.621v-1.337c0-0.343-0.278-0.621-0.621-0.621h-2.185v-1.616c0-2.289,1.086-2.289,1.55-2.289	c0.596,0,1.15,0.15,1.693,0.458c0.193,0.109,0.429,0.109,0.62-0.003c0.192-0.111,0.309-0.315,0.309-0.536v-1.468	c0-0.249-0.148-0.473-0.377-0.572c-0.681-0.29-1.443-0.439-2.263-0.439c-1.271,0-2.324,0.451-3.134,1.341	c-0.792,0.873-1.194,1.995-1.194,3.337v1.787h-1.246c-0.343,0-0.621,0.278-0.621,0.621v1.337c0,0.343,0.278,0.621,0.621,0.621h1.246	v1.152c0,1.267-0.519,2.022-1.632,2.374c-0.258,0.082-0.433,0.322-0.433,0.592v1.28c0,0.343,0.278,0.621,0.621,0.621h8.531	c0.343,0,0.621-0.278,0.621-0.621v-1.327C28.887,31.73,28.608,31.451,28.266,31.451z"/></svg>