<svg xmlns="http://www.w3.org/2000/svg" viewBox="0 0 48 48"><linearGradient id="M8epOo08zZ6kThy6JGFJga" x1="16.569" x2="31.179" y1="3.548" y2="44.743" gradientUnits="userSpaceOnUse"><stop offset="0" stop-color="#32bdef"/><stop offset="1" stop-color="#1ea2e4"/></linearGradient><path fill="url(#M8epOo08zZ6kThy6JGFJga)" d="M34,4H14c-1.105,0-2,0.895-2,2v37c0,1.105,0.895,2,2,2h20c1.105,0,2-0.895,2-2V6	C36,4.895,35.105,4,34,4z"/><path fill="#007ad9" d="M17,4h14l-0.544,1.632C30.184,6.449,29.419,7,28.558,7h-9.117c-0.861,0-1.625-0.551-1.897-1.368L17,4	z"/><circle cx="27.5" cy="5.5" r=".5" fill="#184f85"/><path fill="#184f85" d="M25.5,5c-0.093,0-3.907,0-4,0C21.224,5,21,5.224,21,5.5C21,5.776,21.224,6,21.5,6	c0.093,0,3.907,0,4,0C25.776,6,26,5.776,26,5.5C26,5.224,25.776,5,25.5,5z"/></svg>