<svg xmlns="http://www.w3.org/2000/svg" viewBox="0 0 48 48"><path fill="#64717c" d="M21.065,16l1.364,5.638c2.349-0.909,3.638,0.269,6.05,0.269c8.029,0,4.864-7.394,16.103-9.914 l0.04-0.978c0,0-3.24-0.999-7.621-1.015C32.394,9.982,25.885,11.291,21.065,16z"/><path fill="#edbe00" d="M26,26c0,5-0.409,9.677-7.519,14.145l-0.166,1.583l3.009,3.008l1.266,0.069	C30.591,39.805,32,32,32,26H26z"/><path fill="#fad500" d="M32,28h-6c-0.552,0-1-0.448-1-1v-2c0-0.552,0.448-1,1-1h6c0.552,0,1,0.448,1,1v2	C33,27.552,32.552,28,32,28z"/><circle cx="19" cy="41" r="1" fill="#edbe00"/><circle cx="22" cy="44" r="1" fill="#edbe00"/><path fill="#edbe00" d="M19.477,16.212C13.613,17.481,6.282,20.51,3.088,29.387l0.335,1.223L7,32.915l1.512-0.498	c2.863-7.894,7.347-9.283,12.234-10.341L19.477,16.212z"/><path fill="#fad500" d="M17.522,16.635l1.269,5.864c0.117,0.54,0.649,0.883,1.189,0.766l1.955-0.423	c0.54-0.117,0.883-0.649,0.766-1.189l-1.269-5.864c-0.117-0.54-0.649-0.883-1.189-0.766l-1.955,0.423	C17.748,15.563,17.405,16.095,17.522,16.635z"/><circle cx="7.567" cy="32.091" r="1" fill="#edbe00"/><circle cx="4" cy="29.794" r="1" fill="#edbe00"/><linearGradient id="grF~kDe6T1IH9muUaWAHVa" x1="25.332" x2="41.528" y1="5.979" y2="22.175" gradientUnits="userSpaceOnUse"><stop offset="0" stop-color="#889097"/><stop offset=".331" stop-color="#848c94"/><stop offset=".669" stop-color="#78828b"/><stop offset="1" stop-color="#64717c"/></linearGradient><path fill="url(#grF~kDe6T1IH9muUaWAHVa)" d="M40,3.5C40,3.224,39.776,3,39.5,3C27.545,3,25,10.666,25,16c0,5,1,8,1,8h6c0,0,3-1.304,3-5 c0-2.237-2-4.06-2-6c0-6,5.116-8.763,6.586-9.008l-0.001-0.01C39.819,3.941,40,3.746,40,3.5z"/><linearGradient id="grF~kDe6T1IH9muUaWAHVb" x1="30.653" x2="28.398" y1="18.653" y2="16.398" gradientUnits="userSpaceOnUse"><stop offset="0" stop-color="#4f5458"/><stop offset="1" stop-color="#323538"/></linearGradient><path fill="url(#grF~kDe6T1IH9muUaWAHVb)" d="M29.502,19c-0.828,0.001-1.502-0.673-1.502-1.502c-0.002-0.828,0.67-1.5,1.498-1.498	c0.83,0.001,1.503,0.674,1.502,1.502C31.002,18.329,30.331,19.001,29.502,19z"/><circle cx="44.5" cy="11.5" r=".5" fill="#64717c"/></svg>