<svg xmlns="http://www.w3.org/2000/svg" viewBox="0 0 48 48"><linearGradient id="220n0_ppc0nCKNZsTrjYma" x1="20.01" x2="43.4" y1="2.274" y2="29.006" gradientTransform="translate(-8.01 8.01)" gradientUnits="userSpaceOnUse"><stop offset="0" stop-color="#75daff"/><stop offset="1" stop-color="#1ea2e4"/></linearGradient><circle cx="24" cy="24" r="16" fill="url(#220n0_ppc0nCKNZsTrjYma)"/><path d="M10.766,15.009l3.794,3.794c0.378,0.378,0.88,0.586,1.414,0.586c0.535,0,1.037-0.208,1.414-0.586	l1.415-1.414c0.78-0.779,0.78-2.049,0-2.828l-3.794-3.794C13.342,11.901,11.901,13.342,10.766,15.009z" opacity=".05"/><path d="M11.069,14.604l3.845,3.845c0.283,0.283,0.66,0.439,1.061,0.439c0.401,0,0.778-0.156,1.061-0.439	l1.415-1.414c0.585-0.585,0.585-1.536,0-2.121l-3.845-3.845C13.248,12.056,12.056,13.248,11.069,14.604z" opacity=".05"/><linearGradient id="220n0_ppc0nCKNZsTrjYmb" x1="637.72" x2="653.282" y1="-580.36" y2="-580.36" gradientTransform="scale(-1 1) rotate(-45 1031.722 509.305)" gradientUnits="userSpaceOnUse"><stop offset="0" stop-color="#0d61a9"/><stop offset="1" stop-color="#16528c"/></linearGradient><path fill="url(#220n0_ppc0nCKNZsTrjYmb)" d="M7.073,6.092L11.959,6c0.9-0.017,1.362,1.071,0.726,1.707L11.61,8.782l6.485,6.485	c0.391,0.391,0.391,1.024,0,1.414l-1.414,1.414c-0.391,0.391-1.024,0.391-1.414,0l-6.485-6.485l-1.075,1.075	C7.071,13.322,5.983,12.859,6,11.959l0.092-4.887C6.102,6.535,6.535,6.102,7.073,6.092z"/><path d="M32.991,10.767l-3.794,3.794c-0.78,0.779-0.78,2.049,0,2.828l1.414,1.414	c0.378,0.378,0.88,0.586,1.415,0.586s1.036-0.208,1.414-0.586l3.794-3.794C36.099,13.342,34.658,11.901,32.991,10.767z" opacity=".05"/><path d="M33.396,11.069l-3.845,3.845c-0.585,0.585-0.585,1.536,0,2.121l1.414,1.414	c0.283,0.283,0.66,0.439,1.061,0.439c0.4,0,0.777-0.156,1.061-0.439l3.845-3.845C35.944,13.248,34.752,12.056,33.396,11.069z" opacity=".05"/><linearGradient id="220n0_ppc0nCKNZsTrjYmc" x1="654.416" x2="669.978" y1="-563.664" y2="-563.664" gradientTransform="rotate(-45.001 1043.906 479.875)" gradientUnits="userSpaceOnUse"><stop offset="0" stop-color="#0d61a9"/><stop offset="1" stop-color="#16528c"/></linearGradient><path fill="url(#220n0_ppc0nCKNZsTrjYmc)" d="M40.927,6.092L36.041,6c-0.9-0.017-1.362,1.071-0.726,1.707l1.075,1.075l-6.485,6.485	c-0.391,0.391-0.391,1.024,0,1.414l1.414,1.414c0.391,0.391,1.024,0.391,1.414,0l6.485-6.485l1.075,1.075	c0.636,0.636,1.724,0.174,1.707-0.726l-0.092-4.887C41.898,6.535,41.465,6.102,40.927,6.092z"/><path d="M17.389,29.197c-0.378-0.378-0.88-0.586-1.415-0.586s-1.036,0.208-1.414,0.586l-3.794,3.794	c1.135,1.667,2.576,3.108,4.242,4.242l3.794-3.794c0.78-0.779,0.78-2.049,0-2.828L17.389,29.197z" opacity=".05"/><path d="M17.035,29.551c-0.283-0.283-0.66-0.439-1.061-0.439c-0.4,0-0.777,0.156-1.061,0.439l-3.845,3.845	c0.987,1.356,2.179,2.548,3.535,3.535l3.845-3.845c0.585-0.585,0.585-1.536,0-2.121L17.035,29.551z" opacity=".05"/><linearGradient id="220n0_ppc0nCKNZsTrjYmd" x1="654.416" x2="669.978" y1="-597.056" y2="-597.056" gradientTransform="rotate(134.999 205.908 -415.157)" gradientUnits="userSpaceOnUse"><stop offset="0" stop-color="#0d61a9"/><stop offset="1" stop-color="#16528c"/></linearGradient><path fill="url(#220n0_ppc0nCKNZsTrjYmd)" d="M7.073,41.908L11.959,42c0.9,0.017,1.362-1.071,0.726-1.707l-1.075-1.075l6.485-6.485	c0.391-0.391,0.391-1.024,0-1.414l-1.414-1.414c-0.391-0.391-1.024-0.391-1.414,0l-6.485,6.485l-1.075-1.075	C7.071,34.678,5.983,35.141,6,36.041l0.092,4.887C6.102,41.465,6.535,41.898,7.073,41.908z"/><path d="M33.44,29.197c-0.378-0.378-0.88-0.586-1.414-0.586c-0.535,0-1.037,0.208-1.414,0.586l-1.415,1.414	c-0.78,0.779-0.78,2.049,0,2.828l3.794,3.794c1.667-1.135,3.108-2.576,4.242-4.242L33.44,29.197z" opacity=".05"/><path d="M33.086,29.551c-0.283-0.283-0.66-0.439-1.061-0.439c-0.401,0-0.778,0.156-1.061,0.439l-1.415,1.414	c-0.585,0.585-0.585,1.536,0,2.121l3.845,3.845c1.356-0.987,2.548-2.179,3.535-3.535L33.086,29.551z" opacity=".05"/><linearGradient id="220n0_ppc0nCKNZsTrjYme" x1="671.111" x2="686.674" y1="-580.36" y2="-580.36" gradientTransform="scale(1 -1) rotate(-45 1014.476 467.67)" gradientUnits="userSpaceOnUse"><stop offset="0" stop-color="#0d61a9"/><stop offset="1" stop-color="#16528c"/></linearGradient><path fill="url(#220n0_ppc0nCKNZsTrjYme)" d="M40.927,41.908L36.041,42c-0.9,0.017-1.362-1.071-0.726-1.707l1.075-1.075l-6.485-6.485	c-0.391-0.391-0.391-1.024,0-1.414l1.414-1.414c0.391-0.391,1.024-0.391,1.414,0l6.485,6.485l1.075-1.075	c0.636-0.636,1.724-0.174,1.707,0.726l-0.092,4.887C41.898,41.465,41.465,41.898,40.927,41.908z"/></svg>