<svg xmlns="http://www.w3.org/2000/svg" data-name="Слой 1" viewBox="0 0 48 48"><defs><linearGradient id="dmxQU9iZngUjOQuielJt_a" x1="21.785" x2="33.687" y1="-1.769" y2="30.931" data-name="Безымянный градиент 34" gradientUnits="userSpaceOnUse"><stop offset="0" stop-color="#6d6d6d"/><stop offset=".126" stop-color="#626262"/><stop offset=".987" stop-color="#464646"/><stop offset=".998" stop-color="#454545"/></linearGradient><linearGradient id="dmxQU9iZngUjOQuielJt_b" x1="14.953" x2="25.94" y1="9.14" y2="39.326" data-name="Безымянный градиент 121" gradientTransform="rotate(-180 22 28.5)" gradientUnits="userSpaceOnUse"><stop offset="0" stop-color="#f44f5a"/><stop offset=".443" stop-color="#ee3d4a"/><stop offset="1" stop-color="#e52030"/></linearGradient></defs><path fill="url(#dmxQU9iZngUjOQuielJt_a)" d="M35.56152,10.14307A4.99114,4.99114,0,0,0,30.63574,6H17.5a.5.5,0,0,0-.5.5V7.79291a.5.5,0,0,0,.14642.35351L18,9v5H28V8h2.63574a2.99348,2.99348,0,0,1,2.95508,2.48584l3.42383,19.68555A1.00029,1.00029,0,0,0,37.999,31a1.02948,1.02948,0,0,0,.17188-.01465,1.00005,1.00005,0,0,0,.81445-1.15674Z"/><rect width="18" height="29" x="13" y="14" fill="url(#dmxQU9iZngUjOQuielJt_b)" transform="rotate(180 22 28.5)"/><rect width="20" height="2" x="12" y="13" fill="#b31523" rx="1"/><rect width="20" height="2" x="12" y="42" fill="#b31523" rx="1"/><path fill="#bfc8d1" d="M26,17a4,4,0,1,1,4-4A4.00471,4.00471,0,0,1,26,17Zm0-6a2,2,0,1,0,2,2A2.00219,2.00219,0,0,0,26,11Z"/></svg>