<svg xmlns="http://www.w3.org/2000/svg" data-name="Слой 1" viewBox="0 0 48 48"><defs><linearGradient id="TB3PnvWCjLhZbj5PEibo~a" x1="14.808" x2="30.064" y1="1.385" y2="43.301" data-name="Безымянный градиент 73" gradientUnits="userSpaceOnUse"><stop offset="0" stop-color="#9332bf"/><stop offset="1" stop-color="#912fbd"/></linearGradient></defs><path fill="url(#TB3PnvWCjLhZbj5PEibo~a)" d="M47.929,27.629a3.11311,3.11311,0,0,0-1.741-1.866c-1.618-.633-3.549.287-5.591,1.263-3.301,1.572-4.826,1.982-5.739.46-.011-.018-.028-.052-.041-.076A5.52472,5.52472,0,0,0,35,26a6.00021,6.00021,0,0,0-1.736-4.146,5.55827,5.55827,0,0,0-2.333-1.488.99721.99721,0,0,0-.036-.813,4.85021,4.85021,0,0,0-3.438-2.423c.285-1.795.513-2.882.521-2.921a1.00019,1.00019,0,0,0-1.956-.419c-.034.159-.277,1.316-.57,3.154a4.83719,4.83719,0,0,0-.648.075A9.55268,9.55268,0,0,0,17,26a5.53784,5.53784,0,0,0,.375,1.986c-.126.004-.239.014-.375.014a5.054,5.054,0,0,1-1.46-.248c.03-.065.059-.132.086-.199,1.04-2.577.985-4.586-.163-5.972a4.92871,4.92871,0,0,0-2.719-1.554c6.197-3.281,9.494-7.871,9.592-11.307a3.54907,3.54907,0,0,0-2.115-3.616c-3.273-1.355-8.719,1.633-14.946,8.208A15.49227,15.49227,0,0,0,.671,24.724c.284,9.112,8.307,16.689,8.648,17.007a.99906.99906,0,1,0,1.362-1.462c-.077-.072-7.761-7.341-8.014-15.615a13.57892,13.57892,0,0,1,4.058-9.966c6.536-6.897,10.936-8.475,12.729-7.736a1.59923,1.59923,0,0,1,.883,1.713c-.077,2.718-3.584,8.213-12.667,11.392a1.00017,1.00017,0,0,0,.525,1.925c1.116-.221,4.563-.532,5.729.879.643.775.591,2.104-.152,3.944-.028.069-.059.137-.092.204-.099-.045-.196-.09-.294-.135-1.632-.749-3.319-1.524-4.833-.768a2.72731,2.72731,0,0,0-1.595,2.689A2.46256,2.46256,0,0,0,8.72,30.96a5.99181,5.99181,0,0,0,5.592-1.515A7.73186,7.73186,0,0,0,17,30a11.89248,11.89248,0,0,0,1.531-.1,9.47413,9.47413,0,0,0,5.808,2.975,54.48965,54.48965,0,0,0,.675,7.289,1,1,0,0,0,.985.836.927.927,0,0,0,.165-.014.99942.99942,0,0,0,.822-1.15,51.43759,51.43759,0,0,1-.637-6.85,9.5726,9.5726,0,0,0,7.494-3.565,3.50219,3.50219,0,0,0,2.57,1.014,12.78892,12.78892,0,0,0,5.043-1.605c1.497-.713,3.194-1.521,4.002-1.204.093.035.372.146.612.745a1.00081,1.00081,0,0,0,1.859-.742ZM9.279,29.04a.477.477,0,0,1-.33-.426.759.759,0,0,1,.498-.72,1.05377,1.05377,0,0,1,.475-.099,6.55847,6.55847,0,0,1,2.295.742A3.79281,3.79281,0,0,1,9.279,29.04Zm19.582-8.967a7.77866,7.77866,0,0,0-1.859.286c.054-.434.108-.851.162-1.248A3.22907,3.22907,0,0,1,28.861,20.073Zm-7.142,7.258a1.01546,1.01546,0,0,0-1.4-.063,2.97171,2.97171,0,0,1-.901.415A3.71527,3.71527,0,0,1,19,26a7.5126,7.5126,0,0,1,6.15-7.008c-.095.696-.189,1.448-.279,2.246a10.21929,10.21929,0,0,0-2.186,1.663l-.392.392a.99985.99985,0,0,0,1.414,1.414l.392-.392c.165-.165.337-.321.515-.47-.182,2.157-.306,4.533-.306,7a7.84505,7.84505,0,0,1-3.541-1.537,3.50174,3.50174,0,0,0,.941-.602A.98461.98461,0,0,0,21.719,27.331Zm4.598,3.658a84.28313,84.28313,0,0,1,.44-8.435,6.10255,6.10255,0,0,1,2.263-.482c.023,0,.047.001.069.001a3.66911,3.66911,0,0,1,2.72,1.154,4.11587,4.11587,0,0,1,1.153,2.404,1.88428,1.88428,0,0,0-1.461.459,1.89006,1.89006,0,0,0-2.947.566l-.448.897a1.00019,1.00019,0,0,0,1.789.895l.382-.765a1.87492,1.87492,0,0,0,2.247.116C31.546,29.601,29.15,30.897,26.317,30.989Z"/></svg>