<svg xmlns="http://www.w3.org/2000/svg" id="Layer_1" x="0" y="0" version="1.1" viewBox="0 0 48 48" xml:space="preserve"><linearGradient id="SVGID_1_" x1="39.001" x2="41.528" y1="-455.5" y2="-455.5" gradientTransform="matrix(1 0 0 -1 0 -426)" gradientUnits="userSpaceOnUse"><stop offset="0" stop-color="#c48f0c"/><stop offset=".251" stop-color="#d19b16"/><stop offset=".619" stop-color="#dca51f"/><stop offset="1" stop-color="#e0a922"/></linearGradient><path fill="url(#SVGID_1_)" d="M39,25h-1v9h1.3c1,0,1.8-0.7,2-1.7l0.7-3.8C42.3,26.7,40.9,25,39,25z"/><linearGradient id="SVGID_2_" x1="-1459" x2="-1456.472" y1="-455.5" y2="-455.5" gradientTransform="rotate(180 -725 -213)" gradientUnits="userSpaceOnUse"><stop offset="0" stop-color="#c48f0c"/><stop offset=".251" stop-color="#d19b16"/><stop offset=".619" stop-color="#dca51f"/><stop offset="1" stop-color="#e0a922"/></linearGradient><path fill="url(#SVGID_2_)" d="M9,25h1v9H8.7c-1,0-1.8-0.7-2-1.7L6,28.5C5.7,26.7,7.1,25,9,25z"/><radialGradient id="SVGID_3_" cx="24" cy="-451.5" r="17.396" gradientTransform="matrix(1 0 0 -1 0 -426)" gradientUnits="userSpaceOnUse"><stop offset="0" stop-color="#ffcf54"/><stop offset=".261" stop-color="#fdcb4d"/><stop offset=".639" stop-color="#f7c13a"/><stop offset="1" stop-color="#f0b421"/></radialGradient><path fill="url(#SVGID_3_)" d="M24,6C16.6,6,9,9,9,25c0,1.3,0,5.9,0,7.3C9,38,18,45,24,45s15-7,15-12.7c0-1.4,0-6,0-7.3C39,9,31.4,6,24,6z"/><radialGradient id="SVGID_4_" cx="9.386" cy="-431.933" r="42.765" gradientTransform="matrix(1 0 0 -1 0 -426)" gradientUnits="userSpaceOnUse"><stop offset="0" stop-color="#c26715"/><stop offset=".508" stop-color="#b85515"/><stop offset="1" stop-color="#ad3f16"/></radialGradient><path fill="url(#SVGID_4_)" d="M24,4c-8,0-10,3-10,3c-3.2,0.5-7,4.6-7,10c0,3,0.7,4.4,2,12c1-12,2-16,4-16c3,0,3,2,11.8,2c5,0,7.2-2,9.2-2	c5,0,5,14.1,5,16c0.8-7.4,1-9.4,1-12C40,10.7,35.4,4,24,4z"/><radialGradient id="SVGID_5_" cx="20.832" cy="-435.178" r="53.981" gradientTransform="matrix(1 0 0 -1 0 -426)" gradientUnits="userSpaceOnUse"><stop offset="0" stop-color="#c26715"/><stop offset=".508" stop-color="#b85515"/><stop offset="1" stop-color="#ad3f16"/></radialGradient><path fill="url(#SVGID_5_)" d="M24,3c-8,0-10,4-10,4c-0.1,2.1,1,4,1,4s1.5,3,9.8,3c5,0,12.2-3,12.2-11C37,3,35.4,3,24,3z"/><path fill="#2b1d1d" d="M29,38c0,0.6-0.4,1-1,1h-8c-0.6,0-1-0.4-1-1c0-0.7,0.2-1.4,0.6-2c1-1.4,2.7-2.1,4.4-2c1.3,0,2.6,0.4,3.6,1.2	c0.3,0.2,0.5,0.5,0.8,0.8C28.8,36.6,29,37.3,29,38z"/><radialGradient id="SVGID_6_" cx="23.734" cy="-462.4" r="4.376" gradientTransform="matrix(1 0 0 -1 0 -426)" gradientUnits="userSpaceOnUse"><stop offset="0" stop-color="#fff"/><stop offset=".209" stop-color="#f8f8f8"/><stop offset=".514" stop-color="#e4e4e4"/><stop offset=".877" stop-color="#c4c4c4"/><stop offset="1" stop-color="#b8b8b8"/></radialGradient><path fill="url(#SVGID_6_)" d="M28.4,36h-8.8c1-1.4,2.7-2.1,4.4-2c1.3,0,2.6,0.4,3.6,1.2C27.9,35.4,28.2,35.7,28.4,36z"/><path fill="#2b1d1d" d="M31.1,28.1c-1.2,0.4-2.6-0.2-3-1.4l4.4-1.6C33,26.3,32.4,27.6,31.1,28.1z"/><path fill="#343434" d="M27.1,27.1c-0.6,0-1-0.4-1-1c0-0.4,0.3-0.8,0.7-0.9l6-2c0.5-0.2,1.1,0.1,1.3,0.6c0.2,0.5-0.1,1.1-0.6,1.3 c0,0,0,0,0,0l-6,2C27.3,27.1,27.2,27.1,27.1,27.1z"/><path fill="#2b1d1d" d="M16.9,28.1c1.2,0.4,2.6-0.2,3-1.4l-4.4-1.6C15,26.3,15.6,27.6,16.9,28.1z"/><path fill="#343434" d="M20.6,27l-6-2c0,0,0,0,0,0c-0.5-0.2-0.8-0.7-0.6-1.3c0.2-0.5,0.7-0.8,1.3-0.6l6,2c0.4,0.1,0.7,0.5,0.7,0.9 c0,0.6-0.4,1-1,1C20.8,27.1,20.7,27.1,20.6,27z"/></svg>