<svg xmlns="http://www.w3.org/2000/svg" viewBox="0 0 48 48"><linearGradient id="3YxdCiIhRK6TahGWka9eca" x1="23.975" x2="24.107" y1="50.215" y2="38.346" gradientUnits="userSpaceOnUse"><stop offset=".491" stop-color="#fac600"/><stop offset="1" stop-color="#d66b00"/></linearGradient><path fill="url(#3YxdCiIhRK6TahGWka9eca)" d="M21.799,43.431c0.587-3.909,2.248-7.231,2.248-7.231s1.661,3.322,2.248,7.231	C26.498,44.787,25.418,46,24.046,46h0C22.675,46,21.595,44.787,21.799,43.431z"/><linearGradient id="3YxdCiIhRK6TahGWka9ecb" x1="23.677" x2="24.336" y1="42.105" y2="31.688" gradientUnits="userSpaceOnUse"><stop offset=".491" stop-color="#fac600"/><stop offset="1" stop-color="#d66b00"/></linearGradient><path fill="url(#3YxdCiIhRK6TahGWka9ecb)" d="M24,34c-1.657,0-3,1.343-3,3s1.343,3,3,3s3-1.343,3-3S25.657,34,24,34z"/><linearGradient id="3YxdCiIhRK6TahGWka9ecc" x1="24" x2="24" y1="5.275" y2="32.176" gradientUnits="userSpaceOnUse"><stop offset="0" stop-color="#f28aaf"/><stop offset="1" stop-color="#ef4c96"/></linearGradient><path fill="url(#3YxdCiIhRK6TahGWka9ecc)" d="M43,19.5c0,0.51-0.03,1.01-0.09,1.5c-0.08,0.69-0.22,1.35-0.41,2c-0.42,1.46-1.11,2.81-2,4	c-0.35,0.47-0.74,0.92-1.16,1.34c-0.23,0.23-0.47,0.45-0.72,0.66c-2.18,1.87-5.02,3-8.12,3h-13c-3.1,0-5.94-1.13-8.12-3	c-0.7-0.6-1.33-1.27-1.88-2c-0.89-1.19-1.58-2.54-2-4c-0.19-0.65-0.33-1.31-0.41-2C5.03,20.51,5,20.01,5,19.5	c0-0.86,0.09-1.69,0.25-2.5c0.14-0.69,0.34-1.36,0.59-2c0.57-1.49,1.42-2.85,2.5-4c0.1-0.11,0.21-0.23,0.32-0.34	C9.28,10.04,9.97,9.48,10.72,9C12.67,7.73,15,7,17.5,7h13c2.5,0,4.83,0.73,6.78,2c0.88,0.57,1.68,1.24,2.38,2	c1.08,1.15,1.93,2.51,2.5,4c0.25,0.64,0.45,1.31,0.59,2C42.91,17.81,43,18.64,43,19.5z"/><path fill="#c91f60" d="M30,7H18c0-0.17,0.01-0.34,0.05-0.5c0.02-0.17,0.06-0.34,0.13-0.5c0.14-0.43,0.39-0.81,0.7-1.12	C19.42,4.34,20.17,4,21,4h6c1.31,0,2.42,0.83,2.82,2c0.07,0.16,0.11,0.33,0.13,0.5C29.99,6.66,30,6.83,30,7z"/><path fill="#c91f60" d="M30,32c0,0.17-0.01,0.34-0.05,0.5c-0.02,0.17-0.06,0.34-0.13,0.5c-0.4,1.17-1.51,2-2.82,2h-6	c-0.83,0-1.58-0.34-2.12-0.88c-0.31-0.31-0.56-0.69-0.7-1.12c-0.07-0.16-0.11-0.33-0.13-0.5C18.01,32.34,18,32.17,18,32H30z"/><path fill="#151515" d="M30,7H18c0-0.17,0.01-0.34,0.05-0.5h11.9C29.99,6.66,30,6.83,30,7z" opacity=".05"/><path fill="#151515" d="M30,7H18c0-0.17,0.01-0.34,0.05-0.5c0.02-0.17,0.06-0.34,0.13-0.5h11.64	c0.07,0.16,0.11,0.33,0.13,0.5C29.99,6.66,30,6.83,30,7z" opacity=".05"/><path fill="#151515" d="M30,32c0,0.17-0.01,0.34-0.05,0.5h-11.9C18.01,32.34,18,32.17,18,32H30z" opacity=".05"/><path fill="#151515" d="M30,32c0,0.17-0.01,0.34-0.05,0.5c-0.02,0.17-0.06,0.34-0.13,0.5H18.18	c-0.07-0.16-0.11-0.33-0.13-0.5C18.01,32.34,18,32.17,18,32H30z" opacity=".05"/><linearGradient id="3YxdCiIhRK6TahGWka9ecd" x1="25.583" x2="34.154" y1="1.651" y2="34.947" gradientUnits="userSpaceOnUse"><stop offset=".491" stop-color="#fac600"/><stop offset="1" stop-color="#d66b00"/></linearGradient><path fill="url(#3YxdCiIhRK6TahGWka9ecd)" d="M35,19.53c0,5.52-2.28,9.81-4.22,12.47h-2.85c1.8-2.08,4.89-6.52,4.89-12.47	c0-6.03-3.13-10.47-4.93-12.53h2.85C32.69,9.65,35,13.96,35,19.53z"/><linearGradient id="3YxdCiIhRK6TahGWka9ece" x1="14.008" x2="22.579" y1="4.631" y2="37.927" gradientUnits="userSpaceOnUse"><stop offset=".491" stop-color="#fac600"/><stop offset="1" stop-color="#d66b00"/></linearGradient><path fill="url(#3YxdCiIhRK6TahGWka9ece)" d="M15.18,19.53c0,5.95,3.09,10.39,4.89,12.47h-2.85C15.28,29.34,13,25.05,13,19.53	c0-5.57,2.31-9.88,4.26-12.53h2.85C18.31,9.06,15.18,13.5,15.18,19.53z"/></svg>