<svg xmlns="http://www.w3.org/2000/svg" viewBox="0 0 48 48"><linearGradient id="EEiNGhAo8zzAPbF3x4Je5a" x1="6" x2="42" y1="1660" y2="1660" gradientTransform="translate(0 -1618)" gradientUnits="userSpaceOnUse"><stop offset="0" stop-color="#c8d3de"/><stop offset="1" stop-color="#c8d3de"/></linearGradient><path fill="url(#EEiNGhAo8zzAPbF3x4Je5a)" d="M42,40H6v2c0,1.105,0.895,2,2,2h32c1.105,0,2-0.895,2-2V40z"/><linearGradient id="EEiNGhAo8zzAPbF3x4Je5b" x1="14.095" x2="31.385" y1="1629.338" y2="1662.787" gradientTransform="translate(0 -1618)" gradientUnits="userSpaceOnUse"><stop offset="0" stop-color="#fcfcfc"/><stop offset=".495" stop-color="#f4f4f4"/><stop offset=".946" stop-color="#e8e8e8"/><stop offset="1" stop-color="#e8e8e8"/></linearGradient><path fill="url(#EEiNGhAo8zzAPbF3x4Je5b)" d="M42,40H6V21L24,4l18,17V40z"/><path fill="#de490d" d="M19,26h10c0.552,0,1,0.448,1,1v15.459V44H18V27C18,26.448,18.448,26,19,26z"/><path d="M24,5c-0.474,0-0.948,0.168-1.326,0.503l-5.359,4.811L6,21v5.39l18-15.962	L42,26.39V21L30.685,10.314l-5.359-4.811C24.948,5.168,24.474,5,24,5z" opacity=".05"/><path d="M24,4c-0.474,0-0.948,0.167-1.326,0.5l-5.359,4.784L6,19.909v5.359	L24,9.397l18,15.871v-5.359L30.685,9.284L25.326,4.5C24.948,4.167,24.474,4,24,4z" opacity=".07"/><linearGradient id="EEiNGhAo8zzAPbF3x4Je5c" x1="24" x2="24" y1="1620.684" y2="1642.696" gradientTransform="translate(0 -1618)" gradientUnits="userSpaceOnUse"><stop offset="0" stop-color="#d43a02"/><stop offset="1" stop-color="#b9360c"/></linearGradient><path fill="url(#EEiNGhAo8zzAPbF3x4Je5c)" d="M44.495,20.507L25.326,3.503C24.948,3.168,24.474,3,24,3s-0.948,0.168-1.326,0.503	L3.505,20.507c-0.42,0.374-0.449,1.02-0.064,1.43l1.636,1.745c0.369,0.394,0.984,0.424,1.39,0.067L24,8.428L41.533,23.75	c0.405,0.356,1.021,0.327,1.39-0.067l1.636-1.745C44.944,21.527,44.915,20.881,44.495,20.507z"/><path d="M42,29.72V42c0,1.1-0.9,2-2,2H28.57c-1.47-1.6-2.76-3.54-3.3-5.76	C25.09,37.49,25,36.74,25,36v-4.5c0-0.83,0.67-1.5,1.5-1.5c2.82,0,4.02-0.82,5.18-1.61c1-0.68,2.04-1.39,3.82-1.39	s2.82,0.71,3.82,1.39C40.06,28.89,40.82,29.41,42,29.72z" opacity=".05"/><path d="M42,30.23V42c0,1.1-0.9,2-2,2H29.25c-1.53-1.6-2.92-3.58-3.49-5.88	C25.59,37.41,25.5,36.7,25.5,36v-4.5c0-0.55,0.45-1,1-1c2.97,0,4.29-0.9,5.46-1.69c0.98-0.68,1.92-1.31,3.54-1.31	s2.56,0.63,3.54,1.31C39.81,29.33,40.66,29.9,42,30.23z" opacity=".07"/><linearGradient id="EEiNGhAo8zzAPbF3x4Je5d" x1="31.791" x2="41.63" y1="22.027" y2="3.929" gradientTransform="matrix(1 0 0 -1 0 50)" gradientUnits="userSpaceOnUse"><stop offset="0" stop-color="#0077d2"/><stop offset="1" stop-color="#0b59a2"/></linearGradient><path fill="url(#EEiNGhAo8zzAPbF3x4Je5d)" d="M44.5,31c-5.561,0-5.639-3-9-3s-3.439,3-9,3c-0.276,0-0.5,0.224-0.5,0.5c0,0,0,2.928,0,4.5	c0,0.689,0.089,1.356,0.246,2c1.468,6.004,9.04,9.953,9.04,9.953S35.392,48,35.5,48c0.102,0,0.214-0.047,0.214-0.047	s7.572-3.95,9.04-9.953C44.911,37.356,45,36.689,45,36c0-1.572,0-4.5,0-4.5C45,31.224,44.776,31,44.5,31z"/></svg>