<svg xmlns="http://www.w3.org/2000/svg" viewBox="0 0 48 48"><linearGradient id="9K23CWIzT3fgbJpZLODzua" x1="17.698" x2="23.042" y1="26.29" y2="38.752" gradientUnits="userSpaceOnUse"><stop offset="0" stop-color="#ffcf54"/><stop offset=".261" stop-color="#fdcb4d"/><stop offset=".639" stop-color="#f7c13a"/><stop offset="1" stop-color="#f0b421"/></linearGradient><path fill="url(#9K23CWIzT3fgbJpZLODzua)" d="M31.782,36.761c-3.946,2.663-9.383,4.356-16.037,3.255c-2.394-0.431-5.218-2.394-6.702-5.697 c-1.374-2.982-0.473-5.941,1.989-7.396c1.55-0.916,3.463-1.045,5.179-0.5c3.181,1.009,6.286,1.801,9.635,1.146 c3.58-0.771,6.335,1.775,6.335,5.952L31.782,36.761z"/><linearGradient id="9K23CWIzT3fgbJpZLODzub" x1="37.142" x2="41.54" y1="33.726" y2="23.978" gradientUnits="userSpaceOnUse"><stop offset="0" stop-color="#ffcf54"/><stop offset=".261" stop-color="#fdcb4d"/><stop offset=".639" stop-color="#f7c13a"/><stop offset=".992" stop-color="#f0b421"/></linearGradient><circle cx="39.5" cy="28.5" r="6.5" fill="url(#9K23CWIzT3fgbJpZLODzub)"/><linearGradient id="9K23CWIzT3fgbJpZLODzuc" x1="24.39" x2="27.377" y1="35.484" y2="36.857" gradientUnits="userSpaceOnUse"><stop offset="0" stop-color="#f0b421" stop-opacity="0"/><stop offset=".512" stop-color="#e9ab12" stop-opacity=".512"/><stop offset="1" stop-color="#e09f00"/></linearGradient><path fill="url(#9K23CWIzT3fgbJpZLODzuc)" d="M29.977,37.841L26,32c0,0.132-3,5-1.357,7.825C26.605,39.385,28.387,38.695,29.977,37.841z"/><linearGradient id="9K23CWIzT3fgbJpZLODzud" x1="27.546" x2="33.979" y1="21.822" y2="34.203" gradientUnits="userSpaceOnUse"><stop offset="0" stop-color="#ffcf54"/><stop offset=".261" stop-color="#fdcb4d"/><stop offset=".639" stop-color="#f7c13a"/><stop offset="1" stop-color="#f0b421"/></linearGradient><path fill="url(#9K23CWIzT3fgbJpZLODzud)" d="M41,43h-8c-1.136,0-2.175-0.642-2.683-1.658l-3.928-7.857 c-0.725-1.45-0.287-3.292,1.123-4.091c1.508-0.854,3.407-0.266,4.171,1.264l3.008,6.016c0.1,0.2,0.304,0.326,0.527,0.326l5.613,0 c1.625,0,3.081,1.217,3.165,2.84C44.086,41.57,42.71,43,41,43z"/><linearGradient id="9K23CWIzT3fgbJpZLODzue" x1="13.5" x2="13.5" y1="27.796" y2="36.986" gradientUnits="userSpaceOnUse"><stop offset="0" stop-color="#32bdef"/><stop offset="1" stop-color="#1ea2e4"/></linearGradient><path fill="url(#9K23CWIzT3fgbJpZLODzue)" d="M21,27.771v13.014c0,0.682-0.577,1.216-1.258,1.172C15.708,41.698,6,40.079,6,32 c0-7.536,9.77-6.174,13-6.174C20.42,25.826,21,26.872,21,27.771z"/><linearGradient id="9K23CWIzT3fgbJpZLODzuf" x1="7.164" x2="12.396" y1="28.872" y2="43.839" gradientUnits="userSpaceOnUse"><stop offset="0" stop-color="#ffcf54"/><stop offset=".261" stop-color="#fdcb4d"/><stop offset=".639" stop-color="#f7c13a"/><stop offset="1" stop-color="#f0b421"/></linearGradient><path fill="url(#9K23CWIzT3fgbJpZLODzuf)" d="M18.748,38.803c-0.002-0.008-0.004-0.015-0.007-0.022c-0.762-3.058-2.199-6.345-4-9 c-1.007-1.59-3.46-2.079-5.292-0.837c-1.404,0.952-1.652,3.184-0.742,4.835c0.443,0.945,1.335,2.403,2.09,3.221H6 c-1.657,0-3,1.343-3,3s1.343,3,3,3h9.988c0.005,0,0.009,0.001,0.014,0.001C18.362,43.001,19.383,41.181,18.748,38.803z"/><radialGradient id="9K23CWIzT3fgbJpZLODzug" cx="27.308" cy="27.801" r="5.682" gradientTransform="matrix(1 0 0 .7447 0 7.099)" gradientUnits="userSpaceOnUse"><stop offset=".313" stop-color="#e09f00"/><stop offset=".683" stop-color="#e9ab12" stop-opacity=".512"/><stop offset="1" stop-color="#f0b421" stop-opacity="0"/></radialGradient><path fill="url(#9K23CWIzT3fgbJpZLODzug)" d="M25.846,27.569c-1.53,0.299-3.008,0.288-4.467,0.099C22.272,30.19,24.672,32,27.5,32 c1.56,0,2.991-0.551,4.111-1.467C30.628,28.216,28.459,27.006,25.846,27.569z"/><linearGradient id="9K23CWIzT3fgbJpZLODzuh" x1="21.029" x2="20.981" y1="26.918" y2="6.918" gradientUnits="userSpaceOnUse"><stop offset="0" stop-color="#ffcf54"/><stop offset=".261" stop-color="#fdcb4d"/><stop offset=".639" stop-color="#f7c13a"/><stop offset=".992" stop-color="#f0b421"/></linearGradient><path fill="url(#9K23CWIzT3fgbJpZLODzuh)" d="M29.825,22.884l-8.166-7.258L20,4h-9l4.09,14.287c0.163,0.707,0.542,1.347,1.085,1.829l9,8 C25.841,28.709,26.672,29,27.499,29c0.965,0,1.926-0.396,2.617-1.175C31.4,26.381,31.27,24.168,29.825,22.884z"/></svg>