<svg xmlns="http://www.w3.org/2000/svg" data-name="Слой 1" viewBox="0 0 48 48"><defs><radialGradient id="E2mnB~Q8fXGl69zgyObd5a" cx="23.804" cy="13.196" r="33.764" data-name="Безымянный градиент 82" gradientTransform="matrix(1 0 0 .51959 0 5.34)" gradientUnits="userSpaceOnUse"><stop offset="0" stop-color="#33c481"/><stop offset=".63" stop-color="#21a366"/><stop offset=".747" stop-color="#27ae6f"/><stop offset=".907" stop-color="#33c481"/></radialGradient></defs><path fill="#107c42" d="M26,45H22A13.01474,13.01474,0,0,1,9,32V26a.99974.99974,0,0,1,1-1H38a.99974.99974,0,0,1,1,1v6A13.01474,13.01474,0,0,1,26,45ZM11,27v5A11.01245,11.01245,0,0,0,22,43h4A11.01245,11.01245,0,0,0,37,32V27Z"/><circle cx="24" cy="6" r="1" fill="#107c42"/><path fill="url(#E2mnB~Q8fXGl69zgyObd5a)" d="M46.49847,25.15222,39,21A15,15,0,0,0,9,21L1.50323,25.15106A.98592.98592,0,0,0,1,26a1,1,0,0,0,1,1H46a1,1,0,0,0,1-1A.98589.98589,0,0,0,46.49847,25.15222Z"/></svg>