<svg xmlns="http://www.w3.org/2000/svg" viewBox="0 0 48 48"><path fill="#199be2" d="M36,17v25c0,1.105-0.895,2-2,2H10c-1.105,0-2-0.895-2-2V10c0-1.105,0.895-2,2-2h17L36,17z"/><path d="M10,8h26v34H13.681C11.648,42,10,40.352,10,38.319V8z" opacity=".05"/><path d="M11,8h19.941C33.735,8,36,10.265,36,13.059V41H13.839C12.271,41,11,39.729,11,38.161V8z" opacity=".07"/><path fill="#50e6ff" d="M40,14v24c0,1.105-0.895,2-2,2H14c-1.105,0-2-0.895-2-2V6c0-1.105,0.895-2,2-2h16L40,14z"/><linearGradient id="vy0ljQ6IS4fIwqsktCE4sa" x1="30.534" x2="35.09" y1="13.466" y2="8.91" gradientUnits="userSpaceOnUse"><stop offset="0" stop-color="#3079d6"/><stop offset="1" stop-color="#297cd2"/></linearGradient><path fill="url(#vy0ljQ6IS4fIwqsktCE4sa)" d="M30,4v8c0,1.105,0.895,2,2,2h8L30,4z"/></svg>