<svg xmlns="http://www.w3.org/2000/svg" viewBox="0 0 48 48"><linearGradient id="DYtxLITwSpzYTcJzfMxBua" x1="24" x2="24" y1="13.468" y2="43.109" gradientUnits="userSpaceOnUse"><stop offset="0" stop-color="#899198"/><stop offset="1" stop-color="#787e85"/></linearGradient><path fill="url(#DYtxLITwSpzYTcJzfMxBua)" d="M42,41V16c0-1.105-0.895-2-2-2H8c-1.105,0-2,0.895-2,2v25c0,1.105,0.895,2,2,2h32	C41.105,43,42,42.105,42,41z"/><linearGradient id="DYtxLITwSpzYTcJzfMxBub" x1="24" x2="24" y1="23.021" y2="19.149" gradientUnits="userSpaceOnUse"><stop offset="0" stop-color="#0d61a9"/><stop offset="1" stop-color="#16528c"/></linearGradient><path fill="url(#DYtxLITwSpzYTcJzfMxBub)" d="M12,19h24c1.105,0,2,0.895,2,2v0c0,1.105-0.895,2-2,2H12c-1.105,0-2-0.895-2-2v0	C10,19.895,10.895,19,12,19z"/><path fill="#d9414f" d="M35,22V6c0-0.552-0.448-1-1-1h-1c0,0.552-0.448,1-1,1s-1-0.448-1-1h-2c0,0.552-0.448,1-1,1	s-1-0.448-1-1h-2c0,0.552-0.448,1-1,1s-1-0.448-1-1h-2c0,0.552-0.448,1-1,1s-1-0.448-1-1h-2c0,0.552-0.448,1-1,1s-1-0.448-1-1h-1	c-0.552,0-1,0.448-1,1v16H35z"/><linearGradient id="DYtxLITwSpzYTcJzfMxBuc" x1="11.613" x2="35.953" y1="25.752" y2="32.135" gradientUnits="userSpaceOnUse"><stop offset="0" stop-color="#4fe5ff"/><stop offset="1" stop-color="#2eb7ed"/></linearGradient><path fill="url(#DYtxLITwSpzYTcJzfMxBuc)" d="M13,26h22c1.105,0,2,0.895,2,2v2c0,1.105-0.895,2-2,2H13c-1.105,0-2-0.895-2-2v-2	C11,26.895,11.895,26,13,26z"/><path fill="#107c42" d="M36,40h-3c-0.552,0-1-0.448-1-1v-3c0-0.552,0.448-1,1-1h3c0.552,0,1,0.448,1,1v3	C37,39.552,36.552,40,36,40"/><path fill="#cad2d9" d="M15,40h-3c-0.552,0-1-0.448-1-1v-3c0-0.552,0.448-1,1-1h3c0.552,0,1,0.448,1,1v3 C16,39.552,15.552,40,15,40 M22,40h-3c-0.552,0-1-0.448-1-1v-3c0-0.552,0.448-1,1-1h3c0.552,0,1,0.448,1,1v3 C23,39.552,22.552,40,22,40 M29,40h-3c-0.552,0-1-0.448-1-1v-3c0-0.552,0.448-1,1-1h3c0.552,0,1,0.448,1,1v3 C30,39.552,29.552,40,29,40"/><rect width="22" height="2" x="13" y="21" fill="#cf1928"/><path d="M27.182,19.389c-0.399,0-0.776-0.155-1.06-0.438L24,16.828l-2.121,2.121	c-0.284,0.283-0.66,0.439-1.061,0.439c-0.401,0-0.778-0.156-1.062-0.44l-0.706-0.706c-0.283-0.282-0.439-0.66-0.439-1.062	c0-0.4,0.156-0.777,0.439-1.06L21.172,14l-2.121-2.121c-0.283-0.282-0.439-0.659-0.439-1.06c0-0.402,0.156-0.779,0.439-1.062	l0.707-0.707c0.283-0.283,0.659-0.439,1.061-0.439c0.399,0,0.776,0.155,1.06,0.438L24,11.172l2.121-2.122	c0.284-0.283,0.66-0.439,1.061-0.439c0.399,0,0.776,0.155,1.06,0.438l0.708,0.708c0.283,0.282,0.439,0.66,0.439,1.062	c0,0.4-0.156,0.777-0.439,1.06L26.827,14l2.122,2.122c0.584,0.582,0.585,1.533,0.002,2.119l-0.709,0.709	C27.959,19.233,27.583,19.389,27.182,19.389z" opacity=".05"/><path d="M27.182,18.889c-0.267,0-0.518-0.104-0.707-0.292L24,16.121l-2.475,2.475	c-0.189,0.189-0.44,0.292-0.707,0.292c-0.268,0-0.519-0.104-0.707-0.293l-0.707-0.707c-0.189-0.189-0.293-0.44-0.293-0.708	c0-0.267,0.104-0.518,0.293-0.707L21.879,14l-2.475-2.475c-0.188-0.188-0.293-0.439-0.293-0.706c0-0.268,0.104-0.519,0.293-0.708	l0.707-0.707c0.188-0.188,0.439-0.292,0.707-0.292c0.267,0,0.518,0.104,0.707,0.292L24,11.879l2.475-2.476	c0.189-0.189,0.44-0.292,0.707-0.292s0.518,0.104,0.707,0.292l0.707,0.708c0.189,0.189,0.293,0.44,0.293,0.708	c0,0.267-0.104,0.518-0.293,0.707L26.12,14l2.476,2.476c0.39,0.388,0.39,1.022,0.001,1.413l-0.708,0.708	C27.7,18.785,27.449,18.889,27.182,18.889z" opacity=".07"/><path fill="#fff" d="M25.414,14l2.829-2.829c0.195-0.195,0.195-0.512,0-0.707l-0.707-0.707	c-0.196-0.195-0.512-0.195-0.707,0L24,12.586l-2.828-2.828c-0.195-0.195-0.512-0.195-0.707,0l-0.707,0.707	c-0.195,0.195-0.195,0.512,0,0.707L22.586,14l-2.828,2.828c-0.195,0.195-0.195,0.512,0,0.707l0.707,0.707	c0.195,0.195,0.512,0.195,0.707,0L24,15.414l2.829,2.829c0.195,0.195,0.512,0.195,0.707,0l0.707-0.707	c0.195-0.196,0.195-0.512,0-0.707L25.414,14z"/></svg>