<svg xmlns="http://www.w3.org/2000/svg" viewBox="0 0 48 48"><linearGradient id="kt6xM7xJj5QVzXVG37LQxa" x1="9.899" x2="38.183" y1="380.02" y2="351.736" gradientTransform="matrix(1 0 0 -1 0 390)" gradientUnits="userSpaceOnUse"><stop offset="0" stop-color="#f44f5a"/><stop offset=".443" stop-color="#ee3d4a"/><stop offset="1" stop-color="#e52030"/></linearGradient><path fill="url(#kt6xM7xJj5QVzXVG37LQxa)" d="M44.041,24.122c0,11.045-8.955,20-20,20s-20-8.955-20-20s8.955-20,20-20	S44.041,13.077,44.041,24.122z"/><linearGradient id="kt6xM7xJj5QVzXVG37LQxb" x1="24.041" x2="24.041" y1="371.599" y2="380.295" gradientTransform="matrix(1 0 0 -1 0 390)" gradientUnits="userSpaceOnUse"><stop offset="0" stop-color="#92a3b0"/><stop offset=".015" stop-color="#a3b5c4"/><stop offset=".032" stop-color="#aec2d1"/><stop offset=".046" stop-color="#b2c6d6"/></linearGradient><path fill="url(#kt6xM7xJj5QVzXVG37LQxb)" d="M16.95,18.213v1.636h2.182v-1.636c0-2.711,2.198-4.909,4.909-4.909l0,0	c2.711,0,4.909,2.198,4.909,4.909v1.636h2.182v-1.636c0-3.916-3.175-7.091-7.091-7.091l0,0C20.125,11.122,16.95,14.297,16.95,18.213	z"/><path fill="#c48c00" d="M33,35H15c-1.105,0-2-0.895-2-2v-2h22v2C35,34.105,34.105,35,33,35z"/><rect width="22" height="4" x="13" y="23" fill="#edbe00"/><rect width="22" height="4" x="13" y="27" fill="#e3a600"/><path fill="#fad500" d="M35,23H13v-2c0-1.105,0.895-2,2-2h18c1.105,0,2,0.895,2,2V23z"/><linearGradient id="kt6xM7xJj5QVzXVG37LQxc" x1="24" x2="24" y1="30.058" y2="24.291" gradientUnits="userSpaceOnUse"><stop offset="0" stop-color="#4b4b4b"/><stop offset="1" stop-color="#3b3b3b"/></linearGradient><path fill="url(#kt6xM7xJj5QVzXVG37LQxc)" d="M26,26c0-1.105-0.895-2-2-2s-2,0.895-2,2c0,0.738,0.405,1.376,1,1.723V29c0,0.552,0.448,1,1,1	s1-0.448,1-1v-1.277C25.595,27.376,26,26.738,26,26z"/></svg>