<svg xmlns="http://www.w3.org/2000/svg" viewBox="0 0 48 48"><polygon fill="#e89f61" points="37.863,41.991 9.113,38.887 6.01,10.137 7.99,9.863 10.887,37.113 38.137,40.009"/><rect width="34.64" height="2" x="9.433" y="20.247" fill="#944d10" transform="rotate(-45.001 26.753 21.248)"/><linearGradient id="XA~qg5utHyp8SiisWNTAOa" x1="8.428" x2="11.543" y1="33.169" y2="36.694" gradientUnits="userSpaceOnUse"><stop offset="0" stop-color="#fafafb"/><stop offset=".309" stop-color="#e1e1e2"/><stop offset=".751" stop-color="#c3c3c3"/><stop offset="1" stop-color="#b8b8b8"/></linearGradient><path fill="url(#XA~qg5utHyp8SiisWNTAOa)" d="M15.488,32.012h-4c-0.133,0-0.26,0.053-0.354,0.146l-5.988,5.988 c-0.143,0.143-0.186,0.358-0.108,0.545S5.298,39,5.5,39H9l6.842-6.842C15.751,32.068,15.626,32.012,15.488,32.012z"/><linearGradient id="XA~qg5utHyp8SiisWNTAOb" x1="11.529" x2="16.321" y1="36.364" y2="42.038" gradientUnits="userSpaceOnUse"><stop offset="0" stop-color="#999ea1"/><stop offset=".278" stop-color="#9ca1a4"/><stop offset=".468" stop-color="#a5a9ac"/><stop offset=".631" stop-color="#b4b8ba"/><stop offset=".78" stop-color="#caccce"/><stop offset=".917" stop-color="#e5e6e8"/><stop offset="1" stop-color="#fafafb"/></linearGradient><path fill="url(#XA~qg5utHyp8SiisWNTAOb)" d="M9.309,42.962C9.37,42.988,9.436,43,9.5,43c0.13,0,0.258-0.051,0.354-0.146l5.988-5.988 c0.094-0.094,0.146-0.221,0.146-0.354v-4c0-0.138-0.056-0.263-0.146-0.354L9,39v3.5C9,42.702,9.122,42.885,9.309,42.962z"/><path fill="#90a4ae" d="M42.854,5.146c-0.139-0.139-0.344-0.184-0.529-0.115l-8,3c-0.159,0.06-0.277,0.196-0.312,0.362 c-0.036,0.166,0.015,0.339,0.135,0.459l2.501,2.501l6.209-6.202C42.855,5.15,42.855,5.148,42.854,5.146z"/><path fill="#64717c" d="M39.5,14c0.035,0,0.07-0.004,0.105-0.011c0.167-0.036,0.303-0.154,0.362-0.313l3-8 c0.069-0.182,0.024-0.385-0.111-0.524l-6.209,6.202l2.499,2.499C39.241,13.948,39.369,14,39.5,14z"/><radialGradient id="XA~qg5utHyp8SiisWNTAOc" cx="16.501" cy="20.678" r="17.997" gradientTransform="scale(1 -1) rotate(89.983 42.6 1.092)" gradientUnits="userSpaceOnUse"><stop offset="0" stop-color="#cc7c1b"/><stop offset=".346" stop-color="#c7761a"/><stop offset=".805" stop-color="#b86515"/><stop offset="1" stop-color="#b05c13"/></radialGradient><path fill="url(#XA~qg5utHyp8SiisWNTAOc)" d="M29.707,18.309l-0.005-0.005c-4.753-4.745-10.303-6.275-17.901-6.269 c-0.309,0-1.681,0.002-1.9,0.002c-2.891-0.001-4.89-2.22-4.89-4.036c0-0.552,0.448-1,1-1c0.552,0,1,0.448,1,1 c0,1.131,1.365,2.014,2.733,2.013c0.924-0.001,2.082-0.111,3.398-0.374c5.971-1.193,13.556-1.382,20.082,5.144 c6.524,6.528,6.333,14.113,5.138,20.083c-0.263,1.316-0.374,2.474-0.375,3.398C37.986,39.634,38.869,41,40,41c0.552,0,1,0.448,1,1 c0,0.552-0.448,1-1,1c-1.816,0-4.034-2-4.034-4.891c0-0.218,0.002-1.591,0.002-1.9c0.009-7.599-1.52-13.149-6.263-17.903 l-0.005-0.005L29.707,18.309z"/></svg>