<svg xmlns="http://www.w3.org/2000/svg" viewBox="0 0 48 48"><linearGradient id="ctJc9xPbKDYc_rBXzhYGwa" x1="26" x2="42" y1="24" y2="24" gradientUnits="userSpaceOnUse"><stop offset="0" stop-color="#1d59b3"/><stop offset="1" stop-color="#195bbc"/></linearGradient><path fill="url(#ctJc9xPbKDYc_rBXzhYGwa)" d="M42,14c0-4.418-3.582-8-8-8s-8,3.582-8,8v22c0,3.314,1.716,6,5.539,6	c3.945,0,5.725-2.487,6.461-6C38.737,32.478,42,19.534,42,14z"/><path d="M36.166,10.415c-0.532-0.616-1.274-0.979-2.092-1.019c-0.812-0.046-1.626,0.259-2.221,0.823	C30.041,11.941,27,15.631,27,21v6.5c0,0.827,0.673,1.5,1.5,1.5h1c0.827,0,1.5-0.673,1.5-1.5V21c0-3.173,1.665-5.679,2.884-7.088	C34.87,15.325,36,17.671,36,21c0,2.025-0.236,3.15-0.754,5.619l-0.305,1.464c-0.082,0.393-0.005,0.794,0.215,1.13	c0.22,0.335,0.558,0.563,0.948,0.645l0.979,0.203h0.001c0.102,0.021,0.203,0.031,0.302,0.031c0.695,0,1.322-0.488,1.47-1.194	l0.303-1.457C39.684,24.947,40,23.442,40,21C40,15.655,37.598,12.074,36.166,10.415z" opacity=".05"/><path d="M35.787,10.741c-0.441-0.512-1.059-0.812-1.738-0.846c-0.679-0.033-1.356,0.217-1.852,0.688	C30.443,12.249,27.5,15.817,27.5,21v6.5c0,0.552,0.449,1,1,1h1c0.551,0,1-0.448,1-1V21c0-3.712,2.159-6.539,3.423-7.876	C35.015,14.514,36.5,17.117,36.5,21c0,2.077-0.255,3.294-0.765,5.722l-0.305,1.463c-0.054,0.262-0.003,0.53,0.144,0.754	c0.146,0.223,0.371,0.375,0.632,0.429l0.979,0.203h0.001c0.067,0.015,0.135,0.021,0.202,0.021c0.463,0,0.881-0.325,0.98-0.797	l0.303-1.458C39.206,24.792,39.5,23.391,39.5,21C39.5,15.816,37.174,12.348,35.787,10.741z" opacity=".07"/><linearGradient id="ctJc9xPbKDYc_rBXzhYGwb" x1="28" x2="39" y1="19.742" y2="19.742" gradientUnits="userSpaceOnUse"><stop offset="0" stop-color="#42a3f2"/><stop offset="1" stop-color="#42a4eb"/></linearGradient><path fill="url(#ctJc9xPbKDYc_rBXzhYGwb)" d="M37.287,29.081l-0.979-0.203c-0.271-0.056-0.444-0.321-0.388-0.592l0.305-1.463 C36.741,24.364,37,23.13,37,21c0-4.551-2.005-7.432-3.045-8.62C32.683,13.616,30,16.729,30,21v6.5c0,0.276-0.224,0.5-0.5,0.5h-1 c-0.276,0-0.5-0.224-0.5-0.5V21c0-4.941,2.755-8.359,4.542-10.055c0.82-0.778,2.129-0.732,2.867,0.124 C36.879,12.772,39,16.081,39,21c0,2.337-0.291,3.722-0.818,6.234l-0.304,1.459C37.821,28.964,37.557,29.137,37.287,29.081z"/><linearGradient id="ctJc9xPbKDYc_rBXzhYGwc" x1="46" x2="62" y1="24" y2="24" gradientTransform="matrix(-1 0 0 1 68 0)" gradientUnits="userSpaceOnUse"><stop offset="0" stop-color="#1d59b3"/><stop offset="1" stop-color="#195bbc"/></linearGradient><path fill="url(#ctJc9xPbKDYc_rBXzhYGwc)" d="M6,14c0-4.418,3.582-8,8-8s8,3.582,8,8v22c0,3.314-1.716,6-5.539,6	c-3.945,0-5.725-2.487-6.461-6C9.263,32.478,6,19.534,6,14z"/><path d="M11.834,10.415c0.532-0.616,1.274-0.979,2.092-1.019c0.812-0.046,1.626,0.259,2.221,0.823	C17.959,11.941,21,15.631,21,21v6.5c0,0.827-0.673,1.5-1.5,1.5h-1c-0.827,0-1.5-0.673-1.5-1.5V21c0-3.173-1.665-5.679-2.884-7.088	C13.13,15.325,12,17.671,12,21c0,2.025,0.236,3.15,0.754,5.619l0.305,1.464c0.082,0.393,0.005,0.794-0.215,1.13	c-0.22,0.335-0.558,0.563-0.948,0.645l-0.979,0.203h-0.001c-0.102,0.021-0.203,0.031-0.302,0.031c-0.695,0-1.322-0.488-1.47-1.194	L8.84,27.44C8.316,24.947,8,23.442,8,21C8,15.655,10.402,12.074,11.834,10.415z" opacity=".05"/><path d="M12.213,10.741c0.441-0.512,1.059-0.812,1.738-0.846c0.679-0.033,1.356,0.217,1.852,0.688	C17.557,12.249,20.5,15.817,20.5,21v6.5c0,0.552-0.449,1-1,1h-1c-0.551,0-1-0.448-1-1V21c0-3.712-2.159-6.539-3.423-7.876	C12.985,14.514,11.5,17.117,11.5,21c0,2.077,0.255,3.294,0.765,5.722l0.305,1.463c0.054,0.262,0.003,0.53-0.144,0.754	c-0.146,0.223-0.371,0.375-0.632,0.429l-0.979,0.203h-0.001c-0.067,0.015-0.135,0.021-0.202,0.021c-0.463,0-0.881-0.325-0.98-0.797	l-0.303-1.458C8.794,24.792,8.5,23.391,8.5,21C8.5,15.816,10.826,12.348,12.213,10.741z" opacity=".07"/><g><linearGradient id="ctJc9xPbKDYc_rBXzhYGwd" x1="48" x2="59" y1="19.742" y2="19.742" gradientTransform="matrix(-1 0 0 1 68 0)" gradientUnits="userSpaceOnUse"><stop offset="0" stop-color="#42a3f2"/><stop offset="1" stop-color="#42a4eb"/></linearGradient><path fill="url(#ctJc9xPbKDYc_rBXzhYGwd)" d="M10.713,29.081l0.979-0.203c0.271-0.056,0.444-0.321,0.388-0.592l-0.305-1.463 C11.259,24.364,11,23.13,11,21c0-4.551,2.005-7.432,3.045-8.62C15.317,13.616,18,16.729,18,21v6.5c0,0.276,0.224,0.5,0.5,0.5h1 c0.276,0,0.5-0.224,0.5-0.5V21c0-4.941-2.755-8.359-4.542-10.055c-0.82-0.778-2.129-0.732-2.867,0.124C11.121,12.772,9,16.081,9,21 c0,2.337,0.291,3.722,0.818,6.234l0.304,1.459C10.179,28.964,10.443,29.137,10.713,29.081z"/></g></svg>