<svg xmlns="http://www.w3.org/2000/svg" xmlns:xlink="http://www.w3.org/1999/xlink" data-name="Слой 1" viewBox="0 0 48 48"><defs><linearGradient id="EPiAIYqhZGpI1yYDIPvICa" x1="24" x2="24" y1="2.5" y2="16.919" data-name="Новый образец градиентной зал 2" gradientUnits="userSpaceOnUse"><stop offset="0" stop-color="#2aa4f4"/><stop offset="1" stop-color="#007ad9"/></linearGradient><linearGradient id="EPiAIYqhZGpI1yYDIPvICc" x1="24" x2="24" y1="13.065" y2="27.875" xlink:href="#EPiAIYqhZGpI1yYDIPvICa"/><linearGradient id="EPiAIYqhZGpI1yYDIPvICb" x1="24" x2="24" y1="26.304" y2="38.387" data-name="Безымянный градиент 56" gradientUnits="userSpaceOnUse"><stop offset="0" stop-color="#37c6d0"/><stop offset="1" stop-color="#1a9ba1"/></linearGradient><linearGradient id="EPiAIYqhZGpI1yYDIPvICd" x1="24" x2="24" y1="35.109" y2="47.307" xlink:href="#EPiAIYqhZGpI1yYDIPvICb"/></defs><path fill="url(#EPiAIYqhZGpI1yYDIPvICa)" d="M30,10a1,1,0,0,0,1-1,3.98314,3.98314,0,0,0-7-2.61761A3.98314,3.98314,0,0,0,17,9a1,1,0,0,0,2,0,2,2,0,0,1,4,0v9a1,1,0,0,0,2,0V9a2,2,0,0,1,4,0A1,1,0,0,0,30,10ZM18,11a1,1,0,1,0,1,1A1,1,0,0,0,18,11Zm12,0a1,1,0,1,0,1,1A1,1,0,0,0,30,11Z"/><rect width="8" height="4" x="20" y="34" fill="#038387"/><path fill="url(#EPiAIYqhZGpI1yYDIPvICc)" d="M29.5,14A6.75583,6.75583,0,0,0,24,16.91028,6.75583,6.75583,0,0,0,18.5,14c-3.4624,0-6.5,2.80371-6.5,6v1a1,1,0,0,0,2,0V20a4.53125,4.53125,0,0,1,9,0v9a1,1,0,0,0,2,0V20a4.53125,4.53125,0,0,1,9,0v1a1,1,0,0,0,2,0V20C36,16.80371,32.9624,14,29.5,14ZM13,23a1,1,0,1,0,1,1A1,1,0,0,0,13,23Zm5-6a1,1,0,1,0,1,1A1,1,0,0,0,18,17Zm12,0a1,1,0,1,0,1,1A1,1,0,0,0,30,17ZM18,20a1,1,0,1,0,1,1A1,1,0,0,0,18,20Zm12,0a1,1,0,1,0,1,1A1,1,0,0,0,30,20ZM18,23a1,1,0,1,0,1,1A1,1,0,0,0,18,23Zm12,0a1,1,0,1,0,1,1A1,1,0,0,0,30,23ZM18,26a1,1,0,1,0,1,1A1,1,0,0,0,18,26Zm12,0a1,1,0,1,0,1,1A1,1,0,0,0,30,26ZM13,26a1,1,0,1,0,1,1A1,1,0,0,0,13,26Zm22-3a1,1,0,1,0,1,1A1,1,0,0,0,35,23Zm0,3a1,1,0,1,0,1,1A1,1,0,0,0,35,26Z"/><path fill="url(#EPiAIYqhZGpI1yYDIPvICb)" d="M10.0123,27a1.01043,1.01043,0,0,0-.9782,1.2695C10.04119,32.08447,15.41348,35,19.96455,35h8.0709c4.55107,0,9.92336-2.91553,10.93045-6.7305A1.01043,1.01043,0,0,0,37.9877,27Z"/><path fill="url(#EPiAIYqhZGpI1yYDIPvICd)" d="M7,37a1.00853,1.00853,0,0,0-.9696,1.2695C7.02864,42.08447,16,43,20,43h8c4,0,12.97136-.91553,13.9696-4.7305A1.00853,1.00853,0,0,0,41,37Z"/></svg>