<svg xmlns="http://www.w3.org/2000/svg" viewBox="0 0 48 48"><linearGradient id="FR_9NzDz28iTOUpGSsOFAa" x1="10.043" x2="38.307" y1="10.241" y2="38.504" gradientUnits="userSpaceOnUse"><stop offset="0" stop-color="#21ad64"/><stop offset="1" stop-color="#088242"/></linearGradient><path fill="url(#FR_9NzDz28iTOUpGSsOFAa)" d="M26.314,5.115l0.719,0.83l0.949-0.552c1.612-0.937,3.68-0.227,4.377,1.502l0.41,1.018	L33.845,7.7c1.829-0.363,3.554,0.98,3.652,2.842l0.057,1.096l1.088,0.148c1.848,0.251,3.043,2.081,2.531,3.874l-0.302,1.055	l0.981,0.493c1.666,0.837,2.203,2.957,1.136,4.486l-0.628,0.9l0.768,0.785c1.304,1.333,1.123,3.512-0.382,4.611l-0.886,0.648	l0.471,0.991c0.801,1.684-0.078,3.686-1.859,4.238l-1.049,0.325l0.124,1.091c0.211,1.853-1.27,3.461-3.134,3.404l-1.097-0.033	l-0.237,1.072c-0.402,1.821-2.325,2.861-4.07,2.202l-1.027-0.388l-0.572,0.937c-0.972,1.591-3.128,1.951-4.564,0.762L24,42.538	l-0.845,0.7c-1.436,1.189-3.592,0.83-4.564-0.762l-0.572-0.937l-1.027,0.388c-1.744,0.659-3.667-0.382-4.07-2.202l-0.237-1.072	l-1.097,0.033c-1.864,0.057-3.344-1.552-3.134-3.404l0.124-1.091l-1.049-0.325c-1.781-0.551-2.659-2.554-1.859-4.238l0.471-0.991	l-0.886-0.648c-1.506-1.1-1.686-3.279-0.382-4.611l0.768-0.785l-0.628-0.9c-1.067-1.529-0.53-3.649,1.136-4.486l0.981-0.493	L6.828,15.66c-0.513-1.793,0.683-3.623,2.531-3.874l1.088-0.148l0.057-1.096c0.097-1.862,1.823-3.205,3.652-2.842l1.077,0.214	l0.41-1.018c0.697-1.729,2.765-2.439,4.377-1.502l0.949,0.552l0.719-0.83C22.907,3.705,25.093,3.705,26.314,5.115z"/><path d="M32.172,16.172L22,26.344l-5.172-5.172c-0.781-0.781-2.047-0.781-2.828,0l-1.414,1.414	c-0.781,0.781-0.781,2.047,0,2.828l8,8c0.781,0.781,2.047,0.781,2.828,0l13-13c0.781-0.781,0.781-2.047,0-2.828L35,16.172	C34.219,15.391,32.953,15.391,32.172,16.172z" opacity=".05"/><path d="M20.939,33.061l-8-8c-0.586-0.586-0.586-1.536,0-2.121l1.414-1.414c0.586-0.586,1.536-0.586,2.121,0	L22,27.051l10.525-10.525c0.586-0.586,1.536-0.586,2.121,0l1.414,1.414c0.586,0.586,0.586,1.536,0,2.121l-13,13	C22.475,33.646,21.525,33.646,20.939,33.061z" opacity=".07"/><path fill="#fcff63" d="M21.293,32.707l-8-8c-0.391-0.391-0.391-1.024,0-1.414l1.414-1.414c0.391-0.391,1.024-0.391,1.414,0	L22,27.758l10.879-10.879c0.391-0.391,1.024-0.391,1.414,0l1.414,1.414c0.391,0.391,0.391,1.024,0,1.414l-13,13	C22.317,33.098,21.683,33.098,21.293,32.707z"/></svg>