<svg xmlns="http://www.w3.org/2000/svg" id="Layer_1" x="0" y="0" version="1.1" viewBox="0 0 48 48" xml:space="preserve"><linearGradient id="SVGID_1_" x1="4.021" x2="41.17" y1="4.021" y2="41.17" gradientUnits="userSpaceOnUse"><stop offset="0" stop-color="#33bef0"/><stop offset="1" stop-color="#0a85d9"/></linearGradient><circle cx="24" cy="24" r="20" fill="url(#SVGID_1_)"/><path d="M13.1,34C12,34,11,33,11,31.9V16.1c0-1.2,1-2.1,2.1-2.1h21.7c1.2,0,2.1,1,2.1,2.1v15.8c0,1.2-1,2.1-2.1,2.1	H13.1z" opacity=".05"/><path d="M13.1,33.5c-0.9,0-1.6-0.7-1.6-1.6V16.1c0-0.9,0.7-1.6,1.6-1.6h21.7c0.9,0,1.6,0.7,1.6,1.6v15.8	c0,0.9-0.7,1.6-1.6,1.6H13.1z" opacity=".07"/><path fill="#ccdcff" d="M15.6,25.1l20.4-8v14.8c0,0.6-0.5,1.1-1.1,1.1H15.6V25.1z"/><path fill="#e6eeff" d="M12,17.1v14.8c0,0.6,0.5,1.1,1.1,1.1h21.5c0.3,0,0.5-0.1,0.7-0.3L12,17.1z"/><path d="M36,17.1L20.9,23L12,17.1v1.2l10.2,6.8c0.5,0.4,1.2,0.6,1.8,0.6c0.7,0,1.3-0.2,1.8-0.6L36,18.3V17.1z" opacity=".05"/><path d="M36,17.1L20.9,23L12,17.1v0.6l10.4,7c0.5,0.3,1,0.5,1.6,0.5c0.6,0,1.1-0.2,1.6-0.5l10.4-7V17.1z" opacity=".07"/><path fill="#fff" d="M13.1,15h21.7c0.6,0,1.1,0.5,1.1,1.1v1l-10.7,7.2c-0.8,0.5-1.8,0.5-2.6,0L12,17.1v-1C12,15.5,12.5,15,13.1,15z"/></svg>