<svg xmlns="http://www.w3.org/2000/svg" xmlns:xlink="http://www.w3.org/1999/xlink" data-name="Слой 1" viewBox="0 0 48 48"><defs><linearGradient id="o1RIuk1qBoZdOGD2hyloZa" x1="24" x2="24" y1="19.864" y2="29.497" data-name="Безымянный градиент 32" gradientUnits="userSpaceOnUse"><stop offset="0" stop-color="#f44f5a"/><stop offset=".443" stop-color="#ee3d4a"/><stop offset="1" stop-color="#e52030"/></linearGradient><linearGradient id="o1RIuk1qBoZdOGD2hyloZc" x1="24" x2="24" y1="17.614" y2="35.533" data-name="Безымянный градиент 30" xlink:href="#o1RIuk1qBoZdOGD2hyloZa"/><linearGradient id="o1RIuk1qBoZdOGD2hyloZb" x1="33" x2="39" y1="95" y2="95" data-name="Безымянный градиент 19" gradientTransform="matrix(1 0 0 -1 0 108)" gradientUnits="userSpaceOnUse"><stop offset="0" stop-color="#ffcf54"/><stop offset=".261" stop-color="#fdcb4d"/><stop offset=".639" stop-color="#f7c13a"/><stop offset="1" stop-color="#f0b421"/></linearGradient><linearGradient id="o1RIuk1qBoZdOGD2hyloZd" x1="3" x2="9" y1="89" y2="89" xlink:href="#o1RIuk1qBoZdOGD2hyloZb"/></defs><path fill="url(#o1RIuk1qBoZdOGD2hyloZa)" d="M2.999,34a1,1,0,0,1-.186-1.98242l42-8a1.00006,1.00006,0,0,1,.374,1.96484l-42,8A1.02839,1.02839,0,0,1,2.999,34Z"/><path fill="url(#o1RIuk1qBoZdOGD2hyloZc)" d="M29.91016,39.58643l-5-11a.99952.99952,0,0,0-1.82032,0l-5,11A.99957.99957,0,0,0,19,41H29a.99957.99957,0,0,0,.91016-1.41357ZM24,31.4165,26.08325,36h-4.1665Z"/><path fill="url(#o1RIuk1qBoZdOGD2hyloZb)" d="M33,13a3,3,0,1,0,2.9985-3A2.99981,2.99981,0,0,0,33,13Z"/><path fill="#35c1f1" d="M37,31a1,1,0,1,0,.9995-1A.99994.99994,0,0,0,37,31Z"/><path fill="#35c1f1" d="M37.16527,31.55085,34.4776,27.68666a1,1,0,0,1,.11384-1.2781L37,24l3.11371,2.937L37.5,27.5l1.40776,3.08Z"/><path fill="#35c1f1" d="M35,20a3,3,0,1,0,2.9985-3A2.99981,2.99981,0,0,0,35,20Z"/><path fill="#35c1f1" d="M36.5,24a3,3,0,1,0,2.9985-3A2.99981,2.99981,0,0,0,36.5,24Z"/><polygon fill="#35c1f1" points="35.234 21.163 36.693 25.062 42.329 23 40.782 18.888 35.234 21.163"/><path fill="url(#o1RIuk1qBoZdOGD2hyloZd)" d="M3,19a3,3,0,1,0,2.9985-3A2.99981,2.99981,0,0,0,3,19Z"/><path fill="#35c1f1" d="M14,36a1,1,0,1,1-.9995-1A.99994.99994,0,0,1,14,36Z"/><path fill="#35c1f1" d="M13.9781,36.20887l.93875-4.85057a1,1,0,0,0-.64851-1.10723l-3.76291-1.27281L8.32,32.983,12,32.49343V36Z"/><path fill="#35c1f1" d="M4,26a3,3,0,1,0,2.9985-3A2.99981,2.99981,0,0,0,4,26Z"/><path fill="#35c1f1" d="M5,30a3,3,0,1,0,2.9985-3A2.99981,2.99981,0,0,0,5,30Z"/><polygon fill="#35c1f1" points="4.03 26.424 5.193 31.062 10.829 29 9.905 25.248 4.03 26.424"/><circle cx="24" cy="29" r="3" fill="#eb6773"/></svg>