<svg xmlns="http://www.w3.org/2000/svg" viewBox="0 0 48 48"><linearGradient id="QxbwMIvdTVIMmvR0jug71a" x1="12.848" x2="34.131" y1="13.848" y2="35.131" gradientUnits="userSpaceOnUse"><stop offset="0" stop-color="#9dffce"/><stop offset="1" stop-color="#50d18d"/></linearGradient><path fill="url(#QxbwMIvdTVIMmvR0jug71a)" d="M31.491,32.491c2.334-2.334,3.679-5.227,3.995-8.065c0.099-0.89,0.618-1.695,1.464-1.967	c1.155-0.372,2.277-1.05,3.303-2.075c2.918-2.918,2.938-10.867,2.507-13.246c-0.089-0.491-0.481-0.883-0.972-0.972	c-2.378-0.431-10.327-0.411-13.246,2.507c-1.026,1.026-1.704,2.148-2.075,3.303c-0.272,0.846-1.077,1.365-1.967,1.464	c-2.839,0.317-5.732,1.662-8.065,3.995s-3.679,5.227-3.995,8.065c-0.099,0.89-0.618,1.695-1.464,1.967	c-1.155,0.372-2.277,1.05-3.303,2.075c-2.918,2.918-2.938,10.867-2.507,13.246c0.089,0.491,0.481,0.883,0.972,0.972	c2.378,0.431,10.327,0.411,13.246-2.507c1.026-1.026,1.704-2.148,2.075-3.303c0.272-0.846,1.077-1.365,1.967-1.464	C26.265,36.17,29.158,34.825,31.491,32.491z"/><linearGradient id="QxbwMIvdTVIMmvR0jug71b" x1="15.465" x2="30.85" y1="16.465" y2="31.85" gradientUnits="userSpaceOnUse"><stop offset="0" stop-color="#21ad64"/><stop offset="1" stop-color="#088242"/></linearGradient><path fill="url(#QxbwMIvdTVIMmvR0jug71b)" d="M28.533,29.533c2.948-2.948,3.31-7.365,0.808-9.866s-6.918-2.139-9.866,0.808	s-3.31,7.365-0.808,9.866S25.585,32.481,28.533,29.533z"/><linearGradient id="QxbwMIvdTVIMmvR0jug71c" x1="2.955" x2="20.152" y1="26.955" y2="44.152" gradientUnits="userSpaceOnUse"><stop offset="0" stop-color="#21ad64"/><stop offset="1" stop-color="#088242"/></linearGradient><path fill="url(#QxbwMIvdTVIMmvR0jug71c)" d="M16.079,40.079c2.306-2.306,2.573-5.778,0.597-7.755c-1.977-1.977-5.449-1.71-7.755,0.597	s-2.573,5.778-0.597,7.755C10.301,42.653,13.773,42.386,16.079,40.079z"/><linearGradient id="QxbwMIvdTVIMmvR0jug71d" x1="25.955" x2="43.152" y1="3.955" y2="21.152" gradientUnits="userSpaceOnUse"><stop offset="0" stop-color="#21ad64"/><stop offset="1" stop-color="#088242"/></linearGradient><path fill="url(#QxbwMIvdTVIMmvR0jug71d)" d="M39.079,17.079c2.306-2.306,2.573-5.778,0.597-7.755c-1.977-1.977-5.449-1.71-7.755,0.597	s-2.573,5.778-0.597,7.755C33.301,19.653,36.773,19.386,39.079,17.079z"/></svg>