<svg xmlns="http://www.w3.org/2000/svg" viewBox="0 0 48 48"><linearGradient id="htFB~5TuqkSRnLA2Zgpt9a" x1="7.244" x2="32.27" y1="3.244" y2="28.27" gradientUnits="userSpaceOnUse"><stop offset="0" stop-color="#737be6"/><stop offset="1" stop-color="#4750b3"/></linearGradient><path fill="url(#htFB~5TuqkSRnLA2Zgpt9a)" d="M40,20c0,8.836-7.164,16-16,16S8,28.836,8,20S15.164,4,24,4S40,11.164,40,20z"/><linearGradient id="htFB~5TuqkSRnLA2Zgpt9b" x1="-1617.362" x2="-1617.362" y1="427.819" y2="433.601" gradientTransform="matrix(0 -1 -1 0 459.509 -1573.48)" gradientUnits="userSpaceOnUse"><stop offset=".365" stop-color="#199ae0"/><stop offset=".699" stop-color="#1898de"/><stop offset=".819" stop-color="#1691d8"/><stop offset=".905" stop-color="#1186cc"/><stop offset=".974" stop-color="#0a75bc"/><stop offset="1" stop-color="#076cb3"/></linearGradient><path fill="url(#htFB~5TuqkSRnLA2Zgpt9b)" d="M30.919,40c0.528,0,0.793,0.639,0.419,1.013l-6.745,6.745	c-0.256,0.256,0.471-5.409,0.782-7.758H30.919z"/><path d="M24,36.025c-1.384,0-2.719-0.194-4-0.525V27c0-1.103,0.897-2,2-2h4c1.103,0,2,0.897,2,2v8.501	C26.719,35.831,25.384,36.025,24,36.025z" opacity=".05"/><path d="M24,36.025c-1.204,0-2.372-0.144-3.5-0.396V27c0-0.827,0.673-1.5,1.5-1.5h4	c0.827,0,1.5,0.673,1.5,1.5v8.629C26.372,35.881,25.204,36.025,24,36.025z" opacity=".07"/><linearGradient id="htFB~5TuqkSRnLA2Zgpt9c" x1="17.89" x2="30.367" y1="-19.06" y2="-6.583" gradientTransform="matrix(1 0 0 -1 0 23.025)" gradientUnits="userSpaceOnUse"><stop offset="0" stop-color="#32bdef"/><stop offset="1" stop-color="#1ea2e4"/></linearGradient><path fill="url(#htFB~5TuqkSRnLA2Zgpt9c)" d="M22,26h4c0.552,0,1,0.448,1,1v18.022c0,0.211-0.081,0.423-0.242,0.585l-2.186,2.187	c-0.309,0.309-0.811,0.309-1.12,0l-6.778-6.781C16.3,40.639,16.565,40,17.093,40H21V27C21,26.448,21.448,26,22,26z"/></svg>