<svg xmlns="http://www.w3.org/2000/svg" xmlns:xlink="http://www.w3.org/1999/xlink" data-name="Слой 1" viewBox="0 0 48 48"><defs><linearGradient id="E6kDug2clv0j8fxNmECqZa" x1="24" x2="24" y1="19.154" y2="50.039" data-name="Безымянный градиент 147" gradientUnits="userSpaceOnUse"><stop offset="0" stop-color="#dfe9f2"/><stop offset=".391" stop-color="#d6e0e9"/><stop offset="1" stop-color="#bfc8d1"/></linearGradient><linearGradient id="E6kDug2clv0j8fxNmECqZb" x1="24.001" x2="24.001" y1="24.877" y2="15.611" xlink:href="#E6kDug2clv0j8fxNmECqZa"/><linearGradient id="E6kDug2clv0j8fxNmECqZc" x1="4" x2="44" y1="10.505" y2="10.505" data-name="Безымянный градиент 306" gradientUnits="userSpaceOnUse"><stop offset="0" stop-color="#f44f5a"/><stop offset=".443" stop-color="#ee3d4a"/><stop offset="1" stop-color="#e52030"/></linearGradient><radialGradient id="E6kDug2clv0j8fxNmECqZd" cx="22.196" cy="9.712" r="35.171" data-name="Безымянный градиент 294" gradientTransform="matrix(1 0 0 .48877 0 4.965)" gradientUnits="userSpaceOnUse"><stop offset="0" stop-color="#f9f9f9"/><stop offset=".25" stop-color="#f4f4f5"/><stop offset=".552" stop-color="#e5e7e9"/><stop offset=".88" stop-color="#cdd2d5"/><stop offset="1" stop-color="#c2c8cc"/></radialGradient></defs><path fill="url(#E6kDug2clv0j8fxNmECqZa)" d="M28.94861,39.49229H28.97l-1.22-14.49-.04-.5-.04-.5-.66992-8H21l-.66992,8-.05.5-.04.5-1.22,14.5.0304-.00006A4.897,4.897,0,0,0,19,40.0023a5,5,0,0,0,10,0A4.91644,4.91644,0,0,0,28.94861,39.49229Z"/><path fill="url(#E6kDug2clv0j8fxNmECqZb)" d="M27.91632,24h-7.8315a1.01359,1.01359,0,0,1-1.02264-1.25543L20.46739,16H27.25l1.68918,6.74539A1.01363,1.01363,0,0,1,27.91632,24Z"/><path fill="url(#E6kDug2clv0j8fxNmECqZc)" d="M44,13.36229a3.6511,3.6511,0,0,1-3.65991,3.64H7.65991a3.64256,3.64256,0,0,1-2.46-.95,1.53416,1.53416,0,0,1-.12988-.12,3.62341,3.62341,0,0,1,1.09985-5.89l4.84009-1.84,7.11-2.7,1.53-.58a10.79781,10.79781,0,0,1,8.7,0l.37.14,5.28,2,5.61,2.14,2.22009.84a3.6212,3.6212,0,0,1,2.15991,3.2A.48639.48639,0,0,1,44,13.36229Z"/><path fill="url(#E6kDug2clv0j8fxNmECqZd)" d="M19,8.0023a3.99743,3.99743,0,0,1-7.99.2l7.11-2.7A4.00322,4.00322,0,0,1,19,8.0023Zm14,4a3.99891,3.99891,0,0,0-4,4,3.65874,3.65874,0,0,0,.13,1h7.74a3.65874,3.65874,0,0,0,.13-1A3.99891,3.99891,0,0,0,33,12.0023Zm-7-.5a2.5,2.5,0,1,0-2.5,2.5A2.5,2.5,0,0,0,26,11.5023Zm-9.73,5.5a2,2,0,1,1,3.46,0Zm12.45-11.94a2.95642,2.95642,0,0,0-.72,1.94,3.0003,3.0003,0,0,0,6,.06ZM8,12.0023a2.996,2.996,0,0,0-3,3,2.8058,2.8058,0,0,0,.2,1.05,3.64256,3.64256,0,0,0,2.46.95H10.23a2.96556,2.96556,0,0,0,.77-2A2.996,2.996,0,0,0,8,12.0023Zm33.83008-1.96-2.22009-.84a2.96,2.96,0,0,0-.61,1.8,2.99593,2.99593,0,0,0,4.99,2.24A3.6212,3.6212,0,0,0,41.83008,10.04228Z"/><path d="M27.63,17.5023l-.13-.5H20.26l-.1001.5-.10986.5h7.7Z" opacity=".05"/><path d="M27.5,17.0023H20.26l-.1001.5H27.63Z" opacity=".07"/><g><path d="M27.71,24.5023l-.04-.5H20.33008l-.05.5-.04.5h7.51Z" opacity=".05"/><path d="M27.66992,24.0023H20.33008l-.05.5H27.71Z" opacity=".07"/></g></svg>