<svg xmlns="http://www.w3.org/2000/svg" id="Layer_1" x="0" y="0" version="1.1" viewBox="0 0 48 48" xml:space="preserve"><linearGradient id="SVGID_1_" x1="18.921" x2="25.143" y1="-159.715" y2="-180.715" gradientTransform="matrix(1 0 0 -1 0 -154)" gradientUnits="userSpaceOnUse"><stop offset="0" stop-color="#0078d3"/><stop offset="1" stop-color="#0858a1"/></linearGradient><path fill="url(#SVGID_1_)" d="M43,29.5H5V16.6c0-0.7,0.4-1.3,0.9-1.7L22.4,4.5c1-0.6,2.2-0.6,3.2,0l16.5,10.4c0.6,0.4,0.9,1,0.9,1.7V29.5z"/><linearGradient id="SVGID_2_" x1="24" x2="24" y1="-167.416" y2="-181.233" gradientTransform="matrix(1 0 0 -1 0 -154)" gradientUnits="userSpaceOnUse"><stop offset="0" stop-color="#fff"/><stop offset=".24" stop-color="#f8f8f7"/><stop offset="1" stop-color="#e3e3e1"/></linearGradient><path fill="url(#SVGID_2_)" d="M38,32H10V14c0-0.6,0.4-1,1-1h26c0.6,0,1,0.4,1,1V32z"/><linearGradient id="SVGID_3_" x1="25.886" x2="37.997" y1="-181.936" y2="-199.269" gradientTransform="matrix(1 0 0 -1 0 -154)" gradientUnits="userSpaceOnUse"><stop offset="0" stop-color="#3ccbf4"/><stop offset="1" stop-color="#1fa0e5"/></linearGradient><path fill="url(#SVGID_3_)" d="M43,17v21.3c0,1-0.8,1.7-1.8,1.7H9.6l4.8-6.3L43,17z"/><linearGradient id="SVGID_4_" x1="3.074" x2="39.962" y1="-181.236" y2="-199.125" gradientTransform="matrix(1 0 0 -1 0 -154)" gradientUnits="userSpaceOnUse"><stop offset="0" stop-color="#28afea"/><stop offset="1" stop-color="#0b88da"/></linearGradient><path fill="url(#SVGID_4_)" d="M5,17v21.3c0,1,0.8,1.7,1.8,1.7h34.5c0.6,0,1.1-0.3,1.4-0.7L5,17z"/><linearGradient id="SVGID_5_" x1="22.001" x2="26.016" y1="16.534" y2="23.495" gradientUnits="userSpaceOnUse"><stop offset="0" stop-color="#f44f5a"/><stop offset=".443" stop-color="#ee3d4a"/><stop offset="1" stop-color="#e52030"/></linearGradient><path fill="url(#SVGID_5_)" d="M27.5,19H25v-2.5c0-0.3-0.2-0.5-0.5-0.5h-1c-0.3,0-0.5,0.2-0.5,0.5V19h-2.5c-0.3,0-0.5,0.2-0.5,0.5v1	c0,0.3,0.2,0.5,0.5,0.5H23v2.5c0,0.3,0.2,0.5,0.5,0.5h1c0.3,0,0.5-0.2,0.5-0.5V21h2.5c0.3,0,0.5-0.2,0.5-0.5v-1	C28,19.2,27.8,19,27.5,19z"/></svg>