<svg xmlns="http://www.w3.org/2000/svg" viewBox="0 0 48 48"><linearGradient id="SUVixDSeSyyG5YBTrRfqza" x1="23.511" x2="23.511" y1="3" y2="42" gradientUnits="userSpaceOnUse"><stop offset="0" stop-color="#889097"/><stop offset="1" stop-color="#4c5963"/></linearGradient><path fill="url(#SUVixDSeSyyG5YBTrRfqza)" d="M13.427,3.505l-5.274,9.256c-0.099,0.174-0.144,0.374-0.128,0.574L10.286,42h26.429 L39,13.029l-5.427-9.524C33.396,3.193,33.064,3,32.705,3H14.295C13.936,3,13.604,3.193,13.427,3.505z"/><linearGradient id="SUVixDSeSyyG5YBTrRfqzb" x1="23.5" x2="23.5" y1="6" y2="38.21" gradientUnits="userSpaceOnUse"><stop offset="0" stop-color="#afb6bc"/><stop offset=".925" stop-color="#9aa0a5"/></linearGradient><path fill="url(#SUVixDSeSyyG5YBTrRfqzb)" d="M35.787,13.443c0.099,0.174,0.144,0.374,0.128,0.574L34.13,36.65l-0.04,0.51l-0.05,0.52 L34,38.21c-3.72-1.4-6.95-1.71-10-1.71s-7.28,0.31-11,1.71l-0.04-0.53l-0.05-0.52l-0.04-0.51l-1.786-22.633 c-0.016-0.2,0.029-0.4,0.128-0.574l3.96-6.938C15.35,6.192,15.682,6,16.041,6h14.919c0.359,0,0.691,0.192,0.869,0.504 L35.787,13.443z"/><path d="M23.5,35c-4.32,0-7.57,0.56-10.63,1.65l0.04,0.51l0.05,0.52c2.99-1.1,6.2-1.68,10.54-1.68s7.55,0.58,10.54,1.68 l0.05-0.52l0.04-0.51C31.07,35.57,27.83,35,23.5,35z" opacity=".05"/><path d="M23.5,35.5c-4.34,0-7.57,0.57-10.59,1.66l0.05,0.52L13,38.21c3.72-1.4,7.45-1.71,10.5-1.71s6.78,0.31,10.5,1.71 l0.04-0.53l0.05-0.52C31.07,36.07,27.84,35.5,23.5,35.5z" opacity=".07"/><linearGradient id="SUVixDSeSyyG5YBTrRfqzc" x1="23.5" x2="23.5" y1="36" y2="45" gradientUnits="userSpaceOnUse"><stop offset="0" stop-color="#2ac782"/><stop offset="1" stop-color="#21b876"/></linearGradient><path fill="url(#SUVixDSeSyyG5YBTrRfqzc)" d="M41.488,45H5.513c-0.357,0-0.615-0.361-0.474-0.685C7.614,38.387,14.777,36,23.498,36 c8.723,0,15.958,2.387,18.464,8.317C42.099,44.641,41.843,45,41.488,45z"/><g><linearGradient id="SUVixDSeSyyG5YBTrRfqzd" x1="24" x2="24" y1="14" y2="22" gradientUnits="userSpaceOnUse"><stop offset="0" stop-color="#5e5e5e"/><stop offset="1" stop-color="#545454"/></linearGradient><path fill="url(#SUVixDSeSyyG5YBTrRfqzd)" d="M17.972,19.171h-1.044v2.579c0,0.138-0.112,0.25-0.25,0.25H15.25 C15.112,22,15,21.888,15,21.75v-7.5c0-0.138,0.112-0.25,0.25-0.25h2.897c0.95,0,1.691,0.212,2.226,0.632 c0.534,0.421,0.803,1.015,0.803,1.782c0,0.558-0.114,1.018-0.34,1.385c-0.188,0.307-0.468,0.565-0.838,0.776 c-0.118,0.067-0.17,0.211-0.107,0.331l1.558,3.011V22h-1.911c-0.095,0-0.181-0.054-0.224-0.138L17.972,19.171z M16.928,17.686 l0.924,0.001c0.367,0,0.642-0.096,0.827-0.289c0.186-0.192,0.278-0.461,0.278-0.807s-0.094-0.616-0.28-0.812 c-0.188-0.198-0.462-0.295-0.825-0.295l-0.924-0.001L16.928,17.686z M24.75,22h-1.5C23.112,22,23,21.888,23,21.75v-7.5 c0-0.138,0.112-0.25,0.25-0.25h1.5c0.138,0,0.25,0.112,0.25,0.25v7.5C25,21.888,24.888,22,24.75,22z M28.632,19.286v2.464 c0,0.138-0.112,0.25-0.25,0.25h-1.428c-0.138,0-0.25-0.112-0.25-0.25v-7.5c0-0.138,0.112-0.25,0.25-0.25h2.942 c0.611,0,1.151,0.114,1.622,0.338c0.472,0.226,0.836,0.545,1.094,0.961C32.871,15.716,33,16.188,33,16.714 c0,0.78-0.279,1.404-0.838,1.871c-0.559,0.468-1.325,0.701-2.3,0.701L28.632,19.286z M28.632,17.797h1.265 c0.372,0,0.657-0.094,0.854-0.28c0.195-0.188,0.295-0.451,0.295-0.791c0-0.374-0.101-0.672-0.303-0.896 c-0.202-0.222-0.477-0.336-0.825-0.339h-1.285L28.632,17.797L28.632,17.797z"/></g></svg>