<svg xmlns="http://www.w3.org/2000/svg" viewBox="0 0 48 48"><linearGradient id="Mipp~KLZokwGcXazgQvg8a" x1="13.661" x2="34.486" y1="57.962" y2="3.712" gradientTransform="matrix(1 0 0 -1 0 48)" gradientUnits="userSpaceOnUse"><stop offset="0" stop-color="#ffda1c"/><stop offset="1" stop-color="#feb705"/></linearGradient><path fill="url(#Mipp~KLZokwGcXazgQvg8a)" d="M42,10c-11.122,0-11.278-6-18-6s-6.878,6-18,6c-0.552,0-1,0.448-1,1c0,0,0,5.856,0,9	c0,1.378,0.178,2.712,0.493,4c2.936,12.007,18.08,19.907,18.08,19.907S23.784,44,24,44c0.203,0,0.427-0.093,0.427-0.093	s15.144-7.9,18.08-19.907C42.822,22.712,43,21.378,43,20c0-3.144,0-9,0-9C43,10.448,42.552,10,42,10z"/><path d="M24.016,36c-1.063,0-1.963-0.337-2.675-1.001	c-0.732-0.683-1.104-1.526-1.104-2.506c0-1.022,0.381-1.875,1.134-2.534c0.713-0.625,1.603-0.942,2.645-0.942	c1.059,0,1.951,0.324,2.651,0.962c0.728,0.665,1.096,1.51,1.096,2.514c0,1.01-0.364,1.861-1.081,2.528	C25.983,35.671,25.086,36,24.016,36z M22.771,28.918c-0.952,0-1.726-0.745-1.762-1.696l-0.5-13.393	c-0.019-0.482,0.156-0.94,0.492-1.289S21.788,12,22.271,12h3.427c0.484,0,0.935,0.192,1.271,0.541c0.336,0.35,0.51,0.809,0.49,1.293	L26.93,27.225c-0.038,0.95-0.812,1.693-1.762,1.693C25.168,28.918,22.771,28.918,22.771,28.918z" opacity=".05"/><path d="M24.016,35.5c-0.932,0-1.717-0.292-2.334-0.867	c-0.627-0.585-0.944-1.305-0.944-2.14c0-0.872,0.324-1.598,0.963-2.158c0.62-0.543,1.398-0.818,2.315-0.818	c0.93,0,1.708,0.28,2.314,0.832c0.619,0.565,0.933,1.287,0.933,2.144c0,0.866-0.31,1.593-0.921,2.163	C25.739,35.216,24.957,35.5,24.016,35.5z M22.771,28.418c-0.682,0-1.236-0.534-1.262-1.215l-0.5-13.392	c-0.013-0.346,0.112-0.674,0.353-0.924c0.241-0.25,0.563-0.387,0.91-0.387h3.427c0.347,0,0.67,0.138,0.91,0.388	s0.365,0.579,0.351,0.926l-0.53,13.391c-0.027,0.681-0.582,1.213-1.262,1.213H22.771z" opacity=".07"/><radialGradient id="Mipp~KLZokwGcXazgQvg8b" cx="20.44" cy="35.514" r="24.568" gradientTransform="matrix(1 0 0 -1 0 48)" gradientUnits="userSpaceOnUse"><stop offset="0" stop-color="#4b4b4b"/><stop offset=".531" stop-color="#393939"/><stop offset="1" stop-color="#252525"/></radialGradient><path fill="url(#Mipp~KLZokwGcXazgQvg8b)" d="M24.015,35c-0.805,0-1.47-0.244-1.993-0.733s-0.785-1.079-0.785-1.774	c0-0.725,0.264-1.319,0.793-1.782c0.528-0.463,1.19-0.694,1.986-0.694c0.805,0,1.465,0.234,1.978,0.702	c0.514,0.469,0.77,1.059,0.77,1.774c0,0.725-0.254,1.323-0.762,1.796C25.493,34.762,24.83,35,24.015,35z M26.46,13.793	l-0.529,13.392c-0.017,0.409-0.353,0.733-0.762,0.733h-2.397c-0.41,0-0.747-0.324-0.762-0.735l-0.5-13.391	C21.492,13.36,21.838,13,22.271,13h3.428C26.131,13,26.477,13.36,26.46,13.793z"/></svg>