<svg xmlns="http://www.w3.org/2000/svg" xmlns:xlink="http://www.w3.org/1999/xlink" data-name="Слой 1" viewBox="0 0 48 48"><defs><linearGradient id="SmiotzbitJNrfXQR57bmPb" x1="3.783" x2="46.734" y1="3.783" y2="46.734" data-name="Безымянный градиент 100" gradientUnits="userSpaceOnUse"><stop offset="0" stop-color="#21ad64"/><stop offset="1" stop-color="#088242"/></linearGradient><linearGradient id="SmiotzbitJNrfXQR57bmPa" x1="33.435" x2="36.37" y1="32.435" y2="35.37" data-name="Безымянный градиент 129" gradientUnits="userSpaceOnUse"><stop offset="0" stop-color="#ffd869"/><stop offset="1" stop-color="#fec52b"/></linearGradient><linearGradient id="SmiotzbitJNrfXQR57bmPc" x1="10.391" x2="16.384" y1="11.391" y2="17.384" xlink:href="#SmiotzbitJNrfXQR57bmPa"/><linearGradient id="SmiotzbitJNrfXQR57bmPd" x1="11.685" x2="16.807" y1="31.685" y2="36.807" xlink:href="#SmiotzbitJNrfXQR57bmPa"/><linearGradient id="SmiotzbitJNrfXQR57bmPe" x1="102.64" x2="9.646" y1="-51.132" y2="37.714" xlink:href="#SmiotzbitJNrfXQR57bmPa"/></defs><path fill="url(#SmiotzbitJNrfXQR57bmPb)" d="M44,24c0,.33-.01.67-.03,1A19.98428,19.98428,0,0,1,25,43.97c-.33.02-.67.03-1,.03s-.67-.01-1-.03A19.98428,19.98428,0,0,1,4.03,25c-.02-.33-.03-.67-.03-1s.01-.67.03-1A19.98434,19.98434,0,0,1,23,4.03c.33-.02.67-.03,1-.03s.67.01,1,.03A19.98434,19.98434,0,0,1,43.97,23C43.99,23.33,44,23.67,44,24Z"/><path fill="#33c481" d="M24,39A15,15,0,1,1,39,24,15.017,15.017,0,0,1,24,39Zm0-28A13,13,0,1,0,37,24,13.01442,13.01442,0,0,0,24,11Z"/><path fill="#33c481" d="M24,32a8,8,0,1,1,8-8A8.00917,8.00917,0,0,1,24,32Zm0-14a6,6,0,1,0,6,6A6.00657,6.00657,0,0,0,24,18Z"/><path d="M34.5,32A1.5,1.5,0,1,1,33,33.5,1.5,1.5,0,0,1,34.5,32m0-1A2.5,2.5,0,1,0,37,33.5,2.50284,2.50284,0,0,0,34.5,31Z" opacity=".05"/><path d="M34.5,32A1.5,1.5,0,1,1,33,33.5,1.5,1.5,0,0,1,34.5,32m0-.5a2,2,0,1,0,2,2,2.00227,2.00227,0,0,0-2-2Z" opacity=".07"/><circle cx="34.5" cy="33.5" r="1.5" fill="url(#SmiotzbitJNrfXQR57bmPa)"/><path d="M13.5,12A2.5,2.5,0,1,1,11,14.5,2.5,2.5,0,0,1,13.5,12m0-1A3.5,3.5,0,1,0,17,14.5,3.504,3.504,0,0,0,13.5,11Z" opacity=".05"/><path d="M13.5,12A2.5,2.5,0,1,1,11,14.5,2.5,2.5,0,0,1,13.5,12m0-.5a3,3,0,1,0,3,3,3.00339,3.00339,0,0,0-3-3Z" opacity=".07"/><circle cx="13.5" cy="14.5" r="2.5" fill="url(#SmiotzbitJNrfXQR57bmPc)"/><g><path d="M13.5,31A2.5,2.5,0,1,1,11,33.5,2.5,2.5,0,0,1,13.5,31m0-1A3.5,3.5,0,1,0,17,33.5,3.504,3.504,0,0,0,13.5,30Z" opacity=".05"/><path d="M13.5,31A2.5,2.5,0,1,1,11,33.5,2.5,2.5,0,0,1,13.5,31m0-.5a3,3,0,1,0,3,3,3.00339,3.00339,0,0,0-3-3Z" opacity=".07"/><circle cx="13.5" cy="33.5" r="2.5" fill="url(#SmiotzbitJNrfXQR57bmPd)"/></g><path fill="#33c481" d="M25,4.03V43.97c-.33.02-.67.03-1,.03s-.67-.01-1-.03V4.03c.33-.02.67-.03,1-.03S24.67,4.01,25,4.03Z"/><path fill="#33c481" d="M44,24c0,.33-.01.67-.03,1H4.03c-.02-.33-.03-.67-.03-1s.01-.67.03-1H43.97C43.99,23.33,44,23.67,44,24Z"/><g><path d="M36.875,10.125a1,1,0,0,1,.707,1.707L25.92566,23.4884a2.03471,2.03471,0,1,1-1.41406-1.41406L36.168,10.418a.99676.99676,0,0,1,.707-.293m0-1a1.98686,1.98686,0,0,0-1.41414.58586L24.16631,21.00541Q24.08243,21,24,21a3,3,0,1,0,3,3q0-.08248-.00541-.16631L38.28914,12.53914A2,2,0,0,0,36.875,9.125Z" opacity=".05"/><path d="M36.875,10.125a1,1,0,0,1,.707,1.707L25.92566,23.4884a2.03471,2.03471,0,1,1-1.41406-1.41406L36.168,10.418a.99676.99676,0,0,1,.707-.293m0-.5a1.49008,1.49008,0,0,0-1.06058.43942L24.35024,21.52859A2.19593,2.19593,0,0,0,24,21.5,2.5,2.5,0,1,0,26.5,24a2.1948,2.1948,0,0,0-.0286-.35024L37.93558,12.18559A1.5,1.5,0,0,0,36.875,9.625Z" opacity=".07"/><path fill="url(#SmiotzbitJNrfXQR57bmPe)" d="M37.582,10.418a.99962.99962,0,0,0-1.41406,0L24.5116,22.07434a2.03471,2.03471,0,1,0,1.41406,1.41406L37.582,11.832A.99962.99962,0,0,0,37.582,10.418Z"/></g></svg>