<svg xmlns="http://www.w3.org/2000/svg" viewBox="0 0 48 48"><linearGradient id="tzYl9k1szQMfF3jHWWZnta" x1="4.624" x2="11.305" y1="-575.89" y2="-602.085" gradientTransform="matrix(1 0 0 -1 0 -562)" gradientUnits="userSpaceOnUse"><stop offset="0" stop-color="#5c65d6"/><stop offset=".999" stop-color="#464eb0"/></linearGradient><path fill="url(#tzYl9k1szQMfF3jHWWZnta)" d="M13,14H5c-1.105,0-2,0.895-2,2v24c0,1.105,0.895,2,2,2h8V14z"/><linearGradient id="tzYl9k1szQMfF3jHWWZntb" x1="10.741" x2="41.507" y1="1.429" y2="47.514" gradientUnits="userSpaceOnUse"><stop offset="0" stop-color="#ffcf54"/><stop offset=".261" stop-color="#fdcb4d"/><stop offset=".639" stop-color="#f7c13a"/><stop offset="1" stop-color="#f0b421"/></linearGradient><path fill="url(#tzYl9k1szQMfF3jHWWZntb)" d="M45.941,24.348c0-1.194-0.494-2.271-1.286-3.043c0.791-0.773,1.286-1.849,1.286-3.044	c0-2.353-1.908-4.261-4.261-4.261H27l1-4c0,0,3-2,3-6c0-2.209-1.791-4-4-4L13,14v28h28.071c2.017,0,3.652-1.635,3.652-3.652	c0-1.131-0.525-2.129-1.332-2.799c1.5-0.66,2.549-2.154,2.549-3.897c0-1.56-0.847-2.91-2.098-3.652	C45.093,27.257,45.941,25.907,45.941,24.348z"/></svg>