<svg xmlns="http://www.w3.org/2000/svg" viewBox="0 0 48 48"><radialGradient id="04UuK4SDXypYjbzGJxVkMa" cx="23.854" cy="30.19" r="20.234" gradientUnits="userSpaceOnUse"><stop offset=".846" stop-color="#92a3b0"/><stop offset=".926" stop-color="#a1b3c2"/><stop offset="1" stop-color="#b2c6d6"/></radialGradient><path fill="url(#04UuK4SDXypYjbzGJxVkMa)" d="M11,14v6h4v-6c0-4.971,4.029-9,9-9h0c4.971,0,9,4.029,9,9v6h4v-6c0-7.18-5.82-13-13-13h0	C16.82,1,11,6.82,11,14z"/><circle cx="24" cy="28" r="16" fill="#e3a600"/><circle cx="24" cy="28" r="12" fill="#edbe00"/><linearGradient id="04UuK4SDXypYjbzGJxVkMb" x1="24" x2="24" y1="34.373" y2="26.155" gradientUnits="userSpaceOnUse"><stop offset="0" stop-color="#4b4b4b"/><stop offset="1" stop-color="#3b3b3b"/></linearGradient><path fill="url(#04UuK4SDXypYjbzGJxVkMb)" d="M27,28c0-1.657-1.343-3-3-3s-3,1.343-3,3c0,1.304,0.837,2.403,2,2.816V34c0,0.552,0.448,1,1,1	s1-0.448,1-1v-3.184C26.163,30.403,27,29.304,27,28z"/></svg>