<svg class="icon" xmlns="http://www.w3.org/2000/svg" viewBox="0 0 48 48"><linearGradient id="I4fYskwt_1jV05BsSV2Poa" x1="24" x2="24" y1="50.6" y2="1.942" gradientTransform="matrix(1 0 0 -1 0 47.89)" gradientUnits="userSpaceOnUse"><stop offset="0" stop-color="#fcfcfc"></stop><stop offset=".95" stop-color="#c3c9cd"></stop></linearGradient><path fill="url(#I4fYskwt_1jV05BsSV2Poa)" d="M40,42H8c-1.1,0-2-0.9-2-2V8c0-1.1,0.9-2,2-2h32c1.1,0,2,0.9,2,2v32C42,41.1,41.1,42,40,42z"></path><linearGradient id="I4fYskwt_1jV05BsSV2Pob" x1="-522" x2="-522" y1="-454.164" y2="-476.433" gradientTransform="rotate(180 -249 -220.11)" gradientUnits="userSpaceOnUse"><stop offset="0" stop-color="#737b80"></stop><stop offset=".473" stop-color="#686f74"></stop><stop offset="1" stop-color="#575c61"></stop></linearGradient><path fill="url(#I4fYskwt_1jV05BsSV2Pob)" d="M12,36h24c0.552,0,1-0.448,1-1V21c0-0.552-0.448-1-1-1h-3v-2c0-0.552-0.448-1-1-1h-3v-2	c0-0.552-0.448-1-1-1h-8c-0.552,0-1,0.448-1,1v2h-3c-0.552,0-1,0.448-1,1v2h-3c-0.552,0-1,0.448-1,1v14C11,35.552,11.448,36,12,36z"></path><path fill="#e3a600" d="M23.5,32h1c0.276,0,0.5,0.224,0.5,0.5V36h-2v-3.5C23,32.224,23.224,32,23.5,32z"></path><path fill="#e3a600" d="M19.5,32h1c0.276,0,0.5,0.224,0.5,0.5V36h-2v-3.5C19,32.224,19.224,32,19.5,32z"></path><path fill="#e3a600" d="M15.5,32h1c0.276,0,0.5,0.224,0.5,0.5V36h-2v-3.5C15,32.224,15.224,32,15.5,32z"></path><path fill="#e3a600" d="M27.5,32h1c0.276,0,0.5,0.224,0.5,0.5V36h-2v-3.5C27,32.224,27.224,32,27.5,32z"></path><path fill="#e3a600" d="M31.5,32h1c0.276,0,0.5,0.224,0.5,0.5V36h-2v-3.5C31,32.224,31.224,32,31.5,32z"></path></svg>