<svg xmlns="http://www.w3.org/2000/svg" viewBox="0 0 48 48"><linearGradient id="DaO8vmF~_f_4S1jL2Fzpka" x1="22.541" x2="22.541" y1="-11.596" y2="35.373" gradientUnits="userSpaceOnUse"><stop offset="0" stop-color="#b84af2"/><stop offset=".443" stop-color="#a639ed"/><stop offset="1" stop-color="#e52030"/></linearGradient><path fill="url(#DaO8vmF~_f_4S1jL2Fzpka)" d="M23.112,40.539c-0.396-0.132-0.818,0.082-0.949,0.474l-0.667,2 c-0.131,0.393,0.082,0.818,0.474,0.949C22.05,43.988,22.13,44,22.208,44c0.314,0,0.607-0.199,0.711-0.513l0.667-2 C23.717,41.094,23.505,40.669,23.112,40.539z"/><linearGradient id="DaO8vmF~_f_4S1jL2Fzpkb" x1="13.75" x2="13.75" y1="-11.596" y2="35.373" gradientUnits="userSpaceOnUse"><stop offset="0" stop-color="#b84af2"/><stop offset=".443" stop-color="#a639ed"/><stop offset="1" stop-color="#e52030"/></linearGradient><path fill="url(#DaO8vmF~_f_4S1jL2Fzpkb)" d="M14.536,35.643c-0.367-0.083-0.718,0.129-0.848,0.47c-0.013,0.035-0.036,0.064-0.045,0.102 l-0.025,0.105c-0.275,1.111-1.18,3.379-1.189,3.402c-0.154,0.384,0.033,0.821,0.418,0.975c0.091,0.037,0.186,0.054,0.278,0.054 c0.297,0,0.579-0.178,0.696-0.471c0.037-0.093,0.869-2.181,1.204-3.424c0.015-0.057,0.035-0.122,0.049-0.175l0.034-0.145 C15.196,36.131,14.94,35.731,14.536,35.643z"/><linearGradient id="DaO8vmF~_f_4S1jL2Fzpkc" x1="5.313" x2="5.313" y1="-11.596" y2="35.373" gradientUnits="userSpaceOnUse"><stop offset="0" stop-color="#b84af2"/><stop offset=".443" stop-color="#a639ed"/><stop offset="1" stop-color="#e52030"/></linearGradient><path fill="url(#DaO8vmF~_f_4S1jL2Fzpkc)" d="M5.659,26.964c0-0.001-0.001-0.002-0.001-0.003C5.552,26.119,5.5,25.185,5.5,24.128 c0-1.003,0.089-1.999,0.246-2.982c0-0.001,0-0.001-0.001-0.002c0.112-0.697,0.253-1.389,0.442-2.067 c0.113-0.399-0.121-0.813-0.52-0.924c-0.358-0.101-0.714,0.085-0.867,0.409c0,0,0,0.001,0,0.001 c-0.018,0.037-0.045,0.068-0.056,0.11c-0.259,0.927-0.447,1.872-0.571,2.829c0,0.001,0.001,0.003,0.001,0.004 C4.061,22.372,4,23.248,4,24.128c0,2.921,0.368,5.022,1.194,6.812c0.127,0.274,0.398,0.436,0.682,0.436 c0.105,0,0.212-0.022,0.314-0.069c0.376-0.174,0.54-0.619,0.367-0.996C6.114,29.351,5.821,28.267,5.659,26.964z"/><linearGradient id="DaO8vmF~_f_4S1jL2Fzpkd" x1="18.937" x2="18.937" y1="-11.596" y2="35.373" gradientUnits="userSpaceOnUse"><stop offset="0" stop-color="#b84af2"/><stop offset=".443" stop-color="#a639ed"/><stop offset="1" stop-color="#e52030"/></linearGradient><path fill="url(#DaO8vmF~_f_4S1jL2Fzpkd)" d="M12.544,29.38c-0.047-0.033-0.092-0.076-0.139-0.111c0.048,0.034,0.091,0.076,0.139,0.109 c-0.062-0.679-0.153-1.317-0.243-1.95C12.146,26.351,12,25.331,12,24.125c0-0.375,0.023-0.744,0.056-1.111l0,0 c0.189-2.088,0.899-4.026,2.005-5.675c1.466-2.186,3.623-3.857,6.148-4.709c0,0,0,0-0.001,0C21.402,12.227,22.674,12,24,12 c1.037,0,2.065,0.133,3.058,0.397c0.403,0.107,0.812-0.132,0.917-0.533c0.105-0.401-0.132-0.811-0.533-0.917 C26.325,10.65,25.167,10.5,24,10.5c-2.201,0-4.273,0.547-6.111,1.494c-0.002,0-0.003-0.001-0.005-0.001 c-0.008,0.004-0.015,0.01-0.023,0.014c-0.01,0.005-0.02,0.008-0.03,0.013c0.002,0.001,0.003,0.001,0.005,0.001 c-2.019,1.062-3.794,2.639-5.054,4.536c-1.049,1.58-1.767,3.396-2.086,5.346c-0.119,0.725-0.196,1.463-0.196,2.221 c0,1.313,0.161,2.434,0.316,3.517c0.018,0.13,0.037,0.26,0.055,0.39c0.236,1.692,0.418,3.49-0.034,6.002c0,0,0.001,0,0.001,0.001 c-0.188,1.046-0.481,2.227-0.927,3.611c-0.127,0.395,0.09,0.817,0.484,0.944c0.077,0.024,0.154,0.036,0.23,0.036 c0.317,0,0.611-0.202,0.714-0.52c0.359-1.114,0.622-2.108,0.817-3.016c0,0-0.001,0-0.001-0.001 C12.671,32.689,12.685,30.925,12.544,29.38z"/><linearGradient id="DaO8vmF~_f_4S1jL2Fzpke" x1="11.347" x2="11.347" y1="-11.596" y2="35.373" gradientUnits="userSpaceOnUse"><stop offset="0" stop-color="#b84af2"/><stop offset=".443" stop-color="#a639ed"/><stop offset="1" stop-color="#e52030"/></linearGradient><path fill="url(#DaO8vmF~_f_4S1jL2Fzpke)" d="M9.085,28.211c-0.093-0.689-0.186-1.458-0.251-2.224c-0.05-0.58-0.084-1.188-0.084-1.862 c0-1.223,0.149-2.43,0.429-3.596c0.008-0.035,0.041-0.167,0.049-0.198c0.437-1.722,1.165-3.355,2.15-4.824 c-0.011-0.009-0.02-0.019-0.031-0.028c0.011,0.009,0.021,0.019,0.032,0.028c1.004-1.497,2.271-2.823,3.764-3.899 c0.187-0.135,0.284-0.339,0.3-0.552c0.011-0.171-0.024-0.346-0.131-0.495c-0.241-0.335-0.709-0.411-1.047-0.17 c-0.018,0.013-0.035,0.027-0.052,0.04c-1.544,1.122-2.862,2.491-3.927,4.028c0,0-0.001-0.001-0.002-0.002 c-0.005,0.007-0.029,0.044-0.029,0.045c-0.922,1.348-1.676,2.863-2.18,4.421c-0.006,0.019-0.046,0.147-0.054,0.171 c-0.464,1.504-0.734,3.117-0.763,4.722c-0.001,0.034-0.009,0.395-0.009,0.438c0.009,1.626,0.181,2.911,0.349,4.154 c0.106,0.786,0.203,1.535,0.253,2.313c0.074,1.241,0.028,2.653-0.335,4.373c-0.085,0.405,0.174,0.803,0.58,0.888 C8.147,35.995,8.2,36,8.251,36c0.347,0,0.659-0.242,0.733-0.596c0.221-1.051,0.331-1.967,0.375-2.811c0,0-0.001-0.001-0.001-0.001 C9.447,30.951,9.273,29.603,9.085,28.211z"/><linearGradient id="DaO8vmF~_f_4S1jL2Fzpkf" x1="40.848" x2="40.848" y1="-11.596" y2="35.373" gradientUnits="userSpaceOnUse"><stop offset="0" stop-color="#b84af2"/><stop offset=".443" stop-color="#a639ed"/><stop offset="1" stop-color="#e52030"/></linearGradient><path fill="url(#DaO8vmF~_f_4S1jL2Fzpkf)" d="M40.793,29.876c-0.009,0-0.017,0.006-0.026,0.006c-0.401,0.03-0.71,0.367-0.695,0.771 c0.003,0.067,0.003,0.139,0.006,0.206c0.029,0.838,0.047,1.715,0.047,2.64c0,0.414,0.336,0.75,0.75,0.75s0.75-0.336,0.75-0.75 c0-1.018-0.02-1.987-0.054-2.902C41.555,30.183,41.222,29.854,40.793,29.876z"/><linearGradient id="DaO8vmF~_f_4S1jL2Fzpkg" x1="26.613" x2="26.613" y1="-11.596" y2="35.373" gradientUnits="userSpaceOnUse"><stop offset="0" stop-color="#b84af2"/><stop offset=".443" stop-color="#a639ed"/><stop offset="1" stop-color="#e52030"/></linearGradient><path fill="url(#DaO8vmF~_f_4S1jL2Fzpkg)" d="M28.373,34.793c0.025-0.412-0.29-0.767-0.704-0.792c-0.427-0.029-0.768,0.291-0.793,0.704 c-0.002,0.026-0.116,1.773-0.682,4.168c0.005-0.001,0.009-0.002,0.014-0.002c-0.004,0-0.009,0.003-0.013,0.003 c-0.293,1.24-0.704,2.651-1.288,4.095c-0.155,0.384,0.03,0.821,0.414,0.977C25.414,43.982,25.509,44,25.602,44 c0.297,0,0.578-0.177,0.696-0.469c0.666-1.648,1.168-3.497,1.487-4.901c0.002,0,0.005-0.001,0.007-0.001 c0.018-0.082,0.031-0.156,0.048-0.236c0.005-0.024,0.013-0.055,0.018-0.079c-0.001,0-0.002,0.001-0.003,0.001 C28.273,36.299,28.367,34.892,28.373,34.793z"/><linearGradient id="DaO8vmF~_f_4S1jL2Fzpkh" x1="33.771" x2="33.771" y1="-11.596" y2="35.373" gradientUnits="userSpaceOnUse"><stop offset="0" stop-color="#b84af2"/><stop offset=".443" stop-color="#a639ed"/><stop offset="1" stop-color="#e52030"/></linearGradient><path fill="url(#DaO8vmF~_f_4S1jL2Fzpkh)" d="M35.137,29.498c-0.074-2.123-0.289-4.099-0.543-5.556c0.001,0,0.001-0.001,0.002-0.001 c-0.004-0.02-0.078-0.434-0.111-0.592c-0.15-0.733-0.339-1.437-0.562-2.091c-0.133-0.393-0.561-0.602-0.952-0.468 c-0.392,0.134-0.602,0.56-0.468,0.952c0.203,0.595,0.375,1.237,0.513,1.909c0.067,0.326,0.13,0.699,0.191,1.093 c0.237,1.536,0.417,3.549,0.447,5.77c0.027,1.97-0.068,4.095-0.346,6.18c0,0-0.001,0.001-0.001,0.001 c-0.198,1.492-0.487,2.964-0.899,4.34c-0.119,0.396,0.106,0.814,0.503,0.934C32.981,41.99,33.054,42,33.125,42 c0.322,0,0.621-0.209,0.718-0.535c0.521-1.736,0.88-3.84,1.087-5.727c0.002-0.001,0.031-0.278,0.029-0.277 c0.195-2.022,0.242-4.123,0.182-5.967C35.14,29.495,35.138,29.497,35.137,29.498z"/><linearGradient id="DaO8vmF~_f_4S1jL2Fzpki" x1="26.444" x2="26.444" y1="-11.596" y2="35.373" gradientUnits="userSpaceOnUse"><stop offset="0" stop-color="#b84af2"/><stop offset=".443" stop-color="#a639ed"/><stop offset="1" stop-color="#e52030"/></linearGradient><path fill="url(#DaO8vmF~_f_4S1jL2Fzpki)" d="M31.75,28.979c-0.036-1.273-0.142-2.51-0.247-3.448c0.001,0-0.019-0.179-0.022-0.202 c0,0-0.001,0.001-0.002,0.001c-0.225-1.827-0.519-2.916-0.638-3.296c-0.315-1.049-0.88-1.977-1.607-2.75c0,0,0.001,0,0.001,0 C27.909,17.873,26.027,17,24,17c-0.768,0-1.523,0.126-2.24,0.373l-0.142,0.05c-0.389,0.142-0.59,0.572-0.448,0.961 c0.142,0.39,0.574,0.59,0.961,0.448l0.112-0.04C22.808,18.599,23.398,18.5,24,18.5c1.252,0,2.456,0.444,3.431,1.185 c0,0-0.001,0-0.001,0c0.925,0.704,1.643,1.675,1.984,2.806c0.086,0.273,0.418,1.446,0.642,3.57c0.005-0.002,0.006-0.001,0.002,0 c0.089,0.84,0.162,1.813,0.194,2.96c0.028,1.009,0.015,1.998-0.022,2.976c-0.001,0-0.001,0.001-0.002,0.001 c-0.081,2.154-0.318,4.23-0.713,6.214c0.008-0.002,0.016-0.006,0.024-0.008c-0.008,0.002-0.016,0.007-0.024,0.009 c-0.303,1.526-0.693,3.003-1.181,4.417c-0.135,0.392,0.073,0.819,0.464,0.954c0.081,0.028,0.164,0.041,0.245,0.041 c0.311,0,0.602-0.195,0.709-0.505c0.575-1.669,1.053-3.625,1.386-5.455c0.002-0.001,0.004-0.001,0.005-0.002 c0.007-0.04,0.036-0.224,0.034-0.224c0.322-1.903,0.515-3.96,0.568-5.997c0.001,0,0.001,0,0.002-0.001c0-0.017,0-0.034,0-0.05 c0-0.017,0.002-0.034,0.002-0.052c-0.001,0-0.001,0.001-0.002,0.001C31.764,30.562,31.772,29.777,31.75,28.979z"/><linearGradient id="DaO8vmF~_f_4S1jL2Fzpkj" x1="24.239" x2="24.239" y1="-11.596" y2="35.373" gradientUnits="userSpaceOnUse"><stop offset="0" stop-color="#b84af2"/><stop offset=".443" stop-color="#a639ed"/><stop offset="1" stop-color="#e52030"/></linearGradient><path fill="url(#DaO8vmF~_f_4S1jL2Fzpkj)" d="M25.304,32.543c0.091-1.766,0.043-3.552-0.042-4.946c-0.014-0.231-0.075-1.045-0.077-1.065 c0,0-0.001,0-0.001,0c-0.138-1.433-0.305-2.331-0.324-2.427c-0.078-0.405-0.47-0.671-0.88-0.591 c-0.406,0.08-0.671,0.474-0.591,0.88c0.005,0.023,0.172,0.912,0.307,2.373c0.007,0.071,0.034,0.392,0.041,0.481 c0.118,1.499,0.185,3.489,0.035,5.74c0,0-0.001,0-0.001,0c-0.099,1.491-0.29,3.089-0.631,4.735 c-0.084,0.406,0.177,0.802,0.583,0.886c0.051,0.011,0.102,0.016,0.153,0.016c0.348,0,0.66-0.244,0.733-0.598 c0.34-1.643,0.555-3.553,0.667-5.091C25.279,32.935,25.305,32.543,25.304,32.543z"/><linearGradient id="DaO8vmF~_f_4S1jL2Fzpkk" x1="17.534" x2="17.534" y1="-11.596" y2="35.373" gradientUnits="userSpaceOnUse"><stop offset="0" stop-color="#b84af2"/><stop offset=".443" stop-color="#a639ed"/><stop offset="1" stop-color="#e52030"/></linearGradient><path fill="url(#DaO8vmF~_f_4S1jL2Fzpkk)" d="M18.12,37.749c0.521-1.874,0.772-3.618,0.856-5.212c0.001-0.025,0.011-0.252,0.012-0.28 c0.085-2.241-0.122-4.292-0.3-5.864c-0.005-0.046-0.01-0.087-0.015-0.132c0,0,0.001,0,0.001,0 c-0.094-0.837-0.174-1.567-0.174-2.136c0-1.302,0.422-2.524,1.222-3.535c0.257-0.324,0.201-0.796-0.123-1.053 c-0.047-0.037-0.101-0.053-0.153-0.078c-0.082-0.035-0.176-0.056-0.267-0.069c-0.236-0.014-0.475,0.07-0.634,0.269 C17.549,20.919,17,22.505,17,24.125c0,0.475,0.051,1.034,0.113,1.631c0,0-0.001,0-0.001,0c0.028,0.264,0.052,0.517,0.085,0.805 c0.166,1.47,0.369,3.267,0.305,5.338c0.002,0.001,0.004,0.002,0.007,0.003c-0.002-0.001-0.004-0.001-0.006-0.002 c-0.053,1.714-0.295,3.616-0.888,5.674c0,0-0.001,0-0.001,0c-0.332,1.156-0.771,2.358-1.359,3.607 c-0.176,0.375-0.016,0.822,0.359,0.998c0.103,0.048,0.212,0.071,0.319,0.071c0.281,0,0.551-0.159,0.679-0.431 c0.554-1.177,1.059-2.583,1.411-3.729c0.003,0.001,0.005,0.002,0.008,0.003c0.017-0.058,0.028-0.113,0.044-0.171 c0.016-0.055,0.038-0.118,0.053-0.171C18.126,37.75,18.123,37.75,18.12,37.749z"/><linearGradient id="DaO8vmF~_f_4S1jL2Fzpkl" x1="23.37" x2="23.37" y1="-11.596" y2="35.373" gradientUnits="userSpaceOnUse"><stop offset="0" stop-color="#b84af2"/><stop offset=".443" stop-color="#a639ed"/><stop offset="1" stop-color="#e52030"/></linearGradient><path fill="url(#DaO8vmF~_f_4S1jL2Fzpkl)" d="M22.156,32.626c0.002-0.026,0.006-0.084,0.005-0.084c0.124-2.083-0.004-4.147-0.146-5.643 c0.001,0,0.002,0,0.003,0c-0.011-0.106-0.036-0.349-0.038-0.367c0,0,0,0-0.001,0c-0.03-0.279-0.059-0.549-0.087-0.796 c-0.079-0.698-0.142-1.249-0.142-1.612c0-1.31,1.009-2.375,2.25-2.375c1.016,0,1.634,0.444,2.204,1.585 c0.155,0.31,0.435,1.688,0.646,3.438c0.013-0.002,0.013,0.001,0,0.003c0.152,1.259,0.268,2.711,0.275,4.103 c0.002,0.413,0.337,0.747,0.75,0.747c0.001,0,0.002,0,0.003,0c0.415-0.002,0.749-0.339,0.747-0.753 c-0.007-1.333-0.139-3.002-0.296-4.357c0.001,0,0.002,0,0.003-0.001c-0.007-0.057-0.026-0.211-0.029-0.231c0,0-0.001,0-0.001,0 c-0.216-1.704-0.506-3.122-0.756-3.622C27.028,21.628,26.097,20.25,24,20.25c-2.068,0-3.75,1.738-3.75,3.875 c0,0.448,0.067,1.036,0.151,1.781c0.027,0.239,0.056,0.498,0.085,0.766c0.003,0,0.005,0.001,0.008,0.001c-0.003,0-0.005,0-0.008,0 c0.167,1.56,0.334,3.607,0.162,6.024h0c-0.125,1.758-0.43,3.708-1.045,5.802c-0.359,1.226-0.822,2.501-1.42,3.815 c-0.171,0.377-0.005,0.822,0.372,0.993c0.101,0.046,0.206,0.067,0.31,0.067c0.285,0,0.558-0.163,0.683-0.439 c0.615-1.351,1.154-2.883,1.537-4.172c0.002,0,0.076-0.264,0.073-0.264c0.524-1.905,0.83-3.941,0.971-5.593 C22.133,32.906,22.15,32.72,22.156,32.626z"/><linearGradient id="DaO8vmF~_f_4S1jL2Fzpkm" x1="35.375" x2="35.375" y1="-11.596" y2="35.373" gradientUnits="userSpaceOnUse"><stop offset="0" stop-color="#b84af2"/><stop offset=".443" stop-color="#a639ed"/><stop offset="1" stop-color="#e52030"/></linearGradient><path fill="url(#DaO8vmF~_f_4S1jL2Fzpkm)" d="M43.818,21.558c-0.126-0.988-0.349-2.058-0.615-3.01c0.001-0.003-0.026-0.108-0.031-0.125 c-0.001,0.002-0.002,0.005-0.002,0.008c-0.289-0.986-0.667-1.996-1.095-2.914c0.001-0.001,0.001-0.002,0.002-0.004 c-0.005-0.01-0.011-0.019-0.015-0.029c-0.005-0.012-0.01-0.025-0.015-0.037c-0.001,0.001-0.001,0.003-0.002,0.004 c-0.579-1.218-1.283-2.363-2.085-3.434c-0.971-1.297-2.092-2.474-3.348-3.503c0,0,0,0,0,0c-2.531-2.073-5.581-3.552-8.974-4.18 c-0.408-0.081-0.8,0.193-0.874,0.601c-0.076,0.407,0.194,0.798,0.601,0.874c3.008,0.556,5.723,1.841,8.005,3.635c0,0,0,0,0,0 c1.379,1.083,2.596,2.349,3.616,3.769c0.885,1.233,1.618,2.577,2.184,4.005c0.013-0.022,0.013-0.021,0,0.001 c0.497,1.253,0.865,2.566,1.084,3.928c0,0,0,0.001-0.001,0.002c0.156,0.973,0.247,1.966,0.247,2.978v0.122 c0,0.358,0.257,0.644,0.593,0.718C43.145,24.98,43.194,25,43.25,25c0.414,0,0.75-0.336,0.75-0.75v-0.122 C44,23.257,43.926,22.402,43.818,21.558z"/><linearGradient id="DaO8vmF~_f_4S1jL2Fzpkn" x1="29.347" x2="29.347" y1="-11.596" y2="35.373" gradientUnits="userSpaceOnUse"><stop offset="0" stop-color="#b84af2"/><stop offset=".443" stop-color="#a639ed"/><stop offset="1" stop-color="#e52030"/></linearGradient><path fill="url(#DaO8vmF~_f_4S1jL2Fzpkn)" d="M40.577,27.625c0.023,0,0.047-0.001,0.07-0.003c0.413-0.038,0.716-0.404,0.677-0.816 c-0.106-1.137-0.257-2.301-0.388-3.202c0-0.001,0.001-0.001,0.001-0.002c-0.007-0.044-0.028-0.185-0.032-0.211 c0,0-0.001,0.001-0.001,0.002c-0.307-1.999-0.62-3.269-0.741-3.713c-0.061-0.224-0.178-0.556-0.246-0.775 c-0.001,0.001-0.002,0.003-0.003,0.004c-0.514-1.595-1.242-3.079-2.165-4.411c-1.092-1.578-2.443-2.944-3.979-4.057 c0,0,0,0,0.001,0C30.99,8.426,27.6,7.25,24,7.25c-2.126,0-4.199,0.396-6.161,1.178c-0.385,0.153-0.572,0.59-0.419,0.975 c0.154,0.385,0.59,0.571,0.975,0.419C20.179,9.11,22.064,8.75,24,8.75c3.002,0,5.849,0.891,8.253,2.453c0,0,0,0-0.001,0 c1.72,1.117,3.213,2.578,4.374,4.301c0.926,1.374,1.641,2.915,2.092,4.583c0.018,0.064,0.048,0.182,0.084,0.328 c0.005-0.006,0.009-0.012,0.014-0.017c-0.005,0.005-0.009,0.012-0.013,0.017c0.171,0.69,0.524,2.277,0.823,4.663 c0.014,0.109,0.154,1.323,0.205,1.866C39.867,27.333,40.194,27.625,40.577,27.625z"/><linearGradient id="DaO8vmF~_f_4S1jL2Fzpko" x1="34.116" x2="34.116" y1="-11.596" y2="35.373" gradientUnits="userSpaceOnUse"><stop offset="0" stop-color="#b84af2"/><stop offset=".443" stop-color="#a639ed"/><stop offset="1" stop-color="#e52030"/></linearGradient><path fill="url(#DaO8vmF~_f_4S1jL2Fzpko)" d="M38.082,27.197c-0.005-0.066-0.02-0.253-0.022-0.28c-0.001,0.001-0.001,0.001-0.002,0.002 c-0.174-2.118-0.475-3.914-0.711-5.054c0.001-0.001-0.043-0.209-0.049-0.235c-0.001,0-0.169-0.717-0.232-0.942 c-0.384-1.491-1.02-2.877-1.85-4.129c0,0-0.001,0-0.001,0.001c-1.05-1.588-2.42-2.955-4.066-3.994 c-0.35-0.221-0.813-0.117-1.035,0.234c-0.221,0.35-0.116,0.813,0.234,1.035c1.444,0.912,2.65,2.109,3.584,3.509 c0,0,0.001,0,0.001-0.001c0.761,1.14,1.345,2.412,1.701,3.797c0.1,0.363,0.249,0.971,0.405,1.803 c0.242,1.288,0.498,3.137,0.623,5.533c0,0-0.001,0.001-0.001,0.001c0.087,1.661,0.105,3.591,0.01,5.778 c-0.002,0.002-0.004,0.004-0.006,0.006c-0.057,1.238-0.147,2.549-0.287,3.951c-0.042,0.412,0.259,0.78,0.671,0.821 c0.025,0.003,0.051,0.004,0.076,0.004c0.38,0,0.707-0.289,0.745-0.675c0.191-1.916,0.295-3.676,0.339-5.297 c0.002-0.002,0.004-0.004,0.006-0.006c0.053-2.128-0.023-4.227-0.138-5.858C38.079,27.199,38.081,27.198,38.082,27.197z"/><linearGradient id="DaO8vmF~_f_4S1jL2Fzpkp" x1="15.257" x2="15.257" y1="-11.596" y2="35.373" gradientUnits="userSpaceOnUse"><stop offset="0" stop-color="#b84af2"/><stop offset=".443" stop-color="#a639ed"/><stop offset="1" stop-color="#e52030"/></linearGradient><path fill="url(#DaO8vmF~_f_4S1jL2Fzpkp)" d="M7.491,15.712c0.445-0.883,0.959-1.713,1.522-2.498c-0.017-0.019-0.031-0.042-0.048-0.062 c0.017,0.02,0.033,0.042,0.05,0.062c1.03-1.438,2.248-2.703,3.611-3.773c0,0,0,0,0,0c3.128-2.458,7.008-3.884,11.135-3.937 c0.414-0.005,0.746-0.345,0.74-0.76c-0.005-0.411-0.34-0.74-0.75-0.74c-0.003,0-0.006,0-0.01,0 c-4.597,0.059-8.914,1.688-12.354,4.51c0,0,0,0,0.001,0c-1.225,1.005-2.333,2.166-3.306,3.458c0,0-0.001-0.001-0.001-0.001 c-0.005,0.006-0.009,0.014-0.014,0.02c-0.007,0.01-0.015,0.019-0.023,0.029c0.001,0.001,0.001,0.001,0.002,0.002 c-0.704,0.947-1.381,2-1.926,3.082l-0.031,0.061c-0.185,0.37-0.004,0.757,0.366,0.943c0.093,0.047,0.194,0.068,0.295,0.068 C7.048,16.176,7.352,15.988,7.491,15.712z"/><linearGradient id="DaO8vmF~_f_4S1jL2Fzpkq" x1="22.962" x2="22.962" y1="-11.596" y2="35.373" gradientUnits="userSpaceOnUse"><stop offset="0" stop-color="#b84af2"/><stop offset=".443" stop-color="#a639ed"/><stop offset="1" stop-color="#e52030"/></linearGradient><path fill="url(#DaO8vmF~_f_4S1jL2Fzpkq)" d="M24,13.75c-3.453,0-6.506,1.742-8.365,4.399c-1.183,1.691-1.885,3.75-1.885,5.976 c0,0.009,0.001,0.017,0.001,0.026c0.002,0.952,0.08,1.646,0.172,2.446c0.104,0.909,0.227,1.989,0.288,3.833 c0.007,0.004,0.015,0.007,0.022,0.011c-0.007-0.004-0.015-0.006-0.022-0.01c0.022,0.665,0.036,1.425,0.039,2.321 c0,0.414,0.336,0.748,0.75,0.748c0,0,0.001,0,0.002,0c0.414-0.001,0.749-0.337,0.748-0.752c-0.001-0.534-0.01-1.093-0.019-1.554 c0,0,0,0,0,0c0-0.015-0.001-0.027-0.001-0.041c0-0.02-0.001-0.045-0.001-0.065c0,0,0,0-0.001,0 c-0.052-2.336-0.195-3.615-0.315-4.663c-0.059-0.512-0.108-0.961-0.136-1.449c-0.016-0.266-0.027-0.541-0.027-0.851 c0-2.027,0.681-3.891,1.812-5.387c1.601-2.116,4.111-3.488,6.938-3.488c2.675,0,5.167,1.217,6.839,3.339 c0.043,0.054,0.099,0.09,0.153,0.129c0.266,0.194,0.63,0.208,0.901-0.004c0.153-0.121,0.241-0.29,0.27-0.468 c0.033-0.201-0.009-0.413-0.145-0.585C30.06,15.175,27.137,13.75,24,13.75z"/></svg>