<svg xmlns="http://www.w3.org/2000/svg" viewBox="0 0 48 48"><linearGradient id="cJPZvlz7uz4HfoHem~XS9a" x1="13.933" x2="34.491" y1="42.933" y2="4.27" gradientTransform="matrix(1 0 0 -1 0 48)" gradientUnits="userSpaceOnUse"><stop offset=".012" stop-color="#f3653d"/><stop offset=".326" stop-color="#f05b31"/><stop offset=".523" stop-color="#ee552a"/><stop offset="1" stop-color="#ed5328"/></linearGradient><path fill="url(#cJPZvlz7uz4HfoHem~XS9a)" d="M39,41h-4l-1-1l-1,1H15l-1-1l-1,1H9c-2.209,0-4-1.791-4-4v-6l1-1l-1-1V19l1-1l-1-1v-6	c0-2.209,1.791-4,4-4h4l1,1l1-1h18l1,1l1-1h4c2.209,0,4,1.791,4,4v6l-1,1l1,1v10l-1,1l1,1v6C43,39.209,41.209,41,39,41z"/><polygon fill="#f6eca5" points="43,19 43,17 35,17 35,7 33,7 33,17 15,17 15,7 13,7 13,17 5,17 5,19 23,19 23,29 5,29 5,31 13,31 13,41 15,41 15,31 33,31 33,41 35,41 35,31 43,31 43,29 25,29 25,19"/></svg>