<svg xmlns="http://www.w3.org/2000/svg" viewBox="0 0 51.71944 51.71944"><defs><style>.cls-1,.cls-2{fill:#409eff;stroke:#409eff;stroke-miterlimit:10;}.cls-1{stroke-width:2.37944px;}.cls-2{stroke-width:2.5px;}</style></defs><g id="图层_2" data-name="图层 2"><g id="图层_1-2" data-name="图层 1"><path class="cls-1" d="M25.85972,47.00543A21.14572,21.14572,0,1,0,4.714,25.85972,21.14571,21.14571,0,0,0,25.85972,47.00543Zm0,3.52429a24.67,24.67,0,1,1,24.67-24.67A24.67,24.67,0,0,1,25.85972,50.52972Z"/><path class="cls-2" d="M25.85972,1.79115a1.85143,1.85143,0,0,1,1.85143,1.85143V14.75115a1.85143,1.85143,0,0,1-3.70286,0V3.64258A1.85143,1.85143,0,0,1,25.85972,1.79115Zm0,33.32571a1.85143,1.85143,0,0,1,1.85143,1.85143V48.07686a1.85143,1.85143,0,1,1-3.70286,0V36.96829A1.85143,1.85143,0,0,1,25.85972,35.11686ZM1.79115,25.85972a1.85143,1.85143,0,0,1,1.85143-1.85143H14.75115a1.85143,1.85143,0,0,1,0,3.70286H3.64258A1.85143,1.85143,0,0,1,1.79115,25.85972Zm33.32571,0a1.85143,1.85143,0,0,1,1.85143-1.85143H48.07686a1.85143,1.85143,0,0,1,0,3.70286H36.96829A1.85143,1.85143,0,0,1,35.11686,25.85972Z"/></g></g></svg>